<?xml version="1.0" standalone="no"?>
<!DOCTYPE svg PUBLIC "-//W3C//DTD SVG 20010904//EN"
 "http://www.w3.org/TR/2001/REC-SVG-20010904/DTD/svg10.dtd">
<svg version="1.0" xmlns="http://www.w3.org/2000/svg"
 width="2448.000000pt" height="3264.000000pt" viewBox="0 0 2448.000000 3264.000000"
 preserveAspectRatio="xMidYMid meet">
<metadata>
Created by potrace 1.12, written by Peter Selinger 2001-2015
</metadata>
<g transform="translate(0.000000,3264.000000) scale(0.100000,-0.100000)"
fill="#000000" stroke="none">
<path d="M4063 31612 c-33 -21 -42 -108 -18 -169 20 -53 80 -272 100 -368 38
-186 85 -295 129 -303 38 -8 40 15 8 85 -24 51 -38 108 -57 228 -31 197 -82
455 -96 492 -10 28 -26 43 -44 43 -5 0 -15 -4 -22 -8z"/>
<path d="M3834 31602 c-6 -4 -19 -23 -29 -42 -16 -31 -17 -43 -6 -115 7 -44
25 -123 41 -175 111 -363 123 -391 178 -423 56 -33 101 -5 81 50 -5 15 -14 20
-28 16 -29 -7 -50 32 -93 181 -51 171 -66 251 -77 379 -9 122 -27 156 -67 129z"/>
<path d="M11930 31517 c-32 -25 -57 -74 -74 -142 -10 -42 -52 -139 -103 -240
-70 -138 -86 -179 -87 -217 -1 -25 3 -50 7 -54 13 -13 40 10 50 42 6 16 42 81
81 144 86 139 193 351 202 397 12 66 -31 106 -76 70z"/>
<path d="M11605 31484 c-45 -23 -62 -41 -135 -139 -102 -138 -133 -194 -134
-240 -1 -34 2 -40 20 -43 16 -2 28 7 45 35 75 124 223 300 288 343 18 12 22
21 17 38 -9 27 -56 30 -101 6z"/>
<path d="M4766 31241 c-23 -26 -89 -226 -121 -366 -33 -150 -52 -305 -66 -549
-21 -369 -1 -535 72 -614 45 -48 37 -52 234 93 39 29 120 78 180 109 142 74
190 123 151 155 -20 17 -281 -116 -410 -208 -54 -39 -104 -71 -111 -71 -18 0
-33 48 -44 140 -9 70 0 416 14 560 25 246 50 365 115 555 23 66 46 134 52 152
19 55 -28 86 -66 44z"/>
<path d="M8062 31127 c-29 -30 -60 -163 -72 -312 -25 -283 -42 -439 -65 -585
-36 -240 -39 -279 -18 -320 13 -26 24 -35 43 -35 23 0 25 3 22 35 -9 85 -2
166 26 315 17 88 40 248 51 355 32 289 40 344 67 439 19 66 23 91 15 108 -13
29 -42 29 -69 0z"/>
<path d="M10495 30924 c-14 -15 -26 -32 -27 -38 0 -6 -2 -132 -2 -281 -1 -307
-14 -410 -73 -580 -45 -131 -55 -195 -43 -270 16 -95 68 -128 121 -76 51 52
29 93 -35 66 -18 -8 -19 -4 -13 56 3 36 25 124 51 201 56 168 91 365 105 593
6 94 13 204 16 247 4 61 2 79 -11 92 -23 24 -62 19 -89 -10z"/>
<path d="M267 30763 c-15 -14 -5 -43 23 -66 58 -49 180 -82 495 -137 138 -23
276 -55 415 -96 117 -35 140 -44 140 -59 0 -23 -90 -119 -220 -235 -156 -141
-256 -219 -390 -305 -261 -168 -267 -173 -256 -200 16 -43 124 9 405 198 179
121 490 395 540 477 47 78 11 121 -148 174 -136 45 -403 111 -506 126 -159 22
-353 66 -375 85 -17 15 -87 45 -105 45 -6 0 -15 -3 -18 -7z"/>
<path d="M12880 30650 c-189 -33 -274 -58 -380 -111 -190 -95 -276 -261 -199
-385 55 -89 253 -129 516 -105 76 7 148 15 161 18 30 7 28 -13 -5 -42 -50 -44
-335 -218 -412 -252 -42 -18 -99 -38 -128 -44 -45 -10 -55 -10 -78 5 -32 21
-45 14 -45 -28 0 -41 17 -56 70 -63 101 -14 274 64 559 252 122 81 161 121
168 172 8 63 -6 69 -166 63 -386 -13 -495 -3 -557 52 -44 39 -46 85 -6 149 85
132 259 205 602 249 94 13 120 28 120 72 0 25 -3 28 -32 27 -18 -1 -103 -14
-188 -29z"/>
<path d="M22295 30643 c-66 -16 -56 -80 15 -96 14 -3 131 -7 260 -8 358 -3
450 -18 450 -74 0 -28 -53 -111 -81 -126 -36 -19 -459 -75 -903 -119 -165 -17
-359 -37 -431 -45 -71 -8 -197 -19 -280 -25 -82 -6 -193 -15 -245 -21 -52 -5
-137 -14 -189 -19 -114 -12 -128 -16 -142 -41 -23 -43 14 -79 63 -60 29 11
240 37 373 46 157 11 424 35 605 55 96 10 231 24 300 30 212 18 535 61 680 90
27 5 49 5 54 -1 5 -5 8 -10 5 -12 -44 -34 -227 -196 -273 -241 -217 -215 -336
-346 -336 -369 0 -36 23 -52 52 -36 13 6 133 120 268 253 135 133 305 295 378
360 195 174 244 273 170 343 -74 70 -135 82 -428 89 -173 4 -242 10 -262 20
-27 14 -64 16 -103 7z"/>
<path d="M8484 30544 c-91 -44 -165 -145 -198 -273 -9 -33 -20 -49 -42 -61
-39 -22 -44 -61 -9 -80 14 -7 28 -25 30 -39 25 -127 46 -163 114 -193 64 -28
144 -28 201 0 70 35 164 111 221 181 60 72 62 71 73 -39 7 -78 37 -187 63
-230 28 -48 98 -90 149 -90 80 0 181 93 224 206 20 53 77 315 88 397 3 32 1
37 -15 37 -44 0 -70 -56 -113 -235 -16 -69 -36 -141 -44 -160 -23 -55 -75
-122 -118 -151 l-39 -27 -26 19 c-41 31 -61 80 -84 209 -16 94 -19 141 -14
218 6 104 0 127 -36 127 -21 0 -43 -38 -53 -90 -10 -52 -79 -150 -138 -196
-120 -92 -200 -129 -260 -121 -60 8 -91 35 -107 96 -20 72 -8 88 100 145 49
26 110 64 136 85 57 45 102 122 110 189 5 45 3 50 -27 75 -42 36 -114 37 -186
1z m126 -104 c-7 -16 -38 -54 -69 -83 -57 -52 -157 -114 -168 -103 -3 3 2 27
12 53 27 70 118 158 176 170 54 12 66 3 49 -37z"/>
<path d="M6962 30519 c-23 -24 -41 -75 -73 -214 -53 -231 -103 -341 -191 -420
-78 -71 -150 -81 -200 -27 -32 35 -31 32 -84 262 -24 106 -51 204 -59 217 -34
51 -73 17 -165 -146 -64 -112 -144 -216 -160 -206 -4 3 -11 42 -15 87 -15 182
-59 371 -93 401 -15 14 -21 15 -36 4 -23 -17 -23 -41 2 -117 24 -74 47 -197
57 -315 4 -43 14 -93 21 -111 16 -39 64 -62 99 -46 38 17 136 143 185 238 26
48 51 89 57 91 5 2 15 -22 22 -54 6 -32 18 -94 27 -137 41 -208 99 -276 236
-276 79 0 142 33 216 115 89 97 105 142 178 508 24 124 26 140 12 153 -14 14
-18 14 -36 -7z"/>
<path d="M9885 30465 c-5 -2 -29 -9 -51 -14 -77 -20 -162 -108 -199 -208 -24
-64 -31 -70 -55 -48 -16 15 -25 17 -38 9 -31 -20 -26 -56 13 -94 31 -30 35
-39 35 -86 0 -124 37 -195 119 -230 50 -22 130 -12 189 22 93 54 214 195 189
220 -9 9 -47 -15 -114 -72 -34 -30 -91 -68 -125 -85 -53 -27 -68 -30 -97 -23
-51 13 -74 51 -75 125 l-1 63 45 8 c119 21 274 139 299 229 10 34 10 56 2 86
-12 45 -54 93 -82 93 -9 0 -23 2 -31 4 -7 3 -17 3 -23 1z m55 -100 c17 -20 6
-58 -29 -97 -41 -47 -159 -126 -200 -134 -32 -7 -33 -6 -26 17 43 143 203 277
255 214z"/>
<path d="M5392 30448 c-7 -7 -12 -25 -12 -40 0 -16 -7 -43 -16 -60 -22 -42
-33 -143 -24 -204 12 -73 48 -161 82 -199 81 -93 280 -98 376 -10 36 32 37 36
37 102 -1 57 -5 75 -29 113 -80 127 -308 310 -386 310 -9 0 -21 -5 -28 -12z
m226 -202 c145 -149 169 -197 119 -244 -76 -71 -213 -68 -266 6 -32 45 -63
177 -56 231 7 47 58 111 87 111 8 0 60 -47 116 -104z"/>
<path d="M1009 30406 c-3 -3 -115 -6 -250 -6 -242 -1 -635 -15 -716 -26 -43
-5 -43 -6 -43 -46 l0 -40 77 6 c128 11 574 26 788 27 213 1 242 5 259 32 19
30 -5 52 -60 55 -28 2 -52 1 -55 -2z"/>
<path d="M14975 30309 c-240 -11 -320 -50 -399 -192 -47 -84 -101 -220 -126
-317 -11 -44 -26 -91 -32 -105 -10 -23 -8 -29 14 -52 20 -20 32 -24 52 -19 21
5 28 16 41 64 72 264 124 388 197 468 31 34 55 48 102 63 73 22 384 58 411 47
18 -7 13 -14 -40 -59 -141 -120 -208 -210 -221 -293 -12 -85 69 -179 186 -214
67 -20 354 -43 417 -33 27 4 39 -2 90 -49 77 -71 135 -110 210 -142 105 -44
212 -68 323 -73 97 -5 107 -3 128 16 25 24 28 46 10 58 -7 4 -56 6 -108 5
-161 -5 -365 59 -470 147 -30 25 -33 31 -21 45 7 9 21 16 30 16 9 0 43 13 77
29 112 53 224 216 224 328 0 65 -13 99 -53 141 -67 70 -158 95 -250 68 -44
-13 -65 -27 -109 -75 -105 -112 -143 -254 -103 -384 13 -43 13 -48 -2 -54 -9
-4 -89 -2 -177 4 -180 13 -233 28 -279 83 -15 17 -27 44 -27 59 0 41 53 113
143 194 177 159 181 164 154 201 -26 36 -92 40 -392 25z m943 -164 c17 -19 34
-49 37 -68 16 -85 -90 -238 -207 -296 -89 -45 -90 -44 -103 42 -17 111 63 279
160 339 46 28 78 23 113 -17z"/>
<path d="M13809 30283 c-20 -23 -20 -378 0 -447 21 -70 73 -122 133 -131 64
-10 108 7 172 66 68 62 113 149 159 304 49 163 51 179 32 195 -28 23 -60 -22
-106 -149 -56 -155 -80 -209 -118 -255 -101 -125 -185 -112 -201 31 -4 37 -5
134 -3 214 5 154 -2 189 -36 189 -10 0 -25 -7 -32 -17z"/>
<path d="M13348 30264 c-4 -3 -36 -6 -73 -6 -39 0 -87 -8 -118 -19 -28 -11
-52 -19 -53 -19 -1 0 -4 -7 -8 -15 -9 -25 4 -43 35 -50 30 -7 30 -7 23 -64
-25 -222 196 -325 452 -212 57 25 84 70 84 136 0 59 -26 119 -67 158 -57 53
-250 117 -275 91z m167 -114 c58 -28 105 -82 105 -121 0 -63 -104 -113 -232
-111 -74 1 -119 19 -144 57 -36 55 -25 171 18 193 38 20 200 8 253 -18z"/>
<path d="M15253 28681 c-45 -28 -86 -92 -253 -396 -147 -268 -287 -460 -365
-501 -32 -16 -41 -27 -43 -51 -2 -25 2 -35 22 -48 22 -15 27 -15 54 -1 42 22
114 105 192 221 72 109 100 158 210 370 97 189 155 284 208 345 60 69 47 104
-25 61z"/>
<path d="M14792 28647 c-13 -6 -56 -61 -96 -121 -173 -263 -289 -442 -391
-601 -60 -93 -126 -194 -147 -222 -49 -67 -61 -98 -48 -124 16 -29 45 -23 77
16 24 29 162 251 315 505 100 167 179 291 257 402 44 65 81 122 81 127 0 19
-25 29 -48 18z"/>
<path d="M19752 28437 c-21 -23 -52 -96 -52 -125 0 -16 -34 -131 -106 -354
-50 -157 -56 -221 -24 -256 12 -12 25 -22 30 -22 14 0 37 41 44 80 4 19 26 76
51 125 24 50 67 162 96 250 28 88 62 181 75 207 43 84 29 118 -46 118 -35 0
-52 -5 -68 -23z"/>
<path d="M5147 28390 c-73 -13 -151 -56 -196 -107 -82 -92 -157 -293 -181
-485 -5 -46 -10 -166 -10 -269 0 -171 2 -187 19 -203 11 -10 30 -16 43 -14
l23 3 1 245 c0 151 5 270 13 309 30 155 99 319 164 390 70 76 271 79 344 6 18
-18 33 -40 33 -49 0 -20 -62 -61 -190 -125 -255 -128 -350 -231 -307 -333 48
-114 168 -175 458 -234 176 -35 394 -40 428 -10 25 23 26 30 5 51 -14 13 -28
15 -79 10 -93 -10 -363 31 -497 75 -149 50 -225 99 -242 157 -14 47 82 118
318 234 128 63 196 121 196 165 -1 72 -65 153 -138 174 -56 15 -151 20 -205
10z"/>
<path d="M8605 28385 c-70 -19 -152 -52 -205 -82 -167 -96 -340 -302 -400
-478 -35 -103 -23 -168 44 -243 100 -110 346 -133 610 -57 258 75 391 172 410
299 21 140 -95 347 -250 447 -59 38 -63 43 -49 59 8 9 15 22 15 28 0 31 -103
47 -175 27z m75 -126 c73 -34 199 -155 242 -232 31 -54 58 -132 58 -164 0 -61
-78 -156 -160 -194 -25 -12 -90 -36 -145 -54 -327 -106 -614 -52 -607 114 2
54 55 169 116 255 89 124 256 266 312 266 13 0 32 9 42 19 25 28 68 25 142
-10z"/>
<path d="M6237 28352 c-24 -26 -30 -47 -100 -352 -99 -428 -110 -500 -87 -581
18 -64 88 -106 113 -67 9 14 6 23 -16 46 -44 45 -42 56 79 552 30 124 67 262
81 307 21 68 24 85 13 98 -17 20 -63 19 -83 -3z"/>
<path d="M11344 28344 c-50 -25 -58 -49 -50 -166 4 -57 9 -202 12 -323 5 -201
7 -224 28 -265 17 -35 28 -45 47 -45 l24 0 0 115 c1 63 6 174 13 245 18 193
17 401 -3 431 -18 28 -29 29 -71 8z"/>
<path d="M17526 28331 c-14 -15 -15 -24 -7 -40 21 -38 5 -255 -21 -287 -5 -7
-25 -15 -45 -19 -80 -15 -172 -80 -187 -132 -7 -23 8 -63 24 -63 5 0 29 22 55
49 44 46 119 91 131 78 9 -9 -14 -73 -57 -159 -21 -42 -36 -84 -33 -93 10 -26
42 -17 69 20 l27 35 30 -30 c30 -30 45 -35 108 -31 46 4 147 58 173 93 25 34
37 36 37 4 0 -31 20 -47 68 -53 33 -4 42 -2 56 18 23 33 20 49 -9 49 -25 0
-25 1 -25 78 0 88 -13 116 -50 110 -17 -2 -36 -21 -62 -59 -49 -74 -120 -136
-177 -153 -74 -22 -73 -3 4 75 82 84 169 143 238 164 27 8 56 20 63 26 19 15
18 44 -2 60 -13 10 -41 8 -165 -15 -83 -16 -153 -25 -156 -22 -4 3 1 37 10 75
31 126 16 210 -39 231 -34 13 -38 13 -58 -9z m142 -370 c-7 -18 -119 -133
-125 -128 -11 11 42 119 62 128 27 11 67 11 63 0z"/>
<path d="M18772 28265 c-23 -20 -32 -37 -37 -76 -7 -47 -10 -52 -44 -65 -66
-27 -81 -37 -101 -70 -26 -42 -25 -75 5 -96 31 -23 48 -15 64 27 7 19 17 35
22 35 15 0 11 -9 -33 -84 -31 -53 -41 -82 -42 -116 -1 -39 2 -45 20 -48 31 -4
90 68 155 187 30 55 59 102 64 104 6 2 90 -1 187 -7 141 -7 180 -7 192 4 9 7
16 16 16 21 0 25 -108 46 -270 53 l-95 5 3 61 c3 38 -1 66 -8 75 -19 23 -65
18 -98 -10z"/>
<path d="M10508 28264 c-3 -5 -8 -21 -12 -36 -4 -20 -25 -37 -84 -71 -90 -52
-140 -111 -209 -245 -61 -118 -58 -189 10 -260 67 -69 286 -107 477 -82 116
15 192 42 239 86 35 32 36 35 35 101 -2 81 -33 167 -103 287 -53 91 -123 159
-201 194 -56 26 -144 41 -152 26z m137 -114 c65 -45 115 -108 163 -205 70
-141 79 -227 28 -260 -39 -26 -155 -45 -276 -44 -221 0 -337 55 -310 148 14
51 87 174 131 225 24 26 67 60 100 77 32 16 68 42 81 59 12 16 26 30 31 30 4
0 28 -13 52 -30z"/>
<path d="M1925 28224 c-64 -10 -187 -57 -242 -93 -176 -115 -245 -256 -193
-395 37 -98 115 -169 242 -219 117 -47 199 -60 368 -60 267 1 449 49 552 145
107 101 94 283 -29 406 -62 61 -125 92 -221 106 -59 8 -81 16 -95 33 -10 12
-43 34 -75 49 -50 24 -71 28 -167 30 -60 1 -123 0 -140 -2z m221 -65 c99 -17
105 -46 14 -63 -106 -21 -263 -107 -245 -135 7 -12 9 -11 130 40 50 20 118 43
152 49 l63 13 29 -32 c39 -42 84 -41 89 2 4 32 2 31 66 12 117 -35 196 -134
196 -245 0 -168 -135 -247 -455 -269 -251 -17 -452 29 -550 126 -40 40 -75
120 -75 173 0 58 40 128 112 196 80 76 172 117 300 133 92 12 105 12 174 0z"/>
<path d="M17095 28203 c-55 -8 -219 -50 -257 -66 -42 -18 -65 -51 -49 -71 6
-7 55 -28 108 -46 108 -37 118 -42 181 -84 98 -67 96 -176 -4 -245 -47 -32
-113 -40 -131 -15 -17 23 -43 10 -57 -29 -12 -33 10 -61 60 -77 26 -9 46 -8
94 6 167 47 256 214 177 333 -36 54 -91 93 -188 133 -108 44 -106 51 23 73
113 20 153 19 205 -7 44 -22 45 -22 59 -3 18 24 18 28 -6 57 -30 39 -115 55
-215 41z"/>
<path d="M15313 28149 c-178 -23 -281 -220 -205 -392 27 -60 75 -88 161 -95
54 -3 75 -1 107 16 56 28 72 49 53 67 -11 11 -23 12 -54 5 -22 -5 -64 -10 -92
-10 -44 0 -58 5 -85 29 -27 24 -32 36 -36 87 -5 74 25 135 85 178 57 40 115
44 197 16 78 -28 98 -23 94 22 -2 26 -10 36 -38 50 -50 24 -126 35 -187 27z"/>
<path d="M9201 28089 c-12 -13 -21 -31 -21 -41 0 -25 169 -255 225 -307 25
-23 45 -48 45 -55 0 -7 -35 -40 -77 -72 -82 -61 -195 -173 -239 -236 -25 -36
-26 -39 -10 -63 30 -46 57 -34 136 63 39 48 117 127 172 175 l100 89 21 -19
c29 -26 154 -96 196 -111 56 -20 94 16 54 50 -10 8 -57 36 -105 62 -49 26 -88
51 -88 57 0 19 33 43 234 174 172 112 215 155 172 171 -30 12 -186 -77 -373
-212 -57 -41 -107 -74 -112 -74 -16 0 -80 84 -176 229 -97 146 -116 161 -154
120z"/>
<path d="M15695 28051 c-80 -36 -155 -152 -155 -239 0 -33 61 -89 106 -98 86
-16 233 23 286 77 34 33 36 74 9 128 -20 38 -83 101 -102 101 -5 0 -14 11 -19
25 -8 21 -16 25 -47 25 -21 0 -56 -9 -78 -19z m107 -99 c36 -24 68 -66 68 -90
0 -22 -84 -59 -157 -69 -58 -8 -98 17 -88 55 14 58 84 120 135 122 8 0 27 -8
42 -18z"/>
<path d="M16432 28060 c-12 -5 -39 -21 -60 -35 l-37 -25 -5 27 c-4 21 -12 29
-32 31 -30 4 -40 -11 -76 -106 -11 -28 -34 -69 -52 -92 -41 -52 -39 -94 5 -98
27 -3 42 9 120 88 105 106 152 140 166 119 5 -8 9 -47 9 -87 0 -64 3 -76 25
-98 32 -32 88 -31 93 2 2 11 -4 27 -13 34 -11 9 -15 33 -15 97 0 50 -6 97 -14
118 -14 31 -19 35 -53 34 -21 0 -48 -4 -61 -9z"/>
<path d="M7315 28028 c-77 -5 -189 -15 -249 -23 -115 -15 -146 -30 -146 -70 0
-18 9 -25 44 -34 25 -6 65 -11 91 -11 38 0 47 4 54 23 9 23 12 24 303 41 375
23 408 26 422 49 8 14 8 20 -4 27 -18 11 -317 10 -515 -2z"/>
<path d="M18255 27960 c-51 -52 -65 -56 -58 -17 5 26 -19 57 -43 57 -26 0 -54
-42 -90 -130 -18 -47 -33 -90 -34 -97 0 -13 52 -33 85 -33 14 0 48 23 85 58
34 31 65 57 69 57 3 0 6 -21 6 -47 1 -57 10 -68 62 -75 46 -6 74 17 56 45 -6
10 -8 51 -5 99 4 66 1 88 -12 108 -27 41 -63 33 -121 -25z"/>
<path d="M7585 27788 c-46 -15 -444 -22 -585 -9 -110 9 -126 9 -142 -6 -22
-19 -23 -46 -4 -62 10 -8 103 -14 298 -18 374 -8 508 9 508 65 0 20 -19 42
-34 41 -6 0 -24 -5 -41 -11z"/>
<path d="M14791 27016 c-29 -20 -108 -83 -175 -140 -209 -177 -676 -697 -676
-752 0 -24 38 -37 71 -24 16 7 29 16 29 20 0 13 187 259 289 379 129 153 250
274 409 406 123 101 148 132 116 142 -6 2 -34 -12 -63 -31z"/>
<path d="M14324 26996 c-68 -46 -264 -234 -329 -316 -102 -129 -195 -268 -290
-435 -53 -93 -101 -174 -106 -180 -5 -5 -9 -19 -9 -31 0 -25 31 -37 64 -24 29
11 46 37 101 160 25 56 70 143 100 192 30 50 55 93 55 95 0 5 84 127 124 178
72 94 143 169 256 266 66 57 120 110 120 117 0 22 -34 13 -86 -22z"/>
<path d="M15854 26806 c-91 -40 -362 -207 -495 -305 -27 -20 -40 -5 -93 105
-42 87 -48 94 -74 94 -16 0 -36 -7 -43 -16 -11 -14 -9 -24 16 -71 17 -30 47
-77 68 -104 20 -27 37 -55 37 -62 0 -7 -34 -39 -76 -72 -81 -63 -254 -247
-280 -297 -20 -38 -5 -58 43 -58 47 0 75 16 68 40 -8 26 119 182 237 289 l59
54 37 -44 c57 -68 88 -95 178 -154 130 -86 234 -118 242 -74 2 11 -18 26 -65
48 -137 66 -323 213 -323 257 0 24 240 188 420 287 67 36 116 70 118 80 4 21
-29 22 -74 3z"/>
<path d="M2054 26750 c-28 -11 -40 -51 -55 -180 -18 -161 -6 -385 35 -635 19
-115 38 -243 42 -283 8 -85 31 -124 61 -106 33 20 29 96 -23 424 -31 197 -43
508 -21 585 13 48 15 50 47 47 71 -6 72 30 1 107 -49 53 -53 55 -87 41z"/>
<path d="M12120 26744 c-14 -2 -79 -11 -145 -20 -164 -21 -214 -33 -225 -54
-13 -24 -13 -96 0 -120 8 -15 141 -110 154 -110 15 0 152 -97 201 -141 93 -86
107 -140 56 -221 -44 -69 -142 -133 -245 -159 -69 -17 -88 -8 -135 67 -23 36
-47 64 -54 62 -6 -3 -13 -20 -15 -39 -4 -46 34 -118 78 -147 31 -21 44 -23
115 -20 103 5 195 48 276 128 56 55 99 140 99 194 0 46 -31 125 -68 170 -39
48 -133 125 -192 157 -63 35 -109 64 -130 82 -17 15 -19 21 -10 33 16 19 64
18 81 -2 10 -13 26 -14 78 -10 207 20 352 25 469 16 161 -12 393 -51 497 -85
103 -33 209 -44 218 -22 10 27 -15 44 -135 91 -125 50 -304 98 -433 116 -170
24 -476 43 -535 34z"/>
<path d="M11005 26730 c-39 -12 -73 -44 -81 -75 -3 -13 -45 -64 -94 -113 -74
-75 -96 -105 -135 -186 -84 -171 -86 -303 -7 -416 41 -58 117 -113 182 -130
115 -31 304 -11 470 49 290 106 333 284 147 620 -66 120 -130 190 -204 226
-48 23 -74 28 -153 31 -52 2 -109 -1 -125 -6z m251 -120 c67 -33 111 -81 171
-185 124 -215 129 -357 14 -441 -75 -54 -240 -106 -376 -119 -224 -22 -345 65
-345 247 0 83 20 152 71 249 38 70 172 202 234 229 22 10 56 25 75 33 52 23
90 20 156 -13z"/>
<path d="M8976 26699 c-52 -12 -68 -27 -64 -58 3 -26 4 -26 98 -27 148 -2 253
-47 359 -153 146 -147 167 -312 54 -433 -119 -127 -447 -212 -633 -164 -107
28 -145 79 -138 186 8 107 71 218 157 276 20 13 54 38 75 54 26 20 50 30 75
30 48 0 84 20 95 52 14 40 -6 58 -66 58 -62 0 -125 -31 -218 -110 -91 -75
-124 -117 -169 -210 -33 -69 -36 -82 -36 -167 0 -85 2 -94 30 -135 22 -31 49
-52 99 -77 63 -32 76 -35 182 -39 93 -4 131 0 211 18 106 24 222 67 287 105
53 31 138 119 164 169 66 125 13 324 -123 461 -68 70 -129 106 -230 140 -85
28 -157 36 -209 24z"/>
<path d="M5215 26670 c-63 -13 -148 -48 -200 -82 -102 -68 -212 -257 -260
-447 -73 -290 -47 -631 47 -631 34 0 42 40 19 106 -30 89 -34 149 -22 281 23
232 76 405 158 508 41 51 132 112 205 136 82 27 198 37 198 18 0 -8 -51 -50
-113 -94 -245 -174 -317 -245 -317 -316 0 -46 31 -133 64 -177 56 -76 298
-219 428 -252 59 -15 204 -9 243 10 27 14 49 59 28 60 -4 1 -57 2 -118 3 -104
2 -114 4 -189 40 -94 44 -252 147 -318 206 -35 31 -48 50 -48 70 0 39 68 106
262 254 167 128 208 172 208 219 0 36 -35 76 -78 88 -43 11 -139 12 -197 0z"/>
<path d="M6184 26566 c-97 -19 -180 -43 -241 -71 -43 -20 -53 -29 -53 -49 0
-35 17 -76 34 -82 9 -3 50 8 92 25 93 37 166 55 297 71 141 18 197 5 197 -45
0 -29 -53 -179 -92 -262 -16 -34 -57 -111 -92 -170 -89 -153 -105 -212 -71
-260 35 -50 164 -55 350 -14 50 11 149 32 220 46 325 65 379 84 373 128 -2 15
-9 22 -23 21 -29 -2 -308 -49 -537 -90 -215 -38 -300 -42 -306 -11 -2 10 28
71 67 137 89 147 133 242 166 355 31 108 31 140 2 195 -35 66 -78 85 -207 87
-58 1 -137 -4 -176 -11z"/>
<path d="M9616 26464 c-19 -18 -19 -27 -6 -76 14 -48 164 -207 259 -273 40
-27 82 -57 93 -66 20 -15 15 -19 -133 -117 -205 -135 -199 -130 -199 -152 0
-26 27 -50 55 -50 15 0 70 36 145 95 67 53 146 112 175 132 l54 35 64 -50 c63
-51 216 -132 247 -132 21 0 40 19 34 35 -3 7 -52 41 -109 75 -124 75 -157 101
-147 116 4 6 117 71 251 145 134 73 246 140 249 147 12 33 -18 29 -121 -12
-59 -25 -189 -88 -288 -141 l-180 -97 -37 28 c-84 64 -198 171 -278 262 -48
53 -92 100 -99 105 -8 4 -20 0 -29 -9z"/>
<path d="M7610 26414 c-278 -35 -286 -39 -268 -116 5 -23 14 -45 19 -49 5 -3
53 3 105 13 126 24 357 48 469 48 118 1 232 16 262 35 27 18 30 41 6 54 -19 9
-532 22 -593 15z"/>
<path d="M7950 26163 c-273 -10 -649 -42 -667 -56 -17 -12 -17 -68 0 -91 12
-16 20 -17 87 -7 85 13 333 43 490 60 137 15 207 35 215 61 8 27 -2 40 -28 38
-12 -1 -56 -3 -97 -5z"/>
<path d="M13588 25793 c-39 -42 -76 -110 -240 -438 -181 -363 -208 -408 -248
-425 -56 -23 -66 -80 -14 -80 69 0 128 59 185 187 16 37 43 95 59 128 16 33
55 116 86 185 31 69 92 196 135 283 43 88 79 165 79 173 0 21 -14 17 -42 -13z"/>
<path d="M14978 25720 c-267 -90 -410 -215 -525 -456 -45 -94 -47 -104 -51
-199 -3 -84 0 -109 18 -157 23 -63 68 -108 106 -108 38 0 41 27 7 63 -16 18
-36 47 -43 66 -14 34 -19 169 -7 188 4 6 78 13 174 17 92 4 213 14 268 21 148
21 143 24 90 -44 -27 -34 -48 -73 -52 -94 -5 -32 -2 -37 27 -52 89 -46 239 31
346 177 20 26 40 48 44 48 5 0 19 -46 32 -102 13 -56 32 -116 43 -132 26 -38
76 -52 134 -36 49 13 57 40 12 40 -76 0 -88 18 -121 169 -29 135 -31 137 -146
157 -21 4 -52 -3 -95 -20 -70 -29 -206 -48 -467 -66 -225 -15 -262 -14 -262 8
0 35 95 184 167 261 59 64 89 87 160 124 49 24 125 57 171 72 75 24 88 26 127
15 76 -21 120 26 50 56 -52 21 -110 17 -207 -16z m321 -522 c-37 -68 -178
-178 -229 -178 -24 0 -25 8 -3 40 45 68 91 105 178 142 57 24 69 23 54 -4z"/>
<path d="M14099 25701 c-134 -62 -312 -265 -534 -606 -54 -82 -118 -174 -142
-202 -52 -62 -55 -96 -9 -101 49 -6 91 46 202 249 135 247 307 471 455 588 49
40 87 76 84 82 -8 12 -13 11 -56 -10z"/>
<path d="M18600 25688 c-12 -19 -20 -51 -20 -75 0 -23 -14 -107 -31 -185 -27
-124 -31 -162 -31 -288 1 -153 17 -318 33 -335 6 -6 15 -3 26 8 15 15 17 40
15 214 -3 196 -2 200 38 398 23 110 44 215 47 232 11 65 -43 86 -77 31z"/>
<path d="M12144 25565 c-7 -19 -14 -39 -14 -45 0 -6 -59 -187 -130 -402 -72
-216 -128 -398 -125 -406 8 -22 37 -10 61 25 31 46 113 269 179 483 80 261 95
319 88 352 -8 41 -40 37 -59 -7z"/>
<path d="M17654 25553 c-24 -26 -53 -107 -57 -160 -2 -24 2 -28 29 -31 37 -4
46 7 69 78 9 30 26 68 37 83 25 36 17 57 -22 57 -21 0 -39 -9 -56 -27z"/>
<path d="M16575 25535 c-34 -35 -78 -103 -187 -285 -54 -88 -71 -109 -113
-133 -90 -53 -144 -69 -245 -74 -88 -5 -97 -3 -124 18 -57 45 -83 148 -51 208
19 37 40 44 75 26 57 -29 63 -66 20 -120 -33 -42 -31 -55 7 -55 37 0 103 69
103 107 0 39 -36 91 -80 114 -39 22 -116 25 -155 7 -59 -27 -84 -121 -56 -216
17 -60 82 -129 135 -143 62 -17 193 -12 259 10 38 12 73 17 104 13 44 -5 47
-3 87 40 35 38 55 50 121 71 72 22 191 45 330 62 l50 7 -62 -64 c-65 -66 -85
-102 -76 -136 19 -73 198 -81 301 -14 46 29 62 58 62 108 0 82 -69 156 -163
176 -51 11 -61 10 -109 -10 -30 -12 -71 -22 -93 -22 -48 0 -187 -24 -233 -41
-18 -6 -35 -9 -38 -6 -13 12 135 244 199 314 33 36 37 45 27 58 -21 26 -60 18
-95 -20z m410 -385 c37 -71 9 -119 -82 -146 -124 -36 -134 2 -27 103 43 40 81
73 85 73 5 0 15 -13 24 -30z"/>
<path d="M11170 25468 c-14 -5 -64 -18 -111 -28 -161 -34 -274 -111 -340 -232
-29 -55 -34 -73 -34 -134 0 -61 4 -77 30 -120 17 -27 50 -62 74 -78 52 -35
158 -72 249 -87 92 -15 354 -15 425 0 144 31 225 166 200 332 -28 180 -164
313 -357 350 -61 11 -104 11 -136 -3z m169 -147 c31 -16 53 -21 74 -17 62 12
139 -66 173 -176 15 -48 15 -65 5 -114 -12 -63 -50 -120 -92 -141 -101 -50
-480 -30 -598 32 -44 22 -100 73 -117 106 -59 115 67 277 252 324 89 22 246
15 303 -14z"/>
<path d="M8951 25371 c-53 -9 -71 -31 -64 -75 5 -30 2 -34 -28 -47 -167 -68
-392 -316 -415 -456 -15 -98 58 -202 166 -236 128 -40 241 -46 427 -22 157 21
232 40 330 85 132 61 208 148 234 268 13 62 -1 143 -37 214 -31 62 -132 159
-205 198 -103 55 -299 89 -408 71z m404 -183 c33 -20 77 -57 98 -82 80 -97 97
-183 51 -273 -71 -143 -256 -218 -567 -230 -235 -9 -329 15 -385 97 -35 52
-26 101 32 183 92 129 219 230 371 292 107 45 137 51 249 49 86 -1 94 -3 151
-36z"/>
<path d="M10602 25323 c-50 -32 -169 -107 -263 -166 -94 -59 -184 -110 -199
-114 -20 -3 -40 1 -62 15 -53 33 -310 133 -332 130 -17 -2 -22 -12 -24 -42 -6
-71 2 -84 66 -101 31 -9 92 -28 135 -42 95 -30 100 -48 24 -81 -60 -26 -217
-126 -259 -165 -44 -40 -33 -97 17 -97 12 0 53 25 91 55 38 31 127 92 197 136
l128 81 37 -19 c84 -43 241 -133 292 -167 30 -20 65 -39 78 -42 24 -7 52 10
52 31 0 28 -200 174 -297 217 -50 22 -51 34 -5 63 298 187 457 307 450 343 -6
30 -32 23 -126 -35z"/>
<path d="M17420 25342 c-31 -19 -67 -60 -120 -137 -45 -66 -87 -115 -104 -123
-28 -14 -56 -64 -56 -102 0 -19 17 -25 60 -21 24 3 86 77 165 196 66 101 122
165 146 165 24 0 40 -53 47 -156 l7 -109 30 0 30 0 0 110 c0 93 -4 116 -21
145 -38 66 -110 79 -184 32z"/>
<path d="M17950 25359 c-124 -20 -272 -133 -301 -230 -11 -35 -10 -43 8 -67
56 -75 273 -36 400 72 42 37 53 37 53 1 0 -36 33 -57 90 -57 55 1 115 28 115
53 0 10 -10 13 -40 11 -22 -2 -53 -4 -70 -5 l-30 -2 3 85 c4 84 3 87 -26 118
-28 29 -35 32 -89 31 -32 -1 -83 -5 -113 -10z m150 -57 c0 -13 -53 -83 -86
-114 -53 -49 -202 -108 -273 -108 -71 0 49 149 154 191 85 33 205 51 205 31z"/>
<path d="M1960 25268 c-121 -43 -211 -108 -256 -185 -18 -30 -24 -51 -20 -68
8 -30 79 -80 101 -71 24 9 29 35 11 55 -9 10 -16 27 -16 38 0 30 91 110 168
146 63 30 73 32 182 32 143 0 170 -13 170 -79 0 -84 -64 -191 -316 -528 -239
-320 -252 -367 -117 -418 84 -31 221 -27 453 13 47 9 141 23 210 32 165 22
170 23 177 40 10 27 -17 45 -66 45 -26 0 -112 -9 -192 -20 -300 -42 -366 -50
-437 -50 -76 0 -142 19 -142 42 0 21 33 69 184 272 78 105 148 201 156 212 8
12 34 49 58 82 64 92 111 193 118 253 5 46 2 59 -18 89 -39 59 -104 83 -233
87 -95 3 -119 1 -175 -19z"/>
<path d="M6315 25283 c-118 -9 -332 -37 -349 -45 -14 -8 -17 -17 -13 -45 12
-71 19 -72 187 -38 51 10 134 17 210 18 135 1 192 -15 235 -62 19 -22 19 -23
0 -56 -30 -58 -136 -131 -329 -231 -133 -68 -152 -85 -133 -124 13 -25 13 -25
147 -22 359 7 730 -46 730 -103 0 -21 -78 -76 -202 -140 -128 -67 -195 -91
-308 -111 l-85 -14 -25 30 c-30 37 -57 39 -72 5 -16 -36 3 -72 50 -92 67 -28
270 10 430 81 200 89 312 178 312 246 0 40 -67 92 -155 122 -119 40 -249 58
-427 58 -86 0 -159 4 -162 9 -8 12 6 22 112 77 113 59 163 100 191 157 62 128
-33 252 -209 272 -30 3 -64 7 -75 9 -11 1 -38 1 -60 -1z"/>
<path d="M4960 25271 c-171 -20 -267 -150 -320 -433 -24 -124 -8 -575 23 -636
17 -35 43 -50 64 -36 33 21 38 41 20 80 -23 47 -62 310 -51 335 8 18 12 17 59
-17 70 -50 146 -87 245 -119 146 -47 421 -46 517 2 44 22 63 47 46 64 -8 8
-29 7 -81 -5 -98 -22 -257 -21 -357 3 -134 33 -369 153 -396 203 -5 10 -8 26
-5 36 15 45 179 121 349 161 45 11 140 34 211 51 148 35 196 62 196 110 0 36
-31 61 -162 128 -71 37 -120 54 -185 66 -48 9 -95 15 -103 15 -8 -1 -40 -5
-70 -8z m195 -106 c73 -15 179 -57 190 -76 8 -11 -33 -28 -105 -41 -153 -29
-271 -62 -373 -104 -156 -64 -149 -62 -141 -28 13 54 51 130 84 168 76 86 190
113 345 81z"/>
<path d="M7855 25129 c-134 -11 -386 -59 -407 -77 -24 -20 -23 -57 2 -82 25
-25 27 -25 114 0 87 24 287 54 461 70 167 15 241 29 268 51 22 18 22 18 2 33
-16 12 -50 15 -180 14 -88 0 -205 -5 -260 -9z"/>
<path d="M8213 24920 c-66 -27 -558 -50 -643 -30 -49 12 -54 11 -67 -6 -16
-22 -9 -63 12 -80 26 -19 150 -25 323 -14 311 20 437 52 437 110 0 28 -24 36
-62 20z"/>
<path d="M15303 24028 c-239 -235 -366 -402 -578 -763 -65 -110 -136 -226
-158 -258 l-41 -58 22 -21 c49 -50 68 -25 312 402 157 275 297 468 450 619
101 100 200 209 200 221 0 5 -12 10 -26 10 -19 0 -62 -36 -181 -152z"/>
<path d="M13722 24108 c-5 -7 -13 -38 -17 -68 -11 -91 -53 -308 -82 -425 -25
-102 -27 -126 -27 -325 -1 -178 -4 -228 -20 -293 -21 -84 -17 -109 21 -115 27
-4 41 16 58 81 32 121 36 186 24 322 -11 129 -11 131 20 280 45 213 90 455 93
492 3 51 -42 84 -70 51z"/>
<path d="M18493 24108 c-4 -7 -6 -80 -4 -163 3 -147 -7 -270 -34 -431 -20
-115 -38 -370 -30 -431 8 -63 35 -104 57 -85 12 9 16 50 21 174 4 95 17 228
31 318 51 316 57 569 15 611 -22 22 -44 25 -56 7z"/>
<path d="M15992 24039 c-159 -107 -342 -307 -617 -674 -132 -175 -217 -272
-310 -352 -21 -19 -24 -27 -16 -42 15 -27 56 -34 90 -16 53 27 179 184 361
450 140 205 297 398 393 484 29 26 91 78 140 115 48 37 87 74 87 82 0 28 -40
13 -128 -47z"/>
<path d="M12795 24065 c-70 -16 -149 -61 -216 -123 -104 -96 -155 -203 -185
-388 -8 -55 -22 -115 -29 -136 -10 -25 -11 -46 -5 -67 5 -19 5 -82 -2 -159 -5
-70 -8 -187 -6 -261 4 -126 6 -135 28 -153 13 -11 35 -18 49 -16 24 3 26 7 23
43 -11 177 -13 425 -3 425 6 0 42 -22 79 -49 175 -124 376 -199 508 -189 75 5
118 26 122 57 4 24 3 24 -50 16 -88 -14 -159 -10 -233 14 -130 42 -306 141
-382 214 -35 34 -43 48 -43 77 0 77 101 126 445 216 203 53 253 75 279 125 18
34 19 41 6 95 -43 183 -214 299 -385 259z m149 -59 c98 -41 185 -180 161 -256
-9 -30 -86 -63 -215 -94 -154 -37 -281 -83 -422 -154 -25 -12 19 162 63 255
42 89 144 192 230 233 71 33 129 38 183 16z"/>
<path d="M9305 23927 c-154 -52 -250 -160 -325 -365 -61 -168 -89 -373 -72
-529 11 -108 29 -143 72 -143 67 0 112 39 75 66 -10 7 -21 11 -25 9 -16 -10
-31 25 -40 96 -12 96 -13 206 0 214 5 3 29 -10 54 -28 64 -50 269 -151 377
-188 79 -27 112 -33 209 -36 126 -4 212 15 218 49 3 15 -8 16 -120 11 -168 -8
-241 11 -454 117 -178 88 -207 108 -230 151 -35 68 31 101 406 203 192 53 263
107 240 185 -21 75 -85 141 -170 178 -49 21 -166 26 -215 10z m193 -73 c108
-54 144 -144 75 -190 -17 -11 -82 -35 -145 -53 -171 -49 -262 -79 -335 -112
-36 -16 -68 -28 -70 -26 -6 6 47 138 83 208 41 78 126 165 180 184 65 23 152
19 212 -11z"/>
<path d="M10210 23800 c-162 -34 -325 -120 -325 -170 0 -41 33 -35 120 20 117
74 214 103 345 104 130 1 170 -15 170 -68 0 -59 -73 -138 -338 -366 -193 -166
-296 -289 -279 -334 3 -8 18 -23 34 -33 23 -15 47 -18 143 -16 111 1 187 12
485 68 77 14 177 28 223 29 89 4 114 15 96 43 -27 43 -124 40 -393 -13 -173
-34 -372 -64 -421 -64 -23 0 -50 5 -61 10 -19 11 -19 12 5 46 29 42 147 154
339 318 207 178 270 263 248 337 -14 45 -52 71 -137 93 -79 20 -147 19 -254
-4z"/>
<path d="M5245 23711 c-94 -24 -208 -119 -258 -217 -63 -124 -70 -168 -74
-444 -4 -205 -2 -270 11 -329 22 -102 70 -150 107 -105 10 13 10 21 0 47 -39
95 -45 150 -46 387 0 276 7 313 83 412 78 102 178 148 320 148 38 0 53 -4 50
-12 -3 -7 -44 -38 -93 -68 -142 -89 -215 -155 -254 -233 l-35 -68 12 -72 c34
-194 177 -284 487 -307 194 -13 327 9 359 62 21 34 -5 42 -88 29 -94 -15 -256
-6 -386 21 -153 32 -215 70 -259 160 -47 93 -43 120 27 188 31 31 120 97 197
147 186 122 182 119 212 164 23 35 25 42 12 55 -35 34 -291 57 -384 35z"/>
<path d="M7011 23646 c-26 -41 -55 -123 -82 -231 -40 -157 -39 -155 -58 -155
-10 0 -40 -17 -66 -39 -111 -92 -227 -120 -299 -71 -47 33 -60 66 -54 145 8
91 61 199 133 271 58 58 65 86 25 99 -72 23 -225 -187 -252 -345 -30 -176 94
-309 259 -279 78 15 167 64 219 122 26 30 44 43 40 32 -3 -11 -14 -60 -25
-110 -11 -49 -36 -162 -56 -250 -47 -211 -52 -257 -31 -274 26 -22 43 -6 55
50 6 29 27 106 45 173 19 67 55 202 81 301 60 233 109 402 141 493 29 81 24
102 -26 102 -21 0 -34 -8 -49 -34z"/>
<path d="M2271 23650 c-103 -13 -230 -49 -253 -72 -24 -24 -10 -52 34 -67 30
-11 35 -10 53 13 50 61 329 95 542 65 85 -12 113 -23 113 -43 0 -29 -84 -95
-236 -185 -199 -118 -244 -153 -244 -190 0 -16 6 -33 13 -39 28 -24 125 -53
286 -87 184 -38 355 -93 402 -127 16 -12 29 -31 29 -42 0 -37 -89 -105 -225
-171 -71 -35 -210 -101 -307 -148 -291 -140 -415 -221 -393 -257 11 -18 38
-11 115 31 117 63 384 192 505 244 243 104 398 209 398 269 0 100 -188 192
-531 261 -97 20 -183 42 -190 49 -11 11 -7 18 22 44 19 17 57 43 83 58 299
170 363 218 363 271 0 48 -52 87 -142 108 -87 20 -330 28 -437 15z"/>
<path d="M7987 23565 c-158 -27 -511 -144 -528 -177 -12 -22 -4 -54 14 -61 7
-3 44 8 81 24 120 51 302 108 413 129 166 31 175 34 186 51 6 9 7 24 4 33 -8
20 -57 20 -170 1z"/>
<path d="M16362 23548 c-7 -7 -12 -22 -12 -33 0 -38 76 -142 144 -197 35 -29
62 -56 60 -60 -2 -4 -35 -27 -72 -52 -37 -24 -98 -71 -137 -103 -38 -33 -96
-78 -127 -101 -33 -24 -58 -50 -58 -60 0 -45 59 -56 106 -20 16 12 76 65 134
118 58 53 136 117 173 144 61 44 69 47 85 33 36 -32 146 -78 243 -103 104 -26
129 -26 129 0 0 22 -36 42 -110 61 -101 25 -201 68 -198 85 2 8 74 49 161 92
146 73 176 95 148 113 -16 9 -122 -31 -263 -100 -73 -36 -139 -65 -145 -65
-25 0 -123 112 -164 185 -32 58 -46 75 -63 75 -12 0 -27 -5 -34 -12z"/>
<path d="M17805 23443 c-27 -2 -110 -10 -184 -18 -74 -8 -164 -15 -200 -15
-70 0 -91 -10 -91 -43 0 -33 54 -47 150 -36 47 5 92 11 100 14 27 8 182 24
380 40 195 16 230 25 193 53 -16 11 -206 14 -348 5z"/>
<path d="M11256 23375 c-9 -9 -16 -20 -16 -24 0 -26 36 -28 418 -24 411 5 448
9 406 44 -14 11 -88 15 -404 17 -346 3 -389 1 -404 -13z"/>
<path d="M7940 23215 c-104 -27 -379 -67 -432 -63 -43 2 -58 -7 -58 -36 0 -40
23 -50 103 -42 213 19 481 74 519 106 19 15 21 22 12 37 -16 25 -36 25 -144
-2z"/>
<path d="M21565 22719 c-216 -20 -448 -126 -499 -228 -7 -14 -16 -48 -19 -74
-9 -63 11 -109 60 -141 39 -26 205 -103 338 -156 39 -15 96 -40 128 -54 l59
-26 -70 -77 c-85 -95 -115 -143 -142 -224 -31 -90 -21 -147 33 -206 90 -98
237 -136 431 -113 183 22 276 57 330 123 28 35 31 46 31 105 0 55 -6 76 -30
120 -54 99 -180 191 -364 266 -45 18 -85 36 -88 40 -3 3 21 34 54 68 75 79
214 254 248 313 15 25 30 45 34 45 4 0 20 -13 35 -29 20 -21 30 -43 33 -75 4
-34 10 -46 22 -46 41 0 54 60 28 123 -34 80 -215 199 -352 231 -73 17 -206 24
-300 15z m360 -113 c44 -14 89 -32 99 -39 19 -14 18 -17 -29 -83 -27 -38 -96
-127 -154 -198 -58 -70 -114 -139 -124 -152 -24 -30 -30 -30 -113 5 -38 16
-140 59 -227 95 -178 75 -267 126 -267 154 0 62 110 146 259 198 130 45 189
54 346 49 106 -2 145 -8 210 -29z m-73 -661 c72 -36 154 -81 183 -100 80 -54
145 -144 145 -204 0 -82 -184 -138 -423 -128 -140 5 -200 23 -252 72 -44 41
-46 88 -10 161 32 64 192 264 211 264 8 0 73 -29 146 -65z"/>
<path d="M14834 22532 c-6 -4 -17 -18 -23 -31 -12 -21 -9 -27 32 -70 56 -59
156 -200 213 -303 24 -44 44 -82 44 -83 0 -2 15 -36 34 -77 76 -164 100 -264
100 -418 1 -113 -2 -131 -25 -188 -65 -153 -158 -265 -310 -373 -87 -62 -99
-73 -99 -99 0 -26 4 -30 29 -30 29 0 182 93 249 151 119 105 222 265 248 391
50 234 -52 564 -291 938 -113 175 -159 220 -201 192z"/>
<path d="M8285 22340 c-158 -60 -237 -113 -371 -251 -123 -128 -185 -231 -220
-369 -50 -194 44 -604 190 -830 61 -95 184 -222 209 -218 11 2 22 8 24 14 2 6
-28 49 -67 95 -123 147 -196 322 -240 578 -26 156 -26 294 1 391 34 125 127
263 242 358 64 53 216 129 281 141 62 11 128 70 110 99 -17 27 -72 24 -159 -8z"/>
<path d="M10304 22315 c-14 -14 -36 -50 -49 -80 -27 -61 -104 -366 -130 -518
-15 -87 -19 -98 -40 -103 -58 -15 -127 36 -166 121 -35 76 -17 262 35 365 10
19 34 49 55 67 30 26 34 35 25 50 -17 28 -77 29 -104 1 -91 -96 -133 -349 -80
-483 34 -88 108 -159 183 -175 31 -7 57 -18 57 -24 0 -6 -7 -49 -15 -96 -18
-106 -45 -362 -45 -430 0 -37 4 -52 16 -57 32 -12 43 20 59 177 9 85 25 209
36 275 10 66 19 123 19 126 0 3 21 27 46 52 49 50 53 72 11 72 -31 -1 -33 10
-13 81 8 27 28 110 45 184 47 199 78 287 117 330 39 43 41 51 16 73 -26 24
-49 21 -78 -8z"/>
<path d="M18742 22318 c-5 -7 -13 -24 -17 -38 -13 -45 -97 -235 -109 -246 -7
-7 -69 -14 -159 -17 -156 -6 -177 -12 -177 -53 0 -42 30 -48 162 -34 66 7 122
9 126 6 7 -8 -126 -281 -165 -338 -26 -38 -25 -68 1 -68 29 0 89 88 163 240
42 85 81 159 87 163 27 20 576 -41 576 -63 0 -4 -23 -21 -50 -39 -80 -52 -120
-119 -120 -204 0 -33 7 -46 43 -82 47 -48 86 -62 192 -71 86 -8 267 18 346 50
120 48 183 133 183 246 0 40 -6 77 -16 95 -23 42 -76 91 -120 109 -73 31 -189
15 -259 -35 -36 -26 -66 -23 -258 21 -121 28 -223 42 -398 56 -46 3 -83 8 -83
10 0 2 22 47 50 101 60 116 70 156 45 183 -21 23 -29 25 -43 8z m945 -425 c20
-9 44 -30 54 -47 26 -42 25 -130 0 -172 -41 -67 -197 -114 -381 -117 -99 -2
-109 0 -165 28 -56 28 -60 33 -63 67 -3 32 2 42 36 75 49 47 113 80 182 93 30
6 61 17 69 24 9 8 41 26 71 40 65 31 145 34 197 9z"/>
<path d="M9076 22185 c-158 -35 -360 -136 -473 -237 -152 -135 -189 -210 -205
-414 -19 -262 37 -503 111 -479 30 9 31 28 6 91 -59 147 -71 396 -25 536 59
178 298 362 565 434 158 43 373 38 432 -8 15 -12 5 -34 -41 -91 -90 -112 -266
-220 -599 -368 -250 -110 -334 -158 -343 -194 -7 -29 14 -71 58 -112 146 -140
718 -195 957 -92 86 37 93 95 8 71 -177 -52 -344 -70 -512 -54 -187 18 -389
82 -435 137 -13 15 -11 20 11 39 14 12 115 62 225 110 396 176 568 277 686
405 95 102 88 154 -26 210 -64 31 -78 34 -180 37 -90 3 -132 -1 -220 -21z"/>
<path d="M13855 22187 c-203 -60 -363 -154 -487 -286 -123 -131 -179 -260
-158 -368 22 -124 90 -201 245 -278 169 -85 356 -115 592 -97 175 14 239 29
351 84 136 67 241 186 293 334 58 162 -31 353 -223 480 -149 98 -276 142 -433
149 -85 4 -112 1 -180 -18z m374 -96 c312 -115 462 -334 368 -536 -110 -235
-326 -334 -702 -322 -214 7 -363 46 -479 127 -103 70 -141 134 -133 226 16
202 268 423 584 513 136 39 243 37 362 -8z"/>
<path d="M6520 22080 c-124 -16 -249 -77 -337 -165 -73 -73 -133 -187 -159
-300 -26 -114 -21 -109 -119 -130 -99 -22 -123 -42 -106 -89 13 -32 26 -32
112 -1 38 13 71 21 73 16 3 -4 1 -43 -3 -86 -19 -169 14 -400 65 -456 37 -41
81 -11 51 34 -29 44 -39 136 -35 329 2 123 7 191 14 198 12 12 130 24 389 39
83 5 158 12 168 16 26 11 21 34 -10 47 -34 14 -300 17 -430 4 l-93 -9 0 28 c0
42 77 216 113 253 79 83 206 141 308 142 53 0 59 2 93 40 41 45 44 60 18 83
-20 18 -26 18 -112 7z"/>
<path d="M17933 22000 c-41 -9 -61 -26 -65 -53 -3 -19 -11 -23 -59 -28 -120
-13 -210 -93 -250 -222 -45 -144 3 -242 134 -278 56 -15 206 -12 283 6 171 39
254 129 254 274 0 167 -163 332 -297 301z m85 -76 c85 -35 145 -130 146 -230
0 -72 -16 -102 -72 -139 -80 -53 -284 -80 -383 -52 -30 9 -65 28 -78 41 -21
22 -23 32 -18 75 14 120 108 214 226 228 36 4 57 0 89 -16 23 -11 50 -21 61
-21 48 0 20 66 -39 90 -34 14 -39 26 -12 33 31 8 42 7 80 -9z"/>
<path d="M5340 21966 c-52 -19 -72 -58 -67 -129 6 -63 35 -130 60 -135 10 -2
26 13 42 37 26 39 26 41 11 72 -21 43 -20 71 4 102 24 30 26 53 4 61 -9 3 -16
6 -17 5 -1 0 -18 -6 -37 -13z"/>
<path d="M2643 21938 c-19 -24 -22 -63 -24 -308 0 -135 -5 -253 -10 -262 -10
-19 -19 -19 -154 13 -154 36 -310 102 -345 146 -50 63 -11 130 160 278 109 95
120 118 59 123 -32 3 -44 -5 -127 -79 -180 -160 -233 -261 -182 -344 52 -84
260 -168 485 -195 50 -6 94 -15 98 -19 5 -5 -4 -103 -19 -217 -34 -258 -40
-522 -12 -550 36 -36 45 -14 50 133 3 76 17 224 32 328 14 105 29 219 33 254
l8 63 52 20 c80 29 82 69 2 48 -23 -6 -45 -8 -48 -3 -4 4 -3 116 2 248 5 132
10 260 10 285 2 43 1 45 -29 48 -17 2 -35 -3 -41 -10z"/>
<path d="M12449 21900 c-142 -14 -293 -40 -316 -56 -27 -17 -31 -62 -6 -71 9
-4 80 6 157 22 129 26 165 29 424 34 236 5 284 8 292 21 23 37 -42 50 -275 55
-104 2 -229 0 -276 -5z"/>
<path d="M11512 21869 c-145 -10 -342 -41 -427 -66 -56 -17 -60 -21 -63 -51
-3 -27 1 -34 24 -43 24 -8 37 -6 79 15 85 43 325 74 633 81 106 3 198 7 203
10 15 10 10 33 -8 39 -85 26 -217 30 -441 15z"/>
<path d="M16935 21845 c-75 -21 -204 -90 -262 -140 -77 -67 -113 -128 -113
-188 0 -44 4 -54 38 -87 29 -29 50 -40 97 -50 142 -29 359 24 498 122 16 11
31 18 34 14 14 -14 -140 -341 -238 -506 -138 -232 -331 -352 -405 -252 -6 8
-19 12 -30 10 -31 -6 -21 -57 17 -92 30 -26 36 -28 92 -23 87 8 173 55 251
137 110 117 270 407 384 696 33 82 76 181 96 218 37 71 45 113 24 134 -26 26
-47 15 -84 -46 -1 -2 -17 6 -35 17 -82 48 -256 65 -364 36z m289 -74 c37 -10
72 -23 78 -29 18 -18 -2 -66 -46 -108 -60 -57 -135 -97 -262 -141 -92 -31
-126 -37 -215 -41 -101 -4 -107 -3 -135 21 l-29 25 18 36 c42 90 173 191 299
232 92 29 197 31 292 5z"/>
<path d="M12585 21729 c-184 -12 -488 -72 -506 -100 -13 -21 -11 -45 7 -60 17
-14 45 -10 214 36 52 14 163 33 245 41 205 21 215 23 222 40 7 19 -14 40 -47
46 -14 3 -74 1 -135 -3z"/>
<path d="M11660 21700 c-264 -24 -538 -58 -634 -80 -54 -12 -72 -44 -40 -71
13 -10 35 -9 127 9 107 21 321 47 600 73 138 13 173 27 144 57 -19 19 -79 22
-197 12z"/>
<path d="M5493 21598 c-6 -7 -19 -38 -29 -68 -31 -93 -26 -299 15 -550 41
-259 40 -254 74 -258 21 -3 29 2 39 23 9 21 7 58 -15 198 -34 222 -42 358 -27
472 7 50 15 107 17 128 3 22 0 43 -7 52 -15 18 -54 20 -67 3z"/>
<path d="M17530 20423 c-78 -52 -140 -120 -328 -358 -226 -286 -388 -481 -499
-600 -86 -91 -94 -102 -91 -135 2 -27 8 -36 24 -38 17 -2 45 24 124 115 114
132 311 390 476 622 120 170 218 280 318 356 36 28 65 56 66 63 0 22 -34 13
-90 -25z"/>
<path d="M22117 20443 c-2 -5 -7 -26 -11 -48 -4 -22 -28 -101 -53 -175 l-47
-135 -4 -163 c-5 -173 1 -203 34 -170 13 13 18 49 24 175 7 156 7 159 53 281
53 140 64 190 48 221 -12 21 -36 28 -44 14z"/>
<path d="M6057 20416 c-90 -33 -184 -128 -265 -269 -101 -177 -137 -393 -123
-742 l7 -180 52 -122 c72 -168 158 -334 183 -351 11 -7 26 -11 34 -8 26 10 16
60 -26 131 -23 39 -68 129 -100 202 l-59 132 -7 254 c-4 174 -3 256 4 260 14
9 148 -45 175 -70 11 -10 39 -43 61 -73 65 -88 152 -173 307 -303 80 -67 208
-185 285 -263 81 -81 158 -151 184 -163 60 -31 135 -42 161 -24 30 21 13 42
-49 59 -102 28 -115 37 -256 179 -77 77 -194 185 -260 239 -155 128 -244 215
-306 297 -55 75 -101 114 -157 133 -20 7 -37 17 -37 22 0 5 136 12 305 15 506
11 651 35 708 120 69 100 -43 295 -236 408 -170 100 -466 159 -585 117z m368
-91 c175 -51 303 -131 368 -230 76 -117 19 -198 -159 -224 -100 -15 -457 -41
-566 -41 -84 -1 -250 -13 -288 -22 -23 -5 -14 50 26 161 62 175 173 323 279
373 58 27 217 19 340 -17z"/>
<path d="M22634 20401 c-21 -16 -65 -50 -96 -76 l-57 -46 -26 50 c-29 58 -56
78 -75 56 -9 -11 -6 -23 14 -58 28 -47 34 -95 14 -115 -21 -21 -35 -13 -48 31
-20 67 -39 97 -61 97 -32 0 -32 -24 0 -89 17 -33 31 -63 31 -66 0 -3 -40 -5
-90 -5 -79 0 -90 -2 -90 -17 0 -34 19 -47 72 -54 l53 -6 -42 -18 c-46 -19 -60
-40 -42 -61 20 -25 62 -15 117 26 72 55 84 53 66 -7 -18 -60 -18 -97 1 -113
19 -16 45 -6 45 17 0 10 5 25 10 33 7 12 12 12 22 2 32 -32 53 5 23 44 -20 27
-19 50 6 83 17 23 19 33 10 49 -10 18 -6 25 32 55 68 56 187 137 213 147 13 5
24 18 24 28 0 50 -67 57 -126 13z"/>
<path d="M10725 20399 c-209 -35 -374 -203 -447 -455 -19 -67 -23 -102 -22
-234 0 -131 5 -183 32 -330 53 -287 123 -484 196 -547 39 -35 64 -41 84 -21
20 20 14 37 -32 86 -49 53 -74 99 -104 192 -30 91 -82 309 -82 342 l0 27 53
-35 c93 -62 229 -93 635 -149 101 -14 202 -25 223 -25 48 0 95 23 104 50 11
34 -3 42 -58 35 -38 -5 -111 4 -262 30 -381 65 -406 70 -505 100 -152 45 -202
93 -148 140 13 11 122 77 241 145 225 128 360 221 460 319 65 62 81 88 91 143
13 72 -30 113 -164 157 -63 20 -184 42 -225 40 -11 -1 -42 -5 -70 -10z m237
-90 c29 -7 72 -20 95 -30 64 -27 58 -47 -40 -144 -89 -88 -236 -190 -434 -300
-68 -38 -155 -93 -194 -122 l-72 -54 7 75 c24 263 169 491 358 561 72 27 191
33 280 14z"/>
<path d="M17924 20342 c-84 -73 -181 -173 -346 -357 -150 -167 -334 -347 -401
-393 -43 -29 -48 -36 -45 -65 6 -63 71 -41 181 62 61 56 256 281 432 496 72
88 161 190 199 228 46 46 65 72 58 79 -6 6 -32 -10 -78 -50z"/>
<path d="M7341 20339 c-65 -11 -81 -23 -81 -58 0 -27 34 -91 47 -91 18 1 34
19 42 46 10 40 48 46 216 34 213 -16 333 -37 492 -87 132 -41 216 -87 221
-121 9 -59 -144 -148 -458 -267 -251 -95 -287 -118 -276 -180 17 -87 96 -125
440 -210 285 -70 576 -198 576 -253 0 -29 -59 -78 -133 -112 -100 -45 -277
-91 -566 -145 -208 -40 -258 -47 -282 -38 -23 9 -32 8 -44 -4 -20 -19 -19 -36
4 -64 27 -34 70 -30 371 31 533 108 663 156 715 266 16 34 16 39 0 80 -21 54
-59 88 -160 141 -134 70 -278 120 -509 179 -278 71 -345 96 -333 128 9 22 62
47 272 125 359 135 455 199 455 303 0 74 -91 141 -275 203 -185 63 -604 116
-734 94z"/>
<path d="M18745 20329 c-141 -32 -243 -102 -345 -239 l-49 -66 -96 -12 c-53
-7 -105 -17 -116 -22 -26 -15 -36 -58 -16 -77 14 -14 22 -14 87 7 39 12 74 20
77 16 7 -6 -30 -85 -64 -138 -16 -26 -16 -29 -1 -44 28 -29 53 -8 95 79 62
127 50 121 269 114 103 -3 189 -9 192 -12 3 -3 -13 -21 -36 -40 -60 -52 -82
-93 -82 -153 0 -90 60 -132 187 -132 92 0 232 50 303 108 l25 21 32 -32 c30
-28 39 -31 95 -31 70 0 111 17 106 42 -3 16 -23 22 -135 38 -37 5 -40 17 -17
63 19 39 12 81 -15 81 -10 0 -35 -20 -55 -44 -48 -59 -112 -100 -204 -130
-102 -34 -167 -41 -217 -24 -48 16 -54 36 -25 84 43 68 155 115 275 116 54 0
67 4 76 19 13 25 -4 57 -34 63 -12 3 -71 7 -132 10 -60 3 -164 12 -230 20 -66
8 -148 15 -182 16 -36 0 -63 4 -63 10 0 6 29 39 65 74 80 78 182 131 276 145
62 9 195 1 217 -13 6 -3 8 -23 5 -45 -6 -47 16 -62 47 -31 52 52 6 141 -81
159 -59 13 -177 13 -234 0z"/>
<path d="M21286 20298 c-27 -43 -78 -187 -72 -203 3 -10 15 -15 28 -13 17 2
30 22 60 92 41 97 45 115 26 134 -17 17 -26 15 -42 -10z"/>
<path d="M14240 20301 c-112 -36 -232 -137 -278 -232 -50 -105 -68 -464 -37
-734 8 -71 15 -158 15 -191 0 -88 9 -124 31 -124 9 0 25 7 33 16 19 18 16 80
-15 339 -10 88 -19 175 -19 194 l0 34 44 -41 c79 -73 165 -130 294 -195 145
-74 213 -97 288 -97 61 0 100 13 132 42 45 43 19 82 -37 54 -40 -21 -116 -20
-182 3 -139 48 -404 198 -465 263 -37 40 -44 56 -34 84 11 28 47 44 279 124
295 102 370 136 402 181 46 65 -26 172 -164 245 -67 35 -79 38 -167 41 -52 1
-106 -1 -120 -6z m185 -65 c28 -7 68 -22 90 -34 56 -28 125 -90 125 -111 0
-29 -166 -106 -365 -171 -113 -37 -248 -91 -279 -113 l-29 -20 8 59 c4 32 18
94 31 136 20 61 35 88 76 133 57 63 119 103 187 121 60 17 95 17 156 0z"/>
<path d="M11599 20269 l-20 -20 25 -42 c21 -36 29 -41 53 -38 53 6 398 6 456
0 62 -7 117 -26 117 -40 0 -21 -88 -70 -207 -114 -200 -75 -309 -124 -334
-151 -21 -23 -22 -27 -10 -62 34 -94 64 -110 339 -182 250 -65 332 -96 332
-126 0 -32 -75 -96 -164 -139 -97 -47 -283 -101 -381 -110 -93 -10 -105 -13
-105 -35 0 -33 36 -43 134 -37 108 7 294 53 389 96 119 54 229 181 213 245
-18 73 -176 149 -436 210 -144 34 -210 55 -210 67 0 15 57 45 118 64 97 29
280 98 319 119 53 31 76 67 80 128 3 45 0 57 -20 80 -14 14 -42 35 -63 46 -70
35 -275 62 -476 62 -116 0 -130 -2 -149 -21z"/>
<path d="M22728 20253 c-30 -5 -58 -36 -58 -65 0 -28 31 -38 81 -27 24 6 64 7
89 4 51 -7 245 -56 336 -84 66 -20 94 -14 94 19 0 29 -36 48 -162 86 -167 50
-318 77 -380 67z"/>
<path d="M2130 20233 c-54 -20 -75 -68 -116 -263 -32 -156 -37 -294 -11 -333
35 -53 65 -61 282 -68 233 -7 292 -20 467 -100 243 -111 448 -258 448 -321 0
-34 -86 -109 -185 -160 -195 -99 -371 -143 -559 -136 -78 3 -129 9 -142 18
-49 31 -75 -22 -29 -59 37 -28 110 -41 235 -41 128 0 222 16 364 64 178 59
338 154 379 224 37 65 14 154 -60 223 -94 88 -320 222 -493 294 -123 50 -212
66 -400 71 -186 6 -227 14 -240 49 -15 39 42 357 77 430 15 31 21 35 54 35 36
0 217 -33 349 -64 75 -17 264 -42 395 -51 50 -3 132 -12 183 -21 52 -8 98 -12
103 -9 16 10 10 54 -9 64 -21 11 -197 35 -377 51 -153 14 -259 32 -358 60
-128 35 -315 58 -357 43z"/>
<path d="M23960 20210 c0 -27 41 -116 84 -184 20 -31 36 -63 36 -70 0 -19
-207 -165 -323 -228 -50 -27 -107 -61 -124 -74 -34 -26 -43 -61 -19 -70 25
-10 238 106 372 202 72 52 138 94 146 94 8 0 23 -10 34 -22 30 -34 106 -78
134 -78 63 0 76 53 17 66 -43 9 -98 37 -120 61 -17 19 -14 21 90 85 60 36 127
75 151 87 40 20 42 24 42 66 0 25 -4 45 -8 45 -15 0 -187 -102 -254 -151 -37
-27 -74 -49 -82 -49 -12 0 -82 130 -115 213 -13 34 -61 40 -61 7z"/>
<path d="M20430 20153 c-17 -14 -56 -57 -86 -95 -30 -37 -63 -68 -72 -68 -25
0 -134 -54 -154 -76 -9 -10 -26 -40 -37 -66 -24 -57 -53 -68 -187 -68 -146 0
-224 33 -224 94 1 86 130 138 199 80 52 -43 92 -13 56 42 -42 65 -147 84 -232
43 -57 -28 -83 -77 -83 -158 0 -54 4 -64 33 -97 46 -53 104 -76 208 -82 78 -4
139 3 192 24 13 4 16 -3 19 -38 3 -38 6 -43 27 -43 19 0 46 29 130 140 59 77
118 145 131 152 14 7 50 13 80 13 l55 0 -47 -41 c-84 -72 -82 -150 5 -190 91
-41 182 -14 221 65 27 54 10 103 -56 166 -50 48 -53 49 -130 56 -43 4 -78 10
-78 15 0 5 25 24 55 44 59 37 71 68 39 99 -21 21 -27 20 -64 -11z m151 -265
c33 -28 41 -46 30 -67 -12 -21 -78 -45 -102 -37 -8 2 -26 7 -41 10 -41 9 -34
29 24 70 57 39 67 42 89 24z m-371 -18 c-13 -24 -45 -42 -68 -38 -13 3 -7 11
23 31 47 32 60 34 45 7z m-91 -122 c-13 -18 -25 -26 -27 -19 -4 13 25 51 40
51 5 0 -1 -14 -13 -32z"/>
<path d="M15175 20155 c-89 -17 -121 -34 -135 -71 -13 -34 -13 -47 4 -69 13
-19 15 -18 52 7 53 36 101 47 229 54 160 9 395 -37 403 -79 4 -22 -202 -228
-358 -357 -149 -124 -244 -219 -271 -271 -27 -53 -25 -110 4 -137 46 -44 99
-53 347 -64 248 -11 372 -3 429 26 37 19 49 52 27 74 -14 14 -20 14 -68 0 -84
-26 -148 -29 -388 -19 -248 10 -300 21 -300 64 0 28 135 162 305 304 235 196
355 329 355 394 0 18 -11 37 -34 57 -86 75 -412 122 -601 87z"/>
<path d="M13147 20143 c-4 -3 -7 -16 -7 -29 0 -17 9 -25 34 -34 62 -20 69 -85
29 -265 -20 -91 -36 -117 -71 -113 -29 3 -26 -6 -67 171 -31 136 -67 215 -102
223 -16 4 -30 1 -41 -9 -14 -15 -13 -19 11 -54 32 -47 41 -70 72 -193 32 -126
32 -130 -4 -130 -28 0 -61 -22 -61 -40 0 -23 49 -41 92 -35 42 6 43 5 65 -36
l22 -41 -194 -233 c-107 -128 -199 -236 -205 -240 -5 -3 -10 -17 -10 -31 0
-19 5 -24 26 -24 42 0 95 51 219 212 111 145 148 185 131 142 -18 -46 -45
-186 -51 -259 -8 -102 3 -159 32 -163 27 -4 30 5 43 143 11 109 44 273 62 308
7 15 29 -12 124 -155 129 -193 151 -219 211 -255 49 -28 87 -28 91 2 2 15 -8
27 -36 43 -52 29 -90 73 -185 212 -43 63 -101 147 -128 185 -27 39 -49 80 -49
91 0 12 21 45 46 73 l46 51 111 0 c123 0 160 11 165 49 l4 23 -106 -4 c-58 -2
-106 0 -106 4 0 12 94 96 146 130 71 48 134 111 134 136 0 34 -34 46 -74 27
-30 -15 -156 -137 -265 -258 -23 -27 -44 -47 -46 -45 -2 2 7 46 20 98 41 155
28 265 -35 310 -27 19 -80 27 -93 13z"/>
<path d="M21574 20099 c-16 -17 -69 -51 -119 -75 -99 -48 -113 -58 -138 -94
-21 -31 -22 -54 -1 -74 34 -35 105 -7 201 79 33 30 64 55 67 55 3 0 8 -17 12
-37 11 -58 38 -114 72 -151 26 -28 37 -33 69 -30 30 2 39 8 41 24 2 16 -8 29
-40 51 -68 46 -88 83 -88 167 0 49 -5 79 -16 94 -20 29 -25 28 -60 -9z"/>
<path d="M21055 20046 c-22 -7 -63 -25 -92 -39 -29 -15 -64 -27 -78 -27 -15 0
-28 -7 -32 -17 -3 -10 -30 -43 -59 -74 -52 -56 -72 -95 -60 -124 3 -8 13 -15
23 -15 26 0 88 47 117 89 30 42 113 96 182 117 26 8 51 14 56 14 4 0 7 -21 5
-47 -2 -42 0 -48 18 -48 23 0 44 49 44 107 1 28 -5 41 -25 57 -30 24 -43 25
-99 7z"/>
<path d="M22632 19999 c-30 -11 -49 -53 -33 -72 15 -18 353 -33 394 -18 69 26
36 71 -52 71 -31 0 -83 4 -116 9 -101 16 -169 20 -193 10z"/>
<path d="M8871 19826 c-7 -8 -11 -27 -9 -43 3 -31 -4 -29 198 -52 127 -15 498
-68 533 -77 16 -4 33 -1 42 6 19 15 20 54 2 69 -8 6 -121 24 -253 41 -131 16
-293 39 -359 50 -145 24 -140 23 -154 6z"/>
<path d="M8936 19644 c-19 -19 -21 -48 -3 -62 6 -5 98 -12 202 -15 149 -4 217
-11 315 -31 146 -30 163 -31 184 -10 34 34 11 55 -76 69 -40 7 -113 20 -163
29 -87 15 -316 36 -402 36 -24 0 -48 -6 -57 -16z"/>
<path d="M11737 18658 c-14 -18 -29 -42 -35 -53 -24 -48 -64 -181 -85 -286
l-23 -114 -45 1 c-55 2 -139 37 -171 71 -19 21 -23 35 -23 91 1 74 21 125 75
186 38 42 39 73 4 87 -38 14 -60 3 -94 -46 -44 -64 -70 -138 -70 -200 0 -70
10 -95 62 -151 52 -56 97 -80 182 -96 47 -9 66 -17 66 -28 0 -38 -31 -387 -45
-500 -23 -195 -20 -229 19 -214 33 13 60 161 95 529 16 156 22 191 36 200 50
29 60 42 46 59 -7 9 -22 16 -32 16 -22 0 -22 -4 16 145 37 145 64 206 106 247
57 54 48 88 -22 88 -31 0 -42 -6 -62 -32z"/>
<path d="M10431 18545 c-99 -22 -168 -62 -252 -145 -60 -59 -85 -93 -117 -160
-63 -129 -72 -176 -82 -436 -5 -127 -14 -288 -21 -358 -12 -118 -11 -127 6
-146 12 -13 29 -20 44 -18 25 3 26 7 33 88 4 47 12 213 17 370 11 312 15 337
79 470 115 241 397 352 620 244 137 -66 95 -173 -101 -255 -317 -131 -391
-165 -447 -201 -78 -51 -90 -75 -61 -117 48 -67 123 -97 451 -180 129 -33 271
-70 315 -82 94 -26 213 -31 239 -10 9 8 16 24 14 35 -3 20 -10 21 -103 22 -88
1 -123 7 -285 52 -102 27 -248 67 -324 87 -169 44 -238 72 -234 94 7 36 161
111 463 227 151 59 235 126 235 189 0 40 -53 129 -98 162 -86 65 -266 96 -391
68z"/>
<path d="M6332 18499 c-133 -22 -243 -81 -337 -181 -124 -131 -174 -287 -176
-548 -1 -208 30 -371 103 -530 32 -71 72 -120 98 -120 23 0 50 32 50 59 0 12
7 36 16 52 12 24 13 34 3 45 -13 16 -42 18 -69 4 -17 -9 -22 -1 -50 72 -26 68
-51 154 -75 265 -9 38 12 35 79 -12 109 -76 262 -128 480 -161 215 -33 393
-20 412 31 12 31 -10 37 -89 25 -62 -10 -95 -10 -203 4 -378 49 -632 166 -660
302 -5 25 0 36 25 61 38 38 178 110 383 197 263 112 370 183 403 270 15 40 16
46 1 75 -20 38 -55 56 -153 82 -80 20 -153 23 -241 8z m266 -110 c23 -10 42
-25 42 -33 0 -20 -89 -90 -160 -126 -31 -16 -137 -63 -236 -105 -98 -42 -212
-96 -253 -121 -41 -24 -76 -42 -79 -39 -10 10 29 130 60 185 44 78 82 124 137
164 127 93 363 130 489 75z"/>
<path d="M14139 18466 c-84 -29 -141 -68 -212 -146 -134 -145 -242 -398 -282
-660 -21 -144 -30 -342 -16 -368 14 -27 33 -28 56 -3 15 17 16 31 10 98 -14
165 25 409 94 585 109 276 257 428 434 445 78 7 137 -9 182 -48 80 -70 35
-132 -190 -264 -351 -206 -425 -268 -425 -358 0 -91 160 -241 358 -335 84 -39
105 -45 181 -50 100 -5 174 8 249 44 36 18 52 31 52 45 0 23 6 23 -99 -2 -205
-50 -329 -14 -538 155 -87 70 -133 129 -133 169 0 34 68 86 270 204 283 166
339 211 376 300 22 50 6 100 -45 146 -75 68 -204 85 -322 43z"/>
<path d="M7215 18394 c-242 -33 -335 -86 -281 -159 13 -18 16 -18 82 12 108
48 169 58 374 58 216 0 299 -16 350 -67 45 -44 40 -80 -19 -164 -62 -89 -180
-200 -367 -345 -232 -181 -263 -220 -211 -266 33 -30 81 -43 161 -43 78 0 585
54 679 72 65 12 105 37 92 58 -11 18 -205 6 -671 -41 -61 -7 -129 -8 -150 -4
l-39 7 46 41 c25 23 83 70 130 103 219 160 382 323 441 441 26 53 30 70 24
108 -8 61 -19 80 -68 115 -79 58 -151 73 -358 76 -102 1 -198 0 -215 -2z"/>
<path d="M12927 18372 c-57 -62 -78 -194 -70 -429 l5 -132 -114 1 c-89 2 -124
-2 -168 -18 -50 -17 -55 -22 -58 -51 -4 -40 20 -49 74 -27 25 11 80 18 157 22
l117 5 0 -41 c0 -23 -7 -78 -16 -122 -17 -84 -16 -97 11 -86 25 9 47 74 53
159 2 43 8 80 12 82 3 2 49 6 101 9 240 14 429 51 429 85 0 19 -18 21 -96 11
-114 -14 -363 -28 -406 -22 l-38 4 0 167 c0 217 10 278 50 311 31 26 39 57 18
78 -17 17 -42 15 -61 -6z"/>
<path d="M2908 18345 c-216 -54 -419 -284 -494 -560 -38 -139 -1 -319 88 -431
127 -158 314 -243 607 -276 254 -28 519 41 599 156 24 34 27 49 27 115 0 65
-4 83 -28 124 -39 67 -114 122 -200 149 -65 21 -92 23 -277 23 -171 0 -225 -4
-325 -23 -130 -25 -309 -81 -361 -112 -38 -24 -46 -17 -64 50 -24 89 13 256
86 389 124 227 317 363 466 329 41 -10 51 -9 64 4 18 18 11 53 -12 62 -36 14
-123 14 -176 1z m500 -780 c104 -17 141 -32 190 -79 111 -104 70 -229 -98
-294 -83 -33 -149 -42 -299 -42 -240 0 -454 68 -589 186 -64 56 -79 81 -60 99
36 35 301 105 483 129 148 19 261 19 373 1z"/>
<path d="M15323 18350 c-87 -13 -185 -47 -254 -89 -62 -37 -67 -39 -106 -28
-119 31 -265 -116 -318 -323 -25 -97 -18 -228 17 -302 35 -76 107 -151 177
-185 52 -26 65 -28 181 -28 123 0 126 1 203 37 280 133 472 404 469 661 -1 92
-25 151 -78 195 -63 52 -184 78 -291 62z m148 -81 c37 -8 64 -22 95 -51 56
-52 69 -96 55 -187 -14 -91 -32 -139 -88 -233 -78 -131 -211 -243 -365 -306
-84 -34 -219 -37 -289 -5 -63 28 -123 84 -149 140 -74 157 0 447 130 513 54
28 80 26 80 -4 0 -40 16 -39 59 4 99 100 322 161 472 129z"/>
<path d="M8597 18072 c-20 -22 -22 -53 -5 -70 8 -8 45 -12 101 -12 83 0 268
-17 588 -55 149 -18 194 -19 220 -5 24 13 25 36 2 49 -48 25 -685 111 -824
111 -51 0 -70 -4 -82 -18z"/>
<path d="M8444 17835 c-21 -32 -5 -60 37 -69 17 -3 217 -6 443 -6 351 0 415 2
432 15 18 14 18 16 2 29 -27 20 -224 37 -503 42 -137 2 -283 6 -323 8 -67 4
-74 3 -88 -19z"/>
<path d="M10705 16854 c-11 -1 -81 -8 -155 -14 -74 -7 -141 -17 -147 -22 -18
-15 -16 -42 6 -69 l18 -23 129 18 c179 25 403 32 487 16 37 -7 69 -16 72 -20
9 -15 -85 -88 -220 -169 -138 -84 -195 -135 -195 -174 0 -12 9 -41 19 -64 25
-53 68 -78 237 -136 282 -97 461 -219 440 -301 -14 -58 -211 -180 -386 -239
-113 -38 -304 -84 -399 -95 -82 -10 -104 -22 -94 -48 13 -34 123 -30 313 12
213 47 331 90 471 170 174 100 215 189 145 309 -50 84 -213 190 -394 256 -194
70 -222 81 -247 101 -20 15 -23 23 -15 34 7 7 69 45 140 85 156 87 230 144
265 204 49 82 14 123 -132 155 -80 18 -280 26 -358 14z"/>
<path d="M8367 16496 c-11 -13 -37 -73 -57 -132 l-35 -109 -44 -10 c-51 -12
-72 -35 -52 -59 8 -9 24 -16 37 -16 13 0 24 -5 24 -10 0 -22 -84 -206 -103
-228 -17 -18 -19 -27 -11 -40 34 -53 86 -1 155 153 27 61 53 117 58 125 6 11
30 16 87 18 91 4 374 -14 383 -24 3 -3 -7 -16 -24 -28 -16 -11 -51 -42 -77
-68 -64 -63 -66 -100 -9 -151 68 -61 174 -73 315 -37 208 53 281 225 153 358
-47 50 -103 74 -178 80 -78 5 -129 -9 -182 -50 l-39 -30 -87 11 c-48 6 -135
11 -194 11 -70 0 -107 4 -107 11 0 6 14 43 31 82 42 94 48 118 38 145 -11 30
-54 29 -82 -2z m703 -265 c94 -67 92 -209 -3 -254 -51 -24 -150 -40 -226 -35
-130 7 -132 53 -4 139 39 27 74 57 77 67 9 28 -2 49 -30 56 -40 10 -23 30 37
43 64 14 115 9 149 -16z"/>
<path d="M2700 16451 c-15 -29 -2 -49 38 -61 60 -17 247 -38 397 -45 246 -10
348 -15 430 -21 187 -12 395 -60 395 -90 0 -9 -105 -120 -233 -248 -349 -345
-532 -543 -532 -575 0 -19 6 -27 22 -29 28 -4 74 38 277 253 83 88 227 231
320 318 186 175 210 201 226 242 26 68 -10 106 -135 144 -123 38 -234 52 -535
66 -354 17 -496 30 -573 50 -75 19 -84 19 -97 -4z"/>
<path d="M6580 16269 c-68 -11 -197 -74 -271 -132 -90 -72 -149 -182 -122
-226 17 -28 76 -51 130 -51 101 0 162 31 457 234 93 64 99 66 117 50 26 -23
37 -64 49 -176 24 -237 -67 -504 -235 -687 -116 -128 -192 -133 -214 -17 -17
91 -57 86 -55 -7 1 -100 51 -157 136 -157 200 0 478 501 467 843 -3 85 -2 90
19 98 35 13 26 44 -26 93 -83 77 -102 89 -194 113 -105 27 -182 34 -258 22z
m163 -65 c26 -4 44 -11 41 -16 -12 -19 -279 -191 -343 -221 -78 -37 -167 -48
-177 -23 -17 44 100 155 224 213 102 48 165 59 255 47z"/>
<path d="M7643 16226 c-72 -33 -21 -82 57 -56 50 16 91 8 153 -32 92 -59 138
-177 88 -227 -51 -51 -263 -90 -321 -59 -52 28 -40 72 45 166 36 40 65 77 65
82 0 26 -15 40 -43 40 -23 0 -40 -10 -70 -42 -99 -106 -137 -201 -103 -252 9
-14 37 -38 63 -53 43 -25 57 -28 138 -27 73 0 103 5 160 28 93 36 132 63 156
108 25 49 24 92 -5 153 -46 99 -164 175 -285 182 -44 2 -77 -1 -98 -11z"/>
</g>
</svg>
