<?xml version="1.0" standalone="no"?>
<!DOCTYPE svg PUBLIC "-//W3C//DTD SVG 20010904//EN"
 "http://www.w3.org/TR/2001/REC-SVG-20010904/DTD/svg10.dtd">
<svg version="1.0" xmlns="http://www.w3.org/2000/svg"
 width="2448.000000pt" height="3264.000000pt" viewBox="0 0 2448.000000 3264.000000"
 preserveAspectRatio="xMidYMid meet">
<metadata>
Created by potrace 1.12, written by Peter Selinger 2001-2015
</metadata>
<g transform="translate(0.000000,3264.000000) scale(0.100000,-0.100000)"
fill="#000000" stroke="none">
<path d="M17632 30184 c-45 -31 -82 -135 -101 -282 -16 -121 -32 -467 -32
-695 0 -276 16 -356 83 -397 38 -23 60 -14 78 29 19 46 8 63 -35 55 -31 -5
-36 -3 -44 19 -11 29 -6 256 8 367 6 41 15 138 21 215 27 335 52 483 98 568
31 57 24 91 -24 119 -27 16 -32 16 -52 2z"/>
<path d="M15374 29949 c-23 -26 -25 -106 -7 -384 7 -104 13 -264 13 -355 0
-111 5 -183 14 -219 17 -63 22 -69 44 -55 36 23 42 111 45 652 l2 334 -30 24
c-37 29 -56 30 -81 3z"/>
<path d="M20066 29899 c-32 -26 -34 -63 -3 -83 12 -8 63 -17 112 -21 50 -3
131 -17 180 -30 117 -31 160 -35 160 -15 0 23 -208 122 -312 148 -109 27 -104
27 -137 1z"/>
<path d="M13002 29620 c-10 -17 -9 -53 8 -198 11 -97 20 -182 20 -187 0 -6
-25 -40 -55 -75 -30 -36 -67 -88 -82 -116 -26 -50 -26 -53 -10 -78 10 -14 29
-29 44 -32 21 -6 32 -1 54 24 26 29 42 33 34 9 -3 -7 -9 -56 -14 -110 -7 -72
-7 -108 3 -139 12 -42 42 -64 50 -36 27 86 38 141 45 238 10 126 24 208 40
237 23 44 196 113 281 113 65 0 116 -26 169 -86 106 -121 162 -342 139 -549
-17 -150 -16 -155 15 -179 52 -39 80 2 97 141 8 67 8 118 0 189 -23 211 -78
341 -204 480 -108 121 -276 145 -439 62 -32 -16 -62 -26 -66 -23 -5 3 -10 59
-10 125 -2 129 -9 162 -44 191 -29 24 -59 24 -75 -1z"/>
<path d="M13695 29611 c-43 -19 -95 -73 -95 -97 0 -21 46 -64 68 -64 10 0 38
14 63 32 123 88 129 117 29 141 -15 4 -42 -1 -65 -12z"/>
<path d="M18447 29606 c-114 -26 -187 -69 -238 -139 -42 -58 -40 -108 5 -153
61 -61 118 -37 81 33 -18 33 -18 34 1 59 45 61 216 121 307 109 94 -13 133
-51 162 -161 20 -78 19 -150 -5 -201 -50 -112 -246 -146 -225 -39 3 17 35 88
71 159 35 70 64 136 64 146 0 29 -39 71 -66 71 -17 0 -31 -12 -50 -42 -52 -81
-104 -204 -121 -280 -16 -74 -16 -79 2 -119 21 -46 67 -81 133 -100 91 -26
227 39 282 135 37 64 45 118 31 201 -45 256 -204 373 -434 321z"/>
<path d="M20975 29603 c-72 -10 -194 -55 -245 -90 -64 -45 -116 -123 -126
-191 -19 -126 64 -253 195 -298 149 -51 441 -81 500 -51 29 14 45 61 26 77 -7
6 -56 10 -116 9 -142 -2 -327 34 -422 83 -70 35 -84 124 -34 213 43 76 153
125 280 125 54 0 71 4 87 20 26 26 25 42 -6 79 -27 32 -50 36 -139 24z"/>
<path d="M6650 29492 c-198 -55 -373 -189 -479 -367 -70 -116 -86 -165 -86
-260 0 -98 19 -137 99 -213 63 -60 158 -108 277 -141 102 -28 188 -39 411 -51
335 -17 428 -29 428 -54 0 -40 -361 -315 -519 -395 -68 -35 -126 -45 -176 -31
-36 10 -48 10 -60 0 -23 -19 -18 -36 16 -61 47 -33 163 -38 243 -10 175 62
587 383 627 489 33 87 -142 128 -671 157 -187 11 -307 39 -433 102 -110 55
-159 148 -137 261 30 158 196 359 364 443 89 44 90 44 210 47 67 2 127 8 134
14 17 15 15 53 -4 69 -26 21 -169 22 -244 1z"/>
<path d="M19160 29501 c-89 -27 -164 -94 -204 -181 -34 -72 -34 -123 1 -173
33 -48 69 -67 127 -67 82 0 143 20 218 71 l73 49 8 -27 c11 -37 0 -220 -19
-313 -8 -41 -29 -115 -46 -165 -30 -90 -104 -235 -120 -235 -5 0 -13 11 -18
25 -23 60 -70 -1 -70 -90 0 -40 4 -47 33 -65 42 -26 59 -25 97 6 64 54 149
208 195 354 38 123 70 311 69 410 -1 101 -17 138 -73 175 -34 23 -43 25 -80
16 -24 -5 -79 -31 -124 -57 -67 -39 -91 -48 -132 -48 -47 -1 -50 1 -53 26 -4
35 29 99 68 131 91 77 273 72 334 -8 47 -61 106 -56 106 10 0 50 -77 117 -165
144 -68 21 -175 27 -225 12z"/>
<path d="M19898 29493 c-12 -14 -17 -53 -21 -178 -7 -180 -23 -260 -67 -338
-35 -63 -37 -78 -11 -101 32 -29 62 -16 103 43 67 95 108 266 108 447 0 57 -4
78 -23 105 -26 40 -65 49 -89 22z"/>
<path d="M14344 29328 c-9 -18 -22 -40 -29 -48 -7 -8 -31 -60 -54 -114 -24
-55 -63 -135 -88 -179 -110 -195 -110 -312 0 -332 67 -13 124 41 167 157 24
66 18 96 -11 49 -16 -26 -25 -31 -58 -31 -49 0 -57 18 -26 62 32 44 65 112 65
135 0 10 5 25 10 33 17 28 43 -13 48 -77 2 -32 10 -64 16 -72 6 -8 14 -62 17
-120 7 -125 28 -177 88 -216 77 -51 136 -41 129 22 -2 24 -8 29 -36 31 -48 5
-61 34 -72 153 -5 57 -16 165 -25 239 -8 74 -15 161 -15 192 0 67 -12 103 -43
129 -34 29 -64 24 -83 -13z"/>
<path d="M11024 29160 c-111 -56 -173 -150 -196 -295 -21 -137 18 -316 84
-387 51 -53 105 -73 198 -73 91 1 130 14 130 45 0 46 -6 48 -109 43 l-97 -6
-28 34 c-16 19 -35 48 -42 66 -19 45 -29 139 -16 147 6 4 37 -1 68 -10 33 -9
76 -14 104 -12 95 9 194 80 233 167 40 90 -3 207 -97 266 -66 40 -169 47 -232
15z m194 -103 c94 -100 -2 -237 -165 -237 -54 0 -113 23 -113 45 0 24 28 85
58 129 51 75 176 110 220 63z"/>
<path d="M12125 29051 c-56 -26 -110 -86 -210 -236 -131 -195 -141 -200 -101
-50 32 119 32 136 2 164 -53 50 -89 6 -116 -144 -54 -293 -55 -302 -42 -329
25 -56 102 -42 148 27 16 23 58 80 95 127 36 47 92 129 124 182 55 94 122 173
147 173 21 0 28 -59 25 -230 -2 -188 4 -214 61 -236 79 -31 136 -1 123 63 -7
30 -10 33 -39 30 l-32 -2 1 153 c2 184 -13 252 -64 291 -46 35 -75 39 -122 17z"/>
<path d="M9422 29034 c-119 -31 -273 -139 -356 -247 -65 -86 -83 -124 -90
-198 -6 -68 8 -98 54 -121 112 -57 241 13 415 226 39 47 76 85 83 86 9 0 12
-29 12 -112 0 -142 56 -668 77 -726 12 -32 26 -48 50 -60 31 -15 35 -15 51 1
14 14 14 21 4 37 -6 11 -19 100 -27 197 -9 98 -22 253 -30 344 -8 91 -15 209
-15 261 0 52 -3 117 -7 143 -5 40 -10 49 -36 60 l-30 12 29 14 c38 19 44 61
12 83 -28 20 -122 20 -196 0z m112 -90 c9 -3 16 -9 16 -13 0 -4 -30 -32 -67
-61 -38 -30 -115 -102 -173 -161 -103 -103 -167 -149 -211 -149 -19 0 -21 4
-15 32 20 98 154 240 289 306 45 23 93 43 107 45 14 2 28 5 32 6 3 0 13 -2 22
-5z"/>
<path d="M10590 28968 c-89 -219 -105 -249 -165 -330 -90 -120 -145 -162 -189
-145 -25 10 -38 77 -42 215 -2 73 -6 137 -9 143 -4 5 -20 16 -36 24 -61 32
-85 -9 -82 -138 2 -125 42 -263 86 -305 29 -27 89 -52 124 -52 43 0 124 43
163 86 91 101 173 240 204 346 19 66 21 149 4 166 -19 19 -48 14 -58 -10z"/>
<path d="M8345 28932 c-73 -22 -106 -39 -210 -108 -145 -95 -228 -197 -241
-298 -8 -56 8 -85 68 -120 92 -54 259 -63 508 -30 157 22 312 76 287 100 -13
13 -118 22 -150 13 -45 -13 -244 -37 -359 -45 -83 -5 -98 -3 -98 10 0 8 8 17
18 20 36 12 203 115 252 157 90 76 163 188 158 241 -7 69 -113 96 -233 60z
m122 -89 c7 -19 -100 -117 -197 -182 -112 -75 -174 -107 -223 -116 -47 -9 -49
6 -8 61 39 53 62 73 163 138 144 93 254 134 265 99z"/>
<path d="M17337 28190 c-9 -13 -12 -36 -9 -68 3 -35 -8 -98 -41 -232 -85 -346
-124 -635 -119 -868 2 -63 5 -76 27 -97 17 -17 35 -25 60 -25 49 0 77 31 232
262 69 103 133 194 143 203 16 14 17 8 23 -102 7 -150 28 -213 95 -275 89 -83
178 -87 303 -14 l74 44 29 -25 c76 -64 210 -101 296 -82 84 19 180 83 180 120
0 10 5 21 10 24 15 9 12 55 -3 55 -7 0 -44 -18 -82 -41 -85 -50 -136 -69 -184
-69 -50 0 -125 26 -147 52 -19 20 -18 21 16 46 117 86 218 240 242 368 10 54
9 66 -8 100 -22 45 -99 106 -154 123 -49 14 -152 14 -202 -1 -45 -13 -82 -47
-111 -103 -19 -35 -22 -56 -22 -160 0 -116 2 -123 38 -211 20 -50 37 -96 37
-103 0 -6 -31 -27 -70 -46 -92 -46 -149 -48 -179 -6 -35 48 -44 122 -38 287
l7 151 -28 26 c-16 15 -37 27 -49 27 -55 0 -183 -132 -305 -314 -85 -127 -120
-168 -131 -156 -5 5 42 332 67 470 18 99 31 159 80 372 50 217 48 244 -21 273
-44 18 -39 19 -56 -5z m953 -601 c58 -13 80 -34 80 -76 0 -40 -41 -141 -81
-200 -50 -72 -126 -149 -137 -138 -16 15 -43 130 -49 205 -7 81 10 160 40 188
19 18 36 23 92 30 6 1 30 -3 55 -9z"/>
<path d="M19296 28118 c-8 -13 -20 -54 -25 -93 -26 -172 -74 -414 -137 -685
-47 -207 -33 -344 38 -369 38 -13 61 -2 78 40 17 40 3 65 -33 61 -21 -2 -26 3
-32 27 -4 18 0 44 10 67 9 22 23 68 30 104 8 36 33 133 55 215 73 273 120 494
120 563 0 42 -36 92 -67 92 -12 0 -29 -10 -37 -22z"/>
<path d="M20003 28055 c-44 -31 -58 -91 -103 -447 -34 -273 -44 -321 -107
-515 -39 -121 -45 -147 -35 -168 16 -34 39 -31 60 6 9 17 26 43 38 58 51 64
101 246 144 520 36 231 63 366 84 416 22 53 20 79 -10 114 -29 35 -40 37 -71
16z"/>
<path d="M15656 27938 c-21 -35 -27 -123 -16 -243 6 -59 9 -109 7 -112 -2 -2
-32 -8 -66 -14 -77 -14 -111 -39 -111 -84 0 -57 58 -79 134 -50 24 9 49 15 54
11 5 -3 11 -106 14 -228 6 -240 18 -303 55 -296 44 8 63 184 44 413 l-11 130
26 23 c14 12 35 22 47 22 12 0 69 15 127 33 115 36 130 52 90 94 -23 25 -28
25 -167 -8 -45 -10 -94 -19 -109 -19 l-27 0 7 140 6 139 -31 36 c-36 41 -53
44 -73 13z"/>
<path d="M16810 27815 c-19 -7 -44 -14 -56 -14 -21 -1 -146 -83 -198 -130 -34
-31 -76 -115 -76 -152 0 -44 54 -76 190 -113 133 -37 270 -124 270 -171 0 -68
-267 -215 -389 -215 -61 0 -87 20 -96 70 -15 91 -125 112 -125 24 0 -113 89
-193 216 -194 98 0 162 16 270 70 104 51 194 121 219 171 19 36 19 82 0 118
-40 77 -209 184 -348 219 -43 11 -81 23 -85 26 -8 8 35 65 72 96 96 80 206
185 206 196 0 17 -24 17 -70 -1z"/>
<path d="M13935 27584 c-69 -36 -115 -111 -184 -304 -112 -310 -134 -338 -129
-159 3 111 3 111 -25 135 -38 32 -72 31 -94 -3 -35 -54 -10 -276 43 -387 13
-26 30 -44 51 -53 31 -12 35 -11 63 15 36 32 100 176 175 387 29 83 59 164 68
180 20 40 63 79 71 66 4 -5 13 -106 21 -223 8 -117 17 -229 20 -248 13 -76 71
-180 101 -180 6 0 17 7 24 15 11 13 10 33 -3 108 -9 51 -19 160 -22 242 -6
176 -22 320 -38 354 -26 53 -95 79 -142 55z"/>
<path d="M8698 27554 c-52 -28 -44 -89 18 -130 17 -12 24 -11 52 6 27 17 32
26 32 58 0 72 -42 99 -102 66z"/>
<path d="M14516 27461 c-9 -17 -20 -68 -25 -113 -17 -168 21 -300 109 -382 56
-53 111 -71 190 -62 128 14 185 48 312 190 138 153 196 267 176 344 -10 37
-34 40 -52 7 -10 -20 -47 -79 -100 -164 -16 -24 -67 -84 -114 -133 -95 -98
-154 -133 -244 -144 -56 -6 -59 -5 -92 28 -19 19 -40 54 -47 79 -15 49 -19
234 -6 289 10 44 -12 77 -60 86 -28 5 -33 3 -47 -25z"/>
<path d="M11423 27414 c-58 -21 -176 -147 -214 -229 -63 -134 -76 -314 -29
-410 46 -96 135 -127 232 -82 95 44 223 193 277 322 15 36 31 68 34 72 4 3 16
-16 27 -43 51 -121 67 -147 115 -200 44 -46 57 -55 81 -52 41 4 41 28 1 86
-37 55 -129 270 -158 372 -22 75 -31 86 -81 95 -46 9 -53 -4 -61 -106 -6 -87
-30 -152 -94 -252 -75 -118 -180 -217 -230 -217 -40 0 -57 56 -50 170 6 118
31 186 95 265 50 63 93 91 155 100 74 12 85 90 16 114 -41 14 -64 13 -116 -5z"/>
<path d="M9487 27211 c-37 -33 -75 -98 -107 -183 -18 -50 -25 -58 -47 -58 -50
0 -90 -64 -85 -135 7 -100 42 -171 87 -175 53 -6 55 -2 100 173 48 187 101
297 145 297 18 0 59 -59 170 -245 92 -153 162 -213 193 -164 13 20 -198 395
-257 457 -65 68 -144 81 -199 33z"/>
<path d="M8769 27091 c-33 -34 -37 -73 -19 -216 5 -44 14 -141 19 -217 7 -99
14 -143 26 -162 25 -38 53 -33 72 12 13 31 14 60 8 187 -5 83 -9 206 -10 274
-1 109 -3 125 -20 137 -28 20 -43 17 -76 -15z"/>
<path d="M12850 25249 c-135 -4 -445 -17 -690 -28 -670 -31 -742 -32 -1455
-36 -371 -1 -721 -8 -800 -14 -201 -16 -428 -37 -760 -71 -159 -15 -333 -31
-385 -34 -547 -35 -776 -57 -1160 -112 -354 -50 -498 -87 -593 -152 -173 -120
-235 -346 -252 -922 -14 -484 -36 -729 -101 -1098 -133 -769 -190 -1124 -219
-1382 -8 -69 -19 -161 -24 -205 -38 -302 -52 -650 -46 -1095 5 -422 8 -478 32
-609 28 -160 66 -246 155 -357 200 -249 467 -281 1723 -207 617 36 972 37
1305 3 135 -14 302 -25 373 -25 l127 0 0 -35 c0 -19 9 -118 19 -220 11 -102
36 -338 56 -525 19 -187 40 -378 45 -425 5 -47 17 -206 25 -355 18 -326 32
-486 46 -540 15 -55 53 -93 113 -110 94 -28 138 -21 399 65 481 158 840 230
1292 261 184 12 1330 17 2170 9 980 -9 1369 42 1476 192 21 29 24 44 23 123 0
99 -20 189 -104 470 -98 328 -213 829 -281 1215 -63 365 -89 599 -95 870 -7
275 8 412 50 474 47 70 28 126 -44 126 -30 0 -40 -5 -45 -20 -10 -33 -55 -79
-94 -100 -124 -63 -397 -120 -791 -165 -204 -24 -293 -30 -260 -18 22 8 40 34
40 59 0 32 -37 54 -90 54 -46 0 -281 29 -445 55 -233 37 -621 54 -1400 62
-522 5 -680 3 -925 -11 -569 -32 -795 -58 -1016 -116 -139 -36 -178 -52 -198
-82 -30 -45 -39 -162 -33 -418 6 -218 36 -676 53 -786 3 -23 2 -44 -3 -47 -6
-4 -39 -2 -74 3 -129 18 -329 40 -538 60 -274 26 -519 25 -916 0 -597 -39
-703 -43 -1060 -44 -566 -1 -716 32 -847 188 -101 121 -132 219 -163 516 -8
75 -8 897 0 1056 14 301 60 683 146 1214 16 102 32 203 35 225 5 39 26 159 78
455 25 142 67 422 86 570 15 119 29 320 45 675 32 704 103 853 440 923 113 24
440 72 692 101 166 20 239 26 664 56 227 16 440 35 674 60 513 55 904 72 1570
69 381 -2 701 6 1065 25 597 32 1081 45 1775 45 681 1 1715 -10 1760 -19 11
-2 144 -7 295 -10 447 -9 1085 -34 1550 -60 239 -14 521 -29 625 -35 588 -31
792 -43 1045 -60 85 -5 175 -12 200 -15 82 -9 430 -34 1115 -80 421 -28 415
-27 745 -56 129 -11 341 -28 470 -39 373 -31 674 -59 820 -76 74 -8 212 -24
305 -35 376 -43 575 -82 745 -148 187 -72 253 -132 296 -267 46 -143 65 -505
74 -1414 5 -410 13 -887 19 -1060 27 -786 31 -971 31 -1520 0 -322 -5 -650
-10 -730 -5 -80 -14 -220 -19 -312 -11 -175 -30 -314 -56 -408 -27 -100 -46
-202 -41 -216 3 -8 -5 -21 -19 -30 -19 -12 -70 -18 -232 -25 -242 -10 -483
-39 -648 -79 -77 -18 -73 -25 -70 123 2 72 3 142 4 154 1 20 6 21 74 20 52 -1
81 3 105 16 38 21 47 37 38 73 -6 24 -10 26 -44 20 -20 -4 -65 -9 -99 -12 -73
-7 -79 -1 -68 72 6 45 7 45 38 37 63 -16 153 -10 184 13 65 48 67 119 6 180
-49 49 -92 74 -130 74 -17 0 -34 4 -37 8 -3 5 1 31 9 58 41 136 87 348 92 420
7 102 -5 138 -68 214 -93 112 -224 164 -494 196 -196 23 -536 6 -795 -41 -163
-29 -361 -55 -420 -55 -33 0 -279 31 -547 70 -503 71 -702 90 -953 90 -302 -1
-498 -58 -614 -180 -98 -102 -119 -235 -92 -582 9 -114 16 -309 16 -434 l0
-227 -37 6 c-138 23 -363 28 -823 22 -272 -4 -498 -9 -503 -12 -15 -9 -1172
-3 -1372 7 -157 8 -248 18 -362 41 -141 27 -155 28 -188 15 -36 -15 -46 -43
-26 -74 12 -19 259 -60 441 -73 244 -17 1200 -22 1835 -10 454 9 629 9 804 -1
l223 -12 -5 -55 c-4 -31 -16 -121 -27 -201 -34 -235 -40 -277 -60 -445 -42
-337 -62 -576 -64 -735 -1 -148 1 -168 19 -199 65 -110 226 -103 760 34 265
68 565 105 852 105 277 0 515 -21 973 -85 370 -51 447 -58 670 -59 168 0 218
3 275 18 196 51 286 134 350 321 44 130 47 167 52 573 l5 393 24 9 c13 5 106
23 206 40 154 27 224 33 443 40 354 11 396 23 394 104 0 23 6 66 15 96 65 229
77 310 102 695 12 201 16 406 15 905 -1 355 -3 686 -6 735 -3 50 -7 185 -10
300 -3 116 -12 440 -20 720 -9 286 -14 727 -13 1005 3 474 -5 706 -33 1054
-24 287 -98 417 -295 518 -153 79 -318 129 -549 168 -278 46 -954 116 -1605
165 -113 9 -308 24 -435 35 -126 11 -306 24 -400 30 -93 5 -278 17 -410 25
-132 9 -307 20 -390 25 -82 6 -334 23 -560 39 -225 17 -538 37 -695 46 -1324
72 -1391 76 -2025 100 -528 20 -989 34 -1415 44 -471 10 -1911 10 -2220 0z
m-35 -4929 c365 -13 635 -33 815 -60 74 -11 191 -27 259 -35 68 -8 126 -17
129 -20 11 -11 -9 -17 -85 -26 -150 -18 -535 -5 -816 28 -137 15 -149 15 -164
0 -63 -63 198 -113 652 -126 143 -4 268 -4 277 1 9 4 59 8 110 8 192 0 525 32
788 76 104 17 310 68 340 84 31 17 62 13 56 -7 -3 -10 -10 -74 -15 -143 -33
-450 122 -1391 389 -2355 42 -151 80 -337 80 -391 0 -65 -20 -96 -82 -126
-111 -55 -275 -80 -668 -104 -206 -13 -364 -15 -830 -9 -994 11 -1929 1 -2195
-25 -397 -38 -792 -125 -1195 -261 -106 -36 -161 -49 -202 -49 -92 0 -90 -7
-117 361 -28 382 -94 1114 -125 1379 -18 150 -53 555 -66 750 -6 91 -15 226
-20 300 -12 169 -12 482 -1 533 15 64 41 82 154 110 232 58 363 72 1017 112
260 16 1034 13 1515 -5z m7340 -244 c72 -9 186 -25 255 -36 69 -11 231 -36
360 -55 372 -56 683 -112 920 -166 84 -19 85 -19 104 1 47 47 -27 120 -123
120 -62 0 -252 29 -264 40 -12 10 38 16 338 41 453 37 744 17 925 -63 151 -68
161 -112 94 -426 -14 -65 -32 -157 -40 -206 -17 -100 -18 -102 -44 -116 -15
-8 -27 -2 -67 34 -60 56 -82 62 -132 37 -49 -25 -61 -63 -33 -100 22 -30 56
-38 89 -20 21 11 26 10 45 -8 15 -16 20 -31 18 -55 -10 -96 -2 -184 21 -228
23 -44 23 -51 20 -250 -2 -155 -6 -210 -17 -227 -18 -28 -18 -67 0 -82 26 -22
6 -694 -25 -816 -46 -183 -128 -279 -279 -326 -176 -54 -530 -44 -1028 31 -74
11 -220 29 -326 40 -690 70 -1010 49 -1661 -104 -82 -20 -200 -43 -262 -53
-104 -15 -113 -15 -137 1 -25 16 -26 19 -26 124 0 60 5 158 10 218 6 60 15
163 21 229 5 66 16 165 24 220 12 86 31 242 75 615 6 47 11 110 13 140 2 53 3
55 32 58 76 7 104 60 44 81 -18 6 -41 11 -51 11 -17 0 -18 5 -11 38 11 52 7
412 -7 659 -14 244 -6 337 38 423 46 92 153 151 335 186 96 18 571 12 752 -10z
m2719 -946 c57 -21 19 -70 -55 -70 -35 0 -69 16 -69 32 0 40 66 60 124 38z"/>
<path d="M13925 19959 c-11 -17 0 -20 21 -4 17 13 17 14 2 15 -9 0 -20 -5 -23
-11z"/>
<path d="M11447 19655 c-134 -49 -300 -262 -342 -436 -55 -232 -7 -657 106
-942 105 -264 269 -393 335 -266 33 65 -13 115 -84 89 -36 -13 -37 -12 -67 22
-69 81 -163 314 -207 514 -31 143 -31 443 0 557 55 202 186 357 323 382 41 8
116 -10 142 -32 23 -22 22 -70 -4 -129 -33 -73 -68 -121 -184 -246 -159 -170
-221 -270 -246 -397 -9 -49 -9 -70 1 -107 56 -199 341 -325 637 -280 115 18
180 39 205 68 17 20 19 19 77 -20 33 -22 89 -47 126 -57 59 -16 75 -17 129 -6
105 21 163 54 246 140 131 135 189 278 177 442 -13 189 -153 336 -338 355
-141 14 -341 -86 -365 -183 -15 -57 42 -85 73 -36 25 39 39 50 111 85 213 103
422 -19 422 -248 0 -160 -153 -392 -290 -439 -83 -29 -152 -30 -204 -6 -77 38
-145 135 -146 209 0 18 12 53 26 77 29 51 26 81 -11 95 -78 30 -140 -75 -115
-194 6 -29 27 -80 46 -111 19 -32 33 -60 30 -62 -10 -10 -318 -34 -371 -28
-130 14 -298 91 -353 163 -22 29 -27 45 -27 91 1 93 69 201 245 390 105 113
194 241 211 305 17 61 7 138 -22 174 -40 51 -112 82 -188 81 -37 0 -83 -7
-104 -14z"/>
<path d="M13858 19183 c-32 -8 -71 -85 -147 -285 -88 -231 -140 -341 -161
-346 -11 -2 -34 49 -87 190 -158 422 -147 402 -214 406 -41 2 -46 -1 -70 -35
-57 -81 -112 -357 -129 -649 -10 -171 -10 -178 9 -198 22 -22 75 -26 94 -7 8
8 11 44 9 114 -5 180 34 532 69 624 5 13 14 23 20 21 6 -2 33 -64 59 -138 190
-535 269 -591 400 -285 28 66 78 191 110 277 57 157 82 208 100 208 22 0 104
-199 211 -514 37 -109 81 -220 96 -245 32 -52 87 -93 117 -89 32 5 30 29 -6
89 -18 30 -55 118 -81 194 -176 506 -225 618 -285 649 -31 16 -90 26 -114 19z"/>
<path d="M19909 19296 c-174 -62 -289 -267 -369 -655 -19 -89 -29 -119 -48
-136 l-24 -22 16 -92 c18 -104 20 -109 50 -120 41 -16 93 33 72 68 -6 9 10
190 17 198 3 2 33 -25 68 -60 101 -101 202 -128 399 -108 113 12 189 32 233
63 31 22 34 36 10 45 -10 4 -23 13 -28 21 -9 11 -18 11 -55 -2 -65 -21 -232
-40 -298 -33 -139 15 -217 65 -233 152 -20 107 70 166 304 201 167 24 304 72
327 113 28 54 -11 143 -108 244 -112 116 -231 160 -333 123z m180 -116 c49
-25 173 -149 169 -170 -6 -29 -101 -59 -268 -86 -114 -18 -206 -47 -254 -79
-20 -13 -38 -20 -40 -16 -16 25 94 234 157 298 67 70 162 91 236 53z"/>
<path d="M20707 19029 c-62 -15 -113 -46 -156 -96 -56 -65 -76 -128 -76 -233
0 -75 4 -93 33 -155 18 -38 50 -87 70 -108 73 -76 206 -123 321 -115 71 5 97
23 87 61 -6 24 -10 25 -103 29 -135 7 -197 31 -240 95 -18 27 -35 61 -39 78
l-7 29 29 -19 c44 -29 125 -37 187 -18 151 45 247 141 247 249 0 84 -49 148
-151 194 -47 21 -134 25 -202 9z m211 -123 c77 -40 39 -137 -77 -197 -43 -22
-84 -25 -220 -18 l-33 2 6 50 c8 60 24 93 65 131 56 53 187 69 259 32z"/>
<path d="M22053 19009 c-54 -26 -153 -132 -181 -192 -28 -60 -47 -171 -38
-220 13 -70 104 -98 191 -58 22 10 76 41 119 70 113 74 146 78 146 21 0 -77
-115 -321 -190 -403 -46 -51 -55 -56 -88 -54 -31 2 -37 -2 -40 -19 -5 -34 50
-74 101 -74 38 0 47 6 107 68 68 70 143 195 195 326 23 58 26 81 23 139 -4 69
-4 70 -53 115 -49 44 -51 44 -106 39 -62 -5 -91 -18 -198 -88 -41 -27 -80 -49
-87 -49 -23 0 -16 48 16 115 38 79 114 151 177 167 63 16 77 47 38 88 -35 36
-72 39 -132 9z"/>
<path d="M22420 18990 c-11 -11 -20 -30 -20 -42 0 -67 33 -286 45 -305 19 -28
49 -37 75 -23 20 11 21 17 17 172 l-4 162 -32 28 c-37 33 -54 35 -81 8z"/>
<path d="M21364 18952 c-85 -26 -142 -61 -206 -130 -60 -65 -92 -124 -102
-190 -6 -39 -3 -46 23 -73 54 -54 153 -34 295 58 90 58 163 93 198 93 21 0 34
-9 54 -40 41 -62 44 -151 10 -271 -54 -186 -152 -369 -239 -445 l-42 -36 -78
6 c-84 6 -99 -2 -77 -43 28 -52 140 -75 211 -43 90 40 192 169 274 346 80 171
107 294 85 395 -17 80 -45 127 -108 178 -49 40 -57 43 -110 43 -69 -1 -130
-25 -261 -103 -52 -32 -103 -57 -113 -57 -49 0 68 133 162 184 94 51 231 47
314 -9 44 -30 72 -32 86 -6 14 27 15 27 -31 76 -48 52 -104 73 -214 80 -50 4
-88 0 -131 -13z"/>
<path d="M7112 18765 c-12 -15 -24 -46 -28 -71 -7 -51 13 -292 31 -372 7 -30
11 -61 8 -68 -2 -6 -21 -15 -41 -19 -55 -10 -82 -31 -82 -63 0 -53 35 -74 109
-65 28 3 51 2 51 -3 6 -150 73 -344 115 -328 27 11 25 40 -11 164 -46 158 -48
166 -37 173 20 12 372 39 438 33 39 -3 84 -2 100 2 43 12 44 39 3 56 -47 20
-313 40 -439 33 -72 -4 -110 -2 -118 6 -6 6 -11 45 -11 90 0 43 -5 132 -11
198 -10 106 -10 124 5 164 26 66 19 89 -25 93 -30 2 -41 -2 -57 -23z"/>
<path d="M5897 18299 c-65 -17 -157 -100 -195 -176 -28 -54 -51 -136 -63 -223
-6 -41 -14 -81 -18 -90 -5 -8 -5 -117 -2 -242 6 -215 7 -228 29 -257 17 -23
19 -32 10 -36 -7 -2 -76 -6 -153 -8 -149 -4 -178 -10 -173 -36 7 -35 71 -43
308 -37 279 6 378 19 895 116 355 66 891 122 1535 160 102 6 320 20 485 31
165 10 413 23 550 29 138 5 372 21 520 35 172 16 317 25 398 23 118 -3 130 -1
143 16 17 24 18 37 1 60 -31 42 -163 45 -470 12 -269 -30 -440 -43 -652 -51
-88 -3 -259 -12 -380 -20 -121 -8 -301 -19 -400 -25 -870 -51 -1401 -108
-1900 -204 -99 -19 -247 -44 -330 -56 -82 -11 -172 -24 -200 -29 -101 -19
-145 -22 -145 -12 0 6 5 11 10 11 6 0 10 16 10 36 0 20 11 54 26 80 31 52 27
89 -10 98 -20 5 -26 14 -31 49 -4 24 -5 55 -3 68 3 23 6 24 68 21 142 -7 297
82 383 221 10 15 21 27 26 27 4 0 11 -28 14 -63 9 -94 41 -170 89 -211 71 -62
132 -60 198 7 120 119 403 537 385 567 -16 25 -47 6 -103 -63 -33 -40 -68 -79
-77 -87 -17 -14 -112 -132 -203 -251 -47 -63 -111 -113 -138 -107 -50 10 -90
149 -80 284 6 85 -2 109 -37 116 -11 2 -24 18 -31 39 -39 112 -189 205 -289
178z m139 -120 c109 -67 96 -196 -32 -321 -81 -78 -175 -128 -241 -128 -71 0
-76 9 -57 116 25 151 68 259 120 306 58 52 151 64 210 27z"/>
<path d="M18012 18249 c-123 -16 -219 -64 -295 -149 -66 -74 -82 -131 -81
-290 1 -140 22 -232 143 -635 32 -110 80 -276 106 -370 112 -411 194 -646 340
-971 93 -207 158 -368 180 -444 27 -95 25 -202 -4 -268 -46 -101 -190 -206
-371 -270 -92 -32 -156 -44 -370 -67 -74 -9 -182 -22 -240 -30 -120 -16 -130
-12 -130 54 0 50 -27 287 -46 395 -24 144 -70 222 -154 266 -56 29 -180 50
-293 50 -112 0 -137 -11 -137 -58 0 -22 -2 -22 -182 -24 -101 0 -190 -1 -198
0 -8 0 -204 4 -435 8 -444 7 -508 3 -629 -37 -76 -26 -118 -57 -151 -113 -58
-99 -42 -219 70 -551 104 -307 119 -387 140 -756 18 -314 23 -344 75 -394 37
-37 43 -38 117 -42 81 -5 151 10 408 87 205 61 351 82 690 100 550 29 729 72
816 199 37 53 36 134 -1 356 -17 105 -38 217 -46 250 -22 95 -22 95 39 95 28
0 99 9 157 20 58 11 168 27 245 35 163 17 267 42 377 89 171 74 288 167 341
270 25 51 31 76 35 148 7 137 -14 198 -241 718 -130 299 -191 478 -316 930
-22 80 -65 226 -96 325 -31 99 -75 252 -98 340 -38 147 -42 170 -42 285 0 140
12 176 77 236 102 95 155 107 458 108 129 1 290 -1 357 -4 108 -4 124 -3 140
13 26 26 7 47 -62 67 -112 34 -525 51 -693 29z m-1057 -2830 c72 -13 127 -40
148 -72 25 -38 37 -97 63 -306 14 -108 27 -217 31 -243 l6 -47 -34 -3 c-30 -3
-34 -7 -37 -35 -4 -38 26 -73 62 -73 14 0 27 -4 31 -9 3 -5 12 -56 20 -113 8
-57 24 -159 35 -228 36 -224 25 -294 -51 -349 -86 -63 -240 -92 -579 -111
-520 -28 -584 -37 -910 -125 -210 -58 -284 -71 -315 -57 -27 12 -31 34 -40
207 -23 440 -39 543 -135 845 -104 326 -131 474 -97 540 20 39 94 77 187 96
89 18 167 18 1127 -3 294 -6 314 -5 333 12 22 20 26 55 8 73 -16 16 65 16 147
1z"/>
<path d="M16945 14959 c-22 -5 -68 -19 -103 -29 -78 -24 -143 -25 -278 -3 -83
13 -108 14 -130 4 -26 -12 -27 -13 -21 -84 6 -84 33 -171 86 -278 41 -82 128
-216 155 -238 40 -33 38 -48 -8 -74 -79 -44 -272 -117 -362 -137 -49 -11 -112
-26 -140 -34 -74 -20 -79 -14 -65 80 31 204 22 522 -16 599 -54 106 -132 122
-398 80 -247 -38 -256 -42 -241 -98 10 -40 44 -59 87 -47 85 25 337 70 390 70
71 0 74 -4 88 -121 15 -115 13 -279 -4 -434 -14 -129 -14 -130 9 -175 12 -25
33 -51 47 -57 33 -17 88 -16 140 3 24 8 104 30 176 49 159 41 376 132 416 176
42 46 42 48 -59 180 -95 125 -190 319 -196 400 -3 39 -1 44 17 42 11 -1 68 -7
128 -14 143 -15 194 -9 307 35 107 43 120 51 120 77 0 28 -80 44 -145 28z"/>
<path d="M3883 18099 c-32 -9 -73 -51 -73 -74 0 -18 68 -93 91 -100 33 -11 69
20 69 58 0 25 7 39 31 56 20 15 29 29 27 44 -3 19 -10 22 -58 24 -30 1 -69 -3
-87 -8z"/>
<path d="M4719 17924 c-14 -9 -36 -32 -49 -50 -12 -19 -32 -36 -44 -39 -12 -2
-33 -6 -48 -9 -16 -4 -35 -20 -48 -41 l-22 -36 27 -112 c15 -62 32 -120 37
-129 11 -23 43 -39 62 -32 20 8 25 25 37 115 21 172 55 243 113 237 24 -2 43
-18 91 -78 91 -113 206 -228 238 -235 51 -13 76 31 35 63 -42 32 -87 82 -183
202 -122 152 -179 185 -246 144z"/>
<path d="M3951 17734 c-26 -33 -26 -66 -1 -195 23 -121 67 -251 122 -362 49
-99 64 -117 95 -117 31 0 38 22 20 57 -70 128 -115 251 -141 383 -20 98 -21
148 -5 188 17 41 4 66 -38 70 -23 2 -36 -3 -52 -24z"/>
<path d="M11805 15176 c-32 -33 -46 -59 -59 -107 -39 -146 -35 -470 8 -719 30
-168 46 -226 84 -295 28 -52 63 -68 70 -33 2 10 -12 82 -32 160 -38 154 -39
161 -57 438 -16 267 0 429 49 473 13 12 33 30 43 40 21 19 25 57 7 75 -26 26
-70 14 -113 -32z"/>
<path d="M14130 15123 c-19 -16 -49 -63 -75 -117 -53 -112 -65 -150 -101 -301
-31 -134 -64 -192 -178 -316 -34 -36 -83 -94 -111 -129 -93 -119 -228 -210
-362 -245 -112 -29 -193 -14 -259 50 -56 53 -66 109 -34 181 29 67 55 92 127
125 80 37 104 77 67 114 -29 29 -113 -2 -191 -69 -51 -44 -88 -118 -104 -207
-10 -56 -9 -73 5 -117 51 -152 249 -226 440 -163 197 64 322 177 480 434 45
72 74 100 62 60 -12 -40 -47 -227 -52 -282 -6 -55 -5 -61 19 -85 14 -14 33
-26 43 -26 24 0 72 55 137 158 32 51 62 92 67 92 5 0 17 -15 26 -32 46 -89
131 -157 251 -199 77 -27 225 -29 353 -6 105 20 155 43 155 73 0 27 -66 30
-153 8 -91 -23 -241 -23 -313 -1 -114 36 -229 150 -229 229 0 37 101 118 252
204 62 34 123 70 136 79 27 20 29 61 3 75 -43 22 -85 11 -192 -52 -197 -116
-235 -150 -403 -361 -46 -58 -68 -52 -43 11 9 21 45 156 81 298 66 264 105
379 148 437 33 44 40 65 28 88 -15 26 -43 24 -80 -8z"/>
<path d="M12243 14509 c-57 -28 -77 -73 -70 -154 16 -174 125 -352 249 -410
69 -32 191 -35 255 -5 99 45 188 179 199 301 15 158 -70 255 -235 266 -131 9
-221 -33 -221 -103 0 -47 37 -57 80 -21 50 42 161 48 230 12 39 -20 63 -76 55
-128 -16 -98 -101 -224 -172 -253 -52 -22 -120 -18 -169 11 -78 46 -164 214
-164 321 0 28 7 46 29 69 41 42 47 69 22 94 -26 26 -36 26 -88 0z"/>
<path d="M10948 14510 c-143 -24 -252 -85 -394 -222 -103 -99 -166 -181 -207
-267 -25 -53 -31 -80 -35 -161 -6 -117 8 -182 54 -267 94 -170 266 -262 469
-250 150 9 360 92 486 192 74 60 89 79 71 97 -7 7 -44 -10 -118 -55 -340 -204
-673 -194 -815 25 -71 110 -86 258 -38 368 56 127 254 322 387 380 24 11 74
25 111 31 36 6 79 15 94 21 43 17 59 58 35 90 -18 22 -45 27 -100 18z"/>
<path d="M8169 11189 c-15 -15 -19 -28 -15 -47 3 -15 10 -160 16 -322 5 -162
14 -369 20 -460 5 -91 10 -248 10 -350 2 -182 14 -634 24 -860 3 -63 6 -255 7
-427 1 -293 3 -313 20 -329 18 -16 66 -17 622 -16 954 1 1174 17 1318 93 96
51 102 66 110 249 4 85 16 234 28 330 12 96 28 236 36 310 9 74 25 207 36 295
11 88 24 198 30 245 5 47 25 181 45 299 54 330 68 536 43 651 -13 63 -57 116
-107 130 -62 17 -205 11 -442 -20 -311 -40 -340 -42 -378 -27 -20 8 -59 17
-87 21 -27 4 -86 18 -130 31 -121 36 -196 52 -350 74 -503 72 -651 98 -756
131 -76 25 -74 25 -100 -1z m185 -124 c44 -14 530 -97 731 -125 118 -17 229
-40 240 -51 5 -5 7 -9 5 -9 -3 -1 -40 -7 -83 -15 -79 -14 -107 -27 -107 -50 0
-30 51 -31 293 -10 151 13 171 13 198 -1 39 -20 71 -15 83 12 12 26 14 26 369
54 138 11 265 18 280 14 51 -11 59 -38 59 -192 -1 -147 -8 -216 -47 -452 -42
-251 -93 -624 -130 -955 -20 -176 -40 -347 -46 -380 -5 -33 -12 -117 -16 -187
-5 -99 -10 -131 -22 -142 -21 -18 -101 -43 -181 -56 -164 -26 -768 -40 -1340
-29 l-295 5 -6 364 c-4 201 -9 406 -13 455 -3 50 -8 239 -11 420 -4 182 -11
416 -16 520 -14 275 -29 807 -23 817 7 11 22 10 78 -7z"/>
<path d="M16016 10344 c-20 -19 -20 -48 -1 -77 11 -18 14 -61 12 -221 l-2
-199 -40 -12 c-22 -7 -68 -21 -102 -30 -70 -20 -90 -37 -99 -82 -5 -26 -2 -34
19 -48 24 -15 29 -14 116 20 51 19 96 33 102 30 5 -4 9 -59 10 -123 1 -159 19
-292 41 -306 39 -24 43 2 41 234 -3 184 -1 219 12 224 8 3 117 23 242 45 211
36 274 46 485 71 93 11 118 23 118 55 0 39 -31 48 -139 41 -253 -18 -491 -49
-655 -86 -27 -6 -53 -7 -58 -2 -4 4 -5 84 -1 177 9 191 1 246 -42 282 -31 27
-38 28 -59 7z"/>
<path d="M12254 10279 c-24 -8 -64 -94 -64 -136 0 -91 101 -57 131 45 20 68
-12 112 -67 91z"/>
<path d="M12140 9905 c-7 -9 -15 -37 -17 -63 -4 -42 4 -94 53 -332 7 -36 27
-189 44 -340 17 -151 35 -285 40 -297 11 -27 51 -31 70 -7 11 12 11 43 1 162
-18 225 -49 473 -78 616 -17 90 -23 145 -19 181 4 37 2 57 -10 73 -18 26 -65
30 -84 7z"/>
<path d="M13042 9874 c-68 -25 -160 -118 -210 -213 -29 -54 -53 -86 -72 -96
-29 -15 -40 -33 -40 -68 -1 -12 -8 -40 -16 -62 -29 -80 -34 -126 -17 -193 17
-70 36 -88 77 -72 36 13 53 46 60 115 26 231 123 429 237 480 54 25 69 14 92
-61 62 -210 90 -275 144 -342 42 -52 73 -54 86 -6 8 26 3 43 -32 112 -23 45
-55 132 -72 194 -17 62 -40 129 -51 148 -39 71 -105 93 -186 64z"/>
<path d="M15516 9828 c-201 -323 -293 -434 -399 -484 -110 -51 -161 -23 -197
108 -11 42 -25 120 -29 172 -9 104 -21 129 -60 124 -56 -7 -62 -85 -21 -278
28 -134 38 -157 79 -203 44 -49 85 -67 150 -67 138 0 300 151 451 420 90 160
95 175 82 205 -14 31 -37 32 -56 3z"/>
<path d="M14200 9741 c-175 -56 -332 -178 -400 -311 -61 -121 -81 -234 -81
-470 0 -203 18 -316 66 -416 56 -116 121 -152 180 -101 23 19 28 34 35 102 4
44 15 105 24 137 18 61 13 90 -21 121 -42 37 -67 -1 -83 -123 -5 -41 -10 -78
-10 -82 0 -5 -9 -8 -20 -8 -35 0 -55 98 -69 345 -14 218 4 347 62 458 75 145
290 267 466 267 89 0 165 -28 159 -57 -8 -45 -236 -172 -357 -200 -119 -27
-144 -37 -152 -61 -6 -17 -4 -27 11 -42 46 -46 211 -8 392 92 129 70 182 115
204 174 17 45 17 48 -2 82 -24 45 -54 67 -126 92 -74 26 -200 26 -278 1z"/>
<path d="M24472 9650 c0 -14 2 -19 5 -12 2 6 2 18 0 25 -3 6 -5 1 -5 -13z"/>
<path d="M24472 9500 c0 -14 2 -19 5 -12 2 6 2 18 0 25 -3 6 -5 1 -5 -13z"/>
<path d="M24468 9328 c-2 -29 -1 -71 3 -93 5 -29 7 -13 8 53 1 100 -5 123 -11
40z"/>
<path d="M24470 9155 c-2 -22 -4 -125 -6 -230 -2 -172 -6 -315 -19 -740 -2
-77 -6 -257 -9 -400 -14 -625 -25 -1025 -32 -1105 -10 -128 -12 -605 -2 -617
7 -9 7 -18 -2 -27 -6 -8 -10 -30 -9 -48 1 -18 -1 -48 -5 -66 -5 -21 -4 -38 4
-47 7 -9 8 -15 0 -20 -14 -9 -13 -145 1 -145 8 0 7 -6 -2 -17 -13 -15 -14 -40
-20 -553 0 -47 8 -127 14 -137 4 -6 3 -14 -3 -18 -5 -3 -9 -20 -9 -38 1 -18
-2 -53 -6 -79 -6 -34 -4 -52 6 -64 7 -9 9 -18 3 -22 -11 -9 -14 -62 -17 -377
-1 -137 -6 -256 -10 -263 -5 -7 -2 -14 7 -18 9 -3 13 -11 10 -16 -11 -18 -12
-163 -1 -176 7 -9 8 -16 0 -20 -6 -4 -12 -22 -15 -39 -4 -27 -1 -33 14 -33 29
0 33 3 35 30 6 67 15 661 11 678 -1 4 3 17 10 30 7 12 10 27 6 33 -9 15 -2
670 10 929 2 47 4 150 4 230 1 247 3 294 13 311 12 24 11 93 -2 106 -7 7 -7
27 0 68 6 32 8 68 5 80 -3 13 -1 33 6 45 7 14 8 25 2 33 -13 15 -18 89 -8 105
4 6 7 33 6 59 0 27 2 98 4 158 7 157 19 2407 13 2436 -3 17 -5 12 -7 -16z"/>
<path d="M12305 8420 c-146 -9 -244 -23 -325 -46 -68 -20 -80 -29 -80 -64 0
-49 17 -52 124 -25 151 38 572 57 827 36 150 -12 228 2 229 41 0 14 -45 32
-115 45 -86 17 -480 24 -660 13z"/>
<path d="M9105 7065 c-529 -85 -1018 -459 -1228 -938 -106 -242 -132 -358
-131 -587 1 -235 35 -391 125 -575 142 -289 447 -514 804 -591 109 -23 383
-24 516 -1 617 106 1205 569 1373 1082 76 232 76 510 0 779 -44 157 -113 265
-222 351 -58 46 -164 103 -237 128 -31 11 -46 25 -70 65 -66 113 -166 180
-357 241 -189 60 -387 76 -573 46z m468 -129 c118 -31 228 -73 292 -111 43
-25 46 -29 31 -43 -14 -14 -23 -14 -103 1 -236 44 -293 43 -293 -7 0 -42 24
-50 250 -81 161 -23 260 -50 370 -104 210 -103 296 -205 354 -421 95 -356 40
-675 -172 -994 -73 -111 -307 -340 -427 -418 -236 -155 -489 -256 -727 -292
-362 -53 -694 39 -947 263 -234 207 -341 467 -341 832 0 182 61 412 165 624
140 284 333 477 620 620 149 74 245 108 400 141 97 21 129 23 270 20 131 -4
178 -9 258 -30z"/>
<path d="M17617 6523 c-10 -9 -9 -55 3 -127 5 -33 14 -167 20 -296 6 -129 16
-270 22 -313 6 -48 7 -82 1 -88 -5 -5 -62 -20 -127 -34 -65 -13 -129 -31 -142
-40 -33 -22 -34 -78 0 -100 21 -14 32 -13 138 16 64 18 123 29 133 26 15 -6
16 -19 10 -120 -3 -61 -11 -136 -17 -165 -20 -95 31 -100 64 -6 13 36 17 83
18 181 l0 132 38 10 c20 6 69 17 107 26 160 37 350 96 367 115 9 11 20 20 26
20 17 0 45 39 39 55 -9 22 -71 19 -174 -9 -181 -49 -392 -98 -401 -92 -5 3
-12 126 -16 273 -10 367 -19 457 -51 505 -24 36 -43 46 -58 31z"/>
<path d="M14907 6272 c-22 -24 -21 -61 1 -86 17 -19 18 -31 11 -121 -5 -55 -8
-194 -7 -309 1 -167 -2 -210 -13 -217 -7 -4 -50 -17 -94 -29 -44 -11 -87 -24
-95 -29 -24 -13 -24 -63 0 -89 26 -28 37 -28 122 3 38 14 73 23 78 20 5 -3 9
-95 9 -204 0 -109 4 -207 8 -217 14 -40 47 -39 57 2 4 14 7 119 7 235 1 239
-7 219 101 259 110 41 157 94 112 127 -28 20 -67 16 -135 -17 -34 -16 -67 -26
-72 -23 -10 6 -9 26 14 429 7 110 9 212 5 227 -6 26 -50 57 -79 57 -8 0 -21
-8 -30 -18z"/>
<path d="M14717 5958 c-14 -18 -47 -76 -74 -128 -48 -93 -67 -134 -194 -415
-172 -379 -366 -527 -520 -398 -54 46 -83 118 -148 373 -22 85 -47 172 -56
193 -15 36 -18 38 -53 35 -36 -3 -37 -4 -36 -43 1 -22 13 -80 26 -130 14 -49
37 -139 52 -199 29 -119 77 -230 126 -288 17 -21 59 -51 95 -69 59 -29 71 -31
130 -27 127 11 228 85 337 248 75 113 102 168 173 355 15 39 58 143 96 232 38
89 69 172 69 185 0 13 4 39 10 58 14 49 -3 58 -33 18z"/>
<path d="M15815 5881 c-74 -18 -165 -72 -235 -138 -211 -199 -302 -475 -286
-866 11 -270 45 -466 97 -569 38 -75 106 -55 116 35 5 40 3 47 -20 62 -14 9
-31 31 -36 48 -22 66 -50 268 -61 438 -11 155 -10 188 5 284 40 256 172 481
338 578 94 56 215 65 297 22 69 -36 135 -150 127 -221 -10 -92 -111 -226 -219
-292 -122 -73 -313 -118 -390 -93 -44 14 -68 6 -68 -24 0 -30 50 -72 96 -81
96 -18 283 28 403 98 134 79 253 237 267 354 15 127 -91 292 -228 354 -45 20
-142 25 -203 11z"/>
<path d="M17261 5778 c-69 -129 -144 -229 -236 -315 -106 -100 -175 -136 -271
-141 -125 -7 -188 46 -224 190 -37 146 -75 201 -122 176 -23 -11 -23 -45 1
-105 10 -26 24 -74 32 -106 7 -32 31 -91 53 -130 33 -59 51 -78 95 -104 98
-58 229 -54 349 13 164 92 369 350 394 499 16 89 15 100 -7 103 -16 2 -29 -15
-64 -80z"/>
<path d="M12882 5699 c-138 -35 -239 -112 -307 -234 -73 -129 -78 -255 -15
-381 37 -75 91 -126 176 -166 270 -127 632 30 786 341 40 80 43 92 43 166 -1
143 -63 231 -190 267 -54 15 -179 13 -240 -4 -47 -14 -51 -13 -84 9 -40 27
-71 28 -169 2z m509 -115 c131 -77 99 -245 -78 -422 -49 -48 -113 -101 -143
-119 -212 -124 -491 -56 -541 131 -18 66 -6 165 29 240 33 70 45 79 62 46 14
-27 21 -26 109 16 99 47 219 92 306 115 91 24 208 21 256 -7z m-501 11 c0 -7
-97 -55 -110 -55 -19 0 0 19 38 40 35 18 72 26 72 15z"/>
<path d="M12631 4527 c-47 -13 -88 -55 -78 -80 7 -20 598 -34 732 -17 91 11
235 36 268 46 20 6 23 32 4 40 -7 2 -154 6 -327 8 -173 2 -369 7 -435 10 -82
4 -134 2 -164 -7z"/>
<path d="M24367 3808 c-14 -7 -17 -17 -12 -39 4 -17 2 -35 -3 -42 -14 -16 -10
-71 6 -90 16 -18 6 -67 -14 -67 -19 0 -12 -64 10 -89 11 -12 25 -21 32 -21 20
0 28 44 15 83 -7 19 -9 62 -6 97 3 45 1 66 -7 72 -10 6 -9 12 5 22 20 15 21
32 4 63 -9 17 -16 20 -30 11z"/>
<path d="M24365 3421 c-3 -6 -11 -9 -16 -6 -15 10 -10 -32 8 -70 14 -30 15
-39 4 -57 -8 -12 -12 -55 -13 -112 0 -50 -4 -106 -10 -124 -9 -29 -7 -37 11
-55 13 -15 17 -27 11 -36 -4 -8 -6 -45 -4 -83 3 -37 0 -94 -7 -125 -13 -64
-18 -242 -7 -249 8 -5 2 -118 -8 -165 -3 -16 1 -30 10 -39 18 -14 51 -6 41 11
-11 18 -9 107 3 121 6 8 8 19 4 25 -4 6 -6 188 -4 405 4 471 4 451 -1 511 -4
50 -11 65 -22 48z"/>
<path d="M24340 2229 c-7 -11 -9 -28 -5 -37 13 -33 16 -73 6 -86 -6 -7 -10
-26 -10 -42 1 -16 1 -51 0 -79 0 -27 5 -52 11 -56 8 -5 8 -21 1 -56 -6 -34 -6
-55 1 -66 8 -12 7 -23 -2 -38 -7 -11 -10 -29 -7 -40 4 -11 1 -27 -6 -35 -9
-11 -9 -18 -1 -26 14 -14 16 -54 4 -62 -11 -6 -7 -56 5 -64 5 -4 13 -16 17
-26 5 -14 10 -16 17 -9 8 8 7 17 -1 33 -6 12 -8 29 -4 38 6 15 16 181 13 222
0 8 0 53 0 100 2 125 1 170 -2 220 -2 25 1 53 5 62 11 23 -1 68 -18 68 -7 0
-18 -9 -24 -21z"/>
<path d="M24336 1474 c-3 -9 -4 -47 -1 -85 5 -58 4 -69 -10 -69 -18 0 -20 -29
-2 -35 8 -4 12 -32 13 -90 0 -47 4 -88 7 -92 4 -4 15 1 24 10 13 13 14 21 6
39 -6 15 -9 83 -7 181 4 131 2 157 -10 157 -7 0 -17 -7 -20 -16z"/>
<path d="M24334 1068 c-4 -7 -7 -30 -5 -51 1 -21 -3 -45 -9 -52 -7 -8 -7 -15
-1 -19 6 -4 6 -18 0 -38 -12 -45 3 -158 22 -158 6 0 10 28 9 73 -1 39 4 92 10
117 6 25 8 66 5 92 -7 48 -17 59 -31 36z"/>
<path d="M24320 725 c-10 -12 -10 -18 0 -30 7 -8 16 -15 20 -15 12 0 20 28 14
45 -4 8 -10 15 -14 15 -4 0 -13 -7 -20 -15z"/>
<path d="M24316 641 c-14 -15 -15 -24 -7 -40 9 -15 8 -26 -1 -40 -9 -15 -9
-23 1 -35 11 -13 11 -19 1 -31 -10 -11 -9 -18 4 -30 9 -9 16 -23 16 -31 0 -8
4 -12 10 -9 5 3 9 29 9 58 -1 29 0 76 2 105 2 62 -10 81 -35 53z"/>
<path d="M24307 393 c-13 -12 -7 -23 13 -23 11 0 20 7 20 15 0 15 -21 21 -33
8z"/>
<path d="M24320 315 c0 -8 5 -15 10 -15 6 0 10 7 10 15 0 8 -4 15 -10 15 -5 0
-10 -7 -10 -15z"/>
<path d="M24312 238 c1 -18 -2 -53 -6 -76 -7 -40 -6 -43 10 -40 16 3 18 11 16
45 -2 23 1 50 6 60 12 22 5 43 -14 43 -10 0 -13 -10 -12 -32z"/>
<path d="M24285 10 c-3 -5 1 -10 9 -10 9 0 16 5 16 10 0 6 -4 10 -9 10 -6 0
-13 -4 -16 -10z"/>
</g>
</svg>
