<?xml version="1.0" standalone="no"?>
<!DOCTYPE svg PUBLIC "-//W3C//DTD SVG 20010904//EN"
 "http://www.w3.org/TR/2001/REC-SVG-20010904/DTD/svg10.dtd">
<svg version="1.0" xmlns="http://www.w3.org/2000/svg"
 width="2448.000000pt" height="3264.000000pt" viewBox="0 0 2448.000000 3264.000000"
 preserveAspectRatio="xMidYMid meet">
<metadata>
Created by potrace 1.12, written by Peter Selinger 2001-2015
</metadata>
<g transform="translate(0.000000,3264.000000) scale(0.100000,-0.100000)"
fill="#000000" stroke="none">
<path d="M5624 29330 c-38 -15 -49 -118 -45 -415 11 -655 8 -718 -34 -880 -7
-27 -19 -87 -26 -132 -10 -67 -10 -85 1 -97 7 -9 18 -16 25 -16 30 0 38 27
100 340 21 106 31 310 24 480 -15 343 -6 630 23 683 19 36 -20 57 -68 37z"/>
<path d="M11180 29040 c-42 -44 -138 -239 -179 -360 l-36 -105 -55 -28 c-102
-51 -159 -112 -144 -152 10 -25 43 -17 88 20 24 19 48 35 55 35 20 0 18 -7
-48 -185 -6 -16 -27 -77 -47 -135 -20 -58 -44 -121 -54 -140 -10 -19 -21 -50
-25 -67 -6 -30 -4 -33 17 -33 25 0 57 28 77 66 27 54 108 290 146 426 15 53
35 104 44 112 39 35 331 63 380 36 34 -18 44 -64 37 -163 -9 -126 -38 -246
-76 -321 -34 -67 -36 -99 -6 -104 34 -7 69 21 92 75 30 67 61 196 72 303 16
155 -7 239 -79 288 -33 23 -39 24 -164 18 -71 -3 -149 -9 -172 -12 -38 -5 -43
-4 -43 13 0 25 96 221 149 305 22 34 49 69 60 76 26 15 27 38 2 52 -33 17 -62
11 -91 -20z"/>
<path d="M8402 29001 c-18 -11 -38 -85 -41 -151 -2 -30 -4 -66 -6 -80 -1 -14
-3 -59 -4 -101 l-1 -77 -70 -23 c-82 -26 -159 -67 -174 -91 -14 -23 4 -72 27
-76 10 -2 35 12 57 32 45 41 91 66 119 66 27 0 31 -10 21 -56 -5 -21 -19 -99
-30 -172 -12 -72 -35 -180 -51 -240 -33 -122 -35 -147 -14 -156 17 -6 51 26
58 57 3 12 14 47 26 77 30 78 72 297 78 413 3 54 10 100 15 103 5 3 66 10 135
15 145 10 176 24 127 55 -23 16 -46 18 -141 17 l-113 -3 0 25 c0 27 14 123 38
263 13 81 13 95 1 103 -18 11 -40 11 -57 0z"/>
<path d="M11426 28781 c-21 -24 -14 -57 15 -66 30 -10 147 6 160 21 21 25 2
41 -64 53 -85 15 -91 14 -111 -8z"/>
<path d="M7676 28694 c-132 -46 -288 -136 -369 -213 -46 -43 -87 -119 -87
-159 0 -37 38 -93 75 -111 16 -8 81 -20 145 -27 144 -17 162 -21 229 -51 63
-27 115 -64 136 -97 39 -59 -44 -144 -247 -255 -56 -31 -93 -44 -135 -48 -61
-6 -103 -25 -103 -47 0 -27 41 -51 85 -49 91 3 344 148 429 245 108 124 78
217 -102 311 -88 46 -156 65 -275 76 -113 10 -150 28 -155 78 -3 25 5 37 45
73 137 123 352 219 461 205 47 -6 57 -4 77 15 28 26 23 45 -16 65 -40 21 -113
17 -193 -11z"/>
<path d="M6449 28637 c-67 -59 -127 -172 -208 -392 -60 -163 -64 -170 -85
-162 -18 7 -21 46 -21 332 l0 179 -28 16 c-27 14 -29 14 -48 -9 -19 -23 -20
-34 -14 -140 16 -299 39 -563 51 -594 9 -26 50 -21 73 9 12 15 30 55 41 90 17
58 42 121 75 199 8 17 23 57 36 90 34 92 124 277 151 309 34 41 69 31 95 -26
27 -58 97 -346 119 -487 19 -122 38 -161 79 -161 39 0 50 24 32 69 -9 21 -28
106 -42 188 -25 141 -77 352 -108 438 -30 86 -131 113 -198 52z"/>
<path d="M9849 28613 c-31 -28 -77 -93 -121 -167 -113 -189 -161 -256 -231
-323 -74 -72 -103 -79 -137 -36 -19 25 -20 35 -15 157 4 72 14 163 22 203 15
66 15 73 -1 97 -12 18 -25 26 -46 26 -62 0 -188 -105 -281 -234 -41 -57 -73
-92 -87 -94 -19 -3 -20 0 -15 51 7 69 -17 117 -58 117 -35 0 -39 -14 -27 -81
13 -68 5 -174 -18 -262 -20 -73 -14 -99 23 -105 26 -4 47 21 97 120 63 125
272 378 312 378 14 0 15 -10 7 -77 -4 -43 -8 -127 -8 -188 0 -91 4 -118 22
-157 39 -84 108 -104 186 -53 62 42 135 113 182 180 38 53 185 309 185 322 0
3 23 37 50 77 28 40 50 78 50 84 0 26 -44 9 -91 -35z"/>
<path d="M10232 28595 c-116 -54 -156 -104 -172 -214 -16 -112 19 -234 89
-314 43 -48 78 -61 161 -55 88 7 201 61 316 152 84 66 107 96 76 96 -30 0
-118 -36 -179 -74 -133 -82 -254 -98 -313 -41 -48 46 -63 90 -64 187 0 110 12
129 114 180 111 54 121 67 70 93 -37 19 -35 19 -98 -10z"/>
<path d="M12003 28540 c-97 -20 -146 -70 -198 -205 -53 -139 -68 -208 -63
-300 6 -119 49 -185 121 -185 64 0 198 113 274 230 61 95 77 148 70 248 -7
112 -40 183 -97 206 -44 17 -46 18 -107 6z m99 -130 c28 -54 24 -162 -7 -228
-51 -109 -160 -222 -215 -222 -36 0 -60 28 -60 70 0 64 19 143 40 162 14 13
19 30 18 58 -1 23 6 50 17 67 10 15 21 41 25 58 9 44 62 77 120 73 40 -3 47
-7 62 -38z"/>
<path d="M12831 28430 c-54 -25 -156 -97 -195 -139 -17 -17 -38 -31 -48 -31
-15 0 -17 6 -12 43 5 34 2 45 -14 60 -16 15 -25 16 -40 8 -27 -14 -30 -25 -44
-151 -11 -100 -10 -112 5 -127 22 -22 45 -11 127 63 131 119 260 204 308 204
10 0 27 -9 36 -19 30 -33 68 -150 80 -245 9 -66 16 -92 29 -100 29 -17 57 25
57 83 0 98 -66 294 -116 343 -23 23 -36 28 -78 28 -29 0 -70 -9 -95 -20z"/>
<path d="M21718 27015 c-48 -18 -222 -21 -593 -13 -445 10 -1519 -7 -1970 -31
-992 -52 -1083 -53 -3230 -31 -2553 26 -3269 21 -4360 -31 -952 -45 -1189 -53
-2145 -74 -371 -8 -821 -19 -1000 -25 -179 -5 -671 -12 -1095 -15 -423 -3
-851 -7 -950 -10 -99 -3 -297 -7 -440 -11 -143 -3 -330 -10 -415 -14 -85 -5
-281 -14 -435 -20 -154 -6 -419 -17 -590 -26 -170 -8 -438 -20 -595 -26 -357
-13 -362 -13 -381 -22 -10 -4 -20 -3 -24 3 -9 16 -106 14 -102 -1 1 -8 -9 -13
-23 -14 -14 -1 -37 -6 -51 -12 -15 -6 -66 -13 -115 -17 -113 -8 -97 -7 -249
-3 -134 4 -172 19 -75 28 51 6 49 6 -34 10 -138 7 -531 -22 -596 -45 -26 -9
-36 -18 -38 -38 -3 -23 -8 -26 -65 -32 -137 -14 -224 -43 -232 -78 -2 -12 -7
-116 -9 -232 -3 -115 -9 -235 -15 -265 -5 -30 -15 -91 -21 -135 -7 -44 -23
-136 -36 -205 -46 -242 -40 -204 -79 -505 -18 -137 -44 -293 -73 -445 -79
-401 -89 -491 -97 -855 -3 -137 -8 -326 -10 -420 -10 -314 -8 -588 5 -635 19
-73 51 -128 90 -155 29 -20 63 -29 181 -45 129 -19 191 -21 589 -20 245 1 519
3 610 5 260 6 1434 6 1760 0 162 -2 504 -7 760 -11 256 -3 611 -9 790 -14 179
-5 385 -7 458 -5 171 4 172 3 151 -108 -15 -82 5 -127 57 -127 29 0 42 37 24
71 -16 29 -16 110 0 139 11 21 15 22 118 16 136 -7 609 -14 1442 -21 360 -4
925 -10 1255 -15 330 -6 1046 -10 1590 -11 545 -1 1026 -3 1070 -4 44 -1 969
-5 2055 -8 1086 -4 2121 -9 2300 -12 179 -3 458 -7 620 -10 660 -11 983 -22
1830 -61 363 -16 1064 -64 1910 -129 501 -38 569 -34 606 36 19 38 20 70 9
464 -6 238 -4 327 14 595 36 524 41 598 62 780 11 96 24 211 29 255 5 44 22
177 39 295 16 118 39 283 50 365 12 83 34 212 51 288 34 155 55 301 65 457 6
104 36 418 55 580 12 101 12 444 1 513 -14 86 -24 90 -221 95 l-170 5 -21 28
c-23 32 -36 34 -91 14z m-1188 -141 c47 -3 106 -5 133 -4 72 2 116 2 192 2 39
0 225 1 415 1 455 3 846 -11 862 -30 16 -20 4 -283 -31 -638 -16 -165 -35
-376 -41 -470 -8 -118 -24 -226 -50 -356 -21 -102 -50 -284 -64 -405 -15 -120
-35 -275 -46 -344 -40 -261 -87 -710 -100 -965 -5 -110 -16 -272 -22 -360 -19
-243 -15 -735 6 -859 15 -82 16 -100 4 -108 -21 -15 -425 -2 -778 26 -499 40
-1415 96 -1860 116 -1207 52 -1818 61 -4430 66 -1284 2 -2341 6 -2348 9 -6 2
-546 5 -1200 7 -653 1 -1385 5 -1627 9 -745 11 -1509 19 -1985 20 -250 1 -464
3 -475 5 -26 6 -29 104 -25 984 2 468 8 558 45 755 23 123 73 427 89 550 37
272 83 506 131 665 39 129 60 279 85 600 6 80 20 205 32 278 11 74 21 163 23
199 l2 64 479 4 c263 2 613 9 778 14 166 6 411 13 546 16 799 16 1905 51 1921
61 4 2 170 10 370 19 200 8 387 17 414 20 28 2 129 7 225 10 96 3 310 10 475
15 282 10 1579 14 1593 6 4 -2 394 -7 867 -10 473 -4 901 -9 950 -11 473 -19
1889 -26 2165 -11 74 5 281 12 460 16 179 5 348 11 375 14 28 3 120 9 205 12
85 4 229 10 320 14 174 8 776 4 920 -6z m-13126 -182 c3 -5 -4 -32 -14 -61
-27 -69 -35 -137 -60 -461 -25 -342 -38 -426 -109 -705 -47 -187 -75 -335
-100 -540 -16 -127 -50 -337 -85 -530 -18 -104 -39 -246 -45 -315 -11 -136 -9
-1211 3 -1365 4 -49 3 -96 -2 -103 -7 -10 -81 -10 -373 -1 -674 20 -952 25
-1428 28 -261 1 -478 4 -482 7 -5 3 -455 4 -1001 2 -1457 -4 -1614 -3 -1791
17 -84 10 -164 24 -179 31 -17 9 -33 31 -45 61 -21 57 -23 191 -10 868 9 447
23 665 57 835 45 232 52 270 75 405 13 77 26 167 30 200 15 137 67 477 86 565
50 238 69 369 75 533 4 81 2 160 -4 184 -15 64 -5 71 133 93 66 11 167 31 225
45 102 25 117 26 485 29 209 2 416 9 460 15 206 28 861 73 1250 86 491 15 700
24 850 35 139 10 345 16 1525 40 190 3 373 7 407 8 34 1 64 -2 67 -6z m-3944
-32 c0 -13 -11 -13 -30 0 -12 8 -11 10 8 10 12 0 22 -4 22 -10z"/>
<path d="M15408 24983 c-51 -62 -140 -368 -183 -633 -22 -135 -23 -140 -43
-140 -10 0 -36 26 -61 60 -63 86 -135 136 -235 161 -84 21 -156 -23 -156 -96
0 -87 58 -194 149 -276 109 -98 226 -139 395 -138 115 1 181 15 181 40 0 16
-58 27 -151 28 -42 1 -64 5 -67 15 -5 13 15 117 68 361 30 138 32 146 80 319
20 70 51 159 70 197 40 79 42 94 16 109 -28 15 -46 12 -63 -7z m-480 -643
c100 -45 232 -214 232 -297 0 -31 -2 -33 -32 -33 -45 0 -124 48 -203 122 -73
68 -105 120 -105 171 0 60 33 71 108 37z"/>
<path d="M9783 24815 c-71 -19 -122 -46 -187 -100 -31 -25 -58 -45 -62 -45 -9
0 -94 -60 -136 -95 -78 -65 -128 -161 -128 -242 0 -103 44 -174 137 -220 73
-35 164 -37 269 -5 138 42 337 192 402 302 38 63 37 148 -3 244 -39 95 -94
150 -163 165 -64 13 -64 13 -129 -4z m124 -74 c35 -16 46 -30 73 -86 63 -132
51 -203 -52 -301 -199 -193 -422 -245 -531 -125 -46 51 -55 97 -33 166 26 83
109 175 159 175 11 0 39 18 63 40 47 44 79 50 119 24 19 -12 28 -13 45 -4 31
17 23 61 -13 78 -33 16 -31 19 20 37 53 19 101 18 150 -4z"/>
<path d="M11645 24732 c-104 -49 -158 -132 -201 -302 -16 -67 -18 -220 -3
-292 23 -106 69 -181 130 -213 38 -20 138 -27 179 -12 60 21 38 36 -75 52
-103 14 -165 128 -165 304 l0 87 98 11 c202 23 339 113 349 231 4 42 1 52 -28
86 -67 80 -176 98 -284 48z m205 -77 c17 -16 30 -37 30 -48 0 -31 -94 -113
-156 -137 -65 -24 -175 -42 -188 -30 -17 17 19 97 78 174 61 79 175 99 236 41z"/>
<path d="M10796 24734 c-333 -82 -516 -398 -516 -889 0 -163 15 -300 36 -332
16 -25 51 -30 76 -10 19 14 42 155 43 257 l0 65 -39 3 -39 3 7 107 c9 136 31
259 60 342 50 145 158 285 263 342 97 53 234 72 312 44 107 -39 48 -122 -207
-292 -81 -54 -185 -118 -232 -142 -104 -54 -117 -64 -96 -81 23 -20 89 -4 173
40 40 21 86 47 101 58 15 10 79 52 143 94 243 159 308 262 216 344 -56 50
-199 73 -301 47z"/>
<path d="M16379 24630 c-173 -31 -340 -102 -396 -169 -30 -35 -29 -82 2 -119
47 -56 133 -85 525 -173 185 -41 267 -70 277 -96 7 -18 -31 -58 -83 -89 -62
-37 -204 -82 -344 -110 -149 -29 -230 -51 -230 -63 0 -38 119 -50 261 -26 256
42 453 140 474 234 8 40 -18 94 -61 128 -38 29 -104 48 -419 123 -224 54 -345
97 -345 123 0 17 48 60 93 83 94 49 280 92 440 101 100 6 110 5 137 -15 32
-24 76 -29 83 -9 9 24 -22 65 -63 81 -55 22 -214 20 -351 -4z"/>
<path d="M12815 24624 c-252 -45 -447 -124 -563 -229 -74 -66 -94 -116 -96
-231 -2 -102 2 -110 52 -98 50 12 54 21 47 100 -6 57 -4 79 10 108 42 88 209
190 405 245 123 35 228 56 236 48 4 -3 -22 -40 -57 -83 -155 -186 -227 -298
-259 -403 -27 -87 -26 -114 9 -153 27 -30 35 -33 83 -32 32 0 74 10 106 24
100 44 225 207 293 385 66 173 81 153 154 -209 35 -171 45 -196 83 -196 39 0
44 16 27 87 -8 32 -24 103 -35 158 -30 143 -99 377 -118 398 -8 9 -29 17 -47
17 -34 0 -40 -7 -76 -100 -28 -73 -131 -258 -186 -335 -73 -99 -130 -145 -183
-145 -21 0 -42 5 -45 10 -30 49 151 340 332 532 56 60 66 91 34 108 -26 14
-109 11 -206 -6z"/>
<path d="M14057 24518 c-105 -110 -247 -277 -342 -403 -38 -49 -73 -93 -79
-97 -20 -14 -31 -1 -28 33 6 63 41 223 61 283 25 70 24 61 5 80 -19 19 -44 20
-68 3 -42 -31 -95 -435 -67 -510 12 -31 44 -42 79 -27 15 6 51 41 80 78 28 37
91 117 138 177 140 178 303 365 319 365 19 0 39 -40 58 -120 15 -64 23 -118
52 -375 17 -151 31 -178 88 -183 49 -4 98 21 147 75 34 36 39 47 30 59 -17 20
-21 19 -81 -21 -88 -60 -105 -44 -108 100 -2 102 -37 324 -67 424 -28 90 -72
151 -110 151 -11 0 -58 -41 -107 -92z"/>
<path d="M6006 24925 c-9 -9 -20 -24 -25 -34 -11 -19 -83 -343 -102 -456 -7
-38 -15 -74 -19 -78 -4 -4 -21 0 -39 10 -32 18 -32 18 -56 -9 -41 -48 -58
-194 -34 -296 23 -95 112 -148 243 -144 88 2 162 23 258 75 l77 42 28 -23 c66
-54 201 -92 276 -78 38 7 73 39 62 56 -12 20 -72 40 -117 40 -24 0 -68 11 -98
23 -72 29 -73 50 -4 91 153 93 213 198 170 301 -31 73 -145 87 -229 29 -82
-58 -137 -194 -123 -306 l7 -54 -68 -31 c-118 -54 -163 -66 -250 -67 -116 -1
-120 4 -87 119 74 259 118 426 149 565 9 41 26 96 37 121 11 26 18 62 16 80
-2 28 -7 35 -29 37 -15 2 -34 -4 -43 -13z m541 -542 c7 -9 13 -21 13 -27 0 -6
-36 -46 -80 -89 -60 -59 -85 -78 -102 -75 -20 3 -23 8 -20 42 4 53 38 121 75
152 25 21 38 25 66 20 20 -3 42 -13 48 -23z"/>
<path d="M3977 24760 c-67 -17 -156 -71 -221 -134 -107 -104 -161 -249 -174
-471 -9 -146 2 -400 19 -450 12 -35 18 -40 44 -40 l30 0 3 145 c1 80 3 160 3
179 0 19 -9 47 -20 61 -18 25 -19 36 -11 116 19 202 62 308 166 411 77 77 133
103 217 103 52 0 124 -42 133 -76 9 -36 -48 -92 -278 -271 -103 -80 -189 -152
-192 -159 -8 -20 4 -44 20 -44 28 0 96 41 232 141 148 108 242 192 273 242 26
43 26 131 -1 174 -36 60 -153 95 -243 73z"/>
<path d="M2820 24631 c-53 -11 -68 -22 -110 -84 -39 -58 -86 -189 -93 -262 -9
-87 46 -220 114 -278 100 -86 266 -62 380 55 51 53 125 157 149 210 54 119
-10 262 -147 330 -59 29 -77 33 -162 35 -53 1 -112 -2 -131 -6z m228 -106 c98
-41 169 -121 158 -176 -9 -44 -110 -192 -164 -240 -77 -68 -185 -82 -257 -35
-41 27 -83 94 -91 144 -8 54 6 142 33 198 15 32 24 40 50 42 29 3 32 7 35 40
2 29 8 38 28 44 37 11 165 0 208 -17z"/>
<path d="M4595 24566 c-101 -44 -215 -245 -215 -379 0 -68 24 -113 77 -144 40
-23 51 -25 131 -21 95 4 174 34 260 97 84 62 45 74 -96 28 -140 -46 -184 -52
-228 -31 -73 35 -80 77 -32 192 34 84 84 142 143 167 31 12 35 19 35 49 0 25
-6 38 -19 46 -23 12 -19 12 -56 -4z"/>
<path d="M5119 24422 c-98 -51 -176 -181 -181 -302 -3 -53 0 -62 26 -89 75
-78 174 -60 306 54 74 64 98 101 107 161 10 78 -37 164 -90 164 -10 0 -30 9
-44 20 -34 27 -61 25 -124 -8z m159 -118 c52 -36 11 -113 -102 -186 -64 -41
-107 -48 -144 -22 -27 19 -28 54 -2 112 17 38 23 42 53 42 26 0 39 6 51 26 29
43 102 58 144 28z"/>
<path d="M3000 26660 c0 -13 11 -13 30 0 12 8 11 10 -7 10 -13 0 -23 -4 -23
-10z"/>
<path d="M7332 21758 c-5 -7 -12 -49 -16 -93 -15 -173 55 -352 213 -549 95
-118 313 -230 499 -256 155 -21 469 -50 537 -50 39 0 153 7 255 15 102 8 321
19 487 25 296 10 440 21 733 60 256 33 455 42 864 36 412 -6 544 -14 726 -47
267 -47 421 -124 708 -355 154 -124 265 -240 307 -321 36 -70 72 -113 96 -113
11 0 35 24 58 58 49 71 107 128 236 228 253 197 431 284 730 358 356 89 655
99 1174 41 399 -45 595 -80 1036 -182 154 -35 300 -68 325 -73 357 -66 510
-89 1079 -165 744 -100 1005 -121 1411 -112 411 10 663 38 892 101 286 79 623
247 863 430 63 48 202 185 250 246 90 116 220 351 250 454 30 101 13 182 -44
205 -37 16 -88 -7 -97 -45 -8 -32 -4 -35 51 -41 53 -6 54 -10 21 -95 -70 -188
-211 -410 -338 -535 -161 -159 -421 -322 -693 -435 -360 -150 -703 -202 -1325
-202 -390 1 -412 2 -1135 95 -814 105 -1128 157 -1545 258 -686 166 -1462 248
-1870 197 -326 -41 -611 -129 -834 -256 -108 -62 -361 -254 -437 -332 -37 -37
-73 -68 -80 -68 -8 0 -28 26 -46 58 -47 85 -102 142 -262 271 -250 201 -377
281 -526 331 -268 92 -454 110 -1105 110 -478 0 -518 -2 -901 -50 -163 -20
-323 -33 -520 -40 -156 -6 -381 -18 -499 -26 -248 -16 -355 -17 -457 -4 -40 5
-145 16 -233 25 -204 19 -231 26 -367 91 -130 61 -193 114 -272 229 -67 96
-94 153 -120 248 -24 89 -26 128 -9 209 10 50 10 61 -2 68 -21 14 -56 12 -68
-2z"/>
<path d="M1830 21739 c-23 -42 20 -202 88 -333 50 -95 150 -220 220 -273 79
-60 144 -64 292 -18 108 33 270 65 332 65 107 -1 309 -43 433 -92 51 -20 178
-105 217 -145 46 -48 97 -137 138 -244 52 -136 118 -266 137 -271 32 -8 43 3
73 68 82 181 282 367 505 470 160 74 286 99 454 91 118 -5 159 -14 416 -90
279 -82 390 -101 585 -102 187 0 263 12 388 61 178 70 261 138 410 336 156
206 195 282 167 325 -25 37 -51 29 -74 -21 -10 -24 -57 -97 -103 -161 -45 -64
-93 -132 -105 -151 -41 -60 -137 -151 -190 -177 -290 -147 -595 -144 -1084 12
-256 82 -404 103 -565 81 -229 -32 -480 -154 -660 -323 -60 -55 -162 -189
-177 -229 -9 -25 -34 -22 -51 5 -8 12 -27 56 -42 97 -14 41 -47 116 -72 165
-171 333 -659 511 -1067 389 -171 -51 -202 -56 -260 -44 -58 12 -123 56 -172
118 -85 107 -144 217 -128 242 16 26 -52 170 -81 170 -8 0 -18 -9 -24 -21z"/>
<path d="M3241 19911 c-19 -34 -53 -166 -70 -266 l-17 -100 -40 -5 c-21 -3
-104 -3 -184 0 -121 5 -151 9 -180 26 -28 16 -36 27 -38 55 -4 47 28 119 78
172 46 51 49 64 18 76 -34 12 -54 1 -103 -59 -63 -77 -91 -180 -64 -233 46
-88 109 -110 329 -111 l165 -1 0 -170 c0 -150 2 -175 20 -210 13 -25 27 -40
39 -40 18 0 19 12 22 185 2 102 8 210 14 240 6 30 10 80 10 110 0 39 13 93 44
185 41 119 43 131 29 148 -21 22 -60 22 -72 -2z"/>
<path d="M4781 19828 c-13 -7 -33 -25 -44 -39 -15 -22 -17 -30 -8 -48 13 -24
53 -28 70 -7 6 7 29 16 50 20 22 3 47 13 56 22 15 16 15 18 -2 35 -24 24 -91
33 -122 17z"/>
<path d="M3881 19776 c-6 -7 -8 -21 -5 -30 12 -31 -43 -475 -76 -609 -9 -40
-15 -80 -12 -89 6 -25 32 -30 59 -12 24 15 26 15 58 -20 29 -32 38 -36 81 -36
89 0 215 44 267 93 54 52 25 151 -58 192 -59 29 -175 28 -234 -4 -62 -32 -68
-21 -48 83 10 47 25 155 34 241 l17 155 -24 25 c-27 28 -42 31 -59 11z m284
-590 c56 -24 41 -57 -40 -91 -73 -30 -235 -32 -235 -4 0 19 42 71 74 90 38 23
150 26 201 5z"/>
<path d="M5147 19583 c-4 -3 -7 -34 -7 -68 l0 -62 -50 -7 c-55 -7 -80 -26 -80
-60 0 -37 22 -48 81 -40 l52 7 -7 -124 c-4 -68 -15 -171 -25 -229 -10 -58 -16
-111 -13 -117 6 -18 47 -16 62 1 18 22 50 258 50 373 0 56 4 105 10 108 5 3
63 -2 129 -11 131 -20 193 -14 199 19 5 28 -73 56 -201 73 -146 19 -140 16
-132 63 8 49 -7 81 -39 81 -12 0 -26 -3 -29 -7z"/>
<path d="M4561 19546 c-9 -11 -7 -34 9 -101 34 -141 28 -331 -13 -428 -19 -45
-19 -49 -3 -65 15 -15 19 -15 44 -2 16 9 32 31 39 53 17 51 33 188 32 277 0
88 -28 240 -48 263 -17 21 -45 22 -60 3z"/>
<path d="M14456 19464 c-22 -21 -20 -57 3 -78 15 -14 29 -16 71 -10 97 13 107
58 20 88 -57 20 -75 20 -94 0z"/>
<path d="M5954 19420 c-88 -18 -193 -80 -219 -130 -8 -16 -15 -53 -15 -83 0
-99 58 -150 251 -221 116 -42 244 -109 252 -130 22 -58 -271 -150 -521 -163
-113 -6 -138 -15 -126 -46 10 -28 79 -47 170 -47 194 0 482 92 538 172 30 42
31 84 2 132 -33 56 -95 96 -238 153 -232 91 -280 121 -259 161 18 33 68 69
128 92 52 20 63 21 108 10 113 -27 157 -10 121 45 -30 45 -116 70 -192 55z"/>
<path d="M11735 19373 c-150 -19 -408 -87 -452 -118 -18 -13 -23 -26 -23 -60
0 -40 3 -45 26 -51 22 -6 32 -1 58 29 38 44 96 65 286 103 223 44 373 33 401
-29 17 -37 -8 -79 -114 -198 -245 -274 -277 -319 -277 -397 0 -46 26 -74 89
-97 81 -28 137 -20 391 56 360 109 480 152 480 175 0 41 -86 24 -565 -110
-169 -48 -252 -61 -287 -47 -59 22 -27 77 165 284 85 92 164 186 176 210 25
51 27 107 5 152 -35 75 -197 119 -359 98z"/>
<path d="M13458 19340 c-37 -28 -56 -84 -93 -270 -57 -281 -56 -343 4 -375 43
-22 53 -20 139 30 92 53 166 80 249 90 73 8 171 -9 180 -32 19 -50 -255 -172
-386 -173 -24 0 -68 8 -98 17 -43 13 -56 14 -66 4 -10 -10 -5 -18 22 -42 53
-44 100 -63 172 -67 82 -5 164 15 266 65 152 75 207 161 149 230 -43 51 -105
75 -210 81 -112 6 -172 -10 -291 -74 -45 -24 -87 -44 -95 -44 -16 0 -11 36 36
239 42 183 46 195 84 238 33 38 38 64 14 87 -21 21 -46 20 -76 -4z"/>
<path d="M11072 19278 c-6 -9 -7 -113 -1 -308 6 -240 12 -314 29 -394 26 -124
34 -138 68 -134 33 4 33 13 7 178 -13 84 -18 185 -20 377 -2 192 -6 267 -15
278 -15 18 -54 20 -68 3z"/>
<path d="M15022 19277 c-6 -7 -12 -44 -14 -82 l-3 -70 -65 3 c-55 3 -70 0 -93
-18 -32 -25 -34 -50 -7 -75 14 -12 27 -15 47 -10 15 3 45 9 66 12 46 6 47 1
12 -134 -15 -54 -30 -143 -35 -198 -5 -55 -13 -110 -16 -123 -12 -42 38 -70
66 -37 6 8 16 47 21 87 6 40 17 109 25 153 8 44 19 111 25 149 5 38 12 73 15
78 9 14 56 9 154 -16 126 -32 288 -52 302 -38 6 6 7 15 4 21 -9 13 -140 54
-311 96 l-130 32 1 29 c1 16 5 50 9 76 5 34 4 52 -5 63 -15 18 -54 20 -68 2z"/>
<path d="M14274 19075 c-4 -8 -1 -43 5 -78 16 -93 14 -140 -14 -262 -31 -137
-31 -143 1 -151 37 -9 50 9 74 101 37 144 39 355 3 390 -19 19 -62 19 -69 0z"/>
<path d="M15761 18949 c-70 -9 -188 -42 -236 -66 -45 -23 -83 -62 -90 -94 -17
-76 69 -139 280 -204 228 -70 363 -116 382 -131 17 -13 16 -15 -7 -33 -61 -49
-207 -109 -393 -162 -55 -16 -89 -42 -81 -64 8 -19 38 -28 98 -27 82 1 361
102 428 155 24 19 57 95 51 118 -8 28 -78 88 -131 111 -72 31 -171 64 -357
119 -219 65 -226 70 -149 115 84 49 179 67 374 69 172 2 175 3 187 25 15 31 2
55 -38 69 -36 13 -222 13 -318 0z"/>
<path d="M8620 17055 c-146 -40 -253 -96 -331 -174 -113 -114 -142 -206 -143
-446 -1 -125 3 -172 16 -216 24 -78 47 -104 82 -95 39 10 42 30 15 110 -21 63
-24 88 -23 216 2 272 60 387 238 473 132 64 207 82 332 82 126 0 146 -9 164
-73 24 -88 -65 -150 -452 -318 -188 -82 -208 -98 -171 -135 36 -37 619 -229
693 -229 15 0 34 7 41 16 23 28 -16 47 -263 129 -298 99 -342 115 -331 125 4
4 61 29 126 54 229 89 397 189 433 257 34 67 -10 188 -81 224 -65 32 -224 32
-345 0z"/>
<path d="M9677 17028 c-21 -17 -36 -134 -44 -350 -7 -190 -3 -184 -87 -147
-56 25 -109 20 -172 -16 -100 -58 -133 -192 -60 -240 51 -34 94 -36 206 -9 58
14 119 24 135 23 47 -2 53 0 59 19 3 10 21 26 38 36 18 10 45 30 61 44 50 47
28 69 -53 50 -28 -6 -53 -9 -56 -5 -11 10 20 388 43 546 8 50 -32 77 -70 49z
m-106 -605 c16 -10 28 -22 26 -28 -5 -15 -113 -35 -172 -32 -64 3 -66 24 -5
55 53 26 111 28 151 5z"/>
<path d="M11897 17029 c-101 -16 -184 -75 -242 -173 -69 -118 -87 -238 -89
-621 l-1 -270 32 -3 c50 -5 64 25 53 113 -12 95 -6 454 9 540 24 135 56 210
119 277 71 76 211 91 294 32 56 -39 111 -113 134 -180 18 -53 18 -54 -2 -81
-37 -49 -137 -92 -279 -118 -244 -46 -258 -52 -245 -108 9 -42 43 -107 75
-145 59 -70 247 -174 421 -233 120 -40 168 -48 180 -27 13 20 -50 61 -148 97
-125 45 -211 88 -311 155 -97 65 -140 107 -135 132 2 14 24 21 123 35 189 27
318 79 385 156 29 32 32 42 28 83 -7 66 -68 186 -123 241 -85 85 -172 116
-278 98z"/>
<path d="M16810 16814 c-38 -8 -110 -36 -156 -61 -143 -80 -240 -238 -264
-426 -4 -40 -7 -207 -5 -372 l4 -300 25 -15 c24 -14 27 -13 47 6 12 12 25 39
29 60 5 22 14 66 20 99 16 76 7 235 -15 295 -39 105 -40 112 -18 224 23 117
63 213 113 270 76 86 235 130 335 92 65 -25 133 -112 160 -203 15 -53 -49 -76
-265 -93 -160 -13 -218 -34 -261 -93 -32 -45 -36 -76 -15 -152 17 -67 34 -97
105 -193 94 -127 237 -222 331 -222 88 1 109 55 30 79 -84 25 -135 56 -201
121 -116 115 -189 225 -189 283 0 35 33 46 173 57 150 13 205 24 283 61 87 41
99 57 98 138 0 73 -38 170 -93 239 -61 77 -180 123 -271 106z"/>
<path d="M17542 16773 c-34 -49 -43 -91 -67 -318 -38 -353 -45 -399 -66 -418
-39 -36 -13 -95 76 -171 188 -160 450 -210 678 -131 118 42 167 99 167 197 0
121 -82 239 -207 298 -63 30 -159 51 -197 43 -143 -29 -226 -74 -315 -169 -38
-41 -76 -74 -85 -74 -23 0 -21 30 14 188 16 75 39 196 50 267 11 72 27 160 35
197 19 85 9 118 -34 118 -21 0 -35 -8 -49 -27z m492 -647 c84 -30 111 -48 140
-94 51 -80 39 -159 -28 -187 -46 -20 -222 -20 -313 -1 -81 17 -242 71 -257 86
-15 15 137 165 198 195 68 34 169 34 260 1z"/>
<path d="M12875 16550 c-126 -42 -225 -153 -264 -299 -31 -114 -28 -153 11
-186 26 -22 39 -26 68 -22 100 13 241 122 371 288 91 115 88 116 269 -70 152
-157 213 -205 252 -199 39 5 34 36 -14 76 -23 20 -74 70 -113 111 -153 162
-257 262 -302 288 -63 37 -188 43 -278 13z m206 -66 c6 -4 -121 -145 -211
-234 -62 -62 -138 -110 -173 -110 -29 0 -30 0 -24 45 7 48 42 124 87 190 53
76 185 131 280 117 19 -2 38 -6 41 -8z"/>
<path d="M1883 15798 c-13 -16 -46 -121 -67 -213 -34 -149 -65 -455 -70 -705
-14 -623 -19 -787 -26 -955 -4 -99 -6 -290 -3 -425 2 -135 4 -508 3 -830 -1
-642 -3 -617 60 -654 31 -18 52 -21 170 -21 74 0 196 8 270 17 422 55 677 76
1240 103 280 13 520 27 795 45 534 36 721 45 1560 74 628 23 828 26 1825 28
986 2 2881 -9 3218 -18 181 -6 202 -8 202 -23 0 -23 20 -41 46 -41 35 0 54 11
54 30 0 11 3 21 8 23 6 4 425 -4 1407 -27 143 -4 337 -11 430 -16 94 -6 256
-15 360 -21 848 -47 1296 -88 2340 -214 160 -19 351 -42 425 -51 259 -30 958
-133 1290 -189 276 -47 1032 -134 1555 -180 33 -3 195 -19 360 -35 165 -16
408 -39 540 -50 132 -11 283 -25 335 -30 52 -5 165 -14 250 -20 85 -5 175 -12
200 -15 25 -3 115 -10 200 -15 323 -21 622 -39 805 -50 105 -6 271 -20 370
-32 291 -32 326 -34 354 -11 l24 19 -22 60 c-27 70 -65 213 -92 344 -22 107
-43 328 -59 630 -5 113 -15 284 -20 380 -5 96 -12 315 -14 485 -6 330 -26 680
-51 866 -36 271 -108 872 -141 1178 -7 61 -37 164 -59 197 -29 44 -92 58 -243
51 -154 -7 -223 -18 -473 -76 -98 -23 -250 -49 -349 -61 -96 -11 -218 -27
-270 -36 -63 -11 -176 -17 -335 -19 -132 -2 -357 -7 -500 -11 -143 -4 -291 -7
-330 -6 -38 1 -554 6 -1145 11 -591 5 -1275 14 -1520 20 -978 23 -1322 33
-1353 36 -37 4 -507 24 -552 23 -18 0 -33 6 -40 17 -5 10 -24 34 -41 54 -29
33 -34 34 -58 23 -15 -7 -34 -28 -42 -48 l-15 -37 -162 7 c-89 3 -376 13 -637
21 -261 8 -635 24 -830 35 -195 11 -452 24 -570 30 -329 16 -788 47 -1504 100
-72 6 -172 10 -223 10 l-92 0 -39 39 c-44 45 -78 46 -88 5 -6 -23 -18 -29 -54
-26 -479 34 -997 53 -1508 54 -1051 2 -1887 -12 -3057 -53 -403 -14 -1576 -6
-2250 14 -275 9 -621 18 -768 21 -147 3 -272 8 -278 11 -5 4 -7 15 -4 26 5 14
0 21 -17 28 -13 5 -147 24 -298 41 -151 17 -295 38 -320 46 -69 24 -95 27
-107 12z m139 -112 c35 -8 133 -18 219 -21 152 -7 194 -14 170 -30 -6 -3 -84
-11 -172 -16 -162 -9 -210 -21 -223 -54 -16 -43 45 -79 111 -65 21 4 108 13
193 20 159 12 344 9 1540 -22 571 -16 1949 -15 2325 1 149 6 398 15 555 21
157 5 358 12 446 16 l161 5 6 -28 c3 -15 1 -73 -5 -128 -15 -132 -13 -447 3
-610 9 -93 13 -368 15 -965 1 -699 4 -857 17 -970 9 -74 24 -203 34 -287 18
-163 25 -177 69 -148 31 20 31 17 -10 335 -27 211 -29 281 -31 1085 -1 547 -6
843 -14 935 -7 74 -12 232 -10 350 1 118 2 263 2 321 l0 106 311 7 c1132 23
1725 18 2386 -19 140 -8 288 -15 328 -15 40 0 81 -4 91 -9 10 -6 25 -36 34
-68 139 -483 172 -611 208 -798 74 -393 91 -529 114 -940 27 -467 46 -725 66
-875 26 -202 45 -318 57 -365 26 -98 30 -124 18 -134 -7 -6 -69 -7 -171 -1
-369 20 -3856 31 -4555 15 -135 -3 -387 -12 -560 -20 -173 -8 -400 -17 -505
-20 -247 -8 -544 -22 -720 -34 -173 -13 -786 -47 -1075 -61 -632 -30 -924 -54
-1335 -110 -99 -13 -282 -13 -291 1 -9 15 -12 1926 -3 2069 4 63 8 234 10 380
3 333 13 578 28 700 45 356 57 427 73 448 13 15 13 15 90 -2z m9043 -215 c709
-52 821 -59 1521 -91 126 -6 339 -17 474 -25 223 -13 388 -19 1243 -44 152 -4
297 -5 322 -1 56 8 102 -10 116 -46 39 -103 71 -277 93 -499 16 -155 20 -212
36 -521 11 -210 28 -336 71 -524 17 -74 42 -181 55 -237 12 -57 39 -158 58
-225 53 -186 66 -249 75 -372 8 -105 45 -251 72 -280 5 -6 9 -29 9 -52 0 -105
52 -327 82 -348 17 -12 17 -18 7 -65 -6 -29 -17 -55 -24 -58 -8 -2 -45 0 -83
6 -521 81 -1882 179 -2702 196 -151 3 -338 7 -415 10 -77 2 -309 7 -515 10
-206 4 -385 8 -397 11 -16 3 -23 13 -27 41 -3 21 -17 108 -30 193 -42 259 -73
582 -91 940 -27 534 -53 810 -96 1044 -11 61 -29 158 -39 216 -11 58 -40 186
-66 285 -25 99 -49 198 -54 221 -5 22 -23 80 -40 129 -17 49 -28 96 -25 103 4
10 17 13 48 9 23 -3 168 -15 322 -26z m10790 -77 c8 -4 22 -19 30 -34 28 -55
31 -74 90 -605 8 -71 32 -272 55 -445 22 -173 45 -351 50 -395 18 -144 31
-403 40 -790 10 -446 61 -1343 80 -1402 4 -16 16 -64 25 -108 9 -44 25 -102
35 -130 30 -81 42 -126 37 -132 -3 -2 -63 2 -134 11 -186 23 -330 34 -573 46
-429 20 -1003 58 -1445 95 -254 21 -823 73 -930 85 -49 5 -193 19 -320 30
-280 26 -841 85 -985 105 -281 39 -617 88 -820 120 -571 90 -949 140 -1569
208 l-113 12 -3 40 c-6 66 -12 94 -24 108 -6 8 -8 17 -5 20 4 3 -1 46 -9 94
-9 48 -23 129 -31 180 -9 51 -20 100 -25 110 -20 36 -51 157 -51 197 0 104
-35 302 -87 486 -29 107 -61 227 -69 265 -8 39 -24 106 -34 150 -53 227 -67
322 -80 583 -21 400 -56 740 -91 887 -28 120 -29 118 39 112 415 -32 953 -53
1427 -56 182 -1 434 -7 560 -13 127 -6 610 -12 1075 -13 465 -2 969 -7 1120
-11 151 -4 304 -7 340 -7 36 1 288 3 560 6 436 4 510 7 625 25 72 11 186 26
255 32 137 12 129 11 380 68 96 22 218 45 270 52 52 6 102 13 110 15 29 6 179
5 195 -1z"/>
<path d="M9581 14577 c-8 -10 -4 -20 19 -42 17 -16 35 -47 41 -69 19 -69 -10
-356 -56 -570 -14 -64 -25 -136 -25 -161 0 -40 3 -45 27 -51 20 -6 31 -2 45
16 10 13 16 31 13 41 -3 9 8 84 24 166 54 271 75 491 55 592 -10 49 -55 91
-97 91 -19 0 -40 -6 -46 -13z"/>
<path d="M6471 14501 c-12 -28 -46 -175 -76 -328 -31 -153 -60 -282 -64 -286
-14 -14 -31 2 -31 27 0 33 -24 88 -48 110 -11 10 -38 20 -59 23 -100 13 -156
-59 -157 -201 -1 -65 3 -89 21 -121 88 -165 337 -233 581 -160 l52 16 46 -35
c84 -64 227 -104 267 -74 27 20 11 45 -41 63 -103 36 -177 72 -180 86 -2 9 12
22 35 33 64 29 157 96 185 133 15 20 31 51 34 70 19 99 -156 130 -283 52 -64
-40 -87 -82 -93 -172 l-5 -81 -55 -12 c-89 -21 -236 -18 -316 7 -93 29 -159
92 -169 162 -14 91 20 166 68 151 30 -9 34 -18 47 -99 6 -38 19 -92 28 -120
14 -42 22 -51 44 -53 22 -3 32 3 48 30 11 18 24 47 29 63 42 142 76 277 107
430 20 99 45 201 56 226 11 26 18 60 16 75 -2 24 -8 30 -34 32 -29 3 -33 -1
-53 -47z m469 -646 c0 -30 -146 -145 -184 -145 -26 0 -30 27 -9 67 29 56 75
83 139 83 30 0 54 -2 54 -5z"/>
<path d="M4279 14350 c-162 -21 -325 -133 -383 -263 -58 -133 -80 -265 -78
-472 2 -226 30 -405 73 -459 27 -35 60 -33 104 5 51 45 45 78 -16 92 -14 4
-31 18 -38 33 -21 46 -41 242 -41 398 0 257 35 382 132 479 65 64 125 94 224
109 86 13 174 3 268 -33 60 -22 126 -76 126 -103 0 -31 -80 -104 -158 -144
-186 -97 -350 -123 -446 -69 -62 35 -86 35 -86 2 0 -32 37 -70 93 -95 141 -64
469 40 616 194 56 60 71 107 51 156 -28 67 -146 137 -278 165 -78 16 -78 16
-163 5z"/>
<path d="M8345 14336 c-196 -62 -339 -242 -307 -384 21 -90 79 -143 178 -163
132 -27 320 41 446 160 38 35 71 61 74 58 3 -3 -1 -27 -10 -54 -36 -113 -49
-214 -42 -338 7 -130 26 -249 44 -267 14 -14 69 -15 83 -1 19 19 49 119 49
166 0 53 -15 67 -55 49 -40 -19 -45 0 -34 148 17 239 49 341 129 414 85 76
191 104 292 76 46 -13 98 -63 98 -95 0 -30 -70 -133 -114 -167 -74 -59 -111
-59 -118 0 -2 21 -9 28 -30 30 -52 6 -62 -74 -17 -132 79 -101 358 104 359
263 0 84 -88 164 -199 179 -151 21 -272 -34 -382 -175 -18 -24 -26 -13 -32 42
-10 101 -72 172 -167 194 -61 14 -196 12 -245 -3z m182 -87 c25 -16 43 -19 67
-15 73 14 112 -94 66 -183 -44 -88 -249 -191 -379 -191 -57 0 -127 34 -146 71
-46 88 31 243 152 307 15 9 30 9 48 2 21 -8 36 -6 68 9 55 25 83 25 124 0z"/>
<path d="M3255 14314 c-27 -8 -72 -19 -100 -23 -140 -23 -192 -82 -265 -299
-41 -122 -41 -214 -2 -309 33 -81 105 -164 163 -187 156 -63 327 -2 493 175
117 124 169 256 147 373 -26 140 -115 232 -266 272 -63 17 -107 17 -170 -2z
m205 -100 c91 -41 140 -119 142 -227 1 -86 -15 -135 -65 -204 -100 -135 -217
-212 -336 -221 -120 -8 -184 29 -235 138 -25 56 -30 76 -28 140 0 41 7 98 14
125 11 41 20 53 46 64 24 11 35 24 42 52 12 45 64 93 136 126 106 48 187 50
284 7z"/>
<path d="M4965 14191 c-54 -24 -150 -127 -180 -193 -58 -123 -4 -235 130 -269
53 -13 177 -6 268 16 67 15 72 19 64 38 -8 20 -54 27 -184 27 -126 0 -167 11
-201 55 -30 38 -28 74 7 121 50 69 104 113 161 132 66 23 82 43 56 71 -24 26
-68 27 -121 2z"/>
<path d="M5744 14102 c-81 -28 -162 -82 -214 -142 -94 -109 -114 -188 -61
-241 25 -24 37 -29 80 -29 68 0 142 27 227 83 90 59 137 105 174 170 37 64 37
87 4 126 -43 51 -121 63 -210 33z m127 -82 c10 -6 19 -19 19 -30 0 -52 -212
-200 -298 -207 -26 -2 -54 1 -62 6 -13 9 -13 15 4 45 26 48 103 123 135 131
14 4 40 17 56 29 17 13 37 25 45 29 25 9 80 8 101 -3z"/>
<path d="M13453 14299 c-40 -41 0 -59 166 -75 168 -16 231 -29 273 -58 55 -37
49 -56 -44 -149 -46 -45 -138 -126 -205 -180 -134 -106 -187 -171 -187 -226 0
-66 89 -106 234 -105 161 2 551 71 583 103 8 8 8 14 1 21 -12 12 -200 0 -394
-25 -192 -25 -340 -17 -340 20 0 17 84 93 212 193 131 102 243 218 253 261 15
71 -19 121 -115 165 -100 46 -409 85 -437 55z"/>
<path d="M12902 14044 c-128 -34 -217 -122 -251 -249 -31 -117 -72 -439 -65
-514 5 -55 27 -81 70 -81 43 0 48 11 34 69 -8 36 -9 88 0 207 21 302 68 423
188 480 49 23 65 26 131 22 82 -5 120 -20 176 -69 72 -64 36 -121 -129 -204
-112 -57 -170 -68 -193 -36 -23 34 -57 24 -61 -16 -2 -25 3 -39 23 -59 25 -24
32 -26 88 -22 113 9 315 113 364 187 27 39 30 98 9 140 -18 34 -83 94 -128
117 -45 23 -125 44 -168 43 -19 0 -59 -7 -88 -15z"/>
<path d="M12143 13950 c-23 -5 -55 -16 -72 -24 -16 -9 -45 -16 -64 -16 -94 0
-188 -55 -230 -134 -25 -49 -27 -141 -3 -196 65 -154 349 -188 584 -70 42 21
92 55 111 74 30 31 35 44 39 95 5 72 -14 118 -78 182 -70 70 -191 108 -287 89z
m116 -71 c82 -17 180 -121 181 -191 0 -27 -49 -67 -125 -103 -177 -82 -353
-85 -435 -6 -34 32 -40 44 -40 80 0 53 30 113 71 142 24 16 50 23 105 27 67 4
78 2 113 -21 28 -19 41 -35 43 -54 3 -25 7 -28 43 -28 37 0 40 2 43 29 3 23
-5 37 -47 76 -66 62 -56 72 48 49z"/>
<path d="M18367 14022 c-10 -10 -17 -26 -17 -35 0 -21 90 -97 116 -97 28 0 46
21 34 40 -15 23 -12 30 10 30 21 0 245 -43 315 -61 58 -14 165 -60 165 -70 0
-8 -28 -17 -180 -58 -108 -28 -162 -54 -194 -92 -69 -81 -3 -186 267 -425 31
-28 57 -56 57 -62 0 -12 -37 -25 -125 -44 -55 -11 -285 -14 -510 -6 -56 2 -70
0 -70 -11 0 -22 52 -48 141 -72 150 -41 488 -23 593 30 58 30 66 44 52 92 -10
32 -47 76 -177 206 -90 90 -167 176 -170 189 -12 49 33 74 227 128 151 42 170
49 190 72 24 27 10 56 -46 94 -94 65 -247 117 -443 151 -147 25 -213 25 -235
1z"/>
<path d="M16435 13766 c-161 -31 -272 -72 -305 -111 -7 -9 -16 -33 -19 -53 -6
-32 -10 -37 -31 -34 -14 2 -33 13 -42 25 -47 61 -65 66 -95 29 -19 -23 -16
-37 13 -72 69 -82 173 -98 493 -75 348 24 427 40 476 94 20 23 20 23 -1 59
-28 49 -129 117 -196 132 -82 18 -215 21 -293 6z m335 -102 c25 -12 51 -28 59
-37 11 -15 10 -18 -15 -28 -33 -13 -366 -38 -525 -38 -83 -1 -108 2 -112 13
-11 29 43 60 145 82 137 31 153 33 278 30 101 -2 134 -6 170 -22z"/>
<path d="M17600 13695 c-78 -19 -150 -52 -184 -83 -41 -39 -123 -152 -185
-257 -30 -49 -69 -109 -87 -134 -41 -52 -42 -65 -9 -87 32 -21 70 -12 92 24 9
15 24 36 34 47 9 11 20 31 25 45 21 62 128 240 148 246 11 4 22 2 24 -4 16
-48 64 -121 95 -146 94 -74 300 -24 381 92 31 45 33 90 7 149 -23 49 -77 84
-166 107 -70 19 -101 19 -175 1z m228 -97 c69 -32 68 -88 -2 -136 -49 -34
-130 -62 -177 -62 -46 0 -72 22 -128 107 -36 54 -32 64 38 88 115 38 192 39
269 3z"/>
<path d="M11305 11926 l-24 -24 33 -123 c19 -68 49 -176 69 -239 34 -114 57
-250 77 -470 6 -63 15 -156 22 -206 11 -88 10 -93 -11 -128 -13 -20 -29 -36
-37 -36 -8 0 -31 15 -51 33 -21 19 -75 61 -120 95 -45 34 -103 80 -130 103
-62 54 -98 70 -134 57 -49 -17 -48 -58 2 -84 16 -8 53 -34 83 -59 70 -57 257
-182 291 -195 15 -6 38 -10 52 -10 37 0 93 -22 93 -35 0 -7 -9 -20 -20 -30
-11 -10 -20 -25 -20 -33 0 -48 -156 -174 -388 -314 -34 -20 -62 -44 -62 -52 0
-28 31 -48 66 -43 46 8 262 140 340 209 36 32 71 57 78 55 7 -2 13 -43 17
-108 9 -150 76 -466 115 -542 18 -35 57 -51 86 -36 23 12 22 18 -16 126 -22
63 -42 152 -116 540 -11 56 -20 120 -20 142 0 53 13 53 122 1 46 -23 173 -70
283 -107 166 -54 215 -66 285 -70 66 -4 89 -1 105 11 18 13 19 16 4 31 -8 8
-51 24 -95 35 -172 41 -554 177 -672 239 -37 19 -43 26 -40 49 3 24 21 36 162
107 87 44 162 88 168 98 13 25 -15 67 -45 67 -27 0 -142 -58 -215 -108 -38
-26 -55 -33 -63 -25 -6 6 -15 77 -19 160 -12 204 -35 381 -65 488 -59 213 -76
281 -81 334 -10 84 -28 121 -59 121 -14 0 -37 -11 -50 -24z"/>
<path d="M7676 11819 c-14 -17 -26 -34 -26 -39 0 -16 40 -277 50 -323 5 -26
23 -143 40 -260 17 -116 44 -284 60 -372 16 -88 36 -225 45 -305 14 -125 67
-495 80 -555 3 -11 12 -83 20 -160 13 -118 19 -143 36 -157 25 -22 62 -23 78
-4 9 11 8 28 -3 72 -8 33 -20 104 -26 159 -22 187 -85 595 -105 681 -8 36 -15
74 -15 85 0 30 38 24 79 -14 84 -76 346 -181 437 -175 31 2 51 9 58 21 14 22
-2 49 -35 59 -13 4 -60 17 -104 29 -44 12 -124 39 -178 62 -162 66 -154 68
298 68 215 -1 408 3 429 8 21 5 48 19 60 30 19 20 20 23 5 49 -12 22 -21 27
-50 24 -18 -2 -196 -6 -394 -11 -198 -4 -368 -11 -377 -15 -10 -5 -32 -3 -50
3 -27 10 -34 8 -53 -9 -27 -26 -78 -28 -73 -3 3 16 66 55 193 120 28 14 85 48
128 76 82 53 95 77 59 110 -27 24 -38 22 -106 -26 -33 -24 -90 -59 -126 -78
-36 -19 -94 -62 -130 -97 -81 -79 -92 -75 -103 29 -15 157 -54 434 -87 624
-11 66 -20 159 -21 207 0 64 -4 92 -15 103 -24 23 -50 18 -78 -16z"/>
<path d="M15515 11648 c-43 -23 -44 -32 -5 -150 21 -62 50 -183 65 -268 52
-302 63 -356 80 -415 42 -146 43 -155 10 -155 -27 0 -304 129 -397 186 -54 33
-64 36 -97 28 -29 -7 -37 -14 -39 -36 -4 -35 38 -63 211 -138 69 -30 127 -60
127 -67 0 -7 -9 -17 -20 -23 -16 -9 -51 -5 -148 14 -181 36 -237 44 -412 56
-85 6 -207 17 -270 25 -188 22 -306 28 -329 16 -49 -27 -3 -86 72 -95 71 -8
395 -36 542 -47 77 -5 217 -21 310 -34 220 -30 287 -36 304 -26 9 6 12 21 9
45 -4 32 -2 36 19 36 13 0 52 -12 86 -26 100 -42 121 -71 67 -94 -29 -12 -138
-10 -170 3 -8 4 -22 3 -30 -3 -20 -13 -3 -57 33 -84 25 -18 41 -21 117 -19
l89 2 5 -27 c3 -15 8 -52 11 -82 20 -177 67 -385 102 -454 35 -69 98 -115 133
-96 26 14 25 29 -6 71 -53 70 -74 141 -124 421 -32 177 -36 233 -20 243 25 15
-10 125 -39 125 -14 0 -18 17 -50 206 -85 490 -104 590 -133 709 -29 116 -52
166 -75 165 -5 0 -17 -6 -28 -12z"/>
<path d="M12794 11546 c-106 -109 -168 -199 -190 -275 -47 -157 17 -323 167
-436 119 -89 329 -177 503 -210 101 -19 258 -19 322 0 65 20 91 19 98 -2 3
-10 4 -58 2 -108 -8 -178 33 -404 95 -526 42 -83 170 -153 244 -133 59 15 47
34 -33 54 -60 15 -125 77 -150 143 -45 112 -56 199 -56 436 -1 221 -1 224 22
238 25 17 30 43 8 43 -25 0 -27 16 -16 132 32 347 58 428 162 494 53 34 64 58
38 84 -36 36 -94 19 -175 -52 -50 -44 -84 -104 -109 -189 -21 -71 -44 -358
-34 -424 13 -91 -1 -102 -146 -112 -111 -7 -203 7 -358 52 -237 70 -413 180
-464 290 -33 70 -33 164 1 241 31 69 107 165 179 224 31 25 58 55 62 67 10 35
-12 63 -49 63 -27 0 -45 -13 -123 -94z"/>
<path d="M1781 11571 c-14 -14 -19 -41 -25 -133 -8 -146 -9 -597 0 -704 6 -69
4 -86 -12 -113 -15 -26 -16 -35 -6 -51 19 -32 13 -127 -35 -529 -16 -139 -16
-144 2 -157 29 -22 52 -17 63 14 13 33 51 376 59 532 3 63 11 118 16 122 33
21 167 -73 492 -346 99 -83 163 -119 204 -114 44 5 34 39 -19 64 -25 12 -101
71 -170 131 -221 192 -300 251 -410 306 -94 46 -105 55 -108 81 -4 36 45 89
138 148 36 23 97 62 135 87 85 55 91 59 246 145 192 106 215 129 170 170 -20
19 -40 14 -86 -20 -16 -12 -54 -34 -83 -48 -109 -55 -339 -200 -415 -261 -47
-38 -84 -62 -93 -58 -13 5 -14 46 -7 307 12 443 12 427 -15 437 -17 6 -27 4
-41 -10z"/>
<path d="M9140 11527 c-64 -32 -166 -136 -179 -184 -17 -61 -13 -147 10 -210
32 -88 145 -195 270 -255 118 -58 220 -91 328 -109 46 -7 85 -18 88 -26 3 -6
0 -34 -7 -60 -18 -77 -38 -384 -36 -568 1 -160 2 -172 24 -202 37 -52 118 -66
157 -26 22 21 2 43 -39 43 -18 0 -41 6 -52 14 -18 14 -19 27 -17 178 1 90 9
231 18 313 9 83 20 186 25 229 8 83 22 106 62 106 33 0 125 37 172 69 47 33
106 108 106 135 0 28 -38 18 -92 -24 -59 -45 -141 -87 -188 -96 -26 -6 -30 -4
-30 16 0 33 77 303 111 390 37 95 50 110 129 162 74 49 86 77 46 103 -24 16
-28 16 -78 -7 -101 -47 -177 -151 -226 -310 -31 -98 -52 -210 -52 -271 0 -29
-6 -61 -13 -72 -21 -27 -80 -16 -237 45 -281 109 -379 191 -396 332 -10 89 39
153 159 207 55 25 67 34 67 54 0 51 -55 62 -130 24z"/>
<path d="M4739 11437 c-98 -66 -179 -334 -179 -595 0 -135 1 -135 -193 -135
-224 0 -433 54 -517 136 -62 58 -56 92 43 251 142 229 169 295 133 325 -8 7
-27 11 -43 9 -22 -2 -29 -10 -39 -43 -15 -54 -77 -175 -130 -256 -89 -135
-108 -209 -74 -282 27 -56 70 -94 156 -137 150 -73 391 -115 533 -92 38 7 82
12 97 12 26 0 27 -1 20 -47 -14 -92 -19 -489 -7 -512 13 -23 49 -29 56 -8 2 6
9 122 15 257 7 135 13 257 14 273 2 15 3 40 4 56 2 22 14 38 57 70 52 40 91
92 78 105 -13 12 -46 6 -75 -15 -49 -35 -52 -18 -29 147 37 253 73 356 141
402 77 50 83 68 34 91 -36 16 -57 14 -95 -12z"/>
<path d="M17903 11330 c-33 -20 -53 -48 -53 -74 0 -8 10 -41 21 -72 33 -86
192 -260 372 -404 158 -125 318 -222 474 -285 142 -58 208 -74 323 -81 122 -7
121 -7 110 -41 -11 -33 -111 -293 -133 -343 -8 -19 -18 -61 -22 -92 -5 -48 -4
-58 9 -58 8 0 24 12 36 27 20 26 34 53 123 243 20 41 45 107 56 145 34 112 58
145 117 165 75 26 114 49 114 67 0 16 -19 16 -119 -3 -31 -6 -33 -5 -26 12 4
11 30 87 57 169 70 209 126 350 149 371 14 13 34 17 79 15 90 -3 120 23 90 79
-25 47 -149 54 -231 13 -97 -50 -121 -110 -245 -606 -21 -87 -29 -91 -147 -78
-151 17 -258 52 -397 129 -219 121 -543 393 -638 537 -31 46 -33 54 -27 103
10 81 -24 104 -92 62z"/>
<path d="M16860 10991 c-126 -58 -254 -94 -560 -160 -309 -66 -314 -67 -391
-57 -71 10 -102 -3 -97 -42 2 -21 14 -32 55 -52 37 -17 68 -45 106 -90 93
-113 163 -163 387 -275 172 -87 305 -135 370 -135 92 0 111 48 28 71 -130 37
-485 209 -617 298 -141 96 -124 103 104 46 94 -23 274 -68 400 -98 127 -31
265 -67 308 -82 43 -14 88 -25 101 -25 50 0 62 64 16 87 -83 40 -399 123 -698
182 -101 20 -183 41 -184 46 0 6 22 13 48 18 118 18 278 51 384 79 126 33 365
122 393 146 35 31 9 82 -41 82 -15 0 -65 -18 -112 -39z"/>
<path d="M22215 10943 c-28 -7 -57 -34 -51 -49 3 -7 16 -89 31 -181 37 -246
73 -403 128 -558 115 -322 172 -602 197 -955 l8 -124 36 -33 c40 -37 45 -38
71 -19 26 19 31 108 16 305 -21 276 -60 452 -188 846 -67 209 -89 293 -122
487 -23 130 -26 174 -11 183 18 11 10 56 -15 80 -23 24 -53 29 -100 18z"/>
<path d="M7173 10908 c-29 -14 -30 -52 -1 -72 12 -8 83 -41 159 -72 138 -56
205 -102 183 -124 -12 -12 -488 -21 -1214 -22 -454 -1 -528 1 -623 17 -127 21
-161 14 -155 -33 5 -41 53 -59 193 -72 140 -13 802 -13 1350 -1 341 8 388 11
455 30 107 30 127 34 145 28 22 -9 8 -34 -33 -59 -93 -56 -172 -144 -172 -191
0 -26 37 -57 68 -57 37 0 52 17 52 56 0 32 21 56 130 143 63 50 67 68 33 127
-29 49 -45 62 -281 215 -66 43 -207 99 -245 98 -12 0 -32 -5 -44 -11z"/>
<path d="M2080 10739 c-41 -9 -91 -18 -110 -18 -55 -2 -67 -14 -46 -47 l18
-27 102 8 c144 11 550 5 691 -10 66 -7 185 -23 265 -35 80 -11 194 -22 253
-23 97 -2 110 0 123 17 17 24 17 28 0 51 -12 16 -33 20 -157 27 -79 4 -227 19
-329 33 -102 15 -248 28 -325 31 -381 12 -408 11 -485 -7z"/>
<path d="M10283 10745 c-29 -21 -29 -36 1 -64 32 -30 106 -47 296 -66 85 -9
234 -27 331 -40 212 -29 485 -51 522 -41 64 16 -2 69 -108 85 -99 15 -495 68
-655 86 -74 9 -171 23 -215 32 -125 25 -148 26 -172 8z"/>
<path d="M11787 10735 c-38 -19 -44 -42 -19 -67 23 -23 24 -23 340 -23 229 0
325 -4 345 -13 36 -15 89 -16 105 0 18 18 15 63 -6 81 -36 32 -109 38 -431 35
-183 -2 -323 -7 -334 -13z"/>
<path d="M21302 10360 c-12 -5 -25 -17 -28 -25 -12 -29 26 -53 115 -74 143
-33 600 -212 601 -236 0 -6 -15 -16 -32 -24 -106 -44 -200 -96 -253 -138 -54
-44 -155 -164 -155 -184 0 -15 43 -49 62 -49 29 0 65 28 102 80 39 55 166 143
272 191 123 54 131 58 141 71 14 18 22 54 14 65 -16 23 -225 132 -388 201
-263 113 -388 147 -451 122z"/>
<path d="M20372 10294 c-18 -12 -20 -19 -12 -34 6 -11 23 -26 39 -34 45 -24
216 -64 387 -91 88 -14 222 -36 299 -50 394 -70 477 -81 564 -76 23 1 91 60
91 80 0 24 -38 31 -97 18 -51 -12 -70 -12 -153 4 -235 43 -459 83 -623 110
-98 17 -231 43 -295 59 -133 34 -168 36 -200 14z"/>
<path d="M9600 9450 c-108 -27 -187 -84 -287 -207 -77 -94 -113 -168 -142
-288 -27 -113 -51 -274 -51 -342 0 -28 -7 -87 -15 -130 -8 -43 -15 -83 -15
-90 0 -35 75 -59 98 -30 14 17 22 104 31 316 6 146 10 185 23 197 20 20 34 12
43 -23 3 -16 22 -56 41 -90 50 -89 135 -161 268 -227 120 -60 189 -77 220 -53
31 23 12 43 -61 67 -160 53 -340 189 -372 282 -14 41 -3 43 147 25 219 -27
376 3 446 84 19 22 37 55 40 72 16 90 -64 277 -155 364 -65 62 -178 94 -259
73z m166 -106 c61 -29 127 -134 155 -246 15 -61 -2 -91 -69 -121 -41 -19 -66
-22 -182 -22 -74 0 -181 4 -237 9 -88 8 -106 7 -127 -8 -27 -17 -56 -21 -56
-7 0 72 151 289 254 363 66 48 195 64 262 32z"/>
<path d="M10947 9360 c-19 -15 -27 -33 -32 -68 -7 -59 -31 -151 -55 -217 -26
-72 -110 -415 -110 -450 0 -3 -9 -5 -20 -5 -14 0 -29 19 -56 71 -19 39 -47 82
-62 96 -69 64 -193 97 -280 74 -51 -14 -110 -64 -129 -109 -19 -46 -8 -161 22
-229 20 -43 35 -60 86 -93 87 -56 125 -65 269 -65 137 0 233 22 301 68 48 32
51 57 5 57 -19 0 -47 -5 -62 -10 -44 -17 -50 1 -25 72 12 35 48 146 80 248 32
102 67 211 79 242 34 91 72 234 72 271 0 33 -24 67 -47 67 -6 0 -22 -9 -36
-20z m-455 -617 c63 -24 82 -46 137 -152 75 -149 76 -141 -11 -141 -102 0
-183 15 -244 45 -62 30 -74 56 -74 156 0 90 17 109 95 109 30 0 74 -7 97 -17z"/>
<path d="M2242 8008 c-7 -7 -12 -27 -12 -45 0 -32 -2 -33 -38 -33 -43 0 -62
-14 -62 -46 0 -35 26 -54 76 -54 24 0 44 -3 44 -6 0 -3 -18 -79 -41 -168 -95
-375 -134 -607 -155 -916 -3 -41 -10 -115 -15 -165 -6 -49 -12 -220 -15 -380
-5 -365 6 -456 89 -735 85 -283 180 -396 384 -452 76 -21 91 -22 493 -18 1375
14 2398 0 3675 -50 138 -5 428 -14 645 -20 398 -10 466 -12 905 -30 508 -20
1076 -37 1520 -45 932 -16 1081 -19 1335 -30 503 -21 995 -35 1251 -35 177 0
219 -3 229 -15 8 -9 12 -58 12 -147 0 -73 5 -141 10 -150 14 -29 56 -23 64 8
7 26 -1 194 -11 244 -11 52 -16 52 356 35 322 -14 454 -21 774 -45 72 -5 222
-16 335 -24 113 -9 275 -20 360 -26 85 -6 216 -15 290 -20 234 -17 1060 -57
1640 -80 146 -6 452 -22 680 -35 391 -23 669 -34 1320 -54 151 -5 739 -8 1305
-7 978 3 1045 4 1325 26 479 38 1153 31 1570 -16 74 -8 209 -24 300 -35 91
-10 191 -19 222 -19 72 0 154 19 173 40 19 21 11 66 -45 222 -39 111 -49 162
-85 418 -26 188 -34 310 -40 585 -11 518 -36 911 -70 1100 -36 198 -66 352
-81 408 -17 67 -81 262 -95 288 -5 9 -14 50 -20 90 -14 93 -22 107 -67 126
-39 17 -29 16 -902 28 -217 2 -485 9 -595 15 -110 5 -326 14 -480 20 -375 14
-728 28 -850 35 -206 11 -482 26 -535 30 -30 2 -113 7 -185 10 -71 3 -159 8
-195 10 -36 3 -238 11 -450 20 -374 15 -681 29 -845 40 -170 11 -285 17 -405
20 -114 2 -261 11 -365 21 -55 5 -1674 25 -2185 27 -401 2 -1305 -9 -1520 -18
-156 -7 -623 -25 -715 -29 -48 -2 -95 3 -118 11 -31 10 -43 10 -60 0 -17 -9
-167 -12 -627 -13 -333 -1 -659 -5 -725 -8 -155 -8 -519 -26 -710 -36 -82 -4
-357 -5 -610 -3 -253 3 -635 6 -850 7 -278 2 -396 6 -412 14 -29 16 -64 15
-88 -4 -14 -11 -34 -13 -70 -10 -27 3 -205 8 -395 11 -190 3 -444 7 -565 10
-121 2 -409 7 -640 10 -231 3 -528 10 -660 16 -132 6 -274 12 -315 14 -41 2
-183 8 -315 14 -447 20 -588 22 -1585 27 -948 5 -1005 4 -1199 -16 -254 -25
-280 -25 -288 -2 -9 24 -34 52 -48 52 -6 0 -16 -5 -23 -12z m2888 -128 c190
-6 426 -15 525 -20 379 -20 646 -25 2065 -39 l635 -6 12 -36 c42 -130 56 -630
28 -1024 -9 -119 -18 -417 -21 -685 -2 -261 -9 -533 -13 -605 -10 -143 -5
-161 38 -150 14 4 29 9 33 13 13 14 18 130 28 662 5 300 14 613 20 695 35 538
33 875 -7 1043 -10 45 -13 76 -7 81 5 6 196 5 479 -2 633 -16 1197 -13 1530 7
149 10 374 21 500 26 250 10 1370 14 1385 5 5 -3 9 -96 9 -208 1 -211 2 -250
26 -642 33 -528 42 -637 75 -900 33 -267 42 -387 50 -730 5 -209 14 -409 20
-444 6 -35 7 -68 3 -72 -8 -8 -368 -1 -1003 21 -827 29 -850 29 -1780 45 -416
7 -939 22 -1400 40 -486 18 -642 24 -910 30 -118 3 -336 10 -485 15 -980 35
-1108 39 -1635 52 -250 6 -975 12 -1610 13 -824 2 -1171 6 -1209 14 -32 6 -81
28 -118 52 -95 62 -117 101 -211 374 -72 207 -100 569 -72 936 40 530 77 804
145 1059 44 168 55 220 55 267 0 79 4 83 69 83 31 0 112 8 181 17 216 28 1820
36 2570 13z m11060 5 c555 -6 911 -17 1330 -40 146 -8 346 -19 445 -25 99 -5
349 -17 555 -25 206 -9 517 -25 690 -36 741 -46 865 -53 1475 -79 132 -6 337
-15 455 -20 491 -23 706 -29 1095 -31 226 -1 425 -4 444 -7 38 -5 54 -34 65
-117 3 -28 24 -97 46 -155 49 -128 72 -211 100 -355 11 -60 25 -128 30 -150
39 -170 69 -519 85 -995 10 -285 26 -553 36 -610 6 -30 14 -95 19 -145 19
-204 57 -373 110 -495 45 -104 45 -104 -108 -96 -70 3 -225 17 -346 31 -262
30 -735 55 -1051 55 -126 0 -365 -9 -530 -20 -165 -11 -390 -25 -500 -30 -264
-13 -1608 -13 -2095 0 -694 18 -1081 31 -1234 40 -604 37 -651 40 -1031 55
-957 40 -1622 76 -2105 115 -135 11 -279 22 -320 25 -41 3 -95 8 -120 10 -55
6 -322 23 -480 30 -63 3 -128 8 -145 10 -16 3 -128 6 -248 6 -240 2 -246 3
-249 62 0 18 -2 46 -3 62 -1 17 -5 183 -8 370 -4 187 -9 369 -12 405 -11 112
-35 329 -55 485 -10 83 -24 224 -30 315 -6 91 -12 192 -15 225 -2 33 -7 114
-10 180 -3 66 -8 149 -11 185 -4 36 -12 211 -18 389 -9 262 -9 327 2 337 9 10
52 13 150 13 75 0 291 5 480 12 814 26 1583 30 3112 14z"/>
<path d="M11323 7518 c-4 -7 -8 -159 -9 -338 -2 -367 -12 -758 -20 -810 -4
-19 -15 -65 -26 -102 -11 -37 -17 -72 -13 -78 12 -19 44 -10 65 19 47 67 52
100 61 416 9 348 12 883 3 896 -8 13 -52 11 -61 -3z"/>
<path d="M7476 7221 c-3 -4 -5 -35 -3 -68 2 -63 5 -57 -146 -343 -129 -246
-137 -258 -157 -245 -6 4 -22 31 -35 60 -21 47 -28 55 -65 66 -53 16 -118 -3
-138 -41 -28 -54 8 -190 64 -241 143 -129 378 -168 594 -100 77 24 133 27 150
6 6 -8 47 -28 91 -45 88 -34 206 -42 228 -16 16 19 0 28 -84 50 -73 18 -166
63 -172 82 -2 6 16 18 39 27 50 20 138 96 138 121 0 9 -11 27 -25 40 -69 64
-278 60 -334 -7 -16 -20 -17 -87 -2 -116 26 -47 5 -63 -109 -81 -129 -20 -309
-3 -331 31 -5 8 8 33 37 68 66 83 124 173 187 291 30 58 70 132 89 165 77 136
97 243 55 283 -24 22 -61 29 -71 13z m-377 -671 c17 -59 14 -90 -9 -90 -26 0
-58 36 -72 83 -10 35 -10 41 6 53 28 20 61 -1 75 -46z m746 -34 c19 -14 19
-15 1 -35 -11 -12 -25 -21 -33 -21 -7 0 -13 -7 -13 -15 0 -32 -84 -9 -95 26
-16 48 90 82 140 45z"/>
<path d="M5816 6919 c-136 -103 -212 -179 -269 -266 -60 -92 -77 -135 -77
-198 0 -71 28 -112 105 -150 57 -28 66 -30 180 -30 109 1 129 4 211 33 50 18
95 32 100 32 5 0 18 -15 28 -34 36 -67 148 -99 262 -76 135 28 294 149 334
256 11 30 20 70 20 89 0 52 -34 118 -81 159 -63 54 -102 68 -247 93 -40 6 -62
-10 -62 -47 0 -37 14 -46 85 -54 108 -12 214 -96 215 -170 1 -99 -177 -234
-320 -243 -53 -4 -71 -1 -98 16 -51 32 -52 49 -5 90 22 20 46 46 52 59 16 30
121 80 194 92 64 10 87 23 87 49 0 30 -23 41 -84 41 -134 -1 -277 -81 -334
-187 l-31 -60 -108 -28 c-133 -36 -287 -41 -340 -12 -53 28 -85 68 -78 97 23
96 189 278 345 378 47 30 91 62 98 70 17 22 15 69 -4 76 -44 17 -73 5 -178
-75z"/>
<path d="M9340 6933 c-57 -29 -91 -57 -156 -128 -104 -113 -124 -139 -176
-245 -39 -76 -43 -92 -43 -157 0 -88 17 -116 95 -155 46 -24 65 -28 140 -28
47 0 113 7 145 15 71 18 274 116 363 175 130 87 212 194 212 279 0 38 -2 40
-72 81 -48 28 -107 51 -173 67 -55 14 -101 27 -103 28 -2 2 4 15 13 29 15 23
15 26 2 32 -33 12 -117 -55 -117 -93 0 -30 33 -45 159 -72 93 -21 189 -64 199
-90 7 -18 -26 -78 -65 -118 -73 -73 -255 -173 -397 -220 -145 -47 -292 -30
-318 36 -24 62 32 196 137 329 68 86 117 129 185 161 25 12 56 28 69 34 39 19
50 45 27 63 -29 21 -47 18 -126 -23z"/>
<path d="M3873 6929 c-266 -56 -496 -266 -544 -496 -18 -87 -6 -123 48 -143
22 -8 61 -29 85 -47 101 -72 267 -97 406 -59 80 21 212 79 280 122 81 52 172
150 214 230 105 199 28 351 -201 400 -89 18 -177 17 -288 -7z m318 -99 c56
-16 102 -51 122 -93 17 -33 17 -44 7 -88 -28 -114 -157 -247 -319 -328 -154
-77 -283 -97 -400 -62 -40 12 -80 30 -89 40 -64 70 -62 65 -62 147 0 95 13
121 104 207 91 86 216 152 351 183 66 15 226 12 286 -6z"/>
<path d="M4982 6855 c-135 -30 -273 -128 -342 -244 -70 -117 -122 -272 -146
-431 -15 -100 -40 -506 -32 -522 4 -9 16 -19 27 -23 46 -14 68 19 95 146 23
106 64 258 80 299 56 140 68 173 80 234 15 72 25 86 67 86 82 0 277 91 360
168 65 60 125 167 115 205 -3 13 -23 36 -45 51 -67 47 -143 56 -259 31z m176
-101 c20 -14 21 -17 8 -42 -34 -64 -140 -136 -301 -203 -101 -42 -150 -47
-168 -18 -40 64 134 220 294 263 72 20 139 20 167 0z m-488 -354 c13 -24 9
-40 -47 -210 -54 -160 -66 -180 -78 -121 -3 18 5 66 52 281 6 26 40 70 54 70
5 0 13 -9 19 -20z"/>
<path d="M10358 6741 c-131 -42 -226 -131 -321 -303 -96 -174 -115 -534 -41
-795 25 -89 77 -95 118 -15 38 75 47 117 29 142 -14 20 -17 20 -39 6 -50 -33
-55 -22 -64 164 -15 287 42 494 175 632 111 115 279 147 386 75 75 -51 127
-152 113 -223 -14 -77 -125 -174 -200 -174 -36 0 -81 48 -89 96 -29 161 -34
174 -63 155 -24 -15 -32 -81 -18 -152 23 -122 78 -179 170 -179 65 1 123 27
185 85 101 95 121 197 62 317 -76 154 -238 221 -403 169z"/>
<path d="M14967 7462 c-33 -34 -43 -80 -24 -106 12 -16 22 -18 80 -12 39 5 76
15 88 25 21 17 21 19 5 43 -20 30 -85 78 -107 78 -8 0 -27 -13 -42 -28z"/>
<path d="M14861 6964 c-30 -39 -41 -86 -48 -209 -5 -110 18 -465 36 -555 5
-25 14 -72 20 -104 12 -69 33 -96 73 -96 44 0 56 36 29 88 -31 61 -55 292 -55
537 0 183 2 205 23 262 17 49 20 66 11 83 -16 30 -63 27 -89 -6z"/>
<path d="M15694 6948 c-28 -13 -40 -41 -54 -120 -7 -35 -24 -103 -40 -153 -15
-49 -39 -137 -53 -195 -33 -138 -42 -160 -66 -160 -30 0 -34 15 -38 129 -5
117 -19 154 -56 149 -38 -5 -46 -42 -37 -160 9 -112 25 -159 73 -210 35 -37
79 -37 116 0 30 29 62 118 81 222 26 144 36 175 53 178 22 4 37 -35 37 -97 0
-65 26 -147 53 -166 52 -37 161 -3 223 69 20 22 52 67 71 99 37 60 64 72 82
39 9 -17 48 -221 65 -336 8 -57 58 -106 108 -106 53 0 60 23 19 62 -17 16 -31
32 -31 36 0 35 -33 254 -48 322 -24 106 -33 128 -67 168 -52 62 -82 42 -199
-125 -80 -115 -126 -156 -159 -144 -30 11 -36 43 -42 236 -7 206 -11 231 -36
256 -21 21 -25 22 -55 7z"/>
<path d="M20867 6930 c-31 -25 -69 -89 -91 -155 -20 -62 -46 -207 -46 -257 0
-34 -3 -37 -42 -50 -58 -18 -63 -47 -12 -71 23 -11 34 -23 31 -32 -3 -7 -9
-31 -12 -52 -4 -21 -18 -70 -31 -110 -38 -114 -29 -158 32 -151 29 3 31 7 89
211 17 58 17 59 48 53 18 -3 90 -25 162 -49 l130 -44 21 -60 c28 -84 74 -151
153 -225 125 -119 305 -220 428 -241 107 -19 109 25 5 73 -26 12 -70 37 -99
56 -28 19 -55 34 -59 34 -4 0 -40 25 -80 56 -118 90 -252 249 -229 272 3 3 49
5 103 3 124 -2 206 17 245 59 22 25 27 39 27 83 0 112 -92 189 -227 189 -126
1 -264 -75 -280 -153 -4 -22 -11 -29 -28 -29 -22 0 -251 82 -263 95 -9 8 56
319 77 367 29 68 34 113 16 132 -22 21 -37 20 -68 -4z m583 -543 c25 -12 52
-34 60 -49 13 -25 13 -29 -2 -44 -13 -14 -36 -17 -116 -16 -55 0 -110 5 -121
12 -31 16 -26 47 13 86 28 28 41 34 78 34 23 -1 63 -11 88 -23z"/>
<path d="M19537 6900 c-81 -51 -63 -81 96 -161 72 -36 110 -49 142 -49 80 0
75 17 -44 133 -63 63 -116 107 -128 107 -10 0 -40 -13 -66 -30z"/>
<path d="M19015 6879 c-55 -51 -91 -116 -99 -182 -3 -26 -9 -67 -12 -92 -6
-53 -14 -55 -92 -25 -29 11 -68 20 -87 20 -84 0 -210 -68 -261 -141 -51 -74
-56 -263 -8 -337 9 -13 13 -29 11 -36 -3 -7 -38 -23 -78 -36 -144 -47 -290
-21 -440 75 -53 34 -121 102 -107 106 2 1 53 2 113 4 210 4 316 78 315 219 -1
102 -72 244 -150 300 -55 39 -148 76 -194 76 -51 0 -127 -26 -173 -60 -84 -62
-116 -158 -102 -302 14 -149 55 -240 149 -337 177 -181 471 -239 641 -127 21
14 46 26 55 26 9 0 46 -14 82 -32 76 -38 163 -47 251 -28 71 15 209 80 240
113 40 44 1 63 -61 31 -134 -69 -284 -84 -377 -36 -84 42 -96 65 -96 180 0 82
4 105 24 145 26 54 77 87 134 87 46 0 129 -26 159 -50 24 -18 25 -24 20 -89
-4 -68 -4 -71 26 -100 34 -35 57 -38 90 -15 26 18 29 67 7 128 -13 37 -12 52
15 186 31 156 55 224 96 273 17 21 24 39 22 61 -3 27 -7 31 -35 34 -26 3 -41
-5 -78 -39z m-1013 -188 c112 -48 168 -141 159 -268 0 -12 -12 -35 -26 -51
-27 -32 -46 -38 -179 -53 -45 -5 -99 -12 -122 -15 -41 -6 -41 -6 -57 35 -12
30 -17 72 -17 149 0 92 4 114 24 158 13 29 32 57 43 63 25 16 119 6 175 -18z"/>
<path d="M16681 6767 c-42 -46 -51 -206 -21 -408 6 -41 13 -88 16 -105 2 -17
19 -48 37 -69 54 -63 114 -48 158 37 10 21 19 48 19 61 0 56 52 63 77 10 13
-27 27 -40 50 -47 68 -19 129 33 208 177 37 67 56 93 72 95 31 5 41 -22 55
-140 6 -57 20 -122 29 -145 28 -66 98 -100 150 -73 28 15 23 37 -11 55 -40 21
-47 37 -60 141 -18 150 -40 236 -72 281 -31 46 -44 51 -86 29 -42 -22 -74 -62
-147 -184 -66 -111 -106 -155 -125 -136 -6 6 -11 82 -12 171 -3 143 -5 163
-22 182 -13 14 -29 21 -44 19 -41 -5 -60 -44 -71 -148 -11 -96 -42 -234 -64
-279 -14 -29 -26 -34 -47 -21 -13 8 -15 47 -15 255 0 208 -2 247 -15 255 -23
15 -35 12 -59 -13z"/>
<path d="M19925 6619 c-76 -17 -187 -81 -222 -127 -30 -39 -33 -50 -33 -110 0
-94 20 -129 96 -167 113 -57 262 -34 350 56 38 39 67 49 79 28 4 -6 13 -59 20
-119 7 -66 19 -119 29 -134 22 -34 72 -59 119 -59 67 0 92 53 30 66 -48 10
-62 28 -72 97 -13 93 -14 236 -1 314 9 58 8 72 -5 92 -9 14 -25 24 -38 24 -26
0 -74 -55 -104 -120 -24 -52 -102 -129 -161 -159 -92 -47 -242 -7 -242 65 0
37 25 79 65 110 29 22 51 28 118 34 88 8 164 26 185 42 19 16 14 56 -7 68 -23
12 -150 12 -206 -1z"/>
<path d="M19489 6491 c-31 -31 -31 -32 -30 -126 0 -33 -7 -109 -16 -169 -16
-105 -16 -109 2 -122 23 -17 56 -18 77 -1 19 15 34 80 48 212 6 55 14 124 17
152 7 60 -6 83 -44 83 -14 0 -37 -13 -54 -29z"/>
</g>
</svg>
