<?xml version="1.0" standalone="no"?>
<!DOCTYPE svg PUBLIC "-//W3C//DTD SVG 20010904//EN"
 "http://www.w3.org/TR/2001/REC-SVG-20010904/DTD/svg10.dtd">
<svg version="1.0" xmlns="http://www.w3.org/2000/svg"
 width="3264.000000pt" height="2448.000000pt" viewBox="0 0 3264.000000 2448.000000"
 preserveAspectRatio="xMidYMid meet">
<metadata>
Created by potrace 1.12, written by Peter Selinger 2001-2015
</metadata>
<g transform="translate(0.000000,2448.000000) scale(0.100000,-0.100000)"
fill="#000000" stroke="none">
<path d="M150 24473 c1 -13 40 -56 46 -51 12 13 -9 58 -27 58 -10 0 -19 -3
-19 -7z"/>
<path d="M385 24470 c-3 -5 1 -10 9 -10 9 0 16 5 16 10 0 6 -4 10 -9 10 -6 0
-13 -4 -16 -10z"/>
<path d="M484 24464 c3 -9 6 -19 6 -24 0 -15 41 -18 55 -3 19 19 19 37 0 30
-8 -4 -17 -2 -20 3 -4 6 -15 10 -27 10 -14 0 -18 -5 -14 -16z"/>
<path d="M1130 24460 c6 -11 17 -20 24 -20 7 0 21 9 31 20 18 20 17 20 -24 20
-39 0 -41 -1 -31 -20z"/>
<path d="M1322 24463 c5 -25 28 -28 28 -4 0 12 -6 21 -16 21 -9 0 -14 -7 -12
-17z"/>
<path d="M1430 24471 c0 -14 23 -28 57 -35 37 -8 54 9 18 18 -14 4 -25 11 -25
16 0 6 -11 10 -25 10 -14 0 -25 -4 -25 -9z"/>
<path d="M1630 24466 c0 -19 21 -26 43 -14 27 14 20 28 -13 28 -19 0 -30 -5
-30 -14z"/>
<path d="M1770 24467 c0 -7 5 -18 12 -25 9 -9 16 -8 30 5 26 23 22 33 -12 33
-18 0 -30 -5 -30 -13z"/>
<path d="M2410 24472 c0 -5 7 -17 14 -28 15 -19 16 -18 43 9 l28 27 -43 0
c-23 0 -42 -4 -42 -8z"/>
<path d="M2580 24466 c0 -18 26 -39 40 -31 5 3 15 15 20 26 10 17 7 19 -25 19
-23 0 -35 -5 -35 -14z"/>
<path d="M2742 24463 c2 -10 10 -18 18 -18 8 0 16 8 18 18 2 12 -3 17 -18 17
-15 0 -20 -5 -18 -17z"/>
<path d="M2842 24463 c2 -10 10 -18 18 -18 8 0 16 8 18 18 2 12 -3 17 -18 17
-15 0 -20 -5 -18 -17z"/>
<path d="M2980 24466 c0 -24 15 -26 28 -5 11 16 9 19 -8 19 -11 0 -20 -6 -20
-14z"/>
<path d="M3090 24471 c0 -10 20 -28 35 -31 6 -2 16 -5 23 -7 6 -3 20 -2 30 3
14 6 12 8 -11 12 -16 2 -31 10 -34 18 -6 15 -43 20 -43 5z"/>
<path d="M3206 24464 c-4 -9 -4 -19 -1 -23 8 -7 38 12 43 27 6 19 -35 14 -42
-4z"/>
<path d="M3310 24471 c0 -21 61 -53 86 -47 30 8 27 30 -4 34 -12 2 -22 8 -22
13 0 5 -13 9 -30 9 -16 0 -30 -4 -30 -9z"/>
<path d="M3560 24465 c0 -21 34 -37 48 -23 21 21 13 38 -18 38 -20 0 -30 -5
-30 -15z"/>
<path d="M3700 24462 c0 -20 18 -42 35 -42 10 0 35 40 35 55 0 3 -16 5 -35 5
-27 0 -35 -4 -35 -18z"/>
<path d="M4290 24462 c0 -21 18 -42 37 -42 7 0 19 14 28 30 l16 30 -41 0 c-32
0 -40 -4 -40 -18z"/>
<path d="M4500 24472 c0 -5 6 -16 13 -27 16 -21 32 -15 40 15 4 17 0 20 -24
20 -16 0 -29 -4 -29 -8z"/>
<path d="M4620 24466 c0 -7 11 -21 25 -30 49 -32 99 -9 54 25 -29 22 -79 25
-79 5z"/>
<path d="M4812 24468 c6 -18 28 -21 28 -4 0 9 -7 16 -16 16 -9 0 -14 -5 -12
-12z"/>
<path d="M4905 24425 c-7 -60 0 -95 19 -95 19 0 36 22 36 46 0 38 11 54 37 54
26 0 83 29 83 42 0 14 -47 8 -60 -7 -7 -8 -19 -15 -27 -15 -7 0 -16 7 -19 15
-4 8 -18 15 -34 15 -26 0 -28 -3 -35 -55z"/>
<path d="M7 24454 c-13 -13 -7 -24 14 -24 11 0 19 5 17 12 -5 14 -22 21 -31
12z"/>
<path d="M22999 23886 c-46 -16 -69 -34 -198 -154 -184 -170 -199 -187 -206
-217 -3 -17 -15 -48 -25 -70 -11 -22 -20 -46 -20 -52 0 -17 87 -103 104 -103
7 0 21 9 30 19 10 10 38 24 64 31 64 16 82 29 146 107 30 38 94 109 141 158
48 50 94 106 102 125 18 41 19 102 2 141 -10 26 -16 29 -58 29 -25 -1 -62 -7
-82 -14z m69 -46 c15 -14 22 -33 22 -56 0 -37 -8 -47 -142 -188 -36 -39 -89
-99 -117 -133 -29 -35 -63 -66 -77 -69 -14 -4 -26 -5 -28 -3 -1 2 -17 23 -34
45 -18 23 -32 50 -32 60 1 23 32 61 80 96 19 14 91 80 160 147 69 66 130 121
136 121 5 0 20 -9 32 -20z"/>
<path d="M21188 23856 c-72 -25 -106 -47 -155 -98 -101 -105 -100 -291 1 -387
42 -40 44 -55 15 -117 -18 -37 -20 -50 -11 -70 10 -20 19 -24 55 -24 29 0 53
7 70 20 14 11 29 20 34 20 5 0 27 13 49 29 33 24 51 29 124 34 63 4 98 12 137
31 29 14 56 26 61 26 17 0 89 81 115 129 37 69 39 187 5 253 -32 61 -100 117
-192 160 -59 27 -220 24 -308 -6z m304 -70 c103 -48 143 -105 142 -206 0 -71
-9 -93 -61 -157 -44 -53 -116 -82 -232 -93 -68 -7 -88 -13 -110 -33 -42 -40
-67 -49 -81 -31 -10 11 -10 20 -1 40 13 29 9 38 -43 89 -48 46 -66 96 -65 173
1 88 33 144 110 190 72 43 98 50 201 51 73 1 96 -3 140 -23z"/>
<path d="M21223 23623 c-39 -5 -44 -20 -8 -20 36 0 42 -11 17 -29 -31 -22 -19
-33 31 -29 23 2 43 4 44 4 2 1 -5 10 -14 21 -10 11 -18 28 -18 37 0 19 -8 21
-52 16z"/>
<path d="M21320 23617 c0 -5 9 -11 20 -14 14 -4 20 -14 20 -34 0 -42 35 -38
77 7 18 20 33 39 33 43 0 4 -34 6 -75 6 -41 0 -75 -4 -75 -8z"/>
<path d="M21320 23574 c0 -8 5 -12 10 -9 6 3 10 10 10 16 0 5 -4 9 -10 9 -5 0
-10 -7 -10 -16z"/>
<path d="M16610 23836 c-25 -7 -56 -19 -69 -26 -49 -26 -124 -106 -154 -165
-27 -53 -31 -71 -33 -155 -2 -67 1 -99 10 -110 7 -8 16 -27 20 -42 3 -16 11
-28 16 -28 6 0 10 -5 10 -11 0 -17 47 -69 91 -101 21 -15 73 -39 114 -53 64
-20 83 -23 123 -15 105 21 167 51 222 108 44 45 55 64 96 160 18 42 18 156 0
190 -22 44 -56 119 -56 125 0 27 -130 112 -193 127 -56 13 -142 11 -197 -4z
m216 -74 c13 -8 91 -82 111 -106 25 -29 53 -117 53 -164 0 -97 -59 -203 -147
-264 -42 -28 -52 -31 -127 -31 -61 1 -91 6 -118 20 -105 57 -168 158 -168 271
0 73 14 124 45 161 14 16 25 33 25 38 0 13 102 77 135 85 34 7 173 0 191 -10z"/>
<path d="M16679 23669 c-20 -20 -21 -28 -15 -113 5 -70 3 -96 -7 -110 -13 -18
-15 -18 -45 4 -17 13 -38 20 -46 17 -33 -13 -15 -45 57 -104 68 -56 74 -59
102 -49 46 17 147 116 143 140 -5 32 -35 31 -67 -3 -16 -17 -39 -31 -52 -31
-22 0 -22 0 -15 116 8 147 -6 182 -55 133z"/>
<path d="M10351 23828 c-29 -10 -44 -59 -34 -114 13 -75 7 -87 -60 -108 -24
-8 -37 -47 -28 -87 4 -19 4 -65 1 -104 -8 -79 -4 -88 51 -115 36 -19 37 -21
41 -85 2 -36 10 -71 16 -77 9 -9 76 -13 248 -14 273 -2 269 -3 261 80 -6 67 5
93 43 101 49 11 57 35 52 169 l-4 118 -48 21 -49 21 2 87 c1 59 -2 92 -10 100
-14 14 -448 20 -482 7z m404 -61 c23 -9 45 -74 45 -131 0 -44 4 -57 26 -77 40
-37 48 -67 27 -98 -10 -14 -16 -30 -15 -35 2 -5 -4 -23 -12 -40 -8 -17 -20
-65 -27 -107 -15 -102 -17 -103 -194 -101 -38 0 -92 0 -120 0 -27 0 -56 0 -62
1 -24 2 -45 52 -54 127 -10 88 -28 144 -46 144 -11 0 -11 5 -2 21 6 12 12 33
14 47 1 14 9 30 16 36 10 8 15 38 16 95 4 127 2 126 207 125 91 -1 172 -4 181
-7z"/>
<path d="M10598 23574 c-3 -3 -26 -6 -51 -8 -26 -1 -55 -11 -69 -22 l-26 -20
23 -21 c46 -40 187 -52 216 -17 9 11 15 11 25 3 18 -15 36 -2 29 21 -4 12 1
22 12 29 17 9 17 10 0 17 -11 4 -25 0 -36 -10 -22 -20 -31 -20 -31 -1 0 8 -9
15 -19 15 -11 0 -23 5 -26 10 -7 11 -38 14 -47 4z"/>
<path d="M15555 23833 c-58 -12 -115 -41 -153 -77 -51 -48 -102 -120 -102
-144 0 -9 -7 -37 -16 -62 -16 -46 -12 -154 7 -166 5 -3 9 -16 9 -29 0 -36 68
-128 120 -164 59 -40 148 -71 204 -71 57 0 148 24 189 49 38 23 94 80 112 113
55 97 59 112 60 203 0 78 -4 97 -28 145 -56 112 -114 166 -208 194 -49 15
-147 19 -194 9z m143 -63 c25 0 58 -14 82 -36 8 -7 31 -27 51 -43 48 -40 79
-122 79 -207 0 -84 -33 -159 -99 -223 -41 -40 -61 -52 -105 -61 -112 -23 -199
3 -268 80 -79 88 -106 197 -72 296 43 127 158 212 269 199 22 -3 50 -5 63 -5z"/>
<path d="M15595 23648 c-11 -6 -44 -35 -74 -63 -48 -46 -52 -54 -42 -74 15
-28 24 -27 54 9 53 63 76 32 69 -90 -5 -92 1 -140 19 -140 5 0 22 12 36 26 24
24 25 29 19 96 -4 38 -10 76 -12 82 -3 7 3 23 13 35 l18 22 27 -26 c36 -33 58
-33 58 2 0 32 -64 97 -117 119 -38 17 -42 17 -68 2z"/>
<path d="M13323 23781 c-67 -33 -99 -65 -129 -123 -20 -40 -24 -62 -24 -138 0
-67 4 -98 18 -123 79 -148 218 -204 351 -142 64 30 81 27 129 -28 87 -97 92
-101 121 -91 20 7 27 17 29 42 3 34 6 30 -92 122 -29 27 -37 40 -33 60 5 26
23 79 40 116 13 30 -11 161 -37 199 -87 125 -246 170 -373 106z m212 -60 c75
-34 115 -102 116 -196 2 -129 -57 -205 -172 -223 -49 -7 -62 -6 -108 16 -31
15 -67 43 -89 70 -36 45 -37 46 -36 131 0 68 5 93 20 118 22 35 64 72 103 90
40 18 121 15 166 -6z"/>
<path d="M17752 23770 c1 -29 18 -44 18 -16 0 8 3 21 6 30 4 10 1 16 -9 16
-11 0 -15 -9 -15 -30z"/>
<path d="M18806 23793 c-13 -13 -6 -63 9 -63 10 0 15 10 15 29 0 30 -12 46
-24 34z"/>
<path d="M9098 23775 c-57 -21 -95 -54 -117 -101 -19 -39 -52 -70 -106 -100
-30 -17 -58 -72 -66 -128 -5 -42 -2 -58 19 -98 46 -88 144 -136 185 -90 29 32
16 52 -35 52 -12 0 -38 18 -60 40 -33 35 -38 47 -38 87 0 29 8 58 21 79 18 29
26 34 60 34 29 0 41 5 45 18 19 56 52 115 79 134 37 28 95 29 145 3 44 -22 99
-83 100 -110 1 -31 24 -55 53 -55 34 0 84 -43 92 -80 5 -21 0 -43 -17 -76 -19
-39 -32 -50 -77 -71 -67 -29 -67 -29 -51 -48 25 -30 109 -15 155 27 25 24 55
94 59 141 6 59 -72 167 -120 167 -18 0 -29 11 -48 48 -30 59 -76 109 -113 123
-43 17 -124 19 -165 4z"/>
<path d="M11819 23772 c-138 -4 -133 4 -131 -225 1 -100 2 -208 2 -239 0 -33
6 -71 14 -87 l15 -28 336 -1 c297 0 338 2 356 16 19 16 20 28 21 275 1 226 -1
260 -15 274 -14 14 -49 17 -259 17 -134 1 -286 0 -339 -2z m529 -66 c7 -8 13
-129 12 -269 0 -89 -4 -121 -15 -135 -50 -58 -57 -63 -76 -57 -24 8 -314 6
-382 -1 -37 -5 -52 -2 -68 11 -10 10 -19 23 -19 29 0 6 -9 17 -20 24 -18 11
-20 23 -20 156 0 80 4 147 9 150 5 3 9 22 9 42 0 20 6 40 13 45 7 4 116 7 242
7 126 0 232 3 235 7 7 7 71 0 80 -9z"/>
<path d="M12182 23533 c-16 -16 -43 -39 -60 -53 -17 -14 -31 -30 -32 -36 0 -7
20 -17 44 -23 24 -6 49 -17 56 -26 13 -16 40 -20 40 -6 0 5 -7 15 -16 22 -39
32 -34 75 13 112 24 19 23 37 -2 37 -8 0 -27 -12 -43 -27z"/>
<path d="M11900 23541 c0 -4 8 -19 19 -32 31 -40 34 -66 12 -88 -22 -22 -27
-41 -11 -41 6 0 10 6 10 14 0 8 14 17 33 21 58 12 67 16 67 34 0 20 -29 50
-80 80 -38 23 -50 26 -50 12z"/>
<path d="M11875 23370 c-3 -5 1 -10 9 -10 9 0 16 5 16 10 0 6 -4 10 -9 10 -6
0 -13 -4 -16 -10z"/>
<path d="M18272 23693 c-40 -5 -75 -49 -51 -64 8 -5 22 -9 31 -9 34 0 48 -12
48 -41 0 -28 -54 -119 -71 -119 -9 0 -49 -72 -49 -88 0 -19 61 -34 116 -30 92
8 112 57 29 72 -19 4 -35 12 -35 18 0 6 16 30 35 54 19 23 35 47 35 54 0 6 7
22 16 36 15 21 15 28 3 50 -15 29 -59 75 -68 72 -3 0 -21 -3 -39 -5z"/>
<path d="M19498 23677 c-7 -8 -27 -45 -43 -83 -15 -38 -34 -76 -42 -85 -33
-39 -5 -73 53 -63 21 4 25 0 31 -26 8 -43 40 -37 66 13 18 34 18 39 3 61 -10
16 -16 53 -18 107 -2 68 -6 84 -19 87 -9 2 -23 -3 -31 -11z m2 -144 c0 -35
-16 -51 -33 -34 -7 7 -7 22 2 52 14 48 31 38 31 -18z"/>
<path d="M19143 23668 c-10 -16 -31 -72 -44 -118 -6 -19 -24 -70 -41 -113 -24
-61 -28 -81 -19 -90 10 -9 18 -6 36 17 13 16 25 41 28 55 8 38 42 129 71 188
14 29 26 57 26 63 0 14 -47 12 -57 -2z"/>
<path d="M18811 23623 c0 -25 1 -26 9 -8 12 27 12 35 0 35 -5 0 -10 -12 -9
-27z"/>
<path d="M2485 23553 c4 -32 11 -78 17 -103 5 -25 9 -61 8 -80 0 -19 0 -47 0
-62 0 -15 -4 -29 -10 -33 -5 -3 -10 -17 -10 -31 0 -17 5 -24 19 -24 11 0 22 4
26 9 8 15 14 303 6 342 -5 28 -12 35 -35 37 l-28 3 7 -58z"/>
<path d="M3760 23565 c-7 -9 -12 -71 -13 -174 -2 -149 -1 -161 18 -176 13 -9
31 -13 50 -10 42 8 51 20 32 48 -23 35 -31 240 -11 279 8 15 19 28 24 28 6 0
10 4 10 8 0 15 -98 12 -110 -3z"/>
<path d="M3917 23573 c-3 -5 16 -33 43 -63 51 -56 62 -90 50 -147 -11 -45 -56
-103 -92 -115 -35 -12 -32 -32 6 -36 28 -4 96 39 123 78 8 11 19 62 23 113 l9
92 -41 38 c-40 37 -109 60 -121 40z"/>
<path d="M1572 23548 c10 -10 18 -21 19 -25 6 -55 6 -221 -1 -237 -6 -16 -3
-29 9 -45 15 -20 21 -22 38 -12 18 9 21 18 18 68 -2 32 -4 106 -4 164 l-1 107
-48 -1 c-47 -1 -48 -1 -30 -19z"/>
<path d="M6222 23558 c-7 -7 -12 -17 -12 -24 0 -6 -7 -17 -15 -24 -13 -11 -13
-16 0 -47 9 -22 15 -69 15 -123 0 -82 2 -89 25 -104 59 -38 134 0 81 42 -21
16 -25 29 -27 83 -2 37 2 78 10 96 11 27 10 36 -5 64 -25 49 -48 61 -72 37z"/>
<path d="M18806 23545 c-9 -24 -7 -55 3 -55 15 0 23 38 13 56 -8 15 -10 15
-16 -1z"/>
<path d="M9119 23479 c-54 -56 -57 -74 -15 -74 42 0 47 -19 40 -145 -7 -128 2
-170 36 -170 32 0 40 38 32 157 -10 143 -8 155 32 151 29 -3 31 -1 29 27 -2
20 -13 39 -35 58 -65 54 -65 54 -119 -4z"/>
<path d="M5393 23488 c-28 -14 -29 -28 -3 -35 21 -6 31 -48 33 -153 2 -70 21
-96 51 -71 12 10 15 33 15 99 -1 94 -16 144 -47 161 -24 13 -21 13 -49 -1z"/>
<path d="M5675 23491 c-76 -13 -115 -56 -121 -132 -2 -36 2 -58 16 -82 29 -49
57 -59 123 -48 16 2 6 22 -15 30 -49 19 -61 45 -53 115 7 70 21 89 57 84 18
-2 25 -12 32 -46 10 -41 11 -42 40 -36 36 8 48 22 40 49 -6 21 -59 76 -72 74
-4 -1 -25 -4 -47 -8z"/>
<path d="M5889 23488 c-10 -4 -19 -15 -20 -25 -5 -100 -6 -201 -2 -215 2 -11
14 -18 28 -18 29 0 33 12 37 118 3 63 7 76 31 99 22 22 31 26 45 17 30 -19 42
-57 42 -142 0 -92 11 -107 54 -79 19 13 23 23 21 49 -2 18 -4 57 -4 85 -1 44
-6 58 -30 85 -28 32 -32 33 -106 33 -42 0 -85 -3 -96 -7z"/>
<path d="M4550 23480 c-16 -3 -39 -26 -62 -60 -33 -50 -36 -59 -28 -99 4 -24
17 -55 27 -70 37 -49 162 -54 171 -7 3 16 -1 17 -36 11 -35 -6 -42 -3 -66 25
-14 17 -29 41 -32 54 -14 59 48 118 116 109 35 -5 38 -4 33 15 -8 31 -54 39
-123 22z"/>
<path d="M4735 23470 c-15 -17 -17 -30 -10 -102 11 -126 45 -173 109 -148 l29
11 -21 22 c-31 33 -42 71 -42 146 0 88 -25 115 -65 71z"/>
<path d="M4929 23474 c-10 -12 -13 -40 -11 -93 3 -70 1 -80 -23 -106 -30 -36
-31 -41 -6 -55 27 -14 54 -13 76 4 16 12 19 29 21 122 1 60 -2 117 -7 127 -12
21 -32 22 -50 1z"/>
<path d="M5100 23483 c-24 -10 -25 -15 -25 -140 0 -115 1 -118 22 -121 34 -5
48 34 36 97 -9 44 -7 55 11 87 12 20 29 42 39 48 38 23 78 -78 63 -159 -10
-53 0 -75 34 -75 37 0 45 26 37 111 -5 58 9 109 34 124 22 14 6 25 -33 24 -24
-1 -79 1 -123 4 -44 3 -87 3 -95 0z"/>
<path d="M4210 23469 c0 -4 -16 -17 -35 -29 -23 -14 -35 -29 -35 -44 0 -12 -5
-27 -11 -33 -17 -17 19 -110 51 -133 17 -12 45 -18 87 -18 83 -1 114 23 132
103 11 49 11 61 -5 93 -27 58 -50 71 -121 69 -35 -1 -63 -5 -63 -8z m106 -53
c26 -26 34 -42 34 -70 0 -44 -22 -81 -59 -99 -25 -12 -30 -12 -53 8 -53 46
-64 114 -26 165 29 40 61 39 104 -4z"/>
<path d="M56 23438 c4 -18 8 -42 9 -53 4 -34 5 -35 18 -35 18 0 15 68 -3 98
-21 32 -33 27 -24 -10z"/>
<path d="M530 23461 c0 -4 9 -20 20 -34 11 -14 20 -32 20 -40 0 -21 19 -32 32
-19 13 13 -7 70 -30 90 -18 14 -42 16 -42 3z"/>
<path d="M1980 23461 c0 -16 59 -73 70 -66 16 10 12 30 -13 53 -23 22 -57 30
-57 13z"/>
<path d="M2190 23450 c0 -5 4 -10 9 -10 6 0 13 5 16 10 3 6 -1 10 -9 10 -9 0
-16 -4 -16 -10z"/>
<path d="M2330 23438 c0 -13 12 -36 26 -52 21 -23 28 -26 35 -15 16 25 10 45
-21 67 -37 27 -40 27 -40 0z"/>
<path d="M2780 23451 c0 -8 52 -23 59 -16 1 2 0 8 -4 14 -8 13 -55 15 -55 2z"/>
<path d="M1827 23423 c-22 -43 -28 -79 -21 -123 5 -31 13 -44 35 -55 15 -8 35
-15 44 -15 20 0 19 29 -2 53 -14 15 -18 36 -17 93 0 81 -14 97 -39 47z"/>
<path d="M242 23423 c2 -10 10 -18 18 -18 22 0 18 29 -3 33 -14 3 -18 -1 -15
-15z"/>
<path d="M2168 23402 c-14 -3 -17 -13 -14 -69 3 -56 7 -69 27 -84 23 -18 49
-25 49 -14 0 3 -8 18 -17 32 -10 15 -20 52 -23 83 -4 45 -8 55 -22 52z"/>
<path d="M2670 23394 c-9 -10 -10 -18 -2 -26 12 -12 32 -2 32 17 0 21 -16 26
-30 9z"/>
<path d="M8020 23380 c0 -13 5 -20 13 -17 6 2 12 10 12 17 0 7 -6 15 -12 18
-8 2 -13 -5 -13 -18z"/>
<path d="M240 23360 c0 -11 4 -20 9 -20 11 0 22 26 14 34 -12 12 -23 5 -23
-14z"/>
<path d="M2037 23373 c-10 -9 5 -33 19 -33 18 0 18 26 0 33 -8 3 -16 3 -19 0z"/>
<path d="M66 23323 c-11 -12 -6 -79 8 -99 18 -24 22 -20 29 38 6 40 4 49 -12
57 -10 6 -21 7 -25 4z"/>
<path d="M2363 23302 c-25 -34 -37 -69 -25 -76 13 -8 62 49 62 73 0 31 -15 33
-37 3z"/>
<path d="M256 23289 c-19 -37 -7 -61 19 -39 17 14 19 38 6 59 -6 10 -13 5 -25
-20z"/>
<path d="M2783 23293 c-19 -58 12 -86 43 -38 19 29 10 65 -16 65 -11 0 -22
-11 -27 -27z"/>
<path d="M22455 23304 c-8 -9 -22 -28 -30 -44 -12 -23 -12 -30 -1 -45 11 -15
23 -17 76 -12 35 3 69 12 78 20 13 14 12 19 -7 44 -41 51 -87 66 -116 37z"/>
<path d="M391 23297 c-12 -15 -5 -27 16 -27 7 0 13 9 13 20 0 23 -13 26 -29 7z"/>
<path d="M8030 23269 c0 -11 5 -17 10 -14 6 3 10 13 10 21 0 8 -4 14 -10 14
-5 0 -10 -9 -10 -21z"/>
<path d="M5728 23269 c-31 -18 -22 -41 15 -37 24 2 32 8 32 23 0 23 -22 29
-47 14z"/>
<path d="M17740 23265 c0 -8 5 -15 10 -15 6 0 10 7 10 15 0 8 -4 15 -10 15 -5
0 -10 -7 -10 -15z"/>
<path d="M2670 23230 c0 -5 5 -10 10 -10 6 0 10 5 10 10 0 6 -4 10 -10 10 -5
0 -10 -4 -10 -10z"/>
<path d="M5836 22753 c-3 -3 -1189 -13 -1666 -14 -247 -1 -443 -5 -452 -10
-13 -7 -18 -22 -18 -50 0 -42 11 -52 52 -50 61 3 730 10 1513 17 479 3 917 7
975 8 l105 1 3 29 c2 15 1 39 -2 52 l-6 24 -251 -2 c-138 -2 -251 -4 -253 -5z"/>
<path d="M21210 21954 c-8 -1 -32 -5 -53 -9 -42 -7 -100 -52 -123 -96 -7 -15
-14 -53 -14 -83 0 -49 4 -60 33 -89 40 -42 76 -61 147 -77 132 -30 151 -40
170 -82 23 -51 13 -85 -38 -129 -33 -29 -39 -31 -93 -26 -72 6 -102 28 -124
90 -19 52 -32 62 -69 53 -21 -5 -24 -12 -28 -73 -8 -127 11 -165 66 -130 20
13 28 13 77 -1 117 -35 216 -7 273 77 49 72 45 155 -10 221 -29 33 -108 66
-186 76 -64 8 -100 27 -122 65 -35 60 23 139 101 139 59 0 97 -25 123 -81 32
-67 44 -76 75 -55 24 16 25 21 25 111 0 106 -3 110 -76 83 -25 -9 -39 -9 -56
-1 -26 13 -75 21 -98 17z"/>
<path d="M21570 21751 c-17 -5 -26 -15 -28 -34 -3 -21 2 -28 23 -33 38 -9 47
-43 44 -169 -3 -161 23 -207 122 -221 25 -3 63 -1 89 7 48 13 79 13 95 -2 15
-15 71 -10 95 9 24 20 19 48 -11 57 -36 12 -41 39 -34 196 8 184 2 199 -73
199 -50 0 -92 -21 -92 -46 0 -8 15 -22 34 -30 l33 -16 7 -104 c7 -113 -4 -163
-42 -183 -28 -15 -109 -14 -119 2 -4 6 -8 85 -8 173 0 145 -2 164 -19 183 -20
22 -64 26 -116 12z"/>
<path d="M22077 21742 c-17 -19 -17 -21 8 -50 24 -29 25 -35 25 -160 0 -114
-2 -132 -20 -155 -40 -50 -17 -87 52 -87 39 0 78 24 78 48 0 10 -9 26 -21 35
-19 17 -20 27 -17 137 3 102 6 123 24 147 25 33 55 40 75 17 23 -28 20 -226
-4 -292 -19 -50 -19 -53 -2 -72 21 -23 73 -27 97 -7 26 20 28 44 7 71 -19 24
-20 38 -17 145 2 98 6 123 21 139 32 35 56 34 78 -1 28 -47 28 -221 -1 -278
-16 -30 -18 -44 -10 -59 14 -27 54 -35 100 -21 51 15 59 42 26 82 -25 29 -26
36 -26 154 0 68 -5 136 -11 152 -27 73 -84 91 -160 52 -39 -19 -42 -20 -60 -3
-18 16 -47 20 -109 15 -14 -1 -45 1 -70 5 -37 5 -48 3 -63 -14z"/>
<path d="M5549 19674 c-10 -13 -9 -20 6 -46 20 -35 36 -254 32 -466 -2 -130 0
-125 -54 -158 -35 -22 1 -38 91 -40 65 -2 88 1 97 13 10 12 7 18 -17 38 l-29
23 -3 174 c-9 429 -10 448 -22 463 -17 20 -84 19 -101 -1z"/>
<path d="M7115 19674 c-25 -25 3 -84 40 -84 20 0 55 31 55 49 0 43 -64 66 -95
35z"/>
<path d="M7724 19676 c-14 -11 -16 -19 -9 -29 6 -8 18 -25 27 -38 18 -25 25
-141 30 -448 l1 -124 -31 -26 c-18 -14 -32 -31 -32 -37 0 -12 162 -26 188 -16
20 7 14 29 -15 50 -32 23 -29 -12 -32 435 -1 193 -2 208 -21 227 -24 24 -77
26 -106 6z"/>
<path d="M8014 19676 c-19 -15 -19 -15 4 -59 22 -41 23 -58 29 -300 6 -263 3
-307 -21 -307 -20 0 -36 -24 -27 -39 13 -20 174 -26 190 -7 9 11 6 19 -21 40
l-33 25 -3 313 c-3 270 -5 315 -19 330 -19 22 -72 23 -99 4z"/>
<path d="M2982 19668 c-22 -28 -18 -64 9 -78 43 -24 92 43 57 78 -16 16 -53
15 -66 0z"/>
<path d="M9542 19657 c-40 -43 -16 -107 40 -107 51 0 78 85 36 114 -31 22 -51
20 -76 -7z"/>
<path d="M1322 19662 c-55 -2 -74 -7 -79 -18 -7 -18 13 -34 43 -34 11 0 28 -8
37 -18 15 -16 17 -51 17 -283 0 -145 -4 -278 -8 -294 -7 -26 -13 -30 -46 -31
-38 -1 -62 -15 -53 -31 8 -13 280 -3 289 11 10 14 -12 26 -38 20 -37 -9 -47
19 -52 140 -3 73 0 126 8 149 9 31 9 40 -4 59 -23 32 -23 234 0 266 14 21 21
22 116 19 l101 -4 34 -36 c30 -34 33 -42 33 -100 0 -52 -5 -71 -27 -105 -24
-37 -32 -42 -65 -42 -53 0 -95 -17 -79 -33 16 -16 99 -12 150 9 51 20 117 93
125 139 15 76 -34 164 -102 186 -20 6 -43 16 -51 22 -13 11 -191 15 -349 9z"/>
<path d="M6988 19656 c-26 -19 -40 -64 -39 -129 0 -56 -1 -59 -35 -79 -42 -25
-42 -32 -4 -48 16 -7 31 -20 34 -29 3 -9 5 -86 5 -171 0 -128 -2 -157 -16
-172 -9 -10 -22 -18 -28 -18 -18 0 -26 -27 -12 -38 7 -5 45 -10 85 -11 40 0
77 -3 82 -6 14 -8 50 13 50 30 0 7 -14 16 -31 20 -18 4 -34 16 -39 29 -4 12
-10 94 -11 183 -4 174 0 189 49 195 16 2 28 10 30 21 3 13 -3 17 -27 17 -53 0
-63 22 -59 123 3 93 -3 107 -34 83z"/>
<path d="M18111 19657 c-6 -8 -14 -28 -17 -44 -5 -24 -1 -35 17 -52 30 -28 54
-27 84 4 28 28 32 66 9 89 -19 20 -77 21 -93 3z"/>
<path d="M12055 19655 c-5 -2 -22 -6 -37 -9 -33 -7 -35 -22 -9 -50 10 -12 23
-36 30 -55 12 -38 15 -144 4 -155 -5 -4 -8 -89 -8 -189 0 -100 -4 -192 -9
-204 -17 -46 68 -90 128 -67 21 8 20 25 -4 71 -18 36 -20 60 -20 336 -1 292
-2 297 -23 312 -21 15 -32 17 -52 10z"/>
<path d="M12892 19648 c-27 -13 -38 -51 -26 -87 7 -20 17 -27 43 -29 43 -4 71
21 71 64 0 27 -6 36 -30 49 -16 8 -30 15 -32 14 -2 0 -13 -5 -26 -11z"/>
<path d="M13560 19640 c-41 -41 -14 -110 42 -110 55 0 81 83 36 114 -30 21
-54 20 -78 -4z"/>
<path d="M121 19641 c-21 -13 -6 -27 43 -40 29 -7 50 -20 62 -38 32 -48 54
-104 54 -137 0 -43 -34 -137 -54 -148 -9 -5 -16 -15 -16 -22 0 -7 -9 -21 -20
-31 -11 -10 -20 -23 -20 -28 0 -6 -7 -19 -17 -29 -9 -10 -14 -21 -10 -24 6 -6
128 88 164 127 31 35 63 114 63 160 0 43 -29 109 -64 147 -46 52 -148 86 -185
63z"/>
<path d="M2839 19631 c-21 -17 -25 -30 -29 -103 -5 -77 -7 -83 -27 -86 -30 -4
-29 -17 3 -55 26 -31 27 -34 20 -127 -3 -52 -6 -128 -6 -168 0 -72 0 -73 -30
-83 -19 -7 -30 -18 -30 -30 0 -17 8 -19 99 -19 75 0 101 4 111 15 10 12 10 16
-1 20 -8 2 -26 9 -41 14 l-27 10 -3 138 c-2 76 -1 158 1 182 3 40 6 44 47 63
54 24 56 38 5 38 -65 0 -71 26 -45 173 8 43 -8 50 -47 18z"/>
<path d="M12556 19637 c-17 -12 -16 -15 13 -44 31 -31 31 -33 31 -132 0 -55
-4 -102 -9 -106 -6 -3 -6 -17 1 -37 7 -20 9 -90 6 -198 -3 -95 -2 -174 4 -183
12 -22 110 -24 127 -3 11 13 5 46 -8 46 -25 0 -31 65 -31 348 0 219 -3 301
-12 310 -16 16 -100 15 -122 -1z"/>
<path d="M17777 19563 c-4 -3 -7 -13 -7 -21 0 -28 -60 -110 -85 -116 -34 -9
-31 -28 5 -49 34 -20 32 -7 30 -220 -1 -115 1 -132 20 -163 24 -38 66 -64 103
-64 35 0 89 40 110 80 21 42 19 105 -3 105 -11 0 -16 -15 -20 -58 -6 -64 -18
-79 -64 -75 -44 4 -54 45 -55 225 -1 111 2 154 12 160 6 4 37 10 67 13 47 4
55 8 55 25 0 18 -8 20 -62 23 -69 3 -67 1 -78 90 -7 49 -13 60 -28 45z"/>
<path d="M5206 19518 c-14 -24 -37 -51 -51 -58 -31 -17 -32 -43 -2 -62 21 -15
22 -23 27 -193 l5 -177 33 -29 c36 -32 100 -40 121 -15 9 11 6 16 -18 24 -48
17 -55 42 -59 215 -5 184 -2 192 65 184 32 -3 46 0 58 13 15 17 15 19 -2 28
-10 5 -37 10 -59 9 -53 0 -64 8 -64 42 0 15 -6 36 -14 46 -12 17 -15 15 -40
-27z"/>
<path d="M13227 19543 c-2 -4 -10 -25 -16 -45 -7 -20 -30 -53 -52 -72 -44 -41
-48 -52 -19 -61 34 -11 39 -38 39 -193 0 -166 7 -193 60 -231 45 -32 131 -25
131 11 0 4 -11 8 -24 8 -13 0 -34 9 -47 19 -22 18 -24 27 -29 163 -3 78 -4
160 -2 181 l3 37 58 0 c36 0 63 5 70 13 17 22 -7 37 -60 37 -57 0 -69 13 -78
81 -5 48 -22 73 -34 52z"/>
<path d="M0 19430 c0 -59 1 -61 23 -54 55 17 49 74 -10 108 -10 5 -13 -8 -13
-54z"/>
<path d="M3583 19443 c-19 -7 -16 -31 7 -60 18 -23 20 -41 20 -180 0 -160 -7
-193 -40 -193 -24 0 -35 -17 -21 -34 8 -10 35 -12 104 -9 106 4 117 7 117 28
0 9 -9 15 -24 15 -51 0 -57 20 -56 179 2 219 2 219 -20 241 -19 19 -59 25 -87
13z"/>
<path d="M3791 19441 c-16 -10 -10 -73 10 -97 25 -31 79 -1 79 44 0 21 -24 52
-40 52 -5 0 -14 2 -22 5 -7 3 -19 1 -27 -4z"/>
<path d="M3993 19443 c-18 -6 -16 -28 4 -66 13 -26 16 -60 14 -192 -2 -167 -4
-175 -48 -175 -25 0 -26 -1 -17 -24 5 -13 23 -16 93 -16 54 0 92 5 99 12 17
17 15 25 -8 31 -32 8 -38 43 -34 215 4 161 -1 195 -30 214 -12 9 -54 9 -73 1z"/>
<path d="M4240 19444 c0 -5 10 -25 23 -44 21 -33 22 -46 22 -205 l0 -170 -27
-13 c-62 -29 -16 -51 92 -43 61 5 75 9 78 23 2 12 -5 21 -21 27 -21 8 -25 17
-28 68 -2 32 -2 103 1 158 3 55 1 110 -4 122 -15 38 -136 106 -136 77z"/>
<path d="M4526 19441 c-4 -5 6 -33 21 -63 25 -49 27 -64 30 -195 l3 -142 -33
-22 c-17 -12 -34 -24 -36 -26 -2 -1 1 -8 7 -15 16 -20 179 -15 200 5 9 9 14
18 11 19 -2 2 -17 10 -34 18 l-30 16 -5 164 c-3 105 -10 173 -17 187 -27 45
-101 80 -117 54z"/>
<path d="M5824 19436 c-3 -8 5 -29 17 -46 21 -28 24 -45 29 -168 7 -177 5
-189 -32 -208 -17 -9 -28 -22 -26 -31 2 -13 20 -17 90 -19 74 -2 89 0 103 16
16 18 15 19 -13 34 -16 8 -32 23 -36 31 -3 9 -6 85 -6 168 0 161 -6 184 -56
222 -25 19 -63 19 -70 1z"/>
<path d="M8817 19443 c-67 -5 -83 -23 -45 -52 31 -25 76 -145 146 -390 4 -13
15 -29 25 -35 15 -9 23 -6 44 18 20 24 24 37 20 67 -3 21 -15 52 -26 68 -21
29 -45 91 -78 199 -15 49 -15 53 3 73 14 15 16 24 8 37 -13 19 -17 20 -97 15z"/>
<path d="M9062 19443 c-61 -5 -79 -25 -43 -52 13 -10 28 -40 37 -76 9 -33 24
-71 33 -85 10 -14 28 -59 40 -100 51 -175 66 -194 108 -146 33 39 31 85 -6
120 -39 38 -111 249 -93 274 7 10 15 23 18 30 7 15 -14 43 -30 40 -6 -1 -35
-3 -64 -5z"/>
<path d="M9280 19432 l-24 -19 28 -34 c28 -33 29 -41 10 -106 -5 -17 -2 -23 9
-23 9 0 17 13 21 34 4 21 24 50 52 80 52 52 53 76 2 76 -18 0 -42 3 -54 6 -12
3 -30 -2 -44 -14z"/>
<path d="M2398 19433 c-16 -2 -28 -6 -28 -9 0 -3 10 -24 21 -47 20 -37 21 -56
20 -196 -1 -88 -6 -161 -12 -168 -6 -6 -20 -13 -32 -15 -12 -2 -22 -10 -22
-18 0 -12 19 -15 105 -18 58 -1 111 2 119 7 18 12 5 31 -22 31 -50 1 -52 7
-53 197 -1 98 -2 184 -3 191 -2 17 -39 52 -53 51 -7 -1 -25 -4 -40 -6z"/>
<path d="M2602 19428 c-19 -9 -22 -17 -17 -37 9 -37 33 -71 50 -71 7 0 23 14
35 31 22 29 22 31 4 52 -34 40 -38 41 -72 25z"/>
<path d="M3190 19431 c0 -10 34 -16 73 -13 27 3 72 -32 99 -76 20 -32 23 -49
23 -137 -1 -148 -32 -196 -133 -203 -57 -4 -58 -4 -84 34 -57 82 -63 232 -14
319 26 47 22 59 -17 50 -27 -7 -53 -39 -82 -100 -29 -61 -26 -178 6 -235 33
-59 61 -77 149 -96 74 -15 75 -15 125 10 132 65 180 195 120 324 -28 60 -79
112 -112 112 -12 0 -24 3 -27 8 -7 12 -126 15 -126 3z"/>
<path d="M6310 19431 c0 -6 15 -32 33 -58 25 -37 32 -59 33 -98 1 -27 2 -56 3
-62 1 -8 15 -13 36 -13 28 0 38 5 47 26 24 53 -28 166 -92 199 -33 17 -60 20
-60 6z"/>
<path d="M7440 19434 c0 -3 16 -25 35 -48 50 -61 65 -105 65 -189 0 -53 -5
-83 -20 -111 -35 -69 -53 -82 -120 -84 l-59 -2 -31 45 c-27 39 -32 58 -39 138
-7 79 -5 99 12 146 10 29 28 60 38 69 27 23 23 35 -8 27 -116 -29 -181 -211
-119 -333 45 -89 106 -124 217 -123 94 0 151 36 196 125 46 90 29 209 -39 283
-30 33 -128 76 -128 57z"/>
<path d="M9538 19429 c-10 -5 -18 -17 -18 -26 0 -9 8 -25 18 -36 14 -16 17
-42 19 -161 3 -183 1 -199 -37 -213 -17 -6 -30 -18 -30 -27 0 -19 -7 -18 107
-20 105 -2 117 6 77 54 -25 29 -26 32 -28 219 -1 140 -5 193 -15 205 -15 18
-67 21 -93 5z"/>
<path d="M9830 19433 c-48 -9 -54 -23 -23 -55 l28 -29 3 -165 3 -164 -32 -29
c-17 -16 -28 -34 -25 -40 5 -7 44 -11 102 -11 77 0 96 3 101 16 4 10 -4 24
-23 39 l-29 23 0 185 c0 182 -1 186 -24 211 -24 26 -32 28 -81 19z"/>
<path d="M18884 19426 c-19 -14 -18 -15 6 -41 24 -26 25 -31 28 -201 l3 -174
-36 -21 c-28 -17 -33 -24 -24 -35 14 -17 170 -20 200 -4 29 16 23 37 -12 44
l-31 6 3 193 c3 170 1 197 -14 221 -14 21 -25 26 -60 26 -24 0 -52 -6 -63 -14z"/>
<path d="M19133 19433 c-13 -2 -23 -9 -23 -15 0 -5 6 -8 13 -5 16 6 45 -15 69
-50 15 -24 18 -50 18 -186 l0 -158 -35 -20 c-36 -22 -43 -33 -25 -44 14 -9
185 -10 198 -1 20 12 13 34 -15 48 l-28 13 -5 178 -5 179 -37 34 c-38 34 -62
39 -125 27z"/>
<path d="M6150 19404 c-54 -46 -73 -97 -74 -199 0 -78 3 -96 25 -135 48 -86
189 -131 250 -80 27 22 22 24 -51 21 -34 -2 -53 3 -73 19 -35 28 -69 93 -68
134 1 119 8 163 34 207 15 25 27 49 27 52 0 16 -41 5 -70 -19z"/>
<path d="M10088 19423 c-16 -2 -28 -7 -28 -9 0 -3 14 -22 30 -43 30 -37 31
-41 37 -173 7 -163 1 -205 -30 -210 -14 -2 -23 -11 -25 -25 -3 -22 -1 -23 93
-23 78 0 97 3 102 16 4 10 -4 24 -21 37 -24 19 -27 29 -27 82 0 33 -3 109 -6
170 l-6 110 -37 37 c-21 21 -42 37 -46 37 -5 -1 -21 -4 -36 -6z"/>
<path d="M10730 19415 c-29 -35 21 -85 58 -59 27 19 28 36 4 57 -23 21 -46 22
-62 2z"/>
<path d="M18108 19423 c-23 -6 -23 -31 2 -68 18 -27 20 -47 20 -193 l0 -163
-36 -15 c-24 -10 -34 -20 -32 -32 3 -14 16 -17 88 -17 47 -1 93 3 103 7 21 11
23 38 2 38 -8 0 -22 11 -30 24 -13 19 -15 56 -14 212 1 104 1 195 0 202 -1 12
-65 15 -103 5z"/>
<path d="M18449 19404 c-28 -16 -58 -44 -79 -77 -33 -49 -35 -56 -35 -142 0
-72 4 -97 20 -125 32 -57 47 -72 100 -96 104 -49 212 -23 285 68 45 57 55 94
48 182 -8 94 -40 146 -122 194 -55 32 -155 31 -217 -4z m182 -36 c40 -39 59
-93 59 -172 0 -80 -17 -140 -51 -176 -26 -26 -36 -30 -85 -30 -47 0 -58 4 -79
28 -53 60 -59 245 -10 328 26 45 38 51 96 53 28 1 44 -6 70 -31z"/>
<path d="M2140 19398 c38 -41 63 -106 57 -149 -4 -34 -2 -42 18 -55 20 -13 27
-13 45 -2 11 7 23 22 26 33 6 23 -19 106 -42 142 -15 24 -73 53 -106 53 -18 0
-18 -1 2 -22z"/>
<path d="M8530 19413 c0 -5 14 -21 30 -37 63 -62 85 -205 46 -297 -32 -76
-102 -107 -166 -74 -74 38 -112 238 -62 333 27 52 28 72 3 72 -26 0 -78 -53
-97 -99 -26 -62 -30 -155 -8 -204 42 -96 82 -128 185 -147 39 -8 58 -6 92 7
114 45 157 100 165 213 3 54 0 74 -21 120 -28 61 -58 93 -100 109 -33 13 -67
14 -67 4z"/>
<path d="M14357 19413 c-34 -5 -45 -28 -24 -51 25 -29 30 -61 30 -221 1 -138
-1 -156 -17 -165 -10 -6 -25 -17 -34 -23 -31 -23 7 -33 108 -31 77 3 95 6 95
18 0 8 -10 19 -22 25 -31 13 -35 43 -31 240 2 145 0 177 -12 188 -18 17 -55
25 -93 20z"/>
<path d="M15761 19411 c-33 -9 -36 -23 -11 -51 19 -22 20 -36 20 -302 l0 -279
-30 -10 c-19 -7 -30 -18 -30 -30 0 -18 7 -19 108 -17 87 2 107 6 107 18 0 8
-12 21 -27 28 -23 11 -28 20 -30 55 -1 23 -1 53 0 67 1 14 2 113 2 221 -1 120
3 207 10 225 10 26 9 31 -19 56 -31 28 -54 32 -100 19z"/>
<path d="M15952 19410 c-32 -14 -20 -26 32 -34 50 -8 76 -31 105 -96 27 -59
28 -159 2 -215 -19 -43 -82 -105 -106 -105 -30 0 -14 -19 20 -26 76 -14 175
81 197 190 13 59 3 124 -30 194 -31 69 -154 120 -220 92z"/>
<path d="M16480 19411 c-73 -8 -112 -31 -142 -83 -30 -51 -53 -163 -43 -210 9
-44 45 -120 64 -136 54 -43 147 -67 202 -51 59 16 128 92 115 126 -6 14 -15 8
-54 -30 -41 -40 -56 -48 -98 -53 -58 -7 -79 7 -113 73 -23 45 -29 129 -10 135
8 3 8 10 -2 26 -11 18 -11 29 6 78 28 83 44 99 96 97 49 -2 66 -17 86 -70 25
-66 26 -83 9 -102 -16 -18 -16 -20 6 -35 54 -38 105 -4 94 64 -10 65 -45 125
-89 154 -23 14 -48 25 -57 24 -8 -1 -40 -4 -70 -7z"/>
<path d="M16793 19413 c-30 -6 -29 -24 2 -53 25 -23 25 -26 25 -179 0 -86 -3
-166 -6 -178 -3 -12 -19 -26 -36 -32 -20 -7 -28 -16 -26 -28 3 -16 16 -18 108
-18 58 0 113 3 123 8 25 11 21 37 -5 38 -13 1 -30 2 -38 3 -8 0 -20 16 -26 34
-11 34 -10 247 1 282 3 10 -1 44 -10 74 -16 55 -17 56 -53 55 -20 -1 -47 -4
-59 -6z"/>
<path d="M16996 19407 c-14 -10 -16 -18 -8 -33 5 -10 15 -31 21 -46 18 -47 91
-31 91 20 0 60 -58 93 -104 59z"/>
<path d="M17325 19413 c-59 -7 -74 -13 -104 -44 -24 -24 -31 -39 -31 -70 0
-32 5 -41 25 -51 35 -16 75 12 75 52 0 16 -4 32 -10 35 -5 3 -10 17 -10 31 0
22 3 24 53 24 58 0 71 -9 101 -68 11 -21 16 -54 15 -95 -1 -34 2 -83 6 -109 5
-32 3 -58 -5 -78 -12 -30 -11 -33 26 -71 28 -29 46 -39 69 -39 53 0 76 42 30
54 -14 4 -25 12 -26 19 0 6 -2 78 -3 159 -4 167 -14 196 -84 236 -38 21 -60
24 -127 15z"/>
<path d="M10407 19380 c-51 -60 -55 -119 -15 -232 11 -34 17 -38 46 -38 42 0
47 15 26 79 -17 52 -14 88 12 194 6 24 4 27 -19 27 -16 0 -35 -11 -50 -30z"/>
<path d="M10560 19406 c0 -3 10 -22 22 -43 24 -41 31 -134 14 -205 -7 -34 -6
-38 12 -38 34 0 71 38 86 90 14 45 13 54 -7 115 -19 60 -24 66 -57 75 -37 10
-70 13 -70 6z"/>
<path d="M11398 19403 c-24 -6 -23 -16 4 -28 45 -20 86 -127 66 -171 -9 -18
-8 -30 2 -49 9 -17 11 -43 6 -90 l-7 -67 40 -40 c31 -30 46 -39 68 -36 37 4
43 35 12 59 -23 17 -24 24 -29 176 -6 180 -12 198 -84 233 -43 20 -48 21 -78
13z"/>
<path d="M11856 19402 c-77 -9 -166 -124 -166 -213 0 -109 71 -227 149 -249
46 -13 98 -13 106 0 3 6 3 10 -2 11 -4 0 -18 2 -31 3 -84 10 -145 182 -108
307 24 82 56 115 114 118 18 1 7 18 -15 22 -10 3 -31 3 -47 1z"/>
<path d="M12860 19395 c-10 -13 -8 -22 14 -53 25 -37 26 -42 26 -188 0 -119
-3 -154 -16 -172 -8 -12 -21 -22 -29 -22 -19 0 -29 -20 -17 -32 10 -10 166
-19 190 -10 20 7 14 29 -15 50 l-28 20 -3 198 c-2 121 -7 203 -14 211 -15 18
-93 17 -108 -2z"/>
<path d="M13532 19397 c-10 -11 -6 -22 18 -52 l30 -38 0 -153 c0 -164 -1 -168
-55 -200 -38 -22 -6 -34 90 -34 106 0 124 10 79 47 l-29 23 -5 207 -5 208 -56
3 c-39 2 -59 -1 -67 -11z"/>
<path d="M13905 19391 c-81 -37 -125 -113 -125 -216 0 -97 14 -137 61 -182 73
-70 174 -91 248 -53 103 52 145 118 144 225 0 106 -29 163 -107 213 -54 33
-162 40 -221 13z m185 -61 c22 -28 32 -54 38 -98 12 -86 -2 -186 -30 -222 -28
-36 -50 -44 -108 -41 -35 2 -50 8 -67 29 -82 98 -63 336 29 371 10 3 38 5 63
3 38 -3 49 -10 75 -42z"/>
<path d="M14570 19400 c-12 -8 -9 -12 18 -22 47 -18 62 -76 62 -243 0 -116 -2
-134 -19 -152 -11 -12 -25 -23 -32 -25 -7 -2 -10 -11 -6 -21 5 -14 21 -17 96
-17 49 0 96 3 105 6 25 10 19 33 -11 45 -15 6 -31 16 -35 22 -4 7 -8 81 -8
165 0 167 -9 206 -53 235 -29 19 -93 22 -117 7z"/>
<path d="M15320 19393 c-44 -19 -67 -39 -95 -84 -54 -84 -52 -220 4 -289 72
-90 176 -121 267 -80 116 52 166 143 149 276 -8 68 -61 143 -123 173 -51 25
-149 27 -202 4z m182 -56 c48 -57 61 -224 23 -297 -25 -48 -58 -70 -108 -71
-40 -2 -52 2 -77 26 -39 37 -50 79 -50 186 0 149 40 205 140 193 35 -4 51 -12
72 -37z"/>
<path d="M1953 19355 c-66 -80 -82 -196 -37 -281 14 -27 33 -57 42 -67 45 -51
157 -64 232 -27 46 23 60 36 60 57 0 14 -48 -8 -61 -28 -12 -20 -112 -16 -144
5 -48 31 -66 91 -60 196 3 51 9 98 13 104 5 6 12 20 14 31 3 11 9 28 13 38 5
13 2 17 -13 17 -13 0 -37 -19 -59 -45z"/>
<path d="M12364 19378 c-29 -14 -51 -37 -74 -74 -29 -49 -32 -60 -32 -138 1
-118 39 -185 130 -229 30 -15 103 -13 102 2 -1 3 -20 15 -43 26 -66 31 -92 93
-92 215 0 88 2 98 29 141 27 43 34 48 78 53 27 4 46 11 43 16 -11 17 -98 10
-141 -12z"/>
<path d="M11247 19370 c-16 -13 -29 -36 -33 -57 -6 -32 -3 -40 21 -60 24 -21
30 -22 48 -10 37 25 42 41 25 93 -8 26 -19 49 -25 51 -5 2 -21 -6 -36 -17z"/>
<path d="M17206 19135 c-38 -36 -46 -51 -46 -80 0 -70 41 -114 106 -115 54 0
59 7 24 40 -39 36 -41 90 -5 142 32 48 31 58 -4 58 -21 0 -42 -13 -75 -45z"/>
<path d="M11253 19148 c-60 -43 -78 -101 -48 -157 16 -32 86 -65 116 -56 19 6
19 7 -2 36 -34 49 -36 100 -5 153 l27 46 -28 0 c-16 0 -43 -10 -60 -22z"/>
<path d="M13387 19048 c-6 -70 -4 -76 18 -58 20 17 21 120 1 120 -9 0 -15 -19
-19 -62z"/>
<path d="M6413 19063 c-21 -8 -33 -20 -33 -32 0 -23 30 -18 55 9 25 28 14 39
-22 23z"/>
<path d="M19510 19071 c-21 -6 -25 -13 -28 -53 -2 -37 1 -49 18 -61 29 -20 64
-10 83 23 22 37 21 56 -3 80 -21 21 -29 22 -70 11z"/>
<path d="M10396 19062 c-4 -7 -5 -31 -1 -53 6 -36 4 -43 -29 -79 -45 -50 -47
-87 -8 -130 19 -23 39 -33 70 -37 23 -3 42 -2 42 2 0 4 -16 25 -35 46 -41 46
-49 101 -16 119 26 13 185 13 236 -1 41 -11 74 -42 75 -70 0 -8 -15 -31 -33
-51 -26 -29 -42 -37 -85 -43 -60 -8 -74 -20 -33 -28 51 -11 136 21 189 71 24
22 32 39 32 64 0 42 -31 93 -69 113 -37 19 -175 39 -214 31 -30 -6 -102 24
-109 46 -3 9 -6 9 -12 0z"/>
<path d="M514 19026 c-26 -22 -27 -25 -15 -54 7 -17 22 -34 32 -37 28 -9 72
16 84 49 8 24 6 31 -14 47 -31 25 -54 24 -87 -5z"/>
<path d="M303 19023 c-28 -19 -194 -27 -229 -11 -40 18 -74 -3 -74 -47 0 -31
3 -35 28 -35 280 -5 294 -4 308 15 17 23 18 56 2 77 -12 15 -15 15 -35 1z"/>
<path d="M10490 18750 c0 -5 7 -10 15 -10 8 0 15 5 15 10 0 6 -7 10 -15 10 -8
0 -15 -4 -15 -10z"/>
<path d="M25394 17365 c-20 -20 -23 -28 -14 -45 9 -17 21 -20 79 -20 43 0 72
-5 79 -12 6 -8 11 -108 13 -246 4 -224 3 -234 -16 -248 -14 -11 -33 -13 -66
-9 -36 5 -50 2 -68 -12 -20 -17 -22 -23 -12 -41 17 -31 38 -34 226 -29 160 4
170 6 187 27 22 27 22 34 3 50 -10 8 -41 12 -84 11 -67 -2 -69 -1 -81 28 -7
17 -9 39 -6 48 9 22 9 463 1 485 -10 25 -60 38 -142 38 -65 0 -77 -3 -99 -25z"/>
<path d="M10022 17368 c-7 -7 -12 -26 -12 -43 0 -17 -11 -65 -25 -106 -53
-154 -126 -500 -160 -753 -17 -125 -20 -344 -5 -395 10 -34 25 -51 46 -51 9 0
12 45 12 153 1 83 6 176 12 206 5 29 10 74 10 99 0 95 75 414 156 662 24 74
44 154 44 178 0 36 -4 44 -26 52 -33 13 -37 13 -52 -2z"/>
<path d="M16435 17361 c-93 -24 -175 -106 -175 -176 0 -64 49 -59 99 10 39 54
91 91 143 100 85 16 53 -65 -85 -217 -145 -160 -177 -216 -177 -310 0 -97 43
-142 172 -183 62 -19 100 -23 248 -26 161 -4 175 -3 178 14 6 29 -55 47 -162
47 -110 0 -228 20 -283 49 -41 20 -63 55 -63 98 0 47 61 140 166 254 154 167
186 252 120 318 -21 21 -37 25 -88 27 -35 2 -76 -1 -93 -5z"/>
<path d="M21595 17340 c-22 -4 -31 -11 -33 -28 -6 -40 14 -52 85 -51 35 1 66
-1 70 -4 10 -10 10 -481 0 -494 -6 -8 -35 -13 -78 -13 -57 0 -70 -3 -79 -19
-29 -56 0 -65 210 -62 144 2 178 5 192 18 44 40 4 79 -69 69 -85 -11 -82 -21
-77 271 4 266 0 307 -35 318 -19 6 -142 3 -186 -5z"/>
<path d="M21006 17325 c-23 -24 -20 -37 16 -66 l32 -27 1 -232 0 -231 -33 -27
c-18 -15 -32 -32 -32 -39 0 -44 144 -61 193 -23 31 24 25 54 -13 73 -28 14
-38 56 -30 122 l5 40 90 5 c96 5 121 15 168 63 41 42 57 86 57 156 0 50 -5 66
-32 107 -51 76 -85 88 -259 92 -125 3 -149 1 -163 -13z m310 -90 c73 -55 81
-136 19 -203 -33 -37 -34 -37 -112 -37 l-78 0 -3 119 c-2 83 1 123 10 133 18
22 129 13 164 -12z"/>
<path d="M18730 17270 c-11 -11 -20 -26 -20 -32 -1 -99 -27 -267 -67 -421 -64
-253 -65 -407 -3 -407 28 0 40 31 40 106 0 59 44 270 90 434 5 19 15 98 22
174 11 131 10 140 -7 152 -25 18 -31 18 -55 -6z"/>
<path d="M14476 17198 c-18 -18 -47 -69 -65 -113 -18 -44 -46 -108 -62 -143
-38 -81 -53 -152 -44 -210 5 -36 16 -56 49 -89 37 -37 49 -42 103 -48 90 -11
89 -9 70 -107 -22 -110 -23 -216 -1 -225 26 -10 41 17 64 117 45 200 64 245
126 313 51 55 118 171 124 217 11 74 -22 120 -71 101 -56 -21 -124 -130 -174
-280 -19 -59 -45 -81 -95 -81 -61 0 -110 53 -110 120 0 53 99 305 143 363 34
45 38 64 21 82 -23 23 -43 18 -78 -17z m264 -377 c-28 -56 -35 -52 -8 4 12 24
23 43 26 41 2 -2 -6 -22 -18 -45z"/>
<path d="M25930 17179 c-45 -18 -55 -63 -17 -75 52 -16 57 -29 58 -158 1 -148
11 -182 65 -210 41 -22 87 -24 180 -11 34 5 54 4 58 -4 9 -14 81 -14 107 -1
25 14 25 57 0 65 -10 3 -27 15 -37 26 -17 19 -19 39 -19 181 l0 161 -27 20
c-24 18 -34 19 -75 11 -44 -8 -48 -11 -48 -39 0 -21 7 -33 23 -41 39 -19 41
-25 43 -143 l3 -114 -32 -28 c-40 -36 -97 -40 -130 -9 -21 20 -22 29 -22 176
0 151 -1 156 -25 179 -26 26 -62 31 -105 14z"/>
<path d="M26664 17175 c-114 -36 -184 -115 -184 -211 0 -50 37 -134 77 -176
87 -90 251 -88 327 3 29 34 32 49 14 67 -19 19 -42 14 -68 -13 -13 -13 -43
-32 -67 -41 -38 -15 -50 -16 -81 -5 -55 19 -80 38 -97 72 -29 54 -13 60 152
58 102 -2 147 1 156 10 7 7 12 36 12 66 0 94 -59 153 -175 177 -14 3 -43 0
-66 -7z m126 -94 c29 -21 38 -62 17 -80 -10 -8 -49 -11 -118 -9 l-104 3 -3 32
c-3 25 2 35 23 49 54 35 138 37 185 5z"/>
<path d="M27175 17176 c-81 -20 -118 -50 -126 -102 -11 -68 35 -104 161 -129
101 -19 141 -33 158 -53 32 -40 -3 -78 -84 -93 -59 -11 -101 6 -144 60 -36 45
-58 51 -83 23 -23 -25 -23 -114 -1 -133 15 -12 106 -22 214 -21 99 0 177 54
187 129 10 74 -62 123 -202 137 -27 2 -67 12 -87 20 -32 14 -38 21 -38 46 0
36 24 45 119 45 59 0 65 -3 91 -33 31 -38 53 -41 74 -10 19 27 21 94 4 105 -7
4 -40 8 -73 9 -33 0 -73 3 -90 6 -16 4 -52 1 -80 -6z"/>
<path d="M24283 17163 c-24 -5 -37 -31 -28 -54 3 -8 20 -23 37 -34 24 -15 37
-37 54 -85 13 -36 23 -72 24 -81 0 -9 7 -22 15 -29 8 -7 15 -22 15 -34 1 -34
45 -125 69 -142 20 -14 24 -14 46 0 33 22 54 55 70 113 52 177 74 228 120 268
44 39 45 41 30 63 -14 19 -25 22 -85 22 -96 0 -127 -35 -79 -86 l21 -23 -31
-102 c-31 -102 -53 -149 -70 -149 -12 0 -71 173 -78 225 -4 32 0 44 16 59 26
24 27 52 2 66 -19 10 -104 12 -148 3z"/>
<path d="M24919 17157 c-43 -20 -59 -38 -59 -68 0 -18 7 -32 21 -39 17 -10 28
-7 62 16 70 46 178 30 185 -28 4 -31 -1 -33 -101 -43 -97 -9 -161 -45 -194
-108 -12 -25 -12 -34 1 -75 32 -93 145 -135 261 -96 44 16 51 16 102 0 62 -20
97 -15 113 15 13 24 1 44 -33 55 -53 16 -58 29 -51 143 6 117 -5 156 -56 193
-56 41 -195 60 -251 35z m213 -224 c33 -30 19 -109 -25 -138 -81 -53 -210 -3
-190 74 5 20 69 64 108 74 43 10 89 6 107 -10z"/>
<path d="M23334 17131 c-129 -60 -178 -180 -123 -301 52 -116 166 -166 292
-128 54 16 120 79 115 110 -5 37 -50 36 -89 -2 -39 -36 -65 -44 -126 -37 -51
5 -91 31 -113 71 -14 25 -13 28 5 43 16 12 43 14 148 10 117 -4 129 -3 153 16
24 18 26 25 21 68 -6 50 -27 92 -62 121 -20 17 -129 59 -149 57 -6 0 -38 -13
-72 -28z m147 -72 c33 -17 52 -55 39 -78 -10 -19 -20 -21 -109 -21 -84 0 -100
3 -115 19 -23 25 -7 51 48 80 42 22 96 22 137 0z"/>
<path d="M7425 17139 c-69 -11 -127 -33 -138 -51 -6 -8 -7 -27 -3 -41 8 -34
42 -36 80 -6 41 32 82 40 208 39 194 0 234 -30 165 -121 -47 -62 -57 -83 -57
-123 0 -83 26 -99 210 -134 132 -24 180 -44 180 -72 0 -83 -136 -207 -492
-449 -38 -26 -48 -38 -48 -60 0 -34 22 -46 53 -29 22 11 91 59 296 207 187
135 281 238 281 308 0 95 -82 146 -280 173 -109 15 -113 17 -106 50 3 16 26
59 51 96 64 97 58 146 -23 188 -61 31 -261 45 -377 25z"/>
<path d="M22823 17130 c-80 -28 -109 -54 -143 -126 -33 -68 -33 -77 -7 -173
21 -78 128 -151 220 -151 43 0 98 22 133 52 43 38 55 59 47 86 -9 35 -53 29
-93 -13 -30 -31 -40 -35 -85 -35 -99 0 -153 66 -142 173 4 44 10 56 42 83 21
19 53 35 76 39 33 6 46 2 86 -24 25 -17 50 -31 54 -31 4 0 20 10 35 23 39 34
28 68 -31 96 -56 26 -122 27 -192 1z"/>
<path d="M4513 17092 c-187 -107 -355 -288 -535 -578 -86 -139 -120 -263 -111
-407 6 -76 6 -78 46 -110 23 -17 52 -42 65 -54 38 -35 125 -63 195 -63 176 0
383 116 453 252 42 83 29 128 -54 185 -53 37 -56 38 -146 37 -69 0 -107 -6
-156 -23 -92 -33 -187 -84 -244 -131 -66 -54 -79 -53 -71 8 10 70 34 151 62
206 57 112 220 341 322 449 85 91 209 169 269 169 35 0 72 26 72 52 0 18 -47
56 -69 56 -9 0 -53 -22 -98 -48z m2 -843 c45 -22 47 -72 3 -122 -126 -142
-410 -194 -515 -95 -13 12 -23 27 -23 34 0 29 172 129 304 176 90 32 175 35
231 7z"/>
<path d="M22167 17119 c-35 -18 -38 -23 -35 -57 4 -48 31 -53 84 -17 32 22 47
26 86 22 56 -5 98 -30 98 -57 0 -27 -36 -40 -106 -40 -88 0 -168 -46 -192
-110 -27 -71 28 -151 121 -175 53 -13 66 -13 128 2 64 16 73 16 120 1 53 -17
84 -13 107 15 19 23 4 45 -41 60 l-42 14 -5 129 c-6 153 -15 173 -98 210 -71
31 -169 33 -225 3z m235 -212 c16 -25 9 -103 -11 -121 -31 -28 -101 -45 -136
-33 -41 13 -75 46 -75 72 0 66 188 136 222 82z"/>
<path d="M5615 17118 c-11 -6 -21 -12 -23 -13 -2 -2 -13 -31 -26 -66 -44 -122
-59 -212 -96 -564 -14 -136 -30 -658 -20 -669 14 -14 27 26 34 104 3 41 11
109 16 150 5 41 14 136 20 210 6 74 16 168 22 208 10 63 16 75 37 87 39 20 74
62 68 79 -7 19 -38 21 -55 4 -6 -6 -14 -9 -18 -6 -10 11 43 249 75 336 33 90
38 121 19 140 -15 15 -27 15 -53 0z"/>
<path d="M12905 17088 c-16 -6 -47 -24 -68 -40 -35 -27 -40 -29 -74 -17 -22 7
-75 10 -142 7 -93 -4 -116 -8 -172 -35 -86 -40 -115 -72 -129 -139 -10 -46 -9
-59 3 -77 22 -33 48 -58 100 -97 25 -19 47 -42 47 -50 0 -8 -10 -33 -21 -55
-41 -76 -60 -147 -61 -231 -1 -71 2 -87 25 -127 45 -77 114 -115 225 -124 66
-5 85 -2 130 17 96 41 154 138 132 219 -25 96 -147 227 -260 282 -27 13 -49
28 -50 33 0 19 112 155 188 228 43 41 105 91 139 112 69 43 81 61 57 87 -19
21 -26 22 -69 7z m-165 -104 c0 -3 -32 -40 -70 -82 -39 -43 -87 -103 -108
-134 -20 -32 -42 -58 -49 -58 -6 0 -35 22 -64 48 -49 45 -52 50 -45 85 5 27
20 47 61 82 29 26 66 50 82 55 32 9 193 13 193 4z m-103 -433 c128 -111 173
-172 173 -237 0 -58 -40 -104 -116 -133 -67 -25 -85 -26 -131 -4 -77 36 -108
137 -78 257 19 77 62 176 75 176 5 0 40 -26 77 -59z"/>
<path d="M5205 17000 c-33 -14 -103 -88 -127 -133 -44 -86 -41 -137 10 -205
49 -65 171 -111 304 -115 l73 -2 0 30 c0 26 -4 30 -30 33 -85 9 -269 77 -287
106 -30 45 20 164 81 195 43 22 56 44 41 71 -7 14 -35 33 -43 29 -1 0 -11 -4
-22 -9z"/>
<path d="M8187 16976 c-58 -16 -81 -36 -73 -64 9 -29 24 -31 81 -14 28 8 104
16 170 18 107 4 126 2 175 -18 32 -13 56 -30 58 -40 7 -36 -36 -95 -175 -244
-164 -176 -213 -243 -213 -292 0 -83 43 -104 202 -97 116 5 386 41 426 56 23
9 29 42 12 69 -10 16 -11 16 -275 -35 -134 -25 -239 -32 -264 -16 -12 8 -12
14 -1 40 18 45 51 83 202 240 148 154 184 209 175 273 -9 68 -50 98 -167 123
-86 18 -267 19 -333 1z"/>
<path d="M10519 16888 c-40 -43 -87 -156 -105 -255 -18 -104 -16 -230 7 -316
13 -47 13 -47 -19 -77 -54 -49 -35 -96 27 -70 28 11 32 10 84 -43 47 -47 61
-55 104 -61 28 -3 57 -4 64 -2 8 3 33 10 57 16 52 13 116 68 144 124 27 53 20
118 -16 155 -24 24 -33 26 -110 26 -79 0 -89 -2 -166 -42 -45 -24 -85 -43 -90
-43 -4 0 -11 42 -15 93 -12 157 23 317 90 411 39 55 42 68 19 90 -22 22 -50
20 -75 -6z m275 -578 c73 -28 -25 -145 -147 -174 -35 -8 -78 14 -108 55 -22
31 -22 32 -4 45 11 8 33 18 50 23 16 5 57 21 90 35 67 28 82 30 119 16z"/>
<path d="M16294 12630 c-47 -10 -108 -42 -145 -76 -14 -13 -34 -24 -45 -24
-37 0 -159 -68 -206 -115 -131 -131 -156 -362 -58 -515 63 -98 184 -181 330
-225 84 -25 220 -30 324 -12 91 16 168 49 325 139 86 50 138 115 167 210 45
149 -45 366 -201 482 -106 80 -166 107 -290 132 -76 15 -137 16 -201 4z m206
-87 c208 -50 377 -223 409 -419 11 -71 3 -120 -28 -163 -63 -88 -221 -184
-360 -216 -105 -25 -249 -17 -351 20 -247 90 -349 268 -270 475 37 98 150 203
150 140 0 -24 34 -43 60 -35 11 3 45 36 77 72 43 49 58 74 58 96 0 25 6 32 35
43 41 15 123 10 220 -13z"/>
<path d="M18290 12621 c-232 -34 -402 -136 -475 -284 -75 -153 -52 -309 70
-467 164 -212 434 -397 643 -439 68 -14 226 -14 294 0 166 34 268 189 285 436
10 147 -23 268 -108 396 -22 33 -46 75 -54 95 -19 44 -125 147 -197 190 -95
57 -160 74 -288 78 -63 1 -140 -1 -170 -5z m178 -105 c15 -7 56 -19 92 -25 85
-17 189 -72 262 -139 56 -53 58 -56 58 -106 0 -67 17 -91 58 -83 28 6 31 3 46
-35 82 -203 50 -427 -77 -552 -44 -43 -67 -56 -118 -71 -100 -28 -266 -11
-382 39 -106 46 -273 171 -364 272 -90 101 -101 117 -134 189 -108 239 62 466
381 509 137 18 146 18 178 2z"/>
<path d="M12091 12542 c-14 -27 6 -337 35 -527 13 -88 35 -243 49 -345 35
-251 80 -390 126 -390 24 0 25 28 3 90 -8 24 -22 92 -30 150 -73 524 -84 620
-90 785 -7 186 -15 224 -53 245 -26 13 -29 13 -40 -8z"/>
<path d="M14270 12510 c-46 -11 -212 -109 -272 -160 -30 -26 -58 -64 -80 -107
-31 -64 -33 -73 -33 -178 0 -101 2 -115 29 -170 19 -38 54 -84 96 -125 149
-145 359 -196 535 -129 138 53 303 281 313 432 5 76 -9 130 -46 186 -93 138
-407 283 -542 251z m170 -129 c14 -10 31 -30 38 -44 6 -15 18 -39 25 -54 15
-33 54 -43 64 -17 4 10 0 37 -9 61 -13 36 -13 43 -2 43 39 0 169 -113 200
-172 12 -22 15 -50 12 -98 -6 -117 -102 -273 -213 -350 -32 -22 -63 -33 -117
-40 -274 -39 -493 130 -476 369 9 122 79 226 191 282 96 49 232 58 287 20z"/>
<path d="M21175 12340 c-62 -29 -122 -97 -146 -165 -32 -88 -30 -229 4 -305
90 -201 303 -231 413 -58 31 49 32 96 2 107 -32 12 -58 -4 -65 -41 -3 -17 -21
-46 -40 -64 -28 -28 -41 -34 -76 -34 -143 0 -225 235 -142 405 32 66 74 95
138 95 37 0 51 -5 75 -30 17 -16 36 -49 43 -72 11 -34 19 -44 40 -46 42 -5 52
19 51 115 -2 107 -15 128 -63 100 -38 -21 -72 -22 -89 -2 -17 21 -96 19 -145
-5z"/>
<path d="M21650 12153 c-28 -10 -60 -46 -60 -68 0 -46 41 -58 83 -25 50 39
187 16 187 -32 0 -25 -25 -35 -110 -43 -158 -15 -226 -106 -162 -217 34 -59
167 -89 253 -58 28 10 44 10 69 1 46 -16 115 -14 130 4 20 24 7 49 -30 60 -61
18 -60 16 -60 148 0 115 -1 123 -26 159 -15 21 -38 41 -52 45 -14 3 -37 12
-51 19 -25 14 -141 18 -171 7z m213 -220 c3 -5 8 -29 12 -54 6 -40 4 -50 -18
-75 -24 -27 -30 -29 -97 -29 -64 0 -74 3 -91 24 -13 15 -19 36 -17 54 4 42 82
85 155 86 28 1 54 -2 56 -6z"/>
<path d="M22092 12148 c-28 -28 2 -68 51 -68 59 0 62 -7 64 -147 1 -70 -1
-134 -6 -141 -4 -7 -30 -16 -57 -20 -46 -7 -49 -9 -49 -37 0 -38 18 -42 180
-44 133 -1 165 9 165 55 0 26 0 26 -77 28 -71 1 -79 12 -75 104 3 98 16 136
56 167 38 29 82 32 123 8 69 -39 121 22 67 78 -43 45 -92 40 -215 -21 -11 -6
-23 0 -42 21 -24 27 -30 29 -99 29 -44 0 -79 -5 -86 -12z"/>
<path d="M22634 12139 c-19 -21 -18 -21 5 -40 13 -10 36 -19 51 -19 53 0 60
-18 60 -160 l0 -128 -27 -10 c-16 -6 -41 -12 -57 -14 -16 -2 -34 -11 -40 -21
-9 -15 -7 -22 13 -38 20 -17 39 -19 156 -19 140 0 178 7 189 36 12 32 -21 53
-81 52 -37 -1 -58 3 -64 13 -16 22 -3 186 16 215 20 31 73 64 102 64 12 0 35
-8 51 -17 44 -25 86 -9 90 34 3 25 -3 35 -26 52 -42 29 -92 27 -162 -9 l-59
-30 -30 30 c-27 28 -35 30 -99 30 -57 0 -72 -4 -88 -21z"/>
<path d="M23182 12148 c-21 -21 -13 -46 21 -67 32 -20 47 -45 93 -161 10 -25
33 -78 51 -118 18 -40 33 -85 33 -100 0 -57 -46 -152 -73 -152 -5 0 -22 11
-39 25 -51 43 -88 25 -88 -43 0 -33 22 -57 66 -72 39 -14 72 -2 117 43 44 45
67 95 111 237 61 198 105 315 122 325 9 6 29 20 43 32 21 18 24 25 15 40 -9
14 -27 19 -88 21 -49 2 -83 -1 -92 -9 -20 -17 -17 -52 6 -67 27 -16 25 -41 -9
-147 -26 -81 -50 -119 -66 -104 -3 4 -24 57 -46 119 l-41 112 27 28 c23 24 25
31 16 49 -10 19 -21 21 -89 21 -47 0 -83 -5 -90 -12z"/>
<path d="M10042 12138 c-11 -14 -5 -1566 6 -1700 3 -29 29 -20 41 12 6 17 8
43 5 58 -3 15 0 149 6 297 6 149 13 501 16 783 5 462 4 515 -10 537 -18 27
-47 33 -64 13z"/>
<path d="M5645 11966 c-8 -13 -13 -30 -10 -39 6 -15 43 -33 80 -39 28 -4 30
-43 5 -178 -26 -148 -25 -213 5 -335 21 -86 29 -104 60 -132 66 -61 81 -22 36
97 -28 77 -27 186 4 340 30 149 31 195 5 238 -39 64 -155 94 -185 48z"/>
<path d="M7799 11948 c-1 -7 -1 -96 0 -198 1 -223 25 -520 52 -650 10 -52 22
-125 26 -162 3 -38 9 -68 13 -68 22 0 26 236 9 455 -5 72 -10 235 -10 364 1
138 -4 241 -10 252 -11 22 -78 27 -80 7z"/>
<path d="M23393 10894 c-8 -21 13 -42 28 -27 13 13 5 43 -11 43 -6 0 -13 -7
-17 -16z"/>
<path d="M30808 10037 c-54 -37 -185 -166 -233 -229 -23 -31 -59 -98 -80 -150
-33 -81 -38 -107 -43 -195 -5 -119 6 -177 49 -239 34 -50 36 -60 9 -74 -26
-14 -26 -46 0 -60 15 -8 27 -7 49 5 37 18 49 19 82 2 122 -64 268 -61 419 9
128 60 178 121 147 181 -41 79 -149 113 -260 82 -40 -11 -190 -82 -284 -135
l-52 -29 -23 22 c-79 75 -78 274 3 441 48 99 168 233 277 310 36 26 40 43 16
66 -21 22 -35 20 -76 -7z m293 -757 c47 -26 -1 -83 -103 -121 -96 -37 -308
-35 -308 2 0 10 146 81 225 110 56 20 156 24 186 9z"/>
<path d="M5946 10003 c-41 -15 -57 -28 -91 -78 -36 -52 -54 -66 -128 -105
-180 -94 -229 -146 -235 -245 -5 -78 10 -126 56 -177 59 -65 121 -90 262 -107
183 -23 443 47 587 155 91 69 123 131 123 233 0 179 -193 325 -445 337 -59 3
-93 0 -129 -13z m19 -73 c-3 -5 -11 -10 -16 -10 -6 0 -7 5 -4 10 3 6 11 10 16
10 6 0 7 -4 4 -10z m308 -33 c41 -18 125 -102 143 -144 21 -49 17 -122 -9
-168 -25 -44 -106 -110 -152 -125 -16 -5 -57 -18 -90 -30 -191 -67 -422 -74
-507 -16 -105 70 -103 181 4 254 119 82 397 192 484 192 35 0 47 5 60 25 19
29 23 30 67 12z"/>
<path d="M29743 9989 c-15 -5 -23 -17 -23 -32 0 -48 11 -50 278 -42 159 5 251
4 255 -2 11 -17 -36 -70 -139 -154 -118 -98 -174 -150 -174 -165 0 -5 15 -24
33 -41 23 -23 63 -41 147 -68 63 -21 121 -42 128 -48 35 -28 -10 -115 -88
-171 -106 -75 -170 -107 -225 -113 -52 -5 -55 -5 -64 21 -13 33 -45 34 -67 1
-20 -31 -12 -57 29 -91 28 -24 37 -26 92 -22 116 10 361 164 410 259 24 46 19
112 -11 149 -32 38 -61 53 -163 86 -75 24 -122 48 -111 56 3 3 34 26 70 53
105 80 207 173 231 211 27 44 17 74 -33 101 -29 16 -63 18 -293 19 -143 1
-270 -2 -282 -7z"/>
<path d="M22196 9947 c-54 -56 -107 -159 -162 -314 -56 -160 -89 -276 -104
-373 -7 -41 -19 -90 -26 -109 -21 -52 -18 -80 12 -93 53 -24 62 -3 105 249
l23 132 45 25 c25 13 80 31 121 40 41 9 106 22 144 30 38 8 72 13 76 11 3 -2
24 -77 46 -166 32 -131 43 -164 61 -176 13 -9 29 -13 38 -10 29 12 27 55 -10
189 -20 73 -38 140 -38 148 -2 12 14 16 68 20 67 5 70 6 70 30 0 24 -4 25 -85
35 l-85 10 -47 132 c-65 184 -103 233 -180 233 -24 0 -41 -10 -72 -43z m100
-84 c21 -30 104 -213 104 -231 0 -6 -21 -13 -47 -17 -66 -7 -213 -33 -242 -41
-22 -7 -23 -5 -17 22 13 55 79 209 108 252 35 50 65 55 94 15z"/>
<path d="M9992 9885 c-55 -24 -98 -63 -126 -116 -71 -129 -59 -354 22 -451 37
-43 110 -88 145 -88 82 0 161 74 207 191 30 78 32 91 27 169 -9 146 -60 240
-157 290 -46 23 -73 25 -118 5z m116 -98 c55 -51 78 -154 62 -277 -15 -118
-66 -200 -126 -200 -24 0 -78 40 -95 72 -56 105 -48 328 14 397 43 46 101 50
145 8z"/>
<path d="M7892 9874 c-12 -8 -22 -21 -22 -29 0 -25 -53 -77 -98 -96 -35 -15
-43 -23 -40 -41 3 -24 10 -25 103 -16 l30 3 2 -184 c1 -121 -2 -189 -9 -198
-6 -7 -29 -13 -52 -13 -23 0 -47 -5 -54 -12 -15 -15 -15 -55 0 -64 6 -4 75 -7
152 -5 148 2 176 10 176 52 0 20 -19 27 -85 31 l-40 3 0 283 c0 240 -2 284
-15 292 -20 13 -22 13 -48 -6z"/>
<path d="M12105 9866 c-99 -46 -166 -210 -145 -357 19 -132 36 -173 97 -231
100 -96 238 -49 309 104 27 58 29 72 29 178 0 108 -2 119 -31 181 -42 89 -94
129 -172 135 -36 3 -68 -1 -87 -10z m137 -93 c11 -10 32 -40 46 -68 22 -43 26
-63 26 -140 0 -238 -149 -345 -237 -170 -8 17 -20 64 -27 107 -11 66 -10 86 5
154 14 63 24 85 51 112 31 31 39 34 75 29 22 -3 50 -14 61 -24z"/>
<path d="M14291 9854 c-12 -15 -21 -31 -21 -36 0 -25 -42 -66 -80 -77 -36 -11
-41 -15 -38 -39 2 -20 9 -28 27 -30 13 -2 28 1 34 7 6 6 24 11 39 11 l28 0 0
-127 c0 -71 3 -150 6 -178 7 -62 -8 -85 -59 -90 -79 -7 -96 -26 -57 -65 18
-18 33 -20 153 -20 117 0 136 2 150 18 10 10 17 26 17 36 0 19 -44 39 -69 31
-10 -3 -26 1 -36 9 -18 13 -19 28 -17 275 2 169 -1 268 -8 281 -15 28 -45 25
-69 -6z"/>
<path d="M16360 9851 c-94 -59 -140 -156 -140 -295 0 -150 52 -266 143 -319
55 -33 78 -33 138 -4 127 61 199 259 154 419 -23 83 -46 127 -87 163 -79 72
-136 82 -208 36z m126 -73 c44 -30 74 -91 82 -168 14 -128 -14 -240 -75 -296
-38 -35 -70 -31 -113 15 -97 102 -91 392 9 454 35 22 59 21 97 -5z"/>
<path d="M18513 9850 c-58 -29 -73 -45 -125 -131 -26 -42 -40 -164 -28 -246
33 -237 210 -338 345 -196 70 72 101 156 99 268 -2 152 -70 277 -169 312 -16
6 -37 14 -45 17 -9 4 -43 -7 -77 -24z m131 -88 c10 -10 28 -35 39 -57 19 -34
21 -57 21 -160 0 -100 -4 -128 -21 -166 -76 -167 -222 -80 -238 143 -8 107 33
228 86 256 29 15 87 7 113 -16z"/>
<path d="M22174 8791 c-17 -10 -46 -41 -65 -67 -81 -112 -115 -260 -106 -459
6 -130 41 -327 71 -400 14 -32 19 -35 55 -35 37 0 41 2 41 25 0 15 -6 39 -14
54 -8 15 -27 75 -42 132 -22 85 -28 133 -32 262 -5 178 5 253 46 330 52 100
143 116 200 33 31 -46 29 -107 -9 -206 -17 -45 -56 -118 -85 -162 -30 -44 -57
-90 -60 -103 -5 -20 -1 -24 26 -30 25 -5 39 -1 71 20 89 62 268 40 357 -45 57
-53 -8 -180 -163 -320 -81 -73 -137 -97 -193 -81 -22 7 -36 5 -49 -4 -17 -13
-17 -14 1 -34 74 -81 231 -23 381 141 75 82 117 162 123 234 6 73 -10 106 -71
148 -70 48 -154 75 -246 80 -42 2 -77 4 -79 5 -1 1 15 36 37 79 49 97 61 140
61 225 0 100 -34 152 -119 182 -58 20 -99 19 -137 -4z"/>
<path d="M30798 8628 c-31 -11 -31 -10 -62 -141 -74 -306 -96 -614 -56 -770
15 -55 43 -78 68 -54 13 14 13 24 2 79 -34 169 3 529 82 796 18 63 19 75 7 86
-10 10 -21 11 -41 4z"/>
<path d="M10025 8608 c-9 -13 -26 -39 -38 -58 -13 -19 -36 -39 -52 -45 -46
-15 -55 -24 -55 -51 0 -25 2 -25 63 -22 l62 3 3 -187 2 -188 -22 -4 c-98 -18
-103 -21 -106 -48 -5 -43 22 -50 173 -46 141 3 165 11 165 53 0 26 -17 35 -69
35 -20 0 -42 5 -48 11 -8 8 -10 91 -6 276 5 276 3 293 -38 293 -10 0 -25 -10
-34 -22z"/>
<path d="M14300 8608 c-11 -12 -20 -29 -20 -37 0 -23 -58 -81 -80 -81 -35 0
-50 -12 -50 -40 0 -36 28 -47 69 -26 41 22 61 20 62 -4 0 -11 0 -92 0 -180 0
-88 0 -169 0 -180 -1 -17 -8 -20 -50 -20 -68 0 -104 -38 -66 -70 17 -14 243
-20 292 -8 35 9 52 41 33 63 -6 8 -35 15 -63 17 l-52 3 -5 283 c-4 237 -7 284
-20 292 -22 14 -27 13 -50 -12z"/>
<path d="M12156 8598 c-9 -12 -16 -27 -16 -33 0 -18 -52 -63 -93 -80 -40 -17
-46 -39 -15 -58 12 -8 28 -7 58 3 33 11 43 11 49 1 5 -7 8 -90 7 -185 -1 -195
-5 -206 -65 -206 -41 0 -61 -14 -61 -43 0 -28 54 -44 145 -42 163 3 163 3 182
31 16 25 16 27 -2 40 -10 8 -33 14 -51 14 -61 0 -61 1 -56 289 5 279 3 291
-44 291 -12 0 -30 -10 -38 -22z"/>
<path d="M16436 8597 c-14 -14 -26 -33 -26 -42 0 -25 -50 -65 -82 -65 -38 0
-60 -42 -35 -67 14 -14 22 -15 57 -4 67 20 70 13 70 -158 0 -80 1 -153 1 -161
6 -52 0 -60 -44 -60 -49 0 -87 -22 -87 -50 0 -32 33 -40 164 -40 138 0 176 10
176 46 0 29 -14 37 -75 44 l-49 5 -1 268 c-1 259 -1 268 -22 288 l-21 22 -26
-26z"/>
<path d="M27661 8581 c-44 -41 -51 -85 -51 -312 l0 -207 -67 -6 c-90 -9 -208
-44 -230 -68 -13 -15 -15 -23 -7 -36 17 -26 47 -26 131 3 43 14 100 29 127 32
l49 6 -6 -64 c-4 -35 -11 -120 -17 -189 -6 -69 -15 -147 -20 -175 -10 -57 1
-78 37 -69 33 9 41 47 57 278 9 115 18 211 21 215 4 3 147 9 318 12 172 4 335
7 363 8 54 1 96 22 79 40 -12 11 -238 20 -535 21 -113 0 -211 4 -219 9 -12 8
-12 30 -2 148 18 204 29 276 45 308 30 58 -24 92 -73 46z"/>
<path d="M18549 8551 c-18 -41 -30 -52 -75 -74 -55 -27 -66 -45 -39 -67 13
-11 23 -10 56 0 31 10 42 11 52 1 14 -14 18 -350 4 -368 -5 -7 -25 -13 -44
-13 -68 0 -97 -42 -51 -74 17 -13 51 -16 148 -16 97 0 131 3 148 16 47 32 15
74 -57 74 -16 0 -33 6 -38 13 -6 7 -10 110 -9 262 1 138 -2 260 -6 273 -6 16
-15 22 -38 22 -26 0 -33 -6 -51 -49z"/>
<path d="M29753 8560 c-15 -6 -23 -18 -23 -34 0 -36 33 -53 115 -61 96 -9 206
-35 199 -46 -3 -5 -38 -30 -77 -56 -83 -54 -146 -118 -147 -150 0 -24 4 -28
128 -108 170 -111 252 -198 252 -269 0 -37 -6 -46 -67 -106 -83 -81 -175 -129
-262 -137 -57 -5 -61 -5 -72 20 -15 33 -34 40 -54 21 -25 -25 -18 -67 16 -100
28 -27 36 -29 107 -29 67 0 86 4 142 32 125 63 247 181 271 264 15 49 5 96
-33 153 -36 55 -164 169 -256 229 -40 26 -62 46 -60 56 2 9 45 44 96 77 121
81 134 92 130 123 -4 36 -70 66 -188 86 -52 9 -108 23 -124 31 -33 16 -60 17
-93 4z"/>
<path d="M1390 8485 c-9 -10 -10 -37 -5 -94 7 -75 6 -80 -15 -91 -15 -8 -44
-10 -85 -5 -70 7 -89 -4 -83 -52 l3 -28 83 3 c82 3 82 3 93 -25 7 -19 7 -40
-1 -71 -13 -55 -6 -80 27 -88 46 -12 64 29 49 108 -7 29 -4 40 13 57 18 18 31
21 86 18 70 -2 91 9 97 53 l3 25 -97 0 c-53 0 -99 3 -103 7 -5 4 -2 41 4 82 9
55 9 80 1 95 -13 25 -52 28 -70 6z"/>
<path d="M7930 8434 c-118 -23 -262 -101 -321 -175 -49 -62 -72 -133 -64 -199
25 -198 246 -338 565 -357 114 -6 192 7 277 46 208 98 270 353 122 501 -69 69
-154 107 -266 120 -63 7 -104 17 -135 35 -44 24 -128 38 -178 29z m146 -103
c22 -6 55 -22 74 -36 38 -28 88 -33 96 -10 9 21 26 19 97 -14 113 -52 161
-116 162 -216 0 -85 -40 -166 -104 -206 -83 -52 -137 -62 -301 -56 -189 8
-280 35 -377 113 -183 149 -90 371 181 429 66 14 110 13 172 -4z"/>
<path d="M5785 8326 c-178 -49 -432 -241 -521 -392 -22 -38 -28 -60 -28 -108
1 -69 16 -106 66 -152 44 -42 81 -60 153 -73 196 -36 521 20 727 126 122 62
181 112 214 179 51 104 19 191 -105 285 -173 131 -350 179 -506 135z m220 -77
c53 -14 162 -69 217 -109 51 -37 108 -123 108 -163 0 -64 -75 -135 -210 -200
-95 -46 -306 -90 -500 -104 -150 -10 -249 26 -290 108 -18 34 -19 46 -10 73
31 94 174 228 343 321 59 33 73 36 111 31 38 -6 46 -4 59 14 14 20 18 21 52 8
35 -12 38 -12 53 10 17 26 15 25 67 11z"/>
<path d="M13270 7730 c-74 -5 -216 -14 -315 -20 -293 -19 -465 -42 -690 -95
-122 -28 -350 -65 -555 -90 -172 -21 -482 -65 -489 -70 -16 -9 -274 -46 -414
-60 -88 -8 -209 -19 -270 -25 -62 -6 -170 -18 -242 -28 -182 -23 -513 -23
-766 2 -160 16 -209 17 -264 8 -77 -13 -115 -34 -115 -64 0 -20 3 -20 53 -12
79 14 292 9 484 -11 201 -20 337 -17 618 14 105 12 264 28 355 36 209 19 385
41 525 66 174 31 420 66 550 78 120 12 304 40 425 65 36 8 130 28 210 45 204
43 337 58 720 81 430 27 711 27 990 1 118 -11 303 -21 410 -22 188 -3 439 -16
680 -38 63 -5 196 -13 295 -16 241 -8 376 -22 560 -60 119 -24 221 -34 480
-50 138 -8 345 -22 460 -31 139 -10 331 -16 565 -15 363 0 522 8 784 42 82 10
189 19 238 19 97 0 213 20 290 51 27 10 66 19 87 19 57 0 93 50 56 80 -22 18
-110 7 -190 -25 -63 -25 -88 -28 -245 -36 -96 -4 -198 -12 -226 -18 -28 -5
-139 -19 -248 -31 -258 -27 -840 -31 -1166 -7 -118 9 -278 19 -355 22 -155 7
-463 33 -474 40 -4 2 -75 15 -157 29 -142 23 -323 38 -629 51 -77 4 -209 13
-293 20 -85 8 -283 17 -440 21 -158 3 -354 12 -437 21 -176 18 -662 25 -855
13z"/>
<path d="M32108 7444 c-2 -1 -79 -5 -173 -8 -183 -6 -615 -35 -625 -41 -4 -2
-87 -11 -186 -20 -98 -9 -206 -20 -239 -26 -57 -9 -190 -24 -440 -49 -60 -5
-146 -15 -190 -20 -44 -5 -156 -14 -250 -20 -93 -6 -226 -17 -295 -25 -407
-47 -1205 -69 -1630 -45 -209 12 -306 24 -460 55 -246 51 -409 71 -439 55 -25
-13 -36 -47 -21 -65 9 -11 34 -15 89 -15 45 0 163 -16 291 -39 311 -57 401
-63 940 -63 531 0 778 10 1180 47 151 14 354 32 450 40 189 15 401 36 600 60
69 8 184 21 255 30 72 8 189 20 260 25 72 6 137 13 145 15 19 6 275 22 460 30
136 6 262 15 407 31 62 7 96 25 73 39 -10 6 -196 15 -202 9z"/>
<path d="M9865 7102 c-38 -5 -55 -19 -55 -47 0 -49 22 -55 212 -55 170 0 175
1 196 23 26 28 28 50 5 68 -12 11 -55 14 -172 14 -86 0 -169 -2 -186 -3z"/>
<path d="M10380 7098 c-24 -9 -35 -50 -20 -77 10 -20 18 -21 194 -21 178 0
183 1 204 23 26 28 28 50 5 68 -12 11 -57 14 -190 14 -96 0 -183 -3 -193 -7z"/>
<path d="M10899 7082 c-23 -30 -23 -34 -1 -61 16 -21 23 -22 201 -19 l184 3
21 28 20 27 -21 22 c-21 20 -32 21 -203 23 -181 1 -182 1 -201 -23z"/>
<path d="M11442 7083 c-24 -24 -23 -59 2 -75 6 -4 91 -8 189 -8 164 0 178 1
197 20 26 26 25 56 -2 74 -18 11 -62 14 -193 13 -164 -1 -170 -1 -193 -24z"/>
<path d="M11980 7085 c-24 -26 -26 -48 -4 -69 13 -13 45 -16 195 -16 166 0
180 1 199 20 25 25 26 56 0 70 -11 6 -98 12 -194 14 -169 3 -176 2 -196 -19z"/>
<path d="M8760 7080 c-30 -30 -26 -59 13 -75 23 -9 69 -12 167 -9 74 2 147 4
162 4 15 0 39 11 55 24 24 21 26 26 15 50 l-12 26 -190 0 c-177 0 -191 -1
-210 -20z"/>
<path d="M9295 7076 c-20 -30 -12 -62 18 -72 12 -4 95 -7 184 -7 136 0 166 3
188 17 21 14 26 24 23 49 l-3 32 -197 3 -197 2 -16 -24z"/>
<path d="M12510 7083 c-24 -17 -26 -46 -4 -67 13 -13 45 -16 198 -16 164 0
185 2 199 18 22 24 22 59 -1 71 -9 5 -97 9 -194 9 -137 0 -182 -4 -198 -15z"/>
<path d="M13057 7087 c-21 -7 -27 -15 -27 -37 0 -19 7 -33 19 -40 29 -15 363
-13 384 3 22 17 32 63 15 73 -18 12 -356 13 -391 1z"/>
<path d="M13580 7083 c-26 -19 -25 -48 2 -67 18 -13 55 -16 195 -16 160 0 175
2 193 20 23 23 26 55 8 67 -7 4 -95 8 -196 9 -141 1 -187 -2 -202 -13z"/>
<path d="M14123 7090 c-17 -7 -23 -18 -23 -40 0 -44 25 -50 216 -50 162 0 165
0 189 25 29 28 31 38 9 59 -13 13 -44 16 -192 15 -97 0 -187 -4 -199 -9z"/>
<path d="M14642 7088 c-19 -19 -14 -55 10 -72 18 -13 55 -16 193 -16 185 0
215 8 215 54 0 43 -13 46 -215 46 -135 0 -195 -4 -203 -12z"/>
<path d="M15183 7092 c-6 -4 -14 -19 -18 -34 -12 -49 19 -58 207 -60 142 -2
168 0 191 15 29 19 36 54 15 75 -13 13 -374 17 -395 4z"/>
<path d="M15716 7084 c-22 -21 -20 -50 4 -74 18 -18 33 -20 180 -20 123 0 168
4 190 15 34 17 45 46 30 75 -10 19 -20 20 -200 20 -158 0 -191 -3 -204 -16z"/>
<path d="M16253 7088 c-23 -30 -23 -49 2 -74 24 -24 27 -24 194 -24 l170 0 26
27 c30 33 31 37 5 63 -19 19 -33 20 -204 20 -135 0 -186 -3 -193 -12z"/>
<path d="M16790 7083 c-26 -18 -26 -55 1 -79 19 -17 38 -19 190 -18 163 1 170
1 194 24 31 29 32 55 3 74 -33 20 -358 20 -388 -1z"/>
<path d="M17354 7091 c-24 -4 -54 -30 -54 -46 0 -7 8 -23 18 -35 17 -21 26
-22 190 -25 158 -3 174 -1 197 17 27 21 33 59 12 77 -13 10 -317 21 -363 12z"/>
<path d="M7755 7080 l-90 -5 -3 -31 c-5 -53 7 -56 213 -52 171 3 188 5 201 22
19 27 18 63 -4 70 -18 6 -170 4 -317 -4z"/>
<path d="M8218 7079 c-11 -6 -18 -22 -18 -40 0 -43 26 -49 219 -46 150 2 171
4 190 21 12 11 21 31 21 48 l0 28 -197 0 c-116 0 -205 -5 -215 -11z"/>
<path d="M17856 7068 c-21 -29 -20 -44 3 -67 17 -17 36 -19 195 -20 168 -1
176 0 196 21 26 28 25 53 -2 72 -18 13 -55 16 -200 16 -171 0 -177 -1 -192
-22z"/>
<path d="M18390 7062 c-26 -32 -25 -36 7 -62 26 -20 36 -21 205 -18 163 3 178
5 192 23 9 11 16 28 16 37 0 34 -39 41 -223 43 l-178 2 -19 -25z"/>
<path d="M2461 7072 c-101 -1 -170 -7 -178 -13 -7 -7 -13 -22 -13 -36 0 -41
44 -51 221 -49 139 1 159 3 178 20 20 19 29 61 14 69 -18 10 -67 12 -222 9z"/>
<path d="M2980 7073 c-133 -3 -146 -5 -162 -24 -50 -60 -3 -78 193 -77 183 1
208 9 209 69 0 30 -17 40 -63 37 -18 -1 -97 -4 -177 -5z"/>
<path d="M3366 7065 c-27 -13 -32 -51 -11 -75 15 -17 34 -19 185 -19 155 -1
169 0 194 20 28 22 35 62 14 76 -19 12 -358 10 -382 -2z"/>
<path d="M3917 7072 c-38 -5 -54 -45 -32 -78 15 -24 18 -24 190 -24 l174 0 26
27 c27 30 32 57 13 70 -12 8 -312 12 -371 5z"/>
<path d="M4430 7063 c-26 -19 -27 -69 -1 -83 25 -13 331 -13 365 0 34 13 52
50 37 78 -11 20 -19 21 -196 20 -140 -1 -190 -5 -205 -15z"/>
<path d="M4969 7062 c-23 -16 -25 -64 -5 -81 10 -9 66 -11 195 -9 172 3 182 4
203 26 21 21 22 24 8 49 l-15 27 -184 1 c-136 0 -189 -3 -202 -13z"/>
<path d="M5540 7070 c-27 -4 -37 -11 -44 -33 -7 -19 -7 -34 0 -45 10 -15 34
-17 181 -20 97 -1 182 2 197 8 35 13 53 58 31 79 -13 13 -43 16 -173 16 -86 0
-173 -2 -192 -5z"/>
<path d="M6059 7066 c-17 -8 -25 -22 -27 -44 -5 -48 22 -54 222 -49 161 4 171
5 188 27 21 26 23 55 6 66 -22 14 -363 14 -389 0z"/>
<path d="M6603 7068 c-12 -6 -24 -22 -28 -35 -12 -49 2 -53 201 -53 171 0 185
1 204 20 24 24 26 65 4 74 -27 10 -358 5 -381 -6z"/>
<path d="M7130 7060 c-24 -24 -25 -43 -3 -61 13 -11 56 -13 202 -11 201 4 210
6 214 58 l2 29 -197 3 c-187 2 -199 1 -218 -18z"/>
<path d="M1222 7058 c-17 -17 -15 -65 2 -71 8 -3 94 -7 190 -8 195 -2 209 2
204 55 l-3 31 -190 3 c-140 2 -194 -1 -203 -10z"/>
<path d="M1758 7059 c-10 -5 -18 -20 -18 -33 0 -45 19 -49 205 -49 157 0 177
1 195 18 13 12 20 29 18 44 l-3 26 -190 2 c-117 2 -197 -1 -207 -8z"/>
<path d="M12075 6833 c-117 -26 -192 -51 -254 -85 -172 -95 -297 -277 -347
-506 -23 -103 -25 -131 -20 -232 8 -144 24 -209 87 -348 16 -34 29 -68 30 -75
1 -38 146 -246 224 -320 89 -86 166 -121 295 -133 167 -16 389 91 555 268 126
134 162 231 150 405 l-7 102 34 58 c56 94 63 119 62 228 -1 239 -135 450 -356
558 -130 64 -220 87 -338 86 -52 -1 -104 -3 -115 -6z m319 -112 c95 -34 211
-107 267 -169 86 -94 140 -234 138 -360 -1 -69 -20 -147 -35 -147 -7 0 -32 39
-56 86 -43 83 -140 209 -161 209 -17 0 -47 -32 -47 -49 0 -9 26 -48 58 -87 66
-80 97 -140 113 -215 9 -42 8 -53 -5 -72 -48 -67 -47 -63 -35 -91 10 -21 19
-26 46 -26 l34 0 -7 -67 c-11 -121 -32 -179 -100 -273 -32 -44 -133 -140 -149
-140 -3 0 -23 -11 -43 -25 -20 -14 -47 -25 -59 -25 -25 0 -107 -40 -83 -40 11
-1 10 -4 -4 -15 -11 -8 -29 -15 -40 -14 -19 0 -18 1 4 12 21 9 6 12 -95 18
-136 7 -167 15 -235 59 -54 35 -167 150 -204 208 -79 126 -146 300 -167 432
-43 278 90 592 310 732 107 67 196 88 366 84 102 -3 143 -8 189 -25z m-197
-1527 c-3 -3 -12 -4 -19 -1 -8 3 -5 6 6 6 11 1 17 -2 13 -5z m-79 -11 c-10 -2
-26 -2 -35 0 -10 3 -2 5 17 5 19 0 27 -2 18 -5z"/>
<path d="M14307 6690 c-80 -27 -165 -80 -219 -137 -166 -178 -169 -527 -6
-833 99 -186 189 -306 310 -409 174 -148 406 -197 649 -137 184 46 296 126
365 262 l39 77 0 146 c0 122 -4 160 -24 231 -57 208 -195 418 -283 434 -21 4
-38 11 -38 17 0 15 -179 191 -236 232 -65 47 -157 92 -236 117 -85 27 -240 26
-321 0z m310 -80 c119 -37 201 -88 312 -194 152 -146 241 -316 241 -459 0 -87
-73 -191 -204 -290 -33 -25 -37 -33 -34 -65 3 -33 6 -37 35 -40 28 -3 42 7
122 85 122 120 156 189 156 318 0 77 -5 99 -28 149 -15 32 -27 63 -27 70 1 21
51 -48 85 -117 69 -138 99 -281 93 -433 -4 -86 -9 -110 -35 -166 -68 -146
-209 -228 -436 -254 -73 -8 -183 4 -201 22 -17 16 -40 19 -31 4 12 -19 -8 -10
-42 20 -18 17 -42 30 -51 30 -10 0 -28 7 -40 16 -16 11 -27 13 -35 6 -14 -12
-38 -1 -87 41 -49 42 -30 42 24 1 25 -21 49 -35 51 -32 3 3 -41 52 -97 109
-104 105 -193 227 -249 342 -46 95 -89 250 -95 347 -10 148 40 313 120 391
106 105 300 147 453 99z m-252 -1208 c-7 -7 -55 39 -55 52 0 5 13 -3 30 -19
16 -16 28 -31 25 -33z"/>
<path d="M10060 6665 c-7 -9 -13 -25 -14 -38 -1 -20 -9 -23 -111 -38 -147 -22
-229 -45 -296 -86 -113 -67 -170 -158 -177 -284 -4 -76 -3 -81 37 -161 41 -81
81 -153 98 -173 104 -128 285 -290 372 -334 74 -38 148 -53 224 -46 209 19
351 111 450 289 50 92 67 155 67 247 0 125 -50 234 -165 359 -30 33 -55 64
-55 69 0 5 -21 30 -47 55 -43 43 -114 76 -161 76 -8 0 -52 18 -99 40 -96 45
-105 47 -123 25z m244 -187 c63 -37 103 -71 221 -186 45 -43 92 -144 100 -213
9 -72 -14 -162 -62 -249 -44 -80 -82 -125 -143 -168 -108 -77 -316 -81 -457
-10 -23 11 -82 54 -130 94 -211 174 -317 383 -271 535 41 140 271 236 567 238
l105 1 70 -42z"/>
<path d="M6063 6588 c-6 -7 -13 -74 -16 -148 -4 -74 -13 -187 -22 -250 -21
-153 -22 -608 -1 -764 8 -60 13 -113 11 -117 -3 -4 2 -12 9 -18 8 -7 16 -8 19
-4 2 4 5 67 6 138 3 249 19 573 32 665 44 309 49 414 21 470 -18 37 -43 49
-59 28z"/>
<path d="M16501 6491 c-27 -27 -26 -49 4 -146 14 -44 34 -134 45 -200 27 -176
56 -320 100 -500 57 -235 69 -318 80 -540 5 -110 12 -210 16 -222 8 -28 27
-35 51 -18 17 12 18 31 17 242 -1 247 1 235 -84 634 -22 102 -53 271 -69 375
-27 171 -71 359 -89 375 -21 19 -52 19 -71 0z"/>
<path d="M8285 6403 c-16 -2 -51 -10 -76 -18 -31 -9 -51 -10 -63 -3 -24 13
-43 4 -64 -31 -10 -16 -41 -47 -69 -68 -51 -38 -145 -136 -194 -203 -100 -135
-134 -308 -89 -454 16 -51 33 -79 77 -126 57 -62 89 -81 203 -119 159 -55 348
-39 464 38 105 70 192 194 217 310 33 153 -11 292 -124 398 -35 33 -86 71
-113 85 -122 65 -138 75 -142 86 -2 8 12 12 45 12 51 0 73 12 73 40 0 39 -70
65 -145 53z m-76 -126 c9 -7 45 -30 81 -52 170 -101 288 -215 311 -298 16 -61
6 -193 -20 -251 -25 -57 -86 -143 -121 -171 -42 -34 -145 -57 -255 -57 -81 0
-117 5 -190 27 -49 15 -106 38 -127 51 -110 70 -131 266 -46 436 41 81 160
205 255 265 40 26 73 50 73 55 0 12 21 10 39 -5z"/>
<path d="M18490 6131 c-15 -29 -12 -67 6 -82 53 -44 55 -104 10 -298 -73 -306
-66 -564 17 -754 21 -46 29 -55 46 -50 27 7 29 25 12 113 -9 49 -14 148 -15
290 -1 209 0 218 32 350 17 74 35 169 38 211 6 69 4 82 -20 135 -15 32 -37 69
-48 81 -26 28 -64 30 -78 4z"/>
<path d="M31145 5684 c-49 -7 -119 -20 -155 -29 -77 -19 -429 -132 -448 -144
-8 -4 -12 -19 -10 -32 5 -40 51 -35 235 26 147 49 218 69 376 104 20 5 39 5
42 1 3 -4 -22 -43 -55 -86 -33 -44 -86 -113 -117 -154 -252 -332 -481 -783
-547 -1078 -17 -79 -15 -92 14 -92 14 0 23 14 35 58 111 389 345 807 688 1230
96 119 119 179 78 202 -23 12 -21 12 -136 -6z"/>
<path d="M29495 5326 c-36 -16 -91 -75 -137 -147 -34 -55 -45 -75 -93 -184
-51 -115 -84 -304 -86 -499 -1 -63 -6 -102 -15 -113 -22 -29 -17 -62 10 -73
14 -5 32 -26 42 -46 43 -91 123 -138 220 -131 121 9 232 99 370 302 93 136
139 281 111 347 -8 18 -27 44 -42 58 -23 22 -36 25 -91 24 -54 -1 -77 -7 -147
-42 -103 -52 -224 -151 -302 -247 -33 -41 -66 -74 -72 -74 -9 -1 -11 15 -7 62
18 204 51 333 124 482 63 128 104 183 160 213 28 15 35 25 35 48 0 24 -5 29
-25 31 -14 2 -38 -3 -55 -11z m335 -566 c34 -21 5 -145 -58 -254 -105 -180
-239 -296 -342 -296 -72 0 -126 42 -151 118 -6 20 -18 44 -25 52 -11 14 -1 29
74 110 166 179 322 280 432 280 30 0 62 -5 70 -10z"/>
<path d="M21225 4841 c-86 -21 -156 -118 -140 -193 22 -100 80 -139 268 -182
43 -10 107 -73 107 -106 0 -39 -39 -92 -75 -102 -42 -11 -125 1 -157 24 -15
10 -32 35 -39 56 -6 20 -16 43 -22 50 -12 15 -63 16 -72 2 -6 -10 -9 -99 -6
-172 1 -33 33 -46 64 -25 20 13 28 13 62 1 60 -21 147 -28 187 -15 47 16 104
68 123 113 19 47 19 111 0 147 -19 37 -93 101 -116 101 -10 0 -41 9 -69 20
-28 11 -62 20 -76 20 -36 0 -94 59 -94 97 0 65 68 103 151 84 47 -11 70 -33
99 -98 21 -46 25 -48 64 -33 25 9 26 12 26 94 0 64 -4 88 -16 100 -18 19 -28
20 -55 5 -15 -8 -37 -6 -83 5 -67 17 -84 18 -131 7z"/>
<path d="M21627 4632 c-26 -28 -21 -47 21 -80 l37 -30 3 -129 c2 -76 9 -141
17 -160 19 -46 67 -68 143 -65 96 3 113 3 166 -4 51 -7 96 8 96 32 0 7 -16 25
-35 40 l-35 26 0 163 c0 149 -2 164 -21 189 -36 46 -139 32 -139 -19 0 -16 10
-30 30 -42 35 -20 37 -26 44 -146 8 -113 -6 -153 -58 -162 -45 -9 -103 10
-112 37 -3 11 -7 87 -8 170 l-1 150 -28 24 c-35 30 -96 33 -120 6z"/>
<path d="M22152 4618 c-17 -17 -15 -35 9 -67 18 -25 22 -47 26 -157 5 -126 5
-130 -21 -167 -14 -21 -26 -40 -26 -42 0 -10 61 -35 85 -35 31 0 75 27 75 46
0 7 -11 29 -24 48 -21 32 -24 45 -22 128 2 51 6 107 10 124 14 56 72 68 98 21
17 -33 12 -267 -7 -287 -46 -51 28 -101 99 -69 36 17 39 37 11 71 -21 25 -25
41 -27 101 -5 163 9 211 60 205 41 -5 51 -38 53 -176 2 -101 -1 -125 -15 -140
-24 -28 -19 -50 16 -68 26 -13 38 -14 69 -5 50 15 65 42 44 75 -9 13 -22 27
-30 30 -11 4 -14 35 -14 147 0 145 -4 160 -46 203 -21 21 -75 21 -120 -1 -34
-16 -36 -16 -73 5 -33 18 -44 20 -76 11 -26 -7 -47 -7 -68 0 -41 14 -71 14
-86 -1z"/>
<path d="M9231 4047 c-12 -15 -5 -27 16 -27 7 0 13 9 13 20 0 23 -13 26 -29 7z"/>
<path d="M8955 4030 c-8 -13 4 -32 16 -25 12 8 12 35 0 35 -6 0 -13 -4 -16
-10z"/>
<path d="M9304 3969 c-9 -15 12 -33 30 -26 9 4 16 13 16 22 0 17 -35 21 -46 4z"/>
<path d="M6340 3805 c-7 -8 -19 -15 -26 -15 -8 0 -11 -6 -8 -15 8 -21 28 -19
49 5 13 14 15 24 8 31 -7 7 -14 5 -23 -6z"/>
<path d="M10030 2745 c-12 -14 -11 -21 4 -43 48 -75 87 -214 100 -362 3 -36
12 -102 20 -145 8 -44 19 -127 26 -185 16 -143 59 -235 94 -200 5 5 13 41 17
79 16 148 92 339 161 403 41 38 43 58 6 58 -52 0 -145 -136 -193 -282 -31 -93
-37 -82 -55 92 -39 384 -53 453 -109 548 -30 51 -50 62 -71 37z"/>
<path d="M10510 2334 c0 -8 16 -22 35 -30 19 -8 35 -20 35 -28 0 -7 7 -19 15
-26 13 -10 15 -9 15 8 0 12 -5 33 -12 47 -9 20 -17 25 -34 21 -14 -4 -24 -1
-28 9 -7 20 -26 19 -26 -1z"/>
<path d="M10611 2204 c0 -11 3 -14 6 -6 3 7 2 16 -1 19 -3 4 -6 -2 -5 -13z"/>
<path d="M10594 2090 c3 -14 6 -31 6 -37 0 -7 5 -13 11 -13 13 0 3 50 -13 65
-8 7 -9 2 -4 -15z"/>
<path d="M10604 2005 c-7 -29 4 -148 17 -182 5 -14 17 -23 30 -23 18 0 20 4
14 23 -15 51 -27 114 -26 141 3 60 -23 90 -35 41z"/>
<path d="M2245 1819 c-55 -5 -162 -7 -238 -4 -145 5 -177 -1 -177 -34 0 -32
25 -44 79 -36 103 14 110 0 103 -205 -5 -181 -5 -155 -4 -300 1 -63 -1 -133
-4 -155 -8 -53 -8 -56 1 -157 7 -85 6 -88 -20 -114 -23 -23 -31 -25 -70 -20
-23 4 -55 4 -69 0 -23 -5 -27 -11 -24 -38 l3 -31 305 0 c348 0 432 6 521 36
72 24 147 87 182 154 26 50 28 193 2 207 -8 5 -15 15 -15 23 0 37 -62 75 -192
119 -33 10 -20 40 30 66 26 14 68 44 93 68 39 35 48 52 58 100 9 41 10 65 2
85 -6 16 -11 39 -11 53 0 16 -19 43 -59 83 -68 68 -116 86 -260 102 -95 10
-94 10 -236 -2z m313 -100 c62 -35 81 -68 83 -146 2 -120 -6 -143 -73 -200
-50 -43 -59 -45 -258 -58 -30 -1 -66 -7 -80 -12 -35 -13 -69 -2 -85 26 -10 20
-10 30 3 60 12 29 13 63 9 169 -6 126 -5 136 15 163 l22 29 156 -1 c154 0 157
-1 208 -30z m-260 -466 c31 -3 113 -6 180 -7 l124 -1 25 -45 c14 -25 35 -70
45 -100 17 -48 18 -60 7 -95 -7 -22 -11 -50 -10 -62 2 -15 -13 -36 -45 -67
-55 -51 -96 -65 -218 -71 -44 -3 -115 -7 -156 -10 -65 -5 -78 -3 -92 12 -21
24 -33 83 -19 93 13 7 17 236 6 281 -4 17 -1 30 9 38 9 8 16 19 16 27 0 20 31
34 53 23 10 -6 43 -13 75 -16z"/>
<path d="M4821 1801 c-56 -6 -79 -25 -68 -55 4 -9 16 -16 27 -16 11 0 32 -7
45 -16 l25 -16 0 -428 0 -429 -26 -20 c-15 -12 -37 -21 -50 -21 -28 0 -52 -36
-35 -53 17 -17 311 -17 339 0 23 14 23 15 6 34 -9 10 -29 19 -44 19 -59 0 -59
-4 -55 433 3 219 7 434 10 477 6 72 4 80 -14 89 -20 11 -68 12 -160 2z"/>
<path d="M10675 1800 c-7 -12 2 -30 16 -30 12 0 12 27 0 35 -5 3 -12 1 -16 -5z"/>
<path d="M9113 1793 c-46 -4 -54 -7 -59 -28 -8 -31 2 -45 30 -45 13 0 34 -9
47 -19 l24 -19 -2 -432 c-2 -393 -3 -434 -19 -451 -9 -10 -27 -19 -39 -19 -30
0 -58 -23 -54 -45 4 -18 14 -19 164 -16 92 2 165 7 172 13 7 6 13 19 13 29 0
14 -7 19 -28 19 -16 0 -37 6 -47 14 -18 13 -19 34 -17 457 1 244 5 458 8 475
3 18 1 41 -5 53 -12 22 -40 24 -188 14z"/>
<path d="M11190 1791 c-83 -6 -85 -7 -88 -33 -3 -29 25 -53 50 -43 8 3 24 -5
37 -19 l23 -24 -6 -419 c-2 -230 -8 -432 -12 -450 -18 -86 34 -112 96 -48 19
19 39 35 44 35 6 0 31 -16 55 -35 44 -35 122 -65 170 -65 14 0 62 12 105 27
101 36 180 108 213 195 86 223 -14 436 -233 497 -78 22 -81 22 -135 5 -30 -9
-63 -25 -74 -34 -11 -10 -31 -23 -44 -30 -34 -17 -52 8 -46 64 9 87 15 365 7
369 -16 11 -81 14 -162 8z m440 -461 c42 -21 85 -78 96 -127 4 -15 9 -70 11
-122 7 -125 -10 -206 -51 -246 -54 -53 -80 -65 -149 -65 -52 0 -71 5 -108 28
-72 47 -70 40 -72 259 -2 193 -1 199 21 228 50 64 172 86 252 45z"/>
<path d="M3320 1441 c-8 -5 -41 -14 -72 -21 -100 -23 -188 -112 -210 -215 -21
-100 -21 -188 1 -252 12 -34 21 -69 21 -77 0 -7 10 -20 23 -29 12 -8 33 -25
47 -38 30 -29 105 -57 185 -70 167 -25 351 72 400 212 20 56 18 180 -3 254
-17 59 -56 129 -83 151 -32 26 -141 76 -171 79 -18 2 -53 6 -78 9 -25 4 -52 2
-60 -3z m124 -73 c22 -7 45 -18 49 -25 4 -7 14 -13 21 -13 26 0 57 -90 59
-170 5 -217 -20 -294 -110 -339 -51 -26 -134 -36 -165 -20 -106 56 -132 118
-123 308 4 102 9 129 29 169 29 57 40 67 92 86 49 18 95 19 148 4z"/>
<path d="M4118 1417 c-73 -26 -83 -32 -140 -92 -26 -28 -44 -60 -58 -105 -33
-111 -28 -257 12 -318 14 -20 27 -44 30 -53 20 -52 178 -119 279 -119 122 1
231 47 290 122 66 82 73 104 73 215 0 64 -5 112 -13 130 -8 15 -21 44 -30 63
-25 55 -107 127 -169 150 -30 12 -89 23 -131 26 -63 4 -88 0 -143 -19z m248
-79 c61 -39 75 -78 79 -216 4 -143 -12 -222 -52 -264 -56 -60 -131 -78 -211
-52 -75 25 -102 58 -123 156 -10 45 -16 85 -13 89 2 4 6 46 8 93 4 108 32 170
91 204 56 32 161 27 221 -10z"/>
<path d="M5485 1434 c-121 -27 -195 -63 -243 -118 -34 -39 -72 -143 -77 -213
-7 -100 39 -227 104 -286 49 -44 65 -52 143 -77 78 -24 144 -25 223 -2 48 14
71 28 118 74 63 62 75 101 35 114 -18 5 -30 -3 -67 -45 -26 -28 -66 -59 -91
-71 -56 -24 -161 -28 -180 -5 -7 8 -19 15 -27 15 -21 0 -62 49 -89 107 -25 57
-24 103 4 135 10 13 12 21 4 30 -37 45 -11 163 50 225 78 81 204 59 261 -46
29 -52 37 -134 15 -147 -6 -4 -64 -8 -127 -9 -115 -2 -151 -8 -151 -26 0 -22
64 -31 216 -31 103 0 168 3 182 11 46 25 38 92 -27 233 -25 53 -51 74 -131
105 -60 24 -114 34 -145 27z"/>
<path d="M6210 1427 c-3 -3 -28 -7 -56 -10 -61 -6 -125 -37 -147 -71 -22 -33
-22 -86 1 -125 15 -29 21 -31 62 -29 38 3 48 8 67 37 17 26 21 42 17 70 -9 54
19 76 86 67 65 -9 105 -33 141 -88 23 -35 29 -54 29 -99 0 -54 -2 -57 -27 -64
-16 -4 -62 -9 -105 -11 -152 -6 -284 -67 -327 -151 -28 -55 -5 -142 47 -179
37 -26 143 -54 201 -54 46 0 66 6 104 30 45 28 60 50 35 50 -6 0 -39 -5 -74
-11 -55 -10 -67 -8 -108 10 -35 15 -50 29 -62 56 -13 33 -13 39 4 78 11 23 28
50 40 60 21 20 159 76 205 84 31 6 65 -18 66 -45 0 -10 3 -32 7 -50 3 -18 2
-38 -4 -45 -6 -6 -13 -32 -17 -57 -6 -43 -4 -48 32 -87 45 -48 85 -63 164 -63
48 0 60 4 73 22 19 27 5 48 -31 48 -13 0 -37 7 -53 15 l-30 16 -2 192 c0 105
0 201 1 211 1 11 -5 26 -12 35 -7 9 -19 27 -25 41 -18 35 -84 79 -145 97 -54
16 -149 28 -157 20z"/>
<path d="M7255 1423 c-106 -12 -111 -14 -157 -56 -25 -23 -51 -52 -57 -64 -25
-49 -57 -14 -46 49 10 58 -2 63 -117 60 -108 -3 -131 -12 -126 -46 2 -14 14
-23 40 -29 69 -16 69 -19 68 -268 -1 -251 -5 -272 -58 -277 -39 -4 -75 -48
-52 -62 8 -5 90 -9 182 -9 155 0 168 1 178 19 12 22 3 30 -50 45 -49 15 -55
42 -54 249 1 151 4 182 20 216 10 22 24 40 30 40 6 0 18 8 28 18 9 11 40 27
70 37 65 22 109 14 140 -28 19 -25 21 -47 27 -250 8 -252 7 -256 -63 -279 -35
-12 -43 -19 -43 -39 l0 -24 175 0 175 0 3 24 c4 29 -12 41 -55 41 -17 0 -35 5
-38 10 -4 6 -7 117 -9 248 -2 220 -3 240 -23 277 -12 22 -32 47 -45 55 -20 13
-113 53 -113 48 0 0 -13 -3 -30 -5z"/>
<path d="M8428 1406 c-106 -20 -154 -64 -152 -140 2 -76 83 -112 138 -61 25
23 30 45 26 107 -1 18 5 30 21 38 32 18 124 7 157 -17 41 -30 79 -93 85 -141
4 -35 1 -48 -19 -71 -29 -35 -30 -47 -5 -60 13 -7 20 -25 23 -53 5 -49 -9
-137 -24 -155 -10 -13 6 -53 22 -53 5 0 24 -15 42 -34 31 -33 37 -35 108 -37
103 -3 107 -2 113 22 9 34 -3 49 -39 49 -19 0 -46 7 -60 16 l-25 17 5 171 c8
260 -14 321 -139 381 -62 30 -181 39 -277 21z"/>
<path d="M10088 1406 c-48 -25 -126 -44 -136 -34 -31 31 -242 41 -303 14 -82
-35 -130 -99 -143 -188 -6 -41 -3 -57 23 -112 32 -65 37 -87 24 -100 -5 -4
-13 -35 -19 -69 -11 -57 -10 -67 14 -131 l25 -68 -53 -49 -53 -48 6 -67 c6
-77 30 -110 112 -149 46 -22 257 -61 274 -51 3 3 44 10 90 16 183 25 274 115
252 250 -18 109 -71 155 -204 177 -90 15 -132 17 -271 12 -68 -2 -71 -1 -97
30 -30 36 -43 94 -28 122 12 24 54 35 82 21 74 -34 105 -36 195 -13 97 24 134
51 170 125 27 53 27 98 2 155 -26 56 -26 97 -1 111 32 16 39 12 62 -32 25 -49
35 -58 66 -58 24 0 63 43 63 71 0 9 -12 31 -26 48 -29 35 -78 42 -126 17z
m-249 -61 c16 -8 40 -28 55 -45 22 -27 26 -41 26 -95 0 -34 -3 -77 -6 -95 -10
-46 -63 -96 -111 -103 -44 -7 -113 8 -113 25 0 6 -7 19 -15 28 -11 12 -16 42
-17 106 -2 117 21 163 89 184 42 12 61 12 92 -5z m133 -675 c82 0 133 -66 104
-135 -18 -42 -78 -92 -126 -105 -97 -26 -243 -7 -311 41 -40 28 -60 87 -48
135 19 70 32 75 193 69 77 -3 162 -5 188 -5z"/>
<path d="M10585 1411 c-129 -32 -200 -98 -240 -222 -24 -74 -26 -94 -21 -167
8 -103 32 -158 95 -222 38 -38 63 -52 127 -73 100 -33 152 -36 238 -12 54 15
79 29 121 67 61 55 84 100 65 123 -23 27 -48 16 -90 -39 -65 -86 -175 -119
-267 -81 -46 19 -67 38 -104 93 -35 52 -42 126 -15 167 16 24 16 28 2 44 -37
41 1 170 67 227 34 29 48 34 90 34 97 0 156 -54 179 -162 18 -84 12 -88 -131
-86 -166 2 -225 -15 -143 -41 59 -19 134 -28 172 -19 19 4 71 5 115 1 73 -5
83 -3 109 17 32 27 32 46 -5 164 -17 53 -32 79 -65 111 -71 70 -195 101 -299
76z"/>
<path d="M12111 1401 c-62 -5 -87 -10 -94 -22 -16 -26 -1 -47 42 -59 22 -6 44
-16 48 -23 4 -6 9 -120 9 -252 1 -262 -1 -275 -56 -275 -14 0 -35 -6 -46 -14
-15 -12 -17 -18 -8 -33 10 -16 28 -18 155 -19 80 -1 158 -4 175 -8 23 -5 36
-2 48 9 39 39 5 77 -62 68 -60 -9 -64 2 -61 176 1 85 6 178 11 205 5 28 10 67
12 86 3 26 14 44 47 72 65 56 95 49 91 -20 -3 -36 28 -96 54 -106 32 -12 57
-5 84 24 71 76 26 175 -89 195 -54 9 -125 -26 -164 -81 -17 -24 -34 -44 -38
-44 -12 0 -19 29 -19 75 0 42 -13 58 -43 53 -7 -1 -50 -4 -96 -7z"/>
<path d="M12865 1391 c-88 -24 -125 -62 -125 -129 0 -35 6 -49 29 -73 37 -37
62 -37 103 0 30 26 33 36 38 98 l5 68 55 -3 c77 -4 138 -42 169 -106 29 -57
31 -121 7 -158 -16 -24 -16 -29 -1 -51 23 -35 23 -143 1 -186 l-18 -35 26 -19
c14 -10 26 -24 26 -31 0 -29 40 -48 122 -58 104 -12 141 -1 136 40 -3 25 -7
27 -55 32 -28 3 -55 9 -60 14 -4 4 -10 108 -13 230 l-5 223 -29 42 c-16 23
-41 50 -55 60 -82 56 -235 74 -356 42z"/>
<path d="M0 1016 c0 -87 3 -107 12 -98 15 15 14 162 -1 189 -8 13 -10 -10 -11
-91z"/>
<path d="M8460 1086 c-74 -17 -176 -72 -202 -109 -33 -46 -37 -143 -8 -180 42
-54 177 -96 264 -82 60 10 145 61 146 88 0 10 -48 9 -54 -2 -7 -11 -82 -25
-116 -23 -103 9 -146 110 -80 186 32 36 158 96 203 96 30 0 40 10 26 27 -14
16 -103 16 -179 -1z"/>
<path d="M12935 1076 c-157 -45 -225 -94 -244 -173 -21 -87 8 -135 108 -181
45 -21 72 -26 136 -26 82 0 110 8 153 47 19 18 31 57 17 57 -2 0 -30 -11 -61
-25 -56 -25 -59 -25 -104 -10 -161 54 -114 220 75 264 57 14 90 35 80 50 -8
14 -108 12 -160 -3z"/>
<path d="M7666 243 c-11 -11 -6 -23 9 -23 8 0 15 4 15 9 0 13 -16 22 -24 14z"/>
<path d="M7590 230 c0 -5 7 -10 16 -10 8 0 12 5 9 10 -3 6 -10 10 -16 10 -5 0
-9 -4 -9 -10z"/>
<path d="M7806 231 c-3 -5 1 -11 9 -15 15 -6 29 7 18 18 -9 9 -21 8 -27 -3z"/>
<path d="M7942 218 c5 -15 28 -18 29 -3 0 6 -7 12 -17 13 -10 3 -15 -1 -12
-10z"/>
<path d="M8010 220 c0 -5 5 -10 11 -10 5 0 7 5 4 10 -3 6 -8 10 -11 10 -2 0
-4 -4 -4 -10z"/>
<path d="M8940 218 c0 -4 14 -8 30 -8 17 0 30 4 30 8 0 5 -13 9 -30 9 -16 0
-30 -4 -30 -9z"/>
<path d="M9088 223 c-19 -5 -24 -18 -9 -27 10 -6 61 16 61 27 0 7 -23 8 -52 0z"/>
<path d="M9200 220 c-12 -7 -10 -11 10 -18 27 -11 47 -1 36 17 -9 13 -26 14
-46 1z"/>
<path d="M9330 215 c0 -19 24 -29 48 -20 16 6 16 7 -2 21 -26 18 -46 18 -46
-1z"/>
<path d="M10555 220 c-16 -4 -69 -5 -116 -2 -54 3 -88 1 -93 -6 -4 -6 26 -13
86 -17 122 -9 162 -5 166 18 4 18 3 18 -43 7z"/>
<path d="M10642 219 c-13 -5 -21 -13 -17 -19 7 -11 85 -8 85 3 0 4 -3 7 -7 8
-5 1 -15 4 -23 9 -8 4 -25 4 -38 -1z"/>
<path d="M11201 217 c-15 -18 4 -27 59 -27 41 0 62 15 33 24 -56 15 -80 16
-92 3z"/>
<path d="M9415 210 c-4 -6 5 -10 20 -10 15 0 24 4 20 10 -3 6 -12 10 -20 10
-8 0 -17 -4 -20 -10z"/>
<path d="M9475 210 c-3 -5 -1 -10 4 -10 6 0 11 5 11 10 0 6 -2 10 -4 10 -3 0
-8 -4 -11 -10z"/>
<path d="M9857 213 c-10 -9 -9 -23 2 -23 5 0 11 7 15 15 5 15 -5 20 -17 8z"/>
<path d="M9896 211 c-3 -5 1 -12 10 -15 21 -8 56 3 49 15 -8 12 -52 12 -59 0z"/>
<path d="M10054 205 c22 -17 52 -20 60 -6 7 11 -18 21 -52 21 -26 -1 -26 -1
-8 -15z"/>
<path d="M10162 204 c9 -9 21 -13 27 -10 20 13 11 26 -16 26 -25 0 -26 -1 -11
-16z"/>
<path d="M10230 210 c0 -16 27 -23 55 -16 39 10 29 26 -15 26 -22 0 -40 -5
-40 -10z"/>
<path d="M10792 208 c6 -19 80 -21 119 -4 34 14 33 14 -44 15 -59 1 -78 -2
-75 -11z"/>
<path d="M11030 205 c0 -13 10 -15 50 -13 67 4 69 22 3 26 -43 2 -53 0 -53
-13z"/>
<path d="M11465 210 c-4 -6 8 -10 30 -10 22 0 34 4 30 10 -3 6 -17 10 -30 10
-13 0 -27 -4 -30 -10z"/>
<path d="M11600 210 c0 -5 9 -10 21 -10 11 0 17 5 14 10 -3 6 -13 10 -21 10
-8 0 -14 -4 -14 -10z"/>
<path d="M11715 211 c-16 -7 -13 -9 18 -15 38 -7 57 -2 57 15 0 11 -47 11 -75
0z"/>
<path d="M11930 210 c0 -5 5 -10 11 -10 5 0 7 5 4 10 -3 6 -8 10 -11 10 -2 0
-4 -4 -4 -10z"/>
<path d="M11975 210 c-3 -5 1 -10 9 -10 9 0 16 5 16 10 0 6 -4 10 -9 10 -6 0
-13 -4 -16 -10z"/>
<path d="M12930 210 c0 -5 5 -10 11 -10 5 0 7 5 4 10 -3 6 -8 10 -11 10 -2 0
-4 -4 -4 -10z"/>
<path d="M11380 200 c0 -5 15 -10 33 -10 24 0 28 3 17 10 -20 13 -50 13 -50 0z"/>
<path d="M11665 200 c3 -5 10 -10 16 -10 5 0 9 5 9 10 0 6 -7 10 -16 10 -8 0
-12 -4 -9 -10z"/>
<path d="M12110 200 c20 -13 50 -13 50 0 0 6 -15 10 -32 10 -25 0 -29 -3 -18
-10z"/>
<path d="M14393 198 c-72 -15 -50 -30 40 -26 49 2 81 7 79 13 -2 6 -10 9 -19
8 -9 -1 -26 2 -37 6 -12 4 -40 4 -63 -1z"/>
<path d="M14577 203 c-16 -3 -27 -9 -25 -15 4 -12 128 -14 128 -2 0 5 -9 9
-19 9 -11 0 -23 3 -27 8 -4 4 -12 6 -18 6 -6 -1 -24 -4 -39 -6z"/>
<path d="M14752 203 c-13 -2 -21 -10 -19 -16 3 -9 115 -12 443 -11 241 0 466
1 499 2 33 1 159 0 280 -2 161 -2 225 0 238 9 13 9 14 14 5 17 -11 4 -934 2
-1258 -2 -64 -1 -127 1 -140 3 -14 3 -35 3 -48 0z"/>
<path d="M16310 194 c0 -7 18 -14 40 -16 31 -3 40 0 40 12 0 12 -10 16 -40 15
-23 0 -40 -5 -40 -11z"/>
<path d="M16490 200 c-21 -13 1 -33 31 -28 32 4 39 38 7 38 -13 0 -30 -5 -38
-10z"/>
<path d="M13417 194 c-13 -13 -7 -24 14 -24 11 0 19 5 17 12 -5 14 -22 21 -31
12z"/>
<path d="M13895 190 c4 -6 11 -8 16 -5 14 9 11 15 -7 15 -8 0 -12 -5 -9 -10z"/>
<path d="M14070 184 c0 -13 7 -15 31 -10 17 3 37 6 43 7 19 1 -27 18 -51 18
-15 1 -23 -5 -23 -15z"/>
<path d="M14174 188 c-13 -21 89 -24 139 -3 25 10 18 12 -53 11 -45 -1 -84 -4
-86 -8z"/>
<path d="M16420 190 c0 -5 5 -10 10 -10 6 0 10 5 10 10 0 6 -4 10 -10 10 -5 0
-10 -4 -10 -10z"/>
<path d="M16575 190 c-3 -5 -2 -10 4 -10 5 0 13 5 16 10 3 6 2 10 -4 10 -5 0
-13 -4 -16 -10z"/>
<path d="M16674 185 c10 -8 23 -12 28 -9 14 9 -2 24 -25 24 -21 -1 -21 -1 -3
-15z"/>
<path d="M16800 190 c0 -5 11 -10 25 -10 14 0 25 5 25 10 0 6 -11 10 -25 10
-14 0 -25 -4 -25 -10z"/>
<path d="M16900 186 c0 -9 5 -16 10 -16 6 0 10 4 10 9 0 6 -4 13 -10 16 -5 3
-10 -1 -10 -9z"/>
<path d="M16940 190 c0 -5 11 -10 24 -10 14 0 28 5 31 10 4 6 -7 10 -24 10
-17 0 -31 -4 -31 -10z"/>
<path d="M17056 191 c-3 -5 1 -12 10 -15 20 -8 29 -1 19 13 -8 13 -22 14 -29
2z"/>
<path d="M17176 191 c-4 -7 -5 -15 -2 -18 9 -9 19 4 14 18 -4 11 -6 11 -12 0z"/>
<path d="M17316 193 c-11 -11 -6 -23 9 -23 8 0 15 4 15 9 0 13 -16 22 -24 14z"/>
<path d="M17373 193 c-22 -8 -14 -23 13 -23 15 0 24 5 22 12 -5 14 -18 18 -35
11z"/>
<path d="M17562 188 c3 -7 14 -14 26 -16 16 -3 20 1 16 12 -7 19 -48 22 -42 4z"/>
<path d="M13600 180 c0 -5 6 -10 14 -10 8 0 18 5 21 10 3 6 -3 10 -14 10 -12
0 -21 -4 -21 -10z"/>
<path d="M13810 180 c0 -12 8 -12 35 0 18 8 17 9 -7 9 -16 1 -28 -3 -28 -9z"/>
<path d="M17228 183 c6 -2 18 -2 25 0 6 3 1 5 -13 5 -14 0 -19 -2 -12 -5z"/>
<path d="M17447 183 c-12 -11 -8 -23 8 -23 8 0 15 7 15 15 0 16 -12 20 -23 8z"/>
<path d="M17780 174 c0 -11 9 -14 37 -12 52 4 56 28 4 28 -30 0 -41 -4 -41
-16z"/>
<path d="M18155 182 c-13 -13 -3 -22 25 -22 17 0 30 4 30 9 0 10 -47 21 -55
13z"/>
<path d="M18510 177 c-56 -14 -20 -27 70 -24 86 3 111 9 96 24 -10 10 -128 10
-166 0z"/>
<path d="M18690 179 c0 -9 99 -23 107 -15 4 3 4 8 2 10 -8 7 -109 13 -109 5z"/>
<path d="M18973 182 c-13 -2 -23 -10 -23 -18 0 -20 103 -20 120 1 7 8 11 15 9
16 -14 3 -88 5 -106 1z"/>
<path d="M19094 178 c-10 -16 9 -25 40 -19 l28 6 -31 12 c-20 7 -33 8 -37 1z"/>
<path d="M19233 183 c-30 -3 -43 -9 -43 -19 0 -13 23 -15 168 -10 192 5 172 4
172 15 0 5 -45 9 -100 8 -55 0 -103 3 -107 6 -3 4 -16 6 -27 5 -12 -1 -40 -3
-63 -5z"/>
<path d="M19584 181 c-3 -3 -10 -6 -15 -6 -22 0 -7 -19 18 -21 34 -4 65 4 58
16 -6 10 -53 19 -61 11z"/>
<path d="M19740 182 c-41 -6 -44 -19 -5 -24 36 -4 56 7 39 21 -5 4 -20 5 -34
3z"/>
<path d="M19878 182 c-61 -2 -88 -7 -88 -15 0 -9 38 -12 148 -11 180 0 185 1
180 17 -5 12 -65 15 -240 9z"/>
<path d="M20175 174 l-30 -12 35 -6 c53 -9 213 -1 235 12 24 14 27 13 -105 16
-66 2 -116 -2 -135 -10z"/>
<path d="M20500 173 c0 -20 104 -40 116 -22 4 7 28 8 69 4 61 -7 145 8 130 23
-3 4 -76 7 -161 7 -112 0 -154 -3 -154 -12z"/>
<path d="M20846 182 c-8 -13 27 -23 93 -27 49 -4 100 9 87 22 -10 10 -174 14
-180 5z"/>
<path d="M21095 179 c-4 -5 -4 -13 -1 -17 8 -7 282 -6 294 2 6 3 30 2 56 -3
35 -6 48 -5 57 5 9 12 3 14 -37 15 -61 1 -175 0 -235 -3 -25 -1 -50 1 -55 4
-18 9 -73 8 -79 -3z"/>
<path d="M21717 184 c-10 -11 2 -24 17 -18 8 3 17 1 21 -5 8 -13 35 -15 35 -2
0 5 -8 11 -17 14 -10 2 -25 8 -34 11 -8 4 -18 4 -22 0z"/>
<path d="M26331 183 l-24 -5 24 -12 c16 -8 28 -9 36 -3 13 9 8 28 -5 26 -4 -1
-18 -4 -31 -6z"/>
<path d="M17910 170 c0 -5 9 -10 21 -10 11 0 17 5 14 10 -3 6 -13 10 -21 10
-8 0 -14 -4 -14 -10z"/>
<path d="M18085 170 c-3 -5 1 -10 10 -10 9 0 13 5 10 10 -3 6 -8 10 -10 10 -2
0 -7 -4 -10 -10z"/>
<path d="M18238 173 c6 -2 18 -2 25 0 6 3 1 5 -13 5 -14 0 -19 -2 -12 -5z"/>
<path d="M18380 170 c-11 -6 -7 -10 13 -15 29 -8 57 -1 57 13 0 12 -52 13 -70
2z"/>
<path d="M18810 170 c0 -5 7 -10 15 -10 8 0 15 5 15 10 0 6 -7 10 -15 10 -8 0
-15 -4 -15 -10z"/>
<path d="M18875 171 c-3 -5 -1 -12 5 -16 12 -7 30 2 30 16 0 12 -27 12 -35 0z"/>
<path d="M20450 171 c0 -6 5 -13 10 -16 6 -3 10 1 10 9 0 9 -4 16 -10 16 -5 0
-10 -4 -10 -9z"/>
<path d="M21045 170 c3 -5 10 -10 16 -10 5 0 9 5 9 10 0 6 -7 10 -16 10 -8 0
-12 -4 -9 -10z"/>
<path d="M21612 169 c2 -6 7 -10 11 -10 4 1 14 1 23 1 8 0 12 5 9 10 -8 13
-48 13 -43 -1z"/>
<path d="M22480 170 c0 -7 -7 -10 -14 -7 -10 4 -13 1 -10 -8 4 -9 20 -14 42
-13 21 1 43 -1 51 -3 8 -2 17 4 19 14 3 13 -3 17 -26 17 -17 0 -37 3 -46 6 -9
4 -16 1 -16 -6z"/>
<path d="M22656 172 c-3 -5 -19 -7 -36 -4 -24 3 -30 1 -30 -13 0 -14 6 -16 30
-12 16 4 32 2 36 -4 4 -7 10 -6 19 1 8 7 18 10 22 7 4 -3 19 0 33 5 24 10 24
11 5 18 -27 11 -73 12 -79 2z"/>
<path d="M22793 164 c-7 -19 2 -28 22 -21 19 8 19 23 0 31 -9 3 -18 -1 -22
-10z"/>
<path d="M23957 172 c-9 -2 -17 -10 -17 -17 0 -10 25 -14 108 -15 95 -1 496
-1 562 1 14 0 86 0 160 0 379 0 669 5 676 12 17 16 -17 22 -118 20 -186 -2
-416 -3 -889 0 -256 1 -473 1 -482 -1z"/>
<path d="M25474 168 c-9 -13 15 -17 130 -22 107 -5 117 -4 114 12 -3 15 -18
17 -122 17 -65 0 -120 -3 -122 -7z"/>
<path d="M25765 171 c-21 -4 -26 -9 -17 -15 16 -10 69 -10 110 -1 17 3 40 1
51 -5 22 -11 66 3 57 18 -6 9 -163 12 -201 3z"/>
<path d="M26020 170 c-24 -15 34 -31 105 -27 42 2 69 9 80 20 15 16 14 17 -17
17 -19 0 -39 -5 -45 -11 -8 -8 -17 -8 -31 0 -25 13 -72 14 -92 1z"/>
<path d="M26245 169 c-11 -16 1 -22 30 -15 14 4 23 11 20 16 -8 13 -42 13 -50
-1z"/>
<path d="M26815 171 c-3 -5 -1 -12 5 -16 12 -7 30 2 30 16 0 12 -27 12 -35 0z"/>
<path d="M27056 171 c-3 -5 1 -14 10 -21 11 -10 18 -10 27 -1 9 9 9 14 -3 21
-19 12 -27 12 -34 1z"/>
<path d="M27276 166 c-34 -16 -24 -25 24 -22 23 1 35 7 35 16 0 19 -23 22 -59
6z"/>
<path d="M27648 168 c-18 -3 -81 -5 -140 -3 -99 3 -135 -4 -108 -20 17 -10
284 -13 297 -3 7 6 27 5 50 -1 52 -15 73 -14 73 4 0 23 -105 37 -172 23z"/>
<path d="M22865 161 c-3 -5 -1 -12 5 -16 14 -9 150 -2 150 7 0 14 -31 22 -39
10 -7 -11 -61 -11 -61 1 0 10 -48 9 -55 -2z"/>
<path d="M23036 161 c-4 -5 -2 -12 3 -16 9 -5 104 -9 126 -5 6 1 31 2 58 2 26
-1 47 3 47 9 0 5 -8 9 -17 10 -179 8 -212 8 -217 0z"/>
<path d="M23293 156 c-3 -4 -1 -11 5 -15 6 -3 129 -5 274 -3 145 2 285 4 311
3 33 0 47 4 44 12 -4 14 -626 17 -634 3z"/>
<path d="M26410 160 c0 -4 10 -10 23 -12 26 -5 66 6 51 14 -15 9 -74 7 -74 -2z"/>
<path d="M26615 161 c-10 -18 17 -23 33 -7 15 15 15 16 -5 16 -12 0 -24 -4
-28 -9z"/>
<path d="M26760 160 c0 -5 7 -10 15 -10 8 0 15 5 15 10 0 6 -7 10 -15 10 -8 0
-15 -4 -15 -10z"/>
<path d="M26942 158 c3 -7 13 -15 22 -16 12 -3 17 1 14 10 -3 7 -13 15 -22 16
-12 3 -17 -1 -14 -10z"/>
<path d="M27968 163 c-21 -5 -24 -19 -5 -25 6 -3 59 -2 117 2 58 4 109 3 115
-1 11 -11 25 -12 25 -1 0 16 -57 27 -115 22 -33 -4 -61 -2 -63 2 -4 8 -44 9
-74 1z"/>
<path d="M28333 163 c-24 -9 -13 -24 15 -21 15 2 27 7 27 12 0 10 -24 15 -42
9z"/>
<path d="M28443 162 c-27 -4 -30 -19 -5 -25 24 -7 592 -12 712 -6 55 2 50 16
-9 24 -64 9 -536 9 -550 1 -6 -4 -15 -5 -19 -2 -12 7 -102 13 -129 8z"/>
<path d="M27885 150 c-17 -7 -15 -9 12 -9 17 -1 35 4 38 9 7 12 -22 12 -50 0z"/>
<path d="M28240 150 c0 -5 15 -10 33 -10 24 0 28 3 17 10 -20 13 -50 13 -50 0z"/>
<path d="M29231 147 c-10 -12 -2 -15 51 -19 34 -3 72 -3 85 0 46 9 17 24 -53
28 -53 4 -74 1 -83 -9z"/>
<path d="M0 125 c0 -23 2 -24 20 -13 24 15 25 24 4 32 -23 9 -24 8 -24 -19z"/>
<path d="M168 143 c-10 -2 -18 -10 -18 -18 0 -7 -7 -18 -15 -25 -24 -20 -8
-28 37 -18 24 5 51 10 61 11 21 2 21 6 -2 35 -19 22 -29 24 -63 15z"/>
<path d="M26710 140 c0 -5 5 -10 10 -10 6 0 10 5 10 10 0 6 -4 10 -10 10 -5 0
-10 -4 -10 -10z"/>
<path d="M29410 138 c0 -13 85 -19 210 -16 79 2 123 7 120 13 -6 11 -330 14
-330 3z"/>
<path d="M29772 141 c-11 -7 -11 -9 0 -13 23 -9 61 -4 66 10 4 14 -45 17 -66
3z"/>
<path d="M29868 144 c-18 -18 -4 -23 67 -22 41 0 75 4 75 9 0 5 -15 9 -32 9
-18 0 -49 3 -68 6 -19 3 -38 2 -42 -2z"/>
<path d="M30098 143 c-72 -4 -90 -17 -35 -26 56 -10 217 -7 217 4 0 6 -6 9
-12 6 -7 -2 -27 2 -45 10 -18 7 -38 12 -45 11 -7 -1 -43 -3 -80 -5z"/>
<path d="M712 117 c-27 -29 -27 -37 1 -81 17 -27 28 -35 47 -33 23 2 25 6 26
55 1 43 -3 56 -20 67 -27 19 -29 19 -54 -8z"/>
<path d="M923 120 c-39 -24 -41 -39 -9 -69 14 -13 22 -29 19 -37 -4 -10 3 -14
26 -14 l31 0 0 70 c0 79 -9 86 -67 50z"/>
<path d="M1235 129 c-29 -15 -53 -51 -60 -92 -6 -32 -5 -37 12 -37 13 0 22 11
28 32 7 24 21 38 48 51 33 17 51 47 28 47 -5 0 -15 2 -23 4 -7 3 -22 0 -33 -5z"/>
<path d="M1432 123 c-21 -14 -52 -71 -52 -94 0 -20 26 -7 42 21 13 23 24 30
48 30 27 0 34 -5 48 -40 9 -22 22 -38 27 -37 16 5 5 68 -17 105 -22 36 -57 42
-96 15z"/>
<path d="M1713 125 c-3 -9 -3 -19 1 -22 7 -7 36 16 36 28 0 15 -30 10 -37 -6z"/>
<path d="M30300 129 c0 -5 10 -11 23 -14 33 -9 113 -2 107 9 -6 11 -130 16
-130 5z"/>
<path d="M30480 119 c0 -12 58 -21 81 -14 11 4 18 10 14 13 -9 9 -95 9 -95 1z"/>
<path d="M30620 120 c-22 -7 -21 -8 13 -9 20 -1 37 4 37 9 0 11 -14 11 -50 0z"/>
<path d="M30790 115 c0 -10 10 -15 29 -15 37 0 49 16 18 24 -35 9 -47 7 -47
-9z"/>
<path d="M30960 111 c0 -6 5 -13 10 -16 6 -3 10 1 10 9 0 9 -4 16 -10 16 -5 0
-10 -4 -10 -9z"/>
<path d="M31320 110 c0 -5 7 -10 15 -10 8 0 15 5 15 10 0 6 -7 10 -15 10 -8 0
-15 -4 -15 -10z"/>
<path d="M31635 110 c3 -5 10 -10 16 -10 5 0 9 5 9 10 0 6 -7 10 -16 10 -8 0
-12 -4 -9 -10z"/>
<path d="M31880 110 c36 -11 50 -11 50 0 0 6 -17 10 -37 9 -34 -1 -35 -2 -13
-9z"/>
<path d="M2986 79 c-14 -11 -35 -33 -46 -49 l-21 -30 49 0 c43 0 50 3 60 25
27 59 3 89 -42 54z"/>
<path d="M7465 50 c-4 -6 -3 -16 3 -22 6 -6 12 -6 17 2 4 6 3 16 -3 22 -6 6
-12 6 -17 -2z"/>
<path d="M32031 34 c0 -11 3 -14 6 -6 3 7 2 16 -1 19 -3 4 -6 -2 -5 -13z"/>
<path d="M240 20 c0 -19 20 -27 33 -13 8 7 -11 33 -24 33 -5 0 -9 -9 -9 -20z"/>
<path d="M19556 25 c-9 -24 -8 -25 20 -25 19 0 25 5 22 17 -4 23 -34 28 -42 8z"/>
<path d="M19763 33 c-26 -10 -13 -33 17 -33 32 0 42 23 14 34 -9 3 -16 6 -17
5 -1 0 -8 -3 -14 -6z"/>
<path d="M1870 23 c-58 -11 -41 -23 34 -23 58 0 77 3 74 13 -5 12 -64 18 -108
10z"/>
<path d="M19667 23 c-14 -13 -6 -23 18 -23 18 0 23 4 19 15 -6 16 -26 20 -37
8z"/>
<path d="M435 10 c-4 -6 6 -10 22 -10 22 0 25 2 13 10 -19 12 -27 12 -35 0z"/>
<path d="M1720 10 c0 -5 9 -10 21 -10 11 0 17 4 14 10 -8 13 -35 13 -35 0z"/>
<path d="M518 3 c7 -3 16 -2 19 1 4 3 -2 6 -13 5 -11 0 -14 -3 -6 -6z"/>
</g>
</svg>
