<?xml version="1.0" standalone="no"?>
<!DOCTYPE svg PUBLIC "-//W3C//DTD SVG 20010904//EN"
 "http://www.w3.org/TR/2001/REC-SVG-20010904/DTD/svg10.dtd">
<svg version="1.0" xmlns="http://www.w3.org/2000/svg"
 width="3264.000000pt" height="2448.000000pt" viewBox="0 0 3264.000000 2448.000000"
 preserveAspectRatio="xMidYMid meet">
<metadata>
Created by potrace 1.12, written by Peter Selinger 2001-2015
</metadata>
<g transform="translate(0.000000,2448.000000) scale(0.100000,-0.100000)"
fill="#000000" stroke="none">
<path d="M16104 21980 c-12 -4 -24 -16 -28 -26 -8 -20 12 -37 34 -27 8 3 30 8
48 11 18 2 35 8 38 13 3 5 15 9 27 10 12 0 0 7 -28 14 -58 16 -63 17 -91 5z"/>
<path d="M16460 21970 c0 -5 5 -10 10 -10 6 0 10 5 10 10 0 6 -4 10 -10 10 -5
0 -10 -4 -10 -10z"/>
<path d="M15917 21964 c-5 -5 -65 -9 -252 -15 -11 0 -35 -3 -53 -5 -27 -4 -31
-8 -22 -19 7 -8 9 -19 5 -25 -3 -5 2 -10 14 -10 11 0 23 5 27 11 5 8 29 10 75
6 45 -4 71 -2 75 5 5 7 12 5 20 -7 11 -15 31 -19 97 -23 81 -4 83 -4 97 22 12
23 12 28 -1 40 -16 16 -72 30 -82 20z"/>
<path d="M14620 21949 c-47 -5 -110 -6 -140 -4 -30 2 -46 2 -35 -1 60 -17 17
-23 -171 -24 -115 -1 -257 -1 -316 -1 -62 1 -109 -3 -113 -9 -4 -6 12 -10 42
-11 26 0 205 -3 396 -5 290 -4 353 -3 377 9 25 13 29 13 34 0 4 -10 20 -13 53
-12 27 1 173 -2 327 -6 233 -7 278 -6 274 6 -7 20 -109 39 -238 44 -63 2 -178
9 -255 14 -77 6 -142 10 -145 9 -3 0 -43 -5 -90 -9z"/>
<path d="M13601 21926 c-6 -7 -8 -16 -4 -19 10 -10 66 -8 83 3 12 8 10 10 -8
10 -13 0 -32 4 -42 10 -13 7 -21 6 -29 -4z"/>
<path d="M12945 21920 c3 -5 8 -10 11 -10 2 0 4 5 4 10 0 6 -5 10 -11 10 -5 0
-7 -4 -4 -10z"/>
<path d="M13045 21920 c3 -5 17 -10 31 -10 13 0 24 5 24 10 0 6 -14 10 -31 10
-17 0 -28 -4 -24 -10z"/>
<path d="M13330 21920 c-43 -5 -49 -7 -25 -10 41 -7 105 0 105 11 0 5 -6 8
-12 7 -7 -1 -38 -4 -68 -8z"/>
<path d="M13715 21921 c-8 -14 8 -21 34 -14 17 4 19 8 9 14 -17 11 -35 11 -43
0z"/>
<path d="M15490 21920 c0 -5 -13 -10 -30 -10 -16 0 -30 -4 -30 -10 0 -5 11
-10 24 -10 14 0 28 5 31 10 3 6 13 10 21 10 8 0 13 -4 9 -9 -7 -12 31 -25 46
-16 15 10 -25 45 -51 45 -11 0 -20 -4 -20 -10z"/>
<path d="M13203 21913 c9 -2 25 -2 35 0 9 3 1 5 -18 5 -19 0 -27 -2 -17 -5z"/>
<path d="M13431 21910 c9 -5 28 -6 45 0 27 8 26 8 -16 9 -32 0 -40 -2 -29 -9z"/>
<path d="M13528 21908 c9 -9 15 -9 24 0 9 9 7 12 -12 12 -19 0 -21 -3 -12 -12z"/>
<path d="M16060 21890 l-35 -6 32 -5 c18 -3 52 -3 75 1 l43 6 -40 5 c-22 2
-56 2 -75 -1z"/>
<path d="M16255 21890 c-90 -8 -67 -9 315 -16 168 -2 312 -7 321 -9 8 -3 24 1
35 9 18 14 18 15 -6 21 -14 3 -53 2 -87 -3 -35 -5 -65 -6 -68 -4 -8 8 -430 9
-510 2z"/>
<path d="M16983 21892 c-35 -4 -44 -17 -15 -24 28 -6 142 3 142 12 0 9 -79 17
-127 12z"/>
<path d="M17310 21892 c-115 -13 -77 -31 59 -27 58 1 108 3 110 4 2 0 -2 8 -9
16 -11 14 -78 17 -160 7z"/>
<path d="M17740 21893 c-14 -3 -29 -8 -34 -13 -13 -13 32 -23 71 -15 29 5 32
9 23 21 -13 14 -16 15 -60 7z"/>
<path d="M18250 21890 c-12 -7 -12 -12 -3 -21 10 -10 14 -9 19 5 8 22 2 27
-16 16z"/>
<path d="M17540 21881 c0 -14 23 -20 54 -14 20 4 24 8 14 14 -17 11 -68 11
-68 0z"/>
<path d="M17960 21880 c0 -5 5 -10 11 -10 5 0 7 5 4 10 -3 6 -8 10 -11 10 -2
0 -4 -4 -4 -10z"/>
<path d="M17168 21873 c12 -2 30 -2 40 0 9 3 -1 5 -23 4 -22 0 -30 -2 -17 -4z"/>
<path d="M18605 21870 c-3 -5 3 -10 14 -10 12 0 21 5 21 10 0 6 -6 10 -14 10
-8 0 -18 -4 -21 -10z"/>
<path d="M8805 21740 c3 -5 17 -10 31 -10 13 0 24 5 24 10 0 6 -14 10 -31 10
-17 0 -28 -4 -24 -10z"/>
<path d="M8963 21733 c9 -2 25 -2 35 0 9 3 1 5 -18 5 -19 0 -27 -2 -17 -5z"/>
<path d="M9108 21733 c6 -2 18 -2 25 0 6 3 1 5 -13 5 -14 0 -19 -2 -12 -5z"/>
<path d="M9173 21733 c9 -2 25 -2 35 0 9 3 1 5 -18 5 -19 0 -27 -2 -17 -5z"/>
<path d="M9263 21733 c15 -2 37 -2 50 0 12 2 0 4 -28 4 -27 0 -38 -2 -22 -4z"/>
<path d="M9358 21733 c7 -3 16 -2 19 1 4 3 -2 6 -13 5 -11 0 -14 -3 -6 -6z"/>
<path d="M9395 21730 c3 -5 13 -10 21 -10 8 0 14 5 14 10 0 6 -9 10 -21 10
-11 0 -17 -4 -14 -10z"/>
<path d="M9480 21730 c0 -5 11 -10 25 -10 14 0 25 5 25 10 0 6 -11 10 -25 10
-14 0 -25 -4 -25 -10z"/>
<path d="M9600 21729 c0 -5 28 -9 62 -9 34 0 59 3 55 6 -10 10 -117 13 -117 3z"/>
<path d="M9755 21720 c45 -11 93 -11 100 0 4 6 -19 10 -62 9 -52 -1 -61 -3
-38 -9z"/>
<path d="M9925 21720 c3 -5 12 -10 20 -10 8 0 17 5 20 10 4 6 -5 10 -20 10
-15 0 -24 -4 -20 -10z"/>
<path d="M9995 21720 c3 -5 19 -10 35 -10 16 0 32 5 35 10 4 6 -10 10 -35 10
-25 0 -39 -4 -35 -10z"/>
<path d="M10100 21721 c0 -8 55 -11 173 -12 94 0 219 -2 277 -4 58 -2 247 -6
420 -10 173 -3 414 -8 535 -10 222 -5 1668 -26 3005 -45 399 -5 1031 -12 1405
-15 374 -3 772 -8 885 -10 113 -3 1056 -5 2095 -5 2866 -1 3081 0 3068 8 -7 4
-590 9 -1295 10 -706 1 -1623 4 -2038 7 -415 2 -1133 7 -1595 10 -462 3 -973
7 -1135 10 -162 3 -556 7 -875 10 -319 3 -710 7 -870 10 -159 3 -524 7 -810
10 -286 3 -644 7 -795 10 -354 6 -875 14 -1405 20 -231 3 -561 8 -732 11 -224
4 -313 3 -313 -5z"/>
<path d="M22015 21621 c-4 -8 28 -11 100 -11 58 0 104 4 101 8 -8 13 -193 15
-201 3z"/>
<path d="M22289 21619 c-10 -6 -4 -9 19 -9 17 0 32 2 32 4 0 9 -39 13 -51 5z"/>
<path d="M22550 21620 c0 -5 7 -10 15 -10 8 0 15 5 15 10 0 6 -7 10 -15 10 -8
0 -15 -4 -15 -10z"/>
<path d="M22950 21620 c0 -5 5 -10 11 -10 5 0 7 5 4 10 -3 6 -8 10 -11 10 -2
0 -4 -4 -4 -10z"/>
<path d="M22358 21613 c7 -3 16 -2 19 1 4 3 -2 6 -13 5 -11 0 -14 -3 -6 -6z"/>
<path d="M22438 21613 c12 -2 32 -2 45 0 12 2 2 4 -23 4 -25 0 -35 -2 -22 -4z"/>
<path d="M4647 21463 c-4 -3 -2585 -23 -3044 -23 -104 0 -163 -4 -163 -10 0
-7 71 -10 203 -10 952 4 4930 0 5202 -5 165 -2 557 -7 870 -10 314 -3 701 -7
860 -10 160 -3 745 -12 1300 -20 556 -8 1098 -17 1205 -20 188 -5 1668 -29
2540 -40 234 -3 499 -7 590 -10 91 -3 696 -9 1345 -15 1022 -9 1360 -14 1425
-21 8 -1 2123 -1 4700 0 4057 1 5003 0 5155 -8 17 -1 287 -2 600 -2 314 0 649
-2 745 -4 564 -11 3408 -22 4148 -15 280 2 349 8 295 24 -10 3 -569 5 -1243 5
-1139 -1 -1663 3 -2655 15 -214 3 -642 8 -950 11 -308 4 -650 9 -760 12 -110
3 -1955 6 -4100 8 -4072 3 -5685 9 -7135 25 -1255 14 -2685 33 -3495 45 -553
9 -1587 24 -2010 30 -220 3 -503 7 -630 10 -126 3 -448 7 -715 10 -267 3 -618
7 -780 10 -693 11 -3495 26 -3503 18z"/>
<path d="M0 21440 c0 -6 7 -10 15 -10 19 0 19 6 0 14 -8 3 -15 1 -15 -4z"/>
<path d="M55 21440 c-3 -5 1 -10 9 -10 9 0 16 5 16 10 0 6 -4 10 -9 10 -6 0
-13 -4 -16 -10z"/>
<path d="M795 21440 c-11 -5 -15 -10 -10 -11 26 -6 205 -3 205 4 0 4 -26 7
-59 7 -32 0 -71 2 -87 5 -16 2 -38 0 -49 -5z"/>
<path d="M1060 21440 c-68 -8 -46 -11 150 -17 74 -2 148 -5 164 -6 16 -1 31 4
33 11 4 9 -27 12 -130 12 -75 0 -141 1 -149 3 -7 2 -38 1 -68 -3z"/>
<path d="M253 21428 c21 -7 32 -7 40 1 8 8 0 11 -28 10 -40 -1 -40 -1 -12 -11z"/>
<path d="M503 21433 c20 -2 54 -2 75 0 20 2 3 4 -38 4 -41 0 -58 -2 -37 -4z"/>
<path d="M703 21433 c9 -2 25 -2 35 0 9 3 1 5 -18 5 -19 0 -27 -2 -17 -5z"/>
<path d="M22407 21364 c-17 -18 -6 -35 21 -32 16 2 27 9 27 18 0 16 -36 26
-48 14z"/>
<path d="M32535 20580 c-3 -5 -2 -10 4 -10 5 0 13 5 16 10 3 6 2 10 -4 10 -5
0 -13 -4 -16 -10z"/>
<path d="M6846 20557 c-28 -22 -48 -111 -29 -131 6 -6 5 -297 -1 -303 -1 -1
-35 -7 -76 -13 -151 -23 -199 -45 -184 -85 8 -20 37 -19 109 6 33 11 80 23
103 26 l44 6 -7 -124 c-3 -68 -10 -167 -15 -219 -10 -100 -3 -127 25 -99 15
15 22 68 43 344 l7 99 43 9 c24 5 46 6 49 3 3 -3 -11 -24 -31 -46 -30 -33 -36
-47 -36 -85 0 -82 89 -142 185 -124 48 9 103 37 125 64 18 22 35 18 50 -9 18
-34 61 -51 90 -36 26 14 22 29 -15 50 -19 10 -34 31 -43 58 -15 46 -41 56 -64
24 -22 -31 -91 -79 -130 -91 -71 -23 -148 17 -148 77 0 27 47 74 99 98 19 9
80 22 136 28 97 11 100 12 100 36 0 38 -49 43 -177 19 -58 -11 -133 -19 -165
-17 l-58 3 3 90 c2 50 7 135 12 191 4 55 6 112 3 127 -6 30 -25 40 -47 24z"/>
<path d="M7642 20533 c-6 -10 -12 -121 -15 -248 -4 -197 -7 -240 -26 -300 -26
-85 -26 -104 -4 -112 10 -4 28 -19 41 -34 94 -113 353 -50 435 106 15 28 21
59 22 105 0 121 -66 204 -173 217 -45 5 -60 2 -117 -26 -36 -18 -78 -48 -95
-69 l-31 -37 8 105 c4 58 8 150 8 205 0 95 -1 100 -22 103 -13 2 -25 -4 -31
-15z m328 -342 c59 -42 86 -138 59 -208 -14 -37 -54 -79 -106 -110 -49 -28
-170 -42 -215 -24 -37 14 -70 68 -63 101 9 41 68 152 99 188 66 75 164 99 226
53z"/>
<path d="M1297 20507 c-20 -14 -55 -136 -93 -322 -14 -66 -36 -169 -50 -229
-42 -183 -18 -200 99 -72 123 135 196 206 211 206 19 0 32 -67 46 -234 6 -71
17 -143 24 -160 18 -42 50 -68 78 -64 32 4 32 42 0 46 -36 5 -49 51 -56 202
-11 209 -28 260 -87 260 -28 0 -58 -28 -217 -200 -28 -30 -54 -52 -57 -49 -13
13 99 468 138 562 24 57 5 85 -36 54z"/>
<path d="M658 20500 c-46 -14 -120 -71 -226 -174 -134 -131 -191 -202 -259
-328 -62 -114 -83 -177 -83 -255 0 -68 11 -95 54 -128 61 -46 196 -46 361 1
130 37 123 35 230 85 56 26 65 33 47 37 -13 2 -34 -4 -48 -13 -61 -39 -292
-104 -404 -112 -64 -5 -82 -2 -116 15 -53 27 -65 43 -75 98 -7 37 -4 59 17
122 62 187 184 356 358 496 122 99 165 120 228 112 43 -6 48 -5 48 13 0 32
-71 50 -132 31z"/>
<path d="M8467 20396 c-9 -9 -18 -42 -22 -73 -3 -32 -10 -92 -15 -133 -19
-161 -22 -218 -10 -225 20 -12 38 15 45 68 4 29 18 110 31 181 14 70 24 142
22 159 -3 36 -27 46 -51 23z"/>
<path d="M3556 20348 c-15 -25 -63 -175 -95 -302 -14 -55 -28 -87 -45 -103
-25 -23 -26 -29 -26 -127 0 -78 4 -106 15 -116 25 -21 38 -1 32 54 -7 68 9
133 35 142 11 3 49 3 83 -1 l63 -6 4 -58 c3 -38 11 -68 27 -89 24 -35 66 -51
84 -33 8 8 2 19 -26 42 -31 25 -37 37 -37 68 0 49 23 81 60 81 39 0 159 38
191 61 45 32 44 94 -1 139 -14 14 -33 20 -65 20 -73 0 -121 -35 -179 -127
l-26 -43 -74 0 c-47 0 -77 5 -84 13 -10 12 16 92 99 300 25 62 28 81 19 92
-18 21 -37 18 -54 -7z m338 -284 c47 -18 -5 -78 -85 -99 -98 -27 -109 -19 -57
41 45 51 101 74 142 58z"/>
<path d="M32408 20299 c0 -8 -3 -27 -5 -44 -6 -47 -3 -86 6 -104 14 -23 22 20
18 91 -3 54 -15 90 -19 57z"/>
<path d="M4222 20271 c-17 -11 -12 -41 9 -54 12 -8 24 -5 48 12 18 13 30 28
28 35 -4 14 -67 19 -85 7z"/>
<path d="M32600 20254 c0 -31 23 -28 28 4 2 15 -2 22 -12 22 -11 0 -16 -9 -16
-26z"/>
<path d="M8916 20235 c-85 -30 -163 -119 -174 -200 -6 -44 -10 -49 -42 -60
-24 -8 -35 -18 -35 -31 0 -16 6 -19 47 -16 38 2 51 -2 73 -22 33 -31 115 -63
184 -72 101 -13 241 31 241 77 0 24 2 24 -105 -6 -42 -12 -78 -15 -118 -11
-67 7 -151 40 -145 57 2 7 37 24 79 38 92 33 137 60 183 111 39 43 45 73 21
107 -29 41 -134 55 -209 28z m145 -55 c28 -15 24 -31 -18 -72 -44 -42 -96 -69
-175 -92 -71 -20 -68 -21 -68 9 0 50 51 116 115 149 34 18 117 21 146 6z"/>
<path d="M32610 20191 c-12 -23 -13 -61 -2 -61 17 0 32 25 32 52 0 32 -15 37
-30 9z"/>
<path d="M4511 20163 c-55 -19 -86 -37 -121 -72 -46 -44 -48 -50 -55 -115 -10
-87 3 -131 58 -193 70 -80 71 -81 57 -98 -7 -8 -25 -15 -41 -15 -28 0 -41 9
-79 60 -18 24 -19 24 -37 7 -17 -17 -17 -19 5 -61 35 -65 93 -83 166 -52 65
27 56 92 -23 180 -70 76 -80 179 -25 237 35 37 133 84 193 94 l44 7 -5 -93
c-5 -84 -8 -95 -31 -114 -14 -11 -44 -35 -66 -53 -42 -34 -51 -61 -27 -81 11
-10 21 -6 49 19 19 16 37 30 40 30 3 0 3 -25 0 -55 -10 -100 29 -58 58 61 7
28 24 62 40 79 34 36 36 51 10 58 -17 4 -18 12 -13 75 6 97 -9 122 -76 121
-26 0 -80 -12 -121 -26z"/>
<path d="M1903 20126 c-28 -20 -73 -60 -100 -91 -112 -130 -146 -254 -84 -316
67 -67 163 -17 222 116 11 25 24 45 28 45 4 0 13 -39 18 -86 14 -109 52 -168
99 -150 18 7 17 9 -8 31 -41 35 -52 95 -45 255 3 75 2 143 -3 150 -4 6 -16 10
-26 8 -14 -2 -25 -25 -45 -94 -33 -116 -64 -177 -111 -220 -85 -76 -139 -16
-88 98 25 56 98 152 142 185 18 14 52 34 76 45 51 23 54 51 7 56 -21 2 -46 -8
-82 -32z"/>
<path d="M4883 20134 c-3 -9 -1 -24 4 -33 21 -31 93 -1 80 33 -9 22 -75 22
-84 0z"/>
<path d="M2588 20117 c-253 -154 -338 -216 -375 -271 -42 -61 -45 -118 -9
-141 42 -28 71 1 44 44 -23 37 22 99 129 177 50 37 104 66 110 61 3 -3 -11
-25 -30 -49 -53 -64 -110 -191 -111 -245 -1 -37 4 -49 27 -69 34 -29 50 -30
93 -3 45 28 126 148 170 252 14 33 34 50 34 30 3 -79 23 -202 37 -231 21 -43
61 -60 49 -21 -13 41 -24 124 -31 231 -6 103 -21 148 -49 148 -7 0 -30 -38
-51 -85 -42 -96 -143 -247 -181 -271 -29 -20 -54 -5 -54 31 0 57 137 263 221
334 53 45 63 65 43 85 -20 20 -22 20 -66 -7z"/>
<path d="M4138 20125 c-84 -31 -144 -99 -184 -210 -33 -91 -33 -174 0 -212 22
-25 26 -26 40 -13 13 13 14 20 2 55 -15 44 -10 99 20 187 27 81 158 176 204
148 20 -12 7 -201 -19 -280 -12 -36 -21 -76 -19 -90 11 -98 86 104 95 257 3
50 3 103 -1 116 -14 56 -61 70 -138 42z"/>
<path d="M3093 20066 c-96 -70 -145 -161 -145 -270 0 -111 118 -179 221 -127
46 24 101 84 101 111 0 27 -5 26 -54 -15 -50 -41 -112 -65 -149 -58 -41 8 -59
36 -59 91 0 96 64 193 158 237 54 26 64 41 42 63 -22 22 -55 13 -115 -32z"/>
<path d="M32390 20061 c0 -11 5 -23 10 -26 6 -3 10 -19 10 -36 0 -23 4 -29 20
-29 19 0 20 4 14 38 -10 55 -54 99 -54 53z"/>
<path d="M5079 19984 c-26 -8 -61 -28 -79 -44 -29 -27 -32 -35 -27 -67 8 -48
53 -102 108 -129 116 -59 329 -56 329 4 0 18 -7 20 -97 18 -68 -1 -115 4 -154
16 -163 51 -168 131 -9 145 64 6 77 19 54 52 -18 25 -57 27 -125 5z"/>
<path d="M4855 19970 c-3 -5 0 -37 7 -70 9 -47 9 -77 -1 -149 -7 -50 -10 -95
-6 -101 10 -16 33 -12 38 8 3 9 10 38 17 64 18 70 10 211 -14 237 -21 23 -32
26 -41 11z"/>
<path d="M14843 19948 c-6 -7 -22 -60 -36 -118 -29 -116 -143 -495 -176 -579
-22 -60 -66 -131 -81 -131 -28 0 -24 248 6 400 25 126 24 145 -5 145 -13 0
-27 -7 -32 -15 -4 -8 -44 -81 -88 -161 -102 -184 -152 -294 -189 -411 -54
-170 -62 -238 -27 -252 26 -10 42 21 49 93 6 73 38 183 88 311 28 72 137 274
144 267 2 -1 -1 -43 -6 -92 -19 -181 -10 -304 26 -340 46 -45 107 4 153 125
39 99 104 332 131 470 12 58 35 145 51 193 16 49 27 93 23 98 -7 13 -20 11
-31 -3z"/>
<path d="M13188 19846 c-58 -24 -137 -77 -175 -118 -35 -38 -91 -149 -110
-218 -22 -82 -26 -429 -5 -497 13 -44 39 -67 60 -54 36 22 58 163 27 175 -8 3
-21 -1 -29 -9 -13 -13 -15 -8 -21 40 -4 31 -5 111 -2 178 5 133 32 233 83 310
69 104 186 177 285 177 64 0 130 -30 163 -73 20 -27 20 -28 3 -60 -24 -45
-117 -116 -286 -222 -131 -81 -141 -90 -141 -118 0 -45 49 -84 211 -166 79
-41 183 -96 231 -123 87 -50 123 -56 116 -21 -4 20 -81 68 -272 167 -175 90
-225 123 -226 146 0 3 12 12 28 21 221 132 352 226 382 274 87 140 -131 270
-322 191z"/>
<path d="M12205 19853 c-84 -12 -203 -46 -247 -70 -62 -34 -114 -90 -127 -139
-32 -118 68 -202 356 -299 61 -21 154 -58 205 -84 80 -40 93 -50 96 -73 5 -43
-80 -120 -215 -196 -162 -91 -230 -117 -269 -103 -17 6 -33 11 -37 11 -15 0
-6 -48 13 -65 30 -27 94 -12 223 54 225 116 309 177 343 252 16 37 16 42 1 74
-14 29 -34 43 -129 89 -62 30 -167 73 -233 96 -154 54 -220 86 -267 131 -54
52 -51 105 12 168 62 61 169 96 340 112 124 11 202 -2 276 -47 64 -38 84 -42
84 -16 0 25 -36 57 -95 84 -43 19 -69 23 -175 24 -69 1 -138 0 -155 -3z"/>
<path d="M32575 19816 c-25 -7 -41 -19 -43 -30 -3 -15 0 -18 19 -13 13 4 39 7
57 7 27 0 32 3 32 25 0 28 -7 29 -65 11z"/>
<path d="M15260 19793 c-40 -37 -128 -199 -180 -333 l-43 -108 -57 -21 c-63
-23 -76 -39 -56 -67 12 -15 17 -16 45 -4 17 7 33 11 35 9 2 -2 -10 -56 -26
-119 -31 -125 -32 -157 -6 -174 28 -17 39 4 53 105 18 124 34 194 48 212 13
16 176 77 206 77 16 0 19 -14 24 -127 8 -161 25 -238 52 -238 23 0 24 8 7 140
-7 50 -12 124 -12 165 0 75 0 76 30 87 38 14 38 28 1 41 l-29 10 6 170 5 169
-24 16 c-32 23 -44 21 -79 -10z m42 -208 l-7 -159 -70 -18 c-38 -10 -82 -22
-97 -27 -37 -13 -36 -4 8 105 62 155 144 288 165 267 5 -5 5 -80 1 -168z"/>
<path d="M16198 19793 c-25 -28 -62 -108 -113 -243 -52 -138 -87 -214 -139
-305 l-35 -60 -1 59 c0 32 9 129 21 216 24 190 23 224 -9 228 -18 3 -26 -5
-40 -40 -10 -24 -24 -65 -32 -93 -7 -27 -25 -79 -41 -115 -15 -36 -47 -110
-70 -165 -73 -176 -135 -300 -168 -338 -34 -38 -37 -63 -9 -81 27 -17 54 17
114 139 50 103 124 307 124 340 0 26 50 159 65 175 19 19 19 17 0 -175 -18
-168 -14 -230 15 -245 16 -8 25 -5 50 17 37 35 146 279 188 423 20 66 47 129
77 178 42 69 50 102 27 102 -5 0 -16 -8 -24 -17z"/>
<path d="M16574 19761 c-56 -26 -135 -125 -178 -226 -65 -152 -116 -364 -116
-486 0 -33 -4 -59 -9 -59 -5 0 -23 11 -39 25 -35 30 -52 32 -52 7 0 -29 67
-100 101 -107 125 -28 341 184 420 411 51 149 64 306 30 380 -33 74 -80 90
-157 55z m95 -40 c61 -61 19 -338 -74 -491 -67 -110 -208 -250 -252 -250 -32
0 2 260 58 436 41 129 82 206 146 271 56 58 89 67 122 34z"/>
<path d="M17722 19598 c-25 -33 -52 -104 -87 -232 -21 -77 -64 -223 -97 -324
-48 -152 -56 -188 -46 -198 7 -7 18 -10 24 -6 14 9 114 301 164 482 22 80 52
171 67 202 22 47 24 60 13 73 -15 18 -24 19 -38 3z"/>
<path d="M32535 19591 c-3 -5 -1 -12 5 -16 5 -3 10 1 10 9 0 18 -6 21 -15 7z"/>
<path d="M32530 19541 c0 -6 5 -13 10 -16 6 -3 10 1 10 9 0 9 -4 16 -10 16 -5
0 -10 -4 -10 -9z"/>
<path d="M18418 19513 c-27 -31 -55 -95 -83 -193 -24 -80 -34 -101 -68 -132
-42 -40 -44 -57 -8 -73 15 -7 20 -16 17 -30 -17 -69 -28 -155 -22 -171 12 -30
25 -3 50 102 34 138 41 153 78 168 39 16 148 29 148 19 0 -5 -20 -24 -44 -43
-52 -42 -89 -91 -105 -142 -14 -44 4 -99 40 -118 55 -30 240 28 247 78 4 27
-10 28 -68 1 -60 -27 -129 -35 -154 -17 -25 20 -14 68 26 114 58 66 182 134
245 134 35 0 63 18 63 41 0 29 -21 33 -123 21 -152 -18 -282 -30 -286 -26 -6
5 48 152 76 207 19 38 22 52 12 63 -15 18 -23 18 -41 -3z"/>
<path d="M22961 19385 c-23 -46 -52 -97 -65 -112 -13 -15 -57 -80 -98 -143
-180 -278 -190 -305 -143 -380 19 -30 35 -42 67 -51 63 -17 212 -6 271 19 26
12 47 24 47 27 0 3 -53 3 -117 -1 -167 -9 -243 14 -243 75 0 35 54 131 189
339 118 181 167 273 157 297 -10 28 -23 15 -65 -70z"/>
<path d="M18976 19424 c-29 -40 -166 -312 -166 -329 0 -28 38 -56 68 -49 40 9
166 79 256 142 60 42 82 53 94 45 18 -11 42 -91 42 -144 0 -51 28 -139 47
-146 18 -7 35 16 27 37 -3 8 -10 56 -15 105 -12 105 -22 144 -50 179 -31 40
-68 34 -152 -23 -80 -54 -236 -135 -244 -127 -6 6 64 144 119 235 21 35 37 71
36 80 -5 26 -41 23 -62 -5z"/>
<path d="M26065 19416 c-139 -45 -224 -134 -310 -326 -35 -79 -45 -172 -22
-216 8 -16 31 -46 51 -66 92 -95 316 -146 316 -72 0 10 -15 14 -55 14 -132 0
-276 103 -275 197 1 42 41 152 80 217 81 135 169 202 284 214 52 6 61 10 61
27 0 17 -7 20 -45 22 -25 1 -63 -4 -85 -11z"/>
<path d="M31330 19405 c-11 -13 -9 -20 11 -41 24 -25 24 -28 24 -232 l0 -207
-43 -94 c-76 -167 -114 -224 -226 -338 -56 -58 -66 -73 -53 -79 55 -21 236
198 316 382 62 143 73 244 51 466 -13 134 -43 187 -80 143z"/>
<path d="M18069 19370 c-55 -16 -167 -89 -237 -154 -40 -37 -72 -95 -72 -131
0 -38 50 -85 91 -85 42 0 109 40 148 87 l31 38 0 -73 c0 -91 10 -112 54 -112
36 0 76 34 76 64 0 19 0 19 -63 -1 -17 -5 -18 1 -11 113 6 102 4 121 -9 133
-22 17 -33 8 -62 -49 -49 -96 -115 -150 -170 -136 -45 11 -33 50 38 121 76 76
167 125 232 125 55 0 71 23 36 52 -25 19 -41 21 -82 8z"/>
<path d="M23927 19323 c-9 -14 -57 -284 -57 -317 0 -3 -10 -6 -22 -6 -41 0
-96 -20 -102 -36 -12 -30 14 -47 61 -40 41 5 43 4 43 -20 0 -14 -11 -70 -25
-125 -14 -55 -23 -104 -20 -109 24 -39 66 44 86 169 6 38 15 75 20 83 6 9 39
14 111 16 l102 4 -17 -24 c-62 -84 -61 -186 3 -243 33 -29 130 -28 190 4 54
28 90 59 90 79 0 18 -24 13 -105 -22 -68 -29 -112 -33 -141 -12 -30 22 -27
111 5 154 29 38 88 68 154 78 58 8 93 33 83 59 -7 19 -12 19 -156 -5 -30 -5
-110 -9 -177 -9 -146 -1 -136 -18 -97 173 14 70 23 134 20 142 -6 15 -41 20
-49 7z"/>
<path d="M24708 19313 c-9 -10 -30 -70 -47 -133 -17 -63 -42 -155 -56 -205
-40 -146 -29 -195 42 -195 29 0 93 38 122 73 25 31 39 20 46 -37 5 -39 14 -61
31 -77 37 -35 46 -16 34 72 -18 129 -63 182 -106 126 -23 -29 -112 -97 -126
-97 -17 0 -3 74 45 225 67 214 74 244 57 255 -21 13 -25 12 -42 -7z"/>
<path d="M26622 19288 c-18 -23 -69 -132 -90 -193 -27 -79 -62 -263 -62 -324
0 -36 4 -51 16 -55 28 -11 44 12 38 53 -7 43 28 218 62 312 22 60 54 124 86
170 24 35 -23 69 -50 37z"/>
<path d="M27626 19265 c-41 -42 -44 -85 -6 -85 22 0 62 55 57 80 -3 21 -32 24
-51 5z"/>
<path d="M27264 19218 c-9 -14 -48 -100 -141 -308 -30 -69 -69 -151 -85 -182
-30 -56 -32 -88 -5 -88 7 0 43 18 79 40 36 22 95 53 131 71 79 37 109 64 105
92 -5 37 -70 28 -153 -20 -39 -23 -72 -37 -73 -32 -2 5 40 95 93 200 56 110
95 199 93 212 -3 25 -32 35 -44 15z"/>
<path d="M27873 19178 c-6 -7 -13 -59 -16 -114 -3 -56 -10 -111 -16 -121 -6
-12 -29 -25 -53 -32 -57 -14 -71 -25 -66 -47 3 -15 12 -19 46 -17 52 2 52 -1
6 -113 -24 -60 -32 -90 -25 -97 18 -18 37 9 76 111 21 53 44 103 50 110 7 8
56 24 110 37 99 23 139 45 118 66 -7 7 -28 6 -74 -4 -87 -21 -126 -27 -131
-21 -3 2 1 30 8 62 29 121 8 232 -33 180z"/>
<path d="M32550 19165 c0 -27 4 -30 58 -39 27 -5 32 -3 32 15 0 15 -5 19 -18
14 -11 -3 -30 3 -45 16 l-27 20 0 -26z"/>
<path d="M23315 19048 c-113 -39 -165 -101 -165 -199 0 -55 26 -111 60 -129
54 -29 146 4 220 80 27 27 51 50 54 50 3 0 6 -28 6 -62 0 -73 26 -128 61 -128
18 0 20 4 14 23 -4 12 -9 38 -11 57 -19 155 -37 277 -44 289 -7 14 -88 41
-120 40 -8 0 -42 -10 -75 -21z m136 -59 c14 -28 -3 -90 -38 -137 -29 -38 -110
-82 -153 -82 -61 0 -78 101 -28 165 50 64 195 99 219 54z"/>
<path d="M32461 19024 c0 -11 3 -14 6 -6 3 7 2 16 -1 19 -3 4 -6 -2 -5 -13z"/>
<path d="M27502 18998 c-7 -7 -12 -37 -12 -68 0 -71 -20 -140 -56 -191 -30
-44 -27 -55 11 -45 54 14 108 143 103 246 -3 67 -18 86 -46 58z"/>
<path d="M29367 18968 c-42 -25 -76 -84 -84 -149 -7 -48 -21 -56 -60 -35 -24
12 -32 25 -42 73 -29 132 -42 133 -159 21 l-85 -83 9 40 c4 22 8 63 9 90 0 47
-2 50 -26 53 -40 5 -78 -34 -146 -150 -51 -86 -93 -144 -93 -127 0 24 47 165
67 202 19 34 23 51 16 58 -19 19 -48 5 -66 -32 -24 -51 -81 -274 -74 -293 4
-9 18 -16 33 -16 36 0 80 49 124 136 47 94 88 154 105 154 19 0 19 -2 -4 -81
-21 -74 -15 -99 26 -99 19 0 47 21 107 80 44 44 83 80 87 80 3 0 11 -24 18
-54 13 -61 38 -89 96 -109 22 -8 58 -26 79 -41 41 -28 62 -32 86 -16 13 9 12
12 -4 25 -18 14 -18 15 8 25 15 5 30 10 33 10 16 0 75 55 89 82 24 46 15 135
-16 160 -30 24 -86 23 -133 -4z m105 -45 c22 -20 23 -71 2 -102 -20 -28 -88
-60 -128 -61 -27 0 -28 1 -21 37 11 61 43 113 78 128 41 18 47 18 69 -2z"/>
<path d="M32452 18963 c-6 -10 -9 -62 -7 -116 4 -101 10 -137 24 -137 13 0 17
45 16 152 -1 101 -13 138 -33 101z"/>
<path d="M30105 18920 c-8 -14 -165 -97 -197 -105 -28 -7 -28 -7 -28 44 0 89
-35 80 -112 -31 -44 -63 -108 -119 -108 -95 0 8 14 44 30 80 34 75 37 95 14
104 -23 9 -36 -11 -79 -119 -37 -95 -38 -99 -20 -118 10 -11 28 -20 40 -20 30
0 94 52 135 110 38 53 50 61 50 32 0 -11 9 -27 20 -37 19 -17 22 -17 63 -1 24
9 68 32 98 51 62 39 72 30 40 -34 -26 -50 -27 -81 -3 -81 16 0 65 87 91 160
14 41 -15 92 -34 60z"/>
<path d="M30285 18916 c-27 -19 -13 -48 22 -44 33 4 34 -4 8 -56 l-20 -38 28
-24 c69 -59 158 -7 126 73 -6 15 -12 37 -13 48 -1 13 -15 25 -46 37 -55 21
-81 22 -105 4z m123 -119 c2 -11 -3 -17 -16 -17 -26 0 -34 11 -20 27 14 17 32
12 36 -10z"/>
<path d="M30646 18875 c-38 -30 -72 -55 -76 -55 -13 0 -59 -81 -54 -95 10 -26
30 -17 78 35 52 56 63 60 68 28 2 -15 16 -30 40 -41 49 -24 91 -12 169 49 40
32 68 46 102 50 36 5 47 4 48 -7 5 -69 -21 -125 -131 -279 -86 -121 -149 -183
-187 -184 -23 -1 -28 -6 -28 -26 0 -38 34 -37 86 2 54 41 207 229 261 322 52
88 63 171 28 206 -19 19 -28 21 -68 15 -27 -4 -68 -21 -100 -43 -81 -55 -114
-72 -140 -72 -33 0 -37 24 -12 65 23 37 21 85 -3 85 -6 0 -43 -25 -81 -55z"/>
<path d="M9971 18857 c-8 -11 -9 -27 -2 -58 12 -55 29 -298 36 -539 4 -102 13
-275 20 -385 8 -110 19 -310 25 -445 6 -135 20 -387 30 -560 11 -173 22 -366
26 -429 l7 -114 -104 7 c-260 16 -1121 41 -1759 51 -190 2 -1033 7 -1875 10
-841 3 -1727 10 -1968 16 -436 11 -681 3 -729 -22 -19 -11 -24 -44 -8 -54 6
-3 45 1 88 9 98 20 262 23 782 13 228 -4 1149 -10 2045 -12 1556 -5 2092 -11
2885 -35 195 -6 417 -12 492 -13 75 -1 139 -4 142 -7 3 -3 8 -145 11 -315 3
-171 8 -331 10 -356 12 -109 5 -1019 -9 -1304 -10 -178 -17 -566 -20 -955 -5
-787 -35 -1471 -91 -2070 -8 -85 -19 -213 -24 -285 -6 -71 -17 -215 -26 -320
-22 -269 -64 -797 -70 -880 -3 -38 -10 -203 -15 -365 -12 -329 -42 -838 -64
-1090 -8 -91 -22 -266 -31 -390 -16 -231 -62 -659 -92 -855 -12 -77 -17 -179
-17 -345 -1 -251 4 -293 32 -288 15 3 16 23 14 228 -3 205 -1 246 27 463 31
236 64 546 76 702 3 44 14 190 25 325 42 515 64 885 75 1240 7 210 29 571 51
830 8 96 25 312 39 480 13 168 29 357 34 420 33 365 41 469 55 700 43 708 49
903 51 1540 2 470 7 729 20 955 15 262 16 408 11 941 -3 346 -9 713 -13 814
l-6 183 134 -6 c141 -7 372 -15 804 -26 943 -26 4679 -15 4697 13 26 39 -8 43
-312 35 -157 -4 -510 -9 -784 -12 l-500 -4 26 21 c14 12 33 33 43 48 16 26 16
28 0 34 -10 4 -23 3 -30 -2 -7 -5 -31 -24 -55 -41 -46 -35 -74 -40 -127 -21
-38 14 -52 5 -35 -22 11 -19 6 -19 -186 -23 -486 -8 -2614 8 -2952 23 -118 5
-329 12 -467 16 l-253 7 0 41 c-1 22 -7 131 -15 241 -8 110 -24 389 -34 620
-11 231 -25 485 -31 565 -6 80 -12 174 -15 210 -2 36 -7 171 -10 300 -7 262
-20 480 -33 525 -9 33 -33 43 -51 22z"/>
<path d="M32625 18678 c-4 -10 -4 -26 0 -35 8 -17 8 -17 12 0 3 9 3 25 0 35
-4 16 -4 16 -12 0z"/>
<path d="M32470 18659 c0 -5 5 -7 10 -4 6 3 10 8 10 11 0 2 -4 4 -10 4 -5 0
-10 -5 -10 -11z"/>
<path d="M32464 18596 c-7 -15 -8 -30 -2 -40 12 -21 28 -12 21 13 -3 10 0 22
6 25 15 10 14 26 -1 26 -7 0 -18 -11 -24 -24z"/>
<path d="M32471 18476 c-11 -13 -11 -20 -3 -28 15 -15 24 -5 20 23 -3 21 -4
21 -17 5z"/>
<path d="M32465 18373 c8 -55 11 -61 26 -46 6 6 9 28 7 49 -2 29 -8 40 -22 42
-17 4 -18 -1 -11 -45z"/>
<path d="M23402 18377 c-5 -6 -15 -39 -22 -72 -7 -33 -33 -107 -57 -165 -73
-169 -93 -228 -93 -271 0 -52 31 -84 91 -92 55 -8 394 -1 408 8 15 9 14 42 -2
48 -8 3 -93 3 -190 0 -111 -2 -191 0 -216 7 -37 10 -41 14 -41 42 0 28 60 187
81 214 17 21 89 224 89 249 0 29 -33 51 -48 32z"/>
<path d="M25236 18351 c-9 -16 -25 -71 -37 -122 -41 -180 -32 -518 14 -527 16
-3 17 9 16 165 -2 179 15 315 53 427 10 32 17 65 14 72 -9 24 -45 16 -60 -15z"/>
<path d="M29165 18298 c-64 -109 -150 -238 -159 -238 -4 0 -21 11 -38 25 -23
20 -41 25 -81 25 -107 0 -202 -75 -214 -168 -6 -43 -19 -52 -80 -52 -37 0 -47
12 -39 45 4 16 21 31 51 44 86 38 165 119 165 169 0 11 -12 30 -27 42 -23 18
-37 21 -76 17 -60 -5 -88 -31 -128 -115 -17 -35 -37 -66 -46 -69 -10 -4 -13
-13 -8 -32 4 -14 8 -43 9 -63 4 -47 19 -65 66 -79 31 -9 47 -8 85 5 45 15 51
15 96 -1 46 -17 54 -17 128 -1 99 20 137 38 134 62 -1 10 3 24 8 30 5 6 59 90
120 186 110 176 127 220 87 228 -11 2 -28 -17 -53 -60z m-447 -150 c6 -33
-114 -138 -140 -122 -12 8 39 100 69 123 31 25 66 24 71 -1z m226 -100 c9 -12
16 -39 16 -60 0 -20 5 -40 10 -43 21 -13 -3 -23 -95 -41 -108 -20 -145 -13
-145 29 0 88 170 179 214 115z"/>
<path d="M29820 18271 c-61 -34 -125 -80 -152 -108 -102 -105 -149 -276 -96
-352 43 -64 175 -111 258 -92 73 16 78 55 6 45 -54 -8 -144 17 -185 51 -44 38
-54 78 -36 148 35 136 89 198 240 273 101 51 115 61 115 80 0 27 -46 13 -150
-45z"/>
<path d="M32474 18278 c7 -38 13 -45 26 -32 7 7 6 19 -2 37 -18 37 -32 34 -24
-5z"/>
<path d="M5120 18265 c-79 -11 -288 -50 -377 -70 -31 -7 -48 -41 -32 -62 15
-18 21 -17 219 32 211 51 348 60 630 41 424 -29 435 -29 450 -11 8 9 9 19 4
24 -5 5 -97 16 -204 25 -107 9 -240 21 -295 26 -135 13 -280 11 -395 -5z"/>
<path d="M7821 18269 c-157 -16 -193 -23 -204 -40 -6 -9 -7 -24 -4 -33 8 -20
46 -21 175 -2 156 23 314 28 512 16 448 -26 565 -24 565 11 0 10 -16 15 -60
17 -33 1 -148 9 -255 18 -243 19 -605 26 -729 13z"/>
<path d="M26485 18228 c-2 -13 -10 -70 -16 -128 -6 -58 -13 -107 -15 -109 -3
-3 -43 -25 -91 -50 -98 -52 -118 -74 -89 -96 21 -16 30 -12 120 50 27 19 53
32 58 29 4 -3 8 -33 9 -67 1 -78 10 -111 32 -115 15 -3 17 7 17 91 0 53 3 102
6 111 6 16 134 59 206 69 68 10 81 -28 57 -173 -13 -75 -5 -100 31 -100 21 0
39 22 110 131 52 80 133 163 153 156 33 -11 30 -132 -7 -248 -16 -53 -7 -81
21 -63 47 28 86 209 64 291 -12 45 -48 73 -91 73 -21 0 -129 -100 -183 -170
l-27 -35 1 40 c3 72 -1 86 -30 116 -38 37 -85 38 -201 4 -47 -13 -88 -21 -93
-16 -4 4 -1 52 8 105 12 75 13 101 4 112 -18 22 -48 17 -54 -8z"/>
<path d="M24792 18212 c-87 -35 -147 -119 -159 -222 -6 -52 -11 -57 -45 -39
-16 9 -24 7 -36 -5 -23 -23 -5 -48 44 -62 34 -9 41 -17 56 -59 22 -60 62 -103
105 -111 68 -13 183 35 183 77 0 24 -17 24 -71 -1 -90 -40 -156 -18 -166 55
l-5 40 64 28 c78 34 132 77 169 136 37 58 38 101 2 141 -35 39 -83 46 -141 22z
m102 -58 c20 -19 20 -27 1 -64 -27 -51 -154 -140 -201 -140 -17 0 -8 61 18
117 37 81 140 130 182 87z"/>
<path d="M30415 18196 c-9 -13 -29 -62 -45 -109 -26 -78 -35 -91 -114 -174
-96 -100 -159 -139 -199 -124 -51 20 -47 94 9 160 45 52 81 71 137 71 45 0 75
19 62 40 -8 13 -79 13 -127 0 -48 -14 -136 -94 -159 -145 -25 -54 -24 -95 4
-136 20 -30 29 -34 70 -37 64 -4 132 34 204 113 48 52 54 56 49 32 -10 -44 1
-67 33 -67 31 0 63 22 123 84 l39 41 -7 -67 c-9 -91 7 -118 70 -118 27 0 48
-6 56 -15 26 -32 101 -12 149 39 32 34 38 33 33 -8 -5 -41 12 -76 37 -76 27 0
71 38 71 62 0 17 -4 19 -26 14 l-26 -7 7 51 c4 28 13 72 19 98 18 66 7 92 -39
92 -76 0 -150 -56 -204 -156 -30 -54 -51 -70 -76 -60 -16 6 -17 14 -10 79 15
134 13 152 -15 156 -20 2 -37 -10 -91 -69 -36 -40 -71 -71 -77 -69 -13 5 46
188 90 276 23 47 -18 73 -47 29z m396 -275 c-25 -48 -109 -141 -128 -141 -34
0 39 127 95 165 46 31 57 23 33 -24z"/>
<path d="M23975 18186 c-95 -30 -146 -76 -165 -148 -28 -101 40 -250 127 -279
42 -14 105 -3 138 23 48 37 22 72 -34 44 -63 -33 -129 -8 -157 60 -23 56 -20
62 35 56 93 -9 221 50 261 120 22 40 -6 93 -63 118 -48 22 -85 24 -142 6z
m133 -62 c39 -27 25 -54 -46 -91 -62 -32 -134 -43 -176 -27 -40 15 2 85 68
115 51 23 124 24 154 3z"/>
<path d="M24592 18188 c-5 -7 -22 -38 -37 -68 -67 -132 -199 -280 -251 -280
-34 0 -39 21 -25 99 18 100 18 112 -1 125 -28 17 -48 -12 -58 -85 -43 -298
149 -274 338 42 29 48 57 100 63 118 17 47 -3 80 -29 49z"/>
<path d="M27174 18185 c-8 -19 3 -35 25 -35 22 0 45 25 36 40 -9 15 -55 12
-61 -5z"/>
<path d="M32487 18173 c-4 -3 -7 -15 -7 -25 0 -26 24 -17 28 10 3 21 -8 29
-21 15z"/>
<path d="M28158 18119 c-19 -19 -49 -62 -67 -96 -17 -35 -37 -63 -45 -63 -9 0
-14 -16 -15 -52 -1 -29 -3 -70 -4 -92 -2 -31 3 -42 25 -59 37 -28 84 -17 136
33 23 22 47 40 54 40 7 0 42 41 77 90 35 50 81 105 103 122 46 36 39 57 -14
39 -48 -16 -198 -180 -198 -216 0 -15 -58 -61 -95 -75 -20 -7 -27 -7 -31 4 -8
21 19 108 36 116 8 4 33 16 55 26 49 23 145 114 145 137 0 31 -43 68 -86 74
-36 5 -44 1 -76 -28z m99 -36 c5 -12 -7 -29 -41 -60 -44 -39 -76 -54 -76 -35
0 11 28 52 58 85 29 31 50 35 59 10z"/>
<path d="M27760 18121 c-61 -19 -92 -44 -111 -84 -27 -61 -25 -112 7 -144 25
-24 30 -25 105 -20 43 3 79 3 79 1 0 -15 -101 -307 -120 -346 -13 -29 -35 -55
-56 -67 -36 -21 -42 -39 -22 -59 31 -31 77 5 124 98 26 52 120 295 150 389 24
75 -6 89 -98 46 -92 -43 -136 -28 -125 42 11 67 90 120 149 101 24 -8 33 -23
52 -81 8 -26 50 -19 54 10 4 28 -22 79 -51 98 -28 18 -103 27 -137 16z"/>
<path d="M27423 18085 c-30 -21 -106 -121 -138 -180 -33 -63 -33 -102 0 -115
47 -18 85 8 130 89 22 40 41 68 43 61 11 -33 -115 -368 -168 -445 -32 -47 -50
-55 -70 -31 -16 20 -40 9 -40 -19 0 -29 30 -55 64 -55 53 0 105 75 181 264 89
222 126 372 95 391 -5 3 -10 17 -10 31 0 21 -5 24 -33 24 -18 0 -42 -7 -54
-15z m31 -67 c-75 -121 -134 -195 -134 -168 0 28 111 180 132 180 5 0 6 -6 2
-12z"/>
<path d="M8242 18049 c-118 -20 -258 -114 -315 -212 -94 -159 -85 -370 38
-905 17 -73 53 -132 81 -132 27 0 27 30 0 90 -51 113 -113 399 -127 585 -15
198 10 297 99 396 47 53 91 79 181 110 63 22 237 26 292 7 82 -28 232 -130
262 -178 21 -33 13 -63 -29 -101 -42 -38 -92 -55 -354 -120 -278 -69 -371
-109 -407 -174 -26 -45 -27 -64 -12 -118 15 -54 61 -102 132 -137 34 -16 163
-57 287 -90 124 -32 241 -64 260 -70 70 -20 130 -11 130 21 0 26 -6 27 -290
94 -383 89 -470 132 -470 227 0 89 70 121 458 213 213 50 285 78 331 131 25
28 31 43 31 82 0 68 -36 114 -145 184 -149 95 -274 123 -433 97z"/>
<path d="M31792 18008 c-113 -34 -172 -95 -172 -177 0 -26 7 -56 15 -69 24
-33 93 -69 170 -87 39 -9 88 -20 110 -26 56 -14 130 -8 130 11 0 10 -31 21
-110 37 -152 32 -205 51 -243 89 -29 29 -31 35 -21 61 14 37 56 81 99 103 44
22 116 35 124 22 8 -13 -90 -97 -128 -112 -29 -11 -31 -33 -2 -38 25 -5 115
42 159 82 89 83 9 147 -131 104z"/>
<path d="M31451 17957 c-50 -25 -115 -87 -137 -130 -14 -25 -14 -31 1 -53 25
-39 49 -32 148 44 32 24 60 42 63 40 8 -8 -21 -78 -95 -231 -76 -156 -83 -192
-41 -192 21 0 27 9 50 75 15 41 46 115 69 163 85 179 102 249 62 262 -10 3
-21 15 -24 25 -7 27 -41 26 -96 -3z m75 -35 c-7 -12 -152 -122 -160 -122 -24
0 43 78 94 109 34 21 76 29 66 13z"/>
<path d="M32491 17954 c0 -11 3 -14 6 -6 3 7 2 16 -1 19 -3 4 -6 -2 -5 -13z"/>
<path d="M25913 17953 c-58 -3 -85 -8 -94 -19 -11 -14 -10 -18 6 -31 11 -8 29
-11 40 -8 11 4 98 9 192 12 118 4 178 10 190 18 10 8 15 16 11 20 -8 8 -231
14 -345 8z"/>
<path d="M31161 17929 c-28 -17 -39 -19 -58 -10 -30 14 -63 -1 -63 -29 0 -11
-7 -35 -16 -54 -9 -19 -14 -41 -11 -50 13 -33 49 -16 123 56 92 89 102 85 84
-32 -13 -87 -6 -116 23 -91 16 13 37 105 37 161 0 67 -54 89 -119 49z"/>
<path d="M32490 17880 c0 -5 5 -10 10 -10 6 0 10 5 10 10 0 6 -4 10 -10 10 -5
0 -10 -4 -10 -10z"/>
<path d="M5184 17860 c-111 -16 -256 -76 -319 -131 -48 -42 -65 -78 -65 -135
0 -42 4 -51 38 -84 48 -45 144 -75 315 -96 217 -27 277 -47 367 -125 83 -71
100 -110 74 -164 -36 -78 -188 -173 -375 -236 -74 -25 -113 -32 -184 -34 -68
-2 -90 -6 -90 -16 0 -41 125 -51 248 -20 258 67 467 215 467 333 0 51 -11 76
-59 130 -54 61 -139 116 -215 140 -34 10 -140 30 -236 44 -269 39 -334 78
-285 173 42 81 210 159 382 177 88 9 200 -19 275 -69 54 -36 88 -43 88 -18 0
17 -50 58 -104 84 -104 51 -200 65 -322 47z"/>
<path d="M32507 17833 c-4 -3 -3 -11 3 -17 5 -7 5 -29 -1 -56 -10 -45 -5 -110
10 -110 4 0 8 43 10 95 2 86 -3 107 -22 88z"/>
<path d="M13708 17753 c-33 -5 -50 -25 -42 -48 6 -15 16 -16 93 -9 47 5 122 8
166 8 136 -2 613 -24 750 -34 324 -25 304 -24 311 -6 15 40 -9 44 -341 60
-176 9 -394 21 -485 26 -159 10 -397 11 -452 3z"/>
<path d="M11365 17685 c-160 -35 -306 -141 -409 -296 -71 -108 -119 -295 -96
-379 45 -166 275 -197 553 -72 57 25 60 25 85 8 15 -9 80 -48 145 -88 65 -39
139 -90 164 -114 50 -49 83 -57 83 -21 0 36 -84 109 -210 182 -63 37 -122 73
-130 82 -13 13 -13 16 4 26 55 35 130 106 154 146 36 61 37 163 3 229 -29 56
-95 128 -141 153 -19 11 -59 33 -88 50 -56 32 -92 32 -92 0 0 -27 34 -52 67
-49 16 1 45 -8 66 -21 47 -29 126 -116 144 -160 22 -52 20 -143 -5 -183 -33
-52 -140 -148 -167 -148 -7 0 -37 25 -68 56 -41 41 -61 55 -78 52 -44 -6 -35
-37 27 -93 l58 -52 -94 -32 c-72 -25 -119 -34 -193 -38 -205 -12 -267 60 -223
259 48 213 198 380 406 450 131 44 233 23 295 -61 31 -42 68 -54 79 -25 8 21
-6 44 -53 87 -69 62 -164 79 -286 52z"/>
<path d="M32510 17590 c0 -13 5 -20 13 -17 6 2 12 10 12 17 0 7 -6 15 -12 18
-8 2 -13 -5 -13 -18z"/>
<path d="M14104 17566 c-97 -19 -137 -32 -218 -74 -121 -63 -212 -163 -256
-281 -69 -182 -36 -282 114 -352 34 -16 95 -34 136 -40 98 -15 304 -6 440 21
58 11 108 20 111 20 4 0 67 -57 141 -126 155 -147 238 -206 283 -202 41 4 42
38 2 49 -16 4 -52 25 -80 47 -60 46 -248 218 -260 237 -5 10 6 16 42 24 27 6
75 22 107 36 126 56 170 138 139 258 -23 88 -51 134 -129 214 -129 133 -214
172 -391 178 -69 3 -137 -1 -181 -9z m325 -51 c63 -22 111 -46 111 -56 0 -5
-26 -9 -58 -9 -93 0 -212 -46 -212 -81 0 -24 34 -18 89 16 48 30 73 38 124 42
114 9 172 -43 197 -177 14 -73 32 -102 52 -82 21 21 28 13 28 -33 0 -99 -44
-146 -187 -200 -100 -38 -97 -38 -179 36 -57 52 -70 55 -88 26 -9 -15 -3 -25
39 -61 28 -24 48 -46 45 -49 -3 -3 -79 -11 -170 -17 -283 -21 -426 2 -516 83
-43 40 -47 47 -52 99 -11 135 94 306 241 392 57 34 174 75 246 86 75 12 238 4
290 -15z"/>
<path d="M24910 17521 c-91 -19 -238 -111 -264 -166 -28 -57 -7 -74 114 -95
77 -14 100 -25 100 -48 -1 -62 -201 -181 -279 -166 -36 7 -60 -18 -40 -42 20
-24 113 -14 180 19 63 30 147 98 179 144 44 64 1 108 -131 133 -68 13 -84 28
-64 57 22 32 157 113 199 120 56 9 62 -16 41 -177 -19 -150 -16 -183 18 -178
19 3 23 11 28 67 5 56 10 68 35 88 16 13 49 29 74 37 45 14 130 29 130 23 0
-2 -18 -38 -40 -81 -22 -42 -40 -90 -40 -105 0 -35 28 -61 66 -61 41 0 73 25
94 74 l19 40 10 -27 c6 -16 11 -35 11 -43 0 -24 28 -71 45 -78 9 -3 32 -6 51
-6 26 0 38 7 56 31 l23 31 5 -38 c4 -28 10 -40 24 -42 26 -5 36 15 36 78 0 95
4 100 70 100 57 0 59 -1 65 -30 8 -38 48 -86 89 -107 41 -22 175 -21 273 2 74
17 93 29 75 47 -6 6 -41 4 -102 -8 -58 -10 -116 -14 -154 -11 -52 5 -65 10
-88 36 -29 32 -37 79 -15 85 6 2 38 10 70 17 74 16 107 41 107 80 0 92 -215
90 -249 -2 -18 -48 -26 -62 -34 -60 -4 0 -25 1 -48 1 l-41 0 7 43 c4 23 16 72
27 108 23 72 20 99 -11 99 -28 0 -39 -24 -64 -142 -20 -92 -25 -103 -47 -108
-33 -8 -39 -37 -8 -42 20 -3 23 -9 23 -43 0 -34 -3 -40 -21 -41 -12 -1 -31
-11 -43 -23 -41 -41 -54 -25 -75 98 -9 52 -16 104 -16 116 0 12 -11 31 -24 44
-22 21 -27 21 -128 12 -92 -9 -140 -20 -198 -45 -13 -5 -15 7 -15 78 0 47 -4
89 -10 95 -15 15 -56 20 -95 12z m1000 -186 c6 -8 9 -18 6 -24 -7 -11 -92 -41
-118 -41 -25 0 -22 26 7 55 28 29 85 34 105 10z m-600 -42 c0 -52 -76 -170
-97 -150 -17 17 61 177 87 177 5 0 10 -12 10 -27z"/>
<path d="M26701 17485 c-35 -30 -51 -75 -89 -256 -19 -87 -26 -143 -21 -157
13 -36 55 -28 118 22 73 56 113 76 159 79 33 2 37 -1 37 -22 0 -16 -13 -35
-38 -55 -32 -26 -48 -31 -93 -32 -64 -1 -89 -18 -60 -40 42 -31 157 -5 214 49
l22 21 16 -22 c23 -33 64 -28 119 13 48 37 65 38 65 4 0 -30 51 -76 98 -88 69
-19 153 11 152 53 0 6 -11 37 -24 68 -20 48 -21 60 -11 75 11 14 19 16 51 7
34 -8 39 -13 36 -34 -15 -116 -15 -113 18 -145 29 -28 36 -30 108 -30 62 0 77
3 77 15 0 11 -15 16 -51 20 -87 9 -125 52 -95 109 9 15 21 17 88 13 69 -3 81
-2 101 17 66 64 -14 102 -135 64 -50 -16 -55 -16 -88 0 -39 19 -116 22 -145 7
-29 -16 -33 -61 -11 -123 23 -67 14 -82 -43 -72 -50 10 -69 36 -74 103 -2 31
-11 65 -20 75 -8 9 -11 17 -6 17 5 0 23 11 39 25 25 20 28 26 15 34 -19 13
-169 -66 -222 -117 -28 -27 -38 -32 -38 -19 0 9 -9 26 -20 37 -42 42 -151 17
-267 -60 -18 -12 -33 -20 -33 -18 0 2 9 46 20 98 28 129 57 214 80 235 24 22
26 41 4 49 -21 8 -19 9 -53 -19z m381 -337 c-52 -53 -82 -60 -45 -10 23 31 83
75 92 67 3 -3 -18 -29 -47 -57z m553 52 c-3 -5 -14 -10 -23 -10 -15 0 -15 2
-2 10 20 13 33 13 25 0z"/>
<path d="M32530 17480 c0 -13 7 -20 20 -20 26 0 65 -70 76 -135 l9 -50 3 50
c5 70 -5 110 -34 145 -30 36 -74 42 -74 10z"/>
<path d="M28080 17400 c-28 -39 -78 -150 -99 -220 -14 -46 -21 -55 -41 -56
-14 -1 -35 -2 -48 -3 -28 -1 -62 -54 -62 -97 0 -64 71 -92 183 -74 40 7 78 17
84 22 26 21 0 29 -72 22 -95 -9 -125 -1 -125 30 0 60 43 81 55 27 15 -69 65
-67 65 3 0 62 34 166 86 265 25 47 42 91 40 98 -9 23 -44 14 -66 -17z"/>
<path d="M29754 17355 c-10 -25 22 -53 44 -39 9 6 17 20 17 30 0 25 -52 33
-61 9z"/>
<path d="M31762 17338 c-10 -18 -43 -102 -72 -186 -44 -129 -51 -158 -41 -178
17 -37 28 -29 46 32 21 71 101 270 121 298 18 27 18 52 -2 60 -26 10 -32 7
-52 -26z"/>
<path d="M31148 17339 c-21 -12 -53 -111 -63 -194 -4 -33 -16 -72 -26 -87 -15
-21 -17 -32 -9 -53 6 -15 8 -30 5 -35 -10 -17 15 -62 32 -58 14 2 18 14 19 49
2 87 27 105 224 165 77 23 106 36 109 49 3 16 -3 17 -50 12 -30 -3 -94 -19
-144 -36 -49 -17 -94 -31 -99 -31 -11 0 -2 45 26 133 18 59 19 70 7 82 -10 10
-19 11 -31 4z"/>
<path d="M32497 17329 c-39 -22 -72 -118 -81 -237 -3 -41 -8 -77 -11 -82 -3
-4 -28 -11 -55 -15 -51 -7 -100 11 -100 36 0 6 18 31 40 56 22 25 40 52 40 59
0 41 -82 60 -113 27 -8 -10 -20 -37 -26 -60 -18 -67 -101 -99 -101 -40 0 14
-7 30 -15 37 -12 10 -19 7 -38 -14 -29 -31 -39 -25 -25 14 19 56 11 63 -74 67
-87 4 -119 -7 -161 -56 -31 -37 -41 -79 -28 -113 8 -20 6 -29 -5 -38 -7 -7
-14 -19 -14 -27 0 -12 6 -14 28 -8 15 4 50 8 77 9 60 2 93 17 56 26 -14 3 -26
10 -28 16 -4 11 75 79 83 72 2 -3 8 -28 14 -56 11 -58 35 -102 56 -102 17 0
18 21 2 55 -10 22 -9 29 9 46 18 18 24 19 43 9 14 -8 42 -10 72 -7 40 5 54 2
83 -17 39 -27 108 -40 160 -30 30 5 35 4 35 -13 0 -25 35 -57 51 -48 8 6 9 34
5 105 -8 106 6 186 47 268 18 37 19 44 6 57 -10 10 -19 11 -32 4z m-561 -191
c8 -13 -99 -118 -121 -118 -23 0 -27 18 -11 47 19 37 47 62 82 73 40 12 42 12
50 -2z"/>
<path d="M28598 17213 c-44 -34 -55 -50 -63 -95 -5 -26 -1 -40 15 -60 43 -55
130 -45 201 21 31 30 39 45 39 73 0 48 -31 74 -100 82 -51 6 -59 4 -92 -21z
m131 -37 c29 -35 -60 -117 -110 -101 -43 14 -12 88 44 104 45 13 53 13 66 -3z"/>
<path d="M29020 17194 c-25 -14 -53 -33 -63 -41 -16 -15 -18 -15 -32 3 -11 15
-18 17 -32 8 -32 -19 -64 -76 -61 -109 5 -51 35 -44 133 35 83 66 120 87 144
78 6 -1 25 -32 43 -68 25 -49 39 -66 57 -68 21 -3 23 -1 17 23 -16 64 -49 136
-69 150 -32 22 -86 18 -137 -11z"/>
<path d="M29721 17132 c-34 -87 -38 -117 -16 -126 21 -8 38 13 74 98 36 81 35
106 -2 106 -21 0 -29 -11 -56 -78z"/>
<path d="M30078 17180 c-27 -28 -32 -29 -47 -16 -9 8 -22 12 -28 8 -15 -10
-66 -169 -58 -182 3 -6 17 -10 30 -10 17 0 31 13 52 45 15 25 30 45 33 45 3 0
11 -14 17 -31 17 -45 35 -31 55 42 21 82 22 115 2 123 -23 9 -23 9 -56 -24z"/>
<path d="M30502 17124 c-58 -49 -151 -174 -234 -314 -73 -122 -80 -153 -37
-158 24 -3 31 6 78 90 68 123 159 244 194 259 34 14 100 109 95 136 -6 33 -49
27 -96 -13z"/>
<path d="M30880 17085 c-41 -41 -78 -75 -82 -75 -4 0 -5 20 -1 45 5 41 4 45
-16 45 -27 0 -61 -53 -61 -96 0 -52 51 -80 100 -54 31 17 160 170 160 190 0
35 -24 22 -100 -55z"/>
<path d="M32618 16874 c-30 -54 -120 -145 -175 -176 -77 -43 -67 -84 14 -57
61 20 109 57 148 113 32 46 36 59 33 102 l-3 49 -17 -31z"/>
<path d="M32540 16470 c0 -11 5 -20 10 -20 6 0 10 9 10 20 0 11 -4 20 -10 20
-5 0 -10 -9 -10 -20z"/>
<path d="M27215 16338 c-53 -29 -168 -123 -198 -161 -136 -167 -152 -421 -34
-546 36 -38 114 -91 134 -91 26 0 12 24 -46 76 -91 83 -122 174 -103 301 23
153 80 239 224 340 52 36 78 61 76 72 -4 20 -27 24 -53 9z"/>
<path d="M31865 16330 c-4 -6 6 -37 23 -68 39 -73 70 -188 78 -284 12 -140
-44 -260 -188 -406 -40 -41 -101 -94 -135 -120 -85 -62 -86 -81 -2 -41 115 56
275 226 338 359 24 50 26 66 25 175 0 90 -6 140 -22 199 -38 139 -93 225 -117
186z"/>
<path d="M22790 16300 c-47 -5 -116 -16 -155 -24 -67 -15 -71 -14 -84 4 -17
25 -47 26 -60 1 -6 -10 -12 -38 -15 -62 -2 -24 -10 -75 -16 -114 -10 -51 -11
-113 -4 -230 7 -150 8 -314 2 -395 -3 -29 0 -35 17 -35 12 0 25 12 34 30 20
40 26 202 12 294 -6 41 -9 76 -7 78 7 8 260 -26 354 -46 85 -18 119 -14 92 13
-19 18 -203 63 -290 71 -36 4 -87 11 -114 17 l-49 11 7 86 c4 47 12 113 19
145 l12 60 49 12 c112 29 288 47 392 41 88 -5 104 -4 104 9 0 8 -12 19 -26 24
-38 15 -178 20 -274 10z"/>
<path d="M32552 16250 c0 -14 2 -19 5 -12 2 6 2 18 0 25 -3 6 -5 1 -5 -13z"/>
<path d="M24995 16241 c-67 -41 -111 -113 -161 -266 -35 -109 -31 -105 -127
-120 -44 -7 -59 -31 -31 -52 18 -13 35 -12 87 3 17 5 18 0 13 -78 -7 -92 7
-150 37 -156 15 -3 17 7 18 90 0 51 5 109 12 128 12 35 12 35 102 47 107 15
138 27 133 51 -4 19 -18 20 -126 2 -40 -7 -76 -10 -79 -7 -7 7 40 141 69 200
27 53 96 127 120 127 11 0 31 -9 45 -19 27 -22 56 -17 51 7 -5 24 -67 62 -102
62 -17 0 -45 -8 -61 -19z"/>
<path d="M23246 16198 c-26 -63 -54 -396 -39 -463 7 -30 14 -40 28 -40 18 0
21 12 32 162 7 89 21 204 31 255 11 51 17 99 15 106 -3 6 -16 12 -30 12 -18 0
-27 -8 -37 -32z"/>
<path d="M28984 16185 c-9 -23 6 -37 38 -33 45 7 58 -20 57 -117 0 -44 -4
-100 -7 -125 l-7 -45 -67 -23 c-71 -26 -84 -39 -63 -68 13 -18 15 -18 53 4 57
32 62 29 59 -30 -2 -42 1 -53 15 -56 13 -2 21 11 35 60 l19 63 69 5 c56 4 70
8 73 23 3 15 -5 17 -55 17 -73 0 -83 9 -72 63 12 60 11 205 -1 228 -23 42
-133 68 -146 34z"/>
<path d="M25362 16178 c-40 -51 -162 -396 -162 -461 0 -35 21 -64 38 -53 5 3
12 24 16 46 10 62 113 339 147 394 33 54 31 86 -5 86 -13 0 -28 -6 -34 -12z"/>
<path d="M27682 16181 c-25 -15 -44 -193 -38 -336 10 -214 20 -265 51 -265 13
0 15 34 15 221 0 165 4 237 16 290 12 55 13 73 4 84 -14 17 -29 19 -48 6z"/>
<path d="M23544 16125 c-9 -23 9 -37 42 -33 21 2 29 8 29 23 0 26 -62 35 -71
10z"/>
<path d="M28451 15998 c-10 -24 -23 -65 -30 -93 -16 -62 -73 -188 -107 -232
-43 -57 -32 -68 67 -66 158 3 330 47 346 89 8 21 -33 61 -83 80 -43 16 -116
16 -188 -2 -27 -6 -28 -6 -16 17 22 40 80 193 80 209 0 20 -19 40 -37 40 -8 0
-22 -19 -32 -42z m172 -259 c20 -5 37 -14 37 -18 0 -5 -17 -16 -38 -24 -49
-20 -211 -52 -219 -43 -11 10 39 57 82 77 46 21 84 23 138 8z"/>
<path d="M15626 15984 c-166 -72 -320 -216 -399 -375 -111 -220 -95 -394 48
-527 74 -70 183 -144 204 -140 32 6 15 33 -54 86 -171 130 -209 191 -208 327
1 96 27 180 85 280 81 136 254 278 373 306 67 15 80 23 80 45 0 29 -59 28
-129 -2z"/>
<path d="M5345 15980 c-116 -17 -284 -108 -383 -207 -88 -88 -115 -142 -116
-233 -1 -118 69 -216 187 -263 169 -68 377 -51 582 48 182 88 244 179 210 310
-33 126 -105 231 -202 293 -74 47 -182 67 -278 52z m201 -57 c122 -48 217
-176 230 -308 7 -75 -10 -118 -67 -170 -49 -44 -198 -117 -284 -139 -250 -63
-474 11 -514 170 -16 64 -13 104 13 159 36 79 162 194 231 211 16 4 47 17 69
30 51 30 133 32 191 5 22 -10 46 -16 53 -14 23 8 12 43 -20 63 l-33 20 32 0
c18 0 63 -12 99 -27z"/>
<path d="M25939 15942 c-91 -58 -159 -166 -221 -350 -51 -149 -57 -200 -29
-226 31 -29 51 -14 51 38 0 92 47 261 97 345 33 57 108 138 145 157 32 16 91
18 119 4 29 -16 24 -61 -8 -92 -23 -21 -126 -81 -253 -147 -8 -5 -15 -14 -15
-22 0 -46 219 41 310 124 42 38 49 49 49 82 0 31 -7 44 -42 76 -38 36 -46 39
-100 39 -47 0 -67 -6 -103 -28z"/>
<path d="M23834 15936 c-87 -38 -213 -285 -275 -539 -13 -53 -1 -80 34 -75 14
2 26 21 43 73 13 39 24 86 25 105 0 19 6 53 12 74 l12 39 80 2 c94 2 171 32
222 86 39 42 53 77 53 136 0 38 -5 50 -34 79 -30 30 -40 34 -87 34 -30 -1 -68
-7 -85 -14z m130 -48 c34 -48 5 -133 -57 -174 -38 -25 -108 -50 -159 -59 -47
-7 -49 4 -13 79 63 133 186 216 229 154z"/>
<path d="M8631 15914 c-178 -47 -325 -122 -388 -199 -19 -22 -39 -64 -49 -103
-22 -81 -10 -171 33 -240 34 -55 132 -125 204 -146 141 -42 394 -46 499 -8
187 67 395 287 393 415 -1 59 -40 127 -100 173 -52 39 -200 94 -256 94 -23 0
-66 9 -95 20 -68 26 -126 25 -241 -6z m244 -48 c38 -19 73 -50 136 -120 47
-54 91 -95 99 -93 8 1 16 14 18 28 3 22 -10 38 -70 92 -40 36 -70 68 -67 71 9
9 142 -39 187 -68 56 -35 92 -90 92 -140 0 -61 -36 -124 -119 -206 -86 -85
-188 -150 -276 -176 -115 -34 -364 -13 -479 39 -57 26 -108 73 -133 121 -21
40 -22 167 -1 216 44 104 163 177 383 235 116 31 165 31 230 1z"/>
<path d="M25530 15913 c-34 -12 -80 -69 -96 -117 -35 -106 -20 -162 54 -193
85 -36 232 59 232 150 0 55 -38 115 -90 142 -32 16 -81 25 -100 18z m96 -77
c40 -40 46 -89 14 -129 -23 -29 -96 -60 -131 -55 -20 2 -25 10 -27 42 -2 21 2
53 9 70 18 43 69 106 87 106 8 0 29 -15 48 -34z"/>
<path d="M28814 15899 c-3 -6 -13 -43 -21 -82 -8 -40 -28 -98 -45 -129 -16
-31 -27 -61 -23 -67 14 -24 45 -10 72 32 36 57 84 216 71 240 -10 19 -43 23
-54 6z"/>
<path d="M24264 15886 c-16 -42 4 -49 179 -62 75 -5 87 -4 87 9 0 21 -11 27
-83 42 -123 26 -176 29 -183 11z"/>
<path d="M30177 15869 c-27 -16 -57 -87 -57 -137 0 -37 -4 -44 -27 -53 -43
-16 -53 -6 -53 55 0 57 -16 86 -49 86 -19 0 -78 -37 -141 -88 l-40 -34 -6 31
c-4 16 -15 38 -26 48 -25 23 -43 11 -85 -53 -18 -27 -39 -58 -48 -69 -15 -19
-16 -19 -5 3 6 13 10 35 8 50 -2 21 -8 27 -27 27 -21 0 -27 -10 -54 -88 -34
-97 -31 -119 15 -125 26 -3 62 37 134 148 l29 45 5 -45 c4 -40 8 -45 32 -48
22 -3 42 11 104 68 42 39 81 69 88 67 6 -2 12 -26 12 -52 2 -66 29 -89 98 -82
37 3 57 0 82 -15 18 -11 41 -18 51 -16 26 5 22 32 -5 36 -41 6 -37 30 17 87
39 41 51 61 51 85 0 65 -51 99 -103 69z m53 -66 c-1 -23 -36 -70 -46 -60 -9 9
22 77 36 77 5 0 10 -8 10 -17z"/>
<path d="M31320 15842 c-85 -37 -106 -51 -120 -80 -8 -18 -8 -28 1 -38 19 -23
42 -16 72 21 31 39 122 91 132 75 3 -5 1 -18 -5 -29 -24 -47 -3 -91 44 -91 9
0 58 18 110 40 119 51 156 59 156 35 0 -48 -197 -342 -281 -420 -47 -43 -67
-55 -87 -53 -21 2 -28 -2 -30 -20 -5 -31 22 -38 69 -17 54 25 148 127 239 260
123 180 143 216 144 260 l1 40 -45 3 c-31 2 -76 -8 -148 -33 -56 -19 -104 -35
-107 -35 -2 0 -2 13 1 30 4 16 3 41 0 55 -5 21 -12 25 -44 25 -20 0 -66 -13
-102 -28z"/>
<path d="M11118 15843 c-28 -32 -29 -60 -7 -185 15 -90 22 -180 25 -332 5
-204 11 -246 38 -246 19 0 31 361 17 485 -6 50 -11 122 -12 160 -2 123 -22
162 -61 118z"/>
<path d="M16470 15843 c-67 -24 -200 -163 -272 -284 -84 -143 -140 -338 -104
-368 8 -7 23 -11 33 -9 15 3 19 17 24 83 6 75 36 195 48 195 4 0 11 -10 16
-22 18 -41 95 -83 196 -106 159 -37 202 -42 217 -28 21 20 -3 32 -93 46 -198
31 -321 97 -212 114 71 11 179 47 247 81 244 124 255 317 18 314 -40 0 -93 -8
-118 -16z m185 -17 c64 -27 60 -92 -10 -161 -69 -69 -218 -137 -371 -169 -76
-16 -75 -16 -20 67 87 130 194 229 280 259 63 21 77 22 121 4z"/>
<path d="M23424 15835 c-11 -29 18 -184 38 -202 30 -27 41 -4 39 79 -2 100
-16 138 -47 138 -14 0 -27 -7 -30 -15z"/>
<path d="M30964 15814 c-42 -63 -7 -124 70 -124 77 0 86 35 25 104 -46 52 -71
58 -95 20z m66 -64 c0 -5 -4 -10 -10 -10 -5 0 -10 5 -10 10 0 6 5 10 10 10 6
0 10 -4 10 -10z"/>
<path d="M14122 15812 c-15 -15 -20 -41 -25 -118 -3 -54 -13 -133 -22 -174
-28 -131 -57 -363 -52 -414 5 -52 25 -76 43 -51 6 8 14 56 18 106 4 50 18 150
32 222 61 323 74 409 63 428 -12 24 -34 24 -57 1z"/>
<path d="M30740 15784 c-78 -40 -86 -41 -94 -9 -10 39 -37 30 -93 -32 -52 -59
-83 -69 -44 -15 25 35 27 70 6 78 -24 9 -43 -13 -86 -98 -44 -87 -48 -113 -20
-128 28 -14 27 -15 86 41 48 45 57 50 85 44 24 -5 45 1 104 34 l74 41 -1 -47
c-2 -37 2 -48 15 -51 12 -2 22 8 34 35 36 84 39 125 11 136 -7 2 -41 -11 -77
-29z"/>
<path d="M19593 15712 c-21 -27 -65 -97 -97 -156 -53 -96 -60 -105 -75 -93
-76 67 -171 52 -195 -30 -18 -57 59 -139 157 -168 72 -21 107 -20 107 4 0 15
-11 22 -50 30 -123 26 -183 88 -132 134 37 34 83 15 111 -43 9 -19 22 -35 28
-38 12 -3 16 4 44 78 18 47 123 207 166 251 40 43 41 72 2 77 -21 2 -34 -7
-66 -46z"/>
<path d="M17194 15679 c-28 -10 -69 -35 -91 -54 -36 -31 -48 -35 -97 -35 -97
0 -186 -59 -223 -147 -12 -30 -12 -38 5 -77 21 -45 51 -71 117 -99 83 -35 205
-48 246 -27 22 12 25 45 6 76 -34 59 -67 125 -67 135 0 6 9 23 20 37 14 18 19
34 15 52 -5 22 0 32 30 54 43 33 96 56 130 56 27 0 68 -52 84 -108 11 -37 6
-42 -70 -65 -66 -20 -109 -59 -93 -85 17 -26 38 -25 72 3 47 40 89 51 111 31
18 -16 20 -15 41 13 13 20 30 31 45 31 37 0 75 18 75 35 0 14 -10 16 -57 14
l-57 -3 -23 58 c-46 119 -107 148 -219 105z m-164 -145 c0 -41 -58 -80 -147
-99 -45 -9 -42 6 8 55 54 52 139 79 139 44z m34 -161 c20 -37 36 -73 36 -80 0
-32 -178 0 -220 39 -19 17 -20 23 -8 34 10 10 139 71 155 74 1 0 18 -30 37
-67z"/>
<path d="M18666 15668 c-9 -12 -32 -71 -52 -130 -23 -71 -42 -112 -55 -118
-15 -8 -18 -19 -15 -49 5 -59 15 -69 40 -38 l21 27 112 -10 c61 -6 118 -8 125
-5 8 3 40 -8 72 -25 48 -25 70 -30 125 -30 62 0 91 10 91 32 0 4 -26 9 -57 9
-71 2 -119 11 -116 23 1 5 23 17 48 27 61 23 85 46 85 80 0 46 -17 77 -61 109
-33 24 -52 30 -92 30 -43 0 -53 -4 -84 -35 -34 -34 -35 -37 -31 -100 5 -77 3
-78 -90 -65 -37 5 -73 10 -79 10 -20 0 -16 17 32 138 24 62 42 119 38 127 -8
22 -40 18 -57 -7z m347 -145 c25 -23 22 -69 -5 -87 -29 -19 -115 -42 -124 -33
-11 11 -6 84 7 105 27 43 83 49 122 15z"/>
<path d="M18002 15647 c-31 -17 -53 -52 -46 -71 10 -26 47 -18 83 19 28 29 32
37 21 50 -15 18 -28 18 -58 2z"/>
<path d="M20348 15619 c-38 -22 -14 -51 34 -42 23 4 29 -3 73 -84 26 -48 61
-107 77 -131 85 -124 123 -261 115 -417 -9 -167 -50 -282 -134 -375 -57 -63
-115 -98 -212 -126 -100 -29 -107 -48 -14 -42 179 10 343 171 388 383 25 116
29 211 12 305 -20 111 -46 179 -109 281 -28 46 -64 113 -80 147 -45 99 -96
133 -150 101z"/>
<path d="M18225 15491 c-146 -68 -165 -159 -47 -220 65 -34 203 -30 216 6 10
26 -2 30 -76 26 -78 -5 -143 13 -155 43 -8 22 38 66 94 88 76 30 86 42 57 70
-19 20 -17 20 -89 -13z"/>
<path d="M17884 15491 c-28 -10 -63 -26 -78 -36 -14 -10 -28 -16 -29 -14 -1 2
-7 13 -13 24 -11 20 -54 34 -55 18 0 -4 -1 -29 -2 -55 -2 -39 -9 -53 -45 -92
-44 -48 -50 -64 -30 -84 21 -21 46 -13 75 24 60 79 99 117 148 145 69 40 85
38 85 -8 0 -21 -9 -58 -20 -82 -25 -54 -25 -71 -2 -71 41 0 92 88 92 160 0 30
-7 47 -25 65 -29 30 -35 30 -101 6z"/>
<path d="M30204 15236 c-90 -35 -121 -53 -171 -99 -59 -54 -94 -107 -127 -190
-54 -136 -54 -233 0 -304 24 -31 135 -93 168 -93 30 0 16 31 -20 46 -91 38
-126 86 -125 169 1 119 56 248 141 335 53 54 71 64 218 121 12 5 22 15 22 24
0 21 -34 18 -106 -9z"/>
<path d="M23455 15214 c-8 -9 -15 -27 -15 -42 0 -59 -46 -170 -116 -279 -84
-132 -93 -177 -44 -223 39 -36 119 -54 214 -47 339 26 346 27 346 57 0 24 -15
28 -65 19 -72 -14 -398 -22 -427 -11 -49 20 -52 43 -14 114 25 47 38 62 52 60
131 -23 168 -24 328 -13 185 14 198 17 194 38 -3 13 -41 15 -250 17 -135 0
-249 4 -252 7 -4 3 5 26 18 50 39 70 76 176 76 218 0 44 -20 59 -45 35z"/>
<path d="M29355 15171 c-16 -10 -37 -27 -47 -37 -30 -34 -101 -175 -129 -256
-15 -44 -30 -82 -33 -85 -3 -3 -23 2 -46 11 -89 35 -164 3 -177 -77 -16 -105
72 -130 296 -83 117 25 148 39 121 56 -8 6 -21 8 -28 5 -7 -2 -41 -7 -77 -11
-54 -6 -65 -4 -65 8 0 27 38 127 90 235 40 82 65 119 108 161 43 43 53 58 45
70 -14 23 -25 24 -58 3z m-261 -432 c17 -14 26 -29 24 -43 -6 -42 -128 -27
-136 17 -9 47 64 64 112 26z"/>
<path d="M17896 15118 c-3 -7 -10 -49 -16 -93 -13 -86 -51 -216 -81 -279 -26
-54 -24 -74 6 -82 16 -4 34 1 54 15 22 16 44 21 95 21 68 0 206 24 238 41 15
8 17 6 15 -13 -1 -17 4 -24 19 -26 15 -2 25 8 43 42 40 82 40 175 -1 197 -31
17 -42 -2 -39 -71 1 -34 -1 -70 -4 -81 -6 -19 -7 -19 -24 2 -39 48 -186 42
-292 -12 l-42 -21 6 24 c3 12 24 75 46 138 42 117 50 177 29 198 -16 16 -48
15 -52 0z m229 -336 c-6 -5 -37 -14 -70 -21 -33 -7 -68 -15 -77 -17 -33 -10
-18 14 15 25 60 19 148 27 132 13z"/>
<path d="M23516 15121 c-23 -37 33 -47 312 -57 124 -5 166 -3 177 6 27 22 0
33 -102 42 -210 17 -380 21 -387 9z"/>
<path d="M24291 15098 c-23 -24 -64 -143 -82 -238 -7 -36 -14 -66 -14 -68 -1
-1 -15 4 -31 13 -40 21 -133 20 -141 -1 -12 -32 22 -78 81 -108 70 -35 192
-55 231 -38 37 17 26 36 -25 42 -38 4 -45 9 -52 35 -14 55 17 199 64 292 26
52 29 64 19 77 -18 21 -26 20 -50 -6z m-115 -355 c23 -14 32 -33 17 -33 -16 0
-93 43 -93 52 0 13 44 2 76 -19z"/>
<path d="M18340 15065 c-19 -21 -22 -30 -14 -43 6 -9 19 -18 28 -20 22 -5 80
54 72 73 -9 24 -60 18 -86 -10z"/>
<path d="M26377 15058 c-13 -18 -36 -62 -50 -98 -25 -66 -28 -74 -47 -147 -9
-37 -15 -43 -46 -49 -31 -6 -40 -2 -69 26 -38 37 -62 35 -67 -6 -2 -21 -10
-30 -32 -35 -62 -17 -55 -59 9 -59 24 0 47 -5 51 -11 3 -6 22 -17 40 -25 27
-12 34 -20 34 -43 0 -31 22 -56 43 -48 7 3 24 39 37 81 18 59 28 77 44 81 12
2 95 6 185 9 91 3 168 9 173 14 5 5 1 15 -8 23 -13 11 -54 14 -181 13 -124 -1
-163 2 -163 12 0 28 51 161 81 208 22 36 28 55 22 65 -16 26 -31 23 -56 -11z
m-127 -363 c0 -14 -4 -25 -10 -25 -5 0 -10 11 -10 25 0 14 5 25 10 25 6 0 10
-11 10 -25z"/>
<path d="M30910 15028 c-27 -43 -77 -174 -96 -250 -12 -46 -13 -67 -5 -84 20
-44 51 -31 158 62 40 35 77 64 82 64 17 0 21 -32 11 -102 -9 -60 -8 -74 5 -87
22 -22 30 -7 44 86 10 63 10 89 1 117 -19 58 -39 55 -141 -23 -90 -70 -109
-81 -109 -61 0 19 58 176 84 227 14 29 26 59 26 68 0 28 -39 16 -60 -17z"/>
<path d="M19307 15033 c-12 -12 -44 -88 -52 -123 -7 -33 -10 -35 -67 -45 -20
-3 -47 -14 -60 -25 -22 -18 -22 -20 -6 -36 15 -16 22 -16 51 -6 47 17 50 16
44 -15 -12 -63 22 -72 48 -12 23 49 45 59 135 59 97 0 100 -2 100 -66 0 -40 4
-56 16 -61 24 -9 36 11 42 65 4 41 0 53 -21 78 -24 28 -30 29 -126 34 l-101 5
26 54 c14 30 24 64 22 75 -3 21 -37 34 -51 19z"/>
<path d="M5585 15004 c-183 -38 -337 -115 -455 -228 -107 -103 -155 -206 -148
-316 15 -213 237 -352 563 -353 136 -1 206 18 325 85 99 57 164 117 225 208
83 125 105 229 66 315 -20 45 -91 114 -142 140 -19 10 -47 33 -63 52 -34 41
-102 76 -174 92 -51 11 -155 13 -197 5z m255 -66 c34 -14 32 -15 -70 -14 -111
1 -170 -14 -170 -42 0 -12 9 -13 53 -6 77 13 175 8 236 -13 46 -16 55 -23 65
-53 13 -40 43 -52 63 -24 12 17 15 16 44 -12 38 -36 68 -98 69 -142 1 -121
-129 -302 -282 -395 -100 -60 -183 -82 -313 -80 -188 2 -346 54 -429 143 -50
53 -66 98 -66 184 0 184 210 381 485 457 84 23 258 21 315 -3z"/>
<path d="M19530 14990 c-23 -44 19 -82 50 -45 11 13 15 13 40 0 31 -16 50 -69
32 -87 -12 -12 -5 -113 10 -144 26 -56 142 -83 190 -45 16 13 29 17 39 10 24
-15 34 -11 120 46 93 62 122 73 143 55 21 -17 28 -62 16 -95 -9 -23 -8 -32 5
-44 14 -14 17 -13 36 6 42 41 18 156 -37 182 -40 18 -71 13 -129 -19 -65 -36
-75 -37 -75 -6 0 33 -25 53 -45 36 -8 -7 -15 -18 -15 -26 0 -17 -21 -64 -29
-64 -3 0 -14 14 -23 30 -20 34 -73 70 -106 70 -15 0 -26 9 -33 28 -26 63 -36
77 -78 104 -54 34 -96 37 -111 8z m272 -208 c17 -17 21 -33 19 -64 -1 -21 -43
-24 -85 -8 -22 8 -26 16 -26 48 0 21 3 42 7 46 11 10 66 -4 85 -22z"/>
<path d="M16562 14985 c-66 -18 -107 -48 -138 -101 -107 -182 152 -289 421
-174 25 11 45 25 45 31 0 13 -33 10 -145 -15 -107 -24 -204 -21 -246 7 -44 29
-51 77 -17 126 41 61 71 76 146 75 37 0 76 -2 87 -5 31 -6 34 38 3 50 -47 18
-104 20 -156 6z"/>
<path d="M24995 14974 c-47 -17 -130 -77 -158 -116 -65 -88 22 -176 175 -177
146 -2 161 41 17 49 -112 6 -152 24 -147 68 2 18 8 26 18 23 61 -14 96 -12
173 13 46 14 96 37 110 50 33 31 35 69 5 90 -28 20 -137 20 -193 0z m143 -46
c-7 -21 -110 -57 -163 -57 -50 0 -50 0 -26 17 57 41 199 71 189 40z"/>
<path d="M26981 14966 c-21 -26 -8 -38 60 -57 68 -19 92 -13 73 19 -24 37
-112 63 -133 38z"/>
<path d="M16933 14934 c-10 -15 -30 -38 -45 -53 -24 -24 -32 -46 -29 -78 0 -6
13 -18 29 -26 15 -8 41 -22 57 -31 82 -44 235 10 235 84 0 60 -99 130 -184
130 -37 0 -48 -4 -63 -26z m155 -50 c47 -37 44 -68 -10 -88 -65 -24 -84 -24
-80 -3 2 10 -4 29 -12 42 -20 31 -20 49 0 70 21 20 56 13 102 -21z"/>
<path d="M17380 14938 c-12 -13 -36 -42 -53 -65 -33 -43 -55 -57 -41 -25 15
34 10 76 -10 80 -27 6 -35 -8 -56 -89 -26 -99 -26 -126 2 -135 23 -7 22 -7
111 96 32 38 37 41 32 20 -18 -78 -18 -78 8 -95 23 -15 28 -15 54 -1 15 8 48
35 73 60 24 25 48 46 52 46 4 0 8 -19 8 -43 0 -24 6 -52 14 -63 14 -18 16 -18
32 -3 23 24 22 143 -2 170 -26 29 -40 24 -107 -36 -34 -30 -65 -55 -69 -55 -4
0 0 20 8 44 19 55 15 84 -13 103 -19 13 -23 12 -43 -9z"/>
<path d="M27963 14945 c-22 -9 -42 -32 -63 -69 -24 -43 -37 -56 -55 -56 -34 0
-40 -29 -12 -59 14 -14 27 -42 31 -61 9 -48 42 -80 83 -80 44 0 44 28 0 55
-52 33 -43 54 38 80 79 26 125 68 125 113 0 32 -30 69 -67 83 -32 12 -41 11
-80 -6z m92 -79 c13 -22 -22 -50 -80 -65 -51 -13 -59 -4 -37 39 29 58 89 71
117 26z"/>
<path d="M28370 14880 c-149 -85 -238 -183 -185 -204 11 -4 35 14 73 52 31 31
99 84 150 117 60 39 92 65 92 77 0 28 -18 22 -130 -42z"/>
<path d="M28640 14915 c-48 -22 -78 -52 -106 -107 l-24 -46 -64 -7 c-68 -8
-93 -23 -82 -51 5 -14 16 -16 59 -11 28 3 59 8 67 11 10 4 21 -6 35 -31 29
-55 74 -75 157 -70 69 4 123 28 115 50 -2 7 -13 11 -23 9 -94 -13 -131 -12
-164 5 -33 17 -56 63 -31 63 27 0 186 65 212 87 58 49 26 104 -64 110 -33 2
-65 -2 -87 -12z m115 -55 c7 -11 -37 -35 -113 -61 -66 -23 -62 -22 -62 -5 0
14 51 58 80 69 25 9 88 8 95 -3z"/>
<path d="M30531 14911 c-69 -24 -99 -47 -138 -104 -55 -82 -53 -202 5 -248 23
-18 36 -21 97 -17 74 5 160 39 179 70 18 30 -1 31 -66 5 -35 -13 -82 -28 -105
-32 -37 -6 -45 -3 -68 19 -34 34 -35 104 -2 167 29 56 106 99 179 99 35 0 50
4 55 16 14 38 -59 52 -136 25z"/>
<path d="M32243 14918 c-42 -11 -107 -87 -123 -142 -18 -67 -5 -123 40 -168
33 -33 44 -38 84 -38 70 0 123 31 148 87 l20 45 46 -8 c85 -14 117 -11 117 10
0 15 -12 23 -50 33 -55 14 -124 17 -141 5 -6 -4 -21 -26 -33 -49 -24 -47 -55
-73 -89 -73 -58 0 -118 64 -90 97 7 9 36 29 65 45 58 33 103 80 103 107 0 37
-49 62 -97 49z m47 -56 c0 -16 -100 -92 -120 -92 -17 0 16 56 47 79 28 20 73
28 73 13z"/>
<path d="M18523 14908 c-4 -7 -13 -31 -19 -53 -6 -22 -17 -62 -25 -88 -13 -45
-12 -50 6 -63 10 -8 21 -14 24 -14 3 0 42 34 86 75 83 77 102 87 112 58 22
-67 48 -105 84 -123 56 -29 96 -26 192 15 14 6 18 1 23 -24 12 -59 93 -103
124 -66 17 20 4 35 -31 35 -40 0 -44 17 -31 120 7 49 9 95 6 104 -7 19 -35 21
-52 4 -10 -10 -17 -10 -32 0 -25 15 -114 16 -143 1 -12 -6 -34 -23 -49 -37
-15 -14 -29 -24 -31 -21 -2 2 -11 16 -20 32 -24 37 -65 36 -123 -3 l-44 -31 0
26 c0 52 -36 85 -57 53z m457 -83 c12 -22 11 -27 -6 -46 -37 -42 -126 -63
-164 -39 -37 23 58 110 121 110 28 0 39 -5 49 -25z"/>
<path d="M27610 14888 c-62 -31 -132 -102 -128 -131 4 -31 40 -33 84 -6 l36
22 -7 -54 c-9 -71 -50 -193 -76 -228 -12 -16 -32 -34 -45 -40 -34 -15 -32 -51
2 -51 77 0 173 202 178 374 2 61 5 70 24 77 26 10 28 22 6 43 -20 20 -20 20
-74 -6z"/>
<path d="M24642 14847 c-56 -50 -121 -92 -129 -84 -3 4 6 12 21 18 17 8 26 20
26 35 0 45 -60 38 -99 -12 -77 -98 8 -142 127 -64 34 22 62 36 62 31 0 -30
-75 -322 -91 -352 -25 -51 -38 -57 -60 -28 -14 19 -20 21 -30 12 -20 -20 1
-66 34 -77 60 -22 108 39 146 184 87 335 91 360 56 374 -9 3 -34 -11 -63 -37z"/>
<path d="M31324 14880 c-30 -12 -121 -115 -129 -147 -5 -22 -2 -31 16 -46 24
-20 49 -16 91 14 36 25 39 24 28 -7 -14 -36 -12 -54 5 -54 17 0 55 72 81 153
15 49 16 60 4 67 -7 4 -18 6 -25 4 -6 -3 -18 2 -25 11 -14 17 -17 17 -46 5z
m39 -59 c-27 -44 -113 -109 -113 -86 0 18 41 62 79 87 25 15 47 28 49 28 2 0
-4 -13 -15 -29z"/>
<path d="M25351 14846 c-11 -13 -11 -19 -1 -31 11 -13 41 -15 189 -13 155 3
176 5 179 20 4 23 -12 26 -193 33 -141 6 -162 5 -174 -9z"/>
<path d="M32051 14851 c-8 -5 -29 -7 -47 -4 -18 3 -45 3 -59 -1 -32 -8 -101
-70 -121 -109 -14 -25 -14 -31 1 -53 8 -13 21 -24 28 -24 15 0 52 24 106 68
23 19 41 29 41 24 0 -10 -193 -284 -236 -335 -13 -16 -24 -39 -24 -53 0 -36
34 -31 58 9 11 17 54 79 96 137 105 146 200 299 200 324 1 22 -21 31 -43 17z
m-76 -62 c-9 -14 -86 -69 -97 -69 -20 0 -5 22 34 50 40 29 76 40 63 19z"/>
<path d="M27182 14814 c-53 -26 -102 -77 -102 -108 0 -28 43 -37 101 -20 28 8
54 12 57 9 9 -8 -40 -149 -86 -248 -26 -58 -33 -80 -24 -89 26 -26 75 51 132
211 63 177 54 215 -43 182 -32 -11 -57 -16 -57 -11 0 15 39 31 89 39 41 5 46
9 46 31 0 35 -45 37 -113 4z"/>
<path d="M31670 14815 c-42 -28 -50 -30 -50 -10 0 8 -8 15 -19 15 -12 0 -31
-22 -55 -60 -62 -99 -31 -119 65 -43 33 25 62 44 64 41 3 -3 1 -17 -4 -32 -11
-27 -5 -56 10 -56 5 0 18 19 30 42 58 114 40 158 -41 103z"/>
<path d="M26857 14816 c-42 -15 -54 -25 -139 -108 -56 -56 -67 -79 -49 -107
14 -22 44 -3 86 56 41 57 114 113 147 113 21 0 48 -53 48 -94 0 -37 10 -56 31
-56 45 0 30 130 -21 182 -32 31 -48 33 -103 14z"/>
<path d="M8815 14763 c-26 -67 -9 -337 32 -528 8 -38 18 -131 22 -205 5 -115
8 -135 23 -138 10 -2 19 6 24 20 13 39 6 182 -16 314 -32 200 -43 352 -30 445
6 45 9 88 6 95 -8 20 -53 17 -61 -3z"/>
<path d="M12040 14465 c-8 -2 -37 -7 -64 -10 -66 -9 -116 -56 -116 -109 0 -24
5 -39 16 -43 18 -7 34 12 34 43 1 89 218 105 361 27 65 -35 149 -126 185 -199
39 -81 42 -144 10 -217 -14 -32 -30 -57 -34 -55 -5 1 -35 33 -66 71 -41 47
-64 67 -81 67 -18 0 -35 -16 -35 -35 0 -1 32 -33 70 -71 39 -37 70 -72 70 -78
0 -18 -90 -74 -155 -97 -91 -33 -185 -31 -258 5 -95 46 -135 132 -118 251 17
118 59 195 132 247 20 14 22 19 13 35 -31 48 -114 -21 -158 -132 -87 -219 -30
-415 137 -471 129 -43 275 -8 425 102 22 16 24 15 102 -60 55 -52 87 -76 104
-76 40 0 40 18 -1 53 -21 17 -62 55 -90 83 l-53 51 36 70 c31 60 37 82 38 140
1 58 -4 78 -32 135 -62 126 -188 228 -317 256 -61 14 -135 22 -155 17z"/>
<path d="M13563 14448 c-6 -7 -13 -121 -17 -254 -3 -133 -11 -287 -17 -343
-11 -101 -7 -143 11 -125 30 30 94 670 70 713 -12 24 -33 27 -47 9z"/>
<path d="M24826 14334 c-3 -9 -15 -104 -26 -211 -14 -139 -17 -200 -10 -214
19 -35 34 -25 94 69 25 40 51 70 56 67 6 -3 10 -21 10 -40 0 -48 37 -142 63
-160 26 -19 65 -19 106 -2 29 12 37 11 81 -11 39 -19 52 -22 69 -12 31 16 26
40 -9 47 -17 3 -33 9 -36 14 -3 5 21 35 54 66 85 85 103 162 49 221 -38 41
-131 23 -172 -34 -25 -37 -36 -100 -27 -158 5 -30 6 -60 2 -66 -4 -6 -22 -13
-41 -16 -50 -8 -68 17 -83 116 -8 45 -18 86 -24 92 -18 18 -60 0 -103 -45 -37
-37 -41 -39 -36 -17 14 63 38 282 33 295 -7 20 -42 19 -50 -1z m469 -218 c22
-34 10 -70 -40 -122 -57 -60 -75 -58 -75 5 0 58 11 92 40 121 27 27 56 25 75
-4z"/>
<path d="M30260 14278 c-20 -46 -54 -204 -65 -304 -5 -48 -3 -63 9 -73 20 -17
18 -20 52 139 14 68 37 151 50 184 26 65 24 96 -7 96 -14 0 -26 -13 -39 -42z"/>
<path d="M28222 14288 c-8 -8 -12 -44 -12 -99 0 -97 -6 -110 -65 -129 -28 -9
-35 -17 -35 -37 0 -22 3 -24 40 -22 21 2 42 1 45 -2 3 -3 -2 -29 -11 -59 -11
-37 -12 -56 -5 -63 20 -20 48 21 60 86 7 34 16 68 20 76 4 7 49 28 101 45 67
22 96 36 98 49 5 23 -29 22 -110 -3 -34 -11 -68 -20 -74 -20 -8 0 -11 29 -10
92 1 75 -2 93 -14 96 -9 1 -21 -3 -28 -10z"/>
<path d="M29060 14250 c-7 -4 -16 -45 -21 -101 -5 -52 -14 -113 -19 -136 -16
-66 -13 -133 5 -133 9 0 20 11 25 25 14 36 57 307 52 327 -5 20 -24 29 -42 18z"/>
<path d="M24099 14189 c-19 -37 -7 -168 22 -225 21 -44 28 -49 60 -52 33 -3
42 3 90 52 30 31 57 56 60 56 3 0 14 -18 24 -41 10 -22 30 -49 43 -60 31 -24
88 -25 127 0 88 54 185 169 185 218 0 34 -11 29 -60 -30 -66 -79 -157 -149
-189 -145 -30 4 -66 52 -82 112 -17 64 -40 72 -65 24 -20 -40 -103 -128 -121
-128 -24 0 -37 45 -43 140 -4 78 -8 95 -22 98 -9 2 -22 -7 -29 -19z"/>
<path d="M30585 14187 c-79 -26 -135 -67 -135 -98 0 -38 35 -59 155 -95 142
-42 170 -57 155 -83 -13 -26 -74 -60 -134 -75 -38 -10 -52 -18 -54 -33 -4 -28
20 -35 75 -23 94 21 173 82 173 133 0 48 -43 76 -180 121 -68 23 -126 46 -128
53 -1 6 23 21 55 33 45 17 71 21 115 16 42 -4 57 -2 61 8 17 44 -78 69 -158
43z"/>
<path d="M26762 14167 c-26 -27 -28 -52 -6 -61 29 -11 42 -6 54 24 23 56 -8
80 -48 37z"/>
<path d="M29302 14150 c-68 -16 -122 -92 -122 -171 0 -36 6 -48 39 -79 42 -40
83 -53 132 -43 30 6 48 27 34 41 -3 4 -32 9 -62 12 -31 3 -58 10 -60 16 -2 7
19 20 47 30 52 19 110 66 110 90 0 25 -20 25 -52 1 -52 -38 -138 -61 -138 -37
0 6 15 27 34 48 31 33 39 37 88 38 60 1 75 21 36 48 -24 17 -35 18 -86 6z"/>
<path d="M29887 14101 c-32 -38 -40 -84 -27 -152 14 -74 54 -114 111 -113 43
2 94 31 94 55 0 15 -25 16 -86 4 -27 -5 -40 -3 -52 10 -27 27 -20 39 38 68 70
34 92 66 75 107 -16 38 -37 50 -88 50 -32 0 -45 -6 -65 -29z m103 -35 c0 -16
-42 -46 -65 -46 -22 0 -18 27 7 44 28 20 58 21 58 2z"/>
<path d="M12990 14095 c-63 -7 -139 -18 -169 -24 -45 -9 -57 -9 -71 4 -22 20
-37 19 -50 -4 -13 -26 -5 -44 30 -65 29 -16 33 -16 132 8 57 14 148 30 202 36
129 14 148 19 144 39 -4 21 -68 23 -218 6z"/>
<path d="M27999 14018 c-23 -35 -49 -59 -82 -76 -64 -33 -90 -25 -113 33 -14
37 -21 45 -38 43 -44 -6 -28 -88 27 -134 26 -22 37 -25 70 -20 80 13 156 72
186 144 13 32 10 62 -7 62 -5 0 -25 -23 -43 -52z"/>
<path d="M25632 14005 c-79 -60 -87 -64 -78 -39 17 44 -32 76 -53 35 -18 -33
-25 -129 -11 -146 7 -8 16 -15 21 -15 5 0 48 34 96 75 48 41 93 75 100 75 23
0 53 -80 53 -141 0 -40 4 -59 14 -62 56 -22 49 161 -10 250 -22 35 -53 28
-132 -32z"/>
<path d="M27496 14046 c-88 -33 -157 -118 -177 -219 -21 -101 12 -287 50 -287
15 0 28 24 39 69 12 49 3 85 -24 95 -14 5 -16 17 -12 74 6 78 32 137 84 188
40 38 65 47 115 42 26 -2 34 -8 34 -23 0 -15 -19 -30 -75 -57 -41 -21 -76 -42
-78 -47 -6 -19 40 -22 99 -5 76 22 132 69 127 110 -7 57 -103 89 -182 60z"/>
<path d="M29514 14023 c-10 -16 -18 -45 -17 -67 1 -51 38 -86 89 -86 73 0 214
93 214 142 0 27 -24 22 -79 -17 -84 -60 -155 -81 -168 -49 -3 8 4 29 16 45 13
17 20 37 17 45 -9 24 -52 16 -72 -13z"/>
<path d="M26736 14001 c-4 -6 -4 -58 0 -116 6 -88 10 -105 23 -105 30 0 41 23
40 80 -1 102 -12 145 -36 148 -11 2 -24 -1 -27 -7z"/>
<path d="M26942 13998 c-7 -7 -12 -40 -12 -78 0 -73 10 -90 52 -90 23 0 34 9
59 50 17 28 36 50 43 50 17 0 39 -26 64 -76 23 -46 45 -60 62 -39 16 19 -28
113 -69 148 -44 36 -82 35 -114 -3 -30 -35 -41 -38 -34 -8 11 42 -23 74 -51
46z"/>
<path d="M12917 13986 c-12 -12 -14 -22 -8 -34 7 -13 31 -16 145 -18 98 -1
141 2 153 12 16 11 16 14 3 28 -11 11 -49 17 -145 22 -116 6 -133 5 -148 -10z"/>
<path d="M12757 13945 c-47 -16 -51 -20 -44 -39 4 -11 17 -14 44 -11 21 1 43
3 49 4 18 2 26 32 13 47 -14 17 -14 17 -62 -1z"/>
<path d="M28266 13765 c-4 -10 13 -35 49 -70 67 -67 141 -211 156 -306 35
-211 -75 -499 -278 -727 -42 -46 -63 -78 -59 -88 8 -21 31 -7 99 61 130 130
254 373 287 565 13 71 7 152 -16 243 -44 172 -209 396 -238 322z"/>
<path d="M5610 13688 c0 -7 9 -98 20 -203 41 -379 43 -412 30 -558 -12 -137
-7 -175 18 -145 19 24 42 166 42 265 0 55 -9 193 -20 308 -11 116 -20 229 -20
252 0 58 -18 93 -47 93 -12 0 -23 -6 -23 -12z"/>
<path d="M26702 13528 c2 -17 12 -24 38 -28 59 -10 150 -68 166 -106 16 -38
18 -84 4 -84 -18 0 -80 -62 -80 -81 0 -10 9 -23 20 -29 15 -8 24 -5 44 17 14
15 28 24 32 21 3 -4 1 -30 -5 -58 -16 -74 -14 -90 9 -90 23 0 40 51 40 118 0
64 13 82 59 82 23 0 41 -5 44 -13 3 -8 3 -51 1 -97 -5 -92 0 -120 22 -120 23
0 34 44 34 136 0 81 -2 87 -29 115 -25 24 -37 29 -80 29 -50 0 -50 0 -61 40
-6 22 -24 55 -40 74 -39 44 -138 96 -185 96 -32 0 -36 -3 -33 -22z"/>
<path d="M24785 13502 c-3 -21 -5 -43 -4 -48 1 -5 1 -25 0 -44 -1 -34 -4 -36
-66 -60 -71 -26 -111 -60 -102 -84 8 -21 41 -20 58 0 13 16 81 54 98 54 5 0
12 -33 15 -72 9 -101 51 -218 78 -218 18 0 20 5 15 43 -4 23 -13 67 -22 97 -8
30 -15 80 -15 112 l0 57 38 10 c20 6 61 11 90 11 38 0 54 4 59 15 3 9 2 19 -2
23 -8 8 -79 7 -142 -3 l-43 -6 0 75 c0 74 -1 76 -24 76 -20 0 -25 -6 -31 -38z"/>
<path d="M12160 13441 c-20 -4 -41 -11 -49 -15 -7 -4 -45 -12 -84 -17 -158
-19 -299 -126 -379 -287 -38 -79 -43 -94 -46 -177 -7 -162 49 -256 176 -295
181 -56 447 23 641 190 51 44 86 68 94 63 7 -4 51 -40 98 -80 87 -74 119 -88
119 -54 0 18 -61 80 -149 152 l-43 36 33 46 c62 88 50 212 -29 299 -41 45
-109 95 -167 121 -44 21 -160 30 -215 18z m212 -63 c103 -55 180 -164 181
-258 1 -47 -27 -118 -49 -127 -7 -2 -32 9 -56 25 -138 94 -305 134 -296 69 3
-19 11 -23 66 -29 48 -5 81 -18 147 -55 50 -28 85 -54 85 -64 0 -22 -137 -122
-231 -170 -256 -128 -512 -97 -558 68 -44 158 58 387 212 476 61 36 115 51
131 38 9 -8 21 -7 44 1 41 16 74 -2 113 -59 50 -72 99 -91 99 -38 0 25 -60 95
-106 126 -21 13 -24 19 -14 23 69 23 159 13 232 -26z"/>
<path d="M13635 13394 c-79 -29 -66 -64 16 -40 72 22 169 19 169 -4 0 -5 -45
-40 -99 -79 -113 -81 -165 -148 -176 -231 -20 -144 80 -238 244 -228 87 5 164
43 235 118 89 93 124 191 97 273 -44 133 -334 247 -486 191z m304 -84 c90 -45
131 -100 131 -173 0 -61 -23 -110 -78 -169 -64 -69 -130 -100 -207 -100 -110
0 -174 50 -183 143 -8 86 45 160 178 245 25 16 57 34 73 41 15 7 27 17 27 23
0 15 16 12 59 -10z"/>
<path d="M25540 13396 c-57 -21 -181 -86 -243 -127 -32 -22 -61 -39 -65 -39
-4 0 -14 21 -22 47 -17 51 -42 75 -61 56 -8 -8 -7 -23 6 -57 19 -48 16 -79
-13 -133 -15 -31 -15 -34 0 -50 16 -15 22 -12 100 63 76 72 203 157 258 171
18 5 14 -5 -24 -59 -87 -124 -109 -213 -61 -244 17 -11 34 -14 52 -9 42 10
123 101 168 188 22 42 44 75 49 74 5 -2 26 -52 45 -113 31 -92 39 -109 59
-112 28 -4 28 3 -4 113 -14 50 -30 107 -35 129 -14 57 -27 76 -52 76 -19 0
-32 -16 -66 -80 -53 -99 -111 -178 -151 -203 -29 -18 -30 -18 -30 0 0 33 57
137 114 207 59 73 64 84 44 104 -15 15 -23 14 -68 -2z"/>
<path d="M27120 13391 c-19 -37 -6 -81 25 -81 14 0 48 77 40 90 -11 17 -54 11
-65 -9z"/>
<path d="M8729 13344 c-72 -22 -136 -106 -98 -130 7 -4 25 9 43 30 58 67 183
85 325 46 126 -35 205 -85 262 -164 24 -32 29 -49 29 -96 0 -180 -152 -349
-365 -405 -88 -23 -221 -20 -292 6 -81 30 -149 100 -158 163 -8 48 5 118 30
166 20 38 97 104 153 132 57 27 186 32 239 8 42 -19 62 -4 45 34 -19 42 -129
59 -231 35 -122 -28 -245 -126 -277 -222 -25 -73 -24 -161 4 -214 28 -53 94
-117 147 -143 108 -52 281 -48 435 11 227 87 377 347 299 519 -32 71 -65 107
-138 149 -137 80 -331 113 -452 75z"/>
<path d="M26452 13329 c-71 -36 -95 -97 -56 -140 11 -12 61 -41 112 -66 90
-43 93 -45 77 -63 -26 -29 -131 -60 -202 -60 -48 0 -65 -4 -69 -15 -25 -65
159 -57 267 11 49 31 73 67 65 98 -4 18 -25 32 -93 61 -104 44 -115 52 -111
78 8 54 130 87 179 48 35 -27 52 -93 48 -182 -3 -61 -1 -74 12 -77 44 -8 59
161 21 234 -36 69 -64 88 -140 92 -54 2 -76 -1 -110 -19z"/>
<path d="M27746 13330 c-55 -22 -82 -44 -138 -115 -29 -36 -49 -51 -71 -55
-28 -4 -32 -10 -40 -48 -9 -45 2 -72 28 -72 8 0 45 41 85 90 77 98 132 144
190 160 50 13 67 6 81 -37 14 -43 5 -117 -22 -180 -18 -42 -18 -48 -4 -62 13
-13 17 -13 29 -1 21 23 45 95 52 152 17 145 -66 218 -190 168z"/>
<path d="M27244 13283 c-3 -16 -10 -41 -15 -57 -25 -81 3 -168 60 -181 35 -8
72 10 120 56 59 59 67 114 22 160 -25 24 -38 29 -80 29 -27 0 -53 5 -56 10
-13 21 -45 10 -51 -17z m163 -73 c2 -14 -3 -32 -10 -41 -17 -22 -87 -69 -103
-69 -21 0 -27 38 -14 91 l12 50 57 -3 c52 -3 56 -5 58 -28z"/>
<path d="M26072 13255 c-21 -24 -50 -65 -63 -90 -29 -55 -40 -58 -31 -7 4 20
7 57 7 82 0 38 -3 45 -21 48 -33 5 -41 -16 -49 -118 -6 -89 -5 -97 15 -123 36
-45 59 -33 105 54 22 41 50 89 62 105 29 37 38 25 53 -71 14 -96 23 -119 43
-123 14 -3 17 4 17 42 0 91 -21 200 -43 224 -30 32 -50 27 -95 -23z"/>
<path d="M12873 13231 c-64 -32 -27 -82 43 -58 41 13 60 36 51 61 -8 20 -50
19 -94 -3z"/>
<path d="M13015 13196 c-16 -12 -18 -18 -9 -33 10 -15 25 -17 145 -14 74 1
137 5 141 8 16 9 7 31 -14 36 -13 3 -72 9 -133 12 -90 6 -114 4 -130 -9z"/>
<path d="M12861 13072 c-12 -23 3 -42 35 -42 26 0 48 24 40 45 -8 22 -63 19
-75 -3z"/>
<path d="M12999 13069 c-6 -12 -2 -22 11 -34 37 -34 270 -3 278 36 2 12 -21
15 -139 14 -120 0 -142 -2 -150 -16z"/>
<path d="M12657 13063 c-17 -17 -6 -34 20 -31 36 4 45 38 10 38 -13 0 -27 -3
-30 -7z"/>
<path d="M5695 12390 c-3 -6 1 -65 9 -133 36 -293 43 -601 20 -864 -6 -62 -4
-73 9 -73 19 0 24 14 37 105 19 140 22 387 7 664 -13 230 -18 276 -33 292 -19
21 -39 25 -49 9z"/>
<path d="M8927 12383 c-10 -10 -8 -297 3 -548 25 -518 13 -791 -46 -1093 -26
-135 -25 -162 9 -149 9 3 18 26 22 59 3 29 13 92 21 140 45 271 47 307 46 956
-1 342 -4 627 -7 632 -7 11 -38 13 -48 3z"/>
<path d="M20942 12253 c-5 -10 -19 -49 -32 -88 -74 -229 -198 -463 -310 -585
-43 -47 -48 -73 -15 -78 41 -5 181 210 257 396 50 123 55 116 39 -71 -6 -71
-11 -261 -12 -421 0 -160 -4 -313 -9 -341 -5 -27 -12 -140 -16 -250 -4 -132
-10 -203 -18 -210 -6 -5 -26 -32 -43 -60 -44 -69 -126 -148 -149 -143 -15 2
-20 15 -24 63 -4 52 -8 60 -27 63 -18 3 -24 -4 -33 -38 -16 -61 8 -122 56
-140 51 -20 137 43 209 153 10 15 19 26 21 24 12 -12 38 -710 49 -1307 3 -173
8 -353 10 -400 5 -70 -2 -273 -21 -630 -1 -30 -3 -200 -4 -378 l0 -322 -23 5
c-53 11 -435 36 -847 55 -268 13 -474 34 -578 61 -41 10 -86 19 -99 19 -28 0
-41 -26 -22 -45 34 -33 406 -85 611 -85 55 0 204 -6 331 -14 128 -8 318 -20
422 -26 158 -9 192 -14 203 -28 11 -13 12 -42 6 -127 -10 -160 -6 -1111 6
-1208 34 -282 40 -329 45 -338 11 -16 43 -10 50 11 6 19 -22 267 -32 284 -11
17 -22 779 -16 1080 l6 308 51 -7 c79 -11 208 -22 501 -44 149 -12 317 -25
375 -30 189 -18 241 -21 610 -41 201 -11 516 -25 700 -30 184 -6 468 -17 630
-26 162 -8 378 -19 480 -24 102 -6 358 -17 570 -25 581 -23 992 -49 1495 -95
398 -36 572 -55 1050 -114 66 -9 338 -42 605 -75 267 -33 526 -65 575 -71 224
-25 360 -42 490 -61 369 -52 428 -60 540 -74 368 -45 739 -100 1024 -150 148
-26 185 -25 167 3 -12 19 -316 76 -676 127 -102 14 -212 30 -245 35 -33 5
-132 19 -220 30 -273 34 -455 59 -595 80 -74 11 -272 36 -440 55 -286 33
-1376 167 -1630 200 -527 68 -1477 138 -2260 165 -306 11 -551 23 -820 40 -80
6 -305 14 -500 20 -195 5 -440 14 -545 20 -609 32 -783 43 -995 60 -129 10
-386 31 -570 45 -184 15 -345 31 -357 36 l-23 9 0 334 c0 221 4 337 10 341 6
4 50 2 98 -4 48 -6 193 -15 322 -21 320 -14 674 -38 855 -57 258 -27 261 -27
268 -9 9 23 -19 223 -47 334 -65 261 -121 618 -166 1057 l-38 370 39 40 c35
37 154 198 163 220 6 18 34 -18 49 -66 33 -97 38 -203 35 -692 -3 -481 -3
-482 24 -657 29 -187 43 -312 57 -508 9 -119 19 -152 46 -152 20 0 25 25 15
87 -5 32 -14 126 -20 208 -5 83 -24 245 -41 360 -33 232 -36 305 -31 875 3
355 -2 403 -49 515 -33 76 -34 108 -5 113 14 3 48 -26 121 -103 94 -99 122
-118 132 -88 4 11 -82 117 -163 200 -54 56 -82 65 -118 38 -11 -8 -28 -15 -39
-15 -24 0 -69 -48 -156 -165 l-66 -90 -8 60 c-18 134 -57 353 -71 398 -8 26
-11 49 -8 51 8 5 149 -8 327 -29 93 -11 301 -18 730 -25 765 -11 1012 -18
1155 -30 63 -6 192 -17 285 -26 94 -8 209 -18 258 -21 52 -4 87 -10 88 -17 0
-6 0 -63 -1 -126 -2 -356 38 -897 89 -1215 30 -182 44 -314 82 -729 11 -126
24 -238 30 -247 9 -18 29 -21 214 -34 44 -4 134 -13 200 -21 376 -45 694 -62
1199 -66 259 -1 309 1 316 13 23 41 29 276 26 1046 -4 937 -17 835 109 901 75
39 75 39 75 16 0 -14 5 -33 11 -43 10 -14 4 -47 -26 -162 -47 -181 -62 -268
-75 -444 -18 -252 -13 -455 15 -619 27 -163 66 -343 97 -456 12 -41 24 -113
27 -160 5 -76 8 -85 26 -85 18 0 20 8 23 70 2 54 -4 95 -27 180 -38 135 -107
473 -122 597 -14 112 -6 399 16 578 8 69 31 188 50 264 19 77 35 152 35 167 0
49 15 40 68 -42 49 -76 73 -93 80 -57 2 8 -22 55 -52 103 -31 48 -63 111 -72
139 -26 82 -34 85 -96 43 -77 -50 -168 -90 -173 -74 -3 7 -16 57 -30 111 -20
78 -23 101 -13 108 23 14 203 8 500 -16 161 -14 372 -28 468 -31 96 -3 231 -8
300 -10 69 -3 252 -6 406 -6 l282 -1 7 -66 c3 -37 19 -116 35 -177 35 -135 56
-246 81 -435 36 -270 41 -348 29 -507 -14 -190 -35 -680 -34 -803 1 -101 30
-226 59 -250 8 -6 76 -20 152 -31 185 -25 373 -56 513 -85 119 -24 458 -82
613 -105 68 -9 90 -10 100 0 8 8 9 16 1 28 -11 18 -32 22 -289 57 -66 9 -257
43 -425 75 -168 33 -363 67 -435 76 -162 21 -196 32 -213 68 -22 45 -32 188
-22 310 6 62 10 172 10 246 0 73 7 206 16 295 30 302 -5 679 -100 1071 -18 77
-36 166 -40 199 -4 32 -10 65 -15 74 -7 13 -57 15 -337 17 -502 4 -1170 36
-1274 61 -47 11 -423 14 -436 3 -16 -13 -10 -82 16 -189 10 -41 21 -94 25
-116 9 -59 9 -1755 0 -1833 l-7 -64 -372 7 c-476 8 -690 20 -956 52 -118 14
-275 30 -348 35 -145 11 -182 20 -182 44 0 31 -30 381 -45 530 -9 83 -18 175
-21 205 -3 30 -16 120 -29 200 -49 290 -74 616 -80 1049 -2 173 -8 318 -12
322 -5 5 -67 13 -138 18 -72 6 -231 20 -355 31 -310 27 -695 40 -1215 40 -464
0 -653 8 -928 40 -93 11 -197 20 -232 20 -80 0 -84 -9 -56 -128 37 -159 71
-364 82 -491 55 -677 106 -1060 198 -1496 21 -104 42 -211 45 -237 7 -57 12
-56 -146 -34 -57 8 -152 17 -213 21 -60 3 -191 12 -290 20 -99 8 -286 19 -416
25 -225 10 -392 25 -412 37 -5 3 -6 46 -3 97 15 230 16 390 7 767 -20 774 -29
1029 -52 1354 -13 195 -3 461 18 444 24 -21 31 2 39 129 4 67 10 124 13 126 4
3 60 -22 126 -54 145 -71 175 -80 175 -53 0 18 -41 40 -201 110 -32 14 -59 30
-59 34 0 17 53 12 615 -61 44 -5 197 -21 340 -35 143 -13 321 -31 395 -40 130
-14 366 -37 740 -70 347 -30 710 -38 1420 -31 30 0 84 -4 119 -8 53 -7 63 -6
59 5 -11 34 -102 41 -498 39 -418 -1 -841 12 -1070 35 -80 8 -192 17 -250 20
-58 4 -267 24 -465 45 -198 22 -459 49 -580 60 -121 12 -276 29 -345 40 -180
27 -383 43 -451 37 -66 -6 -84 6 -51 33 22 18 180 76 285 105 43 13 57 21 57
35 0 10 -4 21 -9 24 -11 7 -157 -43 -253 -87 -42 -19 -78 -33 -81 -31 -2 2 7
55 19 117 28 136 31 219 8 242 -30 30 -39 12 -46 -101 -4 -60 -16 -149 -26
-199 l-20 -90 0 140 c-1 77 3 201 8 275 26 352 25 320 2 327 -12 3 -22 9 -22
13 0 9 50 143 55 149 2 2 35 -61 74 -140 114 -238 322 -525 355 -492 13 13 5
33 -37 85 -81 100 -170 247 -282 467 -80 155 -103 183 -123 144z"/>
<path d="M11897 12099 c-34 -20 -137 -203 -184 -329 -105 -277 -162 -415 -194
-472 -40 -68 -47 -92 -29 -103 42 -26 94 81 220 455 27 80 62 177 79 217 32
78 104 183 125 183 11 0 13 -50 13 -262 -1 -247 1 -272 27 -413 40 -216 51
-235 136 -235 56 0 111 30 143 79 30 45 68 153 87 246 52 259 121 482 170 553
31 44 37 62 20 62 -16 0 -60 -52 -85 -100 -24 -48 -111 -322 -165 -525 -40
-151 -73 -221 -114 -246 -74 -45 -95 -20 -131 159 -37 179 -47 314 -39 518 7
195 2 224 -39 224 -12 0 -30 -5 -40 -11z"/>
<path d="M13327 11944 c-4 -4 -7 -71 -7 -148 0 -78 -4 -145 -8 -151 -4 -5 -42
-27 -84 -47 -58 -28 -78 -43 -78 -57 0 -34 19 -33 84 3 35 20 69 36 76 36 8 0
9 -34 4 -130 -6 -113 -5 -130 9 -130 22 0 28 24 33 145 7 150 7 151 57 173 23
10 75 37 115 60 41 23 76 42 78 42 10 0 3 -141 -12 -227 -13 -75 -14 -96 -4
-108 20 -24 49 -9 133 73 55 53 81 72 88 65 6 -6 15 -46 21 -90 13 -108 20
-128 43 -128 19 0 20 6 17 109 -3 115 -16 160 -52 171 -24 8 -27 6 -113 -63
-37 -30 -69 -53 -71 -51 -2 2 3 44 11 93 7 49 13 116 11 150 -3 55 -5 61 -26
64 -13 2 -54 -15 -100 -42 -68 -39 -164 -86 -179 -86 -2 0 -3 62 -1 138 3 132
2 137 -17 140 -12 2 -24 0 -28 -4z"/>
<path d="M21844 11754 c-10 -41 1 -287 15 -311 6 -13 20 -23 30 -23 18 0 19
10 17 168 -1 92 -5 173 -9 180 -14 22 -46 14 -53 -14z"/>
<path d="M14075 11696 c-21 -32 -16 -60 12 -64 25 -4 46 27 41 61 -4 31 -34
33 -53 3z"/>
<path d="M16623 11667 c-33 -48 -91 -179 -107 -239 -31 -121 39 -155 148 -72
45 34 48 35 66 19 10 -9 23 -44 30 -83 18 -99 34 -132 63 -132 33 0 38 9 22
34 -8 12 -19 54 -25 95 -15 110 -42 151 -97 151 -25 0 -47 -10 -77 -35 -76
-62 -92 -43 -56 64 20 60 44 107 87 173 14 20 22 42 18 47 -13 22 -50 11 -72
-22z"/>
<path d="M23012 11671 c-35 -22 -57 -256 -27 -281 22 -18 29 -7 41 68 6 37 17
95 24 129 11 51 11 64 1 77 -15 18 -21 19 -39 7z"/>
<path d="M12755 11655 c-58 -15 -100 -57 -90 -89 3 -12 10 -48 14 -82 8 -71
27 -104 80 -140 78 -51 236 -21 290 55 55 77 -2 222 -102 260 -38 15 -131 13
-192 -4z m184 -51 c39 -23 71 -83 71 -132 0 -33 -6 -45 -30 -66 -66 -55 -144
-55 -202 1 -29 27 -39 85 -18 98 17 10 12 73 -6 83 -12 7 -13 11 -5 17 47 28
141 28 190 -1z"/>
<path d="M14481 11552 c-25 -26 -60 -63 -77 -82 -17 -19 -42 -42 -54 -51 -18
-12 -22 -21 -16 -42 7 -31 30 -35 63 -12 11 8 42 48 68 90 81 130 108 124 115
-27 4 -87 8 -103 22 -106 23 -4 31 28 32 138 1 80 -1 91 -23 114 -39 41 -75
35 -130 -22z"/>
<path d="M14967 11569 c-78 -31 -170 -96 -200 -139 -25 -36 -21 -68 14 -102
29 -29 33 -30 89 -25 74 8 148 36 218 83 l55 36 -7 -53 c-28 -226 -60 -398
-79 -433 -33 -59 -49 -65 -87 -33 -17 15 -36 25 -41 21 -17 -10 -9 -50 14 -72
50 -47 125 -15 166 72 12 25 34 116 51 217 16 96 36 213 44 261 25 140 6 154
-86 64 -45 -43 -82 -69 -121 -83 -111 -43 -177 -42 -177 1 0 49 83 111 182
136 57 15 76 33 58 55 -16 19 -34 18 -93 -6z"/>
<path d="M24891 11576 c-9 -10 -9 -25 -2 -53 18 -71 23 -159 11 -224 -13 -77
-72 -281 -80 -276 -93 54 -318 140 -357 135 -40 -4 -36 -30 7 -41 19 -5 97
-29 173 -54 155 -52 160 -57 100 -115 -42 -40 -159 -118 -178 -118 -7 0 -18
-7 -25 -16 -11 -12 -11 -18 2 -31 15 -14 21 -13 70 9 29 14 84 50 122 82 38
31 70 55 72 53 2 -1 -1 -78 -6 -170 -5 -93 -6 -175 -3 -182 8 -24 42 -18 47 8
3 12 8 87 11 166 8 173 23 262 66 396 30 93 32 110 33 245 1 124 -2 150 -17
173 -20 31 -29 33 -46 13z"/>
<path d="M22062 11547 c-22 -23 -29 -71 -14 -93 18 -27 60 -44 104 -44 62 0
66 23 7 36 -82 18 -79 79 4 79 25 0 49 4 53 8 17 16 -30 37 -81 37 -41 0 -56
-5 -73 -23z"/>
<path d="M22711 11547 c-42 -13 -121 -86 -121 -111 0 -10 15 -33 33 -51 25
-25 45 -34 85 -40 61 -8 126 1 142 20 22 26 1 36 -63 30 -34 -3 -75 -2 -92 3
-60 17 -37 68 44 98 59 22 67 30 51 49 -14 17 -30 18 -79 2z"/>
<path d="M23138 11521 c-56 -36 -78 -66 -78 -107 0 -65 70 -114 215 -152 104
-26 149 -32 166 -22 24 15 -1 27 -111 55 -203 51 -256 103 -175 174 39 34 93
42 114 17 14 -17 3 -26 -61 -50 -35 -13 -48 -23 -48 -37 0 -27 42 -25 107 5
81 38 89 76 27 125 -39 31 -99 28 -156 -8z"/>
<path d="M16144 11530 c-32 -13 -78 -74 -99 -131 -25 -71 -24 -186 1 -230 35
-59 66 -74 157 -74 72 0 89 4 135 30 58 31 81 60 63 78 -7 7 -16 6 -28 -5 -29
-26 -80 -48 -131 -57 -92 -18 -141 9 -152 85 -13 84 20 206 65 244 9 8 38 14
64 15 42 0 46 2 46 25 0 23 -4 25 -50 27 -27 1 -59 -2 -71 -7z"/>
<path d="M22272 11518 c-18 -18 -14 -53 8 -73 19 -17 88 -23 155 -13 19 3 20
-3 21 -92 1 -52 2 -101 3 -107 2 -20 39 -15 50 5 11 21 17 254 7 270 -11 19
-36 14 -68 -13 -22 -18 -41 -25 -73 -25 -38 0 -46 4 -57 27 -15 31 -29 38 -46
21z"/>
<path d="M14044 11476 c-5 -14 5 -74 23 -139 3 -12 12 -17 26 -15 19 3 22 10
25 58 1 30 -4 66 -11 80 -15 29 -54 39 -63 16z"/>
<path d="M20188 11378 c-66 -107 -153 -208 -179 -208 -12 0 -16 13 -16 58 0
152 -139 246 -198 132 -35 -67 0 -169 79 -234 42 -34 50 -37 74 -28 15 6 43
14 62 18 53 10 143 103 211 218 58 99 73 146 45 146 -8 0 -43 -46 -78 -102z
m-275 -49 c23 -32 33 -104 18 -142 -9 -23 -14 -26 -30 -18 -48 26 -83 138 -57
180 12 19 47 9 69 -20z"/>
<path d="M18084 11409 c-4 -6 -9 -26 -10 -42 -5 -41 -27 -72 -76 -107 -85 -62
-168 -62 -168 -1 0 17 10 42 24 58 19 22 32 27 67 28 35 0 44 4 47 19 5 24
-14 36 -61 36 -47 0 -77 -19 -111 -70 -42 -64 -30 -128 31 -159 52 -27 139 -1
219 64 41 34 42 34 48 12 11 -43 6 -193 -9 -252 -21 -79 -61 -134 -119 -164
l-47 -24 -28 27 c-15 14 -32 26 -39 26 -21 0 -13 -40 13 -65 68 -69 215 15
262 149 24 69 26 394 3 440 -17 33 -35 43 -46 25z"/>
<path d="M17480 11375 c-53 -41 -56 -41 -63 -14 -4 15 -12 20 -29 17 -19 -2
-24 -11 -31 -56 -16 -102 16 -109 105 -24 l61 57 -7 -65 c-7 -71 1 -94 30 -88
13 2 20 13 21 33 1 17 5 56 9 87 11 95 -20 111 -96 53z"/>
<path d="M17013 11368 c-17 -18 -36 -43 -42 -55 -17 -34 -13 -88 7 -106 25
-23 90 -21 130 3 31 19 32 19 32 1 0 -28 24 -45 39 -27 21 25 47 174 35 194
-16 25 -41 26 -49 2 l-7 -22 -19 21 c-32 34 -88 28 -126 -11z m126 -34 c3 -3
-9 -23 -25 -47 -23 -32 -37 -43 -62 -45 -27 -3 -32 0 -32 19 0 12 9 37 21 56
19 31 24 33 57 27 21 -4 39 -8 41 -10z"/>
<path d="M18412 11349 c-23 -17 -42 -34 -42 -39 0 -4 -16 -12 -36 -17 -46 -10
-64 -34 -44 -58 8 -10 13 -33 11 -55 -5 -71 42 -127 126 -149 59 -16 236 -15
270 1 37 17 40 52 12 117 -12 28 -19 57 -15 66 8 22 115 20 212 -5 78 -20 104
-20 104 -1 0 28 -159 71 -263 71 -50 0 -70 -5 -91 -21 -30 -24 -35 -70 -11
-115 8 -16 15 -39 15 -51 0 -20 -6 -23 -37 -25 -207 -11 -302 48 -248 152 10
20 29 33 63 44 26 9 64 30 83 46 l34 30 -24 20 c-33 28 -70 25 -119 -11z"/>
<path d="M19830 11010 c-28 -28 -35 -65 -21 -112 16 -53 52 -88 91 -88 25 0
33 6 47 36 20 41 3 42 193 -16 184 -56 180 -55 180 -37 0 9 -10 23 -22 32 -26
18 -319 115 -347 115 -23 0 -38 -18 -43 -49 -5 -38 -27 -37 -43 2 -14 34 -11
71 8 94 11 15 3 43 -13 43 -5 0 -19 -9 -30 -20z"/>
<path d="M21176 10768 c-8 -26 -14 -224 -8 -234 4 -6 16 -14 26 -18 15 -5 30
5 68 45 l48 51 10 -29 c6 -15 13 -34 15 -41 6 -17 34 -27 45 -16 12 13 -7 114
-26 135 -25 27 -39 24 -89 -22 l-44 -41 6 65 c7 82 -1 117 -28 117 -11 0 -21
-6 -23 -12z"/>
<path d="M21483 10714 c-8 -20 21 -49 41 -41 21 8 21 43 0 51 -25 9 -34 7 -41
-10z"/>
<path d="M19728 10663 c-45 -48 -61 -119 -38 -177 17 -45 89 -115 125 -122 71
-13 138 54 133 135 -3 43 -2 45 30 52 72 15 145 85 120 116 -8 10 -20 5 -49
-21 -44 -37 -97 -56 -158 -56 -53 0 -66 -24 -28 -52 51 -37 27 -128 -34 -128
-26 0 -68 38 -90 82 -25 49 -19 97 17 146 23 29 25 52 5 52 -4 0 -19 -12 -33
-27z"/>
<path d="M20300 10664 c-67 -45 -60 -68 41 -145 52 -39 79 -67 79 -80 0 -33
-56 -59 -127 -59 -49 0 -63 -3 -63 -15 0 -35 92 -47 158 -20 91 39 108 97 45
156 -21 20 -55 48 -75 64 -21 15 -38 33 -38 40 0 16 55 27 152 29 81 1 94 6
85 31 -9 23 -222 22 -257 -1z"/>
<path d="M21477 10633 c-10 -9 -8 -106 2 -121 5 -8 17 -12 27 -10 15 2 20 14
22 56 3 53 -8 82 -33 82 -6 0 -15 -3 -18 -7z"/>
<path d="M19672 10424 c-19 -37 -72 -328 -72 -396 0 -4 -5 -8 -11 -8 -17 0
-169 79 -207 107 -36 27 -62 25 -62 -6 0 -27 43 -55 168 -111 l107 -47 0 -103
c0 -85 3 -104 17 -113 12 -8 21 -7 32 2 12 10 16 33 16 102 0 65 3 89 13 89 6
0 53 -11 102 -25 109 -30 138 -32 133 -8 -3 18 -10 20 -197 70 l-54 14 6 92
c3 51 13 147 23 215 12 87 14 126 7 133 -8 8 -14 6 -21 -7z"/>
<path d="M12610 10215 c0 -14 5 -25 10 -25 6 0 10 11 10 25 0 14 -4 25 -10 25
-5 0 -10 -11 -10 -25z"/>
<path d="M25236 10221 c-4 -5 10 -64 29 -132 31 -110 76 -312 104 -474 11 -61
33 -255 51 -445 12 -130 -1 -825 -16 -840 -20 -20 -44 13 -51 68 -5 48 -4 52
16 52 31 0 27 29 -10 68 -25 26 -34 31 -45 21 -21 -17 -10 -178 16 -229 24
-47 37 -52 102 -40 67 13 133 45 158 78 39 49 0 70 -54 29 -18 -14 -41 -27
-52 -29 -18 -3 -19 5 -18 202 1 113 3 293 5 400 5 262 -24 536 -91 866 -31
150 -86 368 -101 397 -10 18 -34 23 -43 8z"/>
<path d="M13046 10168 c-10 -89 -8 -128 9 -128 16 0 21 17 29 98 6 58 0 82
-19 82 -7 0 -15 -20 -19 -52z"/>
<path d="M23100 10105 c-10 -12 -9 -20 4 -41 19 -28 49 -29 54 -1 4 18 -23 57
-38 57 -4 0 -13 -7 -20 -15z"/>
<path d="M25671 10078 c-30 -7 -56 -23 -87 -54 -41 -40 -49 -44 -95 -44 -47 0
-50 -2 -47 -22 2 -18 11 -24 43 -28 25 -3 39 -10 37 -18 -5 -28 -5 -92 1 -98
15 -16 36 9 47 55 l12 51 48 0 c67 0 80 -7 80 -41 0 -42 25 -75 71 -93 47 -19
98 -20 134 -4 30 13 45 1 45 -38 0 -23 32 -58 43 -47 4 3 7 36 7 72 0 36 4 81
9 99 12 41 5 62 -21 62 -12 0 -24 -12 -34 -35 -25 -62 -101 -91 -168 -65 -50
19 -27 50 37 50 39 0 62 13 55 32 -4 9 -39 18 -100 26 -118 16 -170 30 -165
45 9 27 59 51 117 55 57 4 61 3 87 -27 31 -35 53 -40 53 -12 0 32 -42 71 -85
81 -48 11 -66 11 -124 -2z"/>
<path d="M23542 10038 c2 -15 11 -24 26 -26 20 -3 23 0 20 20 -2 15 -11 24
-26 26 -20 3 -23 0 -20 -20z"/>
<path d="M26346 10018 c-19 -91 -37 -219 -34 -248 3 -37 25 -48 38 -20 13 26
44 193 44 240 1 39 -2 45 -21 48 -17 2 -24 -3 -27 -20z"/>
<path d="M26155 9997 c-8 -18 -22 -72 -32 -120 -16 -80 -16 -88 -1 -103 19
-20 38 -11 38 18 0 11 14 61 30 110 17 50 28 99 25 109 -10 31 -44 23 -60 -14z"/>
<path d="M23280 9988 c-15 -8 -26 -24 -28 -40 -3 -22 3 -32 30 -48 18 -11 50
-25 70 -32 45 -13 71 -39 62 -61 -3 -8 -22 -23 -42 -33 -29 -14 -41 -15 -67
-5 -44 16 -55 14 -55 -9 0 -22 46 -50 82 -50 35 1 103 35 122 61 38 55 7 107
-87 143 -48 18 -66 41 -24 31 27 -7 50 14 38 33 -11 19 -72 25 -101 10z"/>
<path d="M29523 9975 c-8 -23 5 -389 18 -490 5 -44 12 -170 14 -280 2 -110 7
-254 10 -320 4 -66 9 -266 10 -445 2 -179 5 -336 7 -350 4 -32 -44 -53 -68
-28 -23 23 -64 143 -64 187 0 50 -25 75 -47 46 -19 -26 -11 -79 24 -165 40
-97 67 -130 107 -130 23 0 38 -7 48 -22 19 -28 48 -18 48 17 0 20 11 32 50 56
58 36 120 111 120 145 0 13 -4 24 -9 24 -5 0 -37 -29 -72 -65 -34 -36 -70 -65
-80 -65 -26 0 -33 89 -19 255 10 113 10 197 0 396 -7 140 -14 346 -15 459 -2
113 -8 248 -15 300 -7 52 -15 183 -19 290 -5 175 -8 195 -24 198 -9 2 -20 -4
-24 -13z"/>
<path d="M23536 9958 c-5 -14 -17 -115 -19 -158 -3 -37 25 -31 45 10 21 40 24
130 6 148 -15 15 -28 15 -32 0z"/>
<path d="M23631 9933 c-13 -29 -14 -132 -2 -152 17 -26 41 -4 41 38 0 44 1 46
49 56 l33 7 -3 -103 c-4 -99 -3 -104 17 -107 20 -3 22 4 32 103 10 106 8 121
-26 175 -1 2 -31 5 -66 6 -59 2 -65 0 -75 -23z"/>
<path d="M22946 9930 c-64 -25 -84 -45 -112 -108 -27 -59 -30 -94 -11 -110 20
-17 33 -2 50 58 21 72 41 98 91 121 85 39 123 16 113 -67 -6 -55 13 -88 37
-64 24 23 26 129 3 163 -15 24 -24 27 -70 27 -28 -1 -74 -9 -101 -20z"/>
<path d="M26533 9933 c-17 -6 -16 -38 0 -52 21 -17 56 12 41 35 -12 20 -23 25
-41 17z"/>
<path d="M23918 9880 c-14 -11 -33 -36 -43 -56 -15 -33 -16 -38 -1 -52 12 -13
20 -13 41 -4 19 9 25 9 25 -1 0 -31 -68 -189 -95 -221 -27 -32 -35 -36 -79
-36 -44 0 -53 -4 -92 -44 -35 -34 -44 -51 -44 -77 0 -47 32 -94 80 -119 41
-21 96 -24 94 -5 -1 8 -56 41 -99 58 -19 8 3 19 68 33 95 22 128 62 92 110
-20 26 -19 38 7 49 35 16 55 52 107 190 27 72 52 137 56 146 17 44 -71 66
-117 29z m-94 -435 c7 -18 -25 -33 -91 -42 -52 -7 -56 7 -10 36 38 25 92 28
101 6z"/>
<path d="M19157 9884 c-13 -14 -7 -59 13 -91 23 -39 146 -138 239 -193 129
-76 317 -143 464 -164 38 -6 48 -4 53 9 10 25 -5 33 -88 44 -235 32 -591 233
-633 356 -12 38 -33 54 -48 39z"/>
<path d="M26447 9873 c-13 -12 -8 -140 6 -152 23 -19 37 9 37 74 0 67 -20 102
-43 78z"/>
<path d="M26610 9795 c-18 -87 0 -117 46 -74 19 18 25 19 43 7 18 -11 23 -11
31 2 25 38 3 100 -35 100 -13 0 -27 5 -30 10 -3 6 -15 10 -25 10 -14 0 -21
-12 -30 -55z"/>
<path d="M26780 9790 c-9 -16 -7 -26 9 -47 25 -31 26 -54 5 -116 -20 -59 -60
-100 -113 -116 -49 -14 -50 -34 -3 -39 44 -4 100 25 127 67 56 86 79 215 45
256 -18 22 -57 18 -70 -5z"/>
<path d="M26081 9652 c-18 -35 -40 -105 -55 -175 -6 -26 -10 -28 -37 -22 -82
18 -139 -108 -78 -174 27 -29 87 -45 122 -32 43 16 34 39 -18 47 -25 3 -55 14
-67 23 -19 16 -20 20 -7 47 21 43 58 40 73 -6 19 -58 40 -45 47 30 7 68 31
146 68 218 25 49 25 47 5 66 -23 24 -32 20 -53 -22z"/>
<path d="M23255 9605 c-21 -36 -39 -83 -42 -105 -3 -22 -7 -40 -9 -40 -2 0
-19 8 -38 17 -29 13 -40 14 -61 5 -76 -35 40 -148 164 -159 33 -3 73 0 93 6
31 10 41 9 77 -9 40 -21 40 -22 26 -49 -14 -27 -64 -76 -100 -97 -24 -14 -11
-34 23 -34 18 0 40 15 75 52 49 52 127 173 127 197 0 7 -16 33 -36 57 -30 37
-42 44 -71 44 -19 0 -43 -5 -54 -10 -23 -13 -51 -64 -47 -87 2 -13 -7 -19 -35
-24 -69 -11 -85 -3 -93 48 -6 41 -2 54 39 133 33 64 42 91 35 103 -17 31 -37
18 -73 -48z m266 -187 c10 -18 8 -24 -11 -40 -44 -35 -94 -13 -70 32 19 35 64
40 81 8z m-327 -9 c15 -12 25 -23 22 -26 -6 -6 -66 29 -66 39 0 14 16 9 44
-13z"/>
<path d="M12614 9646 c-8 -22 3 -33 18 -18 9 9 9 15 0 24 -9 9 -13 7 -18 -6z"/>
<path d="M22885 9603 c-16 -8 -44 -28 -61 -44 -19 -18 -37 -27 -46 -24 -27 10
-32 -15 -9 -46 11 -15 21 -32 21 -38 0 -5 14 -21 31 -36 24 -20 41 -25 68 -23
47 4 48 29 1 44 -19 6 -36 17 -38 24 -3 9 1 11 13 6 22 -8 89 10 104 28 21 26
24 71 4 93 -25 30 -53 35 -88 16z m55 -57 c0 -18 -57 -39 -66 -25 -7 12 -7 12
21 27 27 16 45 15 45 -2z"/>
<path d="M25680 9571 c-51 -28 -78 -61 -100 -122 -23 -60 -18 -85 27 -146 38
-53 164 -78 180 -36 8 21 -1 26 -63 34 -50 7 -94 30 -94 50 0 4 31 16 68 28
76 23 138 70 148 112 4 21 -1 34 -23 59 -36 40 -92 49 -143 21z m104 -47 c23
-9 20 -40 -6 -59 -13 -9 -47 -23 -76 -31 -66 -19 -82 -10 -57 34 30 50 90 75
139 56z"/>
<path d="M19460 9447 c-36 -18 -70 -74 -70 -116 1 -72 70 -171 121 -171 27 0
24 7 -25 60 -72 76 -72 156 -1 186 50 21 78 10 140 -57 83 -90 99 -177 32
-172 -14 1 -38 10 -53 19 -36 24 -84 92 -84 119 0 27 -24 49 -45 41 -25 -9
-17 -51 23 -110 41 -62 88 -98 147 -115 51 -14 82 -5 100 30 19 37 19 72 -2
112 -21 41 -130 155 -165 173 -33 17 -85 18 -118 1z"/>
<path d="M26240 9434 c-34 -29 -60 -73 -60 -102 0 -25 39 -65 57 -58 8 3 19 4
24 1 13 -8 -37 -104 -74 -143 -28 -29 -30 -34 -16 -47 21 -21 41 -11 76 38 41
56 113 202 113 226 0 32 -19 34 -59 7 -20 -14 -42 -26 -49 -26 -22 0 -12 28
20 55 25 21 38 25 65 20 28 -5 33 -3 33 14 0 46 -82 55 -130 15z"/>
<path d="M26445 9443 c-34 -9 -65 -45 -65 -75 0 -76 105 -188 176 -188 27 0
15 37 -17 51 -41 16 -89 57 -89 75 0 14 11 17 85 29 76 12 107 52 68 88 -19
16 -123 30 -158 20z m75 -52 c0 -10 -61 -24 -69 -16 -8 9 21 25 47 25 12 0 22
-4 22 -9z"/>
<path d="M19220 9267 c0 -42 84 -111 364 -300 64 -43 116 -82 116 -87 0 -26
-249 5 -359 44 -50 18 -74 9 -55 -21 14 -22 62 -38 175 -57 142 -24 249 -30
279 -14 49 26 33 81 -35 115 -87 46 -355 233 -405 284 -63 64 -80 72 -80 36z"/>
<path d="M12767 9177 c-21 -32 -22 -51 -2 -67 12 -10 16 -8 24 13 5 14 6 37 2
52 l-7 28 -17 -26z"/>
<path d="M21306 8875 c-3 -9 -6 -42 -6 -73 0 -31 -7 -88 -16 -127 -29 -125
-29 -127 -8 -123 11 2 26 22 37 53 23 59 46 219 37 255 -8 29 -35 38 -44 15z"/>
<path d="M21513 8750 c-17 -7 -23 -18 -23 -38 0 -16 -9 -37 -19 -46 -43 -39
-30 -126 21 -140 78 -21 148 9 178 77 34 73 23 119 -35 143 -38 16 -89 17
-122 4z m79 -50 c50 -14 64 -40 43 -80 -24 -47 -79 -65 -126 -40 -24 14 -24
26 1 47 11 10 20 29 20 44 0 41 6 44 62 29z"/>
<path d="M19985 8602 c-21 -5 -31 -14 -33 -31 -4 -23 -2 -23 55 -17 45 6 73 2
125 -14 37 -11 70 -25 73 -31 10 -16 -13 -36 -74 -66 -31 -15 -59 -32 -63 -37
-11 -17 12 -36 81 -67 36 -16 74 -37 84 -47 29 -26 49 -72 43 -96 -8 -33 -76
-96 -102 -96 -30 0 -40 -18 -21 -37 32 -32 127 20 163 88 41 81 -13 175 -129
224 -45 19 -46 29 -6 46 83 34 112 91 63 124 -64 42 -197 71 -259 57z"/>
<path d="M20451 8301 c-18 -12 -27 -129 -12 -174 7 -20 28 -50 47 -67 29 -25
43 -30 87 -30 102 0 218 77 233 155 11 60 -18 76 -41 23 -35 -85 -170 -153
-234 -118 -31 16 -44 65 -37 132 7 74 -7 102 -43 79z"/>
<path d="M30404 6915 c-4 -8 -4 -22 0 -30 3 -8 94 -59 202 -112 219 -110 303
-170 290 -211 -10 -30 -94 -96 -176 -137 -79 -40 -209 -131 -217 -151 -3 -9
-1 -20 5 -26 8 -8 33 3 89 39 43 28 107 67 143 88 225 132 263 198 164 285
-41 36 -194 126 -286 169 -36 17 -93 46 -125 66 -64 39 -81 42 -89 20z"/>
<path d="M27098 6284 c-3 -63 -9 -119 -14 -123 -5 -4 -69 -5 -142 -2 -105 5
-136 3 -145 -7 -8 -10 -8 -19 0 -30 8 -14 31 -17 134 -20 68 -1 127 -6 132
-11 4 -4 -1 -46 -12 -93 -31 -128 -48 -285 -32 -301 16 -16 39 13 45 57 23
149 59 333 66 340 9 9 246 -9 322 -25 103 -22 136 -90 124 -248 -4 -47 -9
-100 -12 -117 -8 -42 19 -54 42 -19 26 39 32 256 10 323 -32 94 -85 117 -311
134 -82 6 -153 14 -157 17 -4 3 -2 47 4 96 12 101 3 145 -30 145 -17 0 -20
-11 -24 -116z"/>
<path d="M27448 6374 c-40 -29 -46 -42 -26 -62 17 -17 43 -15 58 4 8 8 29 22
47 29 46 19 42 49 -7 53 -25 2 -46 -5 -72 -24z"/>
<path d="M28427 6040 c-122 -22 -172 -103 -143 -234 l9 -38 -44 7 c-24 4 -49
11 -55 16 -7 5 -15 40 -19 77 -13 121 -35 130 -124 48 -62 -57 -111 -77 -137
-55 -12 10 -14 25 -9 70 7 63 -5 99 -34 99 -19 0 -33 -27 -72 -137 -28 -80
-44 -83 -34 -5 14 109 12 137 -10 137 -17 0 -22 -11 -32 -65 -17 -93 -17 -205
2 -220 28 -23 50 -6 87 68 l36 73 11 -34 c14 -40 56 -63 97 -53 31 8 100 54
128 85 25 28 33 20 41 -40 11 -76 35 -98 125 -112 61 -9 86 -19 135 -52 104
-71 341 -153 366 -128 7 7 1 13 -18 21 -228 85 -313 125 -321 149 -2 7 9 15
25 18 85 19 148 61 170 112 8 21 13 59 11 95 -3 52 -7 64 -29 81 -31 22 -94
29 -162 17z m131 -62 c19 -19 14 -89 -8 -125 -23 -38 -78 -68 -142 -78 -45 -7
-47 -6 -62 23 -22 42 -21 114 2 141 9 11 31 27 47 36 36 18 146 20 163 3z"/>
<path d="M20882 3080 c0 -14 2 -19 5 -12 2 6 2 18 0 25 -3 6 -5 1 -5 -13z"/>
</g>
</svg>
