<?xml version="1.0" standalone="no"?>
<!DOCTYPE svg PUBLIC "-//W3C//DTD SVG 20010904//EN"
 "http://www.w3.org/TR/2001/REC-SVG-20010904/DTD/svg10.dtd">
<svg version="1.0" xmlns="http://www.w3.org/2000/svg"
 width="2448.000000pt" height="3264.000000pt" viewBox="0 0 2448.000000 3264.000000"
 preserveAspectRatio="xMidYMid meet">
<metadata>
Created by potrace 1.12, written by Peter Selinger 2001-2015
</metadata>
<g transform="translate(0.000000,3264.000000) scale(0.100000,-0.100000)"
fill="#000000" stroke="none">
<path d="M19446 32616 c-3 -14 -4 -31 -1 -39 3 -8 -1 -31 -9 -53 -68 -182 -94
-267 -142 -454 -88 -348 -102 -554 -47 -691 19 -48 60 -73 96 -60 35 14 38 32
18 108 -52 191 -26 418 94 824 19 64 39 133 44 155 5 21 19 76 30 122 29 115
30 112 -28 112 -43 0 -50 -3 -55 -24z"/>
<path d="M24393 32122 c-3 -463 -10 -1141 -14 -1167 0 -5 0 -92 1 -192 1 -114
-3 -189 -9 -202 -8 -14 -8 -28 0 -48 7 -18 8 -77 3 -168 -3 -77 -6 -153 -6
-170 1 -16 1 -201 1 -410 0 -502 2 -970 5 -1075 1 -47 -1 -107 -5 -134 -3 -27
-2 -67 2 -90 4 -22 3 -48 -2 -58 -5 -10 -5 -26 0 -40 5 -13 5 -33 -1 -48 -10
-26 8 -130 23 -130 18 0 30 214 19 340 -4 47 -6 88 -3 93 6 11 28 1176 23
1262 -1 11 -1 45 -1 75 0 30 0 132 -1 225 0 223 1 272 12 320 6 25 5 57 -1 84
-5 24 -7 51 -5 60 3 9 8 374 11 811 3 437 7 882 8 988 l2 192 -30 0 -30 0 -2
-518z"/>
<path d="M19203 32586 c-161 -87 -243 -169 -243 -244 0 -36 30 -72 60 -72 10
0 27 12 37 26 37 55 114 131 150 150 61 31 143 97 149 121 9 33 -12 63 -44 63
-15 0 -64 -20 -109 -44z"/>
<path d="M15702 32454 c-63 -31 -72 -44 -107 -149 -49 -146 -67 -510 -30 -615
25 -71 22 -77 -42 -90 -343 -69 -607 -173 -707 -280 -52 -56 -53 -61 -8 -163
17 -40 32 -59 48 -63 30 -8 44 2 44 30 0 35 76 124 129 150 49 25 186 75 261
96 25 7 93 28 151 47 58 19 116 33 130 31 22 -3 24 -7 26 -69 1 -36 7 -85 13
-110 24 -91 24 -92 -55 -107 -113 -20 -244 -61 -330 -102 -95 -46 -189 -126
-205 -175 -28 -85 24 -185 95 -185 43 0 61 26 43 64 -16 37 2 70 59 106 52 33
383 143 416 138 19 -3 22 -10 25 -63 3 -90 28 -212 79 -390 65 -226 92 -275
157 -275 55 0 64 22 34 83 -15 29 -34 76 -42 105 -9 28 -22 73 -30 100 -8 26
-31 117 -50 202 -20 85 -42 182 -51 214 -9 32 -14 60 -12 62 2 2 37 10 78 18
110 21 488 150 704 240 83 34 119 55 148 85 38 41 47 77 25 99 -19 19 -46 14
-163 -29 -183 -67 -781 -259 -808 -259 -11 0 -16 24 -21 118 -3 64 -9 131 -12
148 -5 27 -2 32 23 42 15 7 52 16 82 22 137 26 255 75 299 124 38 44 40 60 8
81 -21 14 -34 13 -179 -25 -86 -22 -167 -44 -182 -50 -14 -5 -37 -10 -51 -10
l-24 0 0 183 c1 177 18 374 40 450 16 53 48 71 115 64 41 -4 59 -2 70 9 18 19
19 14 -4 67 -10 24 -27 47 -36 51 -35 13 -102 4 -153 -20z"/>
<path d="M17519 32271 c-36 -37 -36 -46 -4 -300 51 -403 121 -763 162 -845 29
-56 71 -205 78 -272 12 -126 29 -154 95 -154 51 0 60 46 25 133 -13 31 43 20
95 -18 107 -78 287 -99 436 -49 186 62 303 149 338 251 23 67 21 77 -26 118
-61 53 -169 100 -346 151 -182 52 -256 57 -366 22 -71 -22 -132 -70 -179 -141
-19 -28 -55 -37 -61 -14 -7 24 -88 510 -119 707 -17 110 -21 179 -19 284 3
151 1 156 -51 156 -18 0 -39 -11 -58 -29z m934 -1140 c75 -22 146 -45 157 -51
21 -11 21 -11 1 -39 -21 -28 -146 -95 -241 -127 -42 -14 -84 -19 -175 -19
-116 0 -123 1 -210 37 -49 21 -96 44 -103 52 -37 37 43 137 140 175 46 18 69
21 173 17 104 -3 138 -9 258 -45z"/>
<path d="M13351 31153 c-47 -48 -65 -77 -104 -170 -66 -154 -91 -286 -91 -468
0 -254 49 -349 202 -395 87 -25 96 -25 159 4 88 41 162 132 235 287 38 80 81
208 93 274 16 85 53 102 82 38 46 -100 190 -242 328 -325 72 -42 182 -78 242
-78 53 0 95 34 86 70 -6 24 -14 28 -131 64 -157 49 -282 142 -413 307 -75 97
-113 169 -130 253 -19 86 -48 145 -77 153 -32 8 -71 -13 -91 -49 -14 -25 -13
-31 13 -86 36 -76 33 -107 -30 -299 -41 -125 -135 -335 -166 -373 -68 -82
-219 -124 -249 -68 -20 36 -30 186 -20 291 18 187 72 351 140 425 38 40 69 41
106 2 32 -34 85 -54 115 -45 15 5 20 15 20 44 0 52 -29 86 -90 106 -28 9 -50
20 -50 24 0 3 -13 21 -29 39 -47 50 -80 45 -150 -25z"/>
<path d="M19313 31091 c-84 -7 -123 -26 -123 -60 0 -27 37 -79 67 -95 44 -22
146 -38 176 -27 49 19 85 80 60 105 -4 4 -7 19 -8 34 0 28 -34 53 -70 50 -11
0 -57 -4 -102 -7z"/>
<path d="M10394 29735 c-22 -13 -46 -37 -53 -52 -43 -94 -49 -872 -10 -1343
38 -465 41 -572 49 -1770 4 -663 13 -1293 19 -1400 6 -107 15 -289 21 -405 6
-115 15 -258 22 -317 6 -59 10 -110 7 -112 -2 -2 -26 0 -54 4 -67 11 -1062
-14 -2430 -60 -148 -6 -538 -12 -865 -16 -621 -6 -602 -7 -1640 47 -234 12
-819 6 -1130 -11 -102 -6 -336 -15 -520 -19 -184 -5 -345 -12 -357 -17 -29
-12 -75 -81 -71 -107 5 -35 31 -43 95 -28 35 8 178 16 358 21 165 5 435 16
600 25 459 23 1054 16 1485 -20 276 -23 1123 -34 1540 -20 85 3 306 10 490 15
746 22 1001 30 1125 35 72 3 299 10 505 15 698 18 785 21 823 31 33 9 37 13
38 42 3 69 18 -46 19 -138 0 -89 24 -561 55 -1090 9 -148 30 -441 46 -650 17
-209 34 -436 39 -505 4 -69 17 -246 29 -395 26 -343 51 -738 57 -880 2 -60 6
-164 9 -230 2 -66 11 -361 19 -655 24 -838 26 -903 36 -1115 5 -110 8 -207 8
-215 -1 -29 19 -494 28 -630 2 -41 9 -156 14 -255 5 -99 17 -308 25 -465 9
-157 20 -378 24 -492 5 -113 12 -211 16 -217 9 -16 7 -936 -5 -1651 -5 -333
-12 -868 -15 -1190 -3 -322 -7 -641 -10 -710 -24 -616 -30 -1003 -28 -1920 2
-667 -1 -1083 -9 -1212 -11 -186 -10 -199 7 -218 22 -24 48 -26 65 -5 8 9 16
67 21 143 5 70 13 165 19 212 12 97 18 466 25 1585 2 429 7 834 10 900 16 383
25 850 25 1285 0 272 5 749 11 1060 20 1082 11 1806 -31 2428 -11 165 -47 862
-55 1077 -3 77 -10 248 -15 380 -9 233 -19 525 -40 1265 -12 411 -35 968 -50
1220 -25 404 -68 996 -100 1395 -12 142 -24 340 -45 710 -26 487 -34 648 -40
790 -3 77 -10 181 -15 230 -5 50 -14 209 -20 355 -6 146 -15 333 -20 415 -23
365 -33 861 -34 1840 -2 1053 -5 1140 -43 1605 -12 148 -17 322 -17 625 -1
477 8 600 49 670 29 48 27 79 -6 114 -26 27 -55 26 -105 -4z"/>
<path d="M24378 28105 c-9 -19 -13 -37 -8 -45 5 -8 5 -21 0 -30 -11 -21 4 -45
24 -37 11 4 16 16 14 35 -1 15 1 33 5 39 4 6 1 24 -6 41 l-12 29 -17 -32z"/>
<path d="M19274 27925 c-43 -19 -50 -43 -79 -269 -13 -105 -34 -254 -45 -331
-36 -245 -69 -675 -80 -1050 -8 -288 -10 -305 -60 -555 -6 -30 -15 -88 -20
-129 -4 -40 -13 -78 -19 -84 -14 -14 -115 -11 -220 9 -117 21 -304 61 -371 79
-64 18 -94 19 -121 5 -30 -16 -23 -40 25 -86 37 -35 57 -45 115 -58 38 -9 83
-16 100 -16 17 0 42 -5 56 -12 21 -10 28 -9 35 2 7 11 30 9 137 -13 70 -15
170 -32 222 -39 74 -9 95 -16 98 -29 6 -21 29 -32 54 -24 11 4 16 12 13 23 -5
15 -4 15 9 -1 8 -10 28 -22 44 -26 47 -14 246 4 378 34 161 36 241 63 392 135
340 162 524 354 540 565 7 90 -8 156 -58 262 -45 95 -166 260 -256 350 -68 68
-166 124 -250 142 -121 25 -277 -42 -436 -189 -90 -83 -150 -169 -204 -293
-47 -108 -67 -137 -91 -137 -12 0 -14 11 -9 63 18 191 37 434 47 592 11 190
19 268 51 485 40 275 71 443 90 484 24 52 24 88 1 109 -22 20 -46 20 -88 2z
m677 -1276 c75 -27 164 -107 252 -226 140 -189 184 -320 142 -420 -85 -203
-484 -426 -895 -503 -51 -9 -285 -30 -334 -30 -45 0 -48 12 -22 91 34 106 76
273 76 304 0 34 44 178 77 253 13 31 39 72 56 92 18 19 55 75 82 124 28 49 73
116 101 150 53 64 181 159 236 175 61 17 167 13 229 -10z"/>
<path d="M24374 27835 c-7 -28 0 -55 15 -55 12 0 20 35 14 60 -7 28 -21 25
-29 -5z"/>
<path d="M17055 27804 c-16 -2 -69 -12 -117 -21 -81 -15 -90 -15 -138 0 -107
35 -255 9 -428 -73 -342 -163 -794 -712 -906 -1102 -38 -132 -49 -242 -43
-423 6 -192 33 -309 102 -452 157 -323 568 -466 1110 -387 431 63 715 201
1000 488 243 244 352 417 396 624 29 138 24 376 -10 522 -41 171 -128 373
-220 508 -64 93 -192 219 -248 243 -111 48 -214 70 -343 74 -69 2 -138 2 -155
-1z m130 -109 c160 -16 245 -39 330 -90 75 -45 106 -74 160 -150 215 -300 308
-730 222 -1021 -43 -148 -138 -302 -270 -440 -298 -315 -627 -464 -1110 -506
-252 -22 -480 12 -652 97 -171 83 -239 172 -293 378 -24 92 -27 119 -27 282 0
163 3 190 27 288 96 379 419 807 792 1048 81 53 208 101 257 97 l39 -3 -82
-65 c-45 -36 -94 -71 -108 -79 -31 -17 -35 -24 -55 -84 -9 -27 -29 -66 -45
-88 -38 -53 -31 -69 29 -66 l46 2 7 -45 c81 -492 98 -579 120 -640 11 -30 23
-69 25 -86 l5 -31 -124 -7 c-383 -22 -710 -86 -836 -165 -47 -29 -66 -71 -49
-106 22 -45 48 -45 147 -4 95 40 275 83 410 99 58 6 189 23 292 36 103 13 199
24 214 24 26 0 26 -1 11 -18 -19 -21 -22 -93 -7 -157 38 -156 51 -398 25 -470
-36 -98 -2 -161 67 -124 43 23 61 92 66 259 3 91 0 186 -7 230 -15 94 -50 249
-62 273 -8 16 -1 17 88 18 54 0 175 6 268 13 94 7 243 14 332 15 181 2 256 15
261 45 5 27 -24 46 -69 46 -20 0 -65 9 -99 20 -79 25 -162 26 -515 3 -149 -9
-278 -14 -287 -11 -10 4 -19 24 -23 50 -3 24 -17 99 -30 168 -21 104 -43 235
-122 697 -5 29 1 39 63 103 37 39 92 84 121 101 l52 30 44 -45 c50 -52 92 -61
127 -26 24 24 26 72 5 90 -41 34 2 37 220 15z"/>
<path d="M24377 27726 c-6 -15 1 -26 15 -26 4 0 8 9 8 20 0 23 -15 27 -23 6z"/>
<path d="M7136 27679 c-46 -54 -57 -87 -65 -192 -24 -290 50 -841 170 -1286
44 -162 45 -177 15 -263 -36 -103 -57 -231 -63 -390 -6 -146 2 -213 39 -328
25 -78 55 -127 116 -192 40 -43 49 -48 87 -48 54 0 85 24 119 92 23 47 26 63
26 166 0 180 -40 410 -115 664 -19 65 -35 129 -35 143 0 43 40 107 106 171 73
71 113 92 200 107 53 9 78 8 175 -12 106 -21 295 -82 404 -130 139 -61 342
-170 381 -204 55 -48 58 -83 13 -150 -38 -58 -103 -117 -271 -248 -73 -56
-171 -135 -218 -175 -181 -153 -306 -229 -448 -273 -82 -25 -105 -50 -100
-103 3 -29 7 -33 36 -36 50 -5 187 26 256 57 120 55 344 215 661 474 204 168
282 272 273 369 -13 126 -89 195 -370 335 -310 154 -534 226 -710 227 l-106 1
-104 -53 c-83 -43 -115 -66 -165 -120 -34 -36 -64 -64 -66 -62 -3 3 -25 106
-51 230 -79 389 -110 661 -104 915 3 152 6 175 26 214 28 57 28 72 -3 105 -34
37 -76 35 -109 -5z m223 -1877 c15 -29 54 -273 81 -514 8 -72 8 -102 0 -118
-9 -17 -14 -19 -25 -10 -17 14 -50 115 -65 195 -12 70 -32 443 -24 456 9 14
23 10 33 -9z"/>
<path d="M24385 27640 c3 -5 8 -10 11 -10 2 0 4 5 4 10 0 6 -5 10 -11 10 -5 0
-7 -4 -4 -10z"/>
<path d="M24384 27578 c3 -13 6 -32 6 -42 0 -12 3 -16 9 -10 11 12 2 74 -11
74 -6 0 -8 -10 -4 -22z"/>
<path d="M13779 26925 c-20 -13 -39 -31 -42 -39 -4 -9 -2 -53 3 -98 16 -134
14 -148 -15 -148 -14 0 -49 12 -78 27 -75 38 -187 43 -277 13 -62 -21 -191
-100 -290 -178 -128 -101 -357 -374 -421 -501 -122 -245 -149 -482 -72 -659
28 -67 113 -151 190 -188 50 -25 70 -29 143 -29 97 0 146 15 253 79 79 47 193
154 256 240 51 68 157 268 200 376 35 88 80 243 112 390 20 85 24 131 22 243
-1 75 3 137 7 137 22 0 63 -76 91 -166 55 -178 258 -571 401 -779 63 -91 187
-227 243 -265 74 -51 124 -34 110 37 -9 53 -24 73 -92 122 -109 80 -230 262
-383 576 -189 387 -232 512 -256 738 -6 58 -28 97 -57 97 -7 0 -29 -11 -48
-25z m-218 -375 c39 -10 86 -31 104 -45 l33 -25 -19 -52 c-10 -29 -26 -87 -34
-128 -48 -231 -92 -364 -182 -545 -59 -118 -89 -165 -164 -261 -126 -159 -328
-246 -467 -200 -70 24 -135 93 -152 166 -28 118 8 307 94 484 101 209 229 364
411 500 171 127 235 145 376 106z"/>
<path d="M4646 26307 c-29 -36 -38 -58 -50 -128 -9 -46 -29 -130 -45 -186 -17
-56 -35 -130 -41 -165 -21 -119 -99 -423 -138 -543 -98 -295 -153 -382 -270
-428 -101 -40 -156 -17 -206 85 -66 136 -81 217 -81 438 1 180 3 203 28 295
58 215 173 402 308 500 72 54 128 44 234 -41 37 -30 77 -54 89 -54 12 0 37 15
55 34 41 43 37 60 -32 122 -118 106 -254 130 -382 66 -53 -26 -143 -123 -205
-217 -65 -102 -139 -243 -163 -317 -66 -193 -84 -479 -43 -675 19 -89 69 -234
96 -278 68 -110 185 -142 326 -89 134 50 183 92 252 215 56 99 159 416 203
624 12 55 28 127 36 160 9 34 17 125 20 210 2 83 8 154 13 159 11 11 33 -33
79 -164 82 -234 286 -537 490 -733 174 -166 460 -313 569 -292 78 15 111 48
98 99 -7 29 -43 43 -119 49 -74 5 -246 88 -364 176 -170 127 -413 458 -522
710 -33 77 -83 213 -105 291 -22 73 -51 120 -75 120 -11 0 -35 -19 -55 -43z"/>
<path d="M23532 24938 c-13 -6 -21 -19 -20 -27 3 -13 19 -16 90 -16 90 0 116
10 105 39 -5 13 -22 16 -79 15 -40 0 -83 -5 -96 -11z"/>
<path d="M14800 24493 c-431 -7 -1512 -43 -2205 -73 -988 -42 -1158 -49 -1611
-60 -394 -9 -399 -10 -389 -70 3 -19 14 -41 23 -47 32 -26 787 -9 1932 42 570
25 1391 53 1945 67 850 20 3010 16 3465 -7 52 -3 214 -10 360 -15 249 -10 708
-35 830 -45 30 -3 114 -9 185 -15 253 -20 862 -94 1155 -141 355 -56 616 -102
652 -115 83 -29 148 -10 148 43 0 43 -65 79 -208 114 -84 20 -548 94 -775 124
-465 60 -695 87 -967 110 -442 38 -1127 68 -1915 85 -399 8 -2196 11 -2625 3z"/>
<path d="M24390 24065 c0 -8 7 -15 15 -15 8 0 15 7 15 15 0 8 -7 15 -15 15 -8
0 -15 -7 -15 -15z"/>
<path d="M16005 23733 c-16 -2 -54 -11 -83 -19 -49 -14 -53 -17 -51 -42 3 -22
-10 -41 -66 -99 -72 -73 -84 -95 -178 -323 -36 -89 -98 -280 -118 -365 -18
-79 -14 -230 9 -302 64 -202 238 -326 457 -328 82 0 96 3 155 32 73 37 143 93
278 226 165 162 228 264 289 466 32 108 34 122 29 216 -3 55 -10 116 -16 135
-35 123 -189 263 -238 216 -10 -10 -4 -23 29 -67 59 -78 77 -118 90 -199 19
-111 -13 -245 -97 -411 -61 -121 -303 -359 -439 -433 -57 -30 -219 -30 -286 1
-82 37 -133 129 -150 270 -9 72 -8 101 6 172 24 125 118 398 185 537 52 110
62 124 101 147 125 73 289 91 482 53 73 -14 101 -16 109 -8 30 30 -83 94 -206
117 -71 14 -218 18 -291 8z"/>
<path d="M4977 23674 c-170 -20 -227 -58 -241 -156 -8 -52 8 -75 24 -34 5 14
16 26 23 26 8 0 31 13 52 30 20 16 52 32 70 36 61 11 269 9 390 -4 371 -41
551 -111 699 -274 107 -117 145 -217 146 -384 0 -206 -112 -470 -279 -656
-202 -225 -616 -166 -745 106 -67 142 -95 360 -76 594 14 180 47 373 74 442
20 48 26 55 51 55 37 0 56 28 33 51 -22 23 -188 33 -205 13 -16 -20 -49 -154
-70 -289 -14 -91 -18 -171 -17 -385 0 -260 1 -274 27 -370 42 -154 84 -234
175 -327 132 -137 261 -185 470 -175 231 10 356 86 508 308 77 113 148 273
180 408 24 104 22 297 -4 396 -62 230 -196 386 -425 495 -122 59 -219 86 -360
100 -127 12 -371 10 -500 -6z"/>
<path d="M8590 23540 c-25 -4 -82 -22 -127 -40 l-82 -32 -27 21 c-23 18 -40
21 -119 21 -74 0 -97 -4 -114 -17 -29 -24 -68 -136 -81 -231 -6 -43 -19 -100
-29 -128 -10 -27 -21 -70 -24 -96 -6 -45 -5 -49 23 -70 l30 -22 0 -225 c-1
-168 3 -248 15 -311 9 -47 20 -107 25 -133 15 -84 89 -188 175 -247 106 -73
276 -80 407 -18 40 20 94 54 119 77 95 83 245 309 348 522 79 161 106 283 98
440 -4 105 -5 106 -61 216 -48 95 -65 117 -111 153 -63 49 -171 95 -268 116
-73 15 -125 16 -197 4z m219 -156 c129 -29 220 -107 253 -217 19 -64 14 -209
-11 -301 -34 -127 -145 -337 -274 -518 -81 -114 -134 -165 -203 -199 -58 -29
-70 -31 -133 -27 -76 6 -143 37 -180 84 -58 74 -92 295 -92 591 1 115 2 226 2
248 1 22 -1 56 -5 75 -7 31 -3 41 28 81 19 26 60 63 91 83 69 46 188 96 229
96 17 0 38 5 46 10 23 15 174 12 249 -6z m-559 2 c0 -16 -14 -36 -26 -36 -14
0 -19 22 -7 33 7 8 33 10 33 3z"/>
<path d="M4786 23458 c-9 -12 -16 -30 -16 -38 0 -17 19 -40 32 -40 11 0 38 56
38 80 0 27 -34 26 -54 -2z"/>
<path d="M24450 23205 c0 -8 5 -15 10 -15 6 0 10 7 10 15 0 8 -4 15 -10 15 -5
0 -10 -7 -10 -15z"/>
<path d="M24433 23154 c-8 -20 8 -36 26 -25 15 10 8 41 -9 41 -6 0 -13 -7 -17
-16z"/>
<path d="M24440 22374 c0 -17 22 -14 28 4 2 7 -3 12 -12 12 -9 0 -16 -7 -16
-16z"/>
<path d="M24437 21934 c-8 -8 1 -24 14 -24 5 0 9 7 9 15 0 15 -12 20 -23 9z"/>
<path d="M8710 21779 c-99 -46 -126 -72 -169 -157 -77 -153 -100 -412 -71
-792 15 -202 115 -787 150 -880 12 -31 24 -93 27 -143 13 -189 93 -157 93 38
0 83 -38 375 -65 505 -7 36 -16 85 -20 110 -50 351 -64 588 -47 802 18 217 51
280 182 349 82 42 99 64 86 106 -9 27 -71 93 -87 93 -8 0 -43 -14 -79 -31z"/>
<path d="M24421 21536 c-9 -11 -9 -19 1 -35 25 -40 61 -14 38 28 -13 25 -23
26 -39 7z"/>
<path d="M6702 21401 c2 -7 7 -12 11 -12 12 1 9 15 -3 20 -7 2 -11 -2 -8 -8z"/>
<path d="M16195 21185 c-29 -28 -32 -72 -11 -131 7 -22 17 -64 21 -94 3 -30
17 -134 31 -230 13 -96 26 -195 29 -220 3 -25 12 -85 20 -135 32 -208 62 -496
71 -675 7 -170 16 -205 54 -225 38 -20 53 -19 81 4 22 18 23 21 11 67 -6 27
-21 166 -32 310 -11 143 -27 312 -35 375 -34 253 -75 584 -94 750 -12 97 -23
183 -26 191 -7 18 -47 38 -76 38 -11 0 -31 -11 -44 -25z"/>
<path d="M24434 21146 c-8 -22 -1 -59 13 -64 17 -5 27 22 19 53 -7 28 -24 33
-32 11z"/>
<path d="M5865 21015 c-298 -70 -527 -257 -606 -494 -19 -56 -20 -70 -10 -114
13 -57 26 -77 50 -77 32 0 43 18 61 102 19 87 62 186 107 245 30 39 155 126
228 158 78 35 182 56 311 62 120 6 186 -7 311 -62 43 -20 53 -28 49 -43 -4
-11 7 -39 29 -72 92 -143 108 -347 45 -564 -84 -288 -278 -666 -422 -821 -64
-69 -168 -135 -260 -165 -133 -44 -315 -19 -438 60 -130 83 -270 292 -314 469
-24 96 -28 154 -17 274 13 135 17 151 40 141 9 -4 35 -14 59 -23 41 -15 44
-15 58 3 21 29 18 42 -21 85 -68 75 -165 101 -217 58 -26 -21 -28 -31 -44
-172 -20 -180 -15 -319 16 -419 55 -174 157 -343 274 -453 265 -247 687 -253
939 -14 81 77 140 161 241 342 130 233 223 464 261 644 23 110 22 302 -1 347
-11 21 -18 57 -18 99 -2 145 -129 310 -292 379 -75 32 -86 34 -219 37 -95 2
-159 -2 -200 -12z"/>
<path d="M24447 21004 c-10 -11 -9 -72 2 -78 13 -8 24 50 14 69 -5 9 -12 12
-16 9z"/>
<path d="M24435 20850 c-3 -11 -3 -40 1 -65 5 -35 10 -45 23 -43 18 4 26 45
16 95 -7 37 -30 44 -40 13z"/>
<path d="M24433 20678 c-18 -23 -21 -56 -8 -75 9 -12 13 -48 12 -103 -1 -54 2
-85 9 -87 16 -5 25 46 27 154 2 73 -1 96 -14 108 -13 13 -18 14 -26 3z"/>
<path d="M24443 20388 c-17 -21 -24 -118 -14 -181 8 -43 7 -64 -2 -78 -9 -15
-9 -23 1 -39 6 -11 12 -51 12 -90 0 -40 4 -70 10 -70 6 0 10 22 10 49 0 28 5
53 10 56 14 8 13 71 -2 94 -6 11 -8 26 -3 37 14 33 15 200 1 219 -10 14 -14
14 -23 3z"/>
<path d="M24437 19908 c-14 -7 -17 -17 -12 -35 3 -14 1 -40 -5 -58 -9 -26 -8
-41 4 -69 8 -20 19 -36 23 -36 24 1 30 21 31 102 1 93 -8 115 -41 96z"/>
<path d="M24435 19644 c-12 -12 -14 -24 -8 -48 4 -17 7 -50 6 -73 -1 -29 2
-43 10 -43 28 0 37 25 37 102 0 83 -10 97 -45 62z"/>
<path d="M24446 19444 c-9 -8 -16 -19 -16 -24 0 -14 31 -41 41 -35 5 4 9 19 9
35 0 36 -13 45 -34 24z"/>
<path d="M24435 19360 c-3 -5 -8 -33 -10 -62 -2 -29 -7 -66 -11 -81 -5 -21 -1
-34 16 -52 20 -21 21 -28 11 -53 -7 -17 -13 -98 -15 -198 -1 -94 -5 -175 -8
-180 -3 -5 -2 -85 3 -179 5 -93 6 -262 3 -375 -8 -284 -8 -469 -1 -508 4 -19
1 -41 -5 -51 -8 -13 -8 -30 -1 -60 7 -25 8 -68 3 -109 -4 -37 -5 -85 -3 -107
2 -22 3 -65 2 -95 -3 -89 -3 -111 -1 -195 1 -44 0 -215 -3 -380 -6 -359 -6
-284 -4 -663 1 -172 -1 -316 -5 -319 -10 -11 -7 -39 9 -71 14 -27 14 -35 3
-59 -13 -25 -14 -140 -8 -433 1 -14 -2 -95 -5 -180 -4 -85 -6 -162 -6 -170 1
-23 10 -933 10 -950 -1 -11 -6 -502 -8 -765 0 -11 1 -108 2 -215 2 -107 -1
-203 -6 -213 -6 -12 -3 -26 7 -42 9 -13 13 -30 11 -37 -4 -11 -15 -331 -14
-398 0 -8 2 -235 4 -505 2 -269 4 -498 4 -507 0 -22 0 -34 1 -173 0 -89 -5
-229 -11 -345 -1 -8 -1 -53 0 -100 2 -223 2 -348 0 -380 -1 -19 -1 -44 -1 -55
7 -178 8 -427 1 -431 -12 -7 -11 -48 0 -60 6 -5 7 -45 1 -104 -11 -123 -12
-370 -1 -384 4 -6 5 -42 0 -81 -7 -68 -8 -148 -7 -530 2 -291 -1 -582 -7 -695
-3 -58 -1 -112 4 -119 6 -9 6 -22 -1 -34 -7 -13 -7 -22 1 -30 7 -7 7 -16 0
-29 -6 -12 -6 -25 1 -38 7 -13 8 -33 1 -58 -5 -20 -10 -136 -10 -257 -1 -121
-4 -308 -5 -415 -2 -109 1 -203 6 -213 6 -12 6 -28 -1 -46 -14 -31 -13 -19
-11 -451 0 -184 -1 -400 -3 -480 -8 -250 -7 -315 3 -349 7 -24 6 -39 -4 -54
-7 -12 -12 -44 -11 -72 14 -271 17 -341 15 -350 -3 -24 -2 -539 2 -620 2 -49
1 -108 -3 -129 -4 -22 -3 -86 2 -143 5 -57 5 -120 1 -141 -5 -20 -5 -84 -2
-142 3 -58 4 -109 1 -115 -10 -17 1 -405 11 -421 4 -6 3 -26 -2 -45 -12 -40
-12 -141 -1 -219 5 -34 4 -64 -2 -78 -7 -16 -8 -29 -1 -40 6 -11 7 -55 3 -117
-5 -72 -4 -107 5 -126 14 -28 12 -72 -5 -130 -9 -28 -8 -42 4 -65 12 -23 13
-51 7 -144 -8 -139 -4 -273 9 -298 7 -13 7 -22 0 -29 -8 -8 -8 -17 0 -31 6
-12 7 -39 3 -73 -5 -30 -8 -83 -7 -119 1 -36 -1 -77 -6 -92 -5 -17 -2 -33 8
-47 8 -12 11 -26 8 -31 -10 -17 -14 -172 -4 -197 5 -13 4 -25 -1 -28 -16 -10
-12 -103 5 -136 14 -27 14 -33 -1 -65 -15 -32 -15 -36 0 -53 16 -17 16 -21 0
-61 -14 -34 -15 -46 -5 -62 6 -10 8 -24 5 -30 -13 -21 -15 -311 -3 -335 9 -17
9 -26 1 -36 -13 -15 -7 -211 6 -231 4 -6 7 -24 7 -41 0 -20 5 -30 15 -30 17 0
31 45 18 61 -5 7 -5 22 0 35 5 13 7 50 4 82 -3 37 0 67 8 82 11 20 10 26 -4
40 -12 12 -13 21 -6 35 8 16 6 22 -10 32 -25 16 -25 30 -1 52 25 22 35 89 20
131 -9 25 -10 37 -1 47 6 8 7 19 2 27 -5 8 -3 32 5 57 10 35 10 46 0 61 -7 9
-11 23 -8 30 3 7 0 19 -6 27 -16 19 1 152 19 141 12 -7 3 82 -11 118 -9 20 -9
35 -1 51 6 14 8 60 5 112 -7 120 -6 131 2 195 5 37 4 63 -4 77 -9 17 -8 40 5
102 9 46 12 86 7 93 -7 11 -8 211 0 302 2 22 0 45 -5 51 -4 6 -7 33 -7 60 2
123 1 585 0 634 -1 19 -1 94 -1 165 0 72 -5 149 -11 172 -6 23 -8 50 -4 60 6
14 19 707 15 823 0 14 -2 167 -5 340 -2 173 -4 322 -5 330 0 8 0 125 0 260 0
135 -1 256 -1 270 0 14 3 115 7 225 4 110 6 216 5 235 -4 58 -5 93 -3 145 1
28 1 79 0 115 0 36 3 322 6 635 13 1076 16 7649 4 7657 -8 4 -9 10 -1 20 7 9
9 133 7 368 -1 195 -2 362 -2 370 7 469 6 1119 -3 1136 -8 16 -8 31 0 55 15
48 14 409 -2 428 -9 11 -9 15 1 18 16 6 17 284 0 301 -8 8 -8 15 0 24 8 10 11
478 4 668 0 8 2 50 5 93 3 51 1 83 -7 92 -8 10 -8 19 -1 33 7 14 9 155 7 434
-2 227 -5 420 -6 428 0 8 2 90 5 182 3 108 2 169 -5 173 -13 8 -13 62 0 70 11
7 14 136 4 173 -7 23 -28 30 -39 12z"/>
<path d="M8567 19109 c-116 -27 -222 -117 -241 -204 -12 -56 33 -83 103 -60
22 7 24 6 18 -16 -4 -13 -12 -71 -18 -129 -25 -222 51 -636 160 -871 38 -83
137 -207 210 -265 100 -79 223 -108 356 -85 82 15 132 39 191 93 143 131 243
344 279 593 40 274 -40 563 -204 733 -99 104 -276 188 -444 211 -92 13 -355
13 -410 0z m33 -133 c0 -6 -88 -46 -101 -46 -22 0 -1 24 32 36 34 12 69 18 69
10z m305 -12 c291 -22 470 -146 544 -374 32 -96 44 -235 31 -355 -12 -110 -17
-128 -67 -260 -69 -180 -162 -308 -251 -342 -183 -70 -373 58 -482 324 -66
163 -115 462 -106 648 6 139 24 282 38 308 17 33 107 67 163 62 28 -2 86 -7
130 -11z"/>
<path d="M16331 19008 c-38 -40 -44 -82 -38 -262 3 -105 20 -279 42 -451 43
-335 64 -630 64 -897 0 -108 3 -244 7 -303 6 -93 10 -111 31 -136 29 -34 77
-40 92 -11 6 11 6 55 1 117 -5 55 -9 237 -9 405 -1 356 -13 524 -77 1045 -9
72 -17 191 -17 265 -2 114 1 139 16 160 20 28 22 61 5 78 -21 21 -95 15 -117
-10z"/>
<path d="M5677 18653 c-43 -18 -53 -42 -43 -106 66 -453 107 -629 246 -1057
61 -184 127 -398 149 -475 44 -160 74 -243 95 -264 13 -12 18 -12 31 -1 14 11
15 30 11 114 -7 135 -36 275 -101 481 -70 224 -127 423 -165 576 -40 161 -100
526 -100 607 0 68 -18 115 -49 132 -24 12 -26 12 -74 -7z"/>
<path d="M9184 16408 c-47 -22 -148 -230 -165 -338 -18 -114 -5 -431 30 -735
87 -753 106 -989 122 -1527 9 -303 9 -414 0 -479 -7 -46 -15 -190 -18 -320 -5
-221 -4 -236 13 -243 28 -11 53 23 63 89 5 33 14 82 20 108 39 181 66 629 57
962 -6 241 -8 287 -20 440 -3 39 -8 115 -11 170 -7 118 -42 532 -56 660 -48
440 -61 710 -39 826 13 68 49 143 96 197 37 44 37 44 18 127 -14 62 -59 88
-110 63z"/>
<path d="M16515 15533 c-78 -10 -193 -37 -272 -64 -108 -36 -131 -36 -176 0
-60 47 -92 56 -153 43 -93 -19 -156 -65 -236 -172 -105 -142 -181 -299 -236
-490 -25 -89 -27 -108 -27 -285 0 -121 5 -212 13 -250 88 -395 256 -642 527
-774 130 -63 189 -75 355 -76 130 0 155 3 240 29 124 36 292 120 405 201 117
84 306 272 406 405 202 267 278 562 219 852 -31 151 -98 269 -213 374 -124
113 -250 168 -454 198 -101 14 -317 20 -398 9z m290 -144 c216 -20 394 -82
487 -168 32 -29 58 -57 58 -61 0 -5 18 -38 41 -74 55 -89 80 -170 86 -292 9
-167 -25 -315 -111 -481 -59 -113 -108 -177 -237 -311 -176 -182 -355 -298
-556 -358 -128 -38 -315 -45 -433 -15 -290 72 -485 291 -575 644 -78 309 -46
585 102 865 104 196 167 252 268 240 50 -6 38 -24 -50 -73 -100 -56 -148 -97
-143 -122 6 -35 48 -24 203 52 158 78 184 86 362 125 186 40 313 47 498 29z"/>
<path d="M6037 15480 c-77 -67 -97 -179 -78 -426 27 -348 84 -689 214 -1294
14 -63 33 -155 42 -205 9 -49 24 -108 34 -130 11 -22 23 -71 29 -108 15 -101
44 -128 58 -54 21 113 2 278 -106 892 -94 535 -128 834 -118 1033 3 68 8 82
37 123 31 44 32 48 25 108 -4 34 -13 69 -21 77 -25 24 -79 17 -116 -16z"/>
<path d="M9059 6389 c-34 -34 -20 -82 44 -148 75 -77 243 -342 267 -421 5 -14
29 -83 54 -155 25 -71 46 -135 46 -141 0 -29 -943 -36 -1305 -10 -110 8 -337
24 -505 35 -453 31 -622 48 -755 75 -285 58 -380 41 -401 -71 -5 -28 -2 -39
17 -59 26 -28 45 -28 160 -3 48 10 68 9 155 -9 199 -42 324 -54 779 -77 66 -4
194 -12 285 -20 467 -39 886 -43 1145 -10 72 9 166 20 210 25 95 10 134 21
175 50 17 12 37 20 44 17 13 -5 33 -98 62 -282 23 -153 37 -476 31 -735 -9
-386 -40 -578 -162 -1005 -87 -304 -111 -368 -210 -570 -126 -258 -264 -448
-393 -541 -97 -71 -112 -88 -112 -130 0 -39 33 -79 57 -70 8 3 19 6 25 6 30 0
368 373 368 406 0 5 13 26 30 46 91 110 250 487 329 778 11 41 36 131 56 200
40 139 96 427 117 595 9 76 13 232 12 500 0 398 -7 487 -54 735 -29 155 -113
428 -170 556 -30 65 -201 326 -249 378 -32 34 -95 76 -116 76 -8 0 -25 -10
-36 -21z"/>
<path d="M10081 6264 c-16 -20 -21 -37 -17 -55 5 -26 4 -27 -33 -22 -34 5 -41
2 -56 -21 -19 -29 -15 -64 14 -105 10 -14 43 -73 73 -131 31 -58 86 -163 123
-235 38 -71 98 -184 135 -250 146 -261 222 -457 282 -725 18 -79 22 -129 22
-295 2 -495 -121 -970 -449 -1740 -67 -158 -175 -357 -265 -490 -94 -140 -128
-242 -99 -297 10 -18 6 -25 -25 -54 -40 -37 -48 -82 -20 -122 25 -36 57 -27
136 37 46 36 153 100 288 171 118 62 314 168 435 235 121 67 289 159 373 204
185 100 231 127 542 326 185 118 287 181 340 210 92 50 517 329 692 454 232
165 459 380 662 625 148 180 234 306 284 417 17 37 35 70 41 73 6 4 40 -2 77
-14 117 -36 275 -26 604 40 80 16 197 36 260 44 63 9 183 25 265 36 571 77
730 90 1105 90 337 -1 486 -11 558 -39 74 -29 95 -27 131 14 37 42 39 64 8 93
-32 30 -85 50 -190 72 -80 17 -134 20 -418 20 -325 0 -479 -7 -724 -35 -319
-36 -921 -123 -1117 -160 -251 -48 -402 -49 -507 -4 -28 12 -57 19 -66 15 -8
-3 -23 -22 -32 -43 -10 -21 -18 -39 -19 -41 -4 -6 -287 109 -379 153 -93 45
-488 302 -573 374 -43 36 -277 191 -390 260 -24 14 -132 83 -240 152 -238 152
-371 227 -558 313 -145 67 -252 126 -384 211 -206 133 -476 227 -705 246 -55
5 -114 11 -131 15 -26 5 -35 1 -53 -22z m174 -155 c95 -7 295 -50 380 -82 80
-30 192 -88 295 -151 148 -91 285 -166 425 -229 146 -67 275 -140 500 -282 94
-59 193 -121 220 -138 147 -89 294 -186 411 -273 122 -91 303 -213 463 -312
114 -70 268 -140 371 -167 81 -22 99 -36 79 -63 -411 -557 -658 -784 -1301
-1195 -224 -143 -429 -275 -638 -410 -241 -156 -340 -215 -573 -341 -105 -57
-227 -124 -269 -148 -188 -105 -271 -150 -393 -214 -71 -37 -170 -94 -220
-126 -82 -53 -90 -57 -93 -38 -6 34 26 92 162 295 37 56 157 279 185 345 18
41 39 89 47 107 8 17 14 36 14 43 0 7 6 24 14 38 26 48 66 144 66 158 0 8 4
22 10 32 16 29 66 162 95 251 14 47 32 96 40 110 50 98 134 441 169 686 62
441 53 676 -39 960 -64 196 -134 351 -272 600 -18 33 -60 112 -93 175 -33 63
-80 149 -105 190 -47 78 -115 205 -115 215 0 3 15 -2 33 -11 19 -11 71 -20
132 -25z"/>
<path d="M4995 6093 c-66 -6 -196 -34 -260 -55 -200 -68 -315 -180 -411 -398
-79 -181 -103 -332 -63 -396 42 -69 190 -125 271 -104 159 43 397 262 539 498
40 66 66 99 72 93 5 -5 9 -54 8 -108 -3 -160 33 -298 97 -370 38 -44 202 -125
244 -121 27 2 34 8 36 29 4 37 -26 69 -107 114 -40 21 -76 44 -81 50 -5 6 -16
38 -25 71 -19 74 -24 521 -6 568 14 35 0 87 -32 116 -18 18 -34 20 -131 18
-61 -1 -129 -3 -151 -5z m152 -149 c2 -6 -25 -40 -59 -75 -35 -35 -100 -109
-145 -164 -158 -193 -281 -306 -415 -379 -63 -35 -130 -48 -142 -27 -10 15 14
109 51 206 95 244 183 343 354 393 182 54 347 75 356 46z"/>
<path d="M19635 5786 c-73 -23 -139 -63 -206 -124 -69 -64 -149 -173 -149
-203 0 -12 -27 -37 -72 -68 -181 -123 -371 -388 -456 -636 -53 -154 -63 -263
-37 -395 29 -148 59 -221 126 -301 119 -142 373 -170 598 -64 226 106 446 304
567 511 104 178 146 547 90 795 -33 143 -49 189 -103 288 -55 101 -113 167
-168 192 -47 22 -131 24 -190 5z m142 -107 c30 -11 73 -47 73 -61 0 -4 -36 -8
-80 -8 -84 0 -159 -20 -252 -66 -47 -24 -98 -32 -98 -15 0 23 92 90 155 114
39 14 81 31 95 36 34 13 73 13 107 0z m70 -200 c48 -18 101 -77 113 -128 14
-59 49 -364 43 -373 -7 -13 -46 -9 -99 11 -28 11 -132 36 -230 56 -99 20 -187
38 -196 41 -36 11 -15 68 70 188 17 26 32 51 32 55 0 5 7 14 15 21 23 19 18
49 -14 81 -16 16 -25 31 -20 35 31 19 244 29 286 13z m-363 -67 c2 -4 -17 -45
-43 -90 -30 -50 -53 -105 -60 -140 -6 -32 -16 -63 -22 -69 -7 -7 -47 -9 -112
-6 -95 5 -104 4 -137 -19 -41 -28 -49 -57 -22 -81 15 -14 50 -20 153 -27 135
-10 160 -14 259 -43 71 -21 305 -64 396 -73 105 -9 104 -8 69 -111 -41 -122
-108 -262 -147 -310 -97 -116 -291 -264 -416 -318 -128 -56 -300 -63 -404 -17
-97 42 -158 192 -158 382 0 167 44 320 138 480 105 179 136 212 390 415 42 34
103 48 116 27z"/>
<path d="M19334 4952 c-25 -16 -53 -114 -74 -257 -36 -249 -62 -361 -95 -412
-32 -48 -13 -93 38 -93 91 0 119 81 198 575 13 86 11 162 -7 179 -16 17 -42
20 -60 8z"/>
<path d="M20772 5734 c-29 -20 -28 -48 4 -137 25 -68 27 -82 26 -245 -1 -95
-6 -208 -11 -250 -36 -284 -53 -404 -66 -455 -8 -32 -19 -98 -25 -145 -12
-109 -45 -237 -70 -272 -18 -25 -34 -63 -60 -145 -14 -44 -25 -55 -56 -55 -12
0 -32 -9 -45 -19 -21 -17 -22 -21 -10 -44 55 -102 392 -30 647 138 95 62 187
142 224 195 45 62 80 128 80 151 0 40 -38 87 -85 105 -99 37 -307 -18 -464
-123 -37 -25 -91 -31 -91 -10 0 8 14 56 30 108 35 108 71 325 99 599 23 220
13 485 -21 573 -18 47 -64 60 -106 31z m493 -1318 c18 -13 18 -14 -6 -43 -74
-91 -458 -313 -542 -313 -40 0 -43 22 -13 85 53 107 154 177 366 251 101 36
165 42 195 20z"/>
<path d="M17987 5196 c-15 -16 -32 -55 -41 -98 -8 -33 -33 -36 -92 -12 -62 26
-156 15 -248 -29 -150 -71 -267 -229 -317 -426 -30 -118 -25 -290 9 -339 29
-41 65 -59 130 -68 41 -5 59 -2 95 15 58 28 132 93 165 145 84 134 193 352
217 436 4 14 14 33 21 44 14 21 0 56 -23 56 -22 0 -93 -71 -120 -119 -130
-228 -232 -386 -263 -407 -34 -24 -84 -31 -107 -16 -22 14 -34 66 -28 117 32
267 140 421 331 470 66 17 153 8 183 -19 15 -14 20 -16 40 -16 14 0 22 -61 30
-240 12 -245 62 -474 117 -533 34 -37 78 -34 108 6 l21 28 -27 47 c-37 66 -57
170 -68 352 -5 85 -14 200 -20 255 -6 55 -8 146 -4 202 l6 102 -30 31 c-33 33
-62 38 -85 16z"/>
<path d="M4120 3893 c-23 -29 -23 -40 0 -148 15 -69 4 -315 -25 -560 -13 -110
-27 -240 -31 -290 l-6 -90 32 -30 c30 -28 36 -30 105 -28 95 2 117 14 243 134
56 54 133 118 172 144 85 56 210 115 245 115 23 0 26 -4 23 -27 -2 -19 -11
-29 -33 -36 -44 -15 -123 -67 -280 -187 -198 -150 -213 -159 -391 -250 -140
-71 -214 -122 -214 -149 0 -22 44 -45 95 -49 51 -4 60 -1 127 39 40 24 94 58
119 75 25 17 54 34 66 38 11 4 28 15 38 26 10 11 24 20 30 20 7 0 18 7 25 15
15 18 98 65 114 65 20 0 94 39 103 53 4 8 22 22 38 32 98 60 147 94 205 143
108 92 170 155 170 174 0 25 -47 98 -68 105 -9 3 -30 16 -47 27 -24 17 -44 21
-105 20 -87 -2 -137 -17 -275 -84 -117 -57 -246 -156 -305 -234 -49 -65 -80
-74 -80 -25 0 17 9 74 19 127 19 92 28 170 51 416 21 229 6 391 -40 428 -35
28 -94 24 -120 -9z"/>
<path d="M7335 3409 c-88 -4 -360 -13 -605 -18 -245 -6 -488 -15 -540 -20 -57
-6 -128 -6 -180 0 -118 12 -136 11 -154 -7 -24 -24 -21 -81 7 -98 33 -21 275
-30 417 -16 63 7 275 13 470 15 195 2 468 9 605 15 251 13 539 8 730 -10 55
-5 154 -14 220 -20 111 -10 258 -27 575 -66 69 -9 170 -16 225 -17 85 -2 106
1 140 19 117 63 90 143 -39 113 -84 -20 -230 -6 -771 71 -38 5 -192 19 -342
30 -277 20 -474 23 -758 9z"/>
<path d="M24460 991 c0 -6 5 -13 10 -16 6 -3 10 1 10 9 0 9 -4 16 -10 16 -5 0
-10 -4 -10 -9z"/>
<path d="M24404 59 c3 -17 6 -38 6 -45 0 -8 9 -14 20 -14 15 0 20 7 20 26 0
34 -17 64 -37 64 -12 0 -14 -7 -9 -31z"/>
</g>
</svg>
