<?xml version="1.0" standalone="no"?>
<!DOCTYPE svg PUBLIC "-//W3C//DTD SVG 20010904//EN"
 "http://www.w3.org/TR/2001/REC-SVG-20010904/DTD/svg10.dtd">
<svg version="1.0" xmlns="http://www.w3.org/2000/svg"
 width="2448.000000pt" height="3264.000000pt" viewBox="0 0 2448.000000 3264.000000"
 preserveAspectRatio="xMidYMid meet">
<metadata>
Created by potrace 1.12, written by Peter Selinger 2001-2015
</metadata>
<g transform="translate(0.000000,3264.000000) scale(0.100000,-0.100000)"
fill="#000000" stroke="none">
<path d="M21210 32573 c0 -17 6 -23 23 -23 16 0 18 3 8 9 -7 5 -17 15 -22 22
-6 10 -9 8 -9 -8z"/>
<path d="M21303 32578 c-28 -13 -30 -28 -4 -28 30 0 51 11 51 26 0 16 -16 17
-47 2z"/>
<path d="M21175 32409 c-4 -6 -5 -13 -2 -16 7 -7 27 6 27 18 0 12 -17 12 -25
-2z"/>
<path d="M21065 32070 c-11 -17 5 -32 21 -19 8 6 14 15 14 20 0 12 -27 11 -35
-1z"/>
<path d="M6080 31570 c0 -5 5 -10 11 -10 5 0 7 5 4 10 -3 6 -8 10 -11 10 -2 0
-4 -4 -4 -10z"/>
<path d="M16727 31544 c-16 -16 -5 -25 26 -22 17 2 31 8 30 13 -3 12 -46 19
-56 9z"/>
<path d="M22540 31491 c0 -5 10 -11 23 -15 35 -9 40 -7 27 9 -13 16 -50 21
-50 6z"/>
<path d="M22632 31469 c5 -16 68 -25 68 -10 0 6 -6 11 -12 11 -7 0 -24 3 -37
7 -18 4 -23 2 -19 -8z"/>
<path d="M23033 31455 c-3 -9 -3 -19 1 -22 7 -7 36 16 36 28 0 15 -30 10 -37
-6z"/>
<path d="M6142 30518 c-71 -97 -108 -160 -207 -358 -198 -396 -287 -602 -288
-670 -1 -53 7 -70 32 -70 31 0 47 32 59 114 12 80 30 124 143 365 33 67 59
124 59 126 0 2 30 65 66 141 36 76 72 154 80 174 17 40 76 130 85 130 16 0 21
-51 29 -285 5 -137 16 -286 24 -330 17 -94 65 -232 97 -276 18 -26 20 -35 11
-50 -7 -11 -18 -28 -24 -39 -10 -16 -10 -23 4 -37 30 -29 59 -4 112 98 27 52
57 105 66 119 34 50 148 278 214 430 68 158 118 250 136 250 13 0 13 -115 0
-195 -15 -97 -31 -360 -31 -497 0 -141 12 -185 56 -214 39 -25 52 -7 35 48 -7
25 -12 92 -12 163 0 130 37 616 53 698 12 68 11 131 -3 145 -58 58 -152 -77
-387 -554 -102 -207 -166 -324 -174 -322 -17 6 -52 139 -82 313 -4 22 -10 159
-14 305 -8 298 -13 323 -68 328 -28 3 -36 -3 -71 -50z"/>
<path d="M16220 30515 c-9 -11 -9 -18 3 -35 17 -24 27 -16 27 22 0 31 -11 36
-30 13z"/>
<path d="M8219 30442 c-47 -30 -165 -164 -228 -259 -99 -150 -211 -461 -211
-588 0 -39 22 -65 55 -65 33 0 45 27 45 100 0 115 66 358 127 468 35 64 120
189 134 197 21 14 22 -6 1 -45 -148 -278 -166 -334 -119 -379 20 -18 43 -23
148 -32 153 -14 232 -40 237 -80 2 -21 -6 -35 -39 -62 -44 -38 -360 -229 -444
-269 -66 -31 -67 -54 -3 -51 37 1 73 14 155 58 116 61 317 183 371 224 34 27
62 69 62 95 0 23 -51 77 -87 93 -45 18 -178 43 -234 43 -59 0 -107 17 -114 40
-9 28 59 179 142 315 7 11 15 27 19 35 4 8 22 39 40 67 49 76 53 100 19 113
-14 5 -27 10 -29 10 -1 0 -22 -13 -47 -28z"/>
<path d="M7535 30350 c-108 -10 -158 -23 -278 -71 -154 -61 -194 -113 -117
-151 29 -15 52 -17 145 -12 131 7 323 -9 365 -31 61 -32 59 -82 -8 -156 -39
-43 -268 -226 -430 -343 -73 -53 -88 -86 -39 -86 25 0 82 38 302 201 216 160
283 232 300 320 5 29 2 41 -19 66 -50 59 -166 83 -403 82 -170 0 -186 8 -100
52 98 50 269 84 349 69 57 -11 88 0 88 30 0 10 -3 21 -7 23 -19 11 -74 14
-148 7z"/>
<path d="M20075 30310 c-3 -5 1 -10 10 -10 9 0 13 5 10 10 -3 6 -8 10 -10 10
-2 0 -7 -4 -10 -10z"/>
<path d="M19995 30220 c3 -5 8 -10 11 -10 2 0 4 5 4 10 0 6 -5 10 -11 10 -5 0
-7 -4 -4 -10z"/>
<path d="M9108 30079 c-38 -9 -259 -83 -293 -98 -11 -5 -28 -12 -37 -15 -21
-6 -24 -39 -5 -54 6 -5 46 -20 87 -32 101 -30 184 -75 226 -124 81 -94 40
-119 -303 -182 -208 -38 -441 -88 -449 -97 -4 -3 -3 -11 1 -18 10 -15 82 -8
325 31 371 60 470 84 517 125 23 19 28 32 28 67 0 83 -86 161 -233 214 -88 31
-101 39 -85 55 6 6 88 30 184 53 96 24 175 49 177 56 10 28 -60 38 -140 19z"/>
<path d="M13781 29376 c-8 -10 -8 -40 -1 -112 14 -132 32 -744 25 -814 -3 -30
-1 -179 4 -331 19 -499 24 -716 17 -742 l-6 -26 -658 0 c-361 0 -701 -3 -754
-7 -61 -4 -98 -3 -98 3 0 5 33 32 73 60 85 60 127 100 168 165 43 66 48 112
18 144 -99 106 -300 129 -457 51 -39 -19 -73 -32 -77 -29 -14 14 -1 60 25 92
82 95 -18 197 -220 223 -49 6 -90 16 -90 21 0 6 25 47 55 92 124 184 180 399
121 459 -49 49 -184 47 -290 -5 -164 -79 -318 -294 -357 -495 -16 -84 -13
-349 6 -455 19 -105 34 -142 69 -165 40 -27 70 2 63 60 -2 18 4 20 78 21 92 2
166 20 283 70 46 19 90 33 96 31 10 -4 8 -27 -10 -99 -28 -110 -29 -146 -9
-195 8 -19 15 -39 15 -43 0 -4 -145 -10 -322 -14 -178 -3 -390 -9 -473 -11
-82 -3 -289 -8 -460 -11 -170 -4 -328 -7 -350 -8 l-40 -1 -3 239 c-1 157 -6
244 -13 253 -6 7 -26 13 -44 13 -28 0 -33 4 -44 39 -25 84 -153 169 -360 240
-57 20 -106 41 -108 47 -2 6 18 19 44 29 73 27 183 89 232 131 104 90 128 182
71 280 -60 105 -159 157 -300 157 -127 0 -233 -46 -328 -141 -75 -75 -118
-151 -171 -302 -19 -55 -25 -220 -12 -385 15 -205 25 -234 78 -235 36 0 41 25
25 118 -20 117 -22 428 -3 502 26 106 76 197 145 266 89 89 155 119 261 119
62 0 89 -5 120 -22 42 -22 87 -62 112 -100 23 -35 20 -104 -8 -152 -42 -75
-216 -187 -357 -230 -71 -21 -95 -42 -74 -63 5 -5 50 -18 99 -28 149 -30 361
-123 432 -189 59 -55 28 -149 -77 -238 -103 -88 -168 -123 -288 -157 -199 -55
-276 -57 -326 -9 -23 22 -32 25 -46 17 -24 -16 -27 -57 -4 -77 29 -26 119 -37
214 -27 257 29 423 106 549 254 35 41 68 71 72 67 11 -11 30 -327 22 -379 l-6
-44 -92 2 c-51 2 -324 -1 -607 -5 -283 -4 -877 -9 -1320 -11 -1042 -5 -1647
-12 -1737 -20 -91 -8 -92 -6 -70 135 10 58 20 187 23 286 3 99 10 211 15 249
8 59 7 71 -7 87 -23 25 -40 24 -69 -6 -25 -24 -25 -25 -25 -227 0 -230 -18
-520 -34 -530 -11 -7 -182 -9 -966 -10 -289 0 -579 3 -645 7 -275 16 -433 21
-671 20 -262 0 -284 -4 -284 -44 0 -14 27 -16 258 -18 141 -1 367 -7 502 -13
203 -10 1110 -13 1685 -6 l110 1 5 -35 c4 -29 10 -36 31 -38 23 -3 27 1 35 40
l9 43 230 6 c127 4 680 10 1230 14 550 4 1097 9 1215 10 118 2 431 4 695 6
l480 4 5 -30 c9 -52 62 -43 73 13 l6 27 333 3 c183 1 551 9 818 18 267 8 929
18 1473 21 l987 5 0 -63 c0 -35 -5 -143 -11 -239 -6 -96 -12 -368 -14 -605 -3
-342 -9 -501 -30 -780 -22 -290 -26 -401 -24 -650 4 -361 3 -894 -2 -1655 -2
-445 1 -637 15 -904 9 -186 15 -345 12 -353 -4 -10 -14 -13 -33 -9 -32 7 -252
21 -553 36 -113 5 -304 15 -425 21 -325 16 -336 16 -520 23 -93 4 -228 11
-300 17 -71 5 -188 12 -260 15 -253 10 -542 24 -700 34 -352 22 -858 50 -990
55 -77 3 -162 8 -190 10 -27 3 -187 10 -355 15 -288 9 -472 13 -1120 25 -441
8 -741 16 -805 21 -33 3 -568 7 -1190 10 -621 2 -1278 9 -1460 15 -782 26
-1716 21 -2000 -12 -104 -11 -136 -30 -115 -69 13 -24 31 -24 142 -1 129 28
368 36 998 35 355 0 663 -4 685 -8 22 -3 681 -11 1465 -16 784 -5 1450 -11
1480 -14 30 -2 190 -7 355 -11 165 -3 399 -7 520 -10 121 -2 357 -7 525 -10
326 -6 939 -29 1235 -46 99 -5 261 -14 360 -19 99 -6 295 -17 435 -25 317 -19
561 -32 845 -45 121 -6 522 -26 890 -46 369 -19 763 -38 877 -41 l206 -6 6
-81 c3 -45 10 -297 16 -561 6 -264 15 -583 21 -710 14 -335 12 -892 -5 -1185
-33 -562 -38 -755 -33 -1193 3 -243 10 -534 16 -647 22 -440 22 -538 5 -565
-14 -21 -14 -28 -3 -42 12 -13 14 -126 14 -637 0 -617 2 -681 40 -1061 17
-170 51 -570 60 -690 48 -689 75 -959 149 -1455 46 -309 61 -430 86 -700 47
-508 77 -790 107 -1017 9 -67 13 -128 10 -137 -5 -13 -17 -16 -54 -12 -27 2
-75 7 -108 10 -33 3 -130 8 -216 11 -85 3 -211 9 -280 15 -578 44 -1735 55
-2734 25 -88 -3 -389 -12 -670 -20 -280 -8 -589 -17 -685 -20 -623 -19 -1097
-27 -2110 -35 -630 -5 -1228 -14 -1330 -19 -102 -5 -309 -15 -460 -21 -551
-22 -949 -41 -1137 -55 -191 -14 -329 -12 -391 7 -30 9 -32 12 -26 44 9 47
-11 52 -77 17 -43 -23 -54 -33 -54 -53 0 -21 11 -30 60 -55 60 -30 61 -30 230
-30 94 0 247 6 340 13 94 7 271 17 394 22 123 5 267 12 320 15 104 6 656 29
1056 45 138 5 616 10 1064 10 448 0 838 2 865 5 28 2 218 7 421 10 372 5 1338
30 1580 39 72 3 218 8 325 11 107 3 330 10 495 16 323 11 1359 14 1620 5 195
-7 816 -23 1208 -32 158 -3 287 -10 287 -14 0 -20 -54 -24 -325 -27 -159 -2
-296 -6 -304 -8 -12 -5 -12 -8 1 -21 31 -31 388 -45 563 -22 50 6 104 12 120
12 l30 1 7 -145 c4 -80 11 -250 17 -379 8 -189 13 -237 25 -250 34 -34 37 -3
26 280 -5 151 -15 324 -21 386 -14 130 -11 138 54 148 23 4 74 19 112 35 131
53 407 113 607 132 269 25 869 -40 1238 -134 85 -22 198 -48 250 -59 52 -10
115 -23 140 -28 25 -6 63 -13 85 -17 22 -3 186 -34 365 -70 179 -35 386 -73
460 -84 285 -43 401 -62 580 -96 413 -78 540 -108 665 -154 97 -36 103 -36
115 -6 9 25 13 27 52 21 24 -3 282 -34 573 -70 470 -57 768 -100 860 -124 18
-4 31 -15 33 -27 6 -31 18 -37 66 -30 58 9 96 37 78 59 -20 24 -206 68 -437
103 -133 20 -699 93 -850 109 -342 37 -499 59 -585 80 -52 14 -142 31 -200 40
-108 15 -164 25 -425 75 -82 16 -168 31 -190 34 -297 44 -430 67 -715 122
-184 35 -405 78 -490 95 -85 16 -252 54 -370 84 -253 64 -383 85 -735 120
-408 41 -576 35 -894 -36 -74 -16 -189 -47 -255 -68 -139 -45 -177 -53 -196
-41 -9 5 -16 42 -21 112 -4 56 -14 159 -23 228 -18 141 -62 559 -76 725 -29
330 -50 498 -121 985 -50 343 -71 549 -104 1000 -14 195 -34 456 -45 580 -62
702 -70 829 -73 1130 -1 124 -1 381 1 573 2 398 -9 362 105 327 68 -21 231
-53 359 -70 63 -8 317 -26 638 -45 202 -12 503 -36 690 -55 198 -20 765 -69
1100 -95 351 -27 771 -48 1195 -60 523 -14 862 -27 975 -36 69 -5 188 -14 265
-19 272 -18 861 -97 1129 -150 120 -24 176 -26 176 -5 0 21 -29 33 -133 56
-193 41 -345 64 -722 109 -187 22 -383 47 -435 55 -160 25 -475 45 -609 39
-69 -3 -296 -1 -505 5 -210 6 -464 14 -566 16 -265 8 -648 33 -1055 70 -88 8
-223 19 -300 25 -77 6 -225 19 -330 30 -448 45 -679 63 -1180 90 -231 13 -418
36 -454 55 -14 8 -20 14 -12 15 8 0 11 3 8 7 -8 7 -16 8 -121 17 -75 6 -183
31 -201 46 -8 7 -14 90 -19 262 -4 139 -11 330 -16 423 -27 477 -21 901 25
1727 17 309 19 565 5 938 -14 397 -42 1334 -44 1530 -1 35 2 44 14 41 8 -2 67
-4 130 -6 164 -2 387 -17 400 -25 9 -5 -1 -48 -34 -148 -89 -271 -161 -649
-200 -1042 -22 -213 -30 -670 -17 -910 6 -113 16 -324 21 -470 10 -249 33
-500 65 -705 47 -296 53 -455 29 -760 -17 -216 -14 -387 11 -560 8 -55 15
-104 15 -109 0 -5 -53 -7 -125 -3 -112 5 -127 4 -147 -13 -19 -15 -21 -22 -12
-37 10 -15 28 -18 149 -19 l138 -1 27 -33 c31 -38 54 -36 70 6 10 26 11 26 88
20 42 -3 140 -8 217 -12 159 -6 413 -26 622 -49 78 -8 312 -28 520 -45 208
-16 441 -37 518 -45 190 -20 378 -20 395 0 16 20 14 127 -5 265 -71 502 -63
742 50 1640 24 190 60 482 80 650 19 168 40 339 45 380 21 162 40 416 50 650
15 380 30 545 80 875 36 239 33 253 -85 316 -90 49 -214 83 -415 114 -269 42
-268 42 40 44 313 2 627 16 1075 51 558 43 905 56 1575 59 381 2 854 -11 1125
-29 292 -21 657 -65 794 -96 67 -16 91 -13 91 9 0 60 -433 122 -1105 159 -287
16 -1519 15 -1830 -1 -250 -13 -748 -47 -905 -61 -237 -22 -493 -32 -1010 -40
-444 -6 -576 -5 -710 7 -147 13 -973 22 -1265 15 -44 -2 -129 5 -190 14 -60 9
-171 18 -246 21 l-136 5 -14 327 c-8 179 -14 547 -14 816 1 270 1 729 1 1020
0 292 1 656 1 810 0 200 7 355 22 540 17 193 25 396 31 790 5 292 14 616 19
720 6 105 10 194 11 199 0 11 1010 1 1467 -14 314 -10 787 -35 883 -46 96 -12
27 -21 -212 -28 -213 -6 -666 -29 -803 -41 -532 -46 -673 -79 -711 -170 -8
-19 -21 -110 -29 -203 -20 -227 -51 -501 -80 -707 -43 -300 -70 -563 -95 -910
-5 -82 -15 -213 -21 -290 -7 -77 -13 -392 -14 -700 -3 -580 -6 -661 -31 -905
-33 -331 -52 -457 -98 -665 -19 -82 -39 -181 -46 -220 -6 -38 -19 -84 -27
-102 -30 -61 21 -167 63 -132 8 6 14 21 14 34 0 46 24 53 220 69 303 25 554
36 955 43 360 5 496 2 950 -27 139 -8 140 -8 161 15 43 47 51 155 46 625 -3
259 0 297 43 635 14 105 32 267 40 360 26 292 45 455 71 610 25 148 75 405 94
475 42 160 84 419 120 735 37 321 70 541 109 725 55 251 67 553 27 663 -10 27
-15 51 -12 55 3 3 117 -2 254 -12 234 -16 457 -29 727 -42 106 -6 122 -9 137
-28 15 -19 20 -20 62 -8 26 6 92 12 149 13 56 0 140 5 187 9 47 5 425 16 840
24 415 8 838 20 940 26 608 36 1136 46 1510 29 187 -9 518 -34 638 -50 99 -12
202 -12 202 2 0 35 -208 64 -720 101 -260 18 -977 16 -1310 -5 -513 -32 -644
-36 -1170 -42 -289 -3 -624 -11 -745 -18 -121 -6 -274 -11 -340 -9 -254 6
-1502 75 -2170 121 -558 38 -1276 63 -1875 65 l-395 1 -7 275 c-3 151 -11 552
-17 890 -6 338 -15 663 -19 721 -11 131 -30 173 -61 135z m-1936 -783 c14 -13
15 -27 10 -77 -14 -124 -75 -263 -174 -395 -67 -89 -56 -106 69 -115 133 -9
186 -23 233 -64 68 -60 -52 -171 -255 -235 -323 -104 -329 -104 -348 -39 -22
76 -34 278 -23 385 25 236 167 462 335 530 74 30 130 34 153 10z m557 -858
c25 -4 46 -17 67 -40 28 -32 29 -37 19 -67 -19 -56 -142 -169 -231 -212 -72
-35 -199 -75 -239 -76 -29 0 -77 49 -84 85 -8 46 21 175 49 215 18 26 39 37
112 61 137 44 200 51 307 34z m4471 -564 c33 -13 45 -54 50 -166 6 -150 -12
-324 -58 -563 -47 -246 -60 -335 -100 -687 -34 -297 -78 -555 -145 -843 -46
-193 -104 -555 -120 -742 -32 -375 -36 -411 -77 -705 -25 -177 -27 -217 -28
-590 -2 -388 -5 -432 -27 -504 l-10 -34 -107 7 c-58 3 -178 11 -266 16 -209
14 -889 14 -1080 1 -82 -6 -193 -13 -245 -16 -161 -10 -474 -36 -487 -40 -24
-8 -21 17 28 237 44 200 62 306 83 493 46 397 49 458 51 1025 2 571 3 595 36
1060 19 265 69 756 89 870 16 89 88 639 95 720 13 158 27 256 41 277 38 60
180 87 629 122 138 11 336 25 440 31 105 5 222 12 260 15 39 3 232 8 430 11
198 4 362 8 364 10 9 8 131 4 154 -5z m-1708 -5227 c581 -6 685 -10 995 -44
325 -35 573 -87 707 -150 110 -51 116 -62 97 -170 -33 -193 -74 -561 -84 -766
-15 -311 -29 -542 -41 -664 -18 -192 -79 -693 -144 -1180 -46 -347 -75 -600
-95 -827 -15 -163 -7 -550 15 -753 23 -214 29 -310 19 -320 -6 -6 -86 -2 -199
10 -105 11 -305 29 -445 40 -420 34 -593 49 -835 75 -241 25 -552 45 -717 45
-57 0 -99 4 -103 11 -4 5 -14 103 -22 217 -14 190 -14 228 2 472 20 300 14
448 -30 750 -46 317 -56 427 -65 710 -5 157 -14 389 -21 515 -14 276 -6 706
16 895 54 459 139 869 228 1099 l20 54 71 -7 c39 -3 323 -8 631 -12z"/>
<path d="M15472 26839 c-144 -17 -310 -102 -359 -186 -24 -41 -28 -60 -31
-143 -9 -213 70 -352 242 -430 103 -47 195 -64 336 -64 107 1 138 5 214 28
167 50 340 158 401 247 13 21 32 65 42 99 14 53 15 68 4 108 -42 158 -164 260
-356 297 -44 8 -114 15 -155 14 -41 -1 -100 6 -130 14 -78 22 -125 25 -208 16z
m132 -55 c9 -3 16 -15 16 -25 0 -28 23 -33 90 -20 66 13 84 8 132 -36 34 -32
63 -27 63 11 0 38 14 41 77 21 143 -47 226 -116 253 -210 40 -137 -38 -245
-250 -350 -169 -83 -338 -111 -490 -82 -234 45 -319 131 -332 339 -9 124 23
208 98 264 76 56 286 110 343 88z"/>
<path d="M15117 25425 c-19 -19 -32 -218 -32 -505 0 -190 2 -219 18 -243 20
-31 47 -36 48 -9 0 9 0 77 -1 150 -2 179 25 500 46 556 3 9 -4 25 -20 41 -29
29 -39 31 -59 10z"/>
<path d="M14880 24385 c-16 -20 -23 -354 -13 -565 7 -130 10 -145 27 -148 10
-2 22 2 27 10 5 7 9 119 9 248 0 171 4 261 17 334 l16 99 -23 19 c-27 22 -44
23 -60 3z"/>
<path d="M14750 23154 c-6 -14 -10 -158 -10 -335 0 -299 1 -309 19 -309 11 0
23 5 27 11 13 21 36 612 25 636 -14 31 -49 30 -61 -3z"/>
<path d="M14930 21819 c-62 -11 -144 -46 -194 -84 -102 -78 -145 -296 -85
-435 51 -120 162 -172 364 -173 240 0 497 91 552 196 24 48 13 143 -26 211
-22 39 -31 69 -31 99 0 57 -22 85 -97 124 -121 63 -320 89 -483 62z m349 -84
c73 -16 138 -42 128 -52 -3 -3 -32 3 -64 12 -45 14 -80 16 -157 12 -96 -6
-126 -16 -126 -43 0 -34 30 -44 128 -44 53 0 114 -5 135 -11 124 -34 221 -193
161 -261 -31 -34 -87 -65 -175 -96 -121 -42 -208 -55 -340 -50 -95 3 -123 8
-170 30 -47 21 -60 33 -78 71 -56 115 -25 319 55 372 15 9 63 30 108 45 70 25
97 29 201 29 72 1 149 -5 194 -14z"/>
<path d="M15195 20850 c-191 -14 -342 -72 -454 -176 -135 -126 -189 -285 -146
-431 19 -65 88 -131 171 -164 54 -22 73 -24 219 -23 115 0 180 5 230 17 213
52 363 151 416 273 37 87 44 163 25 261 -21 106 -47 156 -104 200 -71 54 -119
60 -357 43z m301 -89 c74 -34 104 -101 104 -235 0 -141 -76 -255 -214 -321
-247 -118 -627 -106 -712 22 -54 82 -30 238 52 336 72 87 225 187 308 202 l38
8 -17 -27 c-16 -24 -16 -26 0 -32 10 -4 43 1 74 11 31 9 69 21 85 26 16 5 51
9 77 9 26 0 51 5 54 10 10 17 107 11 151 -9z"/>
<path d="M15034 19686 c-17 -13 -19 -29 -22 -138 -4 -129 7 -257 39 -472 10
-71 19 -159 19 -195 0 -84 8 -111 30 -111 10 0 20 10 24 23 8 31 6 158 -3 242
-5 39 -16 135 -26 215 -16 138 -16 193 1 356 5 49 3 63 -11 77 -20 21 -26 21
-51 3z"/>
<path d="M14926 18188 c-29 -48 -44 -369 -26 -559 20 -201 49 -309 85 -309 24
0 26 35 9 142 -9 58 -18 194 -21 311 -5 194 -4 214 18 297 18 73 20 94 11 115
-15 32 -56 34 -76 3z"/>
<path d="M6635 29186 c-120 -124 -307 -225 -493 -266 -178 -40 -238 -23 -369
100 -117 112 -161 125 -272 87 -187 -65 -423 -247 -546 -422 -65 -93 -77 -147
-35 -158 26 -7 33 0 72 84 40 85 128 186 238 274 97 77 244 162 304 176 69 15
98 1 189 -87 76 -74 157 -118 233 -128 96 -12 272 25 402 85 35 16 66 29 69
29 16 0 137 81 198 132 65 55 71 58 83 41 7 -10 36 -52 65 -93 59 -84 126
-140 207 -172 45 -18 77 -22 175 -22 114 -1 125 1 220 35 255 93 427 150 494
164 136 28 312 15 442 -34 127 -48 285 -178 324 -266 29 -65 47 -80 74 -65 85
45 -113 268 -325 366 -53 25 -114 43 -184 55 -236 41 -320 25 -872 -169 -120
-42 -160 -47 -243 -27 -139 32 -215 99 -296 263 -53 105 -68 107 -154 18z"/>
<path d="M21524 29092 c-29 -4 -56 -35 -48 -56 6 -17 17 -19 71 -16 55 3 135
-41 175 -96 58 -81 80 -168 80 -318 -2 -260 -116 -523 -319 -731 -123 -127
-278 -240 -438 -320 -109 -55 -130 -82 -60 -78 58 4 244 97 344 172 221 166
333 297 441 516 62 127 90 230 100 374 15 217 -21 353 -120 452 -30 31 -70 64
-88 73 -37 19 -106 33 -138 28z"/>
<path d="M20860 28994 c-89 -17 -212 -76 -299 -141 -64 -50 -160 -140 -198
-189 -109 -139 -193 -398 -193 -598 0 -91 28 -284 46 -313 7 -12 24 -23 36
-25 20 -3 24 -12 34 -69 12 -77 42 -130 87 -158 123 -75 353 -65 509 22 79 44
172 141 214 224 26 52 29 68 29 153 0 86 -3 101 -31 160 -60 125 -171 235
-319 314 -96 52 -104 60 -80 86 10 11 74 50 142 86 192 102 293 210 293 316 0
46 -35 90 -91 112 -43 17 -137 28 -179 20z m145 -69 c119 -57 19 -210 -218
-334 -106 -56 -155 -89 -180 -123 l-21 -28 21 -27 c11 -16 56 -48 100 -73 113
-64 159 -99 231 -173 85 -89 117 -159 117 -257 0 -99 -32 -170 -114 -250 -101
-99 -260 -158 -398 -147 -121 9 -172 61 -194 198 -6 35 -15 69 -21 76 -7 9 -4
33 11 82 12 38 21 73 21 78 0 16 -50 34 -75 27 -33 -8 -40 23 -32 136 17 234
90 432 213 576 50 58 177 159 248 197 101 54 226 72 291 42z"/>
<path d="M18196 28727 c-235 -239 -393 -417 -587 -657 -53 -66 -158 -229 -165
-256 -8 -30 2 -44 31 -44 32 0 44 14 101 115 102 182 545 729 712 879 23 21
45 36 48 33 3 -3 -7 -49 -21 -104 -36 -131 -81 -351 -90 -440 -4 -40 -12 -77
-19 -82 -7 -6 -52 -17 -102 -25 -194 -32 -315 -68 -326 -98 -8 -20 2 -38 20
-38 10 0 99 23 199 52 118 34 186 49 193 42 6 -6 6 -41 0 -99 -5 -50 -10 -135
-10 -190 0 -103 7 -125 41 -125 35 0 41 26 44 182 4 185 12 245 34 257 9 5 50
14 90 20 77 10 121 34 87 47 -17 7 -94 0 -148 -12 -26 -6 -28 -4 -28 24 0 51
67 367 112 525 44 159 44 179 -2 185 -20 3 -59 -32 -214 -191z"/>
<path d="M17752 28885 c-35 -15 -310 -183 -407 -248 -252 -169 -408 -364 -489
-608 -43 -132 -49 -293 -14 -384 44 -115 142 -190 239 -183 61 4 58 27 -6 51
-74 27 -114 63 -144 126 -23 50 -26 67 -26 171 1 90 6 132 24 195 41 139 135
306 230 408 119 128 444 342 616 406 61 23 70 30 70 51 0 21 -5 25 -30 27 -16
2 -45 -4 -63 -12z"/>
<path d="M5366 28777 c-74 -97 -173 -436 -211 -726 -23 -173 -27 -195 -37
-207 -4 -6 -36 -22 -71 -34 -91 -33 -117 -61 -81 -91 13 -10 24 -9 66 9 28 12
55 19 59 16 14 -8 10 -42 -11 -124 -11 -41 -20 -89 -20 -106 0 -38 23 -51 55
-30 24 16 26 26 55 226 6 41 16 80 23 87 11 11 356 113 382 113 24 0 33 -26
48 -133 8 -59 21 -114 27 -122 16 -19 44 -19 60 0 13 16 4 92 -26 208 -18 71
-11 83 51 93 24 3 52 12 62 19 17 13 17 14 -1 21 -11 4 -42 3 -70 -3 -31 -7
-55 -7 -62 -2 -7 5 -19 44 -29 87 -84 383 -144 620 -174 688 -25 56 -58 60
-95 11z m40 -124 c9 -20 45 -152 80 -292 36 -141 71 -278 79 -305 8 -27 15
-60 15 -72 0 -25 -21 -34 -125 -54 -33 -7 -100 -23 -148 -37 -109 -31 -114
-28 -99 59 6 35 22 128 36 208 29 167 58 302 88 410 37 136 48 147 74 83z"/>
<path d="M16025 28729 c-71 -4 -161 -13 -199 -20 -38 -6 -86 -11 -108 -11 -26
1 -46 -6 -59 -19 -21 -21 -39 -25 -39 -9 0 17 -33 11 -84 -15 -27 -14 -57 -25
-66 -25 -9 0 -36 -6 -61 -14 -24 -7 -64 -20 -89 -27 -56 -16 -127 -63 -135
-89 -7 -23 10 -60 30 -60 7 0 33 15 57 33 69 52 96 67 163 92 42 16 66 21 71
14 3 -6 -19 -61 -49 -122 -30 -62 -58 -123 -62 -137 -3 -14 -15 -46 -27 -71
-16 -37 -29 -50 -59 -62 -47 -19 -52 -51 -14 -82 l26 -20 -16 -75 c-18 -80
-32 -350 -21 -394 4 -18 13 -26 29 -26 37 0 47 19 47 91 0 92 18 313 31 377 6
30 17 56 27 61 24 12 292 48 507 67 195 17 235 24 235 39 1 15 -83 24 -170 19
-173 -10 -342 -26 -439 -40 -124 -19 -132 -15 -106 53 40 109 95 222 147 305
32 52 35 53 180 82 98 20 133 25 238 31 198 13 307 24 335 35 76 29 -45 36
-320 19z"/>
<path d="M19523 28637 c-130 -108 -178 -137 -348 -212 -22 -10 -67 -30 -100
-45 -33 -16 -92 -39 -132 -53 -86 -31 -264 -119 -281 -140 -15 -18 -6 -44 19
-57 10 -6 48 -17 86 -25 37 -8 93 -22 123 -31 30 -9 66 -18 80 -21 42 -8 250
-73 345 -108 283 -102 399 -128 471 -105 53 17 67 29 53 46 -8 10 -32 12 -92
8 -88 -6 -110 -1 -287 66 -113 43 -374 128 -430 141 -46 10 -117 30 -202 56
-27 8 -48 19 -48 24 0 6 39 28 88 50 48 22 110 51 137 64 28 13 79 33 114 45
35 11 73 27 85 35 11 7 46 23 76 35 30 12 70 33 88 46 17 14 48 32 67 40 37
15 184 113 223 147 27 25 28 36 5 53 -31 23 -49 16 -140 -59z"/>
<path d="M7700 28519 c-19 -7 -49 -50 -113 -162 -48 -85 -87 -157 -87 -160 0
-3 -17 -37 -37 -74 -72 -131 -274 -568 -271 -588 3 -23 37 -31 66 -16 12 6 36
53 62 118 42 106 334 718 352 738 13 14 23 -6 37 -73 7 -31 26 -114 43 -185
16 -70 28 -133 25 -141 -3 -7 -34 -20 -70 -29 -104 -25 -139 -43 -135 -68 6
-44 30 -45 115 -5 44 21 88 36 98 34 12 -2 29 -41 61 -137 53 -162 65 -183
102 -179 16 2 28 10 30 20 2 9 -17 72 -42 139 -26 66 -49 138 -52 159 l-6 39
43 11 c158 40 215 63 203 81 -12 20 -94 5 -203 -36 -29 -10 -47 -13 -54 -6
-12 12 -60 231 -83 381 -15 97 -34 151 -52 149 -4 0 -18 -5 -32 -10z"/>
<path d="M2420 28241 c-129 -40 -216 -154 -272 -361 -20 -74 -23 -107 -22
-260 0 -146 4 -189 22 -257 43 -165 82 -224 123 -187 25 23 24 50 -4 88 -48
64 -78 186 -84 348 -6 133 4 214 36 316 54 167 129 244 253 258 45 5 58 2 88
-18 62 -42 98 -155 86 -278 -7 -76 -25 -126 -84 -233 -49 -88 -48 -115 2 -146
17 -11 56 -23 86 -27 133 -16 151 -49 69 -126 -60 -56 -194 -124 -320 -162
-88 -27 -126 -53 -116 -81 8 -19 24 -19 98 0 143 37 339 145 387 213 31 42 69
114 75 142 11 46 -14 62 -119 79 -67 12 -134 41 -134 59 0 5 16 31 35 58 57
80 79 161 79 289 1 94 -3 117 -23 163 -31 68 -76 107 -141 121 -57 12 -84 13
-120 2z"/>
<path d="M8270 27896 c-64 -23 -138 -66 -152 -89 -15 -24 13 -37 68 -31 65 8
67 3 24 -89 -32 -67 -47 -148 -36 -191 9 -38 62 -93 101 -106 47 -15 160 2
224 34 54 28 126 102 147 151 20 48 17 104 -8 181 -26 81 -75 137 -133 153
-66 18 -163 13 -235 -13z m172 -36 c69 -19 128 -121 128 -221 0 -81 -104 -182
-202 -195 -43 -6 -49 -4 -77 24 -25 25 -31 39 -31 74 0 56 38 168 79 232 17
28 31 60 31 73 0 26 15 29 72 13z m-164 -32 c-6 -18 -28 -21 -28 -4 0 9 7 16
16 16 9 0 14 -5 12 -12z"/>
<path d="M528 27897 c-8 -7 -21 -37 -30 -67 -32 -106 -162 -498 -177 -535 -16
-39 -61 -191 -76 -257 -28 -125 -15 -199 34 -183 32 10 45 51 26 78 -30 42
-14 121 81 405 35 107 69 210 74 230 24 96 52 188 59 195 14 14 28 -15 76
-153 26 -74 54 -154 62 -178 8 -23 13 -49 10 -56 -4 -9 -36 -20 -83 -27 -88
-15 -114 -31 -117 -74 -2 -29 0 -30 38 -29 22 1 68 13 102 28 33 14 68 24 76
20 18 -7 27 -48 27 -125 0 -58 12 -81 33 -60 15 15 26 118 17 157 -10 43 0 55
48 61 43 6 79 34 67 52 -3 6 -35 11 -69 11 -70 0 -80 6 -91 60 -4 19 -30 105
-57 190 -82 257 -96 285 -130 257z"/>
<path d="M7680 26930 c-174 -31 -406 -191 -471 -325 -35 -73 -34 -170 4 -247
30 -60 96 -127 158 -158 87 -45 271 -64 376 -39 86 20 197 61 246 90 26 16 50
29 52 29 3 0 39 25 81 56 128 94 171 195 140 322 -35 141 -138 214 -326 229
-44 3 -87 13 -105 23 -38 23 -98 30 -155 20z m166 -126 c23 -15 26 -15 43 0
22 20 71 15 171 -16 107 -34 140 -79 140 -192 0 -57 -4 -69 -33 -108 -75 -98
-273 -215 -413 -244 -153 -32 -349 -6 -428 57 -36 28 -66 90 -73 148 -10 85
52 188 165 274 51 39 113 77 126 77 2 0 12 -7 21 -16 14 -15 21 -15 58 -4 23
8 47 17 52 21 28 21 140 23 171 3z"/>
<path d="M5658 26882 c-155 -82 -293 -216 -358 -347 -49 -99 -59 -166 -36
-255 40 -160 177 -252 371 -251 99 0 168 22 276 87 86 52 255 195 306 260 89
112 83 227 -15 316 -66 60 -129 90 -235 114 -79 18 -106 29 -131 52 -64 61
-98 65 -178 24z m-11 -104 c-2 -25 -7 -25 105 -12 l56 7 50 -47 c56 -52 87
-59 96 -21 9 34 27 32 104 -11 116 -65 189 -163 161 -216 -35 -65 -227 -236
-342 -306 -83 -49 -149 -67 -247 -66 -233 4 -375 194 -287 385 32 70 112 165
206 246 79 67 102 77 98 41z"/>
<path d="M9665 26893 c-11 -2 -40 -12 -65 -22 -25 -11 -67 -27 -95 -36 -40
-14 -69 -37 -147 -117 -137 -140 -150 -183 -94 -305 32 -68 103 -138 174 -171
49 -23 70 -27 152 -27 89 0 100 2 170 37 103 50 218 166 261 263 61 138 -9
295 -163 365 -41 19 -137 25 -193 13z m162 -75 c96 -24 167 -130 144 -214 -25
-91 -158 -236 -258 -281 -82 -37 -207 -39 -273 -4 -56 29 -87 57 -107 95 -48
91 -36 135 64 237 56 58 83 79 110 84 41 7 68 21 104 53 46 41 129 52 216 30z"/>
<path d="M11440 26856 c-117 -26 -274 -140 -326 -236 -29 -54 -27 -208 4 -275
54 -117 134 -161 292 -159 116 1 218 27 345 88 107 52 177 111 210 177 32 61
31 92 0 156 -32 63 -79 100 -146 116 -38 9 -54 19 -65 38 -7 15 -37 42 -67 62
-44 29 -65 36 -122 41 -41 3 -93 0 -125 -8z m220 -75 c39 -28 36 -46 -13 -74
-47 -28 -60 -46 -47 -67 6 -10 20 -8 64 9 65 24 123 27 169 7 46 -19 97 -80
97 -116 0 -119 -311 -280 -542 -280 -130 0 -204 43 -228 130 -36 132 33 274
168 352 112 64 272 83 332 39z"/>
<path d="M2231 26849 c-53 -16 -111 -60 -132 -100 -10 -21 -19 -43 -19 -49 0
-17 29 -11 48 11 82 97 212 109 368 32 102 -50 184 -153 184 -231 0 -62 -23
-104 -91 -166 -139 -125 -329 -171 -475 -116 -118 45 -158 160 -87 248 41 50
177 147 236 167 34 12 47 22 47 36 0 66 -198 -39 -311 -166 -51 -57 -69 -97
-69 -154 0 -40 6 -57 33 -93 83 -109 284 -156 441 -103 70 24 181 93 237 146
94 92 129 214 85 299 -29 53 -125 148 -187 185 -95 55 -223 78 -308 54z"/>
<path d="M2258 25843 c-26 -29 -47 -118 -58 -237 -11 -124 -11 -119 2 -306 6
-91 13 -142 24 -158 35 -53 39 -25 39 254 0 254 1 273 23 341 13 39 22 82 20
95 -4 29 -29 34 -50 11z"/>
<path d="M9470 25721 c-161 -49 -353 -272 -404 -468 -19 -74 -20 -204 -2 -256
53 -147 199 -208 379 -158 163 46 313 158 410 306 84 128 81 330 -6 412 -43
41 -72 55 -114 55 -29 0 -36 4 -45 29 -21 62 -138 104 -218 80z m140 -98 l32
-26 -36 -20 c-19 -11 -38 -27 -41 -35 -11 -30 12 -33 84 -12 94 29 133 22 166
-28 19 -29 25 -52 26 -102 3 -84 -6 -122 -44 -193 -35 -67 -153 -183 -232
-228 -174 -100 -374 -99 -426 2 -22 43 -25 132 -9 220 30 162 197 376 335 429
70 27 107 25 145 -7z"/>
<path d="M11483 25678 c-16 -20 -29 -70 -69 -263 -32 -157 -37 -199 -38 -327
-1 -108 2 -150 12 -160 21 -21 28 2 40 140 14 160 53 358 94 484 31 95 32 98
13 118 -21 23 -38 26 -52 8z"/>
<path d="M397 25635 c-31 -7 -66 -19 -76 -26 -10 -8 -68 -47 -127 -88 -196
-134 -193 -131 -194 -174 0 -44 -3 -44 85 24 33 25 110 79 170 119 l110 72 69
-6 c131 -12 212 -72 261 -194 23 -56 27 -83 28 -167 1 -118 -16 -166 -90 -252
-126 -148 -308 -224 -500 -209 -45 3 -93 10 -107 16 -25 9 -26 9 -26 -35 0
-49 1 -50 96 -60 276 -30 579 155 670 409 24 68 29 201 10 276 -30 118 -79
188 -166 238 -25 14 -54 34 -66 44 -28 25 -76 29 -147 13z"/>
<path d="M7818 25588 c-146 -19 -350 -137 -448 -260 -42 -52 -80 -185 -80
-280 0 -152 87 -268 236 -313 104 -31 287 -10 401 48 121 62 276 203 328 299
24 45 29 64 29 129 0 103 -38 183 -124 263 -105 96 -210 132 -342 114z m180
-84 c65 -21 155 -100 188 -166 35 -68 41 -132 19 -199 -31 -94 -224 -267 -354
-318 -101 -40 -278 -44 -361 -9 -138 60 -167 224 -73 415 43 86 69 110 133
121 45 8 45 8 42 45 -3 37 -2 38 60 66 54 24 94 35 193 55 46 9 106 5 153 -10z"/>
<path d="M5674 25571 c-96 -26 -164 -62 -204 -108 -19 -21 -51 -50 -72 -66
-84 -61 -145 -208 -135 -326 9 -104 33 -158 96 -222 60 -60 123 -89 192 -89
208 0 467 185 623 444 32 54 36 67 36 130 0 53 -5 79 -20 103 -70 115 -333
183 -516 134z m237 -76 c98 -21 156 -48 207 -98 53 -52 54 -81 6 -163 -89
-151 -254 -299 -397 -355 -168 -67 -297 -33 -374 99 -24 40 -28 58 -28 127 0
70 4 88 31 140 40 77 90 114 155 115 58 0 73 16 66 70 -4 33 -2 42 14 51 57
30 211 37 320 14z"/>
<path d="M19582 25020 c-198 -52 -367 -197 -462 -395 -93 -194 -177 -556 -221
-952 -21 -192 -18 -223 21 -223 46 0 50 8 50 100 0 261 115 834 210 1046 92
204 278 353 483 385 174 27 277 -21 346 -164 97 -198 18 -408 -213 -562 -147
-97 -276 -145 -426 -156 -152 -11 -214 -38 -196 -84 6 -16 16 -17 89 -12 46 3
114 14 152 23 61 15 82 16 173 6 172 -19 333 -81 403 -155 43 -46 0 -173 -96
-290 -139 -168 -348 -263 -606 -275 -140 -6 -201 7 -263 54 -47 36 -72 42 -79
22 -19 -59 94 -122 258 -143 67 -8 234 10 332 36 43 11 125 43 182 71 91 43
116 62 191 137 105 104 170 221 172 306 2 135 -125 226 -385 275 -32 7 -55 16
-51 21 3 6 29 20 57 33 80 35 181 100 247 157 167 145 215 336 138 544 -29 79
-120 172 -193 198 -68 23 -216 22 -313 -3z"/>
<path d="M23148 24842 c-105 -28 -229 -120 -311 -231 -105 -142 -192 -427
-219 -711 -9 -102 -9 -146 3 -242 l15 -117 -28 -53 c-104 -201 90 -267 452
-152 324 102 505 319 406 487 -39 68 -77 109 -155 166 -69 52 -250 151 -275
151 -7 0 -19 7 -26 14 -13 17 24 38 175 101 269 110 405 229 405 353 0 139
-122 242 -295 249 -54 2 -101 -3 -147 -15z m253 -63 c45 -22 83 -67 99 -113
26 -78 -33 -169 -155 -240 -36 -22 -154 -80 -263 -131 -108 -51 -201 -100
-207 -109 -15 -24 7 -39 120 -89 223 -96 387 -224 415 -320 12 -45 11 -50 -19
-112 -66 -134 -242 -237 -501 -295 -82 -18 -130 -23 -197 -21 -36 1 -48 24
-38 71 5 22 16 34 40 45 22 9 39 25 48 47 19 45 36 58 152 120 75 40 100 58
100 73 0 29 -34 23 -138 -26 -80 -38 -90 -40 -118 -29 -46 20 -50 44 -39 216
23 337 112 617 249 778 32 38 133 105 189 126 111 43 192 45 263 9z"/>
<path d="M2245 24764 c-11 -3 -49 -12 -85 -20 -87 -22 -176 -65 -229 -114 -35
-33 -42 -44 -37 -65 8 -30 43 -52 59 -36 6 6 16 26 21 43 32 98 410 178 500
107 55 -43 27 -88 -201 -321 -106 -108 -193 -203 -193 -212 0 -27 42 -46 102
-46 96 0 504 98 591 141 37 19 49 45 24 55 -14 5 -46 -1 -152 -31 -324 -89
-455 -110 -455 -71 0 7 35 45 77 86 247 239 287 287 298 352 15 84 -55 130
-204 134 -53 2 -105 1 -116 -2z"/>
<path d="M5835 24495 c-38 -11 -57 -12 -77 -3 -62 24 -194 -39 -284 -134 -66
-70 -99 -116 -114 -158 -7 -19 -19 -53 -27 -75 -42 -111 -55 -294 -28 -394 28
-108 115 -177 220 -174 126 2 244 71 415 242 114 113 183 204 234 307 49 99
25 248 -51 315 -47 41 -134 79 -192 85 -25 2 -68 -3 -96 -11z m132 -80 c95
-28 178 -127 175 -207 -2 -71 -94 -211 -227 -344 -165 -166 -269 -224 -398
-224 -57 0 -62 2 -102 43 -51 50 -68 102 -68 202 -1 140 73 324 167 421 70 73
98 73 56 1 -21 -35 -18 -67 6 -67 7 0 20 13 28 28 32 62 116 119 216 148 61
17 88 17 147 -1z"/>
<path d="M7630 24387 c-137 -115 -202 -253 -203 -427 0 -105 16 -157 68 -218
131 -156 397 -91 646 157 100 101 140 165 153 248 11 72 -1 85 -113 132 -144
59 -212 75 -296 67 -91 -8 -139 -22 -172 -50 -52 -45 1 -60 105 -30 99 29 262
0 365 -66 42 -27 47 -33 41 -57 -25 -109 -214 -299 -366 -371 -136 -64 -245
-67 -304 -8 -43 43 -58 101 -51 201 12 164 74 277 197 361 78 52 89 69 70 103
-20 38 -59 26 -140 -42z"/>
<path d="M9326 24434 c-10 -9 -16 -32 -16 -57 0 -92 55 -466 76 -520 3 -10 14
-16 23 -15 14 3 16 17 13 93 -2 50 -7 126 -12 170 -6 44 -10 130 -10 191 0 93
-3 113 -17 126 -31 26 -41 29 -57 12z"/>
<path d="M21876 24421 c-14 -16 -16 -33 -10 -128 8 -133 5 -139 -107 -172
-208 -63 -279 -97 -279 -134 0 -66 50 -61 215 18 75 36 142 65 150 65 25 0 20
-76 -21 -340 -9 -52 -26 -135 -40 -184 -26 -91 -26 -116 0 -116 56 0 127 264
145 539 10 142 9 141 100 166 146 41 251 78 270 96 56 52 -31 52 -200 -2 -71
-22 -134 -37 -140 -33 -11 7 -10 42 7 166 6 44 5 47 -24 62 -39 20 -45 20 -66
-3z"/>
<path d="M11450 24414 c-8 -3 -36 -14 -62 -25 -26 -10 -62 -19 -81 -19 -74 0
-177 -66 -221 -143 -76 -129 -42 -292 72 -355 83 -46 223 -39 373 19 124 48
209 150 209 252 0 92 -65 213 -131 245 -45 21 -132 36 -159 26z m123 -88 c68
-28 115 -118 104 -200 -14 -102 -187 -194 -372 -199 -69 -2 -86 1 -125 23 -64
36 -85 82 -70 154 12 57 55 127 90 146 18 10 22 8 27 -9 7 -29 20 -26 77 14
52 37 62 37 76 -1 6 -15 18 -24 31 -24 20 0 21 4 17 44 -3 25 -1 49 5 55 15
15 101 14 140 -3z"/>
<path d="M23715 23840 c-4 -6 -28 -21 -54 -32 -57 -24 -81 -45 -81 -71 0 -15
5 -18 25 -13 14 3 36 9 50 12 35 9 33 -7 -14 -108 -82 -179 -81 -299 2 -362
106 -81 267 -87 468 -17 109 37 176 85 210 152 42 84 15 164 -88 259 -106 98
-225 151 -378 169 -44 5 -92 13 -106 16 -16 4 -29 2 -34 -5z m197 -91 c45 -11
110 -33 144 -49 68 -30 166 -115 191 -164 20 -39 11 -88 -26 -135 -84 -106
-418 -168 -523 -97 -28 18 -34 29 -36 66 -2 25 4 72 13 105 20 70 112 277 129
287 16 11 18 10 108 -13z"/>
<path d="M20502 23697 c-6 -6 -11 -39 -11 -72 -3 -233 -20 -414 -51 -540 -17
-71 -40 -146 -51 -167 -23 -45 -24 -64 -3 -72 26 -10 68 17 86 56 33 70 77
263 88 383 17 204 29 319 36 356 4 26 2 40 -11 52 -19 20 -68 22 -83 4z"/>
<path d="M2318 23545 c-65 -9 -102 -21 -151 -49 -71 -39 -84 -57 -61 -81 20
-20 20 -20 73 14 58 37 102 48 221 59 99 9 140 6 140 -9 0 -34 -76 -113 -197
-204 -65 -48 -71 -79 -19 -100 19 -8 92 -22 162 -30 313 -39 459 -80 452 -126
-8 -55 -222 -155 -501 -234 -87 -25 -166 -45 -175 -45 -27 0 -62 -29 -56 -45
13 -33 120 -13 383 71 172 55 301 118 370 180 80 72 80 106 -3 159 -68 43
-155 69 -301 89 -230 32 -248 35 -259 46 -8 8 1 21 34 48 84 68 167 152 186
187 17 32 17 36 2 51 -33 33 -152 41 -300 19z"/>
<path d="M7905 23506 c-103 -26 -147 -60 -244 -189 -61 -81 -90 -144 -121
-257 -19 -73 -22 -101 -17 -200 7 -168 37 -235 127 -284 70 -38 172 -37 255 3
76 37 140 89 202 166 145 177 189 328 148 511 -23 106 -36 135 -85 188 -65 70
-151 90 -265 62z m206 -89 c42 -28 56 -56 75 -149 35 -164 -11 -320 -139 -475
-51 -62 -144 -136 -198 -157 -49 -20 -156 -24 -187 -7 -66 35 -92 234 -52 393
29 118 65 184 137 254 49 49 63 69 63 92 0 23 6 32 28 40 55 22 99 30 168 31
58 1 77 -3 105 -22z"/>
<path d="M11426 23448 c-9 -25 -12 -134 -10 -462 2 -415 7 -477 32 -430 16 30
21 120 28 457 3 175 10 332 15 350 14 49 11 82 -9 100 -27 25 -42 21 -56 -15z"/>
<path d="M5845 23456 c-45 -14 -117 -50 -155 -76 -16 -11 -52 -19 -100 -22
-126 -8 -218 -72 -289 -201 -75 -136 -96 -275 -67 -437 22 -120 52 -188 110
-245 90 -90 192 -97 341 -25 99 48 154 96 249 213 176 221 269 410 268 548 -1
124 -51 191 -178 239 -62 23 -120 25 -179 6z m170 -91 c59 -28 121 -90 131
-131 15 -61 -28 -183 -118 -332 -123 -205 -236 -325 -368 -390 -63 -32 -84
-37 -141 -37 -53 0 -74 5 -96 21 -117 87 -171 299 -123 484 25 101 56 158 119
223 69 71 181 100 167 42 -10 -38 17 -49 44 -20 13 14 31 25 40 25 23 0 40 20
40 47 0 26 33 46 120 74 76 25 122 23 185 -6z"/>
<path d="M9379 23403 c-11 -12 -14 -55 -13 -177 0 -152 2 -166 30 -246 21 -62
34 -86 48 -89 17 -3 18 2 12 45 -25 189 -25 253 0 405 3 20 1 46 -5 58 -14 25
-53 28 -72 4z"/>
<path d="M2410 21991 c-19 -4 -57 -17 -84 -29 -38 -17 -68 -22 -135 -22 -118
0 -190 -19 -265 -70 -113 -77 -142 -157 -92 -262 40 -85 160 -171 281 -203 77
-20 244 -19 343 1 87 17 245 82 307 124 62 42 122 113 136 159 28 93 -31 207
-133 258 -93 47 -248 66 -358 44z m253 -65 c68 -16 131 -55 150 -93 60 -119 0
-218 -189 -309 -185 -89 -430 -107 -571 -43 -122 55 -205 199 -156 270 43 63
129 114 222 131 75 14 89 6 72 -43 -15 -44 -14 -96 3 -102 14 -6 36 10 36 26
0 26 37 82 69 103 20 13 45 31 57 39 46 34 207 45 307 21z"/>
<path d="M7836 21945 c-24 -24 -29 -77 -23 -224 5 -121 12 -206 46 -529 9 -88
31 -130 59 -113 11 7 11 41 -3 202 -9 107 -20 246 -26 309 -10 122 -5 209 12
242 17 31 -15 128 -42 128 -4 0 -14 -7 -23 -15z"/>
<path d="M5830 21901 c-47 -15 -67 -16 -124 -8 -100 15 -198 -3 -315 -60 -167
-80 -227 -159 -219 -286 8 -125 126 -291 283 -396 109 -73 186 -96 315 -96
228 1 405 96 487 262 33 67 38 85 41 169 12 266 -124 436 -346 433 -37 0 -92
-9 -122 -18z m256 -75 c60 -28 97 -72 125 -151 76 -217 -12 -418 -221 -506
-193 -82 -393 -54 -559 76 -71 56 -136 133 -167 200 -29 61 -33 157 -8 195 59
88 152 148 281 181 69 17 153 26 153 15 0 -2 -16 -28 -35 -57 -40 -61 -46 -99
-15 -99 10 0 23 7 28 15 18 33 106 115 122 115 27 0 78 -56 90 -98 5 -20 10
-58 10 -84 0 -36 5 -50 21 -62 34 -23 49 -10 49 43 0 65 -15 112 -55 171 -19
29 -35 56 -35 60 0 28 146 18 216 -14z"/>
<path d="M11532 21820 c-80 -12 -211 -49 -260 -73 -88 -42 -172 -176 -180
-287 -7 -97 17 -169 76 -232 121 -130 301 -151 498 -59 247 116 358 288 299
462 -45 131 -246 219 -433 189z m217 -79 c76 -23 125 -60 151 -111 59 -116
-15 -252 -196 -357 -85 -50 -189 -83 -259 -83 -129 0 -262 76 -286 163 -24 89
19 216 99 293 48 46 95 64 169 64 41 0 57 -6 88 -30 40 -32 70 -38 78 -17 6
17 -19 63 -38 70 -8 4 -15 11 -15 17 0 18 143 12 209 -9z"/>
<path d="M9304 21776 c-74 -32 -160 -164 -184 -283 -18 -84 -8 -233 21 -318
28 -81 84 -145 144 -165 66 -22 198 -9 287 29 146 62 282 181 339 297 50 105
46 231 -12 333 -67 117 -199 152 -299 80 -47 -34 -54 -35 -88 -10 -34 24 -115
51 -150 51 -15 -1 -41 -7 -58 -14z m507 -92 c60 -54 84 -172 54 -266 -21 -68
-97 -171 -163 -220 -188 -143 -438 -169 -485 -50 -23 59 -40 187 -34 256 8 87
51 190 101 242 68 70 123 71 226 2 69 -47 93 -45 98 10 3 25 9 32 40 41 56 15
138 8 163 -15z"/>
<path d="M11515 20863 c-22 -53 -31 -789 -11 -822 4 -6 13 -11 20 -11 17 0 26
77 26 245 1 173 18 437 32 503 14 65 1 102 -36 102 -13 0 -27 -8 -31 -17z"/>
<path d="M2201 20738 c-4 -12 -7 -70 -6 -128 1 -82 10 -138 39 -258 44 -182
43 -180 67 -193 45 -23 49 16 18 148 -42 178 -50 244 -43 342 7 100 3 111 -44
111 -14 0 -26 -8 -31 -22z"/>
<path d="M5836 20739 c-21 -5 -71 -26 -110 -46 -254 -132 -467 -398 -440 -551
16 -92 134 -241 230 -290 115 -59 278 -71 428 -33 209 55 467 255 553 430 20
40 28 74 31 133 11 188 -64 307 -223 354 -48 13 -78 15 -160 9 -134 -10 -172
-11 -225 -3 -25 4 -62 2 -84 -3z m475 -70 c91 -28 159 -126 159 -230 0 -142
-68 -256 -233 -386 -185 -147 -358 -205 -541 -182 -110 14 -189 53 -258 128
-64 69 -88 115 -88 168 0 83 100 236 221 339 120 102 268 180 191 101 -32 -33
-41 -61 -22 -72 5 -3 33 12 62 33 68 50 155 83 201 75 27 -4 39 -1 56 16 18
18 33 21 117 21 53 0 114 -5 135 -11z"/>
<path d="M81 20636 c-7 -8 -13 -43 -13 -78 -1 -63 19 -320 27 -348 3 -8 9 -86
15 -174 7 -99 18 -181 31 -221 24 -79 80 -155 114 -155 32 0 31 9 -6 75 -45
80 -58 134 -65 259 -3 61 -12 179 -20 261 -9 83 -14 204 -12 270 l3 120 -31 3
c-18 2 -36 -3 -43 -12z"/>
<path d="M7910 20608 c-1 -2 -2 -144 -4 -315 -3 -250 -1 -315 10 -324 22 -18
32 -2 38 64 41 448 41 535 3 562 -19 13 -46 20 -47 13z"/>
<path d="M9443 20554 c-40 -20 -89 -53 -109 -73 -139 -137 -119 -397 42 -554
51 -51 97 -73 176 -88 59 -11 72 -10 139 10 172 52 297 158 366 309 21 45 25
65 21 126 -4 89 -38 151 -113 208 -65 50 -125 68 -260 79 -60 4 -128 11 -150
14 -34 6 -52 1 -112 -31z m369 -75 c75 -16 142 -53 175 -96 97 -127 -61 -387
-274 -453 -74 -23 -156 -26 -217 -8 -60 18 -137 99 -159 167 -20 62 -22 162
-5 228 14 56 79 129 123 137 17 4 55 13 85 20 68 17 202 20 272 5z"/>
<path d="M20905 19826 c-71 -18 -278 -114 -380 -175 -318 -192 -513 -387 -700
-701 -102 -172 -255 -467 -255 -493 0 -26 34 -50 59 -42 19 6 34 36 74 145 37
100 158 318 265 480 184 275 422 480 748 643 206 103 295 122 401 89 127 -40
198 -105 225 -205 27 -102 -32 -279 -128 -386 -50 -56 -87 -66 -118 -32 -25
28 -134 80 -201 96 -121 29 -217 15 -272 -40 -59 -59 -38 -137 48 -181 135
-68 280 -78 406 -28 79 32 93 28 93 -26 0 -65 -25 -108 -113 -195 -164 -161
-380 -280 -762 -417 -288 -103 -329 -120 -333 -141 -6 -30 80 -21 213 22 468
153 690 258 890 421 165 134 225 266 168 363 l-22 36 56 58 c70 72 137 207
155 310 10 62 9 79 -6 136 -30 111 -119 199 -250 250 -64 24 -194 31 -261 13z
m-3 -647 c59 -12 188 -67 188 -80 0 -17 -63 -40 -139 -51 -174 -26 -336 39
-263 105 36 33 128 44 214 26z"/>
<path d="M2180 19666 c-98 -29 -150 -57 -188 -101 -38 -43 -39 -49 -7 -81 20
-20 28 -23 45 -14 11 6 20 19 20 29 0 30 73 88 132 106 123 36 254 43 321 17
74 -30 7 -161 -217 -422 -31 -36 -56 -72 -56 -82 0 -22 51 -63 97 -79 45 -14
153 -8 343 21 164 25 176 28 191 46 9 11 6 16 -15 25 -20 9 -70 6 -248 -16
-229 -28 -278 -26 -278 9 0 7 30 49 68 92 96 113 177 224 200 277 15 35 16
101 1 128 -6 12 -34 31 -62 45 -73 33 -236 34 -347 0z"/>
<path d="M9613 19599 c-24 -9 -29 -26 -43 -154 -11 -100 -12 -556 -1 -595 4
-15 15 -26 28 -28 29 -4 31 11 37 303 4 218 7 249 30 338 27 103 25 130 -12
139 -10 3 -27 1 -39 -3z"/>
<path d="M8019 19523 c-12 -32 -8 -88 22 -283 37 -245 57 -342 73 -358 31 -31
38 -2 27 99 -5 52 -12 128 -15 169 -16 226 -30 367 -38 383 -14 28 -57 22 -69
-10z"/>
<path d="M11447 19544 c-3 -3 -50 -7 -104 -8 -115 -2 -166 -22 -239 -93 -86
-83 -126 -231 -90 -328 23 -59 90 -117 163 -141 91 -30 246 -25 343 9 134 49
225 116 278 206 23 39 27 57 27 121 0 66 -4 82 -29 120 -39 61 -76 89 -139
106 -52 14 -198 19 -210 8z m191 -90 c54 -18 108 -63 123 -102 29 -75 -17
-161 -121 -230 -85 -56 -173 -84 -286 -89 -123 -7 -193 13 -251 72 -51 50 -55
84 -22 166 28 71 51 102 106 138 39 26 56 31 108 31 53 0 65 -4 85 -25 33 -35
64 -30 67 10 0 17 2 33 2 38 2 13 138 7 189 -9z"/>
<path d="M5771 19480 c-148 -51 -238 -131 -256 -228 -3 -20 -17 -55 -30 -77
-36 -63 -52 -153 -37 -221 47 -225 229 -354 438 -310 136 28 298 135 438 288
140 153 136 281 -12 425 -101 100 -197 138 -367 147 -81 4 -99 1 -174 -24z
m379 -86 c115 -54 210 -168 210 -250 0 -58 -28 -103 -119 -195 -165 -165 -287
-231 -427 -232 -137 -1 -224 56 -287 191 -25 54 -28 70 -23 114 16 116 113
261 229 340 85 58 107 63 238 63 106 0 118 -2 179 -31z"/>
<path d="M11612 18868 c-7 -7 -12 -37 -12 -67 0 -31 -4 -83 -10 -116 -5 -33
-21 -256 -35 -495 -14 -240 -27 -449 -28 -465 -1 -21 3 -30 15 -33 29 -6 38
37 48 227 6 97 12 199 15 226 3 28 10 129 15 225 6 96 19 227 30 290 11 63 20
130 20 148 0 59 -29 89 -58 60z"/>
<path d="M2340 18543 c-35 -7 -43 -18 -31 -41 15 -29 40 -34 109 -23 38 6 88
6 138 0 77 -10 181 -33 191 -42 10 -11 -24 -46 -109 -111 -49 -37 -94 -79
-100 -92 -10 -22 -7 -29 23 -60 40 -41 62 -52 190 -89 111 -32 229 -83 229
-99 0 -19 -80 -92 -135 -123 -73 -42 -245 -117 -365 -158 -125 -44 -140 -51
-140 -69 0 -23 29 -27 93 -12 78 19 290 94 382 136 134 62 245 154 245 204 0
47 -119 122 -255 161 -135 39 -190 60 -190 74 0 8 25 34 55 58 134 107 160
133 160 163 0 25 -7 32 -52 53 -102 48 -353 88 -438 70z"/>
<path d="M9681 18511 c-8 -5 -14 -24 -15 -43 0 -348 18 -704 38 -737 10 -15
36 -14 37 2 1 6 0 116 0 242 -1 157 3 268 13 350 9 66 16 127 16 136 0 37 -58
70 -89 50z"/>
<path d="M8053 18454 c-15 -23 -17 -58 -17 -288 0 -279 14 -396 51 -424 31
-23 38 2 25 91 -17 117 -15 351 4 494 14 99 14 126 4 138 -19 23 -48 18 -67
-11z"/>
<path d="M21648 18423 c-8 -10 -20 -52 -26 -93 -7 -41 -27 -172 -46 -290 -61
-376 -63 -404 -28 -417 22 -9 39 21 47 85 3 31 12 82 20 112 7 30 19 89 25
130 7 41 30 147 52 235 55 219 55 219 27 239 -30 21 -52 20 -71 -1z"/>
<path d="M5860 18391 c-41 -4 -82 -11 -90 -16 -8 -5 -58 -37 -111 -72 -107
-69 -141 -114 -121 -158 8 -18 5 -36 -16 -86 -33 -81 -40 -185 -18 -261 17
-61 100 -184 131 -194 11 -4 59 -29 106 -56 97 -55 177 -75 253 -64 58 9 56
26 -5 42 -46 12 -44 14 29 33 93 26 288 149 382 243 71 71 92 110 97 181 15
179 -102 329 -306 396 -67 22 -167 25 -331 12z m273 -66 c84 -18 151 -53 210
-112 57 -56 87 -115 94 -187 5 -47 2 -61 -21 -99 -45 -78 -241 -226 -370 -280
-58 -24 -85 -30 -170 -32 -91 -3 -104 -1 -142 21 -22 13 -48 24 -56 24 -9 0
-25 15 -37 33 -12 17 -34 52 -51 76 -38 57 -46 100 -33 178 25 143 154 326
251 354 41 12 46 11 97 -16 46 -25 55 -27 69 -15 10 7 16 23 15 34 0 12 -1 24
0 29 2 11 70 8 144 -8z"/>
<path d="M3561 17293 c-20 -17 -22 -22 -12 -41 15 -29 25 -30 251 -36 107 -3
245 -9 305 -15 61 -5 364 -13 675 -16 311 -4 572 -11 580 -15 20 -10 181 -15
350 -11 74 2 682 3 1350 2 1069 0 1601 -7 2065 -26 288 -12 366 -15 510 -20
274 -10 678 -25 800 -30 66 -3 194 -7 285 -10 91 -3 206 -8 255 -10 50 -3 275
-9 500 -15 226 -5 500 -12 610 -15 110 -2 331 -7 490 -10 160 -3 441 -8 625
-12 407 -8 545 -7 561 2 50 32 -193 46 -1066 65 -591 12 -893 19 -1065 25 -74
3 -268 10 -430 15 -411 14 -514 18 -765 30 -121 5 -346 14 -500 20 -154 5
-419 15 -590 21 -491 17 -816 25 -1150 29 -170 2 -350 4 -400 5 -275 5 -1942
2 -2010 -4 -44 -4 -85 -4 -92 1 -16 12 -450 24 -948 27 -374 1 -629 10 -750
26 -22 3 -101 9 -175 15 -74 5 -158 12 -185 16 -41 5 -55 3 -74 -13z"/>
<path d="M14468 17013 c-27 -2 -48 -8 -48 -14 0 -5 3 -9 8 -10 4 0 32 -2 63
-5 38 -4 59 -2 64 6 8 13 -12 31 -30 28 -5 -1 -31 -3 -57 -5z"/>
<path d="M14277 16999 c8 -8 16 -8 30 0 16 9 14 10 -11 11 -22 0 -27 -3 -19
-11z"/>
<path d="M14358 16998 c9 -9 15 -9 24 0 9 9 7 12 -12 12 -19 0 -21 -3 -12 -12z"/>
<path d="M2511 16970 c-218 -45 -439 -184 -506 -316 -26 -52 -30 -69 -30 -144
0 -68 5 -93 22 -126 46 -86 150 -152 308 -195 111 -30 382 -33 530 -5 201 37
345 105 434 201 58 65 76 114 68 196 -17 197 -193 318 -542 375 -127 20 -228
25 -284 14z m250 -97 c36 -34 41 -44 46 -98 6 -66 16 -85 45 -85 38 0 33 54
-13 159 l-20 44 49 -6 c112 -13 294 -97 351 -162 84 -97 82 -232 -5 -326 -35
-37 -168 -105 -254 -129 -229 -64 -484 -65 -680 -3 -99 32 -162 72 -207 131
-30 40 -33 50 -33 115 0 94 28 156 100 220 112 101 310 191 310 142 0 -19 29
-19 55 -1 36 24 79 34 148 35 65 1 69 -1 108 -36z"/>
<path d="M7746 16959 c-314 -90 -491 -302 -401 -480 50 -98 119 -156 241 -201
53 -20 78 -22 249 -22 166 0 200 3 269 22 251 70 421 228 434 402 5 81 -7 124
-53 177 -63 74 -205 111 -384 100 -77 -5 -103 -3 -117 8 -28 21 -155 18 -238
-6z m-25 -133 c-36 -37 -37 -66 -2 -66 10 0 72 18 138 40 199 66 421 77 537
26 77 -35 90 -54 83 -121 -12 -121 -104 -233 -249 -304 -112 -55 -181 -72
-324 -78 -244 -11 -427 58 -485 182 -22 48 -24 87 -5 124 26 50 138 144 225
189 103 52 127 55 82 8z"/>
<path d="M6107 16943 c-9 -14 -17 -786 -10 -848 7 -51 11 -60 28 -60 19 0 20
7 21 225 0 124 6 293 13 375 10 128 14 152 31 167 27 22 25 55 -8 103 -26 37
-64 57 -75 38z"/>
<path d="M9746 16749 c-118 -28 -311 -181 -356 -282 -65 -147 -17 -273 125
-326 52 -20 74 -22 160 -18 81 3 115 10 180 35 170 67 320 177 361 267 40 85
26 158 -43 214 -37 30 -172 81 -216 81 -15 0 -44 9 -64 20 -40 21 -83 24 -147
9z m287 -104 c27 -10 65 -33 84 -53 33 -33 35 -38 31 -87 -8 -97 -94 -181
-270 -265 -153 -73 -261 -86 -347 -42 -128 66 -97 289 56 395 36 25 44 27 62
15 18 -11 24 -9 49 15 16 15 42 32 58 37 45 15 222 5 277 -15z"/>
<path d="M11515 16665 c-105 -40 -196 -137 -235 -251 -28 -79 -27 -189 1 -249
41 -88 140 -141 248 -133 100 7 265 102 339 196 54 68 79 161 60 229 -13 48
-92 126 -144 143 -22 7 -57 27 -78 43 -47 37 -126 46 -191 22z m164 -109 c8
-10 9 -26 1 -59 -12 -54 -5 -77 21 -77 21 0 34 25 44 83 7 43 15 45 62 16 66
-41 78 -101 38 -186 -68 -148 -297 -259 -428 -209 -24 9 -55 28 -68 42 -21 23
-24 35 -24 108 0 71 4 89 32 146 42 85 79 119 145 135 73 18 163 19 177 1z"/>
<path d="M14955 16623 c-135 -17 -283 -61 -368 -108 -170 -96 -253 -337 -174
-508 49 -105 181 -198 352 -248 104 -30 308 -37 411 -14 151 33 263 103 319
199 49 85 66 213 45 327 -44 230 -306 388 -585 352z m236 -94 c35 -19 47 -34
62 -74 23 -62 34 -75 62 -75 33 0 38 27 15 73 -12 22 -19 42 -16 44 11 11 105
-91 132 -144 27 -55 29 -65 29 -183 0 -111 -3 -130 -23 -172 -82 -166 -378
-245 -655 -174 -170 44 -296 124 -333 211 -18 45 -18 158 1 221 8 27 35 75 60
107 60 75 191 161 171 112 -3 -8 -9 -22 -12 -30 -12 -30 26 -29 59 3 42 40
119 77 187 91 30 6 64 13 75 15 48 11 144 -2 186 -25z"/>
<path d="M8089 15889 c-50 -11 -200 -77 -280 -122 -141 -78 -240 -212 -269
-364 -18 -92 -8 -255 19 -326 83 -214 487 -353 802 -276 127 31 273 107 358
186 58 53 80 82 117 158 46 93 47 95 52 214 4 107 2 129 -18 192 -56 174 -246
288 -481 289 -65 0 -90 4 -99 15 -15 18 -103 45 -139 44 -14 -1 -42 -5 -62
-10z m416 -132 c207 -30 312 -135 322 -325 11 -205 -78 -380 -242 -474 -213
-121 -382 -144 -618 -84 -168 43 -292 126 -338 228 -21 47 -24 68 -24 179 l0
126 40 79 c26 51 49 82 65 90 14 6 45 21 70 34 176 88 337 136 505 150 129 10
122 10 220 -3z"/>
<path d="M2694 15808 c-12 -18 -5 -230 12 -408 23 -249 38 -302 80 -286 18 7
17 48 -7 246 -6 47 -12 164 -15 260 -2 96 -6 181 -9 188 -6 16 -52 16 -61 0z"/>
<path d="M6170 15715 c-23 -28 -7 -380 28 -610 37 -246 40 -257 61 -253 21 5
20 55 -7 268 -32 257 -34 286 -19 433 11 116 11 141 -1 158 -16 23 -45 25 -62
4z"/>
<path d="M9713 15526 c-117 -37 -221 -156 -274 -313 -31 -95 -25 -202 16 -268
57 -92 191 -141 356 -132 120 7 202 28 304 77 154 75 243 167 265 276 14 65 2
113 -43 180 -63 93 -176 148 -338 165 -55 5 -111 14 -125 19 -35 14 -111 11
-161 -4z m396 -97 c69 -26 151 -91 176 -140 18 -34 19 -98 3 -153 -16 -53
-104 -141 -183 -183 -115 -60 -209 -86 -320 -87 -111 0 -173 19 -228 72 -84
80 -65 258 44 413 71 100 98 110 304 105 117 -3 151 -8 204 -27z"/>
<path d="M11520 15481 c-14 -27 -13 -87 5 -216 8 -61 21 -210 30 -332 15 -213
26 -307 38 -320 4 -3 13 -3 22 0 13 5 14 25 10 129 -11 247 -26 454 -37 508
-6 31 -8 92 -5 141 7 89 1 109 -35 109 -9 0 -22 -9 -28 -19z"/>
<path d="M512 15330 c-67 -14 -162 -70 -230 -136 -71 -69 -79 -99 -27 -99 22
0 33 7 42 26 18 38 88 98 141 121 65 29 164 36 197 14 43 -28 49 -61 25 -137
-29 -89 -65 -146 -233 -372 -183 -245 -283 -407 -268 -435 36 -67 190 -57 614
38 123 28 240 50 261 50 48 0 95 42 75 66 -16 19 -66 14 -239 -27 -292 -69
-371 -82 -502 -83 -69 -1 -129 2 -133 6 -12 11 20 60 220 333 52 72 116 159
142 195 75 102 127 222 131 301 4 59 1 68 -22 96 -15 17 -39 34 -54 37 -63 12
-99 14 -140 6z"/>
<path d="M14868 15204 c-33 -10 -57 -26 -79 -54 -18 -22 -51 -51 -75 -65 -97
-57 -211 -216 -249 -348 -25 -88 -18 -232 14 -278 52 -77 169 -127 359 -156
91 -14 127 -14 239 -4 168 14 270 34 386 73 146 49 221 105 248 185 16 50 6
176 -20 244 -66 172 -283 340 -515 399 -94 24 -238 26 -308 4z m296 -129 c64
-30 88 -27 94 14 2 11 5 21 7 21 11 0 135 -77 183 -114 141 -108 212 -229 212
-362 0 -52 -21 -92 -70 -131 -97 -78 -460 -155 -660 -140 -171 13 -311 55
-380 114 l-43 37 5 90 c4 69 12 107 33 156 53 126 156 245 258 296 118 60 259
68 361 19z"/>
<path d="M20305 15190 c3 -5 10 -10 16 -10 5 0 9 5 9 10 0 6 -7 10 -16 10 -8
0 -12 -4 -9 -10z"/>
<path d="M20297 15133 c-13 -12 -7 -43 8 -43 9 0 15 9 15 25 0 24 -10 32 -23
18z"/>
<path d="M20990 15076 c-8 -26 -8 -41 0 -55 8 -16 7 -26 -4 -43 -22 -36 -30
-142 -12 -157 22 -19 39 22 41 101 2 38 8 81 15 97 15 38 10 85 -12 89 -11 2
-20 -8 -28 -32z"/>
<path d="M2945 14726 c-5 -2 -44 -12 -85 -21 -115 -27 -185 -67 -242 -143 -33
-42 -36 -77 -8 -92 28 -15 60 4 60 36 0 38 16 61 63 88 101 59 340 96 406 61
31 -16 33 -19 29 -59 -7 -57 -67 -144 -187 -271 -148 -155 -211 -230 -211
-253 0 -31 77 -67 186 -88 175 -33 548 -18 590 24 13 13 13 17 2 29 -12 11
-28 11 -94 2 -85 -12 -320 -6 -438 11 -77 11 -156 42 -156 61 0 6 53 66 118
133 136 140 203 224 237 298 35 75 33 107 -11 149 l-35 34 -107 2 c-59 1 -111
1 -117 -1z"/>
<path d="M18950 14723 c-211 -23 -392 -89 -519 -191 -119 -96 -218 -245 -256
-387 -16 -61 -41 -467 -29 -486 10 -17 43 -9 58 14 11 17 15 72 19 232 4 212
8 237 51 338 71 166 230 309 413 371 167 57 442 80 622 52 108 -16 207 -53
217 -81 19 -50 -37 -113 -149 -167 -86 -42 -373 -137 -507 -168 -116 -26 -140
-36 -140 -54 0 -23 22 -34 146 -77 65 -23 173 -68 240 -100 150 -73 336 -195
332 -217 -5 -27 -64 -59 -135 -73 -110 -22 -435 -17 -621 10 -84 12 -157 19
-162 16 -17 -10 -11 -34 11 -45 34 -19 234 -49 399 -61 169 -13 326 -7 406 15
99 26 194 92 194 133 0 23 -49 64 -173 146 -132 88 -268 158 -390 202 -49 17
-87 36 -85 41 2 5 50 21 108 36 136 35 338 103 420 142 128 60 206 169 169
235 -31 55 -136 103 -263 120 -72 10 -297 13 -376 4z"/>
<path d="M6335 14539 c-30 -48 -62 -826 -36 -852 25 -25 41 21 41 117 1 237
31 562 58 613 5 10 13 37 16 59 6 32 3 45 -9 58 -19 18 -60 21 -70 5z"/>
<path d="M8339 14459 c-161 -14 -383 -87 -513 -169 -108 -68 -195 -180 -140
-180 9 0 45 23 81 51 79 62 136 95 233 137 172 73 406 109 542 83 194 -38 299
-166 286 -350 -6 -85 -48 -178 -105 -237 -136 -139 -445 -264 -653 -264 -158
0 -255 40 -312 129 -23 37 -28 56 -28 106 0 70 23 149 65 221 43 74 170 196
240 231 91 46 116 49 153 18 38 -32 49 -32 64 0 10 23 8 29 -14 51 -55 55
-156 39 -275 -45 -132 -93 -249 -236 -290 -354 -26 -75 -24 -190 4 -242 96
-181 355 -235 653 -135 275 91 451 215 521 364 76 163 54 323 -62 450 -98 108
-248 153 -450 135z"/>
<path d="M20936 14381 c-4 -6 -3 -19 3 -28 9 -17 10 -17 17 0 8 21 -10 45 -20
28z"/>
<path d="M21495 14300 c-172 -37 -314 -136 -415 -290 -78 -119 -129 -279 -166
-523 -21 -140 -24 -386 -6 -440 20 -55 75 -63 106 -15 7 11 4 32 -8 70 -27 80
-31 239 -11 395 26 204 65 367 109 450 42 80 132 178 198 216 105 62 296 102
348 75 74 -40 -6 -176 -194 -330 -81 -67 -99 -91 -98 -129 1 -46 38 -87 131
-147 282 -181 384 -274 366 -332 -17 -55 -175 -122 -457 -194 -155 -39 -208
-59 -208 -79 0 -28 31 -26 183 8 304 70 455 127 532 199 34 33 37 39 32 77
-12 93 -110 192 -344 347 -121 81 -153 111 -153 143 0 10 38 47 84 84 142 113
236 241 236 322 -1 69 -38 93 -149 99 -42 1 -94 -1 -116 -6z"/>
<path d="M20245 14240 c-8 -14 13 -50 30 -50 15 0 30 35 20 50 -8 13 -42 13
-50 0z"/>
<path d="M9931 14206 c-12 -14 -28 -118 -51 -322 -13 -114 -18 -463 -7 -526 8
-48 48 -103 70 -95 9 3 12 66 13 248 1 256 9 357 46 552 15 86 19 124 11 135
-13 22 -66 27 -82 8z"/>
<path d="M11583 13971 c-28 -11 -64 -26 -80 -34 -15 -9 -50 -26 -77 -39 -30
-14 -52 -32 -58 -48 -6 -14 -29 -63 -51 -110 -34 -70 -42 -98 -45 -155 -16
-302 338 -395 626 -165 60 48 96 104 112 173 31 142 -92 325 -233 343 -34 5
-56 14 -70 30 -25 29 -54 30 -124 5z m227 -122 c119 -54 172 -176 121 -277
-53 -105 -229 -202 -363 -202 -86 0 -137 19 -190 70 -42 41 -48 51 -48 88 0
133 128 315 234 333 90 15 199 9 246 -12z"/>
<path d="M14992 13820 c-95 -15 -173 -50 -225 -102 -27 -27 -60 -56 -75 -65
-68 -44 -124 -99 -148 -150 -23 -46 -26 -63 -22 -116 3 -35 13 -77 22 -95 61
-118 219 -204 467 -254 99 -20 145 -22 349 -23 214 0 243 2 325 24 148 39 208
77 237 150 14 37 13 130 -2 176 -36 111 -161 250 -295 328 -162 95 -460 155
-633 127z m363 -78 c230 -63 409 -191 486 -347 37 -76 42 -145 13 -195 -47
-78 -226 -123 -494 -124 -413 0 -727 112 -768 275 -11 42 -2 99 19 127 63 84
152 148 252 184 54 20 82 22 227 23 144 0 174 -3 237 -23 39 -12 85 -33 101
-47 37 -31 92 -35 92 -7 0 35 -65 74 -190 113 -66 21 -94 24 -242 24 -92 0
-165 1 -163 4 28 27 324 23 430 -7z"/>
<path d="M15511 13510 c-5 -17 -13 -56 -17 -88 -5 -46 -3 -60 9 -71 13 -10 19
-9 36 8 17 17 21 34 21 82 0 90 -27 130 -49 69z"/>
<path d="M20510 13810 c-15 -15 -17 -25 -11 -42 17 -47 101 -28 101 23 0 42
-55 54 -90 19z"/>
<path d="M20230 13746 c0 -9 7 -16 16 -16 9 0 14 5 12 12 -6 18 -28 21 -28 4z"/>
<path d="M20492 13550 c0 -14 2 -19 5 -12 2 6 2 18 0 25 -3 6 -5 1 -5 -13z"/>
<path d="M20470 13491 c-14 -28 -12 -68 4 -74 21 -8 26 2 26 50 0 46 -12 56
-30 24z"/>
<path d="M19653 13473 c-4 -9 5 -38 20 -67 20 -38 30 -83 43 -176 17 -137 14
-192 -17 -288 -23 -69 -20 -92 10 -92 51 0 107 183 96 314 -10 123 -27 240
-37 261 -30 59 -100 89 -115 48z"/>
<path d="M6352 13448 c-30 -30 -9 -258 43 -475 19 -78 41 -184 50 -235 22
-131 24 -138 40 -138 31 0 28 90 -11 270 -58 270 -57 259 -51 409 5 131 3 145
-14 162 -22 22 -40 24 -57 7z"/>
<path d="M8296 13158 c-88 -16 -128 -29 -210 -70 -158 -79 -256 -149 -256
-183 0 -25 31 -17 87 22 29 20 55 34 57 32 3 -2 -18 -40 -45 -84 -135 -216
-211 -421 -213 -580 -1 -67 3 -89 25 -135 84 -178 315 -266 559 -215 237 50
486 187 598 328 101 126 139 246 128 399 -11 152 -65 280 -156 376 -120 124
-301 159 -574 110z m384 -67 c75 -24 152 -79 191 -136 67 -97 104 -292 80
-420 -16 -85 -69 -191 -130 -257 -89 -98 -263 -197 -448 -255 -75 -24 -105
-28 -208 -28 -110 0 -125 2 -177 27 -62 29 -151 106 -174 149 -56 110 -22 304
97 540 113 227 234 359 328 359 11 0 42 8 68 17 108 38 261 39 373 4z"/>
<path d="M11853 13063 c-21 -32 -23 -165 -4 -268 30 -171 49 -883 28 -1087 -7
-66 -6 -78 7 -78 25 0 36 33 47 147 16 154 5 817 -16 993 -14 112 -14 146 -4
202 11 59 10 70 -5 92 -21 33 -31 33 -53 -1z"/>
<path d="M3075 13053 c-69 -10 -168 -46 -198 -73 -31 -27 -31 -29 -14 -48 32
-35 56 -34 94 3 41 40 99 55 208 55 154 0 315 -38 315 -74 0 -33 -27 -49 -225
-132 -125 -52 -165 -79 -165 -109 0 -29 62 -92 135 -137 148 -91 228 -150 296
-218 90 -89 100 -114 67 -178 -44 -85 -135 -126 -333 -149 -60 -7 -70 -11 -70
-27 0 -62 238 -31 362 47 46 29 86 74 113 128 25 48 25 80 1 127 -29 57 -187
195 -339 297 -98 65 -137 96 -137 110 0 16 25 30 129 72 133 54 208 104 234
157 19 38 -5 71 -73 102 -81 37 -291 62 -400 47z"/>
<path d="M22090 12955 c-14 -8 -32 -18 -40 -22 -8 -4 -48 -33 -88 -66 -113
-91 -151 -176 -117 -262 27 -71 89 -105 232 -125 182 -25 532 50 541 116 4 31
-115 136 -208 184 -129 65 -259 96 -299 71 -28 -18 -1 -37 100 -75 147 -54
226 -95 260 -133 16 -19 29 -38 29 -43 0 -31 -221 -66 -368 -58 -106 6 -154
22 -191 61 -20 22 -23 33 -19 72 9 74 43 109 213 218 62 40 68 71 15 75 -19 1
-46 -4 -60 -13z"/>
<path d="M10021 12876 c-9 -11 -9 -40 -1 -116 5 -56 10 -251 10 -434 0 -348 4
-381 45 -381 12 0 21 10 27 30 4 17 11 222 15 457 5 341 4 430 -7 443 -16 19
-74 20 -89 1z"/>
<path d="M15501 12736 c-39 -46 -40 -515 -2 -678 21 -91 36 -128 50 -128 19 0
19 34 1 152 -26 161 -25 314 0 453 24 131 25 164 4 193 -17 25 -36 28 -53 8z"/>
<path d="M3056 11255 c-169 -27 -314 -85 -391 -156 -204 -188 -27 -400 375
-450 233 -28 520 23 654 118 165 117 144 295 -46 391 -68 34 -201 72 -253 72
-18 0 -49 7 -70 15 -52 22 -165 26 -269 10z m7 -75 c-49 -28 -103 -89 -103
-117 0 -28 25 -22 63 15 63 62 114 81 261 97 91 9 115 -31 93 -156 -16 -96
-12 -155 11 -164 33 -13 41 16 45 163 2 78 6 144 9 147 9 9 136 -32 181 -58
57 -33 104 -90 118 -140 9 -34 7 -44 -15 -81 -41 -71 -121 -115 -282 -157 -77
-20 -113 -24 -259 -24 -223 1 -359 32 -457 106 -143 107 -106 223 102 322 72
35 208 75 255 76 28 1 27 -1 -22 -29z"/>
<path d="M10153 11125 c-140 -44 -290 -173 -356 -305 -53 -107 -70 -185 -65
-295 6 -118 35 -184 117 -266 87 -87 148 -112 281 -117 90 -3 117 0 189 22
356 109 565 432 400 620 -75 85 -256 153 -436 163 -80 5 -93 3 -99 -11 -11
-29 14 -43 88 -51 162 -15 364 -86 409 -143 18 -23 20 -36 16 -94 -10 -144
-117 -279 -288 -362 -266 -129 -498 -89 -588 104 -22 46 -26 69 -25 135 3 265
191 501 434 545 56 10 71 10 110 -5 73 -27 89 -29 96 -11 8 21 -21 55 -63 72
-40 17 -164 16 -220 -1z"/>
<path d="M15780 11114 c-190 -39 -345 -157 -436 -334 -54 -107 -31 -203 75
-309 93 -93 252 -164 428 -190 196 -30 368 11 455 107 46 51 62 100 62 187 0
92 -28 150 -112 233 -55 55 -66 72 -82 129 -33 119 -117 174 -275 179 -49 1
-101 0 -115 -2z m243 -81 c57 -23 105 -91 81 -115 -3 -4 -47 6 -97 20 -82 23
-109 26 -244 26 -84 0 -153 1 -153 3 0 8 79 51 114 63 96 31 223 33 299 3z
m-53 -142 c158 -35 258 -99 306 -196 49 -102 22 -226 -65 -292 -61 -47 -109
-58 -256 -58 -145 0 -198 10 -322 62 -151 63 -238 144 -250 231 -7 51 35 146
94 211 47 53 68 58 268 60 104 0 162 -4 225 -18z"/>
<path d="M6756 11018 c-26 -42 -48 -229 -43 -356 8 -199 29 -446 40 -460 28
-36 32 -1 32 309 l0 314 28 76 c32 89 34 115 8 129 -30 16 -49 12 -65 -12z"/>
<path d="M8283 10976 c-25 -31 -50 -119 -98 -346 -19 -89 -25 -145 -25 -245 0
-136 9 -174 34 -143 8 11 15 61 19 135 7 145 41 296 97 434 44 109 51 149 30
174 -18 21 -36 19 -57 -9z"/>
<path d="M11915 10822 c-89 -27 -131 -50 -191 -105 -73 -67 -118 -159 -117
-242 1 -117 77 -217 191 -249 110 -30 312 -17 442 31 68 25 194 101 253 154
155 138 119 299 -89 396 -57 27 -65 28 -244 30 -153 2 -195 -1 -245 -15z m446
-58 c87 -28 159 -100 159 -162 0 -76 -61 -146 -190 -222 -94 -55 -184 -85
-289 -98 -228 -28 -346 22 -365 152 -8 53 6 114 39 166 58 92 208 185 257 159
14 -8 32 -8 63 0 114 29 182 -6 222 -113 10 -27 25 -53 34 -59 23 -14 49 -2
49 23 0 28 -43 110 -69 134 -50 45 -16 53 90 20z"/>
<path d="M14324 10255 c-12 -66 -3 -309 27 -705 17 -222 22 -388 24 -750 3
-633 -16 -1706 -31 -1731 -2 -3 -4 -221 -5 -485 -2 -514 -5 -593 -44 -954 -32
-297 -43 -530 -50 -1133 -7 -528 1 -758 29 -785 13 -14 16 -14 17 -2 1 8 3
218 4 465 3 793 20 1158 76 1645 6 52 14 372 19 710 5 338 14 730 20 870 7
144 13 605 14 1060 1 751 -1 824 -22 1095 -12 160 -26 390 -31 512 -5 122 -12
226 -16 232 -13 22 -21 10 -31 -44z"/>
<path d="M3461 10232 c-11 -21 -21 -669 -11 -757 7 -64 23 -87 44 -65 12 12
15 86 16 415 1 220 2 406 1 413 -2 19 -39 14 -50 -6z"/>
<path d="M6890 9966 c-10 -27 -14 -764 -4 -790 3 -9 14 -16 24 -16 22 0 25 30
41 395 6 138 15 281 20 318 10 72 3 100 -27 111 -29 11 -44 6 -54 -18z"/>
<path d="M8339 9928 c-27 -64 -15 -313 26 -553 20 -115 41 -239 47 -275 10
-66 23 -94 39 -84 13 8 11 80 -5 175 -29 164 -56 393 -56 465 0 40 5 118 11
173 9 80 9 104 -1 116 -21 25 -46 18 -61 -17z"/>
<path d="M10221 9925 c-194 -43 -407 -219 -496 -410 -44 -94 -51 -141 -31
-209 34 -117 175 -252 305 -293 85 -26 280 -24 389 5 172 45 359 159 441 267
73 97 104 176 109 278 4 83 3 91 -28 153 -52 106 -143 160 -300 180 -52 7
-122 20 -155 28 -73 19 -148 19 -234 1z m139 -55 c0 -5 -30 -26 -67 -46 -91
-50 -189 -120 -197 -139 -24 -64 11 -65 96 -3 98 73 132 92 205 117 101 34
137 37 176 12 44 -27 74 -27 82 0 4 12 13 18 20 15 8 -3 31 -10 52 -15 21 -6
55 -26 75 -44 97 -89 83 -281 -32 -433 -101 -135 -345 -248 -575 -269 -80 -8
-205 14 -268 47 -91 46 -177 158 -177 231 0 15 9 55 21 89 69 205 298 401 511
437 74 12 78 12 78 1z"/>
<path d="M567 9748 c-12 -9 -18 -23 -15 -39 l3 -24 155 -1 c171 -1 225 -12
472 -94 150 -50 176 -64 184 -97 13 -49 -53 -132 -162 -204 -38 -26 -261 -157
-323 -191 -17 -10 -35 -28 -40 -40 -13 -33 12 -51 90 -66 455 -85 460 -86 582
-134 82 -32 178 -96 215 -143 43 -55 38 -125 -14 -196 -53 -72 -141 -152 -248
-223 -297 -198 -586 -278 -688 -189 -22 20 -38 9 -38 -27 0 -38 36 -65 105
-81 200 -45 675 185 877 425 165 197 122 349 -134 475 -118 59 -235 91 -456
129 -111 19 -157 31 -157 40 0 8 54 44 121 81 129 72 225 141 269 193 59 70
81 160 50 205 -34 49 -155 97 -410 163 -123 32 -174 40 -285 46 -108 5 -139 3
-153 -8z"/>
<path d="M12051 9677 c-6 -8 -20 -43 -32 -78 -18 -54 -23 -100 -30 -289 -4
-124 -13 -269 -18 -323 -14 -128 -15 -317 -3 -329 25 -25 39 1 45 79 3 43 13
147 21 230 9 84 18 226 22 315 7 165 15 211 53 305 l20 51 -20 26 c-23 29 -41
33 -58 13z"/>
<path d="M15682 9554 c-113 -24 -169 -63 -274 -186 -192 -226 -216 -313 -118
-436 110 -140 402 -179 745 -100 192 44 319 134 366 260 70 188 -80 393 -337
458 -92 24 -283 26 -382 4z m278 -44 c262 -40 425 -187 389 -352 -13 -56 -68
-138 -117 -172 -101 -69 -323 -118 -537 -118 -138 0 -218 14 -303 55 -49 23
-92 75 -92 111 0 75 83 210 189 308 86 80 147 111 228 116 84 6 125 -10 176
-69 47 -54 77 -64 77 -24 0 29 -47 85 -96 115 -63 40 -38 49 86 30z"/>
<path d="M3625 8939 c-186 -27 -335 -131 -335 -234 0 -48 17 -68 52 -63 21 3
23 8 20 49 -3 44 0 49 39 83 84 71 234 110 394 103 180 -9 275 -51 275 -123 0
-46 -66 -117 -175 -188 -44 -29 -114 -75 -155 -102 -100 -65 -225 -169 -238
-200 -32 -68 32 -85 348 -93 298 -7 404 -2 428 23 16 16 16 18 -2 32 -16 11
-68 14 -260 15 -267 0 -390 9 -407 26 -17 17 27 53 221 178 187 121 242 169
276 240 37 78 29 140 -25 189 -67 61 -278 91 -456 65z"/>
<path d="M6949 8863 c-1 -5 -3 -89 -4 -188 -1 -99 -8 -308 -14 -465 -18 -434
-18 -440 4 -440 30 0 35 39 70 585 33 514 33 515 -25 515 -17 0 -31 -3 -31 -7z"/>
<path d="M19810 8764 c-188 -56 -293 -119 -434 -262 -191 -194 -308 -393 -323
-547 -9 -103 15 -165 97 -247 56 -56 87 -77 172 -117 372 -175 848 -142 1148
79 147 109 246 259 280 424 38 185 -65 395 -253 520 -134 88 -231 125 -402
153 -162 26 -191 25 -285 -3z m260 -68 c182 -26 358 -107 466 -214 207 -205
190 -483 -45 -711 -102 -99 -263 -176 -446 -212 -102 -20 -331 -18 -430 4
-159 36 -331 112 -398 175 -74 69 -104 183 -78 289 48 192 304 509 486 600 63
32 213 68 340 82 6 0 53 -6 105 -13z"/>
<path d="M8508 8603 c-18 -23 -14 -423 7 -663 9 -102 20 -228 24 -280 8 -107
15 -127 37 -109 19 15 18 123 -2 349 -9 110 -14 268 -13 425 1 138 -1 258 -5
267 -11 24 -33 29 -48 11z"/>
<path d="M10225 8458 c-7 -23 -21 -961 -15 -1016 6 -51 22 -76 45 -69 16 6 23
85 35 422 6 176 14 379 17 452 3 72 3 142 0 155 -12 48 -71 88 -82 56z"/>
<path d="M15855 8225 c-112 -31 -271 -129 -349 -215 -20 -22 -61 -77 -91 -123
-91 -136 -88 -219 10 -326 99 -106 255 -155 495 -156 225 0 356 48 504 184 51
48 134 174 142 218 15 79 -50 177 -150 226 -31 15 -84 53 -118 83 -70 63 -119
91 -193 110 -64 17 -185 17 -250 -1z m309 -78 c31 -14 56 -30 56 -35 0 -5 -66
-12 -147 -15 -212 -8 -325 -45 -293 -97 7 -11 22 -9 77 9 235 76 568 16 630
-113 23 -49 11 -93 -50 -178 -133 -185 -358 -269 -639 -238 -122 13 -262 55
-313 94 -40 31 -65 82 -65 134 0 157 252 400 475 459 78 20 201 11 269 -20z"/>
<path d="M11962 8180 c-103 -35 -149 -64 -232 -149 -114 -116 -175 -274 -168
-431 5 -105 33 -164 119 -246 222 -211 552 -139 690 150 100 209 45 441 -126
529 -50 26 -176 35 -251 18 -62 -14 -96 -49 -75 -75 11 -13 17 -12 49 2 51 22
194 21 244 -1 105 -47 143 -122 136 -267 -4 -77 -9 -98 -41 -162 -123 -250
-396 -318 -590 -147 -93 81 -113 157 -78 294 30 116 82 213 151 281 88 87 149
118 272 139 49 8 66 36 43 71 -20 30 -39 30 -143 -6z"/>
<path d="M3738 7468 c-22 -19 -28 -44 -15 -61 7 -8 44 -24 82 -36 139 -43 171
-55 255 -98 106 -53 132 -76 128 -111 -4 -37 -80 -81 -208 -122 -96 -30 -130
-53 -130 -87 0 -24 90 -76 441 -254 45 -23 117 -92 129 -125 20 -52 12 -83
-35 -133 -108 -115 -359 -189 -605 -178 -133 6 -164 14 -245 62 -51 31 -61 34
-73 22 -32 -32 39 -92 150 -128 117 -37 327 -34 493 7 170 42 324 133 364 216
53 110 6 207 -152 312 -78 51 -113 71 -269 146 -46 22 -68 38 -68 51 0 13 18
23 68 40 132 43 174 75 197 152 13 42 12 49 -8 89 -25 48 -88 90 -230 152 -74
31 -241 96 -250 96 -2 0 -10 -6 -19 -12z"/>
<path d="M7075 7061 c-3 -6 -5 -54 -5 -108 1 -54 -3 -125 -9 -158 -14 -75 -14
-200 -1 -374 6 -75 19 -266 30 -426 23 -315 25 -335 46 -335 16 0 28 41 21 73
-3 12 -9 126 -13 252 -3 127 -8 232 -9 235 -2 3 -7 104 -10 225 -6 180 -4 236
9 310 9 50 16 133 16 186 0 80 -3 99 -18 112 -20 19 -48 22 -57 8z"/>
<path d="M8575 6770 c-8 -12 -20 -291 -17 -400 2 -75 16 -200 52 -445 11 -71
22 -151 25 -177 7 -51 21 -69 37 -47 13 19 5 108 -39 434 -17 124 -18 195 -10
550 2 85 1 90 -20 93 -11 2 -24 -2 -28 -8z"/>
<path d="M11986 6628 c-15 -74 -14 -160 4 -341 11 -111 27 -332 35 -492 9
-159 18 -298 21 -308 3 -10 11 -16 17 -14 16 5 12 478 -5 712 -7 94 -11 228
-10 298 3 111 1 132 -14 148 -23 25 -43 24 -48 -3z"/>
<path d="M10320 6610 c-7 -13 -7 -40 1 -90 8 -51 8 -109 0 -208 -6 -76 -11
-226 -11 -333 0 -107 -5 -283 -11 -392 -9 -149 -9 -201 0 -210 23 -23 42 16
51 109 24 236 29 314 35 509 3 116 11 253 16 305 13 131 2 287 -23 312 -23 23
-45 23 -58 -2z"/>
<path d="M15820 6420 c-19 -6 -88 -31 -153 -58 -111 -44 -120 -50 -132 -82 -7
-19 -43 -66 -80 -105 -172 -180 -242 -326 -233 -491 4 -73 10 -94 47 -169 46
-93 137 -200 213 -250 24 -15 61 -40 83 -54 60 -40 221 -108 298 -125 304 -70
658 90 785 354 51 107 75 216 75 345 0 179 -48 300 -166 419 -126 127 -266
186 -492 207 -185 17 -210 18 -245 9z m195 -89 c22 -10 67 -39 99 -65 63 -49
79 -52 84 -19 2 14 -8 30 -32 50 -37 29 -47 53 -22 53 28 0 173 -53 238 -87
90 -47 187 -137 221 -204 71 -143 76 -383 10 -552 -28 -72 -98 -171 -154 -218
-61 -52 -138 -99 -162 -99 -9 0 -31 -9 -50 -20 -53 -32 -179 -53 -273 -46
-226 16 -520 188 -637 373 -59 93 -73 223 -36 331 56 166 272 403 439 480 94
44 209 54 275 23z"/>
<path d="M16044 5209 c-3 -6 -2 -15 3 -20 12 -12 53 1 53 17 0 17 -46 19 -56
3z"/>
<path d="M16200 5210 c0 -5 5 -10 10 -10 6 0 10 5 10 10 0 6 -4 10 -10 10 -5
0 -10 -4 -10 -10z"/>
<path d="M15950 5200 c0 -5 5 -10 10 -10 6 0 10 5 10 10 0 6 -4 10 -10 10 -5
0 -10 -4 -10 -10z"/>
<path d="M15406 5078 c-10 -40 -6 -97 10 -137 17 -43 37 -57 53 -37 18 21 -25
196 -48 196 -5 0 -11 -10 -15 -22z"/>
<path d="M1 4704 c0 -11 3 -14 6 -6 3 7 2 16 -1 19 -3 4 -6 -2 -5 -13z"/>
<path d="M2 4640 c0 -19 2 -27 5 -17 2 9 2 25 0 35 -3 9 -5 1 -5 -18z"/>
<path d="M2 4525 c0 -16 2 -22 5 -12 2 9 2 23 0 30 -3 6 -5 -1 -5 -18z"/>
<path d="M1 4474 c0 -11 3 -14 6 -6 3 7 2 16 -1 19 -3 4 -6 -2 -5 -13z"/>
<path d="M2 4395 c0 -16 2 -22 5 -12 2 9 2 23 0 30 -3 6 -5 -1 -5 -18z"/>
<path d="M0 4271 c0 -53 4 -80 10 -76 9 6 4 143 -6 154 -2 2 -4 -33 -4 -78z"/>
<path d="M1 4080 c-1 -79 0 -83 16 -67 13 13 14 20 6 28 -7 7 -10 24 -7 38 2
14 0 40 -5 56 -7 24 -9 14 -10 -55z"/>
<path d="M1 3933 c0 -36 3 -43 9 -28 12 28 12 63 0 70 -6 4 -10 -12 -9 -42z"/>
<path d="M0 3603 c0 -257 1 -276 16 -261 17 16 27 94 16 113 -4 6 -7 98 -8
205 -2 231 -1 220 -14 220 -6 0 -10 -99 -10 -277z"/>
<path d="M0 2909 c0 -316 3 -400 12 -397 8 3 14 25 15 54 1 27 5 59 8 71 3 12
0 23 -6 25 -8 3 -8 10 2 27 12 20 12 24 -5 37 -14 10 -17 17 -9 25 6 6 8 23 3
44 -4 19 -5 37 -2 40 6 6 13 66 13 115 0 14 0 86 0 160 0 74 1 142 1 150 2 35
-3 50 -17 50 -13 0 -15 -51 -15 -401z"/>
<path d="M0 1887 c1 -460 4 -617 13 -620 8 -2 8 -18 0 -66 -8 -43 -9 -71 -2
-88 7 -19 6 -35 -1 -54 -9 -21 -8 -33 4 -56 13 -26 13 -33 1 -50 -13 -18 -13
-25 0 -51 9 -16 16 -57 17 -91 1 -43 5 -61 15 -61 10 0 13 24 14 98 2 135 -1
195 -12 208 -6 7 -4 16 6 24 10 8 13 20 9 29 -8 19 -26 165 -25 201 6 126 5
303 -2 307 -4 2 -3 11 4 19 7 9 8 22 2 41 -5 16 -7 42 -3 59 4 17 5 48 4 70
-10 124 -17 309 -18 447 -1 130 2 159 14 167 11 7 12 12 4 18 -7 4 -14 18 -15
31 -2 14 -10 26 -17 29 -10 3 -12 -118 -12 -611z"/>
<path d="M44 695 c-13 -27 -5 -86 12 -92 15 -5 25 63 14 93 -12 30 -12 30 -26
-1z"/>
<path d="M47 498 c-3 -23 -2 -47 3 -53 5 -6 10 -24 13 -40 2 -16 9 -31 15 -33
9 -3 10 37 1 58 -1 3 -3 23 -4 45 -4 61 -4 65 -14 65 -4 0 -11 -19 -14 -42z"/>
<path d="M50 261 c0 -28 5 -53 11 -56 15 -10 17 -6 25 53 6 49 5 52 -15 52
-19 0 -21 -6 -21 -49z"/>
<path d="M80 109 c0 -6 -7 -9 -15 -5 -20 7 -19 0 5 -24 33 -33 51 -20 34 24
-7 18 -24 22 -24 5z"/>
</g>
</svg>
