<?xml version="1.0" standalone="no"?>
<!DOCTYPE svg PUBLIC "-//W3C//DTD SVG 20010904//EN"
 "http://www.w3.org/TR/2001/REC-SVG-20010904/DTD/svg10.dtd">
<svg version="1.0" xmlns="http://www.w3.org/2000/svg"
 width="3264.000000pt" height="2448.000000pt" viewBox="0 0 3264.000000 2448.000000"
 preserveAspectRatio="xMidYMid meet">
<metadata>
Created by potrace 1.12, written by Peter Selinger 2001-2015
</metadata>
<g transform="translate(0.000000,2448.000000) scale(0.100000,-0.100000)"
fill="#000000" stroke="none">
<path d="M19570 24000 c0 -5 7 -10 16 -10 8 0 12 5 9 10 -3 6 -10 10 -16 10
-5 0 -9 -4 -9 -10z"/>
<path d="M19520 23989 c0 -5 5 -7 10 -4 6 3 10 8 10 11 0 2 -4 4 -10 4 -5 0
-10 -5 -10 -11z"/>
<path d="M10571 22373 c-30 -32 -64 -80 -77 -108 -12 -27 -31 -58 -43 -67 -11
-10 -23 -30 -26 -45 -4 -15 -18 -52 -31 -80 -13 -29 -27 -74 -30 -100 -3 -27
-7 -69 -10 -95 -3 -25 -1 -54 4 -64 8 -13 5 -22 -12 -35 -19 -16 -20 -20 -9
-50 26 -67 -33 -116 -156 -129 -93 -10 -137 7 -179 68 -17 26 -32 57 -32 69 0
39 -19 75 -38 71 -9 -2 -15 -11 -14 -19 2 -8 9 -41 14 -74 10 -57 27 -93 55
-123 7 -7 13 -20 13 -27 0 -8 13 -23 29 -34 34 -24 107 -27 236 -8 l80 12 5
35 c8 47 21 68 69 115 31 30 41 47 41 71 0 38 -11 47 -54 46 l-31 -1 23 19
c13 11 21 24 17 30 -4 6 0 22 9 35 9 13 16 40 16 59 0 19 4 37 9 40 5 3 12 21
15 40 4 19 13 39 20 45 7 6 16 28 20 49 8 50 61 132 85 132 10 0 25 7 32 16 8
9 31 27 51 40 33 21 38 29 38 62 0 46 -14 62 -54 62 -24 0 -42 -12 -85 -57z"/>
<path d="M6430 22225 c-114 -26 -202 -56 -276 -94 -58 -29 -84 -51 -130 -106
-31 -39 -63 -74 -70 -78 -20 -11 -17 -71 4 -89 19 -16 138 -58 165 -58 10 0
25 -4 35 -9 9 -5 58 -22 107 -36 50 -15 102 -36 117 -46 14 -10 32 -19 40 -19
8 0 30 -8 51 -19 20 -10 53 -22 72 -25 26 -5 42 -17 61 -46 21 -31 34 -40 67
-45 23 -4 70 -25 104 -46 34 -21 67 -39 72 -39 11 0 91 -105 91 -120 0 -18
-107 -174 -142 -206 -148 -135 -287 -196 -371 -161 -44 19 -58 53 -30 76 26
22 46 57 63 111 8 25 30 77 50 116 43 83 66 180 49 201 -15 17 -29 17 -29 0 0
-8 -13 -32 -29 -53 -15 -22 -33 -56 -40 -76 -7 -20 -19 -39 -28 -42 -9 -4 -13
-13 -9 -23 4 -10 -3 -26 -18 -42 -25 -26 -42 -98 -50 -201 -1 -19 -6 -52 -10
-73 -8 -35 -6 -40 30 -74 l38 -36 79 6 c56 4 88 11 106 24 14 11 46 29 71 42
60 31 122 81 198 160 126 131 122 124 128 261 4 106 -1 137 -20 121 -8 -7 -20
0 -39 25 -15 18 -32 34 -37 34 -6 0 -32 16 -59 35 -26 19 -54 35 -60 35 -6 0
-23 7 -36 15 -14 8 -37 22 -51 31 -20 12 -23 18 -14 29 20 24 1 36 -45 29 -39
-5 -55 0 -157 49 -62 31 -133 63 -158 71 -25 9 -92 32 -150 52 -144 50 -156
62 -95 91 19 9 35 20 35 25 0 11 133 72 225 103 88 30 216 46 320 39 155 -10
205 -5 205 20 0 39 -93 65 -245 71 -85 3 -139 0 -185 -10z"/>
<path d="M10069 22219 c-25 -28 -49 -92 -49 -131 0 -15 -9 -33 -20 -41 -12 -8
-18 -20 -15 -30 4 -8 2 -18 -4 -22 -6 -3 -11 -16 -11 -28 0 -12 -7 -31 -15
-41 -8 -11 -15 -27 -15 -35 1 -31 47 36 54 78 5 33 11 42 32 47 19 5 24 12 21
25 -6 22 55 89 102 114 57 29 46 71 -22 82 -30 4 -40 1 -58 -18z"/>
<path d="M7095 22171 c-31 -11 -68 -36 -97 -66 -27 -26 -48 -50 -48 -52 0 -3
12 -2 28 2 15 4 34 8 42 9 8 1 37 9 64 17 50 14 69 34 80 82 8 32 0 33 -69 8z"/>
<path d="M16651 22158 c-27 -29 -36 -63 -24 -91 6 -14 7 -63 3 -127 -7 -91
-12 -393 -11 -615 0 -38 -5 -105 -11 -148 -8 -56 -9 -80 0 -89 13 -13 49 -4
80 20 l23 18 5 334 c2 184 7 360 10 390 11 97 17 183 18 255 l1 70 -37 3 c-27
2 -41 -2 -57 -20z"/>
<path d="M13495 22134 c-86 -19 -225 -74 -264 -106 -25 -20 -80 -62 -100 -78
-20 -15 -41 -58 -41 -85 0 -43 14 -54 56 -45 19 4 34 6 34 3 0 -3 7 0 15 7 8
7 15 27 15 45 0 34 32 66 90 91 14 6 42 18 62 27 109 47 254 63 301 33 31 -21
32 -25 12 -51 -55 -72 -104 -141 -127 -178 -15 -24 -53 -72 -83 -106 -30 -34
-55 -67 -55 -74 0 -7 -18 -38 -40 -70 -22 -31 -40 -62 -40 -67 0 -6 -4 -10 -8
-10 -12 0 -67 -87 -97 -152 -14 -30 -36 -65 -50 -78 -30 -28 -34 -79 -7 -103
46 -41 160 -29 350 37 303 106 455 175 528 239 60 53 58 68 -8 60 -29 -3 -57
-9 -63 -13 -27 -20 -196 -87 -330 -131 -376 -125 -474 -118 -330 21 25 25 66
74 90 110 51 75 85 122 174 239 35 47 79 114 98 150 19 36 37 73 42 81 26 49
30 61 25 75 -4 8 -1 22 6 30 21 25 -8 65 -65 91 -57 27 -92 28 -190 8z"/>
<path d="M6897 22000 c-14 -11 -28 -20 -32 -20 -15 0 -105 -103 -105 -121 0
-10 -5 -19 -10 -19 -6 0 -16 -12 -22 -26 -13 -29 0 -44 38 -44 16 0 24 10 34
41 9 25 23 45 37 52 13 5 23 17 23 25 0 8 20 37 45 63 25 26 45 53 45 59 0 16
-25 12 -53 -10z"/>
<path d="M10282 21338 c-7 -7 -12 -20 -12 -30 0 -10 -6 -29 -14 -41 -8 -12
-17 -37 -21 -55 -9 -43 17 -55 50 -21 19 19 25 37 27 88 3 64 -6 83 -30 59z"/>
<path d="M6380 20569 c-62 -8 -206 -50 -280 -82 -19 -9 -54 -29 -76 -45 l-42
-30 11 -42 c11 -41 11 -41 51 -34 23 3 53 19 73 37 37 34 85 57 164 80 125 37
239 50 239 28 0 -4 -36 -44 -80 -88 -82 -83 -86 -89 -71 -111 10 -17 72 18 95
54 9 13 21 24 26 24 6 0 42 31 80 68 86 84 90 104 24 132 -49 21 -103 23 -214
9z"/>
<path d="M9708 20240 c-62 -11 -200 -56 -258 -85 -65 -33 -111 -80 -112 -116
-1 -17 3 -34 9 -40 12 -12 71 11 139 57 94 61 255 104 395 104 63 0 69 -2 69
-20 0 -12 -33 -56 -77 -104 -111 -117 -141 -199 -109 -291 34 -97 200 -101
464 -11 41 13 98 39 128 57 111 68 45 78 -150 25 -161 -45 -281 -56 -324 -31
-25 15 -52 51 -52 71 0 2 17 23 38 47 44 48 112 147 112 162 0 6 9 16 20 23
11 6 29 29 39 51 l20 39 -20 26 c-11 14 -37 30 -57 36 -43 11 -204 11 -274 0z"/>
<path d="M6327 20203 c-6 -34 14 -75 47 -96 29 -19 194 -41 246 -32 37 6 67
-6 57 -22 -16 -25 -134 -56 -241 -62 -61 -4 -117 -10 -124 -15 -17 -10 -15
-26 6 -33 9 -4 30 -16 45 -27 52 -38 169 -21 288 40 26 13 53 24 60 24 8 0 28
7 44 16 17 9 47 22 69 30 66 24 125 67 126 91 0 39 -33 46 -227 49 -185 4
-295 19 -355 49 -17 8 -32 15 -33 15 -2 0 -5 -12 -8 -27z"/>
<path d="M13249 20193 c-10 -2 -20 -14 -24 -26 -12 -38 -16 -289 -5 -357 5
-36 12 -92 15 -125 4 -33 9 -63 11 -67 3 -4 7 -23 9 -42 11 -80 37 -104 79
-73 15 11 18 26 17 77 -1 35 -6 79 -11 99 -17 59 -28 252 -19 311 5 30 11 85
14 122 4 59 2 69 -15 78 -19 10 -42 11 -71 3z"/>
<path d="M29354 20103 c-42 -5 -57 -24 -87 -108 -14 -38 -39 -96 -56 -128 -17
-32 -31 -64 -31 -70 0 -7 -9 -30 -20 -52 -11 -22 -20 -44 -20 -51 0 -6 -7 -17
-15 -24 -9 -7 -13 -21 -9 -35 4 -15 0 -24 -11 -29 -10 -3 -15 -12 -12 -20 3
-7 -5 -35 -18 -62 -14 -27 -25 -57 -25 -66 0 -10 -9 -39 -19 -67 -13 -32 -21
-77 -22 -132 -1 -54 -7 -92 -17 -107 -12 -18 -12 -27 -2 -53 7 -17 24 -35 37
-40 37 -14 126 4 161 32 26 20 52 58 52 75 0 5 -132 -4 -171 -12 -18 -3 -28 0
-32 10 -7 18 24 97 53 133 10 13 24 50 31 81 6 31 22 78 35 103 13 25 30 68
38 95 23 82 52 154 75 184 11 16 21 34 21 40 0 6 9 28 19 48 11 20 32 64 47
97 15 33 35 72 46 87 10 14 18 38 18 52 0 27 0 27 -66 19z"/>
<path d="M16495 20076 c-27 -7 -71 -23 -96 -35 -50 -24 -149 -115 -149 -137 0
-27 62 -15 129 25 36 21 89 47 116 56 65 23 201 31 249 15 41 -13 106 -74 106
-100 0 -20 -54 -72 -95 -93 -16 -8 -68 -27 -113 -41 -133 -42 -252 -37 -252 9
0 7 -9 24 -21 39 -41 52 -118 20 -104 -43 4 -20 22 -42 54 -65 43 -32 55 -36
137 -41 111 -9 206 10 308 60 136 66 185 128 166 210 -12 52 -41 78 -128 115
-64 27 -93 33 -167 36 -54 2 -110 -2 -140 -10z"/>
<path d="M23583 19962 c-13 -2 -23 -8 -23 -13 0 -5 -18 -29 -40 -53 -22 -24
-40 -47 -40 -51 0 -4 -14 -28 -31 -53 -38 -56 -159 -287 -159 -302 0 -7 -6
-26 -14 -43 -17 -39 -65 -171 -76 -212 -5 -16 -16 -55 -24 -85 -19 -68 -19
-72 -2 -95 12 -16 18 -18 37 -8 13 6 31 13 39 16 11 3 19 30 27 97 7 50 19
103 27 116 9 13 16 31 16 41 0 10 7 31 15 47 8 15 15 34 15 41 0 6 9 22 20 35
11 13 20 31 20 40 0 10 31 80 70 155 51 101 84 153 125 196 37 38 55 66 55 83
0 14 5 28 10 31 31 19 -3 28 -67 17z"/>
<path d="M5450 19755 c-155 -28 -295 -92 -392 -178 -61 -55 -67 -92 -20 -123
50 -34 142 -18 142 26 0 10 -7 23 -15 30 -24 20 -17 33 28 61 56 35 84 44 207
74 104 25 194 32 204 17 2 -4 2 -27 -1 -50 -4 -31 -18 -56 -55 -99 -28 -31
-67 -92 -88 -135 -21 -43 -44 -86 -53 -96 -44 -50 -137 -273 -137 -329 0 -40
21 -41 30 -2 4 16 14 25 32 27 26 3 48 36 48 72 0 10 4 21 9 24 10 6 101 186
101 198 0 5 20 37 45 74 25 36 45 67 45 69 0 2 11 20 24 39 13 19 27 56 30 81
5 33 14 50 32 62 14 9 23 22 20 30 -3 7 0 25 6 38 10 23 8 28 -23 55 -28 24
-109 53 -137 49 -4 0 -41 -7 -82 -14z"/>
<path d="M24048 19676 c-97 -47 -219 -158 -287 -261 -70 -106 -98 -185 -100
-275 -2 -80 19 -100 102 -100 73 0 123 21 183 77 49 45 112 140 120 183 5 24
13 31 39 36 18 3 42 3 54 -1 48 -15 68 127 26 191 -19 29 -48 28 -54 -1 -2
-11 -14 -33 -26 -50 -13 -16 -34 -53 -48 -81 -14 -27 -38 -65 -54 -84 -112
-133 -150 -159 -245 -167 -57 -6 -58 -5 -58 20 0 15 13 40 30 59 17 18 30 36
30 41 0 4 19 33 43 64 23 30 47 64 54 75 22 40 136 146 172 161 20 9 62 23 93
32 54 15 88 42 88 72 0 12 -60 33 -95 33 -11 -1 -41 -11 -67 -24z"/>
<path d="M25105 19679 c-92 -49 -216 -166 -259 -244 -9 -16 -20 -37 -25 -45
-5 -8 -15 -30 -22 -49 -7 -18 -23 -47 -37 -63 -18 -21 -23 -36 -19 -61 2 -18
-2 -45 -10 -61 -12 -23 -13 -34 -3 -54 7 -17 8 -28 0 -36 -15 -15 -13 -30 11
-84 25 -57 42 -69 111 -82 103 -20 266 29 336 101 l33 34 -44 3 c-28 2 -70 -6
-114 -21 -137 -48 -207 -47 -267 5 -41 35 -43 41 -17 67 11 11 27 46 36 78 45
156 150 310 259 380 22 14 72 33 113 43 78 18 113 41 113 72 0 42 -127 53
-195 17z"/>
<path d="M25756 19674 c-75 -38 -122 -80 -145 -127 -24 -49 -29 -99 -9 -79 7
7 18 12 26 12 8 0 35 18 60 41 58 51 100 69 178 76 60 5 62 5 103 -32 58 -53
56 -82 -10 -130 -100 -74 -281 -109 -337 -64 l-26 20 -8 -22 c-6 -15 -3 -34 7
-55 8 -17 15 -36 15 -42 0 -5 13 -15 29 -21 23 -10 47 -8 138 13 225 50 317
129 304 259 -5 50 -11 63 -44 96 -44 45 -130 81 -190 81 -25 0 -62 -11 -91
-26z"/>
<path d="M30929 19680 c-79 -14 -210 -91 -255 -151 -40 -53 -57 -98 -44 -115
10 -11 16 -8 37 16 14 17 30 30 37 30 7 0 24 10 38 23 55 50 201 97 304 97 44
0 103 -28 132 -63 11 -13 8 -18 -15 -34 -131 -90 -416 -146 -510 -101 -16 8
-26 8 -37 -1 -19 -16 -32 -111 -17 -121 29 -18 298 12 379 42 88 32 182 76
182 86 0 5 10 13 23 19 12 6 29 23 37 39 8 16 21 38 30 48 10 13 11 20 4 23
-7 2 -10 13 -7 24 8 30 -36 87 -87 113 -52 26 -159 38 -231 26z"/>
<path d="M15625 19636 c-72 -35 -145 -96 -145 -122 0 -27 79 -6 121 33 24 22
97 48 108 38 6 -7 -28 -54 -108 -148 -141 -165 -155 -187 -202 -312 -23 -61
-23 -64 -1 -93 15 -20 30 -24 88 -28 38 -3 74 -7 81 -9 20 -7 146 15 208 36
99 34 227 91 273 122 63 43 125 104 117 116 -15 25 -77 11 -149 -33 -128 -81
-346 -156 -459 -159 -51 -1 -70 2 -77 13 -15 22 -2 60 33 100 64 72 152 184
172 215 11 18 42 61 68 95 44 56 67 98 67 120 0 14 -44 37 -85 44 -33 6 -52 1
-110 -28z"/>
<path d="M22329 19638 c-44 -23 -72 -45 -88 -71 -21 -32 -35 -40 -95 -58 -39
-12 -76 -25 -82 -30 -6 -5 -10 -29 -8 -56 2 -30 -1 -50 -9 -55 -9 -6 -9 -8 1
-8 6 0 12 -10 12 -23 0 -32 18 -49 41 -36 21 11 114 144 129 184 5 14 17 25
27 25 9 0 35 12 57 28 36 25 47 27 135 27 l96 0 52 -40 c28 -22 52 -45 52 -51
2 -21 -57 -63 -154 -109 -188 -89 -345 -146 -395 -143 -56 4 -55 4 -103 -144
-25 -79 -53 -192 -62 -253 -9 -60 -23 -117 -30 -125 -15 -17 -39 -166 -29
-181 3 -6 1 -16 -5 -23 -6 -7 -12 -39 -13 -72 -3 -55 -2 -59 21 -62 69 -10 94
22 111 145 6 44 15 95 20 114 6 19 10 54 10 79 0 25 10 79 21 120 14 49 22
111 24 179 l3 104 52 14 c29 7 55 11 57 9 3 -2 35 6 71 19 245 85 474 222 458
273 -4 11 -2 23 4 27 12 8 3 54 -16 76 -8 8 -14 23 -14 31 0 24 -72 77 -135
99 -82 29 -140 25 -216 -13z"/>
<path d="M6990 19613 c-25 -1 -101 -7 -170 -13 -69 -5 -182 -15 -251 -20 -131
-11 -224 -36 -246 -67 -15 -20 -16 -23 -3 -43 12 -19 142 -19 270 -1 47 6 204
23 349 36 225 21 270 28 309 47 26 13 48 28 49 34 5 15 -138 36 -210 32 -28
-2 -72 -4 -97 -5z"/>
<path d="M28360 19610 c-75 -16 -209 -78 -301 -142 -64 -43 -179 -162 -179
-185 0 -8 -8 -28 -17 -44 -9 -15 -14 -31 -11 -34 9 -9 102 59 165 121 89 87
223 159 357 191 68 15 83 8 65 -31 -15 -33 -7 -42 51 -53 l44 -8 23 43 c52 98
15 153 -102 151 -33 -1 -76 -5 -95 -9z"/>
<path d="M29770 19591 c-5 -11 -10 -28 -10 -38 0 -17 -23 -94 -57 -193 -9 -25
-15 -64 -14 -88 2 -42 -16 -111 -32 -123 -4 -3 -5 -24 -1 -47 8 -51 25 -58
131 -55 103 3 191 51 314 170 33 32 66 61 74 66 8 4 15 14 15 21 0 7 10 21 21
32 12 10 28 34 36 52 7 17 17 32 22 32 5 0 41 39 80 87 49 61 67 89 58 95 -15
9 -57 0 -77 -17 -8 -7 -25 -16 -38 -20 -13 -4 -27 -18 -32 -31 -5 -13 -14 -24
-19 -24 -5 0 -18 -15 -29 -33 -71 -121 -247 -273 -355 -305 -70 -21 -132 -19
-142 6 -6 16 20 78 41 97 6 6 19 25 28 43 9 17 23 45 31 61 8 16 15 36 15 44
0 9 14 45 30 80 17 36 30 75 30 86 0 19 -6 21 -55 21 -43 0 -56 -4 -65 -19z"/>
<path d="M12304 19585 c-68 -19 -218 -81 -274 -113 -81 -46 -100 -89 -47 -103
24 -6 47 2 135 51 119 65 159 78 247 82 60 3 60 3 63 -26 2 -19 -2 -32 -12
-38 -9 -5 -16 -18 -16 -30 0 -14 -5 -18 -15 -14 -15 5 -24 -3 -201 -176 -99
-96 -114 -114 -114 -132 0 -8 -9 -18 -20 -21 -11 -3 -20 -12 -20 -18 -1 -7
-14 -28 -30 -47 -17 -19 -30 -40 -30 -46 0 -26 69 -73 117 -80 165 -25 546 80
703 193 65 47 71 53 64 64 -10 17 -79 0 -173 -42 -203 -90 -560 -144 -612 -92
-12 12 12 62 32 68 32 11 280 268 301 312 11 24 33 54 49 67 37 31 58 111 35
135 -21 20 -119 24 -182 6z"/>
<path d="M26855 19564 c-14 -21 -18 -52 -19 -148 -1 -66 2 -145 8 -173 9 -47
8 -54 -8 -66 -14 -10 -16 -16 -7 -21 7 -5 9 -20 5 -41 -10 -53 15 -80 99 -105
109 -34 217 -20 338 41 99 51 278 207 294 258 3 11 10 21 16 21 5 0 15 16 23
35 8 19 20 35 25 35 6 0 25 25 42 55 17 30 35 55 40 55 13 0 11 27 -2 35 -5 4
-18 0 -27 -8 -9 -9 -30 -19 -45 -23 -27 -6 -48 -29 -134 -147 -37 -49 -117
-128 -173 -168 -60 -43 -149 -79 -241 -95 -92 -16 -122 -9 -183 41 -41 34 -43
38 -36 71 5 20 15 43 23 52 10 12 13 33 11 67 -4 50 14 130 43 192 22 45 12
63 -36 63 -31 0 -42 -5 -56 -26z"/>
<path d="M10385 19510 c-71 -11 -178 -26 -236 -35 -58 -9 -164 -20 -235 -24
-127 -9 -181 -21 -196 -44 -12 -19 -9 -64 5 -69 53 -20 285 -1 567 47 275 46
347 63 378 90 66 57 -38 70 -283 35z"/>
<path d="M16815 19504 c-44 -7 -204 -16 -355 -20 -179 -4 -286 -11 -305 -19
-31 -12 -64 -59 -51 -72 13 -13 414 -15 576 -3 258 19 385 49 385 91 0 36
-112 47 -250 23z"/>
<path d="M9005 19495 c-185 -42 -390 -145 -514 -260 -87 -80 -102 -106 -81
-145 20 -38 98 -14 119 38 17 41 97 115 161 150 135 71 293 121 397 125 74 3
123 18 123 36 0 22 -89 72 -127 70 -10 0 -45 -7 -78 -14z"/>
<path d="M28349 19398 c-24 -17 -72 -57 -106 -89 -109 -101 -262 -175 -345
-167 -18 2 -31 6 -28 9 8 9 -21 39 -32 33 -5 -3 -7 -11 -5 -17 3 -7 -7 -24
-20 -39 l-25 -27 21 -30 c25 -35 21 -34 116 -31 52 1 86 9 132 30 53 24 147
82 163 99 3 3 28 26 55 51 55 49 103 108 128 157 33 63 14 70 -54 21z"/>
<path d="M28530 19380 c-6 -16 -9 -42 -6 -57 4 -16 0 -58 -8 -93 -20 -84 -21
-80 20 -80 64 0 72 10 72 95 -1 42 -5 78 -9 81 -5 3 -9 16 -9 30 0 13 -4 24
-9 24 -5 0 -16 7 -24 15 -13 13 -16 11 -27 -15z"/>
<path d="M13575 19394 c-16 -2 -77 -9 -135 -15 -124 -12 -271 -36 -304 -49
-32 -12 -96 -69 -96 -85 0 -19 92 -23 166 -8 118 24 262 42 375 47 63 3 162 8
220 11 110 5 179 24 179 50 0 26 -23 31 -195 45 -112 9 -157 10 -210 4z"/>
<path d="M9130 19345 c0 -9 -7 -18 -15 -21 -8 -4 -15 -10 -15 -15 0 -5 -18
-32 -40 -61 -22 -29 -47 -67 -55 -85 -9 -18 -20 -35 -26 -38 -5 -4 -26 -38
-47 -77 -20 -39 -45 -85 -54 -102 -9 -18 -23 -38 -32 -45 -9 -8 -16 -21 -16
-30 0 -9 -7 -24 -14 -34 -8 -10 -12 -27 -9 -37 3 -11 0 -20 -5 -20 -6 0 -16
-17 -22 -37 -32 -108 79 -168 255 -137 44 7 104 23 133 34 69 26 218 105 262
138 40 30 90 83 90 94 0 24 -89 -8 -175 -63 -152 -96 -381 -139 -474 -90 -28
15 -18 67 20 103 16 15 29 31 29 37 0 5 6 16 14 24 8 8 30 43 49 78 18 35 47
84 62 109 96 149 142 263 114 281 -20 13 -29 11 -29 -6z"/>
<path d="M24193 19322 c-23 -14 -7 -142 24 -203 34 -63 54 -79 78 -59 10 8 29
16 43 18 39 5 40 10 4 43 -18 16 -32 38 -32 48 0 9 -15 35 -33 57 -19 21 -32
45 -29 52 2 7 -4 22 -14 33 -19 21 -23 22 -41 11z"/>
<path d="M6049 19217 c-36 -18 -117 -71 -180 -117 -115 -86 -133 -98 -236
-159 -112 -66 -125 -72 -195 -87 -79 -16 -98 -13 -146 23 -17 13 -36 22 -41
19 -14 -9 -6 -127 10 -136 47 -30 183 -17 250 22 20 13 68 41 106 63 79 46
169 106 283 190 45 33 96 69 114 80 58 36 139 137 109 134 -5 0 -38 -15 -74
-32z"/>
<path d="M30597 19183 c-4 -3 -7 -16 -7 -29 0 -12 -5 -24 -11 -26 -5 -2 -7
-11 -3 -21 3 -10 13 -16 20 -13 9 3 14 -2 14 -14 0 -13 17 -26 57 -45 32 -14
64 -32 73 -39 14 -12 48 -25 160 -59 67 -20 160 -21 211 -1 87 34 78 50 -42
69 -151 24 -218 43 -286 81 -38 21 -70 40 -73 44 -38 43 -96 71 -113 53z"/>
<path d="M25676 19163 c-25 -25 25 -133 62 -133 8 0 23 -7 32 -15 22 -19 140
-45 205 -44 109 2 245 43 245 74 0 13 -20 15 -147 9 -168 -7 -226 3 -291 54
-46 37 -98 63 -106 55z"/>
<path d="M7131 19107 c-24 -12 -47 -67 -38 -91 3 -6 33 -17 68 -25 35 -7 73
-15 84 -18 26 -5 145 -119 145 -138 1 -6 17 -23 38 -38 98 -73 235 -203 237
-224 2 -29 60 -83 89 -83 14 0 26 4 26 9 0 5 10 11 23 13 13 2 22 10 22 20 0
24 -167 192 -286 288 -24 19 -88 80 -144 135 -105 106 -185 165 -219 165 -12
0 -32 -6 -45 -13z"/>
<path d="M17391 19041 c-9 -6 -18 -37 -23 -78 -5 -42 -14 -72 -23 -79 -23 -17
-93 -26 -115 -14 -28 15 -92 12 -117 -5 -25 -18 -67 -100 -60 -119 6 -16 65
-10 87 10 8 7 38 16 66 19 46 7 53 5 68 -16 9 -13 16 -33 16 -44 0 -19 -103
-168 -172 -249 -40 -47 -89 -79 -163 -107 -104 -39 -95 -92 14 -90 75 1 122
23 180 86 39 42 91 134 91 161 0 6 9 19 20 29 18 16 25 17 60 6 45 -13 52 -24
74 -106 8 -33 27 -84 41 -112 14 -29 25 -59 25 -67 0 -8 4 -17 9 -20 4 -3 16
-34 26 -68 9 -35 20 -67 24 -73 9 -12 25 -83 46 -195 9 -47 20 -101 25 -120
22 -86 35 -284 35 -550 0 -320 -21 -461 -120 -820 -84 -301 -126 -407 -296
-754 -21 -42 -26 -62 -19 -71 18 -21 49 -24 69 -7 24 21 91 121 91 135 0 6 14
39 30 74 68 142 88 191 105 243 10 30 26 78 37 105 27 73 77 252 84 299 3 23
14 61 24 86 10 25 21 68 24 95 4 28 16 93 26 145 30 148 47 318 45 458 -3 136
-15 363 -21 373 -2 3 -8 57 -14 120 -13 136 -48 307 -95 459 -45 146 -157 378
-227 470 -44 58 -45 67 -18 120 11 22 20 46 20 55 0 9 7 29 15 46 15 29 17 29
72 24 31 -3 57 -7 57 -8 1 -1 10 -15 21 -32 11 -16 26 -42 33 -56 8 -14 30
-43 49 -65 19 -21 55 -69 78 -105 55 -83 100 -123 129 -114 12 4 31 6 44 6 38
-1 25 27 -47 102 -38 40 -92 104 -121 142 -29 39 -62 80 -75 91 -13 12 -30 36
-39 53 -9 17 -21 31 -26 31 -5 0 -21 20 -36 45 -14 25 -34 50 -44 55 -23 12
-70 13 -89 1z"/>
<path d="M10552 18963 c-7 -3 -21 -21 -31 -41 -11 -21 -31 -48 -45 -61 -14
-14 -26 -30 -26 -36 0 -6 -14 -24 -31 -41 -27 -26 -30 -34 -26 -72 5 -43 -12
-76 -71 -137 -22 -23 -28 -36 -158 -299 -94 -189 -97 -199 -79 -212 25 -18 85
-18 111 1 15 10 23 30 28 66 4 28 16 70 26 93 11 22 28 64 39 92 11 28 29 67
40 85 12 19 21 41 21 49 1 8 9 33 20 55 11 22 19 50 20 63 0 25 15 27 73 11
40 -11 47 -22 89 -144 21 -60 50 -127 67 -155 5 -8 17 -33 26 -55 10 -22 21
-47 25 -56 22 -45 71 -174 94 -244 22 -71 32 -115 52 -230 3 -16 9 -39 14 -50
11 -28 30 -122 30 -151 0 -13 5 -32 10 -42 6 -9 17 -60 26 -112 8 -52 19 -120
24 -150 9 -54 25 -256 23 -295 -9 -185 -21 -331 -29 -355 -3 -8 -8 -37 -10
-65 -2 -27 -8 -59 -13 -70 -5 -11 -19 -58 -31 -105 -23 -88 -32 -118 -76 -235
-14 -38 -29 -83 -33 -100 -5 -16 -22 -59 -38 -95 -17 -36 -33 -80 -36 -98 -7
-34 -27 -84 -53 -134 -8 -14 -14 -31 -14 -38 0 -13 -36 -110 -86 -228 -40 -94
-38 -122 6 -122 21 0 33 8 48 33 21 33 102 227 102 242 0 5 24 70 54 144 30
75 57 147 61 161 4 14 16 43 26 65 31 69 79 205 79 227 0 11 10 36 22 56 11
19 27 69 34 112 6 43 19 93 27 111 16 37 38 185 43 289 12 242 11 349 -2 408
-8 35 -12 67 -10 71 5 8 -8 99 -24 171 -6 25 -12 61 -15 81 -2 19 -11 62 -20
95 -8 32 -18 83 -22 112 -3 29 -10 55 -14 58 -5 3 -9 20 -9 38 0 19 -7 47 -15
62 -8 16 -15 36 -15 45 0 9 -7 33 -15 54 -9 20 -13 45 -10 56 4 13 2 19 -9 19
-11 0 -16 9 -16 28 0 29 -59 187 -111 298 -16 34 -29 65 -29 69 0 4 -9 18 -20
32 -11 14 -20 33 -20 43 0 9 -11 32 -25 51 -14 19 -47 70 -73 114 -27 44 -54
90 -62 102 -13 20 -11 28 15 84 32 67 50 79 107 72 45 -6 57 -19 102 -108 20
-38 40 -71 45 -74 4 -3 24 -31 43 -61 20 -30 47 -66 60 -80 38 -39 139 -183
153 -220 30 -76 51 -90 99 -67 20 9 36 24 36 32 0 9 -18 35 -40 59 -22 24 -40
47 -40 51 0 4 -13 24 -28 44 -16 20 -41 59 -57 86 -16 28 -40 61 -55 75 -14
14 -39 47 -55 75 -16 27 -48 74 -72 103 -24 29 -43 61 -43 72 0 10 -8 21 -18
24 -9 3 -26 22 -37 42 -10 19 -31 42 -46 50 -27 14 -81 18 -107 7z"/>
<path d="M6990 18858 c-37 -10 -80 -44 -80 -63 0 -17 74 -39 104 -31 33 8 62
-7 69 -36 8 -30 39 -49 96 -57 43 -6 49 -10 88 -70 24 -35 43 -71 43 -79 0 -9
10 -27 23 -41 35 -38 97 -211 97 -268 0 -13 6 -34 14 -46 19 -31 50 -172 42
-193 -3 -9 -2 -22 3 -28 4 -6 11 -31 14 -56 3 -25 13 -90 22 -145 26 -158 41
-304 47 -430 0 -11 0 -58 0 -105 -1 -47 -1 -96 -1 -110 0 -41 -20 -221 -31
-273 -6 -26 -10 -63 -10 -82 0 -18 -6 -46 -14 -62 -13 -25 -27 -86 -56 -253
-9 -49 -34 -146 -44 -170 -4 -9 -13 -51 -20 -95 -8 -44 -21 -100 -31 -124 -9
-24 -18 -60 -20 -80 -7 -52 -22 -118 -39 -176 -9 -27 -16 -64 -16 -82 0 -17
-5 -44 -12 -60 -6 -15 -10 -31 -10 -36 4 -18 -21 -153 -31 -165 -7 -9 -7 -16
1 -24 8 -8 13 -7 18 6 4 10 21 32 39 49 33 33 58 103 56 161 0 16 8 43 18 60
10 17 22 51 26 76 4 25 17 77 30 115 13 39 28 102 35 140 7 39 19 95 27 125 8
30 17 66 20 80 2 14 9 34 14 46 6 11 9 24 8 30 -5 18 13 124 22 130 5 3 9 15
9 27 0 12 7 35 15 51 8 15 15 52 15 80 0 29 3 56 8 60 8 8 23 94 51 292 10 73
22 137 25 143 4 6 4 17 0 23 -5 7 -9 90 -10 184 -1 95 -5 178 -10 186 -5 7 -9
40 -10 73 -2 60 -35 252 -46 271 -4 5 -3 16 2 24 5 8 5 19 -1 26 -5 6 -11 34
-13 62 -3 28 -12 67 -21 86 -10 20 -15 46 -11 59 5 21 -5 67 -27 114 -5 11 -7
26 -3 31 3 6 2 13 -3 16 -5 3 -12 30 -16 59 -4 28 -15 63 -24 77 -10 14 -25
45 -35 70 -55 138 -159 265 -256 315 -46 23 -82 56 -79 71 6 36 -42 45 -121
22z"/>
<path d="M13818 18837 c-25 -21 -88 -130 -88 -152 0 -6 -9 -26 -19 -46 -11
-20 -23 -52 -26 -70 -4 -19 -17 -52 -30 -74 -13 -22 -44 -81 -69 -131 -32 -64
-64 -110 -107 -153 -75 -77 -76 -96 0 -96 49 1 55 4 86 40 44 51 111 188 119
242 11 77 24 93 71 93 28 0 47 -6 56 -17 15 -18 44 -91 68 -168 7 -22 27 -80
45 -130 51 -139 94 -283 106 -355 6 -36 18 -85 26 -110 25 -79 37 -289 33
-535 0 -11 -9 -74 -20 -140 -37 -228 -55 -325 -74 -380 -7 -22 -23 -89 -35
-150 -12 -60 -25 -114 -30 -120 -4 -5 -13 -39 -19 -75 -6 -36 -20 -96 -31
-135 -25 -85 -68 -241 -76 -275 -15 -63 -89 -229 -127 -283 -17 -24 6 -38 45
-26 54 15 105 86 132 184 10 33 30 101 46 150 15 50 33 113 39 140 15 62 31
122 41 155 4 14 13 52 20 85 7 33 18 78 26 100 7 22 18 67 24 100 6 33 20 92
30 130 27 102 40 160 54 245 6 41 16 82 21 89 4 8 9 33 11 55 1 23 7 87 13
143 11 102 2 323 -19 453 -4 30 -13 86 -18 124 -6 37 -15 73 -21 79 -6 6 -11
24 -11 40 0 15 -5 37 -11 49 -6 11 -13 36 -15 56 -6 49 -14 74 -29 92 -6 8
-22 47 -34 85 -31 97 -45 132 -116 280 -35 72 -77 148 -94 170 -35 43 -35 69
-2 115 14 20 28 26 68 28 59 3 58 4 114 -108 23 -47 54 -104 70 -127 16 -23
29 -48 29 -55 0 -8 4 -18 9 -23 5 -6 28 -46 50 -90 22 -44 56 -97 76 -118 33
-36 39 -38 74 -32 55 9 59 30 13 74 -54 50 -90 106 -178 278 -87 170 -155 275
-194 303 -37 27 -88 25 -122 -3z"/>
<path d="M15407 18685 c-29 -7 -46 -18 -57 -37 -14 -26 -13 -29 5 -48 18 -18
37 -20 165 -24 80 -3 183 -10 230 -15 117 -15 250 -15 410 -1 160 13 261 34
292 61 23 19 23 19 4 34 -11 8 -36 15 -55 16 -80 2 -303 -3 -405 -9 -70 -5
-149 -3 -220 6 -188 22 -324 28 -369 17z"/>
<path d="M5900 18657 c-3 -2 -57 -8 -120 -11 -139 -8 -235 -18 -485 -52 -213
-28 -257 -38 -279 -60 -21 -21 -14 -57 14 -71 25 -13 36 -11 230 23 445 80
750 97 1203 65 336 -24 420 -26 448 -11 49 27 1 52 -126 65 -33 4 -98 10 -145
15 -201 22 -729 48 -740 37z"/>
<path d="M24160 18626 c-59 -17 -126 -48 -174 -83 -82 -59 -162 -215 -138
-269 27 -57 57 -39 88 53 35 103 142 181 278 203 88 14 127 6 166 -35 35 -36
35 -43 5 -124 -23 -64 -139 -164 -244 -211 -61 -28 -151 -50 -200 -50 -36 0
-41 3 -41 23 0 13 -11 34 -24 46 l-24 22 -41 -20 c-22 -12 -48 -21 -59 -21
-35 0 -61 -56 -29 -64 86 -22 157 -52 157 -67 0 -24 41 -29 129 -15 151 25
267 90 382 215 89 96 104 144 60 194 -14 17 -14 21 1 48 10 16 16 35 13 42 -2
6 -6 24 -9 39 -7 31 -40 49 -131 73 -69 18 -103 18 -165 1z"/>
<path d="M13035 18609 c-44 -4 -114 -10 -155 -13 -41 -3 -147 -12 -235 -20
-349 -32 -523 -39 -682 -27 -161 13 -199 9 -260 -29 -36 -22 -40 -36 -19 -65
12 -17 32 -19 257 -22 134 -1 289 2 344 7 55 5 190 17 300 25 363 28 642 79
670 124 3 5 2 12 -2 14 -18 10 -144 14 -218 6z"/>
<path d="M30374 18600 c-28 -11 -64 -120 -57 -172 3 -21 9 -38 13 -38 18 0
100 73 100 89 0 10 11 35 26 56 34 51 29 69 -21 72 -22 1 -50 -2 -61 -7z"/>
<path d="M7046 18568 c-15 -17 -16 -29 -6 -96 5 -42 11 -84 11 -92 1 -8 6 -20
11 -27 5 -7 6 -18 2 -25 -4 -6 -6 -30 -4 -53 2 -37 4 -53 8 -127 2 -25 6 -28
40 -28 49 0 59 8 77 59 8 23 26 56 40 73 49 58 23 88 -82 91 -40 1 -59 5 -55
12 8 12 15 111 12 163 -4 63 -26 83 -54 50z"/>
<path d="M25612 18530 c-18 -4 -63 -28 -100 -53 -77 -53 -173 -119 -287 -197
-98 -68 -157 -93 -191 -80 -13 5 -24 14 -24 20 0 6 -11 36 -25 66 -14 30 -25
65 -25 79 0 13 -4 27 -10 30 -5 3 -10 17 -10 30 0 30 -16 40 -60 36 -19 -2
-44 -5 -55 -6 -15 -1 -20 -9 -21 -30 -1 -30 31 -95 47 -95 5 0 9 -8 9 -17 0
-15 83 -113 95 -113 4 0 76 -47 84 -55 6 -7 -40 -44 -74 -59 -40 -18 -186
-155 -205 -192 -8 -16 -20 -36 -28 -46 -7 -9 -12 -31 -10 -50 2 -26 8 -34 28
-37 38 -5 88 27 100 64 6 18 43 67 83 109 68 73 75 77 124 83 49 5 57 3 105
-31 48 -33 61 -36 144 -42 96 -7 138 3 132 33 -3 16 -68 43 -105 43 -55 0
-223 60 -223 79 0 4 26 22 58 41 117 69 169 102 227 145 33 25 71 53 85 62 38
26 112 85 136 108 11 11 32 30 47 42 47 40 29 52 -51 33z"/>
<path d="M9535 18485 c-104 -7 -226 -16 -270 -20 -44 -4 -279 -8 -522 -9 -429
-2 -444 -3 -470 -23 -32 -23 -41 -64 -18 -83 17 -14 93 -15 520 -6 475 11 747
33 949 77 97 20 149 46 125 59 -28 16 -129 18 -314 5z"/>
<path d="M27037 18480 c-62 -11 -91 -60 -36 -60 50 0 229 -108 229 -137 0 -6
6 -16 14 -22 24 -20 50 -120 38 -146 -22 -48 -219 -118 -287 -101 -39 10 -75
56 -75 95 0 18 6 39 14 45 8 6 17 28 20 49 l7 37 -50 0 c-41 0 -52 -4 -61 -21
-7 -11 -9 -31 -6 -42 3 -12 1 -38 -3 -59 -5 -21 -4 -58 2 -88 8 -43 16 -55 46
-75 48 -30 143 -46 218 -35 67 10 82 15 143 54 65 41 99 86 109 142 16 85 8
128 -37 196 -41 62 -137 148 -165 148 -8 0 -30 6 -48 13 -21 9 -48 11 -72 7z"/>
<path d="M26385 18421 c-58 -21 -114 -49 -205 -101 -68 -39 -223 -183 -240
-222 -6 -13 -19 -36 -30 -53 -11 -16 -25 -41 -30 -55 -11 -24 -40 -82 -73
-145 -25 -48 -59 -141 -72 -203 -7 -31 -27 -93 -45 -137 -35 -90 -39 -120 -17
-142 13 -13 19 -13 58 4 42 19 46 24 77 109 53 142 64 194 63 275 -2 111 5
117 147 129 105 8 120 12 208 55 107 51 180 106 272 204 76 80 92 108 107 187
12 66 10 84 -10 84 -7 0 -18 7 -25 15 -18 21 -122 19 -185 -4z m150 -82 c13
-20 -5 -56 -46 -95 -23 -21 -58 -54 -78 -73 -53 -50 -118 -94 -202 -136 -41
-20 -85 -43 -99 -50 -36 -19 -135 -39 -155 -31 -15 5 -14 9 4 35 12 16 21 33
21 39 0 14 158 163 210 197 135 91 322 152 345 114z"/>
<path d="M28630 18393 c-94 -34 -134 -66 -173 -136 -24 -41 -54 -154 -44 -164
8 -8 47 17 47 30 0 12 18 36 73 102 35 42 99 67 158 63 43 -3 44 -4 47 -42 4
-47 -8 -74 -66 -143 -51 -60 -129 -112 -181 -120 -20 -3 -45 -15 -56 -28 -24
-27 -87 -50 -214 -76 -109 -22 -180 -24 -206 -5 -15 11 -17 21 -11 70 3 31 16
85 28 121 19 60 20 67 5 83 -17 19 -14 56 8 82 37 45 13 118 -44 133 -57 14
-154 -45 -236 -144 -24 -30 -44 -41 -103 -57 -73 -21 -111 -49 -112 -84 0 -21
-17 -61 -45 -108 -12 -19 -27 -50 -33 -67 -9 -29 -8 -34 8 -43 10 -5 25 -8 32
-6 7 2 26 7 41 10 21 5 40 26 78 85 27 44 61 87 74 95 14 9 25 20 25 25 0 5
34 44 75 86 74 75 120 101 156 90 27 -9 30 -77 7 -138 -28 -72 -48 -147 -50
-182 -4 -118 34 -155 169 -162 77 -4 102 -1 197 26 131 37 134 37 146 9 24
-58 35 -63 133 -63 84 0 97 3 157 33 36 18 83 49 104 67 33 30 36 36 21 41
-10 4 -50 -3 -89 -15 -147 -46 -190 -54 -249 -47 -89 11 -74 44 46 99 43 20
106 59 141 86 52 41 67 61 91 116 26 61 26 67 11 84 -21 23 -20 34 2 29 15 -4
18 1 17 31 0 20 -4 42 -8 49 -5 6 -6 16 -3 20 9 14 -8 29 -58 51 -47 20 -85
25 -116 14z"/>
<path d="M30265 18325 c-22 -8 -60 -14 -84 -14 -86 -2 -163 -35 -245 -108 -33
-29 -48 -50 -49 -70 -2 -28 -1 -28 48 -25 39 2 56 8 80 31 33 32 135 71 187
71 18 0 96 -2 173 -4 104 -3 148 -1 172 9 39 16 43 35 9 35 -14 0 -27 4 -30 9
-4 5 -39 15 -79 21 -77 13 -107 25 -120 46 -9 16 -9 16 -62 -1z"/>
<path d="M29131 18245 c-17 -20 -31 -42 -31 -49 0 -7 -11 -39 -25 -70 -39 -87
-33 -100 29 -71 17 8 37 27 43 42 7 16 36 54 63 87 62 72 62 90 -1 94 -42 3
-49 0 -78 -33z"/>
<path d="M29515 18253 c-22 -15 -89 -71 -150 -125 -124 -112 -190 -154 -264
-168 -57 -11 -94 -33 -110 -67 -6 -13 -15 -23 -21 -23 -16 0 -11 -26 9 -44 28
-25 108 -12 168 28 25 17 60 40 77 51 60 38 141 103 176 140 98 105 98 105
155 105 30 0 57 -5 60 -10 11 -17 8 -205 -3 -226 -6 -11 -14 -49 -18 -83 l-7
-64 53 5 c75 7 83 21 76 130 -3 52 -1 90 5 94 5 3 -3 15 -18 27 -47 35 -50 40
-20 34 26 -4 28 -2 22 17 -4 11 -9 35 -12 51 -2 17 -11 44 -19 62 -8 17 -14
38 -14 46 0 16 -57 47 -87 47 -10 0 -36 -12 -58 -27z"/>
<path d="M30940 18221 c-62 -34 -85 -67 -83 -118 1 -35 7 -51 26 -67 14 -12
29 -32 33 -46 8 -29 49 -95 64 -105 22 -14 10 -55 -22 -75 -71 -44 -222 -65
-299 -43 -45 13 -47 15 -46 50 1 26 -5 41 -22 54 -30 25 -32 24 -58 -17 -25
-38 -38 -102 -26 -120 22 -30 110 -66 184 -74 154 -18 313 33 377 119 21 29
21 32 7 88 -8 31 -15 64 -15 73 0 8 -27 44 -60 78 -33 35 -60 67 -60 72 0 20
34 39 87 50 140 27 201 56 176 81 -6 6 -59 12 -119 15 -94 3 -114 1 -144 -15z"/>
<path d="M23855 18220 c-3 -5 -1 -10 4 -10 6 0 11 5 11 10 0 6 -2 10 -4 10 -3
0 -8 -4 -11 -10z"/>
<path d="M30202 18093 c-6 -2 -42 -50 -79 -106 -37 -56 -86 -125 -110 -153
-24 -28 -43 -56 -43 -63 0 -14 50 -14 87 0 33 12 83 57 83 75 0 7 11 25 23 41
13 15 28 42 34 58 6 17 22 48 37 69 29 43 32 56 14 74 -13 13 -24 14 -46 5z"/>
<path d="M28410 18056 c0 -10 9 -16 21 -16 24 0 21 23 -4 28 -10 2 -17 -3 -17
-12z"/>
<path d="M24560 17930 c-19 -4 -64 -21 -100 -38 -84 -40 -166 -62 -260 -69
-90 -6 -143 6 -196 47 -22 17 -48 37 -59 45 -21 16 -51 20 -59 7 -2 -4 0 -29
5 -54 9 -40 17 -51 62 -82 29 -20 61 -36 73 -36 11 0 25 -5 32 -12 7 -7 50
-11 114 -12 88 0 115 4 188 28 114 39 166 67 225 120 41 37 47 47 35 56 -8 5
-17 9 -20 9 -3 -1 -21 -5 -40 -9z"/>
<path d="M26170 16814 c-80 -7 -176 -19 -215 -25 -38 -6 -97 -15 -130 -19 -33
-5 -132 -20 -220 -34 -349 -56 -453 -88 -447 -136 7 -64 39 -64 364 1 139 27
285 54 323 59 39 6 113 17 165 25 52 9 156 24 230 35 153 22 228 41 262 70 20
17 21 21 8 30 -20 13 -162 11 -340 -6z"/>
<path d="M25327 16340 c-21 -4 -43 -12 -49 -18 -13 -13 -2 -67 17 -82 22 -18
727 -27 858 -10 105 12 172 34 195 63 29 35 7 38 -241 31 -215 -5 -688 7 -727
19 -8 3 -32 1 -53 -3z"/>
<path d="M7012 15903 c-30 -6 -48 -36 -62 -107 -9 -42 -9 -70 -1 -100 5 -22
10 -63 9 -91 -1 -93 13 -300 22 -309 5 -5 6 -15 3 -24 -4 -8 1 -20 9 -26 8 -6
18 -32 22 -58 6 -43 11 -48 51 -68 35 -17 53 -20 97 -14 50 6 138 43 163 68 7
6 30 28 53 48 22 20 48 50 56 65 8 15 33 48 56 73 23 25 53 62 66 83 14 21 45
64 70 97 25 33 58 88 74 123 16 35 40 77 53 93 40 48 58 134 28 134 -23 0 -81
-59 -111 -113 -19 -35 -61 -103 -92 -151 -32 -48 -58 -89 -58 -92 0 -9 -64
-99 -73 -102 -4 -2 -16 -21 -27 -42 -18 -34 -126 -143 -176 -177 -12 -7 -46
-18 -75 -22 -50 -8 -55 -7 -80 19 -33 33 -59 108 -41 119 12 7 12 29 -4 216
-13 150 -7 201 33 277 31 58 35 71 23 78 -15 10 -47 11 -88 3z"/>
<path d="M13000 15896 c-217 -50 -489 -185 -715 -355 -188 -141 -388 -348
-449 -463 -37 -70 -81 -203 -71 -217 3 -5 1 -21 -5 -36 -8 -22 -5 -37 21 -88
37 -76 49 -89 118 -135 67 -45 212 -88 355 -107 332 -45 821 6 940 98 19 14
17 15 -30 21 -30 5 -92 1 -155 -8 -250 -37 -578 -48 -748 -26 -129 17 -266 55
-296 83 -8 7 -32 23 -54 36 -57 35 -65 64 -45 174 16 95 30 130 88 215 105
156 142 195 336 360 114 97 378 248 538 308 95 36 269 76 295 68 12 -3 38 -22
58 -41 34 -32 40 -35 78 -28 23 4 41 10 41 13 0 4 -17 30 -38 57 -41 54 -74
70 -159 79 -26 3 -73 -1 -103 -8z"/>
<path d="M13454 15885 c-14 -22 -15 -35 -4 -109 6 -47 13 -118 15 -158 3 -101
15 -173 37 -232 10 -28 18 -62 18 -76 1 -38 50 -101 90 -116 49 -17 169 -17
220 1 52 18 146 85 220 157 31 29 114 107 185 173 188 175 325 321 325 346 0
5 -13 9 -29 9 -35 0 -98 -48 -187 -142 -34 -35 -77 -76 -95 -90 -19 -14 -59
-50 -89 -79 -205 -199 -314 -277 -420 -300 -95 -20 -159 34 -166 141 -2 33 -9
71 -14 85 -6 15 -10 62 -10 105 0 43 -5 91 -10 106 -10 26 5 133 25 187 6 15
1 17 -44 17 -43 0 -53 -4 -67 -25z"/>
<path d="M17890 15892 c-28 -9 -52 -37 -93 -107 -73 -126 -118 -178 -235 -276
-52 -42 -116 -89 -143 -103 -60 -33 -175 -59 -200 -45 -49 26 -121 169 -180
359 -28 89 -52 119 -101 127 -38 6 -88 -15 -88 -37 0 -6 19 -24 43 -41 46 -33
87 -99 87 -139 0 -14 14 -54 31 -90 17 -36 40 -88 50 -116 34 -90 131 -165
212 -164 89 1 181 39 276 113 84 65 275 283 305 347 9 19 30 57 46 83 26 42
29 51 18 71 -8 14 -19 21 -28 18z"/>
<path d="M9840 15869 c-36 -4 -105 -17 -154 -29 -502 -125 -1015 -527 -1131
-888 -27 -82 -27 -95 -10 -192 15 -81 56 -136 142 -187 38 -22 82 -43 98 -46
17 -3 44 -11 60 -18 17 -7 41 -13 55 -15 14 -1 63 -10 110 -19 111 -22 460
-31 599 -16 105 11 205 44 198 65 -3 8 -91 11 -294 12 -310 1 -417 7 -542 29
-164 29 -265 71 -335 141 -21 20 -29 77 -14 100 5 7 8 23 8 35 -1 70 16 135
41 164 10 11 23 31 29 45 62 139 215 303 416 445 106 75 347 199 454 233 187
61 359 83 455 58 225 -57 246 -70 225 -134 -60 -183 -18 -583 62 -607 13 -4
30 -13 38 -20 29 -25 131 -48 189 -42 111 10 174 56 329 237 39 47 87 101 105
120 17 20 39 46 47 59 31 47 97 128 143 176 27 28 56 64 64 80 9 17 37 55 62
85 79 93 95 121 80 131 -8 5 -20 7 -27 4 -8 -3 -22 -5 -31 -5 -10 0 -35 -23
-57 -51 -21 -27 -82 -101 -134 -162 -52 -62 -131 -155 -175 -207 -167 -199
-267 -308 -306 -336 -43 -30 -171 -66 -198 -57 -36 14 -79 55 -94 91 -33 79
-38 165 -23 395 7 110 11 132 32 163 48 71 30 95 -72 102 -48 2 -113 15 -164
32 -94 31 -181 40 -280 29z"/>
<path d="M5830 15863 c-120 -21 -300 -111 -404 -202 -65 -57 -226 -227 -226
-238 0 -7 -11 -20 -25 -29 -13 -8 -34 -36 -45 -60 -12 -24 -26 -46 -31 -49
-11 -8 -49 -93 -49 -112 0 -8 -11 -28 -25 -44 -13 -16 -27 -46 -31 -67 -4 -20
-11 -43 -16 -49 -7 -8 -6 -24 1 -44 6 -18 11 -54 11 -80 0 -36 5 -54 20 -69
11 -11 20 -24 20 -30 0 -10 56 -94 78 -119 7 -7 20 -24 28 -36 8 -13 29 -25
45 -29 17 -3 48 -20 70 -37 21 -17 43 -28 48 -25 5 4 22 0 38 -8 15 -8 67 -20
115 -27 199 -28 607 31 669 97 41 44 20 44 -360 -1 -187 -22 -421 -7 -478 30
-12 8 -28 15 -34 15 -19 0 -117 101 -123 126 -4 15 -14 24 -26 24 -15 0 -20 7
-20 27 0 14 -7 35 -17 45 -15 17 -15 19 0 36 19 21 22 49 7 54 -7 2 -6 16 4
40 9 20 18 63 22 95 4 35 16 73 30 95 13 21 24 44 24 51 0 17 32 47 49 47 6 0
16 11 21 25 10 26 87 125 157 201 65 71 190 161 290 208 128 60 305 73 391 28
22 -11 43 -18 47 -14 4 4 23 7 43 7 30 0 37 4 37 20 0 29 -94 71 -202 89 -88
16 -107 17 -153 9z"/>
<path d="M3195 15843 c-196 -42 -350 -107 -520 -217 -44 -29 -93 -61 -110 -71
-88 -54 -368 -313 -433 -400 -12 -16 -45 -60 -72 -97 -28 -37 -53 -81 -56 -98
-4 -16 -13 -35 -20 -41 -8 -6 -14 -18 -14 -26 0 -8 -12 -30 -26 -49 -24 -31
-26 -40 -21 -93 4 -35 2 -62 -4 -68 -7 -7 -3 -9 15 -6 22 5 26 11 26 39 0 19
5 34 10 34 6 0 10 17 10 38 0 21 5 43 11 49 6 6 12 19 13 29 2 12 11 19 26 19
13 0 25 6 28 13 2 7 -5 12 -17 12 -12 0 -21 6 -21 15 0 13 6 16 27 14 3 0 12
13 19 30 7 17 27 39 44 50 18 10 42 35 54 55 11 19 42 57 69 84 26 28 47 54
47 60 0 6 16 19 35 31 19 11 35 24 35 29 0 5 21 24 48 42 26 19 61 47 78 64
48 48 239 175 333 221 182 90 330 130 478 130 99 -1 136 -15 157 -62 8 -17 16
-20 45 -16 43 7 37 3 45 29 8 27 -51 101 -99 125 -67 33 -172 47 -240 32z"/>
<path d="M16050 15824 c-201 -31 -396 -98 -575 -196 -126 -70 -162 -96 -249
-189 -131 -138 -189 -297 -167 -453 5 -37 17 -76 26 -86 9 -10 14 -24 10 -29
-3 -6 5 -21 18 -33 13 -13 27 -32 31 -43 3 -11 22 -30 41 -43 19 -12 35 -28
35 -36 0 -7 15 -19 33 -27 17 -7 34 -15 37 -18 13 -15 70 -51 80 -51 6 0 32
-11 58 -25 26 -14 53 -25 59 -25 7 0 13 -4 13 -9 0 -4 21 -14 48 -21 26 -7 52
-16 57 -20 6 -4 24 -10 40 -13 17 -3 73 -15 125 -27 128 -29 275 -32 314 -7
38 25 24 37 -55 47 -188 25 -231 32 -304 51 -44 11 -98 25 -120 30 -68 16
-264 121 -326 175 -32 28 -70 67 -83 87 -24 35 -59 166 -51 191 2 6 6 35 9 63
3 29 10 61 15 70 5 10 19 38 31 63 66 136 185 238 398 342 122 59 209 89 357
125 99 24 130 27 300 27 172 1 197 -1 265 -23 151 -47 240 -101 240 -146 0
-12 6 -28 14 -35 8 -6 16 -24 18 -38 4 -32 34 -40 79 -22 36 15 36 24 0 79
-16 24 -36 60 -45 80 -33 72 -196 148 -384 181 -132 23 -257 24 -392 4z"/>
<path d="M3449 15568 c-7 -17 -6 -79 1 -83 12 -7 80 21 80 34 0 20 -74 65 -81
49z"/>
<path d="M22730 15493 c-37 -5 -110 -46 -110 -60 0 -31 115 -29 193 3 92 37
36 76 -83 57z"/>
<path d="M21399 15448 c-19 -16 -35 -66 -48 -143 -5 -33 -23 -93 -40 -134 -17
-41 -31 -83 -31 -94 0 -10 -7 -40 -15 -66 -29 -92 -58 -237 -57 -288 0 -29 -4
-55 -9 -58 -5 -4 -9 -32 -9 -64 0 -66 26 -111 64 -111 12 0 54 25 92 55 188
149 284 199 384 199 89 0 133 -27 152 -92 9 -33 -57 -103 -126 -135 -107 -50
-318 -89 -423 -80 -39 4 -63 2 -67 -6 -13 -20 28 -48 88 -59 235 -46 547 55
607 196 16 36 18 52 10 70 -6 12 -11 33 -11 45 0 30 -69 93 -128 116 -139 54
-246 28 -406 -99 -64 -51 -84 -62 -119 -63 l-42 -2 2 50 c2 28 7 59 11 70 18
42 35 92 51 152 10 35 20 66 24 69 4 4 7 18 7 31 0 37 47 178 96 286 25 55 44
112 44 132 0 35 -1 35 -43 35 -24 0 -50 -6 -58 -12z"/>
<path d="M22991 15192 c-13 -25 -34 -210 -35 -312 l-1 -85 -92 -45 c-101 -49
-153 -88 -153 -115 0 -16 9 -17 83 -11 45 4 89 7 97 8 8 0 27 -2 43 -7 23 -6
27 -4 27 13 0 35 11 51 43 61 38 12 235 37 367 46 129 9 224 51 158 69 -52 14
-260 18 -351 7 -114 -15 -155 -16 -164 -7 -7 7 8 56 37 121 9 22 21 60 25 85
4 25 13 68 21 97 21 72 9 93 -51 93 -32 0 -47 -5 -54 -18z"/>
<path d="M24340 15168 c-25 -27 -25 -35 0 -48 28 -15 111 -2 152 23 l33 20
-30 13 c-16 7 -53 13 -82 14 -41 0 -57 -5 -73 -22z"/>
<path d="M26457 15132 c-16 -19 -37 -77 -42 -122 -2 -17 -11 -40 -20 -52 -8
-13 -15 -28 -15 -36 0 -7 -20 -55 -45 -105 -25 -51 -45 -102 -45 -114 0 -29
-38 -73 -63 -73 -12 0 -33 -9 -46 -19 -24 -18 -24 -20 -12 -81 7 -34 11 -64 9
-66 -2 -2 -30 -10 -63 -19 -78 -20 -182 -19 -255 2 -85 25 -86 29 -58 210 9
58 17 80 42 108 26 30 39 36 87 41 l57 7 17 -37 c10 -20 24 -36 31 -36 17 0
18 17 2 23 -10 3 -10 9 -1 25 15 26 4 40 -62 77 -35 20 -64 29 -99 29 -45 1
-51 -2 -87 -43 -43 -49 -76 -115 -85 -170 -9 -59 12 -200 33 -230 11 -14 48
-40 82 -58 82 -43 177 -52 281 -28 135 32 159 48 160 110 0 22 31 87 75 155
16 25 64 117 108 205 43 88 83 167 88 175 40 65 48 90 40 113 -8 20 -16 24
-54 24 -31 1 -50 -4 -60 -15z"/>
<path d="M27023 15066 c-40 -63 -1 -107 81 -92 18 4 41 15 51 26 18 20 18 22
-1 58 -18 33 -24 37 -64 40 -42 2 -47 0 -67 -32z"/>
<path d="M10206 14910 c-27 -5 -78 -23 -114 -41 -49 -25 -68 -42 -83 -71 -17
-34 -18 -39 -4 -44 22 -9 85 5 121 26 68 39 285 64 348 40 18 -6 26 -17 26
-34 0 -24 -15 -39 -126 -131 -104 -86 -312 -276 -369 -336 -193 -206 -253
-288 -240 -329 3 -10 1 -21 -5 -25 -6 -4 -7 -12 -1 -24 6 -10 6 -23 0 -32 -15
-24 -10 -37 24 -57 149 -93 489 -84 858 23 201 59 349 121 349 146 0 23 -92
13 -270 -31 -325 -79 -434 -98 -631 -107 -132 -6 -139 -5 -218 22 l-80 28 22
22 c12 12 49 59 82 106 69 96 263 295 413 423 152 130 269 251 277 286 10 45
-23 80 -108 113 -80 32 -186 42 -271 27z"/>
<path d="M25200 14901 c-54 -13 -100 -49 -211 -165 -175 -182 -176 -183 -209
-190 -36 -7 -70 8 -70 30 0 21 -46 37 -71 24 -20 -11 -25 -25 -38 -107 -13
-83 10 -109 97 -112 27 -1 48 12 125 80 51 45 117 109 147 143 30 33 85 91
122 128 63 64 69 68 112 68 43 0 45 -1 51 -33 4 -21 1 -47 -8 -69 -8 -19 -20
-67 -27 -106 -6 -40 -16 -74 -21 -78 -12 -7 -11 -71 1 -79 6 -4 7 -13 1 -23
-14 -27 5 -55 29 -42 10 5 28 10 38 10 18 0 21 9 27 88 4 48 14 107 21 132 17
54 29 207 20 244 -10 39 -83 70 -136 57z"/>
<path d="M6680 14875 c-175 -20 -224 -41 -200 -84 13 -24 49 -27 150 -10 140
22 321 35 392 27 146 -16 174 24 48 69 -44 16 -247 15 -390 -2z"/>
<path d="M28300 14871 c-102 -21 -212 -108 -251 -197 -13 -29 -33 -53 -55 -66
-19 -11 -34 -24 -34 -28 0 -5 13 -18 29 -29 15 -11 34 -35 41 -53 29 -79 26
-76 43 -36 21 50 44 59 163 68 120 9 182 29 247 84 48 39 49 40 42 85 -4 25
-9 49 -11 53 -8 13 -32 -3 -38 -26 -10 -42 -58 -75 -141 -96 -92 -24 -226 -31
-232 -13 -2 6 11 28 29 48 70 80 167 118 303 119 82 1 90 3 90 21 0 42 -141
83 -225 66z"/>
<path d="M27504 14852 c-148 -83 -314 -261 -314 -338 0 -18 -4 -36 -10 -39 -5
-3 -8 -26 -6 -51 4 -53 24 -71 111 -102 109 -38 189 -43 313 -17 78 15 192 67
192 86 0 13 -62 11 -165 -6 -128 -21 -253 -20 -307 4 -54 23 -72 43 -60 68 5
10 18 36 28 58 40 83 218 229 307 250 15 4 38 21 52 37 24 29 25 32 9 49 -22
25 -107 25 -150 1z"/>
<path d="M16763 14849 c-68 -13 -185 -77 -259 -142 -159 -139 -223 -266 -178
-355 50 -98 130 -142 349 -189 108 -23 313 -13 433 22 172 49 323 129 409 217
66 68 95 188 67 272 -43 126 -273 199 -530 167 -77 -9 -97 -9 -127 4 -39 16
-97 18 -164 4z m594 -110 c115 -24 172 -112 143 -221 -31 -112 -245 -225 -510
-268 -91 -15 -295 -16 -333 -1 -16 6 -43 11 -60 11 -18 0 -41 7 -51 15 -11 8
-26 15 -34 15 -41 0 -122 97 -122 145 0 54 148 212 245 262 42 22 65 26 160
29 60 2 173 11 250 18 138 14 231 12 312 -5z"/>
<path d="M22400 14823 c-19 -3 -40 -9 -46 -14 -6 -5 -14 -60 -17 -123 -6 -100
-30 -235 -52 -287 -9 -24 9 -31 58 -24 39 6 44 10 55 47 7 22 17 77 23 122 5
44 15 99 23 121 39 119 39 115 22 140 -9 14 -20 24 -24 23 -4 0 -23 -3 -42 -5z"/>
<path d="M24270 14801 c-43 -8 -68 -48 -50 -82 15 -27 7 -200 -13 -289 -8 -36
-17 -84 -20 -107 -5 -42 -4 -43 25 -43 46 0 66 16 73 58 4 20 11 49 17 64 6
15 12 47 13 71 5 77 17 157 24 161 3 2 6 42 6 88 0 92 -1 93 -75 79z"/>
<path d="M26835 14784 c-14 -15 -27 -43 -30 -63 -8 -54 -47 -192 -63 -223 -10
-20 -11 -36 -4 -56 8 -24 13 -27 48 -24 52 5 60 14 68 74 4 28 14 64 22 79 7
15 14 38 14 50 0 12 14 47 31 77 23 40 29 61 24 83 -6 26 -11 29 -46 29 -30 0
-46 -6 -64 -26z"/>
<path d="M13743 14770 c-13 -5 -23 -13 -23 -17 0 -11 -19 -180 -26 -228 -5
-38 -19 -91 -51 -197 -9 -29 -16 -106 -18 -200 -2 -84 -7 -178 -11 -209 -5
-43 -3 -65 9 -89 11 -21 13 -38 8 -53 -12 -31 -12 -155 0 -163 6 -3 18 1 27
10 11 9 27 13 41 9 20 -5 22 -3 17 15 -4 12 -9 46 -10 76 -2 30 -11 64 -20 77
-14 21 -14 48 1 89 11 28 13 89 3 95 -7 4 -7 13 0 25 6 11 9 23 8 27 -1 4 4
32 10 61 7 30 9 58 6 63 -8 13 19 146 63 319 19 74 37 172 40 218 l6 82 -29
-1 c-16 0 -39 -4 -51 -9z"/>
<path d="M28843 14727 c-28 -12 -73 -41 -99 -63 -44 -37 -47 -43 -52 -95 -4
-51 -2 -57 27 -86 18 -19 29 -37 25 -46 -3 -10 4 -22 20 -32 14 -10 26 -25 26
-34 0 -9 5 -22 11 -28 5 -5 7 -22 3 -37 -10 -42 -51 -53 -189 -49 -178 5 -300
33 -428 98 -26 14 -53 25 -61 25 -7 0 -19 7 -26 15 -16 19 -49 20 -56 1 -3 -7
7 -27 23 -43 32 -34 116 -93 133 -93 6 0 25 -7 43 -16 30 -16 124 -42 177 -50
14 -2 48 -8 75 -13 83 -15 250 -11 319 8 53 15 63 22 78 54 17 35 17 38 0 71
-9 19 -26 37 -37 40 -17 5 -18 8 -5 15 12 9 11 13 -6 33 -42 46 -81 114 -74
128 29 62 41 74 96 99 54 24 71 26 199 26 77 1 150 4 163 9 32 11 24 38 -13
47 -17 4 -57 14 -90 23 -92 23 -218 20 -282 -7z"/>
<path d="M7106 14703 c-58 -69 -191 -196 -251 -241 -75 -55 -90 -71 -98 -103
-5 -20 -1 -31 18 -49 22 -20 37 -24 127 -28 57 -2 181 1 277 7 199 14 207 12
176 -47 -24 -45 -94 -98 -200 -154 -142 -75 -238 -108 -354 -119 -140 -14
-163 -26 -120 -65 16 -14 40 -19 112 -22 79 -4 103 -1 172 22 164 54 325 147
411 237 86 91 93 104 83 147 -21 94 -92 104 -506 76 -51 -4 -93 -4 -93 0 0 11
48 51 131 111 87 62 176 154 185 192 7 28 -10 73 -27 73 -7 0 -26 -17 -43 -37z"/>
<path d="M26056 14716 c3 -9 11 -16 16 -16 13 0 5 23 -10 28 -7 2 -10 -2 -6
-12z"/>
<path d="M26070 14671 c0 -5 5 -13 10 -16 6 -3 10 -2 10 4 0 5 -4 13 -10 16
-5 3 -10 2 -10 -4z"/>
<path d="M1890 14615 c0 -9 7 -18 15 -21 10 -4 13 -14 9 -29 -7 -29 10 -93 33
-124 52 -68 110 -107 183 -122 25 -5 70 -14 100 -20 97 -20 415 2 595 41 22 4
85 16 140 25 164 27 357 66 400 81 22 7 84 24 137 38 125 32 177 59 178 89 0
11 -111 9 -172 -4 -29 -6 -78 -15 -108 -20 -30 -6 -71 -15 -92 -20 -20 -5 -80
-16 -135 -24 -54 -8 -127 -19 -163 -25 -111 -18 -352 -50 -420 -55 -286 -22
-330 -23 -396 -14 -73 10 -157 47 -201 88 -12 12 -27 21 -33 21 -5 0 -10 10
-10 23 0 26 -35 87 -50 87 -5 0 -10 -7 -10 -15z"/>
<path d="M22902 14562 c-34 -59 -62 -122 -62 -140 0 -9 -7 -30 -15 -46 -8 -15
-15 -33 -15 -39 0 -6 -12 -23 -26 -38 -34 -35 -24 -52 24 -43 60 11 81 31 97
93 8 31 23 79 31 107 20 64 21 96 2 123 -14 20 -15 20 -36 -17z"/>
<path d="M11765 14320 c-3 -5 1 -10 9 -10 9 0 16 5 16 10 0 6 -4 10 -9 10 -6
0 -13 -4 -16 -10z"/>
<path d="M16393 13673 c-13 -8 -23 -23 -23 -33 0 -24 39 -39 147 -55 51 -8 98
-17 103 -20 6 -4 101 -15 213 -26 111 -10 245 -23 297 -29 177 -17 402 -23
447 -11 45 12 107 63 101 83 -3 9 -65 13 -244 14 -252 1 -451 19 -778 68 -195
30 -232 31 -263 9z"/>
<path d="M7178 13615 c-2 -3 -97 -9 -209 -14 -131 -6 -220 -15 -249 -25 -25
-8 -81 -22 -125 -31 -188 -38 -244 -66 -245 -123 0 -23 3 -24 58 -19 31 2 90
14 131 26 87 25 512 81 613 81 86 0 156 16 186 43 27 25 27 29 0 46 -21 13
-150 26 -160 16z"/>
<path d="M10235 13553 c-532 -11 -886 -31 -973 -54 -37 -10 -82 -48 -82 -69 0
-28 110 -38 230 -20 179 25 716 50 1114 50 248 0 319 7 354 33 15 12 16 44 0
53 -11 7 -421 11 -643 7z"/>
<path d="M13140 13460 c-74 -9 -114 -29 -118 -59 -2 -13 2 -27 10 -32 7 -5
110 -8 228 -8 125 0 280 -6 370 -16 85 -8 223 -22 305 -30 83 -8 169 -17 192
-21 56 -9 121 2 163 27 l34 21 -24 14 c-14 7 -43 13 -66 14 -22 0 -79 5 -125
10 -106 13 -279 35 -434 55 -66 8 -185 17 -265 20 -80 3 -161 7 -180 9 -19 2
-60 0 -90 -4z"/>
<path d="M26588 5573 c-29 -7 -21 -22 17 -29 41 -7 68 1 63 19 -5 13 -50 19
-80 10z"/>
</g>
</svg>
