<?xml version="1.0" standalone="no"?>
<!DOCTYPE svg PUBLIC "-//W3C//DTD SVG 20010904//EN"
 "http://www.w3.org/TR/2001/REC-SVG-20010904/DTD/svg10.dtd">
<svg version="1.0" xmlns="http://www.w3.org/2000/svg"
 width="3264.000000pt" height="2448.000000pt" viewBox="0 0 3264.000000 2448.000000"
 preserveAspectRatio="xMidYMid meet">
<metadata>
Created by potrace 1.12, written by Peter Selinger 2001-2015
</metadata>
<g transform="translate(0.000000,2448.000000) scale(0.100000,-0.100000)"
fill="#000000" stroke="none">
<path d="M12318 24473 c12 -2 30 -2 40 0 9 3 -1 5 -23 4 -22 0 -30 -2 -17 -4z"/>
<path d="M12830 24470 c25 -4 49 -4 55 1 5 5 -13 8 -45 8 l-55 -2 45 -7z"/>
<path d="M13051 24469 c29 -6 56 -5 70 0 18 8 7 10 -46 9 -70 0 -70 0 -24 -9z"/>
<path d="M13314 24469 c26 -6 43 -6 50 1 7 7 -6 10 -39 9 l-50 -1 39 -9z"/>
<path d="M13438 24473 c7 -3 16 -2 19 1 4 3 -2 6 -13 5 -11 0 -14 -3 -6 -6z"/>
<path d="M14190 24471 c0 -8 119 -3 129 5 2 2 -26 4 -62 4 -37 0 -67 -4 -67
-9z"/>
<path d="M14538 24468 c9 -9 15 -9 24 0 9 9 7 12 -12 12 -19 0 -21 -3 -12 -12z"/>
<path d="M14848 24473 c7 -3 16 -2 19 1 4 3 -2 6 -13 5 -11 0 -14 -3 -6 -6z"/>
<path d="M15025 24470 c3 -5 10 -10 16 -10 5 0 9 5 9 10 0 6 -7 10 -16 10 -8
0 -12 -4 -9 -10z"/>
<path d="M15225 24470 c4 -6 11 -8 16 -5 14 9 11 15 -7 15 -8 0 -12 -5 -9 -10z"/>
<path d="M15325 24470 c3 -5 8 -10 11 -10 2 0 4 5 4 10 0 6 -5 10 -11 10 -5 0
-7 -4 -4 -10z"/>
<path d="M15662 24469 c2 -6 8 -10 13 -10 5 0 11 4 13 10 2 6 -4 11 -13 11 -9
0 -15 -5 -13 -11z"/>
<path d="M15813 24468 c2 -7 10 -13 17 -13 7 0 15 6 18 13 2 7 -5 12 -18 12
-13 0 -20 -5 -17 -12z"/>
<path d="M16220 24465 c12 -15 30 -12 30 6 0 5 -10 9 -21 9 -18 0 -19 -2 -9
-15z"/>
<path d="M16308 24473 c7 -3 16 -2 19 1 4 3 -2 6 -13 5 -11 0 -14 -3 -6 -6z"/>
<path d="M16555 24470 c-3 -5 -2 -10 4 -10 5 0 13 5 16 10 3 6 2 10 -4 10 -5
0 -13 -4 -16 -10z"/>
<path d="M16686 24473 c-11 -11 -6 -23 9 -23 8 0 15 4 15 9 0 13 -16 22 -24
14z"/>
<path d="M16820 24465 c0 -10 11 -16 30 -16 17 -1 36 -2 42 -3 7 -1 14 7 16
17 3 14 -4 17 -42 17 -34 0 -46 -4 -46 -15z"/>
<path d="M17310 24466 c0 -8 4 -18 10 -21 13 -8 52 14 45 26 -10 15 -55 11
-55 -5z"/>
<path d="M18015 24470 c-4 -6 -3 -16 3 -22 13 -13 23 4 13 21 -7 10 -10 10
-16 1z"/>
<path d="M18285 24470 c3 -5 10 -10 16 -10 5 0 9 5 9 10 0 6 -7 10 -16 10 -8
0 -12 -4 -9 -10z"/>
<path d="M18486 24471 c-3 -5 1 -14 8 -20 16 -13 32 2 21 19 -8 12 -22 13 -29
1z"/>
<path d="M18701 24460 c-13 -11 -22 -20 -20 -21 50 -7 85 -6 101 5 22 16 13
26 -30 32 -17 2 -36 -4 -51 -16z"/>
<path d="M18968 24463 c-11 -13 -5 -16 24 -14 9 1 19 -3 23 -9 12 -19 33 -10
33 14 0 21 -5 24 -35 23 -19 -1 -39 -8 -45 -14z"/>
<path d="M19695 24472 c-28 -6 -41 -20 -29 -31 5 -5 61 -11 124 -13 100 -3
115 -1 118 13 4 20 -68 34 -121 24 -19 -4 -43 -3 -53 2 -11 5 -28 8 -39 5z"/>
<path d="M20206 24473 c-4 -4 -25 -6 -47 -4 -43 3 -99 -7 -99 -17 0 -4 10 -13
22 -21 17 -11 68 -14 225 -13 112 0 207 3 211 6 4 2 14 1 22 -4 8 -5 19 -5 25
-1 5 5 41 5 79 0 41 -5 75 -5 86 1 9 5 20 7 23 4 4 -5 67 -5 302 0 72 1 101
18 43 25 -52 6 -248 12 -308 10 -30 -2 -71 -3 -90 -2 -105 1 -129 1 -172 1
-26 -1 -54 4 -61 10 -8 7 -17 9 -20 5 -12 -11 -209 -14 -222 -3 -6 5 -15 7
-19 3z"/>
<path d="M16630 24460 c0 -5 4 -10 9 -10 6 0 13 5 16 10 3 6 -1 10 -9 10 -9 0
-16 -4 -16 -10z"/>
<path d="M17255 24460 c-3 -5 1 -10 10 -10 9 0 13 5 10 10 -3 6 -8 10 -10 10
-2 0 -7 -4 -10 -10z"/>
<path d="M17500 24460 c0 -5 5 -10 10 -10 6 0 10 5 10 10 0 6 -4 10 -10 10 -5
0 -10 -4 -10 -10z"/>
<path d="M18107 24463 c-12 -11 -8 -23 8 -23 8 0 15 7 15 15 0 16 -12 20 -23
8z"/>
<path d="M19132 24461 c2 -7 7 -12 11 -12 12 1 9 15 -3 20 -7 2 -11 -2 -8 -8z"/>
<path d="M19292 24461 c-26 -7 -31 -26 -7 -25 48 2 56 5 53 16 -5 15 -17 18
-46 9z"/>
<path d="M19400 24460 c-24 -15 2 -32 30 -22 24 9 24 9 4 20 -12 6 -26 7 -34
2z"/>
<path d="M19567 24456 c-7 -19 19 -35 44 -29 22 6 26 33 5 33 -8 0 -21 3 -29
6 -8 3 -17 -2 -20 -10z"/>
<path d="M22162 24455 c-17 -13 -26 -13 -43 -5 -26 14 -49 6 -49 -17 0 -16 9
-18 73 -17 40 0 79 4 86 8 8 5 16 3 21 -5 7 -10 16 -10 50 1 33 11 38 15 25
23 -9 5 -32 6 -51 2 -23 -4 -41 -1 -56 10 -28 19 -28 19 -56 0z"/>
<path d="M18420 24451 c0 -5 5 -13 10 -16 6 -3 10 -2 10 4 0 5 -4 13 -10 16
-5 3 -10 2 -10 -4z"/>
<path d="M18540 24450 c0 -5 5 -10 10 -10 6 0 10 5 10 10 0 6 -4 10 -10 10 -5
0 -10 -4 -10 -10z"/>
<path d="M19495 24449 c-4 -6 -4 -13 -1 -16 8 -8 36 5 36 17 0 13 -27 13 -35
-1z"/>
<path d="M19965 24451 c-3 -5 -1 -12 5 -16 12 -7 30 2 30 16 0 12 -27 12 -35
0z"/>
<path d="M20010 24450 c0 -5 5 -10 10 -10 6 0 10 5 10 10 0 6 -4 10 -10 10 -5
0 -10 -4 -10 -10z"/>
<path d="M21173 24453 c-10 -3 -9 -8 3 -20 11 -12 34 -15 92 -14 71 1 105 12
89 27 -8 9 -167 15 -184 7z"/>
<path d="M21483 24453 c-27 -3 -43 -9 -43 -18 0 -15 27 -28 42 -19 6 4 23 7
37 8 16 1 27 8 29 19 2 10 -2 16 -10 15 -7 -1 -32 -3 -55 -5z"/>
<path d="M21703 24452 c-30 -4 -30 -32 0 -32 13 0 28 5 34 11 8 8 17 8 31 0
31 -17 177 -18 196 -2 14 12 19 11 36 -4 22 -20 40 -13 40 16 0 19 -5 20 -77
15 -43 -2 -93 -8 -110 -11 -20 -5 -38 -3 -46 3 -12 10 -51 11 -104 4z"/>
<path d="M22585 24447 c-13 -10 -15 -16 -6 -21 17 -11 41 0 41 19 0 19 -11 19
-35 2z"/>
<path d="M22996 24445 c-13 -7 -36 -10 -50 -8 -15 3 -26 1 -26 -6 0 -6 8 -11
18 -11 10 0 21 -3 25 -6 11 -11 141 -13 160 -2 27 14 11 25 -50 36 -39 7 -59
6 -77 -3z"/>
<path d="M18895 24440 c3 -5 10 -10 16 -10 5 0 9 5 9 10 0 6 -7 10 -16 10 -8
0 -12 -4 -9 -10z"/>
<path d="M21375 24441 c-3 -5 -1 -12 5 -16 12 -7 30 2 30 16 0 12 -27 12 -35
0z"/>
<path d="M22367 24443 c-13 -12 -7 -23 13 -23 11 0 20 7 20 15 0 15 -21 21
-33 8z"/>
<path d="M22426 24441 c-4 -5 -2 -12 3 -15 5 -4 12 -2 15 3 4 5 2 12 -3 15 -5
4 -12 2 -15 -3z"/>
<path d="M22495 24441 c-6 -11 9 -23 19 -14 9 9 7 23 -3 23 -6 0 -12 -4 -16
-9z"/>
<path d="M22742 24438 c8 -22 36 -34 50 -20 10 10 10 15 -2 22 -21 14 -52 12
-48 -2z"/>
<path d="M22885 24440 c3 -5 8 -10 11 -10 2 0 4 5 4 10 0 6 -5 10 -11 10 -5 0
-7 -4 -4 -10z"/>
<path d="M23194 24431 c10 -11 24 -17 32 -14 21 8 17 20 -8 27 -37 10 -42 7
-24 -13z"/>
<path d="M23380 24436 c0 -9 7 -16 16 -16 9 0 14 5 12 12 -6 18 -28 21 -28 4z"/>
<path d="M23300 24436 c0 -9 30 -14 35 -6 4 6 -3 10 -14 10 -12 0 -21 -2 -21
-4z"/>
<path d="M23595 24430 c3 -5 10 -10 16 -10 5 0 9 5 9 10 0 6 -7 10 -16 10 -8
0 -12 -4 -9 -10z"/>
<path d="M23882 24431 c4 -13 18 -16 19 -4 0 4 -5 9 -11 12 -7 2 -11 -2 -8 -8z"/>
<path d="M23960 24425 c-7 -9 -10 -18 -7 -21 10 -11 37 5 37 21 0 19 -14 19
-30 0z"/>
<path d="M24610 24431 c0 -6 5 -13 10 -16 6 -3 10 1 10 9 0 9 -4 16 -10 16 -5
0 -10 -4 -10 -9z"/>
<path d="M23663 24418 c2 -7 16 -13 32 -13 16 0 30 6 33 13 2 8 -8 12 -33 12
-25 0 -35 -4 -32 -12z"/>
<path d="M25394 24415 c-18 -14 -18 -14 3 -15 23 0 39 15 25 24 -5 3 -18 -1
-28 -9z"/>
<path d="M24850 24410 c0 -5 5 -10 10 -10 6 0 10 5 10 10 0 6 -4 10 -10 10 -5
0 -10 -4 -10 -10z"/>
<path d="M25748 24413 c7 -3 16 -2 19 1 4 3 -2 6 -13 5 -11 0 -14 -3 -6 -6z"/>
<path d="M26245 24411 c-7 -12 12 -24 25 -16 11 7 4 25 -10 25 -5 0 -11 -4
-15 -9z"/>
<path d="M26427 24401 c-3 -14 -1 -18 9 -14 8 3 14 11 14 19 0 21 -17 17 -23
-5z"/>
<path d="M26677 24413 c-23 -6 -18 -37 6 -41 33 -7 49 5 37 28 -11 21 -12 21
-43 13z"/>
<path d="M27013 24413 c-22 -8 -14 -23 10 -20 14 1 21 -3 19 -12 -2 -9 3 -11
13 -7 9 3 21 6 26 6 5 0 9 5 9 10 0 6 -9 10 -19 10 -11 0 -23 5 -26 10 -7 11
-13 11 -32 3z"/>
<path d="M27307 24406 c-7 -18 23 -30 37 -16 8 8 7 14 -4 20 -21 13 -27 12
-33 -4z"/>
<path d="M27732 24411 c-11 -7 -10 -10 3 -15 26 -10 35 -7 35 9 0 17 -18 19
-38 6z"/>
<path d="M28511 24409 c-33 -13 -14 -28 27 -22 26 4 30 8 21 19 -13 16 -15 16
-48 3z"/>
<path d="M28657 24413 c-2 -4 -1 -16 2 -26 6 -16 9 -17 19 -4 10 11 9 17 -2
26 -8 7 -16 8 -19 4z"/>
<path d="M29755 24411 c-9 -16 15 -55 27 -43 12 12 7 44 -9 49 -6 2 -14 -1
-18 -6z"/>
<path d="M30322 24408 c2 -6 10 -14 16 -16 7 -2 10 2 6 12 -7 18 -28 22 -22 4z"/>
<path d="M30645 24410 c-3 -5 1 -10 10 -10 9 0 13 5 10 10 -3 6 -8 10 -10 10
-2 0 -7 -4 -10 -10z"/>
<path d="M30702 24404 c1 -9 9 -19 16 -22 9 -3 13 2 10 14 -1 9 -9 19 -16 22
-9 3 -13 -2 -10 -14z"/>
<path d="M30802 24408 c6 -18 28 -21 28 -4 0 9 -7 16 -16 16 -9 0 -14 -5 -12
-12z"/>
<path d="M31138 24413 c-10 -2 -18 -9 -18 -14 0 -15 43 -7 48 9 4 12 0 13 -30
5z"/>
<path d="M31875 24410 c-3 -5 -1 -10 4 -10 6 0 11 5 11 10 0 6 -2 10 -4 10 -3
0 -8 -4 -11 -10z"/>
<path d="M24795 24400 c-3 -5 -1 -10 4 -10 6 0 11 5 11 10 0 6 -2 10 -4 10 -3
0 -8 -4 -11 -10z"/>
<path d="M24897 24404 c-8 -8 1 -24 14 -24 5 0 9 7 9 15 0 15 -12 20 -23 9z"/>
<path d="M25205 24400 c3 -5 10 -10 16 -10 5 0 9 5 9 10 0 6 -7 10 -16 10 -8
0 -12 -4 -9 -10z"/>
<path d="M25822 24398 c3 -7 13 -15 22 -16 12 -3 17 1 14 10 -3 7 -13 15 -22
16 -12 3 -17 -1 -14 -10z"/>
<path d="M26835 24400 c-3 -5 1 -10 9 -10 9 0 16 5 16 10 0 6 -4 10 -9 10 -6
0 -13 -4 -16 -10z"/>
<path d="M27860 24400 c0 -5 5 -10 11 -10 5 0 7 5 4 10 -3 6 -8 10 -11 10 -2
0 -4 -4 -4 -10z"/>
<path d="M28847 24404 c-11 -11 3 -24 18 -18 8 4 12 10 9 15 -6 11 -18 12 -27
3z"/>
<path d="M29136 24401 c-4 -5 -2 -12 3 -15 5 -4 12 -2 15 3 4 5 2 12 -3 15 -5
4 -12 2 -15 -3z"/>
<path d="M31620 24400 c0 -5 7 -10 15 -10 8 0 15 5 15 10 0 6 -7 10 -15 10 -8
0 -15 -4 -15 -10z"/>
<path d="M25900 24389 c0 -5 5 -7 10 -4 6 3 10 8 10 11 0 2 -4 4 -10 4 -5 0
-10 -5 -10 -11z"/>
<path d="M26370 24390 c0 -5 9 -10 21 -10 11 0 17 5 14 10 -3 6 -13 10 -21 10
-8 0 -14 -4 -14 -10z"/>
<path d="M26745 24390 c-3 -5 3 -10 14 -10 12 0 21 5 21 10 0 6 -6 10 -14 10
-8 0 -18 -4 -21 -10z"/>
<path d="M28270 24390 c0 -5 5 -10 10 -10 6 0 10 5 10 10 0 6 -4 10 -10 10 -5
0 -10 -4 -10 -10z"/>
<path d="M28430 24380 c9 -17 14 -18 30 -8 18 12 19 13 2 20 -34 13 -44 10
-32 -12z"/>
<path d="M28985 24390 c-3 -5 1 -10 9 -10 9 0 16 5 16 10 0 6 -4 10 -9 10 -6
0 -13 -4 -16 -10z"/>
<path d="M29500 24390 c0 -5 5 -10 10 -10 6 0 10 5 10 10 0 6 -4 10 -10 10 -5
0 -10 -4 -10 -10z"/>
<path d="M29680 24390 c0 -5 5 -10 11 -10 5 0 7 5 4 10 -3 6 -8 10 -11 10 -2
0 -4 -4 -4 -10z"/>
<path d="M29871 24391 c-10 -7 -10 -10 -1 -16 6 -4 16 -3 22 3 13 13 -4 23
-21 13z"/>
<path d="M30260 24391 c0 -12 29 -23 41 -15 5 3 7 10 4 15 -8 12 -45 12 -45 0z"/>
<path d="M31780 24394 c0 -10 31 -36 37 -31 10 10 -6 37 -22 37 -8 0 -15 -3
-15 -6z"/>
<path d="M27245 24380 c-4 -6 5 -10 19 -10 14 0 26 5 26 10 0 6 -9 10 -19 10
-11 0 -23 -4 -26 -10z"/>
<path d="M27915 24380 c3 -5 10 -10 16 -10 5 0 9 5 9 10 0 6 -7 10 -16 10 -8
0 -12 -4 -9 -10z"/>
<path d="M28140 24380 c0 -5 5 -10 10 -10 6 0 10 5 10 10 0 6 -4 10 -10 10 -5
0 -10 -4 -10 -10z"/>
<path d="M29065 24381 c-6 -11 9 -23 19 -14 9 9 7 23 -3 23 -6 0 -12 -4 -16
-9z"/>
<path d="M29595 24380 c-3 -5 -3 -10 2 -10 4 0 18 -3 31 -6 16 -5 22 -2 22 10
0 18 -45 23 -55 6z"/>
<path d="M31375 24380 c3 -5 11 -10 16 -10 6 0 7 5 4 10 -3 6 -11 10 -16 10
-6 0 -7 -4 -4 -10z"/>
<path d="M31500 24380 c0 -5 5 -10 10 -10 6 0 10 5 10 10 0 6 -4 10 -10 10 -5
0 -10 -4 -10 -10z"/>
<path d="M32118 24383 c6 -2 18 -2 25 0 6 3 1 5 -13 5 -14 0 -19 -2 -12 -5z"/>
<path d="M12985 22799 c-66 -4 -162 -12 -212 -17 -138 -14 -179 -52 -111 -102
27 -20 35 -21 62 -12 17 6 76 13 131 17 55 3 129 13 164 22 67 15 204 19 300
7 63 -7 213 -44 280 -68 60 -22 111 -21 111 2 0 9 -4 22 -8 29 -16 25 -211 86
-357 112 -86 15 -222 19 -360 10z"/>
<path d="M14296 22563 c-3 -10 -3 -46 -1 -80 3 -35 7 -90 9 -122 2 -33 7 -64
10 -69 7 -11 19 -230 17 -312 -1 -36 -9 -90 -17 -120 -9 -30 -20 -73 -26 -95
-22 -85 -73 -198 -179 -395 -60 -113 -114 -212 -119 -220 -27 -45 -88 -159
-99 -188 -12 -29 -12 -35 1 -48 22 -22 44 -8 67 45 11 27 41 84 67 127 25 43
50 87 55 98 6 12 15 30 22 41 49 81 163 297 197 375 70 156 92 260 94 430 1
143 -22 373 -48 490 -13 56 -39 79 -50 43z"/>
<path d="M6214 22349 c-73 -21 -65 -65 10 -54 l40 6 -49 -43 c-26 -23 -64 -54
-84 -69 -41 -30 -164 -155 -177 -180 -5 -9 -21 -32 -36 -50 -66 -84 -101 -134
-120 -172 -12 -23 -27 -49 -34 -57 -39 -48 -130 -263 -139 -330 -8 -55 -6
-168 4 -210 32 -145 128 -240 243 -240 50 0 98 19 98 39 0 5 -31 11 -69 13
-59 3 -77 9 -113 35 -57 41 -75 73 -93 169 -21 109 -19 136 14 240 39 121 91
221 200 384 129 192 236 304 383 403 82 55 96 74 78 107 -9 17 -20 20 -68 19
-31 0 -71 -5 -88 -10z"/>
<path d="M4578 22339 c-26 -15 -22 -48 6 -58 29 -11 61 -64 70 -117 4 -21 13
-48 20 -59 8 -11 17 -36 21 -55 4 -19 12 -40 17 -47 5 -6 12 -33 14 -59 3 -26
9 -56 13 -68 14 -42 -2 -350 -19 -371 -6 -8 -20 -80 -25 -130 -3 -23 -17 -81
-25 -100 -22 -53 -43 -122 -46 -148 -2 -17 -9 -36 -16 -44 -9 -11 -8 -18 5
-30 29 -29 54 -2 84 92 27 83 34 108 52 213 12 63 25 130 30 150 27 104 35
400 12 461 -15 41 -36 125 -33 134 1 4 -4 18 -13 30 -8 12 -15 28 -15 36 0 8
-6 22 -13 30 -8 9 -24 41 -36 71 -31 76 -60 95 -103 69z"/>
<path d="M13280 22163 c-32 -37 -103 -143 -132 -198 -82 -156 -118 -231 -118
-242 0 -8 -7 -28 -16 -44 -8 -17 -22 -69 -30 -117 -22 -126 -20 -122 -57 -115
-17 4 -47 15 -65 26 -21 12 -59 22 -101 25 -115 8 -277 -58 -347 -141 -23 -27
-26 -37 -20 -80 3 -27 12 -60 21 -73 19 -29 99 -54 174 -54 162 0 438 76 524
143 30 24 19 30 -42 23 -57 -7 -59 -6 -63 19 -6 30 25 190 56 293 27 90 161
352 216 422 45 58 74 115 67 133 -10 27 -32 20 -67 -20z m-413 -739 c24 -3 39
-16 63 -52 17 -25 29 -53 28 -62 -10 -54 -356 -114 -457 -79 -77 27 -57 87 47
142 118 62 182 72 319 51z"/>
<path d="M8740 22162 c-25 -8 -60 -44 -98 -102 -20 -30 -47 -66 -59 -80 -13
-14 -23 -30 -23 -37 0 -6 -11 -24 -23 -40 -55 -66 -80 -133 -85 -230 l-4 -92
-77 -6 c-86 -6 -170 -28 -251 -63 -115 -50 -138 -85 -89 -135 30 -30 30 -30
117 -24 104 8 462 80 538 108 40 15 54 26 54 40 0 25 -18 25 -165 -7 -261 -55
-443 -79 -461 -61 -12 11 58 45 130 63 48 12 102 17 170 16 l98 -2 -7 28 c-10
37 -6 135 6 147 5 5 9 15 9 22 0 26 41 119 65 147 14 16 25 35 25 42 0 7 11
25 23 41 44 53 137 194 137 208 0 17 -11 24 -30 17z"/>
<path d="M28054 22146 c-14 -10 -21 -27 -22 -55 -2 -35 1 -41 22 -47 13 -3 34
0 46 6 19 10 21 17 15 53 -4 23 -9 45 -12 50 -7 11 -27 8 -49 -7z"/>
<path d="M26735 22135 c-59 -20 -155 -127 -187 -207 -58 -146 -72 -218 -57
-307 7 -47 15 -61 50 -92 68 -60 157 -61 271 -3 94 48 154 124 193 244 9 30
22 63 27 73 5 11 5 24 -1 34 -5 9 -7 32 -4 52 4 30 -1 42 -26 69 -16 17 -39
32 -50 32 -11 0 -23 5 -26 10 -3 6 -22 10 -41 10 -31 0 -35 2 -29 21 5 16 -1
28 -27 50 -38 33 -40 33 -93 14z m-17 -96 c-16 -11 -28 -28 -28 -36 0 -13 8
-14 43 -10 23 4 73 10 111 16 80 11 94 5 125 -50 22 -38 22 -92 2 -169 -23
-89 -91 -163 -197 -212 -56 -26 -73 -30 -117 -25 -68 8 -95 36 -106 108 -9 54
8 178 28 203 5 6 12 22 16 35 8 25 85 126 113 149 9 6 21 12 26 12 6 0 -1 -10
-16 -21z"/>
<path d="M9576 22107 c-20 -20 -36 -40 -36 -47 0 -6 -20 -52 -44 -103 -24 -51
-51 -123 -61 -162 -10 -38 -21 -73 -25 -78 -3 -4 -44 -14 -90 -22 -153 -27
-230 -63 -230 -107 0 -31 45 -33 111 -4 32 15 87 32 120 39 82 15 93 2 86 -98
-7 -96 4 -175 25 -189 33 -21 38 4 21 109 -29 189 -25 195 136 195 157 0 262
29 204 56 -10 4 -85 11 -168 14 -128 4 -150 7 -153 21 -2 9 16 56 38 105 23
49 46 100 52 114 12 30 18 40 53 109 25 47 26 54 13 68 -14 13 -19 11 -52 -20z"/>
<path d="M29081 22023 c-91 -93 -220 -285 -245 -370 -6 -19 -4 -21 18 -15 23
6 52 42 111 137 28 45 70 99 135 175 63 73 84 106 75 120 -13 21 -39 8 -94
-47z"/>
<path d="M1737 22050 c-26 -8 -187 -163 -187 -181 0 -5 -6 -9 -12 -9 -29 -1
-108 -95 -177 -209 -19 -31 -38 -58 -42 -61 -11 -8 -39 -91 -39 -118 0 -12 -8
-34 -17 -49 -12 -17 -18 -54 -21 -115 -4 -79 -2 -95 18 -130 12 -21 20 -48 17
-59 -3 -11 0 -19 6 -19 7 0 26 -14 42 -32 16 -17 59 -45 95 -62 60 -29 73 -31
170 -31 77 0 118 5 153 19 78 30 55 41 -84 41 -212 1 -295 45 -346 185 -20 54
-16 183 6 238 10 26 25 62 32 81 7 19 28 54 46 78 18 24 33 47 33 51 0 4 8 15
18 24 9 8 49 50 87 93 82 91 196 187 247 208 46 19 56 36 33 54 -21 15 -37 15
-78 3z"/>
<path d="M31671 22018 c-27 -28 -29 -35 -16 -44 8 -6 15 -19 15 -28 0 -13 7
-17 28 -14 26 3 27 5 27 57 0 31 -5 56 -12 58 -6 2 -25 -11 -42 -29z"/>
<path d="M27532 22024 c-32 -22 -72 -60 -72 -68 0 -3 20 -6 44 -6 36 0 48 5
66 27 37 47 10 81 -38 47z"/>
<path d="M18838 21988 c-8 -13 -18 -48 -22 -78 -4 -30 -15 -89 -26 -130 -10
-41 -18 -84 -17 -95 3 -67 -3 -85 -33 -100 -16 -8 -69 -22 -117 -30 -116 -20
-175 -40 -202 -69 -26 -28 -19 -56 15 -56 13 0 57 11 99 25 41 13 103 30 136
37 57 12 62 11 75 -7 10 -13 12 -29 8 -45 -25 -94 -22 -140 12 -140 25 0 35
45 23 101 -15 67 -2 94 48 108 21 6 54 11 73 11 69 0 154 19 174 40 11 10 16
23 12 27 -9 9 -74 9 -187 -2 -52 -5 -88 -4 -92 2 -6 9 -5 15 38 173 39 147 49
218 35 235 -18 21 -35 19 -52 -7z"/>
<path d="M23172 21977 c-12 -13 -22 -32 -22 -43 0 -11 -6 -28 -13 -39 -8 -11
-26 -53 -42 -93 -32 -87 -64 -127 -104 -135 -39 -8 -97 -59 -86 -76 7 -12 21
-12 89 5 28 7 28 6 21 -27 -3 -19 -15 -62 -26 -96 -22 -66 -19 -83 10 -83 31
0 49 32 50 89 0 29 5 59 9 65 5 6 12 22 15 36 10 39 42 52 140 56 66 3 96 9
109 21 31 27 6 35 -101 31 -117 -4 -117 -4 -71 82 88 164 105 222 65 228 -12
2 -30 -8 -43 -21z"/>
<path d="M15203 21967 c-10 -13 -29 -57 -42 -98 -13 -41 -36 -108 -51 -149
-16 -41 -41 -124 -57 -185 l-29 -110 -55 -12 c-30 -7 -83 -17 -119 -23 -99
-18 -142 -50 -106 -79 12 -10 31 -8 89 8 87 25 155 27 163 7 3 -8 -6 -48 -21
-90 -14 -41 -25 -80 -24 -88 1 -7 -1 -25 -5 -40 -6 -19 -2 -36 10 -57 32 -54
34 -49 59 114 22 149 26 165 44 175 9 5 73 11 141 15 152 7 245 22 261 41 26
32 -4 36 -191 27 -140 -6 -184 -5 -187 4 -3 7 5 38 17 70 12 32 40 112 62 178
22 66 53 150 68 187 27 64 34 88 31 116 -2 20 -38 14 -58 -11z"/>
<path d="M3298 21944 c-27 -14 -32 -23 -42 -84 -8 -46 -12 -66 -25 -120 -22
-89 -23 -150 -1 -150 9 0 40 85 70 193 11 37 22 73 26 78 4 6 10 26 14 45 10
43 -5 57 -42 38z"/>
<path d="M27775 21926 c-28 -12 -82 -54 -121 -92 -61 -59 -74 -78 -88 -127
-18 -61 -25 -184 -12 -205 4 -7 21 -12 37 -12 33 0 99 54 140 115 13 19 27 35
32 35 10 0 9 -56 -2 -121 -21 -123 -32 -192 -37 -246 -10 -111 -32 -184 -71
-231 -35 -43 -36 -45 -18 -58 49 -36 108 10 131 101 29 114 34 150 38 245 5
116 25 176 56 172 17 -2 21 2 16 14 -4 9 -3 22 2 28 5 6 15 31 22 56 7 25 20
52 27 61 7 8 13 22 13 29 0 7 11 32 24 54 58 101 56 170 -4 106 -16 -18 -33
-44 -36 -59 -3 -14 -9 -34 -15 -43 -5 -10 -9 -25 -9 -33 0 -8 -4 -23 -10 -33
-5 -9 -17 -34 -26 -54 -9 -21 -20 -38 -24 -38 -13 0 -24 59 -24 135 -1 96 -20
98 -69 7 -20 -38 -37 -75 -37 -82 0 -47 -100 -112 -121 -79 -41 65 41 193 181
281 30 19 64 45 75 57 16 19 17 24 5 31 -20 13 -18 13 -75 -14z"/>
<path d="M30527 21936 c-63 -28 -157 -153 -157 -209 0 -8 -8 -25 -19 -38 -10
-13 -20 -33 -22 -44 -2 -10 -18 -29 -36 -41 -21 -14 -28 -25 -22 -31 11 -11
-33 -114 -57 -134 -8 -6 -14 -18 -14 -26 0 -8 -27 -73 -60 -145 -56 -123 -72
-178 -51 -178 32 0 65 27 102 82 37 56 40 66 31 91 -9 25 -7 35 19 76 16 27
29 54 29 60 0 7 9 30 20 53 11 22 27 68 35 102 9 33 20 65 25 70 6 6 10 18 10
27 0 9 16 36 35 59 19 23 35 46 35 51 0 4 14 25 32 45 58 65 145 107 119 56
-5 -9 -14 -37 -21 -62 -14 -54 -72 -172 -107 -218 -14 -18 -36 -38 -48 -44
-45 -20 -42 -68 4 -68 19 0 42 16 84 60 43 45 65 60 86 60 15 0 51 13 81 29
80 43 153 81 157 81 2 0 3 -9 3 -20 0 -23 28 -39 39 -22 16 27 84 71 97 64 8
-4 38 -5 68 -2 39 4 63 14 95 39 48 39 49 55 0 59 -19 1 -51 7 -72 14 -29 9
-40 9 -49 0 -7 -7 -18 -12 -25 -12 -25 0 -198 -71 -243 -100 -38 -25 -133 -70
-146 -70 -2 0 -1 13 2 30 4 16 2 36 -4 42 -13 16 -4 64 14 79 8 6 14 24 14 40
0 16 4 29 10 29 16 0 23 49 10 65 -15 18 -64 18 -103 1z"/>
<path d="M27338 21900 c-62 -8 -107 -32 -154 -82 -59 -61 -174 -210 -174 -224
0 -8 10 -14 23 -14 26 0 64 37 125 121 69 96 122 130 218 143 48 6 53 5 69
-20 15 -24 16 -34 6 -83 -7 -31 -32 -97 -57 -146 -49 -101 -52 -115 -26 -115
35 0 92 94 92 150 0 17 5 40 10 50 16 30 29 144 17 151 -5 4 -7 14 -4 22 14
37 -53 59 -145 47z"/>
<path d="M28635 21871 c-56 -26 -89 -63 -80 -93 16 -59 27 -69 68 -66 36 3 41
0 58 -32 13 -23 27 -35 42 -36 33 -2 38 17 10 39 -21 17 -24 25 -18 55 3 19
12 43 18 54 10 16 9 21 -5 29 -10 6 -18 21 -18 33 0 18 -21 40 -33 35 -1 0
-20 -9 -42 -18z"/>
<path d="M28355 21851 c-22 -10 -62 -35 -90 -55 -27 -20 -58 -36 -68 -36 -30
0 -56 -19 -82 -60 -45 -71 -42 -110 6 -95 11 4 54 38 96 75 85 78 128 100 136
69 9 -34 34 -20 61 34 27 57 32 77 17 77 -5 0 -15 2 -23 5 -7 2 -31 -4 -53
-14z"/>
<path d="M30168 21790 c-60 -59 -86 -79 -100 -74 -24 7 -22 21 7 69 45 72 28
86 -35 29 -42 -39 -55 -86 -25 -98 32 -12 6 -83 -61 -173 -67 -88 -79 -119
-44 -109 11 3 29 9 40 12 12 3 30 25 41 50 12 24 43 62 69 84 28 24 50 51 53
67 3 18 38 59 91 112 47 46 86 90 86 97 0 34 -45 9 -122 -66z"/>
<path d="M29601 21830 c-49 -12 -82 -40 -120 -105 -35 -61 -35 -57 3 -123 7
-13 24 -35 37 -50 13 -15 24 -32 24 -38 0 -6 8 -18 18 -28 15 -15 30 -17 90
-13 73 4 122 22 147 52 13 15 6 16 -80 11 -87 -5 -96 -4 -137 19 -32 19 -43
32 -43 50 0 20 13 32 75 66 104 57 142 106 116 148 -11 17 -79 22 -130 11z
m67 -65 c-26 -25 -102 -64 -127 -65 -26 0 40 59 83 74 61 22 72 19 44 -9z"/>
<path d="M31395 21818 c-128 -7 -185 -25 -185 -59 0 -10 11 -26 24 -35 23 -15
27 -14 55 7 22 16 52 24 113 30 231 23 228 22 228 9 0 -15 -41 -72 -82 -114
-16 -15 -35 -41 -43 -57 -14 -26 -14 -29 5 -39 24 -13 60 2 60 25 0 8 13 29
28 47 38 44 72 105 72 127 0 48 -100 69 -275 59z"/>
<path d="M31804 21775 c-10 -8 -27 -15 -37 -15 -19 0 -147 -128 -147 -146 0
-6 7 -18 17 -25 14 -12 17 -12 21 1 6 21 128 137 163 155 29 16 40 45 16 45
-7 0 -22 -7 -33 -15z"/>
<path d="M23685 21755 c-81 -18 -145 -46 -188 -85 -38 -33 -52 -65 -62 -141
-6 -41 -4 -50 22 -80 16 -19 35 -44 43 -57 18 -28 110 -66 161 -66 48 0 95 30
78 50 -6 8 -29 14 -53 14 -48 0 -132 23 -159 43 -24 17 -27 110 -5 152 35 66
205 122 341 112 70 -5 88 3 66 29 -35 43 -131 54 -244 29z"/>
<path d="M22178 21725 c-126 -34 -200 -132 -183 -243 7 -48 37 -87 72 -94 11
-2 17 -11 15 -21 -2 -14 5 -17 48 -17 63 0 81 16 139 123 23 41 49 81 57 88
18 15 16 17 70 -82 40 -72 56 -89 122 -128 58 -34 82 -39 82 -16 0 8 -4 15 -9
15 -8 0 -94 81 -139 131 -23 27 -52 119 -52 170 0 41 -16 69 -40 69 -10 0 -22
5 -25 10 -8 14 -100 11 -157 -5z m134 -57 c-11 -18 -39 -69 -62 -113 -49 -92
-95 -145 -125 -145 -57 0 -83 68 -55 141 13 33 31 53 71 81 51 34 131 66 172
67 18 1 18 0 -1 -31z"/>
<path d="M32050 21715 c-7 -8 -14 -44 -15 -80 l-4 -66 32 6 c63 12 118 28 123
36 3 5 11 9 19 9 10 0 12 -9 8 -35 -4 -26 -2 -36 11 -41 9 -3 16 -12 16 -20 0
-8 5 -14 10 -14 6 0 10 15 10 34 0 18 6 39 13 45 8 6 15 31 15 55 2 55 -16 64
-79 41 -104 -38 -110 -40 -120 -24 -5 8 -9 26 -9 42 0 30 -11 35 -30 12z"/>
<path d="M5186 21701 c-16 -18 -16 -20 6 -40 29 -28 62 -36 101 -24 39 11 45
35 18 62 -28 28 -101 29 -125 2z"/>
<path d="M10800 21711 c-95 -20 -192 -99 -232 -188 -35 -79 -52 -156 -39 -180
5 -10 12 -25 14 -33 3 -9 24 -29 47 -45 38 -27 50 -30 110 -28 116 4 204 50
338 176 41 38 77 66 81 61 5 -5 16 -36 26 -69 26 -91 55 -143 92 -166 44 -28
105 -36 121 -17 10 12 3 19 -39 39 -85 39 -130 127 -145 281 -7 79 -16 98 -45
98 -13 0 -28 -19 -50 -61 -56 -112 -177 -215 -303 -259 -79 -27 -127 -26 -154
3 -33 35 -36 69 -13 122 12 26 21 53 21 60 0 7 27 38 60 69 77 71 151 97 215
75 37 -13 40 -17 37 -47 -3 -27 0 -32 17 -32 13 0 26 12 36 30 14 27 14 33 0
60 -9 17 -27 35 -40 40 -37 14 -116 20 -155 11z"/>
<path d="M31880 21675 c-41 -42 -146 -96 -196 -99 -48 -4 -65 -23 -40 -42 26
-18 52 -18 114 2 60 20 114 62 149 116 33 54 17 68 -27 23z"/>
<path d="M19671 21678 c-44 -12 -128 -67 -168 -109 -18 -19 -41 -55 -53 -81
-18 -41 -19 -53 -10 -89 17 -62 35 -83 99 -118 89 -47 217 -74 326 -68 49 3
102 10 118 16 25 10 45 36 35 46 -2 2 -60 7 -128 10 -198 9 -301 34 -357 87
-45 42 -24 121 46 177 56 44 107 64 174 66 40 1 63 7 75 19 16 16 16 18 -7 37
-26 21 -91 24 -150 7z"/>
<path d="M30980 21634 c-46 -24 -97 -44 -112 -44 -28 0 -55 -31 -43 -50 20
-32 148 15 210 76 42 42 56 66 38 63 -5 -1 -46 -21 -93 -45z"/>
<path d="M2481 21625 c-33 -30 -45 -35 -89 -35 -59 0 -162 -30 -252 -73 -78
-38 -170 -124 -170 -160 0 -14 -6 -30 -13 -36 -8 -6 -20 -29 -27 -52 -14 -41
-14 -42 17 -69 28 -25 35 -27 74 -20 56 11 112 35 129 54 7 9 18 16 26 16 7 0
32 18 56 40 24 22 46 40 50 40 4 0 45 46 92 103 53 64 99 110 122 120 20 10
38 16 40 14 2 -2 7 -50 10 -107 7 -104 33 -201 67 -254 21 -31 84 -50 120 -37
52 20 42 51 -16 51 -77 0 -100 48 -118 245 -14 158 -15 163 -29 179 -20 25
-47 19 -89 -19z m-88 -92 c13 -13 -107 -130 -215 -210 -82 -60 -176 -90 -193
-62 -27 43 116 182 245 237 73 31 151 48 163 35z"/>
<path d="M3530 21635 c-36 -7 -115 -29 -175 -49 -61 -20 -123 -36 -138 -36
-15 0 -30 -7 -33 -15 -3 -8 -23 -19 -44 -25 -21 -6 -49 -19 -61 -29 -33 -27
-11 -51 46 -51 49 0 59 -13 44 -62 -12 -42 -12 -118 0 -118 17 0 23 19 25 86
2 35 6 68 10 71 3 3 6 14 6 23 0 9 8 24 18 32 27 23 183 77 337 117 102 26
140 40 140 51 0 20 -88 23 -175 5z"/>
<path d="M4026 21639 c-168 -22 -282 -122 -271 -239 5 -52 25 -83 76 -117 37
-24 49 -27 127 -26 93 1 198 31 209 59 9 25 -3 27 -102 14 -125 -15 -190 -7
-227 30 -64 65 -14 151 112 192 46 14 99 22 184 24 125 4 152 13 124 40 -32
32 -105 39 -232 23z"/>
<path d="M20727 21639 c-125 -6 -153 -10 -175 -26 -35 -26 -38 -41 -9 -54 18
-8 54 -7 146 5 68 9 179 16 247 16 93 0 133 4 154 15 17 9 30 20 30 25 0 20
-173 28 -393 19z"/>
<path d="M31290 21636 c0 -9 5 -16 10 -16 6 0 10 4 10 9 0 6 -4 13 -10 16 -5
3 -10 -1 -10 -9z"/>
<path d="M6860 21626 c-102 -29 -227 -125 -312 -239 -31 -42 -38 -59 -38 -97
0 -40 3 -48 25 -58 74 -34 144 3 253 134 80 96 104 115 116 96 3 -5 8 -40 11
-78 9 -119 14 -134 69 -191 43 -44 58 -53 87 -53 39 1 69 20 69 44 0 12 -10
16 -43 16 -34 0 -49 6 -69 28 -28 29 -68 130 -68 171 0 13 -7 48 -16 76 -22
69 -11 103 36 119 20 6 35 18 35 26 0 20 -93 23 -155 6z m-20 -85 c0 -18 -48
-101 -82 -140 -57 -67 -158 -124 -187 -106 -28 17 141 202 214 236 46 21 55
23 55 10z"/>
<path d="M30132 21608 c5 -15 58 -24 58 -10 0 5 -10 12 -22 16 -34 9 -40 7
-36 -6z"/>
<path d="M31300 21595 c-10 -27 -78 -64 -117 -65 -12 0 -27 -9 -33 -20 -6 -11
-18 -20 -26 -20 -9 0 -14 -6 -12 -12 3 -8 27 -14 64 -16 50 -2 67 2 109 27 66
38 83 69 60 105 -22 33 -33 33 -45 1z"/>
<path d="M7498 21583 c-51 -6 -71 -39 -38 -65 26 -21 36 -22 79 -7 39 14 58
44 40 65 -6 8 -19 13 -28 12 -9 -1 -33 -3 -53 -5z"/>
<path d="M16310 21572 c-48 -23 -201 -178 -224 -226 -10 -22 -24 -65 -32 -95
-12 -52 -11 -59 9 -96 61 -111 244 -70 370 82 47 56 77 78 77 55 0 -19 73
-100 104 -117 29 -16 37 -17 50 -6 9 8 16 16 16 20 0 4 -23 24 -51 46 -85 65
-103 95 -109 189 -5 74 -7 81 -27 84 -17 3 -24 -3 -29 -25 -28 -125 -46 -162
-105 -222 -58 -58 -117 -91 -178 -98 -46 -5 -51 -4 -61 19 -30 65 75 237 189
310 54 34 69 35 73 6 4 -28 30 -34 52 -13 20 21 21 54 0 83 -19 27 -73 29
-124 4z"/>
<path d="M17750 21563 c-145 -26 -220 -63 -268 -134 -30 -43 -24 -104 13 -162
32 -47 120 -87 194 -87 37 0 101 25 101 39 0 15 -34 31 -67 31 -36 1 -110 21
-143 39 -111 62 -25 170 160 200 35 6 71 18 79 26 15 15 14 18 -8 36 -13 10
-26 18 -30 18 -3 -1 -17 -4 -31 -6z"/>
<path d="M21109 21536 c-3 -3 -73 -14 -156 -25 -83 -11 -170 -25 -194 -30 -24
-5 -69 -12 -100 -16 -42 -4 -63 -13 -80 -31 -20 -21 -21 -27 -9 -34 17 -10 62
-6 210 21 58 11 159 26 225 35 121 16 190 39 190 65 0 9 -14 15 -40 17 -23 2
-43 1 -46 -2z"/>
<path d="M29510 21520 c0 -5 5 -10 11 -10 5 0 7 5 4 10 -3 6 -8 10 -11 10 -2
0 -4 -4 -4 -10z"/>
<path d="M12075 21500 c-17 -19 -17 -21 0 -40 26 -29 71 -26 92 6 16 25 16 27
-2 40 -27 20 -69 17 -90 -6z"/>
<path d="M17110 21425 c-22 -24 -23 -26 -7 -42 35 -35 98 15 67 52 -18 21 -33
19 -60 -10z"/>
<path d="M23815 21094 c-22 -4 -254 -27 -488 -49 -164 -15 -293 -30 -442 -50
-179 -25 -447 -54 -595 -65 -80 -6 -179 -17 -220 -25 -41 -7 -106 -17 -145
-20 -127 -12 -185 -35 -185 -77 0 -23 22 -23 125 1 86 20 242 40 565 71 113
11 297 31 410 45 289 35 562 65 650 71 41 3 102 10 135 15 33 5 89 9 124 9 35
0 81 5 102 12 43 12 75 41 64 57 -6 10 -56 13 -100 5z"/>
<path d="M19762 21014 c-13 -9 -23 -11 -27 -4 -3 5 -15 10 -26 10 -16 0 -19
-6 -17 -27 3 -27 1 -28 -46 -31 -50 -3 -84 12 -53 24 26 9 21 34 -7 34 -13 0
-50 -8 -82 -19 -33 -10 -84 -24 -114 -31 -104 -24 -166 -52 -183 -82 -19 -33
-10 -35 43 -8 22 11 44 20 49 20 5 0 13 -9 16 -20 8 -24 27 -26 58 -5 30 19
235 64 320 69 38 3 74 10 81 16 7 5 27 7 43 4 17 -3 33 -1 37 4 3 6 15 8 26 5
11 -3 20 0 20 6 0 6 7 11 15 11 8 0 15 8 15 19 0 16 -9 19 -73 19 -50 1 -81
-4 -95 -14z"/>
<path d="M17829 20906 c-2 -2 -42 -7 -89 -11 -46 -3 -90 -11 -97 -17 -7 -5
-21 -7 -32 -3 -11 3 -46 1 -78 -5 -33 -5 -97 -11 -143 -11 -93 -1 -120 -10
-120 -39 0 -15 8 -19 47 -22 64 -4 66 -25 7 -61 -25 -15 -44 -33 -41 -40 5
-15 74 -11 102 7 11 7 32 16 47 20 15 3 32 15 38 26 12 22 45 27 54 8 3 -9 11
-6 25 11 16 17 27 22 45 17 14 -3 27 -2 31 3 3 5 30 13 60 16 30 4 60 14 66
21 6 8 28 17 48 20 44 7 87 37 77 53 -7 10 -38 15 -47 7z m-286 -73 c11 -11
-25 -43 -48 -43 -12 0 -37 -5 -54 -11 -22 -8 -36 -8 -43 -1 -19 19 53 53 128
61 6 0 14 -2 17 -6z"/>
<path d="M16410 20860 c-71 -21 -225 -40 -325 -40 -70 0 -102 -18 -86 -48 13
-26 21 -86 13 -98 -4 -6 -15 -13 -25 -17 -21 -8 -33 -35 -21 -47 11 -10 190
14 207 28 20 17 181 80 230 92 25 5 90 16 144 24 108 17 123 27 123 83 l0 33
-54 0 c-29 0 -73 2 -97 5 -28 3 -68 -3 -109 -15z"/>
<path d="M17060 20575 c-9 -10 -10 -27 -5 -53 5 -20 8 -59 9 -86 l1 -49 -83
-27 c-90 -30 -135 -62 -130 -95 4 -30 35 -30 77 0 41 27 105 50 120 41 5 -3 8
-45 7 -93 -3 -95 5 -133 28 -133 30 0 40 29 30 88 -5 31 -8 76 -6 100 5 63 32
74 187 73 128 0 164 10 152 42 -11 29 -150 34 -301 10 l-39 -6 6 84 c5 62 3
89 -7 102 -16 21 -30 22 -46 2z"/>
<path d="M13424 20548 c-8 -12 30 -48 51 -48 8 0 16 -9 20 -19 3 -11 18 -35
34 -55 34 -43 56 -128 75 -296 54 -470 -116 -817 -510 -1045 -85 -49 -116 -77
-101 -91 20 -21 234 93 341 181 129 107 242 286 292 463 34 120 38 153 38 337
-1 211 -15 304 -71 445 -16 40 -83 114 -115 127 -37 16 -45 16 -54 1z"/>
<path d="M4587 20533 c-15 -14 -6 -38 31 -82 20 -25 45 -61 54 -81 10 -19 27
-48 38 -65 11 -16 22 -37 26 -45 3 -8 10 -26 16 -40 76 -183 81 -403 14 -591
-24 -68 -95 -189 -153 -260 -42 -52 -127 -119 -151 -119 -27 0 -45 -25 -37
-51 6 -17 12 -20 35 -15 49 9 125 64 171 122 24 31 49 61 55 68 22 23 118 190
132 230 32 91 62 247 62 329 0 96 -45 265 -97 367 -102 197 -162 268 -196 233z"/>
<path d="M6146 20510 c-131 -65 -299 -254 -445 -498 -17 -29 -31 -55 -31 -58
0 -3 -11 -29 -24 -57 -25 -55 -29 -69 -52 -186 -21 -111 -9 -276 22 -294 8 -4
14 -18 14 -31 0 -35 103 -166 131 -166 18 0 9 37 -14 58 -13 12 -36 50 -51 85
-16 34 -34 76 -42 92 -23 53 -26 117 -9 200 47 235 134 397 344 640 39 45 159
140 214 170 89 47 35 91 -57 45z"/>
<path d="M19005 20467 c-58 -28 -78 -48 -100 -100 -19 -47 -19 -91 1 -108 24
-20 94 3 173 56 37 25 72 45 78 45 6 0 16 -13 21 -29 6 -16 26 -55 46 -85 31
-48 40 -56 66 -56 18 0 33 6 36 15 3 8 -15 48 -40 89 -32 54 -47 91 -53 133
l-8 58 -85 3 c-72 2 -93 -1 -135 -21z m115 -54 c0 -16 -92 -65 -133 -71 -40
-5 -41 -4 -27 14 23 29 42 43 75 53 37 11 85 13 85 4z"/>
<path d="M18220 20468 c-121 -35 -173 -62 -230 -117 -49 -48 -59 -64 -65 -103
-14 -92 -13 -92 211 -104 115 -5 150 -4 197 10 49 14 87 43 87 67 0 3 -75 7
-167 8 -164 1 -236 10 -255 29 -14 14 64 67 130 86 126 38 143 47 158 83 23
53 8 62 -66 41z"/>
<path d="M18697 20440 c-45 -35 -33 -100 18 -100 34 0 57 32 53 77 -4 46 -30
55 -71 23z"/>
<path d="M16375 20395 c-5 -2 -28 -9 -51 -14 -69 -18 -129 -65 -153 -121 -29
-67 -27 -94 12 -136 51 -55 148 -68 289 -39 75 16 115 36 125 61 12 33 -13 36
-93 13 -104 -30 -223 -32 -253 -5 -27 24 -27 75 -1 109 28 35 94 64 166 72 75
8 93 18 78 42 -8 13 -25 19 -60 20 -27 1 -53 0 -59 -2z"/>
<path d="M11986 20329 c-63 -9 -96 -30 -96 -61 0 -29 21 -31 117 -13 101 20
284 16 533 -11 198 -21 223 -21 250 -4 13 9 11 13 -10 30 -14 11 -32 17 -41
14 -9 -2 -58 2 -110 11 -222 35 -532 52 -643 34z"/>
<path d="M1757 20293 c-55 -14 -223 -173 -271 -255 -15 -27 -32 -48 -37 -48
-6 0 -18 -17 -27 -38 -9 -20 -27 -51 -39 -68 -12 -17 -24 -42 -26 -55 -3 -13
-14 -53 -26 -88 -25 -75 -27 -144 -6 -185 8 -15 15 -37 15 -48 0 -10 16 -35
35 -55 19 -20 35 -39 35 -43 0 -4 28 -18 63 -31 51 -20 78 -24 149 -22 89 3
165 24 153 43 -3 6 -53 9 -123 7 -106 -2 -121 0 -163 21 -25 13 -54 37 -63 53
-9 16 -21 29 -26 29 -11 0 -19 39 -24 110 -5 64 19 165 46 196 10 11 18 26 18
33 0 19 48 95 100 156 25 30 56 68 69 85 29 39 147 139 189 162 54 29 24 58
-41 41z"/>
<path d="M3326 20257 c-11 -16 -18 -57 -21 -128 -3 -57 -10 -116 -16 -130 -10
-26 -27 -34 -124 -54 -53 -11 -95 -36 -95 -56 0 -29 45 -35 105 -15 28 10 65
16 82 15 17 -2 38 2 46 9 18 15 152 41 213 42 46 0 81 20 69 40 -6 10 -35 11
-126 7 -81 -5 -120 -3 -125 4 -4 6 -2 14 3 18 6 3 10 20 11 38 0 17 8 45 16
61 8 16 17 61 18 98 3 64 2 69 -19 72 -14 2 -27 -5 -37 -21z"/>
<path d="M12632 20152 c-11 -9 -27 -37 -37 -62 -9 -25 -30 -72 -45 -105 -16
-33 -45 -96 -65 -140 -20 -44 -43 -91 -50 -105 -7 -14 -22 -54 -34 -90 -25
-71 -46 -110 -61 -110 -6 0 -35 25 -65 54 -61 62 -91 72 -186 63 -77 -7 -126
-32 -167 -87 -32 -41 -34 -48 -28 -98 13 -107 64 -145 206 -150 86 -3 103 -1
180 27 136 50 220 105 196 128 -4 4 -30 -3 -58 -15 -32 -14 -56 -18 -61 -13
-6 6 5 36 28 78 21 37 49 88 62 113 13 25 61 117 108 205 149 282 154 294 116
315 -15 7 -24 6 -39 -8z m-441 -573 c53 -16 99 -67 106 -116 6 -47 -4 -57 -75
-72 -108 -23 -202 -7 -248 40 l-27 28 17 45 c14 37 24 47 64 65 53 23 107 26
163 10z"/>
<path d="M18767 20153 c-41 -21 -65 -93 -31 -93 9 0 27 9 41 19 19 16 30 18
49 10 37 -14 203 -11 281 5 37 8 99 17 138 21 82 8 119 21 109 36 -8 14 -190
6 -308 -12 -76 -12 -188 -7 -209 8 -24 19 -43 21 -70 6z"/>
<path d="M8130 20108 c-11 -18 -20 -43 -20 -56 0 -13 -6 -35 -14 -50 -7 -15
-21 -63 -31 -106 -9 -44 -21 -87 -25 -95 -14 -27 -40 -136 -40 -166 0 -41 -23
-135 -32 -135 -5 0 -32 24 -61 53 -67 69 -115 96 -186 103 -46 5 -65 2 -99
-15 -53 -27 -62 -45 -62 -122 0 -116 70 -207 176 -229 107 -22 390 18 442 63
9 8 25 17 35 20 21 8 23 27 3 27 -8 0 -26 -4 -40 -10 -14 -5 -83 -21 -153 -36
-221 -45 -345 -24 -390 67 -42 84 -24 150 45 168 35 10 53 7 132 -15 46 -13
89 -53 101 -94 13 -43 42 -76 58 -66 5 3 12 20 16 36 4 17 11 30 16 30 5 0 9
10 9 23 0 12 11 51 24 87 72 200 86 241 105 305 11 39 36 101 55 139 40 79 36
106 -14 106 -23 0 -35 -8 -50 -32z"/>
<path d="M4052 20029 c-71 -35 -127 -94 -168 -177 -25 -48 -29 -68 -28 -132 1
-42 6 -85 12 -96 6 -12 7 -26 2 -34 -6 -10 2 -21 33 -39 34 -21 55 -26 107
-26 70 1 125 20 125 45 0 12 -15 14 -88 12 -73 -3 -92 0 -108 14 -26 23 -33
70 -20 139 28 151 118 242 259 261 62 8 74 20 42 46 -34 28 -96 23 -168 -13z"/>
<path d="M2393 20030 c-48 -11 -153 -88 -153 -111 0 -5 -23 -38 -51 -74 -28
-35 -48 -69 -45 -74 3 -4 -6 -42 -19 -82 -43 -126 -24 -199 51 -199 77 0 134
53 206 189 26 50 37 102 21 101 -5 -1 -33 -39 -63 -86 -64 -100 -116 -147
-157 -142 -45 5 -41 56 13 174 13 28 24 54 24 57 0 3 14 27 31 53 68 99 145
153 222 154 44 0 52 25 11 40 -29 11 -45 11 -91 0z"/>
<path d="M14860 20017 c-34 -17 -75 -104 -59 -123 6 -8 22 -14 35 -14 12 0 26
-5 29 -10 4 -6 8 -62 11 -124 5 -147 11 -142 -157 -138 -71 2 -138 1 -149 -3
-29 -9 -45 -42 -29 -62 13 -15 63 -14 253 2 65 6 86 -8 86 -55 0 -23 -5 -50
-10 -60 -6 -11 -15 -78 -21 -150 -5 -72 -19 -174 -29 -228 -18 -89 -18 -98 -3
-109 23 -18 51 1 57 40 33 220 47 349 49 470 2 57 6 80 17 87 8 5 112 10 231
10 202 0 279 8 279 30 0 15 -68 22 -250 26 -102 2 -204 4 -226 4 l-42 0 0 168
c0 163 -12 241 -37 249 -5 1 -21 -3 -35 -10z"/>
<path d="M9227 19983 c-10 -12 -19 -54 -27 -123 -14 -135 -22 -155 -71 -174
-66 -26 -62 -69 7 -82 22 -4 34 -12 34 -23 0 -11 7 -8 23 13 19 24 36 30 102
42 44 7 138 19 209 25 135 11 166 19 166 44 0 29 -94 31 -342 7 -42 -4 -81 -6
-87 -4 -18 6 -1 80 40 176 29 67 36 93 27 103 -15 19 -62 16 -81 -4z"/>
<path d="M2483 19947 c-11 -18 -27 -52 -35 -77 -9 -25 -19 -53 -23 -62 -12
-30 19 -21 43 12 40 53 50 40 48 -57 -1 -49 1 -95 5 -103 4 -8 13 -42 20 -75
13 -56 17 -61 59 -82 34 -17 55 -21 85 -17 54 8 115 41 115 61 0 16 -1 16
-123 -3 -78 -13 -107 60 -107 271 0 149 -5 165 -46 165 -14 0 -29 -11 -41 -33z"/>
<path d="M26344 19951 c-30 -18 -94 -91 -94 -107 0 -5 -9 -17 -20 -29 -26 -25
-150 -211 -150 -224 0 -5 -20 -39 -44 -74 -24 -36 -57 -90 -72 -122 -16 -31
-47 -73 -69 -94 -23 -20 -45 -48 -48 -63 -4 -14 -29 -50 -55 -80 -27 -29 -74
-86 -105 -125 -32 -40 -89 -98 -128 -129 -74 -59 -89 -78 -71 -96 32 -32 146
64 284 239 45 58 91 113 100 122 10 10 52 21 105 28 49 7 125 24 168 38 84 28
122 29 117 5 -2 -8 -3 -60 -3 -114 1 -84 6 -109 27 -157 15 -32 33 -60 40 -63
20 -8 30 22 15 46 -11 18 -26 113 -37 238 -7 79 5 103 80 152 36 23 63 44 61
46 -4 4 -68 -9 -119 -25 -16 -4 -18 -1 -13 18 3 13 19 92 36 174 17 83 42 204
56 269 14 66 24 125 21 133 -8 19 -46 16 -82 -6z m-10 -158 c-8 -38 -18 -86
-23 -108 -6 -22 -12 -60 -15 -85 -3 -25 -12 -64 -20 -88 -9 -24 -13 -56 -10
-72 12 -57 -4 -98 -44 -119 -76 -38 -282 -77 -282 -52 0 4 30 52 66 106 65 96
108 169 137 230 8 17 21 36 30 44 10 7 17 19 17 25 0 35 122 185 151 186 4 0
0 -30 -7 -67z"/>
<path d="M5389 19929 c-28 -28 -9 -51 40 -47 29 2 37 7 39 27 6 42 -44 55 -79
20z"/>
<path d="M6254 19892 c-68 -24 -179 -104 -209 -152 -13 -21 -29 -41 -35 -45
-5 -3 -10 -14 -10 -23 0 -9 -6 -29 -14 -43 -20 -39 -36 -118 -35 -174 2 -95
59 -175 126 -177 46 -1 124 30 196 79 62 42 114 100 147 165 33 67 75 85 95
40 5 -12 15 -22 22 -22 8 0 11 28 10 98 -1 53 2 120 6 147 l8 50 -73 38 c-85
43 -149 48 -234 19z m195 -60 c31 -25 29 -72 -7 -174 -36 -102 -51 -127 -117
-193 -154 -155 -262 -187 -308 -90 -18 37 -27 138 -14 152 4 3 7 17 7 30 0 89
163 247 290 282 59 16 126 13 149 -7z"/>
<path d="M16329 19886 c-2 -2 -49 -9 -104 -16 -104 -12 -137 -28 -114 -57 15
-17 47 -16 134 3 39 8 95 17 125 20 30 2 71 9 91 14 19 5 53 9 75 9 95 -3 138
12 73 25 -35 7 -273 8 -280 2z"/>
<path d="M17980 19881 c0 -14 18 -23 31 -15 8 4 7 9 -2 15 -18 11 -29 11 -29
0z"/>
<path d="M17785 19874 c-64 -14 -125 -38 -125 -50 0 -17 4 -17 38 0 15 7 65
17 112 21 47 4 94 13 104 21 17 11 10 13 -50 12 -38 -1 -74 -3 -79 -4z"/>
<path d="M27142 19856 c-30 -16 -62 -65 -62 -94 0 -13 -7 -36 -15 -52 -39 -75
-116 -453 -96 -473 7 -7 12 -4 17 9 3 10 10 28 14 39 9 21 20 57 41 135 6 25
19 70 29 100 9 30 25 82 34 115 10 33 31 92 47 130 15 39 29 76 31 84 4 19
-13 22 -40 7z"/>
<path d="M22773 19828 c-12 -13 -28 -50 -37 -83 -29 -105 -56 -239 -56 -275 0
-62 -10 -78 -54 -95 -22 -9 -65 -19 -94 -24 -53 -8 -92 -33 -92 -58 0 -19 57
-16 130 7 34 11 69 20 76 20 20 0 18 -57 -6 -132 -24 -77 -25 -111 -4 -129 14
-11 18 -11 29 5 15 20 35 124 35 183 0 69 25 89 127 103 269 37 353 55 361 78
7 22 -78 16 -385 -26 -35 -5 -65 -6 -68 -4 -15 15 23 198 71 339 13 39 24 81
24 92 0 28 -31 27 -57 -1z"/>
<path d="M3277 19833 c-4 -3 -7 -15 -7 -26 0 -11 -7 -28 -16 -38 -20 -22 -26
-180 -7 -186 13 -5 15 6 33 155 12 90 11 109 -3 95z"/>
<path d="M10552 19814 c-154 -41 -340 -206 -356 -317 -16 -104 41 -167 150
-167 142 0 327 100 484 261 64 65 108 96 119 83 11 -13 38 -110 46 -164 11
-80 59 -150 85 -124 7 7 3 32 -14 80 -14 38 -32 110 -40 159 -12 68 -22 95
-40 113 -21 22 -28 23 -56 13 -18 -6 -68 -47 -113 -91 -167 -168 -352 -270
-488 -270 -164 0 -59 217 158 325 47 24 72 29 133 30 99 2 100 2 100 24 0 10
-6 23 -12 28 -12 8 -90 34 -99 32 -2 0 -28 -7 -57 -15z"/>
<path d="M29997 19765 c-15 -25 -27 -53 -27 -61 0 -8 -25 -66 -55 -128 -30
-62 -55 -116 -55 -121 0 -15 -51 -75 -63 -75 -7 0 -28 -13 -47 -28 -38 -33
-36 -62 5 -62 16 0 25 -6 25 -15 0 -24 26 -17 38 11 18 39 85 63 188 68 105 5
174 16 174 26 0 11 -93 21 -193 19 -49 0 -91 2 -94 5 -7 7 24 72 53 111 12 17
40 69 63 117 22 47 45 89 51 93 5 3 10 24 10 46 0 34 -3 39 -23 39 -16 0 -30
-13 -50 -45z"/>
<path d="M7145 19704 c-12 -12 -13 -19 -4 -30 16 -20 75 -18 83 2 15 38 -47
60 -79 28z"/>
<path d="M11575 19637 c-43 -37 -13 -77 42 -56 44 16 53 38 27 63 -21 22 -38
20 -69 -7z"/>
<path d="M30292 19651 c-7 -4 -15 -29 -18 -56 -6 -61 13 -95 51 -88 34 7 44
47 22 86 -10 16 -17 37 -17 48 0 20 -16 24 -38 10z"/>
<path d="M28970 19626 c-86 -32 -365 -218 -415 -277 -40 -47 -61 -84 -95 -161
-19 -47 -31 -111 -25 -139 7 -33 28 -37 62 -14 19 13 21 22 16 68 -5 46 -1 61
27 117 18 35 47 78 64 94 45 45 153 124 246 181 115 71 190 125 190 136 0 12
-28 10 -70 -5z"/>
<path d="M16378 19609 c-77 -12 -228 -59 -293 -90 -64 -32 -128 -87 -151 -131
-7 -14 -17 -52 -20 -83 -6 -47 -3 -64 17 -108 13 -29 33 -60 44 -70 25 -23
135 -77 155 -77 9 0 25 -7 36 -14 12 -8 47 -17 80 -21 32 -3 102 -10 154 -15
93 -10 160 -3 150 16 -5 8 -34 10 -184 14 -49 2 -198 45 -256 75 -43 22 -108
92 -126 133 -40 97 2 164 146 231 70 33 206 71 252 71 40 0 90 27 86 47 -4 23
-36 30 -90 22z"/>
<path d="M21761 19564 c-133 -35 -292 -161 -322 -254 -42 -127 7 -223 123
-241 34 -6 64 -3 101 7 110 33 283 151 362 247 42 52 81 84 90 75 2 -2 5 -37
6 -77 4 -150 35 -239 102 -291 34 -27 92 -20 128 13 l24 22 -40 3 c-22 1 -50
4 -62 7 -30 7 -69 81 -72 138 -1 27 -6 58 -10 70 -5 12 -7 70 -5 129 2 62 -1
110 -7 113 -16 10 -74 -32 -115 -83 -101 -126 -221 -223 -357 -286 -91 -42
-165 -29 -198 35 -48 96 17 196 180 277 73 36 78 37 188 37 92 1 116 4 130 18
16 15 15 18 -2 37 -16 17 -30 20 -104 19 -47 0 -110 -7 -140 -15z"/>
<path d="M27920 19561 c-62 -12 -211 -91 -261 -138 -64 -60 -75 -96 -59 -185
12 -61 16 -68 37 -68 28 0 105 -76 101 -99 -6 -29 -69 -56 -129 -55 -45 1 -64
6 -97 30 -23 16 -42 37 -42 46 0 20 -16 32 -24 19 -5 -7 8 -43 33 -90 17 -34
59 -53 120 -56 33 -2 63 1 66 6 4 5 16 9 28 9 26 0 72 29 93 58 18 26 9 69
-17 77 -10 4 -19 12 -19 20 0 7 -16 23 -34 35 -43 26 -76 77 -76 117 0 65 78
135 226 203 64 30 114 59 114 66 0 15 -6 15 -60 5z"/>
<path d="M19892 19544 c-26 -18 -29 -50 -4 -63 29 -15 668 -3 709 14 83 35 27
44 -277 45 -124 0 -254 5 -290 10 -90 13 -112 12 -138 -6z"/>
<path d="M23595 19550 c-72 -11 -191 -49 -257 -81 -98 -49 -155 -147 -144
-247 10 -96 35 -125 156 -183 132 -63 309 -80 392 -38 16 8 28 17 28 21 0 3
-53 9 -117 13 -129 7 -184 20 -284 67 -53 25 -70 38 -89 73 -29 54 -24 118 15
176 40 61 153 109 317 134 46 7 84 36 75 58 -7 18 -14 19 -92 7z"/>
<path d="M30509 19485 c-99 -91 -129 -146 -132 -246 -2 -61 1 -71 29 -111 l32
-43 74 -3 c65 -2 80 1 121 23 45 25 47 29 47 70 0 24 -4 47 -10 50 -5 3 -10
18 -10 33 0 26 -36 70 -48 58 -3 -3 3 -23 12 -45 23 -51 19 -67 -27 -105 -51
-41 -118 -44 -149 -6 -27 33 -18 103 17 140 14 14 28 40 31 58 4 19 23 47 48
70 50 46 76 84 76 112 0 36 -28 22 -111 -55z"/>
<path d="M9142 19490 c-25 -64 -34 -150 -16 -157 15 -5 34 41 34 81 0 18 6 54
14 79 13 42 12 57 -3 57 -3 0 -17 -27 -29 -60z"/>
<path d="M30923 19420 c-62 -60 -113 -113 -113 -119 0 -5 -3 -17 -7 -27 -6
-15 -1 -16 41 -12 32 4 91 28 174 71 149 77 306 126 347 111 9 -4 29 -25 45
-49 l29 -42 -20 -32 c-10 -17 -19 -37 -19 -43 0 -6 -6 -19 -14 -27 -7 -9 -16
-33 -20 -53 -6 -33 -4 -38 12 -38 23 0 42 22 65 73 19 43 23 162 6 199 -25 57
-139 83 -230 53 -30 -10 -92 -35 -138 -57 -79 -36 -114 -43 -79 -15 41 33 71
118 41 117 -4 0 -59 -50 -120 -110z"/>
<path d="M6540 19501 c0 -10 15 -47 33 -81 25 -49 43 -69 74 -87 41 -22 73
-22 73 1 0 6 -23 23 -51 36 -50 24 -82 66 -103 133 -7 23 -26 22 -26 -2z"/>
<path d="M28070 19413 c-51 -17 -86 -45 -76 -62 11 -17 49 -13 106 9 62 24 80
25 150 0 51 -17 55 -21 58 -54 3 -28 -4 -42 -33 -75 -39 -43 -143 -101 -181
-101 -39 0 -46 58 -13 122 15 29 18 43 10 51 -29 29 -108 -109 -97 -166 14
-71 54 -82 160 -42 105 39 149 71 187 131 22 36 21 122 -1 149 -35 43 -190 64
-270 38z"/>
<path d="M29360 19401 c-72 -23 -168 -89 -247 -170 -34 -36 -63 -68 -63 -72 0
-4 -27 -51 -60 -105 -33 -54 -60 -104 -60 -112 0 -8 -6 -26 -14 -40 -38 -76
-56 -126 -56 -163 0 -102 117 -31 155 94 7 23 16 50 21 60 6 17 5 18 -17 5
-13 -7 -27 -17 -30 -22 -4 -4 -10 -3 -14 4 -4 7 -3 15 2 19 18 11 31 45 38
100 6 45 15 63 48 98 22 24 48 55 57 70 55 90 278 223 373 223 l45 0 -3 -34
c-4 -43 -66 -127 -137 -185 -54 -45 -140 -91 -169 -91 -22 0 -43 -26 -34 -41
11 -17 84 -5 146 24 62 29 166 120 208 181 43 61 49 106 19 140 -19 22 -33 27
-88 31 -46 3 -81 -1 -120 -14z"/>
<path d="M30208 19342 c-19 -20 -49 -57 -65 -82 -17 -25 -40 -54 -52 -64 -11
-11 -21 -24 -21 -30 0 -7 -9 -19 -20 -29 -29 -25 -26 -47 8 -47 36 0 88 55
187 199 40 58 42 67 17 80 -15 8 -26 3 -54 -27z"/>
<path d="M20002 19355 c-28 -21 -28 -51 1 -67 35 -20 386 -16 456 5 94 29 112
62 29 53 -157 -16 -305 -18 -368 -3 -36 9 -72 18 -80 21 -8 4 -25 -1 -38 -9z"/>
<path d="M27238 19326 c-62 -17 -153 -72 -192 -118 -20 -24 -42 -38 -61 -40
-26 -3 -35 -13 -68 -81 -27 -53 -39 -93 -40 -125 l-2 -47 59 -9 c178 -29 434
146 477 324 13 57 4 73 -55 93 -61 20 -57 20 -118 3z m109 -32 c17 -3 21 -10
18 -36 -4 -48 -27 -86 -92 -153 -89 -92 -249 -176 -308 -161 -34 9 -31 28 11
105 47 85 74 117 138 163 97 71 163 94 233 82z"/>
<path d="M29045 18971 c-6 -11 9 -23 19 -14 9 9 7 23 -3 23 -6 0 -12 -4 -16
-9z"/>
<path d="M1568 18875 c-33 -12 -69 -35 -197 -127 -21 -15 -68 -62 -105 -105
-87 -102 -80 -93 -113 -155 -16 -30 -34 -61 -39 -69 -18 -29 -35 -86 -49 -169
-14 -77 -13 -90 1 -135 58 -175 157 -252 382 -296 107 -20 247 1 260 40 4 12
-10 13 -79 7 -98 -8 -226 11 -292 43 -24 12 -48 21 -55 21 -6 0 -29 18 -51 41
-122 122 -131 270 -30 470 73 146 289 345 410 380 53 15 74 32 66 53 -8 20
-57 20 -109 1z"/>
<path d="M4290 18855 c-10 -12 -9 -19 2 -37 16 -25 52 -125 73 -203 29 -111
39 -272 22 -380 -9 -57 -65 -235 -82 -262 -8 -12 -15 -27 -15 -33 0 -15 -50
-86 -94 -133 -20 -21 -36 -42 -36 -47 0 -13 35 -21 56 -13 25 9 94 81 94 98 0
7 6 18 14 24 19 16 93 187 110 253 23 89 36 219 31 303 -6 101 -44 305 -60
325 -7 8 -15 28 -19 43 -8 32 -48 77 -69 77 -8 0 -20 -7 -27 -15z"/>
<path d="M11866 18801 c-31 -35 -17 -55 42 -61 38 -4 59 -12 77 -30 27 -28
101 -139 140 -212 14 -27 29 -48 34 -48 5 0 12 -12 16 -27 3 -16 20 -54 36
-86 16 -32 29 -64 29 -72 0 -8 8 -29 19 -48 19 -33 21 -45 41 -172 23 -148
-19 -351 -99 -475 -48 -75 -99 -128 -282 -291 -86 -77 -169 -158 -184 -179
-26 -37 -28 -70 -5 -70 5 0 59 44 118 98 59 53 141 126 182 162 195 170 271
278 320 457 43 156 27 379 -37 522 -139 310 -227 448 -328 516 -60 39 -94 44
-119 16z"/>
<path d="M5659 18739 c-175 -136 -273 -278 -368 -534 -43 -117 -60 -224 -51
-316 5 -43 13 -86 19 -98 7 -12 10 -21 7 -21 -16 0 85 -223 118 -258 11 -13
33 -30 48 -38 29 -15 78 -19 78 -6 0 4 -27 35 -60 68 -32 34 -70 83 -84 110
-48 97 -72 297 -47 404 28 123 110 314 176 409 16 23 35 50 40 58 54 83 174
174 255 193 47 11 51 14 48 39 -3 25 -6 26 -64 29 -58 3 -64 1 -115 -39z"/>
<path d="M8034 18631 c-64 -31 -96 -55 -166 -127 -133 -137 -196 -226 -259
-369 -26 -59 -54 -208 -43 -226 3 -5 7 -28 9 -50 8 -79 54 -185 115 -266 40
-54 135 -114 181 -117 48 -2 45 16 -7 43 -56 30 -156 138 -173 189 -7 20 -20
52 -28 71 -37 81 -26 233 25 368 64 168 271 403 397 451 17 6 58 14 93 17 42
5 65 12 69 22 9 22 -16 33 -78 33 -44 0 -71 -8 -135 -39z"/>
<path d="M12777 18649 c-16 -9 -18 -19 -13 -58 7 -46 32 -133 67 -226 65 -174
96 -327 87 -440 -13 -178 -92 -338 -288 -582 -69 -85 -134 -168 -145 -182 -11
-15 -41 -52 -66 -82 -58 -67 -74 -98 -61 -111 19 -19 49 3 113 84 35 45 108
134 162 197 54 63 106 126 115 140 9 14 35 50 58 78 57 72 148 260 174 362 18
68 21 99 15 155 -10 108 -30 190 -75 316 -46 128 -74 218 -92 299 -14 58 -22
67 -51 50z"/>
<path d="M2992 18617 c-14 -17 -31 -93 -32 -140 0 -21 -5 -58 -11 -83 -9 -36
-18 -47 -46 -61 -19 -9 -37 -22 -40 -30 -7 -19 14 -41 44 -45 24 -3 25 -6 30
-93 3 -49 5 -97 5 -105 -1 -31 21 -125 30 -138 9 -10 14 -10 26 0 12 11 13 32
8 131 -4 66 -12 129 -18 142 -8 17 -7 36 3 70 13 43 17 47 64 61 27 8 82 20
120 25 175 28 207 39 174 60 -18 11 -113 11 -164 0 -22 -5 -70 -13 -107 -16
-82 -9 -82 -9 -37 119 24 69 28 90 18 102 -14 18 -53 18 -67 1z"/>
<path d="M10795 18551 c-11 -5 -28 -18 -39 -30 -15 -17 -16 -23 -6 -36 16 -19
29 -19 117 2 69 16 90 16 355 -1 419 -25 541 -29 558 -17 38 26 -20 37 -300
57 -47 3 -154 12 -239 20 -166 15 -414 18 -446 5z"/>
<path d="M9116 18479 c-43 -34 -154 -187 -190 -264 -19 -38 -41 -102 -51 -142
-9 -40 -22 -77 -29 -82 -8 -7 -32 -4 -77 10 -118 36 -245 5 -329 -82 l-42 -44
7 -59 c3 -33 10 -67 15 -76 16 -29 82 -73 139 -93 82 -27 257 -34 345 -13 77
18 136 50 136 73 0 19 -42 14 -150 -16 -56 -16 -92 -20 -145 -16 -139 10 -227
46 -259 107 -17 30 -18 40 -8 64 15 35 72 83 121 100 105 38 241 -14 241 -92
0 -11 5 -35 11 -53 8 -23 17 -31 35 -31 23 0 24 2 22 83 -1 83 11 162 39 252
20 66 92 215 103 215 5 0 16 12 24 28 8 15 36 49 61 75 25 27 44 54 42 60 -6
20 -32 19 -61 -4z"/>
<path d="M2133 18405 c-152 -47 -215 -132 -284 -385 -7 -25 -17 -51 -23 -59
-7 -9 -6 -16 5 -25 9 -6 19 -28 23 -48 4 -21 16 -44 29 -53 26 -18 84 -19 113
-2 51 29 103 119 134 232 19 70 65 145 89 145 4 0 13 -10 19 -22 13 -27 52
-147 52 -161 0 -23 68 -97 102 -111 40 -17 99 -12 136 12 36 24 26 32 -41 32
-77 0 -98 13 -130 83 -42 91 -69 166 -63 175 6 11 -15 75 -33 96 -9 11 -26 16
-45 14 -28 -3 -33 -8 -52 -65 -11 -34 -25 -68 -30 -75 -5 -7 -23 -42 -40 -78
-84 -174 -101 -203 -121 -217 -46 -31 -81 9 -70 80 35 222 144 365 302 393 54
9 75 21 69 39 -8 19 -82 19 -141 0z"/>
<path d="M3580 18403 c-64 -11 -88 -25 -105 -60 -17 -35 -17 -41 0 -117 28
-131 83 -179 221 -192 102 -9 244 26 244 61 0 20 -29 23 -89 7 -61 -15 -161
-19 -207 -8 -68 16 -126 152 -92 216 11 21 24 26 73 32 77 10 85 13 85 36 0
26 -58 37 -130 25z"/>
<path d="M10083 18363 c-35 -31 -103 -259 -103 -344 0 -59 -13 -95 -38 -103
-10 -3 -47 -8 -83 -11 -92 -7 -211 -26 -231 -36 -25 -14 -22 -48 5 -60 24 -11
40 -9 210 27 42 9 84 13 92 10 16 -6 22 -81 7 -90 -5 -3 -16 -40 -26 -83 -23
-101 -30 -126 -52 -195 -19 -62 -19 -62 11 -72 33 -10 43 5 64 104 11 52 25
115 32 140 6 25 13 56 14 70 15 109 18 121 36 131 11 5 93 17 182 25 167 15
227 29 227 51 0 16 -149 18 -286 2 -53 -6 -102 -8 -109 -5 -11 4 -9 19 6 78
11 40 24 93 29 118 4 25 23 86 41 136 17 51 29 99 26 108 -8 21 -30 20 -54 -1z"/>
<path d="M11382 18280 c-33 -31 -178 -333 -247 -515 -15 -38 -31 -74 -35 -78
-4 -5 -27 14 -50 42 -57 67 -114 93 -205 93 -144 0 -225 -68 -225 -190 0 -68
39 -121 117 -158 50 -24 70 -28 148 -28 128 1 272 48 378 125 63 45 102 109
68 109 -4 0 -37 -19 -72 -42 -145 -96 -162 -91 -108 29 10 24 19 45 19 47 0
14 218 450 247 493 19 29 33 60 31 70 -5 26 -40 27 -66 3z m-406 -552 c53 -35
79 -78 90 -144 6 -38 4 -41 -22 -52 -16 -6 -66 -16 -112 -22 -149 -20 -247 29
-244 122 2 70 84 127 183 128 48 0 65 -5 105 -32z"/>
<path d="M4990 18273 c-8 -2 -21 -6 -27 -8 -9 -3 -10 -11 -4 -27 16 -43 101
-43 101 0 0 34 -30 49 -70 35z"/>
<path d="M6126 18205 c-44 -15 -132 -74 -163 -108 -56 -60 -87 -152 -84 -247
3 -75 21 -123 57 -146 32 -22 127 -13 187 17 54 27 143 113 169 163 40 77 85
103 112 64 9 -12 16 -32 16 -43 0 -33 45 -118 97 -184 40 -49 55 -61 86 -67
22 -3 43 -2 48 3 5 5 -22 41 -64 84 -40 41 -79 91 -86 110 -7 19 -22 53 -32
77 -11 23 -25 71 -33 105 -15 75 -30 104 -55 112 -11 3 -21 16 -23 28 -6 43
-147 62 -232 32z m199 -65 c52 -43 -76 -262 -204 -347 -49 -34 -72 -43 -106
-43 -57 0 -70 18 -69 94 1 104 27 168 91 232 30 31 69 62 87 70 39 18 177 14
201 -6z"/>
<path d="M13901 18211 c-8 -5 -19 -43 -26 -93 -10 -68 -32 -181 -60 -315 -7
-32 -36 -44 -133 -54 -264 -28 -272 -30 -272 -70 0 -36 43 -41 139 -19 119 29
234 51 239 45 4 -4 -7 -67 -32 -178 -9 -37 -17 -94 -18 -125 -3 -53 -1 -57 20
-60 29 -4 47 36 61 143 32 239 32 239 141 250 36 3 110 12 165 20 289 40 295
41 280 65 -10 16 -184 6 -352 -21 -118 -18 -183 -24 -183 -15 0 3 16 60 36
128 59 200 70 258 55 287 -12 22 -36 27 -60 12z"/>
<path d="M25922 18136 c-23 -8 -55 -22 -70 -31 -48 -30 -152 -148 -180 -205
-16 -30 -35 -66 -44 -80 -9 -14 -30 -65 -46 -115 -17 -49 -37 -103 -46 -120
-8 -16 -19 -66 -26 -110 -6 -44 -16 -100 -22 -125 -6 -25 -12 -114 -15 -199
-4 -140 -2 -159 17 -207 15 -37 19 -58 12 -71 -5 -11 -6 -31 0 -50 7 -28 13
-33 39 -33 60 0 130 53 203 154 30 40 238 298 304 375 51 62 79 112 102 190
18 60 19 77 10 176 -23 247 -50 362 -100 417 -41 45 -76 53 -138 34z m90 -73
c9 -8 21 -26 27 -41 15 -41 40 -232 47 -367 7 -118 6 -121 -23 -185 -16 -36
-46 -85 -67 -110 -20 -25 -39 -50 -44 -55 -4 -6 -32 -40 -63 -75 -30 -36 -96
-119 -147 -185 -111 -145 -120 -156 -152 -178 -32 -22 -47 -22 -60 2 -8 16 -5
26 16 51 24 28 25 33 13 63 -20 47 -17 326 6 442 26 135 53 246 69 280 8 17
25 55 37 85 46 113 157 246 234 282 43 19 79 17 107 -9z"/>
<path d="M7252 18072 c-29 -4 -38 -26 -24 -55 5 -12 13 -30 16 -39 7 -22 28
-23 64 -4 37 19 66 52 59 69 -6 15 -81 34 -115 29z"/>
<path d="M28683 17987 c-10 -13 -27 -62 -37 -108 -10 -46 -32 -122 -48 -169
-17 -47 -39 -109 -49 -138 -10 -29 -27 -70 -37 -90 -11 -20 -28 -56 -37 -79
-10 -23 -26 -50 -36 -59 -11 -10 -19 -22 -19 -28 0 -5 -12 -27 -26 -48 -33
-47 -27 -63 24 -65 36 -2 41 1 52 28 20 47 172 184 224 202 49 17 103 9 125
-17 19 -23 -9 -75 -72 -132 -67 -61 -129 -93 -205 -102 -62 -8 -78 -26 -35
-43 87 -34 269 40 326 133 29 47 53 119 49 146 -2 12 -20 33 -40 47 -60 41
-150 31 -233 -25 -75 -51 -76 -43 -10 94 27 56 57 127 66 157 9 30 28 83 41
119 30 82 37 193 13 198 -9 2 -25 -8 -36 -21z"/>
<path d="M15189 17955 c-121 -30 -274 -115 -320 -178 -50 -69 -37 -178 31
-246 46 -45 229 -130 363 -167 184 -51 377 -68 377 -34 0 5 -10 12 -22 14 -13
2 -79 14 -148 27 -193 35 -429 125 -496 190 -108 104 -69 208 108 288 123 56
236 74 320 51 21 -6 58 -29 84 -50 48 -43 74 -49 94 -25 20 24 -2 59 -55 91
-89 52 -220 67 -336 39z"/>
<path d="M22513 17935 c-12 -8 -28 -38 -37 -67 -22 -77 -56 -257 -56 -300 0
-82 -35 -103 -155 -93 -69 5 -85 4 -99 -10 -46 -47 4 -69 125 -54 49 6 93 8
99 4 13 -8 13 -61 0 -105 -22 -73 -35 -246 -23 -310 7 -39 12 -45 36 -48 l28
-3 -3 98 c-1 54 3 156 9 226 14 152 14 153 123 162 242 20 390 49 390 77 0 4
-21 8 -47 8 -49 0 -339 -27 -383 -35 -14 -3 -31 -1 -39 4 -17 11 -12 35 66
333 32 123 23 153 -34 113z"/>
<path d="M29912 17837 c-13 -13 -24 -39 -26 -58 -14 -143 -46 -179 -154 -179
-57 0 -92 -21 -92 -56 0 -20 5 -24 28 -24 15 0 48 7 74 15 26 7 49 11 52 7 2
-4 -18 -39 -45 -77 -58 -83 -63 -94 -55 -102 16 -16 63 16 91 62 17 27 46 66
66 87 30 31 43 38 75 38 62 -1 150 -26 198 -57 39 -24 45 -33 46 -63 0 -37
-40 -126 -78 -174 -39 -51 -20 -81 35 -53 35 19 71 88 88 170 14 69 13 75 -26
133 -34 50 -96 74 -211 81 -54 4 -78 10 -78 18 0 7 16 47 36 88 27 58 35 85
32 118 -4 52 -23 61 -56 26z"/>
<path d="M30280 17800 c-37 -38 -50 -58 -50 -80 0 -26 4 -30 28 -30 34 0 60
27 91 92 39 83 6 92 -69 18z"/>
<path d="M28147 17829 c-43 -25 -63 -129 -25 -129 27 0 67 22 72 39 7 23 -7
94 -19 97 -6 2 -18 -1 -28 -7z"/>
<path d="M27190 17805 c-152 -44 -346 -186 -421 -310 -33 -54 -22 -84 67 -170
59 -58 90 -101 99 -137 14 -54 -85 -127 -172 -128 -63 0 -78 27 -70 130 7 83
4 88 -36 69 -34 -16 -46 -41 -48 -106 -4 -98 46 -153 135 -153 85 0 208 56
239 109 19 32 23 96 7 106 -5 3 -10 12 -10 19 0 20 -63 115 -76 115 -20 1 -74
70 -74 94 0 49 130 191 222 242 43 25 111 55 155 70 104 36 138 11 138 -101 0
-86 0 -86 -116 -134 -93 -38 -145 -79 -136 -104 9 -24 48 -15 102 23 56 40
100 61 126 61 19 0 21 -4 15 -32 -4 -18 -9 -51 -12 -73 -3 -22 -12 -53 -19
-70 -7 -16 -17 -43 -21 -60 -4 -16 -10 -34 -14 -40 -4 -5 -11 -25 -15 -42 -6
-28 -4 -33 13 -33 25 0 72 44 72 68 0 10 3 22 7 26 12 12 31 97 38 171 4 39
14 81 22 93 23 37 71 53 124 41 96 -21 141 -64 153 -145 6 -45 -15 -143 -39
-177 -20 -29 -19 -44 5 -52 30 -10 63 14 134 98 70 83 138 141 192 163 77 32
77 11 0 -151 -69 -144 -81 -195 -47 -195 26 0 43 19 65 71 10 24 22 51 27 59
5 8 13 24 18 35 5 11 27 58 50 105 22 47 41 90 41 97 0 47 -102 58 -186 19
-27 -13 -79 -49 -113 -80 -35 -31 -69 -56 -76 -56 -15 0 -25 31 -25 78 0 18
-7 48 -15 67 -17 41 -72 95 -97 95 -9 0 -20 5 -23 10 -4 6 -15 8 -26 5 -11 -4
-47 -6 -81 -6 -82 0 -92 11 -77 79 16 67 0 128 -37 142 -35 14 -130 11 -184
-5z"/>
<path d="M26430 17723 c-26 -10 -50 -35 -50 -54 0 -10 -11 -30 -24 -46 -23
-27 -24 -34 -21 -163 1 -80 -4 -174 -12 -230 -21 -141 -22 -194 -1 -198 9 -2
24 8 33 21 16 25 58 234 50 247 -2 4 2 68 10 143 7 75 11 151 8 169 -3 22 0
35 11 44 17 12 34 74 20 73 -5 0 -16 -3 -24 -6z"/>
<path d="M21435 17673 c-94 -13 -222 -74 -284 -135 -108 -105 -122 -253 -30
-318 27 -20 39 -22 90 -16 87 9 135 46 212 162 36 55 68 93 76 92 9 -2 20 -28
28 -68 31 -143 58 -197 128 -259 39 -34 87 -41 120 -17 17 12 16 15 -26 33
-93 43 -139 131 -174 335 -15 84 -15 92 1 109 9 11 29 19 44 19 29 0 56 23 46
38 -15 24 -139 38 -231 25z m59 -52 c9 -14 -41 -118 -92 -194 -25 -37 -70 -90
-100 -118 -44 -40 -60 -49 -91 -49 -76 0 -107 78 -65 165 34 72 166 166 269
191 63 15 73 16 79 5z"/>
<path d="M30956 17614 c-79 -29 -142 -94 -149 -155 -3 -19 -8 -41 -11 -50 -9
-21 18 -87 39 -95 9 -4 23 3 35 18 16 22 30 26 98 31 134 10 204 43 238 111
15 31 11 80 -7 91 -5 4 -9 15 -9 26 0 14 -6 19 -17 17 -25 -5 -26 -22 -3 -47
20 -24 20 -24 0 -52 -29 -39 -74 -64 -160 -88 -94 -26 -107 -26 -131 2 -25 30
-24 38 14 74 45 43 104 70 176 82 75 12 86 18 70 37 -15 19 -130 18 -183 -2z"/>
<path d="M19382 17588 c-38 -10 -51 -33 -30 -54 12 -13 32 -13 124 -5 60 5
194 13 298 16 183 6 244 16 235 40 -5 13 -582 16 -627 3z"/>
<path d="M23471 17574 c-67 -18 -118 -56 -137 -100 -16 -38 -19 -140 -4 -149
6 -3 10 -15 10 -25 0 -27 37 -65 95 -96 28 -15 52 -31 55 -35 6 -9 126 -52
190 -69 41 -11 112 -2 107 13 -1 5 -48 24 -103 42 -140 45 -180 63 -220 99
-54 47 -77 99 -69 153 13 89 99 130 251 119 97 -7 134 1 134 30 0 8 -12 19
-26 24 -38 15 -221 11 -283 -6z"/>
<path d="M30343 17508 c-27 -30 -31 -46 -37 -161 l-6 -98 26 -9 c51 -20 125
14 262 117 35 27 78 58 95 71 65 48 100 84 87 92 -23 14 -94 -22 -197 -102
-35 -26 -65 -48 -67 -48 -3 0 -26 -13 -53 -29 -26 -17 -59 -31 -73 -33 -21 -3
-25 1 -23 22 1 29 16 81 34 128 10 23 11 37 3 49 -16 25 -28 26 -51 1z"/>
<path d="M29006 17450 c-34 -41 -50 -100 -51 -181 0 -88 17 -109 88 -109 58 0
152 38 212 85 101 81 173 164 160 185 -12 19 -31 10 -81 -36 -109 -102 -230
-174 -291 -174 -32 0 -33 2 -33 38 0 22 12 61 30 95 33 64 39 112 14 121 -22
8 -19 9 -48 -24z"/>
<path d="M19501 17397 c-7 -9 -11 -24 -9 -34 5 -25 55 -32 254 -33 200 -1 294
15 294 53 0 6 -34 7 -97 3 -86 -6 -209 1 -378 20 -39 5 -54 3 -64 -9z"/>
<path d="M1530 17347 c-134 -41 -430 -321 -531 -503 -21 -40 -50 -79 -64 -88
-14 -9 -25 -24 -25 -33 0 -9 -15 -49 -34 -87 -58 -122 -73 -183 -82 -329 -18
-280 118 -489 358 -552 99 -26 210 -4 131 26 -15 5 -47 12 -72 16 -70 8 -206
79 -245 128 -49 60 -102 163 -115 223 -31 146 19 403 105 542 19 30 34 60 34
66 0 6 9 19 20 29 11 10 20 23 20 29 0 26 193 245 281 318 90 75 105 86 159
116 40 22 76 34 125 39 56 6 70 12 73 26 9 44 -55 60 -138 34z"/>
<path d="M30870 17262 c0 -12 34 -42 48 -42 6 0 15 -6 19 -14 9 -16 81 -49
140 -65 23 -6 45 -16 48 -21 4 -6 19 -9 33 -8 15 1 34 -2 42 -7 25 -15 102
-27 185 -29 68 -1 80 1 83 17 3 13 -3 17 -28 17 -17 0 -40 5 -52 11 -11 6 -36
13 -56 15 -41 5 -48 7 -142 34 -36 10 -92 26 -125 35 -33 9 -68 20 -77 26 -10
5 -26 9 -37 9 -10 0 -24 7 -31 15 -13 16 -50 21 -50 7z"/>
<path d="M4087 17223 c-12 -12 -7 -44 8 -49 19 -8 75 -105 75 -131 0 -10 5
-24 10 -29 14 -14 31 -140 32 -229 1 -232 -7 -317 -40 -422 -6 -17 -8 -34 -5
-37 5 -5 -4 -34 -27 -91 -5 -11 -14 -38 -21 -60 -17 -57 -117 -252 -153 -300
-17 -22 -64 -72 -105 -112 -60 -58 -71 -73 -58 -79 58 -22 157 67 267 241 64
100 155 333 166 425 3 25 10 57 16 72 39 103 35 470 -6 591 -9 26 -16 55 -16
63 0 19 -46 100 -73 132 -20 21 -56 29 -70 15z"/>
<path d="M2939 17071 c-23 -19 -24 -24 -24 -167 0 -170 17 -143 -127 -209 -77
-36 -89 -50 -66 -73 20 -20 64 -14 104 13 41 28 81 41 92 31 3 -4 9 -46 14
-94 12 -141 21 -187 38 -187 12 0 14 15 11 90 -2 50 -6 95 -9 100 -12 19 -9
115 4 126 7 5 78 17 158 25 154 15 200 26 193 47 -3 9 -47 12 -180 10 -131 -1
-177 2 -180 11 -3 7 -1 32 4 57 6 24 12 69 14 99 3 30 7 68 10 84 5 27 -8 56
-25 56 -4 0 -18 -9 -31 -19z"/>
<path d="M5590 16990 c-62 -13 -90 -29 -188 -105 -297 -228 -467 -466 -534
-744 -17 -71 -19 -103 -13 -181 9 -125 45 -256 75 -275 5 -3 10 -13 10 -21 0
-20 100 -143 139 -172 100 -74 206 -115 340 -131 75 -10 134 0 115 19 -5 5
-56 18 -114 30 -136 27 -248 81 -330 157 -117 108 -182 290 -173 485 3 51 8
98 13 103 4 6 11 26 15 45 4 19 11 41 16 50 4 8 15 35 24 60 34 91 159 263
270 368 172 164 285 242 354 242 16 0 39 9 52 20 l24 20 -24 20 c-13 11 -26
19 -30 19 -3 -1 -22 -5 -41 -9z"/>
<path d="M7820 16947 c-54 -20 -123 -71 -201 -149 -147 -146 -233 -330 -231
-493 1 -33 -1 -68 -4 -77 -5 -16 -7 -16 -33 3 -33 24 -58 22 -77 -6 -12 -18
-11 -24 1 -43 19 -27 83 -41 96 -21 13 20 24 -1 39 -75 7 -33 22 -81 33 -106
98 -219 200 -356 341 -459 110 -81 319 -138 430 -117 61 12 36 30 -56 42 -207
28 -358 104 -459 231 -89 111 -103 134 -151 233 -70 147 -108 274 -108 365 0
247 218 557 421 598 68 14 92 35 73 65 -14 21 -68 26 -114 9z"/>
<path d="M2341 16911 c-11 -11 -22 -41 -26 -69 -9 -67 -65 -238 -93 -286 -12
-20 -22 -43 -22 -51 0 -8 -5 -17 -10 -20 -6 -3 -35 -45 -66 -92 -62 -95 -139
-178 -179 -193 -55 -21 -93 -13 -134 30 -51 52 -75 128 -66 205 15 114 105
251 219 334 90 65 123 72 207 47 50 -15 69 -8 69 24 0 38 -38 55 -119 54 -77
0 -84 -2 -167 -56 -64 -41 -161 -144 -204 -217 -22 -37 -40 -72 -40 -78 0 -6
-7 -16 -16 -24 -13 -10 -14 -29 -10 -112 3 -54 9 -104 14 -111 5 -6 15 -29 22
-50 12 -38 47 -76 94 -103 33 -19 112 -16 156 7 40 20 130 116 165 174 56 95
83 144 95 176 17 43 55 106 70 115 22 13 33 -14 36 -82 1 -38 7 -81 13 -96 6
-16 11 -45 11 -66 0 -34 26 -133 49 -186 26 -61 50 -125 62 -164 7 -24 19 -45
26 -48 7 -3 13 -13 13 -23 0 -23 46 -61 66 -53 22 8 17 25 -26 99 -22 38 -47
93 -55 124 -9 30 -20 64 -25 75 -21 41 -78 283 -82 339 -1 17 -6 37 -11 43
-11 15 -1 197 15 270 17 78 -7 108 -51 64z"/>
<path d="M12148 16869 c-35 -20 -15 -69 27 -69 28 0 79 -54 104 -110 92 -211
47 -600 -105 -903 -41 -81 -164 -263 -244 -362 -250 -308 -380 -416 -565 -470
-101 -29 -121 -41 -104 -61 38 -46 263 31 384 133 117 97 283 281 416 459 70
93 199 306 199 328 0 6 14 45 31 86 121 296 116 727 -10 900 -55 75 -91 94
-133 69z"/>
<path d="M3630 16764 c-234 -93 -294 -177 -241 -336 25 -72 31 -84 79 -142 58
-70 95 -89 170 -90 44 0 67 5 78 16 25 25 8 38 -53 38 -46 0 -61 5 -93 30 -80
63 -137 190 -123 273 10 65 107 121 242 141 78 12 108 33 83 58 -13 13 -117
21 -142 12z"/>
<path d="M9853 16688 c-6 -7 -20 -60 -33 -118 -20 -93 -23 -139 -26 -400 -2
-162 0 -344 4 -405 4 -60 6 -134 4 -163 l-3 -53 -32 3 c-28 3 -32 0 -35 -23
-7 -57 69 -99 106 -59 29 31 34 87 28 309 -14 485 -5 666 41 828 8 29 12 62 8
73 -7 23 -47 27 -62 8z"/>
<path d="M11462 16638 c-17 -17 -15 -31 7 -60 11 -13 32 -62 48 -109 27 -81
28 -92 28 -279 0 -127 -5 -218 -14 -260 -18 -89 -52 -203 -62 -215 -5 -5 -9
-16 -9 -25 0 -30 -88 -188 -143 -257 -161 -203 -352 -329 -587 -389 -144 -36
-177 -69 -66 -65 83 2 194 36 303 91 116 58 204 122 298 217 66 66 175 202
175 217 0 5 8 20 18 34 54 80 110 242 138 399 23 136 23 422 0 516 -19 77 -61
178 -79 189 -18 11 -41 10 -55 -4z"/>
<path d="M13584 16559 c-18 -20 -19 -39 -19 -268 1 -135 5 -283 9 -328 7 -67
6 -84 -5 -88 -8 -3 -68 -14 -134 -25 -124 -21 -170 -41 -170 -75 0 -10 8 -23
17 -29 19 -11 47 -5 149 32 30 12 79 24 109 28 l53 7 -7 -81 c-25 -303 -26
-336 -12 -350 8 -8 22 -11 33 -8 25 8 33 77 33 288 0 130 2 148 18 156 9 5 80
15 157 21 191 17 264 27 281 42 40 33 -72 38 -299 13 -127 -15 -150 -15 -158
-3 -14 21 -5 576 10 622 10 30 10 42 0 53 -17 20 -43 17 -65 -7z"/>
<path d="M6250 16494 c-62 -12 -160 -49 -215 -82 -210 -123 -366 -321 -365
-462 0 -54 29 -134 57 -157 72 -61 140 -75 243 -48 105 27 196 77 315 173 83
67 210 201 225 239 5 11 25 33 45 49 52 40 60 27 106 -166 12 -52 34 -117 48
-145 23 -43 31 -50 60 -53 45 -5 59 10 33 36 -24 24 -45 68 -66 142 -9 30 -23
75 -30 100 -8 25 -20 68 -27 95 -14 58 -31 81 -65 89 -14 4 -24 14 -24 24 0 9
-13 40 -28 67 -37 69 -93 96 -205 100 -45 2 -93 1 -107 -1z m134 -64 c60 -10
126 -49 126 -74 0 -8 7 -27 15 -42 8 -16 15 -38 15 -49 0 -28 -268 -302 -345
-353 -162 -107 -309 -141 -386 -89 -64 42 -88 142 -55 222 40 95 185 248 292
308 66 38 146 67 209 76 33 5 62 9 65 10 3 0 31 -3 64 -9z"/>
<path d="M4500 16385 c-27 -33 22 -76 65 -57 21 10 26 18 23 40 -3 23 -8 27
-39 30 -24 2 -40 -2 -49 -13z"/>
<path d="M25623 16269 c-185 -32 -466 -252 -586 -459 -83 -142 -92 -235 -32
-330 14 -22 25 -42 25 -46 0 -3 19 -28 42 -55 89 -106 241 -144 387 -97 68 21
105 48 89 64 -4 3 -22 1 -40 -5 -18 -7 -73 -14 -123 -17 -123 -8 -188 15 -263
95 -29 31 -60 71 -69 88 -22 47 -14 163 16 227 94 202 363 433 554 475 25 6
61 5 98 -2 43 -8 65 -7 84 1 81 37 -56 84 -182 61z"/>
<path d="M21956 16104 c-9 -8 -16 -22 -16 -29 0 -15 45 -145 63 -183 14 -30 2
-40 -96 -82 -79 -33 -110 -60 -100 -86 8 -21 59 -17 101 9 75 46 132 61 132
35 1 -54 32 -229 45 -255 16 -32 47 -44 60 -23 8 13 -14 134 -36 199 -11 30
-19 66 -19 81 0 35 28 46 130 54 224 18 300 33 300 58 0 15 -230 13 -358 -3
-59 -8 -86 -8 -96 0 -7 6 -18 55 -25 108 -7 54 -17 106 -22 116 -12 21 -42 22
-63 1z"/>
<path d="M14890 15995 c-186 -42 -333 -177 -370 -339 -19 -85 14 -170 93 -242
64 -59 105 -80 202 -105 136 -36 398 -18 413 28 2 9 -36 12 -160 10 -176 -2
-233 7 -326 51 -58 27 -119 91 -139 145 -39 107 26 252 146 328 100 64 287 92
358 55 52 -26 93 -16 93 23 0 49 -180 76 -310 46z"/>
<path d="M21020 15874 c-129 -44 -249 -132 -325 -239 -58 -81 -75 -130 -81
-235 -6 -95 8 -136 60 -175 37 -27 145 -28 198 -2 110 55 240 208 356 417 47
87 78 113 99 84 7 -10 13 -29 13 -43 0 -80 66 -345 103 -418 30 -58 89 -79
121 -44 17 18 16 20 -10 33 -16 7 -38 33 -51 58 -25 50 -70 217 -102 382 -27
138 -35 158 -62 158 -24 0 -71 -46 -100 -99 -160 -286 -296 -442 -414 -476
-64 -19 -97 -9 -125 37 -31 51 -35 108 -13 170 63 175 249 327 413 335 87 5
107 10 114 28 3 9 -3 24 -14 35 -28 28 -87 25 -180 -6z"/>
<path d="M26200 15884 c-36 -8 -83 -11 -106 -8 -53 8 -85 -9 -148 -75 -55 -59
-81 -114 -90 -189 -10 -80 20 -133 93 -170 49 -24 67 -27 147 -26 110 2 167
24 260 101 97 82 124 178 80 285 -17 40 -59 78 -87 78 -10 0 -21 5 -24 10 -8
13 -46 11 -125 -6z m150 -64 c69 -77 59 -183 -24 -253 -81 -67 -139 -91 -220
-91 -156 1 -222 88 -163 216 22 46 87 108 113 108 8 0 14 -9 14 -20 0 -26 12
-25 36 1 16 18 62 43 114 62 8 3 35 6 59 6 37 1 49 -4 71 -29z"/>
<path d="M28838 15887 c-21 -17 -41 -66 -34 -84 3 -7 2 -23 -3 -36 -5 -12 -17
-60 -26 -107 -10 -47 -23 -98 -30 -115 -7 -16 -17 -41 -22 -55 -6 -14 -20 -46
-32 -73 -26 -59 -27 -77 -2 -77 26 0 58 47 86 123 13 34 33 87 45 117 12 30
31 89 42 130 11 41 24 82 29 91 12 24 -3 93 -21 96 -8 2 -23 -3 -32 -10z"/>
<path d="M18915 15870 c-38 -4 -51 -9 -53 -24 -2 -10 0 -22 6 -28 5 -5 205
-11 500 -13 399 -3 494 -1 509 10 10 7 16 16 13 19 -8 7 -291 23 -600 34 -276
10 -300 10 -375 2z"/>
<path d="M23200 15841 c-157 -51 -225 -98 -240 -163 -16 -73 73 -184 190 -236
140 -62 426 -123 500 -107 36 8 39 20 8 28 -374 92 -517 146 -583 219 -40 44
-47 94 -17 121 26 24 107 57 201 83 91 25 111 37 111 65 0 28 -67 24 -170 -10z"/>
<path d="M26652 15748 c-18 -18 -15 -36 8 -43 11 -3 23 -17 26 -31 8 -33 -5
-148 -21 -187 -7 -18 -15 -54 -17 -82 -3 -50 -3 -50 27 -50 32 0 46 18 130
165 47 82 105 131 130 110 13 -11 16 -34 14 -116 -1 -56 2 -107 5 -113 10 -16
62 -13 99 5 40 21 105 73 177 143 61 59 107 91 131 91 28 0 51 -92 48 -185 -5
-118 14 -152 56 -105 16 18 17 32 12 133 -16 272 -76 297 -276 117 -119 -107
-151 -130 -182 -130 -22 0 -22 2 -15 105 6 96 5 106 -13 124 -16 16 -26 18
-52 11 -49 -14 -75 -35 -130 -105 -72 -92 -85 -87 -69 26 14 95 2 129 -44 129
-18 0 -37 -5 -44 -12z"/>
<path d="M18683 15743 c-22 -8 -15 -53 10 -63 32 -13 234 -30 368 -30 62 0
215 -8 339 -16 250 -18 580 -27 604 -18 22 8 20 34 -2 34 -42 0 -346 21 -437
30 -55 6 -235 17 -400 25 -167 9 -329 22 -365 30 -67 15 -96 17 -117 8z"/>
<path d="M31978 15703 c-16 -18 -28 -44 -31 -73 -8 -64 -28 -76 -134 -83 -100
-6 -189 -35 -244 -78 -20 -16 -40 -29 -44 -29 -10 0 -44 43 -45 56 0 20 -57
24 -106 7 -26 -9 -83 -44 -127 -77 -160 -124 -236 -170 -253 -153 -9 8 21 69
64 131 42 59 54 106 28 106 -36 0 -81 -48 -123 -130 -68 -135 -55 -191 40
-176 50 8 105 41 237 140 104 78 186 124 198 111 4 -4 7 -39 6 -78 0 -52 -6
-85 -21 -117 -44 -93 -39 -124 16 -111 20 5 28 17 38 56 7 28 13 64 13 80 0
47 21 76 65 91 22 7 41 18 43 24 7 19 122 71 180 81 31 5 67 12 80 14 53 12 7
-63 -95 -158 -48 -44 -55 -67 -19 -67 24 0 116 64 116 81 0 5 18 34 41 64 42
56 93 84 127 70 22 -10 117 -9 160 0 l33 8 -28 17 c-17 10 -61 19 -112 23 -46
4 -86 9 -89 12 -3 3 8 35 26 71 36 72 40 99 16 108 -24 9 -29 8 -56 -21z"/>
<path d="M29130 15611 c-90 -28 -173 -98 -190 -160 -8 -32 -17 -42 -38 -47
-43 -11 -84 -34 -80 -46 2 -6 22 -16 43 -23 34 -9 43 -18 67 -65 30 -60 43
-67 119 -69 32 -1 54 5 70 18 32 26 20 35 -44 33 -59 -2 -92 17 -102 59 -9 38
11 52 112 83 202 60 244 81 259 128 9 28 -16 78 -43 89 -29 11 -137 11 -173 0z
m160 -59 c0 -11 -8 -26 -17 -35 -26 -23 -228 -89 -260 -85 l-28 3 37 37 c59
57 148 95 231 97 30 1 37 -3 37 -17z"/>
<path d="M30421 15582 c-19 -9 -47 -35 -62 -57 -24 -33 -29 -51 -30 -105 -2
-88 19 -170 44 -170 14 0 17 4 12 18 -17 39 -17 67 0 130 24 87 37 106 91 131
41 19 47 20 79 7 32 -14 35 -19 35 -56 0 -52 -49 -159 -88 -192 -16 -13 -42
-29 -58 -35 -16 -5 -51 -18 -79 -28 -27 -9 -69 -20 -92 -22 -38 -4 -44 -2 -54
21 -10 21 -9 37 6 86 51 167 5 177 -236 53 -87 -45 -152 -72 -159 -68 -9 5
-11 24 -6 62 4 33 2 62 -5 75 -17 32 -71 18 -128 -35 -47 -44 -118 -89 -158
-102 -31 -9 -30 4 7 117 25 79 27 95 16 107 -12 12 -19 10 -45 -8 -17 -12 -33
-32 -35 -44 -2 -12 -14 -64 -26 -115 -20 -89 -21 -95 -4 -113 14 -15 25 -18
53 -13 55 11 143 54 184 91 21 20 60 43 71 43 3 0 6 -15 6 -32 0 -36 32 -97
52 -99 42 -4 107 23 233 95 44 25 93 46 109 46 27 0 28 -1 20 -32 -4 -18 -8
-57 -8 -86 1 -41 6 -58 25 -78 23 -25 26 -26 104 -19 44 4 103 7 130 6 167 -4
192 -3 222 13 63 32 52 39 -51 31 -56 -4 -96 -3 -96 2 0 5 13 19 28 30 50 37
100 122 111 188 9 58 1 105 -18 105 -5 0 -11 8 -13 18 -7 25 -67 52 -115 52
-21 0 -53 -8 -72 -18z"/>
<path d="M28145 15566 c-72 -19 -94 -29 -154 -75 -30 -23 -60 -41 -66 -41 -29
0 -64 -43 -80 -98 -9 -31 -27 -73 -40 -92 -57 -84 -173 -376 -161 -407 8 -20
53 -16 74 7 18 20 54 106 81 195 7 22 16 49 20 60 5 11 21 52 35 90 37 95 77
154 147 219 73 68 144 96 254 103 68 3 84 1 104 -15 l23 -19 -37 -36 c-58 -57
-133 -88 -218 -91 -64 -2 -72 -5 -75 -23 -4 -26 20 -33 113 -33 85 0 151 28
220 91 40 37 46 47 41 72 -3 16 -18 41 -33 57 -27 29 -32 30 -163 45 -19 2
-57 -2 -85 -9z"/>
<path d="M1803 15180 c-105 -40 -176 -83 -283 -168 -166 -134 -409 -399 -446
-489 -8 -17 -18 -34 -24 -38 -5 -3 -10 -15 -10 -26 0 -10 -4 -19 -8 -19 -10 0
-38 -80 -46 -130 -3 -19 -7 -78 -7 -130 -1 -84 1 -102 24 -146 39 -78 68 -106
149 -147 93 -46 151 -57 292 -56 133 1 239 24 244 53 4 17 0 18 -39 12 -24 -3
-92 -9 -151 -13 -120 -7 -213 9 -304 53 -65 32 -132 100 -147 150 -16 59 -14
191 5 254 63 213 359 546 628 707 81 49 123 63 235 80 45 7 50 11 53 36 4 29
-1 32 -59 40 -24 4 -57 -4 -106 -23z"/>
<path d="M4705 15130 c-12 -19 5 -47 60 -93 30 -26 70 -71 88 -100 60 -91 167
-318 167 -353 0 -18 4 -44 10 -59 5 -14 14 -65 20 -114 15 -122 1 -221 -60
-436 -20 -68 -47 -132 -68 -162 -12 -17 -22 -35 -22 -41 0 -5 -19 -28 -41 -51
-36 -35 -47 -41 -84 -41 -29 0 -45 -5 -49 -15 -9 -25 29 -55 70 -55 29 0 45 9
89 51 30 28 63 67 75 88 50 89 100 216 115 291 4 19 11 40 15 45 4 6 13 52 20
104 23 176 -7 382 -70 493 -6 10 -10 23 -10 29 0 11 -14 42 -74 169 -35 74
-82 144 -136 203 -40 44 -59 57 -80 57 -16 0 -32 -5 -35 -10z"/>
<path d="M3428 14863 c-18 -20 -19 -125 -4 -240 9 -61 8 -62 -17 -74 -14 -6
-29 -19 -32 -28 -7 -17 19 -41 45 -41 37 0 53 -26 56 -86 2 -33 16 -108 31
-169 26 -103 30 -110 54 -113 23 -3 27 1 31 28 3 17 -3 54 -12 83 -38 113 -61
194 -66 229 -7 43 -8 43 126 53 193 13 361 50 345 75 -8 12 -105 13 -200 0
-93 -11 -282 -16 -291 -7 -14 14 -16 116 -5 195 6 43 9 86 5 95 -8 22 -47 22
-66 0z"/>
<path d="M2582 14688 c-97 -53 -229 -193 -256 -272 -6 -18 -16 -40 -22 -47
-23 -30 -64 -189 -73 -278 -12 -126 4 -163 84 -204 93 -46 199 -25 281 56 29
29 63 73 77 99 32 61 82 205 102 298 9 41 22 88 27 103 12 30 46 54 57 40 12
-13 51 -114 51 -130 0 -8 18 -45 40 -83 22 -38 40 -71 40 -75 0 -18 88 -135
115 -154 56 -38 155 -20 155 29 0 17 -5 19 -44 14 -25 -4 -52 -2 -64 5 -31 16
-95 105 -132 181 -18 36 -50 101 -71 145 -21 43 -39 91 -39 105 -1 33 -52 95
-73 87 -26 -10 -51 -57 -50 -96 1 -34 -7 -60 -43 -136 -7 -16 -18 -52 -24 -78
-6 -26 -14 -55 -19 -65 -5 -9 -22 -48 -37 -87 -49 -123 -105 -188 -178 -210
-67 -20 -105 -19 -143 5 -47 28 -57 54 -54 145 6 236 178 515 336 544 51 10
75 26 75 51 0 36 -59 40 -118 8z"/>
<path d="M4279 14516 c-84 -30 -102 -40 -165 -87 -42 -31 -56 -49 -78 -105
-29 -71 -28 -97 2 -164 39 -88 154 -149 252 -136 52 7 135 46 129 61 -4 11
-15 11 -111 0 -54 -6 -77 -4 -113 10 -84 31 -125 125 -95 215 25 76 143 143
269 154 75 7 101 17 101 42 0 39 -94 44 -191 10z"/>
<path d="M6592 14496 c-142 -47 -211 -188 -175 -360 28 -127 143 -174 276
-113 50 23 65 37 178 170 29 34 49 30 49 -11 0 -43 44 -172 81 -236 37 -65
101 -113 164 -123 49 -8 47 19 -4 51 -46 29 -103 86 -118 118 -32 66 -103 233
-103 243 0 6 11 22 25 35 32 30 33 80 2 135 -16 30 -37 47 -82 69 -51 26 -74
30 -155 33 -62 2 -110 -2 -138 -11z m259 -69 c36 -15 36 -15 29 -63 -18 -137
-148 -268 -288 -290 -89 -14 -132 36 -132 154 0 58 4 75 29 114 36 56 59 72
131 93 65 18 179 14 231 -8z"/>
<path d="M5519 14440 l-24 -20 24 -20 c29 -25 33 -25 62 -1 20 16 22 23 13 38
-16 26 -47 27 -75 3z"/>
<path d="M11023 14208 c-21 -28 -45 -184 -47 -302 l-1 -121 -35 -3 c-19 -2
-66 1 -105 7 -191 30 -338 43 -361 32 -26 -12 -33 -51 -11 -69 6 -5 55 -13
107 -16 228 -16 357 -28 379 -37 23 -9 23 -12 16 -72 -9 -72 -9 -272 0 -287
11 -17 53 -11 59 8 3 10 2 82 -4 160 -9 145 -8 167 14 175 6 3 77 -4 156 -14
295 -39 478 -49 510 -29 31 20 -12 32 -191 55 -493 63 -485 61 -482 96 9 124
27 261 38 294 22 68 26 95 15 115 -12 22 -43 26 -57 8z"/>
<path d="M32577 14133 c-4 -3 -7 -11 -7 -17 0 -6 5 -5 12 2 6 6 9 14 7 17 -3
3 -9 2 -12 -2z"/>
<path d="M25978 14063 c-17 -19 -22 -42 -39 -168 -6 -44 -22 -116 -36 -160
-53 -169 -65 -547 -27 -910 6 -61 17 -85 38 -85 9 0 12 93 12 383 0 412 12
566 53 662 23 54 61 234 61 291 0 12 -49 2 -62 -13z"/>
<path d="M22115 14006 c-16 -24 -16 -131 0 -256 9 -71 1 -78 -107 -97 -93 -15
-131 -40 -112 -71 16 -25 61 -26 144 -3 49 14 78 17 84 11 5 -5 13 -51 18
-102 18 -205 23 -228 49 -228 11 0 22 7 26 16 3 8 -4 81 -16 162 -21 139 -21
147 -5 159 20 14 258 17 394 5 80 -7 184 -2 196 11 4 4 3 11 -2 17 -17 17
-248 44 -429 49 l-179 6 -8 39 c-5 21 -4 54 1 75 12 45 17 203 7 219 -12 20
-44 14 -61 -12z"/>
<path d="M27664 13968 c-12 -5 -26 -20 -32 -32 -6 -11 -49 -102 -97 -200 -86
-176 -146 -332 -167 -431 -15 -76 -34 -107 -61 -100 -23 7 -67 53 -67 70 0 22
-79 86 -128 105 -66 25 -200 27 -280 4 -187 -54 -326 -205 -318 -346 5 -95 45
-145 141 -174 94 -29 375 -27 563 5 155 26 193 42 174 77 -29 53 -32 111 -11
201 11 48 30 111 41 138 35 89 46 119 53 148 9 45 63 157 214 449 29 56 32 70
21 83 -14 17 -17 17 -46 3z m-569 -653 c40 -13 107 -54 125 -76 3 -3 15 -11
28 -18 16 -9 22 -21 22 -46 0 -19 9 -52 21 -74 16 -31 19 -49 14 -85 -13 -87
-25 -91 -305 -102 -279 -10 -399 16 -419 94 -22 83 34 190 133 253 44 28 143
65 191 72 51 8 141 -1 190 -18z"/>
<path d="M12515 13943 c-48 -7 -145 -32 -203 -54 -202 -74 -289 -192 -245
-335 45 -152 230 -249 593 -311 123 -21 475 -24 523 -5 49 20 30 32 -50 32
-316 1 -662 58 -828 137 -62 29 -139 93 -159 132 -71 138 25 251 264 313 114
29 187 33 252 14 89 -25 128 -18 128 24 0 30 -184 65 -275 53z"/>
<path d="M21243 13848 c-11 -13 -28 -39 -38 -58 -23 -46 -45 -70 -63 -70 -8 0
-47 22 -87 49 -98 66 -178 81 -294 59 -95 -19 -136 -37 -221 -99 -71 -52 -139
-134 -178 -217 -49 -108 -27 -252 46 -295 77 -44 172 -27 328 60 166 93 356
261 434 385 23 38 54 77 68 89 24 18 27 19 38 4 6 -9 15 -46 19 -83 21 -203
165 -587 244 -653 38 -31 60 -35 92 -19 31 17 23 38 -17 46 -49 9 -94 81 -146
233 -39 116 -118 411 -118 442 0 9 -9 47 -20 83 -18 56 -24 66 -44 66 -12 0
-32 -10 -43 -22z m-323 -89 c53 -12 170 -87 170 -109 0 -34 -218 -217 -344
-289 -95 -54 -181 -89 -238 -97 -38 -5 -49 -3 -73 19 -26 22 -30 32 -33 95 -5
90 22 153 99 233 87 90 165 131 279 148 77 12 89 12 140 0z"/>
<path d="M3255 13828 c-38 -4 -76 -8 -82 -8 -47 3 -78 2 -153 -5 -47 -4 -90
-11 -95 -16 -6 -4 -37 -9 -70 -10 -33 -2 -64 -6 -70 -10 -5 -3 -37 -9 -70 -13
-85 -10 -99 -11 -210 -31 -55 -9 -149 -19 -210 -21 -131 -5 -246 -24 -298 -49
-41 -19 -57 -42 -38 -54 12 -8 136 13 161 27 8 5 35 9 60 10 25 1 70 7 101 12
31 6 95 13 143 15 48 3 104 11 125 19 24 8 45 10 54 4 9 -5 18 -4 22 2 3 5 19
10 35 10 16 0 32 5 35 10 4 6 21 8 41 4 20 -4 40 -2 47 5 7 5 35 9 63 7 59 -3
129 9 166 30 15 8 49 15 75 16 26 0 56 4 65 9 10 6 26 5 42 -2 19 -9 29 -9 40
0 10 9 20 9 33 3 20 -11 66 -6 100 10 17 8 26 8 38 -2 13 -11 20 -11 41 0 13
8 23 18 21 23 -4 13 -80 15 -89 2 -5 -6 -12 -5 -20 3 -6 6 -17 11 -22 11 -6
-1 -42 -6 -81 -11z"/>
<path d="M5990 13800 c-51 -6 -70 -15 -70 -35 0 -19 19 -23 64 -13 22 5 72 9
113 10 40 0 76 5 80 11 16 26 -76 40 -187 27z"/>
<path d="M18720 13803 c-163 -6 -395 -24 -477 -39 -47 -8 -145 -31 -217 -51
-100 -27 -137 -41 -155 -61 l-23 -26 22 -18 c13 -11 30 -16 39 -13 43 18 223
76 276 90 183 48 708 74 1060 52 131 -8 174 -2 149 23 -25 25 -437 51 -674 43z"/>
<path d="M6203 13787 c-7 -12 18 -28 35 -22 8 3 19 2 24 -1 6 -4 42 -9 80 -11
53 -2 68 0 68 11 0 8 -14 17 -32 20 -55 11 -169 12 -175 3z"/>
<path d="M6457 13774 c-13 -13 -7 -24 14 -24 11 0 19 5 17 12 -5 14 -22 21
-31 12z"/>
<path d="M6536 13771 c5 -5 20 -12 34 -16 24 -7 24 -7 5 9 -21 16 -56 23 -39
7z"/>
<path d="M3835 13761 c-94 -7 -150 -26 -150 -51 0 -13 58 -15 445 -15 480 0
515 3 508 49 -3 21 -5 21 -358 22 -195 0 -395 -2 -445 -5z"/>
<path d="M6820 13730 c0 -5 9 -10 21 -10 11 0 17 5 14 10 -3 6 -13 10 -21 10
-8 0 -14 -4 -14 -10z"/>
<path d="M6910 13720 c0 -5 7 -10 15 -10 8 0 15 5 15 10 0 6 -7 10 -15 10 -8
0 -15 -4 -15 -10z"/>
<path d="M23394 13695 c-188 -29 -344 -157 -344 -282 0 -54 53 -166 100 -212
53 -53 184 -127 282 -161 103 -35 259 -54 372 -45 94 7 292 49 312 66 37 31
-1 43 -74 25 -165 -42 -412 -45 -532 -6 -195 63 -344 175 -374 279 -20 67 -20
84 -1 120 35 69 141 126 261 141 87 11 124 28 124 56 0 11 -32 36 -42 33 -2
-1 -39 -7 -84 -14z"/>
<path d="M7343 13663 c9 -2 25 -2 35 0 9 3 1 5 -18 5 -19 0 -27 -2 -17 -5z"/>
<path d="M17728 13479 c-20 -11 -24 -54 -6 -65 9 -6 1103 -19 1268 -15 77 2
132 26 102 45 -10 6 -155 14 -412 22 -113 3 -208 8 -211 10 -15 9 -725 12
-741 3z"/>
<path d="M1122 13448 c-20 -20 -14 -48 13 -58 26 -10 338 -36 790 -67 223 -15
400 -18 1025 -18 694 0 1364 11 1383 22 18 11 2524 -1 2715 -12 94 -6 129 -4
148 5 13 8 24 17 24 21 0 33 -351 50 -1047 48 -307 0 -686 1 -843 3 -440 5
-974 -1 -1430 -16 -619 -21 -1418 -17 -1938 9 -195 9 -579 42 -697 60 -123 18
-128 18 -143 3z"/>
<path d="M32370 9554 c0 -8 5 -12 10 -9 6 4 8 11 5 16 -9 14 -15 11 -15 -7z"/>
<path d="M32340 9095 c0 -10 7 -15 18 -13 21 4 19 22 -2 26 -10 2 -16 -3 -16
-13z"/>
<path d="M10344 8392 c-18 -12 -31 -44 -38 -97 -4 -27 -17 -93 -28 -145 -11
-52 -23 -138 -27 -190 l-6 -95 -167 -5 c-157 -5 -169 -6 -190 -28 -18 -18 -20
-26 -12 -40 13 -20 68 -22 251 -8 l113 9 -5 -154 c-3 -85 -7 -189 -10 -231 -4
-63 -1 -81 14 -99 39 -49 48 -3 55 281 2 91 7 173 11 184 7 16 16 18 74 13
178 -15 403 -38 461 -47 166 -27 221 -34 294 -34 52 -1 81 3 83 11 5 14 -47
26 -327 73 -186 31 -437 60 -525 60 -30 0 -56 4 -59 8 -5 8 66 405 85 475 14
52 -11 83 -47 59z"/>
<path d="M7142 8289 c-362 -47 -625 -258 -599 -480 26 -214 394 -270 718 -110
41 21 102 55 135 75 68 44 248 225 304 306 46 67 75 94 93 87 12 -4 33 -76 71
-237 26 -111 100 -324 121 -350 7 -8 20 -31 28 -50 24 -58 105 -148 165 -182
44 -25 67 -31 115 -32 40 -1 61 3 64 11 5 14 4 14 -77 33 -135 31 -224 151
-290 390 -18 63 -38 135 -45 160 -7 25 -28 99 -45 165 -38 142 -63 189 -94
181 -11 -3 -23 -6 -26 -6 -3 0 -23 -22 -44 -50 -21 -27 -42 -50 -48 -50 -5 0
-32 17 -61 38 -128 95 -285 127 -485 101z m248 -60 c82 -13 154 -45 203 -91
27 -26 35 -41 31 -54 -11 -30 -46 -64 -86 -85 -29 -15 -38 -26 -38 -45 0 -30
-30 -58 -128 -120 -216 -137 -459 -188 -634 -133 -93 30 -128 69 -128 142 0
66 34 140 86 191 139 135 477 230 694 195z"/>
<path d="M11715 7879 c-69 -11 -140 -46 -156 -77 -21 -38 -14 -123 15 -184 45
-94 176 -227 340 -343 102 -72 154 -108 181 -125 13 -8 54 -36 92 -61 37 -25
75 -49 83 -52 8 -4 33 -18 55 -32 59 -37 160 -85 178 -85 37 0 12 28 -70 80
-48 30 -113 72 -143 93 -30 21 -91 63 -135 93 -294 201 -450 342 -509 461 -32
63 -33 103 -3 130 39 36 91 46 206 40 192 -9 329 -64 432 -171 35 -36 69 -66
76 -66 6 0 19 7 27 16 30 30 -6 73 -139 166 -66 46 -158 82 -277 107 -101 22
-168 24 -253 10z"/>
<path d="M15627 7561 c-79 -6 -100 -18 -94 -51 2 -12 17 -15 77 -13 225 6 441
2 565 -10 77 -8 160 -15 184 -16 25 -1 47 -4 51 -6 17 -10 353 -34 367 -26 14
8 14 10 -3 19 -10 5 -44 13 -74 17 -30 3 -107 15 -170 25 -63 10 -162 24 -220
29 -58 6 -145 15 -195 20 -126 13 -395 20 -488 12z"/>
<path d="M19864 7547 c-21 -18 -29 -38 -40 -102 -8 -44 -16 -116 -20 -160 -8
-125 -9 -125 -52 -125 -20 0 -83 5 -139 12 -109 12 -133 6 -133 -33 0 -31 39
-42 175 -48 l130 -6 -2 -100 c-2 -55 -5 -158 -8 -228 -4 -110 -3 -129 11 -134
35 -13 38 5 48 284 5 136 14 173 44 173 25 0 295 -28 381 -40 122 -17 392 -24
424 -11 43 17 25 28 -60 35 -69 6 -270 28 -518 57 -44 5 -112 11 -152 13 -40
3 -77 7 -83 11 -5 3 -10 21 -10 40 0 37 45 269 55 286 19 30 23 70 9 84 -20
20 -28 19 -60 -8z"/>
<path d="M18370 7480 c-36 -9 -173 -69 -247 -108 -76 -40 -167 -141 -215 -238
-42 -88 -43 -90 -43 -194 0 -85 4 -113 20 -145 37 -74 148 -108 277 -85 181
33 350 157 509 374 83 114 104 135 121 118 4 -4 23 -71 42 -147 36 -144 67
-230 137 -371 68 -136 119 -185 175 -164 33 13 27 32 -13 42 -39 10 -79 57
-110 128 -13 30 -28 64 -33 75 -15 31 -87 292 -105 380 -9 43 -25 96 -36 117
-35 68 -59 54 -185 -105 -54 -67 -126 -150 -161 -184 -125 -121 -288 -202
-411 -203 -72 0 -116 16 -152 54 -22 24 -25 35 -23 94 2 77 36 195 64 225 10
11 19 25 19 29 0 17 86 101 140 138 160 108 295 142 398 101 67 -27 106 -27
133 0 18 18 19 23 8 34 -31 28 -243 52 -309 35z"/>
<path d="M25596 7393 c-42 -11 -99 -57 -198 -156 -116 -117 -157 -166 -183
-217 -9 -19 -28 -46 -41 -60 -12 -14 -30 -42 -39 -63 -9 -21 -22 -40 -30 -44
-8 -3 -15 -10 -16 -17 0 -6 -27 -49 -59 -96 -32 -47 -84 -130 -116 -185 -31
-55 -69 -118 -84 -140 -15 -22 -40 -60 -56 -85 -16 -25 -56 -80 -89 -124 -33
-43 -67 -88 -75 -100 -42 -63 -143 -159 -189 -181 -55 -27 -63 -45 -29 -69 47
-33 120 18 245 172 91 113 183 238 183 250 0 4 24 44 53 88 28 44 65 104 82
134 83 154 108 201 141 269 33 68 65 113 169 238 19 23 35 44 35 48 0 26 217
244 265 266 36 16 41 16 66 2 42 -25 58 -82 74 -273 21 -253 22 -243 -21 -259
-24 -9 -112 -15 -263 -17 -181 -4 -229 -8 -241 -19 -13 -13 -12 -18 8 -38 22
-21 30 -22 165 -20 95 1 175 8 242 21 136 27 133 29 134 -136 0 -145 34 -447
61 -552 63 -247 73 -269 106 -256 14 5 16 15 10 59 -3 30 -15 89 -26 133 -44
169 -60 278 -76 518 -19 290 -26 270 89 280 329 29 435 52 399 88 -11 11 -215
-8 -361 -33 -84 -14 -138 -12 -145 7 -3 9 -6 82 -6 162 0 203 -28 353 -73 390
-18 15 -81 24 -111 15z"/>
<path d="M15322 7258 c-16 -16 -15 -53 2 -67 37 -31 288 -97 511 -135 83 -14
181 -31 220 -38 38 -7 128 -12 200 -13 115 0 130 2 133 17 4 21 12 19 -234 53
-201 28 -365 59 -526 100 -103 27 -237 72 -252 87 -14 12 -40 10 -54 -4z"/>
<path d="M21160 7196 c-109 -34 -128 -42 -180 -74 -112 -69 -180 -176 -180
-282 0 -169 206 -401 465 -525 103 -50 250 -85 353 -85 97 0 262 19 262 30 0
4 -46 8 -102 9 -238 4 -429 46 -535 119 -16 10 -54 36 -85 57 -130 86 -257
240 -279 339 -24 108 35 214 157 282 124 70 195 82 375 69 99 -8 139 1 139 30
0 27 -41 36 -193 41 -113 3 -163 1 -197 -10z"/>
<path d="M26773 7053 c-23 -21 -83 -98 -99 -128 -6 -11 -23 -41 -37 -67 -15
-26 -27 -51 -27 -56 0 -6 -18 -49 -40 -96 -22 -47 -40 -88 -40 -91 0 -6 -19
-47 -87 -195 -25 -52 -52 -113 -61 -135 -9 -22 -31 -66 -49 -98 -18 -33 -33
-64 -33 -71 0 -20 22 -36 50 -36 25 0 127 32 163 52 11 5 50 18 88 29 151 42
330 10 446 -80 45 -35 53 -46 53 -74 0 -39 -39 -84 -115 -131 -123 -77 -203
-101 -341 -101 l-110 1 -53 37 c-57 41 -81 42 -81 3 0 -35 45 -73 106 -91 64
-18 209 -19 284 -1 163 39 264 95 339 186 41 51 43 56 37 104 -4 38 -13 58
-38 84 -42 43 -193 116 -275 132 -94 19 -223 9 -313 -25 -74 -27 -140 -42
-140 -32 0 7 48 107 61 127 8 13 26 50 114 235 13 28 38 88 56 134 47 121 113
246 159 300 42 50 51 85 24 95 -21 8 -19 8 -41 -11z"/>
<path d="M32266 7033 c-12 -12 -6 -33 9 -33 8 0 15 6 15 14 0 17 -14 28 -24
19z"/>
<path d="M29718 6719 c-25 -14 -22 -36 6 -62 39 -37 58 -114 52 -209 -7 -97
-25 -235 -56 -428 -6 -36 -15 -96 -20 -135 -6 -38 -14 -81 -19 -95 -5 -14 -12
-50 -16 -80 -3 -30 -12 -80 -20 -110 -55 -218 -55 -230 -8 -230 46 1 83 42
146 162 19 37 44 80 56 96 11 17 21 33 21 37 0 18 112 175 148 207 50 45 76
53 149 44 90 -11 176 -70 202 -139 36 -93 -28 -258 -150 -390 -101 -109 -185
-148 -328 -149 -81 -1 -95 2 -172 36 -46 21 -90 40 -96 43 -27 11 -14 -44 15
-63 188 -127 433 -107 593 50 134 131 230 311 223 420 -5 63 -39 130 -86 167
-93 74 -241 104 -318 64 -56 -28 -107 -73 -131 -113 -13 -20 -29 -41 -36 -45
-7 -4 -13 -12 -13 -17 0 -4 -24 -47 -52 -94 -29 -48 -63 -103 -74 -124 -12
-20 -30 -39 -39 -40 -15 -3 -17 1 -11 30 3 18 10 58 15 88 5 31 19 87 31 125
21 68 76 335 101 485 14 87 18 304 6 371 -5 28 -19 57 -37 77 -30 33 -52 39
-82 21z"/>
<path d="M32247 6694 c-11 -11 3 -24 25 -24 17 0 18 2 8 15 -13 16 -23 19 -33
9z"/>
<path d="M27541 6279 c-66 -11 -136 -54 -152 -92 -24 -59 11 -182 72 -252 9
-11 47 -65 83 -119 71 -107 82 -147 45 -167 -55 -29 -217 40 -288 122 -37 43
-47 50 -75 47 -25 -2 -32 -8 -34 -28 -9 -80 219 -210 370 -210 26 0 58 5 72
11 23 11 56 62 56 89 0 18 -89 192 -109 215 -40 44 -120 177 -127 209 -9 51 2
71 54 95 53 25 127 30 259 17 89 -8 123 -3 123 19 0 16 -12 20 -95 34 -97 16
-196 20 -254 10z"/>
<path d="M28074 6145 c-13 -32 2 -45 99 -82 109 -41 210 -142 248 -246 12 -33
11 -40 -7 -64 -30 -41 -86 -56 -156 -44 -110 19 -188 72 -188 127 0 17 14 32
55 59 37 23 55 41 55 55 0 30 -25 35 -78 15 -65 -25 -112 -76 -112 -122 0 -38
37 -123 53 -123 6 0 18 -7 27 -15 30 -27 148 -65 203 -65 117 1 178 28 208 91
35 71 -14 206 -101 279 -50 42 -254 150 -283 150 -10 0 -20 -7 -23 -15z"/>
<path d="M32212 6078 c6 -18 28 -21 28 -4 0 9 -7 16 -16 16 -9 0 -14 -5 -12
-12z"/>
<path d="M28995 6027 c-107 -28 -166 -64 -260 -160 -153 -156 -212 -307 -120
-307 29 0 45 19 45 54 0 58 60 148 165 249 104 99 261 142 378 102 23 -8 58
-16 77 -17 29 -3 35 0 35 17 0 50 -207 90 -320 62z"/>
<path d="M32215 5870 c-3 -5 -1 -10 4 -10 6 0 11 5 11 10 0 6 -2 10 -4 10 -3
0 -8 -4 -11 -10z"/>
<path d="M32204 5684 c3 -9 6 -18 6 -20 0 -3 5 -2 10 1 16 10 12 35 -6 35 -11
0 -14 -5 -10 -16z"/>
<path d="M24980 5316 c-94 -17 -253 -82 -308 -125 -64 -51 -95 -89 -126 -156
-49 -102 -20 -213 79 -303 28 -26 76 -59 107 -74 138 -68 373 -126 430 -106
57 20 25 41 -82 52 -143 16 -330 93 -413 172 -49 45 -67 89 -67 156 1 107 87
206 232 266 102 43 190 57 343 56 174 0 284 -24 337 -72 39 -35 117 -65 143
-56 46 18 -14 77 -130 129 -143 63 -385 90 -545 61z"/>
<path d="M32187 5190 c-6 -23 3 -26 21 -8 16 16 15 28 -2 28 -7 0 -16 -9 -19
-20z"/>
<path d="M30875 5120 c-62 -24 -452 -318 -473 -356 -11 -21 -10 -24 3 -24 22
0 119 52 185 99 30 22 108 75 173 118 157 103 167 111 167 133 0 24 -29 40
-55 30z"/>
<path d="M32631 5104 c0 -11 3 -14 6 -6 3 7 2 16 -1 19 -3 4 -6 -2 -5 -13z"/>
<path d="M32176 5071 c-4 -7 -5 -15 -2 -18 9 -9 19 4 14 18 -4 11 -6 11 -12 0z"/>
<path d="M32628 4903 c-2 -60 -1 -115 4 -123 4 -8 8 40 8 108 0 67 -2 122 -4
122 -2 0 -6 -48 -8 -107z"/>
<path d="M26323 4902 c-37 -37 -61 -83 -101 -192 -12 -30 -35 -95 -53 -144
l-33 -88 23 -19 c13 -11 32 -19 42 -19 24 0 109 107 109 138 0 12 4 22 9 22 5
0 11 9 14 20 6 24 35 26 63 5 35 -26 90 -19 141 20 25 19 56 35 69 35 26 0 29
-8 39 -103 5 -46 11 -61 31 -73 30 -20 59 -11 48 14 -4 9 -9 54 -10 100 -3 64
-8 90 -24 112 -37 52 -74 48 -157 -15 -25 -19 -54 -35 -64 -35 -22 0 -22 -2
-8 39 8 24 8 35 -1 46 -25 30 -47 15 -110 -75 -63 -88 -85 -109 -102 -92 -21
21 83 215 138 257 35 27 43 52 22 73 -21 21 -45 13 -85 -26z"/>
<path d="M25706 4885 c-50 -18 -63 -35 -50 -69 8 -22 30 -20 54 4 12 12 33 20
51 20 l32 0 -24 -23 c-38 -34 -87 -127 -106 -198 -16 -62 -16 -66 6 -136 18
-59 28 -75 59 -96 71 -49 139 -60 203 -33 54 23 117 100 145 178 22 61 20 194
-2 242 -46 96 -243 156 -368 111z m273 -94 c39 -39 52 -70 58 -139 5 -63 3
-75 -20 -114 -14 -24 -48 -65 -76 -91 -40 -38 -57 -47 -86 -47 -82 0 -125 51
-125 147 0 110 61 225 128 242 96 25 98 25 121 2z"/>
<path d="M32176 4815 c-18 -18 -19 -25 -10 -49 9 -24 18 -20 33 15 16 38 2 59
-23 34z"/>
<path d="M32625 4738 c-3 -7 -1 -40 4 -73 l9 -60 1 73 c1 68 -4 88 -14 60z"/>
<path d="M28240 4720 c-16 -16 -20 -34 -21 -92 -2 -156 -9 -232 -21 -240 -15
-9 -138 -11 -138 -2 0 3 5 15 11 26 7 13 7 24 1 30 -6 6 -29 -18 -65 -69 -61
-87 -94 -119 -150 -151 -60 -35 -103 -26 -147 31 -18 23 -22 42 -24 110 -1 76
-3 82 -23 85 -31 5 -63 -31 -63 -71 0 -127 93 -236 202 -237 56 0 146 56 183
115 30 47 36 49 170 58 29 2 30 0 28 -35 -3 -47 18 -51 34 -8 6 16 19 33 28
36 25 10 90 -9 91 -26 1 -8 2 -21 3 -27 0 -7 15 -20 32 -29 34 -17 82 -13 129
11 14 7 40 16 58 20 30 6 33 4 47 -29 8 -19 15 -50 15 -68 0 -46 9 -55 63 -69
38 -9 51 -9 60 1 9 9 8 15 -7 24 -46 27 -66 55 -66 93 0 21 7 48 15 60 13 19
13 23 -1 37 -47 48 -83 53 -300 45 -75 -3 -134 13 -134 37 0 8 11 56 24 107
33 121 43 212 26 232 -17 20 -36 19 -60 -5z"/>
<path d="M32165 4721 c-3 -5 -1 -12 4 -15 5 -3 11 1 15 9 6 16 -9 21 -19 6z"/>
<path d="M26934 4698 c-22 -25 -50 -102 -59 -161 -3 -21 -12 -51 -20 -67 -17
-33 -20 -116 -4 -125 6 -4 26 -7 46 -8 29 -1 41 5 64 33 16 19 29 38 29 43 0
4 9 17 20 29 16 17 22 19 35 8 8 -7 15 -22 15 -34 0 -28 10 -42 38 -50 39 -13
80 4 134 56 117 110 134 115 125 33 -7 -74 13 -125 48 -125 25 0 25 2 19 48
-3 29 0 73 10 117 21 87 10 125 -35 125 -26 0 -86 -42 -124 -87 -38 -44 -122
-103 -147 -103 -15 0 -28 2 -28 5 0 2 14 41 30 87 34 92 37 120 15 138 -20 17
-56 1 -71 -31 -6 -13 -20 -45 -32 -70 -22 -49 -96 -142 -118 -147 -8 -2 -14 5
-14 16 0 23 37 132 71 209 19 43 20 54 10 67 -18 22 -34 20 -57 -6z"/>
<path d="M32177 4620 c-3 -11 -2 -20 2 -20 3 0 12 9 19 20 10 16 10 20 -2 20
-7 0 -16 -9 -19 -20z"/>
<path d="M32626 4588 c-4 -10 -6 -37 -4 -60 3 -24 1 -69 -5 -101 -7 -41 -6
-61 2 -71 8 -9 8 -16 2 -20 -5 -3 -10 -39 -10 -79 -1 -39 -3 -106 -6 -147 -2
-41 -6 -125 -8 -186 -2 -61 -7 -116 -11 -122 -3 -6 -2 -13 3 -16 5 -4 7 -22 4
-41 -3 -21 -1 -41 7 -50 10 -12 10 -15 -3 -15 -12 0 -15 -14 -15 -72 0 -40 -2
-102 -5 -138 -3 -36 -9 -157 -12 -270 -3 -113 -8 -232 -10 -265 -2 -33 -7
-145 -10 -250 -3 -104 -10 -264 -14 -355 -5 -91 -8 -176 -9 -190 0 -14 -2 -68
-6 -120 -3 -52 -8 -142 -12 -200 -3 -57 -8 -149 -10 -205 -1 -55 -5 -131 -8
-170 -3 -38 -8 -128 -11 -200 -10 -270 -16 -394 -25 -524 -5 -73 -6 -140 -3
-148 3 -8 1 -47 -6 -86 -10 -65 -20 -246 -24 -419 l-2 -68 53 0 c58 0 57 -2
53 90 -1 25 3 81 9 125 5 44 12 135 15 203 2 67 9 131 15 142 6 11 8 26 4 32
-11 18 -14 117 -4 123 5 3 9 60 9 126 1 66 3 124 6 129 7 11 20 474 15 545 -1
17 3 46 8 66 9 37 6 324 -4 340 -2 5 2 20 11 33 9 14 14 30 10 35 -8 14 -8 72
0 341 10 329 11 470 3 483 -4 7 0 23 8 36 12 18 13 25 4 31 -9 6 -10 22 -3 64
6 33 6 59 1 62 -5 3 -6 35 -2 72 5 37 7 78 7 92 0 14 -1 41 -2 60 0 19 1 122
4 228 4 149 2 192 -8 192 -9 0 -9 2 1 8 10 7 12 109 10 478 -2 269 -7 462 -12
452z"/>
<path d="M29875 4580 c-35 -9 -75 -42 -75 -60 0 -30 67 -43 89 -17 6 8 29 19
52 26 29 9 39 17 37 29 -4 18 -68 32 -103 22z"/>
<path d="M32160 4565 c-10 -12 -9 -16 5 -21 19 -8 40 9 31 25 -10 15 -21 14
-36 -4z"/>
<path d="M29018 4523 c-9 -10 -18 -35 -22 -55 -7 -37 -8 -38 -50 -38 -28 0
-48 -6 -57 -16 -15 -18 -2 -32 61 -66 27 -15 31 -22 26 -45 -13 -62 -16 -202
-5 -209 22 -13 40 23 46 94 7 87 20 102 66 80 37 -18 137 -105 137 -120 0 -9
22 -65 39 -98 5 -8 16 -16 25 -18 19 -4 22 41 5 103 -14 49 -89 124 -177 177
-54 33 -62 41 -62 68 0 17 9 49 21 72 25 50 19 88 -15 88 -12 0 -30 -8 -38
-17z"/>
<path d="M29272 4513 c-41 -20 -58 -49 -41 -69 18 -22 63 -17 113 14 72 43 73
72 3 72 -23 0 -57 -8 -75 -17z"/>
<path d="M30128 4429 c-22 -12 -38 -69 -39 -139 -1 -30 -4 -66 -8 -80 -7 -23
-11 -25 -64 -22 -46 3 -58 0 -63 -13 -9 -22 12 -41 60 -58 60 -21 63 -31 34
-148 -14 -57 -24 -107 -21 -111 8 -15 42 -8 51 10 5 9 15 51 22 92 7 41 18 81
23 88 14 17 41 15 85 -8 43 -22 158 -48 168 -37 12 12 -15 33 -73 56 -32 12
-82 34 -111 48 l-54 25 6 52 c3 28 12 77 21 109 20 78 20 124 -3 136 -11 6
-24 6 -34 0z"/>
<path d="M29810 4295 c-7 -9 -16 -68 -21 -142 -5 -71 -13 -159 -18 -197 -8
-55 -7 -75 5 -98 25 -48 66 -30 58 26 -3 17 2 92 12 166 9 74 19 163 21 198 5
60 4 62 -20 62 -13 0 -30 -7 -37 -15z"/>
<path d="M29663 4180 c-26 -38 -63 -93 -81 -123 -39 -65 -68 -93 -103 -102
-55 -14 -62 54 -17 178 17 47 19 63 10 82 -14 29 -32 32 -61 8 -23 -20 -40
-112 -41 -217 0 -51 4 -64 27 -88 55 -57 157 -25 212 67 50 85 130 249 125
257 -11 17 -24 5 -71 -62z"/>
<path d="M32155 4240 c-7 -12 2 -30 16 -30 5 0 9 9 9 20 0 21 -15 27 -25 10z"/>
<path d="M32130 4120 c0 -16 4 -30 9 -30 10 0 22 40 15 52 -11 18 -24 6 -24
-22z"/>
<path d="M32140 4045 c0 -9 5 -15 11 -13 6 2 11 8 11 13 0 5 -5 11 -11 13 -6
2 -11 -4 -11 -13z"/>
<path d="M30469 4025 c-34 -18 -82 -124 -73 -159 9 -38 49 -73 91 -79 34 -6
178 9 195 19 22 14 258 74 290 74 70 0 46 -99 -58 -234 -32 -42 -72 -95 -87
-117 -59 -82 -273 -287 -360 -342 -83 -54 -104 -73 -93 -84 10 -11 54 7 117
49 35 23 66 45 69 49 3 4 23 22 45 39 57 45 188 173 270 264 39 43 81 90 94
104 41 44 89 126 110 188 20 56 20 59 3 93 l-17 36 -80 3 c-49 2 -96 -3 -125
-12 -25 -7 -88 -24 -140 -36 -186 -43 -241 -45 -260 -10 -13 24 29 83 74 104
40 19 43 27 20 50 -19 20 -50 20 -85 1z"/>
<path d="M28254 3836 c-10 -40 -1 -71 22 -74 36 -5 47 21 27 62 -19 42 -40 47
-49 12z"/>
<path d="M32177 3814 c-8 -8 1 -24 14 -24 5 0 9 7 9 15 0 15 -12 20 -23 9z"/>
<path d="M32132 3768 c-14 -14 -16 -58 -2 -58 11 0 24 43 18 60 -2 7 -7 7 -16
-2z"/>
<path d="M32136 3662 c-12 -14 -13 -21 -4 -30 18 -18 25 -15 30 13 7 32 -5 40
-26 17z"/>
<path d="M32135 3521 c-3 -5 -1 -12 5 -16 5 -3 10 1 10 9 0 18 -6 21 -15 7z"/>
<path d="M32124 3469 c-2 -4 2 -11 9 -17 14 -11 50 -1 45 13 -4 10 -48 14 -54
4z"/>
<path d="M32137 3413 c-4 -3 -7 -21 -7 -39 0 -18 -4 -36 -10 -39 -5 -3 -10
-17 -10 -31 0 -18 5 -25 17 -22 11 2 17 16 20 48 3 25 9 50 14 56 10 13 -13
39 -24 27z"/>
<path d="M32122 3199 c2 -19 8 -32 13 -29 14 7 11 53 -4 58 -9 3 -11 -6 -9
-29z"/>
<path d="M32135 3081 c-3 -6 3 -15 14 -21 21 -11 37 2 26 20 -8 13 -32 13 -40
1z"/>
<path d="M32110 2990 c0 -13 5 -20 13 -17 6 2 12 10 12 17 0 7 -6 15 -12 18
-8 2 -13 -5 -13 -18z"/>
<path d="M32151 2944 c0 -11 3 -14 6 -6 3 7 2 16 -1 19 -3 4 -6 -2 -5 -13z"/>
<path d="M32120 2831 c0 -5 5 -13 10 -16 6 -3 10 -2 10 4 0 5 -4 13 -10 16 -5
3 -10 2 -10 -4z"/>
<path d="M32087 2677 c-9 -24 8 -92 23 -92 15 0 16 12 4 73 -6 33 -18 42 -27
19z"/>
<path d="M32094 2535 c-8 -20 2 -45 18 -45 8 0 13 12 13 30 0 32 -21 42 -31
15z"/>
<path d="M32070 2401 c0 -6 5 -13 10 -16 6 -3 10 1 10 9 0 9 -4 16 -10 16 -5
0 -10 -4 -10 -9z"/>
<path d="M32075 2289 c-11 -33 11 -47 35 -21 27 28 25 42 -4 42 -16 0 -27 -7
-31 -21z"/>
<path d="M32080 2211 c0 -12 29 -35 36 -28 11 10 -5 37 -21 37 -8 0 -15 -4
-15 -9z"/>
<path d="M32076 2151 c-3 -5 -6 -28 -5 -52 0 -24 0 -65 0 -91 0 -47 11 -63 23
-32 3 9 6 26 6 38 0 12 5 27 12 34 8 8 8 15 -2 27 -7 8 -10 24 -7 36 9 35 -12
66 -27 40z"/>
<path d="M32055 1824 c-8 -44 8 -66 25 -35 13 26 10 63 -6 68 -7 2 -15 -12
-19 -33z"/>
<path d="M32050 1695 c0 -28 15 -34 24 -9 10 25 7 34 -9 34 -9 0 -15 -9 -15
-25z"/>
<path d="M32044 1533 c-9 -38 -9 -50 3 -61 9 -9 10 -18 4 -26 -5 -6 -12 -29
-16 -51 -4 -22 -12 -46 -18 -52 -6 -9 -6 -18 3 -28 6 -8 9 -19 5 -24 -3 -6 -1
-29 6 -51 10 -32 17 -40 36 -40 26 0 30 12 8 30 -20 16 -19 60 1 74 13 10 14
16 3 39 -7 15 -16 27 -21 27 -4 0 -8 9 -8 20 0 12 7 20 16 20 14 0 16 8 10 49
-5 39 -3 50 9 55 9 3 15 18 15 36 0 25 -4 30 -23 30 -19 0 -24 -8 -33 -47z"/>
<path d="M32030 1159 c0 -5 5 -7 10 -4 6 3 10 8 10 11 0 2 -4 4 -10 4 -5 0
-10 -5 -10 -11z"/>
<path d="M32120 1064 c0 -8 5 -12 10 -9 6 3 10 10 10 16 0 5 -4 9 -10 9 -5 0
-10 -7 -10 -16z"/>
<path d="M32032 938 c-5 -7 -12 -22 -14 -33 -2 -16 3 -21 26 -23 23 -3 28 0
22 13 -3 9 -6 25 -6 36 0 22 -13 25 -28 7z"/>
<path d="M32008 773 c-2 -10 -1 -36 2 -58 l5 -40 22 31 c19 27 21 35 10 58
-14 30 -33 34 -39 9z"/>
<path d="M32010 640 c-11 -21 -6 -40 11 -40 5 0 9 8 9 18 0 10 5 23 12 30 9 9
8 12 -5 12 -9 0 -21 -9 -27 -20z"/>
<path d="M31990 555 c0 -8 5 -15 10 -15 7 0 7 -7 0 -20 -13 -24 -3 -67 12 -52
5 5 10 24 10 41 1 17 5 34 10 37 13 8 -1 24 -23 24 -10 0 -19 -7 -19 -15z"/>
<path d="M31994 401 c-6 -7 -5 -51 2 -51 15 0 64 36 64 47 0 11 -55 15 -66 4z"/>
<path d="M32020 300 c0 -5 5 -10 10 -10 6 0 10 5 10 10 0 6 -4 10 -10 10 -5 0
-10 -4 -10 -10z"/>
<path d="M31976 283 c-11 -11 -6 -23 9 -23 8 0 15 4 15 9 0 13 -16 22 -24 14z"/>
<path d="M31991 212 c-6 -11 -8 -22 -5 -25 10 -9 34 4 34 18 0 23 -18 27 -29
7z"/>
<path d="M31975 150 c-3 -5 -1 -10 4 -10 6 0 11 5 11 10 0 6 -2 10 -4 10 -3 0
-8 -4 -11 -10z"/>
<path d="M31960 31 c0 -6 5 -13 10 -16 6 -3 10 1 10 9 0 9 -4 16 -10 16 -5 0
-10 -4 -10 -9z"/>
</g>
</svg>
