<?xml version="1.0" standalone="no"?>
<!DOCTYPE svg PUBLIC "-//W3C//DTD SVG 20010904//EN"
 "http://www.w3.org/TR/2001/REC-SVG-20010904/DTD/svg10.dtd">
<svg version="1.0" xmlns="http://www.w3.org/2000/svg"
 width="2448.000000pt" height="3264.000000pt" viewBox="0 0 2448.000000 3264.000000"
 preserveAspectRatio="xMidYMid meet">
<metadata>
Created by potrace 1.12, written by Peter Selinger 2001-2015
</metadata>
<g transform="translate(0.000000,3264.000000) scale(0.100000,-0.100000)"
fill="#000000" stroke="none">
<path d="M1480 32425 c0 -8 9 -15 20 -15 11 0 20 7 20 15 0 8 -9 15 -20 15
-11 0 -20 -7 -20 -15z"/>
<path d="M2360 32430 c0 -5 5 -10 10 -10 6 0 10 5 10 10 0 6 -4 10 -10 10 -5
0 -10 -4 -10 -10z"/>
<path d="M4827 32434 c-11 -11 3 -24 18 -18 8 4 12 10 9 15 -6 11 -18 12 -27
3z"/>
<path d="M7714 32429 c-10 -17 13 -36 27 -22 12 12 4 33 -11 33 -5 0 -12 -5
-16 -11z"/>
<path d="M3640 32420 c0 -5 5 -10 10 -10 6 0 10 5 10 10 0 6 -4 10 -10 10 -5
0 -10 -4 -10 -10z"/>
<path d="M4370 32420 c0 -5 5 -10 10 -10 6 0 10 5 10 10 0 6 -4 10 -10 10 -5
0 -10 -4 -10 -10z"/>
<path d="M4461 32417 c-6 -8 -8 -17 -5 -20 9 -8 44 11 44 23 0 15 -26 12 -39
-3z"/>
<path d="M11605 32421 c-8 -15 3 -31 21 -31 9 0 14 7 12 17 -4 20 -24 28 -33
14z"/>
<path d="M6640 32410 c0 -5 5 -10 10 -10 6 0 10 5 10 10 0 6 -4 10 -10 10 -5
0 -10 -4 -10 -10z"/>
<path d="M150 32060 c0 -5 5 -10 10 -10 6 0 10 5 10 10 0 6 -4 10 -10 10 -5 0
-10 -4 -10 -10z"/>
<path d="M123 32023 c-14 -5 -18 -39 -5 -46 18 -11 99 -16 112 -7 23 14 -1 45
-36 46 -16 1 -36 4 -44 7 -8 3 -21 3 -27 0z"/>
<path d="M284 32006 c-18 -14 -18 -16 -2 -32 21 -22 68 -12 68 15 0 17 -18 31
-39 31 -4 0 -16 -6 -27 -14z"/>
<path d="M538 32007 c-16 -6 -28 -16 -28 -23 0 -16 126 -30 160 -18 14 6 50 6
80 2 65 -9 124 -2 140 17 19 23 -32 28 -250 25 -8 0 -28 2 -45 4 -16 3 -42 0
-57 -7z"/>
<path d="M1118 32011 c-56 -6 -77 -15 -65 -27 3 -4 42 -11 87 -17 63 -8 83 -8
93 2 9 10 7 16 -12 32 -13 10 -28 18 -35 18 -6 -1 -37 -5 -68 -8z"/>
<path d="M1336 32007 c-21 -16 -16 -32 13 -40 29 -7 48 9 35 30 -14 23 -27 26
-48 10z"/>
<path d="M1475 32013 c-38 -6 -53 -19 -38 -34 15 -15 180 -20 209 -7 44 20 26
34 -38 29 -14 -1 -29 3 -33 8 -6 11 -42 12 -100 4z"/>
<path d="M2079 32010 c-15 -4 -65 -8 -111 -8 -47 0 -95 -3 -106 -6 -11 -4 -23
-2 -27 4 -12 19 -135 11 -135 -10 0 -16 60 -32 97 -26 21 3 45 6 53 5 190 -10
350 -5 350 12 0 5 -10 9 -22 9 -13 0 -32 7 -42 15 -22 17 -20 16 -57 5z"/>
<path d="M3146 32013 c-2 -2 -66 -4 -142 -4 -151 0 -174 -3 -174 -24 0 -22 30
-26 202 -26 90 0 170 0 178 0 258 -6 1131 -5 1135 2 4 5 13 5 24 -1 10 -5 119
-9 247 -9 126 1 236 0 244 -1 16 -1 838 8 855 10 6 0 43 -2 84 -4 50 -4 84 -1
106 9 29 11 35 11 45 0 10 -12 60 -14 265 -13 140 0 271 4 292 7 21 4 57 3 80
-2 27 -5 49 -5 62 2 11 6 22 7 25 2 3 -5 666 -9 1513 -9 1393 0 2344 -5 3778
-17 308 -3 695 -5 860 -5 165 0 309 0 320 0 11 0 263 -2 560 -5 997 -9 1600
-15 1620 -16 11 -1 119 -1 240 -1 121 1 380 -1 575 -3 195 -3 483 -5 640 -5
342 0 232 1 750 -5 548 -7 1413 -14 2265 -19 363 -2 672 -7 686 -11 15 -4 29
-3 32 2 3 5 97 7 209 5 112 -2 211 -3 221 -2 37 3 126 4 532 2 231 -1 431 -1
445 0 14 1 59 0 100 0 41 -1 86 -1 100 -1 14 0 75 -1 135 -3 83 -3 114 0 127
10 12 10 21 11 36 3 24 -13 252 -7 278 7 12 7 26 7 36 1 9 -5 36 -9 60 -8 24
1 65 -4 92 -10 26 -6 58 -9 70 -6 11 3 75 7 141 9 132 5 158 11 153 35 -4 19
-54 23 -251 21 -88 -2 -132 2 -142 10 -11 9 -19 9 -28 2 -19 -16 -221 -9 -242
8 -15 12 -19 12 -29 -1 -8 -11 -28 -15 -76 -14 -36 1 -69 0 -74 -3 -5 -3 -50
-4 -100 -2 -50 1 -104 2 -121 2 -16 0 -102 -1 -190 -1 -88 -1 -185 -2 -215 -3
-30 0 -63 0 -72 1 -10 2 -46 2 -80 2 -35 0 -85 1 -113 2 -27 1 -93 1 -145 0
-52 -1 -108 -1 -125 0 -126 4 -257 -1 -265 -9 -7 -7 -28 -5 -66 8 -35 12 -61
15 -72 10 -9 -5 -91 -7 -182 -5 -244 7 -362 4 -391 -7 -20 -9 -35 -7 -70 8
-29 13 -51 17 -61 11 -19 -10 -23 -10 -423 -5 -593 9 -961 9 -974 1 -7 -4 -16
-3 -20 1 -3 5 -91 10 -196 10 -104 1 -363 3 -574 6 -358 4 -385 5 -391 22 -7
22 -25 21 -25 -1 0 -16 -11 -17 -110 -15 -60 2 -126 2 -145 1 -50 -2 -174 -2
-450 0 -305 1 -399 6 -411 18 -9 9 -19 9 -41 -3 -22 -11 -53 -13 -141 -9 -141
7 -122 7 -312 1 -132 -4 -164 -2 -184 11 -17 11 -26 12 -34 4 -14 -14 -42 -14
-65 0 -14 9 -25 8 -48 -3 -20 -11 -51 -14 -104 -11 -58 2 -328 4 -510 3 -8 0
-238 2 -510 5 -953 9 -2821 18 -3105 14 -16 0 -361 3 -765 6 -404 3 -845 5
-980 4 -135 0 -254 -1 -265 -1 -27 1 -1092 1 -1130 0 -16 0 -88 0 -160 1 -104
1 -471 -1 -1390 -7 -5 0 -536 2 -1180 4 -643 2 -1289 4 -1435 4 -237 0 -387 1
-460 3 -14 0 -47 0 -75 -1 -27 -1 -66 -1 -85 -1 -19 1 -48 1 -65 -1 -16 -1
-74 0 -127 2 -54 3 -100 3 -102 1z"/>
<path d="M372 31997 c-10 -11 -9 -17 2 -26 18 -15 60 3 53 22 -5 18 -42 20
-55 4z"/>
<path d="M926 32002 c-3 -6 -1 -14 5 -17 15 -10 25 3 12 16 -7 7 -13 7 -17 1z"/>
<path d="M974 31999 c-11 -19 25 -40 48 -28 11 6 17 16 15 22 -5 16 -53 21
-63 6z"/>
<path d="M2225 32000 c-10 -16 15 -41 39 -38 32 5 28 42 -6 46 -14 2 -29 -2
-33 -8z"/>
<path d="M2336 31998 c-28 -16 -1 -37 52 -39 141 -5 180 -3 195 9 9 8 13 20
11 27 -5 11 -26 13 -96 10 -50 -2 -92 -6 -95 -9 -3 -2 -15 -1 -27 4 -13 4 -29
4 -40 -2z"/>
<path d="M2620 31986 c0 -29 14 -35 60 -25 19 4 39 4 45 -1 17 -14 70 4 73 25
4 16 -2 17 -47 13 -29 -3 -54 -1 -57 3 -3 5 -21 9 -40 9 -29 0 -34 -3 -34 -24z"/>
<path d="M47 31994 c-11 -11 3 -24 24 -24 12 0 19 5 17 13 -5 14 -31 21 -41
11z"/>
<path d="M24390 31945 c0 -18 10 -16 -120 -19 -58 -1 -110 -5 -117 -9 -6 -4
-23 -2 -36 4 -17 8 -30 8 -43 1 -13 -7 -24 -6 -40 5 -16 10 -28 12 -41 5 -13
-7 -32 -7 -60 1 -37 10 -45 9 -64 -9 -11 -10 -30 -18 -40 -16 -12 2 -19 -3
-19 -12 0 -22 142 -37 155 -16 3 6 17 7 31 4 13 -4 31 -1 39 6 11 10 18 9 30
-4 19 -18 38 -20 64 -6 12 6 29 5 49 -2 24 -9 36 -9 55 1 20 10 30 10 61 -3
22 -9 45 -12 59 -8 25 9 72 7 105 -3 20 -7 22 -4 22 29 0 29 -4 36 -19 36 -10
0 -24 7 -31 15 -7 8 -19 15 -26 15 -8 0 -14 -7 -14 -15z"/>
<path d="M23281 31931 c-7 -5 -11 -17 -9 -27 2 -15 13 -19 45 -20 23 0 48 3
54 7 20 12 -10 42 -35 35 -11 -3 -25 -1 -31 4 -6 5 -17 5 -24 1z"/>
<path d="M23430 31919 c-31 -19 -32 -21 -14 -34 11 -7 35 -12 54 -10 19 2 43
3 53 4 14 1 18 8 15 27 -3 22 -9 27 -39 30 -23 2 -48 -4 -69 -17z"/>
<path d="M23595 31921 c-38 -8 -45 -38 -13 -50 14 -5 30 -5 41 1 11 6 30 5 50
-1 38 -13 86 -2 101 22 8 13 7 20 -4 27 -16 11 -128 11 -175 1z"/>
<path d="M5509 27379 c-12 -12 -41 -65 -65 -118 -24 -53 -55 -117 -69 -142
-14 -26 -25 -52 -25 -58 0 -6 -9 -30 -19 -54 -38 -81 -71 -201 -141 -507 -95
-415 -159 -630 -198 -662 -56 -47 -12 -136 53 -106 47 21 112 171 146 336 5
24 11 46 13 50 5 9 54 219 67 292 5 30 17 83 25 118 8 35 19 87 24 115 5 29
23 110 40 182 53 229 125 407 105 263 -33 -246 -34 -514 0 -749 38 -271 61
-356 131 -489 92 -176 226 -205 359 -79 92 87 130 187 220 574 20 88 46 193
56 232 16 56 17 77 9 93 -30 56 -75 -14 -110 -167 -61 -276 -74 -326 -105
-418 -48 -144 -69 -188 -110 -234 -69 -76 -140 -78 -204 -4 -101 114 -181 483
-181 833 0 138 26 395 50 505 6 28 14 76 17 107 5 51 3 59 -20 82 -32 32 -41
32 -68 5z"/>
<path d="M13580 26910 c-12 -12 -20 -33 -20 -55 0 -87 -63 -259 -167 -460 -76
-146 -163 -321 -214 -433 -11 -24 -22 -63 -26 -87 -5 -37 -2 -45 15 -54 27
-14 48 -6 99 41 40 35 47 38 103 38 135 0 278 52 387 139 69 56 104 120 111
203 4 56 4 57 -29 77 -113 69 -348 -45 -454 -219 -29 -48 -84 -110 -97 -110
-18 0 -6 49 24 96 37 59 168 284 215 371 78 145 156 410 133 454 -14 25 -55
24 -80 -1z m188 -702 c9 -76 -138 -173 -323 -214 -33 -7 -63 -13 -67 -14 -16
0 -7 30 15 52 13 13 28 30 33 39 17 29 129 112 189 141 44 21 72 28 105 26 41
-3 45 -6 48 -30z"/>
<path d="M16754 26828 c-28 -13 -42 -45 -50 -113 -7 -61 4 -85 40 -85 36 0 65
28 71 68 4 20 11 48 16 61 5 13 7 31 4 41 -8 24 -54 40 -81 28z"/>
<path d="M8755 26700 c-14 -22 -25 -42 -25 -45 0 -4 -9 -26 -20 -50 -11 -23
-22 -67 -26 -97 -5 -45 -3 -56 14 -71 31 -28 58 -14 78 41 9 26 29 79 45 119
42 103 38 143 -12 143 -23 0 -34 -8 -54 -40z"/>
<path d="M6594 26601 c-162 -26 -331 -168 -406 -342 -29 -67 -32 -83 -33 -179
0 -98 2 -109 30 -158 36 -66 68 -94 142 -123 52 -21 75 -23 218 -24 102 0 180
5 215 14 284 70 402 124 510 231 82 83 110 91 110 30 0 -23 -16 -84 -36 -136
-19 -53 -42 -114 -49 -137 -7 -23 -28 -80 -45 -127 -17 -47 -36 -101 -42 -119
-17 -59 -116 -253 -153 -303 -19 -26 -49 -55 -66 -63 -30 -16 -31 -16 -63 18
-18 19 -40 59 -50 90 -9 30 -26 63 -37 73 -19 17 -21 17 -37 0 -45 -45 11
-221 84 -267 26 -15 45 -20 69 -16 72 12 165 100 238 225 47 81 143 304 172
403 35 116 36 117 93 111 43 -4 59 1 118 32 77 41 250 190 274 237 16 30 64
69 86 69 8 0 13 -41 16 -122 5 -165 34 -214 112 -194 36 9 41 38 13 79 -20 29
-25 53 -30 136 -4 56 -4 132 -1 169 6 63 5 68 -20 92 l-27 24 -42 -21 c-23
-12 -68 -25 -100 -28 -106 -12 -308 -93 -347 -140 -21 -25 -37 -17 -59 28 -17
35 -20 55 -15 103 5 51 3 63 -18 93 -69 100 -239 93 -391 -16 -90 -65 -190
-181 -243 -283 -22 -44 -28 -67 -27 -117 l1 -62 -55 -7 c-76 -9 -258 1 -321
19 -60 16 -98 47 -118 94 -19 43 -18 160 1 214 21 58 107 170 161 208 131 92
310 118 352 51 18 -29 -11 -92 -65 -139 -46 -41 -155 -91 -199 -91 -32 0 -80
-25 -88 -45 -11 -29 -7 -62 9 -75 24 -20 117 -6 189 28 130 61 256 215 256
315 0 106 -128 172 -286 148z m721 -285 c26 -11 35 -22 40 -49 11 -55 -15 -92
-88 -128 -34 -17 -98 -55 -142 -84 -92 -60 -131 -81 -188 -101 -47 -17 -97
-10 -97 13 0 19 127 197 167 234 42 40 142 101 188 115 53 17 79 17 120 0z
m535 -160 c0 -7 -260 -197 -303 -221 -23 -14 -54 -25 -69 -25 -24 0 -28 4 -28
29 0 54 99 126 265 192 59 24 135 38 135 25z"/>
<path d="M18735 26570 c-13 -14 -19 -39 -20 -87 -2 -55 -10 -83 -39 -143 -20
-41 -36 -82 -36 -92 0 -9 -4 -19 -9 -23 -5 -3 -13 -19 -16 -36 -4 -17 -16 -52
-27 -78 -10 -25 -24 -57 -30 -71 -6 -14 -14 -32 -19 -40 -31 -53 -129 -261
-129 -272 0 -40 61 -51 103 -18 32 26 35 25 69 -7 22 -21 40 -28 87 -31 81 -6
166 24 273 97 105 70 153 120 184 186 12 28 23 42 23 33 1 -10 -9 -38 -21 -62
-18 -37 -19 -47 -8 -60 15 -19 46 -21 57 -3 8 12 21 44 43 107 7 19 26 64 41
100 42 96 45 120 19 153 -48 61 -98 16 -114 -103 -5 -44 -13 -80 -16 -80 -3 0
-12 15 -20 33 -30 64 -132 84 -252 47 -77 -23 -162 -62 -190 -87 -10 -9 -24
-13 -33 -10 -16 7 -21 42 -6 51 17 11 128 240 160 331 31 87 31 92 16 127 -14
34 -40 58 -63 58 -5 0 -17 -9 -27 -20z m311 -535 c4 -9 1 -28 -5 -43 -33 -79
-282 -222 -387 -222 -41 0 -104 29 -104 48 0 48 193 158 385 221 48 15 105 13
111 -4z"/>
<path d="M19292 26523 c-60 -29 -100 -111 -70 -141 26 -26 75 -14 117 28 37
37 43 40 95 40 57 0 71 8 62 38 -16 48 -135 69 -204 35z"/>
<path d="M9227 26461 c-44 -41 -44 -40 -157 -332 -73 -186 -116 -211 -105 -60
9 104 -1 131 -45 131 -46 0 -53 -25 -51 -179 1 -115 4 -140 19 -161 41 -54 79
-37 176 76 69 80 112 172 142 303 27 114 85 203 111 168 5 -6 15 -52 22 -101
6 -49 19 -102 27 -119 13 -23 14 -40 6 -84 -11 -62 -3 -107 25 -155 26 -44 73
-74 156 -100 98 -29 251 -22 327 17 57 29 70 49 47 72 -14 15 -26 15 -101 4
-186 -28 -366 24 -366 105 0 24 2 26 33 20 84 -16 117 -17 153 -6 89 28 154
91 175 171 23 87 -38 159 -137 159 -74 0 -140 -26 -192 -76 -25 -24 -49 -44
-53 -44 -5 0 -13 19 -20 43 -35 131 -43 154 -61 170 -35 30 -83 22 -131 -22z
m499 -196 c4 -8 3 -27 0 -41 -12 -48 -156 -93 -220 -68 -9 3 -16 17 -16 31 0
51 219 124 236 78z"/>
<path d="M15171 26462 c-24 -10 -50 -27 -57 -37 -33 -45 0 -115 79 -167 136
-90 207 -151 207 -181 0 -36 -154 -81 -360 -107 -52 -6 -107 -16 -122 -22 -35
-13 -45 -44 -22 -69 22 -24 108 -26 239 -4 196 32 270 59 323 119 27 31 32 45
32 87 0 84 -47 138 -183 209 -51 27 -94 66 -84 76 11 11 213 7 268 -6 30 -7
76 -23 102 -36 59 -29 71 -30 97 -4 46 46 14 91 -90 127 -64 21 -97 26 -230
29 -134 4 -161 2 -199 -14z"/>
<path d="M8404 26435 c-7 -19 -14 -38 -14 -43 0 -5 -24 -25 -52 -44 -120 -80
-228 -229 -228 -314 0 -30 25 -64 48 -64 20 0 52 39 52 63 0 38 63 147 112
193 49 46 78 56 78 27 0 -54 -38 -208 -87 -357 -26 -75 -26 -79 -8 -92 13 -9
23 -10 37 -3 50 27 110 178 128 324 25 197 23 190 48 193 30 5 51 -14 72 -64
28 -65 67 -219 85 -339 27 -169 34 -189 71 -193 41 -4 68 22 60 57 -3 14 -14
76 -25 136 -45 244 -57 295 -77 342 -8 17 -14 34 -14 38 0 4 -14 24 -30 45
-33 42 -101 80 -142 80 -16 0 -32 9 -42 25 -24 36 -54 32 -72 -10z"/>
<path d="M12105 26432 c-20 -14 -62 -79 -106 -160 -56 -106 -158 -234 -203
-256 -27 -13 -40 -14 -59 -5 -28 13 -37 35 -37 96 0 51 -13 88 -35 96 -23 9
-92 -21 -115 -50 -22 -29 -17 -51 16 -59 24 -6 28 -14 39 -76 12 -74 92 -136
152 -119 54 16 88 39 157 108 132 131 281 434 214 433 -7 0 -18 -4 -23 -8z"/>
<path d="M14218 26400 c-46 -25 -95 -85 -144 -177 -41 -78 -77 -123 -98 -123
-28 0 -49 -38 -42 -74 4 -23 2 -45 -7 -63 -46 -90 -18 -183 54 -183 33 0 98
30 118 54 22 26 -2 45 -49 39 -36 -5 -40 -3 -46 21 -4 19 2 42 21 81 23 45 45
67 136 136 124 93 147 117 184 194 23 49 24 59 13 83 -11 23 -20 27 -58 29
-29 2 -58 -4 -82 -17z m32 -111 c0 -17 -51 -79 -66 -79 -18 0 -17 4 1 40 20
38 65 66 65 39z"/>
<path d="M16851 26396 c-12 -14 -41 -115 -41 -142 0 -8 -22 -61 -49 -117 -27
-56 -59 -127 -71 -157 -11 -30 -32 -76 -46 -101 -30 -59 -30 -77 1 -91 43 -20
59 2 193 267 44 88 93 219 99 266 5 39 2 50 -16 68 -24 24 -53 27 -70 7z"/>
<path d="M14905 26393 c-37 -9 -119 -47 -166 -75 -51 -31 -169 -163 -214 -241
-17 -29 -45 -74 -63 -102 -41 -64 -40 -99 4 -103 44 -4 74 26 125 123 102 195
170 257 334 309 100 32 124 48 109 73 -11 18 -84 27 -129 16z"/>
<path d="M11176 26359 c-51 -28 -137 -116 -211 -217 -33 -45 -62 -82 -64 -82
-9 0 12 89 39 169 17 47 30 91 30 98 0 20 -30 43 -56 43 -34 0 -64 -71 -93
-220 -12 -63 -36 -154 -52 -202 -33 -93 -34 -125 -7 -142 28 -17 63 10 125
101 32 46 88 121 124 166 117 147 180 201 222 195 30 -4 33 -58 12 -190 -23
-148 -8 -218 49 -218 26 0 66 34 66 57 0 9 -7 25 -17 35 -15 17 -15 24 0 111
38 210 6 318 -92 317 -20 -1 -53 -10 -75 -21z"/>
<path d="M17409 26333 c-51 -26 -85 -62 -161 -173 l-17 -25 -21 24 c-12 14
-20 37 -20 60 0 66 -57 103 -94 62 -14 -16 -15 -24 -5 -62 7 -24 11 -71 10
-104 -3 -85 6 -123 34 -141 21 -13 27 -13 59 0 20 8 47 32 63 56 83 123 192
230 234 230 11 0 29 -16 42 -37 24 -38 30 -58 47 -143 16 -88 52 -130 99 -115
26 8 26 16 2 130 -21 104 -39 151 -77 201 -54 70 -109 80 -195 37z"/>
<path d="M12480 26339 c-14 -6 -51 -36 -83 -67 l-57 -57 -23 29 c-16 20 -30
27 -47 24 -30 -4 -45 -43 -60 -156 -6 -43 -13 -93 -16 -113 -7 -45 14 -67 53
-53 18 6 38 33 67 89 73 138 119 192 168 197 l23 3 0 -122 c0 -119 1 -123 27
-149 25 -25 28 -26 59 -13 18 7 76 55 128 107 61 59 106 95 125 99 l29 6 -6
-59 c-3 -32 -10 -80 -16 -107 -14 -61 -1 -97 34 -97 56 0 74 53 76 225 2 130
-24 166 -104 144 -33 -9 -63 -32 -141 -110 -55 -55 -103 -96 -108 -91 -8 8 -9
34 -6 137 4 115 -42 166 -122 134z"/>
<path d="M19567 26233 c-2 -5 -8 -41 -11 -81 -7 -74 -34 -150 -60 -172 -16
-12 -46 -104 -46 -139 0 -57 94 -45 131 17 12 20 41 60 64 87 34 41 55 54 106
72 35 12 64 21 66 20 5 -6 -24 -85 -43 -117 -12 -19 -25 -58 -29 -86 -6 -47
-4 -53 16 -68 35 -24 67 -20 81 9 8 18 8 32 1 48 -20 42 9 139 72 247 19 32
19 60 -1 88 -16 23 -58 30 -69 12 -3 -5 -17 -10 -31 -10 -16 0 -46 -20 -89
-60 -68 -63 -84 -70 -106 -44 -10 13 -10 20 3 42 23 39 32 96 19 121 -12 21
-64 30 -74 14z"/>
<path d="M20202 26175 c-66 -29 -101 -66 -161 -173 -89 -160 -103 -227 -50
-246 19 -6 35 -4 59 8 18 9 35 14 38 11 2 -2 -4 -34 -13 -70 -17 -62 -17 -67
-2 -83 15 -14 19 -15 32 -1 22 21 45 120 45 192 0 34 4 68 9 76 6 9 5 21 -2
32 -9 14 -9 21 1 31 6 6 12 18 12 26 0 7 14 31 32 53 23 29 38 39 52 35 32 -8
75 21 76 52 0 20 -56 72 -77 72 -10 -1 -33 -7 -51 -15z"/>
<path d="M20879 26121 c-133 -50 -217 -100 -304 -183 -91 -86 -137 -157 -119
-185 22 -35 41 -39 87 -16 38 18 46 28 55 65 6 24 24 55 39 70 66 62 253 158
309 158 21 0 25 -49 8 -98 -22 -62 -13 -99 28 -116 31 -13 86 -8 133 13 32 15
215 78 275 96 67 20 237 35 266 25 34 -13 49 -63 35 -113 -16 -54 -117 -254
-145 -287 -12 -14 -32 -41 -46 -60 -33 -48 -129 -158 -225 -255 -169 -173
-260 -275 -260 -291 0 -9 8 -22 18 -28 15 -9 27 -2 77 49 33 33 80 78 106 100
93 81 283 281 315 333 9 15 26 36 38 46 11 11 21 23 21 28 0 5 23 41 50 80 28
39 50 75 50 80 0 5 10 25 23 46 45 72 70 159 65 229 -3 55 -8 68 -36 95 -36
37 -101 57 -182 57 -67 1 -260 -47 -383 -94 -122 -48 -162 -54 -176 -26 -9 16
-8 27 4 50 8 16 19 33 25 36 14 9 12 91 -2 103 -30 23 -74 21 -149 -7z"/>
<path d="M8260 25606 c-208 -39 -455 -226 -593 -450 -99 -160 -165 -381 -182
-616 -7 -88 10 -193 40 -249 15 -30 66 -79 110 -106 27 -17 28 -19 11 -29 -37
-23 -175 -137 -195 -161 -11 -15 -30 -56 -42 -92 -20 -62 -21 -67 -5 -100 24
-50 80 -73 181 -73 98 0 143 12 220 58 86 51 95 61 95 97 0 25 -9 41 -39 68
-45 41 -93 57 -168 57 -44 0 -58 -5 -88 -31 -63 -56 -70 -102 -12 -80 34 13
123 -1 145 -23 28 -27 -2 -37 -97 -33 -77 3 -86 6 -108 31 -12 15 -23 33 -23
40 0 27 48 83 110 128 36 26 79 58 96 72 29 24 34 25 110 17 88 -8 163 -4 182
11 18 15 15 46 -5 56 -10 5 -70 15 -133 21 -81 8 -131 19 -168 36 -48 22 -56
30 -83 89 -26 55 -30 76 -31 152 -2 339 134 671 349 846 80 66 189 134 246
154 59 21 163 44 198 44 29 0 29 0 27 -56 -2 -44 1 -59 15 -68 12 -8 22 -8 35
0 20 13 75 142 67 161 -15 40 -135 53 -265 29z"/>
<path d="M19291 25466 c-19 -22 -2 -66 33 -87 18 -10 40 -35 49 -55 29 -60 49
-252 43 -401 -12 -267 -41 -384 -125 -495 -118 -155 -339 -303 -644 -428 -44
-18 -86 -43 -98 -58 l-20 -27 21 -17 c12 -10 30 -18 39 -18 34 0 305 100 385
143 273 145 442 332 487 536 32 145 53 398 44 526 -13 181 -57 320 -118 371
-32 27 -78 32 -96 10z"/>
<path d="M9471 25339 c-141 -18 -278 -60 -438 -134 -93 -43 -141 -78 -149
-109 -7 -30 19 -82 45 -89 28 -7 59 18 63 51 2 22 15 33 63 59 175 94 519 175
562 132 15 -15 -8 -61 -74 -149 -241 -320 -372 -491 -402 -526 -44 -49 -103
-131 -133 -182 -27 -48 -19 -86 25 -112 79 -49 443 -7 687 78 92 33 246 110
280 142 70 66 3 78 -119 22 -179 -82 -340 -125 -561 -148 -248 -26 -265 -14
-152 108 37 41 93 107 124 148 377 490 428 564 428 627 0 41 -35 71 -99 83
-59 11 -59 11 -150 -1z"/>
<path d="M10460 25336 c-28 -16 -145 -152 -197 -229 -62 -92 -64 -162 -4 -155
20 2 33 17 61 69 60 112 139 201 206 231 31 14 51 55 38 76 -14 22 -71 26
-104 8z"/>
<path d="M15115 24928 c-9 -13 -23 -47 -31 -75 -8 -29 -20 -55 -25 -58 -5 -4
-9 -13 -9 -21 0 -8 -30 -59 -67 -112 -37 -53 -77 -113 -90 -132 -31 -45 -29
-113 3 -118 16 -2 37 18 90 90 190 254 252 381 209 428 -24 27 -60 25 -80 -2z"/>
<path d="M10690 24866 c-173 -22 -310 -74 -368 -141 -35 -39 -39 -62 -18 -103
34 -64 82 -91 244 -132 136 -34 172 -48 172 -66 0 -29 -210 -69 -312 -59 -60
6 -67 5 -77 -13 -14 -27 -14 -34 2 -56 20 -28 88 -35 185 -21 178 27 222 43
285 103 46 44 47 69 5 109 -49 46 -82 59 -298 118 -64 18 -120 49 -120 68 0
19 79 54 178 79 70 18 117 22 243 23 164 0 189 6 189 46 0 52 -117 69 -310 45z"/>
<path d="M18562 24798 c-42 -66 -119 -174 -173 -245 -30 -38 -37 -41 -93 -48
-70 -7 -78 -11 -95 -42 -15 -29 1 -63 29 -63 25 0 25 0 -1 -49 -11 -22 -25
-72 -30 -111 -9 -63 -8 -74 7 -91 38 -42 101 -4 75 45 -19 35 -7 87 32 138 51
66 91 84 210 92 149 10 257 39 257 69 0 38 -56 45 -197 27 -125 -16 -133 2
-38 87 62 55 108 115 136 175 17 38 -9 78 -50 78 -24 0 -35 -10 -69 -62z"/>
<path d="M12079 24801 c-128 -41 -217 -113 -265 -216 -59 -126 -6 -276 115
-322 64 -25 203 -25 228 0 31 30 6 50 -82 65 -146 24 -191 64 -180 161 7 70
47 136 103 172 91 58 206 78 253 46 49 -35 115 -7 107 45 -8 60 -160 87 -279
49z"/>
<path d="M12544 24736 c-37 -17 -49 -51 -28 -83 18 -28 29 -29 61 -3 27 21 43
25 43 12 0 -4 -16 -16 -35 -27 -115 -61 -158 -252 -73 -329 30 -28 34 -28 113
-24 100 7 157 30 224 93 56 52 68 91 51 156 -40 146 -234 258 -356 205z m213
-148 c67 -71 70 -112 13 -161 -58 -49 -137 -70 -181 -47 -37 20 -13 139 36
180 19 16 86 57 96 59 3 1 19 -14 36 -31z"/>
<path d="M15388 24647 c-89 -26 -171 -103 -238 -226 l-25 -46 -82 -10 c-97
-12 -123 -29 -105 -69 14 -31 43 -39 102 -28 65 12 78 6 90 -38 21 -78 107
-114 212 -90 62 14 98 35 98 55 0 25 -35 34 -106 28 -89 -7 -144 13 -144 52 0
31 11 36 145 70 168 43 267 99 304 174 23 46 12 82 -34 111 -44 27 -152 35
-217 17z m150 -83 c53 -15 -5 -56 -159 -113 -127 -47 -149 -44 -105 14 53 69
187 119 264 99z"/>
<path d="M13375 24613 c-11 -3 -37 -18 -58 -35 l-39 -30 -28 27 c-21 20 -35
26 -53 22 -24 -7 -36 -25 -57 -92 -6 -22 -25 -59 -41 -82 -44 -62 -36 -113 18
-113 15 0 38 19 74 63 48 59 113 117 130 117 5 0 6 -29 2 -65 -11 -118 14
-120 231 -18 77 36 155 67 173 70 32 5 33 5 33 -29 0 -39 30 -74 55 -65 18 7
65 110 65 142 0 26 -25 51 -62 60 -44 11 -146 -21 -272 -85 -66 -33 -123 -57
-127 -53 -5 5 3 31 16 58 30 62 31 80 3 99 -23 16 -28 17 -63 9z"/>
<path d="M16834 24580 c-42 -30 -113 -135 -135 -200 -17 -51 -26 -58 -75 -66
-59 -8 -73 4 -67 59 4 33 1 46 -12 57 -28 23 -90 16 -156 -19 -79 -41 -87 -40
-91 11 -2 36 -7 44 -29 52 -59 20 -133 -17 -278 -141 -34 -29 -69 -53 -77 -53
-16 0 -19 35 -4 45 5 3 22 31 37 61 30 62 26 82 -20 98 -35 13 -61 -11 -78
-72 -7 -26 -33 -80 -57 -119 -37 -60 -43 -78 -38 -104 15 -79 54 -78 177 2 51
34 114 78 139 99 53 44 119 84 126 78 2 -3 0 -17 -6 -32 -14 -37 -13 -79 2
-94 19 -19 62 -14 102 13 56 38 108 63 148 70 35 7 35 6 42 -34 9 -60 38 -75
137 -73 62 1 79 -1 79 -12 0 -8 14 -26 31 -40 25 -22 41 -26 90 -26 65 0 119
21 119 46 0 18 -40 34 -89 34 -41 0 -101 17 -101 29 0 10 36 41 89 76 24 16
51 41 60 54 9 14 26 35 38 48 13 12 23 29 23 38 0 9 7 26 15 39 19 28 8 66
-27 90 -33 23 -67 19 -114 -14z m46 -129 c-6 -11 -19 -25 -30 -31 -32 -17 -26
20 8 46 29 24 40 17 22 -15z"/>
<path d="M14371 24539 c-40 -8 -139 -53 -185 -85 -32 -22 -151 -160 -198 -231
-28 -41 -53 -95 -65 -138 l-20 -70 -84 -11 c-108 -14 -252 -50 -306 -75 -66
-32 -83 -111 -27 -125 18 -5 33 2 63 29 24 22 60 41 97 51 33 9 88 26 123 36
70 22 111 25 111 10 0 -5 -31 -34 -68 -64 -69 -56 -92 -88 -92 -130 0 -41 29
-56 110 -56 45 0 70 -4 64 -9 -5 -5 -64 -26 -132 -47 -127 -39 -157 -59 -131
-90 20 -25 75 -15 228 40 206 74 268 118 225 160 -14 14 -35 17 -139 14 -68
-2 -126 0 -130 4 -13 13 7 50 38 68 23 14 42 18 68 14 34 -6 42 -2 88 41 52
49 141 188 141 221 0 27 34 112 52 130 11 12 40 16 109 18 138 4 260 59 324
146 33 45 32 75 -6 109 -52 48 -145 62 -258 40z m157 -75 c73 -20 -33 -93
-185 -128 -106 -24 -123 -22 -123 12 0 36 19 53 91 81 80 32 173 46 217 35z
m-437 -289 c-29 -76 -79 -175 -90 -175 -17 0 -21 50 -6 80 8 16 15 35 15 42 0
8 12 28 28 45 15 17 36 44 46 59 28 39 31 14 7 -51z"/>
<path d="M17765 24531 c-22 -10 -94 -49 -160 -87 -138 -80 -221 -118 -241
-110 -11 4 -3 22 31 71 62 91 57 141 -12 133 -23 -2 -33 -13 -55 -57 -15 -30
-39 -70 -52 -90 -30 -43 -46 -84 -46 -115 0 -29 39 -66 71 -66 53 0 196 62
289 125 87 59 160 91 160 69 0 -5 -16 -33 -36 -63 -20 -29 -42 -68 -49 -86
-17 -40 -9 -102 15 -115 23 -12 82 4 104 29 16 18 16 21 1 45 -16 24 -15 27
20 97 20 40 45 83 55 96 10 13 24 40 30 59 25 74 -37 106 -125 65z"/>
<path d="M4700 24513 c-25 -2 -103 -10 -175 -19 -71 -9 -172 -19 -224 -23
-104 -9 -131 -25 -131 -81 0 -43 18 -52 81 -40 107 21 366 59 440 66 117 10
117 -7 -1 -101 -129 -103 -265 -241 -278 -281 -8 -27 -8 -41 0 -51 20 -25 47
-13 105 50 32 35 112 111 178 169 131 115 190 176 207 214 15 33 -3 66 -48 88
-33 15 -55 17 -154 9z"/>
<path d="M10455 24195 c-155 -28 -173 -34 -222 -78 -21 -19 -54 -42 -73 -52
-56 -29 -106 -72 -120 -105 -10 -25 -10 -34 4 -55 19 -29 61 -41 179 -50 70
-6 93 -11 114 -29 20 -18 25 -28 19 -49 -9 -37 -65 -76 -133 -94 -66 -17 -83
-28 -83 -53 0 -36 26 -45 93 -31 176 36 280 163 217 266 -27 43 -61 56 -188
69 -84 9 -107 14 -107 26 0 26 83 60 145 60 63 0 87 13 92 50 3 23 10 26 93
41 50 8 133 21 186 27 53 6 103 14 112 18 21 8 30 34 16 50 -18 22 -192 16
-344 -11z"/>
<path d="M12245 24100 c-45 -18 -95 -101 -110 -181 -6 -30 -14 -40 -44 -54
-21 -9 -51 -15 -67 -13 -29 3 -29 4 -29 69 0 73 -13 99 -51 99 -39 0 -64 -34
-66 -87 -4 -104 6 -131 57 -159 31 -17 57 -16 135 1 20 5 28 0 42 -25 31 -54
80 -31 93 45 9 55 42 151 62 182 9 14 34 36 55 49 42 27 47 43 20 67 -20 18
-64 21 -97 7z"/>
<path d="M3699 24089 c-105 -25 -226 -95 -253 -148 -45 -85 -24 -181 38 -181
42 0 59 31 51 93 l-7 55 38 26 c56 36 128 58 182 54 70 -4 67 -27 -16 -123
-134 -156 -192 -254 -192 -324 0 -107 90 -103 355 16 157 71 304 152 316 176
13 22 -4 47 -32 47 -10 0 -114 -43 -231 -95 -336 -149 -374 -141 -212 45 171
198 215 320 128 356 -36 15 -109 17 -165 3z"/>
<path d="M17802 24054 c-29 -20 -48 -58 -57 -114 -4 -25 -16 -62 -26 -82 -25
-48 -24 -75 2 -88 27 -15 65 9 83 53 88 208 88 208 54 231 -28 20 -28 20 -56
0z"/>
<path d="M15825 24010 c-80 -9 -140 -34 -167 -70 -42 -57 17 -90 81 -46 38 26
111 46 111 31 0 -5 -8 -17 -17 -28 -12 -13 -18 -36 -18 -69 0 -41 4 -53 25
-70 22 -18 35 -20 106 -15 74 4 144 26 144 45 0 21 -29 32 -88 32 -67 0 -102
12 -102 35 0 16 61 64 113 88 45 21 57 45 32 63 -20 15 -101 16 -220 4z"/>
<path d="M19399 23975 c-109 -22 -153 -52 -163 -115 -7 -44 28 -119 64 -138
16 -8 49 -12 93 -9 56 4 78 11 125 40 70 43 94 73 95 122 1 31 -5 43 -36 71
-21 19 -47 34 -61 34 -13 0 -30 2 -38 4 -7 2 -43 -2 -79 -9z m106 -85 c16 -6
25 -16 23 -26 -5 -28 -147 -72 -188 -59 -34 11 -22 32 33 58 82 40 92 42 132
27z"/>
<path d="M7025 23839 c-38 -11 -119 -33 -180 -50 -141 -39 -170 -54 -185 -90
-14 -33 -9 -54 18 -68 15 -8 36 -2 99 28 93 45 279 108 289 98 4 -4 -33 -49
-83 -100 -94 -96 -113 -124 -132 -194 -14 -52 -4 -75 42 -103 57 -35 362 -24
439 16 23 12 29 21 26 42 l-3 27 -175 1 c-168 1 -230 10 -230 33 0 9 48 70 76
96 5 6 52 53 102 107 72 76 92 102 92 125 0 16 -5 34 -12 41 -18 18 -103 13
-183 -9z"/>
<path d="M11240 23811 c-122 -26 -281 -95 -404 -176 -26 -17 -56 -68 -56 -94
0 -6 11 -18 24 -26 31 -20 52 -10 104 47 25 28 65 54 122 81 168 78 320 123
320 95 0 -6 -24 -43 -54 -82 -82 -108 -106 -154 -106 -208 0 -61 28 -84 93
-75 116 16 398 119 433 158 14 16 16 24 7 37 -17 26 -70 18 -180 -27 -105 -42
-195 -71 -225 -71 -45 0 8 103 109 211 45 47 54 98 22 128 -29 26 -89 27 -209
2z"/>
<path d="M9366 23764 c-139 -48 -257 -120 -271 -165 -10 -29 12 -59 43 -59 19
0 39 13 65 41 41 43 184 119 224 119 13 0 23 -2 23 -5 0 -7 -51 -97 -71 -126
-10 -15 -34 -60 -54 -100 -41 -86 -46 -146 -15 -174 37 -33 98 -17 292 80 192
95 219 114 197 141 -27 33 -120 3 -261 -83 -66 -40 -130 -65 -141 -54 -9 8 26
89 66 156 14 22 41 67 61 99 82 136 15 191 -158 130z"/>
<path d="M17145 23773 c-61 -8 -218 -44 -249 -57 -31 -13 -76 -59 -76 -78 0
-12 47 -58 59 -58 6 0 25 13 43 29 44 39 238 97 238 72 0 -5 -24 -37 -52 -71
-90 -104 -98 -119 -98 -170 0 -55 21 -80 68 -80 54 0 211 68 242 105 16 19 6
45 -17 45 -10 0 -55 -12 -100 -27 -45 -15 -85 -24 -89 -21 -15 16 16 60 102
146 53 52 94 101 94 112 0 10 -12 28 -26 39 -26 21 -62 24 -139 14z"/>
<path d="M18720 23758 c-132 -28 -246 -60 -276 -79 -62 -38 -79 -105 -33 -130
26 -14 54 -4 74 27 24 36 125 81 125 55 0 -5 -16 -32 -35 -61 -43 -64 -45
-101 -7 -139 39 -40 117 -49 193 -22 105 36 145 64 133 95 -7 18 -67 22 -106
7 -49 -18 -132 -23 -152 -8 -30 22 -12 50 62 92 98 56 132 83 132 106 0 20
-42 70 -57 68 -4 -1 -28 -5 -53 -11z"/>
<path d="M15375 23686 c-124 -32 -216 -76 -244 -115 -32 -44 -40 -110 -16
-127 25 -18 50 -3 75 45 11 22 32 48 48 60 54 38 272 98 272 75 0 -14 -71
-114 -81 -114 -15 0 -61 -79 -61 -105 0 -14 8 -35 18 -46 16 -17 28 -20 69
-17 67 6 150 47 150 73 0 18 -6 20 -62 18 -35 -1 -63 1 -63 3 0 12 61 92 94
123 50 48 50 103 1 129 -43 22 -109 22 -200 -2z"/>
<path d="M13186 23604 c-76 -15 -184 -54 -234 -84 -34 -21 -72 -74 -72 -102 0
-21 35 -41 58 -34 10 4 37 24 60 45 46 43 141 84 236 100 94 17 95 2 3 -82
-90 -84 -110 -125 -79 -167 29 -38 106 -39 196 -2 74 30 99 53 79 73 -10 10
-29 8 -88 -6 -126 -32 -123 3 10 115 79 66 95 91 73 117 -35 43 -117 52 -242
27z"/>
<path d="M2880 23420 c-11 -11 -20 -26 -20 -32 -1 -7 -5 -44 -10 -83 -52 -385
-56 -591 -15 -768 17 -75 38 -107 70 -107 33 0 42 37 27 110 -31 144 -35 268
-18 483 9 114 23 240 31 278 19 89 19 104 -1 123 -21 21 -40 20 -64 -4z"/>
<path d="M15181 23244 c-185 -176 -266 -322 -240 -431 19 -79 43 -109 117
-145 l67 -33 158 2 c98 1 157 -2 157 -9 0 -5 -13 -40 -29 -76 -16 -37 -55
-143 -86 -237 -31 -93 -71 -198 -90 -232 -31 -56 -33 -64 -19 -78 9 -8 22 -15
29 -15 27 0 81 88 118 191 21 57 43 113 49 124 6 11 17 40 24 65 52 179 105
299 148 339 17 16 26 35 26 55 0 31 90 197 131 242 11 11 19 26 19 32 0 7 28
40 63 75 51 53 72 66 122 81 95 28 105 33 105 59 0 13 -9 32 -20 42 -27 25
-104 15 -172 -22 -92 -50 -261 -275 -328 -435 -17 -43 -36 -80 -40 -83 -28
-17 -185 -27 -270 -17 -104 13 -158 35 -179 73 -14 25 -12 32 19 105 40 90
115 189 219 286 40 38 71 75 71 86 0 22 -30 52 -52 52 -9 0 -61 -43 -117 -96z"/>
<path d="M21505 23313 c-93 -22 -198 -74 -267 -133 -86 -74 -181 -217 -193
-290 -2 -14 -14 -52 -26 -85 -13 -36 -27 -114 -35 -195 -15 -140 -40 -330 -50
-365 -7 -26 14 -52 48 -60 43 -11 59 25 64 147 3 57 7 110 10 118 3 8 7 59 10
112 3 54 12 114 20 133 8 20 14 52 13 73 -2 50 18 123 40 147 10 11 26 34 34
50 8 17 48 65 87 108 57 61 87 84 143 111 94 44 196 70 240 62 53 -10 87 -50
87 -102 0 -38 -5 -47 -42 -79 -33 -28 -271 -155 -292 -155 -2 0 -60 -27 -130
-60 -111 -53 -126 -63 -126 -84 0 -51 64 -59 159 -20 321 130 496 244 516 335
10 43 -3 121 -26 158 -30 49 -107 81 -194 80 -38 -1 -79 -3 -90 -6z"/>
<path d="M17275 23290 c-136 -18 -286 -75 -347 -131 -36 -35 -38 -80 -3 -114
39 -40 85 -28 85 22 0 49 182 120 333 130 66 5 87 3 87 -6 0 -7 -73 -90 -162
-185 -253 -267 -329 -361 -343 -426 -3 -16 -1 -46 4 -68 25 -93 146 -95 475
-7 179 48 236 75 236 114 0 45 -22 45 -187 7 -294 -69 -330 -76 -384 -76 -77
0 -65 34 59 165 174 185 199 212 262 285 36 41 84 96 107 122 52 57 56 92 15
131 -48 46 -103 54 -237 37z"/>
<path d="M11165 23250 c-14 -16 -19 -49 -26 -192 -9 -183 -14 -217 -55 -448
-35 -200 -35 -320 1 -334 37 -14 65 31 65 104 0 38 45 295 55 310 10 15 45
292 45 352 0 34 5 90 11 125 10 57 9 66 -6 83 -23 26 -67 26 -90 0z"/>
<path d="M3419 23235 c-66 -24 -119 -55 -135 -80 -19 -29 -11 -60 18 -76 16
-9 26 -7 47 9 66 48 115 66 184 65 89 0 109 -16 85 -66 -9 -18 -47 -78 -86
-133 -129 -184 -150 -245 -109 -323 16 -31 36 -52 67 -68 87 -46 277 -22 435
54 63 30 82 51 72 77 -9 24 -51 20 -148 -14 -60 -21 -113 -31 -179 -35 -85 -6
-98 -4 -127 14 -29 18 -33 26 -33 62 0 45 23 88 104 198 86 117 124 228 96
280 -24 46 -203 69 -291 36z"/>
<path d="M18802 23233 c-5 -10 -19 -72 -32 -138 -12 -66 -32 -160 -46 -210
-24 -93 -123 -387 -148 -440 -8 -16 -33 -89 -57 -162 -35 -109 -40 -135 -29
-148 33 -39 65 -10 95 85 27 89 63 183 99 263 8 17 22 57 31 87 8 30 29 89 45
132 45 116 84 271 112 441 9 60 9 70 -7 87 -22 25 -51 26 -63 3z"/>
<path d="M8957 23205 c-38 -8 -88 -26 -113 -40 -36 -21 -44 -31 -44 -55 0 -49
31 -57 99 -26 104 46 323 62 391 28 19 -9 36 -24 38 -33 4 -24 -83 -134 -152
-192 -64 -53 -207 -180 -263 -233 -37 -36 -43 -72 -15 -97 23 -21 62 -21 161
-3 102 20 334 46 398 46 28 0 55 -5 58 -10 12 -20 -38 -82 -148 -182 -134
-121 -272 -215 -393 -267 -74 -32 -89 -43 -92 -63 -8 -61 61 -54 205 22 134
70 254 159 376 279 168 165 201 228 144 277 -50 43 -222 44 -461 4 -64 -11
-120 -20 -124 -20 -14 0 60 67 143 130 146 109 265 253 265 321 0 35 -33 75
-83 101 -36 18 -62 22 -182 24 -93 2 -163 -1 -208 -11z"/>
<path d="M13390 23209 c-91 -15 -191 -51 -246 -89 -72 -49 -124 -113 -124
-154 0 -38 15 -54 88 -90 28 -14 52 -29 52 -32 0 -3 -27 -37 -59 -76 -100
-118 -171 -277 -171 -383 0 -62 36 -144 76 -172 122 -87 404 -32 610 120 66
48 94 94 94 152 0 43 -10 64 -59 124 -39 48 -195 169 -285 220 -31 18 -56 38
-55 44 0 7 35 41 77 77 72 61 147 99 197 100 32 0 85 38 85 60 0 28 -84 87
-143 100 -54 11 -60 11 -137 -1z m86 -82 c-40 -25 -133 -102 -186 -153 -51
-50 -58 -53 -86 -45 -51 14 -74 31 -74 51 0 55 215 154 345 158 19 1 20 1 1
-11z m-170 -360 c21 -18 77 -62 124 -96 108 -80 190 -157 190 -180 0 -86 -275
-211 -465 -211 -121 0 -147 48 -104 194 35 119 168 326 208 326 4 0 25 -15 47
-33z"/>
<path d="M22312 23200 c-83 -30 -132 -63 -197 -132 -146 -157 -268 -351 -302
-478 -42 -159 -41 -195 4 -206 31 -8 53 15 53 57 0 30 57 186 71 195 5 3 9 13
9 23 0 10 19 44 43 74 23 31 69 93 102 138 76 103 126 147 219 193 41 20 82
46 90 58 22 32 20 64 -6 82 -27 19 -21 20 -86 -4z"/>
<path d="M4315 23173 c-125 -18 -224 -63 -285 -130 -33 -35 -40 -50 -40 -82 0
-34 6 -45 43 -77 23 -20 71 -53 106 -73 87 -49 90 -56 58 -131 -30 -69 -34
-115 -13 -183 42 -140 170 -189 340 -131 56 19 132 88 142 129 9 35 -20 86
-70 128 -57 46 -179 127 -192 127 -15 0 -44 34 -44 51 0 29 183 197 244 225
32 14 60 32 63 40 10 26 -25 62 -79 82 -53 19 -212 34 -273 25z m195 -101 c0
-4 -34 -36 -75 -71 -41 -35 -89 -85 -107 -112 -21 -31 -40 -49 -53 -49 -11 0
-55 27 -99 60 -43 32 -83 61 -89 63 -20 6 13 45 55 65 24 12 75 27 113 36 74
15 255 21 255 8z m-141 -407 c31 -25 85 -66 121 -93 84 -61 89 -85 25 -112
-60 -26 -140 -26 -181 -1 -43 26 -69 94 -61 161 6 48 21 90 34 90 3 0 31 -20
62 -45z"/>
<path d="M6489 23125 c-107 -39 -213 -137 -363 -336 -91 -120 -127 -194 -134
-276 -8 -110 48 -173 182 -203 109 -24 318 25 499 116 60 31 167 129 167 154
0 78 -217 151 -358 121 -129 -29 -233 -114 -273 -224 -13 -37 -27 -67 -32 -67
-18 0 -67 32 -77 49 -17 33 -11 103 14 156 43 93 226 317 298 367 22 15 64 32
93 39 63 14 95 39 95 74 0 42 -45 55 -111 30z m122 -525 c114 -21 136 -46 72
-79 -69 -35 -309 -111 -359 -113 -46 -3 -49 -2 -52 24 -4 32 43 88 104 124 33
19 121 46 175 53 4 1 31 -4 60 -9z"/>
<path d="M11731 23101 c-11 -11 -25 -39 -32 -63 -6 -24 -33 -90 -59 -148 -61
-135 -80 -182 -126 -310 -21 -58 -44 -115 -52 -127 -11 -18 -12 -35 -3 -93 14
-90 31 -123 79 -155 71 -47 172 -50 253 -9 66 33 147 95 171 130 115 166 61
272 -142 282 -70 3 -95 0 -138 -17 -29 -12 -55 -21 -57 -21 -18 0 9 68 105
260 61 122 110 230 110 239 0 46 -74 67 -109 32z m158 -606 c21 -10 31 -23 31
-39 0 -22 -42 -90 -71 -112 -42 -33 -136 -76 -179 -81 -45 -5 -51 -3 -79 25
-28 27 -31 37 -31 90 0 66 9 80 75 108 81 36 196 40 254 9z"/>
<path d="M9870 23054 c-66 -10 -138 -28 -162 -40 -55 -28 -28 -124 34 -124 10
0 35 15 56 34 37 34 41 35 147 41 118 8 211 -4 252 -30 23 -16 23 -16 6 -46
-10 -17 -62 -69 -116 -116 -210 -184 -299 -301 -300 -393 -1 -90 40 -126 169
-141 206 -26 467 43 412 108 -13 16 -51 15 -188 -6 -85 -14 -195 -12 -245 3
-36 10 -40 15 -43 46 -2 30 7 47 63 118 37 45 112 123 168 173 155 139 197
192 197 246 -1 59 -59 97 -179 119 -70 12 -211 16 -271 8z"/>
<path d="M2147 23041 c-62 -5 -82 -10 -93 -25 -20 -28 -18 -80 6 -101 16 -15
26 -16 67 -6 123 27 212 33 399 26 140 -5 194 -4 199 5 12 20 -5 59 -33 74
-58 30 -327 43 -545 27z"/>
<path d="M7191 22992 c-48 -26 -159 -159 -167 -200 -9 -46 11 -105 46 -141 49
-49 145 -91 207 -91 80 0 164 48 149 85 -5 13 -17 14 -70 9 -56 -6 -71 -3
-122 20 -123 56 -135 99 -51 180 29 28 65 59 80 69 33 22 35 51 5 71 -28 20
-36 20 -77 -2z"/>
<path d="M7589 22925 c-46 -25 -85 -124 -145 -370 -65 -267 -73 -325 -51 -343
25 -21 52 1 75 60 22 56 34 96 106 347 32 110 55 169 80 207 40 60 43 75 20
98 -19 19 -50 20 -85 1z"/>
<path d="M22735 22823 c-144 -34 -243 -105 -301 -215 -20 -40 -24 -61 -24
-135 0 -85 1 -89 33 -127 31 -36 38 -40 94 -44 34 -2 77 1 98 8 46 15 167 83
218 123 21 16 41 27 44 24 3 -4 8 -46 12 -95 9 -133 43 -169 133 -141 58 19
59 49 3 67 -22 7 -44 21 -50 30 -21 37 -33 86 -28 117 3 18 0 42 -6 53 -8 15
-8 23 0 27 6 4 8 22 4 45 -6 34 -3 43 28 77 19 21 39 48 46 60 40 78 -32 138
-91 76 -36 -40 -47 -65 -53 -123 -4 -47 -9 -55 -71 -113 -77 -72 -104 -88
-197 -117 -73 -23 -98 -21 -136 10 -20 17 -22 25 -15 50 16 52 85 136 138 167
28 17 83 43 121 57 64 25 105 55 105 77 0 5 -9 18 -20 29 -19 19 -43 23 -85
13z"/>
<path d="M23745 22800 c-134 -21 -247 -96 -300 -199 -25 -50 -32 -179 -11
-216 43 -80 106 -120 248 -158 66 -17 109 -22 208 -21 120 1 145 5 329 51 14
3 39 15 56 27 18 12 71 46 118 76 83 53 86 56 87 93 0 42 -7 45 -43 17 -14
-11 -29 -20 -34 -20 -5 0 -29 -13 -54 -28 -33 -21 -53 -27 -79 -24 -29 3 -40
-1 -63 -27 -19 -22 -36 -31 -57 -31 -17 0 -67 -10 -113 -21 -77 -20 -90 -21
-212 -10 -71 7 -134 16 -140 20 -5 4 -43 18 -83 31 -111 36 -135 81 -91 165
31 60 57 83 126 116 55 26 157 59 183 59 5 0 15 -12 22 -27 7 -15 21 -29 31
-31 29 -6 67 36 67 74 0 64 -86 101 -195 84z"/>
<path d="M24355 22726 c-27 -13 -69 -43 -92 -68 l-43 -43 4 -70 c3 -39 5 -79
5 -89 1 -27 16 -10 30 36 7 20 22 49 33 64 20 25 148 94 175 94 9 0 13 16 13
50 l0 50 -37 0 c-21 0 -60 -11 -88 -24z"/>
<path d="M24260 22176 c0 -29 8 -41 48 -75 42 -37 52 -41 92 -39 40 3 45 6 45
28 0 16 -10 31 -32 45 -143 91 -153 93 -153 41z"/>
<path d="M23230 22139 c-7 -11 -9 -28 -6 -36 10 -25 -13 -130 -51 -238 -63
-179 -77 -261 -47 -286 24 -20 45 0 61 57 27 95 75 239 83 249 15 18 61 207
54 227 -15 48 -74 65 -94 27z"/>
<path d="M3920 22093 c-52 -1 -160 -8 -240 -14 -80 -6 -204 -14 -277 -18 -108
-5 -135 -10 -152 -25 -28 -26 -26 -50 6 -76 20 -16 36 -20 58 -16 16 3 73 10
125 15 52 6 154 17 225 26 90 12 262 19 562 23 453 7 472 9 447 50 -9 13 -32
19 -100 24 -100 7 -509 14 -654 11z"/>
<path d="M21657 22026 c-34 -34 -87 -252 -87 -357 0 -110 63 -179 164 -179 58
0 137 42 224 118 37 33 86 71 110 86 50 31 71 68 53 90 -10 12 -4 25 33 70 44
54 51 86 20 86 -7 0 -60 -46 -116 -101 -134 -132 -173 -163 -240 -193 -72 -32
-121 -41 -147 -27 -29 16 -26 40 14 127 19 41 35 78 35 83 0 5 11 33 25 63 26
56 24 98 -6 134 -15 18 -64 18 -82 0z"/>
<path d="M22637 21959 c-9 -5 -21 -7 -26 -4 -9 5 -58 -6 -234 -55 -63 -18
-177 -81 -177 -99 0 -4 -8 -16 -19 -27 -10 -11 -24 -31 -31 -43 -10 -20 -9
-26 9 -45 12 -12 21 -30 21 -38 0 -24 62 -58 105 -58 49 0 143 58 196 122 27
32 53 51 79 59 22 7 51 25 66 40 26 27 29 28 46 12 11 -10 18 -30 18 -53 0
-68 71 -89 160 -49 69 31 112 67 108 92 -4 27 -25 27 -121 2 -59 -16 -71 -16
-94 -4 -31 17 -42 44 -33 84 14 62 -22 94 -73 64z m-158 -175 c-27 -33 -143
-81 -209 -87 -59 -5 -63 -4 -45 10 37 27 120 66 190 89 69 22 89 18 64 -12z"/>
<path d="M6312 21930 c-100 -14 -151 -52 -138 -103 8 -32 36 -35 84 -11 51 25
174 32 437 23 492 -15 891 -21 930 -12 30 7 41 14 43 30 6 42 -23 46 -378 55
-184 4 -355 10 -380 13 -89 10 -536 14 -598 5z"/>
<path d="M16847 21840 c-99 -25 -135 -44 -143 -75 -15 -60 43 -69 161 -25 53
20 85 24 282 29 226 6 253 11 240 45 -12 31 -61 38 -262 42 -174 3 -210 1
-278 -16z"/>
<path d="M23460 21845 c-10 -12 -11 -50 -7 -158 9 -190 14 -209 57 -224 51
-17 92 -16 143 6 59 25 186 135 203 176 14 35 9 71 -11 79 -16 6 -58 -34 -89
-84 -12 -19 -31 -36 -41 -38 -11 -2 -39 -13 -62 -23 -47 -21 -85 -24 -114 -9
-23 13 -26 77 -4 106 22 29 20 146 -3 167 -23 21 -56 22 -72 2z"/>
<path d="M24113 21821 c-33 -16 -71 -43 -84 -60 -18 -25 -27 -29 -51 -24 -20
4 -35 0 -48 -12 -27 -24 -25 -47 5 -75 14 -13 25 -33 25 -46 0 -44 24 -47 80
-9 28 19 56 35 61 35 6 0 42 18 82 41 137 77 132 73 135 112 3 31 -1 38 -27
51 -46 24 -108 20 -178 -13z"/>
<path d="M11485 21809 c-212 -21 -307 -52 -313 -100 -5 -42 21 -55 76 -40 141
39 231 50 470 60 139 6 175 10 189 23 23 23 10 45 -34 57 -43 12 -269 12 -388
0z"/>
<path d="M9435 21790 c-460 -6 -477 -8 -483 -62 -2 -20 4 -31 22 -43 21 -14
35 -15 98 -6 40 6 208 13 373 16 517 9 673 32 625 90 -10 12 -35 15 -114 13
-55 -1 -290 -4 -521 -8z"/>
<path d="M13344 21789 c-135 -8 -280 -31 -314 -49 -29 -16 -43 -46 -30 -69 14
-27 44 -35 83 -22 99 33 209 43 502 48 181 3 305 9 313 15 20 17 14 48 -12 58
-29 11 -268 31 -350 29 -34 -1 -120 -6 -192 -10z"/>
<path d="M17953 21739 c-20 -21 -16 -67 7 -79 11 -6 73 -15 138 -21 64 -5 144
-14 177 -19 33 -5 139 -14 235 -20 96 -6 191 -12 210 -15 95 -13 227 -16 253
-6 38 15 32 41 -13 63 -35 17 -293 48 -396 48 -28 0 -140 11 -249 25 -283 35
-347 40 -362 24z"/>
<path d="M4093 21728 c-6 -7 -23 -58 -38 -113 -14 -55 -32 -122 -40 -150 -40
-142 -57 -313 -76 -768 -10 -260 -10 -280 7 -298 45 -50 70 -7 83 146 6 66 15
183 21 260 35 487 41 523 132 789 l30 88 -19 27 c-23 29 -82 41 -100 19z"/>
<path d="M15065 21684 c-16 -2 -77 -9 -135 -15 -127 -13 -167 -24 -175 -50 -8
-25 2 -56 20 -63 8 -3 77 3 152 14 76 11 211 24 300 30 89 6 174 15 188 20 34
13 33 47 -1 60 -23 9 -278 12 -349 4z"/>
<path d="M21287 21642 c-30 -33 -17 -61 42 -92 22 -11 27 -10 42 9 14 18 16
27 7 52 -17 48 -62 63 -91 31z"/>
<path d="M24416 21553 c-25 -25 -46 -51 -46 -58 0 -36 66 -48 93 -17 18 20 25
122 8 122 -5 0 -30 -21 -55 -47z"/>
<path d="M23978 21503 c-3 -75 4 -98 44 -147 48 -61 102 -93 192 -113 66 -15
107 -12 194 13 7 2 22 25 34 51 19 43 19 50 7 85 -16 45 -30 48 -44 10 -24
-64 -32 -71 -71 -60 -20 5 -58 7 -83 3 -38 -5 -55 -2 -82 14 -19 12 -40 24
-48 28 -29 13 -71 69 -77 101 -4 23 -14 36 -31 43 -34 13 -33 13 -35 -28z"/>
<path d="M7092 21463 c-5 -10 -12 -67 -15 -128 -6 -93 -48 -443 -87 -715 -25
-177 -53 -321 -86 -441 -37 -137 -40 -195 -12 -213 34 -21 51 6 99 155 49 149
81 290 98 419 48 370 74 558 87 630 8 47 17 127 21 178 5 80 4 95 -12 112 -23
26 -81 27 -93 3z"/>
<path d="M9486 21390 c-176 -31 -329 -188 -381 -389 -22 -87 -22 -224 0 -292
59 -178 409 -335 700 -315 166 11 288 58 359 136 63 70 70 93 71 220 0 125
-13 181 -66 275 -68 122 -143 175 -245 175 -59 0 -59 0 -87 44 -39 62 -108
123 -154 135 -59 16 -143 21 -197 11z m167 -94 c62 -26 127 -120 127 -186 0
-40 39 -80 78 -80 38 0 52 17 52 61 0 46 11 54 48 35 77 -40 145 -155 167
-284 19 -111 10 -190 -26 -236 -98 -125 -420 -156 -656 -62 -194 76 -253 148
-253 304 0 147 66 309 153 375 100 76 230 107 310 73z"/>
<path d="M16880 21327 c-80 -28 -59 -108 61 -228 86 -88 133 -117 155 -98 8 6
14 15 14 19 0 5 -30 31 -67 58 -82 61 -115 103 -111 140 8 69 114 9 161 -91
56 -117 71 -177 72 -280 l0 -98 -35 -29 c-47 -39 -77 -44 -149 -25 -73 19
-233 103 -280 148 -77 73 -104 131 -85 182 10 24 62 47 111 48 36 0 50 -5 76
-31 58 -56 117 -60 117 -8 0 29 -86 112 -127 123 -15 4 -59 8 -98 8 -58 0 -78
-5 -116 -27 -56 -33 -74 -70 -66 -138 15 -128 110 -229 317 -334 114 -59 189
-80 253 -72 140 19 203 121 177 292 -31 201 -114 352 -229 412 -70 37 -107 44
-151 29z"/>
<path d="M17955 21162 c-47 -22 -95 -75 -95 -104 0 -40 24 -100 47 -118 12
-10 69 -37 125 -60 57 -23 128 -53 159 -66 116 -49 180 -40 165 23 -4 16 -11
46 -15 68 -25 120 -71 190 -160 242 -59 35 -168 42 -226 15z m230 -98 c24 -16
71 -91 62 -100 -2 -2 -21 2 -43 10 -21 8 -82 19 -135 25 -150 17 -162 29 -68
69 63 26 140 25 184 -4z"/>
<path d="M13297 21133 c-18 -3 -35 -15 -45 -32 l-16 -28 -70 25 c-140 49 -308
24 -365 -56 -12 -17 -26 -56 -32 -87 -35 -190 158 -346 551 -446 383 -98 552
4 450 270 -90 233 -293 385 -473 354z m140 -93 c92 -41 192 -164 233 -287 37
-110 17 -175 -58 -189 -101 -19 -366 43 -537 125 -146 71 -205 138 -205 231 0
73 59 110 176 110 78 -1 131 -26 180 -86 50 -63 53 -65 94 -62 49 4 53 42 11
91 -37 41 -37 44 -8 68 28 24 61 23 114 -1z"/>
<path d="M14752 21124 c-32 -22 -28 -57 13 -92 30 -27 56 -36 125 -45 21 -3
80 -123 80 -162 0 -72 -64 -92 -215 -70 -179 27 -345 109 -345 172 0 33 28 43
120 43 l81 0 59 -56 c50 -48 63 -55 92 -52 28 3 33 7 36 32 3 24 -6 38 -52 82
-79 74 -144 97 -256 92 -160 -8 -220 -67 -176 -173 40 -96 204 -188 401 -226
168 -32 243 -23 314 37 46 40 55 81 33 164 -23 90 -112 201 -194 243 -61 31
-85 33 -116 11z"/>
<path d="M11313 21112 c-108 -38 -168 -100 -214 -222 -17 -42 -22 -78 -22
-150 -1 -148 39 -230 147 -300 162 -107 464 -144 666 -83 97 30 154 69 198
138 23 35 26 51 26 130 1 107 -24 196 -81 295 -42 71 -119 151 -169 175 -45
21 -107 19 -127 -3 -35 -39 -14 -72 47 -72 34 0 46 -6 87 -49 112 -117 176
-354 119 -446 -24 -38 -105 -78 -198 -96 -93 -18 -277 -6 -378 23 -155 46
-216 103 -235 221 -36 223 125 407 307 352 38 -11 62 -28 105 -76 47 -50 61
-60 84 -57 61 7 58 63 -6 127 -91 90 -247 131 -356 93z"/>
<path d="M23242 20851 c-28 -10 -60 -25 -70 -33 -9 -8 -25 -18 -35 -21 -12 -5
-17 -15 -15 -29 3 -20 11 -24 69 -31 65 -9 67 -8 122 27 31 20 57 43 57 51 0
15 -46 55 -64 55 -6 -1 -35 -9 -64 -19z"/>
<path d="M21439 20673 c-47 -46 -50 -52 -59 -118 -5 -38 -14 -94 -21 -123
l-12 -52 -37 40 c-20 22 -43 40 -51 40 -8 0 -19 10 -24 21 -11 24 -73 49 -121
49 -47 0 -122 -29 -143 -56 -14 -18 -21 -49 -26 -118 -8 -101 6 -172 45 -238
35 -60 174 -128 261 -128 100 0 269 63 269 100 0 29 -24 35 -84 23 -63 -13
-70 -10 -83 30 -11 38 10 120 58 225 16 34 29 70 29 80 0 9 11 35 24 57 13 22
34 59 46 82 11 23 32 49 45 57 46 30 26 76 -33 76 -26 0 -44 -10 -83 -47z
m-255 -241 c23 -14 36 -37 64 -117 20 -55 36 -121 37 -147 0 -25 7 -53 13 -61
19 -23 -1 -30 -61 -22 -139 18 -177 49 -201 164 -9 41 -13 86 -9 100 7 34 40
70 78 87 39 17 45 17 79 -4z"/>
<path d="M21832 20608 c-47 -51 -33 -108 26 -108 40 0 70 26 78 67 5 29 3 39
-11 50 -28 20 -69 16 -93 -9z"/>
<path d="M23380 20485 c-9 -11 -11 -40 -6 -106 3 -51 4 -106 1 -123 -6 -30 -7
-31 -63 -31 -71 0 -175 -32 -203 -61 -26 -27 -19 -56 17 -72 35 -16 49 -15 94
8 47 24 83 26 100 5 17 -21 37 -19 84 9 23 13 67 27 101 31 136 16 142 85 7
85 -75 0 -92 8 -92 42 0 18 9 38 25 52 21 20 25 32 25 83 0 45 -4 64 -18 76
-23 21 -56 22 -72 2z"/>
<path d="M22846 20471 c-15 -16 -16 -32 -10 -117 8 -116 -5 -172 -61 -263 -19
-32 -35 -62 -35 -67 0 -4 -7 -15 -16 -25 -14 -15 -13 -18 11 -37 15 -12 34
-18 45 -15 29 8 79 71 91 115 5 20 14 40 19 43 6 3 10 16 10 28 0 13 9 40 20
62 16 32 20 59 20 147 0 95 -2 110 -20 128 -25 25 -52 26 -74 1z"/>
<path d="M22265 20451 c-97 -32 -222 -139 -244 -208 -20 -61 -9 -90 39 -104
37 -11 45 -10 117 23 43 20 90 39 105 42 14 3 33 9 42 12 13 5 16 -1 16 -27 0
-19 -5 -50 -10 -69 -6 -19 -22 -75 -35 -125 -45 -167 -132 -372 -175 -410 -35
-32 -54 -74 -39 -91 13 -16 52 -18 79 -4 10 5 33 36 51 67 18 32 38 65 44 73
15 18 41 88 102 270 25 74 50 145 56 157 5 12 7 31 4 43 -3 12 1 38 10 58 21
52 20 117 -3 143 -15 16 -26 19 -54 14 -46 -8 -155 -42 -180 -55 -11 -6 -31
-8 -45 -4 l-26 6 35 24 c19 13 72 43 118 67 45 25 84 52 86 61 8 38 -37 56
-93 37z"/>
<path d="M21842 20408 c-5 -7 -21 -46 -33 -86 -16 -48 -37 -87 -61 -115 -21
-23 -40 -50 -44 -60 -9 -28 14 -47 57 -47 37 0 42 4 74 55 19 30 35 56 35 59
0 3 14 35 31 71 21 44 28 72 23 87 -10 34 -24 48 -49 48 -12 0 -27 -6 -33 -12z"/>
<path d="M23866 20219 c-44 -6 -67 -16 -88 -36 -37 -36 -36 -63 6 -90 55 -36
146 -176 146 -226 0 -33 -20 -43 -103 -52 -70 -8 -119 -42 -101 -72 31 -51
123 -54 216 -8 69 34 84 61 74 142 -7 63 -47 131 -87 150 -14 7 -34 22 -44 33
-32 35 -10 53 87 70 112 20 138 40 100 78 -21 21 -103 25 -206 11z"/>
<path d="M23293 20043 c-15 -21 -63 -73 -106 -116 -85 -85 -95 -114 -45 -131
44 -15 82 9 133 83 40 59 65 130 65 187 0 24 -18 15 -47 -23z"/>
<path d="M1904 19714 c-63 -42 -102 -83 -172 -184 -70 -99 -160 -239 -185
-287 -123 -236 -307 -609 -307 -622 0 -43 65 -56 98 -20 11 11 43 75 72 142
159 369 353 715 481 861 77 87 99 83 99 -16 0 -51 -33 -393 -60 -618 -15 -130
-13 -384 4 -425 30 -70 91 -74 152 -11 40 42 70 95 217 376 64 124 147 265
218 371 37 56 140 159 158 159 6 0 14 -12 17 -26 11 -45 -3 -363 -22 -497 -19
-138 -16 -159 25 -165 12 -2 28 1 35 7 29 24 75 370 76 564 0 130 -10 165 -55
185 -62 28 -120 7 -209 -76 -48 -46 -175 -215 -217 -290 -18 -31 -59 -102 -92
-157 -57 -94 -147 -266 -147 -280 0 -14 -62 -95 -72 -95 -17 0 -3 293 22 480
68 499 70 580 16 627 -38 32 -101 31 -152 -3z"/>
<path d="M4210 19356 c-120 -42 -218 -160 -264 -316 -59 -198 -72 -547 -24
-647 16 -33 61 -52 86 -37 24 16 26 58 7 142 -14 58 -16 101 -12 205 14 358
106 548 285 588 41 9 55 8 104 -11 69 -26 168 -101 205 -155 31 -46 35 -98 9
-137 -21 -32 -95 -71 -269 -139 -76 -30 -147 -62 -158 -72 -52 -48 -3 -101
206 -226 171 -103 263 -162 333 -214 41 -31 52 -45 52 -68 0 -24 -7 -31 -46
-48 -87 -39 -206 -56 -394 -56 -185 0 -235 8 -399 62 -60 20 -79 22 -98 14
-35 -16 -27 -52 17 -73 51 -25 174 -64 265 -85 114 -26 404 -25 530 1 130 27
193 60 223 118 l24 46 -20 44 c-10 23 -40 62 -66 86 -57 53 -270 193 -397 262
-103 56 -125 73 -115 89 4 6 48 24 99 39 330 104 416 242 259 420 -107 122
-219 182 -340 182 -37 -1 -83 -7 -102 -14z"/>
<path d="M3309 19326 c-31 -7 -72 -23 -92 -35 -71 -43 -97 -152 -57 -239 23
-50 191 -227 334 -350 92 -80 136 -131 136 -159 0 -35 -91 -87 -168 -98 -47
-6 -57 -4 -90 18 -51 36 -85 42 -106 22 -33 -34 -1 -82 77 -115 75 -32 177
-25 269 19 85 40 118 80 118 143 0 64 -41 119 -179 242 -222 198 -310 303
-311 373 0 39 46 81 103 93 81 16 190 -10 228 -56 8 -9 29 -23 47 -31 45 -19
72 -4 72 41 0 65 -91 118 -230 135 -46 6 -87 11 -90 10 -3 -1 -30 -7 -61 -13z"/>
<path d="M17952 18978 c-17 -17 -15 -47 3 -54 37 -15 19 -39 -198 -271 -92
-99 -188 -206 -213 -239 -187 -244 -204 -273 -204 -360 0 -103 47 -162 163
-202 177 -62 437 -51 717 30 114 33 130 41 130 69 0 39 -50 37 -275 -9 -108
-22 -156 -26 -290 -26 -175 -1 -238 13 -311 69 -30 23 -34 31 -34 74 0 33 6
56 20 74 11 14 20 28 20 31 0 5 59 91 100 145 40 52 216 248 310 346 201 207
229 257 175 310 -27 27 -91 35 -113 13z"/>
<path d="M18770 18681 c-124 -25 -178 -45 -223 -82 -26 -21 -37 -38 -37 -57 0
-31 33 -108 58 -136 25 -28 167 -118 289 -183 116 -61 243 -152 285 -201 14
-17 34 -51 43 -75 15 -41 15 -47 1 -75 -9 -17 -31 -43 -50 -57 -53 -40 -217
-95 -305 -102 -75 -5 -76 -5 -104 26 -42 47 -87 37 -87 -20 0 -39 35 -77 83
-90 62 -18 203 -16 264 3 94 30 210 97 257 149 70 77 71 142 5 240 -71 106
-167 178 -410 308 -156 84 -232 147 -227 188 2 22 12 29 58 45 134 45 376 61
607 39 101 -10 140 -28 149 -70 13 -52 55 -76 93 -52 25 16 5 96 -31 126 -81
68 -156 84 -418 90 -173 4 -220 1 -300 -14z"/>
<path d="M20155 18463 c-45 -10 -130 -45 -159 -65 -38 -27 -166 -149 -166
-158 0 -4 -15 -33 -34 -65 -19 -31 -42 -82 -51 -113 -9 -31 -21 -67 -26 -80
-5 -13 -9 -33 -9 -45 0 -13 -7 -33 -16 -45 -19 -27 -84 -253 -84 -292 0 -54
76 -81 105 -37 8 13 30 66 48 119 25 71 45 109 76 144 50 58 50 78 -2 82 -58
5 -59 21 -7 122 10 19 34 67 54 107 59 118 157 200 285 239 150 45 429 -14
618 -132 79 -50 193 -197 170 -220 -15 -15 -166 -24 -447 -24 -446 -2 -537
-14 -561 -78 -14 -36 43 -114 161 -221 52 -47 129 -117 170 -156 41 -38 110
-96 153 -128 52 -39 77 -65 77 -78 0 -17 -5 -20 -27 -15 -16 2 -53 8 -84 11
-95 10 -436 102 -501 134 -66 34 -109 39 -127 17 -24 -28 22 -70 119 -109 155
-64 235 -87 472 -137 151 -32 212 -36 268 -17 53 18 51 46 -7 93 -26 22 -74
68 -108 104 -132 142 -211 219 -322 315 -64 55 -123 110 -131 122 -13 21 -12
23 14 33 18 7 163 11 408 11 391 0 459 5 529 40 33 17 37 23 37 58 0 76 -101
219 -210 294 -96 67 -258 133 -393 161 -70 15 -244 20 -292 9z"/>
<path d="M11937 18062 c-34 -36 -100 -178 -125 -272 -36 -133 -91 -411 -107
-540 -19 -156 -19 -221 0 -266 13 -31 18 -35 47 -32 37 3 33 -11 57 229 11
115 34 240 55 304 8 22 19 69 26 105 12 69 73 284 94 335 20 48 29 122 16 145
-15 27 -31 25 -63 -8z"/>
<path d="M12425 17854 c-11 -3 -37 -10 -58 -15 -42 -11 -120 -77 -143 -120
-26 -51 -13 -99 26 -99 9 0 33 18 54 39 49 51 106 65 248 63 110 -1 177 -10
303 -38 67 -16 152 -55 167 -78 32 -47 -35 -115 -346 -351 -200 -151 -247
-233 -175 -304 17 -17 42 -34 56 -37 57 -15 227 5 361 41 165 44 212 66 212
100 0 41 -37 42 -199 5 -181 -41 -337 -52 -348 -25 -8 22 27 54 149 137 184
127 361 284 396 355 35 69 36 93 3 145 -24 38 -44 53 -113 87 -126 63 -253 91
-428 96 -80 2 -154 2 -165 -1z"/>
<path d="M1695 17786 c-40 -18 -216 -194 -287 -287 -121 -159 -306 -482 -315
-549 -6 -46 8 -70 42 -70 35 0 60 29 85 100 66 192 392 700 449 700 16 0 16 0
-44 -183 -98 -298 -113 -411 -63 -464 28 -30 87 -31 165 -2 51 19 77 41 224
188 91 91 192 199 225 240 62 78 150 159 160 148 4 -3 -8 -41 -26 -84 -42 -99
-101 -283 -136 -424 -30 -119 -27 -161 12 -167 32 -5 53 29 74 114 38 157 147
480 193 571 35 68 35 107 2 129 -33 22 -55 12 -126 -54 -30 -28 -78 -69 -108
-93 -30 -23 -134 -122 -231 -219 -274 -274 -339 -321 -356 -255 -8 33 26 168
98 390 60 186 69 242 42 269 -19 19 -39 20 -79 2z"/>
<path d="M13468 17660 c-51 -27 -78 -65 -78 -109 0 -43 20 -65 200 -213 63
-52 121 -102 128 -110 11 -14 7 -23 -27 -62 -127 -147 -130 -249 -12 -358 59
-54 137 -90 228 -104 96 -15 223 58 223 128 0 58 -30 129 -89 211 -63 89 -118
142 -167 163 -19 8 -34 18 -34 22 0 13 77 65 145 100 33 17 75 46 94 66 34 35
34 36 16 56 -10 11 -26 20 -35 20 -32 0 -141 -62 -195 -111 -64 -59 -66 -58
-156 27 -31 29 -82 65 -113 80 -56 26 -83 55 -71 74 11 18 92 10 249 -25 86
-19 174 -35 196 -35 54 0 92 16 88 38 -5 26 -87 76 -164 100 -201 62 -358 78
-426 42z m413 -596 c74 -84 122 -166 123 -212 l1 -37 -50 -3 c-72 -5 -157 31
-207 88 -38 42 -39 46 -33 95 10 73 70 155 101 137 6 -4 35 -35 65 -68z"/>
<path d="M10563 17614 c-7 -3 -17 -21 -23 -40 -10 -29 -9 -39 4 -59 15 -23 69
-45 112 -45 12 0 104 -16 205 -36 157 -31 199 -36 291 -32 87 3 110 7 127 22
25 22 25 26 8 49 -9 13 -41 22 -115 32 -56 8 -140 23 -185 34 -45 11 -127 29
-182 40 -55 11 -116 25 -135 31 -36 10 -86 12 -107 4z"/>
<path d="M3640 17413 c-170 -14 -353 -79 -457 -162 -60 -48 -104 -127 -105
-189 0 -52 38 -132 96 -202 69 -82 75 -130 16 -130 -32 0 -78 20 -119 51 -28
23 -74 25 -91 4 -18 -22 -2 -72 31 -96 91 -65 240 -63 308 3 54 52 40 103 -57
218 -113 133 -110 206 11 298 89 68 155 93 327 123 130 23 157 20 166 -17 5
-21 -29 -242 -43 -281 -3 -6 -35 -21 -71 -32 -91 -27 -140 -77 -147 -147 -6
-59 43 -262 66 -277 9 -6 28 -7 43 -3 30 8 56 57 136 261 24 61 46 113 49 117
4 5 62 1 130 -7 139 -17 161 -15 161 20 0 42 -41 59 -154 63 -56 2 -104 7
-108 11 -4 4 1 29 11 56 30 81 46 206 31 250 -21 63 -79 80 -230 68z m40 -521
c-9 -32 -49 -132 -57 -146 -10 -15 -22 24 -22 73 -1 36 4 48 34 78 39 39 58
37 45 -5z"/>
<path d="M2774 17370 c-25 -10 -64 -57 -64 -77 0 -7 -26 -42 -58 -76 -68 -74
-95 -115 -128 -199 -29 -75 -30 -122 -4 -165 31 -51 71 -66 159 -61 140 8 279
93 331 203 46 96 36 194 -29 297 -46 73 -136 107 -207 78z m145 -166 c12 -31
21 -79 21 -110 0 -50 -3 -58 -42 -100 -81 -88 -240 -141 -282 -95 -21 23 -15
52 30 141 45 90 97 147 158 174 28 13 57 30 65 39 18 23 26 15 50 -49z"/>
<path d="M4467 16864 c-14 -14 -7 -35 11 -32 9 2 17 10 17 17 0 16 -18 25 -28
15z"/>
<path d="M11070 16808 c-11 -12 -25 -38 -30 -57 -12 -39 -28 -174 -32 -261
l-3 -55 -40 1 c-22 0 -110 4 -195 9 -140 7 -157 6 -173 -9 -20 -20 -23 -89 -4
-104 7 -6 89 -12 199 -14 102 -2 189 -6 193 -10 6 -6 -34 -201 -56 -271 -5
-16 -4 -38 1 -52 12 -31 56 -44 77 -22 19 19 53 160 61 257 l7 75 285 -3 c306
-2 352 3 358 44 2 14 -5 24 -22 32 -24 11 -318 38 -495 46 -60 2 -96 8 -101
16 -8 13 -2 42 23 100 21 50 41 254 27 280 -14 27 -54 26 -80 -2z"/>
<path d="M4447 16773 c-7 -13 -3 -93 6 -93 4 0 11 0 17 0 13 0 7 93 -7 97 -6
2 -13 0 -16 -4z"/>
<path d="M4714 16698 c-4 -15 -1 -25 12 -35 16 -11 21 -11 38 6 16 17 17 23 6
35 -18 23 -48 20 -56 -6z"/>
<path d="M12892 16640 c-59 -27 -195 -168 -248 -260 -52 -88 -97 -201 -115
-286 -11 -53 -10 -68 5 -115 24 -74 59 -123 116 -159 149 -96 467 -92 598 7
72 55 87 116 53 211 -36 97 -97 155 -200 188 -45 14 -64 15 -122 7 -90 -14
-157 -49 -177 -91 -12 -25 -13 -37 -5 -50 12 -19 41 -20 151 -4 135 19 225
-27 252 -129 11 -40 10 -45 -9 -60 -36 -29 -125 -42 -256 -37 -143 6 -216 29
-264 84 -28 31 -31 42 -31 98 0 77 23 148 89 269 56 103 114 164 181 192 47
19 95 57 112 88 7 13 5 25 -7 43 -19 30 -62 32 -123 4z"/>
<path d="M4416 16614 c-4 -10 -2 -22 3 -27 14 -14 43 0 39 20 -4 24 -34 28
-42 7z"/>
<path d="M4420 16474 c-12 -31 -13 -64 -2 -64 14 0 52 45 52 62 0 13 -19 28
-36 28 -3 0 -9 -12 -14 -26z"/>
<path d="M5192 16458 c2 -13 10 -23 18 -23 8 0 16 10 18 23 3 17 -2 22 -18 22
-16 0 -21 -5 -18 -22z"/>
<path d="M13775 16418 c-35 -19 -105 -91 -161 -164 -88 -117 -125 -217 -110
-300 8 -40 64 -107 110 -131 37 -19 108 -12 163 16 88 44 79 81 -19 81 -84 0
-137 34 -138 88 0 70 103 238 190 307 53 43 70 76 50 100 -15 17 -56 19 -85 3z"/>
<path d="M1725 16377 c-113 -39 -139 -54 -180 -102 -47 -56 -75 -105 -75 -133
0 -17 25 -60 87 -147 16 -22 48 -74 71 -116 51 -92 55 -138 16 -164 -46 -30
-132 -54 -217 -61 -104 -8 -169 9 -256 67 -67 45 -96 46 -107 2 -10 -40 17
-74 86 -110 68 -34 97 -41 213 -50 131 -9 313 51 379 126 29 33 30 38 25 96
-3 34 -12 75 -19 91 -17 39 -98 160 -142 213 -20 24 -36 49 -36 57 0 28 29 69
74 107 43 36 53 39 144 49 106 11 130 23 113 55 -7 15 -25 22 -63 26 -65 8
-75 8 -113 -6z"/>
<path d="M2171 16324 c-24 -30 -29 -102 -9 -122 28 -28 98 -1 98 37 0 9 6 11
18 5 54 -24 110 5 86 44 -22 35 -75 62 -125 62 -39 0 -51 -4 -68 -26z"/>
<path d="M4422 16320 c0 -14 2 -19 5 -12 2 6 2 18 0 25 -3 6 -5 1 -5 -13z"/>
<path d="M4485 16310 c-7 -12 12 -50 25 -50 11 0 13 21 4 44 -7 18 -20 21 -29
6z"/>
<path d="M14099 16303 c-61 -37 -155 -210 -243 -446 -20 -54 -45 -115 -55
-135 -28 -57 -73 -197 -69 -217 1 -10 11 -23 21 -29 37 -23 49 -5 186 284 38
80 81 177 96 215 55 137 96 215 130 246 40 37 51 64 35 84 -16 20 -68 19 -101
-2z"/>
<path d="M4770 16222 c-27 -22 -19 -42 16 -42 30 0 74 27 74 46 0 21 -63 18
-90 -4z"/>
<path d="M5075 16230 c3 -5 8 -10 11 -10 2 0 4 5 4 10 0 6 -5 10 -11 10 -5 0
-7 -4 -4 -10z"/>
<path d="M4420 16220 c0 -5 5 -10 10 -10 6 0 10 5 10 10 0 6 -4 10 -10 10 -5
0 -10 -4 -10 -10z"/>
<path d="M5025 16110 c-4 -6 -16 -8 -27 -4 -32 10 -98 -16 -98 -37 0 -30 80
-38 112 -12 7 6 22 13 33 15 12 2 20 11 20 23 0 22 -29 33 -40 15z"/>
<path d="M4497 16069 c-9 -23 -14 -46 -11 -50 20 -33 82 38 63 73 -16 29 -35
21 -52 -23z"/>
<path d="M4377 16073 c-18 -18 13 -103 38 -103 22 0 26 29 5 42 -14 9 -17 19
-13 40 4 20 2 28 -9 28 -8 0 -18 -3 -21 -7z"/>
<path d="M4641 16066 c-18 -22 -4 -55 26 -62 35 -9 58 7 58 42 0 26 -4 29 -36
32 -23 2 -40 -2 -48 -12z"/>
<path d="M2154 16035 c-16 -11 -23 -29 -28 -82 -12 -118 -36 -245 -63 -329
-36 -111 -20 -164 41 -136 17 7 31 33 53 99 73 210 98 399 59 442 -23 25 -34
26 -62 6z"/>
<path d="M4290 16025 c-14 -17 -5 -35 19 -35 22 0 45 25 36 40 -9 15 -41 12
-55 -5z"/>
<path d="M4597 16003 c-15 -14 -7 -43 12 -43 17 0 31 18 31 41 0 10 -33 12
-43 2z"/>
<path d="M4754 15985 c-7 -17 12 -45 30 -45 23 0 36 22 25 42 -12 22 -47 24
-55 3z"/>
<path d="M4860 15990 c0 -5 7 -10 15 -10 8 0 15 5 15 10 0 6 -7 10 -15 10 -8
0 -15 -4 -15 -10z"/>
<path d="M3870 15950 c-23 -23 -25 -39 -7 -64 18 -25 145 -19 161 7 9 15 5 23
-22 48 -40 36 -101 40 -132 9z"/>
<path d="M4462 15954 c4 -21 22 -23 26 -1 2 10 -3 17 -13 17 -10 0 -15 -6 -13
-16z"/>
<path d="M4285 15940 c-3 -5 1 -10 9 -10 9 0 16 5 16 10 0 6 -4 10 -9 10 -6 0
-13 -4 -16 -10z"/>
<path d="M2723 15901 c-103 -49 -162 -94 -223 -170 -73 -91 -78 -167 -13 -202
35 -19 117 1 235 58 54 25 101 44 104 41 3 -4 -24 -69 -60 -146 -35 -76 -94
-213 -129 -304 -67 -170 -105 -253 -140 -301 -15 -23 -25 -27 -44 -22 -33 8
-53 -10 -53 -49 0 -42 16 -56 62 -56 73 0 132 85 267 386 23 50 41 93 41 96 0
3 41 94 90 201 98 212 108 259 70 297 -11 11 -29 20 -39 20 -11 0 -80 -29
-154 -64 -177 -84 -177 -84 -177 -51 0 66 185 192 300 203 42 4 54 9 62 28 8
18 7 29 -6 49 -26 39 -90 34 -193 -14z"/>
<path d="M3220 15885 c-7 -8 -17 -50 -22 -92 -12 -91 -60 -268 -88 -323 -30
-59 -36 -116 -15 -140 41 -46 112 -16 185 77 40 53 133 133 152 133 15 0 2
-60 -34 -167 -27 -78 -30 -95 -20 -117 14 -31 51 -35 74 -8 28 32 63 131 99
277 19 74 -13 125 -79 125 -45 0 -93 -31 -182 -116 -30 -30 -58 -54 -62 -54
-5 0 1 24 13 53 79 197 98 308 59 347 -24 24 -63 26 -80 5z"/>
<path d="M4302 15837 c-15 -17 1 -42 23 -33 18 6 17 37 -1 43 -6 2 -16 -2 -22
-10z"/>
<path d="M4447 15803 c-4 -3 -7 -14 -7 -22 0 -9 -9 -22 -21 -29 -28 -18 -23
-66 8 -70 23 -3 48 30 40 53 -4 9 4 12 25 11 38 -1 58 24 39 48 -13 16 -71 22
-84 9z"/>
<path d="M4300 15745 c-5 -14 -13 -25 -17 -24 -5 1 -13 1 -18 0 -20 -2 -84
-97 -116 -172 -17 -41 -40 -85 -50 -98 -11 -13 -19 -38 -19 -56 0 -18 -7 -49
-16 -70 -8 -21 -14 -57 -12 -83 3 -43 5 -47 30 -50 32 -4 39 6 76 102 33 85
46 94 108 78 53 -14 138 -6 155 15 9 10 9 20 1 37 -8 18 -21 24 -64 29 -29 4
-68 7 -85 7 -25 0 -33 4 -33 18 0 31 45 121 63 126 9 2 22 18 28 34 6 17 19
32 30 35 35 9 35 38 1 69 -40 34 -50 35 -62 3z"/>
<path d="M4742 15683 c-19 -7 -92 -119 -92 -141 0 -10 9 -27 20 -37 23 -21 34
-15 90 48 33 36 37 38 63 26 23 -11 30 -10 44 3 14 15 14 19 -5 50 -29 47 -78
68 -120 51z"/>
<path d="M3822 15588 c-7 -7 -12 -24 -12 -39 0 -38 -16 -76 -45 -111 -26 -31
-33 -72 -14 -84 21 -13 71 -6 92 13 94 84 105 233 16 233 -14 0 -30 -5 -37
-12z"/>
<path d="M10640 15563 c-37 -8 -50 -22 -50 -57 0 -52 11 -56 155 -56 149 0
247 -11 425 -46 69 -14 161 -31 205 -39 482 -86 818 -151 960 -185 44 -10 145
-33 225 -50 80 -17 174 -37 210 -45 36 -8 108 -23 160 -34 52 -11 158 -34 235
-51 312 -68 724 -137 1092 -184 147 -19 325 -42 396 -52 98 -13 133 -14 152
-6 29 13 33 47 8 60 -37 19 -244 59 -473 91 -342 48 -516 77 -850 142 -272 54
-695 143 -745 158 -16 5 -68 17 -115 26 -47 9 -98 20 -115 26 -66 20 -564 118
-945 185 -107 19 -253 46 -325 60 -71 14 -170 32 -220 39 -96 16 -343 27 -385
18z"/>
<path d="M5112 15398 c-86 -19 -162 -128 -162 -231 0 -53 3 -59 43 -101 56
-59 148 -85 177 -51 17 21 7 41 -32 61 -50 25 -88 65 -88 92 0 43 31 92 75
117 38 23 50 25 130 20 96 -5 115 2 115 41 0 41 -52 64 -140 63 -41 -1 -94 -5
-118 -11z"/>
<path d="M4559 15350 c-10 -6 -20 -30 -24 -56 -10 -66 -39 -129 -80 -169 -55
-55 -44 -105 23 -105 27 0 42 8 69 38 83 87 122 250 71 286 -26 18 -36 19 -59
6z"/>
<path d="M7060 15321 c-5 -11 -10 -32 -10 -47 0 -16 -21 -77 -47 -137 l-47
-110 -89 6 c-62 4 -95 11 -107 22 -21 19 -29 16 -118 -43 -53 -34 -121 -57
-134 -44 -3 4 2 34 13 67 25 79 25 129 -1 155 -30 30 -52 25 -142 -34 -94 -61
-227 -130 -235 -122 -3 3 19 50 50 105 59 105 65 123 53 158 -7 23 -45 39 -70
30 -17 -7 -142 -261 -151 -309 -4 -20 -4 -45 -1 -56 7 -22 46 -42 81 -42 32 0
175 67 244 114 62 42 86 47 77 14 -3 -13 -11 -49 -17 -81 -11 -55 -11 -59 11
-82 30 -32 55 -31 127 1 41 19 78 27 128 29 39 2 103 6 143 10 39 4 72 4 72 0
0 -4 -16 -29 -35 -55 -38 -52 -43 -71 -20 -90 24 -20 49 -3 110 75 33 41 64
75 70 75 5 -1 39 -7 75 -15 73 -16 148 -19 168 -6 23 14 10 55 -22 70 -16 7
-62 18 -102 24 -87 12 -90 18 -43 93 68 106 88 193 53 228 -22 23 -71 20 -84
-3z"/>
<path d="M5480 15313 c-54 -20 -140 -154 -140 -218 0 -97 123 -135 245 -75 33
16 61 28 62 26 2 -1 6 -31 9 -65 9 -78 33 -113 77 -109 41 4 55 28 39 71 -7
18 -12 77 -12 131 0 96 0 98 -31 127 -17 16 -28 33 -24 39 11 17 -15 51 -50
66 -33 14 -144 18 -175 7z m150 -97 l45 -14 -47 -45 c-47 -45 -95 -67 -150
-67 -24 0 -28 4 -28 29 0 38 42 88 83 100 44 13 46 13 97 -3z"/>
<path d="M13073 14851 c-69 -26 -181 -111 -279 -213 -126 -132 -200 -252 -263
-431 -64 -182 -28 -328 97 -391 161 -81 372 -48 647 102 138 76 199 158 179
240 -19 77 -157 132 -326 132 -89 0 -199 -22 -235 -46 -32 -20 -29 -58 5 -84
22 -18 35 -21 72 -15 174 26 277 23 341 -11 63 -32 43 -65 -76 -123 -224 -109
-390 -149 -503 -121 -57 13 -118 64 -128 106 -36 143 153 486 341 619 88 62
118 75 192 82 81 8 112 30 119 88 8 57 -9 75 -76 81 -39 3 -70 -1 -107 -15z"/>
<path d="M2189 14651 c-25 -10 -66 -32 -90 -49 -56 -38 -211 -199 -256 -266
-142 -212 -168 -261 -231 -431 -65 -175 -122 -430 -122 -545 0 -37 5 -55 20
-70 49 -49 91 -4 155 165 24 63 62 158 85 212 67 156 230 627 230 664 0 11 6
32 14 47 34 65 219 212 266 212 54 0 85 -68 70 -152 -15 -76 -47 -132 -120
-207 -52 -54 -77 -72 -125 -90 -73 -26 -86 -33 -99 -54 -19 -29 5 -52 58 -55
109 -7 303 155 387 323 37 72 40 86 37 141 -3 49 -10 69 -32 99 -54 70 -153
93 -247 56z m-399 -616 c-48 -149 -118 -351 -172 -498 -31 -84 -5 69 41 248
41 157 168 451 187 432 2 -1 -23 -83 -56 -182z"/>
<path d="M11471 14616 c-18 -22 -6 -95 22 -137 39 -59 149 -100 367 -140 139
-26 364 -31 423 -11 43 16 65 46 47 67 -6 8 -37 16 -68 20 -168 18 -235 28
-312 46 -219 51 -250 61 -325 111 -84 55 -133 69 -154 44z"/>
<path d="M13768 14608 c-24 -20 -84 -138 -97 -192 -17 -71 -5 -198 25 -262 52
-110 178 -149 326 -102 37 12 71 19 74 15 4 -4 -5 -39 -20 -79 -15 -40 -41
-109 -58 -153 -33 -88 -64 -205 -74 -275 -6 -47 12 -80 36 -65 13 8 54 88 70
140 7 22 32 87 55 145 23 58 50 132 60 165 9 33 27 92 40 130 12 39 26 84 30
100 3 17 17 41 30 55 32 34 97 197 93 235 -4 41 -45 64 -83 47 -30 -14 -86
-124 -106 -208 -19 -80 -24 -88 -79 -118 -43 -23 -69 -30 -139 -34 -82 -4 -88
-3 -118 22 -71 60 -84 192 -26 263 16 21 35 48 41 60 16 28 15 96 0 111 -16
16 -60 15 -80 0z"/>
<path d="M2755 14339 c-25 -12 -68 -81 -89 -142 -14 -43 -40 -102 -190 -444
-72 -164 -92 -247 -63 -271 24 -20 42 -5 67 56 13 31 86 182 162 334 76 152
138 279 138 282 0 3 14 28 30 54 57 92 24 169 -55 131z"/>
<path d="M3055 13831 c-64 -37 -140 -118 -167 -178 -28 -64 -36 -188 -15 -229
25 -48 60 -73 116 -84 78 -15 84 -13 141 25 29 19 55 35 59 35 3 0 14 -21 23
-47 26 -70 52 -109 99 -143 44 -31 86 -39 107 -18 21 21 13 38 -37 84 -56 52
-72 85 -96 202 -14 70 -15 94 -5 153 14 83 8 116 -24 130 -19 9 -29 7 -50 -6
-42 -28 -56 -65 -56 -150 0 -77 -19 -135 -54 -164 -24 -20 -97 -17 -114 5 -19
26 -10 131 17 186 21 44 105 118 133 118 21 0 48 33 48 58 0 27 -26 52 -53 52
-12 0 -44 -13 -72 -29z"/>
<path d="M3799 13657 c-20 -12 -50 -38 -68 -58 -96 -112 -143 -363 -83 -447
86 -120 345 -147 547 -57 l57 25 26 -32 c77 -91 103 -115 179 -164 110 -73
145 -87 178 -72 17 8 25 19 25 37 0 26 -12 37 -101 89 -88 53 -189 158 -189
198 0 11 11 31 25 44 61 57 64 196 6 254 -26 26 -37 30 -81 29 -41 -1 -59 -7
-88 -30 -34 -28 -37 -35 -40 -89 -2 -35 3 -80 13 -111 26 -83 25 -84 -100
-110 -129 -26 -212 -29 -282 -8 -59 18 -79 37 -88 87 -9 45 17 160 52 235 30
66 64 93 114 93 47 0 73 23 64 59 -3 14 -13 32 -22 39 -27 20 -104 15 -144
-11z m531 -319 c0 -23 -3 -29 -11 -21 -6 6 -8 20 -4 32 9 30 15 26 15 -11z"/>
<path d="M1968 12978 c-30 -24 -78 -133 -93 -211 -18 -94 -20 -377 -4 -458 15
-74 54 -128 117 -162 85 -46 208 -52 302 -15 63 24 190 97 250 143 32 25 61
45 64 45 3 0 6 -21 6 -46 0 -37 5 -51 28 -74 57 -56 153 -46 268 28 68 44 107
87 155 173 69 122 68 123 62 -48 -5 -130 -3 -159 12 -198 21 -57 52 -72 95
-50 17 9 33 27 36 42 6 21 2 30 -20 45 -25 19 -26 23 -26 116 0 54 6 140 12
192 17 141 16 211 -3 223 -26 16 -67 0 -84 -34 -14 -26 -20 -29 -48 -24 -47 9
-185 -29 -254 -69 -32 -19 -80 -55 -106 -81 -54 -52 -120 -96 -217 -145 -36
-19 -83 -46 -105 -60 -213 -144 -403 -140 -446 7 -18 61 -17 320 1 418 7 39
25 94 41 122 33 59 36 94 13 117 -19 19 -35 20 -56 4z m1102 -434 c0 -24 -158
-192 -215 -229 -67 -42 -131 -63 -147 -47 -18 18 18 95 70 150 56 58 123 99
212 128 68 23 80 22 80 -2z"/>
<path d="M3615 12725 c-41 -43 -58 -93 -96 -286 -35 -179 -49 -384 -30 -442
15 -44 67 -87 106 -87 20 0 39 12 67 42 71 78 61 131 -17 88 -24 -13 -48 -21
-52 -16 -21 21 15 300 57 446 10 36 28 97 39 137 27 91 27 118 -1 137 -31 22
-36 21 -73 -19z"/>
<path d="M3828 12250 c-28 -17 -41 -80 -42 -211 -1 -123 0 -126 29 -174 56
-91 177 -124 285 -77 59 25 154 105 181 151 12 20 42 66 67 103 45 67 49 92
16 105 -28 11 -79 -26 -132 -96 -64 -84 -83 -101 -156 -145 -65 -39 -123 -47
-149 -21 -27 27 -40 84 -33 149 19 183 19 186 1 206 -20 22 -41 25 -67 10z"/>
<path d="M4537 12021 c-26 -17 -50 -38 -53 -46 -8 -21 -24 -19 -51 7 -22 21
-26 21 -51 7 -45 -25 -41 -57 12 -104 43 -38 46 -44 56 -113 15 -108 35 -143
139 -235 97 -87 201 -110 201 -46 0 21 -5 26 -82 76 -70 47 -114 101 -133 165
-21 72 -10 88 61 88 95 0 154 48 154 126 0 62 -42 93 -137 100 -63 5 -71 4
-116 -25z m123 -91 c0 -21 -34 -40 -71 -40 -23 0 -25 17 -2 42 23 26 73 24 73
-2z"/>
<path d="M5780 11944 c-77 -33 -91 -75 -39 -118 39 -33 63 -33 104 2 18 15 45
35 59 45 28 19 34 55 14 75 -17 17 -96 14 -138 -4z"/>
<path d="M5611 11713 c-31 -25 -90 -258 -98 -383 -5 -88 -4 -97 16 -117 25
-26 63 -30 84 -9 8 8 20 56 27 108 7 51 30 147 51 213 22 66 39 132 39 146 0
53 -73 79 -119 42z"/>
<path d="M6180 11535 c-25 -8 -56 -24 -70 -34 -25 -20 -25 -21 -25 -178 -1
-171 -14 -258 -46 -292 -26 -28 -37 -27 -45 4 -13 52 -81 73 -108 33 -20 -28
-20 -87 -1 -115 25 -35 79 -63 123 -63 46 0 111 43 148 98 32 47 56 192 52
319 -3 136 -3 137 139 127 l102 -7 12 27 c24 51 -29 81 -161 90 -52 4 -89 1
-120 -9z"/>
<path d="M7482 11278 c-13 -6 -33 -30 -45 -52 -20 -37 -22 -56 -22 -181 0
-134 -1 -140 -20 -137 -64 12 -105 62 -105 127 0 58 -26 101 -74 125 -23 11
-50 20 -59 20 -36 0 -93 -33 -134 -77 -24 -25 -46 -43 -50 -40 -3 4 -1 24 5
46 16 53 15 75 -6 94 -21 19 -54 22 -82 7 -20 -11 -53 -103 -65 -181 -5 -37
-3 -49 15 -72 29 -36 76 -60 106 -53 13 4 62 42 109 87 47 44 89 78 94 75 5
-3 12 -23 16 -43 10 -56 29 -86 85 -136 47 -42 120 -77 162 -77 10 0 54 -36
96 -79 44 -46 89 -83 104 -86 77 -19 80 39 6 105 -61 54 -60 71 5 89 56 16
120 79 142 140 36 104 1 242 -73 284 -40 23 -176 33 -210 15z m152 -103 c20
-20 30 -76 22 -119 -10 -55 -66 -130 -98 -134 -27 -3 -28 -2 -28 50 1 169 47
260 104 203z"/>
<path d="M7965 11097 c-38 -18 -85 -84 -85 -121 0 -63 81 -150 186 -197 50
-23 64 -34 64 -51 0 -14 -43 -63 -131 -149 -131 -128 -207 -187 -264 -206 -16
-5 -37 -22 -45 -36 -14 -25 -13 -28 7 -48 20 -20 24 -21 73 -9 51 12 91 39
260 169 127 99 270 265 270 314 0 29 -40 55 -102 66 -70 12 -153 56 -183 95
l-20 28 28 24 c44 38 89 32 171 -21 38 -25 81 -45 96 -45 27 0 60 26 60 48 0
25 -63 81 -127 112 -57 28 -82 34 -148 37 -53 2 -90 -1 -110 -10z"/>
<path d="M9423 10896 c-21 -26 -25 -41 -58 -198 -9 -42 -22 -81 -29 -87 -9 -8
-26 -7 -61 4 -56 16 -85 7 -85 -28 0 -28 45 -73 83 -82 32 -9 33 -19 7 -105
-27 -88 -54 -261 -47 -292 9 -33 52 -61 81 -54 29 7 42 38 51 112 4 32 13 79
20 104 8 25 19 75 26 112 18 108 16 107 155 64 180 -57 167 -49 159 -104 -10
-71 -32 -155 -72 -275 -33 -102 -34 -109 -19 -132 9 -14 27 -32 41 -41 21 -14
30 -14 55 -4 23 10 32 23 45 65 8 29 15 59 15 67 0 7 15 61 34 118 18 58 37
129 41 157 6 49 5 53 -27 87 -45 49 -192 131 -280 157 -104 31 -107 35 -70
106 49 94 84 190 78 211 -10 31 -38 51 -82 58 -36 5 -43 3 -61 -20z"/>
<path d="M8672 10814 c-39 -17 -145 -121 -167 -165 -23 -43 -14 -68 48 -126
85 -81 162 -81 267 -3 67 50 85 52 76 8 -19 -91 -26 -201 -15 -241 16 -58 67
-107 113 -107 46 0 56 21 31 66 -16 29 -17 48 -11 142 7 129 31 216 80 296 20
33 36 64 36 68 0 5 -11 20 -25 33 -33 34 -84 33 -123 0 -37 -31 -36 -31 -75
-1 -60 45 -169 59 -235 30z m206 -131 c3 -18 -7 -27 -55 -51 -93 -46 -150 -65
-178 -58 -34 9 -32 35 8 73 52 51 84 64 157 61 58 -3 65 -5 68 -25z"/>
<path d="M9992 10660 c-43 -10 -142 -76 -142 -95 0 -25 70 -95 95 -95 13 0 45
16 70 36 26 20 67 44 90 54 49 21 59 32 50 59 -9 31 -104 54 -163 41z"/>
<path d="M10323 10069 c-105 -97 -160 -139 -182 -139 -9 1 -32 14 -51 30 -36
31 -77 39 -98 18 -20 -20 -14 -82 10 -113 30 -39 97 -85 123 -85 43 0 142 59
198 120 31 33 61 60 66 60 5 0 16 -24 25 -52 12 -41 28 -66 73 -109 74 -72
110 -90 197 -98 l71 -6 7 -63 c9 -83 22 -122 70 -209 54 -100 106 -137 138
-98 15 18 7 41 -38 117 -32 54 -36 69 -38 137 -2 119 12 184 46 221 49 52 49
76 4 120 -25 24 -52 40 -75 44 -53 9 -80 -17 -99 -96 l-15 -63 -40 -3 c-71 -4
-136 19 -163 58 -22 32 -24 41 -18 118 l6 83 -36 45 c-55 66 -74 62 -181 -37z"/>
</g>
</svg>
