<?xml version="1.0" standalone="no"?>
<!DOCTYPE svg PUBLIC "-//W3C//DTD SVG 20010904//EN"
 "http://www.w3.org/TR/2001/REC-SVG-20010904/DTD/svg10.dtd">
<svg version="1.0" xmlns="http://www.w3.org/2000/svg"
 width="3264.000000pt" height="2448.000000pt" viewBox="0 0 3264.000000 2448.000000"
 preserveAspectRatio="xMidYMid meet">
<metadata>
Created by potrace 1.12, written by Peter Selinger 2001-2015
</metadata>
<g transform="translate(0.000000,2448.000000) scale(0.100000,-0.100000)"
fill="#000000" stroke="none">
<path d="M1428 24473 c12 -2 30 -2 40 0 9 3 -1 5 -23 4 -22 0 -30 -2 -17 -4z"/>
<path d="M1621 24476 c7 -8 98 -10 105 -3 4 4 -19 7 -51 7 -32 0 -56 -2 -54
-4z"/>
<path d="M1813 24473 c9 -2 23 -2 30 0 6 3 -1 5 -18 5 -16 0 -22 -2 -12 -5z"/>
<path d="M1918 24467 c39 -7 56 -7 65 2 8 8 -5 11 -53 10 l-65 -2 53 -10z"/>
<path d="M2014 24469 c12 -8 25 -8 40 -1 18 9 16 11 -19 11 -33 0 -37 -1 -21
-10z"/>
<path d="M2155 24470 c3 -5 37 -10 75 -10 38 0 72 5 75 10 4 6 -23 10 -75 10
-52 0 -79 -4 -75 -10z"/>
<path d="M2330 24470 c0 -5 6 -10 14 -10 8 0 18 5 21 10 3 6 -3 10 -14 10 -12
0 -21 -4 -21 -10z"/>
<path d="M2397 24474 c-13 -14 6 -24 44 -24 28 0 39 4 39 15 0 11 -11 15 -38
15 -21 0 -42 -3 -45 -6z"/>
<path d="M2572 24468 c3 -8 26 -14 56 -16 42 -2 52 0 52 12 0 13 -12 16 -56
16 -40 0 -55 -4 -52 -12z"/>
<path d="M2745 24469 c-4 -5 -4 -13 -1 -16 3 -4 97 -8 208 -10 112 -2 252 -5
311 -6 76 -2 111 1 118 9 16 20 -19 32 -81 30 -30 -2 -67 -6 -82 -11 -17 -4
-28 -3 -28 3 0 11 -104 9 -131 -2 -10 -4 -20 -3 -23 3 -9 14 -283 14 -291 0z"/>
<path d="M3678 24474 c-3 -3 -65 -6 -137 -8 -72 -1 -134 -6 -138 -10 -15 -14
23 -26 77 -24 30 1 208 -1 395 -5 436 -9 1099 -15 2355 -22 1584 -9 2701 -15
3275 -20 904 -7 1834 -15 2220 -20 204 -3 627 -7 940 -10 314 -3 692 -7 840
-10 149 -2 551 -7 895 -10 344 -3 834 -7 1090 -10 256 -3 791 -7 1190 -10 399
-3 869 -7 1045 -10 176 -3 633 -7 1015 -10 382 -3 947 -7 1255 -10 308 -3 983
-7 1500 -10 517 -3 1073 -7 1235 -10 162 -2 547 -7 855 -10 308 -3 625 -7 705
-10 80 -3 345 -7 590 -10 245 -3 562 -7 705 -10 263 -5 645 -12 1100 -20 138
-2 522 -7 855 -10 333 -3 643 -8 690 -10 47 -3 675 -7 1395 -10 1189 -5 2144
-13 2460 -20 275 -6 466 -7 471 -3 2 3 22 2 44 -2 39 -7 40 -7 40 21 0 27 -3
29 -42 30 -24 1 -47 0 -53 -1 -5 -1 -14 -2 -20 -2 -5 0 -165 3 -355 7 -190 4
-388 9 -440 12 -52 2 -153 5 -225 6 -71 1 -135 5 -141 9 -6 4 -35 4 -64 -1
-29 -5 -67 -5 -84 -1 -18 4 -77 4 -132 -1 -55 -4 -103 -3 -108 1 -5 5 -17 5
-28 -1 -10 -5 -23 -7 -28 -4 -6 4 -121 8 -256 11 -135 2 -250 6 -255 10 -5 3
-15 2 -21 -2 -18 -11 -209 -12 -231 -2 -9 5 -23 6 -29 2 -18 -11 -151 -12
-165 -1 -7 5 -18 5 -24 1 -23 -14 -143 -11 -187 4 -28 10 -46 12 -50 5 -10
-15 -432 -20 -458 -5 -8 4 -49 4 -92 0 -42 -4 -97 -6 -122 -3 -48 5 -75 6
-185 6 -75 0 -73 0 -215 -1 -52 -1 -108 3 -124 9 -22 9 -35 8 -58 -3 -25 -13
-36 -13 -67 -2 -27 9 -42 9 -54 2 -12 -8 -22 -8 -35 1 -12 7 -33 8 -59 4 -23
-5 -47 -5 -54 -1 -8 4 -47 3 -88 -2 -58 -7 -76 -6 -82 4 -6 10 -13 10 -26 2
-25 -15 -373 -10 -403 6 -18 9 -25 8 -41 -6 -18 -17 -20 -17 -33 1 -12 16 -16
17 -30 6 -10 -8 -28 -11 -48 -8 -64 12 -354 17 -423 8 -41 -5 -74 -5 -80 0
-13 12 -102 11 -110 -1 -4 -6 -11 -7 -17 -4 -19 12 -308 21 -470 14 -21 -1
-48 6 -59 14 -16 11 -27 12 -40 5 -10 -5 -49 -9 -86 -8 -179 2 -196 2 -253 -4
-25 -2 -50 0 -57 5 -6 5 -60 11 -120 13 -59 1 -108 4 -108 4 0 10 -121 5 -155
-6 -43 -14 -46 -13 -62 7 -19 23 -41 19 -31 -5 9 -25 -26 -17 -51 12 -14 16
-28 23 -35 19 -9 -6 -9 -11 0 -22 12 -15 9 -17 -43 -28 -34 -8 -46 10 -13 18
14 4 23 11 20 16 -7 12 -82 6 -119 -9 -19 -8 -32 -8 -40 -1 -7 5 -16 6 -22 1
-5 -5 -27 -11 -49 -13 -30 -2 -39 0 -37 11 2 10 -2 11 -15 5 -10 -4 -34 -8
-53 -9 -19 0 -40 -4 -46 -8 -7 -4 -106 -5 -220 -2 -115 2 -366 7 -559 11 -192
3 -397 8 -455 10 -137 5 -129 5 -175 1 -22 -2 -45 0 -52 5 -7 6 -20 5 -32 -2
-16 -8 -26 -7 -46 6 -22 14 -29 15 -67 2 -37 -13 -59 -13 -148 -2 -58 7 -109
9 -115 5 -5 -4 -39 -6 -75 -4 -197 11 -393 12 -410 3 -13 -7 -28 -7 -47 1 -22
9 -225 16 -235 8 -10 -7 -355 -4 -365 3 -7 6 -20 5 -32 -1 -24 -13 -88 -14
-95 -2 -3 5 -36 8 -72 6 -37 -1 -83 1 -103 6 -20 4 -40 4 -46 -1 -12 -10 -101
-8 -111 3 -4 4 -12 3 -18 -3 -17 -13 -102 -18 -176 -9 -42 5 -69 4 -77 -3 -9
-7 -20 -6 -37 6 -17 10 -27 12 -32 5 -3 -6 -39 -10 -88 -9 -44 1 -151 2 -236
2 -446 0 -605 4 -603 16 3 14 -13 16 -21 3 -4 -6 -720 -6 -976 0 -8 0 -62 1
-120 1 -446 3 -581 6 -612 12 -21 4 -39 2 -43 -3 -3 -6 -31 -8 -68 -5 -34 3
-70 5 -79 5 -10 0 -18 7 -18 15 0 19 -26 18 -34 -2 -5 -14 -16 -15 -74 -9 -37
5 -74 8 -82 8 -8 -1 -48 -3 -89 -6 -43 -3 -84 -1 -98 6 -19 8 -26 7 -37 -8
-13 -18 -14 -18 -23 0 -8 14 -17 16 -39 11 -38 -10 -95 -8 -108 4 -7 5 -18 5
-25 0 -8 -4 -24 -4 -36 2 -16 7 -29 7 -43 -1 -11 -6 -34 -11 -49 -11 -16 0
-35 -6 -42 -12 -8 -8 -15 -9 -17 -3 -3 6 -52 9 -127 8 -67 -2 -243 -2 -392 -2
-148 0 -279 0 -290 0 -156 -4 -744 0 -1950 14 -209 3 -677 7 -1040 9 -363 3
-885 8 -1160 11 -275 3 -736 8 -1025 10 -289 2 -804 7 -1145 10 -341 3 -901 7
-1245 9 -468 2 -641 6 -689 16 -51 11 -82 11 -155 1 -58 -7 -176 -10 -326 -7
-129 3 -269 4 -310 4 -41 -1 -271 -1 -510 0 -1329 5 -1747 9 -1757 15 -6 4
-23 2 -37 -4 -20 -9 -32 -9 -52 0 -14 6 -30 8 -36 5 -6 -4 -99 -6 -207 -5
-698 7 -958 10 -971 11 -8 1 -72 0 -141 -1 -69 -1 -130 1 -136 4 -6 4 -13 4
-15 1z"/>
<path d="M2510 24460 c20 -13 40 -13 40 0 0 6 -12 10 -27 10 -22 0 -25 -2 -13
-10z"/>
<path d="M5325 23437 c-13 -21 -13 -29 0 -73 18 -60 25 -161 29 -459 2 -126 7
-238 11 -248 7 -16 51 -35 60 -25 5 5 6 634 1 713 -4 70 -13 90 -42 103 -35
17 -41 15 -59 -11z"/>
<path d="M2971 23276 c-9 -11 -7 -27 8 -72 31 -94 36 -160 41 -539 1 -60 10
-173 21 -250 16 -112 24 -144 41 -162 12 -13 30 -23 40 -23 23 0 23 35 2 140
-11 52 -18 183 -24 420 -9 370 -19 449 -61 483 -26 21 -52 22 -68 3z"/>
<path d="M8539 23179 c-7 -14 -8 -41 -4 -78 11 -82 7 -246 -7 -326 -9 -53 -18
-75 -36 -89 -53 -42 -80 -82 -102 -148 l-23 -69 49 -49 c56 -56 68 -54 79 18
4 26 11 52 16 58 5 6 18 40 29 77 11 36 27 72 35 80 16 17 178 71 263 88 97
20 103 9 30 -60 -73 -68 -105 -124 -114 -202 -7 -65 7 -101 58 -144 27 -23 39
-26 75 -22 60 6 106 41 154 115 39 62 41 63 60 46 10 -9 19 -25 19 -34 0 -30
39 -69 76 -76 48 -9 107 32 130 91 28 75 -7 89 -66 25 -38 -41 -62 -45 -75
-12 -15 38 -3 261 20 377 5 23 2 35 -13 49 -29 26 -55 17 -68 -24 l-12 -35
-113 -1 c-113 -1 -215 -21 -308 -60 -19 -8 -47 -12 -60 -9 -26 7 -26 14 -2
150 6 33 11 99 10 148 -1 70 -5 92 -21 112 -24 31 -63 33 -79 4z m561 -464
c20 -24 -23 -133 -81 -207 -85 -106 -120 -125 -167 -92 -30 21 -28 65 7 139
53 114 199 211 241 160z"/>
<path d="M9653 23188 c-20 -26 -21 -48 -11 -151 14 -141 6 -194 -34 -215 -153
-84 -212 -157 -157 -196 24 -16 49 -11 49 11 0 24 56 74 75 67 21 -8 17 -38
-19 -154 -38 -119 -40 -128 -26 -145 22 -27 48 -18 60 23 7 20 16 41 21 47 5
5 9 18 9 30 0 11 11 61 25 110 13 50 29 109 35 132 10 41 12 43 76 63 74 23
150 26 189 8 15 -7 35 -29 46 -49 26 -52 43 -212 35 -333 -6 -87 -5 -100 11
-112 25 -18 43 -17 59 4 10 12 13 56 14 155 0 155 -17 264 -56 344 -42 88 -92
105 -224 79 -112 -23 -117 -18 -100 93 15 98 9 170 -16 188 -23 16 -49 17 -61
1z"/>
<path d="M3596 23145 c-9 -9 -20 -35 -26 -58 -6 -23 -15 -50 -21 -60 -16 -29
1 -41 23 -17 23 25 35 23 60 -11 12 -17 24 -69 37 -175 38 -293 81 -401 151
-379 46 15 161 269 184 406 4 21 13 42 21 49 8 7 15 21 15 31 0 30 44 24 65
-8 17 -25 42 -157 50 -258 13 -172 21 -202 65 -225 31 -17 104 -9 108 12 3 17
-6 27 -62 71 -26 21 -28 29 -32 97 -8 171 -37 319 -79 400 -14 28 -59 51 -83
43 -39 -14 -142 -210 -182 -347 -59 -207 -117 -189 -140 44 -6 63 -22 169 -36
235 -20 97 -30 124 -50 143 -30 26 -47 28 -68 7z"/>
<path d="M3332 23123 c-5 -10 -15 -40 -21 -67 -12 -48 -11 -51 19 -94 39 -55
58 -164 68 -391 7 -136 10 -155 27 -167 33 -24 59 -14 67 26 9 45 27 403 21
410 -3 3 -12 -5 -20 -17 -9 -13 -19 -23 -24 -23 -22 0 -40 67 -49 181 -7 89
-15 128 -27 141 -20 23 -50 23 -61 1z"/>
<path d="M10062 23088 c-7 -7 -12 -29 -12 -50 0 -28 5 -40 21 -49 48 -25 95
33 70 87 -12 27 -57 34 -79 12z"/>
<path d="M5879 23055 c-101 -37 -160 -86 -212 -176 -63 -110 -76 -314 -25
-395 53 -82 151 -112 249 -75 62 24 95 52 86 75 -11 27 -54 30 -104 6 -41 -19
-51 -20 -89 -10 -52 15 -93 56 -100 102 l-6 35 91 6 c78 6 103 12 168 44 88
44 166 121 185 184 13 45 1 109 -29 155 -36 56 -134 79 -214 49z m132 -87 c42
-23 61 -61 48 -95 -20 -55 -161 -149 -259 -173 -79 -19 -126 13 -100 68 58
123 91 163 165 198 62 30 96 30 146 2z"/>
<path d="M4786 23039 c-49 -27 -79 -61 -113 -129 -14 -30 -32 -62 -38 -70 -47
-60 -55 -460 -16 -745 28 -208 40 -235 100 -235 26 0 28 36 6 125 -22 92 -41
571 -23 597 10 15 32 -9 54 -58 22 -52 68 -84 121 -84 61 0 106 23 169 89 93
97 118 235 65 357 -56 126 -118 174 -222 174 -44 -1 -76 -7 -103 -21z m168
-87 c81 -55 121 -160 97 -252 -28 -107 -125 -195 -190 -172 -16 6 -48 24 -71
41 -24 17 -50 31 -60 31 -26 0 -40 21 -40 59 0 19 -5 49 -12 68 -27 75 56 215
147 248 48 18 77 12 129 -23z"/>
<path d="M3520 22910 c0 -5 5 -10 10 -10 6 0 10 5 10 10 0 6 -4 10 -10 10 -5
0 -10 -4 -10 -10z"/>
<path d="M10383 22906 c-59 -15 -103 -40 -103 -60 0 -23 28 -39 60 -33 49 10
61 -11 44 -80 -16 -70 -18 -226 -3 -256 39 -76 91 -86 185 -36 76 40 98 61
129 123 45 89 28 182 -45 257 -38 39 -59 51 -128 73 -46 14 -84 26 -85 25 -1
0 -25 -6 -54 -13z m168 -112 c14 -7 40 -26 57 -42 28 -26 32 -37 32 -79 0 -56
-29 -103 -89 -148 -42 -30 -72 -32 -96 -5 -16 18 -17 27 -7 92 6 40 14 100 18
133 4 33 9 64 11 68 5 9 35 1 74 -19z"/>
<path d="M7961 22896 c-6 -7 -29 -65 -51 -127 -65 -183 -77 -208 -105 -209 -6
0 -15 8 -22 19 -9 14 -7 35 9 95 18 71 18 79 4 102 -30 44 -85 20 -72 -31 4
-14 -5 -93 -19 -175 -15 -83 -24 -158 -21 -168 7 -22 50 -44 70 -36 22 8 61
63 86 120 12 27 28 61 36 76 8 14 14 35 14 46 0 18 27 84 58 140 11 18 16 20
32 12 26 -14 26 -62 0 -240 -25 -173 -25 -205 0 -230 24 -24 72 -26 94 -4 24
24 21 93 -6 121 -21 23 -21 26 -10 137 15 142 15 273 1 315 -17 47 -72 68 -98
37z"/>
<path d="M6249 22860 c-9 -6 -15 -53 -21 -152 -5 -79 -15 -180 -22 -226 -9
-60 -10 -88 -2 -104 16 -31 49 -40 76 -21 27 19 82 135 104 219 19 72 20 88 6
79 -5 -3 -10 -14 -10 -23 0 -26 -56 -83 -74 -76 -21 8 -21 85 0 194 16 86 12
103 -25 113 -10 2 -25 1 -32 -3z"/>
<path d="M6783 22843 c-14 -16 -34 -44 -44 -63 -11 -19 -23 -42 -29 -50 -5 -8
-17 -33 -26 -55 -24 -57 -76 -124 -95 -125 -30 0 -37 24 -38 127 0 107 -8 135
-41 153 -29 15 -59 -4 -76 -48 -8 -20 -20 -47 -26 -59 -13 -26 -3 -42 14 -25
18 18 38 14 58 -10 16 -20 18 -37 14 -142 -5 -102 -3 -121 12 -137 35 -39 62
-21 128 84 20 31 36 63 36 70 0 7 4 17 9 23 5 5 25 38 43 74 28 53 38 65 58
65 34 0 37 -36 10 -155 -11 -52 -20 -108 -20 -125 0 -47 46 -82 83 -63 15 8
16 12 3 36 -12 24 -11 43 10 162 29 165 34 251 15 273 -21 26 -68 21 -98 -10z"/>
<path d="M7330 22863 c-8 -3 -38 -14 -67 -25 -53 -19 -132 -85 -153 -127 -24
-47 -50 -184 -50 -263 0 -135 48 -184 169 -176 90 7 201 66 201 107 0 28 -22
31 -71 10 -99 -45 -133 -52 -173 -35 -35 15 -56 46 -56 85 0 15 18 23 92 40
210 50 327 180 274 304 -21 50 -59 79 -108 83 -24 2 -50 1 -58 -3z m90 -101
c51 -41 -15 -127 -147 -191 -106 -52 -147 -35 -117 51 38 112 195 196 264 140z"/>
<path d="M10926 22854 c-13 -13 -15 -30 -10 -92 4 -55 1 -97 -10 -145 -29
-123 17 -145 103 -49 102 112 157 163 195 184 38 20 39 20 64 1 41 -30 45 -64
25 -207 -17 -125 -17 -129 2 -142 46 -34 67 0 85 133 23 168 -1 291 -61 312
-63 22 -165 -23 -237 -106 -43 -49 -52 -55 -66 -44 -12 10 -16 31 -16 76 0 47
-4 66 -18 78 -23 21 -36 21 -56 1z"/>
<path d="M9730 21693 c-460 -4 -1067 -24 -2020 -68 -179 -8 -426 -20 -550 -25
-124 -5 -256 -12 -295 -15 -109 -7 -567 -33 -805 -45 -118 -6 -294 -15 -390
-20 -96 -5 -272 -14 -390 -20 -242 -12 -724 -38 -815 -45 -33 -2 -217 -11
-410 -19 -192 -9 -429 -21 -525 -26 -262 -15 -611 -30 -825 -34 -104 -2 -198
-5 -207 -5 -22 -1 -41 -36 -33 -60 11 -34 56 -44 147 -32 46 6 162 13 258 16
164 5 253 9 445 20 44 3 271 14 505 25 234 11 490 24 570 29 278 20 771 48
1235 71 116 6 237 13 270 15 33 3 155 9 270 15 116 6 289 15 385 20 96 6 317
17 490 25 173 8 347 17 385 20 84 6 431 22 790 35 143 5 292 12 330 15 39 2
153 7 255 10 102 4 226 8 275 11 175 9 1275 11 1680 3 823 -15 1264 -32 1447
-55 39 -5 49 -4 54 11 11 27 -36 66 -92 76 -129 24 -1718 58 -2434 52z"/>
<path d="M27865 19915 c-5 -2 -136 -9 -290 -15 -247 -10 -416 -20 -970 -59
-168 -12 -423 -19 -1190 -31 -319 -6 -679 -14 -800 -20 -121 -5 -600 -12
-1065 -15 -872 -5 -1245 -11 -1435 -21 -60 -3 -441 -9 -845 -14 -643 -8 -964
-17 -1225 -35 -510 -34 -2956 -53 -4040 -31 -143 3 -408 8 -590 11 -181 3
-454 10 -605 16 -593 25 -1636 -7 -2395 -72 -256 -21 -769 -62 -1060 -84 -104
-8 -221 -17 -260 -20 -207 -16 -577 -36 -855 -45 -173 -6 -389 -15 -480 -20
-91 -5 -300 -14 -465 -20 -817 -29 -1036 -43 -1607 -105 -201 -22 -345 -60
-379 -101 -10 -13 -14 -45 -13 -123 0 -89 7 -133 42 -271 22 -91 68 -289 102
-440 34 -151 69 -311 80 -355 44 -187 86 -436 125 -730 9 -66 23 -167 31 -225
14 -103 63 -477 84 -635 47 -367 55 -845 20 -1180 -5 -49 -14 -141 -20 -204
-6 -62 -18 -127 -26 -143 -19 -37 -11 -76 19 -87 13 -5 70 -3 137 4 63 7 282
16 485 19 204 4 384 9 400 12 17 2 138 11 270 19 132 8 312 25 400 39 379 59
644 69 805 30 36 -9 104 -19 153 -23 91 -8 127 -26 127 -62 0 -9 21 -34 46
-55 l45 -39 7 -240 c8 -300 8 -390 -1 -800 -4 -181 -3 -349 2 -372 10 -50 4
-58 -56 -68 -45 -7 -103 -59 -103 -92 0 -13 -12 -15 -92 -9 -92 7 -168 3 -568
-31 -204 -17 -891 -24 -1385 -14 -111 2 -234 -1 -295 -8 -103 -12 -513 -79
-620 -102 -35 -7 -195 -12 -442 -14 -394 -2 -418 -4 -418 -40 0 -6 11 -25 24
-40 l25 -29 328 -2 328 -2 215 34 c118 18 238 38 265 44 117 23 357 50 450 50
55 0 327 -3 605 -6 509 -7 615 -4 1030 31 91 8 246 18 346 21 l181 7 19 -27
c36 -52 86 -106 99 -106 28 0 37 -27 27 -77 -10 -46 -14 -118 -27 -503 -8
-228 13 -417 51 -455 27 -26 77 -17 210 39 334 140 613 200 1119 240 451 36
1307 75 1985 91 146 3 346 10 445 15 544 28 715 31 1550 27 549 -2 936 -8
1030 -16 194 -15 301 -18 311 -8 10 10 5 226 -7 290 -5 26 -18 129 -29 230
-11 100 -36 280 -55 400 -39 246 -61 455 -70 667 -6 144 -9 192 -21 367 l-6
92 43 21 c76 38 119 91 119 145 0 14 6 25 13 26 6 0 174 0 372 0 198 0 466 7
595 14 129 8 366 17 525 20 160 3 418 12 575 20 157 8 404 19 550 25 146 5
380 21 520 34 510 49 2029 121 2053 97 7 -7 7 -52 -1 -148 -7 -76 -13 -241
-14 -366 -2 -193 -5 -230 -18 -237 -22 -11 -459 -24 -721 -22 -202 3 -227 1
-240 -14 -11 -13 -14 -62 -15 -224 -1 -113 -7 -253 -13 -311 -11 -97 -21
-1033 -13 -1189 2 -36 10 -168 18 -295 30 -469 34 -556 35 -850 1 -165 2 -318
3 -340 1 -47 5 -46 -204 -70 -80 -10 -197 -28 -260 -42 -297 -63 -570 -97
-980 -123 -91 -6 -302 -21 -470 -35 -168 -13 -433 -28 -590 -34 -157 -6 -344
-17 -415 -25 -72 -8 -206 -20 -300 -26 -183 -12 -417 -34 -530 -50 -153 -22
-370 -41 -575 -50 -264 -13 -411 -32 -960 -125 -252 -43 -270 -38 -259 77 4
40 6 93 4 118 -3 25 -7 128 -10 230 -5 171 -7 186 -26 203 -26 21 -64 22 -166
2 -126 -25 -534 -63 -958 -90 -126 -8 -374 -26 -550 -40 -643 -49 -648 -49
-932 -35 -211 10 -265 10 -278 0 -8 -7 -13 -16 -10 -20 3 -5 12 -57 20 -117 9
-59 22 -139 30 -178 50 -248 59 -356 59 -760 1 -348 -1 -395 -16 -432 -19 -46
-13 -85 16 -96 8 -3 39 2 68 13 36 12 97 20 193 24 362 17 542 28 685 43 117
12 290 16 710 18 654 3 954 15 977 38 12 12 15 47 17 190 1 158 3 177 21 197
24 26 11 53 -27 58 -37 4 -37 4 -68 -287 -5 -52 -12 -96 -14 -99 -8 -7 -227
-11 -866 -16 -452 -3 -661 -9 -790 -21 -148 -13 -714 -47 -803 -48 -45 0 -52
14 -38 80 19 88 25 405 12 617 -12 197 -34 361 -78 580 -28 141 -26 152 30
141 15 -2 121 -7 235 -11 163 -5 266 -1 482 15 500 39 663 51 865 61 366 19
859 59 979 79 74 13 125 17 135 12 14 -8 17 -40 19 -280 2 -247 1 -271 -15
-280 -17 -9 -17 -11 -1 -45 15 -30 17 -71 18 -263 0 -125 -4 -275 -9 -333 -6
-58 -10 -117 -11 -132 0 -34 31 -54 59 -39 16 9 20 26 25 108 14 242 17 443 8
513 -8 52 -8 78 0 87 7 9 36 13 85 13 42 0 166 16 277 35 503 86 550 92 791
105 234 12 370 23 590 50 242 29 336 39 495 50 80 6 244 20 365 31 121 11 339
24 485 29 239 9 601 32 705 45 22 3 159 12 305 20 146 9 281 18 300 20 19 2
82 9 140 15 179 19 302 37 521 80 80 16 231 39 334 51 134 16 193 27 205 39
13 13 15 69 14 455 -1 300 -7 504 -17 640 -32 400 -40 669 -34 1130 4 248 12
509 18 580 13 145 17 272 9 355 l-5 55 230 1 c127 1 302 8 390 15 88 8 187 14
220 14 l60 0 -2 -120 c-2 -108 -4 -121 -23 -134 -24 -16 -26 -53 -5 -71 12
-10 15 -40 15 -149 1 -260 13 -275 192 -230 68 17 134 22 363 29 154 5 300 11
325 14 53 6 306 14 720 21 608 11 862 17 1110 26 290 10 1022 28 1333 32 169
2 210 5 217 17 9 15 3 57 -10 75 -4 6 -11 35 -14 65 -4 30 -16 109 -27 175
-40 245 -56 363 -69 510 -15 177 -18 201 -37 298 -19 102 -16 107 51 100 37
-5 44 -2 59 20 9 14 19 37 23 51 8 35 25 42 109 50 39 4 111 14 160 21 85 13
220 22 680 45 110 5 245 17 300 26 55 9 198 19 317 22 246 8 256 11 238 72 -6
22 -7 143 -3 325 3 159 6 306 7 325 0 19 -3 134 -7 255 -4 121 -10 357 -13
525 -4 168 -8 323 -10 345 -5 60 -5 796 0 910 3 55 7 264 10 465 3 201 11 466
18 590 12 246 13 264 8 550 -2 139 1 212 10 255 8 34 14 120 14 197 1 131 0
137 -23 162 -51 55 -218 117 -363 136 -71 9 -193 12 -213 5z m210 -99 c68 -6
202 -44 261 -74 49 -25 78 -57 71 -77 -11 -28 -49 -349 -50 -420 0 -38 1 -183
2 -322 2 -138 1 -256 -3 -261 -3 -5 -8 -157 -11 -338 -3 -181 -10 -475 -16
-654 -9 -327 -13 -985 -6 -998 9 -14 18 -477 22 -1112 4 -510 2 -656 -8 -662
-6 -4 -86 -8 -177 -8 -106 0 -222 -7 -325 -20 -89 -12 -280 -25 -430 -30 -308
-11 -427 -21 -637 -51 l-149 -21 -37 25 c-20 14 -53 28 -72 32 -19 3 -42 8
-50 11 -13 3 -16 43 -18 281 -2 255 -8 354 -41 624 -6 43 -8 111 -5 152 4 73
4 76 -23 95 -31 22 -114 57 -155 66 -15 4 -91 -4 -170 -16 -133 -21 -176 -23
-633 -23 -269 -1 -528 -4 -575 -8 -47 -4 -238 -14 -425 -22 -373 -16 -398 -18
-725 -41 -184 -13 -316 -15 -730 -10 -623 8 -591 9 -613 -12 -22 -20 -20 -49
12 -167 43 -160 113 -876 88 -902 -3 -2 -40 1 -81 8 -60 9 -134 9 -339 0 -595
-26 -1362 -71 -1542 -91 -288 -31 -488 -44 -875 -55 -113 -3 -254 -10 -315
-16 -60 -5 -297 -14 -525 -19 -228 -6 -494 -14 -590 -19 -96 -5 -349 -9 -561
-8 l-385 2 -32 27 c-27 22 -41 27 -81 25 -27 -1 -52 1 -56 5 -3 3 -2 41 4 83
20 141 11 392 -29 815 -10 113 -22 288 -25 390 -5 159 -16 274 -42 467 -7 51
-32 76 -76 77 -17 0 -108 -9 -202 -19 -255 -28 -553 -25 -800 10 -257 35 -456
41 -735 21 -124 -9 -283 -21 -355 -26 -71 -5 -188 -17 -260 -26 -81 -10 -224
-18 -380 -19 -425 -6 -1279 -55 -1720 -100 -77 -8 -221 -19 -320 -25 -99 -6
-281 -17 -405 -26 -479 -32 -601 -36 -840 -30 -135 4 -267 11 -295 16 -27 5
-74 13 -102 16 -65 8 -75 -7 -49 -75 80 -209 103 -344 136 -786 11 -148 25
-302 32 -341 6 -39 9 -78 5 -87 -13 -35 -157 -34 -317 4 -153 37 -277 41 -498
18 -108 -11 -262 -31 -342 -44 -80 -13 -185 -26 -235 -29 -438 -29 -572 -36
-860 -41 -181 -3 -368 -10 -414 -16 -98 -12 -141 -5 -141 20 0 10 9 46 20 80
43 136 73 732 51 1031 -14 187 -43 440 -91 790 -11 80 -34 249 -51 375 -17
127 -34 257 -38 290 -10 68 -30 180 -68 370 -14 72 -29 148 -34 170 -4 22 -21
103 -38 180 -18 77 -45 203 -61 280 -16 77 -48 217 -71 310 -26 107 -43 203
-46 261 l-6 91 34 15 c121 56 979 132 1729 153 118 3 339 12 490 20 151 8 430
19 620 25 347 11 546 22 1045 60 353 26 998 78 1055 85 176 20 777 56 1220 72
315 12 1222 9 1540 -5 386 -17 915 -22 2120 -22 1390 -1 2252 13 2905 45 476
23 553 25 1215 30 349 3 761 10 915 15 153 6 700 12 1215 15 514 3 1050 10
1190 16 140 5 568 14 950 19 710 10 1062 21 1275 39 305 26 442 34 745 45 179
7 339 11 355 9 17 -1 57 -4 90 -7z m-12265 -3365 c216 -34 366 -44 603 -38
122 3 280 13 350 22 94 13 131 15 140 6 12 -12 35 -310 36 -471 1 -58 13 -224
27 -370 15 -156 29 -388 34 -565 5 -165 12 -312 15 -326 8 -30 -2 -39 -68 -63
-33 -12 -49 -24 -53 -41 -11 -43 0 -69 39 -94 20 -13 37 -31 37 -39 0 -9 11
-34 24 -56 22 -38 24 -51 24 -196 1 -142 17 -518 27 -615 15 -150 28 -249 40
-310 7 -38 25 -167 40 -285 14 -118 35 -280 47 -360 22 -161 22 -160 20 -213
l-2 -39 -137 7 c-76 4 -174 11 -218 16 -83 10 -1797 13 -2005 3 -63 -3 -191
-9 -285 -14 -93 -5 -422 -16 -730 -25 -308 -8 -648 -19 -755 -25 -107 -5 -307
-14 -445 -20 -955 -39 -1416 -110 -1790 -275 -98 -44 -133 -55 -156 -50 -37 8
-35 -54 -25 663 l4 302 40 48 c51 61 62 83 62 125 0 19 7 40 15 47 8 7 15 18
15 25 0 16 -78 85 -96 85 -23 0 -24 17 -10 87 37 174 37 1157 1 1373 -6 32 -3
37 29 58 57 39 116 104 116 129 0 32 -42 69 -101 88 -57 19 -70 38 -62 88 9
58 -28 582 -58 812 -6 44 -24 126 -41 183 -16 57 -27 106 -24 109 3 3 69 0
147 -7 162 -15 494 -9 809 14 107 8 283 20 390 26 289 15 465 28 765 56 396
36 1281 78 1490 71 324 -11 522 -19 665 -25 85 -4 167 -4 182 1 33 11 43 34
24 61 -14 21 -13 21 158 33 234 15 491 9 646 -16z m10498 -522 c19 -12 20 -19
15 -94 -3 -47 1 -131 10 -205 17 -134 24 -242 33 -465 3 -77 9 -156 13 -177
10 -43 8 -46 -64 -79 -103 -48 -169 -138 -190 -259 -9 -50 13 -78 51 -65 31
11 40 31 50 110 5 42 13 57 54 97 38 39 54 48 83 48 l35 0 12 -67 c6 -38 14
-144 16 -238 5 -185 27 -455 50 -605 8 -52 21 -140 29 -195 8 -55 22 -131 30
-170 28 -118 33 -150 29 -156 -2 -3 -205 -9 -451 -13 -246 -4 -623 -13 -838
-21 -214 -8 -619 -17 -900 -20 -280 -3 -692 -10 -915 -16 -223 -5 -486 -12
-585 -14 -117 -3 -205 -10 -250 -21 -38 -8 -91 -18 -116 -21 -57 -6 -55 -13
-51 193 l3 151 35 16 c183 88 478 167 709 192 76 8 159 50 163 83 4 28 -27 42
-172 77 -125 29 -225 69 -413 165 -136 68 -239 110 -274 110 -26 0 -31 15 -20
57 15 58 20 150 27 483 5 247 4 329 -9 430 -9 69 -21 188 -27 265 -7 77 -23
186 -37 243 -14 57 -22 106 -19 110 4 3 44 4 89 2 167 -10 880 -4 1117 8 889
46 1284 62 1552 62 l237 0 -2 -26 c-4 -47 17 -50 193 -25 89 12 205 26 259 30
53 4 103 11 111 16 23 14 202 31 256 24 28 -4 60 -13 72 -20z m-9118 -1369
c13 -8 13 -13 0 -37 -22 -40 -69 -64 -105 -55 -25 7 -31 14 -33 42 -3 24 2 38
14 47 21 15 102 17 124 3z m5495 -477 c186 -81 258 -108 360 -138 44 -12 79
-26 78 -31 -1 -5 -64 -19 -140 -31 -162 -27 -261 -58 -395 -120 -53 -25 -104
-43 -112 -40 -13 5 -15 22 -11 108 4 85 8 106 25 124 25 27 25 41 0 55 -16 9
-20 21 -20 68 0 63 13 85 45 76 11 -3 88 -35 170 -71z m-12005 -903 c16 -10
15 -12 -22 -28 -29 -12 -44 -2 -34 23 6 17 34 19 56 5z"/>
<path d="M12734 18165 c-15 -23 -15 -27 1 -52 16 -24 17 -49 13 -252 l-5 -226
-32 -75 c-38 -88 -38 -125 -1 -125 21 0 26 6 34 40 20 91 26 112 40 130 14 19
15 19 35 1 12 -11 21 -29 21 -41 0 -37 42 -87 85 -102 69 -25 172 -12 259 30
133 66 300 247 228 247 -9 0 -46 -26 -82 -58 -146 -130 -270 -171 -376 -123
-143 65 -78 177 186 323 119 66 180 135 134 152 -34 13 -35 12 -196 -90 -92
-59 -117 -77 -181 -139 -101 -96 -116 -89 -92 41 21 110 25 291 7 322 -17 30
-57 29 -78 -3z"/>
<path d="M11302 18163 c-17 -32 -80 -247 -91 -308 -18 -104 -33 -337 -26 -409
13 -138 50 -181 156 -179 143 2 385 103 377 157 -4 31 -39 31 -100 0 -102 -52
-250 -78 -312 -54 -14 5 -33 21 -42 36 -16 24 -17 40 -5 208 6 100 22 231 34
291 l22 110 43 3 c37 3 42 6 42 27 0 47 -50 135 -76 135 -7 0 -17 -8 -22 -17z"/>
<path d="M14283 18084 c-81 -30 -193 -183 -193 -264 0 -28 -28 -50 -64 -50
-42 0 -75 -32 -56 -54 6 -9 22 -18 33 -22 46 -14 55 -30 45 -87 -22 -137 -28
-230 -17 -243 18 -21 47 -17 65 11 12 19 16 50 15 149 0 69 3 127 7 130 4 3
44 0 87 -6 94 -12 266 2 354 29 65 21 125 75 136 121 12 56 -14 112 -85 182
-36 36 -88 77 -115 90 -62 30 -152 36 -212 14z m174 -99 c53 -27 173 -143 173
-168 0 -20 -17 -32 -75 -50 -107 -34 -344 -47 -407 -22 -25 10 -22 41 10 105
62 125 104 160 193 160 39 0 70 -7 106 -25z"/>
<path d="M13914 18035 c-8 -20 -22 -64 -30 -98 -23 -86 -111 -282 -145 -318
-32 -34 -47 -36 -82 -9 -48 38 -63 208 -28 315 22 65 21 70 -9 78 -75 20 -112
-205 -61 -372 25 -83 64 -131 106 -131 37 0 98 34 130 72 39 45 100 179 146
321 43 129 47 162 23 171 -28 11 -35 7 -50 -29z"/>
<path d="M12410 17881 c-47 -15 -91 -42 -129 -80 -36 -36 -41 -38 -62 -25 -83
48 -112 57 -171 50 -32 -3 -71 -12 -85 -19 -20 -11 -36 -12 -65 -4 -55 14 -85
-5 -116 -71 -49 -107 -14 -276 67 -329 70 -47 184 -18 279 71 27 26 54 46 60
46 6 0 20 -25 31 -56 49 -128 81 -164 149 -164 152 0 289 234 252 430 -22 117
-111 181 -210 151z m91 -104 c77 -51 86 -132 28 -257 -86 -188 -231 -168 -268
36 -10 52 -9 70 5 110 20 60 28 70 83 106 55 35 105 37 152 5z m-374 -57 c79
-36 79 -95 1 -166 -45 -40 -131 -84 -166 -84 -71 0 -165 88 -127 120 8 6 17
24 20 40 7 32 62 81 110 98 47 17 116 13 162 -8z"/>
<path d="M23790 17615 c-9 -11 -12 -56 -8 -185 2 -94 1 -170 -4 -170 -4 0 -26
-16 -48 -36 -31 -28 -40 -44 -40 -69 0 -18 6 -38 14 -44 12 -10 18 -7 31 13
11 16 27 26 41 26 23 0 24 -4 24 -59 0 -32 -5 -82 -10 -111 -12 -61 -2 -80 40
-80 50 0 56 48 29 225 -9 66 -9 71 11 87 33 27 127 43 178 29 23 -6 53 -11 67
-11 31 0 34 -5 44 -90 10 -81 37 -139 89 -192 59 -62 139 -61 205 1 47 42 60
77 53 134 -16 116 -89 191 -221 226 -50 13 -290 17 -369 6 l-59 -8 8 94 c4 52
8 123 9 159 l1 65 -36 3 c-23 2 -40 -2 -49 -13z m535 -394 c51 -23 115 -93
115 -126 0 -13 -14 -40 -31 -60 -27 -30 -37 -35 -74 -35 -36 0 -47 5 -63 28
-22 31 -62 152 -62 188 0 21 5 24 38 24 20 0 55 -9 77 -19z"/>
<path d="M23313 17601 c-6 -25 0 -24 -77 -10 -103 17 -250 -24 -381 -107 -88
-56 -115 -98 -115 -179 0 -87 91 -154 209 -155 71 0 132 14 308 71 172 55 243
52 284 -13 46 -73 -2 -246 -96 -342 -66 -69 -124 -91 -230 -90 -49 0 -109 4
-132 8 -35 7 -43 6 -43 -6 0 -19 24 -40 80 -69 70 -36 165 -33 252 8 116 54
218 172 249 285 15 56 14 169 -1 199 -34 66 -81 109 -135 125 -71 20 -111 14
-305 -48 -127 -41 -169 -50 -233 -52 -74 -1 -80 0 -103 27 -13 15 -24 39 -24
52 0 85 139 179 305 207 73 12 132 5 185 -22 31 -16 45 -18 60 -10 28 15 25
48 -5 62 -30 14 -32 24 -4 33 29 10 20 39 -14 43 -22 3 -30 -1 -34 -17z"/>
<path d="M24882 17520 c-77 -35 -177 -118 -217 -180 -55 -86 -75 -273 -35
-337 14 -23 27 -33 45 -33 32 0 51 31 60 96 6 45 4 54 -20 82 -25 30 -26 34
-14 69 6 20 21 51 31 70 28 46 138 135 214 173 72 35 82 45 57 58 -40 21 -78
22 -121 2z"/>
<path d="M25282 17520 c-23 -11 -64 -41 -90 -68 -62 -64 -86 -129 -87 -246
l-2 -89 56 -58 c84 -86 169 -113 303 -99 136 15 258 84 258 146 0 49 -39 111
-111 175 -84 74 -86 93 -17 127 33 17 73 25 147 31 118 9 139 21 99 55 -48 42
-173 42 -274 0 -42 -18 -81 -18 -91 -1 -30 49 -117 61 -191 27z m168 -79 c15
-28 12 -69 -6 -99 -37 -61 -206 -176 -249 -170 -45 7 -25 114 38 202 34 48
104 86 159 86 37 0 50 -4 58 -19z m140 -232 l64 -72 -27 -22 c-14 -13 -52 -33
-84 -46 -77 -30 -239 -32 -293 -4 l-35 18 55 26 c92 45 164 96 190 134 36 54
56 48 130 -34z"/>
<path d="M15756 17404 c-23 -22 -20 -53 19 -203 34 -132 36 -151 12 -151 -7 0
-28 -13 -46 -28 -27 -22 -32 -33 -27 -50 8 -23 35 -29 53 -11 6 6 21 9 34 7
24 -3 24 -5 21 -95 -3 -82 -1 -93 16 -102 14 -7 24 -7 37 3 16 12 17 24 11
119 -7 99 -6 106 13 116 27 15 66 14 78 -1 6 -7 16 -29 22 -49 25 -79 107
-122 265 -140 169 -20 296 7 296 61 0 36 -25 43 -107 31 -151 -21 -344 26
-389 94 -9 14 -14 28 -11 31 3 3 45 16 94 29 123 33 171 51 211 81 91 70 64
162 -50 172 -91 7 -219 -66 -278 -158 -44 -68 -47 -70 -99 -70 -27 0 -53 6
-58 13 -6 6 -16 72 -23 146 -11 105 -18 139 -32 153 -22 22 -42 23 -62 2z
m563 -183 c26 -16 -5 -39 -88 -65 -77 -24 -101 -29 -135 -27 -18 1 -18 3 4 26
53 57 176 93 219 66z"/>
<path d="M14735 17330 c-62 -13 -133 -47 -201 -95 -77 -56 -104 -96 -104 -160
0 -43 4 -52 39 -85 22 -21 76 -57 121 -81 44 -24 95 -56 113 -71 l32 -28 -40
-36 c-60 -53 -174 -104 -251 -111 -53 -5 -68 -10 -80 -28 -18 -28 -10 -50 25
-65 34 -14 119 12 221 67 114 61 170 137 170 233 0 42 -26 65 -148 129 -111
58 -148 92 -132 121 14 27 110 88 172 110 106 37 220 19 260 -42 22 -34 78
-170 78 -190 0 -10 -17 -28 -37 -42 -61 -38 -90 -74 -103 -124 -20 -86 14
-131 107 -139 56 -5 60 -4 91 28 45 46 49 76 29 233 -2 15 21 30 113 72 113
52 170 66 170 42 0 -7 -16 -46 -36 -86 -59 -119 -55 -194 10 -194 19 0 36 9
51 28 21 26 50 107 57 159 5 29 34 30 53 1 9 -14 27 -70 39 -125 27 -120 45
-151 86 -151 24 0 31 5 36 27 4 15 2 33 -5 42 -40 56 -121 312 -121 385 0 60
-14 86 -46 86 -18 0 -27 -8 -35 -27 -13 -36 -17 -38 -134 -74 -55 -17 -126
-44 -157 -60 -62 -31 -92 -36 -105 -16 -4 6 -19 46 -33 87 -14 42 -36 90 -48
107 -43 61 -160 94 -257 73z m685 -350 c0 -5 -4 -10 -10 -10 -5 0 -10 5 -10
10 0 6 5 10 10 10 6 0 10 -4 10 -10z m-380 -89 c16 -30 13 -121 -4 -127 -19
-7 -106 31 -107 48 -3 30 4 44 34 70 38 32 62 35 77 9z"/>
<path d="M20328 17308 c-39 -31 -41 -166 -7 -336 6 -29 9 -59 6 -65 -3 -7 -33
-21 -68 -32 -77 -22 -122 -62 -117 -101 5 -48 32 -53 78 -15 42 34 112 52 124
33 3 -6 11 -55 16 -109 10 -109 42 -257 61 -279 13 -16 28 -18 48 -5 14 9 2
89 -51 319 -11 51 -19 95 -16 97 10 10 112 25 215 31 59 4 118 11 131 15 30
11 28 35 -5 56 -28 18 -34 19 -308 10 l-50 -2 0 140 c0 77 3 159 8 182 10 59
-25 92 -65 61z"/>
<path d="M13434 17273 c-23 -33 -24 -109 -5 -199 13 -61 13 -61 -14 -88 -36
-36 -31 -68 15 -82 l35 -12 21 -137 c13 -89 25 -140 35 -146 22 -14 49 -11 55
6 8 20 -13 161 -38 259 -12 47 -16 82 -11 87 13 13 103 27 243 39 159 14 190
20 197 38 4 9 -3 22 -16 34 -32 25 -203 25 -321 -1 -110 -25 -133 -17 -137 49
-2 25 4 69 13 98 12 42 12 57 3 68 -19 23 -55 17 -75 -13z"/>
<path d="M12787 17064 c-15 -15 -6 -77 18 -128 14 -29 47 -76 75 -105 27 -29
50 -55 50 -58 0 -3 -28 -31 -62 -62 -103 -93 -139 -171 -86 -184 23 -6 23 -6
118 116 45 57 66 77 84 77 13 0 63 -19 112 -42 121 -57 185 -55 170 5 -4 19
-24 32 -93 61 -107 44 -121 52 -108 64 6 4 45 34 88 67 87 65 161 141 152 155
-11 18 -52 10 -91 -18 -21 -16 -74 -61 -116 -101 l-77 -72 -33 14 c-39 16 -59
43 -108 141 -28 57 -40 72 -60 74 -14 2 -29 0 -33 -4z"/>
<path d="M11985 17008 c-94 -74 -138 -124 -172 -195 -18 -40 -39 -75 -45 -79
-20 -13 -44 32 -57 107 -15 84 -24 99 -57 99 -34 0 -42 -42 -20 -100 32 -84
76 -262 76 -309 0 -50 13 -71 42 -71 26 0 39 33 37 97 -3 112 21 176 105 277
54 66 70 81 101 102 24 16 27 16 46 -2 27 -24 34 -42 76 -204 19 -74 42 -143
50 -152 20 -22 56 -23 73 -3 13 16 6 65 -9 65 -11 0 -25 43 -72 219 -49 183
-89 217 -174 149z"/>
<path d="M12405 17024 c-113 -58 -135 -173 -59 -301 68 -113 125 -153 216
-153 65 1 153 43 153 75 0 19 -6 20 -86 17 -102 -4 -148 13 -198 77 -34 43
-33 45 19 56 66 13 136 63 160 115 18 39 20 51 10 69 -27 52 -153 78 -215 45z
m114 -85 c39 -14 36 -28 -10 -51 -55 -29 -149 -18 -149 16 0 37 94 58 159 35z"/>
<path d="M20118 16929 c-13 -16 -70 -81 -127 -144 -57 -63 -114 -129 -128
-147 -30 -42 -44 -49 -76 -40 -36 10 -146 118 -192 189 -21 32 -45 64 -53 71
-25 20 -52 14 -62 -14 -21 -54 56 -162 188 -265 37 -29 71 -56 76 -60 5 -4
-23 -42 -61 -83 -85 -91 -134 -189 -115 -231 8 -17 20 -25 36 -25 30 0 43 15
60 73 7 25 38 82 67 126 62 95 77 99 161 50 64 -38 134 -50 144 -24 9 23 -17
46 -103 91 -40 20 -73 40 -73 45 0 4 12 18 28 31 86 74 282 334 282 374 0 24
-27 16 -52 -17z"/>
<path d="M19105 16781 c-47 -12 -70 -27 -115 -78 -58 -66 -69 -91 -73 -163 -3
-53 -7 -64 -24 -71 -47 -17 -32 -73 26 -96 27 -10 56 -36 91 -80 65 -81 126
-113 216 -113 100 0 204 64 158 97 -22 16 -31 16 -97 -1 -69 -18 -138 -6 -192
33 -55 40 -55 54 0 75 114 44 190 143 190 247 0 45 -5 62 -28 92 -41 54 -91
73 -152 58z m82 -97 c53 -33 49 -75 -12 -150 -54 -66 -151 -104 -183 -72 -7 7
-12 34 -12 61 0 51 30 107 81 153 40 36 77 38 126 8z"/>
<path d="M24696 16769 c-16 -10 -18 -23 -15 -133 l4 -121 -40 -5 c-41 -6 -82
-27 -88 -45 -3 -5 0 -21 4 -34 10 -24 5 -24 98 -5 16 3 31 1 35 -4 6 -11 -4
-91 -24 -185 -11 -51 -11 -60 3 -74 23 -23 65 -9 74 25 4 15 7 70 7 122 l1 95
56 3 c78 4 104 -9 133 -65 45 -90 119 -134 236 -141 123 -7 210 29 196 81 -9
36 -46 44 -96 22 -70 -32 -231 -7 -277 43 -34 37 -26 55 27 65 202 37 265 62
286 114 16 37 10 58 -30 101 -32 36 -81 52 -160 52 -126 0 -205 -54 -221 -152
-8 -45 -30 -55 -102 -42 -47 9 -48 10 -51 50 -2 23 4 72 12 108 20 84 20 101
0 120 -18 18 -41 20 -68 5z m527 -175 c58 -17 -37 -75 -159 -95 -105 -18 -127
-4 -76 50 44 49 150 68 235 45z"/>
<path d="M23723 16744 c-3 -9 5 -26 19 -42 39 -42 99 -134 95 -146 -2 -6 -22
-21 -45 -34 -49 -27 -66 -54 -58 -88 8 -32 46 -32 75 2 51 58 90 -1 93 -141 1
-79 10 -105 37 -105 49 0 49 41 5 204 -14 48 -22 91 -19 95 10 9 172 27 190
21 13 -5 13 -9 -5 -28 -32 -34 -70 -123 -70 -163 0 -83 56 -153 105 -131 32
15 83 86 91 128 14 76 65 65 84 -18 23 -97 75 -157 125 -144 33 8 32 26 -4 60
-43 41 -102 185 -114 279 -8 55 -16 81 -27 87 -10 5 -93 5 -200 -1 -101 -5
-189 -8 -196 -5 -7 3 -23 32 -35 66 -28 78 -66 120 -108 120 -19 0 -34 -6 -38
-16z m508 -286 c3 -28 -4 -51 -23 -86 -34 -59 -59 -82 -90 -82 -24 0 -28 4
-28 28 1 42 32 99 69 127 37 27 70 33 72 13z"/>
<path d="M18321 16645 c-44 -40 -74 -111 -97 -232 -15 -83 -24 -99 -47 -90
-15 6 -22 42 -33 171 -5 58 -12 84 -26 98 -27 27 -62 20 -66 -13 -3 -24 94
-420 117 -483 8 -18 18 -26 35 -26 29 0 35 15 41 100 9 148 47 323 83 383 15
26 25 32 51 30 18 0 42 -9 53 -20 41 -37 93 -169 123 -311 17 -83 60 -198 83
-224 19 -23 61 -23 69 -1 4 9 -5 36 -20 62 -14 26 -40 104 -57 175 -56 227
-90 313 -153 380 -29 30 -41 36 -76 36 -33 0 -49 -7 -80 -35z"/>
<path d="M23368 16475 c-115 -41 -218 -114 -218 -156 0 -29 54 -77 101 -89 24
-7 116 -25 205 -40 177 -30 207 -41 202 -72 -9 -63 -160 -91 -267 -49 -50 20
-91 21 -91 1 0 -17 87 -71 139 -87 106 -30 220 0 285 78 20 23 24 37 19 57 -9
40 -33 68 -78 91 -52 27 -92 36 -257 60 -76 11 -148 25 -160 32 l-22 12 31 27
c43 39 136 72 213 77 117 8 158 43 80 70 -53 18 -108 15 -182 -12z"/>
<path d="M19970 16091 c0 -31 37 -137 101 -290 40 -95 40 -110 2 -111 -42 0
-70 -83 -38 -110 13 -11 20 -9 38 9 50 46 72 26 107 -93 29 -101 50 -136 81
-136 40 0 33 40 -28 167 -20 40 -33 79 -30 86 6 15 58 27 119 27 29 0 41 -6
57 -29 29 -40 116 -97 184 -121 70 -25 215 -46 354 -53 109 -5 140 3 127 36
-12 33 -74 54 -174 60 -101 7 -213 27 -295 54 -60 20 -140 65 -140 80 0 6 31
28 69 48 90 48 153 100 178 150 69 134 -69 233 -219 156 -40 -20 -111 -90
-134 -132 -7 -13 -13 -55 -13 -94 l-1 -70 -45 -5 c-80 -9 -103 0 -117 45 -66
227 -100 331 -111 342 -7 7 -27 13 -43 13 -25 0 -29 -4 -29 -29z m651 -150
l24 -20 -60 -58 c-66 -64 -136 -103 -184 -103 -28 0 -31 3 -31 30 0 44 22 82
76 129 42 37 52 41 99 41 37 0 60 -6 76 -19z"/>
<path d="M18960 15956 c-79 -22 -120 -47 -206 -128 -84 -80 -151 -173 -173
-240 -7 -20 -13 -61 -14 -92 -4 -105 45 -137 256 -167 78 -11 145 -23 150 -28
13 -13 -39 -67 -108 -110 -84 -53 -192 -89 -304 -100 -50 -6 -95 -13 -101 -16
-20 -12 -10 -54 16 -72 23 -15 35 -15 110 -5 213 31 402 150 448 280 18 51 11
79 -24 97 -26 13 -54 19 -243 49 -49 8 -100 22 -114 31 -22 15 -25 22 -20 55
12 94 124 258 221 324 92 63 168 65 223 5 21 -23 113 -208 113 -227 0 -4 -16
-23 -35 -42 -53 -51 -40 -95 19 -68 14 6 31 8 39 5 12 -4 38 -97 72 -254 6
-27 45 -32 64 -9 14 16 -18 151 -60 259 -17 46 -20 60 -10 67 7 4 58 22 113
40 123 40 130 37 100 -55 -36 -109 -25 -213 28 -267 73 -72 152 -8 190 155 20
86 60 71 80 -31 17 -85 31 -119 61 -148 33 -31 70 -27 86 9 14 29 2 52 -40 78
-26 15 -35 30 -48 81 -44 172 -90 342 -94 349 -9 13 -44 17 -59 5 -13 -9 -14
-25 -5 -109 9 -92 8 -103 -15 -180 -17 -56 -34 -91 -54 -110 -37 -36 -69 -35
-83 1 -19 49 -3 130 47 230 51 100 50 122 -6 122 -27 0 -148 -35 -249 -71 -75
-27 -93 -21 -110 38 -18 60 -59 149 -90 191 -40 56 -100 77 -171 58z"/>
<path d="M13675 15926 c-14 -21 -15 -44 -5 -190 6 -92 9 -170 6 -175 -3 -5
-34 -12 -68 -15 -90 -11 -124 -49 -79 -90 15 -13 29 -16 68 -10 67 8 80 -7 65
-79 -10 -49 -15 -97 -13 -124 2 -18 40 -26 56 -13 11 9 15 37 15 111 0 94 1
100 23 108 33 12 153 24 176 16 12 -4 35 -38 61 -90 51 -106 124 -184 194
-208 85 -29 127 -22 224 36 57 34 67 61 29 78 -19 9 -36 5 -87 -16 -48 -20
-72 -25 -99 -20 -55 10 -106 43 -139 89 -32 45 -82 139 -82 155 0 6 34 29 76
52 107 59 134 84 134 122 -1 52 -41 88 -97 86 -45 -1 -164 -52 -185 -79 -10
-14 -22 -45 -26 -70 -7 -45 -8 -45 -52 -48 -25 -2 -65 -1 -89 3 l-43 7 6 56
c16 150 19 302 6 317 -19 23 -57 18 -75 -9z m459 -275 c7 -11 -65 -61 -88 -61
-52 0 -67 42 -22 60 28 12 103 12 110 1z"/>
<path d="M12265 15840 c-17 -19 -17 -25 -1 -137 9 -65 19 -147 22 -183 l6 -65
-36 -17 c-47 -23 -67 -62 -43 -85 13 -13 21 -14 40 -6 38 17 54 0 61 -64 4
-32 14 -103 22 -158 9 -55 18 -115 20 -133 4 -23 13 -36 30 -44 40 -18 49 0
35 68 -6 32 -11 73 -11 92 0 18 -12 92 -26 164 -17 81 -23 133 -17 139 5 5 70
22 143 39 74 16 185 42 247 56 61 15 119 24 127 21 15 -6 14 -11 -5 -49 -12
-24 -30 -54 -39 -68 -33 -47 -50 -128 -50 -239 1 -230 84 -290 184 -133 64
101 117 228 140 335 8 32 30 45 50 28 8 -7 24 -52 36 -101 41 -167 82 -240
124 -224 21 8 21 9 -18 127 -46 141 -77 256 -84 317 -6 42 -13 57 -35 74 -47
35 -213 29 -467 -18 -113 -20 -231 -46 -263 -56 -42 -14 -65 -16 -83 -10 l-24
10 0 159 c0 148 -1 161 -19 171 -29 15 -46 12 -66 -10z m839 -323 c23 -17 12
-88 -19 -125 -23 -28 -72 -121 -95 -182 -7 -19 -27 -59 -44 -87 -25 -43 -36
-53 -58 -53 -35 0 -42 23 -33 109 12 117 57 252 102 308 32 40 111 56 147 30z"/>
<path d="M11550 15726 c-66 -14 -172 -71 -217 -118 -45 -47 -66 -101 -58 -151
17 -95 57 -152 140 -194 71 -37 145 -51 329 -67 173 -14 218 -28 238 -71 14
-31 5 -60 -37 -118 -77 -104 -216 -177 -338 -177 -53 0 -70 -14 -55 -45 38
-84 224 -41 378 87 113 94 155 208 111 303 -38 83 -85 103 -275 115 -140 8
-222 27 -299 66 -49 26 -105 84 -118 122 -12 36 -12 36 36 79 61 53 116 72
226 80 73 5 92 3 133 -16 60 -26 68 -26 91 -1 63 70 -122 139 -285 106z"/>
<path d="M15275 15669 c-317 -40 -475 -68 -524 -94 -35 -17 -46 -46 -31 -75
14 -26 28 -25 142 5 51 13 172 36 268 50 320 47 340 52 340 80 0 19 -59 45
-97 44 -15 -1 -59 -5 -98 -10z"/>
<path d="M13920 14853 c-29 -10 -80 -67 -80 -88 0 -21 28 -55 44 -55 4 0 35
27 67 61 49 49 58 63 48 75 -11 14 -50 17 -79 7z"/>
<path d="M14290 14811 c-14 -27 -13 -42 14 -161 26 -112 24 -124 -22 -135 -77
-18 -146 -101 -122 -145 17 -32 57 -26 76 13 24 48 44 67 70 67 32 0 44 -28
45 -107 0 -37 6 -93 12 -123 10 -46 16 -56 40 -64 17 -6 31 -6 37 0 9 9 -1 95
-31 252 -16 90 -14 92 84 92 92 0 155 -23 189 -70 20 -28 38 -118 38 -193 0
-41 3 -49 25 -59 19 -8 28 -8 41 3 14 11 16 27 11 99 -8 145 -61 246 -151 292
-36 18 -51 20 -133 14 -133 -9 -133 -9 -133 119 0 93 -2 105 -19 115 -30 16
-59 12 -71 -9z"/>
<path d="M14690 14789 c-28 -52 25 -98 79 -68 35 20 36 35 7 64 -31 31 -71 33
-86 4z"/>
<path d="M15115 14651 c-51 -23 -77 -53 -73 -83 2 -18 10 -24 35 -26 43 -4 51
-17 63 -100 21 -151 88 -262 158 -262 29 0 44 8 82 48 50 52 90 141 90 199 0
97 -74 206 -156 231 -60 18 -152 15 -199 -7z m196 -86 c14 -8 40 -30 58 -50
24 -28 31 -45 31 -78 -1 -75 -59 -171 -99 -160 -35 9 -51 38 -76 138 -25 99
-31 156 -18 169 10 9 70 -2 104 -19z"/>
<path d="M13672 14635 c-42 -18 -81 -63 -82 -94 0 -39 56 -131 136 -221 81
-92 106 -130 96 -146 -12 -19 -98 -64 -121 -64 -44 0 -89 30 -110 73 -11 23
-36 102 -55 176 -19 73 -43 142 -52 152 -10 11 -31 19 -50 19 -47 0 -75 -41
-121 -177 -28 -85 -42 -113 -55 -113 -28 0 -33 20 -38 160 -5 134 -5 134 -32
150 -53 29 -82 -21 -59 -100 5 -19 17 -84 26 -145 26 -179 45 -225 96 -225 25
0 59 70 88 182 34 131 63 178 98 159 14 -7 25 -37 41 -113 50 -238 146 -329
284 -269 52 22 128 101 128 133 0 13 -13 46 -29 74 -28 52 -37 63 -151 203
-34 40 -59 78 -57 84 13 41 91 31 147 -19 66 -60 155 -255 143 -316 -6 -33 12
-68 37 -68 63 0 47 145 -35 313 -84 171 -175 235 -273 192z"/>
<path d="M15787 14600 c-19 -16 -49 -58 -67 -92 -18 -35 -34 -64 -35 -66 -1
-1 -13 2 -27 7 -21 8 -26 19 -36 76 -13 78 -26 97 -61 93 -35 -4 -38 -33 -10
-121 12 -40 27 -106 33 -147 10 -67 14 -75 34 -78 33 -5 53 17 97 105 45 93
81 143 100 143 45 0 140 -130 177 -241 12 -35 26 -70 31 -76 14 -18 56 -16 64
3 25 67 -122 351 -210 404 -42 26 -50 25 -90 -10z"/>
<path d="M12587 14548 c-22 -31 -66 -101 -148 -239 -48 -80 -53 -85 -82 -72
-20 9 -23 18 -24 71 -4 116 -60 182 -155 182 -59 -1 -188 -28 -258 -55 -50
-19 -87 -22 -101 -8 -5 5 -13 33 -18 61 -10 65 -25 84 -65 80 -28 -3 -31 -7
-34 -39 -2 -23 7 -61 23 -100 29 -71 32 -63 -49 -111 -47 -28 -58 -52 -34 -76
19 -19 39 -14 70 14 25 25 29 26 50 12 15 -10 29 -37 41 -75 18 -62 127 -285
155 -315 8 -10 26 -18 40 -18 22 0 24 3 19 29 -3 16 -35 87 -70 158 -76 154
-120 260 -112 273 3 5 29 16 58 24 29 9 91 27 138 41 134 39 197 30 229 -31
20 -37 17 -220 -5 -320 -19 -85 -11 -107 34 -102 22 3 29 13 52 78 43 123 87
220 121 264 17 22 33 42 34 44 1 2 12 -1 23 -8 19 -10 21 -20 21 -113 0 -123
12 -174 45 -189 19 -8 30 -7 58 11 50 31 84 112 122 294 5 27 19 33 43 18 8
-4 22 -48 33 -97 11 -49 30 -109 42 -134 18 -38 27 -45 55 -48 27 -3 32 0 32
18 0 11 -7 34 -15 50 -14 27 -37 99 -96 302 -33 115 -42 135 -69 143 -40 13
-51 -11 -49 -99 2 -86 -7 -129 -47 -238 -33 -87 -53 -113 -82 -104 -20 7 -22
14 -22 96 0 106 12 168 51 263 22 53 26 73 18 83 -19 23 -47 16 -72 -18z"/>
<path d="M14860 13871 c-34 -34 -45 -68 -36 -116 8 -43 43 -56 81 -31 20 13
25 25 25 56 0 21 5 50 11 64 9 20 9 29 -1 41 -19 23 -48 18 -80 -14z"/>
<path d="M15169 13829 c-27 -27 -21 -66 32 -180 21 -47 39 -93 39 -101 0 -9
-16 -20 -39 -27 -167 -49 -277 -157 -210 -204 28 -21 52 -11 88 34 57 70 159
114 182 78 5 -8 9 -80 9 -161 0 -141 1 -148 22 -159 19 -10 24 -8 41 12 18 22
19 35 13 149 -3 69 -9 142 -12 162 -8 49 1 52 176 68 74 7 143 17 153 22 24
13 21 35 -8 54 -22 14 -41 16 -133 9 -160 -11 -191 -10 -202 1 -6 6 -15 50
-21 100 -5 49 -15 102 -21 117 -19 49 -73 62 -109 26z"/>
<path d="M12662 13688 c-17 -17 -15 -63 3 -98 13 -24 22 -30 49 -30 78 0 89
87 16 125 -35 18 -52 19 -68 3z"/>
<path d="M13295 13542 c-27 -10 -64 -26 -80 -34 -34 -18 -125 -111 -145 -147
-18 -34 -110 -318 -110 -340 0 -27 35 -54 60 -46 31 10 47 43 54 112 9 85 42
196 70 242 14 21 43 54 67 74 40 35 70 48 191 81 65 18 73 26 54 51 -19 26
-99 30 -161 7z"/>
<path d="M12094 13423 c-82 -42 -167 -87 -189 -101 -201 -126 -298 -325 -221
-457 32 -53 117 -114 198 -141 64 -21 187 -14 268 15 133 47 230 108 230 146
0 34 -47 27 -146 -22 l-99 -48 -115 0 c-109 0 -118 2 -169 30 -57 31 -104 81
-120 126 -20 58 76 202 181 272 112 73 277 149 344 157 70 9 94 22 94 51 0 21
-47 49 -83 49 -14 0 -92 -34 -173 -77z"/>
<path d="M14727 13411 c-10 -15 -11 -37 -6 -88 5 -37 8 -122 8 -189 1 -106 3
-123 20 -138 11 -10 30 -16 43 -14 23 3 23 3 29 193 5 185 0 232 -24 247 -22
14 -56 8 -70 -11z"/>
<path d="M13740 13386 c-20 -8 -61 -30 -92 -49 -85 -55 -118 -112 -118 -205 2
-183 180 -272 363 -180 53 26 117 87 117 109 0 36 -30 33 -112 -10 -88 -45
-149 -53 -212 -27 -70 29 -98 115 -61 186 21 40 87 76 165 90 104 19 121 36
77 78 -27 25 -73 28 -127 8z"/>
<path d="M14143 13332 c-52 -33 -82 -269 -48 -371 21 -63 72 -118 119 -126 75
-14 169 55 282 206 82 111 114 180 94 204 -24 29 -47 17 -81 -42 -86 -152
-201 -273 -259 -273 -39 0 -78 35 -90 80 -14 53 4 172 35 228 31 55 31 67 3
86 -25 18 -37 19 -55 8z"/>
<path d="M12599 13293 c-7 -17 -8 -59 -4 -109 11 -130 40 -194 90 -194 36 0
41 23 16 80 -23 54 -27 127 -9 176 10 29 9 36 -7 54 -28 30 -73 27 -86 -7z"/>
<path d="M25669 15253 c-8 -20 -8 -43 0 -78 6 -28 16 -87 22 -130 5 -44 12
-97 15 -119 5 -35 2 -41 -35 -72 -22 -19 -43 -44 -46 -55 -10 -29 11 -49 45
-43 38 8 43 -6 29 -77 -10 -51 -10 -62 2 -70 36 -22 50 0 55 82 2 40 8 77 13
82 5 5 27 13 50 18 60 13 77 1 91 -68 16 -73 55 -116 102 -111 41 4 52 40 18
58 -32 17 -60 70 -60 114 0 35 7 45 65 100 78 74 83 100 31 152 -51 51 -95 45
-125 -15 -10 -20 -21 -57 -25 -83 -8 -53 -18 -60 -91 -60 -53 0 -68 8 -61 30
3 10 8 88 11 174 7 185 3 198 -56 198 -34 0 -41 -4 -50 -27z"/>
<path d="M23384 15202 c-128 -45 -227 -127 -298 -248 -64 -109 -86 -174 -93
-271 -9 -119 29 -241 83 -265 21 -10 28 -8 46 10 l22 22 -20 27 c-39 54 -67
136 -68 198 -1 55 1 60 22 63 15 2 40 -13 84 -51 67 -60 194 -135 273 -162 72
-24 141 -24 166 1 19 19 19 21 2 36 -10 9 -55 25 -100 36 -85 21 -204 81 -297
149 -45 32 -48 37 -32 48 10 7 45 16 79 20 91 10 284 53 324 72 36 17 55 47
73 120 7 28 21 51 40 65 40 29 38 49 -9 91 -63 57 -195 74 -297 39z m227 -89
c15 -15 -25 -119 -50 -132 -21 -12 -266 -79 -358 -98 -123 -26 -127 -10 -24
100 62 65 148 124 204 138 46 12 215 5 228 -8z"/>
<path d="M25008 15185 c-38 -21 -40 -80 -4 -96 20 -9 31 -7 69 15 25 15 51 34
58 42 31 37 -70 69 -123 39z"/>
<path d="M25362 15029 c-46 -23 -80 -66 -108 -137 -14 -37 -15 -47 -3 -68 17
-33 33 -41 120 -59 79 -17 149 -51 149 -72 0 -23 -26 -66 -57 -94 -35 -33
-105 -69 -133 -69 -30 0 -60 -18 -60 -35 0 -27 38 -55 75 -55 75 0 188 86 224
171 48 111 -8 196 -162 244 -48 15 -87 31 -87 36 0 22 66 49 120 49 65 0 100
20 100 56 0 19 -8 28 -35 40 -48 20 -93 18 -143 -7z"/>
<path d="M23995 14951 c-72 -26 -93 -38 -153 -88 -70 -60 -86 -92 -79 -163 3
-31 12 -70 20 -86 28 -55 98 -123 152 -149 90 -44 225 -43 270 2 30 30 -3 46
-112 53 -101 7 -174 30 -202 64 -17 21 -9 30 44 46 130 40 315 182 315 241 0
80 -136 123 -255 80z m165 -85 c9 -12 4 -21 -32 -47 -73 -53 -208 -112 -258
-113 -44 -1 -45 0 -42 29 4 47 58 88 172 131 48 18 144 18 160 0z"/>
<path d="M24521 14904 c-74 -66 -140 -287 -98 -323 29 -23 60 -9 86 39 49 93
70 120 95 120 41 0 51 -25 53 -129 3 -211 -40 -432 -102 -524 -29 -42 -76 -59
-128 -47 -66 14 -89 -23 -37 -60 52 -37 97 -36 160 2 61 37 85 73 132 197 65
172 77 474 24 579 -14 27 -32 52 -41 56 -28 11 -62 7 -75 -9 -14 -17 -29 -19
-50 -5 -25 17 24 50 74 50 72 0 93 50 31 76 -54 22 -81 18 -124 -22z"/>
<path d="M24845 14924 c-17 -18 -15 -34 16 -101 30 -68 69 -212 76 -281 5 -51
10 -66 29 -79 14 -9 32 -12 45 -8 20 7 21 11 15 69 -7 54 -38 202 -66 306 -5
19 -12 45 -15 57 -14 50 -67 70 -100 37z"/>
<path d="M32069 17329 c-19 -19 -20 -28 -14 -167 8 -188 11 -236 19 -266 3
-13 -1 -41 -11 -62 -20 -47 -23 -198 -5 -231 14 -25 44 -30 60 -10 7 9 9 46 6
105 -5 87 -4 91 18 104 13 7 71 15 135 18 89 4 116 9 130 23 17 16 16 18 -5
40 -21 20 -31 22 -145 22 l-122 0 3 70 c2 39 5 108 6 155 2 47 7 108 11 136 6
41 4 54 -10 67 -22 23 -51 21 -76 -4z"/>
<path d="M30596 17093 c-64 -17 -152 -105 -200 -201 -33 -66 -96 -284 -96
-333 0 -55 8 -69 41 -69 42 0 59 33 58 111 -2 97 50 257 106 327 15 18 58 56
96 84 45 32 69 56 67 67 -3 17 -37 23 -72 14z"/>
<path d="M31240 17050 c-21 -5 -47 -23 -65 -44 -43 -50 -74 -55 -114 -17 -37
34 -69 46 -103 37 -74 -18 -192 -136 -222 -221 -48 -132 -79 -247 -80 -295
l-1 -55 35 0 c43 0 56 24 63 115 3 36 17 100 31 143 48 151 114 227 194 227
38 0 50 -5 84 -40 l40 -39 -9 -58 c-4 -32 -8 -89 -8 -127 1 -66 2 -69 38 -102
42 -39 89 -45 151 -19 76 32 166 139 139 166 -10 10 -83 -25 -83 -40 0 -14
-92 -51 -128 -51 -49 0 -62 14 -62 66 0 51 13 58 105 59 48 0 67 5 94 25 60
44 99 167 71 221 -13 24 -81 59 -112 58 -13 -1 -39 -5 -58 -9z m100 -95 c73
-38 1 -115 -105 -115 -82 0 -94 19 -49 77 41 53 97 67 154 38z"/>
<path d="M29235 16981 c-83 -30 -136 -61 -207 -117 -74 -60 -121 -122 -150
-196 -35 -93 6 -227 92 -300 53 -46 177 -88 277 -95 67 -5 89 -2 158 21 130
44 196 92 151 109 -8 3 -45 -3 -83 -14 -98 -28 -246 -28 -337 1 -88 28 -152
89 -180 171 -22 65 -18 89 24 145 67 92 231 184 335 188 53 3 83 14 105 41 11
14 10 19 -6 35 -29 29 -116 34 -179 11z"/>
<path d="M30097 16947 c-8 -13 -20 -41 -26 -63 -6 -21 -20 -57 -31 -79 -11
-21 -20 -45 -20 -51 0 -22 -89 -133 -130 -163 -51 -36 -122 -49 -155 -27 -13
9 -29 33 -36 55 -17 56 2 105 64 163 60 56 59 78 -4 78 -35 0 -48 -6 -79 -38
-48 -47 -64 -104 -57 -194 7 -84 40 -138 104 -169 62 -30 109 -22 177 30 71
53 116 110 169 212 53 100 101 233 93 254 -9 23 -52 18 -69 -8z"/>
<path d="M31525 16909 c-4 -5 -11 -52 -15 -102 -5 -51 -14 -109 -20 -130 -6
-21 -10 -54 -8 -75 6 -79 75 -38 144 86 43 76 69 102 105 102 37 0 44 -35 29
-151 -13 -98 -4 -139 29 -139 26 0 36 12 64 72 42 89 40 105 -16 122 -15 5
-17 17 -16 90 3 96 -14 136 -55 136 -43 0 -53 -10 -91 -84 -38 -73 -76 -105
-111 -92 -17 7 -11 62 12 108 23 46 18 68 -15 68 -17 0 -33 -5 -36 -11z"/>
<path d="M31095 16054 c-14 -14 -15 -32 -11 -108 3 -50 7 -116 8 -146 l3 -55
-87 -5 c-90 -5 -128 -23 -128 -60 0 -34 26 -44 83 -32 64 12 115 5 122 -17 3
-9 -6 -45 -20 -80 -30 -78 -51 -179 -39 -191 5 -4 18 -10 29 -12 31 -5 53 52
60 162 4 52 11 101 17 108 16 19 95 15 116 -6 10 -10 24 -49 32 -87 13 -64 19
-74 70 -124 93 -90 210 -126 386 -117 114 6 154 20 154 56 0 32 -42 42 -155
34 -116 -7 -205 6 -282 42 -57 27 -119 89 -129 130 -12 46 5 58 102 70 99 13
143 30 192 73 35 30 59 98 42 115 -6 6 -10 17 -10 26 0 21 -57 76 -93 89 -35
14 -121 14 -167 1 -19 -5 -52 -23 -72 -40 -36 -29 -40 -40 -53 -127 l-7 -43
-58 0 c-32 0 -61 4 -65 9 -3 6 1 43 9 83 8 40 17 96 21 123 4 28 13 67 20 87
9 26 9 40 2 47 -17 17 -74 13 -92 -5z m471 -229 c34 -22 40 -42 19 -65 -26
-28 -132 -60 -211 -63 l-69 -2 2 30 c4 49 25 77 78 102 40 19 61 23 103 19 30
-3 65 -12 78 -21z"/>
<path d="M30100 15942 c-18 -15 -23 -29 -23 -68 -1 -54 11 -190 18 -214 3 -10
-11 -23 -42 -40 -25 -13 -61 -39 -80 -56 -28 -26 -33 -38 -33 -75 l1 -44 31
38 c41 50 81 71 109 56 18 -9 20 -17 15 -52 -3 -23 -9 -76 -14 -117 -11 -91
-19 -110 -42 -110 -11 0 -22 -5 -25 -10 -11 -18 -21 -2 -34 57 -19 83 -26 93
-68 93 -20 0 -66 9 -102 19 -36 10 -122 29 -191 40 -182 32 -245 50 -290 82
-22 16 -40 33 -40 38 0 25 106 85 168 95 90 14 157 71 106 90 -82 31 -265 -47
-304 -131 -24 -50 -26 -113 -5 -152 18 -36 93 -67 193 -81 122 -17 370 -69
440 -93 92 -31 98 -45 42 -103 -103 -107 -212 -173 -310 -189 -75 -12 -78 -43
-8 -78 35 -17 38 -17 87 2 69 26 143 74 213 138 48 44 64 53 95 53 47 0 56 6
75 50 37 87 58 190 58 290 0 111 6 120 80 135 19 3 42 8 50 11 34 9 39 -9 25
-76 -35 -162 -1 -247 94 -232 34 5 124 98 155 160 37 73 79 69 91 -9 21 -130
39 -185 71 -216 35 -36 69 -42 100 -18 18 14 18 15 -14 41 -37 30 -57 64 -72
125 -34 138 -47 249 -43 342 6 95 -1 106 -51 93 -19 -5 -25 -15 -30 -51 -4
-24 -12 -47 -17 -51 -7 -4 -6 -10 0 -18 18 -22 -15 -124 -57 -175 -80 -98
-109 -121 -153 -121 l-42 0 7 63 c4 34 17 82 29 107 19 38 32 50 92 80 73 37
92 63 60 86 -18 13 -70 9 -90 -7 -15 -11 -224 -69 -252 -69 -21 0 -23 5 -23
46 0 26 8 84 17 129 14 69 15 86 4 99 -18 21 -44 20 -71 -2z"/>
<path d="M7794 14333 c-36 -25 -52 -160 -63 -553 -8 -254 -7 -286 7 -297 18
-15 48 -17 56 -5 3 5 8 62 11 128 18 402 29 518 59 631 11 40 11 57 2 75 -12
23 -51 35 -72 21z"/>
<path d="M4989 14213 c-6 -16 -20 -84 -31 -153 -16 -100 -19 -151 -14 -256 7
-144 7 -144 -54 -144 -61 0 -43 -78 24 -100 43 -14 49 -30 35 -98 -6 -30 -12
-90 -12 -134 -2 -69 1 -81 18 -94 11 -8 26 -13 35 -12 13 3 15 29 15 173 l0
170 109 3 c129 3 139 -2 156 -85 29 -139 189 -216 346 -167 33 10 62 23 66 28
15 22 -21 40 -84 42 -91 4 -128 12 -173 39 -59 34 -115 97 -118 130 -2 25 2
29 33 37 162 38 321 102 365 146 41 41 41 43 16 66 -47 43 -156 57 -263 35
-43 -9 -62 -20 -99 -58 -25 -26 -54 -65 -65 -87 l-19 -39 -105 4 c-58 2 -120
9 -139 17 -31 13 -33 16 -28 56 2 24 10 97 16 163 11 113 23 173 52 272 15 50
2 73 -42 73 -23 0 -32 -6 -40 -27z m577 -453 c23 -9 25 -13 13 -24 -39 -38
-207 -73 -223 -47 -9 14 27 40 85 60 63 23 88 25 125 11z"/>
<path d="M4489 13908 c-66 -44 -204 -174 -230 -217 l-15 -24 -40 18 c-22 10
-62 44 -93 81 -54 63 -107 98 -139 92 -13 -3 -17 -14 -16 -44 1 -54 33 -96
135 -174 87 -68 88 -69 29 -125 -99 -94 -175 -306 -121 -335 37 -19 51 -12 51
24 0 56 36 147 97 249 42 69 57 72 127 18 87 -67 210 -122 302 -135 79 -11
186 39 170 79 -11 29 -48 34 -89 13 -48 -24 -90 -19 -177 23 -64 30 -239 139
-240 150 0 3 19 19 43 36 23 18 80 62 127 98 101 79 129 95 168 95 30 0 56 21
66 55 7 24 -1 38 -31 54 -36 18 -58 13 -124 -31z"/>
<path d="M6249 13902 c-120 -89 -167 -149 -238 -305 -40 -87 -42 -143 -5 -157
14 -6 30 -10 35 -10 14 0 39 63 39 97 0 76 94 229 177 286 26 17 60 44 77 58
26 23 28 29 17 43 -20 24 -61 19 -102 -12z"/>
<path d="M7245 13896 c-16 -7 -53 -34 -80 -59 -54 -48 -80 -106 -92 -204 -11
-101 41 -193 111 -193 42 0 69 31 110 124 20 44 30 57 42 52 8 -3 20 -6 25 -6
5 0 20 -18 34 -40 30 -47 63 -64 100 -50 34 13 31 34 -11 72 -20 18 -49 61
-65 96 -17 34 -38 71 -49 82 -23 23 -50 16 -51 -14 0 -34 -41 -131 -76 -180
-31 -43 -33 -45 -63 -35 -39 14 -41 19 -41 84 0 100 53 170 139 184 53 8 92
33 92 58 0 14 -57 43 -82 43 -7 -1 -26 -7 -43 -14z"/>
<path d="M6855 13882 c-32 -20 -105 -104 -105 -121 0 -21 20 -20 48 4 37 31
57 32 76 3 13 -20 13 -32 1 -88 -7 -36 -20 -100 -29 -143 -24 -119 -22 -161
11 -187 49 -38 58 -26 58 80 0 52 10 154 23 225 27 161 27 186 1 219 -24 31
-43 33 -84 8z"/>
<path d="M3391 13839 c-30 -5 -83 -23 -117 -40 -55 -27 -75 -46 -145 -135
-103 -128 -121 -164 -113 -224 13 -99 80 -197 161 -236 50 -25 71 -29 176 -32
178 -7 344 32 335 77 -3 14 -24 16 -158 17 -166 1 -205 8 -326 64 -58 26 -144
96 -144 116 0 5 8 19 18 32 16 20 21 21 51 11 87 -30 383 68 499 166 18 15 34
42 41 69 16 63 14 74 -14 101 -22 23 -31 25 -117 24 -51 -1 -117 -5 -147 -10z
m188 -113 c12 -12 7 -19 -35 -45 -70 -44 -236 -96 -306 -96 -74 1 -90 15 -58
50 75 80 348 142 399 91z"/>
<path d="M6593 13768 c-14 -18 -50 -191 -58 -275 -6 -65 -4 -72 16 -86 29 -21
40 -14 63 36 11 23 43 92 73 153 29 61 53 114 53 118 0 4 -9 5 -20 1 -24 -8
-60 10 -60 30 0 14 -29 35 -48 35 -5 0 -14 -6 -19 -12z"/>
<path d="M6027 13162 c-23 -25 -21 -76 4 -179 11 -47 18 -91 15 -98 -2 -7 -37
-20 -76 -30 -53 -13 -75 -24 -87 -42 -15 -23 -15 -28 -2 -52 19 -33 47 -37 94
-12 35 19 64 16 95 -7 3 -2 5 -72 5 -154 l0 -151 28 -10 c16 -5 31 -7 34 -4 3
3 8 44 10 90 5 67 1 103 -17 176 -19 74 -21 94 -10 101 7 4 69 11 139 15 129
7 176 21 165 49 -11 28 -81 46 -175 46 -103 0 -164 18 -156 47 3 10 8 62 12
115 6 90 5 97 -13 107 -29 16 -47 14 -65 -7z"/>
<path d="M3684 13125 c-31 -47 32 -167 75 -141 16 10 51 86 51 111 0 50 -97
74 -126 30z"/>
<path d="M3625 12890 c-20 -39 -20 -304 0 -455 8 -60 15 -118 15 -128 0 -23
44 -67 66 -67 14 0 16 8 11 48 -43 391 -43 402 -11 568 12 60 -53 88 -81 34z"/>
<path d="M4985 12818 c-47 -17 -111 -73 -130 -115 -9 -21 -26 -56 -37 -78 -29
-59 -50 -237 -50 -419 0 -270 38 -414 105 -404 29 4 32 28 16 111 -10 56 -10
75 0 101 24 59 23 60 -22 87 l-44 27 3 98 c4 130 20 282 33 317 6 16 11 39 11
52 0 14 19 44 48 75 36 40 56 53 87 59 89 15 185 -31 185 -90 0 -41 -101 -140
-208 -203 -82 -49 -93 -61 -70 -84 23 -23 65 -12 139 36 208 137 257 311 117
412 -34 25 -50 30 -97 29 -31 0 -69 -5 -86 -11z"/>
<path d="M4276 12779 c-33 -26 -71 -98 -58 -111 5 -5 21 -2 39 8 26 16 34 16
63 4 39 -16 53 -46 100 -214 36 -126 54 -156 95 -156 20 0 25 5 25 25 0 13 -6
39 -14 57 -8 18 -34 94 -57 168 -23 74 -50 152 -60 172 -34 67 -84 85 -133 47z"/>
<path d="M5354 12723 c-14 -15 -16 -30 -10 -110 11 -156 60 -274 128 -309 39
-20 103 -12 171 23 82 41 257 223 257 267 0 8 -9 20 -21 26 -25 14 -34 6 -116
-92 -115 -138 -262 -180 -316 -89 -25 43 -41 162 -28 219 9 42 8 49 -10 65
-26 21 -33 21 -55 0z"/>
<path d="M4026 12714 c-19 -18 -20 -55 -5 -178 20 -165 28 -196 55 -208 32
-15 49 1 65 63 15 57 -1 106 -39 120 -23 9 -24 13 -19 68 2 32 12 72 21 89 14
28 14 32 0 46 -20 20 -58 20 -78 0z"/>
<path d="M13640 11673 c-57 -19 -214 -108 -296 -167 -152 -110 -184 -163 -184
-308 0 -73 2 -79 33 -114 45 -52 98 -72 218 -85 144 -14 269 4 269 40 0 26
-19 31 -123 31 -108 0 -201 20 -269 57 -54 30 -64 50 -54 119 13 94 63 154
209 249 121 78 150 88 220 82 67 -6 104 14 93 50 -11 34 -76 60 -116 46z"/>
<path d="M15194 11645 c-19 -29 -43 -98 -80 -230 -34 -121 -47 -158 -84 -239
-36 -80 -37 -111 0 -111 17 0 30 10 45 34 31 53 126 151 146 151 10 0 27 -13
39 -30 12 -16 40 -41 63 -54 84 -50 355 -93 420 -67 33 13 36 45 6 62 -11 6
-69 17 -129 25 -204 27 -365 96 -275 118 49 12 175 75 181 91 8 21 -13 45 -41
45 -25 0 -127 -48 -230 -109 -66 -39 -108 -51 -118 -33 -3 4 3 25 14 46 10 22
19 45 19 51 0 6 25 62 57 125 60 121 62 142 10 148 -19 2 -30 -4 -43 -23z"/>
<path d="M13814 11599 c-37 -41 -30 -323 13 -494 23 -92 46 -125 89 -125 29 0
29 -2 0 90 -31 98 -46 206 -46 338 0 75 5 115 15 132 28 49 28 53 10 66 -27
20 -59 17 -81 -7z"/>
<path d="M14201 11346 c-60 -21 -75 -54 -76 -156 0 -80 2 -91 24 -114 13 -14
39 -28 57 -32 73 -14 202 55 239 127 19 36 19 109 0 135 -34 50 -160 70 -244
40z m147 -70 c38 -20 65 -53 59 -71 -4 -8 -28 -29 -54 -45 -83 -53 -173 -35
-173 35 0 33 1 34 43 32 44 -2 49 5 32 46 -6 14 -1 17 29 17 21 0 49 -6 64
-14z"/>
<path d="M14602 11335 c-55 -46 -50 -158 9 -233 56 -72 132 -96 222 -71 47 13
118 74 110 95 -7 19 -28 18 -96 -6 -47 -17 -65 -19 -95 -10 -80 21 -164 160
-98 160 69 0 99 43 54 74 -33 23 -72 20 -106 -9z"/>
<path d="M15245 10361 c-11 -19 5 -244 25 -341 23 -109 41 -231 35 -240 -4 -6
-77 -10 -181 -10 -96 0 -207 -5 -245 -12 -93 -15 -102 -7 -83 77 35 155 52
257 58 335 6 74 4 89 -14 118 -30 49 -75 72 -143 72 -58 0 -120 -13 -368 -76
-81 -20 -160 -34 -196 -34 -37 0 -65 -5 -71 -13 -13 -15 -15 -410 -3 -505 7
-55 5 -64 -11 -73 -9 -5 -82 -10 -161 -11 -112 0 -167 4 -255 22 -117 24 -142
22 -142 -8 0 -34 42 -60 120 -75 129 -26 196 -29 343 -17 209 17 189 7 182 98
-5 67 -13 253 -18 432 -2 52 0 55 23 58 22 3 165 36 395 93 100 24 176 33 209
25 38 -9 47 -35 36 -98 -39 -217 -73 -488 -64 -512 10 -25 44 -29 94 -10 34
13 103 19 290 26 135 5 252 13 260 18 12 6 15 26 13 92 -2 80 -33 298 -53 363
-4 17 -11 51 -15 78 -6 46 -5 47 20 47 14 0 77 -11 141 -25 150 -33 194 -33
231 0 l28 25 -24 20 c-15 13 -38 20 -67 20 -25 0 -106 11 -180 25 -144 27
-199 31 -209 16z"/>
<path d="M16445 8783 c-13 -13 -15 -24 -9 -52 4 -20 8 -101 9 -180 l0 -145
-53 0 c-85 -2 -99 -49 -22 -77 45 -17 45 -17 45 -65 -1 -54 -40 -256 -57 -291
-13 -26 -6 -48 21 -62 16 -9 22 -8 30 7 22 41 52 171 57 252 9 114 12 119 71
113 84 -9 107 -25 144 -94 39 -73 144 -189 232 -255 46 -35 67 -44 91 -42 47
5 45 33 -5 76 -82 72 -244 237 -259 265 -12 25 -12 29 0 37 8 6 28 10 44 10
52 0 181 40 237 74 59 35 99 85 99 124 0 17 -15 40 -44 68 -81 77 -192 82
-313 13 -65 -37 -78 -55 -104 -143 l-21 -68 -44 5 c-24 2 -56 12 -70 22 -29
19 -29 10 -4 175 7 41 10 106 8 144 -3 57 -8 72 -27 87 -28 23 -35 24 -56 2z
m528 -267 c46 -19 74 -53 61 -74 -12 -19 -176 -80 -245 -91 -61 -10 -103 9
-94 42 12 40 41 71 95 105 61 36 126 43 183 18z"/>
<path d="M15290 8660 c-27 -38 -76 -246 -87 -368 l-8 -94 -45 31 c-80 54 -150
33 -150 -46 0 -59 51 -156 101 -192 23 -17 47 -31 54 -31 7 0 20 -9 31 -21 35
-38 51 -41 76 -15 13 14 36 30 51 35 39 15 32 39 -22 70 -52 31 -61 50 -49
111 5 25 17 90 27 145 36 192 58 274 85 315 29 44 32 60 14 78 -21 21 -56 13
-78 -18z m-168 -507 c30 -33 58 -74 58 -85 0 -5 -7 -8 -16 -8 -24 0 -94 74
-94 99 0 29 21 26 52 -6z"/>
<path d="M13937 8643 c-4 -3 -7 -41 -7 -83 0 -195 -106 -377 -267 -458 -130
-66 -243 -60 -328 19 -49 46 -97 132 -115 207 -12 52 -9 162 6 239 6 29 3 34
-22 43 -42 16 -61 -12 -69 -104 -17 -175 43 -346 162 -468 98 -100 218 -102
405 -7 123 62 238 216 278 374 22 90 27 214 8 233 -13 13 -41 16 -51 5z"/>
<path d="M17564 8630 c-116 -17 -197 -58 -226 -113 -10 -21 -16 -47 -13 -57
12 -39 100 -100 258 -180 172 -88 234 -127 220 -141 -4 -4 -46 -17 -93 -29
-151 -38 -266 -80 -290 -105 l-23 -24 29 -12 c24 -9 40 -7 89 10 33 11 112 34
175 50 143 35 184 52 205 84 14 21 14 29 3 46 -21 34 -112 93 -263 170 -247
126 -277 161 -180 210 67 33 237 42 333 17 97 -25 131 -20 117 16 -19 49 -198
79 -341 58z"/>
<path d="M14471 8612 c-88 -34 -193 -169 -225 -289 -8 -32 -23 -102 -32 -157
-30 -178 -1 -523 51 -603 20 -30 62 -31 76 0 7 15 7 75 2 177 l-8 154 -34 7
c-18 4 -38 13 -43 21 -10 15 -6 174 6 185 3 4 19 0 34 -9 82 -47 201 -19 363
88 88 59 119 102 119 168 0 116 -140 277 -240 275 -14 0 -45 -8 -69 -17z m83
-66 c43 -18 121 -99 148 -154 l21 -44 -39 -40 c-76 -79 -213 -148 -294 -148
-30 0 -48 8 -75 31 -19 17 -35 37 -35 44 0 21 62 156 97 212 32 52 103 113
130 113 7 0 29 -6 47 -14z"/>
<path d="M15883 8508 c-5 -7 -10 -53 -11 -102 -1 -49 -5 -93 -10 -98 -4 -4
-25 -3 -46 3 -104 29 -256 -42 -291 -135 -22 -57 -16 -136 12 -174 17 -22 29
-28 73 -30 43 -3 65 3 114 27 69 34 100 72 115 142 6 25 17 58 26 75 8 16 15
35 15 42 0 21 40 13 50 -10 5 -13 21 -68 35 -123 45 -173 56 -204 82 -235 13
-17 33 -30 43 -30 26 0 68 37 91 81 18 36 18 40 3 46 -9 3 -24 1 -33 -5 -48
-35 -72 -17 -91 66 -7 31 -28 104 -46 162 -19 58 -40 141 -46 185 -6 44 -17
90 -25 103 -15 24 -45 29 -60 10z m-67 -290 c21 -20 -12 -74 -71 -120 -69 -52
-115 -56 -158 -13 -28 27 -21 61 20 94 68 56 173 76 209 39z"/>
<path d="M16129 7483 c-11 -12 -13 -49 -12 -155 l3 -138 -43 -1 c-23 -1 -58 0
-79 1 -45 2 -98 -24 -98 -49 0 -10 8 -25 18 -34 15 -14 27 -15 86 -6 50 8 75
8 94 0 24 -12 24 -12 18 -109 -26 -362 -26 -366 -3 -384 28 -22 34 -22 41 0
14 48 27 279 21 380 l-7 112 39 0 c21 0 63 -7 93 -16 30 -8 93 -19 140 -22
l85 -7 -3 -67 c-3 -55 0 -77 21 -122 68 -149 277 -257 469 -242 76 5 148 27
148 44 0 5 -9 17 -19 26 -15 14 -32 17 -83 13 -135 -9 -260 30 -363 114 -64
52 -92 87 -78 99 4 4 50 17 101 30 76 18 107 32 178 80 91 60 184 158 184 192
0 29 -64 86 -106 94 -147 27 -319 -56 -406 -197 -16 -27 -33 -49 -36 -49 -4 0
-26 14 -50 30 -56 37 -109 56 -200 70 -39 7 -81 19 -91 28 -19 17 -19 21 -3
146 15 124 15 129 -3 142 -25 18 -40 18 -56 -3z m826 -253 c68 -26 22 -84
-129 -159 -120 -60 -187 -77 -228 -60 -15 6 -28 15 -28 19 0 16 61 89 101 122
115 91 193 112 284 78z"/>
<path d="M14799 7446 c-9 -18 -5 -45 19 -132 17 -60 34 -125 37 -145 6 -34 5
-37 -22 -42 -58 -12 -143 -49 -153 -67 -14 -27 33 -60 59 -42 9 7 35 22 59 34
42 22 42 22 62 3 15 -16 21 -44 30 -130 5 -60 14 -155 20 -210 5 -55 10 -126
10 -157 0 -47 4 -60 22 -72 12 -8 24 -13 28 -11 4 3 10 40 14 82 6 76 -18 325
-44 452 -16 74 -11 81 52 81 56 -1 135 -13 145 -23 3 -3 -5 -31 -18 -62 -23
-56 -23 -56 -5 -123 32 -121 90 -192 158 -192 52 0 135 39 175 83 47 50 93
144 101 201 2 23 9 50 15 61 6 11 16 42 22 69 12 55 22 63 49 43 15 -11 23
-42 37 -158 30 -239 47 -312 80 -329 49 -27 62 1 34 79 -8 23 -21 90 -29 149
-9 59 -24 159 -36 222 -11 63 -20 135 -20 160 0 67 -17 118 -41 125 -37 12
-49 -13 -57 -125 l-7 -105 -95 -2 c-53 -1 -124 -9 -158 -18 -52 -13 -77 -14
-138 -5 -42 5 -114 10 -162 10 -125 1 -127 3 -146 165 -12 100 -19 133 -32
142 -27 20 -53 15 -65 -11z m721 -394 l23 -19 -63 -98 c-64 -97 -124 -155
-162 -155 -63 0 -123 64 -147 156 -14 53 -8 68 37 96 31 19 56 24 157 29 66 3
123 6 126 7 4 1 17 -6 29 -16z"/>
<path d="M14100 7165 c-150 -26 -301 -78 -392 -137 -38 -25 -48 -37 -48 -59 0
-33 37 -65 89 -77 288 -67 625 -166 666 -196 20 -15 20 -15 -10 -44 -16 -16
-95 -60 -175 -98 -142 -68 -146 -69 -218 -66 -82 2 -94 -7 -68 -56 17 -33 34
-42 78 -42 71 0 308 119 435 219 67 52 83 70 83 91 0 15 -8 34 -18 43 -36 32
-325 124 -577 182 -88 21 -171 44 -184 53 l-25 15 35 17 c42 22 207 64 312 80
43 6 121 10 174 8 83 -3 97 -1 107 15 9 15 6 22 -17 43 -25 21 -37 24 -100 23
-40 -1 -106 -7 -147 -14z"/>
</g>
</svg>
