<?xml version="1.0" standalone="no"?>
<!DOCTYPE svg PUBLIC "-//W3C//DTD SVG 20010904//EN"
 "http://www.w3.org/TR/2001/REC-SVG-20010904/DTD/svg10.dtd">
<svg version="1.0" xmlns="http://www.w3.org/2000/svg"
 width="2448.000000pt" height="3264.000000pt" viewBox="0 0 2448.000000 3264.000000"
 preserveAspectRatio="xMidYMid meet">
<metadata>
Created by potrace 1.12, written by Peter Selinger 2001-2015
</metadata>
<g transform="translate(0.000000,3264.000000) scale(0.100000,-0.100000)"
fill="#000000" stroke="none">
<path d="M418 31148 c9 -9 15 -9 24 0 9 9 7 12 -12 12 -19 0 -21 -3 -12 -12z"/>
<path d="M460 31150 c0 -5 7 -10 15 -10 8 0 15 5 15 10 0 6 -7 10 -15 10 -8 0
-15 -4 -15 -10z"/>
<path d="M637 31154 c-16 -16 -5 -24 33 -24 22 0 40 5 40 10 0 6 -6 10 -12 10
-7 0 -22 3 -33 6 -11 3 -24 2 -28 -2z"/>
<path d="M825 31150 c-12 -19 2 -24 68 -20 124 6 142 6 168 -7 21 -11 33 -11
64 0 54 19 25 28 -90 28 -49 -1 -115 2 -146 5 -38 4 -59 2 -64 -6z"/>
<path d="M585 31140 c3 -5 8 -10 11 -10 2 0 4 5 4 10 0 6 -5 10 -11 10 -5 0
-7 -4 -4 -10z"/>
<path d="M1237 31144 c-11 -12 3 -24 29 -24 16 0 24 5 22 13 -5 13 -40 22 -51
11z"/>
<path d="M1364 31139 c-11 -18 10 -20 356 -33 58 -2 113 -7 122 -11 19 -8 71
15 69 30 -1 13 -12 14 -299 18 -134 2 -245 0 -248 -4z"/>
<path d="M1935 31131 c-2 -5 1 -14 9 -20 12 -10 46 -11 231 -9 39 1 99 1 135
0 172 -5 421 -3 430 3 6 4 53 6 105 6 70 -1 95 2 95 12 0 9 -109 12 -500 14
-274 1 -502 -2 -505 -6z"/>
<path d="M3013 31118 c5 -15 66 -13 81 2 7 7 -7 10 -38 10 -34 0 -46 -4 -43
-12z"/>
<path d="M3260 31120 c0 -5 7 -10 16 -10 8 0 12 5 9 10 -3 6 -10 10 -16 10 -5
0 -9 -4 -9 -10z"/>
<path d="M3390 31120 c20 -13 40 -13 40 0 0 6 -12 10 -27 10 -22 0 -25 -2 -13
-10z"/>
<path d="M3545 31120 c-8 -12 20 -24 35 -15 5 3 10 10 10 16 0 12 -37 12 -45
-1z"/>
<path d="M3670 31120 c-8 -5 -11 -12 -8 -16 10 -9 38 3 38 16 0 12 -10 13 -30
0z"/>
<path d="M4486 31123 c-11 -11 -6 -23 9 -23 8 0 15 4 15 9 0 13 -16 22 -24 14z"/>
<path d="M4891 31119 c-19 -8 -21 -12 -11 -24 10 -12 15 -12 36 2 13 8 24 17
24 18 0 9 -28 11 -49 4z"/>
<path d="M5630 31123 c-44 -14 -45 -16 -20 -23 36 -11 63 -11 80 0 28 19 -19
37 -60 23z"/>
<path d="M5875 31120 c-39 -16 27 -28 134 -25 144 4 159 25 19 25 -59 0 -112
2 -120 4 -7 3 -22 1 -33 -4z"/>
<path d="M3775 31110 c3 -5 10 -10 16 -10 5 0 9 5 9 10 0 6 -7 10 -16 10 -8 0
-12 -4 -9 -10z"/>
<path d="M4660 31111 c0 -12 19 -19 49 -17 41 2 34 22 -9 24 -22 2 -40 -1 -40
-7z"/>
<path d="M5198 31113 c7 -3 16 -2 19 1 4 3 -2 6 -13 5 -11 0 -14 -3 -6 -6z"/>
<path d="M5740 31110 c0 -5 9 -10 20 -10 11 0 20 5 20 10 0 6 -9 10 -20 10
-11 0 -20 -4 -20 -10z"/>
<path d="M6160 31110 c0 -5 4 -10 9 -10 6 0 13 5 16 10 3 6 -1 10 -9 10 -9 0
-16 -4 -16 -10z"/>
<path d="M6210 31110 c0 -5 7 -10 16 -10 8 0 12 5 9 10 -3 6 -10 10 -16 10 -5
0 -9 -4 -9 -10z"/>
<path d="M6335 31110 c-3 -5 1 -10 9 -10 9 0 16 5 16 10 0 6 -4 10 -9 10 -6 0
-13 -4 -16 -10z"/>
<path d="M6610 31110 c0 -5 5 -10 11 -10 5 0 7 5 4 10 -3 6 -8 10 -11 10 -2 0
-4 -4 -4 -10z"/>
<path d="M6720 31099 c0 -24 23 -21 28 4 2 10 -3 17 -12 17 -10 0 -16 -9 -16
-21z"/>
<path d="M6985 31110 c-6 -10 53 -19 92 -13 18 3 30 9 28 14 -7 10 -113 10
-120 -1z"/>
<path d="M7210 31110 c0 -5 9 -10 19 -10 11 0 23 5 26 10 4 6 -5 10 -19 10
-14 0 -26 -4 -26 -10z"/>
<path d="M7595 31110 c-3 -5 1 -10 9 -10 9 0 16 5 16 10 0 6 -4 10 -9 10 -6 0
-13 -4 -16 -10z"/>
<path d="M7645 31110 c-3 -5 -1 -10 4 -10 6 0 11 5 11 10 0 6 -2 10 -4 10 -3
0 -8 -4 -11 -10z"/>
<path d="M7756 31111 c-6 -10 33 -23 46 -15 4 3 8 9 8 15 0 12 -47 12 -54 0z"/>
<path d="M7840 31110 c0 -5 14 -10 31 -10 17 0 28 4 24 10 -3 6 -17 10 -31 10
-13 0 -24 -4 -24 -10z"/>
<path d="M8005 31111 c-3 -5 -1 -12 5 -16 12 -7 30 2 30 16 0 12 -27 12 -35 0z"/>
<path d="M8064 31109 c-3 -5 15 -9 40 -9 25 0 46 3 46 8 0 10 -79 12 -86 1z"/>
<path d="M8194 31109 c-6 -11 46 -17 75 -9 22 6 19 8 -22 11 -27 2 -51 1 -53
-2z"/>
<path d="M8345 31110 c-11 -17 6 -19 149 -12 68 3 30 15 -59 18 -46 2 -87 -1
-90 -6z"/>
<path d="M8625 31111 c-33 -5 -36 -7 -17 -13 12 -3 22 -14 22 -23 0 -14 3 -15
14 -6 9 8 92 14 242 17 126 3 252 7 279 9 28 2 61 4 74 4 13 1 21 4 18 8 -9 8
-580 12 -632 4z"/>
<path d="M9300 31100 c0 -5 15 -10 34 -10 19 0 38 5 41 10 4 6 -10 10 -34 10
-23 0 -41 -4 -41 -10z"/>
<path d="M9410 31100 c0 -5 14 -11 30 -12 17 -1 38 -2 47 -2 9 -1 18 5 21 12
2 8 -11 12 -47 12 -28 0 -51 -4 -51 -10z"/>
<path d="M9530 31100 c20 -13 87 -13 95 0 4 6 -16 10 -52 10 -41 0 -54 -3 -43
-10z"/>
<path d="M9698 31098 c8 -8 17 -8 34 0 22 10 21 11 -11 11 -27 1 -32 -2 -23
-11z"/>
<path d="M9825 31100 c8 -13 35 -13 55 0 11 7 5 10 -23 10 -23 0 -36 -4 -32
-10z"/>
<path d="M9925 31100 c-3 -5 3 -10 14 -10 12 0 21 5 21 10 0 6 -6 10 -14 10
-8 0 -18 -4 -21 -10z"/>
<path d="M10028 31098 c9 -9 15 -9 24 0 9 9 7 12 -12 12 -19 0 -21 -3 -12 -12z"/>
<path d="M10140 31100 c0 -5 9 -10 20 -10 11 0 20 5 20 10 0 6 -9 10 -20 10
-11 0 -20 -4 -20 -10z"/>
<path d="M10305 31100 c-3 -5 -1 -10 4 -10 6 0 11 5 11 10 0 6 -2 10 -4 10 -3
0 -8 -4 -11 -10z"/>
<path d="M10545 31100 c-28 -7 -27 -8 13 -9 27 -1 41 3 37 9 -7 11 -7 11 -50
0z"/>
<path d="M10715 31100 c-4 -6 5 -10 20 -10 15 0 24 4 20 10 -3 6 -12 10 -20
10 -8 0 -17 -4 -20 -10z"/>
<path d="M10831 31101 c-10 -7 -10 -10 -1 -16 6 -4 16 -3 22 3 13 13 -4 23
-21 13z"/>
<path d="M10950 31100 c0 -5 7 -10 15 -10 8 0 15 5 15 10 0 6 -7 10 -15 10 -8
0 -15 -4 -15 -10z"/>
<path d="M11025 31100 c-3 -5 3 -10 15 -10 12 0 18 5 15 10 -3 6 -10 10 -15
10 -5 0 -12 -4 -15 -10z"/>
<path d="M11210 31100 c0 -5 5 -10 10 -10 6 0 10 5 10 10 0 6 -4 10 -10 10 -5
0 -10 -4 -10 -10z"/>
<path d="M11365 31100 c-26 -7 -22 -8 23 -9 29 0 52 3 52 9 0 11 -31 11 -75 0z"/>
<path d="M11685 31101 l-50 -6 75 -7 c70 -5 89 -4 79 6 -9 10 -57 13 -104 7z"/>
<path d="M11874 31099 c-16 -5 -16 -6 0 -12 24 -10 68 -8 85 2 16 10 -59 20
-85 10z"/>
<path d="M12095 31100 c-46 -4 -55 -8 -41 -15 20 -9 35 -9 129 -5 47 2 68 20
23 20 -13 0 -30 1 -38 3 -7 2 -40 1 -73 -3z"/>
<path d="M10658 31093 c7 -3 16 -2 19 1 4 3 -2 6 -13 5 -11 0 -14 -3 -6 -6z"/>
<path d="M11158 31093 c7 -3 16 -2 19 1 4 3 -2 6 -13 5 -11 0 -14 -3 -6 -6z"/>
<path d="M11468 31093 c7 -3 16 -2 19 1 4 3 -2 6 -13 5 -11 0 -14 -3 -6 -6z"/>
<path d="M11570 31090 c20 -13 40 -13 40 0 0 6 -12 10 -27 10 -22 0 -25 -2
-13 -10z"/>
<path d="M12260 31090 c0 -6 41 -10 103 -10 56 0 113 -3 126 -7 18 -4 22 -2
19 8 -4 11 -33 15 -126 17 -77 1 -122 -2 -122 -8z"/>
<path d="M12579 31089 c-20 -12 35 -18 108 -12 40 3 70 10 67 15 -7 10 -158 8
-175 -3z"/>
<path d="M12790 31090 c-12 -8 -12 -10 2 -15 20 -8 41 2 33 16 -8 11 -16 11
-35 -1z"/>
<path d="M12980 31090 c-21 -7 -18 -8 18 -9 26 -1 41 3 37 9 -7 11 -19 11 -55
0z"/>
<path d="M12858 31083 c7 -3 16 -2 19 1 4 3 -2 6 -13 5 -11 0 -14 -3 -6 -6z"/>
<path d="M13420 31080 c0 -5 7 -10 15 -10 8 0 15 5 15 10 0 6 -7 10 -15 10 -8
0 -15 -4 -15 -10z"/>
<path d="M13625 31080 c3 -5 12 -10 20 -10 8 0 17 5 20 10 4 6 -5 10 -20 10
-15 0 -24 -4 -20 -10z"/>
<path d="M13700 31080 c0 -5 11 -10 25 -10 14 0 25 5 25 10 0 6 -11 10 -25 10
-14 0 -25 -4 -25 -10z"/>
<path d="M13935 31080 c3 -5 14 -10 23 -10 15 0 15 2 2 10 -20 13 -33 13 -25
0z"/>
<path d="M14025 31080 c-4 -6 13 -10 45 -10 32 0 49 4 45 10 -3 6 -24 10 -45
10 -21 0 -42 -4 -45 -10z"/>
<path d="M14135 31080 c-3 -6 -5 -10 -3 -11 11 -2 190 -9 223 -8 56 2 136 2
314 -1 98 -1 158 3 164 9 8 8 -3 11 -39 12 -457 7 -654 7 -659 -1z"/>
<path d="M14855 31070 c-7 -11 16 -12 275 -15 184 -1 210 1 210 16 0 12 -477
11 -485 -1z"/>
<path d="M15373 31067 c4 -13 85 -17 142 -8 l50 9 -40 3 c-81 6 -155 4 -152
-4z"/>
<path d="M15594 31068 c-7 -11 -9 -10 74 -13 76 -2 97 9 35 19 -50 8 -102 5
-109 -6z"/>
<path d="M15775 31071 c-3 -5 -1 -12 5 -16 14 -9 52 4 45 16 -8 12 -42 12 -50
0z"/>
<path d="M15982 31072 c-7 -2 -12 -7 -12 -12 0 -15 25 -17 54 -5 l29 12 -30 5
c-16 2 -35 2 -41 0z"/>
<path d="M16115 31071 c-27 -3 -45 -8 -40 -11 17 -9 100 -5 103 5 4 12 -2 13
-63 6z"/>
<path d="M15895 31060 c3 -5 10 -10 16 -10 5 0 9 5 9 10 0 6 -7 10 -16 10 -8
0 -12 -4 -9 -10z"/>
<path d="M16280 31060 c0 -5 9 -10 21 -10 11 0 17 5 14 10 -3 6 -13 10 -21 10
-8 0 -14 -4 -14 -10z"/>
<path d="M16355 31060 c-3 -5 -1 -10 4 -10 6 0 11 5 11 10 0 6 -2 10 -4 10 -3
0 -8 -4 -11 -10z"/>
<path d="M16415 31060 c-3 -5 3 -10 14 -10 12 0 21 5 21 10 0 6 -6 10 -14 10
-8 0 -18 -4 -21 -10z"/>
<path d="M16460 31060 c0 -5 7 -10 15 -10 8 0 15 5 15 10 0 6 -7 10 -15 10 -8
0 -15 -4 -15 -10z"/>
<path d="M16554 31059 c-15 -5 -10 -8 19 -14 23 -4 43 -3 49 3 12 12 -41 21
-68 11z"/>
<path d="M16723 31058 c-7 -13 8 -29 20 -21 6 4 129 6 274 5 168 -1 263 2 263
8 0 6 -26 10 -57 10 -32 0 -156 2 -276 3 -121 1 -221 -1 -224 -5z"/>
<path d="M17320 31051 c0 -12 37 -24 50 -16 20 12 10 25 -20 25 -16 0 -30 -4
-30 -9z"/>
<path d="M17500 31050 c-12 -8 -11 -10 7 -10 12 0 25 5 28 10 8 13 -15 13 -35
0z"/>
<path d="M17555 31050 c3 -5 8 -10 11 -10 2 0 4 5 4 10 0 6 -5 10 -11 10 -5 0
-7 -4 -4 -10z"/>
<path d="M17610 31051 c0 -13 22 -18 55 -11 l30 6 -34 7 c-44 9 -51 9 -51 -2z"/>
<path d="M17720 31048 c0 -4 14 -8 30 -8 17 0 30 2 30 4 0 2 -13 6 -30 8 -16
3 -30 1 -30 -4z"/>
<path d="M17800 31052 c0 -14 93 -24 121 -13 20 8 16 10 -26 11 -27 0 -60 3
-72 6 -13 4 -23 2 -23 -4z"/>
<path d="M18088 31043 c7 -3 16 -2 19 1 4 3 -2 6 -13 5 -11 0 -14 -3 -6 -6z"/>
<path d="M18160 31040 c0 -5 9 -10 19 -10 11 0 23 5 26 10 4 6 -5 10 -19 10
-14 0 -26 -4 -26 -10z"/>
<path d="M18270 31040 c20 -13 40 -13 40 0 0 6 -12 10 -27 10 -22 0 -25 -2
-13 -10z"/>
<path d="M18535 31040 c-3 -6 5 -10 19 -10 14 0 28 5 31 10 3 6 -5 10 -19 10
-14 0 -28 -4 -31 -10z"/>
<path d="M18717 31043 c-26 -7 -10 -23 24 -23 20 0 29 4 27 13 -5 13 -24 17
-51 10z"/>
<path d="M18951 31041 c-7 -5 -9 -11 -5 -14 16 -9 124 -6 124 3 0 6 -18 10
-39 10 -22 0 -45 2 -53 5 -7 3 -19 1 -27 -4z"/>
<path d="M18840 31030 c0 -13 20 -13 40 0 12 8 9 10 -12 10 -16 0 -28 -4 -28
-10z"/>
<path d="M19125 31030 c-8 -13 55 -13 75 0 11 7 4 10 -27 10 -23 0 -45 -4 -48
-10z"/>
<path d="M19240 31030 c0 -5 15 -10 34 -10 19 0 38 5 41 10 4 6 -10 10 -34 10
-23 0 -41 -4 -41 -10z"/>
<path d="M19385 31031 c-3 -5 -1 -12 4 -15 12 -8 41 3 41 15 0 12 -37 12 -45
0z"/>
<path d="M19460 31030 c0 -5 10 -10 23 -10 18 0 19 2 7 10 -19 13 -30 13 -30
0z"/>
<path d="M19515 31030 c-3 -5 1 -10 9 -10 9 0 16 5 16 10 0 6 -4 10 -9 10 -6
0 -13 -4 -16 -10z"/>
<path d="M19565 31030 c-3 -5 0 -13 9 -16 21 -8 61 -1 61 11 0 14 -62 19 -70
5z"/>
<path d="M19810 31030 c-69 -3 -120 -8 -115 -11 14 -9 302 -5 311 4 4 4 -4 7
-19 7 -14 0 -31 1 -39 3 -7 1 -69 0 -138 -3z"/>
<path d="M20070 31030 c-24 -6 -23 -7 9 -13 52 -11 123 -9 119 4 -4 12 -91 19
-128 9z"/>
<path d="M20220 31020 c0 -5 5 -10 10 -10 6 0 10 5 10 10 0 6 -4 10 -10 10 -5
0 -10 -4 -10 -10z"/>
<path d="M20260 31021 c0 -11 49 -21 67 -14 27 10 12 23 -27 23 -22 0 -40 -4
-40 -9z"/>
<path d="M20530 31020 c0 -5 16 -10 35 -10 19 0 35 5 35 10 0 6 -16 10 -35 10
-19 0 -35 -4 -35 -10z"/>
<path d="M20670 31020 c0 -5 7 -10 15 -10 8 0 15 5 15 10 0 6 -7 10 -15 10 -8
0 -15 -4 -15 -10z"/>
<path d="M20710 31020 c0 -5 12 -10 26 -10 14 0 23 4 19 10 -3 6 -15 10 -26
10 -10 0 -19 -4 -19 -10z"/>
<path d="M20975 31020 c-3 -5 -1 -10 4 -10 6 0 11 5 11 10 0 6 -2 10 -4 10 -3
0 -8 -4 -11 -10z"/>
<path d="M21030 31020 c0 -5 7 -10 16 -10 8 0 12 5 9 10 -3 6 -10 10 -16 10
-5 0 -9 -4 -9 -10z"/>
<path d="M21690 31020 c-12 -8 -10 -10 8 -10 13 0 20 4 17 10 -7 12 -6 12 -25
0z"/>
<path d="M22200 31018 l-25 -10 24 -9 c25 -10 56 5 45 22 -6 11 -12 11 -44 -3z"/>
<path d="M23730 31020 c-23 -14 -5 -22 34 -14 21 3 36 7 34 9 -12 9 -56 13
-68 5z"/>
<path d="M24017 31024 c-11 -11 3 -24 18 -18 8 4 12 10 9 15 -6 11 -18 12 -27
3z"/>
<path d="M21198 31013 c7 -3 16 -2 19 1 4 3 -2 6 -13 5 -11 0 -14 -3 -6 -6z"/>
<path d="M21258 31013 c6 -2 18 -2 25 0 6 3 1 5 -13 5 -14 0 -19 -2 -12 -5z"/>
<path d="M21405 31010 c4 -6 11 -8 16 -5 14 9 11 15 -7 15 -8 0 -12 -5 -9 -10z"/>
<path d="M21535 31010 c3 -5 12 -7 20 -3 21 7 19 13 -6 13 -11 0 -18 -4 -14
-10z"/>
<path d="M21815 31010 c3 -5 10 -10 16 -10 5 0 9 5 9 10 0 6 -7 10 -16 10 -8
0 -12 -4 -9 -10z"/>
<path d="M21935 31010 c-3 -5 -2 -10 4 -10 5 0 13 5 16 10 3 6 2 10 -4 10 -5
0 -13 -4 -16 -10z"/>
<path d="M22330 31010 c0 -4 29 -8 65 -9 37 0 65 3 65 9 0 6 -27 10 -65 9 -36
-1 -65 -5 -65 -9z"/>
<path d="M22540 31010 c0 -5 4 -10 9 -10 6 0 13 5 16 10 3 6 -1 10 -9 10 -9 0
-16 -4 -16 -10z"/>
<path d="M22600 31010 c0 -5 9 -10 20 -10 11 0 20 5 20 10 0 6 -9 10 -20 10
-11 0 -20 -4 -20 -10z"/>
<path d="M22675 31010 c3 -5 13 -10 21 -10 8 0 14 5 14 10 0 6 -9 10 -21 10
-11 0 -17 -4 -14 -10z"/>
<path d="M22758 31013 c6 -2 18 -2 25 0 6 3 1 5 -13 5 -14 0 -19 -2 -12 -5z"/>
<path d="M22805 31010 c3 -5 8 -10 11 -10 2 0 4 5 4 10 0 6 -5 10 -11 10 -5 0
-7 -4 -4 -10z"/>
<path d="M23010 31010 c0 -5 7 -10 16 -10 8 0 12 5 9 10 -3 6 -10 10 -16 10
-5 0 -9 -4 -9 -10z"/>
<path d="M23090 31004 c0 -17 22 -14 28 4 2 7 -3 12 -12 12 -9 0 -16 -7 -16
-16z"/>
<path d="M23658 31013 c7 -3 16 -2 19 1 4 3 -2 6 -13 5 -11 0 -14 -3 -6 -6z"/>
<path d="M10250 30876 c0 -8 5 -18 10 -21 6 -3 10 3 10 14 0 12 -4 21 -10 21
-5 0 -10 -6 -10 -14z"/>
<path d="M10 30330 c0 -5 7 -10 16 -10 8 0 12 5 9 10 -3 6 -10 10 -16 10 -5 0
-9 -4 -9 -10z"/>
<path d="M370 30330 c0 -5 5 -10 10 -10 6 0 10 5 10 10 0 6 -4 10 -10 10 -5 0
-10 -4 -10 -10z"/>
<path d="M877 30329 c-9 -6 -15 -14 -13 -18 8 -12 67 0 63 13 -5 15 -28 18
-50 5z"/>
<path d="M755 30320 c3 -5 11 -10 16 -10 6 0 7 5 4 10 -3 6 -11 10 -16 10 -6
0 -7 -4 -4 -10z"/>
<path d="M978 30324 c-14 -13 3 -24 38 -24 19 0 34 5 34 10 0 6 -6 10 -12 10
-7 0 -22 3 -33 6 -11 3 -24 2 -27 -2z"/>
<path d="M1105 30320 c3 -5 17 -10 31 -10 13 0 24 5 24 10 0 6 -14 10 -31 10
-17 0 -28 -4 -24 -10z"/>
<path d="M1656 30323 c-11 -11 -6 -23 8 -23 8 0 17 4 20 9 7 10 -19 23 -28 14z"/>
<path d="M2193 30323 c-7 -2 -13 -9 -13 -15 0 -12 41 -6 41 7 1 12 -11 15 -28
8z"/>
<path d="M538 30313 c7 -3 16 -2 19 1 4 3 -2 6 -13 5 -11 0 -14 -3 -6 -6z"/>
<path d="M1185 30310 c3 -5 10 -10 16 -10 5 0 9 5 9 10 0 6 -7 10 -16 10 -8 0
-12 -4 -9 -10z"/>
<path d="M1350 30310 c-12 -8 -11 -10 8 -10 12 0 22 5 22 10 0 13 -11 13 -30
0z"/>
<path d="M1585 30310 c3 -5 8 -10 11 -10 2 0 4 5 4 10 0 6 -5 10 -11 10 -5 0
-7 -4 -4 -10z"/>
<path d="M1785 30311 c-3 -5 -1 -12 4 -15 12 -8 41 3 41 15 0 12 -37 12 -45 0z"/>
<path d="M2100 30305 c0 -8 7 -15 15 -15 8 0 15 7 15 15 0 8 -7 15 -15 15 -8
0 -15 -7 -15 -15z"/>
<path d="M1428 30303 c7 -3 16 -2 19 1 4 3 -2 6 -13 5 -11 0 -14 -3 -6 -6z"/>
<path d="M2370 30300 c0 -5 5 -10 10 -10 6 0 10 5 10 10 0 6 -4 10 -10 10 -5
0 -10 -4 -10 -10z"/>
<path d="M2505 30300 c-3 -5 1 -10 10 -10 9 0 13 5 10 10 -3 6 -8 10 -10 10
-2 0 -7 -4 -10 -10z"/>
<path d="M2650 30300 c0 -5 7 -10 15 -10 8 0 15 5 15 10 0 6 -7 10 -15 10 -8
0 -15 -4 -15 -10z"/>
<path d="M2925 30300 c-3 -5 -1 -10 4 -10 6 0 11 5 11 10 0 6 -2 10 -4 10 -3
0 -8 -4 -11 -10z"/>
<path d="M3000 30300 c0 -5 12 -10 28 -10 21 0 24 2 12 10 -20 13 -40 13 -40
0z"/>
<path d="M3641 30301 c-12 -8 -9 -11 11 -16 29 -8 52 1 43 16 -8 12 -36 11
-54 0z"/>
<path d="M3790 30300 c0 -5 9 -10 21 -10 11 0 17 5 14 10 -3 6 -13 10 -21 10
-8 0 -14 -4 -14 -10z"/>
<path d="M4006 30302 c-3 -6 -1 -14 5 -17 15 -10 25 3 12 16 -7 7 -13 7 -17 1z"/>
<path d="M8065 30301 c-7 -12 12 -24 25 -16 11 7 4 25 -10 25 -5 0 -11 -4 -15
-9z"/>
<path d="M4445 30290 c4 -6 11 -8 16 -5 14 9 11 15 -7 15 -8 0 -12 -5 -9 -10z"/>
<path d="M5215 30290 c-3 -5 1 -10 9 -10 8 0 18 5 21 10 3 6 -1 10 -9 10 -8 0
-18 -4 -21 -10z"/>
<path d="M6965 30290 c-3 -5 3 -10 14 -10 12 0 21 5 21 10 0 6 -6 10 -14 10
-8 0 -18 -4 -21 -10z"/>
<path d="M10075 30280 c-3 -5 -1 -10 4 -10 6 0 11 5 11 10 0 6 -2 10 -4 10 -3
0 -8 -4 -11 -10z"/>
<path d="M11265 30260 c4 -6 11 -8 16 -5 14 9 11 15 -7 15 -8 0 -12 -5 -9 -10z"/>
<path d="M2772 30109 c2 -6 7 -10 11 -10 4 1 14 1 23 1 8 0 12 5 9 10 -8 13
-48 13 -43 -1z"/>
<path d="M7217 30114 c-12 -12 4 -24 30 -24 21 0 24 2 13 15 -13 16 -32 20
-43 9z"/>
<path d="M2445 30100 c-3 -5 -1 -10 4 -10 6 0 11 5 11 10 0 6 -2 10 -4 10 -3
0 -8 -4 -11 -10z"/>
<path d="M3978 30103 c7 -3 16 -2 19 1 4 3 -2 6 -13 5 -11 0 -14 -3 -6 -6z"/>
<path d="M4140 30100 c0 -5 7 -10 15 -10 8 0 15 5 15 10 0 6 -7 10 -15 10 -8
0 -15 -4 -15 -10z"/>
<path d="M5305 30100 c-3 -5 -1 -10 4 -10 6 0 11 5 11 10 0 6 -2 10 -4 10 -3
0 -8 -4 -11 -10z"/>
<path d="M6120 30100 c0 -5 7 -10 15 -10 8 0 15 5 15 10 0 6 -7 10 -15 10 -8
0 -15 -4 -15 -10z"/>
<path d="M6835 30100 c3 -5 8 -10 11 -10 2 0 4 5 4 10 0 6 -5 10 -11 10 -5 0
-7 -4 -4 -10z"/>
<path d="M7325 30101 c-3 -5 -1 -12 4 -15 12 -8 41 3 41 15 0 12 -37 12 -45 0z"/>
<path d="M7417 30103 c-25 -24 18 -32 49 -8 18 14 17 14 -12 15 -17 0 -34 -3
-37 -7z"/>
<path d="M7529 30099 c-10 -6 -2 -9 26 -10 22 -1 68 -3 103 -4 42 -2 62 1 59
9 -4 13 -168 18 -188 5z"/>
<path d="M7805 30100 c-4 -6 5 -10 20 -10 15 0 24 4 20 10 -3 6 -12 10 -20 10
-8 0 -17 -4 -20 -10z"/>
<path d="M7865 30100 c-4 -6 5 -10 19 -10 14 0 26 5 26 10 0 6 -9 10 -19 10
-11 0 -23 -4 -26 -10z"/>
<path d="M7930 30101 c0 -6 5 -13 10 -16 14 -9 52 4 45 16 -8 12 -55 12 -55 0z"/>
<path d="M8000 30100 c0 -5 12 -10 28 -10 21 0 24 2 12 10 -20 13 -40 13 -40
0z"/>
<path d="M8076 30101 c-3 -5 1 -11 9 -15 9 -3 15 0 15 9 0 16 -16 20 -24 6z"/>
<path d="M8202 30101 c-10 -6 -8 -10 10 -14 35 -10 78 -8 78 3 0 6 -11 10 -24
10 -13 0 -30 2 -38 5 -7 3 -19 1 -26 -4z"/>
<path d="M8373 30103 c-18 -3 -33 -9 -33 -15 0 -6 10 -8 23 -4 12 3 40 6 61 6
22 0 37 2 35 4 -9 7 -56 12 -86 9z"/>
<path d="M8920 30095 c0 -10 7 -15 18 -13 21 4 19 22 -2 26 -10 2 -16 -3 -16
-13z"/>
<path d="M9916 30103 c-11 -11 -6 -23 9 -23 8 0 15 4 15 9 0 13 -16 22 -24 14z"/>
<path d="M5968 30093 c7 -3 16 -2 19 1 4 3 -2 6 -13 5 -11 0 -14 -3 -6 -6z"/>
<path d="M6778 30093 c7 -3 16 -2 19 1 4 3 -2 6 -13 5 -11 0 -14 -3 -6 -6z"/>
<path d="M6933 30093 c9 -2 25 -2 35 0 9 3 1 5 -18 5 -19 0 -27 -2 -17 -5z"/>
<path d="M7178 30093 c7 -3 16 -2 19 1 4 3 -2 6 -13 5 -11 0 -14 -3 -6 -6z"/>
<path d="M8770 30089 c0 -5 5 -7 10 -4 6 3 10 8 10 11 0 2 -4 4 -10 4 -5 0
-10 -5 -10 -11z"/>
<path d="M8810 30090 c0 -5 9 -10 20 -10 11 0 20 5 20 10 0 6 -9 10 -20 10
-11 0 -20 -4 -20 -10z"/>
<path d="M9130 30090 c0 -5 16 -10 36 -10 21 0 33 4 29 10 -3 6 -19 10 -36 10
-16 0 -29 -4 -29 -10z"/>
<path d="M9440 30090 c-11 -7 -7 -10 18 -10 17 0 32 5 32 10 0 13 -30 13 -50
0z"/>
<path d="M9710 30090 c0 -5 7 -10 16 -10 8 0 12 5 9 10 -3 6 -10 10 -16 10 -5
0 -9 -4 -9 -10z"/>
<path d="M10080 30085 c0 -10 11 -13 34 -12 35 3 62 16 35 18 -8 0 -26 2 -41
4 -19 2 -28 -1 -28 -10z"/>
<path d="M10385 30091 l-30 -7 40 -6 c64 -10 165 -9 165 2 0 6 -10 10 -22 10
-13 1 -45 3 -73 5 -27 2 -63 0 -80 -4z"/>
<path d="M9520 30080 c0 -5 9 -10 19 -10 11 0 23 5 26 10 4 6 -5 10 -19 10
-14 0 -26 -4 -26 -10z"/>
<path d="M9818 30078 c9 -9 15 -9 24 0 9 9 7 12 -12 12 -19 0 -21 -3 -12 -12z"/>
<path d="M9978 30083 c7 -3 16 -2 19 1 4 3 -2 6 -13 5 -11 0 -14 -3 -6 -6z"/>
<path d="M10210 30080 c0 -5 4 -10 9 -10 6 0 13 5 16 10 3 6 -1 10 -9 10 -9 0
-16 -4 -16 -10z"/>
<path d="M10285 30080 c4 -6 11 -8 16 -5 14 9 11 15 -7 15 -8 0 -12 -5 -9 -10z"/>
<path d="M10585 30080 c3 -5 8 -10 11 -10 2 0 4 5 4 10 0 6 -5 10 -11 10 -5 0
-7 -4 -4 -10z"/>
<path d="M10638 30083 c7 -3 16 -2 19 1 4 3 -2 6 -13 5 -11 0 -14 -3 -6 -6z"/>
<path d="M10690 30081 c0 -5 27 -9 60 -9 33 0 57 4 54 9 -3 5 -30 9 -60 9 -30
0 -54 -4 -54 -9z"/>
<path d="M10905 30080 c-3 -5 1 -10 9 -10 9 0 16 5 16 10 0 6 -4 10 -9 10 -6
0 -13 -4 -16 -10z"/>
<path d="M11050 30080 c0 -5 5 -10 11 -10 5 0 7 5 4 10 -3 6 -8 10 -11 10 -2
0 -4 -4 -4 -10z"/>
<path d="M11185 30079 c-22 -5 -24 -7 -10 -9 48 -6 200 -2 194 4 -8 9 -154 12
-184 5z"/>
<path d="M11422 30081 c-11 -6 -10 -10 4 -15 21 -8 56 2 49 15 -8 11 -36 12
-53 0z"/>
<path d="M11555 30080 c-17 -7 -15 -9 13 -9 17 -1 32 4 32 9 0 12 -17 12 -45
0z"/>
<path d="M11685 30081 c-37 -6 -35 -7 30 -13 116 -9 175 -9 175 1 0 5 -7 12
-16 15 -19 7 -135 5 -189 -3z"/>
<path d="M11933 30075 c5 -13 227 -20 227 -7 0 15 -64 23 -153 20 -47 -1 -76
-6 -74 -13z"/>
<path d="M12192 30084 c-27 -12 3 -24 59 -24 44 0 60 3 57 13 -5 12 -92 21
-116 11z"/>
<path d="M12337 30078 c-21 -13 15 -17 198 -21 193 -4 311 3 264 17 -33 9
-447 13 -462 4z"/>
<path d="M13190 30079 c-47 -3 -140 -4 -206 -2 -74 3 -124 1 -128 -5 -11 -18
55 -21 417 -21 272 0 357 3 354 12 -5 16 -78 30 -102 19 -17 -8 -207 -7 -240
1 -5 1 -48 0 -95 -4z"/>
<path d="M13665 30071 c-9 -15 6 -18 74 -17 42 1 66 5 68 14 6 15 -132 18
-142 3z"/>
<path d="M13820 30069 c0 -4 5 -11 11 -14 19 -12 1240 -13 1236 -1 -5 14 -25
15 -277 14 -113 0 -212 1 -220 1 -96 6 -750 6 -750 0z"/>
<path d="M15102 30058 c5 -14 101 -23 127 -12 13 5 11 8 -9 14 -43 14 -122 12
-118 -2z"/>
<path d="M15257 30064 c-11 -12 3 -24 29 -24 27 0 32 15 8 24 -20 8 -29 8 -37
0z"/>
<path d="M15378 30062 c-114 -6 -55 -21 95 -24 149 -3 192 1 168 17 -13 8
-173 12 -263 7z"/>
<path d="M15707 30062 c-20 -2 -35 -7 -32 -13 8 -12 195 -12 195 1 0 6 -8 10
-17 11 -74 4 -113 4 -146 1z"/>
<path d="M15933 30063 c-45 -4 -59 -22 -20 -24 51 -3 191 1 195 6 18 18 -81
28 -175 18z"/>
<path d="M16146 30051 c-10 -16 4 -18 107 -20 74 -1 98 2 95 11 -5 15 -193 24
-202 9z"/>
<path d="M16438 30052 c-38 -2 -68 -7 -68 -12 0 -9 96 -16 140 -12 8 1 60 2
114 3 74 0 96 3 88 11 -12 12 -138 16 -274 10z"/>
<path d="M16762 30052 c-13 -2 -22 -8 -20 -14 3 -7 40 -11 102 -10 88 0 118 5
105 16 -6 5 -161 13 -187 8z"/>
<path d="M17065 30053 c-89 -4 -116 -10 -98 -21 7 -5 34 -7 60 -5 26 1 70 2
96 2 33 1 47 5 45 13 -5 14 -5 14 -103 11z"/>
<path d="M17185 30040 c3 -5 13 -10 21 -10 8 0 12 5 9 10 -3 6 -13 10 -21 10
-8 0 -12 -4 -9 -10z"/>
<path d="M17256 30040 c-40 -14 5 -18 208 -19 150 0 207 2 199 10 -6 6 -35 10
-64 9 -30 0 -58 -1 -64 0 -86 5 -265 6 -279 0z"/>
<path d="M17879 30046 c-3 -3 -49 -6 -103 -7 -54 -1 -92 -6 -84 -10 26 -15
268 -15 268 0 0 6 -8 10 -17 10 -10 -1 -27 2 -38 6 -11 3 -23 4 -26 1z"/>
<path d="M18377 30044 c-3 -4 -96 -6 -206 -5 -135 2 -201 -1 -201 -8 0 -13
-28 -12 415 -17 332 -3 405 -1 391 13 -2 3 -83 6 -180 8 -96 2 -183 6 -194 9
-10 4 -21 3 -25 0z"/>
<path d="M18807 30033 c-18 -17 0 -22 81 -22 49 0 95 -1 102 -3 7 -2 15 3 17
10 3 8 -5 12 -24 13 -15 0 -60 2 -99 5 -39 2 -74 1 -77 -3z"/>
<path d="M19205 30032 c-69 -4 -101 -22 -39 -23 21 0 80 -2 131 -5 56 -2 94 0
98 6 3 6 0 12 -7 14 -21 7 -118 11 -183 8z"/>
<path d="M19020 30025 c0 -12 53 -25 76 -19 41 10 27 24 -26 24 -27 0 -50 -2
-50 -5z"/>
<path d="M19434 30019 c-2 -4 -1 -9 3 -12 16 -8 309 -7 338 2 29 9 29 9 5 11
-92 5 -342 5 -346 -1z"/>
<path d="M19905 30020 c-11 -18 -2 -20 84 -22 73 0 102 4 90 16 -11 11 -168
16 -174 6z"/>
<path d="M19815 30010 c8 -12 65 -13 65 -2 0 5 -16 9 -35 10 -21 1 -33 -3 -30
-8z"/>
<path d="M20115 30010 c-4 -6 12 -10 39 -10 25 0 46 5 46 10 0 6 -18 10 -39
10 -22 0 -43 -4 -46 -10z"/>
<path d="M20236 30011 c-12 -19 66 -29 92 -12 9 5 1 10 -25 14 -51 9 -61 9
-67 -2z"/>
<path d="M20405 30010 c-3 -5 3 -10 15 -10 12 0 18 5 15 10 -3 6 -10 10 -15
10 -5 0 -12 -4 -15 -10z"/>
<path d="M20619 30009 c-9 -6 4 -9 40 -9 30 0 52 2 50 4 -11 9 -77 13 -90 5z"/>
<path d="M20757 29999 c8 -8 16 -8 30 0 16 9 14 10 -11 11 -22 0 -27 -3 -19
-11z"/>
<path d="M20845 30000 c3 -5 8 -10 11 -10 2 0 4 5 4 10 0 6 -5 10 -11 10 -5 0
-7 -4 -4 -10z"/>
<path d="M20905 30000 c-7 -11 7 -13 75 -10 74 3 72 20 -2 20 -37 0 -70 -4
-73 -10z"/>
<path d="M21085 30000 c-4 -6 5 -10 20 -10 15 0 24 4 20 10 -3 6 -12 10 -20
10 -8 0 -17 -4 -20 -10z"/>
<path d="M21170 30000 c0 -6 10 -10 23 -10 12 -1 48 -3 80 -5 44 -4 57 -2 57
9 0 11 -18 15 -80 15 -46 0 -80 -4 -80 -9z"/>
<path d="M21355 30001 c-3 -5 -1 -12 4 -15 13 -8 42 4 35 15 -7 12 -31 12 -39
0z"/>
<path d="M21455 30000 c-3 -6 4 -11 17 -11 13 -1 42 -3 65 -4 24 -2 45 1 49 6
3 5 2 9 -3 10 -4 0 -34 2 -65 5 -33 3 -59 0 -63 -6z"/>
<path d="M21676 30002 c-9 -16 28 -24 55 -13 13 5 17 10 9 11 -8 0 -25 3 -36
6 -12 3 -25 1 -28 -4z"/>
<path d="M21825 30000 c-3 -5 1 -10 9 -10 9 0 16 5 16 10 0 6 -4 10 -9 10 -6
0 -13 -4 -16 -10z"/>
<path d="M21887 30004 c-17 -17 11 -24 94 -24 53 0 89 4 89 10 0 6 -31 10 -74
10 -41 0 -81 2 -88 5 -8 3 -17 3 -21 -1z"/>
<path d="M22175 30000 c-3 -6 1 -13 10 -16 19 -8 30 0 20 15 -8 14 -22 14 -30
1z"/>
<path d="M22265 30001 c-31 -5 -36 -8 -22 -14 28 -11 187 -9 187 3 0 6 -12 10
-27 10 -16 0 -44 2 -63 4 -19 2 -53 1 -75 -3z"/>
<path d="M22698 30003 c-34 -5 -37 -23 -4 -23 33 0 57 10 50 21 -3 5 -8 8 -12
8 -4 -1 -19 -4 -34 -6z"/>
<path d="M23317 30003 c-15 -14 -6 -23 24 -23 27 0 30 2 19 15 -13 16 -32 19
-43 8z"/>
<path d="M23650 29997 l-35 -11 33 -4 c40 -4 66 4 57 18 -7 12 -9 12 -55 -3z"/>
<path d="M24290 29997 c0 -9 10 -14 29 -13 32 1 29 10 -6 21 -16 4 -23 2 -23
-8z"/>
<path d="M22105 29990 c3 -5 13 -10 21 -10 8 0 14 5 14 10 0 6 -9 10 -21 10
-11 0 -17 -4 -14 -10z"/>
<path d="M22480 29990 c0 -5 11 -10 25 -10 14 0 25 5 25 10 0 6 -11 10 -25 10
-14 0 -25 -4 -25 -10z"/>
<path d="M22775 29990 c3 -5 13 -10 21 -10 8 0 14 5 14 10 0 6 -9 10 -21 10
-11 0 -17 -4 -14 -10z"/>
<path d="M22940 29990 c-13 -9 -13 -10 0 -9 8 0 24 4 35 9 l20 9 -20 0 c-11 0
-27 -4 -35 -9z"/>
<path d="M23080 29992 c0 -14 11 -21 26 -15 8 3 11 9 8 14 -7 11 -34 12 -34 1z"/>
<path d="M23180 29990 c0 -5 11 -10 25 -10 14 0 25 5 25 10 0 6 -11 10 -25 10
-14 0 -25 -4 -25 -10z"/>
<path d="M23410 29990 c0 -5 17 -10 38 -9 30 0 33 2 17 9 -28 12 -55 12 -55 0z"/>
<path d="M23506 29991 c-3 -5 0 -11 8 -14 15 -6 26 1 26 15 0 11 -27 10 -34
-1z"/>
<path d="M23578 29993 c7 -3 16 -2 19 1 4 3 -2 6 -13 5 -11 0 -14 -3 -6 -6z"/>
<path d="M23755 29990 c3 -5 8 -10 11 -10 2 0 4 5 4 10 0 6 -5 10 -11 10 -5 0
-7 -4 -4 -10z"/>
<path d="M23860 29990 c20 -13 87 -13 95 0 4 6 -16 10 -52 10 -41 0 -54 -3
-43 -10z"/>
<path d="M24040 29990 c0 -5 11 -10 25 -10 14 0 25 5 25 10 0 6 -11 10 -25 10
-14 0 -25 -4 -25 -10z"/>
<path d="M24370 29990 c0 -5 5 -10 10 -10 6 0 10 5 10 10 0 6 -4 10 -10 10 -5
0 -10 -4 -10 -10z"/>
<path d="M14126 27038 c-40 -91 -76 -215 -106 -372 -68 -355 -79 -461 -50
-461 10 0 20 22 31 70 9 39 38 160 63 270 65 274 92 369 128 444 35 71 31 94
-16 99 -23 3 -29 -3 -50 -50z"/>
<path d="M12829 27039 c-19 -12 -47 -303 -55 -579 -6 -237 0 -297 29 -288 8 3
14 49 19 154 4 82 11 174 17 204 5 30 15 109 21 175 7 66 18 161 24 210 7 50
9 97 5 106 -10 20 -42 30 -60 18z"/>
<path d="M7480 26914 c-118 -18 -319 -88 -398 -137 -45 -29 -109 -99 -122
-133 -22 -57 -2 -134 48 -187 29 -31 243 -141 429 -220 183 -79 197 -101 116
-189 -62 -65 -142 -119 -261 -176 -110 -52 -167 -62 -205 -37 -32 21 -47 13
-47 -25 0 -40 32 -60 96 -60 66 0 140 26 276 97 127 67 189 122 237 212 67
126 30 166 -278 296 -188 80 -317 154 -346 199 -23 35 -13 67 37 122 81 88
267 154 443 158 99 3 100 3 103 28 2 13 -3 29 -10 35 -15 13 -83 22 -118 17z"/>
<path d="M11576 26898 c-12 -7 -16 -25 -16 -81 0 -40 -3 -96 -7 -125 -5 -49
-10 -56 -45 -78 -95 -60 -158 -141 -158 -202 0 -54 55 -75 66 -24 12 56 27 83
71 123 24 22 46 39 48 37 2 -2 -3 -64 -11 -137 -15 -137 -13 -171 10 -171 25
0 33 25 50 160 24 179 23 177 58 189 79 28 132 0 177 -91 36 -74 51 -144 51
-243 0 -69 7 -85 35 -85 17 0 35 38 35 72 l0 41 23 -20 c32 -29 54 -34 97 -23
44 12 84 54 112 118 10 23 22 42 26 42 4 0 16 -29 26 -64 25 -88 76 -130 134
-112 38 12 34 35 -7 52 -30 12 -43 25 -55 53 -13 34 -43 179 -61 301 -9 55
-20 70 -51 70 -17 0 -27 -8 -34 -24 -5 -13 -19 -27 -32 -31 -50 -15 -158 -143
-173 -207 -8 -31 -25 -38 -25 -10 0 35 -42 147 -67 180 -44 58 -79 74 -156 70
l-68 -4 7 88 c3 47 4 98 0 111 -6 27 -35 39 -60 25z m581 -384 c-8 -78 -57
-178 -97 -199 -43 -22 -60 -7 -60 55 0 40 6 55 42 102 40 51 91 96 112 97 5 1
6 -24 3 -55z"/>
<path d="M15798 26874 c-29 -15 -42 -46 -36 -85 5 -38 40 -36 77 6 35 41 40
70 12 85 -24 12 -20 13 -53 -6z"/>
<path d="M11900 26867 c-28 -14 -37 -46 -20 -76 15 -29 41 -26 73 7 29 31 34
51 15 70 -15 15 -36 15 -68 -1z"/>
<path d="M16115 26717 c-85 -32 -150 -80 -181 -133 -24 -41 -26 -52 -22 -125
4 -74 7 -82 38 -114 66 -69 222 -111 380 -103 102 6 153 22 148 47 -3 14 -18
15 -98 13 -150 -6 -322 39 -374 97 -27 30 -31 99 -8 136 30 47 132 95 203 95
48 0 60 4 73 22 51 72 -42 110 -159 65z"/>
<path d="M15686 26678 c-3 -7 -7 -52 -10 -99 -3 -47 -15 -112 -26 -144 -24
-70 -25 -91 -4 -99 36 -14 73 52 99 173 26 126 17 181 -31 181 -13 0 -26 -6
-28 -12z"/>
<path d="M15210 26666 c-126 -47 -220 -119 -220 -170 0 -17 4 -36 8 -43 18
-28 174 -43 228 -23 15 6 29 8 32 5 3 -2 -15 -58 -40 -122 -25 -65 -60 -163
-77 -218 -25 -76 -40 -106 -62 -125 -26 -22 -30 -32 -27 -65 2 -32 7 -41 25
-43 30 -4 62 49 114 186 22 59 59 152 81 207 94 232 103 270 73 295 -18 15
-52 5 -65 -19 -5 -10 -25 -26 -44 -35 -29 -13 -43 -14 -85 -5 -28 6 -53 14
-56 19 -9 15 102 62 164 69 64 8 91 23 91 52 0 43 -70 60 -140 35z"/>
<path d="M10413 26626 c-99 -32 -159 -94 -189 -194 -34 -118 4 -264 84 -318
81 -56 250 -26 260 46 4 25 5 25 -110 0 -51 -11 -61 -11 -94 7 -48 25 -74 74
-74 138 0 98 33 164 110 223 37 28 50 33 79 28 54 -9 67 -27 52 -76 -9 -31
-28 -53 -78 -95 -36 -30 -78 -57 -94 -60 -37 -8 -53 -29 -45 -60 9 -34 42 -33
122 5 103 50 164 141 164 246 0 54 -3 63 -29 88 -35 34 -96 42 -158 22z"/>
<path d="M14564 26600 c-32 -13 -65 -61 -62 -89 4 -37 41 -40 64 -7 9 14 25
26 35 26 20 0 19 -19 -2 -77 -20 -55 -30 -144 -19 -183 19 -70 89 -82 159 -27
62 49 81 83 81 144 0 100 -41 181 -107 209 -36 15 -116 18 -149 4z m171 -122
c13 -23 19 -51 18 -87 0 -50 -4 -58 -36 -88 -66 -60 -86 -40 -70 66 13 77 38
141 56 141 7 0 21 -15 32 -32z"/>
<path d="M11048 26563 c-8 -10 -31 -47 -51 -83 -65 -116 -135 -176 -92 -79 20
43 14 71 -18 77 -26 5 -51 -33 -81 -123 -24 -70 -27 -94 -20 -123 11 -43 36
-62 62 -46 21 13 80 86 147 182 28 39 55 70 60 68 6 -1 13 -25 17 -52 23 -172
30 -211 47 -250 17 -38 24 -44 51 -44 17 0 40 5 51 10 22 12 49 61 49 90 0 29
-36 26 -56 -5 -9 -14 -20 -25 -25 -25 -11 0 -26 61 -33 130 -22 227 -28 260
-49 275 -28 19 -41 19 -59 -2z"/>
<path d="M10019 26433 c-108 -130 -137 -160 -214 -218 -80 -60 -106 -75 -131
-75 -14 0 -16 8 -11 55 4 41 2 59 -9 70 -56 55 -99 -76 -54 -164 32 -64 67
-67 159 -12 36 22 99 70 140 107 88 81 231 267 231 301 0 46 -36 25 -111 -64z"/>
<path d="M8356 26478 c-170 -32 -366 -211 -366 -335 0 -49 39 -139 75 -173 38
-36 130 -62 240 -67 107 -6 170 5 170 27 0 18 -19 23 -168 48 -134 23 -195 48
-220 92 -21 35 -30 31 114 58 117 22 234 71 338 141 70 48 86 74 77 124 -16
83 -109 114 -260 85z m148 -67 c56 -14 62 -24 29 -56 -61 -59 -324 -165 -409
-165 -13 0 -30 -10 -38 -22 -27 -38 -27 -14 0 40 32 64 98 123 179 162 98 47
164 58 239 41z"/>
<path d="M9218 26436 c-31 -13 -76 -35 -101 -49 -51 -30 -173 -157 -201 -209
-24 -45 -16 -101 20 -125 43 -28 91 -5 193 93 49 46 92 81 94 77 3 -4 0 -35
-5 -68 -14 -84 -3 -478 15 -529 24 -70 68 -72 83 -3 5 25 2 34 -16 49 -21 17
-22 24 -21 189 2 288 31 458 91 519 29 30 31 55 6 72 -22 15 -102 7 -158 -16z
m12 -102 c0 -29 -192 -184 -228 -184 -38 0 93 140 168 180 43 24 60 25 60 4z"/>
<path d="M14225 25724 c-49 -2 -254 -8 -455 -14 -201 -6 -403 -13 -450 -15
-47 -2 -179 -7 -295 -10 -115 -4 -248 -8 -295 -10 -47 -2 -170 -6 -275 -10
-104 -3 -237 -7 -295 -10 -58 -3 -258 -9 -445 -15 -466 -14 -920 -31 -1305
-50 -375 -18 -402 -19 -555 -25 -492 -19 -807 -43 -1350 -105 -137 -16 -281
-31 -320 -35 -115 -10 -269 -36 -282 -47 -17 -14 -16 -40 1 -63 14 -19 16 -19
107 3 52 12 189 33 304 47 116 14 271 34 345 45 74 10 160 21 190 24 30 3 143
14 250 25 107 11 258 23 335 26 77 3 221 10 320 16 99 6 232 12 295 14 63 2
147 7 185 10 121 10 864 43 1009 45 77 0 142 3 145 5 4 1 120 6 259 9 139 4
280 9 315 11 34 2 159 7 277 10 118 4 227 8 242 10 15 2 134 6 265 9 131 4
299 9 373 11 74 3 234 7 355 10 121 3 290 10 375 16 334 22 1634 16 2169 -10
126 -6 201 -6 213 0 21 11 24 42 6 57 -12 10 -1792 24 -2013 16z"/>
<path d="M11470 22857 c-3 -3 -205 -7 -450 -10 -440 -5 -725 -19 -1560 -78
-162 -11 -401 -27 -530 -35 -233 -13 -335 -25 -398 -45 -39 -13 -56 -48 -80
-169 -15 -74 -17 -161 -17 -670 0 -322 -4 -592 -7 -600 -4 -8 -12 -114 -18
-235 -5 -121 -17 -270 -25 -331 -8 -62 -21 -188 -29 -280 -9 -93 -22 -203 -30
-244 -8 -41 -20 -122 -26 -180 -15 -142 -14 -140 -59 -140 -59 0 -83 -49 -34
-67 10 -4 24 -15 31 -25 17 -23 33 -23 66 3 15 11 33 18 41 15 16 -6 755 -58
1065 -75 217 -12 409 -29 455 -40 29 -7 30 -8 37 -86 8 -94 21 -1015 14 -1015
-3 0 -42 9 -88 20 -86 21 -104 22 -863 55 -192 8 -433 24 -535 35 -239 25
-386 37 -650 55 -118 8 -312 22 -430 30 -700 49 -820 54 -1510 65 -322 5 -630
14 -685 19 -132 14 -451 14 -476 1 -20 -11 -26 -45 -9 -55 6 -4 122 -8 258
-10 136 -1 324 -7 417 -13 94 -6 337 -11 540 -11 204 -1 462 -5 575 -11 113
-5 300 -15 415 -20 191 -10 547 -34 1095 -75 113 -9 309 -27 435 -40 221 -24
336 -31 855 -55 455 -21 617 -38 658 -72 10 -9 11 -98 7 -429 -5 -401 -4 -420
14 -438 18 -18 45 -19 502 -24 337 -3 528 -10 629 -20 165 -18 401 -32 800
-47 151 -6 320 -13 375 -17 55 -3 507 -7 1005 -8 498 -2 995 -5 1105 -9 289
-9 571 -44 876 -107 166 -34 204 -34 218 4 23 59 79 629 101 1032 5 99 17 275
25 390 8 116 19 271 23 345 l7 135 39 3 c22 2 123 -4 225 -13 297 -26 648 -34
1376 -30 745 4 1069 -7 1305 -45 30 -5 108 -12 174 -15 l118 -7 -7 -52 c-4
-28 -18 -134 -32 -236 -14 -102 -29 -219 -33 -260 -8 -64 -30 -200 -35 -208
-1 -1 -53 7 -116 17 -63 11 -186 27 -274 36 -88 9 -245 30 -350 47 -171 29
-211 32 -405 32 -230 0 -298 -10 -364 -57 -56 -40 -101 -184 -117 -382 -16
-204 -14 -711 5 -915 9 -96 16 -227 16 -290 1 -63 5 -176 10 -250 38 -579 40
-595 95 -959 21 -143 24 -177 13 -187 -7 -7 -56 -21 -108 -30 -222 -40 -1205
-17 -2047 47 -213 16 -339 20 -578 17 -223 -2 -305 0 -305 8 0 7 -11 19 -25
28 -14 9 -25 26 -25 39 0 12 -7 44 -15 70 -15 51 -34 280 -33 411 0 102 -10
114 -82 98 -29 -7 -94 -12 -145 -12 -98 0 -438 43 -665 84 -269 50 -380 65
-660 95 -157 17 -297 33 -311 35 -15 3 -35 -1 -45 -9 -18 -13 -19 -40 -20
-648 -1 -753 -12 -689 118 -667 172 28 522 9 833 -45 315 -56 805 -123 950
-132 64 -3 87 0 115 14 31 16 36 24 42 68 16 122 9 254 -19 361 -22 81 -25
106 -16 115 31 31 505 33 883 4 411 -31 683 -46 1160 -60 107 -3 244 -8 303
-10 59 -2 228 0 376 5 325 11 368 21 389 85 10 31 11 54 2 100 -64 358 -103
757 -121 1250 -5 143 -14 294 -20 335 -6 41 -13 256 -16 478 -5 421 1 531 36
669 27 103 47 134 106 158 45 18 73 20 275 20 206 0 240 -3 410 -32 102 -17
235 -36 295 -42 167 -18 429 -53 437 -60 4 -4 3 -33 -2 -66 -5 -33 -10 -85
-12 -115 -1 -38 -8 -62 -22 -77 -16 -19 -17 -27 -8 -47 12 -28 9 -43 -44 -210
-41 -126 -41 -160 -1 -190 26 -19 46 -21 315 -27 158 -4 312 -10 342 -13 30
-3 138 -11 240 -16 200 -11 422 -33 915 -91 50 -6 182 -24 295 -40 113 -16
279 -36 370 -44 91 -9 197 -20 235 -26 39 -5 171 -21 295 -34 270 -30 431 -50
566 -71 56 -8 121 -14 145 -12 51 4 48 -15 31 193 -40 472 -43 1108 -6 1278 6
28 7 29 57 23 50 -5 351 -25 677 -45 173 -11 596 -8 622 3 9 4 22 22 28 40 14
43 28 210 36 416 3 91 12 205 20 254 8 49 21 146 29 215 8 69 25 214 39 321
14 107 30 269 36 360 13 179 80 676 109 805 22 96 97 392 151 600 43 163 49
215 25 235 -23 19 -31 5 -50 -90 -9 -47 -28 -119 -41 -160 -13 -41 -39 -142
-58 -225 -20 -82 -49 -202 -66 -265 -16 -63 -41 -194 -56 -290 -14 -96 -30
-202 -35 -235 -10 -71 -25 -219 -39 -405 -5 -74 -15 -166 -20 -205 -29 -203
-41 -293 -55 -420 -9 -77 -22 -176 -30 -220 -8 -44 -19 -188 -25 -320 -7 -132
-17 -265 -24 -295 l-13 -55 -244 -3 c-151 -2 -334 3 -479 13 -129 8 -302 20
-385 26 -191 12 -198 14 -192 42 16 68 49 421 43 462 -10 65 -71 127 -146 149
-120 34 -810 114 -1040 121 -63 1 -236 17 -385 34 -178 20 -367 34 -555 41
-156 6 -286 12 -288 14 -2 2 16 13 40 25 89 43 148 112 148 174 0 74 -145 147
-294 147 -31 0 -37 3 -28 12 8 8 44 12 95 13 77 0 82 1 85 22 5 34 -59 50
-135 34 -67 -13 -142 -48 -157 -73 -21 -34 12 -49 130 -57 156 -12 224 -44
224 -106 0 -65 -80 -125 -180 -135 -48 -4 -55 -8 -58 -29 -3 -22 -7 -23 -55
-17 -29 3 -160 11 -292 16 -254 11 -318 17 -428 45 -56 14 -73 15 -97 5 -31
-13 -35 -21 -45 -85 -4 -22 -22 -87 -40 -145 -39 -121 -75 -256 -75 -282 0
-22 16 -22 -220 2 -456 48 -526 50 -1600 54 -754 2 -849 5 -1105 25 -345 28
-329 25 -321 56 3 13 17 131 31 262 14 131 34 290 46 353 29 163 23 355 -15
453 -69 181 -67 179 -329 175 -106 -2 -400 -3 -654 -3 -416 0 -463 2 -475 16
-14 18 -128 24 -663 34 -143 3 -366 7 -495 10 -129 2 -305 11 -390 19 -179 17
-475 32 -915 46 -170 5 -404 15 -520 21 -130 7 -348 9 -575 5 -287 -5 -395 -4
-505 8 -77 8 -175 17 -217 19 -102 7 -108 1 -80 -96 12 -39 26 -117 32 -172
13 -128 9 -804 -5 -808 -5 -2 -64 2 -130 9 -66 7 -226 18 -355 24 -129 6 -354
19 -500 30 -146 11 -328 24 -404 30 -76 5 -141 12 -144 15 -3 3 2 47 11 98 23
129 55 366 62 467 4 47 15 164 25 260 10 96 21 245 25 330 3 85 11 200 17 255
7 62 12 306 12 635 1 474 3 545 19 625 10 50 26 104 36 120 20 36 21 36 381
59 135 9 306 23 380 31 74 8 263 21 420 30 157 8 308 17 335 20 176 18 615 35
1080 42 585 9 666 9 1370 -2 259 -4 1300 -11 2315 -16 1872 -8 2147 -13 2870
-49 223 -11 495 -24 605 -30 110 -5 299 -14 420 -20 386 -18 493 -25 1340 -90
138 -10 306 -21 375 -25 219 -10 396 -25 760 -65 195 -21 470 -51 610 -65 140
-14 289 -30 330 -35 41 -6 143 -19 225 -30 83 -11 188 -27 235 -36 1464 -264
1480 -266 1507 -259 13 3 23 13 23 23 0 25 -77 44 -380 92 -146 23 -400 66
-565 96 -165 29 -365 64 -445 78 -278 48 -564 85 -1025 131 -137 14 -304 32
-370 40 -324 39 -638 67 -885 80 -115 6 -559 36 -809 55 -402 30 -567 41 -871
55 -712 32 -994 46 -1038 50 -52 5 -476 21 -762 30 -102 3 -259 8 -350 11 -91
3 -784 7 -1540 9 -1275 3 -1711 6 -3105 21 -286 4 -522 4 -525 1z m-1395
-2129 c47 -8 260 -12 640 -13 314 0 694 -6 845 -13 151 -6 406 -16 565 -22
160 -6 394 -20 520 -31 146 -13 361 -22 590 -26 207 -3 350 -9 337 -14 -25
-10 -29 -37 -7 -46 9 -3 107 -1 219 5 163 9 256 8 472 -4 193 -11 414 -14 780
-12 481 3 513 2 532 -15 11 -10 32 -55 47 -100 39 -116 45 -286 17 -447 -23
-125 -47 -341 -58 -513 -6 -99 -9 -110 -31 -124 -28 -19 -29 -30 -4 -57 17
-19 19 -29 11 -96 -5 -41 -11 -127 -15 -190 -3 -63 -10 -164 -15 -225 -6 -60
-19 -249 -30 -420 -11 -170 -23 -326 -25 -345 -2 -19 -9 -87 -15 -150 -12
-119 -32 -276 -51 -392 -10 -61 -13 -68 -33 -68 -13 0 -99 15 -192 34 -93 19
-236 42 -319 51 -82 9 -153 18 -156 20 -23 15 -583 26 -1229 25 -421 0 -866 4
-990 10 -124 6 -331 15 -460 20 -442 19 -645 30 -875 50 -348 29 -393 31 -765
35 -190 2 -356 4 -369 4 l-24 1 7 228 c5 125 8 245 9 267 0 22 -3 126 -8 230
-5 105 -10 366 -11 580 -6 1215 -12 1589 -28 1663 -23 106 -22 112 17 112 17
0 64 -6 102 -12z m9042 -1059 c25 -10 147 -18 513 -34 69 -3 222 -10 340 -15
118 -5 278 -12 355 -15 278 -11 435 -24 649 -55 72 -10 230 -32 351 -49 121
-17 262 -41 314 -53 111 -26 130 -26 151 2 14 19 20 20 94 10 43 -5 117 -16
165 -24 47 -8 113 -17 146 -21 66 -7 132 -33 154 -59 22 -26 29 -91 20 -174
-15 -134 -31 -285 -34 -332 -2 -25 -8 -70 -14 -100 -24 -116 -31 -242 -32
-528 -1 -278 14 -756 27 -848 3 -24 2 -44 -4 -48 -5 -3 -48 0 -93 8 -46 8
-151 22 -234 31 -82 8 -208 22 -280 30 -459 50 -591 65 -680 75 -94 10 -140
16 -410 54 -60 9 -216 27 -345 41 -129 14 -312 35 -405 45 -94 11 -249 25
-345 30 -96 6 -256 17 -355 25 -99 8 -234 15 -300 15 -146 0 -195 7 -195 28 0
8 15 63 34 121 19 59 40 136 46 172 l12 66 106 52 c59 29 150 74 202 101 52
26 141 64 197 85 104 37 129 54 120 78 -3 7 -62 41 -132 75 -70 35 -161 85
-203 112 -43 27 -107 63 -144 80 -58 27 -67 35 -63 53 7 35 24 152 41 287 28
224 49 316 120 526 19 55 34 112 34 126 0 41 22 48 77 27z m836 4 c-7 -2 -19
-2 -25 0 -7 3 -2 5 12 5 14 0 19 -2 13 -5z m-940 -1145 c55 -33 137 -78 184
-99 46 -22 82 -43 79 -48 -3 -4 -34 -18 -68 -31 -35 -12 -144 -63 -242 -111
-99 -49 -183 -89 -189 -89 -5 0 -6 25 -2 63 11 100 52 367 61 395 5 18 56 -5
177 -80z m-6438 -2237 c244 -26 355 -42 595 -86 102 -18 259 -45 350 -59 91
-15 194 -31 230 -37 36 -6 117 -9 180 -7 l115 3 2 -157 c2 -117 8 -183 24
-260 12 -57 25 -130 28 -163 4 -33 12 -69 18 -80 7 -11 23 -73 37 -137 23
-104 25 -131 20 -233 -8 -136 -3 -132 -147 -121 -122 9 -647 81 -772 105 -390
77 -751 110 -942 87 l-73 -8 0 206 0 206 43 -5 c23 -3 75 -13 114 -22 53 -12
76 -14 84 -6 7 7 12 70 14 165 4 197 6 205 57 213 54 9 204 -4 216 -18 6 -7
18 -66 27 -132 19 -134 54 -248 85 -279 19 -20 32 -21 198 -21 97 0 222 -4
276 -9 91 -8 100 -8 112 9 20 27 17 162 -5 270 -10 50 -17 92 -15 94 2 2 31
-2 66 -8 80 -15 377 -41 394 -34 16 6 26 32 19 52 -4 14 -36 20 -203 33 -141
12 -214 22 -257 37 -70 25 -103 27 -111 6 -4 -8 3 -54 14 -103 26 -106 45
-253 36 -276 -8 -20 -31 -20 -146 0 -68 12 -126 15 -215 11 l-122 -6 -15 47
c-9 26 -22 92 -30 147 -24 155 -35 209 -49 222 -30 30 -365 43 -393 15 -11
-10 -14 -52 -14 -184 l0 -170 -27 6 c-16 3 -54 7 -85 8 l-58 2 -2 186 c-4 230
0 422 8 479 l6 43 56 -5 c31 -2 147 -14 257 -26z"/>
<path d="M12472 20327 c-5 -6 -12 -43 -16 -82 -3 -38 -26 -150 -50 -248 -36
-141 -43 -184 -35 -205 21 -58 45 -93 67 -99 55 -14 198 54 270 127 55 56 69
90 52 130 -37 89 -195 61 -295 -53 -28 -32 -45 -45 -45 -35 0 9 15 68 34 130
43 144 53 189 62 265 6 55 4 62 -14 72 -15 8 -22 7 -30 -2z m235 -404 c8 -22
-78 -102 -141 -132 -75 -36 -126 -48 -126 -29 0 7 16 36 36 65 34 49 58 70
114 100 30 16 112 13 117 -4z"/>
<path d="M11020 20309 c-131 -22 -301 -89 -371 -148 -19 -16 -50 -58 -68 -94
-35 -69 -36 -105 -5 -154 34 -54 183 -126 299 -143 103 -16 227 4 262 42 31
34 4 40 -105 21 -87 -15 -111 -16 -173 -5 -137 24 -239 88 -239 150 0 67 74
159 165 206 66 33 203 72 288 81 46 5 70 12 74 22 12 32 -26 38 -127 22z"/>
<path d="M13030 20230 c-21 -21 -23 -29 -14 -54 12 -32 74 -7 74 31 0 19 -17
43 -32 43 -4 0 -17 -9 -28 -20z"/>
<path d="M15334 20237 c-3 -8 4 -76 15 -153 12 -76 21 -180 21 -230 0 -64 4
-96 15 -110 12 -15 16 -16 24 -5 33 50 8 450 -31 499 -14 16 -37 15 -44 -1z"/>
<path d="M14181 20168 c-4 -13 -16 -60 -26 -105 l-18 -82 -55 -3 c-62 -3 -86
-24 -66 -55 9 -14 22 -17 54 -15 48 4 47 13 8 -106 -15 -45 -18 -66 -10 -74
22 -22 39 2 63 82 13 45 29 85 37 87 20 8 101 -27 113 -49 6 -11 9 -34 6 -52
-3 -17 -9 -50 -12 -73 -6 -35 -5 -44 9 -49 33 -13 49 20 54 109 4 78 3 84 -23
115 -15 18 -47 39 -76 49 -27 10 -49 22 -49 28 0 5 12 45 26 88 21 64 24 84
15 103 -13 30 -39 31 -50 2z"/>
<path d="M11347 20130 c-27 -8 -99 -80 -124 -124 -7 -12 -12 -40 -13 -63 0
-35 6 -49 38 -81 35 -38 89 -62 138 -62 44 0 118 34 160 75 52 49 57 87 23
158 -37 75 -144 122 -222 97z m138 -63 c42 -21 55 -40 55 -83 0 -35 -5 -47
-30 -67 -95 -80 -240 -70 -240 17 0 38 21 65 85 115 52 40 79 44 130 18z"/>
<path d="M14323 20114 c-3 -9 -2 -28 3 -43 12 -33 48 -36 52 -4 7 47 -40 86
-55 47z"/>
<path d="M11643 20103 c-7 -3 -13 -19 -13 -37 0 -17 -7 -86 -16 -151 -17 -132
-9 -195 24 -195 28 0 39 12 67 73 43 96 139 246 150 235 3 -3 9 -58 14 -123
11 -139 23 -162 68 -129 16 12 44 48 64 82 43 73 85 129 92 122 3 -3 15 -55
27 -115 23 -114 42 -154 61 -125 20 32 -27 295 -57 317 -10 7 -22 13 -26 13
-14 0 -49 -40 -113 -131 l-60 -84 -5 105 c-10 206 -52 202 -199 -23 -35 -54
-66 -96 -68 -93 -2 2 5 53 17 114 11 60 18 117 14 125 -6 18 -24 26 -41 20z"/>
<path d="M12963 20068 c-5 -7 -15 -35 -22 -63 -6 -27 -28 -86 -47 -130 -47
-106 -48 -111 -29 -119 26 -10 58 32 97 129 45 111 55 160 38 180 -15 18 -25
19 -37 3z"/>
<path d="M13349 20020 c-20 -11 -61 -42 -92 -70 -50 -46 -56 -49 -62 -30 -10
31 -41 24 -58 -13 -24 -49 -41 -122 -34 -140 7 -18 34 -22 52 -9 6 4 39 40 75
81 69 79 139 131 177 131 30 0 37 -31 28 -116 -7 -71 10 -119 40 -108 22 9 21
203 0 244 -27 53 -66 62 -126 30z"/>
<path d="M13853 20028 c-6 -7 -15 -29 -22 -48 -26 -80 -133 -169 -204 -170
-25 0 -27 3 -22 23 20 65 90 127 144 127 31 0 27 37 -5 52 -43 20 -102 -7
-141 -65 -76 -114 -65 -207 25 -207 45 0 133 48 164 90 29 40 38 38 38 -9 0
-54 18 -101 40 -101 16 0 18 15 22 148 5 137 0 172 -22 172 -4 0 -12 -6 -17
-12z"/>
<path d="M14447 19993 c-4 -3 -7 -21 -7 -39 0 -18 -5 -45 -11 -61 -24 -63 14
-153 66 -153 54 0 80 81 55 171 -16 59 -78 108 -103 82z m63 -138 c0 -35 -14
-53 -25 -35 -10 16 4 82 16 75 5 -4 9 -21 9 -40z"/>
<path d="M15045 19981 c-80 -37 -134 -123 -114 -180 24 -70 85 -58 174 34 30
30 57 55 59 55 3 0 9 -18 12 -40 7 -43 26 -66 45 -54 16 10 5 118 -15 149 -11
16 -26 25 -44 25 -15 0 -36 7 -46 15 -24 18 -22 19 -71 -4z m55 -60 c0 -14
-91 -91 -106 -91 -18 0 -17 10 4 38 32 42 102 78 102 53z"/>
<path d="M14771 19972 c-14 -9 -44 -43 -68 -76 -33 -45 -43 -67 -43 -97 0 -27
5 -42 16 -46 22 -8 62 34 76 79 12 40 62 93 79 82 5 -3 9 -39 9 -80 0 -59 3
-76 16 -81 27 -10 35 18 32 108 -2 69 -7 91 -22 108 -23 25 -62 26 -95 3z"/>
<path d="M12454 19446 c-3 -8 -4 -25 -2 -38 3 -20 10 -23 49 -26 48 -3 65 11
53 42 -12 31 -90 48 -100 22z"/>
<path d="M11045 19398 c-3 -7 -23 -65 -46 -128 -35 -96 -41 -128 -43 -197 -1
-94 13 -122 82 -161 80 -45 229 -37 248 13 10 26 -2 29 -96 26 -77 -2 -95 1
-124 18 -70 44 -70 124 0 305 37 97 38 136 3 136 -11 0 -22 -6 -24 -12z"/>
<path d="M11510 19272 c-21 -11 -36 -28 -38 -42 -6 -39 13 -44 54 -16 41 27
91 34 125 16 24 -13 57 -77 65 -127 5 -33 2 -44 -21 -72 -37 -43 -100 -74
-152 -74 -55 0 -73 16 -73 65 0 31 7 47 39 80 21 23 60 53 87 68 49 26 56 38
31 54 -21 13 -58 1 -123 -43 -78 -52 -108 -104 -102 -173 14 -141 207 -168
316 -43 56 63 66 91 52 144 -18 64 -56 132 -88 156 -38 28 -127 32 -172 7z"/>
<path d="M12492 19213 c-16 -65 -44 -217 -46 -243 -1 -16 5 -26 17 -28 23 -5
51 59 79 182 17 78 19 98 8 111 -23 28 -48 18 -58 -22z"/>
<path d="M11945 19173 c-104 -54 -147 -173 -89 -242 21 -26 33 -31 67 -31 23
0 61 9 84 19 45 21 139 87 162 114 24 30 27 19 19 -60 -22 -221 -61 -378 -113
-453 -38 -55 -98 -77 -125 -45 -7 8 -21 15 -32 15 -17 0 -20 -5 -14 -30 5 -27
1 -33 -33 -54 -44 -28 -122 -113 -157 -173 -21 -34 -23 -46 -14 -62 21 -40 59
-22 93 45 29 56 106 132 165 161 49 24 68 28 137 27 44 -1 97 -6 118 -12 43
-12 67 -7 67 15 0 17 -69 48 -127 58 -24 4 -43 8 -43 10 0 2 14 28 31 57 45
75 55 110 89 295 41 221 48 313 26 336 -28 27 -52 20 -87 -25 -60 -79 -94
-110 -151 -139 -61 -31 -113 -38 -121 -16 -18 47 46 131 107 143 48 9 67 31
41 50 -25 18 -62 17 -100 -3z"/>
<path d="M12713 19162 c-108 -47 -136 -88 -114 -162 14 -46 65 -92 122 -109
77 -23 204 -26 269 -6 33 10 65 24 72 32 22 27 -5 33 -97 24 -65 -7 -109 -5
-169 5 -99 17 -131 38 -131 85 0 31 5 37 54 63 32 17 77 31 110 35 44 5 57 10
59 25 9 44 -82 49 -175 8z"/>
<path d="M13304 18636 c-11 -29 0 -51 26 -51 21 0 25 5 25 30 0 24 -5 31 -23
33 -13 2 -24 -3 -28 -12z"/>
<path d="M13759 18531 c-2 -44 -6 -82 -9 -84 -3 -3 -56 -10 -118 -16 -156 -16
-172 -20 -185 -48 -8 -19 -7 -27 5 -39 14 -15 24 -14 99 4 46 12 108 24 138
28 l54 7 -7 -42 c-3 -23 -22 -90 -42 -148 -23 -70 -31 -110 -25 -116 7 -7 15
-6 25 2 17 14 63 132 92 234 l19 68 110 -1 c61 -1 158 -7 218 -12 107 -11 131
-8 109 14 -18 18 -260 57 -360 58 l-63 0 7 70 c7 77 -2 100 -41 100 -22 0 -23
-5 -26 -79z"/>
<path d="M10918 18571 c-118 -38 -217 -121 -238 -201 -38 -141 113 -310 277
-310 51 0 177 27 213 45 31 16 65 53 57 62 -4 3 -52 -4 -108 -17 -120 -27
-212 -30 -254 -8 -40 21 -91 76 -104 111 -16 40 -14 113 4 146 36 70 147 131
241 131 71 0 106 18 85 44 -18 22 -100 20 -173 -3z"/>
<path d="M11477 18546 c-14 -35 50 -86 91 -71 18 7 15 50 -6 68 -22 20 -78 22
-85 3z"/>
<path d="M13139 18467 c-14 -30 3 -353 19 -369 6 -6 18 -8 26 -5 13 5 16 24
15 109 -1 57 -4 143 -8 193 -5 74 -9 90 -23 93 -11 2 -22 -6 -29 -21z"/>
<path d="M11483 18425 c-28 -20 -45 -73 -47 -149 -1 -69 22 -120 52 -114 14 3
17 17 19 76 1 52 8 86 24 119 16 33 19 50 12 62 -14 22 -34 24 -60 6z"/>
<path d="M12998 18409 c-8 -13 -33 -56 -56 -94 -78 -135 -163 -192 -234 -154
-17 9 -19 17 -14 53 5 32 3 46 -8 55 -39 32 -82 -21 -70 -85 17 -89 103 -134
186 -96 97 44 155 111 208 239 28 67 30 77 17 90 -13 14 -17 13 -29 -8z"/>
<path d="M12263 18336 c-143 -58 -203 -112 -203 -182 0 -39 37 -95 75 -114 50
-24 171 -25 251 -1 69 21 144 63 144 82 0 21 -32 20 -97 -3 -96 -33 -252 -34
-284 -2 -48 48 18 116 158 163 74 25 78 29 78 56 0 42 -23 42 -122 1z"/>
<path d="M19407 19316 c-83 -23 -144 -105 -168 -224 -13 -67 -7 -303 8 -356
13 -41 38 -55 60 -34 16 17 16 23 0 106 -20 102 -21 132 -7 132 6 0 70 -48
143 -106 154 -124 186 -142 224 -128 42 15 39 32 -11 54 -49 21 -341 242 -350
265 -5 14 22 24 144 55 80 20 200 60 230 75 34 18 47 53 31 84 -15 27 -71 55
-148 75 -72 19 -92 19 -156 2z m178 -67 c92 -34 84 -40 -145 -114 -74 -24
-136 -42 -138 -41 -2 2 2 22 8 45 12 45 61 108 94 121 38 16 124 10 181 -11z"/>
<path d="M20625 19205 c-31 -30 -34 -75 -6 -75 27 0 84 73 69 88 -18 18 -37
14 -63 -13z"/>
<path d="M21376 19181 c-4 -5 -18 -49 -32 -98 -14 -48 -35 -98 -46 -110 -13
-14 -19 -30 -15 -43 3 -12 -1 -37 -9 -55 -36 -88 3 -103 43 -17 15 31 29 59
30 61 1 2 26 0 56 -3 l54 -7 6 -58 c3 -37 14 -75 30 -102 25 -42 71 -79 97
-79 7 0 25 -11 42 -25 34 -28 60 -32 78 -10 10 12 9 20 -4 40 -15 23 -15 28
-1 54 18 36 48 57 148 104 60 28 78 41 75 54 -13 71 -254 -43 -292 -137 -9
-22 -20 -40 -24 -40 -11 0 -57 50 -71 77 -6 12 -11 42 -11 67 0 49 24 76 66
76 32 0 74 37 74 65 0 31 -41 59 -73 51 -13 -3 -44 -24 -69 -46 -40 -34 -53
-40 -92 -40 -31 0 -48 5 -52 14 -3 7 8 49 25 92 17 44 31 86 31 95 0 25 -52
40 -64 20z"/>
<path d="M19918 19096 c-64 -14 -170 -66 -210 -103 -60 -57 -42 -161 40 -235
57 -52 103 -69 199 -75 71 -5 83 -3 89 11 4 9 4 19 1 22 -3 3 -50 14 -104 25
-133 26 -180 64 -190 153 -5 37 -2 51 13 67 52 58 222 105 279 78 36 -17 44
-45 18 -64 -39 -30 -149 -67 -203 -69 -47 -1 -55 -4 -58 -22 -3 -22 32 -44 72
-44 72 0 254 96 270 143 16 43 -3 79 -54 105 -49 25 -78 26 -162 8z"/>
<path d="M20945 19035 c-91 -20 -117 -32 -113 -53 2 -13 21 -20 83 -29 112
-16 189 -47 221 -89 33 -42 28 -69 -23 -125 -43 -47 -90 -73 -170 -94 -71 -19
-92 -37 -72 -61 18 -22 86 -14 164 21 74 32 118 66 156 118 67 92 11 196 -131
242 -62 21 -55 31 10 16 48 -11 66 -7 75 17 4 11 -2 23 -15 34 -26 21 -96 22
-185 3z"/>
<path d="M20260 18994 c-14 -9 -38 -33 -55 -52 -24 -29 -30 -45 -30 -83 0
-111 101 -132 197 -41 15 14 30 23 33 21 9 -10 -47 -185 -85 -264 -44 -93 -98
-151 -152 -165 -30 -9 -38 -16 -38 -34 0 -61 75 -50 152 22 83 78 174 294 193
460 8 71 -9 112 -47 112 -12 0 -29 7 -39 16 -27 24 -99 28 -129 8z m98 -101
c-56 -79 -119 -93 -126 -30 -2 18 5 35 22 52 21 21 35 25 81 25 l57 0 -34 -47z"/>
<path d="M20592 18983 c-15 -28 -45 -191 -38 -208 9 -25 35 -17 56 17 23 39
55 169 47 192 -8 21 -54 21 -65 -1z"/>
<path d="M19560 20771 c-164 -35 -358 -139 -426 -228 -36 -48 -61 -135 -50
-179 12 -48 83 -106 156 -129 80 -25 243 -26 369 -2 110 21 133 41 36 33 -148
-13 -183 -14 -270 -5 -199 20 -280 113 -204 235 44 72 202 165 356 209 67 20
121 28 225 32 l136 6 25 -27 c28 -30 42 -33 51 -10 8 20 -8 48 -36 68 -32 23
-254 21 -368 -3z"/>
<path d="M20690 20706 c-102 -21 -171 -76 -258 -203 -22 -33 -55 -73 -71 -89
-47 -44 -39 -104 14 -104 14 0 33 18 58 55 20 30 37 58 37 61 0 16 94 146 129
177 36 32 105 62 161 69 14 2 25 9 25 17 0 22 -36 29 -95 17z"/>
<path d="M17560 20678 c-31 -51 -57 -128 -65 -191 -7 -57 -8 -57 -45 -63 -79
-13 -134 -74 -98 -110 12 -12 18 -11 48 11 34 25 64 32 74 17 7 -11 -23 -154
-36 -169 -13 -16 -3 -43 16 -43 23 0 48 56 66 145 l16 80 87 10 c85 10 112 23
104 50 -4 11 -146 27 -161 18 -20 -13 4 91 38 163 40 84 40 114 0 114 -17 0
-30 -10 -44 -32z"/>
<path d="M22073 20658 c-6 -7 -18 -53 -27 -102 -26 -132 -24 -129 -85 -133
-51 -3 -103 -23 -117 -44 -3 -6 3 -20 14 -32 l21 -21 51 24 c27 13 52 21 56
18 3 -3 -5 -35 -18 -72 -24 -68 -18 -96 17 -83 21 9 76 127 69 150 -5 17 0 18
94 12 56 -4 102 -3 105 2 13 20 -13 35 -78 44 -37 5 -71 11 -75 14 -4 3 3 39
16 80 29 93 31 131 5 145 -26 13 -36 13 -48 -2z"/>
<path d="M20973 20599 c-67 -19 -156 -92 -225 -183 -92 -122 -100 -176 -26
-176 50 0 71 17 64 53 -12 61 105 217 190 253 63 26 95 16 129 -43 18 -31 18
-33 0 -72 -35 -79 -16 -156 46 -188 13 -7 54 -13 90 -13 114 0 137 48 27 57
-86 7 -96 11 -103 41 -3 16 -1 40 4 55 10 25 12 26 73 21 57 -5 69 -2 128 28
57 29 65 37 68 64 8 87 -119 116 -228 53 l-34 -21 -26 30 c-14 17 -35 35 -47
41 -26 13 -85 13 -130 0z m397 -85 c0 -35 -82 -81 -125 -70 -36 9 -29 34 15
57 32 17 110 27 110 13z"/>
<path d="M16330 20593 c-8 -2 -33 -30 -55 -61 -47 -67 -58 -91 -20 -44 44 53
50 44 51 -76 2 -156 27 -227 68 -193 11 9 13 44 9 169 -5 206 -8 216 -53 205z"/>
<path d="M20018 20576 c-79 -41 -132 -184 -95 -255 21 -42 60 -62 136 -72 67
-8 76 -7 119 16 114 59 295 295 227 295 -9 0 -19 -10 -24 -23 -5 -12 -38 -59
-74 -103 -49 -61 -79 -88 -118 -108 -65 -32 -130 -34 -176 -6 -29 17 -33 25
-33 61 0 49 24 91 80 141 40 36 45 60 15 72 -8 3 -33 -5 -57 -18z"/>
<path d="M16115 20563 c-3 -16 -21 -80 -40 -143 -27 -89 -34 -131 -33 -183 2
-58 5 -67 21 -67 13 0 31 28 68 105 28 57 48 109 45 114 -3 5 -16 7 -27 4 -16
-5 -20 -2 -16 8 3 8 13 46 23 86 14 59 15 75 4 87 -19 24 -39 19 -45 -11z"/>
<path d="M17022 20578 c-26 -26 -2 -179 33 -208 21 -18 11 -27 -48 -44 -63
-19 -95 -40 -107 -72 -12 -31 -52 -40 -118 -26 -56 12 -122 53 -122 76 0 12
71 46 96 46 20 0 96 63 105 87 19 50 -49 113 -122 113 -68 0 -139 -64 -164
-146 -14 -47 -14 -55 1 -93 23 -58 132 -148 190 -157 52 -7 137 16 185 51 38
28 125 72 151 77 12 2 31 -15 56 -47 40 -53 58 -61 75 -33 8 13 4 24 -21 52
-18 20 -32 42 -31 49 0 7 36 30 81 51 94 46 169 109 149 129 -9 9 -19 8 -44
-7 -49 -29 -148 -77 -189 -92 -36 -12 -38 -12 -56 14 -26 37 -42 88 -42 131 0
37 -14 61 -35 61 -6 0 -16 -5 -23 -12z m-253 -122 c10 -12 7 -18 -16 -30 -16
-8 -47 -17 -68 -21 l-40 -6 37 35 c40 38 68 45 87 22z"/>
<path d="M21513 20442 c-82 -98 -92 -153 -29 -160 20 -3 34 5 54 27 14 17 32
31 38 31 7 0 26 11 42 25 29 25 31 25 37 6 3 -11 1 -39 -6 -61 -11 -37 -11
-43 8 -62 17 -16 28 -19 56 -14 66 12 103 66 46 66 -19 0 -20 4 -14 64 6 57 5
66 -14 85 -31 31 -50 26 -104 -25 -56 -52 -78 -51 -27 1 28 29 32 39 24 53 -6
9 -23 18 -37 20 -20 3 -35 -8 -74 -56z"/>
<path d="M21135 20136 c-9 -13 -25 -68 -35 -121 -11 -53 -22 -100 -25 -105 -2
-4 -28 -10 -57 -13 -63 -8 -94 -33 -84 -71 7 -30 39 -35 70 -11 28 21 36 19
36 -9 0 -39 21 -43 49 -8 22 25 38 33 95 43 l68 11 37 -40 c40 -44 86 -73 144
-92 21 -6 51 -23 67 -36 24 -21 33 -23 50 -14 13 7 20 21 20 38 0 46 -21 64
-83 73 -74 10 -132 38 -132 64 0 18 9 21 89 27 52 5 99 14 113 23 59 39 0 110
-92 109 -58 -1 -143 -35 -176 -70 -19 -20 -32 -24 -81 -24 -32 0 -58 3 -58 6
0 3 14 53 32 110 26 85 29 106 18 119 -18 22 -47 18 -65 -9z"/>
<path d="M17370 20094 c-6 -14 -10 -61 -10 -105 l0 -79 -29 0 c-31 0 -61 -22
-61 -45 0 -23 30 -45 61 -45 l29 0 0 -80 c0 -66 3 -82 16 -87 28 -11 44 25 44
99 l0 69 82 -3 83 -3 6 -46 c15 -100 67 -138 275 -198 77 -23 140 -27 164 -11
13 9 12 12 -4 25 -11 8 -28 15 -39 15 -10 0 -56 11 -101 25 -97 30 -202 94
-217 132 -21 55 -18 57 148 57 138 1 154 3 180 22 57 43 39 93 -44 124 -49 19
-72 21 -148 17 -106 -5 -162 -26 -190 -68 -20 -29 -21 -30 -80 -24 -89 9 -115
15 -115 28 0 7 5 49 11 94 10 65 9 86 -1 98 -19 23 -49 18 -60 -11z m515 -214
c4 -6 -27 -10 -84 -10 -54 0 -91 4 -91 10 0 6 35 10 84 10 47 0 88 -4 91 -10z"/>
<path d="M20456 20104 c-9 -8 -16 -22 -16 -31 0 -9 -5 -33 -12 -54 -10 -34
-16 -40 -56 -51 -51 -15 -74 -40 -54 -60 10 -10 17 -10 32 0 20 12 50 16 50 6
0 -3 -5 -15 -11 -27 -20 -36 -39 -121 -30 -130 28 -28 89 59 107 151 7 37 12
39 105 47 l74 6 -35 -28 c-19 -15 -55 -47 -80 -69 -39 -38 -43 -44 -30 -59 21
-25 81 -15 172 29 100 49 119 46 134 -19 6 -28 16 -60 23 -73 14 -27 56 -39
76 -22 19 15 19 29 1 49 -7 9 -22 43 -32 75 -20 65 -43 96 -73 96 -10 0 -44
-11 -75 -25 -31 -14 -56 -23 -56 -21 0 2 23 18 50 35 52 32 66 65 34 78 -9 3
-67 2 -128 -4 -61 -5 -114 -7 -118 -4 -4 4 0 26 8 50 8 24 13 50 10 58 -7 18
-51 17 -70 -3z"/>
<path d="M16531 20071 c-8 -14 -6 -44 5 -105 15 -80 15 -88 0 -105 -22 -24
-20 -58 4 -71 15 -8 20 -21 20 -56 0 -31 5 -46 16 -51 24 -9 38 13 44 69 5 56
14 63 98 70 l37 3 -3 -75 c-3 -65 -1 -79 18 -102 53 -68 151 -38 260 79 39 41
70 79 70 84 0 5 4 9 10 9 6 0 7 -38 3 -105 -5 -95 -4 -105 12 -111 12 -5 24
-1 35 13 13 17 17 48 19 166 2 153 -5 187 -39 187 -14 0 -29 -20 -55 -72 -47
-94 -77 -133 -127 -165 -78 -48 -123 -51 -134 -7 -10 39 19 71 81 89 61 18 85
37 85 66 0 26 -35 38 -80 28 -19 -4 -91 -9 -159 -11 l-125 -3 -13 84 c-7 46
-18 90 -24 98 -16 19 -47 16 -58 -6z"/>
<path d="M16225 20038 c-74 -13 -187 -48 -212 -64 -29 -18 -30 -67 -3 -94 16
-16 33 -20 88 -20 162 0 282 -28 282 -66 0 -22 -118 -141 -162 -163 -37 -18
-43 -19 -70 -5 -34 18 -48 11 -48 -22 0 -29 41 -74 67 -74 37 0 145 61 192
108 81 81 113 172 82 230 -15 28 -79 51 -161 58 -39 4 -73 11 -76 15 -8 14 44
22 111 16 46 -3 70 -1 84 10 26 18 27 59 2 73 -23 12 -107 11 -176 -2z m32
-154 c-3 -3 -12 -4 -19 -1 -8 3 -5 6 6 6 11 1 17 -2 13 -5z m50 -10 c-3 -3
-12 -4 -19 -1 -8 3 -5 6 6 6 11 1 17 -2 13 -5z"/>
<path d="M4249 19343 c-35 -8 -40 -48 -38 -317 1 -146 6 -266 12 -273 17 -23
45 4 52 50 9 62 33 511 28 519 -7 13 -37 25 -54 21z"/>
<path d="M2711 19271 c-30 -30 -36 -116 -18 -244 9 -61 14 -114 11 -119 -3 -4
-34 -8 -69 -8 -44 0 -68 -5 -79 -16 -35 -34 -6 -56 71 -54 32 1 64 1 71 1 9
-1 12 -27 12 -96 0 -76 3 -97 15 -101 8 -4 22 0 31 7 13 11 15 27 12 81 -3 42
-1 73 6 82 8 11 37 16 108 17 54 2 99 1 101 -2 1 -2 11 -31 22 -64 29 -88 95
-140 193 -152 39 -4 50 -2 66 16 21 23 18 26 -46 34 -88 13 -158 82 -158 157
1 32 6 38 56 69 35 21 61 45 71 66 15 31 15 35 -4 67 -50 85 -166 46 -194 -65
-6 -26 -17 -51 -25 -58 -21 -17 -182 -8 -194 11 -14 21 -12 249 2 309 9 40 9
53 -2 66 -17 20 -36 19 -59 -4z m393 -325 c-16 -26 -44 -35 -44 -16 0 16 54
63 58 51 2 -5 -4 -21 -14 -35z"/>
<path d="M3443 19140 c-55 -24 -162 -132 -202 -203 -25 -44 -35 -75 -39 -122
-4 -61 -3 -65 26 -94 38 -38 72 -41 72 -7 0 13 -7 29 -15 36 -21 17 -18 76 5
127 27 61 74 116 152 180 65 53 83 85 55 96 -8 3 -32 -3 -54 -13z"/>
<path d="M1533 19066 c-106 -44 -208 -112 -272 -182 -58 -63 -66 -85 -57 -149
19 -126 228 -237 416 -221 91 8 144 27 148 55 4 22 2 22 -80 16 -46 -4 -88 -8
-95 -10 -21 -7 -136 16 -179 34 -97 43 -159 131 -134 192 20 47 114 125 210
173 111 55 187 73 244 56 89 -26 102 -79 35 -147 -54 -57 -127 -90 -224 -103
-82 -11 -112 -27 -102 -54 5 -12 21 -16 64 -16 145 0 288 76 341 180 9 19 22
35 28 37 7 2 25 -20 42 -50 17 -29 53 -74 81 -99 59 -54 68 -40 -96 -149 -88
-58 -113 -79 -113 -96 0 -16 8 -25 25 -29 26 -6 52 9 140 81 28 23 75 58 105
78 48 33 55 35 61 19 18 -47 157 -125 213 -120 50 5 41 37 -14 57 -61 21 -164
84 -167 102 -2 8 27 34 63 58 95 65 224 191 224 219 0 12 -6 22 -14 22 -8 0
-57 -35 -108 -78 -132 -110 -213 -172 -225 -172 -16 0 -105 119 -138 185 -27
54 -33 60 -62 61 -23 1 -39 9 -55 29 -52 66 -174 75 -305 21z"/>
<path d="M3915 18963 c-76 -75 -92 -164 -40 -213 35 -33 70 -29 115 15 l39 38
6 -26 c14 -55 88 -93 119 -62 24 24 16 49 -16 53 -22 3 -30 11 -42 50 -9 26
-20 71 -26 101 -13 70 -23 81 -75 81 -35 0 -48 -6 -80 -37z m65 -63 c0 -21
-45 -100 -57 -100 -22 0 -14 47 13 79 26 31 44 40 44 21z"/>
<path d="M3670 18964 c-17 -15 -44 -46 -61 -70 -16 -24 -36 -44 -43 -44 -23 0
-47 -36 -66 -100 -22 -74 -14 -103 27 -98 21 2 37 23 88 113 34 61 69 110 76
110 11 0 13 -22 11 -115 -2 -101 0 -119 18 -147 14 -23 27 -33 45 -33 36 0 48
29 24 59 -17 20 -19 40 -19 165 0 112 -3 146 -16 164 -20 29 -46 28 -84 -4z"/>
<path d="M24420 18688 c-30 -3 -140 -12 -245 -18 -104 -7 -198 -16 -207 -21
-10 -6 -18 -21 -18 -34 0 -23 4 -25 43 -25 23 0 69 4 102 10 33 5 132 16 220
25 88 9 161 18 163 20 2 2 2 14 0 27 -3 22 -6 23 -58 16z"/>
<path d="M3939 18387 c-8 -17 -7 -53 5 -137 9 -63 16 -120 16 -127 0 -9 -16
-13 -53 -13 -70 0 -94 -22 -61 -54 10 -11 34 -16 75 -16 l59 0 0 -93 c0 -104
11 -131 51 -125 24 3 24 4 24 108 l0 105 175 6 c96 3 176 6 178 7 7 6 0 42 -9
48 -6 3 -87 6 -180 5 -202 -2 -185 -17 -196 174 l-8 130 -32 3 c-27 3 -35 -1
-44 -21z"/>
<path d="M1828 18279 c-25 -14 -24 -66 2 -74 21 -7 69 14 89 39 29 35 -44 63
-91 35z"/>
<path d="M3757 18188 c-14 -18 -46 -69 -72 -113 -97 -161 -169 -235 -216 -220
-23 8 -49 60 -49 99 0 33 -31 69 -52 61 -24 -9 -30 -37 -22 -90 8 -59 40 -106
88 -128 103 -49 200 33 337 283 33 62 58 118 55 126 -9 24 -44 15 -69 -18z"/>
<path d="M2376 18080 c-21 -19 -41 -50 -51 -80 -21 -62 -30 -68 -44 -30 -11
33 -27 37 -56 17 -16 -12 -17 -24 -13 -102 5 -69 10 -92 26 -107 40 -41 70 -4
128 157 19 53 42 87 54 80 9 -6 40 -98 40 -119 0 -23 50 -76 71 -76 27 0 35
27 17 59 -9 14 -19 44 -23 66 -28 155 -76 199 -149 135z"/>
<path d="M1895 18060 c-15 -17 -17 -31 -12 -98 3 -44 17 -109 32 -149 14 -39
25 -82 25 -96 0 -29 29 -51 54 -41 22 8 20 37 -10 156 -20 78 -25 117 -20 160
4 44 2 61 -10 72 -21 21 -37 20 -59 -4z"/>
<path d="M3080 18063 c-62 -10 -132 -47 -170 -90 -67 -77 -83 -133 -87 -323
-3 -91 -1 -183 4 -204 10 -46 34 -66 61 -50 27 17 36 234 12 284 -12 25 -16
48 -11 75 l7 40 53 -3 c43 -3 64 2 117 28 148 73 190 191 83 234 -22 9 -40 15
-42 15 -1 -1 -13 -4 -27 -6z m47 -80 c7 -20 -60 -85 -112 -109 -55 -26 -80
-30 -90 -14 -13 22 56 101 110 126 35 16 87 14 92 -3z"/>
<path d="M23789 16769 c-49 -49 9 -72 227 -94 179 -17 403 -27 442 -18 15 3
22 13 22 28 0 21 -3 22 -157 29 -197 8 -428 37 -470 59 -40 21 -39 21 -64 -4z"/>
<path d="M18496 15938 c-37 -84 -50 -156 -37 -205 24 -87 114 -190 219 -250
66 -38 124 -49 175 -35 21 6 37 7 37 2 0 -22 -60 -348 -68 -370 -12 -34 -5
-50 23 -50 41 0 46 13 75 223 11 73 26 161 35 197 9 36 20 90 25 120 17 110
70 230 127 288 7 7 13 17 13 21 0 14 -25 31 -46 31 -44 0 -131 -187 -160 -343
-7 -42 -22 -53 -82 -63 -109 -17 -289 137 -308 263 -8 53 16 126 53 165 22 23
24 30 13 43 -7 8 -26 15 -42 15 -26 0 -32 -6 -52 -52z"/>
<path d="M19832 15852 c-80 -19 -104 -39 -76 -66 19 -20 37 -20 72 -2 79 40
231 43 422 6 121 -23 180 -46 180 -70 0 -25 -85 -97 -183 -155 -96 -56 -227
-146 -277 -188 -142 -122 -64 -240 200 -305 131 -33 376 -72 447 -72 61 0 64
1 61 23 -3 21 -9 22 -98 28 -185 13 -462 86 -564 149 -61 37 -62 82 -3 140 40
40 80 66 263 176 106 64 187 129 210 171 17 29 17 33 1 57 -25 37 -85 64 -206
92 -144 34 -345 41 -449 16z"/>
<path d="M21845 15630 c-9 -15 -24 -301 -25 -465 0 -171 10 -251 42 -350 18
-56 27 -70 43 -70 26 0 25 34 -5 135 -20 69 -22 95 -21 303 0 125 5 256 11
290 19 115 10 167 -26 167 -7 0 -15 -4 -19 -10z"/>
<path d="M12380 14934 c-153 -23 -238 -60 -295 -127 -51 -59 -61 -98 -40 -152
9 -24 32 -57 50 -74 79 -69 281 -133 319 -102 25 21 3 37 -76 55 -129 29 -228
105 -228 174 0 38 55 104 109 131 48 25 129 41 201 41 49 0 61 -3 70 -20 20
-37 92 -14 77 24 -13 32 -117 60 -187 50z"/>
<path d="M12656 14903 c-2 -10 -7 -110 -11 -223 -5 -185 -4 -208 12 -240 18
-35 47 -50 65 -32 6 6 5 31 -3 68 -9 46 -10 101 -1 238 6 98 8 185 5 192 -8
21 -61 18 -67 -3z"/>
<path d="M13706 14708 c-25 -39 -99 -356 -98 -421 2 -83 8 -99 40 -95 l27 3
-4 93 c-2 75 0 92 11 92 8 0 23 -9 34 -21 20 -22 138 -95 249 -154 39 -20 91
-51 118 -67 44 -28 77 -32 77 -9 0 27 -218 171 -341 225 -34 15 -66 38 -79 56
-12 17 -21 33 -19 34 2 2 25 11 51 20 67 22 161 36 249 36 51 0 81 5 95 15 19
15 19 15 -1 31 -29 23 -234 13 -325 -15 -36 -12 -68 -21 -72 -21 -10 0 21 99
44 141 26 46 21 73 -14 77 -19 2 -31 -3 -42 -20z"/>
<path d="M18570 14684 c-25 -2 -155 -11 -290 -19 -135 -9 -252 -18 -262 -21
-25 -7 -29 -30 -8 -49 18 -16 26 -16 137 -1 65 9 168 19 228 23 64 3 124 12
142 20 22 10 42 13 60 7 16 -4 102 -6 193 -5 177 3 375 -11 480 -33 54 -12 67
-12 79 -1 11 11 10 15 -10 28 -51 33 -194 49 -454 52 -137 1 -270 1 -295 -1z"/>
<path d="M20430 14663 c-121 -4 -388 -22 -500 -34 -52 -5 -153 -13 -225 -17
-123 -7 -130 -8 -133 -29 -2 -14 4 -26 18 -33 22 -12 24 -12 330 20 52 6 145
16 205 22 61 6 281 13 490 14 209 2 383 3 388 4 19 1 4 31 -23 45 -24 12 -68
15 -247 13 -120 -1 -256 -3 -303 -5z"/>
<path d="M22559 14660 c-16 -10 -70 -17 -339 -46 -152 -16 -341 -48 -500 -84
-52 -12 -123 -28 -158 -35 -83 -19 -116 -36 -120 -63 -6 -37 23 -36 156 6 248
80 384 104 801 147 135 13 249 30 257 36 36 30 -52 65 -97 39z"/>
<path d="M12896 14626 c-62 -23 -66 -31 -59 -118 10 -127 54 -170 178 -172 72
-1 118 22 154 77 l24 37 17 -51 c24 -69 48 -99 104 -128 79 -41 197 -32 183
14 -2 5 -34 15 -71 21 -102 17 -155 66 -164 152 -6 69 14 82 130 82 81 0 88 2
88 20 0 29 -31 40 -112 40 -87 0 -136 -21 -158 -68 -15 -31 -30 -42 -30 -21 0
25 -44 69 -93 93 -67 32 -140 40 -191 22z m161 -67 c24 -12 48 -30 54 -40 40
-76 -73 -150 -160 -104 -49 25 -56 86 -15 134 31 37 60 39 121 10z"/>
<path d="M18800 14419 c-70 -10 -276 -63 -315 -81 -94 -43 -120 -75 -89 -109
27 -30 60 -25 73 11 7 21 22 36 48 47 82 34 242 75 318 80 l80 5 -40 -41 c-22
-23 -78 -68 -125 -100 -108 -74 -206 -153 -231 -185 -13 -17 -19 -37 -17 -58
2 -27 10 -37 43 -53 36 -18 64 -20 261 -23 182 -3 223 -1 232 11 10 11 9 17
-4 28 -13 10 -56 15 -163 16 -180 3 -264 11 -286 27 -16 11 -15 15 10 44 15
18 88 74 163 126 166 114 228 167 237 203 14 57 -49 74 -195 52z"/>
<path d="M20516 14298 c-2 -7 -9 -58 -15 -114 -6 -55 -22 -139 -34 -186 -25
-93 -25 -108 3 -108 33 0 86 127 111 267 19 100 20 125 9 137 -15 19 -69 21
-74 4z"/>
<path d="M22180 14184 c-65 -18 -93 -39 -70 -54 8 -5 21 -8 28 -5 8 3 32 8 55
11 l42 6 -30 -19 c-47 -30 -93 -89 -100 -127 -12 -60 26 -110 110 -147 67 -30
193 -22 271 16 73 36 90 73 73 163 -10 56 -18 71 -54 107 -24 23 -61 47 -83
53 -53 16 -175 14 -242 -4z m236 -54 c29 -11 71 -64 79 -99 10 -48 -17 -99
-67 -121 -48 -22 -131 -26 -175 -9 -38 14 -83 58 -83 81 0 10 18 38 39 61 34
36 46 42 92 47 52 5 54 6 52 33 -2 30 0 30 63 7z"/>
<path d="M19805 13868 c-98 -11 -292 -53 -361 -79 -63 -24 -113 -72 -95 -93
21 -25 52 -26 75 -2 29 31 50 42 137 66 148 42 399 76 399 53 0 -22 -105 -133
-244 -259 -88 -80 -199 -186 -244 -237 -75 -82 -83 -94 -78 -121 24 -119 223
-110 465 20 131 71 231 143 231 166 0 13 -44 9 -65 -6 -52 -36 -199 -111 -280
-143 -73 -29 -107 -37 -182 -41 -88 -4 -93 -3 -93 16 0 33 72 114 212 239 182
162 295 271 329 317 34 46 38 91 10 106 -23 12 -102 11 -216 -2z"/>
<path d="M17980 13834 c-81 -17 -177 -53 -277 -101 -97 -48 -217 -157 -211
-194 6 -44 36 -34 97 33 44 47 81 75 147 110 115 60 244 100 310 96 l49 -3 -1
-52 c-3 -100 -86 -241 -310 -523 -138 -175 -148 -196 -117 -238 50 -67 223
-16 405 118 76 56 107 95 90 112 -8 8 -16 7 -30 -3 -131 -95 -243 -155 -325
-174 -108 -25 -102 -8 67 210 203 261 285 399 294 496 7 71 -3 98 -43 115 -41
17 -60 17 -145 -2z"/>
<path d="M18737 13778 c-24 -35 -56 -85 -72 -113 -42 -74 -165 -231 -234 -300
-34 -33 -61 -65 -61 -72 0 -8 11 -19 25 -25 24 -11 30 -8 81 43 59 57 144 178
189 268 38 77 106 172 118 168 6 -2 34 -78 62 -169 52 -168 77 -222 98 -215
21 7 19 35 -6 99 -25 64 -70 222 -81 289 -7 41 -40 89 -61 89 -8 0 -34 -28
-58 -62z"/>
<path d="M20546 13791 c-103 -87 -326 -351 -326 -386 0 -19 34 -37 55 -29 9 4
31 30 49 59 52 80 230 299 260 319 47 30 53 19 51 -101 -2 -75 -12 -153 -33
-258 -33 -159 -62 -316 -88 -479 -18 -111 -15 -324 5 -388 12 -39 36 -49 59
-26 20 20 14 97 -9 135 -19 31 -21 43 -15 111 4 42 18 140 31 217 36 205 71
409 85 498 7 42 17 77 21 77 5 0 19 -18 31 -40 23 -40 42 -55 59 -44 15 9 10
30 -25 104 -19 39 -40 102 -46 140 -6 38 -22 84 -34 102 -33 50 -61 48 -130
-11z"/>
<path d="M21493 13764 c-98 -14 -208 -53 -309 -109 -82 -46 -91 -58 -70 -90 9
-14 22 -25 29 -25 7 0 43 21 81 46 82 55 148 85 236 108 78 20 260 34 260 19
0 -13 -80 -87 -200 -185 -129 -105 -297 -280 -340 -352 -76 -130 -22 -214 153
-239 134 -19 318 34 462 133 43 29 59 60 33 60 -21 0 -78 -23 -145 -58 -78
-40 -176 -64 -268 -65 -81 0 -168 18 -186 39 -59 72 129 289 471 544 135 101
160 144 100 175 -36 19 -176 19 -307 -1z"/>
<path d="M22030 13675 c-5 -14 -13 -38 -16 -53 -12 -45 -123 -253 -160 -298
-19 -23 -34 -51 -34 -62 0 -24 25 -35 50 -22 24 13 130 205 165 298 15 39 31
72 35 72 21 0 61 -90 65 -147 3 -32 8 -96 13 -143 8 -87 7 -104 -23 -320 -19
-135 -26 -436 -12 -532 7 -46 12 -58 26 -58 34 0 40 21 31 100 -19 157 -8 439
22 580 6 30 12 108 12 172 0 127 1 127 47 30 29 -63 51 -76 57 -35 3 18 -73
186 -97 218 -5 5 -25 48 -46 95 -21 47 -47 95 -58 108 -28 30 -65 29 -77 -3z"/>
<path d="M18735 13650 c-3 -5 0 -66 7 -134 10 -103 9 -145 -2 -233 -15 -123
-16 -344 -1 -448 13 -84 14 -255 3 -255 -4 0 -13 15 -20 34 -17 46 -57 87 -77
80 -44 -17 -91 -214 -80 -338 8 -92 16 -116 46 -145 67 -62 148 6 218 179 71
179 97 315 67 356 -22 29 -30 10 -37 -84 -6 -90 -44 -216 -61 -206 -5 4 -7 16
-4 29 11 44 8 311 -5 443 -11 115 -11 154 3 300 17 170 11 352 -12 410 -10 23
-34 30 -45 12z m-42 -1097 c8 -21 20 -61 26 -90 7 -28 21 -59 31 -68 19 -17
19 -18 1 -54 -36 -70 -85 -94 -108 -51 -25 45 -2 300 26 300 5 0 15 -17 24
-37z"/>
<path d="M20782 12787 c-5 -7 -13 -23 -17 -37 -13 -41 -65 -141 -107 -203 -54
-80 -108 -117 -168 -117 -26 0 -49 2 -52 6 -3 3 3 37 13 77 23 89 25 160 4
177 -26 21 -37 -1 -62 -122 -38 -190 -31 -214 64 -212 51 1 65 6 121 44 73 50
102 85 165 195 52 93 77 150 77 175 0 22 -25 33 -38 17z"/>
<path d="M22487 12721 c-17 -39 -156 -211 -237 -291 -92 -92 -193 -138 -234
-107 -21 15 -34 80 -35 166 -1 53 -26 167 -41 184 -14 15 -50 -3 -56 -28 -3
-13 1 -43 10 -67 8 -24 20 -89 25 -144 15 -157 45 -195 137 -174 105 24 189
86 297 220 33 41 87 102 118 136 56 59 78 101 64 123 -12 20 -36 11 -48 -18z"/>
<path d="M19659 12545 c-95 -35 -180 -103 -209 -169 -46 -102 40 -172 285
-231 85 -21 175 -62 175 -80 0 -37 -230 -175 -367 -220 -45 -15 -53 -21 -53
-41 0 -17 8 -28 26 -36 23 -11 34 -8 88 20 33 17 122 63 196 102 74 39 145 83
157 98 64 77 -5 151 -192 206 -240 71 -274 89 -261 139 22 88 183 177 296 164
26 -3 69 -16 94 -28 26 -12 50 -19 53 -15 12 12 -33 61 -77 84 -51 26 -151 29
-211 7z"/>
<path d="M21320 12539 c-140 -38 -244 -116 -244 -183 0 -20 8 -44 18 -55 28
-31 103 -66 189 -90 89 -24 121 -39 165 -76 61 -52 51 -140 -20 -176 -38 -19
-145 -36 -262 -41 -33 -2 -61 -8 -63 -14 -2 -6 6 -23 19 -39 l22 -28 103 7
c125 8 219 35 255 73 68 73 58 199 -21 266 -30 25 -176 87 -205 87 -27 0 -126
48 -132 64 -7 18 26 63 64 88 46 31 183 70 245 70 64 0 121 -29 153 -77 25
-38 48 -33 40 8 -9 50 -81 112 -145 126 -69 15 -92 13 -181 -10z"/>
<path d="M18967 12491 l-29 -18 37 -7 c43 -8 72 8 54 30 -15 19 -29 17 -62 -5z"/>
<path d="M17995 12475 c-107 -23 -192 -63 -231 -108 -60 -70 -58 -117 8 -170
26 -21 79 -42 180 -72 204 -62 273 -88 335 -131 85 -58 101 -107 60 -179 -80
-141 -361 -211 -465 -115 -36 32 -62 31 -62 -4 0 -52 67 -99 156 -109 205 -23
423 97 466 256 10 40 9 51 -7 86 -42 93 -151 160 -378 231 -235 74 -267 90
-267 136 0 74 254 153 398 123 46 -9 63 -19 102 -60 41 -43 49 -47 65 -35 42
31 -30 130 -114 155 -50 14 -170 13 -246 -4z"/>
<path d="M21972 11889 c-81 -9 -94 -15 -170 -72 -103 -78 -162 -191 -141 -269
12 -47 65 -108 122 -141 89 -52 257 -60 349 -17 132 62 215 213 178 325 -14
44 -67 106 -116 136 -30 18 -129 51 -144 48 -3 -1 -38 -5 -78 -10z m183 -90
c54 -28 83 -56 106 -101 24 -48 24 -84 -1 -131 -11 -20 -20 -42 -20 -48 0 -14
-36 -45 -85 -71 -50 -27 -182 -36 -264 -18 -102 22 -171 78 -173 138 -2 62 81
176 156 214 61 31 83 36 166 37 58 1 84 -4 115 -20z"/>
<path d="M20221 11828 c-22 -54 -61 -322 -61 -419 0 -68 27 -149 49 -149 32 0
45 26 31 61 -16 39 -7 237 15 329 24 99 30 167 15 185 -18 22 -39 18 -49 -7z"/>
<path d="M18583 11693 c-64 -19 -123 -72 -123 -111 0 -15 -3 -44 -6 -64 -6
-34 -4 -38 14 -38 24 0 42 27 42 63 0 44 56 77 158 91 56 8 64 -11 31 -73 -23
-43 -63 -80 -174 -159 -57 -41 -70 -71 -51 -116 26 -61 124 -85 285 -67 211
23 323 57 329 99 4 27 -14 28 -84 7 -145 -42 -454 -47 -454 -6 0 10 48 53 90
81 63 42 92 74 121 135 34 71 38 126 9 155 -25 25 -109 26 -187 3z"/>
</g>
</svg>
