<?xml version="1.0" standalone="no"?>
<!DOCTYPE svg PUBLIC "-//W3C//DTD SVG 20010904//EN"
 "http://www.w3.org/TR/2001/REC-SVG-20010904/DTD/svg10.dtd">
<svg version="1.0" xmlns="http://www.w3.org/2000/svg"
 width="3264.000000pt" height="2448.000000pt" viewBox="0 0 3264.000000 2448.000000"
 preserveAspectRatio="xMidYMid meet">
<metadata>
Created by potrace 1.12, written by Peter Selinger 2001-2015
</metadata>
<g transform="translate(0.000000,2448.000000) scale(0.100000,-0.100000)"
fill="#000000" stroke="none">
<path d="M15917 22333 c-10 -10 -8 -51 3 -58 18 -11 50 15 50 40 0 20 -5 25
-23 25 -13 0 -27 -3 -30 -7z"/>
<path d="M17723 22138 c-4 -7 -8 -61 -9 -119 -1 -123 -11 -155 -62 -197 -80
-64 -118 -148 -102 -230 10 -58 24 -71 49 -48 14 12 20 34 23 80 3 50 10 73
33 107 l30 44 3 -35 c1 -19 -9 -68 -23 -109 -26 -79 -32 -121 -15 -121 15 0
57 101 86 209 32 116 45 143 78 161 34 18 33 38 -1 42 l-28 3 3 84 c4 93 -10
141 -39 141 -10 0 -21 -6 -26 -12z"/>
<path d="M19093 22123 c-16 -11 -38 -72 -74 -208 -17 -66 -35 -128 -40 -138
-6 -9 -32 -28 -59 -42 -28 -14 -60 -40 -72 -60 -41 -61 -148 -115 -202 -101
-33 8 -50 48 -41 96 7 37 74 109 136 145 24 15 34 28 34 45 0 21 -5 25 -35 28
-28 2 -47 -6 -96 -42 -73 -52 -103 -97 -110 -163 -9 -74 22 -136 80 -165 44
-21 47 -21 99 -5 29 9 68 28 87 42 42 31 54 21 51 -42 -2 -59 18 -95 43 -74 9
7 16 18 16 23 0 22 114 239 130 248 20 11 77 3 86 -12 3 -5 -2 -33 -11 -62
-20 -63 -17 -91 10 -91 31 0 65 60 65 115 0 58 -13 74 -73 90 -26 7 -51 20
-56 28 -6 10 8 64 41 161 27 80 48 154 46 165 -3 22 -34 32 -55 19z m-153
-472 c0 -18 -22 -71 -30 -71 -18 0 -20 21 -5 50 14 28 35 41 35 21z"/>
<path d="M16350 21968 c-10 -24 -21 -65 -24 -93 -3 -27 -13 -110 -22 -182 -15
-123 -15 -134 0 -158 38 -58 83 -24 195 150 106 166 141 215 151 215 18 0 10
-91 -16 -197 -14 -58 -29 -128 -34 -156 -13 -83 15 -144 49 -104 6 8 18 54 26
103 9 49 23 114 31 144 8 30 17 94 21 142 7 104 -7 138 -58 138 -43 0 -93 -52
-192 -199 -46 -69 -89 -127 -96 -129 -18 -6 -8 97 20 216 22 97 24 123 7 140
-22 22 -39 13 -58 -30z"/>
<path d="M16082 21963 c-6 -16 -16 -98 -22 -183 -6 -85 -18 -203 -26 -262 -12
-80 -13 -111 -4 -127 22 -42 60 -17 60 40 0 21 7 73 15 116 31 161 57 401 45
423 -16 30 -55 26 -68 -7z"/>
<path d="M17165 21971 c-98 -28 -145 -61 -145 -100 0 -33 66 -51 127 -35 18 5
21 11 16 35 -5 25 -1 30 23 40 16 6 51 8 78 5 53 -6 76 4 76 35 0 41 -73 50
-175 20z"/>
<path d="M19176 21974 c-18 -17 -22 -69 -6 -79 19 -12 46 5 63 40 16 33 16 35
-3 45 -26 14 -36 13 -54 -6z"/>
<path d="M17883 21933 c-13 -2 -23 -9 -23 -15 0 -5 7 -8 15 -5 19 8 52 -35 66
-87 10 -38 8 -99 -7 -219 -9 -67 1 -97 30 -97 32 0 66 29 111 94 38 55 54 68
56 44 5 -58 8 -76 17 -99 36 -93 146 -75 222 36 33 48 48 81 86 185 28 75 28
80 11 80 -23 0 -64 -52 -107 -135 -44 -84 -109 -155 -143 -155 -19 0 -20 4
-13 125 6 112 5 126 -10 132 -26 10 -44 -7 -102 -90 -29 -42 -59 -77 -67 -77
-11 0 -14 19 -13 88 1 95 -16 150 -55 183 -22 18 -33 20 -74 12z"/>
<path d="M3287 21903 c-3 -4 -19 -46 -37 -93 -34 -94 -148 -389 -188 -489 -18
-46 -34 -68 -55 -80 -55 -30 -77 -52 -77 -77 0 -24 7 -28 49 -24 21 2 23 -1
17 -22 -22 -77 -43 -197 -39 -221 4 -20 11 -27 29 -27 33 0 50 39 58 138 13
153 44 213 119 233 62 16 148 59 142 69 -7 12 -91 6 -128 -9 -50 -20 -60 -15
-53 24 4 19 20 67 35 107 16 40 43 114 61 163 38 109 61 157 77 163 13 4 14 1
33 -113 17 -101 26 -144 41 -198 12 -43 12 -52 -4 -79 -18 -31 -18 -31 9 -59
27 -28 27 -30 32 -204 4 -150 7 -175 20 -173 8 2 24 15 35 30 20 26 20 32 8
167 -10 120 -10 144 3 175 11 25 21 36 36 36 13 0 20 5 17 13 -2 7 -18 11 -39
9 -33 -2 -37 0 -51 35 -8 21 -18 65 -22 98 -4 33 -15 92 -26 130 -10 39 -21
102 -24 140 -10 118 -17 140 -47 143 -14 2 -28 0 -31 -5z"/>
<path d="M4167 21863 c-8 -15 -20 -62 -26 -103 -11 -71 -16 -97 -39 -215 -5
-27 -20 -86 -32 -130 -49 -175 -66 -269 -56 -307 6 -26 70 -73 85 -64 5 4 29
2 53 -4 33 -9 71 -8 158 4 63 8 122 14 130 13 14 -2 201 20 246 29 28 5 84 57
84 78 0 21 -24 20 -101 -3 -57 -17 -131 -25 -430 -46 -26 -2 -56 -6 -67 -9
-11 -4 -37 0 -56 8 -32 13 -36 19 -36 53 0 21 14 85 31 143 55 184 122 496
117 543 -4 44 -41 50 -61 10z"/>
<path d="M5806 21821 c-12 -13 -21 -47 -27 -97 -11 -102 -19 -124 -104 -294
-108 -218 -163 -294 -240 -333 -94 -47 -195 -1 -227 105 -20 66 -14 338 11
476 11 62 17 120 14 128 -11 29 -48 16 -67 -23 -24 -50 -41 -236 -40 -428 1
-138 3 -154 26 -205 54 -120 171 -168 299 -125 63 21 107 61 165 147 62 92
185 336 212 420 28 86 37 181 22 218 -15 35 -21 37 -44 11z"/>
<path d="M17236 21821 c-4 -5 21 -35 54 -67 33 -32 63 -68 66 -81 15 -58 -51
-131 -195 -218 -52 -32 -109 -64 -128 -71 -28 -12 -33 -19 -33 -49 0 -30 3
-35 23 -35 27 0 203 102 298 172 115 86 134 158 68 254 -41 61 -138 120 -153
95z"/>
<path d="M19380 21792 c-100 -50 -136 -239 -56 -294 20 -14 70 -8 116 13 83
38 120 88 120 164 0 110 -84 165 -180 117z m101 -62 c13 -8 19 -21 19 -47 0
-65 -109 -148 -146 -111 -12 12 -12 20 3 58 35 94 75 126 124 100z"/>
<path d="M19702 21732 c-19 -19 -52 -112 -52 -147 0 -25 19 -55 35 -55 8 0 49
32 92 70 43 39 84 70 92 70 15 0 10 -41 -14 -120 -24 -82 -26 -97 -9 -110 12
-11 17 -11 28 1 23 25 57 132 63 197 11 112 -32 142 -116 81 -43 -30 -71 -33
-71 -6 0 8 -6 20 -14 26 -12 10 -19 8 -34 -7z"/>
<path d="M20777 20714 c-1 -1 -231 -4 -512 -8 -280 -4 -537 -8 -570 -11 -33
-2 -132 -6 -220 -10 -88 -3 -214 -8 -280 -11 -116 -5 -152 -6 -390 -19 -60 -4
-124 -11 -142 -16 -17 -6 -60 -9 -95 -8 -35 1 -79 -1 -98 -5 -19 -4 -42 -7
-50 -6 -28 2 -294 -1 -390 -5 -114 -4 -720 -12 -1515 -20 -319 -3 -645 -8
-725 -10 -80 -3 -237 -7 -350 -10 -453 -13 -570 -40 -570 -132 0 -35 5 -53 95
-333 63 -196 87 -279 110 -380 9 -41 23 -104 32 -140 8 -36 19 -92 23 -125 32
-238 41 -309 54 -460 9 -93 18 -208 20 -255 3 -47 11 -173 17 -280 13 -216 7
-426 -18 -690 -25 -268 -14 -290 118 -251 41 12 112 33 159 46 89 26 210 50
295 59 28 3 109 12 180 21 114 13 417 43 760 75 61 5 171 15 245 20 224 18
453 40 618 60 87 10 234 25 327 34 94 8 226 20 295 27 158 15 153 14 415 28
121 6 229 13 240 15 11 3 144 7 295 11 151 3 289 8 305 10 32 5 672 15 1165
18 308 2 1616 -11 1810 -18 58 -2 170 -6 250 -9 80 -3 246 -8 370 -11 124 -3
299 -8 390 -10 91 -2 300 -7 465 -10 165 -3 363 -7 440 -10 77 -3 230 -7 340
-10 110 -3 247 -7 305 -10 386 -16 648 -16 744 -1 156 24 166 43 141 269 -25
229 -18 990 18 1857 6 168 12 362 12 432 0 126 0 128 -28 155 l-28 28 -347 1
c-577 2 -582 2 -1412 60 -394 28 -588 32 -1150 23 -163 -3 -450 5 -585 17 -56
5 -1572 12 -1578 8z m1058 -68 c237 -4 516 -11 620 -17 105 -6 246 -11 315
-11 70 -1 132 -6 142 -12 12 -7 37 -7 88 2 74 13 308 16 373 6 21 -4 51 -19
68 -35 17 -16 37 -29 45 -29 17 0 34 31 34 64 0 14 4 27 9 31 5 3 49 -1 98
-10 93 -15 285 -31 493 -40 69 -3 139 -7 155 -10 17 -2 71 -7 120 -10 50 -3
140 -9 200 -15 204 -17 358 -21 750 -19 471 2 466 2 485 -17 17 -17 17 2 -4
-484 -8 -184 -18 -508 -21 -720 -7 -397 -9 -500 -20 -825 -5 -145 -3 -225 10
-338 17 -159 15 -195 -16 -223 -17 -15 -45 -17 -297 -16 -152 0 -326 3 -387 6
-60 3 -290 8 -510 11 -363 5 -829 13 -1185 20 -154 3 -396 11 -650 21 -96 4
-202 8 -235 9 -33 1 -325 6 -650 11 -1177 18 -2593 6 -3009 -26 -70 -5 -132
-8 -137 -5 -4 3 -41 -1 -81 -10 -40 -8 -93 -15 -117 -15 -42 0 -43 1 -36 28 4
15 11 83 15 152 4 69 14 222 21 340 15 237 16 427 4 1255 -7 504 -6 574 10
700 10 77 21 147 26 156 12 24 85 45 103 30 14 -12 153 -9 246 4 96 14 897 37
1460 41 349 3 638 6 642 7 12 3 345 0 823 -7z m-3371 -59 c18 -13 18 -20 5
-118 -18 -133 -18 -980 -1 -1319 13 -237 9 -370 -19 -745 -6 -82 -12 -217 -14
-300 -3 -182 5 -174 -163 -174 -62 0 -116 -3 -121 -5 -9 -6 -73 -12 -231 -21
-52 -3 -151 -12 -220 -20 -145 -17 -312 -33 -455 -45 -432 -34 -876 -71 -905
-75 -19 -3 -87 -10 -150 -15 -203 -16 -504 -50 -535 -59 -16 -5 -50 -13 -75
-16 -48 -7 -152 -37 -210 -60 -19 -8 -53 -17 -74 -21 l-39 -7 6 89 c3 49 11
154 18 234 7 94 9 241 5 415 -6 267 -7 300 -26 505 -5 58 -12 139 -15 180 -18
224 -52 467 -100 710 -18 89 -58 236 -92 338 -13 40 -33 101 -43 135 -10 34
-29 100 -44 146 -38 123 -27 134 134 145 204 13 496 25 740 31 140 3 336 7
435 10 99 3 461 7 805 10 698 6 1244 24 1273 42 6 4 27 10 47 14 19 4 38 7 41
8 3 0 13 -5 23 -12z"/>
<path d="M23737 19797 c-17 -12 -47 -125 -83 -312 -16 -79 -28 -115 -42 -115
-4 0 -20 20 -36 45 -33 53 -69 75 -124 75 -64 0 -104 -61 -121 -181 -11 -84 2
-142 41 -174 l31 -26 211 4 c225 4 272 12 313 53 20 20 24 32 19 57 -18 94
-18 105 -2 134 21 42 68 69 153 88 75 17 97 32 91 62 -5 23 -57 21 -148 -6
-132 -40 -198 -125 -185 -236 6 -47 5 -54 -16 -68 -32 -23 -121 -41 -163 -33
-45 9 -45 14 -5 153 114 398 123 440 103 471 -17 26 -15 25 -37 9z m-223 -392
c25 -27 56 -112 56 -155 0 -46 -17 -79 -45 -86 -35 -9 -73 3 -101 31 -20 20
-24 34 -24 80 0 53 18 113 41 142 17 20 48 15 73 -12z"/>
<path d="M23067 19518 c-13 -18 -48 -70 -77 -116 -56 -88 -71 -92 -63 -18 7
56 -15 78 -46 47 -17 -17 -21 -34 -21 -89 0 -38 -7 -92 -16 -121 -18 -63 -12
-91 21 -91 33 0 54 28 154 206 41 72 66 102 78 90 4 -4 6 -71 5 -150 -1 -158
7 -180 49 -128 20 26 21 35 17 198 -4 183 -9 204 -54 204 -14 0 -32 -12 -47
-32z"/>
<path d="M20322 19491 c-24 -12 -56 -30 -72 -41 -15 -11 -35 -20 -44 -20 -38
0 -116 -51 -146 -95 -53 -77 -53 -138 1 -200 65 -74 235 -88 361 -28 76 36
149 98 172 147 37 79 6 186 -66 226 -58 32 -150 37 -206 11z m176 -64 c48 -51
49 -128 3 -181 -56 -64 -164 -106 -274 -106 -62 0 -71 3 -98 29 -40 41 -40 88
2 136 47 53 81 67 154 63 69 -3 95 10 95 47 0 30 7 35 55 35 30 0 47 -6 63
-23z"/>
<path d="M22430 19446 c-188 -105 -259 -155 -317 -226 -81 -99 -95 -130 -55
-130 22 0 89 57 124 107 34 47 190 173 215 173 19 0 16 -23 -11 -88 -32 -77
-39 -113 -27 -145 20 -52 84 -24 143 61 l32 47 11 -44 c22 -93 63 -48 45 50
-6 33 -11 100 -10 147 2 116 2 112 -17 112 -10 0 -70 -29 -133 -64z m61 -134
c-41 -107 -94 -143 -57 -39 20 59 68 127 74 108 2 -7 -6 -38 -17 -69z"/>
<path d="M20982 19472 c-124 -40 -223 -179 -261 -368 -29 -149 -37 -290 -18
-336 20 -48 51 -57 84 -26 33 31 47 60 67 141 19 75 14 107 -14 107 -23 0 -33
-18 -50 -87 -21 -89 -34 -65 -26 50 13 209 98 392 202 439 58 25 132 30 170
12 39 -19 78 -86 76 -131 -1 -19 -11 -47 -23 -64 -36 -50 -72 -63 -186 -64
l-102 0 18 -30 c15 -27 24 -31 82 -38 163 -19 279 59 279 187 0 124 -99 227
-215 225 -16 0 -54 -8 -83 -17z"/>
<path d="M21792 19458 c-79 -24 -135 -77 -180 -169 -25 -52 -32 -78 -32 -125
1 -62 19 -156 39 -192 18 -34 75 -72 107 -72 40 0 118 41 122 63 4 17 -2 18
-62 12 -75 -8 -86 -3 -117 56 -22 43 -24 77 -8 113 9 18 22 26 56 31 150 22
284 163 247 260 -8 20 -56 45 -86 44 -13 0 -52 -10 -86 -21z m96 -60 c20 -20
14 -37 -34 -88 -94 -100 -213 -123 -175 -32 38 89 166 163 209 120z"/>
<path d="M17170 19493 c-119 -19 -230 -142 -285 -314 -29 -94 -55 -271 -55
-384 0 -116 24 -162 70 -133 20 13 40 49 40 74 0 8 -10 28 -21 44 -20 27 -21
36 -15 127 19 266 100 438 239 508 64 31 81 31 114 -1 23 -23 25 -31 20 -74
-12 -102 -91 -194 -193 -226 -63 -20 -70 -27 -48 -48 57 -57 231 45 290 169
30 64 32 150 4 204 -16 32 -27 40 -64 50 -46 11 -52 11 -96 4z"/>
<path d="M16444 19461 c-39 -18 -84 -66 -84 -90 0 -6 -24 -35 -54 -65 -62 -62
-81 -110 -74 -192 12 -144 157 -186 324 -93 62 35 147 123 168 174 18 43 21
111 6 150 -17 46 -71 103 -111 119 -52 21 -125 20 -175 -3z m144 -55 c64 -33
99 -125 68 -183 -41 -80 -124 -146 -212 -169 -75 -19 -81 -18 -115 15 -42 43
-39 108 8 163 12 14 19 15 40 5 21 -9 27 -8 39 7 11 16 11 23 -2 49 -15 28
-15 32 3 56 47 63 115 86 171 57z"/>
<path d="M3873 20224 c-30 -13 -54 -74 -59 -151 -5 -99 -11 -123 -39 -187 -13
-28 -29 -77 -36 -108 -12 -56 -21 -69 -34 -48 -11 17 -24 11 -39 -19 -12 -23
-17 -84 -21 -273 -3 -133 -7 -254 -10 -268 -2 -14 -7 -77 -10 -140 -3 -63 -8
-160 -11 -215 -5 -105 -45 -372 -69 -465 -8 -30 -21 -110 -30 -177 -19 -144
-13 -169 57 -234 75 -69 128 -124 128 -132 0 -4 16 -17 35 -28 19 -11 37 -29
40 -39 3 -11 27 -29 52 -42 25 -13 53 -34 62 -48 8 -14 24 -31 35 -39 10 -8
35 -29 55 -47 63 -59 145 -124 154 -124 5 0 28 -16 51 -35 24 -19 46 -35 49
-35 12 0 116 -75 174 -126 34 -30 77 -61 97 -69 19 -8 37 -19 41 -25 3 -5 16
-10 28 -10 12 0 35 -12 51 -27 l30 -25 -20 -36 c-16 -30 -35 -42 -134 -85
-191 -82 -177 -76 -295 -121 -38 -15 -88 -36 -110 -46 -199 -93 -252 -117
-333 -150 -50 -21 -115 -52 -142 -69 -28 -17 -53 -31 -56 -31 -3 0 -58 -29
-123 -66 -90 -49 -121 -72 -129 -92 -11 -31 -29 -181 -37 -321 -3 -52 -12
-144 -20 -205 -7 -61 -16 -151 -19 -201 -15 -222 -59 -512 -105 -675 -10 -36
-24 -90 -30 -120 -6 -30 -19 -84 -28 -120 -9 -36 -16 -96 -17 -135 -1 -65 1
-70 21 -73 22 -3 331 151 478 238 44 27 152 88 240 138 88 49 196 112 240 140
102 65 283 173 315 189 14 7 79 46 145 88 66 41 161 96 210 121 256 133 364
187 434 218 109 48 252 115 416 193 38 18 188 97 285 150 25 14 86 49 135 78
121 71 365 201 393 209 49 16 52 32 56 337 3 204 8 302 18 349 9 36 21 103 27
150 27 189 44 288 62 345 10 33 29 103 43 155 52 194 65 240 119 401 48 144
89 282 118 399 22 90 4 187 -41 222 -17 13 -56 44 -88 69 -31 25 -76 57 -99
70 -22 13 -72 42 -110 64 -37 22 -72 42 -78 44 -5 2 -23 14 -40 27 -29 21 -88
54 -199 112 -28 14 -53 29 -56 33 -3 3 -22 12 -42 18 -21 7 -40 16 -43 21 -3
4 -24 18 -47 30 -24 12 -56 34 -73 50 -16 15 -44 35 -62 44 -18 9 -52 29 -76
46 -25 16 -48 30 -51 30 -4 0 -56 29 -115 65 -60 36 -115 65 -122 65 -7 0 -21
8 -31 17 -19 17 -89 55 -198 108 -67 32 -109 54 -225 116 -49 27 -97 51 -105
55 -8 3 -22 10 -30 15 -8 5 -22 12 -30 15 -45 19 -149 72 -179 92 -19 12 -40
22 -48 22 -8 0 -21 7 -29 15 -9 8 -27 18 -42 21 -15 4 -47 19 -72 33 -25 15
-67 38 -95 51 -27 13 -61 31 -75 40 -14 10 -41 23 -61 29 -20 6 -45 21 -54 31
-10 11 -25 20 -33 20 -9 0 -44 14 -79 31 -38 18 -70 28 -82 24 -11 -3 -22 -1
-26 5 -4 6 -15 8 -24 5 -11 -3 -25 3 -36 15 -19 21 -22 22 -42 14z m77 -70 c0
-12 7 -14 28 -9 20 4 33 1 42 -10 7 -9 21 -13 31 -10 13 4 22 -2 33 -23 12
-23 29 -34 71 -47 30 -10 55 -22 55 -26 0 -5 8 -9 18 -9 10 0 25 -9 35 -20 9
-11 24 -20 32 -20 8 0 23 -4 33 -9 9 -6 36 -18 60 -27 23 -10 42 -24 42 -31 0
-7 7 -13 15 -13 8 0 38 -11 67 -25 28 -14 59 -25 68 -25 9 0 26 -14 38 -30 18
-24 28 -29 47 -24 17 4 27 0 37 -15 7 -12 22 -21 33 -21 11 0 49 -19 84 -43
84 -56 122 -76 144 -77 22 0 104 -44 133 -71 11 -10 29 -19 40 -19 10 -1 37
-12 59 -25 75 -46 196 -105 215 -105 10 0 30 -13 43 -30 14 -16 31 -30 38 -30
7 0 26 -10 43 -23 17 -12 56 -33 86 -47 30 -13 62 -30 71 -37 8 -7 19 -13 23
-13 4 0 19 -8 34 -18 15 -10 54 -36 87 -57 33 -22 77 -54 98 -72 22 -17 45
-29 52 -26 8 2 24 -5 37 -17 31 -29 106 -70 128 -70 10 0 24 -7 31 -16 8 -9
32 -25 54 -34 22 -9 46 -25 54 -34 7 -9 17 -16 22 -16 4 0 36 -19 70 -42 34
-24 68 -46 75 -50 8 -5 22 -13 32 -18 9 -6 33 -18 52 -26 43 -20 148 -102 189
-149 21 -24 31 -46 31 -67 0 -39 -46 -208 -112 -408 -92 -284 -193 -643 -210
-755 -5 -33 -19 -114 -30 -180 -49 -295 -59 -407 -57 -611 1 -100 -1 -187 -5
-193 -4 -6 -60 -38 -124 -70 -64 -32 -157 -82 -207 -111 -49 -29 -110 -64
-134 -78 -25 -13 -67 -38 -95 -54 -47 -28 -446 -225 -531 -263 -213 -94 -577
-278 -731 -370 -84 -51 -253 -150 -294 -173 -25 -14 -72 -42 -105 -63 -131
-82 -346 -209 -445 -264 -58 -32 -136 -76 -175 -98 -38 -22 -126 -69 -195
-105 -69 -35 -134 -71 -145 -78 -46 -33 -57 -5 -31 82 18 60 71 265 92 354 26
110 65 387 79 560 7 91 18 194 24 230 5 36 13 117 16 180 9 162 24 270 42 301
9 14 41 38 72 53 31 15 67 34 81 42 36 20 259 130 300 147 67 29 246 109 316
143 39 18 97 42 130 53 83 27 164 62 270 115 51 25 96 46 101 46 4 0 25 11 46
25 48 33 57 68 26 101 -12 13 -26 24 -31 24 -9 0 -75 49 -127 95 -19 17 -44
39 -57 50 -13 11 -53 43 -90 70 -36 28 -83 64 -103 81 -20 17 -60 43 -88 58
-29 14 -53 30 -53 34 0 4 -16 16 -35 26 -19 10 -44 28 -56 39 -12 11 -76 66
-143 121 -118 99 -164 142 -216 203 -14 16 -34 35 -45 43 -11 8 -40 39 -63 67
-60 73 -60 95 3 408 44 220 61 415 83 950 6 128 11 166 25 188 9 14 17 37 17
49 0 33 56 212 92 292 25 55 31 82 30 130 -2 74 12 121 41 141 27 19 37 19 37
-1z"/>
<path d="M1834 19115 c-53 -58 -117 -189 -151 -310 -3 -11 -12 -27 -19 -35 -7
-8 -22 -53 -33 -99 -12 -46 -35 -112 -52 -146 -33 -67 -36 -118 -7 -123 23 -4
60 63 92 168 29 92 39 110 74 129 25 14 123 34 162 33 14 0 30 3 35 8 6 4 29
11 52 15 23 3 44 13 47 21 5 14 18 13 76 -2 17 -4 48 -61 81 -149 13 -33 28
-64 34 -70 7 -5 17 -20 24 -32 14 -27 34 -21 50 13 9 21 8 30 -9 54 -11 15
-20 31 -20 34 0 4 -5 12 -10 19 -19 23 -60 88 -60 96 0 4 -20 37 -45 74 -25
37 -45 70 -45 74 0 4 -6 14 -13 22 -8 9 -24 42 -37 74 -12 31 -40 76 -61 100
-22 23 -39 45 -39 49 0 6 -56 28 -73 28 -6 0 -30 -20 -53 -45z m103 -60 c12
-8 32 -32 44 -52 42 -67 77 -106 90 -98 17 11 9 -23 -13 -58 -24 -37 -61 -52
-104 -41 -13 4 -30 2 -37 -4 -12 -10 -73 -21 -137 -25 -48 -3 -49 19 -6 121
67 155 108 195 163 157z"/>
<path d="M9314 17912 c-26 -17 -40 -67 -33 -122 18 -139 10 -152 -100 -161
-103 -9 -118 -15 -137 -51 -32 -63 3 -73 113 -34 37 14 82 26 98 28 l30 3 0
-75 c0 -41 -2 -126 -5 -189 -5 -123 3 -146 36 -95 14 21 19 57 23 179 5 131 9
156 25 174 23 25 70 27 141 6 94 -29 191 -17 183 23 -4 19 -91 41 -163 42 -22
0 -65 1 -95 1 -30 0 -60 5 -66 10 -8 7 -12 48 -12 125 1 86 -2 119 -13 129 -8
8 -19 11 -25 7z"/>
<path d="M7865 17701 c-69 -32 -255 -240 -289 -323 -32 -75 -11 -176 46 -235
50 -51 126 -76 234 -75 97 0 145 12 245 62 132 65 221 152 234 229 17 102 -85
278 -172 296 -16 4 -35 10 -43 16 -8 5 -26 14 -40 20 -14 6 -33 15 -42 20 -31
16 -130 10 -173 -10z m123 -71 c32 -14 55 -18 88 -13 45 6 45 6 107 -58 63
-65 87 -113 87 -175 0 -100 -208 -231 -383 -242 -139 -8 -212 27 -242 119 -12
36 -14 57 -6 84 14 53 90 153 176 233 85 80 101 85 173 52z"/>
<path d="M8430 17560 c-60 -65 -84 -223 -43 -292 10 -18 38 -47 61 -64 34 -27
53 -33 115 -39 92 -9 158 8 242 63 94 61 178 163 159 193 -11 19 -31 8 -84
-47 -98 -99 -212 -149 -313 -138 -52 6 -65 12 -103 49 -63 60 -61 80 19 228
14 26 23 55 20 63 -9 23 -43 16 -73 -16z"/>
<path d="M1807 15955 c-137 -71 -223 -188 -301 -412 -24 -68 -52 -235 -42
-251 2 -4 7 -32 11 -62 4 -30 9 -66 12 -80 12 -56 14 -153 4 -163 -19 -19 -13
-25 42 -45 77 -29 266 -29 362 0 39 12 79 29 91 40 11 10 24 18 28 18 16 0
119 97 157 148 62 82 91 194 54 208 -8 3 -17 14 -20 24 -5 14 -17 18 -61 19
-31 0 -61 4 -68 10 -6 5 -29 11 -51 14 -128 17 -141 39 -75 127 64 85 96 157
104 230 5 51 3 71 -9 85 -8 11 -15 32 -15 46 0 19 -10 31 -39 47 -53 30 -122
29 -184 -3z m158 -61 c14 -9 22 -20 19 -26 -3 -5 0 -15 6 -24 10 -11 10 -27 1
-71 -12 -64 -53 -141 -118 -226 -40 -52 -63 -101 -63 -135 0 -19 38 -30 157
-43 68 -8 127 -21 160 -35 50 -22 51 -24 44 -52 -23 -80 -156 -212 -260 -259
-64 -29 -278 -51 -323 -34 -26 10 -44 57 -28 76 10 13 10 67 0 80 -4 6 -11 26
-15 45 -26 119 -21 218 17 333 21 65 19 62 74 171 78 157 242 257 329 200z"/>
<path d="M19169 14975 c-91 -29 -125 -97 -73 -145 21 -21 27 -22 34 -10 5 8
10 25 10 37 0 37 88 87 120 68 22 -13 -43 -96 -97 -124 -13 -6 -23 -20 -23
-31 0 -11 -18 -57 -40 -102 -63 -132 -70 -246 -17 -283 30 -21 110 -19 155 4
75 39 122 107 122 177 0 47 -45 122 -76 130 -14 4 -27 5 -29 3 -2 -2 4 -22 12
-44 25 -66 26 -106 4 -142 -25 -40 -58 -62 -104 -70 -49 -8 -64 20 -48 91 17
75 71 170 99 174 18 3 22 10 22 37 0 28 10 44 50 84 28 28 63 53 78 57 49 10
53 14 50 36 -7 49 -158 82 -249 53z"/>
<path d="M19743 14945 c-92 -111 -55 -304 67 -355 45 -19 51 -45 29 -151 -29
-144 -24 -182 19 -136 22 24 52 115 52 159 0 19 11 40 35 64 19 19 35 37 35
39 0 2 -9 13 -21 24 -21 19 -21 20 -4 77 25 86 60 149 100 180 28 21 35 33 33
53 -5 40 -47 40 -93 0 -43 -38 -75 -100 -99 -191 -10 -37 -24 -72 -32 -79 -22
-18 -53 9 -80 71 -33 77 -31 126 7 183 35 53 36 90 3 95 -15 2 -31 -8 -51 -33z"/>
<path d="M20484 14886 c-69 -16 -190 -74 -217 -104 -22 -24 -19 -65 4 -70 9
-2 37 11 62 28 103 69 229 104 332 91 70 -9 65 -30 -26 -111 -40 -36 -117
-108 -170 -160 -101 -99 -117 -130 -104 -190 16 -71 138 -102 328 -82 146 16
185 27 199 58 20 44 0 50 -94 28 -113 -26 -293 -26 -331 -1 -55 36 -31 75 148
233 55 49 107 96 115 104 66 67 78 120 34 161 -23 22 -35 24 -122 26 -54 1
-124 -4 -158 -11z"/>
<path d="M21566 14801 c-33 -37 -37 -79 -25 -268 10 -141 10 -199 1 -260 -17
-109 -16 -123 8 -123 53 0 70 96 70 397 0 265 -8 305 -54 254z"/>
<path d="M18600 14680 c-22 -22 -26 -56 -7 -63 22 -7 352 5 370 15 23 12 21
34 -5 52 -18 13 -54 16 -180 16 -145 0 -160 -2 -178 -20z"/>
<path d="M5150 13945 c-79 -18 -99 -27 -162 -79 -114 -93 -164 -225 -187 -496
-8 -88 -7 -145 4 -240 16 -144 25 -179 47 -194 33 -20 78 51 78 123 0 35 -4
43 -30 56 -23 12 -30 23 -31 48 0 17 -3 59 -5 92 -4 71 12 269 28 334 19 80
68 170 117 213 86 75 158 96 283 79 45 -6 87 -16 92 -21 14 -14 42 -12 55 4
15 18 -25 45 -77 53 -20 3 -44 12 -53 19 -22 20 -94 23 -159 9z"/>
<path d="M4225 13930 c-11 -4 -45 -11 -75 -15 -83 -10 -166 -51 -185 -91 -33
-71 -8 -85 54 -29 48 43 161 74 266 71 72 -2 205 -34 205 -49 0 -5 11 -18 25
-29 14 -11 25 -26 25 -33 0 -8 7 -18 16 -23 32 -18 39 -123 11 -177 -19 -37
-80 -104 -122 -134 -23 -16 -72 -39 -110 -52 -62 -20 -74 -21 -136 -9 -83 14
-105 36 -114 114 -9 70 7 123 60 201 52 76 66 115 40 115 -41 0 -142 -149
-164 -243 -12 -51 -7 -106 15 -147 19 -37 73 -90 102 -101 77 -29 181 -19 279
28 69 32 169 130 202 197 27 55 41 178 22 190 -6 4 -11 16 -11 26 0 30 -54 78
-107 96 -57 19 -62 23 -44 33 21 14 2 33 -28 28 -15 -3 -43 3 -66 15 -44 21
-128 31 -160 18z"/>
<path d="M19314 13896 c-16 -12 -19 -28 -20 -93 -1 -46 -13 -121 -28 -183 -37
-148 -49 -256 -44 -389 4 -125 25 -193 61 -199 45 -9 60 44 30 101 -14 25 -17
57 -17 152 1 118 9 171 64 420 21 94 27 175 16 194 -10 15 -38 14 -62 -3z"/>
<path d="M19765 13870 c-12 -13 -20 -46 -26 -102 -10 -94 -13 -484 -3 -499 3
-5 6 -73 6 -150 0 -115 2 -141 15 -146 8 -3 22 2 31 11 15 15 17 54 18 364 1
191 5 382 10 424 13 109 -6 147 -51 98z"/>
<path d="M20440 13820 c-6 -12 -18 -71 -26 -133 -8 -62 -19 -143 -24 -182 -13
-98 -12 -210 4 -275 9 -38 11 -86 6 -155 -8 -115 3 -307 19 -347 12 -32 23
-35 45 -13 13 13 14 36 9 143 -3 73 -1 166 6 219 9 75 9 102 -4 155 -21 92
-18 216 10 414 14 96 23 179 20 184 -11 18 -54 11 -65 -10z"/>
<path d="M5585 13739 c11 -49 -30 -100 -100 -127 -31 -12 -66 -22 -77 -22 -11
0 -37 -4 -57 -10 -46 -12 -220 -39 -288 -44 -59 -5 -113 -30 -113 -52 0 -26
29 -28 179 -10 80 9 169 20 196 23 73 8 180 38 228 65 46 25 87 79 87 113 0
12 -9 32 -20 45 -11 13 -20 29 -20 37 0 7 -5 13 -11 13 -7 0 -8 -11 -4 -31z"/>
<path d="M21301 13690 c-70 -32 -138 -88 -195 -159 -74 -93 -104 -149 -126
-238 -54 -208 -3 -329 160 -382 63 -20 85 -22 153 -16 199 17 371 114 473 265
37 55 64 121 64 158 0 31 -30 97 -57 127 -48 54 -204 155 -238 155 -19 0 -78
55 -87 81 -9 26 -14 29 -56 29 -26 0 -67 -9 -91 -20z m100 -74 c11 -13 66 -50
124 -82 123 -67 176 -109 210 -169 19 -32 24 -51 19 -72 -17 -74 -115 -196
-203 -252 -186 -119 -452 -103 -506 31 -57 143 73 431 244 540 55 34 87 36
112 4z"/>
<path d="M17780 12945 c-92 -28 -304 -66 -545 -100 -131 -18 -302 -49 -347
-64 -18 -5 -62 -15 -98 -21 -36 -6 -87 -18 -115 -26 -56 -16 -409 -104 -555
-139 -52 -12 -138 -34 -190 -48 -52 -14 -140 -37 -195 -52 -55 -14 -131 -36
-170 -49 -38 -13 -119 -38 -180 -56 -128 -37 -622 -201 -710 -235 -33 -13
-121 -46 -195 -73 -74 -28 -169 -65 -210 -82 -41 -17 -93 -37 -116 -45 -22 -8
-101 -40 -175 -71 -74 -30 -192 -78 -264 -105 -120 -46 -175 -81 -175 -110 0
-34 125 9 505 174 343 148 1036 401 1355 493 47 14 105 31 130 39 91 27 349
97 520 140 96 24 274 69 395 100 352 90 489 117 894 180 288 45 486 82 511 95
25 13 43 47 36 66 -7 18 -14 17 -106 -11z"/>
<path d="M25515 12820 c-77 -8 -172 -29 -226 -51 -19 -7 -40 -37 -74 -102 -27
-51 -63 -109 -82 -130 -19 -22 -33 -48 -33 -63 0 -14 -10 -57 -21 -96 -38
-125 -13 -196 95 -269 98 -66 249 -99 351 -77 36 8 61 21 88 48 66 67 37 105
-38 51 -57 -41 -119 -49 -203 -27 -116 29 -221 102 -237 163 -8 32 12 127 36
175 16 32 27 39 96 62 100 33 267 73 361 86 41 6 82 15 93 20 22 13 25 38 4
46 -23 9 -218 -23 -357 -58 -70 -18 -130 -29 -134 -25 -4 4 4 24 18 44 18 28
47 49 109 80 101 52 192 68 325 60 69 -5 96 -3 110 7 29 22 2 44 -64 51 -113
12 -138 12 -217 5z"/>
<path d="M21702 12708 c-18 -18 -15 -56 7 -63 75 -24 382 -402 648 -800 41
-60 83 -121 94 -135 19 -24 48 -63 184 -247 33 -45 77 -109 98 -143 41 -65 69
-78 88 -37 13 28 1 49 -111 198 -41 55 -108 144 -148 197 -40 53 -105 144
-144 202 -114 168 -274 388 -346 477 -37 46 -85 106 -107 134 -69 89 -199 218
-225 224 -14 3 -31 0 -38 -7z"/>
<path d="M29047 12689 c-27 -16 -49 -67 -42 -99 14 -64 71 -36 85 41 12 65 -1
82 -43 58z"/>
<path d="M28813 12643 c-11 -11 -43 -79 -73 -152 -55 -133 -73 -158 -94 -130
-6 8 -32 29 -58 47 -64 44 -122 45 -164 1 -27 -28 -29 -37 -33 -114 -7 -171
42 -241 167 -239 55 1 67 5 90 27 36 36 21 49 -41 35 -62 -13 -99 2 -128 50
-37 64 -27 189 18 206 37 15 137 -65 147 -117 21 -111 28 -120 64 -87 17 16
22 32 22 70 0 48 55 202 111 312 21 41 22 99 2 105 -6 2 -20 -4 -30 -14z"/>
<path d="M26845 12611 c-156 -38 -255 -199 -316 -513 -17 -87 -20 -125 -13
-145 12 -37 48 -42 80 -12 25 23 33 72 14 84 -32 20 15 260 72 368 61 113 177
187 248 157 41 -17 51 -39 39 -84 -16 -58 -64 -103 -155 -147 -68 -33 -87 -38
-104 -29 -28 15 -62 -4 -58 -33 7 -48 109 -42 218 13 128 65 204 186 171 273
-19 49 -124 85 -196 68z"/>
<path d="M28095 12574 c-34 -17 -37 -21 -149 -169 -85 -114 -149 -179 -169
-172 -8 3 -12 35 -12 95 0 110 -13 133 -51 89 -21 -25 -24 -38 -24 -112 0 -46
4 -95 10 -110 14 -38 56 -50 101 -30 63 29 116 86 233 253 67 95 86 110 110
83 23 -25 31 -59 46 -191 15 -139 21 -164 45 -168 29 -6 36 18 30 103 -23 295
-68 382 -170 329z"/>
<path d="M26036 12534 c-31 -30 -13 -107 39 -169 14 -16 25 -37 25 -45 0 -9
-34 -49 -76 -90 -41 -41 -82 -88 -91 -104 -13 -25 -13 -30 0 -44 26 -26 70 3
147 94 39 46 79 84 88 84 9 0 45 -23 80 -50 73 -57 125 -78 147 -60 33 27 9
49 -129 120 -69 36 -61 54 66 151 74 57 100 91 81 110 -14 14 -81 -25 -165
-96 -43 -36 -85 -65 -93 -65 -18 0 -39 45 -55 116 -14 63 -35 78 -64 48z"/>
<path d="M27279 12535 c-30 -17 -112 -127 -135 -181 -19 -46 -11 -82 20 -90
33 -8 103 26 145 70 19 20 40 36 46 36 7 0 17 -36 25 -82 15 -95 31 -134 60
-143 41 -13 67 39 36 74 -22 26 -37 81 -46 170 -14 127 -34 131 -130 29 -38
-40 -72 -70 -76 -66 -8 8 31 64 83 119 53 56 33 98 -28 64z"/>
<path d="M29990 12481 c-30 -16 -61 -39 -69 -51 -14 -20 -13 -24 3 -35 14 -11
23 -11 51 1 46 19 55 18 55 -7 0 -39 -59 -198 -115 -311 -57 -113 -126 -211
-190 -267 -33 -28 -45 -51 -27 -51 24 0 117 68 164 119 75 84 208 332 208 390
0 9 18 38 40 65 22 26 40 53 40 58 0 38 -64 118 -94 118 -6 0 -36 -13 -66 -29z"/>
<path d="M29582 12470 c-24 -11 -75 -50 -114 -87 l-70 -68 4 40 c5 43 -8 85
-27 85 -24 0 -43 -37 -58 -114 -17 -88 -15 -104 18 -112 34 -8 60 9 155 101
47 45 93 85 102 88 25 9 36 -11 44 -81 4 -35 13 -70 21 -78 37 -37 52 -1 46
111 -5 75 -10 93 -29 112 -28 28 -37 28 -92 3z"/>
<path d="M29061 12364 c-17 -14 -31 -31 -31 -37 0 -5 -20 -43 -45 -83 -43 -69
-57 -114 -34 -114 26 0 67 36 106 94 57 84 78 133 62 152 -16 19 -23 18 -58
-12z"/>
<path d="M26151 11854 c-40 -28 -71 -110 -71 -187 0 -52 4 -69 16 -74 26 -10
47 22 55 83 6 41 18 72 45 110 30 45 34 57 24 69 -16 19 -40 19 -69 -1z"/>
<path d="M25314 11590 c-97 -18 -184 -65 -184 -100 0 -38 25 -43 82 -16 103
48 131 56 190 56 91 0 89 -22 -13 -185 -95 -152 -169 -323 -169 -393 0 -116
125 -155 289 -92 76 29 242 128 288 172 25 23 31 58 11 58 -7 0 -58 -27 -113
-60 -178 -107 -317 -151 -375 -120 -20 11 -22 17 -17 64 6 64 81 237 148 342
52 83 89 169 89 208 0 12 -11 33 -24 45 -29 27 -117 36 -202 21z"/>
<path d="M12835 11479 c-48 -12 -87 -46 -83 -74 4 -26 31 -30 72 -11 51 24
127 37 192 34 55 -3 59 -5 62 -29 2 -19 -10 -40 -50 -85 -93 -105 -196 -248
-211 -295 -23 -69 -10 -106 47 -136 77 -41 316 14 316 73 0 28 -34 27 -113 -1
-83 -29 -155 -35 -169 -12 -29 45 20 134 170 311 112 132 122 174 49 213 -38
20 -218 28 -282 12z"/>
<path d="M26735 11465 c-5 -2 -50 -15 -100 -30 -122 -36 -193 -73 -211 -107
-21 -40 -18 -54 19 -81 32 -25 94 -38 327 -67 95 -12 185 -50 195 -81 16 -49
-107 -196 -200 -238 -62 -28 -87 -57 -63 -73 20 -12 39 -9 85 11 105 48 228
174 254 260 32 108 -97 178 -376 202 -114 9 -168 24 -162 43 12 38 165 86 272
86 42 0 76 5 83 12 18 18 14 46 -7 58 -18 9 -93 13 -116 5z"/>
<path d="M30326 11431 c-9 -10 -21 -45 -27 -77 -6 -32 -19 -99 -30 -149 -23
-106 -23 -119 -5 -134 19 -16 29 -1 59 89 57 168 72 272 41 284 -21 8 -19 9
-38 -13z"/>
<path d="M12536 11418 c-23 -37 -31 -221 -12 -314 8 -44 18 -102 21 -130 7
-57 43 -129 65 -129 8 0 19 12 24 27 9 27 3 68 -35 211 -12 45 -13 144 -3 268
l7 89 -26 0 c-17 0 -32 -9 -41 -22z"/>
<path d="M16916 11408 c-8 -13 -18 -43 -22 -68 -3 -25 -12 -70 -19 -100 -18
-74 -45 -285 -45 -353 0 -67 27 -110 54 -88 12 10 16 31 16 75 0 84 24 250 56
385 30 128 29 165 -3 169 -14 2 -27 -5 -37 -20z"/>
<path d="M15595 11411 c-43 -11 -73 -29 -85 -51 -26 -48 0 -56 89 -25 90 32
225 36 219 8 -2 -10 -50 -49 -107 -88 -57 -38 -109 -77 -114 -86 -5 -9 -7 -27
-4 -41 7 -28 68 -59 151 -78 84 -19 146 -58 146 -92 0 -26 -101 -126 -173
-172 -78 -50 -99 -96 -44 -96 34 0 95 36 180 108 86 73 117 115 117 159 0 29
-34 73 -57 73 -6 0 -13 7 -17 15 -3 8 -13 15 -23 15 -9 0 -57 16 -106 37 -64
26 -87 41 -85 52 2 9 50 48 108 86 146 98 166 144 74 172 -43 13 -221 15 -269
4z"/>
<path d="M13363 11389 c-29 -9 -83 -60 -83 -79 0 -13 60 -80 72 -80 6 0 7 11
4 24 -11 43 30 78 100 86 59 7 84 0 84 -25 0 -25 -73 -105 -104 -113 -22 -6
-33 -16 -36 -33 -3 -13 -26 -54 -52 -90 -107 -149 -123 -263 -43 -315 39 -25
149 -14 215 22 59 32 126 101 136 138 15 62 -28 147 -82 160 -15 4 -28 5 -30
3 -3 -2 7 -29 21 -60 17 -36 24 -64 19 -80 -15 -62 -135 -137 -219 -137 -29 0
-34 4 -40 32 -10 44 71 204 130 256 23 20 53 55 67 77 14 23 51 60 82 84 43
32 56 48 54 64 -3 19 -10 22 -53 25 -27 1 -59 6 -70 11 -37 15 -120 41 -130
40 -5 0 -24 -5 -42 -10z"/>
<path d="M28225 11393 c-22 -5 -73 -26 -123 -51 -19 -9 -51 -36 -72 -59 -89
-96 -56 -233 76 -313 57 -34 145 -52 158 -32 10 16 -4 41 -27 47 -126 36 -206
138 -172 218 27 64 97 107 174 107 41 0 53 4 70 26 11 14 18 31 15 39 -5 11
-54 27 -73 24 -3 -1 -15 -3 -26 -6z"/>
<path d="M14810 11380 c-69 -19 -120 -63 -120 -104 0 -28 49 -95 81 -112 49
-25 117 -44 133 -38 25 10 20 -22 -30 -187 -45 -150 -47 -180 -10 -166 26 10
46 52 92 189 25 73 52 143 60 155 8 12 23 47 34 76 11 30 36 75 56 100 40 51
43 90 8 95 -32 5 -76 -39 -114 -110 -47 -89 -66 -108 -111 -108 -42 0 -102 43
-114 81 -7 22 19 59 42 59 17 0 53 36 53 54 0 17 -28 25 -60 16z"/>
<path d="M14386 11354 c-151 -55 -306 -304 -272 -438 9 -36 80 -101 127 -116
83 -28 269 31 351 110 73 70 61 114 -40 153 -116 46 -306 -7 -342 -94 -7 -16
-19 -29 -28 -29 -23 0 -9 86 24 151 37 73 124 162 184 188 50 22 76 51 66 77
-7 17 -19 17 -70 -2z m161 -357 c15 -14 15 -18 1 -39 -20 -30 -133 -88 -184
-94 -50 -6 -104 24 -104 59 0 29 36 64 87 83 50 19 178 13 200 -9z"/>
<path d="M16052 11340 c-25 -27 -25 -29 -13 -49 7 -12 24 -12 97 -3 89 11 192
7 207 -8 15 -13 -19 -73 -84 -150 -96 -113 -116 -142 -134 -198 -20 -61 -15
-91 23 -132 45 -50 158 -60 176 -15 12 31 6 35 -48 35 -130 0 -113 82 59 285
37 43 71 89 76 102 37 97 -28 141 -222 150 -112 6 -116 5 -137 -17z"/>
<path d="M18390 11313 c-41 -36 -41 -36 -91 -25 -100 23 -149 11 -149 -37 0
-30 36 -71 62 -71 9 0 18 12 21 30 5 23 14 31 39 38 18 5 37 5 42 1 16 -14
-12 -60 -43 -72 -22 -8 -31 -19 -36 -44 -3 -18 -17 -46 -31 -62 -31 -37 -61
-105 -70 -158 -10 -62 31 -147 81 -168 69 -28 159 -11 211 42 28 28 34 41 34
77 0 54 -37 126 -96 186 -24 25 -44 54 -44 64 0 10 24 41 54 70 76 75 112 131
96 151 -19 23 -36 18 -80 -22z m-44 -323 c19 -36 28 -72 28 -104 1 -45 -2 -51
-31 -68 -40 -24 -89 -26 -110 -5 -26 26 -28 104 -3 167 42 106 68 109 116 10z"/>
<path d="M28760 11335 c-17 -20 -6 -43 27 -56 57 -22 80 -63 49 -88 -11 -9
-27 -3 -77 29 -61 39 -110 50 -154 34 -13 -6 -45 -53 -45 -68 0 -16 59 -56 96
-65 94 -24 183 -9 239 41 50 43 45 84 -18 137 -61 52 -95 63 -117 36z"/>
<path d="M17254 11321 c-55 -34 -104 -120 -129 -227 -30 -127 -35 -142 -60
-158 -29 -19 -59 -72 -51 -92 8 -21 31 -17 64 11 17 14 34 25 39 25 5 0 23
-20 41 -45 36 -51 60 -60 136 -51 128 16 214 128 170 221 -23 50 -64 69 -133
62 -31 -3 -78 -15 -105 -26 l-49 -21 6 28 c13 66 51 145 93 190 70 79 56 131
-22 83z m143 -337 c20 -27 16 -40 -22 -83 -61 -67 -168 -82 -194 -27 -19 40 1
72 65 109 39 22 58 27 93 23 28 -2 50 -11 58 -22z"/>
<path d="M19485 11313 c-43 -11 -85 -55 -121 -128 -40 -81 -57 -101 -75 -89
-8 4 -9 25 -5 63 12 109 13 106 -11 109 -35 5 -63 -34 -63 -90 0 -55 21 -103
57 -132 28 -21 28 -15 3 -215 -12 -99 -10 -121 14 -121 27 0 45 43 60 144 8
56 21 105 29 113 9 9 38 16 73 18 71 3 114 21 114 48 0 18 -5 18 -84 12 -58
-5 -86 -4 -90 4 -10 15 33 107 69 149 15 18 42 39 60 47 35 14 60 48 50 65 -6
10 -44 11 -80 3z"/>
<path d="M30502 11295 c-23 -17 -72 -104 -72 -129 0 -29 -22 -63 -51 -80 -44
-26 -34 -56 19 -56 9 0 25 -11 37 -26 41 -51 155 -47 155 6 0 16 -7 18 -42 17
-58 -3 -64 24 -11 46 91 36 128 127 81 197 -28 41 -78 52 -116 25z m76 -88 c4
-30 -44 -87 -72 -87 -20 0 -20 18 -1 63 25 59 67 73 73 24z"/>
<path d="M29365 11288 c-11 -6 -48 -38 -82 -71 -34 -34 -65 -58 -69 -55 -3 4
-1 22 6 42 8 26 8 41 0 56 -25 46 -67 6 -94 -90 -20 -72 -12 -90 41 -90 46 0
67 12 141 83 35 33 66 57 69 53 4 -3 6 -26 4 -51 -2 -52 12 -85 37 -85 10 0
46 9 80 21 l63 21 53 -22 c56 -22 95 -20 118 7 41 50 -122 102 -222 69 -27 -9
-51 -16 -53 -16 -3 0 -2 20 0 44 9 75 -35 115 -92 84z"/>
<path d="M32239 11285 c-14 -7 -38 -33 -54 -57 -40 -59 -76 -98 -92 -98 -8 0
-27 -7 -43 -15 -33 -17 -40 -54 -15 -75 8 -7 15 -21 15 -31 0 -28 18 -23 61
16 49 44 73 44 196 4 52 -17 118 -32 146 -33 49 -1 52 0 52 24 0 21 -9 27 -75
48 -41 14 -93 28 -115 33 -135 27 -128 24 -114 50 6 12 29 41 50 64 38 41 52
85 27 85 -7 -1 -25 -7 -39 -15z"/>
<path d="M11800 11233 c-45 -58 -15 -68 195 -64 117 2 203 -2 274 -13 118 -18
191 -20 191 -7 0 11 -43 42 -81 58 -45 19 -236 41 -401 46 l-158 5 -20 -25z"/>
<path d="M20510 11199 c-129 -13 -220 -55 -220 -101 0 -32 27 -31 107 2 61 25
97 34 164 38 120 7 199 -4 199 -27 0 -10 -44 -60 -97 -112 -109 -105 -163
-178 -163 -218 0 -31 48 -82 95 -99 44 -16 188 -23 280 -13 63 7 83 14 97 31
20 25 21 30 10 47 -6 10 -25 10 -88 -3 -126 -24 -295 -8 -310 30 -9 25 15 57
143 188 101 104 123 132 123 156 0 16 -6 34 -13 40 -33 27 -223 51 -327 41z"/>
<path d="M31308 11193 c-24 -27 -35 -54 -43 -101 -11 -69 -78 -85 -138 -32
-20 17 -51 32 -75 36 -35 5 -44 12 -59 43 -10 20 -30 42 -45 49 -24 11 -34 10
-79 -9 -47 -21 -52 -21 -61 -6 -20 36 -47 19 -83 -53 -39 -77 -43 -98 -19
-107 22 -8 58 11 130 68 34 27 67 49 73 49 6 0 18 -18 27 -39 15 -39 50 -61
95 -61 10 0 34 -14 54 -31 36 -32 36 -32 120 -26 78 6 86 4 99 -14 32 -46 116
-68 170 -45 54 22 47 46 -11 46 -43 0 -113 28 -113 45 0 4 16 27 35 52 58 76
42 153 -32 153 -16 0 -37 -8 -45 -17z"/>
<path d="M31876 11185 c-17 -9 -50 -35 -76 -59 -57 -53 -135 -100 -156 -92
-13 5 -11 12 11 49 28 50 32 85 9 94 -35 13 -103 -88 -104 -154 0 -37 29 -63
70 -63 43 0 126 46 189 104 88 81 105 67 104 -87 -1 -78 2 -89 20 -102 30 -21
71 -19 92 5 21 23 13 37 -25 42 -25 3 -25 5 -31 121 -9 153 -29 180 -103 142z"/>
<path d="M30070 11162 c-14 -1 -44 -10 -68 -18 -41 -15 -44 -15 -57 2 -12 17
-15 17 -29 4 -9 -9 -24 -45 -34 -81 -10 -36 -51 -126 -91 -199 -76 -138 -89
-181 -58 -188 38 -8 69 29 124 146 31 65 57 119 59 121 2 3 14 -5 27 -16 33
-30 55 -34 99 -21 62 18 128 107 128 171 0 29 -32 73 -57 79 -10 2 -29 2 -43
0z m20 -72 c16 -9 17 -15 9 -40 -13 -35 -72 -90 -97 -90 -39 0 -57 58 -29 92
34 42 81 57 117 38z"/>
<path d="M21817 11112 c-14 -15 -21 -71 -36 -286 -11 -148 -17 -274 -14 -282
8 -20 36 -17 50 5 7 11 17 68 23 128 41 407 41 428 16 445 -16 11 -21 10 -39
-10z"/>
<path d="M16882 10540 c-16 -15 -22 -33 -23 -68 -1 -26 -2 -63 -4 -82 -6 -103
48 -467 74 -493 7 -7 15 -6 27 4 17 14 17 19 -7 184 -6 44 -13 164 -14 266 -3
219 -6 232 -53 189z"/>
<path d="M13163 10511 c-44 -41 -47 -185 -8 -375 15 -71 30 -136 35 -145 5 -9
14 -36 19 -61 14 -64 27 -110 40 -144 11 -27 13 -28 28 -13 13 13 14 21 5 44
-6 15 -14 57 -17 93 -4 36 -18 121 -32 190 -25 121 -30 210 -21 375 3 57 -13
69 -49 36z"/>
<path d="M18170 10472 c-21 -25 -22 -34 -16 -127 3 -55 12 -148 21 -207 8 -59
17 -172 19 -253 2 -81 7 -149 10 -152 11 -11 37 7 46 32 13 34 12 178 -1 335
-6 69 -12 177 -14 240 -2 63 -3 120 -4 127 -1 7 -10 17 -20 23 -16 8 -24 5
-41 -18z"/>
<path d="M15897 10458 c-60 -94 -82 -444 -42 -670 15 -86 27 -110 46 -91 14
14 14 18 5 238 -8 204 3 342 35 415 27 62 23 124 -8 128 -14 2 -27 -5 -36 -20z"/>
<path d="M14703 10458 c-6 -7 -16 -43 -23 -80 -10 -54 -10 -120 0 -320 14
-284 20 -340 37 -345 30 -10 35 50 29 318 -6 232 -5 274 10 327 20 73 14 112
-20 112 -13 0 -28 -6 -33 -12z"/>
<path d="M19256 10428 c-19 -27 -22 -222 -6 -309 11 -56 40 -306 40 -346 0
-16 6 -23 20 -23 40 0 43 34 23 231 -10 101 -18 243 -18 314 -1 72 -2 136 -3
143 -3 20 -40 14 -56 -10z"/>
<path d="M20755 10298 c-11 -6 -22 -12 -24 -14 -7 -7 0 -539 9 -608 10 -79 25
-102 46 -70 12 17 15 86 18 353 3 298 1 333 -13 341 -10 5 -24 4 -36 -2z"/>
<path d="M21783 10115 c-98 -49 -166 -156 -165 -257 1 -71 17 -103 82 -161
135 -122 384 -154 487 -64 44 39 61 73 69 140 8 67 -15 149 -56 199 -16 19
-59 49 -97 68 -37 18 -82 46 -100 63 -27 25 -41 30 -100 34 -59 4 -75 1 -120
-22z m182 -100 c19 -23 23 -24 52 -13 30 11 36 10 75 -19 76 -55 116 -164 89
-246 -34 -101 -197 -123 -347 -46 -113 57 -166 137 -145 217 11 39 70 125 93
136 7 3 47 4 88 1 65 -4 78 -8 95 -30z"/>
<path d="M31280 1185 c0 -8 2 -15 4 -15 2 0 11 -3 20 -6 10 -4 16 -1 16 9 0 8
-7 18 -16 21 -22 9 -24 8 -24 -9z"/>
<path d="M31285 1111 c-6 -11 9 -23 19 -14 9 9 7 23 -3 23 -6 0 -12 -4 -16 -9z"/>
<path d="M32540 1050 c0 -5 7 -10 15 -10 8 0 15 5 15 10 0 6 -7 10 -15 10 -8
0 -15 -4 -15 -10z"/>
<path d="M31910 1035 c-10 -13 -9 -15 9 -15 12 0 21 6 21 15 0 8 -4 15 -9 15
-5 0 -14 -7 -21 -15z"/>
<path d="M31232 908 c-14 -18 -7 -44 14 -52 15 -6 16 4 5 43 -5 20 -8 22 -19
9z"/>
<path d="M31222 756 c0 -36 -5 -73 -10 -83 -10 -20 1 -63 17 -63 5 0 9 20 9
45 0 24 3 49 7 54 8 13 -5 111 -15 111 -4 0 -8 -29 -8 -64z"/>
<path d="M31669 628 c-12 -23 4 -48 31 -48 27 0 64 34 57 52 -9 24 -75 21 -88
-4z"/>
<path d="M31210 555 c-9 -11 -10 -19 -3 -26 7 -7 14 -5 23 6 9 11 10 19 3 26
-7 7 -14 5 -23 -6z"/>
<path d="M31208 492 c-5 -18 12 -52 26 -52 12 0 2 63 -10 67 -6 2 -14 -5 -16
-15z"/>
</g>
</svg>
