<?xml version="1.0" standalone="no"?>
<!DOCTYPE svg PUBLIC "-//W3C//DTD SVG 20010904//EN"
 "http://www.w3.org/TR/2001/REC-SVG-20010904/DTD/svg10.dtd">
<svg version="1.0" xmlns="http://www.w3.org/2000/svg"
 width="2448.000000pt" height="3264.000000pt" viewBox="0 0 2448.000000 3264.000000"
 preserveAspectRatio="xMidYMid meet">
<metadata>
Created by potrace 1.12, written by Peter Selinger 2001-2015
</metadata>
<g transform="translate(0.000000,3264.000000) scale(0.100000,-0.100000)"
fill="#000000" stroke="none">
<path d="M15880 28625 c-231 -48 -391 -85 -671 -159 -146 -38 -390 -122 -485
-167 -220 -105 -303 -266 -290 -566 6 -137 15 -228 36 -373 6 -41 13 -87 15
-102 15 -115 61 -279 96 -350 41 -82 82 -103 223 -117 l108 -11 65 31 c59 28
149 92 333 235 148 115 261 181 402 235 45 17 90 40 98 51 31 38 296 22 385
-24 47 -25 144 -129 202 -217 89 -135 98 -167 98 -336 0 -153 -12 -207 -67
-316 -15 -31 -28 -63 -28 -70 0 -23 49 43 61 83 12 39 44 76 56 65 3 -4 -6
-28 -20 -54 -15 -27 -33 -61 -42 -78 -31 -64 -182 -255 -201 -255 -7 0 -15 -8
-19 -19 -8 -25 -242 -243 -297 -276 -9 -5 -63 -41 -118 -80 -56 -38 -116 -77
-134 -86 -70 -37 -208 -99 -219 -99 -7 0 -21 -6 -32 -14 -11 -7 -49 -23 -85
-34 -36 -12 -78 -25 -95 -31 -39 -13 -203 -41 -235 -41 -14 1 -34 1 -45 1 -11
0 -54 0 -95 -1 -41 0 -136 7 -211 16 -158 20 -192 16 -187 -23 6 -48 44 -63
263 -105 94 -18 336 -14 433 6 423 89 936 423 1217 791 172 225 243 390 252
582 10 201 -41 356 -162 493 -90 101 -115 126 -160 156 -124 82 -238 111 -401
101 -220 -14 -455 -125 -735 -347 -181 -144 -284 -200 -366 -200 -65 0 -85 9
-110 52 -75 129 -146 526 -147 823 -1 135 2 156 22 208 31 76 61 110 136 152
82 46 336 137 499 180 73 19 159 41 192 50 33 8 89 22 125 30 435 94 502 106
599 106 41 0 83 4 93 10 45 24 58 108 19 128 -48 25 -118 19 -371 -34z"/>
<path d="M11260 28050 c-155 -5 -202 -10 -290 -33 -158 -41 -225 -88 -276
-192 -31 -66 -20 -222 52 -690 25 -168 72 -351 97 -382 15 -20 32 -16 143 37
58 28 107 50 109 50 3 0 32 18 64 40 32 22 63 40 69 40 6 0 26 12 44 28 36 29
42 33 138 89 149 86 435 203 496 203 13 0 25 4 28 9 3 4 25 11 48 15 24 4 54
9 68 11 71 14 105 16 215 15 150 -1 265 -13 352 -39 38 -10 84 -23 103 -26 75
-16 345 -145 416 -199 82 -63 153 -163 175 -247 11 -44 14 -67 18 -164 2 -48
2 -49 15 -26 8 14 12 31 9 38 -3 7 0 20 7 28 13 15 9 182 -5 240 l-8 30 24
-30 c23 -28 24 -37 24 -160 0 -119 -2 -136 -28 -202 -16 -39 -35 -77 -43 -84
-8 -6 -23 -32 -34 -57 -12 -26 -28 -54 -38 -63 -9 -9 -46 -49 -82 -89 -104
-116 -112 -124 -170 -165 -30 -21 -59 -44 -65 -50 -15 -18 -182 -100 -241
-119 -28 -9 -60 -23 -70 -31 -10 -8 -30 -15 -44 -15 -15 0 -30 -4 -35 -9 -22
-19 -106 -30 -195 -25 -52 3 -98 8 -102 10 -16 10 -29 -7 -17 -22 9 -11 8 -14
-5 -14 -9 0 -16 7 -16 15 0 21 -51 44 -111 50 -62 6 -86 23 -184 128 l-76 82
-30 -33 c-16 -18 -29 -40 -29 -50 0 -44 167 -194 245 -220 22 -7 49 -17 60
-22 44 -18 313 -49 385 -44 108 8 235 54 403 147 107 60 240 169 350 289 121
131 188 244 233 395 21 73 25 101 20 163 -5 78 -37 195 -64 239 -27 44 -115
132 -156 154 -21 12 -57 33 -81 47 -145 84 -154 89 -350 154 -172 58 -196 64
-290 76 -114 15 -367 13 -440 -4 -33 -8 -101 -24 -152 -35 -212 -48 -428 -149
-773 -360 -118 -73 -203 -113 -222 -106 -25 10 -35 47 -63 220 -78 493 -90
645 -58 712 9 19 23 37 32 41 9 3 27 14 41 24 51 37 194 67 329 69 572 8 792
4 946 -18 55 -8 110 -14 123 -13 13 0 37 -7 54 -16 34 -18 88 -12 122 12 11 8
43 14 71 14 30 0 59 6 71 15 19 15 19 15 -4 34 -13 11 -44 23 -70 26 -26 4
-136 21 -246 39 -193 31 -207 32 -525 32 -179 1 -409 -2 -511 -6z"/>
<path d="M12255 27870 c3 -5 13 -10 21 -10 8 0 14 5 14 10 0 6 -9 10 -21 10
-11 0 -17 -4 -14 -10z"/>
<path d="M12312 27854 c9 -9 21 -13 27 -9 16 10 3 25 -22 25 -20 0 -20 -1 -5
-16z"/>
<path d="M12379 27836 c16 -19 55 -22 49 -3 -3 6 -17 14 -33 15 -25 3 -27 2
-16 -12z"/>
<path d="M11880 27190 c-8 -5 -12 -11 -9 -14 3 -3 14 1 25 9 21 16 8 20 -16 5z"/>
<path d="M11465 27000 c-3 -5 -2 -10 4 -10 5 0 13 5 16 10 3 6 2 10 -4 10 -5
0 -13 -4 -16 -10z"/>
<path d="M11415 26979 c-12 -19 5 -23 22 -6 16 16 16 17 1 17 -9 0 -20 -5 -23
-11z"/>
<path d="M11359 26947 c-35 -16 -60 -38 -54 -47 8 -13 45 1 45 16 0 8 4 14 8
14 5 0 17 7 28 15 23 17 9 18 -27 2z"/>
<path d="M16355 26310 c-3 -5 -2 -10 4 -10 5 0 13 5 16 10 3 6 2 10 -4 10 -5
0 -13 -4 -16 -10z"/>
<path d="M15575 23841 c-168 -9 -457 -53 -585 -88 -171 -47 -415 -147 -462
-190 -34 -31 -13 -133 27 -133 8 0 42 20 77 44 111 77 232 124 438 170 243 53
679 94 875 81 129 -9 314 -44 353 -67 42 -26 52 -46 52 -105 0 -92 -69 -268
-153 -393 -62 -92 -67 -99 -67 -104 0 -6 -90 -139 -98 -146 -4 -3 -19 -23 -34
-45 -62 -92 -91 -131 -394 -525 -124 -161 -177 -243 -200 -306 -16 -45 -16
-58 -5 -108 23 -101 92 -156 254 -199 74 -19 107 -22 337 -22 149 0 290 5 340
13 86 12 329 41 520 62 182 20 341 48 366 65 35 22 33 63 -3 71 -16 3 -36 8
-45 10 -20 6 -285 -18 -518 -46 -91 -11 -217 -26 -280 -34 -63 -7 -212 -14
-330 -15 l-215 -2 -110 36 c-60 20 -125 48 -144 62 -33 26 -33 26 -28 92 6 83
27 119 207 350 427 548 615 827 702 1038 53 128 49 251 -10 316 -9 11 -34 28
-54 38 -52 27 -204 70 -263 74 -116 10 -420 13 -550 6z"/>
<path d="M12278 23522 c-46 -33 -64 -68 -77 -151 -25 -157 -24 -339 4 -706 2
-27 6 -104 10 -170 9 -174 34 -480 45 -555 5 -36 14 -103 20 -150 6 -47 20
-123 30 -170 10 -47 24 -110 30 -141 11 -56 64 -141 95 -153 26 -10 48 24 41
63 -10 62 -30 126 -50 155 -19 29 -40 144 -37 205 1 18 -4 40 -10 47 -6 8 -8
21 -4 31 5 10 9 33 11 51 3 29 0 32 -17 27 -16 -6 -19 -1 -19 29 0 25 4 36 15
36 11 0 15 12 15 48 0 70 -29 606 -41 757 -29 366 -22 581 22 680 40 90 -4
125 -83 67z m88 -1496 c7 -31 -4 -55 -17 -35 -12 19 -11 59 1 59 5 0 12 -11
16 -24z"/>
<path d="M9100 22493 c-41 -7 -111 -21 -155 -29 -44 -9 -129 -24 -190 -35
-224 -39 -588 -130 -624 -157 -47 -35 -66 -69 -55 -99 14 -40 42 -40 180 1
116 34 349 94 469 121 33 7 74 18 90 25 17 6 83 24 148 40 65 16 133 34 150
39 18 6 44 13 60 16 38 8 92 58 84 78 -8 21 -51 21 -157 0z"/>
<path d="M19785 20779 c-93 -4 -222 -10 -285 -13 -151 -7 -594 -24 -845 -32
-110 -3 -202 -7 -205 -9 -3 -2 -104 -6 -225 -10 -121 -4 -222 -9 -225 -10 -3
-2 -77 -6 -165 -9 -88 -4 -223 -11 -300 -16 -77 -5 -212 -14 -300 -20 -88 -6
-203 -15 -255 -20 -52 -5 -151 -12 -220 -15 -69 -3 -253 -14 -410 -25 -157
-10 -341 -21 -410 -25 -155 -7 -463 -24 -550 -30 -36 -3 -177 -9 -315 -15
-548 -22 -1241 -68 -1900 -125 -93 -8 -230 -19 -302 -25 -278 -21 -399 -31
-433 -35 -19 -3 -69 -7 -110 -10 -41 -3 -176 -15 -300 -26 -200 -18 -342 -32
-910 -94 -80 -9 -165 -20 -190 -25 -25 -5 -65 -12 -90 -14 -268 -31 -473 -58
-760 -102 -91 -13 -181 -24 -200 -24 -19 0 -75 -7 -125 -16 -97 -17 -143 -23
-575 -78 -157 -20 -292 -38 -300 -41 -8 -2 -46 -7 -85 -10 -38 -4 -72 -8 -75
-10 -3 -2 -48 -8 -100 -14 -52 -6 -115 -16 -140 -21 -25 -5 -103 -17 -175 -25
-225 -28 -389 -59 -550 -105 -38 -11 -95 -25 -125 -31 -113 -22 -176 -86 -150
-153 13 -36 36 -43 69 -19 102 76 272 121 681 182 113 17 327 49 475 71 149
23 322 48 385 55 152 20 211 28 520 74 139 21 286 41 640 86 277 35 486 62
660 86 147 19 347 42 520 59 52 5 140 14 195 20 119 13 290 30 360 36 28 2
127 11 220 19 207 18 462 38 820 65 149 11 322 24 385 30 63 6 178 15 255 20
77 5 196 14 265 20 255 21 824 56 1040 65 63 2 187 7 275 10 251 10 600 30
1310 75 88 6 230 15 315 20 85 6 223 14 305 20 364 24 487 31 750 45 154 8
399 19 545 25 146 5 312 12 370 15 58 2 197 7 310 10 232 6 345 11 685 25 132
6 278 8 325 4 78 -5 87 -4 113 16 31 25 36 69 11 94 -17 18 -177 19 -499 5z"/>
<path d="M16140 19770 c-47 -10 -168 -39 -270 -63 -102 -25 -235 -52 -297 -61
-116 -17 -269 -49 -315 -67 -43 -17 -62 -43 -48 -68 14 -27 52 -27 128 -2 31
10 104 24 162 31 107 13 571 110 644 136 57 19 126 19 126 -1 0 -52 -90 -159
-389 -460 -239 -241 -311 -328 -311 -378 0 -10 24 -43 53 -74 45 -49 75 -67
232 -143 99 -48 218 -101 265 -118 47 -17 110 -40 140 -51 30 -12 63 -21 74
-21 10 0 57 -15 105 -34 47 -18 105 -39 129 -46 93 -29 118 -113 65 -218 -33
-66 -160 -193 -260 -263 -82 -56 -353 -199 -379 -199 -9 0 -30 -7 -47 -14
-105 -49 -564 -172 -711 -191 -48 -7 -106 -47 -106 -74 0 -26 34 -43 74 -38
133 19 195 30 226 44 19 8 62 21 95 28 143 33 199 49 350 100 339 112 522 204
695 349 105 88 118 103 173 196 96 161 67 251 -113 352 -36 20 -163 75 -282
122 -420 165 -607 257 -638 317 -17 31 25 81 312 369 256 257 345 363 384 455
8 20 12 45 9 56 -16 51 -124 62 -275 29z"/>
<path d="M12518 19255 c-122 -45 -194 -137 -231 -297 -48 -204 -48 -533 -1
-784 5 -29 3 -32 -46 -53 -274 -118 -463 -150 -527 -89 -31 29 -30 68 7 230
55 240 89 415 110 565 11 81 25 174 32 206 9 49 9 61 -4 74 -12 12 -20 13 -37
4 -45 -24 -59 -68 -81 -248 -12 -98 -89 -485 -121 -608 -11 -44 -23 -118 -26
-165 -7 -100 5 -132 64 -177 36 -27 40 -28 157 -27 67 0 141 6 166 13 60 17
192 78 205 95 20 26 97 68 107 58 5 -5 16 -56 25 -113 8 -57 26 -171 40 -254
38 -230 62 -471 63 -635 0 -71 5 -105 19 -136 24 -53 38 -61 63 -36 49 49 39
344 -26 787 -8 55 -18 120 -21 145 -4 25 -8 61 -11 80 -8 55 -34 192 -44 225
-14 49 -20 145 -26 435 -6 251 -4 284 14 372 35 166 75 232 177 287 61 34 72
61 23 60 -18 0 -50 -7 -70 -14z"/>
<path d="M12695 18437 c-49 -26 -190 -134 -224 -170 -19 -21 -23 -33 -18 -63
7 -45 10 -48 36 -39 60 19 286 239 279 272 -5 25 -27 25 -73 0z"/>
<path d="M11286 11510 c-108 -24 -263 -76 -405 -137 -188 -80 -310 -164 -371
-255 -45 -68 -48 -85 -20 -145 15 -33 24 -43 43 -43 19 0 30 12 56 63 44 84
89 128 201 195 236 141 610 240 751 198 79 -22 102 -51 107 -132 5 -81 -9
-135 -66 -249 -51 -103 -90 -160 -212 -311 -91 -113 -362 -414 -372 -414 -5 0
-13 -10 -19 -23 -13 -28 12 -91 42 -108 22 -11 129 3 159 21 7 4 27 2 46 -6
30 -13 49 -11 176 11 226 41 276 52 573 130 565 149 827 203 938 191 79 -8 97
3 97 59 0 33 -6 51 -21 66 -20 20 -28 21 -103 15 -128 -11 -530 -93 -691 -141
-27 -8 -108 -28 -180 -45 -71 -17 -152 -37 -180 -45 -139 -38 -325 -71 -514
-92 -51 -6 -114 -45 -121 -76 -3 -12 -12 -22 -20 -22 -21 0 -25 49 -6 65 23
18 20 30 -8 30 -50 0 -41 23 35 89 106 94 260 256 297 314 9 14 43 60 76 102
32 42 69 96 82 120 14 24 31 49 39 55 8 7 15 18 15 25 0 7 12 39 26 71 79 177
31 372 -103 419 -75 26 -239 28 -347 5z"/>
<path d="M9961 11189 c-39 -23 -38 -33 3 -143 27 -70 56 -240 75 -441 15 -156
18 -266 37 -1164 5 -237 11 -336 28 -445 l22 -140 43 -23 c24 -13 52 -23 61
-23 37 0 52 49 28 93 -34 61 -57 233 -64 482 -3 110 -9 227 -13 260 -4 33 -7
227 -5 430 5 533 -17 827 -77 1020 -35 112 -69 136 -138 94z"/>
<path d="M3865 10805 c-99 -18 -185 -55 -295 -129 -263 -177 -491 -447 -619
-733 -31 -70 -63 -148 -71 -173 -7 -25 -19 -64 -26 -86 -54 -173 -75 -460 -40
-574 23 -78 142 -288 185 -328 20 -18 46 -35 58 -39 30 -7 69 19 77 52 6 22
-3 35 -59 91 -36 36 -65 71 -65 78 0 7 -9 24 -19 38 -47 59 -63 126 -68 278
-4 129 -2 158 21 262 74 339 216 598 453 829 242 236 467 349 603 304 180 -60
242 -278 156 -548 -8 -26 -24 -60 -36 -74 -11 -14 -20 -30 -20 -35 0 -13 -113
-186 -162 -247 -104 -129 -136 -168 -186 -223 -30 -33 -52 -62 -49 -64 6 -7
37 7 37 16 0 4 26 25 58 46 62 41 126 103 205 199 27 33 61 71 75 85 13 14 36
43 50 65 14 22 36 51 48 65 28 33 99 201 113 271 48 231 -45 481 -204 548 -43
18 -130 42 -145 40 -3 -1 -36 -7 -75 -14z"/>
<path d="M8814 10295 c-61 -27 -445 -91 -723 -120 -118 -13 -201 -15 -355 -10
-183 6 -204 5 -235 -12 -19 -10 -39 -25 -44 -34 -14 -23 10 -79 37 -88 12 -4
136 -6 276 -5 221 1 280 5 440 28 102 15 228 38 280 51 52 13 115 26 140 30
159 24 298 104 276 161 -7 17 -51 17 -92 -1z"/>
<path d="M6555 10110 c-104 -4 -229 -10 -277 -14 -48 -3 -189 -8 -315 -11
-278 -6 -596 -31 -641 -51 -43 -19 -59 -53 -42 -94 18 -42 48 -47 149 -22 47
12 149 26 226 32 77 6 196 15 265 20 69 6 220 15 335 20 332 16 505 38 580 72
39 17 32 44 -12 52 -21 3 -47 5 -58 4 -11 -1 -105 -4 -210 -8z"/>
<path d="M4033 9744 c-33 -46 -118 -153 -160 -199 -13 -15 -22 -32 -20 -38 8
-25 180 161 231 251 14 24 -33 12 -51 -14z"/>
<path d="M5234 9545 c-51 -30 -58 -47 -38 -86 23 -45 49 -53 132 -40 142 22
752 9 977 -21 147 -19 295 -17 329 6 20 13 26 24 24 44 -3 25 -7 27 -88 39
-47 7 -128 17 -180 22 -52 6 -135 15 -185 20 -197 21 -355 30 -690 36 l-240 5
-41 -25z"/>
<path d="M1575 9495 c-10 -4 -357 -33 -385 -33 -36 1 -364 -26 -450 -36 -25
-3 -92 -10 -150 -16 -179 -16 -371 -39 -393 -46 -25 -7 -64 -41 -78 -66 -13
-24 4 -54 41 -73 38 -20 143 -20 174 0 12 8 72 22 132 30 60 8 141 20 179 25
66 9 124 15 408 40 183 16 589 72 624 86 40 16 62 56 43 79 -9 11 -30 15 -74
14 -33 0 -65 -2 -71 -4z"/>
<path d="M3675 9409 c-70 -7 -209 -50 -278 -85 -77 -40 -207 -169 -207 -205 0
-20 64 -79 86 -79 29 0 70 34 89 73 19 41 80 79 185 115 154 53 177 57 335 57
129 -1 165 -5 259 -28 60 -15 124 -37 143 -48 46 -29 76 -89 68 -137 -10 -56
-53 -161 -88 -213 -79 -116 -338 -365 -478 -460 -58 -39 -120 -80 -174 -116
-73 -48 -89 -62 -81 -70 18 -19 296 157 466 295 123 101 400 374 400 395 0 8
7 20 15 27 8 7 15 23 15 36 0 12 5 26 11 30 7 4 9 24 6 57 -5 37 -2 57 11 80
13 23 14 31 4 34 -6 3 -15 22 -18 44 -8 46 -9 47 -110 100 -112 59 -214 90
-309 95 -185 9 -284 10 -350 3z"/>
<path d="M4355 8779 c-11 -17 1 -21 15 -4 8 9 8 15 2 15 -6 0 -14 -5 -17 -11z"/>
<path d="M4257 8673 c-88 -92 -135 -133 -302 -265 -187 -147 -391 -270 -545
-327 -177 -66 -208 -72 -230 -46 -7 8 -20 15 -29 15 -29 0 -145 -40 -153 -53
-17 -27 -8 -55 21 -67 35 -14 130 3 271 47 92 29 355 159 402 199 16 13 33 24
37 24 5 0 121 79 156 107 6 4 32 24 58 43 185 133 410 360 359 360 -5 0 -25
-17 -45 -37z"/>
<path d="M9519 6136 c-2 -2 -42 -9 -89 -15 -115 -15 -243 -48 -355 -90 -222
-85 -307 -123 -420 -188 -160 -92 -210 -171 -151 -240 22 -25 27 -26 62 -18
31 8 45 20 71 60 18 28 48 63 65 78 44 37 174 103 333 167 220 89 320 117 452
126 78 6 93 4 131 -15 49 -25 51 -39 27 -144 -25 -110 -98 -261 -215 -447 -40
-63 -84 -135 -98 -160 -14 -25 -36 -63 -50 -85 -64 -101 -186 -340 -218 -428
-46 -124 -56 -180 -44 -248 21 -121 55 -150 190 -163 106 -9 330 33 525 99 39
13 111 35 160 50 50 14 124 39 165 55 41 15 86 30 100 33 14 3 63 18 110 35
47 16 121 40 165 52 44 12 112 31 150 43 39 11 100 23 137 27 37 3 73 11 80
18 13 13 41 112 33 120 -2 3 -29 5 -59 6 -47 0 -60 -4 -84 -27 -24 -23 -37
-27 -85 -27 -35 0 -90 -11 -149 -30 -51 -17 -122 -37 -158 -45 -36 -8 -74 -19
-85 -25 -30 -14 -197 -71 -225 -77 -14 -3 -29 -9 -35 -13 -5 -4 -28 -13 -50
-19 -22 -7 -103 -32 -180 -56 -77 -24 -176 -51 -220 -60 -44 -9 -103 -21 -132
-27 -30 -6 -84 -8 -128 -5 -66 6 -81 11 -115 39 -33 28 -40 39 -40 71 0 33 18
54 21 25 1 -7 3 -20 4 -28 1 -8 3 -21 4 -27 0 -7 5 -13 10 -13 6 0 10 23 9 51
0 28 6 58 14 67 28 36 38 63 32 88 -5 20 -2 26 15 31 18 4 19 8 9 20 -10 12
-9 18 5 28 9 7 17 22 17 34 0 11 4 21 10 21 5 0 24 24 40 54 17 30 37 57 45
60 9 3 15 18 15 35 0 16 6 31 15 35 8 3 15 12 15 19 0 8 6 20 14 26 8 7 24 31
36 54 30 59 51 95 85 147 34 53 60 96 74 128 6 12 15 22 20 22 5 0 12 12 15
26 4 15 18 41 30 58 27 35 76 139 76 160 0 7 6 19 14 25 18 15 40 95 33 123
-4 12 -1 28 5 35 7 9 7 13 -1 13 -7 0 -11 28 -11 81 0 65 -4 86 -20 109 -35
50 -80 70 -152 70 -36 0 -67 -2 -69 -4z m147 -483 c-10 -10 -19 5 -10 18 6 11
8 11 12 0 2 -7 1 -15 -2 -18z m-176 -292 c0 -5 -9 -19 -20 -32 -21 -26 -27
-11 -10 22 11 19 30 26 30 10z"/>
<path d="M3761 6059 c-118 -13 -193 -34 -286 -82 -105 -54 -235 -183 -327
-323 -54 -82 -72 -102 -96 -107 -38 -8 -56 -49 -47 -110 5 -34 2 -53 -13 -83
-25 -49 -86 -236 -107 -329 -60 -262 -60 -654 -1 -821 50 -142 135 -206 230
-174 73 24 134 163 143 325 5 99 -6 135 -31 103 -7 -10 -17 -18 -21 -18 -4 0
-14 8 -21 18 -8 11 -16 14 -22 7 -15 -17 -33 -129 -31 -199 2 -60 4 -66 20
-61 13 4 19 1 19 -8 0 -24 -36 -48 -77 -52 -35 -4 -43 0 -64 28 -39 52 -66
147 -74 262 -3 33 -7 88 -11 122 -3 33 -1 87 5 120 6 32 17 112 26 178 41 315
104 469 322 796 80 120 220 222 358 260 146 40 337 13 415 -57 98 -88 111
-204 47 -414 -12 -41 -95 -180 -122 -205 -6 -5 -27 -30 -47 -55 -20 -25 -53
-61 -74 -81 -81 -76 -141 -129 -147 -129 -11 0 -148 -113 -143 -118 6 -5 57
25 165 101 84 59 124 74 54 21 -21 -16 -56 -45 -78 -66 -21 -21 -42 -38 -45
-38 -12 0 -80 -68 -80 -80 0 -15 67 -5 90 14 8 7 26 17 40 23 14 6 58 36 99
66 229 171 390 400 435 621 13 59 13 84 1 182 -16 123 -38 179 -97 241 -34 35
-171 98 -245 113 -26 5 -55 11 -63 13 -8 2 -53 0 -99 -4z m199 -944 c0 -7 -54
-55 -58 -51 -7 8 31 56 44 56 8 0 14 -2 14 -5z"/>
<path d="M8165 5963 c-70 -18 -93 -42 -110 -117 -8 -39 22 -523 40 -621 8 -44
17 -127 20 -185 2 -58 7 -127 10 -155 2 -27 9 -102 14 -165 11 -133 39 -378
46 -400 3 -8 7 -35 10 -60 7 -56 35 -131 46 -124 5 3 6 24 3 47 -4 23 -7 69
-9 102 -2 73 -15 156 -25 170 -7 10 -18 149 -25 320 -1 44 -6 93 -10 108 -4
16 -3 33 2 38 6 6 7 27 2 52 -11 58 -11 207 0 207 18 0 21 -19 26 -167 3 -81
10 -195 15 -253 6 -58 12 -132 15 -165 3 -33 8 -68 11 -79 3 -10 8 -35 10 -55
2 -20 6 -56 8 -81 3 -25 9 -80 13 -122 9 -89 31 -128 28 -51 -6 154 -16 320
-20 333 -2 8 -7 78 -10 155 -3 77 -15 259 -26 405 -11 146 -24 325 -29 398 -5
73 -12 159 -16 191 -3 33 -1 89 7 132 19 114 18 144 -6 146 -11 0 -29 -1 -40
-4z"/>
<path d="M3132 5287 c-25 -29 -52 -105 -52 -144 0 -23 4 -75 9 -115 6 -40 15
-120 22 -178 6 -58 18 -125 25 -150 7 -24 11 -47 8 -49 -3 -3 -24 -15 -47 -26
-30 -14 -49 -33 -65 -65 l-23 -44 33 -28 c18 -15 39 -28 46 -28 7 0 46 16 85
35 76 37 201 77 277 90 25 4 53 12 63 17 44 23 245 41 432 40 201 -2 229 -5
393 -46 143 -36 235 -97 261 -175 14 -43 14 -114 0 -166 -16 -61 -111 -256
-136 -282 -23 -22 -31 -53 -15 -53 11 0 42 33 42 44 0 4 15 26 34 48 19 22 42
54 51 72 9 17 27 50 40 74 38 69 62 151 69 237 6 77 5 82 -24 128 -16 26 -35
47 -40 47 -6 0 -10 7 -10 15 0 8 -15 21 -32 28 -18 8 -47 26 -64 40 -18 15
-36 27 -42 27 -6 0 -32 9 -59 21 -26 12 -73 23 -103 24 -30 2 -87 11 -126 20
-80 18 -292 24 -394 11 -95 -13 -223 -14 -238 -3 -9 7 -19 4 -35 -11 -16 -15
-42 -22 -97 -27 -45 -4 -98 -17 -132 -32 -72 -32 -99 -26 -88 20 4 18 12 42
18 53 15 29 -11 304 -38 399 -5 17 -11 54 -15 82 -7 57 -16 70 -33 50z"/>
<path d="M5224 5126 c-40 -40 -41 -47 -10 -82 l23 -28 289 -1 c172 0 326 -6
379 -13 226 -32 497 -75 575 -92 47 -10 130 -26 185 -35 55 -9 147 -25 205
-35 153 -27 215 -31 237 -15 42 32 -25 65 -192 95 -33 6 -105 21 -160 34 -55
13 -127 29 -160 36 -33 7 -73 17 -90 22 -16 5 -55 13 -85 18 -30 4 -109 20
-175 34 -66 15 -151 31 -188 36 -38 5 -71 12 -75 14 -4 2 -38 7 -77 10 -38 4
-130 13 -203 21 -74 8 -204 15 -289 15 l-155 0 -34 -34z"/>
<path d="M5480 4783 c-28 -11 -70 -57 -70 -77 0 -13 14 -30 34 -43 34 -22 73
-29 286 -53 265 -31 418 -65 636 -142 44 -15 89 -28 100 -28 10 0 42 -7 69
-15 70 -22 153 -11 167 21 15 32 -3 51 -55 59 -129 18 -184 32 -302 75 -71 25
-146 52 -165 58 -84 27 -282 71 -365 82 -49 6 -133 22 -185 35 -52 13 -104 26
-115 29 -11 3 -27 2 -35 -1z"/>
<path d="M4652 4137 c-13 -23 -36 -64 -50 -91 -15 -26 -45 -67 -67 -91 -22
-24 -58 -66 -80 -95 -76 -98 -237 -206 -400 -267 -66 -25 -217 -43 -267 -32
-82 18 -133 43 -178 86 -25 24 -53 43 -62 43 -49 0 -14 -114 45 -150 16 -10
61 -28 99 -41 99 -31 249 -24 363 19 144 54 308 160 410 266 129 133 235 304
235 376 0 33 -24 22 -48 -23z"/>
<path d="M8301 4060 c0 -30 4 -74 9 -98 14 -61 29 -292 21 -316 -15 -39 -26 7
-55 244 -7 58 -14 107 -16 110 -1 3 -2 13 -1 23 1 9 -3 17 -8 17 -6 0 -11 7
-11 15 0 8 -5 15 -11 15 -6 0 -8 -7 -5 -17 4 -9 9 -59 12 -111 2 -52 8 -100
12 -106 4 -6 9 -78 12 -161 l5 -150 49 -8 c32 -5 53 -4 60 3 14 14 9 115 -14
295 -11 83 -20 166 -21 185 0 19 -9 53 -19 75 l-19 40 0 -55z"/>
</g>
</svg>
