<?xml version="1.0" standalone="no"?>
<!DOCTYPE svg PUBLIC "-//W3C//DTD SVG 20010904//EN"
 "http://www.w3.org/TR/2001/REC-SVG-20010904/DTD/svg10.dtd">
<svg version="1.0" xmlns="http://www.w3.org/2000/svg"
 width="2448.000000pt" height="3264.000000pt" viewBox="0 0 2448.000000 3264.000000"
 preserveAspectRatio="xMidYMid meet">
<metadata>
Created by potrace 1.12, written by Peter Selinger 2001-2015
</metadata>
<g transform="translate(0.000000,3264.000000) scale(0.100000,-0.100000)"
fill="#000000" stroke="none">
<path d="M5755 27659 c-191 -62 -315 -174 -315 -283 0 -50 -2 -52 -125 -154
-72 -59 -285 -271 -285 -283 0 -4 -15 -25 -32 -48 -149 -184 -231 -374 -245
-566 -15 -212 77 -365 282 -466 123 -61 188 -74 370 -74 246 1 467 58 745 193
181 88 390 251 469 367 84 123 120 230 128 384 10 182 -15 298 -102 471 -104
210 -259 355 -470 442 -104 43 -314 52 -420 17z m380 -73 c125 -41 221 -117
324 -261 151 -208 216 -445 181 -660 -36 -221 -88 -307 -290 -473 -61 -50
-229 -143 -315 -175 -279 -104 -375 -127 -590 -141 -230 -16 -471 91 -539 238
-120 255 15 599 372 953 74 72 153 144 175 160 23 15 60 42 82 59 67 52 212
120 331 154 23 7 81 11 135 9 85 -4 102 -8 175 -42 45 -22 90 -37 100 -35 10
2 25 16 34 31 14 27 14 29 -13 52 -63 55 -316 101 -419 76 -72 -17 -206 -70
-243 -95 -16 -12 -51 -32 -77 -46 -65 -33 -78 -19 -38 43 16 26 30 51 30 56 0
4 21 18 48 31 26 12 54 29 63 37 10 8 41 21 70 29 140 40 280 40 404 0z"/>
<path d="M7190 27300 c-30 -30 -25 -53 28 -122 27 -35 89 -124 138 -198 100
-150 201 -285 281 -374 71 -79 70 -99 -3 -131 -31 -14 -62 -25 -68 -26 -28 -1
-189 -96 -285 -168 -87 -65 -277 -245 -333 -314 -23 -30 -38 -59 -38 -76 0
-26 31 -71 50 -71 33 0 64 27 105 92 77 120 203 239 375 355 41 27 94 60 118
72 24 12 71 42 104 67 70 51 100 55 125 17 42 -66 351 -465 395 -511 36 -37
71 -40 76 -6 6 40 -165 292 -324 480 -68 80 -80 103 -62 118 7 7 51 25 98 40
47 15 105 35 130 46 25 10 79 28 120 39 41 12 96 28 122 37 25 8 73 22 105 30
32 8 85 22 118 30 33 8 100 20 149 25 99 12 234 43 249 58 15 15 1 40 -28 51
-29 11 -171 -1 -215 -18 -14 -5 -65 -17 -115 -26 -49 -9 -108 -22 -130 -28
-22 -6 -53 -14 -70 -18 -16 -5 -61 -17 -100 -29 -38 -12 -101 -30 -140 -40
-38 -10 -95 -29 -125 -41 -30 -12 -67 -25 -83 -30 -15 -5 -48 -22 -73 -39 -66
-45 -86 -42 -131 24 -21 31 -59 84 -85 119 -93 126 -255 373 -301 457 -62 116
-129 157 -177 109z"/>
<path d="M15512 27247 c-12 -13 -33 -52 -48 -87 -14 -35 -45 -102 -69 -149
-23 -47 -75 -162 -114 -256 -39 -93 -80 -190 -91 -215 -10 -25 -40 -101 -65
-170 -26 -68 -53 -136 -60 -150 -22 -44 -92 -262 -110 -344 -22 -100 -17 -215
12 -254 41 -55 79 -72 163 -72 87 0 169 28 284 99 161 97 404 315 506 452 52
70 89 96 109 76 15 -15 14 -90 -5 -269 -29 -273 -6 -367 104 -422 52 -27 210
-56 303 -56 100 0 226 23 284 52 22 11 61 31 87 44 27 13 57 24 68 24 12 0 46
-24 76 -54 81 -79 220 -143 364 -168 78 -13 120 -3 120 31 0 25 -36 51 -70 51
-83 1 -308 91 -363 146 -45 45 -37 56 77 113 90 45 120 67 213 156 138 131
169 185 159 278 -10 96 -68 158 -172 183 -124 29 -236 5 -334 -72 -63 -49
-129 -150 -154 -235 -23 -75 -21 -186 5 -259 22 -65 22 -109 -1 -120 -8 -4
-67 -20 -130 -36 -135 -33 -253 -41 -376 -25 -172 23 -182 52 -139 406 17 143
15 243 -7 291 -15 32 -56 54 -102 54 -44 0 -79 -29 -276 -228 -165 -167 -245
-236 -332 -284 -29 -17 -73 -42 -98 -56 -77 -45 -173 -82 -213 -82 -35 0 -39
3 -54 38 -31 73 6 236 127 557 22 61 50 129 61 152 10 24 19 47 19 53 0 11
158 381 214 502 28 60 44 82 78 105 45 30 55 52 57 130 1 35 -4 45 -30 67 -38
32 -50 32 -77 3z m1795 -1080 c40 -37 44 -60 23 -137 -13 -49 -122 -164 -230
-244 -36 -27 -75 -61 -88 -77 -36 -44 -59 -53 -87 -35 -32 21 -46 92 -35 181
12 95 26 140 66 205 53 87 146 138 257 139 52 1 61 -2 94 -32z"/>
<path d="M18186 26408 c-19 -27 -20 -65 -3 -98 8 -14 51 -97 97 -185 75 -146
180 -318 201 -331 5 -3 9 -20 9 -38 0 -29 -4 -34 -37 -43 -21 -6 -67 -16 -103
-21 -41 -6 -103 -28 -165 -57 -55 -26 -140 -67 -190 -90 -109 -52 -135 -74
-135 -119 0 -36 13 -52 45 -57 37 -6 77 12 134 59 47 39 162 101 266 143 120
49 229 89 243 89 25 0 66 -46 90 -102 34 -77 162 -239 250 -314 64 -55 88 -64
110 -42 24 24 10 50 -69 126 -110 106 -249 290 -249 331 0 34 5 36 160 66 89
17 222 52 249 65 9 4 70 25 136 46 128 42 293 121 415 199 160 102 185 120
207 144 29 34 29 51 -1 51 -25 0 -112 -35 -120 -49 -9 -14 -143 -91 -240 -139
-160 -77 -289 -130 -376 -152 -165 -41 -346 -92 -416 -117 -56 -19 -76 -22
-92 -14 -11 6 -61 86 -110 178 -107 200 -152 297 -178 378 -19 63 -62 115 -94
115 -11 0 -26 -10 -34 -22z"/>
<path d="M7455 25450 c-77 -5 -169 -11 -205 -14 -36 -3 -154 -10 -263 -16
-152 -8 -203 -14 -222 -26 -28 -18 -32 -41 -11 -69 16 -23 35 -23 246 -7 85 6
202 14 260 17 58 3 116 8 130 10 112 19 582 24 808 8 97 -6 185 -10 194 -7 22
6 33 41 18 58 -14 18 -35 23 -145 36 -122 14 -637 20 -810 10z"/>
<path d="M17645 25109 c-71 -3 -148 -9 -170 -13 -150 -27 -342 -80 -367 -103
-24 -21 -23 -75 0 -96 27 -24 51 -21 139 17 106 47 218 74 354 86 140 12 661
12 784 0 464 -46 600 -70 808 -141 70 -25 91 -28 102 -19 24 20 17 46 -19 78
-40 35 -29 31 -206 75 -206 52 -293 66 -605 97 -146 15 -657 27 -820 19z"/>
<path d="M7309 24844 c-8 -10 -16 -62 -20 -144 -4 -70 -12 -152 -18 -181 -6
-30 -18 -92 -27 -139 -9 -47 -35 -166 -59 -265 -66 -278 -91 -385 -134 -585
-23 -102 -48 -219 -57 -260 -26 -118 -92 -318 -135 -407 -21 -46 -39 -94 -39
-107 0 -32 25 -56 58 -56 49 0 69 24 103 127 17 53 45 123 60 154 16 32 29 60
29 62 0 18 81 120 123 154 29 24 72 60 97 82 98 84 266 170 429 218 191 58
370 80 506 64 167 -19 266 -59 345 -141 119 -122 119 -287 -1 -408 -143 -147
-465 -304 -739 -361 -336 -70 -495 -74 -668 -16 -87 30 -98 31 -112 5 -23 -43
13 -72 140 -111 68 -21 94 -24 270 -24 208 0 269 7 457 56 396 102 740 312
831 506 23 49 27 70 26 137 -2 70 -6 87 -43 162 -49 99 -111 158 -218 209
-128 62 -209 79 -373 79 -84 1 -170 -4 -205 -12 -114 -25 -330 -85 -375 -105
-25 -11 -56 -25 -70 -31 -101 -42 -192 -106 -282 -198 -54 -54 -102 -98 -109
-98 -17 0 -6 80 30 215 18 66 43 174 57 240 14 66 36 161 49 210 47 175 135
541 155 650 11 61 24 151 27 201 5 84 4 93 -16 113 -25 25 -73 28 -92 5z"/>
<path d="M5149 24770 c-53 -10 -116 -24 -140 -30 -67 -18 -208 -83 -276 -129
-34 -23 -66 -41 -71 -41 -16 0 -191 -156 -251 -224 -72 -82 -170 -252 -211
-368 -70 -198 -97 -528 -57 -683 64 -244 220 -406 477 -496 260 -91 587 -72
920 54 333 125 684 376 865 617 82 109 162 263 189 362 8 29 22 75 31 102 90
286 -207 615 -685 759 -92 28 -140 36 -241 41 -89 5 -150 15 -205 32 -96 29
-204 31 -345 4z m62 -90 c-13 -11 -29 -20 -35 -20 -7 0 -23 -11 -35 -24 -27
-29 -23 -69 9 -86 27 -15 55 2 68 39 17 48 61 64 193 69 l116 4 21 -29 c12
-17 29 -52 39 -78 21 -56 39 -71 76 -61 36 9 43 44 24 112 -15 52 -15 54 3 54
11 0 54 -11 95 -25 42 -13 95 -30 118 -36 23 -6 92 -31 152 -56 179 -75 289
-152 369 -258 66 -87 87 -139 93 -236 7 -91 -5 -148 -59 -279 -79 -196 -187
-335 -398 -512 -276 -232 -738 -418 -1040 -418 -258 0 -470 72 -606 205 -113
110 -161 224 -170 400 -21 374 113 739 349 951 50 45 252 184 267 184 4 0 50
20 101 44 113 53 174 71 249 74 l25 1 -24 -19z"/>
<path d="M18292 24469 c2 -6 8 -10 13 -10 5 0 11 4 13 10 2 6 -4 11 -13 11 -9
0 -15 -5 -13 -11z"/>
<path d="M14074 24232 c-23 -15 -37 -59 -45 -138 -6 -55 -24 -128 -55 -216
-51 -149 -81 -245 -164 -523 -17 -57 -31 -80 -73 -125 -199 -208 -273 -325
-319 -505 -25 -99 -38 -443 -19 -513 14 -50 49 -79 79 -63 22 12 58 83 77 151
7 25 29 83 48 130 31 76 70 195 106 328 7 23 17 43 24 43 71 9 349 -5 437 -22
322 -62 434 -95 583 -171 199 -102 220 -151 91 -209 -149 -68 -377 -104 -649
-104 -190 1 -214 7 -268 71 -46 55 -107 38 -107 -29 0 -37 46 -99 89 -122 50
-25 196 -38 371 -32 335 12 586 78 704 187 61 56 74 96 47 147 -26 51 -63 88
-125 128 -183 116 -415 194 -647 215 -68 6 -127 14 -131 16 -22 14 -1 34 65
59 190 74 270 136 419 330 69 89 158 245 158 276 0 33 -23 59 -53 60 -222 9
-359 -2 -467 -36 -103 -33 -152 -57 -205 -99 -51 -41 -92 -66 -105 -66 -21 0
-8 51 75 293 79 232 113 351 130 455 11 65 -29 112 -71 84z m564 -743 c2 -21
-18 -55 -89 -148 -114 -151 -196 -227 -322 -297 -107 -61 -155 -78 -326 -119
-102 -24 -115 -25 -129 -11 -13 13 -12 23 12 88 15 40 40 114 55 163 26 86 30
92 85 137 60 48 225 133 311 161 103 32 248 55 345 53 52 -1 55 -3 58 -27z
m-908 -384 c0 -19 -24 -110 -44 -165 -19 -51 -125 -374 -153 -464 -29 -95 -43
-85 -43 31 0 166 33 291 120 460 60 114 120 184 120 138z"/>
<path d="M15925 23401 c-48 -22 -94 -66 -120 -116 -18 -32 -19 -38 -5 -63 26
-45 48 -40 109 26 50 53 61 60 106 67 56 7 95 28 95 50 0 7 -12 23 -26 34 -34
27 -104 27 -159 2z"/>
<path d="M18864 22821 c-175 -47 -297 -140 -358 -273 -19 -40 -48 -119 -64
-175 -17 -56 -38 -113 -47 -127 -44 -66 -150 2 -180 115 -25 94 -28 169 -10
272 16 92 16 100 0 124 -15 22 -22 24 -52 20 -20 -4 -44 -14 -54 -23 -19 -17
-21 -16 -47 4 -90 72 -214 66 -390 -19 -113 -54 -194 -134 -217 -212 -14 -47
-14 -62 -3 -98 17 -59 73 -115 123 -125 131 -24 353 87 445 224 57 84 71 72
80 -73 8 -120 20 -147 104 -231 59 -58 92 -76 188 -98 67 -15 130 40 159 139
34 115 78 244 94 275 43 83 123 138 261 179 81 24 117 26 132 9 6 -7 18 -42
27 -78 25 -95 62 -166 102 -198 32 -24 47 -27 124 -30 83 -4 111 0 299 42 89
20 174 56 232 100 27 20 56 36 64 36 36 0 -1 -106 -78 -217 -16 -23 -41 -71
-57 -105 -33 -74 -189 -360 -237 -436 -19 -29 -34 -54 -34 -57 0 -2 -26 -47
-57 -100 -32 -53 -69 -116 -82 -138 -38 -67 -127 -195 -198 -287 -172 -220
-304 -379 -366 -441 -82 -81 -198 -232 -188 -242 14 -14 69 3 89 27 19 25 120
110 231 196 90 70 249 250 418 475 47 63 201 301 263 410 192 331 318 567 393
735 33 73 87 244 87 274 0 30 -46 76 -75 76 -12 0 -49 -21 -81 -46 -74 -58
-86 -64 -214 -107 -141 -49 -311 -89 -381 -90 -48 -1 -62 2 -83 22 -28 26 -56
99 -56 143 0 40 -22 88 -54 118 -24 21 -38 25 -104 27 -51 2 -101 -4 -148 -16z
m-893 -121 c15 -8 19 -21 19 -58 l0 -47 -88 -55 c-198 -125 -279 -154 -324
-113 -22 20 -24 73 -3 113 46 89 321 200 396 160z"/>
<path d="M16943 22805 c-132 -37 -306 -159 -487 -341 -124 -125 -150 -139
-140 -74 9 53 -15 90 -56 90 -20 0 -34 -8 -44 -22 -19 -29 -56 -168 -56 -208
0 -33 30 -70 58 -70 35 0 207 126 346 253 122 111 243 204 323 246 32 16 172
51 209 51 52 0 91 -19 104 -51 24 -57 -48 -306 -133 -461 -43 -79 -51 -119
-32 -164 16 -38 46 -45 70 -16 29 33 155 308 181 392 17 55 28 119 31 180 5
88 3 98 -19 129 -40 59 -75 73 -196 77 -74 3 -123 0 -159 -11z"/>
<path d="M15625 22570 c-14 -16 -19 -47 -26 -172 -8 -162 -20 -220 -63 -313
-29 -64 -32 -85 -14 -103 18 -18 52 -14 82 9 57 45 104 187 127 384 6 55 13
103 16 108 2 4 -1 23 -7 42 -20 61 -79 84 -115 45z"/>
<path d="M4130 22143 c-90 -15 -124 -46 -95 -89 18 -29 32 -29 140 -7 75 15
103 16 286 5 112 -7 265 -19 339 -27 452 -49 762 -65 1965 -100 504 -15 734
-24 1155 -46 118 -6 364 -12 545 -14 262 -2 337 -6 365 -18 25 -10 44 -12 67
-5 42 11 69 49 54 76 -25 46 -15 45 -539 48 -273 2 -517 5 -542 8 -74 7 -519
25 -930 36 -1155 33 -1789 63 -2095 100 -237 29 -631 47 -715 33z"/>
<path d="M13455 21979 c-142 -7 -170 -13 -355 -65 -164 -47 -202 -83 -145
-139 29 -30 66 -32 109 -6 98 61 268 100 466 108 294 11 801 -39 1148 -114 56
-12 80 -13 98 -4 55 25 8 74 -91 96 -409 90 -909 141 -1230 124z"/>
<path d="M6067 21620 c-98 -66 -212 -147 -254 -181 -42 -34 -82 -62 -88 -62
-5 0 -42 20 -80 46 -77 51 -110 63 -265 101 -115 28 -251 35 -311 15 -19 -7
-56 -29 -84 -49 -27 -21 -70 -50 -95 -65 -380 -236 -616 -583 -597 -881 5 -82
18 -121 63 -181 13 -17 24 -40 24 -50 0 -12 -54 -56 -156 -128 -86 -60 -171
-122 -188 -136 -17 -14 -77 -61 -133 -104 -109 -82 -122 -104 -84 -139 18 -16
21 -16 65 4 25 11 60 33 78 48 29 24 135 106 217 166 14 11 44 36 66 56 66 58
232 180 247 180 7 0 18 -10 23 -22 14 -31 58 -54 161 -86 80 -24 105 -27 239
-27 222 0 391 37 562 123 151 77 342 226 420 328 48 63 100 170 112 234 26
133 -59 357 -174 459 -19 17 -35 35 -35 41 0 8 160 117 330 225 67 42 145 83
175 90 42 9 55 23 55 56 0 35 -32 59 -80 59 -28 -1 -71 -25 -213 -120z m-833
-180 c32 -12 34 -43 6 -123 -22 -63 -26 -137 -8 -155 18 -18 53 -15 71 6 10
10 21 43 26 73 5 30 14 87 21 127 14 84 15 85 111 46 104 -43 179 -83 179 -98
0 -7 -30 -33 -67 -57 -38 -23 -93 -64 -123 -89 -30 -26 -91 -73 -135 -105 -44
-32 -128 -100 -186 -149 -58 -50 -166 -140 -240 -201 -268 -220 -316 -262
-353 -303 -21 -23 -44 -42 -51 -42 -22 0 -61 55 -75 104 -32 116 29 340 137
498 44 65 161 190 225 242 121 96 331 217 398 229 14 2 28 5 32 6 4 0 18 -3
32 -9z m536 -217 c12 -21 39 -67 60 -103 148 -242 89 -453 -179 -645 -139 -99
-219 -140 -366 -188 -224 -73 -428 -86 -590 -36 -38 12 -89 26 -112 33 -24 6
-43 16 -43 23 0 7 24 28 53 46 60 39 336 261 542 437 48 41 110 92 136 113 27
21 60 49 75 62 14 13 49 41 77 62 170 127 206 156 242 192 50 53 78 54 105 4z"/>
<path d="M13207 20890 c-27 -5 -60 -16 -73 -25 -27 -18 -54 -70 -54 -106 0
-20 -3 -21 -62 -13 -217 27 -458 -43 -600 -174 -83 -78 -123 -162 -123 -262 0
-100 35 -178 114 -253 108 -103 247 -164 529 -232 83 -21 348 -45 487 -45 315
0 489 49 555 156 31 50 29 156 -5 289 -62 238 -256 519 -413 599 -117 59 -253
85 -355 66z m209 -104 c164 -44 305 -186 413 -417 46 -98 91 -245 91 -298 0
-81 -66 -133 -215 -167 -119 -28 -472 -26 -642 4 -285 50 -510 134 -601 223
-50 49 -66 86 -67 154 0 119 69 211 215 284 113 57 202 76 350 76 132 -1 164
-9 204 -54 11 -12 30 -21 43 -21 33 0 39 -24 19 -84 -24 -77 -21 -122 8 -141
44 -29 62 -7 91 109 13 53 14 72 5 101 -17 50 -55 92 -110 120 -50 25 -64 46
-54 77 14 45 144 62 250 34z"/>
<path d="M6873 20755 c-96 -21 -147 -48 -218 -117 -53 -52 -65 -70 -65 -96 0
-21 7 -36 20 -44 11 -7 20 -20 20 -28 0 -9 -9 -33 -20 -55 -28 -54 -27 -146 1
-191 65 -106 294 -150 499 -96 47 12 123 41 170 65 72 36 89 49 114 91 40 64
40 132 2 209 -59 122 -236 250 -362 262 -32 4 -68 8 -79 10 -11 1 -48 -3 -82
-10z m186 -110 c100 -26 198 -110 250 -212 28 -55 27 -74 -6 -105 -65 -60
-190 -97 -358 -105 -109 -5 -125 -4 -172 17 -75 32 -87 49 -80 112 9 77 50
152 102 188 44 30 55 47 55 81 0 11 10 24 23 29 34 14 126 11 186 -5z"/>
<path d="M15934 20508 c-92 -61 -154 -134 -228 -271 l-37 -67 -108 6 c-74 5
-119 3 -144 -5 -83 -28 -126 -96 -93 -146 22 -34 58 -32 96 5 32 31 95 53 138
48 48 -5 38 -36 -51 -150 -96 -122 -114 -156 -97 -187 15 -28 34 -26 76 7 36
28 134 173 173 255 27 56 55 67 109 43 20 -8 80 -27 132 -41 52 -15 102 -30
110 -34 9 -5 17 -28 20 -57 12 -105 53 -125 208 -99 53 9 126 20 162 26 38 5
90 22 124 41 56 29 60 30 73 13 7 -11 13 -29 13 -40 0 -27 34 -59 54 -52 15 6
76 177 76 213 0 27 -36 74 -57 74 -8 0 -33 -15 -56 -34 -69 -56 -126 -81 -182
-80 -169 4 -239 16 -340 59 -91 38 -153 60 -285 97 -29 8 -46 19 -48 31 -5 24
141 205 172 213 15 3 34 -1 51 -12 25 -16 27 -16 53 3 20 15 28 30 30 62 3 36
-1 46 -31 76 -19 19 -41 35 -49 35 -8 0 -37 -15 -64 -32z"/>
<path d="M17216 20469 c-34 -26 -33 -46 4 -95 30 -40 39 -74 19 -74 -6 0 -40
14 -75 31 -62 29 -84 31 -84 6 0 -15 49 -49 118 -82 73 -35 77 -47 63 -184
-18 -171 -30 -243 -63 -373 -16 -65 -28 -128 -26 -140 3 -26 41 -36 63 -18 40
33 111 335 119 509 3 58 10 109 15 114 7 7 31 5 70 -3 39 -8 76 -10 103 -5 24
5 91 7 149 6 100 -2 108 -1 135 22 16 14 26 28 23 32 -9 9 -119 23 -199 26
-35 2 -89 9 -120 16 -30 7 -74 13 -98 13 -52 0 -92 34 -92 77 0 49 -20 102
-47 123 -32 25 -44 25 -77 -1z"/>
<path d="M14455 20390 c-107 -10 -216 -39 -285 -76 -143 -78 -137 -321 9 -428
155 -114 508 -168 725 -111 68 18 86 30 86 56 0 36 -39 43 -169 31 -200 -18
-428 18 -562 90 -72 38 -99 77 -99 142 0 110 65 155 273 187 92 14 226 7 318
-16 83 -21 257 -105 288 -138 21 -23 23 -30 13 -52 -27 -59 -2 -105 56 -105
58 0 90 75 59 141 -30 67 -110 132 -236 195 -149 74 -295 99 -476 84z"/>
<path d="M4403 20081 c-70 -12 -103 -53 -83 -102 18 -43 54 -48 91 -13 l30 29
242 0 c221 -1 260 -3 456 -33 237 -36 258 -40 413 -79 88 -22 111 -25 132 -15
30 14 34 42 8 65 -56 51 -429 110 -823 132 -53 3 -138 9 -190 15 -104 11 -212
11 -276 1z"/>
<path d="M6675 19921 c-11 -5 -46 -9 -78 -10 -32 0 -71 -8 -86 -16 -46 -23
-55 -69 -21 -100 20 -18 22 -18 71 -1 56 21 91 20 477 -8 112 -8 210 -12 218
-9 24 9 36 40 24 63 -18 33 -47 41 -188 51 -75 6 -167 17 -204 25 -72 15 -181
18 -213 5z"/>
<path d="M12095 19569 c-55 -4 -149 -10 -209 -13 -60 -3 -115 -11 -122 -17
-21 -17 -17 -63 7 -85 24 -22 100 -22 244 -2 116 17 505 16 695 -1 80 -7 251
-26 380 -42 202 -26 321 -46 661 -111 68 -13 92 -7 87 24 -5 38 -65 57 -344
114 -234 47 -381 71 -654 104 -209 25 -575 39 -745 29z"/>
<path d="M3612 18934 c-42 -29 -47 -43 -144 -409 -60 -228 -93 -387 -110 -540
-20 -170 -16 -1035 6 -1339 9 -132 19 -243 22 -247 3 -5 9 -48 15 -96 16 -147
50 -227 93 -221 30 4 31 31 2 191 -34 190 -48 486 -50 1047 -1 465 7 610 45
825 11 61 26 135 35 165 8 30 24 84 34 120 10 36 26 92 35 125 29 106 64 213
90 274 30 73 30 76 5 101 -24 24 -48 25 -78 4z"/>
<path d="M5050 18695 c-131 -26 -203 -56 -258 -109 -64 -60 -82 -136 -41 -177
27 -27 52 -21 63 16 34 116 82 160 218 199 106 30 383 16 460 -24 21 -11 45
-20 54 -20 8 0 34 -11 57 -23 23 -13 53 -27 67 -30 50 -13 251 -154 368 -260
133 -118 192 -194 259 -331 78 -158 98 -241 96 -401 -2 -214 -69 -389 -245
-637 -86 -123 -158 -200 -278 -301 -199 -168 -419 -286 -620 -331 -115 -26
-215 -29 -344 -11 -208 28 -365 104 -473 228 -100 114 -145 250 -144 432 1
216 77 436 247 715 129 213 349 471 519 610 99 80 117 90 219 125 103 34 129
60 110 112 -15 45 -48 41 -171 -20 -125 -63 -174 -100 -320 -240 -176 -169
-348 -384 -461 -575 -171 -288 -242 -508 -242 -749 0 -231 64 -390 212 -530
149 -139 347 -215 593 -227 265 -12 571 105 870 332 284 217 566 633 615 909
17 95 8 274 -19 378 -78 297 -355 608 -699 785 -42 22 -88 46 -102 54 -34 19
-184 65 -265 81 -47 9 -238 34 -260 33 -11 0 -49 -6 -85 -13z"/>
<path d="M7100 18327 c-32 -16 -82 -119 -105 -217 -9 -41 -21 -88 -26 -105 -5
-16 -15 -64 -23 -105 -8 -41 -24 -118 -34 -170 -11 -52 -37 -183 -57 -290 -20
-107 -38 -205 -41 -218 -9 -46 -25 -180 -39 -337 -35 -385 -4 -855 63 -944 38
-52 92 -34 138 44 39 67 21 90 -49 60 -72 -30 -89 498 -31 975 47 387 185
1002 259 1157 40 82 43 115 15 143 -23 23 -35 24 -70 7z"/>
<path d="M8289 18253 c-45 -50 -59 -81 -88 -200 -45 -187 -63 -301 -101 -638
-32 -290 -44 -965 -21 -1130 6 -38 11 -133 11 -211 0 -95 5 -157 15 -191 15
-51 39 -73 59 -53 8 8 12 144 13 428 0 229 4 509 7 622 18 555 100 1112 187
1266 30 54 37 102 17 122 -22 22 -72 14 -99 -15z"/>
<path d="M10155 17751 c-43 -11 -87 -36 -110 -60 -10 -12 -48 -38 -85 -57 -88
-46 -202 -144 -266 -228 -56 -73 -144 -236 -188 -346 -48 -122 -77 -257 -79
-366 -1 -92 1 -105 28 -159 32 -66 135 -176 229 -245 120 -87 300 -139 434
-125 85 9 221 55 336 112 178 89 301 191 425 354 93 121 107 331 34 524 -32
85 -117 231 -181 310 -70 88 -214 208 -300 250 -64 32 -85 37 -160 40 -48 3
-100 1 -117 -4z m232 -154 c12 -11 34 -36 48 -57 14 -20 37 -43 51 -50 22 -12
30 -12 60 5 19 10 36 16 37 14 27 -33 123 -191 150 -244 67 -133 92 -227 92
-345 0 -103 -1 -108 -39 -185 -86 -174 -307 -344 -562 -431 -180 -62 -374 -20
-527 115 -137 120 -169 197 -147 358 34 259 178 547 341 683 101 84 228 149
319 163 57 9 155 -5 177 -26z"/>
<path d="M6321 15865 c-54 -17 -84 -45 -111 -103 -26 -56 -60 -160 -60 -187 0
-11 -6 -29 -13 -40 -8 -11 -21 -51 -31 -90 -10 -38 -24 -88 -32 -110 -81 -239
-99 -338 -68 -369 35 -35 71 19 144 213 16 42 50 126 75 186 25 61 52 126 59
145 20 52 81 161 126 226 22 32 40 67 40 79 0 53 -54 74 -129 50z"/>
<path d="M2075 14105 c-49 -27 -66 -47 -63 -73 5 -41 31 -49 89 -29 81 29 224
21 379 -20 30 -8 72 -19 93 -24 99 -24 287 -114 408 -195 142 -95 207 -157
266 -259 57 -95 82 -179 90 -288 13 -207 -81 -379 -275 -503 -128 -82 -255
-136 -468 -198 -199 -59 -598 -59 -851 -1 -230 52 -448 168 -547 288 -90 110
-119 267 -76 408 30 100 96 204 184 287 68 64 112 91 287 173 9 4 47 15 85 25
60 15 99 16 306 10 201 -6 242 -4 267 8 47 25 56 76 17 101 -22 15 -49 15
-253 6 -258 -12 -326 -21 -433 -57 -296 -100 -549 -366 -579 -608 -31 -253 78
-440 354 -607 127 -78 290 -129 545 -173 130 -22 462 -15 605 12 458 89 815
326 924 612 21 57 25 81 24 195 0 115 -3 140 -27 215 -64 192 -210 345 -477
498 -118 67 -323 143 -509 187 -108 26 -325 32 -365 10z"/>
<path d="M3989 13577 c-53 -36 -79 -82 -79 -142 0 -28 -6 -71 -14 -96 -17 -54
-34 -209 -41 -387 -6 -152 -52 -405 -106 -581 -24 -79 -24 -123 -1 -144 38
-35 97 -19 302 79 213 102 287 118 510 111 330 -11 724 -122 908 -256 84 -62
126 -163 103 -248 -29 -105 -102 -169 -246 -215 -100 -32 -339 -31 -468 1
-258 64 -476 202 -595 374 -36 53 -55 65 -77 47 -21 -18 -19 -69 6 -115 57
-106 261 -280 404 -345 189 -85 435 -125 624 -102 240 30 434 138 503 281 29
60 36 167 14 222 -81 201 -475 381 -986 450 -125 17 -381 14 -462 -5 -102 -24
-207 -63 -268 -100 -158 -97 -178 -85 -121 71 46 128 92 370 112 597 12 145
37 273 68 359 18 48 20 64 11 97 -9 34 -41 70 -61 70 -3 0 -21 -10 -40 -23z"/>
<path d="M6485 13113 c-102 -54 -144 -165 -186 -493 -11 -91 -31 -221 -44
-290 -36 -184 -53 -332 -66 -545 -23 -395 12 -685 82 -685 31 0 34 29 33 301
-2 398 20 630 96 1012 81 402 111 505 172 588 22 30 26 92 8 114 -16 19 -57
18 -95 -2z"/>
<path d="M7763 13000 c-82 -17 -177 -82 -199 -136 -11 -27 -12 -40 -1 -70 23
-71 68 -72 92 0 27 77 97 116 204 116 177 -1 476 -145 634 -305 126 -127 203
-302 214 -482 12 -188 -49 -314 -172 -360 -122 -46 -220 -58 -350 -44 -142 16
-290 62 -434 134 -100 50 -140 76 -201 134 -124 116 -166 222 -126 316 16 40
70 87 99 87 34 1 103 35 121 61 19 27 21 80 4 97 -21 21 -54 13 -153 -38 -126
-65 -150 -83 -179 -133 -79 -141 -48 -261 108 -425 76 -79 127 -117 238 -176
428 -225 859 -224 1082 2 117 118 146 263 97 477 -10 46 -50 143 -92 226 -55
109 -177 232 -329 331 -204 132 -508 220 -657 188z"/>
<path d="M9796 12682 c-80 -44 -89 -64 -98 -205 -18 -292 -37 -422 -103 -702
-106 -447 -128 -588 -118 -749 5 -95 9 -112 30 -137 26 -30 60 -38 81 -17 17
17 15 42 -9 89 -42 79 -19 210 126 744 20 72 42 157 49 190 8 33 24 103 36
155 12 52 28 127 35 165 40 210 65 324 79 357 21 50 20 101 -2 121 -26 23 -49
21 -106 -11z"/>
<path d="M10779 12373 c-75 -39 -77 -45 -94 -258 -4 -44 -13 -123 -22 -175 -8
-52 -23 -151 -33 -220 -11 -69 -26 -168 -34 -220 -32 -203 -32 -266 5 -402 11
-43 40 -64 67 -49 15 8 17 28 18 148 1 140 4 163 64 443 17 80 35 168 40 195
31 173 73 365 85 395 25 61 33 104 23 130 -18 48 -43 51 -119 13z"/>
<path d="M12675 12075 c-90 -17 -190 -52 -285 -100 -106 -53 -125 -69 -172
-138 -77 -117 -112 -269 -89 -392 45 -239 309 -521 575 -612 72 -25 95 -28
206 -28 144 0 193 13 305 78 123 72 196 161 268 327 55 128 72 278 43 386 -19
70 -78 174 -138 239 -185 202 -447 290 -713 240z m284 -101 c112 -20 182 -54
255 -128 117 -118 156 -202 156 -335 0 -141 -17 -226 -66 -327 -55 -113 -116
-174 -229 -230 -76 -38 -83 -39 -180 -39 -119 1 -215 27 -303 85 -290 189
-411 486 -293 719 43 83 172 161 267 161 37 0 51 5 75 29 16 16 29 38 29 49 0
11 6 23 13 25 25 11 195 5 276 -9z"/>
<path d="M8420 6939 c-120 -7 -185 -31 -196 -73 -13 -52 16 -72 140 -96 73
-15 90 -4 64 40 -11 19 -13 32 -6 36 12 8 108 -2 203 -20 262 -52 377 -60 735
-52 373 8 514 13 595 21 33 3 194 -1 357 -10 164 -8 409 -14 545 -13 505 4
564 0 848 -52 255 -47 611 -96 825 -115 36 -3 133 -12 215 -20 83 -8 231 -19
330 -25 407 -22 551 -42 835 -116 161 -42 342 -75 535 -99 106 -13 179 -24
370 -55 214 -36 666 -69 885 -65 208 4 643 22 825 34 153 11 320 8 575 -9 102
-7 286 -12 410 -12 209 0 286 5 510 32 102 13 401 16 715 8 237 -7 374 4 580
46 133 28 301 45 485 51 200 6 208 7 410 31 133 16 301 16 525 -2 88 -7 110 3
103 47 -6 45 -50 57 -243 70 -157 11 -201 10 -345 -5 -226 -23 -366 -33 -558
-40 -166 -6 -205 -10 -422 -51 -212 -40 -339 -48 -625 -39 -361 10 -504 7
-695 -19 -201 -26 -493 -29 -885 -8 -269 14 -433 12 -885 -10 -583 -29 -1052
-9 -1450 61 -30 6 -156 24 -280 41 -266 36 -445 70 -620 118 -194 53 -357 76
-640 91 -256 14 -567 41 -915 80 -130 15 -446 63 -590 90 -226 42 -243 44
-670 45 -231 1 -528 7 -659 15 -198 11 -310 12 -650 2 -656 -20 -764 -16
-1041 33 -115 20 -129 21 -245 14z"/>
</g>
</svg>
