<?xml version="1.0" standalone="no"?>
<!DOCTYPE svg PUBLIC "-//W3C//DTD SVG 20010904//EN"
 "http://www.w3.org/TR/2001/REC-SVG-20010904/DTD/svg10.dtd">
<svg version="1.0" xmlns="http://www.w3.org/2000/svg"
 width="2448.000000pt" height="3264.000000pt" viewBox="0 0 2448.000000 3264.000000"
 preserveAspectRatio="xMidYMid meet">
<metadata>
Created by potrace 1.12, written by Peter Selinger 2001-2015
</metadata>
<g transform="translate(0.000000,3264.000000) scale(0.100000,-0.100000)"
fill="#000000" stroke="none">
<path d="M397 32633 c-6 -11 -8 -375 -8 -1263 0 -426 0 -1247 0 -1825 0 -577
-2 -1210 -4 -1405 -2 -195 -7 -668 -10 -1050 -3 -382 -8 -774 -10 -870 -28
-1096 -28 -18273 0 -18755 12 -215 27 -4709 16 -5125 -1 -41 9 -2198 11 -2297
1 -43 1 -43 37 -43 l37 0 -3 193 c-4 253 -7 1451 -4 1547 1 41 2 318 1 615 0
297 0 1127 0 1845 1 1237 -6 2568 -15 3185 -12 799 -20 3246 -17 5340 1 1298
2 2374 3 2390 1 52 -1 1685 -3 2340 -1 347 -2 2162 -1 4035 0 2904 3 3519 12
3710 1 14 1 194 1 400 0 206 2 555 5 775 13 1087 16 1564 15 2800 -1 737 -2
1818 -3 2403 l-1 1062 -27 0 c-15 0 -30 -3 -32 -7z"/>
<path d="M17227 32573 c-4 -38 -7 -103 -7 -146 0 -82 -20 -226 -45 -317 -19
-69 -19 -121 -1 -145 12 -16 18 -17 39 -8 49 23 118 258 136 468 6 72 14 149
17 173 l5 42 -69 0 -69 0 -6 -67z"/>
<path d="M16150 31629 c-254 -32 -325 -44 -429 -70 -272 -71 -618 -200 -821
-306 -224 -117 -478 -273 -597 -365 -35 -26 -65 -48 -68 -48 -15 0 1 43 58
158 75 151 99 189 161 262 56 65 58 93 8 98 -28 3 -40 -3 -72 -37 -78 -82
-147 -202 -230 -401 -29 -69 -84 -189 -122 -268 -54 -110 -69 -149 -64 -168 7
-25 9 -26 59 -21 29 3 72 10 97 16 82 18 355 62 505 81 105 13 233 39 258 52
24 12 22 55 -3 63 -11 3 -54 2 -97 -4 -43 -5 -121 -15 -173 -21 -180 -21 -314
-42 -388 -61 -96 -24 -112 -24 -112 1 0 30 48 120 64 120 7 0 33 18 57 41 36
32 382 247 614 381 203 117 642 281 916 344 230 52 310 59 669 58 663 -1 979
-68 1492 -317 323 -156 545 -325 745 -564 105 -126 203 -312 228 -433 16 -76
22 -167 11 -177 -3 -4 -44 -1 -90 6 -81 12 -119 11 -276 -10 -188 -26 -463
-138 -600 -244 -25 -19 -61 -46 -80 -61 -93 -72 -182 -229 -202 -356 -14 -92
-21 -95 -109 -48 -31 16 -92 39 -135 50 -43 12 -116 37 -161 57 l-82 35 -31
-22 c-16 -12 -30 -27 -30 -34 0 -16 21 -36 38 -36 8 0 112 -31 230 -70 118
-38 219 -70 223 -70 5 0 28 -9 52 -19 23 -11 65 -27 93 -35 67 -22 87 -37 78
-60 -8 -20 -47 -15 -75 10 -8 8 -21 14 -27 14 -6 0 -18 10 -26 22 -16 22 -16
22 -16 -17 0 -22 -4 -47 -10 -55 -9 -15 -109 -42 -122 -34 -11 7 -10 42 2 49
6 3 10 12 10 18 0 9 -22 13 -67 15 -37 1 -146 10 -243 21 -96 11 -278 22 -405
26 -126 3 -295 10 -375 15 -261 18 -979 49 -1160 51 -63 0 -171 5 -240 10 -69
5 -163 12 -210 15 -87 6 -265 31 -425 60 l-89 17 -37 -42 c-38 -42 -51 -72
-40 -88 3 -4 18 -16 34 -26 20 -13 32 -15 46 -7 29 15 93 12 341 -15 228 -25
441 -37 1010 -55 173 -6 394 -14 490 -19 372 -21 653 -31 858 -32 117 -1 215
-5 217 -10 7 -11 -35 -49 -60 -54 -11 -2 -67 -11 -125 -20 -132 -20 -319 -69
-387 -100 -38 -18 -54 -32 -59 -50 -9 -37 2 -55 33 -55 47 1 164 26 243 53 41
14 100 30 130 37 30 6 102 27 160 46 139 46 194 56 322 60 59 1 126 8 150 15
24 7 47 12 52 10 5 -1 24 12 42 30 28 27 36 30 61 22 41 -14 44 -51 4 -66 -61
-23 -38 -58 91 -143 113 -75 217 -128 326 -167 39 -15 84 -34 97 -43 l26 -17
-21 -22 c-18 -19 -28 -21 -107 -17 -92 4 -314 -24 -583 -73 -223 -41 -254 -55
-290 -125 -30 -60 -10 -88 38 -54 32 22 171 58 363 93 91 17 193 37 227 45 34
8 64 10 67 6 3 -5 -6 -21 -19 -37 -13 -15 -30 -44 -38 -63 -26 -62 -219 -231
-424 -373 -193 -132 -675 -448 -904 -591 -154 -96 -429 -249 -635 -353 -128
-65 -466 -219 -575 -263 -25 -10 -85 -35 -135 -55 -295 -120 -916 -332 -1450
-494 -55 -17 -183 -56 -285 -87 -102 -31 -198 -59 -215 -64 -16 -4 -113 -32
-215 -63 -454 -136 -823 -230 -1086 -277 -145 -26 -206 -37 -494 -95 -244 -48
-380 -68 -590 -85 -74 -7 -164 -15 -200 -20 -73 -8 -106 1 -95 28 37 88 56
170 50 221 -14 114 -52 225 -101 292 -36 49 -71 68 -138 76 -32 4 -109 41
-126 62 -3 3 -22 19 -43 35 -25 18 -36 33 -33 43 12 30 -49 65 -171 99 -197
54 -434 81 -610 70 -58 -4 -103 -3 -101 1 95 192 101 235 60 403 -20 84 -50
151 -108 242 -79 124 -114 151 -135 105 -13 -28 -1 -58 61 -157 66 -105 94
-204 94 -335 1 -95 -2 -116 -21 -156 -26 -51 -63 -82 -124 -103 -45 -16 -69
-8 -69 21 0 39 -127 188 -330 388 -89 88 -202 199 -249 246 -83 82 -339 353
-411 435 -88 99 -246 270 -360 389 -69 72 -174 187 -235 255 -158 181 -255
280 -380 387 -133 116 -255 231 -255 242 0 5 28 14 62 21 140 27 396 135 532
223 100 65 168 126 251 220 76 88 109 139 132 209 28 80 24 78 121 78 48 0
168 4 267 10 210 11 759 37 990 45 88 4 185 8 215 10 30 2 224 6 430 9 740 12
896 17 1038 32 157 16 181 12 146 -27 -21 -23 -76 -49 -106 -49 -57 0 -300
-102 -335 -142 -26 -27 -40 -104 -24 -128 9 -13 22 -9 93 27 94 47 266 115
413 163 55 18 123 43 150 55 28 12 76 33 108 46 74 30 59 37 -19 9 -55 -20
-223 -67 -341 -95 -96 -24 -73 10 37 56 30 12 62 28 71 36 8 7 22 13 30 13 8
0 37 8 64 18 28 10 77 24 110 31 33 7 78 19 100 26 22 8 58 17 80 21 22 4 51
13 65 20 39 21 136 64 143 64 13 0 6 -21 -42 -122 -84 -179 -104 -247 -104
-368 0 -230 73 -373 233 -459 60 -32 195 -64 350 -82 89 -10 505 -13 520 -4 4
3 83 11 176 20 305 28 503 70 720 154 202 78 480 247 575 350 110 117 157 178
164 210 4 19 18 44 30 55 33 31 74 139 86 229 9 65 8 89 -6 147 -9 38 -23 74
-31 81 -8 6 -14 16 -14 22 0 19 -135 147 -155 147 -5 0 -22 10 -39 23 -60 46
-151 86 -208 93 -42 4 -65 13 -87 34 -31 27 -152 80 -183 80 -10 0 -27 4 -40
9 -67 26 -210 39 -418 36 -236 -3 -338 -17 -463 -60 -43 -15 -80 -25 -82 -23
-3 2 3 28 12 56 15 46 15 54 2 67 -13 13 -28 12 -129 -9 -132 -28 -205 -53
-264 -93 -126 -85 -278 -222 -376 -337 -30 -36 -61 -65 -68 -65 -8 -1 -28 5
-45 13 -105 45 -308 85 -662 131 -84 11 -128 22 -147 36 -44 31 -90 25 -127
-16 -17 -20 -31 -42 -31 -50 0 -25 41 -42 145 -60 55 -10 161 -31 235 -46 74
-16 202 -43 284 -60 165 -33 186 -41 186 -68 0 -37 -26 -44 -138 -42 -59 1
-192 -5 -297 -14 -279 -23 -552 -32 -990 -34 -486 -2 -667 -8 -1845 -61 -289
-13 -459 -15 -488 -6 -20 7 -22 12 -16 39 28 120 -12 300 -86 382 -10 11 -24
31 -31 45 -21 39 -128 135 -184 165 -27 15 -55 34 -61 42 -11 13 -62 35 -164
70 -233 79 -688 62 -1024 -38 -68 -20 -68 -20 -86 -1 -20 21 -115 42 -193 42
-85 0 -250 -30 -354 -65 -108 -36 -188 -74 -291 -136 l-64 -39 -82 39 c-44 21
-128 57 -186 80 -350 140 -483 206 -543 269 -26 28 -47 60 -47 70 0 27 -34 55
-59 47 -66 -21 -43 -201 35 -279 32 -32 195 -113 247 -123 17 -3 43 -11 57
-18 14 -7 123 -45 243 -85 119 -40 217 -78 217 -84 0 -18 -60 -71 -106 -95
-23 -11 -109 -41 -190 -65 -82 -25 -180 -57 -219 -71 -38 -14 -88 -32 -110
-39 -22 -8 -96 -35 -165 -61 -69 -26 -147 -55 -175 -65 -104 -38 -291 -125
-317 -148 -35 -30 -13 -128 28 -126 24 2 194 64 271 100 32 14 114 54 183 87
127 61 269 119 351 143 25 8 92 34 149 59 57 25 106 43 108 40 3 -3 -2 -29
-11 -58 -28 -92 -40 -187 -33 -271 29 -364 260 -627 636 -723 175 -44 379 -82
483 -90 144 -11 397 -8 491 7 l80 12 80 -84 c45 -46 137 -128 206 -183 136
-109 250 -213 326 -296 278 -307 1072 -1133 1334 -1388 150 -146 280 -281 290
-302 11 -20 26 -39 35 -42 17 -7 21 -37 5 -37 -19 0 -264 60 -310 76 -204 70
-201 69 -320 177 -61 56 -79 67 -104 65 -39 -4 -54 -29 -37 -60 33 -59 206
-176 336 -228 91 -36 138 -47 272 -65 56 -8 117 -22 135 -31 l33 -18 -32 -7
c-64 -13 -112 -64 -97 -104 8 -20 -9 -39 -57 -65 -74 -38 -233 -147 -290 -199
-134 -120 -249 -319 -249 -429 0 -72 33 -189 81 -283 66 -133 219 -274 364
-336 103 -45 184 -73 207 -73 14 0 44 -6 69 -14 104 -32 391 -62 498 -51 329
33 632 161 874 369 57 49 141 155 164 207 11 25 12 25 198 38 301 20 383 31
735 102 135 28 337 68 450 90 368 72 649 144 1205 311 165 49 365 109 445 133
628 188 1278 408 1660 562 571 230 964 432 1530 786 96 60 200 127 230 147 30
21 174 116 320 212 386 255 517 358 639 500 95 110 115 138 127 172 10 28 15
31 55 31 42 0 44 -1 47 -33 7 -69 -44 -191 -171 -412 -88 -154 -151 -242 -218
-303 -59 -55 -75 -92 -44 -103 44 -17 163 79 251 202 125 175 292 482 319 588
15 58 13 73 -11 159 -8 25 22 22 92 -9 79 -35 234 -78 369 -103 244 -45 330
-54 545 -57 118 -1 217 -5 218 -8 2 -4 0 -25 -3 -49 -4 -23 -7 -100 -7 -172 1
-125 -19 -398 -38 -534 -8 -59 -46 -205 -70 -271 -143 -397 -398 -884 -624
-1190 -346 -470 -723 -859 -1215 -1254 -567 -455 -1055 -790 -1631 -1118 -173
-99 -685 -355 -885 -443 -139 -61 -538 -222 -645 -260 -90 -32 -366 -119 -475
-149 -640 -177 -1214 -270 -1980 -322 -265 -18 -850 -17 -1005 2 -94 11 -321
34 -635 64 -60 6 -137 15 -170 21 -33 5 -150 23 -260 40 -110 17 -243 40 -295
51 -52 11 -117 24 -145 29 -52 10 -135 30 -220 55 -27 8 -107 30 -177 49 -71
20 -138 40 -150 45 -13 5 -68 26 -123 46 -274 101 -409 157 -550 227 -33 16
-76 35 -96 42 -20 8 -54 24 -75 37 -22 14 -57 31 -79 40 -22 9 -80 39 -128 67
-49 28 -90 51 -92 51 -2 0 -49 27 -104 60 -56 33 -104 60 -107 60 -3 0 -24 13
-47 29 -23 16 -69 46 -102 67 -130 84 -321 227 -402 302 -13 12 -28 22 -32 22
-5 0 -105 96 -223 213 -192 190 -271 273 -381 402 -54 64 -250 326 -280 375
-16 25 -48 77 -72 115 -93 147 -218 383 -270 510 -7 17 -18 44 -25 60 -110
269 -198 660 -250 1115 -12 101 -14 411 -5 545 26 358 119 765 190 831 30 28
31 34 4 68 -35 44 -59 32 -98 -49 -91 -190 -169 -653 -175 -1040 -4 -220 3
-327 34 -557 91 -654 257 -1101 600 -1618 190 -287 360 -491 645 -775 135
-134 214 -206 319 -290 48 -38 109 -88 135 -110 46 -38 67 -54 211 -156 74
-51 269 -172 374 -231 38 -21 74 -42 80 -47 22 -18 473 -239 520 -255 26 -9
92 -35 145 -58 122 -52 423 -163 521 -193 41 -12 120 -37 175 -54 139 -44 506
-125 710 -156 94 -14 197 -30 230 -35 61 -10 236 -31 420 -50 55 -6 179 -14
275 -20 96 -5 279 -16 405 -26 391 -28 913 -11 1415 46 694 78 1404 248 1995
477 177 69 435 175 550 228 44 20 112 50 150 68 310 140 845 430 1115 602 583
373 1209 838 1595 1187 418 377 742 736 1000 1106 210 301 487 846 595 1171
78 233 117 540 103 804 -9 168 -11 163 94 171 87 7 165 21 293 50 336 79 546
250 630 515 11 35 20 89 20 120 0 68 -31 172 -67 224 -30 44 -139 147 -155
147 -6 0 -36 24 -67 53 -74 68 -241 153 -411 207 -30 10 -80 27 -110 38 -222
81 -609 143 -807 129 -83 -6 -84 -6 -93 19 -6 14 -25 31 -44 39 l-34 14 -6 88
c-15 185 -42 282 -118 418 -56 99 -76 126 -191 262 -185 218 -494 434 -847
592 -157 71 -178 79 -280 116 -206 73 -462 126 -705 145 -191 15 -653 21 -745
9z m-9072 -1208 c24 -7 39 -7 52 2 15 8 27 9 52 0 18 -7 85 -21 149 -33 172
-30 367 -102 447 -165 114 -89 182 -231 182 -383 0 -67 -2 -73 -24 -84 -36
-16 -50 -58 -43 -132 6 -63 5 -65 -43 -142 -143 -231 -409 -407 -775 -512 -56
-16 -111 -35 -124 -42 -20 -10 -27 -9 -50 9 -50 40 -69 46 -90 27 -11 -10 -22
-28 -25 -42 l-6 -24 -158 -2 c-167 -2 -190 -2 -292 2 -184 7 -426 61 -600 134
-215 91 -344 205 -429 378 -80 162 -98 281 -60 404 34 109 63 156 156 253 68
71 95 93 127 102 23 6 64 21 91 34 208 96 294 123 465 150 47 7 91 14 99 16
32 9 18 -22 -35 -73 -53 -52 -57 -59 -62 -110 -3 -42 0 -57 13 -68 15 -13 22
-9 61 35 24 28 60 74 79 103 20 28 43 52 51 52 8 0 22 4 32 9 25 12 97 30 172
41 36 6 82 17 103 25 20 8 49 15 64 15 15 0 40 4 57 10 88 27 292 33 364 11z
m5642 -20 c0 -11 -11 -28 -23 -38 -30 -24 -47 -55 -47 -88 0 -41 26 -41 71 0
61 54 136 85 267 108 123 21 352 28 467 15 73 -9 175 -27 195 -35 8 -3 22 -6
30 -7 22 -2 98 -25 150 -46 25 -10 95 -37 155 -61 321 -124 432 -230 428 -407
-4 -143 -96 -318 -235 -447 -170 -160 -497 -331 -738 -388 -256 -61 -484 -88
-775 -94 -287 -6 -457 9 -597 53 -112 35 -145 53 -201 110 -134 136 -153 351
-52 573 27 58 130 223 173 276 94 116 194 218 326 330 124 105 193 141 296
155 97 13 110 12 110 -9z m-7510 -391 c0 -13 -84 -50 -115 -50 -37 0 -24 14
27 30 24 7 47 17 53 22 13 11 35 10 35 -2z m13642 -72 c23 -19 6 -56 -29 -64
-127 -28 -184 -57 -215 -110 -18 -31 -16 -64 5 -64 6 0 20 9 31 19 34 31 149
89 233 117 91 30 183 35 418 22 277 -14 468 -48 690 -123 184 -62 344 -144
455 -233 92 -73 207 -209 247 -292 30 -62 36 -86 37 -141 0 -58 -5 -77 -38
-143 -23 -47 -62 -103 -99 -142 -105 -113 -306 -195 -615 -253 -246 -46 -331
-47 -737 -10 -203 19 -442 66 -625 124 -25 8 -76 24 -115 36 -124 39 -444 201
-540 275 -42 32 -47 70 -12 83 32 12 97 87 97 111 0 25 -47 45 -159 67 -110
22 -124 35 -116 111 15 138 34 189 99 265 41 48 174 146 255 186 70 36 261
108 331 126 139 34 375 53 402 33z m-9352 -3518 c135 -10 428 -62 491 -86 24
-9 76 -31 114 -49 39 -18 87 -38 107 -45 21 -6 59 -23 85 -37 166 -87 203
-111 265 -174 59 -60 70 -77 89 -140 18 -58 21 -88 17 -158 -6 -103 -36 -186
-65 -177 -87 24 -106 17 -123 -42 -13 -48 10 -87 46 -78 39 10 28 -9 -49 -87
-217 -217 -538 -364 -841 -387 -203 -15 -358 9 -586 91 -216 77 -353 170 -462
314 -95 124 -122 184 -115 252 7 65 54 163 116 239 113 141 257 227 537 320
175 58 205 61 267 25 24 -14 29 -14 37 -1 15 25 34 150 24 160 -6 6 -34 5 -74
-1 -36 -5 -94 -14 -130 -19 -36 -5 -94 -16 -130 -24 -79 -19 -90 -19 -90 -3 0
13 59 64 99 85 22 11 140 27 226 30 17 1 82 -3 145 -8z"/>
<path d="M6850 30043 c-41 -4 -87 -19 -133 -44 -13 -7 -34 -7 -67 2 -64 16
-112 2 -172 -51 -55 -48 -78 -101 -85 -196 -11 -144 40 -240 150 -282 91 -35
145 -35 255 0 94 30 261 118 294 155 16 17 49 135 63 220 6 40 4 45 -41 93
-27 29 -62 59 -79 67 -29 16 -125 44 -135 41 -3 -1 -25 -3 -50 -5z m17 -145
c7 -6 25 -7 40 -4 24 5 38 -4 93 -53 62 -58 64 -60 50 -85 -33 -63 -172 -125
-296 -133 -111 -8 -175 12 -233 71 -52 53 -56 84 -15 127 44 46 104 31 104
-25 0 -31 25 -53 37 -33 4 7 16 17 26 20 15 6 18 14 13 45 -7 42 -2 52 34 69
46 22 119 23 147 1z"/>
<path d="M13114 29933 c-21 -29 -50 -152 -60 -258 -8 -87 18 -219 53 -269 37
-52 76 -65 112 -38 32 24 32 54 2 135 -35 95 -62 279 -55 375 6 77 6 82 -13
82 -10 0 -28 -12 -39 -27z"/>
<path d="M18630 29403 c-40 -5 -80 -38 -80 -65 0 -22 -4 -22 93 -3 43 8 115
15 160 15 45 0 92 3 105 6 34 10 26 31 -15 39 -45 9 -214 13 -263 8z"/>
<path d="M19069 29343 c-19 -17 -59 -38 -89 -47 -94 -30 -125 -48 -128 -77 -3
-29 21 -48 143 -114 95 -51 107 -62 94 -87 -10 -19 -18 -20 -103 -13 -71 5
-101 3 -128 -8 -39 -16 -78 -64 -78 -96 0 -20 3 -20 78 -13 97 9 220 8 294 -3
50 -7 60 -5 88 15 40 28 90 97 84 114 -4 11 -110 65 -254 129 -55 24 -90 55
-90 78 0 23 20 29 106 29 83 0 136 17 154 50 16 29 4 60 -24 60 -13 0 -43 3
-68 6 -40 6 -49 3 -79 -23z"/>
<path d="M9740 25910 c-110 -15 -261 -68 -349 -124 -27 -17 -75 -47 -107 -66
-31 -19 -81 -58 -110 -85 -49 -46 -54 -55 -54 -92 0 -23 5 -45 11 -49 6 -3 36
18 67 49 107 104 243 180 386 217 122 31 185 25 172 -17 -3 -10 -42 -55 -87
-98 -44 -44 -87 -94 -95 -112 -18 -41 -18 -124 0 -148 15 -22 18 -21 206 35
58 17 118 32 134 33 34 3 37 8 66 104 34 110 21 122 -88 79 -50 -20 -64 -22
-78 -12 -15 12 -14 16 10 54 47 75 63 212 27 232 -21 11 -29 11 -111 0z"/>
<path d="M9692 30865 c-114 -26 -253 -80 -417 -161 -130 -65 -173 -96 -190
-138 -8 -17 -30 -44 -49 -59 -50 -38 -67 -77 -68 -151 -1 -77 22 -131 71 -163
29 -20 47 -23 130 -23 150 0 326 47 505 134 246 120 364 221 436 376 21 43 21
46 4 78 -21 40 -70 78 -126 98 -62 22 -219 27 -296 9z m282 -158 c56 -37 26
-81 -122 -182 -188 -127 -383 -199 -598 -220 -113 -11 -184 20 -184 80 0 23
31 55 99 101 24 16 62 41 84 57 59 39 314 137 426 163 117 28 253 28 295 1z"/>
<path d="M2970 30611 c-14 -27 -12 -141 3 -171 10 -20 27 -28 92 -44 44 -10
135 -36 202 -57 67 -22 130 -39 139 -39 10 0 40 -7 68 -15 28 -8 85 -21 126
-29 41 -8 95 -20 120 -26 105 -25 132 -30 158 -30 16 0 58 -9 93 -19 35 -11
123 -36 194 -56 134 -39 225 -68 260 -85 36 -18 149 -40 158 -31 19 19 -6 48
-80 97 -67 44 -169 91 -386 175 -115 44 -554 172 -787 229 -225 55 -252 64
-287 92 -42 33 -59 35 -73 9z"/>
<path d="M16208 30286 c-67 -67 -87 -193 -64 -416 10 -98 14 -190 10 -250 -6
-80 -4 -97 9 -108 39 -33 72 7 103 128 13 52 17 118 18 325 1 143 5 274 9 290
9 34 1 50 -29 59 -16 5 -30 -2 -56 -28z"/>
<path d="M5809 28812 c-96 -36 -186 -103 -470 -352 -232 -204 -265 -237 -295
-295 -24 -44 -27 -58 -18 -82 12 -36 45 -41 84 -13 23 16 30 29 30 53 0 28 15
47 103 133 207 205 489 438 576 477 74 33 97 11 206 -198 75 -145 219 -482
237 -554 15 -64 34 -98 58 -106 56 -18 53 31 -14 230 -48 144 -152 392 -197
470 -9 16 -20 41 -24 54 -4 13 -29 56 -57 96 -68 102 -121 123 -219 87z"/>
<path d="M12905 28752 c-22 -11 -80 -36 -130 -56 -81 -33 -188 -89 -343 -180
-110 -64 -185 -173 -167 -243 9 -36 27 -25 87 51 44 58 71 80 166 138 164 100
308 178 328 178 37 0 -4 -265 -72 -461 -29 -83 -34 -107 -25 -126 14 -31 25
-29 56 12 61 80 144 343 165 520 14 122 13 139 -7 164 -18 21 -18 21 -58 3z"/>
<path d="M12646 28398 c-8 -13 -17 -34 -21 -48 -13 -45 -165 -259 -279 -395
-530 -628 -725 -812 -1338 -1264 -92 -67 -204 -154 -249 -193 l-81 -70 -56 6
c-66 8 -72 11 -72 38 0 29 91 179 190 313 116 158 140 196 140 221 0 29 -27
38 -56 19 -22 -14 -119 -145 -213 -288 -59 -90 -121 -204 -151 -279 -21 -51
-22 -62 -11 -97 10 -35 17 -42 51 -52 22 -7 40 -18 40 -26 0 -26 30 -25 61 1
24 20 41 26 79 26 26 0 81 6 121 14 41 8 110 20 154 26 204 31 325 83 279 121
-20 16 -78 14 -187 -5 -45 -9 -109 -17 -142 -18 -90 -4 -85 16 22 87 106 71
272 196 533 404 287 229 435 382 911 936 151 176 284 361 325 450 20 43 23 58
14 75 -14 27 -46 26 -64 -2z"/>
<path d="M8554 28335 c-11 -17 -19 -54 -22 -104 -4 -65 0 -93 24 -172 24 -80
28 -112 29 -214 0 -126 5 -145 34 -145 59 0 81 284 36 465 -13 55 -28 120 -32
145 -10 56 -41 67 -69 25z"/>
<path d="M12592 27691 c-62 -21 -83 -44 -79 -86 l2 -30 125 -1 c118 0 130 -2
205 -34 104 -42 143 -72 167 -128 18 -39 19 -50 8 -85 -19 -65 -92 -132 -195
-182 -147 -71 -231 -86 -364 -64 -87 14 -119 32 -142 82 -21 48 -24 103 -8
179 9 42 21 61 60 99 52 50 56 58 37 77 -31 31 -105 -12 -154 -90 -27 -43 -54
-148 -54 -213 0 -98 50 -175 143 -216 69 -31 225 -33 337 -5 179 45 357 170
416 292 88 182 -12 321 -281 392 -124 32 -163 35 -223 13z"/>
<path d="M14110 27348 c-23 -24 -47 -54 -52 -68 -25 -66 -40 -179 -45 -330 -6
-191 4 -243 48 -248 49 -6 60 23 75 190 12 135 27 262 50 420 6 45 -5 78 -26
78 -4 0 -27 -19 -50 -42z"/>
<path d="M10885 22525 c-123 -28 -206 -63 -310 -130 -164 -106 -252 -238 -282
-423 -16 -102 -16 -106 5 -200 39 -175 131 -316 254 -393 188 -119 328 -160
545 -160 262 0 546 94 747 245 135 102 197 177 245 298 33 83 34 223 2 295
-52 117 -140 205 -293 293 -198 114 -252 132 -389 135 -78 2 -114 7 -140 20
-96 50 -227 57 -384 20z m253 -71 c35 -10 26 -28 -35 -75 -93 -72 -138 -150
-96 -166 12 -5 35 13 83 64 66 70 100 94 154 107 25 6 35 2 67 -30 34 -33 41
-36 61 -27 13 6 31 14 41 17 9 3 17 13 17 22 0 26 51 11 185 -56 229 -113 317
-182 364 -280 21 -45 26 -69 26 -135 -1 -112 -39 -192 -138 -289 -174 -172
-442 -281 -719 -293 -152 -7 -251 7 -361 49 -115 44 -165 75 -232 143 -107
108 -165 255 -165 416 0 240 129 397 402 490 115 39 283 60 346 43z"/>
<path d="M5969 19683 c-1 -5 -3 -42 -4 -83 -1 -52 -13 -114 -39 -205 -21 -71
-43 -170 -49 -220 l-12 -90 -42 -7 c-54 -9 -96 -31 -122 -64 -25 -32 -26 -52
-4 -99 24 -50 83 -62 83 -16 0 22 31 51 55 51 15 0 17 -6 11 -47 -3 -27 -11
-102 -16 -168 -5 -66 -12 -148 -16 -182 -6 -60 -5 -63 20 -74 48 -22 50 -18
92 226 30 178 44 240 58 253 10 10 39 11 145 2 72 -6 177 -11 232 -12 107 -1
127 -11 97 -46 -53 -61 -86 -205 -69 -298 13 -69 33 -106 83 -154 70 -69 149
-75 264 -19 109 52 287 257 361 416 36 78 43 123 17 123 -30 0 -50 -19 -109
-102 -97 -135 -223 -276 -283 -316 -49 -33 -61 -37 -111 -35 -46 2 -60 7 -78
28 -29 33 -29 41 2 141 50 164 148 253 289 261 119 7 116 5 116 68 0 65 -21
85 -88 85 -62 0 -183 -20 -212 -35 -27 -14 -191 -7 -352 15 -44 6 -121 13
-171 15 -49 2 -93 7 -98 12 -9 9 12 96 57 232 49 151 41 241 -26 312 -33 35
-78 52 -81 32z"/>
<path d="M8415 19550 c-22 -24 -54 -176 -94 -448 -15 -106 -30 -195 -33 -197
-3 -3 -36 2 -74 11 -93 21 -210 16 -230 -11 -19 -25 -18 -29 11 -63 25 -30 27
-30 140 -34 150 -4 147 -1 128 -138 -17 -130 -41 -226 -59 -241 -22 -18 -16
-48 11 -61 21 -10 30 -8 53 9 42 31 69 113 85 256 7 70 18 131 23 136 5 6 27
6 54 0 25 -5 120 -12 213 -16 111 -4 167 -10 167 -17 0 -29 63 -136 104 -178
52 -52 107 -77 246 -110 69 -17 114 -20 234 -19 187 2 295 21 389 68 46 23 61
48 33 59 -7 3 -49 -4 -92 -15 -104 -26 -292 -45 -373 -36 -210 23 -388 112
-431 216 -17 41 -9 45 94 54 92 8 235 39 280 62 55 28 85 63 92 110 11 75 -14
110 -111 157 -50 24 -225 28 -296 7 -94 -27 -148 -95 -171 -213 l-12 -64 -55
7 c-31 5 -116 13 -189 20 -73 7 -139 17 -148 24 -14 10 -13 25 15 151 17 76
47 197 67 269 29 106 34 139 28 183 -3 29 -13 60 -21 68 -20 20 -57 17 -78 -6z
m854 -564 c52 -48 21 -63 -241 -122 -116 -25 -134 -9 -75 68 46 60 98 79 208
75 69 -1 91 -6 108 -21z"/>
<path d="M11468 19473 c-21 -24 -62 -172 -88 -314 -37 -203 -24 -178 -118
-210 -89 -30 -177 -76 -206 -108 -29 -32 -5 -92 41 -105 16 -5 33 4 72 39 52
45 110 80 146 87 19 3 19 -3 17 -137 -3 -144 16 -323 41 -374 9 -19 20 -26 42
-26 28 0 30 2 28 35 -2 19 -6 137 -9 262 -7 251 -2 282 45 296 14 4 87 7 161
7 207 0 265 -28 307 -147 28 -81 25 -245 -6 -315 -27 -61 -23 -79 21 -98 42
-17 46 -13 127 115 84 132 104 159 119 160 11 0 12 -9 5 -42 -23 -119 6 -228
74 -272 117 -77 201 -20 267 184 13 41 27 87 30 103 7 31 24 36 32 10 18 -57
41 -95 78 -131 84 -82 222 -127 266 -87 37 33 20 55 -42 55 -36 0 -102 37
-145 82 -34 35 -59 105 -88 241 -20 92 -38 116 -84 109 -38 -5 -44 -15 -71
-122 -62 -245 -132 -403 -172 -388 -19 8 -48 90 -48 137 1 128 83 301 188 397
47 43 55 55 59 96 7 56 -6 66 -62 48 -46 -15 -88 -51 -127 -109 -17 -25 -68
-84 -112 -131 -45 -47 -99 -111 -120 -142 -50 -74 -66 -75 -66 -5 0 156 -84
289 -206 327 -109 33 -216 44 -301 30 -50 -8 -79 -8 -85 -2 -7 7 7 62 41 167
28 87 51 172 51 191 0 38 -16 85 -33 96 -21 13 -53 9 -69 -9z"/>
<path d="M4970 19471 c-100 -13 -243 -48 -307 -76 -74 -33 -113 -70 -113 -108
0 -40 13 -61 99 -156 84 -93 220 -200 351 -275 172 -99 190 -111 190 -126 0
-20 -77 -79 -155 -118 -151 -75 -388 -160 -468 -168 -113 -11 -117 -12 -117
-43 0 -30 26 -59 77 -85 41 -20 57 -20 173 4 259 55 575 201 636 295 16 25 16
29 -6 96 -35 104 -98 167 -255 254 -27 15 -79 43 -115 63 -82 45 -231 144
-249 165 -42 51 102 114 314 137 178 20 315 8 241 -20 -31 -12 -25 -37 13 -52
50 -19 152 -37 182 -31 38 7 79 56 79 94 0 106 -91 145 -355 153 -83 3 -179 1
-215 -3z"/>
<path d="M14635 19308 c-36 -13 -75 -46 -75 -65 0 -28 41 -93 58 -93 10 0 32
12 49 28 17 15 54 35 82 45 39 14 52 24 57 44 5 19 2 30 -11 40 -22 15 -116
16 -160 1z"/>
<path d="M7215 19213 c-16 -15 -17 -43 -13 -282 4 -220 9 -285 27 -376 33
-166 94 -328 140 -369 30 -27 97 -33 121 -11 22 20 27 54 8 56 -7 1 -24 2 -38
2 -20 2 -31 14 -58 67 -66 132 -96 396 -77 665 9 122 9 159 -2 197 -19 65 -70
89 -108 51z"/>
<path d="M21379 19198 c-1 -2 -3 -113 -4 -248 -3 -264 -14 -417 -41 -548 -13
-66 -14 -85 -4 -97 32 -39 80 1 104 85 22 80 34 180 46 405 17 305 -2 405 -77
405 -13 0 -24 -1 -24 -2z"/>
<path d="M20592 19110 c-12 -5 -26 -20 -32 -32 -11 -27 -38 -237 -50 -398 -5
-63 -14 -164 -20 -225 -16 -156 -11 -267 15 -295 33 -37 74 -52 164 -60 124
-12 230 3 423 60 42 12 81 65 76 102 -4 32 -52 35 -136 9 -55 -16 -199 -40
-262 -42 -8 -1 -42 -8 -74 -16 -33 -8 -70 -12 -83 -8 -21 5 -23 10 -23 78 0
39 5 110 10 157 5 47 14 132 20 190 6 58 22 173 36 255 22 132 23 156 12 190
-14 43 -34 52 -76 35z"/>
<path d="M15650 19063 c-28 -10 -50 -36 -50 -59 0 -32 34 -106 58 -127 42 -38
80 1 68 68 -4 18 -1 45 5 59 21 44 -27 79 -81 59z"/>
<path d="M15296 19011 c-9 -10 -21 -48 -26 -83 -11 -78 -36 -187 -56 -250 -17
-52 -13 -50 -137 -63 -97 -11 -147 -75 -97 -125 28 -28 55 -25 79 9 12 16 35
34 51 40 47 16 48 -8 7 -97 -46 -99 -81 -215 -72 -242 10 -32 49 -54 74 -41
20 11 25 22 36 81 19 101 104 310 127 310 34 0 134 -33 175 -57 115 -67 170
-175 199 -386 9 -66 45 -109 88 -105 29 3 31 6 30 38 -3 69 -53 271 -82 334
-55 118 -177 212 -307 237 -33 7 -64 15 -69 20 -5 4 4 47 22 101 17 51 36 127
43 170 11 68 11 79 -4 102 -21 31 -57 34 -81 7z"/>
<path d="M10122 18934 c-30 -20 -28 -43 7 -92 27 -36 36 -41 83 -47 78 -9 339
11 384 30 66 27 85 52 64 85 -8 12 -31 14 -132 12 -73 -2 -170 3 -238 12 -142
19 -141 19 -168 0z"/>
<path d="M19045 18904 l-28 -26 7 -144 c8 -181 7 -184 -78 -184 -71 0 -92 -14
-82 -55 8 -33 40 -49 101 -49 l50 -1 0 -40 c0 -22 -6 -119 -13 -215 -14 -187
-8 -256 23 -290 20 -23 57 -26 73 -7 6 7 11 91 12 202 3 312 5 344 17 356 10
10 45 9 155 0 79 -7 203 -13 276 -13 73 0 135 -5 138 -9 3 -5 -22 -37 -54 -72
-72 -77 -80 -104 -51 -163 54 -113 193 -99 338 33 32 29 68 69 80 88 l20 35
-45 0 c-37 0 -54 -7 -100 -42 -131 -101 -175 -118 -182 -73 -8 55 91 134 207
167 38 10 45 10 56 -5 12 -16 15 -14 36 20 30 51 60 84 70 77 5 -3 9 -21 9
-41 0 -20 6 -44 13 -52 8 -9 22 -63 32 -121 27 -155 63 -220 122 -220 26 0 36
6 44 24 9 20 7 29 -10 53 -16 21 -29 70 -48 179 -44 259 -43 253 -68 270 -20
13 -27 13 -58 0 -19 -8 -38 -23 -42 -35 -4 -14 -18 -22 -43 -26 -20 -3 -59
-10 -85 -15 -70 -14 -220 -12 -344 5 -154 20 -380 38 -399 31 -8 -3 -27 -3
-40 0 l-25 6 8 137 c11 192 10 211 -12 227 -28 20 -49 17 -80 -12z"/>
<path d="M14280 18856 c-99 -28 -150 -73 -150 -131 0 -18 22 -97 50 -176 52
-151 57 -177 39 -211 -14 -25 -99 -63 -174 -77 -74 -14 -115 4 -151 64 -24 42
-25 48 -23 218 2 151 0 179 -15 202 -27 41 -58 51 -119 35 -81 -20 -124 -50
-274 -194 -139 -133 -176 -162 -192 -152 -12 7 -3 83 20 184 25 111 25 130 -6
144 -19 9 -29 8 -49 -6 -30 -19 -48 -75 -72 -226 -22 -142 -12 -184 47 -200
37 -10 47 -8 93 14 57 28 187 132 232 186 51 60 176 160 201 160 l23 0 -3
-162 c-2 -160 -1 -164 25 -219 19 -38 42 -66 75 -90 43 -30 56 -34 125 -38
132 -6 288 56 333 132 26 44 14 118 -41 258 -41 103 -46 122 -36 144 17 37 74
58 144 53 133 -10 161 -78 174 -431 7 -176 16 -207 59 -207 13 0 31 8 41 17
15 16 16 35 10 201 -8 232 -19 312 -55 388 -42 89 -92 118 -218 128 -42 3 -85
0 -113 -8z"/>
<path d="M22190 18811 c-146 -39 -232 -132 -270 -291 -20 -81 -27 -87 -101
-72 -109 23 -181 -3 -164 -58 12 -38 39 -42 130 -23 63 12 88 14 96 6 6 -6 13
-56 15 -110 4 -95 20 -182 50 -271 32 -98 98 -190 127 -179 25 9 21 51 -13
152 -38 113 -60 228 -60 317 0 104 4 108 108 108 83 0 242 30 317 60 65 25
130 78 153 123 23 47 29 117 13 160 -30 78 -247 120 -401 78z m300 -126 c13
-12 20 -31 20 -54 0 -53 -39 -78 -200 -125 -184 -53 -269 -71 -281 -59 -19 19
6 86 54 145 71 87 157 119 304 114 63 -2 87 -7 103 -21z"/>
<path d="M17123 18798 c-15 -7 -25 -26 -34 -62 -11 -49 -45 -136 -120 -309
-31 -73 -32 -80 -18 -105 8 -15 26 -33 41 -41 33 -19 75 -9 223 51 138 56 153
59 196 48 63 -17 79 -48 79 -149 0 -102 12 -128 53 -117 43 10 59 46 60 133 1
101 -24 160 -84 200 -39 26 -51 28 -133 28 -87 0 -95 -2 -195 -48 -63 -29
-108 -44 -113 -39 -6 6 10 49 40 109 53 105 92 211 92 250 0 25 -32 63 -52 62
-7 0 -23 -5 -35 -11z"/>
<path d="M16427 18765 c-95 -26 -135 -76 -99 -124 30 -40 70 -40 103 1 27 32
29 33 107 33 71 0 82 -3 115 -28 50 -38 64 -88 50 -173 -19 -112 -72 -165
-199 -201 -56 -16 -57 -16 -75 6 -10 12 -25 56 -34 99 -43 196 -64 238 -117
230 -40 -6 -44 -30 -18 -135 43 -180 57 -219 95 -252 47 -41 76 -47 158 -33
124 22 236 98 273 188 20 47 19 213 -2 262 -47 113 -204 169 -357 127z"/>
<path d="M14791 17741 c-7 -13 -6 -43 4 -97 8 -50 16 -193 19 -384 6 -303 18
-719 36 -1255 13 -364 39 -800 51 -847 9 -37 11 -38 54 -38 l45 0 0 73 c0 39
-5 133 -10 207 -23 333 -38 843 -39 1425 -2 649 -8 768 -42 845 -36 82 -94
117 -118 71z"/>
<path d="M10123 17554 c-46 -36 -44 -67 9 -115 24 -22 47 -38 53 -36 16 6 48
80 49 114 0 65 -53 83 -111 37z"/>
<path d="M12972 17558 c-19 -25 -24 -62 -31 -216 -7 -172 -2 -162 -84 -183
-66 -16 -76 -39 -42 -91 21 -32 31 -39 48 -34 84 21 77 23 77 -31 0 -52 12
-73 43 -73 21 0 47 54 47 99 0 21 6 32 20 36 32 10 199 7 275 -5 101 -16 210
-24 239 -16 19 5 26 13 26 31 0 31 -8 34 -160 69 -158 37 -222 46 -314 46
l-79 0 7 93 c3 50 9 125 12 164 5 58 3 77 -10 98 -18 27 -57 34 -74 13z m121
-425 c-7 -2 -19 -2 -25 0 -7 3 -2 5 12 5 14 0 19 -2 13 -5z"/>
<path d="M4034 17450 c-223 -45 -454 -263 -454 -429 0 -151 88 -318 211 -400
126 -84 286 -105 403 -52 67 30 190 106 239 147 l28 24 48 -40 c38 -32 62 -43
120 -55 82 -17 104 -14 184 28 116 61 275 266 285 367 8 87 -49 89 -93 4 -53
-107 -184 -252 -252 -280 -71 -30 -193 -3 -193 42 0 9 32 46 70 83 42 41 70
75 70 88 0 11 7 26 16 34 8 7 13 21 11 30 -3 10 1 26 9 36 18 24 17 37 -3 62
-23 28 -93 44 -130 30 -43 -16 -111 -76 -137 -122 -35 -61 -48 -144 -32 -205
l12 -50 -30 -24 c-60 -46 -177 -111 -219 -120 -178 -40 -332 0 -407 104 -64
88 -84 246 -41 328 43 82 84 129 145 169 71 47 184 101 208 101 9 0 20 5 24
11 5 8 36 10 105 5 107 -8 116 -3 81 42 -32 42 -172 63 -278 42z m616 -434 c0
-17 -68 -106 -80 -106 -27 0 4 90 37 109 25 15 43 13 43 -3z"/>
<path d="M19367 17383 c-22 -25 -54 -102 -73 -176 -8 -34 -22 -72 -30 -85 -15
-22 -20 -23 -87 -18 -99 8 -141 -2 -145 -36 -4 -33 21 -84 49 -98 15 -8 29 -8
51 -1 17 6 44 11 61 11 27 0 29 -3 24 -27 -5 -28 -91 -273 -123 -350 -19 -48
-9 -73 30 -73 49 0 97 89 165 306 23 74 48 134 56 137 15 6 208 -12 415 -39
227 -30 270 -27 270 21 0 33 -2 34 -260 85 -150 30 -240 43 -297 42 -80 0 -83
1 -83 23 0 13 18 54 39 92 58 100 64 148 25 187 -21 21 -67 20 -87 -1z m64
-329 c11 -14 10 -15 -11 -12 -13 1 -25 9 -28 16 -5 17 23 15 39 -4z"/>
<path d="M8004 17295 c-15 -15 -23 -32 -20 -41 7 -18 -12 -176 -23 -187 -5 -5
-38 -14 -74 -22 -36 -8 -75 -19 -86 -25 -48 -25 -4 -107 50 -96 16 3 43 9 61
12 l31 7 -7 -39 c-17 -96 -18 -114 -6 -129 38 -46 87 5 99 104 5 41 13 77 18
82 4 4 58 15 118 24 220 32 310 68 274 111 -15 18 -62 18 -190 -2 -57 -9 -117
-17 -134 -17 -34 -2 -34 0 -20 134 7 60 5 69 -14 88 -28 28 -46 27 -77 -4z"/>
<path d="M4334 17265 c-7 -18 12 -45 32 -45 17 0 18 32 2 48 -16 16 -27 15
-34 -3z"/>
<path d="M5456 17215 c-54 -19 -100 -67 -133 -141 -27 -62 -29 -63 -66 -64
-31 0 -40 -5 -57 -32 -17 -28 -20 -51 -20 -145 0 -100 2 -115 20 -133 27 -27
76 -26 94 3 8 12 27 60 41 107 15 47 33 99 41 117 8 17 14 37 14 45 0 20 53
95 99 139 70 68 50 132 -33 104z m-106 -185 c0 -20 -25 -38 -37 -26 -5 5 24
46 34 46 1 0 3 -9 3 -20z m-50 -134 c0 -16 -24 -38 -33 -30 -8 9 11 44 23 44
6 0 10 -6 10 -14z"/>
<path d="M5959 17221 c-70 -22 -149 -85 -195 -158 -23 -35 -41 -53 -55 -53
-29 0 -45 -49 -52 -163 -6 -88 -5 -99 13 -117 21 -21 46 -25 69 -11 8 5 29 60
48 122 52 171 81 211 205 283 48 27 67 59 54 91 -6 16 -44 18 -87 6z"/>
<path d="M6478 17220 c-117 -22 -200 -148 -200 -302 0 -81 -5 -92 -26 -58 -24
39 -82 11 -82 -39 0 -37 58 -87 109 -95 30 -5 57 -18 83 -41 54 -49 103 -68
162 -61 62 7 98 30 94 59 -3 19 -11 23 -63 28 -110 10 -160 54 -93 82 47 20
145 113 170 161 56 108 54 202 -4 251 -31 26 -73 31 -150 15z m108 -123 c14
-37 -154 -247 -189 -234 -15 5 -12 78 5 122 18 48 58 96 92 111 40 17 85 18
92 1z"/>
<path d="M10535 17188 l-28 -22 7 -120 c7 -131 26 -237 46 -262 20 -23 49 -36
69 -29 12 3 42 53 79 128 70 142 121 208 148 191 9 -5 37 -48 60 -93 78 -149
120 -189 169 -157 32 21 32 43 -1 87 -15 19 -44 72 -66 118 -73 153 -136 195
-230 153 -47 -20 -91 -77 -123 -160 -14 -35 -20 -40 -32 -31 -11 10 -13 29 -7
90 6 74 5 79 -19 103 -32 32 -37 32 -72 4z"/>
<path d="M10243 17180 c-13 -5 -23 -17 -23 -27 -1 -10 -1 -81 0 -157 1 -76 -4
-172 -11 -212 -9 -59 -9 -77 1 -89 19 -23 69 -15 91 15 25 34 42 177 37 310
-3 91 -7 113 -24 137 -24 31 -39 36 -71 23z"/>
<path d="M18773 17129 c-127 -96 -181 -160 -234 -274 l-23 -49 -7 31 c-9 45
-87 143 -144 181 -39 26 -57 32 -89 30 -34 -3 -42 -7 -44 -26 -5 -31 38 -92
80 -116 53 -30 148 -128 148 -152 0 -29 -81 -202 -137 -291 -46 -75 -50 -98
-21 -117 34 -21 112 63 188 204 22 41 45 82 50 90 7 12 19 4 59 -41 98 -110
324 -181 384 -121 29 30 13 58 -31 54 -50 -5 -153 27 -203 63 -60 45 -139 130
-139 151 0 42 140 186 260 267 61 41 74 101 32 150 -25 28 -57 20 -129 -34z"/>
<path d="M11606 17128 c-59 -30 -127 -106 -166 -184 -21 -44 -46 -78 -63 -89
-25 -15 -28 -21 -23 -53 5 -36 3 -43 -47 -132 -10 -17 -27 -84 -38 -148 -11
-64 -28 -142 -38 -172 -31 -91 -36 -147 -16 -170 10 -11 28 -20 41 -20 39 0
62 36 83 134 11 50 30 136 42 191 24 110 57 225 65 225 3 0 19 -7 36 -16 45
-23 126 -15 177 19 105 70 175 271 131 377 -25 59 -108 77 -184 38z m84 -133
c0 -102 -79 -225 -145 -225 -19 0 -39 8 -49 19 -17 19 -17 22 14 80 52 96 145
191 172 175 4 -3 8 -25 8 -49z"/>
<path d="M7305 17083 c-23 -6 -84 -54 -172 -136 -64 -60 -90 -68 -73 -21 14
35 12 88 -2 102 -39 39 -83 -8 -119 -129 -35 -116 -36 -143 -7 -163 46 -32 71
-21 195 83 65 54 126 108 137 120 10 11 23 18 27 15 5 -3 9 -83 9 -178 0 -199
7 -232 56 -252 46 -19 73 -6 112 54 47 73 42 104 -11 62 -47 -37 -48 -33 -45
168 2 160 0 192 -15 219 -15 29 -54 65 -67 62 -3 -1 -14 -4 -25 -6z"/>
<path d="M12053 17075 c-41 -18 -53 -60 -53 -190 0 -128 26 -192 89 -224 141
-72 406 62 522 264 31 53 37 106 16 123 -18 16 -27 7 -90 -90 -31 -48 -65 -92
-76 -97 -11 -6 -26 -17 -33 -25 -21 -20 -158 -84 -198 -91 -37 -7 -89 8 -102
28 -10 16 -10 172 0 217 17 74 -15 110 -75 85z"/>
<path d="M16420 17037 l-25 -13 3 -319 c1 -176 5 -332 8 -347 3 -15 19 -39 35
-53 42 -35 61 -21 94 67 45 120 160 349 205 410 42 56 106 108 134 108 20 0
30 -30 86 -257 69 -278 95 -343 141 -343 10 0 25 10 34 23 14 22 13 32 -14
128 -16 57 -36 138 -45 179 -9 41 -31 124 -48 184 -27 94 -37 116 -73 153 -37
39 -46 43 -89 43 -112 0 -205 -82 -256 -226 -11 -32 -20 -71 -20 -86 0 -30
-21 -89 -40 -110 -6 -7 -17 -22 -25 -33 -14 -18 -15 6 -13 212 3 222 2 233
-18 260 -25 33 -40 37 -74 20z"/>
<path d="M17720 16990 c-116 -17 -220 -78 -266 -155 -100 -172 85 -437 322
-461 70 -7 109 3 177 46 36 23 47 36 47 55 0 31 -23 42 -53 26 -61 -31 -108
-40 -157 -31 -106 20 -196 76 -188 117 3 15 16 19 94 24 136 8 233 50 285 123
32 43 39 111 16 155 -22 44 -82 82 -149 97 -34 7 -65 13 -68 12 -3 0 -30 -4
-60 -8z m177 -132 c20 -16 15 -52 -9 -75 -31 -28 -138 -64 -250 -84 -54 -10
-70 -10 -83 1 -22 18 -19 25 22 71 43 48 69 62 160 89 69 20 135 19 160 -2z"/>
<path d="M7221 16464 c-23 -17 -23 -17 -20 -197 l4 -180 -72 -13 c-76 -13
-141 -44 -181 -87 -32 -34 -27 -86 10 -106 26 -15 28 -14 75 30 50 47 136 80
155 61 6 -6 -9 -61 -37 -143 -59 -167 -60 -183 -19 -187 19 -2 36 3 47 16 25
27 73 151 92 236 9 42 21 79 27 82 5 4 55 7 110 8 98 2 100 2 116 -23 57 -94
87 -134 116 -157 41 -33 135 -72 201 -85 28 -5 86 -15 130 -24 94 -17 234 -19
288 -4 31 8 38 14 35 32 -3 21 -10 22 -108 28 -230 13 -489 110 -536 201 -18
35 -20 35 111 42 162 9 293 58 308 115 10 39 -19 78 -80 107 -54 27 -66 29
-173 29 -99 0 -122 -4 -168 -24 -59 -27 -107 -75 -117 -119 l-6 -29 -72 4
c-40 3 -88 8 -107 12 l-35 7 4 164 c3 157 2 166 -19 193 -25 31 -46 34 -79 11z
m702 -333 c21 -21 -17 -39 -120 -56 -106 -18 -133 -16 -133 8 0 21 26 39 78
54 52 14 158 11 175 -6z m-253 -101 c0 -5 -4 -10 -10 -10 -5 0 -10 5 -10 10 0
6 5 10 10 10 6 0 10 -4 10 -10z"/>
<path d="M5638 16428 c-36 -12 -35 -29 2 -90 35 -57 91 -214 83 -234 -2 -7
-29 -18 -58 -24 -54 -11 -135 -60 -135 -81 0 -7 9 -26 20 -44 24 -38 65 -53
89 -32 19 17 76 47 89 47 19 0 22 -34 12 -167 -7 -98 -6 -140 1 -150 18 -21
53 -15 80 13 23 24 24 33 28 174 l3 149 32 10 c56 17 146 24 146 10 0 -6 -14
-40 -31 -74 -32 -65 -48 -159 -35 -209 4 -15 23 -44 42 -66 31 -34 43 -40 75
-40 98 0 279 142 386 302 24 38 49 68 55 68 7 0 8 -37 4 -114 -10 -175 15
-266 74 -266 43 0 64 35 48 80 -9 26 -8 85 2 258 12 219 12 224 -7 250 -17 22
-29 27 -69 29 -27 2 -73 6 -102 9 -42 5 -72 0 -140 -21 -48 -15 -101 -35 -119
-45 -40 -23 -357 -60 -374 -43 -6 6 -17 38 -24 72 -19 78 -76 193 -111 220
-30 23 -28 23 -66 9z m896 -316 c6 -43 -9 -112 -26 -112 -7 0 -21 -9 -32 -19
-31 -29 -48 -29 -56 -1 -6 24 -12 19 -121 -87 -117 -116 -182 -162 -214 -150
-13 6 -16 14 -10 34 26 106 137 244 232 289 31 14 83 31 116 38 35 7 65 20 71
29 18 28 33 19 40 -21z m-636 -51 c11 -6 10 -9 -5 -13 -10 -3 -24 -3 -32 0
-11 4 -11 6 0 13 17 11 21 11 37 0z m-78 -17 c0 -2 -9 -4 -21 -4 -11 0 -18 4
-14 10 5 8 35 3 35 -6z"/>
<path d="M4236 16311 c-4 -7 -5 -15 -2 -18 9 -9 19 4 14 18 -4 11 -6 11 -12 0z"/>
<path d="M4557 16269 c-38 -5 -87 -17 -110 -28 -23 -10 -53 -22 -67 -26 -38
-12 -186 -112 -202 -137 -8 -13 -20 -44 -28 -71 -11 -41 -11 -50 2 -65 8 -9
28 -32 43 -49 16 -18 36 -33 46 -33 10 0 20 -4 23 -9 3 -5 38 -25 77 -45 59
-30 81 -36 133 -36 34 0 66 4 71 9 6 6 30 11 55 13 38 3 45 6 48 26 2 13 -2
30 -9 38 -10 13 -10 17 2 25 44 28 78 -33 35 -63 -24 -17 17 -24 126 -22 144
3 283 -10 314 -31 47 -30 21 -119 -59 -199 -40 -40 -66 -55 -150 -90 -33 -13
-37 -18 -28 -35 8 -15 7 -20 -5 -25 -25 -9 -133 -7 -153 4 -26 13 -64 -15 -52
-38 14 -26 94 -46 154 -38 115 15 154 24 205 50 43 22 53 32 49 48 -5 16 -2
18 21 13 23 -5 34 2 73 42 55 58 73 87 89 140 11 35 10 49 -9 105 -21 64 -47
96 -102 131 -44 27 -178 55 -254 54 -68 -2 -70 -3 -73 -29 -2 -16 1 -28 7 -28
6 0 11 -6 11 -14 0 -11 -5 -12 -25 -3 -21 10 -24 17 -19 40 6 30 -13 45 -43
31 -23 -10 -53 -12 -254 -20 -148 -5 -169 -4 -204 13 -50 23 -67 63 -40 93 21
24 35 26 35 5 0 -24 13 -18 54 25 69 74 216 125 347 123 99 -2 155 -18 185
-51 54 -61 68 -72 89 -72 40 0 46 19 20 69 -34 64 -53 85 -111 120 -75 45
-175 58 -317 40z m10 -45 c-3 -3 -12 -4 -19 -1 -8 3 -5 6 6 6 11 1 17 -2 13
-5z m-283 -133 c3 -5 -8 -14 -26 -20 -41 -14 -40 -14 -28 9 11 20 44 27 54 11z
m46 -11 c-8 -5 -17 -7 -19 -4 -3 3 1 9 9 14 8 5 17 7 19 4 3 -3 -1 -9 -9 -14z
m-130 -100 c0 -5 -4 -10 -10 -10 -5 0 -10 5 -10 10 0 6 5 10 10 10 6 0 10 -4
10 -10z m378 -122 c-3 -7 -11 -13 -18 -13 -7 0 -15 6 -17 13 -3 7 4 12 17 12
13 0 20 -5 18 -12z m462 -388 c12 -8 11 -10 -7 -10 -13 0 -23 5 -23 10 0 13
11 13 30 0z"/>
<path d="M17522 16273 c-27 -5 -27 -3 2 -148 18 -91 32 -319 22 -358 -5 -20
-22 -35 -64 -56 -32 -16 -76 -48 -99 -71 l-42 -41 -16 25 c-60 91 -301 129
-684 108 -328 -18 -391 -15 -391 22 0 35 193 139 338 182 121 35 209 42 268
19 40 -15 48 -16 61 -3 24 25 19 76 -11 106 -26 26 -30 27 -139 27 -90 -1
-131 -6 -208 -28 -108 -30 -186 -59 -227 -84 -91 -56 -132 -87 -173 -130 -58
-59 -67 -85 -43 -121 27 -41 96 -102 124 -110 40 -11 202 -8 365 7 255 23 509
16 598 -18 59 -23 25 -113 -86 -225 -55 -56 -92 -83 -157 -115 -137 -67 -301
-99 -391 -76 -29 7 -55 -15 -45 -40 12 -33 75 -48 170 -41 217 17 395 88 522
209 86 81 117 132 112 184 -2 21 2 38 8 40 11 4 24 -40 24 -82 0 -28 22 -47
43 -39 20 7 25 31 15 68 -12 45 18 90 93 138 15 9 29 14 33 11 11 -11 6 -88
-9 -147 -18 -69 -13 -96 18 -96 58 0 80 47 93 197 3 46 12 89 18 97 6 7 38 23
71 34 33 11 93 35 132 53 40 18 76 29 80 25 4 -4 -7 -34 -25 -66 -38 -70 -39
-86 -8 -148 30 -60 60 -77 120 -69 73 10 153 76 220 181 25 40 37 24 76 -104
53 -173 100 -240 156 -226 14 4 30 18 36 32 10 22 8 28 -19 57 -24 24 -44 69
-83 190 -55 165 -76 204 -113 209 -19 3 -22 8 -19 46 2 24 -2 50 -8 58 -17 20
-77 18 -108 -5 -42 -28 -142 -70 -197 -81 -27 -6 -85 -17 -128 -25 -44 -8 -99
-24 -124 -35 -25 -11 -49 -17 -54 -14 -5 3 -9 46 -9 95 0 195 -53 393 -103
388 -7 -1 -23 -4 -35 -6z m733 -487 c10 -48 1 -68 -48 -107 -28 -23 -53 -34
-77 -35 -19 -1 -52 -9 -72 -18 -36 -15 -38 -15 -49 5 -9 18 -5 27 38 68 63 61
152 121 180 121 17 0 23 -7 28 -34z"/>
<path d="M19040 16102 c-19 -15 -25 -40 -43 -164 -12 -81 -27 -152 -33 -158
-8 -8 -27 -9 -68 -1 -75 14 -106 2 -106 -39 0 -39 35 -62 98 -64 59 -1 61 -10
28 -116 -31 -97 -32 -111 -8 -140 14 -17 25 -21 44 -17 30 8 41 30 63 132 23
104 27 108 90 102 27 -3 112 -12 187 -21 87 -9 164 -12 212 -7 80 7 99 2 129
-35 42 -53 173 -129 312 -180 50 -18 127 -47 173 -63 118 -44 182 -39 182 14
0 20 -9 26 -67 45 -60 20 -228 88 -272 110 -9 4 -47 23 -84 41 -69 33 -97 59
-97 90 0 17 -60 59 -85 59 -17 0 -54 46 -62 77 -11 44 17 58 110 56 88 -1 134
-14 143 -38 7 -18 -35 -85 -54 -85 -7 0 -11 -4 -7 -9 3 -6 -2 -14 -12 -19 -14
-8 -8 -12 29 -17 38 -6 55 -3 94 16 59 30 76 55 68 100 -14 73 -49 114 -129
151 -43 20 -66 23 -160 23 -84 -1 -118 -5 -142 -18 -65 -35 -77 -80 -44 -168
21 -54 19 -79 -8 -79 -9 0 -53 7 -98 15 -45 8 -132 19 -195 25 -138 14 -148
16 -148 41 0 11 14 74 30 139 17 65 30 132 30 147 0 63 -53 93 -100 55z"/>
<path d="M4140 15671 c0 -16 77 -71 99 -71 12 0 21 4 21 9 0 10 -24 21 -48 21
-10 0 -30 11 -45 25 -15 14 -27 22 -27 16z"/>
<path d="M4595 15630 c4 -6 11 -8 16 -5 14 9 11 15 -7 15 -8 0 -12 -5 -9 -10z"/>
<path d="M4270 15555 c0 -14 5 -25 10 -25 6 0 10 11 10 25 0 14 -4 25 -10 25
-5 0 -10 -11 -10 -25z"/>
<path d="M4568 15518 c23 -23 39 -20 29 7 -4 8 -17 15 -29 15 l-22 0 22 -22z"/>
<path d="M4367 15516 c-7 -18 1 -26 29 -26 31 0 39 17 15 29 -26 15 -38 14
-44 -3z"/>
<path d="M4485 15490 c-3 -5 -17 -10 -31 -10 -15 0 -24 -6 -24 -16 0 -13 7
-15 29 -11 23 5 30 2 34 -14 3 -12 11 -17 21 -13 18 7 20 27 6 55 -12 21 -25
25 -35 9z"/>
<path d="M4280 15470 c0 -11 -4 -20 -10 -20 -5 0 -10 -6 -10 -12 0 -7 11 -13
25 -13 17 0 24 4 20 13 -3 8 -5 22 -5 33 0 10 -4 19 -10 19 -5 0 -10 -9 -10
-20z"/>
<path d="M4600 15466 c0 -9 7 -16 16 -16 17 0 14 22 -4 28 -7 2 -12 -3 -12
-12z"/>
<path d="M4457 15398 c-11 -5 -32 -8 -48 -6 -33 5 -34 -8 -3 -28 16 -11 23 -9
48 12 31 27 32 39 3 22z"/>
<path d="M4320 15393 c0 -5 4 -14 9 -22 7 -11 11 -9 20 8 10 18 9 21 -9 21
-11 0 -20 -3 -20 -7z"/>
<path d="M4555 15387 c-12 -7 -41 -29 -66 -49 -33 -27 -56 -38 -80 -38 l-34 0
35 -19 c34 -18 35 -18 62 2 18 13 35 18 52 13 14 -3 37 -9 51 -12 35 -9 32 12
-6 31 -33 17 -34 38 -3 44 22 4 44 20 44 32 0 12 -30 10 -55 -4z"/>
<path d="M9975 15209 c-253 -4 -545 -9 -650 -13 -104 -3 -266 -8 -360 -11
-376 -12 -765 -25 -850 -30 -49 -3 -274 -12 -500 -20 -225 -8 -495 -19 -600
-25 -104 -5 -246 -12 -315 -15 -69 -3 -159 -8 -200 -10 -41 -3 -187 -12 -325
-20 -137 -9 -335 -22 -440 -31 -104 -8 -239 -17 -300 -21 -60 -3 -116 -10
-122 -15 -19 -15 -5 -30 25 -28 41 3 44 2 31 -21 -7 -14 -17 -19 -30 -16 -13
3 -23 -2 -30 -15 -7 -14 -17 -18 -32 -15 -32 8 -167 -9 -180 -22 -8 -8 -8 -14
1 -23 8 -8 38 -8 119 0 59 7 146 14 193 17 47 3 146 12 220 20 74 8 254 21
400 30 146 8 348 19 450 25 445 25 521 30 630 39 63 5 185 12 270 16 85 3 189
8 230 10 41 3 140 7 220 10 80 3 181 7 225 10 44 3 152 7 240 10 88 3 176 7
195 10 19 2 116 7 215 10 99 4 216 9 260 11 44 3 146 6 227 8 80 2 151 6 156
10 14 8 189 16 196 8 12 -11 79 -12 93 -1 26 22 969 36 1523 23 489 -11 1429
-23 2425 -30 424 -2 859 -6 968 -8 195 -4 199 -3 225 19 15 13 25 26 22 29 -5
5 -89 8 -495 21 -93 3 -420 7 -725 10 -735 7 -1217 14 -1425 20 -93 3 -276 8
-405 10 -129 2 -383 7 -565 10 -523 10 -720 10 -1210 4z"/>
<path d="M4247 15204 c-4 -4 -7 -14 -7 -23 0 -11 3 -12 11 -4 6 6 10 16 7 23
-2 6 -7 8 -11 4z"/>
<path d="M4390 15170 c0 -5 5 -10 10 -10 6 0 10 5 10 10 0 6 -4 10 -10 10 -5
0 -10 -4 -10 -10z"/>
<path d="M4954 15145 c-22 -34 -13 -41 15 -11 14 15 18 26 12 30 -5 4 -18 -5
-27 -19z"/>
<path d="M4861 15139 c-13 -10 -31 -19 -42 -19 -26 0 -33 -17 -10 -29 33 -18
51 -13 51 14 0 13 8 28 17 34 10 5 16 12 13 14 -3 3 -16 -3 -29 -14z"/>
<path d="M15126 15132 c-43 -10 -42 -28 2 -51 33 -17 66 -21 203 -25 90 -3
229 -8 309 -12 381 -15 457 -17 615 -16 161 1 265 14 265 32 0 13 -124 23
-425 36 -60 2 -204 9 -320 14 -115 5 -286 12 -380 15 -93 3 -186 7 -205 9 -19
2 -48 1 -64 -2z"/>
<path d="M17025 15033 c-92 -14 -25 -41 120 -47 160 -7 434 -25 475 -31 19 -3
134 -7 255 -10 121 -2 254 -9 295 -14 41 -5 122 -12 180 -16 58 -3 148 -8 200
-10 52 -3 109 -8 125 -10 17 -2 108 -7 203 -10 95 -3 201 -8 235 -10 34 -2
130 -9 213 -15 82 -6 172 -10 200 -9 27 1 108 -3 179 -10 72 -6 146 -10 165
-9 19 0 55 -3 80 -8 25 -5 65 -7 90 -3 25 3 72 2 105 -2 69 -10 184 -22 203
-20 36 3 57 1 227 -17 55 -6 188 -16 295 -22 107 -6 227 -15 265 -20 39 -5
131 -14 205 -20 74 -6 173 -15 220 -20 47 -5 116 -11 155 -14 38 -3 94 -10
125 -15 30 -5 89 -13 130 -16 41 -3 137 -15 213 -27 76 -11 141 -17 144 -14 3
3 15 0 27 -7 56 -32 307 -35 344 -5 14 12 16 44 2 53 -11 7 -195 26 -287 31
-34 1 -66 4 -70 7 -15 9 -157 28 -243 33 -47 2 -112 8 -145 14 -33 5 -197 21
-365 35 -168 14 -345 29 -395 35 -49 5 -133 12 -185 15 -52 4 -113 9 -135 11
-22 2 -89 6 -150 9 -60 3 -132 8 -160 10 -27 3 -86 7 -130 10 -44 2 -114 7
-155 9 -41 3 -169 10 -285 16 -115 6 -241 12 -280 15 -38 2 -140 7 -225 11
-85 3 -189 8 -230 11 -41 2 -118 6 -170 7 -52 2 -108 6 -125 9 -27 5 -408 21
-495 21 -33 -1 -193 7 -454 21 -60 3 -112 8 -116 10 -3 2 -74 7 -156 10 -82 4
-152 9 -155 11 -5 3 -123 8 -414 18 -66 2 -133 2 -150 -1z"/>
<path d="M14914 15015 c-3 -8 4 -155 15 -327 12 -172 25 -403 31 -513 10 -199
16 -292 45 -725 8 -124 20 -301 25 -395 6 -93 15 -206 20 -250 5 -44 12 -125
15 -180 8 -123 33 -307 43 -316 4 -4 21 -10 39 -14 28 -6 33 -3 38 17 3 13 -1
100 -10 193 -21 235 -53 623 -59 725 -3 47 -13 186 -21 310 -15 233 -50 882
-61 1145 -7 170 -20 320 -29 335 -10 16 -85 12 -91 -5z"/>
<path d="M5126 14991 c-53 -6 -71 -25 -35 -36 13 -4 30 -14 38 -23 13 -13 16
-12 25 7 10 24 33 23 28 -2 -3 -20 35 -32 53 -17 8 7 15 21 15 31 0 20 -37 50
-60 47 -8 0 -37 -4 -64 -7z"/>
<path d="M4908 14964 c-10 -10 -33 -16 -60 -16 -23 0 -108 0 -187 0 -79 1
-152 -3 -162 -9 -10 -5 -42 -9 -71 -8 -29 0 -111 -2 -183 -4 -506 -20 -809
-10 -1157 35 -96 12 -118 5 -118 -36 0 -23 41 -85 65 -98 8 -5 108 -18 222
-30 176 -19 266 -22 583 -22 237 0 421 5 500 13 69 8 139 13 155 13 52 -1 375
27 385 33 16 10 3 22 -30 29 -17 3 -29 10 -26 15 9 14 53 19 99 10 32 -5 44
-4 50 7 10 18 37 18 37 0 0 -15 -10 -19 -67 -31 -69 -14 -22 -41 52 -29 42 6
49 12 46 41 -1 7 10 20 24 29 33 21 32 27 -9 45 -25 11 -38 13 -46 5 -7 -7
-19 -5 -39 7 -36 21 -43 21 -63 1z m-274 -59 c8 -8 21 -15 30 -15 27 0 27 -18
0 -24 -20 -5 -32 -2 -46 14 -10 11 -24 18 -29 14 -6 -3 -22 -3 -37 1 -25 7
-25 8 -7 15 32 14 72 11 89 -5z m-444 -15 c0 -5 -5 -10 -11 -10 -5 0 -7 5 -4
10 3 6 8 10 11 10 2 0 4 -4 4 -10z m590 0 c0 -12 -28 -25 -36 -17 -9 9 6 27
22 27 8 0 14 -5 14 -10z m-460 -64 c0 -3 -4 -8 -10 -11 -5 -3 -10 -1 -10 4 0
6 5 11 10 11 6 0 10 -2 10 -4z"/>
<path d="M7412 14889 c-229 -29 -439 -199 -473 -383 -13 -71 -1 -113 49 -168
133 -147 422 -241 682 -223 190 14 378 59 453 110 112 77 114 246 4 371 -45
52 -169 131 -236 151 -31 9 -92 23 -136 32 -70 14 -80 19 -83 39 -4 30 -40 52
-110 68 -63 15 -60 15 -150 3z m11 -161 c182 19 361 -13 510 -90 150 -78 226
-219 167 -315 -26 -44 -57 -62 -142 -84 -325 -86 -679 -28 -873 143 -51 45
-59 70 -40 134 18 61 100 158 174 205 41 26 45 27 68 12 21 -14 38 -14 136 -5z"/>
<path d="M12815 14874 c-57 -14 -128 -40 -203 -75 -225 -105 -481 -358 -560
-552 -28 -70 -27 -148 3 -210 27 -56 127 -133 204 -157 142 -45 385 -16 604
71 143 57 189 86 290 182 99 95 127 151 127 254 0 91 -16 132 -72 186 -82 80
-196 121 -343 121 -102 1 -179 -18 -215 -51 -13 -13 -12 -17 10 -35 19 -15 32
-18 60 -13 145 29 264 21 357 -25 70 -35 87 -58 96 -132 8 -59 -12 -136 -49
-190 -33 -47 -122 -138 -136 -138 -5 0 -21 -9 -36 -20 -48 -35 -200 -91 -320
-117 -136 -29 -236 -27 -340 6 -104 34 -141 73 -141 151 -1 171 252 464 517
599 62 32 201 64 249 57 49 -6 131 -46 184 -87 41 -32 54 -35 62 -16 29 76
-231 219 -348 191z"/>
<path d="M18039 14814 c-10 -13 -15 -114 -23 -458 -8 -396 -7 -445 7 -479 12
-27 22 -38 34 -35 52 10 65 147 58 608 -5 313 -8 356 -22 368 -22 16 -38 15
-54 -4z"/>
<path d="M5745 14803 c-36 -8 -168 -53 -235 -80 -152 -60 -220 -105 -269 -180
-77 -116 -16 -229 174 -323 171 -85 378 -110 601 -71 206 36 411 116 471 184
42 48 70 154 55 206 -39 128 -175 208 -430 251 -106 19 -312 26 -367 13z m363
-104 c178 -32 253 -60 306 -116 42 -44 52 -84 37 -141 -16 -58 -74 -104 -180
-142 -170 -62 -240 -74 -426 -74 -193 -1 -272 15 -395 80 -159 83 -181 173
-59 249 56 36 206 102 274 121 33 9 80 22 105 29 67 20 207 18 338 -6z"/>
<path d="M4380 14580 c0 -5 5 -10 10 -10 6 0 10 5 10 10 0 6 -4 10 -10 10 -5
0 -10 -4 -10 -10z"/>
<path d="M4230 14545 c0 -10 10 -15 30 -15 20 0 30 5 30 15 0 10 -10 15 -30
15 -20 0 -30 -5 -30 -15z"/>
<path d="M6138 13742 c-37 -10 -84 -31 -105 -46 -21 -15 -69 -48 -108 -73 -38
-25 -111 -87 -161 -137 -140 -140 -214 -269 -214 -375 0 -44 4 -52 39 -84 72
-65 93 -72 221 -72 106 1 121 3 192 33 94 38 85 33 235 122 139 83 241 174
295 266 37 63 46 92 55 162 6 50 -23 103 -81 147 -84 64 -248 90 -368 57z
m271 -80 c46 -23 95 -112 88 -163 -8 -64 -39 -112 -126 -199 -149 -147 -359
-256 -515 -267 -70 -5 -88 -3 -134 17 -29 13 -59 32 -67 44 -48 67 20 204 173
348 93 88 153 123 182 108 25 -14 50 2 50 31 0 30 39 43 138 45 100 2 127 13
116 46 -5 18 -3 19 28 13 18 -4 48 -14 67 -23z"/>
<path d="M7810 13655 c-73 -15 -131 -38 -173 -67 -23 -17 -27 -25 -22 -48 5
-22 2 -31 -12 -39 -11 -5 -41 -27 -67 -49 -95 -78 -156 -205 -156 -322 0 -55
2 -61 47 -110 56 -63 98 -90 180 -118 107 -37 154 -44 303 -43 233 2 461 46
585 115 53 29 64 40 92 97 36 71 39 99 19 177 -41 153 -191 301 -367 364 -161
57 -295 70 -429 43z m88 -45 c-37 -5 -76 -11 -87 -15 -12 -3 -21 -2 -21 4 0
12 37 18 115 18 l60 0 -67 -7z m213 -25 c41 -14 88 -29 104 -34 48 -13 139
-76 185 -128 67 -75 100 -154 100 -238 0 -64 -3 -74 -32 -109 -42 -51 -115
-83 -263 -112 -322 -64 -568 -33 -679 86 -44 47 -46 52 -46 107 0 119 81 232
229 317 90 51 162 71 226 62 49 -8 75 9 75 50 0 30 10 30 101 -1z"/>
<path d="M12850 13482 c-26 -26 -28 -36 -35 -136 -4 -60 -5 -140 -1 -180 10
-115 53 -331 75 -380 17 -40 24 -46 51 -46 49 0 56 30 32 136 -35 153 -47 303
-34 436 12 126 5 170 -28 188 -26 14 -28 13 -60 -18z"/>
<path d="M18520 13484 c-268 -50 -423 -96 -576 -170 -130 -63 -182 -122 -142
-162 21 -21 49 -13 96 29 71 63 251 140 409 175 67 15 95 20 239 45 38 6 87 9
107 5 32 -6 37 -11 37 -35 0 -43 -42 -92 -241 -281 -345 -328 -482 -470 -517
-536 -39 -74 -40 -103 -7 -134 32 -30 114 -38 223 -21 118 19 327 88 422 140
47 26 106 57 131 69 53 25 99 65 99 85 0 7 -6 22 -14 32 -12 17 -21 14 -167
-57 -136 -67 -336 -148 -366 -148 -6 0 -39 -9 -73 -20 -75 -24 -138 -26 -146
-5 -3 8 5 34 19 57 36 60 225 257 359 374 178 155 361 342 387 396 21 45 22
49 6 82 -27 56 -75 79 -175 82 -47 1 -96 0 -110 -2z"/>
<path d="M8537 12534 c-1 -1 -209 -4 -462 -8 -253 -3 -516 -8 -585 -11 -69 -2
-244 -7 -390 -10 -146 -3 -328 -8 -405 -10 -77 -3 -306 -10 -510 -15 -397 -11
-435 -12 -855 -35 -295 -17 -470 -27 -755 -46 -99 -6 -308 -12 -465 -13 -442
-1 -650 17 -760 64 -94 40 -127 46 -151 24 -45 -41 -11 -88 103 -142 72 -34
94 -38 270 -52 295 -24 715 -19 1148 15 107 8 319 22 470 30 151 8 286 17 300
20 14 3 120 9 235 15 116 6 282 15 370 20 227 14 1309 50 2160 71 407 10 1370
6 1590 -6 106 -6 616 -15 1140 -20 1337 -13 1411 -15 2260 -61 50 -2 131 -6
180 -8 50 -2 122 -6 160 -10 229 -19 397 -30 700 -45 121 -6 274 -15 340 -21
250 -23 395 -23 395 0 0 20 -209 44 -365 41 -16 -1 -61 3 -100 9 -38 5 -117
12 -175 15 -113 6 -137 8 -395 30 -182 15 -480 35 -505 34 -8 -1 -58 2 -110 5
-52 3 -144 8 -205 11 -60 3 -124 7 -141 10 -16 3 -91 7 -165 10 -73 3 -188 8
-254 11 -184 9 -271 11 -650 18 -192 4 -386 9 -430 11 -44 3 -305 7 -580 10
-275 3 -646 10 -825 15 -614 19 -1135 29 -1358 27 -123 -1 -224 -2 -225 -3z"/>
<path d="M15292 12270 c7 -22 77 -38 216 -48 75 -5 157 -9 182 -9 43 0 180 -9
285 -19 28 -2 82 -6 120 -9 39 -2 97 -6 130 -10 33 -3 107 -7 165 -9 58 -2
134 -9 169 -16 35 -6 85 -9 110 -5 26 3 58 2 72 -3 14 -6 32 -7 39 -2 9 6 18
3 25 -7 9 -12 16 -13 30 -6 10 6 32 7 52 3 39 -9 115 -1 108 11 -3 4 -22 8
-43 9 -43 0 -95 6 -102 10 -5 3 -12 3 -170 14 -121 8 -266 23 -355 36 -38 6
-115 13 -170 15 -103 4 -134 6 -445 30 -330 26 -423 30 -418 15z"/>
<path d="M15113 12203 c-7 -19 75 -901 117 -1258 5 -44 14 -123 19 -175 6 -52
17 -158 25 -235 25 -220 44 -416 61 -600 9 -93 18 -183 20 -200 3 -16 12 -115
21 -220 25 -287 30 -339 38 -356 4 -9 0 -25 -11 -38 -18 -21 -19 -22 -88 -7
-52 11 -195 16 -565 21 -272 4 -529 9 -570 10 -560 19 -2071 27 -2455 13 -110
-4 -270 -10 -355 -13 -85 -3 -186 -8 -225 -11 -38 -3 -160 -10 -270 -15 -280
-13 -516 -29 -750 -49 -60 -5 -175 -14 -255 -20 -226 -17 -256 -19 -400 -35
-74 -9 -175 -18 -225 -21 -49 -2 -117 -9 -150 -14 -33 -6 -109 -14 -170 -20
-60 -5 -155 -14 -210 -19 -55 -5 -176 -16 -270 -25 -93 -9 -219 -21 -280 -27
-60 -6 -148 -12 -195 -15 -47 -2 -146 -11 -220 -18 -74 -8 -198 -20 -275 -26
-77 -6 -178 -16 -225 -21 -47 -6 -114 -12 -150 -15 -99 -6 -579 -57 -885 -94
-88 -11 -241 -29 -340 -40 -99 -11 -236 -27 -305 -35 -69 -9 -197 -22 -285
-30 -88 -8 -266 -26 -395 -41 -186 -21 -285 -27 -475 -28 l-240 -1 -3 -28 c-4
-32 19 -64 57 -79 31 -11 307 -11 436 1 55 5 179 17 275 25 178 16 304 29 465
46 50 6 160 17 245 25 85 8 225 24 310 34 85 11 216 27 290 36 74 9 167 20
205 25 39 5 131 14 205 20 74 6 180 18 235 25 55 8 163 19 240 25 77 6 163 15
190 20 28 5 97 12 155 15 57 3 113 8 125 10 11 3 76 10 145 15 238 20 355 30
450 40 52 5 151 15 220 20 69 6 139 13 155 15 31 5 232 26 430 45 61 6 144 14
185 20 72 8 190 20 275 26 22 1 63 5 90 9 28 3 66 8 86 9 20 2 43 7 50 11 7 5
45 8 83 8 39 -1 101 5 138 13 36 7 111 16 165 19 54 3 121 9 148 15 28 5 61 9
75 9 14 0 54 2 90 5 272 22 671 46 679 41 4 -2 38 0 76 5 39 5 149 11 245 14
96 4 213 9 260 12 425 26 1850 31 2719 9 539 -13 874 -15 944 -4 40 6 97 12
127 13 l55 1 -3 50 c-1 28 -7 100 -12 160 -5 61 -12 148 -15 195 -3 47 -15
175 -25 285 -11 110 -26 272 -35 360 -8 88 -28 288 -45 445 -56 538 -69 665
-84 845 -9 99 -23 250 -31 335 -8 85 -20 211 -27 280 -14 161 -18 170 -63 170
-25 0 -38 -5 -42 -17z"/>
<path d="M12755 12200 c-51 -13 -106 -40 -111 -55 -3 -7 0 -23 6 -35 12 -23
27 -23 104 -4 27 7 28 6 15 -17 -10 -18 -13 -77 -13 -224 -1 -220 11 -288 61
-374 107 -183 291 -211 517 -79 172 101 256 233 256 401 -1 158 -90 252 -319
331 -159 55 -413 83 -516 56z m307 -96 c174 -33 280 -71 360 -132 90 -68 98
-175 24 -327 -40 -81 -100 -136 -204 -187 -131 -65 -243 -44 -309 55 -55 82
-63 127 -63 352 0 187 -2 204 -20 228 -11 14 -20 28 -20 32 0 10 133 -2 232
-21z"/>
<path d="M6580 12179 c-25 -5 -65 -19 -90 -32 -41 -20 -51 -22 -120 -13 -97
12 -195 -2 -325 -47 -213 -73 -327 -152 -380 -264 -37 -78 -34 -143 11 -231
68 -132 161 -211 310 -262 261 -90 755 -53 1049 80 11 4 25 10 30 12 6 2 45
22 87 46 253 142 309 325 151 493 -100 107 -243 179 -423 213 -88 17 -227 19
-300 5z m185 -64 c297 -47 515 -200 515 -363 0 -123 -136 -233 -394 -317 -158
-51 -282 -69 -501 -69 -221 -1 -299 13 -432 75 -103 49 -161 111 -199 215 -38
104 -23 158 63 234 89 78 247 137 429 161 101 14 139 8 147 -20 6 -25 50 -53
70 -46 8 4 17 16 20 27 5 17 11 19 46 13 22 -4 49 -4 61 0 30 9 26 51 -7 72
l-26 17 24 7 c25 8 117 4 184 -6z"/>
<path d="M17037 12143 c-14 -13 6 -23 46 -23 28 1 37 3 27 9 -23 13 -66 21
-73 14z"/>
<path d="M17280 12106 c0 -2 7 -9 15 -16 12 -10 15 -10 15 4 0 9 -7 16 -15 16
-8 0 -15 -2 -15 -4z"/>
<path d="M17468 12073 c7 -3 16 -2 19 1 4 3 -2 6 -13 5 -11 0 -14 -3 -6 -6z"/>
<path d="M8655 12049 c-17 -4 -43 -21 -57 -36 l-26 -28 -6 -315 c-3 -173 -10
-355 -16 -405 -21 -172 -10 -305 27 -319 9 -4 21 -2 27 4 12 12 57 358 81 615
8 94 25 237 36 318 25 181 21 192 -66 166z"/>
<path d="M18085 12020 c-8 -13 20 -24 36 -15 8 6 7 10 -2 16 -18 11 -26 11
-34 -1z"/>
<path d="M19020 11899 c0 -5 5 -7 10 -4 6 3 10 8 10 11 0 2 -4 4 -10 4 -5 0
-10 -5 -10 -11z"/>
<path d="M19075 11890 c3 -5 13 -10 21 -10 8 0 14 5 14 10 0 6 -9 10 -21 10
-11 0 -17 -4 -14 -10z"/>
<path d="M19750 11813 c0 -19 26 -33 62 -33 27 0 38 4 38 15 0 10 -10 15 -27
15 -16 0 -38 3 -50 6 -13 4 -23 2 -23 -3z"/>
<path d="M19870 11780 c0 -4 18 -7 40 -8 22 -1 40 2 40 6 0 4 -18 8 -40 8 -22
1 -40 -2 -40 -6z"/>
<path d="M19964 11781 c10 -16 110 -43 161 -43 25 0 47 -4 50 -8 3 -5 16 -5
29 1 18 9 29 7 49 -5 13 -9 40 -16 58 -15 19 1 78 -6 131 -15 107 -18 188 -21
188 -7 0 4 -19 11 -42 14 -24 3 -54 8 -68 11 -72 16 -88 19 -125 22 -122 9
-178 16 -250 28 -138 25 -188 29 -181 17z"/>
<path d="M18193 11675 c-310 -64 -537 -138 -553 -181 -11 -28 -5 -50 16 -58 8
-3 50 12 93 34 43 21 118 50 167 64 136 39 433 100 489 100 l50 1 -1 -37 c-2
-47 -36 -92 -219 -287 -184 -197 -211 -246 -165 -304 39 -50 94 -51 265 -5
140 37 201 56 260 80 33 14 115 47 183 74 121 47 148 67 136 98 -14 36 -52 30
-197 -32 -187 -79 -433 -162 -502 -169 -54 -6 -55 -5 -55 19 0 33 21 60 150
193 122 126 208 231 240 292 47 91 -12 154 -144 152 -28 0 -124 -15 -213 -34z"/>
<path d="M20695 11691 l-30 -6 43 -14 c23 -8 45 -11 48 -8 7 7 -14 38 -25 36
-3 -1 -19 -4 -36 -8z"/>
<path d="M20790 11666 c0 -13 12 -16 53 -16 28 0 79 -5 112 -11 33 -7 74 -13
90 -14 17 -1 38 -5 47 -9 17 -8 38 -1 38 13 0 10 -84 31 -128 31 -21 0 -42 3
-45 7 -4 4 -43 8 -87 10 -67 4 -80 2 -80 -11z"/>
<path d="M21155 11631 c-7 -12 12 -24 39 -27 32 -3 173 -23 246 -34 36 -6 89
-13 118 -15 72 -7 224 -31 352 -55 58 -11 128 -22 155 -24 28 -3 72 -10 98
-16 27 -5 52 -8 57 -5 5 3 37 -2 72 -10 35 -8 90 -15 124 -15 33 0 85 -4 115
-10 114 -20 309 -42 324 -36 21 7 19 43 -2 54 -16 8 -117 20 -243 28 -73 5
-220 22 -290 34 -36 6 -87 12 -115 14 -58 4 -117 12 -195 26 -121 22 -345 46
-507 54 -46 3 -88 8 -94 11 -6 4 -32 9 -57 11 -26 3 -77 9 -114 14 -81 12 -76
12 -83 1z"/>
<path d="M13034 10987 l-27 -23 17 -65 c18 -72 61 -509 71 -724 3 -77 2 -230
-4 -340 -8 -169 -7 -203 5 -222 20 -32 33 -29 51 15 47 111 64 462 39 783 -40
512 -44 537 -82 576 -29 29 -36 29 -70 0z"/>
<path d="M18490 10590 c-101 -25 -241 -39 -434 -45 -159 -4 -175 -8 -176 -41
0 -7 8 -22 18 -34 l18 -23 180 12 c177 12 287 28 394 56 70 19 70 19 70 -3 0
-26 -42 -62 -153 -131 -107 -66 -227 -159 -251 -192 -18 -26 -9 -56 25 -81 13
-10 65 -25 114 -33 50 -9 133 -30 185 -47 52 -17 133 -41 180 -52 139 -34 129
-50 -117 -181 -133 -71 -194 -97 -292 -125 -135 -39 -168 -62 -136 -94 78 -78
795 264 795 379 0 37 -30 52 -165 85 -71 18 -156 42 -190 55 -70 28 -120 41
-192 50 -61 8 -89 25 -80 49 4 9 34 33 67 54 95 58 334 236 358 267 27 34 28
49 2 75 -26 26 -115 26 -220 0z"/>
<path d="M6760 10530 c-19 -4 -52 -14 -74 -23 -35 -16 -42 -16 -85 -1 -26 9
-79 16 -121 16 -244 1 -498 -237 -615 -576 -43 -128 -22 -192 82 -249 83 -44
155 -59 295 -58 151 0 249 12 467 57 391 81 635 202 672 334 43 154 -30 310
-188 402 -140 82 -317 122 -433 98z m153 -71 c90 -13 166 -48 237 -108 68 -57
73 -63 110 -135 74 -145 12 -257 -185 -336 -186 -75 -425 -127 -692 -151 -260
-23 -453 37 -453 141 0 84 122 310 218 406 93 92 191 147 291 163 87 13 120 5
137 -35 31 -75 102 -83 96 -11 -3 29 1 38 19 48 58 30 111 35 222 18z"/>
<path d="M8813 10423 c-44 -9 -48 -27 -23 -116 33 -115 41 -361 22 -652 -7
-121 -11 -272 -8 -336 8 -181 43 -290 83 -258 10 9 13 56 13 203 0 105 4 229
10 276 46 409 44 791 -6 868 -14 22 -37 26 -91 15z"/>
<path d="M24300 9780 c0 -5 5 -10 10 -10 6 0 10 5 10 10 0 6 -4 10 -10 10 -5
0 -10 -4 -10 -10z"/>
<path d="M24290 9579 c0 -5 5 -7 10 -4 6 3 10 8 10 11 0 2 -4 4 -10 4 -5 0
-10 -5 -10 -11z"/>
<path d="M15558 9113 c-73 -8 -36 -36 63 -48 30 -3 358 -8 729 -11 677 -4 895
-8 1090 -19 58 -3 125 -6 150 -7 25 0 178 -7 340 -15 162 -9 322 -17 355 -18
33 -2 112 -8 175 -14 222 -21 362 -31 369 -26 5 2 23 0 42 -5 19 -5 93 -11
164 -15 72 -3 200 -10 285 -16 189 -12 366 -21 440 -21 30 0 61 -4 67 -10 7
-6 23 -8 37 -4 13 3 70 1 127 -5 179 -20 323 -19 304 0 -4 3 -23 7 -43 8 -117
5 -173 12 -186 22 -15 12 -244 19 -263 8 -6 -4 -14 -3 -17 2 -11 18 -90 27
-306 36 -58 3 -116 7 -130 11 -25 6 -44 8 -253 18 -60 3 -112 8 -116 10 -4 3
-43 6 -87 7 -43 1 -131 5 -194 10 -269 19 -376 26 -520 33 -63 3 -142 8 -175
11 -33 3 -96 7 -140 9 -44 3 -123 7 -175 11 -52 3 -147 7 -210 9 -63 2 -173 7
-245 10 -257 13 -1595 28 -1677 19z"/>
<path d="M24437 9102 c-31 -34 -16 -52 27 -36 19 7 21 54 3 54 -8 0 -21 -8
-30 -18z"/>
<path d="M15462 9038 c-7 -7 -18 -13 -25 -13 -7 0 -13 -15 -15 -32 -3 -27 15
-340 33 -588 11 -156 26 -376 35 -535 6 -96 13 -209 16 -250 8 -92 11 -134 18
-273 3 -60 8 -113 11 -117 3 -5 8 -67 10 -137 2 -70 9 -171 15 -223 13 -114
23 -259 21 -317 -1 -30 3 -44 15 -51 17 -9 17 -11 0 -27 -11 -12 -15 -25 -11
-39 4 -12 8 -49 10 -84 12 -199 37 -527 40 -532 2 -4 6 -50 9 -102 3 -53 9
-104 13 -115 11 -29 32 -45 50 -39 17 7 17 -4 -6 316 -12 150 -16 217 -31 495
-6 105 -14 231 -20 280 -12 116 -19 212 -25 355 -3 63 -8 140 -10 170 -3 30
-10 150 -16 265 -6 116 -13 228 -14 250 -2 22 -8 121 -14 220 -6 99 -16 248
-21 330 -5 83 -12 202 -15 265 -6 134 -22 370 -31 452 -7 67 -23 95 -42 76z"/>
<path d="M20316 8891 c-12 -19 4 -31 42 -31 20 0 43 -4 51 -9 9 -6 23 -5 37 1
17 8 35 6 73 -8 28 -10 53 -15 57 -12 10 11 -6 28 -26 28 -10 0 -20 6 -23 13
-2 8 -28 12 -78 12 -41 1 -86 4 -100 9 -17 5 -29 4 -33 -3z"/>
<path d="M24427 8894 c-4 -4 -7 -15 -7 -25 0 -15 4 -16 30 -6 17 6 29 16 27
22 -4 12 -40 19 -50 9z"/>
<path d="M20600 8870 c0 -5 5 -10 10 -10 6 0 10 5 10 10 0 6 -4 10 -10 10 -5
0 -10 -4 -10 -10z"/>
<path d="M20695 8870 c-10 -16 17 -36 59 -44 29 -6 37 -4 34 6 -3 7 -15 13
-27 13 -13 0 -27 8 -32 18 -11 19 -25 22 -34 7z"/>
<path d="M20850 8851 c0 -5 -8 -7 -19 -4 -10 3 -22 0 -25 -6 -5 -7 4 -11 23
-11 17 0 31 -5 31 -10 0 -7 7 -7 21 0 16 9 18 14 8 26 -13 16 -39 19 -39 5z"/>
<path d="M21048 8837 c-22 -17 -7 -42 21 -34 12 3 23 1 26 -3 3 -5 31 -8 63
-6 31 2 69 -1 85 -6 26 -10 85 -3 74 9 -11 11 -153 30 -194 25 -35 -3 -43 -1
-43 12 0 19 -9 20 -32 3z"/>
<path d="M21425 8794 c9 -9 18 -14 21 -11 9 9 -6 27 -22 27 -13 0 -13 -2 1
-16z"/>
<path d="M21378 8785 c13 -9 26 -14 29 -11 8 8 3 12 -27 21 l-25 7 23 -17z"/>
<path d="M21550 8770 c0 -13 7 -20 20 -20 23 0 26 10 8 28 -18 18 -28 15 -28
-8z"/>
<path d="M21705 8770 c-9 -15 4 -30 26 -30 11 0 30 -5 42 -12 12 -6 56 -13 97
-14 41 -1 94 -9 117 -17 28 -10 45 -11 52 -4 7 7 14 7 23 0 7 -6 36 -13 63
-17 118 -14 165 -17 165 -12 0 3 -19 15 -42 26 -30 15 -70 23 -132 26 -50 3
-96 10 -104 17 -9 7 -43 13 -76 14 -89 2 -159 12 -170 23 -13 13 -53 13 -61 0z"/>
<path d="M21640 8760 c0 -5 4 -10 9 -10 6 0 13 5 16 10 3 6 -1 10 -9 10 -9 0
-16 -4 -16 -10z"/>
<path d="M18007 8703 c-14 -14 -6 -72 21 -154 32 -93 35 -112 94 -559 12 -98
29 -133 61 -128 40 6 48 42 42 173 -17 335 -72 608 -132 655 -25 19 -73 27
-86 13z"/>
<path d="M22310 8680 c-13 -9 -13 -11 0 -20 8 -6 25 -8 36 -5 14 3 24 -1 28
-10 3 -9 18 -15 38 -15 18 1 50 -2 71 -6 29 -5 37 -3 37 9 0 18 -49 39 -98 42
-20 1 -37 3 -37 4 0 8 -63 8 -75 1z"/>
<path d="M8845 8475 c-114 -25 -265 -107 -265 -144 0 -35 18 -33 97 13 106 61
171 85 251 92 59 5 79 2 162 -26 110 -37 157 -62 260 -140 113 -86 223 -207
265 -290 72 -144 95 -316 49 -377 -38 -51 -88 -68 -199 -68 -114 1 -191 19
-302 73 -135 65 -231 159 -274 269 -19 49 -23 77 -23 183 0 129 11 192 42 230
24 30 41 20 94 -54 49 -67 67 -76 159 -76 53 0 68 22 44 67 -24 45 -103 115
-158 142 -60 29 -147 28 -212 -3 -69 -32 -94 -62 -104 -127 -10 -61 -5 -220 9
-292 53 -264 340 -469 694 -496 124 -10 184 0 269 47 126 68 164 184 118 363
-62 244 -300 487 -571 584 -120 42 -291 55 -405 30z"/>
<path d="M13339 8411 c-46 -14 -69 -31 -69 -51 0 -25 15 -28 150 -28 178 -1
377 -59 534 -156 162 -102 204 -203 143 -348 -39 -91 -204 -202 -369 -248
-127 -35 -191 -42 -298 -30 -197 22 -348 114 -407 250 -19 44 -21 133 -4 184
33 95 164 186 269 186 67 0 153 -30 199 -70 50 -45 82 -58 94 -39 25 40 -1 88
-79 140 -158 107 -368 97 -497 -22 -117 -108 -144 -279 -69 -433 83 -171 303
-278 569 -280 133 0 187 11 339 71 161 64 248 124 321 224 78 105 77 243 -2
346 -127 167 -464 315 -710 312 -49 0 -100 -4 -114 -8z"/>
<path d="M6643 8268 l-55 -53 6 -75 c4 -41 9 -208 11 -370 8 -554 17 -645 61
-677 45 -33 89 0 64 48 -21 38 -24 280 -7 484 9 105 19 231 22 280 3 50 13
154 21 233 15 135 15 145 -2 163 -29 32 -60 23 -121 -33z"/>
<path d="M24382 7690 c-23 -19 -23 -19 -3 -30 12 -6 39 -9 61 -8 34 3 40 6 40
26 0 17 -6 22 -24 22 -13 0 -30 2 -38 5 -7 2 -23 -4 -36 -15z"/>
<path d="M13441 7194 c-41 -52 -38 -85 38 -474 17 -85 42 -220 56 -300 15 -80
34 -161 43 -180 19 -39 51 -50 72 -25 21 25 13 96 -41 401 -28 159 -59 351
-68 427 -13 100 -23 143 -36 157 -24 27 -39 25 -64 -6z"/>
<path d="M18510 7196 c-344 -71 -524 -106 -599 -117 -46 -7 -90 -19 -97 -27
-20 -19 -17 -46 5 -66 18 -16 24 -16 83 -2 73 18 691 141 758 151 64 9 85 -9
81 -71 -2 -33 -116 -181 -196 -254 -102 -94 -193 -172 -223 -192 -50 -33 -47
-93 5 -103 74 -15 154 -38 213 -62 79 -31 156 -53 191 -53 15 0 37 -9 50 -19
l24 -19 -21 -28 c-11 -15 -63 -50 -115 -77 -166 -87 -322 -164 -399 -196 -101
-42 -140 -67 -140 -90 0 -58 52 -46 296 68 315 147 346 165 457 270 62 60 71
88 37 119 -21 19 -122 52 -162 52 -28 0 -275 85 -294 101 -28 23 -14 47 56 98
240 175 395 404 324 482 -54 60 -159 71 -334 35z"/>
<path d="M9095 7038 c-67 -58 -180 -332 -227 -553 -15 -69 -22 -137 -22 -220
-1 -113 1 -123 26 -167 46 -78 228 -181 367 -209 135 -26 321 3 450 73 24 12
55 29 70 37 103 55 210 166 256 264 48 102 61 177 48 274 -14 106 -51 178
-137 267 -109 111 -235 174 -401 198 -80 11 -119 9 -273 -19 -32 -5 -33 -4
-26 21 16 67 -69 89 -131 34z m476 -138 c77 -29 194 -106 240 -158 23 -26 56
-76 73 -112 28 -59 31 -74 31 -160 -1 -154 -55 -277 -157 -356 -139 -107 -240
-145 -392 -146 -108 -1 -179 17 -282 74 -85 46 -119 90 -135 172 -21 114 34
335 142 576 43 94 42 94 85 103 182 39 307 41 395 7z"/>
<path d="M7060 7010 c-34 -34 -39 -51 -100 -380 -24 -131 -65 -343 -80 -410
-12 -55 -36 -193 -56 -320 -8 -52 -17 -147 -21 -211 -6 -112 -5 -116 17 -132
40 -28 48 -14 49 91 1 118 27 264 121 677 11 50 39 178 61 285 23 107 52 229
65 270 13 41 24 86 24 101 0 49 -44 65 -80 29z"/>
<path d="M24323 6643 c-18 -7 -16 -30 3 -37 9 -3 31 -6 49 -6 60 0 116 38 63
42 -77 5 -104 5 -115 1z"/>
<path d="M12327 5693 c-2 -1 -196 -4 -432 -8 -1202 -16 -1268 -17 -1645 -37
-118 -6 -233 -12 -255 -13 -98 -4 -267 -17 -345 -26 -47 -5 -139 -14 -205 -18
-66 -5 -181 -16 -255 -25 -74 -8 -157 -18 -185 -20 -117 -13 -253 -29 -465
-55 -86 -11 -231 -28 -305 -36 -194 -22 -318 -37 -360 -45 -27 -6 -79 -12
-115 -14 -36 -3 -130 -14 -210 -26 -80 -11 -208 -27 -285 -35 -161 -16 -213
-23 -570 -70 -1006 -134 -1253 -162 -1925 -224 -471 -44 -564 -51 -880 -69
-278 -17 -285 -18 -288 -38 -4 -27 51 -81 94 -93 17 -5 53 -5 80 -1 27 5 153
14 279 20 409 19 1189 88 1590 139 313 41 505 66 720 96 138 19 383 51 545 70
162 20 327 41 365 45 39 5 144 18 235 29 91 11 239 30 330 41 91 12 199 25
240 30 129 16 366 49 391 54 13 4 87 13 164 22 77 8 176 20 220 25 44 5 114
14 155 19 41 5 100 13 130 18 30 6 99 13 153 16 54 3 106 10 115 15 9 4 64 11
122 15 58 4 143 11 190 16 47 5 114 12 150 16 36 3 79 7 95 10 17 2 73 6 125
8 99 5 135 9 185 19 17 4 116 9 220 13 105 4 208 8 230 9 22 1 227 5 455 9
228 4 498 9 600 11 898 22 1604 26 1980 12 124 -5 236 -9 250 -9 14 0 97 -4
185 -9 88 -5 198 -11 245 -14 240 -13 404 -25 485 -34 50 -6 128 -13 175 -17
47 -3 103 -8 125 -10 57 -5 116 -10 226 -19 74 -6 98 -5 104 5 13 22 -20 37
-97 44 -40 3 -98 9 -128 12 -30 3 -66 7 -80 8 -14 1 -45 5 -70 9 -126 21 -898
81 -1190 93 -303 12 -537 16 -1058 18 -332 1 -604 0 -605 -1z"/>
<path d="M24300 5595 c9 -10 9 -15 1 -15 -6 0 -11 -5 -11 -10 0 -7 19 -10 45
-9 86 5 87 32 1 43 -42 5 -47 4 -36 -9z"/>
<path d="M15638 5522 c-16 -2 -28 -8 -28 -14 0 -6 10 -8 24 -4 16 4 30 0 40
-9 19 -20 38 -19 34 1 -4 20 -33 31 -70 26z"/>
<path d="M15809 5494 c-6 -7 -1 -15 15 -22 31 -14 132 -32 171 -30 44 1 199
-11 280 -24 39 -5 106 -12 150 -14 92 -3 139 -9 156 -20 6 -3 41 -8 78 -10
102 -5 169 -12 178 -17 4 -2 61 -4 125 -3 65 1 118 -2 118 -5 0 -11 50 -28 65
-23 23 9 18 23 -12 30 -16 3 -37 9 -48 14 -35 15 -79 18 -130 10 -35 -5 -58
-4 -75 5 -14 7 -72 16 -130 20 -58 4 -130 11 -160 17 -30 6 -82 11 -115 12
-33 2 -71 6 -85 9 -14 4 -54 9 -90 11 -36 3 -80 10 -98 17 -18 6 -39 9 -47 5
-8 -3 -56 2 -107 11 -113 19 -226 22 -239 7z"/>
<path d="M15681 5419 c-19 -8 -22 -14 -16 -37 4 -15 7 -34 7 -42 -3 -45 0
-224 3 -230 8 -13 29 -953 24 -1035 -3 -30 -3 -139 -1 -185 1 -20 1 -136 0
-235 -7 -543 12 -1309 41 -1655 5 -63 13 -160 16 -215 4 -55 8 -107 10 -115 3
-8 13 -148 24 -310 19 -272 24 -390 36 -760 7 -222 14 -379 21 -492 l6 -108
28 0 c27 0 47 28 39 55 -3 13 -6 74 -13 264 -3 90 -10 159 -17 167 -6 7 -8 18
-4 23 7 12 7 234 0 391 -2 58 -7 164 -10 235 -2 72 -7 147 -10 169 -3 21 -12
131 -20 245 -9 113 -20 253 -25 311 -6 58 -12 141 -15 185 -2 44 -7 127 -11
185 -3 58 -7 143 -9 190 -12 426 -16 722 -21 1535 -2 517 -6 981 -9 1030 -7
156 -25 395 -31 420 -7 27 -8 28 -43 14z"/>
<path d="M17200 5344 c0 -22 19 -26 142 -29 101 -3 117 -1 96 9 -13 7 -41 13
-63 14 -22 1 -70 6 -107 10 -53 7 -68 6 -68 -4z"/>
<path d="M17474 5329 c-3 -6 -2 -14 2 -19 12 -11 269 -41 288 -34 9 4 22 2 29
-4 12 -9 134 -18 322 -23 123 -3 155 -1 155 11 0 12 -42 19 -150 26 -147 9
-183 12 -241 19 -97 10 -251 18 -311 16 -31 -1 -59 3 -63 9 -8 13 -22 13 -31
-1z"/>
<path d="M18817 5232 c-34 -7 -11 -27 44 -39 30 -6 80 -12 112 -12 50 -1 57 1
57 18 0 14 -9 20 -37 23 -21 3 -47 1 -58 -4 -14 -6 -34 -5 -60 4 -22 8 -48 12
-58 10z"/>
<path d="M19053 5204 c-12 -31 15 -38 156 -36 89 2 97 4 86 22 -5 8 -23 10
-54 6 -30 -4 -65 -1 -97 9 -63 19 -83 19 -91 -1z"/>
<path d="M19332 5188 c-33 -16 -21 -33 24 -33 21 0 47 -4 56 -9 18 -8 58 8 58
24 0 11 -2 11 -40 15 -14 1 -36 5 -50 8 -14 3 -35 1 -48 -5z"/>
<path d="M19515 5161 c-3 -5 -1 -12 5 -16 12 -7 30 2 30 16 0 12 -27 12 -35 0z"/>
<path d="M19696 5154 c-4 -9 1 -14 14 -14 23 0 27 15 6 23 -8 3 -17 -1 -20 -9z"/>
<path d="M18435 5137 c-91 -31 -152 -71 -236 -157 -109 -111 -152 -172 -153
-218 -1 -29 3 -37 21 -41 l22 -6 -25 -60 c-65 -158 -88 -355 -55 -482 15 -62
59 -126 104 -153 41 -25 139 -27 199 -3 158 61 321 231 430 446 58 117 78 191
78 296 -1 162 -29 280 -78 324 -54 49 -229 80 -307 54z m190 -94 c69 -43 84
-89 86 -253 1 -155 -33 -262 -133 -409 -110 -163 -210 -253 -317 -285 -49 -14
-57 -14 -78 -1 -34 23 -50 53 -64 123 -26 139 13 364 89 505 24 44 111 117
141 117 6 0 15 9 21 19 20 38 -54 62 -95 31 -17 -13 -58 -16 -62 -4 -11 33
113 126 215 161 91 31 144 30 197 -4z"/>
<path d="M19608 5143 c7 -3 16 -2 19 1 4 3 -2 6 -13 5 -11 0 -14 -3 -6 -6z"/>
<path d="M19816 5142 c-3 -6 -1 -14 5 -17 15 -10 25 3 12 16 -7 7 -13 7 -17 1z"/>
<path d="M19900 5136 c0 -9 5 -16 10 -16 6 0 10 4 10 9 0 6 -4 13 -10 16 -5 3
-10 -1 -10 -9z"/>
<path d="M20110 5130 c0 -5 9 -10 21 -10 11 0 17 5 14 10 -3 6 -13 10 -21 10
-8 0 -14 -4 -14 -10z"/>
<path d="M22095 5010 c-3 -5 1 -10 9 -10 9 0 16 5 16 10 0 6 -4 10 -9 10 -6 0
-13 -4 -16 -10z"/>
<path d="M9584 4891 c-22 -10 -51 -31 -63 -47 -20 -25 -22 -37 -18 -89 2 -33
21 -114 42 -180 66 -213 68 -225 121 -575 13 -87 28 -167 41 -213 7 -26 62
-87 78 -87 23 0 27 36 16 132 -5 51 -12 145 -16 208 -7 131 -36 373 -66 535
-10 61 -24 148 -30 195 -11 84 -22 118 -43 132 -15 10 -15 10 -62 -11z"/>
<path d="M14025 4850 c-48 -9 -84 -21 -173 -61 -23 -10 -49 -19 -58 -19 -8 0
-17 -7 -20 -15 -4 -8 -14 -15 -24 -15 -9 0 -29 -9 -43 -20 -14 -11 -30 -20
-35 -20 -16 0 -110 -89 -117 -110 -7 -23 11 -60 29 -60 8 0 21 11 29 24 27 40
166 146 193 146 13 0 24 -5 24 -11 0 -6 -31 -43 -69 -81 -125 -126 -163 -206
-165 -343 0 -68 4 -90 28 -143 49 -107 156 -180 296 -203 78 -13 176 -2 290
32 163 49 340 177 397 286 42 80 57 151 50 242 -8 111 -39 184 -107 253 -60
59 -100 81 -190 104 -71 17 -271 26 -335 14z m320 -94 c94 -25 130 -52 178
-136 48 -84 46 -254 -4 -358 -63 -129 -293 -256 -490 -269 -135 -10 -269 49
-313 136 -65 127 31 392 162 447 19 8 43 14 53 14 22 0 35 41 21 66 -6 10 -25
23 -43 29 -67 23 -40 44 86 69 91 18 286 20 350 2z"/>
<path d="M24065 4780 c-8 -13 4 -32 16 -25 12 8 12 35 0 35 -6 0 -13 -4 -16
-10z"/>
<path d="M7195 4761 c-35 -15 -45 -46 -85 -261 -13 -70 -11 -236 4 -335 8 -49
19 -137 25 -195 43 -393 57 -487 76 -516 27 -41 95 -39 95 4 0 8 -8 29 -19 46
-12 20 -21 60 -25 111 -57 728 -58 791 -21 940 27 106 26 165 -3 198 -17 19
-18 19 -47 8z"/>
<path d="M24056 4664 c-4 -10 -1 -14 6 -12 15 5 23 28 10 28 -5 0 -13 -7 -16
-16z"/>
<path d="M24050 4570 c0 -5 5 -10 10 -10 6 0 10 5 10 10 0 6 -4 10 -10 10 -5
0 -10 -4 -10 -10z"/>
<path d="M24053 4383 c-17 -6 -16 -28 2 -43 13 -11 15 -8 15 19 0 17 -1 31 -2
30 -2 0 -9 -3 -15 -6z"/>
<path d="M24040 4074 c0 -14 4 -23 10 -19 6 3 10 15 10 26 0 10 -4 19 -10 19
-5 0 -10 -12 -10 -26z"/>
<path d="M24030 3730 c0 -5 5 -10 11 -10 5 0 7 5 4 10 -3 6 -8 10 -11 10 -2 0
-4 -4 -4 -10z"/>
<path d="M18339 3418 c-7 -13 -17 -91 -22 -175 -8 -127 -7 -174 7 -285 42
-321 57 -447 80 -673 14 -132 32 -296 40 -365 8 -69 18 -159 21 -200 4 -41 11
-85 16 -98 l9 -23 26 31 c26 31 27 32 20 143 -4 62 -9 153 -11 202 -2 50 -7
113 -10 140 -3 28 -7 86 -10 130 -3 44 -8 105 -11 135 -3 30 -7 96 -9 145 -1
50 -9 144 -18 210 -39 305 -44 450 -21 626 5 41 3 49 -17 63 -34 24 -76 21
-90 -6z"/>
<path d="M14376 3357 c-42 -42 -50 -94 -36 -257 6 -80 18 -192 26 -250 7 -58
30 -231 49 -385 19 -154 42 -327 50 -385 13 -96 18 -144 30 -300 8 -113 35
-265 50 -279 44 -44 51 76 22 359 -10 91 -31 316 -47 500 -17 184 -37 394 -46
465 -8 72 -18 211 -20 310 -6 209 -8 221 -34 235 -16 9 -25 6 -44 -13z"/>
<path d="M6983 2855 c-12 -8 -24 -27 -27 -43 -16 -69 -36 -230 -47 -362 -12
-151 -13 -135 30 -455 7 -55 34 -104 46 -85 4 7 6 64 4 128 -8 255 -3 351 30
527 48 265 39 342 -36 290z"/>
<path d="M10018 2837 c-16 -13 -28 -29 -28 -36 0 -7 -5 -22 -12 -34 -23 -42
-24 -415 -1 -540 38 -210 100 -636 110 -752 6 -79 12 -95 33 -95 11 0 22 10
26 23 19 57 18 421 -2 637 -15 171 -18 299 -14 608 3 140 1 156 -17 180 -26
35 -61 38 -95 9z"/>
<path d="M23960 2590 c0 -5 5 -10 10 -10 6 0 10 5 10 10 0 6 -4 10 -10 10 -5
0 -10 -4 -10 -10z"/>
<path d="M23967 2506 c-6 -16 2 -28 14 -20 12 7 11 34 0 34 -5 0 -11 -6 -14
-14z"/>
<path d="M23930 1684 c0 -8 5 -12 10 -9 6 3 10 10 10 16 0 5 -4 9 -10 9 -5 0
-10 -7 -10 -16z"/>
<path d="M23950 1629 c0 -5 5 -7 10 -4 6 3 10 8 10 11 0 2 -4 4 -10 4 -5 0
-10 -5 -10 -11z"/>
<path d="M23932 1440 c0 -19 2 -27 5 -17 2 9 2 25 0 35 -3 9 -5 1 -5 -18z"/>
<path d="M23876 701 c-3 -5 1 -14 9 -21 12 -10 15 -10 15 3 0 19 -16 31 -24
18z"/>
<path d="M23887 403 c-11 -10 -8 -43 3 -43 6 0 10 11 10 25 0 26 -2 29 -13 18z"/>
</g>
</svg>
