<?xml version="1.0" standalone="no"?>
<!DOCTYPE svg PUBLIC "-//W3C//DTD SVG 20010904//EN"
 "http://www.w3.org/TR/2001/REC-SVG-20010904/DTD/svg10.dtd">
<svg version="1.0" xmlns="http://www.w3.org/2000/svg"
 width="3264.000000pt" height="2448.000000pt" viewBox="0 0 3264.000000 2448.000000"
 preserveAspectRatio="xMidYMid meet">
<metadata>
Created by potrace 1.12, written by Peter Selinger 2001-2015
</metadata>
<g transform="translate(0.000000,2448.000000) scale(0.100000,-0.100000)"
fill="#000000" stroke="none">
<path d="M11326 23135 c-20 -31 -21 -93 -1 -115 21 -23 21 -91 1 -320 -18
-206 -21 -465 -6 -504 5 -14 21 -33 35 -42 43 -28 95 -6 148 64 24 31 52 73
62 92 9 19 23 42 30 50 15 17 47 81 100 195 51 111 50 110 72 113 36 5 45 -21
45 -139 -1 -61 -4 -174 -7 -250 -7 -130 -6 -140 14 -173 22 -35 44 -39 55 -11
3 8 10 100 17 205 15 237 2 424 -33 471 -45 61 -86 45 -142 -55 -20 -37 -40
-66 -44 -66 -14 0 -89 -125 -151 -252 -35 -69 -72 -135 -83 -145 -19 -17 -20
-17 -40 7 -18 22 -20 34 -14 100 8 107 25 333 31 413 2 37 12 106 20 153 19
100 13 155 -22 202 -29 39 -64 42 -87 7z"/>
<path d="M11185 22882 c-15 -10 -48 -63 -61 -97 -7 -16 -22 -57 -34 -90 -24
-66 -55 -141 -70 -167 -6 -10 -10 -24 -10 -31 0 -8 -13 -54 -29 -103 -16 -49
-36 -125 -45 -169 -10 -44 -21 -98 -26 -120 -5 -22 -11 -67 -14 -100 -5 -55
-3 -64 20 -89 27 -29 52 -31 65 -6 4 8 12 69 18 135 10 122 30 248 55 365 23
106 32 132 59 191 15 31 27 62 27 69 0 7 12 33 26 57 26 45 56 142 48 155 -6
10 -16 10 -29 0z"/>
<path d="M15899 22858 c-9 -7 -21 -44 -28 -83 -75 -412 -79 -426 -192 -682
-22 -51 -22 -53 -4 -73 10 -11 26 -20 36 -20 24 0 76 89 95 161 25 98 43 130
112 201 77 80 126 101 169 73 24 -16 25 -21 20 -75 -5 -55 -48 -217 -68 -252
-23 -43 -1 -108 36 -108 38 0 80 124 116 341 15 92 1 142 -48 168 -34 17 -40
17 -81 4 -24 -9 -46 -22 -49 -29 -3 -8 -13 -14 -22 -14 -9 0 -22 -5 -28 -11
-6 -6 -21 -9 -34 -7 -33 4 -37 53 -10 143 61 208 62 214 50 238 -20 38 -44 46
-70 25z"/>
<path d="M18695 22818 c-20 -60 -51 -143 -94 -253 -66 -168 -88 -264 -71 -306
17 -40 46 -59 91 -59 30 0 49 10 96 50 61 53 82 60 103 35 11 -13 9 -31 -9
-98 -26 -100 -26 -118 -3 -147 14 -18 25 -22 45 -16 25 6 27 10 27 64 0 31 7
95 15 142 27 155 16 210 -43 210 -20 0 -92 -76 -92 -98 0 -13 -56 -46 -94 -56
-71 -18 -75 47 -11 189 7 17 25 59 40 95 15 36 38 89 51 117 37 81 39 98 15
122 -23 23 -59 28 -66 9z"/>
<path d="M16432 22728 c-31 -31 8 -108 54 -108 26 0 50 41 38 63 -28 50 -68
69 -92 45z"/>
<path d="M16767 22591 c-57 -13 -92 -54 -125 -148 -52 -146 -74 -243 -69 -298
4 -43 10 -54 47 -87 61 -55 183 -99 266 -97 58 2 67 5 89 31 15 17 26 46 29
76 24 205 48 265 147 363 98 97 221 137 269 89 26 -26 25 -44 -2 -58 -19 -10
-14 -11 27 -6 67 8 135 47 135 78 0 46 -33 61 -139 62 -221 1 -313 -44 -418
-204 -65 -98 -76 -127 -93 -237 -23 -148 -40 -158 -162 -101 -98 44 -113 63
-113 137 0 73 15 90 85 95 68 5 90 12 118 38 62 56 85 188 41 235 -35 37 -71
46 -132 32z m68 -91 c26 -29 14 -85 -27 -127 -40 -41 -78 -42 -92 -2 -12 36
-3 67 34 112 35 42 58 46 85 17z"/>
<path d="M12195 22574 c-97 -36 -146 -207 -110 -390 21 -106 51 -169 100 -212
41 -36 66 -39 152 -17 72 19 135 74 117 103 -18 29 -43 25 -91 -12 -26 -20
-56 -36 -67 -36 -41 0 -93 55 -115 122 -12 34 -21 70 -21 81 0 22 48 77 64 72
6 -2 31 6 56 18 59 29 110 103 110 159 0 107 -81 154 -195 112z m96 -75 c28
-28 21 -70 -21 -132 -39 -58 -46 -62 -76 -46 -48 25 -39 100 18 165 35 40 50
42 79 13z"/>
<path d="M18144 22485 c-94 -34 -144 -60 -144 -77 0 -5 -10 -8 -22 -7 -70 7
-197 -87 -275 -203 -36 -52 -93 -181 -93 -208 0 -27 38 -52 61 -40 9 5 29 42
45 82 63 169 260 386 307 339 12 -12 1 -73 -28 -151 -25 -68 -16 -146 20 -178
26 -22 34 -23 94 -17 102 10 177 54 183 105 5 38 -21 35 -100 -11 -66 -38 -75
-41 -97 -29 -49 26 -42 111 18 223 35 68 69 94 152 122 64 22 82 48 49 72 -27
20 -70 14 -170 -22z"/>
<path d="M12703 22483 c-14 -14 -24 -53 -37 -143 -10 -69 -22 -141 -27 -160
-17 -66 -11 -124 14 -148 38 -36 79 -29 121 19 33 40 63 99 48 99 -4 0 -22 -9
-40 -20 -40 -25 -38 -25 -57 3 -13 21 -13 32 0 98 8 41 23 106 34 144 20 67
20 71 3 94 -24 33 -37 36 -59 14z"/>
<path d="M14229 22377 c-96 -90 -122 -150 -89 -205 39 -63 90 -27 90 63 0 42
5 56 25 75 37 34 58 18 68 -51 16 -119 28 -156 56 -183 60 -58 138 -40 247 57
51 46 57 49 81 38 21 -10 24 -17 20 -44 -4 -27 -77 -227 -106 -292 -5 -11 -12
-33 -16 -50 -3 -16 -17 -58 -31 -93 -19 -48 -22 -66 -14 -82 22 -41 59 -14 89
66 10 27 35 92 56 144 21 52 50 136 65 185 15 50 37 115 50 145 33 84 16 150
-39 150 -24 0 -56 -22 -130 -89 -14 -13 -40 -30 -57 -37 -17 -7 -37 -20 -44
-29 -26 -31 -48 -36 -85 -21 -44 19 -53 43 -65 165 -10 108 -29 145 -76 148
-23 2 -42 -9 -95 -60z"/>
<path d="M17464 22343 c-68 -115 -109 -162 -169 -192 -48 -24 -65 -21 -65 10
0 20 42 101 67 129 99 111 111 170 20 106 -73 -52 -177 -207 -177 -264 0 -47
38 -82 88 -82 44 0 79 23 144 95 40 43 47 48 62 36 9 -7 16 -26 16 -42 0 -46
50 -80 64 -43 3 9 6 33 6 53 0 21 13 78 30 127 32 96 37 133 18 152 -28 28
-47 12 -104 -85z"/>
<path d="M12911 22416 c-19 -22 -49 -120 -52 -172 -4 -42 -1 -49 16 -52 28 -6
35 -20 35 -73 0 -44 9 -63 41 -87 37 -28 106 25 138 106 16 37 63 75 89 70 14
-3 17 -16 19 -87 2 -105 7 -124 37 -140 46 -25 49 -12 42 173 -5 143 -10 175
-25 196 -41 56 -70 35 -131 -94 -37 -78 -73 -115 -112 -116 -35 0 -41 22 -28
102 17 106 13 154 -12 172 -28 20 -42 20 -57 2z"/>
<path d="M16402 22413 c-5 -10 -12 -37 -16 -60 -3 -23 -18 -69 -32 -103 -26
-58 -26 -61 -9 -80 10 -11 26 -20 36 -20 20 0 52 37 66 77 41 114 43 150 10
181 -28 27 -43 28 -55 5z"/>
<path d="M13615 22367 c-60 -53 -64 -71 -25 -112 23 -23 31 -41 29 -61 -5 -62
2 -94 22 -113 33 -30 74 -36 106 -14 16 10 46 27 67 38 84 43 118 153 68 223
-32 44 -66 60 -152 70 l-72 9 -43 -40z m183 -71 c12 -12 25 -38 28 -57 5 -31
1 -40 -29 -73 -36 -38 -63 -42 -92 -14 -15 14 -12 142 4 161 17 21 57 13 89
-17z"/>
<path d="M19433 22388 c-11 -13 -37 -51 -57 -84 -32 -52 -47 -67 -102 -95 -35
-19 -74 -40 -87 -46 -53 -30 -94 -6 -83 49 20 96 20 97 -8 110 -22 9 -29 9
-40 -3 -18 -19 -36 -97 -36 -157 0 -60 28 -92 81 -92 36 0 141 59 210 119 42
36 55 38 68 14 12 -25 -15 -80 -181 -368 -95 -163 -154 -243 -250 -335 -53
-51 -60 -75 -24 -91 31 -15 41 -8 111 75 32 38 65 77 74 87 31 33 113 151 155
222 92 155 266 517 266 552 0 64 -56 88 -97 43z"/>
<path d="M15873 21213 c-52 -10 -36 -102 32 -187 23 -28 59 -76 81 -107 64
-90 170 -203 309 -326 122 -109 560 -548 578 -580 12 -20 -17 -61 -49 -69 -18
-5 -31 -1 -48 15 -44 42 -78 26 -150 -71 -38 -53 -74 -49 -88 9 -6 21 8 48 90
169 40 60 40 98 0 102 -22 3 -30 -2 -40 -25 -7 -15 -20 -40 -31 -56 -16 -24
-23 -26 -56 -21 -58 9 -181 -56 -181 -97 0 -23 46 -59 75 -59 52 0 72 -70 35
-125 -25 -38 -25 -61 0 -75 26 -14 55 5 76 50 28 60 41 64 87 25 48 -41 67
-44 67 -11 0 29 53 74 91 78 31 4 37 -29 14 -74 -15 -30 -15 -34 2 -45 9 -7
24 -13 33 -13 19 0 52 32 48 46 -5 19 14 118 27 145 22 42 52 47 86 13 37 -38
227 -300 247 -342 10 -20 12 -35 6 -41 -5 -4 -67 -2 -139 5 -155 16 -535 33
-880 41 -137 3 -253 8 -257 12 -3 3 9 31 28 61 115 185 154 379 88 441 -20 18
-34 22 -80 21 -31 -1 -63 -7 -71 -14 -14 -11 -57 -29 -105 -45 -10 -3 -30 5
-49 21 -57 49 -159 27 -207 -44 -34 -51 -26 -114 19 -152 36 -30 89 -38 89
-14 0 8 -12 29 -26 46 l-27 31 22 23 c11 12 21 29 21 38 0 9 6 21 14 27 10 9
24 1 65 -38 28 -27 51 -56 51 -65 0 -47 77 -72 125 -40 33 22 31 32 -6 36 -44
4 -57 28 -40 75 18 52 38 71 78 79 25 5 39 2 53 -11 26 -24 25 -32 -10 -84
-17 -24 -30 -47 -30 -51 0 -4 13 -10 30 -13 27 -6 29 -9 23 -39 -7 -37 -22
-69 -70 -145 -37 -57 -41 -87 -17 -121 9 -13 13 -26 10 -29 -3 -4 -140 -8
-304 -9 -163 -1 -322 -4 -352 -7 -164 -16 -698 -39 -721 -32 -36 12 -21 48 54
127 84 90 128 142 257 307 155 198 284 346 450 516 86 88 183 189 216 225 59
65 156 163 252 254 56 53 63 70 33 86 -37 19 -120 -46 -295 -230 -45 -46 -99
-103 -121 -126 -22 -22 -83 -88 -135 -144 -52 -57 -105 -114 -117 -127 -12
-12 -50 -55 -84 -95 -34 -40 -86 -100 -116 -133 -50 -56 -180 -213 -248 -301
-16 -21 -55 -68 -86 -104 -30 -36 -75 -92 -99 -125 -65 -91 -90 -115 -121
-115 -46 0 -91 -12 -96 -27 -3 -8 4 -25 17 -38 21 -22 21 -24 5 -49 -10 -15
-23 -30 -29 -34 -14 -9 -209 -222 -300 -327 -38 -44 -77 -87 -86 -95 -9 -8
-43 -47 -77 -85 -33 -39 -74 -86 -90 -105 -207 -239 -256 -294 -277 -318 -14
-15 -56 -63 -93 -107 -38 -43 -97 -111 -133 -150 -36 -39 -96 -104 -133 -145
-38 -41 -139 -147 -225 -235 -87 -88 -179 -185 -207 -215 -27 -30 -76 -84
-109 -120 -32 -36 -91 -101 -130 -145 -39 -44 -98 -109 -132 -145 -33 -36
-104 -117 -157 -180 -53 -63 -127 -150 -164 -192 -132 -150 -338 -391 -365
-425 -15 -19 -69 -81 -120 -137 -112 -124 -139 -154 -198 -226 -25 -30 -60
-71 -78 -90 -34 -35 -144 -168 -240 -289 -28 -36 -69 -86 -90 -111 -21 -25
-87 -110 -147 -190 -60 -80 -132 -174 -161 -210 -28 -36 -61 -83 -72 -105 -29
-58 -102 -132 -137 -140 -16 -3 -37 -10 -45 -14 -20 -10 -25 -48 -9 -67 10
-12 8 -20 -12 -42 -14 -15 -38 -45 -55 -67 -204 -269 -252 -333 -264 -351 -28
-40 -104 -139 -118 -153 -7 -7 -35 -46 -62 -86 -27 -40 -53 -75 -57 -77 -5 -1
-25 -28 -46 -58 -56 -81 -80 -114 -124 -167 -21 -26 -60 -79 -86 -118 -39 -58
-205 -273 -299 -388 -13 -16 -32 -41 -43 -57 -11 -15 -44 -58 -73 -96 -29 -38
-60 -79 -70 -92 -9 -13 -29 -38 -44 -56 -16 -19 -28 -38 -28 -42 0 -5 -22 -32
-48 -61 -26 -28 -69 -81 -97 -118 -27 -37 -66 -87 -85 -110 -19 -23 -56 -71
-83 -106 -26 -35 -75 -99 -110 -141 -34 -43 -100 -126 -147 -185 -46 -59 -92
-117 -101 -128 -27 -31 -89 -106 -144 -176 -27 -35 -79 -97 -115 -139 -36 -41
-78 -93 -95 -114 -34 -44 -164 -198 -174 -206 -4 -3 -31 -36 -61 -75 -30 -38
-77 -95 -105 -125 -27 -30 -70 -79 -95 -109 -25 -30 -74 -88 -110 -131 -36
-42 -110 -130 -165 -195 -55 -66 -164 -194 -243 -285 -153 -177 -163 -188
-232 -266 -25 -28 -63 -72 -85 -99 -22 -27 -49 -58 -60 -69 -12 -12 -73 -86
-138 -166 -64 -80 -140 -172 -168 -205 -28 -33 -85 -103 -126 -155 -42 -52
-85 -105 -97 -116 -11 -12 -33 -37 -48 -55 -14 -19 -45 -56 -67 -84 -22 -27
-93 -119 -158 -204 -64 -85 -124 -162 -133 -171 -9 -9 -19 -23 -22 -31 -4 -8
-29 -42 -57 -77 -28 -34 -51 -65 -51 -68 0 -4 -22 -34 -49 -68 -27 -34 -76
-103 -109 -152 -33 -49 -73 -106 -88 -126 -16 -20 -42 -60 -59 -88 -16 -28
-36 -59 -44 -67 -8 -8 -23 -32 -34 -52 -10 -20 -31 -52 -46 -71 -40 -53 -54
-89 -40 -106 24 -29 48 -15 93 54 71 108 124 186 141 207 9 11 21 30 28 41 7
12 35 54 62 94 28 39 60 88 72 108 12 20 29 42 38 49 9 6 32 36 50 65 19 29
42 64 52 77 10 13 25 34 33 46 8 12 38 50 65 83 28 34 67 86 88 116 22 30 49
65 60 77 12 13 27 31 32 40 17 29 198 256 302 380 35 41 68 81 76 89 38 46
197 239 267 325 45 55 109 129 142 165 74 79 92 100 148 170 24 30 71 85 104
121 34 37 89 100 123 140 34 41 97 115 140 164 43 50 92 108 108 129 17 22 46
56 66 75 20 20 58 65 85 101 27 36 61 79 76 95 15 17 41 49 60 71 18 23 69 82
113 132 44 49 107 122 140 162 33 40 65 78 70 84 6 6 36 43 68 81 31 39 89
108 127 155 171 207 279 340 324 399 27 35 95 119 150 187 56 67 137 169 181
224 44 56 103 130 130 165 49 62 119 152 192 251 21 27 81 106 134 175 53 68
118 156 144 194 83 122 82 121 183 123 48 1 200 -6 337 -14 138 -8 446 -17
685 -19 239 -2 476 -6 525 -9 90 -5 486 -13 1050 -21 640 -9 1015 -15 1130
-20 66 -3 253 -7 415 -10 162 -3 376 -8 475 -10 207 -6 1225 -6 1485 0 230 5
881 21 1245 30 116 3 289 10 385 15 96 5 227 12 290 15 63 3 151 7 195 10 44
2 177 7 295 11 118 3 298 10 400 14 255 10 1396 4 1665 -9 519 -25 559 -25
590 -5 27 18 28 18 49 -8 11 -14 32 -45 46 -69 50 -84 384 -581 525 -779 44
-61 94 -131 110 -154 38 -54 99 -129 148 -184 47 -53 48 -88 2 -85 -16 2 -93
7 -170 13 -77 6 -178 17 -225 26 -92 17 -537 20 -1355 9 -551 -7 -718 -13
-1190 -40 -154 -9 -390 -20 -525 -25 -135 -5 -357 -14 -495 -20 -359 -14 -475
-19 -795 -30 -157 -6 -346 -15 -420 -21 -236 -19 -1082 -10 -1590 16 -202 10
-553 24 -735 30 -104 3 -262 7 -350 10 -88 3 -234 8 -325 10 -237 6 -468 14
-595 20 -149 7 -694 15 -2105 30 -256 3 -501 7 -545 10 -44 2 -174 6 -290 10
-115 3 -241 8 -280 10 -38 3 -104 7 -145 10 -152 9 -206 18 -252 41 -80 40
-258 29 -258 -16 0 -34 31 -44 223 -66 397 -48 769 -60 2047 -69 962 -7 1370
-13 1605 -25 105 -5 267 -10 360 -11 94 -1 206 -3 250 -5 44 -2 166 -5 270 -8
105 -2 258 -7 340 -10 294 -12 631 -27 695 -31 36 -2 153 -7 260 -10 107 -4
220 -9 250 -10 63 -4 597 -4 680 0 30 1 240 5 465 9 226 5 412 9 415 11 3 2
106 6 230 10 124 3 326 10 450 15 124 6 290 12 370 15 422 16 876 36 1035 45
391 22 752 29 1495 27 771 -2 776 -2 895 -26 104 -20 138 -23 258 -18 l137 6
35 -30 c19 -17 35 -35 35 -39 0 -5 24 -43 53 -85 28 -42 59 -87 67 -99 20 -31
399 -531 560 -741 131 -170 263 -344 355 -465 27 -36 85 -111 130 -167 44 -56
116 -147 160 -204 44 -56 103 -129 130 -162 28 -33 79 -96 115 -142 83 -104
183 -228 190 -235 4 -3 19 -23 36 -45 16 -22 34 -44 40 -50 6 -5 47 -57 92
-115 44 -58 114 -145 156 -195 42 -49 81 -97 88 -105 6 -8 30 -35 52 -60 23
-25 68 -77 101 -115 33 -38 87 -98 120 -134 106 -115 232 -269 362 -441 31
-41 78 -100 103 -130 65 -77 84 -110 72 -122 -12 -12 -558 -5 -782 11 -80 5
-236 12 -348 15 -112 3 -206 7 -210 10 -4 2 -81 7 -172 10 -91 3 -203 8 -250
11 -142 8 -287 15 -445 20 -82 3 -177 7 -210 10 -77 6 -297 13 -605 20 -135 3
-272 8 -305 10 -33 2 -184 7 -335 10 -426 9 -1009 25 -1075 30 -67 5 -1193 14
-1935 16 -491 1 -1323 -8 -1525 -17 -60 -2 -279 -6 -485 -9 -206 -3 -557 -7
-780 -10 -1202 -16 -1865 -19 -2100 -11 -63 3 -322 7 -575 10 -253 3 -604 9
-780 12 -176 4 -381 8 -455 9 -74 1 -216 3 -315 4 -864 11 -2424 -3 -2645 -24
-25 -2 -103 -7 -175 -10 -154 -8 -234 -13 -335 -21 -41 -3 -82 -6 -90 -6 -52
1 -524 -41 -665 -59 -93 -11 -201 -24 -240 -29 -184 -21 -274 -33 -479 -65
-121 -20 -228 -37 -236 -40 -8 -2 -64 -11 -125 -20 -143 -21 -360 -62 -405
-77 -19 -6 -46 -13 -60 -15 -14 -1 -54 -10 -90 -18 -98 -23 -107 -25 -215 -30
-179 -10 -205 -14 -205 -34 0 -19 33 -55 42 -45 3 3 61 7 129 9 140 5 269 27
474 78 129 32 352 74 400 75 18 1 55 7 175 32 40 8 109 19 395 61 44 7 96 13
115 14 19 2 89 10 155 19 66 9 148 18 182 20 35 3 66 7 70 9 8 5 178 23 298
31 33 3 137 11 230 20 94 8 217 16 275 17 58 1 141 5 185 10 282 30 905 42
2095 41 536 0 1063 -3 1170 -7 202 -6 358 -9 1190 -20 272 -4 524 -8 560 -10
120 -5 903 -5 1125 -1 121 3 537 7 925 10 388 4 766 8 840 11 353 14 982 20
1900 19 1219 -1 1504 -3 1905 -15 171 -5 389 -11 485 -14 96 -3 236 -7 310
-10 74 -2 268 -7 430 -11 162 -3 297 -8 300 -9 3 -2 145 -6 315 -9 171 -4 342
-8 380 -11 39 -3 122 -7 185 -10 63 -3 167 -8 230 -12 63 -4 118 -6 121 -5 3
0 73 -3 155 -8 82 -5 205 -11 274 -15 69 -3 202 -10 295 -15 94 -5 285 -14
425 -20 140 -6 293 -15 340 -22 57 -7 171 -8 345 -4 391 11 458 17 680 67 28
6 115 31 195 55 80 25 163 50 185 56 22 6 45 15 50 18 6 4 64 24 130 44 66 21
141 46 167 57 48 19 394 141 438 154 30 8 142 51 185 70 17 7 59 23 95 35 63
21 330 125 360 141 28 14 349 129 360 129 6 0 55 18 108 39 53 21 131 51 172
66 41 14 91 33 110 40 19 7 80 28 135 46 55 18 141 47 190 65 50 18 144 50
210 73 100 33 296 101 535 185 25 9 92 32 150 52 58 20 127 45 154 56 61 25
266 96 326 113 25 8 83 28 130 45 47 18 128 47 180 66 52 19 104 39 115 44 11
5 63 25 115 44 52 19 131 49 175 66 44 17 116 42 160 56 44 14 91 30 105 36
14 6 57 21 95 34 39 12 122 42 185 64 63 23 162 59 220 79 58 21 132 48 165
60 33 12 78 28 100 35 22 7 69 25 105 39 36 14 151 56 255 92 105 37 231 83
280 102 50 19 106 41 125 48 42 16 176 67 280 105 41 16 113 45 160 65 47 20
125 52 173 71 127 50 127 50 127 110 l0 52 -57 -1 c-85 0 -317 83 -658 238
-33 15 -80 36 -105 47 -25 11 -112 53 -195 93 -204 99 -323 155 -328 155 -3 0
-82 36 -175 80 -232 108 -400 171 -722 269 -36 11 -105 36 -155 56 -49 19
-126 50 -170 67 -44 17 -102 41 -130 53 -27 12 -86 37 -129 55 -44 18 -87 36
-95 41 -9 4 -65 29 -126 55 -60 26 -191 87 -290 137 -99 50 -200 100 -225 111
-78 36 -333 167 -375 193 -41 26 -277 159 -396 225 -95 52 -482 299 -637 407
-46 32 -352 235 -386 256 -17 10 -80 51 -141 90 -60 40 -137 86 -170 104 -33
18 -67 38 -75 44 -8 7 -26 18 -40 26 -55 32 -236 144 -250 155 -16 13 -46 29
-233 125 -66 33 -158 85 -205 115 -48 30 -150 93 -227 140 -77 47 -219 133
-315 192 -96 59 -206 125 -245 147 -38 22 -104 61 -145 87 -117 73 -241 146
-410 240 -85 48 -171 96 -190 107 -61 35 -263 150 -311 176 -26 15 -95 55
-155 91 -60 35 -185 106 -279 157 -154 84 -307 172 -515 297 -41 25 -113 67
-160 94 -47 27 -137 81 -200 120 -63 39 -146 89 -185 111 -38 22 -77 46 -85
53 -16 13 -211 133 -275 169 -22 13 -70 42 -107 66 -37 24 -117 76 -178 114
-61 39 -154 98 -208 133 -53 35 -131 84 -172 108 -124 74 -137 83 -355 217
-270 167 -275 170 -307 211 -20 25 -38 36 -67 41 -22 3 -57 19 -79 33 -22 15
-136 92 -254 171 -117 79 -247 167 -288 195 -208 140 -608 445 -850 647 -194
162 -203 171 -217 214 -8 23 -19 32 -54 42 -32 10 -65 33 -124 91 -44 43 -107
102 -140 132 -33 30 -150 141 -261 247 -110 106 -221 208 -245 228 -24 19
-109 86 -188 148 -79 61 -165 129 -190 149 -25 20 -109 85 -186 143 -77 58
-189 143 -250 190 -60 46 -191 142 -290 214 -99 71 -207 149 -239 173 -33 24
-65 45 -71 48 -12 5 -102 70 -272 193 -247 178 -321 230 -393 274 -41 25 -138
88 -215 138 -273 180 -352 228 -373 224 -4 -1 -17 -4 -29 -6z m152 -143 c28
-17 104 -68 170 -115 66 -46 161 -109 210 -139 106 -65 256 -168 475 -327 98
-71 160 -114 354 -249 78 -53 222 -157 321 -230 99 -73 196 -145 215 -159 19
-14 41 -32 50 -41 9 -9 34 -27 55 -40 22 -13 128 -94 236 -180 108 -85 251
-198 320 -250 68 -52 198 -167 289 -255 170 -165 358 -340 467 -433 68 -59 79
-77 61 -99 -12 -15 -20 -20 -163 -96 -44 -24 -125 -70 -179 -103 -148 -88
-171 -102 -335 -194 -84 -47 -188 -109 -232 -137 -120 -79 -124 -77 -193 60
-31 61 -71 139 -89 172 -18 33 -59 110 -92 170 -32 61 -70 130 -83 155 -14 25
-43 79 -65 120 -137 261 -290 524 -381 655 -31 44 -56 83 -56 87 0 3 8 9 18
12 10 4 25 21 34 39 13 28 38 45 159 106 236 119 254 129 254 147 0 40 -29 38
-131 -11 -54 -26 -117 -56 -139 -66 -52 -25 -104 -56 -122 -75 -22 -21 -89
-54 -112 -54 -23 0 -51 35 -114 142 -94 160 -212 299 -538 633 -86 88 -174
178 -195 200 -21 22 -93 88 -159 147 -211 188 -421 439 -367 438 4 0 30 -14
57 -30z m493 -1084 c5 -25 -17 -46 -48 -46 -33 0 -53 21 -44 45 14 36 85 37
92 1z m57 -487 c105 -5 302 -12 438 -15 283 -7 272 -4 323 -99 15 -27 66 -113
114 -190 93 -148 164 -275 355 -630 65 -121 155 -285 198 -365 117 -212 137
-251 137 -266 0 -27 -40 -36 -119 -28 -42 4 -425 9 -851 10 -426 2 -802 5
-834 8 -33 3 -145 7 -250 10 -333 10 -609 19 -661 22 -68 4 -891 3 -990 -2
-133 -6 -817 -6 -855 0 -19 3 -120 8 -223 11 -104 4 -195 9 -202 11 -22 9 -27
35 -11 59 8 12 38 44 67 71 80 76 329 350 424 469 44 54 151 176 273 311 26
29 72 80 102 115 30 35 64 73 75 84 11 12 60 66 110 121 49 54 100 110 112
123 13 13 23 27 23 32 0 4 23 36 52 70 l51 62 96 -8 c53 -4 132 -8 176 -9 89
-1 473 13 550 21 227 21 915 23 1320 2z m2916 -1120 c332 -289 695 -561 1151
-863 92 -61 201 -132 243 -158 41 -26 75 -54 75 -62 0 -9 -23 -26 -52 -40
-212 -98 -285 -135 -448 -226 -306 -170 -412 -231 -465 -265 -71 -46 -207
-126 -257 -153 -23 -12 -83 -46 -133 -74 -49 -29 -108 -62 -130 -73 -87 -47
-183 -103 -226 -133 -50 -34 -88 -46 -105 -35 -6 5 -26 36 -43 70 -36 71 -186
341 -269 483 -70 119 -432 752 -432 754 0 1 -34 63 -75 137 -41 74 -75 142
-75 152 0 12 16 25 48 39 87 37 226 107 277 137 28 17 68 40 90 52 22 12 51
29 65 39 14 10 54 32 90 51 36 18 103 58 150 88 47 30 107 66 135 81 69 35
156 93 179 119 11 11 25 21 32 21 6 0 85 -64 175 -141z m-6268 -463 c210 -30
446 -38 955 -31 600 8 1273 8 1362 1 36 -3 205 -8 375 -11 171 -3 326 -8 345
-10 121 -15 969 -24 1505 -16 183 3 261 1 289 -9 35 -11 41 -10 69 10 22 17
34 20 46 13 9 -5 51 -77 94 -159 78 -148 294 -529 452 -799 46 -77 136 -232
200 -345 65 -113 129 -223 141 -245 39 -66 34 -75 -58 -124 -80 -43 -82 -43
-227 -53 -199 -14 -1297 -14 -1491 1 -85 6 -495 13 -910 16 -898 6 -1316 12
-1540 25 -197 11 -534 22 -1100 35 -501 11 -679 16 -795 20 -66 3 -277 9 -470
15 -192 5 -439 15 -547 21 -152 9 -211 9 -258 0 -33 -7 -65 -9 -70 -6 -16 10
10 50 82 128 61 67 270 303 360 407 21 25 47 54 56 65 10 11 54 63 97 115 179
213 385 443 596 663 69 73 152 161 183 197 88 99 90 100 259 76z m7969 -757
c156 -104 325 -210 453 -284 55 -32 112 -65 128 -74 15 -9 76 -47 135 -86 114
-73 224 -144 282 -180 19 -12 67 -42 105 -67 39 -25 148 -92 243 -149 95 -57
191 -115 212 -129 321 -206 1101 -660 1348 -784 112 -57 113 -72 4 -122 -31
-15 -129 -62 -217 -104 -88 -43 -191 -90 -230 -105 -284 -109 -323 -126 -465
-199 -248 -128 -400 -200 -586 -279 -194 -83 -260 -115 -1144 -550 -344 -170
-616 -322 -703 -394 -16 -13 -42 -23 -58 -23 -26 0 -32 7 -63 68 -19 37 -52
95 -73 127 -78 118 -111 172 -178 285 -85 145 -90 152 -165 285 -35 61 -79
135 -100 165 -20 31 -39 64 -43 74 -10 27 8 53 61 83 26 14 92 54 147 87 55
32 129 76 165 96 36 20 83 47 105 60 22 13 94 52 160 88 65 35 135 74 155 86
38 25 177 99 365 196 156 80 245 128 272 146 12 7 27 14 34 14 6 0 23 8 37 19
68 48 604 331 907 478 168 82 200 101 203 122 2 12 -5 24 -19 31 -18 10 -26 8
-50 -9 -15 -12 -34 -21 -41 -21 -16 -1 -128 -56 -478 -236 -342 -177 -391
-203 -460 -244 -81 -48 -351 -195 -540 -292 -91 -47 -257 -136 -370 -198 -113
-62 -225 -124 -250 -138 -88 -47 -296 -174 -359 -217 -35 -25 -74 -45 -86 -45
-25 0 -35 13 -100 135 -21 39 -53 93 -72 121 -18 28 -33 54 -33 58 0 3 -17 35
-38 69 -54 87 -112 188 -162 282 -24 44 -77 143 -118 220 -41 77 -88 165 -105
195 -100 189 -144 267 -177 315 -54 80 -48 93 73 149 114 53 457 245 677 379
174 105 532 306 735 412 66 34 164 86 218 114 54 28 107 51 117 51 11 0 75
-37 142 -81z m-9553 -944 c27 4 99 2 158 -4 208 -20 571 -33 1573 -56 102 -2
313 -9 470 -14 157 -6 404 -13 550 -16 146 -3 335 -10 420 -15 265 -15 535
-20 1430 -25 476 -3 921 -10 990 -15 251 -20 645 -24 1391 -16 323 4 299 -1
411 73 92 62 102 59 159 -52 26 -49 61 -117 79 -150 18 -33 66 -123 107 -200
84 -156 94 -174 218 -400 104 -189 245 -426 304 -513 24 -34 41 -69 39 -78 -3
-15 -35 -17 -300 -21 -164 -3 -376 0 -470 6 -95 6 -261 13 -368 16 -107 3
-276 7 -375 10 -415 11 -1022 20 -1330 19 -181 0 -607 -1 -945 -2 -338 -1
-642 0 -675 3 -60 5 -272 12 -550 21 -173 5 -343 12 -465 19 -47 3 -159 7
-250 11 -149 5 -399 19 -780 44 -240 15 -652 36 -900 45 -85 4 -191 11 -235
16 -44 5 -147 12 -230 15 -82 3 -222 9 -310 14 -140 7 -1004 6 -1170 -2 -58
-3 -60 -2 -63 22 -2 19 14 45 60 101 58 70 116 143 193 243 16 22 41 54 55 71
14 18 57 75 96 126 67 88 112 143 362 438 54 63 108 128 122 146 42 54 96 111
120 128 22 15 25 15 41 1 14 -12 29 -14 68 -9z m12762 -989 c68 -40 144 -84
169 -98 230 -130 422 -239 473 -270 34 -20 78 -46 97 -57 45 -27 410 -248 430
-261 8 -5 48 -28 87 -50 40 -23 75 -45 78 -50 3 -5 18 -15 33 -23 15 -8 77
-44 137 -82 61 -37 135 -81 165 -97 133 -72 180 -100 180 -108 0 -24 -93 -58
-192 -71 -75 -9 -314 -75 -543 -149 -248 -79 -284 -90 -435 -132 -277 -76
-641 -204 -965 -340 -310 -131 -344 -146 -734 -330 -119 -56 -390 -192 -566
-283 -82 -43 -211 -109 -285 -147 -74 -39 -148 -78 -165 -88 -155 -90 -674
-350 -699 -350 -16 0 -35 13 -55 39 -17 21 -31 42 -31 46 0 5 -45 70 -175 250
-145 202 -213 300 -392 565 -112 168 -218 324 -235 347 -44 59 -35 79 54 132
40 23 111 65 158 93 175 104 270 156 465 252 110 54 358 176 550 271 375 186
452 222 615 292 58 24 139 60 180 80 41 19 91 41 110 48 19 7 64 29 98 49 35
20 67 36 70 36 7 0 197 95 237 118 28 16 131 62 139 62 3 0 25 8 49 19 23 10
94 38 157 61 142 52 550 254 569 280 7 11 21 20 30 20 10 0 73 -33 142 -74z
m-12701 -341 c151 -3 329 -10 395 -15 117 -9 297 -19 735 -40 118 -6 249 -13
290 -16 41 -3 111 -7 155 -9 44 -3 103 -7 130 -10 28 -3 100 -7 160 -10 61 -2
155 -7 210 -11 55 -3 134 -7 175 -9 248 -10 578 -25 660 -30 151 -9 276 -13
575 -21 154 -3 334 -9 400 -13 66 -4 370 -6 675 -4 935 5 1209 4 1538 -2 500
-9 1042 -25 1222 -36 313 -19 695 -21 815 -6 132 17 160 10 190 -49 129 -252
444 -774 569 -943 51 -70 55 -89 26 -116 -23 -20 -41 -21 -135 -7 -39 6 -140
14 -225 17 -85 3 -274 10 -420 15 -246 10 -1361 6 -1412 -4 -13 -3 -133 -7
-268 -11 -135 -3 -281 -8 -325 -11 -44 -2 -123 -6 -175 -9 -149 -5 -528 -24
-605 -29 -38 -3 -169 -8 -290 -11 -121 -3 -303 -7 -405 -10 -1004 -26 -2274
-26 -2903 0 -55 2 -237 7 -405 10 -169 3 -410 7 -537 10 -126 3 -408 7 -625
10 -403 5 -741 13 -840 20 -30 3 -248 7 -485 10 -236 3 -509 10 -605 17 -96 6
-243 11 -327 10 -196 -1 -198 3 -73 143 20 22 52 63 71 90 19 28 53 72 77 100
23 27 42 54 42 59 0 6 12 22 26 37 14 15 40 47 57 72 18 25 86 116 152 202 66
86 129 170 140 185 11 16 59 79 106 142 48 62 102 138 122 168 51 80 84 107
141 117 53 9 770 8 1206 -2z m14682 -829 c29 -7 107 -52 426 -248 105 -65 194
-118 197 -118 7 0 584 -377 699 -456 142 -99 500 -323 671 -419 28 -16 66 -38
87 -49 206 -118 388 -216 508 -275 80 -40 229 -115 331 -167 103 -51 204 -100
225 -108 22 -7 59 -22 84 -33 454 -202 631 -270 955 -372 55 -18 109 -36 120
-41 11 -4 67 -25 124 -45 57 -21 125 -48 150 -60 62 -31 158 -75 321 -147 74
-33 212 -97 305 -143 94 -46 196 -95 228 -109 31 -14 83 -38 115 -52 31 -14
84 -38 117 -54 33 -15 71 -31 85 -35 14 -4 49 -18 78 -31 71 -33 163 -61 247
-74 124 -20 110 -43 -60 -101 -111 -38 -318 -115 -425 -159 -76 -31 -202 -78
-255 -95 -27 -9 -63 -22 -80 -30 -32 -15 -55 -23 -215 -80 -149 -53 -325 -117
-470 -170 -69 -26 -156 -57 -195 -70 -38 -13 -97 -33 -130 -45 -33 -12 -161
-57 -285 -100 -237 -82 -353 -125 -373 -137 -12 -7 -99 -40 -182 -68 -22 -7
-76 -27 -120 -43 -200 -74 -320 -117 -440 -157 -71 -24 -193 -67 -270 -95 -77
-28 -153 -55 -170 -59 -16 -5 -57 -18 -90 -31 -33 -12 -121 -42 -195 -67 -74
-24 -144 -49 -155 -53 -11 -5 -87 -32 -170 -61 -166 -57 -596 -205 -635 -219
-14 -5 -49 -18 -78 -28 -29 -11 -55 -22 -59 -26 -3 -3 -13 -6 -22 -6 -9 0 -54
-15 -101 -34 -47 -18 -132 -50 -190 -71 -58 -20 -114 -41 -125 -45 -142 -58
-407 -160 -520 -200 -97 -33 -200 -71 -220 -80 -11 -5 -60 -22 -110 -38 -49
-17 -124 -42 -165 -57 -121 -45 -442 -156 -475 -165 -16 -4 -75 -22 -130 -40
-137 -43 -202 -61 -255 -70 -25 -5 -98 -18 -162 -31 -136 -26 -152 -23 -195
41 -157 229 -312 421 -593 736 -158 177 -325 374 -450 530 -25 30 -57 70 -71
87 -49 60 -244 303 -446 557 -112 140 -218 273 -236 295 -19 22 -53 67 -78
100 -24 33 -55 72 -68 87 -13 15 -38 47 -55 71 -40 56 -133 179 -214 282 -35
44 -98 126 -140 182 -42 56 -125 164 -183 240 -123 161 -222 293 -264 352 -70
97 -169 228 -191 252 -13 14 -24 36 -23 50 0 21 26 37 227 137 125 62 281 142
347 178 66 36 158 86 205 111 47 25 113 60 147 79 63 34 487 252 603 310 118
59 448 214 455 214 2 0 48 21 102 46 54 25 118 54 143 64 25 10 71 30 102 44
31 14 60 26 64 26 4 0 37 13 73 29 101 45 332 134 476 184 115 39 210 69 445
137 111 32 238 70 415 125 253 78 295 91 470 134 88 22 198 54 245 70 47 16
92 28 100 26 8 -2 27 -6 42 -9z"/>
<path d="M14625 18986 c-137 -46 -273 -143 -318 -229 -33 -63 -31 -174 5 -243
43 -81 113 -126 221 -139 69 -8 127 8 127 35 0 24 -19 30 -91 30 -33 0 -74 6
-92 14 -41 17 -81 64 -97 112 -15 44 -8 130 14 172 35 68 126 132 244 172 l64
21 35 -21 c61 -36 101 -23 82 27 -20 55 -108 77 -194 49z"/>
<path d="M15980 18931 c-35 -9 -68 -76 -130 -260 -57 -171 -60 -207 -18 -231
26 -14 29 -14 67 24 21 21 47 52 56 70 10 17 34 42 53 54 l36 24 18 -22 c10
-12 18 -33 18 -47 0 -32 25 -78 52 -97 29 -20 138 -21 193 -1 55 20 76 19 138
-9 53 -25 87 -34 204 -57 70 -13 93 -8 93 19 0 40 -35 56 -140 62 -140 8 -164
34 -86 92 73 55 105 126 81 183 -19 46 -46 58 -121 53 -68 -4 -101 -21 -138
-72 -17 -23 -21 -43 -21 -116 -1 -49 -4 -92 -8 -96 -4 -4 -33 -10 -65 -12 -47
-3 -62 0 -84 18 -25 19 -28 28 -28 81 0 65 -21 99 -63 99 -20 0 -79 -48 -115
-93 -19 -25 -56 -7 -60 29 -4 38 50 156 94 208 53 61 39 113 -26 97z m558
-239 c9 -88 -109 -184 -135 -109 -22 66 40 151 107 144 20 -2 26 -8 28 -35z"/>
<path d="M15133 18685 c-62 -88 -62 -88 -113 -50 -37 27 -94 32 -180 16 -62
-13 -120 -74 -120 -129 0 -45 38 -88 86 -98 54 -10 153 22 217 71 31 25 63 45
70 45 7 0 34 -20 59 -45 31 -30 55 -45 72 -45 33 0 33 10 0 57 -24 35 -25 43
-19 110 6 65 5 72 -14 82 -29 16 -38 14 -58 -14z m-168 -82 c50 -24 48 -54 -8
-86 -123 -68 -204 -10 -99 70 50 38 58 39 107 16z"/>
<path d="M15575 18685 c-5 -2 -43 -14 -84 -26 -95 -30 -151 -82 -177 -162 -16
-53 -16 -56 2 -88 11 -20 39 -44 64 -57 38 -20 55 -23 110 -18 79 6 100 13
100 35 0 33 -20 41 -95 34 -68 -5 -73 -4 -88 18 -41 58 -5 119 94 164 47 21
72 26 105 22 52 -5 72 10 54 42 -16 32 -52 47 -85 36z"/>
<path d="M13590 17413 c-99 -51 -162 -126 -213 -253 -60 -152 -85 -323 -66
-458 11 -80 34 -116 77 -120 46 -5 56 22 29 79 -19 38 -21 61 -21 179 0 143 9
190 61 315 76 181 247 284 358 215 66 -41 57 -53 -89 -129 -223 -115 -272
-191 -206 -321 52 -101 143 -163 328 -221 91 -29 104 -31 118 -18 34 35 -11
71 -130 103 -141 40 -210 88 -247 174 -35 81 -16 135 59 168 113 49 262 128
282 149 64 68 -59 175 -201 175 -58 0 -77 -5 -139 -37z"/>
<path d="M14463 17368 c-12 -13 -35 -52 -52 -88 -33 -69 -60 -117 -127 -229
-23 -38 -44 -82 -48 -97 -9 -34 -79 -156 -100 -174 -36 -29 -3 -107 41 -98 18
3 59 77 121 219 27 61 33 67 86 92 l58 27 -31 29 c-17 16 -31 34 -31 40 0 6
11 35 24 65 43 98 96 84 96 -25 0 -50 -3 -61 -24 -76 l-25 -18 37 -38 37 -38
0 -105 c1 -81 4 -107 15 -115 49 -30 86 22 69 98 -32 151 -32 145 -12 164 16
16 26 17 85 9 76 -11 98 -6 98 21 0 30 -53 52 -96 40 -50 -14 -106 5 -115 39
-4 14 -7 71 -8 128 -1 76 -5 109 -17 127 -20 31 -54 32 -81 3z"/>
<path d="M15658 17328 c-19 -17 -68 -102 -68 -121 0 -8 -9 -22 -20 -32 -11
-10 -20 -23 -20 -30 0 -17 -180 -214 -210 -230 -59 -30 -80 36 -80 253 0 109
-2 124 -20 142 -23 23 -53 26 -69 6 -6 -7 -26 -52 -45 -98 -18 -47 -49 -109
-68 -139 -45 -69 -156 -255 -178 -296 -21 -38 -15 -90 12 -104 25 -14 62 18
78 67 6 18 31 70 56 115 24 45 44 85 44 88 0 4 8 22 19 41 10 19 21 49 25 65
8 36 51 93 62 83 4 -5 12 -59 19 -120 15 -152 41 -198 111 -198 29 0 83 29
128 69 36 32 146 199 146 221 0 24 46 64 65 56 10 -3 14 -13 11 -23 -23 -78
-86 -359 -84 -375 4 -30 33 -46 55 -32 22 13 32 53 68 249 15 83 34 167 41
189 21 58 18 122 -6 146 -23 23 -49 26 -72 8z"/>
<path d="M15365 15854 c-108 -23 -157 -59 -234 -174 -41 -62 -67 -117 -95
-200 -55 -163 -63 -178 -108 -201 -56 -29 -44 -43 39 -47 66 -3 75 0 115 28
34 24 62 34 114 40 164 22 325 82 382 144 65 70 69 171 12 271 -62 109 -139
156 -225 139z m72 -83 c46 -33 75 -75 98 -144 35 -104 -5 -155 -165 -207 -36
-12 -94 -35 -129 -51 -76 -36 -114 -35 -119 0 -2 14 8 76 23 139 25 100 33
120 72 168 53 65 128 124 158 124 12 0 40 -13 62 -29z"/>
<path d="M13420 15823 c-19 -2 -39 -9 -44 -14 -6 -5 -23 -9 -38 -9 -73 0 -138
-59 -138 -127 0 -39 38 -86 90 -113 47 -24 188 -71 304 -101 99 -25 156 -63
156 -104 0 -83 -259 -173 -440 -154 -68 7 -80 3 -80 -27 0 -31 29 -45 104 -49
185 -11 430 78 485 176 66 116 -16 179 -350 268 -125 33 -169 67 -169 129 0
46 34 62 129 62 104 0 173 -15 243 -53 53 -29 59 -30 74 -15 65 64 -154 152
-326 131z"/>
<path d="M14295 15810 c-84 -7 -193 -30 -240 -49 -11 -5 -38 -16 -60 -25 -68
-29 -89 -43 -113 -77 -16 -23 -21 -41 -17 -59 16 -63 74 -89 250 -110 121 -15
306 -63 355 -93 78 -48 102 -102 57 -131 -29 -19 -242 -66 -300 -66 -24 0 -58
5 -76 11 -66 23 -107 -15 -60 -57 57 -52 344 -15 491 63 82 44 86 112 10 185
-76 73 -211 120 -425 148 -89 11 -158 25 -173 35 -35 23 -41 61 -15 89 29 31
71 42 235 62 164 20 284 14 356 -17 83 -35 126 -10 78 45 -17 19 -38 29 -78
35 -91 16 -180 19 -275 11z"/>
<path d="M14475 14535 c-66 -35 -81 -50 -122 -113 -56 -87 -92 -220 -97 -365
-3 -88 -12 -96 -91 -77 -49 12 -58 12 -66 -1 -23 -37 17 -55 140 -65 287 -21
530 78 606 248 24 52 27 70 23 137 -4 89 -25 138 -81 193 -46 44 -85 58 -187
65 -68 4 -80 2 -125 -22z m192 -46 c68 -26 112 -100 113 -190 0 -146 -74 -223
-282 -293 -149 -50 -178 -34 -158 87 29 180 51 247 100 314 53 72 156 109 227
82z"/>
<path d="M13970 14522 c-18 -15 -25 -37 -36 -113 -7 -52 -13 -124 -14 -160 0
-41 -5 -70 -12 -76 -25 -19 -60 -21 -96 -6 -28 12 -55 14 -117 8 -125 -10
-153 -9 -169 5 -21 17 -20 65 5 165 26 109 10 147 -51 115 -25 -13 -50 -104
-50 -182 0 -45 -5 -71 -19 -92 -18 -28 -19 -32 -4 -60 21 -40 18 -123 -8 -199
-11 -32 -17 -67 -14 -77 8 -26 41 -31 68 -10 31 25 47 82 47 172 0 104 26 124
131 99 20 -5 84 -4 144 1 107 10 109 10 127 -14 15 -19 17 -34 12 -98 -5 -67
-4 -77 14 -93 11 -10 31 -17 44 -15 22 3 23 6 24 103 0 128 11 253 31 386 17
114 15 132 -16 148 -15 8 -24 7 -41 -7z"/>
<path d="M4850 21111 c-38 -10 -38 -47 -2 -81 36 -33 38 -44 68 -410 2 -25 6
-70 9 -100 3 -30 7 -104 9 -163 3 -84 7 -113 20 -125 12 -13 21 -14 33 -6 22
14 22 164 -1 474 -2 19 -8 85 -15 145 -7 61 -14 124 -16 142 -9 89 -51 137
-105 124z"/>
<path d="M4725 21000 c4 -6 11 -8 16 -5 14 9 11 15 -7 15 -8 0 -12 -5 -9 -10z"/>
<path d="M4635 20911 c-3 -5 -1 -12 5 -16 12 -7 30 2 30 16 0 12 -27 12 -35 0z"/>
<path d="M4500 20803 c-26 -10 -60 -46 -60 -65 0 -10 -13 -24 -32 -33 -18 -8
-40 -19 -48 -24 -8 -5 -28 -15 -45 -22 -16 -8 -45 -29 -64 -46 -19 -18 -39
-33 -44 -33 -6 0 -24 -15 -41 -32 -17 -18 -52 -51 -76 -73 -25 -22 -52 -49
-60 -61 -8 -12 -30 -29 -47 -38 -18 -9 -33 -21 -33 -26 0 -5 -9 -11 -19 -15
-10 -3 -22 -16 -25 -29 -3 -13 -17 -31 -31 -40 -14 -9 -40 -40 -57 -67 -30
-49 -32 -50 -66 -44 -33 6 -34 6 -28 -20 6 -23 -4 -37 -84 -117 -49 -50 -90
-98 -90 -109 0 -10 10 -25 21 -33 27 -18 59 -6 81 32 9 15 34 47 55 71 56 64
412 421 420 421 4 0 37 29 73 65 36 35 93 90 126 122 34 32 64 67 68 78 3 11
15 26 26 33 22 14 129 20 148 8 25 -15 53 -94 62 -176 5 -47 14 -100 19 -118
5 -18 8 -39 5 -47 -3 -7 -1 -30 5 -51 7 -24 7 -43 1 -55 -6 -10 -6 -27 -1 -41
5 -13 4 -53 -1 -93 -10 -79 -16 -159 -18 -255 -1 -36 -8 -80 -17 -99 -9 -19
-13 -45 -9 -63 4 -19 1 -30 -7 -34 -9 -3 -14 -23 -14 -57 0 -54 -35 -319 -53
-397 -26 -115 -17 -340 13 -340 4 0 6 4 3 8 -3 5 0 35 5 68 5 32 11 71 13 86
2 14 7 31 10 37 4 6 9 53 11 105 3 52 9 105 14 118 5 13 12 64 16 113 4 50 12
96 18 103 6 7 11 36 12 65 2 29 4 52 5 52 2 0 4 29 5 65 1 36 7 88 13 115 39
175 54 454 32 601 -6 38 -15 105 -21 148 -5 43 -16 91 -24 106 -16 30 -72 90
-84 90 -4 0 -13 11 -19 25 -11 24 -30 30 -62 18z"/>
<path d="M1421 20436 c-7 -8 -21 -12 -31 -9 -11 3 -26 0 -34 -6 -7 -6 -21 -9
-30 -5 -12 5 -15 2 -10 -10 7 -19 1 -20 -27 -3 -17 10 -22 9 -30 -5 -5 -9 -15
-15 -22 -12 -7 2 -29 -2 -48 -9 -18 -8 -39 -13 -45 -10 -7 2 -32 -10 -56 -26
-30 -20 -52 -28 -66 -24 -15 3 -24 0 -28 -11 -4 -10 -18 -16 -41 -16 -30 0
-34 -3 -31 -22 2 -15 -2 -22 -10 -20 -8 1 -40 -3 -72 -9 -42 -8 -66 -19 -86
-40 -15 -16 -36 -29 -45 -29 -10 0 -21 -4 -24 -10 -3 -5 -16 -10 -29 -10 -12
0 -33 -11 -46 -25 -13 -14 -29 -25 -37 -25 -26 0 -10 -46 17 -50 30 -5 38 1
49 30 6 18 17 30 27 30 10 0 25 7 34 15 15 14 22 13 63 -5 26 -12 47 -25 47
-30 0 -6 4 -10 9 -10 5 0 11 17 15 38 10 57 54 101 109 107 10 1 31 11 47 23
16 12 40 22 54 22 13 0 26 7 30 15 3 9 18 15 35 15 16 0 32 4 35 9 3 4 24 11
46 15 22 3 43 13 46 20 4 10 16 13 40 9 20 -3 40 -1 48 7 9 6 20 9 26 5 6 -4
17 -2 24 4 7 6 22 10 32 10 57 -6 104 3 129 23 26 20 27 22 9 35 -24 17 -108
17 -123 -1z"/>
<path d="M15313 20310 c-40 -24 -40 -30 -8 -60 44 -42 25 -91 -52 -130 -15 -8
-39 -22 -52 -32 -32 -24 -68 -23 -81 2 -13 24 -30 26 -30 5 0 -9 -9 -33 -20
-54 -77 -151 -76 -281 1 -281 22 0 27 23 20 90 -3 30 -5 81 -3 113 3 51 5 57
25 57 15 0 38 -20 71 -61 45 -57 50 -61 80 -54 34 7 67 8 106 3 17 -2 25 2 28
15 3 13 -11 24 -52 42 -72 32 -75 55 -10 93 25 15 60 39 77 53 27 23 30 32 29
77 -1 57 -21 103 -54 126 -29 20 -36 20 -75 -4z"/>
<path d="M2185 20270 c-3 -11 -15 -20 -25 -20 -10 0 -22 -5 -26 -11 -3 -6 -22
-18 -41 -25 -31 -13 -42 -43 -14 -36 6 1 22 4 34 6 13 2 21 10 21 20 -1 9 6
16 15 16 9 0 22 5 28 11 18 18 81 -11 103 -46 21 -34 51 -147 55 -209 2 -28
-3 -43 -17 -55 -11 -9 -26 -22 -33 -28 -8 -7 -21 -13 -30 -13 -9 0 -23 -7 -31
-15 -9 -8 -26 -15 -40 -15 -14 0 -27 -7 -30 -15 -7 -17 -26 -19 -52 -6 -62 30
-135 61 -146 61 -16 0 -56 59 -56 83 0 14 72 97 84 97 3 0 26 14 51 32 75 53
52 71 -40 33 -31 -13 -135 -106 -135 -120 0 -5 -11 -23 -24 -40 -43 -56 -15
-100 81 -130 92 -29 114 -51 144 -138 15 -43 24 -88 21 -100 -9 -37 -43 -77
-129 -150 -80 -67 -152 -84 -208 -47 -35 23 -75 93 -75 132 0 15 -5 30 -11 34
-6 3 -8 15 -6 25 3 11 1 50 -4 87 -9 65 -6 93 21 201 10 41 9 46 -13 68 -22
22 -25 23 -58 9 -32 -14 -79 -50 -79 -62 0 -3 11 -20 24 -37 17 -23 21 -38 16
-52 -15 -36 -10 -62 14 -86 18 -18 22 -28 16 -49 -4 -15 -1 -53 7 -90 8 -36
17 -83 20 -105 13 -95 96 -165 195 -165 43 1 64 7 108 35 30 19 65 39 76 44
12 5 24 17 27 25 4 9 13 16 22 16 8 0 15 6 15 13 0 7 16 28 35 47 26 25 35 43
35 66 0 17 7 37 16 45 13 10 14 25 9 80 -8 80 -2 106 28 115 12 4 37 17 55 29
31 21 36 22 68 9 47 -20 63 -18 74 11 5 14 21 30 35 35 29 11 31 22 10 40 -8
7 -15 17 -15 23 0 6 -8 19 -17 29 -12 13 -17 39 -19 87 -3 94 -20 150 -57 189
-26 27 -38 32 -78 32 -39 0 -49 -4 -54 -20z"/>
<path d="M3616 20199 c-10 -14 -20 -19 -34 -15 -11 4 -24 0 -32 -9 -7 -8 -21
-15 -31 -15 -10 0 -21 -4 -24 -10 -3 -5 -14 -10 -23 -10 -10 0 -25 -9 -35 -20
-9 -11 -22 -20 -29 -20 -17 0 -93 -52 -138 -93 -19 -18 -64 -50 -100 -72 -69
-41 -230 -190 -230 -212 0 -7 -15 -30 -34 -50 -18 -21 -36 -50 -39 -64 -4 -15
-15 -37 -26 -50 -18 -22 -26 -24 -119 -23 -94 1 -103 2 -148 32 -55 35 -96 89
-99 130 -1 15 -3 30 -3 34 -2 9 -62 38 -77 38 -16 0 -25 -32 -25 -91 0 -25 -5
-59 -10 -76 -8 -22 -7 -38 5 -66 20 -49 35 -39 35 24 0 42 3 49 20 49 11 0 32
-14 47 -32 51 -58 78 -80 121 -99 55 -24 153 -25 187 -3 13 8 54 17 92 20 61
4 71 8 96 37 24 28 27 38 22 79 -5 40 -1 52 25 92 17 25 35 46 40 46 5 0 35
25 66 55 32 30 61 55 65 55 6 0 68 46 110 83 8 7 22 17 30 20 8 4 34 23 59 42
25 19 52 38 60 42 8 4 38 24 66 44 29 21 64 41 78 45 14 3 29 10 32 15 3 5 25
9 50 9 53 0 58 17 13 43 -39 22 -45 21 -63 -4z"/>
<path d="M16182 20097 c-6 -7 -11 -33 -11 -58 1 -24 -2 -68 -6 -96 -6 -45 -5
-54 10 -59 25 -10 51 25 71 93 17 58 14 92 -12 117 -19 19 -38 20 -52 3z"/>
<path d="M772 20063 c-6 -16 -14 -48 -17 -73 -4 -25 -11 -61 -17 -81 -9 -30
-7 -41 5 -60 16 -23 14 -61 -5 -86 -5 -6 -6 -22 -3 -36 4 -14 2 -33 -3 -44
-13 -23 4 -121 24 -144 8 -8 14 -29 14 -45 0 -16 5 -45 10 -64 28 -110 37
-131 58 -146 22 -15 25 -15 40 0 16 15 15 21 -7 79 -13 34 -33 111 -44 171
l-20 110 22 40 c28 55 27 64 -14 106 -33 34 -35 39 -25 66 19 48 27 174 15
212 -10 29 -20 28 -33 -5z"/>
<path d="M2745 20052 c-33 -16 -82 -34 -110 -42 -79 -21 -145 -51 -145 -67 0
-8 13 -28 30 -44 35 -35 49 -34 125 16 28 18 68 39 90 46 22 7 44 17 50 21 5
4 23 8 40 8 18 0 39 8 49 19 15 17 15 19 -1 39 -29 34 -62 35 -128 4z"/>
<path d="M1260 19951 c-14 -3 -40 -14 -57 -24 -18 -10 -33 -15 -33 -12 0 4
-12 0 -27 -8 -16 -8 -48 -20 -73 -27 -25 -7 -57 -21 -72 -31 -14 -11 -36 -19
-47 -19 -14 0 -21 -6 -21 -18 0 -10 -6 -24 -12 -31 -11 -11 -9 -12 7 -7 11 3
40 10 65 15 24 5 50 17 56 25 6 9 13 13 16 10 3 -2 30 6 59 19 30 14 72 31 94
38 22 7 47 18 55 25 8 7 24 14 35 16 11 2 21 11 23 21 4 18 -18 21 -68 8z"/>
<path d="M1440 19676 c0 -28 14 -35 23 -12 3 8 -1 20 -9 26 -12 10 -14 8 -14
-14z"/>
<path d="M1270 19662 c-31 -16 -35 -22 -33 -52 2 -39 32 -70 67 -70 23 0 116
79 116 98 0 17 -25 15 -40 -3 -16 -19 -30 -10 -30 21 0 29 -28 32 -80 6z"/>
<path d="M3742 19168 c-18 -18 -15 -32 13 -58 21 -19 30 -22 43 -14 24 16 27
42 6 65 -20 22 -44 25 -62 7z"/>
<path d="M3937 19053 c-4 -3 -7 -19 -7 -33 0 -38 -21 -53 -54 -40 -42 16 -101
12 -184 -12 -82 -24 -93 -32 -133 -94 -37 -57 -30 -83 42 -147 33 -28 59 -59
59 -67 0 -17 -29 -46 -65 -66 -51 -28 -72 -40 -94 -56 -30 -23 -65 -23 -86 -1
-15 14 -17 36 -14 157 l4 140 -28 15 c-28 16 -29 15 -63 -23 -19 -22 -34 -50
-34 -63 0 -12 -4 -23 -10 -23 -23 0 -8 -15 17 -17 43 -2 56 -28 50 -103 -7
-87 12 -126 75 -157 52 -26 70 -23 142 25 23 15 54 34 70 42 39 20 101 84 116
120 11 27 10 33 -14 64 -14 19 -40 43 -56 53 -38 22 -66 78 -50 99 28 33 118
74 163 74 51 0 72 -15 94 -68 15 -37 10 -162 -9 -192 -14 -21 -4 -50 17 -50 9
0 15 9 15 24 0 44 25 52 80 26 l49 -23 46 37 c25 21 43 42 40 47 -3 5 -1 18 5
29 6 11 8 25 5 31 -9 14 -35 -9 -35 -31 0 -41 -56 -31 -86 15 -12 19 -14 44
-11 128 4 82 2 109 -9 126 -15 21 -35 27 -47 14z"/>
<path d="M4272 19029 c-13 -5 -29 -23 -36 -41 -13 -30 -17 -32 -59 -29 -41 2
-45 0 -51 -24 -13 -52 -1 -65 64 -65 58 0 59 -1 102 -50 24 -28 74 -71 111
-95 84 -56 96 -79 73 -135 -9 -23 -19 -56 -21 -73 -6 -42 -33 -308 -33 -327 0
-8 -3 -35 -7 -60 -4 -25 -9 -70 -11 -100 -8 -105 -12 -135 -18 -150 -3 -8 -6
-31 -6 -50 0 -19 -2 -64 -5 -100 -3 -36 -7 -108 -10 -160 -2 -52 -6 -113 -9
-135 -10 -84 -20 -241 -18 -268 2 -15 -3 -58 -11 -95 -8 -37 -15 -108 -15
-159 0 -50 -5 -100 -11 -110 -5 -11 -6 -25 -1 -33 5 -8 5 -21 0 -29 -11 -21
-31 -269 -45 -561 -4 -80 -9 -148 -12 -152 -5 -10 -15 -261 -12 -318 1 -25 1
-54 0 -65 -1 -11 -3 -117 -5 -235 -4 -270 -15 -698 -21 -895 -3 -82 -8 -220
-10 -305 -3 -85 -8 -202 -10 -259 -3 -57 -7 -320 -10 -585 -7 -689 -15 -1211
-20 -1361 -3 -71 -7 -206 -10 -300 -3 -93 -8 -195 -10 -225 -3 -30 -7 -108
-10 -173 -8 -202 -25 -439 -36 -517 -6 -41 -12 -109 -13 -150 -1 -63 3 -81 23
-113 14 -23 30 -37 40 -35 14 3 16 22 17 143 1 77 7 172 13 212 13 88 37 473
47 753 3 113 8 228 9 255 7 120 16 739 20 1335 2 355 7 717 9 805 7 201 15
422 21 590 2 72 7 326 10 565 10 652 14 801 30 1015 2 28 6 101 9 163 3 61 8
116 11 122 3 5 8 55 11 112 3 57 7 117 9 133 2 17 6 83 9 148 4 65 11 128 16
141 5 13 6 33 3 44 -2 11 0 23 6 26 8 5 8 13 1 27 -6 11 -8 24 -5 29 7 11 14
98 20 230 3 52 7 120 10 150 17 180 25 254 35 330 6 47 12 130 15 185 2 55 9
142 15 194 6 51 9 100 5 108 -3 9 -1 21 4 27 13 16 29 154 26 227 -1 44 4 76
16 103 15 35 16 43 3 67 -9 18 -10 30 -4 34 15 10 12 35 -5 35 -8 0 -15 -7
-15 -15 0 -36 -80 -6 -124 45 -33 39 -33 66 -1 96 32 29 31 37 -2 73 -31 32
-75 44 -111 30z"/>
<path d="M971 18968 c-63 -10 -120 -23 -128 -30 -7 -6 -28 -12 -46 -14 -63 -5
-97 -16 -123 -41 -25 -23 -26 -29 -21 -83 6 -51 4 -62 -19 -95 -14 -21 -23
-39 -21 -41 11 -11 55 17 61 39 3 14 21 44 40 66 23 28 37 57 42 86 5 39 8 43
24 35 12 -6 21 -6 25 -1 6 10 13 11 85 11 25 0 59 5 75 10 43 13 291 20 303 8
15 -15 66 -5 70 13 10 51 -167 69 -367 37z"/>
<path d="M2440 18872 c-8 -3 -23 -13 -34 -24 -21 -19 -15 -34 18 -40 10 -1 28
-15 39 -29 17 -23 18 -31 8 -62 -7 -20 -21 -39 -32 -42 -10 -4 -19 -15 -19
-27 0 -14 -5 -18 -15 -14 -9 3 -15 0 -15 -10 0 -8 -16 -32 -36 -52 -39 -39
-69 -97 -59 -112 17 -27 47 -6 105 70 33 44 60 87 60 95 0 8 8 22 19 32 19 19
61 129 61 161 0 35 -62 68 -100 54z"/>
<path d="M2747 18863 c-9 -11 -17 -27 -17 -36 0 -13 6 -15 30 -11 41 9 80 -18
80 -54 -1 -31 -17 -55 -42 -65 -10 -3 -18 -11 -18 -17 0 -16 25 -12 53 10 14
11 29 20 35 20 40 0 56 96 23 139 -26 34 -117 42 -144 14z"/>
<path d="M1917 18843 c-17 -13 -37 -23 -44 -23 -8 0 -16 -7 -19 -15 -4 -8 -12
-15 -19 -15 -15 0 -45 -32 -45 -48 0 -18 31 -14 68 8 18 11 41 20 52 20 10 0
22 5 25 10 4 6 22 17 42 25 25 11 33 19 29 31 -3 8 -6 19 -6 24 0 16 -53 5
-83 -17z"/>
<path d="M1407 18823 c-3 -5 -2 -23 0 -41 6 -36 29 -56 114 -96 33 -15 60 -36
67 -50 10 -24 58 -41 86 -30 17 7 93 -18 161 -53 80 -42 83 -43 100 -37 37 15
-1 60 -92 109 -31 16 -61 39 -67 50 -16 30 -24 33 -70 28 -51 -6 -133 32 -214
100 -31 25 -76 36 -85 20z"/>
<path d="M3112 18778 c-31 -78 -53 -160 -47 -178 3 -10 17 -26 31 -35 25 -16
27 -16 47 6 33 35 95 133 90 142 -2 4 -11 7 -19 7 -10 0 -13 6 -9 18 7 25 -31
72 -59 72 -15 0 -25 -10 -34 -32z"/>
<path d="M2340 18789 c0 -5 5 -7 10 -4 6 3 10 8 10 11 0 2 -4 4 -10 4 -5 0
-10 -5 -10 -11z"/>
<path d="M2685 18790 c-3 -5 1 -10 10 -10 9 0 13 5 10 10 -3 6 -8 10 -10 10
-2 0 -7 -4 -10 -10z"/>
<path d="M2275 18750 c-10 -11 -24 -20 -32 -20 -7 0 -13 -6 -14 -12 -2 -30 -8
-51 -18 -57 -5 -3 -12 -18 -16 -33 -4 -15 -13 -29 -21 -32 -8 -3 -14 -15 -14
-26 0 -11 -8 -37 -19 -58 -21 -43 -38 -109 -46 -178 -10 -84 -14 -108 -23
-139 -19 -65 27 -163 65 -139 9 6 20 23 25 39 7 28 31 282 30 320 -5 153 -4
166 22 186 14 11 23 26 20 33 -3 7 15 35 40 62 26 27 45 53 43 58 -6 18 -24
16 -42 -4z"/>
<path d="M2665 18732 c-6 -4 -21 -22 -34 -39 -18 -26 -29 -33 -57 -33 -19 0
-34 -4 -34 -9 0 -6 22 -29 50 -53 42 -36 50 -48 50 -78 0 -43 48 -106 95 -126
33 -14 89 -6 150 21 32 15 59 50 50 65 -9 15 -24 12 -81 -11 -45 -19 -54 -20
-79 -8 -39 19 -65 58 -72 106 -5 36 -2 42 32 70 l36 30 -29 6 c-20 4 -33 15
-42 36 -13 32 -18 36 -35 23z"/>
<path d="M1145 18672 c-38 -1 -74 -7 -79 -13 -6 -5 -29 -9 -52 -9 -24 0 -46
-4 -49 -10 -3 -5 -18 -10 -33 -10 -15 0 -58 -14 -97 -30 -38 -17 -76 -30 -85
-30 -22 0 -60 -28 -60 -44 0 -21 31 -28 50 -11 9 8 30 15 46 15 16 0 38 7 48
15 11 8 32 15 47 15 15 0 30 4 33 9 6 9 32 15 141 31 125 18 190 40 182 63 -4
13 -6 14 -92 9z"/>
<path d="M542 18578 c-7 -7 -12 -20 -12 -30 0 -10 -4 -18 -10 -18 -16 0 -75
-144 -67 -164 3 -9 2 -18 -3 -21 -31 -19 10 -118 65 -160 32 -25 42 -27 134
-27 84 0 114 5 202 33 57 19 109 34 114 35 10 1 32 9 73 25 13 5 31 9 41 9 10
0 30 9 44 21 23 17 25 23 14 40 -15 25 -56 21 -122 -11 -23 -11 -53 -23 -66
-25 -12 -3 -27 -9 -33 -15 -5 -5 -19 -10 -31 -10 -11 0 -30 -7 -41 -15 -15
-10 -56 -15 -135 -17 -128 -3 -152 5 -190 65 -24 38 -21 102 6 143 17 26 33
28 77 9 13 -5 27 2 48 25 34 36 31 47 -15 52 -21 2 -36 13 -50 35 -22 36 -26
38 -43 21z"/>
<path d="M1498 18532 c-16 -9 -28 -25 -28 -34 0 -9 -4 -20 -10 -23 -35 -21 15
-108 59 -103 24 3 26 7 28 53 2 28 4 66 5 85 3 41 -13 47 -54 22z"/>
<path d="M11342 13138 c-19 -25 -22 -55 -9 -86 9 -23 11 -51 5 -99 -20 -180
-28 -278 -34 -424 -7 -167 -2 -189 37 -189 34 0 41 31 54 260 3 47 12 141 19
210 29 249 31 298 11 320 -20 22 -67 27 -83 8z"/>
<path d="M15376 12997 c-33 -34 -47 -61 -68 -132 -15 -50 -32 -117 -37 -150
-6 -33 -17 -100 -26 -150 -25 -147 -19 -195 25 -195 25 0 40 44 51 145 5 49
13 99 18 111 16 37 78 47 217 33 68 -6 139 -9 158 -6 46 7 58 -8 50 -65 -6
-43 -5 -46 36 -81 44 -37 199 -108 348 -157 77 -26 122 -52 122 -71 0 -18
-121 -29 -338 -31 -128 -1 -235 -4 -237 -8 -19 -32 92 -45 370 -43 184 0 237
3 267 16 75 32 67 88 -17 121 -92 36 -190 78 -226 96 -20 10 -70 32 -111 49
-86 36 -138 82 -122 108 20 33 91 43 306 43 113 0 213 3 222 6 21 8 20 37 -2
58 -16 13 -43 16 -168 17 -82 0 -183 -5 -224 -12 -81 -12 -239 -6 -318 12 -26
7 -105 14 -177 18 -122 6 -130 7 -133 27 -5 32 36 129 74 179 38 51 43 80 15
95 -29 15 -31 14 -75 -33z"/>
<path d="M11994 12875 c-70 -30 -125 -89 -170 -182 -20 -43 -40 -73 -47 -70
-7 2 -13 27 -15 60 -2 45 -7 59 -24 68 -17 9 -24 7 -41 -9 -16 -16 -21 -38
-25 -100 -5 -92 9 -145 44 -169 22 -14 26 -14 49 1 14 9 29 33 35 58 7 23 37
80 67 127 92 142 126 167 157 119 19 -29 22 -85 11 -210 -7 -84 -5 -101 9
-123 13 -19 24 -25 44 -23 26 3 27 6 33 73 10 113 10 277 -1 316 -17 62 -69
89 -126 64z"/>
<path d="M12604 12840 c-11 -4 -41 -32 -67 -60 -46 -54 -52 -55 -93 -25 -19
14 -23 14 -44 -3 -20 -16 -24 -32 -31 -113 -4 -52 -13 -112 -18 -134 -13 -51
4 -89 40 -93 37 -4 53 20 93 145 20 61 46 123 56 136 11 14 20 29 20 34 0 14
45 35 66 31 30 -5 45 -79 42 -204 -3 -123 5 -147 51 -142 20 2 27 10 34 43 13
60 1 264 -19 313 -26 66 -76 94 -130 72z"/>
<path d="M14852 12819 c-55 -22 -92 -105 -92 -208 0 -37 4 -81 9 -99 7 -24 6
-35 -5 -46 -21 -22 -204 -57 -249 -48 -32 6 -65 49 -94 123 -27 68 -66 108
-113 115 -41 7 -70 -6 -152 -70 -33 -25 -65 -46 -72 -46 -22 0 -25 33 -6 60
36 49 37 79 1 92 -25 9 -53 -15 -86 -74 -63 -111 -65 -158 -9 -185 29 -13 35
-13 67 1 19 9 59 36 89 61 30 24 59 44 63 45 4 0 21 9 36 21 44 33 67 19 106
-65 51 -109 100 -143 214 -153 58 -5 75 -2 131 22 97 41 112 41 151 8 39 -34
100 -64 132 -66 52 -2 87 4 102 19 15 15 15 18 -1 35 -13 14 -26 17 -63 12
-55 -6 -107 15 -120 50 -12 30 -1 47 62 95 67 50 96 95 104 160 5 45 3 52 -27
86 -54 62 -116 81 -178 55z m113 -90 c19 -36 19 -72 -1 -112 -35 -69 -91 -107
-110 -75 -24 39 13 209 48 220 24 8 49 -4 63 -33z"/>
<path d="M13030 12812 c-69 -32 -120 -113 -120 -194 0 -118 123 -262 189 -221
24 15 20 30 -18 57 -63 47 -92 116 -54 130 9 4 53 10 98 13 178 14 226 127 84
199 -48 24 -142 32 -179 16z m149 -71 c46 -36 0 -85 -93 -97 -75 -11 -102 27
-57 80 33 39 110 48 150 17z"/>
<path d="M13561 12784 c-93 -46 -148 -114 -185 -225 -14 -43 -26 -91 -26 -107
0 -62 75 -109 100 -63 6 11 7 44 4 79 -6 51 -3 68 20 118 42 92 85 127 198
161 52 15 68 34 48 58 -21 26 -82 18 -159 -21z"/>
<path d="M500 11931 c-8 -6 -26 -11 -40 -11 -15 0 -30 -4 -35 -9 -6 -5 -30
-16 -55 -25 -113 -39 -134 -48 -165 -71 -17 -14 -38 -25 -45 -25 -22 0 -108
-63 -119 -87 -6 -13 -17 -23 -26 -23 -11 0 -15 -10 -15 -35 0 -19 1 -35 3 -35
2 0 28 23 58 51 30 27 74 61 99 73 25 13 68 36 95 51 28 15 64 31 80 36 17 5
57 15 90 24 33 9 70 21 81 27 27 13 103 1 127 -20 9 -8 17 -25 17 -37 0 -32
33 -70 54 -62 40 15 31 86 -17 141 -30 35 -36 37 -102 42 -41 3 -76 1 -85 -5z"/>
<path d="M1125 11831 c-17 -8 -44 -51 -76 -126 -8 -18 -28 -88 -48 -170 -4
-17 -13 -40 -19 -52 -7 -12 -19 -59 -27 -105 -9 -45 -21 -99 -27 -118 -6 -19
-11 -49 -9 -67 1 -17 -2 -34 -7 -37 -10 -6 -17 -103 -17 -253 0 -92 2 -105 21
-124 12 -12 27 -18 33 -15 6 4 10 58 10 144 0 136 15 252 46 362 9 30 20 75
25 100 25 132 134 412 163 423 9 3 9 9 1 23 -13 22 -40 27 -69 15z"/>
<path d="M10847 11590 c-95 -21 -202 -67 -231 -99 -25 -28 -23 -71 4 -93 35
-28 43 -24 80 39 30 50 93 73 270 98 174 24 403 14 605 -26 33 -7 68 -16 78
-21 25 -13 50 8 37 32 -26 49 -216 79 -540 86 -188 3 -226 1 -303 -16z"/>
<path d="M11182 11493 c-15 -41 -29 -120 -52 -293 -11 -85 -25 -182 -30 -215
-6 -33 -13 -154 -16 -270 -4 -163 -2 -215 8 -234 34 -62 85 -52 80 15 -1 22
-3 103 -3 180 0 134 7 203 72 696 9 69 9 94 -1 118 -16 38 -44 39 -58 3z"/>
<path d="M2 11436 c3 -48 5 -51 53 -79 43 -26 187 -81 342 -132 52 -17 187
-82 235 -113 43 -28 88 -89 88 -120 0 -34 -64 -97 -150 -147 -44 -25 -84 -45
-90 -45 -7 0 -23 -9 -37 -20 -14 -11 -41 -22 -62 -26 -20 -3 -45 -12 -56 -19
-11 -6 -40 -15 -65 -18 -91 -13 -123 -22 -134 -39 -8 -14 -7 -22 7 -35 15 -16
23 -16 89 -4 40 8 82 14 93 15 11 1 47 15 80 30 106 50 140 64 163 71 12 3 22
10 22 14 0 5 25 21 56 37 31 16 63 39 72 52 8 13 27 29 42 37 22 11 28 23 34
61 12 89 -31 170 -112 211 -20 10 -55 30 -77 44 -22 14 -60 33 -85 43 -25 10
-58 24 -75 31 -16 8 -84 32 -151 54 -142 46 -242 93 -267 124 -17 22 -17 21
-15 -27z"/>
<path d="M1946 11328 c-9 -49 -28 -377 -22 -395 4 -11 18 -26 31 -33 22 -12
29 -11 53 7 15 11 54 55 87 98 33 43 68 83 78 89 28 17 63 -30 72 -96 11 -85
53 -212 85 -256 60 -83 150 -95 228 -32 39 31 122 142 122 162 0 6 9 21 20 35
11 14 27 48 35 76 29 98 63 121 102 69 24 -33 36 -66 38 -107 1 -16 2 -48 3
-71 3 -57 51 -125 119 -168 69 -43 121 -53 164 -32 18 9 51 16 73 16 28 0 50
8 71 24 31 25 32 29 26 168 -3 47 2 65 27 112 27 49 95 123 126 136 6 3 32 19
56 36 42 29 80 44 188 75 73 21 80 60 14 79 -32 8 -47 5 -131 -31 -113 -48
-165 -84 -246 -171 -99 -104 -109 -127 -110 -241 l-1 -98 -36 -36 -36 -36 -69
19 c-52 15 -77 28 -108 59 -45 45 -79 129 -73 185 l3 35 75 5 c64 5 84 11 137
43 34 21 83 58 108 82 38 38 45 50 45 84 0 49 -30 87 -83 105 -38 13 -68 7
-157 -32 -42 -18 -134 -121 -141 -157 -6 -28 -45 -32 -59 -5 -8 16 -7 33 6 75
14 44 15 57 4 69 -16 20 -50 21 -50 1 0 -16 -31 -87 -41 -95 -4 -3 -14 -21
-22 -42 -8 -20 -26 -47 -39 -60 -24 -24 -35 -41 -95 -153 -46 -85 -133 -175
-169 -175 -14 0 -34 5 -45 10 -26 15 -57 78 -68 142 -23 131 -58 242 -85 265
-54 46 -83 29 -203 -115 -31 -37 -38 -41 -50 -29 -11 11 -12 27 -3 88 6 41 12
85 14 99 2 14 7 41 11 61 9 50 -7 79 -45 79 -23 0 -31 -5 -34 -22z m1272 -91
c34 -27 3 -80 -68 -114 -89 -43 -139 -56 -171 -43 -64 27 -21 82 120 152 54
27 89 29 119 5z"/>
<path d="M1381 11258 c-83 -101 -89 -118 -84 -232 2 -50 6 -101 9 -113 9 -44
86 -103 135 -103 37 0 162 65 194 101 53 60 67 90 72 153 4 51 0 68 -20 106
-37 68 -78 92 -152 88 -33 -1 -79 1 -101 6 -30 5 -45 4 -53 -6z m219 -83 c10
-9 25 -36 33 -59 13 -39 13 -46 -4 -81 -38 -78 -125 -145 -188 -145 -37 0 -67
35 -76 90 -7 42 2 66 40 104 20 20 23 31 19 55 -4 17 -5 31 -3 31 2 0 22 7 44
15 48 18 109 13 135 -10z"/>
<path d="M12308 11073 c-9 -10 -19 -36 -22 -58 -17 -100 -84 -160 -261 -229
-92 -37 -141 -44 -175 -26 -101 54 35 201 214 232 71 12 86 22 86 54 0 74
-238 6 -348 -99 -35 -34 -56 -70 -72 -126 -11 -40 10 -95 44 -113 101 -55 314
-5 427 100 56 52 87 63 107 40 5 -7 21 -46 36 -85 38 -108 59 -144 111 -192
70 -64 145 -96 227 -96 50 0 72 4 84 17 27 27 3 44 -67 51 -77 7 -159 47 -199
97 -68 85 -120 245 -120 365 0 53 -3 66 -19 75 -27 14 -35 13 -53 -7z"/>
<path d="M14120 11084 c-19 -3 -44 -9 -55 -14 -11 -5 -41 -17 -66 -28 -64 -27
-123 -83 -141 -134 -39 -110 -42 -126 -28 -170 16 -56 52 -117 87 -149 28 -26
127 -89 140 -89 4 0 25 -9 47 -19 45 -22 162 -64 241 -87 28 -9 79 -26 115
-39 36 -13 82 -25 102 -28 21 -3 82 -22 137 -43 105 -38 135 -39 129 -2 -3 22
-10 25 -148 64 -30 9 -77 25 -105 36 -27 11 -63 24 -80 28 -97 26 -360 129
-424 167 -89 52 -158 132 -145 168 10 25 38 35 102 35 104 0 205 25 357 87
107 44 129 85 78 140 -55 58 -211 93 -343 77z m212 -78 c40 -17 63 -41 53 -56
-13 -21 -73 -44 -215 -83 -80 -22 -167 -40 -195 -41 -48 -1 -50 0 -53 28 -4
32 40 85 93 114 93 49 246 67 317 38z"/>
<path d="M13507 10967 c-150 -50 -285 -155 -340 -264 -9 -17 -34 -51 -55 -76
-36 -42 -39 -50 -55 -163 -10 -65 -24 -165 -32 -220 -8 -56 -15 -131 -15 -168
0 -62 1 -66 25 -72 55 -14 55 -15 75 221 34 389 114 529 382 667 98 51 136 58
163 32 48 -48 -60 -145 -363 -325 -37 -21 -36 -53 1 -57 28 -3 134 44 169 75
9 8 39 27 67 42 72 38 151 110 188 172 47 80 50 103 19 134 -25 25 -32 26
-101 23 -42 -2 -99 -11 -128 -21z"/>
<path d="M1128 10283 c-28 -32 -109 -242 -138 -358 -31 -127 -46 -276 -30
-314 13 -33 44 -47 83 -37 22 5 113 67 153 103 12 11 38 30 57 42 l36 22 16
-24 c8 -13 19 -55 24 -93 5 -38 16 -85 24 -104 28 -66 98 -110 172 -110 40 0
52 -5 93 -44 61 -56 113 -74 147 -52 14 9 25 20 25 24 -1 8 -71 42 -87 42 -15
0 -43 34 -43 52 0 15 35 42 99 77 90 49 141 137 141 242 0 53 -4 72 -22 95
-32 41 -37 44 -98 44 -65 0 -97 -17 -162 -85 -56 -58 -73 -117 -64 -226 4 -54
2 -81 -7 -94 -13 -17 -16 -17 -60 3 -59 26 -79 65 -100 193 -9 53 -22 109 -28
123 -26 55 -83 41 -167 -41 -107 -106 -155 -129 -167 -80 -7 28 -1 92 13 127
15 40 30 92 37 135 4 22 10 44 13 50 3 5 19 46 34 89 15 44 39 97 53 118 27
41 31 68 13 86 -17 17 -42 15 -60 -5z m681 -479 c21 -15 23 -22 17 -67 -9 -64
-18 -81 -89 -161 -41 -47 -65 -66 -82 -66 -78 0 -46 188 48 282 33 32 71 36
106 12z"/>
<path d="M366 10105 c-37 -19 -76 -41 -85 -49 -10 -9 -21 -16 -25 -16 -12 0
-78 -52 -127 -100 -25 -25 -58 -72 -74 -105 -25 -52 -29 -72 -29 -150 -1 -130
16 -191 74 -268 79 -104 161 -134 300 -107 77 15 134 32 151 46 8 8 25 14 38
14 30 0 38 27 14 51 -18 19 -22 19 -54 6 -82 -35 -145 -50 -218 -51 -67 -1
-83 2 -114 24 -50 34 -91 94 -111 160 -24 81 -13 206 26 283 15 31 32 57 37
57 4 0 24 15 44 33 69 62 86 74 150 105 95 46 168 45 214 -4 28 -30 79 -33 88
-4 9 27 -20 77 -55 95 -19 10 -55 15 -102 14 -62 0 -84 -6 -142 -34z"/>
<path d="M4515 9864 c-145 -35 -363 -130 -472 -205 -92 -64 -125 -101 -165
-188 -21 -46 -51 -96 -66 -110 -45 -43 -106 -81 -129 -81 -27 0 -60 40 -73 91
-12 45 -6 134 10 154 6 8 44 30 83 49 113 55 163 120 147 192 -13 57 -58 94
-114 94 -38 0 -48 -5 -75 -35 -17 -20 -53 -83 -81 -141 -47 -101 -50 -110 -52
-202 -3 -119 10 -165 62 -224 53 -61 78 -65 165 -24 93 44 141 90 185 180 40
81 75 126 130 168 46 35 200 115 270 140 125 46 164 58 190 58 14 0 54 9 89
21 57 19 62 23 59 48 -3 24 -7 26 -53 28 -27 1 -77 -5 -110 -13z m-739 -110
c4 -15 3 -38 -2 -53 -11 -31 -68 -71 -102 -71 -23 0 -24 3 -19 35 8 46 63 115
93 115 17 0 25 -7 30 -26z"/>
<path d="M3244 9779 c-3 -6 -30 -22 -59 -35 -29 -12 -56 -28 -60 -34 -3 -5
-22 -17 -42 -25 -19 -8 -70 -50 -112 -92 -85 -86 -143 -188 -161 -281 -5 -30
-12 -57 -15 -61 -18 -30 -22 -372 -5 -417 35 -91 100 -81 122 18 44 199 54
429 23 504 -21 50 -19 65 10 105 41 55 166 179 197 195 16 8 38 24 49 35 23
23 65 25 73 3 11 -28 7 -43 -29 -115 -39 -78 -58 -107 -128 -184 -50 -55 -53
-76 -15 -96 14 -8 25 -7 43 5 54 36 162 205 209 329 37 99 17 157 -55 157 -21
0 -41 -5 -45 -11z m-351 -532 c6 -15 -10 -251 -18 -278 -15 -47 -37 -5 -38 74
-2 59 13 179 24 200 11 20 25 22 32 4z"/>
<path d="M2403 9750 c-22 -9 -26 -21 -37 -120 -3 -25 -12 -59 -20 -75 -9 -17
-16 -36 -16 -43 0 -17 -84 -98 -133 -129 -64 -40 -100 -12 -92 71 9 83 39 113
106 102 42 -7 59 9 59 58 0 72 -141 49 -200 -33 -56 -77 -56 -219 0 -275 27
-27 99 -29 127 -3 11 9 27 17 36 17 9 0 31 21 49 46 47 66 77 96 91 92 7 -3
17 -22 24 -44 7 -21 23 -73 35 -114 39 -128 93 -190 166 -190 31 0 42 6 61 31
19 25 21 33 10 40 -8 4 -25 6 -39 2 -26 -6 -28 -6 -47 -4 -20 2 -58 69 -85
151 -42 124 -51 186 -44 293 4 61 2 105 -4 118 -12 21 -15 22 -47 9z"/>
<path d="M20138 1609 c-37 -21 -9 -87 30 -75 36 12 46 42 22 66 -23 23 -28 24
-52 9z"/>
</g>
</svg>
