<?xml version="1.0" standalone="no"?>
<!DOCTYPE svg PUBLIC "-//W3C//DTD SVG 20010904//EN"
 "http://www.w3.org/TR/2001/REC-SVG-20010904/DTD/svg10.dtd">
<svg version="1.0" xmlns="http://www.w3.org/2000/svg"
 width="2448.000000pt" height="3264.000000pt" viewBox="0 0 2448.000000 3264.000000"
 preserveAspectRatio="xMidYMid meet">
<metadata>
Created by potrace 1.12, written by Peter Selinger 2001-2015
</metadata>
<g transform="translate(0.000000,3264.000000) scale(0.100000,-0.100000)"
fill="#000000" stroke="none">
<path d="M1125 32612 c-8 -39 3 -316 13 -320 5 -1 15 4 22 13 9 11 10 33 2 92
-10 86 -8 92 41 109 27 10 32 15 29 40 -2 15 -10 43 -17 61 -12 28 -19 33 -49
33 -30 0 -35 -4 -41 -28z"/>
<path d="M1388 32513 c7 -3 16 -2 19 1 4 3 -2 6 -13 5 -11 0 -14 -3 -6 -6z"/>
<path d="M1740 32510 c0 -5 5 -10 10 -10 6 0 10 5 10 10 0 6 -4 10 -10 10 -5
0 -10 -4 -10 -10z"/>
<path d="M2515 32500 c-3 -5 1 -10 10 -10 9 0 13 5 10 10 -3 6 -8 10 -10 10
-2 0 -7 -4 -10 -10z"/>
<path d="M685 32293 c-48 -7 -51 -19 -16 -59 28 -31 32 -42 26 -70 -6 -36 -7
-257 -1 -364 11 -192 26 -580 31 -800 2 -69 6 -197 9 -285 3 -88 8 -241 11
-340 3 -99 7 -220 10 -270 4 -83 11 -328 20 -740 2 -88 6 -221 9 -295 7 -154
15 -496 21 -845 2 -132 7 -321 9 -420 11 -370 17 -637 21 -865 2 -129 7 -345
9 -480 3 -135 8 -369 11 -520 3 -151 7 -390 10 -530 3 -140 7 -325 10 -410 3
-85 7 -267 10 -405 3 -137 7 -324 10 -415 3 -91 7 -282 10 -425 3 -143 7 -285
10 -315 2 -30 7 -197 10 -370 4 -173 8 -342 10 -375 2 -33 6 -166 9 -295 4
-129 8 -291 11 -360 9 -234 15 -405 20 -620 3 -118 10 -336 15 -485 5 -148 12
-358 15 -465 20 -713 26 -896 30 -980 3 -52 9 -264 15 -470 5 -206 12 -422 15
-480 3 -58 7 -213 10 -345 3 -132 8 -283 10 -335 3 -52 14 -423 25 -825 11
-401 22 -800 25 -885 2 -85 7 -256 10 -380 3 -124 10 -385 15 -580 5 -195 12
-456 15 -580 3 -124 8 -299 10 -390 3 -91 10 -361 15 -600 18 -804 56 -2352
65 -2615 6 -205 13 -469 20 -765 3 -129 8 -309 10 -400 3 -91 10 -318 15 -505
17 -612 20 -707 30 -990 32 -892 53 -1512 75 -2155 6 -184 14 -384 20 -495 2
-44 7 -163 10 -265 3 -102 8 -239 10 -305 3 -66 7 -192 10 -280 3 -88 7 -203
10 -255 3 -52 8 -194 11 -315 3 -121 8 -222 9 -225 2 -3 6 -134 10 -290 3
-157 8 -339 11 -405 7 -207 18 -629 29 -1135 3 -124 8 -292 11 -375 3 -82 7
-235 9 -340 2 -104 7 -284 10 -400 3 -116 8 -289 10 -385 2 -96 7 -242 11
-325 4 -82 8 -186 9 -230 0 -44 2 -99 3 -122 l2 -43 45 0 44 0 -4 63 c-5 55
-17 464 -30 1002 -3 99 -7 241 -10 315 -2 74 -7 227 -10 340 -12 473 -16 631
-25 930 -5 173 -12 410 -15 525 -5 180 -15 482 -40 1240 -3 88 -8 210 -10 270
-3 61 -12 304 -20 540 -8 237 -19 536 -25 665 -5 129 -14 359 -20 510 -5 151
-14 399 -20 550 -5 151 -15 419 -20 595 -6 176 -12 372 -15 435 -7 150 -56
1808 -70 2335 -2 105 -7 307 -10 450 -3 143 -7 321 -10 395 -3 74 -10 326 -15
560 -6 234 -12 499 -15 590 -15 507 -17 577 -30 1175 -3 121 -7 294 -10 385
-3 91 -7 291 -10 445 -3 154 -7 350 -10 435 -3 85 -8 216 -10 290 -3 74 -7
266 -10 425 -3 160 -8 319 -10 355 -2 36 -6 184 -10 330 -3 146 -7 306 -10
355 -3 50 -7 198 -10 330 -3 132 -8 303 -10 380 -2 77 -7 235 -10 350 -3 116
-7 264 -10 330 -3 66 -7 208 -10 315 -3 107 -7 258 -10 335 -3 77 -7 208 -10
290 -3 83 -10 276 -15 430 -14 401 -29 860 -35 1080 -3 105 -10 309 -15 455
-5 146 -12 333 -15 415 -18 531 -25 750 -30 900 -6 209 -23 716 -35 1085 -5
151 -9 325 -10 385 0 61 -3 142 -5 180 -2 39 -7 198 -10 355 -4 157 -8 330
-10 385 -2 55 -6 222 -9 370 -4 149 -8 342 -11 430 -3 88 -7 275 -10 415 -3
140 -7 323 -10 405 -3 83 -7 276 -10 430 -6 305 -12 577 -20 865 -3 102 -7
286 -10 410 -4 124 -8 293 -10 375 -3 83 -7 249 -10 370 -3 121 -8 265 -10
320 -3 55 -7 215 -10 355 -2 140 -7 291 -10 335 -5 85 -11 271 -21 605 -3 113
-7 225 -9 250 -3 25 -7 128 -10 230 -18 564 -18 572 -5 580 11 7 11 11 1 24
-7 8 -12 39 -11 73 1 32 -3 105 -8 163 -6 58 -11 186 -11 285 -1 99 -5 209
-10 245 -11 86 -2 109 44 110 26 0 114 84 97 93 -4 2 -23 7 -42 11 -20 3 -43
15 -53 26 -17 20 -36 22 -102 13z"/>
<path d="M1048 32253 c-44 -7 -32 -18 22 -21 57 -3 85 7 54 19 -20 8 -33 8
-76 2z"/>
<path d="M1267 32253 c-20 -2 -35 -8 -32 -14 8 -12 135 -12 135 1 0 6 -6 10
-12 10 -7 0 -22 2 -33 4 -11 2 -37 1 -58 -1z"/>
<path d="M915 32240 c3 -5 26 -10 51 -10 28 0 43 4 39 10 -3 6 -26 10 -51 10
-28 0 -43 -4 -39 -10z"/>
<path d="M4600 32210 c-8 -5 -11 -12 -7 -16 4 -4 13 -2 19 4 15 15 7 24 -12
12z"/>
<path d="M3975 32200 c3 -5 13 -10 21 -10 8 0 14 5 14 10 0 6 -9 10 -21 10
-11 0 -17 -4 -14 -10z"/>
<path d="M5066 32201 c-3 -5 0 -11 8 -14 15 -6 26 1 26 15 0 11 -27 10 -34 -1z"/>
<path d="M5127 32204 c-12 -12 4 -24 30 -24 21 0 24 2 13 15 -13 16 -32 20
-43 9z"/>
<path d="M5866 32202 c-3 -6 -1 -14 5 -17 15 -10 25 3 12 16 -7 7 -13 7 -17 1z"/>
<path d="M5975 32200 c3 -5 8 -10 11 -10 2 0 4 5 4 10 0 6 -5 10 -11 10 -5 0
-7 -4 -4 -10z"/>
<path d="M6040 32200 c0 -5 7 -10 16 -10 8 0 12 5 9 10 -3 6 -10 10 -16 10 -5
0 -9 -4 -9 -10z"/>
<path d="M6585 32200 c-3 -5 1 -10 9 -10 9 0 16 5 16 10 0 6 -4 10 -9 10 -6 0
-13 -4 -16 -10z"/>
<path d="M7305 32201 c-6 -11 9 -23 19 -14 9 9 7 23 -3 23 -6 0 -12 -4 -16 -9z"/>
<path d="M7350 32201 c0 -11 25 -21 56 -21 35 0 30 16 -7 24 -42 8 -49 8 -49
-3z"/>
<path d="M7565 32201 c-7 -12 12 -24 25 -16 11 7 4 25 -10 25 -5 0 -11 -4 -15
-9z"/>
<path d="M11415 32201 c-3 -5 -1 -12 5 -16 5 -3 10 1 10 9 0 18 -6 21 -15 7z"/>
<path d="M5745 32190 c3 -5 10 -10 16 -10 5 0 9 5 9 10 0 6 -7 10 -16 10 -8 0
-12 -4 -9 -10z"/>
<path d="M6765 32190 c-4 -6 5 -10 19 -10 14 0 26 5 26 10 0 6 -9 10 -19 10
-11 0 -23 -4 -26 -10z"/>
<path d="M6860 32190 c0 -5 6 -10 14 -10 8 0 18 5 21 10 3 6 -3 10 -14 10 -12
0 -21 -4 -21 -10z"/>
<path d="M7145 32190 c3 -5 10 -10 16 -10 5 0 9 5 9 10 0 6 -7 10 -16 10 -8 0
-12 -4 -9 -10z"/>
<path d="M7200 32190 c0 -5 5 -10 10 -10 6 0 10 5 10 10 0 6 -4 10 -10 10 -5
0 -10 -4 -10 -10z"/>
<path d="M7525 32190 c-3 -5 1 -10 9 -10 9 0 16 5 16 10 0 6 -4 10 -9 10 -6 0
-13 -4 -16 -10z"/>
<path d="M8555 32190 c4 -6 11 -8 16 -5 14 9 11 15 -7 15 -8 0 -12 -5 -9 -10z"/>
<path d="M9697 32194 c-8 -8 1 -24 14 -24 5 0 9 7 9 15 0 15 -12 20 -23 9z"/>
<path d="M9830 32190 c0 -5 7 -10 16 -10 8 0 12 5 9 10 -3 6 -10 10 -16 10 -5
0 -9 -4 -9 -10z"/>
<path d="M10375 32190 c-3 -5 -2 -10 4 -10 5 0 13 5 16 10 3 6 2 10 -4 10 -5
0 -13 -4 -16 -10z"/>
<path d="M10603 32190 c-28 -11 -30 -20 -4 -20 10 0 21 7 25 15 3 8 4 15 3 14
-1 0 -12 -4 -24 -9z"/>
<path d="M6398 32183 c7 -3 16 -2 19 1 4 3 -2 6 -13 5 -11 0 -14 -3 -6 -6z"/>
<path d="M8375 32180 c-3 -5 -1 -10 4 -10 6 0 11 5 11 10 0 6 -2 10 -4 10 -3
0 -8 -4 -11 -10z"/>
<path d="M10230 32180 c0 -13 11 -13 30 0 12 8 11 10 -7 10 -13 0 -23 -4 -23
-10z"/>
<path d="M11248 32183 c7 -3 16 -2 19 1 4 3 -2 6 -13 5 -11 0 -14 -3 -6 -6z"/>
<path d="M11560 32180 c0 -5 5 -10 10 -10 6 0 10 5 10 10 0 6 -4 10 -10 10 -5
0 -10 -4 -10 -10z"/>
<path d="M11895 32180 c-3 -5 3 -10 14 -10 12 0 21 5 21 10 0 6 -6 10 -14 10
-8 0 -18 -4 -21 -10z"/>
<path d="M11975 32180 c3 -5 8 -10 11 -10 2 0 4 5 4 10 0 6 -5 10 -11 10 -5 0
-7 -4 -4 -10z"/>
<path d="M12175 32180 c3 -5 8 -10 11 -10 2 0 4 5 4 10 0 6 -5 10 -11 10 -5 0
-7 -4 -4 -10z"/>
<path d="M13240 32180 c0 -5 7 -10 15 -10 8 0 15 5 15 10 0 6 -7 10 -15 10 -8
0 -15 -4 -15 -10z"/>
<path d="M14025 32180 c3 -5 10 -10 16 -10 5 0 9 5 9 10 0 6 -7 10 -16 10 -8
0 -12 -4 -9 -10z"/>
<path d="M14268 32178 c9 -9 15 -9 24 0 9 9 7 12 -12 12 -19 0 -21 -3 -12 -12z"/>
<path d="M14650 32180 c0 -5 9 -10 20 -10 11 0 20 5 20 10 0 6 -9 10 -20 10
-11 0 -20 -4 -20 -10z"/>
<path d="M15350 32180 c0 -5 5 -10 11 -10 5 0 7 5 4 10 -3 6 -8 10 -11 10 -2
0 -4 -4 -4 -10z"/>
<path d="M15705 32180 c-3 -5 -1 -10 4 -10 6 0 11 5 11 10 0 6 -2 10 -4 10 -3
0 -8 -4 -11 -10z"/>
<path d="M13128 32173 c7 -3 16 -2 19 1 4 3 -2 6 -13 5 -11 0 -14 -3 -6 -6z"/>
<path d="M13473 32173 c9 -2 23 -2 30 0 6 3 -1 5 -18 5 -16 0 -22 -2 -12 -5z"/>
<path d="M15495 32170 c4 -6 11 -8 16 -5 14 9 11 15 -7 15 -8 0 -12 -5 -9 -10z"/>
<path d="M15545 32170 c-3 -5 1 -10 10 -10 9 0 13 5 10 10 -3 6 -8 10 -10 10
-2 0 -7 -4 -10 -10z"/>
<path d="M20035 32170 c3 -5 8 -10 11 -10 2 0 4 5 4 10 0 6 -5 10 -11 10 -5 0
-7 -4 -4 -10z"/>
<path d="M21080 32166 c0 -9 7 -16 16 -16 17 0 14 22 -4 28 -7 2 -12 -3 -12
-12z"/>
<path d="M18318 32163 c7 -3 16 -2 19 1 4 3 -2 6 -13 5 -11 0 -14 -3 -6 -6z"/>
<path d="M20380 32160 c0 -5 5 -10 10 -10 6 0 10 5 10 10 0 6 -4 10 -10 10 -5
0 -10 -4 -10 -10z"/>
<path d="M181 31424 c0 -11 3 -14 6 -6 3 7 2 16 -1 19 -3 4 -6 -2 -5 -13z"/>
<path d="M183 31358 c3 -12 1 -30 -5 -41 -9 -17 -8 -19 7 -14 9 4 21 7 26 7 5
0 9 7 9 15 0 8 -4 15 -10 15 -5 0 -10 9 -10 20 0 11 -5 20 -11 20 -7 0 -9 -9
-6 -22z"/>
<path d="M7931 31312 c-6 -10 -15 -57 -21 -103 -6 -46 -16 -113 -21 -149 -5
-36 -14 -96 -19 -135 -5 -38 -14 -86 -20 -105 -5 -19 -10 -76 -10 -127 0 -80
-2 -94 -19 -102 -14 -8 -25 -6 -42 7 -111 83 -258 40 -334 -96 -31 -55 -55
-134 -55 -180 0 -46 35 -101 75 -118 52 -21 184 -34 254 -24 35 5 65 11 68 14
10 9 -9 26 -29 26 -11 0 -26 7 -32 15 -7 9 -35 17 -76 21 -111 9 -131 14 -156
41 -31 34 -30 55 5 129 65 138 196 165 277 59 22 -30 29 -51 35 -123 13 -140
19 -162 44 -168 31 -8 63 11 71 42 11 44 -5 137 -37 203 l-30 65 16 95 c9 53
21 113 26 133 5 20 23 117 39 216 29 179 50 273 71 325 9 21 8 31 -1 42 -18
21 -67 19 -79 -3z"/>
<path d="M5208 31246 c-128 -36 -259 -157 -318 -293 -24 -56 -30 -69 -39 -83
-5 -8 -14 -28 -21 -45 -7 -16 -16 -38 -21 -47 -5 -10 -9 -29 -9 -43 0 -14 -7
-42 -15 -62 -16 -38 -21 -123 -7 -123 5 0 14 19 20 43 35 136 47 176 63 208
11 20 19 43 19 50 0 8 6 25 14 39 7 14 26 49 42 79 16 30 58 84 93 119 134
134 279 157 419 65 40 -26 52 -39 50 -55 -3 -20 -88 -82 -373 -272 -99 -67
-325 -263 -350 -304 -14 -24 -11 -322 4 -408 15 -88 42 -137 74 -132 20 3 22
7 19 62 -2 32 -10 68 -17 80 -22 34 -45 105 -39 121 8 21 17 19 68 -16 108
-72 269 -102 561 -103 184 0 225 7 225 39 0 17 12 16 -240 21 -184 3 -255 13
-383 56 -109 35 -127 47 -173 110 -74 100 -36 189 143 334 44 36 235 166 307
209 27 17 70 42 95 58 25 15 60 34 76 42 46 22 59 36 74 79 20 57 2 78 -129
149 -57 31 -165 41 -232 23z"/>
<path d="M12005 31217 c-44 -13 -113 -37 -153 -54 -133 -57 -382 -222 -460
-306 -30 -31 -61 -118 -55 -151 11 -56 109 -115 260 -157 99 -27 183 -59 183
-69 0 -12 -79 -54 -147 -80 -131 -50 -219 -71 -298 -73 -74 -2 -80 0 -83 18
-2 13 8 32 25 47 45 43 55 58 49 74 -3 7 -14 14 -25 14 -37 0 -71 -23 -111
-76 -61 -81 -53 -134 24 -164 49 -18 225 3 330 40 137 49 289 124 314 155 24
31 28 71 9 96 -17 22 -102 63 -162 78 -198 50 -285 91 -285 136 0 28 63 114
116 158 73 62 209 155 272 186 88 44 238 93 288 94 92 1 106 -38 109 -306 l2
-208 -84 -40 c-60 -29 -89 -49 -103 -72 -24 -39 -26 -83 -4 -91 35 -13 52 -6
59 24 11 49 125 107 125 63 -1 -51 -42 -209 -60 -228 -32 -34 -20 -75 21 -75
46 0 78 100 80 252 1 41 4 80 8 85 23 36 144 69 411 113 69 11 138 22 154 25
27 5 28 3 21 -23 -5 -15 -9 -45 -11 -67 -1 -27 -9 -45 -26 -58 -12 -10 -38
-32 -56 -48 -56 -48 -100 -34 -47 15 31 28 31 32 3 39 -36 10 -168 -143 -168
-194 0 -21 42 -49 73 -49 49 0 151 83 210 170 10 14 28 42 42 63 18 26 33 37
50 37 29 0 32 -10 38 -135 5 -101 18 -138 54 -154 37 -17 57 -13 83 13 25 28
21 56 -9 56 -42 0 -62 45 -81 178 -6 37 -12 96 -15 132 -3 51 -9 69 -26 83
-26 21 -70 22 -129 1 -24 -8 -81 -17 -125 -19 -122 -7 -181 -15 -285 -41 -160
-40 -178 -31 -153 75 7 31 13 113 13 182 0 158 -16 214 -67 235 -59 25 -113
25 -198 1z"/>
<path d="M13657 31233 c-4 -3 -7 -35 -7 -71 0 -36 -9 -96 -21 -136 -37 -129
-80 -270 -91 -301 -15 -41 -56 -95 -72 -95 -48 0 -112 -101 -101 -159 9 -48
31 -81 55 -81 16 0 20 7 20 34 0 18 11 54 25 78 28 50 55 62 205 93 41 9 108
24 149 36 56 15 77 17 87 8 8 -6 14 -15 14 -20 0 -15 81 -84 109 -92 14 -5 35
-12 46 -17 79 -31 278 -47 330 -26 24 10 33 20 29 30 -8 21 -22 24 -154 36
-136 12 -216 31 -269 64 -70 44 -64 53 51 85 158 43 252 108 264 183 5 30 2
38 -26 61 -35 30 -50 32 -134 16 -126 -23 -234 -99 -256 -179 -7 -25 -14 -51
-16 -57 -2 -7 -18 -13 -36 -13 -18 -1 -87 -11 -153 -24 -79 -15 -126 -20 -138
-14 -16 8 -16 12 8 51 66 107 131 281 155 416 13 69 13 74 -5 87 -20 15 -57
19 -68 7z m580 -359 c9 -27 -189 -134 -247 -134 -63 0 34 102 119 126 31 8 61
17 66 19 19 7 58 0 62 -11z"/>
<path d="M195 31099 c-10 -15 3 -25 16 -12 7 7 7 13 1 17 -6 3 -14 1 -17 -5z"/>
<path d="M16788 30958 c-14 -12 -87 -219 -130 -373 -37 -132 -66 -328 -67
-452 -1 -63 2 -74 21 -87 38 -27 46 -6 45 112 -1 161 65 433 162 674 34 85 39
123 15 132 -22 8 -28 8 -46 -6z"/>
<path d="M195 30851 c-6 -11 9 -23 19 -14 9 9 7 23 -3 23 -6 0 -12 -4 -16 -9z"/>
<path d="M214 30822 c-6 -4 -8 -17 -5 -30 6 -21 8 -22 26 -8 18 13 18 16 5 30
-8 8 -20 12 -26 8z"/>
<path d="M7016 30714 c-57 -38 -107 -103 -148 -193 -55 -122 -61 -132 -75
-129 -11 2 -14 28 -16 115 -2 89 -5 116 -18 129 -13 12 -21 14 -37 5 -30 -16
-33 -35 -16 -108 16 -69 14 -159 -6 -287 -6 -41 -7 -73 -1 -79 4 -4 24 -7 42
-5 29 3 39 11 65 56 18 29 39 76 49 105 39 121 159 317 194 317 24 0 33 -61
38 -255 5 -211 11 -238 55 -269 33 -24 56 -19 73 14 15 29 15 30 -14 45 -16 8
-32 23 -35 32 -3 10 -8 107 -11 215 -4 175 -8 204 -28 254 -29 75 -48 81 -111
38z"/>
<path d="M6350 30708 c-11 -12 -20 -29 -20 -38 0 -20 -41 -140 -67 -195 -70
-151 -202 -310 -277 -335 -66 -21 -126 9 -126 63 0 44 37 142 78 206 76 119
201 214 300 228 46 6 53 20 22 48 -19 17 -26 18 -67 7 -73 -20 -124 -56 -221
-156 -103 -107 -156 -201 -173 -307 -23 -149 63 -222 202 -170 108 41 208 153
275 311 25 58 47 96 57 98 18 4 18 5 42 -153 18 -118 24 -136 63 -177 18 -19
36 -28 58 -28 61 0 71 57 13 80 -18 8 -38 28 -50 52 -29 57 -51 204 -50 343 0
144 -13 172 -59 123z"/>
<path d="M9730 30703 c-32 -12 -100 -76 -139 -130 -23 -32 -67 -96 -97 -143
-94 -144 -145 -183 -157 -121 -4 16 -9 70 -13 121 -9 120 -31 144 -88 99 -28
-22 -66 -87 -66 -113 0 -19 -39 -31 -53 -17 -5 5 -9 45 -9 88 1 43 -1 86 -4
95 -8 27 -47 22 -66 -9 -14 -23 -14 -30 -2 -60 19 -44 21 -147 6 -256 -10 -68
-10 -92 -1 -103 18 -21 62 -17 80 9 15 20 55 124 75 191 22 73 73 54 75 -29 2
-102 32 -155 87 -155 32 0 131 96 187 181 25 38 45 71 45 75 0 3 21 37 46 75
52 79 104 124 132 115 24 -8 49 -94 57 -196 3 -41 11 -93 17 -115 21 -74 74
-129 102 -106 18 15 13 50 -15 111 -16 33 -29 83 -34 125 -10 106 -33 196 -61
238 -20 30 -30 37 -57 36 -17 0 -39 -3 -47 -6z"/>
<path d="M8397 30529 c-56 -13 -111 -44 -141 -79 -14 -17 -26 -35 -26 -40 0
-19 30 -31 65 -24 l37 7 -6 -59 c-11 -109 38 -174 131 -174 47 0 125 34 155
67 24 26 48 87 48 120 0 134 -118 216 -263 182z m110 -90 c49 -18 73 -49 73
-91 0 -35 -4 -41 -47 -68 -55 -35 -85 -38 -113 -10 -41 41 -33 120 17 160 30
23 32 24 70 9z"/>
<path d="M226 30141 c-4 -7 -5 -15 -2 -18 9 -9 19 4 14 18 -4 11 -6 11 -12 0z"/>
<path d="M16690 29875 c-435 -25 -662 -49 -1085 -114 -422 -65 -695 -118
-1080 -210 -370 -89 -489 -123 -835 -240 -389 -131 -518 -184 -732 -302 -346
-191 -810 -569 -1178 -959 -80 -85 -165 -175 -189 -200 -40 -41 -94 -111 -237
-305 -28 -38 -66 -97 -84 -130 -19 -33 -41 -71 -50 -85 -9 -14 -30 -50 -47
-80 -17 -30 -40 -73 -53 -95 -65 -115 -221 -432 -252 -515 -43 -113 -82 -220
-99 -275 -6 -22 -15 -51 -20 -65 -4 -14 -20 -65 -34 -115 -15 -49 -42 -137
-61 -195 -83 -258 -93 -312 -100 -565 -8 -258 -5 -288 28 -283 29 4 40 57 27
118 -7 31 -7 83 1 165 23 253 38 331 99 530 16 50 45 146 66 215 88 295 168
518 229 640 27 53 156 297 178 336 13 23 41 75 64 115 57 104 211 335 291 437
37 48 115 137 173 197 643 676 1131 1041 1655 1238 250 94 698 239 873 282
502 125 661 160 1017 224 443 79 859 133 1155 151 102 6 249 15 327 20 187 13
775 13 983 0 91 -6 233 -20 315 -30 83 -11 218 -27 300 -35 479 -49 911 -136
1215 -246 104 -38 260 -123 360 -197 109 -81 315 -286 348 -347 55 -102 102
-212 117 -275 9 -36 22 -78 30 -95 29 -64 28 -78 -10 -118 -25 -27 -41 -37
-53 -32 -9 3 -75 9 -147 12 -336 14 -613 -86 -718 -258 -12 -21 -49 -71 -82
-112 -33 -41 -69 -90 -80 -109 -140 -239 -235 -435 -241 -499 -9 -86 30 -156
122 -222 191 -137 476 -168 764 -82 155 45 205 62 293 97 230 90 355 178 485
343 31 39 60 73 64 76 5 3 24 39 44 80 29 61 37 89 41 160 6 95 -7 191 -40
278 -34 94 -136 172 -263 201 -41 10 -77 20 -80 23 -3 3 -8 43 -11 89 -3 45
-12 101 -20 123 -8 22 -24 72 -36 111 -12 38 -51 126 -87 194 -59 112 -75 134
-173 232 -162 164 -393 324 -552 383 -354 134 -750 212 -1360 270 -88 9 -182
20 -210 25 -27 5 -90 12 -140 15 -49 4 -103 9 -120 11 -96 12 -893 12 -1105
-1z m3707 -1486 c8 -8 8 -22 -3 -52 -26 -73 27 -76 72 -5 25 39 27 40 67 34
41 -7 142 -59 182 -93 73 -64 105 -154 105 -297 0 -147 -38 -227 -179 -378
-107 -115 -233 -195 -441 -281 -183 -75 -438 -137 -568 -137 -61 0 -188 24
-247 46 -122 47 -212 128 -235 212 -15 57 -8 78 92 276 220 435 348 548 737
647 139 35 161 36 216 4 46 -27 43 -28 83 20 15 18 102 21 119 4z"/>
<path d="M20184 28102 c-25 -16 -119 -169 -150 -246 -58 -138 -50 -129 -134
-143 -114 -18 -190 -1 -215 48 -8 15 -15 37 -15 47 0 22 68 88 131 127 99 61
130 115 66 115 -23 0 -52 -15 -107 -56 -105 -79 -130 -103 -151 -151 -14 -33
-16 -49 -8 -76 24 -87 91 -119 241 -116 l93 1 -2 -38 c-1 -22 -12 -76 -24
-121 -18 -67 -19 -85 -9 -98 33 -40 63 -7 79 86 18 100 45 185 98 304 59 131
103 197 148 218 31 15 35 21 35 56 0 26 -5 41 -16 45 -21 8 -46 7 -60 -2z"/>
<path d="M8650 29444 c-15 -39 -25 -227 -24 -444 2 -246 17 -294 88 -276 42
10 81 84 131 249 39 126 86 171 114 110 13 -28 17 -336 5 -367 -3 -7 0 -32 6
-55 9 -34 15 -41 35 -41 13 0 28 8 33 18 12 24 5 257 -12 404 -16 136 -33 171
-82 176 -54 5 -114 -80 -165 -233 -30 -91 -56 -135 -80 -135 -16 0 -19 8 -19
58 0 103 21 335 41 440 11 57 17 107 14 113 -4 5 -22 9 -41 9 -28 0 -36 -5
-44 -26z"/>
<path d="M9263 29460 c-12 -5 -27 -18 -33 -29 -8 -17 -7 -24 10 -41 24 -24 41
-25 79 -5 39 20 44 39 17 64 -24 23 -39 25 -73 11z"/>
<path d="M10410 29300 c-82 -29 -142 -96 -171 -191 -33 -105 -32 -184 2 -276
8 -21 38 -33 40 -15 0 4 2 48 4 99 4 97 14 141 49 211 29 59 57 83 104 89 50
7 82 -10 82 -43 0 -51 -41 -196 -72 -256 -32 -59 -108 -138 -134 -138 -19 0
-18 -54 1 -70 22 -18 47 -5 113 59 60 57 104 129 129 206 18 56 43 222 37 243
-18 56 -30 74 -55 87 -37 20 -62 18 -129 -5z"/>
<path d="M6747 29239 c-27 -16 -44 -58 -72 -176 -31 -132 -44 -217 -51 -348
-8 -138 -15 -169 -39 -172 -25 -3 -53 40 -93 144 -17 43 -52 123 -77 178 -26
55 -60 138 -75 185 -25 75 -31 85 -54 88 -17 2 -33 -5 -48 -21 -36 -38 -126
-228 -153 -323 -50 -173 -73 -474 -39 -522 11 -16 24 -22 42 -20 25 3 27 6 24
48 -17 250 25 526 103 679 14 28 32 51 39 51 8 0 33 -46 61 -111 25 -62 62
-142 81 -179 19 -37 34 -70 34 -74 0 -4 133 -246 144 -262 1 -1 11 -5 23 -8
17 -5 29 -1 46 16 28 28 40 97 57 323 22 306 35 385 66 385 15 0 35 -58 68
-200 13 -58 31 -127 39 -155 8 -27 22 -76 31 -107 44 -158 79 -222 121 -216
32 5 30 49 -4 110 -16 29 -37 78 -45 108 -8 30 -39 141 -69 245 -30 105 -59
217 -66 249 -16 85 -47 113 -94 85z"/>
<path d="M9855 29146 c-41 -19 -84 -67 -120 -134 -19 -35 -38 -58 -50 -60 -41
-8 -51 -28 -53 -111 -2 -69 1 -84 18 -101 16 -16 24 -18 45 -8 19 9 31 32 60
119 35 104 80 184 111 196 23 8 38 -11 58 -74 10 -32 24 -74 32 -93 7 -19 18
-54 24 -77 22 -86 115 -172 188 -173 36 0 102 24 102 37 0 5 -7 19 -16 31 -11
17 -25 22 -57 22 -80 1 -119 43 -162 177 -53 166 -76 223 -102 243 -30 23 -38
24 -78 6z"/>
<path d="M265 29039 c-10 -15 3 -25 16 -12 7 7 7 13 1 17 -6 3 -14 1 -17 -5z"/>
<path d="M9307 29013 c-12 -15 -14 -36 -10 -113 3 -71 0 -106 -11 -139 -18
-50 -9 -71 30 -71 42 0 54 35 60 177 5 113 4 132 -11 146 -21 22 -38 21 -58 0z"/>
<path d="M7415 29001 c-44 -27 -110 -96 -140 -147 -43 -73 -57 -146 -49 -249
14 -183 83 -231 195 -135 48 41 83 102 115 203 23 75 44 76 80 5 48 -95 85
-139 113 -136 42 5 37 34 -23 122 -32 46 -67 112 -81 154 -33 99 -42 112 -70
112 -19 0 -26 -7 -31 -27 -71 -317 -186 -481 -224 -321 -20 82 1 176 54 241
23 29 67 69 99 90 60 41 70 62 39 90 -24 22 -40 21 -77 -2z"/>
<path d="M8200 28950 c-61 -33 -130 -102 -187 -188 -36 -54 -38 -61 -38 -137
1 -90 19 -137 77 -192 66 -63 141 -70 236 -22 71 35 163 131 199 207 49 101
13 126 -52 36 -81 -113 -179 -183 -255 -184 -83 0 -157 102 -131 181 19 57 95
143 171 194 39 26 74 54 77 63 7 16 -16 63 -32 69 -5 1 -35 -11 -65 -27z"/>
<path d="M270 28869 c0 -5 5 -7 10 -4 6 3 10 8 10 11 0 2 -4 4 -10 4 -5 0 -10
-5 -10 -11z"/>
<path d="M18412 28658 c-5 -7 -23 -69 -40 -138 -51 -215 -56 -291 -20 -298 27
-5 46 26 53 85 10 84 42 219 65 271 11 24 20 52 20 62 0 29 -58 42 -78 18z"/>
<path d="M10300 28627 c0 -7 13 -31 29 -53 38 -51 115 -90 206 -105 66 -11 73
-10 127 15 32 14 75 42 98 62 73 66 39 88 -50 32 -87 -54 -196 -47 -325 20
-75 40 -85 43 -85 29z"/>
<path d="M21245 28576 c-16 -11 -17 -18 -9 -37 14 -32 -3 -108 -39 -174 -15
-27 -66 -93 -113 -145 -99 -109 -115 -136 -117 -197 -2 -50 18 -72 84 -92 58
-18 228 -13 268 7 78 39 37 62 -111 62 -106 0 -176 14 -185 38 -9 21 56 80
122 112 55 26 109 38 366 85 283 51 735 69 1024 41 302 -29 437 -61 594 -139
155 -77 231 -172 231 -287 0 -75 -25 -122 -104 -202 -165 -166 -428 -293 -751
-363 -115 -26 -340 -45 -452 -39 -408 21 -576 54 -814 159 -139 61 -182 89
-282 188 -88 86 -118 102 -125 64 -3 -17 12 -38 103 -143 103 -120 362 -242
635 -300 177 -38 589 -56 785 -34 441 50 831 232 1007 468 21 29 46 71 54 94
26 76 13 223 -24 260 -7 7 -12 17 -12 23 0 23 -117 123 -181 155 -60 31 -187
81 -254 101 -17 5 -89 18 -160 29 -363 56 -912 50 -1285 -14 -113 -19 -227
-42 -254 -50 -59 -18 -75 -12 -49 18 65 72 123 197 123 262 0 34 -4 43 -25 52
-32 15 -27 15 -50 -2z"/>
<path d="M17460 28550 c-161 -13 -296 -77 -367 -172 -54 -74 -8 -309 83 -417
48 -57 98 -76 194 -75 140 2 231 46 354 170 81 82 110 156 104 265 -3 62 -7
72 -38 104 -19 19 -38 35 -43 35 -5 0 -41 20 -81 44 -84 53 -96 55 -206 46z
m153 -97 c148 -88 137 -76 137 -146 0 -80 -33 -151 -99 -216 -98 -96 -193
-141 -294 -141 -104 0 -168 71 -203 228 -24 106 -14 171 33 213 40 35 147 89
177 89 17 0 17 -1 2 -25 -20 -31 -20 -51 0 -59 26 -10 32 -7 65 28 31 34 82
65 107 66 8 0 42 -17 75 -37z"/>
<path d="M2980 28185 c-22 -27 4 -60 103 -134 52 -38 157 -129 234 -203 265
-255 397 -347 738 -520 235 -118 347 -203 370 -276 6 -19 -1 -31 -39 -67 -70
-68 -211 -105 -401 -105 -166 0 -305 50 -405 146 -55 53 -62 56 -85 46 -40
-18 -32 -53 23 -106 57 -55 173 -118 262 -141 196 -51 498 -16 625 73 42 30
88 103 119 191 27 75 18 196 -24 332 -29 93 -31 108 -21 156 6 29 8 60 5 68
-10 26 -51 17 -75 -16 -19 -27 -21 -39 -16 -97 3 -40 18 -99 37 -147 34 -87
51 -207 31 -219 -7 -5 -36 15 -72 48 -65 61 -135 104 -309 191 -314 158 -461
262 -714 504 -104 101 -121 116 -196 176 -35 28 -79 65 -100 83 -41 35 -70 41
-90 17z"/>
<path d="M18670 28152 c-23 -11 -35 -24 -35 -37 0 -19 6 -20 90 -17 138 5 355
-50 372 -94 7 -18 -39 -89 -69 -107 -19 -12 -51 -13 -173 -6 -182 11 -458 -11
-788 -61 -71 -11 -132 -18 -134 -16 -6 6 36 84 78 146 44 66 84 105 122 119
32 13 46 39 26 52 -8 5 -31 9 -53 9 -31 0 -45 -7 -71 -34 -45 -48 -103 -138
-146 -226 -20 -41 -42 -80 -50 -86 -8 -6 -47 -14 -88 -18 -85 -7 -383 -65
-524 -102 -104 -27 -244 -75 -359 -124 -75 -32 -118 -38 -118 -17 0 28 -69
153 -104 189 -46 47 -151 108 -241 141 -237 84 -626 73 -935 -26 -99 -32 -151
-54 -365 -149 -371 -165 -496 -240 -639 -383 -108 -108 -156 -188 -140 -233 8
-22 16 -27 44 -27 l35 0 5 55 c3 30 10 62 15 72 16 27 110 122 167 169 132
110 267 182 658 346 206 87 272 109 415 138 305 61 597 36 805 -70 130 -67
249 -242 199 -292 -20 -20 -2 -46 27 -40 20 4 24 1 18 -12 -4 -9 -11 -43 -15
-76 -28 -194 -141 -380 -345 -567 -128 -117 -255 -199 -544 -351 -261 -136
-437 -196 -681 -232 -203 -29 -328 -13 -461 57 -109 58 -171 115 -208 193 -37
77 -39 129 -7 177 49 71 59 138 27 165 -41 35 -19 79 111 225 70 77 78 95 57
116 -21 21 -46 13 -72 -20 -69 -89 -124 -168 -151 -217 l-30 -53 -130 -3 c-71
-2 -222 -15 -335 -29 -113 -15 -245 -26 -294 -25 -93 2 -106 -4 -106 -47 0
-63 64 -66 365 -18 50 8 170 23 268 32 150 16 180 22 192 38 14 19 14 19 16
-1 1 -11 2 -27 1 -35 -3 -30 -11 -175 -12 -196 0 -15 -8 -23 -27 -28 -21 -4
-59 -46 -153 -168 -87 -113 -181 -219 -308 -346 -116 -117 -182 -190 -180
-200 2 -10 15 -18 30 -20 23 -3 55 26 230 200 215 214 310 330 368 446 19 39
38 71 41 71 3 1 12 -18 19 -41 36 -115 87 -189 168 -245 175 -123 336 -157
582 -123 118 16 328 71 434 114 186 76 558 280 697 383 204 151 399 382 468
555 49 122 64 268 30 289 -10 6 -9 10 6 15 11 4 83 31 160 61 268 104 408 137
985 238 115 20 447 62 637 80 182 17 417 11 405 -11 -4 -7 -41 -50 -83 -96
-215 -235 -299 -333 -297 -347 2 -9 15 -17 30 -19 33 -4 27 -9 208 203 74 88
167 193 206 235 145 153 167 200 122 253 -33 38 -141 83 -256 107 -122 25
-167 25 -212 2z"/>
<path d="M24010 27831 c-46 -10 -69 -22 -166 -92 -250 -180 -362 -376 -314
-549 29 -106 209 -214 395 -238 192 -24 408 42 523 161 29 30 33 40 30 80 l-3
46 -49 -46 c-104 -97 -243 -151 -411 -160 -82 -5 -114 -2 -175 15 -133 37
-228 105 -251 181 -19 63 3 151 57 233 92 137 301 294 407 303 55 5 124 -25
137 -61 10 -24 13 -26 53 -20 39 6 48 3 102 -35 33 -23 77 -58 98 -78 l37 -35
0 42 c0 54 -17 72 -138 146 -159 97 -245 125 -332 107z"/>
<path d="M314 27595 c-9 -22 1 -29 15 -11 8 10 9 16 1 21 -5 3 -13 -1 -16 -10z"/>
<path d="M306 27473 c-11 -11 -6 -23 9 -23 8 0 15 4 15 9 0 13 -16 22 -24 14z"/>
<path d="M5705 27329 c-489 -38 -860 -176 -1115 -416 -170 -160 -263 -317
-314 -529 -53 -223 -35 -411 59 -609 49 -104 66 -130 167 -250 247 -293 916
-565 1391 -565 321 0 633 97 872 272 l79 58 41 -39 c49 -48 98 -78 234 -146
242 -121 400 -179 851 -310 239 -70 382 -121 685 -247 99 -41 203 -83 230 -93
28 -10 54 -22 60 -27 24 -21 95 2 95 31 0 20 -49 46 -181 97 -79 30 -216 84
-304 119 -210 82 -355 133 -545 190 -486 145 -571 174 -755 260 -55 26 -140
69 -190 98 -75 42 -105 61 -165 105 -2 1 8 13 22 25 16 13 28 34 30 52 3 27 0
30 -27 33 -24 3 -36 -3 -60 -30 -30 -35 -193 -148 -296 -206 -139 -78 -475
-163 -646 -163 -195 0 -444 45 -673 121 -285 94 -447 180 -602 317 -318 281
-397 631 -235 1043 35 91 125 220 216 311 161 161 365 271 647 348 221 60 476
83 769 70 169 -8 283 -24 455 -66 265 -63 386 -126 536 -279 220 -224 279
-461 184 -745 -31 -92 -37 -106 -148 -321 -105 -204 -156 -269 -252 -318 -46
-23 -58 -43 -40 -65 19 -23 51 -18 106 16 107 67 156 131 262 344 36 72 73
141 82 155 26 39 87 217 104 300 28 143 6 299 -60 433 -112 227 -317 411 -559
502 -259 98 -677 149 -1010 124z"/>
<path d="M15362 27220 c-113 -30 -249 -94 -333 -157 -114 -85 -151 -154 -87
-161 21 -3 30 3 42 25 39 76 185 170 347 224 85 28 172 38 183 20 12 -19 -96
-143 -301 -348 -251 -250 -257 -261 -142 -278 24 -3 109 1 189 9 80 9 168 16
195 16 56 0 67 5 84 37 10 19 8 24 -13 38 -21 14 -32 14 -112 0 -119 -21 -314
-32 -314 -17 0 6 30 37 66 69 112 98 309 298 360 365 26 34 54 80 62 101 14
34 14 39 -1 55 -26 25 -136 26 -225 2z"/>
<path d="M14094 26542 c-56 -32 -114 -68 -130 -79 -16 -11 -60 -37 -99 -58
-38 -21 -86 -47 -105 -58 -69 -39 -586 -317 -755 -407 -183 -97 -347 -191
-592 -336 -132 -80 -252 -150 -265 -157 -68 -35 -354 -223 -451 -296 -250
-188 -294 -228 -361 -325 -12 -18 -15 -18 -72 12 -161 86 -301 118 -563 132
-2 0 30 35 70 78 41 42 128 149 193 237 66 88 151 197 189 242 66 79 79 113
44 113 -37 0 -176 -150 -322 -344 -33 -44 -70 -91 -82 -104 -12 -13 -37 -43
-55 -66 -62 -82 -171 -145 -226 -131 -24 6 -24 7 -18 83 4 42 9 166 11 274 3
210 0 227 -44 213 -20 -6 -20 -14 -19 -278 l1 -272 -129 -1 c-362 -2 -702
-135 -916 -360 -39 -41 -148 -200 -148 -216 0 -5 -13 -28 -29 -51 -31 -46 -90
-173 -115 -251 -85 -255 -5 -555 200 -749 118 -111 260 -189 409 -223 104 -24
374 -24 520 1 386 64 799 233 1065 435 191 145 351 370 376 529 6 37 4 41 -21
51 -27 10 -45 6 -45 -10 0 -28 -69 -181 -109 -243 -94 -143 -204 -243 -401
-362 -261 -158 -506 -251 -793 -301 -127 -22 -184 -27 -342 -27 -165 -1 -200
2 -269 21 -291 80 -491 284 -544 555 -38 191 45 485 193 682 72 98 178 204
253 254 174 117 476 206 679 199 l88 -3 -55 -18 c-118 -40 -225 -116 -218
-155 6 -30 35 -24 84 19 85 74 208 111 344 105 72 -4 85 -7 110 -31 18 -17 36
-25 51 -23 20 2 24 9 24 37 l0 33 70 -7 c191 -18 407 -92 560 -190 183 -118
285 -266 285 -415 0 -82 13 -95 88 -87 33 4 107 24 164 46 246 93 843 192
1458 241 211 17 563 28 588 19 13 -5 94 -9 180 -9 275 -1 572 -27 572 -51 0
-4 -19 -19 -42 -32 -195 -109 -303 -167 -358 -192 -97 -44 -120 -71 -88 -103
19 -19 44 -14 100 21 98 63 186 108 192 99 3 -5 -11 -33 -30 -63 -122 -187
-156 -331 -115 -489 46 -182 242 -392 466 -500 120 -57 318 -110 515 -135 335
-43 593 -28 960 55 148 33 183 45 219 72 32 24 39 23 53 -9 7 -16 36 -62 64
-103 68 -100 86 -136 144 -298 103 -290 127 -469 100 -743 -43 -438 -169 -747
-422 -1039 -376 -433 -834 -746 -1447 -986 -247 -98 -378 -132 -863 -229 -441
-88 -701 -116 -1093 -118 -1029 -4 -1422 31 -2135 188 -58 12 -141 30 -185 40
-152 33 -564 132 -615 148 -8 3 -55 17 -105 32 -233 70 -475 151 -760 257 -43
16 -282 116 -334 139 -24 11 -67 29 -95 40 -48 20 -286 132 -351 166 -16 9
-68 36 -115 61 -47 24 -114 60 -150 79 -36 19 -100 55 -143 81 -42 26 -114 69
-160 96 -100 60 -164 103 -197 133 -14 12 -36 27 -50 32 -14 6 -45 27 -70 46
-25 20 -58 43 -73 53 -16 9 -61 42 -100 72 -40 30 -90 68 -112 83 -37 26 -60
42 -157 114 -295 220 -620 508 -795 708 -127 145 -303 371 -303 389 0 2 -23
39 -50 81 -106 159 -216 361 -270 495 -64 158 -80 202 -105 275 -14 44 -31 98
-37 120 -6 22 -14 49 -18 60 -4 11 -19 72 -34 135 -15 63 -31 131 -36 150 -35
132 -51 400 -31 507 23 123 32 181 34 218 3 36 6 41 32 45 24 4 31 11 33 33 2
15 9 27 17 27 37 0 193 -122 263 -207 80 -96 141 -128 150 -80 4 19 -73 122
-157 210 -100 104 -359 247 -449 247 -91 0 -165 -64 -338 -295 -192 -254 -218
-365 -85 -365 54 0 76 17 66 49 -3 10 -19 24 -35 30 -17 5 -30 17 -30 25 0 32
107 195 223 338 109 135 169 162 265 118 39 -17 57 -40 32 -40 -28 0 -61 -132
-75 -300 -3 -41 -8 -88 -11 -105 -9 -58 -6 -284 5 -317 5 -18 15 -62 21 -98
12 -66 19 -92 69 -255 15 -49 38 -124 51 -165 41 -138 108 -323 150 -415 10
-22 21 -51 25 -65 4 -14 25 -56 48 -95 75 -129 173 -290 190 -315 149 -211
239 -328 303 -394 16 -17 59 -65 95 -106 35 -41 98 -108 139 -149 102 -100
397 -361 408 -361 5 0 17 -10 28 -21 16 -18 73 -62 305 -234 15 -11 69 -52
120 -91 52 -40 108 -80 125 -90 59 -36 179 -119 248 -171 38 -29 73 -53 78
-53 5 0 54 -30 110 -66 56 -37 127 -81 158 -98 32 -17 86 -47 121 -67 57 -32
283 -151 379 -199 107 -53 381 -177 535 -242 66 -28 99 -40 305 -118 97 -36
384 -132 540 -180 58 -18 139 -43 180 -56 202 -63 1008 -244 1270 -284 470
-74 755 -92 1480 -94 710 -1 724 0 1566 174 220 46 488 128 639 195 17 7 55
22 85 33 77 28 292 131 402 192 152 85 431 276 562 386 229 191 460 455 590
674 136 232 219 549 240 920 8 142 -14 315 -60 475 -73 257 -135 392 -232 512
-19 24 -32 49 -29 56 3 8 27 20 54 27 122 32 428 158 538 223 152 88 283 195
340 277 15 22 35 40 44 40 10 0 30 -14 47 -31 47 -51 123 -94 265 -152 294
-119 418 -151 649 -168 262 -20 480 1 805 76 320 74 487 132 614 210 70 44
106 77 154 142 21 28 43 53 49 55 12 4 21 77 21 160 0 173 -269 392 -603 491
-162 48 -277 62 -515 62 -244 0 -317 -7 -572 -56 -249 -47 -343 -73 -501 -140
-101 -42 -139 -69 -128 -88 13 -20 58 -11 165 33 181 76 319 112 611 160 471
77 801 43 1125 -114 244 -119 369 -270 335 -403 -37 -146 -180 -268 -408 -348
-100 -36 -423 -116 -552 -138 -337 -57 -659 -50 -900 19 -265 76 -479 173
-559 254 -61 61 -60 51 -5 171 12 28 26 76 30 108 5 49 3 61 -12 79 l-19 20
85 -6 c196 -13 515 -18 543 -7 31 12 36 35 10 47 -10 4 -153 10 -318 13 l-299
6 -7 30 c-4 17 -10 39 -14 50 -4 15 5 32 37 65 24 26 99 109 168 185 152 170
202 219 252 247 21 12 38 27 38 33 0 18 -22 35 -46 35 -22 0 -87 -39 -114 -69
-40 -42 -191 -223 -232 -276 -25 -33 -64 -80 -87 -104 -23 -24 -41 -46 -41
-48 0 -2 -16 -21 -36 -41 -20 -20 -50 -55 -66 -77 l-29 -40 28 -22 c18 -15 42
-23 66 -23 20 0 37 -3 37 -7 0 -5 -9 -45 -20 -91 -23 -94 -44 -142 -64 -142
-19 0 -24 -18 -19 -55 5 -28 -5 -41 -99 -136 -60 -60 -142 -130 -190 -163
-170 -112 -433 -227 -773 -335 -77 -25 -339 -86 -447 -105 -314 -55 -661 -41
-973 39 -241 62 -355 125 -511 280 -193 192 -227 374 -118 622 44 99 228 318
311 370 15 10 62 43 103 75 73 54 241 145 351 189 49 19 77 28 219 74 142 45
398 78 619 79 l185 1 6 -25 c8 -32 30 -36 96 -15 53 16 56 16 127 -5 39 -12
94 -38 120 -57 46 -33 50 -33 73 -18 13 8 24 24 24 34 0 27 -52 67 -97 75 -86
15 -96 18 -83 26 38 24 370 -19 465 -59 11 -5 54 -23 95 -40 109 -46 143 -66
247 -143 110 -81 159 -128 232 -220 29 -38 56 -68 61 -68 4 0 18 9 31 19 l24
19 -20 37 c-60 113 -258 291 -428 384 -233 128 -509 175 -769 130 -50 -9 -77
-9 -111 0 -110 27 -475 3 -737 -49 -177 -35 -392 -105 -512 -165 l-90 -45 -61
29 c-71 33 -171 68 -407 140 -171 53 -208 59 -228 39 -14 -14 -16 -54 -2 -63
11 -7 318 -96 395 -114 69 -17 205 -71 205 -81 0 -5 -30 -30 -66 -56 l-65 -47
-72 16 c-92 21 -123 25 -292 37 -236 17 -399 16 -427 -2 -38 -25 -71 -25 -96
0 -26 26 -30 26 -312 12 -408 -20 -928 -76 -1250 -135 -240 -44 -352 -72 -499
-125 -63 -22 -117 -37 -121 -33 -4 4 -13 42 -20 83 -19 111 -59 183 -154 273
-28 26 -70 60 -93 75 -24 15 -43 32 -43 37 0 25 199 201 365 325 140 104 507
333 895 558 106 62 342 192 348 192 2 0 34 17 70 39 68 39 246 136 427 231 55
29 105 56 110 60 6 4 51 29 100 55 50 27 133 73 185 103 150 88 274 156 317
176 42 19 71 56 59 75 -16 26 -73 10 -172 -47z"/>
<path d="M12242 26570 c-93 -20 -243 -123 -281 -194 -8 -14 -37 -39 -65 -55
-126 -72 -223 -210 -229 -322 -4 -106 72 -200 191 -236 73 -22 223 -22 311 2
248 65 462 274 492 480 18 125 -22 208 -132 274 -77 45 -205 68 -287 51z m202
-75 c127 -54 172 -154 131 -290 -45 -147 -226 -310 -410 -368 -74 -23 -192
-31 -260 -17 -71 15 -139 72 -157 131 -25 84 45 228 139 291 96 63 123 77 190
98 89 29 107 24 100 -30 -7 -51 21 -92 50 -74 20 13 31 43 32 96 1 30 -4 41
-30 59 -27 19 -40 21 -100 17 -38 -3 -69 -3 -69 -1 0 20 117 88 177 103 52 13
160 5 207 -15z"/>
<path d="M5821 26480 c-74 -16 -263 -117 -345 -184 -56 -47 -126 -148 -161
-233 -48 -119 -58 -299 -21 -371 52 -100 128 -142 255 -142 193 1 425 122 631
329 102 103 142 167 162 262 10 48 9 63 -11 127 -28 92 -63 132 -159 179 -73
37 -80 38 -191 40 -64 1 -136 -2 -160 -7z m245 -80 c93 -24 118 -40 162 -104
39 -59 42 -117 11 -203 -18 -47 -39 -75 -108 -143 -202 -201 -450 -323 -624
-307 -66 6 -99 25 -134 76 -32 48 -38 109 -19 204 44 222 204 393 379 405 l60
5 -5 -34 c-11 -74 31 -104 71 -53 29 37 27 89 -4 130 -14 18 -25 35 -25 38 0
14 163 4 236 -14z"/>
<path d="M340 26230 c0 -11 5 -20 10 -20 6 0 10 9 10 20 0 11 -4 20 -10 20 -5
0 -10 -9 -10 -20z"/>
<path d="M7946 25838 c-98 -23 -163 -65 -210 -136 -28 -43 -36 -65 -36 -101 0
-25 -9 -70 -20 -99 -14 -35 -20 -76 -20 -128 0 -70 2 -78 28 -104 39 -39 90
-47 166 -26 121 34 211 106 292 232 46 71 84 164 84 203 0 61 -36 118 -95 149
-51 27 -106 30 -189 10z m134 -73 c94 -49 94 -135 -1 -275 -75 -112 -158 -170
-256 -178 -46 -4 -55 -1 -79 23 -24 24 -26 32 -21 75 6 53 50 165 75 193 13
15 25 17 54 13 27 -4 41 -2 53 11 16 16 16 18 -5 35 -14 11 -39 18 -66 18 -47
0 -54 8 -26 32 64 56 210 85 272 53z"/>
<path d="M346 25771 c-4 -5 -2 -12 3 -15 5 -4 12 -2 15 3 4 5 2 12 -3 15 -5 4
-12 2 -15 -3z"/>
<path d="M8895 25768 c-38 -20 -45 -40 -46 -127 0 -47 -8 -167 -18 -266 -10
-99 -15 -186 -13 -192 7 -20 50 -15 62 7 6 11 17 88 25 172 20 211 33 303 47
350 11 36 10 42 -7 54 -22 17 -24 17 -50 2z"/>
<path d="M350 25679 c0 -5 5 -7 10 -4 6 3 10 8 10 11 0 2 -4 4 -10 4 -5 0 -10
-5 -10 -11z"/>
<path d="M8520 25453 c-18 -18 -40 -58 -59 -108 -27 -74 -106 -262 -151 -361
-10 -23 -21 -61 -25 -86 -6 -37 -4 -46 10 -52 30 -11 51 12 70 76 17 58 54
150 157 383 24 56 51 100 70 116 38 32 33 59 -12 59 -19 0 -41 -10 -60 -27z"/>
<path d="M350 25299 c0 -5 5 -7 10 -4 6 3 10 8 10 11 0 2 -4 4 -10 4 -5 0 -10
-5 -10 -11z"/>
<path d="M8502 24914 c-56 -39 -27 -59 288 -194 239 -102 359 -162 385 -190
16 -18 16 -21 2 -43 -28 -43 -119 -112 -243 -185 -162 -95 -460 -243 -557
-278 -77 -27 -117 -60 -102 -84 19 -30 116 4 363 129 370 186 541 299 599 398
25 43 25 46 10 77 -24 52 -129 115 -352 211 -180 78 -217 95 -275 130 -73 43
-91 48 -118 29z"/>
<path d="M381 24714 c0 -11 3 -14 6 -6 3 7 2 16 -1 19 -3 4 -6 -2 -5 -13z"/>
<path d="M15758 24515 c-118 -16 -152 -31 -156 -67 -4 -36 20 -42 104 -24 212
46 447 47 493 2 14 -15 14 -19 0 -41 -37 -63 -209 -162 -434 -252 -111 -44
-155 -76 -155 -113 0 -31 40 -50 151 -72 60 -12 158 -42 237 -74 208 -84 233
-105 170 -144 -85 -52 -497 -183 -719 -229 -126 -26 -131 -28 -127 -60 3 -26
3 -26 88 -25 71 1 121 11 310 63 395 108 559 183 584 267 22 73 -163 187 -431
266 -62 18 -113 36 -113 40 0 3 48 25 108 48 59 24 134 56 167 73 165 82 290
206 270 266 -8 26 -65 59 -130 76 -73 19 -278 19 -417 0z"/>
<path d="M10306 24451 c-3 -5 -8 -49 -11 -97 -2 -49 -11 -145 -19 -214 -8 -69
-18 -202 -22 -295 -6 -154 -5 -173 10 -188 22 -22 29 -21 50 1 13 15 18 55 26
213 5 107 19 276 31 377 23 200 22 212 -32 212 -15 0 -30 -4 -33 -9z"/>
<path d="M20743 24358 c-11 -22 -17 -60 -19 -113 -1 -44 -11 -136 -22 -205
-11 -69 -25 -174 -32 -235 -21 -210 -31 -271 -71 -431 -44 -180 -48 -223 -21
-247 41 -37 57 -14 65 93 4 41 11 95 16 120 28 131 67 360 76 440 11 105 69
420 91 494 18 63 18 81 -2 100 -27 27 -61 20 -81 -16z"/>
<path d="M20390 23920 c0 -13 11 -13 30 0 12 8 11 10 -7 10 -13 0 -23 -4 -23
-10z"/>
<path d="M12918 23623 c-21 -23 -24 -44 -48 -263 -11 -102 -27 -214 -34 -250
-15 -69 -10 -90 25 -90 45 0 76 105 90 305 11 146 7 273 -9 302 -7 11 -11 11
-24 -4z"/>
<path d="M505 19370 c-4 -6 -3 -16 3 -22 6 -6 12 -6 17 2 4 6 3 16 -3 22 -6 6
-12 6 -17 -2z"/>
<path d="M13061 18874 c-132 -28 -317 -138 -406 -241 -96 -110 -130 -166 -168
-273 -60 -172 -71 -283 -37 -392 58 -190 219 -301 497 -344 280 -43 572 6 863
143 237 112 349 213 442 396 51 102 58 171 30 282 -47 190 -167 305 -387 375
-86 27 -310 38 -454 21 -86 -9 -97 -9 -137 10 -74 33 -159 41 -243 23z m227
-109 c81 -41 103 -42 112 -5 6 24 10 25 90 30 188 11 386 -18 493 -71 73 -37
145 -97 173 -145 31 -53 64 -178 64 -244 -1 -102 -42 -187 -145 -295 -213
-224 -713 -386 -1067 -346 -324 37 -498 180 -498 409 0 100 30 215 83 322 34
69 60 103 137 180 78 79 110 103 180 138 170 83 254 89 378 27z"/>
<path d="M6525 17371 c-63 -16 -94 -50 -104 -111 l-6 -35 -125 -6 c-238 -12
-398 -62 -558 -176 -229 -163 -153 -371 172 -472 237 -73 628 -58 906 36 212
72 329 158 378 279 23 55 18 165 -10 225 -52 111 -175 203 -328 244 -71 19
-276 29 -325 16z m250 -65 c155 -30 262 -95 316 -191 67 -120 34 -250 -88
-346 -97 -77 -314 -152 -523 -180 -126 -17 -384 -6 -485 21 -247 65 -367 190
-296 307 40 64 184 157 306 196 134 43 401 63 454 33 18 -10 32 -11 52 -4 48
17 230 -43 279 -92 15 -15 20 -34 20 -70 0 -45 2 -50 22 -50 27 0 68 37 68 63
0 36 -32 86 -77 121 -53 41 -140 72 -250 89 -77 12 -78 13 -76 41 2 34 27 63
57 69 48 9 155 6 221 -7z"/>
<path d="M7833 17275 c-11 -31 5 -598 21 -715 9 -63 16 -143 16 -177 0 -74 6
-93 30 -93 40 0 41 13 24 340 -7 140 -14 335 -14 432 0 197 -6 228 -45 228
-14 0 -28 -7 -32 -15z"/>
<path d="M8596 17237 c-36 -26 -81 -418 -79 -692 2 -302 44 -480 99 -423 10
10 10 25 -2 73 -24 96 -29 317 -10 490 9 83 21 197 26 255 6 58 18 145 27 193
17 87 17 89 -2 103 -24 17 -36 18 -59 1z"/>
<path d="M9861 17129 c-199 -39 -396 -162 -538 -337 -139 -170 -185 -344 -124
-463 39 -76 116 -139 169 -139 11 0 39 -7 63 -16 65 -23 228 -20 332 7 96 24
178 49 192 59 6 4 33 15 60 25 146 53 328 197 381 302 40 80 40 174 0 256 -33
68 -110 147 -174 179 -26 13 -68 44 -93 69 -64 64 -146 82 -268 58z m-104
-197 c13 -2 38 9 59 25 35 26 44 28 128 28 83 0 98 -3 173 -37 154 -68 218
-135 231 -244 22 -195 -317 -421 -695 -464 -160 -18 -272 5 -341 68 -76 71
-77 161 -1 316 63 130 231 288 363 342 l51 20 5 -25 c3 -17 13 -27 27 -29z"/>
<path d="M11100 17095 c-17 -46 -4 -572 19 -743 27 -199 38 -262 63 -346 19
-65 21 -69 35 -50 16 21 15 53 -11 299 -22 204 -39 580 -34 711 5 107 4 114
-16 134 -29 27 -44 25 -56 -5z"/>
<path d="M15586 17008 c-22 -34 -73 -171 -97 -263 -15 -57 -23 -122 -26 -225
-6 -160 11 -448 28 -465 26 -26 37 54 44 340 3 105 8 213 11 240 9 78 42 183
81 262 33 66 35 74 23 102 -15 37 -43 41 -64 9z"/>
<path d="M12560 16994 c-70 -19 -125 -48 -173 -90 -20 -19 -41 -34 -46 -34
-18 0 -123 -105 -161 -161 -61 -89 -91 -165 -97 -246 -5 -65 -3 -77 24 -135
73 -153 168 -217 333 -223 175 -7 353 29 498 102 78 39 106 60 168 125 l74 79
20 -33 c11 -18 20 -38 20 -44 0 -13 77 -86 107 -102 44 -24 196 -54 313 -63
144 -10 286 4 478 47 321 72 426 180 377 389 -41 180 -190 326 -376 370 -84
19 -300 20 -413 0 -97 -17 -242 -72 -311 -117 -59 -39 -114 -103 -154 -178
-21 -39 -38 -60 -48 -58 -8 2 -23 27 -33 56 -51 143 -136 225 -311 298 -71 29
-95 34 -159 33 -41 0 -100 -7 -130 -15z m292 -118 c171 -84 307 -276 284 -400
-27 -143 -373 -288 -651 -273 -124 7 -195 28 -245 73 -58 52 -84 113 -77 179
7 70 58 174 119 240 49 53 246 192 303 213 17 7 66 10 110 9 69 -3 91 -9 157
-41z m1256 25 c2 -6 29 -25 60 -42 102 -57 132 -81 178 -146 51 -71 84 -153
84 -208 0 -101 -91 -163 -325 -220 -325 -79 -645 -52 -779 66 -63 56 -80 90
-73 151 20 165 231 344 464 393 32 6 32 6 26 -29 -5 -33 -4 -36 20 -36 14 0
41 8 59 19 18 10 65 26 103 36 39 10 75 22 80 27 13 12 98 3 103 -11z"/>
<path d="M16275 16928 c-20 -61 -35 -939 -19 -1041 8 -46 29 -43 30 4 1 19 4
51 8 71 14 77 36 370 36 498 1 124 9 249 26 391 5 45 3 58 -11 72 -19 20 -64
23 -70 5z"/>
<path d="M5672 16220 c-47 -19 -38 -56 22 -87 34 -18 138 -26 596 -42 246 -9
387 -23 644 -61 38 -6 77 -8 88 -5 22 8 24 38 3 55 -31 25 -422 79 -845 115
-96 8 -215 19 -265 25 -110 12 -212 12 -243 0z"/>
<path d="M7349 16024 c-11 -13 -9 -23 12 -60 35 -66 41 -69 102 -55 90 21 215
24 427 10 113 -8 234 -13 270 -12 56 2 336 -20 717 -57 56 -5 109 -7 118 -4
11 5 15 21 15 59 0 30 -4 56 -9 59 -5 3 -114 8 -242 11 -423 9 -1166 42 -1345
60 -39 4 -55 1 -65 -11z"/>
<path d="M12380 15973 c-8 -3 -24 -14 -35 -24 -11 -10 -43 -23 -70 -29 -66
-15 -95 -35 -95 -65 0 -19 7 -26 28 -31 15 -3 43 -10 62 -15 66 -17 88 -12 92
19 3 26 6 27 78 34 89 9 187 -2 340 -37 134 -30 141 -30 170 -7 26 21 19 46
-18 60 -22 9 -227 55 -407 93 -45 9 -122 10 -145 2z"/>
<path d="M9357 15960 c-74 -7 -81 -12 -91 -52 -8 -35 18 -62 53 -54 51 11 786
15 880 5 108 -12 136 -8 144 22 13 50 -14 62 -182 79 -112 11 -694 11 -804 0z"/>
<path d="M13540 15941 c-85 -4 -163 -11 -173 -15 -21 -10 -33 -52 -19 -69 6
-6 12 -23 14 -37 4 -31 45 -39 80 -16 13 8 52 22 88 31 77 20 143 17 432 -21
115 -15 212 -24 233 -20 38 7 46 28 18 46 -17 10 -17 10 0 20 22 14 22 57 -1
69 -23 12 -475 20 -672 12z"/>
<path d="M10780 15890 c-52 -6 -70 -15 -70 -35 0 -20 32 -35 76 -35 l38 0 -44
-22 c-34 -18 -46 -29 -48 -50 -4 -37 18 -39 108 -10 96 32 283 39 530 22 356
-24 352 -24 380 -2 20 17 23 24 14 39 -13 21 -63 32 -157 32 -38 1 -157 12
-265 26 -209 26 -487 43 -562 35z"/>
<path d="M15060 15744 c-78 -6 -184 -26 -212 -40 -31 -16 -36 -44 -13 -67 12
-12 34 -14 113 -10 l99 6 29 -37 c32 -40 69 -48 77 -17 10 41 164 62 444 61
117 -1 217 1 223 5 5 3 10 14 10 24 0 35 -32 49 -140 60 -103 11 -542 21 -630
15z m113 -71 c-7 -2 -21 -2 -30 0 -10 3 -4 5 12 5 17 0 24 -2 18 -5z"/>
<path d="M15870 15720 c-11 -11 -20 -25 -20 -30 0 -19 60 -47 130 -59 76 -14
91 -24 61 -40 -25 -14 -36 -48 -21 -66 18 -22 40 -18 84 15 49 37 91 38 226 9
264 -57 331 -69 400 -69 93 0 120 7 120 31 0 21 -52 39 -112 39 -56 0 -188 21
-188 30 0 4 7 10 15 14 21 8 19 43 -2 55 -10 5 -58 14 -108 20 -159 19 -318
42 -400 57 -113 20 -161 18 -185 -6z"/>
<path d="M6765 15358 c-44 -16 -56 -28 -53 -56 3 -21 -3 -26 -38 -37 -126 -38
-337 -178 -475 -315 -94 -93 -246 -296 -294 -390 -65 -129 -73 -258 -22 -361
86 -176 345 -326 647 -375 115 -19 343 -18 455 2 381 66 721 288 846 552 118
248 100 463 -53 637 -135 153 -419 294 -687 339 -106 18 -280 20 -326 4z m394
-73 c229 -59 452 -173 551 -281 101 -112 143 -246 120 -384 -45 -267 -210
-462 -515 -610 -342 -166 -778 -173 -1105 -17 -86 40 -116 61 -167 114 -137
142 -154 266 -61 461 113 239 415 512 689 622 68 27 101 34 176 38 86 4 95 3
139 -23 30 -18 49 -24 56 -17 20 20 2 48 -52 80 -51 30 -61 33 -127 30 -40 -2
-69 0 -65 4 30 27 226 18 361 -17z"/>
<path d="M5130 15222 c-20 -16 -21 -21 -10 -43 17 -32 29 -39 71 -39 43 0 361
-79 467 -116 105 -37 204 -89 255 -135 l42 -39 -53 -50 c-30 -28 -99 -74 -160
-106 -59 -31 -152 -82 -207 -112 -55 -30 -245 -129 -422 -219 -178 -91 -325
-169 -328 -174 -3 -5 -1 -18 5 -29 13 -24 56 -27 85 -6 11 7 79 39 150 71 382
168 904 448 953 509 10 13 24 48 31 78 16 66 4 96 -61 153 -84 73 -327 169
-593 234 -177 44 -197 46 -225 23z"/>
<path d="M3875 14971 c-204 -13 -275 -23 -291 -38 -21 -21 -18 -26 29 -51 51
-27 79 -27 309 -6 128 12 229 15 388 10 264 -7 697 -31 925 -51 315 -28 390
-35 447 -41 56 -6 58 -6 68 21 13 35 7 53 -23 64 -23 9 -269 31 -582 51 -88 6
-257 17 -375 26 -258 17 -729 25 -895 15z"/>
<path d="M10235 14819 c-4 -6 -1 -40 5 -76 13 -65 8 -290 -7 -364 -6 -34 -8
-35 -74 -44 -26 -3 -55 -12 -65 -19 -16 -12 -17 -17 -6 -41 12 -27 15 -27 68
-22 l56 6 -7 -42 c-4 -23 -14 -54 -21 -69 -8 -15 -14 -35 -14 -45 0 -30 -50
-214 -72 -265 -11 -25 -18 -55 -16 -65 4 -22 34 -29 53 -13 28 23 72 201 106
423 11 70 14 78 37 84 24 6 182 0 334 -13 l77 -7 -59 -70 c-87 -102 -112 -196
-69 -251 86 -109 260 -60 401 113 46 57 63 51 73 -26 8 -69 30 -126 63 -170
25 -34 37 -39 62 -24 12 8 11 17 -7 58 -44 97 -56 157 -62 292 -6 129 -7 135
-32 153 -39 29 -145 26 -230 -6 -37 -14 -69 -23 -71 -20 -9 8 -268 42 -375 49
-67 5 -103 11 -103 19 0 6 9 40 20 76 28 93 29 348 2 373 -21 19 -58 22 -67 6z
m771 -592 c12 -12 -64 -113 -124 -164 -111 -94 -226 -132 -252 -83 -28 53 64
185 163 235 46 23 60 26 130 22 43 -3 81 -7 83 -10z"/>
<path d="M9390 14803 c-265 -42 -521 -140 -632 -242 -43 -39 -51 -53 -55 -92
-11 -98 79 -182 262 -244 46 -15 169 -37 447 -80 59 -9 142 -25 185 -36 158
-42 323 -120 323 -154 0 -24 -88 -107 -150 -142 -70 -40 -196 -79 -282 -88
-89 -9 -162 7 -229 50 -62 41 -89 45 -89 13 0 -35 78 -101 145 -122 47 -15 77
-18 159 -13 125 8 198 27 301 78 293 144 285 269 -22 385 -102 38 -206 62
-432 99 -273 45 -326 58 -414 99 -89 41 -118 71 -124 128 -5 41 -3 46 40 85
103 95 372 192 589 212 120 12 182 5 172 -18 -4 -9 -12 -33 -17 -54 -9 -31 -8
-40 6 -54 24 -24 46 -9 75 52 33 68 27 95 -28 123 -36 18 -59 22 -125 21 -44
-1 -91 -4 -105 -6z"/>
<path d="M12212 14728 c-16 -16 -15 -28 2 -47 12 -14 11 -38 -5 -176 -11 -88
-21 -204 -22 -257 -1 -53 -5 -99 -8 -102 -3 -4 -55 -15 -115 -26 -125 -23
-155 -42 -136 -84 17 -37 47 -40 137 -13 44 14 85 23 90 20 6 -2 9 -20 7 -41
-5 -45 10 -34 27 20 8 24 19 38 35 42 43 11 319 28 350 22 20 -4 39 -1 51 8
18 13 17 14 -7 30 -36 23 -177 39 -290 32 -62 -4 -99 -2 -103 4 -4 6 0 43 9
83 13 63 59 329 73 425 4 23 0 39 -12 52 -20 22 -65 26 -83 8z"/>
<path d="M20915 14690 c-7 -12 -11 -11 79 -16 38 -2 65 0 60 5 -15 14 -131 23
-139 11z"/>
<path d="M11734 14414 c-87 -59 -152 -121 -214 -205 -88 -118 -128 -227 -145
-401 -7 -63 -6 -67 18 -83 20 -13 30 -14 46 -5 25 13 28 28 35 145 6 115 28
179 99 286 50 75 158 187 250 259 15 12 27 28 27 36 0 27 -48 14 -116 -32z"/>
<path d="M5500 12984 c-189 -41 -318 -119 -308 -187 5 -37 35 -32 62 12 14 22
45 51 68 65 137 79 450 104 670 52 353 -84 608 -276 686 -517 28 -87 35 -161
23 -240 -42 -259 -307 -507 -645 -604 -96 -27 -294 -55 -391 -55 -95 0 -312
36 -412 68 -178 57 -309 166 -359 299 -22 58 -25 78 -20 137 8 86 21 144 53
225 64 166 223 342 368 410 86 41 116 44 177 20 57 -22 78 -19 78 10 0 26 -31
47 -101 67 -50 15 -58 15 -106 0 -124 -39 -303 -198 -408 -360 -102 -159 -146
-348 -115 -498 16 -76 21 -88 71 -155 158 -211 613 -341 994 -283 191 29 409
115 555 218 204 145 339 373 340 574 0 87 -17 154 -66 255 -113 231 -393 411
-753 482 -124 25 -358 28 -461 5z"/>
<path d="M9333 12650 c-175 -35 -156 -144 48 -281 30 -20 131 -83 224 -139
336 -204 559 -394 657 -561 50 -83 57 -134 28 -194 -49 -100 -230 -201 -445
-246 -99 -21 -276 -16 -370 10 -128 36 -171 4 -69 -51 109 -59 251 -73 435
-42 208 34 463 173 514 280 10 21 17 61 18 95 0 50 -6 72 -39 137 -32 64 -59
98 -160 198 -164 164 -330 286 -677 500 -100 61 -178 126 -195 161 -16 33 -16
36 3 49 33 24 86 34 190 34 123 0 272 -23 328 -51 23 -12 72 -41 108 -66 50
-34 72 -43 88 -38 38 12 20 38 -63 93 -99 65 -165 90 -281 108 -97 15 -275 17
-342 4z"/>
<path d="M10846 12334 c-9 -8 -16 -18 -16 -22 0 -4 -9 -63 -19 -132 -11 -69
-23 -158 -27 -198 -5 -55 -11 -75 -23 -79 -81 -25 -94 -51 -41 -81 35 -20 35
-19 11 -99 -10 -33 -26 -108 -35 -165 -9 -56 -21 -123 -26 -148 -6 -33 -5 -48
4 -58 25 -25 42 -3 55 71 6 40 19 106 27 147 8 41 19 103 24 138 17 108 7 102
191 102 125 0 159 -3 153 -12 -4 -7 -23 -35 -42 -62 -73 -105 -87 -167 -52
-235 26 -51 68 -85 132 -107 148 -50 322 17 457 176 30 36 62 65 70 65 11 0
19 -17 27 -60 21 -118 57 -157 147 -163 52 -3 66 -1 90 18 18 15 27 30 25 44
-3 19 -8 21 -71 18 -80 -4 -97 6 -123 74 -18 47 -15 141 8 215 13 46 -3 82
-35 77 -16 -2 -32 -23 -58 -72 -65 -123 -205 -246 -338 -296 -48 -18 -75 -21
-132 -18 -69 4 -73 5 -105 43 -19 21 -34 48 -34 60 0 63 111 219 162 229 13 3
96 8 185 13 178 9 196 16 186 65 -4 19 -15 31 -42 41 -91 37 -200 30 -299 -19
-30 -15 -63 -26 -75 -26 -46 0 -382 24 -386 28 -1 1 6 33 18 71 11 37 27 106
36 152 8 46 23 106 33 133 l17 50 -24 19 c-28 23 -35 24 -55 3z"/>
<path d="M12483 12264 c-7 -3 -21 -20 -32 -37 -22 -35 -111 -326 -111 -361 0
-13 -9 -31 -20 -41 -14 -13 -20 -30 -19 -59 1 -50 -7 -88 -31 -141 -15 -34
-60 -169 -60 -181 0 -2 9 -4 19 -4 25 0 59 59 72 124 18 89 40 157 53 162 6 2
41 -5 76 -16 36 -12 99 -26 140 -32 41 -6 80 -15 86 -20 6 -4 14 -36 18 -71 8
-84 42 -148 125 -238 84 -91 190 -174 289 -224 39 -20 72 -40 72 -44 0 -11 79
-46 86 -38 3 3 -14 19 -38 36 -23 17 -47 35 -53 41 -36 40 -64 65 -95 85 -63
40 -224 201 -274 273 -35 51 -50 83 -53 116 l-5 45 168 -6 c134 -5 185 -2 247
10 110 23 169 56 188 105 10 26 -24 104 -57 134 -36 31 -154 58 -257 58 -165
0 -264 -47 -316 -148 -11 -22 -25 -43 -30 -46 -20 -13 -291 61 -291 79 0 5 33
89 59 150 5 11 19 48 31 83 13 34 36 81 51 102 35 49 36 73 4 94 -13 9 -26 16
-27 15 -2 0 -8 -3 -15 -5z m636 -414 c79 -13 144 -45 139 -68 -2 -10 -28 -27
-63 -42 -56 -22 -73 -24 -240 -25 -99 0 -188 3 -199 8 -17 7 -18 8 0 35 18 27
31 40 71 68 43 30 181 41 292 24z"/>
<path d="M20785 11251 c-10 -17 54 -36 88 -25 20 6 20 7 2 20 -21 16 -81 19
-90 5z"/>
<path d="M5838 10789 c-22 -13 -24 -67 -3 -75 20 -8 69 12 92 38 17 19 17 20
-2 34 -22 16 -62 18 -87 3z"/>
<path d="M7676 10608 c-3 -7 -6 -81 -8 -164 l-4 -152 -32 -36 c-18 -20 -32
-39 -32 -41 0 -2 10 -13 21 -24 l22 -20 -25 -113 c-21 -92 -23 -116 -13 -126
21 -23 52 2 68 55 8 27 21 76 27 111 7 34 18 66 24 69 6 4 54 7 107 8 100 0
129 10 129 45 0 27 -44 40 -134 40 -45 0 -85 2 -88 5 -3 3 -2 25 3 48 17 89
21 251 7 277 -15 28 -65 40 -72 18z"/>
<path d="M4435 10545 c-393 -69 -823 -296 -905 -477 -26 -56 -25 -138 0 -208
21 -59 43 -92 99 -153 40 -44 175 -137 197 -137 8 0 34 -9 57 -21 79 -38 268
-93 392 -114 81 -13 102 -16 210 -24 357 -27 694 73 853 253 132 150 134 392
6 567 -65 88 -199 171 -340 210 -52 14 -84 29 -96 44 -10 13 -46 33 -81 45
-80 29 -273 36 -392 15z m305 -45 c10 -7 -10 -10 -65 -10 -85 0 -111 -9 -102
-32 4 -12 36 -16 139 -21 73 -4 143 -9 155 -13 16 -5 28 -25 48 -87 37 -111
63 -138 99 -102 13 14 12 21 -9 68 -47 101 -30 109 96 45 147 -76 232 -177
259 -313 28 -138 -10 -245 -130 -365 -61 -61 -87 -79 -140 -99 -36 -13 -76
-33 -90 -43 -15 -12 -26 -15 -28 -9 -2 6 -8 11 -13 11 -4 0 -6 -7 -3 -15 6
-15 1 -17 -91 -35 -150 -31 -367 -40 -511 -22 -152 19 -408 95 -478 142 -24
17 -47 30 -50 30 -13 0 -133 96 -164 131 -76 87 -107 223 -69 300 103 209 646
445 1027 448 58 0 112 -4 120 -9z"/>
<path d="M5852 10518 c-6 -8 -12 -107 -16 -240 -5 -241 -3 -258 42 -243 30 9
34 34 38 230 2 99 6 190 9 203 12 47 -43 85 -73 50z"/>
<path d="M6279 10511 c-15 -11 -43 -55 -64 -98 l-38 -78 -11 32 c-16 46 -31
59 -50 44 -24 -20 -39 -79 -34 -142 6 -83 44 -118 97 -90 10 6 35 54 56 108
42 108 56 129 79 120 13 -5 16 -25 16 -109 0 -62 5 -113 13 -127 16 -31 50
-44 73 -27 15 11 15 18 6 46 -7 18 -12 76 -12 129 0 143 -19 190 -80 206 -18
4 -34 0 -51 -14z"/>
<path d="M7401 10436 c-12 -19 -35 -81 -52 -138 -33 -109 -69 -178 -95 -178
-14 0 -15 9 -9 62 4 34 11 74 15 89 15 52 -38 103 -69 66 -12 -15 -31 -149
-31 -220 0 -50 46 -97 94 -97 60 0 108 77 175 279 33 101 38 140 19 159 -18
18 -24 15 -47 -22z"/>
<path d="M6686 10448 c-23 -6 -58 -29 -86 -57 -38 -37 -51 -59 -69 -118 -11
-39 -21 -88 -22 -110 0 -21 -6 -62 -12 -92 l-12 -53 -265 -5 c-146 -3 -330 -6
-410 -6 l-145 -2 -3 -26 c-4 -37 27 -46 183 -54 72 -3 207 -17 300 -30 94 -13
205 -27 248 -31 67 -5 77 -9 77 -25 0 -11 11 -25 26 -31 24 -11 29 -10 48 14
l21 27 212 -12 212 -12 33 -31 c30 -28 71 -56 183 -126 22 -14 49 -43 61 -64
12 -21 30 -54 40 -72 27 -46 10 -55 -96 -47 -111 8 -382 52 -525 85 -22 5
-101 21 -175 34 -74 14 -196 37 -270 52 -74 14 -220 41 -325 59 -104 18 -234
41 -288 51 -91 17 -99 17 -132 1 -22 -10 -35 -24 -35 -36 0 -38 -17 -34 415
-86 110 -13 243 -31 295 -40 144 -25 447 -81 617 -114 299 -59 553 -86 607
-65 16 6 17 14 12 57 -8 59 -10 59 93 -12 49 -33 81 -49 93 -45 22 6 22 -2 4
-58 -7 -24 -19 -72 -26 -108 -6 -36 -13 -75 -16 -87 -2 -13 -11 -23 -18 -23
-8 0 -47 -13 -88 -29 -101 -40 -294 -86 -476 -115 -153 -24 -197 -41 -186 -71
8 -19 53 -33 94 -28 136 17 453 90 573 133 48 17 92 28 96 25 5 -3 14 -29 21
-57 19 -80 55 -139 139 -226 117 -120 181 -164 356 -240 235 -103 475 -124
685 -60 130 40 217 94 326 203 148 147 226 293 259 483 36 203 -35 380 -217
543 -262 235 -647 398 -945 399 -95 0 -103 -2 -132 -26 -59 -50 -23 -86 48
-50 96 50 332 14 553 -85 323 -145 551 -345 620 -543 38 -110 16 -301 -49
-429 -104 -207 -242 -329 -468 -414 -60 -23 -78 -25 -235 -29 -111 -3 -159 0
-205 12 -33 9 -78 20 -100 24 -49 9 -123 36 -142 51 -7 6 -24 8 -37 5 -15 -4
-28 -1 -33 6 -4 7 -28 23 -53 36 -114 57 -266 225 -312 344 -26 68 -23 86 14
106 17 9 51 34 75 56 36 32 43 45 43 76 0 35 -40 106 -69 125 -20 12 -11 36
39 109 131 190 399 390 549 411 74 10 156 -10 232 -56 75 -45 124 -51 124 -14
0 48 -213 135 -328 135 -127 -1 -307 -96 -442 -235 -117 -120 -179 -193 -200
-235 -14 -27 -29 -51 -35 -55 -5 -3 -32 13 -60 37 -27 24 -79 61 -114 83 -171
107 -311 223 -293 242 4 4 69 -3 145 -15 140 -23 454 -47 479 -38 24 10 10 49
-26 73 -65 44 -225 79 -516 114 -93 11 -201 24 -240 29 -38 5 -106 14 -150 19
-44 6 -127 13 -185 16 l-105 5 4 52 c2 29 8 56 13 59 6 4 38 4 72 2 115 -10
254 37 290 97 25 43 15 104 -26 159 -52 71 -146 103 -232 79z m142 -96 c13 -8
30 -28 38 -44 19 -36 8 -53 -51 -79 -55 -24 -202 -46 -216 -32 -18 18 8 90 48
128 57 55 123 65 181 27z m-293 -379 c-18 -3 -40 -17 -56 -35 l-26 -31 -159
23 c-88 12 -163 25 -169 29 -5 3 46 8 115 11 160 6 334 8 295 3z m210 -23 c55
-7 103 -14 107 -16 5 -3 8 -15 8 -26 0 -21 -2 -21 -147 -14 -81 3 -147 7 -149
9 -1 1 1 17 3 36 5 32 7 33 42 27 20 -3 81 -10 136 -16z m500 -65 c66 -13 163
-31 215 -40 111 -19 147 -34 80 -34 -25 0 -76 4 -115 9 -38 4 -135 16 -215 25
-111 13 -153 22 -177 39 -18 11 -33 25 -33 29 0 12 101 0 245 -28z m443 -587
c2 -19 -6 -37 -31 -64 -45 -50 -60 -39 -40 29 20 67 21 69 46 65 15 -2 23 -11
25 -30z m699 -794 c-3 -3 -12 -4 -19 -1 -8 3 -5 6 6 6 11 1 17 -2 13 -5z m163
-4 c0 -5 -7 -10 -16 -10 -8 0 -12 5 -9 10 3 6 10 10 16 10 5 0 9 -4 9 -10z"/>
<path d="M13307 10155 c-36 -25 -67 -70 -67 -98 0 -44 68 -45 88 -2 8 17 32
35 67 50 30 14 55 29 55 33 0 5 -8 16 -18 25 -27 25 -81 21 -125 -8z"/>
<path d="M10911 9998 c-4 -12 -4 -38 1 -58 4 -19 15 -69 23 -110 37 -185 46
-227 51 -247 5 -18 -3 -24 -63 -47 -134 -52 -193 -102 -167 -143 18 -30 56
-27 100 8 45 36 106 69 128 69 19 0 24 -18 31 -110 4 -41 13 -118 21 -170 28
-179 35 -288 24 -352 -12 -65 -6 -83 26 -76 38 7 45 45 39 187 -3 73 -7 136
-9 140 -3 4 -10 47 -16 97 -6 49 -20 131 -32 183 -28 120 -25 125 72 129 63 3
80 -1 136 -27 77 -36 159 -110 175 -158 9 -29 8 -41 -10 -83 -27 -63 -27 -106
-1 -120 44 -23 70 6 85 94 8 45 67 130 122 173 62 50 173 107 184 96 7 -7 -1
-34 -25 -81 -48 -95 -66 -149 -66 -199 0 -110 69 -136 133 -50 14 17 30 50 37
72 45 138 67 190 83 193 24 5 33 -24 61 -196 14 -82 30 -160 35 -175 13 -33
36 -44 57 -26 17 14 16 38 -8 134 -9 33 -24 98 -33 145 -40 190 -47 210 -89
249 -14 14 -26 35 -26 48 0 30 -24 39 -53 21 -12 -8 -66 -31 -120 -52 -140
-52 -184 -77 -250 -140 -32 -31 -62 -56 -67 -56 -4 0 -17 15 -29 33 -31 51
-101 112 -166 148 -54 29 -71 33 -165 38 l-105 6 -7 105 c-9 159 -35 291 -60
313 -27 23 -47 22 -57 -5z m1029 -540 c0 -13 -14 -54 -30 -91 -43 -101 -100
-170 -100 -119 0 21 63 175 85 208 20 31 45 31 45 2z"/>
<path d="M13599 9988 c-5 -69 6 -244 17 -288 19 -73 18 -79 -13 -86 -97 -20
-153 -61 -153 -110 0 -37 39 -41 93 -10 24 14 54 26 67 26 22 0 23 -2 16 -67
-4 -38 -11 -111 -16 -163 -5 -52 -10 -108 -12 -125 -2 -25 1 -31 20 -33 18 -3
26 4 39 35 15 35 15 145 0 323 -4 53 88 31 137 -33 32 -42 53 -101 72 -202 19
-105 32 -135 55 -135 30 0 44 41 26 76 -8 16 -29 81 -47 144 -46 164 -72 201
-182 255 l-61 30 2 105 c1 58 4 125 7 150 8 59 -16 120 -45 120 -12 0 -21 -6
-22 -12z"/>
<path d="M13847 9823 c-22 -6 -47 -54 -47 -92 0 -39 40 -53 70 -26 11 10 23
15 27 11 4 -3 10 -52 14 -109 9 -136 25 -225 54 -310 34 -95 54 -127 104 -162
59 -41 114 -40 153 4 15 17 29 41 29 54 1 12 2 42 3 66 1 41 4 45 32 53 17 4
51 29 75 55 60 65 97 93 124 93 15 0 45 -25 93 -78 85 -94 178 -151 218 -133
17 8 24 19 24 40 0 26 -5 31 -48 45 -64 22 -96 47 -171 133 -102 117 -132 117
-242 2 -52 -55 -72 -69 -95 -69 -38 0 -47 7 -72 57 -26 49 -61 79 -112 93 -43
12 -84 1 -94 -25 -3 -9 -11 -13 -16 -10 -7 4 -10 48 -9 113 2 116 -9 156 -53
186 -23 16 -29 17 -61 9z m226 -403 c21 0 22 13 2 30 -8 7 -15 16 -15 21 0 18
37 8 69 -19 31 -26 33 -30 20 -50 -13 -21 -11 -25 29 -61 46 -43 54 -79 26
-119 -12 -17 -25 -22 -61 -22 -41 0 -51 5 -83 39 -46 48 -90 155 -90 218 l0
47 43 -42 c23 -23 50 -42 60 -42z"/>
<path d="M13005 9724 c-150 -32 -210 -94 -191 -199 9 -49 78 -128 192 -222
113 -92 204 -185 204 -207 0 -24 -48 -43 -150 -61 -52 -9 -98 -18 -102 -21 -4
-3 -40 -11 -80 -19 -111 -21 -124 -7 -139 143 -17 172 -55 327 -88 356 -11 10
-31 16 -47 14 -30 -3 -40 -14 -177 -198 -42 -57 -71 -86 -86 -88 l-23 -4 3
148 c4 131 2 148 -13 158 -26 16 -52 -4 -59 -46 -3 -19 -2 -66 2 -104 5 -38 8
-101 8 -140 1 -83 24 -124 69 -124 33 0 111 80 178 183 51 78 83 117 96 117
27 0 49 -82 77 -290 25 -181 46 -210 145 -210 34 0 81 5 106 11 25 6 83 17
130 25 118 21 168 46 191 99 12 28 16 53 13 77 -10 57 -91 145 -241 261 -72
55 -131 121 -140 156 -12 47 79 94 207 107 154 15 221 -109 224 -420 1 -122 4
-141 18 -144 29 -6 38 34 39 165 1 212 -39 366 -112 427 -52 44 -170 67 -254
50z"/>
<path d="M6370 8305 c-148 -22 -244 -45 -272 -65 -16 -11 -52 -25 -80 -30
-234 -44 -445 -181 -572 -373 -51 -76 -93 -216 -101 -335 -20 -283 88 -567
294 -772 181 -180 371 -276 651 -330 412 -79 749 -33 985 135 154 109 255 261
330 495 42 133 50 188 50 365 0 152 -3 182 -28 280 -67 269 -203 435 -437 536
-221 95 -553 133 -820 94z m426 -50 c461 -65 673 -227 766 -580 20 -78 23
-113 23 -265 -1 -155 -4 -187 -27 -280 -27 -108 -81 -244 -126 -315 -106 -169
-320 -311 -552 -366 -82 -19 -376 -13 -519 12 -205 35 -445 128 -557 217 -199
157 -302 312 -366 551 -26 98 -29 284 -5 388 30 135 98 246 204 334 114 94
288 172 447 200 92 16 350 6 431 -16 144 -40 242 -110 254 -181 12 -74 79 -72
73 2 -4 46 -31 93 -74 129 -31 26 -139 81 -193 97 -57 17 -190 38 -245 38 -73
0 -97 15 -40 25 156 26 363 31 506 10z"/>
<path d="M6435 7889 c-129 -17 -279 -81 -390 -166 -70 -54 -176 -180 -218
-260 -38 -72 -60 -172 -51 -226 32 -187 151 -305 389 -386 186 -63 404 -67
593 -11 231 68 364 156 462 306 58 88 84 177 75 249 -11 88 -75 185 -169 252
-28 20 -75 58 -104 84 -96 87 -181 126 -337 154 -86 16 -155 17 -250 4z m151
-71 c-1 -20 6 -24 49 -31 161 -26 275 -69 400 -149 148 -95 214 -218 180 -333
-55 -182 -248 -334 -510 -401 -140 -36 -306 -38 -424 -6 -211 58 -328 128
-396 237 -27 44 -30 56 -30 135 0 93 13 133 71 225 61 96 184 204 300 263 85
43 222 77 325 81 31 1 35 -2 35 -21z"/>
<path d="M11193 7740 c-53 -27 -114 -93 -148 -160 -36 -70 -58 -204 -52 -307
l5 -82 -31 -11 c-17 -6 -74 -15 -127 -21 -124 -13 -158 -24 -166 -54 -9 -36 2
-45 54 -45 46 1 65 4 182 30 30 7 66 12 80 12 14 0 30 3 35 8 6 5 66 24 134
44 176 52 226 77 180 94 -24 9 -137 -7 -228 -32 -66 -18 -82 -10 -71 37 4 18
11 41 17 52 6 11 14 38 17 60 10 55 42 158 62 197 21 42 71 95 106 114 60 31
165 11 269 -52 64 -38 89 -43 89 -16 0 22 -60 67 -149 112 -88 44 -195 52
-258 20z"/>
<path d="M11533 7540 c-37 -22 -44 -58 -17 -84 24 -24 46 -19 87 18 41 38 44
47 21 70 -21 21 -52 20 -91 -4z"/>
<path d="M17183 7513 c-25 -9 -12 -34 43 -88 46 -46 66 -78 125 -202 38 -81
74 -156 79 -165 10 -18 73 -176 97 -243 35 -100 64 -306 57 -410 -7 -102 -32
-232 -56 -295 -54 -140 -149 -258 -267 -330 -58 -36 -65 -63 -18 -68 37 -5 97
33 177 110 156 152 229 338 233 593 3 233 -55 452 -197 743 -20 39 -47 98 -60
130 -51 118 -82 164 -140 210 -28 21 -48 26 -73 15z"/>
<path d="M16672 7463 c-7 -3 -22 -24 -34 -46 -11 -23 -48 -85 -82 -137 -90
-139 -136 -286 -137 -442 0 -56 5 -115 15 -148 8 -30 18 -65 22 -77 6 -20 3
-23 -25 -23 -34 0 -144 39 -188 66 -78 50 -153 129 -153 161 0 5 26 16 58 23
71 16 104 32 131 66 78 100 -70 189 -199 120 -35 -19 -49 -33 -62 -67 l-16
-44 -88 3 c-49 1 -93 7 -98 12 -6 6 -4 41 7 98 19 101 22 239 6 275 -14 32
-47 47 -78 36 -22 -9 -23 -12 -15 -57 5 -26 9 -114 9 -196 l0 -150 -35 -9
c-19 -5 -41 -13 -47 -19 -16 -13 -17 -52 -2 -79 5 -11 15 -48 20 -81 13 -78
24 -98 54 -98 35 0 55 35 55 100 0 83 1 84 119 75 l101 -7 44 -67 c47 -72 127
-152 195 -195 46 -30 173 -66 230 -66 30 0 45 -9 97 -61 53 -52 68 -62 105
-66 36 -4 48 -1 62 15 30 33 14 58 -49 77 -67 19 -124 68 -154 132 -31 67 -45
206 -30 318 21 161 57 243 184 425 50 71 58 113 27 130 -21 11 -29 11 -49 3z
m-462 -514 c0 -13 -62 -39 -95 -39 -35 0 -31 18 8 35 38 17 87 19 87 4z"/>
<path d="M13129 7362 c-22 -18 -22 -21 -11 -93 6 -41 14 -184 17 -319 4 -135
9 -254 12 -265 14 -52 85 -87 100 -49 3 9 -2 32 -13 52 -16 33 -18 67 -18 345
l-1 309 -24 19 c-29 23 -33 24 -62 1z"/>
<path d="M14760 7365 c-10 -12 -10 -21 -2 -41 14 -30 31 -184 27 -239 -2 -22
-3 -56 -4 -76 -1 -33 -6 -39 -60 -73 -56 -34 -91 -68 -117 -112 -10 -17 -16
-14 -76 41 -47 44 -98 77 -194 125 l-129 65 72 3 c40 2 122 -6 188 -17 90 -16
122 -18 141 -9 29 13 32 48 6 71 -43 39 -443 64 -517 32 -78 -32 -55 -65 100
-142 182 -92 303 -172 331 -219 13 -22 24 -53 24 -68 0 -61 -78 -163 -165
-215 -47 -29 -66 -34 -118 -35 l-62 -1 -18 38 c-34 68 -88 35 -67 -41 11 -43
28 -61 79 -87 73 -37 207 11 313 112 70 67 108 139 108 204 0 36 8 59 33 97
31 50 89 93 103 79 4 -4 -3 -51 -15 -105 -32 -139 -32 -146 1 -150 19 -2 31 3
42 20 17 27 46 160 46 215 0 44 6 55 37 72 24 12 233 28 233 18 0 -4 -20 -37
-44 -75 -61 -95 -63 -106 -31 -152 14 -21 37 -41 49 -44 58 -14 143 39 212
132 75 100 93 86 80 -66 -8 -99 -7 -112 12 -155 18 -40 25 -47 49 -47 49 0 68
36 37 71 -29 33 -28 278 2 420 7 33 -19 61 -55 57 -18 -2 -32 -14 -46 -40 -20
-38 -56 -51 -71 -27 -5 9 -56 10 -188 5 -242 -10 -236 -10 -245 0 -4 5 -5 41
-1 79 8 85 -5 262 -21 281 -15 19 -63 18 -79 -1z m550 -448 c0 -39 -140 -157
-187 -157 -27 0 -29 10 -7 52 21 41 47 64 109 93 56 28 85 32 85 12z"/>
<path d="M11578 7283 c-3 -10 2 -36 10 -58 17 -50 10 -168 -23 -366 -25 -151
-22 -189 14 -189 27 0 49 25 55 63 58 382 65 509 32 546 -24 27 -83 29 -88 4z"/>
<path d="M12733 7168 c-4 -7 -8 -47 -8 -88 -1 -153 -67 -280 -145 -280 -42 0
-54 26 -41 95 14 74 30 102 91 157 38 35 51 53 48 70 -2 19 -10 24 -41 26 -33
3 -42 -2 -85 -46 -56 -57 -79 -118 -89 -228 -5 -57 -2 -77 12 -101 21 -36 74
-73 104 -73 50 0 104 45 140 118 22 42 38 53 46 30 3 -7 11 -51 19 -97 17 -96
35 -123 80 -119 38 4 45 30 19 67 -11 14 -25 46 -31 71 -14 59 -42 281 -42
340 0 25 -5 51 -12 58 -16 16 -55 15 -65 0z"/>
<path d="M11849 7093 c-15 -37 -13 -411 2 -430 35 -41 82 4 148 142 53 110 93
165 121 165 22 0 45 -58 65 -170 9 -47 21 -98 27 -113 15 -38 51 -61 83 -53
32 8 33 39 2 76 -17 19 -31 61 -47 136 -12 60 -28 124 -36 141 -33 83 -106
108 -157 55 -14 -15 -48 -68 -75 -117 -58 -106 -82 -121 -82 -48 0 26 5 77 10
113 11 81 2 124 -28 128 -16 3 -25 -4 -33 -25z"/>
<path d="M16930 7020 c-208 -11 -273 -45 -220 -113 44 -56 225 -179 353 -240
83 -41 127 -67 127 -77 0 -23 -49 -56 -127 -86 -92 -35 -136 -29 -180 23 -27
32 -35 36 -50 27 -27 -17 -27 -48 1 -93 50 -78 108 -95 218 -61 98 30 156 61
202 108 33 34 37 44 31 70 -9 44 -43 76 -126 117 -125 63 -303 165 -327 188
-12 11 -18 25 -14 29 5 5 75 11 156 13 165 5 181 8 196 36 16 29 -28 70 -72
67 -18 0 -94 -4 -168 -8z"/>
<path d="M10975 6976 c-14 -33 -19 -128 -16 -351 1 -109 20 -277 33 -293 6 -7
23 -12 37 -10 32 4 32 21 1 153 -22 95 -27 277 -12 416 12 106 -13 157 -43 85z"/>
<path d="M1010 4729 c0 -5 5 -7 10 -4 6 3 10 8 10 11 0 2 -4 4 -10 4 -5 0 -10
-5 -10 -11z"/>
<path d="M1019 4574 c-5 -56 -5 -154 0 -154 7 0 31 95 31 122 0 16 -29 47 -31
32z"/>
<path d="M1030 4341 c0 -6 5 -13 10 -16 6 -3 10 1 10 9 0 9 -4 16 -10 16 -5 0
-10 -4 -10 -9z"/>
<path d="M1033 4278 c-7 -24 -8 -40 -1 -44 15 -10 20 1 16 42 l-3 39 -12 -37z"/>
<path d="M1036 4201 c-21 -23 -18 -65 6 -69 12 -2 19 6 24 33 8 45 -6 63 -30
36z"/>
<path d="M1047 4083 c-14 -4 -18 -15 -18 -51 0 -26 0 -58 0 -72 0 -37 10 -406
16 -555 2 -71 7 -245 10 -385 5 -292 14 -673 20 -870 3 -74 7 -270 10 -435 3
-165 9 -417 15 -560 11 -304 19 -542 25 -710 2 -66 7 -193 11 -283 l7 -162 59
0 c60 0 60 0 54 26 -4 15 -7 61 -7 103 0 42 -4 105 -10 140 -6 38 -6 68 -1 75
6 6 4 36 -4 76 -8 37 -10 66 -4 70 9 5 4 205 -5 221 -11 17 -15 156 -5 189 8
27 7 38 -4 49 -9 9 -12 21 -7 35 8 25 6 123 -5 221 -4 39 -7 84 -7 100 0 17 0
68 1 115 0 47 0 120 1 163 1 71 -2 80 -24 101 -30 28 -30 31 -5 56 16 16 19
30 16 77 -2 32 -8 78 -13 103 -9 40 -19 257 -15 335 4 98 2 209 -6 270 -6 45
-6 76 1 86 7 11 7 26 0 46 -7 18 -9 108 -6 240 3 145 1 213 -6 218 -6 3 -8 17
-5 31 3 13 3 32 -1 41 -7 18 -13 133 -16 293 -1 47 -6 91 -11 98 -7 8 -7 17 2
27 9 11 7 19 -10 37 -21 23 -21 23 -1 36 18 12 18 16 5 48 -8 19 -17 67 -20
106 -3 40 -7 75 -10 79 -2 5 1 29 7 54 10 40 9 48 -6 66 -14 15 -16 22 -7 31
13 13 16 29 5 27 -5 -1 -16 -3 -26 -6z"/>
<path d="M18580 3801 c0 -12 39 -25 48 -16 7 7 -17 25 -35 25 -7 0 -13 -4 -13
-9z"/>
</g>
</svg>
