<?xml version="1.0" standalone="no"?>
<!DOCTYPE svg PUBLIC "-//W3C//DTD SVG 20010904//EN"
 "http://www.w3.org/TR/2001/REC-SVG-20010904/DTD/svg10.dtd">
<svg version="1.0" xmlns="http://www.w3.org/2000/svg"
 width="3264.000000pt" height="2448.000000pt" viewBox="0 0 3264.000000 2448.000000"
 preserveAspectRatio="xMidYMid meet">
<metadata>
Created by potrace 1.12, written by Peter Selinger 2001-2015
</metadata>
<g transform="translate(0.000000,2448.000000) scale(0.100000,-0.100000)"
fill="#000000" stroke="none">
<path d="M12011 23770 c-33 -5 -43 -15 -55 -53 -5 -16 -20 -18 -153 -17 -82 1
-157 1 -168 1 -11 0 -37 0 -58 1 -21 0 -41 -2 -44 -6 -15 -14 14 -21 105 -23
53 -2 140 -5 192 -8 52 -3 178 -7 280 -10 102 -2 298 -9 435 -14 138 -6 381
-13 540 -17 160 -3 495 -12 745 -19 250 -7 457 -11 460 -10 3 2 53 4 110 4
102 0 135 -1 415 -14 72 -3 175 -7 230 -10 141 -6 558 -15 910 -21 372 -6 530
-10 688 -18 144 -8 182 0 182 35 0 22 -3 24 -55 24 -30 0 -87 -3 -127 -8 -68
-7 -72 -6 -75 14 l-3 21 -25 -22 c-22 -20 -32 -21 -90 -15 -36 4 -91 7 -123 6
-31 -1 -63 1 -70 6 -6 4 -88 8 -182 10 -93 1 -233 5 -310 8 -77 4 -288 7 -470
8 -245 2 -336 6 -353 15 -21 12 -39 11 -127 -5 -29 -5 -30 -5 -12 14 21 24 22
39 1 47 -13 5 -189 0 -277 -7 -7 -1 -43 2 -82 6 -38 4 -122 9 -185 12 -91 3
-120 1 -138 -11 -16 -11 -35 -14 -62 -9 -35 6 -219 13 -425 16 -55 1 -101 -4
-117 -11 -23 -11 -41 -11 -96 0 -52 9 -80 10 -120 1 -40 -8 -57 -8 -72 1 -15
9 -24 9 -43 -1 -21 -11 -91 -11 -403 0 -381 12 -439 13 -549 10 -151 -6 -205
3 -177 31 30 30 8 47 -47 38z"/>
<path d="M10705 23720 c-4 -6 -3 -16 3 -22 6 -6 12 -6 17 2 4 6 3 16 -3 22 -6
6 -12 6 -17 -2z"/>
<path d="M11110 23710 c-13 -9 -13 -11 0 -20 8 -5 24 -10 35 -10 11 0 27 5 35
10 13 9 13 11 0 20 -8 5 -24 10 -35 10 -11 0 -27 -5 -35 -10z"/>
<path d="M11244 23709 c-12 -20 11 -27 121 -33 118 -7 149 0 126 28 -11 13
-36 16 -127 16 -70 0 -115 -4 -120 -11z"/>
<path d="M10980 23700 c0 -5 7 -10 15 -10 8 0 15 5 15 10 0 6 -7 10 -15 10 -8
0 -15 -4 -15 -10z"/>
<path d="M17066 23575 c-10 -8 -24 -16 -30 -18 -27 -10 13 -26 64 -26 169 1
175 2 175 29 0 21 -4 25 -25 23 -14 -2 -53 -6 -87 -9 -44 -5 -63 -3 -63 5 0
15 -11 14 -34 -4z"/>
<path d="M16882 23569 c-32 -12 -23 -33 16 -37 37 -4 72 13 72 33 0 17 -51 20
-88 4z"/>
<path d="M17392 23564 c-11 -8 -25 -14 -29 -13 -4 1 -24 1 -42 0 -25 -1 -32
-4 -25 -11 15 -15 146 -8 151 7 7 21 -32 34 -55 17z"/>
<path d="M17477 23563 c-16 -16 -5 -33 21 -33 15 0 38 -1 52 -2 17 -2 25 2 25
12 0 10 -10 15 -27 15 -15 1 -30 4 -34 8 -9 9 -29 9 -37 0z"/>
<path d="M6905 23550 c-3 -5 1 -10 10 -10 9 0 13 5 10 10 -3 6 -8 10 -10 10
-2 0 -7 -4 -10 -10z"/>
<path d="M17642 23549 c-41 -16 -13 -29 63 -29 66 0 107 14 73 24 -33 11 -115
14 -136 5z"/>
<path d="M7320 23541 c0 -11 30 -19 48 -14 23 8 12 23 -18 23 -16 0 -30 -4
-30 -9z"/>
<path d="M17837 23543 c-11 -10 -8 -20 8 -27 21 -8 45 3 45 20 0 14 -41 20
-53 7z"/>
<path d="M7513 23533 c9 -2 23 -2 30 0 6 3 -1 5 -18 5 -16 0 -22 -2 -12 -5z"/>
<path d="M7698 23533 c7 -3 16 -2 19 1 4 3 -2 6 -13 5 -11 0 -14 -3 -6 -6z"/>
<path d="M7955 23531 c-17 -7 -16 -8 10 -13 33 -7 57 0 49 13 -6 11 -31 11
-59 0z"/>
<path d="M8121 23530 c-21 -13 61 -35 83 -23 10 5 37 7 62 3 30 -5 50 -3 62 6
20 16 24 15 -98 20 -52 2 -101 -1 -109 -6z"/>
<path d="M8364 23526 c-18 -14 -18 -15 9 -21 15 -4 39 -4 53 -1 21 6 24 9 14
21 -16 19 -51 19 -76 1z"/>
<path d="M8482 23533 c-13 -3 -21 -10 -19 -16 6 -18 111 -23 927 -43 118 -2
265 -7 325 -9 61 -3 362 -11 670 -20 308 -8 612 -17 675 -20 63 -2 219 -7 345
-10 289 -7 836 -23 1020 -30 77 -3 322 -10 545 -15 758 -19 1515 -39 1640 -45
69 -3 429 -12 800 -20 371 -8 770 -17 885 -20 597 -15 1658 -35 2665 -50 206
-3 454 -8 550 -10 281 -6 1354 -20 1599 -20 162 0 225 3 228 12 2 6 -4 14 -14
17 -10 3 -173 8 -363 10 -422 7 -765 13 -1405 26 -269 6 -717 15 -995 20
-1757 34 -3800 83 -5455 130 -192 6 -604 17 -915 25 -311 8 -630 17 -710 20
-137 5 -670 18 -1225 30 -137 3 -335 7 -440 10 -442 13 -527 15 -865 20 -195
3 -375 7 -400 9 -25 2 -55 1 -68 -1z"/>
<path d="M18085 23530 c-3 -5 1 -10 9 -10 9 0 16 5 16 10 0 6 -4 10 -9 10 -6
0 -13 -4 -16 -10z"/>
<path d="M18173 23523 c9 -2 25 -2 35 0 9 3 1 5 -18 5 -19 0 -27 -2 -17 -5z"/>
<path d="M5 23350 c-4 -7 -3 -16 3 -22 14 -14 47 -6 47 12 0 18 -40 26 -50 10z"/>
<path d="M115 23350 c-12 -20 6 -29 53 -25 26 2 51 4 56 5 6 0 6 3 0 9 -15 14
-101 23 -109 11z"/>
<path d="M261 23346 c-11 -13 -9 -17 13 -28 32 -14 81 -1 81 22 0 22 -78 26
-94 6z"/>
<path d="M546 23353 c-2 -3 -39 -5 -80 -5 -68 1 -98 -9 -82 -25 4 -4 70 -8
149 -10 78 -2 189 -5 247 -7 58 -2 233 -7 390 -10 157 -4 303 -8 325 -11 22
-2 153 -7 290 -10 138 -3 412 -10 610 -15 198 -5 518 -12 710 -15 193 -3 375
-7 405 -10 30 -2 246 -7 480 -10 234 -3 488 -7 565 -10 77 -3 338 -7 580 -10
242 -3 535 -7 650 -10 116 -3 383 -7 595 -10 597 -9 2290 -44 2635 -55 171 -5
490 -14 710 -20 870 -22 1157 -30 1310 -35 88 -3 306 -10 485 -15 179 -6 462
-15 630 -20 168 -5 467 -14 665 -20 198 -5 518 -14 710 -20 193 -6 607 -17
920 -25 314 -8 656 -17 760 -20 105 -3 534 -12 955 -20 421 -8 857 -17 970
-20 224 -6 473 -10 1360 -25 322 -5 862 -14 1200 -20 338 -5 966 -15 1395 -20
2479 -33 2477 -33 3455 -51 333 -6 691 -15 795 -19 105 -5 228 -8 275 -8 47 1
99 2 115 2 46 0 693 -14 1150 -24 226 -5 523 -12 660 -15 138 -3 345 -7 460
-10 116 -3 334 -7 485 -10 151 -3 392 -7 535 -11 143 -3 386 -7 540 -9 294 -4
799 -14 825 -16 8 -1 224 -1 480 0 256 0 602 -2 770 -4 168 -3 464 -7 658 -9
l352 -5 0 28 c0 27 -2 28 -52 27 -125 0 -1915 15 -2238 19 -572 7 -1038 16
-1560 30 -102 2 -329 7 -505 10 -176 4 -354 8 -395 10 -70 4 -189 6 -850 20
-140 3 -392 10 -560 15 -168 5 -438 12 -600 15 -162 3 -358 8 -435 10 -77 3
-275 7 -440 10 -165 3 -352 7 -415 10 -63 3 -284 7 -490 10 -206 3 -503 7
-660 10 -157 3 -442 7 -635 10 -192 3 -476 7 -630 10 -154 3 -492 8 -752 11
l-472 6 2 22 c2 17 -3 21 -28 21 -24 0 -31 -5 -33 -23 l-4 -23 -276 6 c-152 3
-547 10 -877 15 -330 6 -825 14 -1100 20 -275 5 -738 14 -1030 20 -723 14
-2169 47 -2620 60 -203 6 -622 17 -930 25 -308 8 -708 20 -890 25 -181 6 -580
17 -885 25 -305 8 -721 19 -925 25 -518 14 -1043 28 -1505 40 -217 6 -564 15
-770 20 -399 11 -2145 46 -2745 55 -622 9 -967 14 -1390 20 -225 3 -518 7
-650 10 -132 3 -406 8 -610 10 -203 3 -500 7 -660 10 -159 3 -445 7 -635 10
-190 3 -367 7 -395 10 -27 3 -259 7 -515 10 -256 3 -535 8 -621 11 -100 4
-163 3 -175 -4 -11 -6 -26 -7 -34 -2 -19 9 -97 20 -104 13z"/>
<path d="M21381 23227 c-16 -20 -4 -27 45 -27 45 0 67 16 43 31 -21 13 -75 11
-88 -4z"/>
<path d="M21510 23221 c-12 -9 -12 -11 2 -16 23 -9 73 -2 73 10 0 13 -56 18
-75 6z"/>
<path d="M21647 23224 c-14 -14 -6 -24 19 -24 16 0 24 5 22 13 -5 14 -31 21
-41 11z"/>
<path d="M21860 23210 c0 -5 5 -10 10 -10 6 0 10 5 10 10 0 6 -4 10 -10 10 -5
0 -10 -4 -10 -10z"/>
<path d="M21962 23208 c5 -15 57 -18 61 -3 1 6 -13 11 -32 13 -24 3 -32 0 -29
-10z"/>
<path d="M22370 23200 c0 -5 7 -10 15 -10 8 0 15 5 15 10 0 6 -7 10 -15 10 -8
0 -15 -4 -15 -10z"/>
<path d="M4119 19876 c-2 -2 -249 -9 -548 -15 -300 -7 -655 -18 -790 -27 -135
-8 -376 -21 -536 -29 -159 -8 -364 -20 -455 -27 -91 -6 -282 -12 -425 -12
-214 -1 -277 2 -358 18 -78 15 -100 16 -112 6 -21 -17 -19 -57 3 -69 67 -36
425 -48 772 -27 966 61 1318 77 1930 87 390 7 640 15 648 21 37 30 -9 78 -76
78 -27 0 -51 -2 -53 -4z"/>
<path d="M6272 19610 c-106 -43 -353 -285 -474 -464 -148 -221 -261 -521 -275
-727 -8 -127 13 -222 79 -359 41 -85 63 -117 117 -170 37 -36 91 -77 122 -92
96 -46 195 -61 219 -33 20 24 -4 42 -64 48 -174 18 -322 188 -381 437 -33 145
-9 304 82 540 87 223 193 384 369 557 129 127 179 164 252 188 34 11 54 24 58
38 12 38 -47 59 -104 37z"/>
<path d="M10258 19592 c-32 -7 -32 -42 0 -76 46 -48 64 -92 171 -416 116 -350
136 -445 128 -613 -6 -137 -25 -215 -83 -330 -58 -116 -114 -197 -185 -268
-50 -50 -64 -59 -91 -57 -26 3 -35 -2 -46 -25 -16 -32 -8 -63 18 -77 75 -40
294 203 397 440 59 135 77 233 71 394 -4 87 -12 158 -26 211 -28 105 -217 676
-238 717 -40 79 -75 109 -116 100z"/>
<path d="M12401 19366 c-206 -156 -450 -399 -537 -537 -195 -310 -225 -628
-85 -907 103 -204 292 -382 406 -382 58 0 72 54 16 66 -63 13 -111 44 -181
115 -212 215 -290 504 -213 794 24 93 104 252 171 340 119 159 370 384 543
487 72 42 93 74 69 103 -26 31 -63 15 -189 -79z"/>
<path d="M16178 19339 c-28 -16 -22 -35 23 -76 56 -51 83 -101 113 -208 79
-274 118 -656 95 -935 -27 -349 -112 -632 -252 -847 -84 -128 -226 -253 -288
-253 -49 0 -75 -44 -43 -71 49 -40 144 4 258 120 136 140 238 314 306 526 73
231 93 369 93 675 1 404 -48 734 -138 925 -56 117 -120 173 -167 144z"/>
<path d="M3406 19298 c-14 -24 -46 -248 -46 -329 0 -76 -40 -450 -55 -514 -7
-33 -19 -85 -26 -115 -6 -30 -25 -84 -40 -119 -32 -70 -35 -93 -16 -109 7 -6
83 -9 202 -8 161 2 203 5 273 24 170 46 239 86 277 162 44 87 25 188 -49 263
-133 132 -355 89 -527 -101 -48 -53 -51 -55 -46 -27 17 89 58 350 77 490 12
88 31 204 41 258 23 118 23 112 3 131 -22 23 -51 20 -68 -6z m421 -769 c117
-57 126 -206 16 -265 -135 -74 -513 -113 -513 -53 0 39 142 227 200 265 108
72 218 91 297 53z"/>
<path d="M12762 19213 c-32 -6 -56 -46 -43 -71 9 -17 29 -19 253 -27 134 -5
376 -10 538 -10 209 -1 302 -5 318 -14 37 -20 72 9 72 60 0 13 -12 25 -34 34
-28 12 -87 13 -327 9 -223 -5 -344 -2 -501 10 -209 16 -234 17 -276 9z"/>
<path d="M7450 19174 c-19 -2 -98 -9 -175 -14 -77 -6 -216 -20 -310 -31 -121
-13 -238 -19 -407 -19 -202 0 -239 -2 -252 -16 -20 -19 -20 -48 -1 -67 21 -22
362 -12 680 18 322 31 501 45 590 45 59 0 75 4 90 20 15 17 16 24 7 45 -11 24
-15 25 -99 23 -49 0 -104 -3 -123 -4z"/>
<path d="M8470 19140 c-29 -54 -61 -238 -67 -386 l-6 -152 -166 -4 c-193 -5
-224 -14 -229 -65 -5 -47 29 -61 101 -44 28 7 110 15 180 18 l129 6 -4 -159
c-3 -135 -7 -164 -23 -190 -16 -27 -17 -34 -6 -48 14 -17 48 -21 67 -8 31 21
36 56 33 231 l-4 176 40 2 c193 12 383 47 413 77 8 8 12 22 9 30 -8 20 -44 20
-161 1 -120 -20 -292 -30 -299 -18 -11 17 23 307 45 388 12 44 22 98 22 120 1
38 -1 40 -31 43 -24 2 -34 -2 -43 -18z"/>
<path d="M9419 19114 c-9 -11 -11 -39 -8 -97 2 -45 4 -170 3 -277 -1 -227 -17
-334 -70 -485 -51 -141 -50 -135 -12 -173 31 -29 44 -33 124 -43 112 -14 351
-6 424 15 85 24 174 72 214 116 107 119 66 317 -84 396 -28 15 -56 19 -135 18
-88 0 -109 -4 -178 -32 -71 -29 -144 -71 -209 -122 l-27 -21 5 38 c3 21 10 63
16 93 6 30 13 164 15 297 5 214 4 246 -11 268 -19 28 -47 32 -67 9z m569 -628
c72 -37 112 -143 82 -216 -40 -96 -225 -160 -465 -160 -128 0 -165 7 -165 30
0 10 -7 23 -15 30 -25 20 -18 44 34 111 65 87 112 126 198 166 135 62 258 77
331 39z"/>
<path d="M12966 18984 c-10 -10 -16 -33 -16 -66 0 -52 -44 -450 -61 -553 -21
-131 -42 -204 -84 -290 -24 -49 -49 -116 -55 -147 -11 -56 -12 -57 -40 -51
-34 6 -48 -13 -31 -45 14 -25 114 -78 186 -97 158 -41 371 9 542 127 191 131
213 241 74 371 -136 128 -296 147 -468 57 -40 -20 -73 -32 -73 -26 0 6 9 49
21 96 26 107 79 484 79 559 0 31 -5 62 -12 69 -17 17 -44 15 -62 -4z m388
-758 c69 -34 136 -105 136 -144 0 -82 -197 -217 -386 -266 -114 -29 -305 -14
-288 23 4 9 24 67 45 129 53 158 80 197 167 242 109 57 231 63 326 16z"/>
<path d="M14801 18901 c-37 -37 -119 -320 -145 -503 l-12 -83 -104 0 c-58 0
-152 7 -209 14 -72 10 -108 11 -120 4 -21 -13 -26 -66 -7 -82 18 -15 258 -32
354 -24 59 5 72 3 72 -9 0 -36 -72 -292 -95 -337 -27 -54 -31 -76 -15 -86 19
-12 47 5 67 43 26 45 75 209 93 311 8 40 18 75 24 77 6 2 72 12 146 23 155 22
263 56 268 85 7 34 -12 38 -99 21 -104 -20 -258 -45 -283 -45 -16 0 -18 5 -12
39 12 76 88 347 122 434 35 92 35 117 -2 131 -22 8 -22 8 -43 -13z"/>
<path d="M15476 18828 c-10 -17 -16 -76 -20 -209 -7 -204 -27 -416 -52 -554
-12 -64 -28 -111 -55 -160 -21 -38 -45 -97 -55 -131 -14 -53 -19 -60 -38 -57
-13 3 -28 -2 -36 -12 -21 -26 6 -93 49 -122 108 -73 272 -54 495 59 116 58
173 95 239 157 85 79 105 146 68 226 -81 179 -290 214 -513 85 -46 -26 -84
-46 -86 -45 -2 2 8 61 21 132 37 191 73 602 55 636 -13 24 -55 22 -72 -5z
m393 -729 c49 -11 83 -34 118 -81 30 -41 29 -74 -2 -120 -81 -120 -461 -303
-588 -284 -47 8 -105 35 -75 36 25 0 42 32 79 145 17 55 43 117 56 138 41 65
158 136 268 163 63 15 89 16 144 3z"/>
<path d="M6624 18830 c-139 -29 -277 -162 -356 -341 -30 -67 -33 -83 -33 -174
0 -83 4 -107 22 -140 42 -79 105 -115 199 -115 69 0 140 33 202 93 94 91 205
292 228 411 3 20 9 38 13 40 4 3 24 -39 45 -92 41 -101 166 -336 218 -408 42
-59 101 -82 128 -49 19 23 7 49 -32 67 -43 21 -58 43 -161 251 -103 209 -150
331 -142 366 7 35 -14 54 -82 74 -66 20 -196 28 -249 17z m205 -86 c21 -6 22
-11 17 -48 -21 -130 -92 -291 -182 -413 -65 -87 -117 -128 -186 -142 -43 -10
-56 -9 -86 6 -57 29 -76 63 -80 148 -6 118 40 231 139 340 60 65 98 90 170
110 52 14 151 14 208 -1z"/>
<path d="M1555 18810 c-156 -33 -395 -189 -495 -325 -76 -103 -129 -250 -115
-317 17 -75 103 -126 189 -113 191 30 380 162 502 351 37 57 97 185 108 227 3
15 10 27 14 27 4 0 24 -48 46 -106 54 -147 109 -257 168 -337 79 -106 146
-147 182 -112 21 21 9 38 -41 62 -70 33 -146 155 -208 331 -18 53 -41 115 -49
137 -8 22 -15 52 -16 66 0 34 -27 99 -43 104 -29 9 -206 12 -242 5z m167 -65
c14 -14 -83 -223 -144 -314 -56 -82 -187 -203 -259 -238 -127 -62 -236 -77
-280 -37 -58 52 26 260 154 381 87 82 225 163 332 194 56 17 185 25 197 14z"/>
<path d="M18617 18673 c-4 -3 -7 -19 -7 -34 0 -40 28 -54 140 -73 163 -27 277
-29 753 -16 348 10 490 10 574 2 62 -6 120 -9 128 -6 21 8 36 39 29 57 -15 39
-53 42 -464 37 -217 -3 -514 -4 -660 -4 -237 1 -273 4 -344 23 -80 21 -137 27
-149 14z"/>
<path d="M22998 18650 c-150 -27 -317 -155 -438 -337 -126 -188 -177 -321
-167 -439 6 -77 31 -121 89 -154 38 -22 55 -25 148 -25 91 0 113 4 168 26 102
44 172 90 247 164 56 56 81 91 122 175 66 133 87 211 81 310 -5 78 -17 108
-67 163 -19 21 -22 30 -13 39 52 52 -52 99 -170 78z m92 -139 c109 -57 116
-223 19 -421 -115 -232 -414 -388 -581 -303 -49 24 -61 54 -56 142 4 69 10 91
53 176 86 174 211 330 295 367 137 62 209 72 270 39z"/>
<path d="M4971 18631 c-12 -12 -21 -27 -21 -34 0 -23 52 -95 77 -106 72 -33
162 11 178 87 8 39 -7 62 -40 62 -23 0 -75 -41 -75 -60 0 -24 -30 -7 -47 28
-21 44 -44 51 -72 23z"/>
<path d="M2753 18618 c-31 -39 -17 -78 27 -78 28 0 60 22 60 41 0 6 -5 19 -10
30 -12 22 -62 26 -77 7z"/>
<path d="M11307 18613 c-21 -5 -39 -46 -30 -69 10 -27 52 -37 79 -19 34 22 33
72 -2 85 -14 6 -26 9 -27 9 -1 -1 -10 -3 -20 -6z"/>
<path d="M23863 18570 c-26 -11 -45 -43 -37 -64 10 -25 42 -29 82 -9 78 38 36
106 -45 73z"/>
<path d="M26488 18507 c-10 -7 -18 -33 -20 -67 -2 -31 -11 -69 -20 -85 -8 -17
-45 -87 -82 -157 -71 -134 -136 -303 -136 -353 0 -76 41 -71 58 7 16 70 85
222 151 331 81 134 113 211 109 264 -4 54 -32 82 -60 60z"/>
<path d="M24801 18375 c-22 -50 -19 -71 10 -80 43 -14 74 29 67 91 -2 23 -9
30 -30 32 -23 3 -29 -3 -47 -43z"/>
<path d="M23782 18390 c-85 -25 -178 -70 -227 -109 -21 -18 -63 -66 -92 -107
-42 -59 -56 -88 -68 -146 -16 -78 -10 -98 30 -98 30 0 39 13 59 91 22 85 65
159 115 198 51 40 149 86 229 106 58 15 65 15 88 0 34 -22 44 -54 44 -133 0
-85 -13 -132 -45 -162 -30 -28 -32 -55 -5 -70 33 -18 74 11 101 72 32 72 35
242 5 302 -38 76 -109 93 -234 56z"/>
<path d="M30462 18364 c-15 -11 -22 -25 -22 -49 0 -52 36 -57 89 -14 46 36 48
41 25 63 -20 20 -63 20 -92 0z"/>
<path d="M17044 18351 c-161 -6 -184 -13 -184 -56 0 -38 23 -48 97 -41 231 20
639 28 860 16 241 -14 263 -12 263 26 0 23 -35 31 -201 48 -156 16 -497 19
-835 7z"/>
<path d="M19441 18310 c-25 -27 -50 -50 -54 -50 -5 0 -21 9 -36 19 -36 26
-137 51 -204 51 -134 0 -331 -73 -429 -159 -118 -104 -130 -257 -26 -320 74
-46 164 -35 315 38 151 74 248 140 343 236 46 47 88 85 92 85 5 0 8 -30 8 -66
0 -89 27 -256 52 -319 27 -68 64 -114 106 -132 45 -19 82 -5 82 31 0 28 -16
43 -49 48 -60 8 -104 175 -105 404 -2 150 -9 184 -39 184 -5 0 -31 -22 -56
-50z m-158 -86 c26 -9 47 -19 47 -24 0 -26 -228 -176 -355 -233 -139 -62 -227
-71 -260 -24 -22 32 -18 69 13 115 56 84 206 164 347 186 48 7 156 -3 208 -20z"/>
<path d="M28623 18245 c-191 -59 -315 -291 -413 -772 -25 -122 -21 -143 26
-143 37 0 56 39 59 127 2 43 11 112 20 153 17 77 45 183 50 188 2 2 15 -8 30
-22 67 -63 201 -43 342 51 102 67 158 191 133 294 -28 116 -122 163 -247 124z
m134 -70 c30 -21 47 -78 40 -137 -9 -73 -57 -127 -158 -178 -65 -32 -92 -40
-135 -40 -46 0 -56 3 -70 25 -9 14 -23 25 -31 25 -16 0 -13 16 19 92 42 98
128 190 203 216 45 15 108 14 132 -3z"/>
<path d="M27330 18227 c-152 -63 -243 -180 -244 -317 -2 -131 63 -190 220
-198 71 -4 85 -2 90 12 10 26 -15 46 -56 46 -52 0 -128 25 -156 51 -19 18 -24
33 -24 73 0 83 17 124 73 180 82 81 239 128 283 84 57 -56 -126 -156 -258
-141 -48 6 -73 -11 -66 -44 6 -30 47 -44 118 -40 88 5 181 50 243 116 40 43
47 56 47 91 0 52 -13 76 -50 95 -45 23 -154 19 -220 -8z"/>
<path d="M24356 18188 c-244 -215 -293 -275 -253 -315 29 -29 67 -6 195 120
99 98 125 119 133 107 6 -9 8 -119 6 -295 -4 -245 -7 -290 -25 -363 -27 -101
-46 -140 -77 -154 -47 -21 -79 17 -144 175 -7 19 -17 27 -29 25 -47 -10 7
-189 75 -248 74 -65 140 -30 197 105 67 162 84 307 71 639 -7 191 -8 200 -31
223 -33 33 -62 29 -118 -19z"/>
<path d="M27766 18164 c-29 -29 -11 -125 41 -213 l26 -45 -29 -20 c-53 -38
-131 -122 -138 -150 -8 -34 7 -56 40 -56 17 0 32 14 58 54 32 50 88 96 116 96
7 0 30 -16 51 -35 58 -52 135 -87 194 -89 45 -1 50 1 53 22 2 14 -3 24 -15 28
-100 30 -213 93 -213 117 0 7 51 38 113 69 136 69 273 151 306 183 26 25 23
55 -5 55 -9 0 -55 -22 -103 -49 -167 -94 -359 -188 -370 -182 -13 9 -46 103
-56 162 -11 68 -36 87 -69 53z"/>
<path d="M29457 18156 c-20 -8 -44 -19 -52 -26 -10 -8 -34 -10 -80 -5 -59 7
-70 5 -121 -21 -90 -45 -264 -245 -264 -302 0 -14 9 -26 25 -34 49 -22 110 28
92 76 -7 18 113 160 162 193 39 26 91 31 91 9 0 -8 -4 -17 -9 -20 -4 -3 -14
-25 -21 -50 -45 -162 117 -279 365 -264 103 7 149 29 153 73 3 31 -8 49 -85
145 -77 94 -51 147 87 175 49 10 55 14 55 35 0 22 -5 25 -45 28 -62 5 -114
-13 -161 -55 -29 -27 -39 -31 -39 -18 0 9 -13 30 -29 46 -33 32 -64 36 -124
15z m88 -65 c8 -14 -28 -31 -64 -31 -38 0 -40 15 -3 28 35 14 59 14 67 3z m75
-161 c7 -14 30 -45 52 -69 51 -59 49 -69 -14 -73 -133 -8 -247 25 -288 82 -30
42 -32 103 -4 130 19 19 22 20 57 5 52 -22 97 -19 137 9 l35 24 5 -42 c3 -22
12 -52 20 -66z"/>
<path d="M25663 18129 c-105 -52 -206 -226 -177 -304 9 -21 56 -45 92 -45 50
0 133 50 177 107 22 28 48 62 58 75 l18 23 -5 -35 c-19 -124 -19 -140 -1 -160
20 -22 55 -26 86 -10 27 15 24 49 -6 60 -29 11 -29 8 -10 85 19 80 19 169 0
185 -30 25 -68 -8 -139 -120 -15 -25 -38 -56 -50 -68 -42 -47 -134 -79 -151
-52 -10 16 30 94 67 131 19 20 60 47 91 62 58 27 71 49 45 75 -18 18 -47 15
-95 -9z"/>
<path d="M30245 18140 c-136 -28 -265 -134 -265 -218 0 -29 10 -44 65 -98 36
-35 65 -70 65 -78 0 -17 -20 -34 -79 -66 -36 -19 -46 -31 -46 -50 0 -21 5 -25
35 -28 65 -5 170 83 170 143 0 30 -40 90 -87 130 -24 20 -43 45 -43 55 0 23
63 86 110 110 34 17 92 32 173 45 49 8 106 -11 116 -38 13 -35 -6 -104 -54
-194 -47 -89 -53 -125 -22 -131 29 -6 50 21 101 127 60 125 71 200 35 245 -12
16 -37 35 -55 42 -36 15 -153 17 -219 4z"/>
<path d="M24728 18129 c-22 -12 -22 -39 -2 -126 16 -69 13 -147 -7 -185 -5
-10 -23 -25 -39 -33 -47 -24 -36 -65 17 -65 30 0 81 49 98 95 14 36 17 68 13
166 -4 112 -6 123 -27 140 -27 22 -30 22 -53 8z"/>
<path d="M25280 18114 c-25 -14 -77 -57 -116 -95 -40 -38 -75 -69 -78 -69 -4
0 -4 11 0 25 4 18 1 32 -11 45 -43 47 -70 8 -79 -112 -9 -135 20 -133 159 11
100 102 157 143 174 126 7 -7 0 -41 -20 -98 -17 -48 -29 -95 -27 -104 5 -24
32 -37 60 -30 31 8 42 31 28 57 -7 14 -4 37 15 88 31 85 32 135 5 162 -27 27
-56 25 -110 -6z"/>
<path d="M16978 18099 c-21 -12 -24 -52 -5 -66 6 -6 53 -15 102 -21 50 -6 153
-21 230 -32 114 -18 191 -22 410 -23 252 -2 273 -1 310 18 30 15 41 27 43 47
4 34 -24 44 -88 29 -67 -15 -436 -13 -575 4 -66 7 -176 23 -245 34 -141 24
-158 25 -182 10z"/>
<path d="M30642 18070 c-61 -14 -91 -62 -57 -90 12 -10 20 -9 40 4 15 10 46
16 80 16 49 0 60 -4 86 -29 22 -23 29 -39 29 -69 0 -52 -48 -123 -105 -156
-84 -50 -81 -32 14 81 63 74 73 99 44 110 -12 5 -36 -14 -88 -69 -133 -141
-167 -220 -103 -242 35 -12 157 45 215 102 137 134 113 307 -47 341 -57 12
-61 12 -108 1z"/>
<path d="M30984 17893 c-110 -157 -110 -157 -68 -173 29 -11 83 11 174 69 25
16 56 32 69 36 l24 7 -7 -78 c-17 -195 -17 -229 -4 -254 9 -16 22 -25 38 -25
25 0 25 2 31 105 4 58 10 148 14 201 l8 97 -26 17 c-33 21 -73 14 -144 -27
-29 -16 -53 -27 -53 -24 0 3 9 20 20 38 11 18 20 36 20 40 0 9 -30 38 -40 38
-5 0 -30 -30 -56 -67z"/>
<path d="M9903 17385 c-13 -9 -23 -22 -23 -29 0 -19 33 -46 57 -46 34 0 108
-74 147 -150 65 -123 88 -235 93 -455 4 -163 2 -208 -16 -316 -59 -345 -168
-667 -270 -792 -57 -70 -93 -91 -146 -84 -42 6 -75 -8 -75 -32 0 -22 40 -41
86 -41 199 0 393 394 485 985 28 177 11 475 -37 636 -61 205 -223 379 -301
324z"/>
<path d="M2770 17353 c-239 -8 -773 -40 -1080 -63 -80 -6 -288 -22 -462 -35
-174 -13 -326 -29 -337 -35 -11 -6 -26 -20 -32 -32 -10 -18 -8 -24 10 -39 17
-14 28 -16 53 -8 95 27 1150 116 1593 134 244 10 868 7 1030 -5 155 -12 290
-31 361 -51 48 -14 74 -7 74 19 0 27 -39 59 -85 70 -150 39 -690 60 -1125 45z"/>
<path d="M5773 17350 c-63 -26 -217 -142 -303 -229 -196 -200 -328 -435 -376
-673 -43 -214 23 -435 178 -591 62 -63 70 -68 105 -65 55 4 57 35 3 66 -117
66 -220 290 -220 476 0 141 98 392 220 564 114 162 313 330 430 363 55 15 70
26 70 50 0 41 -53 61 -107 39z"/>
<path d="M12712 17188 c-18 -22 -70 -360 -82 -533 -26 -368 -57 -564 -154
-966 -32 -131 -33 -174 -7 -189 32 -17 71 4 71 37 0 27 29 182 70 373 37 173
68 383 85 575 23 279 42 425 72 559 29 128 26 149 -19 154 -14 2 -30 -3 -36
-10z"/>
<path d="M8037 16975 c-24 -23 -38 -109 -42 -245 l-3 -125 -136 -3 c-130 -2
-137 -4 -151 -26 -18 -28 -10 -54 19 -66 12 -4 79 -6 148 -3 l125 6 7 -132 c5
-97 3 -142 -6 -168 -11 -31 -11 -36 7 -49 26 -19 32 -18 62 12 l26 26 -7 132
c-4 72 -8 142 -9 156 -2 24 0 25 83 33 257 23 410 61 410 101 0 26 -18 28 -98
12 -68 -14 -298 -36 -376 -36 l-29 0 6 102 c4 57 14 135 24 175 16 70 16 73
-2 93 -22 24 -38 25 -58 5z"/>
<path d="M3060 16961 c-5 -11 -10 -53 -10 -93 0 -88 -17 -290 -31 -373 -5 -33
-22 -97 -36 -143 -23 -73 -24 -85 -11 -98 21 -21 42 -9 86 49 22 29 66 79 98
113 100 103 257 164 346 135 42 -14 96 -68 107 -107 20 -76 -45 -161 -158
-206 -51 -21 -73 -23 -231 -23 -160 0 -184 2 -284 28 -101 27 -110 28 -125 12
-28 -28 20 -57 150 -90 101 -26 131 -29 269 -30 137 0 163 3 223 23 91 32 175
95 210 159 83 153 -27 313 -215 313 -115 0 -198 -37 -306 -135 -35 -32 -65
-56 -67 -54 -2 2 3 31 10 64 16 70 55 367 55 417 0 19 -5 39 -12 46 -18 18
-56 14 -68 -7z"/>
<path d="M9107 16905 c-9 -8 -18 -27 -21 -42 -6 -27 -66 -556 -66 -580 0 -7
-10 -21 -21 -32 -18 -16 -21 -27 -16 -57 4 -21 2 -43 -4 -50 -6 -7 -9 -23 -7
-36 3 -20 9 -23 43 -23 28 0 55 -10 90 -32 147 -93 292 -95 432 -5 70 45 103
96 110 169 5 50 1 67 -20 108 -38 75 -97 124 -176 145 -87 23 -213 -23 -309
-114 l-55 -51 6 35 c4 19 18 114 33 210 14 96 30 195 35 220 20 95 22 120 9
135 -16 19 -44 19 -63 0z m373 -535 c46 -23 90 -91 90 -139 0 -103 -124 -182
-264 -167 -68 7 -199 65 -216 95 -7 15 -2 29 27 67 62 84 86 106 148 135 75
36 156 39 215 9z"/>
<path d="M6175 16827 c-12 -19 -14 -30 -6 -45 12 -23 57 -32 171 -32 49 0 179
-15 305 -35 341 -55 480 -57 499 -8 13 32 -13 43 -105 43 -52 0 -159 12 -266
31 -297 51 -353 58 -469 65 l-112 7 -17 -26z"/>
<path d="M22915 16739 c-243 -48 -468 -197 -606 -400 -23 -34 -63 -107 -89
-163 -111 -231 -112 -386 -5 -485 109 -101 250 -131 450 -96 145 26 240 74
208 106 -8 8 -31 5 -85 -10 -227 -64 -420 -40 -521 64 -45 46 -59 104 -46 186
26 162 155 393 285 508 110 99 264 179 393 207 122 26 275 13 323 -26 l23 -18
-25 -26 c-13 -15 -48 -33 -76 -42 -64 -18 -80 -34 -64 -63 15 -29 50 -26 128
11 79 37 101 61 102 108 0 91 -81 138 -249 145 -53 2 -118 0 -146 -6z"/>
<path d="M1653 16718 c-6 -7 -13 -21 -16 -30 -5 -14 -12 -15 -37 -8 -113 33
-333 -98 -434 -258 -38 -61 -66 -154 -66 -222 0 -51 4 -65 24 -85 73 -73 214
-26 349 117 82 88 147 183 175 258 11 30 23 54 28 53 4 -1 22 -46 39 -100 35
-107 139 -346 162 -369 18 -17 35 -18 51 -2 19 19 15 35 -43 152 -62 127 -118
275 -145 390 -24 100 -59 141 -87 104z m-49 -114 c28 -11 17 -50 -33 -126
-144 -214 -314 -353 -380 -311 -25 16 -24 64 4 138 34 90 90 163 168 219 105
75 185 101 241 80z"/>
<path d="M4620 16679 c-20 -36 2 -69 45 -69 28 0 38 5 44 23 20 51 -63 95 -89
46z"/>
<path d="M6455 16630 c-183 -17 -329 -110 -401 -255 -31 -63 -36 -81 -32 -120
6 -52 26 -79 83 -107 48 -25 133 -20 216 12 93 37 274 140 335 191 32 27 61
49 64 49 4 0 14 -44 24 -98 9 -54 25 -112 36 -129 22 -37 54 -50 76 -32 17 14
16 25 -17 114 -15 43 -23 95 -28 180 l-6 120 -30 5 c-16 3 -48 17 -71 33 -33
22 -140 52 -164 46 -3 -1 -41 -5 -85 -9z m190 -100 c22 -11 45 -20 52 -20 44
0 -22 -69 -130 -137 -174 -107 -343 -174 -405 -158 -37 9 -62 34 -62 62 0 64
90 172 181 218 108 55 291 72 364 35z"/>
<path d="M17960 16553 c-85 -13 -91 -15 -102 -38 -8 -19 -8 -28 2 -40 11 -13
31 -14 129 -9 77 4 217 -1 416 -15 165 -12 442 -24 615 -27 187 -3 330 -10
353 -16 25 -8 50 -8 75 -2 30 7 38 14 40 37 7 55 15 54 -431 60 -330 4 -470
10 -702 31 -279 25 -340 28 -395 19z"/>
<path d="M2476 16508 c-25 -35 -21 -76 8 -84 53 -13 83 18 74 77 -5 35 -60 39
-82 7z"/>
<path d="M10786 16494 c-21 -21 -20 -47 2 -67 37 -34 82 -15 82 33 0 14 -5 31
-12 38 -17 17 -54 15 -72 -4z"/>
<path d="M25617 16363 c-9 -10 -18 -46 -22 -83 -16 -158 -40 -254 -108 -427
-33 -85 -37 -105 -27 -118 7 -8 18 -15 24 -15 58 0 175 334 202 577 6 55 4 62
-14 72 -28 15 -36 14 -55 -6z"/>
<path d="M16510 16323 c-254 -24 -360 -54 -360 -102 0 -25 12 -33 107 -65 92
-31 128 -31 128 -1 0 14 -14 27 -44 41 -41 20 -42 22 -20 27 96 24 509 37 741
23 135 -8 148 -7 154 8 12 32 -20 47 -127 61 -94 13 -476 18 -579 8z"/>
<path d="M18187 16214 c-127 -30 -290 -125 -367 -211 -49 -55 -90 -135 -90
-177 0 -97 138 -167 305 -153 169 15 376 130 502 281 31 36 59 66 63 66 5 0
20 -37 35 -82 31 -93 105 -266 135 -315 21 -35 63 -52 89 -36 27 17 23 36 -18
91 -46 60 -137 286 -154 377 -10 61 -30 95 -53 95 -7 0 -36 -29 -64 -65 -104
-131 -286 -263 -420 -306 -134 -43 -302 -20 -331 45 -34 74 165 251 345 305
93 29 207 28 284 0 31 -12 71 -22 87 -23 27 -1 30 2 30 29 0 25 -7 33 -39 49
-93 45 -228 57 -339 30z"/>
<path d="M28616 16124 c-3 -9 -6 -49 -6 -89 0 -110 6 -105 -129 -105 -125 0
-161 -11 -161 -50 0 -33 38 -50 90 -40 25 5 76 9 113 10 l69 0 -7 -32 c-3 -18
-20 -61 -37 -96 -29 -58 -30 -64 -15 -79 14 -15 18 -15 39 -1 27 18 49 64 73
151 19 67 1 64 227 41 126 -13 161 -14 173 -4 18 15 19 36 3 46 -15 10 -162
31 -269 40 -48 3 -91 9 -97 13 -7 4 -6 34 3 90 10 57 11 90 4 103 -12 23 -64
25 -73 2z"/>
<path d="M23430 16103 c-75 -15 -164 -44 -190 -63 -62 -44 -110 -134 -110
-207 0 -38 23 -98 48 -126 51 -57 182 -87 288 -68 136 26 292 130 296 198 6
115 -45 203 -140 244 -44 19 -148 31 -192 22z m156 -92 c47 -21 78 -57 95
-108 55 -167 -381 -272 -459 -110 -30 62 14 147 98 190 98 50 195 60 266 28z"/>
<path d="M24578 16076 c-63 -23 -121 -62 -193 -130 -39 -36 -73 -66 -77 -66
-5 0 -8 35 -8 78 0 96 -14 122 -68 122 -46 0 -68 -14 -154 -98 -42 -41 -72
-63 -81 -59 -30 11 -54 -20 -62 -80 -4 -32 -13 -73 -21 -92 -28 -67 -13 -101
39 -87 16 5 35 33 70 106 50 102 118 189 167 215 42 22 43 12 15 -167 -9 -53
4 -78 37 -78 11 0 50 29 86 63 88 84 233 192 268 201 47 12 56 -12 51 -134 -2
-58 -10 -131 -18 -163 -12 -50 -11 -59 1 -67 21 -14 27 -12 49 11 42 46 67
265 41 360 -18 66 -73 91 -142 65z"/>
<path d="M16007 16062 c-22 -24 -21 -35 1 -55 16 -15 49 -17 248 -18 126 0
270 -4 319 -9 50 -5 154 -12 232 -16 125 -6 145 -5 168 10 18 12 25 24 23 39
-3 20 -8 22 -63 19 -33 -1 -134 4 -225 13 -177 16 -500 35 -616 35 -56 0 -74
-4 -87 -18z"/>
<path d="M26046 16019 c-103 -24 -203 -106 -241 -196 -13 -31 -17 -33 -63 -33
-89 0 -99 -60 -12 -70 42 -5 43 -6 55 -53 25 -99 124 -156 247 -143 105 12
198 58 198 97 0 31 -26 33 -83 9 -79 -35 -116 -41 -175 -29 -65 13 -112 50
-112 88 0 27 1 28 90 39 123 15 197 51 279 136 74 77 78 106 22 143 -27 19
-47 23 -100 22 -36 -1 -83 -5 -105 -10z m148 -78 c10 -16 -45 -71 -98 -98 -92
-47 -216 -69 -216 -39 0 7 17 32 38 55 26 30 55 49 102 66 65 24 164 33 174
16z"/>
<path d="M26692 15985 c-12 -9 -53 -62 -91 -118 -75 -110 -137 -187 -151 -187
-9 0 72 190 96 224 30 43 7 95 -36 81 -24 -8 -49 -54 -90 -165 -16 -43 -41
-101 -55 -129 -33 -66 -33 -108 0 -123 54 -25 144 50 247 206 64 98 96 136
111 136 16 0 0 -158 -22 -230 -26 -82 -26 -105 0 -123 45 -32 110 9 221 140
40 47 79 88 87 91 14 5 13 -25 -2 -177 -1 -13 5 -28 15 -35 32 -20 55 19 68
114 15 109 7 165 -26 187 -23 15 -28 15 -59 0 -18 -9 -46 -32 -62 -53 -97
-126 -155 -186 -167 -173 -2 2 5 45 15 94 10 50 19 116 19 148 0 48 -4 62 -25
82 -28 29 -61 32 -93 10z"/>
<path d="M27375 15971 c-115 -28 -194 -135 -203 -277 -5 -81 4 -106 51 -134
40 -25 80 -25 132 -1 49 22 67 42 55 61 -7 12 -18 12 -62 3 -66 -14 -101 -1
-106 40 -3 21 0 26 12 21 23 -9 169 43 214 76 48 34 80 78 88 118 8 39 -26 75
-82 91 -43 12 -55 12 -99 2z m100 -92 c9 -14 -31 -56 -75 -79 -41 -21 -141
-52 -148 -45 -10 10 50 94 80 114 36 23 132 30 143 10z"/>
<path d="M27768 15968 c-19 -15 -118 -305 -118 -346 0 -36 17 -52 53 -52 39 0
74 26 192 141 104 101 145 124 171 97 22 -22 28 -114 15 -208 -14 -90 -8 -107
32 -97 37 10 48 49 48 174 0 161 -30 223 -108 223 -54 -1 -107 -36 -187 -124
-74 -82 -112 -114 -122 -103 -3 3 15 60 40 128 49 132 53 148 34 167 -15 15
-30 15 -50 0z"/>
<path d="M25089 15926 c-82 -29 -133 -75 -174 -156 -9 -19 -27 -43 -39 -52
-15 -12 -21 -29 -22 -60 0 -24 -8 -69 -17 -101 -9 -32 -21 -105 -27 -161 -16
-146 2 -198 61 -183 29 7 71 89 90 172 6 28 18 73 26 102 l14 51 54 -5 c46 -5
63 -1 122 26 79 37 107 61 134 113 27 53 24 113 -9 173 -45 83 -124 113 -213
81z m130 -101 c23 -27 31 -45 31 -75 0 -101 -172 -178 -267 -120 -40 24 -42
47 -8 104 46 79 112 126 176 126 30 0 43 -7 68 -35z m-290 -283 c0 -15 -11
-58 -24 -97 l-25 -70 5 50 c7 75 27 155 37 149 4 -3 8 -17 7 -32z"/>
<path d="M795 15606 c-44 -30 -145 -97 -225 -149 -271 -178 -428 -319 -518
-467 -49 -80 -52 -88 -52 -153 0 -61 2 -68 15 -57 8 7 15 19 15 27 0 22 49
112 96 178 125 175 301 312 742 580 69 42 88 65 70 83 -23 23 -64 10 -143 -42z"/>
<path d="M4222 15518 c-18 -18 -15 -25 28 -72 50 -54 101 -146 173 -312 74
-172 97 -242 113 -349 36 -236 0 -470 -95 -615 -53 -81 -179 -202 -326 -314
-71 -54 -134 -105 -139 -113 -6 -12 -3 -20 9 -29 24 -18 77 11 227 123 311
233 407 408 408 749 0 241 -50 417 -212 737 -91 180 -145 236 -186 195z"/>
<path d="M4160 15336 c-20 -11 -165 -15 -675 -19 -357 -4 -666 -9 -685 -11
-19 -2 -105 -7 -190 -11 -274 -11 -1261 -69 -1374 -81 -81 -8 -112 -29 -103
-66 9 -34 35 -39 121 -23 39 7 118 16 176 20 58 3 213 15 345 25 631 51 1139
70 1857 70 538 0 608 2 622 16 22 21 20 37 -6 61 -32 29 -59 34 -88 19z"/>
<path d="M6233 15126 c-90 -48 -204 -148 -366 -322 -152 -162 -236 -275 -291
-395 -62 -133 -71 -173 -71 -299 0 -126 13 -166 79 -246 85 -104 330 -194 376
-138 20 23 -3 38 -79 53 -121 24 -228 98 -273 189 -18 38 -22 64 -22 137 0
107 18 174 81 299 66 131 138 223 317 402 164 164 255 235 330 255 51 14 66
26 66 53 0 56 -58 60 -147 12z"/>
<path d="M3341 15033 c-30 -26 -60 -223 -71 -464 -5 -108 -14 -216 -20 -239
-10 -38 -9 -45 8 -62 27 -28 53 -17 100 42 68 85 129 126 204 136 77 11 168
-26 168 -66 0 -54 -136 -173 -268 -236 -66 -31 -84 -36 -152 -36 -44 0 -98 7
-124 16 -58 20 -80 20 -96 1 -35 -42 82 -89 220 -88 138 0 268 59 400 181 68
62 110 128 110 171 0 37 -36 78 -94 106 -44 21 -70 27 -133 28 -85 1 -129 -15
-204 -74 -20 -16 -40 -29 -43 -29 -17 0 11 322 40 455 28 129 29 147 9 162
-24 17 -29 17 -54 -4z"/>
<path d="M9763 14983 c-21 -8 -15 -51 9 -67 12 -9 34 -16 49 -16 72 0 154
-109 201 -268 47 -159 60 -229 65 -379 8 -211 -22 -415 -103 -686 -43 -142
-56 -171 -96 -213 -38 -41 -37 -87 3 -92 21 -2 34 6 57 34 61 73 160 394 193
619 44 304 5 646 -101 872 -33 72 -108 156 -162 184 -35 18 -88 24 -115 12z"/>
<path d="M22739 14923 c-1 -5 -2 -51 -3 -103 -2 -52 -12 -156 -25 -230 -41
-253 -53 -392 -58 -692 -5 -283 -6 -296 -23 -285 -23 13 -50 -5 -50 -35 0 -34
28 -86 50 -93 28 -9 66 17 74 52 4 15 11 165 16 333 10 332 24 479 70 728 45
245 38 332 -26 332 -13 0 -25 -3 -25 -7z"/>
<path d="M2009 14853 c-8 -10 -22 -35 -32 -55 -19 -43 -29 -45 -78 -20 -27 13
-58 17 -144 17 -93 -1 -121 -5 -183 -27 -169 -61 -290 -170 -338 -304 -15 -44
-16 -58 -6 -91 13 -44 50 -86 97 -111 47 -25 185 -22 255 7 126 52 276 192
381 356 l64 99 12 -39 c6 -22 12 -50 12 -62 1 -11 15 -63 31 -115 56 -169 145
-288 217 -288 29 0 63 21 63 39 0 13 -24 31 -40 31 -25 0 -86 69 -118 135 -36
72 -77 204 -97 309 -24 124 -58 165 -96 119z m-147 -145 c22 -6 42 -18 45 -25
11 -27 -154 -208 -253 -279 -79 -56 -130 -74 -213 -74 -55 0 -73 4 -105 26
-35 24 -38 29 -33 61 13 77 111 189 212 241 109 56 256 77 347 50z"/>
<path d="M6540 14733 c-35 -7 -50 -21 -50 -49 0 -12 6 -26 13 -31 6 -4 107 -8
222 -8 124 0 340 -10 528 -24 345 -26 367 -24 367 23 0 14 -8 29 -17 34 -10 5
-88 12 -173 16 -85 3 -265 15 -400 26 -228 18 -431 24 -490 13z"/>
<path d="M8401 14707 c-6 -8 -20 -63 -31 -123 -40 -223 -60 -327 -64 -331 -2
-3 -47 0 -100 6 -146 17 -183 15 -196 -10 -16 -28 9 -64 51 -73 17 -3 77 -6
132 -6 l100 0 -7 -52 c-3 -29 -10 -75 -16 -103 -5 -27 -9 -81 -10 -120 -1 -96
-14 -153 -39 -176 -26 -25 -26 -35 0 -49 57 -31 108 36 109 140 0 30 7 120 14
200 12 116 18 147 32 157 11 8 47 13 93 13 87 0 248 23 306 43 28 10 41 21 43
35 5 32 -16 36 -119 18 -50 -9 -140 -19 -200 -22 -94 -6 -109 -5 -109 8 0 9
15 76 34 149 50 197 62 275 46 294 -15 19 -54 20 -69 2z"/>
<path d="M2880 14690 c-24 -24 -24 -29 -4 -58 17 -24 53 -29 72 -10 19 19 15
66 -7 78 -28 14 -38 13 -61 -10z"/>
<path d="M9223 14681 c-33 -39 -128 -331 -192 -591 -44 -179 -45 -195 -18
-217 16 -13 26 -33 30 -67 14 -101 85 -189 197 -243 111 -55 288 -29 441 63
68 41 153 129 179 186 58 128 -22 242 -201 282 -146 34 -218 19 -416 -85 -73
-38 -139 -69 -148 -69 -21 0 -19 22 16 146 73 260 133 444 167 507 29 53 34
71 26 85 -16 25 -60 27 -81 3z m484 -681 c60 -27 103 -67 103 -97 0 -69 -90
-174 -195 -230 -84 -44 -207 -77 -259 -69 -95 15 -185 87 -244 195 -31 57 -32
61 -13 61 11 0 90 36 176 79 86 44 168 82 183 85 62 10 201 -3 249 -24z"/>
<path d="M17793 14655 c-13 -9 -23 -24 -23 -34 0 -42 19 -45 278 -42 492 4
893 -40 994 -110 46 -33 108 -20 108 21 0 90 -433 159 -1110 176 -199 5 -228
4 -247 -11z"/>
<path d="M4886 14534 c-21 -20 -20 -37 2 -64 21 -26 58 -23 86 6 32 31 6 74
-44 74 -16 0 -36 -7 -44 -16z"/>
<path d="M6718 14539 c-97 -23 -254 -128 -318 -213 -133 -176 -96 -306 83
-294 131 8 270 103 369 253 47 72 65 91 69 78 4 -10 16 -70 28 -133 41 -212
138 -359 212 -319 30 15 23 38 -25 81 -30 26 -51 56 -65 92 -21 57 -65 264
-76 361 -9 71 -18 85 -56 85 -23 0 -32 -6 -41 -27 -37 -93 -68 -143 -124 -206
-86 -95 -165 -152 -247 -179 -62 -20 -71 -21 -95 -7 -36 20 -38 40 -11 96 56
116 222 233 351 248 90 10 124 46 76 79 -24 17 -72 19 -130 5z"/>
<path d="M15734 14475 c-15 -23 -15 -27 -1 -49 15 -22 23 -24 149 -29 73 -3
176 -6 228 -7 196 -2 506 -31 655 -62 128 -26 155 -27 169 -6 16 26 -20 57
-85 74 -81 22 -328 51 -569 69 -357 25 -497 35 -514 35 -8 0 -23 -11 -32 -25z"/>
<path d="M24158 14378 c-9 -8 -21 -43 -28 -82 -10 -65 -65 -294 -110 -466 -11
-41 -20 -96 -20 -123 l0 -48 -59 61 c-141 143 -396 202 -541 124 -69 -37 -120
-102 -120 -152 1 -89 94 -172 255 -228 70 -24 96 -28 200 -28 111 -1 125 1
179 27 l59 27 24 -26 c22 -24 25 -25 46 -11 14 10 21 23 19 38 -19 171 -15
198 67 474 114 379 113 373 81 405 -23 23 -31 24 -52 8z m-508 -592 c30 -7 94
-32 143 -55 71 -34 94 -51 122 -89 48 -66 46 -78 -21 -109 -46 -21 -70 -25
-142 -25 -188 2 -382 92 -382 177 0 92 126 138 280 101z"/>
<path d="M18430 14280 c-263 -47 -493 -275 -492 -488 1 -81 30 -135 94 -175
162 -100 458 21 615 251 l57 83 14 -38 c59 -161 110 -242 182 -291 39 -26 87
-26 104 1 14 22 -2 49 -33 57 -29 7 -98 76 -121 120 -30 58 -70 198 -70 243 0
48 -22 87 -50 87 -22 0 -50 -36 -50 -63 0 -74 -158 -259 -285 -334 -208 -124
-401 -77 -380 92 20 158 218 340 409 376 78 14 128 4 183 -38 48 -37 64 -37
87 -1 15 25 -16 63 -76 91 -61 29 -124 38 -188 27z"/>
<path d="M0 14199 c0 -55 5 -71 40 -131 84 -140 226 -260 366 -307 125 -43
145 -3 27 54 -187 89 -339 246 -399 409 -19 54 -34 43 -34 -25z"/>
<path d="M16062 14248 c-18 -18 -14 -56 8 -76 16 -13 42 -17 123 -19 56 -1
172 -11 257 -22 471 -63 569 -68 594 -29 19 31 -9 41 -143 54 -72 7 -278 34
-458 59 -363 50 -364 50 -381 33z"/>
<path d="M25845 14080 c-35 -38 11 -120 53 -94 22 14 30 93 10 105 -22 14 -44
10 -63 -11z"/>
<path d="M25543 14028 c-6 -7 -13 -64 -16 -127 -3 -62 -7 -114 -9 -116 -2 -2
-41 -7 -87 -12 -91 -9 -117 -25 -95 -60 10 -15 24 -18 94 -15 82 3 83 3 76
-20 -3 -13 -9 -79 -12 -148 -6 -104 -4 -127 8 -137 12 -10 19 -10 33 1 16 11
21 37 31 156 7 78 17 147 22 152 14 14 141 -6 182 -27 63 -33 94 -105 88 -209
l-3 -61 31 -3 c27 -3 33 1 44 27 19 47 4 149 -32 221 -40 81 -86 108 -211 124
l-92 11 2 30 c0 17 4 66 8 110 7 69 5 83 -9 98 -21 20 -40 22 -53 5z"/>
<path d="M26145 14000 c-3 -11 -3 -25 0 -31 9 -13 -5 -252 -15 -268 -5 -9 -16
-8 -43 5 -30 14 -41 15 -62 6 -44 -20 -30 -52 39 -85 l58 -29 -6 -66 c-13
-135 -14 -127 19 -127 34 0 41 15 50 106 l6 57 92 -1 c70 0 106 5 150 21 42
15 59 18 61 9 2 -7 9 -31 15 -55 7 -26 27 -58 50 -81 47 -47 99 -58 166 -35
26 8 49 13 52 11 2 -3 -14 -41 -36 -85 -34 -68 -139 -310 -189 -437 -9 -22
-36 -73 -60 -113 -42 -71 -48 -102 -18 -102 38 0 115 138 260 465 88 200 166
348 237 449 52 75 58 100 27 120 -26 16 -47 0 -94 -75 -73 -114 -136 -159
-222 -159 -35 0 -54 6 -71 21 -43 40 -54 115 -25 170 17 34 11 65 -15 74 -28
8 -46 -3 -62 -37 -28 -62 -57 -73 -187 -73 l-117 0 1 30 c1 17 7 84 14 151 16
145 8 184 -41 184 -19 0 -30 -6 -34 -20z"/>
<path d="M24390 13848 c-83 -29 -167 -83 -191 -122 -25 -41 -25 -125 0 -174
43 -84 113 -117 246 -117 50 1 106 6 127 13 36 13 54 35 42 53 -3 5 -60 9
-127 9 -134 0 -173 12 -210 62 -18 24 -29 99 -17 112 3 2 42 -14 86 -36 71
-35 89 -40 151 -40 80 0 149 25 196 69 35 34 35 72 1 113 -64 75 -187 99 -304
58z m200 -70 c89 -45 42 -93 -90 -93 -59 0 -85 5 -122 23 -54 27 -58 36 -26
53 77 41 176 48 238 17z"/>
<path d="M24837 13779 c-29 -22 -137 -228 -137 -260 0 -23 18 -61 34 -71 20
-14 71 -8 101 11 17 10 76 62 133 115 57 54 109 96 115 93 24 -7 36 -55 47
-182 12 -135 25 -175 59 -175 42 0 69 73 36 100 -10 8 -15 30 -15 62 0 123
-37 257 -75 272 -44 17 -72 5 -143 -59 -121 -108 -202 -164 -202 -139 0 18 57
115 91 156 44 53 46 59 21 81 -24 22 -34 21 -65 -4z"/>
<path d="M375 13676 c-113 -54 -250 -152 -321 -228 -51 -56 -54 -62 -54 -111
l1 -52 65 72 c113 125 266 232 390 273 68 23 88 43 73 72 -15 28 -56 21 -154
-26z"/>
<path d="M4392 13658 c-16 -16 -15 -53 3 -68 8 -7 26 -9 43 -5 41 9 71 -30
121 -159 64 -164 91 -288 98 -456 9 -215 -9 -388 -67 -665 -29 -138 -152 -362
-267 -487 -53 -58 -66 -91 -39 -101 47 -18 203 164 293 343 151 298 203 766
127 1139 -38 185 -136 420 -189 453 -34 20 -105 24 -123 6z"/>
<path d="M1485 13428 c-82 -4 -267 -7 -409 -5 -237 2 -260 1 -270 -15 -15 -24
2 -49 40 -61 16 -5 165 -5 339 0 352 9 682 10 832 3 86 -4 105 -2 119 11 23
24 3 57 -39 64 -55 9 -454 11 -612 3z"/>
<path d="M3306 13377 c-12 -9 -17 -23 -14 -42 3 -29 4 -30 53 -28 227 10 257
7 635 -52 85 -14 235 -34 333 -46 187 -22 207 -20 207 21 0 38 -31 48 -170 59
-113 9 -422 49 -700 91 -98 15 -322 13 -344 -3z"/>
<path d="M6200 13294 c-478 -228 -666 -643 -534 -1174 65 -259 212 -458 332
-448 29 2 38 8 40 24 2 17 -6 24 -42 38 -206 79 -350 588 -263 927 29 113 61
178 132 274 83 112 244 236 371 284 84 32 89 35 92 61 4 23 -19 50 -43 50 -6
0 -44 -16 -85 -36z"/>
<path d="M2936 13248 c-35 -80 -74 -242 -81 -342 l-7 -89 -92 7 c-50 4 -130
14 -179 22 -96 18 -117 12 -117 -31 0 -41 28 -53 150 -63 63 -5 126 -9 140 -9
14 1 42 0 62 -1 l37 -2 -4 -141 c-2 -78 -9 -157 -15 -175 -21 -61 33 -90 67
-37 15 23 18 53 20 183 1 85 2 158 2 162 1 3 72 4 159 1 146 -5 159 -4 181 14
49 40 17 50 -194 61 l-140 7 1 51 c2 79 32 209 71 308 39 98 37 118 -11 124
-23 3 -29 -3 -50 -50z"/>
<path d="M3762 13218 c-13 -16 -82 -190 -110 -278 -26 -80 -44 -165 -73 -342
-19 -113 -21 -139 -10 -152 23 -27 46 -18 128 47 143 116 210 148 340 161 153
16 339 -82 336 -178 -2 -75 -79 -167 -179 -213 -84 -38 -202 -56 -324 -50
-179 11 -304 52 -405 136 -55 46 -88 50 -93 13 -7 -45 110 -134 236 -179 269
-98 581 -60 734 88 134 132 128 289 -17 385 -139 92 -381 100 -502 16 -75 -52
-175 -113 -179 -109 -6 6 33 191 62 290 14 48 48 142 75 209 27 67 49 125 49
129 0 12 -30 39 -44 39 -8 0 -18 -6 -24 -12z"/>
<path d="M9103 13042 c-22 -14 -41 -87 -62 -234 -28 -194 -59 -463 -67 -578
-8 -109 1 -126 58 -117 21 3 47 -2 70 -14 144 -73 487 -64 668 17 112 50 140
120 81 201 -34 47 -63 69 -149 112 -97 49 -186 66 -278 52 -111 -16 -165 -48
-270 -158 -50 -53 -96 -94 -101 -92 -9 4 0 81 52 451 9 65 26 150 37 190 30
111 32 142 13 161 -18 18 -33 21 -52 9z m487 -648 c101 -23 210 -98 210 -143
0 -52 -145 -100 -345 -115 -124 -10 -345 18 -345 43 0 14 85 96 155 149 108
81 191 98 325 66z"/>
<path d="M1571 13021 c-6 -10 -18 -41 -26 -67 -9 -27 -19 -56 -21 -64 -4 -10
-14 1 -30 33 -36 71 -72 89 -164 85 -58 -3 -88 -10 -133 -33 -121 -60 -214
-155 -278 -284 -27 -54 -33 -78 -34 -132 0 -57 4 -70 29 -103 42 -55 83 -69
188 -64 78 4 96 8 174 47 145 72 221 170 269 346 35 128 55 152 68 85 11 -50
94 -237 132 -295 55 -82 116 -111 123 -57 2 15 -11 38 -41 72 -49 55 -96 156
-153 329 -18 58 -39 108 -46 113 -22 13 -47 9 -57 -11z m-154 -116 c13 -14 23
-35 23 -45 0 -10 11 -27 24 -37 l23 -19 -39 -82 c-48 -101 -110 -165 -202
-211 -121 -59 -257 -53 -288 13 -23 51 58 213 147 295 123 113 257 150 312 86z"/>
<path d="M9942 13018 c-22 -22 -12 -45 38 -87 28 -23 59 -59 69 -80 28 -54 41
-169 41 -359 0 -258 -25 -377 -116 -555 -63 -124 -138 -235 -238 -352 -86
-100 -107 -138 -88 -157 19 -19 72 22 158 125 220 264 328 487 354 732 20 188
6 474 -28 563 -46 121 -148 212 -190 170z"/>
<path d="M8323 12978 c-6 -8 -10 -113 -11 -242 -1 -126 -3 -231 -6 -233 -2 -3
-99 1 -215 8 -227 13 -241 11 -241 -36 0 -45 19 -50 244 -55 l210 -5 -4 -90
c-3 -49 -5 -137 -5 -194 0 -112 10 -133 40 -87 16 23 23 79 41 288 6 78 17 85
105 68 76 -15 318 -23 354 -12 20 5 30 15 30 28 0 17 -12 20 -110 30 -264 26
-345 37 -358 48 -11 9 -12 28 -6 91 13 131 11 379 -3 393 -16 16 -53 15 -65 0z"/>
<path d="M6487 12961 c-62 -5 -82 -10 -93 -25 -18 -26 -18 -29 6 -51 18 -16
30 -17 182 -5 142 12 195 11 413 -4 138 -10 315 -26 395 -37 180 -24 229 -24
237 -3 10 27 -13 37 -143 60 -330 60 -723 85 -997 65z"/>
<path d="M7082 12707 c-6 -6 -14 -25 -17 -40 -7 -25 -9 -27 -24 -13 -29 26
-149 49 -219 42 -83 -9 -219 -59 -293 -108 -115 -77 -182 -192 -183 -314 -1
-62 2 -75 26 -106 15 -19 43 -43 63 -52 176 -84 454 55 587 294 27 47 48 81
48 75 0 -5 9 -62 20 -125 34 -201 114 -406 170 -435 37 -19 65 -19 84 1 23 23
20 31 -23 58 -50 32 -81 96 -119 252 -48 192 -55 247 -48 355 5 81 3 100 -10
113 -19 19 -48 21 -62 3z m-127 -102 c33 -9 66 -18 73 -20 20 -7 -47 -127
-121 -215 -106 -127 -223 -190 -351 -190 -72 0 -122 25 -132 66 -10 41 14 127
49 177 61 85 142 137 272 173 97 27 133 29 210 9z"/>
<path d="M4886 12664 c-9 -8 -16 -29 -16 -45 0 -23 6 -32 27 -40 40 -15 73 3
73 39 0 51 -52 79 -84 46z"/>
<path d="M0 12462 c0 -48 2 -51 76 -125 120 -122 307 -238 336 -209 19 19 1
38 -115 115 -74 49 -139 103 -186 153 -39 42 -71 80 -71 85 0 4 -9 13 -20 19
-19 10 -20 8 -20 -38z"/>
<path d="M17262 12404 c-13 -8 -22 -26 -22 -40 0 -43 29 -48 233 -35 159 10
231 9 528 -9 189 -11 425 -27 524 -36 203 -18 260 -16 260 6 0 26 -207 60
-555 89 -443 38 -505 41 -725 41 -183 0 -224 -3 -243 -16z"/>
<path d="M22995 12376 c-170 -54 -338 -212 -425 -400 -108 -232 -194 -604
-203 -871 l-2 -70 -45 2 c-25 1 -58 3 -75 5 -26 3 -30 -1 -33 -24 -4 -35 26
-55 97 -64 l53 -7 -6 -52 c-5 -43 -3 -55 13 -69 15 -14 24 -15 39 -7 26 14 32
32 32 95 l0 52 92 22 c117 29 352 119 493 190 381 190 592 450 612 753 8 117
-10 170 -80 237 -106 103 -229 180 -332 207 -70 18 -174 19 -230 1z m270 -84
c138 -65 273 -184 294 -258 16 -56 14 -101 -9 -190 -71 -281 -296 -488 -730
-672 -126 -53 -326 -122 -356 -122 -22 0 -24 4 -24 48 0 69 27 280 51 401 63
314 158 548 268 661 161 164 338 210 506 132z"/>
<path d="M15035 12334 c-29 -30 -15 -60 36 -74 18 -6 86 -10 150 -10 114 0
648 -41 778 -60 102 -15 198 -13 204 4 3 8 0 19 -6 24 -31 25 -456 80 -817
107 -113 8 -233 17 -267 19 -48 4 -66 2 -78 -10z"/>
<path d="M17765 12105 c-257 -49 -485 -208 -561 -392 -28 -70 -30 -105 -5
-159 42 -93 178 -146 316 -124 145 23 396 199 560 393 32 37 60 67 64 67 3 0
17 -69 29 -152 50 -335 60 -391 76 -407 21 -21 50 -4 54 32 2 14 -9 103 -23
199 -15 95 -32 227 -39 292 -11 106 -15 121 -37 140 -14 12 -30 33 -38 47 -7
14 -25 33 -39 41 -63 37 -227 48 -357 23z m289 -90 c17 -8 40 -21 50 -29 18
-15 18 -17 -19 -58 -58 -65 -242 -234 -315 -289 -143 -108 -266 -150 -376
-130 -61 12 -69 15 -101 44 -38 34 -39 78 -5 150 72 154 287 292 510 327 73
11 217 3 256 -15z"/>
<path d="M29153 12068 c-49 -56 -121 -189 -142 -263 -18 -60 -51 -245 -51
-279 0 -39 28 -115 53 -143 10 -11 46 -36 80 -54 214 -112 284 -204 227 -296
-36 -60 -125 -82 -191 -47 -39 19 -83 15 -87 -9 -5 -25 21 -51 74 -76 172 -81
356 104 273 276 -25 51 -98 118 -181 165 -162 91 -173 104 -117 134 43 22 125
29 179 14 31 -8 58 -25 87 -57 49 -52 86 -57 91 -11 5 39 -60 100 -129 124
-76 25 -180 23 -243 -5 -27 -11 -51 -19 -53 -17 -6 6 44 201 67 264 30 79 53
121 104 186 25 33 46 67 46 76 0 42 -55 53 -87 18z"/>
<path d="M14750 12060 c-25 -25 -25 -35 -2 -58 15 -15 41 -20 128 -25 60 -4
182 -16 269 -28 88 -11 196 -24 240 -29 44 -5 121 -13 170 -19 341 -40 503
-48 530 -28 37 28 2 39 -197 63 -106 13 -242 30 -303 39 -389 53 -488 67 -637
85 -92 11 -170 20 -173 20 -3 0 -14 -9 -25 -20z"/>
<path d="M24912 11955 c-58 -49 -146 -185 -249 -386 -179 -348 -248 -455 -301
-461 -37 -4 -60 -47 -44 -82 17 -37 70 -36 114 3 49 42 139 201 292 511 124
252 185 354 202 337 4 -3 10 -136 14 -296 10 -337 13 -350 88 -351 74 0 186
149 291 387 43 99 98 186 112 178 4 -3 6 -25 4 -48 -21 -198 -46 -639 -38
-680 6 -31 39 -55 55 -39 5 5 11 70 13 143 2 74 11 204 20 289 24 236 30 372
16 398 -14 27 -52 37 -79 23 -27 -15 -113 -147 -197 -301 -37 -69 -84 -150
-104 -180 -38 -56 -83 -91 -98 -76 -4 4 -10 145 -13 313 l-5 305 -24 19 c-30
24 -33 24 -69 -6z"/>
<path d="M30242 11890 c-136 -98 -329 -444 -349 -625 -4 -42 -2 -53 16 -69 17
-15 23 -16 36 -6 8 7 15 24 15 39 0 63 54 212 118 326 57 101 119 181 192 247
39 34 70 66 70 70 0 11 -38 48 -48 48 -5 0 -27 -13 -50 -30z"/>
<path d="M4423 11645 c-418 -217 -621 -478 -623 -802 0 -34 -4 -64 -9 -67 -5
-4 -22 -1 -38 5 -15 6 -98 14 -183 18 l-155 6 -3 160 c-2 117 2 182 14 242 9
45 13 87 9 92 -9 16 -50 13 -64 -3 -24 -29 -43 -171 -43 -331 l-1 -160 -234 0
c-235 0 -235 0 -254 -24 -23 -29 -24 -35 -2 -57 14 -14 29 -16 90 -10 40 3
149 9 242 12 l169 7 5 -29 c3 -16 11 -87 17 -159 7 -71 14 -136 16 -143 6 -20
33 -26 50 -11 17 14 17 74 -2 272 l-7 67 130 0 c72 0 154 5 183 10 65 12 72 7
89 -62 36 -148 152 -305 297 -405 108 -73 297 -169 419 -212 90 -32 135 -36
142 -14 5 14 -82 73 -107 73 -9 0 -70 27 -135 59 -257 127 -429 269 -498 411
-94 193 -70 442 60 631 101 146 388 353 561 404 52 16 70 38 51 61 -23 27 -77
15 -186 -41z"/>
<path d="M23974 11680 c-188 -49 -336 -174 -384 -324 -7 -22 -24 -49 -39 -62
l-26 -22 21 -29 c11 -15 24 -48 28 -73 17 -106 70 -174 176 -224 61 -29 72
-31 180 -31 94 1 122 4 155 20 27 13 40 27 40 40 0 19 -7 20 -140 20 -166 0
-211 12 -271 70 -44 42 -68 102 -62 153 3 25 12 30 108 62 271 91 473 185 553
258 37 35 37 83 1 111 -66 52 -212 65 -340 31z m246 -66 c75 -30 55 -49 -138
-131 -195 -84 -384 -154 -404 -151 -17 3 -17 7 7 55 50 100 173 190 310 228
70 19 176 18 225 -1z"/>
<path d="M8183 11649 c-26 -26 -14 -49 33 -70 140 -59 251 -223 396 -579 168
-416 215 -894 127 -1278 -63 -275 -246 -596 -440 -773 -50 -46 -114 -105 -143
-131 -42 -38 -49 -49 -38 -60 36 -36 269 149 395 315 129 169 241 396 286 582
44 175 53 276 48 495 -9 373 -74 666 -226 1015 -67 153 -119 245 -195 341 -85
109 -207 180 -243 143z"/>
<path d="M1020 11535 c-74 -7 -136 -13 -137 -14 -10 -6 -22 -43 -17 -55 10
-26 39 -28 181 -10 125 16 169 16 478 5 451 -16 703 -29 797 -42 85 -11 118
-3 118 30 0 40 -19 43 -398 62 -202 10 -455 23 -562 29 -228 12 -279 11 -460
-5z"/>
<path d="M30429 11536 c-123 -44 -229 -178 -229 -289 0 -94 116 -134 247 -85
44 16 75 38 127 90 37 37 69 68 70 68 0 0 2 -50 2 -110 1 -91 5 -114 19 -130
43 -47 66 -15 57 76 -4 38 -4 123 0 188 9 126 3 152 -34 142 -11 -2 -35 6 -55
20 -64 43 -137 54 -204 30z m158 -91 c23 -14 43 -32 43 -40 0 -25 -97 -120
-151 -147 -89 -45 -179 -46 -195 -3 -18 45 58 149 137 189 66 33 110 33 166 1z"/>
<path d="M31047 11488 c-25 -38 -57 -156 -62 -227 -6 -80 17 -154 56 -184 36
-26 113 -26 166 2 23 11 70 47 104 78 l62 58 -6 -65 c-11 -118 34 -175 147
-187 111 -11 251 51 369 166 85 82 197 227 197 256 0 34 -33 9 -135 -101 -165
-177 -266 -239 -386 -239 -58 0 -71 3 -94 25 -27 25 -27 26 -21 119 3 56 2
101 -5 112 -18 35 -54 23 -106 -36 -51 -60 -141 -121 -191 -131 -24 -5 -36 -1
-56 19 -36 36 -36 111 0 204 15 37 27 86 28 108 1 36 -1 40 -26 43 -19 2 -31
-3 -41 -20z"/>
<path d="M25699 11481 c-20 -16 -21 -21 -10 -35 8 -10 29 -16 55 -16 70 0 116
-19 171 -71 52 -49 97 -125 110 -187 6 -29 3 -37 -29 -67 -65 -61 -177 -58
-231 7 -24 29 -26 37 -20 82 7 59 18 81 57 122 37 39 37 87 0 92 -35 5 -106
-72 -120 -131 -17 -66 -15 -163 4 -203 10 -21 35 -45 63 -62 40 -23 57 -27
127 -27 72 0 86 3 129 30 102 63 120 165 51 288 -45 81 -96 129 -176 166 -77
37 -145 41 -181 12z"/>
<path d="M28296 11448 c-25 -40 -48 -187 -48 -307 0 -107 1 -116 22 -133 51
-41 69 -29 296 215 44 48 88 87 97 87 26 0 35 -35 47 -192 11 -142 24 -188 54
-188 29 0 35 24 25 105 -4 44 -12 129 -17 188 -7 83 -14 115 -29 135 -47 63
-107 32 -279 -144 -66 -68 -126 -124 -134 -124 -19 0 -6 168 19 250 12 36 21
74 21 86 0 45 -50 60 -74 22z"/>
<path d="M6821 11445 c-88 -20 -150 -41 -189 -65 -27 -16 -33 -26 -30 -48 4
-39 37 -40 117 -3 99 45 177 55 386 48 99 -4 227 -13 285 -21 234 -34 316 -47
344 -56 44 -15 102 -12 116 5 15 18 -1 65 -22 65 -7 0 -137 18 -288 41 -324
47 -604 61 -719 34z"/>
<path d="M26620 11430 c-207 -35 -317 -107 -390 -252 -54 -108 -52 -158 6
-158 23 0 34 20 53 95 20 78 90 163 169 204 43 23 116 40 237 55 189 25 267
18 198 -18 -15 -8 -55 -43 -89 -77 -67 -71 -139 -201 -149 -272 -26 -173 196
-207 361 -55 24 23 46 39 48 37 4 -5 -47 -165 -80 -249 -81 -207 -104 -253
-150 -289 -35 -27 -51 -27 -97 5 -56 38 -83 20 -56 -39 13 -29 58 -57 93 -57
40 0 100 35 134 78 60 76 177 360 253 617 38 128 42 182 16 199 -24 15 -49
-15 -78 -95 -30 -82 -85 -140 -171 -184 -121 -60 -209 -43 -194 37 8 46 84
173 139 234 32 36 65 59 109 78 89 38 93 41 96 64 6 37 -30 45 -223 48 -99 2
-205 -1 -235 -6z"/>
<path d="M4979 11413 c0 -5 -2 -114 -3 -243 -3 -236 -8 -289 -52 -465 -9 -38
-30 -92 -46 -118 -16 -27 -43 -83 -59 -125 -33 -83 -30 -122 11 -122 32 0 55
31 88 121 47 126 63 151 115 186 61 41 140 57 242 50 231 -16 435 -130 435
-242 0 -136 -250 -235 -562 -222 -135 5 -216 24 -270 61 -28 20 -57 20 -64 1
-17 -43 79 -106 202 -131 121 -25 350 -15 469 20 248 75 353 201 284 343 -59
121 -278 230 -486 241 -107 5 -166 -4 -236 -38 -22 -11 -42 -18 -44 -16 -2 2
5 39 16 82 11 44 24 111 30 151 14 92 14 428 1 454 -10 18 -69 28 -71 12z"/>
<path d="M27810 11405 c-107 -18 -156 -33 -223 -67 -122 -61 -195 -162 -204
-283 -5 -55 -3 -62 22 -87 106 -106 357 37 449 256 8 18 18 36 23 39 6 4 15
-52 22 -131 13 -142 28 -198 56 -209 9 -3 23 1 31 9 14 13 13 24 0 94 -8 43
-20 142 -26 219 -8 102 -15 144 -27 157 -18 20 -21 21 -123 3z m30 -84 c0 -66
-169 -254 -255 -284 -60 -21 -108 -22 -124 -4 -8 11 -7 26 3 61 28 92 125 179
244 217 61 19 132 25 132 10z"/>
<path d="M6926 11213 c-19 -39 -36 -124 -36 -184 0 -89 -54 -502 -85 -648 -18
-85 -10 -111 34 -111 19 0 48 17 95 59 122 105 274 171 396 171 122 0 340 -88
384 -155 86 -131 -169 -242 -496 -215 -144 12 -253 41 -351 93 -61 32 -80 38
-89 29 -18 -18 7 -59 57 -94 58 -39 235 -95 345 -109 247 -30 522 36 600 143
53 72 34 171 -45 236 -20 16 -74 48 -119 71 -230 113 -446 94 -659 -60 -31
-23 -60 -40 -63 -37 -3 3 2 42 10 87 9 45 32 208 51 363 22 167 42 293 52 311
21 42 5 77 -37 77 -22 0 -33 -7 -44 -27z"/>
<path d="M10357 11216 c-21 -32 -19 -59 6 -64 23 -5 32 22 21 60 l-9 32 -18
-28z"/>
<path d="M10841 11186 c-17 -20 -20 -208 -4 -213 19 -7 40 47 46 121 8 88 -11
130 -42 92z"/>
<path d="M1380 11127 c-270 -84 -500 -316 -500 -506 0 -34 6 -74 14 -89 67
-130 272 -137 447 -16 70 48 137 118 215 225 46 61 75 75 92 42 5 -10 24 -61
41 -113 74 -217 123 -321 183 -386 36 -39 46 -45 77 -42 31 3 36 7 39 30 2 19
-2 28 -17 33 -56 17 -123 136 -186 330 -66 201 -66 184 -1 247 44 42 56 61 56
84 0 45 -58 107 -135 145 -56 27 -78 32 -158 35 -75 4 -106 0 -167 -19z m283
-76 c49 -21 97 -64 97 -85 0 -8 -11 -27 -23 -42 -23 -26 -25 -27 -48 -11 -38
27 -56 20 -98 -35 -52 -70 -174 -204 -237 -259 -75 -67 -115 -89 -197 -105
-116 -24 -180 2 -196 78 -9 44 5 108 37 166 42 77 176 202 268 249 69 35 97
45 189 67 40 10 168 -4 208 -23z"/>
<path d="M6330 10720 c-27 -27 -25 -46 4 -66 50 -32 112 29 71 70 -22 22 -51
20 -75 -4z"/>
<path d="M10812 10653 c2 -10 10 -18 18 -18 22 0 18 29 -3 33 -14 3 -18 -1
-15 -15z"/>
<path d="M23250 10623 c-95 -18 -276 -144 -343 -240 -17 -24 -46 -52 -64 -63
-26 -15 -33 -26 -33 -50 0 -17 -15 -61 -34 -99 -54 -107 -106 -267 -121 -376
-8 -55 -15 -176 -16 -270 l0 -170 -19 43 c-14 29 -25 42 -40 42 -37 0 -22 -74
33 -163 28 -45 29 -53 23 -116 -6 -56 -4 -72 9 -85 36 -36 68 -11 92 74 l17
58 74 22 c120 37 226 118 397 301 153 164 293 367 346 499 21 53 27 60 52 60
35 0 44 23 22 57 -14 21 -18 50 -19 132 -2 132 -27 203 -96 272 -68 68 -165
93 -280 72z m135 -64 c96 -27 165 -147 165 -288 l0 -78 -41 -6 c-78 -10 -93
-68 -20 -75 17 -2 31 -5 31 -8 0 -18 -72 -150 -126 -231 -132 -197 -289 -374
-439 -492 -78 -62 -159 -110 -170 -100 -3 3 7 53 21 110 29 119 35 182 16 201
-22 22 -39 -11 -62 -122 -13 -58 -28 -121 -35 -140 -12 -35 -12 -35 -24 45
-20 143 3 436 49 610 20 75 53 149 61 140 3 -3 4 -83 1 -179 -3 -130 -2 -175
8 -181 6 -4 16 -3 21 2 19 19 38 165 45 334 4 96 12 184 18 196 16 33 144 161
195 196 53 36 163 77 211 77 19 0 53 -5 75 -11z"/>
<path d="M22815 9719 c-4 -6 -3 -15 3 -21 6 -6 11 -4 15 6 7 18 -9 31 -18 15z"/>
<path d="M13761 10586 c-18 -21 -6 -62 22 -78 15 -8 133 -14 387 -19 201 -4
439 -12 530 -18 169 -10 240 -5 247 16 3 7 -12 16 -34 22 -46 13 -287 36 -518
51 -311 19 -489 31 -555 36 -53 5 -68 3 -79 -10z"/>
<path d="M17024 10574 c-16 -24 -16 -26 2 -44 42 -43 204 -68 704 -110 305
-26 597 -56 715 -75 50 -7 115 -16 145 -20 81 -9 292 -52 394 -81 102 -29 136
-24 136 20 0 30 -4 33 -88 56 -205 56 -436 92 -977 150 -49 5 -130 14 -180 20
-49 5 -169 17 -265 26 -195 17 -399 47 -474 69 -71 21 -93 19 -112 -11z"/>
<path d="M10334 10566 c-10 -26 4 -48 28 -44 17 2 23 10 23 28 0 18 -6 26 -23
28 -13 2 -25 -3 -28 -12z"/>
<path d="M13463 10289 c-18 -19 -16 -43 6 -63 13 -12 57 -21 147 -32 71 -8
156 -19 189 -24 33 -5 161 -20 285 -34 480 -54 912 -72 958 -40 18 13 21 19
11 30 -8 10 -38 14 -113 14 -57 0 -152 5 -212 10 -60 6 -161 15 -224 21 -174
16 -574 65 -765 95 -232 35 -267 38 -282 23z"/>
<path d="M10340 10210 c0 -5 5 -10 11 -10 5 0 7 5 4 10 -3 6 -8 10 -11 10 -2
0 -4 -4 -4 -10z"/>
<path d="M17373 10205 c-70 -19 -179 -74 -245 -122 -115 -86 -178 -185 -178
-282 0 -48 3 -57 38 -91 54 -54 132 -80 241 -80 190 0 372 78 606 260 33 26
79 58 102 71 41 23 42 23 62 5 13 -12 35 -66 57 -135 82 -266 89 -281 128
-281 25 0 46 17 46 39 0 8 -11 31 -24 50 -14 20 -42 99 -64 176 -58 209 -80
245 -147 245 -32 0 -71 -24 -287 -173 -181 -126 -309 -172 -473 -172 -102 1
-140 11 -187 53 -65 56 48 220 210 305 101 53 169 70 270 65 101 -4 150 -24
230 -94 51 -45 79 -53 100 -32 35 35 -21 93 -157 160 -81 40 -92 43 -181 45
-61 2 -114 -3 -147 -12z"/>
<path d="M25404 10121 c-79 -36 -114 -122 -51 -129 21 -3 36 6 66 36 24 24 53
42 74 46 19 4 41 14 48 22 11 14 10 18 -6 30 -26 19 -82 17 -131 -5z"/>
<path d="M10501 10026 c-21 -25 -10 -61 19 -61 22 0 25 4 25 35 0 38 -23 52
-44 26z"/>
<path d="M24575 10010 c-4 -6 1 -63 10 -128 9 -64 15 -131 13 -147 -3 -28 -6
-30 -58 -36 -30 -3 -71 -9 -90 -12 -30 -6 -37 -4 -45 15 -8 18 -25 25 -80 35
-96 18 -381 43 -490 43 -93 0 -115 -8 -115 -40 0 -26 28 -45 120 -79 141 -54
290 -148 361 -229 49 -55 82 -136 76 -183 -13 -96 -103 -185 -185 -183 -39 1
-50 6 -76 36 -17 20 -40 51 -51 69 -14 24 -28 34 -45 34 -23 0 -25 -3 -23 -43
2 -53 33 -105 86 -143 49 -36 119 -39 199 -9 113 42 183 140 183 255 0 137
-126 277 -370 407 -38 21 -67 38 -63 38 35 1 298 -34 350 -47 l66 -16 -40 -48
c-41 -48 -45 -74 -17 -92 24 -15 45 -3 74 43 31 49 89 79 171 87 l54 6 0 -36
c0 -49 -17 -176 -37 -269 -13 -63 -13 -80 -3 -93 47 -57 96 65 115 285 9 106
11 110 48 110 52 0 219 -49 260 -76 45 -29 77 -78 77 -116 0 -16 -15 -49 -35
-76 -65 -91 -91 -172 -63 -200 50 -50 143 46 168 171 13 66 37 87 122 107 117
29 205 -23 228 -133 13 -67 6 -113 -23 -145 -27 -29 -13 -56 30 -60 59 -6 90
65 79 182 -12 126 -59 191 -158 221 -71 21 -126 19 -204 -7 -55 -18 -67 -19
-74 -7 -35 61 -56 87 -85 108 -60 41 -153 72 -253 84 l-97 12 -7 127 c-7 148
-19 182 -65 186 -17 2 -34 -2 -38 -8z"/>
<path d="M26066 10002 c-31 -50 -93 -288 -110 -422 l-12 -95 -49 3 c-52 2 -75
-10 -75 -41 0 -11 -18 -40 -41 -64 -76 -83 -114 -209 -69 -233 11 -6 25 -8 30
-5 6 3 15 -5 21 -19 34 -74 181 -39 300 72 62 57 99 115 99 154 0 50 -74 128
-122 128 -9 0 -19 4 -22 9 -10 16 72 339 104 412 25 55 29 73 20 89 -11 20
-63 29 -74 12z m-3 -610 c9 -8 17 -25 17 -37 0 -40 -88 -140 -106 -122 -6 6
15 167 23 180 6 10 43 -1 66 -21z m-140 -137 c-8 -69 -8 -69 -46 -84 -42 -16
-50 -11 -63 36 -7 28 59 167 90 189 20 14 21 13 24 -28 1 -24 -1 -74 -5 -113z"/>
<path d="M27136 9844 c-34 -33 -8 -67 46 -62 42 4 51 38 16 62 -28 20 -42 20
-62 0z"/>
<path d="M26724 9839 c-3 -6 -3 -63 2 -127 5 -65 9 -123 9 -131 0 -11 -21 -15
-92 -17 -51 -2 -101 -8 -113 -14 -44 -24 -9 -90 41 -77 26 7 24 -8 -12 -72
-69 -123 -128 -174 -178 -151 -22 10 -23 14 -16 68 16 112 0 162 -51 162 -35
0 -40 -24 -34 -147 5 -106 7 -114 33 -140 23 -24 35 -28 80 -27 119 1 192 78
235 245 l19 74 45 3 44 3 11 -98 c12 -116 33 -173 63 -173 30 0 33 18 16 116
-9 49 -16 104 -16 122 l0 32 84 0 c63 0 87 4 96 16 24 28 -10 46 -95 52 -41 2
-78 10 -82 16 -4 6 -8 61 -10 124 -1 62 -7 121 -13 132 -12 21 -54 27 -66 9z"/>
<path d="M23522 9708 c-7 -7 -12 -35 -12 -64 0 -28 -4 -74 -10 -103 -5 -28
-14 -108 -20 -178 -8 -96 -15 -135 -30 -161 -23 -38 -19 -68 10 -77 29 -9 57
11 69 47 6 18 18 88 26 156 9 68 25 158 36 199 23 92 24 141 3 171 -17 24 -53
29 -72 10z"/>
<path d="M27623 9507 c-12 -7 -72 -59 -134 -117 -165 -156 -194 -169 -182 -81
7 48 -26 92 -54 75 -27 -17 -31 -161 -5 -194 26 -32 91 -30 146 6 35 22 296
277 296 289 0 6 -31 35 -38 35 -4 -1 -17 -6 -29 -13z"/>
<path d="M27125 9500 c-3 -5 -15 -35 -25 -66 -11 -31 -42 -99 -70 -152 -51
-97 -62 -145 -35 -156 38 -14 74 35 154 211 52 114 56 129 45 157 -7 18 -59
22 -69 6z"/>
<path d="M27943 9494 c-45 -23 -71 -82 -79 -181 -4 -46 -10 -83 -14 -83 -33 0
-74 27 -96 65 -13 24 -32 46 -40 49 -23 9 -54 -12 -54 -35 0 -35 38 -96 73
-118 26 -16 113 -41 142 -41 2 0 17 -25 34 -55 44 -78 99 -137 125 -133 38 5
31 43 -18 109 -25 34 -46 66 -46 73 0 7 26 17 59 24 32 7 74 22 92 35 37 24
79 97 79 137 0 49 -42 113 -90 137 -62 31 -127 38 -167 17z m110 -75 c42 -22
67 -52 67 -82 0 -52 -81 -107 -157 -107 -21 0 -23 5 -23 50 0 79 37 150 78
150 7 0 23 -5 35 -11z"/>
<path d="M1252 9428 c-18 -18 -15 -56 6 -66 9 -5 89 -12 177 -16 88 -3 261
-10 385 -16 183 -7 708 -15 758 -11 14 1 16 27 2 36 -34 21 -203 37 -539 50
-207 8 -437 19 -511 25 -185 13 -264 12 -278 -2z"/>
<path d="M5760 9319 c-145 -38 -278 -116 -390 -228 -236 -237 -273 -523 -97
-756 113 -149 333 -287 505 -317 195 -33 439 81 563 263 151 223 194 587 90
751 -56 89 -208 191 -341 229 -26 7 -58 26 -76 46 -30 32 -35 33 -105 32 -41
0 -108 -9 -149 -20z m305 -124 c281 -96 383 -246 346 -507 -45 -317 -193 -510
-446 -583 -143 -42 -318 10 -500 148 -167 127 -245 318 -204 497 15 67 72 178
121 236 76 92 215 194 263 194 17 0 40 6 51 14 64 45 241 46 369 1z"/>
<path d="M4039 9293 c-11 -13 -14 -60 -13 -215 1 -182 0 -198 -16 -198 -16 0
-268 38 -371 56 -26 4 -40 2 -52 -11 -22 -22 -22 -62 1 -74 15 -8 163 -26 375
-47 l67 -6 1 -222 c1 -229 11 -311 39 -311 15 0 22 121 29 459 l1 69 63 -6
c34 -4 103 -11 154 -17 63 -7 101 -6 119 1 27 10 27 10 8 29 -20 20 -186 60
-249 60 -18 0 -47 3 -65 6 l-32 7 6 156 c3 86 8 177 12 202 4 35 2 50 -11 62
-21 22 -49 22 -66 0z"/>
<path d="M1580 8902 c-116 -39 -210 -106 -237 -169 -47 -113 29 -264 166 -326
63 -29 201 -28 298 2 114 35 226 105 296 186 33 38 63 68 66 65 5 -4 57 -118
81 -177 5 -12 26 -40 46 -63 61 -67 123 -89 144 -51 14 28 14 28 -30 56 -22
14 -56 47 -75 73 -48 66 -103 207 -111 286 -7 71 -20 89 -56 84 -20 -3 -24
-11 -30 -62 -15 -121 -86 -204 -233 -276 -99 -48 -147 -59 -253 -60 -142 0
-224 56 -246 169 -13 73 57 147 181 191 106 37 163 19 303 -99 46 -39 89 -71
95 -71 7 0 20 9 30 21 18 19 18 22 3 47 -19 32 -128 109 -216 152 -79 40 -148
46 -222 22z"/>
<path d="M16492 8868 c-16 -16 -15 -53 1 -66 7 -6 67 -16 133 -22 142 -13 415
-42 689 -75 434 -51 603 -68 618 -62 23 9 21 24 -4 38 -46 24 -515 96 -979
149 -96 11 -225 27 -286 35 -134 18 -156 19 -172 3z"/>
<path d="M12906 8654 c-18 -18 -21 -45 -5 -61 7 -7 100 -9 297 -6 363 7 622
-12 1189 -87 146 -19 183 -19 183 2 0 14 -62 37 -132 48 -35 6 -92 17 -128 25
-68 16 -133 25 -360 51 -291 32 -485 44 -752 44 -238 0 -279 -2 -292 -16z"/>
<path d="M22243 8340 c-109 -26 -218 -113 -266 -213 -126 -260 105 -676 480
-865 132 -67 320 -112 339 -81 11 18 -8 28 -102 55 -186 54 -334 143 -459 276
-144 153 -208 289 -209 443 -1 76 3 97 22 135 49 93 125 150 230 171 59 12 71
12 150 -10 157 -43 179 -46 196 -32 23 19 20 58 -6 72 -12 6 -65 22 -117 35
-96 24 -195 29 -258 14z"/>
<path d="M16845 8317 c-155 -40 -246 -131 -277 -278 -30 -143 54 -235 258
-285 184 -46 501 -1 696 97 32 16 64 29 72 29 19 0 34 -51 47 -160 13 -120 34
-187 64 -206 48 -31 71 6 40 65 -8 16 -23 95 -33 177 -28 224 -44 247 -144
197 -190 -94 -345 -133 -530 -133 -194 0 -302 31 -366 105 -36 41 -40 69 -16
137 20 61 70 117 135 153 48 26 66 30 157 33 165 7 287 -40 401 -154 36 -37
61 -42 85 -18 25 25 19 45 -29 90 -51 47 -149 101 -245 134 -80 27 -240 36
-315 17z"/>
<path d="M12822 8168 c-14 -14 -16 -47 -4 -65 27 -43 289 -105 887 -209 50 -8
110 -19 135 -24 25 -5 83 -14 130 -20 47 -6 102 -13 122 -15 40 -6 59 9 31 23
-70 38 -303 93 -746 177 -197 37 -404 92 -473 125 -47 23 -65 25 -82 8z"/>
<path d="M26683 8063 c-4 -10 -7 -136 -8 -280 0 -250 1 -263 21 -290 24 -32
61 -42 70 -19 3 8 -2 36 -12 61 -15 39 -16 68 -11 198 3 84 12 184 18 223 11
64 11 75 -4 98 -20 31 -64 36 -74 9z"/>
<path d="M29773 8054 c-10 -15 -36 -82 -58 -148 l-40 -120 -65 -12 c-36 -7
-68 -13 -72 -13 -4 -1 -14 14 -21 32 -47 109 -129 91 -242 -53 -82 -106 -153
-176 -164 -165 -13 13 3 131 24 182 21 49 19 60 -11 79 -24 16 -26 16 -43 -2
-10 -10 -30 -50 -45 -87 -31 -80 -130 -232 -177 -271 -75 -63 -152 -81 -195
-45 -22 18 -17 26 20 39 59 19 150 85 182 131 40 57 58 126 51 193 -6 63 -26
98 -72 126 -74 46 -179 11 -232 -79 -39 -65 -54 -134 -56 -252 -2 -86 -3 -89
-25 -89 -31 0 -71 22 -106 58 -24 26 -30 43 -38 114 -17 141 -25 158 -79 158
-32 0 -86 -49 -182 -163 -27 -31 -52 -57 -58 -57 -5 0 -6 37 -2 90 7 102 -3
134 -46 147 -45 15 -66 4 -132 -65 -127 -133 -176 -180 -199 -192 -22 -12 -22
-11 -16 25 10 52 51 141 81 177 38 45 29 88 -20 88 -42 0 -77 -62 -126 -224
-30 -100 -32 -110 -18 -134 19 -36 68 -41 113 -13 19 12 86 76 150 142 64 66
122 119 129 117 20 -7 20 -77 1 -155 -21 -86 -12 -123 31 -123 39 0 64 21 170
141 54 60 103 109 110 109 8 0 15 -26 19 -72 4 -40 12 -91 19 -112 23 -78 99
-126 200 -126 39 0 49 -4 69 -31 30 -38 97 -62 146 -53 89 16 159 71 223 174
71 115 68 113 69 49 0 -67 22 -96 66 -85 43 11 76 39 150 127 155 184 168 193
200 144 14 -21 29 -133 33 -252 1 -7 10 -22 21 -33 47 -47 128 -2 121 68 -1
15 -33 16 -49 0 -20 -20 -30 2 -34 71 l-3 65 65 14 c51 11 120 12 315 7 178
-4 260 -2 283 6 104 36 -76 79 -333 79 -60 0 -116 4 -124 9 -11 7 -1 34 50
130 68 131 70 153 16 159 -19 2 -30 -4 -44 -24z m-949 -220 c27 -27 30 -37 26
-89 -5 -76 -78 -171 -158 -206 -72 -32 -76 -29 -69 49 9 94 40 199 68 229 46
49 94 55 133 17z"/>
<path d="M25970 7899 c-59 -26 -87 -53 -116 -112 -19 -37 -29 -47 -43 -42 -11
3 -24 -1 -32 -11 -11 -14 -10 -25 7 -73 15 -43 18 -67 12 -106 -26 -176 -31
-257 -20 -340 15 -113 42 -175 76 -175 45 0 49 23 43 284 -3 133 -10 259 -16
281 -16 60 10 139 60 187 45 43 121 64 193 54 97 -15 236 -144 236 -220 0 -46
-45 -87 -103 -93 -70 -8 -137 19 -202 83 -31 30 -63 54 -71 54 -51 0 5 -118
79 -167 63 -42 117 -56 194 -50 113 9 173 67 173 168 0 48 -5 64 -38 115 -97
150 -296 225 -432 163z"/>
<path d="M27135 7896 c-114 -36 -175 -113 -183 -231 l-5 -73 -45 -7 c-73 -11
-94 -22 -90 -48 3 -20 10 -22 80 -27 69 -5 78 -8 98 -33 63 -80 231 -110 369
-67 109 35 171 84 143 112 -10 10 -19 10 -45 -1 -124 -51 -161 -61 -225 -61
-82 0 -133 14 -169 44 l-27 23 82 12 c146 21 240 57 300 114 115 109 14 258
-173 256 -38 0 -88 -6 -110 -13z m188 -80 c46 -19 71 -50 63 -79 -10 -41 -74
-75 -201 -107 -157 -40 -165 -40 -165 7 0 75 59 154 135 181 43 15 130 14 168
-2z"/>
<path d="M25230 7884 c-21 -8 -96 -77 -185 -169 -100 -103 -158 -155 -171
-155 -19 0 -22 8 -28 77 -11 122 -41 163 -117 163 -56 0 -103 -31 -218 -144
-119 -115 -156 -146 -178 -146 -7 0 -13 7 -13 15 0 22 44 107 74 143 33 38 33
57 1 78 -23 15 -27 15 -51 -1 -32 -21 -114 -189 -114 -233 0 -18 11 -43 27
-62 23 -28 31 -32 64 -27 52 7 114 53 245 179 155 151 192 154 201 21 8 -119
41 -166 106 -149 41 10 112 64 182 138 38 40 95 101 127 135 91 97 136 96 202
-4 23 -36 37 -48 56 -48 22 0 25 4 24 32 -3 47 -54 124 -100 150 -45 26 -85
28 -134 7z"/>
<path d="M23500 7801 c-25 -9 -55 -24 -68 -32 -29 -18 -78 -95 -87 -137 -4
-22 -16 -37 -35 -47 -38 -19 -60 -53 -60 -89 0 -83 60 -173 145 -215 140 -70
358 -69 504 1 150 72 193 208 109 345 -46 75 -132 142 -221 171 -86 28 -220
30 -287 3z m269 -82 c30 -10 72 -30 93 -44 49 -33 108 -122 115 -174 17 -128
-199 -225 -417 -187 -125 22 -230 91 -230 152 0 27 12 31 30 9 27 -33 67 -10
48 28 -8 15 -3 17 42 17 60 0 90 13 90 40 0 29 -39 50 -92 50 -27 0 -48 3 -48
6 0 21 45 73 78 92 78 44 186 48 291 11z"/>
<path d="M6600 6933 c-19 -2 -41 -9 -47 -15 -16 -13 -17 -64 -2 -74 6 -4 140
-8 298 -9 157 -1 333 -8 391 -14 396 -45 461 -49 480 -26 29 34 10 40 -300 85
-273 39 -712 68 -820 53z"/>
<path d="M15620 6923 c-53 -3 -273 -21 -569 -48 -152 -13 -161 -17 -161 -67 0
-46 60 -60 155 -38 57 13 235 36 480 61 158 16 289 22 530 24 176 2 323 4 328
4 17 2 5 32 -17 41 -55 21 -531 36 -746 23z"/>
<path d="M23062 6754 c-25 -17 -29 -56 -7 -74 8 -7 15 -23 15 -36 0 -13 -33
-155 -74 -316 -101 -401 -146 -626 -146 -731 0 -50 24 -81 51 -66 15 8 19 21
19 63 0 115 56 377 160 751 45 159 70 282 70 342 0 42 -4 55 -22 67 -12 9 -27
16 -33 16 -6 0 -21 -7 -33 -16z"/>
<path d="M24420 6655 c-7 -9 -10 -27 -7 -44 8 -40 -7 -91 -116 -381 -52 -140
-103 -289 -112 -330 -31 -135 -23 -131 -90 -45 -127 162 -305 255 -489 255
-123 0 -204 -59 -193 -141 7 -50 40 -114 80 -157 68 -71 230 -153 389 -197
106 -29 131 -31 147 -12 18 22 -14 42 -118 71 -209 59 -408 200 -414 293 -3
42 42 68 116 67 208 -4 441 -180 508 -384 26 -78 34 -90 64 -90 37 0 45 20 38
92 -10 117 26 255 155 578 93 236 116 306 116 364 0 36 -5 52 -19 62 -24 18
-40 18 -55 -1z"/>
<path d="M12823 6556 c-276 -12 -293 -16 -279 -70 12 -47 32 -49 225 -29 136
14 252 18 511 17 322 0 364 -3 686 -40 35 -5 54 -3 59 6 13 21 -20 41 -91 56
-280 59 -673 80 -1111 60z"/>
<path d="M7111 6465 c-168 -38 -323 -155 -405 -306 -97 -177 -83 -476 26 -575
65 -60 151 -76 227 -43 84 36 142 118 196 279 12 36 26 65 30 65 10 0 44 -63
87 -160 123 -276 169 -365 238 -457 31 -40 69 -77 98 -94 85 -50 192 -33 192
31 0 38 -22 47 -58 25 -18 -11 -40 -20 -49 -20 -30 0 -83 42 -126 98 -60 79
-91 137 -149 282 -85 213 -184 402 -221 421 -35 19 -64 -13 -92 -103 -82 -258
-193 -358 -313 -280 -13 8 -35 38 -50 66 -25 47 -27 61 -27 166 0 134 21 209
84 308 129 199 443 298 558 175 46 -48 58 -100 45 -193 -11 -80 -5 -100 29
-100 28 0 39 30 45 127 6 98 -7 151 -51 209 -55 72 -191 107 -314 79z"/>
<path d="M15444 6441 c-186 -30 -335 -133 -410 -287 -33 -66 -38 -87 -42 -162
-3 -80 -1 -92 25 -142 72 -140 253 -189 415 -113 115 55 235 165 314 290 19
29 50 78 70 109 27 43 38 53 48 44 8 -6 54 -87 102 -181 107 -205 132 -239
179 -239 61 0 73 58 15 78 -24 9 -37 28 -75 109 -131 277 -173 343 -219 343
-29 0 -47 -20 -136 -155 -149 -223 -310 -346 -451 -345 -144 1 -212 61 -213
185 -1 162 116 308 289 359 118 36 150 38 260 21 169 -27 203 -29 220 -15 22
18 18 47 -7 63 -40 25 -303 50 -384 38z"/>
<path d="M4025 5992 c-11 -12 -4 -31 15 -37 22 -7 63 11 55 24 -6 10 -63 20
-70 13z"/>
<path d="M12624 5933 c-12 -2 -30 -13 -40 -24 -14 -15 -15 -24 -6 -43 10 -23
11 -23 239 -29 228 -5 412 -24 643 -67 259 -48 468 -66 492 -42 21 21 -3 47
-48 49 -57 4 -171 21 -324 49 -263 48 -427 73 -575 88 -174 17 -351 26 -381
19z"/>
<path d="M2890 5805 c0 -18 24 -30 39 -21 16 10 1 36 -20 36 -10 0 -19 -7 -19
-15z"/>
<path d="M16715 930 c-4 -7 -3 -16 3 -22 14 -14 45 -2 40 15 -6 16 -34 21 -43
7z"/>
</g>
</svg>
