<?xml version="1.0" standalone="no"?>
<!DOCTYPE svg PUBLIC "-//W3C//DTD SVG 20010904//EN"
 "http://www.w3.org/TR/2001/REC-SVG-20010904/DTD/svg10.dtd">
<svg version="1.0" xmlns="http://www.w3.org/2000/svg"
 width="3264.000000pt" height="2448.000000pt" viewBox="0 0 3264.000000 2448.000000"
 preserveAspectRatio="xMidYMid meet">
<metadata>
Created by potrace 1.12, written by Peter Selinger 2001-2015
</metadata>
<g transform="translate(0.000000,2448.000000) scale(0.100000,-0.100000)"
fill="#000000" stroke="none">
<path d="M90 24451 c0 -17 6 -31 16 -35 22 -9 57 12 50 31 -3 8 -6 19 -6 24 0
5 -13 9 -30 9 -26 0 -30 -3 -30 -29z"/>
<path d="M276 24471 c-8 -13 3 -38 19 -45 20 -7 49 18 42 38 -7 17 -52 22 -61
7z"/>
<path d="M444 24468 c11 -7 28 -21 38 -30 18 -18 58 -25 58 -10 0 24 -30 44
-70 48 -39 4 -43 3 -26 -8z"/>
<path d="M1780 24440 l0 -40 40 0 40 0 0 40 0 40 -40 0 -40 0 0 -40z"/>
<path d="M2026 24465 c4 -8 10 -15 15 -15 5 0 9 -7 9 -15 0 -8 9 -15 19 -15
11 0 21 -5 23 -12 3 -7 12 -9 22 -5 13 5 16 13 10 29 -11 38 -25 48 -65 48
-30 0 -37 -3 -33 -15z"/>
<path d="M2250 24461 c-14 -27 -13 -51 3 -51 16 0 41 27 50 53 9 25 -39 23
-53 -2z"/>
<path d="M2410 24467 c0 -19 56 -77 74 -77 21 0 20 21 -1 59 -13 23 -25 31
-45 31 -16 0 -28 -5 -28 -13z"/>
<path d="M2620 24459 c0 -12 -7 -27 -17 -34 -17 -13 -10 -35 11 -35 12 0 76
71 76 84 0 3 -16 6 -35 6 -29 0 -35 -4 -35 -21z"/>
<path d="M2794 24445 c-8 -46 0 -65 30 -65 29 0 39 21 30 66 -5 27 -11 34 -30
34 -19 0 -24 -7 -30 -35z"/>
<path d="M3110 24465 c0 -9 -7 -29 -15 -46 -14 -25 -14 -30 -1 -35 11 -4 76
20 76 29 0 1 4 17 9 35 l10 32 -40 0 c-29 0 -39 -4 -39 -15z"/>
<path d="M4180 24436 c0 -44 18 -76 43 -76 7 0 46 -2 87 -4 47 -2 88 2 109 10
34 14 111 86 111 104 0 6 -17 10 -38 10 -29 0 -45 -7 -67 -30 -16 -16 -34 -30
-41 -30 -6 0 -17 -7 -24 -15 -7 -8 -16 -15 -20 -15 -18 0 -70 53 -70 71 0 16
-7 19 -45 19 l-45 0 0 -44z"/>
<path d="M4610 24455 c0 -30 52 -91 85 -99 14 -4 35 -2 46 4 14 8 24 8 33 1
24 -20 88 11 113 55 31 53 29 64 -10 64 -27 0 -36 -6 -51 -34 -15 -28 -51 -56
-72 -56 -10 0 -64 65 -64 77 0 8 -14 13 -40 13 -36 0 -40 -3 -40 -25z"/>
<path d="M4976 24458 c23 -77 65 -108 147 -108 49 0 67 13 67 48 0 21 -3 23
-27 17 -15 -3 -30 -7 -33 -8 -15 -2 -59 28 -71 49 -10 19 -20 24 -51 24 -36 0
-39 -2 -32 -22z"/>
<path d="M5272 24448 c5 -18 12 -40 15 -49 8 -28 45 -39 143 -43 116 -5 130 3
130 76 l0 48 -40 0 c-24 0 -40 -5 -40 -12 0 -21 -44 -78 -61 -78 -21 0 -46 28
-54 63 -7 25 -11 27 -55 27 l-49 0 11 -32z"/>
<path d="M5652 24429 c2 -36 8 -55 21 -63 37 -24 68 29 53 90 -5 20 -13 24
-42 24 l-35 0 3 -51z"/>
<path d="M5840 24427 c0 -53 19 -87 47 -87 20 0 43 38 43 71 0 69 0 69 -47 69
l-43 0 0 -53z"/>
<path d="M6039 24473 c-1 -5 -3 -27 -4 -51 -3 -36 1 -45 21 -59 23 -14 26 -14
45 3 16 14 19 28 17 66 l-3 48 -37 0 c-21 0 -39 -3 -39 -7z"/>
<path d="M6190 24458 c0 -33 36 -87 66 -98 36 -14 157 -13 172 2 14 14 16 54
3 63 -5 3 -27 -2 -49 -10 -48 -20 -86 -8 -110 35 -13 24 -24 30 -49 30 -28 0
-33 -4 -33 -22z"/>
<path d="M6520 24431 c0 -53 17 -81 50 -81 26 0 40 30 40 84 l0 46 -45 0 -45
0 0 -49z"/>
<path d="M6730 24420 c0 -46 4 -61 18 -68 41 -21 72 13 72 80 l0 48 -45 0 -45
0 0 -60z"/>
<path d="M6910 24436 c0 -51 23 -84 60 -87 78 -6 96 14 56 62 -14 17 -26 39
-26 50 0 16 -7 19 -45 19 l-45 0 0 -44z"/>
<path d="M9800 24470 c0 -38 66 -108 118 -125 36 -11 90 3 103 26 14 28 -2 45
-50 53 -21 3 -50 17 -65 31 -19 18 -38 25 -67 25 -21 0 -39 -5 -39 -10z"/>
<path d="M10140 24342 c0 -151 7 -177 51 -170 l24 3 3 153 3 152 -41 0 -40 0
0 -138z"/>
<path d="M10455 24454 c-14 -17 -34 -27 -62 -31 -53 -7 -66 -21 -50 -53 11
-22 18 -25 61 -22 62 3 96 22 129 69 37 54 35 63 -15 62 -33 0 -48 -6 -63 -25z"/>
<path d="M11330 24455 c0 -20 11 -31 56 -56 55 -32 56 -33 51 -70 -6 -46 7
-109 25 -120 7 -4 103 -8 213 -9 110 0 220 -3 245 -6 36 -5 50 -2 71 15 32 25
42 69 27 112 -10 30 -9 34 16 56 15 13 33 23 41 23 21 0 45 29 45 56 0 23 -2
24 -80 24 l-80 0 0 -84 c0 -128 5 -125 -215 -126 -99 -1 -188 -2 -197 -1 -33
2 -54 73 -58 199 0 8 -23 12 -80 12 -79 0 -80 0 -80 -25z"/>
<path d="M12938 24463 c-8 -34 7 -172 20 -185 14 -14 52 -15 492 -21 315 -4
300 -11 300 130 l0 93 -40 0 c-38 0 -40 -2 -34 -24 6 -25 -29 -110 -50 -124
-17 -10 -526 -3 -547 8 -10 6 -19 17 -19 24 0 8 -11 21 -25 30 -19 12 -25 25
-25 51 0 33 -2 35 -34 35 -24 0 -35 -5 -38 -17z"/>
<path d="M13160 24470 c0 -5 6 -10 14 -10 8 0 18 5 21 10 3 6 -3 10 -14 10
-12 0 -21 -4 -21 -10z"/>
<path d="M13500 24460 c32 -25 36 -25 43 0 4 17 0 20 -31 20 l-37 0 25 -20z"/>
<path d="M14585 24449 c26 -49 81 -104 131 -130 40 -20 62 -24 135 -24 68 0
91 4 106 17 11 10 34 21 53 24 31 7 36 3 114 -80 73 -79 84 -87 108 -81 19 5
29 15 33 36 10 44 0 60 -75 128 -49 44 -70 69 -70 86 0 13 5 27 10 30 23 14 7
25 -34 25 -34 0 -46 -4 -50 -18 -11 -35 -60 -69 -118 -82 -94 -21 -172 1 -235
66 -28 29 -40 34 -78 34 l-46 0 16 -31z"/>
<path d="M16850 24478 c0 -2 8 -26 18 -53 44 -123 94 -180 204 -237 59 -30 70
-32 168 -32 92 0 112 3 160 25 96 45 193 166 215 267 l7 32 -44 0 -44 0 -17
-60 c-15 -49 -27 -68 -70 -106 -80 -71 -124 -87 -221 -82 -65 3 -89 9 -121 30
-66 43 -129 114 -145 166 -15 47 -15 47 -62 50 -27 2 -48 2 -48 0z"/>
<path d="M17190 24448 c0 -75 31 -131 62 -112 17 11 38 71 38 109 l0 35 -50 0
c-50 0 -50 0 -50 -32z"/>
<path d="M18050 24457 c0 -25 17 -47 36 -47 7 0 12 14 11 35 -1 30 -5 35 -24
35 -17 0 -23 -6 -23 -23z"/>
<path d="M20015 24460 c11 -12 31 -20 51 -20 29 0 34 -4 42 -32 6 -23 15 -34
30 -36 18 -3 26 5 42 43 11 26 20 51 20 56 0 5 -46 9 -102 9 -100 0 -101 0
-83 -20z"/>
<path d="M20950 24457 c0 -13 -7 -32 -15 -43 -19 -25 -20 -74 -1 -74 18 0 49
43 64 89 17 48 16 51 -18 51 -25 0 -30 -4 -30 -23z"/>
<path d="M21339 24466 c7 -8 27 -17 45 -20 25 -5 37 -14 46 -36 7 -17 18 -30
25 -30 12 0 55 74 55 93 0 4 -41 7 -91 7 -77 0 -90 -2 -80 -14z"/>
<path d="M22240 24476 c0 -2 7 -9 15 -16 12 -10 15 -10 15 4 0 9 -7 16 -15 16
-8 0 -15 -2 -15 -4z"/>
<path d="M23000 24460 c0 -23 27 -64 83 -127 20 -24 37 -49 37 -56 0 -18 -28
-75 -41 -82 -15 -10 -10 -51 10 -76 18 -23 20 -23 72 -10 56 15 101 37 153 76
26 19 47 23 126 27 53 3 104 10 115 16 11 6 43 21 70 33 62 29 118 85 150 153
14 29 25 56 25 59 0 4 -19 7 -43 7 -39 0 -44 -3 -62 -36 -27 -50 -97 -109
-153 -129 -26 -9 -89 -20 -140 -25 -86 -9 -96 -12 -122 -40 -48 -52 -108 -33
-82 25 14 29 3 53 -50 110 -21 22 -43 52 -49 67 -10 25 -17 28 -55 28 -38 0
-44 -3 -44 -20z"/>
<path d="M24734 24433 c-4 -27 -15 -59 -25 -72 -11 -13 -19 -29 -19 -35 1 -17
97 -116 113 -116 7 0 23 11 36 24 14 15 29 22 45 19 36 -7 116 49 186 132 36
41 68 75 72 75 5 0 8 5 8 10 0 6 -19 10 -43 10 -40 0 -46 -4 -110 -75 -46 -50
-76 -75 -91 -75 -31 0 -86 74 -86 117 0 32 -1 33 -39 33 -40 0 -40 0 -47 -47z"/>
<path d="M18726 24461 c-8 -13 4 -42 15 -35 12 7 12 44 0 44 -6 0 -12 -4 -15
-9z"/>
<path d="M650 24445 c-7 -8 -19 -15 -26 -15 -21 0 -17 -17 6 -23 13 -3 24 3
34 19 18 26 5 42 -14 19z"/>
<path d="M11699 24437 c5 -5 27 -11 50 -14 33 -5 41 -3 41 11 0 13 -10 16 -50
14 -28 -1 -46 -6 -41 -11z"/>
<path d="M2957 24433 c-4 -3 -7 -17 -7 -30 0 -20 5 -23 40 -23 44 0 47 5 24
38 -15 21 -44 29 -57 15z"/>
<path d="M20677 24368 c-6 -64 5 -96 23 -68 6 8 8 21 5 28 -3 8 -5 34 -5 58 0
66 -16 53 -23 -18z"/>
<path d="M8914 24409 c-3 -6 -1 -16 4 -21 13 -13 45 8 36 23 -7 12 -31 11 -40
-2z"/>
<path d="M18697 24380 c-19 -16 -38 -41 -41 -54 -3 -13 -17 -31 -31 -40 -14
-9 -25 -24 -25 -32 0 -9 -6 -14 -13 -11 -7 3 -24 -4 -38 -14 -13 -10 -32 -19
-41 -19 -10 0 -18 -5 -18 -10 0 -6 10 -8 23 -5 13 4 30 7 38 8 8 2 20 6 27 10
6 5 16 6 21 3 5 -3 11 1 15 9 3 8 11 15 18 15 7 0 33 27 57 60 24 33 50 60 58
60 17 0 14 41 -4 47 -6 2 -27 -10 -46 -27z"/>
<path d="M22230 24400 c0 -5 7 -10 16 -10 8 0 12 5 9 10 -3 6 -10 10 -16 10
-5 0 -9 -4 -9 -10z"/>
<path d="M18384 24376 c-8 -22 3 -33 18 -18 9 9 9 15 0 24 -9 9 -13 7 -18 -6z"/>
<path d="M8251 24364 c0 -11 3 -14 6 -6 3 7 2 16 -1 19 -3 4 -6 -2 -5 -13z"/>
<path d="M22253 24363 c-7 -3 -13 -21 -13 -41 0 -36 0 -36 16 -14 17 25 15 61
-3 55z"/>
<path d="M19540 24303 c0 -22 2 -25 10 -13 13 20 13 40 0 40 -5 0 -10 -12 -10
-27z"/>
<path d="M18130 24305 c0 -12 33 -55 42 -55 6 0 23 -11 39 -24 18 -15 36 -22
49 -19 11 3 20 0 20 -6 0 -6 11 -11 25 -11 18 0 23 4 19 15 -4 8 -17 15 -30
15 -27 0 -37 7 -89 58 -28 27 -75 44 -75 27z"/>
<path d="M8912 24278 c-7 -7 -12 -16 -12 -20 0 -12 28 -10 36 3 10 17 -10 31
-24 17z"/>
<path d="M8270 24270 c0 -5 5 -10 10 -10 6 0 10 5 10 10 0 6 -4 10 -10 10 -5
0 -10 -4 -10 -10z"/>
<path d="M22240 24270 c0 -5 7 -10 15 -10 8 0 15 5 15 10 0 6 -7 10 -15 10 -8
0 -15 -4 -15 -10z"/>
<path d="M20674 24246 c-8 -22 -1 -59 13 -63 8 -3 11 9 10 36 -1 41 -13 54
-23 27z"/>
<path d="M24581 24218 c-31 -42 -33 -72 -7 -91 17 -12 149 2 164 17 19 18 4
45 -47 85 -52 42 -73 40 -110 -11z"/>
<path d="M22260 24130 c0 -11 -4 -20 -10 -20 -5 0 -10 -4 -10 -10 0 -5 7 -10
15 -10 10 0 15 10 15 30 0 17 -2 30 -5 30 -3 0 -5 -9 -5 -20z"/>
<path d="M20660 24019 c0 -5 5 -7 10 -4 6 3 10 8 10 11 0 2 -4 4 -10 4 -5 0
-10 -5 -10 -11z"/>
<path d="M4143 23833 c-12 -30 -8 -93 6 -102 7 -5 407 -9 889 -9 483 -1 1132
-2 1445 -2 312 -1 572 2 577 5 19 12 23 74 5 101 -16 25 -18 26 -108 19 -127
-9 -2712 -9 -2765 0 -35 6 -43 4 -49 -12z"/>
<path d="M20506 23663 c-11 -11 -6 -23 9 -23 8 0 15 4 15 9 0 13 -16 22 -24
14z"/>
<path d="M20798 23664 c-4 -3 -23 -6 -43 -6 -23 0 -35 -4 -32 -11 4 -13 82
-15 94 -4 4 4 2 12 -3 17 -6 6 -13 8 -16 4z"/>
<path d="M17500 23650 c0 -5 5 -10 10 -10 6 0 10 5 10 10 0 6 -4 10 -10 10 -5
0 -10 -4 -10 -10z"/>
<path d="M19450 23649 c0 -5 5 -7 10 -4 6 3 10 8 10 11 0 2 -4 4 -10 4 -5 0
-10 -5 -10 -11z"/>
<path d="M20585 23650 c-3 -5 -1 -10 4 -10 6 0 11 5 11 10 0 6 -2 10 -4 10 -3
0 -8 -4 -11 -10z"/>
<path d="M20830 23650 c0 -5 5 -10 10 -10 6 0 10 5 10 10 0 6 -4 10 -10 10 -5
0 -10 -4 -10 -10z"/>
<path d="M20943 23648 c2 -7 13 -12 23 -11 10 2 29 4 42 5 41 4 23 18 -24 18
-32 0 -44 -4 -41 -12z"/>
<path d="M21052 23651 c2 -7 7 -12 11 -12 12 1 9 15 -3 20 -7 2 -11 -2 -8 -8z"/>
<path d="M21380 23650 c0 -5 5 -10 10 -10 6 0 10 5 10 10 0 6 -4 10 -10 10 -5
0 -10 -4 -10 -10z"/>
<path d="M21420 23650 c0 -5 5 -10 10 -10 6 0 10 5 10 10 0 6 -4 10 -10 10 -5
0 -10 -4 -10 -10z"/>
<path d="M21560 23650 c0 -5 5 -10 10 -10 6 0 10 5 10 10 0 6 -4 10 -10 10 -5
0 -10 -4 -10 -10z"/>
<path d="M21890 23651 c0 -6 5 -13 10 -16 6 -3 10 1 10 9 0 9 -4 16 -10 16 -5
0 -10 -4 -10 -9z"/>
<path d="M21960 23650 c0 -5 7 -10 15 -10 8 0 15 5 15 10 0 6 -7 10 -15 10 -8
0 -15 -4 -15 -10z"/>
<path d="M22002 23649 c2 -6 8 -10 13 -10 5 0 11 4 13 10 2 6 -4 11 -13 11 -9
0 -15 -5 -13 -11z"/>
<path d="M22480 23650 c0 -5 5 -10 10 -10 6 0 10 5 10 10 0 6 -4 10 -10 10 -5
0 -10 -4 -10 -10z"/>
<path d="M22590 23650 c0 -5 5 -10 10 -10 6 0 10 5 10 10 0 6 -4 10 -10 10 -5
0 -10 -4 -10 -10z"/>
<path d="M22880 23650 c0 -5 5 -10 10 -10 6 0 10 5 10 10 0 6 -4 10 -10 10 -5
0 -10 -4 -10 -10z"/>
<path d="M24155 23640 c-3 -5 -1 -10 4 -10 6 0 11 5 11 10 0 6 -2 10 -4 10 -3
0 -8 -4 -11 -10z"/>
<path d="M25170 23630 c0 -5 5 -10 10 -10 6 0 10 5 10 10 0 6 -4 10 -10 10 -5
0 -10 -4 -10 -10z"/>
<path d="M25640 23619 c0 -5 5 -7 10 -4 6 3 10 8 10 11 0 2 -4 4 -10 4 -5 0
-10 -5 -10 -11z"/>
<path d="M28330 23595 c0 -8 5 -15 10 -15 6 0 10 7 10 15 0 8 -4 15 -10 15 -5
0 -10 -7 -10 -15z"/>
<path d="M28990 23590 c0 -5 5 -10 11 -10 5 0 7 5 4 10 -3 6 -8 10 -11 10 -2
0 -4 -4 -4 -10z"/>
<path d="M30810 23589 c0 -5 5 -7 10 -4 6 3 10 8 10 11 0 2 -4 4 -10 4 -5 0
-10 -5 -10 -11z"/>
<path d="M805 22931 c-12 -11 -3 -41 15 -51 24 -13 28 -38 36 -235 8 -228 7
-244 -22 -282 -29 -39 -23 -44 60 -50 50 -4 66 -2 79 11 18 18 23 46 8 46 -22
0 -31 68 -33 270 -3 200 -2 217 17 248 17 29 18 34 5 43 -14 9 -156 10 -165 0z"/>
<path d="M2273 22930 c-29 -12 -29 -22 1 -57 13 -15 26 -37 29 -48 3 -11 8
-108 12 -215 5 -157 4 -204 -8 -238 -17 -48 -11 -57 44 -67 32 -6 39 -3 58 21
20 26 21 28 4 47 -16 17 -18 45 -18 269 l-1 250 -27 24 c-29 25 -57 29 -94 14z"/>
<path d="M5323 22930 c-31 -13 -30 -50 2 -80 l25 -23 0 -219 c0 -176 -3 -225
-15 -248 -15 -28 -14 -30 10 -46 17 -11 35 -14 59 -10 47 9 61 28 44 58 -9 16
-12 56 -10 131 4 166 4 175 -2 296 -3 75 -9 119 -18 127 -18 18 -68 26 -95 14z"/>
<path d="M7039 22933 c-8 -2 -23 -17 -33 -34 -16 -28 -16 -32 -2 -54 22 -34
66 -37 99 -8 24 22 21 55 -6 81 -23 22 -28 23 -58 15z"/>
<path d="M5796 22908 c-23 -33 -20 -65 8 -84 21 -13 29 -14 53 -2 39 18 52 61
28 88 -24 27 -70 26 -89 -2z"/>
<path d="M8417 22912 c-24 -26 -22 -79 2 -92 44 -23 101 5 101 50 0 27 -35 60
-63 60 -13 0 -31 -8 -40 -18z"/>
<path d="M10060 22893 c-36 -34 -32 -66 12 -89 26 -13 31 -13 58 3 17 9 30 20
30 24 0 4 3 14 6 23 7 18 -37 66 -60 66 -9 0 -29 -12 -46 -27z"/>
<path d="M12362 22873 c-15 -6 -48 -72 -57 -114 -5 -22 -2 -36 10 -49 13 -14
18 -45 22 -125 5 -92 4 -108 -12 -125 -17 -19 -17 -21 0 -53 22 -42 11 -86
-28 -105 -53 -26 -28 -41 78 -49 53 -4 75 -1 90 10 20 15 20 16 -9 46 -22 22
-29 40 -28 63 2 48 2 74 -3 286 -4 216 -10 236 -63 215z"/>
<path d="M13590 22873 c-60 -8 -80 -41 -36 -61 13 -6 34 -29 47 -51 12 -23 30
-43 39 -46 16 -5 46 -69 85 -180 10 -27 26 -69 36 -91 10 -23 23 -63 29 -90 6
-27 18 -59 26 -71 29 -45 77 -19 89 49 6 31 3 42 -23 75 -17 21 -42 74 -57
118 -15 44 -38 105 -50 135 -13 30 -34 84 -46 119 -17 47 -30 68 -53 82 -17
10 -35 18 -41 17 -5 0 -26 -3 -45 -5z"/>
<path d="M14050 22848 c-23 -25 -23 -54 -1 -168 13 -69 12 -339 -1 -365 -6
-11 -17 -24 -24 -28 -21 -12 -17 -35 7 -42 12 -4 47 -7 79 -7 101 0 120 15 76
61 -24 26 -24 30 -29 257 -3 127 -2 235 1 241 4 5 15 12 25 16 25 9 21 36 -9
47 -46 18 -101 12 -124 -12z"/>
<path d="M14333 22858 c-29 -14 -29 -29 1 -57 23 -22 24 -27 27 -219 l4 -197
32 -45 c18 -25 53 -58 77 -73 38 -24 56 -28 116 -29 70 0 73 0 111 38 62 60
77 91 86 179 4 44 7 87 6 95 -6 52 -10 219 -4 227 3 4 18 16 34 26 31 20 33
29 11 51 -18 19 -124 22 -155 6 -25 -14 -24 -36 2 -50 40 -22 46 -60 41 -239
-5 -187 -14 -220 -72 -259 -27 -19 -44 -23 -75 -18 -84 11 -103 70 -107 331
l-3 170 28 13 c32 15 35 37 8 52 -25 13 -139 12 -168 -2z"/>
<path d="M15015 22859 c-102 -11 -121 -29 -60 -55 26 -11 48 -35 88 -97 86
-132 97 -153 97 -178 0 -15 8 -28 22 -34 25 -11 89 -102 108 -154 10 -27 10
-38 -1 -58 -12 -22 -11 -27 6 -39 36 -27 215 -14 215 15 0 5 -17 18 -37 28
-29 14 -55 44 -111 128 -116 175 -123 191 -90 237 18 25 2 34 -22 13 -20 -18
-21 -18 -46 6 -40 37 -65 93 -62 141 3 37 0 42 -22 47 -14 4 -52 4 -85 0z"/>
<path d="M15266 22851 c-14 -15 -15 -23 -6 -47 7 -16 9 -48 5 -71 -3 -24 -3
-43 1 -43 4 0 29 22 55 50 34 33 61 51 85 56 45 8 55 31 25 56 -33 26 -141 26
-165 -1z"/>
<path d="M12970 22836 c-14 -13 -40 -33 -59 -43 -48 -26 -48 -38 -2 -52 22 -6
42 -15 45 -19 4 -6 10 -338 7 -385 -1 -10 -15 -24 -35 -32 -43 -18 -50 -29
-30 -46 17 -14 172 -19 217 -6 34 9 35 33 2 41 -49 13 -53 32 -58 298 -3 136
-8 252 -12 257 -11 19 -50 12 -75 -13z"/>
<path d="M18296 22847 c-31 -10 -34 -37 -7 -54 30 -19 38 -91 35 -301 -2 -160
-5 -196 -18 -211 -23 -25 -20 -40 10 -51 34 -13 77 -13 109 2 29 13 32 30 9
49 -14 11 -15 31 -10 139 7 147 7 133 0 285 -3 66 -10 125 -15 131 -13 15 -81
22 -113 11z"/>
<path d="M20057 22853 c-39 -6 -44 -29 -13 -58 l26 -24 0 -233 c0 -201 -2
-237 -17 -257 -15 -23 -15 -25 3 -38 28 -21 62 -27 96 -17 46 13 56 36 31 68
-18 23 -20 37 -17 118 2 51 8 108 13 127 7 24 7 40 -1 55 -7 13 -11 61 -9 127
2 115 -2 126 -55 133 -16 2 -42 2 -57 -1z"/>
<path d="M20806 22844 c-33 -32 -6 -114 38 -114 23 0 76 50 76 71 0 48 -79 78
-114 43z"/>
<path d="M21382 22844 c-33 -23 -29 -66 8 -97 36 -31 38 -55 6 -102 -27 -39
-25 -65 5 -65 24 0 63 68 82 143 13 50 14 63 2 91 -20 48 -61 60 -103 30z"/>
<path d="M23843 22850 c-29 -12 -29 -22 2 -58 21 -25 25 -40 25 -90 0 -69 -6
-92 -26 -92 -19 0 -18 -9 4 -33 14 -16 17 -39 17 -138 0 -105 -2 -121 -20
-138 -24 -24 -51 -28 -87 -13 -47 20 -63 56 -62 148 0 89 15 126 60 146 33 15
30 34 -8 42 -24 5 -40 0 -68 -19 -104 -72 -114 -239 -19 -329 37 -35 44 -38
77 -31 90 16 111 17 134 1 40 -28 138 -16 138 18 0 7 -11 23 -25 36 l-26 24 1
254 c1 147 -3 259 -8 264 -14 14 -84 19 -109 8z"/>
<path d="M24691 22824 c-20 -25 -20 -27 -3 -56 9 -17 23 -32 30 -35 45 -18
101 43 82 91 -8 22 -16 26 -49 26 -31 0 -44 -6 -60 -26z"/>
<path d="M25125 22838 c-21 -12 -19 -24 12 -65 22 -29 27 -46 27 -89 -1 -35
-7 -61 -17 -72 -16 -17 -14 -53 3 -77 16 -22 20 -166 6 -199 -8 -17 -16 -39
-20 -48 -3 -10 -12 -18 -21 -18 -8 0 -15 -5 -15 -11 0 -5 5 -7 10 -4 6 4 27
-3 46 -14 44 -26 95 -27 125 -2 l24 19 -23 25 c-23 24 -23 27 -22 274 0 286 0
285 -73 288 -26 0 -53 -3 -62 -7z"/>
<path d="M1 22780 c1 -63 1 -64 14 -35 13 30 11 71 -6 90 -5 5 -9 -18 -8 -55z"/>
<path d="M25380 22821 c-15 -28 -12 -53 9 -80 17 -22 23 -23 52 -15 38 11 56
45 45 88 -6 23 -11 26 -51 26 -34 0 -47 -5 -55 -19z"/>
<path d="M5048 22803 c-17 -43 -38 -86 -55 -114 -16 -25 -15 -28 5 -54 20 -25
22 -40 22 -139 0 -93 3 -116 20 -143 17 -29 25 -33 64 -33 56 0 66 20 26 57
-29 27 -29 30 -31 140 -2 118 4 139 43 145 33 5 32 25 -2 36 -33 12 -38 20
-43 67 -8 66 -30 83 -49 38z"/>
<path d="M8697 22823 c-2 -4 -7 -21 -11 -38 -4 -16 -18 -47 -32 -67 -28 -43
-29 -56 -9 -82 11 -15 15 -49 15 -135 0 -96 3 -121 19 -144 31 -47 55 -59 107
-51 39 6 48 11 60 38 8 17 19 38 26 47 12 18 5 49 -12 49 -5 0 -10 -8 -10 -19
0 -23 -37 -71 -55 -71 -28 0 -43 45 -45 140 -5 160 -9 148 63 164 36 8 35 26
-1 26 -41 0 -66 32 -72 93 -4 38 -10 53 -22 55 -9 2 -18 -1 -21 -5z"/>
<path d="M26397 22823 c-13 -12 -7 -31 18 -61 25 -30 25 -30 25 -246 0 -175
-3 -221 -15 -239 -13 -20 -13 -26 0 -44 20 -29 58 -36 100 -19 38 16 46 44 20
66 -13 11 -15 51 -14 271 0 142 -2 263 -6 269 -7 11 -118 14 -128 3z"/>
<path d="M4452 22807 c-6 -6 -14 -26 -18 -42 -3 -17 -14 -42 -22 -57 -13 -23
-14 -31 -3 -55 8 -17 15 -76 16 -149 3 -132 15 -167 62 -185 66 -25 92 5 47
52 -29 30 -29 32 -29 147 l0 116 38 20 c35 19 53 41 22 30 -21 -8 -65 44 -65
77 0 54 -23 76 -48 46z"/>
<path d="M28424 22786 c-18 -14 -18 -15 -1 -21 42 -17 48 -55 47 -278 l0 -211
-28 -29 -27 -28 25 -19 c28 -22 118 -28 137 -9 18 18 83 29 83 14 0 -13 39
-23 111 -30 63 -7 96 48 84 136 -7 50 -29 67 -42 32 -17 -45 -60 -84 -107 -98
-66 -20 -89 -19 -111 5 -17 19 -19 40 -18 241 1 185 3 223 17 244 9 14 25 25
36 25 24 0 37 20 19 31 -24 15 -203 11 -225 -5z"/>
<path d="M29348 22789 c-24 -13 -23 -23 7 -67 25 -37 25 -37 25 -272 0 -170 3
-239 12 -248 15 -15 50 -15 83 0 28 13 31 25 10 52 -11 15 -15 48 -15 121 0
73 4 106 15 121 19 25 19 48 0 64 -12 10 -15 34 -13 112 2 89 0 102 -17 114
-22 16 -82 18 -107 3z"/>
<path d="M30190 22788 c-23 -8 -27 -43 -6 -55 31 -19 36 -52 36 -255 0 -159
-3 -208 -15 -228 -8 -14 -17 -31 -21 -38 -23 -45 106 -67 147 -25 l22 21 -23
32 c-22 31 -22 34 -17 274 4 176 2 246 -7 257 -13 18 -85 29 -116 17z"/>
<path d="M30755 22793 c-25 -6 -43 -21 -56 -44 -12 -24 34 -79 66 -79 27 0 65
46 65 78 0 18 -35 54 -50 51 -3 -1 -14 -4 -25 -6z"/>
<path d="M21088 22758 c-9 -7 -23 -36 -32 -65 -10 -28 -24 -57 -32 -63 -19
-16 -18 -29 4 -53 14 -16 17 -39 18 -131 1 -157 1 -163 27 -186 31 -30 118
-24 152 11 29 30 41 92 20 109 -21 18 -32 5 -39 -45 -6 -39 -10 -45 -31 -45
-13 0 -27 5 -31 12 -9 15 -16 224 -9 256 4 17 13 22 36 22 35 0 72 17 64 30
-3 5 -25 12 -49 15 l-43 7 -6 56 c-7 64 -24 89 -49 70z"/>
<path d="M22930 22745 c-5 -14 -10 -35 -10 -45 0 -10 -16 -35 -35 -56 -19 -20
-35 -38 -35 -40 0 -2 12 -15 26 -29 24 -25 25 -29 23 -138 -3 -113 3 -138 39
-179 32 -37 134 -10 162 42 16 29 9 85 -10 85 -10 0 -17 -14 -20 -45 -4 -36
-9 -46 -26 -48 -37 -5 -47 22 -49 135 -2 145 -1 149 45 157 62 10 67 35 8 42
-44 5 -50 13 -57 81 -5 50 -9 58 -28 61 -17 3 -26 -3 -33 -23z"/>
<path d="M18032 22747 c-6 -6 -14 -26 -18 -42 -4 -17 -20 -46 -35 -66 -34 -44
-35 -49 -9 -72 18 -15 20 -29 20 -133 0 -134 13 -174 64 -198 61 -29 143 18
134 77 -3 22 -4 21 -27 -5 -29 -33 -57 -36 -66 -7 -8 26 -14 238 -8 257 3 6
17 12 32 12 30 0 70 24 59 36 -4 4 -25 10 -45 13 -37 6 -38 7 -44 59 -4 28 -9
59 -13 67 -7 18 -30 20 -44 2z"/>
<path d="M1122 22713 c-33 -6 -37 -27 -14 -81 11 -26 23 -84 26 -128 6 -71 5
-87 -13 -120 -19 -35 -19 -39 -4 -56 24 -26 87 -24 107 3 13 20 13 25 -1 52
-17 33 -21 146 -9 232 5 41 3 54 -12 71 -21 24 -47 33 -80 27z"/>
<path d="M1564 22695 c-3 -8 3 -34 15 -58 17 -35 21 -62 21 -145 0 -58 -5
-112 -12 -128 -11 -23 -10 -28 7 -40 24 -18 76 -18 101 0 18 13 18 17 4 48 -9
21 -15 73 -16 145 -3 123 -10 145 -57 173 -38 24 -56 25 -63 5z"/>
<path d="M1813 22703 c-19 -7 -16 -28 12 -69 21 -31 25 -48 26 -118 0 -45 2
-122 5 -172 5 -79 3 -93 -14 -114 -46 -56 24 -94 112 -60 l28 10 -22 36 c-24
37 -29 109 -11 141 6 12 5 26 -5 44 -18 35 -21 196 -5 227 7 13 10 31 6 41 -8
26 -94 48 -132 34z"/>
<path d="M3963 22704 c-19 -8 -16 -35 7 -69 17 -25 20 -47 20 -140 0 -86 -4
-116 -16 -134 -14 -20 -15 -25 -2 -37 8 -8 30 -17 50 -20 28 -5 40 -2 57 15
20 20 20 22 4 62 -13 34 -15 62 -9 164 l6 123 -25 16 c-28 18 -73 28 -92 20z"/>
<path d="M5778 22704 c-14 -14 -8 -46 15 -77 19 -28 22 -44 22 -132 0 -67 -5
-111 -15 -133 -14 -31 -14 -35 4 -48 25 -18 77 -18 102 0 18 14 19 16 2 64
-13 37 -18 81 -18 169 0 81 -4 125 -13 137 -13 18 -87 33 -99 20z"/>
<path d="M7009 22694 c-10 -12 -10 -22 -1 -48 30 -82 32 -193 6 -298 -5 -23
-2 -29 20 -39 18 -9 38 -10 64 -3 30 7 38 14 40 37 2 16 -1 34 -7 41 -7 8 -11
62 -12 132 0 145 -4 161 -40 179 -36 19 -53 19 -70 -1z"/>
<path d="M7234 22696 c-19 -15 -18 -16 9 -64 24 -45 27 -60 27 -145 0 -72 -4
-103 -17 -127 -17 -30 -17 -31 2 -46 28 -21 124 -15 139 8 8 13 5 22 -13 42
-32 34 -43 129 -24 219 7 37 11 73 7 79 -7 11 -82 47 -100 48 -5 0 -19 -6 -30
-14z"/>
<path d="M7925 22690 c-18 -20 -18 -21 2 -43 39 -42 46 -66 39 -136 -11 -117
29 -206 91 -199 32 3 34 19 9 83 -10 27 -15 76 -16 155 0 138 -10 160 -69 160
-25 0 -44 -7 -56 -20z"/>
<path d="M8172 22694 c-28 -19 -28 -32 0 -62 31 -32 42 -164 21 -235 -13 -45
-13 -51 3 -68 24 -27 91 -44 110 -28 19 16 18 38 -7 84 -17 34 -20 56 -18 145
2 139 2 137 -21 160 -24 24 -57 26 -88 4z"/>
<path d="M1330 22682 c0 -10 8 -29 17 -42 26 -37 32 -214 8 -259 -15 -30 -15
-34 0 -51 23 -25 65 -31 93 -14 23 15 29 43 12 60 -12 12 -19 142 -9 202 8 55
-1 76 -44 102 -41 25 -77 26 -77 2z"/>
<path d="M2035 22690 c-21 -5 -24 -8 -10 -9 27 -1 94 -103 97 -145 3 -76 -24
-160 -57 -172 -20 -8 -7 -34 18 -34 24 0 82 43 98 72 20 37 39 121 30 132 -5
6 -11 27 -15 47 -5 26 -20 49 -51 78 -45 42 -56 45 -110 31z"/>
<path d="M2690 22692 c0 -5 12 -31 28 -58 15 -27 27 -62 27 -79 0 -26 3 -30
29 -30 61 0 56 91 -8 139 -36 27 -76 42 -76 28z"/>
<path d="M2874 22689 c-3 -6 2 -23 13 -37 30 -41 33 -56 34 -155 1 -70 -4
-102 -17 -131 -18 -37 -18 -38 1 -52 10 -8 36 -14 57 -14 29 0 41 6 54 25 15
23 15 27 -1 51 -16 25 -20 98 -13 246 0 15 -7 39 -16 53 -13 20 -24 25 -61 25
-24 0 -47 -5 -51 -11z"/>
<path d="M3330 22693 c0 -3 11 -25 24 -48 34 -57 48 -230 22 -269 -9 -14 -16
-32 -16 -40 0 -36 85 -49 114 -17 16 18 16 22 2 49 -12 22 -16 62 -17 147 -1
114 -1 117 -31 151 -23 26 -38 34 -64 34 -19 0 -34 -3 -34 -7z"/>
<path d="M4183 22692 c-9 -6 -6 -20 12 -57 22 -42 25 -62 25 -151 0 -58 -4
-106 -10 -109 -5 -3 -10 -17 -10 -31 0 -43 70 -58 111 -25 24 19 24 20 7 49
-14 24 -18 53 -18 137 0 113 -11 150 -52 179 -25 17 -46 20 -65 8z"/>
<path d="M5560 22690 c-12 -8 -12 -15 3 -58 20 -56 26 -221 8 -264 -6 -15 -8
-34 -5 -43 13 -33 124 -26 124 8 0 8 -6 32 -14 54 -9 24 -14 77 -14 134 1 100
-14 149 -51 169 -24 12 -32 12 -51 0z"/>
<path d="M6182 22688 c-18 -18 -15 -32 18 -63 24 -23 32 -26 45 -15 18 15 20
61 3 78 -7 7 -21 12 -33 12 -12 0 -26 -5 -33 -12z"/>
<path d="M6703 22686 c-42 -15 -92 -65 -93 -93 0 -12 -5 -33 -11 -46 -27 -60
30 -185 103 -223 28 -14 88 -12 88 4 0 3 -18 25 -40 47 -34 34 -42 51 -51 104
-16 88 14 181 58 181 19 0 16 18 -4 28 -11 6 -30 5 -50 -2z"/>
<path d="M7399 22680 l-24 -20 30 -25 c39 -32 69 -32 83 0 10 21 8 27 -15 45
-32 25 -45 25 -74 0z"/>
<path d="M8395 22680 c-4 -12 2 -30 14 -47 24 -33 36 -177 20 -239 -23 -88
-24 -82 17 -93 51 -14 65 -13 88 4 19 15 19 17 3 63 -12 34 -17 82 -18 172 -1
146 -7 160 -75 160 -34 0 -44 -4 -49 -20z"/>
<path d="M9213 22684 c-3 -9 -2 -22 3 -29 42 -57 45 -66 50 -152 7 -133 12
-152 47 -184 35 -32 58 -36 76 -15 9 11 7 22 -9 48 -16 29 -21 58 -25 174 -5
125 -8 141 -26 157 -28 23 -107 24 -116 1z"/>
<path d="M9473 22685 c-28 -20 -29 -33 -2 -61 40 -42 47 -179 14 -265 -3 -8 6
-27 21 -42 22 -24 32 -28 72 -25 56 4 64 22 31 67 -19 26 -21 42 -23 165 -1
148 -6 161 -61 171 -19 4 -38 0 -52 -10z"/>
<path d="M2552 22657 c-86 -89 -65 -265 38 -317 41 -21 130 -28 130 -10 0 8
-25 14 -32 8 -10 -8 -70 42 -87 72 -18 32 -20 50 -16 116 2 44 7 98 11 122 8
51 -1 53 -44 9z"/>
<path d="M3120 22680 c0 -6 7 -27 15 -47 22 -52 29 -230 10 -257 -8 -11 -15
-28 -15 -38 0 -39 84 -52 115 -18 17 19 17 21 0 60 -15 33 -17 58 -13 150 l6
111 -33 24 c-32 25 -85 34 -85 15z"/>
<path d="M3747 22683 c-4 -4 5 -19 20 -35 19 -20 29 -43 33 -76 4 -37 9 -48
25 -50 55 -8 77 62 37 113 -34 43 -95 69 -115 48z"/>
<path d="M6797 22675 c-4 -8 -2 -17 4 -20 5 -4 16 -21 23 -40 19 -45 46 -59
74 -39 29 20 29 64 -1 92 -27 26 -92 30 -100 7z"/>
<path d="M7619 22675 c-51 -27 -80 -79 -86 -153 -7 -82 9 -124 68 -177 37 -33
43 -35 108 -35 54 0 70 3 75 16 10 25 -2 33 -38 27 -50 -8 -101 41 -117 110
-15 70 2 159 37 190 18 15 21 23 12 29 -18 11 -29 9 -59 -7z"/>
<path d="M7715 22680 c-3 -5 3 -17 15 -27 11 -9 25 -32 31 -50 5 -17 19 -35
29 -38 58 -18 84 64 34 104 -28 22 -98 29 -109 11z"/>
<path d="M10046 22674 c-21 -20 -20 -26 7 -60 19 -25 22 -42 25 -142 3 -98 1
-116 -14 -133 -36 -40 28 -73 104 -54 21 5 23 10 17 38 -4 18 -10 93 -15 167
-4 74 -8 143 -9 152 -1 19 -49 48 -80 48 -11 0 -27 -7 -35 -16z"/>
<path d="M10282 22674 c-23 -16 -30 -44 -11 -44 5 0 17 -17 25 -37 15 -34 15
-148 2 -278 l-3 -30 63 -3 c74 -4 83 7 57 71 -14 34 -16 66 -14 167 l4 124
-34 23 c-40 27 -59 29 -89 7z"/>
<path d="M11039 22675 c-11 -12 -41 -15 -129 -16 -113 -1 -114 -1 -142 -31
-34 -37 -37 -94 -9 -161 12 -29 16 -49 10 -58 -5 -8 -6 -38 -3 -67 6 -48 4
-54 -20 -73 -41 -33 -31 -66 35 -115 32 -23 71 -30 103 -18 23 9 1 34 -29 34
-30 0 -55 30 -55 68 0 39 21 46 115 40 71 -4 105 -25 105 -65 0 -26 -53 -65
-76 -56 -8 3 -14 0 -14 -6 0 -13 46 -26 75 -22 11 2 30 14 42 27 12 13 27 24
32 24 6 0 18 12 28 26 16 25 16 28 -2 61 -27 50 -79 73 -164 73 -80 0 -113 12
-132 46 -11 21 -10 27 8 47 18 19 20 31 16 97 -5 67 -3 77 16 94 18 16 25 17
46 8 34 -16 47 -54 43 -127 -3 -55 -1 -60 19 -63 15 -2 29 8 48 33 24 31 27
42 22 85 l-6 49 42 3 c48 3 60 27 31 59 -21 23 -35 24 -55 4z"/>
<path d="M32359 22648 c-12 -23 -30 -54 -41 -68 -18 -24 -18 -28 -3 -64 13
-30 16 -65 14 -145 -3 -96 -1 -110 19 -143 25 -40 39 -48 86 -48 42 0 109 65
104 101 -3 24 -4 24 -34 -9 -59 -64 -84 -29 -85 120 0 88 17 132 56 142 29 7
34 26 7 26 -30 0 -62 37 -62 73 0 31 -15 57 -32 57 -4 0 -17 -19 -29 -42z"/>
<path d="M3605 22646 c-53 -69 -59 -156 -18 -236 15 -29 36 -58 48 -66 32 -21
105 -28 140 -13 l30 13 -43 4 c-50 4 -106 52 -115 98 -9 48 9 183 27 203 19
21 12 31 -20 31 -14 0 -33 -13 -49 -34z"/>
<path d="M9876 22667 c-17 -12 -16 -15 13 -46 36 -39 65 -38 69 2 6 50 -40 75
-82 44z"/>
<path d="M10507 22666 c-17 -13 -17 -16 7 -50 33 -50 47 -210 22 -263 -22 -47
-20 -62 10 -73 27 -11 101 -3 110 11 3 5 -2 29 -11 54 -9 29 -15 81 -15 141 0
104 -14 151 -51 178 -28 19 -48 20 -72 2z"/>
<path d="M9716 22639 c-15 -17 -26 -43 -26 -59 0 -42 52 -98 98 -106 49 -8
119 -49 127 -74 9 -28 -3 -58 -26 -65 -25 -8 -25 -35 1 -35 40 0 90 71 90 128
0 36 -50 89 -92 97 -47 9 -90 26 -110 43 -20 16 -24 57 -8 67 6 3 10 13 10 21
0 25 -37 15 -64 -17z"/>
<path d="M6012 22644 c-54 -37 -6 -135 74 -150 109 -19 156 -85 99 -138 -24
-23 -24 -36 2 -36 21 0 90 68 97 96 15 59 -60 134 -133 134 -47 0 -101 46
-101 87 0 27 -8 29 -38 7z"/>
<path d="M11500 22652 c-30 -10 -50 -36 -50 -67 0 -36 15 -55 46 -55 32 0 45
22 57 99 2 15 -31 30 -53 23z"/>
<path d="M11617 22648 l-28 -10 37 -32 c28 -24 36 -39 35 -61 0 -17 0 -43 0
-60 4 -194 0 -176 41 -202 57 -39 85 -21 104 65 5 26 5 26 -11 7 -16 -20 -16
-20 -31 -1 -10 14 -14 48 -14 114 0 101 -15 150 -54 177 -23 17 -39 18 -79 3z"/>
<path d="M16447 22614 c-28 -15 -28 -29 3 -51 15 -10 37 -63 115 -268 17 -44
28 -61 44 -63 26 -4 61 49 61 93 0 17 5 47 11 68 14 53 5 70 -14 25 -9 -21
-20 -38 -25 -38 -26 0 -84 157 -75 204 4 18 1 31 -8 37 -22 13 -81 10 -112 -7z"/>
<path d="M16696 22617 c-17 -12 -17 -18 -7 -50 7 -20 11 -51 9 -69 -2 -19 2
-33 9 -35 13 -5 17 2 27 47 3 14 21 36 41 49 19 13 35 30 35 37 0 31 -80 46
-114 21z"/>
<path d="M17243 22619 c-40 -11 -41 -22 -8 -61 23 -28 25 -37 25 -138 0 -101
-2 -111 -25 -138 -22 -26 -23 -31 -9 -43 8 -7 39 -14 67 -17 43 -3 55 -1 70
16 18 19 18 22 2 46 -15 22 -17 45 -13 149 3 67 8 129 12 138 14 32 -65 63
-121 48z"/>
<path d="M19175 22619 c-11 -7 -21 -13 -23 -14 -2 -2 8 -20 23 -40 22 -34 25
-47 25 -133 0 -159 31 -215 107 -196 42 10 53 29 24 39 -31 10 -42 70 -38 200
3 77 1 120 -7 130 -15 21 -85 29 -111 14z"/>
<path d="M19417 22623 c-39 -6 -44 -29 -13 -62 24 -25 26 -33 26 -123 0 -65
-5 -108 -16 -134 -15 -37 -15 -38 8 -56 23 -17 90 -24 122 -12 22 8 20 30 -5
55 -19 19 -20 30 -17 166 2 133 1 146 -17 159 -19 14 -33 15 -88 7z"/>
<path d="M19808 22621 c-105 -5 -119 -8 -142 -30 -48 -45 -55 -109 -20 -180
12 -23 12 -34 3 -55 -9 -20 -10 -35 -1 -63 11 -35 10 -39 -18 -68 -17 -17 -30
-40 -30 -52 0 -30 73 -93 108 -93 42 0 72 11 72 26 0 13 -15 19 -65 26 -30 5
-48 47 -31 73 12 17 25 20 100 20 75 0 88 -3 107 -22 20 -20 21 -24 7 -44 -8
-13 -31 -27 -52 -33 -45 -13 -50 -27 -15 -40 38 -13 69 -2 117 42 51 47 53 71
10 117 -27 29 -44 37 -91 45 -32 5 -64 7 -72 4 -25 -10 -86 17 -97 42 -9 20
-8 28 9 47 18 19 20 29 13 77 -11 81 8 120 57 120 33 0 45 -33 41 -113 -3 -63
-1 -72 15 -75 22 -5 58 27 82 72 17 31 17 35 1 66 -20 42 -21 40 12 34 36 -7
72 27 52 51 -7 8 -22 14 -34 13 -11 -1 -74 -4 -138 -7z"/>
<path d="M20281 22621 c-25 -7 -42 -31 -21 -31 46 0 72 -250 30 -303 -26 -33
-25 -41 5 -55 32 -15 59 -15 108 -1 42 11 47 29 17 59 -18 18 -20 33 -20 146
l0 127 -36 33 c-37 35 -42 37 -83 25z"/>
<path d="M20770 22615 c-11 -13 -9 -20 10 -40 19 -20 24 -41 32 -122 9 -111 5
-138 -25 -171 -20 -21 -20 -23 -4 -40 25 -25 118 -24 146 2 20 19 20 19 1 44
-18 22 -20 41 -20 173 0 136 -2 149 -19 159 -30 16 -107 12 -121 -5z"/>
<path d="M21623 22622 c-30 -4 -83 -70 -83 -102 0 -14 12 -41 28 -59 21 -26
41 -36 92 -47 36 -9 75 -25 88 -36 44 -42 16 -98 -49 -98 -41 0 -45 3 -88 58
-39 50 -57 53 -65 12 -3 -16 -9 -43 -12 -59 -8 -42 13 -50 136 -49 114 1 134
9 166 70 41 78 -6 151 -107 167 -58 9 -103 38 -107 70 -3 17 5 25 32 36 48 20
76 12 105 -31 17 -24 31 -34 44 -32 29 4 41 55 22 85 -14 21 -22 22 -98 20
-45 -1 -92 -3 -104 -5z"/>
<path d="M22226 22611 c-30 -21 -36 -32 -36 -69 0 -25 6 -35 25 -44 32 -14 60
9 69 58 4 19 11 34 16 34 4 0 15 3 24 6 24 9 76 -51 76 -87 0 -17 -6 -32 -15
-35 -20 -8 -19 -30 1 -38 14 -6 16 -17 11 -81 -6 -71 -6 -75 20 -94 25 -21 78
-28 99 -13 20 14 47 70 41 86 -9 22 -28 20 -34 -4 -3 -11 -12 -20 -19 -20 -11
0 -14 25 -14 123 0 122 0 123 -29 155 -33 36 -28 34 -135 36 -54 1 -85 -4
-100 -13z"/>
<path d="M23367 22623 c-4 -3 -31 -5 -60 -4 -44 2 -56 -2 -76 -22 -26 -29 -26
-84 1 -101 29 -17 67 11 74 55 8 46 24 54 67 30 42 -23 61 -86 33 -106 -17
-13 -17 -15 0 -39 16 -26 16 -76 -1 -117 -10 -27 51 -81 88 -77 45 4 57 32 28
59 -23 21 -24 27 -18 115 7 104 -2 144 -41 187 -25 26 -78 38 -95 20z"/>
<path d="M24343 22623 c-19 -7 -16 -22 12 -59 23 -30 25 -41 25 -142 0 -96 -2
-111 -20 -127 -28 -25 -25 -42 12 -61 35 -18 102 -14 138 8 26 17 25 28 -5 53
-21 16 -27 31 -31 81 -6 60 8 155 25 182 6 11 14 8 34 -12 31 -31 62 -34 77
-7 32 61 -31 103 -104 70 -19 -9 -29 -8 -47 5 -22 15 -89 21 -116 9z"/>
<path d="M24688 22624 c-27 -8 -28 -30 -2 -66 24 -31 25 -39 22 -139 -2 -85
-7 -111 -20 -126 -25 -28 -22 -52 8 -63 38 -15 81 -12 109 6 29 19 32 36 10
54 -12 10 -15 41 -15 160 0 115 -3 150 -14 159 -16 14 -73 22 -98 15z"/>
<path d="M16106 22586 c-84 -74 -88 -215 -8 -299 41 -43 75 -57 139 -57 55 0
61 3 96 38 37 38 46 65 27 77 -6 3 -25 -10 -44 -29 -26 -28 -41 -36 -67 -36
-79 0 -112 57 -102 181 5 68 10 87 29 106 18 18 27 21 53 13 17 -4 35 -11 40
-15 15 -9 31 -76 25 -102 -13 -49 67 -38 86 12 13 34 -7 82 -48 117 -28 24
-39 26 -111 25 -74 0 -82 -3 -115 -31z"/>
<path d="M16884 22577 c-34 -30 -43 -48 -53 -95 -21 -98 6 -176 78 -226 30
-21 49 -26 100 -26 57 0 64 2 92 32 26 29 39 68 23 68 -4 0 -17 -11 -30 -25
-18 -20 -33 -25 -69 -25 -80 0 -106 44 -101 174 3 99 18 126 70 126 37 0 49
-7 65 -37 16 -31 14 -63 -5 -85 -18 -19 -21 -16 32 -33 23 -7 52 12 69 45 14
28 14 33 -4 67 -39 76 -52 83 -144 80 -80 -2 -83 -3 -123 -40z"/>
<path d="M17442 22612 c-29 -9 -30 -21 0 -36 38 -19 48 -53 48 -167 0 -83 -3
-109 -15 -119 -21 -17 -19 -47 4 -60 41 -22 141 -7 141 21 0 6 -9 22 -20 36
-18 23 -20 41 -20 148 0 122 0 123 -29 154 -29 31 -57 37 -109 23z"/>
<path d="M18517 22609 c-18 -10 -17 -13 10 -41 27 -28 28 -33 31 -146 3 -109
2 -119 -17 -136 -26 -24 -27 -42 -2 -56 30 -15 104 -12 130 6 l22 16 -22 25
c-22 22 -24 34 -26 155 -3 113 -6 134 -24 159 -22 31 -66 39 -102 18z"/>
<path d="M18840 22612 c-71 -25 -119 -126 -105 -220 10 -64 29 -97 75 -131 34
-25 49 -29 107 -29 71 -1 104 11 140 50 81 86 76 216 -12 297 -43 40 -45 40
-117 39 -40 0 -80 -3 -88 -6z m114 -46 c41 -17 56 -55 56 -145 0 -113 -49
-170 -123 -142 -39 15 -57 64 -57 157 0 88 19 131 59 137 14 2 27 5 29 6 1 0
18 -5 36 -13z"/>
<path d="M24982 22599 c-82 -41 -119 -172 -75 -267 30 -66 118 -124 138 -92 3
6 15 10 26 10 31 0 22 19 -18 35 -66 27 -90 120 -57 223 13 39 24 54 50 68 35
19 44 34 20 34 -8 0 -20 2 -28 5 -7 3 -32 -5 -56 -16z"/>
<path d="M25373 22613 c-18 -7 -16 -43 2 -63 11 -12 17 -49 21 -125 6 -100 5
-109 -16 -137 -22 -29 -22 -31 -4 -48 11 -10 35 -22 55 -25 30 -5 41 -2 65 18
l29 25 -20 22 c-18 20 -20 35 -18 166 2 163 -2 175 -65 173 -20 0 -43 -3 -49
-6z"/>
<path d="M25975 22611 c-34 -7 -46 -39 -21 -53 24 -14 36 -77 30 -159 -6 -64
-3 -81 15 -117 23 -44 52 -59 96 -48 27 7 34 31 11 39 -20 8 -29 75 -28 198 0
69 -3 112 -11 122 -15 18 -53 26 -92 18z"/>
<path d="M25636 22567 c-68 -65 -81 -156 -36 -247 39 -76 86 -100 179 -90 53
5 68 11 87 34 46 53 18 93 -29 42 -26 -27 -49 -33 -94 -22 -65 15 -94 146 -53
241 19 44 21 46 57 43 31 -3 38 -8 44 -32 8 -30 36 -66 51 -66 15 0 58 48 58
65 0 9 -12 29 -28 44 -25 26 -34 28 -110 29 l-83 1 -43 -42z"/>
<path d="M26173 22599 c-9 -9 -5 -22 15 -53 36 -57 42 -159 13 -233 l-20 -51
34 -26 c40 -31 84 -33 116 -7 l24 19 -24 26 c-23 24 -24 30 -22 160 2 167 -1
176 -72 176 -29 0 -58 -5 -64 -11z"/>
<path d="M12186 22573 c-8 -16 -26 -39 -40 -52 -34 -32 -43 -77 -21 -102 18
-19 36 -18 94 3 l24 9 -21 15 c-29 20 -40 79 -18 103 18 19 22 51 6 51 -5 0
-16 -12 -24 -27z"/>
<path d="M13603 22585 c4 -8 1 -17 -4 -21 -7 -4 -10 -40 -9 -93 4 -126 3 -130
-37 -167 -30 -27 -34 -36 -24 -48 28 -34 181 -26 181 9 0 8 -16 30 -35 49 -35
35 -35 36 -35 122 0 88 -15 164 -33 164 -5 0 -7 -7 -4 -15z"/>
<path d="M25105 22590 c3 -5 8 -10 11 -10 2 0 4 5 4 10 0 6 -5 10 -11 10 -5 0
-7 -4 -4 -10z"/>
<path d="M26703 22580 c-18 -10 -44 -37 -58 -59 -21 -35 -25 -52 -25 -121 l0
-81 43 -46 44 -46 90 -3 c88 -3 90 -2 125 29 49 44 68 86 68 151 0 67 -27 124
-78 166 -33 27 -44 30 -107 30 -52 0 -78 -5 -102 -20z m138 -34 c46 -40 63
-135 39 -214 -27 -88 -103 -99 -154 -22 -12 18 -16 47 -16 111 l0 88 37 30
c45 37 59 38 94 7z"/>
<path d="M27052 22588 c-13 -13 1 -47 24 -61 11 -6 14 -37 14 -123 0 -150 21
-194 95 -194 35 0 43 26 16 54 -19 20 -21 33 -21 160 0 75 -5 146 -10 157 -8
15 -21 19 -58 19 -27 0 -53 -5 -60 -12z"/>
<path d="M27288 22593 c-23 -6 -23 -27 2 -61 15 -21 19 -44 20 -112 0 -47 -2
-108 -6 -136 -6 -47 -5 -51 22 -69 36 -23 89 -23 115 1 23 20 25 34 4 34 -34
0 -46 44 -45 162 2 157 2 155 -16 172 -15 15 -58 19 -96 9z"/>
<path d="M27525 22559 c-29 -26 -35 -38 -35 -70 0 -52 50 -103 110 -113 58 -9
100 -42 100 -78 0 -18 -6 -31 -17 -35 -30 -10 -42 -24 -36 -39 16 -43 121 19
139 82 13 50 -52 123 -118 131 -41 6 -85 26 -100 48 -14 19 -8 52 12 70 11 10
17 22 14 26 -10 17 -33 9 -69 -22z"/>
<path d="M27671 22579 c-20 -8 -22 -11 -10 -27 53 -69 76 -78 103 -37 16 24
16 27 -1 50 -19 26 -50 31 -92 14z"/>
<path d="M0 22493 l1 -88 19 24 c31 37 34 64 11 110 -12 22 -24 41 -26 41 -3
0 -5 -39 -5 -87z"/>
<path d="M30703 22565 c-28 -20 -29 -36 -3 -60 18 -16 20 -31 20 -136 0 -108
-2 -120 -20 -131 -29 -18 -26 -56 6 -68 42 -16 92 -12 114 10 24 24 25 38 5
64 -16 21 -19 119 -7 211 7 47 -5 97 -26 109 -25 14 -69 15 -89 1z"/>
<path d="M31853 22573 c-20 -8 -15 -44 9 -70 20 -22 22 -32 19 -146 -2 -117
-1 -124 22 -145 12 -12 37 -25 55 -28 28 -6 32 -3 38 20 4 19 1 33 -12 47 -17
19 -19 38 -19 161 0 127 -2 141 -19 154 -19 14 -68 18 -93 7z"/>
<path d="M32078 22569 c-24 -14 -23 -29 7 -69 21 -28 25 -45 25 -103 0 -38 -7
-94 -16 -125 l-17 -56 27 -23 c44 -37 126 -26 126 18 0 11 -10 33 -21 49 -20
27 -21 37 -17 147 3 68 1 127 -4 139 -14 30 -76 43 -110 23z"/>
<path d="M29103 22563 c-20 -7 -15 -30 9 -47 21 -15 22 -23 23 -156 l0 -140
30 -20 c40 -27 67 -25 96 6 23 25 23 26 5 39 -10 8 -23 16 -29 18 -6 2 -10 42
-9 103 3 123 -5 153 -48 182 -32 21 -52 26 -77 15z"/>
<path d="M29902 22556 c-40 -21 -83 -73 -98 -119 -20 -61 -7 -142 32 -198 30
-44 66 -59 144 -59 51 0 58 3 78 30 38 51 28 63 -26 30 -49 -30 -115 -8 -131
44 -8 25 -9 119 -2 194 2 21 40 52 64 52 13 0 34 -11 46 -24 19 -20 22 -33 19
-72 -4 -57 15 -75 56 -56 54 24 54 102 0 153 -20 19 -40 25 -95 29 -39 3 -78
1 -87 -4z"/>
<path d="M30928 22559 c-23 -13 -23 -24 4 -59 28 -39 37 -194 13 -240 -8 -16
-15 -40 -15 -54 0 -44 68 -62 109 -28 20 16 21 22 12 119 -8 93 -7 118 14 210
9 41 -91 79 -137 52z"/>
<path d="M31173 22560 c-22 -9 -33 -50 -15 -50 20 0 32 -57 32 -149 0 -83 -3
-102 -20 -124 -11 -14 -17 -32 -14 -40 8 -22 58 -40 93 -32 46 10 55 26 38 77
-10 29 -13 74 -10 141 3 106 -7 142 -49 171 -25 18 -25 18 -55 6z"/>
<path d="M31381 22552 c-8 -16 -7 -25 8 -44 22 -27 24 -57 22 -255 -1 -136 -2
-143 -27 -172 -14 -17 -23 -34 -20 -39 11 -19 85 -35 117 -26 47 13 58 37 37
75 -22 37 -23 61 -3 99 13 25 13 34 0 78 -22 72 -18 157 10 219 29 64 22 73
-69 80 -57 5 -65 3 -75 -15z"/>
<path d="M31608 22563 c-27 -7 -22 -19 26 -66 36 -34 45 -51 51 -89 8 -54 -9
-110 -51 -165 -28 -37 -30 -49 -8 -57 26 -10 92 32 121 77 67 105 26 256 -80
296 -30 11 -31 12 -59 4z"/>
<path d="M28970 22547 c-13 -7 -29 -25 -34 -40 -9 -24 -6 -31 17 -54 l27 -27
30 29 c25 24 30 36 28 65 -3 40 -26 49 -68 27z"/>
<path d="M29570 22554 c0 -3 14 -24 31 -46 57 -72 59 -190 4 -262 -19 -25 -22
-35 -13 -44 21 -21 46 -13 83 23 64 64 80 140 50 226 -24 66 -70 109 -117 109
-21 0 -38 -3 -38 -6z"/>
<path d="M12558 22479 c-30 -12 -46 -45 -29 -63 17 -16 198 -21 216 -6 19 16
19 45 -1 64 -18 18 -140 21 -186 5z"/>
<path d="M11487 22469 c-30 -17 -69 -89 -63 -114 10 -40 61 -85 95 -85 37 0
50 23 28 48 -25 27 -29 64 -13 109 8 22 12 44 9 47 -9 9 -36 7 -56 -5z"/>
<path d="M15095 22467 c-6 -7 -23 -33 -38 -59 -27 -47 -101 -118 -123 -118 -6
0 -17 -7 -24 -15 -10 -12 -10 -18 0 -30 18 -22 162 -21 184 1 19 19 19 24 1
48 -19 26 -19 75 0 96 9 10 19 34 22 54 6 36 -3 46 -22 23z"/>
<path d="M22296 22461 c-3 -5 -21 -12 -40 -15 -44 -8 -96 -68 -96 -109 0 -82
73 -122 140 -77 13 9 13 12 -3 21 -10 6 -22 21 -27 35 -13 34 16 121 42 127
11 3 17 10 13 16 -8 13 -22 14 -29 2z"/>
<path d="M23250 22436 c-36 -20 -70 -70 -70 -104 0 -35 53 -92 85 -92 38 0 48
23 29 63 -16 34 -16 39 -1 79 10 24 17 49 17 56 0 16 -29 15 -60 -2z"/>
<path d="M160 22415 c-7 -8 -12 -26 -12 -40 0 -34 19 -55 51 -55 36 0 51 17
51 57 0 22 -6 36 -19 43 -28 14 -57 12 -71 -5z"/>
<path d="M5997 22413 c-12 -11 -8 -60 6 -70 17 -15 86 -23 92 -12 4 5 -8 27
-26 49 -30 37 -56 49 -72 33z"/>
<path d="M7806 22391 c-12 -22 -13 -32 -4 -37 13 -8 51 33 45 49 -7 23 -27 17
-41 -12z"/>
<path d="M9702 22399 c-15 -23 -8 -74 11 -86 13 -9 97 -13 97 -6 0 3 -10 18
-22 33 -13 16 -31 40 -41 54 -22 31 -28 32 -45 5z"/>
<path d="M4596 22385 c-3 -9 0 -15 9 -15 8 0 15 7 15 15 0 8 -4 15 -9 15 -5 0
-11 -7 -15 -15z"/>
<path d="M6869 22373 c-13 -16 -12 -17 4 -4 9 7 17 15 17 17 0 8 -8 3 -21 -13z"/>
<path d="M28954 22354 c-48 -50 -48 -100 1 -143 40 -35 39 -35 66 -21 23 13
25 33 3 51 -16 13 -15 34 2 117 6 29 4 32 -16 32 -13 0 -37 -15 -56 -36z"/>
<path d="M15596 22335 c-23 -24 -20 -58 9 -89 28 -30 32 -72 10 -102 -20 -26
-19 -44 3 -44 29 0 50 30 74 105 21 68 21 69 2 104 -15 28 -26 37 -50 39 -19
2 -38 -3 -48 -13z"/>
<path d="M27490 22291 c-22 -54 7 -78 89 -73 35 2 37 9 10 36 -13 14 -33 34
-43 45 -27 29 -41 26 -56 -8z"/>
<path d="M27872 22294 c-27 -19 -30 -71 -4 -90 40 -31 102 0 102 50 0 50 -53
72 -98 40z"/>
<path d="M1441 21904 c-26 -33 -26 -42 -2 -73 17 -22 23 -23 52 -15 48 14 61
54 29 89 -30 32 -53 32 -79 -1z"/>
<path d="M1993 21920 c-28 -11 -30 -41 -5 -64 32 -28 40 -85 41 -285 1 -183 0
-196 -19 -216 -18 -20 -19 -23 -5 -35 23 -19 97 -24 119 -8 17 14 17 16 1 64
-13 38 -16 79 -14 179 2 147 -9 346 -20 358 -13 13 -74 17 -98 7z"/>
<path d="M5621 21917 c-6 -8 -14 -27 -17 -44 -5 -24 -1 -33 20 -46 14 -9 32
-17 41 -17 20 0 65 44 65 65 0 42 -82 74 -109 42z"/>
<path d="M8409 21899 c-28 -28 -22 -69 14 -89 54 -30 107 29 76 86 -16 30 -61
32 -90 3z"/>
<path d="M9053 21913 c-36 -7 -42 -50 -10 -77 l26 -21 6 -250 c4 -137 9 -253
12 -257 8 -15 61 -8 83 10 18 15 21 22 13 38 -17 31 -22 203 -9 249 10 32 10
46 0 70 -7 17 -13 71 -14 122 0 92 0 93 -30 108 -29 15 -36 16 -77 8z"/>
<path d="M9498 21899 c-26 -15 -22 -36 12 -71 20 -20 30 -40 31 -61 0 -18 2
-45 4 -62 1 -16 4 -98 6 -182 2 -134 1 -156 -16 -187 -23 -43 -15 -55 42 -63
71 -9 102 25 67 75 -13 19 -15 60 -15 271 l2 249 -27 21 c-28 22 -78 27 -106
10z"/>
<path d="M11848 21873 c-28 -7 -33 -42 -9 -64 24 -23 36 -60 33 -109 -1 -19
-1 -71 -1 -115 3 -210 2 -242 -8 -273 -11 -30 -10 -34 14 -49 13 -9 49 -19 79
-21 68 -6 78 11 39 67 l-26 39 -4 249 c-4 240 -4 248 -26 265 -20 17 -54 21
-91 11z"/>
<path d="M15025 21843 c-44 -10 -60 -67 -27 -96 23 -21 56 -22 87 -1 31 20 32
56 3 84 -22 20 -27 21 -63 13z"/>
<path d="M6323 21823 c-7 -2 -13 -17 -13 -32 0 -15 -14 -46 -32 -70 -30 -41
-30 -44 -16 -69 11 -19 17 -63 20 -149 5 -134 15 -160 68 -188 26 -13 35 -14
57 -3 36 17 40 36 10 47 -33 13 -44 49 -51 163 -5 96 -5 98 21 122 26 25 26
26 9 45 -10 11 -24 46 -30 78 -11 56 -19 66 -43 56z"/>
<path d="M1715 21783 c-8 -21 -22 -51 -30 -66 -18 -34 -19 -61 -4 -88 5 -11
11 -74 13 -140 2 -103 6 -124 23 -147 16 -21 28 -27 58 -26 20 1 44 9 53 17
14 15 13 17 -11 26 -39 15 -47 40 -47 154 0 90 3 108 21 131 11 14 28 26 37
26 10 1 3 7 -13 14 -30 13 -49 49 -57 110 -5 35 -28 29 -43 -11z"/>
<path d="M825 21701 c-24 -6 -30 -11 -27 -31 1 -14 10 -32 20 -40 30 -25 61
-84 68 -128 4 -23 10 -45 15 -47 4 -3 11 -26 15 -51 8 -53 25 -74 63 -74 26 0
29 4 35 42 6 34 3 47 -14 68 -40 49 -70 128 -70 185 0 44 -4 57 -22 69 -24 17
-35 18 -83 7z"/>
<path d="M4076 21698 c-23 -13 -20 -28 12 -61 25 -26 27 -35 30 -129 4 -89 1
-106 -17 -139 l-22 -38 26 -17 c29 -19 112 -15 126 7 4 8 -2 30 -18 57 -24 41
-25 49 -20 145 3 56 8 111 12 122 4 14 -1 24 -17 34 -31 20 -92 30 -112 19z"/>
<path d="M5298 21703 c-28 -7 -30 -35 -7 -67 31 -41 41 -212 15 -251 -36 -55
-14 -85 61 -85 43 0 54 4 64 21 9 18 7 27 -11 51 -18 24 -22 44 -23 107 0 42
2 101 6 131 7 50 6 56 -14 69 -29 17 -70 28 -91 24z"/>
<path d="M5623 21700 c-28 -12 -29 -34 -3 -67 17 -22 20 -41 20 -138 0 -99 -2
-114 -20 -130 -27 -25 -25 -44 6 -55 42 -16 89 -12 109 10 17 19 17 23 3 54
-13 26 -16 61 -14 160 2 105 0 131 -13 146 -20 24 -59 32 -88 20z"/>
<path d="M7261 21701 c-43 -12 -48 -35 -15 -73 31 -35 96 -175 113 -243 11
-44 43 -85 65 -85 22 0 46 46 46 87 0 27 -8 45 -29 68 -39 40 -82 145 -75 182
3 16 0 35 -8 45 -15 19 -63 29 -97 19z"/>
<path d="M1060 21693 c-8 -2 -20 -6 -27 -8 -17 -5 20 -118 57 -174 27 -39 36
-67 31 -95 -1 -4 2 -13 7 -20 5 -6 12 -23 16 -37 4 -18 15 -29 32 -33 35 -9
43 1 51 62 5 49 4 52 -20 61 -14 6 -33 20 -41 33 -28 43 -48 119 -41 155 9 51
-15 73 -65 56z"/>
<path d="M1234 21686 c-3 -8 6 -36 19 -62 l24 -48 32 34 c36 39 39 65 12 80
-28 15 -81 12 -87 -4z"/>
<path d="M1433 21693 c-19 -7 -16 -37 8 -77 27 -47 29 -194 3 -248 -23 -50
-14 -68 35 -68 75 0 114 33 80 67 -7 7 -14 69 -18 151 -5 118 -9 143 -25 161
-18 20 -55 26 -83 14z"/>
<path d="M2240 21690 c-13 -8 -12 -15 14 -110 9 -30 16 -86 16 -124 0 -58 -4
-74 -22 -93 -21 -22 -21 -23 -2 -44 15 -17 27 -20 63 -16 23 3 50 12 59 21 15
15 15 19 -3 49 -15 25 -20 53 -21 132 -1 119 -18 167 -61 183 -17 5 -36 6 -43
2z"/>
<path d="M3152 21688 c-16 -16 -15 -33 4 -49 28 -23 33 -55 40 -220 6 -153 5
-162 -15 -190 -11 -15 -21 -35 -21 -43 0 -34 88 -49 126 -22 17 13 18 18 6 48
-24 58 -25 69 -12 107 10 31 10 47 -2 87 -15 53 -16 141 -3 218 7 42 5 51 -10
62 -23 17 -97 18 -113 2z"/>
<path d="M3617 21693 c-12 -12 -7 -34 13 -60 18 -24 20 -41 20 -202 0 -137 -3
-182 -15 -205 -8 -15 -15 -34 -15 -42 0 -33 95 -47 124 -18 20 19 20 43 1 68
-19 25 -19 75 -1 95 12 14 12 22 0 56 -19 55 -19 193 1 240 8 21 15 39 15 40
0 2 -14 11 -32 19 -31 16 -99 22 -111 9z"/>
<path d="M3841 21691 c-12 -8 -9 -16 17 -46 60 -68 76 -139 47 -218 -7 -22
-23 -46 -34 -54 -41 -28 -19 -59 29 -41 35 13 59 37 82 82 17 33 20 53 16 113
-5 67 -8 77 -39 109 -32 34 -78 64 -96 64 -4 0 -14 -4 -22 -9z"/>
<path d="M4248 21689 c-26 -14 -22 -31 13 -62 25 -21 35 -25 50 -17 24 13 25
52 1 73 -21 19 -39 21 -64 6z"/>
<path d="M4592 21692 c-32 -9 -32 -25 0 -40 46 -22 72 -69 76 -138 5 -68 -12
-114 -55 -150 -26 -22 -24 -44 3 -44 29 0 104 61 119 97 38 91 -4 226 -85 268
-16 8 -30 15 -32 14 -2 -1 -13 -4 -26 -7z"/>
<path d="M4807 21688 c-2 -7 8 -31 22 -52 25 -38 26 -46 29 -212 3 -163 2
-174 -17 -193 -24 -24 -27 -44 -7 -60 22 -18 81 -25 105 -12 25 14 27 38 6 77
-18 36 -19 73 -1 97 12 15 12 25 0 64 -18 61 -18 200 1 233 20 35 19 37 -15
55 -35 18 -117 20 -123 3z"/>
<path d="M5037 21682 c-16 -18 -16 -19 9 -32 42 -23 74 -88 74 -151 0 -45 -6
-63 -35 -108 -19 -29 -33 -57 -29 -62 18 -31 98 25 134 93 38 73 12 193 -54
243 -45 34 -78 40 -99 17z"/>
<path d="M5454 21690 c-45 -18 -41 -31 24 -77 21 -14 24 -14 42 2 26 24 25 50
-2 69 -25 18 -33 19 -64 6z"/>
<path d="M6017 21693 c-13 -12 -7 -38 11 -54 15 -13 20 -37 26 -120 3 -58 4
-119 0 -135 -5 -27 -2 -34 24 -53 39 -27 78 -27 93 0 9 17 7 25 -9 42 -17 19
-21 39 -24 133 -4 123 -14 151 -69 178 -36 18 -43 19 -52 9z"/>
<path d="M7502 21688 c-7 -7 -12 -19 -12 -29 0 -25 21 -79 31 -79 13 0 89 76
89 88 0 28 -85 43 -108 20z"/>
<path d="M8056 21678 c-14 -20 -14 -24 3 -43 34 -38 41 -63 41 -160 0 -73 -4
-104 -17 -125 -14 -24 -14 -31 -4 -44 19 -23 118 -22 143 1 18 16 18 17 -8 44
-25 26 -27 35 -28 116 -1 48 1 110 4 138 5 49 5 49 -35 72 -51 29 -80 29 -99
1z"/>
<path d="M2927 21679 c-18 -10 -18 -12 -1 -30 18 -20 37 -181 27 -233 -9 -45
5 -75 42 -91 64 -26 79 -1 49 85 -8 24 -14 60 -13 80 6 104 0 131 -35 166 -37
37 -42 39 -69 23z"/>
<path d="M3370 21679 c0 -6 19 -33 42 -60 35 -41 42 -58 46 -102 4 -46 -1 -62
-29 -118 -19 -35 -35 -67 -37 -71 -6 -14 21 -8 64 12 108 53 113 252 7 324
-38 26 -93 35 -93 15z"/>
<path d="M3780 21679 c0 -5 5 -7 10 -4 6 3 10 8 10 11 0 2 -4 4 -10 4 -5 0
-10 -5 -10 -11z"/>
<path d="M4482 21675 c-71 -39 -104 -98 -103 -187 0 -73 21 -110 84 -149 38
-23 52 -27 67 -19 26 14 25 18 -4 41 -39 31 -56 80 -56 163 0 64 4 83 25 116
35 55 33 60 -13 35z"/>
<path d="M6615 21648 c-34 -34 -44 -53 -49 -91 -21 -138 52 -244 169 -248 59
-2 104 18 134 60 21 29 27 51 15 51 -4 0 -24 -16 -45 -35 -50 -45 -91 -47
-139 -7 -32 28 -34 32 -40 118 -7 100 4 148 39 159 25 8 27 20 5 29 -31 12
-47 5 -89 -36z"/>
<path d="M6777 21684 c-12 -12 -8 -37 10 -56 9 -10 19 -38 22 -61 7 -47 40
-73 73 -56 56 30 4 155 -72 174 -14 3 -29 3 -33 -1z"/>
<path d="M8396 21674 c-20 -20 -21 -18 9 -62 22 -33 25 -47 25 -129 0 -74 -4
-101 -20 -130 -18 -34 -18 -39 -5 -53 19 -18 110 -19 127 -2 9 9 8 23 -5 59
-13 36 -17 80 -17 174 0 109 -2 128 -18 142 -23 21 -76 22 -96 1z"/>
<path d="M2781 21671 c-17 -5 -28 -17 -34 -41 -7 -30 -6 -37 13 -52 28 -23 31
-23 59 3 17 16 21 30 19 57 -3 39 -14 46 -57 33z"/>
<path d="M5865 21656 c-9 -13 -15 -37 -13 -53 2 -22 9 -29 30 -31 21 -3 30 3
41 25 8 15 17 39 18 53 4 22 0 25 -28 28 -25 2 -35 -2 -48 -22z"/>
<path d="M7678 21659 c-35 -26 -38 -73 -8 -89 26 -14 57 -5 64 18 15 59 16 76
4 83 -19 13 -30 10 -60 -12z"/>
<path d="M7804 21669 c-4 -7 1 -16 9 -21 39 -21 49 -71 47 -240 0 -62 2 -68
27 -86 43 -29 61 -33 78 -15 17 17 17 19 -10 93 -10 26 -16 68 -14 100 4 95 0
118 -27 149 -21 25 -34 31 -64 31 -21 0 -42 -5 -46 -11z"/>
<path d="M8220 21665 c-17 -21 -8 -38 33 -60 35 -19 37 -19 56 0 26 22 26 37
3 58 -23 21 -75 22 -92 2z"/>
<path d="M8646 21645 c-25 -37 -21 -73 10 -87 35 -16 54 -2 70 52 15 50 9 60
-37 60 -17 0 -32 -9 -43 -25z"/>
<path d="M8796 21661 c-4 -5 6 -23 20 -41 25 -30 27 -37 29 -160 2 -126 3
-130 27 -150 31 -24 86 -27 95 -4 3 8 -4 35 -16 58 -17 35 -21 61 -21 137 0
96 -9 125 -48 157 -18 14 -78 16 -86 3z"/>
<path d="M9280 21660 c-12 -8 -9 -15 18 -42 70 -74 75 -201 10 -287 -40 -53
13 -56 69 -3 56 51 80 130 62 205 -21 90 -108 159 -159 127z"/>
<path d="M10282 21654 c-12 -8 -22 -18 -22 -22 0 -4 19 -22 42 -40 47 -36 68
-30 68 19 0 27 -30 59 -55 59 -6 0 -21 -7 -33 -16z"/>
<path d="M9790 21634 c-62 -53 -81 -131 -54 -219 31 -96 91 -141 188 -140 29
0 43 6 54 23 14 22 14 22 -40 22 -44 0 -59 4 -75 23 -30 31 -55 96 -47 121 4
11 7 47 8 79 1 49 5 61 25 76 13 10 21 23 17 30 -12 19 -43 12 -76 -15z"/>
<path d="M9906 21652 c-17 -8 -17 -10 10 -30 16 -12 34 -26 41 -32 6 -5 15
-30 18 -55 7 -41 10 -45 36 -45 24 0 30 5 37 33 10 37 6 52 -28 95 -27 34 -77
49 -114 34z"/>
<path d="M11145 21640 c-17 -19 -17 -21 14 -55 31 -35 31 -37 31 -141 0 -74
-4 -114 -15 -134 -13 -26 -13 -30 1 -44 25 -25 134 -18 134 9 0 6 -7 26 -16
44 -16 33 -22 183 -9 255 6 35 1 44 -37 69 -36 23 -81 22 -103 -3z"/>
<path d="M10155 21640 c-28 -11 -61 -50 -69 -82 -5 -22 0 -32 35 -62 23 -19
55 -38 73 -42 47 -10 104 -42 116 -64 14 -27 4 -57 -26 -76 -33 -22 -30 -34 7
-34 51 0 117 79 105 126 -11 42 -64 93 -104 99 -115 20 -172 74 -126 120 20
20 16 25 -11 15z"/>
<path d="M10745 21616 c-21 -27 -24 -38 -16 -59 12 -30 42 -42 69 -28 26 14
49 101 30 112 -27 18 -57 9 -83 -25z"/>
<path d="M10887 21642 c-16 -7 -13 -11 18 -39 38 -34 37 -24 35 -229 0 -57 2
-64 31 -88 43 -36 83 -33 87 7 2 16 -3 36 -11 45 -11 13 -16 48 -19 135 l-3
119 -33 29 c-32 29 -67 36 -105 21z"/>
<path d="M11381 21634 l-23 -16 29 -30 c27 -28 28 -34 31 -143 3 -87 0 -120
-12 -142 -21 -41 -6 -53 63 -53 80 0 89 9 61 55 -20 32 -23 53 -26 156 -4 129
-15 162 -61 180 -32 12 -35 12 -62 -7z"/>
<path d="M11661 21601 c-49 -49 -65 -97 -58 -173 10 -107 83 -185 162 -172 63
10 75 21 32 29 -44 8 -81 49 -97 103 -22 80 -3 171 43 204 28 20 29 22 11 35
-29 21 -52 15 -93 -26z"/>
<path d="M12435 21620 c-41 -17 -87 -77 -96 -127 -16 -80 0 -143 50 -196 39
-43 74 -57 138 -57 57 0 60 1 91 42 21 27 28 44 21 47 -7 2 -19 -6 -28 -17
-20 -25 -69 -36 -103 -23 -38 14 -70 65 -69 109 0 20 0 63 0 95 0 52 3 61 31
87 30 28 30 29 11 39 -22 12 -20 12 -46 1z"/>
<path d="M12531 21616 c-9 -11 -7 -18 12 -33 37 -28 50 -61 43 -104 -6 -39 -6
-39 27 -39 78 0 88 82 17 152 -40 40 -78 49 -99 24z"/>
<path d="M12735 21616 c-17 -12 -14 -17 45 -77 34 -35 69 -79 77 -99 8 -19 30
-49 48 -66 23 -21 36 -45 40 -70 9 -56 18 -68 59 -77 42 -10 96 7 96 30 0 8
-13 25 -28 38 -42 35 -112 129 -121 162 -4 15 -17 33 -30 39 -32 16 -50 45
-51 80 0 16 -5 35 -12 42 -16 16 -100 15 -123 -2z"/>
<path d="M12978 21623 c-9 -2 -20 -12 -23 -22 -6 -21 10 -71 24 -71 19 0 111
53 111 64 0 31 -54 45 -112 29z"/>
<path d="M13166 21614 c-20 -20 -20 -21 7 -54 22 -26 24 -40 31 -187 7 -177 3
-218 -28 -251 -21 -23 -21 -24 -2 -38 25 -18 126 -19 150 -1 17 12 17 15 -8
51 -29 44 -34 91 -10 117 13 14 13 21 3 41 -18 33 -24 207 -9 252 13 41 36 46
95 22 93 -39 109 -194 28 -278 -27 -29 -26 -58 4 -58 59 0 143 114 143 194 0
56 -40 138 -84 171 -36 27 -37 27 -110 16 -62 -9 -81 -8 -110 4 -46 19 -81 19
-100 -1z"/>
<path d="M13627 21609 c-16 -10 -15 -13 13 -45 30 -34 30 -36 30 -146 0 -93
-3 -116 -20 -143 -16 -25 -17 -35 -8 -42 22 -17 68 -24 115 -17 53 8 66 29 33
56 -29 24 -40 83 -34 184 6 117 15 133 51 96 27 -28 48 -32 72 -16 23 17 27
44 9 62 -17 17 -84 15 -102 -4 -15 -14 -19 -13 -45 5 -31 22 -85 27 -114 10z"/>
<path d="M14993 21608 c-28 -13 -29 -32 -4 -57 35 -35 41 -239 8 -292 -10 -17
-9 -22 7 -35 26 -19 86 -18 114 2 23 16 23 16 5 42 -15 23 -18 51 -20 172 -1
80 -2 148 -2 151 -1 9 -50 29 -69 28 -9 0 -27 -5 -39 -11z"/>
<path d="M14011 21586 c-50 -35 -76 -92 -76 -166 1 -78 18 -115 76 -160 45
-37 114 -50 162 -31 45 17 35 41 -19 41 -60 0 -82 13 -105 63 -14 33 -17 57
-13 112 8 100 11 110 39 123 51 24 115 -35 115 -105 0 -28 4 -33 23 -33 30 0
57 29 57 61 0 31 -32 84 -62 102 -37 24 -160 19 -197 -7z"/>
<path d="M14465 21595 c-16 -7 -23 -14 -14 -14 8 -1 30 -12 49 -26 43 -32 58
-32 66 0 12 50 -37 70 -101 40z"/>
<path d="M14803 21603 c-15 -5 -18 -33 -4 -33 4 0 20 -12 34 -26 33 -33 61
-28 65 11 5 44 -44 69 -95 48z"/>
<path d="M15265 21569 c-91 -84 -85 -254 10 -319 39 -27 52 -30 121 -30 l77 0
42 43 c58 58 81 134 61 201 -16 52 -55 109 -89 128 -12 7 -58 13 -101 14 -79
1 -80 0 -121 -37z m182 -31 c28 -26 41 -88 33 -165 -9 -98 -65 -141 -129 -101
-38 25 -52 66 -52 162 -1 88 15 122 58 129 39 5 64 -2 90 -25z"/>
<path d="M15630 21595 c-10 -12 -7 -20 14 -46 25 -29 26 -36 26 -148 0 -90 -4
-122 -16 -139 -24 -35 -3 -52 61 -52 70 0 84 16 60 70 -14 32 -16 56 -12 137
4 54 9 112 12 128 6 26 2 32 -23 48 -37 21 -105 22 -122 2z"/>
<path d="M16262 21600 c-46 -11 -48 -16 -14 -34 17 -9 33 -24 37 -35 9 -28 33
-33 55 -11 26 26 26 66 1 80 -22 11 -32 11 -79 0z"/>
<path d="M14364 21590 c-31 -12 -64 -59 -64 -91 0 -38 59 -85 133 -106 62 -17
97 -49 97 -89 0 -26 -9 -34 -57 -45 -44 -9 -72 3 -98 43 -28 43 -53 57 -65 38
-12 -18 -13 -80 -2 -97 5 -7 45 -13 110 -15 92 -2 103 0 116 17 8 11 26 34 40
50 30 34 30 34 15 72 -16 44 -59 83 -99 89 -19 3 -51 13 -70 22 -58 28 -69
102 -15 102 15 0 24 4 20 10 -7 12 -32 12 -61 0z"/>
<path d="M14690 21593 c-28 -10 -60 -56 -60 -84 0 -42 53 -98 100 -105 56 -9
112 -44 121 -76 10 -39 -9 -59 -63 -65 -45 -5 -48 -4 -88 38 -39 42 -41 43
-55 25 -22 -29 -18 -63 8 -80 12 -7 62 -16 113 -20 l91 -6 31 49 c37 56 40 93
12 138 -18 31 -31 37 -121 57 -43 10 -79 44 -79 77 0 25 4 29 26 29 16 0 24 5
22 13 -5 13 -35 19 -58 10z"/>
<path d="M15852 21592 c-10 -7 -10 -11 3 -22 35 -29 45 -67 45 -173 0 -74 -4
-113 -15 -133 -13 -26 -13 -30 2 -41 23 -17 105 -16 128 1 19 14 19 15 0 36
-17 19 -21 41 -25 150 -4 110 -8 133 -26 157 -16 21 -31 29 -60 31 -21 1 -45
-2 -52 -6z"/>
<path d="M16105 21569 c-40 -36 -45 -68 -17 -114 21 -34 43 -46 125 -71 61
-18 77 -35 77 -82 0 -21 -7 -32 -25 -40 -44 -20 -67 -14 -112 33 -23 25 -49
45 -57 45 -19 0 -34 -86 -17 -103 12 -12 177 -23 215 -13 31 8 76 81 76 124 0
47 -52 102 -96 102 -61 0 -134 49 -134 89 0 6 17 18 37 26 30 13 35 18 23 25
-27 17 -59 10 -95 -21z"/>
<path d="M2760 21472 c-41 -41 -50 -74 -30 -113 16 -28 61 -48 88 -38 26 10
27 17 8 54 -10 19 -13 44 -9 75 8 65 -8 71 -57 22z"/>
<path d="M5878 21491 c-13 -11 -32 -35 -42 -53 -17 -31 -17 -38 -5 -63 20 -40
62 -69 88 -60 24 7 27 31 7 69 -8 16 -12 44 -9 70 6 51 -6 63 -39 37z"/>
<path d="M7695 21491 c-26 -11 -51 -39 -63 -71 -23 -61 64 -150 105 -109 8 8
7 24 -4 61 -10 34 -11 58 -5 76 9 27 6 53 -6 51 -4 0 -16 -4 -27 -8z"/>
<path d="M8672 21484 c-41 -28 -63 -94 -46 -138 10 -25 67 -56 92 -49 27 7 27
9 3 56 -16 31 -17 44 -9 77 10 39 6 70 -9 70 -5 0 -19 -7 -31 -16z"/>
<path d="M10745 21437 c-56 -56 -44 -126 26 -162 22 -12 34 -13 49 -5 24 13
25 23 4 55 -11 17 -15 41 -12 82 2 49 0 58 -15 61 -10 2 -32 -11 -52 -31z"/>
<path d="M1870 21420 c0 -5 5 -10 10 -10 6 0 10 5 10 10 0 6 -4 10 -10 10 -5
0 -10 -4 -10 -10z"/>
<path d="M10097 21393 c-11 -10 -8 -91 3 -98 15 -9 110 -19 110 -11 0 4 -18
31 -40 61 -38 52 -57 64 -73 48z"/>
<path d="M12769 21312 c-20 -15 -45 -32 -55 -39 -17 -10 -17 -13 -4 -27 25
-26 92 -31 119 -9 20 17 23 24 16 61 -8 50 -23 53 -76 14z"/>
<path d="M16466 21308 c-22 -31 -20 -64 4 -88 26 -26 46 -25 75 5 30 29 32 58
5 85 -27 27 -65 26 -84 -2z"/>
<path d="M17739 20554 l-24 -26 -1 -1256 c-1 -1168 0 -1262 16 -1327 20 -78
19 -83 -16 -108 -21 -16 -27 -17 -41 -5 -13 10 -152 13 -732 15 -1603 4 -3664
14 -3791 18 -74 3 -290 7 -480 10 -190 2 -505 7 -700 10 -195 2 -508 7 -695
10 -187 3 -506 7 -710 10 -203 3 -512 7 -685 10 -493 8 -1158 15 -1860 20
-2716 20 -3179 25 -3228 31 -83 10 -118 -37 -106 -144 6 -59 9 -65 43 -87 l36
-24 575 -6 c316 -3 769 -7 1005 -10 237 -3 635 -7 885 -10 800 -8 1376 -15
1725 -20 187 -3 491 -8 675 -10 184 -3 477 -7 650 -10 173 -2 488 -7 700 -10
696 -9 1081 -15 1340 -20 886 -16 5181 -29 5291 -15 48 5 71 4 92 -7 37 -19
40 -30 27 -100 -12 -64 -13 -279 -5 -1393 5 -720 9 -845 24 -865 5 -5 11 -21
14 -35 5 -22 2 -28 -23 -37 -32 -12 -43 -11 -128 6 -37 7 -797 10 -2525 9
-1360 -1 -2679 2 -2932 5 -432 6 -1023 13 -2130 22 -258 3 -657 7 -885 10
-228 2 -586 5 -795 5 -209 -1 -384 -1 -390 -1 -5 0 -217 3 -470 5 -253 3 -687
7 -965 10 -1562 17 -1707 17 -1714 1 -3 -8 -16 -15 -29 -15 -39 0 -47 -18 -47
-104 0 -139 -34 -130 499 -132 245 -1 709 -5 1031 -8 1008 -10 1764 -16 2695
-21 957 -5 2561 -16 2885 -20 206 -2 4262 -16 5190 -17 300 -1 577 2 616 7 60
6 73 5 88 -10 15 -15 16 -26 9 -64 -4 -25 -8 -555 -8 -1178 l0 -1131 24 -26
c20 -21 22 -28 11 -41 -16 -19 -6 -32 13 -17 26 22 57 -24 57 -87 0 -22 -5
-62 -11 -90 -14 -67 -36 -71 -94 -21 -43 37 -96 60 -140 60 -11 0 -27 4 -35 9
-8 6 -18 7 -24 4 -11 -7 -72 -16 -106 -14 -14 0 -101 1 -195 0 -325 0 -348 1
-361 12 -9 7 -19 7 -34 -1 -13 -7 -60 -11 -113 -10 -593 10 -532 7 -518 24 9
11 70 13 334 10 177 -2 337 -4 355 -5 100 -3 300 0 507 6 236 7 278 14 295 46
6 10 18 19 28 19 30 0 -18 25 -78 40 -44 11 -198 13 -800 13 -2234 -4 -4481
-3 -5040 1 -1940 15 -2741 18 -4765 20 l-2230 3 -28 -25 c-25 -24 -27 -31 -27
-108 l0 -82 44 -22 c51 -24 -15 -24 5151 -34 1485 -4 2786 -8 2890 -10 105 -3
1230 -6 2500 -7 1710 -1 2317 2 2339 10 25 10 31 9 53 -15 19 -20 23 -33 18
-53 -23 -93 -23 -125 -11 -1661 5 -527 7 -579 24 -622 10 -27 25 -54 34 -60
37 -30 47 -61 43 -131 -2 -38 -9 -75 -16 -83 -15 -19 -58 -18 -80 2 -9 8 -51
30 -94 49 -66 28 -74 34 -53 40 12 4 30 13 38 21 9 7 46 23 83 34 72 22 91 37
55 44 -117 22 -251 25 -933 20 -1138 -7 -3380 -6 -3965 3 -289 4 -1144 8
-1900 8 -1245 0 -1796 -4 -3055 -21 -225 -3 -520 -5 -655 -4 -135 1 -270 1
-300 1 -96 0 -1534 -12 -1555 -13 -11 0 -136 2 -278 5 l-257 6 -49 -24 c-27
-14 -51 -31 -54 -38 -2 -6 -2 -45 2 -85 6 -59 11 -77 33 -98 l25 -26 414 1
c958 3 2186 11 2489 16 878 13 1713 19 2815 17 4471 -5 7037 -2 7095 7 89 15
106 8 113 -40 3 -22 1 -55 -4 -73 -7 -26 -7 -2073 0 -2156 1 -8 -1 -87 -5
-176 l-6 -160 36 -32 c20 -18 47 -33 59 -33 34 -2 61 2 72 11 9 7 227 121 295
154 14 7 39 20 55 28 17 9 55 28 85 43 30 15 62 31 70 36 8 5 29 16 45 24 17
9 37 19 45 24 8 5 60 31 115 58 171 85 289 144 310 155 11 6 49 27 85 45 36
19 72 38 80 43 8 5 42 21 75 36 33 15 86 43 117 61 31 18 60 33 66 33 18 0
236 122 289 162 51 39 65 66 29 60 -16 -3 -20 7 -16 43 2 21 57 74 77 75 7 0
27 9 45 20 38 23 96 26 123 6 18 -13 17 -14 -7 -47 -18 -24 -26 -46 -25 -74 0
-66 -27 -155 -48 -155 -6 0 -24 14 -38 30 -15 17 -31 30 -35 30 -27 0 -31
-132 -27 -740 3 -344 7 -947 10 -1340 3 -393 5 -865 6 -1048 0 -316 4 -374 28
-466 5 -21 7 -44 5 -50 -8 -20 -45 -38 -57 -28 -7 5 -23 12 -37 16 -47 14
-2737 26 -3230 14 -379 -8 -363 -9 -374 2 -5 5 -4 48 3 102 6 51 12 176 13
278 3 176 1 187 -21 232 -32 65 -75 91 -138 83 -27 -3 -66 -12 -88 -20 -22 -8
-58 -15 -80 -17 l-40 -3 3 90 c2 50 10 162 18 250 27 293 28 303 14 320 -20
24 -42 18 -87 -23 -58 -51 -174 -190 -232 -276 -81 -121 -200 -322 -235 -398
-18 -40 -52 -112 -74 -159 -53 -112 -118 -309 -127 -385 -9 -77 -28 -108 -62
-99 -14 3 -318 5 -676 4 -359 -1 -692 -1 -741 1 -88 2 -89 2 -118 -31 -29 -32
-30 -36 -26 -106 4 -64 9 -78 34 -104 l28 -30 996 6 c547 3 1113 8 1257 10
161 3 264 1 268 -5 3 -5 1 -46 -6 -90 -14 -88 -4 -130 29 -130 35 0 42 21 42
122 0 93 1 99 23 106 19 6 1690 8 3139 3 251 -1 478 1 505 5 66 8 76 -4 63
-82 -10 -58 -11 -170 -5 -519 2 -99 6 -481 9 -850 4 -368 9 -701 10 -740 4
-75 33 -176 53 -182 16 -6 53 69 53 107 0 20 5 30 15 30 8 0 15 -6 16 -12 0
-7 2 -33 5 -58 3 -25 5 -83 4 -129 0 -127 6 -124 -215 -116 -206 8 -222 8
-405 3 -77 -3 -142 0 -151 5 -9 6 -25 7 -35 2 -54 -22 -204 -5 -204 23 0 9
521 9 536 0 16 -11 164 8 206 26 21 9 60 21 88 27 30 6 50 16 50 24 0 20 -38
29 -57 13 -13 -11 -17 -11 -21 0 -2 7 -16 18 -30 23 -28 11 -1224 14 -1812 5
-173 -3 -463 -5 -644 -6 -190 0 -349 -5 -375 -11 -25 -6 -61 -11 -78 -11 -18
0 -33 -4 -33 -8 0 -14 -38 1 -44 17 -3 8 12 56 33 106 48 112 76 224 67 272
-13 68 -27 49 -87 -117 -73 -203 -79 -216 -128 -261 -25 -23 -52 -54 -60 -70
-18 -34 -91 -80 -171 -107 -81 -27 -100 -26 -100 5 0 27 33 99 50 110 5 3 10
28 10 54 0 59 23 104 120 237 85 116 130 205 130 256 0 44 -38 94 -78 102 -58
13 -304 -48 -455 -113 -52 -22 -102 -27 -112 -11 -24 39 -91 -29 -80 -80 14
-64 51 -62 265 15 171 62 272 88 326 83 35 -3 39 -6 36 -28 -3 -28 -27 -69
-116 -195 -34 -50 -75 -123 -90 -162 -15 -40 -37 -84 -49 -99 -13 -17 -21 -44
-23 -75 -1 -29 -11 -63 -24 -84 -19 -31 -26 -36 -49 -30 -14 3 -38 15 -53 25
-25 19 -44 20 -330 17 -274 -2 -303 0 -306 14 -4 24 75 31 333 33 116 1 216 5
222 9 7 5 22 3 34 -3 16 -9 30 -7 67 10 72 34 76 39 48 65 l-25 23 -718 -5
c-395 -2 -727 -4 -738 -4 -11 0 -103 0 -205 0 -102 0 -203 0 -225 0 -22 0
-186 0 -364 0 -273 1 -328 -1 -347 -14 -13 -8 -29 -15 -37 -15 -7 0 -27 -15
-44 -32 -27 -28 -32 -41 -34 -91 -2 -51 1 -61 24 -85 l27 -26 837 2 c461 1
1074 4 1362 6 l523 3 28 -24 c36 -30 77 -30 169 2 l72 24 642 6 c353 4 1155 8
1782 9 785 2 1147 6 1160 13 11 6 28 34 38 62 18 50 17 52 -1 79 -19 26 -20
56 -26 702 -3 371 -9 949 -12 1283 -6 484 -4 613 6 632 10 20 10 30 -2 62 -13
32 -16 126 -17 602 -1 311 -4 567 -5 570 -2 3 -7 438 -10 966 -8 1160 -14
1648 -22 1697 -8 55 2 76 44 88 21 5 156 69 300 142 144 73 319 162 389 197
71 35 135 67 143 72 81 45 255 134 290 149 14 6 142 71 285 144 705 363 1675
851 1708 860 13 3 44 23 68 44 l44 39 -3 444 c-1 244 -2 1108 -3 1919 0 1226
-2 1482 -14 1514 -12 34 -12 42 2 62 16 24 44 25 105 2 18 -7 705 -9 2103 -6
l2075 4 50 50 c42 41 51 56 52 88 1 34 -4 44 -44 81 l-45 42 -234 -3 c-242 -3
-1907 -4 -3159 -2 -393 0 -751 -2 -796 -6 -97 -9 -110 0 -100 66 6 41 8 294
21 2138 3 454 8 1039 11 1302 l5 476 -38 36 c-21 20 -49 39 -63 43 -34 8 -117
50 -125 63 -3 5 -17 10 -29 10 -13 0 -29 6 -35 14 -7 8 -24 17 -39 21 -15 4
-34 12 -42 20 -8 7 -40 23 -70 36 -30 12 -62 28 -71 36 -8 7 -20 13 -25 13
-16 0 -259 125 -267 138 -4 6 -15 12 -23 12 -9 0 -42 16 -75 35 -33 19 -71 38
-84 41 -13 3 -29 12 -36 20 -6 8 -19 14 -29 14 -9 0 -29 9 -43 20 -14 11 -32
20 -40 20 -8 0 -20 7 -27 15 -7 8 -16 15 -21 15 -5 0 -48 20 -96 44 -122 60
-325 164 -343 175 -8 5 -53 28 -100 51 -47 23 -92 46 -100 51 -8 5 -41 21 -72
36 -31 16 -139 70 -240 122 -329 167 -365 186 -417 209 -28 13 -51 27 -51 32
0 5 -16 12 -35 16 -19 3 -38 10 -40 15 -3 4 -38 24 -78 44 -69 34 -84 42 -124
65 -10 6 -29 15 -43 20 -14 6 -32 14 -40 20 -8 5 -71 37 -140 70 -69 34 -132
65 -140 70 -8 5 -46 25 -85 45 -38 19 -83 43 -100 52 -16 9 -38 20 -48 25 -10
5 -45 23 -78 41 -34 18 -73 38 -87 45 -15 7 -34 17 -42 22 -20 11 -266 138
-350 180 -36 18 -72 36 -80 41 -20 11 -154 80 -188 97 -15 7 -34 17 -42 22 -8
6 -58 32 -110 58 -52 27 -140 72 -195 101 -55 28 -104 51 -109 51 -5 0 -17 6
-25 14 -9 7 -36 23 -61 36 -25 12 -54 27 -65 33 -83 44 -132 67 -143 67 -7 0
-15 7 -18 15 -4 8 -14 15 -23 15 -9 0 -27 9 -41 20 -14 11 -29 20 -33 20 -5 0
-56 27 -113 60 -95 55 -109 60 -162 60 -50 0 -62 -4 -83 -26z m217 -141 c62
-30 92 -66 73 -89 -6 -8 -18 -14 -25 -14 -53 0 57 -92 196 -163 69 -35 166
-86 215 -112 50 -26 162 -85 250 -130 208 -107 505 -260 575 -297 68 -36 402
-210 450 -234 19 -9 46 -23 60 -31 14 -7 120 -61 235 -119 116 -58 217 -112
225 -119 8 -7 24 -15 35 -19 18 -5 217 -105 635 -319 148 -75 375 -190 515
-259 55 -27 107 -56 116 -64 8 -8 19 -14 24 -14 5 0 126 -59 269 -132 144 -72
347 -174 451 -226 285 -142 484 -243 553 -282 45 -25 128 -60 143 -60 9 0 22
-7 29 -15 7 -8 21 -15 31 -15 11 0 20 -6 20 -12 2 -19 -2 -520 -6 -858 -2
-162 -7 -896 -10 -1630 -4 -734 -9 -1366 -11 -1405 -2 -38 -3 -81 -3 -95 -1
-966 8 -3657 13 -3787 l6 -182 -23 -16 c-13 -8 -38 -20 -57 -26 -46 -14 -101
-38 -120 -49 -8 -6 -25 -15 -38 -20 -13 -6 -30 -17 -38 -25 -9 -8 -22 -15 -29
-15 -13 0 -77 -28 -115 -50 -8 -5 -42 -23 -75 -40 -33 -17 -67 -35 -75 -40
-32 -18 -429 -210 -435 -210 -4 0 -18 -9 -32 -20 -14 -11 -34 -20 -44 -20 -10
0 -22 -6 -26 -12 -11 -17 -93 -58 -116 -58 -10 0 -20 -7 -23 -15 -4 -8 -10
-15 -16 -15 -5 0 -28 -9 -50 -20 -23 -11 -47 -20 -54 -20 -6 0 -17 -7 -24 -16
-8 -8 -45 -31 -84 -50 -39 -18 -78 -38 -86 -44 -8 -5 -40 -21 -70 -35 -30 -14
-62 -30 -70 -35 -8 -5 -28 -16 -45 -24 -16 -8 -53 -26 -81 -40 -28 -14 -56
-26 -62 -26 -6 0 -17 -6 -24 -13 -17 -15 -120 -67 -135 -67 -6 0 -13 -7 -17
-15 -3 -8 -14 -15 -23 -15 -10 0 -30 -8 -43 -17 -34 -24 -172 -93 -186 -93 -6
0 -19 -9 -29 -20 -10 -11 -25 -20 -32 -20 -8 0 -41 -15 -72 -34 -32 -19 -69
-37 -82 -41 -13 -4 -31 -13 -39 -20 -8 -7 -26 -16 -39 -20 -13 -4 -45 -20 -71
-35 -26 -15 -58 -31 -71 -35 -13 -4 -31 -13 -39 -20 -8 -8 -27 -17 -43 -20
-15 -4 -29 -10 -31 -14 -3 -4 -49 -29 -103 -55 -54 -26 -105 -52 -113 -57 -59
-34 -80 -42 -121 -43 -41 -1 -51 -6 -98 -54 -30 -28 -62 -52 -71 -52 -10 0
-23 -7 -30 -15 -7 -8 -20 -15 -29 -16 -9 0 -38 -13 -66 -30 -27 -16 -61 -34
-75 -40 -55 -23 -131 -62 -135 -69 -3 -4 -17 -11 -32 -15 -15 -3 -30 -10 -33
-13 -7 -9 -89 -49 -117 -57 -11 -3 -27 -12 -33 -20 -7 -8 -19 -15 -27 -15 -8
0 -26 -9 -40 -20 -14 -11 -32 -20 -39 -20 -8 0 -23 -9 -34 -20 -11 -11 -31
-20 -45 -20 -14 0 -25 -4 -25 -9 0 -11 -95 -61 -115 -61 -8 0 -20 -6 -27 -14
-8 -7 -56 -34 -108 -60 -52 -26 -102 -51 -110 -56 -8 -5 -55 -29 -105 -53 -83
-41 -138 -68 -175 -89 -8 -4 -37 -19 -65 -32 -27 -14 -74 -47 -104 -75 -47
-43 -53 -53 -47 -77 6 -23 2 -32 -30 -61 -30 -26 -46 -33 -80 -33 -41 0 -43 2
-49 32 -9 52 7 91 40 100 15 4 33 4 39 1 6 -4 2 3 -8 15 -15 18 -17 27 -9 45
6 12 16 36 23 54 9 24 10 571 5 2360 -3 1280 -8 2596 -10 2923 -2 327 -6 2152
-9 4055 -4 1903 -9 3487 -12 3520 -3 32 -12 74 -19 92 -8 19 -10 35 -4 38 12
8 12 25 -1 25 -6 0 -15 -12 -20 -26 -12 -30 -43 -29 -48 1 -1 11 -7 44 -14 72
-10 47 -9 55 7 73 24 27 56 25 121 -7z m-12870 -2564 c7 -6 22 -6 39 1 29 11
376 11 463 0 29 -4 55 -3 58 2 7 11 51 10 59 -2 6 -10 182 -6 192 4 10 9 51 7
57 -3 10 -15 75 -18 80 -4 4 9 12 10 29 4 14 -5 74 -5 148 0 125 10 183 6 207
-13 9 -8 24 -7 52 2 28 9 67 11 137 6 54 -4 105 -7 113 -7 8 0 84 2 169 5 85
3 159 2 165 -2 6 -4 22 -7 36 -8 14 0 54 -2 90 -4 36 -1 72 0 80 3 30 11 98
15 107 6 13 -13 172 -18 237 -6 43 7 64 7 78 -2 13 -8 24 -8 37 -1 24 12 172
11 188 -3 9 -6 37 -6 84 1 39 6 80 7 91 3 11 -4 47 -4 81 0 34 4 66 4 72 1 9
-5 132 -9 538 -14 48 0 90 2 93 4 9 10 56 -5 61 -19 10 -27 -15 -35 -104 -34
-875 12 -996 13 -1293 11 -129 0 -325 2 -435 5 -225 6 -298 7 -470 6 -66 0
-136 3 -155 7 -19 4 -78 5 -130 1 -78 -5 -102 -3 -132 11 -26 12 -38 14 -38 6
0 -15 -75 -35 -92 -25 -6 4 -126 6 -265 4 -230 -4 -253 -3 -262 12 -8 16 -11
16 -28 2 -23 -20 -102 -16 -136 5 -22 15 -25 15 -42 -4 -12 -13 -25 -18 -37
-14 -10 3 -56 6 -101 6 -45 0 -88 4 -95 10 -9 8 -20 8 -38 -1 -31 -14 -111
-15 -119 -1 -4 6 -23 7 -46 4 -42 -7 -45 -4 -28 27 8 15 17 19 37 15 15 -4 41
-2 57 3 32 11 93 5 111 -10z m12728 -59 c23 -58 7 -200 -22 -200 -5 0 -21 14
-37 30 -16 17 -35 30 -42 30 -7 0 -27 9 -45 20 -18 11 -43 20 -55 20 -12 0
-29 7 -37 16 -13 12 -29 14 -75 10 -38 -4 -62 -2 -66 5 -11 17 0 21 77 26 40
2 96 11 125 19 28 8 60 14 71 14 12 0 30 13 42 30 26 36 44 31 64 -20z m-8513
23 c74 -3 143 -6 154 -5 63 3 88 3 430 2 171 -1 254 -7 269 -19 11 -9 15 -9
18 0 5 16 367 16 397 -1 12 -6 32 -8 44 -4 27 9 627 8 797 -1 127 -7 182 -7
346 -4 52 1 100 -3 112 -10 15 -8 23 -8 27 0 5 7 73 9 224 4 218 -7 842 -14
1269 -14 202 0 233 -2 238 -16 4 -9 4 -18 1 -21 -2 -3 -68 -6 -146 -7 -112 -1
-144 2 -151 13 -7 11 -11 11 -24 1 -13 -11 -19 -11 -31 -1 -12 10 -19 10 -33
-2 -13 -11 -46 -13 -147 -11 -71 2 -134 3 -140 4 -5 0 -57 -1 -115 -4 -58 -2
-132 0 -165 5 -33 5 -67 10 -75 10 -353 -3 -615 -2 -689 2 -63 4 -98 3 -107
-5 -8 -6 -20 -9 -28 -6 -15 6 -370 22 -416 19 -14 -1 -61 -1 -105 -1 -44 1
-134 1 -200 0 -239 -2 -341 0 -409 9 -38 5 -78 5 -90 1 -11 -5 -52 -6 -91 -4
-68 4 -133 4 -205 -1 -19 -2 -47 4 -62 12 -18 10 -31 12 -40 6 -14 -10 -581
-10 -823 1 -77 3 -146 5 -152 5 -7 0 -26 0 -43 0 -16 1 -42 0 -57 0 -16 -1
-51 -2 -80 -3 -59 -2 -74 6 -50 30 11 11 36 17 86 18 39 1 74 5 78 9 4 4 17 5
29 2 12 -3 82 -9 155 -13z m4779 -62 c97 3 153 3 295 1 55 -1 134 -2 175 -2
41 -1 91 -1 110 -2 19 0 100 0 180 0 326 2 380 1 380 -7 0 -20 -32 -32 -82
-32 -29 1 -64 1 -78 2 -218 3 -806 -1 -837 -6 -23 -3 -60 -1 -83 5 -26 7 -52
8 -74 2 -25 -7 -35 -6 -42 5 -8 12 -13 12 -35 1 -25 -13 -61 -14 -209 -6 -61
4 -79 16 -54 36 15 11 42 13 144 7 69 -4 163 -6 210 -4z m-400 -9 c0 -15 -11
-21 -27 -15 -12 5 -12 7 -1 14 17 11 28 11 28 1z m1757 -9 c5 -14 -65 -26
-122 -21 -22 2 -39 8 -38 13 5 21 154 28 160 8z m321 -5 c3 -14 -3 -18 -22
-18 -14 0 -26 5 -26 11 0 8 -12 9 -37 4 -66 -13 -147 -14 -175 -3 -15 6 -26
13 -24 17 2 3 66 6 142 6 124 0 139 -2 142 -17z m272 12 c24 -1 24 -1 6 -15
-10 -8 -24 -11 -30 -7 -6 3 -21 5 -33 3 -13 -1 -23 2 -23 7 0 16 14 23 35 18
11 -3 31 -6 45 -6z m687 -3 c-4 -14 -157 -22 -157 -9 0 15 7 17 85 19 54 1 75
-2 72 -10z m601 -10 c3 -14 -1 -18 -20 -15 -12 2 -24 11 -26 21 -3 14 1 18 20
15 12 -2 24 -11 26 -21z m-1398 3 c12 -8 11 -10 -7 -10 -12 0 -25 5 -28 10 -8
13 15 13 35 0z m290 1 c0 -14 -18 -23 -30 -16 -6 4 -8 11 -5 16 8 12 35 12 35
0z m315 -1 c-3 -5 -12 -10 -20 -10 -8 0 -17 5 -20 10 -4 6 5 10 20 10 15 0 24
-4 20 -10z m325 0 c8 -5 11 -12 8 -16 -10 -9 -38 3 -38 16 0 12 10 13 30 0z
m115 -10 c-3 -5 -13 -6 -21 -3 -12 4 -13 8 -3 14 15 9 32 2 24 -11z m75 5 c0
-8 -7 -15 -16 -15 -14 0 -14 3 -4 15 7 8 14 15 16 15 2 0 4 -7 4 -15z m50 5
c0 -5 -7 -7 -15 -4 -8 4 -15 8 -15 10 0 2 7 4 15 4 8 0 15 -4 15 -10z m127 -6
c5 -16 -55 -26 -78 -13 -11 5 -17 15 -13 20 8 13 86 7 91 -7z m-1407 -4 c0 -5
-9 -10 -21 -10 -11 0 -17 5 -14 10 3 6 13 10 21 10 8 0 14 -4 14 -10z m547 4
c-3 -3 -12 -4 -19 -1 -8 3 -5 6 6 6 11 1 17 -2 13 -5z m-11197 -2582 c47 -1
101 0 120 0 19 1 91 1 160 0 69 0 152 -1 185 -1 33 0 218 -2 410 -5 193 -3
359 -6 370 -6 11 0 72 0 135 1 63 1 174 1 246 0 71 -1 134 -1 140 0 5 1 11 1
14 0 6 -2 438 -12 490 -12 75 1 707 -1 750 -2 25 0 77 0 115 1 39 1 102 2 140
1 39 -2 99 -2 135 -1 36 1 169 0 295 -3 127 -3 235 -6 240 -6 34 -1 620 1 665
2 30 0 66 1 80 0 203 -3 322 -2 327 3 4 3 17 -1 29 -9 17 -11 30 -12 47 -6 13
5 40 6 59 2 19 -5 61 -5 92 0 32 4 63 6 70 3 6 -2 106 -6 221 -8 116 -2 217
-4 225 -4 8 -1 107 -1 220 -1 113 0 208 0 212 -1 9 0 31 -40 25 -46 -2 -2 -42
2 -88 11 -51 8 -87 11 -93 5 -5 -5 -17 -5 -28 1 -11 6 -24 7 -31 2 -7 -5 -50
-8 -97 -6 -47 2 -98 3 -115 2 -194 -5 -295 -3 -318 4 -20 7 -36 6 -52 -3 -18
-10 -41 -9 -116 3 -52 8 -99 11 -104 6 -6 -4 -168 -6 -360 -5 -193 2 -354 1
-360 -3 -5 -4 -62 -4 -126 -1 -64 3 -144 3 -178 0 -45 -4 -68 -2 -82 8 -10 7
-24 10 -30 6 -27 -16 -867 -20 -899 -4 -3 1 -9 1 -15 0 -5 -2 -118 -1 -250 0
-132 2 -267 3 -300 2 -33 0 -127 0 -210 0 -172 0 -240 -1 -327 -3 -35 -1 -138
-1 -231 0 -92 0 -170 0 -175 -1 -4 -1 -42 2 -85 6 -52 6 -80 13 -86 24 -10 17
-31 8 -31 -15 0 -13 -16 -14 -127 -7 -71 4 -141 8 -158 7 -107 -4 -558 -2
-566 3 -6 3 -15 1 -22 -4 -19 -16 -167 -12 -174 4 -7 18 -21 18 -40 -2 -10 -9
-25 -13 -42 -9 -29 6 -47 7 -216 4 -212 -2 -315 11 -315 41 0 23 7 25 83 24
34 0 100 -1 147 -2z m12660 -17 c7 -8 10 -24 7 -35 -3 -11 0 -33 5 -48 9 -22
7 -37 -11 -76 -21 -48 -21 -48 -43 -32 -13 9 -34 22 -48 29 -14 7 -36 19 -50
28 -27 18 -145 43 -158 35 -11 -7 -82 15 -77 24 2 3 41 7 87 9 45 1 85 6 88
10 9 14 70 42 79 37 4 -3 17 3 27 14 23 23 77 26 94 5z m-6285 -44 c29 -2 29
-2 11 -16 -23 -18 -45 -19 -81 -5 -33 12 -26 27 12 24 15 -1 42 -2 58 -3z
m163 -3 c19 -19 -51 -39 -89 -26 -40 14 -36 26 9 31 20 2 44 4 53 5 8 1 20 -3
27 -10z m223 1 c38 -20 8 -30 -73 -25 -93 7 -120 18 -63 27 66 10 115 10 136
-2z m233 -9 c14 -14 -27 -27 -66 -23 -41 6 -48 16 -21 32 18 10 72 4 87 -9z
m77 -6 c12 -15 11 -16 -11 -9 -35 10 -49 25 -23 25 11 0 27 -7 34 -16z m289 0
c11 -12 -30 -24 -82 -24 -42 0 -58 4 -58 13 0 8 3 17 8 21 7 8 123 -1 132 -10z
m186 2 c19 -14 18 -15 -4 -23 -30 -11 -114 -1 -119 14 -4 11 22 18 78 22 14 0
34 -5 45 -13z m-379 -2 c-3 -3 -12 -4 -19 -1 -8 3 -5 6 6 6 11 1 17 -2 13 -5z
m721 -11 c2 -8 -5 -13 -17 -13 -21 0 -35 13 -24 24 10 10 36 3 41 -11z m277 1
c0 -9 -83 -13 -100 -4 -5 3 6 7 25 10 49 7 75 5 75 -6z m1105 -5 c0 -5 -9 -9
-20 -9 -19 0 -26 11 -14 23 8 8 34 -3 34 -14z m496 -8 c-8 -13 -36 -15 -36 -3
0 4 5 13 12 20 14 14 34 0 24 -17z m1084 8 c0 -5 -9 -9 -20 -9 -11 0 -20 6
-20 14 0 9 7 12 20 9 11 -3 20 -9 20 -14z m210 -5 c0 -8 -7 -14 -15 -14 -15 0
-21 21 -9 33 10 9 24 -2 24 -19z m-3090 6 c0 -5 -9 -10 -20 -10 -11 0 -20 5
-20 10 0 6 9 10 20 10 11 0 20 -4 20 -10z m80 0 c0 -5 -9 -10 -19 -10 -11 0
-23 5 -26 10 -4 6 5 10 19 10 14 0 26 -4 26 -10z m235 0 c3 -5 -1 -10 -9 -10
-9 0 -16 5 -16 10 0 6 4 10 9 10 6 0 13 -4 16 -10z m1425 -6 c0 -8 -14 -11
-42 -9 -61 4 -60 4 -54 13 8 14 96 10 96 -4z m170 6 l25 -8 -27 -1 c-16 -1
-31 -1 -35 -2 -4 0 -9 4 -11 10 -4 12 12 13 48 1z m134 -8 c4 -2 2 -8 -5 -12
-13 -9 -59 8 -59 22 0 8 44 1 64 -10z m114 0 c3 -10 -4 -13 -24 -10 -36 4 -42
24 -7 23 14 0 28 -6 31 -13z m157 8 c3 -5 1 -10 -4 -10 -6 0 -11 5 -11 10 0 6
2 10 4 10 3 0 8 -4 11 -10z m170 -5 c0 -5 -15 -11 -34 -13 -31 -3 -33 -2 -21
13 14 17 55 17 55 0z m55 5 c0 -5 -4 -10 -9 -10 -6 0 -13 5 -16 10 -3 6 1 10
9 10 9 0 16 -4 16 -10z m387 4 c-3 -3 -12 -4 -19 -1 -8 3 -5 6 6 6 11 1 17 -2
13 -5z m233 -4 c0 -5 -7 -10 -15 -10 -8 0 -15 5 -15 10 0 6 7 10 15 10 8 0 15
-4 15 -10z m75 -12 c-17 -4 -39 -5 -50 -1 -16 6 -11 9 20 13 49 7 70 -1 30
-12z m210 12 c3 -5 -1 -10 -9 -10 -9 0 -16 5 -16 10 0 6 4 10 9 10 6 0 13 -4
16 -10z m93 -2 c-3 -7 -13 -13 -23 -13 -10 0 -20 6 -22 13 -3 7 5 12 22 12 17
0 25 -5 23 -12z m72 -2 c0 -8 -5 -18 -10 -21 -13 -8 -42 14 -34 26 9 15 44 10
44 -5z m185 4 c3 -5 -4 -11 -15 -15 -22 -7 -63 3 -56 13 6 11 65 12 71 2z m60
0 c3 -6 -1 -13 -10 -16 -19 -8 -30 0 -20 15 8 14 22 14 30 1z m200 0 l30 -7
-36 -7 c-20 -4 -45 -6 -55 -5 -11 2 -29 -1 -41 -5 -32 -11 -51 3 -28 21 20 14
79 16 130 3z m225 1 c0 -10 -30 -24 -37 -17 -3 3 -2 9 2 15 8 13 35 15 35 2z
m-1615 -11 c-28 -12 -45 -12 -45 0 0 6 15 10 33 9 27 0 29 -2 12 -9z m1225 0
c0 -5 -4 -10 -10 -10 -5 0 -10 5 -10 10 0 6 5 10 10 10 6 0 10 -4 10 -10z
m247 4 c-3 -3 -12 -4 -19 -1 -8 3 -5 6 6 6 11 1 17 -2 13 -5z m53 -4 c0 -5 -6
-10 -14 -10 -8 0 -18 5 -21 10 -3 6 3 10 14 10 12 0 21 -4 21 -10z m5952
-1285 c18 -4 49 -14 68 -23 29 -14 64 -17 200 -15 205 2 375 2 503 0 55 -1
101 2 104 6 2 4 14 5 26 1 12 -4 38 -10 57 -13 19 -4 33 -11 30 -16 -6 -13
-16 -13 -485 -19 -214 -3 -408 -7 -430 -9 -58 -7 -109 -32 -150 -73 l-36 -36
-18 24 c-13 15 -21 49 -26 99 -7 71 -5 78 16 103 l22 26 43 -24 c24 -13 58
-27 76 -31z m1883 -42 c204 -2 381 -3 395 -3 54 0 90 -11 90 -27 0 -12 -3 -13
-13 -4 -10 7 -70 9 -198 5 -101 -3 -200 -5 -219 -5 -19 0 -92 1 -162 1 -70 1
-132 -1 -138 -5 -6 -4 -25 -1 -41 5 -24 10 -38 10 -70 0 -32 -11 -44 -11 -63
-1 -16 9 -30 10 -42 4 -11 -5 -55 -7 -99 -3 -44 3 -100 3 -125 -1 -25 -4 -61
-6 -80 -4 -19 2 -52 3 -73 4 -51 1 -44 25 9 29 111 8 275 9 313 2 30 -5 53 -4
75 6 17 7 40 10 51 7 11 -3 187 -8 390 -10z m1955 7 c0 -5 -5 -10 -11 -10 -5
0 -7 5 -4 10 3 6 8 10 11 10 2 0 4 -4 4 -10z m-1369 -24 c14 8 76 10 84 2 3
-3 -12 -10 -32 -16 -69 -20 -170 4 -112 27 18 7 27 5 36 -6 7 -9 17 -12 24 -7z
m434 12 l50 1 -25 -19 c-16 -13 -32 -18 -45 -13 -11 4 -50 6 -87 5 -54 -2 -68
1 -68 12 0 19 26 25 80 18 25 -3 68 -5 95 -4z m123 -13 c0 -14 -4 -25 -9 -25
-5 0 -9 5 -9 10 0 6 -9 10 -20 10 -11 0 -20 7 -20 15 0 10 10 15 29 15 24 0
29 -4 29 -25z m167 15 c3 -5 -1 -10 -9 -10 -9 0 -16 -4 -16 -10 0 -12 -36 -12
-65 -1 -16 7 -12 10 25 19 61 13 58 13 65 2z m104 -4 c10 -6 3 -12 -25 -22
-21 -7 -39 -12 -40 -11 -1 1 -5 12 -8 24 -6 20 -4 22 26 20 18 -1 39 -6 47
-11z m139 2 c-3 -7 -17 -19 -32 -27 -31 -15 -53 -3 -43 23 8 20 81 23 75 4z
m136 3 c3 -4 0 -15 -7 -24 -9 -12 -20 -14 -44 -9 -37 8 -33 27 7 35 14 2 28 5
32 6 4 0 9 -3 12 -8z m144 -6 c13 -4 22 -11 20 -17 -6 -17 -82 -19 -104 -4
-18 14 -18 15 6 25 25 9 33 9 78 -4z m72 0 c0 -8 -7 -15 -15 -15 -8 0 -15 7
-15 15 0 8 7 15 15 15 8 0 15 -7 15 -15z m228 -1 c20 -6 14 -24 -9 -24 -25 0
-59 17 -59 31 0 8 28 6 68 -7z m-1348 -9 c-6 -12 -51 -8 -65 6 -7 7 3 9 30 7
22 -2 38 -7 35 -13z m1210 -11 c0 -2 -9 -4 -21 -4 -11 0 -18 4 -14 10 5 8 35
3 35 -6z m-21952 -1297 c7 -5 21 -6 31 -2 11 3 66 5 123 5 57 -1 125 -1 151 0
27 1 55 -4 63 -11 12 -10 17 -8 27 6 11 14 19 15 48 8 19 -6 57 -9 84 -7 129
7 293 7 324 0 22 -5 41 -4 58 5 20 11 28 11 44 0 14 -8 38 -10 77 -5 32 3 68
7 82 9 14 1 83 -2 154 -6 85 -6 134 -5 142 1 8 7 26 7 53 1 27 -6 55 -6 77 0
21 6 62 7 107 1 39 -5 153 -7 252 -5 207 4 183 4 470 5 121 0 235 0 253 -1 36
-1 81 -2 162 -2 367 -2 462 -1 505 1 28 2 100 2 160 2 61 -1 121 -2 135 -2 14
0 381 0 817 0 660 -1 794 -4 803 -15 7 -8 9 -18 6 -24 -5 -8 -370 -18 -498
-13 -21 0 -48 1 -60 1 -118 1 -154 4 -163 11 -7 5 -29 3 -55 -6 -28 -10 -61
-13 -85 -10 -22 3 -47 6 -55 6 -23 0 -892 -1 -990 -2 -80 0 -504 1 -705 2 -74
0 -433 -6 -525 -10 -27 -1 -755 -2 -805 -2 -64 1 -301 9 -315 11 -8 1 -96 -1
-195 -5 -99 -3 -187 -6 -195 -5 -8 1 -190 2 -404 4 -363 2 -390 3 -400 20 -19
32 11 42 125 42 57 -1 110 -4 117 -8z m5882 -9 c239 -1 450 -5 467 -9 18 -4
51 -2 74 3 28 8 51 8 75 0 19 -5 36 -7 38 -4 2 4 69 6 148 4 142 -2 162 -2
206 -1 40 2 112 -12 112 -20 0 -12 -46 -20 -61 -10 -7 4 -23 3 -37 -2 -16 -6
-29 -6 -37 1 -8 6 -22 7 -36 2 -29 -10 -210 -8 -228 2 -6 4 -17 4 -24 -1 -14
-11 -108 -10 -149 1 -14 4 -35 3 -46 -3 -13 -7 -22 -7 -30 1 -7 7 -16 7 -28 0
-12 -7 -24 -6 -36 2 -14 8 -20 8 -26 0 -8 -13 -274 -12 -305 1 -11 4 -29 2
-42 -5 -18 -10 -28 -10 -37 -2 -8 6 -19 7 -26 3 -8 -4 -106 -6 -220 -4 -114 2
-244 3 -290 3 -46 0 -93 5 -105 12 -22 11 -22 12 8 25 21 9 55 11 115 7 47 -3
281 -6 520 -6z m1260 -14 c28 -10 -12 -24 -67 -24 -39 0 -53 4 -53 14 0 8 5
16 11 18 13 4 88 -1 109 -8z m200 -15 c0 -14 -12 -17 -85 -15 -86 1 -122 18
-51 24 22 1 42 4 44 7 2 2 24 3 48 2 33 -2 44 -6 44 -18z m147 8 c33 -8 21
-17 -23 -17 -27 0 -59 -3 -71 -6 -33 -9 -29 12 5 25 24 9 44 8 89 -2z m763
-17 c0 -24 -7 -25 -51 -6 l-34 14 30 5 c17 2 36 5 43 6 6 0 12 -8 12 -19z
m1086 9 c3 -6 0 -15 -7 -20 -20 -12 -119 -11 -119 1 0 6 10 8 23 5 12 -3 31 1
42 9 24 18 51 20 61 5z m823 -14 c14 -13 12 -15 -21 -15 -46 0 -91 17 -83 30
9 15 85 4 104 -15z m397 14 c12 -21 -20 -29 -101 -27 -92 3 -107 20 -25 29 93
10 119 9 126 -2z m393 0 c52 -18 35 -29 -44 -28 -41 1 -75 2 -75 4 0 35 55 46
119 24z m-3294 -9 c8 -13 -5 -13 -25 0 -13 8 -13 10 2 10 9 0 20 -4 23 -10z
m215 0 c0 -5 -16 -9 -35 -8 -19 1 -32 5 -29 10 7 11 64 10 64 -2z m275 0 c-3
-5 -28 -10 -55 -10 -27 0 -52 5 -55 10 -4 6 17 10 55 10 38 0 59 -4 55 -10z
m280 1 c20 -8 20 -8 -2 -15 -25 -8 -73 2 -73 15 0 11 47 11 75 0z m285 -6 c0
-8 -4 -15 -10 -15 -5 0 -10 7 -10 15 0 8 5 15 10 15 6 0 10 -7 10 -15z m167 1
c-4 -12 -85 -17 -92 -5 -3 4 -12 6 -20 2 -8 -3 -15 -1 -15 5 0 5 28 9 65 8 36
0 64 -5 62 -10z m113 4 c9 -5 19 -5 27 1 13 11 33 4 33 -12 0 -11 -107 -12
-114 0 -13 20 27 28 54 11z m145 0 c4 -6 -5 -10 -20 -10 -15 0 -24 4 -20 10 3
6 12 10 20 10 8 0 17 -4 20 -10z m594 -4 c9 -10 8 -15 -4 -20 -21 -7 -45 3
-45 20 0 18 34 18 49 0z m70 5 c9 -6 10 -10 2 -16 -16 -9 -44 2 -36 15 8 12
16 12 34 1z m208 -7 c2 -7 -14 -11 -43 -11 -42 0 -45 2 -28 14 21 16 66 14 71
-3z m317 7 c7 -11 -22 -23 -35 -15 -5 3 -7 10 -4 15 8 12 32 12 39 0z m426 -6
c1 -13 -68 -23 -100 -15 -13 3 -25 11 -27 17 -3 9 14 12 61 10 37 -2 66 -7 66
-12z m-2115 -5 c-3 -5 -10 -10 -16 -10 -5 0 -9 5 -9 10 0 6 7 10 16 10 8 0 12
-4 9 -10z m945 -11 c-37 -8 -45 -6 -36 9 3 5 20 6 38 4 l33 -6 -35 -7z m320
11 c0 -5 -13 -10 -30 -10 -16 0 -30 5 -30 10 0 6 14 10 30 10 17 0 30 -4 30
-10z m348 -1 c-2 -6 -7 -10 -11 -10 -4 1 -16 1 -27 1 -11 0 -20 5 -20 10 0 6
14 10 31 10 17 0 29 -5 27 -11z m-4962 -2634 c7 -2 37 0 68 4 55 8 126 -5 126
-21 0 -11 24 -10 -470 -14 -245 -2 -457 -7 -472 -10 -21 -5 -28 -3 -28 9 0 9
6 19 13 24 18 11 500 12 514 1 8 -7 18 -5 28 6 13 12 33 14 113 10 53 -3 102
-7 108 -9z m295 0 c23 -12 34 -13 50 -4 13 7 41 9 70 5 27 -4 50 -2 53 3 4 5
28 7 54 4 26 -2 52 -4 57 -4 6 1 155 3 333 4 245 2 326 -1 334 -10 24 -29 -5
-32 -265 -27 -144 3 -289 5 -322 4 -33 -1 -96 -3 -140 -5 -44 -1 -87 1 -95 5
-8 4 -46 4 -85 0 -38 -3 -82 -4 -97 -2 -24 4 -25 6 -15 23 14 23 29 24 68 4z
m1646 1 c3 -3 3 -12 0 -21 -7 -16 -81 -22 -90 -7 -3 4 -88 6 -189 4 -255 -3
-257 -3 -312 1 -60 4 -73 24 -19 29 64 5 604 0 610 -6z m-6994 -8 c122 1 308
1 412 1 105 0 249 0 320 1 72 0 146 0 165 -1 72 -3 107 -3 190 1 104 4 242 3
735 -4 271 -4 255 -2 255 -21 0 -8 6 -15 14 -15 9 0 12 7 9 19 -5 20 32 37 43
19 5 -7 33 -8 83 -3 81 8 106 9 161 5 19 -1 79 -1 133 -1 107 2 137 -3 137
-24 0 -20 -28 -25 -85 -17 -27 4 -72 4 -100 -1 -27 -4 -232 -10 -455 -12 -223
-3 -444 -5 -492 -6 -48 0 -92 2 -97 5 -5 3 -58 4 -118 2 -62 -2 -113 1 -120 6
-8 7 -29 6 -60 -1 -27 -6 -75 -11 -108 -11 -104 2 -118 2 -200 -1 -122 -4
-275 3 -275 13 0 5 -10 2 -22 -5 -18 -11 -63 -14 -198 -12 -96 1 -180 -2 -186
-7 -6 -4 -22 -5 -35 0 -13 4 -55 7 -94 5 -165 -5 -362 -4 -387 2 -15 4 -29 2
-32 -4 -8 -13 -86 23 -86 40 0 20 44 28 69 12 17 -11 25 -12 31 -4 4 7 31 14
60 16 29 3 55 7 58 10 3 2 16 2 29 -1 13 -4 124 -6 246 -6z m3055 4 c24 4 49
5 54 2 17 -11 90 -11 178 -1 79 9 85 8 101 -12 10 -12 19 -17 21 -11 4 12 161
23 273 20 112 -3 119 -13 20 -29 -47 -7 -65 -6 -82 5 -18 11 -25 11 -50 -1
-20 -10 -52 -12 -113 -9 -139 7 -190 7 -295 -5 -55 -6 -109 -9 -120 -7 -11 2
-24 5 -30 6 -5 1 -12 1 -15 0 -3 -1 -42 -3 -88 -4 -58 -1 -86 2 -94 11 -16 20
-9 22 70 26 40 2 75 7 78 10 3 3 15 2 27 -2 11 -4 41 -4 65 1z m897 -16 c17
-9 8 -12 -55 -17 -70 -6 -100 1 -100 21 0 22 115 19 155 -4z m273 12 c21 -18
14 -26 -28 -33 -26 -4 -46 -3 -55 5 -10 8 -24 8 -49 2 -38 -11 -116 -5 -116 9
0 19 40 27 134 27 56 0 107 -5 114 -10z m2905 -3 c-2 -5 -10 -10 -18 -9 -8 0
-33 1 -55 2 -63 3 -47 20 18 18 32 0 56 -5 55 -11z m107 5 c23 -14 3 -24 -42
-21 -47 2 -53 5 -43 20 8 13 65 14 85 1z m65 0 c3 -5 -3 -10 -15 -10 -12 0
-18 5 -15 10 3 6 10 10 15 10 5 0 12 -4 15 -10z m169 -10 c11 -11 3 -13 -54
-11 -50 2 -91 11 -86 19 6 11 128 4 140 -8z m129 5 c1 -5 -18 -11 -43 -13 -42
-2 -44 -1 -25 13 21 17 64 17 68 0z m204 7 c7 -1 10 -9 6 -18 -6 -16 -42 -16
-153 3 l-45 7 35 5 c32 5 127 7 157 3z m202 -1 c25 -16 2 -29 -50 -29 -57 0
-116 22 -82 31 32 8 118 7 132 -2z m154 -10 c8 -8 -1 -11 -33 -11 -51 0 -92 9
-86 19 7 10 107 4 119 -8z m517 9 c17 -11 8 -15 -52 -24 -30 -4 -38 -1 -38 11
0 10 6 14 19 10 10 -2 25 -1 32 4 17 11 21 11 39 -1z m218 -13 c2 -10 -3 -17
-12 -17 -18 0 -29 16 -21 31 9 14 29 6 33 -14z m423 12 c11 -5 17 -14 14 -20
-8 -11 -55 -12 -74 0 -11 7 -10 11 5 20 24 13 31 13 55 0z m-6541 -7 c0 -13
-23 -32 -37 -32 -11 0 -11 5 -3 20 10 19 40 28 40 12z m5460 -2 c11 -7 7 -10
-17 -10 -18 0 -33 5 -33 10 0 13 30 13 50 0z m74 1 c3 -5 -1 -11 -9 -15 -15
-6 -29 7 -18 18 9 9 21 8 27 -3z m106 0 c0 -10 -61 -21 -74 -14 -13 8 16 23
47 23 15 0 27 -4 27 -9z m130 -1 c0 -5 -11 -10 -25 -10 -14 0 -25 5 -25 10 0
6 11 10 25 10 14 0 25 -4 25 -10z m203 -5 c1 -5 -6 -11 -15 -13 -11 -2 -18 3
-18 13 0 17 30 18 33 0z m65 -3 c2 -7 -6 -12 -17 -12 -21 0 -27 11 -14 24 9 9
26 2 31 -12z m697 -2 c3 -5 1 -10 -4 -10 -6 0 -11 5 -11 10 0 6 2 10 4 10 3 0
8 -4 11 -10z m740 -4372 c-3 -40 -10 -109 -15 -153 -5 -44 -12 -146 -16 -227
l-6 -146 -91 -21 c-203 -48 -267 -79 -267 -132 0 -40 19 -45 77 -19 26 12 100
39 163 60 l115 38 7 -137 c3 -75 11 -165 18 -201 6 -36 14 -83 18 -104 8 -43
30 -63 57 -52 15 5 17 14 11 54 -15 105 -25 203 -31 323 l-8 127 34 10 c19 6
74 18 122 27 80 15 90 15 112 1 14 -9 27 -30 30 -50 4 -19 2 -145 -3 -281 -8
-193 -13 -250 -24 -262 -13 -12 -80 -15 -409 -17 -217 -2 -420 -5 -452 -8 -54
-5 -58 -4 -63 19 -10 38 41 223 107 393 22 58 49 126 59 151 56 146 316 560
406 647 51 48 57 43 49 -40z m4202 -1018 c1 -17 -2 -30 -8 -30 -16 0 -22 29
-9 45 16 19 15 20 17 -15z m1 -62 c5 -8 10 -104 10 -236 1 -122 3 -226 6 -231
3 -4 0 -16 -7 -26 -12 -15 -15 -12 -27 27 -8 23 -21 54 -30 68 -9 14 -22 37
-29 52 -21 42 -62 75 -114 92 -26 9 -54 16 -62 16 -8 0 -15 5 -15 10 0 7 -33
10 -92 9 -51 -2 -133 -2 -183 -1 -49 0 -99 1 -110 0 -11 0 -38 3 -60 5 -22 3
-44 6 -49 6 -6 1 -5 6 1 12 6 6 104 11 265 13 210 3 260 7 286 20 17 9 38 16
47 16 9 0 30 13 47 29 29 27 31 32 20 57 -15 32 -8 43 18 26 17 -10 20 -10 20
6 0 35 38 54 58 30z m-4905 -213 l2 -39 -45 -3 c-25 -2 -58 2 -74 9 -15 6 -58
12 -95 14 -36 1 -75 3 -86 3 -11 0 -44 -2 -72 -5 -45 -5 -53 -3 -53 10 0 23
37 35 101 31 154 -9 178 -8 206 10 38 25 85 35 101 21 6 -7 13 -29 15 -51z
m197 48 c19 -9 47 -19 64 -22 16 -4 31 -12 34 -19 4 -14 -56 -42 -92 -42 -21
0 -25 5 -28 33 -3 31 -5 32 -45 31 -40 -1 -55 11 -36 29 12 13 70 7 103 -10z
m1001 -3 c15 -12 48 -24 71 -28 41 -8 42 -9 20 -21 -12 -6 -31 -9 -42 -6 -11
4 -35 -4 -60 -20 -48 -30 -106 -32 -116 -3 -24 76 59 126 127 78z m-216 -40
c0 -43 -1 -44 -38 -53 -33 -8 -42 -6 -61 12 -12 11 -30 21 -39 21 -19 0 -31
16 -22 30 5 8 11 8 20 0 11 -9 18 -5 31 15 15 23 23 26 63 23 l46 -3 0 -45z
m-370 16 c42 -4 95 -18 90 -25 -5 -9 -83 -6 -92 2 -3 4 -13 2 -22 -3 -9 -5
-47 -10 -84 -12 -53 -2 -70 1 -84 15 -16 16 -16 17 12 19 17 1 49 0 71 -1 23
-1 45 3 49 9 4 6 14 8 24 5 9 -4 25 -8 36 -9z m1172 -20 c-5 -14 -107 -14
-107 -1 0 6 9 10 20 10 11 0 25 6 31 12 14 14 62 -4 56 -21z m448 24 c166 6
694 4 701 -2 4 -5 5 -10 2 -13 -6 -6 -103 -16 -148 -16 -14 0 -88 0 -165 0
-77 0 -167 1 -200 2 -78 3 -112 2 -158 -6 -23 -5 -43 -3 -51 5 -11 8 -33 9
-87 1 -40 -5 -76 -8 -79 -6 -4 2 -59 5 -123 6 -111 2 -134 9 -111 32 4 4 86 4
183 1 97 -3 203 -5 236 -4z m1881 -3 c29 -29 -136 -41 -351 -24 -50 4 -84 2
-92 -5 -7 -5 -21 -7 -30 -3 -10 4 -52 6 -93 5 -123 -3 -129 -3 -290 2 -85 3
-162 2 -170 -2 -21 -10 -121 3 -118 15 2 5 10 8 20 7 9 -2 19 1 22 6 7 11
1091 10 1102 -1z m-5468 -24 c4 -26 -6 -28 -42 -11 -21 9 -23 14 -14 25 17 21
52 12 56 -14z m770 14 c7 -5 27 -3 46 3 42 14 89 -1 79 -26 -5 -14 -23 -15
-145 -10 -90 3 -146 10 -155 18 -12 10 -18 9 -28 -5 -7 -10 -25 -17 -41 -17
-16 0 -134 1 -261 1 -189 1 -233 3 -233 14 0 8 6 18 14 22 19 10 707 10 724 0z
m1370 -4 c2 -8 -6 -13 -22 -13 -26 0 -40 12 -29 24 11 11 46 2 51 -11z m837 7
c4 -6 5 -13 3 -16 -5 -4 -176 -8 -235 -6 -20 1 -33 7 -33 15 0 18 254 24 265
7z m3295 -495 c0 -8 -4 -17 -10 -20 -6 -4 -10 5 -10 20 0 15 4 24 10 20 6 -3
10 -12 10 -20z m-10 -215 c0 -5 -2 -10 -4 -10 -3 0 -8 5 -11 10 -3 6 -1 10 4
10 6 0 11 -4 11 -10z m-3 -42 c-3 -8 -6 -5 -6 6 -1 11 2 17 5 13 3 -3 4 -12 1
-19z m15 -250 c-16 -16 -35 3 -26 26 6 16 8 16 22 2 13 -12 14 -18 4 -28z m3
-99 c9 -28 -3 -71 -18 -66 -12 4 -19 50 -12 75 7 19 23 14 30 -9z m-1 -669
c-1 -60 -10 -73 -24 -36 -16 43 -9 86 14 86 7 0 11 -18 10 -50z m1 -279 c3 -5
1 -12 -5 -16 -5 -3 -10 1 -10 9 0 18 6 21 15 7z m6 -128 c1 -10 1 -40 -1 -68
-2 -54 -20 -89 -20 -39 0 16 -4 43 -9 60 -9 31 1 64 19 64 6 0 11 -8 11 -17z
m-3128 -451 c9 -8 36 -16 60 -16 38 -1 42 -3 42 -26 0 -23 -4 -25 -65 -32
-138 -14 -250 -21 -250 -14 0 4 21 29 46 56 45 48 49 50 98 48 28 -1 59 -8 69
-16z m856 -28 c2 -2 1 -10 -3 -19 -4 -12 -17 -15 -53 -13 -51 3 -68 23 -31 37
20 9 76 5 87 -5z m211 1 c14 -17 -3 -29 -29 -20 -11 3 -22 1 -26 -5 -3 -5 -12
-10 -20 -10 -14 0 -28 27 -20 40 8 12 84 8 95 -5z m223 3 c34 -16 35 -30 2
-22 -14 3 -31 2 -38 -4 -16 -14 -149 -3 -144 12 2 6 30 12 63 14 32 1 64 4 69
6 17 7 20 7 48 -6z m217 -3 c0 -8 -9 -15 -20 -15 -22 0 -27 15 -7 23 21 9 27
7 27 -8z m608 6 c1 -1 -2 -10 -8 -21 -9 -17 -17 -20 -48 -14 -73 13 -69 43 5
39 27 -2 49 -4 51 -4z m-3520 -15 c11 -6 10 -12 -5 -28 -13 -15 -26 -19 -51
-14 -18 2 -58 1 -90 -5 -39 -6 -73 -5 -108 2 -34 8 -57 8 -69 2 -11 -7 -33 -7
-62 -1 -29 7 -48 6 -56 -1 -9 -7 -38 -7 -88 -2 -40 4 -106 4 -145 -1 -44 -5
-82 -5 -97 1 -27 10 -122 4 -149 -10 -9 -5 -36 -5 -60 -1 -23 4 -160 8 -303 7
-165 -1 -266 3 -278 9 -12 8 -22 8 -34 0 -12 -7 -31 -8 -57 -2 -25 6 -43 5
-50 -2 -13 -13 -28 -13 -61 0 -15 6 -23 15 -19 21 4 8 9 8 17 0 16 -16 37 -13
37 4 0 11 12 15 50 15 38 0 50 -4 50 -15 0 -19 16 -20 23 -2 6 16 55 19 272
18 177 -1 195 -1 228 -1 12 -1 47 0 77 0 50 2 92 2 138 0 63 -1 504 8 507 11
7 8 371 3 383 -5z m1773 -3 c22 -22 -1 -36 -50 -29 -69 10 -94 13 -120 14 -23
2 -23 3 -8 15 23 16 162 16 178 0z m319 2 l25 -14 -25 -2 c-14 -2 -54 -3 -90
-4 -36 -1 -80 -6 -97 -10 -20 -5 -33 -4 -33 2 0 6 -16 10 -36 9 -23 -1 -39 4
-42 12 -3 11 17 13 99 9 57 -2 118 0 134 4 17 3 32 7 35 7 3 1 16 -5 30 -13z
m719 1 c9 -11 6 -15 -16 -19 -35 -7 -47 1 -32 19 15 18 33 18 48 0z m161 10
c0 -2 3 -11 6 -20 4 -11 1 -16 -10 -16 -9 0 -16 2 -16 4 0 2 -3 11 -6 20 -4
11 -1 16 10 16 9 0 16 -2 16 -4z m274 -2 c9 -3 16 -10 16 -15 0 -13 -47 -11
-56 2 -4 8 -9 8 -17 0 -13 -13 -47 -15 -47 -2 0 18 70 28 104 15z m105 -10
c12 -10 -15 -23 -37 -18 -34 8 -36 10 -27 23 5 9 51 6 64 -5z m-1779 -4 c0 -5
-2 -10 -4 -10 -3 0 -8 5 -11 10 -3 6 -1 10 4 10 6 0 11 -4 11 -10z"/>
<path d="M18645 18347 c-48 -23 -105 -85 -105 -116 0 -17 -43 -91 -53 -91 -5
0 -7 40 -5 90 3 97 -7 124 -40 104 -13 -9 -17 -24 -16 -65 1 -30 1 -178 1
-329 -3 -793 -5 -725 20 -728 15 -2 27 5 39 23 18 28 17 111 -5 374 -5 57 -7
110 -4 118 8 21 40 -11 54 -56 21 -63 55 -105 107 -134 91 -50 217 -31 299 45
123 114 123 612 1 726 -35 31 -128 62 -190 62 -34 0 -71 -8 -103 -23z m184
-113 c55 -32 72 -73 83 -196 10 -124 -3 -291 -28 -340 -46 -89 -199 -92 -254
-4 -39 64 -50 303 -19 446 15 72 63 110 137 110 31 0 65 -7 81 -16z"/>
<path d="M18812 15576 c-11 -6 -34 -36 -50 -65 -25 -47 -39 -60 -93 -89 -112
-59 -110 -57 -107 -110 5 -71 22 -68 132 21 30 24 38 27 57 17 21 -12 22 -16
15 -129 -3 -64 -7 -199 -7 -300 -1 -167 0 -186 17 -198 26 -19 68 -16 88 6 16
17 17 54 17 418 0 220 -3 406 -6 415 -8 21 -37 28 -63 14z"/>
<path d="M18657 12785 c-66 -22 -143 -96 -153 -149 -8 -43 3 -69 30 -74 30 -6
64 7 71 28 3 10 19 33 35 49 27 30 32 31 109 31 97 0 122 -10 151 -62 53 -94
-8 -194 -232 -379 -80 -67 -132 -128 -169 -198 -20 -39 -20 -43 -5 -66 l16
-25 248 0 c247 0 249 0 270 23 27 29 29 78 3 101 -18 16 -34 17 -163 10 -162
-8 -182 -8 -203 0 -32 12 -11 37 94 115 60 44 130 104 155 133 157 177 151
373 -13 445 -71 32 -176 39 -244 18z"/>
<path d="M18735 10033 c-123 -16 -266 -170 -210 -226 9 -10 27 -17 39 -17 22
0 32 8 95 78 28 31 33 32 104 32 72 0 76 -1 101 -31 38 -45 37 -110 -3 -138
-19 -14 -45 -21 -75 -21 -61 0 -88 -26 -84 -78 3 -37 3 -37 48 -38 141 -1 218
-88 176 -198 -9 -24 -28 -54 -42 -67 -23 -21 -35 -24 -111 -24 -92 0 -96 2
-156 89 -19 28 -62 35 -98 16 -24 -13 -24 -41 0 -88 41 -79 125 -130 230 -139
60 -5 74 -2 120 20 79 40 115 72 147 129 23 44 28 65 28 123 0 86 -17 122 -79
166 -25 18 -45 36 -45 39 0 4 14 25 31 46 65 81 70 122 28 206 -35 69 -162
132 -244 121z"/>
<path d="M9085 19674 c-294 -31 -361 -44 -520 -105 -75 -28 -119 -69 -109
-101 10 -36 24 -48 55 -48 20 0 35 9 50 29 50 68 280 124 623 151 71 5 173 10
226 10 82 0 102 3 121 19 46 37 17 44 -203 47 -112 1 -221 0 -243 -2z"/>
<path d="M8996 19475 c-21 -7 -54 -28 -73 -47 -35 -33 -147 -194 -195 -278
-117 -206 -202 -392 -283 -615 -24 -66 -55 -144 -70 -173 -26 -50 -26 -54 -10
-78 37 -57 97 -54 134 6 10 17 38 100 61 183 23 84 53 181 67 217 13 36 34 90
45 120 84 222 304 590 353 590 8 0 28 -24 45 -52 33 -58 170 -396 170 -419 0
-12 -25 -18 -107 -28 -134 -17 -252 -50 -368 -105 -95 -45 -119 -64 -113 -92
7 -40 32 -38 134 9 103 47 141 60 312 107 59 17 122 42 149 59 26 17 52 31 59
31 25 0 25 -20 -2 -45 l-26 -25 47 -142 c61 -183 76 -214 112 -221 34 -6 53 8
53 39 0 13 -21 86 -46 161 -25 76 -48 163 -51 193 -4 34 -13 63 -25 76 -10 12
-43 86 -72 165 -103 282 -162 379 -229 379 -18 -1 -49 -7 -71 -15z"/>
<path d="M9942 18608 c-20 -20 -14 -43 24 -82 l36 -38 -29 -31 c-37 -42 -85
-111 -113 -166 -16 -32 -20 -54 -16 -79 6 -38 53 -94 99 -118 67 -36 228 -7
375 67 101 51 164 105 186 159 15 39 15 44 -3 85 -38 86 -141 137 -329 160
-62 8 -134 24 -159 35 -53 23 -55 24 -71 8z m295 -144 c68 -12 127 -48 146
-90 18 -36 18 -38 -1 -63 -26 -36 -100 -75 -211 -111 -140 -45 -221 -37 -221
23 0 23 41 96 80 145 32 39 140 113 157 107 6 -2 29 -7 50 -11z"/>
<path d="M8990 17175 c-341 -24 -501 -82 -434 -156 22 -25 41 -24 105 6 65 29
171 57 202 53 16 -2 22 -10 22 -28 0 -14 5 -36 12 -50 6 -14 22 -73 36 -131
14 -59 42 -146 62 -195 54 -131 56 -125 -49 -141 -129 -19 -202 -39 -283 -79
-82 -39 -133 -78 -133 -101 0 -16 38 -52 55 -53 6 0 26 13 46 29 19 16 51 38
72 50 37 21 325 101 363 101 17 0 22 -11 33 -75 15 -85 41 -128 75 -123 19 3
21 9 21 68 0 36 -4 82 -9 102 -8 35 -6 38 18 48 16 6 26 17 26 29 0 15 -10 22
-42 28 l-42 9 -34 89 c-35 94 -123 426 -115 435 3 3 86 7 186 10 151 4 188 8
220 24 38 19 48 40 23 49 -35 13 -259 14 -436 2z"/>
<path d="M8752 16935 c-105 -96 -273 -334 -360 -513 -28 -55 -60 -115 -72
-132 -28 -39 -23 -66 17 -91 31 -20 31 -20 50 0 10 11 38 69 62 128 60 151
206 393 303 502 39 45 69 94 82 139 12 37 -16 26 -82 -33z"/>
<path d="M9572 16368 c-7 -7 -12 -17 -12 -22 0 -17 67 -86 83 -86 36 0 37 -25
7 -113 -53 -154 -35 -255 59 -321 40 -29 49 -31 130 -31 75 0 94 4 143 29 72
36 166 120 184 163 62 148 -68 255 -418 343 -20 6 -60 19 -88 30 -59 23 -72
24 -88 8z m454 -252 c34 -29 44 -44 44 -68 0 -72 -114 -157 -224 -165 -60 -5
-63 -4 -89 27 -22 25 -27 42 -27 84 0 49 41 198 61 223 14 16 179 -55 235
-101z"/>
<path d="M8544 14670 c-159 -17 -204 -57 -141 -127 26 -29 31 -29 68 7 41 39
83 46 204 32 55 -6 136 -14 180 -18 44 -3 98 -10 120 -14 41 -9 252 -26 428
-34 78 -4 97 -3 97 9 0 20 -77 41 -235 65 -77 11 -185 27 -240 35 -83 13 -210
29 -380 49 -16 2 -62 0 -101 -4z"/>
<path d="M8719 14399 c-16 -17 -29 -39 -29 -49 0 -11 -34 -49 -77 -87 -215
-189 -425 -434 -498 -580 -21 -43 -47 -89 -57 -102 -26 -34 -23 -55 12 -85 50
-42 69 -22 110 114 26 87 36 103 63 96 11 -3 54 6 95 20 66 21 92 24 228 24
84 0 155 -4 158 -9 4 -5 6 -64 7 -131 0 -106 3 -124 20 -141 21 -21 44 -25 54
-9 20 33 33 122 28 196 l-6 80 32 14 c41 16 37 40 -8 55 -25 8 -37 19 -43 41
-16 56 -21 365 -9 459 12 87 12 90 -9 107 -30 24 -37 23 -71 -13z m-35 -156
c4 -9 4 -35 1 -57 -5 -34 -1 -112 18 -334 l2 -24 -170 -1 c-119 -2 -177 -6
-193 -15 -13 -7 -30 -12 -38 -10 -11 2 -4 18 27 58 23 30 44 57 49 60 24 16
187 211 226 270 46 70 66 84 78 53z"/>
<path d="M28397 14193 c-22 -11 -22 -12 -21 -285 1 -150 -2 -331 -7 -402 -10
-150 -4 -166 62 -166 66 0 71 18 58 203 -5 87 -7 162 -3 168 4 8 41 9 118 5
262 -16 268 -14 280 55 5 28 2 39 -13 53 -18 17 -33 18 -168 10 -188 -10 -194
-9 -209 11 -19 26 -14 210 6 228 12 11 49 12 180 7 201 -8 226 -6 251 16 22
20 26 88 7 101 -21 13 -515 10 -541 -4z"/>
<path d="M9253 13733 c-25 -9 -14 -50 20 -75 34 -26 139 -78 156 -78 16 0 14
-6 -23 -57 -42 -59 -117 -210 -141 -281 -12 -38 -16 -76 -14 -135 5 -96 21
-126 97 -177 47 -32 48 -32 144 -27 91 5 104 8 191 51 139 69 252 174 310 289
55 108 24 211 -85 281 -60 38 -205 90 -293 105 -139 24 -213 45 -274 77 -66
35 -68 36 -88 27z m369 -197 c152 -42 223 -74 262 -117 27 -29 36 -48 36 -74
0 -129 -228 -319 -417 -347 -87 -13 -118 -2 -140 49 -13 32 -14 50 -5 113 8
61 23 101 78 209 69 138 71 144 59 174 -10 24 20 23 127 -7z"/>
<path d="M8503 11859 c-19 -19 -16 -53 6 -73 14 -13 48 -20 123 -27 57 -4 150
-13 208 -19 58 -7 276 -13 485 -13 367 -2 382 -1 430 19 55 24 70 50 33 58
-13 3 -212 7 -443 9 -363 4 -440 8 -570 26 -221 32 -258 35 -272 20z"/>
<path d="M8710 11571 c-5 -11 -10 -40 -10 -64 l0 -45 -40 5 c-46 6 -55 -11
-15 -29 16 -7 24 -17 20 -26 -3 -7 -5 -18 -5 -22 0 -5 -24 -37 -52 -71 -29
-34 -82 -101 -118 -148 l-65 -86 -90 -18 c-107 -20 -136 -41 -116 -83 11 -24
15 -26 51 -20 24 4 40 2 40 -4 0 -15 -53 -73 -214 -237 -133 -135 -154 -153
-183 -153 -38 0 -48 -14 -57 -84 -8 -66 2 -76 67 -70 29 3 65 10 80 16 36 14
128 116 174 193 20 33 50 78 67 100 18 22 39 51 48 65 9 14 57 69 108 123 84
88 95 97 128 97 21 0 69 7 107 15 39 8 75 15 81 15 11 0 45 -377 44 -497 0
-53 3 -64 21 -73 29 -16 55 10 68 69 10 49 1 232 -20 398 -7 51 -10 95 -7 98
2 3 45 7 94 9 94 4 119 10 127 30 13 32 -11 41 -112 41 -61 0 -105 5 -112 12
-8 8 -11 77 -10 219 1 180 -1 210 -16 226 -22 24 -69 24 -83 -1z m5 -387 l0
-79 -72 -3 c-40 -2 -73 0 -73 4 0 21 121 165 135 161 6 -2 10 -39 10 -83z"/>
<path d="M25540 10845 c0 -8 5 -15 10 -15 6 0 10 7 10 15 0 8 -4 15 -10 15 -5
0 -10 -7 -10 -15z"/>
<path d="M9350 10808 c-47 -5 -121 -10 -165 -11 -44 -2 -86 -6 -92 -10 -21
-13 -15 -37 16 -68 34 -34 53 -35 164 -14 152 29 357 10 485 -45 199 -86 124
-274 -137 -340 -64 -17 -222 -14 -286 5 -62 18 -91 50 -81 90 10 38 63 93 104
105 61 20 112 57 112 83 0 29 -18 47 -47 47 -42 0 -176 -76 -228 -130 -47 -48
-50 -54 -50 -103 0 -45 5 -59 34 -96 66 -83 162 -121 304 -121 160 0 291 48
396 145 77 72 105 139 91 215 -12 64 -19 76 -72 126 -67 65 -185 110 -313 119
-38 3 -88 7 -110 9 -22 1 -78 -1 -125 -6z"/>
<path d="M20762 7378 c-7 -7 -12 -18 -12 -25 0 -8 -14 -13 -38 -13 -21 0 -42
-3 -45 -7 -14 -14 17 -33 55 -33 74 0 127 54 79 80 -24 13 -24 13 -39 -2z"/>
<path d="M19137 5353 c-66 -22 -118 -81 -147 -169 -21 -61 -23 -88 -23 -239 0
-157 2 -176 26 -251 32 -95 51 -123 111 -158 38 -22 56 -26 128 -26 75 0 88 3
130 30 75 47 110 112 134 246 18 108 16 197 -7 318 -33 168 -79 230 -188 253
-74 16 -107 15 -164 -4z m187 -142 c44 -37 59 -98 63 -251 7 -253 -29 -330
-154 -330 -46 0 -58 4 -89 33 -48 44 -64 113 -64 289 0 199 20 266 85 281 38
8 140 -5 159 -22z"/>
<path d="M18432 4558 c7 -20 48 -23 48 -4 0 11 -9 16 -26 16 -16 0 -24 -5 -22
-12z"/>
<path d="M18429 4484 c-11 -13 -11 -20 2 -42 8 -15 21 -27 29 -27 8 0 21 12
29 27 13 22 13 29 2 42 -7 9 -21 16 -31 16 -10 0 -24 -7 -31 -16z"/>
<path d="M9370 3620 c0 -5 5 -10 10 -10 6 0 10 5 10 10 0 6 -4 10 -10 10 -5 0
-10 -4 -10 -10z"/>
<path d="M9550 3610 c0 -5 5 -10 11 -10 5 0 7 5 4 10 -3 6 -8 10 -11 10 -2 0
-4 -4 -4 -10z"/>
<path d="M10374 3509 c-9 -15 12 -33 30 -26 9 4 16 13 16 22 0 17 -35 21 -46
4z"/>
<path d="M10080 3484 c0 -17 22 -14 28 4 2 7 -3 12 -12 12 -9 0 -16 -7 -16
-16z"/>
<path d="M10455 3431 c-10 -17 4 -31 31 -31 19 0 25 5 22 18 -4 19 -43 29 -53
13z"/>
<path d="M7237 3224 c-31 -17 -33 -47 -5 -52 17 -3 68 42 68 59 0 14 -32 10
-63 -7z"/>
<path d="M15454 3202 c-14 -9 -224 -319 -224 -330 0 -4 -21 -43 -46 -87 -136
-238 -257 -499 -284 -615 -7 -30 -16 -62 -20 -70 -4 -8 -20 -84 -35 -169 -22
-127 -24 -159 -14 -183 17 -42 56 -48 86 -14 20 23 23 38 23 107 0 131 36 335
80 454 51 138 340 685 398 753 l23 27 -6 -120 c-4 -66 -9 -221 -11 -345 -3
-166 -7 -226 -16 -231 -7 -4 -58 -17 -113 -29 -206 -44 -265 -70 -265 -118 0
-58 -7 -59 268 30 68 22 125 38 127 36 7 -7 8 -475 1 -495 -11 -33 27 -113 53
-113 30 0 53 41 47 82 -3 18 -10 145 -16 283 -8 198 -8 251 2 261 36 33 207
67 343 68 85 1 100 3 103 18 5 27 -54 51 -139 56 -55 3 -108 -2 -185 -18 -60
-12 -113 -23 -119 -23 -14 -3 -14 254 1 458 18 255 18 291 -6 315 -21 21 -38
25 -56 12z"/>
<path d="M19308 2498 c-8 -7 -27 -34 -41 -59 -30 -54 -76 -96 -127 -116 -73
-31 -113 -96 -78 -131 22 -22 49 -13 102 33 53 45 89 57 99 32 2 -7 3 -144 0
-305 -2 -197 0 -298 7 -312 15 -28 73 -27 101 1 20 20 21 29 15 108 -3 47 -6
231 -7 408 0 276 -2 325 -15 338 -19 18 -35 19 -56 3z"/>
<path d="M11440 1601 c0 -6 5 -13 10 -16 6 -3 10 1 10 9 0 9 -4 16 -10 16 -5
0 -10 -4 -10 -9z"/>
<path d="M11455 1540 c-3 -5 -1 -10 4 -10 6 0 11 5 11 10 0 6 -2 10 -4 10 -3
0 -8 -4 -11 -10z"/>
<path d="M11460 1458 c0 -57 23 -108 35 -78 9 24 -8 123 -23 128 -8 2 -12 -12
-12 -50z"/>
<path d="M16459 1463 c-25 -4 -45 -34 -31 -47 9 -9 66 -7 82 4 11 7 12 14 4
27 -12 19 -19 21 -55 16z"/>
</g>
</svg>
