<?xml version="1.0" standalone="no"?>
<!DOCTYPE svg PUBLIC "-//W3C//DTD SVG 20010904//EN"
 "http://www.w3.org/TR/2001/REC-SVG-20010904/DTD/svg10.dtd">
<svg version="1.0" xmlns="http://www.w3.org/2000/svg"
 width="3264.000000pt" height="2448.000000pt" viewBox="0 0 3264.000000 2448.000000"
 preserveAspectRatio="xMidYMid meet">
<metadata>
Created by potrace 1.12, written by Peter Selinger 2001-2015
</metadata>
<g transform="translate(0.000000,2448.000000) scale(0.100000,-0.100000)"
fill="#000000" stroke="none">
<path d="M19958 24473 c17 -2 47 -2 65 0 17 2 3 4 -33 4 -36 0 -50 -2 -32 -4z"/>
<path d="M20068 24473 c7 -3 16 -2 19 1 4 3 -2 6 -13 5 -11 0 -14 -3 -6 -6z"/>
<path d="M20133 24473 c9 -2 23 -2 30 0 6 3 -1 5 -18 5 -16 0 -22 -2 -12 -5z"/>
<path d="M20228 24468 c17 -8 26 -8 34 0 9 9 4 12 -22 11 -33 0 -34 -1 -12
-11z"/>
<path d="M20304 24472 c7 -11 174 -13 181 -2 4 6 -30 10 -90 10 -53 0 -94 -4
-91 -8z"/>
<path d="M20513 24467 c5 -15 98 -16 94 -2 -1 5 -24 11 -50 12 -33 1 -47 -2
-44 -10z"/>
<path d="M20642 24468 c5 -13 57 -19 293 -33 130 -8 135 -9 200 -6 59 2 111
-6 143 -22 18 -8 31 -8 55 2 35 14 90 14 267 2 63 -4 131 -8 150 -8 75 -2 536
-15 559 -16 31 -2 38 18 11 33 -16 9 -25 9 -35 0 -10 -8 -19 -8 -33 -1 -17 9
-255 25 -337 22 -96 -3 -209 0 -218 6 -10 6 -212 15 -262 11 -44 -3 -117 -1
-255 6 -216 11 -381 13 -386 4 -7 -11 -52 -10 -59 2 -9 15 -98 13 -93 -2z"/>
<path d="M22387 24412 c-40 -16 9 -30 123 -36 63 -3 178 -8 256 -12 105 -5
143 -4 149 5 13 22 -5 26 -123 28 -150 2 -334 11 -364 17 -13 3 -31 2 -41 -2z"/>
<path d="M31165 24400 c-3 -5 1 -10 9 -10 9 0 16 5 16 10 0 6 -4 10 -9 10 -6
0 -13 -4 -16 -10z"/>
<path d="M23002 24393 c-36 -3 -52 -8 -49 -16 4 -14 102 -24 250 -26 155 -2
113 26 -50 34 -37 1 -75 5 -83 7 -8 2 -39 3 -68 1z"/>
<path d="M6006 24365 c-24 -37 -21 -73 8 -81 57 -14 80 18 57 79 -13 34 -43
35 -65 2z"/>
<path d="M23325 24369 c-15 -23 -9 -23 238 -32 56 -3 103 -9 110 -16 14 -14
74 -15 82 0 4 6 22 8 45 4 21 -4 47 -2 57 3 10 6 25 7 33 2 8 -4 93 -11 188
-14 149 -5 172 -4 172 9 0 12 -15 15 -72 16 -121 1 -278 8 -373 18 -104 11
-270 15 -387 10 -20 -1 -48 1 -62 5 -14 3 -28 1 -31 -5z"/>
<path d="M24274 24329 c-13 -22 24 -29 161 -29 77 0 158 -4 180 -8 23 -5 54
-4 73 2 22 7 39 6 50 0 9 -6 89 -11 177 -12 88 -1 239 -7 335 -12 96 -5 255
-12 353 -14 98 -3 182 -8 187 -11 8 -5 351 -18 450 -17 19 0 94 -4 165 -9 72
-5 213 -11 315 -14 102 -3 226 -8 275 -11 165 -9 215 -8 228 5 9 9 9 14 -3 21
-13 9 -109 16 -135 10 -33 -7 -102 -7 -110 0 -5 4 -149 10 -320 14 -170 4
-326 9 -345 12 -19 3 -69 4 -111 4 -46 -1 -85 4 -97 11 -14 9 -27 9 -52 1 -18
-7 -36 -9 -41 -7 -4 3 -86 8 -181 10 -95 3 -245 10 -333 15 -139 8 -273 12
-340 9 -11 -1 -65 2 -120 6 -55 4 -152 9 -215 11 -147 4 -330 11 -447 18 -61
3 -95 2 -99 -5z"/>
<path d="M27264 24208 c-11 -18 8 -23 94 -26 172 -5 218 0 206 19 -3 6 -34 9
-67 8 -34 -1 -99 1 -144 4 -49 3 -85 1 -89 -5z"/>
<path d="M27765 24201 c-4 -8 -36 -10 -97 -6 -69 4 -89 2 -86 -7 5 -14 11 -14
368 -21 119 -2 220 -9 240 -15 23 -8 52 -9 80 -4 25 4 88 4 140 0 52 -4 109
-7 125 -7 17 1 39 1 50 1 11 -1 66 -3 122 -5 56 -1 105 -5 108 -9 9 -9 178 3
193 15 8 6 16 6 25 -1 6 -5 50 -13 97 -17 46 -4 95 -11 107 -16 13 -5 33 -5
46 -1 19 7 125 7 399 -1 43 -1 78 1 78 4 0 3 -17 14 -39 23 -32 15 -54 17
-132 11 -74 -6 -106 -3 -152 10 -45 13 -61 14 -72 5 -8 -7 -23 -9 -32 -6 -21
8 -503 9 -511 2 -3 -3 -10 -2 -16 3 -17 13 -126 21 -174 12 -23 -5 -45 -5 -47
0 -3 4 -67 8 -143 9 -235 1 -553 14 -623 25 -31 4 -49 3 -54 -4z"/>
<path d="M30440 24191 c0 -16 20 -23 46 -17 36 9 29 26 -11 26 -19 0 -35 -4
-35 -9z"/>
<path d="M29907 24130 c-106 -9 -61 -33 63 -33 129 0 142 2 138 21 -3 14 -15
17 -73 17 -39 0 -96 -2 -128 -5z"/>
<path d="M29785 24120 c-3 -5 3 -10 14 -10 12 0 21 5 21 10 0 6 -6 10 -14 10
-8 0 -18 -4 -21 -10z"/>
<path d="M30197 24124 c-11 -11 3 -24 24 -24 12 0 19 5 17 13 -5 14 -31 21
-41 11z"/>
<path d="M30422 24108 c7 -20 68 -23 68 -4 0 12 -10 16 -36 16 -24 0 -34 -4
-32 -12z"/>
<path d="M30551 24112 c-9 -6 -10 -12 -3 -16 6 -4 126 -8 267 -11 220 -3 255
-2 245 11 -10 11 -43 13 -154 13 -77 -1 -186 2 -241 5 -58 4 -106 3 -114 -2z"/>
<path d="M31101 24101 c-11 -7 -9 -11 8 -21 28 -15 66 -9 66 10 0 17 -52 25
-74 11z"/>
<path d="M31510 24100 c-7 -5 -47 -6 -89 -3 -41 2 -91 1 -110 -2 -33 -7 -34
-8 -14 -16 12 -4 48 -8 80 -8 114 0 129 0 186 -1 83 -3 98 17 19 25 -23 2 -45
6 -50 9 -4 2 -14 1 -22 -4z"/>
<path d="M31674 24096 c-30 -22 -6 -36 62 -36 63 0 86 13 42 23 -13 3 -37 10
-55 15 -23 8 -36 7 -49 -2z"/>
<path d="M31200 24090 c0 -5 6 -10 14 -10 8 0 18 5 21 10 3 6 -3 10 -14 10
-12 0 -21 -4 -21 -10z"/>
<path d="M31833 24083 c-50 -18 70 -37 147 -23 37 6 39 8 14 9 -17 0 -34 4
-37 8 -8 7 -106 12 -124 6z"/>
<path d="M32164 24068 c-3 -5 -3 -12 0 -15 12 -12 252 -21 263 -9 12 12 -20
26 -57 25 -19 0 -72 2 -118 4 -45 2 -85 0 -88 -5z"/>
<path d="M32620 24060 c-8 -5 -23 -7 -33 -4 -19 6 -50 -13 -42 -26 2 -4 25 -7
50 -8 41 0 45 2 45 24 0 27 0 27 -20 14z"/>
<path d="M14834 21178 c-5 -7 -25 -47 -46 -88 -21 -41 -51 -95 -66 -120 -33
-53 -214 -426 -237 -491 -82 -223 -113 -326 -175 -577 -32 -130 -30 -162 10
-162 27 0 49 38 59 101 46 278 146 575 305 904 35 72 79 164 98 205 44 92 63
119 76 105 6 -6 13 -216 16 -515 4 -278 9 -513 12 -522 8 -27 51 -33 91 -14
27 13 41 30 63 79 36 79 63 162 84 252 50 214 111 411 162 523 31 68 50 87 59
60 2 -7 11 -154 21 -326 14 -269 14 -390 2 -562 -3 -32 0 -35 24 -38 33 -4 41
11 57 114 11 76 0 434 -19 614 -6 52 -13 145 -15 205 -2 61 -7 120 -10 132
-10 31 -35 37 -65 16 -23 -17 -110 -175 -144 -263 -52 -132 -82 -226 -117
-370 -66 -271 -102 -365 -126 -328 -4 7 -7 177 -5 378 4 405 -8 616 -36 665
-19 32 -64 46 -78 23z"/>
<path d="M22690 20935 c-20 -24 -239 -473 -271 -555 -35 -89 -37 -137 -8 -174
22 -28 55 -33 92 -15 33 16 124 117 158 174 16 28 43 66 60 85 l30 35 -6 -65
c-3 -36 -11 -81 -16 -100 -17 -58 -8 -110 24 -133 25 -20 31 -20 89 -8 63 13
152 54 200 93 l27 21 59 -26 c68 -31 118 -33 207 -12 33 8 68 15 78 15 22 0
23 -36 0 -91 -25 -63 -129 -252 -191 -349 -30 -47 -70 -109 -88 -137 -19 -29
-34 -56 -34 -61 0 -5 -11 -19 -25 -32 -14 -13 -25 -29 -25 -37 0 -7 -4 -13
-10 -13 -5 0 -10 -10 -10 -22 0 -20 6 -17 43 23 82 89 174 206 233 299 20 30
45 68 56 83 10 15 41 71 68 125 90 179 114 293 62 300 -13 2 -47 -4 -75 -13
-110 -36 -219 -37 -253 -3 -12 12 -11 22 8 66 20 48 21 53 6 69 -16 15 -19 15
-42 0 -13 -9 -28 -27 -32 -39 -29 -94 -230 -221 -300 -190 -31 15 -31 34 5
141 41 121 48 174 27 207 -12 17 -25 24 -39 22 -23 -3 -79 -71 -126 -153 -38
-66 -158 -195 -181 -195 -23 0 -31 22 -21 57 16 54 145 310 244 484 41 74 47
113 18 129 -25 13 -26 13 -41 -5z"/>
<path d="M19854 20904 c-17 -25 -43 -106 -70 -219 -33 -138 -105 -317 -186
-466 -67 -122 -72 -137 -53 -165 8 -13 20 -24 25 -24 26 0 83 69 116 139 75
161 128 250 173 288 42 36 55 30 48 -21 -8 -59 -61 -223 -103 -319 -38 -87
-41 -105 -18 -114 46 -17 98 98 194 432 18 63 23 125 10 140 -24 29 -57 17
-125 -47 -39 -36 -70 -57 -75 -52 -5 5 3 38 20 79 65 161 113 296 113 320 0
28 -19 55 -39 55 -7 0 -21 -11 -30 -26z"/>
<path d="M20162 20748 c-31 -31 11 -91 52 -75 25 10 32 58 11 74 -23 16 -47
17 -63 1z"/>
<path d="M22310 20704 c-30 -7 -95 -23 -145 -34 -49 -12 -106 -26 -125 -31
-19 -6 -53 -15 -75 -20 -98 -25 -187 -100 -292 -247 -50 -70 -89 -169 -99
-254 -6 -50 -4 -57 14 -67 16 -8 25 -7 43 8 20 16 23 26 21 79 -2 39 4 76 15
104 24 61 182 249 240 286 85 53 252 95 173 43 -107 -70 -195 -256 -161 -338
16 -38 69 -73 112 -73 53 0 132 45 200 113 74 75 88 97 61 97 -11 0 -26 -7
-33 -16 -13 -16 -100 -75 -148 -101 -28 -16 -75 -17 -102 -3 -27 15 -25 79 5
138 13 26 49 70 79 99 58 55 110 83 242 130 65 23 81 33 83 51 4 27 -14 52
-37 51 -9 0 -41 -7 -71 -15z"/>
<path d="M18224 20554 c-16 -8 -66 -49 -110 -92 -97 -92 -140 -170 -179 -322
-24 -94 -25 -104 -10 -126 21 -33 37 -30 74 11 34 39 36 47 20 76 -14 27 23
159 61 219 43 67 125 144 145 136 13 -5 15 -15 10 -53 -4 -27 -11 -62 -16 -78
-5 -17 -10 -63 -12 -104 -2 -71 -1 -73 31 -102 60 -54 113 -30 197 90 31 44
70 95 88 113 l32 33 3 -25 c3 -24 -38 -170 -92 -330 -29 -87 -84 -270 -96
-320 -4 -19 -16 -69 -25 -110 -19 -83 -63 -188 -89 -209 -21 -18 -20 -28 5
-41 42 -23 94 44 113 145 13 70 73 269 156 516 83 249 94 287 112 377 17 90
-13 123 -80 88 -27 -14 -69 -63 -160 -185 -60 -81 -81 -96 -107 -77 -22 16
-22 49 0 170 32 170 8 238 -71 200z"/>
<path d="M16220 20553 c-51 -17 -82 -38 -127 -86 -55 -58 -81 -102 -108 -187
-10 -30 -21 -60 -26 -66 -11 -13 23 -195 45 -244 32 -71 77 -106 152 -115 42
-6 58 -3 100 18 58 29 125 95 160 156 23 41 32 81 18 81 -4 0 -35 -29 -69 -64
-72 -73 -133 -109 -187 -109 -73 0 -120 62 -122 161 l-1 54 95 57 c106 63 254
199 266 245 16 63 -111 128 -196 99z m103 -83 c24 -22 -47 -99 -172 -183 -97
-67 -121 -36 -53 69 44 68 91 111 130 120 15 3 32 7 37 9 13 4 47 -5 58 -15z"/>
<path d="M21350 20525 c-41 -12 -124 -37 -185 -55 -176 -52 -243 -95 -327
-207 -40 -55 -48 -92 -23 -113 23 -19 48 -3 85 57 48 78 115 141 180 170 67
31 107 43 114 36 3 -3 -16 -33 -42 -67 -117 -149 -134 -232 -52 -266 66 -27
181 17 291 111 37 33 70 59 73 59 10 0 7 -63 -5 -104 -9 -31 -8 -41 4 -53 23
-23 43 7 56 84 7 37 23 99 37 138 27 75 25 115 -5 115 -11 0 -48 -35 -92 -86
-92 -108 -220 -193 -292 -194 -37 0 -44 22 -21 72 32 71 129 160 219 202 118
54 127 59 138 77 6 9 7 24 4 33 -9 23 -65 20 -157 -9z"/>
<path d="M16857 20508 c-16 -13 -67 -124 -109 -238 -19 -54 -44 -112 -93 -217
-14 -29 -29 -53 -35 -53 -25 0 4 275 41 396 11 36 17 74 14 84 -9 29 -58 27
-72 -2 -36 -76 -80 -561 -54 -592 40 -48 117 12 149 116 12 37 25 75 30 85 6
10 22 50 36 88 33 87 42 103 54 90 6 -6 6 -46 2 -100 -5 -49 -9 -105 -9 -122
-1 -41 29 -73 67 -73 41 0 70 33 176 203 61 98 69 73 35 -113 -20 -116 -19
-160 5 -160 27 0 44 37 55 120 7 47 18 121 27 165 43 232 43 255 1 255 -32 0
-42 -13 -126 -161 -76 -134 -133 -209 -158 -209 -14 0 -15 12 -9 92 3 51 13
146 22 210 9 65 14 125 10 133 -7 18 -36 19 -59 3z"/>
<path d="M20555 20491 c-22 -16 -51 -48 -65 -72 -14 -23 -38 -55 -53 -71 -24
-22 -27 -33 -22 -57 4 -17 1 -64 -5 -105 -9 -62 -9 -80 4 -110 17 -41 35 -51
70 -42 36 9 44 45 16 66 -22 16 -23 21 -14 81 9 62 11 65 57 95 63 41 94 71
123 116 41 64 26 109 -41 122 -23 4 -39 -1 -70 -23z m32 -95 c-7 -17 -47 -41
-47 -28 0 12 41 54 47 48 3 -3 3 -12 0 -20z"/>
<path d="M17540 20491 c-45 -10 -128 -52 -161 -83 -27 -25 -47 -96 -34 -118
14 -22 45 -9 64 28 34 67 79 97 171 113 73 12 117 1 147 -37 22 -29 25 -44 25
-102 -1 -167 -73 -310 -156 -312 -18 0 -19 6 -12 94 3 52 16 129 28 172 11 44
21 93 22 109 1 26 -3 30 -24 30 -20 0 -30 -10 -47 -45 -42 -85 -70 -349 -43
-401 15 -27 62 -49 91 -42 13 3 49 30 80 60 90 88 129 186 129 329 0 98 -12
135 -53 167 -59 44 -133 57 -227 38z"/>
<path d="M20187 20436 c-8 -8 -22 -48 -31 -88 -9 -39 -30 -96 -46 -125 -17
-29 -30 -60 -30 -68 0 -23 35 -18 70 11 77 65 132 274 74 282 -12 2 -28 -4
-37 -12z"/>
<path d="M9321 19032 c-50 -52 -181 -208 -181 -216 0 -3 -29 -52 -65 -108 -37
-57 -91 -155 -121 -218 -31 -63 -64 -131 -75 -151 -10 -20 -19 -43 -19 -51 0
-8 -21 -64 -46 -124 -25 -60 -51 -122 -57 -139 -37 -101 -131 -228 -216 -292
-15 -11 -15 -13 0 -28 39 -40 123 19 204 145 60 92 118 215 170 362 70 197
155 364 265 523 8 12 25 36 37 55 12 18 63 78 113 132 97 104 108 132 61 150
-20 7 -30 1 -70 -40z"/>
<path d="M11626 19047 c-17 -13 -35 -104 -36 -182 0 -22 -5 -56 -10 -76 l-10
-36 -133 0 c-149 1 -236 -18 -274 -59 -12 -13 -25 -24 -28 -24 -3 0 -23 11
-44 25 -26 18 -57 27 -104 32 -37 3 -71 11 -77 17 -6 8 1 27 20 57 33 48 38
80 16 99 -33 26 -60 8 -101 -70 l-40 -75 -115 -1 c-89 -1 -129 -6 -179 -23
-57 -20 -65 -20 -86 -7 -39 26 -147 56 -199 56 -76 0 -83 9 -52 63 22 36 25
49 16 71 -6 18 -17 26 -33 26 -25 0 -57 -28 -57 -49 0 -13 -48 -111 -54 -111
-2 0 -49 -9 -105 -20 -116 -24 -201 -64 -215 -102 -23 -65 22 -146 104 -190
84 -44 83 -42 61 -128 -10 -41 -24 -102 -31 -135 -7 -33 -14 -66 -16 -73 -7
-23 -35 -25 -58 -3 -28 26 -36 27 -36 0 0 -12 19 -40 43 -63 23 -22 49 -54 57
-71 23 -45 54 -41 60 9 5 38 6 38 91 70 153 58 264 164 264 252 0 70 -50 106
-170 123 -37 6 -72 14 -77 19 -15 15 90 255 116 265 21 8 240 -39 269 -57 13
-9 34 -38 46 -64 30 -63 73 -96 173 -132 81 -29 102 -44 93 -67 -2 -7 -13 -63
-25 -125 -11 -62 -23 -123 -25 -135 -5 -23 -87 -73 -119 -73 -8 0 -24 16 -35
36 -12 19 -27 34 -34 32 -22 -8 -19 -62 6 -98 23 -34 24 -35 89 -33 l66 2 -5
-63 c-9 -102 34 -160 74 -100 13 20 14 30 5 44 -11 18 -6 148 7 168 8 12 106
73 163 102 69 34 99 70 105 124 7 63 -10 85 -101 129 -87 43 -86 35 -37 182
31 94 37 97 142 66 49 -16 74 -29 86 -47 14 -22 22 -25 51 -20 29 4 41 0 70
-25 52 -46 136 -79 219 -86 40 -3 78 -11 83 -18 7 -9 3 -43 -14 -111 -23 -96
-57 -244 -71 -313 -6 -27 -15 -37 -51 -53 -49 -21 -78 -17 -94 13 -6 10 -17
19 -25 19 -24 0 -18 -54 10 -84 19 -21 33 -26 71 -26 l47 0 -6 -44 c-4 -24
-16 -71 -27 -105 -26 -73 -24 -105 7 -109 32 -5 53 45 109 251 15 54 21 61
127 153 138 118 203 193 222 258 19 64 19 72 -5 106 -22 31 -73 54 -143 64
-29 5 -51 14 -54 23 -7 17 16 122 31 142 25 32 208 -32 257 -91 31 -37 59 -33
59 8 0 56 -78 100 -257 144 -41 10 -43 13 -43 48 0 20 4 52 10 70 5 19 12 71
16 117 6 76 5 84 -13 94 -15 7 -25 7 -37 -2z m-1614 -357 c-4 -39 -74 -201
-89 -207 -42 -16 -123 48 -123 98 0 17 5 39 10 50 12 21 73 55 135 75 55 18
71 14 67 -16z m771 -2 c4 -14 -28 -140 -44 -169 -13 -25 -26 -24 -104 7 -69
28 -125 71 -125 98 0 8 18 25 40 36 66 33 224 52 233 28z m765 -4 c10 -3 12
-15 7 -47 -12 -71 -31 -107 -57 -107 -32 0 -202 47 -238 65 -40 21 -39 50 3
71 47 25 228 36 285 18z m147 -256 c57 -28 58 -46 5 -126 -75 -113 -224 -245
-195 -173 10 23 65 242 65 257 0 7 4 24 10 38 12 33 52 35 115 4z m-1557 -39
c42 -14 54 -36 37 -75 -23 -54 -189 -184 -236 -184 -20 0 -21 3 -15 48 8 61
31 151 51 198 l15 36 57 -6 c32 -4 73 -12 91 -17z m743 -10 c21 -17 39 -37 39
-45 0 -34 -119 -134 -160 -134 -5 0 -10 12 -10 28 0 38 28 153 42 169 17 21
47 15 89 -18z"/>
<path d="M4306 18958 c-25 -82 -31 -175 -36 -573 -3 -260 -2 -270 19 -296 16
-20 21 -22 36 -9 14 12 16 29 9 145 l-6 131 28 13 c36 17 178 47 309 65 55 8
120 19 145 25 62 14 117 20 123 15 3 -3 -6 -24 -18 -47 -13 -23 -29 -62 -35
-87 -14 -58 -2 -93 42 -120 60 -36 140 -22 218 40 51 40 68 39 75 -7 10 -61
65 -164 94 -176 14 -6 33 -16 41 -23 26 -21 122 -44 184 -44 110 0 210 69 238
163 16 53 -5 108 -67 176 -105 116 -111 131 -74 204 34 65 126 147 221 196 47
24 90 41 96 37 17 -10 21 -74 14 -206 l-7 -125 -30 -9 c-126 -38 -173 -72
-142 -103 13 -13 19 -12 55 6 22 11 59 24 83 27 l42 7 -7 -64 c-3 -35 -11
-120 -16 -189 -9 -113 -8 -126 7 -138 15 -10 21 -9 41 12 23 22 24 32 28 167
3 79 7 160 9 179 2 19 4 38 4 41 2 16 65 29 155 31 78 2 103 6 120 20 20 17
20 19 3 32 -12 9 -37 12 -90 8 -39 -2 -97 -5 -127 -6 l-55 -1 1 40 c8 274 8
283 -9 309 -24 36 -75 35 -155 -4 -34 -16 -65 -30 -67 -30 -8 0 -108 -70 -133
-94 -95 -88 -123 -130 -137 -214 -8 -51 2 -69 87 -157 34 -35 63 -75 70 -97
10 -33 8 -41 -12 -71 -36 -53 -81 -77 -144 -77 -103 0 -185 47 -232 133 -24
45 -26 58 -26 167 0 98 -2 119 -15 124 -20 8 -43 -11 -43 -36 0 -51 -69 -142
-131 -174 -93 -46 -156 -23 -139 52 9 40 48 94 88 122 32 24 128 57 191 67 45
7 85 37 78 58 -8 26 -82 18 -207 -24 -104 -34 -150 -43 -275 -55 -224 -21
-281 -30 -423 -65 -37 -9 -56 -9 -63 -2 -13 13 6 330 21 348 22 27 169 64 280
71 25 2 102 7 172 11 69 4 130 12 135 16 4 5 -1 15 -11 23 -41 29 -386 8 -504
-32 -60 -20 -62 -19 -62 24 0 21 -5 43 -12 50 -16 16 -48 15 -52 0z"/>
<path d="M12811 18956 c-6 -7 -22 -43 -36 -81 -28 -79 -72 -155 -161 -280 -99
-139 -120 -165 -187 -235 -81 -83 -162 -191 -229 -305 -48 -80 -108 -197 -108
-210 0 -3 -18 -47 -41 -97 -23 -51 -50 -113 -61 -138 -11 -25 -26 -57 -34 -72
-8 -14 -14 -32 -14 -40 0 -7 -9 -24 -20 -38 -23 -29 -26 -70 -6 -70 19 0 45
27 63 65 8 16 28 53 44 80 16 28 63 120 104 205 41 85 94 191 117 235 48 92
182 276 280 385 154 170 293 383 338 518 16 50 18 67 9 78 -15 18 -43 18 -58
0z"/>
<path d="M18707 18895 c-21 -24 -93 -90 -160 -146 -67 -56 -201 -175 -297
-264 -96 -89 -218 -200 -270 -245 -52 -46 -118 -104 -145 -129 -28 -25 -86
-75 -128 -111 -43 -36 -97 -82 -120 -103 -23 -21 -82 -73 -132 -114 -116 -97
-235 -204 -360 -323 -55 -52 -116 -108 -135 -124 -44 -38 -565 -543 -645 -626
-33 -34 -118 -119 -189 -189 -71 -69 -159 -155 -195 -191 -90 -89 -295 -302
-416 -434 -55 -60 -109 -119 -120 -130 -28 -30 -84 -95 -125 -147 -19 -24 -58
-69 -86 -99 -55 -60 -202 -240 -331 -407 -46 -58 -92 -112 -103 -120 -12 -8
-32 -33 -46 -55 -14 -21 -49 -65 -77 -97 -86 -97 -195 -228 -291 -350 -50 -64
-137 -171 -193 -239 -57 -67 -103 -126 -103 -131 0 -5 -17 -27 -39 -49 -21
-22 -71 -82 -110 -133 -184 -243 -223 -294 -230 -299 -7 -5 -176 -232 -245
-328 -17 -24 -53 -71 -81 -104 -27 -33 -54 -68 -60 -77 -12 -20 -67 -92 -110
-142 -16 -20 -38 -47 -48 -60 -19 -26 -273 -345 -313 -394 -13 -16 -42 -52
-64 -78 -22 -27 -40 -52 -40 -56 0 -5 -24 -35 -52 -69 -29 -33 -75 -88 -102
-123 -28 -35 -61 -75 -74 -89 -18 -19 -189 -235 -233 -295 -4 -5 -25 -30 -47
-55 -21 -25 -61 -73 -88 -108 -50 -65 -126 -160 -202 -254 -23 -29 -62 -77
-85 -107 -54 -68 -179 -217 -215 -256 -16 -16 -50 -59 -77 -95 -27 -36 -67
-83 -89 -105 -23 -22 -49 -50 -59 -63 -53 -69 -140 -173 -177 -212 -23 -25
-82 -96 -132 -157 -50 -62 -93 -113 -97 -113 -7 0 -46 -45 -240 -269 -40 -48
-103 -118 -140 -157 -64 -69 -105 -115 -191 -219 -23 -27 -47 -54 -54 -60 -21
-18 -241 -259 -264 -290 -13 -16 -50 -59 -82 -95 -33 -36 -99 -110 -147 -165
-88 -102 -113 -130 -263 -291 -47 -50 -123 -134 -170 -185 -47 -52 -105 -112
-129 -134 -24 -22 -51 -52 -61 -67 -18 -30 -329 -357 -478 -502 -51 -50 -200
-197 -330 -326 -131 -129 -267 -260 -301 -290 -35 -30 -96 -86 -136 -125 -40
-38 -102 -95 -139 -125 -38 -30 -82 -68 -100 -85 -34 -31 -62 -55 -235 -199
-57 -48 -112 -98 -123 -111 -11 -14 -25 -25 -32 -25 -7 0 -52 -40 -102 -90
-49 -49 -93 -90 -99 -90 -5 0 -19 12 -31 27 -20 25 -23 26 -54 13 -17 -7 -50
-28 -72 -47 -51 -42 -73 -40 -73 7 -1 47 -11 60 -46 60 l-30 0 7 88 c6 80 4
89 -15 109 -24 25 -30 27 -50 14 -11 -7 -11 -15 -1 -45 7 -23 9 -59 5 -101 -7
-63 -8 -65 -35 -65 -43 0 -60 -10 -60 -36 0 -16 10 -28 31 -39 26 -14 29 -20
24 -44 -4 -19 -1 -32 9 -40 17 -14 36 -7 36 13 0 13 38 53 43 45 1 -2 10 -17
19 -34 20 -36 46 -42 99 -21 52 21 59 20 59 -8 0 -28 -79 -105 -186 -181 -65
-46 -222 -167 -289 -222 -36 -30 -206 -187 -281 -260 -85 -82 -231 -251 -279
-322 -25 -37 -60 -79 -80 -95 -19 -16 -35 -34 -35 -39 0 -6 -19 -31 -42 -57
-24 -27 -70 -80 -103 -120 -78 -93 -81 -96 -164 -159 -53 -40 -71 -61 -71 -78
0 -32 24 -39 89 -24 31 7 84 17 119 22 152 22 192 28 277 44 132 24 195 32
340 45 72 6 164 17 205 25 41 7 104 16 140 20 36 4 81 11 100 15 33 9 206 37
280 45 64 8 414 55 485 66 66 10 147 20 445 54 115 14 285 28 660 55 80 5 195
14 255 19 155 12 296 16 550 16 215 -1 322 -5 657 -24 90 -6 170 -10 178 -9
43 2 442 -14 555 -22 215 -15 624 -22 1350 -25 635 -1 1326 -11 1435 -19 25
-2 122 -7 215 -11 94 -3 177 -9 185 -11 8 -3 51 -8 95 -10 44 -3 94 -9 110
-14 77 -22 498 -48 805 -50 266 -1 435 -7 565 -21 55 -5 168 -17 250 -25 83
-8 166 -16 185 -19 98 -14 505 -57 575 -60 44 -3 130 -9 190 -14 61 -5 250
-10 420 -10 516 -2 1237 -10 1290 -15 28 -2 115 -7 195 -10 80 -3 186 -8 235
-11 107 -6 487 -19 530 -18 32 0 300 -13 425 -22 169 -11 571 -50 795 -77 50
-6 108 -12 130 -13 22 -1 85 -8 140 -14 132 -16 168 -20 305 -31 63 -5 156
-15 205 -21 50 -6 101 -11 115 -12 14 0 68 -6 120 -13 52 -7 129 -15 170 -19
41 -3 111 -11 155 -16 44 -6 121 -15 170 -20 143 -14 243 -27 254 -33 5 -3 40
-8 78 -11 166 -13 335 -24 420 -29 51 -3 111 -10 133 -16 28 -7 52 -8 76 -1
24 7 63 7 115 0 43 -5 134 -12 201 -15 68 -3 164 -6 213 -9 50 -2 110 -8 133
-13 24 -6 77 -8 117 -5 40 3 94 1 121 -6 27 -6 153 -16 279 -22 127 -7 257
-13 290 -15 100 -6 288 -21 325 -28 19 -3 73 -8 120 -11 70 -4 267 -23 620
-62 25 -2 92 -14 150 -25 165 -31 214 -36 393 -40 157 -3 170 -1 183 17 18 24
18 34 -1 78 -12 30 -12 42 1 93 34 131 46 162 90 239 56 96 114 206 114 219 0
5 32 74 70 152 39 79 70 149 70 155 0 6 8 23 19 37 22 32 102 173 145 257 17
33 49 87 71 120 48 73 75 130 75 160 0 12 8 33 18 46 10 13 27 49 36 78 16 50
75 183 112 256 29 56 96 247 140 401 24 85 50 165 59 177 8 12 15 27 15 34 0
7 22 61 49 120 48 107 77 182 141 358 18 50 43 115 55 145 13 30 40 96 60 145
21 50 55 126 75 170 63 132 130 285 130 294 0 4 8 19 18 32 9 13 30 53 46 89
16 36 51 110 78 166 26 56 48 105 48 109 0 4 18 44 39 89 75 155 128 271 136
296 4 14 22 57 40 95 18 39 50 106 70 150 20 44 53 114 74 155 21 41 42 86 46
100 8 25 71 164 105 230 24 46 100 230 100 241 0 8 55 137 102 239 11 25 26
65 33 90 18 64 95 272 104 285 5 5 11 21 14 35 3 14 15 50 27 80 26 68 128
381 165 510 15 52 53 169 85 260 32 91 63 183 70 205 7 22 17 49 24 60 6 11
20 47 31 80 10 33 22 65 26 70 4 6 12 26 17 45 6 19 26 73 46 120 20 46 36 94
36 105 0 16 -32 43 -129 109 -71 47 -135 94 -142 103 -8 9 -66 54 -129 102
-63 47 -143 108 -176 136 -106 87 -405 294 -826 572 -96 63 -97 64 -91 98 7
42 -13 54 -50 30 -23 -15 -27 -15 -59 2 -32 18 -84 55 -193 141 -30 23 -59 42
-64 42 -5 0 -34 19 -64 43 -31 23 -108 80 -172 127 -65 47 -131 96 -149 111
-17 14 -58 43 -91 64 -33 21 -81 55 -107 74 -25 20 -79 60 -120 89 -187 135
-225 163 -258 187 -19 14 -62 44 -95 66 -67 44 -145 97 -190 129 -16 12 -61
41 -100 65 -38 24 -83 53 -100 65 -43 30 -285 180 -292 180 -2 0 -23 16 -46
35 -22 19 -44 35 -48 35 -12 0 -147 88 -154 101 -4 6 -17 14 -28 19 -34 14
-106 58 -222 135 -237 157 -324 213 -405 264 -47 28 -116 74 -155 100 -38 26
-130 88 -203 137 -72 49 -176 119 -230 157 -131 91 -638 435 -962 652 -138 93
-149 102 -149 131 -1 40 -22 59 -50 45 -35 -19 -54 -12 -128 47 -39 31 -98 74
-130 94 -32 20 -116 73 -188 119 -71 45 -150 93 -175 107 -25 13 -54 33 -65
42 -20 18 -69 47 -135 81 -19 10 -73 43 -120 73 -87 56 -453 277 -525 316 -22
12 -44 26 -50 30 -5 4 -64 35 -130 70 -137 71 -144 75 -127 92 16 16 15 65 -1
71 -7 3 -34 -4 -60 -15 -52 -23 -48 -23 -132 31 -33 22 -91 58 -130 80 -38 23
-142 83 -230 135 -88 52 -189 111 -225 132 -53 30 -274 162 -375 224 -125 76
-235 145 -256 160 -34 24 -452 274 -554 332 -147 83 -409 216 -460 232 -27 9
-77 32 -110 51 -119 69 -203 108 -219 102 -35 -14 -16 -50 70 -136 47 -47 101
-108 119 -136 19 -27 59 -86 89 -130 30 -44 55 -84 56 -89 0 -4 13 -25 29 -45
15 -20 54 -74 86 -121 32 -47 69 -99 84 -116 14 -17 41 -50 58 -75 18 -24 53
-69 78 -99 41 -50 114 -156 187 -272 14 -24 56 -101 93 -173 37 -71 77 -146
88 -166 11 -19 18 -42 15 -51 -3 -8 -39 -34 -80 -58 -40 -24 -98 -63 -129 -87
-30 -23 -59 -43 -63 -43 -13 0 -37 72 -38 112 0 26 7 50 21 69 31 42 24 63
-20 67 -31 3 -41 -2 -65 -32 -29 -35 -116 -76 -161 -76 -22 0 -23 3 -23 99 0
105 -10 131 -50 131 -30 0 -42 -32 -30 -82 12 -54 13 -158 1 -177 -8 -12 -15
-11 -50 3 -23 9 -55 16 -71 16 -28 0 -29 1 -18 26 10 21 9 27 -3 35 -26 16
-89 9 -137 -15 -60 -30 -74 -47 -70 -83 4 -40 40 -50 125 -34 82 16 142 12
156 -10 26 -42 -33 -123 -119 -164 -58 -27 -64 -44 -22 -59 34 -12 64 -3 121
35 49 32 79 77 92 137 5 25 12 32 31 32 14 0 27 6 30 14 6 16 146 69 170 64
12 -2 22 -20 30 -51 35 -138 138 -185 190 -86 17 33 184 149 215 149 27 0 122
-152 224 -357 20 -39 49 -88 66 -110 47 -59 73 -113 60 -126 -17 -17 -117 -23
-451 -26 -266 -2 -474 2 -1180 24 -275 8 -1767 13 -2030 6 -140 -3 -266 -3
-280 0 -24 7 -21 10 54 80 44 41 168 160 275 265 466 454 763 724 1192 1084
130 110 207 177 438 385 183 166 290 260 463 410 127 110 142 127 133 156 -11
35 -56 23 -98 -26z m388 -320 c94 -44 250 -126 450 -235 28 -15 84 -48 125
-73 70 -43 156 -93 260 -153 43 -25 96 -59 205 -129 83 -54 148 -93 190 -116
22 -12 49 -29 60 -39 11 -10 38 -28 61 -39 22 -12 89 -50 149 -86 60 -36 114
-65 119 -65 5 0 25 -12 45 -27 35 -27 106 -68 171 -99 19 -9 58 -31 85 -49 59
-39 295 -165 307 -165 5 0 8 -8 6 -17 -2 -9 -69 -57 -150 -107 -80 -50 -169
-107 -196 -126 -28 -19 -112 -79 -188 -132 -77 -54 -164 -116 -194 -138 -30
-22 -71 -49 -90 -60 -72 -43 -108 -66 -172 -112 -37 -27 -74 -48 -83 -48 -10
0 -27 25 -46 68 -17 37 -53 108 -80 157 -58 106 -53 97 -146 247 -40 65 -73
123 -73 131 0 7 -4 17 -9 23 -6 5 -51 89 -101 188 -50 98 -98 190 -108 205
-20 30 -30 48 -70 116 -25 43 -105 153 -190 261 -94 120 -111 144 -268 375
-39 57 -106 146 -148 197 -72 90 -86 119 -48 105 9 -4 67 -30 127 -58z m2420
-1389 c32 -20 65 -42 75 -51 9 -8 21 -15 26 -15 6 0 30 -13 55 -28 24 -16 73
-44 109 -62 36 -19 79 -44 95 -56 17 -12 53 -34 80 -49 69 -38 82 -45 147 -88
31 -20 60 -37 63 -37 3 0 38 -22 78 -49 40 -26 92 -58 117 -71 25 -12 54 -30
65 -40 11 -9 43 -29 70 -45 116 -64 142 -79 175 -104 19 -14 51 -34 70 -45 35
-19 71 -41 210 -132 41 -26 111 -69 155 -94 56 -33 80 -52 80 -66 0 -13 -24
-32 -80 -64 -44 -25 -106 -63 -138 -85 -141 -98 -321 -217 -422 -280 -194
-122 -501 -337 -591 -415 -23 -19 -95 -73 -160 -120 -127 -91 -380 -298 -477
-392 -33 -32 -68 -58 -77 -58 -27 0 -44 25 -114 170 -36 74 -77 155 -92 180
-14 25 -52 90 -84 145 -32 55 -88 154 -124 220 -37 66 -71 127 -76 135 -5 8
-18 31 -28 50 -10 19 -52 98 -94 175 -77 143 -126 238 -196 380 -45 91 -100
195 -128 242 l-19 32 25 26 c14 14 40 36 60 47 73 45 330 218 465 314 77 55
151 107 165 117 14 9 45 31 70 48 56 40 298 188 325 200 28 12 54 4 120 -35z
m-3240 -721 c308 -3 594 -8 635 -10 426 -20 1087 -22 1210 -4 108 15 120 9
160 -90 17 -42 37 -87 46 -101 8 -14 36 -68 63 -120 121 -240 223 -435 241
-460 11 -16 20 -31 20 -34 0 -7 80 -152 155 -281 67 -115 223 -389 247 -435
10 -19 31 -50 46 -70 39 -48 64 -98 56 -111 -4 -8 -30 -9 -78 -4 -39 4 -226 8
-416 10 -190 2 -444 9 -565 15 -121 6 -357 17 -525 25 -363 18 -616 32 -800
45 -74 5 -214 14 -310 20 -203 13 -525 36 -690 51 -63 6 -259 19 -435 30 -176
10 -374 24 -440 30 -150 15 -1116 14 -1445 0 -379 -17 -630 -13 -630 9 0 10
21 35 336 408 44 51 102 121 129 155 118 148 382 433 657 712 l206 210 409 5
c467 6 919 4 1718 -5z m5078 -418 c149 -113 247 -182 438 -307 38 -25 119 -79
181 -120 63 -41 120 -79 129 -85 19 -12 71 -49 149 -104 30 -22 74 -49 98 -60
23 -11 42 -24 42 -30 0 -10 107 -84 165 -114 45 -23 86 -64 79 -80 -3 -8 -47
-49 -98 -91 -50 -41 -120 -105 -154 -140 -61 -65 -167 -153 -281 -234 -33 -24
-89 -69 -124 -100 -136 -121 -233 -200 -360 -296 -73 -54 -134 -102 -137 -105
-3 -4 -39 -38 -80 -76 -41 -37 -104 -96 -140 -130 -36 -34 -103 -95 -150 -135
-47 -40 -159 -146 -250 -234 -349 -341 -606 -554 -657 -544 -9 2 -30 35 -47
73 -32 74 -141 262 -231 400 -29 44 -55 87 -58 95 -4 8 -32 56 -64 105 -69
109 -194 319 -246 412 -94 169 -196 344 -235 406 -67 106 -83 78 178 312 70
62 270 222 391 312 68 51 162 122 209 158 90 70 369 258 585 395 72 46 182
119 245 164 136 95 319 206 340 206 8 -1 46 -24 83 -53z m1416 -962 c22 -13
42 -29 46 -35 8 -13 244 -169 295 -195 19 -10 75 -45 124 -79 48 -34 109 -74
136 -91 26 -16 68 -43 94 -60 54 -34 101 -65 233 -153 51 -34 95 -62 97 -62 9
0 232 -140 258 -162 12 -10 25 -18 29 -18 4 0 28 -16 53 -35 25 -19 68 -46 95
-61 27 -14 55 -32 61 -39 7 -8 37 -26 68 -40 66 -30 92 -52 92 -76 0 -23 -265
-256 -440 -386 -208 -155 -299 -227 -385 -306 -139 -128 -292 -260 -450 -391
-38 -31 -81 -67 -95 -80 -14 -12 -115 -101 -225 -196 -110 -96 -203 -180 -208
-187 -6 -10 -68 -61 -266 -222 -36 -29 -158 -140 -271 -246 -113 -106 -225
-209 -250 -229 -46 -36 -132 -104 -250 -196 -127 -99 -288 -202 -311 -198 -16
2 -33 25 -65 87 -24 47 -50 92 -58 100 -7 9 -23 34 -34 56 -11 22 -41 67 -66
99 -25 33 -46 64 -46 69 0 5 -33 57 -73 115 -40 59 -83 127 -96 152 -13 25
-31 54 -41 65 -19 22 -150 212 -150 218 0 3 -19 34 -42 69 -74 113 -160 249
-226 358 -35 58 -84 135 -108 171 -24 36 -44 73 -44 81 0 9 15 25 33 36 110
70 211 147 282 217 16 16 71 65 120 109 50 43 162 150 250 237 88 87 187 180
220 206 34 26 110 96 170 154 135 129 197 185 255 229 131 100 345 273 415
337 44 39 133 110 199 156 65 46 169 133 230 193 178 173 270 253 289 253 9 1
35 -10 56 -24z m-9894 -191 c71 -9 394 -6 700 6 333 12 1047 13 1235 0 254
-18 281 -19 485 -30 216 -11 508 -32 785 -55 161 -14 376 -28 605 -41 50 -2
149 -9 220 -14 72 -6 267 -17 435 -25 168 -8 332 -17 365 -20 33 -2 148 -7
255 -11 107 -3 254 -9 325 -13 72 -4 231 -8 355 -9 246 -2 513 -11 547 -18 14
-2 29 -20 43 -51 12 -27 25 -55 29 -63 20 -39 74 -136 81 -145 4 -5 25 -41 45
-80 20 -38 47 -86 60 -105 33 -51 156 -259 177 -300 10 -19 24 -44 31 -55 65
-103 118 -188 143 -229 16 -26 34 -56 39 -65 6 -9 32 -55 60 -101 27 -47 52
-87 55 -90 15 -14 68 -98 75 -119 9 -28 112 -181 133 -197 19 -14 -1 -47 -37
-64 -30 -14 -332 -29 -477 -24 -322 13 -569 30 -854 59 -74 8 -193 19 -265 25
-71 6 -177 15 -235 20 -58 5 -168 12 -245 15 -77 3 -192 10 -255 15 -63 5
-180 12 -260 15 -80 3 -152 8 -160 10 -8 2 -96 6 -195 10 -99 3 -200 8 -225
10 -25 3 -160 10 -300 15 -272 11 -522 22 -1035 45 -176 8 -453 15 -615 15
-162 0 -403 5 -535 10 -217 9 -1884 13 -1980 6 -41 -4 -341 -12 -730 -21 -121
-3 -244 -8 -272 -12 -70 -8 -69 2 10 102 35 44 105 136 157 204 52 69 129 168
170 222 41 53 102 133 135 176 32 43 93 119 135 169 41 51 95 117 120 148 47
59 130 162 217 268 68 83 170 209 211 261 106 133 122 148 155 143 18 -3 55
-8 82 -12z m11694 -986 c20 -12 61 -43 91 -68 61 -52 108 -85 160 -115 44 -25
107 -69 165 -115 25 -19 75 -56 112 -83 74 -52 241 -175 445 -329 43 -32 80
-58 83 -58 3 0 36 -22 73 -48 37 -27 92 -63 122 -80 30 -18 66 -41 79 -53 23
-19 24 -22 10 -44 -14 -24 -142 -170 -259 -299 -36 -39 -103 -104 -150 -145
-47 -41 -114 -102 -150 -135 -36 -34 -117 -108 -179 -166 -134 -123 -334 -337
-730 -780 -74 -83 -277 -321 -358 -421 -28 -35 -72 -89 -97 -119 -25 -30 -70
-88 -101 -127 -30 -40 -76 -97 -102 -126 -27 -30 -91 -102 -143 -162 -52 -59
-117 -131 -144 -159 -27 -28 -94 -103 -150 -166 -144 -163 -254 -278 -386
-404 -63 -60 -181 -176 -261 -258 -114 -116 -151 -149 -168 -146 -22 3 -38 29
-125 208 -37 76 -69 137 -142 265 -21 39 -48 86 -59 107 -11 20 -37 65 -59
100 -21 34 -48 79 -58 98 -11 19 -50 83 -87 142 -64 105 -91 148 -198 320 -28
46 -61 97 -73 113 -22 32 -152 236 -207 325 -33 54 -77 121 -140 216 -18 26
-33 56 -33 65 0 11 24 32 60 54 87 53 236 160 305 220 33 29 94 79 135 112 41
33 144 124 229 204 205 192 279 258 402 359 102 84 153 128 358 312 149 134
208 185 376 325 154 128 199 166 343 294 159 141 208 181 322 268 169 128 197
150 280 216 88 70 284 242 319 279 30 32 43 32 90 4z m-9929 -742 c41 -2 228
-5 415 -7 187 -1 417 -6 510 -10 409 -19 660 -30 790 -34 77 -3 187 -7 245
-10 58 -3 168 -7 245 -10 77 -3 246 -12 375 -20 129 -8 327 -19 440 -25 390
-21 546 -30 740 -46 193 -15 270 -22 530 -49 529 -56 1147 -63 1226 -15 17 11
34 20 37 20 11 0 57 -54 57 -67 0 -24 103 -205 194 -340 22 -32 62 -94 91
-138 28 -44 69 -106 91 -139 21 -32 52 -79 68 -105 16 -25 50 -77 75 -115 25
-38 59 -89 75 -115 16 -25 55 -84 85 -129 31 -46 65 -98 76 -116 11 -18 36
-55 56 -82 20 -27 50 -74 67 -104 17 -30 54 -81 83 -113 79 -88 62 -115 -86
-136 -38 -6 -99 -15 -135 -21 -254 -44 -557 -51 -1415 -37 -431 8 -828 18
-890 22 -22 2 -123 6 -225 10 -390 14 -1063 53 -1295 75 -97 9 -346 20 -985
40 -331 11 -1272 13 -1650 4 -129 -3 -381 -9 -559 -14 -326 -8 -1006 -6 -1201
5 -58 3 -168 8 -245 10 -77 2 -183 7 -235 10 -52 2 -201 7 -330 11 -129 3
-323 10 -430 15 -359 18 -857 19 -1090 3 -124 -9 -263 -12 -327 -9 l-113 6 0
-25 c0 -16 8 -30 23 -37 34 -19 287 -23 488 -9 246 17 559 17 1094 -3 253 -9
548 -19 655 -22 107 -4 332 -12 500 -19 295 -13 913 -13 1300 -1 721 22 1526
26 2110 10 436 -12 811 -25 862 -30 81 -7 312 -24 418 -30 52 -3 111 -7 130
-10 19 -2 89 -7 155 -10 66 -3 197 -10 290 -15 94 -5 269 -12 390 -16 121 -3
222 -8 226 -10 3 -1 165 -6 360 -9 194 -4 417 -8 494 -11 276 -9 1133 -12
1260 -4 144 9 403 51 501 81 55 16 61 12 100 -67 20 -42 43 -78 50 -81 8 -3
14 -16 14 -28 0 -13 5 -27 11 -30 11 -7 109 -151 148 -218 14 -23 67 -109 119
-192 52 -82 107 -170 120 -195 14 -25 28 -47 32 -50 11 -10 38 -53 114 -182
27 -46 66 -109 87 -141 22 -32 39 -60 39 -64 0 -5 62 -112 101 -173 5 -8 17
-31 25 -50 9 -19 24 -46 34 -60 9 -14 35 -59 57 -100 52 -99 83 -151 100 -171
27 -33 53 -93 44 -102 -9 -9 -57 -2 -246 33 -27 5 -108 14 -180 20 -71 6 -155
15 -185 20 -30 5 -165 12 -300 15 -135 3 -312 7 -395 10 -558 18 -857 23
-1925 31 -476 3 -1090 7 -1365 9 -275 2 -561 6 -635 9 -74 3 -268 8 -430 12
-162 3 -315 8 -340 10 -25 2 -506 5 -1070 7 -1002 3 -1253 0 -1925 -22 -585
-19 -692 -21 -1187 -21 -480 -1 -598 2 -953 20 -99 5 -256 9 -350 10 -231 0
-615 10 -815 20 -91 4 -248 8 -350 9 -102 1 -216 4 -255 6 -38 2 -176 4 -305
5 -129 1 -291 6 -360 11 -69 5 -186 13 -261 19 -143 10 -189 21 -189 43 0 7
46 61 103 119 56 59 158 170 227 249 205 233 223 254 235 264 6 6 47 52 91
104 43 52 111 131 149 175 75 86 200 234 250 294 16 21 55 66 86 102 131 151
363 437 432 534 18 24 77 98 132 164 55 66 117 142 138 168 69 88 91 116 147
183 31 36 80 98 110 136 29 39 65 82 79 96 14 14 49 57 76 94 56 75 92 121
165 210 27 33 123 155 215 270 91 116 178 226 193 245 16 19 50 65 76 103 46
65 67 79 82 56 10 -16 1185 0 1203 17 4 4 1925 -5 2021 -10z m11454 -336 c40
-33 76 -60 80 -60 3 0 35 -22 70 -50 35 -27 68 -50 72 -50 5 0 41 -24 81 -52
40 -29 118 -84 174 -123 146 -101 273 -194 349 -255 111 -91 394 -305 452
-343 81 -54 82 -56 57 -113 -12 -27 -50 -130 -84 -229 -80 -227 -81 -232 -121
-340 -47 -130 -114 -342 -114 -363 0 -11 -14 -59 -30 -108 -17 -49 -38 -114
-46 -144 -8 -30 -19 -64 -24 -75 -5 -11 -16 -38 -24 -60 -7 -22 -26 -71 -41
-110 -15 -38 -32 -88 -37 -110 -6 -22 -17 -49 -25 -60 -7 -11 -13 -27 -13 -36
0 -9 -9 -38 -19 -65 -11 -27 -36 -93 -55 -146 -20 -54 -44 -117 -54 -140 -11
-24 -56 -128 -102 -233 -45 -104 -114 -253 -151 -329 -38 -77 -69 -146 -69
-153 0 -7 -11 -34 -25 -60 -25 -48 -95 -200 -95 -207 0 -2 -27 -59 -59 -127
-32 -68 -65 -142 -72 -164 -7 -22 -24 -56 -36 -75 -13 -19 -23 -42 -23 -52 0
-18 -17 -58 -97 -228 -27 -58 -62 -134 -78 -170 -16 -36 -34 -72 -40 -80 -12
-17 -47 -88 -70 -140 -8 -19 -22 -46 -30 -60 -48 -83 -144 -306 -212 -495 -13
-38 -30 -83 -38 -100 -7 -16 -20 -52 -30 -80 -10 -27 -38 -97 -62 -155 -66
-152 -69 -159 -96 -225 -14 -33 -28 -76 -31 -95 -4 -19 -11 -44 -16 -55 -4
-11 -16 -49 -25 -85 -31 -116 -84 -264 -110 -305 -8 -11 -23 -45 -35 -75 -11
-30 -34 -82 -50 -115 -16 -33 -36 -91 -46 -130 -9 -38 -24 -79 -34 -90 -15
-17 -62 -102 -135 -240 -46 -88 -100 -183 -130 -230 -29 -47 -68 -124 -217
-435 -33 -69 -70 -145 -83 -170 -33 -64 -65 -151 -65 -177 0 -25 -17 -40 -31
-26 -29 29 -59 326 -58 573 1 149 -3 204 -20 285 -29 144 -56 235 -106 355
-13 30 -33 80 -45 110 -12 30 -32 78 -45 105 -52 110 -135 297 -135 305 0 5
-27 68 -60 140 -33 72 -60 133 -60 135 0 3 -11 28 -24 57 -13 29 -27 64 -31
78 -4 14 -16 41 -26 60 -25 48 -79 168 -79 176 0 5 -81 202 -116 279 -7 17
-32 75 -55 130 -23 55 -45 105 -49 110 -5 6 -26 55 -48 110 -40 100 -97 226
-153 340 -16 33 -29 65 -29 71 0 6 -23 55 -51 110 -28 54 -69 140 -91 189 -41
92 -92 201 -177 380 -26 55 -66 138 -89 185 -131 275 -207 428 -223 449 -27
34 -24 66 9 86 15 9 88 79 162 154 75 75 186 183 247 241 108 103 291 297 467
495 48 55 135 152 191 215 57 63 127 145 157 181 29 36 99 122 156 190 56 68
122 147 145 176 201 247 384 460 551 643 346 380 449 485 631 648 83 74 192
173 244 221 52 47 99 89 106 93 16 10 143 153 250 281 59 71 86 97 103 97 14
0 53 -24 96 -60z m-17671 -3325 c117 -35 363 -53 822 -60 507 -7 949 -17 956
-21 3 -2 210 -6 460 -9 250 -3 537 -11 639 -17 218 -13 1468 -18 1750 -8 107
5 291 11 408 14 117 4 266 9 330 12 522 23 2346 22 3197 -2 255 -7 1439 -15
1670 -11 11 0 153 -3 315 -7 162 -3 561 -8 885 -11 325 -3 615 -7 645 -10 30
-3 156 -7 280 -10 496 -9 1041 -35 1150 -54 30 -6 119 -17 196 -26 78 -9 193
-24 255 -34 127 -21 136 -26 165 -114 17 -52 78 -186 162 -352 24 -49 50 -106
57 -125 7 -19 34 -80 60 -135 26 -55 67 -143 92 -195 24 -52 66 -140 92 -195
109 -225 159 -332 172 -365 7 -19 24 -55 37 -80 13 -25 39 -85 58 -135 19 -49
41 -96 48 -105 8 -8 19 -33 26 -55 7 -22 16 -44 20 -50 4 -5 42 -98 85 -205
42 -107 88 -218 101 -247 13 -28 24 -55 24 -58 0 -3 12 -32 26 -63 14 -31 32
-73 41 -92 8 -19 21 -48 28 -65 52 -116 117 -271 139 -329 14 -37 37 -89 50
-115 14 -25 61 -134 105 -241 45 -107 88 -208 96 -223 8 -16 15 -36 15 -46 0
-9 6 -26 14 -37 37 -52 91 -256 115 -429 6 -44 11 -170 11 -280 0 -110 4 -227
9 -260 14 -84 56 -279 75 -348 9 -32 16 -63 16 -69 0 -12 -234 -3 -330 13 -30
5 -84 13 -120 18 -36 5 -103 17 -150 26 -47 9 -110 18 -140 20 -30 2 -98 6
-150 10 -52 4 -106 7 -120 7 -14 0 -54 4 -90 10 -36 5 -132 14 -215 18 -82 5
-197 13 -255 19 -98 9 -231 17 -460 27 -52 2 -133 6 -180 9 -217 12 -305 16
-440 21 -80 2 -152 7 -160 10 -8 3 -67 7 -131 10 -63 2 -139 6 -168 9 -29 3
-110 7 -179 10 -70 3 -163 10 -207 15 -44 6 -107 12 -140 15 -33 3 -80 7 -105
10 -364 39 -644 72 -670 80 -8 2 -67 7 -130 11 -63 3 -125 10 -138 15 -13 5
-63 9 -111 9 -49 0 -128 7 -177 16 -101 18 -169 26 -446 53 -109 11 -226 25
-260 31 -35 7 -88 14 -118 15 -30 2 -73 6 -95 8 -22 2 -98 10 -170 16 -71 6
-177 16 -235 21 -58 6 -161 12 -230 15 -69 3 -143 7 -165 10 -22 2 -134 6
-250 9 -115 4 -282 11 -370 17 -88 5 -216 12 -285 15 -69 3 -161 7 -205 10
-44 3 -318 6 -610 9 -849 6 -1015 11 -1425 45 -69 5 -150 14 -180 20 -30 5
-127 16 -215 25 -88 8 -194 19 -235 25 -158 20 -298 31 -458 35 -667 17 -924
28 -1074 49 -57 8 -146 17 -198 21 -52 4 -111 11 -130 15 -43 11 -466 28 -850
35 -220 4 -1817 18 -1915 17 -11 -1 -90 3 -175 9 -157 9 -296 15 -610 25 -96
3 -290 12 -430 20 -274 16 -813 22 -1000 10 -138 -8 -288 -18 -350 -22 -25 -2
-124 -8 -220 -13 -96 -6 -222 -15 -280 -21 -418 -43 -530 -56 -575 -65 -16 -3
-46 -7 -65 -9 -19 -2 -71 -8 -115 -15 -44 -6 -132 -18 -195 -27 -63 -8 -160
-22 -215 -31 -55 -8 -113 -16 -130 -18 -74 -7 -281 -36 -295 -41 -18 -6 -214
-31 -350 -44 -116 -11 -211 -25 -310 -46 -41 -9 -93 -20 -115 -25 -51 -10
-135 -11 -135 -1 0 8 30 54 41 62 52 39 145 132 196 198 76 96 95 119 144 176
20 22 45 55 56 71 26 42 66 85 243 260 168 167 200 197 285 265 30 25 103 89
161 143 116 107 151 122 141 62 -6 -35 -74 -182 -89 -191 -14 -9 -9 -42 7 -48
8 -3 22 -3 31 1 16 6 87 140 98 186 3 15 17 51 30 80 13 28 32 72 41 97 18 51
48 86 125 145 135 104 345 277 480 395 41 36 91 78 110 92 19 14 74 61 121
105 47 43 104 94 128 114 149 127 996 969 1218 1210 632 687 763 833 903 999
62 74 118 140 125 145 6 6 29 31 50 58 20 26 42 47 49 47 6 0 32 -7 59 -15z"/>
<path d="M16620 16022 c-14 -2 -62 -14 -107 -28 -169 -50 -267 -111 -343 -212
-70 -94 -68 -185 8 -297 105 -156 275 -244 450 -233 40 3 78 10 84 16 22 22
-4 32 -80 32 -107 0 -168 18 -245 73 -150 107 -220 245 -171 339 67 129 247
224 448 237 78 5 101 10 110 23 8 13 7 21 -4 32 -15 14 -102 24 -150 18z"/>
<path d="M18182 15870 c-35 -45 -61 -115 -126 -347 -33 -118 -34 -150 -2 -164
42 -19 72 -3 136 76 75 92 94 104 114 73 25 -39 35 -70 56 -178 23 -116 49
-158 89 -145 24 7 27 32 6 59 -8 11 -15 34 -15 51 0 46 -37 180 -66 236 -50
99 -90 99 -189 -1 -32 -33 -62 -57 -66 -54 -9 5 67 227 101 294 12 25 29 53
37 62 8 9 13 27 11 40 -5 37 -56 36 -86 -2z"/>
<path d="M17069 15705 c-76 -24 -141 -65 -205 -131 -98 -98 -106 -169 -30
-243 32 -31 40 -33 98 -33 65 0 127 19 162 50 10 9 34 41 53 70 19 29 38 52
43 50 4 -2 28 -32 52 -68 64 -94 135 -135 167 -96 9 11 8 17 -5 28 -49 37
-125 121 -143 156 l-20 39 26 36 c25 35 25 38 12 74 -25 66 -120 96 -210 68z
m129 -82 c3 -17 -2 -23 -16 -23 -25 0 -33 -12 -61 -82 -55 -137 -194 -206
-244 -121 -12 21 -16 40 -12 54 15 46 129 150 205 186 14 6 48 11 75 10 44 -2
50 -5 53 -24z"/>
<path d="M18780 15711 c-118 -36 -220 -154 -220 -255 0 -100 72 -165 222 -201
128 -30 232 -15 214 30 -7 20 -11 21 -138 34 -117 11 -171 32 -207 77 -30 39
-26 73 18 142 49 75 101 112 157 112 40 0 74 -22 74 -47 0 -22 -58 -66 -137
-105 -91 -44 -100 -52 -83 -73 17 -21 31 -19 122 17 108 43 168 100 168 162 0
49 -22 75 -82 101 -40 16 -68 18 -108 6z"/>
<path d="M17674 15641 c-50 -23 -110 -75 -130 -112 -31 -61 -6 -160 65 -254
36 -47 49 -57 97 -71 89 -26 177 -6 247 56 36 31 50 70 25 70 -7 0 -44 -16
-82 -35 -99 -50 -126 -53 -180 -21 -34 20 -51 40 -75 88 -35 69 -38 93 -15
141 22 45 74 79 129 82 26 2 53 9 61 15 19 16 18 46 -2 54 -30 12 -99 5 -140
-13z"/>
<path d="M16169 14446 c-179 -41 -288 -132 -325 -271 -26 -101 -24 -340 5
-515 14 -82 31 -153 39 -162 19 -22 45 -23 63 -2 14 17 3 84 -46 259 -14 50
-25 103 -25 118 l0 29 33 -21 c197 -123 495 -251 587 -251 20 0 45 6 55 14 18
13 17 14 -6 29 -13 8 -42 18 -64 22 -66 11 -221 73 -366 145 -145 73 -199 111
-199 140 0 45 119 107 360 186 262 85 280 95 280 152 0 38 -66 97 -130 115
-78 23 -194 29 -261 13z m288 -72 c62 -47 42 -63 -162 -130 -160 -53 -229 -81
-324 -133 -41 -23 -78 -41 -83 -41 -16 0 0 70 30 129 17 35 46 69 82 99 95 78
173 102 322 99 91 -2 111 -5 135 -23z"/>
<path d="M17126 14421 c-3 -5 -22 -40 -42 -77 -20 -38 -43 -76 -50 -85 -8 -8
-14 -20 -14 -25 0 -5 -16 -29 -35 -53 -19 -24 -35 -48 -35 -52 0 -18 -49 -39
-138 -57 -103 -21 -117 -30 -107 -61 8 -27 45 -36 97 -23 23 6 44 9 47 7 9
-10 -52 -85 -154 -189 -111 -114 -127 -147 -76 -154 18 -3 39 11 88 60 53 52
188 224 228 292 10 18 99 51 173 65 39 8 44 7 51 -13 14 -36 21 -385 9 -412
-9 -19 -8 -28 7 -44 24 -27 51 -25 71 5 14 21 14 38 5 132 -5 59 -13 162 -16
229 l-6 121 30 13 c38 15 43 50 9 50 -45 0 -51 13 -60 130 -5 62 -13 121 -19
131 -10 19 -53 26 -63 10z m15 -172 c11 -38 10 -107 -1 -114 -6 -4 -35 -9 -65
-12 -67 -7 -69 1 -22 74 59 92 75 101 88 52z"/>
<path d="M18251 14173 c-271 -284 -302 -314 -314 -310 -16 5 -11 66 14 187 33
155 37 184 28 203 -18 32 -54 20 -96 -30 -41 -50 -209 -303 -258 -388 -32 -56
-113 -165 -123 -166 -4 0 -20 -2 -35 -3 -32 -2 -47 -20 -47 -57 0 -28 27 -59
53 -59 49 0 163 154 290 390 48 88 105 170 119 170 11 0 10 -12 -17 -173 -19
-107 -19 -107 2 -135 46 -62 85 -41 245 129 247 265 237 255 249 239 7 -10 9
-87 5 -240 -3 -124 -3 -235 0 -247 9 -32 42 -29 56 5 6 16 13 134 16 289 4
233 3 265 -12 288 -30 46 -54 34 -175 -92z"/>
<path d="M15824 12755 c-143 -26 -256 -69 -269 -103 -9 -24 22 -60 73 -85 26
-13 103 -39 172 -56 285 -73 440 -140 533 -229 60 -59 62 -89 10 -156 -69 -88
-184 -144 -353 -172 -98 -16 -170 -11 -258 19 -40 13 -66 17 -72 11 -17 -17
19 -55 79 -82 49 -22 70 -25 161 -25 102 -1 234 15 275 33 123 52 196 104 243
174 42 63 43 112 2 183 -68 119 -285 226 -594 293 -193 42 -210 54 -130 90 76
35 194 51 348 48 125 -3 140 -1 150 15 9 15 7 22 -13 38 -20 17 -39 19 -155
18 -72 0 -163 -7 -202 -14z"/>
<path d="M17195 12699 c-189 -11 -352 -60 -452 -136 -40 -30 -42 -55 -7 -110
46 -70 104 -98 374 -178 69 -21 141 -41 160 -45 45 -10 196 -65 235 -86 34
-19 85 -64 85 -75 0 -18 -70 -72 -140 -108 -150 -78 -326 -114 -422 -87 -32 9
-36 -5 -16 -49 18 -40 69 -50 177 -36 192 27 368 105 440 195 44 56 38 116
-16 160 -83 67 -162 97 -628 241 -208 65 -240 98 -148 151 104 62 260 94 453
93 122 0 161 -5 247 -30 49 -15 58 -10 49 25 -15 62 -158 89 -391 75z"/>
<path d="M18560 12624 c-71 -9 -176 -38 -224 -62 -65 -32 -153 -117 -209 -200
-59 -89 -81 -133 -107 -221 -19 -63 -22 -89 -17 -172 3 -69 2 -101 -6 -106 -7
-4 -36 -10 -66 -13 -95 -9 -98 -65 -4 -63 72 1 338 71 458 120 365 150 528
285 552 458 14 105 -55 209 -160 240 -56 16 -160 26 -217 19z m201 -79 c85
-30 129 -101 109 -175 -39 -143 -200 -256 -597 -420 -68 -27 -128 -50 -134
-50 -7 0 -9 11 -6 28 8 38 62 239 93 338 16 54 23 95 19 113 -5 23 -1 33 25
55 58 48 144 92 205 104 33 6 69 13 80 16 51 10 166 5 206 -9z m-603 -282 c-9
-49 -43 -200 -59 -263 -18 -72 -49 -79 -49 -11 0 80 82 321 109 321 5 0 4 -21
-1 -47z"/>
<path d="M15721 11087 c-5 -7 -13 -49 -16 -92 -3 -44 -13 -123 -22 -175 -9
-52 -19 -118 -22 -147 -4 -29 -15 -61 -25 -72 -16 -18 -17 -24 -6 -51 10 -23
11 -54 4 -123 -5 -51 -9 -167 -8 -260 0 -144 2 -170 17 -185 14 -13 21 -14 35
-6 14 10 17 25 14 95 -4 117 14 409 27 422 7 7 49 -3 133 -31 68 -22 170 -48
228 -57 58 -9 124 -20 148 -25 23 -6 67 -10 97 -10 59 0 67 -9 41 -46 -17 -24
-35 -143 -26 -170 4 -10 0 -31 -8 -47 -30 -59 13 -237 57 -237 26 0 29 15 14
73 -7 27 -11 68 -9 92 2 23 -3 53 -10 66 -10 20 -10 28 4 52 13 21 14 32 6 45
-9 13 -7 23 9 44 19 26 19 28 2 54 -16 25 -16 27 4 47 19 19 24 20 57 8 40
-14 58 -6 52 25 -2 10 -17 21 -35 26 -43 11 -59 41 -38 70 8 13 15 34 15 48 0
34 26 168 61 314 29 123 28 147 -7 160 -31 12 -44 -18 -74 -170 -16 -82 -34
-171 -40 -199 -6 -27 -16 -81 -23 -120 l-14 -70 -40 -3 c-23 -2 -83 8 -135 21
-51 14 -111 28 -133 32 -52 9 -218 53 -273 72 -59 21 -65 37 -46 125 24 114
54 299 54 339 0 52 -44 95 -69 66z"/>
<path d="M20590 10980 c-12 -7 -12 -12 -2 -22 6 -6 12 -23 12 -36 0 -17 5 -23
18 -20 21 4 29 53 11 74 -13 16 -19 17 -39 4z"/>
<path d="M17505 10961 c-37 -10 -131 -57 -165 -83 -14 -10 -53 -46 -87 -80
-35 -34 -66 -58 -70 -54 -4 3 0 34 9 68 20 72 11 111 -24 106 -17 -2 -25 -14
-35 -53 -24 -90 -44 -191 -88 -440 -15 -82 -31 -172 -36 -200 -5 -27 -8 -99
-7 -160 l3 -109 -32 -19 c-37 -21 -35 -47 4 -47 61 0 248 73 363 142 132 80
214 144 353 278 160 154 191 206 191 320 1 131 -72 258 -179 312 -44 23 -149
33 -200 19z m177 -71 c17 -1 89 -74 113 -116 41 -70 44 -135 9 -209 -51 -108
-266 -313 -474 -452 -75 -50 -221 -133 -234 -133 -21 0 -24 59 -10 202 28 279
81 457 164 546 99 106 287 190 385 171 22 -5 43 -8 47 -9z"/>
<path d="M20513 10943 c-20 -7 -15 -33 5 -33 24 0 32 8 25 26 -5 15 -10 16
-30 7z"/>
<path d="M21080 10939 c0 -5 5 -7 10 -4 6 3 10 8 10 11 0 2 -4 4 -10 4 -5 0
-10 -5 -10 -11z"/>
<path d="M20380 10910 c-12 -8 -10 -10 8 -10 13 0 20 4 17 10 -7 12 -6 12 -25
0z"/>
<path d="M21060 10910 c-8 -5 -25 -10 -37 -10 -34 0 -27 -24 10 -38 33 -12 97
-7 97 8 0 7 -43 50 -51 50 -2 0 -11 -5 -19 -10z"/>
<path d="M20275 10890 c3 -5 8 -10 11 -10 2 0 4 5 4 10 0 6 -5 10 -11 10 -5 0
-7 -4 -4 -10z"/>
<path d="M19841 10871 c-7 -13 -8 -22 -1 -26 14 -9 52 14 47 28 -6 20 -35 19
-46 -2z"/>
<path d="M21165 10880 c-3 -5 1 -10 9 -10 9 0 16 5 16 10 0 6 -4 10 -9 10 -6
0 -13 -4 -16 -10z"/>
<path d="M20770 10861 c0 -24 18 -37 32 -23 8 8 7 16 -2 27 -17 21 -30 19 -30
-4z"/>
<path d="M20255 10830 c-3 -5 1 -10 10 -10 9 0 13 5 10 10 -3 6 -8 10 -10 10
-2 0 -7 -4 -10 -10z"/>
<path d="M20315 10830 c-3 -5 1 -10 10 -10 9 0 13 5 10 10 -3 6 -8 10 -10 10
-2 0 -7 -4 -10 -10z"/>
<path d="M20733 10773 c-14 -3 -23 -12 -23 -23 0 -21 34 -45 50 -35 12 7 14
66 3 64 -5 -1 -18 -4 -30 -6z"/>
<path d="M21010 10726 c0 -11 10 -16 31 -16 38 0 35 24 -4 28 -19 2 -27 -1
-27 -12z"/>
<path d="M20017 10723 c-15 -14 -6 -23 24 -23 27 0 30 2 19 15 -13 16 -32 19
-43 8z"/>
<path d="M19865 10690 c3 -5 8 -10 11 -10 2 0 4 5 4 10 0 6 -5 10 -11 10 -5 0
-7 -4 -4 -10z"/>
<path d="M20274 10665 c24 -18 39 -20 34 -2 -3 6 -15 13 -29 15 -23 2 -23 2
-5 -13z"/>
<path d="M20350 10670 c0 -5 4 -10 9 -10 6 0 13 5 16 10 3 6 -1 10 -9 10 -9 0
-16 -4 -16 -10z"/>
<path d="M20470 10616 c0 -9 5 -16 10 -16 6 0 10 4 10 9 0 6 -4 13 -10 16 -5
3 -10 -1 -10 -9z"/>
<path d="M20743 10623 c-25 -5 -32 -33 -8 -33 8 0 15 -9 15 -20 0 -23 4 -24
29 -8 15 9 16 15 7 40 -6 15 -13 27 -16 27 -3 -1 -15 -4 -27 -6z"/>
<path d="M20592 10604 c9 -9 21 -13 27 -9 16 10 3 25 -22 25 -20 0 -20 -1 -5
-16z"/>
<path d="M20902 10579 c-30 -12 -19 -29 19 -29 23 0 30 4 27 17 -4 21 -17 24
-46 12z"/>
<path d="M20452 10559 c2 -6 8 -10 13 -10 5 0 11 4 13 10 2 6 -4 11 -13 11 -9
0 -15 -5 -13 -11z"/>
<path d="M20695 10539 c-10 -15 1 -23 20 -15 9 3 13 10 10 16 -8 13 -22 13
-30 -1z"/>
<path d="M19880 10522 c0 -20 36 -40 63 -35 34 7 34 16 2 31 -30 14 -65 16
-65 4z"/>
<path d="M20585 10510 c-3 -5 1 -10 9 -10 9 0 16 5 16 10 0 6 -4 10 -9 10 -6
0 -13 -4 -16 -10z"/>
<path d="M20050 10483 c0 -29 14 -36 69 -36 25 0 52 -4 59 -10 9 -7 16 -7 24
1 15 15 2 43 -22 49 -11 3 -20 8 -20 12 0 3 -25 6 -55 6 -50 0 -55 -2 -55 -22z"/>
<path d="M20447 10504 c-8 -8 1 -24 14 -24 5 0 9 7 9 15 0 15 -12 20 -23 9z"/>
<path d="M20635 10480 c3 -5 8 -10 11 -10 2 0 4 5 4 10 0 6 -5 10 -11 10 -5 0
-7 -4 -4 -10z"/>
<path d="M20307 10473 c-14 -13 -7 -63 8 -63 8 0 15 7 15 15 0 9 11 21 25 27
14 6 25 15 25 20 0 10 -64 11 -73 1z"/>
<path d="M20857 10456 c-3 -8 1 -17 9 -20 26 -10 34 -7 34 14 0 23 -35 28 -43
6z"/>
<path d="M20380 10426 c0 -13 11 -16 51 -16 31 0 48 4 44 10 -4 6 -18 10 -33
9 -15 -1 -35 2 -44 6 -13 5 -18 3 -18 -9z"/>
<path d="M19935 10420 c3 -5 23 -10 43 -9 33 1 34 2 12 9 -36 12 -62 12 -55 0z"/>
<path d="M20535 10402 c-2 -2 0 -13 5 -23 9 -15 21 -18 75 -16 46 2 70 8 82
20 16 16 16 17 -12 19 -92 4 -145 4 -150 0z"/>
<path d="M20440 10241 c-19 -13 -13 -17 33 -24 32 -5 38 -3 35 11 -4 19 -45
27 -68 13z"/>
<path d="M19780 10200 c0 -5 5 -10 11 -10 5 0 7 5 4 10 -3 6 -8 10 -11 10 -2
0 -4 -4 -4 -10z"/>
<path d="M20599 10098 c0 -2 -2 -15 -3 -30 -1 -24 1 -27 19 -22 20 7 44 32 45
47 0 6 -59 11 -61 5z"/>
<path d="M20510 10069 c0 -5 5 -7 10 -4 6 3 10 8 10 11 0 2 -4 4 -10 4 -5 0
-10 -5 -10 -11z"/>
<path d="M20212 10057 c-12 -7 -19 -16 -16 -20 8 -7 44 -10 44 -3 0 2 3 11 6
20 7 19 -3 20 -34 3z"/>
<path d="M20290 10063 c0 -15 48 -34 55 -23 4 6 18 7 33 4 21 -5 25 -4 15 6
-14 15 -103 26 -103 13z"/>
<path d="M20728 10025 c-16 -35 -5 -41 26 -14 31 27 33 39 6 39 -12 0 -25 -10
-32 -25z"/>
<path d="M19940 9945 c0 -19 48 -31 63 -16 17 17 68 13 89 -6 14 -13 21 -14
30 -5 22 22 -7 33 -96 37 -70 4 -86 2 -86 -10z"/>
<path d="M20190 9950 c0 -5 7 -10 15 -10 8 0 15 5 15 10 0 6 -7 10 -15 10 -8
0 -15 -4 -15 -10z"/>
<path d="M18601 9911 c-10 -6 -12 -20 -8 -45 4 -23 0 -46 -9 -64 -19 -36 -19
-112 0 -112 15 0 28 28 31 70 1 14 5 48 9 77 8 57 -1 87 -23 74z"/>
<path d="M27870 10645 c0 -10 7 -15 18 -13 21 4 19 22 -2 26 -10 2 -16 -3 -16
-13z"/>
<path d="M28052 10643 c2 -13 14 -19 38 -21 l35 -2 -24 20 c-29 25 -54 26 -49
3z"/>
<path d="M28185 10620 c-3 -5 1 -10 9 -10 8 0 18 5 21 10 3 6 -1 10 -9 10 -8
0 -18 -4 -21 -10z"/>
<path d="M27785 10540 c-27 -4 -72 -11 -100 -15 -50 -7 -135 -36 -135 -45 1
-24 25 -32 98 -35 71 -3 82 -1 87 15 6 20 72 50 110 50 28 0 34 24 9 34 -9 3
-16 5 -17 5 -1 -1 -24 -5 -52 -9z"/>
<path d="M27992 10509 c2 -7 14 -16 27 -20 18 -7 22 -6 19 9 -2 9 -14 19 -27
20 -15 3 -22 -1 -19 -9z"/>
<path d="M28180 10500 c0 -5 7 -10 15 -10 8 0 15 5 15 10 0 6 -7 10 -15 10 -8
0 -15 -4 -15 -10z"/>
<path d="M27486 10464 c-9 -22 -2 -27 24 -19 12 4 19 12 17 18 -6 19 -34 20
-41 1z"/>
<path d="M27903 10453 c-55 -4 -73 -22 -25 -25 60 -3 116 8 107 22 -3 6 -12 9
-18 8 -7 -1 -36 -3 -64 -5z"/>
<path d="M28115 10450 c-4 -6 -4 -10 -1 -10 2 0 11 -3 20 -6 9 -3 16 -2 16 4
0 14 -28 23 -35 12z"/>
<path d="M28209 10398 c0 -2 -2 -31 -3 -65 -3 -49 0 -65 14 -78 16 -15 18 -13
24 30 7 46 30 69 63 63 9 -2 18 3 20 10 3 7 -3 12 -14 12 -11 0 -23 4 -28 9
-10 9 -74 25 -76 19z"/>
<path d="M27390 10231 c-8 -16 -4 -26 25 -57 19 -20 37 -35 38 -33 11 15 27
63 27 80 0 15 -5 18 -24 13 -13 -3 -27 -1 -30 5 -11 16 -24 13 -36 -8z"/>
<path d="M28223 10075 c31 -27 57 -33 57 -12 0 22 -22 37 -54 37 l-31 -1 28
-24z"/>
<path d="M27470 10045 c-13 -14 -31 -25 -41 -25 -46 0 -39 -49 10 -65 31 -10
70 36 71 83 0 39 -9 40 -40 7z"/>
<path d="M28106 9954 c-22 -21 -20 -51 3 -64 29 -15 56 -12 75 9 16 18 16 20
-9 45 -30 30 -47 32 -69 10z"/>
<path d="M27400 9890 c0 -5 7 -10 15 -10 8 0 15 5 15 10 0 6 -7 10 -15 10 -8
0 -15 -4 -15 -10z"/>
<path d="M27836 9834 c-3 -9 -6 -17 -6 -19 0 -7 119 1 126 8 11 11 3 14 -57
21 -47 5 -58 3 -63 -10z"/>
<path d="M27720 9832 c0 -5 13 -20 29 -34 28 -25 29 -25 45 -7 15 18 14 19
-14 19 -20 0 -30 5 -30 15 0 8 -7 15 -15 15 -8 0 -15 -4 -15 -8z"/>
<path d="M27596 9791 c-22 -24 -12 -30 30 -21 48 11 50 16 15 28 -24 9 -32 7
-45 -7z"/>
<path d="M11550 9163 c-66 -7 -185 -35 -207 -49 -26 -17 -30 -46 -8 -64 12
-10 36 -7 122 16 96 25 125 28 258 28 94 0 191 -6 260 -17 61 -10 138 -22 171
-27 147 -23 204 -2 102 38 -148 58 -498 96 -698 75z"/>
<path d="M17990 9156 c0 -15 24 -28 34 -19 13 14 5 33 -14 33 -11 0 -20 -6
-20 -14z"/>
<path d="M18165 9025 c-13 -15 -66 -90 -119 -168 -97 -145 -187 -272 -273
-386 -115 -153 -367 -532 -413 -621 -7 -14 -33 -55 -56 -92 -24 -37 -44 -69
-44 -73 0 -3 -13 -24 -30 -47 -16 -22 -30 -45 -30 -50 0 -5 -15 -33 -34 -61
-83 -128 -186 -307 -188 -329 -4 -30 38 -39 49 -11 3 10 25 45 49 78 23 33 53
83 67 110 14 28 62 109 108 180 45 72 104 166 131 210 27 44 60 96 74 115 14
19 63 94 109 165 45 72 100 154 121 183 71 97 147 196 187 242 22 25 43 54 48
65 5 11 31 50 57 86 26 37 84 120 129 185 45 66 93 130 106 144 36 39 47 62
36 82 -14 26 -56 22 -84 -7z"/>
<path d="M11749 9008 c-17 -31 -37 -211 -45 -398 -5 -137 1 -336 23 -663 l6
-100 -209 6 c-215 7 -360 29 -410 62 -51 33 -93 11 -75 -38 12 -31 43 -50 121
-72 56 -17 100 -19 318 -20 l253 0 10 -40 c16 -63 17 -65 38 -65 24 0 37 36
27 75 -5 21 -2 27 19 35 15 6 47 10 72 10 135 0 482 55 507 80 20 20 -19 39
-62 30 -20 -4 -107 -15 -192 -24 -85 -9 -187 -21 -226 -27 -90 -13 -121 -6
-129 29 -3 15 -6 196 -8 402 -2 317 1 401 17 542 16 138 18 169 7 182 -19 23
-48 20 -62 -6z"/>
<path d="M13542 8778 c-13 -17 -29 -100 -41 -216 -6 -51 -13 -97 -16 -102 -9
-15 -26 -12 -71 9 -60 29 -127 37 -147 16 -33 -33 -21 -43 96 -79 50 -15 91
-34 94 -42 3 -9 -2 -43 -12 -77 -10 -34 -25 -87 -33 -117 -9 -30 -24 -64 -34
-76 -22 -25 -23 -38 -3 -54 43 -36 92 47 130 222 9 43 21 80 26 84 14 8 162
-17 176 -30 9 -8 10 -30 3 -80 -10 -82 -2 -144 29 -211 27 -59 67 -88 207
-148 119 -51 125 -49 140 59 16 114 31 169 75 260 33 70 48 89 106 136 37 30
114 83 171 119 105 66 130 99 75 99 -62 0 -333 -181 -376 -253 -8 -12 -33 -51
-56 -87 -22 -36 -41 -74 -41 -86 0 -12 -6 -40 -14 -62 -8 -22 -18 -61 -22 -87
-3 -26 -13 -49 -20 -52 -20 -7 -119 54 -159 98 -24 27 -35 50 -41 90 -10 71
-7 180 5 192 6 6 63 11 128 12 89 1 128 5 160 19 108 46 108 176 1 232 -58 30
-207 8 -256 -38 -13 -13 -37 -49 -55 -80 -29 -54 -34 -58 -67 -58 -48 0 -140
28 -146 44 -3 7 9 69 26 138 36 149 38 193 11 208 -26 13 -36 13 -49 -2z m516
-288 c38 -23 43 -57 12 -85 -16 -14 -45 -20 -122 -26 -56 -4 -108 -4 -115 -2
-21 8 -15 38 15 65 72 69 148 86 210 48z"/>
<path d="M16292 8715 c-49 -44 -100 -154 -123 -264 -10 -46 -22 -88 -27 -93
-4 -4 -40 -11 -78 -14 -77 -6 -152 -22 -171 -37 -18 -13 -16 -52 2 -67 16 -14
49 -10 110 13 22 8 57 18 77 22 51 10 56 -8 28 -98 -32 -101 -37 -155 -16
-163 31 -12 42 11 70 156 17 81 24 98 46 110 10 5 105 12 212 15 244 7 309 12
322 25 35 35 -101 53 -327 44 -197 -7 -202 -6 -181 61 20 67 91 198 124 231
34 33 38 69 11 84 -30 15 -38 13 -79 -25z"/>
<path d="M22403 8688 c-5 -7 -22 -35 -38 -63 -15 -27 -65 -97 -110 -155 -45
-58 -102 -135 -127 -171 -58 -83 -168 -271 -168 -287 0 -6 -8 -28 -19 -49 -31
-63 -83 -176 -99 -213 -8 -19 -18 -42 -23 -50 -22 -38 -70 -146 -79 -179 -5
-20 -16 -45 -23 -56 -7 -11 -19 -40 -27 -64 -8 -24 -20 -45 -27 -48 -7 -3 -13
-10 -13 -17 0 -6 -7 -24 -15 -40 -17 -31 -12 -48 11 -39 18 7 44 55 44 83 0
20 14 50 36 80 7 8 15 30 19 49 4 18 15 35 24 38 16 4 37 50 48 105 3 15 11
33 19 39 8 6 14 16 14 22 0 5 11 25 25 43 14 18 25 37 25 42 0 15 62 135 87
169 14 17 39 60 57 95 63 123 171 283 281 418 80 98 135 180 135 203 0 45 -36
73 -57 45z"/>
<path d="M12646 8598 c-55 -85 -84 -188 -108 -390 -11 -86 -10 -102 5 -132 36
-76 108 -57 204 52 180 203 318 321 353 302 37 -20 60 -120 75 -319 3 -41 11
-81 17 -88 19 -23 57 -11 79 24 l21 32 -25 23 c-21 20 -25 32 -25 83 0 74 -28
218 -53 267 -32 63 -79 74 -152 37 -90 -46 -180 -123 -262 -224 -60 -73 -140
-155 -153 -155 -22 0 -24 52 -7 143 27 146 41 189 75 243 40 66 40 117 -2 122
-19 2 -31 -3 -42 -20z"/>
<path d="M18800 8614 c-74 -7 -270 -44 -296 -56 -46 -21 -21 -86 28 -75 13 3
75 18 138 35 63 16 143 33 178 37 59 7 62 6 62 -14 0 -12 -12 -45 -26 -74 -53
-103 -100 -279 -129 -482 -8 -55 -19 -129 -25 -165 -21 -137 -6 -319 34 -414
12 -30 20 -37 38 -34 20 3 23 8 21 43 -1 22 -9 78 -18 125 -15 73 -16 101 -6
202 25 263 85 516 167 703 54 123 39 118 219 80 161 -33 187 -40 212 -53 31
-17 103 -16 103 1 0 8 -19 23 -42 34 -57 28 -274 91 -343 99 -55 7 -270 12
-315 8z"/>
<path d="M18190 8530 c-17 -33 -9 -75 15 -75 17 0 20 7 20 44 0 49 -17 64 -35
31z"/>
<path d="M15491 8443 c-47 -23 -98 -97 -112 -162 -6 -31 -8 -86 -5 -130 13
-169 17 -152 -34 -168 -25 -8 -89 -15 -142 -16 -97 -2 -98 -2 -129 29 -29 30
-31 35 -30 105 1 41 10 109 20 152 23 92 16 127 -23 127 -28 0 -65 -41 -136
-150 -52 -80 -158 -190 -184 -190 -9 0 -16 8 -16 18 0 34 47 177 79 240 33 66
38 91 19 110 -20 20 -45 14 -66 -15 -22 -33 -60 -130 -72 -188 -4 -22 -16 -69
-25 -104 -21 -75 -12 -118 26 -140 53 -29 132 32 270 210 36 46 50 31 39 -39
-11 -64 1 -134 27 -171 11 -14 39 -36 64 -49 38 -20 55 -22 129 -18 50 2 109
13 144 25 33 12 63 21 67 21 4 0 25 -25 45 -56 30 -46 49 -62 98 -86 56 -27
67 -29 134 -23 90 8 194 49 244 96 32 30 58 68 58 83 0 16 -36 2 -97 -37 -83
-53 -150 -77 -217 -77 -85 0 -181 63 -174 114 2 14 29 35 80 63 114 64 198
171 198 252 0 42 -14 73 -52 116 -60 69 -155 93 -227 58z m164 -94 c53 -49 56
-69 20 -138 -38 -76 -184 -196 -209 -171 -18 18 -13 207 7 251 21 46 81 99
113 99 15 0 42 -16 69 -41z"/>
<path d="M19635 8354 c-263 -58 -347 -116 -424 -289 -31 -70 -41 -217 -17
-264 32 -62 146 -82 211 -38 64 44 103 105 181 285 8 19 20 32 27 29 6 -2 24
-37 38 -78 74 -207 120 -306 157 -342 34 -32 90 -44 116 -24 22 16 14 37 -14
37 -24 0 -73 58 -100 117 -12 26 -43 109 -70 183 -69 196 -97 246 -136 238
-21 -4 -42 -39 -111 -193 -42 -95 -63 -129 -99 -162 -64 -60 -118 -56 -144 11
-15 41 -13 60 22 149 26 68 42 92 92 142 49 48 74 65 126 82 83 28 159 43 215
43 68 0 97 15 93 48 -3 26 -5 27 -73 29 -38 0 -79 -1 -90 -3z"/>
<path d="M20954 8241 c-54 -13 -111 -52 -133 -92 -13 -22 -24 -65 -28 -104 -6
-62 -8 -66 -27 -60 -54 17 -76 17 -82 0 -11 -28 7 -46 62 -64 67 -22 76 -29
107 -82 49 -86 149 -151 289 -188 122 -33 170 -36 199 -12 33 27 18 39 -62 52
-96 15 -227 64 -289 108 -56 39 -91 83 -77 98 5 4 37 6 73 5 114 -3 254 37
295 84 31 36 31 68 -1 116 -68 103 -215 165 -326 139z m163 -95 c54 -27 103
-76 103 -101 0 -19 -10 -27 -57 -45 -32 -12 -87 -26 -123 -31 -36 -5 -79 -12
-96 -15 -54 -10 -74 8 -74 71 0 43 5 59 26 84 58 69 135 82 221 37z"/>
<path d="M20301 8059 c-29 -10 -69 -30 -87 -44 -18 -14 -40 -25 -48 -25 -24 0
-42 -37 -61 -125 -10 -44 -23 -91 -30 -105 -69 -134 -172 -710 -135 -755 15
-18 44 -20 57 -2 6 6 18 66 28 132 9 66 33 194 52 285 18 91 36 180 40 198 3
18 10 35 14 38 5 3 44 6 86 7 62 2 90 8 135 30 123 60 271 251 251 325 -2 11
-22 29 -43 41 -50 28 -180 28 -259 0z m213 -42 c16 -12 16 -15 -2 -58 -41 -95
-182 -212 -281 -234 -38 -8 -81 16 -81 45 0 35 56 145 92 181 57 57 227 99
272 66z"/>
<path d="M13965 7315 c-27 -6 -66 -20 -85 -30 -52 -27 -140 -122 -195 -209
-26 -42 -51 -76 -56 -76 -17 0 -33 -46 -40 -115 -4 -38 -19 -121 -33 -184 -26
-113 -44 -273 -45 -408 -1 -69 1 -74 31 -102 65 -60 193 -70 348 -26 221 62
349 108 443 157 74 38 87 33 87 -30 0 -51 16 -77 38 -63 7 4 16 58 23 142 6
74 17 152 24 174 8 22 28 94 45 160 27 103 55 189 104 320 6 17 30 66 54 109
45 82 48 102 21 119 -43 27 -92 -50 -167 -260 -51 -143 -67 -199 -87 -313 -9
-52 -19 -105 -21 -117 -7 -36 -29 -28 -100 38 -85 76 -216 141 -332 163 -45 9
-95 16 -110 16 -35 0 -60 16 -47 29 6 5 66 33 134 61 177 73 313 144 350 180
25 25 31 40 31 74 0 36 -6 47 -37 77 -52 49 -135 93 -214 113 -75 18 -95 19
-164 1z m227 -84 c75 -37 91 -48 107 -79 11 -22 9 -27 -27 -61 -22 -21 -59
-47 -83 -59 -447 -211 -493 -235 -497 -260 -3 -22 13 -26 133 -37 190 -17 335
-65 469 -155 58 -40 116 -94 116 -109 0 -55 -263 -168 -560 -241 -47 -12 -102
-26 -123 -31 -27 -7 -48 -7 -73 1 -47 16 -58 39 -45 103 10 54 16 130 30 377
9 151 16 182 77 303 69 136 134 212 228 265 59 33 160 26 248 -17z"/>
<path d="M18069 7163 c-72 -65 -138 -163 -213 -313 -92 -185 -131 -285 -251
-640 -31 -91 -61 -180 -67 -198 -9 -25 -9 -35 1 -45 25 -25 68 31 90 120 21
79 83 251 126 348 7 17 20 51 28 76 13 39 80 185 155 339 39 81 106 172 173
239 71 69 72 71 54 91 -26 29 -50 25 -96 -17z"/>
<path d="M18520 6948 c-34 -15 -75 -44 -110 -78 -54 -55 -131 -171 -145 -220
-6 -23 -43 -107 -66 -153 -6 -10 -30 -77 -54 -150 -45 -136 -68 -239 -64 -286
2 -14 -1 -36 -5 -49 -5 -16 -3 -29 9 -42 29 -33 60 -33 131 0 36 17 75 35 87
39 39 15 199 154 306 267 86 91 211 255 211 278 0 4 11 23 24 44 40 60 59 153
46 218 -22 106 -78 144 -219 150 -83 4 -103 1 -151 -18z m247 -62 c52 -26 67
-57 60 -125 -13 -147 -178 -373 -446 -607 -98 -87 -176 -134 -221 -134 -31 0
-32 1 -17 23 8 13 31 87 51 165 41 161 104 346 147 432 16 32 29 62 29 66 0
17 94 128 127 151 91 62 188 73 270 29z"/>
<path d="M20185 6881 c-97 -31 -177 -108 -233 -221 -7 -14 -22 -43 -35 -65
-12 -22 -31 -61 -40 -87 -20 -51 -43 -76 -57 -62 -5 5 5 80 26 184 40 205 41
234 2 238 -33 4 -40 -15 -68 -203 -11 -77 -27 -174 -35 -215 -19 -98 -34 -178
-50 -266 -7 -39 -22 -93 -34 -119 -27 -60 -26 -80 1 -99 l21 -15 -27 -11 c-15
-5 -32 -10 -37 -10 -18 0 -9 -19 12 -25 36 -12 171 6 224 28 106 45 224 146
307 262 37 51 124 225 153 305 33 90 64 216 65 258 0 59 -22 108 -59 126 -37
20 -71 19 -136 -3z m107 -58 c12 -10 18 -30 18 -56 0 -49 -81 -309 -121 -391
-90 -181 -234 -334 -373 -395 -54 -24 -122 -29 -113 -8 28 65 75 190 101 272
18 55 41 115 51 134 9 19 25 58 35 86 10 29 32 72 49 95 17 24 31 48 31 55 0
16 145 165 161 165 6 0 27 14 46 30 38 34 86 40 115 13z"/>
<path d="M15750 6733 c-43 -7 -123 -35 -171 -59 -81 -41 -158 -148 -190 -266
-10 -37 -13 -40 -40 -36 -40 6 -45 -6 -53 -131 -6 -90 -5 -106 10 -122 20 -22
47 -25 61 -6 5 6 18 41 28 77 10 36 27 97 38 135 29 104 92 220 141 259 56 45
94 63 170 81 69 16 229 25 241 13 4 -3 1 -33 -6 -64 -12 -54 -20 -65 -104
-149 -102 -101 -175 -194 -175 -223 0 -24 19 -40 56 -48 59 -11 151 88 207
226 49 117 60 115 103 -20 18 -58 41 -118 50 -135 38 -68 99 -115 148 -115 49
0 44 38 -9 63 -19 9 -46 34 -60 55 -27 42 -74 166 -95 251 l-12 52 36 34 c39
35 47 73 21 95 -30 25 -305 48 -395 33z"/>
<path d="M18956 6718 c-9 -12 -16 -32 -16 -45 0 -12 -4 -33 -10 -47 -20 -54
-50 -232 -61 -366 -11 -125 -10 -144 5 -184 44 -115 168 -114 297 2 86 77 155
174 209 292 11 25 25 52 30 60 6 8 15 26 22 40 33 72 61 128 76 152 9 15 13
30 9 35 -21 20 -66 -42 -147 -202 -67 -133 -250 -340 -331 -375 -47 -20 -52
-20 -75 -5 -35 22 -39 55 -25 200 11 122 27 205 67 352 15 58 16 64 0 88 -20
31 -30 31 -50 3z"/>
<path d="M14711 6665 c-81 -104 -35 -513 70 -614 90 -88 233 -79 337 22 73 70
137 210 159 346 10 61 -19 29 -55 -59 -19 -47 -47 -101 -63 -121 -16 -20 -29
-42 -29 -48 0 -14 -116 -110 -147 -122 -69 -26 -136 -1 -170 64 -29 57 -54
181 -60 297 -5 111 -5 118 21 169 26 50 26 54 10 72 -23 26 -49 24 -73 -6z"/>
<path d="M16508 6563 c-7 -17 -12 -89 -12 -186 0 -143 2 -160 21 -185 25 -34
91 -42 131 -16 33 22 110 84 180 147 49 43 82 59 82 40 0 -5 -36 -82 -82 -173
-102 -206 -93 -188 -133 -282 -41 -96 -50 -134 -35 -143 14 -9 50 23 50 44 0
9 23 56 50 105 28 49 50 92 50 96 0 16 162 323 185 350 32 37 69 142 60 169
-14 47 -63 31 -135 -44 -39 -41 -143 -124 -272 -218 -74 -55 -90 -27 -76 138
6 61 10 120 10 133 0 53 -54 71 -74 25z"/>
<path d="M8047 18823 c-8 -10 -38 -76 -66 -148 -28 -71 -61 -138 -72 -147 -12
-10 -36 -18 -54 -18 -17 0 -45 -4 -61 -9 -16 -5 -55 -12 -87 -16 -70 -8 -113
-39 -103 -73 11 -34 38 -34 118 -3 41 17 93 33 116 37 52 8 53 2 12 -97 -35
-86 -45 -129 -35 -158 14 -45 58 -12 69 52 4 22 23 74 42 117 19 43 34 83 34
89 0 20 43 29 166 37 65 4 130 8 144 9 14 1 37 3 53 3 19 2 27 7 27 21 0 32
-19 34 -275 27 -43 -1 -50 2 -53 19 -2 12 20 66 48 122 59 120 64 153 22 153
-16 0 -36 -8 -45 -17z"/>
<path d="M7375 18629 c-241 -43 -355 -81 -355 -118 0 -30 32 -50 108 -66 40
-8 89 -24 110 -34 50 -27 104 -79 100 -99 -4 -18 -74 -62 -138 -84 -25 -9 -65
-24 -89 -33 -63 -23 -216 -53 -310 -61 -125 -11 -246 28 -277 88 -17 33 -18
115 -1 148 29 57 140 99 211 79 46 -13 54 -32 31 -76 -20 -36 -66 -64 -147
-89 -36 -11 -48 -20 -48 -34 0 -16 7 -20 38 -20 82 0 177 49 222 115 67 98 17
168 -119 167 -168 -2 -263 -75 -277 -214 -9 -93 15 -134 107 -183 61 -32 79
-36 168 -42 134 -8 256 10 416 63 159 52 220 78 264 111 31 24 33 29 28 70 -3
31 -14 54 -33 74 -31 32 -125 80 -192 99 -82 21 -50 40 124 70 146 25 224 48
224 65 0 13 -22 26 -43 24 -7 0 -61 -10 -122 -20z"/>
<path d="M13083 18416 c-71 -101 -184 -226 -291 -322 -59 -53 -114 -109 -122
-126 -13 -26 -12 -32 5 -64 28 -52 98 -85 215 -100 93 -12 130 -12 364 6 123
9 188 30 194 63 4 20 -31 22 -123 7 -83 -14 -483 -15 -517 -1 -15 5 -37 20
-48 31 l-22 22 184 186 c253 257 290 306 256 340 -26 26 -56 13 -95 -42z"/>
<path d="M16243 18428 c-30 -33 -114 -221 -195 -438 -11 -30 -24 -65 -29 -77
-13 -34 -25 -28 -64 32 -59 93 -139 123 -242 91 -70 -22 -86 -51 -58 -102 10
-20 35 -48 55 -64 38 -30 146 -70 189 -70 17 0 36 -11 53 -31 24 -27 30 -29
50 -18 13 7 41 13 63 13 48 1 60 26 20 44 -14 6 -25 19 -25 29 0 9 24 66 54
127 29 61 57 122 61 135 12 39 95 203 120 236 35 47 39 71 16 94 -27 27 -43
26 -68 -1z m-347 -477 c33 -20 57 -70 44 -91 -6 -10 -26 -7 -91 16 -45 16 -92
37 -103 46 -21 18 -21 18 -2 33 28 22 114 19 152 -4z"/>
<path d="M15012 18348 c-7 -7 -12 -32 -12 -57 0 -78 -37 -231 -61 -257 -16
-17 -20 -30 -15 -49 4 -16 0 -48 -10 -77 -15 -47 -15 -51 0 -67 16 -15 19 -14
39 10 12 15 30 41 39 58 l18 33 67 -8 c38 -4 84 -7 103 -6 72 5 95 -5 130 -59
17 -27 50 -62 73 -77 35 -24 51 -27 118 -27 62 0 82 4 96 18 17 18 17 19 -1
33 -13 9 -45 14 -94 14 -73 0 -75 1 -114 40 -22 21 -38 46 -36 55 2 9 29 27
61 40 70 28 95 49 114 93 11 28 11 36 -1 60 -18 36 -44 57 -85 71 -51 17 -112
13 -148 -9 -36 -22 -42 -37 -45 -125 l-3 -60 -81 2 c-45 0 -92 7 -104 13 -24
13 -24 29 1 130 6 25 13 75 16 111 4 59 3 69 -16 88 -24 24 -32 26 -49 9z
m429 -228 c28 -15 24 -34 -16 -69 -45 -39 -81 -49 -102 -28 -23 22 -1 71 40
91 38 18 52 19 78 6z"/>
<path d="M14624 18340 c-12 -5 -25 -14 -29 -20 -12 -20 5 -60 31 -73 24 -10
29 -8 50 18 29 36 30 61 5 75 -23 12 -29 12 -57 0z"/>
<path d="M13665 18309 c-12 -18 4 -57 26 -64 38 -12 65 35 37 63 -15 15 -55
16 -63 1z"/>
<path d="M13542 18133 c-14 -28 -30 -108 -43 -219 -13 -114 -6 -157 29 -162
26 -4 36 30 51 163 6 49 18 110 27 136 23 63 14 99 -26 99 -18 0 -33 -7 -38
-17z"/>
<path d="M13897 18065 c-10 -9 -17 -52 -22 -127 l-7 -112 27 -23 c36 -32 52
-29 91 14 l35 38 22 -27 c21 -26 35 -32 68 -29 8 0 50 33 93 72 42 39 80 68
84 64 4 -3 7 -24 8 -45 0 -46 28 -82 58 -78 18 3 22 11 24 53 5 80 -7 135 -35
161 -41 38 -61 31 -134 -47 -79 -85 -101 -88 -109 -19 -7 57 -15 70 -46 70
-21 0 -29 -10 -51 -60 -35 -82 -58 -82 -49 0 7 62 -1 93 -28 103 -9 4 -22 0
-29 -8z"/>
<path d="M14553 18034 c-3 -9 -1 -31 5 -48 16 -44 15 -78 -4 -136 -12 -37 -13
-53 -4 -69 14 -28 32 -26 64 5 42 42 58 130 35 191 -23 60 -81 95 -96 57z"/>
<path d="M27153 17659 c-25 -9 -30 -19 -10 -19 15 0 43 17 37 23 -3 3 -15 1
-27 -4z"/>
<path d="M17504 17490 c-73 -11 -193 -71 -249 -125 -84 -82 -142 -246 -133
-374 6 -89 40 -118 103 -89 32 14 33 46 1 58 -30 11 -34 17 -41 66 -9 60 4 71
51 39 83 -56 187 -99 251 -103 121 -8 120 19 -2 57 -85 27 -158 62 -163 78 -2
7 9 15 25 18 173 37 301 91 348 147 50 60 53 147 6 192 -23 22 -112 50 -140
45 -3 -1 -29 -5 -57 -9z m138 -77 c41 -37 9 -122 -62 -162 -53 -30 -262 -97
-322 -103 -55 -6 -58 -2 -29 64 39 90 106 151 211 195 69 28 174 32 202 6z"/>
<path d="M18712 17360 c-30 -12 -38 -38 -19 -57 18 -18 84 -11 114 13 17 13
17 15 -6 34 -25 21 -52 24 -89 10z"/>
<path d="M18655 17216 c-16 -16 -25 -43 -34 -102 -6 -45 -9 -88 -5 -97 10 -27
52 -21 68 11 19 37 47 167 40 185 -10 26 -44 28 -69 3z"/>
<path d="M17792 17199 c-34 -17 -71 -43 -82 -59 -54 -76 8 -183 128 -220 105
-33 279 -23 273 15 0 6 -39 11 -89 11 -56 1 -106 8 -142 20 -78 27 -74 45 20
99 87 49 110 79 92 119 -25 55 -109 61 -200 15z m107 -38 c7 -5 11 -14 7 -20
-13 -21 -95 -71 -115 -71 -32 0 -28 44 7 68 40 29 78 37 101 23z"/>
<path d="M18320 17183 c-157 -27 -267 -143 -179 -188 37 -20 70 -14 141 26 48
26 88 37 88 24 0 -3 -7 -22 -16 -43 -8 -20 -28 -72 -44 -115 -16 -42 -45 -104
-65 -137 -20 -34 -34 -67 -31 -75 7 -20 36 -19 62 3 46 38 66 80 155 336 29
84 30 141 1 164 -15 12 -61 14 -112 5z m20 -67 c0 -2 -19 -18 -42 -35 -40 -30
-108 -43 -108 -22 0 13 100 61 127 61 13 0 23 -2 23 -4z"/>
<path d="M19752 17001 c-49 -19 -82 -45 -82 -65 0 -27 49 -73 102 -96 47 -20
50 -24 35 -35 -10 -7 -35 -16 -55 -20 -84 -15 -131 -57 -79 -70 33 -8 204 31
238 55 33 24 38 54 11 71 -9 6 -48 23 -86 37 -74 29 -102 55 -76 73 8 5 26 7
40 4 58 -14 75 -11 78 14 7 49 -47 63 -126 32z"/>
<path d="M6147 16957 c-73 -41 -148 -114 -312 -303 -260 -302 -465 -587 -449
-627 7 -19 35 -30 56 -22 8 3 22 23 32 44 9 22 27 54 39 73 12 18 38 58 56 88
18 30 56 82 83 115 27 33 84 105 127 160 90 116 320 353 371 384 49 30 73 26
109 -15 l31 -35 -5 -142 c-2 -78 -7 -268 -10 -422 -3 -154 -7 -350 -10 -435
-3 -85 -7 -288 -10 -450 -13 -750 -49 -1510 -86 -1780 -5 -41 -23 -169 -40
-285 -17 -115 -37 -255 -44 -310 -8 -55 -19 -131 -25 -170 -6 -38 -15 -121
-20 -183 -5 -62 -11 -116 -14 -120 -2 -4 -7 -167 -11 -362 -4 -195 -9 -373
-11 -395 -2 -30 -3 -952 -1 -1400 0 -16 -3 -185 -7 -375 -8 -365 2 -638 25
-666 7 -8 24 -14 38 -12 25 3 26 5 23 63 -1 33 -7 76 -11 95 -5 19 -7 175 -4
345 2 171 6 699 7 1175 2 799 8 1169 21 1360 3 41 7 118 10 170 3 52 7 113 10
135 3 22 7 64 10 94 3 30 10 81 15 115 6 34 18 106 26 161 8 55 21 145 30 200
8 55 17 118 19 140 3 22 9 72 15 110 23 166 60 667 75 1025 3 69 8 179 11 245
5 120 9 254 19 605 3 102 7 430 9 730 3 300 9 546 14 548 11 3 46 -61 66 -125
25 -75 66 -281 66 -328 0 -50 24 -87 53 -83 21 3 22 8 20 78 -6 171 -57 352
-169 600 -19 42 -34 79 -34 83 0 4 -15 30 -34 59 -57 88 -88 96 -179 45z"/>
<path d="M27500 16700 c0 -5 7 -10 16 -10 8 0 12 5 9 10 -3 6 -10 10 -16 10
-5 0 -9 -4 -9 -10z"/>
<path d="M27373 16683 c-20 -7 -15 -23 6 -23 28 0 52 11 45 21 -6 10 -31 11
-51 2z"/>
<path d="M30225 11947 c-4 -10 -5 -21 -1 -24 10 -10 18 4 13 24 -4 17 -4 17
-12 0z"/>
<path d="M29870 11843 c1 -27 1 -27 15 -9 14 19 12 36 -6 36 -5 0 -9 -12 -9
-27z"/>
<path d="M29850 11757 c0 -20 5 -27 20 -27 11 0 20 4 20 8 0 5 -9 17 -20 27
-20 18 -20 17 -20 -8z"/>
<path d="M30202 11768 c-22 -22 -14 -45 18 -50 36 -5 44 4 36 38 -7 26 -34 32
-54 12z"/>
<path d="M29850 11655 c-16 -19 -6 -45 18 -45 11 0 26 -10 35 -22 14 -22 15
-22 23 -4 5 14 1 25 -19 40 -15 12 -27 27 -27 34 0 16 -15 15 -30 -3z"/>
<path d="M30197 11615 c-9 -20 -17 -46 -17 -60 0 -15 -7 -26 -20 -30 -11 -3
-25 -15 -30 -25 -8 -15 -5 -23 12 -40 12 -11 30 -20 39 -20 10 0 27 -9 37 -20
12 -13 25 -18 35 -14 20 7 22 20 5 31 -12 7 -17 9 -36 12 -5 0 -14 12 -20 25
-14 32 1 96 28 118 24 19 23 51 -1 56 -9 2 -22 -11 -32 -33z"/>
<path d="M29941 11476 c-8 -10 -8 -16 2 -25 17 -13 54 10 43 27 -10 16 -31 15
-45 -2z"/>
<path d="M29877 11300 c-20 -57 -19 -65 12 -55 22 7 26 35 13 83 -6 20 -10 16
-25 -28z"/>
<path d="M30226 11255 c-14 -33 -14 -36 10 -62 13 -14 27 -23 31 -20 3 4 8 32
11 62 4 51 3 55 -17 55 -14 0 -25 -11 -35 -35z"/>
<path d="M30050 11196 c0 -9 5 -16 10 -16 6 0 10 4 10 9 0 6 -4 13 -10 16 -5
3 -10 -1 -10 -9z"/>
<path d="M29850 11165 c0 -8 5 -15 10 -15 6 0 10 7 10 15 0 8 -4 15 -10 15 -5
0 -10 -7 -10 -15z"/>
<path d="M30246 11125 c4 -8 10 -15 15 -15 4 0 6 7 3 15 -4 8 -10 15 -15 15
-4 0 -6 -7 -3 -15z"/>
<path d="M30214 10989 c3 -17 6 -40 6 -50 0 -37 28 -20 35 21 8 46 2 60 -27
60 -18 0 -20 -4 -14 -31z"/>
<path d="M30190 10865 c-20 -53 -21 -74 -6 -104 9 -17 23 -31 30 -31 22 0 28
31 10 52 -15 16 -15 22 -4 43 7 14 17 25 22 25 4 0 8 7 8 16 0 8 -4 13 -9 9
-5 -3 -12 -1 -16 5 -11 17 -25 11 -35 -15z"/>
<path d="M29910 10841 c0 -5 5 -13 10 -16 6 -3 10 -2 10 4 0 5 -4 13 -10 16
-5 3 -10 2 -10 -4z"/>
<path d="M30260 10725 c0 -9 5 -15 11 -13 6 2 11 8 11 13 0 5 -5 11 -11 13 -6
2 -11 -4 -11 -13z"/>
<path d="M30310 10717 c0 -14 41 -57 53 -57 4 0 19 7 33 17 l26 16 -49 19
c-57 22 -63 22 -63 5z"/>
<path d="M30115 10660 c-3 -10 3 -33 15 -51 33 -56 34 -61 15 -75 -10 -8 -17
-15 -14 -17 2 -2 20 -13 40 -25 35 -21 38 -22 67 -5 26 15 36 15 101 3 63 -12
74 -12 82 1 14 22 -36 38 -124 39 -93 0 -121 11 -113 45 3 13 0 27 -8 34 -8 7
-17 22 -20 35 -8 31 -33 41 -41 16z"/>
<path d="M30385 10611 c-3 -6 3 -15 14 -21 21 -11 37 2 26 20 -8 13 -32 13
-40 1z"/>
<path d="M30083 10525 c-3 -9 -3 -18 -1 -21 9 -9 38 8 38 22 0 19 -29 18 -37
-1z"/>
<path d="M30000 10430 c0 -5 5 -10 10 -10 6 0 10 5 10 10 0 6 -4 10 -10 10 -5
0 -10 -4 -10 -10z"/>
<path d="M30606 10393 c-8 -20 10 -38 47 -47 32 -7 32 -8 11 32 -17 35 -48 43
-58 15z"/>
<path d="M32415 10370 c4 -6 11 -8 16 -5 14 9 11 15 -7 15 -8 0 -12 -5 -9 -10z"/>
<path d="M30570 10307 c0 -8 7 -20 15 -27 21 -17 19 -29 -7 -39 -20 -7 -20 -9
11 -13 38 -6 49 10 33 47 -14 30 -52 53 -52 32z"/>
<path d="M30050 10275 c12 -15 30 -12 30 6 0 5 -10 9 -21 9 -18 0 -19 -2 -9
-15z"/>
<path d="M29980 10187 c0 -20 4 -22 42 -19 l42 4 -23 19 c-33 27 -61 25 -61
-4z"/>
<path d="M30570 10132 c0 -17 27 -82 34 -82 6 0 -2 79 -9 90 -10 16 -25 12
-25 -8z"/>
<path d="M30540 9985 c-7 -8 -23 -15 -35 -15 -22 0 -40 -24 -30 -40 2 -4 21
-15 40 -25 42 -19 65 -8 65 31 0 17 -6 24 -20 24 -23 0 -26 10 -8 28 7 7 9 12
6 12 -3 0 -11 -7 -18 -15z"/>
<path d="M6778 9883 c-8 -10 -21 -34 -28 -52 -8 -19 -27 -58 -43 -85 -26 -47
-40 -69 -103 -165 -23 -34 -119 -135 -200 -211 -202 -188 -424 -291 -546 -254
-25 7 -98 109 -140 195 -67 136 -92 237 -107 439 -7 96 -13 110 -45 110 -53 0
-58 -45 -22 -220 42 -206 59 -259 123 -384 85 -166 143 -215 252 -216 119 0
289 74 404 176 20 19 41 34 46 34 16 0 237 226 279 285 90 129 115 170 142
236 27 66 34 89 31 117 -2 18 -25 15 -43 -5z"/>
<path d="M30320 9760 c0 -5 5 -10 11 -10 5 0 7 5 4 10 -3 6 -8 10 -11 10 -2 0
-4 -4 -4 -10z"/>
<path d="M910 8970 c-118 -9 -205 -32 -279 -73 -120 -67 -181 -139 -181 -216
0 -59 50 -121 126 -156 30 -14 57 -25 59 -25 3 0 42 -17 87 -38 46 -21 108
-49 138 -61 146 -62 323 -168 395 -239 68 -66 111 -146 101 -186 -18 -72 -174
-179 -331 -226 -38 -11 -83 -25 -100 -30 -16 -5 -71 -12 -121 -16 -76 -6 -96
-4 -115 10 -29 20 -68 21 -75 1 -9 -22 14 -45 65 -67 55 -23 160 -17 271 17
41 12 89 25 105 28 68 13 236 104 295 161 52 49 73 90 76 148 6 119 -174 282
-468 422 -65 31 -122 56 -127 56 -5 0 -22 6 -38 14 -15 8 -67 32 -114 54 -103
48 -169 105 -169 149 0 54 49 106 142 150 116 55 172 67 324 68 101 0 135 -3
149 -15 17 -14 40 -29 82 -51 41 -22 80 16 50 49 -51 56 -188 84 -347 72z"/>
<path d="M1722 8853 c-19 -7 -52 -89 -52 -130 0 -19 -11 -67 -24 -106 -54
-161 -84 -351 -85 -528 -1 -85 2 -109 15 -119 12 -11 18 -11 30 1 11 12 12 25
6 55 -4 21 -5 59 0 84 4 25 15 92 23 148 16 102 53 257 79 337 8 22 19 65 26
95 7 30 19 68 27 83 22 44 -6 93 -45 80z"/>
<path d="M6477 8793 c-19 -21 -56 -63 -84 -93 -65 -73 -262 -278 -291 -304
-29 -26 -224 -225 -318 -326 -97 -102 -313 -394 -345 -463 -14 -30 -32 -62
-47 -79 -6 -8 -28 -47 -48 -87 -29 -59 -34 -74 -23 -87 15 -18 49 -15 60 6 5
8 23 47 40 85 53 115 230 374 351 512 102 116 290 310 378 389 106 96 410 416
410 432 0 18 -29 52 -43 52 -3 0 -21 -17 -40 -37z"/>
<path d="M4961 8634 c-98 -33 -206 -97 -259 -152 -24 -25 -57 -75 -73 -110
-40 -90 -39 -160 10 -334 26 -96 28 -170 4 -194 -56 -55 -205 -77 -338 -50
-87 19 -144 47 -193 97 -40 41 -41 67 -4 75 72 16 196 57 241 79 39 20 58 38
86 85 25 42 34 66 30 84 -3 14 -7 37 -10 51 -3 15 -21 34 -51 51 -41 24 -52
26 -127 22 -63 -4 -97 -12 -148 -35 -95 -44 -113 -72 -144 -215 -13 -65 -78
-13 -89 71 -5 38 -11 51 -27 56 -27 9 -49 -7 -154 -111 -88 -88 -213 -194
-228 -194 -4 0 -26 -13 -49 -30 -65 -47 -133 -37 -170 27 -11 18 -24 74 -32
134 -16 126 -28 140 -89 106 -22 -12 -52 -37 -66 -56 -72 -94 -155 -182 -176
-187 -38 -9 -63 4 -73 39 -10 36 -9 153 2 303 7 87 6 103 -9 117 -21 22 -31
21 -55 -3 -16 -16 -19 -30 -16 -82 2 -35 0 -90 -4 -124 -4 -33 -4 -98 0 -145
9 -99 34 -149 86 -174 35 -16 37 -16 89 9 47 23 124 99 125 123 1 16 78 93 93
93 11 0 18 -19 26 -72 16 -103 50 -170 96 -192 62 -30 111 -24 202 23 90 47
257 195 294 261 26 46 50 59 64 34 37 -62 55 -81 93 -101 61 -30 68 -38 109
-113 29 -53 48 -74 92 -103 160 -103 414 -115 545 -26 91 61 101 112 55 279
-17 63 -34 142 -36 176 -12 162 82 280 279 348 94 32 123 33 142 3 14 -20 34
-129 50 -263 8 -68 -2 -76 -112 -81 -48 -2 -91 -8 -96 -13 -13 -13 2 -60 21
-67 9 -4 48 -1 86 5 106 19 107 16 81 -185 -5 -44 -4 -54 11 -59 36 -14 54 24
63 139 5 59 14 113 20 119 6 6 41 9 79 8 99 -3 104 -3 268 4 266 12 285 15
231 36 -47 17 -194 29 -391 30 -136 0 -192 4 -198 13 -4 7 -6 38 -3 69 7 76
-11 216 -33 253 -23 40 -77 75 -115 75 -17 0 -64 -12 -105 -26z m-594 -377
c22 -22 20 -72 -3 -105 -23 -31 -188 -117 -242 -126 -25 -4 -44 0 -60 10 -21
14 -24 22 -19 61 3 25 14 57 24 72 22 29 112 87 158 101 43 13 124 6 142 -13z"/>
<path d="M2268 8406 c-39 -14 -121 -78 -160 -125 -13 -15 -31 -45 -42 -66 -10
-22 -27 -57 -38 -78 -10 -20 -23 -61 -29 -91 -12 -65 7 -122 53 -161 74 -63
218 -2 324 138 24 31 44 60 44 63 0 3 16 39 35 79 32 66 36 81 33 142 l-3 68
-45 23 c-50 25 -115 28 -172 8z m112 -51 c53 -27 52 -88 -3 -196 -92 -179
-205 -265 -282 -215 -35 23 -33 76 5 175 35 90 45 101 86 98 27 -2 29 1 32 36
3 29 9 40 30 51 15 8 38 26 51 40 28 30 41 32 81 11z"/>
<path d="M4123 7188 c-24 -27 -106 -154 -116 -181 -15 -39 -131 -234 -158
-265 -16 -18 -29 -37 -29 -42 0 -5 -30 -44 -67 -88 -38 -44 -106 -128 -152
-186 -46 -59 -91 -112 -100 -119 -9 -7 -42 -43 -74 -82 -32 -38 -66 -79 -76
-90 -88 -100 -151 -176 -151 -182 0 -4 -24 -35 -54 -68 -45 -51 -93 -117 -141
-197 -30 -49 -89 -167 -96 -192 -9 -32 4 -66 25 -66 28 0 61 62 85 157 5 17
18 44 30 59 11 15 21 31 21 35 0 11 66 97 140 184 28 33 72 88 97 123 25 34
71 88 102 120 32 31 79 84 106 117 26 33 64 76 85 95 20 19 55 58 77 85 22 28
57 67 77 88 20 21 36 43 36 49 0 6 26 41 58 77 32 36 78 100 102 141 25 41 57
93 73 115 16 22 34 54 42 71 7 16 38 69 69 117 57 87 65 114 44 135 -18 18
-32 15 -55 -10z"/>
<path d="M2868 7183 c-46 -56 -69 -147 -69 -273 0 -116 -6 -138 -42 -149 -62
-19 -122 -43 -132 -52 -5 -5 -17 -9 -26 -9 -23 0 -188 -140 -215 -182 -12 -18
-25 -55 -29 -82 -6 -48 -6 -49 40 -91 60 -56 152 -86 288 -93 93 -4 99 -6 108
-29 5 -13 6 -56 3 -96 -8 -85 5 -120 39 -115 21 3 22 8 22 88 1 145 0 142 53
174 44 26 45 29 27 42 -10 8 -28 14 -40 14 -31 0 -49 40 -40 87 4 21 7 93 6
160 -1 167 15 180 155 127 99 -37 99 -37 113 -20 11 13 11 20 -3 41 -25 38
-80 57 -165 56 -41 0 -80 4 -87 9 -20 17 3 181 43 302 14 42 23 83 20 92 -8
21 -50 20 -69 -1z m-78 -581 c0 -55 3 -140 6 -190 l7 -91 -38 -7 c-42 -8 -257
44 -301 72 -38 25 -40 57 -7 105 28 42 121 123 178 155 77 43 102 53 128 54
l27 0 0 -98z"/>
<path d="M4795 6690 c-11 -4 -49 -20 -85 -35 -80 -33 -226 -140 -283 -209 -66
-78 -84 -107 -111 -180 -44 -115 -29 -198 44 -257 92 -74 320 -52 320 31 0 17
-36 19 -90 5 -69 -18 -121 -19 -163 -2 -45 19 -57 37 -64 95 -5 46 -1 59 37
135 71 142 160 226 334 312 75 38 83 40 170 39 50 0 105 -4 122 -8 23 -6 33
-4 37 7 10 27 -5 56 -35 66 -36 13 -204 13 -233 1z"/>
<path d="M6682 6630 c-27 -11 -36 -32 -28 -64 12 -49 59 -43 76 10 19 57 4 74
-48 54z"/>
<path d="M4965 6459 c-118 -59 -201 -221 -175 -341 20 -96 52 -130 127 -140
66 -9 119 34 172 140 12 23 25 42 30 42 4 0 29 -21 54 -46 42 -41 50 -45 79
-39 39 8 82 36 77 50 -2 6 -23 9 -46 7 -24 -2 -51 2 -61 7 -24 13 -45 92 -37
140 6 40 0 53 -30 68 -30 15 -44 6 -55 -40 -17 -64 -80 -184 -118 -223 -29
-29 -40 -35 -71 -32 -32 3 -37 7 -48 39 -15 46 5 138 44 212 23 41 37 54 93
81 66 33 82 55 60 81 -17 20 -47 18 -95 -6z"/>
<path d="M5949 6405 c-15 -8 -43 -37 -63 -65 -20 -27 -40 -50 -44 -50 -5 0
-17 10 -28 21 -10 12 -29 25 -42 30 -28 11 -180 -15 -239 -41 -60 -26 -120
-77 -128 -109 -4 -14 -17 -40 -31 -58 -13 -17 -24 -37 -24 -43 0 -5 -13 -35
-29 -65 -16 -30 -44 -95 -61 -144 -31 -86 -32 -92 -16 -116 35 -53 74 -21 116
95 11 30 24 64 29 75 11 25 67 182 76 212 9 32 75 80 146 108 123 48 164 43
149 -18 -13 -53 -18 -60 -86 -121 -52 -47 -69 -57 -89 -52 -32 8 -41 -9 -20
-40 20 -31 37 -38 70 -30 32 8 101 70 121 108 17 33 40 36 70 7 29 -27 58 -21
114 26 23 19 46 32 52 29 5 -3 25 -39 43 -80 26 -57 39 -74 54 -74 25 0 27 20
5 62 -14 27 -27 70 -48 160 -7 30 -36 51 -59 42 -8 -3 -29 -25 -47 -50 -34
-45 -56 -55 -66 -30 -12 32 54 110 131 152 26 15 30 38 10 58 -20 19 -32 20
-66 1z"/>
<path d="M6223 6401 c-48 -22 -63 -45 -63 -98 1 -48 51 -167 82 -193 72 -62
150 -66 218 -11 47 37 63 39 84 6 23 -35 40 -22 60 43 10 31 23 69 29 85 9 23
8 30 -9 48 -26 26 -46 18 -73 -31 -32 -57 -70 -84 -146 -105 -62 -16 -70 -17
-94 -2 -52 30 -89 133 -63 174 4 7 32 16 62 20 47 7 55 12 58 31 3 18 -4 26
-32 37 -46 19 -62 19 -113 -4z"/>
<path d="M197 1903 c-4 -6 0 -19 8 -29 11 -15 14 -16 15 -4 0 21 -16 44 -23
33z"/>
</g>
</svg>
