<?xml version="1.0" standalone="no"?>
<!DOCTYPE svg PUBLIC "-//W3C//DTD SVG 20010904//EN"
 "http://www.w3.org/TR/2001/REC-SVG-20010904/DTD/svg10.dtd">
<svg version="1.0" xmlns="http://www.w3.org/2000/svg"
 width="2448.000000pt" height="3264.000000pt" viewBox="0 0 2448.000000 3264.000000"
 preserveAspectRatio="xMidYMid meet">
<metadata>
Created by potrace 1.12, written by Peter Selinger 2001-2015
</metadata>
<g transform="translate(0.000000,3264.000000) scale(0.100000,-0.100000)"
fill="#000000" stroke="none">
<path d="M23965 32518 c1 -68 -2 -220 -7 -338 -5 -118 -10 -276 -12 -350 -2
-85 -8 -144 -16 -159 -9 -19 -10 -32 -1 -62 9 -28 9 -89 1 -231 -5 -106 -12
-281 -15 -388 -2 -107 -7 -244 -9 -305 -3 -60 -8 -182 -11 -270 -13 -394 -17
-493 -26 -690 -6 -115 -10 -234 -10 -262 1 -71 -7 -75 -155 -62 -68 5 -456 8
-899 7 -782 -2 -890 1 -1375 38 -107 8 -235 15 -284 16 -82 2 -90 1 -107 -21
-25 -30 -24 -49 5 -114 24 -56 66 -97 97 -97 27 0 49 48 37 76 -20 43 -4 57
60 51 185 -18 473 -37 647 -43 383 -13 1783 -8 1852 7 56 12 90 -2 108 -45 12
-29 12 -97 0 -492 -8 -253 -17 -562 -20 -689 -3 -126 -7 -304 -10 -395 -3 -91
-7 -356 -10 -590 -3 -234 -7 -497 -10 -585 -3 -88 -7 -275 -10 -415 -2 -140
-7 -385 -10 -545 -7 -399 -14 -695 -20 -855 -6 -158 -11 -352 -25 -960 -10
-452 -16 -711 -25 -990 -3 -85 -8 -245 -11 -355 -3 -110 -7 -249 -9 -310 -5
-131 -18 -709 -18 -745 1 -14 -3 -128 -8 -255 -4 -126 -11 -378 -14 -560 -3
-181 -8 -351 -11 -376 -3 -26 -7 -129 -9 -230 -3 -173 -9 -376 -21 -704 -2
-77 -6 -210 -8 -295 -2 -85 -7 -227 -10 -315 -10 -280 -16 -513 -21 -780 -3
-143 -7 -327 -10 -410 -4 -140 -11 -424 -20 -780 -2 -82 -7 -305 -10 -495 -3
-190 -8 -351 -11 -359 -5 -16 -12 -328 -19 -919 -2 -221 -7 -407 -10 -411 -2
-5 -7 -188 -10 -407 -2 -220 -7 -518 -10 -664 -3 -146 -8 -392 -11 -547 -3
-155 -9 -296 -14 -314 -5 -18 -8 -35 -5 -39 6 -9 6 -35 2 -561 -2 -262 -8
-482 -12 -489 -5 -8 -10 -163 -12 -344 -3 -392 -12 -895 -18 -1091 -2 -77 -6
-259 -9 -405 -2 -146 -7 -422 -11 -615 -5 -309 -9 -438 -20 -710 -2 -38 -6
-176 -9 -305 -3 -129 -8 -298 -11 -375 -3 -77 -7 -268 -9 -425 -8 -527 -17
-895 -22 -913 -3 -9 -7 -149 -9 -310 -3 -287 -9 -514 -21 -812 -7 -181 -14
-483 -19 -820 -3 -137 -7 -315 -10 -395 -7 -186 -13 -563 -21 -1330 -16 -1640
-24 -2072 -35 -2101 -6 -16 -7 -40 -1 -66 5 -22 7 -126 4 -232 l-5 -191 44 0
44 0 3 138 c7 337 11 563 13 777 1 131 6 235 11 242 7 8 6 30 -2 62 -6 28 -9
63 -6 78 3 15 8 379 11 808 6 796 10 1045 20 1450 7 290 12 549 20 990 3 193
8 438 10 545 13 454 16 569 19 640 3 72 11 344 21 760 3 107 7 231 10 275 2
44 8 240 11 435 4 195 8 387 9 425 1 39 5 266 10 505 4 239 9 438 11 441 2 4
6 128 9 275 3 148 7 346 10 439 3 94 8 353 10 576 3 224 9 417 13 430 5 13 8
155 6 314 -2 247 4 569 21 1095 5 145 4 92 5 595 1 374 3 436 17 478 14 38 15
53 5 80 -11 32 -10 264 4 572 3 72 5 139 4 150 -7 115 11 1248 20 1266 7 13
10 61 12 199 0 14 0 39 -1 55 -4 229 2 664 11 785 6 85 10 166 9 180 -5 62 0
439 9 685 5 149 11 423 14 610 5 316 10 516 36 1435 6 190 13 442 15 560 3
118 10 364 15 545 6 182 12 418 15 525 3 107 10 328 15 490 5 162 12 419 15
570 3 151 10 383 15 515 5 132 12 377 15 545 3 168 10 377 15 465 19 304 19
322 34 1395 10 732 16 982 28 1075 6 50 10 104 10 120 -3 165 -1 403 3 455 12
145 21 574 29 1385 3 292 8 557 11 590 3 33 8 292 11 575 8 747 6 721 47 698
15 -9 89 -13 239 -14 119 -1 221 -5 227 -8 5 -4 22 -4 36 0 22 5 25 11 25 49
l0 42 -60 7 c-33 4 -158 6 -278 5 l-217 -1 1 33 c0 19 6 124 13 234 6 110 14
290 16 400 2 110 9 295 15 410 7 116 13 298 15 405 3 107 8 285 14 395 5 110
12 333 15 495 11 498 16 701 21 798 l4 92 -38 0 -37 0 1 -122z"/>
<path d="M7859 30254 c-7 -9 -23 -66 -36 -127 -13 -62 -32 -148 -44 -192 -49
-189 -73 -553 -63 -967 5 -203 3 -328 -6 -427 -12 -133 -12 -141 7 -178 39
-74 83 -53 83 41 0 33 7 115 15 181 10 83 15 215 15 430 0 450 22 698 87 975
49 209 51 243 22 264 -30 20 -63 21 -80 0z"/>
<path d="M1143 30060 c-28 -12 -33 -21 -86 -180 -63 -186 -89 -290 -137 -545
-23 -121 -44 -225 -45 -231 -2 -7 -45 -43 -95 -80 -193 -146 -190 -143 -190
-173 0 -32 13 -46 51 -56 22 -5 34 2 85 55 107 111 122 106 93 -35 -14 -73
-21 -157 -25 -310 -5 -190 -4 -213 13 -245 21 -40 64 -60 91 -44 23 15 28 94
8 133 -11 21 -16 59 -16 124 0 173 31 499 51 538 12 24 341 209 371 209 14 0
140 -369 199 -580 17 -63 42 -139 55 -167 21 -49 25 -53 58 -53 32 0 37 4 55
46 12 25 18 50 15 55 -8 14 -53 136 -84 229 -63 189 -133 379 -162 443 -17 37
-29 69 -27 71 2 2 27 10 54 19 28 8 102 33 165 56 63 22 151 47 195 56 102 21
171 44 185 60 18 22 -23 55 -67 55 -89 0 -396 -85 -521 -143 -33 -16 -54 1
-69 54 -78 279 -112 431 -128 571 -3 32 -9 59 -13 61 -19 11 -60 14 -79 7z m6
-222 c5 -18 19 -81 30 -139 24 -125 54 -238 87 -326 l24 -65 -32 -11 c-18 -6
-84 -37 -147 -69 -63 -32 -120 -58 -128 -58 -19 0 -17 19 17 160 16 69 43 197
60 285 33 168 57 255 70 255 5 0 13 -15 19 -32z"/>
<path d="M6611 29993 c-5 -11 -5 -41 1 -78 6 -38 7 -171 2 -365 -10 -397 -11
-668 -2 -701 7 -25 6 -26 -30 -25 l-37 1 2 -40 c4 -58 51 -144 100 -181 51
-39 114 -49 247 -41 135 9 244 52 356 144 139 113 250 321 250 469 0 127 -55
264 -129 320 -56 44 -137 68 -194 59 -109 -18 -234 -114 -303 -231 -30 -50
-106 -232 -118 -277 -5 -22 -12 -28 -29 -25 -26 4 -26 -14 -4 287 10 124 17
320 17 437 0 199 -1 213 -21 238 -25 32 -92 38 -108 9z m684 -577 c37 -24 55
-57 77 -142 18 -74 18 -80 3 -157 -17 -84 -64 -192 -112 -262 -38 -54 -168
-139 -249 -165 -84 -26 -230 -28 -280 -4 -37 18 -74 58 -74 80 0 8 11 14 25
14 32 0 80 35 105 76 11 17 40 81 65 143 102 252 160 346 251 401 68 43 139
49 189 16z"/>
<path d="M2469 29657 c-123 -42 -242 -136 -324 -257 -53 -79 -66 -115 -72
-202 -5 -70 -4 -80 20 -121 46 -77 117 -123 302 -191 146 -55 195 -78 227
-107 34 -32 36 -64 8 -119 -28 -54 -133 -164 -176 -185 -61 -29 -114 2 -135
78 -12 46 -28 53 -79 38 -46 -14 -70 -43 -70 -86 0 -35 17 -63 73 -122 54 -57
91 -68 155 -49 71 20 108 41 183 102 110 88 199 245 199 353 0 40 -6 54 -35
88 -48 57 -106 87 -270 140 -160 52 -189 65 -228 102 -65 60 -74 124 -27 206
65 113 137 176 290 251 48 23 91 48 95 54 10 16 -24 50 -49 50 -12 0 -51 -11
-87 -23z"/>
<path d="M3315 29456 c-63 -20 -124 -54 -202 -113 -234 -176 -325 -396 -235
-567 43 -79 140 -145 337 -226 200 -83 235 -114 235 -206 0 -54 -39 -176 -66
-205 -16 -18 -17 -18 -53 3 l-37 21 -46 -21 c-78 -34 -79 -103 -5 -147 97 -56
174 -16 257 135 59 106 81 179 82 269 2 87 -10 116 -69 172 -48 46 -99 71
-268 131 -16 6 -67 28 -112 50 -94 45 -144 94 -163 164 -16 57 -5 96 48 179
80 123 194 217 340 281 70 30 77 36 77 61 0 26 -3 28 -40 30 -22 1 -58 -4 -80
-11z"/>
<path d="M4516 29405 c-178 -49 -359 -200 -438 -364 -58 -122 -69 -305 -23
-414 20 -49 20 -51 -19 -65 -51 -19 -72 -46 -58 -77 17 -37 36 -40 93 -17 l50
21 61 -40 c34 -21 90 -48 125 -59 131 -40 329 11 519 136 90 59 270 232 324
312 20 29 42 50 50 49 17 -3 17 -18 5 -178 l-7 -95 32 -27 c42 -35 71 -34 116
5 35 31 134 214 134 249 0 8 12 32 25 54 14 22 25 48 25 58 0 23 29 34 41 16
5 -8 9 -81 9 -162 0 -107 4 -155 14 -175 36 -69 106 -98 164 -68 61 32 180
248 248 451 93 281 119 285 134 19 13 -223 14 -228 50 -274 52 -66 94 -65 135
4 16 27 25 57 24 82 -2 67 -12 88 -44 94 -29 5 -30 8 -32 60 -8 175 -40 337
-74 371 -23 23 -61 33 -94 25 -51 -13 -153 -176 -220 -350 -12 -34 -37 -99
-55 -146 -37 -95 -87 -180 -106 -180 -21 0 -24 29 -26 281 -2 182 -6 240 -17
252 -14 17 -74 23 -105 11 -14 -5 -116 -202 -116 -222 0 -4 -18 -50 -39 -102
-22 -52 -42 -103 -45 -112 -7 -22 -39 -23 -56 -3 -23 28 27 200 106 361 52
104 51 124 -6 124 -45 0 -68 -24 -171 -180 -99 -151 -145 -208 -268 -328 -182
-178 -244 -222 -392 -272 -104 -36 -187 -43 -261 -21 -58 17 -65 43 -15 60
120 44 235 131 326 248 18 23 44 55 59 70 81 87 162 264 162 353 0 35 -29 94
-59 118 -60 49 -196 72 -285 47z m180 -129 c45 -45 46 -95 4 -181 -32 -66
-193 -261 -276 -333 -49 -44 -196 -132 -219 -132 -20 0 -31 20 -45 78 -35 151
-4 301 85 405 63 74 92 100 154 136 70 42 129 59 200 60 59 1 65 -1 97 -33z"/>
<path d="M9008 29318 c-22 -24 -60 -73 -85 -111 -126 -189 -319 -406 -400
-449 -59 -31 -97 -24 -141 26 -23 27 -33 52 -46 122 -9 49 -16 107 -16 129 0
60 -18 113 -44 130 -25 17 -78 11 -96 -10 -16 -20 34 -304 66 -376 32 -72 98
-135 149 -145 112 -21 245 54 366 204 30 37 60 73 67 81 8 8 24 30 37 50 31
51 52 66 68 52 10 -8 17 -7 27 2 10 10 12 6 7 -23 -8 -53 -27 -96 -36 -82 -4
7 -14 -11 -25 -46 -10 -31 -22 -68 -27 -82 -4 -14 -24 -97 -43 -185 -37 -166
-47 -254 -33 -292 6 -17 5 -23 -6 -23 -15 0 -25 -42 -48 -205 -16 -118 -45
-232 -74 -290 -29 -60 -31 -83 -9 -92 41 -16 101 55 124 147 28 111 63 274 80
370 32 176 49 256 101 480 61 262 91 368 135 482 39 101 44 152 15 168 -40 21
-72 12 -113 -32z m-18 -247 c0 -6 -4 -13 -10 -16 -5 -3 -10 1 -10 9 0 9 5 16
10 16 6 0 10 -4 10 -9z"/>
<path d="M12655 27005 c-19 -18 -25 -35 -25 -70 0 -45 -14 -119 -70 -370 -16
-71 -45 -209 -65 -305 -42 -209 -68 -317 -101 -424 -64 -205 -80 -340 -44
-376 45 -45 70 -21 81 78 9 82 24 142 103 407 43 147 62 224 153 635 78 354
85 400 68 427 -21 31 -68 31 -100 -2z"/>
<path d="M5296 26937 c-12 -9 -23 -45 -36 -126 -11 -62 -22 -120 -25 -130 -6
-21 -69 -371 -100 -561 -49 -299 -76 -428 -104 -503 -22 -58 -99 -38 -153 38
-34 48 -78 197 -109 366 -18 99 -23 169 -26 353 -3 232 -5 245 -40 246 -7 0
-25 -11 -40 -24 l-28 -24 2 -164 c3 -324 88 -721 182 -844 50 -65 81 -86 140
-92 40 -3 57 0 86 18 41 25 53 46 89 152 41 124 57 203 106 533 41 274 59 384
83 490 33 148 50 253 43 270 -7 18 -46 19 -70 2z"/>
<path d="M7737 26880 c-34 -40 -40 -96 -41 -370 0 -196 2 -240 22 -339 13 -63
21 -124 18 -136 -3 -12 -24 -35 -46 -50 -37 -25 -46 -27 -103 -22 -35 3 -83
12 -107 20 -25 8 -97 31 -160 52 -63 20 -142 47 -175 60 -33 13 -96 33 -140
45 -86 23 -105 38 -105 81 0 30 35 64 150 144 76 53 195 173 239 240 31 49 61
130 61 167 0 39 -29 107 -51 118 -30 17 -107 11 -149 -10 -76 -39 -158 -144
-208 -265 -30 -75 -102 -304 -102 -326 0 -10 -24 -39 -54 -66 -78 -70 -80 -99
-11 -139 17 -9 17 -15 6 -60 -13 -52 -17 -281 -5 -330 15 -65 62 -82 108 -39
32 29 32 43 4 98 -19 37 -21 56 -19 172 1 71 5 133 9 137 5 5 60 -10 123 -32
63 -23 143 -50 179 -60 36 -10 112 -33 170 -50 68 -21 135 -34 190 -37 80 -5
89 -3 145 26 36 18 63 27 69 21 5 -5 17 -60 28 -122 10 -62 27 -129 37 -148
20 -40 62 -64 96 -56 35 9 39 34 11 76 -30 46 -50 124 -75 305 -32 224 -41
323 -42 482 -1 207 9 319 33 371 25 53 13 72 -42 72 -30 0 -44 -6 -63 -30z
m-529 -101 c19 -27 23 -44 20 -80 -6 -58 -45 -116 -159 -233 -110 -113 -133
-107 -88 26 53 158 158 337 191 326 7 -3 24 -20 36 -39z"/>
<path d="M3913 26865 c-88 -40 -139 -80 -157 -125 -21 -53 -20 -77 3 -89 25
-14 71 21 71 53 0 58 62 97 159 98 87 1 148 -29 223 -111 97 -104 149 -255
150 -431 1 -122 -21 -207 -84 -337 -83 -171 -158 -258 -262 -303 -87 -37 -195
-17 -244 45 -35 45 -62 147 -62 237 0 228 196 639 341 714 32 16 38 44 14 64
-28 23 -93 -13 -155 -87 -73 -88 -92 -116 -138 -209 -64 -128 -79 -164 -117
-290 -31 -100 -36 -134 -36 -209 0 -184 63 -325 167 -375 38 -19 57 -22 122
-18 201 12 381 195 498 506 82 217 64 442 -54 680 -46 94 -99 154 -164 186
-72 36 -198 36 -275 1z"/>
<path d="M2258 26825 c-27 -15 -43 -50 -73 -160 -9 -33 -29 -96 -45 -140 -58
-166 -159 -548 -180 -680 -6 -38 -18 -89 -27 -113 -8 -23 -12 -49 -9 -57 9
-24 43 -17 78 14 31 27 34 36 44 123 16 136 42 258 129 598 15 58 29 117 32
133 6 32 22 45 33 27 4 -7 11 -51 15 -99 22 -281 118 -793 160 -858 23 -35 66
-31 102 11 23 26 32 50 42 107 21 135 40 292 36 300 -5 7 18 228 34 329 25
156 74 340 92 340 13 0 35 -39 57 -105 83 -248 202 -694 238 -890 8 -44 21
-100 29 -125 8 -25 20 -64 25 -87 14 -57 54 -103 89 -103 51 0 68 42 30 76
-33 29 -57 91 -74 195 -9 52 -20 121 -26 154 -6 33 -26 121 -45 195 -20 74
-39 153 -44 175 -37 163 -52 225 -80 316 -59 198 -92 294 -106 317 -18 28 -62
29 -96 3 -48 -38 -109 -177 -152 -348 -33 -130 -43 -213 -61 -491 -14 -227
-17 -252 -34 -252 -11 0 -39 103 -50 182 -5 35 -14 92 -20 128 -6 36 -23 166
-37 290 -14 124 -28 239 -30 255 -2 17 -7 75 -10 130 -6 91 -15 126 -33 125
-3 -1 -18 -7 -33 -15z"/>
<path d="M9529 26776 c-113 -24 -189 -102 -189 -194 0 -39 -5 -53 -26 -73 -43
-40 -120 -150 -158 -224 -56 -111 -70 -180 -71 -340 0 -120 3 -149 23 -206 29
-84 78 -142 140 -166 67 -26 247 -25 317 1 91 35 186 98 263 175 154 154 250
312 273 448 32 194 -102 456 -279 547 -40 21 -153 46 -202 45 -19 0 -60 -6
-91 -13z m174 -106 c104 -39 222 -176 267 -309 32 -96 29 -190 -8 -271 -64
-140 -208 -309 -315 -369 -150 -85 -343 -81 -407 9 -36 50 -52 152 -47 285 6
145 20 193 90 308 62 103 120 167 152 167 12 0 30 9 40 20 11 12 25 18 36 15
23 -8 48 20 42 45 -4 15 -14 20 -42 20 -62 0 -81 44 -39 89 20 22 27 23 97 18
42 -3 102 -15 134 -27z"/>
<path d="M11595 26769 c-88 -20 -154 -51 -180 -84 -30 -41 -32 -71 -4 -101
l20 -22 -29 -33 c-66 -76 -93 -165 -113 -369 -13 -143 -6 -344 16 -418 20 -66
68 -130 113 -149 60 -25 183 -15 257 22 106 52 282 247 354 392 65 131 93 239
92 362 -2 176 -62 294 -181 356 -87 45 -249 66 -345 44z m130 -80 c176 -32
262 -133 272 -318 11 -206 -80 -405 -270 -592 -71 -70 -117 -94 -178 -93 -68
1 -109 29 -131 89 -30 87 -23 439 13 600 18 79 42 118 90 144 61 33 79 51 79
76 0 30 -49 52 -79 35 -17 -9 -22 -8 -27 4 -10 27 1 40 47 52 57 16 112 17
184 3z"/>
<path d="M11215 26554 c-217 -111 -467 -278 -587 -392 -20 -19 -41 -31 -47
-28 -29 18 -130 197 -157 276 -10 30 -22 61 -27 68 -15 19 -72 15 -92 -8 -42
-46 11 -198 118 -340 32 -41 57 -80 57 -87 0 -7 -12 -19 -27 -27 -41 -21 -143
-110 -164 -143 -25 -37 -24 -88 1 -113 24 -24 60 -26 101 -4 29 14 31 18 27
66 -3 48 -1 53 47 109 28 31 55 58 62 58 6 1 35 -38 64 -86 28 -49 62 -99 73
-113 12 -14 39 -57 61 -95 82 -141 176 -206 183 -127 3 25 -7 48 -41 100 -25
37 -51 81 -58 97 -14 31 -63 114 -132 223 -35 55 -38 66 -28 85 7 12 23 29 36
37 13 8 74 54 137 101 62 48 174 124 248 169 170 105 290 190 290 207 0 25
-56 13 -145 -33z"/>
<path d="M8620 25753 c-49 -36 -90 -92 -143 -194 -42 -81 -59 -138 -98 -329
-6 -30 -27 -108 -46 -173 -28 -95 -33 -120 -23 -132 17 -20 43 -19 63 3 27 30
76 170 127 363 64 246 112 344 188 383 40 21 47 44 24 76 -26 34 -50 35 -92 3z"/>
<path d="M5635 25229 c-49 -5 -153 -17 -230 -29 -338 -50 -519 -69 -920 -95
-227 -15 -705 -13 -975 5 -206 13 -607 13 -750 -1 -63 -5 -201 -23 -307 -39
-290 -44 -363 -67 -363 -115 0 -35 24 -49 61 -36 34 12 89 15 89 5 0 -3 -5
-15 -12 -27 -69 -124 -126 -391 -153 -712 -28 -340 -57 -542 -107 -727 -11
-43 -18 -85 -14 -93 3 -9 18 -15 36 -15 43 0 80 39 78 82 0 18 9 80 20 138 37
182 57 358 88 780 17 234 34 345 58 368 13 14 16 13 25 -9 5 -13 15 -107 21
-209 18 -299 46 -484 106 -687 15 -48 39 -137 56 -198 16 -60 34 -115 40 -122
6 -7 23 -13 39 -13 45 0 59 32 64 146 3 54 7 119 10 144 2 25 7 187 10 360 8
507 15 590 50 590 19 0 28 -16 70 -125 21 -55 78 -182 127 -282 48 -100 97
-206 108 -235 11 -29 25 -62 30 -73 17 -36 60 -198 75 -280 23 -132 46 -175
95 -175 33 0 43 20 30 56 -6 14 -26 100 -46 192 -58 274 -86 351 -242 672 -28
58 -71 162 -96 231 -59 169 -59 169 -104 169 -30 0 -45 -7 -69 -32 -43 -46
-61 -85 -85 -186 -18 -78 -21 -129 -25 -477 -3 -214 -9 -394 -14 -399 -12 -13
-36 20 -43 59 -3 16 -16 82 -29 145 -40 191 -54 332 -82 830 -3 52 -8 107 -11
121 -6 30 1 34 72 44 27 4 85 13 129 20 205 36 634 46 995 26 216 -13 651 -13
865 -1 453 25 570 37 923 91 105 16 258 34 340 40 167 12 196 18 200 41 7 35
-82 49 -233 37z"/>
<path d="M5733 24678 c-32 -15 -43 -58 -43 -167 0 -53 -5 -124 -10 -157 -32
-198 -288 -828 -373 -918 -57 -60 -71 -51 -133 95 -92 216 -138 356 -178 539
-24 112 -44 352 -39 465 3 84 2 101 -12 111 -21 16 -71 0 -85 -26 -19 -36 -7
-306 21 -485 37 -231 137 -510 280 -782 30 -59 35 -63 66 -63 45 0 113 41 162
96 36 41 104 168 161 299 11 28 25 59 30 70 34 77 92 224 118 295 77 216 99
310 107 460 4 63 9 122 11 131 6 20 -21 49 -44 48 -9 0 -27 -5 -39 -11z"/>
<path d="M3955 24605 c-31 -8 -57 -23 -70 -39 -11 -15 -47 -55 -80 -90 -149
-154 -205 -377 -159 -625 31 -167 103 -306 205 -400 58 -52 110 -72 204 -78
191 -13 302 89 365 337 54 207 -15 514 -162 727 -57 83 -90 114 -157 147 -65
33 -89 36 -146 21z m110 -160 c60 -35 111 -85 139 -138 31 -58 32 -73 5 -80
-35 -9 -20 -43 17 -40 27 2 33 -2 48 -35 38 -86 51 -165 51 -297 -1 -117 -4
-137 -29 -205 -55 -146 -128 -196 -248 -171 -141 30 -241 141 -294 326 -24 84
-30 297 -10 385 28 120 100 240 146 240 9 0 27 11 40 25 20 21 30 24 59 19 20
-3 54 -17 76 -29z"/>
<path d="M7285 24591 c-87 -31 -121 -51 -170 -97 -88 -85 -125 -207 -155 -508
-38 -385 -16 -725 55 -833 21 -31 77 -32 99 -2 23 33 10 145 -21 182 -12 16
-23 32 -23 35 0 4 -5 34 -10 67 -42 254 -28 563 35 815 45 177 78 225 181 261
49 18 72 20 142 15 79 -6 133 -23 147 -46 15 -25 -15 -56 -163 -167 -225 -169
-275 -227 -305 -360 -28 -117 17 -248 121 -351 65 -64 242 -155 347 -177 148
-31 282 -11 300 46 13 39 -15 53 -82 41 -68 -12 -173 3 -260 36 -233 89 -384
311 -319 467 21 50 96 125 178 180 147 99 276 213 307 273 18 33 7 54 -46 86
-90 55 -260 72 -358 37z"/>
<path d="M13400 24575 c-179 -21 -346 -63 -445 -112 -36 -18 -75 -53 -75 -67
0 -5 10 -21 23 -34 21 -23 21 -25 3 -36 -172 -104 -271 -212 -306 -332 -28
-94 38 -282 127 -365 90 -84 224 -150 388 -189 54 -13 97 -30 107 -41 66 -75
-117 -149 -472 -189 -140 -16 -155 -21 -155 -51 0 -45 37 -52 203 -39 253 20
404 63 503 141 71 56 89 164 34 208 -14 10 -71 33 -128 51 -322 101 -415 168
-467 341 -36 118 -22 173 67 265 96 99 276 214 336 214 32 0 61 32 52 59 -3
12 -10 21 -15 21 -14 0 -1 28 16 34 27 10 320 38 429 40 189 4 283 -8 610 -79
196 -43 362 -55 439 -33 48 13 66 25 66 44 0 34 -27 41 -192 48 -165 7 -256
20 -518 76 -124 27 -171 31 -330 35 -119 3 -226 -1 -300 -10z"/>
<path d="M9885 24524 c-59 -22 -105 -70 -105 -111 0 -45 30 -73 79 -73 49 0
69 20 52 56 -29 64 -2 88 72 67 26 -8 47 -19 47 -25 0 -5 -34 -42 -75 -80
-106 -99 -167 -196 -245 -394 -79 -198 -111 -441 -75 -577 31 -120 86 -169
205 -182 247 -26 556 189 623 435 74 268 23 616 -111 760 -47 49 -49 55 -26
64 10 4 14 15 12 33 -3 30 -6 30 -128 22 -19 -1 -59 3 -89 9 -72 16 -187 14
-236 -4z m313 -144 c120 -87 187 -264 186 -495 0 -200 -33 -301 -133 -403
-107 -112 -230 -172 -348 -172 -89 0 -143 40 -164 124 -17 70 -5 258 25 377
44 176 146 390 231 487 38 44 129 110 151 111 6 1 30 -13 52 -29z"/>
<path d="M12014 24482 c-80 -49 -195 -128 -271 -188 -34 -27 -90 -70 -125 -95
-35 -26 -115 -91 -178 -145 -63 -55 -140 -119 -170 -144 -30 -24 -85 -71 -121
-102 -36 -32 -71 -58 -77 -58 -11 0 -30 25 -136 180 -76 113 -134 219 -172
315 -30 78 -45 95 -85 95 -28 0 -69 -39 -69 -66 0 -25 136 -287 197 -379 33
-49 85 -117 116 -150 31 -33 56 -65 57 -71 0 -6 -25 -31 -55 -54 -57 -44 -204
-194 -232 -236 -22 -35 -10 -71 27 -79 33 -7 80 15 80 37 0 20 228 268 246
268 5 -1 29 -26 54 -57 41 -51 151 -141 285 -236 30 -20 75 -62 101 -92 53
-61 67 -69 94 -55 26 14 33 44 20 84 -8 26 -50 66 -184 175 -216 175 -276 229
-276 247 0 7 26 32 58 55 102 75 369 305 475 411 31 30 58 36 75 15 8 -9 5
-29 -8 -70 -77 -233 -23 -587 111 -729 104 -110 323 -142 467 -69 50 26 154
137 173 186 36 91 41 115 46 222 5 96 2 122 -17 185 -28 95 -55 140 -127 213
-106 108 -227 169 -376 190 -87 12 -72 43 67 140 46 33 56 45 54 65 -5 39 -51
36 -124 -8z m11 -294 c164 -56 270 -143 338 -278 100 -200 42 -462 -119 -541
-56 -27 -128 -21 -209 16 -109 50 -159 118 -195 267 -39 164 -15 461 46 559 8
13 57 5 139 -23z"/>
<path d="M8150 24463 c-156 -16 -276 -97 -225 -153 12 -13 31 -20 54 -20 29 0
43 8 71 39 31 34 44 40 92 46 84 11 138 -13 138 -61 0 -26 -73 -170 -122 -241
-54 -79 -157 -264 -179 -323 -12 -30 -24 -87 -26 -126 -5 -68 -4 -72 26 -107
79 -90 304 -94 485 -8 93 43 411 253 425 280 12 22 -4 41 -33 41 -20 0 -119
-55 -217 -121 -89 -60 -207 -116 -294 -140 -97 -26 -185 -22 -248 13 -36 20
-42 28 -45 60 -4 43 45 156 118 273 176 286 230 391 230 450 0 41 -39 75 -105
91 -59 13 -75 14 -145 7z"/>
<path d="M9010 23840 c-21 -21 -21 -23 -44 -145 -8 -44 -29 -143 -45 -220 -51
-241 -95 -698 -72 -757 11 -30 45 -45 65 -29 9 7 15 46 19 109 11 180 65 541
112 737 47 200 59 274 47 300 -14 31 -54 33 -82 5z"/>
<path d="M4845 23249 c-229 -20 -401 -39 -624 -70 -1020 -141 -1608 -209
-1936 -224 -181 -7 -266 -15 -369 -31 -73 -11 -95 -19 -118 -41 -32 -30 -35
-45 -13 -63 12 -10 28 -10 76 -1 72 14 194 28 369 41 198 15 441 38 625 60 94
12 224 27 290 35 131 16 557 73 780 105 562 81 769 105 1122 130 274 20 333
28 333 50 0 14 -30 18 -185 23 -87 3 -219 -3 -350 -14z"/>
<path d="M14343 22900 c-31 -13 -47 -49 -77 -180 -44 -192 -47 -232 -80 -945
-11 -240 -17 -297 -31 -325 -17 -32 -17 -35 1 -68 30 -55 102 -77 118 -36 11
28 36 382 51 719 18 374 35 507 86 671 35 113 34 144 -6 162 -30 14 -32 14
-62 2z"/>
<path d="M5806 22703 c-14 -15 -37 -59 -52 -97 -72 -192 -223 -661 -239 -746
-18 -93 -150 -428 -187 -475 -10 -14 -27 -25 -37 -25 -62 0 -179 240 -274 560
-64 216 -82 303 -82 395 0 47 -5 89 -13 103 -26 45 -112 17 -112 -37 0 -15 9
-76 20 -137 58 -316 226 -776 340 -932 57 -79 146 -91 216 -30 67 59 182 334
258 618 52 191 104 371 121 414 9 21 23 66 31 100 8 33 19 77 24 97 5 20 24
67 41 104 29 63 30 68 14 91 -20 31 -38 30 -69 -3z"/>
<path d="M8725 22670 c-76 -32 -252 -103 -315 -126 -152 -56 -267 -144 -345
-264 -68 -105 -82 -168 -45 -208 26 -28 75 -29 90 -3 5 11 10 39 10 63 1 111
118 242 298 331 63 32 128 50 143 41 7 -4 -17 -35 -59 -78 -88 -90 -122 -148
-122 -208 0 -89 77 -162 345 -323 97 -58 178 -96 271 -126 70 -22 94 -35 94
-50 0 -20 -65 -79 -144 -132 -128 -86 -285 -155 -423 -187 -81 -18 -83 -18
-107 1 -35 27 -61 24 -103 -14 -30 -28 -35 -38 -29 -61 10 -39 45 -49 161 -43
126 6 245 43 417 130 188 95 283 170 336 264 13 24 16 81 6 108 -8 19 -58 46
-134 70 -165 53 -503 261 -551 338 -10 18 -19 42 -19 55 0 61 76 155 228 281
76 64 106 106 92 131 -11 21 -57 26 -95 10z"/>
<path d="M7648 22646 c-73 -31 -126 -68 -215 -150 -112 -104 -178 -222 -237
-424 -91 -308 -71 -631 45 -754 38 -40 72 -48 123 -28 39 14 33 45 -18 91 -57
52 -82 113 -97 230 -11 87 -7 294 5 307 3 3 33 -24 66 -60 87 -96 251 -176
460 -226 47 -11 100 -26 118 -33 41 -17 66 -4 70 38 5 48 -37 75 -165 107
-143 36 -223 69 -308 126 -85 58 -108 82 -131 138 -14 37 -15 49 -4 85 6 23
19 50 28 61 27 30 170 147 257 209 120 87 181 138 215 181 35 45 36 56 13 84
-41 46 -137 54 -225 18z m112 -70 c0 -16 -56 -67 -176 -160 -49 -39 -115 -92
-146 -119 -32 -27 -62 -46 -68 -42 -7 4 1 28 21 66 42 78 165 195 249 237 67
34 120 42 120 18z"/>
<path d="M12952 22654 c-98 -27 -162 -87 -164 -154 -1 -36 28 -72 56 -68 20 3
30 17 62 91 22 50 46 61 127 59 129 -4 320 -87 418 -182 105 -103 127 -192 76
-304 -77 -167 -282 -376 -369 -376 -114 0 -197 161 -214 415 -9 134 25 245 76
245 41 0 55 63 20 95 -24 22 -50 16 -114 -26 -85 -56 -110 -129 -108 -306 3
-200 58 -362 149 -443 62 -55 100 -71 188 -77 91 -7 135 11 231 98 148 134
247 279 289 423 33 112 4 196 -103 303 -97 97 -282 184 -445 209 -109 16 -107
16 -175 -2z"/>
<path d="M10772 22481 c-186 -65 -371 -221 -460 -390 -146 -274 -76 -597 144
-666 79 -25 218 -23 306 4 111 35 230 139 304 266 27 47 29 56 29 165 0 110
-1 118 -31 175 -18 33 -64 97 -103 142 -78 89 -155 138 -222 138 -69 0 -94
-52 -36 -76 45 -19 197 -174 230 -235 40 -77 59 -160 48 -217 -16 -90 -137
-215 -247 -257 -115 -43 -231 -24 -304 50 -38 37 -50 59 -67 120 -19 65 -21
86 -13 160 16 159 75 275 204 398 82 77 182 134 273 153 79 16 214 6 282 -21
30 -12 70 -20 90 -18 34 3 36 5 39 40 3 32 -1 39 -25 52 -57 29 -150 46 -254
46 -88 0 -116 -5 -187 -29z"/>
<path d="M2590 22472 c-29 -14 -39 -29 -60 -84 -15 -37 -29 -71 -33 -74 -4 -4
-7 -13 -7 -20 0 -6 -24 -63 -54 -125 -115 -242 -171 -384 -260 -659 -109 -334
-127 -385 -150 -420 -31 -48 -37 -77 -19 -95 27 -28 99 1 109 43 3 15 26 87
51 160 24 74 64 200 89 280 46 153 115 342 184 507 22 54 40 103 40 110 0 7
12 38 26 69 23 51 45 69 58 47 3 -4 8 -75 11 -157 10 -242 29 -348 108 -582
l52 -157 33 -3 c55 -5 69 16 77 116 3 48 13 107 21 131 8 25 23 101 34 170 11
69 27 167 35 216 8 50 18 129 23 177 5 52 16 98 26 113 16 25 19 26 36 10 17
-16 27 -52 71 -260 43 -204 51 -232 100 -363 109 -290 149 -346 215 -298 18
14 18 16 -18 83 -69 130 -140 362 -222 728 -45 205 -49 220 -63 253 -12 28
-18 32 -51 32 -20 0 -44 -6 -52 -13 -64 -52 -115 -210 -160 -492 -45 -282 -58
-357 -65 -363 -13 -13 -45 37 -59 93 -35 140 -70 553 -60 707 5 80 4 111 -6
123 -16 19 -17 19 -60 -3z"/>
<path d="M4050 22410 c-74 -12 -132 -33 -183 -68 -57 -40 -72 -58 -107 -131
-37 -76 -39 -115 -6 -136 l24 -16 -38 -72 c-90 -167 -132 -407 -96 -547 55
-215 171 -294 361 -245 88 23 153 63 226 137 122 124 248 341 289 494 54 206
-9 419 -150 512 -94 61 -212 88 -320 72z m59 -90 c35 -6 86 -22 113 -36 231
-117 262 -381 79 -684 -99 -165 -201 -270 -285 -295 -97 -29 -157 -15 -218 53
-42 46 -57 89 -65 182 -12 149 63 409 151 525 54 70 64 76 127 69 66 -7 81 5
67 53 -13 49 -46 67 -97 53 -22 -6 -43 -15 -46 -19 -3 -5 -28 -28 -55 -51
l-50 -42 0 39 c0 60 53 117 133 142 76 24 69 23 146 11z"/>
<path d="M11343 22225 c-45 -19 -51 -49 -18 -93 15 -21 51 -71 80 -112 29 -41
83 -111 119 -154 36 -43 66 -82 66 -87 0 -4 -21 -25 -47 -45 -82 -65 -163
-147 -202 -204 -47 -68 -75 -141 -66 -169 9 -30 59 -53 108 -49 36 3 42 7 45
28 2 13 -1 41 -7 62 -9 28 -9 44 0 60 13 26 229 248 241 248 4 0 35 -22 69
-49 78 -63 334 -203 374 -205 24 -1 31 3 33 23 4 29 -35 73 -98 108 -25 14
-96 58 -157 97 -135 85 -139 95 -55 145 31 19 84 55 117 81 33 25 70 52 82 60
12 8 85 60 162 115 109 77 140 105 138 120 -3 25 -38 31 -80 14 -71 -27 -345
-209 -479 -317 -37 -30 -72 -52 -78 -50 -10 3 -30 32 -188 262 -45 66 -83 111
-98 116 -14 6 -26 10 -27 10 -1 -1 -16 -7 -34 -15z"/>
<path d="M9389 21688 c-94 -100 -112 -157 -129 -413 -11 -172 -5 -243 28 -299
23 -39 56 -45 75 -14 11 18 15 66 15 216 0 265 23 363 97 413 39 26 55 66 45
114 -5 26 -11 30 -43 33 -34 3 -42 -2 -88 -50z"/>
<path d="M5150 20903 c-25 -1 -166 -10 -315 -18 -763 -45 -1478 -101 -1895
-150 -122 -14 -167 -18 -565 -50 -418 -34 -692 -72 -802 -113 -38 -14 -49 -23
-57 -49 -6 -23 -5 -37 4 -48 16 -19 32 -19 102 5 76 25 390 76 553 90 72 6
225 22 340 35 391 45 490 55 690 70 110 8 238 19 285 25 80 9 152 15 465 40
156 12 679 45 1040 65 143 8 348 15 455 15 250 1 310 12 295 53 -13 31 -64 37
-309 35 -133 -1 -261 -3 -286 -5z"/>
<path d="M5830 20793 c-107 -38 -219 -137 -293 -260 -105 -175 -150 -385 -167
-783 -5 -129 -15 -307 -21 -395 l-11 -160 27 -22 c31 -28 61 -29 74 -5 12 22
35 644 26 715 -9 79 1 86 76 53 67 -29 230 -67 369 -86 98 -14 369 -79 483
-116 80 -27 107 -50 107 -92 0 -129 -429 -444 -775 -568 -69 -25 -95 -29 -186
-29 -116 0 -135 8 -162 64 -17 35 -61 36 -65 2 -6 -38 7 -69 44 -111 47 -52
109 -72 227 -72 77 0 107 5 187 33 289 99 708 383 799 543 26 44 31 64 31 116
0 53 -5 71 -31 111 -34 54 -56 70 -131 99 -77 30 -417 116 -533 135 -173 28
-257 47 -299 66 -23 10 -56 19 -74 19 -49 0 -60 32 -37 112 68 241 121 353
211 444 82 83 141 109 228 102 103 -9 196 -80 196 -150 0 -64 -75 -131 -311
-278 -263 -163 -294 -188 -253 -204 74 -28 233 48 485 230 152 111 199 182
184 280 -11 77 -86 167 -170 205 -50 23 -171 24 -235 2z"/>
<path d="M2710 20596 c-133 -41 -193 -65 -247 -101 -61 -41 -71 -65 -53 -133
36 -135 82 -150 490 -162 241 -7 297 -11 363 -29 187 -51 277 -120 277 -211 0
-132 -268 -389 -564 -539 -145 -74 -223 -96 -341 -96 -113 0 -145 12 -145 51
0 46 -73 44 -90 -2 -23 -61 54 -124 185 -151 71 -14 83 -14 163 3 48 9 104 26
124 36 21 10 43 18 49 18 18 0 224 106 289 148 237 155 430 393 430 530 0 71
-19 113 -78 171 -67 67 -172 122 -287 152 -65 17 -127 23 -340 29 -143 5 -274
13 -290 18 -80 25 -135 66 -135 101 0 13 70 44 172 76 145 46 334 30 443 -38
58 -36 115 -41 142 -14 22 22 11 42 -43 78 -127 84 -356 113 -514 65z"/>
<path d="M4897 20595 c-13 -14 -27 -36 -30 -48 -2 -12 -12 -55 -21 -96 -9 -41
-23 -169 -31 -285 -19 -254 -35 -354 -86 -508 -80 -246 -216 -411 -356 -434
-66 -10 -137 12 -176 55 -79 88 -137 303 -138 511 -1 224 71 550 121 550 22 0
50 26 50 46 0 22 -55 74 -78 74 -55 0 -113 -136 -157 -366 -45 -234 -42 -400
11 -604 46 -177 124 -299 221 -347 78 -38 185 -37 269 1 66 30 168 129 209
203 16 26 38 64 50 83 37 59 74 158 99 270 39 167 45 223 51 420 3 102 8 208
11 235 7 57 41 175 55 190 16 16 10 54 -10 65 -28 15 -35 13 -64 -15z"/>
<path d="M12063 20556 c-63 -21 -125 -60 -194 -123 -185 -172 -325 -410 -464
-788 -36 -99 -70 -190 -75 -202 -48 -116 -130 -401 -137 -477 -6 -72 -6 -72
27 -100 18 -15 42 -26 54 -24 18 3 22 14 33 98 7 52 20 118 28 145 44 148 84
286 96 334 7 29 18 55 24 58 6 2 27 -11 47 -30 23 -22 78 -50 164 -84 71 -28
163 -66 204 -83 94 -40 291 -108 348 -121 57 -13 82 1 82 45 0 35 -25 66 -53
66 -31 0 -198 61 -357 130 -85 37 -180 75 -210 85 -30 10 -66 26 -81 36 -14
10 -42 19 -64 21 -22 2 -42 10 -48 19 -11 17 -8 25 73 204 15 33 42 94 60 135
80 183 173 324 295 446 95 95 161 138 199 128 33 -8 62 -44 70 -88 9 -48 -18
-156 -57 -230 -43 -82 -199 -237 -405 -406 -90 -73 -166 -139 -169 -147 -8
-21 11 -35 49 -36 93 -3 473 318 597 504 53 79 92 202 94 295 1 58 -3 80 -24
120 -14 27 -37 55 -51 62 -41 19 -109 23 -155 8z"/>
<path d="M17318 20523 c-31 -35 -62 -108 -232 -538 -219 -556 -323 -862 -311
-916 8 -37 42 -66 61 -54 14 9 62 130 148 375 41 115 160 425 250 650 37 91
76 190 88 220 11 30 38 86 59 123 22 38 39 81 39 96 0 53 -69 82 -102 44z"/>
<path d="M16280 20441 c-118 -33 -199 -77 -308 -170 -185 -158 -434 -587 -546
-941 -44 -138 -46 -191 -11 -226 14 -14 31 -24 37 -22 6 2 25 23 42 47 27 38
31 50 29 99 -4 77 36 189 146 417 210 434 430 664 671 705 87 15 116 3 148
-60 28 -57 29 -129 1 -187 -32 -66 -139 -158 -244 -208 -112 -54 -252 -95
-325 -95 -67 0 -100 -19 -100 -59 0 -15 8 -35 18 -44 40 -36 282 -163 392
-205 133 -50 291 -102 313 -102 33 0 67 28 67 54 0 31 -25 50 -85 66 -49 13
-393 147 -434 170 -29 15 -26 38 7 46 158 35 294 107 398 210 99 99 145 251
113 369 -15 56 -92 128 -152 143 -61 16 -99 14 -177 -7z"/>
<path d="M13390 20359 c-248 -20 -388 -56 -447 -114 -54 -54 -57 -122 -5 -149
35 -18 58 -6 67 34 4 17 17 38 30 46 58 38 227 68 474 83 229 15 254 -1 189
-124 -34 -66 -50 -88 -154 -220 -84 -105 -162 -182 -294 -287 -175 -138 -211
-203 -160 -286 31 -51 87 -72 197 -72 50 0 113 4 140 10 26 5 91 17 143 26
193 33 525 128 662 188 82 37 124 101 81 124 -13 7 -63 -5 -178 -44 -451 -153
-955 -232 -955 -151 0 16 41 54 100 92 163 106 417 394 510 579 34 66 40 88
40 141 0 51 -4 66 -23 87 -43 46 -164 57 -417 37z"/>
<path d="M9647 20309 c-37 -21 -107 -211 -142 -384 -9 -44 -18 -90 -21 -102
-4 -22 -83 -103 -132 -135 -15 -10 -49 -22 -77 -28 -65 -14 -139 7 -180 50
-27 28 -30 37 -28 90 3 70 18 110 66 173 31 40 34 51 27 77 -12 43 -19 50 -44
50 -91 0 -179 -230 -146 -384 22 -108 128 -180 266 -181 38 0 66 8 114 33 38
19 67 29 73 23 5 -5 -4 -57 -22 -127 -78 -302 -117 -510 -108 -577 6 -46 35
-77 72 -77 36 0 51 25 37 64 -16 43 -15 87 3 160 54 228 106 449 115 491 6 28
22 93 36 145 13 52 39 159 58 237 19 77 51 179 71 225 47 104 52 131 31 163
-18 27 -40 31 -69 14z"/>
<path d="M8275 20246 c-90 -30 -165 -84 -227 -164 -84 -109 -114 -182 -153
-372 -13 -63 -37 -182 -54 -265 -34 -162 -61 -350 -61 -419 0 -55 30 -96 69
-96 45 0 51 15 51 128 0 57 9 160 19 230 10 70 24 181 31 247 34 327 214 625
378 625 52 0 130 -41 191 -101 79 -78 79 -78 -115 -140 -317 -102 -401 -183
-375 -364 27 -180 58 -211 267 -260 278 -66 323 -77 381 -96 34 -11 75 -19 90
-17 25 3 28 7 31 44 2 29 -2 44 -15 56 -23 20 -121 49 -313 92 -313 70 -340
88 -340 226 0 104 -4 101 284 202 204 71 242 88 279 123 33 32 31 52 -11 124
-87 151 -275 242 -407 197z"/>
<path d="M14608 19613 c-51 -55 -110 -140 -177 -256 -27 -45 -79 -131 -116
-192 -38 -60 -128 -211 -200 -335 -136 -232 -173 -293 -256 -418 -27 -41 -49
-79 -49 -86 0 -18 33 -46 54 -46 9 0 20 10 25 23 5 12 57 99 117 192 170 269
180 284 243 390 32 55 77 123 98 150 22 28 75 109 119 180 106 176 154 243
207 290 35 31 46 49 52 83 14 87 -46 100 -117 25z"/>
<path d="M10283 19378 c-12 -13 -29 -41 -38 -63 -49 -117 -131 -346 -198 -552
-102 -311 -169 -487 -233 -611 -43 -83 -52 -108 -44 -123 16 -28 51 -22 81 14
45 55 145 256 197 397 27 74 80 225 117 335 71 212 121 341 179 468 40 88 43
103 20 135 -20 28 -55 28 -81 0z"/>
<path d="M3402 18080 c-62 -25 -59 -72 54 -765 58 -357 59 -675 4 -892 -34
-129 -84 -218 -180 -314 -48 -48 -113 -104 -145 -124 -149 -96 -330 -157 -520
-176 -151 -15 -185 -11 -205 26 -13 23 -24 30 -46 30 -62 0 -35 -94 39 -136
100 -56 367 -28 593 62 176 70 263 128 378 249 111 119 164 235 203 448 25
135 25 527 -1 692 -102 674 -118 809 -98 847 20 37 -29 71 -76 53z"/>
<path d="M7575 17953 c-150 -9 -447 -49 -690 -93 -564 -102 -563 -102 -549
-163 5 -25 4 -29 -10 -24 -21 8 -56 -26 -56 -54 0 -22 -78 -224 -121 -313 -17
-36 -35 -56 -63 -70 -54 -29 -63 -47 -48 -90 14 -39 9 -55 -49 -151 -39 -66
-94 -183 -135 -291 -38 -98 -38 -198 -1 -275 37 -76 85 -123 149 -146 118 -41
407 -13 668 64 47 14 123 34 170 44 47 11 92 22 100 25 8 3 53 14 100 24 225
49 310 87 310 139 0 40 -23 44 -127 23 -54 -11 -125 -23 -158 -27 -61 -6 -295
-45 -555 -90 -251 -44 -443 -44 -532 2 -35 17 -36 46 -4 139 35 100 86 210
169 364 46 86 51 88 307 155 52 13 156 44 230 68 74 24 169 52 210 62 89 21
282 80 313 96 31 16 87 71 87 85 0 32 -27 35 -112 14 -45 -12 -159 -34 -253
-50 -93 -16 -249 -49 -345 -74 -194 -49 -280 -64 -280 -48 0 5 19 49 42 97 33
69 41 97 40 137 l-1 49 29 -6 c17 -4 49 1 77 10 44 15 506 114 631 135 29 5
56 11 60 14 4 2 99 22 212 45 113 22 241 48 285 57 89 18 162 50 179 77 26 44
-42 53 -279 40z"/>
<path d="M9943 17900 c-182 -33 -251 -60 -403 -159 -84 -54 -208 -185 -263
-278 -69 -116 -133 -305 -152 -449 -35 -264 -3 -820 54 -948 24 -55 92 -116
129 -116 76 0 86 119 13 135 -49 11 -56 38 -92 409 -14 141 -6 386 14 467 22
85 87 268 116 324 43 86 130 202 191 258 59 53 182 121 275 150 122 39 404 68
455 47 17 -7 30 -18 30 -24 0 -10 -63 -53 -190 -129 -97 -58 -452 -307 -548
-385 -178 -144 -268 -262 -265 -347 2 -48 30 -124 74 -195 37 -60 78 -82 199
-107 168 -35 589 -20 741 27 113 34 181 110 128 143 -12 8 -30 5 -67 -11 -146
-63 -637 -46 -835 28 -62 23 -117 63 -117 86 0 20 122 146 227 234 120 100
176 139 549 380 89 57 165 115 194 147 43 46 50 61 61 123 11 66 11 73 -7 98
-65 89 -300 131 -511 92z"/>
<path d="M4815 17793 c-295 -18 -733 -144 -775 -223 -16 -30 -12 -64 10 -88
24 -26 39 -21 85 27 32 35 116 64 304 108 300 69 494 70 637 4 105 -49 133
-110 98 -211 -56 -160 -174 -335 -440 -651 -210 -248 -237 -282 -311 -379 -97
-129 -139 -204 -154 -276 -15 -76 -7 -108 39 -154 30 -30 50 -39 107 -51 89
-18 349 -18 470 0 282 41 718 130 940 193 88 25 125 50 109 75 -19 31 -83 26
-296 -21 -344 -77 -720 -136 -898 -143 -166 -6 -300 6 -350 32 -37 19 -40 57
-7 106 12 19 33 54 46 79 13 25 36 59 50 77 14 17 42 53 61 79 19 27 78 98
130 159 175 205 331 395 412 504 46 62 137 217 169 287 39 87 49 184 25 248
-22 57 -111 140 -185 173 -76 34 -184 52 -276 46z"/>
<path d="M11421 17699 c-108 -66 -198 -251 -249 -513 -32 -163 -21 -154 -172
-155 -206 -2 -308 31 -348 111 -23 46 -24 47 -8 105 30 106 78 213 128 284 63
91 62 169 -4 169 -22 0 -40 -10 -63 -34 -42 -45 -125 -208 -160 -315 -25 -75
-27 -94 -22 -170 14 -206 85 -274 302 -288 64 -4 116 -1 178 11 94 18 123 12
113 -23 -3 -9 -21 -120 -41 -247 -19 -127 -46 -283 -60 -347 -36 -172 -48
-284 -35 -318 21 -49 100 -57 114 -12 3 11 6 48 5 84 -1 40 16 147 45 289 25
124 57 311 71 415 15 105 30 199 35 211 4 12 30 34 57 49 106 62 184 147 245
269 90 178 101 335 29 414 -26 28 -36 32 -78 32 -31 0 -60 -7 -82 -21z m105
-111 c11 -18 6 -88 -12 -147 -40 -139 -187 -359 -224 -336 -17 11 -6 85 30
190 41 121 83 205 131 259 41 46 62 56 75 34z"/>
<path d="M18170 17580 c-103 -21 -210 -69 -286 -128 -51 -40 -74 -77 -74 -120
0 -28 52 -117 102 -173 25 -29 197 -159 266 -203 24 -15 46 -34 49 -42 3 -9
-13 -35 -43 -67 -156 -166 -232 -322 -221 -451 19 -235 185 -350 520 -363 167
-7 270 13 407 80 130 65 158 165 86 311 -19 39 -61 100 -92 135 -64 70 -232
200 -377 290 -55 34 -92 64 -92 73 0 30 189 170 315 233 76 38 147 55 231 55
33 0 69 5 80 10 14 8 25 7 43 -5 23 -15 26 -15 45 4 38 38 24 87 -46 162 -81
86 -207 148 -388 190 -134 31 -397 35 -525 9z m340 -60 c118 -14 250 -47 350
-87 93 -37 162 -85 145 -102 -6 -6 -51 -15 -101 -21 -49 -5 -111 -16 -137 -24
-87 -26 -282 -154 -394 -258 -28 -26 -57 -48 -63 -48 -13 0 -152 105 -261 197
-135 113 -154 195 -61 254 69 44 200 81 317 89 55 4 105 8 110 9 6 0 49 -4 95
-9z m-184 -629 c16 -17 36 -38 45 -48 9 -10 83 -67 165 -128 245 -182 364
-319 364 -418 0 -60 -74 -104 -223 -134 -233 -46 -505 4 -573 104 -27 41 -38
122 -24 191 15 79 83 211 147 283 30 35 64 77 74 94 18 29 18 29 -8 57 -20 21
-23 28 -11 28 9 0 29 -13 44 -29z"/>
<path d="M14570 17485 c-41 -8 -95 -21 -119 -29 -24 -9 -46 -14 -50 -11 -14 8
-158 -17 -236 -41 -107 -34 -181 -72 -297 -152 -195 -135 -297 -228 -434 -397
-104 -129 -172 -266 -200 -406 -34 -171 18 -313 170 -464 147 -145 234 -180
451 -178 131 0 218 15 370 62 219 68 536 234 675 354 211 181 313 324 348 488
10 45 23 84 29 86 13 5 243 -250 243 -269 0 -7 -37 -38 -82 -67 -120 -80 -259
-195 -376 -312 -119 -117 -132 -141 -104 -178 27 -37 74 -50 180 -50 79 -1 98
2 123 20 33 23 37 49 11 72 -21 19 -52 21 -100 8 -40 -12 -62 -5 -62 19 0 20
169 179 285 267 93 71 105 82 174 148 48 46 52 48 46 23 -6 -24 1 -36 50 -87
67 -70 176 -146 290 -201 95 -46 276 -100 334 -100 37 0 41 3 41 24 0 33 -22
53 -73 66 -180 47 -280 89 -396 164 -82 52 -181 145 -181 168 0 10 38 34 103
66 321 158 446 218 473 228 16 6 63 25 104 42 41 17 100 41 130 52 30 12 73
29 95 39 22 10 50 21 62 25 22 7 49 33 41 41 -18 18 -269 -51 -438 -120 -63
-26 -137 -56 -165 -67 -90 -36 -268 -124 -368 -181 -54 -31 -102 -57 -106 -57
-5 0 -40 39 -79 88 -38 48 -109 124 -156 170 l-86 83 0 57 c0 78 -25 186 -57
252 -35 72 -133 170 -208 207 -123 62 -284 79 -455 48z m375 -99 c98 -39 121
-57 169 -131 68 -102 95 -239 77 -390 -11 -89 -48 -209 -76 -245 -7 -8 -26
-40 -43 -70 -31 -57 -180 -210 -262 -272 -150 -113 -402 -243 -585 -302 -184
-60 -301 -79 -442 -74 -112 4 -128 8 -185 36 -152 74 -268 258 -268 422 0 113
80 312 179 443 146 195 369 376 596 483 52 25 111 48 130 51 l35 6 0 -46 c0
-51 27 -94 53 -84 9 3 21 25 28 47 18 58 82 113 124 105 44 -9 105 -36 141
-62 40 -30 62 -29 76 2 13 29 2 46 -55 82 -60 38 -40 46 98 41 111 -5 130 -9
210 -42z"/>
<path d="M17115 17250 c-33 -21 -65 -39 -71 -39 -29 -2 -119 -62 -175 -116
-71 -68 -195 -221 -253 -310 -21 -33 -51 -79 -67 -102 -16 -23 -29 -44 -29
-48 0 -3 -12 -31 -26 -61 -14 -30 -31 -84 -37 -118 -9 -55 -8 -70 8 -112 52
-137 213 -216 405 -199 315 28 631 166 825 360 95 95 127 156 127 243 0 74
-13 112 -69 200 -92 145 -242 250 -388 274 -58 9 -74 16 -93 39 -34 41 -80 38
-157 -11z m216 -100 c143 -27 283 -139 354 -282 42 -85 42 -115 3 -191 -103
-203 -621 -445 -903 -422 -159 13 -225 69 -210 179 18 140 154 374 313 538
155 161 277 209 443 178z"/>
<path d="M12392 15973 c-17 -7 -71 -93 -112 -178 -83 -176 -106 -233 -184
-464 -108 -317 -131 -376 -168 -433 -34 -54 -34 -81 1 -86 35 -5 86 49 134
143 48 92 82 175 171 405 70 183 135 315 198 404 33 47 42 70 46 112 7 81 -28
121 -86 97z"/>
<path d="M18580 14286 c-261 -49 -527 -213 -686 -425 -67 -89 -168 -282 -202
-386 -78 -238 -120 -631 -93 -865 13 -108 52 -285 72 -323 30 -57 79 -75 113
-41 23 22 20 55 -9 111 -14 26 -35 93 -47 148 -20 88 -23 126 -22 320 2 272
21 402 91 620 40 123 74 197 141 300 139 217 412 396 667 440 114 19 159 19
270 -1 106 -19 145 -37 145 -64 0 -25 -36 -48 -225 -139 -254 -124 -526 -271
-617 -333 -101 -69 -197 -167 -233 -237 -13 -27 -29 -78 -36 -114 -15 -78 0
-152 51 -260 79 -167 306 -308 502 -311 63 -1 81 3 105 20 62 46 39 79 -62 88
-89 8 -177 36 -265 83 -81 43 -103 63 -151 136 -50 76 -65 166 -43 250 23 86
126 217 224 283 50 34 348 187 630 323 210 101 264 144 264 206 0 45 -31 77
-109 115 -121 59 -327 83 -475 56z"/>
<path d="M9803 14210 c-156 -23 -452 -272 -672 -565 -117 -156 -195 -301 -255
-473 -110 -318 -108 -579 6 -770 43 -70 86 -112 116 -112 20 0 92 35 92 44 0
2 -14 20 -30 41 -42 53 -86 147 -106 225 -29 113 -11 382 35 528 70 226 280
545 484 738 128 122 316 263 350 264 16 0 6 -60 -18 -105 -30 -56 -101 -145
-285 -355 -309 -354 -432 -529 -461 -658 -30 -127 36 -272 176 -385 138 -111
341 -167 605 -167 109 0 160 20 160 64 0 42 -19 47 -182 51 -337 8 -470 63
-552 228 -46 93 -56 174 -32 249 18 57 23 66 104 183 60 87 56 81 183 229 368
426 392 457 442 554 27 51 47 102 45 114 -3 26 -77 74 -123 81 -16 3 -53 1
-82 -3z"/>
<path d="M13875 14196 c-221 -52 -429 -182 -570 -356 -119 -148 -179 -335
-204 -635 -15 -176 -20 -429 -10 -546 29 -365 143 -709 237 -709 58 0 83 49
43 87 -38 37 -88 163 -121 307 -33 148 -65 365 -55 375 7 7 37 -11 85 -50 92
-73 167 -115 318 -178 202 -83 431 -148 594 -167 60 -7 108 11 108 40 0 26
-30 38 -182 77 -196 50 -310 88 -478 156 -156 63 -196 85 -274 148 -73 60 -97
106 -97 190 -1 52 5 74 27 115 37 68 209 233 359 344 185 138 197 146 301 221
96 69 138 104 262 212 67 59 102 114 102 163 0 72 -75 159 -166 193 -65 25
-201 31 -279 13z m217 -97 c51 -13 98 -54 98 -87 0 -43 -155 -187 -380 -353
-219 -162 -459 -351 -495 -391 -22 -24 -55 -61 -74 -82 -66 -75 -65 -7 5 264
58 224 144 357 310 483 117 89 268 161 374 180 31 6 112 -1 162 -14z"/>
<path d="M19713 14166 c-172 -41 -362 -126 -420 -188 -56 -60 -28 -136 45
-124 20 3 40 12 44 21 13 21 57 62 94 85 93 59 350 130 467 130 135 0 247 -83
247 -182 0 -65 -162 -276 -424 -553 -213 -225 -237 -252 -314 -354 -98 -127
-149 -216 -169 -294 -16 -61 -16 -66 1 -92 23 -35 63 -51 166 -65 181 -25 431
11 875 126 72 18 158 36 193 40 35 4 70 13 78 21 30 30 8 109 -33 119 -13 4
-43 1 -66 -5 -272 -73 -515 -129 -671 -156 -127 -22 -334 -37 -380 -28 -65 14
-65 28 -5 129 81 135 140 207 335 416 481 515 514 561 514 715 0 78 -22 125
-83 179 -69 60 -122 76 -267 80 -106 3 -141 0 -227 -20z"/>
<path d="M6587 14142 c-22 -24 -21 -36 4 -129 37 -134 23 -295 -66 -783 -24
-128 -72 -414 -90 -531 -9 -57 -19 -162 -21 -234 -5 -119 -4 -133 15 -163 28
-43 62 -55 136 -47 114 12 211 43 580 185 88 34 183 70 210 80 63 23 170 68
256 107 97 44 124 96 76 141 -29 27 -37 27 -90 0 -56 -28 -383 -152 -642 -244
-115 -40 -248 -87 -295 -104 -46 -17 -98 -30 -115 -28 -34 3 -35 8 -16 98 7
30 18 100 26 155 21 150 43 284 75 445 116 589 134 767 92 922 -22 82 -44 123
-73 138 -26 15 -44 12 -62 -8z"/>
<path d="M2734 14091 c-125 -78 -194 -226 -365 -786 -5 -16 -25 -93 -44 -170
-19 -77 -48 -187 -64 -245 -16 -58 -42 -154 -59 -215 -16 -60 -39 -137 -51
-170 -26 -75 -27 -117 -1 -140 37 -34 139 -1 152 50 4 17 19 77 34 135 25 100
33 138 70 310 9 41 20 86 24 100 5 14 20 79 35 145 52 231 202 695 263 813 20
38 53 63 71 53 18 -11 31 -69 31 -136 0 -63 23 -359 39 -510 9 -77 31 -243 71
-535 14 -101 79 -451 91 -488 13 -41 41 -56 91 -49 64 9 85 29 107 105 11 37
36 120 56 185 19 65 44 169 56 230 114 624 168 799 322 1039 45 69 105 130
126 126 66 -13 139 -396 186 -978 12 -143 34 -298 66 -450 37 -176 79 -252
144 -264 60 -12 111 31 103 85 -2 19 -12 26 -45 33 -49 11 -54 20 -77 141 -31
160 -55 353 -61 490 -10 216 -54 669 -74 765 -38 182 -55 212 -147 262 -97 52
-195 16 -291 -107 -166 -212 -259 -457 -352 -925 -17 -85 -40 -195 -51 -245
-11 -49 -26 -119 -34 -155 -10 -52 -17 -66 -33 -68 -11 -2 -24 3 -30 10 -6 7
-16 78 -22 158 -6 80 -18 190 -25 245 -8 55 -17 145 -21 200 -3 55 -8 114 -10
130 -14 126 -26 272 -35 460 -15 281 -20 299 -102 351 -53 34 -106 40 -144 15z"/>
<path d="M15420 14093 c-191 -20 -638 -154 -714 -214 -32 -25 -34 -68 -6 -94
25 -23 76 -14 133 24 76 52 432 152 613 173 119 14 170 4 216 -42 45 -45 39
-91 -21 -176 -51 -71 -62 -83 -242 -271 -123 -128 -188 -242 -172 -303 13 -48
48 -54 348 -60 318 -7 337 -11 414 -90 64 -66 66 -99 9 -185 -50 -77 -244
-262 -351 -337 -155 -107 -182 -121 -255 -127 -75 -7 -92 -22 -76 -68 32 -91
185 -51 403 105 46 33 134 107 196 166 255 238 300 401 153 543 -96 93 -211
119 -494 109 -165 -6 -193 -5 -204 9 -17 20 12 57 163 210 242 244 310 368
261 483 -48 115 -178 166 -374 145z"/>
<path d="M10893 14035 c-250 -70 -416 -139 -511 -214 -55 -44 -64 -70 -38
-106 10 -14 25 -19 57 -18 58 3 96 19 151 68 34 31 81 55 175 92 184 73 271
99 284 86 19 -19 -17 -68 -180 -240 -248 -261 -311 -349 -311 -432 0 -34 4
-43 28 -54 35 -18 102 -34 177 -42 233 -26 446 -80 548 -140 25 -14 64 -46 86
-70 37 -41 41 -49 41 -98 0 -106 -107 -260 -309 -445 -115 -106 -210 -176
-283 -211 -56 -26 -72 -44 -64 -69 8 -24 47 -42 93 -42 77 0 253 121 422 290
122 121 192 211 242 308 30 60 34 75 34 147 -1 69 -4 87 -30 134 -84 153 -350
266 -675 286 -125 8 -160 17 -160 39 0 18 105 141 236 276 51 52 118 126 150
164 33 38 78 91 101 118 60 68 64 91 22 135 -19 19 -46 41 -61 49 -38 20 -129
15 -225 -11z"/>
<path d="M6247 13873 c-8 -10 -22 -52 -31 -93 -33 -157 -110 -417 -204 -686
-140 -398 -245 -584 -364 -645 -52 -26 -119 -34 -171 -20 -159 45 -312 389
-347 780 -12 143 -16 422 -6 476 6 38 4 44 -29 78 -56 58 -105 44 -120 -33 -8
-44 11 -395 29 -555 39 -323 142 -614 265 -748 170 -184 430 -177 576 16 41
54 116 193 156 288 60 144 185 493 219 614 92 320 117 473 86 520 -19 29 -37
32 -59 8z"/>
<path d="M0 13317 c0 -30 4 -46 10 -42 13 8 13 55 0 75 -7 11 -10 2 -10 -33z"/>
<path d="M16957 12501 c-48 -18 -101 -145 -196 -476 -43 -149 -87 -355 -97
-452 -5 -48 -3 -62 10 -76 45 -45 69 -7 107 165 16 73 33 146 38 163 115 375
150 474 181 521 15 22 30 53 34 68 12 47 -37 102 -77 87z"/>
<path d="M11876 12298 c-59 -90 -105 -260 -136 -503 -11 -88 -25 -194 -30
-235 -6 -41 -16 -111 -24 -155 -15 -85 -9 -119 21 -127 27 -7 40 0 62 35 19
32 70 271 110 512 26 156 66 291 98 333 21 28 24 41 20 74 -10 76 -87 118
-121 66z"/>
<path d="M6843 11746 c-98 -36 -189 -101 -303 -216 -306 -307 -537 -847 -664
-1555 -38 -213 -76 -520 -76 -617 0 -74 -4 -93 -27 -138 l-27 -52 21 -42 c14
-27 25 -75 32 -145 10 -106 22 -134 63 -147 25 -8 68 21 68 47 0 11 -8 31 -17
45 -11 17 -18 54 -21 110 -3 65 -8 84 -19 84 -8 0 -13 7 -11 18 4 24 146 52
159 31 6 -11 15 -7 41 17 49 45 174 125 263 168 17 8 51 33 77 55 25 23 51 41
57 41 6 0 11 7 11 15 0 9 11 21 25 27 14 6 32 22 41 35 8 14 34 33 57 44 23
10 54 30 69 44 15 14 31 25 36 25 4 0 18 13 30 29 12 16 42 44 67 62 25 18 45
40 45 49 0 16 35 60 48 60 9 0 111 98 178 170 46 50 121 154 168 233 80 135
101 174 132 247 55 131 69 206 68 360 -2 294 -86 621 -200 780 -93 130 -238
173 -391 116z m204 -115 c48 -24 124 -104 152 -160 59 -115 131 -386 146 -548
6 -76 -6 -194 -31 -290 -36 -140 -151 -352 -277 -510 -215 -271 -791 -748
-1085 -900 -79 -41 -81 -34 -62 217 46 602 186 1153 410 1609 114 233 235 386
400 508 138 101 248 125 347 74z"/>
<path d="M14730 11601 c-186 -72 -377 -250 -514 -478 -48 -80 -148 -291 -175
-368 -94 -265 -167 -763 -156 -1060 7 -163 51 -303 110 -341 31 -21 56 -7 125
69 48 52 52 60 42 82 -6 14 -23 27 -37 31 -21 5 -33 0 -61 -27 -39 -38 -45
-34 -64 31 -57 197 -27 641 71 1028 41 166 58 216 108 317 136 273 351 500
524 550 68 20 111 13 149 -23 42 -39 44 -75 10 -165 -75 -193 -190 -346 -469
-625 l-213 -213 0 -60 c0 -67 10 -93 42 -110 19 -10 121 -38 213 -59 22 -5 74
-21 115 -35 104 -37 168 -52 287 -66 198 -24 406 3 457 60 15 16 15 19 1 31
-11 10 -46 11 -143 6 -135 -8 -247 5 -402 44 -81 21 -295 105 -372 147 -67 36
-64 56 16 122 62 51 215 210 291 301 61 73 161 220 203 300 83 154 115 341 77
438 -33 81 -133 112 -235 73z"/>
<path d="M4956 11506 c-342 -143 -624 -664 -736 -1356 -28 -174 -48 -361 -54
-520 -3 -74 -9 -198 -12 -274 -4 -111 -10 -148 -25 -179 -20 -37 -20 -39 -2
-70 23 -39 51 -45 86 -17 25 20 27 27 27 90 0 38 4 71 9 74 5 3 26 -8 47 -25
36 -29 43 -31 100 -26 73 5 157 45 239 112 31 25 59 45 64 45 4 0 17 9 29 21
12 11 62 47 111 79 48 33 100 74 114 93 14 18 58 60 99 92 245 196 462 526
530 805 8 36 13 116 13 230 -1 158 -4 186 -29 290 -52 210 -123 358 -215 451
-81 80 -135 103 -246 107 -77 2 -99 -1 -149 -22z m229 -107 c114 -53 195 -169
264 -374 52 -154 65 -240 58 -390 -11 -259 -136 -524 -368 -781 -211 -233
-572 -507 -750 -568 -52 -18 -69 -8 -69 41 0 40 -22 53 -49 29 -10 -9 -21 -16
-26 -16 -17 0 11 500 41 715 18 130 69 392 83 426 5 13 21 60 34 104 139 448
371 773 590 825 65 16 145 11 192 -11z"/>
<path d="M19059 11515 c-171 -27 -357 -125 -488 -256 -282 -286 -471 -864
-495 -1519 -9 -240 11 -374 65 -435 42 -47 76 -47 123 1 51 52 60 106 52 288
-9 193 -8 253 7 294 11 31 10 36 -12 53 -34 28 -66 24 -90 -10 -26 -36 -27
-96 -5 -262 19 -146 16 -232 -7 -237 -25 -5 -29 17 -40 198 -12 178 -8 236 31
475 12 72 25 153 30 180 19 121 79 334 134 478 102 266 243 440 443 545 121
63 228 92 359 99 94 5 103 4 112 -14 16 -29 1 -46 -181 -199 -89 -75 -226
-195 -305 -267 -308 -280 -355 -363 -287 -502 52 -107 287 -283 505 -378 175
-77 492 -99 655 -45 66 22 70 25 70 53 0 34 17 33 -206 19 -237 -14 -449 40
-627 160 -84 56 -276 235 -298 278 -28 55 -20 77 68 172 81 87 299 283 448
401 103 83 148 127 229 224 82 97 91 134 45 170 -53 42 -199 58 -335 36z"/>
<path d="M11090 11450 c-221 -35 -502 -164 -632 -290 -68 -65 -68 -66 -68
-120 0 -120 38 -169 66 -85 20 58 90 116 218 179 219 108 370 149 528 144 100
-3 134 -16 162 -61 22 -35 -65 -212 -232 -472 -147 -230 -155 -243 -221 -354
-83 -139 -155 -284 -182 -366 -18 -55 -20 -83 -17 -163 8 -154 47 -237 126
-263 47 -15 191 -5 313 22 52 12 110 24 129 29 40 9 250 70 360 105 41 13 95
27 120 30 118 17 204 59 198 99 -7 48 -150 36 -428 -35 -269 -70 -302 -77
-425 -87 -175 -15 -235 -2 -274 62 -24 38 -28 120 -10 177 17 51 133 288 167
339 16 25 56 88 89 140 33 52 97 154 143 225 187 293 266 473 258 592 -3 53
-9 68 -33 94 -17 17 -46 38 -65 46 -42 18 -211 26 -290 13z"/>
<path d="M20575 11439 c-38 -5 -81 -11 -95 -12 -14 -2 -45 -9 -70 -16 -25 -7
-58 -15 -75 -17 -149 -18 -276 -57 -433 -134 -108 -52 -142 -77 -142 -105 0
-40 37 -51 91 -27 163 72 213 94 282 121 85 34 122 39 130 17 3 -8 -19 -54
-50 -102 -66 -104 -161 -306 -196 -420 -53 -167 -71 -293 -71 -494 0 -199 11
-273 58 -375 68 -150 229 -222 409 -185 113 24 283 116 430 234 65 52 219 197
266 251 138 160 273 407 327 599 34 120 36 137 30 217 -5 69 -13 100 -38 150
-39 79 -121 160 -197 195 -31 14 -67 32 -81 39 -44 22 -123 44 -195 54 -107
15 -302 20 -380 10z m-165 -53 c0 -11 -19 -15 -25 -6 -3 5 1 10 9 10 9 0 16
-2 16 -4z m604 -80 c127 -38 190 -71 252 -131 90 -88 108 -153 84 -305 -34
-212 -167 -465 -355 -671 -177 -194 -407 -358 -557 -398 -251 -67 -363 31
-387 341 -23 298 44 598 205 907 108 206 104 201 151 201 42 0 108 33 128 64
l16 24 187 -3 c169 -2 196 -5 276 -29z"/>
<path d="M9645 11424 c-118 -29 -201 -66 -277 -122 -54 -40 -205 -211 -261
-295 -156 -237 -194 -320 -281 -625 -93 -328 -123 -492 -129 -723 -6 -225 23
-362 94 -443 51 -57 85 -76 145 -78 38 -2 50 2 65 21 11 13 22 35 26 49 10 42
-8 57 -73 60 -92 5 -125 48 -153 202 -34 190 -13 450 59 715 107 393 116 423
177 555 22 47 62 119 88 160 60 91 189 224 268 274 113 72 236 97 277 56 27
-27 25 -50 -6 -113 -64 -125 -162 -249 -386 -484 -63 -66 -130 -142 -148 -168
-31 -44 -33 -55 -34 -127 -1 -70 1 -80 24 -103 32 -32 184 -95 230 -95 20 0
53 -9 75 -20 22 -11 46 -20 55 -20 8 0 47 -12 85 -26 89 -32 299 -96 390 -119
126 -31 264 -16 282 31 9 24 -18 40 -82 48 -154 18 -380 108 -689 275 -33 18
-84 39 -114 46 -57 15 -92 38 -92 61 0 7 18 27 41 45 46 36 231 249 334 384
80 105 98 142 124 256 39 172 36 242 -13 288 -23 21 -79 41 -101 35z"/>
<path d="M3098 11310 c-48 -14 -94 -49 -159 -118 -86 -91 -164 -214 -268 -422
-99 -198 -159 -345 -266 -655 -70 -202 -92 -277 -187 -640 -21 -82 -53 -194
-70 -248 -34 -111 -31 -147 17 -147 43 0 46 9 121 345 9 39 20 81 24 95 27 80
73 247 90 325 31 143 38 167 53 182 12 13 16 12 30 -1 20 -20 61 -21 77 -1 10
12 10 21 0 45 -10 25 -10 36 0 55 12 22 107 100 275 226 111 83 378 250 387
241 5 -5 15 -49 23 -98 14 -91 49 -292 86 -489 11 -60 24 -132 29 -160 30
-176 42 -242 60 -326 12 -52 26 -106 32 -121 13 -36 45 -46 69 -22 17 18 17
21 -2 89 -18 65 -44 196 -70 355 -6 36 -15 83 -19 105 -5 22 -18 92 -30 155
-11 63 -29 165 -40 225 -11 61 -30 156 -42 212 -18 86 -20 106 -9 126 15 29
328 185 546 272 151 61 189 81 180 95 -26 42 -315 -50 -576 -181 -75 -38 -147
-70 -160 -71 -23 -3 -24 -1 -26 72 -4 112 -31 306 -53 382 -14 45 -29 73 -46
87 -29 23 -35 24 -76 11z m32 -132 c11 -12 20 -27 20 -34 0 -23 41 -320 52
-376 13 -69 8 -78 -66 -115 -75 -38 -263 -151 -326 -197 -30 -22 -106 -86
-168 -143 -111 -100 -132 -115 -132 -91 0 25 97 252 176 410 145 293 266 480
347 539 48 35 69 36 97 7z"/>
<path d="M15809 11283 c-62 -68 -185 -289 -213 -382 -19 -64 -21 -215 -5 -291
21 -98 110 -166 255 -193 102 -20 160 -16 214 16 99 57 103 58 114 47 7 -7 1
-47 -22 -138 -41 -164 -56 -253 -83 -492 -32 -294 -16 -430 52 -438 15 -2 29
3 32 10 2 8 0 54 -6 104 -13 118 11 355 63 604 5 25 19 92 31 150 12 58 39
163 61 235 32 104 46 135 72 160 138 131 306 551 244 613 -7 7 -25 12 -42 12
-44 0 -107 -71 -160 -182 -46 -97 -132 -322 -161 -420 -24 -84 -98 -138 -212
-157 -183 -29 -363 102 -363 265 0 117 70 265 171 363 52 50 69 73 69 93 0 52
-71 65 -111 21z m727 -172 c-8 -53 -86 -232 -103 -238 -25 -10 -26 6 -3 69 64
174 122 265 106 169z"/>
<path d="M12988 10123 c-9 -10 -31 -47 -50 -83 -45 -84 -63 -115 -133 -230
-190 -311 -309 -587 -389 -905 -40 -155 -32 -235 23 -235 25 0 41 33 41 83 0
61 85 342 162 536 36 93 142 296 233 451 38 63 92 156 120 205 29 50 61 105
71 122 15 25 17 37 8 50 -15 25 -66 28 -86 6z"/>
<path d="M17121 9674 c-67 -76 -92 -165 -125 -444 -9 -69 -31 -235 -51 -370
-47 -322 -52 -414 -28 -460 13 -26 26 -36 47 -38 16 -2 33 2 37 10 5 7 6 51 3
98 -6 83 6 198 41 395 13 74 19 109 45 278 5 34 14 109 21 167 6 58 20 137 32
175 20 68 35 89 110 151 23 19 22 30 -8 59 -39 40 -76 33 -124 -21z"/>
<path d="M2948 8523 c-45 -12 -46 -120 -2 -173 22 -25 31 -65 70 -297 91 -537
69 -833 -84 -1128 -51 -98 -69 -122 -172 -226 -115 -116 -171 -158 -351 -261
-180 -104 -352 -157 -534 -165 -111 -5 -157 2 -301 43 -67 19 -94 15 -94 -15
0 -60 176 -129 353 -138 235 -12 470 56 721 209 358 219 539 485 607 894 19
113 17 441 -4 574 -9 58 -26 161 -36 230 -56 363 -73 424 -126 448 -14 7 -27
11 -28 11 -1 -1 -9 -3 -19 -6z"/>
<path d="M20655 8310 c-60 -9 -164 -31 -230 -48 -66 -17 -163 -41 -215 -52
-258 -56 -320 -86 -284 -138 13 -20 21 -21 77 -16 34 4 82 15 107 26 25 10 99
30 165 44 66 14 181 40 255 59 206 51 360 77 377 64 38 -32 -14 -84 -216 -218
-20 -13 -88 -63 -151 -110 -391 -291 -634 -527 -632 -615 2 -68 68 -95 297
-121 77 -9 169 -20 205 -25 36 -5 120 -14 186 -20 435 -39 746 -162 799 -316
11 -34 11 -45 -4 -84 -24 -64 -98 -155 -184 -227 -99 -83 -327 -239 -517 -353
-8 -5 -42 -24 -75 -43 -33 -19 -80 -47 -105 -61 -25 -14 -83 -46 -130 -71 -47
-25 -92 -49 -100 -55 -8 -5 -46 -23 -85 -41 -38 -17 -101 -46 -140 -64 -38
-18 -137 -56 -220 -85 -82 -29 -176 -61 -207 -72 -61 -22 -80 -47 -57 -75 10
-12 25 -14 67 -9 52 6 248 65 367 111 33 13 71 26 85 30 38 11 330 150 385
183 17 10 64 37 105 59 95 52 175 100 231 137 24 17 116 77 204 135 351 231
494 378 510 528 6 57 4 70 -20 118 -36 74 -113 142 -226 197 -194 96 -394 134
-932 178 -134 11 -249 25 -265 32 -16 8 -28 23 -30 38 -3 19 15 43 100 123 98
95 265 235 407 342 37 28 80 60 96 73 17 12 64 45 105 74 201 137 330 247 330
280 0 9 -14 33 -30 52 -23 25 -44 37 -81 45 -71 15 -195 12 -324 -9z"/>
<path d="M4300 8279 c-93 -8 -382 -55 -510 -84 -36 -8 -116 -29 -179 -47 -93
-27 -118 -38 -135 -61 l-21 -29 22 -17 c12 -10 47 -21 78 -25 47 -5 71 -1 148
24 265 87 868 161 962 118 57 -26 45 -95 -36 -214 -77 -113 -82 -118 -448
-489 -368 -373 -404 -411 -517 -557 -184 -237 -239 -386 -170 -461 12 -13 60
-39 107 -57 79 -32 91 -34 199 -33 116 0 200 12 300 40 215 60 350 108 590
207 58 24 130 54 160 66 130 54 280 131 345 179 70 52 95 62 95 38 0 -7 -9
-46 -21 -87 -29 -107 -36 -222 -16 -291 67 -227 365 -283 994 -183 113 18 310
74 406 116 194 85 326 216 343 341 5 33 2 47 -13 66 l-20 24 -22 -24 c-12 -13
-24 -35 -28 -49 -17 -73 -59 -125 -146 -184 -191 -127 -646 -215 -1054 -203
-180 5 -238 15 -302 53 -16 10 -34 28 -40 41 -24 53 -7 220 37 363 30 98 39
117 63 134 47 32 282 117 421 151 193 47 206 51 573 154 176 49 349 97 385
106 36 9 111 35 166 57 128 50 177 94 178 160 1 55 -22 61 -71 17 -53 -46
-120 -73 -273 -109 -74 -18 -252 -60 -395 -95 -143 -35 -321 -77 -395 -94
-246 -58 -374 -92 -432 -115 -40 -16 -60 -20 -67 -13 -16 16 -14 20 21 95 17
37 41 99 52 137 18 58 26 70 44 71 12 1 27 6 34 11 7 6 36 13 63 16 28 3 64
12 80 20 48 24 77 36 140 57 33 11 92 31 131 44 39 13 115 34 168 45 54 11
114 29 134 40 20 11 73 25 117 31 44 6 105 17 135 25 107 26 167 34 330 45
366 23 444 31 488 50 48 22 56 51 20 72 -29 17 -545 16 -728 0 -323 -29 -737
-124 -997 -228 -96 -39 -119 -44 -156 -39 -44 7 -44 7 -91 -50 -49 -61 -52
-70 -35 -109 13 -27 15 -18 -74 -271 l-42 -120 -70 -33 c-132 -61 -159 -77
-178 -103 -15 -22 -17 -31 -8 -48 7 -11 18 -21 25 -21 8 0 19 -6 25 -13 15
-19 -13 -43 -63 -52 -22 -3 -89 -26 -150 -50 -444 -175 -768 -278 -1041 -330
-92 -18 -317 -26 -331 -12 -11 11 11 88 38 131 27 43 123 179 156 221 102 131
155 192 306 349 94 99 205 211 246 250 229 214 400 407 450 511 30 62 25 175
-9 224 -70 98 -201 125 -491 100z"/>
<path d="M9660 8155 c-177 -29 -343 -119 -498 -269 -270 -261 -471 -646 -552
-1055 -20 -105 -40 -384 -40 -576 0 -151 24 -215 80 -215 41 0 53 21 45 77
-12 83 -16 551 -5 611 5 30 12 58 15 61 3 2 29 -18 58 -45 74 -72 108 -95 232
-156 188 -94 461 -183 644 -209 129 -18 344 -7 461 25 122 34 220 86 220 119
0 10 -19 8 -165 -17 -270 -45 -512 -21 -870 89 -136 42 -366 149 -418 195 -67
58 -58 135 25 230 69 78 292 262 395 326 17 10 55 35 85 55 29 20 132 83 228
139 341 200 519 323 562 388 28 43 23 95 -13 137 -18 20 -48 43 -68 52 -100
43 -287 60 -421 38z m339 -121 c30 -11 57 -25 59 -32 9 -28 -166 -159 -365
-273 -94 -53 -344 -207 -448 -275 -154 -101 -257 -178 -347 -262 -43 -40 -82
-72 -88 -72 -40 0 56 191 213 425 113 169 250 319 345 379 83 52 202 107 264
121 89 20 294 14 367 -11z"/>
<path d="M18815 7855 c-77 -19 -162 -50 -248 -90 -66 -31 -78 -40 -75 -58 2
-18 9 -22 39 -21 20 1 56 10 80 22 103 48 177 75 219 79 25 3 49 9 55 14 12
12 99 11 155 -2 181 -40 297 -176 322 -374 10 -80 9 -101 -10 -193 -48 -238
-204 -463 -492 -711 -210 -180 -370 -266 -543 -293 l-80 -12 -28 32 c-38 43
-50 88 -56 217 -4 90 -1 126 16 200 40 165 128 350 234 490 4 5 28 37 53 70
25 33 58 76 72 95 99 130 238 241 357 285 62 23 115 54 115 67 0 19 -42 68
-70 83 -40 21 -68 19 -82 -5 -7 -11 -53 -46 -103 -77 -49 -30 -106 -66 -125
-78 -138 -87 -414 -443 -533 -686 -72 -149 -99 -242 -113 -396 -13 -147 46
-288 147 -350 52 -31 63 -34 160 -39 163 -9 293 31 444 135 33 23 71 49 85 58
57 39 179 144 275 239 113 112 241 277 309 399 129 234 149 475 55 664 -53
105 -180 200 -315 235 -74 19 -246 20 -319 1z"/>
<path d="M15460 7672 c-70 -7 -141 -27 -190 -54 -183 -101 -404 -314 -534
-516 -170 -263 -276 -678 -276 -1077 1 -301 80 -412 311 -431 131 -11 355 54
482 140 21 14 42 26 46 26 12 0 175 132 246 199 125 119 204 217 295 371 53
89 78 147 130 295 90 260 104 341 98 585 -1 43 -37 172 -58 207 -71 121 -193
212 -321 242 -44 10 -181 18 -229 13z m223 -108 c130 -67 229 -229 243 -401
17 -205 -87 -567 -231 -804 -76 -125 -123 -186 -225 -289 -208 -209 -461 -353
-657 -375 -115 -13 -152 25 -180 184 -23 127 -7 429 32 615 44 212 107 403
171 516 138 244 255 377 399 456 39 21 90 51 115 68 36 25 58 31 121 36 43 3
81 9 86 14 11 11 87 -1 126 -20z"/>
<path d="M17870 7643 c-95 -37 -326 -159 -450 -238 -227 -144 -382 -256 -461
-332 -65 -64 -62 -65 -130 66 -35 68 -53 90 -88 113 -52 33 -81 35 -104 10
-28 -31 -20 -64 39 -157 68 -109 94 -159 94 -183 0 -10 -21 -34 -47 -54 -97
-74 -354 -357 -420 -462 -103 -164 -123 -202 -123 -232 0 -45 22 -61 64 -46
18 7 44 12 57 12 14 0 29 4 35 9 5 5 18 11 28 13 15 2 20 12 21 48 2 48 27
100 98 211 49 76 158 223 169 227 12 6 148 170 148 180 0 14 70 102 80 102 15
0 11 -72 -5 -100 -22 -39 -18 -66 20 -139 71 -133 194 -276 301 -348 77 -53
219 -124 312 -157 110 -39 162 -33 162 19 0 30 -27 52 -75 61 -85 15 -286 122
-369 195 -26 23 -67 67 -91 99 -50 66 -175 299 -175 328 0 23 68 97 135 148
80 61 210 156 265 194 92 64 179 127 210 153 17 14 89 55 160 91 188 95 212
111 208 144 -2 21 -9 27 -28 29 -14 1 -32 -1 -40 -4z"/>
<path d="M10912 7519 c-104 -20 -270 -100 -364 -174 -94 -73 -181 -204 -220
-330 -28 -90 -35 -273 -14 -355 38 -150 94 -215 252 -291 130 -63 246 -84 454
-83 205 2 336 23 524 85 133 45 211 81 308 146 307 203 305 560 -5 762 -125
81 -355 151 -495 151 -55 0 -64 3 -107 39 -25 21 -63 43 -84 50 -44 13 -185
13 -249 0z m173 -89 c17 -27 -15 -41 -193 -84 -119 -28 -152 -46 -152 -81 0
-41 40 -53 103 -31 29 10 95 29 146 42 52 13 109 28 125 33 103 31 136 19 136
-48 0 -82 -56 -184 -164 -299 -60 -63 -81 -102 -57 -102 5 0 38 13 73 29 74
33 133 98 195 216 31 58 37 82 41 147 5 91 -3 88 135 58 157 -34 280 -94 374
-183 159 -150 173 -354 33 -480 -85 -76 -278 -165 -450 -207 -184 -44 -427
-57 -580 -31 -157 27 -333 106 -385 175 -51 68 -68 208 -40 340 50 238 245
430 508 501 62 16 143 19 152 5z"/>
<path d="M13340 6321 c-45 -24 -178 -154 -256 -251 -130 -159 -233 -315 -339
-510 -54 -99 -76 -140 -148 -270 -17 -30 -44 -82 -62 -115 -80 -152 -202 -371
-227 -408 -25 -37 -34 -92 -18 -112 32 -39 90 -3 172 107 51 68 77 112 158
263 36 68 149 269 167 300 7 11 15 27 19 35 15 33 148 260 197 336 98 154 152
229 234 330 94 116 155 173 231 216 61 35 64 54 12 80 -45 23 -96 22 -140 -1z"/>
</g>
</svg>
