<?xml version="1.0" standalone="no"?>
<!DOCTYPE svg PUBLIC "-//W3C//DTD SVG 20010904//EN"
 "http://www.w3.org/TR/2001/REC-SVG-20010904/DTD/svg10.dtd">
<svg version="1.0" xmlns="http://www.w3.org/2000/svg"
 width="3264.000000pt" height="2448.000000pt" viewBox="0 0 3264.000000 2448.000000"
 preserveAspectRatio="xMidYMid meet">
<metadata>
Created by potrace 1.12, written by Peter Selinger 2001-2015
</metadata>
<g transform="translate(0.000000,2448.000000) scale(0.100000,-0.100000)"
fill="#000000" stroke="none">
<path d="M3565 24087 c-13 -10 -15 -16 -6 -21 12 -8 41 10 41 25 0 13 -13 11
-35 -4z"/>
<path d="M3480 24065 c0 -18 8 -18 40 0 l25 14 -32 1 c-23 0 -33 -5 -33 -15z"/>
<path d="M3780 24031 c0 -9 24 -21 42 -21 6 0 6 6 -2 15 -14 16 -40 20 -40 6z"/>
<path d="M7811 23492 c-12 -22 -36 -184 -55 -367 -9 -77 -27 -198 -42 -270
-39 -190 -41 -212 -14 -220 28 -9 50 11 50 45 0 15 6 61 14 101 35 181 56 313
66 424 6 66 20 157 31 202 11 46 17 87 14 93 -10 17 -54 11 -64 -8z"/>
<path d="M6950 23428 c-1 -7 0 -83 1 -168 4 -287 2 -387 -11 -484 -14 -104 -9
-123 29 -111 13 4 37 41 71 111 28 57 63 118 78 136 55 65 190 95 234 51 25
-26 35 -101 19 -158 -27 -100 -126 -207 -257 -275 -72 -38 -98 -38 -134 1 -32
36 -60 34 -60 -5 0 -42 39 -77 94 -83 72 -9 193 56 296 157 99 96 122 141 128
246 8 139 -40 204 -148 204 -94 0 -167 -47 -263 -170 l-28 -35 6 60 c8 88 8
511 1 524 -10 15 -56 14 -56 -1z"/>
<path d="M2269 23223 c-58 -71 -102 -172 -189 -433 -64 -193 -129 -328 -187
-393 -40 -45 -40 -71 1 -75 22 -3 35 3 48 20 24 29 87 162 118 245 22 61 24
63 89 94 86 41 277 103 294 96 15 -6 131 -270 142 -323 4 -22 1 -35 -9 -43
-12 -10 -13 -18 -5 -32 14 -26 56 -25 64 2 16 50 -9 130 -102 327 -39 85 -37
94 33 111 67 17 53 37 -24 33 -73 -5 -64 -18 -132 189 -28 85 -58 164 -66 177
-17 26 -55 29 -75 5z m60 -118 c12 -31 21 -61 21 -68 0 -7 16 -50 35 -97 19
-46 35 -90 35 -97 0 -7 -12 -15 -27 -19 -16 -3 -75 -19 -133 -35 -58 -16 -111
-29 -118 -29 -14 0 -16 30 -3 62 5 13 26 66 46 118 56 145 93 220 109 220 8 0
23 -23 35 -55z"/>
<path d="M8532 23113 c-48 -70 -98 -174 -126 -266 -29 -90 -35 -102 -66 -119
-47 -26 -118 -20 -162 14 -52 40 -77 102 -96 240 -17 120 -18 123 -43 126 -38
4 -41 -14 -23 -136 21 -138 47 -206 98 -258 51 -51 103 -68 172 -55 27 5 52 7
56 5 9 -5 5 -26 -29 -189 -30 -142 -54 -223 -88 -296 -29 -64 -67 -133 -85
-154 -14 -16 -7 -45 11 -45 20 0 69 61 113 144 49 90 88 219 137 451 31 148
41 177 85 245 12 19 36 69 52 110 83 209 83 210 37 210 -14 0 -31 -11 -43 -27z"/>
<path d="M21134 23070 c-97 -48 -301 -344 -404 -586 -116 -271 -114 -266 -103
-283 16 -26 50 -25 67 1 8 13 34 77 56 143 75 217 146 348 307 569 56 76 86
106 97 95 3 -3 10 -141 15 -307 8 -260 12 -307 28 -340 16 -32 23 -37 57 -40
35 -3 43 1 87 47 48 49 113 171 158 294 26 71 67 153 81 162 5 3 10 5 10 3 1
-2 5 -73 9 -158 9 -161 22 -216 62 -275 33 -47 62 -62 94 -47 34 16 32 26 -10
51 -59 35 -67 68 -74 306 -5 138 -11 218 -19 233 -15 27 -53 29 -74 5 -9 -10
-69 -121 -133 -248 -117 -230 -175 -316 -194 -286 -12 19 -23 313 -19 492 3
133 1 149 -16 168 -24 26 -31 26 -82 1z"/>
<path d="M5006 23045 c-107 -38 -174 -114 -216 -248 -7 -23 -21 -42 -33 -46
-12 -5 -30 -18 -41 -30 -16 -17 -17 -23 -6 -37 8 -8 22 -13 32 -10 11 2 21 -1
23 -7 38 -134 49 -159 86 -192 22 -19 49 -35 62 -36 89 -4 170 28 233 92 49
50 36 70 -21 32 -163 -111 -292 -68 -283 96 l3 54 80 41 c109 57 165 97 214
153 35 39 41 53 39 81 -3 38 -33 67 -78 77 -14 3 -55 -5 -94 -20z m112 -63 c6
-19 -84 -103 -154 -142 -32 -18 -69 -42 -81 -53 l-23 -20 0 24 c1 38 34 103
76 143 55 54 170 84 182 48z"/>
<path d="M24326 23049 c-32 -25 -31 -55 1 -76 21 -14 24 -13 53 18 37 41 38
57 4 69 -32 13 -27 14 -58 -11z"/>
<path d="M28052 23028 c-55 -90 -151 -294 -167 -352 -10 -36 -22 -66 -27 -66
-5 0 -28 10 -51 22 -53 27 -163 29 -221 4 -95 -40 -144 -104 -126 -165 26 -92
98 -138 240 -153 195 -22 380 26 380 97 0 34 -19 36 -83 9 -148 -63 -415 -47
-460 27 -32 53 47 121 149 127 87 6 108 -1 168 -58 28 -27 57 -46 62 -42 6 4
13 42 16 85 5 71 11 90 61 190 31 62 77 143 102 182 47 72 53 93 33 113 -22
22 -55 14 -76 -20z"/>
<path d="M4169 23041 c-82 -26 -305 -154 -338 -195 -12 -15 -12 -20 6 -44 50
-69 208 -125 417 -147 74 -8 156 -32 179 -53 28 -25 20 -47 -36 -98 -76 -70
-302 -204 -342 -204 -21 0 -30 -27 -15 -45 7 -8 23 -15 36 -15 45 0 303 148
372 214 68 63 81 132 37 185 -33 38 -112 64 -280 91 -136 21 -289 63 -301 81
-3 6 3 21 15 33 30 32 231 127 282 133 61 8 81 20 77 46 -2 18 -10 22 -43 24
-22 1 -52 -2 -66 -6z"/>
<path d="M5854 23031 c-20 -12 -44 -44 -66 -87 -19 -38 -46 -89 -60 -114 -14
-25 -38 -69 -53 -97 -34 -63 -111 -163 -125 -163 -15 0 -12 151 5 264 19 127
19 126 -9 126 -35 0 -45 -19 -56 -101 -10 -82 -13 -329 -4 -353 9 -24 59 -19
93 9 53 45 122 147 177 260 65 135 93 180 103 169 4 -5 5 -56 1 -114 -11 -170
-5 -292 15 -306 19 -14 40 -9 68 14 27 24 98 136 152 242 48 93 111 170 139
170 24 0 44 -27 60 -83 24 -85 46 -227 46 -304 0 -90 12 -123 43 -123 13 0 28
5 35 12 16 16 15 53 -2 67 -10 8 -16 44 -20 109 -12 173 -56 331 -105 376 -25
22 -81 17 -121 -12 -34 -25 -90 -109 -141 -212 -49 -101 -98 -172 -112 -163
-9 6 -6 139 9 324 5 63 4 78 -11 92 -21 21 -23 21 -61 -2z"/>
<path d="M23633 23028 c-6 -7 -13 -22 -17 -33 -11 -38 -35 -280 -41 -426 -6
-124 -5 -150 9 -177 46 -90 103 -55 180 109 43 91 88 159 106 159 11 0 37
-119 49 -219 14 -112 62 -160 111 -111 29 29 22 55 -15 55 l-30 0 -12 95 c-15
127 -40 230 -60 252 -43 48 -104 -5 -179 -154 -52 -105 -80 -148 -96 -148 -19
0 10 300 48 498 9 47 13 87 8 92 -18 16 -51 20 -61 8z"/>
<path d="M3420 23015 c-70 -20 -146 -52 -264 -111 -120 -61 -176 -99 -176
-120 0 -28 76 -65 161 -79 178 -29 314 -68 412 -117 31 -16 57 -35 57 -42 0
-24 -77 -86 -153 -122 -83 -39 -207 -59 -221 -35 -4 6 -18 11 -32 11 -19 0
-24 -5 -24 -25 0 -40 52 -67 120 -62 93 6 277 93 336 158 28 30 38 78 24 113
-7 20 -28 36 -86 62 -92 42 -250 90 -359 109 -109 19 -141 31 -126 49 21 25
174 96 291 135 115 39 150 62 120 81 -18 12 -23 12 -80 -5z"/>
<path d="M17703 22923 c-9 -23 27 -49 80 -56 74 -10 150 -50 190 -99 54 -66
51 -72 -35 -64 -40 3 -305 10 -590 15 -284 5 -522 12 -529 17 -8 4 -261 11
-564 15 -441 6 -571 10 -655 24 -140 22 -304 15 -333 -14 -16 -16 -18 -23 -9
-34 10 -12 39 -13 150 -10 98 4 168 0 247 -12 89 -13 185 -16 500 -16 230 0
491 -6 635 -14 135 -8 360 -15 500 -15 140 0 372 -5 515 -11 347 -15 369 -6
255 105 -33 33 -60 63 -60 68 0 10 44 4 134 -18 66 -16 215 -90 223 -111 13
-34 -16 -73 -161 -217 -190 -188 -221 -233 -180 -267 15 -12 20 -10 43 21 14
19 101 111 192 205 92 93 172 180 178 192 20 40 13 69 -26 105 -91 81 -185
119 -398 158 -88 17 -176 34 -195 40 -54 15 -100 13 -107 -7z"/>
<path d="M25210 22868 c-58 -30 -98 -94 -113 -182 -11 -67 -8 -91 28 -203 6
-19 1 -23 -48 -39 -68 -21 -118 -13 -147 23 -17 22 -20 40 -20 134 0 121 -9
154 -44 170 -57 26 -119 -22 -175 -135 -18 -36 -36 -64 -40 -62 -4 3 -2 41 3
86 10 84 4 112 -25 117 -31 6 -37 -15 -47 -166 -11 -169 -6 -201 30 -201 31 1
69 53 108 148 31 74 81 142 105 142 8 0 14 -35 18 -102 6 -110 21 -160 59
-195 51 -48 111 -54 205 -22 l61 22 49 -36 c98 -72 241 -97 307 -54 31 21 78
110 70 131 -11 29 -43 17 -69 -24 -31 -49 -64 -64 -127 -56 -55 6 -158 53
-158 72 0 8 21 33 46 56 59 54 85 95 118 186 27 77 33 131 16 163 -28 51 -134
65 -210 27z m144 -44 c9 -3 16 -16 16 -29 0 -30 -35 -129 -61 -174 -31 -52
-100 -121 -121 -121 -37 0 -36 155 1 228 39 76 110 117 165 96z"/>
<path d="M26712 22835 c-81 -18 -131 -48 -209 -123 -103 -101 -153 -209 -132
-285 16 -60 64 -104 124 -113 129 -19 335 58 335 126 0 17 -31 11 -114 -21
-139 -54 -275 -46 -284 18 -5 36 57 143 121 210 83 86 156 122 257 126 71 2
75 3 78 26 8 51 -52 63 -176 36z"/>
<path d="M28515 22826 c-140 -34 -264 -150 -265 -249 0 -20 -7 -30 -25 -37
-35 -13 -33 -47 5 -68 16 -9 38 -33 49 -52 55 -97 144 -161 271 -195 73 -20
106 -18 158 5 38 17 43 23 40 47 -2 23 -7 28 -28 25 -129 -14 -139 -14 -204 8
-37 12 -88 36 -113 53 -46 31 -84 80 -71 92 3 4 39 13 80 22 151 31 279 95
332 166 28 38 28 107 1 137 -48 54 -130 70 -230 46z m187 -74 c19 -19 -18 -79
-67 -110 -56 -36 -207 -92 -268 -99 l-50 -6 6 33 c4 18 16 48 27 66 23 35 108
97 167 119 45 17 167 15 185 -3z"/>
<path d="M22173 22776 c-100 -47 -206 -171 -238 -279 -18 -60 -8 -89 44 -124
44 -30 129 -31 203 -3 64 24 175 106 218 160 18 22 35 40 40 40 4 0 19 -43 34
-95 14 -53 37 -113 51 -134 47 -76 133 -112 169 -73 23 27 15 38 -33 46 -27 4
-47 16 -65 36 -30 37 -63 137 -78 240 -5 41 -17 85 -24 98 -21 32 -52 28 -72
-9 -59 -107 -137 -181 -251 -235 -61 -29 -147 -36 -162 -13 -22 33 27 134 101
209 52 54 97 78 173 95 58 12 41 65 -22 65 -20 0 -59 -11 -88 -24z"/>
<path d="M23085 22751 c-84 -38 -143 -145 -152 -277 -6 -79 5 -110 56 -158 25
-24 42 -30 89 -34 83 -6 155 30 248 122 75 76 103 126 79 146 -11 9 -27 -2
-76 -55 -114 -120 -221 -174 -286 -143 -42 20 -51 70 -29 164 23 95 64 152
126 175 47 17 60 40 40 64 -16 20 -46 18 -95 -4z"/>
<path d="M24254 22752 c-16 -10 -13 -370 3 -376 39 -15 64 87 60 245 -3 123
-21 160 -63 131z"/>
<path d="M27038 22641 c-71 -35 -126 -144 -114 -226 17 -113 107 -167 242
-145 89 15 139 44 165 96 27 56 21 102 -20 161 l-30 42 35 20 c40 24 43 54 7
59 -12 2 -54 -6 -94 -17 -69 -19 -119 -16 -119 8 0 17 -39 19 -72 2z m193
-124 c18 -12 40 -35 49 -50 13 -24 13 -30 0 -54 -37 -67 -169 -96 -250 -55
-31 15 -35 22 -38 59 -2 24 1 51 7 60 10 18 126 60 172 62 14 1 41 -9 60 -22z"/>
<path d="M2686 21838 c-8 -13 -26 -61 -40 -108 -13 -47 -38 -125 -55 -175 -17
-49 -44 -142 -61 -205 -105 -389 -106 -392 -75 -404 24 -9 41 19 54 86 17 86
123 495 156 602 15 47 31 86 36 86 5 0 9 -2 9 -4 0 -71 107 -636 124 -654 31
-32 58 9 82 127 9 42 22 105 30 141 8 36 19 93 24 128 15 93 40 189 56 209 11
15 15 16 23 4 17 -26 53 -244 63 -386 6 -91 15 -148 24 -163 18 -28 51 -25 46
3 -2 11 -8 79 -13 150 -5 72 -18 182 -29 245 -11 63 -25 146 -31 185 -10 68
-29 105 -55 105 -39 0 -97 -139 -129 -305 -17 -91 -53 -258 -61 -284 -2 -8 -7
-11 -10 -8 -16 16 -84 452 -84 539 0 88 -50 139 -84 86z"/>
<path d="M21405 21769 c-141 -6 -218 -14 -298 -32 -112 -24 -134 -35 -124 -61
7 -19 71 -22 114 -5 65 24 170 38 349 45 106 3 203 4 217 0 49 -12 45 -33 -53
-276 -139 -344 -206 -473 -305 -589 -48 -56 -56 -93 -23 -99 23 -5 57 33 137
153 76 113 124 215 252 530 89 220 102 274 76 309 -14 19 -76 36 -122 34 -16
-1 -115 -5 -220 -9z"/>
<path d="M4264 21743 c-4 -16 -25 -71 -47 -123 -70 -169 -87 -233 -107 -429
-25 -236 -52 -324 -106 -337 -54 -14 -102 54 -145 203 -46 160 -60 349 -38
508 12 90 7 115 -26 115 -35 0 -38 -21 -32 -252 3 -161 9 -223 26 -302 58
-256 130 -350 242 -317 78 24 109 111 134 383 15 169 34 248 91 381 44 102 67
174 59 187 -13 21 -45 10 -51 -17z"/>
<path d="M0 21713 c0 -27 5 -31 53 -46 180 -57 300 -255 224 -368 -26 -39
-136 -117 -219 -157 -53 -25 -58 -30 -58 -59 0 -18 5 -33 11 -33 19 0 173 83
237 127 87 62 117 110 115 190 -4 154 -143 321 -298 357 -16 4 -38 9 -47 12
-14 4 -18 -1 -18 -23z"/>
<path d="M3468 21696 c-62 -22 -86 -44 -99 -86 -11 -35 -10 -42 6 -60 16 -18
17 -27 6 -89 -29 -181 8 -431 74 -488 18 -16 39 -23 67 -23 35 0 46 6 78 40
47 50 98 171 116 270 30 171 -44 403 -141 440 -35 13 -62 12 -107 -4z m120
-78 c45 -48 72 -116 84 -218 12 -106 -2 -180 -53 -284 -53 -105 -97 -137 -132
-98 -36 40 -48 93 -54 237 -6 153 3 236 37 315 10 25 21 53 24 63 9 29 58 21
94 -15z"/>
<path d="M6046 21702 c-3 -6 -16 -72 -28 -148 -18 -116 -22 -181 -23 -391 0
-250 0 -253 -22 -268 -29 -20 -29 -51 -2 -66 19 -9 26 -7 53 20 l31 31 1 248
c1 182 6 268 18 327 37 187 40 216 30 233 -12 19 -49 28 -58 14z"/>
<path d="M22231 21667 c-9 -11 -9 -41 -1 -123 11 -126 59 -672 63 -724 2 -30
6 -35 27 -35 46 0 47 30 12 352 -18 164 -33 332 -33 373 -1 119 -10 164 -35
168 -11 2 -26 -4 -33 -11z"/>
<path d="M5253 21629 c-70 -34 -125 -91 -161 -165 -18 -38 -42 -85 -51 -104
-29 -56 -34 -95 -18 -152 8 -29 18 -84 21 -121 4 -37 16 -93 27 -123 17 -46
24 -55 42 -52 24 3 35 41 19 61 -12 14 -27 87 -19 87 3 0 34 -19 69 -42 88
-59 150 -80 234 -82 78 -1 104 11 104 49 0 35 -25 51 -55 35 -63 -34 -224 16
-303 93 -56 54 -72 85 -72 142 0 62 10 77 80 120 102 62 190 87 313 91 59 2
112 6 117 9 36 22 -22 82 -137 141 -77 41 -144 45 -210 13z m177 -54 c15 -8
32 -20 39 -28 10 -13 4 -16 -41 -22 -77 -9 -154 -33 -220 -66 -65 -33 -68 -34
-68 -18 0 29 76 103 134 131 65 30 102 31 156 3z"/>
<path d="M10637 21632 c-19 -20 -52 -217 -62 -367 -8 -117 -24 -274 -36 -352
-11 -73 -5 -93 27 -93 28 0 30 9 38 125 14 203 39 411 63 533 20 96 24 138 17
149 -15 24 -28 26 -47 5z"/>
<path d="M24174 21616 c14 -75 -108 -660 -150 -721 -18 -25 -18 -40 2 -59 34
-35 84 -8 84 45 0 17 18 103 39 192 54 223 101 459 101 510 0 50 -13 67 -53
67 -28 0 -29 -2 -23 -34z"/>
<path d="M23361 21595 c-281 -98 -491 -369 -491 -635 0 -97 22 -160 71 -204
53 -48 80 -58 165 -58 81 1 126 16 235 80 104 60 181 119 268 205 94 92 141
154 183 242 28 60 33 81 33 146 0 73 -1 77 -36 116 -21 23 -40 50 -43 61 -4
11 -28 31 -54 44 -38 18 -67 23 -152 26 -92 2 -114 -1 -179 -23z m254 -35 c14
-6 -2 -9 -50 -9 -80 -1 -115 -18 -115 -57 0 -28 24 -32 54 -9 21 16 95 18 151
6 26 -6 30 -11 28 -38 -4 -41 20 -62 45 -39 60 54 56 -52 -7 -179 -91 -184
-364 -410 -558 -460 -146 -38 -232 31 -233 187 0 191 133 399 333 521 105 64
289 104 352 77z"/>
<path d="M7945 21560 c-35 -18 -45 -20 -77 -9 -57 18 -164 7 -225 -25 -125
-63 -186 -175 -163 -298 26 -133 120 -260 218 -292 63 -21 172 -22 230 -2 81
29 185 90 234 137 155 152 141 375 -30 475 -61 36 -135 42 -187 14z m155 -62
c85 -43 131 -167 100 -264 -28 -87 -130 -179 -249 -226 -80 -31 -200 -31 -257
-1 -110 58 -183 226 -144 328 16 43 99 123 143 139 92 32 149 27 128 -12 -15
-29 11 -57 40 -42 10 6 19 15 19 20 0 5 24 25 53 44 63 42 105 45 167 14z"/>
<path d="M9691 21439 c-71 -51 -191 -191 -228 -266 -30 -62 -36 -85 -41 -162
-6 -109 11 -164 65 -211 49 -43 77 -52 159 -53 135 -1 368 95 449 185 76 84
100 145 100 253 0 79 -4 97 -27 142 -55 104 -146 144 -326 140 -107 -2 -119
-4 -151 -28z m294 -40 c59 -16 100 -52 131 -114 23 -48 26 -64 21 -114 -6 -75
-50 -173 -94 -211 -45 -40 -126 -80 -243 -120 -148 -51 -233 -38 -294 44 -17
22 -21 42 -21 104 0 68 4 86 34 147 41 82 194 249 222 242 9 -3 41 4 70 14 62
21 117 24 174 8z"/>
<path d="M9079 21315 c-101 -75 -197 -146 -212 -158 l-29 -22 -68 71 c-37 40
-77 92 -88 117 -24 55 -57 77 -80 54 -13 -14 -12 -20 8 -59 32 -62 86 -130
136 -172 24 -21 44 -41 44 -45 0 -4 -28 -32 -62 -61 -70 -59 -176 -175 -188
-205 -14 -38 11 -72 43 -59 6 3 25 26 42 52 36 57 180 209 206 217 13 5 40
-12 94 -60 77 -67 98 -75 103 -38 2 15 -16 38 -64 81 -36 33 -65 65 -63 71 2
6 41 36 86 68 249 177 303 219 309 242 6 21 -7 40 -27 41 -4 0 -89 -61 -190
-135z"/>
<path d="M6739 21043 c-33 -36 -51 -83 -104 -273 -23 -85 -57 -195 -74 -245
-46 -128 -48 -145 -22 -145 34 0 54 48 146 345 57 185 65 205 102 246 25 28
34 45 31 66 -4 40 -45 43 -79 6z"/>
<path d="M7462 20781 c-46 -12 -74 -40 -70 -70 4 -34 46 -41 73 -11 24 27 110
27 191 1 92 -30 168 -41 288 -41 61 0 152 -5 201 -10 422 -48 743 -59 1010
-35 105 9 384 21 620 26 237 5 457 13 490 18 33 5 104 10 157 10 113 1 128 5
128 36 0 49 -12 49 -335 14 -49 -5 -277 -14 -505 -19 -228 -5 -464 -14 -525
-20 -123 -12 -487 -14 -634 -5 -53 4 -194 17 -313 31 -119 13 -266 24 -326 24
-89 0 -127 5 -198 26 -96 28 -199 38 -252 25z"/>
<path d="M21385 20435 c-155 -33 -354 -78 -390 -88 -29 -9 -40 -17 -40 -32 0
-33 43 -30 243 21 153 39 204 47 281 48 59 1 96 -3 98 -10 2 -6 -26 -45 -63
-88 -96 -113 -180 -229 -254 -351 -36 -59 -111 -180 -168 -268 -105 -166 -122
-201 -104 -219 21 -21 47 0 91 74 200 338 357 576 470 711 89 105 106 136 99
174 -7 40 -141 54 -263 28z"/>
<path d="M23315 20403 c-100 -14 -239 -74 -274 -120 -27 -34 -24 -67 7 -71 12
-2 22 -5 22 -8 0 -2 -16 -25 -36 -51 -88 -114 -140 -277 -132 -408 6 -91 31
-135 94 -166 104 -50 331 -3 518 108 96 57 212 169 245 237 83 172 -20 386
-219 455 -56 19 -171 32 -225 24z m214 -74 c60 -18 143 -96 178 -167 66 -136
9 -274 -160 -385 -108 -71 -231 -122 -342 -142 -189 -33 -245 8 -231 172 8 96
37 181 92 266 35 54 54 72 90 88 51 23 64 43 42 66 -13 12 -22 13 -58 3 -47
-13 -60 -7 -44 18 16 26 91 65 164 84 74 21 196 19 269 -3z"/>
<path d="M5290 20322 c-119 -48 -196 -126 -270 -275 -84 -165 -127 -310 -136
-457 -8 -111 -1 -123 69 -124 36 -1 42 2 45 21 2 14 -3 23 -17 28 -30 9 -34
38 -21 129 35 233 133 463 240 560 61 55 116 79 196 84 128 8 237 -43 297
-140 54 -87 23 -108 -228 -158 -228 -46 -339 -84 -351 -122 -7 -22 15 -58 59
-98 61 -55 336 -186 497 -236 118 -38 230 -27 230 21 0 11 -18 14 -82 13 -113
-2 -184 21 -413 132 -131 64 -213 126 -202 153 10 26 59 41 267 81 269 53 310
72 310 148 0 85 -80 175 -198 224 -89 36 -224 44 -292 16z"/>
<path d="M22390 20323 c-163 -26 -330 -73 -350 -99 -11 -12 -7 -21 25 -54 39
-40 79 -52 88 -27 2 6 1 19 -4 28 -5 11 -4 21 4 27 21 16 138 50 212 61 161
23 165 23 171 6 15 -39 -68 -160 -237 -346 -174 -192 -269 -307 -269 -328 0
-10 6 -23 13 -29 23 -19 94 -25 149 -12 140 32 469 154 511 188 45 38 -1 56
-71 26 -20 -8 -66 -24 -102 -34 -36 -10 -132 -39 -214 -64 -148 -46 -186 -54
-186 -37 0 4 37 48 83 97 240 258 379 431 398 494 14 45 -2 87 -36 100 -26 10
-134 11 -185 3z"/>
<path d="M4562 20308 c-5 -7 -18 -40 -27 -73 -22 -79 -48 -156 -78 -230 -14
-33 -41 -116 -61 -185 -40 -136 -80 -230 -96 -230 -15 0 -38 58 -57 139 -43
193 -94 385 -104 397 -15 18 -58 18 -65 0 -3 -8 6 -47 20 -86 15 -40 44 -145
67 -233 50 -201 58 -223 91 -259 70 -75 141 -3 190 189 11 45 66 206 118 348
20 52 36 108 57 194 8 34 -32 56 -55 29z"/>
<path d="M24450 20308 c-63 -4 -140 -6 -171 -3 -126 12 -339 -31 -399 -81 -24
-21 -30 -34 -30 -65 0 -60 50 -129 181 -249 153 -141 165 -155 151 -185 -24
-51 -150 -118 -248 -132 -41 -5 -46 -3 -80 32 -32 34 -37 36 -51 22 -35 -34
19 -111 87 -122 117 -20 334 90 359 182 14 51 -5 82 -113 183 -150 140 -215
209 -222 237 -9 33 30 71 94 92 38 13 44 13 55 -3 17 -23 34 -23 175 3 l124
23 38 -37 c45 -44 75 -44 75 0 1 26 5 30 40 38 22 5 117 6 210 3 175 -5 316
-28 471 -76 37 -11 75 -18 85 -15 27 9 31 33 6 49 -27 18 -192 61 -312 81 -89
15 -336 36 -385 34 -14 -1 -77 -6 -140 -11z"/>
<path d="M3735 20238 c-29 -34 -83 -138 -115 -220 -30 -76 -37 -214 -16 -298
30 -116 81 -165 174 -165 38 0 48 5 82 41 76 81 100 242 61 396 -27 103 -64
174 -102 193 -29 16 -30 17 -14 35 10 11 15 26 12 35 -11 26 -53 18 -82 -17z
m87 -141 c37 -47 63 -248 43 -337 -17 -77 -68 -149 -106 -150 -22 0 -64 48
-83 95 -26 62 -24 194 3 285 13 41 32 90 43 108 18 29 24 32 52 27 17 -4 39
-17 48 -28z"/>
<path d="M2830 20246 c-66 -36 -125 -209 -199 -583 -16 -82 -37 -177 -45 -213
-9 -36 -16 -80 -16 -97 0 -28 4 -33 24 -33 13 0 28 6 34 13 6 7 22 82 37 167
30 184 89 473 109 539 19 63 55 133 65 126 10 -5 23 -76 46 -240 19 -132 47
-247 69 -280 9 -14 28 -28 42 -31 52 -13 81 43 144 278 44 169 45 171 57 175
14 5 16 -3 42 -138 31 -156 54 -204 114 -236 31 -16 67 -9 67 12 0 8 -12 20
-27 27 -15 7 -38 31 -50 53 -27 49 -73 270 -73 351 0 102 -41 145 -79 83 -11
-17 -41 -98 -67 -178 -90 -282 -109 -334 -119 -338 -23 -7 -54 148 -85 426
-15 132 -29 150 -90 117z"/>
<path d="M6010 20149 c-59 -14 -78 -32 -60 -54 11 -13 24 -15 54 -11 78 12
281 18 315 9 84 -22 68 -58 -106 -244 -124 -132 -183 -214 -183 -255 0 -44 77
-89 176 -103 77 -11 124 -7 244 20 102 23 130 36 130 60 0 22 -22 35 -74 44
-33 7 -41 5 -56 -14 -41 -56 -297 -68 -340 -17 -20 25 24 90 144 214 182 189
213 239 181 288 -31 48 -92 66 -244 70 -75 2 -156 -1 -181 -7z"/>
<path d="M7872 20087 c-47 -18 -102 -65 -102 -87 0 -12 -21 -34 -57 -59 -186
-127 -329 -385 -282 -508 38 -102 181 -143 309 -90 125 53 267 169 319 261 55
98 74 171 75 288 1 116 -7 137 -67 182 -33 25 -144 32 -195 13z m174 -72 c55
-59 31 -252 -48 -385 -67 -113 -253 -238 -367 -247 -68 -5 -100 10 -124 57
-57 113 105 379 286 471 32 17 38 25 34 44 -5 31 23 58 83 78 56 19 109 12
136 -18z"/>
<path d="M9453 20060 c-29 -17 -62 -44 -75 -60 -13 -18 -37 -34 -59 -40 -20
-6 -43 -17 -50 -26 -11 -14 -10 -19 10 -33 l23 -18 -18 -59 c-27 -89 -26 -246
3 -300 45 -85 140 -130 256 -122 122 9 213 64 263 161 28 53 23 163 -10 231
-48 99 -160 174 -262 177 -16 0 -38 4 -49 9 -17 7 -14 11 28 29 37 16 47 25
47 45 0 22 -16 36 -43 36 -7 0 -36 -14 -64 -30z m66 -140 c163 -27 254 -131
238 -272 -13 -107 -96 -174 -225 -184 -57 -5 -74 -2 -111 18 -73 38 -86 64
-85 171 0 89 12 146 48 229 22 51 32 54 135 38z"/>
<path d="M10345 20067 c-59 -20 -83 -35 -90 -56 -4 -13 -27 -27 -67 -40 -197
-67 -121 -178 199 -296 100 -37 136 -63 147 -107 19 -77 -74 -158 -182 -158
-28 0 -63 5 -77 12 -18 8 -29 8 -36 1 -20 -20 9 -52 63 -68 132 -39 308 62
308 177 0 97 -66 152 -260 218 -122 41 -178 73 -186 107 -5 19 -2 30 10 39 19
14 213 77 286 93 90 20 232 9 430 -34 142 -31 186 -37 360 -45 96 -5 184 -10
195 -12 27 -4 33 43 8 67 -16 16 -32 17 -169 12 -167 -7 -204 -3 -489 58 -196
42 -381 55 -450 32z"/>
<path d="M0 20005 c0 -19 5 -25 21 -25 11 0 45 -7 75 -16 43 -12 52 -19 46
-30 -9 -16 -119 -94 -133 -94 -5 0 -9 -16 -9 -35 0 -19 2 -35 5 -35 8 0 188
111 223 137 62 46 32 74 -110 103 -118 25 -118 25 -118 -5z"/>
<path d="M8535 19916 c-15 -11 -17 -22 -12 -73 4 -33 18 -92 32 -130 14 -39
25 -77 25 -84 0 -8 -47 -47 -104 -87 -169 -119 -255 -225 -200 -246 31 -12 42
-5 83 48 23 30 89 91 147 136 l104 82 73 -68 c78 -74 193 -157 211 -151 6 2
12 12 13 23 2 14 -20 35 -83 78 -94 66 -157 129 -152 153 2 9 49 48 104 87
171 120 215 156 212 174 -2 10 -14 18 -29 20 -20 2 -51 -16 -128 -75 -192
-148 -181 -140 -196 -120 -13 18 -31 111 -37 186 -4 44 -35 68 -63 47z"/>
<path d="M7047 19607 c-12 -12 -70 -76 -130 -143 -243 -273 -332 -429 -275
-486 26 -26 38 -14 55 53 26 103 117 227 303 415 123 123 140 153 101 174 -27
14 -29 13 -54 -13z"/>
<path d="M10511 19284 c-59 -18 -247 -34 -413 -34 -76 0 -213 -7 -305 -16 -93
-9 -274 -17 -403 -19 -129 -1 -356 -6 -503 -10 -359 -11 -925 19 -1058 56 -52
14 -75 17 -89 9 -22 -12 -27 -45 -9 -55 41 -26 313 -65 454 -65 49 0 171 -7
269 -14 132 -10 235 -12 395 -5 119 5 344 11 501 13 157 3 366 12 465 20 99 9
241 16 315 16 177 0 339 16 422 40 69 21 82 33 66 63 -10 20 -45 21 -107 1z"/>
<path d="M22435 18979 c-143 -13 -267 -29 -302 -40 -32 -10 -50 -39 -38 -59 8
-13 58 -13 110 0 33 8 420 60 447 60 4 0 8 -4 8 -9 0 -13 -70 -56 -214 -132
-72 -38 -137 -77 -143 -86 -38 -51 6 -98 129 -138 171 -56 308 -151 308 -214
0 -33 -46 -80 -135 -136 -56 -36 -647 -338 -684 -350 -17 -5 -21 -2 -21 15 0
37 38 96 115 178 94 100 100 125 17 83 -53 -27 -148 -131 -177 -193 -27 -57
-33 -126 -13 -146 31 -31 81 -13 412 148 181 88 358 180 395 204 126 81 172
151 151 228 -22 78 -182 191 -336 237 -39 11 -77 27 -83 35 -14 16 -20 12 204
134 72 39 141 82 153 95 29 31 26 67 -8 84 -28 14 -153 15 -295 2z"/>
<path d="M5616 18931 c-106 -43 -151 -91 -227 -241 -51 -102 -74 -186 -95
-345 -29 -223 -29 -225 15 -225 16 0 33 6 38 13 6 6 13 57 16 112 22 382 137
616 319 649 43 8 115 -7 136 -28 24 -24 2 -41 -143 -112 -72 -35 -140 -72
-149 -83 -25 -28 -23 -97 5 -158 28 -60 161 -194 249 -251 79 -51 151 -74 222
-70 46 3 53 6 56 26 2 12 0 22 -5 23 -4 0 -33 2 -63 4 -72 5 -120 26 -202 87
-107 79 -190 184 -208 263 -10 45 -1 52 141 115 176 78 222 126 166 178 -59
55 -189 76 -271 43z"/>
<path d="M23357 18916 c-199 -84 -333 -219 -379 -385 -30 -109 -19 -190 35
-249 77 -84 236 -89 407 -13 198 88 353 212 405 323 57 123 15 261 -99 321
-35 18 -60 22 -176 24 -124 3 -140 2 -193 -21z m339 -59 c43 -22 81 -70 94
-116 36 -133 -87 -269 -355 -393 -163 -76 -320 -78 -382 -4 -23 28 -25 36 -21
103 9 130 84 247 218 339 l70 48 22 -22 c27 -24 70 -42 104 -42 32 0 31 25 -1
46 -14 9 -25 20 -25 24 0 15 58 31 91 25 22 -4 44 -1 62 8 31 16 71 11 123
-16z"/>
<path d="M24326 18931 c-3 -4 -14 -105 -25 -222 -11 -118 -26 -232 -34 -254
-8 -22 -38 -87 -66 -144 -29 -57 -50 -109 -47 -117 3 -8 16 -14 30 -14 21 0
32 15 81 115 63 128 73 169 104 440 13 112 16 175 10 187 -10 19 -44 24 -53 9z"/>
<path d="M6520 18863 c-180 -29 -307 -69 -338 -106 -13 -15 -7 -47 8 -47 5 0
15 -2 22 -5 8 -3 35 8 60 25 69 45 325 105 303 70 -3 -5 -52 -45 -109 -89 -57
-44 -111 -92 -121 -107 -35 -53 3 -84 190 -157 166 -64 265 -121 265 -153 0
-36 -124 -98 -276 -140 -84 -23 -111 -26 -181 -21 -88 6 -107 -1 -78 -33 18
-19 86 -40 133 -40 57 0 259 58 344 99 91 43 138 86 138 127 0 54 -151 155
-328 218 -94 33 -132 53 -132 69 0 18 48 61 156 140 101 74 121 102 98 136
-13 18 -25 21 -72 20 -31 -1 -68 -4 -82 -6z"/>
<path d="M21396 18835 c-61 -13 -171 -34 -245 -45 -304 -47 -394 -64 -415 -81
-20 -17 -20 -19 -4 -35 17 -17 25 -17 180 14 90 17 219 41 288 52 69 12 154
28 190 36 101 24 158 32 171 23 20 -12 -31 -86 -138 -204 -180 -198 -284 -338
-357 -482 -41 -82 -47 -128 -16 -138 28 -9 59 11 66 43 27 110 177 332 365
538 149 163 183 228 145 279 -20 28 -103 28 -230 0z"/>
<path d="M2828 18833 c-8 -10 -19 -27 -23 -38 -4 -11 -12 -162 -17 -335 -5
-173 -10 -340 -11 -370 -2 -50 0 -55 21 -58 51 -8 52 -4 52 340 0 175 4 317 8
314 5 -3 16 -38 25 -78 9 -40 37 -167 62 -283 60 -272 70 -303 101 -311 13 -3
31 -1 39 6 24 20 82 239 116 435 20 121 49 205 69 205 6 0 15 -12 21 -27 15
-40 64 -242 84 -348 10 -49 23 -105 31 -123 15 -38 55 -57 85 -42 25 14 24 25
-3 50 -17 15 -30 58 -58 192 -67 314 -96 398 -139 398 -22 0 -74 -54 -101
-107 -11 -22 -37 -115 -56 -205 -54 -252 -78 -322 -98 -290 -9 14 -87 410
-102 516 -8 55 -22 116 -31 135 -20 41 -51 51 -75 24z"/>
<path d="M4783 18838 c-23 -28 -84 -149 -133 -263 -100 -231 -182 -385 -205
-385 -39 0 -77 159 -91 380 -4 62 -12 114 -20 128 -14 22 -57 31 -68 13 -8
-13 32 -303 55 -400 47 -194 117 -259 189 -173 33 40 180 331 180 357 0 4 34
77 77 162 59 120 74 159 66 172 -13 21 -37 25 -50 9z"/>
<path d="M7900 18715 c-85 -31 -101 -40 -150 -94 -100 -107 -161 -269 -163
-431 -1 -63 3 -93 16 -117 44 -82 158 -127 264 -105 57 12 195 89 250 140 49
46 99 131 124 213 19 58 24 98 24 185 0 103 -2 113 -27 151 -34 52 -96 82
-179 88 -55 4 -78 0 -159 -30z m242 -50 c49 -33 62 -76 55 -184 -10 -173 -78
-299 -209 -391 -150 -105 -266 -103 -319 7 -18 38 -21 54 -15 111 10 99 24
148 67 239 51 108 93 157 127 148 20 -5 33 2 63 31 49 48 81 62 144 63 38 1
59 -5 87 -24z"/>
<path d="M9440 18710 c-31 -4 -67 -13 -80 -20 -38 -19 -90 -72 -90 -91 0 -9
-14 -34 -31 -55 -41 -52 -57 -93 -76 -189 -27 -143 -6 -243 66 -308 53 -48
103 -73 177 -87 75 -15 152 2 253 55 91 48 131 83 166 146 29 51 30 59 29 169
-1 130 -19 196 -75 263 -74 89 -204 134 -339 117z m157 -64 c110 -29 175 -116
193 -258 11 -93 1 -163 -35 -224 -30 -52 -70 -83 -150 -121 -51 -24 -73 -28
-145 -28 -101 0 -147 19 -192 81 -79 109 -41 350 66 426 46 32 58 62 35 85 -8
8 -5 14 12 23 59 32 134 38 216 16z"/>
<path d="M3822 18697 c-12 -7 -29 -23 -38 -35 -8 -12 -26 -22 -39 -22 -33 0
-39 -13 -46 -105 -8 -92 18 -279 51 -372 36 -103 100 -146 183 -121 55 17 101
65 127 135 20 51 22 71 17 173 -4 82 -12 133 -27 178 -27 76 -76 152 -110 169
-32 16 -88 16 -118 0z m95 -69 c40 -43 52 -68 74 -153 23 -88 24 -215 3 -278
-20 -58 -76 -111 -107 -101 -12 3 -27 11 -34 16 -41 32 -82 213 -83 361 l0 98
47 44 c26 25 52 45 58 45 6 0 25 -15 42 -32z"/>
<path d="M10467 18673 c-14 -27 -77 -282 -93 -373 -4 -25 -8 -99 -8 -165 l-1
-120 -55 -7 c-494 -63 -980 -79 -2160 -68 -522 5 -550 3 -550 -35 0 -32 26
-41 91 -35 35 4 237 3 449 -1 760 -14 1638 5 1897 40 37 5 114 13 170 17 l102
6 38 -31 c20 -17 41 -31 45 -31 4 0 16 17 25 38 16 33 23 38 63 42 33 4 46 10
48 23 6 29 -17 47 -59 47 l-39 0 0 108 c0 130 17 226 66 363 42 119 52 173 34
194 -19 23 -48 18 -63 -12z"/>
<path d="M0 18606 c0 -22 8 -25 108 -49 127 -30 273 -82 304 -107 l22 -17 -45
-33 c-49 -36 -152 -90 -171 -90 -6 0 -23 11 -37 24 -21 20 -165 106 -177 106
-2 0 -4 -13 -4 -28 0 -20 7 -33 25 -42 28 -15 23 -34 -6 -25 -15 5 -19 1 -19
-19 0 -23 4 -25 68 -31 104 -10 105 -13 15 -58 -74 -36 -83 -43 -83 -68 l0
-28 183 83 c193 87 336 171 337 196 1 60 -144 131 -380 185 -135 31 -140 31
-140 1z"/>
<path d="M8953 18510 c-18 -10 -60 -34 -95 -53 -203 -110 -237 -127 -246 -127
-5 0 -31 41 -57 90 -50 94 -78 117 -110 90 -24 -20 -18 -39 45 -127 33 -46 60
-87 60 -92 0 -5 -12 -17 -27 -27 -71 -46 -153 -139 -153 -173 0 -16 39 -33 60
-26 11 4 33 26 50 50 41 60 88 105 110 105 11 0 31 -20 50 -49 40 -63 174
-191 199 -191 40 0 32 24 -31 89 -73 74 -158 177 -158 191 0 5 37 30 83 55
168 93 282 163 292 179 7 12 6 19 -5 26 -21 14 -31 12 -67 -10z"/>
<path d="M7145 18310 c-3 -5 -13 -36 -21 -67 -21 -83 -52 -145 -127 -256 -85
-127 -142 -239 -134 -260 3 -9 15 -17 26 -17 22 0 26 6 85 110 20 36 66 107
102 159 130 189 171 290 132 329 -14 14 -54 16 -63 2z"/>
<path d="M6134 17720 c-263 -52 -348 -364 -243 -885 24 -115 40 -148 72 -143
28 4 28 44 -1 150 -51 187 -68 459 -36 581 18 72 36 108 77 160 99 127 344
123 482 -8 37 -34 37 -36 21 -54 -10 -11 -66 -41 -124 -66 -113 -49 -265 -131
-319 -172 -47 -35 -45 -71 8 -124 29 -29 96 -68 252 -143 264 -129 282 -135
303 -114 32 32 9 53 -124 113 -298 135 -385 184 -390 220 -4 26 67 65 260 145
163 68 208 103 208 159 0 28 -9 43 -44 76 -98 94 -253 134 -402 105z"/>
<path d="M8685 17677 c-123 -51 -194 -142 -236 -305 -25 -99 -24 -217 2 -345
30 -142 54 -205 84 -213 50 -13 57 19 24 106 -77 202 -76 423 2 570 58 109
172 165 263 130 38 -14 116 -90 116 -112 0 -26 -42 -63 -104 -92 -28 -13 -82
-38 -119 -55 -72 -34 -83 -46 -73 -85 18 -71 181 -228 300 -288 22 -11 64 -36
93 -55 55 -37 89 -40 107 -10 17 27 -2 48 -95 97 -112 59 -149 83 -212 136
-54 46 -107 110 -107 128 0 6 44 31 97 56 152 69 208 142 169 218 -48 93 -217
158 -311 119z"/>
<path d="M7481 17584 c-18 -23 -51 -111 -51 -136 0 -18 -68 -115 -106 -152
-94 -91 -236 -128 -301 -80 -15 12 -29 30 -31 42 -2 11 20 68 49 127 55 116
66 167 36 173 -26 5 -44 -13 -63 -66 -9 -26 -34 -85 -55 -130 -57 -123 -50
-171 30 -212 104 -52 209 -33 319 60 78 65 95 72 88 38 -8 -37 -34 -218 -41
-279 -7 -62 6 -83 47 -77 22 3 23 8 29 103 7 112 54 401 74 455 7 19 21 56 31
81 10 25 15 53 11 62 -10 25 -43 21 -66 -9z"/>
<path d="M4630 17590 c-45 -8 -72 -23 -121 -67 -103 -93 -143 -325 -104 -601
25 -176 56 -262 96 -262 32 0 34 27 6 108 -42 125 -51 188 -52 357 0 140 3
169 23 235 20 63 32 83 76 126 29 29 65 54 82 57 69 13 225 -48 265 -104 28
-39 24 -69 -19 -135 -46 -71 -128 -145 -199 -180 -90 -44 -78 -88 19 -72 87
14 296 -10 413 -49 70 -23 127 -60 123 -81 -8 -40 -168 -99 -363 -132 -126
-22 -164 -41 -151 -76 6 -14 16 -16 74 -11 149 14 364 72 438 117 80 50 98
118 42 166 -72 60 -204 104 -368 124 -52 6 -96 13 -99 15 -2 3 25 35 61 72 76
79 111 141 110 196 -1 49 -20 78 -80 122 -76 56 -194 88 -272 75z"/>
<path d="M24170 17536 c0 -7 12 -40 27 -72 25 -54 28 -72 31 -196 6 -232 -31
-449 -130 -762 -38 -120 -57 -197 -54 -212 11 -41 66 -24 66 20 0 11 18 73 40
137 89 262 141 550 142 784 0 154 -19 244 -63 291 -25 26 -59 32 -59 10z"/>
<path d="M20920 17515 c-7 -9 -10 -28 -6 -52 9 -52 -21 -933 -35 -1059 -7 -55
-9 -108 -6 -118 9 -22 44 -20 56 2 12 23 24 196 53 759 21 430 21 443 3 463
-21 24 -48 26 -65 5z"/>
<path d="M3136 17504 c-96 -23 -182 -70 -256 -141 -124 -116 -151 -197 -88
-268 61 -71 128 -90 368 -105 266 -17 454 -73 513 -152 l20 -26 -27 -45 c-72
-125 -359 -307 -480 -307 -17 0 -51 11 -74 25 -24 14 -48 22 -53 19 -18 -11
-9 -46 19 -74 36 -35 104 -48 175 -31 166 38 426 233 472 354 10 26 21 47 26
47 4 0 16 -25 25 -55 34 -105 127 -185 218 -185 32 0 62 7 82 19 69 42 132
149 175 298 22 78 41 264 37 358 -3 62 -5 70 -23 70 -18 0 -21 -9 -26 -100
-10 -153 -40 -293 -87 -400 -55 -128 -116 -184 -184 -171 -46 8 -113 67 -142
125 -36 70 -65 227 -70 383 -2 75 -7 141 -11 147 -9 16 -40 13 -54 -3 -10 -11
-9 -47 4 -158 8 -79 20 -160 25 -179 20 -67 15 -73 -32 -41 -130 88 -261 123
-553 146 -186 14 -240 30 -288 82 -39 42 -34 71 21 139 62 77 130 128 217 162
61 24 84 28 180 28 96 0 116 -3 156 -24 70 -35 115 -16 67 28 -52 49 -224 66
-352 35z"/>
<path d="M10720 17444 c-54 -20 -127 -71 -156 -111 -86 -116 -180 -457 -199
-718 -7 -107 3 -145 39 -145 39 0 48 21 41 97 -9 83 23 348 51 431 2 9 38 -18
96 -71 51 -46 131 -119 178 -162 122 -112 189 -136 243 -88 30 28 21 43 -26
43 -51 0 -63 7 -198 129 -58 53 -131 118 -162 144 -85 72 -82 78 76 128 72 23
155 53 182 66 96 49 155 110 155 161 0 22 -42 63 -90 88 -49 25 -172 29 -230
8z m193 -57 c55 -23 62 -40 31 -76 -14 -17 -45 -42 -68 -56 -44 -26 -328 -126
-336 -119 -7 7 17 62 52 122 68 114 215 173 321 129z"/>
<path d="M11376 17438 c-7 -13 -16 -45 -20 -73 -6 -52 -37 -187 -108 -484 -41
-169 -42 -173 -23 -187 30 -22 54 -17 61 14 4 15 15 59 25 97 10 39 30 124 43
190 14 66 41 183 60 261 42 163 42 166 18 187 -25 23 -39 21 -56 -5z"/>
<path d="M9530 17386 c-160 -56 -228 -115 -170 -146 17 -9 29 -6 68 18 26 16
70 39 97 52 61 27 168 38 190 20 24 -20 18 -72 -14 -121 -27 -43 -59 -73 -230
-221 -94 -80 -119 -113 -105 -136 36 -57 154 -89 290 -78 45 3 95 11 111 17
40 15 73 49 73 75 0 29 -25 37 -58 20 -71 -37 -256 -46 -312 -16 -27 15 -22
22 84 104 99 77 208 191 237 248 75 147 -63 235 -261 164z"/>
<path d="M22177 17367 c-18 -12 -41 -135 -97 -497 -12 -80 -29 -167 -37 -194
l-16 -49 -131 6 c-223 10 -316 53 -302 141 16 96 97 279 175 396 49 72 53 86
35 105 -19 19 -48 19 -66 1 -8 -8 -53 -92 -100 -187 -152 -307 -156 -404 -18
-471 66 -32 152 -48 284 -53 53 -1 99 -5 101 -7 2 -2 -7 -44 -20 -93 -29 -103
-31 -147 -10 -165 37 -31 74 13 76 90 0 25 8 74 17 110 l18 65 76 26 c41 14
88 33 103 43 47 31 73 129 40 156 -22 18 -42 6 -49 -33 -9 -47 -82 -107 -131
-107 -19 0 -19 -13 9 116 14 60 34 172 46 249 11 77 31 184 42 239 21 96 21
99 3 112 -23 17 -27 17 -48 1z"/>
<path d="M23175 17325 c-122 -23 -248 -69 -356 -130 -103 -58 -116 -76 -83
-109 21 -21 21 -21 84 19 154 98 307 152 457 162 96 6 146 -5 157 -34 10 -24
-12 -90 -61 -187 -74 -147 -137 -230 -304 -401 -108 -110 -159 -169 -159 -184
0 -33 45 -69 97 -77 60 -9 230 9 433 46 91 16 181 30 201 30 43 0 64 20 55 54
-8 31 -35 40 -83 26 -77 -22 -401 -72 -500 -77 -80 -5 -103 -3 -103 7 0 7 58
69 128 139 132 130 167 176 266 345 80 136 96 173 96 232 0 120 -128 175 -325
139z"/>
<path d="M0 17088 l0 -53 96 -44 c92 -43 184 -103 184 -120 0 -11 -99 -30
-198 -38 -79 -6 -82 -7 -82 -31 0 -24 2 -25 55 -19 65 7 63 -2 -5 -39 -42 -23
-50 -32 -50 -56 0 -15 2 -28 4 -28 2 0 31 15 65 34 33 19 98 51 143 72 131 58
310 151 343 178 l30 24 -21 29 c-47 65 -200 109 -439 128 -44 3 -90 8 -102 11
-22 4 -23 1 -23 -48z m221 -28 c163 -22 203 -32 239 -59 l24 -19 -24 -21 c-14
-11 -43 -30 -65 -42 l-41 -22 -69 48 c-39 26 -105 65 -149 86 -120 58 -122 58
85 29z"/>
<path d="M8007 17096 c-8 -8 -17 -33 -21 -56 -3 -22 -24 -87 -46 -144 -21 -57
-51 -149 -65 -205 -14 -56 -34 -124 -45 -152 -35 -89 -21 -125 37 -97 21 10
30 24 36 53 22 103 72 286 94 345 80 212 86 242 54 260 -25 13 -27 13 -44 -4z"/>
<path d="M9961 16771 c-10 -10 -27 -43 -36 -72 -23 -70 -96 -213 -136 -266
-56 -74 -5 -104 60 -35 35 37 182 306 189 346 4 20 -22 46 -45 46 -7 0 -21 -8
-32 -19z"/>
<path d="M3839 15868 c-20 -38 -23 -351 -5 -508 32 -268 41 -435 28 -513 -31
-186 -152 -325 -392 -449 -155 -81 -392 -93 -492 -24 -31 21 -33 26 -31 74 3
59 -12 68 -47 30 -25 -27 -27 -93 -4 -126 21 -31 78 -58 173 -82 74 -19 90
-20 179 -10 227 27 510 201 607 374 84 150 92 226 59 551 -27 262 -36 567 -18
585 8 8 21 -1 48 -34 23 -29 42 -43 51 -39 26 9 17 35 -40 109 -69 90 -94 103
-116 62z"/>
<path d="M7542 15811 c-123 -46 -216 -160 -257 -316 -26 -99 -38 -259 -31
-418 13 -326 97 -539 200 -513 41 10 36 52 -9 73 -51 24 -79 90 -115 272 -26
132 -27 176 -2 167 9 -3 148 -50 307 -104 160 -54 349 -122 422 -150 140 -55
163 -59 203 -39 40 20 31 41 -21 48 -25 4 -142 45 -260 92 -118 47 -297 113
-399 147 -102 34 -189 67 -195 72 -13 12 4 24 120 90 146 82 346 216 398 266
61 59 77 89 77 144 0 53 -24 92 -81 130 -58 39 -99 50 -209 54 -77 4 -105 1
-148 -15z m252 -61 c60 -23 126 -86 126 -121 0 -38 -104 -125 -310 -261 -252
-165 -273 -178 -295 -178 -14 0 -16 7 -11 38 3 20 8 64 11 97 10 90 42 211 75
275 35 70 107 135 169 154 69 22 170 20 235 -4z"/>
<path d="M4360 15750 c-99 -10 -180 -51 -180 -90 0 -30 29 -31 75 -4 78 46
279 43 465 -7 142 -38 231 -116 215 -189 -15 -68 -137 -252 -271 -409 -200
-235 -304 -397 -304 -475 0 -41 40 -79 103 -98 69 -21 563 -17 703 6 114 18
189 49 189 76 0 20 -45 19 -170 -5 -82 -15 -150 -19 -370 -19 -281 -1 -329 4
-376 43 l-22 18 36 64 c37 68 143 212 247 339 112 135 234 304 264 363 54 107
45 188 -26 252 -69 63 -182 103 -343 124 -128 16 -166 18 -235 11z"/>
<path d="M8242 15668 c-73 -107 -112 -231 -112 -358 0 -132 45 -214 143 -264
110 -55 221 -69 327 -41 30 8 56 12 59 10 7 -8 -77 -415 -104 -507 -18 -59
-22 -85 -14 -99 11 -22 19 -23 41 -6 22 16 45 107 133 536 19 90 41 171 48
180 16 18 57 108 57 124 0 5 -9 2 -20 -8 -11 -10 -23 -15 -27 -12 -9 9 34 274
54 334 20 61 31 74 57 71 15 -2 22 3 24 18 4 27 -41 58 -72 50 -54 -13 -103
-172 -131 -426 -15 -136 -18 -146 -43 -167 -66 -55 -217 -52 -338 7 -102 49
-141 132 -123 258 14 102 39 171 87 241 47 68 48 93 4 99 -14 2 -29 -9 -50
-40z"/>
<path d="M21070 15615 c-231 -62 -440 -217 -440 -327 0 -39 50 -129 97 -173
24 -23 43 -44 43 -47 0 -3 -20 -42 -45 -86 -127 -226 -181 -438 -143 -566 8
-27 32 -60 68 -97 46 -46 66 -58 119 -73 111 -31 223 -1 351 94 127 94 198
218 187 325 -7 66 -31 113 -107 209 -67 85 -133 133 -254 186 -44 20 -76 40
-76 48 0 15 73 120 145 206 91 111 256 234 330 246 39 7 44 34 10 56 -46 30
-171 29 -285 -1z m150 -29 c0 -2 -33 -29 -74 -60 -102 -78 -193 -177 -267
-290 -35 -53 -68 -96 -74 -96 -26 0 -88 86 -99 137 -18 83 103 195 287 265 80
31 227 59 227 44z m-287 -582 c104 -52 153 -91 204 -159 103 -137 121 -217 68
-314 -38 -68 -131 -153 -215 -194 -123 -61 -246 -37 -315 61 -29 42 -30 48
-29 140 0 116 23 191 114 380 47 98 63 122 80 122 11 0 53 -16 93 -36z"/>
<path d="M21956 15598 c-19 -24 -63 -77 -97 -118 -68 -83 -89 -123 -89 -172 0
-97 54 -170 167 -224 65 -32 87 -37 162 -40 l86 -4 -1 -32 c0 -18 -8 -75 -17
-127 -23 -126 -23 -303 -1 -326 26 -25 65 -15 91 24 13 19 23 37 23 42 0 16
-31 38 -45 33 -23 -9 -19 79 10 253 l25 148 40 35 c47 41 54 75 14 67 -25 -4
-26 -4 -20 37 9 57 80 334 97 374 25 60 -32 100 -67 47 -19 -29 -60 -190 -94
-370 -13 -66 -28 -126 -34 -134 -8 -10 -27 -12 -71 -8 -142 12 -266 95 -280
188 -5 31 -3 55 6 70 18 35 159 199 170 199 5 0 14 11 21 25 8 19 8 28 -2 40
-23 28 -57 18 -94 -27z"/>
<path d="M6085 15594 c-168 -25 -195 -34 -195 -70 0 -31 46 -35 138 -12 71 18
113 22 232 21 86 -1 173 -7 214 -16 78 -17 98 -14 94 17 -6 39 -90 58 -283 61
-93 2 -183 1 -200 -1z"/>
<path d="M10565 15533 c-236 -85 -494 -341 -602 -596 -48 -113 -66 -210 -61
-322 7 -171 69 -236 230 -244 171 -7 369 75 673 278 144 97 274 235 329 351
29 61 31 72 31 175 0 103 -2 114 -32 175 -38 78 -106 138 -191 171 -82 31
-305 38 -377 12z m250 -62 c58 5 88 0 139 -25 97 -48 145 -141 148 -289 1 -62
-3 -81 -30 -137 -78 -162 -245 -305 -543 -464 -151 -80 -234 -107 -349 -113
-85 -4 -100 -2 -140 19 -62 32 -80 71 -80 173 0 186 93 399 246 564 66 72 186
177 233 204 l31 18 -2 -32 c-4 -48 24 -50 52 -4 37 61 125 97 215 89 33 -3 69
-4 80 -3z"/>
<path d="M23972 15514 c-70 -18 -163 -64 -176 -86 -19 -32 5 -49 149 -108 163
-66 185 -77 185 -92 0 -6 -23 -44 -50 -84 -56 -81 -104 -187 -115 -251 -4 -23
-1 -68 5 -100 10 -50 19 -65 65 -110 43 -42 66 -55 122 -72 104 -30 204 -36
298 -16 229 47 253 121 109 335 -57 85 -184 216 -242 250 -24 14 -53 33 -65
43 l-22 17 59 56 c68 65 120 100 160 110 31 7 31 9 10 -94 -6 -32 -5 -33 22
-30 23 2 34 13 52 48 24 48 23 81 -5 112 -58 65 -418 111 -561 72z m396 -59
c4 -3 -7 -16 -23 -28 -17 -12 -60 -50 -98 -86 l-68 -65 -37 14 c-79 28 -243
113 -239 124 2 6 28 21 58 34 51 22 64 23 227 19 95 -3 176 -8 180 -12z m-13
-380 c123 -121 225 -276 225 -342 0 -42 -119 -83 -240 -83 -117 0 -209 31
-265 89 -25 27 -30 41 -33 99 -5 83 20 151 102 277 l56 86 32 -18 c18 -10 73
-58 123 -108z"/>
<path d="M5612 15468 c-30 -15 -77 -114 -103 -221 -19 -79 -24 -88 -48 -93
-69 -15 -76 -20 -76 -50 0 -27 3 -29 40 -30 37 0 40 -3 43 -30 1 -16 -11 -98
-28 -183 -37 -188 -38 -236 -7 -282 30 -45 106 -85 192 -101 96 -17 398 -14
495 5 116 23 188 55 242 105 77 71 58 99 -27 41 -115 -78 -323 -112 -562 -91
-76 6 -160 18 -187 26 -53 16 -116 69 -116 97 0 9 9 61 20 116 11 54 25 143
30 197 5 55 13 103 17 107 15 15 139 28 353 39 231 12 428 33 460 50 11 6 20
20 20 32 0 23 28 23 -300 -2 -63 -5 -159 -10 -212 -10 -54 0 -143 -5 -198 -11
-55 -7 -103 -9 -107 -5 -10 10 13 87 48 161 21 45 40 70 60 80 33 18 37 40 10
55 -24 12 -29 12 -59 -2z"/>
<path d="M23213 15470 c-65 -12 -152 -44 -194 -73 -65 -44 -100 -124 -63 -145
13 -7 6 -21 -42 -88 -58 -80 -105 -174 -140 -274 -13 -39 -19 -84 -19 -155 0
-85 3 -107 24 -148 28 -59 77 -93 153 -109 49 -10 66 -9 135 10 92 24 170 67
300 164 113 84 184 162 226 248 30 62 31 70 32 190 0 107 -3 134 -23 186 -32
83 -71 127 -147 165 -71 35 -152 45 -242 29z m174 -56 c63 -21 109 -57 132
-102 51 -99 55 -296 8 -395 -49 -107 -242 -269 -407 -342 -127 -57 -240 -35
-277 54 -40 95 -4 276 83 425 85 146 254 296 331 296 28 0 40 24 23 45 -30 36
-121 4 -221 -79 -31 -25 -59 -46 -62 -46 -17 0 20 64 49 86 90 69 235 94 341
58z"/>
<path d="M1228 15431 c-77 -7 -114 -30 -88 -55 8 -8 85 -26 170 -41 257 -43
390 -77 390 -99 0 -43 -394 -142 -815 -207 -112 -17 -213 -22 -510 -29 -203
-4 -371 -8 -372 -9 -2 0 -3 -14 -3 -29 l0 -28 313 3 c345 4 462 12 677 49 308
52 535 107 668 160 133 54 155 79 109 122 -28 26 -81 49 -148 63 -102 22 -38
19 107 -5 175 -30 214 -40 245 -65 l23 -18 -20 -30 c-45 -71 -143 -131 -369
-228 -137 -58 -165 -75 -165 -97 0 -27 27 -22 152 28 221 89 335 150 404 217
55 54 64 68 64 97 0 41 -22 71 -68 94 -35 18 -380 78 -552 96 -58 6 -114 12
-125 14 -11 1 -50 0 -87 -3z"/>
<path d="M13548 15275 c-86 -23 -178 -91 -178 -131 0 -12 78 -82 160 -145 39
-29 42 -18 -31 -114 -44 -59 -94 -163 -109 -222 -27 -115 33 -216 156 -263
134 -52 458 -29 537 38 45 39 8 143 -89 252 -57 64 -244 227 -296 258 -16 9
-28 21 -28 27 0 14 150 131 213 166 64 36 84 36 133 3 46 -31 92 -36 107 -12
9 13 7 22 -8 39 -28 31 -147 84 -232 103 -86 19 -267 20 -335 1z m305 -62 c4
-3 -25 -27 -65 -55 -40 -28 -96 -70 -123 -93 -59 -50 -62 -49 -145 29 -41 38
-51 53 -43 65 17 26 80 52 150 61 64 7 209 3 226 -7z m-103 -391 c173 -148
280 -272 280 -326 0 -27 -79 -47 -210 -53 -149 -6 -230 6 -284 45 -94 66 -103
125 -37 256 47 93 105 176 124 176 7 0 64 -44 127 -98z"/>
<path d="M12660 15255 c-59 -18 -93 -53 -88 -91 2 -23 8 -29 28 -29 18 0 26 6
28 22 4 27 19 39 57 49 26 6 13 -11 -86 -112 -133 -137 -174 -192 -223 -294
-42 -88 -53 -146 -36 -204 26 -95 114 -157 251 -177 96 -14 211 6 349 60 131
51 201 99 257 178 72 102 97 200 73 290 -42 155 -146 259 -309 307 -68 20
-237 20 -301 1z m275 -57 c163 -41 280 -178 279 -328 0 -81 -31 -146 -105
-219 -120 -119 -398 -194 -555 -152 -92 25 -159 102 -150 174 15 127 202 370
391 508 52 38 55 38 140 17z"/>
<path d="M12205 15136 c-97 -54 -423 -254 -510 -312 l-80 -54 -48 48 c-64 63
-97 131 -97 200 0 66 -13 92 -46 92 -39 0 -50 -37 -36 -121 15 -89 41 -139
109 -210 l54 -57 -33 -23 c-18 -13 -73 -58 -123 -99 -49 -42 -116 -95 -147
-118 -57 -42 -70 -66 -46 -90 28 -28 59 -12 171 91 167 153 218 197 228 197 4
0 36 -24 71 -53 171 -144 315 -220 331 -174 8 22 -11 44 -65 77 -81 49 -269
192 -266 201 3 10 351 234 510 329 103 62 125 81 112 101 -9 15 -26 10 -89
-25z"/>
<path d="M9283 14782 c-21 -14 -126 -211 -182 -342 -62 -147 -148 -305 -202
-373 -36 -46 -42 -77 -14 -77 15 0 103 94 146 156 17 25 75 136 129 248 55
111 114 225 133 252 58 84 61 92 42 120 -16 25 -31 29 -52 16z"/>
<path d="M9930 14223 c-22 -12 -36 -27 -38 -42 -4 -23 -2 -24 40 -16 85 16
140 8 299 -44 166 -53 298 -82 474 -103 140 -17 791 -16 1035 0 96 7 249 17
340 22 91 6 215 15 275 20 61 6 205 17 320 25 116 8 305 22 420 31 312 24 775
15 1060 -21 250 -31 430 -38 430 -15 0 8 -11 18 -25 22 -36 10 -513 58 -703
70 -172 11 -602 5 -773 -11 -103 -10 -223 -19 -589 -46 -1138 -83 -1661 -84
-2016 -5 -51 12 -161 44 -244 72 -174 58 -252 69 -305 41z"/>
<path d="M23338 13810 c-52 -9 -149 -35 -190 -52 -32 -12 -36 -38 -10 -61 24
-22 44 -21 75 3 84 66 464 88 575 33 113 -56 58 -111 -285 -282 -111 -55 -205
-106 -209 -112 -3 -6 3 -20 14 -31 15 -16 41 -22 113 -30 185 -18 391 -63 472
-104 53 -27 96 -63 113 -96 21 -40 6 -100 -44 -183 -94 -154 -341 -365 -428
-365 -16 0 -28 11 -41 38 -10 20 -26 38 -35 40 -41 8 -29 -116 14 -139 75 -40
263 64 428 237 157 165 210 292 166 397 -20 49 -98 112 -183 147 -77 32 -246
72 -358 85 -96 12 -99 19 -20 55 295 133 390 198 402 273 5 34 2 41 -38 81
-24 24 -62 49 -84 56 -47 16 -376 23 -447 10z"/>
<path d="M24375 13786 c-66 -17 -170 -62 -220 -95 -28 -19 -40 -34 -40 -51 0
-39 29 -36 113 14 104 63 157 78 289 83 185 8 327 -37 369 -118 14 -27 14 -38
4 -73 -38 -129 -257 -423 -464 -624 -116 -112 -137 -137 -134 -159 2 -17 14
-32 38 -45 32 -18 49 -19 225 -14 105 3 255 13 335 21 80 8 180 15 223 15 82
0 117 11 117 35 0 8 -10 21 -22 29 -20 12 -51 12 -238 -4 -404 -34 -580 -37
-580 -10 0 5 24 30 52 57 201 185 405 444 478 607 39 88 43 121 21 170 -37 85
-124 142 -255 167 -68 13 -251 10 -311 -5z"/>
<path d="M13195 13761 c-84 -38 -125 -104 -146 -229 -11 -73 -7 -136 23 -347
10 -77 23 -230 28 -340 6 -149 14 -231 33 -320 65 -310 81 -355 125 -341 33
11 34 35 7 127 -53 177 -86 365 -90 524 -3 83 -14 209 -25 280 -47 304 -47
423 0 516 29 56 60 73 134 72 112 -1 232 -54 438 -192 153 -102 173 -120 163
-151 -10 -30 -114 -95 -297 -183 -88 -43 -175 -92 -198 -113 -105 -95 -17
-171 395 -339 155 -63 303 -126 409 -174 77 -35 109 -37 114 -6 2 15 -7 25
-35 38 -104 49 -276 127 -443 202 -321 143 -405 190 -393 221 3 9 81 52 172
96 183 89 291 156 326 203 62 84 37 117 -229 295 -240 162 -400 212 -511 161z"/>
<path d="M1533 13705 c-18 -8 -33 -18 -33 -23 0 -17 35 -40 120 -80 87 -42
120 -62 306 -194 126 -88 173 -133 157 -149 -14 -14 -150 -37 -299 -49 -70 -5
-256 -10 -413 -10 -157 0 -502 -7 -766 -15 -264 -8 -508 -15 -542 -15 -60 0
-63 -1 -63 -25 0 -30 -26 -29 490 -15 195 6 562 12 815 14 259 3 499 9 550 16
116 14 228 38 277 57 55 22 53 58 -7 118 -45 46 -295 216 -414 283 -72 40 -69
48 11 33 29 -5 141 -26 248 -46 374 -69 553 -134 596 -216 13 -27 12 -30 -15
-61 -64 -73 -240 -153 -601 -274 -540 -181 -602 -206 -573 -235 7 -7 27 -6 67
6 104 30 709 232 821 274 239 89 375 180 375 250 0 66 -35 109 -141 174 -73
44 -282 99 -539 142 -47 8 -138 23 -203 34 -139 24 -180 25 -224 6z"/>
<path d="M21043 13688 c-168 -14 -338 -77 -449 -167 -63 -50 -86 -90 -68 -119
21 -33 43 -24 109 46 76 81 127 110 255 149 80 23 113 28 210 28 107 0 119 -2
173 -29 61 -29 97 -72 97 -113 0 -52 -61 -161 -208 -368 -105 -147 -144 -195
-295 -358 -73 -79 -117 -134 -115 -145 7 -35 46 -44 173 -38 121 5 146 9 442
72 89 19 184 34 211 34 52 0 76 16 70 46 -8 40 -28 39 -305 -16 -279 -56 -473
-76 -473 -50 0 7 38 51 83 99 106 109 165 182 270 329 149 210 197 307 197
394 0 143 -151 226 -377 206z"/>
<path d="M22390 13683 c-320 -17 -484 -66 -415 -123 13 -11 35 -8 123 13 143
35 522 75 522 56 0 -6 -110 -64 -245 -129 -262 -127 -273 -136 -221 -178 14
-10 78 -32 143 -47 224 -53 384 -123 472 -204 63 -58 65 -81 16 -179 -55 -110
-159 -190 -288 -223 -83 -20 -111 1 -124 97 -7 52 -26 73 -48 54 -23 -19 -19
-107 8 -160 44 -88 135 -90 300 -7 141 70 242 194 254 312 9 82 -27 133 -153
215 -94 62 -212 110 -349 144 -106 26 -145 40 -135 49 3 2 121 61 263 130 211
103 257 129 257 146 0 11 -9 25 -19 31 -18 9 -216 11 -361 3z"/>
<path d="M7665 13640 c-108 -17 -240 -88 -307 -168 -116 -138 -164 -334 -155
-626 3 -114 11 -191 22 -230 31 -113 131 -286 164 -286 10 0 41 28 41 36 0 3
-14 25 -30 49 -47 68 -88 161 -107 245 -28 117 -25 436 5 543 57 205 158 316
333 362 74 20 125 19 201 -5 69 -21 148 -71 148 -94 0 -33 -111 -113 -276
-200 -307 -162 -354 -202 -354 -298 0 -84 39 -149 159 -267 238 -234 278 -258
382 -227 59 18 89 40 89 68 0 22 -19 23 -68 2 -57 -23 -107 -21 -145 9 -17 14
-93 85 -168 158 -100 99 -142 149 -163 190 -49 102 -26 128 233 264 238 125
290 159 344 223 40 50 37 92 -13 146 -74 80 -213 124 -335 106z"/>
<path d="M5531 13511 c-26 -26 -28 -42 -46 -326 -31 -474 -85 -689 -197 -790
-31 -29 -46 -35 -83 -35 -69 0 -119 60 -164 195 -64 195 -66 494 -5 802 18 92
15 113 -18 113 -45 0 -49 -11 -70 -191 -29 -246 -28 -489 1 -628 26 -122 57
-203 103 -267 131 -183 339 -85 418 197 36 132 58 290 80 575 12 153 25 292
31 308 13 40 12 44 -11 56 -15 8 -24 6 -39 -9z"/>
<path d="M10685 13514 c-221 -48 -343 -175 -368 -381 -12 -100 1 -292 29 -408
71 -299 128 -513 142 -527 21 -25 59 -23 67 2 4 11 0 39 -9 63 -39 108 -120
377 -138 460 -29 135 -36 393 -13 472 35 123 110 193 267 251 67 24 231 30
319 10 134 -30 260 -121 246 -178 -8 -32 -90 -79 -207 -118 -297 -102 -483
-195 -535 -270 -28 -40 -28 -41 -12 -76 25 -51 98 -125 175 -177 250 -167 581
-315 649 -291 45 15 37 47 -13 55 -188 33 -699 333 -729 430 -4 13 0 28 11 40
41 46 224 131 480 224 149 54 202 86 228 139 16 33 17 43 7 78 -25 81 -126
159 -252 194 -82 22 -260 27 -344 8z"/>
<path d="M8504 13509 c-79 -10 -134 -25 -200 -54 -44 -20 -54 -28 -54 -49 0
-38 29 -40 110 -5 103 43 219 56 396 41 75 -6 141 -15 146 -20 15 -15 -23 -35
-157 -82 -174 -61 -205 -80 -205 -125 0 -60 84 -114 300 -190 165 -58 279
-116 339 -171 52 -49 55 -53 59 -110 3 -55 1 -63 -36 -121 -66 -100 -189 -179
-358 -228 -47 -14 -106 -25 -130 -25 -38 0 -45 4 -59 30 -24 46 -65 34 -65
-20 1 -86 115 -101 301 -40 165 54 288 132 361 227 84 111 89 197 18 296 -58
79 -181 151 -400 233 -140 52 -210 85 -229 108 -17 21 9 36 139 79 174 59 240
94 240 132 0 24 -59 63 -112 74 -47 10 -308 33 -333 30 -5 -1 -38 -5 -71 -10z"/>
<path d="M14575 13511 c-76 -8 -129 -27 -187 -68 -40 -27 -52 -50 -42 -77 10
-26 42 -19 106 23 72 49 108 55 291 49 155 -6 249 -28 293 -69 21 -20 22 -24
10 -48 -15 -27 -183 -182 -296 -271 -87 -69 -168 -149 -186 -182 -32 -61 -12
-134 53 -187 69 -57 309 -118 615 -156 160 -20 191 -19 219 4 36 30 13 43 -78
46 -150 6 -549 86 -648 130 -27 12 -63 36 -79 53 -52 56 -26 94 178 259 153
124 272 237 292 275 8 15 14 40 14 56 0 60 -110 127 -246 151 -87 14 -229 20
-309 12z"/>
<path d="M11685 13486 c-33 -8 -82 -24 -108 -35 -43 -18 -48 -24 -45 -48 4
-37 32 -40 102 -14 82 30 206 44 330 36 112 -7 156 -17 156 -34 0 -18 -88 -63
-249 -128 -86 -34 -167 -71 -181 -81 -35 -27 -36 -55 -3 -87 38 -36 52 -43
268 -130 306 -124 414 -184 498 -273 81 -88 64 -136 -88 -235 -137 -88 -315
-161 -447 -180 -105 -15 -128 -6 -146 56 -15 52 -24 57 -46 25 -25 -36 -20
-90 10 -119 23 -22 34 -24 117 -23 105 0 179 18 321 74 174 70 342 185 381
261 77 147 -106 288 -709 545 -38 16 -71 34 -73 40 -2 7 40 28 99 49 120 43
268 119 299 151 46 49 8 119 -78 144 -62 18 -338 22 -408 6z"/>
<path d="M4231 13451 c-36 -36 -98 -286 -126 -501 -8 -69 -22 -212 -30 -318
-8 -106 -17 -197 -20 -202 -22 -36 -57 38 -118 250 -58 201 -94 374 -108 530
-15 155 -20 170 -57 170 -45 0 -74 -46 -120 -190 -65 -205 -82 -349 -92 -780
-5 -220 -12 -369 -19 -392 -15 -48 -1 -78 35 -78 51 0 55 31 52 448 -3 401 2
470 48 695 26 129 58 217 74 201 5 -5 19 -79 29 -165 33 -252 61 -360 165
-634 65 -171 92 -201 142 -154 34 32 41 68 53 279 18 297 42 529 62 609 10 41
21 76 23 79 12 12 24 -13 29 -60 22 -233 79 -593 118 -746 40 -156 61 -202 94
-202 38 0 41 23 11 91 -33 76 -70 226 -86 344 -7 50 -23 164 -36 255 -40 274
-43 292 -49 370 -6 72 -24 120 -45 120 -6 0 -19 -9 -29 -19z"/>
<path d="M6029 13448 c-27 -50 -159 -871 -159 -990 0 -85 86 -92 360 -30 218
50 340 67 429 59 61 -5 71 -3 87 14 29 33 8 53 -67 62 -79 10 -215 -9 -464
-64 -105 -24 -198 -39 -225 -37 l-45 3 2 85 c1 47 14 150 28 230 14 80 30 170
35 200 19 123 43 250 62 335 30 130 29 149 -4 153 -19 2 -30 -3 -39 -20z"/>
<path d="M9562 12388 c-22 -29 -155 -281 -191 -365 -62 -141 -110 -234 -147
-279 -28 -35 -31 -44 -19 -54 40 -33 104 51 233 306 61 120 132 251 157 291
39 61 44 75 35 93 -12 22 -52 27 -68 8z"/>
<path d="M12444 12148 c-9 -18 -40 -58 -69 -89 -72 -76 -110 -137 -221 -363
-73 -145 -98 -207 -102 -245 -4 -50 -4 -51 22 -51 20 0 27 6 32 28 14 66 31
105 97 227 111 206 155 272 239 361 77 82 88 106 72 148 -11 29 -52 19 -70
-16z"/>
<path d="M1949 11494 c-19 -24 -1 -44 62 -68 29 -11 101 -49 158 -83 57 -35
110 -63 117 -63 17 0 18 22 2 38 -9 9 -8 12 6 12 31 0 401 -127 487 -167 82
-39 149 -85 149 -104 0 -18 -116 -83 -234 -131 -67 -27 -260 -101 -431 -164
-170 -63 -322 -120 -337 -125 -15 -6 -35 -20 -44 -31 -28 -30 -2 -39 60 -21
62 18 246 84 426 154 74 28 196 73 270 100 165 59 317 135 343 171 18 23 18
30 7 57 -7 17 -29 47 -49 67 -64 63 -159 101 -631 256 -52 17 -149 50 -214 74
-66 24 -123 44 -127 44 -3 0 -12 -7 -20 -16z"/>
<path d="M21415 11401 c-112 -28 -290 -176 -393 -328 -90 -133 -158 -302 -182
-455 -18 -113 -8 -316 19 -393 69 -192 237 -295 484 -295 367 0 773 286 894
631 38 107 44 261 14 358 -27 87 -95 180 -171 233 -83 57 -249 116 -400 142
-25 4 -41 15 -53 35 -9 16 -40 41 -69 55 -52 26 -87 30 -143 17z m111 -66 c17
-13 14 -14 -38 -15 -50 0 -58 -3 -58 -19 0 -23 19 -31 75 -31 63 0 75 -7 75
-44 0 -36 15 -56 42 -56 17 0 27 16 42 62 4 15 11 15 83 -3 304 -77 447 -207
460 -419 12 -196 -76 -384 -261 -557 -152 -142 -325 -226 -523 -253 -137 -18
-290 14 -381 80 -182 131 -202 511 -44 825 55 111 96 169 179 256 146 152 285
222 349 174z"/>
<path d="M23115 11345 c-141 -32 -252 -93 -347 -189 -115 -116 -145 -235 -53
-212 17 4 27 17 34 42 26 93 132 202 247 254 85 39 158 53 244 48 64 -3 75 -7
96 -31 16 -18 24 -41 24 -64 0 -82 -95 -302 -226 -523 -59 -99 -170 -247 -299
-397 -61 -71 -105 -131 -105 -143 0 -15 13 -27 48 -43 44 -21 61 -22 262 -22
118 1 292 5 386 10 94 6 197 6 229 2 32 -5 69 -6 82 -2 32 8 57 64 43 100 -12
30 -17 31 -46 4 -20 -19 -36 -21 -200 -24 -99 -2 -255 -8 -349 -14 -171 -10
-327 -3 -347 17 -6 6 12 34 54 82 179 206 279 351 391 567 169 329 186 457 68
522 -54 29 -150 36 -236 16z"/>
<path d="M4343 11278 c-123 -129 -322 -462 -418 -702 -18 -45 -65 -162 -104
-261 -39 -99 -87 -211 -106 -250 -49 -97 -45 -145 11 -145 34 0 48 28 110 219
88 277 81 261 116 261 16 0 57 11 91 24 231 91 303 117 331 119 l31 2 17 -95
c9 -52 35 -178 58 -279 41 -180 42 -185 25 -214 -16 -27 -16 -30 -1 -45 12
-12 22 -14 43 -6 50 17 51 44 4 261 -24 109 -51 230 -62 269 -10 38 -19 84
-19 101 0 30 2 32 58 43 77 16 132 40 132 57 0 12 -18 14 -100 12 -70 -3 -103
0 -112 9 -9 9 -12 88 -13 322 0 265 -2 312 -15 320 -26 17 -45 11 -77 -22z
m22 -260 c-5 -151 -3 -213 8 -283 12 -69 13 -93 4 -102 -7 -6 -52 -22 -102
-36 -49 -14 -134 -41 -188 -61 -117 -43 -131 -44 -122 -13 9 30 114 244 165
337 23 41 64 115 91 164 57 104 118 186 137 186 12 0 13 -32 7 -192z"/>
<path d="M24013 11235 c-83 -36 -175 -112 -204 -167 -72 -140 47 -233 495
-389 37 -13 71 -30 74 -38 3 -8 -7 -64 -21 -125 -15 -61 -30 -138 -33 -171
-12 -117 33 -193 105 -180 43 8 78 31 87 57 11 35 -11 43 -57 23 -40 -19 -42
-19 -55 0 -23 32 -18 107 22 293 18 82 23 84 96 52 94 -41 168 -35 168 14 0
21 -6 24 -59 29 -33 4 -85 18 -116 32 -46 20 -56 28 -50 42 4 10 22 85 40 166
42 186 60 240 92 277 34 41 27 65 -17 65 -28 0 -38 -6 -57 -34 -36 -54 -82
-228 -108 -413 -4 -31 -11 -48 -20 -48 -16 0 -247 93 -366 148 -105 48 -169
102 -169 142 0 53 137 156 233 175 17 3 27 12 27 23 0 42 -47 53 -107 27z"/>
<path d="M25335 11216 c-307 -149 -553 -480 -556 -748 -1 -70 3 -87 30 -143
157 -319 732 -343 941 -40 103 150 153 336 130 482 -16 101 -63 168 -187 270
-132 107 -307 143 -377 78 -33 -31 -33 -53 1 -66 24 -9 30 -7 48 15 16 21 30
26 63 26 113 0 260 -107 357 -260 60 -95 41 -274 -46 -439 -93 -178 -223 -251
-442 -251 -253 0 -457 151 -457 338 0 106 71 273 169 394 117 145 318 293 426
314 47 9 66 31 40 50 -29 22 -65 17 -140 -20z"/>
<path d="M2360 11222 c0 -11 49 -88 94 -146 20 -27 33 -53 29 -57 -7 -7 -547
57 -643 76 -126 25 -1171 96 -1632 111 l-208 7 0 -25 c0 -23 5 -26 53 -32 28
-3 117 -6 198 -6 80 0 203 -4 275 -9 71 -6 246 -17 389 -26 508 -31 784 -58
1180 -115 77 -11 203 -27 279 -36 77 -8 144 -18 148 -20 5 -3 20 2 34 10 l24
17 -21 42 c-24 47 -87 135 -133 185 -27 29 -66 43 -66 24z"/>
<path d="M5535 11215 c-61 -23 -149 -97 -209 -177 -91 -122 -134 -227 -196
-473 -53 -210 -77 -364 -89 -571 -6 -93 -13 -196 -17 -229 -5 -50 -3 -63 10
-74 12 -11 22 -11 40 -3 21 9 23 17 29 133 4 67 7 157 7 199 0 74 18 230 40
355 51 284 71 356 132 479 66 135 159 248 235 286 65 33 169 34 229 3 78 -42
152 -149 196 -288 25 -78 36 -289 19 -377 -30 -153 -163 -383 -316 -546 -85
-90 -243 -206 -313 -230 -30 -10 -36 -9 -58 13 -13 13 -24 29 -24 35 0 16 -40
12 -46 -5 -11 -27 16 -85 47 -101 40 -20 92 -6 189 53 208 125 399 337 506
558 74 154 88 213 87 365 -1 152 -23 244 -88 376 -50 103 -111 170 -184 206
-57 28 -167 34 -226 13z"/>
<path d="M6688 11169 c-75 -11 -137 -48 -219 -129 -71 -69 -176 -216 -226
-315 -74 -144 -143 -408 -173 -655 -14 -119 -16 -590 -3 -615 6 -11 13 -36 17
-56 9 -53 28 -73 58 -66 31 8 41 29 28 61 -11 30 -5 35 75 67 120 47 336 210
492 370 260 268 349 437 360 684 5 106 2 133 -22 235 -32 139 -75 249 -120
312 -60 83 -160 123 -267 107z m138 -78 c54 -25 97 -79 133 -170 80 -200 97
-412 47 -582 -23 -77 -92 -205 -158 -293 -70 -93 -260 -286 -363 -367 -84 -66
-235 -166 -283 -186 -66 -27 -69 -17 -78 236 -10 287 29 591 103 806 86 248
247 476 385 544 73 37 150 41 214 12z"/>
<path d="M8251 11094 c-30 -8 -80 -30 -111 -49 -66 -40 -185 -162 -224 -228
-28 -48 -55 -156 -56 -222 0 -24 -8 -50 -20 -65 -27 -35 -25 -61 10 -127 17
-31 30 -70 30 -87 0 -78 84 -561 101 -582 28 -34 73 1 84 67 6 35 4 45 -13 58
-20 17 -43 97 -82 285 -22 110 -25 146 -10 146 6 0 50 -20 98 -44 158 -79 489
-195 660 -231 87 -18 188 -20 198 -3 10 17 -25 38 -63 38 -75 0 -269 59 -513
155 -323 127 -420 189 -420 270 0 45 27 65 206 154 155 77 227 107 424 176 74
26 147 56 163 67 37 26 34 57 -9 102 -112 115 -293 163 -453 120z m250 -64
c35 -11 88 -36 118 -56 54 -37 54 -37 33 -54 -12 -10 -70 -34 -129 -55 -200
-70 -287 -107 -440 -186 -84 -43 -154 -75 -157 -71 -10 17 16 108 51 175 63
122 193 229 309 256 66 15 149 12 215 -9z"/>
<path d="M12230 11063 c-8 -3 -34 -19 -58 -35 -78 -54 -142 -181 -192 -382
-18 -74 -32 -111 -44 -118 -10 -6 -64 -9 -125 -6 -88 3 -114 7 -155 28 -28 14
-59 37 -70 52 -26 37 -31 120 -13 228 14 91 9 133 -20 144 -27 11 -37 -11 -55
-117 -42 -254 -11 -332 152 -387 56 -19 81 -22 177 -18 l112 4 -2 -106 c-2
-88 1 -111 16 -134 11 -16 25 -26 35 -24 15 3 17 20 17 141 l1 137 42 43 c51
52 55 71 12 62 -30 -7 -31 -6 -24 22 14 60 57 181 90 250 39 82 84 125 156
149 49 16 61 37 36 62 -12 12 -61 15 -88 5z"/>
<path d="M14510 11036 c0 -23 24 -36 136 -72 391 -127 584 -388 452 -612 -52
-89 -162 -193 -249 -236 -314 -153 -738 -20 -774 244 -9 69 18 197 59 279 54
107 132 225 176 265 34 30 91 56 126 56 6 0 18 7 25 16 11 14 9 20 -15 41 -31
26 -41 25 -116 -11 -63 -30 -115 -88 -189 -211 -76 -128 -116 -227 -132 -326
-20 -132 5 -213 96 -308 101 -106 253 -161 445 -162 214 0 339 50 482 192 70
71 94 103 128 174 41 83 42 89 38 163 -12 204 -192 384 -481 483 -118 41 -207
51 -207 25z"/>
<path d="M9095 11024 c-62 -7 -195 -34 -245 -51 -51 -17 -70 -36 -63 -63 8
-30 38 -33 106 -11 111 37 198 51 330 51 184 0 410 -37 482 -78 65 -39 42 -68
-174 -216 -157 -107 -251 -190 -293 -255 -22 -35 -28 -57 -28 -100 0 -51 2
-57 44 -97 45 -42 105 -70 221 -102 45 -12 104 -17 230 -17 154 0 174 2 218
22 29 14 47 28 47 39 0 15 -7 16 -57 10 -253 -30 -457 -3 -571 76 -50 34 -67
65 -58 103 10 41 139 161 262 244 135 93 214 155 236 190 39 58 9 130 -71 170
-104 53 -460 102 -616 85z"/>
<path d="M13370 11014 c-45 -9 -154 -47 -180 -62 -43 -27 -71 -56 -91 -94 -32
-63 -18 -112 18 -67 59 72 81 93 122 113 71 36 144 49 236 44 68 -5 93 -11
141 -37 63 -34 97 -71 89 -94 -14 -34 -77 -50 -240 -58 -182 -10 -303 -23
-358 -39 -57 -17 -80 -59 -73 -135 3 -33 -1 -100 -9 -150 -8 -49 -21 -166 -30
-260 -14 -136 -21 -176 -37 -199 -17 -23 -19 -38 -14 -79 9 -79 45 -99 80 -45
14 22 17 59 42 515 l6 113 76 -78 c91 -93 201 -161 318 -198 89 -28 189 -31
189 -5 0 19 -18 27 -100 45 -113 25 -242 95 -322 174 -76 74 -126 157 -121
199 5 40 60 53 278 63 102 5 208 14 237 20 60 13 111 45 132 81 36 65 -34 167
-144 208 -58 22 -191 35 -245 25z"/>
<path d="M10799 10947 c-56 -16 -125 -56 -161 -94 -65 -68 -78 -197 -59 -574
21 -412 30 -460 81 -444 28 9 40 42 29 80 -5 16 -20 120 -34 230 -67 532 -39
665 153 725 80 25 141 21 245 -17 74 -28 166 -100 153 -121 -16 -26 -94 -55
-249 -93 -225 -54 -273 -69 -297 -91 -29 -28 -25 -43 28 -100 56 -60 211 -139
412 -211 231 -83 330 -95 338 -41 3 24 -19 34 -75 34 -49 0 -176 43 -361 124
-175 75 -257 122 -257 146 0 9 45 23 148 46 245 54 346 93 372 144 22 43 19
72 -14 117 -35 48 -71 72 -175 113 -93 37 -203 48 -277 27z"/>
<path d="M10276 10146 c-43 -77 -58 -110 -148 -336 -38 -96 -95 -224 -126
-283 -42 -82 -53 -110 -44 -119 9 -9 19 -7 39 8 37 26 68 89 207 412 41 96 93
204 115 241 42 69 50 108 29 129 -22 22 -36 12 -72 -52z"/>
<path d="M12450 10161 c-5 -11 -10 -31 -10 -45 0 -14 -13 -56 -30 -93 -32 -74
-139 -361 -202 -543 -22 -63 -50 -136 -63 -162 -25 -50 -24 -58 10 -58 32 0
38 12 75 130 18 58 36 110 40 115 4 6 32 73 63 150 30 77 82 202 116 278 67
153 78 195 62 226 -15 26 -47 27 -61 2z"/>
<path d="M21691 9469 c-167 -20 -311 -78 -376 -151 -63 -68 -44 -124 90 -270
46 -50 92 -107 102 -125 l17 -32 -80 -83 c-44 -46 -94 -104 -111 -129 -112
-164 -212 -464 -213 -635 0 -161 80 -265 252 -326 55 -19 82 -22 208 -21 127
0 156 4 233 27 142 42 256 110 304 179 24 35 28 49 28 111 -1 85 -24 136 -142
309 -102 150 -299 416 -370 501 -18 22 -33 45 -33 52 0 32 408 337 489 365 33
12 65 53 57 75 -8 22 -55 16 -105 -13 -89 -52 -278 -194 -393 -296 -37 -32
-73 -57 -81 -55 -14 3 -195 217 -215 255 -9 17 -4 27 41 70 70 67 99 85 187
114 72 23 86 24 342 24 l266 0 26 -28 c21 -23 29 -26 46 -17 23 12 37 57 22
72 -23 23 -460 44 -591 27z m-43 -756 c44 -65 140 -204 214 -309 205 -292 247
-391 199 -468 -72 -115 -366 -206 -575 -177 -136 19 -230 73 -271 154 -21 43
-25 65 -25 136 1 146 77 396 167 543 60 100 176 238 200 238 7 0 48 -53 91
-117z"/>
<path d="M2459 9354 c-20 -24 0 -45 67 -69 72 -26 141 -61 254 -130 47 -29
130 -76 185 -105 146 -76 153 -86 78 -92 -85 -7 -422 11 -567 31 -274 38 -542
58 -1096 81 -146 6 -431 20 -635 30 -203 11 -454 22 -557 26 l-188 7 0 -30 0
-30 269 -7 c148 -3 329 -11 402 -16 74 -5 190 -12 259 -15 1078 -48 1156 -53
1565 -104 217 -27 405 -35 554 -22 136 11 162 22 142 59 -16 29 -75 68 -226
146 -143 75 -265 145 -265 154 0 8 144 -7 254 -28 172 -31 302 -80 371 -141
81 -71 27 -149 -169 -244 -63 -31 -138 -64 -168 -75 -29 -10 -141 -53 -248
-95 -107 -42 -267 -104 -355 -138 -88 -33 -170 -67 -182 -75 -29 -18 -31 -52
-2 -52 18 0 360 127 754 281 288 113 451 214 471 292 38 155 -233 297 -636
332 -41 4 -122 16 -179 26 -127 23 -135 23 -152 3z"/>
<path d="M25705 9306 c-13 -19 -14 -29 -5 -45 9 -19 20 -21 89 -21 131 0 397
-88 652 -215 125 -62 169 -91 169 -109 0 -17 -108 -47 -289 -80 -192 -36 -241
-63 -241 -135 0 -34 62 -110 148 -183 97 -82 441 -390 457 -410 6 -7 38 -47
72 -88 79 -97 133 -207 133 -273 0 -42 -5 -53 -30 -77 -117 -109 -595 -146
-836 -65 -41 14 -83 25 -94 25 -29 0 -25 -25 8 -48 72 -52 200 -81 393 -89
295 -13 523 50 603 165 26 38 28 48 23 100 -3 31 -12 77 -20 101 -43 123 -243
345 -570 635 -151 134 -207 194 -207 221 0 11 54 25 193 50 230 42 347 88 347
139 0 37 -62 91 -177 152 -248 134 -559 245 -750 268 -48 6 -53 5 -68 -18z"/>
<path d="M4836 9211 c-3 -5 3 -34 14 -65 20 -60 34 -195 47 -461 12 -257 2
-349 -52 -455 -29 -58 -135 -174 -216 -235 -115 -89 -275 -159 -390 -172 -155
-16 -289 94 -289 239 0 27 -4 38 -15 38 -35 0 -31 -147 5 -206 50 -79 171
-136 290 -135 262 1 626 262 711 509 20 58 41 215 34 249 -3 10 -9 133 -15
274 -14 353 -30 429 -90 429 -16 0 -31 -4 -34 -9z"/>
<path d="M24840 9212 c0 -22 31 -40 92 -52 217 -42 415 -187 505 -370 53 -105
75 -210 76 -355 2 -180 -38 -292 -137 -382 -156 -143 -487 -165 -723 -48 -119
59 -201 133 -245 222 -28 57 -33 79 -36 160 -4 79 -1 103 18 155 65 180 240
392 379 461 77 39 118 45 183 27 42 -12 78 0 78 25 0 45 -133 69 -223 40 -157
-49 -304 -200 -428 -439 l-57 -109 -4 114 c-3 97 -8 123 -30 170 -34 74 -84
128 -173 188 -159 106 -336 153 -580 154 -159 0 -262 -16 -311 -48 -22 -14
-24 -19 -13 -31 12 -11 21 -11 59 0 52 15 146 27 133 17 -4 -4 -33 -13 -63
-20 -75 -18 -174 -78 -236 -143 -49 -52 -122 -157 -156 -228 -58 -120 -72
-152 -94 -215 -72 -203 -69 -332 8 -477 42 -79 166 -197 249 -236 125 -59 162
-67 319 -67 166 0 260 20 383 81 246 122 381 272 453 509 27 89 28 90 37 55
54 -204 89 -264 199 -346 137 -102 276 -145 468 -146 142 0 236 18 338 63 201
91 300 299 272 578 -13 127 -38 207 -99 320 -56 102 -110 164 -211 241 -81 61
-117 80 -215 111 -72 23 -215 37 -215 21z m-1100 -119 c157 -29 279 -81 380
-162 112 -90 151 -175 151 -331 1 -236 -132 -505 -316 -645 -72 -55 -217 -128
-300 -150 -82 -22 -291 -31 -363 -16 -136 30 -301 139 -358 237 -37 62 -64
156 -64 219 0 148 84 373 208 559 69 103 122 152 210 194 76 37 79 37 202 37
145 0 175 -11 224 -84 23 -34 33 -42 55 -39 104 12 -78 188 -194 188 -14 0
-25 4 -25 9 0 11 83 4 190 -16z"/>
<path d="M5485 9030 c-80 -21 -179 -62 -190 -79 -9 -16 13 -41 37 -41 12 0 48
14 82 30 99 49 200 65 326 52 109 -11 192 -38 216 -70 39 -51 -4 -112 -217
-308 -298 -276 -392 -382 -387 -438 4 -42 85 -98 170 -117 142 -32 529 -10
683 38 112 35 107 74 -7 50 -197 -42 -578 -49 -694 -13 -71 22 -83 38 -60 80
29 54 193 223 359 369 84 75 166 152 181 171 39 52 58 103 51 138 -9 41 -58
93 -103 111 -119 48 -323 60 -447 27z"/>
<path d="M6986 8985 c-117 -15 -150 -31 -130 -63 14 -22 66 -21 199 2 164 29
374 16 749 -48 93 -16 106 -14 106 9 0 20 -76 39 -322 81 -191 32 -441 40
-602 19z"/>
<path d="M6688 8933 c-8 -10 -37 -74 -64 -143 -26 -69 -52 -128 -57 -131 -5
-4 -27 -10 -49 -13 -34 -6 -39 -10 -36 -29 2 -12 13 -26 26 -32 29 -13 28 -29
-7 -106 -72 -161 -99 -295 -70 -352 16 -32 60 -77 89 -92 75 -39 335 -44 559
-10 121 19 283 80 319 120 43 50 21 59 -49 21 -126 -69 -267 -96 -496 -96
-188 0 -290 14 -339 46 -26 17 -26 20 -21 89 4 52 19 107 56 205 29 74 56 142
61 150 8 12 52 14 307 11 164 -1 315 0 336 4 38 7 58 29 41 44 -8 8 -363 21
-561 21 -71 0 -83 2 -83 17 0 9 26 70 57 135 45 94 55 123 46 136 -14 24 -46
26 -65 5z"/>
<path d="M8920 8859 c-194 -33 -350 -152 -399 -304 -27 -84 -33 -128 -32 -220
2 -166 47 -340 134 -515 57 -114 81 -139 112 -116 16 12 21 32 26 108 4 51 14
117 24 146 16 47 16 55 3 68 -33 33 -72 -16 -84 -104 -3 -29 -10 -52 -15 -52
-21 0 -82 157 -114 296 -64 275 14 505 200 590 147 68 458 83 543 28 23 -15
23 -16 5 -36 -24 -26 -61 -45 -218 -108 -174 -70 -380 -175 -427 -218 -49 -44
-52 -88 -9 -153 55 -83 257 -208 401 -249 97 -28 264 -37 367 -20 88 14 113
24 113 45 0 18 -3 18 -107 4 -227 -32 -515 56 -666 204 -61 60 -77 99 -51 128
25 28 254 142 391 195 230 90 293 128 293 179 0 31 -50 74 -106 92 -59 18
-302 26 -384 12z"/>
<path d="M14383 8856 c-36 -16 -43 -45 -17 -67 13 -11 26 -10 79 4 91 24 149
21 340 -18 173 -35 270 -61 340 -91 34 -14 37 -17 21 -26 -10 -6 -93 -14 -185
-19 -168 -10 -211 -18 -211 -42 0 -25 47 -77 116 -129 241 -181 474 -419 474
-483 0 -84 -195 -139 -488 -137 -89 0 -179 3 -200 7 -24 4 -43 1 -55 -7 -29
-22 0 -49 64 -59 94 -15 405 -11 498 6 230 44 290 116 215 255 -39 72 -269
304 -405 408 -58 45 -111 88 -119 96 -11 14 -9 16 16 17 16 0 94 4 174 8 206
11 253 41 176 109 -39 34 -216 94 -421 143 -158 37 -358 49 -412 25z"/>
<path d="M10128 8781 c-31 -10 -85 -34 -120 -53 -48 -27 -79 -37 -128 -40
-129 -10 -270 -102 -325 -211 -20 -40 -25 -66 -25 -121 0 -90 23 -140 92 -208
142 -139 418 -183 695 -112 90 23 219 91 258 137 98 114 101 252 10 425 -41
79 -106 150 -162 178 -56 27 -218 30 -295 5z m281 -60 c131 -67 222 -320 161
-447 -24 -49 -91 -114 -148 -143 -240 -123 -662 -75 -781 89 -100 139 5 347
207 405 28 8 29 -8 2 -42 -24 -31 -26 -80 -4 -111 28 -40 74 -21 52 21 -34 66
137 207 296 243 75 17 164 11 215 -15z"/>
<path d="M11742 8731 c-195 -67 -352 -292 -352 -506 0 -85 15 -123 73 -190
134 -155 477 -220 692 -133 187 76 248 181 249 423 1 114 -1 123 -30 185 -59
124 -144 179 -311 200 -37 4 -86 15 -108 24 -54 20 -148 19 -213 -3z m138 -39
c0 -5 -11 -14 -24 -20 -14 -6 -33 -23 -42 -37 -26 -40 -1 -50 50 -20 23 13 61
29 85 35 39 10 46 10 57 -5 7 -10 11 -30 7 -45 -4 -22 0 -31 17 -40 18 -10 25
-9 38 4 14 13 14 23 5 57 l-11 41 51 -6 c175 -24 249 -140 234 -370 -14 -214
-84 -304 -277 -352 -87 -22 -249 -14 -340 16 -151 51 -261 137 -274 216 -19
108 57 299 157 398 68 68 118 99 200 121 64 17 67 17 67 7z"/>
<path d="M13581 8600 c-35 -8 -52 -25 -45 -44 3 -8 62 -11 187 -11 200 0 255
-10 335 -62 63 -41 86 -96 79 -183 -11 -137 -84 -232 -230 -300 -180 -84 -366
-83 -463 2 -30 26 -34 36 -34 77 0 33 9 67 30 109 32 63 70 101 155 155 96 61
61 111 -42 60 -79 -39 -143 -105 -186 -192 -45 -90 -47 -134 -10 -203 86 -158
340 -184 591 -60 196 96 290 276 238 454 -25 89 -115 160 -243 193 -62 16
-300 19 -362 5z"/>
<path d="M12581 8431 c-26 -48 60 -264 141 -356 22 -25 38 -51 35 -58 -5 -13
-93 -67 -241 -149 -88 -48 -107 -68 -90 -95 24 -38 56 -27 210 73 82 53 157
102 167 108 20 12 20 12 140 -71 113 -79 319 -184 337 -173 26 17 -1 42 -121
110 -139 80 -261 161 -267 177 -2 7 23 29 55 49 105 67 337 222 363 243 32 26
24 26 -53 0 -55 -19 -186 -90 -364 -200 -34 -21 -68 -36 -76 -33 -19 7 -67 75
-100 139 -27 55 -42 104 -52 177 -3 26 -13 55 -21 63 -21 21 -51 19 -63 -4z"/>
<path d="M10882 7808 c-6 -8 -21 -59 -33 -113 -23 -110 -22 -106 -121 -355
-90 -224 -121 -292 -141 -309 -24 -19 -21 -41 4 -41 36 0 69 49 124 185 29 72
75 180 103 240 69 153 138 363 125 384 -13 21 -47 26 -61 9z"/>
<path d="M11578 7573 c-18 -5 -33 -37 -24 -52 3 -5 52 -12 108 -15 57 -4 144
-13 193 -21 170 -27 331 -38 985 -70 765 -37 903 -39 1290 -22 201 9 451 19
555 22 105 3 244 11 310 17 66 5 307 13 535 17 378 5 418 8 444 24 39 26 31
53 -14 49 -19 -2 -188 -7 -375 -12 -187 -5 -403 -13 -480 -19 -77 -6 -284 -16
-460 -21 -176 -6 -395 -15 -487 -20 -208 -13 -534 -12 -833 0 -820 34 -1282
65 -1440 95 -38 7 -106 16 -150 19 -44 4 -93 8 -110 10 -16 2 -38 2 -47 -1z"/>
<path d="M931 5641 c-28 -28 -26 -47 4 -67 19 -12 33 -14 62 -7 43 10 52 30
26 61 -27 32 -67 38 -92 13z"/>
<path d="M4626 5647 c-23 -17 -23 -37 -6 -203 7 -73 10 -139 7 -147 -3 -9 -25
-24 -49 -35 -50 -22 -73 -45 -64 -67 7 -19 35 -19 60 0 11 8 28 15 38 15 17 0
18 -9 17 -79 -1 -83 3 -101 27 -101 11 0 14 18 14 89 0 59 4 92 13 98 6 6 58
13 115 16 102 6 103 6 112 -18 45 -118 83 -175 116 -175 33 0 31 16 -16 102
-55 101 -53 114 23 163 96 63 129 129 91 183 -12 18 -25 22 -68 22 -92 0 -166
-73 -166 -164 0 -47 -19 -56 -123 -56 l-84 0 -5 171 c-4 130 -9 174 -19 185
-13 12 -18 12 -33 1z m454 -214 c0 -21 -76 -92 -107 -100 -35 -8 -40 4 -18 44
30 55 125 97 125 56z"/>
<path d="M3328 5453 c-42 -48 -68 -153 -77 -305 -4 -65 -10 -120 -13 -124 -4
-3 -25 9 -48 27 -71 58 -136 44 -195 -41 -26 -37 -30 -52 -30 -108 0 -62 2
-65 42 -103 23 -21 52 -41 66 -44 56 -14 178 47 150 75 -9 9 -23 8 -61 -4 -61
-20 -95 -13 -122 24 -24 34 -25 70 -5 110 16 31 61 60 92 60 25 0 122 -100
131 -135 11 -39 37 -55 57 -34 14 14 14 20 0 58 -32 92 -11 338 40 466 14 34
25 69 25 78 0 22 -33 22 -52 0z"/>
<path d="M3621 5418 c-10 -28 -5 -44 16 -52 23 -9 43 12 43 45 0 24 -4 29 -25
29 -17 0 -28 -7 -34 -22z"/>
<path d="M4070 5338 c-11 -13 -51 -61 -90 -106 -133 -157 -190 -256 -190 -328
0 -39 5 -51 33 -79 65 -65 159 -53 235 29 22 24 60 85 85 135 25 51 47 88 51
83 3 -4 10 -49 16 -98 18 -150 38 -194 87 -194 27 0 29 12 8 44 -24 36 -55
215 -62 353 -3 70 -11 131 -18 140 -23 30 -42 8 -55 -64 -31 -178 -123 -352
-212 -399 -39 -20 -56 -18 -89 15 -24 24 -27 34 -20 53 17 46 79 138 142 214
136 162 159 204 123 218 -23 9 -24 8 -44 -16z"/>
<path d="M1759 5298 c-25 -21 -44 -58 -73 -143 -28 -79 -80 -175 -96 -175 -5
0 -14 26 -20 58 -30 159 -45 192 -85 192 -29 0 -49 -19 -76 -71 -11 -22 -30
-44 -43 -49 -45 -17 -56 -46 -56 -153 0 -78 3 -99 15 -103 24 -10 42 13 48 60
13 93 76 236 104 236 18 0 20 -8 39 -106 9 -49 21 -99 26 -110 12 -26 52 -46
73 -38 16 6 71 114 109 213 12 31 26 55 32 54 5 -2 10 -58 11 -125 4 -180 25
-278 60 -278 13 0 15 9 9 58 -4 31 -11 148 -15 259 -9 224 -18 257 -62 221z"/>
<path d="M2743 5230 c-88 -50 -138 -104 -148 -158 -14 -86 54 -251 121 -293
63 -39 180 -31 208 13 16 27 1 32 -59 20 -77 -16 -126 4 -161 64 -29 49 -25
64 14 64 101 1 222 140 222 256 0 85 -79 99 -197 34z m143 -34 c9 -22 -41
-109 -85 -149 -40 -36 -110 -63 -137 -53 -9 3 -14 20 -14 43 0 32 7 44 55 89
70 67 168 104 181 70z"/>
<path d="M2218 5223 c-29 -33 -45 -78 -63 -175 -10 -54 -21 -98 -25 -98 -11 0
-24 93 -22 163 1 44 -3 59 -14 64 -42 16 -55 -48 -36 -167 6 -36 14 -102 18
-148 5 -65 11 -85 25 -92 29 -16 45 11 63 112 34 182 47 238 65 260 l18 22 12
-52 c6 -29 11 -77 11 -106 0 -37 5 -58 16 -67 24 -20 46 0 75 69 14 34 28 64
31 67 3 3 13 -25 23 -62 23 -92 52 -151 77 -159 36 -11 42 11 14 58 -15 25
-36 91 -50 157 -13 63 -31 121 -40 129 -14 14 -17 14 -35 -2 -11 -10 -27 -40
-36 -67 -9 -27 -20 -49 -25 -49 -4 0 -11 28 -15 63 -9 77 -19 97 -49 97 -13 0
-30 -8 -38 -17z"/>
<path d="M898 5203 c-26 -31 -28 -64 -13 -203 22 -193 27 -214 48 -218 17 -3
17 9 14 206 -4 236 -10 260 -49 215z"/>
<path d="M3622 5213 c-9 -4 -11 -23 -7 -76 3 -40 0 -120 -8 -180 -13 -102 -13
-110 5 -130 17 -21 19 -21 32 -4 15 20 40 244 34 321 -3 50 -27 80 -56 69z"/>
<path d="M3020 4559 c-292 -11 -470 -26 -925 -80 -225 -26 -321 -42 -495 -80
-479 -105 -603 -121 -742 -99 -129 20 -162 19 -166 -6 -5 -32 39 -46 168 -54
203 -14 340 5 775 105 175 41 685 109 965 130 47 4 103 8 125 10 220 19 1233
26 1670 12 127 -4 334 -15 460 -24 284 -21 370 -22 387 -5 8 8 9 15 2 22 -16
16 -332 45 -701 65 -166 9 -1313 12 -1523 4z"/>
</g>
</svg>
