<?xml version="1.0" standalone="no"?>
<!DOCTYPE svg PUBLIC "-//W3C//DTD SVG 20010904//EN"
 "http://www.w3.org/TR/2001/REC-SVG-20010904/DTD/svg10.dtd">
<svg version="1.0" xmlns="http://www.w3.org/2000/svg"
 width="2448.000000pt" height="3264.000000pt" viewBox="0 0 2448.000000 3264.000000"
 preserveAspectRatio="xMidYMid meet">
<metadata>
Created by potrace 1.12, written by Peter Selinger 2001-2015
</metadata>
<g transform="translate(0.000000,3264.000000) scale(0.100000,-0.100000)"
fill="#000000" stroke="none">
<path d="M4755 32178 l-40 -21 29 -8 c19 -5 35 -4 43 2 7 6 20 8 29 5 26 -10
35 3 16 24 -20 25 -27 24 -77 -2z"/>
<path d="M5105 32149 c-8 -12 -6 -15 22 -23 25 -8 42 12 22 25 -19 12 -36 11
-44 -2z"/>
<path d="M5325 32120 c3 -5 15 -10 26 -10 10 0 19 5 19 10 0 6 -12 10 -26 10
-14 0 -23 -4 -19 -10z"/>
<path d="M7540 32065 c-19 -23 -3 -32 65 -39 91 -9 117 21 37 44 -52 14 -88
12 -102 -5z"/>
<path d="M1525 31910 c-3 -5 1 -10 10 -10 9 0 13 5 10 10 -3 6 -8 10 -10 10
-2 0 -7 -4 -10 -10z"/>
<path d="M11450 31900 c0 -5 5 -10 11 -10 5 0 7 5 4 10 -3 6 -8 10 -11 10 -2
0 -4 -4 -4 -10z"/>
<path d="M1678 31893 c7 -3 16 -2 19 1 4 3 -2 6 -13 5 -11 0 -14 -3 -6 -6z"/>
<path d="M11660 31880 c0 -5 7 -10 15 -10 8 0 15 5 15 10 0 6 -7 10 -15 10 -8
0 -15 -4 -15 -10z"/>
<path d="M14490 31790 c0 -5 5 -10 10 -10 6 0 10 5 10 10 0 6 -4 10 -10 10 -5
0 -10 -4 -10 -10z"/>
<path d="M14598 31783 c7 -3 16 -2 19 1 4 3 -2 6 -13 5 -11 0 -14 -3 -6 -6z"/>
<path d="M14980 31770 c20 -13 40 -13 40 0 0 6 -12 10 -27 10 -22 0 -25 -2
-13 -10z"/>
<path d="M16260 31730 c0 -5 5 -10 10 -10 6 0 10 5 10 10 0 6 -4 10 -10 10 -5
0 -10 -4 -10 -10z"/>
<path d="M16430 31720 c0 -5 5 -10 10 -10 6 0 10 5 10 10 0 6 -4 10 -10 10 -5
0 -10 -4 -10 -10z"/>
<path d="M16590 31720 c0 -5 5 -10 11 -10 5 0 7 5 4 10 -3 6 -8 10 -11 10 -2
0 -4 -4 -4 -10z"/>
<path d="M17855 31670 c3 -5 8 -10 11 -10 2 0 4 5 4 10 0 6 -5 10 -11 10 -5 0
-7 -4 -4 -10z"/>
<path d="M18095 31670 c-3 -5 3 -10 14 -10 11 0 23 5 26 10 3 6 -3 10 -14 10
-11 0 -23 -4 -26 -10z"/>
<path d="M19096 31641 c-9 -15 10 -22 39 -15 19 5 25 2 25 -10 0 -19 11 -21
28 -4 17 17 15 27 -5 27 -10 0 -32 2 -50 6 -17 3 -34 2 -37 -4z"/>
<path d="M19345 31641 c-6 -11 9 -23 19 -14 9 9 7 23 -3 23 -6 0 -12 -4 -16
-9z"/>
<path d="M19957 31624 c-9 -10 2 -24 19 -24 8 0 14 7 14 15 0 15 -21 21 -33 9z"/>
<path d="M19623 31613 c9 -2 23 -2 30 0 6 3 -1 5 -18 5 -16 0 -22 -2 -12 -5z"/>
<path d="M20340 31590 c0 -13 5 -20 13 -17 6 2 12 10 12 17 0 7 -6 15 -12 18
-8 2 -13 -5 -13 -18z"/>
<path d="M20420 31600 c0 -5 5 -10 10 -10 6 0 10 5 10 10 0 6 -4 10 -10 10 -5
0 -10 -4 -10 -10z"/>
<path d="M20535 31600 c3 -5 10 -10 16 -10 5 0 9 5 9 10 0 6 -7 10 -16 10 -8
0 -12 -4 -9 -10z"/>
<path d="M9460 31590 c0 -5 5 -10 10 -10 6 0 10 5 10 10 0 6 -4 10 -10 10 -5
0 -10 -4 -10 -10z"/>
<path d="M21200 31590 c0 -5 12 -10 28 -10 21 0 24 2 12 10 -20 13 -40 13 -40
0z"/>
<path d="M0 31565 c0 -22 4 -25 38 -25 20 -1 57 -3 82 -5 25 -2 110 -6 190 -9
80 -4 305 -13 500 -22 195 -8 409 -17 475 -20 66 -2 131 -6 145 -9 14 -2 106
-7 205 -10 99 -3 270 -9 380 -15 110 -5 295 -14 410 -20 116 -6 253 -12 305
-15 52 -2 142 -6 200 -9 58 -3 231 -11 385 -16 420 -16 508 -19 775 -30 135
-5 308 -12 385 -15 77 -3 257 -10 400 -15 143 -5 339 -12 435 -15 287 -9 731
-24 1280 -45 140 -5 332 -12 425 -15 245 -8 442 -15 580 -20 109 -4 481 -15
1020 -30 110 -4 256 -8 325 -10 69 -3 316 -12 550 -20 234 -8 506 -17 605 -20
99 -2 227 -7 285 -10 58 -3 200 -7 315 -10 116 -3 293 -8 395 -12 102 -4 192
-7 200 -6 34 4 80 4 175 -1 181 -10 327 -15 570 -21 132 -3 337 -10 455 -16
118 -6 276 -12 350 -14 74 -2 205 -6 290 -9 85 -3 245 -8 355 -11 110 -3 247
-7 305 -10 58 -3 161 -7 230 -10 69 -3 132 -8 142 -11 9 -3 19 0 23 6 4 6 12
7 24 1 10 -6 67 -13 127 -16 155 -9 185 -11 317 -20 83 -5 121 -4 131 4 17 14
380 9 931 -14 72 -2 198 -7 280 -10 83 -3 204 -7 270 -10 66 -2 197 -7 290
-10 94 -3 208 -7 255 -10 47 -3 184 -7 305 -10 121 -3 355 -10 520 -15 165 -6
388 -12 495 -15 107 -3 238 -7 290 -10 52 -2 176 -7 275 -10 99 -3 236 -7 305
-10 131 -6 300 -11 615 -20 105 -3 260 -7 345 -10 324 -11 543 -16 1120 -30
135 -3 281 -8 325 -10 44 -3 242 -7 440 -10 198 -3 430 -8 515 -11 85 -2 263
-6 394 -9 132 -3 247 -7 257 -10 10 -4 26 -2 36 3 10 5 48 6 88 2 43 -5 75 -4
82 2 7 5 16 7 21 4 5 -3 73 -7 152 -10 79 -3 152 -8 162 -11 9 -4 27 -1 38 5
11 6 26 8 32 4 16 -10 278 -12 307 -2 14 5 28 4 36 -2 8 -7 58 -10 134 -7 67
1 125 -1 130 -6 6 -6 20 1 36 17 14 14 28 26 30 26 11 0 4 -29 -7 -32 -7 -3 7
-8 31 -12 26 -4 48 -2 56 4 8 6 16 7 19 2 9 -15 86 -11 86 4 0 8 -9 14 -20 14
-13 0 -24 10 -31 26 -9 25 -11 26 -28 10 -19 -17 -61 -21 -76 -7 -20 18 -63
21 -69 6 -6 -16 -71 -21 -80 -6 -10 16 -55 18 -76 4 -21 -15 -56 -11 -46 5 3
5 -1 18 -9 28 -14 18 -14 16 -9 -13 8 -42 -20 -57 -46 -26 -22 28 -75 39 -83
19 -6 -16 -25 -16 -60 -1 -11 4 -29 2 -43 -6 -20 -10 -29 -10 -44 -1 -25 15
-31 15 -27 0 2 -15 -92 -12 -108 3 -12 12 -52 12 -60 -1 -9 -15 -45 -12 -51 5
-8 21 -23 19 -43 -7 l-18 -21 -46 19 c-30 12 -47 25 -47 36 0 20 -16 32 -30
23 -7 -4 -7 -11 -2 -18 5 -7 4 -21 -4 -36 l-12 -23 -11 21 c-7 11 -20 21 -31
21 -10 0 -21 4 -24 9 -3 5 -22 9 -41 8 -28 -1 -34 -4 -30 -18 7 -20 -17 -41
-38 -33 -9 3 -23 17 -32 31 -17 25 -34 27 -77 9 -11 -5 -18 -1 -23 13 -8 27
-19 27 -33 -1 -6 -13 -11 -17 -11 -10 -1 6 -5 12 -11 12 -5 0 -9 -3 -9 -7 3
-20 -2 -24 -16 -13 -12 10 -19 10 -27 2 -7 -7 -21 -12 -33 -12 -19 1 -19 1 -2
14 9 7 17 15 17 17 0 9 -46 2 -67 -9 -28 -16 -33 -15 -33 3 0 18 -12 19 -28 3
-16 -16 -63 -18 -89 -2 -12 7 -38 13 -57 12 -38 -1 -48 -13 -18 -22 9 -2 -10
-2 -43 1 -33 3 -62 8 -65 12 -6 7 -48 31 -55 31 -3 0 -5 -4 -5 -10 0 -5 7 -10
15 -10 8 0 15 -7 15 -15 0 -17 -16 -20 -25 -5 -3 6 -15 10 -25 10 -10 0 -21 6
-24 13 -3 8 -8 7 -16 -5 -6 -10 -17 -18 -25 -18 -8 0 -18 8 -24 18 -9 16 -11
15 -31 -5 -23 -26 -31 -28 -47 -12 -8 8 -17 8 -31 0 -14 -7 -23 -8 -27 -1 -3
5 -17 10 -31 10 -13 0 -24 5 -24 10 0 14 -17 12 -57 -7 -33 -15 -37 -15 -48 0
-9 13 -22 15 -56 11 -91 -10 -114 -10 -124 3 -13 18 -105 6 -105 -13 0 -22
-17 -16 -23 8 -5 19 -8 20 -23 7 -23 -19 -85 -22 -78 -4 5 11 -2 14 -25 12
-20 -1 -29 -6 -26 -14 2 -7 0 -13 -6 -13 -6 0 -13 9 -16 21 -5 17 -11 20 -35
15 -18 -3 -27 -2 -23 4 9 14 -12 12 -38 -4 -27 -17 -89 -15 -110 3 -18 14 -37
7 -37 -15 0 -16 -16 -19 -25 -4 -5 8 -11 8 -19 1 -8 -7 -26 -5 -56 4 -25 8
-77 18 -116 24 -39 6 -79 13 -90 17 -10 4 -16 4 -12 -1 9 -9 -9 -35 -23 -35
-5 0 -9 7 -9 15 0 21 -17 19 -37 -5 -21 -25 -39 -25 -53 -2 -8 12 -13 13 -16
5 -7 -16 -36 -17 -52 -1 -8 8 -15 8 -27 -2 -12 -10 -19 -10 -39 3 -17 11 -26
13 -34 5 -8 -8 -15 -8 -27 2 -13 11 -19 10 -34 -4 -18 -16 -20 -16 -29 -1 -8
16 -10 16 -15 1 -5 -11 -19 -16 -52 -16 -36 0 -51 5 -69 25 -28 30 -36 31 -36
5 0 -20 -11 -26 -24 -13 -4 4 -22 6 -41 4 -18 -1 -43 3 -54 9 -15 8 -27 8 -41
0 -14 -8 -26 -8 -40 0 -14 8 -25 7 -41 -2 -17 -10 -23 -10 -26 0 -3 6 -13 12
-23 12 -10 0 -22 5 -25 10 -7 12 -25 4 -25 -11 0 -5 8 -9 18 -9 14 0 14 -2 3
-9 -9 -6 -22 -6 -31 -1 -10 5 -50 8 -89 6 -68 -4 -73 -3 -83 20 -12 26 -38 33
-38 10 0 -17 -64 -29 -125 -24 -32 2 -39 7 -37 21 4 22 -14 22 -22 0 -5 -11
-10 -13 -17 -6 -11 11 -56 6 -64 -8 -3 -4 -19 -3 -36 3 -21 7 -37 7 -54 0 -16
-7 -26 -7 -34 1 -21 21 -207 29 -238 10 -23 -13 -89 -13 -111 0 -7 5 -21 5
-32 2 -11 -3 -40 3 -66 14 -28 13 -51 18 -58 13 -21 -17 -59 -21 -80 -9 -12 6
-43 13 -71 14 -27 2 -61 3 -75 4 -48 3 -217 -8 -227 -14 -5 -3 -27 2 -49 13
-69 34 -90 35 -118 6 -23 -22 -26 -23 -26 -6 0 23 -22 27 -155 30 -57 1 -114
8 -132 15 -18 8 -33 10 -33 5 0 -5 11 -12 25 -16 58 -14 2 -61 -61 -51 -20 4
-47 16 -60 28 -14 14 -31 20 -44 16 -11 -3 -23 -1 -26 4 -9 15 -27 10 -20 -6
7 -20 -23 -20 -38 0 -10 14 -15 14 -46 2 -19 -8 -50 -18 -67 -22 -27 -5 -33
-4 -33 10 0 11 -5 15 -14 12 -8 -3 -20 1 -26 9 -17 19 -33 18 -63 -6 -26 -21
-55 -18 -70 6 -10 18 -55 11 -71 -11 -12 -17 -15 -16 -54 6 -29 16 -45 21 -50
13 -25 -37 -82 -39 -146 -5 -28 15 -43 18 -52 10 -7 -6 -21 -10 -31 -9 -10 1
-20 2 -23 1 -29 -10 -86 -8 -104 4 -23 17 -56 20 -56 5 0 -14 -63 -13 -78 2
-8 8 -15 8 -26 -1 -16 -14 -71 -7 -93 11 -9 7 -18 6 -28 -2 -22 -18 -97 -16
-109 3 -8 13 -12 12 -26 -5 -13 -17 -20 -19 -36 -10 -14 7 -43 8 -96 1 -63 -9
-81 -8 -106 5 -21 11 -38 13 -60 7 -16 -5 -51 -7 -78 -4 -27 3 -148 6 -269 8
-341 4 -647 14 -680 22 -16 3 -42 5 -57 4 -16 -1 -28 2 -28 8 0 6 -7 11 -15
11 -8 0 -15 -4 -15 -8 0 -5 -141 -7 -312 -5 -579 6 -632 9 -665 36 -9 6 -13 6
-13 -2 0 -7 -17 -12 -42 -11 -24 0 -52 0 -63 0 -25 -1 -292 7 -475 15 -74 3
-200 7 -280 10 -290 10 -367 13 -760 30 -36 1 -73 6 -83 10 -10 4 -28 3 -40
-2 -14 -7 -48 -7 -92 -1 -38 5 -85 6 -102 3 -18 -3 -51 -1 -73 5 -26 7 -57 8
-89 2 -29 -5 -75 -5 -113 0 -78 12 -99 12 -296 9 -28 0 -63 4 -76 9 -15 5 -37
5 -60 -2 -25 -8 -40 -8 -47 -1 -6 6 -26 7 -50 3 -22 -4 -58 -4 -80 1 -39 9
-55 10 -169 8 -102 -2 -467 9 -545 16 -33 3 -188 8 -345 10 -157 3 -307 7
-335 9 -53 5 -412 17 -635 21 -74 1 -182 5 -240 9 -58 3 -204 9 -325 12 -211
5 -304 8 -625 19 -80 3 -226 7 -325 9 -99 3 -265 7 -370 10 -104 3 -298 8
-430 11 -132 3 -271 8 -310 10 -38 2 -151 6 -250 9 -99 3 -241 8 -315 11 -74
3 -216 8 -315 10 -190 6 -404 13 -570 20 -55 3 -167 7 -250 10 -82 3 -262 9
-400 15 -137 5 -331 12 -430 15 -99 4 -208 8 -242 10 -33 2 -141 7 -240 10
-168 5 -229 7 -448 20 -108 6 -219 11 -555 26 -140 5 -300 12 -355 15 -150 7
-253 11 -435 18 -222 9 -728 34 -925 46 -140 9 -654 29 -695 28 -8 0 -52 2
-97 6 l-83 6 0 -25z m18205 -604 c7 -12 -12 -24 -25 -16 -11 7 -4 25 10 25 5
0 11 -4 15 -9z m2965 -101 c0 -5 -4 -10 -10 -10 -5 0 -10 5 -10 10 0 6 5 10
10 10 6 0 10 -4 10 -10z"/>
<path d="M19830 31579 c0 -5 5 -7 10 -4 6 3 10 8 10 11 0 2 -4 4 -10 4 -5 0
-10 -5 -10 -11z"/>
<path d="M21360 31580 c0 -6 7 -10 15 -10 8 0 15 2 15 4 0 2 -7 6 -15 10 -8 3
-15 1 -15 -4z"/>
<path d="M21462 31574 c11 -11 25 -15 43 -10 36 9 22 26 -23 26 -34 0 -35 -1
-20 -16z"/>
<path d="M21550 31580 c0 -5 5 -10 10 -10 6 0 10 5 10 10 0 6 -4 10 -10 10 -5
0 -10 -4 -10 -10z"/>
<path d="M21310 31560 c0 -5 5 -10 10 -10 6 0 10 5 10 10 0 6 -4 10 -10 10 -5
0 -10 -4 -10 -10z"/>
<path d="M22072 31559 c2 -6 8 -10 13 -10 5 0 11 4 13 10 2 6 -4 11 -13 11 -9
0 -15 -5 -13 -11z"/>
<path d="M22230 31561 c0 -8 48 -21 79 -21 13 1 13 3 -3 15 -21 16 -76 20 -76
6z"/>
<path d="M22435 31560 c-3 -5 1 -10 9 -10 9 0 16 5 16 10 0 6 -4 10 -9 10 -6
0 -13 -4 -16 -10z"/>
<path d="M22605 31560 c-7 -12 2 -30 16 -30 5 0 9 9 9 20 0 21 -15 27 -25 10z"/>
<path d="M10640 31550 c0 -5 5 -10 10 -10 6 0 10 5 10 10 0 6 -4 10 -10 10 -5
0 -10 -4 -10 -10z"/>
<path d="M22700 31556 c0 -9 40 -13 46 -5 3 5 -6 9 -20 9 -14 0 -26 -2 -26 -4z"/>
<path d="M22850 31551 c0 -10 36 -21 44 -14 3 3 3 10 0 14 -7 12 -44 12 -44 0z"/>
<path d="M23120 31550 c0 -5 5 -10 10 -10 6 0 10 5 10 10 0 6 -4 10 -10 10 -5
0 -10 -4 -10 -10z"/>
<path d="M10718 31543 c7 -3 16 -2 19 1 4 3 -2 6 -13 5 -11 0 -14 -3 -6 -6z"/>
<path d="M22930 31540 c0 -5 4 -10 9 -10 6 0 13 5 16 10 3 6 -1 10 -9 10 -9 0
-16 -4 -16 -10z"/>
<path d="M22975 31540 c3 -5 10 -10 16 -10 5 0 9 5 9 10 0 6 -7 10 -16 10 -8
0 -12 -4 -9 -10z"/>
<path d="M23175 31541 c-3 -5 -1 -12 4 -15 5 -3 11 1 15 9 6 16 -9 21 -19 6z"/>
<path d="M23465 31540 c3 -5 12 -10 20 -10 8 0 17 5 20 10 4 6 -5 10 -20 10
-15 0 -24 -4 -20 -10z"/>
<path d="M23715 31530 c3 -5 10 -10 16 -10 5 0 9 5 9 10 0 6 -7 10 -16 10 -8
0 -12 -4 -9 -10z"/>
<path d="M23780 31530 c0 -5 5 -10 10 -10 6 0 10 5 10 10 0 6 -4 10 -10 10 -5
0 -10 -4 -10 -10z"/>
<path d="M23892 31520 c0 -14 2 -19 5 -12 2 6 2 18 0 25 -3 6 -5 1 -5 -13z"/>
<path d="M23958 31527 c-15 -12 -15 -14 3 -25 26 -17 29 -15 29 13 0 28 -7 30
-32 12z"/>
<path d="M23250 31506 c0 -9 5 -16 10 -16 6 0 10 4 10 9 0 6 -4 13 -10 16 -5
3 -10 -1 -10 -9z"/>
<path d="M12200 31500 c0 -5 5 -10 10 -10 6 0 10 5 10 10 0 6 -4 10 -10 10 -5
0 -10 -4 -10 -10z"/>
<path d="M16615 31420 c3 -5 8 -10 11 -10 2 0 4 5 4 10 0 6 -5 10 -11 10 -5 0
-7 -4 -4 -10z"/>
<path d="M14650 31079 c0 -5 5 -7 10 -4 6 3 10 8 10 11 0 2 -4 4 -10 4 -5 0
-10 -5 -10 -11z"/>
<path d="M17180 31061 c0 -11 4 -21 9 -21 18 0 21 18 6 30 -13 10 -15 9 -15
-9z"/>
<path d="M21220 30900 c0 -5 7 -10 16 -10 8 0 12 5 9 10 -3 6 -10 10 -16 10
-5 0 -9 -4 -9 -10z"/>
<path d="M4695 30886 c-171 -46 -338 -145 -392 -234 -55 -91 -65 -114 -66
-160 -2 -45 0 -48 35 -65 35 -17 72 -19 410 -20 351 -2 375 -3 413 -22 35 -17
40 -25 43 -57 3 -33 -3 -44 -44 -88 -110 -118 -466 -309 -546 -293 -38 8 -61
-13 -53 -47 6 -25 3 -28 -32 -34 -21 -3 -83 -6 -138 -6 -99 -1 -362 -31 -384
-44 -6 -4 -11 -18 -11 -31 0 -37 30 -48 98 -36 31 6 138 17 237 26 99 8 218
19 265 24 47 6 135 12 195 15 61 3 187 9 280 15 179 11 685 27 1145 36 151 3
347 9 435 15 88 5 259 12 380 15 121 3 378 13 570 21 331 14 1455 20 1680 9
115 -6 2021 -20 2475 -19 555 2 1748 13 1965 19 110 3 281 12 380 19 132 10
228 12 360 5 278 -13 560 -33 780 -53 22 -2 128 -7 235 -11 190 -7 220 -13
220 -41 0 -26 -119 -132 -155 -138 -27 -5 -36 -13 -41 -33 -9 -36 7 -57 45
-61 28 -3 41 5 89 50 31 29 81 83 110 120 29 38 61 68 70 68 9 0 53 -9 97 -20
178 -45 584 -102 825 -115 87 -5 377 -25 715 -50 184 -14 322 -35 434 -66 40
-11 84 -18 97 -15 29 8 43 51 23 72 -21 20 -293 70 -459 83 -80 7 -221 18
-315 26 -167 14 -368 29 -555 40 -148 9 -385 35 -474 51 -45 8 -135 22 -201
31 -66 8 -124 19 -128 23 -12 10 4 39 53 95 63 72 68 128 13 133 -22 2 -38 -4
-55 -21 -40 -41 -87 -69 -151 -88 -134 -41 -217 -9 -192 72 12 35 96 120 140
140 52 24 87 24 136 -2 53 -27 103 -23 107 9 11 78 -169 122 -283 68 -57 -26
-149 -118 -170 -171 -24 -55 -19 -97 15 -140 16 -21 30 -42 30 -46 0 -8 -83
-4 -136 6 -11 3 -74 7 -140 10 -65 3 -159 10 -209 15 -166 17 -359 30 -442 29
-88 -1 -103 3 -103 29 0 22 102 237 156 329 56 96 60 108 33 126 -23 16 -43
13 -71 -11 -16 -14 -102 -220 -129 -312 -7 -23 -18 -44 -25 -47 -7 -2 -41 24
-76 59 -65 65 -114 88 -188 88 -45 0 -108 -29 -130 -60 -35 -49 -27 -81 35
-139 30 -29 55 -54 55 -56 0 -7 -220 -15 -545 -20 -187 -2 -354 -7 -372 -11
-18 -3 -44 -3 -59 0 l-26 7 8 72 c22 198 -16 255 -165 244 -60 -5 -90 -13
-149 -43 -67 -34 -75 -36 -84 -21 -5 9 -17 17 -27 17 -32 0 -60 -39 -82 -113
-15 -54 -32 -85 -62 -119 l-42 -47 -107 -7 c-81 -5 -108 -3 -108 6 0 6 24 34
54 61 69 63 96 119 96 200 0 59 -2 64 -40 100 -37 35 -90 59 -132 59 -26 0
-48 -38 -37 -64 8 -18 2 -30 -46 -81 -114 -124 -135 -180 -87 -244 12 -17 22
-35 22 -41 0 -12 -306 -14 -314 -1 -3 4 6 23 20 42 70 91 101 232 67 298 -43
82 -120 101 -406 100 -206 -2 -247 -9 -247 -43 0 -33 29 -39 163 -37 334 7
386 1 407 -49 18 -45 -8 -157 -53 -223 -11 -16 -17 -40 -15 -60 3 -30 1 -32
-27 -30 -16 1 -309 5 -650 8 -341 3 -836 7 -1100 10 -1182 13 -2112 12 -2335
0 -124 -7 -333 -16 -465 -20 -132 -3 -274 -8 -315 -10 -41 -3 -138 -7 -215
-10 -77 -2 -196 -7 -265 -10 -69 -3 -267 -7 -440 -10 -173 -3 -362 -8 -420
-10 -58 -3 -184 -7 -280 -10 -96 -3 -247 -12 -335 -20 -88 -8 -177 -15 -197
-15 -42 0 -51 15 -15 26 67 21 331 152 395 196 82 56 133 111 163 173 46 96
36 146 -39 184 -58 29 -106 33 -462 40 -367 7 -380 9 -380 64 0 73 160 182
325 222 143 34 162 36 234 30 122 -10 191 -53 191 -120 0 -27 4 -35 18 -35 50
0 55 110 7 160 -51 53 -117 74 -245 76 -71 2 -134 -2 -165 -10z m7619 -608 c9
-12 16 -32 16 -44 0 -41 -31 -109 -67 -146 -57 -58 -143 -62 -143 -7 0 10 30
53 66 96 36 43 71 88 76 101 14 28 33 28 52 0z m654 -55 c17 -43 23 -113 14
-173 l-7 -55 -177 -2 c-98 0 -180 3 -183 7 -10 15 16 63 50 96 103 97 198 154
256 154 31 0 38 -5 47 -27z m1244 -43 c52 -23 108 -76 108 -102 0 -38 -166
-17 -227 29 -87 64 8 123 119 73z m1508 -212 c-1 -39 -42 -56 -97 -42 -30 8
-29 20 5 38 34 19 92 21 92 4z"/>
<path d="M9288 30827 c-36 -30 -42 -51 -48 -155 l-5 -107 -86 -45 c-48 -25
-94 -51 -103 -59 -24 -20 -20 -50 9 -63 22 -10 30 -7 64 20 51 41 89 58 101
46 5 -5 0 -47 -12 -104 -30 -139 -33 -183 -13 -200 13 -11 18 -11 30 1 13 14
57 196 71 294 3 28 11 56 17 64 19 22 111 60 173 69 118 19 138 -19 89 -172
-26 -83 -46 -120 -107 -202 -43 -57 -49 -97 -17 -114 27 -15 80 21 156 105
119 132 292 260 316 236 7 -7 -3 -35 -27 -80 -48 -91 -56 -146 -26 -183 17
-23 29 -28 64 -28 30 0 48 6 61 20 11 12 31 20 52 20 23 0 35 5 39 18 3 9 12
33 19 52 40 106 60 217 45 254 -6 17 -6 35 0 51 7 18 5 28 -6 40 -9 8 -18 15
-21 15 -3 0 -40 -20 -82 -44 -42 -24 -115 -62 -162 -84 -48 -23 -124 -72 -174
-112 -48 -39 -89 -69 -92 -66 -2 2 8 42 23 88 16 49 27 107 28 141 1 55 -2 61
-33 89 -33 30 -36 30 -107 25 -40 -4 -98 -16 -129 -28 -78 -29 -83 -22 -61 85
10 46 15 89 12 95 -14 22 -43 31 -58 18z m782 -370 c0 -7 -10 -43 -22 -81 -25
-76 -85 -155 -107 -141 -20 11 -7 82 24 138 47 83 105 130 105 84z"/>
<path d="M11207 30813 c-25 -7 -69 -87 -65 -120 3 -26 6 -28 48 -28 37 0 46 4
57 25 19 37 17 116 -3 124 -9 3 -16 5 -17 5 -1 -1 -10 -3 -20 -6z"/>
<path d="M7087 30793 c-19 -22 -31 -68 -53 -207 -16 -103 -20 -111 -60 -159
-46 -54 -62 -107 -50 -171 8 -42 28 -60 60 -52 24 6 24 5 58 143 6 24 17 48
24 54 15 12 212 48 230 42 6 -2 17 -16 23 -31 45 -99 105 -138 257 -166 114
-20 155 -20 180 -1 19 15 19 15 -1 30 -23 18 -59 28 -173 50 -127 23 -192 65
-192 122 0 24 -3 23 185 43 120 13 162 25 175 51 27 49 -27 110 -114 130 -121
27 -288 -42 -312 -128 -7 -26 -15 -29 -109 -43 -95 -13 -115 -12 -121 5 -4 8
7 57 24 108 44 134 47 155 26 178 -21 24 -36 24 -57 2z m566 -202 c17 -17 -3
-27 -77 -40 -141 -23 -166 -24 -166 -7 0 19 39 46 83 57 44 11 145 5 160 -10z"/>
<path d="M5655 30729 c-23 -28 -26 -39 -21 -74 11 -78 17 -220 9 -230 -4 -6
-28 -23 -52 -40 -52 -35 -70 -67 -51 -90 18 -22 31 -19 56 13 12 15 26 24 30
19 4 -4 2 -42 -4 -85 -18 -115 -16 -201 4 -209 26 -10 41 20 48 100 11 107 35
239 47 254 10 12 31 19 172 58 94 26 260 56 290 53 29 -3 29 -3 -27 -42 -80
-55 -163 -148 -176 -197 -10 -37 -9 -44 11 -65 18 -20 32 -24 78 -24 97 0 199
51 320 160 39 36 77 65 84 65 8 0 14 -26 17 -80 3 -44 11 -90 17 -102 35 -60
117 -82 164 -44 20 16 21 21 10 35 -7 9 -27 16 -43 16 -17 0 -39 10 -53 25
-31 30 -33 89 -8 210 14 69 15 86 4 99 -22 26 -48 19 -70 -20 -58 -98 -105
-138 -276 -238 -82 -48 -175 -67 -175 -36 0 19 70 108 107 136 38 29 227 114
284 128 15 3 29 12 32 21 9 21 -22 47 -47 41 -12 -3 -70 -10 -131 -16 -210
-22 -376 -50 -468 -80 -50 -16 -95 -26 -99 -22 -3 4 -3 54 1 112 9 140 4 174
-30 178 -20 2 -33 -5 -54 -29z"/>
<path d="M10938 30586 c-130 -50 -165 -142 -113 -291 14 -38 25 -79 25 -91 0
-31 -33 -56 -83 -61 -41 -5 -48 -2 -83 30 l-39 36 0 128 0 128 -26 3 c-22 3
-38 -9 -90 -67 -34 -39 -67 -67 -72 -64 -5 3 -7 27 -4 54 5 37 2 52 -10 64
-13 14 -18 14 -37 2 -22 -15 -27 -27 -47 -117 -6 -30 -22 -73 -35 -96 -28 -48
-29 -57 -8 -78 29 -29 58 -19 110 38 27 29 57 65 67 80 33 48 52 35 67 -46 15
-87 27 -107 82 -138 106 -61 298 1 298 96 0 17 -11 74 -24 125 -14 52 -22 106
-19 121 13 69 117 113 158 68 27 -30 16 -184 -19 -272 -30 -74 -32 -100 -11
-118 13 -11 20 -9 41 11 59 54 89 156 89 296 0 101 0 103 -31 134 -26 26 -40
31 -90 35 -36 2 -73 -2 -96 -10z"/>
<path d="M11893 30570 c-35 -21 -78 -93 -69 -116 3 -7 17 -16 32 -20 23 -6 33
0 69 40 33 35 50 46 73 46 63 0 81 25 40 54 -31 22 -106 20 -145 -4z"/>
<path d="M14827 30533 c-25 -28 -21 -41 16 -59 24 -12 42 -13 67 -7 41 11 45
21 22 51 -25 32 -82 40 -105 15z"/>
<path d="M8321 30501 c-26 -26 -27 -47 -3 -59 21 -10 376 -6 447 5 53 9 72 33
38 51 -10 5 -118 13 -240 16 -216 7 -222 7 -242 -13z"/>
<path d="M15137 30349 c-11 -6 -25 -26 -33 -44 -8 -20 -31 -44 -59 -62 -180
-113 -201 -131 -178 -154 6 -6 28 -13 49 -16 31 -4 52 2 106 31 l67 36 29 -25
c45 -37 82 -49 100 -31 14 13 12 20 -13 55 -26 38 -27 43 -15 83 6 24 14 58
17 76 8 52 -25 77 -70 51z"/>
<path d="M11452 30313 c-20 -8 -92 -159 -92 -192 0 -32 20 -54 41 -46 35 13
104 168 97 216 -3 24 -21 32 -46 22z"/>
<path d="M14658 30287 c-65 -68 -119 -142 -116 -160 6 -43 32 -42 89 2 74 58
111 108 107 146 -4 41 -47 47 -80 12z"/>
<path d="M17062 30260 c-28 -12 -46 -54 -65 -155 -19 -96 -10 -122 46 -144 33
-12 41 -12 76 3 20 10 58 35 82 57 67 60 94 51 77 -25 -12 -55 -2 -89 31 -109
55 -32 91 -17 185 80 76 77 91 76 98 -12 7 -79 59 -130 96 -93 8 8 12 53 12
135 0 110 -2 125 -20 143 -39 39 -76 23 -179 -79 -127 -124 -153 -122 -121 12
11 47 18 98 14 111 -13 54 -70 42 -131 -28 -47 -53 -136 -116 -165 -116 -18 0
-20 4 -14 39 3 21 15 58 26 82 23 51 25 80 8 97 -14 14 -24 14 -56 2z"/>
<path d="M19207 30252 c-18 -20 -23 -42 -8 -42 5 0 14 6 21 14 6 8 21 16 33
18 29 4 24 22 -6 26 -13 2 -30 -5 -40 -16z"/>
<path d="M16665 30248 c-131 -15 -191 -31 -260 -71 -218 -124 -284 -193 -242
-251 17 -23 48 -17 63 12 37 74 217 197 347 237 69 22 90 25 101 15 21 -17 4
-46 -53 -94 -50 -42 -91 -93 -91 -112 0 -7 14 -22 30 -34 39 -28 65 -22 125
30 25 22 48 40 51 40 2 0 22 -16 43 -36 30 -26 47 -35 68 -32 38 4 42 36 8 68
-30 28 -33 70 -10 144 13 44 13 52 0 72 -16 25 -49 27 -180 12z"/>
<path d="M19380 30235 c0 -9 7 -18 15 -21 10 -4 12 -15 8 -34 -5 -25 -2 -30
21 -36 23 -5 37 -24 18 -24 -4 0 -13 -10 -21 -21 -11 -19 -10 -25 8 -50 12
-15 21 -35 21 -44 0 -12 6 -15 23 -9 32 10 36 22 30 78 -3 34 -12 56 -24 65
-11 7 -19 19 -19 27 0 7 -8 17 -17 23 -14 8 -15 12 -4 25 11 13 9 17 -14 26
-36 14 -45 13 -45 -5z"/>
<path d="M19152 30033 c4 -22 43 -25 43 -3 0 8 -11 16 -23 18 -19 3 -23 0 -20
-15z"/>
<path d="M14179 29680 c-27 -16 -88 -162 -105 -250 -8 -47 -22 -116 -30 -155
-27 -128 -28 -142 -7 -154 15 -7 25 -6 40 4 24 17 27 25 58 205 21 121 30 150
69 226 41 79 45 90 32 108 -16 24 -34 30 -57 16z"/>
<path d="M12995 28689 c-38 -3 -95 -12 -125 -21 -30 -9 -76 -20 -102 -26 -61
-12 -261 -123 -347 -192 -282 -228 -401 -339 -526 -495 -40 -49 -111 -137
-159 -195 -48 -58 -103 -130 -123 -160 -115 -174 -179 -269 -204 -301 -41 -53
-184 -345 -210 -429 -24 -79 -17 -120 20 -120 27 0 37 16 57 100 10 41 35 105
56 141 21 36 43 81 50 100 17 48 72 140 144 239 34 47 86 126 117 175 31 50
75 113 99 141 24 28 57 68 73 90 17 21 46 57 66 79 19 22 50 60 69 85 76 100
151 178 280 289 234 203 325 269 455 332 169 82 273 103 500 101 556 -3 1059
-74 1655 -232 289 -77 466 -138 655 -225 83 -38 355 -199 440 -260 216 -156
439 -468 495 -695 54 -215 45 -456 -26 -730 -48 -186 -124 -393 -181 -494 -59
-103 -67 -108 -143 -81 -100 35 -417 66 -615 60 -174 -6 -433 -31 -486 -46
-43 -13 -64 -32 -54 -49 9 -15 44 -13 143 9 214 47 486 51 792 11 271 -35 373
-63 554 -152 125 -62 210 -125 244 -181 78 -125 31 -352 -97 -470 -79 -72
-201 -154 -263 -176 -93 -33 -264 -74 -383 -93 -121 -19 -520 -16 -685 5 -212
27 -323 49 -349 69 -13 10 -35 18 -48 18 -36 0 -109 46 -147 94 -69 84 -83
140 -60 230 25 96 69 169 160 260 71 72 208 176 231 176 4 0 30 11 58 24 124
60 288 89 375 66 25 -6 62 -22 82 -36 21 -13 42 -24 47 -24 17 0 21 33 6 56
-19 29 -155 74 -225 74 -109 0 -302 -60 -388 -121 -35 -25 -46 -28 -57 -19 -8
7 -15 19 -15 27 0 31 -119 130 -251 209 -163 98 -190 110 -218 94 -12 -6 -21
-14 -21 -19 0 -19 43 -61 64 -61 12 0 53 -15 91 -34 80 -38 265 -159 277 -180
5 -8 4 -25 -1 -38 -27 -70 -165 -153 -380 -227 -78 -28 -149 -55 -157 -62 -22
-18 -13 -52 17 -63 19 -6 38 -2 82 19 109 51 252 104 261 95 4 -4 -14 -41 -41
-82 -88 -131 -99 -184 -61 -285 17 -42 40 -75 85 -121 35 -34 63 -66 63 -72 0
-11 -12 -15 -137 -39 -56 -11 -141 -31 -190 -45 -48 -14 -162 -41 -253 -61
-91 -20 -195 -45 -231 -56 -75 -22 -109 -50 -93 -77 17 -26 49 -26 122 2 75
28 319 100 372 110 19 4 69 15 110 26 400 101 394 100 404 74 7 -19 -60 -223
-101 -309 -16 -33 -46 -91 -67 -128 -35 -63 -37 -70 -23 -85 23 -23 60 -3 94
50 50 79 123 255 148 353 13 53 26 99 29 102 3 3 63 -6 133 -21 75 -16 176
-29 243 -32 187 -8 200 -11 200 -41 0 -54 -44 -212 -86 -307 -57 -129 -154
-304 -211 -380 -201 -264 -625 -681 -938 -921 -349 -268 -627 -440 -1135 -703
-606 -314 -1370 -574 -2070 -706 -74 -14 -157 -30 -185 -35 -27 -6 -88 -15
-135 -21 -46 -7 -87 -13 -90 -15 -4 -2 -62 -11 -131 -20 -68 -8 -169 -22 -224
-30 -205 -29 -265 -36 -273 -31 -5 3 -26 1 -48 -4 -46 -10 -360 -29 -631 -37
-269 -7 -846 29 -1078 68 -465 78 -552 96 -800 164 -711 196 -1192 479 -1729
1020 -180 181 -273 294 -368 447 -58 93 -140 249 -168 319 -10 26 -28 68 -40
95 -12 27 -28 64 -36 83 -34 78 -117 347 -140 456 -54 247 -67 533 -29 655 26
85 25 103 -8 114 -45 16 -53 -5 -62 -171 -13 -232 -7 -325 30 -528 21 -115
125 -472 145 -500 4 -5 20 -44 35 -85 47 -127 179 -390 253 -501 196 -297 678
-757 1022 -977 136 -87 385 -224 455 -252 33 -13 78 -32 100 -43 129 -64 549
-194 780 -242 187 -39 223 -46 280 -55 33 -5 110 -18 170 -29 61 -11 151 -25
200 -31 50 -5 108 -12 130 -15 572 -67 1296 -48 1960 51 94 14 206 29 250 35
44 5 98 13 121 19 22 5 124 26 225 45 101 20 222 45 269 56 47 11 99 23 115
26 17 3 80 19 140 35 61 17 142 38 180 48 618 158 1279 439 1940 826 263 154
515 330 777 544 109 90 176 150 377 335 75 69 331 354 399 445 83 108 107 149
187 305 82 160 108 233 130 359 9 50 21 96 28 104 9 11 29 13 87 9 135 -9 400
20 540 60 85 24 238 92 312 139 95 61 188 157 222 229 58 125 69 264 28 358
-11 25 -51 76 -89 114 -88 90 -205 155 -375 210 -25 7 -22 39 6 87 30 51 133
296 146 345 5 20 18 68 30 106 60 202 73 289 74 505 0 168 -3 218 -18 275 -70
273 -241 535 -481 739 -109 93 -434 288 -590 355 -120 50 -303 112 -560 186
-207 60 -648 154 -850 181 -310 42 -380 47 -905 67 -36 1 -96 -1 -135 -4z"/>
<path d="M14123 27092 c-11 -7 -50 -95 -133 -307 -41 -103 -102 -311 -104
-350 -1 -28 2 -30 36 -33 35 -3 37 -1 47 35 5 21 13 56 16 78 19 117 72 269
152 437 40 85 45 101 35 123 -12 25 -27 31 -49 17z"/>
<path d="M7875 27050 c-87 -10 -145 -55 -170 -133 -8 -27 -23 -38 -97 -74 -88
-42 -119 -73 -134 -130 -9 -34 24 -129 58 -168 71 -82 193 -126 345 -128 83 0
116 4 173 24 88 30 155 79 195 143 25 42 30 59 30 115 0 89 -33 157 -115 238
-93 93 -175 125 -285 113z m109 -56 c59 -20 143 -97 180 -164 35 -65 45 -153
23 -197 -22 -42 -77 -88 -150 -124 -130 -66 -329 -44 -422 47 -86 83 -81 179
13 237 54 34 198 87 237 87 34 0 34 0 37 -52 3 -46 6 -53 26 -56 18 -3 26 4
37 32 39 92 -12 140 -117 113 -21 -6 -30 -3 -38 13 -9 17 -6 25 19 50 35 35
80 39 155 14z"/>
<path d="M2168 26979 c-10 -5 -18 -18 -18 -27 1 -44 78 -94 245 -160 111 -43
122 -46 315 -98 219 -58 548 -170 722 -244 231 -100 398 -196 398 -229 0 -13
-39 -36 -108 -65 -34 -15 -88 -43 -120 -63 -31 -20 -77 -48 -101 -61 -81 -43
-153 -95 -163 -118 -16 -34 -2 -73 28 -80 19 -5 34 1 62 23 79 63 153 107 386
233 39 21 96 52 126 69 55 31 94 39 105 22 3 -6 -11 -48 -30 -96 -48 -116 -54
-185 -25 -293 52 -193 243 -343 515 -407 104 -24 382 -18 555 11 184 32 422
93 540 138 106 42 100 43 198 -46 37 -33 101 -84 142 -112 83 -56 338 -216
345 -216 2 0 73 -38 157 -83 156 -85 303 -163 598 -315 750 -387 1183 -638
1381 -799 90 -74 123 -91 134 -73 27 43 -107 161 -375 330 -177 112 -534 308
-1045 575 -145 76 -265 139 -370 195 -38 21 -149 79 -245 130 -303 160 -553
315 -683 423 -70 58 -64 71 59 127 127 57 162 78 250 157 l71 63 53 -10 c74
-14 142 -12 235 5 151 29 820 97 1170 119 132 9 285 18 340 22 129 8 1601 15
1638 8 15 -3 27 -10 27 -15 0 -10 -62 -43 -195 -104 -49 -23 -130 -61 -180
-84 -49 -24 -99 -46 -110 -51 -87 -32 -115 -51 -115 -74 0 -34 11 -38 67 -26
61 13 503 232 608 302 68 45 89 53 140 58 53 4 60 8 63 27 3 17 -3 26 -22 32
-15 6 -32 27 -44 55 -25 56 -52 74 -160 101 -181 47 -295 66 -382 63 l-85 -3
0 -35 0 -35 58 3 c64 4 157 -8 317 -40 163 -32 213 -59 176 -96 -18 -18 -47
-19 -841 -11 -795 7 -1195 -8 -1895 -72 -392 -35 -439 -41 -605 -70 -193 -33
-215 -21 -156 91 36 69 45 132 31 212 -36 200 -216 391 -445 472 -231 82 -581
113 -820 72 -49 -8 -135 -22 -190 -31 -143 -22 -250 -52 -325 -88 -54 -27 -66
-37 -70 -61 -3 -21 -16 -36 -40 -50 -104 -59 -174 -113 -234 -178 -63 -69 -67
-72 -81 -54 -8 11 -17 34 -21 51 -8 43 -78 110 -179 171 -44 26 -103 62 -131
79 -71 43 -178 127 -251 198 -44 43 -69 60 -88 60 -57 0 -53 -41 12 -113 66
-74 203 -178 348 -265 252 -152 256 -156 197 -216 -62 -61 -110 -54 -215 32
-65 53 -311 179 -472 243 -146 57 -419 150 -575 195 -254 74 -393 123 -478
168 -89 46 -97 48 -124 32z m3447 -275 c268 -36 447 -115 554 -244 77 -93 96
-140 95 -240 -1 -183 -88 -295 -359 -457 -138 -82 -205 -112 -385 -170 -205
-66 -250 -79 -345 -97 -186 -35 -239 -40 -405 -41 -201 0 -287 15 -409 71
-154 71 -239 147 -266 238 -33 110 -11 271 51 381 52 92 247 265 374 331 30
16 66 36 80 46 14 9 68 31 120 50 91 32 102 33 243 33 119 1 150 4 157 15 6 8
7 22 3 30 -3 8 -8 27 -11 42 l-4 27 123 3 c167 4 254 0 384 -18z"/>
<path d="M5183 26212 c-12 -16 -52 -46 -89 -68 -69 -39 -134 -109 -134 -143 0
-28 43 -84 75 -100 74 -36 238 -18 317 34 52 35 71 76 66 142 -4 44 -11 60
-38 88 -39 40 -108 75 -148 75 -19 0 -35 -9 -49 -28z m125 -75 c80 -85 21
-185 -118 -202 -92 -11 -161 31 -146 89 12 48 152 132 227 135 8 1 25 -10 37
-22z"/>
<path d="M10960 26975 c-12 -15 -2 -125 27 -292 l5 -31 -79 -7 c-99 -8 -260
-49 -339 -86 -227 -106 -440 -327 -555 -575 -52 -115 -69 -187 -70 -291 0
-106 18 -170 66 -238 91 -127 225 -183 493 -207 225 -20 504 11 1100 121 57
10 111 26 121 35 11 10 35 16 67 16 27 0 71 9 99 20 27 10 82 31 120 46 39 14
111 47 160 72 168 86 241 145 285 232 11 22 30 46 43 54 38 24 178 36 526 42
463 9 763 -10 1171 -77 159 -26 330 -58 340 -64 16 -10 42 22 36 43 -8 23 -44
37 -121 47 -27 4 -124 20 -215 35 -166 29 -313 49 -515 71 -160 17 -969 14
-1094 -5 -52 -8 -100 -12 -107 -9 -13 5 -24 48 -24 93 0 84 -74 222 -170 316
-112 109 -230 174 -420 230 -162 47 -187 52 -295 59 -49 3 -96 8 -102 10 -26
9 -12 37 42 87 59 55 115 152 115 199 0 29 -31 56 -50 44 -6 -4 -24 -33 -40
-65 -40 -79 -78 -120 -158 -173 -85 -55 -139 -74 -231 -81 -129 -9 -151 19
-151 192 0 51 -5 103 -11 115 -21 39 -48 48 -69 22z m703 -404 c318 -69 467
-134 593 -258 43 -43 92 -100 109 -128 104 -176 100 -309 -13 -423 -118 -119
-262 -198 -472 -257 -52 -15 -101 -32 -108 -38 -7 -6 -33 -9 -57 -9 -24 1 -56
-3 -72 -9 -41 -15 -110 -28 -268 -49 -77 -10 -183 -25 -235 -34 -169 -26 -422
-46 -535 -42 -411 16 -584 136 -569 397 8 126 33 207 101 325 112 191 245 325
429 429 80 46 124 57 124 31 0 -8 -4 -18 -10 -21 -15 -9 -12 -45 3 -45 8 0 24
12 38 26 34 36 108 72 197 95 103 26 157 25 207 -6 49 -30 60 -30 91 -6 14 11
42 22 63 26 20 3 55 12 77 20 61 22 112 18 307 -24z"/>
<path d="M11096 26122 c-7 -22 -40 -212 -63 -360 -14 -91 -14 -105 -1 -118 22
-22 47 -7 57 35 5 20 23 123 40 230 32 202 31 231 -9 231 -10 0 -21 -8 -24
-18z"/>
<path d="M20122 26703 c-33 -47 -35 -70 -12 -108 22 -36 50 -45 68 -22 8 10
17 104 13 145 -2 23 -49 13 -69 -15z"/>
<path d="M23268 26687 c-10 -7 -20 -45 -28 -97 -6 -47 -18 -125 -25 -175 -8
-49 -17 -122 -20 -162 -7 -73 -28 -113 -61 -113 -9 0 -28 -9 -44 -20 -56 -40
-40 -92 21 -71 45 15 52 6 44 -53 -15 -112 -16 -124 -4 -132 25 -15 49 35 49
101 0 119 6 123 195 134 92 5 110 9 113 23 2 9 -7 27 -19 39 -21 21 -27 21
-135 15 l-114 -7 0 24 c0 13 9 59 20 103 18 68 32 155 57 341 4 34 2 43 -14
52 -15 7 -24 7 -35 -2z"/>
<path d="M20691 26416 c-18 -21 -15 -72 12 -266 14 -96 28 -209 32 -250 10
-129 15 -168 21 -184 8 -20 38 -21 58 -1 18 18 56 118 56 148 1 48 84 320 119
387 20 38 53 70 71 70 17 0 40 -43 58 -110 15 -53 52 -177 75 -250 40 -128 57
-170 82 -210 20 -32 31 -40 55 -40 16 0 32 5 36 11 3 6 -12 48 -35 93 -36 71
-59 138 -155 450 -13 45 -33 82 -53 104 -28 30 -37 34 -65 28 -70 -14 -123
-95 -178 -276 -46 -150 -56 -175 -71 -175 -11 0 -18 50 -32 220 -10 121 -23
230 -28 243 -10 25 -41 29 -58 8z"/>
<path d="M20166 26308 c-9 -12 -16 -38 -16 -58 0 -41 23 -224 44 -356 8 -50
20 -136 25 -191 12 -111 16 -129 36 -137 28 -10 45 23 45 87 0 57 -25 228 -51
352 -5 28 -13 106 -16 175 -3 69 -10 131 -16 138 -14 18 -34 15 -51 -10z"/>
<path d="M21853 26279 c-56 -16 -99 -98 -133 -249 -6 -30 -16 -71 -21 -91 -5
-20 -9 -52 -9 -70 0 -19 -4 -50 -9 -69 -25 -93 -43 -339 -39 -522 5 -198 10
-218 53 -218 44 0 50 34 37 208 -13 169 -15 353 -6 390 5 19 13 22 50 22 97 0
187 75 250 207 40 86 44 140 14 234 -24 77 -45 111 -90 144 -36 27 -47 28 -97
14z m84 -98 c75 -111 52 -261 -56 -373 -32 -32 -65 -58 -74 -58 -27 0 -67 46
-67 76 0 15 7 52 16 83 9 31 20 72 24 91 45 184 64 223 108 218 17 -2 35 -15
49 -37z"/>
<path d="M23030 26272 c0 -10 -56 -99 -107 -170 -130 -182 -309 -349 -409
-382 -78 -26 -109 44 -103 233 l4 112 -35 0 c-50 0 -61 -28 -54 -140 3 -49 12
-122 20 -162 13 -60 21 -77 50 -102 45 -40 101 -42 178 -5 97 46 270 208 350
328 72 108 138 229 143 262 5 30 3 34 -16 34 -11 0 -21 -4 -21 -8z"/>
<path d="M15358 25599 c-20 -11 -24 -44 -8 -54 6 -3 108 -8 228 -10 236 -5
307 -16 307 -51 0 -27 -115 -81 -261 -123 -65 -19 -128 -43 -139 -53 -20 -19
-20 -19 10 -43 16 -14 55 -29 85 -35 132 -26 298 -90 308 -118 7 -22 -42 -34
-131 -33 -51 1 -222 5 -382 10 -241 8 -292 7 -304 -4 -11 -11 -12 -17 -2 -29
22 -26 53 -28 581 -41 247 -6 256 -6 288 14 42 27 47 42 27 84 -20 42 -58 63
-210 117 -66 24 -122 45 -125 47 -12 11 43 36 145 68 122 38 166 61 191 100
15 23 15 27 0 50 -35 53 -157 91 -323 100 -54 3 -136 7 -183 10 -49 3 -92 0
-102 -6z"/>
<path d="M12163 25490 c-61 -14 -121 -60 -189 -142 -72 -90 -249 -268 -264
-268 -5 0 -17 -11 -26 -25 -16 -24 -16 -27 1 -45 39 -44 67 -24 238 173 32 37
62 67 67 67 22 0 21 -57 -4 -167 -14 -65 -28 -138 -32 -163 -7 -53 -54 -177
-119 -315 -26 -55 -60 -136 -77 -180 -66 -181 -148 -328 -288 -520 -36 -49
-82 -115 -103 -146 -44 -65 -153 -176 -163 -166 -4 4 5 24 19 44 15 21 43 61
62 88 20 28 34 59 33 70 -4 27 -49 32 -71 8 -33 -37 -154 -232 -170 -275 -18
-47 -47 -68 -91 -68 -32 0 -35 12 -24 99 9 65 7 81 -12 140 -52 153 -157 273
-317 359 -156 86 -316 137 -512 167 -123 18 -380 5 -421 -23 -21 -13 -46 -16
-145 -14 -313 8 -711 -106 -829 -237 -28 -31 -41 -26 -77 27 -18 26 -94 115
-169 198 -76 83 -154 179 -175 213 -32 54 -41 62 -64 59 -20 -2 -27 -9 -29
-30 -4 -37 39 -98 162 -227 162 -170 246 -279 246 -320 0 -6 -13 -30 -30 -54
-26 -39 -41 -49 -137 -89 -59 -25 -126 -51 -148 -58 -22 -7 -94 -38 -160 -69
-235 -113 -323 -189 -273 -239 19 -19 34 -14 70 19 44 41 125 94 212 137 99
49 295 132 311 132 24 0 26 -16 10 -82 -46 -194 21 -406 176 -559 63 -63 96
-86 181 -127 132 -64 264 -97 353 -88 40 4 66 3 70 -4 16 -26 364 0 481 35 83
25 96 22 147 -43 104 -129 258 -185 582 -212 243 -21 740 10 972 59 188 40
443 122 698 223 83 33 184 73 225 90 198 78 393 172 539 261 96 58 275 179
331 223 8 7 44 36 80 64 184 145 508 464 614 605 25 33 52 67 59 75 7 8 45 58
84 110 84 113 169 211 264 302 59 56 70 71 67 95 -2 20 -9 29 -25 31 -17 3
-48 -23 -132 -110 -107 -110 -127 -134 -281 -334 -367 -477 -822 -865 -1295
-1104 -104 -53 -224 -109 -265 -125 -41 -15 -93 -36 -115 -46 -227 -100 -586
-225 -800 -278 -356 -89 -974 -113 -1248 -49 -156 36 -307 129 -307 190 0 17
13 22 125 49 157 36 387 118 510 181 160 81 266 167 323 260 23 37 29 41 91
53 28 6 37 3 51 -15 l17 -22 129 17 c157 21 264 54 341 104 81 53 110 86 93
106 -19 23 -38 19 -114 -29 -39 -24 -94 -54 -123 -65 -61 -24 -212 -56 -221
-47 -11 12 13 40 79 91 108 84 210 194 313 342 132 188 196 302 257 458 28 71
80 190 115 264 74 154 97 225 119 354 8 51 21 128 29 172 14 74 13 84 -4 134
-23 63 -19 72 46 129 50 45 121 65 149 42 30 -25 86 -141 104 -218 24 -101 35
-122 66 -122 20 0 25 5 25 26 0 70 -65 244 -116 311 -27 35 -91 74 -121 72
-10 -1 -32 -4 -50 -9z m-2147 -1319 c309 -23 596 -130 730 -274 63 -66 123
-171 144 -249 30 -111 -11 -227 -116 -334 -128 -129 -304 -219 -609 -310 -300
-89 -336 -96 -350 -74 -11 19 -52 10 -68 -13 -13 -20 -29 -26 -104 -35 -127
-17 -317 -30 -398 -27 -187 5 -457 113 -556 221 -44 47 -96 137 -121 205 -19
55 -23 84 -23 199 0 119 3 141 23 184 12 27 37 63 55 80 18 17 38 50 45 73 16
54 75 100 217 171 151 76 264 111 440 136 120 17 141 17 290 4 145 -13 210
-35 302 -100 29 -21 47 -28 62 -23 24 7 26 17 10 46 -10 20 -124 80 -174 93
-45 11 -13 28 65 34 8 1 69 -3 136 -7z"/>
<path d="M9213 23746 c-106 -23 -133 -37 -133 -67 0 -31 37 -31 147 0 186 52
319 52 311 -1 -5 -36 -114 -116 -244 -178 -67 -31 -124 -62 -128 -69 -14 -21
5 -50 40 -61 34 -12 106 -10 354 6 150 9 395 37 413 45 24 13 21 36 -7 54 -21
14 -33 14 -117 0 -143 -22 -512 -56 -522 -46 -9 9 3 21 53 49 19 11 64 36 100
56 72 42 137 99 151 134 13 33 -5 60 -54 83 -59 26 -226 24 -364 -5z"/>
<path d="M5195 25338 c-46 -15 -77 -30 -107 -53 -14 -11 -45 -31 -68 -45 -23
-14 -71 -57 -108 -96 -105 -112 -215 -234 -269 -299 -28 -33 -78 -93 -113
-133 -77 -92 -91 -126 -62 -154 32 -32 69 -18 82 31 10 38 54 111 106 175 13
17 54 69 91 116 134 172 388 410 438 410 63 0 76 -14 227 -251 107 -167 113
-174 156 -170 25 2 11 51 -34 118 -25 37 -77 118 -115 180 -67 107 -125 173
-154 173 -7 0 -19 2 -27 4 -7 3 -26 0 -43 -6z"/>
<path d="M22659 24987 c-96 -64 -163 -346 -110 -462 10 -23 33 -53 52 -69 27
-23 40 -27 72 -23 51 7 113 51 143 102 52 90 18 105 -68 30 -35 -30 -71 -55
-80 -55 -25 0 -57 38 -64 78 -13 68 4 200 34 260 30 62 68 97 95 86 31 -12 38
-38 21 -87 -13 -38 -22 -48 -55 -61 -46 -19 -49 -42 -8 -65 22 -12 31 -12 58
-1 17 7 41 25 51 41 29 40 44 131 30 174 -23 71 -106 96 -171 52z"/>
<path d="M20478 24914 c-68 -37 -168 -130 -168 -158 0 -8 11 -28 24 -43 l24
-28 229 0 228 0 68 -32 c65 -31 67 -33 67 -68 0 -46 -35 -98 -132 -191 -131
-129 -249 -193 -275 -151 -12 20 -44 29 -59 16 -25 -20 -17 -65 17 -93 39 -33
70 -33 144 3 118 55 267 198 350 333 11 18 27 34 36 36 9 2 38 -11 65 -28 95
-59 315 -80 364 -35 34 31 9 40 -110 40 -68 0 -113 4 -120 11 -9 9 7 27 59 70
119 97 157 179 108 228 -14 14 -37 28 -52 32 -36 9 -136 -20 -202 -57 -52 -30
-113 -92 -113 -115 0 -26 -33 -21 -95 15 -102 60 -136 66 -278 52 -242 -23
-293 -13 -242 47 31 37 118 82 158 82 62 0 90 42 41 60 -41 16 -65 11 -136
-26z m846 -137 c17 -12 17 -16 3 -43 -15 -30 -110 -119 -150 -141 -39 -21 -66
-16 -87 19 -17 29 -18 34 -3 58 20 34 98 88 154 105 56 18 62 18 83 2z"/>
<path d="M22447 24863 c-20 -26 -96 -108 -170 -180 -101 -101 -140 -133 -159
-133 -19 0 -27 6 -32 23 -6 25 12 99 38 160 19 42 10 67 -24 67 -38 0 -71 -70
-85 -184 -11 -83 0 -123 38 -146 47 -29 68 -25 133 24 97 73 167 145 253 259
86 115 101 150 65 155 -16 2 -31 -10 -57 -45z"/>
<path d="M23245 24861 c-22 -10 -58 -35 -80 -55 -46 -42 -75 -47 -75 -13 0 31
-14 50 -35 45 -14 -2 -31 -39 -66 -142 -51 -148 -52 -176 -6 -176 27 0 55 29
119 120 69 98 153 158 204 146 33 -9 38 -58 14 -146 -24 -93 -27 -178 -5 -187
25 -9 52 24 58 70 3 23 12 81 21 130 19 105 13 156 -23 190 -37 35 -78 41
-126 18z"/>
<path d="M21705 24826 c-63 -20 -121 -53 -144 -82 -23 -29 -28 -83 -9 -102 21
-21 75 -13 128 20 73 45 77 37 56 -113 -21 -146 -25 -423 -7 -457 16 -30 64
-30 85 0 18 26 21 64 5 73 -24 15 -27 61 -18 266 13 280 12 276 54 294 35 14
43 33 29 70 -16 41 -101 56 -179 31z"/>
<path d="M24086 24780 c-40 -12 -85 -57 -108 -109 -22 -48 -19 -112 9 -164 8
-16 13 -40 11 -55 -3 -23 -11 -30 -58 -45 -30 -10 -85 -21 -122 -24 -63 -5
-70 -4 -104 22 -59 45 -98 165 -74 228 7 18 33 50 58 73 32 28 44 46 39 57
-10 27 -70 22 -107 -9 -77 -65 -90 -162 -40 -293 33 -84 52 -107 118 -141 56
-29 133 -23 254 19 47 17 94 31 103 31 9 0 40 -11 70 -25 70 -34 160 -53 182
-39 46 29 10 67 -81 84 -38 7 -70 19 -73 26 -3 8 19 38 53 72 62 61 84 108 84
177 0 46 -23 101 -48 114 -24 13 -124 13 -166 1z m130 -83 c25 -22 26 -26 15
-59 -29 -88 -116 -177 -159 -164 -42 14 -55 105 -24 166 21 42 75 80 113 80
15 0 40 -10 55 -23z"/>
<path d="M12422 24650 c-77 -19 -102 -33 -102 -57 0 -25 29 -26 101 -3 187 60
390 -1 444 -132 23 -56 24 -170 1 -222 -49 -116 -143 -175 -344 -217 -197 -40
-394 -18 -478 55 -45 39 -56 102 -30 169 20 54 106 144 169 180 91 50 278 72
408 47 61 -12 77 -3 52 29 -17 21 -29 23 -153 27 -227 8 -360 -33 -456 -139
-73 -81 -96 -129 -101 -205 -3 -61 -1 -71 24 -106 40 -57 152 -111 273 -132
212 -36 516 37 636 154 20 20 49 61 63 91 23 49 26 68 25 151 -1 155 -48 223
-192 278 -144 55 -221 62 -340 32z"/>
<path d="M6983 24168 c-23 -27 -44 -145 -53 -287 -8 -133 -22 -229 -49 -319
-12 -41 1 -84 23 -76 43 16 92 206 101 394 4 71 14 140 27 181 25 84 22 113
-13 117 -14 2 -31 -3 -36 -10z"/>
<path d="M20243 22928 c-24 -26 -65 -197 -89 -367 -29 -210 -11 -508 37 -603
28 -54 54 -70 93 -54 38 15 44 40 18 75 -11 15 -30 67 -43 117 -20 78 -22 114
-22 289 -1 195 18 377 45 445 23 56 26 90 11 105 -19 20 -26 19 -50 -7z"/>
<path d="M22345 22917 c-14 -21 -16 -63 -16 -283 0 -532 58 -851 177 -977 24
-26 28 -27 47 -14 29 19 33 51 10 84 -43 64 -68 144 -88 283 -8 58 -20 125
-25 150 -15 74 -21 180 -25 485 l-4 290 -30 3 c-23 2 -34 -3 -46 -21z"/>
<path d="M12625 22868 c-7 -18 -27 -105 -45 -193 -18 -88 -46 -198 -63 -245
-37 -106 -41 -154 -11 -158 17 -2 28 8 48 44 37 67 82 211 105 339 11 61 24
123 30 138 16 42 14 94 -5 101 -31 12 -45 5 -59 -26z"/>
<path d="M21945 22856 c-16 -12 -20 -29 -22 -107 -1 -52 -5 -146 -7 -209 -8
-187 18 -494 50 -597 24 -77 71 -81 114 -10 24 39 24 42 1 64 -50 48 -86 349
-79 659 4 169 2 204 -9 209 -21 8 -27 6 -48 -9z"/>
<path d="M20742 22800 c-57 -19 -122 -73 -122 -101 0 -33 -13 -50 -50 -69 -21
-11 -52 -33 -69 -51 -38 -37 -104 -173 -121 -248 -23 -100 3 -272 56 -375 46
-89 92 -128 177 -150 48 -13 64 -13 116 0 128 29 261 117 342 225 60 80 127
219 148 307 23 97 15 216 -19 283 -44 87 -128 161 -209 186 -62 18 -185 15
-249 -7z m232 -71 c98 -36 166 -140 166 -253 0 -59 -24 -162 -55 -231 -34 -78
-139 -228 -187 -267 -115 -93 -146 -102 -246 -73 -93 28 -138 84 -168 212 -29
124 -7 273 57 377 35 58 72 86 116 86 34 0 96 36 90 53 -2 7 -17 13 -33 15
-55 5 -59 10 -33 38 32 34 55 46 104 55 75 13 134 9 189 -12z"/>
<path d="M23297 22769 c-34 -20 -43 -63 -68 -309 -9 -89 -9 -145 0 -250 26
-275 102 -469 201 -510 25 -10 35 -9 67 7 48 25 54 54 16 78 -43 27 -83 67
-100 99 -43 83 -88 329 -99 546 -5 97 -3 130 16 210 12 52 23 104 24 115 1 23
-29 31 -57 14z"/>
<path d="M24382 22594 c-12 -8 -22 -26 -22 -40 0 -22 4 -24 51 -24 l52 0 -45
-42 c-53 -50 -80 -100 -101 -184 -23 -90 -29 -154 -18 -204 5 -25 14 -70 20
-100 6 -30 21 -80 33 -110 22 -57 94 -165 116 -174 17 -8 17 142 -1 163 -21
26 -66 142 -77 200 -15 80 -12 153 9 229 24 87 44 134 64 151 13 10 17 30 17
82 l0 69 -38 0 c-21 0 -48 -7 -60 -16z"/>
<path d="M23793 22539 c-36 -24 -49 -47 -67 -119 -63 -244 3 -518 167 -692 52
-54 91 -71 151 -64 67 8 113 45 153 126 l32 65 -4 175 c-3 96 -7 207 -10 245
-12 157 -62 242 -160 271 -70 20 -226 16 -262 -7z m217 -84 c71 -37 98 -100
121 -280 23 -177 -12 -389 -68 -414 -48 -22 -106 35 -175 174 -62 124 -80 201
-81 343 -1 101 2 134 16 159 9 17 22 34 29 37 22 10 127 -3 158 -19z"/>
<path d="M21062 21659 c-39 -14 -90 -21 -205 -25 -83 -3 -183 -10 -222 -16
-68 -10 -107 -15 -152 -17 -18 -1 -23 -7 -23 -26 0 -19 9 -29 35 -42 31 -15
45 -15 123 -4 48 6 148 16 222 21 164 10 263 26 312 51 47 24 54 36 32 60 -21
23 -53 23 -122 -2z"/>
<path d="M19745 21663 c-78 -10 -105 -27 -105 -68 0 -47 38 -59 174 -57 76 1
178 -6 276 -19 85 -11 190 -21 233 -22 83 -2 97 5 97 50 0 23 -6 26 -75 37
-101 15 -267 46 -273 50 -20 12 -278 36 -327 29z"/>
<path d="M21359 21649 l-22 -22 24 -20 c21 -17 34 -19 119 -13 52 3 212 2 355
-2 143 -5 271 -5 285 -2 28 7 39 41 18 57 -8 7 -153 13 -385 18 l-371 7 -23
-23z"/>
<path d="M23425 21599 c-185 -12 -361 -53 -395 -94 -11 -13 -10 -19 5 -35 23
-26 65 -26 137 0 92 32 250 52 448 56 102 2 191 6 198 9 19 7 14 43 -8 55 -28
15 -216 19 -385 9z"/>
<path d="M22295 21574 c-37 -26 -46 -28 -128 -26 -89 2 -127 -7 -127 -33 0
-29 42 -36 272 -40 128 -3 277 -10 330 -15 101 -11 160 -7 177 14 5 6 7 17 3
22 -9 14 -67 44 -85 44 -8 0 -27 10 -43 23 -24 18 -41 22 -104 22 -41 0 -115
4 -165 9 -88 8 -91 7 -130 -20z"/>
<path d="M23898 21540 c-43 -26 -5 -89 45 -76 21 5 215 -25 287 -44 19 -6 83
-10 143 -10 l107 0 0 36 0 36 -87 -7 c-65 -5 -104 -2 -148 9 -240 61 -319 73
-347 56z"/>
<path d="M12115 21254 c-187 -29 -453 -135 -575 -229 -114 -87 -156 -152 -166
-255 -12 -110 38 -204 145 -276 91 -61 194 -92 353 -106 282 -24 548 29 823
163 86 42 124 68 176 119 57 55 69 74 84 124 29 103 2 179 -96 270 -74 68
-183 131 -287 165 -52 17 -97 21 -245 25 -100 2 -195 2 -212 0z m36 -84 c11
-30 36 -39 55 -21 13 14 122 41 165 41 20 0 42 -7 49 -15 16 -19 37 -19 55 -1
35 34 239 -62 339 -160 69 -67 94 -161 62 -237 -44 -107 -297 -234 -593 -299
-133 -29 -443 -32 -543 -5 -141 39 -238 105 -281 194 -29 59 -22 143 16 208
67 116 333 254 590 309 39 8 71 15 73 15 2 1 8 -12 13 -29z"/>
<path d="M10121 20233 c-33 -134 -35 -495 -2 -698 21 -138 27 -223 20 -299 -2
-30 2 -42 18 -56 l22 -17 -22 -20 c-42 -39 -132 -93 -153 -93 -29 0 -58 34
-93 110 -36 77 -51 147 -51 240 0 84 -20 117 -65 106 l-28 -7 6 -90 c15 -200
85 -362 179 -410 75 -38 121 -17 329 146 120 95 156 128 282 265 84 91 95 122
45 128 -38 4 -45 -1 -132 -105 -81 -97 -222 -233 -241 -233 -8 0 -14 42 -18
133 -4 72 -14 175 -23 227 -24 140 -24 403 0 554 22 132 18 149 -32 154 -28 3
-32 0 -41 -35z"/>
<path d="M5080 18984 c-152 -20 -303 -69 -325 -104 -9 -14 14 -90 37 -123 28
-39 236 -137 479 -226 204 -75 266 -110 253 -144 -18 -47 -209 -135 -353 -162
-45 -9 -85 -14 -89 -12 -4 3 -17 1 -30 -4 -31 -12 -26 -45 11 -73 82 -61 408
23 507 130 46 50 54 75 48 150 -4 45 -10 61 -38 89 -50 52 -171 105 -443 196
-248 82 -287 99 -287 123 0 38 239 81 395 72 128 -7 200 -25 269 -69 59 -37
82 -30 80 27 -3 74 -68 111 -232 132 -133 16 -152 16 -282 -2z"/>
<path d="M6120 18990 c-11 -7 -14 -53 -14 -208 -1 -230 -2 -232 -77 -232 -64
0 -84 -19 -66 -63 12 -28 19 -33 58 -37 37 -4 45 -9 47 -30 2 -13 -4 -51 -14
-83 -19 -62 -13 -89 18 -95 27 -5 46 26 53 85 10 87 23 122 48 127 48 10 204
14 217 6 11 -7 14 -28 11 -88 -2 -76 -1 -82 26 -112 68 -76 205 -38 302 84 29
36 59 66 66 66 16 0 33 -52 41 -125 13 -115 48 -175 93 -160 30 9 33 35 12 89
-22 54 -65 230 -76 308 -8 53 -34 83 -64 73 -14 -4 -26 -26 -42 -73 -17 -52
-32 -77 -68 -111 -105 -99 -221 -117 -221 -35 0 52 64 92 178 109 37 6 44 12
58 43 13 31 13 38 0 50 -18 18 -113 20 -145 2 -34 -18 -360 -33 -379 -18 -15
13 -14 18 7 153 11 65 0 220 -18 253 -13 24 -33 33 -51 22z"/>
<path d="M7237 18893 c-4 -3 -7 -79 -7 -167 0 -89 -5 -215 -12 -281 -6 -66
-12 -140 -12 -165 -1 -41 1 -45 25 -48 31 -4 49 29 49 91 0 94 19 107 125 87
35 -7 101 -13 147 -14 l83 -1 20 -40 c35 -71 72 -109 142 -147 104 -56 167
-70 323 -70 139 0 190 10 190 37 0 19 -20 23 -160 29 -169 8 -294 52 -378 132
-62 60 -56 75 38 93 161 30 194 47 188 98 -5 44 -49 67 -133 71 -94 5 -173
-27 -206 -82 -19 -33 -25 -36 -67 -35 -68 0 -265 23 -279 32 -9 6 -10 52 -6
182 7 187 3 205 -42 205 -12 0 -25 -3 -28 -7z"/>
<path d="M17123 18748 c-4 -7 -6 -51 -5 -98 6 -154 -32 -369 -83 -476 -29 -60
-30 -70 -9 -78 62 -24 150 243 169 514 7 88 6 97 -15 123 -23 29 -44 35 -57
15z"/>
<path d="M9632 18708 c-7 -7 -12 -44 -12 -94 0 -45 -3 -89 -6 -98 -3 -9 -26
-25 -51 -36 -41 -18 -44 -22 -41 -52 3 -31 5 -33 48 -36 24 -2 48 -9 52 -15 4
-7 8 -34 8 -62 0 -70 26 -196 42 -206 46 -30 57 24 38 189 -9 80 -9 106 0 117
17 21 221 20 310 0 75 -18 154 -68 171 -107 11 -28 11 -27 -34 -107 -13 -24
-15 -36 -7 -51 16 -30 34 -25 89 24 113 100 301 206 301 169 0 -4 -20 -46 -45
-94 -54 -104 -58 -147 -19 -178 67 -53 159 4 220 137 18 39 37 72 42 72 5 0
15 -15 22 -32 31 -86 39 -98 64 -98 34 0 38 11 21 61 -24 68 -45 182 -44 232
3 70 -41 104 -72 56 -12 -17 -18 -19 -40 -10 -23 8 -44 2 -143 -44 -64 -29
-130 -62 -148 -74 -18 -11 -53 -31 -77 -43 -42 -22 -44 -22 -55 -4 -84 141
-179 185 -420 195 l-141 6 0 85 c0 47 -4 91 -8 98 -10 15 -49 16 -65 0z m1077
-324 c-18 -74 -58 -153 -102 -201 -39 -42 -77 -57 -77 -29 0 55 161 309 182
288 5 -5 4 -30 -3 -58z"/>
<path d="M11975 18686 c-30 -30 -39 -63 -28 -106 12 -46 36 -60 62 -36 12 11
21 29 21 40 0 12 9 39 20 60 16 29 18 41 9 52 -18 21 -57 17 -84 -10z"/>
<path d="M16249 18658 c-1 -2 -7 -48 -14 -103 -7 -55 -20 -142 -30 -193 -10
-57 -15 -129 -13 -182 3 -88 3 -88 -24 -98 -33 -12 -35 -25 -8 -52 46 -46 252
-6 437 85 117 58 153 90 153 135 0 101 -192 68 -380 -67 -66 -46 -96 -56 -115
-37 -8 9 -13 25 -10 37 3 12 21 98 40 192 48 234 46 285 -12 285 -13 0 -24 -1
-24 -2z m401 -428 c0 -16 -71 -58 -163 -95 -86 -35 -127 -43 -127 -26 0 11
129 90 184 113 45 19 106 23 106 8z"/>
<path d="M15141 18583 c-6 -12 -4 -45 4 -93 12 -69 18 -136 16 -167 -1 -10
-27 -13 -97 -13 -52 0 -104 -5 -115 -10 -25 -14 -24 -42 2 -66 18 -16 37 -19
118 -19 l96 0 0 -45 c-1 -25 -5 -71 -9 -102 -7 -50 -6 -59 9 -64 31 -12 48 21
59 113 l11 88 115 0 115 0 5 -51 c6 -61 27 -94 77 -125 33 -21 51 -24 133 -24
86 0 101 3 164 32 54 26 76 32 105 27 l38 -6 32 86 c34 91 37 142 9 160 -23
14 -51 -13 -67 -64 -13 -45 -65 -100 -119 -126 -46 -22 -186 -31 -235 -15 -55
18 -65 36 -37 66 28 30 77 45 146 45 73 0 98 35 53 76 -28 25 -105 24 -184 -4
l-60 -21 -139 18 c-108 15 -143 23 -153 37 -9 12 -13 54 -13 132 0 62 -5 122
-10 133 -13 24 -56 25 -69 2z"/>
<path d="M12758 18543 c-34 -41 -28 -93 12 -93 31 0 107 37 114 56 17 44 -92
76 -126 37z"/>
<path d="M12350 18511 c-5 -11 -10 -34 -10 -51 0 -24 -9 -40 -35 -63 -41 -36
-48 -80 -14 -97 19 -11 20 -17 14 -80 -6 -63 -5 -69 15 -80 32 -17 48 3 56 71
11 94 11 94 145 80 160 -16 219 -28 240 -47 23 -21 24 -52 3 -82 -22 -31 -15
-66 14 -70 34 -5 57 21 72 82 16 67 5 103 -39 133 -36 25 -181 59 -291 69
-106 9 -113 14 -105 75 8 54 -4 79 -36 79 -10 0 -23 -9 -29 -19z"/>
<path d="M11763 18451 c-24 -15 -36 -34 -49 -75 -23 -75 -8 -114 66 -174 120
-95 125 -101 108 -118 -9 -9 -47 -19 -88 -25 -77 -9 -100 -21 -100 -49 0 -37
25 -44 103 -30 93 18 130 33 156 66 38 48 29 67 -79 173 -63 62 -100 106 -100
119 0 26 31 44 77 44 51 0 96 -49 152 -161 51 -105 71 -125 97 -99 16 16 16
21 -1 80 -33 118 -97 223 -156 253 -42 22 -147 19 -186 -4z"/>
<path d="M11238 18364 c-134 -115 -183 -148 -199 -139 -11 7 -9 51 7 133 7 36
-8 62 -36 62 -30 0 -42 -27 -52 -118 -12 -104 3 -157 46 -168 50 -12 82 7 252
152 80 69 85 64 100 -91 9 -90 41 -130 74 -91 9 12 9 49 1 163 -10 140 -12
149 -37 171 -14 12 -29 22 -34 22 -4 0 -59 -43 -122 -96z"/>
<path d="M13743 18373 c-26 -31 -60 -70 -74 -86 l-26 -30 -21 21 c-41 41 -64
24 -76 -58 -4 -25 -14 -69 -23 -98 -15 -48 -15 -54 -1 -68 9 -9 24 -14 35 -10
10 3 54 56 98 118 83 116 118 158 133 158 18 0 73 -65 108 -128 58 -106 93
-134 123 -98 12 14 11 18 -81 215 -12 24 -37 61 -58 82 -53 56 -77 53 -137
-18z"/>
<path d="M9050 18380 c-118 -3 -224 -9 -235 -14 -59 -26 -73 -70 -27 -87 29
-12 130 -14 190 -5 20 3 109 10 197 16 142 9 243 25 274 44 5 4 8 13 5 21 -11
27 -101 32 -404 25z"/>
<path d="M13028 18339 c-10 -5 -18 -19 -18 -30 0 -11 -7 -33 -15 -49 -22 -43
-30 -114 -15 -149 27 -65 180 -93 279 -51 104 45 127 111 64 181 -44 49 -91
74 -175 94 -74 17 -97 18 -120 4z m101 -100 c64 -13 141 -62 141 -88 0 -42
-122 -51 -191 -15 -27 14 -34 32 -30 74 5 44 7 45 80 29z"/>
<path d="M17646 18300 c-40 -12 -85 -57 -107 -107 -21 -49 -26 -50 -159 -33
-123 17 -229 15 -247 -3 -15 -14 -15 -18 1 -41 12 -19 25 -26 49 -27 17 0 102
-1 187 -3 l155 -3 29 -54 c49 -89 118 -147 241 -202 126 -56 257 -100 288 -95
14 2 22 10 22 22 0 14 -21 28 -90 56 -188 76 -282 129 -352 196 -29 27 -53 58
-53 67 0 21 57 37 135 37 86 0 109 18 102 79 -6 53 -42 90 -106 110 -44 13
-55 13 -95 1z m123 -105 c12 -12 9 -17 -19 -33 -47 -29 -99 -37 -118 -19 -18
18 -10 32 32 58 33 21 79 18 105 -6z"/>
<path d="M7218 17764 c-4 -3 -423 -7 -933 -9 -692 -1 -929 -5 -938 -14 -17
-17 2 -42 54 -69 42 -21 52 -22 209 -18 173 5 508 12 1045 21 176 4 406 10
510 16 184 9 1002 12 1195 4 52 -2 169 -6 260 -9 91 -4 212 -8 270 -11 58 -3
553 -7 1100 -10 547 -3 1018 -7 1045 -10 28 -2 174 -7 325 -11 504 -11 1029
-29 1125 -39 22 -2 105 -7 183 -10 79 -3 147 -7 151 -10 4 -2 109 -6 232 -9
153 -4 214 -2 194 4 -27 9 -116 22 -155 22 -8 0 -71 4 -140 10 -69 5 -145 11
-170 13 -25 2 -81 6 -125 9 -44 3 -129 8 -190 10 -60 3 -171 9 -245 15 -74 5
-211 13 -305 17 -93 3 -195 8 -225 9 -148 8 -503 15 -970 20 -1186 13 -1468
19 -2085 46 -276 12 -1408 23 -1417 13z"/>
<path d="M13495 17562 c12 -13 140 -30 290 -38 61 -3 130 -8 155 -10 25 -2 94
-9 153 -15 60 -5 148 -12 195 -15 48 -2 177 -13 287 -24 110 -10 263 -22 340
-25 77 -4 174 -9 215 -11 121 -5 384 -25 390 -29 4 -2 89 -9 191 -15 101 -6
245 -17 319 -25 74 -7 198 -18 275 -24 77 -6 228 -18 335 -27 251 -21 278 -22
635 -34 165 -6 343 -15 395 -20 78 -8 99 -7 117 6 28 18 29 40 4 54 -22 11
-173 18 -611 25 -168 3 -341 7 -385 9 -291 14 -356 19 -404 27 -29 5 -56 7
-60 5 -3 -2 -44 0 -91 4 -87 9 -238 21 -300 25 -19 1 -44 5 -55 8 -11 3 -87 9
-170 12 -82 3 -157 8 -165 10 -18 5 -246 28 -275 27 -11 0 -81 4 -155 9 -74 5
-245 16 -380 24 -135 9 -274 18 -310 20 -36 2 -112 7 -170 10 -58 3 -136 8
-174 11 -38 2 -141 9 -230 14 -89 5 -208 13 -266 16 -74 5 -102 3 -95 -4z"/>
<path d="M13322 17503 c-12 -23 -20 -112 -27 -288 -9 -235 -15 -334 -30 -490
-30 -321 -29 -553 5 -1190 5 -99 12 -236 15 -305 3 -69 10 -162 16 -208 5 -46
7 -88 3 -94 -5 -7 -35 -8 -93 -4 -126 11 -180 14 -446 26 -132 6 -307 15 -390
20 -82 5 -220 14 -305 20 -176 11 -371 27 -415 34 -16 3 -73 8 -125 11 -52 3
-126 10 -165 15 -38 6 -151 17 -250 25 -338 29 -620 55 -650 60 -16 3 -91 12
-165 20 -74 8 -259 28 -410 45 -151 18 -315 36 -365 41 -49 5 -139 15 -200 23
-60 8 -155 20 -210 26 -104 11 -533 63 -665 80 -41 5 -133 14 -205 20 -71 6
-177 15 -235 20 -111 10 -331 26 -490 35 -52 3 -234 10 -405 15 -170 6 -425
15 -565 20 -279 10 -438 15 -935 31 -181 5 -391 14 -465 19 -74 5 -376 10
-670 10 -329 0 -552 4 -580 11 -56 13 -90 5 -90 -21 0 -23 31 -45 80 -56 19
-4 307 -8 640 -9 346 -1 663 -6 740 -13 74 -6 272 -13 440 -17 271 -5 558 -15
880 -30 58 -2 195 -7 305 -10 409 -11 563 -16 687 -26 70 -5 191 -14 270 -19
312 -21 683 -56 983 -93 110 -14 229 -28 265 -32 36 -3 117 -12 180 -20 237
-30 291 -36 525 -61 132 -13 263 -29 290 -34 28 -6 97 -14 155 -19 245 -23
551 -52 630 -61 47 -5 155 -14 240 -20 85 -6 166 -12 180 -15 14 -2 122 -14
240 -25 118 -11 260 -24 315 -30 318 -31 1183 -77 1351 -72 63 2 84 -1 94 -13
9 -10 14 -58 17 -143 4 -145 29 -587 44 -772 5 -69 14 -183 19 -255 5 -71 14
-184 20 -250 9 -105 25 -319 46 -621 5 -61 3 -93 -4 -98 -6 -3 -50 -2 -99 4
-128 15 -261 27 -498 45 -115 9 -282 23 -370 31 -88 8 -216 19 -285 24 -69 6
-190 17 -270 25 -80 9 -219 22 -310 30 -91 8 -210 19 -265 24 -55 6 -199 17
-320 26 -335 23 -351 24 -490 34 -71 6 -179 13 -240 17 -60 3 -121 8 -135 10
-34 4 -524 32 -690 39 -167 7 -398 22 -550 35 -365 30 -736 51 -1126 65 -242
8 -546 19 -675 24 -724 29 -1044 35 -1359 22 -173 -7 -378 -15 -455 -18 -175
-6 -587 12 -720 32 -94 14 -100 14 -118 -3 -22 -22 -14 -50 17 -57 144 -32
627 -43 1091 -24 392 16 525 17 910 6 154 -4 350 -10 435 -12 164 -5 424 -15
525 -20 33 -2 157 -6 275 -10 460 -13 746 -28 1265 -70 105 -8 343 -22 530
-30 374 -17 407 -19 705 -40 113 -8 279 -19 370 -25 200 -12 364 -25 615 -46
105 -10 213 -18 240 -19 28 -2 120 -10 205 -19 357 -38 648 -64 890 -81 41 -3
118 -9 170 -15 120 -12 482 -38 619 -44 67 -3 109 -10 117 -18 8 -8 14 -67 18
-168 7 -163 32 -553 41 -630 12 -104 36 -444 50 -710 15 -292 18 -332 35 -575
19 -271 30 -401 40 -475 5 -41 10 -108 10 -148 0 -40 5 -93 11 -117 6 -25 8
-56 5 -70 -6 -22 -12 -25 -50 -25 -24 0 -59 6 -77 14 -19 7 -72 14 -119 15
-82 2 -215 17 -229 26 -7 4 -274 37 -401 50 -36 4 -119 15 -185 25 -66 10
-147 21 -179 24 -33 3 -75 8 -93 11 -18 3 -49 7 -68 10 -20 4 -35 2 -35 -4 0
-5 21 -13 48 -17 26 -3 52 -10 57 -14 21 -16 676 -110 766 -110 24 0 60 -4 79
-10 19 -5 77 -13 129 -19 51 -6 98 -14 105 -20 6 -5 60 -12 120 -15 68 -3 115
-10 123 -18 9 -9 14 -73 18 -223 3 -115 7 -259 10 -320 15 -343 16 -854 4
-1257 -12 -411 -14 -443 -32 -461 -15 -15 -27 -17 -55 -12 -21 4 -301 8 -624
10 -323 2 -593 7 -599 11 -7 4 -305 8 -663 9 -521 2 -683 6 -811 20 -111 11
-328 19 -710 25 -335 6 -620 15 -730 25 -249 21 -803 33 -1950 40 -1108 7
-1515 14 -1675 29 -250 25 -628 88 -695 116 -11 4 -40 13 -65 20 -112 29 -222
90 -303 169 -104 100 -142 174 -178 344 -8 36 -19 62 -30 68 -25 13 -26 12
-37 -20 -15 -43 16 -165 72 -281 37 -77 173 -220 251 -264 156 -88 480 -165
882 -211 201 -23 238 -24 1033 -29 399 -3 943 -8 1210 -12 267 -3 661 -8 875
-10 227 -2 461 -10 560 -19 251 -22 300 -24 765 -26 234 -2 470 -6 525 -10 55
-4 190 -15 300 -23 151 -11 309 -14 645 -11 245 2 512 0 593 -6 200 -13 974
-17 1167 -7 85 5 173 9 195 9 69 -1 69 -1 56 -247 -14 -263 -57 -887 -71
-1034 -6 -58 -15 -168 -20 -245 -5 -77 -14 -189 -19 -250 -24 -272 -35 -423
-51 -720 -6 -104 -13 -204 -15 -221 -6 -36 12 -84 31 -84 32 0 44 77 64 390 6
91 19 273 30 405 11 132 22 287 25 345 3 58 12 186 20 285 15 185 37 491 54
765 6 85 13 247 16 360 3 113 8 216 11 229 5 23 7 23 72 16 71 -7 636 -7 687
0 17 3 219 7 450 10 231 3 490 10 575 16 208 14 1038 21 1225 9 83 -5 195 -9
250 -10 94 -2 257 -13 370 -26 28 -3 59 -6 70 -5 11 0 84 -9 163 -19 78 -11
149 -17 157 -13 42 15 -13 53 -78 53 -27 0 -101 6 -165 14 -188 23 -472 45
-662 51 -63 2 -178 7 -255 11 -174 9 -664 9 -845 1 -614 -29 -723 -32 -1500
-43 -519 -8 -490 -8 -502 4 -7 7 -6 101 2 289 21 457 16 1311 -10 1771 -5 89
-7 169 -4 177 7 17 60 20 98 5 14 -5 58 -14 98 -19 127 -17 619 -80 718 -91
52 -6 111 -15 130 -20 19 -5 64 -11 100 -15 36 -3 92 -10 125 -15 33 -5 103
-14 155 -20 92 -10 248 -29 415 -50 44 -6 98 -12 120 -14 22 -3 123 -13 225
-24 611 -66 1053 -79 1285 -37 192 35 275 68 275 110 0 38 -35 40 -110 7 -89
-40 -197 -60 -382 -72 -190 -12 -563 2 -853 31 -110 11 -245 24 -300 29 -116
10 -214 21 -450 49 -297 36 -337 41 -485 61 -80 11 -221 29 -315 40 -93 11
-201 25 -240 30 -236 33 -310 42 -445 54 -83 8 -157 20 -165 26 -11 9 -15 36
-15 104 0 50 -4 141 -10 201 -18 209 -59 801 -75 1085 -16 278 -46 698 -65
910 -14 155 -34 485 -35 560 l0 65 40 -1 c22 0 78 -6 125 -12 47 -7 112 -14
145 -16 167 -12 226 -18 295 -26 41 -5 118 -12 170 -15 52 -3 133 -10 180 -15
47 -5 128 -12 180 -14 142 -8 561 -41 720 -57 231 -22 407 -46 605 -80 66 -12
140 -25 165 -29 25 -4 81 -14 125 -23 155 -31 401 -75 475 -86 241 -35 299
-42 432 -56 196 -20 234 -20 243 2 11 30 -29 53 -94 54 -235 2 -666 58 -1081
139 -125 24 -254 48 -330 60 -142 23 -330 50 -380 54 -30 3 -100 10 -155 15
-156 17 -634 56 -785 65 -81 4 -338 28 -570 51 -193 20 -362 33 -434 34 -33 1
-65 6 -71 11 -8 6 -14 68 -19 172 -7 188 -15 298 -50 753 -28 364 -32 408 -46
640 -31 519 -33 566 -22 577 8 8 35 8 99 0 48 -6 221 -17 383 -23 162 -6 320
-12 350 -14 335 -22 953 -26 1397 -11 227 8 254 8 277 -7 31 -21 45 -21 66 -2
38 35 553 7 1100 -60 247 -30 298 -35 493 -46 226 -13 775 -7 880 10 82 13
127 35 127 61 0 28 -30 32 -96 15 -82 -22 -295 -35 -579 -35 -303 0 -585 21
-940 70 -460 63 -1141 90 -1590 63 -226 -14 -798 -8 -1115 11 -140 8 -388 18
-550 21 -202 5 -298 11 -306 18 -7 8 -17 148 -28 372 -9 198 -22 439 -27 535
-5 96 -10 285 -10 420 0 236 4 317 35 610 8 74 17 211 21 304 3 93 10 200 17
237 14 90 7 119 -32 119 -18 0 -33 -7 -38 -17z"/>
<path d="M4586 17246 c-57 -20 -80 -34 -124 -80 l-54 -57 4 -64 c5 -81 32
-112 126 -150 89 -36 148 -45 279 -46 91 -1 125 3 180 22 102 34 194 129 124
129 -10 0 -40 -16 -67 -35 -77 -55 -133 -70 -254 -69 -124 0 -238 25 -280 61
-16 13 -34 41 -40 61 -8 32 -7 44 13 82 13 25 38 55 57 68 70 47 204 68 231
36 7 -8 13 -32 13 -52 1 -52 31 -56 51 -8 21 50 19 64 -14 97 -27 27 -35 29
-103 29 -50 0 -95 -8 -142 -24z"/>
<path d="M8082 17208 c-7 -7 -12 -38 -12 -69 0 -65 -16 -89 -58 -89 -35 0 -72
-26 -72 -50 0 -25 44 -37 82 -22 40 15 47 -5 36 -103 -5 -44 -7 -102 -6 -130
3 -42 6 -50 23 -50 30 0 44 54 44 172 1 56 4 108 7 117 8 21 69 21 140 0 59
-17 105 -16 111 3 8 23 -47 45 -134 55 -48 5 -94 14 -101 20 -9 8 -11 27 -6
69 8 75 -18 113 -54 77z"/>
<path d="M5681 17177 c-6 -8 -16 -50 -21 -93 -6 -51 -20 -99 -38 -134 -23 -46
-36 -59 -84 -83 -85 -44 -166 -35 -205 22 -15 22 -18 45 -16 148 2 115 1 122
-19 129 -13 4 -26 0 -36 -10 -22 -22 -28 -140 -11 -219 10 -50 20 -69 55 -103
48 -49 84 -59 178 -52 114 10 181 71 215 197 33 122 22 245 -18 198z"/>
<path d="M6105 17157 c-70 -33 -111 -71 -160 -147 -59 -91 -85 -155 -85 -205
0 -48 17 -68 52 -63 20 3 24 10 30 66 12 109 79 224 164 282 38 27 53 31 123
33 86 3 101 9 85 35 -9 13 -28 18 -85 20 -60 2 -83 -2 -124 -21z"/>
<path d="M6925 17099 c-25 -23 -40 -48 -53 -90 -11 -40 -22 -59 -33 -59 -19 0
-54 37 -64 68 -10 33 -51 78 -85 92 -75 31 -158 -29 -265 -191 -89 -135 -113
-185 -99 -207 6 -9 22 -17 34 -17 19 0 32 17 74 100 28 55 65 121 83 146 43
62 108 119 136 119 23 0 57 -27 57 -46 0 -25 53 -83 94 -103 32 -14 51 -32 65
-58 71 -138 262 -161 444 -51 38 22 38 22 73 3 70 -37 156 -12 233 69 52 54
64 49 90 -41 27 -93 43 -113 88 -113 47 0 54 24 17 58 -21 19 -36 50 -52 105
-22 77 -56 127 -84 127 -8 0 -40 -27 -72 -60 -55 -58 -119 -100 -150 -100 -35
0 -37 55 -6 122 10 22 11 30 0 43 -31 37 -78 -8 -87 -84 -6 -52 -6 -52 -64
-82 -143 -71 -281 -78 -346 -17 -32 30 -16 54 42 63 91 13 139 33 158 64 21
36 22 63 2 102 -24 46 -70 69 -137 69 -50 0 -62 -4 -93 -31z m138 -28 c27 -11
52 -60 43 -88 -6 -20 -47 -41 -104 -54 -73 -17 -94 10 -62 76 13 27 33 49 53
59 38 18 39 19 70 7z"/>
<path d="M9878 17089 c-24 -13 -23 -36 2 -49 28 -15 110 -2 117 18 13 34 -75
57 -119 31z"/>
<path d="M12099 16954 c-10 -12 -16 -60 -20 -160 -6 -159 -8 -164 -79 -198
-60 -29 -63 -59 -5 -66 l40 -5 0 -73 c1 -55 5 -76 18 -89 32 -33 50 -6 69 102
9 54 22 103 28 109 6 6 68 13 148 17 137 5 192 19 192 45 0 35 -87 41 -267 18
-68 -9 -72 0 -50 131 20 118 21 157 5 173 -17 17 -63 15 -79 -4z"/>
<path d="M9890 16845 c-10 -12 -9 -32 4 -97 8 -46 20 -127 27 -180 12 -100 35
-158 64 -158 25 0 28 24 16 148 -16 150 -37 270 -52 288 -15 18 -43 18 -59 -1z"/>
<path d="M10382 16835 c-17 -14 -56 -64 -87 -110 -32 -47 -61 -85 -66 -85 -7
0 -16 26 -33 103 -8 33 -32 45 -52 25 -12 -12 -13 -27 -3 -93 13 -95 30 -132
66 -141 32 -9 57 18 144 154 32 50 66 92 74 92 21 0 52 -53 75 -132 24 -78 63
-130 94 -126 25 4 26 27 2 111 -27 97 -56 155 -97 192 -46 42 -77 44 -117 10z"/>
<path d="M10860 16764 c-42 -18 -77 -50 -96 -86 -25 -49 -36 -168 -25 -277 23
-222 54 -306 110 -299 22 3 26 11 43 88 23 108 21 144 -10 148 -13 2 -29 -2
-37 -8 -25 -21 -35 23 -35 152 1 140 13 177 69 215 82 55 234 2 287 -100 29
-54 -27 -97 -131 -103 -33 -1 -63 -3 -67 -3 -18 -2 -7 -51 14 -62 45 -24 191
7 239 52 71 66 10 197 -124 264 -59 30 -80 35 -136 35 -36 -1 -82 -8 -101 -16z"/>
<path d="M11758 16643 c-9 -10 -35 -58 -59 -108 -56 -116 -111 -175 -163 -175
-48 0 -92 23 -110 58 -8 16 -17 57 -19 92 -5 74 -26 100 -61 76 -16 -10 -22
-26 -24 -67 -6 -101 27 -163 106 -203 105 -52 170 -42 248 39 70 71 154 249
137 291 -7 19 -37 18 -55 -3z"/>
<path d="M5760 16521 c-5 -11 -10 -51 -10 -88 0 -40 -5 -74 -12 -81 -7 -7 -41
-12 -84 -12 -80 0 -188 -28 -226 -59 -19 -16 -21 -23 -12 -38 15 -24 50 -28
79 -9 66 43 233 74 236 44 3 -32 -4 -72 -33 -190 -17 -70 -28 -134 -25 -142 8
-22 40 -20 60 2 17 19 49 151 62 255 9 69 24 87 68 81 114 -14 181 -25 189
-31 6 -3 -13 -26 -41 -50 -60 -52 -85 -95 -77 -129 9 -34 42 -48 117 -47 80 0
151 30 222 91 27 23 57 42 68 42 18 0 19 -8 19 -105 0 -127 15 -168 58 -163
24 3 27 7 25 38 -2 19 -6 112 -10 207 -5 113 -12 176 -20 184 -20 20 -59 -4
-83 -50 -35 -70 -81 -112 -158 -148 -85 -38 -152 -45 -152 -14 0 30 68 73 154
98 166 48 131 66 -213 108 -69 8 -129 19 -135 25 -6 6 -6 34 2 86 8 52 9 81 2
95 -14 25 -56 25 -70 0z"/>
<path d="M16277 16508 c-8 -13 -27 -84 -42 -158 -15 -74 -29 -138 -31 -142 -3
-5 -41 -8 -84 -8 -90 0 -110 -5 -110 -30 0 -35 23 -42 89 -29 52 11 63 11 76
-1 15 -16 11 -40 -34 -197 -12 -40 -21 -89 -21 -109 0 -31 3 -35 23 -32 28 4
59 66 87 179 12 46 26 102 32 123 l10 39 86 -8 c48 -5 139 -9 202 -9 93 -1
115 2 115 13 0 8 -18 20 -40 26 -51 16 -196 35 -262 35 -97 0 -99 4 -47 157
19 59 34 120 32 137 -3 27 -7 31 -35 34 -24 2 -35 -2 -46 -20z"/>
<path d="M6764 16462 c-22 -14 -33 -51 -45 -143 -13 -102 -19 -116 -52 -121
-30 -4 -34 -38 -6 -58 22 -17 22 -19 9 -93 -13 -79 -10 -97 19 -97 26 0 41 20
41 54 0 39 18 103 31 111 5 4 40 0 77 -9 38 -8 107 -20 155 -25 80 -9 92 -14
159 -59 91 -62 165 -94 295 -128 62 -16 139 -18 148 -4 8 12 -32 36 -75 45
-19 4 -86 24 -148 46 -156 52 -194 79 -134 94 90 22 97 72 20 148 -74 73 -180
100 -237 61 -19 -14 -22 -23 -18 -58 2 -22 8 -51 12 -63 7 -21 4 -23 -26 -23
-31 0 -158 23 -203 36 -16 5 -18 13 -12 58 3 29 15 78 26 111 25 72 25 87 2
108 -21 19 -23 20 -38 9z m431 -253 c57 -51 40 -89 -41 -89 -49 0 -84 32 -84
75 0 40 5 45 51 45 29 0 47 -8 74 -31z"/>
<path d="M5070 16444 c-134 -23 -258 -70 -307 -116 -28 -26 -29 -59 -5 -81 20
-18 175 -47 387 -73 165 -19 201 -30 228 -65 16 -23 18 -32 8 -60 -20 -60 -82
-130 -146 -166 -51 -28 -70 -33 -128 -33 -52 0 -69 -4 -74 -16 -20 -53 121
-67 219 -22 148 68 248 234 189 316 -43 60 -102 77 -416 117 -163 21 -189 28
-193 48 -3 13 11 24 50 42 124 57 354 74 448 34 38 -16 52 -18 69 -9 30 16 13
43 -41 66 -42 17 -225 29 -288 18z"/>
<path d="M14196 16437 c-13 -9 -19 -29 -21 -73 -1 -32 -12 -124 -24 -204 -11
-79 -21 -150 -21 -157 0 -19 29 -43 45 -37 8 4 45 51 81 106 77 117 215 264
258 274 23 6 32 2 47 -17 31 -41 50 -120 60 -249 6 -69 15 -130 21 -137 19
-23 47 -15 55 15 9 38 -13 265 -33 331 -20 68 -69 121 -112 121 -82 0 -140
-41 -233 -166 -39 -52 -77 -94 -85 -94 -17 0 -18 45 -4 105 23 97 31 167 19
181 -14 17 -30 18 -53 1z"/>
<path d="M14939 16360 c-98 -17 -159 -65 -180 -142 -14 -55 4 -151 38 -196 52
-68 158 -113 275 -114 117 -2 237 42 208 77 -8 10 -19 11 -48 2 -51 -15 -218
-14 -270 2 -59 17 -129 82 -143 133 -18 69 12 123 90 163 69 35 191 6 191 -45
0 -24 -11 -32 -117 -84 -50 -25 -96 -52 -103 -60 -27 -34 20 -48 68 -21 15 8
61 28 102 45 140 58 164 111 86 185 -24 23 -57 45 -73 48 -17 3 -41 8 -54 11
-13 2 -45 0 -70 -4z"/>
<path d="M16065 16350 c-11 -4 -65 -27 -120 -51 -143 -60 -181 -81 -259 -139
-38 -28 -75 -49 -82 -46 -16 6 -47 70 -66 136 -10 35 -18 46 -36 48 -13 2 -30
-2 -38 -8 -30 -26 -12 -91 56 -198 21 -31 8 -46 -86 -109 -159 -106 -185 -127
-182 -148 2 -11 12 -21 23 -23 23 -3 136 66 239 145 37 29 71 53 75 53 3 0 33
-20 66 -45 95 -71 217 -108 231 -70 9 22 -10 40 -58 54 -56 17 -164 77 -171
96 -4 9 5 22 22 34 49 36 273 147 384 192 91 37 107 46 105 64 -2 16 -11 20
-43 22 -22 1 -49 -2 -60 -7z"/>
<path d="M15508 15768 c-13 -10 -17 -40 -20 -140 -3 -70 -10 -133 -16 -140 -6
-7 -34 -22 -62 -33 -28 -11 -58 -28 -67 -37 -31 -35 11 -66 46 -34 9 8 29 18
45 22 l29 7 -7 -85 c-5 -67 -4 -87 7 -97 35 -28 57 11 72 124 10 80 10 80 126
78 57 -1 106 -6 110 -10 5 -5 -5 -28 -21 -52 -37 -55 -38 -82 -2 -121 59 -66
165 -44 237 51 55 72 81 58 84 -47 1 -48 33 -84 75 -84 25 0 28 3 23 28 -2 15
-10 63 -17 107 -16 107 -24 125 -72 160 -60 43 -70 45 -133 29 -41 -11 -99
-14 -216 -12 -180 3 -184 5 -173 73 20 131 22 180 8 203 -16 25 -33 28 -56 10z
m492 -353 c10 -11 3 -23 -37 -61 -55 -54 -102 -77 -138 -68 -57 14 -13 83 80
125 49 22 79 24 95 4z"/>
<path d="M14680 15749 c-46 -14 -60 -27 -60 -53 0 -32 56 -59 170 -85 100 -23
262 -80 308 -108 48 -30 91 -76 102 -109 21 -61 -32 -131 -136 -184 -62 -31
-202 -40 -238 -16 -31 20 -72 21 -79 2 -9 -22 29 -63 70 -77 40 -13 120 -15
186 -4 98 16 242 113 267 181 14 37 12 101 -4 133 -46 87 -186 159 -465 238
-35 10 -64 23 -65 28 -2 18 98 16 204 -4 80 -16 114 -28 146 -51 44 -31 79
-39 87 -17 14 38 -68 89 -181 113 -96 20 -266 27 -312 13z"/>
<path d="M16563 15605 c-18 -13 -21 -27 -24 -99 -5 -106 -11 -113 -82 -97 -60
13 -87 7 -87 -19 0 -24 22 -40 65 -47 47 -8 52 -22 25 -78 -24 -49 -23 -73 1
-88 27 -17 47 -1 79 63 34 68 30 67 144 41 84 -18 85 -19 110 -92 45 -127 245
-235 554 -299 112 -24 135 -22 130 12 -2 17 -14 25 -58 35 -204 51 -424 137
-503 197 -45 34 -66 81 -46 101 11 12 31 13 104 5 149 -16 182 -14 210 15 36
35 32 70 -12 115 -33 32 -46 38 -98 44 -101 11 -197 -16 -257 -71 l-27 -25
-73 17 c-118 29 -122 33 -93 116 24 67 24 137 1 155 -25 18 -36 18 -63 -1z
m542 -272 c16 -16 16 -17 -1 -30 -36 -27 -211 -18 -201 10 11 35 172 51 202
20z"/>
<path d="M7225 14975 c-137 -31 -240 -90 -335 -191 -132 -141 -199 -302 -188
-456 5 -81 29 -130 94 -194 138 -136 324 -228 563 -280 283 -62 519 -39 707
67 137 77 211 212 215 389 3 119 -17 175 -89 247 -61 61 -265 163 -326 163
-30 0 -65 24 -75 50 -13 39 -73 103 -129 138 -106 67 -305 98 -437 67z m337
-88 c99 -37 197 -114 168 -132 -6 -4 -55 -9 -108 -11 -110 -5 -132 -10 -132
-29 0 -26 37 -35 137 -35 144 0 281 -33 414 -100 97 -49 155 -115 170 -195 12
-63 -7 -215 -33 -265 -72 -135 -249 -223 -477 -237 -290 -18 -700 125 -856
298 -52 58 -68 102 -67 182 2 85 14 130 60 226 45 94 137 193 228 246 116 68
184 85 324 81 82 -3 120 -9 172 -29z"/>
<path d="M15483 14608 c-6 -7 -11 -53 -10 -103 0 -91 -22 -232 -49 -308 -13
-35 -12 -43 1 -64 17 -25 56 -31 73 -10 18 21 72 295 72 361 0 71 -24 129 -56
134 -11 2 -26 -3 -31 -10z"/>
<path d="M11600 14577 c-149 -29 -299 -129 -350 -233 -25 -51 -25 -89 0 -156
34 -91 102 -148 227 -190 132 -44 355 -24 426 39 52 46 77 167 56 266 -26 126
-147 198 -308 184 -76 -6 -102 -16 -143 -55 -58 -54 -18 -86 46 -37 80 61 219
54 287 -14 61 -61 74 -147 36 -240 -28 -68 -66 -90 -178 -102 -144 -16 -284
28 -346 109 -67 89 -62 163 17 242 88 88 212 140 337 140 60 0 87 -5 117 -21
46 -25 81 -22 81 6 0 54 -170 88 -305 62z"/>
<path d="M11591 13716 c-7 -8 -16 -42 -22 -76 -5 -34 -16 -90 -23 -124 -22
-98 -29 -248 -15 -333 17 -103 42 -167 67 -171 29 -4 32 16 16 104 -20 117
-18 273 6 380 41 181 44 202 30 218 -16 20 -44 21 -59 2z"/>
<path d="M15495 13510 c-125 -27 -256 -72 -269 -93 -14 -22 2 -49 38 -62 22
-7 50 -1 149 32 139 48 227 64 227 42 -1 -37 -189 -315 -259 -383 -28 -27 -51
-57 -51 -67 0 -21 42 -53 102 -76 36 -15 78 -17 273 -16 127 1 264 6 305 10
71 8 75 10 78 34 2 15 -5 32 -17 43 -19 17 -30 18 -159 7 -241 -19 -452 -11
-452 17 0 5 26 39 58 78 80 95 242 349 242 378 0 15 -12 34 -31 50 -38 32
-101 34 -234 6z"/>
<path d="M7420 12644 c-39 -35 -70 -84 -70 -110 0 -24 35 -35 59 -18 12 9 25
13 28 10 4 -3 -4 -70 -16 -149 -33 -198 -31 -411 4 -617 13 -82 29 -159 34
-172 5 -13 22 -76 36 -141 28 -120 44 -151 70 -141 21 8 20 13 -29 227 -62
267 -70 333 -69 557 1 149 6 223 22 316 25 145 27 221 5 252 -20 29 -27 28
-74 -14z"/>
<path d="M11573 12502 c-110 -39 -225 -142 -269 -240 -75 -167 41 -353 289
-467 101 -46 166 -60 282 -60 118 0 163 14 204 60 41 47 55 104 48 195 -7 85
-25 145 -63 204 -37 57 -74 85 -152 112 -65 22 -67 24 -73 61 -9 61 -34 99
-82 122 -63 31 -122 35 -184 13z m155 -68 c27 -18 55 -71 49 -89 -3 -7 -33
-15 -75 -19 -117 -12 -193 -66 -140 -100 13 -8 26 -7 50 6 78 39 180 50 260
28 52 -15 119 -68 145 -116 43 -78 52 -235 17 -290 -45 -68 -204 -76 -365 -19
-221 78 -359 250 -305 379 66 158 273 284 364 220z"/>
<path d="M15530 12290 c-70 -13 -152 -45 -258 -100 -127 -67 -132 -72 -105
-107 18 -25 27 -28 77 -28 49 1 60 4 79 28 42 52 281 137 308 110 20 -20 1
-58 -83 -164 -201 -252 -298 -392 -298 -430 0 -21 38 -55 81 -73 21 -9 103
-20 192 -27 169 -13 225 -6 266 32 26 25 26 34 1 52 -18 12 -30 12 -83 1 -48
-10 -81 -11 -147 -2 -182 23 -199 40 -128 128 60 74 160 205 263 345 36 49 65
112 65 142 -1 30 -32 74 -67 92 -24 12 -95 13 -163 1z"/>
<path d="M11799 11338 c-11 -26 -13 -111 -12 -393 0 -198 5 -375 10 -394 8
-34 36 -61 49 -48 4 4 8 152 9 329 1 178 8 363 14 411 13 99 5 127 -33 127
-17 0 -27 -9 -37 -32z"/>
<path d="M15319 10805 c-146 -31 -169 -39 -169 -64 0 -22 42 -59 78 -68 14 -3
50 2 81 12 160 52 234 65 246 46 9 -15 -48 -74 -130 -135 -40 -31 -84 -69 -98
-86 -22 -26 -25 -34 -15 -55 12 -27 48 -43 188 -86 149 -46 180 -60 180 -79 0
-19 -208 -228 -330 -331 -41 -36 -108 -86 -147 -112 -73 -47 -84 -62 -61 -85
28 -28 85 -2 219 99 102 77 449 409 449 430 0 4 -17 22 -38 41 -37 34 -154 83
-257 109 -24 6 -52 20 -62 31 -18 20 -17 22 52 85 39 35 107 94 153 129 45 36
82 73 82 82 0 9 -15 27 -33 40 -30 20 -45 22 -153 21 -85 0 -152 -7 -235 -24z"/>
<path d="M6615 10573 c-267 -13 -699 -55 -761 -74 -17 -5 -44 -9 -60 -9 -48 0
-193 -29 -217 -42 -21 -13 -21 -13 10 -16 18 -2 88 6 155 17 68 11 152 23 188
26 36 4 88 10 115 15 28 5 95 12 150 15 55 3 118 8 140 10 190 22 610 24 950
5 201 -11 575 -26 890 -35 260 -8 376 -14 470 -24 44 -5 83 -7 88 -4 4 2 38 0
75 -6 37 -6 108 -13 157 -16 50 -3 160 -17 245 -31 85 -14 184 -29 220 -34 36
-4 117 -17 180 -29 63 -11 167 -30 230 -42 141 -26 238 -45 355 -70 50 -10
119 -24 155 -29 36 -6 103 -19 150 -29 47 -11 125 -24 174 -30 48 -6 93 -14
100 -19 6 -5 70 -17 141 -26 72 -10 166 -24 210 -33 44 -8 125 -21 180 -28 55
-7 132 -18 170 -24 39 -6 127 -18 198 -28 70 -9 127 -20 127 -24 0 -4 -33 -39
-74 -79 -82 -79 -126 -152 -150 -246 -21 -81 -20 -112 4 -177 58 -154 234
-253 475 -264 143 -7 203 13 285 96 72 72 102 137 102 217 1 102 -50 175 -175
255 -45 29 -85 57 -88 62 -4 5 -10 27 -13 49 -5 33 -11 39 -35 44 -16 4 -42
18 -58 33 -50 47 -74 53 -148 33 -61 -16 -68 -16 -113 0 -58 21 -338 78 -408
83 -27 2 -61 8 -75 13 -13 6 -64 15 -114 22 -49 6 -139 20 -200 30 -60 10
-137 22 -169 25 -33 4 -71 11 -85 17 -14 6 -51 14 -81 18 -49 6 -409 74 -535
100 -155 32 -215 43 -260 50 -27 4 -68 12 -90 18 -22 6 -98 20 -170 32 -71 12
-177 30 -235 40 -58 10 -141 22 -185 25 -44 3 -161 15 -260 25 -99 11 -241 22
-315 25 -74 3 -151 8 -170 10 -19 2 -120 7 -225 10 -104 3 -242 8 -305 11 -63
3 -122 5 -130 5 -8 0 -154 7 -325 15 -284 14 -738 23 -860 17z m5453 -665 c6
-6 12 -17 12 -24 0 -11 -7 -11 -41 2 -31 13 -43 14 -52 5 -21 -21 5 -42 132
-110 240 -130 303 -226 237 -366 -71 -153 -231 -195 -469 -124 -40 12 -91 32
-114 46 -54 31 -118 104 -134 150 -26 81 17 218 99 314 32 37 144 118 181 130
20 7 133 -11 149 -23z"/>
<path d="M7470 9764 c-119 -16 -153 -33 -148 -71 5 -45 27 -49 114 -23 57 17
113 25 202 28 135 5 229 -6 362 -45 311 -90 324 -208 45 -414 -33 -25 -80 -58
-105 -73 -90 -58 -226 -164 -267 -209 -65 -70 -57 -125 28 -202 43 -38 243
-140 374 -190 39 -14 81 -32 95 -40 14 -7 61 -25 105 -40 44 -15 121 -42 170
-60 50 -18 106 -36 126 -39 64 -11 131 14 82 30 -10 3 -27 10 -38 15 -11 5
-47 18 -80 28 -277 87 -730 298 -797 372 -59 62 -45 77 302 319 233 163 307
279 255 403 -38 92 -195 167 -430 207 -138 23 -246 24 -395 4z"/>
<path d="M15313 9230 c-49 -22 -58 -49 -38 -115 7 -26 17 -84 20 -129 4 -44
13 -104 21 -133 8 -28 14 -73 14 -100 0 -48 13 -120 24 -130 13 -13 60 -4 79
16 l21 21 -23 31 c-23 31 -24 42 -31 273 -4 133 -10 249 -14 258 -12 26 -29
28 -73 8z"/>
<path d="M12053 8778 c-21 -40 -31 -161 -39 -470 -5 -207 -4 -228 11 -234 34
-13 40 14 51 224 6 114 19 269 29 344 15 112 16 140 5 153 -19 23 -38 18 -57
-17z"/>
<path d="M15207 8356 c-128 -43 -177 -73 -177 -107 0 -10 8 -23 19 -28 15 -8
35 -2 95 29 76 39 126 51 126 29 0 -6 -43 -52 -96 -102 -77 -73 -96 -98 -96
-120 0 -50 26 -67 172 -112 30 -9 81 -28 113 -42 45 -20 57 -30 57 -48 0 -25
-13 -38 -62 -64 -18 -9 -42 -22 -53 -28 -11 -7 -63 -32 -115 -57 -52 -24 -111
-58 -130 -75 -33 -28 -34 -31 -18 -47 9 -9 28 -16 41 -16 53 0 285 128 332
183 49 58 105 155 105 183 0 25 -46 48 -188 96 -160 54 -178 69 -136 120 15
17 51 45 80 61 96 55 163 140 139 179 -12 20 -82 9 -208 -34z"/>
<path d="M17925 7340 c-13 -21 12 -32 96 -41 46 -5 104 -13 129 -19 25 -5 77
-12 115 -16 39 -3 111 -12 160 -20 181 -28 275 -21 275 22 0 19 -22 23 -155
29 -66 3 -131 8 -145 11 -33 6 -317 35 -401 41 -45 3 -69 1 -74 -7z"/>
<path d="M11975 7251 c-97 -16 -214 -80 -278 -150 -32 -35 -37 -48 -37 -88 0
-63 30 -122 88 -170 205 -171 423 -243 557 -184 65 29 89 52 115 114 18 40 21
63 17 105 -8 76 -54 142 -214 307 -62 64 -138 84 -248 66z m135 -104 c49 -22
151 -97 188 -137 13 -14 35 -49 49 -79 35 -73 28 -131 -22 -181 l-35 -35 -98
0 -97 0 -114 60 c-139 74 -239 161 -248 216 -6 43 25 85 95 127 110 65 187 73
282 29z"/>
<path d="M14929 7083 c-60 -56 -119 -140 -142 -203 -38 -106 -45 -315 -12
-394 29 -68 93 -100 187 -94 104 6 174 64 280 228 68 104 108 182 108 210 0
24 -27 80 -38 80 -8 0 -66 50 -144 125 -40 38 -53 45 -87 45 -36 0 -41 2 -38
23 2 18 -4 23 -30 25 -27 3 -41 -5 -84 -45z m228 -110 c25 -26 50 -60 55 -75
6 -16 14 -28 19 -28 5 0 16 -14 25 -31 16 -31 15 -33 -20 -103 -47 -93 -130
-201 -182 -238 -58 -42 -136 -49 -184 -16 -42 28 -48 48 -49 163 -1 98 16 200
44 258 14 29 23 37 44 37 16 0 50 17 82 39 76 56 107 54 166 -6z"/>
<path d="M7897 7013 c-12 -11 -8 -60 6 -70 6 -6 37 -18 67 -27 164 -51 600
-368 600 -436 0 -13 -11 -25 -32 -34 -32 -14 -194 -35 -273 -37 -22 0 -62 -8
-89 -17 -71 -24 -77 -50 -37 -150 18 -42 54 -108 81 -147 192 -271 229 -352
230 -504 0 -164 -66 -308 -192 -416 -229 -197 -504 -204 -797 -22 -57 36 -78
44 -88 36 -37 -32 8 -72 177 -157 236 -119 462 -103 685 48 178 122 285 316
285 519 0 79 -42 228 -80 281 -11 15 -24 38 -30 51 -5 13 -26 47 -45 74 -145
209 -183 277 -166 302 14 22 50 31 151 37 132 9 260 33 283 53 27 25 20 62
-22 131 -61 99 -101 135 -338 304 -200 142 -345 212 -376 181z"/>
<path d="M14992 6098 c-7 -7 -12 -40 -12 -77 0 -70 56 -410 96 -586 14 -60 27
-121 29 -135 7 -50 76 -383 81 -392 3 -4 12 -8 20 -8 21 0 18 81 -7 193 -18
82 -41 201 -84 437 -8 41 -26 136 -40 210 -14 74 -27 183 -29 242 -3 59 -7
112 -11 118 -8 14 -28 13 -43 -2z"/>
<path d="M12141 6021 c-22 -40 -9 -209 24 -331 37 -137 109 -459 120 -543 4
-29 12 -50 21 -54 62 -24 48 128 -48 527 -22 91 -44 206 -49 255 -14 126 -22
159 -41 163 -9 2 -21 -6 -27 -17z"/>
<path d="M14290 900 c0 -5 5 -10 10 -10 6 0 10 5 10 10 0 6 -4 10 -10 10 -5 0
-10 -4 -10 -10z"/>
<path d="M15130 880 c0 -5 5 -10 11 -10 5 0 7 5 4 10 -3 6 -8 10 -11 10 -2 0
-4 -4 -4 -10z"/>
<path d="M3518 773 c-7 -9 -21 -12 -36 -8 -17 4 -23 2 -20 -7 3 -9 20 -12 51
-10 30 3 47 0 47 -7 0 -7 10 -9 26 -5 15 4 36 7 47 8 24 1 35 24 15 30 -40 13
-119 12 -130 -1z"/>
<path d="M4083 775 c-13 -5 -23 -16 -23 -23 0 -9 5 -10 18 -3 19 10 85 9 120
-3 16 -5 22 -3 22 7 0 19 -106 36 -137 22z"/>
<path d="M4247 783 c-3 -5 -2 -15 2 -21 9 -15 43 -4 38 12 -5 14 -33 20 -40 9z"/>
<path d="M4723 781 c-4 -3 -9 -14 -9 -24 -2 -14 4 -17 29 -15 17 2 32 8 34 13
4 12 -42 35 -54 26z"/>
<path d="M4848 778 c-40 -14 -35 -30 7 -22 23 4 35 2 35 -5 0 -16 85 -14 99 3
8 10 8 16 -1 23 -17 13 -105 13 -140 1z"/>
<path d="M5278 783 c-10 -2 -18 -8 -18 -13 0 -12 47 -21 74 -14 13 3 26 2 29
-3 3 -4 31 -8 64 -8 43 0 58 4 58 14 0 10 -18 15 -65 17 -36 2 -78 5 -95 8
-16 2 -38 2 -47 -1z"/>
<path d="M5780 775 c0 -8 6 -15 14 -15 8 0 16 -7 20 -15 6 -17 26 -21 26 -5 0
15 -33 50 -47 50 -7 0 -13 -7 -13 -15z"/>
<path d="M5962 782 c-18 -2 -30 -8 -27 -13 8 -12 62 -12 70 0 8 13 -5 17 -43
13z"/>
<path d="M6590 762 c0 -15 4 -22 13 -18 6 3 20 9 30 12 26 10 20 21 -13 26
-26 4 -30 2 -30 -20z"/>
<path d="M7657 783 c-5 -8 -29 -13 -58 -13 -27 0 -49 -4 -49 -9 0 -13 37 -24
51 -15 6 3 22 1 35 -7 29 -15 36 -9 32 28 -2 18 -6 24 -11 16z"/>
<path d="M8060 780 c-8 -6 -34 -9 -57 -8 -23 1 -49 -4 -57 -11 -13 -11 -19
-11 -31 -1 -9 7 -54 12 -117 13 -98 2 -103 1 -106 -19 -3 -18 3 -22 40 -28 24
-3 59 -2 79 3 24 5 49 4 72 -4 35 -12 122 -6 148 11 6 3 22 1 35 -6 16 -9 27
-10 36 -3 18 14 152 11 170 -4 18 -15 27 -8 21 16 -7 28 -53 39 -117 30 -44
-7 -61 -6 -79 5 -15 10 -27 12 -37 6z"/>
<path d="M13898 785 c-3 -3 -46 -7 -95 -9 -73 -2 -98 -8 -127 -26 l-37 -22 19
-32 c10 -17 21 -30 25 -30 4 1 34 4 67 8 50 6 60 10 60 26 0 26 17 34 28 13 9
-16 11 -16 36 0 35 24 72 21 91 -5 12 -16 19 -19 22 -10 3 7 12 20 21 29 20
20 26 59 7 43 -8 -7 -22 -6 -44 1 -18 6 -35 9 -38 5 -3 -3 -11 -1 -18 4 -7 5
-14 8 -17 5z"/>
<path d="M47 751 c-15 -30 -15 -31 8 -31 13 0 27 5 30 10 3 6 17 10 31 10 13
0 24 4 24 9 0 13 -8 17 -46 25 -29 6 -34 4 -47 -23z"/>
<path d="M160 770 c0 -6 8 -14 18 -18 9 -4 17 -14 17 -22 0 -24 30 -17 33 8 5
31 22 28 23 -5 1 -17 3 -21 6 -10 2 9 7 17 10 17 3 0 12 -8 19 -17 10 -14 17
-16 31 -7 25 15 23 49 -2 50 -11 1 -22 2 -25 3 -19 9 -130 10 -130 1z"/>
<path d="M490 771 c0 -6 -9 -11 -19 -11 -25 0 -51 -10 -51 -20 0 -4 16 -7 35
-5 25 3 38 -1 44 -13 13 -23 34 -2 29 29 -3 23 -38 41 -38 20z"/>
<path d="M795 775 c-5 -2 -28 -6 -49 -10 l-39 -6 29 -15 c16 -9 39 -12 52 -9
16 4 31 0 43 -11 17 -15 19 -15 34 0 20 20 24 20 48 -1 18 -17 19 -17 29 0 6
11 16 16 27 12 10 -3 24 1 31 10 13 15 13 15 -30 28 -8 2 -27 -2 -42 -9 -24
-12 -28 -12 -37 3 -7 13 -12 14 -23 6 -9 -8 -19 -9 -28 -3 -15 10 -27 11 -45
5z"/>
<path d="M1047 763 c-9 -11 -17 -23 -17 -27 0 -4 36 -5 80 -3 61 4 84 1 101
-11 21 -14 24 -14 36 5 13 20 17 20 71 8 41 -10 60 -10 70 -3 9 8 16 8 24 0
19 -19 45 -14 52 10 8 32 -5 40 -42 27 -20 -7 -37 -7 -48 -1 -9 5 -31 6 -50 2
-19 -4 -37 -3 -42 2 -6 6 -29 8 -54 4 -52 -7 -61 -7 -118 0 -37 5 -49 2 -63
-13z"/>
<path d="M1543 773 c-18 -7 -16 -32 2 -39 8 -4 22 -1 30 6 10 8 19 9 28 3 6
-6 27 -13 45 -16 27 -6 32 -4 32 13 0 17 -7 20 -49 20 -28 0 -53 5 -56 10 -7
11 -13 11 -32 3z"/>
<path d="M1855 770 c-4 -6 -10 -8 -14 -6 -4 3 -13 0 -21 -5 -13 -8 -13 -10 0
-19 31 -21 61 -23 80 -5 15 14 17 21 9 32 -13 15 -45 17 -54 3z"/>
<path d="M2014 769 c-11 -19 13 -34 31 -19 13 11 13 15 3 21 -18 12 -26 11
-34 -2z"/>
<path d="M2082 768 c7 -20 48 -23 48 -4 0 11 -9 16 -26 16 -16 0 -24 -5 -22
-12z"/>
<path d="M2170 762 c0 -18 18 -42 30 -42 4 0 12 11 18 24 9 21 8 25 -11 30
-33 9 -37 8 -37 -12z"/>
<path d="M2251 766 c-11 -13 -11 -19 0 -32 12 -15 15 -14 31 6 14 18 18 19 18
6 0 -13 7 -15 39 -10 24 4 41 2 45 -5 9 -14 83 -15 91 -1 9 14 68 13 83 -2 9
-9 16 -8 30 5 24 22 51 22 68 0 14 -20 19 -18 28 13 6 19 2 22 -54 27 -40 5
-67 3 -80 -5 -15 -9 -24 -9 -45 2 -22 12 -30 11 -61 -4 -25 -11 -40 -14 -48
-7 -7 6 -26 10 -42 9 -16 0 -43 2 -60 6 -22 6 -34 3 -43 -8z"/>
<path d="M2724 768 c-10 -16 8 -25 63 -31 54 -6 77 5 46 21 -28 14 -102 21
-109 10z"/>
<path d="M2895 763 c-9 -26 8 -34 58 -27 70 10 63 27 -15 37 -27 4 -38 2 -43
-10z"/>
<path d="M3064 769 c-3 -5 -14 -9 -24 -9 -10 0 -22 -5 -25 -10 -10 -16 25 -25
46 -12 24 16 29 15 29 -3 0 -8 5 -15 10 -15 6 0 10 4 10 9 0 5 3 16 6 24 6 16
-42 31 -52 16z"/>
<path d="M3215 773 c-44 -7 -53 -21 -19 -33 24 -9 31 -8 41 6 11 15 18 37 11
33 -2 -1 -16 -4 -33 -6z"/>
<path d="M3302 764 c3 -16 11 -19 47 -16 24 1 50 -3 57 -9 21 -17 31 -2 12 18
-9 9 -40 18 -68 21 -47 4 -52 3 -48 -14z"/>
<path d="M3703 765 c-10 -5 -20 -11 -22 -12 -2 -2 2 -9 8 -17 9 -11 20 -12 44
-5 18 5 33 13 35 19 2 5 17 6 34 3 24 -5 30 -3 26 8 -6 17 -96 20 -125 4z"/>
<path d="M4338 773 c-16 -2 -28 -7 -28 -11 0 -12 50 -31 56 -21 3 5 14 9 24 9
10 0 22 5 26 12 5 8 2 9 -9 5 -9 -3 -19 -2 -22 3 -4 6 -9 9 -13 9 -4 -1 -19
-4 -34 -6z"/>
<path d="M4493 767 c5 -18 57 -22 57 -4 0 9 -11 14 -31 15 -19 0 -29 -4 -26
-11z"/>
<path d="M5125 769 c-4 -6 -5 -12 -4 -13 7 -6 79 6 79 13 0 11 -69 11 -75 0z"/>
<path d="M5548 773 c7 -3 16 -2 19 1 4 3 -2 6 -13 5 -11 0 -14 -3 -6 -6z"/>
<path d="M6096 771 c-3 -5 1 -12 10 -15 24 -9 31 -7 38 9 4 11 -1 15 -19 15
-13 0 -26 -4 -29 -9z"/>
<path d="M6342 771 c4 -13 18 -16 19 -4 0 4 -5 9 -11 12 -7 2 -11 -2 -8 -8z"/>
<path d="M6408 773 c-10 -2 -18 -8 -18 -12 0 -11 49 -1 56 10 5 9 -8 10 -38 2z"/>
<path d="M6500 770 c0 -19 31 -23 48 -6 15 15 14 16 -16 16 -18 0 -32 -5 -32
-10z"/>
<path d="M7195 769 c-4 -6 -5 -12 -4 -13 8 -7 69 7 69 15 0 13 -57 11 -65 -2z"/>
<path d="M7486 772 c-3 -5 -41 -7 -86 -5 -44 2 -80 0 -80 -5 0 -14 68 -33 97
-26 15 3 48 7 73 9 25 2 47 4 49 4 7 1 -32 30 -41 31 -4 0 -9 -4 -12 -8z"/>
<path d="M8307 773 c-4 -3 2 -13 13 -20 17 -12 22 -12 35 0 13 13 13 16 -1 21
-20 8 -39 8 -47 -1z"/>
<path d="M8597 770 c-32 -4 -60 -10 -64 -13 -3 -4 -14 -2 -24 4 -27 14 -119 0
-119 -18 0 -10 9 -14 28 -12 15 2 32 0 39 -4 6 -4 23 -2 37 5 23 10 28 9 40
-8 12 -16 17 -17 37 -6 13 7 43 14 66 15 45 3 70 18 59 36 -8 12 -13 12 -99 1z"/>
<path d="M8880 769 c0 -6 9 -13 20 -16 11 -3 20 -9 20 -14 0 -9 65 -6 136 6
29 5 50 3 70 -8 21 -11 34 -12 51 -4 13 6 23 14 23 18 0 10 -109 16 -149 8
-26 -6 -38 -4 -45 7 -9 12 -17 13 -44 3 -25 -8 -36 -9 -45 0 -14 14 -37 14
-37 0z"/>
<path d="M370 761 c0 -6 5 -13 10 -16 6 -3 10 1 10 9 0 9 -4 16 -10 16 -5 0
-10 -4 -10 -9z"/>
<path d="M540 760 c0 -5 4 -10 9 -10 6 0 13 5 16 10 3 6 -1 10 -9 10 -9 0 -16
-4 -16 -10z"/>
<path d="M612 758 c5 -15 37 -18 41 -3 1 6 -9 12 -22 13 -16 3 -22 -1 -19 -10z"/>
<path d="M1727 756 c-3 -8 3 -22 15 -32 19 -18 20 -18 16 10 -3 32 -22 45 -31
22z"/>
<path d="M3920 761 c0 -10 50 -25 57 -17 3 2 2 9 -2 15 -8 13 -55 15 -55 2z"/>
<path d="M5740 759 c0 -5 5 -7 10 -4 6 3 10 8 10 11 0 2 -4 4 -10 4 -5 0 -10
-5 -10 -11z"/>
<path d="M6767 759 c8 -8 16 -8 30 0 16 9 14 10 -11 11 -22 0 -27 -3 -19 -11z"/>
<path d="M7014 761 c3 -5 15 -7 26 -4 28 7 25 13 -6 13 -14 0 -23 -4 -20 -9z"/>
<path d="M8725 760 c-10 -16 15 -40 41 -40 26 0 31 19 12 38 -15 15 -45 16
-53 2z"/>
<path d="M8843 753 c9 -9 19 -14 23 -11 10 10 -6 28 -24 28 -15 0 -15 -1 1
-17z"/>
<path d="M9235 760 c-3 -5 7 -12 22 -16 15 -4 33 -11 39 -15 7 -6 23 -3 40 6
16 8 35 15 43 15 8 0 11 3 7 7 -10 11 -145 13 -151 3z"/>
<path d="M9607 763 c-59 -2 -95 -8 -92 -13 4 -6 17 -10 30 -10 13 0 26 -4 29
-9 7 -10 44 -3 64 12 8 7 18 5 30 -7 10 -9 22 -13 26 -9 4 4 17 8 29 8 28 0
30 30 2 31 -11 0 -64 -1 -118 -3z"/>
<path d="M9925 760 c-5 -8 -21 -10 -41 -7 -39 7 -104 -2 -104 -13 0 -13 71
-17 124 -8 34 7 51 6 56 -2 4 -7 28 -9 63 -6 62 5 80 12 74 29 -4 14 -97 20
-97 6 0 -9 -17 -7 -56 8 -7 2 -15 -1 -19 -7z"/>
<path d="M10175 763 c-32 -5 -55 -19 -55 -34 0 -11 63 -12 74 -2 3 4 30 6 59
5 l52 -2 -24 20 c-22 19 -43 22 -106 13z"/>
<path d="M14055 760 c-3 -5 3 -10 15 -10 12 0 18 5 15 10 -3 6 -10 10 -15 10
-5 0 -12 -4 -15 -10z"/>
<path d="M9430 746 c0 -19 25 -27 39 -13 18 18 13 27 -14 27 -15 0 -25 -6 -25
-14z"/>
<path d="M10325 750 c3 -5 8 -10 11 -10 2 0 4 5 4 10 0 6 -5 10 -11 10 -5 0
-7 -4 -4 -10z"/>
<path d="M10443 753 c-10 -3 -10 -9 0 -24 15 -24 39 -24 54 0 10 16 9 20 -3
25 -18 7 -34 7 -51 -1z"/>
<path d="M10547 745 c-17 -12 -16 -13 0 -17 42 -10 88 -3 91 14 3 13 -4 17
-35 16 -22 0 -47 -6 -56 -13z"/>
<path d="M11002 748 c-20 -20 -14 -24 38 -25 28 0 50 3 50 7 0 8 -10 12 -60
26 -9 2 -21 -1 -28 -8z"/>
<path d="M11301 751 c-21 -6 -22 -8 -8 -19 21 -18 51 -12 55 11 4 18 -6 20
-47 8z"/>
<path d="M10661 736 c-7 -8 -8 -16 -4 -19 12 -6 65 18 57 26 -12 12 -41 8 -53
-7z"/>
<path d="M10790 740 c0 -5 5 -10 10 -10 6 0 10 5 10 10 0 6 -4 10 -10 10 -5 0
-10 -4 -10 -10z"/>
<path d="M10905 740 c-8 -12 20 -24 35 -15 6 3 8 11 5 16 -8 12 -32 12 -40 -1z"/>
<path d="M11118 743 c7 -3 16 -2 19 1 4 3 -2 6 -13 5 -11 0 -14 -3 -6 -6z"/>
<path d="M11180 740 c0 -5 7 -10 15 -10 8 0 15 5 15 10 0 6 -7 10 -15 10 -8 0
-15 -4 -15 -10z"/>
<path d="M11380 740 c0 -5 5 -10 10 -10 6 0 10 5 10 10 0 6 -4 10 -10 10 -5 0
-10 -4 -10 -10z"/>
<path d="M11582 734 c9 -9 21 -13 27 -10 20 13 11 26 -16 26 -25 0 -26 -1 -11
-16z"/>
<path d="M11700 740 c0 -5 5 -10 10 -10 6 0 10 5 10 10 0 6 -4 10 -10 10 -5 0
-10 -4 -10 -10z"/>
<path d="M11865 740 c-3 -6 0 -13 9 -16 22 -8 59 -1 64 14 5 15 -64 17 -73 2z"/>
<path d="M12356 742 c-3 -6 1 -15 8 -21 8 -7 17 -8 20 -3 3 6 -1 15 -8 21 -8
7 -17 8 -20 3z"/>
<path d="M12924 739 c-10 -17 13 -36 27 -22 12 12 4 33 -11 33 -5 0 -12 -5
-16 -11z"/>
<path d="M13015 739 c-7 -11 22 -38 41 -39 21 0 24 29 4 40 -24 13 -37 13 -45
-1z"/>
<path d="M13224 736 c-8 -22 3 -33 18 -18 9 9 9 15 0 24 -9 9 -13 7 -18 -6z"/>
<path d="M13537 744 c-13 -13 -7 -24 14 -24 11 0 19 5 17 12 -5 14 -22 21 -31
12z"/>
<path d="M580 731 c0 -6 5 -13 10 -16 6 -3 10 1 10 9 0 9 -4 16 -10 16 -5 0
-10 -4 -10 -9z"/>
<path d="M1942 731 c4 -13 18 -16 19 -4 0 4 -5 9 -11 12 -7 2 -11 -2 -8 -8z"/>
<path d="M11760 728 c0 -12 38 -10 45 2 4 6 -5 9 -19 8 -15 -1 -26 -6 -26 -10z"/>
<path d="M12435 730 c3 -5 13 -10 21 -10 8 0 14 5 14 10 0 6 -9 10 -21 10 -11
0 -17 -4 -14 -10z"/>
<path d="M12602 728 c5 -15 37 -18 41 -3 1 6 -9 12 -22 13 -16 3 -22 -1 -19
-10z"/>
<path d="M12816 732 c-3 -6 -1 -14 5 -17 15 -10 25 3 12 16 -7 7 -13 7 -17 1z"/>
<path d="M13300 730 c0 -5 14 -10 30 -10 17 0 30 5 30 10 0 6 -13 10 -30 10
-16 0 -30 -4 -30 -10z"/>
<path d="M17480 700 c0 -5 5 -10 11 -10 5 0 7 5 4 10 -3 6 -8 10 -11 10 -2 0
-4 -4 -4 -10z"/>
<path d="M18760 690 c0 -5 5 -10 10 -10 6 0 10 5 10 10 0 6 -4 10 -10 10 -5 0
-10 -4 -10 -10z"/>
<path d="M19153 682 c-8 -5 -3 -11 13 -19 24 -11 41 -2 29 17 -7 12 -25 13
-42 2z"/>
<path d="M19560 680 c0 -5 7 -10 15 -10 8 0 15 5 15 10 0 6 -7 10 -15 10 -8 0
-15 -4 -15 -10z"/>
<path d="M19746 683 c-11 -11 -6 -23 9 -23 8 0 15 4 15 9 0 13 -16 22 -24 14z"/>
<path d="M19840 680 c0 -5 7 -10 16 -10 8 0 12 5 9 10 -3 6 -10 10 -16 10 -5
0 -9 -4 -9 -10z"/>
<path d="M19980 669 c0 -11 5 -17 10 -14 6 3 10 13 10 21 0 8 -4 14 -10 14 -5
0 -10 -9 -10 -21z"/>
<path d="M17720 670 c0 -5 6 -10 14 -10 8 0 18 5 21 10 3 6 -3 10 -14 10 -12
0 -21 -4 -21 -10z"/>
<path d="M19240 670 c0 -5 7 -7 15 -4 8 4 15 8 15 10 0 2 -7 4 -15 4 -8 0 -15
-4 -15 -10z"/>
<path d="M19700 650 c0 -5 5 -10 10 -10 6 0 10 5 10 10 0 6 -4 10 -10 10 -5 0
-10 -4 -10 -10z"/>
<path d="M20850 650 c0 -5 5 -10 10 -10 6 0 10 5 10 10 0 6 -4 10 -10 10 -5 0
-10 -4 -10 -10z"/>
<path d="M20930 646 c0 -9 5 -16 10 -16 6 0 10 4 10 9 0 6 -4 13 -10 16 -5 3
-10 -1 -10 -9z"/>
<path d="M21040 640 c0 -5 5 -10 10 -10 6 0 10 5 10 10 0 6 -4 10 -10 10 -5 0
-10 -4 -10 -10z"/>
<path d="M21285 640 c-8 -13 4 -32 16 -25 12 8 12 35 0 35 -6 0 -13 -4 -16
-10z"/>
<path d="M21496 622 c-3 -6 -1 -14 5 -17 15 -10 25 3 12 16 -7 7 -13 7 -17 1z"/>
<path d="M22020 620 c0 -5 5 -10 10 -10 6 0 10 5 10 10 0 6 -4 10 -10 10 -5 0
-10 -4 -10 -10z"/>
<path d="M22290 616 c0 -8 10 -13 25 -13 23 0 24 1 8 13 -23 17 -33 17 -33 0z"/>
<path d="M22485 620 c3 -5 8 -10 11 -10 2 0 4 5 4 10 0 6 -5 10 -11 10 -5 0
-7 -4 -4 -10z"/>
<path d="M23650 601 c0 -6 5 -13 10 -16 6 -3 10 1 10 9 0 9 -4 16 -10 16 -5 0
-10 -4 -10 -9z"/>
<path d="M5299 484 c-51 -15 -121 -76 -113 -98 6 -16 152 -28 279 -25 39 1
115 2 170 1 55 -1 132 -1 170 -1 39 0 196 -3 350 -6 614 -11 1002 -13 1045 -5
25 5 50 5 55 0 6 -4 29 -11 53 -15 35 -6 42 -4 42 9 0 9 -5 16 -11 16 -7 0 -9
9 -5 24 4 16 1 26 -9 30 -8 3 -15 12 -15 21 0 18 -12 19 -27 4 -6 -6 -17 -8
-24 -3 -22 13 -111 20 -344 27 -66 2 -126 6 -133 11 -6 4 -20 3 -30 -3 -12 -6
-33 -6 -60 0 -26 6 -50 5 -67 -1 -15 -6 -31 -7 -37 -4 -6 4 -65 8 -132 10 -66
2 -133 6 -148 10 -21 4 -28 2 -28 -10 0 -18 -15 -21 -25 -6 -3 5 -45 9 -93 9
-48 0 -121 3 -162 5 -41 3 -82 5 -90 5 -8 -1 -79 0 -157 0 -92 1 -144 -2 -148
-9 -5 -8 -11 -7 -22 1 -21 18 -227 19 -284 3z"/>
<path d="M7666 395 c-17 -13 -17 -45 1 -45 15 0 73 40 73 50 0 15 -52 12 -74
-5z"/>
<path d="M4740 263 c-49 -21 -70 -42 -70 -70 0 -13 -5 -33 -11 -44 -7 -14 -7
-30 1 -55 8 -24 9 -43 1 -64 l-10 -30 48 0 48 0 6 48 c3 26 13 81 21 122 25
119 25 119 -34 93z"/>
<path d="M1480 225 c-11 -13 -10 -14 4 -9 9 3 16 10 16 15 0 13 -6 11 -20 -6z"/>
<path d="M7313 223 c-3 -10 -15 -31 -26 -46 -16 -24 -18 -38 -13 -88 5 -39 3
-59 -4 -59 -5 0 -10 -7 -10 -15 0 -11 12 -15 45 -15 44 0 44 1 35 26 -9 22 -6
29 20 53 26 24 30 33 26 70 -2 26 -12 51 -26 66 -28 30 -38 31 -47 8z"/>
<path d="M3805 219 c-4 -6 -5 -13 -2 -16 7 -7 27 6 27 18 0 12 -17 12 -25 -2z"/>
<path d="M695 210 c-3 -5 -17 -10 -31 -10 -13 0 -24 -5 -24 -10 0 -16 33 -26
38 -12 2 7 10 12 18 12 8 0 14 7 14 15 0 17 -6 19 -15 5z"/>
<path d="M1760 210 c0 -5 5 -10 11 -10 5 0 7 5 4 10 -3 6 -8 10 -11 10 -2 0
-4 -4 -4 -10z"/>
<path d="M1955 211 c-7 -12 12 -24 25 -16 11 7 4 25 -10 25 -5 0 -11 -4 -15
-9z"/>
<path d="M2976 211 c-4 -5 -2 -12 3 -15 5 -4 12 -2 15 3 4 5 2 12 -3 15 -5 4
-12 2 -15 -3z"/>
<path d="M1567 199 c7 -7 15 -10 18 -7 3 3 -2 9 -12 12 -14 6 -15 5 -6 -5z"/>
<path d="M1618 203 c7 -3 16 -2 19 1 4 3 -2 6 -13 5 -11 0 -14 -3 -6 -6z"/>
<path d="M3535 200 c3 -5 8 -10 11 -10 2 0 4 5 4 10 0 6 -5 10 -11 10 -5 0 -7
-4 -4 -10z"/>
<path d="M895 190 c-8 -13 5 -13 25 0 13 8 13 10 -2 10 -9 0 -20 -4 -23 -10z"/>
<path d="M2380 180 c0 -5 5 -10 10 -10 6 0 10 5 10 10 0 6 -4 10 -10 10 -5 0
-10 -4 -10 -10z"/>
<path d="M4270 165 c0 -8 5 -15 10 -15 6 0 10 7 10 15 0 8 -4 15 -10 15 -5 0
-10 -7 -10 -15z"/>
<path d="M1443 158 c2 -7 10 -13 17 -13 7 0 15 6 18 13 2 7 -5 12 -18 12 -13
0 -20 -5 -17 -12z"/>
<path d="M570 150 c0 -5 5 -10 10 -10 6 0 10 5 10 10 0 6 -4 10 -10 10 -5 0
-10 -4 -10 -10z"/>
<path d="M1560 150 c0 -5 7 -10 15 -10 8 0 15 5 15 10 0 6 -7 10 -15 10 -8 0
-15 -4 -15 -10z"/>
<path d="M535 140 c-3 -5 -2 -10 4 -10 5 0 13 5 16 10 3 6 2 10 -4 10 -5 0
-13 -4 -16 -10z"/>
<path d="M1010 116 c0 -9 5 -16 10 -16 6 0 10 4 10 9 0 6 -4 13 -10 16 -5 3
-10 -1 -10 -9z"/>
<path d="M350 105 c0 -8 9 -15 20 -15 24 0 27 15 4 24 -22 9 -24 8 -24 -9z"/>
<path d="M1500 110 c0 -5 7 -10 15 -10 8 0 15 5 15 10 0 6 -7 10 -15 10 -8 0
-15 -4 -15 -10z"/>
<path d="M5130 62 c0 -6 5 -14 10 -17 6 -4 8 -15 5 -26 -6 -17 -1 -19 42 -19
52 1 93 25 93 55 0 13 -5 16 -22 10 -31 -9 -46 -9 -90 0 -25 5 -38 4 -38 -3z"/>
<path d="M7992 48 c-19 -19 -14 -30 11 -26 12 2 22 9 22 17 0 19 -18 24 -33 9z"/>
</g>
</svg>
