<?xml version="1.0" standalone="no"?>
<!DOCTYPE svg PUBLIC "-//W3C//DTD SVG 20010904//EN"
 "http://www.w3.org/TR/2001/REC-SVG-20010904/DTD/svg10.dtd">
<svg version="1.0" xmlns="http://www.w3.org/2000/svg"
 width="2448.000000pt" height="3264.000000pt" viewBox="0 0 2448.000000 3264.000000"
 preserveAspectRatio="xMidYMid meet">
<metadata>
Created by potrace 1.12, written by Peter Selinger 2001-2015
</metadata>
<g transform="translate(0.000000,3264.000000) scale(0.100000,-0.100000)"
fill="#000000" stroke="none">
<path d="M4035 31587 c-55 -10 -65 -16 -120 -72 -88 -89 -229 -308 -360 -560
-73 -139 -315 -623 -315 -629 0 -3 -109 -236 -241 -518 -159 -338 -256 -533
-286 -572 -45 -61 -50 -81 -21 -99 24 -16 91 8 128 45 32 32 162 289 227 448
19 47 40 99 48 115 77 167 205 471 205 488 0 25 240 526 387 807 116 222 290
470 331 470 20 0 14 -77 -23 -281 -79 -431 -118 -908 -119 -1429 -1 -319 0
-349 18 -388 16 -34 26 -44 58 -52 46 -13 94 -5 163 26 118 51 243 237 428
634 24 52 50 111 57 130 7 19 24 53 36 75 20 35 38 83 101 265 8 25 30 74 48
110 19 36 48 96 67 133 64 132 74 106 34 -89 -60 -293 -102 -728 -85 -874 7
-63 31 -100 63 -100 31 1 37 20 46 156 34 458 77 762 152 1079 l30 129 -22 18
c-23 19 -68 16 -106 -7 -28 -18 -229 -370 -321 -564 -105 -220 -268 -543 -316
-626 -128 -221 -254 -381 -294 -373 -31 6 -35 68 -30 433 8 456 36 830 86
1140 55 332 72 472 61 500 -8 20 -41 48 -52 44 -2 -1 -30 -7 -63 -12z"/>
<path d="M548 31499 c-22 -12 -23 -47 -3 -76 15 -21 398 -218 480 -247 268
-94 598 -232 669 -280 25 -17 27 -23 22 -56 -5 -29 -2 -39 10 -44 12 -5 15
-14 10 -36 -9 -46 -34 -77 -66 -84 -28 -5 -43 -26 -20 -26 31 0 -3 -38 -102
-112 -62 -47 -201 -150 -308 -230 -107 -81 -251 -189 -320 -242 -69 -53 -173
-130 -231 -171 -134 -94 -184 -162 -144 -195 18 -15 47 -6 100 29 179 121 322
221 450 316 83 62 200 148 260 191 198 142 308 230 402 318 98 93 173 195 173
236 -1 79 -74 152 -247 244 -54 29 -131 71 -171 95 -104 60 -345 174 -432 205
-41 15 -125 47 -187 72 -61 24 -115 44 -120 44 -5 0 -44 14 -86 30 -83 32
-111 36 -139 19z"/>
<path d="M17171 31295 c-55 -47 -218 -301 -297 -465 -88 -184 -180 -460 -228
-688 -13 -63 -27 -116 -30 -119 -3 -3 -37 24 -76 60 -52 48 -99 79 -173 115
-123 60 -197 76 -316 70 -74 -5 -99 -11 -156 -39 -75 -37 -126 -83 -158 -144
-17 -32 -21 -57 -20 -120 2 -189 114 -336 301 -396 92 -29 274 -35 457 -15
214 23 793 122 945 161 30 8 101 26 158 40 l104 26 129 -41 c164 -52 300 -79
462 -89 167 -11 224 1 215 45 -7 39 -62 62 -166 68 -207 14 -402 46 -402 67 0
13 49 33 153 64 211 62 437 225 467 337 29 104 -55 223 -204 294 -196 92 -354
82 -586 -37 -165 -85 -341 -232 -383 -322 -21 -43 -22 -128 -3 -166 16 -30 90
-102 125 -120 44 -24 24 -38 -66 -51 -49 -7 -230 -38 -403 -70 -382 -70 -427
-77 -605 -91 -302 -23 -439 13 -515 136 -28 45 -52 164 -44 217 16 94 112 154
234 146 59 -5 87 -14 185 -62 97 -47 129 -69 189 -129 41 -40 85 -95 99 -123
28 -55 40 -64 91 -64 56 0 68 17 71 101 5 122 111 512 205 749 90 228 219 457
332 588 34 39 27 64 -23 81 -40 14 -32 15 -68 -14z m1086 -851 c100 -50 143
-102 143 -174 0 -43 -4 -51 -37 -81 -104 -90 -244 -162 -471 -240 -165 -57
-178 -58 -251 -19 -117 63 -166 130 -147 206 9 34 122 144 210 203 109 73 156
98 237 126 63 22 86 25 156 22 71 -4 94 -10 160 -43z"/>
<path d="M8607 31169 c-51 -30 -137 -239 -242 -589 -19 -62 -84 -328 -100
-409 -7 -36 -22 -107 -34 -157 -11 -50 -22 -122 -23 -159 -3 -68 -2 -70 26
-83 26 -13 36 -13 85 3 84 27 125 56 266 195 168 165 414 390 426 390 10 0 11
-8 9 -70 -3 -91 -51 -433 -105 -750 -17 -98 -21 -172 -11 -188 11 -19 61 -14
90 9 22 17 26 28 26 69 0 57 7 80 25 80 25 0 111 108 153 193 23 47 60 140 81
206 22 66 46 130 55 143 23 32 20 65 -9 93 -53 54 -100 16 -139 -113 -97 -317
-107 -344 -121 -330 -5 5 32 236 40 248 9 15 47 277 52 360 6 116 -3 145 -54
167 -32 13 -44 13 -73 3 -52 -19 -130 -73 -228 -159 -48 -42 -119 -103 -157
-136 -38 -33 -118 -108 -177 -167 -59 -60 -112 -108 -118 -108 -16 0 -12 32
19 158 16 64 41 171 56 237 66 294 167 610 238 749 49 94 50 99 32 112 -22 16
-63 18 -88 3z"/>
<path d="M9212 31027 c-12 -13 -22 -30 -22 -39 0 -24 49 -106 77 -128 34 -27
53 -25 86 6 33 30 31 49 -11 129 -25 46 -30 50 -67 53 -32 2 -45 -2 -63 -21z"/>
<path d="M1540 30765 c-258 -49 -861 -103 -1353 -121 l-187 -7 0 -70 0 -70
223 7 c394 13 420 14 557 25 74 6 189 18 255 26 66 8 181 21 255 30 187 22
291 45 297 64 3 9 16 27 28 41 48 55 77 100 64 99 -8 0 -70 -11 -139 -24z"/>
<path d="M14149 30736 c-97 -34 -237 -137 -360 -263 -107 -109 -161 -183 -206
-281 -93 -204 -98 -382 -11 -456 114 -98 306 -78 578 60 147 75 191 108 169
129 -12 12 -25 11 -89 -6 -41 -11 -102 -31 -135 -44 -165 -65 -204 -77 -276
-82 -140 -10 -169 10 -169 118 0 81 20 170 58 249 105 225 374 461 557 490 77
12 101 30 84 62 -6 10 -21 23 -35 28 -35 14 -122 12 -165 -4z"/>
<path d="M11285 30620 c-206 -54 -396 -195 -467 -346 -27 -58 -32 -82 -37
-177 l-6 -111 -63 -11 c-69 -13 -112 -44 -112 -82 0 -31 38 -39 116 -24 35 7
67 10 72 7 5 -3 17 -27 27 -53 38 -99 116 -187 199 -222 68 -30 190 -51 290
-51 109 0 360 40 413 66 41 20 54 48 28 58 -9 3 -105 1 -213 -5 -293 -17 -402
-3 -490 61 -51 37 -103 123 -100 165 3 27 9 32 58 47 195 62 465 212 570 318
36 36 76 87 89 113 53 109 -3 222 -128 257 -55 15 -168 11 -246 -10z m212 -96
c13 -8 30 -25 39 -39 13 -20 14 -30 4 -61 -16 -47 -79 -116 -150 -164 -126
-85 -459 -248 -480 -235 -25 15 2 156 49 255 81 172 414 323 538 244z"/>
<path d="M7585 30579 c-120 -15 -223 -71 -345 -186 -130 -122 -207 -244 -266
-423 -23 -72 -28 -102 -28 -200 -1 -146 17 -212 77 -277 53 -58 89 -73 175
-73 77 0 178 34 282 96 105 62 265 221 462 457 53 63 80 113 76 138 -3 21 -6
20 -55 -22 -29 -24 -137 -124 -240 -222 -103 -99 -213 -199 -245 -223 -116
-90 -256 -134 -318 -102 -60 32 -101 177 -82 291 36 220 111 368 258 512 79
78 172 132 244 141 55 7 123 -14 128 -39 2 -9 -16 -40 -40 -70 -70 -83 -96
-122 -104 -152 -8 -33 -10 -34 96 36 122 81 190 159 190 218 0 32 -53 87 -93
95 -51 11 -116 12 -172 5z"/>
<path d="M9784 30566 c-19 -14 -21 -28 -27 -158 -10 -244 -45 -447 -112 -652
-43 -132 -43 -160 1 -164 18 -2 48 4 68 12 33 14 44 30 134 213 97 195 110
219 200 378 61 106 121 187 135 182 24 -8 5 -312 -34 -552 -25 -157 -26 -286
-1 -308 30 -27 71 -38 94 -26 19 10 20 17 14 88 -6 76 -3 100 34 301 25 133
40 309 40 476 0 112 -2 133 -17 146 -51 44 -138 21 -219 -59 -77 -76 -204
-274 -204 -318 0 -8 -7 -15 -16 -15 -18 0 -17 23 6 145 5 28 12 104 16 171 7
119 7 121 -17 137 -29 21 -68 22 -95 3z"/>
<path d="M14959 30445 c-3 -2 -61 -15 -130 -29 -193 -38 -297 -85 -349 -158
-29 -39 -37 -78 -24 -112 9 -25 66 -30 129 -11 32 9 59 15 61 13 2 -2 -8 -32
-22 -66 -38 -95 -47 -159 -34 -253 14 -101 20 -116 62 -156 48 -47 107 -64
213 -64 287 1 648 195 701 377 9 33 13 67 9 87 -30 140 -228 313 -397 346
-153 30 -209 37 -219 26z m141 -116 c95 -26 134 -44 190 -87 63 -49 97 -89
126 -147 42 -87 30 -124 -61 -192 -136 -100 -345 -173 -499 -173 -80 0 -93 5
-112 42 -20 38 -22 199 -4 255 20 61 70 155 103 193 54 62 138 130 160 130 12
0 56 -9 97 -21z m-350 -30 c0 -6 -9 -23 -20 -37 -60 -78 -51 -72 -97 -60 -68
19 -52 56 37 88 64 22 80 24 80 9z"/>
<path d="M6008 30371 c-324 -107 -603 -485 -637 -861 -15 -171 29 -240 153
-240 238 0 592 311 657 576 25 101 41 108 63 27 70 -259 119 -352 195 -373 60
-16 192 10 219 43 18 21 -4 34 -58 34 -64 0 -116 27 -145 77 -26 45 -116 329
-140 441 -8 39 -15 90 -15 116 0 53 -13 69 -54 69 -23 0 -27 3 -18 12 20 20
14 56 -13 74 -38 25 -139 28 -207 5z m145 -94 c39 -1 44 -6 26 -24 -6 -6 -17
-62 -24 -124 -25 -210 -114 -381 -289 -554 -111 -110 -207 -170 -290 -181 -96
-14 -106 34 -51 249 51 203 123 336 248 461 123 123 239 191 307 180 19 -3 52
-6 73 -7z"/>
<path d="M7625 27510 c-18 -20 -18 -44 -6 -633 25 -1177 22 -1494 -15 -1674
-18 -90 -10 -113 41 -113 24 0 39 7 54 26 29 37 39 77 61 250 18 140 19 195
14 735 -3 325 -1 745 5 947 11 356 10 364 -10 403 -11 22 -29 49 -39 59 -27
27 -81 26 -105 0z"/>
<path d="M11923 27468 c-19 -21 -21 -35 -21 -133 -1 -136 -29 -307 -112 -671
-83 -367 -110 -507 -170 -879 -63 -393 -90 -617 -90 -757 0 -99 2 -108 21
-118 31 -17 65 -4 87 32 20 34 30 91 58 343 16 147 52 391 84 560 10 55 24
132 30 170 28 170 62 331 100 480 38 146 53 210 110 450 78 333 61 512 -50
540 -19 4 -31 0 -47 -17z"/>
<path d="M9755 27153 c-73 -16 -167 -54 -275 -110 -298 -156 -487 -328 -609
-553 -103 -192 -136 -505 -75 -710 66 -222 232 -350 494 -380 119 -14 207 -9
353 20 153 32 219 57 427 166 496 260 759 628 720 1005 -18 176 -75 294 -183
375 -98 73 -188 107 -397 149 -61 13 -109 16 -170 12 -69 -5 -96 -2 -140 13
-53 18 -102 23 -145 13z m505 -168 c203 -64 304 -134 356 -248 28 -60 29 -68
29 -212 0 -142 -2 -154 -31 -236 -17 -48 -51 -117 -77 -155 -178 -267 -588
-507 -982 -574 -43 -8 -124 -11 -205 -8 -118 4 -145 9 -215 35 -73 27 -83 34
-117 82 -109 155 -111 382 -7 677 39 110 67 167 110 219 65 79 257 264 313
302 97 64 102 67 120 60 16 -6 15 -10 -8 -38 -29 -34 -31 -42 -16 -70 8 -15
21 -19 60 -19 45 0 55 5 143 74 52 41 113 83 137 92 43 17 43 17 61 -7 60 -80
60 -80 98 -77 43 4 51 29 26 78 -27 52 -15 64 58 57 34 -3 100 -18 147 -32z"/>
<path d="M5670 27080 c-91 -15 -196 -35 -235 -44 -200 -48 -695 -148 -795
-162 -69 -9 -166 -14 -242 -12 -120 3 -129 2 -150 -19 -33 -34 -13 -68 59 -99
73 -33 197 -42 336 -24 207 25 367 55 947 177 202 42 225 45 385 46 200 2 262
-12 296 -67 72 -118 -61 -400 -418 -881 -300 -406 -371 -510 -476 -702 -194
-354 -267 -522 -267 -617 0 -59 14 -82 55 -92 45 -11 57 -2 75 61 49 178 284
629 455 873 22 31 119 163 215 292 329 442 485 695 529 855 15 56 14 179 -3
218 -7 18 -32 56 -55 84 -110 139 -343 176 -711 113z"/>
<path d="M5969 24636 c-2 -2 -69 -9 -149 -16 -334 -26 -391 -32 -593 -65 -214
-35 -326 -51 -585 -84 -78 -10 -149 -24 -157 -31 -22 -18 -19 -76 5 -100 24
-24 19 -24 150 -5 58 8 155 21 215 29 61 8 209 31 330 50 228 37 344 51 551
66 239 17 352 40 397 78 22 20 22 37 -3 62 -16 16 -33 20 -88 20 -38 0 -71 -2
-73 -4z"/>
<path d="M12955 24539 c-220 -23 -375 -82 -375 -144 0 -35 19 -44 105 -46 69
-3 88 1 135 24 52 25 66 27 215 29 216 4 637 -30 845 -68 162 -29 405 -76 497
-95 51 -10 108 -19 127 -19 19 0 56 -4 83 -9 26 -6 94 -15 150 -21 155 -17
225 9 174 64 -24 26 -88 46 -226 70 -49 9 -153 27 -230 42 -77 14 -162 30
-190 34 -27 5 -113 22 -190 39 -224 47 -355 63 -765 96 -201 16 -235 17 -355
4z"/>
<path d="M12730 24259 c-340 -115 -688 -258 -878 -361 -123 -67 -212 -141
-212 -176 0 -68 52 -104 314 -217 413 -178 755 -370 898 -504 113 -106 135
-188 78 -296 -87 -165 -295 -354 -588 -534 -215 -132 -420 -178 -551 -125
-113 46 -151 -30 -50 -102 34 -25 63 -36 120 -45 193 -30 385 31 682 216 188
117 290 198 391 310 110 123 141 170 168 259 96 317 -240 590 -1165 947 -102
39 -167 80 -167 105 0 18 15 18 34 -1 19 -20 16 -21 77 21 66 45 300 159 429
209 359 141 561 209 675 227 39 7 75 15 81 20 17 13 5 55 -26 88 -41 43 -74
39 -310 -41z"/>
<path d="M5555 24030 c-93 -15 -246 -40 -340 -55 -212 -33 -307 -50 -412 -75
-45 -11 -111 -20 -145 -20 -77 0 -111 -19 -106 -58 5 -43 39 -54 148 -47 52 4
136 15 185 26 50 10 140 25 200 33 263 34 426 58 502 71 46 9 117 18 158 22
65 5 75 4 75 -10 0 -9 -28 -65 -63 -124 -139 -237 -141 -240 -422 -788 -194
-377 -317 -608 -398 -745 -107 -181 -327 -504 -454 -669 -144 -185 -164 -230
-111 -244 52 -14 86 15 277 238 156 183 217 267 436 611 121 189 207 337 254
435 23 46 57 111 75 144 19 33 60 110 92 170 31 61 74 140 95 177 22 36 39 69
39 72 0 3 23 48 51 98 29 51 68 124 88 161 41 77 43 82 125 227 33 57 72 123
88 146 16 23 35 59 43 78 18 43 8 71 -45 121 -31 30 -33 30 -148 32 -90 2
-157 -5 -287 -27z"/>
<path d="M10000 23941 c-164 -63 -248 -117 -422 -269 -277 -243 -466 -565
-522 -892 -25 -143 -29 -230 -17 -345 18 -164 45 -252 107 -351 72 -113 224
-213 379 -250 96 -23 270 -22 366 1 174 42 393 161 629 343 52 40 124 95 160
123 83 64 311 290 399 394 119 142 179 236 245 389 45 102 59 172 59 293 -1
110 -1 113 -41 196 -31 64 -56 97 -101 140 -74 68 -136 99 -266 133 -216 57
-577 24 -831 -75 -128 -50 -206 -94 -262 -147 -38 -37 -42 -45 -33 -63 7 -11
23 -24 37 -27 30 -8 104 19 142 51 39 32 156 89 234 113 87 27 153 39 322 56
249 27 432 -15 552 -126 155 -143 135 -411 -51 -700 -86 -133 -277 -346 -414
-462 -192 -163 -475 -357 -606 -417 -335 -151 -679 -100 -798 119 -60 111 -73
370 -28 563 36 156 123 360 211 501 22 35 47 77 56 93 34 62 133 172 257 286
107 98 142 125 221 163 88 42 206 76 269 76 31 0 34 14 13 63 -32 78 -115 87
-266 28z"/>
<path d="M7835 23949 c-158 -19 -312 -71 -680 -229 -66 -28 -190 -78 -275
-111 -152 -58 -190 -82 -190 -119 0 -41 27 -52 119 -48 75 4 100 10 201 52
258 106 341 141 470 196 162 69 283 105 406 121 86 11 96 10 158 -11 141 -47
151 -157 37 -397 -85 -176 -224 -369 -545 -752 -232 -277 -480 -592 -527 -671
-21 -36 -41 -80 -45 -98 -4 -17 -13 -37 -20 -43 -20 -16 -17 -73 4 -91 34 -30
64 -39 209 -63 170 -29 370 -33 494 -11 42 8 188 50 325 95 217 70 254 85 282
114 45 47 42 72 -19 129 -54 51 -75 54 -143 22 -16 -8 -38 -14 -49 -14 -10 0
-37 -14 -58 -31 -58 -46 -314 -120 -563 -164 -116 -20 -255 -20 -282 0 -10 8
-37 15 -60 15 -44 0 -81 20 -70 38 10 16 37 15 63 -3 12 -9 29 -12 40 -8 24 8
78 67 128 137 116 164 239 323 362 467 76 89 152 178 168 199 17 20 57 70 90
111 442 541 548 814 402 1030 -71 105 -244 161 -432 138z m307 -1983 c13 -19
9 -73 -7 -86 -23 -19 -35 -4 -23 30 8 24 7 35 -6 55 -9 13 -16 27 -16 30 0 8
44 -16 52 -29z"/>
<path d="M5950 21411 c-24 -13 -224 -30 -560 -46 -173 -9 -432 -25 -575 -35
-143 -11 -325 -24 -405 -30 -149 -11 -334 -43 -357 -62 -18 -15 -16 -83 3
-102 20 -21 48 -20 136 3 44 12 127 22 208 26 74 3 216 13 316 21 207 16 396
28 784 49 151 8 300 17 330 21 74 8 182 33 197 46 22 18 15 67 -13 93 -29 27
-40 29 -64 16z"/>
<path d="M12542 20943 c-22 -32 -36 -74 -52 -158 -6 -33 -29 -134 -50 -225
-61 -258 -83 -495 -95 -995 -5 -246 -12 -320 -49 -570 -34 -225 -49 -362 -41
-374 11 -19 51 -12 73 12 32 34 48 91 81 292 52 313 66 439 86 750 21 328 57
565 129 854 30 119 59 229 65 244 13 33 8 64 -21 128 -31 71 -91 91 -126 42z"/>
<path d="M8045 20879 c-27 -6 -120 -24 -205 -40 -85 -17 -184 -38 -220 -48
-36 -10 -117 -31 -180 -46 -258 -61 -310 -84 -310 -137 0 -46 132 -67 220 -34
41 16 129 38 451 111 167 39 345 64 459 67 121 3 164 -3 168 -23 8 -44 -212
-302 -492 -577 -327 -321 -415 -425 -416 -493 0 -34 39 -53 123 -61 107 -10
144 -5 625 87 247 47 464 28 539 -47 43 -44 52 -106 29 -198 -51 -199 -222
-403 -536 -640 -155 -117 -252 -177 -429 -263 -134 -66 -132 -65 -281 -55 -41
3 -45 1 -54 -24 -14 -40 12 -90 60 -113 53 -25 158 -17 244 20 113 47 320 164
459 259 136 93 336 260 426 357 105 112 214 296 246 414 21 78 18 222 -5 268
-83 167 -316 229 -681 181 -121 -15 -384 -66 -440 -84 -16 -5 -39 -9 -50 -8
-11 1 -44 -2 -72 -6 -37 -6 -53 -4 -53 3 0 17 119 91 145 91 13 0 51 21 86 46
92 67 553 533 633 639 l67 90 -3 60 c-6 87 -39 134 -124 176 -66 33 -69 33
-223 36 -86 1 -178 -3 -206 -8z"/>
<path d="M5620 20753 c-260 -25 -775 -160 -1137 -300 -226 -86 -346 -149 -466
-243 -48 -38 -57 -50 -57 -77 0 -86 114 -87 203 0 78 76 224 144 547 255 269
93 533 162 785 207 262 46 405 31 405 -43 0 -106 -149 -412 -432 -883 -206
-342 -328 -558 -448 -799 -40 -80 -113 -221 -161 -313 -50 -93 -89 -180 -89
-196 0 -34 17 -51 50 -51 44 0 87 36 128 107 96 164 153 266 267 478 56 105
143 257 194 338 50 82 91 151 91 153 0 2 29 48 64 101 35 54 81 127 103 163
22 36 70 115 108 175 171 275 297 557 298 670 2 110 -71 209 -175 240 -55 16
-200 26 -278 18z"/>
<path d="M10267 20515 c-53 -8 -172 -30 -263 -50 l-166 -37 -22 21 c-12 12
-30 21 -40 21 -42 0 -193 -115 -248 -189 -50 -66 -105 -179 -136 -275 -22 -72
-26 -98 -26 -231 0 -139 2 -156 28 -235 57 -171 138 -296 258 -397 134 -114
280 -165 466 -164 226 2 377 56 624 223 277 187 409 417 412 713 1 186 -50
334 -157 451 -58 65 -162 119 -278 148 -80 20 -309 20 -452 1z m423 -111 c85
-24 141 -57 198 -118 95 -100 137 -234 129 -406 -14 -299 -175 -502 -530 -670
-124 -58 -206 -79 -340 -87 -154 -8 -290 28 -389 104 -75 58 -167 191 -209
303 -21 58 -24 80 -23 200 1 117 5 146 29 220 50 159 160 320 216 320 10 0 31
13 47 28 30 29 98 46 398 97 193 33 373 36 474 9z m-953 -40 c-3 -3 -12 -4
-19 -1 -8 3 -5 6 6 6 11 1 17 -2 13 -5z"/>
<path d="M5917 18369 c-58 -8 -507 -122 -526 -133 -15 -10 -277 -66 -373 -81
-222 -34 -459 -64 -580 -74 -165 -13 -208 -35 -208 -106 0 -66 44 -93 102 -64
26 13 85 24 190 34 191 19 541 70 659 96 92 20 284 70 544 141 139 38 161 41
303 45 85 2 162 8 173 13 26 14 24 52 -3 77 -59 53 -150 70 -281 52z"/>
<path d="M12748 17830 c-94 -50 -198 -254 -248 -490 -19 -86 -28 -142 -59
-380 -6 -41 -23 -199 -38 -350 -43 -421 -35 -631 31 -899 l11 -46 63 -1 62 -1
0 31 c0 17 -12 90 -25 161 -47 248 -51 330 -26 605 62 696 93 901 160 1081 30
79 95 166 139 187 29 13 39 25 46 54 17 67 -38 89 -116 48z"/>
<path d="M5290 17695 c-38 -41 -52 -115 -57 -315 -9 -329 65 -966 181 -1550
57 -291 71 -423 62 -621 -5 -141 -4 -159 12 -177 24 -28 57 -36 74 -18 35 35
51 345 27 521 -5 44 -32 197 -59 341 -49 259 -89 518 -109 709 -47 435 -59
907 -28 1024 16 58 16 66 2 87 -21 33 -73 33 -105 -1z"/>
<path d="M7969 17513 c-206 -211 -317 -386 -405 -638 -30 -87 -38 -128 -41
-200 -4 -88 -4 -91 29 -139 40 -59 155 -132 318 -200 154 -65 268 -96 407
-109 103 -9 132 -8 195 5 40 9 76 13 80 10 4 -4 1 -54 -7 -112 -21 -151 -57
-519 -62 -631 -6 -114 4 -152 52 -199 33 -32 35 -33 59 -16 40 26 44 63 11 93
-26 25 -27 28 -21 107 4 44 11 113 16 151 6 39 21 185 35 325 14 140 30 271
35 291 8 30 21 43 60 66 44 25 100 89 100 113 0 5 -8 14 -18 19 -14 7 -32 4
-69 -14 -28 -13 -53 -22 -55 -19 -7 7 48 334 76 448 15 60 47 157 71 215 68
161 134 247 212 282 29 12 44 26 49 44 17 66 -28 107 -90 81 -93 -39 -221
-214 -297 -408 -51 -129 -129 -514 -129 -634 0 -70 -13 -81 -107 -89 -154 -15
-336 12 -493 74 -99 39 -262 125 -303 161 -36 32 -40 42 -44 90 -10 114 104
390 231 561 64 87 214 229 241 229 25 0 36 45 22 87 -10 32 -17 38 -42 41 -26
2 -41 -9 -116 -85z"/>
<path d="M10585 17381 c-120 -22 -165 -35 -405 -113 -273 -89 -348 -130 -365
-199 -5 -21 0 -31 25 -53 41 -34 75 -34 97 2 10 15 25 32 33 39 19 15 383 144
505 178 214 61 415 59 484 -6 21 -20 23 -28 19 -90 -4 -55 -13 -81 -47 -142
-61 -113 -83 -143 -282 -382 -272 -328 -417 -534 -469 -666 -33 -84 -52 -182
-41 -212 12 -30 67 -69 131 -93 60 -21 295 -21 447 0 304 43 683 175 876 304
112 75 139 105 116 127 -12 12 -26 9 -99 -22 -336 -141 -580 -223 -790 -265
-96 -19 -148 -23 -310 -23 -172 0 -199 2 -223 18 -16 10 -31 25 -34 33 -7 20
74 186 143 292 76 117 147 208 335 435 188 225 233 285 288 388 84 155 102
263 59 349 -19 38 -34 51 -93 80 -66 33 -75 35 -185 37 -77 1 -148 -4 -215
-16z"/>
<path d="M12368 15598 c-72 -42 -44 -67 94 -83 77 -9 98 -1 98 35 0 63 -116
92 -192 48z"/>
<path d="M12347 15060 c-181 -31 -442 -159 -633 -312 -135 -107 -239 -265
-251 -380 -10 -99 50 -263 129 -352 38 -44 71 -63 258 -148 30 -14 85 -39 123
-56 37 -17 67 -37 67 -44 0 -7 -12 -31 -26 -52 -105 -154 -223 -448 -269 -671
-47 -228 -43 -360 14 -474 66 -130 176 -162 348 -102 217 75 400 260 479 483
79 223 77 404 -7 575 -66 136 -217 257 -359 288 -25 6 -27 4 -23 -19 6 -32 -5
-33 -57 -6 -39 20 -53 51 -30 65 7 4 6 13 -1 26 -17 33 -2 35 57 6 30 -15 61
-27 68 -27 8 0 49 44 93 98 43 55 172 201 288 327 138 149 224 252 252 299 48
81 50 91 24 106 -57 30 -106 4 -200 -109 -33 -40 -114 -130 -180 -199 -143
-153 -264 -297 -321 -385 -23 -36 -48 -68 -56 -71 -18 -7 -54 9 -119 52 -27
17 -53 32 -58 32 -13 0 -143 78 -214 128 -62 43 -123 114 -143 167 -22 57 60
164 212 279 108 81 175 119 311 174 102 42 143 53 247 67 125 18 228 16 293
-4 175 -54 177 -54 205 4 12 25 22 53 22 63 0 22 -89 96 -153 129 -94 47 -257
65 -390 43z m-104 -1399 c157 -106 226 -188 251 -301 27 -119 16 -215 -44
-383 -41 -113 -94 -193 -168 -255 -134 -111 -328 -167 -387 -112 -90 84 -46
433 99 784 38 92 131 282 148 304 16 19 23 16 101 -37z"/>
<path d="M5920 14974 c-120 -9 -570 -62 -860 -103 -80 -12 -225 -29 -323 -40
-98 -10 -183 -23 -188 -28 -20 -20 -20 -68 0 -100 19 -30 25 -33 70 -33 56 0
304 32 701 90 413 60 611 79 960 93 137 5 177 51 85 97 -47 24 -60 25 -220 26
-93 1 -195 0 -225 -2z"/>
<path d="M7520 14385 c-18 -9 -36 -38 -59 -94 -18 -44 -53 -115 -78 -158 -255
-444 -396 -742 -425 -901 -24 -128 33 -340 104 -386 65 -43 212 -57 308 -30
88 24 204 50 365 80 83 15 168 33 189 41 25 8 43 10 49 4 6 -6 4 -49 -3 -113
-7 -57 -11 -149 -8 -204 5 -108 20 -152 64 -181 24 -15 29 -15 53 -2 19 11 25
22 22 40 -10 71 -10 269 2 379 l12 125 80 42 c43 24 90 53 103 65 35 34 75
106 68 124 -9 24 -82 13 -134 -20 -23 -15 -56 -29 -72 -33 -34 -6 -35 -2 -20
62 5 22 18 112 30 200 21 163 64 427 101 622 38 195 39 206 27 220 -29 36
-102 2 -132 -61 -38 -79 -156 -832 -156 -993 0 -71 -14 -83 -101 -83 -38 0
-108 -6 -156 -14 -230 -37 -348 -50 -463 -50 -151 -1 -179 10 -205 78 -17 44
-17 46 10 127 56 166 173 404 298 603 27 44 80 143 117 220 65 135 90 213 90
276 0 26 -4 30 -27 30 -16 -1 -39 -7 -53 -15z"/>
<path d="M10495 14376 c-128 -47 -320 -181 -446 -312 -216 -224 -380 -522
-475 -859 -25 -87 -28 -117 -28 -230 0 -109 4 -139 22 -185 37 -93 87 -150
171 -192 70 -36 79 -38 168 -38 162 0 296 39 504 146 266 137 595 453 744 712
111 193 151 339 142 507 -8 158 -48 240 -143 301 -117 75 -271 101 -414 70
-41 -9 -87 -19 -102 -23 -34 -7 -38 15 -9 41 29 27 32 54 8 71 -29 21 -71 18
-142 -9z m200 -164 c0 -8 -17 -20 -38 -27 -20 -7 -52 -24 -70 -37 -17 -14 -59
-34 -92 -46 -33 -11 -98 -39 -144 -61 -47 -23 -91 -41 -99 -41 -8 0 -27 -8
-43 -17 -26 -16 -31 -16 -39 -3 -5 8 -10 26 -10 40 0 20 17 36 89 82 89 59
196 112 241 121 14 2 66 4 115 3 68 -1 90 -4 90 -14z m295 -128 c40 -9 85 -27
109 -44 34 -25 41 -37 51 -87 21 -97 -9 -264 -69 -398 -99 -217 -391 -526
-641 -678 -238 -144 -542 -211 -662 -146 -118 65 -137 282 -46 554 59 178 130
305 285 509 86 112 98 120 124 84 12 -16 25 -28 31 -28 6 0 35 16 64 35 74 49
242 128 354 166 136 46 288 59 400 33z"/>
<path d="M5805 14218 c-37 -13 -115 -68 -115 -81 0 -5 -11 -18 -25 -29 -20
-16 -25 -28 -25 -68 0 -51 -9 -64 -52 -75 -23 -6 -29 -2 -43 27 -10 18 -27 43
-38 56 l-20 22 22 24 c17 18 43 28 93 37 74 13 92 29 65 56 -12 12 -36 15
-101 15 -74 -1 -102 -6 -203 -42 -65 -23 -150 -53 -190 -67 -77 -27 -128 -65
-119 -88 6 -18 -13 -75 -25 -75 -21 0 -33 50 -22 91 13 48 4 50 -69 13 -77
-39 -152 -98 -248 -193 -140 -141 -219 -268 -256 -410 -27 -108 2 -208 88
-302 77 -83 154 -122 283 -140 99 -14 108 -17 102 -42 -3 -12 -23 -62 -45
-112 -49 -110 -107 -284 -128 -385 -36 -166 -20 -340 41 -460 38 -75 132 -149
193 -152 41 -2 180 20 203 33 11 6 27 8 35 5 46 -18 216 104 411 294 211 206
285 297 328 405 43 107 41 127 -23 187 -74 70 -163 106 -537 217 -141 43 -355
73 -355 50 0 -23 -33 -6 -58 30 -15 22 -38 45 -52 52 -14 6 -36 17 -50 24 -14
7 -43 16 -65 20 -109 20 -239 96 -248 145 -25 122 208 405 450 547 l45 26 22
-28 c21 -26 26 -27 66 -21 23 4 93 31 154 61 113 55 200 85 212 72 4 -4 -13
-28 -37 -54 -156 -168 -307 -412 -434 -698 -14 -32 -33 -68 -43 -78 -13 -15
-14 -20 -3 -26 16 -10 119 -23 130 -16 10 6 100 162 132 230 32 67 222 349
273 406 23 26 64 77 92 114 87 119 173 195 219 195 36 0 75 46 75 88 0 20 3
46 6 58 12 45 -43 66 -111 42z m-510 -1344 c493 -137 590 -183 540 -261 -64
-100 -350 -393 -498 -511 -82 -65 -210 -135 -278 -152 -56 -14 -88 -1 -138 55
-88 101 -105 275 -46 471 30 98 100 281 148 387 31 69 31 69 66 64 20 -3 113
-27 206 -53z"/>
<path d="M5690 11921 c-143 -20 -384 -65 -435 -82 -16 -6 -64 -14 -105 -20
-41 -5 -95 -13 -120 -18 -345 -67 -573 -93 -717 -84 -77 5 -91 3 -107 -12 -24
-24 -15 -73 20 -102 23 -21 34 -23 157 -23 179 0 246 9 647 90 526 105 761
140 939 140 114 1 179 12 193 34 16 24 6 38 -49 64 -51 22 -73 26 -173 28 -70
2 -168 -4 -250 -15z"/>
<path d="M12290 11304 c-137 -10 -322 -48 -480 -100 -190 -62 -487 -203 -534
-253 l-29 -31 12 -71 c14 -77 36 -109 74 -109 13 0 32 10 43 21 33 37 136 105
229 152 274 137 741 210 1045 164 139 -22 156 -40 116 -132 -31 -70 -162 -268
-231 -350 -28 -33 -87 -103 -130 -155 -90 -107 -185 -217 -349 -400 -243 -272
-367 -434 -437 -573 -39 -78 -41 -85 -36 -154 2 -45 12 -89 25 -115 11 -24 24
-56 29 -73 4 -16 20 -36 33 -43 35 -18 170 -9 262 19 119 35 344 127 493 201
77 39 228 106 335 150 174 72 199 79 240 74 37 -5 50 -2 73 17 26 20 30 32 38
106 5 47 6 88 2 92 -5 3 -25 12 -45 18 -30 10 -45 9 -80 -2 -24 -8 -92 -29
-152 -47 -60 -17 -181 -61 -270 -97 -89 -36 -224 -92 -302 -123 -238 -97 -469
-172 -509 -164 -19 3 -35 12 -35 18 0 17 20 35 34 31 6 -2 52 52 101 121 190
264 168 237 650 785 102 116 133 154 221 269 125 163 177 270 196 398 27 198
-30 287 -219 338 -58 15 -301 26 -413 18z m90 -1919 c0 -9 -8 -18 -17 -21 -10
-3 -26 -10 -35 -15 -10 -5 -29 -9 -42 -9 -13 0 -26 -3 -28 -7 -8 -20 -161 -82
-340 -138 -76 -24 -91 -26 -117 -15 -34 14 -48 44 -31 65 16 20 77 27 135 16
41 -8 61 -6 110 11 33 11 67 26 76 34 8 8 37 17 63 20 25 4 49 11 52 15 3 5
15 9 28 9 12 0 26 4 32 9 10 11 80 38 102 40 6 0 12 -6 12 -14z m-700 -30 c0
-8 -7 -15 -15 -15 -16 0 -20 12 -8 23 11 12 23 8 23 -8z"/>
<path d="M10275 11219 c-137 -29 -303 -84 -464 -153 -81 -35 -157 -67 -171
-71 -44 -14 -293 -126 -363 -163 l-69 -37 5 -43 c2 -24 11 -51 19 -60 9 -9 18
-30 22 -45 4 -15 13 -31 22 -34 8 -3 58 17 112 45 109 57 507 216 714 286 161
54 411 102 452 86 14 -5 26 -15 26 -22 0 -7 -24 -53 -54 -103 -150 -249 -477
-604 -794 -861 -45 -37 -85 -77 -88 -90 -6 -25 11 -90 31 -114 7 -8 17 -28 22
-45 17 -54 66 -42 166 43 48 41 269 187 437 289 118 72 255 138 347 168 63 20
70 28 38 43 -14 7 -25 16 -25 22 0 13 83 50 110 50 31 0 44 -35 26 -72 -9 -17
-16 -40 -16 -52 0 -22 -197 -222 -370 -375 -52 -46 -185 -173 -295 -280 -289
-283 -497 -465 -572 -502 -75 -36 -89 -56 -73 -104 21 -65 98 -100 163 -75 34
14 141 90 242 173 33 27 152 138 265 246 113 109 237 225 277 259 39 34 119
106 176 159 57 54 129 121 160 148 30 28 82 82 115 121 76 92 85 126 68 257
-15 114 -30 140 -102 177 -42 21 -62 25 -144 25 -89 -1 -100 -3 -170 -37 -48
-24 -67 -37 -52 -38 12 0 23 1 25 1 1 1 21 -8 45 -20 34 -17 43 -27 40 -44 -2
-14 -11 -23 -26 -25 -39 -6 -280 -140 -420 -233 -23 -16 -57 -36 -75 -44 -17
-9 -48 -24 -67 -35 -94 -52 -58 4 115 175 74 73 129 137 143 165 28 59 109
138 158 155 34 12 40 12 51 -2 11 -14 17 -11 53 28 55 61 151 203 191 285 30
61 34 77 33 144 -2 145 -32 194 -137 229 -78 27 -198 27 -322 0z m145 -1469
c0 -5 -4 -10 -10 -10 -5 0 -10 5 -10 10 0 6 5 10 10 10 6 0 10 -4 10 -10z"/>
<path d="M7915 11051 c-60 -11 -207 -42 -325 -70 -118 -29 -264 -63 -325 -77
-60 -14 -128 -34 -150 -43 -55 -24 -105 -69 -105 -93 0 -23 39 -98 51 -98 4 0
11 -9 14 -20 16 -51 78 -60 95 -14 10 26 56 48 121 59 24 3 82 17 129 30 47
13 153 40 235 60 83 20 168 40 190 46 71 18 238 39 318 39 67 0 77 -2 77 -17
0 -21 -136 -155 -295 -293 -328 -283 -582 -523 -626 -592 -30 -46 -30 -47 -13
-80 9 -18 37 -59 61 -90 41 -54 47 -58 86 -58 54 1 179 30 290 70 172 60 384
106 537 116 110 8 244 -16 255 -44 13 -33 -95 -213 -210 -347 -237 -280 -666
-704 -760 -753 -11 -5 -41 -8 -66 -5 -81 9 -105 -48 -46 -111 104 -110 248
-28 641 368 331 333 445 468 538 636 43 77 56 163 39 255 -17 93 -70 133 -228
172 -102 25 -388 23 -503 -5 -113 -26 -176 -45 -228 -68 -42 -19 -52 -41 -16
-37 25 2 74 -25 74 -41 0 -22 -24 -36 -97 -56 -76 -22 -163 -26 -181 -8 -7 7
-12 37 -12 69 0 54 2 58 48 105 52 53 133 87 154 66 8 -8 8 -15 -1 -26 -7 -9
-11 -20 -9 -26 4 -12 145 97 239 183 31 29 105 95 165 147 226 199 305 286
340 378 16 40 16 47 -1 118 -20 85 -49 127 -104 150 -58 25 -262 27 -396 5z"/>
<path d="M5290 10963 c-158 -14 -380 -105 -576 -237 -106 -71 -144 -99 -186
-140 -106 -101 -126 -180 -64 -251 32 -38 35 -39 71 -30 21 6 41 17 45 25 4 8
15 32 25 53 10 20 15 40 12 43 -8 8 11 44 23 44 5 0 7 -8 3 -17 -3 -10 12 0
34 22 53 53 139 125 179 150 17 11 51 33 75 49 56 37 153 78 251 106 66 18 98
21 215 18 172 -4 199 -14 196 -74 -6 -93 -108 -286 -349 -659 -78 -122 -156
-248 -174 -280 -18 -33 -48 -82 -67 -109 -95 -132 -332 -611 -403 -811 -20
-59 -33 -118 -37 -170 -6 -79 -5 -80 28 -124 19 -25 66 -71 104 -103 l70 -59
100 4 c78 4 118 11 185 35 47 16 131 46 187 65 57 20 120 45 140 56 21 12 85
39 143 60 58 21 159 62 225 91 66 29 169 72 229 96 165 67 226 111 226 164 0
52 -29 57 -129 22 -47 -17 -113 -38 -146 -47 -82 -22 -202 -60 -520 -165 -334
-109 -552 -171 -612 -173 -42 -2 -47 1 -55 25 -8 22 -5 34 17 65 14 21 35 67
46 103 39 125 246 558 341 710 36 58 75 125 88 150 13 25 66 110 118 190 52
80 107 163 121 185 14 22 56 83 92 135 97 139 178 300 192 382 24 144 -46 303
-159 361 -51 26 -214 47 -304 40z m-680 -542 c0 -6 -4 -13 -10 -16 -5 -3 -10
1 -10 9 0 9 5 16 10 16 6 0 10 -4 10 -9z"/>
<path d="M6200 8405 c-250 -28 -304 -35 -535 -70 -132 -19 -289 -42 -350 -51
-121 -16 -331 -50 -410 -65 -27 -5 -120 -22 -205 -39 -290 -56 -359 -66 -514
-74 -54 -3 -105 -11 -112 -17 -21 -18 -17 -65 9 -95 22 -25 28 -27 98 -25 41
1 114 6 163 11 78 9 525 93 721 136 38 8 207 35 375 60 168 24 312 46 320 49
8 2 116 18 240 34 256 34 486 51 610 44 98 -5 158 5 174 29 15 24 1 36 -71 60
-75 26 -343 33 -513 13z"/>
<path d="M10769 8176 c-103 -37 -178 -131 -248 -310 -63 -162 -121 -422 -121
-547 0 -30 -6 -63 -13 -72 -30 -42 -359 -67 -490 -38 -37 8 -70 23 -90 41
l-31 28 13 68 c17 83 154 496 176 531 13 20 21 23 50 17 28 -5 38 -2 59 20 29
28 33 57 12 75 -7 6 -40 14 -73 17 -84 9 -127 -7 -157 -59 -27 -45 -173 -459
-201 -567 -55 -213 53 -292 400 -294 131 -1 161 2 233 23 71 21 85 22 93 10 5
-8 6 -57 3 -109 -10 -146 9 -390 66 -875 13 -110 28 -179 44 -201 23 -30 68
-8 84 41 14 42 13 70 -24 635 -16 245 -14 533 5 568 7 13 40 29 93 45 237 75
474 249 551 407 29 59 32 73 31 157 0 83 -3 98 -33 156 -50 98 -146 199 -216
225 -65 25 -159 29 -216 8z m202 -116 c76 -39 127 -158 117 -273 -9 -107 -92
-222 -236 -324 -70 -50 -280 -173 -295 -173 -11 0 -5 51 24 200 49 256 143
508 209 564 41 34 121 36 181 6z"/>
<path d="M12519 8075 c-128 -31 -244 -102 -362 -221 -38 -38 -78 -86 -89 -108
-17 -34 -18 -40 -5 -53 20 -20 41 -8 137 77 189 166 308 216 491 208 79 -3
105 -9 159 -34 154 -72 210 -174 210 -382 0 -257 -98 -644 -238 -942 -41 -88
-175 -309 -239 -395 -76 -102 -204 -238 -302 -319 -215 -178 -378 -241 -487
-190 -69 33 -85 99 -91 389 -6 235 -1 307 38 580 45 314 76 440 193 775 86
245 118 319 157 364 22 24 39 51 39 59 0 25 -49 57 -88 57 -57 0 -116 -75
-163 -205 -9 -27 -30 -81 -44 -120 -160 -419 -241 -784 -266 -1195 -13 -216
-6 -486 15 -583 39 -177 135 -257 307 -257 135 0 275 57 431 176 293 223 502
505 655 884 214 527 272 1014 148 1226 -50 85 -185 176 -310 209 -72 18 -219
18 -296 0z"/>
<path d="M8517 7809 c-266 -30 -624 -155 -810 -281 -77 -52 -219 -174 -234
-202 -17 -30 -16 -72 3 -90 38 -39 109 -7 204 89 115 117 276 208 505 283 188
62 327 87 480 87 150 0 180 -11 190 -67 21 -114 -164 -453 -475 -873 -36 -49
-95 -130 -130 -180 -35 -49 -126 -174 -202 -277 -260 -354 -398 -554 -423
-616 -19 -44 -19 -96 0 -112 21 -17 73 -16 217 4 137 19 149 23 373 119 83 35
168 70 190 77 22 7 74 30 115 50 41 21 125 58 185 83 117 49 452 216 522 260
29 18 43 35 47 57 3 16 9 44 12 60 7 35 -17 51 -47 32 -49 -31 -250 -127 -389
-185 -209 -88 -449 -187 -455 -187 -11 0 -276 -114 -413 -177 -78 -36 -145
-63 -148 -60 -3 3 6 32 22 64 26 56 70 120 216 313 36 49 110 153 162 232 117
174 219 318 226 318 3 0 16 17 30 38 13 20 43 62 66 92 36 48 157 227 252 374
48 74 136 252 161 324 13 38 21 87 21 126 0 56 -4 70 -33 111 -72 105 -212
141 -440 114z m123 -1869 c-20 -13 -33 -13 -25 0 3 6 14 10 23 10 15 0 15 -2
2 -10z m-140 -55 c0 -7 -72 -36 -78 -31 -2 3 11 12 29 20 37 16 49 19 49 11z
m-165 -74 c-36 -23 -96 -40 -80 -23 10 11 81 40 100 41 6 0 -3 -8 -20 -18z
m-260 -110 c-6 -5 -21 -12 -35 -15 l-25 -7 25 15 c28 17 50 21 35 7z m-90 -40
c-19 -19 -104 -50 -110 -41 -3 6 4 14 17 19 13 5 34 13 48 19 32 14 57 15 45
3z"/>
<path d="M6355 7455 c-337 -79 -766 -386 -1134 -809 -281 -325 -570 -858 -537
-991 8 -33 41 -65 67 -65 27 0 75 54 96 108 9 23 21 41 27 39 6 -2 15 -32 19
-66 8 -70 41 -142 87 -195 80 -90 260 -178 445 -217 103 -22 162 -23 272 -8
104 14 149 28 273 86 378 179 786 580 947 932 54 118 112 282 132 372 40 188
37 379 -8 500 -21 54 -78 143 -124 192 -127 136 -323 178 -562 122z m361 -130
c59 -17 140 -95 178 -170 70 -142 60 -354 -29 -622 -77 -232 -176 -404 -336
-590 -217 -249 -538 -468 -784 -534 -98 -26 -286 -31 -385 -10 -106 23 -232
93 -277 154 -56 75 -65 105 -70 243 -8 202 -5 210 180 496 73 112 162 238 176
248 3 3 25 28 48 55 99 120 383 366 611 527 124 89 368 197 477 211 71 9 165
6 211 -8z m-1836 -1465 c0 -35 -20 -81 -31 -74 -13 7 -11 59 2 88 15 31 29 24
29 -14z"/>
<path d="M6570 5270 c-63 -10 -191 -35 -285 -55 -399 -84 -658 -131 -940 -169
-60 -8 -180 -25 -265 -36 -273 -37 -534 -107 -681 -181 -87 -43 -97 -81 -41
-141 29 -32 53 -35 73 -12 32 39 234 118 389 153 117 25 297 55 494 82 155 21
491 76 515 85 8 2 69 15 135 29 67 13 216 45 331 70 237 52 493 94 575 95 62
1 123 26 128 53 10 49 -204 62 -428 27z"/>
<path d="M12760 4799 c-377 -19 -650 -72 -681 -132 -10 -18 -8 -25 22 -49 42
-35 57 -35 133 2 112 55 305 81 646 87 247 5 467 -5 590 -28 97 -18 93 -15 88
-70 -10 -96 -139 -248 -443 -519 -200 -179 -455 -437 -455 -460 0 -11 15 -30
33 -44 58 -44 101 -49 362 -42 190 6 262 4 345 -8 164 -24 331 -87 383 -144
29 -32 12 -69 -72 -152 -119 -117 -420 -314 -856 -560 -71 -40 -164 -92 -205
-116 -75 -43 -113 -61 -310 -149 -122 -55 -319 -133 -370 -147 -43 -12 -118
-58 -125 -77 -10 -27 16 -43 59 -36 99 16 330 87 457 141 112 46 318 144 376
177 32 19 139 78 238 132 99 54 213 117 253 141 40 24 75 44 78 44 7 0 203
122 309 193 243 163 353 285 332 369 -9 35 -76 111 -127 145 -97 64 -245 118
-390 143 -89 16 -333 19 -481 6 -124 -10 -138 -3 -87 47 50 48 248 230 368
338 302 272 436 422 465 524 15 51 15 57 -3 98 -22 50 -61 78 -142 100 -179
49 -442 64 -790 46z"/>
<path d="M10841 4645 c-160 -36 -291 -94 -451 -200 -151 -100 -179 -127 -162
-155 18 -30 16 -38 -36 -99 -140 -164 -236 -349 -282 -545 -58 -244 -37 -570
46 -711 116 -199 377 -244 699 -121 221 85 466 260 665 477 163 178 266 336
319 492 28 80 45 217 37 294 -9 86 -51 216 -91 283 -78 129 -227 242 -364 277
-85 21 -302 26 -380 8z m398 -106 c127 -48 235 -180 276 -339 28 -105 17 -280
-24 -390 -111 -302 -475 -681 -816 -850 -151 -75 -249 -102 -367 -102 -140 1
-202 40 -253 162 -102 243 -59 644 96 916 114 199 362 440 520 506 42 18 49
18 82 5 31 -13 38 -13 56 -1 26 19 26 29 1 61 -41 52 -5 62 220 58 125 -2 154
-5 209 -26z"/>
<path d="M6390 4595 c-8 -2 -49 -9 -90 -15 -190 -31 -523 -164 -710 -285 -193
-125 -337 -318 -348 -467 -4 -61 -2 -71 28 -123 18 -32 57 -76 90 -104 74 -62
201 -141 226 -141 18 1 18 1 1 11 -22 13 -67 54 -67 62 0 3 20 -6 45 -21 25
-15 71 -41 102 -58 64 -34 86 -60 65 -73 -17 -11 39 -67 112 -113 255 -159
364 -253 425 -368 43 -80 53 -184 27 -271 -61 -211 -373 -509 -606 -580 -118
-35 -199 -9 -250 81 -24 42 -25 54 -25 195 0 102 6 182 18 250 43 233 140 548
224 724 24 51 43 94 41 95 -2 1 -18 14 -36 29 -35 28 -62 35 -62 15 0 -6 -22
-57 -49 -112 -155 -320 -270 -797 -258 -1066 6 -143 25 -196 88 -255 115 -108
333 -100 529 20 130 79 172 112 269 207 153 152 245 287 270 399 16 68 12 178
-7 236 -47 134 -175 269 -387 408 -241 157 -251 163 -278 176 -15 7 -27 18
-27 25 0 18 185 295 293 438 104 140 279 315 363 366 53 32 63 34 133 33 42 0
82 4 89 9 19 16 14 47 -13 73 -20 21 -34 25 -82 25 -111 0 -210 -37 -300 -113
-114 -95 -340 -396 -528 -704 -21 -35 -42 -63 -48 -63 -29 0 -252 184 -270
223 -21 43 -21 55 -1 136 20 81 66 144 180 248 160 145 311 220 705 350 151
49 175 62 166 87 -6 15 -14 17 -47 11z m-1040 -858 c0 -13 14 -43 30 -65 21
-29 26 -42 16 -42 -8 0 -24 15 -35 34 -26 41 -38 96 -22 96 6 0 11 -11 11 -23z"/>
<path d="M8545 4515 c-33 -7 -80 -21 -105 -31 -25 -9 -85 -22 -133 -29 -145
-21 -249 -86 -381 -236 -169 -193 -301 -459 -358 -724 -8 -37 -12 -133 -12
-250 0 -160 3 -206 22 -295 35 -159 93 -265 185 -334 212 -160 483 -150 827
31 271 142 492 338 712 631 188 250 257 464 217 677 -32 174 -210 382 -409
477 -135 65 -233 89 -375 94 -89 2 -149 -1 -190 -11z m325 -99 c144 -36 271
-106 366 -201 208 -209 200 -487 -24 -810 -125 -181 -344 -416 -485 -521 -262
-195 -562 -298 -732 -253 -90 23 -163 76 -218 157 -57 82 -107 303 -107 472 0
182 53 398 143 582 50 103 151 218 301 345 130 109 220 163 262 156 25 -4 34
0 48 22 20 31 47 42 141 61 80 16 221 11 305 -10z"/>
<path d="M6565 1969 c-205 -12 -416 -41 -685 -94 -204 -41 -574 -100 -743
-120 -65 -8 -200 -17 -300 -21 -142 -5 -186 -10 -199 -22 -25 -21 -22 -49 7
-78 25 -25 25 -25 163 -19 267 12 536 49 1032 141 561 104 774 126 1220 122
190 -2 241 0 264 12 38 19 43 36 15 50 -44 24 -542 43 -774 29z"/>
</g>
</svg>
