<?xml version="1.0" standalone="no"?>
<!DOCTYPE svg PUBLIC "-//W3C//DTD SVG 20010904//EN"
 "http://www.w3.org/TR/2001/REC-SVG-20010904/DTD/svg10.dtd">
<svg version="1.0" xmlns="http://www.w3.org/2000/svg"
 width="2448.000000pt" height="3264.000000pt" viewBox="0 0 2448.000000 3264.000000"
 preserveAspectRatio="xMidYMid meet">
<metadata>
Created by potrace 1.12, written by Peter Selinger 2001-2015
</metadata>
<g transform="translate(0.000000,3264.000000) scale(0.100000,-0.100000)"
fill="#000000" stroke="none">
<path d="M24192 32482 c-1 -86 -4 -260 -6 -387 -3 -215 -6 -371 -21 -1015 -3
-140 -10 -307 -15 -370 -6 -63 -9 -149 -8 -190 2 -66 -1 -243 -17 -910 -2 -85
-6 -315 -9 -510 -3 -195 -8 -488 -11 -650 -2 -162 -7 -477 -10 -700 -3 -223
-8 -524 -10 -670 -3 -146 -7 -490 -10 -765 -10 -946 -15 -1199 -27 -1212 -8
-10 -8 -20 1 -37 10 -17 11 -99 7 -347 -6 -317 -12 -693 -21 -1329 -6 -365
-13 -782 -20 -1060 -3 -107 -7 -334 -10 -505 -9 -554 -15 -926 -20 -1115 -2
-102 -7 -367 -10 -590 -3 -223 -8 -481 -10 -575 -10 -360 -17 -657 -30 -1420
-3 -154 -8 -388 -11 -520 -4 -132 -7 -249 -7 -260 0 -11 1 -47 2 -80 1 -48 -5
-243 -10 -325 -1 -8 2 -53 6 -100 8 -101 8 -98 -5 -180 -5 -36 -9 -121 -8
-190 2 -69 -1 -131 -5 -137 -5 -7 -5 -19 0 -25 4 -7 9 -47 10 -88 1 -41 3 -82
3 -90 1 -8 -3 -33 -9 -55 -7 -30 -7 -43 3 -55 21 -25 31 -44 17 -36 -16 10
-26 -23 -13 -45 7 -11 8 -20 2 -24 -5 -3 -10 -20 -10 -38 0 -18 -1 -52 -1 -77
-2 -70 0 -80 16 -80 8 0 15 -7 15 -15 0 -10 -7 -15 -17 -13 -15 2 -18 -5 -19
-37 -1 -22 3 -52 9 -68 6 -18 6 -31 -1 -40 -9 -10 -13 -120 -11 -289 0 -26 -5
-57 -12 -69 -8 -16 -8 -27 2 -45 9 -18 10 -37 2 -81 -6 -33 -7 -65 -2 -74 4
-9 4 -67 -1 -130 -9 -115 -13 -273 -11 -406 1 -61 4 -73 18 -73 15 0 15 -1 -2
-14 -17 -12 -18 -31 -20 -210 -1 -178 0 -199 17 -218 23 -26 23 -38 1 -38 -16
0 -18 -11 -18 -93 0 -65 4 -99 14 -111 12 -14 11 -19 -3 -34 -21 -24 -22 -92
-1 -92 9 0 15 -9 15 -25 0 -14 -5 -24 -12 -22 -18 3 -22 -32 -7 -60 10 -18 10
-26 1 -35 -16 -16 -15 -28 3 -28 20 0 19 -19 -2 -42 -15 -17 -15 -18 0 -18 12
0 17 -9 17 -30 0 -20 -5 -30 -15 -30 -19 0 -21 -56 -2 -64 9 -5 9 -7 0 -12
-30 -14 -28 -129 2 -118 17 7 21 -16 6 -31 -15 -16 -26 -115 -12 -115 16 0 13
-27 -4 -34 -8 -3 -15 -10 -15 -16 0 -5 7 -10 15 -10 10 0 15 -10 15 -30 0 -20
-5 -30 -15 -30 -8 0 -15 -4 -15 -10 0 -5 6 -10 14 -10 11 0 13 -10 9 -42 -3
-24 -9 -47 -14 -52 -5 -6 -2 -17 8 -28 13 -14 14 -23 5 -42 -7 -17 -7 -36 0
-65 9 -35 8 -45 -6 -60 -11 -13 -14 -21 -7 -26 14 -8 14 -112 0 -121 -7 -4 -8
-9 -1 -13 21 -13 18 -91 -3 -91 -8 0 -15 -4 -15 -10 0 -5 7 -10 15 -10 18 0
20 -31 3 -48 -18 -18 -21 -72 -3 -72 8 0 15 -9 15 -20 0 -11 -6 -20 -14 -20
-9 0 -14 -14 -14 -46 -1 -41 0 -45 15 -32 15 11 16 11 10 -5 -4 -10 -7 -21 -7
-23 0 -3 -4 -3 -9 0 -5 4 -9 -14 -9 -39 1 -25 5 -48 10 -51 4 -3 2 -11 -5 -18
-17 -17 -14 -140 3 -162 12 -13 11 -17 -1 -24 -10 -7 -15 -33 -17 -92 -1 -46
-4 -99 -5 -118 -2 -28 1 -34 16 -32 12 2 17 -4 17 -23 0 -26 -15 -34 -23 -12
-3 6 -6 2 -6 -10 -1 -17 3 -21 15 -16 15 5 16 1 10 -33 -4 -21 -12 -40 -17
-42 -5 -2 -9 -13 -9 -23 0 -11 5 -17 10 -14 6 3 10 -4 10 -17 0 -13 3 -34 6
-48 6 -24 6 -25 -9 -5 -16 20 -16 19 -17 -8 0 -16 4 -26 10 -22 9 6 15 -18 10
-40 -1 -5 -2 -30 -1 -54 1 -27 -3 -47 -11 -52 -10 -7 -11 -12 0 -29 14 -24 16
-74 2 -65 -5 3 -10 -1 -10 -10 0 -9 5 -13 10 -10 16 10 11 -58 -5 -79 -20 -27
-19 -47 2 -39 14 6 15 -2 8 -73 -9 -93 -9 -85 -1 -152 5 -48 4 -54 -14 -59
-13 -3 -20 -14 -20 -29 0 -25 15 -33 23 -11 3 6 6 -3 6 -21 1 -20 -3 -31 -9
-27 -18 11 -22 -23 -6 -54 18 -34 21 -76 6 -66 -5 3 -10 -1 -10 -10 0 -9 5
-13 10 -10 7 4 9 -4 7 -22 -3 -15 -10 -27 -16 -26 -15 4 -14 -6 4 -23 8 -9 15
-27 14 -42 0 -15 -3 -21 -6 -14 -8 19 -23 14 -23 -8 0 -12 7 -20 17 -20 14 0
15 -11 9 -102 -5 -76 -10 -104 -23 -113 -16 -12 -10 -40 7 -30 14 9 12 -183
-3 -206 -8 -13 -9 -22 -1 -27 12 -8 12 -197 0 -224 -4 -9 -3 -25 2 -35 7 -12
7 -36 1 -67 -6 -31 -5 -53 1 -61 5 -6 7 -15 4 -18 -4 -3 -8 -72 -9 -154 -2
-98 -6 -148 -14 -151 -14 -5 -15 -42 -1 -42 15 0 12 -47 -2 -53 -10 -4 -10 -7
0 -18 6 -7 12 -32 12 -55 0 -25 -5 -44 -12 -47 -10 -3 -10 -7 -1 -19 17 -20
11 -211 -8 -257 -11 -27 -11 -35 -1 -38 15 -6 16 -39 2 -48 -7 -4 -7 -11 -2
-18 18 -23 21 -121 5 -139 -9 -10 -12 -22 -7 -30 15 -25 14 -101 -2 -119 -14
-16 -14 -18 3 -27 17 -10 17 -12 -1 -42 -11 -20 -15 -35 -9 -39 11 -7 15 -71
5 -71 -4 0 -8 -11 -8 -25 -1 -14 3 -25 8 -25 18 0 3 -101 -16 -112 -19 -11
-12 -30 8 -22 10 4 12 -32 9 -183 -6 -356 -10 -432 -23 -448 -10 -13 -10 -19
5 -35 11 -13 15 -28 11 -47 -3 -15 -7 -59 -8 -96 -1 -37 -5 -70 -10 -73 -4 -3
-4 -13 1 -22 5 -9 7 -57 5 -107 -3 -49 -6 -120 -8 -157 -1 -37 -5 -71 -9 -74
-4 -4 -2 -13 4 -20 7 -8 9 -31 5 -56 -3 -24 -7 -156 -8 -294 -2 -188 -6 -255
-16 -267 -8 -10 -9 -17 -3 -21 6 -4 9 -63 8 -151 -2 -116 -5 -144 -15 -140 -8
3 -12 0 -9 -7 2 -7 9 -12 14 -11 7 1 9 -44 6 -125 -5 -147 -6 -170 -4 -197 2
-33 -6 -138 -14 -173 -4 -18 -3 -37 3 -45 14 -17 11 -85 -5 -91 -9 -4 -10 -12
-3 -31 6 -15 8 -160 5 -367 -3 -189 -5 -350 -4 -358 5 -71 5 -177 0 -185 -5
-9 -7 -198 -9 -645 0 -74 0 -148 0 -165 0 -31 0 -288 0 -315 0 -8 0 -28 -1
-45 -1 -16 -2 -79 -2 -140 -1 -60 -1 -164 -1 -230 0 -66 0 -174 0 -240 1 -66
0 -300 -2 -520 -5 -526 -5 -566 -5 -865 0 -140 -1 -309 -1 -375 -1 -66 0 -167
1 -225 1 -58 -2 -113 -6 -122 -5 -14 -2 -18 14 -18 13 0 22 7 23 18 4 48 7
117 11 337 3 132 8 258 12 281 4 22 2 58 -4 79 -6 22 -7 43 -2 49 5 6 10 40
10 76 1 36 2 81 3 100 1 19 1 82 0 140 -3 145 6 436 13 470 3 15 2 31 -4 34
-6 4 -8 53 -4 134 3 70 5 141 4 157 -2 75 0 449 4 750 3 182 5 434 4 560 0
127 0 241 0 255 0 14 3 77 5 140 2 63 7 338 11 610 11 806 23 1519 29 1785 3
110 7 345 10 523 3 178 8 328 12 333 8 14 16 358 30 1234 3 209 7 466 10 570
2 105 5 280 7 391 2 110 7 206 11 212 4 7 4 33 0 60 -5 26 -6 52 -5 57 4 10
11 658 10 945 0 91 1 183 1 205 4 133 9 455 15 910 3 286 8 567 10 625 9 226
17 780 14 1030 -1 107 -1 281 0 385 1 105 2 197 2 205 0 180 7 418 11 426 4 5
4 32 1 59 -6 56 -6 58 0 275 7 195 7 276 2 320 -2 19 1 88 9 152 7 65 9 144 6
175 -4 32 -5 101 -3 153 13 322 15 505 7 730 -6 171 -6 128 1 420 3 129 10
257 15 284 6 27 7 54 3 60 -5 6 -8 37 -7 69 0 32 -3 60 -8 63 -5 3 -2 14 8 25
14 16 15 23 4 49 -7 16 -10 40 -6 53 3 13 3 27 -1 31 -9 8 -12 98 -4 111 6 10
13 150 11 235 0 50 0 64 5 170 2 41 6 247 9 456 3 210 8 393 12 408 4 17 1 37
-7 52 -11 21 -10 31 1 62 10 28 14 115 16 342 1 168 5 351 9 406 6 100 6 101
-17 108 -22 6 -22 7 -4 21 15 12 18 22 13 59 -4 26 -2 48 3 51 13 8 13 51 0
76 -7 12 -7 25 -1 37 6 11 4 43 -5 91 -11 57 -11 77 -2 88 13 16 14 45 3 181
-5 62 -4 97 4 105 6 8 9 39 7 71 -1 32 2 77 7 101 7 32 6 49 -5 71 -11 23 -12
49 -6 124 4 52 8 115 7 140 -3 565 1 1004 16 1570 12 445 24 1053 30 1520 3
212 7 457 10 545 3 88 7 372 10 630 3 259 7 612 10 785 3 173 7 486 10 695 6
464 14 967 20 1340 3 154 7 433 10 620 7 407 51 2164 65 2600 5 171 14 515 20
765 5 250 12 578 16 728 l6 272 -33 0 -34 0 -3 -158z m-232 -15649 c0 -5 -5
-15 -10 -23 -8 -12 -10 -11 -10 8 0 12 5 22 10 22 6 0 10 -3 10 -7z m-20
-1007 c0 -3 -4 -8 -10 -11 -5 -3 -10 -1 -10 4 0 6 5 11 10 11 6 0 10 -2 10 -4z
m-15 -1196 c0 -7 -6 -15 -12 -17 -8 -3 -13 4 -13 17 0 13 5 20 13 18 6 -3 12
-11 12 -18z m-18 -202 c-3 -8 -6 -5 -6 6 -1 11 2 17 5 13 3 -3 4 -12 1 -19z
m-4 -318 c5 -54 5 -55 -9 -22 -8 18 -11 44 -8 58 8 33 10 29 17 -36z m-16
-282 c-3 -8 -6 -5 -6 6 -1 11 2 17 5 13 3 -3 4 -12 1 -19z m-23 -2220 c-9 -14
-23 2 -17 18 4 12 8 13 14 3 4 -7 5 -17 3 -21z"/>
<path d="M20023 31979 c-42 -20 -80 -49 -117 -91 -31 -34 -56 -66 -56 -71 0
-5 -15 -27 -34 -50 -18 -23 -38 -52 -45 -64 -32 -62 9 -184 77 -226 20 -13 64
-32 97 -42 209 -61 207 -78 -35 -215 -149 -85 -264 -151 -409 -235 -226 -132
-415 -209 -435 -177 -2 4 1 27 7 50 8 31 8 45 -1 54 -8 8 -1 23 29 62 42 52
146 115 216 130 52 12 71 60 78 198 3 54 9 129 15 168 22 156 41 367 35 397
-7 41 -37 60 -59 37 -9 -8 -16 -18 -17 -22 0 -4 -4 -43 -8 -87 -5 -44 -18
-143 -30 -220 -11 -77 -24 -189 -28 -250 l-8 -110 -85 -45 c-148 -78 -264
-226 -265 -338 0 -38 5 -48 35 -73 19 -16 43 -37 53 -47 14 -13 34 -17 79 -16
55 1 76 9 217 80 86 43 197 104 246 135 50 31 171 102 270 159 216 123 299
182 320 227 20 41 15 157 -7 179 -14 14 -178 74 -203 74 -7 0 -34 9 -60 20
-47 20 -47 21 -40 58 9 51 44 99 136 186 54 53 90 78 118 86 29 8 44 19 55 42
20 39 20 54 0 62 -33 13 -81 4 -141 -25z m-53 -129 c0 -5 -9 -14 -20 -20 -15
-8 -20 -8 -20 3 0 8 3 17 7 20 10 10 33 8 33 -3z"/>
<path d="M12699 31541 c-130 -52 -215 -125 -284 -242 -52 -89 -60 -127 -45
-198 16 -76 60 -130 136 -166 65 -31 66 -28 -40 -114 -95 -76 -222 -163 -271
-184 -66 -28 -185 -49 -239 -41 -60 8 -96 41 -96 89 0 91 93 102 226 28 50
-28 87 -26 104 7 9 16 6 34 -14 84 -14 34 -41 132 -61 216 -74 314 -107 415
-148 449 -9 7 -34 11 -59 9 -55 -4 -61 -30 -19 -88 30 -42 55 -113 91 -265 12
-49 31 -118 43 -153 17 -51 24 -61 39 -56 13 4 21 -2 28 -21 5 -14 10 -30 10
-35 0 -6 -44 -7 -105 -5 -116 6 -140 -1 -185 -52 -65 -73 -78 -128 -47 -197
43 -94 110 -122 253 -107 191 20 387 124 551 292 35 35 70 74 78 87 14 19 25
22 78 22 137 1 319 52 339 95 28 62 -18 70 -152 25 -149 -50 -162 -41 -94 63
61 91 83 155 90 265 6 72 4 95 -10 124 -39 81 -108 105 -197 69z m92 -108 c16
-18 15 -90 -1 -155 -17 -71 -122 -277 -145 -285 -33 -11 -89 -3 -100 14 -5 9
-21 29 -35 46 -20 25 -24 41 -25 101 0 86 26 138 105 209 86 78 171 107 201
70z"/>
<path d="M18641 31042 c-12 -23 -47 -159 -77 -306 -14 -65 -29 -126 -33 -135
-10 -17 -14 1 -26 107 -3 29 -8 59 -11 67 -9 23 -42 18 -60 -11 -15 -23 -16
-36 -6 -117 6 -51 14 -119 17 -152 11 -102 22 -132 52 -138 15 -3 32 -3 39 0
22 8 46 93 64 233 20 150 43 270 55 287 10 13 13 12 22 -13 6 -16 19 -65 28
-109 45 -213 62 -247 132 -260 43 -8 76 18 105 82 10 23 23 45 27 48 16 9 24
84 11 100 -22 26 -36 17 -80 -51 -23 -36 -47 -63 -53 -61 -14 4 -55 158 -68
252 -21 152 -42 195 -94 195 -23 0 -38 -6 -44 -18z m109 -223 c0 -6 -4 -7 -10
-4 -5 3 -10 11 -10 16 0 6 5 7 10 4 6 -3 10 -11 10 -16z m20 -85 c0 -8 -4 -12
-10 -9 -5 3 -10 13 -10 21 0 8 5 12 10 9 6 -3 10 -13 10 -21z"/>
<path d="M17703 30439 c-57 -40 -126 -120 -157 -184 -42 -87 -84 -251 -96
-374 -12 -131 -23 -157 -121 -287 -110 -146 -193 -230 -264 -265 -73 -36 -111
-36 -170 1 -65 40 -105 177 -105 358 0 76 1 79 35 112 l35 34 27 -20 c40 -30
57 -87 43 -143 -16 -64 -38 -101 -66 -111 -50 -19 -47 -90 4 -90 77 0 140 111
143 251 2 60 -32 141 -76 185 -49 49 -134 24 -188 -53 -51 -74 -58 -258 -16
-427 25 -100 60 -152 129 -194 50 -30 60 -32 110 -26 30 3 73 14 95 24 22 10
56 25 75 33 19 8 49 28 66 43 38 34 207 239 251 305 47 68 75 160 83 274 5 62
18 132 35 185 14 47 30 96 34 110 24 77 117 194 149 188 35 -7 37 -33 13 -180
-29 -183 -33 -350 -9 -395 20 -36 75 -73 108 -73 12 0 37 15 54 33 42 42 60
122 53 235 -3 45 -2 82 3 82 4 0 32 -11 62 -25 29 -14 66 -25 81 -25 39 0 88
23 119 56 24 27 58 102 58 132 0 22 -29 13 -67 -22 -49 -43 -75 -56 -110 -56
-32 0 -85 35 -119 78 -25 30 -42 25 -24 -7 12 -23 8 -26 -21 -11 -16 9 -59 77
-59 95 0 3 11 -2 25 -11 35 -23 43 -10 17 26 -12 16 -22 34 -22 40 0 26 -44
93 -73 110 -45 28 -94 24 -144 -11z m127 -150 c0 -6 -4 -7 -10 -4 -5 3 -10 11
-10 16 0 6 5 7 10 4 6 -3 10 -11 10 -16z m56 -66 c26 -53 27 -279 1 -335 -10
-21 -22 -38 -27 -38 -16 0 -51 63 -44 80 10 22 33 216 33 278 1 28 5 52 10 52
5 0 17 -17 27 -37z"/>
<path d="M11450 30391 c-64 -21 -137 -68 -207 -135 -47 -44 -50 -55 -29 -89 8
-12 16 -53 18 -92 12 -171 131 -246 274 -172 112 57 177 173 177 317 0 94 -8
118 -54 151 -33 23 -134 35 -179 20z m101 -112 c19 -19 21 -29 15 -92 -8 -82
-43 -156 -94 -195 -41 -31 -75 -23 -108 25 -22 33 -39 110 -31 141 3 9 8 29
11 43 6 28 65 75 112 89 48 14 73 11 95 -11z"/>
<path d="M10900 30112 c-20 -16 -65 -117 -140 -315 -38 -98 -57 -241 -39 -295
18 -57 45 -88 89 -106 59 -23 99 -20 168 15 61 30 159 126 218 213 31 45 32
82 2 90 -34 9 -33 9 -63 -36 -37 -57 -143 -166 -177 -184 -42 -22 -85 -17
-113 11 -52 51 -25 197 76 419 32 70 59 140 59 155 0 50 -39 66 -80 33z"/>
<path d="M13315 29760 c-4 -6 -18 -15 -31 -20 -34 -13 -31 -44 12 -124 19 -37
51 -104 70 -149 41 -94 51 -108 64 -87 8 12 10 12 10 1 0 -7 14 -29 30 -48 17
-18 30 -44 30 -56 0 -22 -4 -23 -63 -24 -86 -1 -142 -27 -201 -95 -66 -74 -98
-153 -97 -238 1 -110 32 -165 116 -204 67 -32 119 -33 187 -2 125 55 304 241
384 398 15 29 35 64 44 78 30 44 51 120 39 141 -26 50 -73 1 -154 -161 -38
-74 -77 -147 -87 -162 -25 -36 -46 -37 -23 -2 20 31 14 48 -40 129 -20 29 -52
104 -76 175 -73 224 -170 449 -196 457 -6 2 -14 -1 -18 -7z m85 -251 c0 -5 -4
-9 -10 -9 -5 0 -10 7 -10 16 0 8 5 12 10 9 6 -3 10 -10 10 -16z m77 -391 c13
-12 39 -50 59 -85 19 -34 43 -68 53 -75 18 -13 18 -15 3 -34 -44 -53 -136
-108 -201 -119 -148 -25 -203 140 -95 282 48 63 131 78 181 31z"/>
<path d="M16163 29481 c-57 -27 -88 -77 -114 -190 -34 -146 -18 -236 106 -622
101 -314 230 -554 282 -523 35 21 28 57 -24 115 -26 30 -57 68 -69 84 -31 45
-94 175 -94 194 0 9 -16 47 -36 85 -20 37 -32 71 -28 76 5 4 25 13 45 19 56
18 115 67 138 115 11 25 25 47 31 51 5 3 10 15 10 26 0 11 12 48 26 82 22 50
28 83 32 174 5 110 4 113 -27 175 -28 58 -71 98 -103 98 -5 0 -29 14 -53 30
-51 35 -65 36 -122 11z m139 -93 c64 -63 90 -126 91 -218 1 -48 -6 -95 -17
-130 -26 -78 -105 -220 -122 -220 -8 0 -20 11 -26 25 -12 27 -28 33 -28 12 0
-8 -8 -21 -18 -31 -18 -16 -20 -13 -35 57 -42 189 -46 380 -12 448 57 110 98
123 167 57z"/>
<path d="M10372 29428 c-45 -15 -115 -85 -145 -145 -74 -146 -57 -435 39 -640
13 -28 24 -55 24 -60 0 -4 7 -21 16 -38 9 -16 59 -115 112 -220 125 -251 135
-265 172 -265 17 0 39 9 51 21 18 18 20 28 14 67 -12 85 -49 202 -149 463 -20
53 -36 102 -36 108 0 6 20 36 44 66 106 129 196 322 196 419 0 98 -57 181
-148 217 -38 15 -155 19 -190 7z m122 -97 c46 -11 96 -56 96 -88 0 -13 4 -23
9 -23 13 0 21 27 14 48 -3 9 -4 15 -2 12 39 -47 39 -45 25 -72 -8 -14 -23 -54
-35 -89 -12 -35 -50 -109 -86 -164 -62 -96 -92 -150 -114 -207 -10 -26 -11
-27 -43 -14 -39 17 -43 26 -63 172 -26 182 -8 331 47 389 19 20 70 43 98 44 8
0 32 -4 54 -8z m-59 -671 c3 -5 12 -34 20 -65 8 -30 32 -90 53 -132 72 -144
82 -190 24 -105 -18 26 -51 72 -73 102 -86 117 -118 191 -86 203 21 9 56 7 62
-3z"/>
<path d="M15305 28711 c-88 -55 -154 -169 -182 -312 -26 -138 2 -258 86 -371
62 -82 156 -114 245 -84 101 35 160 80 225 176 68 100 121 246 124 341 2 56
-2 71 -25 107 -16 23 -27 52 -25 64 2 21 -3 23 -52 26 -43 3 -54 7 -58 22 -8
30 -59 34 -145 11 -43 -12 -88 -21 -101 -21 -45 0 -90 -46 -124 -128 -38 -89
-40 -103 -14 -126 28 -26 39 -18 66 49 14 32 40 75 60 94 35 36 35 36 137 39
113 3 154 -7 188 -43 21 -22 22 -30 16 -95 -10 -117 -76 -268 -146 -338 -51
-50 -116 -82 -187 -89 -43 -5 -59 -2 -95 20 -57 33 -75 55 -98 117 -80 218
-26 400 154 523 14 10 26 22 26 27 0 16 -43 11 -75 -9z"/>
<path d="M16277 28716 c-6 -15 15 -77 55 -166 11 -25 28 -76 38 -115 19 -77
56 -148 74 -142 28 9 -19 181 -87 315 -55 111 -71 132 -80 108z"/>
<path d="M12389 28681 c-112 -22 -248 -228 -285 -431 -25 -141 -14 -242 41
-367 14 -31 25 -71 25 -89 0 -29 5 -36 35 -48 19 -8 35 -19 35 -25 0 -19 93
-123 143 -159 105 -76 204 -132 236 -132 41 0 69 39 53 74 -14 31 -33 44 -167
117 -124 68 -176 112 -157 131 7 7 35 18 64 25 82 21 152 61 262 150 139 112
324 326 345 401 10 32 -3 72 -22 72 -19 0 -68 -55 -119 -135 -117 -183 -422
-431 -553 -450 -70 -10 -89 28 -20 41 21 4 37 13 40 25 3 10 31 55 62 100 72
106 148 265 173 364 28 111 26 188 -6 253 -43 87 -80 103 -185 83z m86 -141
c7 -14 18 -48 25 -77 11 -47 10 -59 -10 -120 -13 -37 -26 -72 -30 -78 -3 -5
-15 -32 -25 -60 -10 -27 -36 -75 -56 -106 -44 -63 -78 -135 -79 -162 0 -28
-30 -67 -52 -67 -14 0 -18 5 -14 16 3 9 0 41 -8 72 -40 159 -26 324 39 458 37
75 105 161 139 174 24 9 50 -10 71 -50z m35 35 c0 -8 -2 -15 -4 -15 -2 0 -6 7
-10 15 -3 8 -1 15 4 15 6 0 10 -7 10 -15z m20 -46 c0 -6 -4 -7 -10 -4 -5 3
-10 11 -10 16 0 6 5 7 10 4 6 -3 10 -11 10 -16z"/>
<path d="M9735 28515 c-45 -21 -69 -46 -106 -106 -18 -30 -46 -72 -61 -93 -34
-48 -35 -56 -3 -90 21 -23 25 -37 25 -92 0 -80 21 -155 58 -209 40 -57 72 -70
172 -70 75 0 93 4 152 32 89 42 180 133 221 221 28 59 32 77 32 157 0 50 -3
101 -7 115 -9 31 -61 86 -101 107 -49 25 -153 35 -235 23 -64 -10 -76 -9 -91
4 -21 19 -18 19 -56 1z m329 -129 c57 -37 69 -139 30 -250 -40 -111 -177 -205
-279 -190 -49 7 -65 20 -95 81 -22 43 -24 62 -25 171 l0 124 30 24 c58 47 121
64 221 61 67 -2 98 -8 118 -21z"/>
<path d="M15197 28474 c-4 -4 -7 -14 -7 -23 0 -11 3 -12 11 -4 6 6 10 16 7 23
-2 6 -7 8 -11 4z"/>
<path d="M14079 26105 c-14 -8 -38 -30 -54 -51 -15 -20 -75 -91 -133 -158
-109 -125 -187 -237 -240 -341 -81 -163 -132 -363 -116 -452 15 -85 60 -140
151 -184 44 -22 61 -24 188 -24 156 0 205 9 338 62 48 20 90 34 92 31 5 -5
-26 -169 -65 -348 -57 -259 -71 -336 -77 -423 -6 -86 -6 -88 22 -117 27 -28
63 -40 66 -22 1 4 3 45 5 92 1 56 15 137 39 235 20 83 60 258 90 390 70 309
70 310 104 337 34 27 133 164 166 228 65 129 19 161 -63 43 -18 -27 -47 -68
-63 -91 -17 -24 -32 -42 -34 -40 -2 2 7 39 20 83 84 286 187 519 262 597 41
42 40 76 -1 104 -22 14 -27 14 -54 0 -63 -33 -131 -137 -210 -321 -58 -138
-96 -261 -141 -460 -36 -159 -43 -169 -138 -205 -187 -70 -380 -78 -494 -19
-61 31 -72 56 -66 147 11 172 131 417 297 606 33 39 73 75 89 82 17 7 40 32
59 67 17 30 36 58 42 62 17 11 11 64 -10 85 -23 23 -36 24 -71 5z"/>
<path d="M12461 26014 c-25 -32 -26 -60 -11 -470 13 -343 25 -484 51 -594 49
-204 82 -455 99 -750 11 -183 16 -202 52 -221 15 -8 24 -4 48 21 28 30 30 38
30 107 0 86 -36 490 -51 578 -6 33 -26 132 -45 220 -53 242 -64 369 -71 760
-3 207 -10 355 -16 363 -17 22 -64 14 -86 -14z"/>
<path d="M10510 25994 c-14 -3 -131 -29 -260 -59 -469 -107 -665 -139 -776
-128 -48 5 -53 3 -69 -21 -23 -35 -13 -74 22 -82 58 -15 384 39 738 122 256
60 266 62 375 79 151 23 260 1 327 -65 39 -38 53 -83 53 -171 0 -120 -24 -189
-215 -619 -94 -211 -215 -470 -314 -673 -122 -250 -154 -339 -145 -399 7 -45
28 -78 50 -78 25 0 53 49 47 83 -8 49 27 137 154 397 122 248 261 548 295 640
12 30 27 64 34 75 29 46 155 361 174 434 23 90 27 222 8 285 -18 61 -101 140
-169 162 -53 17 -271 29 -329 18z"/>
<path d="M1221 25870 c-150 -32 -276 -140 -359 -310 -79 -160 -97 -236 -96
-405 0 -144 10 -215 61 -420 29 -119 51 -183 100 -287 30 -65 42 -79 68 -88
44 -15 63 -4 75 42 15 52 10 70 -22 85 -29 14 -61 82 -102 218 -41 132 -56
212 -72 390 -4 55 16 219 37 295 54 192 189 357 322 391 111 28 329 -13 416
-78 41 -32 65 -84 55 -125 -14 -67 -119 -151 -313 -249 -133 -68 -275 -152
-339 -202 -68 -52 -126 -136 -126 -182 0 -101 176 -226 439 -313 211 -69 541
-155 569 -148 31 8 36 44 9 69 -10 8 -90 36 -178 62 -405 117 -498 152 -615
231 -66 44 -89 68 -103 107 -17 45 109 136 373 270 282 143 391 237 406 351
12 84 -44 160 -161 219 -130 65 -333 100 -444 77z"/>
<path d="M16147 25864 c-165 -25 -448 -110 -534 -160 -92 -53 -55 -158 38
-109 132 69 219 101 380 140 201 48 339 43 398 -15 36 -37 43 -71 24 -134 -40
-138 -111 -233 -467 -626 -238 -261 -360 -433 -405 -567 -26 -76 -26 -106 -2
-160 52 -114 276 -157 660 -128 108 9 236 20 284 25 142 16 400 50 424 55 41
9 305 34 317 29 6 -2 19 -18 28 -34 19 -33 57 -41 78 -15 10 12 8 20 -9 41
-12 15 -21 35 -21 46 0 10 -7 21 -16 25 -8 3 -20 16 -25 29 -6 17 -16 24 -34
24 -41 0 -210 -19 -350 -40 -454 -67 -811 -97 -985 -81 -193 16 -268 50 -257
117 14 84 140 282 293 459 43 50 82 95 88 101 51 53 283 311 318 354 207 257
251 444 134 565 -35 36 -52 45 -113 59 -84 19 -127 19 -246 0z"/>
<path d="M2258 25705 c-11 -24 -6 -76 58 -589 26 -213 99 -512 154 -631 43
-94 97 -130 117 -79 3 9 -6 53 -20 98 -73 226 -126 525 -162 915 -28 306 -29
311 -97 311 -31 0 -41 -5 -50 -25z"/>
<path d="M7722 25646 c-41 -47 -87 -146 -107 -231 -20 -83 -47 -113 -130 -144
-118 -44 -402 -73 -413 -42 -6 19 102 117 146 132 50 16 72 37 72 70 0 30 -31
59 -63 59 -61 0 -234 -147 -277 -235 -30 -63 -27 -90 17 -120 36 -24 45 -25
171 -25 148 0 249 17 337 55 30 14 60 25 65 25 18 0 11 -53 -25 -185 -59 -219
-122 -489 -118 -502 6 -16 30 -24 48 -16 38 14 116 240 215 619 38 146 58 204
104 295 32 63 61 118 65 124 5 5 11 21 14 35 3 14 8 34 12 45 9 30 -35 75 -73
75 -22 0 -39 -10 -60 -34z"/>
<path d="M5715 25620 c-38 -5 -91 -13 -117 -19 -37 -9 -53 -8 -82 4 -85 36
-172 1 -284 -114 -187 -190 -319 -399 -367 -582 -61 -229 67 -472 285 -540
190 -59 366 -34 530 76 201 135 381 362 410 517 22 112 30 114 105 16 30 -40
79 -95 110 -121 30 -27 55 -54 55 -62 0 -7 -28 -34 -63 -58 -35 -25 -90 -74
-122 -108 -89 -96 -101 -145 -44 -174 49 -26 64 -19 121 53 72 93 193 222 209
222 7 0 35 -17 63 -39 28 -21 74 -50 101 -64 86 -42 237 -98 251 -93 22 8 16
41 -12 70 -26 25 -52 39 -196 104 -64 29 -108 62 -108 81 0 6 34 35 75 66 87
66 168 164 163 198 -2 16 -11 23 -33 25 -25 2 -42 -7 -86 -45 -70 -60 -206
-167 -220 -172 -18 -6 -98 80 -157 169 -63 95 -85 117 -124 126 -40 9 -45 20
-51 109 -6 98 -27 168 -70 231 -66 99 -185 142 -342 124z m175 -103 c55 -29
93 -95 114 -199 47 -231 -17 -433 -200 -627 -185 -197 -370 -279 -556 -250
-40 7 -85 18 -99 25 -142 71 -215 280 -163 462 42 145 153 320 291 458 103
104 134 119 223 111 37 -3 62 -1 69 7 15 14 128 33 212 35 51 1 76 -4 109 -22z"/>
<path d="M6945 25610 c3 -5 8 -10 11 -10 2 0 4 5 4 10 0 6 -5 10 -11 10 -5 0
-7 -4 -4 -10z"/>
<path d="M8244 25590 c-69 -14 -197 -60 -244 -87 -61 -35 -80 -53 -80 -74 0
-21 48 -69 69 -69 8 0 42 18 75 39 84 54 215 93 303 89 l68 -3 7 -40 c9 -52
-22 -186 -61 -263 -16 -33 -73 -123 -126 -202 -124 -184 -155 -246 -155 -306
0 -43 4 -51 45 -90 52 -50 93 -64 196 -64 102 0 172 13 317 61 96 32 126 38
137 29 24 -20 56 -7 88 37 27 39 29 44 17 73 -7 17 -22 33 -35 36 -14 3 -86
-15 -179 -45 -174 -56 -253 -72 -368 -73 -77 0 -108 10 -108 37 0 20 48 104
129 225 170 254 214 352 214 485 1 103 -27 156 -99 193 -29 15 -161 23 -210
12z"/>
<path d="M3270 25439 c0 -5 5 -7 10 -4 6 3 10 8 10 11 0 2 -4 4 -10 4 -5 0
-10 -5 -10 -11z"/>
<path d="M3464 25385 c-29 -29 -26 -56 10 -92 15 -15 39 -23 86 -27 36 -4 103
-11 150 -18 106 -13 602 -5 680 12 30 6 65 14 78 16 16 3 22 11 22 29 0 45
-24 48 -274 41 -262 -8 -408 2 -589 39 -66 14 -124 25 -129 25 -5 0 -20 -11
-34 -25z"/>
<path d="M8978 25289 c-12 -7 -18 -22 -18 -49 0 -30 6 -43 31 -64 38 -32 59
-33 93 -1 34 31 33 60 -3 96 -31 30 -71 37 -103 18z"/>
<path d="M3185 25110 c-15 -17 -16 -24 -6 -48 14 -32 39 -47 98 -57 21 -4 115
-23 208 -42 135 -28 202 -36 328 -40 230 -8 436 18 458 58 21 41 -20 74 -72
58 -55 -17 -353 -23 -464 -10 -124 15 -332 57 -405 82 -71 25 -122 25 -145 -1z"/>
<path d="M9012 24725 c-25 -31 -34 -69 -72 -295 -57 -345 -100 -513 -155 -609
-32 -56 -32 -79 2 -92 58 -22 103 46 177 271 24 74 56 196 70 270 33 170 72
323 91 360 20 39 19 62 -6 94 -28 35 -80 36 -107 1z"/>
<path d="M16778 23795 c-2 -2 -66 -6 -143 -8 -77 -3 -180 -12 -230 -20 -227
-40 -350 -56 -475 -62 -140 -8 -373 -39 -544 -75 -54 -11 -149 -24 -210 -28
-178 -11 -861 2 -1011 20 -71 9 -188 21 -260 28 -71 6 -151 16 -177 22 -26 5
-52 7 -58 3 -17 -10 -11 -34 11 -45 15 -9 18 -15 10 -24 -8 -10 -8 -16 1 -23
46 -36 101 -47 326 -63 79 -6 166 -15 195 -21 32 -7 232 -10 527 -9 503 1 519
2 758 54 107 24 176 33 482 62 91 8 227 26 303 39 75 14 194 29 265 35 136 12
503 9 539 -4 18 -7 25 -2 42 25 12 19 21 39 21 46 0 7 -21 21 -47 33 -40 17
-65 20 -184 19 -75 0 -139 -2 -141 -4z m-2793 -215 c17 -7 14 -9 -13 -9 -20
-1 -31 3 -27 9 7 12 13 12 40 0z"/>
<path d="M10540 23620 c-80 -10 -210 -25 -290 -35 -80 -9 -281 -20 -450 -25
-305 -8 -368 -15 -519 -59 -19 -6 -70 -15 -115 -21 -116 -15 -126 -18 -136
-43 -6 -12 -16 -30 -22 -40 -11 -15 -10 -20 5 -32 25 -18 97 -11 267 27 74 17
153 34 175 39 22 5 171 13 330 19 258 9 418 20 495 35 99 19 422 46 522 43
109 -3 119 -1 139 18 23 23 20 51 -7 79 -21 20 -200 18 -394 -5z"/>
<path d="M16200 23288 c-25 -28 -26 -68 -1 -166 34 -134 49 -298 55 -597 3
-159 14 -364 23 -455 13 -127 17 -272 17 -628 l1 -463 25 -19 c33 -26 52 -21
62 15 5 17 11 221 14 455 5 339 3 471 -10 651 -9 131 -16 350 -16 517 0 295
-11 441 -46 594 -25 109 -75 148 -124 96z"/>
<path d="M14534 23026 l-28 -23 0 -444 c0 -380 2 -458 17 -539 10 -55 22 -194
27 -330 6 -129 14 -252 19 -272 14 -59 50 -110 75 -106 16 2 20 9 18 28 -2 14
-7 153 -12 310 -5 157 -14 330 -22 385 -13 105 -16 393 -8 751 5 222 4 230
-41 255 -13 7 -25 3 -45 -15z"/>
<path d="M10405 22870 c-88 -43 -212 -133 -321 -231 -292 -265 -568 -724 -639
-1066 -65 -311 58 -565 305 -629 53 -13 78 -14 146 -6 209 27 433 170 719 457
212 212 308 384 335 598 14 111 3 176 -50 309 -48 120 -68 151 -144 233 -42
45 -58 57 -65 46 -7 -11 -13 -11 -32 0 -22 11 -22 13 -5 19 17 6 17 7 -5 22
-13 8 -48 23 -78 33 -50 16 -55 16 -66 1 -10 -12 -30 -16 -91 -16 -87 0 -220
-22 -237 -39 -13 -13 -27 -14 -27 -2 0 16 65 50 118 61 40 9 51 16 54 33 4 32
129 92 183 89 98 -6 106 -5 127 15 46 46 -15 113 -102 113 -32 0 -68 -11 -125
-40z m190 -356 c83 -39 147 -102 188 -186 45 -94 61 -163 60 -268 -1 -215 -91
-388 -317 -608 -216 -209 -391 -337 -520 -378 -79 -25 -223 -30 -284 -10 -58
20 -123 83 -152 149 -87 196 -20 506 184 857 105 179 248 357 345 429 51 38
108 53 221 60 119 7 190 -4 275 -45z"/>
<path d="M12486 22809 c-209 -20 -493 -97 -638 -171 -101 -52 -158 -112 -158
-167 0 -45 21 -72 50 -64 20 5 70 57 70 72 0 15 114 69 221 105 142 48 413
106 529 113 104 6 220 -9 258 -33 79 -51 32 -179 -218 -594 -148 -245 -266
-475 -303 -587 -49 -148 -28 -257 55 -292 124 -52 518 42 1096 260 290 109
406 165 410 196 3 17 -4 26 -24 33 -37 15 -68 7 -217 -56 -160 -67 -370 -140
-602 -209 -313 -92 -532 -129 -600 -100 -29 12 -35 19 -35 45 0 101 170 446
377 768 116 179 194 348 208 448 23 172 -164 263 -479 233z"/>
<path d="M7350 22634 c-268 -70 -413 -287 -474 -707 -56 -380 40 -699 164
-549 55 66 50 119 -13 146 -43 18 -47 36 -47 225 0 173 18 295 61 417 79 223
158 314 313 359 107 31 265 9 274 -38 6 -32 -77 -98 -242 -191 -178 -99 -225
-140 -268 -232 -40 -86 -51 -238 -23 -340 37 -136 151 -225 292 -227 133 -1
249 56 241 120 -4 37 -34 41 -90 12 -59 -31 -185 -33 -243 -4 -64 32 -80 76
-79 215 0 204 35 259 230 364 167 91 240 141 274 187 38 53 38 85 0 137 -38
53 -107 93 -189 108 -83 17 -113 16 -181 -2z"/>
<path d="M7957 22591 c-21 -26 -25 -43 -31 -133 -4 -57 -2 -219 4 -361 13
-300 4 -524 -32 -763 -12 -83 -1 -117 35 -112 27 4 48 64 71 200 30 175 37
283 45 653 7 304 12 380 26 424 20 63 11 95 -31 111 -41 16 -61 12 -87 -19z"/>
<path d="M4465 22531 c-214 -61 -380 -253 -443 -512 -36 -146 -55 -335 -43
-439 21 -192 73 -310 136 -310 33 0 48 25 58 94 17 130 16 137 -28 167 -35 24
-41 34 -47 76 -34 248 42 542 179 694 42 46 118 97 193 129 47 19 71 23 166
22 139 -1 184 -16 184 -61 0 -63 -144 -167 -430 -311 -58 -29 -123 -65 -146
-81 -54 -37 -104 -95 -104 -120 0 -60 93 -150 221 -214 245 -124 412 -176 467
-146 49 26 10 66 -83 86 -46 9 -229 92 -336 152 -105 59 -153 101 -144 125 4
9 84 57 178 107 95 50 201 109 237 131 36 21 83 49 105 61 57 31 152 131 160
169 14 62 -65 141 -180 182 -66 23 -218 23 -300 -1z"/>
<path d="M5325 22480 c-21 -41 -19 -191 6 -430 11 -107 22 -270 24 -362 3
-171 11 -208 44 -208 27 0 37 17 56 90 15 57 16 96 10 315 -11 363 -11 464 -1
522 8 48 7 53 -17 77 -19 19 -36 26 -66 26 -35 0 -43 -4 -56 -30z"/>
<path d="M6250 22401 c-14 -4 -35 -22 -47 -41 -36 -55 -38 -57 -102 -63 -119
-13 -163 -64 -110 -131 24 -30 53 -33 103 -10 56 27 65 17 62 -73 -2 -43 1
-152 6 -243 12 -242 28 -301 76 -286 39 13 44 50 50 331 2 149 8 278 13 287 8
15 32 17 189 20 144 2 183 6 190 17 12 21 -4 46 -42 64 -26 12 -193 37 -249
37 -5 0 -17 16 -26 35 -13 28 -67 69 -85 64 -1 -1 -14 -4 -28 -8z"/>
<path d="M747 22275 c-64 -18 -145 -60 -186 -99 -89 -83 -166 -223 -202 -368
-53 -214 -27 -664 52 -909 31 -97 110 -248 147 -280 58 -51 122 -29 122 43 0
21 -8 32 -32 44 -18 10 -39 24 -45 33 -17 21 -70 131 -76 156 -3 11 -15 52
-26 90 -24 78 -57 317 -66 470 -21 350 109 648 314 725 55 20 73 22 159 17
106 -7 193 -26 199 -43 7 -21 -51 -67 -259 -206 -93 -62 -189 -164 -228 -243
-32 -63 -35 -78 -35 -155 0 -73 4 -93 28 -142 68 -139 230 -268 424 -338 87
-31 176 -26 210 14 58 68 6 106 -92 66 -90 -36 -355 152 -424 300 -78 169 -20
274 257 463 190 131 275 227 245 276 -5 9 -44 28 -86 43 -157 56 -299 71 -400
43z"/>
<path d="M1775 22255 c-98 -48 -188 -124 -209 -175 -21 -53 -15 -72 29 -96 44
-24 64 -13 83 44 16 49 80 106 163 147 73 36 89 30 89 -32 0 -68 -33 -165
-143 -420 -143 -330 -165 -409 -133 -471 34 -67 145 -122 244 -122 139 0 450
89 548 156 58 40 66 57 33 74 -24 13 -50 8 -174 -32 -239 -77 -448 -104 -508
-65 -54 35 -31 133 108 447 99 224 142 344 151 418 13 119 -26 162 -148 162
-51 0 -76 -7 -133 -35z"/>
<path d="M3180 22239 c-138 -12 -292 -38 -317 -55 -41 -26 -18 -87 40 -107 10
-4 50 2 89 13 65 18 124 26 453 61 118 12 227 36 251 54 16 11 16 15 5 29 -12
14 -41 16 -220 15 -113 -1 -249 -5 -301 -10z"/>
<path d="M8424 22105 c-37 -57 40 -148 100 -116 55 30 59 99 6 126 -45 23 -87
19 -106 -10z"/>
<path d="M3160 21839 c-48 -12 -405 -39 -518 -39 -88 0 -93 -1 -103 -24 -14
-31 1 -60 43 -82 26 -14 51 -15 152 -10 116 6 275 25 401 47 67 12 133 42 142
65 13 35 -53 59 -117 43z"/>
<path d="M8567 21423 c-28 -32 -59 -242 -58 -398 1 -172 -12 -282 -45 -386
l-25 -79 -38 0 c-52 0 -60 -23 -22 -61 77 -77 162 3 212 200 13 52 22 137 29
271 7 152 14 210 31 265 34 113 36 149 5 179 -29 30 -66 33 -89 9z"/>
<path d="M9970 20740 c-41 -5 -205 -36 -365 -70 -161 -34 -336 -64 -393 -69
-94 -7 -105 -10 -132 -36 -31 -30 -35 -41 -21 -63 27 -43 181 -28 543 52 114
25 249 53 300 61 114 18 372 20 488 3 188 -28 320 -7 328 52 6 39 -19 48 -111
43 -54 -3 -113 1 -172 12 -105 19 -358 27 -465 15z"/>
<path d="M14835 20637 c-33 -5 -114 -20 -180 -34 -70 -14 -206 -30 -325 -39
-113 -8 -213 -17 -222 -20 -17 -5 -48 -56 -48 -79 0 -6 6 -19 13 -29 12 -17
18 -17 103 -2 49 9 144 23 210 31 201 25 475 90 534 127 28 17 50 34 50 38 0
7 -55 22 -69 19 -3 -1 -33 -6 -66 -12z"/>
<path d="M16615 20484 c-163 -23 -244 -31 -509 -55 -126 -11 -316 -48 -388
-75 -71 -27 -111 -90 -71 -113 12 -6 37 -2 86 16 101 36 248 62 420 73 85 5
160 12 168 15 8 2 75 11 149 20 276 30 297 34 359 64 24 12 24 29 0 42 -23 12
-161 20 -214 13z"/>
<path d="M12605 20369 c-33 -5 -93 -11 -134 -14 -40 -3 -87 -13 -104 -22 -26
-13 -53 -14 -171 -9 -95 5 -143 12 -152 21 -8 7 -38 17 -67 20 -49 6 -57 4
-81 -18 -43 -40 -32 -59 49 -81 98 -26 426 -27 610 -2 72 9 185 21 253 25 67
4 126 11 131 17 5 5 11 23 13 39 l3 30 -64 3 c-35 2 -77 -2 -93 -9 -21 -8 -32
-9 -40 -1 -8 8 -15 6 -26 -5 -14 -13 -16 -13 -24 1 -10 17 -14 18 -103 5z"/>
<path d="M8580 19129 c-113 -22 -255 -131 -305 -235 -26 -53 -26 -115 1 -151
49 -66 125 -88 372 -109 293 -24 443 -63 654 -171 179 -91 288 -189 288 -260
0 -125 -352 -356 -724 -475 -114 -36 -170 -37 -192 -3 -14 22 -15 31 -4 71 14
48 5 72 -23 61 -17 -6 -57 -118 -57 -158 0 -39 44 -87 91 -99 100 -27 400 80
664 237 186 110 273 199 325 332 20 51 20 56 5 102 -36 107 -262 267 -515 365
-151 58 -279 82 -518 99 -117 8 -223 20 -235 26 -79 41 -87 88 -25 155 120
130 278 152 470 63 48 -22 98 -39 109 -37 29 4 43 29 35 62 -5 22 -21 34 -79
60 -138 63 -244 83 -337 65z"/>
<path d="M11433 18680 c-94 -86 -151 -193 -258 -492 -76 -213 -105 -278 -124
-278 -23 0 -117 187 -168 335 -25 73 -31 80 -56 83 -40 5 -67 -23 -67 -66 0
-104 162 -415 244 -471 32 -21 39 -22 66 -11 79 33 139 165 270 600 17 58 82
178 115 215 43 47 68 92 60 105 -12 19 -50 9 -82 -20z"/>
<path d="M13452 18564 c-136 -36 -219 -100 -242 -186 -7 -23 -16 -54 -19 -68
-5 -16 -16 -26 -32 -28 -35 -5 -69 -41 -69 -72 0 -29 27 -60 52 -60 35 0 49
-15 84 -88 30 -62 55 -95 133 -172 161 -160 298 -238 316 -180 13 40 -17 76
-152 180 -95 72 -212 237 -186 260 4 4 31 13 58 20 65 17 219 89 272 128 57
42 123 128 123 159 0 36 -34 78 -83 102 -52 25 -172 28 -255 5z m183 -108 c48
-20 46 -34 -11 -73 -47 -34 -234 -104 -279 -106 l-40 -2 3 44 c5 84 29 108
132 137 62 17 154 17 195 0z"/>
<path d="M12440 18478 c-19 -6 -57 -16 -85 -24 -102 -27 -305 -173 -446 -320
-259 -270 -261 -273 -216 -318 34 -33 60 -25 99 33 36 52 168 210 192 230 14
12 16 8 16 -35 0 -98 78 -212 181 -264 142 -73 358 -78 483 -12 52 28 77 65
58 84 -8 8 -35 6 -102 -7 -229 -44 -431 17 -491 150 -24 52 -24 139 -1 185 22
43 114 98 267 156 89 34 114 48 133 75 20 28 21 35 8 53 -15 24 -46 29 -96 14z"/>
<path d="M10076 18330 c-56 -18 -146 -67 -214 -118 l-34 -24 7 64 c8 72 -5 95
-48 84 -34 -8 -44 -37 -61 -169 -22 -162 -21 -271 3 -347 78 -251 287 -244
587 19 214 189 241 338 78 447 -95 64 -207 79 -318 44z m204 -111 c57 -26 97
-63 111 -106 9 -29 8 -39 -15 -76 -53 -91 -226 -231 -331 -268 -151 -53 -220
1 -232 182 -5 64 -3 81 14 105 10 16 23 38 29 49 12 24 172 110 229 124 70 16
146 12 195 -10z"/>
<path d="M8995 16785 c-200 -37 -445 -159 -659 -328 -138 -109 -387 -362 -464
-471 -185 -263 -335 -697 -349 -1007 -15 -332 104 -506 398 -583 181 -48 314
-60 674 -60 313 0 338 2 477 27 188 34 308 81 308 122 0 23 -24 23 -145 -1
-314 -61 -642 -67 -1060 -19 -161 19 -239 38 -334 81 -143 66 -189 150 -198
365 -11 251 70 570 218 859 111 217 249 385 474 578 140 120 251 194 397 265
151 73 251 99 393 101 96 1 117 -2 162 -23 91 -41 172 -5 121 53 -47 52 -245
72 -413 41z"/>
<path d="M11724 16628 c-27 -13 -44 -49 -44 -93 0 -19 -20 -97 -44 -173 -80
-250 -107 -377 -126 -592 -14 -162 -37 -299 -55 -327 -17 -25 -28 -27 -243
-42 -78 -6 -151 -15 -163 -21 -11 -6 -29 -26 -39 -43 -50 -82 -3 -158 131
-215 111 -48 312 -53 474 -13 l79 19 58 -53 c151 -140 366 -199 638 -176 85 7
131 16 153 29 33 19 46 47 29 64 -5 5 -101 10 -213 12 -227 2 -290 13 -414 71
-72 34 -130 79 -120 95 3 5 48 29 99 53 253 120 592 407 676 572 29 57 35 80
35 133 0 60 -2 65 -37 97 -51 47 -107 61 -183 45 -138 -28 -261 -96 -420 -233
-205 -176 -307 -296 -356 -419 -21 -52 -21 -95 -4 -169 8 -33 0 -35 -159 -50
-135 -11 -234 -1 -303 32 -50 24 -72 46 -52 54 8 2 80 8 160 13 174 11 194 20
238 101 44 85 60 165 96 468 20 166 50 290 125 519 33 100 60 191 60 202 0 12
-10 28 -22 36 -26 18 -26 18 -54 4z m788 -685 c23 -21 24 -83 2 -126 -43 -83
-287 -298 -460 -405 -111 -68 -269 -152 -289 -152 -24 0 -48 66 -43 120 7 68
64 144 220 295 147 142 265 224 377 262 80 27 167 30 193 6z"/>
<path d="M10190 15610 c-68 -12 -130 -42 -297 -143 -138 -82 -153 -94 -159
-123 -8 -42 2 -57 32 -51 29 5 29 8 -1 -78 -19 -55 -25 -90 -25 -162 0 -147
46 -240 148 -301 40 -23 57 -27 115 -25 89 2 152 33 252 126 193 177 305 366
305 511 0 103 -73 201 -171 230 -65 20 -146 26 -199 16z m178 -131 c73 -31
101 -131 67 -245 -28 -95 -236 -322 -339 -370 -32 -15 -70 -24 -100 -24 -46 0
-53 3 -96 48 -59 62 -75 113 -67 227 5 91 33 165 84 225 21 25 32 30 71 30 58
0 92 28 92 76 0 37 9 42 95 54 68 9 141 1 193 -21z"/>
<path d="M10411 13449 c-12 -13 -21 -32 -21 -44 0 -27 63 -371 90 -490 70
-314 103 -601 98 -866 -3 -168 -6 -199 -21 -223 -39 -59 -71 -46 -223 91 -139
126 -308 253 -338 253 -28 0 -42 -15 -50 -56 -8 -34 44 -186 102 -299 71 -142
209 -260 361 -310 72 -24 222 -17 302 14 172 66 337 239 525 550 43 73 87 145
98 162 22 36 9 59 -34 59 -34 0 -46 -14 -125 -145 -95 -158 -169 -258 -265
-355 -129 -131 -239 -184 -385 -185 -70 0 -88 4 -145 32 -36 17 -91 53 -121
80 -94 80 -204 263 -159 263 5 0 66 -53 135 -118 137 -130 205 -175 267 -175
61 0 85 19 126 102 l37 75 4 169 c5 240 -20 489 -79 802 -63 331 -81 460 -75
531 7 78 2 87 -52 98 -25 6 -35 3 -52 -15z"/>
<path d="M14039 10820 c-22 -13 -34 -48 -54 -148 -9 -46 -45 -180 -80 -297
-100 -335 -186 -686 -192 -785 l-5 -85 35 -34 c28 -26 41 -32 61 -27 47 12 61
76 16 76 -22 0 -22 2 2 145 17 105 102 404 218 771 41 127 90 321 90 352 0 37
-51 55 -91 32z"/>
<path d="M13069 10681 l-24 -19 0 -319 0 -318 -26 -3 c-40 -5 -55 -28 -79
-127 -21 -84 -81 -235 -94 -235 -4 0 -13 18 -22 40 -45 111 -153 104 -232 -15
-19 -28 -37 -51 -40 -53 -4 -1 -5 54 -3 123 3 134 -6 177 -41 196 -41 22 -144
-36 -209 -117 -17 -22 -70 -97 -117 -169 -47 -71 -87 -124 -89 -118 -6 18 43
165 79 237 34 67 32 106 -5 106 -29 0 -81 -53 -102 -104 -37 -87 -105 -346
-105 -397 0 -32 21 -56 58 -66 22 -5 31 0 59 32 18 21 47 63 64 94 76 134 275
399 294 390 6 -2 9 -85 6 -219 -4 -236 -3 -242 56 -257 35 -8 58 22 102 132
33 87 86 176 108 182 6 2 16 -12 23 -31 15 -48 72 -96 112 -96 56 0 120 84
162 213 3 11 11 15 17 11 9 -5 10 -44 5 -138 -6 -109 -4 -134 8 -151 9 -11 16
-28 16 -38 0 -37 -80 5 -112 59 -21 36 -42 44 -52 18 -12 -30 -6 -60 19 -96
87 -129 333 -96 574 77 76 55 176 176 223 273 37 73 42 93 46 168 5 102 -12
158 -63 203 -79 69 -222 43 -345 -62 -51 -44 -130 -153 -169 -235 -19 -40 -38
-72 -43 -72 -11 0 -10 57 2 150 6 41 11 227 11 414 1 278 -1 340 -12 347 -21
13 -34 11 -60 -10z m557 -612 c31 -34 25 -166 -10 -243 -37 -82 -122 -183
-203 -243 -83 -61 -199 -129 -236 -138 l-27 -7 0 64 c0 127 107 356 228 490
80 88 203 126 248 77z"/>
<path d="M8150 10507 c-40 -33 -80 -91 -103 -153 -61 -163 -117 -413 -137
-619 -10 -96 -18 -129 -38 -163 -21 -37 -23 -47 -12 -66 9 -19 9 -63 -4 -222
-9 -110 -17 -297 -18 -417 -3 -206 -2 -219 16 -233 24 -17 37 -18 59 -1 15 11
17 47 22 322 2 171 9 354 14 409 9 91 12 101 41 131 18 18 64 48 103 66 40 18
85 43 100 56 16 12 36 23 44 23 9 0 49 16 89 35 83 40 170 63 183 49 12 -12
134 -339 167 -447 20 -66 24 -91 15 -100 -18 -18 -13 -54 18 -116 30 -58 47
-71 98 -71 13 0 24 8 28 20 11 33 -55 253 -145 490 -104 272 -97 250 -77 265
10 7 35 16 55 20 33 6 71 20 190 71 36 15 46 54 14 54 -18 0 -270 -56 -295
-66 -18 -6 -31 11 -47 61 -22 67 -175 426 -210 490 -46 84 -86 125 -124 125
-17 0 -38 -6 -46 -13z m50 -122 c0 -4 -7 -20 -16 -36 -8 -17 -14 -40 -12 -52
3 -19 6 -17 27 16 13 21 27 35 32 30 4 -4 42 -87 83 -183 42 -96 93 -209 113
-251 19 -42 33 -81 29 -87 -3 -6 -32 -16 -64 -22 -102 -20 -234 -62 -318 -101
-46 -21 -86 -34 -89 -30 -7 12 40 273 76 421 26 110 81 251 111 288 11 12 28
17 28 7z"/>
<path d="M8161 10254 c0 -11 3 -14 6 -6 3 7 2 16 -1 19 -3 4 -6 -2 -5 -13z"/>
<path d="M11514 10160 c-68 -10 -166 -65 -221 -122 -60 -64 -155 -220 -183
-303 -33 -95 -37 -180 -11 -256 12 -35 37 -86 57 -112 43 -58 136 -121 205
-137 75 -18 190 -8 270 24 72 29 167 105 155 124 -11 19 -40 14 -108 -18 -67
-31 -166 -60 -208 -60 -48 0 -144 31 -178 57 -40 30 -89 103 -102 153 -15 57
12 190 59 286 94 189 279 317 384 263 65 -34 82 -76 51 -128 -24 -41 -71 -68
-158 -92 -118 -32 -226 -83 -226 -107 0 -25 20 -42 51 -44 26 -1 251 73 310
103 50 25 97 66 114 100 19 36 19 122 1 157 -41 78 -157 128 -262 112z"/>
<path d="M10827 10135 c-27 -13 -54 -28 -60 -34 -7 -5 -76 -37 -155 -70 -437
-187 -616 -309 -573 -389 21 -39 70 -46 188 -24 184 34 307 45 432 38 117 -7
259 -31 274 -46 11 -10 -74 -74 -158 -120 -80 -44 -276 -175 -400 -268 -108
-80 -170 -116 -185 -107 -14 9 -50 -32 -44 -50 10 -25 62 -47 95 -40 16 4 86
47 156 97 145 103 352 240 433 286 91 52 194 136 215 176 l20 37 -27 24 c-40
35 -127 64 -262 87 -158 27 -318 21 -494 -17 -68 -15 -126 -25 -129 -22 -25
26 175 134 461 248 141 57 299 133 315 153 11 13 11 22 3 41 -15 32 -42 31
-105 0z"/>
<path d="M14828 10058 c-9 -7 -42 -58 -74 -113 -74 -129 -120 -197 -179 -263
-50 -55 -84 -76 -110 -66 -20 8 -58 94 -80 179 -20 78 -38 105 -69 105 -57 -1
-69 -39 -42 -125 40 -124 73 -181 124 -215 70 -47 137 -40 204 19 40 35 54 31
33 -9 -36 -69 -124 -306 -214 -577 -134 -402 -238 -617 -359 -745 -56 -59 -63
-88 -22 -88 69 0 136 66 236 232 105 174 151 282 269 628 77 228 181 498 279
727 88 207 109 280 86 308 -15 18 -60 20 -82 3z"/>
<path d="M23813 9985 c0 -33 2 -45 4 -27 2 18 2 45 0 60 -2 15 -4 0 -4 -33z"/>
<path d="M9565 10003 c-62 -8 -144 -37 -260 -90 -263 -121 -379 -203 -426
-301 -27 -55 -19 -87 31 -114 48 -27 131 -19 335 33 212 53 336 67 457 51 119
-15 168 -29 168 -47 0 -26 -68 -91 -158 -151 -48 -33 -130 -91 -183 -131 -110
-82 -213 -150 -237 -157 -10 -2 -29 -7 -43 -10 -64 -14 -35 -76 35 -76 59 1
102 24 266 141 80 57 179 127 220 154 134 91 218 196 203 253 -13 50 -168 106
-327 118 -107 9 -222 -7 -449 -62 -250 -60 -279 -55 -189 35 39 39 87 68 233
139 190 94 252 116 354 127 67 7 105 27 105 53 0 39 -36 48 -135 35z"/>
<path d="M10987 7999 c-13 -17 -12 -27 3 -77 10 -31 29 -120 43 -197 15 -77
35 -187 46 -245 30 -164 44 -330 43 -510 0 -154 -6 -212 -52 -525 -19 -130
-50 -280 -71 -347 -17 -55 -19 -71 -9 -83 30 -36 78 -2 105 75 22 60 68 307
97 515 29 213 30 544 4 750 -27 205 -95 594 -111 631 -12 29 -19 34 -49 34
-24 0 -39 -6 -49 -21z"/>
<path d="M11903 7055 c-54 -38 -208 -304 -298 -515 -51 -119 -183 -381 -251
-497 -212 -362 -308 -412 -409 -214 -21 42 -62 144 -146 366 -94 247 -213 473
-279 529 -34 28 -106 36 -128 14 -29 -29 6 -88 52 -88 60 0 213 -297 327 -631
56 -167 103 -269 142 -311 68 -73 192 -94 284 -47 29 15 66 47 93 81 103 128
271 439 400 738 34 80 109 237 167 350 70 138 102 211 98 223 -9 21 -24 22
-52 2z"/>
<path d="M24429 5997 c-18 -14 -14 -37 7 -37 8 0 14 10 14 25 0 29 0 28 -21
12z"/>
<path d="M24430 5911 c0 -10 -7 -24 -15 -31 -18 -15 -20 -57 -3 -62 9 -3 9
-12 -1 -36 -10 -24 -11 -35 -2 -46 8 -9 9 -28 2 -62 -5 -27 -10 -56 -10 -64
-3 -56 -10 -113 -19 -165 -7 -38 -8 -84 -3 -125 5 -36 6 -69 3 -75 -12 -20
-14 -100 -14 -680 0 -324 0 -639 0 -700 0 -60 0 -216 0 -345 0 -129 0 -244 0
-255 0 -11 -2 -128 -3 -260 -5 -315 -5 -359 1 -431 3 -47 1 -64 -11 -74 -12
-10 -13 -16 -4 -27 7 -7 12 -35 13 -61 1 -91 -12 -337 -19 -354 -4 -9 -3 -23
1 -30 7 -11 11 -80 16 -238 0 -8 -3 -41 -6 -74 -4 -33 -3 -63 3 -70 11 -13 7
-105 -7 -151 -5 -16 -5 -43 -1 -60 15 -53 18 -158 7 -219 -10 -51 -9 -63 8
-93 17 -33 17 -36 1 -48 -19 -14 -23 -40 -7 -50 11 -7 7 -286 -6 -342 -4 -19
-2 -38 4 -46 6 -7 9 -45 6 -97 -3 -47 -5 -118 -4 -159 0 -41 -5 -80 -11 -87
-7 -9 -8 -24 -3 -41 22 -78 23 -124 2 -142 -19 -16 -9 -31 23 -31 23 0 30 103
34 485 2 171 7 389 11 485 3 96 5 189 4 205 -1 17 -2 35 -1 40 0 6 3 249 5
540 14 1650 17 1993 22 2215 3 135 8 613 11 1063 4 742 3 817 -11 817 -9 0
-16 -8 -16 -19z"/>
<path d="M11595 4753 c-15 -16 -37 -48 -49 -73 -19 -42 -21 -61 -20 -305 0
-208 5 -314 27 -530 41 -403 47 -425 117 -446 36 -11 44 -10 68 8 43 32 66 73
132 240 77 194 150 353 162 353 5 0 15 -15 23 -34 27 -65 108 -368 162 -606 3
-14 10 -81 17 -150 l11 -125 31 -3 c57 -6 68 18 60 125 -16 235 -157 783 -222
871 -31 40 -75 43 -125 9 -57 -38 -148 -218 -230 -452 -17 -49 -38 -103 -46
-119 -14 -27 -16 -28 -26 -11 -5 10 -14 75 -18 144 -4 69 -15 214 -23 321 -17
214 -20 496 -7 603 6 47 17 80 35 106 14 20 26 46 26 57 0 50 -62 60 -105 17z"/>
<path d="M9366 4681 c-44 -29 -87 -89 -129 -178 -64 -137 -105 -307 -162 -678
-42 -275 -43 -277 -68 -112 -26 163 -103 507 -140 617 -34 104 -61 140 -104
140 -67 -1 -131 -74 -214 -245 -79 -162 -130 -305 -290 -810 -120 -383 -142
-471 -154 -638 -8 -110 4 -137 65 -137 21 0 42 6 47 13 4 6 9 62 10 124 1 61
9 153 19 205 14 80 107 425 134 498 5 14 25 79 46 145 37 120 141 416 188 532
40 102 110 213 134 213 15 0 28 -42 71 -220 131 -545 144 -617 143 -783 0
-133 0 -138 23 -153 15 -10 32 -13 50 -8 40 10 63 72 81 217 14 120 45 332 85
577 24 152 66 318 108 427 32 81 82 163 101 163 35 0 85 -297 141 -835 23
-223 47 -315 84 -315 15 0 38 34 29 43 -3 3 -12 126 -20 274 -28 514 -85 845
-160 920 -29 29 -78 30 -118 4z"/>
<path d="M12541 4470 c-74 -17 -94 -84 -33 -109 39 -16 78 -5 102 29 23 32 26
60 8 78 -13 13 -27 14 -77 2z"/>
<path d="M10267 4309 c-22 -13 -41 -52 -56 -115 -12 -48 -15 -52 -63 -74 -113
-51 -344 -264 -402 -371 -54 -99 -73 -266 -40 -349 20 -50 72 -80 140 -80 126
0 217 114 314 396 22 65 51 159 64 208 13 50 28 92 34 94 6 2 13 -14 17 -35
23 -154 67 -300 112 -364 20 -29 44 -78 53 -108 55 -181 194 -314 370 -355
122 -29 272 17 364 112 25 26 46 52 46 57 0 6 9 28 20 50 23 45 26 75 8 75 -7
0 -49 -39 -93 -87 -97 -106 -156 -137 -255 -138 -54 0 -77 6 -132 33 -79 39
-164 126 -206 211 -24 50 -27 67 -27 156 0 92 3 106 34 175 88 195 216 329
350 366 92 25 101 31 101 62 0 34 -16 52 -47 52 -36 0 -178 -55 -225 -88 -65
-45 -161 -152 -207 -231 -40 -68 -101 -208 -101 -231 0 -6 -6 -10 -12 -8 -8 3
-18 37 -24 79 -6 41 -20 128 -32 194 -11 66 -23 152 -27 190 -8 79 -27 135
-47 135 -7 0 -21 -5 -31 -11z m-110 -306 c-7 -40 -142 -393 -173 -455 -71
-139 -161 -189 -195 -106 -19 47 0 181 37 254 38 76 289 331 328 334 4 0 6
-12 3 -27z"/>
<path d="M14165 4046 c-74 -23 -171 -75 -217 -115 -98 -87 -110 -210 -37 -401
82 -215 224 -339 408 -356 85 -8 121 0 121 26 0 21 0 21 -105 41 -70 13 -113
36 -173 93 -82 77 -173 238 -149 262 3 3 15 0 28 -6 27 -15 175 -15 231 1 99
26 136 57 193 162 28 51 39 83 42 131 5 61 4 64 -30 103 -28 30 -50 43 -96 56
-71 20 -159 21 -216 3z m204 -92 c40 -33 40 -69 3 -149 -31 -64 -86 -121 -127
-131 -14 -3 -56 -3 -93 1 -90 9 -134 10 -152 5 -24 -8 -26 89 -2 143 15 34 35
54 91 91 93 61 103 65 183 65 57 1 71 -2 97 -25z"/>
<path d="M12597 3980 c-52 -41 -64 -182 -32 -378 18 -110 22 -123 42 -128 36
-9 57 0 72 31 12 25 12 41 1 100 -22 122 -23 180 -6 252 14 54 15 75 6 98 -19
49 -43 56 -83 25z"/>
<path d="M13125 3946 c-25 -23 -55 -144 -55 -219 0 -90 33 -147 86 -147 35 0
43 21 53 133 5 58 12 111 16 116 14 23 25 8 45 -61 97 -337 109 -369 162 -425
54 -56 171 -64 198 -14 16 30 -3 43 -53 36 l-45 -7 -28 47 c-15 26 -48 120
-74 209 -99 337 -107 350 -217 352 -54 1 -70 -3 -88 -20z"/>
<path d="M11692 2150 c-26 -25 -26 -19 -7 -63 20 -49 19 -149 -5 -292 -34
-210 -26 -415 27 -638 14 -60 23 -111 20 -113 -3 -3 -27 2 -54 12 -76 27 -156
23 -233 -13 -164 -77 -233 -162 -231 -283 0 -43 9 -72 41 -137 96 -194 276
-272 475 -204 136 46 270 124 383 223 55 48 135 142 145 172 8 22 18 -3 28
-68 27 -196 180 -351 404 -412 33 -9 110 -18 171 -21 250 -12 484 61 819 255
120 70 145 88 145 109 0 22 -34 15 -101 -20 -249 -131 -305 -158 -389 -190
-199 -76 -388 -97 -560 -61 -178 37 -321 140 -366 265 -55 154 -28 352 73 527
109 188 274 321 398 322 116 0 163 -84 153 -277 -10 -183 -67 -275 -203 -322
-39 -14 -94 -25 -124 -26 -43 -2 -59 -7 -73 -25 -13 -17 -15 -26 -8 -41 15
-26 123 -27 188 0 26 10 69 25 95 31 60 16 111 56 159 126 49 74 70 148 76
275 6 130 -12 201 -63 258 -77 85 -217 110 -328 59 -145 -68 -308 -234 -387
-393 -40 -80 -80 -214 -80 -265 0 -20 -10 -35 -37 -56 -21 -15 -78 -67 -128
-114 -133 -127 -264 -210 -415 -260 -80 -27 -145 -23 -217 14 -92 46 -166 172
-167 283 -1 55 2 65 28 91 33 35 170 108 221 118 93 17 177 -67 245 -244 34
-89 56 -108 106 -96 53 13 50 44 -14 170 -29 55 -49 114 -66 194 -86 399 -90
472 -49 803 23 189 25 224 14 265 -21 80 -63 104 -109 62z"/>
<path d="M10176 1624 c-146 -58 -349 -207 -536 -393 -130 -131 -219 -259 -256
-374 -25 -74 -28 -96 -28 -232 -1 -128 2 -160 21 -220 45 -144 141 -232 275
-254 89 -14 163 -1 173 30 11 32 -4 39 -78 37 -94 -2 -148 16 -201 66 -65 61
-88 132 -94 281 -9 238 48 373 247 588 50 53 227 203 306 258 117 82 163 106
230 119 60 13 105 45 105 75 0 15 -47 55 -64 54 -6 0 -51 -16 -100 -35z"/>
<path d="M10822 1255 c-40 -15 -104 -44 -142 -66 -38 -21 -74 -39 -79 -39 -22
0 -188 -166 -233 -232 -32 -47 -34 -61 -13 -78 20 -17 55 -3 86 34 l27 31 7
-60 c16 -141 59 -237 140 -314 42 -40 61 -51 100 -56 127 -20 219 18 326 134
56 59 83 100 135 205 96 195 105 271 43 353 -79 102 -251 140 -397 88z m226
-80 c79 -33 118 -93 107 -164 -21 -142 -167 -369 -280 -436 -145 -85 -287 65
-289 305 -1 75 2 91 25 130 34 56 49 70 124 109 138 72 234 89 313 56z"/>
<path d="M24351 48 c0 -7 3 -21 7 -30 9 -23 35 -7 30 18 -4 21 -38 33 -37 12z"/>
</g>
</svg>
