<?xml version="1.0" standalone="no"?>
<!DOCTYPE svg PUBLIC "-//W3C//DTD SVG 20010904//EN"
 "http://www.w3.org/TR/2001/REC-SVG-20010904/DTD/svg10.dtd">
<svg version="1.0" xmlns="http://www.w3.org/2000/svg"
 width="3264.000000pt" height="2448.000000pt" viewBox="0 0 3264.000000 2448.000000"
 preserveAspectRatio="xMidYMid meet">
<metadata>
Created by potrace 1.12, written by Peter Selinger 2001-2015
</metadata>
<g transform="translate(0.000000,2448.000000) scale(0.100000,-0.100000)"
fill="#000000" stroke="none">
<path d="M22502 24471 c2 -7 7 -12 11 -12 12 1 9 15 -3 20 -7 2 -11 -2 -8 -8z"/>
<path d="M22493 24394 c-8 -22 9 -69 26 -69 21 0 36 52 21 70 -16 20 -39 19
-47 -1z"/>
<path d="M22505 24300 c-7 -12 2 -30 16 -30 5 0 9 9 9 20 0 21 -15 27 -25 10z"/>
<path d="M310 24100 c0 -13 7 -20 18 -20 24 0 32 8 25 26 -8 22 -43 17 -43 -6z"/>
<path d="M490 24044 c0 -8 5 -12 10 -9 6 3 10 10 10 16 0 5 -4 9 -10 9 -5 0
-10 -7 -10 -16z"/>
<path d="M436 23953 c-11 -11 -6 -23 9 -23 8 0 15 4 15 9 0 13 -16 22 -24 14z"/>
<path d="M3730 23776 c0 -9 7 -16 16 -16 17 0 14 22 -4 28 -7 2 -12 -3 -12
-12z"/>
<path d="M265 23741 c-6 -11 9 -23 19 -14 9 9 7 23 -3 23 -6 0 -12 -4 -16 -9z"/>
<path d="M22360 23700 c-30 -30 -25 -46 29 -98 72 -70 74 -86 68 -412 -6 -275
-14 -345 -56 -460 -5 -14 -14 -45 -22 -70 -7 -25 -36 -94 -66 -154 -68 -139
-70 -170 -6 -129 29 19 123 157 123 180 0 8 6 27 14 41 8 15 20 47 27 72 6 25
18 54 24 65 26 43 44 125 49 225 11 194 9 573 -4 605 -17 45 -96 132 -130 144
-26 9 -34 7 -50 -9z"/>
<path d="M2540 23615 c0 -8 7 -15 15 -15 8 0 15 7 15 15 0 8 -7 15 -15 15 -8
0 -15 -7 -15 -15z"/>
<path d="M19753 23448 c-22 -30 -33 -129 -39 -358 -6 -253 -2 -294 32 -307 33
-13 40 22 52 266 7 132 17 252 22 266 15 40 12 77 -10 113 -21 33 -41 41 -57
20z"/>
<path d="M22220 23424 c-9 -24 -23 -134 -33 -272 -5 -68 -33 -100 -91 -104
l-41 -3 0 -45 c0 -38 3 -45 21 -48 11 -2 27 4 34 13 13 16 46 20 54 6 6 -9
-14 -162 -40 -310 -18 -99 -13 -126 21 -126 47 0 77 105 95 333 10 137 22 170
65 192 55 28 57 30 44 47 -7 8 -21 12 -30 10 -39 -10 -40 12 -12 230 9 76 -63
140 -87 77z"/>
<path d="M16102 23408 c-7 -7 -12 -20 -12 -31 0 -10 -11 -51 -24 -90 -37 -112
-47 -164 -47 -238 0 -72 12 -109 37 -109 19 0 41 52 59 143 8 39 28 112 45
162 l31 89 -28 40 c-32 45 -44 51 -61 34z"/>
<path d="M14744 23326 c-68 -76 -144 -174 -144 -185 0 -6 -13 -35 -30 -64 -72
-129 -126 -363 -110 -479 10 -73 37 -153 65 -199 30 -46 118 -125 169 -151 23
-11 66 -37 97 -58 84 -57 140 -83 151 -72 32 32 -36 99 -185 181 -96 53 -148
112 -183 209 -25 67 -26 81 -21 170 10 162 68 346 146 466 32 50 103 116 144
136 18 8 33 23 35 33 6 28 -27 57 -63 57 -26 0 -41 -9 -71 -44z"/>
<path d="M15590 23227 c-48 -23 -125 -71 -162 -101 -21 -17 -49 -40 -64 -51
-47 -37 -43 -155 5 -155 25 0 37 17 45 64 15 80 148 182 191 146 18 -15 20
-95 4 -137 -6 -15 -17 -57 -24 -93 -8 -36 -28 -117 -46 -180 -19 -70 -31 -139
-31 -176 -1 -64 19 -117 47 -128 27 -10 88 -6 130 9 22 8 47 15 56 15 14 0 66
25 204 98 31 16 65 60 65 83 0 10 -11 26 -25 35 -25 16 -26 15 -69 -22 -45
-40 -127 -94 -142 -94 -5 0 -27 -9 -48 -21 -21 -11 -57 -21 -80 -22 l-41 -2 0
75 c1 42 7 91 14 110 7 19 17 44 21 55 4 11 12 43 18 70 5 28 17 80 25 117 27
117 31 198 13 243 -31 72 -54 86 -106 62z"/>
<path d="M21258 23189 c-113 -59 -132 -87 -158 -238 -18 -107 -19 -126 -7
-140 8 -9 20 -32 26 -51 6 -19 20 -50 31 -67 19 -31 23 -33 78 -33 58 0 60 1
106 50 49 52 55 67 32 76 -15 6 -62 -19 -82 -42 -5 -7 -22 -16 -37 -19 -23 -6
-28 -3 -39 21 -6 16 -12 81 -12 145 -1 101 2 122 22 166 14 29 36 57 54 67 28
17 30 17 50 -1 27 -24 19 -80 -22 -161 -35 -70 -36 -79 -10 -87 38 -12 56 8
104 118 37 83 29 190 -17 222 -29 20 -31 20 -119 -26z"/>
<path d="M20636 23205 c-16 -16 -56 -117 -56 -141 0 -9 10 -18 21 -21 20 -6
21 -10 14 -62 -27 -212 -25 -241 18 -241 15 0 30 13 49 43 56 91 71 156 44
200 -8 13 -14 53 -14 100 -1 62 -6 84 -22 108 -24 33 -32 35 -54 14z"/>
<path d="M20837 23202 c-10 -10 -17 -24 -17 -31 0 -6 -6 -24 -14 -39 -7 -15
-16 -40 -20 -56 -7 -27 -5 -28 19 -22 29 8 27 21 29 -154 1 -117 4 -140 21
-170 17 -28 28 -36 55 -38 28 -2 43 5 73 33 52 50 50 69 -7 61 l-44 -7 -8 58
c-4 31 -4 113 -1 181 6 103 4 129 -10 155 -25 51 -49 59 -76 29z"/>
<path d="M20041 23155 c-29 -19 -61 -41 -70 -49 -10 -9 -25 -16 -34 -16 -22 0
-34 -25 -48 -103 -12 -64 -11 -68 16 -129 58 -130 89 -152 215 -150 84 1 85 2
118 37 37 40 38 60 6 82 -20 13 -26 11 -68 -22 -56 -43 -93 -45 -136 -8 -30
25 -32 29 -26 77 6 44 4 53 -15 69 -22 19 -22 41 0 98 12 33 57 47 79 25 13
-13 13 -22 4 -54 -7 -22 -19 -45 -27 -52 -19 -15 -20 -40 -2 -40 55 0 117 72
117 133 0 47 -27 115 -51 127 -21 12 -13 15 -78 -25z"/>
<path d="M1190 23170 c0 -5 4 -10 9 -10 6 0 13 5 16 10 3 6 -1 10 -9 10 -9 0
-16 -4 -16 -10z"/>
<path d="M17774 23121 c-147 -145 -244 -263 -244 -299 -1 -9 -7 -28 -15 -42
-19 -33 -19 -94 0 -158 13 -41 25 -59 58 -83 41 -30 44 -31 132 -27 91 5 169
31 188 64 4 8 13 14 19 14 7 0 22 10 35 22 23 21 25 21 73 6 45 -15 54 -15
112 1 138 37 251 122 294 219 57 129 2 238 -108 212 -24 -5 -71 -10 -105 -10
-83 0 -158 -33 -197 -86 -16 -21 -40 -49 -53 -60 -33 -28 -44 -90 -31 -172 11
-70 2 -86 -52 -97 -14 -3 -63 -14 -110 -25 -67 -16 -93 -18 -122 -10 -42 12
-49 27 -51 109 -1 48 4 69 36 130 77 148 144 221 206 221 23 0 51 25 51 46 0
19 -45 64 -63 64 -7 0 -31 -17 -53 -39z m571 -177 c14 -15 25 -32 25 -39 0
-16 -53 -96 -78 -118 -41 -37 -179 -107 -210 -107 -22 0 -23 3 -17 40 6 36 5
41 -19 50 -31 11 -32 28 -7 78 35 68 135 120 234 121 39 1 52 -4 72 -25z"/>
<path d="M19550 23125 c-19 -14 -40 -25 -46 -25 -6 0 -17 -7 -24 -15 -7 -8
-21 -15 -31 -15 -24 0 -155 -128 -164 -160 -3 -14 -10 -34 -15 -45 -54 -121
-76 -371 -45 -506 19 -81 42 -119 74 -119 41 0 46 24 53 249 9 276 20 411 35
436 23 39 99 103 130 110 18 3 41 1 52 -5 21 -11 21 -11 -5 -63 -25 -49 -60
-102 -111 -167 -62 -78 17 -90 88 -13 53 56 135 246 125 287 -8 33 -45 76 -64
76 -9 -1 -33 -12 -52 -25z"/>
<path d="M20392 23123 c-16 -31 -45 -261 -37 -301 9 -53 32 -84 58 -80 24 3
81 109 93 174 7 36 6 37 -20 32 -30 -6 -30 -6 -15 79 11 61 10 66 -12 89 -26
28 -55 31 -67 7z"/>
<path d="M21505 23096 c-15 -20 -29 -56 -34 -87 -5 -30 -16 -85 -25 -122 -24
-101 -21 -149 10 -186 14 -17 35 -31 46 -31 32 0 88 67 141 168 50 95 94 143
109 120 4 -7 8 -76 8 -153 0 -150 9 -188 47 -193 40 -6 44 24 41 257 -3 200
-5 221 -22 240 -33 36 -57 23 -99 -54 -21 -38 -50 -83 -66 -100 -15 -16 -47
-56 -70 -87 -24 -32 -48 -58 -54 -58 -19 0 -1 142 27 208 28 65 25 92 -10 106
-22 8 -20 10 -49 -28z"/>
<path d="M16457 23071 c-26 -15 -53 -35 -60 -43 -7 -8 -29 -26 -49 -42 -37
-26 -38 -29 -38 -89 0 -81 17 -107 69 -107 93 0 206 -22 244 -47 20 -14 37
-31 37 -37 0 -19 -47 -77 -82 -102 -18 -12 -49 -26 -69 -29 -33 -6 -39 -4 -58
24 -31 43 -58 41 -67 -4 -14 -75 21 -117 98 -117 49 -1 158 55 196 100 31 36
72 117 72 140 0 20 -46 113 -60 122 -4 3 -52 4 -107 3 -146 -2 -183 4 -183 31
0 33 52 97 101 126 53 31 68 54 53 78 -17 26 -44 24 -97 -7z"/>
<path d="M18917 23083 c-17 -20 -67 -116 -67 -130 0 -5 -13 -22 -30 -38 l-30
-29 0 36 c0 104 -78 144 -109 57 -18 -52 -14 -96 9 -102 18 -4 20 -14 20 -75
0 -54 4 -75 19 -93 16 -19 23 -22 38 -13 17 10 88 172 95 215 2 11 16 28 31
37 36 22 42 12 57 -83 18 -118 55 -173 87 -129 33 45 -14 292 -65 339 -32 30
-34 30 -55 8z"/>
<path d="M1306 23033 c-11 -11 -6 -23 9 -23 8 0 15 4 15 9 0 13 -16 22 -24 14z"/>
<path d="M18561 22966 c-8 -9 -12 -61 -13 -141 -1 -112 2 -130 19 -153 53 -71
98 -14 90 112 -8 108 -17 149 -40 174 -24 25 -40 28 -56 8z"/>
<path d="M12480 22936 c-12 -31 -6 -62 55 -301 55 -217 64 -285 41 -304 -22
-18 -20 -54 4 -76 24 -22 103 -16 129 9 15 16 15 18 -2 31 -14 10 -17 21 -11
49 10 58 34 80 76 72 19 -3 43 -12 53 -20 17 -12 17 -14 -2 -32 -11 -10 -30
-27 -42 -37 -12 -10 -19 -22 -15 -28 11 -18 86 2 126 34 51 41 53 84 4 133
-41 41 -65 43 -160 9 -39 -13 -71 -23 -73 -22 -3 3 -57 253 -78 355 -12 62
-56 141 -82 150 -7 2 -17 -8 -23 -22z"/>
<path d="M21040 22800 c0 -5 4 -10 9 -10 6 0 13 5 16 10 3 6 -1 10 -9 10 -9 0
-16 -4 -16 -10z"/>
<path d="M11750 22716 c0 -73 92 -425 138 -529 17 -38 26 -47 46 -47 14 0 26
3 27 8 0 4 2 76 3 160 2 118 -1 152 -11 152 -7 0 -18 -9 -25 -20 -7 -11 -16
-20 -20 -20 -9 0 -34 81 -57 188 -14 62 -29 103 -47 127 -39 51 -54 46 -54
-19z"/>
<path d="M9097 22723 c-28 -49 -6 -171 37 -212 40 -37 60 -25 64 37 3 46 -2
62 -33 118 -32 58 -56 77 -68 57z"/>
<path d="M13163 22703 c-26 -14 -43 -32 -43 -43 0 -9 -6 -23 -14 -29 -8 -7
-18 -31 -21 -54 -9 -55 -31 -107 -52 -122 -20 -15 -11 -61 15 -69 10 -4 28
-26 40 -51 21 -43 64 -76 79 -62 3 4 0 38 -7 75 l-13 69 47 48 c54 55 76 101
76 157 0 44 -21 93 -45 102 -9 3 -17 6 -18 5 -1 -1 -21 -12 -44 -26z m37 -121
c0 -20 -26 -60 -33 -52 -6 6 19 70 28 70 3 0 5 -8 5 -18z"/>
<path d="M13800 22723 c-8 -3 -33 -20 -55 -38 -22 -18 -49 -34 -60 -36 -17 -4
-21 -14 -23 -58 -4 -72 34 -151 92 -192 125 -89 145 -111 126 -134 -8 -10 -18
-10 -40 -2 -57 22 -84 -43 -34 -82 41 -32 94 -28 130 10 25 26 29 38 29 87 0
43 -6 65 -22 88 -20 27 -36 38 -114 74 -33 15 -69 77 -69 118 0 26 10 38 60
77 33 25 60 52 60 59 0 29 -40 44 -80 29z"/>
<path d="M13464 22673 c-68 -73 -105 -180 -105 -304 -1 -150 37 -264 85 -257
19 3 21 9 19 53 -1 28 -3 109 -4 182 -2 119 0 136 21 175 55 106 61 120 58
135 -2 9 -13 22 -25 30 -21 14 -24 13 -49 -14z"/>
<path d="M8760 22651 c-16 -31 -12 -66 22 -219 36 -161 35 -168 -28 -192 -68
-26 -113 -58 -120 -85 -15 -59 71 -91 100 -37 30 53 72 96 90 89 9 -4 18 -12
20 -19 27 -95 56 -141 81 -132 22 9 24 29 9 96 -8 34 -14 79 -12 98 3 34 4 35
57 42 44 5 63 2 95 -13 62 -30 80 -59 146 -239 7 -19 15 -60 18 -90 2 -30 9
-61 14 -67 29 -36 78 6 78 65 0 55 -30 162 -70 247 -42 91 -120 185 -153 185
-12 0 -60 -13 -107 -29 -47 -17 -89 -26 -93 -22 -11 11 -36 128 -47 214 -6 55
-13 75 -36 98 -32 34 -49 36 -64 10z"/>
<path d="M11595 22610 c-4 -7 -10 -78 -12 -159 -4 -139 -15 -204 -47 -270 -31
-66 -75 -45 -97 47 -10 43 -24 68 -58 105 l-45 49 -8 -27 c-9 -33 -2 -72 24
-147 27 -75 78 -135 124 -144 75 -14 127 34 170 157 23 62 27 92 28 191 1 113
0 118 -25 145 -15 15 -31 36 -36 47 -8 14 -12 15 -18 6z"/>
<path d="M9632 22488 c-5 -240 -32 -446 -57 -441 -14 3 -45 91 -65 186 -20 96
-56 157 -91 157 -39 0 -41 -42 -9 -159 54 -199 117 -337 159 -348 49 -12 63
18 90 187 6 41 21 122 33 180 11 58 23 139 25 180 4 70 2 77 -23 108 -47 56
-60 45 -62 -50z"/>
<path d="M754 22539 c-10 -17 13 -36 27 -22 12 12 4 33 -11 33 -5 0 -12 -5
-16 -11z"/>
<path d="M12007 22512 c-15 -17 -15 -21 8 -53 13 -20 33 -71 45 -115 12 -43
27 -90 34 -104 13 -28 47 -38 63 -18 9 10 18 89 22 196 1 6 7 12 15 12 16 0
56 -96 56 -135 0 -40 50 -185 71 -206 23 -23 47 -25 56 -2 4 9 -3 57 -15 107
-12 50 -26 116 -32 146 -15 79 -59 163 -93 174 -23 8 -31 6 -58 -20 -17 -16
-34 -38 -39 -49 -7 -18 -8 -18 -20 5 -19 38 -62 80 -80 80 -9 0 -24 -8 -33
-18z"/>
<path d="M6975 22493 c-15 -15 -17 -34 -10 -167 3 -83 11 -203 16 -266 5 -63
9 -144 9 -180 l-1 -65 -30 35 c-44 52 -186 345 -215 447 -35 120 -96 184 -133
139 -8 -9 -12 -115 -13 -347 -2 -294 0 -341 16 -391 22 -74 45 -99 72 -80 19
13 22 39 13 113 -5 41 -11 115 -13 164 -3 50 -8 144 -12 210 -7 122 -1 136 26
65 21 -55 116 -244 142 -282 13 -19 40 -60 60 -90 36 -54 90 -108 109 -108 21
0 48 42 55 85 3 26 4 142 1 258 -4 117 -7 261 -7 320 0 101 -2 109 -25 132
-29 29 -38 31 -60 8z"/>
<path d="M31350 22490 c0 -5 5 -10 10 -10 6 0 10 5 10 10 0 6 -4 10 -10 10 -5
0 -10 -4 -10 -10z"/>
<path d="M10035 22470 c-3 -5 -38 -19 -78 -31 -39 -12 -81 -28 -92 -35 -11 -8
-27 -14 -36 -14 -21 0 -59 -46 -59 -70 0 -10 -11 -25 -24 -33 -47 -32 -37
-141 26 -277 55 -120 120 -160 256 -160 76 0 145 34 150 72 5 38 -27 44 -80
17 -52 -27 -119 -26 -164 2 -56 34 -154 263 -136 317 9 27 32 12 32 -21 0 -38
15 -55 77 -86 72 -36 140 -24 206 38 44 41 58 74 51 123 -8 53 -25 87 -65 133
-31 35 -53 44 -64 25z m3 -115 c55 -46 54 -117 -1 -140 -51 -20 -97 -8 -139
37 -33 36 -35 43 -25 65 13 29 70 62 109 63 14 0 40 -11 56 -25z"/>
<path d="M10716 22458 c-34 -111 -38 -190 -11 -217 12 -12 19 -13 34 -4 17 11
20 6 31 -70 18 -121 47 -215 69 -222 27 -8 51 4 55 29 9 46 24 241 20 248 -10
16 -43 8 -49 -12 -11 -33 -22 -14 -34 57 -7 38 -16 85 -22 105 -17 64 -82 124
-93 86z"/>
<path d="M10946 22448 c-25 -35 -21 -93 7 -111 15 -10 27 -32 35 -67 7 -29 31
-94 54 -146 64 -147 149 -210 227 -170 51 27 54 96 4 104 -12 2 -24 -6 -33
-23 -8 -14 -21 -24 -29 -23 -34 7 -119 186 -156 331 -18 69 -55 127 -80 127
-8 0 -21 -10 -29 -22z"/>
<path d="M22510 22371 c0 -15 6 -21 21 -21 25 0 22 33 -4 38 -12 2 -17 -3 -17
-17z"/>
<path d="M8312 22314 c-12 -8 -26 -34 -33 -57 -10 -39 -9 -43 14 -62 35 -28
52 -118 42 -232 -7 -84 -9 -89 -45 -125 -37 -38 -62 -46 -89 -29 -20 13 -51
113 -53 174 -2 48 1 57 50 125 29 39 52 76 52 81 0 16 -28 20 -40 5 -7 -8 -18
-14 -24 -14 -22 0 -54 -44 -91 -125 -32 -70 -36 -86 -30 -129 9 -68 46 -137
92 -169 47 -32 65 -33 131 -6 40 17 55 30 75 68 15 26 29 66 33 89 4 23 10 44
14 47 3 2 23 -25 44 -61 38 -64 60 -84 91 -84 32 0 25 32 -33 152 -55 113
-102 243 -102 280 0 19 -35 65 -59 78 -13 6 -24 5 -39 -6z"/>
<path d="M7435 22307 c-11 -8 -41 -22 -67 -32 -27 -10 -48 -22 -48 -26 0 -5
-6 -9 -14 -9 -27 0 -115 -82 -127 -119 -7 -20 -21 -48 -32 -63 -27 -37 -16
-104 26 -160 39 -51 72 -62 187 -60 113 1 159 8 199 33 27 16 31 22 21 34 -16
19 -63 19 -120 -1 -86 -30 -194 -13 -218 34 -5 9 -12 36 -16 60 -6 37 -3 48
19 74 14 16 25 40 25 52 0 24 48 73 91 95 21 10 31 11 50 1 45 -24 59 -42 59
-79 0 -47 -20 -74 -76 -107 -38 -23 -49 -25 -70 -15 -41 18 -63 14 -70 -16 -6
-21 -2 -31 21 -51 25 -21 35 -23 79 -17 73 9 135 60 175 141 48 99 38 165 -32
218 -40 30 -37 30 -62 13z"/>
<path d="M10900 22274 c0 -8 5 -12 10 -9 6 3 10 10 10 16 0 5 -4 9 -10 9 -5 0
-10 -7 -10 -16z"/>
<path d="M7894 22251 c-18 -11 -45 -36 -60 -56 -16 -20 -52 -60 -80 -89 -69
-70 -80 -105 -57 -181 12 -38 27 -65 46 -79 26 -19 29 -19 70 -5 35 13 44 22
57 57 11 33 12 44 2 54 -9 9 -18 7 -42 -10 -16 -12 -32 -22 -36 -22 -14 0 6
130 25 167 24 47 73 79 90 59 6 -7 8 -16 5 -19 -13 -13 7 -57 26 -57 21 0 24
-18 35 -165 7 -106 25 -192 101 -470 13 -50 24 -96 24 -103 0 -7 -14 -11 -37
-9 -34 2 -38 -1 -41 -24 -2 -19 6 -34 33 -58 20 -17 42 -31 49 -31 26 0 65 41
72 74 7 41 -16 181 -50 296 -52 180 -79 316 -87 440 -9 143 -21 193 -54 226
-29 29 -50 30 -91 5z"/>
<path d="M21020 22155 c-38 -41 -81 -127 -107 -214 -38 -133 28 -439 102 -473
19 -8 28 -8 40 2 19 16 15 41 -25 155 -35 102 -52 226 -40 296 11 68 18 86 36
93 18 7 18 -4 -2 -53 -9 -22 -14 -59 -12 -87 3 -42 7 -50 34 -66 27 -16 41
-17 88 -10 69 11 87 0 112 -63 21 -57 14 -165 -16 -229 -34 -72 -77 -105 -150
-117 -35 -5 -75 -7 -89 -4 -16 3 -34 0 -46 -9 -34 -25 -8 -50 61 -60 53 -7 67
-5 132 20 100 39 138 73 179 160 28 63 33 83 33 151 0 91 -22 162 -63 206 -25
27 -29 28 -50 15 -13 -9 -38 -13 -63 -10 -24 2 -45 -1 -48 -7 -4 -6 -17 -11
-28 -11 -18 0 -20 4 -15 38 4 20 12 57 18 82 6 25 13 71 16 102 4 48 1 63 -17
88 -26 36 -49 38 -80 5z"/>
<path d="M22520 22080 c0 -5 5 -10 10 -10 6 0 10 5 10 10 0 6 -4 10 -10 10 -5
0 -10 -4 -10 -10z"/>
<path d="M20503 22048 c-31 -15 -151 -160 -164 -198 -7 -18 -8 -53 -4 -87 6
-46 13 -63 40 -90 l33 -33 98 1 c85 1 104 -2 137 -21 20 -12 37 -27 37 -33 0
-24 -114 -120 -176 -148 -76 -35 -81 -35 -103 -7 -17 20 -21 21 -52 8 -19 -7
-43 -23 -54 -34 -53 -58 -188 -119 -290 -132 -41 -5 -55 -2 -76 15 -39 30 -42
99 -17 325 19 176 20 191 4 222 -21 45 -44 54 -67 25 -14 -17 -18 -40 -18
-109 0 -48 -5 -112 -11 -142 -6 -30 -11 -108 -11 -172 -1 -135 12 -169 79
-208 37 -22 123 -30 212 -18 47 6 132 50 202 104 56 44 58 45 87 29 32 -16 63
-20 74 -8 4 3 29 14 56 24 116 40 237 161 248 248 7 53 -32 107 -73 103 -108
-12 -183 -12 -219 0 -39 13 -40 14 -43 65 -4 61 7 81 85 165 55 58 68 100 37
112 -20 8 -24 7 -51 -6z"/>
<path d="M1965 21970 c3 -5 10 -10 16 -10 5 0 9 5 9 10 0 6 -7 10 -16 10 -8 0
-12 -4 -9 -10z"/>
<path d="M22510 21710 c0 -15 5 -20 18 -18 9 2 17 10 17 18 0 8 -8 16 -17 18
-13 2 -18 -3 -18 -18z"/>
<path d="M22846 21581 c-4 -5 -2 -12 3 -15 5 -4 12 -2 15 3 4 5 2 12 -3 15 -5
4 -12 2 -15 -3z"/>
<path d="M1090 21510 c0 -5 5 -10 11 -10 5 0 7 5 4 10 -3 6 -8 10 -11 10 -2 0
-4 -4 -4 -10z"/>
<path d="M19800 21205 c-15 -18 -15 -73 0 -140 7 -27 18 -84 25 -125 7 -41 27
-144 44 -229 22 -110 33 -197 37 -300 7 -154 13 -181 44 -181 37 0 45 36 45
205 -1 139 -5 181 -33 320 -18 88 -41 207 -53 265 -26 138 -36 167 -62 185
-27 19 -31 19 -47 0z"/>
<path d="M9376 21143 c-4 -4 -26 -9 -49 -10 -50 -3 -146 -31 -167 -48 -8 -7
-25 -16 -37 -19 -47 -15 -25 -148 46 -282 23 -43 58 -101 79 -128 20 -27 42
-57 48 -67 5 -10 31 -41 57 -70 26 -29 47 -56 47 -59 0 -4 -19 -10 -42 -14
-46 -8 -68 -21 -68 -42 0 -9 11 -14 33 -14 60 0 167 50 167 78 0 9 -19 55 -43
102 -36 73 -47 87 -76 96 -19 6 -43 22 -54 35 -31 37 -117 220 -123 261 -6 33
-3 41 29 73 31 31 41 35 85 35 45 0 53 -4 82 -36 30 -35 32 -40 25 -92 -4 -30
-12 -65 -17 -78 -8 -17 -8 -27 2 -39 16 -19 34 -19 107 0 86 23 110 20 144
-17 35 -39 47 -92 29 -122 -8 -12 -25 -42 -38 -69 -16 -31 -37 -53 -58 -63
-38 -18 -49 -30 -58 -61 -12 -38 34 -29 101 21 89 65 121 119 137 229 9 58
-15 114 -69 167 l-34 33 -21 -26 c-22 -28 -43 -32 -100 -21 -30 7 -32 9 -26
42 8 53 -14 120 -57 168 -36 41 -64 54 -81 37z"/>
<path d="M19078 21064 c-13 -13 -47 -19 -150 -25 -158 -10 -287 -31 -299 -50
-14 -22 -10 -65 6 -79 13 -11 29 -8 93 18 50 21 94 32 127 32 28 1 75 7 106
14 47 11 61 11 88 0 45 -19 47 -37 12 -91 -17 -27 -39 -61 -49 -76 -16 -27
-132 -183 -202 -272 -17 -22 -52 -71 -77 -110 -25 -38 -58 -85 -74 -103 -23
-25 -29 -42 -29 -77 0 -92 28 -120 133 -131 70 -7 233 11 243 28 3 4 15 8 27
8 57 1 220 78 232 109 3 8 -1 21 -9 29 -13 13 -20 13 -58 -3 -171 -70 -411
-115 -457 -86 -10 7 -12 22 -8 60 6 50 12 61 127 230 14 20 48 64 75 97 28 34
66 82 85 108 19 26 44 59 56 74 49 63 104 167 104 196 0 17 -10 47 -21 66 -33
54 -53 62 -81 34z"/>
<path d="M17636 20992 c-55 -19 -69 -39 -112 -159 -18 -53 -25 -99 -30 -203
-4 -74 -12 -153 -20 -174 -10 -32 -10 -44 0 -65 8 -15 16 -82 19 -161 6 -129
16 -210 38 -292 7 -28 15 -38 30 -38 25 0 33 22 32 90 -16 636 -10 747 48 868
25 51 36 64 60 69 36 7 47 37 23 64 -20 22 -24 22 -88 1z"/>
<path d="M8763 20985 c-20 -9 -40 -29 -54 -56 -12 -24 -31 -56 -42 -71 -19
-25 -20 -33 -9 -89 13 -73 51 -132 95 -151 38 -16 187 -14 228 2 22 10 34 8
68 -9 23 -12 41 -27 42 -34 4 -48 -8 -131 -27 -186 -3 -10 -16 -1 -40 28 -47
55 -74 55 -74 0 0 -64 39 -118 86 -119 66 0 108 56 124 168 18 127 15 154 -29
203 -37 42 -39 43 -62 28 -18 -12 -54 -16 -152 -16 -123 -1 -129 0 -143 22 -8
13 -16 47 -17 77 -2 45 3 60 30 100 39 58 48 85 33 103 -15 18 -16 18 -57 0z"/>
<path d="M8054 20748 c-9 -17 -20 -45 -25 -60 -9 -33 5 -221 27 -353 8 -49 21
-127 28 -173 14 -86 34 -122 67 -122 10 0 26 11 35 25 16 24 16 32 -4 128 -52
250 -76 424 -63 440 8 8 61 -68 169 -243 90 -145 152 -229 174 -236 29 -9 57
5 64 32 8 32 3 56 -39 192 -20 62 -38 132 -42 155 l-6 42 108 -111 c135 -138
176 -166 234 -162 36 2 46 8 56 29 15 30 0 97 -23 106 -19 7 -44 -15 -44 -38
0 -11 -6 -19 -12 -19 -7 0 -90 79 -185 175 -94 96 -179 175 -188 175 -9 0 -23
-16 -31 -37 -16 -37 -14 -85 6 -163 25 -93 40 -163 37 -167 -2 -2 -41 57 -86
132 -87 142 -163 252 -189 273 -27 21 -51 14 -68 -20z"/>
<path d="M17206 20703 c-25 -19 -46 -39 -46 -44 0 -4 -9 -11 -20 -14 -37 -12
-50 -34 -50 -86 0 -28 7 -63 15 -79 39 -76 209 -119 310 -77 22 9 36 17 30 18
-5 1 -14 2 -20 3 -5 1 -23 8 -40 17 -16 9 -56 19 -88 22 -80 8 -107 27 -107
76 0 46 30 88 77 108 39 16 51 37 32 59 -29 35 -45 35 -93 -3z"/>
<path d="M15820 20596 c-14 -8 -41 -17 -60 -21 -42 -9 -88 -31 -115 -55 -11
-10 -49 -34 -85 -53 l-65 -34 0 -59 0 -59 55 -27 c30 -15 65 -28 78 -28 20 0
21 3 12 20 -6 12 -22 25 -34 30 -37 14 -42 57 -11 102 15 22 82 68 99 68 7 0
44 13 82 28 38 16 81 32 95 35 15 4 37 16 50 27 21 17 22 21 9 30 -21 14 -80
12 -110 -4z"/>
<path d="M16092 20563 c-12 -10 -40 -61 -63 -113 -23 -52 -50 -106 -59 -120
-10 -14 -20 -36 -21 -50 -4 -22 -10 -26 -54 -30 -62 -6 -73 -31 -26 -58 17 -9
31 -20 31 -24 0 -14 -70 -179 -85 -200 -33 -49 -13 -178 36 -222 29 -26 36
-28 98 -24 151 9 303 131 318 257 7 61 -18 140 -59 187 -28 31 -35 34 -88 34
-33 0 -61 -4 -64 -9 -3 -4 14 -26 38 -48 47 -42 79 -97 89 -150 9 -46 -40
-106 -128 -160 -110 -66 -149 -58 -159 34 -5 50 -1 71 29 158 19 55 35 110 35
122 0 13 11 33 25 45 14 12 25 29 25 37 0 9 9 31 20 49 11 18 20 39 20 46 0
23 50 103 96 155 38 42 43 53 35 69 -19 35 -58 41 -89 15z"/>
<path d="M12643 20407 c-25 -18 -62 -34 -90 -38 -63 -11 -155 -33 -168 -40 -5
-3 -22 -9 -37 -13 -42 -10 -53 -76 -16 -99 12 -8 24 -5 50 14 43 33 114 69
135 69 9 0 24 6 32 14 10 8 44 16 86 18 65 3 70 2 73 -19 2 -15 -13 -37 -53
-76 -54 -52 -57 -58 -62 -114 -8 -92 7 -97 187 -59 184 38 236 44 276 30 44
-15 55 -30 47 -64 -8 -35 -80 -166 -109 -198 -14 -15 -39 -48 -57 -73 -18 -26
-69 -93 -114 -149 -46 -56 -83 -106 -83 -109 0 -4 6 -15 13 -25 19 -26 49 -13
87 37 17 23 50 68 73 99 23 31 76 101 117 155 104 137 119 159 141 215 20 52
25 114 10 137 -11 17 -3 41 13 41 6 0 22 7 35 16 29 21 91 27 127 14 24 -10
26 -14 20 -50 -3 -22 -27 -81 -52 -131 -44 -87 -46 -96 -40 -148 8 -69 25 -96
71 -111 36 -12 39 -12 185 22 88 21 131 63 98 96 -20 20 -63 14 -124 -18 -40
-22 -69 -30 -93 -28 l-36 3 1 70 c1 59 8 84 43 161 22 51 41 104 41 118 0 50
-57 136 -89 136 -9 0 -29 -16 -44 -35 -18 -23 -36 -35 -52 -35 -13 0 -27 -5
-31 -11 -4 -7 -34 -10 -82 -8 -77 4 -77 4 -91 -26 -20 -43 -28 -46 -102 -39
-66 6 -121 -2 -218 -32 -25 -8 -51 -14 -58 -14 -19 0 -16 30 5 65 11 17 22 47
26 68 4 21 20 53 36 71 37 42 38 70 4 101 -36 34 -78 31 -131 -8z"/>
<path d="M14294 20429 c-10 -17 -5 -312 7 -404 18 -136 75 -251 139 -281 122
-59 269 1 318 131 31 80 28 112 -11 159 -22 26 -39 37 -48 33 -35 -17 -104
-75 -104 -88 0 -8 20 -20 47 -29 26 -8 49 -18 53 -22 10 -10 -23 -67 -58 -98
-41 -37 -93 -46 -141 -26 -40 17 -42 22 -21 62 16 32 4 58 -25 49 -9 -3 -22 0
-28 7 -22 28 -35 137 -34 280 l1 147 -35 45 c-36 47 -48 54 -60 35z"/>
<path d="M13937 20356 c-22 -20 -26 -35 -32 -110 -14 -162 13 -369 63 -496 44
-112 86 -165 120 -153 14 5 16 64 3 79 -5 5 -23 54 -41 109 -36 114 -54 257
-48 387 3 73 8 92 26 111 27 28 28 58 4 80 -26 24 -65 21 -95 -7z"/>
<path d="M12300 20360 c0 -5 5 -10 11 -10 5 0 7 5 4 10 -3 6 -8 10 -11 10 -2
0 -4 -4 -4 -10z"/>
<path d="M11436 20210 c-16 -5 -40 -19 -53 -32 -49 -45 -56 -74 -62 -235 -3
-83 -8 -154 -11 -157 -7 -7 -160 -37 -221 -43 -52 -5 -51 -7 -75 85 -16 59
-11 93 29 190 13 34 30 57 46 65 31 15 37 39 16 61 -29 28 -70 20 -104 -21
-33 -40 -91 -198 -91 -246 0 -41 28 -128 48 -153 58 -69 180 -73 295 -10 38
20 72 34 77 31 5 -3 14 -29 20 -58 17 -81 55 -157 80 -157 11 0 23 7 27 16 3
8 -4 68 -16 133 -17 87 -22 154 -22 251 1 154 13 187 71 206 38 12 51 44 30
70 -14 15 -40 17 -84 4z"/>
<path d="M9070 19981 c-46 -29 -123 -105 -155 -154 -13 -20 -16 -40 -13 -76 6
-60 36 -104 97 -142 44 -28 131 -124 131 -144 0 -6 -7 -21 -16 -34 -39 -55 13
-250 78 -295 52 -36 135 -5 164 61 11 28 14 57 11 108 -7 101 -40 161 -108
196 -33 17 -37 22 -41 70 -8 82 39 226 81 248 23 13 28 50 9 69 -18 18 -63 15
-88 -6 -16 -13 -29 -48 -50 -139 -15 -67 -31 -126 -34 -131 -8 -13 -83 28
-114 61 -14 15 -25 42 -28 73 -6 47 -4 52 39 109 25 34 58 67 72 75 35 19 50
47 34 66 -15 19 -17 18 -69 -15z m185 -583 c41 -64 48 -104 32 -170 -7 -28
-35 -44 -50 -29 -20 20 -50 118 -55 174 -7 107 15 115 73 25z"/>
<path d="M10467 19979 c-26 -20 -97 -145 -97 -170 0 -6 -9 -22 -20 -36 -11
-14 -20 -34 -20 -45 0 -10 -16 -65 -35 -122 -42 -126 -44 -165 -7 -237 23 -46
35 -58 85 -83 56 -28 59 -28 120 -16 34 7 66 17 72 21 5 5 17 9 28 9 17 0 78
28 176 81 24 13 68 51 99 84 104 112 115 153 57 204 -20 17 -41 31 -48 31 -17
0 -110 -55 -126 -74 -7 -9 -19 -16 -27 -16 -7 0 -16 -9 -19 -20 -3 -11 -15
-20 -26 -20 -10 0 -19 -7 -19 -15 0 -20 29 -19 37 1 3 8 11 13 18 10 7 -2 21
1 31 8 11 7 35 16 54 19 19 3 43 8 52 12 12 5 20 2 24 -9 18 -48 -200 -216
-313 -241 -49 -10 -43 13 22 81 53 55 64 83 39 91 -18 6 -120 -87 -154 -139
-19 -31 -37 -48 -49 -48 -29 0 -57 42 -71 109 -14 69 -12 81 78 324 24 63 35
78 115 152 27 24 28 28 14 48 -19 30 -57 33 -90 6z"/>
<path d="M8675 19900 c-14 -22 -32 -40 -39 -40 -33 0 -221 -71 -243 -92 -28
-26 -28 -75 -1 -91 12 -8 24 -5 51 16 19 14 61 40 93 57 32 17 71 40 86 52 22
18 33 20 60 12 30 -9 33 -13 36 -54 2 -26 -6 -74 -18 -115 -37 -121 -99 -303
-109 -322 -43 -80 -51 -160 -26 -247 22 -75 51 -94 152 -98 83 -3 107 4 218
60 90 45 115 63 115 83 0 31 -28 34 -84 9 -28 -12 -71 -29 -96 -37 -25 -8 -59
-21 -76 -29 -17 -9 -49 -14 -74 -12 -40 3 -44 6 -58 43 -30 85 -21 138 68 385
50 139 87 312 76 355 -8 31 -73 105 -92 105 -8 0 -25 -18 -39 -40z"/>
<path d="M7839 19723 c-34 -85 41 -485 118 -638 42 -83 107 -155 140 -155 32
0 40 27 18 64 -93 158 -105 185 -136 311 -36 150 -44 278 -19 333 14 32 14 35
-9 53 -13 11 -30 17 -38 14 -7 -3 -20 -8 -28 -11 -11 -5 -15 1 -15 25 0 38
-17 40 -31 4z"/>
<path d="M19900 19661 c-19 -11 -60 -32 -90 -46 -115 -54 -125 -60 -134 -88
-8 -21 -6 -31 7 -44 16 -16 18 -16 44 3 46 34 85 51 136 58 48 7 48 7 36 -16
-7 -13 -47 -62 -90 -109 -114 -128 -114 -127 -114 -239 0 -77 5 -106 24 -155
40 -100 95 -147 196 -166 49 -9 61 -7 132 21 66 25 92 42 154 102 95 91 150
173 182 269 36 106 42 173 23 247 -15 61 -53 133 -78 148 -16 10 -65 14 -228
18 -69 2 -134 6 -145 10 -12 4 -34 -1 -55 -13z m298 -70 c99 -19 141 -107 117
-245 -20 -118 -70 -209 -164 -299 -96 -92 -153 -121 -222 -115 -67 7 -91 32
-118 121 -23 80 -26 133 -10 190 13 48 83 157 139 217 50 54 60 71 60 103 0
13 3 27 7 30 9 10 139 8 191 -2z"/>
<path d="M18774 19575 c-20 -31 -15 -53 18 -78 l28 -21 25 24 c23 22 29 23
127 17 57 -3 119 -12 138 -20 77 -33 120 -114 120 -224 0 -147 -169 -336 -359
-402 -97 -33 -176 -24 -223 26 -31 34 -68 131 -68 178 0 82 59 178 154 252 37
28 46 42 44 61 -7 56 -68 54 -120 -5 -18 -20 -61 -66 -94 -102 -34 -37 -67
-83 -74 -104 -19 -60 -9 -162 23 -232 53 -113 117 -156 242 -163 71 -4 89 -1
150 23 142 56 314 200 377 315 64 114 61 213 -8 352 -34 67 -109 120 -128 89
-3 -4 -29 0 -58 9 -33 11 -100 20 -176 23 -121 5 -123 5 -138 -18z"/>
<path d="M17433 19398 c-6 -7 -17 -30 -24 -51 -9 -27 -23 -43 -44 -51 -44 -19
-155 -147 -195 -226 -34 -66 -32 -173 4 -262 49 -120 137 -194 252 -211 46 -8
129 16 198 57 96 56 239 211 264 287 38 112 -17 309 -117 417 -30 32 -66 42
-73 20 -3 -9 -28 -8 -104 4 -54 9 -111 19 -125 23 -16 4 -29 2 -36 -7z m219
-78 c73 -21 136 -130 153 -265 13 -104 -62 -223 -199 -319 -78 -54 -107 -66
-159 -66 -69 0 -119 39 -157 122 -63 135 -55 210 33 344 59 91 73 102 131 106
50 3 53 6 75 61 9 23 16 27 48 27 21 0 55 -5 75 -10z"/>
<path d="M7650 19303 c-64 -30 -68 -32 -139 -74 -50 -28 -81 -37 -208 -55 -50
-8 -88 -42 -78 -73 9 -29 35 -33 101 -16 32 8 73 15 92 15 32 0 84 23 146 65
16 11 50 29 75 40 116 51 149 83 119 113 -18 18 -48 14 -108 -15z"/>
<path d="M16088 19224 c-15 -8 -30 -25 -33 -37 -4 -13 -47 -63 -97 -112 -196
-192 -231 -252 -232 -389 -1 -87 1 -95 40 -177 70 -146 148 -199 288 -199 86
0 173 45 281 144 69 62 91 91 124 156 23 46 42 102 46 132 17 135 -50 363
-117 399 -16 9 -26 7 -49 -10 -18 -14 -30 -17 -35 -10 -4 6 -19 8 -36 5 -30
-6 -30 -5 -24 25 8 42 -8 66 -52 79 -49 13 -72 12 -104 -6z m130 -110 c5 -8
28 -18 51 -21 78 -11 125 -102 138 -271 10 -134 -22 -218 -121 -315 -64 -64
-94 -82 -181 -111 -56 -18 -140 -11 -171 15 -48 39 -104 172 -104 243 1 114
48 213 164 344 86 96 92 100 120 73 12 -12 27 -21 32 -21 21 0 56 42 51 61 -6
23 9 25 21 3z"/>
<path d="M22970 19059 c0 -11 4 -18 10 -14 5 3 7 12 3 20 -7 21 -13 19 -13 -6z"/>
<path d="M14444 19058 c-23 -11 -44 -47 -44 -75 0 -9 12 -29 26 -44 l25 -27
-34 -21 c-51 -31 -138 -137 -148 -179 -26 -111 -1 -254 65 -371 68 -119 101
-142 227 -155 53 -5 62 -3 155 44 78 40 113 65 164 119 132 137 166 262 122
439 -24 93 -54 150 -116 216 -47 51 -61 56 -69 25 -4 -17 -9 -19 -24 -10 -11
5 -57 11 -103 13 -71 2 -85 0 -88 -13 -2 -12 13 -18 68 -28 161 -29 224 -99
251 -281 21 -148 -3 -221 -107 -322 -51 -50 -86 -74 -133 -93 -76 -31 -145
-41 -182 -27 -49 19 -139 215 -139 301 0 117 70 260 138 282 21 6 43 16 50 22
19 15 14 53 -10 70 -20 13 -21 18 -10 36 19 33 14 50 -20 71 -37 23 -35 22
-64 8z"/>
<path d="M13089 18914 c-18 -20 -47 -43 -63 -51 -77 -40 -228 -228 -285 -354
-55 -120 7 -381 118 -502 99 -107 298 -106 443 1 77 57 193 183 225 244 25 48
28 63 28 153 0 93 -2 105 -32 165 -55 111 -157 220 -207 220 -23 0 -115 42
-116 53 0 4 7 7 15 7 24 0 38 36 24 63 -17 31 -28 37 -75 37 -33 0 -46 -6 -75
-36z m56 -104 c3 -5 36 -30 73 -54 122 -83 172 -133 211 -216 31 -67 35 -84
36 -160 0 -73 -3 -90 -25 -124 -72 -117 -192 -215 -294 -240 -144 -37 -203 -9
-266 125 -70 150 -65 331 12 458 25 41 122 165 155 199 23 23 86 31 98 12z"/>
<path d="M11004 18863 c-14 -52 22 -301 66 -463 11 -41 31 -122 45 -180 14
-58 32 -127 40 -155 8 -27 17 -62 21 -77 7 -33 29 -52 49 -44 30 11 7 219 -44
394 -46 159 -73 299 -76 393 -3 96 -3 98 -36 128 -42 38 -57 39 -65 4z"/>
<path d="M8626 18644 c-14 -105 -7 -253 29 -589 9 -77 24 -237 35 -355 24
-269 41 -343 82 -356 39 -12 41 7 24 178 -9 90 -16 190 -16 223 0 33 -10 139
-21 235 -15 122 -21 246 -23 410 l-2 236 -33 32 c-49 46 -67 42 -75 -14z"/>
<path d="M16977 17293 c-11 -11 -8 -104 7 -179 10 -55 11 -96 4 -175 -21 -225
-8 -827 19 -939 20 -80 30 -100 48 -100 34 0 37 36 29 329 -11 368 -11 579 0
716 13 159 3 229 -41 299 -34 53 -51 65 -66 49z"/>
<path d="M19960 17281 c0 -6 5 -13 10 -16 6 -3 10 1 10 9 0 9 -4 16 -10 16 -5
0 -10 -4 -10 -9z"/>
<path d="M20731 17236 c-8 -10 -10 -30 -6 -59 6 -38 2 -54 -30 -117 -38 -76
-154 -259 -187 -296 -27 -30 -26 -118 1 -172 22 -44 87 -94 136 -106 17 -5 64
-10 105 -12 128 -6 150 -12 150 -40 0 -13 -9 -47 -19 -75 -21 -55 -19 -79 9
-79 23 0 35 16 49 70 7 25 17 65 24 90 12 45 27 58 91 77 37 10 56 37 38 55
-9 9 -19 8 -46 -4 -19 -9 -36 -14 -39 -11 -3 2 1 26 8 51 7 26 15 77 19 115 3
37 10 84 15 105 6 20 20 82 32 136 13 56 30 107 40 117 24 24 37 52 32 67 -3
7 -22 21 -43 32 -21 10 -40 27 -44 36 -11 28 -32 -1 -49 -68 -13 -55 -37 -163
-68 -303 -4 -22 -11 -95 -15 -161 l-7 -121 -46 -17 c-39 -14 -59 -15 -119 -6
-71 10 -143 38 -158 61 -4 6 -9 35 -11 64 -6 65 6 93 97 230 137 208 152 250
106 281 -14 8 -26 27 -28 41 -4 31 -20 39 -37 19z"/>
<path d="M19965 17203 c-44 -23 -72 -51 -118 -118 -68 -98 -161 -277 -187
-360 -7 -22 -16 -51 -21 -65 -20 -64 -31 -169 -26 -246 4 -65 12 -98 36 -151
49 -104 80 -131 178 -152 48 -10 60 -8 136 18 133 45 230 119 277 212 28 54
25 84 -18 164 -31 58 -42 71 -65 73 -25 3 -27 1 -25 -30 l3 -33 -70 -5 c-98
-8 -192 -45 -216 -84 -11 -17 -18 -42 -17 -56 5 -40 35 -37 74 9 29 33 48 44
106 61 76 23 108 19 143 -20 40 -45 -22 -132 -138 -195 -54 -30 -83 -39 -136
-43 -60 -4 -70 -2 -93 19 -28 26 -72 138 -83 210 -8 58 16 195 60 339 20 65
127 281 163 328 13 18 36 35 51 38 54 11 71 23 71 48 0 14 -9 32 -22 40 -27
19 -25 19 -63 -1z"/>
<path d="M15815 17090 c-19 -21 -14 -50 9 -50 19 0 40 36 32 56 -7 19 -20 18
-41 -6z"/>
<path d="M16137 17103 c-4 -3 -7 -21 -7 -39 0 -18 -5 -36 -11 -40 -6 -3 -8
-16 -5 -28 3 -13 1 -38 -5 -57 -6 -19 -10 -104 -10 -188 1 -172 -6 -194 -59
-206 -37 -8 -131 27 -172 63 -63 57 -49 180 40 350 20 39 9 65 -30 70 -32 4
-63 -36 -74 -93 -10 -57 -33 -108 -55 -123 -14 -10 -19 -25 -19 -62 0 -60 11
-90 56 -156 49 -71 111 -100 208 -97 103 4 106 2 106 -65 0 -59 31 -197 48
-214 6 -6 18 -8 28 -6 20 4 23 43 16 253 -2 50 -2 167 0 260 3 153 5 174 26
213 34 66 25 102 -26 102 -18 0 -22 4 -17 19 11 35 -16 66 -38 44z"/>
<path d="M15315 17021 c-24 -10 -166 -146 -188 -181 -9 -14 -23 -74 -31 -135
-9 -60 -21 -145 -28 -188 -44 -285 168 -501 437 -447 54 10 165 70 165 89 0 3
16 23 35 44 58 63 79 113 80 187 0 51 -6 76 -25 114 -34 65 -52 77 -82 49 -13
-11 -41 -26 -63 -33 -49 -16 -114 -56 -121 -75 -3 -8 -15 -17 -26 -21 -11 -3
-29 -25 -40 -47 -10 -23 -36 -71 -57 -107 -30 -51 -38 -72 -34 -97 6 -36 -3
-41 -40 -22 -35 18 -67 51 -67 69 0 9 -9 25 -20 35 -29 26 -60 118 -60 176 0
49 6 97 36 283 20 129 60 187 162 240 33 17 41 43 20 64 -14 14 -25 14 -53 3z
m380 -579 c20 -30 24 -46 19 -73 -8 -39 -45 -114 -71 -144 -46 -53 -153 -105
-216 -105 -27 0 -27 -2 2 105 31 110 157 255 223 255 10 0 29 -17 43 -38z"/>
<path d="M13927 16873 c-12 -11 -7 -104 8 -193 25 -136 30 -226 15 -235 -8 -5
-35 -8 -62 -7 -39 1 -50 -3 -59 -20 -10 -18 -8 -24 7 -35 10 -7 25 -11 34 -7
82 34 105 26 115 -39 15 -102 40 -197 67 -265 26 -62 34 -73 52 -70 32 5 31
41 -3 196 -17 75 -36 171 -42 212 -6 41 -15 102 -20 135 -5 33 -12 107 -15
165 -6 100 -8 106 -38 137 -31 32 -47 39 -59 26z"/>
<path d="M11102 16837 c-7 -8 -6 -50 4 -137 7 -69 14 -156 14 -195 1 -121 28
-355 54 -475 16 -70 42 -148 66 -198 34 -72 43 -83 62 -80 34 5 34 43 -2 148
-17 51 -37 131 -45 179 -18 106 -42 451 -44 616 -1 57 -4 64 -44 108 -46 51
-50 53 -65 34z"/>
<path d="M11797 16733 c-2 -5 -7 -20 -11 -35 -5 -20 -17 -30 -53 -43 -116 -42
-172 -73 -179 -99 -3 -14 -3 -30 1 -35 13 -21 62 -11 106 22 68 52 83 58 126
49 36 -8 38 -10 35 -43 -1 -19 -28 -88 -58 -154 -31 -66 -66 -145 -77 -175
-12 -30 -29 -61 -39 -68 -23 -16 -24 -70 -3 -140 11 -37 27 -61 58 -87 l42
-37 90 4 c82 4 96 8 158 42 75 42 177 130 177 152 0 24 -30 28 -64 8 -17 -10
-53 -35 -81 -56 -71 -54 -148 -81 -209 -74 -26 3 -54 10 -61 16 -7 5 -15 36
-18 68 -8 73 9 131 91 307 64 139 88 228 72 271 -27 69 -88 133 -103 107z"/>
<path d="M12474 16666 c-29 -13 -172 -111 -184 -127 -3 -3 -23 -12 -45 -20
-63 -21 -68 -27 -60 -78 10 -74 14 -80 58 -93 23 -7 57 -23 76 -35 19 -13 38
-23 42 -23 16 0 9 -34 -15 -84 -25 -52 -26 -77 -4 -166 16 -64 43 -115 75
-140 23 -18 36 -21 73 -16 76 10 144 50 179 105 28 42 31 56 31 122 0 57 -6
86 -24 125 -35 74 -64 94 -144 94 -62 0 -64 1 -57 23 4 12 8 40 9 62 1 34 -2
40 -20 43 -25 4 -64 -39 -64 -69 0 -21 -15 -25 -25 -8 -4 6 -22 8 -44 4 -27
-4 -41 -2 -50 9 -19 22 28 106 71 127 18 9 63 31 101 49 37 18 70 30 74 26 4
-4 0 -21 -10 -37 -19 -33 -22 -59 -8 -59 17 0 81 97 81 123 0 52 -51 71 -116
43z m41 -395 c17 -9 48 -44 70 -77 49 -73 52 -124 10 -184 -35 -50 -78 -69
-114 -49 -47 26 -74 173 -55 292 6 32 10 37 33 36 14 0 40 -8 56 -18z"/>
<path d="M16487 16673 c-14 -13 -6 -42 15 -57 20 -14 20 -18 8 -41 -10 -18
-11 -33 -4 -53 8 -22 15 -27 44 -27 33 0 35 2 38 37 3 32 -1 40 -25 55 -16 10
-29 28 -31 42 -4 38 -28 61 -45 44z"/>
<path d="M17950 16650 c-25 -25 -25 -35 0 -60 18 -18 29 -20 78 -15 31 3 125
7 209 10 84 2 162 7 175 9 79 16 79 16 76 39 -3 22 -5 22 -196 23 -106 1 -222
4 -257 8 -57 6 -67 4 -85 -14z"/>
<path d="M18955 16660 c-3 -5 -1 -19 5 -30 7 -14 8 -26 0 -39 -17 -32 -11 -60
15 -77 22 -14 50 -16 215 -12 165 4 192 7 210 23 14 12 17 22 10 34 -7 14 -32
16 -172 16 -153 1 -166 2 -206 25 -23 13 -41 28 -41 34 3 25 -2 36 -15 36 -8
0 -18 -4 -21 -10z"/>
<path d="M14344 16569 c-99 -20 -202 -62 -211 -86 -12 -31 55 -45 92 -20 11 7
40 19 65 26 112 33 170 59 170 77 0 21 -23 22 -116 3z"/>
<path d="M9164 16506 c-16 -41 32 -479 86 -791 28 -165 40 -250 40 -290 0 -47
46 -199 65 -215 8 -7 22 -9 31 -6 14 6 16 18 11 84 -9 107 -36 354 -42 372
-26 83 -74 458 -82 638 -6 151 -7 154 -32 170 -14 9 -32 25 -39 34 -16 22 -31
23 -38 4z"/>
<path d="M14082 16453 c2 -10 10 -18 18 -18 8 0 16 8 18 18 2 12 -3 17 -18 17
-15 0 -20 -5 -18 -17z"/>
<path d="M18005 16429 c-4 -5 1 -19 11 -30 16 -18 16 -20 1 -37 -20 -22 -22
-55 -4 -70 7 -6 33 -14 57 -18 25 -3 70 -12 100 -19 83 -20 203 -17 325 6 120
23 158 40 148 65 -5 13 -16 15 -62 11 -31 -3 -76 -10 -101 -16 -56 -13 -204
-14 -250 -1 -19 5 -65 16 -102 25 -63 15 -68 18 -62 40 8 32 -45 71 -61 44z"/>
<path d="M10865 16340 c-49 -20 -108 -29 -215 -35 -140 -7 -274 -28 -295 -45
-9 -8 -15 -25 -13 -39 3 -23 7 -26 38 -25 19 1 62 9 95 18 32 8 113 17 180 20
123 6 156 12 211 40 41 21 58 42 50 61 -6 16 -20 18 -51 5z"/>
<path d="M9588 16039 c-22 -12 -23 -48 -3 -55 21 -9 45 14 45 42 0 26 -14 30
-42 13z"/>
<path d="M9617 15942 c-21 -23 -22 -65 -2 -82 16 -13 60 -7 82 12 19 15 16 52
-5 71 -24 22 -55 21 -75 -1z"/>
<path d="M18666 15758 c-5 -16 -20 -541 -18 -657 1 -126 48 -261 86 -248 7 3
10 39 8 118 -3 107 12 504 23 631 5 50 3 59 -17 78 -13 11 -28 35 -34 53 -11
33 -41 49 -48 25z"/>
<path d="M19620 15724 c-46 -7 -88 -10 -92 -8 -16 10 -114 -26 -183 -67 -72
-42 -151 -75 -194 -81 -35 -4 -87 -102 -72 -135 12 -26 13 -27 146 -24 101 2
181 -11 295 -49 56 -19 104 -66 116 -116 10 -39 -32 -117 -87 -159 -54 -42
-74 -69 -64 -85 10 -16 36 -12 91 14 37 17 58 36 82 72 41 65 62 116 62 154 0
39 -62 163 -92 184 -28 20 -48 20 -48 1 0 -19 -20 -19 -48 1 -29 20 -104 34
-224 41 -54 3 -98 9 -98 14 0 5 15 16 33 25 17 10 52 34 77 55 53 44 157 82
185 66 12 -6 30 -6 54 2 84 26 145 32 333 32 164 0 200 3 205 15 9 23 -15 43
-60 49 -88 12 -334 11 -417 -1z"/>
<path d="M18215 15026 c-25 -20 -28 -26 -16 -40 7 -9 20 -16 27 -16 20 0 17
-13 -7 -33 -14 -13 -19 -27 -17 -50 3 -31 4 -32 49 -31 92 1 126 54 69 109
-16 16 -30 36 -30 45 0 18 -19 40 -34 40 -6 0 -24 -11 -41 -24z"/>
<path d="M20515 14967 c-41 -13 -55 -26 -55 -49 0 -15 -3 -17 -19 -8 -31 16
-93 12 -129 -10 -18 -11 -38 -20 -44 -20 -6 0 -22 -10 -35 -22 -17 -16 -39
-23 -83 -26 -33 -2 -64 -9 -68 -16 -5 -6 -12 -32 -16 -57 -5 -36 -3 -48 11
-61 28 -26 111 -58 149 -58 43 0 109 -32 129 -64 44 -67 36 -153 -20 -219 -38
-44 -43 -64 -20 -73 41 -16 100 39 135 125 30 73 0 213 -58 274 -31 32 -48 34
-57 6 -5 -16 -12 -19 -28 -14 -12 3 -46 13 -76 21 -29 8 -58 17 -63 20 -12 7
20 44 38 44 8 0 21 11 29 24 21 32 58 46 141 54 54 6 71 11 79 27 6 13 21 21
40 22 17 0 71 6 120 11 61 7 116 7 173 0 72 -9 86 -9 99 5 20 20 11 45 -22 57
-36 14 -313 19 -350 7z"/>
<path d="M15237 14794 c-4 -4 -96 -6 -204 -5 -156 1 -220 -3 -300 -17 -57 -11
-108 -24 -115 -29 -7 -6 -24 -13 -38 -16 -35 -9 -223 -201 -218 -224 5 -29 36
-27 74 6 19 17 43 31 53 31 23 0 51 31 51 57 0 12 15 29 38 44 21 14 38 34 40
47 4 24 2 24 172 28 150 4 422 21 455 29 47 12 61 26 39 42 -19 14 -37 17 -47
7z"/>
<path d="M13821 14761 c-15 -27 -14 -56 3 -70 17 -14 12 -94 -11 -171 -34
-114 -71 -216 -92 -251 -48 -81 3 -281 82 -323 27 -15 48 -18 99 -14 35 3 73
10 84 16 10 6 37 18 59 27 105 43 155 77 190 130 60 87 70 138 35 170 -10 9
-24 33 -30 51 -12 34 -35 54 -64 54 -10 0 -16 -12 -18 -37 -2 -29 -9 -40 -33
-53 -44 -24 -38 -43 17 -55 26 -5 52 -15 58 -21 19 -19 0 -63 -47 -107 -25
-23 -57 -52 -70 -65 -14 -13 -63 -34 -113 -48 -120 -35 -119 -35 -163 102 -20
61 -21 87 -6 151 20 82 119 386 130 400 17 20 3 42 -35 58 -26 11 -35 22 -38
42 -4 33 -23 41 -37 14z"/>
<path d="M19570 14750 c0 -37 -1 -37 -115 -44 -81 -5 -92 -8 -112 -31 -27 -31
-30 -73 -6 -82 9 -3 35 3 57 15 92 47 150 51 195 15 20 -17 20 -20 7 -68 -19
-68 -69 -175 -95 -202 -12 -13 -30 -23 -41 -23 -28 0 -32 -14 -20 -77 12 -67
32 -91 86 -103 69 -16 254 22 345 71 20 10 43 19 50 19 26 1 83 56 76 74 -10
25 -39 19 -134 -26 -103 -48 -109 -51 -187 -77 -93 -32 -183 -8 -142 37 8 10
19 34 22 53 4 19 12 41 19 49 7 8 23 35 35 60 12 25 27 51 34 59 14 18 35 98
36 139 0 53 -68 172 -100 172 -5 0 -10 -14 -10 -30z"/>
<path d="M18793 14752 c-15 -10 -11 -150 7 -277 30 -210 111 -440 155 -440 25
0 23 27 -12 175 -36 153 -43 195 -53 295 -7 73 -6 94 5 112 19 28 10 50 -27
69 -25 13 -28 19 -23 45 6 26 4 29 -17 29 -13 0 -29 -4 -35 -8z"/>
<path d="M14610 14601 c-15 -28 -13 -39 14 -74 31 -40 45 -77 57 -147 15 -93
-27 -202 -92 -235 -26 -14 -32 -14 -60 0 -37 19 -59 14 -59 -15 0 -31 42 -43
106 -30 29 6 58 18 64 26 7 7 18 14 25 14 18 0 62 54 81 99 8 20 18 75 21 122
5 79 4 91 -21 145 -46 100 -109 144 -136 95z"/>
<path d="M12995 14600 c-3 -5 -2 -18 4 -28 6 -11 6 -24 0 -34 -7 -13 -15 -15
-41 -7 -17 5 -50 6 -72 2 -46 -7 -145 -59 -153 -80 -3 -7 -18 -20 -33 -28 -68
-35 -210 -208 -210 -256 0 -19 21 -31 37 -21 6 4 31 39 56 78 68 105 140 173
229 217 42 20 84 37 92 37 8 0 18 5 21 10 10 17 71 11 87 -7 69 -79 83 -279
29 -406 -25 -58 -110 -166 -158 -202 -21 -16 -54 -43 -73 -61 -63 -59 -258
-123 -329 -108 -56 12 -131 63 -131 89 0 6 -18 35 -40 64 -56 74 -76 149 -61
222 32 155 109 281 201 325 52 25 64 48 30 59 -30 9 -59 -3 -113 -49 -39 -34
-127 -161 -127 -184 0 -4 -12 -37 -26 -74 -16 -43 -31 -68 -41 -68 -13 0 -15
-12 -11 -74 10 -148 117 -308 237 -350 148 -52 398 35 563 197 76 75 154 201
171 277 34 148 29 251 -18 356 -34 77 -101 135 -120 104z"/>
<path d="M17347 14336 c-4 -15 -6 -31 -2 -34 10 -10 16 6 13 35 l-3 28 -8 -29z"/>
<path d="M17625 14315 c-5 -1 -64 -9 -130 -16 -66 -6 -126 -16 -132 -22 -18
-14 -16 -66 3 -74 8 -3 48 4 88 16 81 24 347 44 446 34 44 -4 58 -2 69 11 12
15 12 19 -2 33 -14 14 -44 17 -174 19 -87 2 -162 1 -168 -1z"/>
<path d="M14035 14240 c-10 -11 -15 -23 -11 -27 11 -11 61 11 61 27 0 23 -29
23 -50 0z"/>
<path d="M14440 14236 c0 -9 7 -16 16 -16 17 0 14 22 -4 28 -7 2 -12 -3 -12
-12z"/>
<path d="M18240 14167 c0 -8 -12 -19 -26 -26 -31 -14 -29 -43 4 -51 l23 -5
-25 -38 c-14 -21 -26 -44 -26 -50 0 -43 73 -50 119 -11 38 32 41 67 6 90 -17
11 -25 25 -25 44 0 16 -3 35 -6 44 -7 19 -44 21 -44 3z"/>
<path d="M20615 14138 c-49 -17 -106 -37 -125 -45 -22 -10 -79 -16 -160 -18
-69 -2 -141 -7 -160 -13 -19 -5 -68 -15 -107 -22 -83 -15 -142 -45 -124 -63 8
-8 32 -8 93 1 180 26 309 49 372 67 35 10 53 11 62 4 9 -8 33 -7 81 1 112 20
143 23 143 13 0 -9 -69 -57 -128 -90 -57 -31 -103 -76 -100 -97 3 -20 9 -21
100 -22 67 -1 101 2 108 11 13 15 -3 29 -42 39 -36 8 -27 28 23 50 22 10 52
29 66 42 16 15 38 24 58 24 19 0 39 8 50 20 18 20 27 21 212 15 173 -4 194 -3
200 11 11 30 -25 44 -111 44 -66 0 -83 3 -101 20 -21 19 -26 20 -118 8 -94
-12 -98 -11 -126 10 -38 28 -55 27 -166 -10z"/>
<path d="M13888 14110 c-42 -41 -45 -63 -11 -68 24 -4 83 59 83 88 0 32 -29
24 -72 -20z"/>
<path d="M13286 14108 c-20 -29 -20 -62 -1 -78 13 -11 22 -10 50 3 28 14 35
22 35 46 0 50 -56 69 -84 29z"/>
<path d="M19804 14026 c-10 -25 -76 -53 -114 -49 -19 3 -55 -1 -80 -7 -56 -15
-245 -46 -370 -61 -52 -6 -113 -17 -135 -23 -22 -5 -49 -9 -60 -8 -10 1 -26 0
-35 -4 -8 -3 -44 -7 -80 -9 -36 -2 -96 -8 -135 -13 -84 -13 -227 -21 -389 -22
-140 -1 -186 -14 -186 -55 0 -37 21 -41 120 -22 48 10 125 17 171 18 46 0 109
5 139 10 30 5 86 11 124 14 38 3 85 9 105 15 20 5 48 10 62 10 15 0 32 7 39
15 9 11 16 12 26 4 9 -7 19 -7 32 0 11 6 36 7 56 4 21 -3 61 -1 89 5 222 47
366 61 404 41 26 -14 24 -15 114 38 24 14 29 13 82 -13 32 -15 62 -33 67 -39
14 -16 -39 -122 -84 -167 -31 -32 -40 -36 -71 -31 -42 7 -55 -14 -31 -49 9
-12 16 -39 16 -58 0 -26 7 -43 25 -60 24 -23 26 -23 112 -11 159 23 309 50
335 60 25 9 44 37 30 44 -23 13 -68 16 -95 8 -136 -43 -309 -72 -321 -53 -3 5
8 36 24 67 17 31 30 63 30 70 0 8 9 20 20 28 10 7 33 40 50 73 25 47 30 66 25
94 -3 19 -7 50 -8 68 -4 56 -87 110 -103 68z"/>
<path d="M22614 13976 c-9 -22 2 -46 21 -46 12 0 15 8 13 27 -3 30 -25 42 -34
19z"/>
<path d="M14575 13945 c-33 -8 -73 -14 -89 -14 -16 -1 -61 -12 -100 -25 -39
-13 -109 -31 -156 -41 -47 -9 -124 -30 -173 -46 -48 -15 -134 -35 -190 -43
-125 -19 -334 -62 -373 -77 -29 -11 -176 -48 -294 -75 -36 -8 -86 -19 -111
-25 -25 -5 -93 -16 -150 -24 -57 -8 -140 -21 -184 -29 -44 -9 -96 -15 -115
-16 -39 0 -100 -33 -100 -52 1 -44 35 -50 133 -23 47 13 136 30 199 39 210 30
344 57 468 93 47 14 99 27 115 29 17 3 59 14 95 24 36 11 110 29 165 40 55 12
110 26 123 31 13 5 36 9 53 9 16 0 44 7 60 16 21 10 43 13 73 9 28 -5 54 -2
77 8 19 7 70 22 114 31 44 10 89 26 100 36 11 10 34 20 50 23 17 2 68 12 115
22 47 9 143 20 214 23 109 6 131 10 140 25 9 15 7 21 -8 33 -25 18 -167 18
-251 -1z"/>
<path d="M20800 13905 c-7 -8 -27 -15 -46 -15 -18 0 -36 -5 -39 -10 -8 -14 13
-40 32 -40 8 0 30 -12 49 -26 28 -21 34 -33 34 -62 0 -44 -51 -132 -89 -155
-49 -29 -91 -75 -85 -91 17 -44 117 9 184 97 88 117 92 188 17 290 -23 30 -39
34 -57 12z"/>
<path d="M19320 13780 c-12 -16 -27 -30 -34 -30 -8 0 -19 -6 -25 -14 -10 -12
-8 -16 11 -21 13 -4 38 -19 56 -32 40 -30 38 -53 -11 -117 -44 -58 -92 -99
-154 -130 -64 -32 -78 -32 -108 -2 -17 18 -25 39 -30 90 -7 64 -6 69 20 96 38
40 82 57 106 42 31 -19 46 -14 70 24 20 33 20 37 5 52 -24 25 -83 19 -115 -12
-15 -14 -32 -26 -38 -26 -5 0 -31 -18 -56 -40 -30 -26 -53 -39 -69 -38 -30 4
-34 -23 -14 -102 30 -116 77 -160 174 -160 88 0 241 111 293 212 39 76 38 119
-3 182 -18 27 -38 51 -44 53 -7 2 -22 -10 -34 -27z"/>
<path d="M14089 13666 c-24 -37 -50 -67 -63 -70 -12 -3 -48 -30 -79 -61 -47
-44 -64 -55 -91 -55 -40 0 -49 -16 -30 -51 7 -13 13 -39 14 -57 0 -22 9 -42
26 -59 24 -24 30 -25 100 -21 50 3 80 1 92 -8 10 -7 44 -17 77 -23 32 -6 60
-12 61 -14 2 -2 -3 -13 -12 -25 -20 -29 -105 -72 -142 -72 -54 0 -67 -53 -17
-66 32 -8 124 38 184 92 44 40 51 51 51 83 0 25 -7 44 -20 56 -11 10 -20 24
-20 32 0 8 -11 25 -25 39 -21 21 -29 23 -40 14 -8 -7 -15 -21 -15 -31 0 -13
-10 -20 -36 -25 -34 -6 -141 2 -170 13 -18 7 -18 33 1 57 8 11 15 27 15 36 0
9 22 41 49 71 36 40 60 57 93 67 44 13 47 12 94 -17 54 -35 66 -37 84 -16 10
12 9 20 -4 40 -9 14 -23 25 -31 25 -7 0 -16 4 -20 9 -7 12 38 61 56 61 22 1
-55 26 -100 34 l-41 6 -41 -64z"/>
<path d="M14317 13713 c-40 -11 -12 -38 68 -65 95 -33 129 -33 133 0 3 18 -5
26 -40 41 -47 20 -131 33 -161 24z"/>
<path d="M18432 13568 c-18 -18 -15 -32 12 -56 22 -19 24 -24 13 -52 -15 -39
-1 -64 40 -68 37 -4 73 31 57 55 -11 18 -27 28 -58 37 -17 6 -18 8 -2 24 21
25 20 49 -3 62 -26 13 -44 13 -59 -2z"/>
<path d="M20456 13555 c-11 -12 -14 -31 -12 -73 3 -31 7 -160 11 -287 4 -154
12 -248 22 -285 8 -30 18 -66 22 -80 7 -28 39 -39 52 -18 5 7 6 152 4 323 -5
291 -6 312 -25 337 -11 15 -20 34 -20 43 0 21 -18 55 -30 55 -5 0 -16 -7 -24
-15z"/>
<path d="M18625 13453 c-7 -18 -27 -205 -45 -438 -14 -168 -3 -288 27 -299 33
-13 47 21 58 145 3 35 15 135 47 393 12 98 12 99 -12 118 -13 11 -26 35 -29
56 -7 40 -34 55 -46 25z"/>
<path d="M14745 13340 c-9 -27 12 -52 36 -45 25 8 24 -6 -1 -38 -11 -14 -20
-33 -20 -44 0 -12 -21 -28 -68 -50 -37 -18 -77 -35 -89 -38 -23 -6 -31 -29
-14 -40 6 -3 7 -27 4 -54 -5 -44 -3 -50 20 -66 30 -19 85 -13 133 16 17 11 44
19 58 19 15 0 37 5 48 11 17 9 26 5 64 -32 24 -24 47 -52 50 -62 12 -38 -23
-126 -80 -202 -15 -20 1 -45 28 -45 46 0 102 111 112 223 6 70 5 74 -34 147
-44 83 -74 100 -80 45 -4 -40 -27 -57 -58 -43 -16 8 -31 8 -51 0 -41 -15 -123
-25 -123 -14 0 13 40 64 70 87 14 11 35 30 46 42 17 19 32 23 78 23 43 0 58 4
63 16 4 11 -1 22 -12 31 -34 24 1 41 105 53 150 17 165 22 165 50 0 21 -5 26
-35 28 -19 2 -85 -9 -145 -24 l-111 -27 -42 26 c-52 34 -108 36 -117 7z"/>
<path d="M16795 13110 l-28 -29 7 -263 c4 -169 12 -286 21 -328 8 -36 17 -77
20 -92 4 -19 12 -28 24 -28 41 0 43 17 40 292 -4 238 -2 265 14 288 25 35 21
66 -12 96 -19 17 -27 32 -24 45 5 18 -12 49 -26 49 -4 0 -20 -13 -36 -30z"/>
<path d="M21034 13007 c-50 -39 -107 -85 -126 -102 -20 -16 -62 -50 -93 -75
-110 -86 -349 -321 -395 -388 -14 -21 -51 -65 -82 -97 -61 -63 -81 -112 -58
-140 23 -28 48 -16 87 41 21 30 65 90 98 131 33 42 75 98 94 125 33 48 147
155 287 270 38 31 98 80 132 110 35 29 85 67 110 84 68 45 89 71 76 92 -6 9
-17 18 -25 19 -8 2 -55 -30 -105 -70z"/>
<path d="M14167 13023 c-34 -33 55 -353 98 -353 26 0 29 28 12 120 -12 69 -13
95 -5 119 13 33 -1 61 -31 61 -9 0 -24 14 -33 30 -17 30 -28 36 -41 23z"/>
<path d="M19255 12828 c-49 -39 -107 -84 -128 -99 -34 -25 -69 -53 -171 -141
-17 -15 -58 -49 -91 -76 -83 -69 -154 -137 -210 -202 -62 -71 -73 -77 -67 -39
6 38 -18 39 -47 3 -25 -31 -27 -57 -6 -74 9 -8 15 -30 15 -59 0 -96 65 -95 91
1 6 22 22 59 36 82 33 53 259 274 359 351 43 33 111 88 152 123 41 34 99 79
129 99 56 37 78 65 69 89 -10 27 -42 13 -131 -58z"/>
<path d="M17347 12863 c-12 -11 -8 -23 8 -23 8 0 15 7 15 15 0 16 -12 20 -23
8z"/>
<path d="M14665 12820 c-3 -5 -4 -27 -1 -47 3 -21 8 -112 11 -203 7 -159 21
-237 56 -302 11 -21 34 -24 45 -6 5 7 9 113 9 236 1 173 -2 225 -12 234 -7 6
-13 18 -13 28 0 45 -75 92 -95 60z"/>
<path d="M17325 12716 c-45 -47 -85 -86 -90 -86 -4 0 -36 -27 -71 -60 -34 -33
-71 -60 -82 -60 -10 0 -25 -8 -33 -17 -19 -23 -49 -89 -49 -108 0 -19 34 -37
54 -29 24 9 21 -33 -5 -75 -17 -29 -20 -44 -14 -85 8 -66 27 -100 70 -126 30
-19 41 -21 61 -11 31 14 30 22 -6 55 -21 18 -29 33 -26 49 3 12 7 63 11 114 5
85 4 92 -16 106 -19 14 -20 18 -8 52 8 20 23 41 34 47 11 6 36 27 55 48 19 21
67 62 105 91 94 71 157 135 153 157 -2 10 -14 18 -33 20 -25 3 -39 -7 -110
-82z"/>
<path d="M21104 12727 c-12 -12 -29 -28 -38 -35 -16 -13 -21 -56 -17 -143 2
-32 -6 -68 -24 -114 -35 -87 -31 -142 16 -220 34 -57 44 -63 114 -67 30 -2 40
1 40 12 0 8 -10 16 -22 18 -53 8 -4 97 72 133 54 26 128 23 133 -4 4 -20 -77
-102 -115 -118 -13 -4 -23 -14 -23 -20 0 -16 78 -1 115 21 40 25 105 111 105
140 0 23 -55 129 -74 142 -22 15 -37 7 -51 -25 -9 -23 -34 -46 -77 -73 -59
-38 -144 -71 -154 -61 -9 8 15 161 30 197 8 19 30 50 50 68 42 38 43 43 15 68
-20 18 -22 18 -51 1 -50 -29 -68 6 -23 45 26 23 34 58 13 58 -7 0 -23 -10 -34
-23z"/>
<path d="M20435 12590 c-3 -5 1 -10 9 -10 9 0 16 5 16 10 0 6 -4 10 -9 10 -6
0 -13 -4 -16 -10z"/>
<path d="M23824 12587 c-22 -12 -17 -43 12 -66 22 -17 23 -22 12 -40 -9 -14
-9 -28 -2 -48 9 -26 13 -28 62 -27 59 2 102 25 102 54 0 24 -28 40 -69 40
l-31 0 17 35 c13 28 14 38 4 48 -13 13 -84 16 -107 4z"/>
<path d="M20717 12584 c-12 -12 -8 -41 7 -53 17 -14 39 9 34 36 -3 18 -29 29
-41 17z"/>
<path d="M12947 12555 c-26 -25 -30 -79 -21 -239 5 -83 8 -180 7 -216 -4 -122
28 -342 53 -369 11 -12 15 -12 30 0 15 12 16 41 10 322 -6 303 -6 309 15 338
25 36 19 76 -13 88 -14 5 -26 22 -32 46 -13 44 -27 53 -49 30z"/>
<path d="M17370 12555 c-6 -8 -16 -60 -22 -117 -12 -123 -42 -251 -69 -294
-24 -40 -25 -40 12 -53 24 -8 29 -15 24 -30 -9 -29 14 -182 31 -208 15 -24 39
-30 49 -13 4 6 11 95 16 198 9 196 29 317 70 419 14 35 1 63 -31 63 -9 0 -22
11 -28 25 -13 28 -34 32 -52 10z"/>
<path d="M19254 12545 c-4 -9 -2 -21 4 -27 15 -15 44 -1 40 19 -4 23 -36 29
-44 8z"/>
<path d="M23375 12537 c-13 -20 -13 -28 -1 -63 8 -21 18 -56 21 -77 8 -47 46
-68 76 -41 26 24 24 61 -6 96 -14 16 -25 40 -25 53 0 23 -23 55 -40 55 -5 0
-16 -10 -25 -23z"/>
<path d="M15130 12530 c-12 -8 -12 -10 3 -16 21 -8 35 2 21 16 -5 5 -15 6 -24
0z"/>
<path d="M20730 12485 c-16 -17 -30 -23 -42 -19 -37 11 -48 -13 -48 -106 0
-142 62 -400 102 -421 51 -27 74 23 43 93 -18 42 -45 208 -45 280 0 48 4 59
35 95 39 46 44 77 16 93 -28 15 -35 13 -61 -15z"/>
<path d="M19209 12458 c-11 -24 -33 -55 -47 -70 -24 -26 -31 -28 -105 -28
l-79 0 5 -27 c3 -15 -1 -40 -9 -55 -22 -42 -3 -72 39 -64 27 5 34 2 42 -16 7
-17 20 -24 48 -26 50 -4 55 -22 21 -69 -16 -21 -29 -40 -31 -42 -1 -2 -13 -4
-25 -5 -17 -1 -24 -8 -26 -29 -5 -42 27 -128 59 -163 26 -27 36 -31 92 -32 51
-2 73 3 123 28 78 38 139 103 148 157 12 71 -70 218 -118 211 -14 -2 -20 -10
-19 -23 1 -11 -5 -24 -13 -28 -22 -12 -17 -24 31 -84 25 -30 45 -63 45 -74 0
-31 -58 -87 -124 -119 -50 -25 -67 -29 -88 -21 -14 5 -28 16 -31 24 -9 25 19
214 34 223 16 10 10 70 -9 87 -10 9 -35 20 -57 25 l-39 8 44 32 c24 18 49 32
56 32 6 0 17 7 24 15 7 8 19 15 28 15 12 0 11 -4 -5 -22 -29 -31 -34 -87 -10
-102 15 -9 23 -6 48 22 18 20 29 43 29 62 0 22 11 41 41 71 28 28 38 46 34 59
-8 24 -32 33 -55 20 -32 -17 -48 -12 -52 17 -5 42 -25 38 -49 -9z"/>
<path d="M22242 12488 c-19 -19 -14 -54 9 -70 20 -13 21 -17 9 -50 -11 -30
-11 -39 -1 -52 15 -18 82 -21 112 -6 29 16 24 61 -10 94 -18 17 -31 41 -33 60
-3 28 -7 31 -38 34 -19 2 -41 -3 -48 -10z"/>
<path d="M15211 12476 c-12 -7 -94 -81 -181 -165 -87 -83 -176 -165 -198 -181
-62 -45 -79 -91 -46 -124 28 -28 49 -18 89 44 21 33 42 60 46 60 4 0 17 15 28
34 12 18 43 49 70 67 26 18 61 51 77 73 16 21 56 59 89 83 33 25 67 56 77 70
29 46 1 68 -51 39z"/>
<path d="M21902 12468 c-16 -16 -15 -24 6 -56 9 -14 17 -44 17 -65 0 -49 21
-66 59 -49 31 14 34 46 9 75 -10 10 -27 37 -38 60 -22 45 -35 53 -53 35z"/>
<path d="M20310 12414 c0 -14 3 -14 15 -4 8 7 15 14 15 16 0 2 -7 4 -15 4 -8
0 -15 -7 -15 -16z"/>
<path d="M18623 12405 c-3 -9 -3 -19 1 -22 7 -7 36 16 36 28 0 15 -30 10 -37
-6z"/>
<path d="M11575 12350 c-4 -7 -2 -17 4 -23 29 -29 -6 -96 -52 -97 -9 0 -48
-19 -85 -42 -37 -23 -92 -54 -123 -69 -72 -36 -101 -71 -97 -118 2 -29 8 -37
26 -39 25 -4 72 31 72 53 0 6 15 25 33 42 38 36 201 133 223 133 8 0 28 -7 44
-15 24 -12 30 -22 30 -47 0 -37 -27 -126 -61 -203 -5 -11 -22 -56 -38 -100
-65 -180 -68 -185 -112 -185 -34 0 -41 -18 -24 -66 8 -22 14 -46 15 -55 0 -9
18 -33 40 -53 58 -52 108 -47 262 23 37 17 72 31 78 31 5 0 42 15 82 34 40 18
83 36 94 40 33 10 60 44 46 58 -9 9 -22 8 -54 -1 -48 -14 -167 -62 -243 -96
-53 -25 -200 -54 -212 -42 -4 4 -2 22 5 40 6 18 9 48 6 67 -4 29 4 53 49 138
132 247 158 394 91 506 -34 56 -88 103 -99 86z"/>
<path d="M16848 12278 c-29 -29 -77 -79 -106 -111 -50 -55 -54 -58 -71 -43
-33 30 -72 -5 -46 -41 8 -10 15 -37 15 -61 0 -49 12 -77 36 -86 19 -7 54 19
54 41 0 35 79 159 135 213 64 61 93 140 51 140 -8 0 -38 -24 -68 -52z"/>
<path d="M15239 12179 c-27 -54 -64 -89 -166 -155 -65 -43 -83 -59 -83 -78 0
-13 7 -29 15 -36 12 -10 21 -7 47 15 18 15 37 34 41 41 4 8 21 14 36 14 17 0
45 14 72 35 24 19 50 35 57 35 17 0 15 -41 -3 -64 -19 -25 -19 -36 -1 -36 8 0
35 23 60 51 37 42 46 58 46 89 0 25 -7 43 -21 56 -12 10 -27 31 -35 46 -20 39
-40 35 -65 -13z"/>
<path d="M14765 12180 c-22 -24 -13 -73 13 -68 12 2 19 16 23 46 6 47 -6 55
-36 22z"/>
<path d="M11198 12125 c-8 -18 -8 -29 -1 -36 17 -17 53 7 53 36 0 34 -36 34
-52 0z"/>
<path d="M15560 11995 c0 -8 7 -15 15 -15 8 0 15 7 15 15 0 8 -7 15 -15 15 -8
0 -15 -7 -15 -15z"/>
<path d="M20319 11964 c-17 -21 17 -57 45 -48 22 7 66 43 66 55 0 13 -99 7
-111 -7z"/>
<path d="M13662 11909 c-38 -25 -49 -60 -33 -104 6 -17 11 -42 11 -54 0 -26
51 -81 75 -81 10 0 35 17 56 39 49 48 52 88 12 136 -16 18 -36 45 -46 59 -22
31 -32 32 -75 5z"/>
<path d="M21475 11925 c-35 -14 -283 -26 -610 -30 -536 -7 -545 -8 -545 -55 0
-30 26 -43 78 -37 26 3 106 13 177 22 72 9 171 15 220 14 50 -1 119 -3 155 -3
54 -1 203 6 370 18 82 6 246 29 260 36 8 4 15 13 15 21 0 10 -16 15 -55 16
-30 1 -59 0 -65 -2z"/>
<path d="M15570 11873 c-69 -51 -142 -90 -227 -119 -42 -15 -56 -16 -77 -6
-24 11 -26 17 -26 74 0 81 -6 90 -61 86 l-44 -3 2 -63 c5 -191 163 -213 413
-58 71 44 133 102 128 118 -9 27 -46 18 -108 -29z"/>
<path d="M18487 11877 c-44 -31 22 -64 74 -37 26 14 24 27 -5 34 -13 3 -30 8
-38 11 -7 3 -22 0 -31 -8z"/>
<path d="M18700 11870 c0 -5 7 -10 15 -10 8 0 15 5 15 10 0 6 -7 10 -15 10 -8
0 -15 -4 -15 -10z"/>
<path d="M18780 11846 c0 -11 9 -16 26 -16 31 0 28 23 -4 28 -15 2 -22 -2 -22
-12z"/>
<path d="M22614 11835 c-3 -8 -3 -19 1 -25 11 -18 25 -11 25 15 0 27 -17 34
-26 10z"/>
<path d="M17210 11780 c0 -5 7 -10 16 -10 8 0 12 5 9 10 -3 6 -10 10 -16 10
-5 0 -9 -4 -9 -10z"/>
<path d="M18495 11782 c-10 -10 -5 -51 8 -59 6 -4 75 -8 152 -8 96 0 165 -6
220 -18 102 -22 247 -23 265 -2 7 8 10 22 6 30 -4 12 -24 15 -95 15 -49 0
-116 6 -148 14 -101 24 -215 37 -310 35 -51 -1 -95 -5 -98 -7z"/>
<path d="M16565 11730 c-9 -15 3 -30 33 -41 19 -8 29 -6 41 6 9 9 12 18 6 24
-15 13 -74 21 -80 11z"/>
<path d="M17308 11686 c-86 -13 -93 -17 -84 -42 6 -15 18 -16 108 -10 105 7
138 17 138 40 0 28 -37 31 -162 12z"/>
<path d="M17100 11657 c-3 -3 -66 -7 -140 -10 -189 -8 -332 -26 -349 -42 -12
-12 -12 -17 -1 -29 16 -20 66 -20 145 -2 33 8 121 17 195 21 136 7 205 24 198
47 -4 13 -39 23 -48 15z"/>
<path d="M17166 11653 c-11 -11 -6 -23 9 -23 8 0 15 4 15 9 0 13 -16 22 -24
14z"/>
<path d="M18929 11547 c-8 -17 -7 -41 0 -83 6 -32 18 -160 26 -284 8 -124 20
-295 26 -380 6 -85 12 -189 14 -230 2 -41 8 -93 14 -115 6 -22 11 -55 11 -73
0 -36 21 -52 44 -33 29 24 29 118 -4 621 -5 85 -12 230 -14 322 -5 143 -8 172
-24 195 -11 16 -27 40 -36 56 -20 33 -43 35 -57 4z"/>
<path d="M17141 11510 c-24 -11 -52 -20 -62 -20 -28 0 -101 -30 -125 -52 -25
-22 -34 -23 -34 -2 0 29 -25 8 -26 -22 -1 -16 -6 -44 -12 -61 -8 -25 -7 -36 2
-46 11 -11 -1 -28 -64 -95 -43 -45 -92 -109 -109 -142 -27 -51 -35 -58 -59
-57 -20 2 -28 -3 -30 -19 -2 -11 4 -26 12 -33 12 -10 13 -18 5 -34 -15 -27 -4
-134 21 -196 20 -53 79 -150 101 -168 8 -6 37 -24 64 -39 45 -26 58 -29 140
-28 75 1 103 6 165 31 120 47 239 137 340 257 76 89 110 161 117 247 9 111
-39 261 -116 356 -59 72 -74 82 -102 64 -19 -11 -23 -11 -31 3 -5 9 -19 28
-32 42 -31 37 -104 43 -165 14z m57 -76 c7 -2 17 -15 22 -29 10 -27 69 -59
105 -57 11 1 26 9 33 19 12 17 14 17 33 -7 35 -45 90 -166 96 -211 3 -24 12
-53 19 -64 19 -27 17 -76 -4 -138 -26 -72 -58 -116 -145 -197 -116 -109 -215
-170 -314 -196 -69 -18 -91 -18 -150 2 -55 18 -93 57 -93 95 0 14 -10 34 -21
45 -56 49 -72 146 -44 255 32 124 75 192 185 296 52 49 54 54 41 75 -12 20
-11 24 15 45 16 13 54 37 84 52 52 27 88 31 138 15z"/>
<path d="M17164 11409 c-3 -6 -2 -15 3 -20 13 -13 43 -1 43 17 0 16 -36 19
-46 3z"/>
<path d="M14485 11506 c-16 -11 -17 -16 -7 -29 11 -12 19 -13 43 -5 35 12 46
27 28 39 -20 13 -43 11 -64 -5z"/>
<path d="M22616 11483 c-9 -22 10 -41 25 -26 13 13 5 43 -10 43 -5 0 -12 -8
-15 -17z"/>
<path d="M15195 11440 c-100 -11 -224 -32 -355 -60 -25 -5 -68 -9 -97 -10 -28
0 -55 -5 -58 -10 -4 -6 -14 -1 -24 11 -15 19 -29 22 -87 23 -67 1 -69 0 -69
-24 0 -24 2 -25 80 -28 44 -1 90 -7 102 -14 30 -15 229 -3 308 19 33 9 89 17
125 17 36 1 72 6 80 11 8 6 65 12 125 15 109 5 110 5 110 30 0 25 -1 25 -85
26 -47 1 -116 -2 -155 -6z"/>
<path d="M12890 11418 c-87 -15 -140 -46 -140 -80 0 -33 27 -31 132 12 126 52
121 49 108 65 -12 14 -35 15 -100 3z"/>
<path d="M13074 11405 c-8 -20 13 -45 38 -45 24 0 34 26 18 45 -16 19 -49 19
-56 0z"/>
<path d="M13172 11373 c2 -10 8 -18 13 -19 6 0 22 -4 38 -8 18 -5 33 -4 42 4
25 20 -1 40 -52 40 -37 0 -44 -3 -41 -17z"/>
<path d="M15154 11319 c-8 -12 -13 -204 -16 -564 0 -99 9 -223 23 -292 8 -42
15 -53 29 -53 26 0 28 16 35 380 7 329 8 361 20 429 8 48 -7 75 -36 66 -11 -4
-19 -2 -19 2 0 5 -6 17 -13 28 -12 15 -15 16 -23 4z"/>
<path d="M22626 11292 c-3 -6 -1 -14 5 -17 15 -10 25 3 12 16 -7 7 -13 7 -17
1z"/>
<path d="M22675 11221 c-6 -11 9 -23 19 -14 9 9 7 23 -3 23 -6 0 -12 -4 -16
-9z"/>
<path d="M11677 11203 c-4 -3 -26 -10 -49 -14 -76 -15 -162 -35 -183 -44 -25
-10 -55 -36 -55 -47 0 -23 130 6 170 37 8 7 42 16 75 20 76 9 101 21 84 41
-12 15 -31 18 -42 7z"/>
<path d="M22650 11110 c0 -5 5 -10 10 -10 6 0 10 5 10 10 0 6 -4 10 -10 10 -5
0 -10 -4 -10 -10z"/>
<path d="M22613 11044 c-4 -10 0 -22 11 -30 14 -10 15 -16 5 -32 -15 -25 -5
-55 18 -50 15 3 18 14 18 63 0 55 -2 60 -23 63 -14 2 -25 -3 -29 -14z"/>
<path d="M13070 10960 c0 -5 5 -10 10 -10 6 0 10 5 10 10 0 6 -4 10 -10 10 -5
0 -10 -4 -10 -10z"/>
<path d="M13105 10950 c-5 -8 7 -25 31 -46 l39 -33 -70 6 c-42 3 -80 13 -95
23 -38 27 -97 40 -178 40 -70 0 -73 -1 -83 -27 -11 -28 -9 -55 10 -143 9 -41
7 -49 -17 -84 -15 -21 -36 -53 -47 -70 -36 -58 -67 -97 -72 -92 -4 4 -8 28
-12 79 -2 22 -24 1 -42 -40 -24 -56 -19 -134 13 -221 25 -67 109 -170 146
-178 15 -3 44 -12 65 -20 49 -18 124 -18 161 1 15 8 33 15 38 15 13 0 146 100
175 131 29 33 77 112 113 187 64 136 71 233 22 327 -51 99 -65 116 -107 132
-63 23 -82 26 -90 13z m21 -129 c76 -37 104 -65 104 -103 0 -6 6 -19 14 -27
46 -53 -65 -304 -187 -421 -54 -52 -153 -84 -229 -75 -30 4 -60 10 -67 14 -17
11 -101 181 -101 204 0 29 94 193 160 279 11 14 20 33 20 41 0 8 7 20 15 27 8
7 15 22 15 34 0 35 20 46 81 46 32 0 61 5 64 10 10 16 27 12 111 -29z"/>
<path d="M12974 10789 c-8 -14 5 -26 39 -34 23 -6 27 -4 27 13 0 29 -51 45
-66 21z"/>
<path d="M13175 10569 c-4 -6 -5 -13 -2 -16 7 -7 27 6 27 18 0 12 -17 12 -25
-2z"/>
<path d="M12830 10265 c0 -8 7 -15 15 -15 8 0 15 7 15 15 0 8 -7 15 -15 15 -8
0 -15 -7 -15 -15z"/>
<path d="M22625 10820 c3 -5 8 -10 11 -10 2 0 4 5 4 10 0 6 -5 10 -11 10 -5 0
-7 -4 -4 -10z"/>
<path d="M11438 10810 c-21 -4 -46 -14 -55 -22 -10 -8 -26 -18 -35 -21 -10 -4
-18 -14 -18 -23 0 -14 8 -15 56 -9 l56 7 -17 -26 c-9 -14 -25 -28 -35 -31 -10
-3 -33 -29 -52 -58 -27 -40 -44 -55 -74 -64 -50 -15 -62 -4 -45 42 14 40 7 62
-15 44 -8 -6 -14 -17 -14 -25 0 -7 -8 -18 -19 -23 -15 -9 -19 -26 -23 -103 -3
-52 -11 -104 -18 -118 -18 -33 -7 -167 19 -251 31 -99 107 -209 175 -253 50
-34 62 -37 128 -38 90 -2 146 21 217 87 67 63 97 109 133 206 29 77 31 94 32
209 0 136 -11 183 -66 294 -53 105 -158 196 -158 136 0 -16 -7 -20 -30 -20
-32 0 -37 9 -19 27 7 7 9 19 6 27 -7 17 -60 20 -129 6z m247 -215 c40 -79 40
-81 40 -192 0 -76 -4 -116 -12 -125 -7 -6 -13 -25 -13 -40 0 -21 5 -28 20 -28
24 0 25 -19 4 -75 -8 -22 -20 -55 -25 -73 -10 -33 -66 -97 -112 -126 -37 -25
-135 -47 -173 -40 -34 6 -74 44 -74 70 0 8 -20 43 -45 79 -24 36 -51 88 -59
115 -22 73 -8 181 39 305 46 119 50 125 84 125 28 0 128 35 149 53 16 13 101
37 122 34 8 -1 33 -38 55 -82z"/>
<path d="M11415 9980 c-8 -12 20 -24 35 -15 6 3 8 11 5 16 -8 12 -32 12 -40
-1z"/>
<path d="M12626 10671 c-4 -7 -5 -15 -2 -18 9 -9 19 4 14 18 -4 11 -6 11 -12
0z"/>
<path d="M13630 10603 c-25 -9 -50 -35 -50 -53 0 -9 16 -24 35 -33 l36 -17
-22 -29 c-11 -16 -19 -37 -17 -47 3 -16 12 -19 56 -18 86 3 119 52 67 100 -14
13 -25 34 -25 48 0 43 -36 65 -80 49z"/>
<path d="M22642 10511 c-15 -9 -16 -26 -6 -93 4 -27 11 -48 16 -48 16 0 30 55
23 97 -7 46 -14 56 -33 44z"/>
<path d="M22637 10334 c-8 -8 1 -24 14 -24 5 0 9 7 9 15 0 15 -12 20 -23 9z"/>
<path d="M22630 10241 c-14 -34 -2 -86 20 -86 7 0 22 13 34 28 19 26 19 30 5
55 -21 38 -44 39 -59 3z"/>
<path d="M22663 10018 c-5 -7 -15 -26 -23 -42 -13 -25 -13 -29 4 -41 31 -23
46 -8 46 46 0 48 -9 61 -27 37z"/>
<path d="M22647 9872 c-19 -21 -23 -82 -6 -99 20 -20 39 -3 39 33 0 19 5 34
11 34 16 0 6 44 -12 48 -8 1 -23 -6 -32 -16z"/>
<path d="M22647 9693 c-13 -12 -8 -140 6 -151 18 -15 42 2 33 23 -3 10 -1 24
5 31 6 8 9 23 6 35 -3 12 -2 32 3 45 9 22 7 24 -19 24 -15 0 -31 -3 -34 -7z"/>
<path d="M22675 9483 c-4 -13 -11 -23 -16 -23 -17 0 -27 -44 -17 -72 24 -67
64 -8 49 70 -7 39 -10 43 -16 25z"/>
<path d="M22650 9301 c-24 -45 -5 -81 41 -81 37 0 43 12 21 41 -10 13 -21 32
-25 42 -8 22 -24 22 -37 -2z"/>
<path d="M22643 9193 c-7 -17 40 -63 65 -63 17 0 15 13 -5 49 -20 34 -50 41
-60 14z"/>
<path d="M22645 9089 c-13 -20 4 -59 26 -59 27 0 35 27 14 50 -20 22 -31 25
-40 9z"/>
<path d="M22668 8949 c-18 -10 -23 -44 -12 -73 5 -13 9 -14 21 -5 10 9 17 9
25 1 16 -16 28 -15 28 2 0 8 -7 16 -15 20 -9 3 -15 18 -15 36 0 32 -5 35 -32
19z"/>
<path d="M22683 8842 c-37 -6 -45 -25 -28 -66 10 -23 13 -42 7 -49 -5 -7 -7
-75 -4 -152 2 -77 3 -160 2 -185 -2 -25 -2 -54 -2 -65 1 -11 2 -83 4 -160 l3
-140 30 0 c27 0 30 3 31 32 0 19 9 42 22 56 l22 23 -30 26 c-33 29 -38 46 -15
54 19 8 19 28 0 58 -14 21 -13 25 10 50 20 22 23 31 15 41 -37 44 -50 323 -19
374 11 17 11 25 1 41 -6 11 -12 29 -12 39 0 23 -8 28 -37 23z"/>
<path d="M22737 8643 c-12 -11 -8 -23 8 -23 8 0 15 7 15 15 0 16 -12 20 -23 8z"/>
<path d="M22675 7979 c-14 -22 -18 -128 -5 -144 8 -9 10 -27 6 -49 -5 -26 -3
-35 10 -40 54 -21 90 24 57 73 -11 16 -19 48 -20 85 -1 32 -4 64 -7 72 -6 17
-32 19 -41 3z"/>
<path d="M22676 7712 c-3 -5 -7 -38 -10 -74 -3 -49 -1 -71 11 -87 11 -17 12
-25 3 -36 -8 -10 -9 -116 -5 -397 9 -545 11 -591 19 -610 9 -21 62 -25 69 -5
6 17 -4 80 -16 95 -7 9 -4 18 8 33 17 17 17 24 6 55 -7 19 -10 48 -6 65 4 18
2 36 -5 44 -9 11 -8 19 4 37 13 18 15 39 10 108 -4 47 -10 89 -15 94 -15 16
-10 44 9 55 14 8 15 13 4 31 -9 15 -10 26 -2 40 7 14 8 26 0 39 -8 16 -6 22 7
30 15 8 16 13 7 29 -7 10 -10 30 -7 44 3 16 -2 31 -13 43 -14 13 -19 34 -19
74 0 32 -7 70 -17 88 -16 31 -15 33 8 58 13 14 24 34 24 43 -1 35 -19 95 -32
103 -17 11 -35 11 -42 1z"/>
<path d="M22914 6739 c-3 -6 -1 -16 5 -22 9 -9 14 -8 21 3 9 15 4 30 -10 30
-5 0 -12 -5 -16 -11z"/>
<path d="M22890 6451 c0 -50 -4 -72 -15 -81 -10 -8 -13 -20 -9 -29 7 -15 9
-32 12 -92 2 -30 44 -79 68 -79 12 0 15 6 10 26 -4 14 -2 32 4 39 12 15 9 129
-6 195 -7 36 -41 90 -56 90 -4 0 -8 -31 -8 -69z"/>
<path d="M22723 6458 c-37 -18 -37 -57 -18 -888 3 -135 8 -384 11 -555 3 -170
7 -353 9 -405 5 -106 7 -283 4 -370 -1 -35 9 -511 11 -535 1 -5 1 -59 0 -120
0 -60 2 -281 6 -490 3 -209 7 -474 8 -590 1 -115 5 -216 10 -223 4 -7 3 -19
-4 -27 -7 -8 -9 -27 -4 -51 6 -32 16 -505 13 -589 -3 -68 6 -940 11 -980 0 -5
0 -67 -1 -136 -1 -69 2 -136 6 -148 4 -13 2 -28 -5 -36 -8 -9 -9 -25 -5 -42 4
-16 7 -83 6 -151 l-1 -122 34 0 c45 0 62 45 34 89 -9 15 -8 24 4 43 16 26 16
74 -1 106 -12 22 -15 75 -5 85 12 12 12 87 1 100 -18 19 -20 175 -3 224 12 34
12 45 1 66 -12 23 -11 28 6 43 25 22 24 45 -2 51 -14 4 -18 11 -14 22 10 24
12 81 4 125 -9 51 -3 64 29 68 34 4 42 28 9 28 -30 0 -42 26 -29 61 5 13 5 38
2 54 -9 42 -1 226 12 251 8 17 6 28 -7 48 -20 29 -30 106 -15 106 13 0 13 37
0 45 -13 8 -13 71 1 97 8 14 8 27 0 46 -6 15 -11 38 -10 52 0 14 2 95 3 181 2
86 6 161 10 167 3 6 -1 29 -10 52 -16 39 -16 45 1 94 12 36 15 62 10 82 -10
34 -7 75 6 89 14 14 11 41 -7 56 -12 10 -14 23 -9 57 5 32 2 50 -10 68 -10 16
-13 33 -9 47 6 18 13 69 14 112 2 62 -8 263 -13 272 -5 7 1 21 14 34 l21 21
-21 65 c-20 60 -20 67 -6 83 14 15 14 31 6 111 -8 81 -7 96 7 112 14 16 14 22
1 55 -10 26 -14 83 -14 192 -1 137 -3 155 -18 158 -19 4 -22 13 -7 28 11 11
19 303 9 331 -4 10 0 30 7 44 11 23 11 29 -1 39 -18 15 -20 107 -3 179 9 38 9
54 0 63 -8 8 -8 17 -1 31 9 15 6 25 -10 48 l-21 28 21 6 c18 6 20 12 14 44 -3
20 -8 63 -10 96 -2 33 -8 96 -13 140 -5 48 -5 101 0 134 7 37 6 62 -2 82 -7
15 -9 33 -5 38 3 6 2 19 -4 28 -7 13 -3 30 14 63 23 47 23 63 -2 92 -8 9 -12
22 -8 28 4 6 1 18 -6 26 -10 13 -10 17 1 24 10 6 12 26 7 84 -6 69 -5 76 13
86 29 15 25 36 -10 49 -33 11 -38 32 -18 76 8 19 8 31 0 48 -6 12 -16 42 -22
65 -10 38 -9 47 6 63 10 11 14 27 11 41 -4 12 -2 27 2 32 5 6 12 32 16 57 6
40 4 49 -15 67 -17 16 -19 24 -12 39 11 19 5 70 -9 89 -12 15 -6 69 10 88 14
17 11 68 -4 72 -5 1 -20 -2 -32 -8z"/>
<path d="M22926 5931 c-4 -7 -5 -15 -2 -18 9 -9 19 4 14 18 -4 11 -6 11 -12 0z"/>
<path d="M22940 5819 c0 -5 5 -7 10 -4 6 3 10 8 10 11 0 2 -4 4 -10 4 -5 0
-10 -5 -10 -11z"/>
<path d="M22940 5556 c0 -21 21 -31 30 -15 5 7 6 17 4 21 -9 14 -34 9 -34 -6z"/>
<path d="M22953 4825 c-3 -9 -3 -18 0 -21 9 -9 27 6 27 22 0 19 -19 18 -27 -1z"/>
<path d="M22940 4455 c0 -8 7 -15 15 -15 8 0 15 7 15 15 0 8 -7 15 -15 15 -8
0 -15 -7 -15 -15z"/>
<path d="M22940 4370 c0 -5 5 -10 10 -10 6 0 10 5 10 10 0 6 -4 10 -10 10 -5
0 -10 -4 -10 -10z"/>
<path d="M22980 2315 c0 -10 7 -15 18 -13 21 4 19 22 -2 26 -10 2 -16 -3 -16
-13z"/>
<path d="M22997 2084 c-16 -16 -7 -44 14 -44 15 0 20 5 17 22 -3 22 -19 33
-31 22z"/>
<path d="M22987 1944 c-9 -10 2 -24 19 -24 8 0 14 7 14 15 0 15 -21 21 -33 9z"/>
<path d="M22952 1748 c-15 -15 3 -38 29 -38 24 0 33 18 19 35 -15 18 -32 19
-48 3z"/>
<path d="M22980 1395 c0 -20 4 -26 18 -23 9 2 17 12 17 23 0 11 -8 21 -17 23
-14 3 -18 -3 -18 -23z"/>
<path d="M22982 1218 c6 -18 28 -21 28 -4 0 9 -7 16 -16 16 -9 0 -14 -5 -12
-12z"/>
<path d="M22980 1135 c0 -8 7 -15 15 -15 8 0 15 7 15 15 0 8 -7 15 -15 15 -8
0 -15 -7 -15 -15z"/>
<path d="M22935 710 c-3 -5 -1 -10 4 -10 6 0 11 5 11 10 0 6 -2 10 -4 10 -3 0
-8 -4 -11 -10z"/>
<path d="M22933 545 c-6 -17 23 -55 42 -55 7 0 19 7 26 16 11 14 9 19 -11 35
-30 23 -49 24 -57 4z"/>
<path d="M22970 425 c0 -8 7 -15 15 -15 8 0 15 7 15 15 0 8 -7 15 -15 15 -8 0
-15 -7 -15 -15z"/>
<path d="M22885 200 c-4 -6 -1 -17 5 -26 15 -18 42 0 33 22 -6 16 -29 19 -38
4z"/>
<path d="M22986 182 c-3 -6 -1 -14 5 -17 15 -10 25 3 12 16 -7 7 -13 7 -17 1z"/>
<path d="M23005 50 c3 -5 10 -10 16 -10 5 0 9 5 9 10 0 6 -7 10 -16 10 -8 0
-12 -4 -9 -10z"/>
<path d="M31310 10 c0 -5 7 -10 15 -10 8 0 15 5 15 10 0 6 -7 10 -15 10 -8 0
-15 -4 -15 -10z"/>
</g>
</svg>
