<?xml version="1.0" standalone="no"?>
<!DOCTYPE svg PUBLIC "-//W3C//DTD SVG 20010904//EN"
 "http://www.w3.org/TR/2001/REC-SVG-20010904/DTD/svg10.dtd">
<svg version="1.0" xmlns="http://www.w3.org/2000/svg"
 width="3264.000000pt" height="2448.000000pt" viewBox="0 0 3264.000000 2448.000000"
 preserveAspectRatio="xMidYMid meet">
<metadata>
Created by potrace 1.12, written by Peter Selinger 2001-2015
</metadata>
<g transform="translate(0.000000,2448.000000) scale(0.100000,-0.100000)"
fill="#000000" stroke="none">
<path d="M21160 17230 c-8 -5 -33 -10 -56 -10 -32 0 -49 -8 -84 -37 -23 -20
-49 -52 -56 -70 -31 -73 -5 -180 53 -219 55 -37 138 -66 208 -71 89 -7 120
-23 147 -77 28 -58 19 -123 -24 -171 l-30 -35 -90 0 c-49 0 -98 5 -110 11 -11
6 -22 8 -26 5 -12 -13 26 -33 95 -50 68 -17 75 -17 113 -2 22 9 50 16 63 16
26 1 65 33 92 75 14 23 19 49 20 107 0 69 -3 80 -31 120 -43 59 -109 89 -269
121 -85 17 -111 32 -125 71 -17 49 -11 85 20 132 38 54 57 65 103 57 40 -6 76
3 61 16 -16 14 -58 21 -74 11z"/>
<path d="M21690 17233 c-39 -7 -43 -18 -21 -59 20 -36 21 -55 21 -316 l0 -276
-27 -32 c-34 -42 -22 -49 76 -44 42 2 81 3 88 4 7 0 2 16 -12 43 -25 43 -26
81 -14 317 1 14 -3 41 -8 60 -6 23 -7 81 -1 160 9 114 8 125 -8 137 -18 13
-45 15 -94 6z"/>
<path d="M25022 17233 c-31 -6 -37 -26 -17 -56 13 -21 16 -65 15 -312 0 -268
-1 -290 -19 -321 -11 -19 -16 -36 -11 -39 11 -7 170 -4 170 3 0 3 -9 19 -20
37 -19 31 -20 46 -17 349 4 311 4 317 -17 331 -20 15 -39 16 -84 8z"/>
<path d="M4258 17205 c-15 -34 3 -72 38 -81 48 -12 74 55 36 89 -27 25 -60 21
-74 -8z"/>
<path d="M5542 17220 c-22 -10 -23 -10 -5 -42 16 -29 18 -68 21 -332 3 -292 7
-336 36 -336 27 0 36 51 36 208 0 86 1 164 1 172 1 8 -3 53 -9 100 -6 47 -8
108 -5 137 10 96 -9 119 -75 93z"/>
<path d="M6129 17204 c-14 -38 11 -74 51 -74 42 0 60 38 36 75 -23 36 -73 35
-87 -1z"/>
<path d="M9997 17202 c-22 -25 -21 -55 2 -76 27 -24 62 -17 81 17 14 27 14 29
-13 53 -34 29 -48 30 -70 6z"/>
<path d="M13496 17199 c-14 -11 -26 -28 -26 -38 0 -46 96 -86 110 -46 11 31
-7 80 -34 93 -20 9 -29 7 -50 -9z"/>
<path d="M17055 17210 c-3 -5 -1 -27 4 -48 6 -21 11 -161 11 -320 1 -237 -1
-288 -15 -314 -8 -17 -14 -32 -13 -33 2 -1 33 -5 71 -8 52 -4 67 -2 67 9 0 7
-8 17 -17 23 -17 9 -18 37 -20 341 -1 243 -4 335 -13 345 -14 17 -66 20 -75 5z"/>
<path d="M21405 17210 c-3 -5 -29 -13 -58 -16 -45 -6 -49 -8 -29 -17 12 -6 40
-43 62 -83 58 -106 80 -99 80 26 0 49 -4 73 -16 84 -18 18 -30 20 -39 6z"/>
<path d="M3056 17165 c-26 -44 -26 -46 -12 -102 18 -69 21 -312 5 -361 -6 -18
-8 -41 -4 -50 4 -9 7 -40 6 -68 -2 -44 1 -54 21 -68 19 -14 25 -14 33 -3 8 11
11 371 5 675 0 36 -26 25 -54 -23z"/>
<path d="M3610 17182 c0 -5 12 -42 26 -83 31 -88 28 -127 -16 -232 -16 -39
-30 -75 -30 -79 0 -33 94 46 122 103 9 19 19 68 21 109 5 79 -1 94 -62 163
-23 25 -61 37 -61 19z"/>
<path d="M28750 17157 c0 -8 8 -29 17 -48 15 -29 18 -76 21 -317 3 -210 1
-291 -8 -313 -7 -16 -10 -33 -6 -36 4 -4 39 -7 79 -8 40 0 77 -4 84 -8 25 -16
21 11 -5 30 -45 33 -50 73 -51 396 0 164 -3 302 -6 307 -10 16 -125 12 -125
-3z"/>
<path d="M3336 17068 c-21 -30 -20 -68 4 -98 18 -24 20 -24 47 -9 34 19 35 54
2 98 -27 37 -33 38 -53 9z"/>
<path d="M19814 17072 c-7 -4 -28 -27 -48 -51 l-37 -44 23 -24 c22 -24 23 -31
20 -156 -2 -72 0 -152 3 -178 8 -54 44 -99 80 -99 25 0 33 14 16 24 -15 9 -20
64 -23 229 -3 149 -1 160 17 173 12 9 36 14 59 12 27 -2 41 1 44 11 4 11 -3
12 -30 7 -20 -3 -43 -4 -52 0 -20 8 -46 55 -46 84 0 21 -7 25 -26 12z"/>
<path d="M11817 17002 c-30 -31 -35 -63 -12 -82 12 -10 15 -42 15 -164 0 -184
9 -221 55 -243 43 -20 50 -14 36 30 -6 18 -14 78 -16 133 -10 200 -10 212 10
234 17 19 17 21 -6 70 -27 57 -44 62 -82 22z"/>
<path d="M22545 16980 c-35 -23 -18 -33 40 -24 52 7 56 15 16 31 -24 9 -34 7
-56 -7z"/>
<path d="M23303 16980 c-55 -8 -58 -12 -39 -49 9 -16 16 -49 16 -72 0 -37 5
-46 40 -76 22 -19 40 -42 40 -51 0 -10 9 -42 20 -72 11 -30 20 -64 20 -74 0
-26 49 -96 66 -96 21 0 46 58 48 108 1 43 -1 46 -30 54 -38 10 -53 27 -64 70
-5 18 -20 64 -33 103 -25 69 -25 69 -6 104 10 20 19 39 19 42 0 11 -51 15 -97
9z"/>
<path d="M23567 16984 c-3 -4 2 -23 13 -44 20 -39 20 -38 -13 -155 -8 -28 -10
-52 -5 -53 16 -7 38 20 38 45 0 14 9 36 20 50 11 14 20 33 20 42 0 9 18 35 39
59 l40 43 -25 10 c-28 10 -117 12 -127 3z"/>
<path d="M24318 16983 c-27 -2 -48 -6 -48 -7 0 -2 9 -23 20 -47 18 -40 20 -67
20 -307 l0 -264 -30 -28 -31 -29 38 -7 c60 -11 121 -10 134 3 9 9 9 19 -1 43
-18 44 -21 139 -4 178 10 26 11 39 2 55 -18 34 -14 274 5 320 9 21 14 43 11
50 -4 12 -58 49 -66 45 -1 -1 -24 -3 -50 -5z"/>
<path d="M4270 16970 c-13 -8 -12 -15 2 -57 21 -63 23 -298 3 -357 -8 -22 -12
-43 -9 -48 3 -4 23 -8 45 -8 30 0 39 4 39 18 4 176 -3 438 -12 449 -12 15 -46
17 -68 3z"/>
<path d="M4575 16969 c-4 -6 -4 -27 0 -47 5 -20 8 -122 9 -227 l1 -190 35 0
35 0 1 213 c2 197 0 214 -18 237 -20 26 -52 33 -63 14z"/>
<path d="M6153 16973 c-15 -5 -17 -54 -4 -68 15 -16 24 -288 11 -336 -14 -52
-1 -69 49 -62 33 6 33 6 26 47 -5 22 -9 121 -9 219 -1 165 -3 180 -20 193 -20
14 -32 16 -53 7z"/>
<path d="M6461 16966 c-9 -11 -9 -25 -2 -53 5 -21 10 -83 11 -138 0 -55 2
-115 5 -132 2 -18 -2 -55 -9 -84 -15 -58 -12 -62 50 -57 33 2 38 6 35 23 -10
51 -12 309 -2 336 23 65 -50 151 -88 105z"/>
<path d="M7601 16967 c-8 -10 -9 -22 -1 -41 10 -26 18 -379 10 -405 -6 -16 39
-32 67 -25 17 5 18 21 14 207 -2 161 -7 209 -20 237 -17 38 -50 50 -70 27z"/>
<path d="M8042 16971 c-11 -7 -11 -17 -2 -52 7 -24 17 -51 24 -59 7 -8 25 -46
39 -85 59 -161 114 -280 129 -283 12 -2 18 9 23 46 6 45 3 54 -29 105 -20 31
-36 61 -36 67 0 6 -14 43 -31 83 -19 45 -30 89 -31 120 0 35 -4 50 -18 57 -23
12 -50 13 -68 1z"/>
<path d="M8341 16966 c-15 -18 17 -76 42 -76 22 0 56 37 57 61 0 28 -78 40
-99 15z"/>
<path d="M8978 16964 c-15 -16 -15 -19 -1 -41 16 -24 22 -94 23 -280 0 -54 4
-67 28 -94 41 -46 56 -32 47 44 -3 33 -6 123 -6 200 1 110 -2 145 -14 164 -18
27 -54 30 -77 7z"/>
<path d="M17841 16967 c-8 -11 -9 -27 -2 -57 15 -66 9 -363 -7 -383 -8 -9 -11
-21 -7 -27 7 -11 76 -13 112 -4 l23 6 -21 27 c-20 24 -21 37 -19 201 3 196 3
210 -8 227 -12 20 -57 26 -71 10z"/>
<path d="M19201 16966 c-9 -11 -9 -22 2 -48 25 -62 21 -322 -7 -389 -9 -22 34
-40 71 -30 23 6 28 13 27 37 -2 31 -2 253 0 345 1 43 -4 62 -18 78 -22 24 -58
27 -75 7z"/>
<path d="M21990 16973 c0 -4 10 -17 22 -30 22 -23 23 -32 23 -193 0 -161 -1
-170 -23 -200 -13 -17 -21 -34 -18 -37 9 -9 127 -13 165 -6 33 6 33 6 14 22
-32 25 -35 47 -33 209 1 140 -1 155 -21 191 -17 31 -29 40 -58 45 -48 8 -71 8
-71 -1z"/>
<path d="M22930 16972 c0 -5 7 -15 14 -22 8 -6 20 -28 27 -48 6 -20 17 -43 23
-51 6 -8 16 -32 22 -55 12 -40 61 -173 92 -249 30 -74 64 -72 87 6 22 73 19
85 -19 108 -19 11 -39 32 -44 47 -30 75 -53 177 -50 220 l3 47 -77 3 c-43 2
-78 -1 -78 -6z"/>
<path d="M24606 16966 c3 -8 14 -18 23 -21 10 -3 31 -24 46 -48 26 -37 30 -53
33 -134 3 -80 1 -99 -18 -138 -12 -24 -32 -55 -46 -67 -35 -33 -31 -48 14 -48
25 0 49 10 76 30 68 51 88 101 87 212 -1 109 -58 198 -136 212 -22 4 -50 10
-63 13 -17 4 -21 2 -16 -11z"/>
<path d="M6766 16961 c-4 -5 -2 -40 3 -78 13 -101 13 -287 1 -334 -6 -23 -8
-45 -3 -49 4 -4 27 -3 50 2 l42 9 -5 162 c-7 225 -8 235 -40 268 -29 31 -39
35 -48 20z"/>
<path d="M7823 16963 c-16 -6 -17 -55 -1 -71 7 -7 25 -12 40 -12 24 0 28 4 28
28 0 42 -33 69 -67 55z"/>
<path d="M9283 16959 c-8 -8 -9 -19 -1 -38 5 -14 12 -105 15 -201 4 -135 9
-181 21 -202 21 -36 36 -41 57 -18 15 16 15 23 2 62 -10 31 -13 84 -10 193 4
181 -2 209 -43 213 -16 2 -34 -2 -41 -9z"/>
<path d="M10008 16963 c-22 -5 -22 -8 -2 -66 12 -36 15 -78 11 -204 -2 -87 -7
-168 -11 -180 -10 -26 19 -38 69 -29 33 6 34 8 23 34 -6 15 -11 113 -12 226
-2 181 -4 200 -21 212 -19 14 -27 15 -57 7z"/>
<path d="M10322 16959 c-26 -10 -25 -9 -11 -46 18 -45 20 -330 3 -371 -24 -59
-20 -66 33 -58 26 3 51 10 56 15 6 6 5 33 -1 68 -6 35 -7 110 -2 192 10 177
-9 225 -78 200z"/>
<path d="M15568 16954 c-15 -15 -15 -19 -2 -39 19 -29 22 -352 4 -386 -15 -26
0 -39 45 -39 47 0 55 10 45 55 -5 22 -7 111 -5 197 5 154 -1 203 -28 220 -19
12 -42 9 -59 -8z"/>
<path d="M16458 16960 c-15 -9 -15 -14 -3 -44 11 -26 15 -97 16 -305 1 -271 1
-272 -22 -297 -12 -13 -20 -26 -17 -29 8 -8 117 -10 124 -2 4 3 2 19 -4 34
-12 32 -10 480 3 555 7 42 5 49 -18 72 -27 27 -51 32 -79 16z"/>
<path d="M19505 16960 c-4 -6 -3 -36 1 -68 4 -31 7 -115 7 -187 1 -104 -3
-137 -17 -163 -9 -18 -15 -36 -12 -40 2 -4 38 -6 80 -4 l75 4 -26 22 -26 23
-1 181 -1 181 -29 30 c-32 33 -41 37 -51 21z"/>
<path d="M22424 16951 c-22 -10 -55 -37 -73 -60 -28 -35 -33 -51 -38 -115 -7
-97 15 -164 71 -212 41 -35 86 -45 86 -19 0 8 -10 33 -21 56 -33 62 -38 207
-11 271 12 26 32 54 46 64 55 35 11 47 -60 15z"/>
<path d="M22660 16952 c0 -9 8 -22 19 -29 24 -15 41 -87 43 -178 1 -84 -14
-144 -47 -183 -32 -38 -32 -42 8 -42 64 0 123 60 144 149 24 103 -14 225 -85
275 -45 30 -82 34 -82 8z"/>
<path d="M25363 16958 c-54 -26 -42 -128 15 -128 15 0 35 6 44 13 17 13 42
103 33 118 -8 12 -64 10 -92 -3z"/>
<path d="M26681 16961 c-21 -13 -1 -17 54 -10 28 3 43 7 35 8 -59 9 -77 9 -89
2z"/>
<path d="M892 16947 c-20 -9 -23 -16 -17 -46 4 -19 15 -46 26 -59 10 -14 19
-35 19 -48 0 -12 9 -44 21 -71 11 -26 24 -66 29 -88 20 -90 32 -135 36 -135
21 0 44 26 50 56 5 30 2 40 -20 63 -34 35 -100 233 -92 274 6 28 -8 68 -22 66
-4 0 -17 -5 -30 -12z"/>
<path d="M1141 16951 c-22 -14 3 -138 35 -167 13 -13 24 -32 24 -43 0 -11 4
-22 9 -25 5 -3 11 -20 14 -38 7 -42 43 -167 50 -175 4 -3 13 -3 22 0 23 9 20
89 -4 111 -24 22 -71 116 -71 142 0 11 -7 29 -15 40 -8 12 -15 50 -17 90 -3
71 -14 86 -47 65z"/>
<path d="M1394 16946 c-9 -24 15 -58 39 -54 17 2 22 10 22 33 0 25 -4 30 -28
33 -17 2 -29 -2 -33 -12z"/>
<path d="M4876 16942 c-3 -9 -2 -32 3 -50 15 -52 9 -361 -7 -371 -11 -6 -10
-10 4 -15 19 -7 82 2 89 14 3 4 0 32 -5 60 -6 29 -6 58 -2 64 14 19 -3 237
-21 279 -17 40 -51 51 -61 19z"/>
<path d="M9783 16944 c-8 -21 13 -64 32 -64 21 0 21 66 -1 74 -22 8 -24 8 -31
-10z"/>
<path d="M11283 16945 c-7 -20 2 -29 21 -22 9 4 13 13 10 22 -8 19 -23 19 -31
0z"/>
<path d="M12203 16953 c-29 -6 -29 -18 1 -84 13 -30 27 -70 31 -89 4 -19 11
-39 15 -45 4 -5 21 -52 37 -103 47 -146 85 -179 100 -88 5 29 1 44 -16 67 -13
17 -41 83 -63 147 -33 96 -39 122 -30 144 8 22 6 30 -7 42 -18 16 -26 17 -68
9z"/>
<path d="M12444 16946 c-3 -8 -1 -23 4 -33 5 -10 13 -37 17 -60 4 -24 18 -60
32 -80 24 -36 73 -178 73 -213 0 -10 9 -29 21 -44 17 -21 24 -24 40 -16 28 16
24 67 -10 118 -45 65 -95 226 -87 279 5 40 4 44 -20 53 -36 14 -64 12 -70 -4z"/>
<path d="M12705 16950 c-8 -13 32 -70 50 -70 18 0 58 57 50 70 -3 5 -26 10
-50 10 -24 0 -47 -5 -50 -10z"/>
<path d="M18136 16952 c-3 -5 0 -26 5 -47 16 -58 8 -357 -10 -379 -13 -15 -13
-19 0 -27 13 -9 95 -7 104 3 3 2 0 31 -5 64 -6 32 -7 120 -4 195 l5 136 -39
32 c-43 33 -48 36 -56 23z"/>
<path d="M18435 16938 c4 -13 10 -100 12 -194 4 -144 2 -176 -11 -202 -21 -40
-21 -39 18 -46 37 -7 91 8 81 24 -3 5 -8 89 -11 187 -6 204 -17 246 -68 251
-26 3 -28 1 -21 -20z"/>
<path d="M25600 16943 c0 -10 5 -24 12 -31 24 -24 38 -85 27 -119 -7 -22 -7
-44 0 -70 14 -49 14 -96 0 -127 -10 -22 -8 -28 18 -54 39 -40 85 -62 127 -62
46 0 51 12 16 39 -54 39 -64 73 -62 202 2 95 -1 124 -16 160 -23 54 -40 68
-86 76 -31 5 -36 3 -36 -14z"/>
<path d="M26204 16951 c24 -5 32 -14 47 -60 19 -59 32 -72 69 -69 30 3 51 42
43 79 -7 39 -50 59 -125 58 -43 -1 -54 -3 -34 -8z"/>
<path d="M10614 16918 c3 -18 9 -106 12 -195 7 -167 -1 -223 -32 -223 -7 0
-15 -4 -19 -9 -3 -6 22 -9 62 -8 l66 2 -2 176 c-1 97 -6 193 -11 213 -10 45
-36 76 -63 76 -16 0 -18 -5 -13 -32z"/>
<path d="M11990 16940 c0 -5 7 -10 15 -10 8 0 15 5 15 10 0 6 -7 10 -15 10 -8
0 -15 -4 -15 -10z"/>
<path d="M13974 16935 c-4 -8 2 -27 11 -42 17 -25 18 -26 31 -8 17 23 18 37 2
53 -16 16 -37 15 -44 -3z"/>
<path d="M15865 16928 c9 -30 21 -225 19 -308 0 -36 -6 -76 -13 -88 -16 -31
-6 -42 38 -42 48 0 65 18 51 54 -12 33 -13 214 0 276 7 35 5 50 -6 68 -26 39
-53 62 -75 62 -18 0 -20 -4 -14 -22z"/>
<path d="M16160 16947 c0 -1 4 -18 10 -37 16 -55 16 -341 1 -379 -8 -17 -12
-33 -10 -35 10 -8 85 -15 95 -8 8 5 9 36 4 102 -4 52 -5 109 -2 127 2 18 1 66
-3 107 -7 81 -34 126 -75 126 -11 0 -20 -1 -20 -3z"/>
<path d="M26011 16922 c-63 -43 -84 -90 -84 -189 0 -70 4 -88 27 -127 37 -63
89 -101 140 -102 23 0 56 -4 74 -9 50 -12 38 9 -13 24 -44 13 -75 42 -103 97
-6 11 -13 58 -15 104 -4 78 -3 88 25 142 16 31 33 60 38 63 19 12 9 25 -18 25
-16 0 -48 -13 -71 -28z"/>
<path d="M27500 16945 c0 -4 15 -24 33 -45 43 -52 94 -155 158 -325 27 -70 64
-125 84 -125 21 0 43 39 50 92 7 44 5 48 -16 57 -27 10 -60 52 -77 96 -50 137
-58 165 -54 198 3 25 0 38 -9 41 -26 8 -169 17 -169 11z"/>
<path d="M27921 16936 c-7 -8 -9 -30 -5 -58 5 -34 1 -57 -15 -93 -25 -57 -25
-55 -6 -55 8 0 24 17 35 38 12 20 37 62 56 92 19 30 34 57 34 60 0 10 -48 30
-69 30 -10 0 -24 -6 -30 -14z"/>
<path d="M7290 16929 c0 -6 5 -20 12 -32 7 -12 13 -51 13 -87 1 -36 2 -105 3
-153 l2 -88 41 -37 c22 -20 46 -37 52 -37 15 0 9 35 -9 56 -11 12 -15 57 -19
174 -4 156 -5 159 -32 187 -26 28 -63 38 -63 17z"/>
<path d="M16770 16932 c0 -5 11 -32 25 -60 48 -99 42 -212 -16 -308 -24 -40
-24 -44 5 -44 36 0 75 37 103 99 22 49 24 65 19 128 -8 102 -65 193 -120 193
-9 0 -16 -4 -16 -8z"/>
<path d="M18974 16926 c-3 -8 0 -25 7 -38 7 -13 13 -50 13 -83 l1 -60 35 0
c32 0 35 3 38 33 8 78 -73 204 -94 148z"/>
<path d="M26560 16915 c-40 -29 -43 -35 -65 -98 -27 -80 -10 -190 37 -247 41
-48 80 -70 126 -69 39 0 44 2 27 11 -11 5 -37 30 -57 55 -35 40 -38 50 -38
103 0 32 4 62 10 65 6 4 3 16 -7 31 -13 20 -14 30 -4 50 6 14 11 33 11 43 0
10 11 28 25 41 14 13 25 27 25 32 0 18 -58 7 -90 -17z"/>
<path d="M26830 16926 c0 -7 9 -35 21 -61 24 -55 19 -87 -16 -103 -31 -14 -26
-28 12 -35 16 -3 40 -9 56 -13 36 -8 57 10 57 50 0 54 -20 104 -54 141 -33 35
-76 47 -76 21z"/>
<path d="M5890 16915 c0 -8 6 -32 14 -52 19 -52 27 -150 16 -195 -6 -21 -14
-54 -19 -73 -8 -30 -6 -35 9 -35 27 0 67 37 73 67 3 16 10 44 15 64 13 51 -19
173 -55 211 -29 31 -53 36 -53 13z"/>
<path d="M7063 16923 c-7 -2 -13 -22 -13 -43 0 -44 25 -66 60 -55 26 8 26 45
-1 79 -21 27 -25 28 -46 19z"/>
<path d="M10896 16899 c-38 -44 -39 -94 -3 -176 22 -52 50 -74 69 -55 6 6 6
16 0 28 -21 40 -25 111 -7 163 9 28 14 55 10 61 -12 19 -43 10 -69 -21z"/>
<path d="M11126 16921 c-4 -6 -4 -41 -1 -78 4 -37 2 -87 -3 -109 -5 -23 -6
-47 -3 -53 11 -18 45 -1 70 35 20 29 23 42 18 85 -10 84 -59 156 -81 120z"/>
<path d="M17358 16918 c-47 -39 -84 -166 -67 -232 18 -73 27 -90 64 -127 34
-35 65 -50 65 -32 0 3 -12 30 -27 60 -23 49 -26 65 -24 150 1 71 7 106 21 136
11 22 20 44 20 49 0 12 -34 9 -52 -4z"/>
<path d="M17605 16889 c5 -24 11 -69 14 -99 5 -50 8 -55 33 -58 20 -2 28 2 33
18 18 56 -27 170 -69 178 -17 4 -18 0 -11 -39z"/>
<path d="M18716 16897 c-32 -41 -56 -108 -56 -154 0 -45 35 -141 62 -170 21
-23 58 -32 58 -13 0 5 -9 33 -20 62 -16 46 -18 65 -11 138 5 47 14 98 20 113
6 16 11 35 11 43 0 26 -39 15 -64 -19z"/>
<path d="M88 16913 c-2 -5 -1 -80 2 -168 4 -91 2 -169 -3 -182 -5 -12 -7 -33
-3 -47 5 -21 12 -26 39 -26 l32 0 -1 181 c-2 155 -4 186 -20 215 -17 32 -38
44 -46 27z"/>
<path d="M13226 16911 c-3 -4 2 -30 10 -56 19 -55 15 -208 -7 -287 -7 -26 -10
-51 -6 -55 12 -11 86 68 99 106 19 57 14 159 -10 211 -26 57 -74 102 -86 81z"/>
<path d="M14544 16883 c-57 -62 -77 -192 -40 -263 27 -51 67 -90 93 -90 13 0
23 2 23 4 0 2 -12 29 -26 60 -23 50 -26 68 -22 134 3 70 12 100 56 185 2 4 -8
7 -23 7 -19 0 -38 -12 -61 -37z"/>
<path d="M15326 16868 c15 -92 10 -249 -9 -282 -11 -21 -13 -34 -6 -42 24 -29
81 23 97 88 30 120 -1 242 -71 280 -18 9 -19 7 -11 -44z"/>
<path d="M28152 16904 c-26 -18 -29 -59 -6 -92 17 -24 56 -29 71 -9 8 10 43
102 43 114 0 11 -89 0 -108 -13z"/>
<path d="M28398 16914 c-4 -3 4 -31 18 -62 16 -36 25 -75 25 -107 0 -27 1 -92
3 -143 3 -93 4 -94 42 -133 34 -35 44 -40 79 -37 47 4 58 28 22 47 -35 19 -49
77 -48 204 0 121 -9 156 -55 199 -30 27 -74 44 -86 32z"/>
<path d="M9521 16875 c-11 -31 -10 -40 6 -73 21 -43 81 -80 131 -81 81 -2 162
-70 162 -136 l0 -30 20 33 c25 40 25 53 0 101 -21 41 -75 71 -129 71 -34 0
-115 43 -136 73 -8 12 -15 34 -15 49 0 40 -23 35 -39 -7z"/>
<path d="M12930 16882 c-32 -32 -49 -81 -56 -162 -6 -69 21 -127 85 -179 48
-39 49 -38 15 49 -24 62 -24 238 -1 274 35 52 4 65 -43 18z"/>
<path d="M14803 16898 c-20 -27 -22 -50 -6 -74 21 -33 53 -28 66 9 15 47 -33
100 -60 65z"/>
<path d="M15009 16873 c-44 -72 -51 -96 -46 -160 5 -71 38 -136 79 -161 37
-22 45 -9 24 35 -35 73 -31 209 9 306 6 13 2 17 -18 17 -18 0 -31 -10 -48 -37z"/>
<path d="M29123 16903 c-27 -5 -28 -14 -7 -55 12 -22 17 -69 20 -174 5 -191
21 -227 102 -240 49 -8 51 -2 20 57 -19 38 -21 55 -20 202 1 89 4 169 7 178
10 32 -47 46 -122 32z"/>
<path d="M29445 16890 c-3 -5 3 -24 15 -40 18 -26 22 -48 25 -151 3 -67 0
-141 -5 -166 -11 -47 -4 -69 33 -110 25 -28 46 -29 91 -5 l33 18 -23 28 c-28
32 -26 13 -28 246 l-1 185 -67 3 c-39 2 -69 -1 -73 -8z"/>
<path d="M13722 16878 c-31 -31 3 -111 60 -140 18 -9 59 -21 91 -27 94 -17
137 -59 137 -132 0 -32 11 -37 30 -14 8 10 11 34 8 69 -4 47 -9 58 -38 83 -41
35 -56 41 -98 42 -60 2 -145 60 -154 105 -4 24 -20 30 -36 14z"/>
<path d="M30020 16880 c0 -5 5 -10 11 -10 5 0 7 5 4 10 -3 6 -8 10 -11 10 -2
0 -4 -4 -4 -10z"/>
<path d="M363 16873 c-7 -2 -13 -10 -13 -16 0 -6 -6 -18 -13 -26 -8 -9 -19
-40 -25 -69 -15 -67 3 -128 54 -186 31 -36 57 -46 38 -14 -5 7 -11 20 -13 28
-7 20 -7 252 -1 269 6 15 -8 22 -27 14z"/>
<path d="M682 16753 c0 -65 -5 -131 -11 -146 -6 -16 -11 -35 -11 -43 0 -24 39
-15 57 14 10 15 20 29 24 32 3 3 9 37 13 75 5 53 3 77 -9 99 -8 15 -15 34 -15
41 0 12 -31 45 -43 45 -3 0 -6 -53 -5 -117z"/>
<path d="M29831 16834 c-55 -49 -84 -140 -67 -209 5 -16 12 -47 17 -67 10 -37
66 -105 106 -126 26 -14 33 -15 52 -3 11 7 6 19 -22 56 -40 52 -52 95 -44 157
3 22 1 52 -4 66 -8 21 -4 37 21 84 16 32 30 63 30 68 0 23 -52 8 -89 -26z"/>
<path d="M30106 16861 c-3 -5 6 -37 20 -72 24 -61 24 -65 8 -92 -14 -25 -14
-31 -3 -43 16 -15 68 -22 87 -10 28 17 3 134 -41 188 -17 21 -64 40 -71 29z"/>
<path d="M30637 16864 c-20 -21 19 -104 50 -104 18 0 28 47 17 79 -9 26 -51
41 -67 25z"/>
<path d="M30354 16793 c-37 -89 12 -151 139 -177 136 -27 194 -86 165 -168
-12 -34 -7 -42 19 -34 23 7 53 66 53 102 0 40 -36 108 -67 125 -15 9 -62 22
-103 29 -120 21 -170 63 -155 132 6 24 3 28 -15 28 -15 0 -25 -11 -36 -37z"/>
<path d="M2010 16761 c-5 -11 -7 -22 -2 -24 12 -8 403 -4 408 4 8 14 -31 18
-177 17 -90 0 -153 4 -167 11 -30 16 -50 14 -62 -8z"/>
<path d="M2532 16759 c-44 -13 -31 -29 24 -29 37 0 44 3 44 20 0 22 -15 24
-68 9z"/>
<path d="M2440 16740 c0 -13 20 -13 40 0 12 8 9 10 -12 10 -16 0 -28 -4 -28
-10z"/>
<path d="M25375 16714 c-87 -31 -112 -110 -54 -171 24 -27 38 -33 71 -33 33 0
38 2 29 14 -21 25 -25 109 -7 144 17 33 21 63 9 61 -5 -1 -26 -8 -48 -15z"/>
<path d="M7071 16699 c-58 -35 -67 -104 -21 -151 43 -42 56 -33 52 36 -3 40 1
64 12 81 9 13 16 28 16 34 0 19 -28 19 -59 0z"/>
<path d="M20951 16707 c-18 -18 -14 -162 5 -181 21 -22 34 -20 73 14 l34 29
-26 38 c-15 21 -31 52 -37 70 -13 35 -32 47 -49 30z"/>
<path d="M2770 16685 c0 -20 15 -27 44 -19 33 8 23 31 -14 32 -19 0 -30 -4
-30 -13z"/>
<path d="M28128 16650 c-39 -30 -53 -73 -38 -111 17 -39 69 -79 105 -79 25 0
27 2 20 28 -11 38 -11 111 -2 150 8 31 8 32 -26 32 -19 0 -45 -9 -59 -20z"/>
<path d="M9517 16603 c-12 -12 -7 -58 9 -81 12 -18 19 -20 35 -11 16 8 19 17
14 37 -10 42 -42 72 -58 55z"/>
<path d="M13707 16603 c-13 -12 -7 -81 8 -93 23 -19 65 -4 65 24 0 42 -52 91
-73 69z"/>
<path d="M20208 16593 c-27 -32 -29 -42 -13 -73 12 -23 22 -30 45 -30 49 0 68
62 30 100 -25 25 -42 25 -62 3z"/>
<path d="M26327 16568 c-10 -17 -15 -33 -12 -36 11 -11 55 18 55 37 0 32 -25
31 -43 -1z"/>
<path d="M26920 16581 c0 -5 -12 -16 -27 -23 -30 -14 -45 -58 -20 -58 20 0 80
57 75 72 -5 15 -28 23 -28 9z"/>
<path d="M3366 16555 c-32 -30 -33 -53 -3 -63 12 -4 93 -6 180 -4 l157 3 15
29 c14 27 14 30 -6 41 -16 8 -31 8 -59 0 -21 -6 -68 -13 -105 -16 -54 -3 -76
0 -106 16 -47 23 -41 24 -73 -6z"/>
<path d="M10915 16552 c-3 -3 -5 -21 -5 -39 l0 -35 93 2 c190 4 196 3 229 -30
27 -28 30 -35 23 -75 -3 -25 -3 -45 2 -45 25 1 53 44 53 82 0 30 -58 95 -91
101 -13 3 -46 10 -74 15 -27 6 -70 8 -95 5 -27 -3 -62 1 -87 10 -23 8 -45 12
-48 9z"/>
<path d="M22537 16524 c-12 -12 14 -34 39 -34 15 0 24 6 24 15 0 8 -6 15 -14
15 -8 0 -21 2 -28 5 -8 3 -17 3 -21 -1z"/>
<path d="M30342 16508 c-20 -20 -14 -79 9 -104 20 -22 24 -22 50 -8 36 18 36
33 4 84 -26 41 -42 49 -63 28z"/>
<path d="M30898 16503 c-8 -10 -18 -26 -21 -36 -10 -26 33 -95 62 -102 67 -17
111 90 55 134 -32 26 -76 27 -96 4z"/>
<path d="M25470 16490 c0 -5 7 -10 16 -10 8 0 12 5 9 10 -3 6 -10 10 -16 10
-5 0 -9 -4 -9 -10z"/>
<path d="M26715 16491 c-7 -12 32 -34 45 -26 6 3 10 13 10 21 0 16 -45 20 -55
5z"/>
<path d="M30183 16473 c-16 -6 -17 -33 -3 -33 11 0 26 28 19 34 -2 2 -10 1
-16 -1z"/>
<path d="M10857 16426 c-14 -21 -14 -26 2 -57 19 -35 49 -55 38 -25 -4 10 -7
38 -7 62 0 49 -10 56 -33 20z"/>
<path d="M30032 16408 c3 -7 15 -15 27 -16 16 -3 22 1 19 10 -3 7 -15 15 -27
16 -16 3 -22 -1 -19 -10z"/>
<path d="M7982 16388 c-17 -17 -15 -63 3 -78 19 -16 65 -5 65 16 0 24 -29 74
-43 74 -7 0 -18 -5 -25 -12z"/>
<path d="M24521 14643 c-19 -16 -24 -38 -41 -188 -21 -191 -33 -339 -55 -695
-8 -135 -19 -272 -25 -305 -16 -96 -13 -135 9 -135 12 0 23 11 31 33 18 50 39
213 50 391 17 264 40 521 61 689 27 214 22 252 -30 210z"/>
<path d="M14995 14635 c-66 -14 -189 -66 -217 -92 -23 -20 -24 -69 -2 -77 11
-4 43 9 83 33 90 53 166 74 279 75 91 1 94 0 118 -27 18 -21 24 -40 24 -75 0
-134 -104 -365 -224 -500 -31 -35 -56 -71 -56 -82 0 -59 106 -65 300 -16 74
19 161 37 192 41 67 8 94 24 84 50 -6 16 -16 17 -99 12 -50 -4 -126 -16 -167
-27 -77 -20 -210 -38 -210 -27 0 3 28 50 62 104 112 178 171 338 172 468 1 81
-18 119 -71 141 -41 18 -187 17 -268 -1z"/>
<path d="M11576 14550 c-88 -82 -222 -305 -276 -460 -69 -201 -67 -387 4 -489
102 -147 303 -171 524 -64 147 72 230 191 203 291 -26 94 -111 127 -257 98
-47 -9 -113 -26 -147 -38 -64 -22 -199 -93 -254 -134 -17 -13 -36 -24 -42 -24
-18 0 -13 148 8 235 25 100 63 204 103 275 54 97 159 240 199 272 47 38 50 71
7 76 -20 2 -38 -7 -72 -38z m337 -686 c40 -21 47 -31 47 -72 0 -112 -130 -217
-322 -259 -94 -20 -164 -9 -227 38 -46 33 -51 48 -21 67 28 17 25 32 -7 32
l-28 1 28 23 c53 43 259 140 346 162 105 28 142 29 184 8z"/>
<path d="M22790 14580 c-54 -9 -268 -77 -309 -99 -26 -15 -39 -60 -20 -72 20
-13 48 -4 114 35 31 20 85 44 119 55 73 24 217 36 311 26 57 -6 73 -12 98 -36
26 -27 29 -34 23 -72 -16 -105 -135 -286 -317 -482 -100 -108 -192 -228 -230
-299 -22 -43 -23 -45 -6 -64 28 -31 71 -34 173 -12 219 46 614 192 614 227 0
21 -34 15 -142 -26 -109 -41 -292 -99 -394 -125 -59 -15 -174 -22 -174 -11 0
32 81 139 242 323 231 261 308 386 308 495 0 51 -4 62 -28 87 -16 15 -46 33
-68 39 -52 16 -245 22 -314 11z"/>
<path d="M14375 14514 c-124 -43 -210 -62 -345 -75 -58 -6 -115 -17 -127 -25
-25 -16 -30 -53 -11 -72 17 -17 55 -15 66 3 6 11 40 20 114 30 120 16 148 22
306 72 62 20 115 34 117 31 9 -9 -25 -79 -84 -172 -105 -167 -161 -264 -161
-280 0 -9 11 -21 24 -27 26 -12 80 -2 240 45 49 14 127 29 174 33 l85 6 -7
-29 c-10 -39 -39 -85 -100 -158 -142 -171 -279 -290 -366 -319 -36 -12 -45
-20 -45 -38 0 -21 5 -24 41 -27 33 -2 51 4 100 37 189 126 411 389 439 519 6
27 3 38 -16 58 -20 21 -31 24 -95 24 -76 0 -122 -10 -262 -54 -78 -24 -122
-32 -122 -21 0 2 21 38 48 80 106 170 153 251 169 293 15 40 15 47 2 71 -21
38 -65 36 -184 -5z"/>
<path d="M12243 14485 c-41 -17 -80 -72 -144 -201 -82 -166 -78 -264 14 -308
55 -25 143 -38 210 -31 146 17 268 72 372 167 l65 60 0 -49 c0 -103 -22 -371
-35 -428 -14 -62 -12 -75 9 -75 23 0 55 44 65 90 10 47 25 216 36 420 7 134
20 219 39 255 17 33 10 62 -17 71 -43 13 -87 -71 -87 -166 0 -41 -5 -50 -42
-87 -79 -76 -182 -138 -287 -174 -100 -35 -285 -21 -313 24 -36 57 52 263 154
359 l50 46 -21 21 c-24 24 -26 25 -68 6z"/>
<path d="M18869 14440 l-52 -50 -34 26 c-117 89 -269 82 -365 -16 -55 -57 -66
-96 -48 -170 18 -76 65 -139 140 -187 36 -24 74 -49 84 -56 19 -13 18 -17 -19
-123 -46 -130 -58 -254 -32 -316 47 -111 234 -102 353 16 72 71 88 135 60 230
-23 76 -56 109 -166 165 -55 29 -100 54 -100 57 0 4 25 56 56 118 82 162 141
246 192 274 42 24 53 47 30 70 -22 22 -48 12 -99 -38z m-141 -59 c65 -33 66
-39 24 -112 -20 -35 -52 -98 -71 -139 -19 -41 -37 -79 -41 -83 -16 -18 -136
59 -176 114 -53 72 -50 143 8 196 58 54 175 65 256 24z m31 -475 c122 -62 172
-129 157 -211 -16 -82 -173 -167 -269 -146 -64 15 -70 26 -64 106 7 83 65 295
82 295 3 0 45 -20 94 -44z"/>
<path d="M16452 14415 c-7 -14 -12 -56 -12 -93 -1 -74 -7 -138 -44 -472 -37
-323 -32 -445 19 -445 15 0 19 6 17 25 -12 119 -12 191 3 310 43 357 54 459
55 506 0 28 5 76 11 107 9 44 9 60 -1 72 -18 22 -35 18 -48 -10z"/>
<path d="M20923 14420 c-64 -38 -123 -187 -123 -309 0 -27 -4 -61 -10 -75 -8
-23 -15 -26 -57 -26 -59 0 -200 24 -270 46 -86 27 -88 32 -42 154 21 58 46
119 55 136 19 38 15 67 -8 72 -21 4 -28 -11 -98 -199 -60 -163 -62 -182 -17
-205 72 -38 169 -56 307 -59 l135 -2 6 -94 c4 -52 10 -149 14 -216 8 -126 16
-156 35 -137 21 21 29 121 18 221 -5 54 -11 175 -11 268 -2 152 0 178 21 244
26 83 57 121 100 121 49 0 72 48 33 70 -29 15 -52 12 -88 -10z"/>
<path d="M16937 14262 c-19 -21 -22 -43 -7 -58 7 -7 -4 -68 -35 -195 -35 -139
-47 -212 -52 -297 l-6 -113 -53 -37 c-56 -39 -89 -84 -80 -108 7 -19 31 -18
52 4 25 25 76 62 86 62 5 0 14 -12 20 -27 25 -57 49 -82 90 -94 94 -25 183 18
272 130 81 103 97 161 54 201 -41 38 -130 20 -295 -60 -44 -22 -84 -40 -89
-40 -20 0 9 196 57 378 54 208 59 265 23 270 -11 2 -28 -6 -37 -16z m302 -595
c8 -11 3 -25 -23 -61 -64 -90 -137 -136 -216 -136 -42 0 -55 4 -76 27 -14 15
-23 34 -22 42 4 20 124 80 227 115 89 30 95 30 110 13z"/>
<path d="M10790 13979 c-160 -33 -265 -42 -543 -43 -288 -1 -305 -4 -290 -43
11 -28 178 -38 414 -23 320 19 549 67 549 114 0 20 -19 19 -130 -5z"/>
<path d="M14111 13282 c-19 -35 31 -62 162 -87 119 -23 427 -20 594 5 72 11
193 25 270 31 76 6 148 15 161 20 30 12 28 37 -5 45 -43 11 -289 -4 -418 -25
-231 -38 -556 -36 -665 4 -76 28 -87 29 -99 7z"/>
<path d="M18705 13254 c-49 -7 -108 -19 -130 -26 -35 -11 -40 -17 -40 -43 0
-40 22 -42 138 -14 97 24 280 30 532 19 103 -5 110 -4 110 14 0 27 -56 44
-184 56 -139 13 -314 11 -426 -6z"/>
<path d="M23080 13249 c-96 -10 -206 -24 -245 -31 -48 -8 -151 -12 -322 -10
-254 3 -319 -3 -428 -40 -34 -11 -40 -17 -43 -45 -4 -41 7 -42 121 -11 75 21
101 23 297 21 169 -2 248 2 370 18 85 11 227 29 315 39 181 21 215 30 215 60
0 18 -6 20 -52 19 -29 -1 -132 -9 -228 -20z"/>
<path d="M16477 13248 c-48 -13 -69 -50 -45 -75 14 -13 23 -14 62 -4 75 19
120 13 258 -34 212 -71 417 -98 432 -58 4 9 3 20 -1 23 -4 4 -65 17 -135 29
-121 20 -186 38 -343 94 -82 30 -175 40 -228 25z"/>
<path d="M24040 13248 c-29 -11 -35 -47 -13 -70 19 -18 26 -19 147 -7 169 16
324 7 454 -25 57 -14 114 -26 128 -26 28 0 44 28 23 41 -24 16 -192 67 -258
79 -71 13 -451 19 -481 8z"/>
<path d="M20659 13226 c-65 -13 -91 -31 -87 -60 4 -27 36 -32 107 -16 85 19
207 15 274 -8 89 -32 119 -3 48 45 -75 50 -209 66 -342 39z"/>
<path d="M10687 13094 c-18 -19 -5 -45 36 -66 41 -23 48 -23 327 -21 157 1
445 8 640 17 742 33 1376 31 1868 -5 159 -12 202 -7 202 25 0 19 -29 23 -195
31 -71 3 -188 10 -260 15 -204 14 -1208 12 -1615 -4 -706 -28 -849 -30 -900
-11 -58 22 -93 28 -103 19z"/>
<path d="M19824 13005 c-8 -21 4 -35 30 -35 27 0 51 24 41 40 -9 15 -65 12
-71 -5z"/>
<path d="M19946 13013 c-11 -11 -6 -23 9 -23 8 0 15 4 15 9 0 13 -16 22 -24
14z"/>
<path d="M24350 12952 c-96 -32 -190 -91 -190 -118 0 -18 18 -18 54 1 44 23
42 19 -15 -32 -62 -57 -140 -172 -166 -246 -14 -40 -18 -81 -18 -177 0 -119 2
-127 28 -168 40 -62 108 -102 172 -102 105 0 236 94 372 268 135 170 203 304
211 414 4 65 4 68 -26 96 -54 51 -133 75 -257 79 -87 2 -122 -1 -165 -15z
m279 -73 c91 -31 106 -47 106 -111 -1 -107 -126 -311 -283 -460 -132 -126
-227 -158 -303 -103 -59 44 -79 95 -79 203 0 107 17 167 72 252 46 71 91 113
151 140 37 17 47 27 47 46 0 13 -5 24 -12 24 -8 0 -9 3 -2 10 33 33 208 33
303 -1z"/>
<path d="M22795 12906 c-17 -25 -16 -27 13 -72 55 -83 55 -152 -3 -415 -35
-157 -41 -226 -20 -223 12 2 25 39 59 164 78 286 86 385 40 495 -34 80 -60 95
-89 51z"/>
<path d="M20780 12844 c-67 -38 -139 -112 -146 -152 -4 -22 -19 -43 -46 -65
-56 -45 -146 -166 -169 -228 -11 -29 -23 -83 -26 -120 l-6 -67 43 -46 c27 -29
71 -60 116 -83 64 -31 80 -35 123 -30 28 3 76 18 108 33 108 51 284 256 319
371 29 97 7 215 -62 325 -54 85 -166 112 -254 62z m161 -67 c53 -35 104 -160
104 -252 0 -63 -4 -77 -35 -130 -19 -32 -73 -98 -120 -145 -68 -70 -96 -91
-143 -108 -32 -12 -72 -22 -89 -22 -43 0 -106 32 -163 82 l-47 42 5 58 c10
111 102 245 207 302 47 25 64 29 141 30 90 1 105 6 111 40 6 34 -23 41 -129
29 -54 -6 -100 -8 -103 -6 -7 7 65 68 103 87 48 23 117 20 158 -7z"/>
<path d="M6900 12780 c-30 -33 -80 -149 -107 -253 -20 -74 -21 -252 -3 -329
22 -94 75 -169 142 -204 46 -24 125 -22 176 5 24 12 46 20 49 17 3 -3 0 -73
-7 -157 -16 -199 -5 -299 35 -299 13 0 15 24 15 143 0 220 15 349 51 425 27
60 28 64 10 69 -22 6 -21 30 10 180 19 95 35 136 75 188 34 46 45 80 31 100
-18 24 -42 10 -76 -43 -58 -91 -88 -200 -111 -402 -7 -63 -17 -101 -28 -113
-47 -53 -147 -72 -217 -43 -75 32 -118 152 -117 326 1 122 43 264 97 327 38
44 45 77 19 87 -10 4 -26 -5 -44 -24z"/>
<path d="M18964 12785 c-11 -16 -14 -34 -9 -54 4 -17 8 -194 10 -393 3 -369
14 -483 43 -483 10 0 14 100 16 463 3 392 1 466 -11 478 -20 20 -30 18 -49
-11z"/>
<path d="M12735 12756 c-162 -37 -345 -143 -500 -288 -78 -72 -176 -214 -194
-281 -54 -193 133 -398 427 -468 156 -38 317 -14 482 72 236 122 333 304 261
489 -15 40 -21 77 -21 137 0 61 -6 99 -24 147 -33 93 -65 130 -143 167 -79 38
-190 47 -288 25z m266 -79 c85 -35 139 -117 139 -211 l0 -40 -51 75 c-28 41
-67 91 -87 112 -38 39 -97 71 -113 61 -15 -9 -10 -32 9 -38 51 -17 222 -246
222 -299 0 -39 -53 -73 -144 -93 -91 -20 -122 -40 -112 -72 10 -29 37 -28 142
4 63 19 94 34 119 60 l35 35 11 -28 c18 -48 12 -119 -15 -179 -47 -103 -187
-209 -356 -271 -66 -24 -89 -27 -190 -27 -144 1 -242 30 -354 105 -162 108
-200 208 -131 341 117 224 403 428 675 482 44 8 165 -2 201 -17z"/>
<path d="M26780 12646 c0 -17 9 -27 30 -36 94 -39 224 -250 283 -458 18 -67
21 -102 21 -267 0 -301 -47 -490 -169 -680 -52 -82 -149 -188 -216 -235 -34
-25 -76 -57 -93 -71 -31 -27 -92 -49 -133 -49 -21 0 -23 5 -23 49 0 71 36 278
61 347 11 32 22 70 22 83 2 30 -26 50 -50 35 -35 -22 -103 -331 -103 -469 0
-113 30 -137 138 -110 75 18 245 85 407 159 55 25 107 46 116 46 23 0 41 25
37 52 -6 43 -25 38 -217 -53 -31 -15 -58 -25 -60 -23 -2 2 25 35 61 73 185
196 265 413 284 770 11 217 -21 384 -108 554 -102 199 -196 307 -268 307 -14
0 -20 -6 -20 -24z"/>
<path d="M15002 12569 c-31 -12 -38 -35 -66 -221 -34 -226 -48 -387 -49 -563
0 -161 12 -229 41 -223 14 3 16 31 17 223 1 221 8 292 47 548 17 112 25 144
44 167 13 15 24 35 24 44 0 22 -31 35 -58 25z"/>
<path d="M16995 12538 c-115 -15 -208 -60 -243 -118 -10 -15 -49 -53 -88 -83
-67 -53 -128 -118 -152 -163 -38 -72 -46 -275 -14 -346 63 -139 284 -215 477
-165 33 8 91 33 129 54 184 102 246 218 246 463 0 119 -6 159 -34 222 l-16 38
60 -7 c50 -5 64 -3 80 12 25 22 26 51 3 64 -10 5 -76 11 -148 15 -71 3 -155 9
-185 13 -30 5 -82 5 -115 1z m236 -120 c45 -49 63 -124 63 -253 -1 -148 -16
-213 -64 -274 -48 -60 -164 -135 -245 -155 -175 -46 -369 12 -433 129 -23 43
-23 195 1 257 27 69 151 182 258 236 98 49 250 91 332 92 53 0 61 -3 88 -32z"/>
<path d="M30832 12528 c-16 -16 -15 -46 2 -138 23 -118 42 -398 28 -412 -9 -9
-37 -7 -109 6 -54 10 -109 17 -122 15 -32 -5 -50 -33 -35 -56 9 -14 39 -21
135 -33 l124 -15 3 -38 c2 -21 -1 -60 -7 -85 -11 -54 0 -76 26 -49 10 9 21 47
28 89 l11 73 48 7 c47 6 52 5 111 -37 138 -99 313 -151 480 -142 119 5 184 38
222 111 13 25 13 30 0 43 -13 13 -18 10 -42 -22 -34 -43 -65 -61 -125 -70 -57
-8 -187 8 -292 37 -78 21 -178 72 -185 94 -2 5 23 18 54 28 132 41 251 125
296 208 37 70 13 176 -52 231 -67 56 -199 58 -309 6 -49 -24 -176 -145 -187
-179 -12 -39 -25 -19 -25 38 0 55 -25 262 -35 290 -6 15 -27 16 -43 0z m545
-208 c36 -29 63 -80 63 -118 0 -78 -117 -163 -304 -221 -64 -20 -71 -20 -93
-6 -75 49 -84 159 -20 240 74 96 154 137 258 132 52 -2 72 -7 96 -27z m-437
-312 c7 -18 15 -37 18 -41 2 -5 -6 -7 -19 -5 -20 2 -25 10 -27 41 -4 46 9 48
28 5z"/>
<path d="M8070 12480 c-41 -11 -115 -27 -164 -36 -92 -17 -126 -37 -126 -74 0
-11 6 -23 14 -26 8 -3 87 13 176 35 169 43 262 51 295 28 14 -11 17 -22 12
-56 -8 -65 -103 -250 -204 -399 -12 -19 -47 -84 -78 -145 -80 -163 -87 -237
-25 -292 20 -18 36 -20 164 -19 153 1 242 15 357 60 79 30 161 95 143 114 -9
9 -32 2 -95 -29 -108 -53 -195 -70 -369 -73 l-142 -2 -24 27 c-13 16 -24 34
-24 41 0 19 115 250 149 300 57 84 162 283 181 345 27 85 26 155 0 181 -45 45
-116 51 -240 20z"/>
<path d="M28693 12368 c-10 -12 -34 -82 -47 -138 -13 -53 -36 -269 -36 -345 0
-80 -11 -146 -31 -197 -35 -86 -82 29 -155 373 -34 165 -56 189 -112 124 -55
-62 -102 -192 -121 -335 -6 -47 -25 -181 -41 -299 -17 -117 -30 -220 -30 -228
0 -24 44 -11 57 17 13 29 47 268 62 445 6 66 18 145 27 175 20 70 64 170 75
170 4 0 12 -26 18 -57 49 -263 89 -392 142 -456 34 -42 58 -46 99 -17 60 43
77 116 90 380 5 112 16 227 26 270 22 100 23 124 3 128 -9 1 -20 -3 -26 -10z"/>
<path d="M29158 12056 c-20 -7 -51 -22 -69 -34 -43 -27 -143 -146 -171 -202
-28 -57 -36 -162 -16 -210 37 -88 129 -150 224 -150 85 0 284 68 284 97 0 17
-14 17 -112 -7 -137 -33 -225 -24 -283 27 -34 30 -55 66 -55 94 0 27 0 27 58
22 42 -4 67 -1 88 10 49 26 111 98 147 172 57 116 59 153 7 180 -35 18 -54 18
-102 1z m72 -83 c0 -58 -110 -205 -161 -215 -33 -6 -89 10 -89 26 0 43 64 127
135 176 57 40 115 46 115 13z"/>
<path d="M30295 12048 c-55 -29 -165 -142 -203 -208 -33 -58 -33 -58 -52 28
-15 65 -43 100 -105 131 -56 28 -86 24 -183 -24 -83 -42 -153 -113 -189 -192
-21 -46 -25 -65 -21 -117 8 -98 66 -185 135 -202 42 -11 98 13 141 60 45 48
67 111 96 265 16 92 35 123 60 102 31 -26 39 -109 33 -377 -4 -240 -6 -267
-32 -364 -34 -132 -84 -238 -131 -280 -34 -30 -41 -32 -86 -26 -43 6 -48 5
-48 -12 0 -24 16 -38 52 -47 36 -9 105 30 147 84 82 103 140 298 148 499 3 72
9 132 13 132 3 0 15 -7 26 -15 26 -20 91 -18 139 4 48 22 108 85 137 146 12
25 25 45 28 45 4 0 12 -26 19 -57 13 -60 34 -103 51 -103 4 0 16 7 24 16 14
13 14 19 2 42 -27 54 -47 196 -44 308 3 106 2 109 -19 112 -29 4 -38 -19 -46
-119 -8 -94 -55 -221 -102 -276 -42 -49 -103 -77 -139 -63 -43 16 -59 53 -53
118 10 115 88 232 207 313 49 33 69 66 55 88 -8 15 -13 14 -60 -11z m-395
-104 c0 -3 -6 -26 -14 -52 -8 -26 -27 -100 -41 -166 -23 -102 -32 -123 -62
-157 -28 -31 -42 -39 -70 -39 -69 0 -132 103 -113 184 17 77 102 169 193 212
47 22 107 32 107 18z"/>
<path d="M23210 11944 c-30 -3 -154 -16 -275 -30 -206 -23 -485 -53 -705 -74
-132 -13 -143 -17 -180 -55 -32 -33 -33 -35 -16 -54 10 -11 28 -22 42 -25 17
-5 24 -13 24 -32 0 -13 6 -27 14 -30 7 -3 62 -6 122 -8 60 -2 135 -7 167 -11
40 -6 57 -5 57 4 0 6 -14 11 -31 11 -26 0 -30 3 -27 23 3 19 10 22 51 25 44 3
62 15 35 24 -6 2 -9 12 -5 21 8 21 67 23 97 5 17 -11 22 -10 30 1 10 17 24 19
230 26 85 3 283 12 440 20 157 8 341 15 410 17 124 3 125 3 124 -19 0 -13 3
-23 8 -23 4 0 8 -4 8 -10 0 -5 -13 -10 -30 -10 -16 0 -30 4 -30 10 0 11 -29
11 -167 -2 -56 -5 -188 -10 -295 -12 -255 -2 -548 -13 -555 -19 -13 -14 11
-25 42 -20 24 4 39 1 51 -11 11 -11 25 -15 43 -11 14 3 100 7 191 10 91 2 208
7 261 11 66 4 99 3 103 -5 4 -6 -3 -12 -16 -15 -63 -13 -196 -26 -313 -31
-161 -7 -336 -25 -351 -37 -7 -5 -30 -6 -52 -2 -21 3 -48 2 -58 -4 -13 -7 -25
-7 -37 0 -14 7 -23 6 -35 -5 -9 -8 -48 -18 -87 -22 -66 -7 -231 -41 -248 -52
-4 -3 -3 -11 3 -18 12 -15 17 -14 147 11 86 17 103 17 103 4 0 -5 -12 -10 -27
-10 -16 0 -53 -7 -83 -15 -73 -20 -164 -19 -195 1 -14 9 -39 14 -62 12 -33 -3
-38 -7 -41 -30 -4 -37 42 -60 133 -66 79 -5 204 23 286 64 26 13 49 21 52 18
2 -3 38 5 78 17 41 12 101 26 134 32 33 6 63 15 67 21 8 11 64 15 98 5 14 -3
52 -3 85 2 98 14 471 24 760 22 263 -3 371 -11 506 -39 94 -19 250 -41 346
-50 72 -6 83 -4 89 10 12 31 -14 44 -104 51 -48 3 -175 20 -282 37 -141 21
-246 32 -377 35 -101 3 -183 10 -183 14 0 5 8 9 18 9 9 0 80 7 157 15 285 30
365 30 515 0 74 -15 146 -34 160 -42 22 -12 31 -12 65 0 27 9 41 21 43 34 3
19 -3 21 -113 25 -73 3 -120 9 -128 17 -9 10 8 12 87 9 116 -4 131 6 103 64
l-16 34 -163 17 c-90 9 -229 21 -309 27 -164 11 -241 21 -449 56 -143 25 -402
38 -540 28z m295 -54 c145 -11 254 -25 263 -35 14 -14 -16 -14 -139 1 -74 9
-218 17 -321 18 -102 0 -184 3 -181 6 4 4 108 14 203 18 19 1 98 -3 175 -8z
m-598 -55 c-23 -20 -31 -23 -51 -14 -17 8 -49 7 -122 -6 -115 -20 -274 -28
-274 -15 0 11 36 17 150 26 47 3 119 12 160 19 41 7 95 13 120 13 l45 1 -28
-24z m-577 -75 c0 -5 -7 -10 -15 -10 -8 0 -15 5 -15 10 0 6 7 10 15 10 8 0 15
-4 15 -10z m-30 -54 c-25 -14 -40 -13 -40 5 0 5 15 9 33 9 l32 -1 -25 -13z
m88 2 c-3 -7 -11 -13 -18 -13 -7 0 -15 6 -17 13 -3 7 4 12 17 12 13 0 20 -5
18 -12z"/>
<path d="M22610 11705 c-30 -17 -30 -17 43 -19 58 -2 82 8 56 25 -21 13 -71
10 -99 -6z"/>
<path d="M22520 11690 c0 -13 30 -13 50 0 11 7 7 10 -17 10 -18 0 -33 -4 -33
-10z"/>
<path d="M21360 11589 c-52 -5 -167 -18 -255 -28 -88 -11 -259 -27 -380 -36
-121 -9 -278 -20 -350 -25 -71 -6 -318 -14 -548 -20 -230 -5 -422 -12 -426
-14 -4 -3 -198 -10 -432 -16 -464 -12 -635 -19 -1079 -49 -162 -11 -403 -25
-535 -31 -132 -6 -341 -17 -465 -25 -397 -26 -925 -54 -1310 -70 -346 -15
-651 -37 -875 -65 -550 -68 -828 -103 -975 -125 -672 -99 -905 -119 -1530
-130 -542 -9 -719 -20 -875 -52 -101 -20 -117 -28 -113 -56 4 -26 3 -26 168 2
133 22 369 36 775 46 315 7 666 23 815 35 130 11 481 56 550 71 25 5 232 34
460 64 228 31 431 58 450 61 24 3 30 2 20 -4 -33 -21 -409 -83 -645 -107 -137
-14 -266 -30 -285 -35 -54 -13 -289 -48 -450 -65 -80 -9 -197 -25 -260 -36
-85 -15 -189 -23 -395 -29 -302 -9 -445 -21 -625 -50 -63 -11 -160 -24 -215
-30 -145 -17 -241 -58 -209 -90 5 -5 44 0 89 11 113 27 488 78 690 95 94 7
249 14 345 14 110 0 207 6 260 15 47 8 216 31 375 51 160 19 326 42 370 50 44
8 177 24 295 35 243 23 321 34 575 83 99 19 245 40 325 46 80 6 233 22 340 36
158 20 266 26 572 33 207 5 381 12 387 16 6 3 219 11 474 16 311 6 496 14 567
24 84 12 314 17 1175 25 1114 10 1295 17 1700 66 66 8 217 19 335 25 118 6
258 19 310 29 127 24 441 94 563 126 67 17 138 27 222 31 112 5 126 8 149 30
14 13 26 27 26 31 0 14 -24 32 -39 31 -9 -1 -59 -6 -111 -10z m-665 -143
c-140 -36 -276 -55 -455 -61 -91 -3 -219 -12 -285 -20 -403 -49 -702 -59
-2050 -71 -570 -5 -711 -9 -870 -25 -140 -14 -264 -20 -469 -19 -153 0 -281 1
-282 3 -2 2 103 9 234 16 130 7 293 16 362 21 69 5 276 17 460 25 184 9 461
24 615 35 154 11 429 24 610 30 182 6 452 15 600 21 149 5 484 17 745 25 261
8 543 21 625 28 83 7 173 14 200 14 47 1 45 0 -40 -22z m-4538 -202 c-3 -3
-12 -4 -19 -1 -8 3 -5 6 6 6 11 1 17 -2 13 -5z m81 -1 c-10 -2 -26 -2 -35 0
-10 3 -2 5 17 5 19 0 27 -2 18 -5z m-248 -14 c-99 -15 -500 -23 -500 -11 0 11
118 16 445 18 93 1 101 0 55 -7z m-913 -35 c-11 -12 -179 -33 -297 -38 -100
-5 -107 -4 -51 5 34 5 124 16 200 23 75 8 140 14 145 15 5 0 6 -2 3 -5z"/>
<path d="M8165 10355 c-5 -1 -30 -8 -55 -15 -124 -34 -330 -121 -363 -154 -19
-19 -23 -61 -6 -71 5 -4 65 20 132 53 121 60 236 103 311 116 l39 7 -5 -49
c-6 -60 -103 -258 -324 -658 -103 -187 -126 -243 -122 -303 3 -39 8 -49 37
-68 41 -27 92 -30 176 -7 142 36 395 210 395 271 0 20 -35 15 -56 -8 -52 -59
-170 -130 -291 -175 -104 -39 -213 -29 -213 19 0 7 79 161 176 342 196 365
236 448 265 537 26 83 25 133 -3 152 -20 14 -65 20 -93 11z"/>
<path d="M20759 10333 c-16 -18 -18 -229 -8 -963 5 -334 9 -435 19 -438 39
-13 43 61 44 785 l1 633 -21 0 c-12 0 -28 -7 -35 -17z"/>
<path d="M7272 10210 c-62 -38 -103 -113 -146 -272 -34 -126 -55 -233 -66
-348 -10 -110 -4 -102 -145 -171 -116 -57 -235 -86 -293 -72 -37 9 -37 9 -36
59 1 34 26 113 82 264 100 270 132 371 132 419 0 52 -25 73 -81 69 -43 -3 -44
-4 -44 -38 0 -31 3 -35 27 -35 51 0 51 -13 4 -151 -24 -71 -70 -199 -101 -284
-56 -153 -85 -273 -77 -318 2 -12 18 -32 36 -45 68 -48 245 -12 400 84 l81 50
6 -238 c7 -245 20 -328 49 -328 11 0 14 10 13 35 -1 19 -5 153 -9 297 l-7 261
87 84 c82 81 104 118 70 118 -8 0 -41 -25 -73 -55 -32 -30 -61 -55 -66 -55
-10 0 1 108 21 208 38 188 102 362 133 362 21 0 61 51 61 78 0 38 -19 45 -58
22z"/>
<path d="M24520 10219 c-69 -13 -193 -59 -215 -80 -15 -14 -16 -22 -7 -31 9
-9 36 -4 119 22 132 41 270 52 321 26 36 -19 75 -67 91 -115 20 -62 14 -219
-13 -313 -90 -311 -318 -498 -530 -436 -60 18 -140 101 -159 165 -35 118 -27
242 24 384 33 91 102 159 185 182 101 28 152 22 226 -29 44 -31 82 -29 86 3 3
19 -7 27 -64 53 -116 53 -230 51 -352 -8 -121 -57 -200 -249 -189 -459 4 -79
9 -102 39 -165 39 -82 90 -137 158 -170 36 -18 62 -23 130 -23 78 1 91 4 165
39 230 112 404 438 374 702 -14 131 -82 230 -173 253 -51 13 -150 13 -216 0z"/>
<path d="M18945 10200 c-109 -16 -266 -112 -334 -203 -21 -29 -51 -83 -66
-122 -63 -160 -35 -388 65 -522 67 -91 184 -117 318 -70 113 39 177 83 293
197 162 161 247 305 257 436 4 57 2 62 -27 92 -45 44 -84 52 -272 52 -139 0
-178 3 -233 20 -36 11 -68 25 -71 30 -8 13 25 28 81 35 40 5 60 2 108 -20 32
-14 87 -29 121 -32 56 -5 64 -4 74 15 20 37 4 52 -55 52 -29 0 -77 9 -106 19
-73 26 -95 29 -153 21z m-105 -123 c0 -16 43 -41 95 -57 22 -7 127 -15 233
-19 l194 -6 29 -33 c26 -29 29 -38 23 -70 -10 -53 -55 -150 -105 -223 -138
-205 -323 -337 -483 -346 -57 -4 -78 0 -106 15 -80 44 -136 165 -147 317 -6
88 10 173 48 246 27 55 102 135 159 170 44 27 60 29 60 6z"/>
<path d="M14575 10183 c-254 -73 -407 -188 -510 -384 -119 -227 -91 -540 66
-737 95 -119 218 -174 384 -175 129 0 249 29 370 89 154 76 246 189 307 374
28 86 31 107 32 230 1 112 -3 149 -22 219 -46 168 -106 279 -180 332 -18 13
-46 34 -61 46 -25 20 -38 21 -181 21 -104 0 -171 -5 -205 -15z m56 -109 c-39
-42 -61 -76 -61 -90 0 -13 3 -24 6 -24 4 0 43 34 87 76 79 76 79 76 121 69 54
-10 94 -10 131 -1 26 7 36 2 76 -33 121 -106 196 -375 165 -591 -42 -283 -182
-442 -450 -510 -99 -25 -249 -27 -327 -4 -140 41 -241 150 -296 319 -32 101
-36 262 -9 365 38 141 137 280 252 355 94 61 272 130 342 134 21 1 16 -8 -37
-65z"/>
<path d="M16807 10092 c-10 -10 -24 -41 -32 -68 -7 -27 -21 -74 -30 -104 -14
-47 -16 -87 -11 -265 8 -280 24 -652 31 -692 10 -56 31 -40 39 28 8 82 7 379
-3 604 -10 220 -1 306 40 387 35 70 37 121 3 126 -11 2 -28 -6 -37 -16z"/>
<path d="M12337 10059 c-36 -30 -94 -100 -145 -175 -35 -54 -50 -134 -62 -339
-14 -248 -14 -615 -1 -628 7 -7 12 -6 15 4 6 17 21 210 41 504 25 370 36 409
154 516 78 72 94 95 87 124 -9 35 -43 32 -89 -6z"/>
<path d="M22892 9968 c-7 -7 -12 -24 -12 -38 0 -47 -30 -229 -75 -460 -126
-641 -138 -765 -75 -765 22 0 23 3 26 75 2 85 42 324 93 565 10 50 26 126 35
170 9 44 23 109 31 145 8 36 20 108 26 161 10 79 9 100 -2 124 -16 33 -30 40
-47 23z"/>
<path d="M6475 9691 c-3 -10 -1 -31 5 -45 7 -20 16 -27 33 -24 28 4 35 43 11
69 -22 24 -41 24 -49 0z"/>
<path d="M5915 9475 c-126 -24 -288 -49 -360 -55 -71 -6 -136 -13 -142 -15
-17 -6 -17 -50 0 -64 34 -28 713 90 754 132 17 17 11 48 -9 46 -7 0 -116 -20
-243 -44z"/>
<path d="M18876 4293 c-49 -13 -310 -198 -300 -214 6 -11 20 -4 103 51 33 22
62 40 65 40 3 0 36 22 73 48 38 27 76 51 86 55 9 3 17 11 17 17 0 10 -11 11
-44 3z"/>
<path d="M18545 4070 c-3 -5 -1 -10 4 -10 6 0 11 5 11 10 0 6 -2 10 -4 10 -3
0 -8 -4 -11 -10z"/>
<path d="M18510 4049 c0 -5 5 -7 10 -4 6 3 10 8 10 11 0 2 -4 4 -10 4 -5 0
-10 -5 -10 -11z"/>
<path d="M22150 3190 c-20 -15 -23 -23 -14 -36 15 -26 28 -27 55 -5 19 16 22
23 13 37 -15 25 -26 26 -54 4z"/>
<path d="M16448 3189 c-28 -16 -21 -30 7 -17 14 6 25 15 25 20 0 11 -11 10
-32 -3z"/>
<path d="M20590 2850 c0 -5 5 -10 10 -10 6 0 10 5 10 10 0 6 -4 10 -10 10 -5
0 -10 -4 -10 -10z"/>
<path d="M15254 2465 c-3 -19 -3 -148 1 -287 4 -139 7 -269 6 -288 0 -33 22
-70 41 -70 8 0 1 65 -9 82 -9 16 -3 505 7 537 7 24 6 38 -1 48 -20 23 -38 14
-45 -22z"/>
<path d="M21980 1705 c0 -26 34 -53 45 -35 8 13 -10 46 -30 54 -11 4 -15 -1
-15 -19z"/>
<path d="M20724 1627 c-10 -27 0 -62 19 -65 16 -3 18 2 15 34 -3 39 -24 57
-34 31z"/>
<path d="M15552 512 c-13 -2 -21 -9 -19 -15 2 -8 34 -12 90 -13 76 -1 120 7
107 19 -7 6 -150 13 -178 9z"/>
<path d="M17337 503 c-11 -11 -8 -20 9 -27 23 -9 37 3 23 20 -13 15 -22 18
-32 7z"/>
<path d="M15357 493 c-4 -3 -7 -14 -7 -24 0 -11 -13 -22 -35 -30 -19 -7 -35
-16 -35 -20 0 -10 85 -21 113 -14 23 6 25 10 20 43 -3 21 -6 38 -7 38 -6 7
-44 13 -49 7z"/>
<path d="M17344 439 c-8 -14 11 -33 25 -25 11 7 4 36 -9 36 -5 0 -12 -5 -16
-11z"/>
<path d="M17598 445 c-5 -6 -28 -12 -50 -14 -5 -1 -8 -5 -8 -11 0 -6 27 -10
60 -10 47 0 60 3 60 15 0 8 -6 15 -14 15 -8 0 -21 2 -28 5 -8 3 -17 3 -20 0z"/>
<path d="M13083 420 c-34 -14 -28 -20 18 -20 28 0 39 4 37 13 -6 16 -27 18
-55 7z"/>
<path d="M11782 411 c-11 -6 -10 -9 5 -13 38 -9 199 -8 213 2 11 7 -13 10 -82
10 -53 0 -102 2 -110 5 -7 3 -19 1 -26 -4z"/>
<path d="M12064 408 c-3 -4 13 -8 35 -8 23 0 41 2 41 4 0 8 -71 12 -76 4z"/>
<path d="M31740 400 c0 -19 20 -27 33 -13 8 7 -11 33 -24 33 -5 0 -9 -9 -9
-20z"/>
<path d="M11718 398 c9 -9 15 -9 24 0 9 9 7 12 -12 12 -19 0 -21 -3 -12 -12z"/>
<path d="M12355 400 c-3 -5 1 -10 10 -10 9 0 13 5 10 10 -3 6 -8 10 -10 10 -2
0 -7 -4 -10 -10z"/>
<path d="M12450 400 c0 -5 14 -7 33 -3 45 8 47 13 4 13 -20 0 -37 -4 -37 -10z"/>
<path d="M30870 380 c0 -5 7 -10 15 -10 8 0 15 5 15 10 0 6 -7 10 -15 10 -8 0
-15 -4 -15 -10z"/>
<path d="M31691 378 c-6 -7 -22 -13 -34 -13 -37 0 -34 -20 3 -22 35 -2 74 22
64 38 -7 12 -18 11 -33 -3z"/>
<path d="M32430 380 c-11 -7 -12 -12 -3 -21 15 -15 48 -7 48 11 0 18 -24 24
-45 10z"/>
<path d="M31208 367 c-26 -9 -14 -22 29 -30 21 -4 35 -1 43 8 7 8 21 15 31 15
11 0 19 4 19 9 0 11 -92 9 -122 -2z"/>
<path d="M32032 368 c6 -16 78 -24 78 -9 0 6 -3 11 -7 12 -5 0 -23 2 -41 5
-24 3 -32 0 -30 -8z"/>
<path d="M32160 365 c0 -16 16 -20 24 -6 3 5 -1 11 -9 15 -9 3 -15 0 -15 -9z"/>
<path d="M32496 371 c-4 -5 -2 -12 3 -15 5 -4 12 -2 15 3 4 5 2 12 -3 15 -5 4
-12 2 -15 -3z"/>
<path d="M31364 359 c-9 -16 12 -33 31 -25 14 5 15 9 5 21 -15 18 -26 19 -36
4z"/>
<path d="M31902 358 c3 -7 13 -15 22 -16 12 -3 17 1 14 10 -3 7 -13 15 -22 16
-12 3 -17 -1 -14 -10z"/>
<path d="M31455 350 c-3 -5 -2 -10 4 -10 5 0 13 5 16 10 3 6 2 10 -4 10 -5 0
-13 -4 -16 -10z"/>
<path d="M32215 350 c-3 -5 -1 -10 4 -10 6 0 11 5 11 10 0 6 -2 10 -4 10 -3 0
-8 -4 -11 -10z"/>
<path d="M31553 343 c9 -2 23 -2 30 0 6 3 -1 5 -18 5 -16 0 -22 -2 -12 -5z"/>
<path d="M15878 329 c-13 -3 -87 -4 -165 -1 -90 3 -167 0 -208 -8 -48 -9 -69
-9 -79 -1 -8 7 -42 9 -92 6 -43 -2 -178 -4 -299 -4 -121 1 -272 0 -335 -1 -63
-1 -414 -3 -780 -5 -781 -4 -720 -3 -720 -12 1 -12 53 -59 75 -68 29 -11 520
-6 581 6 40 8 61 7 95 -5 29 -9 70 -13 119 -10 41 2 127 6 190 8 63 2 133 7
155 11 43 7 99 9 155 4 37 -3 110 17 110 31 0 4 13 10 29 12 20 3 32 -1 40
-14 6 -10 20 -18 30 -18 11 0 22 -4 26 -10 8 -13 35 -1 35 16 0 8 6 11 16 7
10 -4 22 1 30 11 11 16 17 16 48 6 20 -6 40 -9 45 -6 5 3 33 1 62 -4 40 -8 60
-7 76 1 17 9 26 9 36 1 8 -7 17 -8 21 -4 4 4 31 8 59 8 42 1 56 -3 76 -22 26
-26 97 -34 119 -12 8 8 24 7 64 -5 29 -9 82 -17 118 -19 84 -3 284 11 333 23
93 24 769 33 860 11 33 -8 75 -11 97 -7 23 4 41 2 45 -4 11 -18 275 -12 303 7
19 13 30 13 56 4 39 -14 73 -15 80 -3 3 5 15 7 26 4 16 -4 20 0 20 21 0 24 4
26 40 26 22 0 40 3 40 8 0 7 -87 16 -145 15 -74 -2 -540 -2 -982 0 -265 1
-492 -1 -505 -4z"/>
<path d="M17557 328 c-17 -13 -17 -15 7 -41 28 -30 69 -35 100 -12 17 13 23
13 44 -1 13 -9 26 -13 30 -10 3 3 15 0 26 -8 21 -13 50 -18 99 -16 150 6 226
8 247 8 14 1 93 1 175 2 161 1 200 3 228 13 38 15 46 15 67 0 21 -15 23 -15
32 1 11 19 34 21 41 4 4 -10 8 -10 15 1 8 11 16 11 45 2 31 -10 41 -9 75 8 24
12 50 18 68 15 52 -10 86 -5 99 13 11 14 16 16 26 5 10 -10 10 -12 0 -12 -7 0
-9 -5 -6 -11 5 -7 12 -5 23 5 10 8 31 16 47 18 17 1 30 7 30 12 0 8 -905 14
-1245 7 -80 -2 -170 0 -200 4 -40 5 -60 3 -73 -7z"/>
<path d="M19132 332 c-13 -2 -21 -9 -19 -15 5 -15 166 -14 193 1 17 10 17 12
2 13 -38 3 -154 4 -176 1z"/>
<path d="M19366 332 c-10 -17 6 -20 54 -12 25 4 34 8 20 9 -14 1 -35 4 -46 7
-12 3 -25 1 -28 -4z"/>
<path d="M19503 328 c-2 -5 6 -8 19 -8 13 0 40 -3 61 -6 23 -4 37 -3 37 4 0
12 -110 21 -117 10z"/>
<path d="M13060 311 c-23 -7 -23 -8 -5 -14 56 -17 126 -7 94 14 -16 10 -54 10
-89 0z"/>
<path d="M11960 300 c-11 -7 -7 -10 18 -10 17 0 32 5 32 10 0 13 -30 13 -50 0z"/>
<path d="M12100 301 c-22 -9 -23 -31 -1 -31 24 0 47 26 29 32 -7 3 -20 2 -28
-1z"/>
<path d="M11708 293 c7 -3 16 -2 19 1 4 3 -2 6 -13 5 -11 0 -14 -3 -6 -6z"/>
<path d="M11750 290 c0 -5 17 -10 38 -9 30 0 33 2 17 9 -28 12 -55 12 -55 0z"/>
<path d="M11908 288 c9 -9 15 -9 24 0 9 9 7 12 -12 12 -19 0 -21 -3 -12 -12z"/>
<path d="M12035 290 c4 -6 11 -8 16 -5 14 9 11 15 -7 15 -8 0 -12 -5 -9 -10z"/>
<path d="M3070 275 c0 -9 5 -15 11 -13 6 2 11 8 11 13 0 5 -5 11 -11 13 -6 2
-11 -4 -11 -13z"/>
<path d="M3510 280 c0 -5 5 -10 10 -10 6 0 10 5 10 10 0 6 -4 10 -10 10 -5 0
-10 -4 -10 -10z"/>
<path d="M4028 283 c7 -3 16 -2 19 1 4 3 -2 6 -13 5 -11 0 -14 -3 -6 -6z"/>
<path d="M9558 283 c7 -3 16 -2 19 1 4 3 -2 6 -13 5 -11 0 -14 -3 -6 -6z"/>
<path d="M9693 283 c9 -2 23 -2 30 0 6 3 -1 5 -18 5 -16 0 -22 -2 -12 -5z"/>
<path d="M2048 272 c-20 -2 -28 -9 -28 -23 0 -10 7 -19 15 -19 8 0 15 6 15 14
0 9 7 12 20 9 11 -3 20 -1 20 5 0 15 -10 18 -42 14z"/>
<path d="M2155 270 l-30 -6 29 -7 c29 -8 41 -5 35 10 -2 5 -17 6 -34 3z"/>
<path d="M2700 270 c0 -5 7 -10 15 -10 8 0 15 5 15 10 0 6 -7 10 -15 10 -8 0
-15 -4 -15 -10z"/>
<path d="M1495 260 c3 -5 13 -10 21 -10 8 0 14 5 14 10 0 6 -9 10 -21 10 -11
0 -17 -4 -14 -10z"/>
<path d="M2320 260 c0 -13 11 -13 30 0 12 8 11 10 -7 10 -13 0 -23 -4 -23 -10z"/>
<path d="M2598 263 c6 -2 18 -2 25 0 6 3 1 5 -13 5 -14 0 -19 -2 -12 -5z"/>
<path d="M32 247 c-8 -10 -6 -16 10 -26 24 -15 44 -1 35 23 -8 19 -31 21 -45
3z"/>
<path d="M335 250 c3 -5 11 -10 16 -10 6 0 7 5 4 10 -3 6 -11 10 -16 10 -6 0
-7 -4 -4 -10z"/>
<path d="M1110 249 c0 -5 5 -7 10 -4 6 3 10 8 10 11 0 2 -4 4 -10 4 -5 0 -10
-5 -10 -11z"/>
<path d="M125 230 c3 -5 8 -10 11 -10 2 0 4 5 4 10 0 6 -5 10 -11 10 -5 0 -7
-4 -4 -10z"/>
</g>
</svg>
