<?xml version="1.0" standalone="no"?>
<!DOCTYPE svg PUBLIC "-//W3C//DTD SVG 20010904//EN"
 "http://www.w3.org/TR/2001/REC-SVG-20010904/DTD/svg10.dtd">
<svg version="1.0" xmlns="http://www.w3.org/2000/svg"
 width="3264.000000pt" height="2448.000000pt" viewBox="0 0 3264.000000 2448.000000"
 preserveAspectRatio="xMidYMid meet">
<metadata>
Created by potrace 1.12, written by Peter Selinger 2001-2015
</metadata>
<g transform="translate(0.000000,2448.000000) scale(0.100000,-0.100000)"
fill="#000000" stroke="none">
<path d="M15022 24311 c-11 -7 -10 -10 3 -15 9 -3 26 -6 37 -6 17 0 18 3 8 15
-14 17 -29 19 -48 6z"/>
<path d="M16075 24280 c-3 -5 1 -10 10 -10 9 0 13 5 10 10 -3 6 -8 10 -10 10
-2 0 -7 -4 -10 -10z"/>
<path d="M16508 24263 c6 -2 18 -2 25 0 6 3 1 5 -13 5 -14 0 -19 -2 -12 -5z"/>
<path d="M16578 24263 c6 -2 18 -2 25 0 6 3 1 5 -13 5 -14 0 -19 -2 -12 -5z"/>
<path d="M16648 24263 c7 -3 16 -2 19 1 4 3 -2 6 -13 5 -11 0 -14 -3 -6 -6z"/>
<path d="M17080 24259 c0 -5 5 -7 10 -4 6 3 10 8 10 11 0 2 -4 4 -10 4 -5 0
-10 -5 -10 -11z"/>
<path d="M10638 24093 c7 -3 16 -2 19 1 4 3 -2 6 -13 5 -11 0 -14 -3 -6 -6z"/>
<path d="M11408 24073 c7 -3 16 -2 19 1 4 3 -2 6 -13 5 -11 0 -14 -3 -6 -6z"/>
<path d="M11518 24073 c12 -2 32 -2 45 0 12 2 2 4 -23 4 -25 0 -35 -2 -22 -4z"/>
<path d="M11665 24070 c8 -12 52 -13 59 -2 3 5 -11 9 -30 10 -20 1 -32 -3 -29
-8z"/>
<path d="M11818 24063 c7 -3 16 -2 19 1 4 3 -2 6 -13 5 -11 0 -14 -3 -6 -6z"/>
<path d="M11948 24063 c7 -3 16 -2 19 1 4 3 -2 6 -13 5 -11 0 -14 -3 -6 -6z"/>
<path d="M12035 24060 c42 -11 93 -12 99 -1 3 5 -25 9 -62 9 -50 0 -60 -2 -37
-8z"/>
<path d="M12160 24059 c0 -5 46 -9 103 -8 56 0 98 2 92 4 -24 8 -195 12 -195
4z"/>
<path d="M12394 24053 c10 -10 126 -12 126 -1 0 4 -30 8 -67 8 -36 0 -63 -3
-59 -7z"/>
<path d="M12550 24050 c0 -5 4 -10 9 -10 6 0 13 5 16 10 3 6 -1 10 -9 10 -9 0
-16 -4 -16 -10z"/>
<path d="M12604 24049 c-3 -5 30 -9 72 -9 43 0 75 2 73 4 -10 8 -140 13 -145
5z"/>
<path d="M12762 24045 c8 -8 82 -11 458 -19 151 -4 311 -8 355 -11 44 -2 211
-7 370 -10 160 -3 382 -7 495 -10 113 -3 324 -7 470 -10 146 -3 461 -10 700
-15 239 -5 597 -12 795 -15 198 -3 466 -7 595 -10 129 -3 496 -7 815 -10 319
-4 700 -8 848 -10 168 -3 267 -1 267 5 0 6 -63 10 -157 11 -87 0 -189 2 -228
4 -38 2 -275 6 -525 9 -250 4 -477 8 -505 11 -27 2 -252 7 -500 10 -247 3
-542 8 -655 10 -263 6 -676 13 -1100 20 -184 3 -407 7 -495 10 -88 2 -320 7
-515 10 -195 3 -416 7 -490 10 -295 10 -1005 17 -998 10z"/>
<path d="M18950 23930 c0 -5 9 -10 21 -10 11 0 17 5 14 10 -3 6 -13 10 -21 10
-8 0 -14 -4 -14 -10z"/>
<path d="M19005 23930 c-4 -6 3 -10 14 -10 25 0 27 6 6 13 -8 4 -17 2 -20 -3z"/>
<path d="M19063 23923 c9 -2 23 -2 30 0 6 3 -1 5 -18 5 -16 0 -22 -2 -12 -5z"/>
<path d="M19138 23923 c6 -2 18 -2 25 0 6 3 1 5 -13 5 -14 0 -19 -2 -12 -5z"/>
<path d="M19203 23923 c15 -2 37 -2 50 0 12 2 0 4 -28 4 -27 0 -38 -2 -22 -4z"/>
<path d="M4528 23773 c7 -3 16 -2 19 1 4 3 -2 6 -13 5 -11 0 -14 -3 -6 -6z"/>
<path d="M5260 23770 c0 -5 4 -10 9 -10 6 0 13 5 16 10 3 6 -1 10 -9 10 -9 0
-16 -4 -16 -10z"/>
<path d="M5483 23773 c-45 -6 -42 -23 5 -23 45 0 72 14 47 24 -9 3 -17 5 -18
4 -1 0 -17 -3 -34 -5z"/>
<path d="M4943 23763 c9 -2 23 -2 30 0 6 3 -1 5 -18 5 -16 0 -22 -2 -12 -5z"/>
<path d="M5048 23763 c6 -2 18 -2 25 0 6 3 1 5 -13 5 -14 0 -19 -2 -12 -5z"/>
<path d="M5305 23760 c3 -5 10 -10 16 -10 5 0 9 5 9 10 0 6 -7 10 -16 10 -8 0
-12 -4 -9 -10z"/>
<path d="M5655 23760 c-3 -5 3 -10 15 -10 12 0 18 5 15 10 -3 6 -10 10 -15 10
-5 0 -12 -4 -15 -10z"/>
<path d="M5720 23759 c-22 -6 -20 -7 13 -8 38 -1 47 3 25 11 -7 3 -24 1 -38
-3z"/>
<path d="M5826 23759 c3 -5 34 -9 70 -9 36 0 63 4 60 9 -3 4 -35 8 -70 8 -36
0 -63 -4 -60 -8z"/>
<path d="M5976 23761 c-5 -7 6 -11 31 -12 21 -1 62 -3 90 -4 29 -2 55 1 58 6
4 5 5 9 3 9 -55 9 -177 9 -182 1z"/>
<path d="M6204 23759 c-20 -8 -19 -8 36 -14 14 -2 212 -6 440 -9 228 -4 492
-8 585 -11 94 -2 352 -7 575 -10 223 -3 486 -8 585 -10 99 -3 410 -10 690 -15
624 -12 1267 -28 1435 -35 69 -2 280 -7 470 -10 190 -3 392 -8 450 -10 58 -3
224 -7 370 -10 146 -3 326 -8 400 -10 74 -3 338 -10 585 -15 248 -5 522 -12
610 -15 88 -3 284 -7 435 -10 372 -7 658 -14 880 -20 170 -5 795 -17 1550 -30
168 -3 422 -7 565 -10 143 -3 404 -7 580 -10 176 -3 442 -7 590 -10 974 -18
3685 -36 3685 -24 0 8 -218 20 -440 24 -327 6 -754 15 -975 20 -121 2 -373 7
-560 10 -187 3 -432 7 -545 10 -238 6 -669 13 -1270 20 -234 3 -735 12 -1115
20 -695 14 -882 18 -1985 35 -333 5 -679 12 -770 15 -91 3 -291 7 -445 10
-154 3 -453 10 -665 15 -212 5 -527 12 -700 15 -173 3 -400 7 -505 10 -328 9
-574 14 -1115 25 -289 5 -595 12 -680 15 -186 6 -576 13 -1110 21 -217 3 -507
7 -645 9 -137 2 -549 7 -915 11 -366 3 -753 7 -861 8 -108 1 -205 -1 -215 -5z"/>
<path d="M21770 23470 c0 -5 5 -10 11 -10 5 0 7 5 4 10 -3 6 -8 10 -11 10 -2
0 -4 -4 -4 -10z"/>
<path d="M21845 23470 c-3 -5 1 -10 9 -10 9 0 16 5 16 10 0 6 -4 10 -9 10 -6
0 -13 -4 -16 -10z"/>
<path d="M21905 23470 c-3 -5 1 -10 9 -10 9 0 16 5 16 10 0 6 -4 10 -9 10 -6
0 -13 -4 -16 -10z"/>
<path d="M21985 23470 c-3 -5 1 -10 9 -10 9 0 16 5 16 10 0 6 -4 10 -9 10 -6
0 -13 -4 -16 -10z"/>
<path d="M16195 23371 c-7 -12 12 -24 25 -16 11 7 4 25 -10 25 -5 0 -11 -4
-15 -9z"/>
<path d="M18890 23315 c-10 -12 -10 -15 3 -15 19 0 31 16 18 24 -5 3 -14 -1
-21 -9z"/>
<path d="M19080 23285 c0 -9 -12 -21 -27 -27 -23 -9 -25 -12 -10 -15 10 -3 29
-2 41 1 19 5 22 11 18 31 -5 27 -22 35 -22 10z"/>
<path d="M18865 23260 c-3 -5 -15 -10 -25 -10 -11 0 -24 -9 -30 -20 -9 -17 -8
-20 11 -20 25 0 118 41 119 53 0 11 -68 9 -75 -3z"/>
<path d="M18815 23161 c-3 -5 -2 -12 3 -15 12 -7 52 4 52 15 0 12 -47 12 -55
0z"/>
<path d="M18671 23129 c-15 -6 -21 -13 -15 -19 12 -12 84 6 84 20 0 13 -37 12
-69 -1z"/>
<path d="M18773 23110 c-24 -10 -30 -25 -13 -35 17 -10 47 4 53 25 6 22 -5 24
-40 10z"/>
<path d="M15865 23080 c-3 -5 -1 -10 4 -10 6 0 11 5 11 10 0 6 -2 10 -4 10 -3
0 -8 -4 -11 -10z"/>
<path d="M18660 23053 c-51 -5 -73 -19 -50 -33 25 -16 60 -12 60 7 0 15 2 15
18 0 20 -18 94 -27 99 -11 2 5 -14 16 -34 24 -46 18 -39 17 -93 13z"/>
<path d="M19098 22998 c9 -9 15 -9 24 0 9 9 7 12 -12 12 -19 0 -21 -3 -12 -12z"/>
<path d="M19160 23001 c0 -13 27 -21 47 -14 15 6 15 7 -3 14 -27 11 -44 11
-44 0z"/>
<path d="M18663 22973 c-44 -4 -56 -16 -27 -27 30 -12 120 -6 140 9 18 14 17
14 -13 15 -17 0 -37 1 -45 3 -7 2 -32 2 -55 0z"/>
<path d="M18537 22951 c-6 -25 3 -71 14 -71 5 0 8 20 7 45 -1 46 -12 59 -21
26z"/>
<path d="M18640 22881 c0 -5 9 -7 20 -4 11 3 20 7 20 9 0 2 -9 4 -20 4 -11 0
-20 -4 -20 -9z"/>
<path d="M18559 22847 c5 -5 19 -7 32 -5 20 3 19 5 -9 9 -20 3 -29 2 -23 -4z"/>
<path d="M18593 22776 c-8 -12 18 -26 48 -26 15 0 43 -7 62 -15 36 -15 57 -35
37 -35 -6 0 -8 -4 -5 -10 9 -15 25 -12 25 5 0 8 9 15 19 15 33 0 33 17 0 29
-27 9 -30 13 -19 26 15 18 15 18 -88 19 -41 1 -76 -3 -79 -8z"/>
<path d="M18795 22770 c3 -5 15 -10 26 -10 11 0 17 5 14 10 -3 6 -15 10 -26
10 -11 0 -17 -4 -14 -10z"/>
<path d="M18988 22765 c-21 -6 -45 -18 -54 -27 -15 -15 -12 -16 47 -12 35 3
78 12 95 20 29 14 34 14 62 0 44 -23 128 -18 119 7 -6 19 -213 28 -269 12z"/>
<path d="M18825 22700 c-9 -15 4 -30 26 -30 25 0 25 16 0 30 -13 7 -22 7 -26
0z"/>
<path d="M19021 22684 c-19 -8 -44 -12 -55 -8 -15 4 -18 3 -11 -5 12 -12 63
-15 118 -5 39 7 48 18 21 28 -23 9 -35 7 -73 -10z"/>
<path d="M19130 22655 c0 -8 9 -15 20 -15 11 0 20 7 20 15 0 8 -9 15 -20 15
-11 0 -20 -7 -20 -15z"/>
<path d="M726 22581 c-4 -7 -5 -15 -2 -18 9 -9 19 4 14 18 -4 11 -6 11 -12 0z"/>
<path d="M2003 22538 c-4 -18 -6 -37 -4 -43 1 -5 4 -39 6 -75 6 -106 9 -123
23 -127 8 -3 12 7 12 30 0 19 9 45 20 60 19 24 19 27 4 63 -9 21 -17 56 -17
78 -2 30 -7 42 -20 44 -13 3 -19 -5 -24 -30z"/>
<path d="M2241 22514 c0 -11 3 -14 6 -6 3 7 2 16 -1 19 -3 4 -6 -2 -5 -13z"/>
<path d="M17100 22505 c0 -15 18 -40 24 -34 3 3 -1 14 -9 25 -8 10 -14 15 -15
9z"/>
<path d="M2584 22484 c3 -9 6 -23 6 -32 1 -15 2 -15 11 1 12 21 5 47 -12 47
-6 0 -8 -7 -5 -16z"/>
<path d="M18495 22490 c-3 -5 -1 -10 4 -10 6 0 11 5 11 10 0 6 -2 10 -4 10 -3
0 -8 -4 -11 -10z"/>
<path d="M1235 22450 c-3 -6 1 -13 10 -16 19 -8 30 0 20 15 -8 14 -22 14 -30
1z"/>
<path d="M18378 22453 c7 -3 16 -2 19 1 4 3 -2 6 -13 5 -11 0 -14 -3 -6 -6z"/>
<path d="M19108 22453 c6 -2 18 -2 25 0 6 3 1 5 -13 5 -14 0 -19 -2 -12 -5z"/>
<path d="M19168 22453 c7 -3 16 -2 19 1 4 3 -2 6 -13 5 -11 0 -14 -3 -6 -6z"/>
<path d="M19228 22453 c6 -2 18 -2 25 0 6 3 1 5 -13 5 -14 0 -19 -2 -12 -5z"/>
<path d="M19383 22453 c9 -2 23 -2 30 0 6 3 -1 5 -18 5 -16 0 -22 -2 -12 -5z"/>
<path d="M19505 22450 c4 -6 11 -8 16 -5 14 9 11 15 -7 15 -8 0 -12 -5 -9 -10z"/>
<path d="M2214 22428 c-4 -6 1 -17 12 -25 20 -15 30 -4 20 22 -6 18 -22 19
-32 3z"/>
<path d="M2381 22406 c-7 -8 -8 -17 -3 -20 6 -3 12 3 15 14 6 24 4 25 -12 6z"/>
<path d="M2850 22406 c0 -8 5 -18 10 -21 6 -3 10 3 10 14 0 12 -4 21 -10 21
-5 0 -10 -6 -10 -14z"/>
<path d="M1323 22349 c-26 -10 -28 -17 -8 -42 13 -18 14 -18 25 3 17 32 9 49
-17 39z"/>
<path d="M705 22340 c-3 -5 1 -10 9 -10 9 0 16 5 16 10 0 6 -4 10 -9 10 -6 0
-13 -4 -16 -10z"/>
<path d="M1155 22331 c-6 -11 9 -23 19 -14 9 9 7 23 -3 23 -6 0 -12 -4 -16 -9z"/>
<path d="M2705 22234 c-7 -57 2 -83 24 -69 7 3 11 21 11 38 0 18 1 43 2 57 2
16 -3 26 -13 28 -13 2 -18 -9 -24 -54z"/>
<path d="M2845 22279 c-11 -17 1 -21 15 -4 8 9 8 15 2 15 -6 0 -14 -5 -17 -11z"/>
<path d="M2000 22218 c0 -26 17 -39 49 -36 33 2 55 18 26 18 -9 0 -23 7 -31
15 -19 18 -44 20 -44 3z"/>
<path d="M2186 22191 c-36 -14 -2 -19 79 -12 6 1 3 6 -5 11 -18 11 -47 12 -74
1z"/>
<path d="M8938 21413 c-22 -6 -28 -25 -21 -67 6 -40 23 -49 23 -13 1 26 18 51
43 60 10 4 15 11 12 17 -6 10 -26 11 -57 3z"/>
<path d="M9170 21411 c-41 -3 -70 -9 -65 -12 17 -9 215 -10 215 0 0 12 -26 21
-53 19 -12 -1 -56 -4 -97 -7z"/>
<path d="M9422 21383 c8 -10 18 -26 21 -35 8 -22 37 -24 37 -2 0 30 -20 54
-47 54 -24 0 -25 -1 -11 -17z"/>
<path d="M7405 21350 c-3 -5 -1 -10 4 -10 6 0 11 5 11 10 0 6 -2 10 -4 10 -3
0 -8 -4 -11 -10z"/>
<path d="M1377 21343 c-35 -58 -45 -83 -36 -89 6 -4 9 -28 6 -61 -3 -30 -1
-68 3 -84 5 -17 5 -31 -1 -34 -29 -19 7 -95 46 -95 29 0 37 26 17 58 -12 18
-13 42 -9 106 5 54 3 86 -4 93 -11 11 3 51 23 64 6 4 4 15 -3 28 -14 21 -34
28 -42 14z"/>
<path d="M7740 21341 c0 -5 5 -13 10 -16 6 -3 10 -2 10 4 0 5 -4 13 -10 16 -5
3 -10 2 -10 -4z"/>
<path d="M1605 21310 c-8 -13 11 -47 35 -60 10 -6 22 -26 26 -45 3 -19 11 -35
16 -35 6 0 8 15 4 38 -4 20 -8 47 -10 60 -1 13 -14 29 -30 38 -34 17 -33 17
-41 4z"/>
<path d="M7380 21310 c0 -5 7 -10 15 -10 8 0 15 5 15 10 0 6 -7 10 -15 10 -8
0 -15 -4 -15 -10z"/>
<path d="M10479 21293 c-1 -8 0 -56 4 -132 3 -60 24 -46 31 21 13 112 13 113
-11 116 -13 2 -24 0 -24 -5z"/>
<path d="M10836 21291 c-18 -7 -18 -8 -2 -14 26 -10 89 -8 106 3 12 8 11 10
-6 10 -12 0 -34 2 -50 5 -16 2 -38 1 -48 -4z"/>
<path d="M12366 21293 c-14 -15 -4 -23 27 -22 71 3 151 -12 164 -30 7 -10 23
-21 36 -25 14 -3 31 -22 45 -51 12 -25 26 -45 31 -45 15 0 34 -59 28 -90 -4
-16 -2 -32 3 -35 14 -9 12 -39 -2 -53 -13 -13 -19 -62 -8 -62 9 0 30 47 30 65
0 8 4 15 10 15 6 0 8 26 6 63 -4 78 -58 190 -94 195 -12 2 -27 12 -32 23 -6
11 -21 19 -35 19 -15 0 -25 6 -25 14 0 9 -14 16 -37 19 -52 8 -140 7 -147 0z"/>
<path d="M10778 21283 c7 -3 16 -2 19 1 4 3 -2 6 -13 5 -11 0 -14 -3 -6 -6z"/>
<path d="M11010 21280 c0 -5 7 -10 15 -10 8 0 15 5 15 10 0 6 -7 10 -15 10 -8
0 -15 -4 -15 -10z"/>
<path d="M11218 21230 c54 -103 53 -102 50 -25 l-3 70 -37 3 -38 3 28 -51z"/>
<path d="M4188 21245 c-22 -30 -22 -47 -2 -88 13 -25 16 -49 11 -120 -6 -85
-5 -88 18 -99 27 -12 87 -2 66 12 -21 12 -41 79 -41 137 0 40 5 57 21 72 24
22 20 43 -16 84 -29 33 -35 33 -57 2z"/>
<path d="M12288 21263 c-16 -2 -28 -8 -28 -13 0 -11 60 -1 75 11 9 9 3 9 -47
2z"/>
<path d="M14750 21250 c0 -5 5 -10 10 -10 6 0 10 5 10 10 0 6 -4 10 -10 10 -5
0 -10 -4 -10 -10z"/>
<path d="M14908 21250 c13 -6 31 -6 45 0 18 7 14 9 -23 9 -37 0 -41 -2 -22 -9z"/>
<path d="M16010 21240 c-11 -7 -12 -12 -3 -21 9 -9 19 -9 43 1 17 7 33 17 36
21 7 12 -57 11 -76 -1z"/>
<path d="M7795 21231 c-6 -11 33 -36 42 -27 7 7 -16 36 -28 36 -4 0 -10 -4
-14 -9z"/>
<path d="M2016 21221 c-3 -5 1 -14 8 -20 12 -10 13 -8 9 8 -6 23 -9 25 -17 12z"/>
<path d="M2240 21215 c0 -9 5 -15 11 -13 6 2 11 8 11 13 0 5 -5 11 -11 13 -6
2 -11 -4 -11 -13z"/>
<path d="M12220 21223 c-18 -8 -49 -44 -50 -60 0 -7 -7 -16 -16 -21 -13 -7
-16 -26 -15 -105 0 -83 4 -100 21 -117 11 -11 20 -28 20 -38 0 -9 9 -23 20
-30 11 -7 20 -17 20 -23 0 -12 20 -31 53 -50 13 -7 19 -6 23 6 4 10 -10 31
-40 60 -36 36 -49 58 -62 108 -20 75 -20 115 2 180 11 34 25 54 45 66 16 9 29
19 29 24 0 8 -28 8 -50 0z"/>
<path d="M16210 21226 c0 -2 7 -6 15 -10 8 -3 15 -1 15 4 0 6 -7 10 -15 10 -8
0 -15 -2 -15 -4z"/>
<path d="M2492 21203 c-16 -30 -13 -143 5 -150 9 -4 13 -13 9 -27 -6 -22 28
-66 51 -66 16 0 16 -1 -4 51 -11 28 -17 73 -18 124 0 66 -3 80 -17 83 -9 2
-21 -5 -26 -15z"/>
<path d="M14603 21165 c-63 -62 -83 -94 -83 -136 0 -15 -4 -30 -10 -34 -5 -3
-7 -20 -5 -38 2 -18 7 -59 10 -92 4 -40 14 -73 30 -97 14 -21 25 -44 25 -51 0
-8 11 -19 24 -25 14 -6 32 -22 41 -36 10 -14 33 -30 53 -36 38 -10 58 -5 26 7
-20 7 -77 63 -66 63 4 0 0 6 -8 13 -18 15 -38 45 -46 70 -4 9 -10 17 -14 17
-7 0 -35 87 -32 101 1 4 3 38 5 75 5 79 33 142 85 187 17 16 32 35 32 42 0 7
6 16 13 18 7 3 5 6 -5 6 -10 1 -43 -24 -75 -54z"/>
<path d="M2709 21208 c0 -2 -2 -21 -4 -44 -2 -30 2 -43 15 -52 16 -9 19 -5 30
33 14 48 8 65 -21 65 -10 0 -19 -1 -20 -2z"/>
<path d="M2908 21203 c-11 -3 -17 -17 -20 -49 -2 -25 0 -48 3 -50 14 -8 34 7
47 33 23 50 12 75 -30 66z"/>
<path d="M1836 21193 c-9 -9 -7 -33 3 -33 12 0 22 28 12 34 -5 3 -11 3 -15 -1z"/>
<path d="M3277 21194 c-4 -4 -3 -12 3 -19 5 -6 11 -28 14 -49 3 -21 7 -41 10
-44 12 -12 16 7 10 46 -7 45 -25 77 -37 66z"/>
<path d="M2220 21180 c-20 -5 -25 -12 -25 -40 0 -18 6 -35 13 -37 8 -3 12 6
12 26 0 18 7 34 17 40 24 13 14 19 -17 11z"/>
<path d="M3084 21113 c0 -43 -2 -90 -6 -104 -6 -20 -3 -33 11 -50 16 -21 21
-22 36 -9 17 14 17 34 0 117 -5 22 -2 39 9 55 29 41 16 68 -34 68 -16 0 -18
-9 -16 -77z"/>
<path d="M3795 21160 c-4 -18 -2 -36 5 -44 7 -10 8 -27 1 -58 -22 -97 -22
-105 2 -112 42 -11 49 -8 43 22 -16 74 -16 142 0 167 20 31 12 55 -20 55 -19
0 -26 -7 -31 -30z"/>
<path d="M3995 21153 c4 -21 6 -76 5 -122 -2 -88 5 -103 41 -94 16 5 19 15 19
69 0 34 -4 66 -10 69 -5 3 -10 19 -10 35 0 39 -20 80 -38 80 -12 0 -13 -8 -7
-37z"/>
<path d="M7225 21170 c-23 -25 -13 -37 20 -22 16 7 23 17 19 27 -8 20 -17 19
-39 -5z"/>
<path d="M21017 21183 c-22 -6 -85 -46 -108 -68 -9 -8 -20 -15 -25 -15 -5 0
-17 -11 -27 -25 -25 -35 -3 -41 32 -7 47 45 160 72 294 71 112 0 197 -24 212
-57 6 -13 19 -25 30 -28 44 -12 60 -52 63 -159 l3 -100 -38 -49 c-46 -60 -119
-114 -154 -115 -14 -1 -33 -7 -44 -14 -12 -10 -40 -13 -86 -11 -75 4 -119 -7
-119 -30 0 -8 -8 -20 -17 -25 -16 -9 -15 -10 6 -11 14 0 33 8 44 18 15 13 41
18 120 21 88 3 103 6 115 23 9 12 22 18 34 15 21 -6 88 18 88 32 0 5 9 11 20
14 11 3 20 14 20 25 0 10 9 27 20 37 11 10 20 22 20 27 0 5 8 28 19 51 28 63
26 127 -5 184 -38 69 -101 130 -154 150 -25 9 -51 23 -58 32 -10 13 -38 16
-150 18 -75 1 -145 -1 -155 -4z"/>
<path d="M23059 21172 c-15 -17 -15 -20 3 -31 10 -6 23 -23 28 -37 13 -33 36
-25 32 10 -8 71 -33 93 -63 58z"/>
<path d="M15085 21170 c3 -6 19 -17 36 -25 16 -9 29 -22 29 -30 0 -9 12 -21
26 -27 22 -10 25 -16 19 -45 -5 -26 -3 -33 10 -33 8 0 15 6 15 14 0 26 -23
116 -30 116 -4 0 -17 9 -30 20 -23 20 -87 29 -75 10z"/>
<path d="M22902 21135 c-39 -42 -40 -45 -19 -45 13 0 34 11 47 25 13 14 29 25
37 25 7 0 13 9 13 20 0 34 -33 23 -78 -25z"/>
<path d="M15785 21160 c-10 -16 4 -30 30 -30 19 0 35 16 35 36 0 9 -59 3 -65
-6z"/>
<path d="M16300 21147 c0 -13 17 -42 40 -66 28 -30 40 -52 40 -72 0 -16 4 -29
8 -29 12 0 31 -88 26 -123 -2 -16 -10 -37 -17 -46 -11 -13 -57 -123 -57 -137
0 -2 4 -4 10 -4 5 0 16 16 24 35 8 19 20 35 26 35 19 0 50 62 39 77 -8 8 -8
27 0 60 7 37 7 54 -4 75 -7 15 -11 36 -8 46 6 25 -32 97 -75 138 -41 40 -52
42 -52 11z"/>
<path d="M3460 21140 c0 -13 5 -20 13 -17 6 2 12 10 12 17 0 7 -6 15 -12 18
-8 2 -13 -5 -13 -18z"/>
<path d="M7907 21153 c-2 -5 7 -18 19 -29 21 -20 23 -20 27 -4 7 28 -34 57
-46 33z"/>
<path d="M2040 21125 c7 -8 16 -15 21 -15 5 0 9 7 9 15 0 9 -9 15 -21 15 -18
0 -19 -2 -9 -15z"/>
<path d="M3650 21124 c0 -8 5 -12 10 -9 6 4 8 11 5 16 -9 14 -15 11 -15 -7z"/>
<path d="M1647 21123 c-4 -3 -7 -14 -7 -24 0 -10 -14 -34 -31 -53 -17 -20 -29
-39 -27 -44 5 -14 65 7 72 25 3 10 11 25 17 34 20 27 -2 84 -24 62z"/>
<path d="M11247 21098 c-4 -13 -4 -48 -1 -78 2 -30 5 -70 6 -87 2 -43 15 -42
23 1 17 87 -10 237 -28 164z"/>
<path d="M1800 21098 c1 -50 14 -88 31 -88 20 0 26 24 9 35 -5 3 -10 19 -10
36 0 19 -5 29 -15 29 -8 0 -15 -6 -15 -12z"/>
<path d="M7537 21090 c-4 -15 0 -20 13 -20 10 0 25 -3 33 -6 12 -4 14 0 10 15
-3 11 -9 18 -15 15 -5 -3 -15 -1 -22 5 -10 9 -15 7 -19 -9z"/>
<path d="M15740 21095 c0 -8 7 -15 15 -15 8 0 15 7 15 15 0 8 -7 15 -15 15 -8
0 -15 -7 -15 -15z"/>
<path d="M10477 21073 c-3 -16 -2 -32 1 -38 4 -5 7 -32 8 -60 2 -86 4 -95 15
-95 6 0 9 38 8 110 -2 79 -6 110 -14 110 -7 0 -15 -12 -18 -27z"/>
<path d="M16044 21076 c-3 -8 -4 -29 -2 -48 2 -25 8 -34 26 -36 20 -3 22 0 22
47 0 45 -3 51 -20 51 -11 0 -23 -6 -26 -14z"/>
<path d="M3455 21071 c-3 -5 -1 -12 5 -16 5 -3 10 1 10 9 0 18 -6 21 -15 7z"/>
<path d="M2044 21054 c-4 -10 -13 -23 -21 -27 -17 -11 -17 -47 1 -47 20 0 51
69 37 83 -7 7 -12 5 -17 -9z"/>
<path d="M2194 21054 c3 -9 6 -23 6 -33 0 -24 59 -66 73 -52 7 7 5 12 -7 17
-9 4 -26 24 -37 45 -19 37 -48 56 -35 23z"/>
<path d="M2707 21063 c-4 -3 -7 -17 -7 -29 0 -13 -4 -26 -10 -29 -17 -11 -11
-42 10 -48 26 -7 54 20 44 42 -4 9 -9 28 -12 44 -4 27 -12 33 -25 20z"/>
<path d="M2886 21063 c-8 -8 -8 -77 0 -97 8 -22 44 -21 44 2 -1 64 -24 115
-44 95z"/>
<path d="M7955 21060 c3 -5 8 -10 11 -10 2 0 4 5 4 10 0 6 -5 10 -11 10 -5 0
-7 -4 -4 -10z"/>
<path d="M14858 21063 c-31 -5 -40 -39 -13 -49 8 -4 15 -14 15 -24 0 -30 26
-30 49 0 27 37 26 42 -4 34 -25 -6 -35 8 -15 21 12 7 14 26 3 24 -5 -1 -20 -4
-35 -6z"/>
<path d="M22772 21020 c-24 -22 -47 -40 -52 -40 -6 0 -10 -7 -10 -15 0 -8 -6
-15 -13 -15 -7 0 -20 -8 -29 -17 -9 -10 -30 -31 -48 -46 -38 -34 -32 -49 8
-20 15 11 37 23 50 27 12 4 22 14 22 22 0 8 11 19 24 23 13 5 26 17 29 25 4 9
13 16 22 16 8 0 15 7 15 15 0 8 9 19 20 25 19 10 28 40 13 40 -5 0 -27 -18
-51 -40z"/>
<path d="M7200 21021 c0 -17 5 -33 10 -36 6 -4 10 8 10 29 0 20 -4 36 -10 36
-5 0 -10 -13 -10 -29z"/>
<path d="M17794 21024 c-16 -24 -16 -29 -1 -78 10 -29 17 -60 17 -68 0 -24
-30 -31 -51 -12 -16 14 -19 14 -38 -5 -21 -21 -21 -22 -4 -46 12 -17 28 -24
49 -25 23 0 34 -6 42 -25 7 -14 20 -25 31 -25 38 0 54 66 27 118 -9 19 -11 43
-7 78 13 99 -25 150 -65 88z"/>
<path d="M3294 21027 c-10 -27 0 -72 16 -72 11 0 15 11 15 39 0 40 -20 61 -31
33z"/>
<path d="M20795 21030 c-11 -17 5 -32 21 -19 7 6 11 15 8 20 -7 12 -21 11 -29
-1z"/>
<path d="M23066 21008 c-20 -40 -20 -41 7 -32 25 8 37 22 37 47 0 28 -27 19
-44 -15z"/>
<path d="M15730 21020 c0 -5 9 -10 21 -10 11 0 17 5 14 10 -3 6 -13 10 -21 10
-8 0 -14 -4 -14 -10z"/>
<path d="M19090 21016 c0 -22 19 -30 35 -16 22 18 18 30 -10 30 -15 0 -25 -6
-25 -14z"/>
<path d="M14730 20980 c0 -5 6 -10 14 -10 8 0 18 5 21 10 3 6 -3 10 -14 10
-12 0 -21 -4 -21 -10z"/>
<path d="M15225 20970 c-3 -5 1 -10 9 -10 9 0 16 5 16 10 0 6 -4 10 -9 10 -6
0 -13 -4 -16 -10z"/>
<path d="M7239 20938 c4 -13 18 -24 30 -26 22 -4 22 -3 6 22 -22 33 -48 36
-36 4z"/>
<path d="M20777 20928 c-21 -46 -22 -118 -2 -118 8 0 15 -8 15 -19 0 -29 28
-88 45 -94 8 -4 15 -13 15 -21 0 -7 6 -16 14 -19 26 -10 29 -58 6 -89 -14 -19
-20 -40 -18 -61 3 -30 6 -32 43 -35 30 -2 47 4 69 21 l29 24 -32 22 c-39 28
-56 58 -43 74 21 25 1 69 -44 96 -48 29 -48 29 -49 186 0 48 -3 60 -17 63 -11
2 -22 -8 -31 -30z"/>
<path d="M14865 20933 c-15 -37 -15 -157 1 -178 22 -29 50 -8 46 36 -1 18 -6
36 -10 39 -4 3 -8 30 -8 60 -2 55 -15 76 -29 43z"/>
<path d="M19095 20940 c-11 -18 5 -30 41 -30 40 0 45 16 8 30 -32 13 -41 13
-49 0z"/>
<path d="M15715 20930 c3 -5 8 -10 11 -10 2 0 4 5 4 10 0 6 -5 10 -11 10 -5 0
-7 -4 -4 -10z"/>
<path d="M7877 20914 c-13 -13 -7 -24 14 -24 11 0 19 5 17 12 -5 14 -22 21
-31 12z"/>
<path d="M9565 20910 c-3 -5 -1 -10 4 -10 6 0 11 5 11 10 0 6 -2 10 -4 10 -3
0 -8 -4 -11 -10z"/>
<path d="M22965 20912 c-6 -4 -16 -19 -22 -34 -7 -16 -17 -28 -23 -28 -13 0
-60 -49 -60 -61 0 -5 9 -9 20 -9 11 0 20 7 20 15 0 9 11 21 25 27 14 6 25 17
25 24 0 7 13 23 29 37 28 24 31 37 7 37 -6 0 -16 -4 -21 -8z"/>
<path d="M9485 20879 c-10 -15 3 -25 16 -12 7 7 7 13 1 17 -6 3 -14 1 -17 -5z"/>
<path d="M11247 20840 c-9 -22 -21 -40 -26 -40 -5 0 -16 -13 -25 -30 -8 -16
-10 -30 -5 -30 5 0 9 -7 9 -15 0 -20 11 -19 50 3 30 17 31 18 26 81 -3 35 -7
65 -9 67 -1 2 -10 -15 -20 -36z"/>
<path d="M7590 20855 c0 -8 -4 -15 -10 -15 -11 0 -12 -52 -1 -90 8 -30 37 -34
33 -5 -1 11 -2 44 -3 73 0 28 -4 52 -9 52 -6 0 -10 -7 -10 -15z"/>
<path d="M8910 20855 c0 -8 5 -15 10 -15 6 0 10 7 10 15 0 8 -4 15 -10 15 -5
0 -10 -7 -10 -15z"/>
<path d="M10485 20831 c-9 -29 4 -67 32 -93 20 -18 25 -19 20 -5 -4 11 -1 17
8 17 22 0 18 37 -5 57 -11 10 -20 23 -20 30 0 20 -28 15 -35 -6z"/>
<path d="M12657 20843 c-4 -3 -7 -13 -7 -21 0 -18 13 -7 16 13 2 17 1 18 -9 8z"/>
<path d="M22552 20808 c-15 -31 -32 -110 -25 -121 3 -4 12 -6 20 -2 13 4 14 3
3 -9 -10 -12 -8 -21 10 -46 24 -33 45 -38 71 -14 15 14 16 18 2 45 -8 17 -21
33 -29 36 -8 3 -14 16 -14 28 0 13 -4 26 -9 30 -5 3 -7 21 -4 40 6 40 -8 47
-25 13z"/>
<path d="M16030 20800 c0 -5 4 -10 9 -10 6 0 13 5 16 10 3 6 -1 10 -9 10 -9 0
-16 -4 -16 -10z"/>
<path d="M12640 20781 c0 -5 11 -12 25 -15 16 -4 25 -13 25 -26 0 -12 7 -20
18 -20 10 0 26 -18 38 -43 19 -36 26 -42 58 -45 39 -3 47 11 24 39 -19 22 -90
73 -106 76 -8 1 -21 11 -29 22 -14 21 -53 29 -53 12z"/>
<path d="M12350 20773 c0 -17 51 -42 83 -43 33 0 78 23 66 34 -6 5 -149 14
-149 9z"/>
<path d="M8920 20746 c0 -25 17 -36 53 -35 l22 0 -22 16 c-13 8 -23 22 -23 29
0 8 -7 14 -15 14 -9 0 -15 -9 -15 -24z"/>
<path d="M10716 20752 c-3 -6 -1 -14 5 -18 20 -12 359 -17 359 -5 0 15 -83 26
-185 25 -49 -1 -97 -2 -105 -3 -8 -1 -27 1 -41 5 -15 3 -30 1 -33 -4z"/>
<path d="M9450 20735 c0 -7 -8 -19 -17 -24 -16 -9 -16 -10 3 -11 19 0 54 28
54 43 0 4 -9 7 -20 7 -11 0 -20 -7 -20 -15z"/>
<path d="M11118 20723 c7 -3 16 -2 19 1 4 3 -2 6 -13 5 -11 0 -14 -3 -6 -6z"/>
<path d="M9165 20710 c-3 -5 -1 -10 4 -10 6 0 11 5 11 10 0 6 -2 10 -4 10 -3
0 -8 -4 -11 -10z"/>
<path d="M22790 20710 c0 -5 7 -7 15 -4 8 4 15 8 15 10 0 2 -7 4 -15 4 -8 0
-15 -4 -15 -10z"/>
<path d="M15787 20693 c-15 -14 -5 -23 26 -23 30 1 31 1 13 15 -22 17 -29 18
-39 8z"/>
<path d="M22760 20670 c0 -5 4 -10 9 -10 6 0 13 5 16 10 3 6 -1 10 -9 10 -9 0
-16 -4 -16 -10z"/>
<path d="M14720 20590 c0 -5 14 -10 31 -10 17 0 28 4 24 10 -3 6 -17 10 -31
10 -13 0 -24 -4 -24 -10z"/>
<path d="M14816 20581 c-3 -5 5 -12 19 -15 14 -4 25 -11 25 -16 0 -15 18 -12
47 7 l26 17 -24 7 c-36 10 -87 10 -93 0z"/>
<path d="M14965 20580 c3 -5 13 -10 21 -10 8 0 14 5 14 10 0 6 -9 10 -21 10
-11 0 -17 -4 -14 -10z"/>
<path d="M15902 20579 c8 -23 213 -37 213 -14 0 10 3 10 -124 20 -78 7 -93 6
-89 -6z"/>
<path d="M22370 20556 c-35 -38 -21 -56 43 -56 73 0 94 22 54 56 -36 31 -67
30 -97 0z"/>
<path d="M1297 20443 c-4 -3 -7 -16 -7 -28 0 -11 -5 -26 -11 -32 -8 -8 0 -13
34 -18 25 -4 49 -5 54 -2 11 7 204 9 268 3 28 -3 210 -7 405 -11 663 -10 877
-14 1121 -21 134 -3 254 -6 267 -5 12 0 22 -4 22 -9 0 -7 7 -7 21 1 15 8 74 9
198 5 235 -9 351 -9 358 -2 3 3 12 -2 18 -11 10 -14 17 -15 36 -7 15 7 38 8
62 2 23 -5 45 -4 57 2 13 7 27 7 44 -1 48 -22 101 38 62 70 -10 8 -44 10 -108
7 -51 -3 -112 -1 -136 3 -23 5 -45 5 -48 0 -2 -4 -42 -6 -87 -4 -45 2 -251 6
-457 10 -206 3 -382 6 -390 7 -8 0 -33 -1 -55 -2 -44 -3 -544 8 -720 16 -60 2
-123 4 -140 3 -68 -5 -261 -3 -435 4 -203 8 -200 8 -282 7 -31 -1 -66 4 -77 9
-22 12 -64 14 -74 4z"/>
<path d="M1455 19830 c-17 -19 -17 -21 8 -70 14 -28 33 -80 42 -118 15 -64 26
-95 46 -134 5 -10 9 -23 9 -29 0 -6 11 -33 24 -59 16 -32 26 -71 28 -114 5
-73 22 -102 56 -92 14 5 22 21 30 58 9 49 9 52 -23 87 -31 34 -47 74 -75 191
-5 19 -18 61 -29 93 -22 64 -28 111 -18 143 6 16 0 24 -30 39 -21 11 -41 21
-44 22 -3 2 -14 -6 -24 -17z"/>
<path d="M1808 19822 c-32 -4 -34 -8 -13 -28 17 -18 39 -90 36 -120 -1 -13 8
-27 23 -38 15 -9 26 -26 26 -39 0 -12 6 -31 13 -42 7 -11 19 -47 26 -80 7 -33
19 -75 27 -93 8 -18 14 -49 14 -70 0 -20 9 -52 20 -69 32 -53 62 -41 74 30 6
34 4 42 -27 76 -23 25 -37 54 -42 81 -4 24 -16 61 -26 84 -10 23 -19 52 -19
64 0 13 -6 36 -14 50 -33 63 -39 103 -19 151 19 48 -1 56 -99 43z"/>
<path d="M2147 19824 c-4 -4 7 -24 25 -46 21 -27 37 -38 51 -36 26 4 58 58 44
76 -10 12 -108 17 -120 6z"/>
<path d="M463 19778 c-4 -7 -9 -40 -9 -73 -1 -33 -5 -77 -9 -98 -6 -33 -5 -38
9 -35 10 1 17 8 18 13 0 6 11 23 24 38 35 42 39 69 15 115 -24 47 -36 57 -48
40z"/>
<path d="M2717 19772 c-15 -16 -16 -24 -6 -46 17 -36 46 -43 73 -17 19 20 20
23 6 49 -19 33 -50 39 -73 14z"/>
<path d="M211 19745 c-34 -33 -34 -34 -18 -59 19 -28 61 -36 70 -13 6 17 -4
107 -12 106 -3 -1 -21 -16 -40 -34z"/>
<path d="M6163 19764 c-15 -7 -17 -50 -4 -59 15 -9 22 -95 25 -317 3 -187 1
-208 -15 -221 -22 -20 -14 -53 14 -61 35 -9 85 -7 92 5 4 5 -1 19 -12 31 -16
18 -18 35 -15 137 8 297 4 444 -10 463 -14 18 -55 30 -75 22z"/>
<path d="M7428 19734 c-4 -3 2 -25 13 -48 16 -37 19 -73 21 -284 l3 -240 -24
-26 c-41 -44 -14 -64 78 -58 48 3 51 8 30 51 -18 37 -19 56 -13 294 6 256 3
287 -30 309 -13 9 -70 10 -78 2z"/>
<path d="M8690 19673 c-20 -8 -30 -24 -30 -50 0 -28 31 -45 73 -41 44 4 50 46
11 77 -28 22 -30 23 -54 14z"/>
<path d="M2986 19606 c-41 -38 -43 -46 -18 -83 14 -23 17 -50 17 -159 0 -129
1 -132 26 -158 17 -16 33 -24 43 -20 19 7 19 4 2 45 -9 21 -14 75 -15 143 -1
90 2 115 18 141 18 31 18 32 0 54 -11 13 -19 31 -19 42 0 31 -17 30 -54 -5z"/>
<path d="M5103 19563 c-28 -30 -31 -39 -21 -57 6 -11 16 -24 21 -28 6 -4 11
-60 11 -136 1 -116 3 -134 22 -159 12 -15 31 -29 43 -31 23 -4 27 8 10 25 -12
12 -17 68 -21 200 -1 64 1 76 22 98 22 24 22 26 6 44 -9 10 -21 32 -25 47 -10
40 -31 39 -68 -3z"/>
<path d="M5801 19556 l-45 -46 25 -32 c22 -31 24 -41 24 -153 1 -132 8 -156
55 -180 34 -18 37 -11 15 41 -9 23 -15 72 -16 137 -1 100 10 157 31 157 17 0
11 28 -8 42 -10 7 -22 28 -28 46 l-9 33 -44 -45z"/>
<path d="M12682 19568 c-28 -28 5 -88 49 -88 45 0 64 67 25 92 -17 12 -61 9
-74 -4z"/>
<path d="M14427 19558 c-6 -19 11 -59 31 -74 14 -10 20 -10 35 3 22 21 22 46
-1 66 -22 20 -58 22 -65 5z"/>
<path d="M16030 19555 c0 -9 6 -28 14 -44 11 -21 15 -81 15 -272 1 -229 0
-246 -19 -278 -20 -32 -20 -34 -3 -47 23 -17 97 -18 112 0 8 10 7 21 -5 46
-14 27 -15 50 -10 139 8 121 8 118 0 306 -3 77 -11 146 -16 153 -16 18 -88 16
-88 -3z"/>
<path d="M2335 19533 c16 -62 17 -235 1 -284 -9 -26 -16 -50 -16 -53 0 -6 69
-26 93 -26 28 0 31 26 7 72 -20 41 -21 49 -10 133 14 114 13 133 -5 162 -11
16 -25 23 -46 23 -29 0 -31 -2 -24 -27z"/>
<path d="M2718 19555 c-3 -3 1 -29 9 -57 7 -29 13 -89 13 -133 0 -67 -4 -90
-25 -131 -14 -27 -25 -50 -25 -50 0 -1 13 -7 29 -13 27 -12 101 -6 101 8 0 3
-7 26 -16 51 -12 35 -14 70 -9 171 5 109 4 129 -10 143 -16 15 -56 22 -67 11z"/>
<path d="M2520 19530 c0 -18 26 -40 49 -40 6 0 11 14 11 30 0 27 -3 30 -30 30
-23 0 -30 -4 -30 -20z"/>
<path d="M14301 19526 c-18 -19 -23 -37 -24 -94 -2 -53 -7 -76 -21 -91 -18
-20 -18 -22 -2 -40 15 -17 18 -39 17 -152 0 -118 -2 -134 -21 -154 -26 -27
-25 -41 1 -56 22 -11 123 -8 136 4 3 4 -1 15 -9 24 -27 32 -36 77 -37 173 -1
96 12 160 31 160 6 0 -2 16 -18 37 l-28 36 17 80 c9 43 14 83 11 88 -9 16 -30
10 -53 -15z"/>
<path d="M4567 19529 c-14 -8 -15 -14 -6 -32 7 -12 14 -82 16 -156 4 -121 7
-137 26 -158 45 -47 44 -57 37 309 0 19 -26 48 -43 48 -7 0 -20 -5 -30 -11z"/>
<path d="M4821 19526 c-9 -10 -9 -20 -2 -34 12 -22 17 -208 8 -270 -6 -39 -4
-47 22 -73 33 -33 52 -36 75 -13 21 20 20 31 -1 43 -16 8 -18 28 -18 166 -1
152 -1 158 -24 176 -28 23 -44 24 -60 5z"/>
<path d="M3556 19521 c-4 -6 0 -14 9 -17 12 -5 15 -14 10 -31 -3 -13 -3 -40 1
-59 6 -32 9 -35 38 -32 23 2 32 9 34 24 5 33 -24 94 -44 94 -9 0 -22 7 -29 17
-8 11 -14 13 -19 4z"/>
<path d="M22785 19516 c-19 -14 -19 -15 -1 -52 15 -33 19 -74 23 -272 l5 -234
-28 -29 c-26 -27 -27 -30 -10 -48 9 -10 35 -21 57 -25 67 -11 101 24 63 65
-14 15 -16 51 -15 258 1 133 4 248 7 256 8 21 -15 74 -37 85 -24 14 -42 12
-64 -4z"/>
<path d="M16546 19505 c-19 -20 -8 -52 27 -79 l27 -20 20 24 c22 26 26 60 8
78 -17 17 -64 15 -82 -3z"/>
<path d="M25608 19509 c-10 -5 -18 -19 -18 -29 0 -10 8 -23 18 -29 14 -8 17
-23 15 -103 -1 -51 -3 -106 -3 -123 0 -16 2 -78 6 -138 5 -88 3 -113 -10 -142
-14 -28 -14 -38 -4 -54 23 -38 88 -53 122 -28 17 12 14 47 -4 47 -23 0 -29 79
-26 314 3 250 3 250 -20 273 -25 25 -48 29 -76 12z"/>
<path d="M3343 19501 c-5 -3 -20 -27 -32 -54 -21 -43 -22 -53 -12 -109 6 -33
17 -68 26 -78 8 -9 15 -22 15 -28 0 -11 60 -45 67 -38 2 2 -8 27 -23 55 -24
49 -25 59 -19 132 4 43 11 79 16 79 5 0 9 8 9 19 0 19 -30 34 -47 22z"/>
<path d="M17895 19490 c-15 -17 -16 -24 -5 -50 14 -34 52 -49 75 -30 18 15 20
71 3 88 -18 18 -53 14 -73 -8z"/>
<path d="M23474 19495 c-3 -8 -1 -30 6 -50 10 -31 15 -35 46 -35 35 0 39 7 34
55 -2 26 -9 31 -48 39 -24 4 -34 2 -38 -9z"/>
<path d="M4085 19484 c-32 -33 -65 -94 -65 -123 0 -46 25 -103 62 -144 29 -31
37 -35 42 -22 3 9 -1 26 -9 38 -18 26 -20 138 -3 202 14 54 2 77 -27 49z"/>
<path d="M4356 19382 c1 -65 -3 -126 -9 -139 -14 -31 9 -59 33 -40 57 45 67
145 24 233 -42 87 -50 78 -48 -54z"/>
<path d="M19448 19489 c-40 -23 -14 -99 32 -99 32 0 50 22 50 62 0 43 -41 61
-82 37z"/>
<path d="M21053 19492 c-43 -7 -49 -28 -22 -82 18 -37 30 -50 46 -50 17 0 23
7 29 34 7 41 -3 93 -19 98 -7 2 -22 2 -34 0z"/>
<path d="M23388 19484 c-42 -22 -68 -73 -68 -136 0 -37 -5 -60 -15 -68 -8 -7
-15 -18 -15 -25 0 -7 7 -18 15 -25 12 -10 15 -39 15 -144 0 -111 -3 -136 -19
-162 -21 -34 -18 -45 17 -63 22 -11 73 -9 125 5 17 5 25 34 8 34 -4 0 -19 10
-33 23 -23 21 -24 27 -22 142 1 93 5 128 19 154 17 34 17 35 -5 51 -20 15 -22
24 -18 76 2 32 12 76 23 97 21 45 11 61 -27 41z"/>
<path d="M21246 19475 c-28 -28 -18 -71 20 -85 32 -13 51 -4 62 30 12 34 -1
56 -39 65 -18 4 -32 1 -43 -10z"/>
<path d="M23046 19474 c-33 -33 -7 -94 41 -94 25 0 53 30 53 57 0 44 -63 69
-94 37z"/>
<path d="M6435 19470 c-3 -5 -1 -35 4 -67 16 -85 14 -215 -4 -239 -20 -27 -19
-64 3 -65 35 -3 97 3 105 10 4 4 -2 20 -15 36 -20 26 -22 37 -20 154 2 123 1
127 -23 154 -27 29 -40 33 -50 17z"/>
<path d="M20754 19462 c-28 -24 -54 -75 -54 -107 0 -35 33 -105 62 -131 28
-25 109 -59 163 -68 111 -19 151 -85 110 -183 -26 -61 -44 -75 -87 -68 -39 7
-78 0 -78 -14 0 -5 13 -14 29 -21 34 -14 91 1 127 32 11 10 25 18 31 18 6 0
21 16 33 35 30 48 29 140 0 194 -28 48 -58 66 -151 87 -89 20 -132 44 -149 84
-13 32 -7 105 11 127 12 14 4 33 -14 33 -7 -1 -22 -9 -33 -18z"/>
<path d="M27891 19471 c-11 -7 -10 -16 7 -53 20 -41 22 -60 22 -278 1 -225 0
-236 -19 -252 -25 -20 -26 -31 -5 -52 19 -20 103 -21 128 -3 17 13 17 15 -6
49 l-25 36 5 258 c3 207 1 263 -10 277 -15 20 -77 32 -97 18z"/>
<path d="M467 19411 c3 -33 0 -81 -6 -107 -14 -55 -6 -69 32 -55 40 16 76 118
47 136 -5 3 -10 16 -10 29 0 26 -28 56 -52 56 -14 0 -15 -10 -11 -59z"/>
<path d="M26596 19457 c-12 -9 -17 -23 -14 -47 2 -29 8 -36 35 -44 46 -12 67
6 59 53 -8 49 -42 66 -80 38z"/>
<path d="M6693 19442 c-13 -8 -31 -50 -43 -99 -9 -36 6 -112 24 -128 6 -6 16
-19 22 -30 14 -26 74 -66 86 -59 5 3 -2 16 -16 29 -40 37 -50 89 -38 191 6 49
8 92 6 96 -6 10 -25 10 -41 0z"/>
<path d="M6928 19440 c-2 -6 -1 -31 0 -56 3 -34 10 -49 29 -61 23 -15 26 -15
45 5 19 19 20 23 7 54 -7 18 -20 41 -28 51 -17 19 -47 23 -53 7z"/>
<path d="M8214 19417 c-38 -33 -40 -104 -5 -141 14 -14 27 -23 30 -20 3 3 6
27 7 52 0 26 4 66 8 90 10 49 0 53 -40 19z"/>
<path d="M8675 19430 c-3 -5 1 -22 9 -38 22 -43 24 -247 3 -288 -15 -30 -15
-33 2 -48 14 -13 28 -15 60 -10 45 7 51 20 27 65 -10 19 -12 57 -9 145 6 155
6 153 -8 170 -13 16 -75 19 -84 4z"/>
<path d="M7975 19398 c22 -92 21 -151 -1 -255 -8 -40 8 -43 46 -10 74 65 55
258 -29 289 -23 8 -23 7 -16 -24z"/>
<path d="M8410 19345 c0 -70 3 -87 17 -92 24 -9 53 32 53 77 0 61 -18 100 -46
100 -23 0 -24 -2 -24 -85z"/>
<path d="M7713 19405 c-27 -19 -55 -107 -47 -144 11 -50 28 -86 55 -114 35
-34 44 -21 31 41 -18 80 -20 106 -12 122 12 23 16 103 5 107 -6 2 -20 -4 -32
-12z"/>
<path d="M10118 19413 c-16 -2 -28 -8 -28 -12 0 -5 21 -26 48 -47 79 -64 122
-117 122 -149 0 -8 7 -15 15 -15 10 0 12 -6 8 -17 -6 -15 -4 -16 8 -6 8 6 19
12 24 13 22 3 2 47 -36 82 -33 30 -41 46 -48 87 -4 29 -10 53 -12 55 -8 7 -75
13 -101 9z"/>
<path d="M10398 19407 c-41 -10 -50 -35 -24 -70 13 -16 16 -16 60 9 71 40 46
82 -36 61z"/>
<path d="M8952 19380 c-12 -11 -29 -46 -38 -77 -23 -78 -7 -149 42 -192 35
-31 64 -40 64 -21 0 6 -7 25 -17 43 -31 60 -33 97 -12 176 10 41 19 78 19 83
0 15 -36 8 -58 -12z"/>
<path d="M9165 19389 c-10 -15 3 -75 20 -89 18 -15 55 -4 56 18 3 36 -3 58
-19 70 -19 15 -49 16 -57 1z"/>
<path d="M10606 19392 c-3 -5 1 -26 8 -48 8 -24 15 -101 17 -199 5 -269 6
-251 -20 -279 -20 -21 -22 -29 -12 -39 13 -13 134 -17 147 -5 3 4 -5 20 -18
36 -24 29 -25 33 -26 230 -1 110 3 214 8 232 5 17 7 37 4 44 -10 27 -95 49
-108 28z"/>
<path d="M11136 19391 c-4 -6 2 -28 14 -50 17 -34 20 -59 20 -154 0 -99 -3
-118 -20 -140 -29 -37 -25 -55 13 -62 24 -4 125 -1 145 4 2 1 -15 18 -36 39
l-40 37 2 90 c2 50 6 113 10 141 6 44 4 53 -16 71 -27 24 -83 39 -92 24z"/>
<path d="M15691 19350 l-43 -51 23 -25 c22 -24 24 -34 24 -142 1 -150 25 -202
94 -202 26 0 26 5 0 41 -17 25 -22 50 -26 147 l-6 118 32 27 c18 15 45 27 59
28 22 1 19 3 -12 10 -50 12 -64 24 -74 62 -4 17 -13 32 -18 34 -6 2 -30 -19
-53 -47z"/>
<path d="M19742 19388 c5 -23 -23 -77 -48 -93 -29 -19 -31 -46 -4 -63 18 -11
20 -23 20 -132 0 -168 16 -203 100 -216 l45 -7 -25 29 c-44 51 -48 67 -49 181
-1 103 0 111 23 132 13 12 32 22 42 21 33 -4 45 0 39 10 -3 6 -19 10 -34 10
-28 0 -61 26 -61 48 0 19 -34 92 -43 92 -4 0 -7 -6 -5 -12z"/>
<path d="M10866 19375 c4 -9 15 -20 25 -25 11 -6 27 -38 38 -76 19 -59 19 -70
7 -122 -8 -31 -21 -70 -30 -87 -32 -61 32 -52 81 11 25 33 28 46 28 108 0 85
-33 162 -75 177 -14 5 -33 14 -42 19 -25 14 -38 12 -32 -5z"/>
<path d="M176 19364 c-3 -9 -6 -28 -6 -44 0 -22 6 -30 29 -38 20 -7 32 -7 40
1 14 14 14 52 1 78 -13 23 -55 25 -64 3z"/>
<path d="M9672 19353 c-13 -14 -30 -43 -38 -64 -14 -33 -14 -43 2 -95 17 -59
59 -124 80 -124 7 0 14 -7 18 -15 6 -16 36 -21 36 -6 0 4 -12 26 -27 47 -28
41 -30 61 -22 204 5 85 -9 100 -49 53z"/>
<path d="M9923 19373 c-14 -5 -17 -62 -6 -101 3 -13 17 -28 31 -33 36 -14 57
8 48 53 -7 37 -53 88 -73 81z"/>
<path d="M11330 19362 c0 -10 11 -29 24 -41 l24 -23 12 22 c9 18 8 25 -6 41
-22 24 -54 25 -54 1z"/>
<path d="M12690 19355 c-10 -12 -10 -23 3 -58 24 -63 26 -221 3 -269 -27 -56
-18 -68 54 -68 66 0 77 14 43 53 -16 17 -18 41 -18 176 0 86 -4 162 -8 169
-11 17 -62 15 -77 -3z"/>
<path d="M13419 19344 c-10 -13 -10 -20 4 -44 24 -39 24 -237 1 -286 -25 -52
-15 -64 56 -64 68 0 71 5 40 65 -20 39 -22 105 -5 230 6 47 4 52 -25 83 -34
36 -51 40 -71 16z"/>
<path d="M12137 19343 c-7 -12 11 -53 23 -53 17 0 23 29 10 45 -14 16 -26 19
-33 8z"/>
<path d="M12505 19340 c-7 -11 12 -50 24 -50 15 0 22 32 10 46 -13 16 -25 18
-34 4z"/>
<path d="M11503 19305 c-52 -57 -58 -166 -11 -224 27 -33 99 -82 110 -75 4 3
-7 23 -25 46 l-32 40 3 124 c2 68 -1 124 -5 124 -4 0 -22 -16 -40 -35z"/>
<path d="M11738 19283 c5 -65 23 -89 53 -72 39 21 5 129 -40 129 -15 0 -17 -8
-13 -57z"/>
<path d="M26883 19314 c-10 -15 -28 -37 -40 -51 -28 -29 -28 -31 -2 -59 20
-21 22 -35 23 -151 1 -106 4 -134 19 -156 21 -32 50 -46 84 -39 l23 4 -25 30
c-15 18 -25 42 -25 61 0 18 -2 70 -4 117 -5 99 10 140 49 140 13 0 27 5 30 10
3 6 -4 10 -18 10 -23 0 -57 27 -57 45 0 5 -7 17 -17 27 -9 11 -11 18 -5 18 7
0 12 5 12 10 0 20 -29 10 -47 -16z"/>
<path d="M13685 19320 c-3 -6 -4 -29 -1 -53 3 -23 8 -80 11 -127 4 -73 2 -92
-15 -123 -11 -20 -20 -43 -20 -51 0 -17 85 -31 130 -21 l30 7 -25 30 c-24 28
-25 35 -25 160 l0 130 -29 29 c-31 31 -46 36 -56 19z"/>
<path d="M14995 19316 c-19 -14 -19 -15 -1 -35 15 -17 19 -42 23 -133 5 -110
0 -139 -29 -180 -10 -15 -9 -20 7 -32 23 -18 97 -21 125 -6 18 10 18 11 -4 35
-35 38 -41 110 -20 257 6 43 4 49 -24 77 -34 34 -49 38 -77 17z"/>
<path d="M15176 19307 c-17 -12 -16 -15 12 -45 34 -36 44 -39 67 -16 16 17 12
53 -9 66 -17 12 -50 9 -70 -5z"/>
<path d="M13190 19303 c0 -3 8 -15 18 -26 14 -15 17 -38 17 -113 0 -61 -4 -97
-12 -105 -18 -18 -16 -59 2 -59 25 0 65 31 65 51 0 10 4 20 9 23 35 22 1 191
-44 220 -25 16 -55 21 -55 9z"/>
<path d="M16544 19296 c-3 -8 2 -28 10 -45 12 -22 16 -60 16 -149 0 -107 -2
-122 -21 -146 -20 -26 -21 -29 -5 -44 22 -22 105 -26 113 -5 3 8 0 26 -6 40
-8 17 -12 81 -12 176 1 127 -2 153 -16 169 -19 21 -71 24 -79 4z"/>
<path d="M700 19280 c-29 -53 35 -106 71 -58 17 22 17 24 -8 51 -32 32 -48 34
-63 7z"/>
<path d="M11910 19272 c0 -48 57 -98 122 -106 64 -9 86 -19 121 -60 l27 -31
-4 39 c-5 51 -26 68 -118 97 -39 12 -81 31 -92 43 -12 12 -29 27 -38 35 -16
12 -18 11 -18 -17z"/>
<path d="M12941 19287 c-20 -25 -41 -86 -41 -122 0 -56 37 -132 73 -150 40
-20 54 -19 35 3 -29 32 -37 127 -22 239 5 38 3 43 -14 43 -11 0 -25 -6 -31
-13z"/>
<path d="M16296 19273 c4 -16 11 -38 15 -51 5 -13 9 -70 9 -126 0 -88 -3 -107
-20 -129 -26 -32 -25 -43 3 -60 27 -17 77 -16 106 2 12 7 10 14 -7 36 -19 24
-21 40 -21 161 0 123 -2 137 -23 164 -13 18 -31 30 -45 30 -20 0 -23 -3 -17
-27z"/>
<path d="M12276 19273 c-8 -19 37 -88 62 -98 10 -3 39 -11 65 -16 62 -11 103
-40 118 -84 18 -50 39 -45 39 8 0 63 -41 99 -143 126 -71 19 -115 46 -117 74
0 14 -18 7 -24 -10z"/>
<path d="M14785 19280 c-3 -5 2 -21 11 -35 13 -21 15 -42 11 -118 -3 -50 -9
-104 -13 -119 -6 -25 -4 -28 20 -28 23 0 31 8 51 53 32 67 32 124 1 185 -24
47 -69 81 -81 62z"/>
<path d="M16983 19274 c-6 -17 33 -64 54 -64 21 0 16 58 -6 70 -27 14 -41 13
-48 -6z"/>
<path d="M17893 19274 c-3 -10 0 -31 7 -48 8 -17 16 -77 18 -137 3 -104 3
-107 -24 -139 l-28 -33 23 -18 c15 -12 39 -19 67 -19 57 0 69 20 41 67 -18 31
-19 45 -13 164 6 111 5 134 -9 155 -19 29 -72 34 -82 8z"/>
<path d="M18143 19274 c-3 -9 1 -29 11 -44 12 -22 16 -54 16 -145 0 -101 -3
-120 -20 -142 -38 -48 7 -76 102 -64 30 4 44 11 46 24 2 9 -2 17 -8 17 -6 0
-21 11 -34 25 -21 23 -23 33 -19 93 2 37 9 95 15 129 10 61 10 63 -18 93 -32
33 -80 41 -91 14z"/>
<path d="M18337 19273 c-23 -23 12 -73 51 -73 16 0 22 6 22 23 0 38 -51 73
-73 50z"/>
<path d="M18920 19267 c0 -8 7 -28 16 -45 11 -23 15 -62 15 -146 0 -113 1
-116 29 -146 54 -57 57 -49 53 142 -5 196 -9 208 -75 208 -25 0 -38 -5 -38
-13z"/>
<path d="M19177 19268 c-2 -7 2 -27 10 -45 15 -38 17 -198 3 -258 -9 -37 -8
-42 20 -67 30 -28 53 -34 84 -22 20 8 20 28 0 59 -12 19 -15 52 -15 165 1 82
-3 149 -9 160 -8 15 -21 20 -50 20 -22 0 -40 -5 -43 -12z"/>
<path d="M19433 19264 c-3 -8 0 -27 7 -42 7 -15 15 -77 18 -139 4 -103 3 -114
-18 -149 -23 -36 -23 -37 -5 -50 10 -8 41 -14 67 -14 57 0 70 17 44 60 -13 23
-16 56 -16 170 0 78 -5 150 -10 161 -13 24 -78 27 -87 3z"/>
<path d="M23862 19265 c-19 -14 -22 -23 -16 -48 14 -67 46 -75 93 -22 35 40
37 48 18 64 -25 20 -71 23 -95 6z"/>
<path d="M14523 19248 c-57 -61 -44 -194 23 -247 35 -27 53 -14 35 26 -21 46
-25 166 -7 201 21 40 20 42 -7 42 -13 0 -33 -10 -44 -22z"/>
<path d="M17519 19254 c-38 -24 -71 -79 -79 -131 -8 -50 3 -116 19 -121 6 -2
11 -9 11 -16 0 -17 59 -66 81 -66 24 0 24 -1 -6 70 -29 70 -32 137 -8 183 10
18 23 47 29 65 10 28 9 32 -5 32 -9 0 -28 -8 -42 -16z"/>
<path d="M21251 19261 c-10 -6 -12 -18 -6 -42 3 -19 9 -82 12 -141 4 -98 3
-111 -18 -148 l-23 -40 24 -17 c14 -10 44 -17 72 -17 55 -1 60 11 32 67 -14
26 -16 53 -11 162 7 146 -1 178 -43 183 -14 1 -31 -2 -39 -7z"/>
<path d="M21490 19255 c-10 -13 -9 -19 6 -36 17 -18 19 -38 19 -149 0 -119 -2
-130 -22 -152 -13 -14 -23 -26 -23 -29 0 -2 15 -13 34 -23 27 -14 45 -17 80
-12 52 8 61 29 26 61 -16 15 -20 31 -20 90 0 39 5 97 11 129 13 74 6 102 -31
121 -37 19 -64 19 -80 0z"/>
<path d="M22264 19255 c-4 -8 1 -27 11 -41 14 -21 16 -55 16 -230 0 -112 -1
-209 -1 -214 0 -6 -11 -20 -25 -32 -14 -12 -25 -27 -25 -34 0 -16 60 -28 120
-25 46 2 55 15 31 47 -19 28 -20 39 -18 244 2 118 6 223 11 232 12 27 -35 68
-79 68 -23 0 -38 -6 -41 -15z"/>
<path d="M23036 19254 c-3 -8 0 -27 8 -42 9 -17 16 -72 19 -142 4 -102 2 -118
-15 -142 -35 -50 -3 -86 68 -74 16 2 32 5 35 5 14 2 19 34 7 49 -9 10 -13 61
-14 169 -2 132 -4 157 -20 174 -21 24 -79 26 -88 3z"/>
<path d="M23573 19263 c-17 -6 -16 -30 0 -40 12 -7 38 -53 79 -136 30 -62 88
-243 82 -260 -4 -14 -2 -18 7 -15 8 3 15 14 17 25 2 12 12 29 23 39 32 29 26
88 -14 128 -42 41 -82 153 -73 204 3 20 1 42 -6 49 -10 13 -89 17 -115 6z"/>
<path d="M24846 19257 c-16 -12 -16 -14 1 -47 13 -26 19 -64 21 -144 3 -98 2
-111 -17 -137 -12 -15 -21 -35 -21 -42 0 -19 46 -36 85 -32 17 2 38 4 48 4 23
1 22 22 -4 55 -19 24 -20 36 -16 134 3 59 8 119 12 133 13 49 -68 106 -109 76z"/>
<path d="M17704 19247 c-3 -8 -4 -32 -2 -53 3 -35 6 -39 32 -42 63 -8 62 84
-2 103 -15 4 -24 2 -28 -8z"/>
<path d="M18527 19221 c-47 -53 -74 -139 -58 -190 12 -43 65 -110 95 -121 41
-15 44 -1 15 54 -39 71 -42 154 -10 208 23 38 25 78 5 85 -6 2 -27 -14 -47
-36z"/>
<path d="M22026 19229 c3 -19 8 -88 11 -154 5 -119 5 -121 -21 -151 l-25 -31
22 -22 c25 -23 69 -27 111 -11 32 12 32 23 5 62 -20 27 -21 38 -15 123 10 134
-10 197 -66 211 -27 6 -28 5 -22 -27z"/>
<path d="M25113 19252 c-9 -6 -10 -30 -3 -97 15 -142 13 -196 -10 -230 -11
-16 -20 -35 -20 -42 0 -29 129 -40 145 -12 3 5 -5 28 -18 51 -23 40 -24 51
-20 153 4 116 -3 145 -42 171 -11 7 -26 10 -32 6z"/>
<path d="M16780 19231 c-34 -65 40 -151 130 -151 56 0 88 -28 97 -84 6 -40 14
-49 36 -40 24 9 31 70 11 104 -27 44 -63 66 -133 78 -75 14 -84 19 -101 72
-15 44 -24 49 -40 21z"/>
<path d="M18723 19234 c-9 -24 9 -85 29 -98 26 -16 63 23 54 57 -12 50 -69 78
-83 41z"/>
<path d="M21767 19242 c-3 -4 -1 -32 5 -62 15 -81 5 -236 -17 -259 -27 -31
-12 -61 33 -61 20 0 47 -3 59 -6 32 -9 41 20 18 62 -15 28 -17 50 -13 136 3
57 9 111 13 120 13 32 -81 99 -98 70z"/>
<path d="M22540 19230 c0 -11 4 -20 10 -20 5 0 17 -17 27 -37 28 -58 22 -159
-12 -217 -28 -48 -26 -66 5 -66 36 0 79 49 96 108 15 49 15 66 5 116 -14 68
-28 91 -68 117 -37 25 -63 24 -63 -1z"/>
<path d="M26592 19241 c-11 -7 -11 -16 2 -55 11 -31 16 -82 16 -150 0 -90 -2
-105 -20 -121 -44 -40 -7 -79 71 -73 37 3 44 7 47 26 2 13 -2 30 -10 39 -9 11
-13 61 -16 167 -2 126 -5 153 -19 164 -19 14 -52 16 -71 3z"/>
<path d="M24575 19230 c-3 -5 0 -21 6 -37 6 -15 12 -86 13 -156 l2 -128 40
-24 c58 -34 74 -22 51 42 -12 33 -17 78 -17 145 0 88 -2 99 -25 126 -25 30
-61 47 -70 32z"/>
<path d="M24381 19216 c-7 -8 -11 -30 -9 -48 3 -29 7 -33 35 -36 36 -4 49 19
38 68 -5 23 -12 30 -30 30 -12 0 -28 -6 -34 -14z"/>
<path d="M25381 19214 c-59 -42 -79 -165 -38 -244 27 -54 71 -90 89 -72 10 10
8 19 -6 43 -29 49 -32 133 -7 208 11 35 21 68 21 73 0 14 -34 9 -59 -8z"/>
<path d="M26180 19192 c-65 -65 -75 -202 -19 -255 10 -10 19 -22 19 -27 0 -14
40 -37 78 -45 40 -8 44 14 8 42 -54 43 -70 124 -42 215 7 26 23 56 35 69 29
31 27 39 -10 39 -23 0 -42 -10 -69 -38z"/>
<path d="M26380 19183 c0 -76 62 -113 83 -49 12 36 -17 79 -56 84 -25 3 -27 1
-27 -35z"/>
<path d="M28562 19212 l-22 -7 33 -50 c40 -60 83 -165 92 -221 17 -109 95
-143 95 -41 0 30 -8 48 -33 78 -41 47 -59 104 -56 172 3 46 0 53 -21 64 -27
14 -52 15 -88 5z"/>
<path d="M27206 19188 c-51 -39 -69 -116 -45 -202 14 -49 89 -126 124 -126 27
0 34 14 11 23 -7 3 -26 27 -41 54 -25 44 -26 53 -20 122 4 40 13 88 21 107 8
18 14 36 14 39 0 12 -37 3 -64 -17z"/>
<path d="M27416 19143 c8 -91 9 -93 44 -93 24 0 33 6 40 26 6 14 7 36 4 50 -6
24 -66 84 -84 84 -5 0 -7 -29 -4 -67z"/>
<path d="M28780 19192 c0 -10 5 -23 11 -29 6 -6 15 -30 20 -54 10 -43 56 -116
66 -105 10 10 10 181 0 194 -5 6 -29 12 -53 12 -36 0 -44 -3 -44 -18z"/>
<path d="M29015 19200 c-7 -12 19 -75 36 -85 8 -5 23 3 41 24 38 43 26 71 -32
71 -21 0 -41 -4 -45 -10z"/>
<path d="M29407 19194 c-12 -13 -8 -61 8 -74 18 -15 45 -6 45 14 0 20 -43 69
-53 60z"/>
<path d="M28168 19169 c-25 -14 -22 -55 4 -73 30 -21 48 -4 48 45 0 41 -15 50
-52 28z"/>
<path d="M28367 19103 c4 -43 6 -113 5 -155 l-2 -78 41 -26 c59 -37 66 -38 79
-13 11 20 9 25 -13 41 -30 22 -36 46 -40 169 -3 93 -22 139 -57 139 -18 0 -19
-5 -13 -77z"/>
<path d="M10337 19133 c3 -10 10 -23 15 -30 5 -6 8 -26 6 -44 -3 -28 2 -35 30
-52 32 -19 36 -19 68 -4 31 15 46 37 26 37 -5 0 -35 25 -67 55 -60 56 -90 70
-78 38z"/>
<path d="M8215 19099 c-10 -31 6 -41 51 -31 46 10 147 5 184 -9 34 -13 74 -72
65 -98 -7 -23 8 -35 35 -26 15 5 20 15 20 45 0 33 -6 44 -42 74 -35 30 -50 36
-92 37 -126 4 -153 7 -173 17 -31 17 -41 15 -48 -9z"/>
<path d="M29202 19112 c-10 -7 -10 -14 0 -38 22 -51 59 -84 92 -84 41 -1 112
-33 125 -58 6 -12 11 -32 11 -46 0 -31 14 -41 30 -21 18 22 14 81 -8 112 -19
27 -98 63 -137 63 -28 0 -74 32 -77 54 -3 22 -17 29 -36 18z"/>
<path d="M10122 19067 c-31 -16 -41 -27 -40 -42 3 -17 11 -20 58 -20 l55 0 0
40 c0 49 -14 53 -73 22z"/>
<path d="M11907 19073 c-2 -5 -7 -20 -11 -35 -5 -21 -2 -28 14 -33 11 -3 29
-4 39 0 19 6 19 7 -1 40 -19 34 -33 43 -41 28z"/>
<path d="M9025 19060 c3 -5 8 -10 11 -10 2 0 4 5 4 10 0 6 -5 10 -11 10 -5 0
-7 -4 -4 -10z"/>
<path d="M12271 19056 c-15 -18 -6 -52 16 -60 25 -10 38 10 27 41 -11 32 -27
39 -43 19z"/>
<path d="M24385 19037 c-43 -31 -54 -48 -55 -80 0 -34 53 -87 87 -87 31 0 33
9 17 58 -11 32 -12 51 -5 79 16 57 4 66 -44 30z"/>
<path d="M20707 19043 c-14 -23 -18 -97 -7 -123 15 -36 37 -45 66 -25 31 20
30 46 -3 106 -26 45 -45 60 -56 42z"/>
<path d="M8167 19023 c-4 -3 -7 -21 -7 -38 0 -25 6 -34 26 -44 33 -15 41 -8
26 22 -6 12 -14 32 -17 45 -6 22 -16 28 -28 15z"/>
<path d="M28162 18992 c-17 -16 -34 -41 -37 -55 -13 -51 65 -121 98 -88 9 9 9
14 -2 20 -9 6 -12 27 -9 76 4 80 -6 88 -50 47z"/>
<path d="M16764 18974 c-7 -40 4 -54 45 -54 20 0 22 3 16 28 -7 28 -32 62 -46
62 -4 0 -11 -16 -15 -36z"/>
<path d="M28895 18977 c-12 -30 5 -106 30 -135 22 -25 25 -26 40 -11 8 8 18
32 21 51 6 32 3 38 -22 54 -16 10 -37 27 -46 38 -15 19 -17 20 -23 3z"/>
<path d="M20060 18950 c-15 -29 -2 -69 25 -76 37 -9 59 -1 73 29 12 25 12 31
-4 48 -23 26 -80 26 -94 -1z"/>
<path d="M29184 18907 c-3 -8 -4 -30 -2 -48 2 -26 9 -34 30 -40 40 -10 57 14
35 49 -8 15 -25 33 -36 41 -18 11 -22 11 -27 -2z"/>
<path d="M29613 18885 c-44 -31 -23 -95 31 -95 26 0 35 6 45 27 10 23 9 30 -7
52 -24 32 -41 36 -69 16z"/>
<path d="M23530 18770 c-20 -37 23 -86 65 -76 29 7 31 25 10 66 -19 36 -58 41
-75 10z"/>
<path d="M5935 17894 c-11 -1 -76 -8 -145 -14 -140 -13 -348 -51 -444 -80 -72
-23 -106 -52 -90 -77 23 -37 40 -38 108 -5 87 43 243 78 450 102 228 27 259
33 264 47 7 25 -67 39 -143 27z"/>
<path d="M7178 17760 c-26 -16 -23 -58 5 -70 12 -5 189 -15 392 -21 204 -6
388 -11 409 -12 89 -4 33 46 -72 64 -31 5 -156 16 -277 24 -364 25 -438 27
-457 15z"/>
<path d="M12313 17734 c-19 -8 -16 -39 5 -56 9 -8 50 -20 90 -26 41 -7 99 -24
130 -39 79 -37 230 -152 297 -226 131 -145 305 -447 364 -630 42 -132 56 -282
42 -438 -28 -294 -116 -506 -272 -655 -73 -69 -121 -102 -232 -156 -77 -38
-93 -60 -49 -66 24 -4 163 59 227 102 72 48 189 173 238 255 90 147 144 350
154 576 11 259 -65 498 -254 804 -159 255 -324 414 -538 516 -77 37 -168 54
-202 39z"/>
<path d="M1605 17557 c-18 -14 -18 -19 -7 -50 12 -33 11 -47 -8 -92 -5 -11
-11 -31 -13 -45 -3 -14 -16 -68 -30 -120 -14 -52 -28 -113 -32 -135 -3 -22
-20 -68 -36 -101 -41 -87 -39 -94 19 -94 l49 0 -1 79 c-1 52 3 84 12 92 6 7
12 29 12 49 0 23 7 43 18 54 12 10 19 32 20 57 1 22 5 46 9 52 4 7 8 34 9 60
2 28 9 56 18 66 9 10 16 28 16 42 0 13 7 37 15 53 18 34 18 34 -21 42 -18 3
-37 0 -49 -9z"/>
<path d="M1930 17553 c0 -5 16 -19 36 -31 33 -21 38 -22 52 -8 13 12 13 18 2
30 -13 16 -90 23 -90 9z"/>
<path d="M8462 17506 c-75 -52 -118 -106 -170 -212 -91 -189 -139 -376 -128
-509 23 -293 167 -500 441 -637 158 -79 425 -154 463 -130 22 15 -5 27 -143
67 -248 71 -409 157 -519 276 -110 118 -153 226 -163 404 -9 172 18 294 108
480 68 142 130 208 211 229 18 4 30 15 34 31 15 61 -46 62 -134 1z"/>
<path d="M17472 17378 c-7 -7 -12 -24 -12 -38 0 -37 18 -50 69 -50 24 0 110
-13 190 -30 265 -54 374 -57 501 -15 42 14 50 20 50 42 0 23 -3 25 -37 19
-168 -26 -241 -19 -512 50 -139 35 -228 43 -249 22z"/>
<path d="M7320 17363 c-37 -13 -145 -140 -223 -261 -45 -69 -141 -258 -190
-374 -75 -175 -104 -325 -73 -373 23 -35 77 -35 105 1 23 30 18 52 -16 65 -23
9 -25 13 -19 57 13 89 80 271 149 402 103 198 238 400 267 400 10 0 22 -72 57
-352 l6 -47 -39 -6 c-134 -23 -253 -78 -297 -137 -17 -23 -18 -30 -7 -43 18
-22 90 -17 101 8 5 9 13 25 17 34 10 19 90 53 172 73 65 16 73 8 89 -86 20
-110 81 -336 107 -396 30 -64 66 -103 88 -95 23 9 20 31 -13 90 -16 28 -41 97
-54 152 -46 184 -77 321 -77 338 0 24 37 30 169 25 104 -3 124 -7 175 -32 37
-18 68 -43 89 -72 18 -24 38 -43 45 -44 38 -1 -19 127 -72 159 -57 35 -166 53
-301 49 l-120 -3 -7 45 c-4 25 -12 106 -18 180 -7 74 -16 156 -22 183 -12 58
-40 77 -88 60z"/>
<path d="M5592 17328 c-18 -18 -14 -34 12 -52 25 -16 49 -56 143 -236 58 -110
96 -174 172 -285 70 -104 80 -115 103 -115 30 0 32 28 6 68 -48 71 -155 248
-193 317 -149 273 -177 315 -213 315 -10 0 -23 -5 -30 -12z"/>
<path d="M6175 17310 c-16 -6 -17 -9 -5 -13 27 -10 140 -14 140 -5 0 17 -104
31 -135 18z"/>
<path d="M9542 17295 c-127 -30 -212 -159 -232 -351 -11 -101 2 -292 29 -443
12 -63 21 -127 21 -143 0 -32 37 -62 64 -52 21 8 20 27 -18 269 -54 349 -21
559 101 641 75 50 186 34 241 -35 57 -71 66 -125 32 -190 -23 -46 -64 -81 -95
-81 -39 0 -117 -28 -141 -51 -30 -28 -31 -53 -2 -73 37 -26 80 -19 147 24 68
44 84 47 159 25 90 -27 132 -83 132 -177 0 -109 -107 -309 -206 -384 -27 -21
-42 -25 -69 -21 -22 4 -38 1 -45 -8 -27 -33 43 -84 96 -71 86 22 232 212 285
371 18 57 15 174 -6 219 -24 50 -88 102 -149 121 -28 9 -57 18 -65 21 -10 3
-9 10 5 32 57 86 65 132 35 198 -59 129 -185 192 -319 159z"/>
<path d="M1782 17248 c-19 -19 -15 -48 8 -48 18 0 40 26 40 49 0 15 -33 14
-48 -1z"/>
<path d="M6502 17238 c5 -15 28 -23 28 -10 0 5 -7 13 -16 16 -10 4 -14 1 -12
-6z"/>
<path d="M2465 17231 c-3 -6 -3 -15 0 -21 9 -14 127 -8 132 7 3 8 -11 11 -44
10 -26 -1 -55 2 -64 6 -10 5 -20 4 -24 -2z"/>
<path d="M2933 17225 c-13 -10 -15 -17 -7 -25 15 -15 54 -4 54 15 0 20 -26 25
-47 10z"/>
<path d="M11595 17225 c-108 -58 -179 -204 -228 -469 -20 -109 -22 -152 -22
-436 0 -246 3 -322 14 -348 18 -42 44 -57 65 -37 25 25 28 52 9 87 -16 30 -18
64 -18 348 0 292 2 323 23 419 38 172 69 253 124 324 50 63 110 84 142 48 22
-24 25 -193 6 -308 -11 -65 -11 -90 -2 -121 16 -52 74 -104 148 -132 33 -12
87 -35 121 -51 111 -53 100 -83 -101 -287 -151 -154 -234 -223 -300 -251 -49
-22 -57 -38 -28 -64 49 -45 118 1 360 238 140 137 200 214 209 269 11 71 -54
138 -182 187 -128 50 -152 65 -160 98 -4 17 -1 65 5 108 16 101 16 259 1 304
-6 20 -23 46 -36 59 -32 30 -108 38 -150 15z"/>
<path d="M2825 17210 c-4 -6 5 -10 19 -10 14 0 26 5 26 10 0 6 -9 10 -19 10
-11 0 -23 -4 -26 -10z"/>
<path d="M9084 17209 c-8 -14 18 -31 30 -19 9 9 0 30 -14 30 -5 0 -12 -5 -16
-11z"/>
<path d="M15232 17187 c-32 -38 -22 -337 18 -526 27 -129 27 -131 -15 -131
-42 0 -135 -35 -152 -57 -18 -24 -16 -62 3 -70 10 -3 31 -1 48 6 78 32 147 53
152 48 4 -3 14 -72 24 -153 10 -80 23 -151 28 -156 35 -35 42 69 16 216 -12
73 -13 91 -2 98 7 6 98 7 214 4 173 -5 204 -3 215 10 30 37 -48 55 -268 61
l-181 5 -7 62 c-3 33 -13 111 -22 171 -15 106 -13 232 3 354 5 36 3 47 -12 58
-23 16 -48 17 -62 0z"/>
<path d="M6515 17160 c-3 -5 -2 -10 4 -10 5 0 13 5 16 10 3 6 2 10 -4 10 -5 0
-13 -4 -16 -10z"/>
<path d="M5490 17059 c-13 -40 -24 -83 -26 -98 -1 -14 -7 -48 -13 -76 -38
-163 -56 -640 -26 -665 18 -15 51 -8 46 11 -2 8 -5 37 -8 64 -2 28 -6 55 -8
62 -2 7 6 15 18 19 12 4 40 15 62 24 22 10 74 30 115 45 41 16 80 31 85 35 6
4 28 13 50 20 22 7 51 18 65 26 14 7 57 24 95 39 39 14 81 35 95 47 20 16 21
19 5 13 -11 -4 -38 -9 -60 -12 -22 -2 -62 -13 -90 -22 -27 -10 -90 -31 -140
-46 -49 -15 -126 -40 -170 -56 -129 -45 -119 -51 -116 71 4 185 24 385 51 495
24 99 1 102 -30 4z"/>
<path d="M6495 17120 c-3 -5 -1 -10 4 -10 6 0 11 5 11 10 0 6 -2 10 -4 10 -3
0 -8 -4 -11 -10z"/>
<path d="M2427 17044 c-12 -12 4 -24 34 -24 34 0 39 15 7 24 -29 7 -33 7 -41
0z"/>
<path d="M10861 17036 c-14 -17 -16 -41 -12 -187 l3 -106 -36 -47 c-40 -52
-44 -76 -20 -101 15 -14 18 -14 40 0 19 12 25 13 28 3 3 -7 7 -112 11 -233 8
-263 13 -300 40 -300 20 0 20 8 20 328 l0 328 40 31 c22 17 87 53 145 80 121
58 131 64 123 84 -14 37 -165 -7 -263 -76 -50 -36 -53 -30 -48 85 3 65 1 108
-6 115 -15 15 -52 12 -65 -4z"/>
<path d="M2817 17034 c-3 -4 -4 -11 -1 -15 7 -12 54 -11 54 1 0 6 -4 10 -9 10
-5 0 -16 2 -23 5 -8 3 -17 3 -21 -1z"/>
<path d="M2935 17020 c4 -6 11 -8 16 -5 14 9 11 15 -7 15 -8 0 -12 -5 -9 -10z"/>
<path d="M17700 16901 c-12 -24 -79 -200 -126 -336 -19 -55 -50 -156 -68 -225
l-32 -125 -65 -35 c-52 -29 -64 -40 -64 -60 0 -23 3 -25 48 -24 30 0 47 -4 47
-12 0 -6 -12 -65 -26 -130 -39 -185 -39 -181 -17 -193 46 -24 73 28 93 179 16
122 31 203 42 217 10 13 248 90 292 95 29 3 30 1 57 -84 51 -161 40 -191 -50
-148 -84 39 -83 -1 1 -52 58 -36 97 -44 123 -24 28 20 24 99 -9 208 -14 46
-26 91 -26 100 0 10 15 20 45 27 34 9 45 16 45 31 0 18 -7 20 -55 20 -49 0
-57 3 -65 24 -10 27 -62 284 -80 396 -14 84 -29 128 -54 153 -23 22 -43 22
-56 -2z m45 -198 c9 -54 31 -152 47 -218 16 -66 32 -129 35 -141 4 -18 -5 -23
-94 -47 -54 -15 -117 -32 -140 -39 -23 -7 -45 -10 -47 -7 -5 5 61 250 100 374
33 103 66 185 74 180 4 -3 16 -49 25 -102z"/>
<path d="M20962 16898 c-116 -46 -164 -131 -182 -320 -19 -198 5 -394 71 -584
28 -79 38 -119 30 -122 -6 -2 -18 -10 -26 -19 -25 -24 -2 -53 43 -53 30 0 45
-7 67 -30 21 -22 37 -30 55 -28 38 5 39 41 1 69 -17 13 -31 26 -31 30 0 5 21
23 48 40 142 97 337 280 372 348 29 58 21 98 -29 144 -47 42 -128 74 -228 89
l-75 11 55 56 c81 82 102 129 102 223 0 68 -3 79 -25 104 -59 63 -153 79 -248
42z m168 -55 c35 -24 40 -33 40 -81 0 -87 -63 -182 -178 -268 -40 -29 -82 -58
-92 -64 -24 -13 -26 -43 -5 -60 12 -10 23 -9 55 4 80 32 121 36 200 20 85 -17
174 -49 191 -70 20 -24 1 -61 -64 -126 -86 -88 -266 -247 -299 -264 -25 -13
-28 -12 -39 7 -16 31 -45 135 -75 269 -21 95 -26 143 -28 275 -1 174 6 213 51
283 51 78 181 118 243 75z"/>
<path d="M19161 16752 c-71 -76 -131 -218 -236 -562 -36 -118 -80 -259 -97
-314 -34 -109 -32 -131 17 -131 27 0 28 3 70 150 24 83 53 188 65 235 48 179
114 379 155 465 44 94 80 140 90 114 26 -72 40 -122 70 -252 19 -82 35 -158
35 -167 0 -11 -11 -20 -27 -25 -110 -27 -280 -123 -302 -171 -14 -31 1 -64 29
-64 11 0 44 22 73 48 55 50 158 107 214 118 l31 6 12 -73 c7 -41 22 -117 34
-169 18 -81 25 -95 43 -98 34 -5 35 23 7 143 -14 61 -28 133 -31 162 -5 51 -5
52 23 58 103 23 113 57 19 65 l-59 5 -38 185 c-46 224 -60 265 -102 291 -43
26 -54 24 -95 -19z"/>
<path d="M23871 16767 c-21 -26 -22 -73 -5 -232 9 -88 17 -178 18 -200 l1 -40
-105 -13 c-136 -16 -260 -47 -334 -83 -67 -33 -76 -42 -76 -81 0 -44 35 -46
104 -4 37 22 90 42 149 56 107 24 269 49 280 43 22 -12 -6 -218 -42 -299 -21
-48 -20 -64 4 -64 39 0 84 129 92 265 3 55 11 103 17 107 6 4 45 10 88 14 89
8 119 23 102 51 -10 15 -26 18 -108 19 -53 0 -99 4 -103 8 -14 14 -26 309 -14
354 15 58 14 69 -9 92 -23 23 -43 25 -59 7z"/>
<path d="M6255 16703 c-91 -29 -185 -67 -185 -75 0 -11 89 2 120 17 14 7 46
15 72 19 47 7 75 27 63 46 -7 12 -7 12 -70 -7z"/>
<path d="M27870 16664 c-91 -7 -264 -13 -385 -13 -252 -1 -332 -10 -357 -42
-22 -26 -22 -30 -5 -54 13 -17 21 -17 108 -7 52 7 195 17 319 22 266 13 525
36 551 51 24 13 24 35 0 49 -22 11 -11 12 -231 -6z"/>
<path d="M7852 16635 c-61 -15 -124 -53 -148 -90 -34 -52 13 -76 57 -29 34 38
96 64 152 64 38 0 47 -3 47 -18 0 -16 -27 -204 -51 -357 -5 -33 -11 -103 -12
-157 -2 -90 0 -98 22 -122 20 -21 34 -26 75 -26 46 0 53 3 97 49 77 80 149
254 149 359 0 25 -10 85 -21 135 -19 79 -26 95 -63 132 -71 70 -176 91 -304
60z m199 -70 c76 -26 109 -95 109 -228 0 -157 -101 -365 -172 -355 -32 4 -34
50 -8 222 11 79 20 189 20 257 0 65 1 119 3 119 2 0 23 -7 48 -15z"/>
<path d="M6568 16609 c-24 -13 -23 -31 11 -309 28 -223 50 -339 73 -385 18
-34 51 -65 70 -65 23 0 23 26 -1 81 -29 66 -59 267 -73 477 -6 103 -16 193
-21 200 -11 14 -36 15 -59 1z"/>
<path d="M6075 16579 c-8 -13 21 -76 38 -82 24 -8 48 13 41 36 -14 47 -62 75
-79 46z"/>
<path d="M30790 16506 c-67 -29 -144 -95 -170 -147 -34 -66 -50 -156 -40 -224
31 -216 95 -389 194 -534 31 -45 56 -86 56 -91 0 -4 -12 -11 -27 -14 -61 -14
-83 -28 -83 -52 0 -30 30 -39 78 -23 20 6 93 40 162 74 184 92 288 190 311
289 20 89 -21 166 -117 222 -24 14 -44 28 -44 31 0 3 15 23 34 44 59 64 70
142 36 251 -24 77 -80 146 -143 177 -62 30 -173 28 -247 -3z m218 -50 c36 -19
85 -72 107 -116 10 -19 20 -62 23 -96 5 -61 4 -62 -39 -109 -56 -61 -86 -75
-156 -75 -121 0 -187 -39 -181 -108 3 -36 4 -37 45 -40 31 -2 67 7 130 32 102
42 109 43 167 16 90 -43 127 -110 96 -176 -35 -77 -184 -195 -242 -193 -18 1
-43 -2 -54 -6 -28 -9 -59 24 -129 140 -109 180 -160 407 -124 551 19 74 107
160 189 185 42 13 139 10 168 -5z"/>
<path d="M25663 16505 c-41 -18 -133 -112 -187 -193 -66 -99 -117 -215 -172
-388 -25 -82 -75 -234 -110 -339 -34 -104 -65 -204 -69 -220 -8 -42 14 -70 48
-61 29 7 40 35 51 133 9 73 151 534 203 658 75 179 207 355 266 355 33 0 89
-84 212 -315 21 -38 51 -94 67 -122 16 -29 27 -57 23 -62 -3 -6 -22 -13 -43
-17 -135 -24 -291 -80 -491 -178 -128 -62 -144 -79 -125 -130 11 -28 53 -17
162 42 149 81 274 133 486 202 49 15 53 11 97 -98 28 -69 37 -82 54 -80 31 5
29 31 -10 121 -19 46 -33 91 -30 99 4 10 -4 23 -19 35 -13 11 -36 46 -49 79
-14 32 -63 133 -108 224 -113 224 -177 288 -256 255z"/>
<path d="M10408 16449 c-28 -16 -38 -76 -39 -244 0 -88 -4 -194 -8 -235 -8
-79 -2 -100 30 -100 36 0 43 39 60 325 5 94 11 185 12 204 2 40 -27 66 -55 50z"/>
<path d="M29617 16430 c-56 -35 -98 -91 -143 -188 -46 -98 -63 -210 -74 -472
-8 -184 -7 -217 5 -230 13 -13 17 -12 30 1 13 12 17 51 21 190 5 194 17 306
39 394 46 177 180 303 277 262 62 -27 107 -98 110 -176 2 -50 -21 -85 -72
-111 -33 -17 -40 -26 -40 -49 0 -36 20 -45 71 -30 49 15 84 1 140 -54 54 -54
89 -125 89 -179 0 -74 -94 -194 -186 -238 -52 -24 -167 -31 -188 -10 -5 5 -23
10 -38 10 -67 0 -9 -91 68 -106 127 -24 297 76 370 216 38 74 41 182 6 249
-35 67 -90 129 -139 158 -37 21 -43 30 -38 47 26 81 10 193 -36 258 -64 89
-183 115 -272 58z"/>
<path d="M12265 16256 c-19 -14 -19 -15 -1 -35 15 -17 17 -24 8 -33 -19 -19
-16 -438 2 -483 24 -57 86 -74 143 -39 51 32 131 125 169 197 70 134 56 270
-35 330 -37 25 -205 77 -247 77 -11 0 -29 -6 -39 -14z m136 -82 c81 -24 146
-62 159 -94 28 -69 -28 -209 -120 -302 -57 -57 -90 -71 -107 -45 -13 19 -10
457 3 457 6 0 35 -7 65 -16z"/>
<path d="M27535 16201 c-64 -38 -165 -188 -267 -396 -74 -151 -232 -395 -334
-518 -29 -35 -31 -73 -4 -87 27 -14 54 15 163 179 91 138 162 263 283 501 104
205 192 300 223 242 13 -24 55 -327 48 -345 -3 -8 -34 -22 -69 -31 -231 -65
-385 -165 -338 -221 19 -23 52 -18 92 16 66 54 306 154 325 135 5 -4 9 -89 10
-189 2 -181 2 -182 24 -182 35 0 41 42 29 214 -5 85 -10 160 -10 167 0 7 26
20 60 30 33 9 65 23 72 31 21 25 -17 44 -82 41 l-55 -3 -6 105 c-8 121 -25
233 -41 264 -19 37 -51 66 -72 66 -12 0 -35 -8 -51 -19z"/>
<path d="M21668 16099 c-23 -13 -24 -94 -2 -295 12 -114 15 -201 10 -374 -3
-124 -9 -241 -12 -261 -5 -28 -2 -37 10 -42 43 -17 56 73 67 458 2 39 -1 162
-4 275 -4 113 -7 208 -7 212 0 9 -30 38 -38 38 -4 0 -15 -5 -24 -11z"/>
<path d="M18429 16053 c-10 -3 -27 -30 -40 -66 -23 -58 -24 -74 -22 -262 2
-238 17 -442 37 -490 16 -37 22 -40 45 -26 12 7 12 19 2 68 -6 34 -11 166 -12
318 0 236 2 267 21 334 28 98 18 135 -31 124z"/>
<path d="M19760 15943 c-76 -21 -113 -49 -107 -81 3 -15 -1 -56 -9 -92 -20
-94 -18 -186 6 -238 48 -107 185 -83 291 50 100 125 116 260 41 330 -52 49
-120 58 -222 31z m149 -73 c41 -11 51 -24 51 -66 0 -108 -119 -256 -206 -256
-48 0 -54 7 -54 67 0 100 46 244 82 258 22 9 92 7 127 -3z"/>
<path d="M31624 15719 c-22 -4 -67 -21 -99 -37 -44 -23 -62 -39 -76 -68 -20
-43 -24 -75 -10 -89 5 -6 14 -65 20 -133 13 -143 27 -184 73 -212 92 -58 302
37 362 165 24 49 24 181 1 226 -23 43 -83 108 -119 126 -41 22 -102 30 -152
22z m124 -83 c66 -34 102 -104 102 -196 0 -58 -1 -62 -47 -109 -91 -92 -222
-116 -264 -47 -16 26 -19 51 -19 167 0 148 0 148 65 182 37 20 127 22 163 3z"/>
<path d="M26646 15658 c-21 -60 -26 -116 -26 -268 0 -96 -5 -226 -11 -289 -11
-122 -6 -146 29 -125 18 12 22 41 41 339 6 88 16 195 23 238 13 86 7 110 -31
115 -11 2 -23 -3 -25 -10z"/>
<path d="M28161 15630 c-18 -4 -43 -18 -55 -30 l-21 -21 23 -19 c21 -18 22
-21 8 -47 -34 -67 -66 -208 -67 -294 0 -94 13 -141 51 -174 18 -16 36 -20 99
-20 64 1 85 5 131 29 241 125 338 281 265 425 -40 80 -114 131 -220 150 -66
12 -164 13 -214 1z m276 -106 c68 -34 123 -99 123 -145 0 -71 -73 -154 -205
-233 -64 -37 -75 -41 -139 -41 -64 0 -70 2 -90 28 -49 66 -4 284 83 395 26 34
26 34 98 29 53 -3 87 -11 130 -33z"/>
<path d="M30305 15559 c-12 -19 -7 -74 10 -114 40 -95 56 -291 32 -394 -8 -34
-7 -45 4 -51 63 -39 84 138 50 423 -13 105 -31 147 -66 147 -13 0 -27 -5 -30
-11z"/>
<path d="M10110 11850 c0 -5 5 -10 11 -10 5 0 7 5 4 10 -3 6 -8 10 -11 10 -2
0 -4 -4 -4 -10z"/>
<path d="M22468 9193 c7 -3 16 -2 19 1 4 3 -2 6 -13 5 -11 0 -14 -3 -6 -6z"/>
<path d="M22640 8910 c-12 -8 -10 -10 8 -10 13 0 20 4 17 10 -7 12 -6 12 -25
0z"/>
<path d="M17195 7320 c3 -5 8 -10 11 -10 2 0 4 5 4 10 0 6 -5 10 -11 10 -5 0
-7 -4 -4 -10z"/>
<path d="M26015 6859 c-9 -27 9 -39 44 -30 39 11 35 45 -6 49 -25 3 -33 -1
-38 -19z"/>
<path d="M26132 6858 c3 -7 13 -15 22 -16 12 -3 17 1 14 10 -3 7 -13 15 -22
16 -12 3 -17 -1 -14 -10z"/>
<path d="M27030 4010 c0 -5 5 -10 10 -10 6 0 10 5 10 10 0 6 -4 10 -10 10 -5
0 -10 -4 -10 -10z"/>
<path d="M11866 642 c-3 -21 -8 -135 -11 -253 -3 -118 -8 -224 -11 -237 -8
-41 8 -152 22 -152 8 0 14 8 14 18 0 9 3 49 5 87 2 39 7 153 10 255 3 101 10
199 17 216 14 39 0 97 -24 102 -11 2 -17 -8 -22 -36z"/>
</g>
</svg>
