<?xml version="1.0" standalone="no"?>
<!DOCTYPE svg PUBLIC "-//W3C//DTD SVG 20010904//EN"
 "http://www.w3.org/TR/2001/REC-SVG-20010904/DTD/svg10.dtd">
<svg version="1.0" xmlns="http://www.w3.org/2000/svg"
 width="2448.000000pt" height="3264.000000pt" viewBox="0 0 2448.000000 3264.000000"
 preserveAspectRatio="xMidYMid meet">
<metadata>
Created by potrace 1.12, written by Peter Selinger 2001-2015
</metadata>
<g transform="translate(0.000000,3264.000000) scale(0.100000,-0.100000)"
fill="#000000" stroke="none">
<path d="M3490 32626 c0 -22 19 -30 35 -16 22 18 18 30 -10 30 -15 0 -25 -6
-25 -14z"/>
<path d="M17599 30885 c-41 -27 -52 -55 -38 -94 14 -35 49 -71 70 -71 9 0 31
16 48 35 26 30 31 44 31 85 0 39 -4 52 -19 60 -29 15 -52 11 -92 -15z"/>
<path d="M3967 30745 c-141 -32 -289 -72 -352 -95 -27 -10 -95 -35 -150 -56
-176 -65 -465 -218 -600 -319 -38 -28 -78 -56 -87 -61 -9 -5 -55 -43 -102 -83
-92 -80 -160 -159 -195 -229 -27 -53 -18 -92 32 -138 68 -64 236 -151 337
-175 49 -12 306 -11 355 1 62 16 307 26 811 34 l322 6 17 -26 c17 -26 16 -28
-21 -103 -38 -77 -59 -110 -104 -165 -36 -46 -307 -314 -374 -371 -32 -28 -91
-78 -130 -112 -67 -60 -96 -75 -96 -53 0 5 5 30 12 55 11 39 10 47 -5 62 -15
16 -18 15 -38 -3 -54 -48 -164 -252 -155 -288 6 -23 65 -56 102 -56 13 0 74
40 94 60 3 3 18 11 34 18 16 7 43 25 60 39 17 13 81 62 143 106 169 124 227
173 347 287 125 119 125 120 202 214 61 76 127 200 138 257 9 52 -26 161 -63
192 -68 57 -462 87 -861 67 -479 -24 -881 -22 -914 4 -18 14 -30 66 -16 66 12
0 71 45 134 102 70 64 296 228 314 228 5 0 15 6 22 14 6 8 120 69 253 134 178
88 276 130 372 160 223 68 291 84 392 92 82 6 108 4 159 -11 33 -10 71 -30 84
-44 16 -17 34 -25 56 -25 40 0 44 6 47 68 3 61 -30 114 -88 144 -35 19 -61 21
-210 24 -151 3 -182 1 -278 -21z"/>
<path d="M16361 30715 c-18 -16 -36 -46 -47 -78 -16 -51 -161 -394 -224 -532
-65 -142 -78 -171 -99 -225 -12 -30 -29 -66 -36 -80 -39 -68 -47 -96 -43 -146
6 -65 54 -164 89 -183 39 -22 122 1 228 63 90 53 202 158 319 300 85 104 204
226 219 226 21 0 17 -120 -8 -188 -60 -167 -112 -322 -121 -357 -5 -22 -15
-51 -21 -64 -9 -19 -9 -25 1 -28 6 -3 11 -19 11 -36 -1 -24 -3 -26 -6 -9 -6
31 -23 28 -23 -5 0 -34 31 -103 54 -122 25 -21 125 -19 158 3 24 16 42 61 31
78 -2 5 -22 8 -44 8 -63 0 -62 9 6 195 106 286 160 497 150 584 -8 65 -43 107
-78 96 -12 -3 -38 -10 -57 -14 -38 -8 -183 -99 -236 -148 -17 -15 -64 -66
-105 -113 -176 -201 -358 -360 -396 -346 -18 7 -17 95 3 164 9 32 56 138 104
237 48 99 109 227 135 285 27 57 63 132 82 167 43 80 73 166 73 212 0 78 -59
105 -119 56z"/>
<path d="M5036 30637 c-32 -26 -35 -46 -16 -147 5 -30 14 -183 20 -340 5 -157
14 -348 20 -424 6 -76 8 -142 3 -146 -4 -3 -43 -21 -85 -39 -150 -64 -195
-132 -125 -185 53 -41 88 -35 147 24 84 83 95 72 104 -110 4 -74 11 -153 16
-175 5 -22 10 -66 10 -97 0 -49 4 -62 28 -90 18 -19 35 -29 44 -25 35 13 46
196 28 467 -6 101 -6 138 3 146 7 6 39 19 72 28 33 10 107 36 165 58 106 41
216 81 324 120 32 11 102 38 155 60 109 46 139 50 155 26 9 -15 2 -27 -45 -75
-105 -108 -194 -273 -225 -415 -20 -90 -13 -117 45 -181 57 -64 101 -80 197
-75 67 4 94 10 148 37 123 60 345 241 425 345 70 92 160 249 191 335 16 47 32
87 35 89 14 15 33 -27 39 -86 4 -37 18 -148 31 -247 14 -99 27 -202 31 -230 9
-75 33 -150 55 -179 60 -76 199 -102 199 -36 0 10 -15 37 -34 59 -37 44 -50
91 -61 216 -14 148 -46 413 -60 485 -27 137 -60 220 -109 273 -22 23 -32 28
-54 22 -64 -16 -85 -38 -120 -125 -56 -143 -84 -200 -167 -340 -66 -111 -98
-153 -185 -241 -134 -136 -264 -223 -347 -233 -110 -13 -119 37 -35 208 99
205 252 358 437 441 67 30 80 48 80 106 0 36 -5 54 -21 69 l-21 21 -99 -22
c-54 -12 -130 -30 -169 -41 -38 -11 -144 -39 -235 -63 -91 -23 -192 -50 -225
-59 -122 -34 -417 -137 -487 -170 -93 -43 -102 -38 -94 54 11 135 27 489 27
599 -1 62 -6 132 -13 155 -16 56 -65 143 -91 161 -31 22 -78 18 -111 -8z"/>
<path d="M8835 30375 c-188 -35 -332 -134 -400 -277 -19 -40 -35 -84 -35 -98
0 -14 -4 -30 -8 -36 -4 -6 -50 -14 -102 -18 -52 -3 -132 -16 -178 -27 -71 -18
-86 -20 -93 -8 -13 19 -5 116 20 229 35 158 23 230 -36 230 -34 0 -91 -28
-104 -51 -18 -35 -50 -234 -53 -335 -1 -55 -6 -105 -9 -111 -4 -6 -44 -14 -89
-18 -146 -12 -281 -56 -293 -95 -13 -42 52 -102 107 -96 13 2 38 10 54 19 27
14 173 67 186 67 4 0 13 -13 21 -29 13 -26 13 -37 0 -93 -9 -39 -13 -97 -11
-151 2 -74 6 -91 22 -103 29 -21 64 -17 80 9 19 28 43 153 56 286 6 58 12 106
14 108 2 3 49 9 104 14 63 6 125 19 168 35 37 14 73 23 80 20 7 -3 15 -20 18
-38 2 -18 9 -68 15 -111 15 -105 56 -191 133 -272 70 -76 99 -93 218 -129 169
-51 514 -75 658 -46 166 34 215 56 210 93 -4 29 -40 33 -128 13 -79 -18 -369
-22 -429 -6 -20 5 -73 16 -117 25 -159 30 -287 109 -337 208 -32 62 -47 154
-39 237 5 64 17 84 46 76 32 -9 351 23 456 44 25 6 92 14 150 20 58 5 134 14
170 20 157 25 274 39 282 34 16 -10 56 25 63 55 25 115 -164 252 -423 306 -90
19 -347 19 -447 0z m500 -154 c39 -10 92 -28 120 -39 42 -17 51 -24 57 -53 3
-19 5 -35 4 -36 -2 -3 -177 -19 -461 -43 -125 -10 -202 -21 -343 -46 -45 -8
-87 -12 -92 -9 -6 3 -10 21 -10 39 0 70 164 178 295 196 33 4 128 8 210 9 117
0 165 -3 220 -18z"/>
<path d="M19619 30139 c-61 -9 -96 -28 -145 -81 -116 -124 -207 -313 -220
-459 -4 -37 -10 -73 -14 -80 -5 -7 -43 -15 -92 -20 -45 -4 -112 -10 -148 -14
-81 -9 -127 3 -154 39 -18 23 -22 47 -27 169 -9 218 -32 247 -196 241 -52 -2
-119 -10 -148 -18 -75 -22 -189 -110 -259 -200 -33 -42 -63 -76 -68 -76 -4 0
-8 23 -8 51 0 81 -36 128 -98 129 -28 0 -35 -5 -47 -34 -18 -43 -38 -248 -29
-301 9 -55 29 -75 77 -75 38 0 47 7 217 178 151 150 188 183 251 215 88 44
125 48 139 13 5 -14 9 -69 9 -123 -1 -126 23 -195 85 -250 86 -76 271 -84 463
-22 35 11 67 18 73 14 6 -3 18 -21 27 -38 29 -58 101 -132 155 -161 141 -75
184 -96 199 -96 9 0 42 -9 75 -21 194 -69 718 -77 861 -13 17 8 36 14 42 14
20 0 44 49 37 76 -6 23 -11 25 -39 21 -18 -3 -63 -17 -102 -31 -57 -20 -98
-26 -215 -32 -80 -4 -149 -7 -155 -6 -5 0 -46 4 -90 8 -44 4 -84 10 -90 14 -5
4 -45 10 -89 14 -148 12 -404 145 -449 233 -8 16 -12 42 -10 59 4 27 14 36 61
60 110 56 261 232 340 395 66 135 54 185 -47 208 -49 11 -96 11 -172 0z m99
-165 c2 -33 -3 -51 -28 -85 -16 -24 -50 -73 -74 -109 -25 -36 -72 -94 -106
-129 -55 -57 -63 -62 -77 -49 -50 51 132 389 222 411 47 12 60 4 63 -39z"/>
<path d="M14125 30116 c-38 -16 -57 -40 -70 -84 -12 -43 -27 -50 -40 -20 -34
77 -264 54 -463 -46 -125 -63 -298 -268 -346 -409 -9 -26 -16 -55 -16 -65 1
-38 40 -102 78 -127 39 -25 44 -26 135 -20 54 3 120 14 153 26 105 37 235 111
301 173 41 38 68 56 78 52 9 -3 18 1 21 9 9 23 26 18 22 -7 -2 -13 -10 -23
-18 -23 -17 0 -17 -4 0 -89 9 -42 21 -68 45 -94 29 -32 39 -36 101 -43 67 -7
133 2 162 24 12 9 17 59 6 69 -3 3 -21 2 -40 -2 -74 -17 -124 19 -124 89 0 63
53 289 102 435 21 65 18 118 -9 149 -19 20 -37 21 -78 3z m-91 -181 c7 -27
-15 -85 -40 -106 -8 -6 -14 -17 -14 -24 0 -7 -11 -20 -24 -28 -13 -9 -29 -22
-37 -29 -88 -83 -197 -158 -337 -229 -88 -45 -127 -60 -164 -61 -55 -3 -68 8
-68 57 0 78 191 292 310 346 86 40 194 69 255 69 37 1 67 6 79 15 27 20 33 19
40 -10z m-27 -387 c-3 -7 -5 -2 -5 12 0 14 2 19 5 13 2 -7 2 -19 0 -25z"/>
<path d="M15265 30064 c-233 -45 -276 -61 -382 -140 -88 -65 -144 -134 -191
-232 -68 -142 -53 -259 46 -354 60 -58 117 -77 258 -85 95 -5 124 -3 200 16
122 30 159 44 309 116 152 73 235 138 235 186 0 45 -39 37 -140 -30 -29 -19
-137 -72 -195 -96 -245 -101 -381 -116 -512 -55 -57 27 -73 53 -73 121 0 104
55 210 143 276 124 93 233 131 343 120 91 -9 144 28 144 102 0 58 -66 77 -185
55z"/>
<path d="M17461 30056 c-6 -8 -16 -38 -21 -67 -6 -30 -15 -80 -21 -112 -11
-63 -39 -103 -94 -137 -29 -18 -35 -28 -35 -55 0 -36 15 -45 83 -45 31 0 46 8
89 48 63 58 91 102 117 182 29 87 28 164 -1 184 -28 20 -102 21 -117 2z"/>
<path d="M11979 30029 c-12 -12 -27 -18 -38 -14 -24 7 -58 -36 -96 -125 -9
-19 -20 -42 -25 -50 -6 -8 -14 -25 -20 -37 -29 -69 -115 -229 -132 -248 -26
-28 -36 -42 -47 -63 -11 -21 -41 -31 -41 -14 1 77 25 191 50 238 74 139 30
240 -80 183 -72 -38 -105 -136 -134 -406 -17 -159 -12 -194 33 -217 80 -41
110 -26 252 128 91 100 117 135 162 225 30 59 60 125 67 146 15 49 50 91 61
73 4 -6 6 -30 4 -52 -6 -76 -26 -261 -31 -293 -10 -54 13 -124 58 -177 l42
-49 80 6 c118 8 214 50 356 155 105 78 222 194 265 263 41 64 81 97 97 81 16
-16 5 -261 -12 -289 -11 -17 -11 -29 -1 -64 7 -23 20 -53 28 -66 33 -50 169
-57 191 -9 11 26 -1 56 -23 56 -29 0 -38 40 -29 134 15 161 11 305 -9 359 -27
70 -51 78 -140 52 -58 -17 -96 -50 -217 -186 -90 -101 -150 -160 -215 -214
-55 -45 -113 -85 -122 -85 -4 0 -14 -7 -23 -15 -10 -9 -43 -25 -75 -36 -84
-29 -90 -21 -79 101 11 119 7 380 -6 431 -16 59 -55 99 -96 99 -21 0 -42 -8
-55 -21z"/>
<path d="M15899 27936 c-2 -2 -323 -6 -714 -10 -803 -7 -1332 -13 -1770 -21
-165 -3 -844 -8 -1510 -10 -665 -2 -1322 -7 -1460 -9 -137 -3 -403 -8 -590
-11 -187 -3 -371 -8 -410 -10 -357 -20 -2287 -26 -4460 -12 -1284 8 -1422 10
-1775 29 -118 6 -327 12 -465 13 -137 1 -277 6 -311 10 -90 11 -144 -22 -144
-88 0 -22 27 -57 44 -57 4 0 20 -9 35 -20 27 -18 49 -19 472 -21 952 -4 5522
8 5824 15 184 5 299 8 645 21 481 17 1683 34 2920 41 355 1 652 3 660 4 8 1
112 1 230 1 118 0 260 2 315 4 55 3 314 7 575 10 261 3 563 8 670 11 107 3
204 5 215 5 11 0 110 0 220 1 1551 3 2261 2 2455 -3 129 -4 393 -10 585 -13
333 -6 449 -10 665 -21 52 -3 154 -7 225 -10 164 -6 447 -22 635 -36 80 -6
179 -13 220 -15 41 -2 129 -8 195 -14 66 -5 156 -12 200 -15 44 -3 100 -7 125
-10 25 -2 128 -9 230 -15 102 -6 207 -14 233 -19 67 -11 96 -3 118 33 31 51
25 73 -38 132 -53 49 -62 54 -105 54 -43 0 -49 -3 -63 -30 -9 -17 -13 -40 -10
-51 9 -28 -14 -33 -82 -16 -32 8 -110 15 -173 16 -63 1 -124 4 -135 6 -20 5
-352 34 -455 40 -30 2 -113 6 -185 10 -71 3 -137 8 -146 11 -9 2 -90 7 -180 9
-90 2 -191 7 -224 9 -33 3 -145 8 -250 11 -104 4 -193 9 -197 12 -8 4 -152 9
-598 18 -320 7 -2255 16 -2261 11z"/>
<path d="M15210 25558 c-59 -15 -76 -44 -83 -139 -3 -49 -26 -167 -55 -284
-63 -253 -67 -272 -92 -435 -11 -74 -25 -152 -31 -172 -11 -41 -9 -40 -117
-58 -35 -6 -121 -35 -190 -63 -105 -43 -136 -60 -179 -102 -64 -62 -68 -90
-21 -130 41 -34 92 -29 126 12 63 76 53 70 265 167 71 32 73 32 93 1 13 -20
14 -30 5 -53 -29 -72 -37 -267 -14 -356 32 -123 53 -98 83 103 10 69 26 153
34 185 9 33 19 81 22 107 10 71 21 81 95 86 35 2 92 13 126 23 34 10 90 22
125 25 124 13 207 35 228 62 48 61 14 89 -81 67 -35 -8 -116 -21 -179 -28 -63
-7 -146 -24 -183 -36 -41 -14 -72 -19 -77 -14 -6 6 -4 35 5 74 8 36 32 146 54
245 22 99 51 222 65 272 32 113 66 283 66 326 0 32 -31 111 -46 119 -5 3 -25
1 -44 -4z"/>
<path d="M5835 25484 c-93 -15 -113 -20 -227 -57 -67 -21 -68 -21 -119 -3
-103 37 -367 4 -544 -69 -50 -20 -97 -43 -105 -50 -8 -6 -23 -15 -32 -18 -10
-4 -53 -30 -95 -58 -147 -100 -315 -282 -410 -444 -65 -112 -131 -248 -158
-327 -101 -298 -27 -640 175 -805 157 -129 310 -181 593 -201 282 -21 570 33
917 171 187 73 508 241 668 348 23 16 45 29 48 29 14 0 119 86 195 161 193
188 283 397 284 654 0 105 -3 130 -28 201 -36 104 -105 209 -185 277 -72 63
-220 129 -387 173 -90 24 -121 27 -300 30 -140 2 -227 -2 -290 -12z m526 -168
c77 -16 149 -37 259 -79 54 -20 76 -36 128 -93 109 -119 137 -212 121 -404
-12 -141 -15 -151 -66 -255 -61 -121 -115 -194 -214 -291 -185 -178 -440 -324
-861 -492 -241 -96 -541 -142 -810 -123 -213 16 -321 48 -445 132 -106 73
-186 198 -203 319 -15 104 22 338 64 405 7 11 21 43 31 70 22 59 26 67 121
210 64 97 136 179 271 304 54 50 212 143 315 185 62 26 122 51 133 57 14 7 42
7 85 0 36 -5 74 -9 85 -8 11 1 54 -4 95 -11 67 -12 95 -18 166 -37 11 -3 35
-25 52 -50 41 -59 72 -74 107 -51 31 21 33 71 5 135 -28 61 -26 81 8 82 15 1
77 5 137 9 144 10 323 4 416 -14z"/>
<path d="M3315 25408 c-62 -36 -59 -59 20 -162 13 -17 34 -19 312 -21 394 -2
485 -19 499 -90 8 -43 -11 -144 -30 -163 -12 -12 -110 -14 -588 -13 -540 2
-802 10 -1198 41 -74 6 -234 17 -355 26 -415 29 -470 33 -570 48 -55 8 -116
18 -136 22 -41 7 -92 -14 -109 -45 -20 -38 -11 -66 38 -114 75 -74 131 -84
547 -97 488 -15 879 -28 992 -35 137 -7 788 -7 963 0 80 3 181 11 224 16 72 9
81 9 98 -9 19 -18 18 -20 -44 -78 -117 -108 -192 -170 -255 -208 -34 -21 -64
-45 -67 -53 -8 -19 19 -70 43 -83 46 -24 86 -11 199 66 107 74 197 160 248
240 27 41 61 90 75 109 34 45 76 180 84 271 8 97 -8 157 -56 205 -80 80 -112
88 -514 129 -49 5 -155 12 -235 15 -139 6 -147 5 -185 -17z"/>
<path d="M10381 25390 c-192 -40 -340 -101 -515 -212 -168 -106 -248 -176
-287 -250 -38 -73 -20 -120 85 -228 81 -82 151 -132 226 -161 130 -49 161 -59
187 -59 29 0 84 -14 278 -69 61 -18 140 -36 176 -41 105 -15 400 -100 504
-146 17 -7 38 -15 48 -18 30 -9 20 -64 -24 -145 -95 -171 -553 -580 -734 -655
-42 -18 -49 -10 -58 71 -12 109 -42 114 -97 18 -56 -99 -51 -149 20 -185 49
-25 74 -25 178 0 116 28 292 130 423 244 19 17 64 54 99 81 34 28 77 63 94 79
17 15 51 45 75 64 59 49 175 194 208 260 24 48 25 60 20 132 -7 90 -22 119
-75 150 -72 43 -450 171 -647 219 -439 108 -695 184 -762 227 -36 23 -31 68
12 106 70 61 131 102 202 137 23 12 62 34 85 50 24 16 57 33 73 36 17 4 82 25
145 46 63 21 149 45 190 53 114 21 276 30 342 17 91 -16 195 -70 270 -140 36
-33 71 -61 76 -61 6 0 18 20 28 45 24 65 8 113 -62 181 -64 63 -146 104 -275
139 -134 36 -372 43 -508 15z"/>
<path d="M11889 25305 c-36 -19 -41 -38 -26 -93 9 -35 11 -159 9 -480 -2 -271
1 -439 7 -451 7 -12 6 -34 -2 -67 -9 -37 -19 -52 -39 -62 -68 -32 -179 -162
-206 -241 -33 -94 4 -227 69 -250 18 -6 33 -10 34 -9 19 24 24 57 19 115 -5
55 -2 78 15 123 37 97 109 162 128 114 3 -9 1 -52 -5 -97 -15 -107 -17 -483
-3 -520 16 -41 43 -32 57 18 31 108 58 307 69 505 7 118 13 216 14 217 1 2
339 109 371 118 14 4 57 20 97 36 39 16 76 29 82 29 17 0 13 -61 -9 -118 -29
-76 -26 -136 10 -199 43 -76 94 -106 183 -111 111 -7 212 24 336 102 68 43
183 165 216 228 17 32 33 58 36 58 13 0 18 -46 18 -167 0 -187 17 -232 93
-240 41 -5 48 -3 62 19 14 22 15 54 5 313 -12 332 -15 346 -77 341 -66 -5 -99
-30 -136 -104 -38 -74 -169 -225 -268 -309 -34 -29 -65 -53 -69 -53 -4 0 -33
-16 -65 -35 -73 -44 -132 -48 -169 -10 -29 28 -32 68 -10 120 8 19 22 51 31
71 22 52 100 152 133 168 34 18 179 56 245 65 43 5 53 11 69 39 24 40 14 90
-20 108 -28 13 -137 2 -245 -26 -93 -24 -129 -41 -180 -85 -30 -25 -61 -37
-155 -59 -254 -61 -417 -108 -490 -142 -45 -20 -80 -31 -86 -25 -8 8 -2 161
23 569 15 237 -8 412 -61 468 -26 28 -70 31 -110 9z"/>
<path d="M14457 24772 c-85 -77 -238 -240 -292 -312 -27 -36 -70 -90 -95 -120
-42 -48 -122 -166 -322 -470 -31 -47 -70 -98 -87 -114 -52 -50 -36 -98 34 -98
59 0 112 47 200 176 113 166 192 285 229 346 37 61 210 299 329 452 66 85 88
127 85 157 -5 39 -23 35 -81 -17z"/>
<path d="M5220 22269 c-192 -15 -491 -127 -670 -253 -36 -25 -82 -57 -102 -70
-20 -14 -81 -67 -135 -117 -280 -263 -414 -486 -444 -740 -15 -127 5 -248 60
-365 95 -202 200 -303 426 -410 279 -131 774 -161 1215 -73 108 21 391 109
465 144 28 13 95 42 150 65 55 23 105 46 110 50 6 4 57 31 115 61 212 107 388
239 495 369 110 133 178 327 177 510 0 252 -106 420 -335 529 -120 57 -298
107 -452 126 -60 8 -229 20 -373 27 -251 11 -264 13 -272 32 -13 35 -52 63
-120 85 -57 18 -85 24 -190 35 -14 1 -68 -1 -120 -5z m251 -135 c38 -4 69 -9
69 -13 0 -18 -51 -32 -133 -36 -51 -3 -109 -9 -131 -14 -21 -5 -44 -7 -51 -5
-7 3 -48 0 -91 -5 -182 -25 -224 -23 -211 12 6 15 72 33 152 41 22 3 51 9 65
14 30 11 238 15 331 6z m406 -144 c26 -5 107 -12 178 -14 185 -6 432 -49 550
-96 145 -58 258 -146 293 -229 45 -102 48 -344 7 -460 -28 -82 -97 -206 -139
-251 -63 -69 -173 -164 -214 -185 -20 -10 -46 -26 -57 -35 -53 -43 -300 -170
-455 -233 -319 -131 -555 -183 -880 -193 -168 -6 -200 -4 -346 20 -315 51
-507 144 -642 311 -112 139 -142 216 -142 364 0 86 29 220 54 251 7 8 27 43
45 78 18 35 53 93 78 130 45 68 191 240 223 264 9 7 62 49 116 92 113 92 190
146 209 146 7 0 18 -6 24 -13 6 -8 28 -19 50 -25 31 -10 47 -9 81 3 23 8 57
15 74 15 17 0 76 7 131 16 148 22 462 45 489 34 31 -12 36 -28 36 -123 -1 -58
-7 -98 -21 -137 -33 -86 -35 -124 -9 -150 19 -19 29 -21 64 -16 22 4 46 12 52
19 44 47 70 282 41 366 -9 25 -14 48 -11 53 7 11 63 10 121 -2z"/>
<path d="M14930 22143 c-36 -25 -48 -42 -64 -93 -14 -46 -112 -304 -169 -445
l-33 -80 -80 4 c-156 6 -268 -40 -306 -127 -20 -45 -19 -73 5 -107 22 -29 61
-7 91 52 37 74 57 87 136 91 61 4 69 2 79 -17 10 -18 4 -33 -39 -106 -70 -120
-110 -201 -110 -225 0 -28 18 -60 33 -60 32 0 143 147 211 279 51 98 60 104
123 80 15 -6 73 -14 128 -17 l100 -7 2 -50 c9 -184 61 -304 180 -414 64 -60
103 -85 236 -151 88 -44 178 -85 201 -91 47 -12 170 -58 236 -88 80 -37 156
-22 148 29 -3 25 -5 26 -273 129 -253 98 -412 200 -487 312 -58 88 -88 267
-52 304 10 10 23 13 33 9 30 -13 269 -16 373 -5 170 19 268 41 342 78 265 133
241 340 -50 428 -172 53 -453 17 -619 -80 -85 -49 -171 -163 -205 -270 -7 -22
-16 -44 -19 -48 -4 -4 -36 -1 -72 8 -35 8 -85 15 -111 15 -90 0 -97 18 -44
113 29 52 81 169 183 419 39 95 -33 182 -107 131z m971 -413 c90 -28 109 -43
109 -89 0 -120 -188 -178 -662 -205 -72 -4 -87 -2 -92 11 -18 47 110 199 209
248 115 56 317 72 436 35z"/>
<path d="M12001 22129 l-34 -20 6 -107 c5 -121 -6 -298 -29 -452 -17 -115 -71
-365 -85 -392 -5 -9 -39 -33 -76 -54 -119 -65 -213 -151 -213 -194 0 -27 43
-60 77 -60 26 0 39 9 69 48 47 59 72 82 90 82 20 0 18 -42 -5 -93 -10 -23 -36
-91 -56 -152 -21 -60 -46 -127 -57 -148 -26 -52 -21 -88 16 -105 27 -13 30
-12 68 24 72 70 146 251 203 496 23 96 -2 83 395 198 41 12 107 33 145 46 39
13 86 29 105 35 19 7 44 16 55 20 53 23 108 38 116 33 13 -8 -1 -56 -22 -77
-33 -31 -96 -121 -124 -177 -52 -102 -29 -195 63 -252 52 -32 184 -32 265 0
123 47 167 78 290 200 76 76 138 175 152 245 8 40 32 34 40 -10 3 -21 29 -104
56 -186 77 -231 131 -297 246 -297 63 0 113 26 138 72 16 29 17 39 6 51 -11
14 -17 14 -53 1 -92 -32 -109 -13 -178 194 -103 308 -151 415 -197 433 -19 7
-35 4 -68 -10 -49 -22 -65 -45 -65 -94 0 -19 -8 -45 -18 -58 -10 -13 -33 -49
-51 -79 -74 -122 -234 -286 -326 -332 -67 -34 -139 -33 -150 3 -9 28 17 74
109 189 91 113 137 150 269 215 90 44 105 65 93 126 -12 63 -15 64 -102 45
-91 -20 -187 -43 -329 -79 -55 -14 -156 -40 -225 -56 -163 -40 -365 -101 -464
-141 -52 -21 -82 -28 -88 -22 -7 7 -3 35 12 84 60 196 90 385 90 565 0 140
-11 191 -51 234 -32 34 -61 37 -108 8z m1385 -765 c4 -17 1 -31 -10 -42 -24
-25 -39 -4 -25 36 13 39 26 41 35 6z"/>
<path d="M10444 21672 c-141 -42 -285 -152 -344 -263 -30 -56 -32 -67 -28
-137 5 -108 31 -157 137 -260 93 -91 106 -99 196 -130 95 -33 142 -43 213 -47
717 -36 726 -38 702 -152 -16 -74 -87 -149 -208 -220 -197 -116 -340 -175
-514 -212 -117 -25 -178 -26 -244 -5 -61 20 -88 49 -110 119 -10 30 -26 65
-37 76 -19 20 -20 20 -38 2 -24 -23 -40 -106 -28 -146 38 -131 223 -210 420
-177 150 25 342 82 454 136 403 195 545 356 466 531 -28 60 -83 95 -208 131
-94 27 -129 32 -268 38 -180 6 -368 27 -465 51 -90 22 -223 86 -254 124 -35
41 -37 133 -3 195 30 57 121 135 202 175 64 31 73 33 179 33 61 0 130 -4 153
-8 39 -8 43 -7 53 16 20 42 -9 94 -67 119 -69 31 -272 37 -359 11z"/>
<path d="M7444 18887 c-27 -23 -28 -28 -40 -193 -7 -93 -13 -212 -13 -265 l-1
-97 -97 -31 c-108 -35 -197 -90 -226 -139 -18 -30 -18 -32 4 -74 12 -24 33
-53 48 -64 23 -20 28 -21 53 -8 14 7 37 27 50 42 24 30 127 102 145 102 12 0
25 -28 19 -38 -2 -4 -11 -81 -20 -172 -9 -91 -21 -202 -28 -248 -11 -79 -10
-84 10 -104 19 -20 25 -20 62 -9 36 11 45 19 65 64 16 34 28 88 35 157 6 58
15 133 21 166 5 34 9 83 9 110 0 85 10 121 36 133 13 5 63 17 111 26 48 9 135
29 193 45 58 16 159 39 225 50 175 31 215 40 260 57 73 27 105 74 70 103 -18
15 -62 11 -355 -26 -252 -32 -359 -50 -444 -75 -46 -14 -72 -17 -79 -10 -6 6
-4 47 8 123 25 154 26 322 2 366 -15 28 -23 32 -57 32 -26 0 -48 -7 -66 -23z
m136 -552 c24 -29 -11 -59 -101 -89 -45 -15 -92 -34 -103 -42 -27 -19 -36 -18
-36 4 0 40 69 94 122 96 9 1 26 11 38 24 24 25 62 29 80 7z"/>
<path d="M6953 18368 c-31 -35 -63 -93 -63 -114 0 -11 -6 -30 -14 -44 -72
-133 -94 -173 -126 -227 -49 -81 -180 -243 -196 -243 -21 0 -43 29 -49 65 -3
19 -8 52 -11 73 -3 20 -10 43 -16 50 -25 30 -130 1 -150 -42 -14 -32 0 -83 48
-176 38 -74 46 -84 93 -124 30 -24 41 -27 74 -22 92 15 202 106 292 242 64 95
95 161 153 319 48 131 66 206 58 240 -9 34 -63 35 -93 3z"/>
<path d="M3915 18369 c-56 -18 -150 -83 -153 -106 -4 -27 61 -101 113 -128
l35 -19 59 58 c67 67 82 106 56 155 -24 48 -52 58 -110 40z"/>
<path d="M1977 18260 c-73 -13 -112 -40 -112 -78 0 -18 0 -32 -1 -32 -16 0
-214 -45 -258 -59 -537 -166 -1029 -588 -1170 -1002 -74 -218 -74 -437 0 -634
81 -214 212 -372 399 -480 198 -115 355 -155 647 -162 182 -5 202 -3 398 44
155 36 362 128 587 261 31 17 61 32 67 32 6 0 37 20 68 45 32 25 61 45 66 45
11 0 52 33 154 124 89 79 160 162 192 224 9 18 24 36 32 39 16 6 56 -11 86
-35 12 -10 25 -11 55 -3 21 5 108 10 193 11 85 0 229 5 320 10 359 21 746 31
1185 30 749 -1 1093 -7 1615 -25 47 -2 194 -7 327 -11 l242 -7 41 27 c51 34
80 80 80 129 0 32 3 37 23 37 26 0 105 -35 129 -57 43 -39 6 -115 -102 -208
-135 -117 -308 -221 -630 -378 -266 -131 -360 -187 -360 -218 0 -12 16 -37 35
-56 46 -46 75 -42 168 21 38 25 73 46 77 46 22 0 478 221 525 254 17 12 50 32
75 45 156 84 345 242 375 315 22 52 10 188 -20 236 -58 90 -171 147 -460 230
-44 12 -107 31 -140 41 -33 10 -109 30 -170 44 -60 14 -135 35 -165 45 -30 10
-93 30 -139 45 -47 14 -117 44 -156 66 -78 42 -126 49 -163 23 -30 -20 -28
-34 12 -96 73 -114 150 -157 366 -207 74 -17 155 -36 180 -42 152 -37 349 -81
371 -84 101 -11 138 -28 126 -58 -3 -8 -36 -24 -74 -36 -68 -22 -74 -22 -314
-12 -134 6 -354 13 -489 16 -135 3 -324 8 -420 10 -852 21 -1493 25 -2150 12
-387 -8 -481 -15 -567 -42 -37 -12 -39 28 -4 78 76 105 106 260 90 466 -6 74
-17 155 -25 180 -29 89 -117 251 -168 310 -54 63 -196 182 -282 237 -58 37
-297 158 -334 169 -14 4 -38 13 -55 20 -55 22 -99 34 -190 49 -98 17 -116 18
-188 6z m508 -243 c106 -42 322 -192 400 -279 46 -52 141 -205 163 -263 19
-52 33 -263 22 -350 -16 -134 -72 -311 -126 -397 -166 -263 -347 -421 -686
-597 -256 -134 -492 -201 -702 -201 -274 1 -494 58 -677 176 -198 129 -289
309 -289 572 1 186 26 277 127 463 79 146 134 222 237 329 85 89 218 203 282
243 16 9 65 40 109 67 158 99 212 124 370 169 153 44 229 55 365 56 179 0 218
-14 326 -116 108 -101 144 -105 144 -17 0 22 -13 44 -55 87 -70 74 -71 82 -10
58z"/>
<path d="M5838 18080 c-55 -14 -157 -63 -205 -98 -105 -78 -205 -305 -264
-601 -19 -97 -21 -122 -11 -187 11 -84 26 -107 79 -125 26 -8 41 -8 63 1 26
11 30 20 56 128 14 65 36 141 47 170 11 30 21 74 21 98 1 37 -3 48 -28 67 -26
21 -28 27 -19 53 l10 29 114 6 c120 6 161 17 260 70 87 47 132 100 153 183 13
53 14 76 6 100 -13 40 -54 80 -98 94 -48 16 -142 22 -184 12z m94 -185 c-2
-16 -11 -39 -20 -49 -19 -21 -148 -86 -172 -86 -9 0 -25 -7 -36 -15 -26 -20
-41 -19 -54 5 -10 19 -4 71 9 67 3 -1 24 12 45 28 74 56 137 84 186 82 44 -2
45 -3 42 -32z"/>
<path d="M4865 18047 c-45 -15 -83 -45 -116 -90 -32 -45 -83 -193 -94 -275 -7
-50 -10 -56 -51 -80 -24 -15 -47 -35 -50 -46 -6 -18 7 -101 27 -177 11 -44 61
-96 101 -104 42 -10 78 17 78 58 0 33 54 342 68 387 4 14 7 55 7 93 0 37 2 67
5 67 11 0 49 -48 68 -87 11 -21 36 -83 57 -138 52 -139 73 -182 103 -205 33
-27 54 -25 91 6 35 29 41 68 16 112 -7 15 -31 70 -51 122 -57 145 -110 250
-155 303 -51 59 -66 67 -104 54z"/>
<path d="M3893 17899 c-52 -26 -63 -53 -52 -141 4 -36 13 -117 18 -180 6 -62
15 -165 21 -228 5 -63 15 -142 21 -175 10 -62 16 -136 18 -242 1 -49 6 -68 21
-83 29 -29 74 -26 99 6 24 31 27 110 11 294 -5 58 -12 224 -15 370 -6 234 -9
271 -27 318 -18 45 -48 82 -68 82 -3 0 -24 -9 -47 -21z"/>
<path d="M12478 17853 c-14 -17 -40 -142 -89 -438 -13 -76 -19 -141 -15 -178
8 -77 -8 -93 -92 -95 -109 -3 -283 -55 -458 -137 -64 -30 -84 -49 -84 -84 0
-21 9 -35 38 -55 49 -34 61 -33 114 7 88 67 141 91 365 166 86 28 93 29 102
13 5 -10 9 -114 9 -232 0 -118 5 -300 11 -405 6 -104 10 -220 9 -258 -1 -52 2
-72 15 -85 16 -15 20 -15 44 -2 44 25 64 70 65 147 0 37 -5 234 -11 437 -7
203 -9 382 -6 397 l6 28 137 0 c169 0 262 7 275 20 21 21 -1 57 -43 70 -39 12
-269 8 -333 -5 -20 -4 -29 -1 -34 12 -10 27 35 324 73 477 38 153 37 161 -20
196 -41 26 -58 26 -78 4z"/>
<path d="M9435 17803 c-27 -2 -97 -13 -155 -24 -118 -24 -153 -45 -132 -79 23
-37 15 -48 -45 -60 -105 -22 -293 -79 -376 -113 -45 -19 -102 -42 -127 -52
-69 -25 -305 -151 -400 -212 -198 -128 -429 -355 -542 -533 -71 -110 -172
-335 -202 -446 -9 -32 -19 -104 -22 -159 -11 -181 37 -322 150 -442 88 -94
178 -153 349 -227 64 -27 294 -76 420 -88 229 -23 573 22 890 116 49 15 105
33 125 42 20 8 66 22 102 30 36 9 106 33 156 54 50 21 104 42 120 45 35 8 189
80 224 105 14 10 54 33 90 51 35 18 83 46 106 63 23 17 54 39 70 48 111 68
185 127 329 267 64 61 132 139 160 181 27 41 61 91 76 110 26 35 65 107 113
210 52 112 56 299 10 438 -31 93 -159 255 -270 342 -112 88 -319 194 -469 240
-155 48 -210 60 -435 90 -62 9 -209 10 -315 3z m228 -98 c10 -4 30 -5 45 -2
15 3 40 0 56 -7 26 -11 27 -13 11 -26 -13 -11 -23 -11 -45 -3 -22 8 -35 7 -57
-4 -17 -9 -40 -12 -59 -8 -19 3 -34 1 -36 -5 -1 -5 -21 -11 -43 -13 -22 -2
-51 -9 -65 -16 -21 -11 -23 -11 -12 0 20 21 14 31 -9 15 -14 -9 -33 -13 -50
-9 -24 4 -30 1 -38 -19 -9 -23 -16 -25 -97 -32 -48 -3 -90 -4 -93 0 -11 10 33
35 59 33 36 -3 93 24 118 56 16 20 28 26 44 22 13 -3 41 3 63 13 30 14 58 18
115 16 41 -2 83 -7 93 -11z m195 -21 c27 -8 29 -30 3 -37 -17 -4 -61 24 -61
38 0 7 31 6 58 -1z m227 -93 c3 -5 29 -17 58 -26 103 -34 279 -112 352 -158
171 -106 282 -240 310 -374 21 -99 19 -129 -19 -234 -44 -123 -52 -140 -105
-229 -112 -189 -288 -377 -508 -541 -70 -52 -290 -182 -389 -230 -86 -41 -380
-158 -444 -177 -220 -65 -280 -81 -400 -102 -435 -77 -747 -49 -1039 91 -106
52 -232 171 -277 264 -26 55 -29 69 -29 165 1 85 6 122 28 193 34 112 106 256
166 330 232 292 344 398 581 549 100 63 343 185 439 219 31 12 70 26 86 33
206 87 484 148 726 161 128 6 188 -4 295 -50 46 -20 89 -32 98 -29 30 12 37
39 21 85 -9 24 -13 49 -11 56 6 15 52 18 61 4z m-1766 -400 c-30 -25 -41 -26
-37 -4 2 9 14 20 28 23 35 9 37 4 9 -19z m-96 -66 c-19 -25 -38 -32 -48 -16
-3 6 7 16 22 24 41 22 46 20 26 -8z"/>
<path d="M17237 17719 c-52 -27 -97 -92 -97 -140 0 -54 6 -65 62 -100 43 -28
51 -30 64 -17 8 8 17 32 20 54 8 55 24 83 56 100 15 8 31 26 34 41 6 22 1 32
-25 55 -37 33 -62 34 -114 7z"/>
<path d="M18102 17517 c-17 -18 -23 -40 -27 -97 -3 -41 -10 -105 -16 -141 -6
-36 -12 -93 -13 -125 -5 -97 -14 -121 -67 -165 -29 -24 -52 -54 -60 -76 -11
-34 -10 -38 12 -54 62 -46 62 -46 55 -127 -4 -42 -14 -105 -22 -140 -16 -70
-12 -97 17 -113 61 -32 100 47 134 274 17 112 30 168 43 186 11 16 43 35 83
49 55 19 78 22 159 18 52 -3 113 -11 135 -18 36 -12 41 -17 52 -62 23 -92 -28
-306 -103 -428 -46 -76 -45 -97 11 -137 49 -35 65 -35 89 1 28 44 135 357 142
416 11 102 -40 232 -106 266 -16 9 -43 23 -58 31 -82 43 -207 53 -356 29 l-38
-6 5 33 c2 19 15 85 27 148 22 108 22 116 7 165 -11 34 -27 60 -46 74 -37 27
-33 27 -59 -1z"/>
<path d="M18724 17441 c-30 -13 -65 -61 -62 -85 3 -22 57 -63 95 -72 14 -4 32
1 49 15 15 12 37 21 50 21 13 0 28 9 34 20 31 57 -93 132 -166 101z"/>
<path d="M14605 17203 c-342 -42 -622 -217 -926 -579 -135 -160 -164 -204
-155 -237 8 -31 93 -83 115 -70 9 5 45 53 81 105 102 150 270 335 398 439 124
101 217 153 381 210 110 38 131 38 131 0 0 -21 -15 -48 -53 -93 -264 -315
-367 -479 -367 -584 0 -43 4 -51 44 -89 49 -48 120 -71 188 -62 126 17 285
150 357 299 23 47 41 92 41 102 0 47 49 79 51 34 6 -193 107 -458 173 -458 46
0 61 53 30 112 -23 45 -41 110 -59 223 -9 55 -30 154 -45 220 -16 66 -34 149
-39 184 -9 54 -16 69 -43 92 -33 28 -62 35 -85 21 -7 -4 -17 -39 -23 -77 -17
-109 -47 -200 -106 -323 -47 -97 -66 -125 -132 -191 -98 -99 -202 -149 -218
-106 -18 46 98 233 271 440 23 28 54 69 68 92 15 24 45 66 67 95 68 90 51 171
-40 188 -25 5 -52 10 -60 13 -8 2 -28 2 -45 0z"/>
<path d="M16885 17171 c-110 -9 -256 -57 -307 -100 -75 -64 -86 -130 -36 -223
26 -49 52 -76 149 -154 123 -98 254 -237 265 -279 17 -67 -18 -95 -181 -146
-218 -67 -345 -77 -510 -39 -55 12 -112 29 -127 36 -35 18 -45 56 -53 204 -9
156 -19 212 -50 260 -48 76 -84 68 -160 -34 -78 -106 -268 -276 -309 -276 -27
0 -28 58 -5 200 21 131 21 140 5 164 -9 14 -27 33 -40 42 -35 22 -60 5 -84
-59 -21 -56 -46 -259 -37 -302 3 -14 7 -36 10 -48 11 -53 122 -127 192 -127
62 0 122 38 232 147 106 106 125 114 123 56 0 -15 -2 -62 -3 -104 -2 -74 -1
-78 37 -135 33 -51 50 -64 114 -97 145 -73 337 -102 480 -73 164 34 465 149
501 192 30 37 -8 155 -85 261 -36 49 -192 192 -273 250 -63 45 -76 66 -68 111
7 43 19 60 61 89 74 52 207 78 360 70 138 -8 191 -27 228 -84 49 -76 78 -188
77 -301 -1 -91 -19 -160 -55 -207 -38 -49 -35 -81 10 -100 84 -35 119 -11 154
102 25 81 27 250 5 337 -33 126 -107 240 -196 301 -76 53 -249 80 -424 66z"/>
<path d="M19103 17020 c-67 -16 -112 -67 -98 -111 3 -10 26 -28 50 -40 l44
-22 48 32 c56 38 101 38 152 1 55 -39 84 -102 89 -196 8 -157 -43 -237 -189
-295 -74 -29 -96 -33 -181 -33 -89 -1 -98 1 -123 24 -26 24 -27 28 -22 105 5
87 22 139 75 228 34 56 34 59 22 100 -16 50 -37 77 -60 77 -35 0 -81 -83 -137
-245 -30 -86 -34 -109 -30 -161 9 -97 32 -140 99 -190 45 -33 76 -47 134 -60
90 -20 146 -15 243 20 187 67 246 109 289 206 21 49 24 65 19 140 -11 194
-120 352 -274 400 -82 25 -113 29 -150 20z"/>
<path d="M20485 16873 c-63 -16 -306 -219 -503 -421 -40 -41 -68 -62 -77 -58
-18 7 -19 12 -1 80 22 85 1 177 -45 191 -33 11 -49 -14 -65 -106 -9 -46 -25
-114 -36 -150 -28 -93 -15 -138 50 -179 26 -16 57 -30 68 -30 37 0 192 127
484 398 73 67 138 122 145 122 8 0 21 -23 30 -50 35 -105 35 -294 1 -402 -22
-67 -16 -108 15 -108 41 0 80 34 110 97 27 57 29 71 30 175 0 125 -19 211 -70
321 -46 99 -84 132 -136 120z"/>
<path d="M3887 15793 c-19 -3 -31 -13 -38 -31 -8 -22 -7 -29 12 -43 26 -19 18
-39 -16 -39 -30 0 -55 -10 -55 -21 0 -13 37 -11 60 3 15 10 28 9 67 -5 55 -19
73 -21 73 -7 0 5 -20 15 -45 21 -25 6 -48 16 -52 22 -9 15 48 57 79 57 15 0
30 5 33 10 3 6 -2 10 -12 10 -10 0 -31 7 -47 15 -15 8 -29 14 -30 14 0 -1 -14
-4 -29 -6z"/>
<path d="M3696 15771 c-3 -5 -26 -12 -51 -15 -30 -5 -45 -12 -45 -22 0 -8 -12
-27 -26 -41 -20 -20 -23 -28 -13 -34 9 -5 22 0 36 13 22 21 23 21 43 3 11 -10
20 -24 20 -31 0 -26 21 -25 53 2 42 35 49 56 31 99 -13 33 -36 46 -48 26z"/>
<path d="M3345 15701 c-23 -12 -26 -16 -12 -19 20 -4 20 -3 17 -105 -1 -65 1
-81 16 -92 15 -11 17 -19 8 -51 -8 -36 -12 -39 -40 -37 -30 3 -32 1 -38 -44
-8 -59 -8 -65 4 -83 8 -13 14 -10 35 15 21 25 26 28 35 15 5 -8 10 -27 10 -41
0 -14 8 -34 19 -43 18 -16 19 -16 25 9 7 28 0 67 -20 106 -11 23 -10 31 7 66
l20 41 -20 60 c-30 87 -16 116 65 143 51 18 55 33 8 37 -24 2 -38 9 -41 21 -5
22 -56 23 -98 2z"/>
<path d="M3265 15650 c-3 -5 1 -10 9 -10 8 0 18 5 21 10 3 6 -1 10 -9 10 -8 0
-18 -4 -21 -10z"/>
<path d="M4045 15567 c-4 -10 -5 -21 -1 -24 10 -10 18 4 13 24 -4 17 -4 17
-12 0z"/>
<path d="M3815 15550 c3 -5 8 -10 11 -10 2 0 4 5 4 10 0 6 -5 10 -11 10 -5 0
-7 -4 -4 -10z"/>
<path d="M3520 15480 c20 -13 40 -13 40 0 0 6 -12 10 -27 10 -22 0 -25 -2 -13
-10z"/>
<path d="M3692 15478 c5 -15 77 -18 81 -3 1 6 -18 11 -42 13 -32 2 -42 0 -39
-10z"/>
<path d="M3170 15456 c-16 -42 4 -61 48 -45 34 12 43 29 16 29 -9 0 -24 10
-34 23 l-18 22 -12 -29z"/>
<path d="M4095 15430 c-8 -25 1 -40 25 -40 10 0 26 -10 34 -22 13 -18 18 -20
28 -10 11 11 9 16 -8 30 -12 9 -27 27 -33 40 -14 27 -38 29 -46 2z"/>
<path d="M3886 15392 c-7 -12 61 -35 75 -26 9 5 6 11 -6 21 -21 14 -61 18 -69
5z"/>
<path d="M4047 15323 c-12 -22 -16 -63 -7 -68 18 -11 40 15 40 46 0 27 -22 41
-33 22z"/>
<path d="M4000 15250 c0 -5 5 -10 11 -10 5 0 7 5 4 10 -3 6 -8 10 -11 10 -2 0
-4 -4 -4 -10z"/>
<path d="M3267 15209 c-23 -14 -47 -62 -47 -95 l0 -28 20 22 c12 12 25 22 31
22 20 0 21 -32 2 -58 -19 -25 -17 -52 4 -81 4 -6 29 26 48 60 13 25 13 30 -11
64 -22 32 -24 42 -15 68 6 16 11 32 11 33 0 8 -25 3 -43 -7z"/>
<path d="M4028 15118 c-6 -17 1 -38 13 -38 5 0 9 11 9 25 0 26 -14 34 -22 13z"/>
<path d="M4115 15028 c-11 -24 -22 -47 -24 -53 -2 -5 11 8 29 28 17 20 41 37
51 37 10 0 19 5 19 10 0 6 -6 10 -14 10 -8 0 -21 2 -28 5 -9 4 -21 -9 -33 -37z"/>
<path d="M3506 15021 c-4 -7 -5 -15 -2 -18 9 -9 19 4 14 18 -4 11 -6 11 -12 0z"/>
<path d="M3340 15001 c0 -12 6 -21 15 -21 8 0 15 4 15 9 0 5 -7 14 -15 21 -13
10 -15 9 -15 -9z"/>
<path d="M3235 14943 c-6 -2 -10 -26 -10 -54 1 -37 6 -53 18 -60 9 -6 17 -19
17 -30 0 -31 24 -18 35 19 6 21 16 32 27 32 35 0 19 36 -30 67 -26 16 -52 28
-57 26z"/>
<path d="M4137 14923 c-10 -9 -8 -51 2 -57 8 -6 21 25 21 52 0 13 -13 16 -23
5z"/>
<path d="M3177 14824 c-8 -8 1 -24 13 -24 4 0 10 7 14 15 5 15 -14 21 -27 9z"/>
<path d="M3896 14823 c-12 -12 -6 -43 9 -43 8 0 15 9 15 19 0 21 -13 34 -24
24z"/>
<path d="M3342 14778 c-16 -16 -15 -28 3 -28 8 0 15 9 15 20 0 23 -2 24 -18 8z"/>
<path d="M4115 14723 c-29 -7 -55 -33 -55 -55 0 -14 8 -18 33 -18 38 0 71 28
65 56 -3 20 -14 24 -43 17z"/>
<path d="M3196 14668 c-4 -29 -13 -75 -21 -103 -14 -48 -14 -139 -1 -152 10
-10 57 16 78 42 15 20 23 23 38 15 30 -16 40 -12 40 18 0 15 4 34 9 42 17 26
-1 32 -25 9 -19 -18 -27 -20 -36 -11 -9 9 -9 20 0 45 17 48 15 61 -13 87 -14
13 -25 32 -25 42 0 11 -7 18 -19 18 -15 0 -20 -10 -25 -52z"/>
<path d="M4125 14519 c-4 -5 -18 -14 -31 -19 -17 -7 -24 -17 -24 -35 0 -14 4
-25 9 -25 11 0 44 45 54 73 7 19 2 23 -8 6z"/>
<path d="M3918 14452 c-16 -2 -28 -7 -28 -12 0 -21 14 -40 30 -40 15 0 50 29
50 42 0 9 -23 14 -52 10z"/>
<path d="M3580 14410 c0 -5 7 -10 15 -10 8 0 15 5 15 10 0 6 -7 10 -15 10 -8
0 -15 -4 -15 -10z"/>
<path d="M3519 14394 c-11 -14 -9 -15 16 -12 16 1 30 9 33 16 6 18 -33 15 -49
-4z"/>
<path d="M3795 14400 c-3 -5 -26 -10 -49 -10 -27 0 -48 -6 -56 -15 -7 -8 -17
-15 -23 -15 -5 0 -25 -16 -44 -35 -19 -19 -42 -35 -52 -35 -22 0 -63 -38 -56
-51 4 -5 15 -9 25 -9 24 0 36 -18 21 -33 -19 -19 -12 -37 13 -37 34 0 53 26
37 51 -6 11 -9 28 -6 38 7 23 84 61 123 61 18 0 32 6 36 15 4 12 15 14 43 10
66 -12 73 -15 73 -41 0 -25 14 -32 25 -13 4 5 0 18 -9 28 -13 14 -14 24 -7 45
9 22 8 26 -9 26 -10 0 -25 7 -34 15 -17 17 -42 20 -51 5z"/>
<path d="M3231 14363 c0 -15 -3 -44 -7 -64 -3 -20 -1 -45 4 -56 8 -14 7 -38
-3 -84 -11 -55 -11 -67 1 -86 8 -13 17 -23 20 -23 3 0 27 21 54 46 48 45 59
75 19 54 -15 -8 -21 -7 -25 4 -7 19 3 36 22 36 15 0 19 27 6 46 -4 7 -16 13
-27 15 -17 4 -21 14 -25 69 -4 51 -9 66 -22 68 -13 3 -17 -4 -17 -25z"/>
<path d="M3360 14320 c0 -6 8 -13 18 -17 9 -3 25 -13 34 -21 16 -13 18 -13 24
2 3 9 1 23 -6 31 -14 17 -70 21 -70 5z"/>
<path d="M3740 14281 c-14 -28 -13 -31 15 -31 20 0 25 5 25 25 0 30 -25 34
-40 6z"/>
<path d="M3670 14251 c0 -18 18 -21 30 -6 10 13 9 15 -9 15 -11 0 -21 -4 -21
-9z"/>
<path d="M3940 14132 c-8 -15 -21 -36 -30 -46 -12 -16 -12 -18 -1 -14 15 4 57
76 49 83 -3 3 -11 -7 -18 -23z"/>
<path d="M22637 14153 c-35 -34 45 -113 115 -113 21 0 50 -8 64 -17 29 -18
154 -169 154 -185 0 -5 11 -24 24 -41 24 -33 156 -299 156 -316 0 -5 15 -45
33 -88 49 -114 129 -362 147 -451 5 -26 12 -58 16 -72 16 -65 16 -248 0 -321
-21 -90 -56 -198 -67 -205 -5 -3 -9 -14 -9 -24 0 -28 -36 -95 -94 -174 -28
-38 -64 -91 -81 -117 -65 -103 -299 -357 -414 -450 -30 -24 -75 -62 -100 -84
-26 -23 -85 -66 -132 -97 -87 -58 -144 -112 -133 -129 18 -30 110 14 226 109
46 39 97 78 114 88 137 84 383 331 539 539 112 148 167 249 217 398 30 87 32
100 32 242 0 158 -10 239 -51 395 -34 133 -122 385 -162 467 -12 23 -21 47
-21 53 0 11 -41 92 -104 207 -102 183 -253 357 -333 381 -46 13 -125 16 -136
5z"/>
<path d="M3627 14073 c-12 -11 -7 -43 6 -43 22 0 51 26 43 38 -8 13 -39 16
-49 5z"/>
<path d="M4900 14043 c-106 -4 -311 -23 -365 -33 -157 -30 -222 -45 -330 -77
-66 -19 -138 -44 -161 -54 -23 -10 -46 -19 -52 -19 -21 0 -42 -32 -42 -66 0
-41 16 -44 58 -9 17 14 36 25 44 25 8 0 79 22 158 49 199 67 340 92 625 110
186 12 400 9 525 -7 117 -16 266 -47 322 -68 24 -8 72 -25 108 -36 89 -27 251
-110 321 -163 87 -67 191 -186 243 -278 126 -221 162 -543 90 -802 -82 -294
-252 -508 -571 -720 -46 -30 -87 -55 -92 -55 -5 0 -22 -11 -38 -24 -16 -14
-63 -41 -104 -61 -41 -20 -81 -40 -89 -46 -8 -5 -26 -14 -40 -20 -14 -7 -50
-24 -80 -39 -30 -15 -86 -40 -125 -55 -38 -15 -81 -33 -95 -40 -48 -23 -381
-131 -545 -176 -82 -22 -345 -65 -495 -80 -168 -18 -515 6 -682 45 -306 73
-526 210 -748 466 -132 152 -216 361 -212 530 5 213 86 392 287 629 125 149
347 328 457 370 26 10 46 30 63 65 8 16 19 20 45 19 66 -5 84 -3 99 11 9 7 34
17 56 21 21 4 45 15 52 25 7 10 30 19 58 22 25 3 65 15 88 26 23 12 54 24 69
27 29 6 88 51 88 67 0 11 -70 6 -105 -8 -19 -7 -19 -6 -4 12 21 24 34 64 20
64 -5 0 -12 -4 -15 -9 -3 -4 -24 -8 -46 -8 -49 0 -153 -66 -158 -100 -4 -24
-18 -32 -77 -43 -59 -12 -180 -56 -205 -76 -8 -6 -28 -14 -45 -18 -116 -27
-400 -255 -567 -457 -73 -88 -187 -260 -217 -329 -13 -30 -33 -74 -44 -98 -23
-50 -38 -237 -26 -316 12 -72 58 -213 87 -266 26 -46 69 -112 122 -186 44 -61
239 -246 306 -289 32 -21 84 -55 115 -74 46 -30 194 -104 264 -132 242 -97
780 -136 1105 -80 183 32 244 44 320 66 47 14 135 38 195 55 61 17 160 49 220
71 200 75 340 130 360 141 11 6 54 29 95 50 41 22 82 43 90 48 8 5 49 25 90
45 70 33 124 65 245 140 27 17 79 57 117 90 38 33 86 73 107 90 40 31 167 181
214 249 36 54 111 232 136 326 57 207 32 520 -55 709 -65 138 -75 157 -143
247 -66 88 -200 208 -281 252 -19 10 -58 33 -86 51 -106 67 -451 166 -664 190
-91 11 -353 19 -460 14z"/>
<path d="M3553 13993 c-52 -7 -39 -24 15 -21 26 2 46 8 45 13 -2 12 -16 14
-60 8z"/>
<path d="M3813 13989 c-20 -20 -16 -43 5 -34 38 16 53 17 67 5 12 -10 16 -9
21 4 8 22 6 24 -41 31 -27 4 -44 2 -52 -6z"/>
<path d="M3230 13944 c0 -31 23 -28 28 4 2 15 -2 22 -12 22 -11 0 -16 -9 -16
-26z"/>
<path d="M3700 13949 c0 -20 21 -49 36 -49 9 0 13 5 10 13 -3 6 -9 20 -12 30
-7 18 -34 24 -34 6z"/>
<path d="M21330 13904 c-25 -14 -61 -40 -80 -58 -19 -18 -51 -44 -70 -58 -141
-104 -366 -382 -522 -643 -97 -163 -118 -215 -169 -430 -45 -190 -46 -248 -6
-355 26 -70 139 -187 212 -219 73 -32 179 -44 272 -31 122 17 152 27 159 55
12 47 -5 52 -169 57 -167 5 -236 22 -304 74 -68 52 -94 160 -75 314 14 108 59
228 152 395 136 246 241 388 415 561 130 129 212 190 296 219 83 30 88 50 27
106 -51 45 -77 48 -138 13z"/>
<path d="M3337 13893 c-4 -3 -7 -11 -7 -17 0 -6 5 -5 12 2 6 6 9 14 7 17 -3 3
-9 2 -12 -2z"/>
<path d="M3555 13850 c-25 -17 -39 -20 -82 -15 -34 4 -53 2 -58 -5 -14 -22 14
-33 82 -32 110 0 218 62 122 70 -22 1 -45 -5 -64 -18z"/>
<path d="M3196 13778 c-8 -39 5 -54 32 -39 10 6 22 8 25 5 2 -3 7 11 9 30 4
35 3 36 -28 36 -27 0 -32 -4 -38 -32z"/>
<path d="M3865 13760 c-4 -7 -18 -9 -32 -5 -31 7 -63 -2 -63 -20 0 -18 21 -24
46 -12 14 6 28 6 40 -1 25 -14 76 5 72 27 -4 19 -53 27 -63 11z"/>
<path d="M4480 13727 c-3 -3 -71 -13 -150 -21 -80 -9 -181 -21 -225 -27 -80
-12 -160 -42 -150 -58 2 -5 -6 -16 -20 -25 -42 -28 -30 -38 38 -31 34 4 73 10
87 15 55 20 387 50 544 50 130 0 166 -3 184 -16 31 -21 28 -34 -20 -80 l-43
-41 -135 -12 c-158 -13 -276 -42 -415 -102 -95 -40 -223 -116 -273 -163 -36
-32 -75 -114 -70 -148 4 -25 -3 -36 -54 -79 -91 -80 -234 -310 -298 -482 -52
-138 -55 -358 -7 -489 46 -128 164 -261 306 -344 238 -139 517 -171 886 -100
204 40 506 168 660 280 38 28 95 68 126 89 69 46 193 173 246 252 97 145 153
317 153 475 0 232 -173 480 -432 621 -169 91 -277 131 -428 155 -52 8 -96 17
-99 19 -2 3 10 20 28 40 37 42 38 61 9 106 -16 24 -47 46 -103 73 -78 38 -83
39 -210 44 -71 2 -132 2 -135 -1z m420 -297 c25 -6 65 -21 90 -34 25 -13 83
-36 129 -50 309 -99 528 -305 576 -541 46 -222 -56 -496 -259 -698 -122 -123
-216 -191 -381 -280 -301 -161 -630 -223 -945 -177 -209 31 -405 162 -484 325
-106 219 -78 444 90 745 88 156 212 291 341 371 121 76 171 94 328 120 39 6
90 14 115 18 25 4 92 7 150 6 115 -2 205 -26 271 -71 44 -30 97 -102 110 -149
11 -39 29 -52 87 -61 38 -6 41 -5 48 20 12 49 -102 200 -193 253 -50 29 -169
63 -222 63 -20 0 -43 4 -51 10 -12 7 -9 13 15 32 69 54 78 65 72 83 -6 13 -15
16 -40 12 -17 -3 -52 -9 -75 -12 -41 -7 -73 -30 -120 -89 -7 -9 -27 -16 -45
-16 -130 0 -410 -88 -494 -154 -30 -24 -53 -33 -53 -21 0 3 11 22 25 43 66 99
378 225 635 256 114 13 220 12 280 -4z"/>
<path d="M19266 13385 c-26 -28 -31 -44 -41 -150 -4 -33 -17 -121 -30 -195
-13 -74 -27 -168 -30 -209 -9 -109 -14 -115 -89 -107 -90 11 -103 9 -158 -21
-61 -33 -98 -84 -98 -134 0 -35 23 -69 48 -69 7 0 12 -5 12 -11 0 -6 12 -9 27
-7 22 2 33 14 54 53 17 33 38 56 60 67 42 22 85 23 93 2 7 -18 -31 -134 -120
-365 -20 -53 -14 -79 19 -79 33 0 70 31 100 82 32 57 87 218 87 257 0 38 21
91 43 110 13 10 29 11 74 3 32 -5 86 -7 121 -4 l63 4 -3 47 -3 46 -104 5
c-132 6 -133 8 -103 127 12 48 29 122 37 163 8 41 24 113 35 160 22 96 25 151
9 167 -6 6 -16 21 -23 34 -6 12 -21 28 -33 36 -20 14 -24 13 -47 -12z"/>
<path d="M11065 13360 c-27 -5 -81 -15 -120 -21 -38 -6 -104 -20 -145 -31
-115 -30 -418 -132 -479 -162 -65 -31 -61 -31 -61 -7 0 24 -70 81 -99 81 -26
0 -37 -25 -51 -118 -9 -56 -16 -72 -43 -96 -119 -106 -144 -137 -132 -169 7
-16 93 -37 128 -30 30 6 33 -2 15 -44 -18 -40 -26 -43 -94 -37 -54 6 -63 4
-72 -12 -12 -24 1 -61 25 -67 10 -3 37 -9 60 -12 24 -4 46 -12 50 -18 5 -7 9
-104 10 -216 1 -113 7 -257 13 -320 14 -141 72 -433 93 -464 18 -28 77 -48
101 -35 21 12 21 66 1 133 -38 123 -64 338 -75 607 -5 146 -7 274 -4 283 10
24 47 35 118 35 35 0 200 18 367 40 371 48 444 57 584 70 61 6 143 17 184 26
41 8 78 11 82 7 19 -19 -31 -193 -133 -463 -65 -172 -72 -221 -35 -245 30 -19
78 -28 96 -17 7 5 32 65 55 133 23 68 64 180 90 249 54 139 86 256 86 308 0
20 -9 55 -21 78 -26 54 -56 66 -141 54 -35 -5 -133 -16 -218 -24 -154 -16
-299 -33 -520 -61 -63 -8 -185 -22 -270 -31 -85 -8 -180 -22 -211 -30 -64 -16
-105 -18 -113 -6 -7 12 22 200 34 223 13 24 89 68 165 96 477 174 641 215 860
217 72 1 160 -3 198 -7 57 -7 68 -6 73 7 11 29 -6 65 -37 82 -37 19 -333 29
-414 14z"/>
<path d="M14244 13304 c-16 -24 -16 -29 4 -92 25 -77 36 -148 52 -317 6 -66
19 -201 30 -300 11 -99 24 -256 29 -348 5 -93 13 -173 19 -179 16 -16 51 1 69
35 31 62 1 824 -43 1062 -15 84 -39 121 -96 151 -37 19 -45 18 -64 -12z"/>
<path d="M11745 13309 c-48 -7 -65 -15 -87 -39 -48 -52 -35 -98 35 -128 44
-19 65 -14 94 19 44 49 58 53 108 29 57 -28 89 -24 93 11 2 21 -5 33 -35 56
-33 26 -125 66 -142 62 -3 -1 -33 -5 -66 -10z"/>
<path d="M17476 13263 c-13 -21 -26 -57 -30 -79 -3 -23 -22 -99 -41 -170 -30
-108 -40 -158 -44 -217 -1 -4 -26 -34 -56 -67 -30 -33 -55 -66 -55 -74 0 -8
11 -27 25 -42 35 -38 34 -70 -16 -329 -24 -126 -24 -146 2 -174 25 -27 35 -24
71 20 25 31 34 61 68 245 62 328 60 322 128 342 37 12 229 44 330 56 51 7 52
6 52 -19 0 -18 -18 -42 -66 -87 -74 -71 -109 -118 -148 -203 -37 -80 -41 -121
-21 -192 16 -58 19 -61 83 -99 56 -32 78 -39 134 -42 55 -4 76 0 120 20 109
51 249 180 283 262 17 40 19 243 2 253 -6 3 -16 -3 -23 -13 -8 -10 -28 -41
-46 -67 -124 -181 -254 -300 -356 -327 -59 -15 -76 -1 -69 57 7 66 58 160 131
241 59 65 93 97 192 182 41 35 133 78 154 73 11 -3 20 -17 23 -36 12 -70 29
-144 44 -187 10 -31 16 -97 18 -215 2 -93 6 -179 10 -190 35 -102 86 -150 169
-161 57 -8 76 8 76 62 0 42 -22 61 -55 46 -38 -18 -53 15 -65 144 -6 60 -16
150 -22 199 -6 50 -12 142 -12 206 -1 116 -1 117 -33 157 -44 55 -68 61 -103
27 -30 -29 -50 -27 -50 5 0 20 -44 60 -65 60 -7 0 -26 -7 -41 -15 -47 -24
-118 -34 -319 -44 -135 -7 -212 -15 -265 -30 -108 -29 -111 -24 -59 119 23 63
50 137 60 164 26 68 24 95 -12 139 -41 49 -71 49 -103 0z"/>
<path d="M21835 13215 c-111 -15 -176 -36 -311 -101 -120 -58 -184 -123 -184
-186 0 -54 33 -102 106 -157 81 -61 182 -99 464 -176 74 -20 162 -45 195 -55
33 -10 98 -28 145 -40 127 -32 213 -61 229 -75 25 -24 3 -73 -62 -139 -89 -90
-211 -157 -356 -195 -163 -44 -267 -7 -361 129 -22 32 -50 17 -50 -27 0 -76
70 -158 178 -209 52 -25 61 -26 166 -21 149 7 199 18 292 64 105 51 160 91
242 171 86 85 99 115 83 188 -20 89 -57 120 -202 173 -56 20 -250 74 -306 86
-18 4 -35 11 -38 16 -4 5 -15 9 -26 9 -43 0 -457 130 -526 165 -113 57 2 163
257 236 110 31 122 33 285 33 166 0 171 -1 225 -28 30 -15 62 -34 71 -42 23
-20 57 -17 69 6 9 17 6 29 -17 67 -67 109 -267 147 -568 108z"/>
<path d="M19995 13034 c-32 -5 -113 -33 -130 -44 -5 -4 -22 -10 -37 -14 -26
-6 -58 -25 -140 -81 -86 -60 -156 -198 -195 -386 -9 -48 15 -131 55 -184 42
-55 152 -126 267 -172 66 -27 78 -28 230 -28 136 0 165 3 188 17 32 22 49 51
41 72 -5 13 -28 16 -138 16 -199 1 -389 50 -460 119 -54 52 -70 145 -39 222
16 41 16 41 57 35 179 -27 500 -11 631 31 98 32 112 44 121 99 8 58 2 80 -45
151 -36 53 -50 64 -127 103 -79 40 -95 44 -168 46 -45 1 -94 0 -111 -2z m244
-126 c55 -14 101 -52 101 -83 0 -34 -20 -74 -39 -79 -70 -18 -121 -26 -221
-35 -99 -10 -371 -31 -390 -31 -4 0 -5 13 -2 30 9 60 191 165 347 199 82 18
128 18 204 -1z"/>
<path d="M16305 13020 c-124 -19 -216 -49 -297 -97 -88 -52 -78 -88 44 -161
83 -51 117 -64 363 -145 225 -74 492 -167 545 -189 64 -27 92 -83 81 -158 -12
-75 -51 -131 -181 -260 -134 -133 -261 -216 -420 -273 -78 -28 -95 -30 -207
-30 -108 0 -123 -2 -128 -17 -9 -27 2 -43 54 -78 47 -32 53 -34 138 -33 127 1
234 37 428 146 82 45 181 127 283 234 133 138 183 237 160 319 -18 67 -57 130
-102 167 -56 48 -234 129 -366 167 -19 5 -48 16 -65 23 -56 24 -334 113 -460
148 -47 13 -50 16 -50 48 0 33 2 35 68 57 106 35 256 40 377 12 142 -32 194
-55 234 -104 18 -23 50 -50 70 -61 33 -18 37 -18 52 -3 26 26 9 67 -53 126
-86 81 -167 117 -350 152 -109 21 -137 22 -218 10z"/>
<path d="M13557 12742 c-9 -10 -20 -33 -23 -50 -9 -44 -18 -47 -49 -18 -46 43
-109 45 -185 6 -86 -45 -203 -217 -224 -332 -7 -41 6 -59 78 -105 34 -22 46
-24 90 -18 65 8 128 36 182 80 23 19 45 35 49 35 3 0 3 -20 -1 -45 -5 -34 -2
-51 10 -70 16 -24 87 -65 113 -65 19 0 34 44 27 79 -7 33 21 259 42 342 21 85
18 101 -24 142 -42 41 -61 46 -85 19z m-74 -165 c-12 -67 -129 -183 -216 -216
-42 -16 -47 -14 -47 18 0 39 88 156 149 198 88 61 126 61 114 0z m37 -37 c-4
-28 -12 -56 -19 -63 -13 -12 -12 22 3 108 5 30 6 31 14 17 5 -7 5 -35 2 -62z
m-30 -151 c0 -20 -15 -26 -24 -10 -8 13 4 42 15 35 5 -3 9 -14 9 -25z"/>
<path d="M12865 12663 c-32 -8 -103 -61 -189 -141 -138 -127 -309 -261 -387
-302 -45 -23 -64 -14 -55 29 3 17 9 45 12 61 5 23 0 38 -21 66 -22 29 -32 35
-58 32 -26 -2 -36 -11 -52 -43 -25 -50 -28 -182 -5 -210 22 -27 83 -62 127
-74 101 -27 284 82 516 308 61 60 101 91 107 85 6 -6 3 -65 -6 -159 -18 -168
-10 -234 33 -285 26 -32 70 -47 87 -30 11 11 18 161 20 420 0 120 -1 127 -28
173 -25 42 -62 79 -76 76 -3 -1 -14 -4 -25 -6z"/>
</g>
</svg>
