<?xml version="1.0" standalone="no"?>
<!DOCTYPE svg PUBLIC "-//W3C//DTD SVG 20010904//EN"
 "http://www.w3.org/TR/2001/REC-SVG-20010904/DTD/svg10.dtd">
<svg version="1.0" xmlns="http://www.w3.org/2000/svg"
 width="3264.000000pt" height="2448.000000pt" viewBox="0 0 3264.000000 2448.000000"
 preserveAspectRatio="xMidYMid meet">
<metadata>
Created by potrace 1.12, written by Peter Selinger 2001-2015
</metadata>
<g transform="translate(0.000000,2448.000000) scale(0.100000,-0.100000)"
fill="#000000" stroke="none">
<path d="M25422 24045 c-58 -66 -137 -231 -179 -375 -14 -47 -29 -90 -34 -96
-5 -7 -36 -21 -67 -33 -32 -12 -71 -32 -87 -45 -27 -21 -28 -26 -17 -50 15
-33 37 -33 84 -1 20 14 39 25 42 25 12 0 5 -33 -24 -118 -35 -100 -70 -234
-70 -268 0 -29 35 -51 55 -34 7 6 18 41 25 78 23 131 92 366 113 383 10 9 73
33 138 53 112 36 147 54 132 69 -12 13 -77 7 -162 -13 -46 -11 -86 -18 -88
-16 -16 16 143 359 184 398 56 53 69 6 99 -352 11 -137 7 -236 -10 -268 -25
-49 -18 -77 19 -77 65 0 76 98 50 432 -23 295 -43 353 -126 353 -32 0 -43 -7
-77 -45z"/>
<path d="M6201 24045 c-58 -49 -282 -459 -431 -789 -40 -88 -53 -161 -33 -182
34 -34 67 -2 77 74 9 74 34 132 186 447 38 77 89 183 114 235 52 110 70 135
89 127 20 -8 26 -51 28 -227 2 -85 7 -189 12 -230 11 -91 49 -217 84 -283 27
-48 27 -49 9 -82 -10 -18 -15 -38 -12 -44 11 -17 51 -13 68 7 32 38 198 347
276 517 46 99 95 195 109 213 46 61 49 34 25 -210 -40 -394 -29 -538 42 -546
28 -3 28 -3 22 35 -21 118 -6 454 34 786 5 43 7 84 4 92 -8 21 -31 26 -60 13
-30 -14 -157 -203 -219 -328 -24 -47 -68 -134 -99 -194 -31 -60 -56 -113 -56
-117 0 -21 -66 -119 -79 -117 -40 8 -78 245 -88 555 -7 206 -10 233 -27 252
-25 27 -38 26 -75 -4z"/>
<path d="M26711 24011 c-44 -61 -70 -134 -132 -371 -62 -240 -118 -375 -179
-437 -38 -39 -64 -42 -82 -10 -18 31 -14 333 7 517 9 80 19 166 22 193 6 52
-13 87 -48 87 -58 0 -161 -233 -249 -565 -48 -180 -69 -243 -106 -317 -37 -74
-42 -109 -19 -128 50 -41 129 139 195 445 46 214 70 298 111 377 30 59 43 49
36 -29 -22 -230 -29 -348 -25 -442 3 -96 6 -114 33 -167 39 -75 69 -92 120
-68 86 40 173 202 228 424 9 36 30 120 47 188 17 69 48 161 71 208 22 46 39
92 37 102 -6 30 -44 26 -67 -7z"/>
<path d="M27215 23993 c-179 -74 -310 -263 -350 -502 -25 -147 -18 -365 14
-438 22 -50 49 -72 71 -58 15 9 13 29 -11 107 -19 61 -21 87 -17 216 3 88 12
177 23 222 37 160 151 319 268 375 47 23 67 27 109 23 65 -7 89 -32 119 -126
40 -121 36 -453 -8 -627 -29 -120 -121 -233 -232 -288 -64 -31 -70 -32 -191
-32 -138 1 -212 20 -271 69 -24 21 -34 24 -50 16 -29 -16 -23 -35 26 -78 71
-62 160 -87 315 -87 118 0 128 2 185 29 39 19 87 57 136 106 122 122 153 209
180 505 19 210 -2 383 -58 474 -55 88 -171 131 -258 94z"/>
<path d="M32195 23974 c-78 -19 -135 -46 -211 -100 -74 -53 -201 -184 -252
-260 -20 -31 -45 -68 -54 -82 -30 -45 -61 -159 -55 -203 7 -50 31 -89 57 -89
23 0 70 48 70 72 0 9 -14 28 -32 42 l-32 24 37 75 c61 123 180 269 289 353
100 78 246 129 333 117 84 -11 73 -40 -57 -149 -134 -111 -227 -203 -249 -246
-17 -34 -18 -41 -6 -71 29 -67 96 -107 272 -162 68 -21 133 -48 149 -62 32
-27 53 -27 70 -1 8 14 7 24 -6 45 -18 30 -56 47 -233 103 -109 35 -164 60
-184 84 -21 25 36 89 185 211 27 22 79 70 117 107 80 80 85 106 35 155 -58 56
-123 66 -243 37z"/>
<path d="M8064 23951 c-39 -17 -150 -136 -215 -232 -105 -153 -216 -474 -189
-545 23 -60 100 -20 84 44 -14 51 56 316 110 416 35 65 90 145 103 150 26 10
19 -12 -37 -124 -65 -133 -74 -159 -61 -193 12 -31 47 -43 171 -57 249 -28
253 -78 15 -208 -60 -33 -146 -81 -190 -106 -44 -26 -86 -50 -93 -54 -24 -13
-13 -27 23 -30 44 -4 175 57 340 159 17 10 46 27 65 38 62 34 120 95 120 125
0 63 -92 106 -269 125 -51 6 -99 15 -107 22 -33 27 -16 70 116 289 70 116 90
158 83 170 -12 18 -40 22 -69 11z"/>
<path d="M7345 23856 c-60 -12 -152 -43 -232 -77 -53 -22 -79 -59 -63 -88 14
-28 25 -29 245 -34 208 -5 256 -16 276 -61 21 -44 -31 -105 -191 -222 -65 -48
-201 -147 -250 -183 -45 -32 -51 -42 -38 -58 16 -20 28 -16 108 36 318 210
450 330 450 410 0 75 -65 109 -229 120 -64 5 -131 6 -149 3 -49 -7 -122 7
-122 23 0 8 21 24 48 35 79 35 171 53 266 51 97 -2 123 8 105 40 -8 16 -21 19
-87 18 -42 -1 -104 -6 -137 -13z"/>
<path d="M31051 23835 c-26 -12 -32 -20 -28 -35 4 -16 -1 -21 -21 -26 -89 -18
-179 -83 -234 -168 -108 -168 -101 -352 17 -422 86 -50 214 -66 340 -43 74 14
235 80 286 117 85 63 123 142 123 257 0 163 -79 259 -259 314 -78 24 -175 27
-224 6z m241 -74 c80 -31 118 -59 152 -115 27 -43 30 -57 30 -120 -2 -149 -85
-226 -314 -292 -80 -23 -105 -26 -189 -21 -110 5 -179 30 -207 72 -16 24 -16
35 -6 99 16 94 54 169 119 234 58 58 104 82 157 82 71 0 107 30 71 60 -8 7
-12 17 -9 22 10 16 132 3 196 -21z"/>
<path d="M8700 23577 c-119 -40 -156 -56 -158 -71 -6 -27 10 -38 105 -68 126
-40 213 -106 213 -163 0 -22 -67 -50 -155 -65 -150 -25 -491 -93 -512 -101
-38 -14 -26 -29 25 -29 26 0 112 10 192 21 80 11 177 24 215 29 128 16 268 57
293 85 69 80 -35 196 -240 268 -10 4 -18 12 -18 20 0 14 129 51 220 63 63 8
90 19 90 38 0 42 -90 33 -270 -27z"/>
<path d="M13029 22958 c-1 -7 -1 -17 0 -21 12 -71 31 -394 36 -612 3 -154 13
-397 21 -540 8 -143 16 -330 17 -415 l2 -155 -655 2 c-360 2 -658 3 -662 3
-21 0 -3 21 40 48 90 59 172 162 172 219 0 81 -176 156 -313 133 -30 -4 -78
-20 -108 -34 -81 -40 -104 -18 -52 50 37 49 25 95 -35 141 -46 35 -84 47 -175
58 -34 4 -60 12 -63 20 -3 7 17 47 45 88 55 81 92 169 111 263 10 51 9 66 -4
97 -20 49 -51 60 -156 54 -69 -3 -94 -9 -135 -32 -81 -46 -129 -89 -177 -162
-113 -168 -133 -242 -125 -470 7 -202 26 -295 70 -327 34 -25 59 -14 67 30 l5
29 102 7 c84 5 117 13 190 42 48 20 93 36 99 36 21 0 24 -31 9 -85 -15 -49
-19 -112 -13 -180 l3 -29 -260 -2 c-407 -3 -1001 -14 -1098 -20 -59 -4 -92 -2
-101 5 -11 9 -14 54 -15 203 -1 205 -4 219 -55 232 -12 3 -32 23 -44 45 -42
75 -155 147 -298 192 -129 40 -131 57 -15 103 38 15 75 34 81 42 7 8 17 14 22
14 21 0 89 66 108 105 39 80 18 158 -61 229 -67 61 -119 79 -224 79 -82 0 -97
-3 -165 -35 -131 -62 -229 -184 -273 -341 -16 -57 -20 -101 -20 -210 1 -239
28 -355 80 -345 31 6 38 33 25 97 -7 34 -16 128 -19 209 -9 228 24 347 128
457 137 145 336 153 442 17 46 -59 34 -125 -35 -188 -51 -48 -168 -111 -258
-141 -119 -39 -119 -75 -1 -94 81 -13 136 -31 250 -85 160 -75 194 -113 165
-182 -8 -20 -25 -47 -37 -61 -54 -59 -192 -144 -260 -161 -17 -5 -70 -18 -117
-30 -115 -29 -179 -29 -217 0 -17 12 -39 20 -49 18 -29 -5 -24 -47 8 -71 24
-18 41 -20 112 -19 115 3 198 15 298 46 102 31 175 77 250 157 62 67 82 71 92
17 12 -67 17 -254 8 -279 l-10 -26 -564 -2 c-309 -2 -1042 -4 -1628 -6 -659
-2 -1095 -7 -1145 -13 -44 -6 -93 -8 -109 -5 l-29 6 7 81 c4 45 11 99 16 121
5 22 10 86 10 142 0 56 5 148 11 204 10 95 10 104 -7 116 -24 18 -31 17 -58
-11 -23 -22 -24 -28 -25 -209 -1 -225 -17 -427 -34 -444 -20 -20 -1189 -27
-1537 -8 -315 17 -726 20 -764 5 -16 -6 -26 -17 -26 -30 0 -19 6 -20 188 -21
232 -2 272 -3 552 -15 243 -10 1235 -9 1443 1 112 6 127 5 127 -9 0 -22 37
-57 54 -50 7 3 16 18 19 33 4 19 14 31 30 35 31 7 663 14 2177 22 646 3 1195
8 1220 9 41 3 48 1 77 -33 28 -32 33 -34 48 -22 10 8 21 23 25 35 7 19 15 20
306 21 165 1 484 6 709 10 590 13 2206 6 2222 -10 10 -9 11 -66 4 -251 -5
-132 -6 -384 -3 -560 3 -231 0 -425 -13 -700 -16 -336 -17 -407 -5 -610 7
-126 16 -561 20 -965 8 -769 13 -882 57 -1432 7 -95 7 -95 -126 -79 -100 12
-135 13 -551 31 -140 5 -311 14 -380 20 -69 5 -208 12 -310 15 -102 3 -241 10
-310 15 -69 5 -235 14 -370 20 -135 5 -276 12 -315 15 -38 3 -124 7 -190 10
-66 3 -219 12 -340 20 -121 8 -276 17 -345 20 -69 3 -159 8 -200 11 -170 10
-950 33 -1290 39 -201 3 -453 7 -560 10 -841 21 -1121 22 -2180 15 -245 -2
-600 1 -790 6 -557 15 -1455 6 -1625 -16 -38 -5 -96 -10 -128 -10 -79 0 -127
-21 -127 -55 0 -14 6 -28 14 -31 7 -3 51 2 97 10 217 39 614 56 1114 49 204
-3 993 -7 1755 -8 762 -1 1446 -5 1520 -8 149 -7 510 -14 1145 -23 231 -3 445
-7 475 -9 30 -2 183 -9 340 -15 300 -11 405 -17 980 -50 504 -29 1106 -60
1530 -80 118 -5 388 -19 600 -30 212 -11 424 -20 473 -20 81 0 88 -2 97 -22 5
-13 14 -174 20 -358 10 -304 23 -584 50 -1110 14 -258 12 -479 -5 -885 -18
-394 -20 -1004 -6 -1230 32 -491 44 -827 33 -859 -10 -27 -10 -38 2 -61 12
-23 15 -106 15 -477 1 -526 10 -669 76 -1268 14 -124 41 -398 60 -610 51 -550
77 -771 130 -1075 40 -227 73 -457 95 -660 64 -593 83 -755 111 -945 36 -248
36 -235 3 -247 -34 -13 -101 -16 -108 -5 -2 4 -73 9 -158 10 -84 1 -216 8
-293 14 -267 23 -1763 15 -2225 -12 -91 -5 -262 -14 -380 -20 -118 -6 -375
-19 -570 -30 -195 -11 -422 -22 -505 -25 -82 -3 -220 -10 -305 -15 -155 -9
-303 -16 -540 -25 -69 -3 -237 -9 -375 -15 -424 -17 -863 -29 -1255 -35 -477
-7 -621 -12 -1020 -35 -179 -11 -422 -24 -540 -30 -268 -13 -458 -25 -765 -47
-288 -21 -535 -24 -557 -6 -9 8 -13 24 -10 43 4 27 2 30 -22 30 -34 0 -106
-47 -106 -70 0 -65 154 -98 377 -80 277 21 396 29 583 40 107 6 263 15 345 20
83 6 267 16 410 25 649 36 768 41 1380 50 415 7 922 21 1200 35 110 5 279 12
375 15 164 5 229 8 425 20 44 3 141 7 215 10 152 6 510 25 1045 55 345 19 543
28 1070 50 212 9 542 10 1914 9 206 0 341 -3 335 -9 -19 -19 -152 -31 -342
-31 -208 1 -240 -5 -209 -36 16 -16 40 -18 240 -18 144 0 253 5 310 14 68 11
90 12 96 3 4 -7 16 -168 26 -358 19 -348 25 -388 57 -368 17 11 1 424 -23 619
-16 126 -13 138 36 149 22 4 69 21 105 37 114 50 395 118 582 140 79 10 144
10 307 0 372 -22 580 -48 791 -97 58 -14 125 -29 149 -35 70 -16 229 -46 311
-59 41 -6 134 -22 205 -35 72 -13 193 -35 270 -49 77 -14 244 -39 370 -56 438
-58 881 -140 1034 -191 l94 -32 17 23 c20 26 0 27 350 -10 107 -11 242 -25
300 -30 190 -19 443 -50 574 -70 122 -19 131 -22 156 -52 24 -28 30 -31 65
-25 80 13 85 60 9 85 -56 19 -274 60 -384 72 -52 6 -151 17 -220 25 -189 22
-475 52 -665 70 -216 20 -316 33 -385 51 -30 7 -143 27 -250 44 -107 17 -220
35 -250 40 -77 14 -291 45 -445 65 -71 9 -193 28 -270 42 -77 13 -162 28 -190
33 -562 96 -559 95 -786 151 -119 29 -317 63 -424 73 -33 3 -109 10 -170 16
-227 22 -458 28 -561 14 -195 -25 -443 -84 -564 -133 -41 -17 -98 -34 -126
-37 -62 -8 -63 -6 -70 116 -3 47 -14 146 -24 220 -11 74 -31 239 -45 365 -14
127 -30 273 -35 325 -9 83 -37 302 -60 485 -5 33 -20 132 -34 220 -84 513
-101 655 -151 1210 -14 160 -41 442 -50 519 -32 292 -37 342 -66 671 -6 66
-13 348 -16 628 -5 407 -3 507 7 507 7 0 43 -9 79 -20 147 -43 367 -72 656
-85 309 -15 655 -37 855 -55 230 -21 298 -26 825 -65 631 -45 733 -50 1395
-60 385 -6 576 -12 830 -26 361 -19 858 -78 1155 -135 121 -24 169 -24 173 -2
5 24 -22 33 -177 63 -175 34 -597 89 -836 110 -38 3 -95 10 -125 15 -135 22
-374 32 -895 35 -650 5 -951 15 -1415 50 -184 14 -369 27 -410 30 -89 7 -381
31 -535 45 -204 18 -539 39 -795 50 -323 13 -423 25 -460 55 -8 6 -72 19 -141
29 -146 19 -188 33 -194 61 -2 11 -6 117 -9 235 -3 118 -10 267 -15 330 -33
388 -35 839 -10 1430 15 322 15 746 0 1005 -14 262 -39 769 -52 1070 -6 132
-13 267 -16 299 l-5 59 158 -8 c88 -4 177 -9 199 -10 22 -2 61 -4 86 -4 31 -1
49 -6 52 -16 4 -8 -5 -47 -19 -87 -57 -166 -121 -491 -160 -808 -21 -169 -30
-729 -15 -955 5 -88 15 -250 21 -360 16 -296 36 -488 75 -735 48 -307 52 -384
34 -730 -11 -202 -10 -239 6 -360 10 -74 19 -151 19 -170 l1 -35 -110 0 c-116
0 -135 -5 -135 -35 0 -31 19 -35 136 -31 106 3 111 2 141 -23 38 -32 40 -32
67 -3 l21 22 270 -12 c149 -6 336 -19 417 -27 81 -9 214 -20 295 -26 81 -5
204 -14 273 -20 69 -5 195 -15 280 -20 85 -6 169 -13 185 -16 17 -3 111 -8
211 -11 232 -7 228 -10 204 162 -12 84 -36 276 -50 397 -12 103 -15 474 -5
608 4 52 22 250 42 440 19 190 40 413 48 495 7 83 21 215 29 295 32 299 47
546 56 900 9 348 21 515 55 787 15 112 15 124 0 153 -36 70 -196 133 -435 171
-74 12 -142 24 -150 27 -30 11 143 20 450 25 187 3 465 15 685 30 564 40 762
47 1249 47 750 0 1441 -41 1724 -101 102 -22 147 -22 147 1 0 22 -43 39 -157
61 -314 61 -764 89 -1498 94 -737 5 -939 -3 -1875 -70 -287 -21 -1167 -31
-1395 -17 -146 10 -825 18 -1127 13 -45 -1 -129 6 -185 15 -57 8 -149 17 -206
20 -57 2 -108 6 -113 9 -5 4 -9 50 -9 103 -1 53 -8 196 -16 317 -10 140 -18
502 -24 995 -5 426 -14 827 -19 890 -14 154 -14 557 0 755 6 89 12 457 13 830
1 369 6 676 10 683 6 10 51 12 199 7 106 -2 351 -7 546 -10 194 -3 379 -8 410
-10 31 -2 166 -9 301 -15 364 -16 532 -28 543 -39 10 -10 -50 -13 -488 -31
-499 -20 -750 -46 -868 -90 -91 -34 -90 -32 -117 -385 -6 -82 -23 -249 -36
-370 -35 -309 -51 -475 -69 -745 -19 -274 -30 -1030 -18 -1240 10 -173 1 -459
-21 -698 -21 -223 -31 -296 -66 -472 -16 -80 -31 -165 -35 -190 -3 -25 -14
-67 -23 -93 -16 -46 -16 -50 3 -85 25 -45 46 -47 64 -5 8 18 21 35 30 38 23 9
200 23 516 40 363 20 878 20 1218 -1 210 -12 271 -13 282 -4 31 26 39 90 35
300 -8 384 -4 621 13 765 10 77 26 273 37 435 24 347 47 537 95 778 62 315 85
469 105 700 34 388 42 453 85 692 36 198 41 448 12 544 -10 32 -16 61 -12 64
3 3 58 0 123 -6 64 -7 194 -17 287 -22 467 -27 540 -33 555 -46 15 -13 103
-10 535 15 94 5 337 10 540 11 360 1 589 7 1000 30 110 6 265 14 345 19 223
12 703 13 920 1 196 -10 543 -37 590 -44 14 -3 32 -1 40 4 13 8 13 11 -1 25
-57 57 -948 102 -1499 74 -91 -4 -221 -11 -290 -14 -69 -3 -190 -10 -270 -15
-163 -10 -469 -18 -1015 -25 -203 -3 -417 -9 -475 -14 -111 -10 -240 -6 -820
29 -445 26 -741 45 -1070 70 -146 11 -380 26 -520 35 -140 8 -327 20 -415 25
-184 11 -818 30 -1105 33 l-195 2 -6 185 c-4 102 -9 224 -13 271 -7 116 -15
345 -21 624 -7 308 -29 625 -46 658 -11 20 -48 23 -50 5z m-1711 -666 c41 -53
-31 -263 -134 -390 -24 -30 -44 -59 -44 -66 0 -30 36 -44 125 -49 96 -6 131
-15 176 -48 55 -39 26 -100 -71 -153 -51 -28 -74 -35 -230 -77 -41 -11 -92
-26 -113 -34 -20 -8 -46 -15 -57 -15 -59 0 -85 112 -78 327 5 122 8 146 33
208 54 134 136 234 230 282 87 45 135 49 163 15z m541 -757 c76 -39 71 -85
-18 -167 -86 -80 -238 -148 -331 -148 -97 0 -123 94 -63 232 13 31 24 40 72
57 58 21 117 37 161 45 45 8 149 -3 179 -19z m3972 -532 c49 -48 46 -344 -6
-618 -26 -137 -53 -367 -80 -675 -16 -175 -58 -464 -90 -609 -43 -196 -87
-524 -100 -741 -10 -160 -33 -449 -50 -605 -19 -179 -21 -331 -11 -630 7 -193
5 -248 -6 -280 -13 -40 -14 -40 -63 -40 -28 0 -140 7 -250 14 -280 19 -789 18
-1155 -3 -168 -9 -332 -21 -365 -26 -79 -13 -129 -12 -142 1 -7 7 -4 41 13
117 47 215 67 355 101 712 4 47 8 429 8 850 0 528 4 813 13 920 20 247 52 583
57 610 11 58 66 577 75 709 10 154 18 179 68 205 107 55 1010 111 1799 111
153 0 164 -1 184 -22z m-831 -4564 c465 -30 812 -93 981 -179 60 -31 63 -43
45 -194 -9 -72 -20 -178 -26 -236 -6 -58 -13 -125 -16 -150 -3 -25 -9 -211
-14 -415 -5 -203 -16 -444 -24 -535 -25 -258 -94 -946 -115 -1145 -68 -625
-67 -911 7 -1408 17 -114 3 -126 -126 -108 -73 10 -196 20 -692 56 -118 9
-332 27 -475 41 -153 15 -368 27 -523 31 -185 4 -265 10 -272 18 -28 34 -34
131 -35 610 l-1 490 -32 190 c-50 303 -61 406 -72 640 -5 121 -15 292 -22 380
-17 212 -16 816 0 960 23 195 61 447 86 570 32 156 91 372 105 389 10 12 96
14 539 10 290 -3 597 -9 682 -15z"/>
<path d="M14574 20750 c-82 -11 -205 -64 -259 -112 -71 -62 -92 -169 -61 -300
36 -150 124 -233 306 -289 61 -18 99 -23 200 -23 149 -1 213 14 345 79 109 54
187 120 222 188 22 44 25 60 21 118 -13 181 -196 305 -463 314 -49 1 -121 10
-160 18 -38 9 -74 16 -80 15 -5 0 -37 -4 -71 -8z m143 -76 c16 -25 20 -26 77
-20 56 6 65 5 109 -24 52 -33 77 -29 77 12 0 17 5 19 33 13 17 -3 64 -22 104
-41 141 -68 195 -183 137 -295 -33 -66 -151 -143 -299 -195 -74 -27 -91 -29
-215 -28 -226 1 -333 50 -392 179 -19 42 -23 67 -23 150 0 88 3 105 24 138 29
47 76 77 161 105 125 40 183 42 207 6z"/>
<path d="M14300 19520 c-29 -18 -30 -604 -1 -659 7 -11 20 -21 31 -21 18 0 19
9 19 214 -1 118 5 265 12 327 12 112 12 113 -11 131 -25 21 -29 21 -50 8z"/>
<path d="M14110 18605 c-10 -13 -12 -77 -7 -306 4 -166 12 -299 17 -310 14
-26 39 -24 44 4 3 12 8 144 10 292 3 149 6 279 6 290 1 20 -24 45 -46 45 -6 0
-17 -7 -24 -15z"/>
<path d="M14025 17540 c-4 -6 -6 -135 -5 -288 0 -229 3 -279 15 -291 34 -34
40 0 47 282 5 239 4 274 -9 290 -18 19 -39 22 -48 7z"/>
<path d="M14235 16343 c-125 -14 -217 -71 -261 -159 -26 -54 -29 -69 -29 -164
0 -94 3 -111 26 -155 56 -109 172 -153 373 -142 146 9 307 55 388 113 87 61
95 130 32 252 -21 40 -34 79 -34 103 0 31 -6 42 -32 63 -90 68 -301 109 -463
89z m251 -73 c37 -15 27 -20 -57 -31 -85 -10 -113 -29 -86 -56 13 -14 38 -18
110 -20 50 -1 102 -5 115 -8 45 -11 103 -56 132 -102 54 -84 35 -138 -63 -186
-109 -53 -199 -72 -347 -72 -124 0 -139 2 -185 25 -74 37 -99 88 -97 196 2
158 56 217 237 257 40 9 214 7 241 -3z"/>
<path d="M14480 15480 c-240 -21 -398 -98 -490 -241 -56 -87 -73 -147 -68
-234 8 -122 69 -194 197 -232 84 -24 319 -14 426 19 168 52 274 127 325 233
20 42 24 65 24 145 -1 205 -83 310 -249 316 -38 1 -113 -1 -165 -6z m260 -85
c63 -33 93 -99 93 -210 0 -87 -13 -130 -59 -190 -48 -63 -177 -127 -312 -154
-69 -14 -246 -14 -314 0 -151 31 -199 123 -146 280 18 54 33 75 93 135 48 48
95 83 145 107 83 42 100 45 100 18 0 -32 15 -33 103 -6 46 14 99 25 118 25 18
0 41 5 49 10 18 13 94 3 130 -15z"/>
<path d="M14330 14421 c-24 -45 -7 -318 35 -556 8 -44 17 -118 21 -165 6 -85
17 -108 41 -88 16 13 17 153 3 248 -37 242 -42 299 -36 423 7 135 2 157 -35
157 -10 0 -23 -9 -29 -19z"/>
<path d="M14274 13086 c-15 -12 -20 -32 -26 -108 -11 -157 -9 -317 6 -443 22
-182 40 -245 72 -245 28 0 32 34 13 135 -10 57 -21 177 -25 280 -5 149 -4 191
10 241 21 80 20 117 -2 137 -22 21 -23 21 -48 3z"/>
<path d="M6632 22857 c-154 -142 -361 -235 -544 -245 -117 -6 -150 7 -247 98
-112 105 -185 114 -333 40 -132 -66 -216 -127 -318 -229 -106 -107 -163 -199
-140 -226 26 -32 49 -17 83 53 54 115 211 256 388 350 99 53 136 59 191 31 23
-12 67 -45 98 -74 106 -100 193 -122 367 -90 54 10 103 21 108 25 6 4 28 13
50 20 70 22 178 80 252 136 40 30 79 54 87 54 8 0 38 -33 66 -74 88 -127 195
-182 355 -180 100 0 121 6 370 91 263 90 254 88 415 88 147 -1 185 -8 284 -50
101 -43 230 -151 263 -221 21 -43 43 -60 67 -51 47 18 -7 118 -110 203 -120
99 -217 145 -359 170 -181 32 -304 13 -625 -96 -239 -81 -243 -82 -324 -78
-68 3 -91 10 -144 38 -76 40 -118 87 -166 185 -30 62 -50 85 -73 85 -2 0 -30
-24 -61 -53z"/>
<path d="M31413 22824 c-51 -68 -32 -193 25 -158 9 6 20 22 24 35 3 13 13 47
21 76 14 48 13 53 -2 67 -26 23 -37 20 -68 -20z"/>
<path d="M31651 22833 c-5 -11 -6 -51 -1 -101 5 -46 6 -90 3 -98 -6 -17 -55
-43 -131 -70 -29 -10 -67 -30 -85 -45 -31 -26 -31 -26 -14 -53 10 -14 22 -26
28 -26 6 0 38 16 72 36 34 20 76 38 94 41 30 5 33 4 33 -21 0 -39 -40 -254
-55 -298 -8 -26 -9 -40 -2 -47 15 -15 42 -14 55 2 16 19 52 211 53 286 2 120
2 119 114 176 55 27 128 67 162 88 35 21 67 36 73 32 15 -9 1 -60 -57 -203
-63 -157 -74 -213 -48 -242 29 -32 57 -24 140 40 103 79 111 79 119 -10 9 -91
38 -130 98 -130 38 0 107 32 151 69 15 12 23 13 51 3 45 -16 65 -15 73 5 4 11
-3 24 -22 39 l-28 22 30 39 c70 87 89 161 47 177 -38 14 -126 -75 -144 -147
-6 -23 -13 -47 -15 -53 -6 -20 -111 -74 -142 -74 -45 0 -57 21 -49 86 3 31 11
65 17 76 15 29 -7 78 -35 78 -21 0 -37 -9 -121 -68 -46 -32 -99 -62 -110 -62
-12 0 -3 28 41 123 51 112 82 201 91 263 4 34 1 46 -16 63 -28 28 -43 23 -146
-44 -105 -69 -220 -127 -242 -123 -16 3 -18 13 -15 77 2 58 -2 78 -14 93 -21
23 -41 23 -53 1z"/>
<path d="M19840 22695 c-25 -30 -8 -50 50 -56 68 -7 107 -27 150 -75 67 -77
75 -109 74 -299 -1 -165 -2 -173 -33 -260 -18 -49 -38 -97 -45 -105 -7 -8 -25
-39 -40 -68 -86 -168 -330 -386 -547 -488 -53 -25 -68 -42 -48 -55 21 -13 54
-1 170 57 154 79 374 271 444 389 100 167 115 205 164 408 26 110 3 295 -50
401 -19 38 -107 121 -163 153 -30 17 -111 16 -126 -2z"/>
<path d="M30618 22689 c-29 -16 -108 -136 -108 -164 0 -40 -21 -118 -37 -136
-8 -10 -34 -22 -59 -28 -25 -6 -47 -18 -51 -27 -8 -22 26 -54 58 -54 35 0 42
-11 50 -82 8 -66 43 -119 92 -139 21 -9 72 -14 147 -14 107 0 119 3 175 30 68
34 101 72 90 104 -8 28 -37 27 -72 -2 -62 -51 -240 -74 -323 -41 -32 13 -42
23 -51 54 -14 46 -4 107 19 118 9 5 73 26 142 47 139 42 213 78 208 104 -6 28
-53 23 -187 -20 -71 -23 -137 -39 -147 -35 -19 7 -14 55 12 93 29 46 65 60
342 142 58 17 72 25 72 41 0 17 -7 20 -52 20 -29 0 -87 -9 -128 -20 -81 -21
-140 -26 -140 -10 0 16 -34 29 -52 19z"/>
<path d="M25430 22613 c-67 -35 -141 -123 -171 -203 -54 -142 -92 -374 -86
-521 l3 -84 27 0 c27 0 57 17 313 178 128 81 204 153 204 193 0 28 -39 60 -84
68 -46 9 -64 31 -38 45 11 6 38 33 61 60 109 130 52 279 -112 289 -53 3 -70 0
-117 -25z m185 -58 c19 -18 25 -35 25 -68 0 -61 -44 -123 -136 -192 -41 -31
-74 -62 -74 -69 0 -28 23 -35 104 -30 110 7 123 -3 71 -56 -22 -23 -57 -50
-77 -61 -20 -10 -76 -48 -124 -84 -102 -77 -123 -90 -135 -78 -7 7 -2 101 20
318 9 95 34 169 77 234 63 96 194 142 249 86z"/>
<path d="M19310 22623 c-205 -29 -438 -212 -527 -413 -79 -177 -104 -362 -73
-551 17 -109 28 -138 59 -154 23 -11 30 -23 35 -62 10 -72 43 -123 100 -152
66 -34 203 -41 306 -16 167 41 323 205 338 356 14 146 -109 320 -309 435 -44
26 -83 53 -86 60 -9 23 14 41 120 96 203 106 305 254 236 342 -26 33 -141 68
-199 59z m114 -77 c63 -41 6 -156 -113 -230 -20 -13 -67 -40 -106 -61 -163
-89 -184 -136 -87 -191 240 -136 340 -241 358 -375 26 -192 -195 -379 -434
-368 -112 6 -159 48 -177 159 -3 25 -11 59 -17 76 -8 23 -7 43 4 81 18 60 9
83 -30 83 -41 0 -52 17 -52 85 0 133 40 306 95 415 77 150 258 304 401 339 53
14 128 7 158 -13z"/>
<path d="M26390 22610 c-13 -8 -12 -16 14 -87 18 -49 31 -203 19 -218 -4 -5
-37 -35 -73 -65 -99 -83 -117 -111 -100 -155 14 -36 46 -32 66 8 21 41 84 107
102 107 12 0 14 -13 8 -73 -7 -83 -2 -107 24 -107 23 0 30 19 30 79 0 27 3 76
6 110 7 59 9 64 48 91 65 45 89 71 77 83 -7 7 -24 5 -56 -8 -25 -9 -49 -14
-53 -11 -3 4 -7 47 -9 97 -2 61 -8 97 -19 113 -18 28 -65 48 -84 36z"/>
<path d="M31332 22563 c-25 -37 -31 -55 -47 -143 -8 -41 -26 -120 -41 -174
-25 -96 -26 -100 -8 -113 21 -15 34 -13 45 8 13 24 56 170 74 254 10 44 27 99
37 123 15 34 17 46 8 58 -19 22 -47 17 -68 -13z"/>
<path d="M26782 22538 c-16 -16 -15 -38 4 -59 14 -15 14 -29 5 -106 -17 -135
-14 -269 5 -298 29 -44 64 -34 125 36 30 34 78 86 107 116 44 45 55 52 71 43
25 -13 33 -38 40 -125 6 -66 7 -70 31 -70 24 0 25 3 28 70 5 117 -47 205 -121
205 -27 0 -45 -14 -123 -95 -50 -52 -96 -95 -102 -95 -17 0 -15 61 8 186 11
60 20 121 20 135 0 48 -67 88 -98 57z"/>
<path d="M17047 22482 c-65 -66 -76 -95 -24 -63 53 33 60 8 27 -97 -20 -63
-53 -242 -65 -353 -9 -81 -18 -89 -106 -99 -73 -9 -199 -38 -250 -58 -30 -12
-41 -32 -29 -52 9 -15 16 -14 176 33 67 20 135 37 150 39 l29 3 -4 -161 c-3
-168 3 -204 37 -204 38 0 42 19 42 190 0 117 4 171 13 183 7 10 39 22 80 30
37 6 68 17 67 22 0 6 -29 10 -64 10 -36 0 -68 3 -72 8 -4 4 0 53 9 109 9 57
18 117 20 133 2 17 23 103 47 192 23 89 40 169 36 178 -3 8 -18 15 -33 15 -21
0 -43 -15 -86 -58z"/>
<path d="M16505 22494 c-38 -21 -95 -54 -126 -75 -30 -20 -73 -47 -95 -59 -82
-46 -235 -163 -293 -225 -137 -147 -219 -324 -236 -511 -9 -90 7 -166 48 -235
45 -74 102 -113 170 -114 71 0 69 22 -6 59 -104 52 -143 134 -134 285 7 114
25 178 79 286 51 101 86 151 146 212 111 113 376 285 522 338 47 17 55 24 55
45 0 40 -46 38 -130 -6z"/>
<path d="M5473 22498 c-25 -27 -104 -217 -126 -303 -34 -135 -66 -296 -76
-387 -15 -134 -19 -141 -81 -157 -28 -7 -63 -23 -76 -35 -23 -19 -24 -23 -10
-41 14 -19 16 -19 60 -4 68 24 73 12 41 -101 -28 -96 -25 -120 15 -120 35 0
51 35 60 132 10 100 19 137 42 155 7 6 60 23 116 38 57 15 119 33 138 41 41
17 88 18 102 2 5 -7 15 -49 22 -93 19 -128 18 -125 44 -125 47 0 52 22 27 131
-12 55 -20 108 -16 118 6 19 33 31 73 31 13 0 22 6 22 15 0 13 -9 15 -48 9
-58 -7 -78 7 -87 64 -8 53 -93 409 -126 527 -35 125 -68 154 -116 103z m61
-187 c13 -42 28 -94 31 -116 9 -46 59 -247 80 -319 28 -94 19 -107 -90 -121
-27 -4 -87 -18 -133 -32 -59 -18 -86 -23 -94 -15 -11 11 14 184 48 332 27 115
33 144 39 185 8 48 44 155 58 173 17 21 35 -5 61 -87z"/>
<path d="M15085 22399 c-66 -4 -156 -12 -200 -18 -44 -6 -116 -13 -160 -17
-47 -4 -91 -14 -110 -25 -17 -10 -75 -30 -130 -45 -55 -14 -116 -34 -136 -44
-42 -22 -64 -62 -49 -91 15 -27 30 -24 90 17 56 38 147 84 168 84 20 0 14 -37
-19 -103 -18 -34 -44 -96 -59 -137 -22 -63 -32 -78 -60 -92 -56 -29 -61 -47
-24 -82 26 -24 26 -25 15 -88 -15 -82 -20 -295 -8 -330 6 -20 16 -28 32 -28
13 0 27 5 30 10 3 6 8 88 11 183 4 167 13 240 31 258 13 13 189 35 423 54 198
16 245 25 237 48 -5 15 -313 14 -432 -3 -44 -6 -109 -13 -144 -17 l-64 -6 6
36 c7 45 87 225 125 280 16 24 38 44 55 48 72 19 294 44 560 63 50 3 78 19 62
35 -16 15 -123 19 -250 10z"/>
<path d="M18210 22372 c-8 -3 -44 -30 -80 -60 -36 -30 -94 -74 -130 -97 -67
-43 -251 -131 -332 -159 -66 -22 -270 -124 -292 -145 -25 -26 -7 -57 42 -70
197 -52 501 -142 609 -181 74 -27 158 -54 187 -61 69 -15 162 -8 184 15 16 16
16 18 -3 32 -13 10 -29 12 -50 7 -56 -13 -106 -3 -268 56 -186 67 -291 100
-432 136 -134 34 -165 45 -165 56 0 12 57 40 181 90 188 74 322 141 439 217
135 88 160 109 160 133 0 21 -28 39 -50 31z"/>
<path d="M16924 22355 c-40 -28 -345 -376 -462 -528 -70 -90 -162 -232 -162
-249 0 -19 20 -38 40 -38 23 0 42 23 81 100 18 36 42 79 54 95 67 100 445 576
479 604 34 29 8 43 -30 16z"/>
<path d="M25852 22255 c-38 -31 -56 -99 -56 -210 -1 -66 3 -86 22 -116 26 -42
74 -69 124 -69 49 0 132 45 176 95 75 85 80 167 13 234 -37 37 -57 45 -171 69
-25 5 -52 12 -61 16 -10 5 -27 -2 -47 -19z m185 -80 c54 -23 73 -44 73 -80 0
-60 -119 -165 -188 -165 -39 0 -62 34 -62 94 0 53 20 127 41 153 15 18 91 17
136 -2z"/>
<path d="M7561 22249 c-10 -11 -33 -46 -51 -77 -17 -32 -47 -84 -67 -117 -51
-84 -323 -624 -323 -640 0 -22 28 -38 55 -31 26 7 56 55 69 111 4 17 67 152
141 302 74 149 135 275 135 280 1 4 10 19 20 32 28 33 44 16 60 -62 12 -57 25
-112 52 -210 13 -47 6 -56 -55 -68 -100 -18 -151 -57 -113 -85 19 -13 57 -4
121 30 64 34 69 28 120 -130 40 -122 49 -136 84 -132 38 4 37 29 -3 122 -48
113 -63 170 -48 188 6 8 48 23 92 34 44 10 90 26 102 36 23 17 23 18 -22 17
-25 0 -63 -7 -85 -15 -59 -24 -99 -28 -112 -12 -10 12 -62 241 -83 367 -5 29
-15 59 -21 67 -17 20 -45 17 -68 -7z"/>
<path d="M2745 22028 c-43 -15 -130 -103 -150 -152 -9 -22 -24 -54 -32 -69
-40 -77 -67 -292 -52 -422 15 -137 63 -287 95 -299 20 -8 54 11 54 28 0 7 -13
40 -30 72 -44 87 -61 170 -64 307 -2 102 2 135 24 221 30 114 55 169 97 207
100 93 234 87 279 -12 15 -34 19 -66 19 -149 0 -103 -1 -106 -42 -190 -23 -47
-48 -92 -54 -101 -32 -43 17 -92 102 -105 83 -11 109 -23 109 -50 0 -28 -18
-48 -83 -92 -46 -32 -218 -104 -279 -117 -41 -9 -88 -33 -88 -45 0 -5 7 -15
15 -23 33 -34 319 75 406 155 40 37 99 135 99 165 0 30 -30 51 -80 58 -65 10
-137 34 -143 48 -3 7 13 42 34 77 22 36 46 88 55 117 18 62 20 180 3 231 -18
57 -64 117 -103 136 -39 18 -143 21 -191 4z"/>
<path d="M31753 21798 c-10 -18 -44 -85 -75 -148 -85 -173 -146 -243 -179
-204 -6 7 -14 54 -18 104 -8 95 -25 130 -63 130 -40 0 -106 -45 -185 -126 -44
-46 -86 -84 -91 -84 -13 0 -19 22 -21 75 -4 95 -61 115 -190 65 -44 -17 -85
-28 -91 -25 -6 4 -8 25 -4 54 7 54 -7 91 -34 91 -33 0 -42 -22 -42 -104 0 -45
-4 -86 -8 -92 -4 -6 -34 -26 -67 -45 -135 -74 -179 -145 -113 -180 17 -9 28
-2 83 55 97 103 121 88 85 -53 -24 -91 -22 -121 5 -121 27 0 55 82 62 178 3
48 9 94 14 103 15 30 197 104 230 94 26 -9 29 -51 12 -163 -15 -93 -15 -104
-1 -118 25 -25 49 -8 98 68 73 116 226 258 250 231 4 -4 13 -37 19 -73 15 -81
47 -149 75 -159 45 -17 109 31 166 124 26 42 136 262 151 303 21 54 -38 71
-68 20z"/>
<path d="M1023 21748 c-13 -17 -29 -63 -43 -123 -10 -43 -48 -144 -95 -250 -7
-16 -38 -109 -69 -205 -87 -272 -94 -322 -50 -342 23 -11 29 -10 44 10 16 20
17 26 4 68 -16 54 -7 98 71 324 25 74 53 160 61 190 32 119 47 161 64 183 17
19 20 20 33 7 8 -8 38 -81 67 -162 42 -117 51 -150 41 -162 -7 -8 -42 -19 -79
-26 -74 -13 -102 -31 -102 -67 0 -35 18 -36 93 -8 115 43 137 31 137 -75 0
-55 11 -68 35 -44 13 13 15 29 10 84 -6 75 -2 83 53 95 37 8 53 32 31 46 -8 5
-32 9 -54 9 -22 0 -45 4 -52 8 -7 4 -24 46 -37 92 -41 142 -107 334 -118 347
-13 16 -33 17 -45 1z"/>
<path d="M32051 21743 c-67 -24 -124 -87 -144 -159 -22 -76 -21 -109 2 -159
25 -54 57 -82 124 -105 63 -22 155 -26 257 -9 90 14 135 37 135 69 0 34 -20
36 -132 15 -132 -25 -247 -18 -302 18 -23 15 -41 31 -41 36 0 6 35 9 78 8 69
-1 84 2 142 31 81 42 107 66 122 113 13 46 1 83 -43 125 -25 24 -39 28 -92 31
-38 1 -79 -4 -106 -14z m154 -75 c32 -15 32 -38 -2 -70 -60 -57 -176 -85 -218
-54 -18 13 -18 16 -5 41 38 72 155 115 225 83z"/>
<path d="M8127 21729 c-46 -11 -129 -52 -146 -73 -21 -25 -6 -47 32 -44 57 3
59 -4 25 -100 -34 -98 -33 -143 4 -193 43 -57 158 -61 273 -9 68 30 119 82
134 137 14 50 14 53 -6 124 -21 76 -75 140 -131 157 -45 14 -129 14 -185 1z
m175 -71 c16 -11 35 -33 44 -49 18 -36 29 -117 20 -153 -14 -54 -125 -135
-187 -136 -35 0 -76 34 -84 69 -8 38 27 151 65 212 17 25 30 52 30 61 0 8 3
18 7 22 12 12 75 -4 105 -26z"/>
<path d="M26696 21700 c-60 -24 -100 -60 -132 -122 -16 -32 -31 -48 -46 -50
-31 -4 -35 -41 -9 -74 11 -14 29 -45 41 -68 25 -53 47 -74 97 -92 51 -18 108
-17 201 2 137 28 342 127 342 165 0 31 -50 24 -168 -25 -167 -69 -291 -95
-361 -76 -48 13 -53 27 -13 36 42 10 137 71 171 109 104 119 22 250 -123 195z
m99 -80 c14 -22 -58 -111 -112 -139 -30 -15 -73 -14 -79 3 -13 33 47 111 106
138 23 10 78 9 85 -2z"/>
<path d="M25501 21676 c-10 -12 -6 -26 18 -75 44 -86 42 -100 -24 -146 -83
-57 -96 -98 -49 -154 30 -36 74 -43 74 -12 0 11 -4 23 -10 26 -31 19 21 105
63 105 21 0 26 -24 29 -125 3 -74 5 -80 25 -83 40 -6 48 37 29 152 -9 54 -13
103 -10 108 13 20 95 49 157 55 77 7 110 -6 102 -40 -4 -13 -1 -35 4 -51 17
-42 51 -32 71 20 32 88 64 90 75 6 8 -66 34 -153 56 -183 50 -71 136 -76 188
-10 36 45 47 71 72 171 29 116 22 200 -16 200 -21 0 -35 -33 -35 -80 0 -48
-25 -151 -46 -193 -47 -91 -119 -89 -144 4 -5 19 -14 71 -19 117 -7 65 -14 89
-32 108 -30 32 -69 31 -100 -2 -20 -21 -30 -25 -59 -19 -100 18 -161 17 -225
-6 -71 -25 -95 -18 -95 26 0 31 -42 89 -66 93 -12 2 -26 -4 -33 -12z"/>
<path d="M7545 20873 c-84 -19 -211 -82 -285 -141 -156 -125 -189 -254 -101
-394 57 -90 191 -148 342 -148 77 0 198 18 214 32 5 4 16 8 24 8 9 0 61 23
117 50 122 60 228 151 244 208 25 93 6 185 -52 248 -55 60 -126 91 -224 100
-43 4 -101 15 -127 25 -45 18 -106 23 -152 12z m390 -134 c75 -30 105 -71 105
-141 0 -71 -20 -109 -87 -165 -88 -73 -203 -129 -319 -154 -88 -20 -108 -21
-197 -11 -127 14 -201 48 -234 107 -27 47 -30 116 -8 169 18 42 105 131 173
176 42 27 52 30 97 25 33 -4 63 -1 90 9 30 11 76 14 180 12 121 -2 148 -6 200
-27z"/>
<path d="M5754 20846 c-62 -20 -177 -99 -253 -176 -95 -96 -145 -196 -145
-289 1 -150 67 -239 213 -286 41 -14 76 -16 150 -13 84 4 105 9 171 41 96 46
169 99 286 211 71 68 96 99 108 134 21 59 20 75 -3 120 -44 86 -155 158 -282
181 -37 7 -78 20 -92 29 -13 10 -35 24 -48 33 -36 25 -60 29 -105 15z m-49
-116 c4 -7 35 -8 83 -4 l77 6 47 -41 c52 -46 63 -49 78 -21 6 11 21 20 33 20
51 0 171 -86 203 -145 18 -34 18 -36 -1 -71 -26 -49 -249 -244 -279 -244 -4 0
-19 -9 -34 -19 -15 -11 -56 -30 -92 -42 -121 -40 -264 -12 -344 67 -97 98 -79
235 51 371 107 112 162 150 178 123z"/>
<path d="M9278 20808 c-79 -27 -95 -38 -172 -109 -82 -77 -126 -142 -126 -187
0 -44 43 -135 82 -174 22 -22 67 -53 101 -69 53 -25 74 -29 147 -29 77 0 93 3
159 35 87 42 185 135 225 212 30 61 34 131 11 187 -21 49 -95 122 -148 146
-65 30 -170 25 -279 -12z m280 -61 c50 -25 81 -63 93 -115 12 -56 -26 -130
-106 -208 -96 -92 -205 -128 -319 -104 -93 19 -174 97 -176 169 -1 60 119 193
185 205 18 4 52 21 76 38 24 17 57 35 74 39 44 11 124 0 173 -24z"/>
<path d="M2580 20795 c-45 -20 -110 -84 -110 -107 0 -28 28 -21 77 20 46 37
47 37 133 36 76 0 93 -4 150 -33 113 -57 180 -135 180 -210 0 -58 -22 -98 -83
-149 -94 -81 -233 -129 -344 -119 -87 8 -146 36 -177 84 -23 35 -25 44 -17 86
4 25 16 58 25 71 17 26 128 103 209 143 48 25 63 53 27 53 -33 0 -144 -59
-205 -109 -138 -114 -160 -211 -67 -301 85 -82 247 -114 368 -73 68 23 171 78
219 118 53 43 106 133 111 187 9 92 -76 198 -218 273 -65 35 -82 39 -158 42
-62 3 -95 -1 -120 -12z"/>
<path d="M10995 20801 c-76 -11 -154 -52 -223 -116 -87 -80 -107 -121 -106
-215 1 -117 56 -205 154 -249 25 -11 66 -15 145 -15 96 1 122 5 204 33 285 96
383 245 253 383 -14 16 -51 37 -81 49 -30 11 -74 38 -97 59 -23 21 -55 45 -71
54 -38 19 -113 26 -178 17z m183 -77 c30 -20 28 -40 -7 -58 -31 -16 -47 -44
-33 -58 5 -5 36 -2 70 6 87 20 149 4 191 -50 48 -61 5 -133 -118 -198 -223
-117 -455 -123 -532 -15 -49 69 -22 207 56 282 97 94 293 142 373 91z"/>
<path d="M2621 19907 c-20 -25 -40 -84 -51 -153 -14 -82 -13 -394 0 -445 11
-39 34 -57 47 -36 4 7 8 116 8 242 1 212 3 235 23 287 25 65 27 89 10 106 -15
15 -23 15 -37 -1z"/>
<path d="M9175 19799 c-185 -75 -355 -323 -355 -517 0 -117 54 -208 147 -247
54 -23 175 -20 251 5 142 47 307 182 362 295 34 71 40 204 12 268 -23 53 -84
101 -138 112 -22 4 -46 18 -61 36 -33 38 -93 69 -135 68 -18 0 -55 -9 -83 -20z
m131 -65 c39 -19 43 -36 12 -56 -29 -20 -18 -53 15 -44 12 4 49 10 82 13 79 7
108 -14 124 -88 17 -78 -1 -161 -50 -234 -112 -166 -380 -278 -520 -217 -66
29 -84 70 -76 177 7 104 35 176 102 267 61 84 132 143 207 175 64 27 62 27
104 7z"/>
<path d="M11025 19746 c-8 -13 -22 -59 -30 -102 -8 -43 -21 -113 -30 -154 -19
-90 -30 -349 -17 -369 6 -8 17 -11 26 -8 12 5 16 20 16 59 1 115 50 389 89
494 20 52 20 58 6 80 -20 30 -40 30 -60 0z"/>
<path d="M895 19726 c-45 -9 -84 -28 -155 -75 -52 -35 -126 -84 -165 -110 -38
-25 -74 -51 -80 -57 -5 -6 -27 -21 -48 -34 -21 -12 -60 -49 -87 -81 -87 -104
-108 -223 -59 -333 20 -46 98 -126 144 -149 83 -40 248 -54 360 -29 80 18 145
47 230 103 105 70 138 110 207 252 17 35 27 160 17 215 -26 138 -71 195 -220
280 -62 35 -59 35 -144 18z m150 -103 c95 -44 145 -133 152 -273 7 -119 -15
-174 -105 -266 -107 -110 -241 -165 -410 -167 -151 -2 -262 52 -322 155 -53
93 -31 188 62 274 98 90 389 292 444 307 37 11 124 -3 179 -30z"/>
<path d="M7700 19703 c-105 -18 -222 -73 -322 -149 -93 -72 -122 -113 -148
-210 -54 -206 12 -346 192 -403 94 -30 279 -7 392 50 120 59 285 221 306 298
13 49 4 130 -20 186 -61 139 -261 254 -400 228z m190 -100 c138 -69 205 -215
149 -324 -11 -23 -39 -61 -62 -86 -52 -57 -191 -148 -261 -173 -120 -41 -298
-34 -362 15 -51 39 -66 68 -71 139 -11 132 75 306 152 306 38 0 55 16 55 50 0
33 26 49 125 76 116 32 206 31 275 -3z"/>
<path d="M5740 19684 c-84 -23 -161 -62 -205 -105 -22 -21 -60 -58 -84 -81
-57 -54 -89 -125 -97 -215 -12 -126 38 -234 134 -291 42 -24 56 -27 137 -27
78 1 100 5 163 32 94 41 217 129 284 206 137 158 164 208 153 290 -13 88 -88
149 -232 186 -95 24 -175 26 -253 5z m228 -81 c137 -31 227 -108 199 -172 -35
-81 -161 -218 -267 -292 -117 -80 -220 -110 -325 -95 -65 10 -137 79 -158 153
-38 128 53 293 162 293 47 0 71 24 71 71 0 37 0 38 53 48 113 22 141 22 265
-6z"/>
<path d="M18285 19150 c-119 -25 -216 -80 -307 -172 -128 -130 -198 -324 -258
-718 -23 -146 -46 -449 -37 -473 4 -11 18 -17 36 -17 38 0 39 2 45 190 4 151
20 279 61 490 56 286 108 405 227 515 81 75 162 115 266 130 130 19 201 -1
265 -76 49 -56 68 -100 78 -178 17 -139 -36 -245 -181 -356 -121 -93 -257
-144 -413 -155 -82 -6 -112 -12 -127 -25 -23 -20 -26 -40 -8 -51 19 -12 124
-6 190 12 64 16 119 14 243 -8 113 -20 263 -92 279 -133 27 -71 -25 -189 -127
-289 -115 -113 -245 -169 -433 -187 -129 -12 -199 -1 -267 41 -59 37 -77 38
-77 6 0 -32 46 -67 120 -92 86 -30 265 -25 394 10 141 38 225 85 321 181 106
105 140 172 140 272 0 69 -2 74 -35 108 -47 49 -130 90 -242 119 -51 13 -93
28 -93 32 0 5 43 31 95 59 126 66 235 172 268 260 75 194 -1 414 -167 488 -51
22 -189 32 -256 17z"/>
<path d="M21390 18994 c-122 -33 -256 -147 -320 -274 -63 -125 -123 -368 -136
-551 -4 -66 -1 -128 11 -210 l17 -117 -26 -56 c-29 -63 -31 -75 -15 -109 32
-69 172 -82 354 -33 235 65 390 178 430 313 13 45 13 57 1 93 -37 109 -164
218 -346 297 -41 18 -76 38 -78 46 -2 8 27 26 75 47 364 156 476 275 402 427
-28 58 -81 100 -158 123 -74 23 -135 24 -211 4z m206 -60 c41 -20 91 -75 100
-110 10 -41 -13 -98 -58 -144 -31 -31 -97 -69 -254 -146 -117 -58 -218 -112
-225 -120 -18 -22 11 -48 89 -79 167 -66 313 -164 363 -243 34 -54 36 -81 9
-137 -59 -121 -225 -216 -467 -265 -118 -25 -136 -25 -157 -1 -23 25 -10 71
24 88 13 6 32 27 42 47 20 40 56 67 124 97 64 27 98 58 83 76 -17 20 -35 16
-103 -22 -74 -41 -118 -45 -140 -13 -33 47 -12 340 39 533 59 229 164 370 321
434 62 25 163 27 210 5z"/>
<path d="M2580 18943 c-100 -18 -217 -68 -270 -117 -46 -42 -50 -69 -15 -92
30 -20 50 -8 58 34 5 27 57 59 142 90 93 33 232 42 290 18 29 -12 35 -20 35
-45 0 -38 -33 -78 -226 -269 -85 -85 -154 -160 -154 -167 0 -19 27 -44 57 -51
49 -13 523 96 579 133 28 18 32 53 7 53 -20 -1 -79 -13 -133 -28 -19 -6 -69
-20 -110 -31 -114 -32 -207 -51 -251 -51 -61 0 -51 27 43 111 198 177 258 251
258 317 0 36 -42 76 -98 92 -36 10 -162 12 -212 3z"/>
<path d="M5917 18734 c-3 -4 -50 -8 -103 -10 -127 -4 -191 -34 -287 -133 -109
-112 -160 -254 -158 -433 3 -184 69 -270 205 -271 115 0 239 68 389 212 159
153 237 270 245 368 10 131 -72 231 -216 262 -61 13 -67 13 -75 5z m108 -95
c83 -39 133 -112 125 -184 -9 -78 -204 -307 -345 -403 -216 -147 -364 -113
-382 88 -8 82 12 168 62 275 58 126 135 202 135 135 0 -35 20 -32 68 11 105
93 238 124 337 78z"/>
<path d="M7559 18662 c-56 -37 -141 -127 -167 -178 -27 -53 -50 -136 -58 -210
-14 -134 52 -243 171 -280 49 -16 65 -16 126 -6 222 38 509 295 509 457 0 32
-27 62 -68 76 -20 6 -41 15 -47 19 -5 4 -46 20 -90 35 -72 25 -89 27 -170 21
-49 -3 -103 -9 -119 -12 l-30 -7 22 28 c27 34 27 47 4 68 -25 23 -31 22 -83
-11z m35 -133 c15 -18 23 -20 54 -12 20 4 84 8 142 8 93 0 114 -3 178 -29 94
-38 109 -54 94 -104 -32 -104 -252 -285 -398 -328 -166 -48 -254 3 -254 148 0
125 33 228 95 297 42 46 62 51 89 20z"/>
<path d="M9073 18664 c-8 -21 4 -190 22 -294 8 -47 17 -103 21 -125 8 -47 30
-95 45 -95 21 0 22 40 5 195 -9 88 -16 190 -15 227 3 54 -1 71 -16 87 -22 25
-53 27 -62 5z"/>
<path d="M10985 18636 c-16 -7 -52 -16 -78 -19 -102 -14 -192 -74 -228 -152
-24 -52 -26 -163 -3 -208 43 -84 97 -112 219 -111 236 3 412 128 391 280 -7
55 -39 130 -69 163 -50 54 -162 77 -232 47z m117 -56 c109 -31 166 -164 102
-239 -76 -90 -303 -150 -405 -107 -81 34 -105 99 -69 185 28 63 51 81 95 74
25 -4 41 0 61 16 33 26 46 26 69 1 33 -37 58 -20 48 33 -4 21 -1 29 18 36 31
13 37 13 81 1z"/>
<path d="M20270 18615 c-8 -10 -10 -42 -5 -114 6 -74 4 -105 -5 -116 -7 -8
-64 -31 -129 -51 -180 -56 -215 -79 -191 -123 18 -35 64 -26 185 36 124 62
145 64 145 10 0 -69 -32 -314 -51 -389 -26 -104 -25 -118 7 -118 19 0 28 8 38
33 26 62 57 243 67 392 6 88 15 155 22 162 7 6 71 28 142 48 127 36 165 55
165 81 0 32 -74 22 -215 -29 -78 -28 -109 -23 -101 16 11 51 16 133 9 143 -9
13 -47 34 -61 34 -5 0 -15 -7 -22 -15z"/>
<path d="M21895 18110 c-4 -6 -24 -18 -46 -27 -38 -15 -65 -44 -52 -57 3 -3
21 -6 40 -6 42 0 42 -6 -1 -116 -74 -193 -52 -284 81 -334 140 -52 415 14 507
121 86 101 43 207 -132 328 -60 42 -151 71 -264 86 -133 18 -125 18 -133 5z
m228 -91 c174 -58 278 -151 263 -234 -18 -94 -212 -174 -396 -163 -144 8 -157
85 -55 320 36 82 56 108 83 108 8 0 55 -14 105 -31z"/>
<path d="M19092 17978 c-9 -9 -12 -70 -12 -211 0 -212 -16 -333 -61 -453 -22
-59 -16 -84 21 -84 58 0 106 185 120 464 6 99 13 199 16 222 5 31 2 44 -11 57
-19 20 -56 22 -73 5z"/>
<path d="M2648 17855 c-123 -20 -219 -72 -204 -110 10 -27 33 -27 73 -2 51 32
135 56 225 63 60 5 76 4 87 -9 11 -14 10 -21 -8 -45 -17 -25 -82 -86 -116
-110 -52 -37 -95 -76 -95 -86 0 -33 39 -47 166 -62 286 -33 396 -57 418 -93
11 -17 -12 -49 -52 -74 -72 -45 -297 -127 -465 -171 -144 -38 -166 -49 -146
-72 16 -20 48 -17 158 12 303 80 481 159 559 248 38 43 40 65 9 94 -59 55
-189 93 -384 112 -116 12 -156 23 -151 45 2 8 37 43 79 77 130 108 153 149 97
179 -32 17 -156 19 -250 4z"/>
<path d="M7752 17846 c-78 -26 -115 -56 -194 -159 -116 -152 -162 -339 -124
-512 7 -33 18 -70 24 -81 18 -34 77 -81 118 -94 52 -18 152 -6 216 24 131 62
275 241 313 386 39 152 -14 345 -115 415 -35 24 -52 29 -118 32 -47 2 -93 -3
-120 -11z m225 -84 c37 -26 60 -89 70 -188 7 -77 -9 -149 -53 -234 -89 -171
-233 -282 -367 -282 -98 0 -120 32 -133 184 -13 151 45 318 139 404 35 32 57
60 57 73 0 64 212 96 287 43z"/>
<path d="M11010 17805 c-10 -12 -11 -82 -6 -318 4 -166 8 -342 9 -392 2 -70 5
-90 16 -90 27 0 33 59 36 341 1 155 6 317 10 361 6 67 4 82 -10 96 -20 21 -39
22 -55 2z"/>
<path d="M5789 17762 c-80 -41 -109 -50 -165 -54 -119 -9 -204 -75 -269 -207
-43 -88 -67 -200 -59 -279 19 -186 64 -285 154 -340 52 -32 58 -33 125 -28 56
5 89 16 163 52 80 40 103 58 177 137 91 98 200 252 238 338 47 107 52 125 52
201 0 69 -3 80 -30 120 -43 61 -127 101 -220 106 -67 3 -74 2 -166 -46z m250
-47 c17 -8 48 -32 71 -54 33 -31 40 -45 40 -75 0 -40 -18 -125 -30 -141 -5 -5
-25 -41 -45 -80 -79 -148 -197 -296 -284 -354 -162 -110 -260 -124 -339 -49
-114 110 -125 382 -23 544 41 65 117 124 160 124 13 0 35 -10 47 -21 22 -21
24 -21 59 -5 19 10 46 34 60 56 23 37 51 51 140 74 33 8 112 -2 144 -19z"/>
<path d="M9136 17758 c-24 -34 -22 -228 3 -331 25 -100 56 -149 75 -119 3 5
-2 46 -10 93 -16 89 -13 244 7 296 8 22 6 32 -9 52 -25 34 -47 37 -66 9z"/>
<path d="M2695 16452 c-33 -10 -71 -24 -85 -32 -16 -9 -50 -13 -93 -11 -168 5
-343 -88 -363 -194 -16 -85 23 -159 117 -225 94 -66 154 -84 284 -83 217 2
402 65 528 182 110 102 94 236 -36 318 -88 55 -248 76 -352 45z m234 -56 c103
-23 157 -76 154 -153 -3 -81 -65 -149 -189 -208 -106 -50 -243 -77 -369 -73
-90 3 -107 6 -165 36 -36 18 -76 46 -89 63 -32 41 -53 106 -46 140 14 62 136
143 226 151 l44 3 -3 -61 c-3 -48 0 -62 12 -67 11 -4 23 7 42 38 25 43 74 89
123 115 55 29 167 36 260 16z"/>
<path d="M7709 16443 c-19 -23 -17 -266 5 -448 9 -77 19 -175 22 -218 4 -60
11 -84 26 -99 18 -18 22 -18 35 -6 12 13 11 44 -7 244 -23 252 -27 403 -11
432 7 13 7 31 1 52 -17 59 -45 76 -71 43z"/>
<path d="M5865 16404 c-29 -11 -64 -13 -140 -8 -121 8 -192 -8 -305 -67 -151
-78 -198 -151 -178 -275 12 -79 50 -144 133 -230 163 -167 337 -225 541 -179
262 58 401 233 374 471 -15 137 -102 256 -213 289 -63 19 -159 18 -212 -1z
m198 -58 c62 -22 107 -64 135 -125 22 -48 26 -70 27 -151 0 -84 -3 -102 -28
-152 -70 -143 -245 -227 -450 -216 -86 5 -100 8 -178 49 -156 80 -259 210
-259 327 0 111 59 170 235 237 63 24 165 35 165 18 0 -5 -9 -22 -19 -39 -23
-38 -30 -76 -15 -81 5 -2 33 19 61 47 38 37 58 50 80 50 53 0 93 -66 93 -151
0 -43 20 -72 46 -67 16 3 19 12 19 59 0 47 -7 66 -42 125 -22 38 -39 72 -36
77 7 12 125 7 166 -7z"/>
<path d="M11040 16324 c-142 -36 -176 -51 -216 -98 -114 -132 -127 -304 -32
-411 49 -56 142 -102 225 -110 117 -13 250 33 378 129 120 90 170 194 145 304
-10 46 -21 65 -64 107 -101 101 -243 127 -436 79z m325 -72 c84 -40 120 -87
120 -157 -1 -92 -70 -178 -196 -248 -103 -56 -159 -70 -258 -65 -98 6 -146 25
-201 82 -30 32 -35 43 -38 101 -4 58 -1 73 27 130 46 93 119 147 202 148 35 1
57 -6 88 -26 22 -15 47 -27 55 -27 23 0 26 27 5 54 -31 40 -16 50 63 43 47 -4
91 -16 133 -35z"/>
<path d="M9065 16294 c-46 -24 -63 -43 -100 -109 -82 -146 -87 -312 -15 -472
49 -107 178 -143 337 -95 235 72 412 279 389 455 -14 101 -80 200 -153 228
-46 17 -115 10 -162 -16 -53 -31 -57 -31 -123 0 -61 29 -129 32 -173 9z m465
-69 c45 -23 72 -77 78 -155 4 -57 1 -76 -20 -121 -71 -154 -267 -279 -436
-279 -137 0 -173 50 -176 245 -1 94 3 119 23 168 26 66 84 132 124 142 41 11
89 -2 140 -36 53 -35 89 -35 97 -1 11 48 108 69 170 37z"/>
<path d="M11120 15464 c-11 -27 -14 -673 -4 -711 4 -14 14 -23 25 -23 11 0 21
9 23 23 3 12 7 155 10 317 2 190 8 310 16 338 11 38 10 45 -5 62 -25 28 -54
25 -65 -6z"/>
<path d="M5826 15335 c-130 -45 -207 -97 -336 -226 -188 -189 -201 -335 -44
-495 160 -164 444 -173 696 -23 289 172 413 375 348 569 -49 146 -162 209
-353 195 -151 -10 -169 -11 -208 -3 -26 4 -55 0 -103 -17z m462 -50 c62 -19
106 -54 134 -108 29 -57 22 -169 -15 -249 -58 -127 -241 -271 -437 -344 -66
-24 -89 -27 -190 -27 -142 0 -203 20 -284 94 -90 82 -113 154 -80 241 55 141
344 402 344 310 0 -33 11 -32 86 9 57 31 89 42 137 46 34 3 69 11 77 18 33 28
150 33 228 10z"/>
<path d="M2490 15315 c-19 -23 -7 -242 18 -330 11 -38 23 -90 27 -115 4 -25
15 -57 25 -70 16 -21 22 -23 37 -14 23 15 20 57 -10 174 -16 64 -22 117 -23
215 0 72 -1 136 -2 143 -3 17 -57 15 -72 -3z"/>
<path d="M7782 15224 c-5 -9 -5 -37 0 -67 5 -29 8 -148 6 -266 -3 -196 -2
-215 15 -225 27 -17 33 2 41 132 4 64 10 171 15 237 4 66 4 135 -1 152 -13 47
-58 69 -76 37z"/>
<path d="M9215 15194 c-86 -44 -119 -74 -152 -139 -91 -178 24 -446 215 -501
176 -52 420 79 512 273 26 55 27 153 1 208 -19 43 -90 114 -137 138 -39 20
-77 27 -197 38 -56 5 -118 11 -137 14 -27 4 -51 -3 -105 -31z m325 -65 c76
-12 153 -51 186 -95 77 -100 -36 -304 -214 -387 -59 -28 -78 -32 -152 -32
-128 0 -190 41 -237 155 -21 52 -23 165 -5 220 14 42 75 108 106 115 11 3 48
11 81 19 75 17 151 19 235 5z"/>
<path d="M550 15200 c-26 -26 -26 -76 4 -451 26 -320 33 -352 93 -416 57 -60
82 -34 42 42 -39 73 -49 116 -54 244 -3 69 -11 182 -17 250 -5 69 -7 170 -3
227 6 96 6 103 -13 113 -27 15 -29 14 -52 -9z"/>
<path d="M19570 14571 c-147 -40 -426 -201 -570 -328 -171 -149 -303 -338
-460 -656 -60 -123 -110 -230 -110 -239 0 -17 31 -48 48 -48 22 0 42 33 66
113 28 90 146 328 234 471 63 104 188 254 259 312 165 135 415 284 539 320
186 54 384 -72 384 -245 0 -120 -102 -321 -162 -321 -11 0 -49 18 -86 40 -86
52 -147 70 -239 70 -110 0 -163 -35 -163 -109 0 -27 8 -42 38 -70 50 -47 118
-72 217 -78 66 -4 90 -1 140 17 98 35 103 35 116 8 25 -55 -42 -169 -152 -259
-66 -54 -204 -141 -294 -187 -90 -45 -334 -143 -440 -177 -113 -36 -145 -53
-145 -75 0 -33 63 -25 210 26 403 137 607 244 773 403 118 113 152 203 108
290 l-22 42 50 56 c111 124 156 309 103 423 -69 151 -279 247 -442 201z m35
-585 c67 -17 135 -53 135 -70 0 -21 -55 -37 -147 -43 -129 -9 -209 23 -201 79
6 43 114 61 213 34z"/>
<path d="M2480 14344 c-90 -24 -175 -68 -204 -107 -23 -30 -25 -38 -15 -60 6
-14 18 -28 25 -31 19 -7 44 4 44 19 0 24 49 72 94 93 97 46 292 64 332 31 41
-34 -17 -160 -136 -293 -25 -28 -59 -68 -75 -90 -61 -78 -59 -74 -42 -99 40
-61 120 -69 350 -37 172 25 197 31 211 53 23 36 -9 38 -199 12 -175 -25 -278
-26 -283 -5 -1 9 23 46 55 84 113 133 155 192 185 254 33 69 32 100 -5 140
-46 49 -218 68 -337 36z"/>
<path d="M9370 14315 c-19 -22 -29 -134 -30 -335 -2 -323 -2 -325 19 -351 14
-17 23 -21 30 -14 7 7 13 98 16 240 5 223 9 266 36 387 10 46 10 59 0 72 -17
20 -55 21 -71 1z"/>
<path d="M11098 14285 c-4 -4 -52 -9 -106 -10 -113 -4 -155 -19 -227 -86 -58
-54 -88 -125 -89 -214 -1 -87 20 -135 78 -174 65 -44 111 -56 226 -55 89 0
117 4 179 27 175 64 271 165 271 285 0 143 -80 217 -244 229 -44 3 -84 2 -88
-2z m170 -90 c46 -19 98 -72 108 -110 16 -64 -62 -165 -167 -217 -75 -36 -207
-62 -280 -54 -110 11 -199 75 -199 143 0 46 27 115 62 157 61 75 172 99 224
51 33 -31 58 -29 62 5 6 52 8 53 80 47 37 -3 87 -13 110 -22z"/>
<path d="M7908 14269 c-23 -13 -24 -91 -3 -209 9 -47 22 -138 31 -203 8 -66
21 -134 29 -153 13 -33 39 -53 52 -41 3 3 -7 133 -21 289 -14 156 -26 286 -26
290 0 9 -30 38 -38 38 -4 0 -15 -5 -24 -11z"/>
<path d="M5790 14199 c-70 -25 -129 -55 -159 -82 -38 -35 -81 -98 -81 -119 0
-11 -16 -54 -36 -96 -31 -65 -36 -86 -36 -145 1 -56 7 -80 36 -140 63 -131
141 -186 277 -195 138 -8 249 41 423 188 178 150 221 249 163 375 -48 102
-195 204 -323 225 -94 16 -202 11 -264 -11z m362 -88 c129 -64 205 -174 179
-260 -22 -77 -232 -269 -351 -322 -102 -46 -219 -48 -299 -6 -46 25 -113 108
-131 163 -31 91 19 231 116 327 117 116 164 136 314 133 97 -1 110 -4 172 -35z"/>
<path d="M11236 13658 c-12 -35 -37 -380 -52 -697 -16 -365 -14 -396 22 -359
18 18 19 26 39 443 9 171 23 360 31 420 9 61 14 130 12 155 -2 38 -7 46 -26
48 -12 2 -24 -3 -26 -10z"/>
<path d="M9452 13327 c-12 -14 0 -599 14 -665 8 -37 36 -59 52 -39 6 8 6 75 1
187 -8 160 -2 319 17 440 4 26 1 41 -13 57 -24 28 -57 37 -71 20z"/>
<path d="M20265 13326 c-16 -11 -22 -36 -31 -127 -7 -63 -21 -184 -32 -269
-33 -254 -35 -292 -18 -315 22 -30 50 -9 54 41 5 68 52 364 77 489 31 147 31
160 3 179 -27 19 -29 19 -53 2z"/>
<path d="M2613 13303 c-49 -4 -53 -6 -53 -29 0 -33 33 -45 105 -35 32 4 94 4
139 0 172 -17 183 -36 71 -124 -79 -62 -115 -98 -115 -115 0 -21 57 -76 95
-90 17 -7 70 -23 118 -36 134 -36 187 -62 187 -89 0 -25 -66 -88 -123 -117
-107 -55 -177 -85 -296 -129 -141 -52 -161 -63 -161 -85 0 -20 57 -18 127 5
231 75 395 150 469 215 84 73 87 113 12 163 -49 33 -155 79 -208 89 -59 11
-140 45 -140 58 0 16 52 64 112 105 54 36 88 76 88 102 0 30 -53 55 -169 82
-119 28 -181 35 -258 30z"/>
<path d="M7929 13273 c-11 -12 -14 -67 -16 -237 -2 -284 19 -426 63 -426 23 0
27 25 15 93 -15 88 -15 313 0 446 10 89 10 113 -1 125 -16 21 -44 20 -61 -1z"/>
<path d="M5894 13196 c-94 -11 -107 -15 -182 -61 -118 -71 -146 -102 -148
-168 -1 -28 -11 -76 -23 -106 -22 -55 -29 -148 -15 -206 10 -42 49 -115 81
-151 43 -48 231 -144 295 -151 77 -7 146 25 86 41 -29 7 -16 20 37 36 110 35
327 181 389 263 82 107 73 253 -21 358 -116 128 -268 173 -499 145z m251 -68
c174 -44 291 -193 255 -322 -16 -58 -66 -109 -190 -197 -145 -102 -201 -124
-336 -134 -73 -5 -86 -3 -142 23 -53 24 -67 36 -102 90 -48 73 -59 118 -48
192 19 126 145 305 232 329 33 9 47 7 84 -9 61 -27 80 -26 88 8 4 15 9 31 11
35 6 9 85 1 148 -15z"/>
<path d="M3708 12160 c-21 -13 -23 -43 -5 -59 9 -7 81 -13 188 -15 96 -3 253
-10 349 -16 96 -6 380 -10 630 -10 250 1 530 -4 621 -10 118 -7 222 -8 360 0
255 14 2768 22 3109 10 237 -8 638 -20 1225 -36 110 -2 238 -7 285 -9 377 -18
2683 -41 2719 -28 23 9 21 11 -25 23 -27 7 -65 14 -84 15 -52 3 -630 14 -1060
20 -531 8 -971 15 -1140 20 -80 3 -230 7 -335 10 -104 2 -246 7 -315 10 -189
8 -420 14 -1440 40 -510 13 -2827 1 -2983 -15 -46 -5 -93 -4 -113 2 -20 5
-336 11 -737 13 -520 2 -753 7 -897 19 -107 8 -226 18 -265 21 -42 3 -77 1
-87 -5z"/>
<path d="M13883 11979 c14 -8 22 -8 30 0 8 8 3 11 -18 11 -26 -1 -28 -2 -12
-11z"/>
<path d="M1 11894 c0 -11 3 -14 6 -6 3 7 2 16 -1 19 -3 4 -6 -2 -5 -13z"/>
<path d="M7735 11903 c-16 -2 -61 -13 -100 -25 -234 -69 -395 -213 -395 -355
0 -83 74 -187 169 -237 94 -48 156 -60 306 -60 258 1 465 76 585 211 117 132
130 276 34 368 -67 63 -127 79 -309 81 -82 1 -168 6 -190 12 -41 12 -48 12
-100 5z m515 -134 c73 -31 94 -59 86 -110 -12 -78 -46 -136 -113 -199 -73 -69
-124 -97 -243 -135 -152 -47 -331 -45 -485 7 -76 25 -111 50 -146 106 -53 84
-33 153 68 236 45 38 165 106 185 106 20 0 24 -15 8 -25 -16 -10 -12 -45 6
-52 8 -3 45 6 82 20 154 60 263 78 411 71 64 -3 109 -11 141 -25z"/>
<path d="M6102 11848 c-16 -21 -32 -578 -21 -741 6 -90 19 -121 41 -99 8 8 11
55 9 149 -1 76 3 230 10 342 12 192 14 205 36 229 26 28 26 32 -12 91 -26 42
-45 51 -63 29z"/>
<path d="M2703 11835 c-211 -57 -392 -175 -453 -295 -26 -52 -37 -159 -21
-218 26 -94 135 -172 296 -213 120 -30 348 -32 475 -5 115 25 254 72 316 107
56 31 133 108 158 157 27 52 21 146 -13 218 -58 123 -190 194 -446 238 -168
29 -235 31 -312 11z m239 -70 c43 -29 53 -52 57 -137 1 -31 29 -51 51 -38 12
7 12 18 1 72 -7 35 -17 68 -23 75 -18 22 1 33 45 27 69 -11 217 -72 269 -111
68 -52 91 -105 86 -192 -3 -55 -9 -76 -33 -110 -84 -122 -328 -203 -615 -204
-119 0 -160 3 -228 22 -137 36 -211 82 -250 156 -21 40 -19 139 3 190 27 62
131 156 227 203 89 45 107 49 137 30 16 -9 27 -8 60 7 89 40 164 43 213 10z"/>
<path d="M2 11710 c0 -14 2 -19 5 -12 2 6 2 18 0 25 -3 6 -5 1 -5 -13z"/>
<path d="M9528 11709 c-119 -28 -254 -133 -327 -252 -29 -48 -40 -151 -21
-199 44 -111 204 -163 371 -119 180 47 381 183 425 287 32 76 4 158 -68 202
-42 25 -153 62 -189 62 -14 0 -40 7 -55 15 -32 16 -79 18 -136 4z m254 -94
c125 -42 157 -106 99 -197 -73 -116 -307 -238 -453 -238 -147 1 -216 114 -154
252 13 29 45 74 71 101 38 38 53 47 83 47 19 0 44 7 54 17 51 46 192 55 300
18z"/>
<path d="M11199 11656 c-152 -41 -260 -188 -260 -357 -1 -123 58 -202 169
-228 97 -24 229 25 341 126 78 70 111 133 111 213 0 85 -43 140 -150 189 -25
12 -65 32 -89 46 -49 28 -57 29 -122 11z m119 -105 c10 -6 11 -22 6 -59 -5
-43 -4 -53 10 -58 24 -9 43 11 50 56 5 32 11 40 27 40 26 0 76 -49 85 -84 20
-81 -67 -201 -190 -261 -121 -60 -227 -58 -281 6 -21 25 -25 41 -25 90 0 123
61 231 146 261 52 18 150 23 172 9z"/>
<path d="M14245 11630 c-208 -43 -313 -99 -381 -206 -86 -134 -81 -314 12
-423 87 -103 300 -181 494 -181 233 0 413 91 472 239 18 46 22 77 22 166 1
100 -2 115 -28 172 -51 111 -162 198 -301 233 -95 24 -171 24 -290 0z m282
-70 c35 -16 47 -28 67 -73 26 -59 51 -77 75 -53 12 13 12 20 2 42 -26 57 24
35 69 -31 49 -72 63 -120 64 -225 1 -114 -20 -167 -91 -230 -87 -76 -267 -121
-409 -101 -214 30 -352 96 -416 199 -33 54 -31 177 6 249 32 64 78 118 128
149 46 29 58 30 58 4 0 -27 24 -25 63 4 107 80 287 111 384 66z"/>
<path d="M2 11580 c0 -14 2 -19 5 -12 2 6 2 18 0 25 -3 6 -5 1 -5 -13z"/>
<path d="M2 11480 c0 -19 2 -27 5 -17 2 9 2 25 0 35 -3 9 -5 1 -5 -18z"/>
<path d="M3 11335 c0 -22 2 -30 4 -17 2 12 2 30 0 40 -3 9 -5 -1 -4 -23z"/>
<path d="M1 11240 c0 -42 1 -44 14 -26 8 11 15 23 15 26 0 3 -7 15 -15 26 -13
18 -14 16 -14 -26z"/>
<path d="M1 11045 l1 -50 10 38 c7 28 7 42 -1 50 -8 8 -11 -2 -10 -38z"/>
<path d="M0 10896 c0 -9 5 -16 10 -16 6 0 10 4 10 9 0 6 -4 13 -10 16 -5 3
-10 -1 -10 -9z"/>
<path d="M7954 10886 c-76 -22 -255 -108 -317 -154 -133 -99 -199 -236 -200
-417 -1 -154 40 -253 136 -324 114 -84 284 -134 457 -135 136 -1 210 16 345
79 249 116 363 287 353 529 -5 121 -31 189 -99 256 -84 82 -274 147 -390 133
-36 -4 -58 0 -92 16 -58 28 -129 34 -193 17z m436 -117 c84 -13 137 -37 190
-85 77 -70 104 -179 80 -324 -31 -183 -139 -305 -347 -389 -112 -46 -163 -54
-297 -48 -184 8 -320 54 -413 140 -55 51 -73 84 -89 165 -32 169 24 345 122
382 22 8 51 22 65 31 42 27 192 86 262 104 139 34 309 43 427 24z"/>
<path d="M0 10828 c0 -23 3 -29 9 -19 8 12 4 51 -5 51 -2 0 -4 -15 -4 -32z"/>
<path d="M0 10766 c0 -22 3 -27 11 -19 8 8 8 16 0 30 -9 16 -10 14 -11 -11z"/>
<path d="M2882 10758 c-17 -17 -15 -159 3 -354 26 -284 40 -333 82 -291 15 15
15 30 0 179 -10 90 -17 228 -17 309 0 148 -5 169 -40 169 -9 0 -21 -5 -28 -12z"/>
<path d="M6152 10708 c-15 -15 -16 -305 -2 -393 5 -33 17 -115 25 -183 20
-161 33 -219 51 -226 30 -11 30 6 5 229 -31 270 -32 290 -20 422 9 106 9 136
-1 148 -15 18 -41 20 -58 3z"/>
<path d="M0 10663 c0 -43 5 -41 13 5 4 18 2 32 -3 32 -6 0 -10 -16 -10 -37z"/>
<path d="M2 10346 c2 -201 5 -253 15 -249 13 5 17 19 13 38 -1 6 -3 94 -5 196
-1 103 -5 191 -9 197 -3 6 -2 21 3 35 10 24 6 37 -11 37 -4 0 -7 -114 -6 -254z"/>
<path d="M9510 10581 c-112 -36 -193 -122 -251 -267 -29 -71 -31 -86 -27 -165
4 -77 7 -91 32 -124 67 -87 167 -121 331 -112 170 8 358 89 460 198 59 63 75
102 75 181 0 117 -74 197 -234 255 -67 24 -342 48 -386 34z m327 -81 c67 -15
163 -77 193 -126 41 -65 26 -158 -37 -229 -54 -60 -171 -128 -278 -161 -71
-21 -221 -24 -278 -5 -112 38 -154 147 -111 292 38 129 118 223 201 234 26 4
53 8 58 10 20 7 201 -4 252 -15z"/>
<path d="M11184 10555 c-18 -27 -18 -19 10 -230 8 -60 20 -182 26 -270 6 -88
15 -187 20 -219 17 -110 66 -115 55 -6 -3 30 -10 142 -15 249 -6 107 -15 215
-21 240 -6 25 -10 88 -10 140 0 54 -4 100 -11 108 -16 20 -36 16 -54 -12z"/>
<path d="M14313 10350 c-53 -11 -100 -35 -116 -61 -6 -11 -42 -42 -78 -68
-141 -103 -229 -270 -229 -434 0 -150 54 -207 245 -264 81 -24 332 -29 451 -9
275 46 435 128 465 238 32 120 -24 273 -141 387 -158 155 -418 246 -597 211z
m212 -125 c66 -27 90 -25 100 5 8 24 20 20 116 -42 95 -60 192 -160 225 -232
31 -68 42 -154 24 -195 -33 -82 -214 -157 -448 -187 -236 -31 -480 13 -568
101 -21 21 -24 34 -24 94 0 82 39 202 88 273 123 176 319 250 487 183z"/>
<path d="M19785 10308 c-2 -7 -6 -40 -9 -73 -3 -33 -8 -80 -12 -105 -5 -35 -2
-49 9 -59 13 -10 18 -8 32 12 12 19 14 37 9 76 -4 32 -2 61 6 81 7 16 9 41 6
55 -7 26 -34 34 -41 13z"/>
<path d="M784 10259 c-72 -38 -159 -111 -179 -149 -13 -26 -13 -30 1 -45 23
-23 46 -15 58 21 6 18 32 50 58 71 90 74 215 97 263 48 16 -15 25 -36 25 -55
0 -42 -42 -141 -87 -207 -62 -89 -64 -92 -169 -233 -95 -127 -174 -244 -174
-256 0 -3 -14 -25 -31 -50 -43 -64 -38 -94 21 -111 69 -21 217 0 515 73 99 24
206 46 237 50 61 7 95 31 85 59 -10 24 -65 19 -226 -20 -80 -20 -173 -42 -206
-50 -88 -21 -243 -45 -296 -45 -25 0 -54 6 -64 14 -19 14 -17 18 44 108 36 51
90 127 120 168 195 262 277 404 287 496 12 100 -34 144 -152 144 -60 0 -80 -5
-130 -31z"/>
<path d="M6 10062 c-3 -5 -5 -49 -4 -99 0 -74 3 -90 14 -86 8 3 15 17 15 32 1
14 3 49 5 76 1 28 0 58 -2 68 -6 18 -19 23 -28 9z"/>
<path d="M18028 9949 c-144 -14 -264 -45 -368 -95 -80 -39 -109 -60 -181 -133
-69 -69 -94 -103 -127 -171 -61 -124 -69 -168 -73 -394 -4 -178 -2 -200 13
-209 13 -9 22 -7 39 8 21 19 21 24 15 180 -9 195 5 283 61 395 128 254 368
370 763 370 189 0 320 -39 328 -99 6 -39 -78 -110 -183 -155 -116 -50 -286
-108 -411 -140 -54 -14 -101 -31 -105 -38 -17 -28 13 -48 125 -83 197 -62 507
-232 514 -283 7 -50 -144 -82 -381 -81 -78 0 -178 4 -222 10 -185 22 -215 23
-215 6 0 -29 43 -46 155 -62 172 -25 412 -30 523 -12 114 19 188 57 217 111
l20 38 -38 33 c-98 85 -288 194 -446 256 -52 20 -97 41 -99 47 -2 6 16 16 40
23 358 98 537 192 569 299 11 36 10 44 -8 68 -45 61 -131 97 -267 112 -92 11
-134 11 -258 -1z"/>
<path d="M11 9826 c-11 -13 -12 -22 -2 -43 17 -38 37 -15 25 28 -8 29 -10 30
-23 15z"/>
<path d="M0 9741 c0 -5 6 -14 14 -20 16 -13 32 2 21 19 -8 12 -35 13 -35 1z"/>
<path d="M3037 9725 c-126 -35 -195 -76 -238 -142 -23 -35 -25 -81 -3 -90 26
-10 48 10 57 51 7 27 20 44 47 62 93 61 332 105 385 70 20 -13 25 -25 25 -55
0 -53 -50 -125 -200 -286 -148 -160 -178 -200 -164 -223 39 -65 267 -101 515
-82 148 11 204 26 204 55 0 22 8 22 -185 10 -213 -14 -459 24 -448 69 2 8 47
60 101 116 182 190 247 287 247 369 0 41 -25 72 -73 90 -48 19 -175 12 -270
-14z"/>
<path d="M20 9686 c0 -8 -3 -21 -6 -30 -4 -11 -1 -16 10 -16 18 0 23 45 6 55
-5 3 -10 0 -10 -9z"/>
<path d="M6306 9598 c-26 -41 -43 -231 -51 -558 -4 -170 -3 -209 9 -225 31
-42 40 -4 48 198 9 231 23 364 49 465 24 95 24 119 0 132 -29 15 -39 13 -55
-12z"/>
<path d="M20194 9576 c-127 -47 -209 -112 -279 -220 -76 -118 -100 -188 -136
-386 -26 -142 -36 -457 -17 -520 18 -58 56 -76 90 -42 21 21 22 22 5 74 -32
104 -37 182 -22 365 8 94 19 182 23 195 5 12 12 46 16 74 7 57 45 157 80 212
32 50 114 125 166 152 68 35 159 60 215 60 132 0 105 -102 -73 -274 -110 -107
-127 -133 -111 -173 13 -35 53 -78 99 -105 208 -125 350 -243 350 -293 0 -59
-114 -115 -410 -201 -144 -41 -177 -58 -159 -80 16 -19 36 -18 142 11 306 84
401 121 469 183 43 39 49 72 22 125 -43 82 -128 157 -339 299 -44 29 -87 66
-95 81 l-15 28 92 85 c139 128 211 251 184 311 -30 66 -174 85 -297 39z"/>
<path d="M13 9568 c-9 -13 -9 -178 0 -303 2 -33 0 -80 -4 -105 -4 -25 -3 -80
3 -123 7 -58 7 -85 -2 -107 -10 -23 -9 -32 5 -53 14 -22 14 -26 1 -40 -10 -10
-14 -32 -13 -71 1 -31 4 -56 7 -56 5 0 5 -266 0 -285 -6 -22 -5 -115 1 -115 9
0 5 -198 -4 -206 -3 -4 -2 -15 4 -25 5 -10 9 -87 9 -171 -1 -133 -2 -266 -2
-453 0 -51 7 -523 17 -1180 3 -198 8 -612 10 -920 6 -867 13 -1384 20 -1395 4
-6 1 -18 -6 -26 -10 -12 -10 -22 0 -51 8 -22 10 -48 5 -71 -11 -54 -12 -77 -3
-182 5 -57 4 -99 -2 -105 -10 -10 -12 -58 -2 -68 10 -11 11 -61 1 -73 -5 -7
-5 -31 0 -55 5 -24 7 -93 5 -154 -2 -60 -3 -166 -3 -235 2 -152 2 -124 -1
-305 -1 -82 1 -160 5 -172 4 -12 2 -41 -4 -63 -8 -31 -8 -45 1 -56 7 -8 9 -30
5 -56 -8 -58 -8 -145 -1 -188 7 -40 9 -80 6 -130 -1 -19 -2 -59 -2 -89 0 -29
-5 -62 -12 -73 -9 -16 -9 -22 1 -25 16 -6 16 -73 0 -73 -6 0 -4 -6 7 -13 11
-9 15 -19 10 -27 -9 -14 -9 -115 1 -413 4 -132 2 -192 -6 -202 -7 -8 -7 -15
-1 -19 6 -4 7 -39 4 -89 -3 -45 -5 -89 -4 -97 12 -141 12 -163 1 -190 -7 -16
-8 -34 -4 -42 5 -7 10 -24 11 -38 2 -24 2 -224 1 -340 -1 -30 1 -95 3 -145 l5
-90 36 -3 37 -3 -5 333 c-2 183 -6 493 -8 688 -7 516 -18 1482 -18 1505 2 177
1 311 -4 510 -4 132 -6 248 -6 258 3 40 3 57 3 162 0 190 0 370 -1 370 0 0 -3
223 -6 495 -3 272 -7 524 -9 560 -2 36 -3 83 -2 105 1 22 0 96 -1 165 -3 148
-2 126 -1 275 2 290 2 289 -6 620 -3 121 -7 393 -10 605 -2 212 -6 484 -9 605
-12 490 -19 843 -21 1075 -1 135 -3 288 -4 340 -2 52 0 107 4 121 4 15 2 29
-3 33 -10 6 -8 79 3 96 4 6 -1 20 -10 30 -9 10 -12 20 -8 23 8 5 8 102 3 565
0 42 -10 53 -27 30z"/>
<path d="M8169 9555 c-208 -33 -429 -128 -536 -230 -35 -33 -63 -68 -63 -77 0
-36 32 -27 107 33 91 73 176 116 304 157 137 44 214 55 347 50 106 -4 123 -7
177 -35 122 -63 159 -122 160 -258 0 -82 -3 -96 -32 -156 -56 -114 -176 -206
-369 -284 -181 -73 -349 -95 -470 -59 -68 19 -147 90 -161 144 -29 106 35 270
151 386 107 108 239 164 276 119 18 -21 47 -19 60 5 9 17 6 24 -16 45 -55 51
-122 41 -240 -38 -139 -92 -250 -227 -294 -358 -74 -217 83 -390 352 -389 95
0 229 33 366 89 213 87 339 187 404 318 31 64 33 74 33 173 0 89 -3 112 -23
152 -86 173 -283 252 -533 213z"/>
<path d="M19148 9518 c-8 -21 2 -38 24 -38 14 0 19 6 16 22 -3 25 -33 36 -40
16z"/>
<path d="M9711 9346 c-7 -9 -17 -52 -22 -97 -5 -44 -14 -110 -20 -147 -13 -89
-24 -463 -15 -535 8 -63 40 -112 66 -103 13 5 15 43 16 249 0 238 10 363 40
503 9 39 14 87 12 105 -3 30 -7 34 -34 37 -19 2 -36 -3 -43 -12z"/>
<path d="M11189 9124 c-107 -53 -139 -78 -139 -109 0 -12 -8 -33 -19 -46 -31
-41 -61 -136 -61 -196 0 -75 17 -125 56 -172 100 -116 310 -112 483 10 118 82
159 159 147 273 -13 126 -131 246 -242 246 -11 0 -29 9 -39 20 -30 33 -80 26
-186 -26z m290 -83 c42 -22 97 -80 112 -118 5 -13 9 -46 9 -72 0 -82 -68 -157
-200 -220 -69 -33 -82 -36 -165 -36 -81 1 -94 4 -133 29 -51 32 -88 101 -78
144 23 99 87 207 148 252 58 43 239 55 307 21z"/>
<path d="M19396 9137 c-22 -16 -18 -55 7 -71 13 -8 24 -7 45 4 32 19 39 42 17
64 -20 19 -45 21 -69 3z"/>
<path d="M14384 9055 c-81 -17 -155 -56 -190 -99 -16 -19 -47 -47 -69 -61
-103 -69 -144 -133 -145 -225 0 -224 285 -360 755 -360 167 0 300 20 410 61
174 65 181 255 16 441 -120 134 -310 222 -534 247 -120 14 -166 13 -243 -4z
m336 -61 c216 -49 399 -175 470 -326 73 -153 20 -229 -191 -272 -277 -57 -673
-10 -851 100 -85 54 -121 129 -99 207 17 57 108 144 191 185 149 72 397 70
547 -4 73 -37 107 -39 101 -7 -10 55 -181 112 -358 121 -99 5 -115 8 -80 13
61 10 191 1 270 -17z"/>
<path d="M14891 8786 c-6 -7 -12 -45 -14 -82 -2 -68 -1 -69 23 -69 24 0 25 3
28 71 2 52 -1 74 -11 83 -11 9 -17 8 -26 -3z"/>
<path d="M19360 8826 c-13 -17 -10 -58 5 -63 22 -6 35 14 29 45 -7 35 -15 39
-34 18z"/>
<path d="M18636 8804 c-4 -9 4 -35 18 -58 47 -81 71 -314 41 -412 -22 -73 -20
-94 9 -94 17 0 31 10 44 33 23 36 45 169 37 225 -2 20 -10 82 -16 137 -12 106
-19 126 -52 163 -24 26 -72 30 -81 6z"/>
<path d="M6304 8554 c-4 -14 -3 -73 0 -130 7 -97 21 -177 75 -409 11 -49 26
-121 33 -159 14 -72 29 -91 47 -57 13 23 -12 184 -50 336 -20 75 -23 117 -24
255 0 91 -4 171 -8 178 -5 6 -21 12 -37 12 -23 0 -31 -5 -36 -26z"/>
<path d="M20794 8352 c-21 -16 -67 -55 -101 -88 -48 -46 -65 -70 -76 -111 -17
-55 -11 -105 16 -147 36 -54 190 -94 316 -81 176 18 361 76 361 113 0 24 -99
119 -162 156 -57 33 -209 86 -247 86 -41 0 -44 10 -15 41 56 59 -19 84 -92 31z
m36 -92 c0 -10 35 -28 150 -75 128 -52 159 -68 191 -101 26 -26 30 -36 20 -47
-24 -30 -237 -57 -356 -46 -126 12 -175 68 -139 158 23 59 134 151 134 111z"/>
<path d="M8295 8355 c-5 -1 -55 -11 -110 -20 -74 -13 -126 -30 -201 -65 -142
-67 -264 -150 -264 -180 0 -18 40 -10 80 16 22 15 43 24 46 21 3 -3 -18 -45
-48 -94 -111 -179 -177 -358 -185 -503 -5 -86 -3 -100 20 -150 65 -145 233
-231 422 -216 236 18 505 148 660 318 107 118 152 243 142 393 -10 140 -42
232 -119 332 -52 68 -117 108 -213 133 -67 17 -197 26 -230 15z m202 -74 c184
-36 292 -195 292 -431 1 -93 -12 -148 -50 -226 -83 -169 -299 -314 -573 -384
-147 -37 -280 -18 -375 56 -152 118 -148 300 15 625 109 216 219 329 320 329
14 0 39 7 55 16 59 30 202 37 316 15z"/>
<path d="M11512 8305 c-14 -31 -16 -186 -2 -235 24 -87 41 -429 39 -764 -2
-245 0 -341 8 -343 14 -5 29 21 36 67 4 19 9 130 12 246 7 221 -6 542 -31 771
-11 104 -11 143 -2 183 9 37 9 56 0 75 -15 32 -46 32 -60 0z"/>
<path d="M3163 8151 c-127 -35 -173 -72 -137 -112 25 -27 60 -24 90 10 38 43
94 55 237 49 138 -6 208 -21 234 -50 18 -20 17 -21 -15 -48 -19 -15 -55 -36
-80 -45 -26 -10 -93 -39 -149 -65 -82 -39 -103 -53 -108 -73 -9 -36 25 -79
105 -131 36 -24 103 -68 150 -98 113 -74 220 -184 220 -228 0 -103 -122 -181
-307 -197 -83 -7 -111 -25 -78 -50 15 -11 37 -14 95 -9 161 12 295 85 344 191
33 68 33 82 -4 136 -52 79 -166 178 -320 277 -89 58 -127 93 -116 110 2 4 40
23 83 41 164 69 233 112 253 160 17 43 5 68 -48 95 -64 32 -136 46 -267 52
-89 3 -124 1 -182 -15z"/>
<path d="M9802 8098 c-7 -9 -7 -95 -1 -273 5 -143 8 -330 7 -416 -3 -167 3
-193 46 -187 19 3 21 11 27 118 13 221 11 740 -2 756 -14 17 -63 18 -77 2z"/>
<path d="M14885 8053 c-12 -31 -25 -265 -19 -353 13 -206 46 -372 75 -378 27
-5 29 21 8 134 -24 133 -25 301 -3 445 14 91 14 110 3 135 -17 34 -53 44 -64
17z"/>
<path d="M15140 6536 c-124 -35 -239 -122 -316 -239 -87 -132 -93 -200 -25
-304 97 -150 339 -249 584 -238 192 9 311 89 336 228 20 111 -16 206 -110 291
-41 37 -54 57 -69 107 -36 117 -122 170 -273 168 -45 0 -102 -6 -127 -13z
m276 -69 c38 -19 50 -34 59 -70 7 -25 5 -27 -21 -27 -16 0 -51 7 -79 16 -36
12 -91 17 -192 17 -79 1 -143 5 -143 9 0 13 48 39 107 59 71 24 220 21 269 -4z
m-155 -117 c202 -19 318 -81 379 -201 39 -76 20 -189 -42 -251 -99 -99 -366
-105 -566 -12 -91 42 -165 95 -191 138 -40 65 -17 171 60 265 28 36 38 41 98
50 36 6 84 13 106 15 22 1 42 3 45 4 3 1 53 -3 111 -8z"/>
<path d="M3225 6460 c-177 -27 -322 -87 -401 -165 -142 -141 -67 -305 173
-379 119 -37 175 -44 338 -42 127 2 165 6 245 28 152 42 240 90 290 159 61 85
49 162 -38 248 -48 48 -70 61 -137 83 -76 25 -111 33 -191 43 -19 3 -45 10
-56 16 -28 15 -151 20 -223 9z m-12 -68 c-12 -9 -34 -25 -48 -35 -37 -26 -63
-83 -46 -100 10 -10 19 -5 44 25 45 52 105 78 208 91 85 11 90 10 110 -10 24
-23 26 -53 14 -188 -6 -68 -5 -83 9 -94 33 -28 43 1 51 150 l7 141 36 -7 c44
-7 148 -56 179 -83 35 -31 63 -85 63 -122 0 -62 -40 -105 -145 -155 -112 -53
-206 -70 -385 -70 -229 0 -361 36 -446 121 -53 53 -62 89 -36 148 21 47 70 89
154 132 51 26 200 73 233 73 19 0 19 0 -2 -17z"/>
<path d="M9951 6445 c-146 -41 -295 -166 -364 -306 -64 -130 -82 -267 -50
-370 31 -99 115 -196 213 -246 51 -26 63 -28 160 -27 85 2 119 7 179 28 205
72 357 208 411 369 27 80 23 138 -14 201 -54 91 -202 155 -411 176 -86 9 -115
1 -115 -29 0 -22 26 -31 88 -31 108 0 359 -87 383 -132 21 -39 6 -157 -27
-218 -89 -165 -314 -293 -515 -293 -102 1 -157 21 -216 80 -55 55 -76 105 -81
192 -10 176 82 369 221 463 122 83 236 108 322 72 40 -17 59 -9 53 21 -10 54
-132 79 -237 50z"/>
<path d="M6692 6265 c-25 -54 -41 -200 -38 -335 5 -178 22 -415 31 -429 4 -7
14 -11 23 -9 15 3 17 32 17 298 l0 295 29 87 c25 72 28 89 17 102 -21 25 -66
20 -79 -9z"/>
<path d="M8135 6237 c-14 -24 -25 -57 -25 -74 0 -17 -7 -50 -16 -74 -31 -88
-64 -281 -64 -384 0 -117 6 -147 29 -143 12 2 17 17 18 63 7 168 63 432 103
490 4 6 15 34 25 64 32 98 -20 141 -70 58z"/>
<path d="M11610 6194 c-89 -24 -154 -60 -207 -117 -69 -72 -95 -127 -101 -209
-4 -59 -1 -75 22 -122 15 -31 44 -69 65 -85 120 -95 408 -74 610 44 85 50 185
146 206 198 44 108 -10 213 -144 279 -42 20 -62 22 -221 25 -129 1 -189 -2
-230 -13z m443 -72 c51 -27 92 -74 103 -116 10 -41 -38 -129 -96 -175 -142
-112 -284 -161 -467 -161 -149 0 -210 40 -228 147 -14 89 53 208 156 274 44
28 64 34 114 36 33 1 85 5 116 9 49 5 61 3 96 -19 24 -15 45 -38 52 -59 23
-63 37 -83 58 -86 46 -7 31 71 -28 147 -11 13 -19 28 -19 33 0 16 93 -3 143
-30z"/>
<path d="M13841 5699 c-14 -46 -6 -218 29 -654 42 -513 42 -450 27 -3035 -3
-460 -6 -552 -26 -745 -19 -188 -24 -297 -28 -742 l-5 -523 26 0 26 0 1 163
c1 405 10 803 20 927 6 74 17 203 24 285 8 98 13 370 15 790 1 352 3 678 5
725 2 47 4 423 4 835 1 817 -5 1004 -49 1490 -5 61 -14 189 -20 285 -13 244
-24 284 -49 199z"/>
<path d="M3587 5496 c-11 -12 -17 -55 -22 -183 -8 -178 -1 -576 11 -606 4 -11
15 -17 28 -15 21 3 21 4 24 399 2 331 0 398 -12 408 -11 9 -17 8 -29 -3z"/>
<path d="M10004 5295 c-187 -40 -381 -200 -476 -393 -55 -109 -58 -179 -13
-262 58 -107 175 -201 284 -226 325 -78 753 136 851 425 42 126 37 218 -18
299 -55 83 -152 131 -277 137 -33 2 -91 11 -130 19 -84 19 -139 19 -221 1z
m106 -55 c0 -5 -19 -22 -42 -37 -119 -75 -145 -93 -171 -117 -28 -26 -34 -65
-11 -73 5 -2 44 22 85 53 93 70 171 110 251 129 59 13 65 13 104 -5 50 -25 53
-25 80 1 20 18 27 20 56 10 119 -39 163 -132 133 -276 -23 -107 -56 -165 -142
-245 -125 -117 -307 -195 -485 -207 -97 -7 -191 8 -251 39 -89 45 -167 146
-167 214 0 147 164 365 340 453 112 55 220 85 220 61z"/>
<path d="M6830 5275 c-16 -19 -26 -742 -11 -765 19 -27 46 1 49 51 1 24 9 177
18 339 8 162 17 309 20 326 9 51 -45 86 -76 49z"/>
<path d="M8204 5254 c-17 -40 -18 -278 -3 -370 5 -27 20 -112 33 -189 14 -77
30 -172 36 -210 12 -78 22 -101 39 -91 17 11 13 77 -14 252 -43 276 -47 336
-34 482 9 104 9 136 -1 147 -20 25 -40 17 -56 -21z"/>
<path d="M11716 5083 c-36 -71 -47 -139 -52 -333 -2 -107 -9 -244 -14 -305 -6
-60 -10 -156 -10 -213 0 -84 3 -104 16 -109 8 -3 19 -2 24 3 12 13 40 338 49
574 8 188 11 210 35 271 29 72 31 91 16 120 -15 28 -47 24 -64 -8z"/>
<path d="M15275 5093 c-92 -6 -184 -27 -251 -58 -59 -29 -81 -46 -135 -112
-135 -163 -189 -256 -189 -328 0 -75 66 -167 147 -205 99 -47 236 -60 408 -39
273 32 446 122 513 267 113 243 -148 495 -493 475z m158 -72 c194 -50 297
-145 297 -273 -1 -113 -84 -216 -213 -262 -164 -60 -400 -87 -536 -62 -146 26
-217 78 -214 156 5 107 170 318 297 380 50 23 131 27 179 6 18 -7 49 -33 69
-56 24 -30 40 -41 52 -37 30 12 17 46 -39 101 -30 29 -55 57 -55 60 0 13 90 5
163 -13z"/>
<path d="M843 4985 c-13 -9 -23 -25 -23 -35 0 -33 30 -40 125 -29 98 12 213 1
318 -31 34 -10 97 -28 141 -39 99 -27 183 -66 197 -93 35 -66 -102 -184 -438
-377 -77 -44 -98 -75 -68 -97 20 -15 54 -22 285 -59 210 -34 305 -58 405 -106
95 -44 159 -103 176 -159 11 -37 10 -44 -20 -104 -57 -116 -237 -263 -464
-380 -162 -83 -251 -111 -349 -111 -64 0 -81 4 -107 23 -36 26 -51 22 -51 -14
0 -40 48 -81 105 -89 235 -36 774 272 915 521 34 61 48 146 32 193 -31 88
-154 178 -317 230 -118 37 -162 47 -330 72 -77 11 -144 24 -149 29 -8 8 32 36
183 125 110 65 207 155 237 220 62 132 12 177 -291 260 -162 44 -213 53 -365
60 -107 6 -128 4 -147 -10z"/>
<path d="M18912 4416 c-90 -30 -171 -68 -231 -108 -74 -50 -218 -205 -286
-308 -115 -174 -157 -282 -159 -401 -1 -172 143 -302 417 -375 290 -78 574
-41 818 107 204 123 346 387 312 583 -43 251 -281 453 -590 502 -172 27 -201
27 -281 0z m341 -85 c188 -48 352 -171 424 -316 115 -231 -29 -534 -321 -673
-151 -73 -220 -87 -411 -87 -144 0 -170 3 -258 27 -200 56 -314 129 -357 230
-44 102 -13 253 84 408 70 112 154 217 229 283 83 74 94 81 184 108 169 53
278 57 426 20z"/>
<path d="M3705 4246 c-121 -28 -239 -96 -270 -157 -22 -42 -19 -102 6 -125 32
-29 55 -8 51 48 -2 37 2 48 25 70 116 110 461 148 585 64 102 -68 60 -139
-176 -295 -128 -84 -306 -225 -306 -241 0 -5 -3 -15 -6 -23 -10 -27 35 -55
107 -67 77 -13 591 -9 622 4 18 8 23 41 8 50 -4 3 -107 6 -227 6 -217 1 -381
13 -398 30 -14 14 47 63 202 166 224 147 282 212 282 314 0 43 -5 56 -32 86
-51 55 -126 76 -283 80 -86 2 -150 -1 -190 -10z"/>
<path d="M6884 4209 c-4 -7 -8 -109 -10 -228 -1 -119 -5 -272 -8 -341 -15
-375 -18 -459 -12 -469 12 -19 36 1 45 38 9 33 15 115 42 556 20 346 22 411
10 433 -13 24 -55 30 -67 11z"/>
<path d="M8360 3971 c-16 -40 -7 -431 15 -626 9 -77 18 -180 21 -230 3 -49 7
-100 10 -112 5 -26 29 -31 38 -7 10 26 7 155 -9 326 -20 222 -24 371 -15 508
8 121 0 162 -31 168 -10 2 -21 -8 -29 -27z"/>
<path d="M10005 3890 c-4 -6 -9 -237 -12 -513 -4 -437 -2 -505 11 -522 14 -19
16 -19 32 -3 19 19 17 -11 35 508 14 403 14 472 -2 503 -19 36 -51 49 -64 27z"/>
<path d="M15334 3820 c-71 -14 -206 -87 -283 -152 -76 -64 -153 -163 -197
-253 -60 -125 -11 -242 139 -329 78 -45 167 -61 342 -61 148 0 166 2 241 27
171 58 318 194 370 341 32 89 -32 198 -149 255 -26 13 -73 46 -103 72 -108 94
-225 127 -360 100z m201 -65 c58 -15 95 -38 83 -51 -4 -3 -62 -10 -130 -14
-131 -9 -211 -28 -250 -59 -20 -18 -21 -21 -8 -34 13 -13 25 -12 100 13 106
36 243 40 360 11 94 -23 129 -40 169 -86 41 -47 41 -89 -1 -167 -70 -132 -224
-240 -382 -268 -75 -14 -277 -8 -356 10 -241 55 -289 186 -140 385 69 91 166
173 268 224 105 53 184 62 287 36z"/>
<path d="M11653 3666 c-234 -87 -399 -339 -380 -582 10 -128 89 -232 227 -298
59 -28 74 -31 160 -31 91 1 98 2 168 39 84 45 159 121 201 205 31 62 61 179
61 238 0 45 -21 126 -43 169 -27 53 -95 112 -148 129 -67 23 -190 21 -238 -3
-77 -38 -66 -85 13 -58 54 18 144 21 199 5 53 -14 101 -60 127 -121 19 -44 22
-65 18 -133 -15 -251 -216 -434 -433 -394 -78 14 -120 37 -182 98 -63 62 -75
106 -62 217 16 129 62 225 154 322 69 73 139 115 215 127 68 11 101 50 68 83
-18 18 -55 14 -125 -12z"/>
<path d="M3837 2832 c-10 -10 -17 -28 -17 -39 0 -23 13 -30 145 -69 172 -51
305 -125 305 -168 0 -43 -71 -88 -205 -130 -179 -57 -153 -105 126 -236 158
-74 248 -131 279 -179 47 -69 37 -121 -35 -184 -139 -122 -526 -197 -708 -136
-34 11 -76 32 -94 45 -40 31 -63 31 -63 1 0 -35 57 -83 130 -108 56 -20 86
-23 215 -23 132 -1 162 2 251 26 376 99 503 308 293 479 -61 50 -167 114 -276
166 -50 24 -97 50 -103 58 -13 16 -7 20 98 60 40 15 88 41 106 59 37 34 61
103 50 139 -19 65 -149 144 -357 217 -62 22 -115 40 -118 40 -3 0 -13 -8 -22
-18z"/>
<path d="M7019 2490 c-11 -7 -14 -34 -15 -112 0 -57 -4 -157 -8 -223 -9 -123
-4 -209 34 -690 24 -292 30 -330 50 -330 13 0 15 24 12 145 -1 80 -7 213 -12
295 -19 276 -23 535 -10 615 19 119 24 244 11 268 -15 29 -43 43 -62 32z"/>
<path d="M8443 2228 c-6 -7 -13 -101 -17 -210 -6 -168 -4 -217 14 -340 61
-433 69 -479 86 -485 29 -10 26 60 -16 372 -35 262 -39 366 -20 537 7 56 7 96
0 112 -10 28 -31 34 -47 14z"/>
<path d="M11687 2183 c-12 -21 -17 -179 -8 -254 15 -124 23 -215 60 -737 4
-64 13 -118 20 -125 22 -22 32 14 27 103 -3 47 -8 162 -11 255 -4 94 -13 253
-21 355 -9 105 -13 222 -10 270 5 61 3 92 -6 110 -14 25 -42 38 -51 23z"/>
<path d="M10110 2115 c-7 -9 -11 -34 -9 -63 6 -84 -7 -920 -17 -1058 -3 -45 0
-65 10 -73 39 -33 62 118 71 484 3 105 10 276 16 380 13 241 -1 345 -46 345
-7 0 -18 -7 -25 -15z"/>
<path d="M15295 2071 c-16 -5 -66 -24 -110 -43 -44 -20 -94 -41 -112 -48 -21
-8 -35 -22 -42 -41 -6 -17 -43 -69 -84 -117 -96 -115 -128 -162 -167 -252 -37
-84 -53 -199 -39 -278 28 -155 182 -332 374 -430 149 -76 225 -96 360 -96 94
0 122 4 195 28 146 49 272 131 333 217 94 134 126 228 134 395 10 210 -41 362
-162 480 -117 115 -227 159 -445 180 -160 15 -191 15 -235 5z m180 -83 c11 -6
43 -28 71 -48 28 -21 60 -40 70 -42 31 -5 28 33 -6 71 -17 18 -29 35 -26 38
11 11 116 -20 192 -57 150 -72 228 -155 275 -290 20 -57 23 -84 23 -215 -1
-137 -3 -157 -28 -230 -51 -149 -163 -273 -289 -321 -39 -14 -88 -35 -107 -45
-91 -48 -315 -37 -416 20 -11 6 -53 26 -94 45 -93 43 -222 152 -275 231 -39
60 -75 157 -75 203 2 208 231 523 460 629 66 31 175 36 225 11z"/>
<path d="M14927 763 c-11 -11 -8 -104 5 -139 13 -36 35 -51 51 -35 15 15 -10
146 -32 165 -10 9 -21 13 -24 9z"/>
</g>
</svg>
