<?xml version="1.0" standalone="no"?>
<!DOCTYPE svg PUBLIC "-//W3C//DTD SVG 20010904//EN"
 "http://www.w3.org/TR/2001/REC-SVG-20010904/DTD/svg10.dtd">
<svg version="1.0" xmlns="http://www.w3.org/2000/svg"
 width="2448.000000pt" height="3264.000000pt" viewBox="0 0 2448.000000 3264.000000"
 preserveAspectRatio="xMidYMid meet">
<metadata>
Created by potrace 1.12, written by Peter Selinger 2001-2015
</metadata>
<g transform="translate(0.000000,3264.000000) scale(0.100000,-0.100000)"
fill="#000000" stroke="none">
<path d="M65 30040 c-3 -5 1 -10 9 -10 9 0 16 5 16 10 0 6 -4 10 -9 10 -6 0
-13 -4 -16 -10z"/>
<path d="M11775 30000 c3 -5 8 -10 11 -10 2 0 4 5 4 10 0 6 -5 10 -11 10 -5 0
-7 -4 -4 -10z"/>
<path d="M11306 29971 c-7 -11 20 -48 29 -39 9 8 -4 48 -15 48 -5 0 -11 -4
-14 -9z"/>
<path d="M7830 29850 c0 -5 5 -10 11 -10 5 0 7 5 4 10 -3 6 -8 10 -11 10 -2 0
-4 -4 -4 -10z"/>
<path d="M6944 29369 c-10 -17 13 -36 27 -22 12 12 4 33 -11 33 -5 0 -12 -5
-16 -11z"/>
<path d="M6373 29070 c4 -16 2 -42 -3 -57 -4 -15 -11 -47 -14 -70 -5 -35 -3
-43 9 -43 21 0 37 45 37 103 0 26 4 50 9 53 5 3 9 14 9 25 0 14 -7 19 -26 19
-24 0 -26 -3 -21 -30z"/>
<path d="M6160 28875 c0 -8 5 -15 10 -15 6 0 10 7 10 15 0 8 -4 15 -10 15 -5
0 -10 -7 -10 -15z"/>
<path d="M4262 28318 c-18 -18 -14 -28 8 -28 11 0 20 6 20 14 0 21 -15 27 -28
14z"/>
<path d="M4140 28264 c0 -9 5 -14 12 -12 18 6 21 28 4 28 -9 0 -16 -7 -16 -16z"/>
<path d="M12283 27150 c-24 -10 -43 -39 -43 -68 0 -14 -13 -24 -47 -37 -154
-58 -333 -239 -392 -399 -28 -75 -21 -110 35 -186 53 -73 99 -104 183 -125 81
-21 160 -13 255 27 39 16 85 34 101 40 30 11 39 16 150 79 87 49 198 158 225
221 39 91 9 202 -83 304 -91 101 -298 178 -384 144z m142 -120 c3 -5 1 -11 -5
-15 -10 -6 -59 24 -60 37 0 9 58 -11 65 -22z m83 -46 c67 -48 132 -152 132
-209 0 -82 -126 -185 -349 -283 -102 -46 -217 -55 -279 -23 -45 23 -102 98
-102 135 0 83 182 278 301 322 77 28 112 34 151 23 48 -12 78 2 78 36 0 33 22
32 68 -1z"/>
<path d="M9095 27031 c-136 -21 -297 -67 -376 -110 -30 -15 -76 -31 -104 -35
-215 -31 -602 -209 -824 -379 -88 -67 -159 -136 -231 -222 -37 -44 -88 -102
-114 -128 -56 -56 -126 -196 -151 -303 -13 -53 -16 -103 -13 -195 3 -114 6
-129 34 -190 20 -41 57 -93 97 -136 132 -140 366 -223 628 -223 59 0 100 -4
105 -11 3 -6 1 -45 -5 -87 -42 -294 -86 -672 -95 -812 -12 -183 -10 -1154 3
-1280 101 -1022 274 -1450 805 -1988 241 -246 536 -448 876 -602 315 -143 512
-216 800 -296 297 -83 532 -130 775 -154 61 -6 148 -15 195 -20 47 -5 220 -14
385 -21 334 -12 563 -4 915 32 191 20 207 23 228 46 25 27 29 65 9 82 -22 18
-76 25 -100 13 -39 -20 -462 -62 -675 -69 -371 -10 -873 22 -1197 77 -210 36
-532 119 -765 197 -422 142 -891 380 -1135 577 -262 211 -520 514 -669 784
-137 249 -205 477 -266 891 -63 428 -68 533 -56 1211 9 548 12 611 56 950 29
224 40 338 38 423 -1 74 11 113 26 88 20 -32 229 0 449 70 187 58 601 254 777
367 32 20 79 51 106 67 26 17 55 35 63 40 86 54 244 188 302 256 26 30 61 78
78 107 18 28 36 52 40 52 4 0 47 -9 96 -19 102 -22 308 -45 530 -61 125 -9
570 -45 775 -64 327 -29 727 -98 1245 -216 415 -95 471 -111 815 -235 101 -36
174 -44 200 -20 30 27 26 63 -7 71 -16 3 -48 14 -73 24 -25 10 -61 23 -80 28
-19 6 -66 22 -105 37 -104 39 -139 50 -255 84 -206 59 -801 195 -1015 231
-343 59 -530 87 -740 110 -209 22 -515 50 -720 65 -212 16 -581 68 -599 85 -4
4 4 37 18 73 56 140 56 320 1 433 -30 60 -118 162 -168 193 -156 96 -650 155
-932 112z m420 -82 c230 -20 419 -83 506 -170 63 -63 92 -136 97 -244 3 -66
-1 -109 -13 -155 -10 -36 -20 -78 -23 -93 -2 -16 -20 -44 -39 -62 -28 -28 -34
-39 -29 -60 5 -20 -3 -38 -36 -83 -84 -115 -125 -156 -243 -243 -66 -49 -140
-104 -164 -121 -24 -18 -58 -41 -75 -50 -29 -16 -45 -24 -136 -65 -19 -9 -48
-26 -65 -39 -16 -12 -42 -26 -58 -29 -15 -4 -35 -17 -45 -29 -9 -12 -28 -22
-42 -23 -15 -2 -62 -19 -105 -39 -97 -45 -383 -145 -480 -168 -38 -9 -126 -25
-195 -35 -105 -15 -126 -16 -133 -5 -14 25 -56 17 -67 -12 -8 -19 -14 -23 -23
-16 -6 5 -50 13 -97 16 -195 16 -310 44 -429 106 -99 52 -165 116 -205 200
-110 232 40 583 369 865 170 146 358 250 580 324 129 43 180 51 222 36 17 -5
28 -1 50 22 l28 29 150 -6 c176 -8 212 -17 291 -76 32 -24 65 -44 72 -44 24 0
62 48 62 80 0 36 -23 61 -87 94 -117 59 -219 70 -335 35 -39 -11 -72 -18 -74
-16 -7 7 142 68 201 83 56 14 364 10 570 -7z"/>
<path d="M8880 26520 c-14 -4 -41 -8 -61 -9 -68 -2 -150 -54 -251 -159 -181
-189 -234 -284 -225 -400 10 -124 87 -186 232 -185 95 1 188 30 305 96 89 50
256 209 290 277 29 56 37 153 19 217 -17 62 -97 147 -154 162 -45 12 -118 13
-155 1z m90 -80 c105 -29 148 -165 89 -281 -41 -82 -219 -228 -320 -263 -28
-10 -80 -16 -142 -16 -91 0 -100 2 -122 25 -34 33 -35 119 -1 190 25 53 111
170 126 170 5 0 19 -16 32 -35 46 -69 98 -40 98 55 0 82 45 134 135 156 44 10
66 10 105 -1z"/>
<path d="M16915 26740 c-3 -5 -14 -10 -24 -10 -29 0 -47 -28 -127 -201 -138
-299 -193 -454 -195 -555 -2 -98 -2 -98 29 -129 74 -74 144 -69 1020 82 57 10
84 80 40 104 -28 15 -81 9 -445 -51 -258 -43 -322 -50 -438 -50 -74 0 -135 2
-135 4 0 12 70 201 127 341 79 196 121 286 168 354 36 55 44 88 23 109 -15 15
-35 16 -43 2z"/>
<path d="M18133 26700 c-73 -10 -188 -42 -278 -75 -68 -26 -270 -123 -320
-154 -16 -10 -78 -47 -137 -82 -59 -35 -176 -106 -260 -158 -222 -136 -258
-156 -309 -179 -62 -26 -69 -40 -35 -69 33 -28 46 -29 94 -5 20 11 77 39 126
63 49 24 143 80 210 123 247 161 456 283 585 340 338 150 684 161 984 31 313
-135 470 -328 454 -559 -11 -161 -67 -274 -205 -414 -208 -209 -558 -385 -907
-453 -359 -71 -767 -77 -1008 -15 -177 45 -321 137 -383 243 -26 43 -26 45
-14 125 14 97 6 167 -26 228 -30 57 -86 120 -107 120 -9 0 -40 25 -69 55 -91
97 -322 199 -538 239 -93 18 -322 24 -412 12 -54 -7 -57 -6 -60 16 -3 22 -7
23 -83 22 -168 -1 -409 -93 -600 -229 -16 -11 -42 -27 -57 -34 -59 -30 -248
-194 -330 -287 -238 -271 -366 -545 -356 -768 2 -68 8 -93 37 -151 37 -75 110
-159 178 -207 57 -39 229 -107 300 -118 180 -30 444 -11 623 45 123 38 125 38
123 -10 -1 -22 -6 -58 -12 -80 -5 -22 -17 -155 -26 -295 -20 -327 -35 -507
-60 -697 -3 -24 0 -33 11 -33 8 0 14 -4 14 -8 0 -14 -33 -76 -44 -84 -7 -4 -6
-17 1 -41 14 -45 5 -95 -19 -108 -15 -8 -19 -18 -15 -37 3 -15 -1 -31 -9 -40
-9 -9 -11 -19 -5 -30 6 -10 4 -23 -4 -36 -7 -12 -18 -48 -25 -81 -6 -33 -15
-73 -20 -90 -34 -116 -109 -719 -125 -1005 -7 -130 -11 -150 -29 -150 -8 0
-19 -7 -26 -15 -11 -13 -10 -20 1 -41 18 -35 4 -53 -59 -77 -81 -31 -83 -28
-172 258 -66 211 -82 274 -131 500 -23 108 -31 169 -32 264 -2 148 -9 158 -74
115 -24 -15 -45 -36 -49 -46 -9 -29 15 -268 40 -391 13 -62 44 -177 68 -257
25 -80 66 -211 91 -292 24 -81 57 -168 71 -193 l27 -46 87 2 c48 0 99 -2 114
-6 45 -12 109 28 234 146 64 60 170 152 236 205 129 104 155 137 123 160 -10
8 -38 14 -62 14 -39 0 -54 -8 -151 -84 -59 -46 -123 -100 -141 -120 -19 -20
-44 -36 -54 -36 -16 0 -18 5 -14 38 3 20 19 168 36 327 41 390 46 428 146 945
62 322 91 551 120 950 9 118 20 262 25 319 6 58 10 130 10 160 0 88 6 98 58
111 120 30 469 184 617 273 196 117 358 251 447 370 32 43 58 83 58 88 0 27
42 1 93 -56 50 -55 74 -73 160 -115 56 -27 147 -62 202 -77 99 -27 103 -27
410 -27 244 0 336 3 435 17 410 59 709 167 978 353 289 201 435 437 436 704 1
83 -3 105 -28 168 -26 63 -41 84 -125 165 -124 120 -213 182 -353 245 -176 79
-280 103 -478 107 -91 2 -193 0 -227 -5z m-2098 -699 c160 -35 283 -88 408
-176 120 -83 191 -203 185 -309 -2 -42 -7 -53 -25 -61 -26 -11 -28 -29 -9 -64
12 -21 11 -29 -7 -60 -29 -50 -70 -103 -151 -194 -142 -160 -377 -316 -660
-437 -130 -56 -140 -59 -296 -115 -58 -20 -109 -41 -115 -45 -5 -4 -28 -10
-50 -12 -22 -3 -74 -12 -115 -21 -103 -23 -240 -38 -330 -37 -421 5 -667 163
-664 425 1 99 25 182 93 320 73 147 161 268 293 401 89 90 105 102 142 106 24
3 65 20 101 43 146 94 412 197 595 230 214 39 446 41 605 6z m-1513 -3776 c0
-5 -5 -11 -11 -13 -6 -2 -11 4 -11 13 0 9 5 15 11 13 6 -2 11 -8 11 -13z"/>
<path d="M15079 25474 c-1 -5 -2 -88 -3 -184 -1 -96 -7 -195 -13 -220 -7 -25
-15 -111 -19 -191 -7 -141 -6 -147 15 -168 27 -27 53 -27 77 0 16 18 19 38 20
123 1 55 9 155 18 221 16 119 20 338 7 385 -5 17 -15 26 -31 27 -14 1 -35 5
-47 9 -13 3 -23 2 -24 -2z"/>
<path d="M20060 26229 c-172 -20 -317 -122 -398 -281 -71 -139 -61 -226 34
-311 111 -100 199 -142 404 -197 213 -57 496 -51 641 14 124 55 179 125 200
254 11 63 10 80 -6 135 -10 34 -36 97 -59 140 -33 65 -51 85 -105 126 -37 26
-84 58 -107 69 -79 40 -212 50 -357 27 -23 -3 -50 0 -70 9 -44 19 -100 24
-177 15z m470 -104 c164 -43 249 -120 300 -275 23 -69 22 -160 -3 -210 -17
-33 -98 -86 -161 -104 -233 -68 -657 13 -864 164 -101 73 -91 185 26 308 56
59 126 96 153 81 27 -14 70 -11 170 11 68 15 99 18 125 11 35 -10 107 -60 135
-94 20 -25 35 -16 44 24 5 24 2 38 -14 60 -12 15 -21 31 -21 34 0 10 54 5 110
-10z"/>
<path d="M13330 26051 c-42 -6 -45 -8 -48 -39 -3 -32 -2 -33 95 -79 54 -25
163 -70 243 -100 80 -30 177 -69 215 -87 77 -36 189 -116 199 -143 14 -34 -54
-82 -269 -188 -237 -118 -420 -197 -675 -294 -96 -37 -181 -70 -187 -74 -7 -5
-13 -19 -13 -33 0 -36 40 -49 107 -36 201 41 1049 425 1123 508 26 30 30 43
30 90 0 30 -6 67 -14 82 -44 83 -191 175 -429 268 -95 37 -202 82 -239 100
-37 19 -73 33 -80 32 -7 0 -33 -4 -58 -7z"/>
<path d="M9228 25126 c-29 -15 -34 -19 -88 -65 -34 -28 -35 -31 -32 -93 1 -35
11 -101 23 -148 11 -47 24 -103 30 -125 17 -76 48 -271 69 -440 11 -93 27
-201 36 -240 8 -38 17 -83 21 -100 13 -64 66 -85 117 -44 33 26 33 53 1 155
-13 43 -33 142 -44 219 -37 257 -61 399 -97 558 -39 175 -40 200 -7 205 29 4
298 -67 321 -85 15 -12 13 -13 -18 -11 -27 2 -35 -1 -38 -15 -8 -41 187 -388
282 -501 22 -28 57 -71 76 -97 19 -27 71 -94 115 -151 163 -211 200 -261 215
-282 8 -13 38 -49 66 -82 28 -32 91 -108 139 -169 49 -60 105 -130 126 -155
21 -25 73 -85 115 -135 458 -543 1183 -1281 1719 -1750 98 -85 488 -448 645
-600 63 -61 149 -137 190 -170 157 -123 167 -140 134 -212 -19 -39 -15 -159 7
-223 36 -103 162 -245 282 -318 121 -73 349 -149 562 -187 116 -21 398 -30
494 -17 45 7 82 18 95 29 28 25 95 55 107 48 18 -12 8 -26 -31 -41 -70 -28
-163 -141 -230 -279 -98 -202 -114 -260 -115 -400 0 -118 1 -121 37 -197 66
-139 156 -209 319 -248 245 -58 656 27 954 199 204 117 352 341 329 498 -18
128 -80 222 -197 301 -122 81 -247 122 -402 131 l-100 6 3 35 c2 19 11 41 20
48 24 18 105 15 174 -9 64 -21 253 -112 278 -134 8 -7 61 -36 117 -64 56 -29
105 -57 109 -62 15 -25 100 -69 131 -69 53 0 52 24 -3 81 -35 35 -102 78 -234
151 -260 144 -364 196 -407 203 -93 16 -93 17 10 67 154 75 253 159 333 284
55 85 74 150 74 247 0 196 -92 349 -272 451 -196 111 -400 170 -629 183 -106
5 -119 4 -125 -11 -4 -9 -24 -24 -46 -33 -22 -9 -36 -19 -31 -23 4 -4 58 -12
118 -19 257 -29 454 -83 618 -169 112 -59 174 -118 218 -208 32 -65 34 -75 34
-174 0 -126 -17 -168 -103 -261 -48 -52 -340 -269 -362 -269 -5 0 -44 -15 -87
-33 -78 -34 -119 -48 -370 -126 -128 -40 -138 -42 -320 -49 -139 -6 -195 -5
-213 4 -14 6 -59 15 -100 19 -116 10 -356 61 -455 95 -50 17 -126 50 -170 72
-150 75 -223 147 -286 282 -29 63 -31 73 -27 159 3 76 9 102 32 148 58 113
164 217 301 294 182 101 533 197 662 181 26 -3 98 -8 158 -10 185 -6 388 -71
524 -167 81 -56 118 -111 130 -190 12 -76 59 -109 106 -75 26 19 25 72 -3 162
-40 131 -133 209 -324 270 -62 20 -118 43 -125 51 -18 23 -216 65 -248 53 -18
-7 -40 -6 -71 1 -29 8 -92 10 -172 6 -103 -4 -157 -13 -282 -45 -317 -80 -535
-201 -650 -359 -28 -40 -57 -73 -64 -73 -17 0 -212 165 -371 314 -130 121
-318 290 -470 421 -624 536 -1414 1328 -1875 1879 -36 42 -108 128 -160 189
-283 333 -528 650 -687 887 -112 167 -224 373 -210 386 4 4 53 -9 109 -29 115
-40 273 -81 488 -128 183 -39 244 -62 273 -101 57 -78 127 -66 127 21 0 85
-153 160 -435 212 -66 12 -138 27 -160 35 -22 7 -88 24 -147 38 -59 14 -124
32 -144 41 -20 8 -46 15 -58 15 -11 0 -45 16 -75 35 -62 40 -206 90 -301 105
-80 12 -70 13 -102 -4z m6237 -5076 c-11 -5 -27 -9 -35 -9 -13 -1 -13 0 0 9 8
5 24 9 35 9 l20 0 -20 -9z m-75 -58 c0 -10 -4 -22 -8 -27 -17 -19 -61 -162
-82 -265 -12 -58 -30 -125 -41 -149 -25 -56 -24 -67 5 -86 33 -22 75 -15 97
15 20 27 53 152 64 240 12 98 7 93 94 85 180 -16 340 -75 427 -157 66 -62 81
-94 90 -192 11 -119 -16 -174 -141 -301 -51 -51 -223 -151 -335 -193 -78 -30
-282 -80 -381 -93 -102 -14 -276 -6 -345 15 -71 22 -136 82 -175 162 -66 134
-48 290 60 509 90 181 166 268 232 263 38 -3 62 20 55 53 -5 26 -3 27 74 42
43 9 123 34 177 55 113 46 133 49 133 24z"/>
<path d="M40 24860 l-45 -7 55 -3 c30 -2 80 -4 110 -6 30 -1 61 1 70 6 10 7
-1 9 -36 10 -28 0 -64 2 -80 4 -16 2 -49 0 -74 -4z"/>
<path d="M269 24851 c12 -8 51 -4 51 5 0 2 -15 4 -32 4 -23 0 -29 -3 -19 -9z"/>
<path d="M360 24850 c20 -13 50 -13 50 0 0 6 -15 10 -32 10 -25 0 -29 -3 -18
-10z"/>
<path d="M618 24833 c7 -3 16 -2 19 1 4 3 -2 6 -13 5 -11 0 -14 -3 -6 -6z"/>
<path d="M0 24800 c0 -16 1 -30 3 -30 1 0 90 -3 197 -6 362 -10 743 -42 975
-83 194 -34 208 -35 229 -12 13 14 16 28 12 45 -10 40 -48 58 -124 61 -65 2
-168 15 -282 34 -30 5 -77 10 -104 10 -39 1 -47 -2 -42 -14 4 -12 -6 -14 -67
-10 -196 14 -372 23 -462 24 -55 0 -153 3 -217 6 l-118 5 0 -30z m950 -10 c0
-5 -7 -10 -15 -10 -8 0 -15 5 -15 10 0 6 7 10 15 10 8 0 15 -4 15 -10z"/>
<path d="M750 24826 c0 -8 61 -12 66 -4 3 4 -11 8 -30 8 -20 0 -36 -2 -36 -4z"/>
<path d="M16310 23775 c-26 -32 -30 -109 -9 -187 11 -40 23 -118 26 -173 5
-88 2 -118 -27 -255 -41 -193 -49 -243 -56 -352 -10 -137 7 -166 67 -115 21
18 27 34 32 84 4 34 18 109 32 165 93 376 103 478 65 649 -12 52 -23 103 -25
114 -3 11 -14 35 -25 53 -22 35 -58 43 -80 17z"/>
<path d="M12166 23548 c-3 -7 -7 -53 -10 -103 -6 -103 -27 -200 -126 -585 -38
-151 -70 -286 -70 -300 0 -56 45 -66 85 -18 35 42 37 48 101 285 84 317 125
509 131 614 l6 96 -33 12 c-43 15 -80 14 -84 -1z"/>
<path d="M14515 20909 c-170 -21 -352 -53 -373 -66 -19 -12 -23 -21 -20 -56 2
-33 9 -44 30 -56 24 -14 42 -12 195 12 233 38 360 50 475 45 132 -5 141 -14
99 -94 -31 -61 -38 -70 -183 -249 -72 -87 -88 -113 -88 -141 0 -43 49 -82 117
-93 62 -9 201 2 328 27 55 11 114 18 131 15 45 -7 87 18 108 66 42 92 -11 106
-244 62 -25 -5 -79 -14 -120 -20 -184 -28 -187 -26 -94 71 86 89 136 164 163
248 23 70 27 121 10 152 -6 11 -44 35 -84 54 l-74 34 -153 -1 c-84 -1 -184 -5
-223 -10z"/>
<path d="M12441 20423 c-35 -29 -21 -59 43 -87 28 -13 69 -26 91 -30 22 -4 76
-18 120 -31 44 -13 116 -31 159 -40 100 -22 380 -116 429 -145 40 -24 44 -32
24 -52 -15 -15 -245 -201 -407 -330 -58 -45 -113 -90 -123 -99 -10 -9 -57 -39
-105 -68 -114 -68 -167 -113 -159 -134 8 -22 55 -22 104 -1 133 57 231 112
323 178 58 41 125 90 150 108 25 18 90 65 145 104 118 85 142 109 185 189 44
80 38 102 -40 159 -74 55 -200 105 -520 208 -279 90 -375 106 -419 71z"/>
<path d="M10007 19453 c-12 -15 -18 -66 -27 -273 -10 -246 -18 -318 -61 -590
-11 -69 -26 -177 -34 -240 -7 -63 -17 -128 -21 -143 -8 -34 15 -63 59 -73 25
-5 34 -2 49 16 10 12 18 37 18 54 0 18 4 36 8 41 5 6 14 53 21 105 7 52 26
181 42 285 17 105 36 251 44 325 15 135 20 464 9 494 -9 23 -86 22 -107 -1z"/>
<path d="M15882 18550 c-114 -12 -139 -19 -169 -44 -15 -13 -76 -46 -134 -74
-174 -83 -279 -204 -279 -321 0 -96 88 -219 193 -270 105 -52 176 -65 332 -65
162 1 219 10 405 65 299 89 395 173 407 359 4 68 2 81 -25 141 -48 103 -135
164 -277 194 -83 17 -350 26 -453 15z m412 -131 c95 -28 174 -70 215 -112 32
-34 33 -38 27 -88 -11 -84 -52 -146 -126 -190 -39 -24 -175 -66 -295 -93 -287
-64 -512 -36 -632 80 -47 44 -53 55 -53 91 0 44 18 73 83 133 128 117 305 175
462 150 116 -18 163 -38 226 -96 60 -55 76 -62 110 -44 25 14 24 41 -1 73 -11
14 -20 30 -20 35 0 18 -52 52 -79 52 -14 0 -35 7 -45 15 -19 14 -17 15 19 15
21 0 70 -10 109 -21z"/>
<path d="M8346 17505 c-52 -20 -103 -59 -120 -94 -20 -38 -30 -120 -21 -177
19 -130 262 -266 445 -251 97 8 120 19 120 60 0 47 -15 57 -85 57 -163 1 -365
96 -365 172 0 77 57 118 174 125 71 5 84 3 106 -15 21 -18 23 -23 12 -39 -32
-47 -35 -61 -18 -88 17 -26 57 -34 84 -16 7 4 24 38 37 74 l24 65 -39 50 c-57
71 -94 86 -215 89 -69 2 -112 -2 -139 -12z"/>
<path d="M16252 17492 c-17 -12 -119 -270 -127 -324 -9 -58 -12 -62 -65 -79
-57 -18 -90 -64 -90 -125 0 -35 5 -46 27 -62 25 -18 26 -22 14 -45 -19 -35 -8
-57 28 -57 27 0 30 5 57 81 16 45 35 84 42 86 7 3 92 -6 190 -20 97 -15 224
-29 282 -33 95 -5 111 -9 170 -42 168 -92 331 -157 490 -198 129 -33 145 -32
185 12 36 39 36 60 2 69 -107 28 -160 45 -337 109 -65 23 -96 39 -99 51 -2 13
1 16 14 11 28 -10 104 15 125 42 22 27 26 80 10 147 -11 52 -90 126 -157 149
-65 23 -169 31 -220 17 -49 -13 -97 -51 -118 -92 -8 -15 -15 -55 -15 -88 0
-33 -3 -62 -7 -64 -5 -3 -33 -1 -63 4 -47 8 -354 49 -370 49 -3 0 -11 4 -19 9
-11 7 -2 29 42 107 78 140 88 167 80 222 -8 67 -32 88 -71 64z m699 -362 c92
-18 165 -84 113 -104 -9 -3 -67 -6 -129 -6 l-113 0 -31 35 c-35 40 -35 39 -21
66 9 15 22 19 69 19 32 0 82 -5 112 -10z m9 -216 c27 -9 56 -24 66 -35 16 -18
16 -19 -10 -19 -31 0 -78 20 -116 50 -21 16 -22 20 -7 20 10 0 40 -7 67 -16z"/>
<path d="M9940 17471 c-98 -30 -148 -82 -200 -209 -18 -42 -46 -89 -62 -104
-18 -17 -28 -34 -25 -45 3 -10 8 -40 12 -68 8 -61 28 -85 70 -85 42 0 49 9 75
105 32 118 69 212 97 245 13 16 47 42 74 57 58 33 64 45 44 84 -16 30 -36 35
-85 20z"/>
<path d="M12295 17436 c-15 -11 -21 -32 -26 -93 -9 -105 -14 -118 -50 -133
-34 -14 -59 -45 -59 -73 0 -11 13 -31 29 -46 l28 -27 -28 -59 c-36 -73 -35
-106 4 -119 43 -15 59 1 92 97 17 48 37 94 46 102 10 11 50 19 115 26 346 36
394 46 416 95 15 32 3 41 -69 50 -53 6 -385 1 -413 -7 -11 -3 -14 3 -13 21 2
14 3 52 3 85 0 50 -3 63 -21 78 -26 21 -30 21 -54 3z"/>
<path d="M10391 17418 c-61 -23 -148 -104 -203 -189 -76 -119 -86 -136 -106
-192 -28 -73 -28 -121 -2 -147 23 -23 62 -26 78 -7 6 6 20 41 32 77 49 149
174 313 276 363 l41 20 47 -28 c73 -43 93 -24 56 53 -35 73 -113 91 -219 50z"/>
<path d="M9006 17399 c-14 -16 -42 -59 -62 -95 -31 -55 -37 -75 -37 -127 0
-126 45 -202 136 -229 58 -17 173 -13 244 7 132 38 250 179 268 321 9 65 -25
147 -58 142 -17 -2 -24 -17 -37 -69 -22 -87 -54 -148 -104 -199 -65 -67 -166
-99 -254 -79 -96 21 -108 72 -39 165 24 33 51 65 60 73 18 14 24 61 8 61 -5 0
-13 10 -17 23 -15 48 -70 51 -108 6z"/>
<path d="M10842 17398 c-84 -28 -145 -82 -171 -154 -12 -30 -21 -63 -21 -74 0
-11 -12 -24 -27 -32 -37 -18 -40 -54 -10 -115 13 -26 27 -64 31 -83 7 -43 56
-104 99 -127 45 -23 125 -43 173 -43 23 0 72 9 109 21 55 17 77 30 117 72 73
76 133 197 97 197 -6 0 -39 -26 -74 -57 -70 -64 -145 -99 -235 -108 -69 -7
-137 12 -162 46 -28 38 -16 55 41 56 57 1 152 34 199 70 41 31 81 91 92 137 9
41 -16 144 -43 173 -20 23 -80 43 -123 43 -16 -1 -57 -10 -92 -22z m162 -124
c9 -3 16 -11 16 -18 0 -16 -45 -62 -88 -91 -40 -26 -170 -71 -179 -62 -15 15
11 84 43 113 42 41 165 74 208 58z"/>
<path d="M14834 17325 c-8 -20 -14 -67 -14 -112 0 -127 -20 -274 -63 -462 -21
-91 -21 -93 -2 -107 30 -22 53 -17 71 18 21 40 61 179 69 238 12 90 12 88 68
104 28 8 89 20 134 26 73 11 86 10 108 -4 33 -22 50 -20 93 9 38 26 68 32 74
15 4 -12 145 6 169 21 12 7 12 12 0 30 -12 20 -11 24 3 34 22 17 20 41 -6 59
-30 21 -67 20 -135 -4 -45 -16 -83 -20 -178 -20 -66 0 -149 -5 -185 -11 -110
-19 -105 -22 -106 41 -1 136 -10 160 -60 160 -19 0 -28 -8 -40 -35z"/>
<path d="M14115 17284 c-97 -20 -134 -33 -182 -65 -38 -27 -42 -34 -48 -84 -6
-48 -5 -58 11 -70 22 -17 120 -47 209 -65 318 -63 375 -91 338 -168 -26 -54
-188 -171 -281 -203 -72 -25 -108 -24 -124 1 -17 26 -43 25 -62 -2 -48 -69 12
-138 119 -138 146 0 366 136 440 271 24 45 29 64 27 117 -3 131 -63 176 -283
216 -47 9 -106 16 -131 16 -50 0 -63 7 -47 27 9 10 49 13 170 13 132 0 160 3
174 16 10 10 13 23 9 33 -4 9 -8 27 -9 41 -1 14 -3 28 -4 31 -6 30 -199 38
-326 13z"/>
<path d="M11325 17260 c-24 -47 -48 -178 -43 -238 6 -66 27 -88 92 -97 52 -8
71 0 148 66 36 32 62 47 72 43 9 -4 27 -41 42 -89 35 -111 54 -141 101 -154
21 -6 48 -11 60 -11 22 0 53 24 53 41 0 5 16 27 36 49 36 40 40 70 10 70 -9 0
-36 -10 -61 -22 -65 -32 -74 -22 -107 108 -23 90 -33 114 -58 137 -46 41 -74
36 -171 -33 -46 -33 -92 -60 -101 -60 -17 0 -17 3 1 50 18 47 21 135 6 160 -3
6 -19 10 -35 10 -23 0 -33 -7 -45 -30z"/>
<path d="M15630 17134 c-16 -37 -30 -70 -30 -75 0 -31 -201 -140 -270 -147
-47 -4 -49 -4 -74 37 -15 22 -32 41 -40 41 -25 0 -49 -40 -54 -88 -4 -47 -3
-50 34 -81 53 -43 121 -63 171 -49 66 18 134 58 184 108 45 45 49 47 63 31 9
-10 16 -32 16 -49 0 -144 84 -224 185 -176 58 27 53 74 -7 74 -37 0 -75 40
-84 88 -4 19 -3 81 1 136 14 180 7 216 -41 216 -20 0 -29 -12 -54 -66z"/>
<path d="M7388 16805 c-2 -2 -224 -4 -493 -5 -270 -1 -587 -6 -705 -11 -118
-5 -340 -13 -492 -19 -253 -9 -284 -12 -355 -35 -42 -14 -85 -32 -94 -41 -45
-41 -50 -158 -34 -884 10 -414 -9 -627 -91 -1024 -59 -288 -56 -378 12 -443
63 -59 217 -99 494 -128 362 -38 680 -81 996 -135 232 -39 462 -73 623 -91 47
-5 146 -18 220 -29 75 -11 165 -22 201 -25 36 -3 88 -10 115 -15 63 -12 219
-30 308 -36 37 -2 77 -8 87 -14 25 -14 63 -13 78 2 19 19 14 28 -18 28 -28 0
-29 1 -18 25 9 21 8 27 -5 38 -14 10 -15 19 -8 47 13 47 38 272 51 448 6 79
15 153 21 164 11 20 17 21 113 14 136 -8 650 -72 821 -102 112 -19 592 -108
700 -129 44 -9 127 -24 185 -35 58 -10 191 -35 295 -54 105 -19 222 -40 262
-46 55 -9 72 -16 76 -30 3 -13 17 -21 43 -24 22 -4 67 -11 101 -17 34 -6 147
-15 250 -19 103 -5 235 -15 293 -24 58 -9 143 -21 190 -27 266 -35 449 -73
520 -109 45 -22 57 -17 70 31 15 56 5 77 -47 100 -74 32 -123 39 -299 43 -99
3 -171 9 -177 15 -8 8 3 11 38 11 28 0 149 5 269 10 236 11 412 35 544 74 45
14 89 23 96 20 25 -9 42 -159 56 -484 10 -237 27 -462 55 -750 8 -85 19 -207
25 -270 10 -115 47 -468 76 -720 23 -208 83 -633 105 -750 24 -124 115 -457
144 -525 46 -110 55 -139 43 -146 -20 -12 -103 0 -278 42 -91 22 -185 44 -210
50 -208 45 -321 68 -355 74 -22 3 -69 13 -105 21 -36 7 -103 20 -150 28 -146
24 -313 57 -322 62 -4 3 -54 14 -111 24 -96 17 -276 56 -377 81 -25 6 -81 17
-125 25 -44 7 -116 21 -160 30 -44 8 -89 17 -100 19 -11 2 -47 8 -80 14 -72
14 -458 75 -570 91 -44 6 -116 18 -160 26 -44 8 -111 18 -150 24 -93 12 -240
36 -345 55 -134 25 -224 41 -390 69 -85 14 -186 33 -225 41 -210 47 -494 89
-785 115 -204 18 -307 30 -324 36 -9 3 -16 16 -16 28 1 21 5 40 35 171 9 39
18 88 21 110 2 22 6 60 9 85 3 25 9 86 15 135 5 50 19 153 30 230 12 77 26
167 30 200 5 33 16 94 25 135 9 41 18 93 21 115 10 80 55 328 61 338 3 6 10
27 14 46 10 51 83 394 112 526 13 61 22 116 20 123 -7 20 -90 16 -102 -5 -5
-10 -21 -90 -36 -178 -15 -88 -48 -281 -75 -430 -27 -148 -60 -342 -74 -430
-89 -547 -140 -848 -165 -980 -42 -216 -44 -238 -27 -280 28 -66 77 -78 371
-89 199 -8 430 -30 640 -61 227 -34 294 -45 370 -60 44 -9 112 -20 150 -25 39
-5 156 -22 260 -39 105 -16 253 -39 330 -51 77 -11 165 -24 195 -30 30 -5 91
-14 135 -20 71 -11 152 -24 358 -61 31 -5 61 -8 66 -5 5 3 33 -1 62 -10 29 -9
67 -17 84 -19 16 -2 55 -8 85 -14 30 -6 84 -15 120 -21 36 -5 89 -14 118 -19
28 -6 73 -15 100 -20 26 -6 70 -16 97 -24 93 -27 384 -90 585 -127 63 -11 153
-29 200 -40 47 -11 128 -29 180 -39 181 -37 276 -59 530 -124 272 -69 394 -87
455 -67 29 10 36 16 33 35 -1 12 3 30 11 39 13 16 8 79 -9 101 -4 6 -13 28
-20 50 -7 22 -33 85 -56 140 -24 55 -40 103 -35 108 8 8 77 -12 276 -82 419
-147 768 -248 1145 -331 96 -22 209 -48 250 -59 225 -60 218 -59 227 -33 4 9
15 23 25 30 23 17 23 35 1 54 -17 15 -263 80 -558 147 -271 61 -462 116 -850
242 -220 72 -425 140 -455 151 -30 12 -70 21 -88 20 -18 0 -30 3 -27 8 7 12
-11 134 -41 275 -41 197 -52 257 -59 320 -3 33 -16 130 -30 215 -31 203 -57
401 -53 405 2 2 49 -9 103 -25 248 -73 420 -96 825 -110 157 -5 367 -12 467
-16 206 -8 208 -7 181 64 l-14 37 -129 7 c-72 4 -285 15 -475 24 -190 8 -386
19 -436 24 -90 10 -270 44 -394 76 -36 10 -81 21 -101 26 l-36 8 -6 112 c-4
62 -18 221 -31 353 -33 324 -54 620 -66 920 -10 272 -22 379 -50 437 -10 21
-16 47 -13 57 3 11 -4 28 -16 40 -29 29 -79 27 -209 -8 -201 -55 -506 -89
-1032 -115 -58 -3 -162 -8 -231 -12 -86 -4 -133 -3 -147 5 -12 6 -54 16 -94
21 -232 30 -882 135 -1058 170 -120 24 -280 53 -435 79 -66 12 -196 34 -290
51 -287 51 -685 110 -781 117 -106 7 -198 -3 -218 -23 -23 -22 -47 -148 -57
-299 -5 -77 -16 -205 -24 -284 -15 -143 -15 -145 6 -167 23 -24 11 -41 -18
-26 -10 5 -36 12 -58 15 -22 3 -67 11 -100 17 -121 21 -270 40 -320 40 -28 0
-76 4 -106 10 -30 5 -81 11 -114 14 -124 10 -755 109 -775 121 -15 9 -381 73
-575 99 -523 73 -617 88 -700 112 -143 41 -185 77 -166 141 10 35 4 48 -15 32
-32 -27 -25 49 31 316 13 61 29 139 35 175 6 36 13 75 16 87 4 19 10 137 19
333 1 25 3 101 5 170 3 118 4 121 10 55 4 -38 8 -109 9 -157 0 -49 5 -88 10
-88 15 0 18 89 19 598 1 338 4 504 12 527 9 27 19 37 48 45 91 26 222 42 410
50 111 5 217 12 235 14 48 8 420 25 702 32 138 3 293 8 345 9 189 7 733 16
1105 18 513 4 642 -1 1550 -63 284 -19 567 -42 710 -56 83 -8 276 -26 430 -39
154 -14 345 -32 425 -40 80 -8 188 -19 240 -25 52 -5 178 -19 280 -31 102 -12
196 -23 210 -24 42 -3 231 -25 305 -35 163 -23 496 -60 705 -80 124 -12 304
-30 400 -40 177 -19 349 -32 675 -50 99 -6 250 -15 335 -20 85 -5 279 -12 430
-16 151 -3 278 -8 281 -10 3 -1 117 -5 255 -9 137 -3 263 -8 281 -11 55 -8
490 -14 1488 -18 528 -3 1014 -7 1080 -11 121 -6 242 -10 525 -20 85 -3 223
-10 305 -15 83 -5 200 -12 260 -15 61 -4 155 -11 210 -16 55 -5 136 -12 180
-15 44 -2 121 -9 170 -14 50 -5 149 -14 220 -20 72 -7 177 -18 235 -26 58 -8
130 -17 160 -20 65 -5 572 -60 680 -73 41 -5 167 -25 280 -45 636 -109 811
-212 890 -521 34 -133 43 -252 35 -474 -7 -217 -11 -301 -20 -366 -2 -22 -7
-112 -10 -200 -3 -88 -7 -185 -10 -215 -7 -78 -13 -184 -20 -340 -8 -178 -33
-568 -45 -700 -20 -227 -25 -334 -25 -550 0 -224 7 -282 41 -373 22 -59 19
-103 -8 -111 -13 -3 -151 -11 -307 -18 -394 -16 -655 -2 -1126 62 -269 36
-381 40 -435 12 -50 -25 -49 -46 4 -83 l45 -32 -1 -71 c0 -61 10 -152 25 -221
3 -11 8 -40 11 -65 11 -70 58 -274 67 -285 4 -5 10 -28 14 -50 11 -68 100
-301 170 -450 24 -49 50 -108 59 -129 9 -22 38 -78 65 -125 27 -47 51 -102 53
-121 l3 -35 -70 1 c-87 1 -243 22 -540 74 -126 23 -275 47 -331 55 -55 7 -138
21 -185 30 -46 10 -104 19 -128 22 -24 2 -132 17 -240 34 -108 16 -250 36
-316 44 -66 8 -151 19 -190 25 -133 19 -330 40 -400 42 -98 3 -123 -15 -62
-45 32 -16 125 -29 332 -47 61 -5 157 -16 215 -25 58 -8 125 -15 150 -15 25 0
61 -5 80 -10 20 -5 76 -14 125 -20 165 -19 403 -55 555 -86 492 -97 848 -161
935 -165 28 -2 76 0 108 5 66 10 83 28 63 67 -7 13 -29 67 -51 119 -21 52 -63
145 -92 205 -30 61 -62 126 -70 145 -9 19 -20 44 -26 54 -5 11 -17 42 -27 70
-10 28 -33 87 -50 131 -30 79 -48 138 -90 305 -12 47 -26 100 -32 119 -6 18
-14 61 -19 95 -16 121 -29 183 -54 255 -13 40 -22 78 -19 83 8 13 74 7 289
-26 221 -33 422 -53 670 -66 313 -17 724 3 850 41 39 12 76 23 83 25 16 4 15
45 -2 91 -34 88 -50 243 -51 473 0 209 12 557 20 570 2 3 6 59 10 125 3 66 8
136 10 155 2 19 6 98 9 175 12 258 27 540 46 850 32 508 35 785 10 870 -4 17
-11 48 -15 70 -16 98 -103 267 -182 355 -158 176 -500 268 -1253 335 -371 34
-502 46 -635 60 -591 63 -1152 102 -1780 124 -148 5 -277 10 -285 10 -8 1
-348 3 -755 6 -1056 8 -1696 15 -1800 20 -49 3 -227 9 -395 15 -168 6 -359 13
-425 16 -66 2 -174 7 -240 9 -204 8 -534 25 -665 35 -69 5 -172 12 -230 15
-58 2 -150 9 -205 14 -55 6 -158 15 -230 21 -167 14 -842 88 -875 96 -14 3
-68 10 -120 14 -52 5 -129 14 -170 19 -41 6 -158 20 -260 31 -102 11 -207 25
-235 30 -47 9 -133 19 -340 40 -238 24 -307 30 -395 35 -52 4 -124 8 -160 10
-36 3 -96 9 -135 15 -38 6 -104 12 -145 15 -41 3 -151 12 -245 20 -163 15
-473 37 -955 70 -426 28 -694 35 -1325 35 -348 -1 -634 -3 -637 -5z m-2108
-476 c0 -5 -4 -9 -10 -9 -5 0 -10 7 -10 16 0 8 5 12 10 9 6 -3 10 -10 10 -16z
m-1 -122 c1 -16 -3 -26 -9 -22 -5 3 -9 34 -9 68 1 59 2 60 10 22 4 -22 8 -53
8 -68z m8 -389 c-2 -13 -4 -5 -4 17 -1 22 1 32 4 23 2 -10 2 -28 0 -40z m3279
-1123 c98 -14 233 -32 299 -40 169 -22 188 -26 182 -32 -6 -5 -107 5 -257 27
-249 35 -373 50 -425 51 -57 2 -58 2 -20 9 22 4 40 8 41 9 1 0 82 -10 180 -24z
m2234 -385 c17 -6 9 -7 -25 -3 -27 3 -52 7 -54 9 -8 7 54 2 79 -6z m1280 -19
c0 -4 -35 -11 -77 -15 -133 -13 -526 -25 -578 -18 l-50 6 35 8 c19 5 116 11
215 15 99 3 182 7 184 9 9 8 271 4 271 -5z m-955 -42 c6 -1 -26 -5 -70 -9 -83
-6 -124 -2 -92 9 17 6 141 6 162 0z m527 -63 c18 -8 72 -19 120 -25 48 -6 98
-16 110 -21 20 -9 18 -10 -12 -6 -75 9 -307 47 -340 55 -32 8 -29 9 27 10 34
1 77 -5 95 -13z m308 -66 c13 -9 13 -10 0 -9 -8 0 -24 4 -35 9 l-20 9 20 0
c11 0 27 -4 35 -9z"/>
<path d="M5298 15429 c-7 -20 4 -89 13 -83 12 7 12 81 0 88 -5 4 -11 1 -13 -5z"/>
<path d="M17141 15056 c-5 -6 -4 -44 1 -86 5 -41 8 -101 6 -134 l-3 -60 -80 0
c-73 -1 -80 -3 -80 -21 0 -28 60 -65 106 -65 50 0 51 -16 6 -103 -56 -106 -56
-157 -2 -157 31 0 50 33 89 153 l33 102 89 5 c49 3 97 2 106 -2 15 -7 16 -12
4 -46 -7 -20 -17 -57 -21 -81 -7 -40 -5 -45 26 -77 18 -19 43 -34 55 -34 84 0
183 101 183 185 0 79 -48 134 -137 155 -46 11 -59 10 -99 -5 -45 -17 -145 -17
-174 0 -8 6 -10 36 -5 114 7 98 6 109 -13 133 -22 27 -76 42 -90 24z m423
-382 c20 -19 20 -24 0 -52 -10 -14 -25 -22 -45 -22 -34 0 -35 6 -12 55 18 38
33 43 57 19z"/>
<path d="M5252 14930 c0 -27 4 -47 9 -44 12 7 12 94 0 94 -6 0 -10 -22 -9 -50z"/>
<path d="M16530 14942 c-116 -45 -180 -80 -192 -108 -10 -22 -8 -29 27 -64 21
-21 59 -48 84 -59 57 -24 245 -58 373 -67 53 -4 102 -10 109 -15 21 -12 -37
-78 -107 -120 -104 -63 -138 -73 -253 -73 -115 -1 -129 -9 -85 -49 83 -77 262
-56 421 49 97 65 143 174 94 223 -27 27 -140 58 -281 75 -121 15 -226 37 -258
55 -13 7 -11 11 10 25 61 40 141 60 238 61 l95 0 3 27 c5 40 -32 59 -125 64
-68 4 -88 1 -153 -24z"/>
<path d="M5235 14808 c-7 -22 -35 -170 -34 -182 1 -26 22 45 33 117 11 70 12
97 1 65z"/>
<path d="M17881 14773 c-78 -39 -124 -165 -85 -233 21 -34 57 -49 78 -31 7 6
16 32 19 57 10 91 79 136 150 98 19 -10 67 -36 106 -57 39 -20 93 -42 121 -48
36 -8 55 -18 68 -37 9 -14 40 -49 67 -77 41 -41 65 -55 131 -78 88 -30 138
-37 156 -19 19 19 -9 40 -116 91 -56 27 -112 57 -125 68 -29 24 -23 53 12 53
32 0 77 43 77 73 0 36 -41 71 -109 91 -74 22 -110 10 -126 -41 -6 -24 -15 -33
-30 -33 -29 1 -100 35 -156 75 -30 21 -73 40 -114 50 -81 18 -82 18 -124 -2z"/>
<path d="M19556 14742 c-3 -10 -10 -50 -15 -90 -5 -40 -15 -79 -21 -87 -6 -8
-9 -24 -5 -35 8 -27 -26 -80 -68 -103 -26 -16 -32 -16 -46 -3 -18 17 -54 25
-225 56 -142 25 -196 49 -196 85 0 30 50 65 91 65 84 0 118 49 54 76 -73 30
-156 13 -217 -44 -65 -61 -5 -177 119 -232 54 -24 193 -50 263 -50 91 0 102
-16 37 -55 -57 -33 -112 -33 -176 0 -83 44 -110 7 -43 -59 52 -53 89 -70 147
-69 93 1 209 74 265 167 19 32 42 61 50 64 8 4 83 5 165 2 148 -5 150 -5 153
-29 2 -13 -7 -42 -19 -66 -20 -37 -21 -47 -11 -70 7 -15 28 -33 49 -42 35 -14
40 -14 88 6 66 27 75 27 120 -9 37 -29 67 -36 99 -24 27 11 18 43 -18 65 -44
26 -47 36 -31 100 14 51 7 89 -15 89 -5 0 -23 13 -40 29 -41 37 -89 51 -137
41 -20 -5 -40 -7 -43 -5 -3 2 -71 9 -150 15 -84 6 -150 16 -157 23 -9 9 -5 30
19 90 30 75 30 78 13 97 -24 27 -91 28 -99 2z m508 -352 c28 -10 35 -40 13
-58 -18 -16 -83 -3 -103 19 -34 38 26 64 90 39z"/>
<path d="M20527 14673 c-3 -5 -24 -84 -47 -178 -23 -93 -47 -179 -53 -190 -29
-52 -36 -87 -24 -124 15 -45 44 -51 102 -22 23 12 79 25 130 31 155 17 146 20
233 -67 120 -121 342 -243 342 -189 0 15 -98 97 -205 171 -111 77 -175 145
-135 145 6 0 28 18 50 40 63 63 50 123 -43 185 -59 40 -113 47 -140 17 -21
-23 -22 -97 -2 -132 27 -48 23 -50 -92 -50 -60 0 -114 4 -121 8 -9 6 -2 35 31
118 24 60 51 123 60 141 10 18 17 39 17 48 0 28 -90 70 -103 48z m356 -283 c4
-4 0 -17 -10 -29 -15 -18 -24 -20 -51 -15 -40 8 -53 32 -27 50 17 13 71 9 88
-6z"/>
<path d="M9289 14253 c-20 -3 -32 -18 -56 -67 -30 -60 -98 -148 -208 -266 -71
-77 -167 -235 -172 -285 -6 -50 20 -86 86 -120 61 -31 361 -113 621 -170 113
-25 280 -64 371 -87 135 -35 172 -41 195 -33 71 25 10 91 -106 115 -30 6 -77
17 -105 24 -27 8 -95 24 -150 36 -128 29 -377 96 -575 153 -174 51 -206 62
-214 75 -13 21 98 180 215 307 114 123 189 236 189 283 0 37 -22 46 -91 35z"/>
<path d="M16243 14101 c-68 -11 -135 -49 -144 -81 -12 -42 -9 -149 6 -280 16
-125 32 -319 40 -460 10 -177 23 -360 30 -440 2 -19 9 -105 15 -190 6 -85 14
-175 20 -200 28 -139 23 -150 -52 -127 -67 21 -224 43 -342 48 -232 10 -1277
0 -1292 -12 -9 -7 -9 -19 1 -52 l12 -42 689 0 c507 0 709 -3 764 -13 41 -7
108 -17 147 -23 40 -7 78 -18 84 -25 6 -8 13 -66 15 -136 12 -441 41 -884 65
-997 8 -38 17 -55 30 -58 23 -6 24 -11 2 -35 -16 -18 -16 -21 2 -56 14 -25 29
-39 50 -43 37 -9 341 -41 555 -59 63 -5 167 -14 231 -20 64 -5 158 -12 210
-15 52 -3 126 -8 164 -11 39 -3 130 -7 203 -9 73 -2 141 -7 151 -10 25 -8 39
-45 51 -138 11 -90 53 -283 82 -375 71 -231 173 -711 203 -952 17 -141 55
-309 79 -353 14 -25 26 -50 26 -55 0 -15 -48 -32 -143 -49 -150 -27 -767 -22
-970 8 -39 6 -106 12 -147 15 -41 2 -106 8 -145 14 -38 6 -144 19 -235 31 -91
11 -214 27 -275 35 -162 21 -325 38 -820 84 -285 27 -330 29 -715 31 -331 2
-457 7 -760 29 -85 7 -191 13 -235 16 -44 2 -125 6 -180 8 -55 3 -138 6 -185
7 -255 5 -481 29 -597 65 -49 16 -54 15 -85 -3 -41 -24 -48 -56 -16 -76 39
-25 167 -55 283 -66 61 -6 236 -15 390 -21 154 -6 341 -15 415 -20 299 -21
537 -31 995 -40 588 -11 1023 -47 1655 -136 801 -112 1345 -145 1618 -98 90
15 159 38 190 61 30 22 33 30 28 57 -4 17 -11 54 -16 81 -5 28 -15 73 -24 100
-18 58 -40 169 -56 275 -64 430 -104 627 -211 1030 -32 119 -89 382 -89 408
l0 24 133 -7 c72 -4 143 -12 157 -19 30 -14 70 -71 70 -101 0 -30 23 -47 57
-43 34 4 41 30 21 73 -8 16 -23 48 -32 70 -10 21 -29 53 -42 70 -31 37 -104
131 -122 156 -8 10 -16 36 -18 59 -2 22 -10 53 -17 68 -8 15 -17 39 -21 54 -5
22 -28 37 -148 96 -87 43 -171 93 -213 127 -43 34 -77 55 -90 53 -25 -4 -61
-74 -46 -91 6 -8 2 -80 -11 -202 -25 -233 -23 -224 -54 -259 l-26 -30 -17 22
c-15 20 -35 23 -231 42 -314 29 -656 69 -725 85 -33 7 -91 16 -130 20 -93 10
-105 17 -105 63 0 20 -5 66 -11 102 -6 36 -12 83 -14 105 -1 22 -5 66 -10 98
-6 47 -10 55 -21 46 -12 -9 -14 -3 -16 40 -1 28 -3 63 -4 79 -6 60 -24 334
-29 447 -3 66 -11 158 -17 205 -13 95 -16 246 -5 274 6 15 10 16 22 6 18 -15
18 -26 5 175 -5 83 -16 290 -24 460 -18 344 -28 476 -57 704 -22 178 -18 194
48 208 90 19 506 7 1053 -32 36 -2 117 -7 180 -10 262 -14 540 -39 905 -81
179 -21 239 -32 323 -60 92 -31 127 -36 340 -55 204 -17 263 -26 422 -65 273
-66 291 -72 397 -120 64 -29 108 -11 84 35 -16 28 -126 78 -191 86 -62 8 -102
24 -59 25 14 0 90 -9 170 -20 88 -13 188 -20 258 -19 130 2 141 -3 141 -75 0
-23 16 -135 35 -250 19 -115 35 -227 35 -248 0 -22 4 -58 10 -81 5 -23 16
-115 24 -203 11 -118 22 -181 41 -235 14 -40 25 -77 25 -82 0 -5 -21 -6 -48
-2 -132 18 -336 -62 -425 -165 -37 -44 -60 -49 -110 -24 -72 36 -131 118 -99
138 4 2 50 9 103 15 140 16 198 50 199 118 0 44 -49 99 -102 113 -28 8 -54 8
-89 1 -73 -16 -103 -35 -135 -86 -29 -45 -29 -46 -79 -43 l-50 3 4 157 c4 172
-3 208 -45 227 -36 16 -59 14 -79 -9 -17 -19 -17 -23 -2 -82 9 -35 18 -85 21
-113 3 -27 10 -72 16 -100 9 -44 8 -51 -9 -69 -20 -19 -20 -19 -54 11 -19 17
-56 38 -81 48 -53 21 -58 38 -16 57 39 17 41 53 5 70 -36 16 -148 -6 -190 -37
-44 -34 -80 -32 -115 5 -33 35 -69 39 -96 9 -19 -21 -18 -22 9 -71 28 -50 44
-134 63 -338 6 -72 23 -122 44 -135 6 -3 24 7 40 24 l30 29 -14 129 c-8 70
-18 152 -22 181 -5 42 -4 52 8 52 57 0 322 -111 354 -148 19 -23 24 -24 82
-17 64 7 75 16 45 34 -16 9 -16 12 -3 21 33 22 79 0 105 -50 15 -29 11 -53
-16 -91 -18 -24 -4 -61 38 -102 46 -46 71 -53 137 -37 45 11 57 10 84 -4 49
-25 71 -20 113 28 39 44 117 88 214 120 28 9 63 25 79 35 23 15 34 17 52 9 29
-13 38 -52 29 -128 -9 -74 16 -173 42 -168 9 2 19 14 23 28 7 30 -4 165 -20
235 -6 28 -13 124 -15 214 -3 167 -28 477 -46 586 -6 33 -12 80 -14 104 -2 24
-8 65 -14 90 -5 25 -13 69 -16 96 -5 42 -49 261 -61 303 -2 6 -15 12 -29 12
-14 0 -28 7 -32 16 -5 13 -14 14 -52 8 -75 -12 -524 -5 -681 11 -80 8 -215 19
-300 25 -194 13 -368 35 -440 55 -108 31 -569 76 -1205 119 -496 34 -668 46
-805 56 -176 14 -489 20 -547 11z m38 -1544 c-14 -14 -24 12 -16 41 l8 27 8
-30 c5 -16 5 -33 0 -38z m3685 32 c3 -6 2 -15 -3 -20 -14 -14 -91 -15 -104 -2
-20 20 1 33 51 33 27 0 52 -5 56 -11z m-3619 -1246 c-3 -10 -5 -4 -5 12 0 17
2 24 5 18 2 -7 2 -21 0 -30z m0 -65 c-3 -8 -6 -5 -6 6 -1 11 2 17 5 13 3 -3 4
-12 1 -19z m1583 -133 c114 -76 240 -201 240 -238 0 -15 19 -48 46 -82 25 -31
44 -58 42 -61 -4 -4 -111 15 -208 37 -24 6 -59 21 -77 35 -39 30 -41 30 -73
-1 -23 -22 -32 -25 -69 -19 -48 8 -95 46 -87 72 15 51 31 186 30 247 -1 39 1
74 3 78 10 17 60 -5 153 -68z"/>
<path d="M1342 13850 c-12 -5 -28 -7 -36 -4 -15 6 -56 -45 -56 -69 0 -22 39
-47 71 -47 19 0 39 13 68 45 44 48 47 55 29 73 -14 14 -43 15 -76 2z"/>
<path d="M11470 13801 c-31 -5 -38 -13 -67 -71 -40 -82 -88 -202 -104 -260 -7
-25 -34 -74 -61 -109 -59 -79 -94 -165 -79 -198 6 -12 24 -29 40 -38 34 -17
29 -20 79 45 l20 24 54 -50 c70 -64 152 -107 265 -139 99 -29 140 -29 157 -3
8 13 6 22 -10 40 -12 13 -24 30 -27 39 -4 11 -26 20 -67 27 -64 12 -144 45
-218 91 -52 32 -72 79 -48 115 16 26 39 31 161 41 174 14 211 50 130 125 -25
24 -33 25 -143 26 -65 0 -120 1 -124 2 -4 1 25 56 63 122 70 121 79 146 57
168 -13 13 -22 13 -78 3z m-144 -408 c-10 -10 -19 5 -10 18 6 11 8 11 12 0 2
-7 1 -15 -2 -18z"/>
<path d="M10369 13603 c-57 -20 -148 -92 -183 -146 -55 -83 -44 -146 32 -197
59 -39 77 -43 160 -38 52 3 84 11 133 36 59 29 65 30 74 14 29 -50 92 -100
147 -116 140 -40 359 2 399 76 19 35 12 96 -15 143 -34 56 -124 128 -193 151
l-54 18 -72 -25 c-53 -19 -72 -31 -73 -45 -1 -10 -2 -25 -3 -31 -1 -7 -12 -13
-26 -13 -16 0 -25 -6 -25 -15 0 -8 -5 -15 -10 -15 -6 0 -22 -12 -35 -26 -21
-22 -27 -25 -40 -14 -8 7 -15 19 -15 26 0 17 0 17 -37 -1 -17 -8 -69 -25 -115
-37 -67 -17 -94 -20 -123 -13 -21 6 -40 15 -42 21 -6 19 88 108 139 133 41 20
56 22 114 16 65 -7 67 -8 81 -45 14 -36 16 -37 44 -27 19 8 33 22 40 44 10 30
8 37 -21 73 -18 22 -45 47 -61 56 -37 19 -159 17 -220 -3z m579 -207 c30 -15
92 -80 92 -95 0 -20 -87 -43 -165 -43 -148 -2 -207 20 -166 61 15 15 34 21 65
21 56 0 98 29 77 54 -7 9 -20 16 -28 16 -8 0 -12 4 -9 9 7 11 97 -4 134 -23z"/>
<path d="M1889 13568 c-50 -67 -79 -130 -94 -205 -4 -18 -13 -33 -20 -33 -7 0
-16 15 -20 33 -12 61 -17 69 -52 83 -24 11 -39 12 -47 5 -17 -15 -22 -407 -5
-427 6 -8 29 -14 50 -14 34 0 43 5 78 50 26 33 48 76 62 123 57 190 83 246
105 224 8 -7 22 -115 34 -262 12 -143 25 -203 49 -222 16 -14 68 -17 95 -7 22
9 20 46 -5 77 -16 21 -21 46 -25 124 -9 181 -33 345 -57 393 -22 45 -75 90
-107 90 -9 0 -27 -15 -41 -32z m-89 -308 c0 -5 -4 -10 -10 -10 -5 0 -10 5 -10
10 0 6 5 10 10 10 6 0 10 -4 10 -10z"/>
<path d="M3690 13523 c-15 -42 -23 -88 -26 -167 -2 -59 -7 -113 -10 -118 -3
-5 -31 -6 -63 -2 -56 6 -59 5 -80 -24 -11 -17 -21 -35 -21 -40 0 -17 66 -52
98 -52 17 0 33 -4 37 -9 3 -5 -1 -54 -9 -108 -31 -205 -33 -229 -25 -250 11
-29 59 -31 83 -4 18 20 37 119 52 270 4 40 12 75 18 77 6 2 72 -3 146 -12 248
-29 237 -29 244 -6 4 12 0 34 -8 50 -13 25 -25 31 -93 46 -44 9 -121 21 -173
27 -52 5 -98 13 -104 19 -5 5 -1 49 13 114 29 144 27 173 -9 214 -16 17 -34
32 -39 32 -5 0 -19 -26 -31 -57z m40 -393 c0 -5 -2 -10 -4 -10 -3 0 -8 5 -11
10 -3 6 -1 10 4 10 6 0 11 -4 11 -10z"/>
<path d="M2630 13533 c-8 -3 -18 -11 -22 -17 -6 -8 -10 -7 -16 2 -17 25 -61 1
-106 -57 -46 -59 -99 -166 -111 -223 -4 -18 -23 -87 -42 -153 -19 -66 -41
-172 -49 -235 -19 -144 -22 -504 -4 -525 14 -17 77 -20 100 -5 13 8 15 47 16
247 0 178 4 264 18 343 9 57 19 106 21 108 2 2 29 -8 61 -22 69 -32 76 -32
141 -2 103 48 194 158 215 258 20 96 -28 202 -115 252 -47 28 -85 38 -107 29z
m59 -119 c88 -74 56 -200 -71 -288 -54 -37 -58 -38 -109 -29 -46 7 -54 12 -51
28 25 153 73 252 147 296 39 25 48 24 84 -7z"/>
<path d="M17017 13495 c-98 -34 -203 -109 -254 -180 -35 -51 -115 -201 -160
-300 -16 -36 -48 -162 -68 -264 -27 -140 -18 -286 19 -313 14 -9 46 10 46 27
0 8 9 19 20 25 18 9 20 21 20 98 1 48 8 123 16 167 9 44 19 118 24 165 9 97
28 160 46 160 16 0 54 -50 87 -115 14 -27 45 -68 69 -91 58 -54 203 -173 253
-206 72 -49 191 -99 246 -105 52 -5 55 -4 77 27 13 17 21 37 18 45 -2 7 -30
22 -60 34 -152 57 -235 115 -423 295 -81 77 -93 93 -93 122 0 34 12 42 38 25
7 -4 12 -14 10 -22 -9 -40 313 -72 407 -40 158 53 196 166 105 306 -50 76 -81
103 -164 139 -78 35 -181 35 -279 1z m230 -116 c64 -25 148 -100 159 -144 5
-21 1 -33 -20 -53 -25 -26 -31 -27 -125 -26 -54 1 -127 7 -162 13 -85 16 -224
18 -274 4 -59 -17 -63 -1 -15 55 49 59 142 127 209 153 64 25 156 24 228 -2z"/>
<path d="M1304 13455 c-32 -49 -46 -212 -40 -470 3 -132 9 -256 14 -275 7 -31
12 -35 44 -38 50 -4 68 22 57 83 -23 124 -5 509 30 631 10 36 -1 69 -28 83
-32 18 -59 13 -77 -14z"/>
<path d="M3442 13341 c-7 -4 -24 -6 -37 -4 -25 5 -17 17 -129 -184 -56 -101
-112 -163 -148 -163 -23 0 -24 58 -2 142 12 47 13 67 4 87 -13 32 -54 63 -72
56 -25 -10 -48 -115 -48 -223 0 -97 1 -103 28 -132 40 -44 125 -59 180 -31 51
26 114 99 151 176 121 248 120 247 110 266 -11 21 -18 23 -37 10z"/>
<path d="M15521 13297 c-16 -21 -31 -110 -31 -192 l0 -73 -94 -4 c-105 -3
-136 -19 -136 -68 0 -45 20 -53 108 -46 106 9 110 5 89 -81 -22 -90 -26 -261
-6 -274 8 -5 21 -8 29 -6 30 5 40 49 40 189 0 75 3 143 6 152 7 19 38 20 115
4 46 -9 61 -9 73 1 39 33 4 71 -93 102 -84 27 -85 30 -46 154 33 105 32 133
-1 145 -33 13 -39 13 -53 -3z"/>
<path d="M13491 13262 c-9 -16 -28 -114 -72 -373 -14 -80 -3 -109 39 -109 36
0 51 12 100 85 37 55 144 168 218 229 38 31 81 49 89 36 3 -5 5 -55 4 -112 -1
-119 20 -193 64 -218 36 -20 61 1 52 44 -4 17 -10 97 -13 178 -7 142 -8 149
-33 174 -61 61 -174 35 -279 -65 -70 -67 -96 -85 -114 -78 -13 5 -10 22 16 98
l32 92 -23 18 c-30 24 -67 24 -80 1z"/>
<path d="M9146 13250 c-46 -9 -64 -30 -110 -125 -70 -146 -71 -151 -71 -275 0
-109 2 -118 33 -185 55 -116 86 -139 202 -149 62 -6 87 -3 145 15 190 59 492
255 597 389 72 92 82 145 29 156 -14 3 -39 10 -54 15 -24 7 -34 4 -63 -19 -45
-36 -53 -61 -24 -84 39 -32 32 -38 -175 -160 -290 -169 -431 -216 -516 -172
-112 57 -72 378 63 505 49 46 57 66 36 87 -13 13 -33 14 -92 2z"/>
<path d="M14243 13181 c-75 -19 -112 -63 -120 -143 -19 -184 131 -306 362
-296 82 3 98 7 136 33 24 15 61 48 82 71 21 24 52 53 68 65 38 26 49 18 89
-65 42 -87 126 -188 153 -184 16 2 23 11 25 34 2 25 -7 45 -46 95 -70 92 -102
146 -96 162 2 7 53 26 112 41 196 51 372 132 372 172 0 21 -51 18 -102 -6 -41
-19 -367 -90 -413 -90 -18 0 -24 7 -29 40 -5 30 -13 43 -34 53 -15 8 -33 12
-39 10 -18 -6 -16 -72 2 -107 9 -16 14 -30 13 -31 -2 -2 -46 -23 -100 -48 -53
-25 -100 -52 -104 -59 -4 -7 -10 -28 -14 -48 l-5 -35 -100 0 c-89 1 -106 4
-152 28 -54 28 -93 81 -93 128 0 29 62 89 93 89 37 0 87 -20 87 -35 0 -7 -28
-24 -62 -37 -57 -22 -63 -27 -63 -53 0 -58 57 -62 163 -12 56 26 76 56 68 102
-14 72 -165 147 -253 126z"/>
<path d="M19001 13016 c-21 -22 -31 -41 -28 -50 18 -47 131 -39 143 10 19 76
-56 101 -115 40z"/>
<path d="M17757 13017 c-78 -30 -122 -68 -152 -131 -29 -61 -30 -76 -11 -148
43 -168 139 -254 341 -310 109 -29 356 -33 398 -5 29 19 36 51 13 60 -8 3 -58
9 -113 12 -233 16 -445 103 -499 206 -23 45 -19 49 54 49 110 1 208 17 262 45
57 29 70 49 48 72 -14 13 -29 13 -139 -1 -239 -29 -249 -30 -249 -13 0 20 42
53 87 68 37 12 97 9 213 -12 36 -6 79 -12 95 -13 26 -1 30 2 27 24 -4 34 -47
73 -111 98 -73 30 -184 29 -264 -1z"/>
<path d="M4340 12921 c0 -6 -8 -11 -19 -11 -25 0 -44 -25 -36 -49 13 -43 126
-70 510 -121 33 -5 148 -24 255 -44 107 -20 317 -52 465 -71 149 -19 338 -43
420 -54 151 -20 388 -41 675 -62 85 -6 355 -12 599 -13 486 -2 459 -6 447 59
-12 61 -26 64 -246 57 -373 -13 -839 6 -1295 54 -391 41 -820 101 -1110 155
-145 27 -242 43 -455 78 -186 31 -210 33 -210 22z"/>
<path d="M18255 12886 c-33 -14 -67 -35 -76 -47 -13 -18 -32 -72 -55 -160 -7
-27 35 -68 110 -107 l71 -37 134 0 c95 0 135 -4 138 -12 2 -6 -12 -46 -31 -89
-20 -42 -36 -81 -36 -86 0 -5 -18 -55 -40 -110 -40 -101 -49 -151 -30 -163 5
-3 29 3 53 13 36 16 46 27 59 63 9 24 32 87 52 139 21 52 51 131 68 175 16 44
43 108 59 142 24 50 28 67 19 83 -17 31 -57 36 -88 11 -69 -55 -172 -72 -291
-47 -134 28 -176 77 -101 118 31 17 48 19 150 14 63 -4 126 -7 140 -9 18 -1
24 2 22 14 -2 14 5 16 43 11 35 -4 45 -1 45 10 0 46 -116 89 -255 95 -90 3
-106 1 -160 -21z"/>
<path d="M10215 12745 c-16 -8 -40 -14 -52 -15 -13 0 -23 -4 -23 -10 0 -5 -13
-16 -30 -25 -18 -9 -32 -26 -36 -43 -3 -15 -24 -61 -46 -102 -54 -101 -108
-238 -108 -272 0 -51 63 -86 103 -55 15 11 67 117 67 137 0 5 18 51 39 101
l40 91 -21 28 c-26 35 -18 49 24 41 29 -6 33 -11 33 -38 1 -40 16 -57 80 -88
75 -37 176 -44 237 -17 55 24 83 61 73 94 -4 13 -28 47 -53 77 -63 73 -142
111 -232 110 -36 0 -78 -7 -95 -14z m192 -110 c19 -8 47 -15 62 -16 25 0 25
-1 5 -9 -12 -5 -25 -13 -29 -19 -8 -14 -60 -14 -127 0 -66 14 -80 25 -54 45
26 18 97 18 143 -1z"/>
<path d="M8752 12435 c-7 -8 -22 -15 -33 -15 -52 0 -29 -73 28 -90 47 -14 278
-40 354 -40 59 0 74 -6 60 -24 -5 -6 -23 -58 -41 -116 -18 -58 -48 -150 -67
-205 -19 -55 -45 -151 -59 -214 -16 -75 -31 -122 -44 -136 -23 -24 -25 -43 -8
-80 13 -29 51 -34 84 -10 27 18 57 97 79 205 10 47 44 164 77 260 33 96 67
200 77 230 22 65 28 68 138 46 43 -8 103 -18 133 -21 61 -8 261 -52 414 -91
86 -22 101 -24 113 -11 13 12 11 17 -12 35 -14 11 -45 23 -68 27 -23 4 -89 22
-147 41 -58 19 -118 39 -135 44 -39 12 -162 36 -305 61 -63 11 -146 29 -185
40 -71 20 -145 35 -316 63 -114 19 -120 19 -137 1z"/>
<path d="M19531 12375 c-7 -24 -31 -65 -53 -90 -38 -44 -43 -46 -87 -43 -43 3
-47 5 -66 46 -35 76 -95 67 -95 -16 0 -39 5 -50 43 -87 70 -71 159 -82 236
-32 40 27 101 128 101 169 0 13 5 29 12 36 8 8 5 13 -13 21 -14 5 -31 16 -38
25 -20 24 -25 20 -40 -29z"/>
<path d="M16317 12191 c-4 -35 -5 -67 -2 -69 12 -12 16 10 13 69 l-3 64 -8
-64z"/>
<path d="M10423 12223 c-16 -11 -23 -26 -23 -48 0 -18 -5 -57 -11 -86 -5 -30
-10 -85 -10 -124 0 -38 -4 -83 -9 -100 -21 -70 -51 -258 -46 -281 5 -17 19
-30 42 -40 32 -13 38 -13 60 1 30 20 30 26 -1 55 -31 29 -30 66 0 62 11 -1 34
-5 52 -8 26 -5 39 -1 70 23 100 79 228 110 253 62 10 -17 7 -28 -15 -60 -14
-22 -40 -49 -58 -59 -39 -24 -122 -26 -174 -5 -36 15 -38 15 -55 -7 -25 -33
-23 -42 24 -82 118 -101 280 -62 356 86 36 71 40 109 16 168 -18 44 -40 62
-70 54 -10 -3 -39 2 -63 11 -73 25 -125 20 -191 -20 -32 -19 -63 -42 -70 -50
-7 -8 -19 -15 -27 -15 -18 0 -18 -7 26 242 33 187 33 206 -9 228 -25 13 -41
12 -67 -7z"/>
<path d="M16314 12066 c-3 -8 -1 -23 5 -33 9 -15 10 -13 11 15 0 34 -7 42 -16
18z"/>
<path d="M14453 11968 c3 -13 17 -54 31 -93 14 -38 26 -84 26 -101 l0 -30 -86
-11 c-70 -8 -90 -15 -113 -37 l-27 -26 -80 52 c-43 30 -109 67 -146 83 -37 17
-68 32 -68 35 0 3 10 10 23 15 12 6 22 19 22 30 0 16 -13 23 -65 37 -55 15
-143 24 -187 19 -7 0 -13 -14 -13 -31 0 -51 51 -94 179 -150 226 -98 355 -190
371 -263 7 -32 5 -42 -17 -67 -40 -48 -138 -90 -214 -93 -60 -2 -69 1 -101 28
-19 17 -42 44 -49 60 -10 22 -21 30 -39 30 -38 0 -40 -63 -3 -135 41 -79 90
-104 198 -97 109 7 186 37 246 97 72 72 88 150 44 214 -39 57 -34 70 31 88 40
11 66 13 95 7 51 -12 89 -2 89 22 0 10 9 23 19 28 17 9 19 7 17 -21 -1 -25 4
-33 19 -36 11 -3 23 -8 26 -13 3 -5 24 -3 48 6 62 22 219 21 228 -1 7 -20 -24
-47 -85 -75 -51 -22 -102 -28 -196 -19 -78 7 -85 1 -62 -54 24 -57 67 -78 152
-73 58 3 83 10 129 36 61 35 85 31 85 -14 0 -71 43 -110 92 -84 48 25 51 68 8
109 -30 28 -30 29 -24 104 7 74 7 75 -26 112 -61 70 -91 84 -181 84 -44 0 -99
-5 -123 -11 -33 -8 -54 -7 -92 4 l-49 14 -6 79 c-9 114 -38 164 -97 164 -31 0
-34 -2 -29 -22z m557 -433 c0 -8 -4 -15 -10 -15 -5 0 -10 7 -10 15 0 8 5 15
10 15 6 0 10 -7 10 -15z"/>
<path d="M9995 11949 c-38 -33 -72 -38 -135 -20 -85 26 -216 3 -261 -46 -29
-31 -69 -110 -69 -136 0 -22 56 -84 93 -104 42 -21 129 -12 198 21 74 36 111
68 103 89 -5 14 -17 16 -67 12 -34 -2 -63 -9 -65 -14 -6 -19 -90 -54 -109 -47
-16 7 -15 9 10 22 37 20 34 26 -10 22 -28 -2 -38 1 -41 13 -5 26 59 49 162 58
60 5 102 14 117 24 34 24 37 22 60 -30 11 -25 27 -52 36 -58 22 -16 7 -36 -25
-33 -36 4 -41 -30 -10 -59 41 -38 77 -52 108 -42 43 16 100 73 100 102 0 23
-5 27 -43 32 -23 4 -49 5 -57 3 -18 -4 -15 34 6 94 8 23 14 47 14 55 0 17 -53
73 -69 73 -6 0 -26 -14 -46 -31z"/>
<path d="M11125 11960 c-3 -5 -12 -7 -19 -4 -14 5 -37 -48 -57 -131 -6 -27
-30 -107 -52 -177 -44 -140 -43 -160 7 -193 36 -24 66 -6 66 41 0 20 27 116
60 214 61 181 70 226 48 248 -14 14 -44 16 -53 2z"/>
<path d="M15326 11941 c-12 -19 -26 -152 -23 -221 2 -57 7 -76 18 -78 27 -5
49 33 69 117 29 121 27 145 -14 170 -37 23 -43 25 -50 12z"/>
<path d="M11377 11816 c-59 -16 -113 -59 -151 -120 -92 -148 4 -311 254 -429
92 -44 282 -102 303 -94 15 5 13 12 -9 55 -24 47 -30 51 -92 71 -100 33 -287
127 -332 167 -59 54 -53 99 10 68 55 -28 217 -2 294 46 39 25 46 35 46 61 0
73 -83 148 -192 174 -74 17 -70 17 -131 1z m174 -129 c35 -22 21 -35 -48 -46
-204 -32 -216 -32 -173 14 47 50 165 67 221 32z"/>
<path d="M16327 11816 c-4 -10 -5 -21 -2 -24 9 -9 17 6 13 25 -3 17 -4 17 -11
-1z"/>
<path d="M15395 11640 c-16 -5 -42 -11 -57 -14 -18 -4 -29 -16 -37 -36 -11
-32 -22 -33 -86 -10 -22 8 -65 -5 -77 -23 -10 -15 -10 -69 0 -83 11 -17 41
-24 48 -12 4 6 23 8 45 5 37 -5 38 -4 41 31 3 30 8 37 33 45 56 16 208 8 268
-15 51 -20 25 -33 -59 -30 l-79 3 35 -20 c19 -11 43 -20 54 -21 15 0 16 -3 6
-15 -8 -10 -31 -15 -66 -15 -38 0 -54 -4 -54 -13 0 -13 57 -19 186 -19 70 0
134 33 134 68 0 39 -72 118 -133 148 -57 28 -154 41 -202 26z"/>
<path d="M16335 11601 c-3 -5 -1 -12 5 -16 5 -3 10 1 10 9 0 18 -6 21 -15 7z"/>
<path d="M16342 11540 c0 -14 2 -19 5 -12 2 6 2 18 0 25 -3 6 -5 1 -5 -13z"/>
<path d="M14502 11497 c-12 -28 -22 -59 -22 -67 0 -9 -6 -25 -14 -36 -8 -11
-17 -36 -21 -56 -6 -31 -4 -38 16 -48 20 -11 26 -9 50 18 20 22 30 48 38 103
7 41 16 84 21 95 5 14 4 26 -3 33 -23 23 -42 10 -65 -42z"/>
<path d="M15167 11407 c-17 -44 37 -116 72 -97 10 5 23 16 31 24 20 25 42 19
111 -29 35 -25 69 -45 74 -45 6 0 23 -7 38 -15 55 -29 169 -65 203 -65 22 0
37 6 41 16 7 18 -30 61 -61 70 -26 8 -96 38 -158 70 -59 29 -118 41 -127 25
-5 -7 -30 -2 -82 18 -100 39 -135 46 -142 28z"/>
<path d="M1090 11290 c0 -5 5 -10 11 -10 5 0 7 5 4 10 -3 6 -8 10 -11 10 -2 0
-4 -4 -4 -10z"/>
<path d="M1570 11074 c0 -17 22 -14 28 4 2 7 -3 12 -12 12 -9 0 -16 -7 -16
-16z"/>
<path d="M15320 10652 c-96 -27 -160 -106 -160 -200 0 -41 6 -58 40 -105 58
-81 97 -102 190 -101 75 0 115 13 193 62 34 21 45 8 45 -54 0 -55 9 -81 39
-121 31 -40 74 -57 100 -38 17 14 17 16 -5 52 -12 21 -32 58 -43 82 -21 43
-21 45 -3 138 16 89 16 96 0 130 -15 32 -20 35 -48 29 -26 -5 -36 -1 -70 35
-67 69 -199 112 -278 91z m144 -117 c61 -16 146 -69 146 -91 0 -33 -166 -89
-242 -82 -127 13 -148 149 -28 179 42 11 63 10 124 -6z"/>
<path d="M16153 10569 c-72 -23 -109 -61 -142 -146 -46 -121 -18 -246 78 -342
62 -62 106 -81 188 -81 84 0 175 63 131 91 -7 5 -42 9 -78 9 -110 0 -182 31
-227 99 -29 43 -31 147 -5 200 42 83 178 96 253 25 34 -33 73 -30 77 6 4 32
-55 103 -107 129 -58 29 -100 32 -168 10z"/>
<path d="M16719 10469 c-27 -42 -35 -49 -53 -44 -76 25 -129 13 -147 -33 -9
-23 -7 -30 16 -49 14 -13 39 -23 54 -23 15 0 31 -3 34 -7 8 -7 -14 -44 -42
-72 -9 -9 -36 -56 -60 -104 -42 -84 -43 -88 -27 -112 19 -29 38 -32 56 -10 18
21 110 206 110 220 0 6 9 21 20 33 17 18 25 20 46 12 32 -13 61 -47 69 -82 7
-29 -17 -134 -41 -182 -37 -75 -25 -132 27 -124 17 2 28 22 56 98 56 150 48
229 -31 333 -20 26 -36 53 -36 60 0 7 14 26 30 42 36 34 37 51 8 76 -37 30
-56 23 -89 -32z"/>
<path d="M16966 10388 c-26 -42 -24 -72 7 -92 19 -13 30 -13 62 -4 51 15 65
26 65 50 0 56 -104 91 -134 46z"/>
<path d="M17140 10265 c0 -35 -5 -47 -21 -55 -15 -8 -24 -8 -34 0 -53 44 -153
-129 -143 -248 4 -48 10 -60 41 -89 65 -58 127 -43 170 42 18 35 52 228 44
249 -3 8 3 26 14 39 10 14 19 30 19 35 0 20 -52 72 -71 72 -16 0 -19 -7 -19
-45z m-20 -115 c13 -24 -1 -113 -25 -160 -12 -23 -22 -30 -44 -30 -16 0 -34 7
-41 15 -18 21 -5 77 26 111 14 16 32 41 40 57 17 32 29 34 44 7z"/>
<path d="M6700 10176 c0 -9 5 -16 10 -16 6 0 10 4 10 9 0 6 -4 13 -10 16 -5 3
-10 -1 -10 -9z"/>
<path d="M17369 10023 c-5 -16 -21 -50 -35 -77 -31 -59 -26 -86 21 -111 34
-19 36 -19 102 0 99 27 145 30 187 10 40 -19 75 -72 95 -145 24 -85 39 -110
65 -110 47 0 51 22 17 115 -44 121 -74 176 -119 217 -57 52 -99 63 -178 48
-69 -13 -94 -9 -94 15 0 19 -29 65 -41 65 -5 0 -14 -12 -20 -27z"/>
<path d="M10133 9873 c-34 -76 -66 -245 -66 -347 -1 -116 16 -194 53 -245 36
-49 75 -70 151 -81 154 -22 324 65 425 218 42 63 114 232 114 269 0 30 -34 38
-80 19 -31 -12 -40 -25 -69 -96 -41 -102 -111 -195 -171 -228 -102 -56 -232
-78 -277 -47 -61 43 -50 306 19 467 24 56 19 90 -17 106 -46 21 -60 15 -82
-35z"/>
<path d="M11950 9885 c-27 -29 -58 -199 -62 -340 -2 -79 -6 -95 -19 -95 -9 0
-24 9 -34 20 -30 33 -104 71 -132 68 -41 -5 -67 -49 -71 -121 -6 -117 47 -172
205 -213 l103 -26 40 32 c39 31 50 53 30 65 -5 3 -10 15 -10 25 0 10 -10 22
-21 25 -20 7 -21 11 -15 84 8 94 32 232 57 329 26 101 25 115 -15 145 l-33 26
-23 -24z m-136 -502 c33 -30 47 -69 30 -86 -8 -7 -94 40 -111 61 -19 23 8 78
32 64 7 -4 29 -21 49 -39z"/>
<path d="M12803 9783 c-10 -15 -28 -89 -43 -172 l-25 -145 -36 -11 c-50 -14
-71 -34 -67 -64 2 -19 11 -28 36 -35 37 -10 43 -38 14 -70 -49 -56 -44 -108
11 -108 39 0 53 16 77 88 33 97 29 96 192 89 140 -5 171 -12 181 -39 12 -30
223 -121 253 -109 17 6 17 9 4 33 -7 13 -6 19 5 24 20 7 19 25 -2 33 -52 18
-160 67 -171 78 -11 10 -7 16 22 33 24 15 38 32 47 60 17 59 0 99 -59 140 -81
55 -165 55 -226 1 -32 -27 -34 -34 -32 -81 2 -35 8 -53 19 -60 10 -5 17 -14
17 -19 0 -6 9 -22 20 -36 11 -15 18 -28 16 -30 -8 -9 -51 19 -78 50 -22 27
-35 32 -85 37 -69 6 -68 -1 -22 157 l32 112 -24 35 c-29 43 -52 46 -76 9z
m400 -265 c9 -7 19 -25 22 -39 5 -21 1 -29 -20 -43 -15 -10 -34 -14 -45 -11
-23 7 -26 21 -7 28 6 3 -4 6 -24 6 -21 1 -47 10 -60 21 -24 20 -24 20 -5 35
24 18 116 20 139 3z"/>
<path d="M11073 9733 c-88 -31 -192 -186 -226 -338 -31 -136 -50 -398 -33
-452 6 -20 3 -22 -36 -25 -38 -3 -45 -7 -65 -43 -45 -79 -29 -123 93 -259 262
-290 290 -344 221 -427 -51 -62 -199 -100 -252 -65 -14 9 -25 22 -25 29 0 37
-23 89 -43 96 -30 12 -47 -5 -47 -45 0 -19 -4 -34 -10 -34 -21 0 -9 -54 20
-91 65 -81 195 -112 309 -74 76 25 166 111 186 177 17 57 8 123 -24 187 -28
54 -129 180 -226 281 -92 96 -119 135 -111 157 8 20 50 10 93 -23 64 -48 125
-55 138 -14 9 30 -10 56 -65 87 -41 23 -50 32 -45 48 22 70 26 109 31 280 5
200 13 246 58 331 32 61 54 87 97 113 44 27 72 26 135 -3 55 -26 104 -80 104
-115 0 -34 -36 -97 -69 -120 -29 -21 -29 -21 -54 -1 -32 26 -37 25 -65 -10
-27 -34 -24 -55 13 -94 20 -21 33 -26 73 -26 90 0 175 76 204 183 25 94 -28
193 -145 268 -55 36 -66 39 -126 38 -36 0 -85 -7 -108 -16z m-203 -823 c0 -5
-6 -10 -14 -10 -8 0 -18 5 -21 10 -3 6 3 10 14 10 12 0 21 -4 21 -10z"/>
<path d="M12170 9546 c-41 -23 -70 -72 -85 -144 -28 -129 -15 -171 66 -212 70
-36 120 -25 187 40 l44 42 37 -41 c42 -45 79 -53 119 -25 40 28 23 110 -25
116 -27 3 -28 5 -33 79 -5 80 -25 119 -59 119 -22 0 -67 -59 -80 -106 -19 -65
-85 -124 -139 -124 -51 0 -58 22 -28 85 19 42 35 59 66 75 42 21 48 38 30 84
-8 21 -16 26 -42 26 -18 -1 -44 -7 -58 -14z"/>
<path d="M11690 8860 c0 -10 -7 -23 -16 -28 -13 -7 -15 -18 -10 -48 16 -101
18 -190 5 -201 -8 -6 -52 -13 -99 -16 -103 -6 -178 -28 -209 -61 -28 -30 -22
-52 16 -67 27 -11 179 0 240 17 34 9 38 -16 14 -98 -29 -96 -79 -196 -113
-221 -52 -39 -43 -97 17 -97 38 0 84 39 105 89 15 38 23 38 64 4 69 -58 170
-72 250 -33 53 25 160 130 177 173 16 42 16 42 34 27 8 -7 15 -25 15 -41 0
-54 34 -142 68 -176 28 -29 39 -33 83 -33 68 0 111 20 168 80 38 40 49 59 49
83 0 18 3 44 7 60 13 47 -25 32 -80 -33 -56 -65 -80 -80 -130 -80 -60 0 -70
29 -70 200 0 80 4 157 8 172 5 21 1 33 -19 58 -36 42 -75 39 -89 -7 -8 -29
-14 -33 -45 -34 -79 -3 -170 2 -263 13 l-98 12 7 98 c5 81 4 106 -11 143 -22
58 -75 90 -75 45z m90 -330 c19 -5 47 -12 63 -15 31 -6 35 -20 10 -33 -22 -11
-181 2 -195 16 -14 14 38 51 65 45 12 -2 38 -8 57 -13z m30 -82 c0 -6 -16 -28
-35 -49 -38 -42 -44 -69 -20 -89 9 -8 13 -21 9 -36 -3 -13 -4 -24 -2 -24 3 0
23 18 46 39 67 64 123 97 202 121 41 12 87 29 102 38 37 22 50 8 52 -59 l1
-53 -39 -9 c-27 -7 -40 -6 -45 2 -8 13 -40 -8 -101 -65 -19 -18 -52 -40 -72
-49 -49 -20 -122 -20 -139 1 -8 10 -26 14 -53 12 -38 -2 -41 -1 -44 23 -3 29
52 199 68 209 15 9 70 -1 70 -12z"/>
<path d="M12733 8872 c-31 -20 -63 -169 -79 -365 -6 -80 -9 -89 -29 -97 -39
-15 -41 -32 -8 -57 l31 -24 -24 -61 c-32 -81 -19 -138 31 -138 30 0 55 30 55
67 0 17 3 45 6 62 8 38 34 41 113 10 31 -11 71 -19 94 -17 l40 3 0 48 c0 26
-3 50 -6 53 -3 3 -49 19 -102 34 -54 16 -101 32 -106 37 -11 11 25 239 52 323
l23 70 -29 30 c-30 31 -41 35 -62 22z"/>
<path d="M13079 8497 c-47 -31 -67 -78 -75 -173 -6 -72 -4 -89 20 -155 14 -40
39 -91 54 -113 46 -67 234 -226 294 -248 10 -4 23 1 34 13 12 13 26 18 40 15
56 -14 16 41 -71 98 -134 89 -278 231 -273 269 3 20 10 22 93 28 110 7 162 30
188 83 37 79 14 137 -74 181 -67 35 -180 36 -230 2z m195 -107 c64 -24 3 -59
-109 -63 -72 -3 -91 15 -52 49 22 19 39 24 82 24 29 0 65 -4 79 -10z m-114
-90 c0 -5 -2 -10 -4 -10 -3 0 -8 5 -11 10 -3 6 -1 10 4 10 6 0 11 -4 11 -10z"/>
</g>
</svg>
