<?xml version="1.0" standalone="no"?>
<!DOCTYPE svg PUBLIC "-//W3C//DTD SVG 20010904//EN"
 "http://www.w3.org/TR/2001/REC-SVG-20010904/DTD/svg10.dtd">
<svg version="1.0" xmlns="http://www.w3.org/2000/svg"
 width="3264.000000pt" height="2448.000000pt" viewBox="0 0 3264.000000 2448.000000"
 preserveAspectRatio="xMidYMid meet">
<metadata>
Created by potrace 1.12, written by Peter Selinger 2001-2015
</metadata>
<g transform="translate(0.000000,2448.000000) scale(0.100000,-0.100000)"
fill="#000000" stroke="none">
<path d="M2570 23351 c0 -277 25 -490 76 -654 44 -139 95 -196 151 -166 55 29
89 152 118 429 8 74 23 164 34 200 55 185 66 243 56 290 -11 49 -32 37 -40
-22 -9 -80 -24 -148 -45 -203 -33 -87 -50 -175 -85 -443 -31 -236 -87 -252
-148 -42 -48 164 -72 498 -51 701 7 71 -6 99 -47 99 -18 0 -19 -9 -19 -189z"/>
<path d="M4313 23524 c-9 -24 14 -64 37 -64 31 0 36 28 10 56 -27 28 -38 30
-47 8z"/>
<path d="M5715 23508 c-2 -7 -6 -80 -9 -163 -5 -158 -20 -231 -62 -321 -13
-28 -24 -58 -24 -67 0 -19 15 -23 25 -6 4 6 14 7 24 3 9 -3 32 -6 52 -5 34 2
37 -1 43 -32 10 -56 62 -124 104 -138 49 -17 176 -16 197 1 27 22 17 27 -60
32 -65 4 -81 9 -113 35 -39 32 -82 96 -82 125 0 10 6 22 13 28 28 24 85 57
115 68 47 16 81 60 82 103 0 72 -71 90 -169 41 -67 -33 -100 -89 -101 -167 0
-49 -2 -52 -33 -63 -18 -7 -36 -12 -40 -12 -16 0 -5 42 28 111 67 143 86 439
28 439 -7 0 -15 -6 -18 -12z m243 -351 c2 -11 -7 -30 -20 -44 -30 -34 -109
-84 -119 -77 -17 10 -9 71 12 98 34 43 120 59 127 23z"/>
<path d="M5086 23502 c-3 -5 4 -51 14 -103 21 -101 29 -356 15 -496 -7 -68 -6
-73 18 -97 54 -54 105 -26 209 112 55 73 76 130 62 169 -23 65 -67 56 -157
-33 -37 -37 -67 -65 -68 -63 0 2 -2 78 -3 169 -2 91 -9 195 -16 232 -15 82
-55 141 -74 110z m260 -447 c9 -22 -46 -122 -95 -171 l-44 -45 -20 20 c-20 20
-20 21 -2 63 28 65 66 115 100 132 39 19 54 19 61 1z"/>
<path d="M7391 23368 c-5 -13 -19 -81 -31 -153 -24 -144 -62 -309 -85 -375
-19 -55 -20 -134 0 -150 8 -6 22 -10 32 -8 15 3 18 12 15 53 -1 30 7 83 22
135 49 169 110 453 104 491 -4 34 -44 39 -57 7z"/>
<path d="M4554 23289 c-70 -88 -81 -107 -104 -173 -13 -40 -20 -86 -20 -137 0
-68 3 -82 24 -106 21 -24 31 -28 73 -26 42 1 52 6 80 38 17 20 41 57 53 83 26
54 40 44 40 -29 0 -52 18 -83 46 -77 14 3 18 11 16 33 -1 17 -7 93 -12 170 -5
77 -14 150 -20 163 -22 49 -60 10 -60 -62 0 -32 -24 -116 -54 -188 -20 -47
-57 -72 -91 -64 -40 10 -49 48 -30 131 20 89 62 163 120 211 36 29 45 43 43
63 -2 19 -9 27 -29 29 -20 2 -34 -8 -75 -59z"/>
<path d="M9435 23258 c-4 -11 -31 -165 -52 -288 -8 -48 -27 -60 -99 -60 -82 0
-116 -13 -112 -43 4 -27 45 -34 114 -19 69 15 70 3 9 -153 -36 -92 -37 -120
-7 -120 21 0 28 15 74 151 l51 151 56 18 c31 11 63 22 71 26 8 4 35 17 60 28
50 24 64 34 99 73 l24 27 -38 -10 c-21 -6 -67 -26 -102 -44 -61 -33 -128 -53
-139 -42 -4 3 6 56 20 117 29 121 32 170 14 188 -16 16 -37 15 -43 0z"/>
<path d="M9906 23238 c-23 -31 -128 -302 -177 -455 -19 -60 -20 -74 -10 -87
32 -38 96 -10 162 70 37 44 105 103 121 104 16 0 30 -77 26 -157 -2 -72 0 -87
14 -97 14 -8 21 -7 34 5 13 13 16 42 17 142 2 113 0 128 -19 154 -35 46 -58
42 -122 -24 -94 -98 -142 -137 -153 -126 -14 14 46 179 128 356 40 84 45 101
35 122 -15 33 -26 32 -56 -7z"/>
<path d="M3443 23197 c-11 -7 -39 -22 -62 -35 -65 -36 -174 -145 -204 -204
-15 -30 -32 -82 -38 -117 -10 -54 -9 -72 5 -118 21 -65 58 -93 124 -93 72 0
123 45 202 178 23 39 46 72 50 72 5 0 16 -35 26 -77 9 -43 24 -91 33 -106 16
-28 51 -44 70 -32 18 10 13 43 -8 54 -10 6 -22 18 -26 28 -14 36 -35 190 -35
259 0 58 -4 74 -20 89 -29 26 -40 11 -55 -80 -18 -102 -56 -175 -135 -257 -54
-57 -71 -68 -98 -68 -111 0 -109 193 5 317 47 51 145 120 184 128 24 5 29 12
29 35 0 32 -19 43 -47 27z"/>
<path d="M4130 23173 c-50 -33 -125 -104 -175 -164 -29 -35 -85 -116 -85 -124
0 -4 -7 -21 -15 -38 -23 -51 -35 -118 -24 -139 14 -26 48 -23 53 5 23 120 33
146 89 228 72 108 177 212 209 207 35 -5 49 -44 46 -130 -2 -61 -8 -83 -26
-107 -27 -37 -28 -57 -3 -71 40 -21 77 48 91 168 13 119 -21 202 -85 202 -11
0 -45 -17 -75 -37z"/>
<path d="M12926 23123 c-56 -71 -136 -224 -170 -323 -14 -41 -29 -75 -33 -75
-4 0 -43 18 -85 39 -63 31 -88 39 -133 38 -63 0 -130 -33 -160 -78 -39 -59
-26 -143 28 -178 40 -27 142 -29 251 -7 96 20 136 40 136 68 0 8 12 55 26 106
34 125 112 278 179 356 57 65 63 79 43 99 -21 21 -35 13 -82 -45z m-327 -403
c63 -29 144 -91 133 -102 -13 -13 -93 -22 -215 -22 -117 -1 -127 3 -127 55 0
18 11 37 35 58 29 25 44 31 83 31 26 0 67 -9 91 -20z"/>
<path d="M7738 23077 c-40 -15 -121 -72 -155 -109 -64 -69 -91 -178 -57 -227
40 -56 169 -69 254 -26 27 13 51 28 53 32 3 5 -34 4 -81 -1 -100 -10 -154 5
-173 48 -17 35 3 56 52 56 75 0 203 34 271 72 63 36 71 95 19 143 -28 24 -130
31 -183 12z m150 -65 c7 -9 11 -21 9 -27 -10 -29 -164 -85 -236 -85 -46 0 -47
18 -5 61 64 66 196 95 232 51z"/>
<path d="M8794 23024 c-88 -46 -113 -71 -169 -169 -53 -94 -60 -141 -20 -151
41 -10 86 4 145 45 69 48 138 86 144 80 10 -9 -26 -124 -100 -323 -41 -111
-82 -215 -90 -232 -18 -37 -15 -79 6 -79 9 0 25 27 41 70 15 39 52 126 82 195
30 69 76 191 102 272 43 133 47 150 35 177 -16 40 -44 40 -66 1 -27 -45 -141
-117 -215 -135 -61 -15 -40 43 49 134 59 60 124 91 193 91 34 0 43 13 29 40
-18 33 -84 27 -166 -16z"/>
<path d="M8167 22956 c-8 -8 -24 -69 -37 -135 -22 -117 -22 -122 -5 -141 40
-44 94 -15 290 154 72 63 80 53 50 -62 -16 -61 -20 -92 -13 -105 13 -25 42
-17 46 13 2 14 15 63 28 109 14 46 26 96 26 112 1 30 -17 59 -36 59 -11 0 -92
-54 -106 -70 -3 -3 -23 -19 -45 -35 -22 -16 -45 -34 -50 -41 -21 -24 -117 -76
-125 -68 -5 5 -1 45 10 94 16 75 17 88 4 108 -17 26 -18 26 -37 8z"/>
<path d="M13001 22939 c-92 -18 -152 -100 -131 -178 16 -60 46 -98 107 -137
94 -60 203 -107 332 -144 75 -21 93 -18 89 19 -2 21 -11 28 -48 39 -114 33
-237 75 -254 87 -23 18 -14 32 27 41 50 11 136 55 152 78 24 33 18 71 -18 118
-58 78 -136 101 -256 77z m159 -68 c43 -22 75 -64 67 -86 -10 -25 -126 -74
-193 -81 -58 -6 -62 -5 -82 21 -22 27 -28 77 -15 110 18 48 158 71 223 36z"/>
<path d="M11349 22907 c-116 -61 -173 -238 -107 -327 35 -48 108 -73 223 -77
76 -2 112 1 149 14 74 27 71 43 -6 43 -178 2 -296 25 -320 63 -17 27 -8 100
19 148 33 61 75 89 135 89 61 0 83 23 52 54 -23 24 -93 20 -145 -7z"/>
<path d="M11843 22807 c-16 -13 -44 -33 -63 -46 -92 -61 -124 -170 -65 -217
54 -43 209 -51 290 -15 92 41 109 77 76 158 -10 26 -22 60 -25 75 -9 41 -50
63 -123 65 -52 1 -68 -2 -90 -20z m126 -61 c7 -8 9 -25 6 -39 -6 -22 -4 -24
18 -20 19 4 28 -1 37 -16 26 -50 -22 -89 -119 -98 -61 -6 -139 14 -155 40 -18
28 24 79 93 115 70 35 102 40 120 18z"/>
<path d="M5490 20585 c-172 -31 -362 -110 -368 -153 -5 -37 23 -36 86 2 72 43
255 105 335 113 70 7 83 -4 62 -55 -19 -43 -39 -68 -143 -178 -218 -227 -241
-258 -223 -292 19 -36 37 -40 176 -47 243 -10 315 -29 315 -81 0 -53 -71 -166
-160 -254 -93 -93 -166 -139 -229 -143 -54 -4 -69 -19 -43 -45 18 -18 25 -19
69 -10 99 21 238 122 328 238 91 118 126 226 90 277 -28 39 -132 64 -290 70
-77 2 -150 6 -162 9 -47 9 -26 43 121 192 218 221 268 300 218 345 -26 24 -95
28 -182 12z"/>
<path d="M3290 20503 c-86 -8 -251 -52 -343 -92 -51 -22 -59 -43 -24 -65 14
-9 28 -5 70 16 170 86 448 126 508 72 29 -26 23 -71 -19 -144 -40 -71 -148
-226 -163 -235 -15 -10 -10 -41 9 -58 10 -9 46 -18 92 -22 92 -8 245 -39 294
-59 59 -25 60 -56 4 -141 -91 -139 -265 -265 -365 -265 -47 0 -65 -18 -43 -45
40 -49 215 25 354 150 85 76 176 207 176 254 0 31 -72 84 -146 109 -37 12
-117 30 -177 39 -68 11 -111 22 -114 30 -3 7 14 38 38 69 93 117 149 220 149
272 0 22 -10 39 -39 65 -51 46 -135 63 -261 50z"/>
<path d="M6375 20493 c-59 -6 -151 -26 -260 -54 -60 -15 -153 -35 -205 -45
-108 -19 -124 -27 -109 -55 6 -13 21 -19 42 -19 34 0 215 43 245 58 9 5 58 19
107 31 50 12 106 26 125 32 19 6 55 9 80 7 42 -3 45 -5 48 -35 2 -18 -10 -64
-28 -110 -18 -43 -43 -107 -57 -142 -36 -89 -127 -263 -172 -330 -21 -31 -66
-87 -100 -124 -52 -58 -60 -71 -51 -87 14 -26 20 -25 57 8 76 68 179 211 250
347 57 111 183 413 183 440 0 16 -12 38 -29 56 -30 29 -45 32 -126 22z"/>
<path d="M4215 20470 c-3 -6 5 -45 19 -88 41 -128 49 -207 49 -499 -1 -150 3
-273 8 -273 8 0 18 31 41 130 8 35 13 134 13 275 0 240 -14 339 -58 419 -22
41 -58 59 -72 36z"/>
<path d="M8630 20321 c-5 -11 -21 -59 -34 -108 -13 -48 -54 -182 -92 -296 -53
-161 -66 -212 -57 -225 5 -9 16 -17 22 -17 15 0 119 270 198 510 9 28 22 59
30 70 17 26 17 50 -3 69 -21 22 -51 20 -64 -3z"/>
<path d="M7846 20289 c-67 -9 -169 -52 -208 -87 -21 -18 -23 -51 -4 -58 17 -7
69 17 121 55 45 33 103 51 165 51 84 0 63 -52 -115 -275 -231 -289 -238 -305
-153 -348 53 -26 178 -39 273 -27 164 21 295 72 295 117 0 15 -51 18 -66 3
-37 -37 -319 -74 -417 -56 -65 12 -58 53 25 153 24 29 61 76 83 104 22 28 65
81 96 118 121 145 139 188 96 230 -29 26 -94 33 -191 20z"/>
<path d="M4805 20254 c-191 -39 -334 -77 -339 -91 -9 -23 12 -53 37 -53 13 0
61 13 107 29 75 26 252 71 280 71 26 0 4 -42 -60 -113 -80 -89 -91 -116 -65
-163 20 -38 36 -50 150 -114 102 -58 106 -74 32 -128 -29 -22 -94 -61 -143
-87 -99 -52 -134 -80 -134 -106 0 -32 20 -31 93 6 182 93 327 197 327 235 0
28 -66 87 -143 127 -76 40 -127 83 -127 107 0 17 115 156 130 156 4 0 18 16
30 36 30 47 17 78 -37 93 -45 13 -49 13 -138 -5z"/>
<path d="M10413 20223 c-40 -44 -126 -180 -176 -279 -34 -67 -37 -70 -89 -87
-77 -24 -210 -23 -265 3 -46 21 -63 54 -44 88 18 34 92 88 179 132 76 38 83
43 80 68 -6 50 -49 41 -168 -36 -142 -92 -191 -154 -170 -216 14 -42 43 -69
105 -98 60 -27 175 -29 243 -4 38 14 44 14 49 0 3 -8 -4 -40 -15 -72 -33 -90
-42 -141 -30 -168 22 -47 52 -25 63 46 23 141 190 473 286 567 39 39 41 45 31
68 -16 35 -38 31 -79 -12z"/>
<path d="M10720 20123 c-63 -9 -121 -27 -197 -60 -70 -30 -83 -39 -83 -59 0
-37 32 -38 112 -1 107 50 175 70 238 71 49 1 55 -1 58 -21 5 -31 -15 -64 -117
-193 -97 -121 -151 -215 -151 -260 0 -51 67 -110 125 -110 14 0 55 7 91 16 51
13 68 22 77 41 16 36 -4 51 -46 34 -75 -31 -114 -35 -143 -17 -54 36 -22 108
151 326 75 95 93 136 81 185 -12 46 -90 65 -196 48z"/>
<path d="M12280 20077 c-144 -49 -155 -54 -155 -77 0 -39 34 -36 143 11 121
52 189 71 199 56 8 -14 -44 -57 -116 -96 -90 -48 -115 -73 -108 -103 6 -21 29
-38 117 -83 199 -102 221 -141 128 -232 -75 -72 -196 -153 -228 -153 -41 0
-56 -24 -36 -55 29 -44 55 -36 176 54 270 199 278 289 37 412 -94 48 -116 63
-117 80 0 3 37 26 82 50 139 74 185 130 142 173 -29 29 -99 19 -264 -37z"/>
<path d="M6866 19658 c-165 -257 -247 -452 -262 -625 -6 -63 -5 -73 9 -73 11
0 18 12 22 38 10 58 64 231 96 300 31 68 138 249 194 326 46 64 45 116 -1 116
-2 0 -28 -37 -58 -82z"/>
<path d="M24602 19688 c-7 -7 -12 -23 -12 -36 0 -31 36 -230 99 -548 61 -308
71 -372 71 -472 0 -74 -1 -79 -25 -90 -30 -14 -33 -44 -5 -72 25 -25 52 -25
75 0 16 17 17 36 12 187 -4 140 -12 204 -46 383 -22 118 -54 307 -72 420 -17
112 -35 212 -40 222 -11 21 -39 24 -57 6z"/>
<path d="M9173 19668 c-31 -34 -150 -265 -204 -397 -35 -87 -44 -121 -37 -134
5 -10 15 -17 21 -15 7 2 57 94 112 205 60 120 117 222 143 252 32 38 43 58 40
79 -4 37 -45 42 -75 10z"/>
<path d="M11260 19660 c-11 -11 -35 -51 -55 -90 -20 -39 -66 -111 -103 -159
-81 -108 -128 -192 -119 -214 11 -29 31 -19 67 34 19 28 68 94 108 147 41 53
83 115 94 137 11 22 31 54 44 72 27 36 31 78 8 87 -22 8 -22 8 -44 -14z"/>
<path d="M14947 19633 c-15 -14 -6 -53 15 -67 45 -32 90 -9 73 36 -10 26 -72
48 -88 31z"/>
<path d="M27770 19605 c-6 -16 -6 -42 -1 -68 5 -23 12 -69 16 -102 4 -33 25
-150 46 -260 22 -110 51 -285 65 -390 32 -243 52 -315 90 -315 21 0 36 37 25
59 -10 18 -28 130 -52 311 -6 52 -29 185 -50 295 -21 110 -45 255 -54 323 -9
67 -21 134 -27 147 -15 33 -46 32 -58 0z"/>
<path d="M27395 19587 c-4 -13 -1 -93 4 -178 6 -85 15 -329 21 -544 6 -214 15
-400 20 -412 12 -29 26 -29 45 1 14 21 14 67 5 417 -12 436 -24 695 -35 722
-11 26 -53 22 -60 -6z"/>
<path d="M14563 19588 c-49 -24 -16 -90 35 -72 22 8 27 16 27 44 0 39 -21 48
-62 28z"/>
<path d="M13838 19495 c-9 -19 -8 -29 6 -50 31 -47 72 2 50 59 -9 24 -43 19
-56 -9z"/>
<path d="M23734 19489 c-29 -32 -23 -118 25 -321 57 -244 81 -391 90 -535 7
-129 17 -157 49 -137 39 25 23 285 -35 544 -61 275 -73 338 -73 391 0 49 -12
79 -30 79 -4 0 -15 -9 -26 -21z"/>
<path d="M12970 19439 c-46 -91 -169 -287 -216 -344 -41 -51 -46 -75 -15 -75
28 0 83 66 201 243 93 140 111 173 108 200 -2 24 -8 33 -25 35 -18 3 -28 -8
-53 -59z"/>
<path d="M28455 19483 c-108 -22 -275 -110 -275 -144 0 -18 45 -8 82 17 21 15
41 24 45 20 4 -3 -6 -32 -21 -64 -77 -164 -72 -429 11 -612 71 -156 174 -202
328 -146 84 30 130 63 209 147 123 130 180 292 166 467 -15 179 -55 243 -180
289 -98 37 -259 48 -365 26z m309 -70 c75 -18 101 -36 133 -90 66 -114 58
-336 -18 -470 -90 -158 -220 -252 -353 -255 -75 -2 -91 7 -135 74 -68 101 -96
229 -88 402 5 118 22 183 65 248 16 25 23 46 20 63 -3 14 0 29 6 33 34 22 274
19 370 -5z"/>
<path d="M23173 19478 c-20 -26 -21 -50 -8 -194 12 -139 109 -649 153 -808 11
-39 35 -54 57 -36 19 16 20 5 -24 205 -64 285 -102 511 -111 655 -6 80 -12
155 -15 168 -6 24 -36 30 -52 10z"/>
<path d="M25805 19454 c-16 -3 -59 -12 -94 -21 -50 -13 -67 -14 -82 -5 -55 35
-189 -39 -273 -150 -96 -125 -138 -300 -106 -439 21 -97 94 -230 158 -292 80
-76 130 -99 209 -99 149 1 299 98 415 268 97 142 140 268 140 405 -1 176 -50
270 -162 308 -58 20 -155 31 -205 25z m191 -92 c53 -27 71 -49 95 -118 76
-215 -96 -580 -325 -692 -87 -42 -122 -47 -195 -26 -109 30 -200 139 -245 293
-32 110 -17 271 36 375 27 52 104 134 148 156 51 25 106 32 121 14 15 -19 29
-18 80 6 38 18 58 20 145 17 74 -4 110 -10 140 -25z"/>
<path d="M12430 18939 c-43 -10 -109 -18 -225 -24 -106 -7 -395 -41 -480 -58
-59 -12 -60 -12 -60 -46 l0 -34 133 0 c73 0 137 4 141 9 5 5 11 18 13 28 3 17
20 22 132 38 71 10 131 16 134 13 16 -15 -24 -45 -139 -105 -68 -36 -137 -73
-154 -82 -52 -30 -338 -169 -385 -188 -25 -10 -77 -33 -115 -50 -39 -18 -92
-43 -120 -55 -27 -13 -86 -40 -130 -60 -44 -20 -120 -55 -170 -77 -49 -22
-114 -51 -143 -64 -29 -13 -56 -24 -61 -24 -5 0 -35 -12 -67 -26 -62 -28 -209
-89 -404 -168 -63 -26 -124 -51 -135 -56 -234 -106 -311 -139 -420 -175 -71
-24 -149 -48 -171 -54 -46 -12 -60 -32 -44 -62 14 -25 38 -24 113 5 34 13 103
38 152 57 50 18 144 57 210 87 66 30 167 76 225 102 98 44 287 126 390 170 25
10 101 41 170 69 143 57 192 78 345 151 121 58 313 145 360 165 120 48 339
159 514 259 84 49 168 92 185 97 48 13 70 33 71 65 0 23 6 29 34 36 38 10 61
5 61 -15 0 -14 -57 -70 -188 -185 -71 -62 -92 -102 -54 -102 9 0 65 42 123 93
58 50 138 117 177 147 70 53 90 84 78 115 -6 16 -40 18 -96 4z"/>
<path d="M10695 18825 c-55 -8 -161 -20 -235 -29 -170 -20 -258 -40 -337 -77
-56 -26 -63 -32 -63 -58 0 -17 5 -33 10 -36 6 -4 44 -9 85 -12 63 -5 75 -3 75
9 0 9 -12 23 -26 33 -14 9 -22 20 -18 24 15 13 123 40 264 65 183 33 228 38
236 25 9 -15 -27 -50 -46 -44 -9 3 -37 -5 -61 -19 -24 -13 -79 -34 -122 -47
-64 -19 -82 -29 -93 -51 -8 -16 -18 -28 -22 -29 -20 -2 -121 -35 -177 -59 -11
-4 -33 -13 -50 -18 -60 -21 -312 -114 -390 -144 -94 -36 -288 -105 -545 -193
-283 -98 -515 -180 -620 -220 -121 -46 -202 -75 -374 -135 -147 -51 -182 -74
-172 -108 11 -33 34 -33 97 -2 33 17 114 51 182 76 67 24 167 62 222 84 160
62 339 129 485 180 203 71 451 159 490 174 99 40 187 72 295 111 226 81 397
154 457 196 27 20 68 26 68 10 0 -4 -9 -20 -20 -34 -24 -30 -25 -41 -5 -57 12
-10 23 -4 65 32 46 40 176 119 347 210 34 18 83 48 108 66 38 27 46 37 43 60
-4 33 -16 35 -153 17z"/>
<path d="M8490 18695 c-25 -7 -90 -23 -145 -35 -219 -47 -370 -91 -435 -124
-37 -20 -45 -28 -45 -52 0 -26 3 -29 30 -28 17 1 62 8 100 17 146 31 264 50
281 43 17 -6 16 -8 -3 -27 -19 -19 -94 -50 -308 -125 -282 -100 -590 -260
-904 -469 -114 -76 -147 -110 -137 -143 12 -38 36 -35 80 11 100 106 576 385
821 482 122 48 260 111 295 135 14 9 34 19 45 22 11 3 28 9 38 13 14 6 17 2
17 -19 0 -49 28 -42 88 21 32 33 71 67 89 76 17 9 38 25 45 36 7 10 44 40 81
66 62 43 68 50 65 79 -4 37 -27 42 -98 21z m-63 -70 c11 -30 -24 -51 -104 -63
-94 -15 -150 -15 -158 -3 -3 6 2 14 12 19 19 10 193 54 236 61 4 0 10 -6 14
-14z"/>
<path d="M6440 18617 c-112 -68 -218 -142 -298 -207 -72 -59 -91 -81 -92 -101
0 -15 7 -32 15 -39 12 -10 23 -4 62 36 26 26 77 66 113 90 36 24 90 61 120 83
30 23 65 48 77 57 47 33 56 -8 18 -76 -59 -105 -110 -229 -157 -380 -82 -263
-91 -322 -56 -344 30 -19 47 12 58 104 16 135 48 254 105 400 29 74 56 151 60
170 12 57 46 130 62 130 21 0 52 -79 60 -150 7 -71 33 -114 55 -92 9 9 13 40
13 95 -1 71 -5 89 -30 135 -36 67 -87 112 -123 111 -15 0 -43 -10 -62 -22z"/>
<path d="M24909 18156 c-2 -3 -72 -5 -154 -6 -217 -2 -586 -18 -701 -30 -54
-5 -166 -17 -249 -26 -82 -9 -244 -31 -360 -50 -115 -19 -248 -37 -295 -41
-89 -6 -110 -14 -110 -43 0 -45 36 -43 445 30 61 10 151 24 200 30 50 5 126
14 170 20 44 5 107 12 140 15 33 3 101 10 150 16 50 6 253 12 453 14 199 2
367 7 372 10 16 10 11 52 -6 59 -18 7 -49 8 -55 2z"/>
<path d="M25685 18100 c-139 -10 -296 -37 -358 -64 -31 -12 -38 -20 -35 -38 4
-31 35 -34 111 -9 137 44 225 53 567 54 179 1 357 0 395 -3 69 -5 70 -5 70 19
0 19 -7 27 -30 33 -44 12 -569 18 -720 8z"/>
<path d="M27265 17975 c-71 -7 -156 -15 -188 -18 -67 -5 -82 -15 -72 -47 8
-25 -13 -26 280 5 162 16 436 18 695 4 196 -11 876 -18 993 -11 74 4 90 8 98
25 9 15 7 23 -7 38 -17 16 -24 17 -64 6 -47 -12 -818 -15 -950 -3 -149 14
-656 14 -785 1z"/>
<path d="M23361 17691 c-20 -37 -41 -207 -41 -332 0 -69 -3 -128 -6 -132 -3
-3 -21 4 -40 15 -50 30 -128 29 -187 -1 -57 -29 -75 -49 -92 -97 -16 -46 -6
-93 30 -140 53 -69 131 -80 275 -41 91 25 223 74 304 113 31 15 68 24 97 24
49 0 184 53 221 87 37 33 15 89 -49 122 -26 13 -89 14 -129 2 -16 -5 -51 -12
-78 -16 -87 -12 -132 -84 -90 -144 15 -21 15 -24 -2 -40 -22 -21 -230 -85
-327 -102 -37 -6 -84 -8 -103 -4 -47 8 -84 46 -84 84 0 71 45 113 124 115 65
1 99 -20 128 -79 23 -47 44 -63 62 -45 7 7 11 81 12 203 1 106 7 219 13 252
22 107 24 144 11 160 -17 20 -37 19 -49 -4z m497 -433 c19 -19 14 -45 -10 -62
-29 -21 -39 -9 -31 37 6 38 20 46 41 25z m-108 -40 c0 -10 -12 -30 -27 -44
-47 -44 -104 -18 -89 40 6 24 11 27 34 22 15 -3 33 -2 41 3 20 13 41 2 41 -21z"/>
<path d="M5625 17500 c-70 -22 -137 -82 -156 -137 -34 -103 18 -211 128 -265
66 -32 93 -32 93 2 0 14 -11 26 -34 35 -53 22 -93 62 -111 110 -38 98 17 168
147 190 58 9 76 65 25 79 -28 7 -21 8 -92 -14z"/>
<path d="M6867 17468 c-18 -24 -46 -64 -61 -90 -15 -27 -31 -48 -36 -48 -6 0
-9 21 -7 48 2 42 0 47 -21 50 -19 3 -27 -6 -47 -50 -13 -29 -32 -84 -42 -121
-17 -64 -17 -68 0 -84 16 -16 20 -16 45 -3 15 9 52 56 84 109 66 108 89 136
98 121 4 -6 3 -30 -1 -53 -14 -72 -11 -112 11 -132 30 -27 62 -12 121 59 30
36 60 65 67 65 8 1 12 -20 12 -74 0 -67 3 -79 25 -100 42 -43 96 -21 67 26 -7
11 -12 62 -12 127 0 81 -4 113 -16 130 -24 35 -46 27 -81 -30 -35 -59 -109
-135 -120 -125 -4 4 -2 44 5 89 10 70 10 85 -3 105 -23 34 -50 28 -88 -19z"/>
<path d="M7693 17495 c-12 -8 -42 -44 -68 -80 -49 -69 -72 -83 -61 -37 18 76
18 98 1 112 -30 25 -48 -1 -81 -112 -16 -58 -40 -129 -53 -158 -27 -63 -22
-100 13 -100 30 0 51 26 105 129 43 82 123 182 137 168 4 -4 1 -42 -6 -85 -7
-42 -14 -97 -14 -122 -1 -43 0 -45 29 -48 25 -2 43 9 104 63 41 36 78 65 83
65 4 0 8 -24 8 -53 0 -57 24 -95 53 -84 22 8 38 172 21 215 -19 47 -45 41
-101 -23 -44 -52 -100 -92 -111 -80 -3 3 0 34 6 69 17 93 15 133 -8 156 -24
24 -29 24 -57 5z"/>
<path d="M8286 17490 c-96 -38 -171 -147 -183 -265 -5 -48 -3 -56 20 -79 14
-14 36 -26 49 -26 40 1 106 37 162 90 29 27 56 50 59 50 3 0 10 -15 16 -33 7
-19 24 -46 40 -61 47 -45 68 -13 35 53 -13 26 -15 51 -9 144 8 132 7 134 -81
142 -45 4 -71 0 -108 -15z m110 -65 c4 -8 3 -31 -1 -51 -12 -64 -143 -184
-201 -184 -14 0 -16 7 -11 49 9 80 57 153 122 189 30 17 85 15 91 -3z"/>
<path d="M25265 17500 c-8 -13 -7 -412 1 -462 7 -43 38 -78 55 -61 17 17 15
498 -1 518 -14 17 -46 20 -55 5z"/>
<path d="M6126 17430 c-63 -25 -82 -43 -114 -110 -58 -121 -13 -214 109 -224
108 -9 312 104 349 194 24 58 -31 124 -125 149 -62 17 -164 13 -219 -9z m242
-62 c46 -28 52 -62 16 -99 -41 -43 -167 -100 -234 -106 -65 -6 -79 4 -87 65
-10 75 70 131 168 118 l49 -7 0 32 c0 29 2 31 28 24 15 -3 42 -16 60 -27z"/>
<path d="M28945 17440 c-4 -6 -13 -59 -21 -117 -8 -58 -19 -112 -25 -119 -6
-8 -28 -14 -48 -14 -118 0 -171 -22 -155 -64 9 -23 30 -26 71 -12 61 21 113
27 119 13 2 -7 -2 -35 -11 -62 -19 -63 -19 -105 -1 -105 21 0 32 19 56 100 12
41 29 80 36 86 8 6 53 19 102 29 83 16 212 62 260 93 12 8 22 12 22 9 0 -2
-14 -69 -31 -148 -26 -123 -36 -226 -30 -311 1 -23 43 -33 73 -18 12 6 61 52
108 101 47 49 91 89 97 89 6 0 24 -33 39 -72 29 -76 41 -98 54 -98 20 0 18 40
-6 110 -29 87 -67 127 -109 116 -13 -3 -52 -39 -88 -78 -68 -76 -121 -116
-132 -98 -7 12 1 65 25 150 10 36 20 76 23 90 2 14 17 69 31 124 30 108 30
153 3 170 -15 9 -22 6 -40 -19 -42 -58 -91 -96 -147 -111 -30 -9 -90 -27 -133
-40 -113 -35 -111 -36 -101 39 4 34 8 87 9 117 0 49 -2 55 -22 58 -11 2 -24
-2 -28 -8z"/>
<path d="M24260 17400 c-18 -22 -60 -56 -95 -76 -79 -44 -125 -85 -125 -113 0
-29 43 -55 77 -46 27 6 116 89 140 130 10 18 12 15 12 -21 1 -23 -4 -99 -9
-170 -18 -219 -56 -358 -114 -421 -26 -28 -39 -35 -76 -37 -37 -2 -46 -6 -48
-23 -8 -57 92 -48 153 13 94 94 144 280 161 606 10 182 -16 234 -76 158z"/>
<path d="M9066 17416 c-57 -10 -74 -18 -97 -44 -36 -40 -36 -66 -2 -132 21
-40 25 -57 17 -77 -19 -54 -156 -107 -264 -101 l-65 3 0 -29 c0 -26 5 -31 35
-39 85 -22 246 28 328 102 44 41 48 69 21 151 -27 84 -22 94 59 111 63 13 89
34 71 56 -13 15 -12 15 -103 -1z"/>
<path d="M26032 17398 c-6 -13 -23 -52 -36 -87 -14 -35 -40 -86 -57 -112 -35
-56 -105 -122 -119 -114 -15 9 -12 86 6 138 20 59 16 91 -13 95 -37 5 -67 -66
-67 -161 -1 -76 0 -79 32 -108 54 -48 101 -34 175 53 68 81 145 256 132 299
-9 26 -39 24 -53 -3z"/>
<path d="M26267 17370 c-68 -21 -137 -107 -137 -173 0 -33 -6 -34 -29 -5 -19
23 -41 18 -41 -11 0 -21 36 -56 67 -65 11 -4 28 -17 36 -30 43 -66 254 -160
345 -154 43 3 47 5 47 28 0 24 -4 26 -80 36 -107 16 -155 30 -196 57 -56 38
-51 59 26 91 82 36 115 72 115 130 0 34 -6 48 -33 74 -34 33 -64 39 -120 22z
m81 -83 c5 -40 -20 -73 -74 -96 -79 -36 -91 -24 -54 57 32 70 122 97 128 39z"/>
<path d="M27341 17326 c-22 -26 -33 -146 -26 -281 8 -161 9 -165 45 -165 32 0
64 33 155 160 33 46 79 104 101 129 38 41 42 43 52 25 5 -10 17 -57 26 -103 8
-46 21 -89 27 -97 38 -46 155 24 209 126 13 24 14 23 27 -38 7 -35 18 -75 25
-89 29 -60 83 -54 59 5 -7 17 -16 68 -20 115 -8 86 -28 137 -55 137 -14 0 -59
-53 -95 -113 -13 -20 -39 -49 -58 -64 -42 -32 -48 -25 -58 57 -9 79 -42 134
-81 138 -41 4 -110 -58 -205 -184 -39 -52 -75 -94 -81 -94 -8 0 -9 39 -3 128
13 220 13 217 -11 220 -11 2 -26 -4 -33 -12z"/>
<path d="M25515 17282 c-15 -22 -37 -43 -51 -46 -27 -7 -33 -40 -9 -49 11 -5
13 -19 9 -69 -7 -85 13 -125 78 -151 59 -24 90 -17 135 28 25 25 33 41 33 69
0 68 -31 117 -95 150 -26 14 -30 21 -30 58 0 37 -3 43 -22 46 -16 2 -29 -7
-48 -36z m75 -107 c37 -19 50 -43 50 -91 0 -45 -23 -74 -60 -74 -43 0 -54 21
-47 96 6 62 12 84 23 84 3 0 18 -7 34 -15z"/>
<path d="M28280 17159 c-50 -23 -137 -109 -146 -145 -17 -68 30 -101 116 -83
48 10 152 70 179 102 19 24 41 21 41 -5 0 -12 9 -41 21 -64 32 -67 112 -85
168 -38 51 42 36 95 -15 55 -35 -27 -90 -28 -104 -2 -5 11 -9 49 -8 86 1 38
-3 70 -10 77 -40 40 -171 49 -242 17z m140 -40 c0 -27 -85 -95 -157 -125 -45
-19 -53 -18 -53 9 0 46 124 136 188 137 16 0 22 -6 22 -21z"/>
<path d="M2845 16035 c-5 -2 -29 -9 -52 -15 -23 -6 -48 -16 -55 -23 -7 -7 -27
-19 -44 -26 -60 -24 -143 -133 -188 -244 -19 -49 -31 -103 -39 -187 -11 -111
-13 -118 -30 -108 -13 7 -22 7 -29 0 -14 -14 7 -49 41 -66 26 -14 29 -21 34
-85 3 -39 15 -107 27 -153 12 -46 28 -112 37 -148 21 -88 70 -235 94 -281 18
-36 45 -59 68 -59 18 0 13 50 -8 84 -11 17 -29 56 -41 86 -51 127 -143 474
-138 517 3 28 3 28 93 34 90 6 106 11 235 74 262 126 460 303 460 410 0 69
-66 126 -195 169 -64 21 -98 26 -170 25 -50 0 -94 -2 -100 -4z m230 -51 c101
-24 165 -73 165 -126 0 -115 -223 -303 -485 -409 -43 -18 -180 -59 -195 -59
-39 0 -54 25 -52 91 2 135 49 291 111 369 58 73 65 80 76 80 6 0 22 8 35 17
80 56 204 69 345 37z"/>
<path d="M11425 15823 c-82 -19 -182 -63 -250 -107 -141 -93 -236 -215 -290
-372 -24 -70 -27 -89 -23 -179 6 -123 29 -189 93 -262 65 -74 216 -140 290
-125 41 7 23 26 -41 43 -169 45 -246 125 -275 283 -28 150 41 346 168 478 104
107 265 187 379 188 39 0 53 4 58 16 14 36 -39 54 -109 37z"/>
<path d="M16944 15755 c-4 -9 9 -32 33 -58 31 -34 48 -68 83 -172 42 -125 44
-135 44 -250 0 -109 -3 -129 -32 -214 -55 -160 -88 -218 -168 -297 -40 -40
-87 -80 -103 -90 -17 -10 -31 -21 -31 -25 0 -16 72 11 126 48 124 85 189 182
245 368 19 64 24 101 23 190 0 103 -3 118 -42 229 -53 150 -81 212 -116 254
-30 35 -53 41 -62 17z"/>
<path d="M4986 15570 c-63 -25 -140 -99 -176 -170 -15 -30 -35 -90 -45 -132
l-17 -77 -36 -5 c-21 -3 -64 -8 -97 -12 -85 -8 -95 -12 -95 -38 0 -44 21 -48
100 -21 41 14 85 25 100 25 26 0 26 -1 22 -64 -4 -67 13 -222 28 -245 4 -8 13
-10 19 -7 7 5 11 60 11 166 0 193 -9 183 163 188 164 6 177 -4 215 -173 11
-49 23 -117 27 -150 4 -33 11 -68 16 -77 11 -20 34 -24 45 -7 19 31 -10 245
-47 343 -27 75 -62 104 -138 117 -52 10 -79 8 -153 -6 -62 -12 -93 -14 -100
-7 -22 22 26 160 78 226 43 55 121 90 188 84 30 -2 66 -12 81 -22 25 -17 26
-19 10 -36 -23 -25 -15 -53 18 -65 25 -8 31 -6 48 15 28 37 23 62 -18 102 -51
48 -72 57 -140 63 -44 4 -70 0 -107 -15z"/>
<path d="M9261 15525 c-44 -38 -171 -192 -233 -282 -29 -43 -75 -123 -103
-177 -27 -55 -55 -101 -61 -103 -6 -2 -22 13 -36 34 -40 61 -134 149 -183 172
-25 11 -60 21 -78 21 -40 0 -96 -35 -114 -70 -21 -41 -16 -129 11 -186 47
-101 120 -150 267 -180 97 -20 250 -14 337 11 43 13 60 14 89 4 123 -40 338
60 440 205 l20 29 34 -24 c19 -13 61 -38 95 -55 74 -37 134 -82 134 -100 0
-28 -43 -37 -178 -35 -74 1 -150 -2 -169 -5 -30 -6 -34 -10 -31 -33 l3 -26
160 -1 c183 -2 255 11 281 51 15 23 15 27 -6 60 -28 46 -107 105 -192 145 -60
28 -68 35 -74 66 -3 19 -10 34 -15 34 -5 0 -9 9 -9 19 0 14 13 24 48 35 89 31
168 31 270 1 19 -7 22 -4 22 24 0 44 -38 61 -138 61 -83 0 -144 -16 -218 -57
-45 -25 -59 -49 -55 -97 1 -25 -11 -43 -76 -109 -79 -79 -126 -113 -143 -102
-17 11 -11 34 13 46 28 15 62 54 88 102 26 49 19 84 -26 127 -67 65 -188 48
-301 -41 -86 -68 -113 -142 -83 -228 7 -20 8 -36 2 -42 -17 -17 -197 -23 -280
-9 -96 15 -190 56 -225 99 -64 75 -62 195 3 222 25 10 36 9 63 -3 52 -25 146
-118 193 -190 23 -38 49 -68 57 -68 8 0 32 30 52 68 138 252 255 418 358 506
61 52 66 64 37 90 -17 16 -20 15 -50 -9z m124 -427 c52 -24 40 -103 -25 -162
-44 -40 -139 -90 -187 -99 -44 -9 -63 20 -63 90 0 47 4 58 37 94 68 75 170
108 238 77z"/>
<path d="M4025 15362 c-85 -32 -111 -49 -167 -111 l-54 -60 -54 55 c-64 66
-96 84 -147 84 -99 0 -236 -115 -303 -255 -43 -89 -59 -145 -61 -226 -2 -67 6
-96 33 -110 25 -13 40 -1 40 32 -1 13 -2 56 -2 96 -4 160 86 325 212 389 76
39 95 34 190 -50 l56 -48 -1 -67 c-1 -90 17 -145 64 -196 51 -56 122 -86 219
-92 62 -5 78 -3 89 11 8 9 11 19 8 22 -3 3 -38 10 -79 15 -127 16 -184 43
-211 101 -18 41 -32 144 -19 152 5 3 38 -6 73 -20 57 -24 73 -26 149 -21 98 6
134 18 173 55 116 110 64 248 -97 259 -43 2 -76 -2 -111 -15z m188 -64 c35
-41 16 -115 -40 -149 -28 -17 -55 -22 -141 -26 -95 -4 -111 -2 -139 16 -18 11
-33 27 -33 35 0 19 81 89 128 112 97 46 191 51 225 12z"/>
<path d="M7484 15321 c-118 -43 -191 -99 -229 -174 -35 -70 -35 -180 -1 -252
35 -75 85 -118 138 -119 36 -1 43 2 43 18 0 14 -12 23 -42 33 -54 18 -81 56
-93 128 -27 169 78 300 251 313 88 6 155 -16 198 -65 32 -36 34 -36 47 -18 19
26 18 29 -16 68 -62 71 -201 103 -296 68z"/>
<path d="M8032 15279 c-84 -10 -126 -35 -130 -77 -4 -43 21 -53 52 -20 73 80
264 54 340 -45 75 -99 73 -197 -6 -245 -33 -20 -180 -52 -234 -51 -55 1 -97
22 -105 53 -10 38 5 66 36 66 25 0 55 24 55 44 0 23 -36 46 -72 46 -52 0 -81
-36 -85 -108 -5 -64 15 -107 62 -138 39 -26 164 -30 245 -10 143 37 200 86
208 182 4 48 0 64 -32 129 -67 135 -178 193 -334 174z"/>
<path d="M5520 15259 c0 -12 27 -62 60 -111 33 -50 60 -94 60 -98 0 -5 -24
-25 -52 -44 -29 -19 -71 -53 -92 -75 -36 -37 -38 -43 -28 -66 6 -14 18 -25 26
-25 8 0 52 39 99 86 l85 86 68 -69 c38 -39 88 -82 111 -96 23 -14 44 -31 48
-37 3 -5 15 -10 26 -10 14 0 19 7 19 25 0 19 -14 34 -61 65 -78 54 -152 125
-147 142 6 16 58 45 223 120 140 64 160 77 147 90 -7 7 -131 -22 -170 -41 -9
-4 -68 -33 -130 -65 -62 -31 -117 -54 -121 -52 -4 3 -27 38 -50 78 -24 40 -53
83 -64 96 -27 29 -57 29 -57 1z"/>
<path d="M6195 15270 c4 -6 11 -8 16 -5 14 9 11 15 -7 15 -8 0 -12 -5 -9 -10z"/>
<path d="M11682 15193 c-37 -53 -60 -109 -72 -174 -6 -35 -17 -85 -25 -111
-12 -42 -12 -49 3 -67 21 -24 36 -27 87 -17 34 6 60 28 175 145 150 152 185
180 202 163 6 -6 15 -60 20 -119 5 -60 12 -137 15 -171 5 -66 26 -102 59 -102
13 0 15 7 11 38 -4 20 -9 107 -13 192 -4 99 -12 165 -20 182 -16 32 -49 52
-67 42 -41 -25 -182 -139 -253 -205 -46 -42 -97 -87 -114 -99 -27 -19 -31 -20
-36 -5 -14 36 32 198 72 257 21 30 24 40 14 57 -15 29 -35 26 -58 -6z"/>
<path d="M13805 15191 c-104 -42 -150 -78 -220 -176 -131 -183 -98 -308 92
-356 48 -11 54 -11 73 6 29 27 21 30 -84 34 -10 1 -36 19 -59 41 -39 40 -40
42 -34 96 7 66 41 128 111 203 62 65 127 99 205 107 50 6 67 3 117 -20 52 -24
59 -25 73 -11 12 12 13 19 5 33 -36 56 -186 79 -279 43z"/>
<path d="M16525 15181 c-42 -8 -93 -38 -105 -60 -11 -22 -1 -60 21 -77 8 -6
41 -21 74 -33 33 -13 68 -27 78 -32 9 -5 42 -18 71 -30 72 -26 136 -74 136
-100 0 -44 -154 -66 -245 -34 -46 16 -50 15 -41 -19 11 -43 57 -59 148 -51
307 26 265 149 -97 285 -75 28 -94 44 -79 68 16 25 73 51 115 52 37 0 124 -25
147 -43 9 -7 18 -6 29 6 14 14 14 18 2 33 -24 30 -75 44 -151 43 -40 -1 -86
-4 -103 -8z"/>
<path d="M12552 15160 c-40 -9 -82 -46 -82 -73 0 -10 -7 -44 -16 -75 -30 -101
-2 -208 62 -243 18 -9 56 -14 108 -14 67 1 90 5 136 28 129 63 161 117 120
203 -26 52 -98 127 -150 153 -41 21 -130 31 -178 21z m139 -60 c34 -17 108
-90 125 -122 27 -51 19 -84 -29 -116 -47 -33 -133 -62 -183 -62 -20 0 -44 9
-60 23 -56 49 -39 195 32 272 28 31 35 33 61 26 17 -5 41 -14 54 -21z"/>
<path d="M15977 15143 c-74 -22 -156 -120 -157 -189 0 -31 35 -71 76 -84 67
-22 142 -5 233 55 l81 53 0 -62 c0 -77 16 -110 54 -114 26 -3 28 -2 20 20 -4
13 -7 58 -6 101 4 120 -18 142 -86 87 -84 -67 -249 -122 -290 -96 -34 21 6
115 67 161 53 38 79 34 163 -27 27 -19 45 3 30 36 -25 55 -108 82 -185 59z"/>
<path d="M15467 15041 c-19 -27 -43 -63 -51 -80 -20 -37 -36 -40 -36 -7 0 28
-24 51 -44 43 -8 -3 -31 -58 -52 -123 -38 -121 -38 -135 0 -158 25 -15 61 30
118 147 25 51 55 103 67 117 l22 25 -5 -71 c-7 -81 2 -100 51 -110 29 -6 38
-1 91 50 32 31 61 56 64 56 3 0 11 -27 17 -60 13 -65 50 -120 82 -120 23 0 23
3 4 39 -8 16 -18 62 -23 103 -15 122 -39 144 -89 87 -16 -17 -48 -47 -72 -66
-54 -41 -62 -33 -50 51 6 44 4 68 -6 93 -20 48 -46 43 -88 -16z"/>
<path d="M14262 15040 c-57 -9 -121 -46 -141 -83 -15 -30 -9 -185 10 -215 44
-69 190 -66 273 7 27 24 56 86 56 121 0 36 -23 96 -48 123 -15 17 -86 59 -94
56 -2 -1 -27 -5 -56 -9z m87 -64 c41 -42 54 -119 28 -160 -36 -54 -135 -88
-172 -60 -16 12 -20 26 -19 70 0 52 3 57 42 92 23 20 46 49 52 65 13 36 29 34
69 -7z"/>
<path d="M14780 14968 c-22 -35 -52 -80 -67 -100 -40 -57 -59 -48 -27 13 18
35 10 69 -16 69 -23 0 -44 -32 -76 -117 -39 -104 -39 -105 -19 -119 45 -33 80
-9 169 119 26 37 49 67 51 67 2 0 2 -28 -2 -63 -4 -51 -2 -66 11 -80 40 -40
94 -15 197 93 31 33 60 56 63 51 3 -5 5 -36 4 -69 -2 -61 11 -92 37 -92 19 0
24 19 30 117 5 74 3 94 -12 123 -30 58 -52 51 -106 -29 -48 -72 -143 -159
-158 -144 -5 5 -2 47 6 93 13 75 13 86 0 107 -24 36 -42 28 -85 -39z"/>
<path d="M18903 13859 c-28 -10 -30 -29 -4 -29 25 0 51 10 51 20 0 13 -24 18
-47 9z"/>
<path d="M18732 13849 c2 -6 7 -10 11 -10 4 1 14 1 22 1 8 0 15 5 15 10 0 6
-12 10 -26 10 -14 0 -24 -5 -22 -11z"/>
<path d="M18805 13850 c3 -5 15 -10 26 -10 11 0 17 5 14 10 -3 6 -15 10 -26
10 -11 0 -17 -4 -14 -10z"/>
<path d="M19085 13850 c3 -5 17 -10 31 -10 13 0 24 5 24 10 0 6 -14 10 -31 10
-17 0 -28 -4 -24 -10z"/>
<path d="M18620 13840 c0 -5 7 -10 15 -10 8 0 15 5 15 10 0 6 -7 10 -15 10 -8
0 -15 -4 -15 -10z"/>
<path d="M19660 13840 c0 -5 5 -10 10 -10 6 0 10 5 10 10 0 6 -4 10 -10 10 -5
0 -10 -4 -10 -10z"/>
<path d="M18470 13830 c0 -17 107 -16 125 1 5 5 -17 9 -58 9 -38 0 -67 -4 -67
-10z"/>
<path d="M19770 13832 c0 -11 69 -27 78 -18 9 9 0 14 -40 21 -24 5 -38 3 -38
-3z"/>
<path d="M18193 13823 c-52 -7 -39 -24 15 -21 26 2 46 8 45 13 -2 12 -16 14
-60 8z"/>
<path d="M19946 13821 c-3 -5 25 -14 62 -20 37 -7 92 -16 122 -22 67 -12 83
-14 235 -29 66 -6 138 -15 159 -20 23 -5 47 -5 57 0 19 11 258 -25 273 -40 17
-17 55 -11 66 10 9 17 7 22 -14 30 -49 18 -227 38 -268 29 -29 -7 -46 -5 -68
6 -16 8 -49 15 -72 14 -24 0 -99 6 -168 14 -69 9 -174 19 -235 22 -60 3 -117
8 -127 11 -9 3 -19 1 -22 -5z"/>
<path d="M18298 13813 c7 -3 16 -2 19 1 4 3 -2 6 -13 5 -11 0 -14 -3 -6 -6z"/>
<path d="M17975 13800 c-8 -13 15 -24 27 -12 6 6 4 11 -6 15 -8 3 -18 2 -21
-3z"/>
<path d="M17670 13778 l-25 -11 24 -5 c13 -2 40 -1 59 3 26 5 32 9 21 16 -18
12 -48 10 -79 -3z"/>
<path d="M17416 13752 c-3 -5 24 -9 60 -10 37 -1 64 2 64 8 0 12 -117 14 -124
2z"/>
<path d="M17330 13740 c0 -12 17 -12 45 0 17 7 15 9 -12 9 -18 1 -33 -3 -33
-9z"/>
<path d="M17258 13733 c7 -3 16 -2 19 1 4 3 -2 6 -13 5 -11 0 -14 -3 -6 -6z"/>
<path d="M20954 13711 c4 -6 17 -11 30 -11 12 0 26 -4 32 -9 9 -9 35 -16 194
-45 124 -23 182 -36 205 -46 48 -21 238 -49 222 -33 -13 12 -174 60 -232 68
-11 2 -20 4 -20 5 0 2 -99 23 -190 40 -33 6 -76 15 -95 20 -63 16 -153 23
-146 11z"/>
<path d="M16820 13690 c0 -5 7 -10 15 -10 8 0 15 5 15 10 0 6 -7 10 -15 10 -8
0 -15 -4 -15 -10z"/>
<path d="M16268 13660 c-26 -5 -75 -11 -110 -14 -141 -14 -219 -36 -354 -101
-77 -38 -103 -57 -175 -132 -99 -103 -159 -202 -308 -503 -56 -111 -105 -208
-109 -214 -5 -6 -35 -67 -67 -136 -65 -141 -123 -295 -184 -485 -23 -71 -53
-166 -67 -210 -15 -44 -41 -132 -59 -195 -18 -63 -38 -128 -45 -145 -33 -84
-118 -405 -175 -655 -21 -95 -70 -299 -145 -605 -81 -329 -128 -580 -170 -910
-63 -485 -108 -760 -210 -1265 -104 -522 -153 -817 -199 -1220 -11 -96 -30
-258 -42 -360 -30 -246 -32 -537 -6 -625 24 -78 58 -151 94 -197 32 -43 218
-190 278 -220 372 -191 616 -279 1010 -366 180 -40 572 -121 665 -137 52 -10
113 -21 135 -26 22 -5 74 -16 115 -24 70 -13 108 -21 285 -60 39 -9 129 -27
200 -40 72 -13 162 -31 200 -39 39 -9 169 -31 290 -51 121 -19 263 -44 315
-55 52 -10 149 -29 215 -41 66 -12 183 -35 260 -51 77 -16 187 -37 245 -48 58
-10 127 -24 155 -30 27 -6 79 -15 115 -20 36 -5 103 -15 150 -24 47 -8 140
-22 205 -30 132 -17 263 -38 370 -61 39 -8 87 -17 107 -20 21 -2 59 -10 84
-15 26 -6 63 -12 84 -14 21 -2 62 -11 91 -19 30 -8 79 -18 109 -22 30 -4 66
-12 80 -18 14 -5 50 -13 80 -18 51 -7 147 -27 385 -81 50 -11 111 -24 138 -27
26 -4 53 -13 59 -19 7 -7 21 -12 32 -12 19 0 97 -20 286 -72 41 -11 100 -27
130 -34 73 -18 412 -112 515 -143 56 -17 95 -23 95 -13 0 5 -10 13 -22 19 -72
33 -101 43 -123 43 -13 0 -26 4 -29 9 -3 5 -23 12 -43 16 -21 3 -90 22 -153
42 -166 51 -396 114 -485 133 -22 5 -74 18 -115 29 -41 11 -104 25 -140 31
-36 6 -74 15 -85 20 -11 5 -54 17 -95 25 -41 9 -102 23 -135 30 -217 51 -297
68 -350 76 -33 5 -66 12 -74 14 -8 3 -73 17 -145 31 -72 13 -140 27 -151 30
-11 2 -76 13 -145 24 -69 11 -161 26 -205 34 -85 15 -108 19 -225 36 -41 6
-109 17 -150 25 -385 71 -503 94 -575 110 -70 16 -258 54 -330 66 -27 4 -88
15 -135 23 -47 8 -143 23 -215 35 -221 35 -309 51 -495 91 -80 17 -165 35
-190 40 -25 5 -63 13 -85 19 -64 15 -325 71 -380 81 -109 20 -373 70 -415 79
-586 125 -762 168 -914 222 -61 22 -124 46 -141 54 -16 7 -59 25 -95 38 -199
76 -418 202 -547 315 -130 113 -180 311 -153 606 30 340 73 712 131 1141 13
100 59 344 109 585 92 440 133 678 179 1040 17 129 35 264 40 300 58 388 79
500 143 780 21 96 57 243 77 325 21 83 48 192 60 243 11 50 31 134 42 185 28
121 106 429 125 492 8 28 21 73 29 100 23 80 122 396 182 580 119 367 319 810
501 1109 114 189 219 299 337 355 44 21 105 45 135 54 30 9 78 23 106 31 28 9
82 18 120 21 38 3 78 9 89 12 11 4 31 5 45 4 39 -5 170 10 170 19 0 10 -169
10 -232 0z"/>
<path d="M21685 13541 c11 -10 49 -26 85 -34 72 -17 147 -37 230 -63 30 -9 86
-25 125 -35 38 -11 74 -24 79 -29 6 -6 19 -10 31 -10 11 0 39 -9 61 -19 56
-25 104 -35 104 -22 0 6 -6 11 -14 11 -8 0 -49 16 -90 35 -42 19 -83 35 -91
35 -8 0 -33 9 -55 21 -22 12 -55 25 -73 29 -17 4 -77 22 -132 40 -89 29 -225
59 -265 60 -11 0 -10 -5 5 -19z"/>
<path d="M22465 13290 c3 -5 14 -10 24 -10 9 0 22 -5 29 -12 7 -7 12 -8 12 -2
0 11 -42 34 -61 34 -6 0 -7 -4 -4 -10z"/>
<path d="M22590 13235 c7 -8 20 -15 29 -15 13 1 13 3 -3 15 -26 19 -42 19 -26
0z"/>
<path d="M22690 13196 c0 -2 18 -13 40 -25 22 -11 40 -17 40 -12 0 5 -14 17
-32 25 -30 16 -48 20 -48 12z"/>
<path d="M20755 13160 c-3 -5 -3 -21 1 -35 9 -36 -3 -46 -205 -194 -234 -170
-345 -255 -546 -421 -33 -27 -91 -74 -130 -104 -38 -30 -95 -76 -126 -103 -31
-26 -82 -69 -114 -95 -60 -50 -165 -143 -274 -243 -36 -33 -96 -86 -132 -117
l-66 -58 -54 31 c-30 16 -66 38 -80 47 -161 103 -332 183 -629 292 -47 17 -94
35 -105 40 -42 19 -114 39 -219 60 -92 18 -154 22 -375 25 -147 2 -291 -1
-321 -6 -30 -5 -80 -11 -110 -14 -172 -16 -460 -51 -502 -63 -20 -5 -39 -7
-42 -4 -3 2 -18 0 -33 -6 -15 -5 -55 -16 -88 -22 -132 -28 -298 -80 -413 -129
-120 -52 -388 -218 -456 -283 -16 -15 -33 -28 -37 -28 -5 0 -51 -38 -103 -85
-134 -121 -252 -267 -407 -505 -209 -320 -249 -444 -249 -766 0 -250 71 -419
250 -593 59 -57 206 -173 270 -213 14 -9 57 -36 96 -61 142 -91 347 -174 504
-204 41 -8 98 -19 125 -24 28 -5 111 -16 185 -24 74 -9 142 -17 150 -20 57
-17 390 -25 615 -16 292 12 675 53 753 81 32 12 44 30 20 30 -7 0 -40 -5 -73
-11 -33 -6 -80 -12 -105 -15 -25 -2 -83 -8 -130 -14 -96 -11 -391 -27 -645
-35 -187 -7 -430 7 -570 30 -49 9 -117 20 -150 26 -141 23 -349 81 -440 122
-149 67 -360 196 -484 296 -97 78 -212 215 -265 318 -66 130 -80 458 -27 666
44 168 246 508 462 773 51 63 212 211 279 257 100 69 145 98 220 144 86 53
196 109 260 133 19 7 49 18 65 25 29 12 121 41 220 69 75 21 223 54 280 61 28
3 70 10 95 15 25 5 83 12 130 15 47 2 135 9 195 14 472 41 911 6 1122 -90 23
-10 46 -19 50 -19 21 0 417 -171 488 -210 44 -25 112 -61 150 -80 63 -33 71
-40 75 -71 4 -29 8 -34 30 -31 65 9 91 5 118 -19 15 -14 45 -36 67 -50 40 -26
131 -86 215 -143 60 -41 117 -101 124 -132 5 -17 1 -35 -9 -51 -20 -30 -16
-77 6 -81 24 -4 59 58 59 104 0 44 -36 106 -91 155 -45 41 -172 125 -284 188
-103 57 -115 67 -115 85 0 8 44 53 98 102 53 48 109 99 123 114 34 34 193 170
232 198 18 13 61 49 97 80 36 32 110 93 165 137 55 43 141 111 192 151 144
115 400 305 493 367 47 31 110 77 140 103 l54 46 41 -44 c22 -25 79 -87 127
-139 48 -52 123 -139 167 -194 95 -118 510 -548 729 -755 84 -80 168 -159 187
-177 18 -18 43 -50 56 -72 12 -22 29 -43 37 -46 21 -8 42 14 42 45 0 21 -16
40 -77 92 -84 71 -477 458 -664 653 -63 66 -171 188 -239 270 -307 370 -445
503 -475 455z"/>
<path d="M22920 13075 c0 -8 7 -15 15 -15 8 0 15 4 15 9 0 5 -7 11 -15 15 -9
3 -15 0 -15 -9z"/>
<path d="M14747 12099 c-17 -85 -27 -178 -21 -192 9 -24 23 -21 34 7 14 37 16
184 2 198 -8 8 -12 5 -15 -13z"/>
<path d="M14220 12020 c0 -5 5 -10 10 -10 6 0 10 5 10 10 0 6 -4 10 -10 10 -5
0 -10 -4 -10 -10z"/>
<path d="M1585 11927 c-16 -40 -35 -177 -35 -259 0 -32 7 -104 16 -161 9 -56
18 -124 19 -152 2 -68 12 -95 35 -95 38 0 51 41 61 187 11 155 31 251 64 303
65 103 79 75 130 -246 19 -122 39 -233 46 -247 26 -57 57 -17 40 50 -5 21 -15
94 -21 163 -14 147 -34 264 -56 317 -21 50 -61 103 -79 103 -46 0 -148 -214
-171 -357 -12 -77 -24 -45 -24 65 1 172 24 294 49 253 11 -17 41 -7 41 14 0
20 -68 95 -87 95 -8 0 -20 -15 -28 -33z"/>
<path d="M8041 11851 c-30 -19 -65 -281 -66 -501 0 -113 13 -141 78 -171 51
-23 111 -24 173 -3 44 15 47 15 68 -4 11 -11 42 -29 67 -41 100 -44 143 -55
234 -55 92 0 135 12 135 39 0 11 -21 14 -102 14 -109 -1 -178 10 -241 38 -52
23 -47 49 18 84 107 59 157 180 100 247 -35 42 -75 56 -146 49 -139 -12 -206
-125 -153 -257 24 -58 15 -70 -51 -70 -60 0 -109 19 -119 45 -3 9 -6 35 -6 57
0 52 37 359 51 424 17 76 -3 128 -40 105z m411 -388 c23 -21 23 -44 -1 -91
-27 -52 -84 -100 -138 -116 -20 -6 -24 -1 -38 48 -14 49 -14 70 1 128 3 9 19
26 37 38 37 24 108 21 139 -7z"/>
<path d="M4917 11833 c-4 -3 -7 -19 -7 -33 0 -54 62 -69 68 -17 2 16 -2 35 -9
43 -12 15 -41 19 -52 7z"/>
<path d="M3945 11794 c-56 -9 -177 -55 -210 -80 -44 -34 -59 -75 -41 -118 18
-42 61 -78 144 -117 364 -172 412 -199 412 -238 0 -28 -46 -79 -123 -135 -32
-24 -168 -91 -300 -149 -27 -12 -37 -23 -35 -35 5 -25 51 -20 138 17 181 76
286 138 344 202 70 78 67 137 -9 189 -57 39 -276 153 -377 195 -116 49 -146
83 -118 134 25 48 194 87 328 77 83 -6 127 -21 151 -50 8 -9 22 -16 33 -16 16
0 19 6 16 37 -3 33 -8 40 -52 62 -42 21 -63 25 -160 27 -61 1 -124 0 -141 -2z"/>
<path d="M3423 11775 c-41 -18 -85 -79 -118 -166 -15 -38 -30 -69 -34 -69 -4
0 -5 29 -3 65 4 66 -6 95 -33 95 -21 0 -26 -28 -31 -175 -6 -152 2 -187 43
-193 28 -4 42 23 82 163 18 60 44 131 59 158 28 52 64 83 82 72 18 -11 46 -77
65 -150 54 -212 86 -288 114 -270 14 8 12 36 -13 134 -9 35 -23 97 -32 137 -8
41 -24 96 -35 122 -38 88 -75 108 -146 77z"/>
<path d="M2285 11766 c-17 -7 -43 -28 -59 -46 -22 -26 -26 -41 -24 -74 2 -33
7 -41 22 -41 14 0 22 10 29 35 9 36 32 68 42 58 3 -3 -7 -36 -21 -74 -23 -60
-27 -82 -25 -167 2 -134 20 -167 91 -167 59 0 152 115 176 218 29 123 13 197
-55 247 -28 20 -46 25 -90 25 -31 -1 -70 -7 -86 -14z m135 -56 c62 -32 69 -80
28 -207 -23 -74 -94 -161 -121 -150 -14 5 -17 22 -17 104 0 83 4 106 25 151
14 30 25 62 25 72 0 20 10 50 16 50 3 0 22 -9 44 -20z"/>
<path d="M10745 11726 c-9 -30 -19 -83 -23 -118 l-7 -63 -82 -20 c-94 -23
-115 -37 -92 -60 14 -14 22 -14 75 3 32 11 67 23 77 27 16 7 17 -7 17 -215 0
-173 3 -221 13 -218 14 5 22 61 37 263 14 188 15 192 43 200 88 25 106 51 27
41 -47 -6 -50 -5 -50 16 0 13 7 52 16 88 17 75 12 110 -16 110 -15 0 -23 -13
-35 -54z"/>
<path d="M2643 11743 c-15 -24 -18 -47 -16 -163 2 -158 14 -211 59 -255 70
-71 172 -45 241 60 48 74 103 246 103 328 0 31 -3 38 -17 35 -13 -2 -30 -40
-64 -138 -62 -186 -113 -260 -179 -260 -64 0 -84 67 -79 264 4 135 2 151 -13
154 -10 2 -24 -8 -35 -25z"/>
<path d="M11027 11638 c-3 -7 -32 -23 -66 -36 -75 -29 -81 -47 -11 -38 60 8
60 8 25 -113 -30 -103 -31 -131 -4 -165 29 -37 88 -35 214 9 102 36 146 42
187 26 39 -15 98 -82 140 -158 43 -78 68 -94 68 -43 0 59 -88 194 -156 241
-44 30 -50 31 -113 26 -39 -3 -98 -18 -144 -37 -46 -18 -92 -30 -110 -28 -30
3 -32 6 -31 40 1 20 16 81 34 136 37 113 36 152 -4 152 -13 0 -26 -6 -29 -12z"/>
<path d="M6160 11627 c-120 -17 -278 -95 -348 -171 -57 -63 -102 -152 -102
-202 0 -81 65 -134 164 -134 97 0 177 43 315 168 44 39 83 72 88 72 5 0 32
-40 61 -88 55 -94 92 -135 132 -150 34 -12 50 -5 50 23 0 15 -7 26 -20 30 -25
8 -89 92 -125 165 -33 67 -62 100 -88 100 -10 0 -53 -32 -95 -71 -123 -115
-248 -189 -318 -189 -32 0 -80 25 -88 45 -22 58 23 157 98 217 91 73 257 138
346 138 19 -1 60 -10 90 -21 85 -31 96 -33 104 -14 9 25 -10 51 -46 65 -49 18
-155 26 -218 17z"/>
<path d="M12934 11608 c-5 -7 -32 -85 -62 -173 -59 -176 -139 -375 -152 -375
-4 0 -30 39 -57 86 -52 93 -120 164 -188 195 -61 28 -88 24 -124 -16 -59 -68
-67 -189 -18 -264 34 -51 109 -91 171 -91 77 0 72 29 -9 50 -107 28 -141 69
-130 154 13 94 46 137 94 121 11 -3 51 -39 90 -80 50 -53 84 -101 116 -166 26
-51 51 -89 58 -87 19 6 91 151 156 313 85 214 106 283 95 313 -10 30 -29 39
-40 20z"/>
<path d="M7010 11544 c-40 -8 -131 -45 -175 -72 -100 -62 -165 -172 -190 -317
-28 -162 -19 -409 15 -430 38 -23 86 53 95 150 3 33 15 110 27 171 12 63 18
122 14 138 -7 30 -32 44 -48 28 -12 -12 -48 -210 -48 -265 0 -23 -4 -36 -10
-32 -5 3 -10 43 -10 88 1 256 80 385 284 467 65 26 128 30 175 10 61 -25 49
-100 -26 -174 -73 -72 -191 -99 -246 -56 -21 17 -26 18 -37 5 -36 -44 49 -91
149 -82 133 12 244 107 266 227 8 47 -20 99 -65 121 -37 18 -127 30 -170 23z"/>
<path d="M7610 11543 c-57 -10 -142 -47 -178 -79 -55 -47 -96 -115 -126 -212
-45 -143 -56 -218 -56 -373 0 -129 2 -148 19 -163 26 -23 44 -12 76 46 20 36
32 83 46 171 10 67 19 136 19 152 0 17 5 37 10 45 8 13 13 12 42 -5 45 -26
128 -26 190 2 63 29 128 95 166 173 86 170 -6 278 -208 243z m162 -73 c26 -32
22 -68 -12 -137 -40 -80 -88 -127 -155 -152 -66 -25 -87 -26 -125 -6 -41 21
-49 42 -39 100 4 28 8 74 8 102 1 49 3 54 34 70 104 55 254 67 289 23z m-385
-172 c-3 -18 -9 -69 -12 -113 -8 -101 -32 -258 -48 -309 -11 -37 -12 -38 -18
-15 -19 66 -1 312 27 384 9 22 20 50 25 63 13 35 32 27 26 -10z"/>
<path d="M9590 11530 c-18 -33 -60 -238 -66 -319 -7 -85 7 -119 42 -107 18 6
39 44 110 201 l18 40 12 -79 c15 -93 32 -116 86 -116 58 0 114 34 209 126 47
47 89 81 92 77 4 -3 7 -53 7 -109 0 -115 11 -157 38 -152 14 3 17 14 17 56 l0
53 77 2 c69 2 80 5 107 31 16 15 44 56 62 90 l33 61 18 -90 c21 -107 41 -139
91 -143 29 -3 39 2 52 22 21 32 12 47 -25 39 -27 -5 -31 -2 -45 29 -8 19 -19
75 -25 123 -11 89 -31 145 -52 145 -6 0 -19 -7 -29 -16 -13 -12 -22 -13 -38
-5 -28 15 -105 14 -145 -3 -18 -8 -48 -32 -66 -55 -18 -22 -37 -38 -42 -35 -5
3 -28 -10 -51 -29 -23 -19 -69 -49 -102 -67 -33 -19 -79 -47 -103 -62 -27 -19
-52 -28 -70 -26 -26 3 -27 7 -37 79 -11 78 -35 129 -59 129 -15 0 -68 -90 -80
-132 -3 -13 -15 -34 -26 -48 -15 -19 -20 -21 -20 -8 0 25 28 155 47 214 17 56
12 104 -12 104 -8 0 -19 -9 -25 -20z m785 -93 c24 -18 15 -52 -27 -108 -92
-118 -204 -96 -152 29 32 77 125 118 179 79z"/>
<path d="M18655 11500 c-3 -4 -19 -10 -37 -14 -18 -3 -42 -16 -54 -27 -13 -12
-44 -24 -80 -29 -203 -30 -446 -166 -506 -283 -26 -51 -21 -142 10 -203 23
-46 104 -122 168 -160 124 -73 325 -114 462 -94 207 29 381 97 466 183 124
124 137 251 41 422 -64 114 -154 178 -285 203 -60 12 -178 13 -185 2z m238
-68 c85 -40 145 -100 192 -195 51 -104 59 -187 22 -250 -63 -107 -196 -190
-352 -221 -114 -23 -302 -23 -390 -1 -143 36 -296 138 -331 220 -20 49 -18
124 5 162 109 177 610 310 762 202 31 -22 49 -18 49 11 0 29 -45 57 -103 65
-106 14 -99 50 8 43 53 -4 90 -13 138 -36z"/>
<path d="M14220 11430 c0 -11 7 -20 15 -20 8 0 15 9 15 20 0 11 -7 20 -15 20
-8 0 -15 -9 -15 -20z"/>
<path d="M19827 11423 c-16 -15 -5 -41 22 -53 48 -20 90 -69 134 -159 l42 -86
0 -185 c0 -195 -7 -246 -59 -403 -61 -183 -120 -273 -295 -448 -300 -299 -618
-486 -951 -559 -19 -4 -55 -15 -79 -24 -24 -9 -52 -16 -63 -16 -26 0 -118 -42
-118 -54 0 -4 11 -5 25 -2 14 4 46 9 73 12 26 3 56 10 67 15 17 8 115 35 240
68 17 4 44 15 62 24 18 10 37 17 43 17 12 0 33 9 135 56 33 15 76 35 95 43 93
42 264 161 407 283 206 176 321 336 402 555 52 143 66 228 66 428 l0 180 -45
100 c-62 139 -166 246 -203 208z"/>
<path d="M13136 11367 c-10 -8 -16 -22 -14 -33 3 -15 11 -19 41 -17 47 3 87
-12 87 -32 0 -11 -12 -15 -52 -15 -85 0 -126 -17 -179 -71 -64 -65 -79 -114
-54 -169 50 -111 189 -158 300 -102 88 44 145 118 145 189 0 57 -50 153 -99
192 -36 29 -125 71 -149 71 -5 0 -16 -6 -26 -13z m194 -159 c39 -65 32 -130
-20 -185 -68 -73 -194 -80 -271 -16 -44 37 -36 80 28 145 56 57 96 72 163 63
41 -6 51 -4 56 9 9 24 22 19 44 -16z"/>
<path d="M13654 11331 c-81 -21 -164 -97 -164 -152 0 -38 52 -96 98 -109 71
-19 188 -5 295 35 13 6 17 2 17 -19 0 -15 -7 -41 -17 -59 -17 -35 -137 -212
-233 -346 -59 -82 -70 -117 -27 -84 35 27 162 171 227 258 125 167 151 251 97
315 -15 17 -27 37 -27 44 0 20 -62 74 -110 95 -55 24 -114 33 -156 22z m165
-86 c50 -25 94 -70 88 -89 -5 -15 -83 -33 -179 -40 -104 -8 -171 8 -176 42 -4
27 9 46 62 84 53 38 134 39 205 3z"/>
<path d="M22749 11274 c-5 -15 -10 -124 -11 -243 -1 -193 2 -233 26 -371 32
-189 33 -190 56 -190 27 0 28 20 3 185 -19 125 -23 190 -22 387 0 131 -3 242
-6 248 -12 19 -35 10 -46 -16z"/>
<path d="M9257 11178 c-8 -13 -31 -54 -52 -93 -20 -38 -69 -115 -108 -170 -40
-55 -101 -145 -137 -200 -36 -56 -75 -114 -88 -129 -25 -33 -29 -66 -7 -66 18
0 87 85 195 239 47 67 115 166 152 219 81 116 105 170 89 201 -15 27 -27 27
-44 -1z"/>
<path d="M12112 11143 c-11 -10 -55 -70 -98 -133 -43 -63 -89 -131 -102 -150
-13 -19 -48 -82 -78 -140 -29 -58 -61 -117 -71 -132 -13 -20 -14 -31 -6 -39
14 -14 58 42 173 221 47 73 118 175 158 226 72 93 86 130 58 153 -10 9 -18 7
-34 -6z"/>
<path d="M4845 11104 c-32 -32 -2 -96 39 -81 29 11 16 97 -15 97 -4 0 -15 -7
-24 -16z"/>
<path d="M15719 10943 c-105 -54 -231 -167 -268 -241 -25 -50 -37 -124 -27
-177 10 -50 69 -112 136 -142 49 -22 65 -24 150 -20 73 3 111 11 165 32 145
58 289 177 320 264 33 94 10 180 -62 240 -46 38 -89 51 -165 51 -47 0 -60 4
-70 20 -22 34 -75 26 -179 -27z m118 -33 c-8 -38 0 -42 54 -23 61 21 161 11
211 -22 93 -61 57 -250 -64 -333 -134 -92 -230 -124 -365 -123 -66 0 -83 4
-121 28 -60 37 -84 83 -79 148 2 28 12 67 22 88 40 84 157 187 277 241 69 32
72 31 65 -4z"/>
<path d="M14390 10871 c-13 -26 -13 -48 1 -57 15 -9 29 14 29 49 0 31 -15 36
-30 8z"/>
<path d="M17022 10792 c-26 -26 -30 -64 -37 -383 -5 -227 -4 -257 10 -269 22
-19 36 -1 42 52 2 23 10 167 18 318 11 228 11 277 0 289 -11 11 -16 10 -33 -7z"/>
<path d="M18142 10483 c-60 -21 -108 -73 -122 -134 -11 -45 -14 -48 -36 -43
-19 5 -24 2 -24 -13 0 -11 9 -28 20 -38 11 -10 33 -41 49 -69 15 -28 55 -78
87 -112 63 -64 161 -119 297 -166 68 -23 69 -23 83 -4 19 26 7 37 -58 53 -134
33 -333 165 -326 216 3 19 11 23 63 28 94 9 163 36 210 84 50 50 60 87 37 135
-35 72 -169 102 -280 63z m192 -58 c19 -9 37 -24 39 -33 13 -59 -107 -134
-225 -140 l-68 -4 0 42 c0 50 25 106 54 122 72 39 136 43 200 13z"/>
<path d="M17321 10483 c-13 -3 -42 -16 -63 -29 -41 -26 -49 -55 -22 -85 14
-16 13 -22 -11 -69 -28 -55 -34 -114 -16 -148 37 -69 165 -88 248 -35 100 62
154 220 103 301 -36 58 -134 85 -239 65z m149 -53 c22 -11 44 -29 50 -39 17
-33 11 -85 -15 -137 -46 -88 -128 -130 -198 -100 -33 14 -37 19 -37 53 0 51
31 109 84 158 24 22 49 50 55 63 14 27 13 27 61 2z"/>
<path d="M17927 10426 c-57 -77 -159 -174 -192 -182 -49 -12 -58 0 -51 69 3
34 8 78 12 98 7 44 -7 57 -41 35 -40 -26 -59 -138 -34 -203 45 -120 154 -89
298 85 70 85 91 118 91 141 0 41 -35 22 -83 -43z"/>
<path d="M3783 10398 c-6 -7 -29 -65 -53 -128 -23 -63 -69 -170 -102 -238 -53
-110 -65 -127 -113 -162 -55 -41 -95 -94 -95 -126 0 -76 61 -153 136 -174 55
-16 194 -8 284 15 176 46 320 176 289 263 -13 39 -62 68 -147 88 -69 16 -199
17 -266 2 -60 -14 -64 1 -23 79 19 37 50 104 67 148 17 44 45 110 61 147 16
36 26 73 23 82 -7 19 -47 21 -61 4z m172 -512 c74 -6 105 -23 105 -58 0 -34
-55 -98 -115 -133 -59 -35 -193 -66 -294 -68 -80 -2 -91 0 -129 26 -23 15 -42
35 -42 44 0 8 25 45 56 81 31 37 58 72 61 79 4 11 67 28 138 36 29 3 121 0
220 -7z"/>
<path d="M6688 10329 c-29 -17 -22 -48 15 -64 17 -7 44 -27 60 -44 31 -35 43
-38 55 -13 16 30 -22 92 -73 116 -38 19 -35 18 -57 5z"/>
<path d="M3244 10206 c-157 -84 -232 -157 -310 -301 -21 -38 -52 -86 -70 -106
-48 -55 -57 -128 -18 -143 38 -14 55 11 145 213 58 130 138 215 259 276 68 34
90 53 90 77 0 26 -26 22 -96 -16z"/>
<path d="M6831 10161 c-7 -12 -5 -88 6 -235 18 -233 11 -419 -21 -572 -23
-110 -74 -231 -113 -270 -49 -49 -80 -45 -156 23 -21 18 -42 31 -47 28 -29
-18 12 -86 70 -115 224 -114 360 266 335 937 -6 148 -11 197 -22 209 -20 19
-40 18 -52 -5z"/>
<path d="M2185 10130 c-8 -16 -31 -73 -50 -127 -77 -213 -200 -429 -233 -409
-23 14 -39 331 -21 432 11 66 4 94 -26 94 -26 0 -35 -52 -35 -213 1 -187 20
-350 46 -378 66 -73 183 70 260 316 14 47 30 85 34 85 5 0 11 -18 15 -39 14
-85 117 -216 205 -261 55 -28 151 -45 191 -34 27 8 34 15 34 34 0 24 -3 25
-70 26 -83 1 -145 17 -169 43 -23 25 -18 33 48 66 81 41 161 116 182 170 30
79 -6 154 -93 195 -38 18 -58 21 -99 16 -61 -7 -117 -29 -163 -64 l-34 -25 7
26 c3 15 9 38 12 52 9 36 -21 33 -41 -5z m265 -50 c52 -14 90 -54 90 -94 0
-65 -128 -177 -218 -190 -40 -6 -43 -4 -62 26 -26 43 -35 111 -21 159 14 45
58 82 116 97 53 13 55 13 95 2z"/>
<path d="M5200 10111 c-15 -29 -13 -39 14 -56 30 -20 56 -10 56 22 0 45 -51
69 -70 34z"/>
<path d="M8476 10109 c-45 -35 -91 -145 -111 -263 l-6 -39 -67 8 c-111 13
-144 12 -155 -6 -6 -9 -7 -24 -4 -33 5 -13 23 -16 106 -16 55 0 103 -4 106
-10 3 -5 -1 -72 -10 -149 -19 -175 -19 -191 0 -191 20 0 38 78 61 266 9 77 12
79 86 66 34 -6 99 -18 143 -25 138 -25 165 -27 165 -11 0 7 -17 21 -37 30 -46
19 -192 56 -201 50 -12 -7 -117 15 -123 26 -8 12 6 76 28 138 15 39 45 92 77
135 12 16 1 45 -17 45 -8 0 -26 -9 -41 -21z"/>
<path d="M6053 10077 c-211 -76 -250 -235 -118 -474 65 -116 143 -195 231
-234 82 -37 234 -12 234 38 0 13 -7 14 -37 9 -146 -27 -175 -18 -270 80 -40
41 -73 79 -73 85 0 5 -9 22 -20 37 -11 15 -31 59 -45 97 -70 198 7 311 225
331 146 14 274 -51 309 -157 28 -87 -33 -127 -207 -136 -119 -6 -143 0 -219
58 -45 34 -73 34 -73 -1 0 -20 53 -65 113 -97 91 -47 352 -12 432 58 29 26 35
38 35 70 0 83 -81 188 -178 231 -36 16 -74 21 -162 24 -100 3 -123 1 -177 -19z"/>
<path d="M9794 10058 c-46 -40 -71 -81 -116 -188 -53 -124 -77 -220 -89 -355
-12 -143 -34 -261 -54 -292 -17 -26 -20 -59 -5 -68 50 -31 111 142 129 367 15
179 88 388 169 481 46 53 48 57 30 75 -17 17 -23 15 -64 -20z"/>
<path d="M4718 10020 c-15 -4 -85 -11 -155 -15 -156 -7 -313 -22 -336 -31 -48
-18 13 -100 93 -125 19 -6 83 -38 141 -70 58 -32 109 -59 113 -59 4 0 41 -27
82 -61 70 -57 104 -100 104 -132 0 -26 -63 -109 -101 -133 -87 -55 -135 -67
-283 -70 -77 -2 -142 -6 -145 -9 -13 -13 19 -41 55 -47 176 -31 377 23 474
128 66 71 70 135 15 214 -39 56 -199 166 -299 206 -108 43 -178 99 -148 118 5
3 92 6 193 7 185 2 268 12 270 33 5 50 -16 63 -73 46z"/>
<path d="M22744 9948 c-68 -43 -226 -117 -369 -172 -66 -26 -129 -51 -140 -56
-11 -5 -76 -32 -145 -59 -254 -101 -356 -152 -664 -330 -134 -77 -141 -80
-159 -63 -18 16 -20 16 -43 -11 -31 -36 -20 -71 24 -75 35 -4 67 12 247 118
243 143 380 208 740 350 379 148 467 187 522 228 l32 24 98 -99 c96 -97 251
-220 442 -348 53 -36 107 -73 121 -82 69 -48 330 -240 361 -267 20 -17 67 -56
104 -86 37 -30 78 -72 91 -92 37 -58 92 -44 68 17 -15 38 -398 335 -754 585
-236 166 -365 277 -482 418 -14 18 -30 32 -35 32 -5 0 -31 -14 -59 -32z"/>
<path d="M7885 9864 c-82 -17 -111 -29 -166 -70 -94 -69 -112 -164 -54 -292
57 -128 183 -205 332 -203 84 1 163 28 163 57 0 17 -2 17 -100 -5 -96 -22
-187 7 -270 85 -63 59 -83 113 -78 206 4 69 5 72 47 109 31 28 54 40 89 44 76
10 127 29 130 47 5 28 -28 36 -93 22z"/>
<path d="M7214 9861 c-102 -26 -174 -118 -174 -220 0 -168 105 -269 288 -278
102 -5 217 15 217 37 0 12 -22 15 -125 15 -175 1 -225 18 -277 97 -22 32 -28
53 -28 97 l0 56 110 5 c113 6 151 17 188 58 47 52 -21 133 -115 138 -29 2 -67
-1 -84 -5z m114 -57 c31 -21 25 -55 -13 -74 -30 -15 -147 -21 -160 -8 -15 15
7 59 38 78 39 24 104 26 135 4z"/>
<path d="M10037 9780 c-47 -14 -97 -58 -97 -85 0 -38 18 -39 59 -2 21 19 53
38 70 42 93 20 166 -108 165 -290 0 -76 -4 -99 -24 -140 -26 -52 -78 -95 -114
-95 -40 0 -84 37 -97 80 -18 61 2 193 42 281 32 69 33 99 4 99 -91 0 -159
-350 -88 -449 31 -42 105 -74 152 -66 157 26 231 227 162 443 -28 87 -45 115
-93 156 -44 38 -80 44 -141 26z"/>
<path d="M11032 9685 c-102 -31 -176 -114 -176 -193 1 -104 112 -245 259 -327
75 -42 209 -89 230 -82 45 18 -3 56 -115 92 -59 19 -148 72 -192 113 -29 27
-37 60 -15 66 6 2 50 16 97 31 230 74 280 140 183 238 -70 71 -169 94 -271 62z
m173 -64 c48 -22 74 -49 77 -80 5 -39 -18 -51 -259 -138 -24 -8 -50 -13 -58
-9 -20 7 -35 48 -35 95 0 112 156 187 275 132z"/>
<path d="M10823 9643 c-7 -2 -53 -55 -104 -116 -106 -128 -194 -215 -225 -223
-38 -10 -68 0 -81 26 -20 40 -15 128 12 203 33 94 19 122 -38 77 -32 -25 -47
-91 -47 -203 0 -90 16 -131 65 -163 56 -36 158 7 244 103 55 61 201 267 201
282 0 13 -12 19 -27 14z"/>
<path d="M9123 9472 c-18 -12 -36 -55 -69 -162 -48 -157 -120 -364 -161 -463
-27 -65 -33 -91 -25 -99 8 -8 15 -8 25 1 50 41 286 642 273 694 -6 26 -26 39
-43 29z"/>
<path d="M18375 9425 c-19 -15 -19 -15 10 -13 17 2 29 7 28 13 -3 16 -18 16
-38 0z"/>
<path d="M18295 9410 c-11 -5 -36 -13 -55 -19 -32 -9 -30 -10 20 -5 54 6 80
17 63 27 -4 2 -17 1 -28 -3z"/>
<path d="M5166 9394 c-18 -47 10 -107 47 -102 28 4 45 58 29 93 -14 29 -66 36
-76 9z"/>
<path d="M18013 9349 c-35 -10 -45 -29 -15 -29 27 0 91 20 97 30 8 12 -39 11
-82 -1z"/>
<path d="M20477 8920 c-88 -26 -138 -52 -188 -97 -108 -98 -110 -233 -5 -367
75 -96 200 -143 459 -172 225 -25 359 -6 452 64 72 55 90 91 90 183 -1 112
-38 183 -153 288 -84 78 -108 91 -127 72 -6 -6 -38 -1 -85 15 -64 22 -97 26
-225 30 -129 3 -160 1 -218 -16z m447 -73 c43 -14 96 -39 117 -56 21 -17 49
-31 62 -31 51 0 126 -142 127 -240 0 -78 -30 -119 -118 -162 -67 -33 -67 -33
-212 -32 -110 1 -169 6 -245 23 -203 45 -252 66 -313 135 -55 63 -75 112 -70
177 7 97 77 164 208 200 102 28 337 21 444 -14z"/>
<path d="M24381 8678 c-4 -13 -11 -40 -15 -60 -4 -21 -25 -86 -47 -145 -64
-168 -79 -241 -90 -419 -5 -89 -15 -181 -22 -205 -23 -75 -1 -95 32 -30 20 38
30 102 51 323 9 103 35 201 90 337 29 74 51 172 44 199 -8 28 -32 28 -43 0z"/>
<path d="M16045 8125 c-533 -46 -998 -175 -1282 -357 -157 -101 -312 -244
-388 -358 -108 -162 -125 -226 -125 -461 0 -238 45 -448 127 -589 93 -159 393
-401 678 -546 277 -141 483 -229 615 -263 69 -18 202 -57 295 -88 182 -59 360
-106 465 -123 36 -5 130 -24 210 -40 369 -78 464 -87 975 -96 330 -5 389 -4
445 10 36 9 108 23 160 31 145 24 225 42 340 74 94 26 230 58 346 82 91 18
208 51 281 79 43 17 81 30 85 30 5 0 8 -15 8 -32 1 -134 118 -429 225 -568 49
-64 151 -157 264 -243 90 -68 364 -206 486 -246 288 -93 463 -136 745 -181 41
-6 91 -16 110 -21 19 -4 121 -29 225 -54 105 -26 210 -53 235 -61 25 -7 101
-32 170 -53 150 -48 293 -86 415 -110 87 -17 171 -16 253 4 55 13 178 159 226
267 72 162 93 485 44 668 -46 170 -126 362 -216 518 -46 81 -97 170 -113 197
-71 126 -157 245 -371 511 -150 187 -217 258 -323 343 -38 31 -74 61 -80 67
-34 38 -231 161 -242 151 -10 -11 8 -26 127 -112 117 -85 347 -300 405 -380
16 -22 52 -67 80 -100 58 -70 285 -371 285 -379 0 -2 17 -31 38 -63 21 -32 42
-65 45 -73 4 -8 21 -37 37 -65 121 -202 211 -394 267 -572 37 -115 38 -121 37
-273 0 -108 -5 -181 -17 -240 -17 -83 -35 -140 -44 -140 -15 0 -81 62 -117
109 -53 70 -76 127 -76 191 0 53 10 66 38 51 29 -15 89 -2 117 27 34 33 32 68
-5 102 -61 57 -124 46 -181 -33 -29 -40 -31 -46 -27 -122 6 -113 36 -185 108
-257 40 -40 68 -59 93 -63 19 -4 38 -14 42 -23 17 -46 -128 -228 -201 -252
-24 -8 -72 -11 -138 -7 -113 5 -256 39 -546 130 -96 29 -212 62 -257 72 -102
22 -112 28 -95 52 30 43 76 157 105 262 31 111 32 113 44 83 31 -76 110 -94
182 -41 24 17 45 29 47 26 3 -2 -2 -33 -11 -68 -37 -157 -2 -309 71 -309 42 0
119 108 99 139 -11 19 -24 12 -50 -29 -14 -22 -32 -40 -39 -40 -33 0 -47 128
-25 232 27 123 86 203 184 250 67 31 82 33 119 16 81 -36 -6 -278 -101 -278
-31 0 -45 36 -41 110 3 81 -6 97 -27 47 -38 -92 -5 -209 62 -215 58 -6 137 58
173 141 46 103 36 187 -27 237 -24 19 -37 21 -88 17 -69 -6 -132 -37 -184 -91
-19 -20 -39 -36 -43 -36 -4 0 -8 20 -8 44 0 106 -138 160 -258 100 -55 -27
-137 -110 -177 -177 -54 -94 -85 -271 -65 -367 7 -33 10 -63 7 -66 -3 -4 -54
8 -114 25 -59 16 -175 41 -258 55 -156 26 -344 64 -356 72 -4 2 -89 29 -189
59 -301 92 -526 215 -744 408 -36 32 -79 77 -95 101 -51 74 -150 281 -170 357
-27 102 -43 196 -36 218 3 10 42 47 88 81 45 35 99 82 121 104 99 105 162 249
191 437 5 37 1 33 190 139 199 112 313 156 484 191 169 34 513 79 602 79 83 0
218 -19 287 -41 47 -15 82 -4 82 25 0 26 -33 60 -52 53 -7 -2 -21 3 -31 12
-17 15 -20 14 -33 -3 -13 -19 -16 -19 -96 -3 -150 29 -171 28 -550 -28 -228
-34 -346 -61 -458 -105 -69 -27 -243 -120 -333 -177 -37 -24 -72 -43 -77 -43
-6 0 -10 10 -10 23 0 12 -7 74 -14 137 -20 165 -53 289 -126 470 -103 254
-164 359 -262 444 -42 37 -51 49 -43 62 6 9 91 61 190 116 261 146 438 227
670 308 44 16 105 38 135 50 30 11 59 22 64 23 5 1 15 -18 23 -43 18 -61 96
-203 163 -297 67 -93 297 -373 322 -391 10 -7 24 -25 32 -40 8 -15 33 -48 55
-72 23 -25 41 -48 41 -52 0 -6 36 -51 116 -143 25 -28 33 -46 29 -60 -19 -62
-19 -63 23 -70 23 -3 46 -13 53 -21 20 -25 47 -35 74 -28 l26 6 -22 24 c-12
13 -29 24 -37 24 -20 0 -105 89 -125 133 -10 20 -22 39 -27 42 -6 4 -26 32
-46 62 -36 56 -56 83 -286 373 -268 339 -348 486 -348 639 0 59 -20 92 -44 72
-9 -8 -16 -29 -16 -51 0 -21 -6 -42 -12 -48 -7 -5 -74 -31 -148 -57 -290 -101
-593 -241 -828 -384 -73 -45 -136 -81 -139 -81 -3 0 -31 19 -62 43 -129 97
-326 194 -374 182 -16 -4 -38 2 -68 19 -153 90 -402 193 -619 255 -58 17 -188
42 -290 56 -252 35 -319 44 -435 61 -110 16 -328 44 -390 50 -22 2 -80 8 -130
13 -317 35 -611 44 -820 26z m700 -65 c227 -23 504 -58 790 -99 116 -17 244
-36 285 -42 122 -18 228 -39 309 -64 100 -30 329 -115 411 -154 112 -52 366
-196 507 -287 28 -19 57 -34 64 -34 7 0 23 -10 36 -22 21 -20 27 -21 58 -9 19
7 41 9 48 4 30 -17 138 -152 182 -225 53 -90 99 -199 165 -398 50 -149 76
-281 86 -436 l6 -89 -57 -44 c-31 -25 -102 -92 -158 -151 -79 -81 -111 -123
-140 -181 -34 -69 -44 -104 -65 -234 -7 -37 -10 -41 -57 -56 -92 -31 -229 -67
-355 -93 -123 -26 -196 -44 -375 -92 -84 -23 -366 -76 -500 -95 -59 -8 -544
-4 -797 6 -142 6 -294 29 -503 76 -77 17 -171 35 -209 39 -38 5 -76 12 -84 15
-8 3 -49 12 -91 21 -42 8 -139 35 -216 59 -194 60 -257 79 -355 105 -117 31
-180 52 -285 98 -189 83 -495 239 -580 296 -60 40 -282 223 -341 280 -102 100
-168 240 -206 436 -17 89 -20 131 -16 290 6 217 14 250 102 385 111 170 318
343 542 454 128 63 318 124 574 186 97 23 231 43 400 59 91 9 179 18 195 20
65 9 450 -5 630 -24z m2270 -540 c4 -6 30 -22 58 -37 57 -29 97 -61 97 -80 0
-20 -6 -17 -73 36 -35 27 -78 56 -95 65 -18 9 -32 19 -32 21 0 10 39 5 45 -5z
m654 -1461 c-25 -92 -67 -182 -117 -257 -57 -83 -199 -208 -217 -190 -12 12
19 118 58 198 35 73 58 103 160 207 66 67 123 120 128 118 4 -3 -1 -37 -12
-76z m2038 -1264 c18 -12 23 -25 23 -56 0 -80 -74 -168 -142 -169 -37 0 -50
28 -47 100 2 38 -2 65 -11 75 -12 15 -11 19 10 36 52 40 119 45 167 14z m811
-92 c4 -27 -28 -46 -63 -37 -34 8 -37 16 -19 43 22 30 78 26 82 -6z m-1072
-60 c-15 -107 -63 -263 -88 -288 -16 -16 -1 130 21 200 39 125 79 178 67 88z"/>
<path d="M18872 7274 c-22 -15 -30 -48 -13 -58 5 -3 25 1 45 9 54 23 124 19
182 -10 54 -27 74 -56 74 -105 0 -70 -70 -209 -139 -277 -105 -104 -338 -151
-530 -108 -84 20 -151 69 -151 112 0 88 160 212 336 258 125 33 240 17 378
-52 54 -27 79 -24 74 9 -2 18 -21 30 -83 57 -148 63 -257 75 -389 41 -149 -38
-302 -145 -355 -247 -26 -52 -27 -83 -1 -133 16 -31 33 -45 83 -69 85 -40 134
-50 250 -51 178 0 359 68 447 168 66 74 130 222 130 299 0 75 -41 130 -119
158 -59 20 -189 20 -219 -1z"/>
<path d="M14917 6622 c-23 -25 -40 -179 -41 -372 -1 -181 5 -223 32 -218 15 3
18 22 24 138 3 74 11 173 18 220 21 152 24 218 10 235 -16 19 -23 19 -43 -3z"/>
<path d="M17742 6578 c-25 -25 -13 -46 41 -71 28 -13 72 -38 97 -56 93 -66
122 -82 137 -77 34 13 7 50 -77 108 -88 60 -168 108 -179 108 -4 0 -12 -5 -19
-12z"/>
<path d="M15409 6552 c-84 -54 -152 -185 -151 -293 0 -115 32 -180 110 -230
80 -51 148 -35 225 51 76 85 97 208 53 313 -20 50 -78 103 -123 114 -28 6 -39
14 -41 30 -6 41 -25 45 -73 15z m27 -87 c4 -10 19 -14 46 -13 36 1 46 -4 78
-39 29 -31 39 -51 45 -91 16 -121 -67 -262 -155 -262 -36 0 -94 43 -114 83
-33 70 -13 197 46 290 31 49 45 57 54 32z"/>
<path d="M15993 6390 c-89 -19 -159 -74 -199 -158 -35 -73 25 -167 122 -191
119 -30 248 0 321 75 93 96 77 213 -36 261 -42 18 -153 25 -208 13z m192 -74
c62 -26 69 -86 18 -147 -84 -99 -318 -104 -348 -8 -10 30 63 134 105 153 45
19 179 21 225 2z"/>
<path d="M17123 6377 c-132 -47 -218 -144 -248 -281 -46 -205 71 -371 293
-417 69 -15 172 -5 172 16 0 10 -11 14 -32 13 -164 -4 -335 101 -369 226 -16
59 -5 174 21 226 33 64 95 125 153 151 106 47 275 22 324 -47 46 -65 37 -118
-26 -155 -70 -41 -270 -36 -365 10 -53 26 -73 26 -81 1 -9 -29 7 -45 73 -69
170 -62 382 -33 464 64 54 63 18 184 -70 236 -87 51 -211 61 -309 26z"/>
<path d="M19129 6333 c-22 -20 -54 -60 -70 -88 -28 -49 -30 -50 -76 -50 -44 0
-48 -2 -48 -25 0 -20 6 -26 30 -30 36 -7 37 -19 7 -130 -29 -104 -32 -153 -10
-158 12 -2 20 8 28 40 7 24 24 84 39 133 l27 90 65 -2 c35 -1 96 -9 135 -19
70 -17 104 -15 104 6 0 16 -42 29 -163 52 -108 21 -108 21 -102 47 7 30 60 88
87 97 23 7 40 38 32 58 -10 26 -41 18 -85 -21z"/>
<path d="M18294 6319 c-89 -16 -178 -80 -218 -158 -82 -158 2 -331 187 -386
37 -11 60 -12 108 -3 62 11 75 29 24 34 -130 13 -232 69 -274 151 -17 33 -13
123 8 168 34 74 90 117 181 136 68 14 136 -8 146 -48 9 -33 -4 -53 -47 -76
-34 -18 -49 -18 -157 -1 -42 7 -44 6 -40 -17 4 -32 59 -59 118 -59 90 1 180
68 180 133 0 38 -30 91 -60 107 -33 17 -110 27 -156 19z"/>
<path d="M18650 6279 c-108 -45 -172 -222 -121 -334 33 -73 152 -154 247 -169
42 -7 76 6 59 23 -6 5 -45 23 -88 41 -158 65 -216 179 -154 300 32 64 79 93
137 85 25 -4 53 -11 63 -17 46 -24 66 29 22 58 -30 19 -131 28 -165 13z"/>
<path d="M17845 6246 c-11 -16 -19 -68 -26 -167 -13 -192 -44 -373 -84 -489
-51 -151 -101 -191 -167 -135 -33 28 -48 25 -48 -9 0 -56 85 -85 150 -51 77
40 148 214 189 470 19 111 37 362 29 385 -10 26 -24 25 -43 -4z"/>
<path d="M24404 7500 c-54 -50 -146 -128 -204 -173 -288 -224 -515 -435 -619
-575 l-51 -68 -77 9 c-95 11 -206 -5 -279 -39 -85 -40 -176 -173 -223 -325
-16 -52 -61 -186 -101 -299 -87 -250 -95 -277 -126 -460 -38 -221 -32 -416 27
-818 72 -494 88 -668 82 -877 -8 -218 24 -370 104 -505 17 -30 43 -76 57 -102
14 -26 34 -53 45 -60 10 -7 51 -42 91 -78 80 -71 134 -110 195 -139 81 -39
172 -70 235 -81 36 -6 90 -15 121 -21 39 -6 66 -6 85 1 15 6 75 20 133 31 181
35 307 81 441 162 63 38 174 135 225 197 76 93 191 300 225 407 30 94 80 324
80 369 0 38 16 28 29 -18 7 -24 33 -108 58 -188 44 -137 60 -180 103 -275 10
-22 44 -101 75 -175 104 -247 141 -316 249 -460 136 -182 252 -290 394 -366
175 -94 280 -119 432 -104 315 30 486 115 735 365 143 142 235 273 330 468
104 216 131 318 142 541 6 128 -6 310 -28 426 -38 196 -95 406 -134 495 -7 17
-23 54 -34 82 -78 198 -283 570 -390 708 -111 142 -155 195 -163 195 -22 0 -3
-44 37 -90 25 -28 53 -63 62 -78 10 -15 39 -56 65 -91 26 -35 48 -68 48 -72 0
-5 20 -39 44 -76 58 -91 181 -330 245 -478 29 -66 56 -129 61 -140 17 -39 70
-221 90 -312 81 -370 76 -706 -15 -948 -150 -397 -457 -744 -782 -883 -105
-45 -219 -65 -363 -66 -130 0 -138 2 -215 33 -245 100 -397 232 -583 508 -41
60 -124 226 -175 348 -14 33 -42 98 -62 145 -54 126 -80 196 -145 390 -81 245
-97 310 -104 430 -5 90 -22 208 -51 360 -4 19 -21 82 -37 139 l-30 105 17 97
c9 54 25 128 36 166 11 37 26 91 34 118 114 415 305 714 553 868 118 73 162
90 288 112 100 18 101 18 167 -4 73 -24 121 -69 133 -123 7 -34 28 -32 32 3 2
13 7 28 12 32 8 9 137 -56 155 -78 5 -7 22 -19 36 -26 28 -15 130 -101 158
-133 9 -10 29 -30 45 -45 16 -14 50 -48 75 -74 86 -91 133 -137 142 -137 31 0
-12 53 -168 209 -135 134 -202 192 -278 242 -160 105 -324 181 -452 209 -38 9
-50 8 -76 -9 -18 -10 -57 -24 -87 -30 -119 -25 -317 -154 -417 -271 -79 -93
-163 -220 -217 -331 -67 -137 -167 -452 -211 -661 -5 -28 -25 -39 -25 -15 0 6
-7 26 -16 42 -8 17 -34 75 -56 129 -84 205 -315 639 -431 811 -69 102 -256
316 -352 404 -21 20 -57 53 -78 74 -21 20 -69 53 -108 72 -38 20 -69 42 -69
49 0 27 116 160 236 273 141 131 214 193 395 333 74 57 159 127 189 155 30 28
65 59 77 69 l23 19 232 -230 c128 -126 277 -272 332 -324 54 -52 180 -175 280
-274 199 -196 271 -259 285 -250 13 8 2 35 -14 35 -7 0 -21 12 -30 28 -10 15
-185 194 -389 397 -204 204 -439 441 -523 528 -91 95 -159 157 -170 157 -11 0
-64 -41 -119 -90z m-861 -883 c12 -13 35 -27 51 -31 111 -27 228 -117 387
-298 144 -163 235 -289 338 -471 31 -56 190 -372 258 -517 132 -279 142 -308
142 -419 1 -129 31 -313 93 -561 31 -123 31 -126 20 -235 -16 -144 -71 -355
-126 -478 -139 -309 -324 -488 -596 -577 -127 -41 -247 -67 -350 -75 -74 -6
-97 -3 -180 20 -52 15 -108 28 -125 30 -48 5 -97 27 -145 66 -25 19 -76 57
-115 84 -91 64 -114 87 -169 173 -114 175 -137 275 -136 572 0 258 -11 371
-97 915 -18 118 -26 216 -30 377 -5 205 -4 226 22 375 26 152 80 329 204 673
17 47 31 92 31 101 0 27 67 151 106 197 20 23 49 49 65 57 50 27 141 43 237
44 85 1 95 -1 115 -22z m1276 -2072 c0 -5 -4 -3 -9 5 -5 8 -9 22 -9 30 0 16
17 -16 18 -35z"/>
<path d="M23369 6040 c-109 -31 -185 -82 -277 -184 -185 -204 -197 -390 -34
-552 53 -52 101 -78 217 -120 70 -25 94 -29 190 -28 128 0 181 14 290 74 122
67 183 157 171 254 -11 95 -85 286 -164 426 -20 36 -39 81 -42 100 -5 32 -9
35 -45 42 -79 14 -237 7 -306 -12z m116 -66 c13 -31 17 -34 35 -24 11 6 20 15
20 20 0 16 67 32 89 20 70 -37 231 -412 231 -537 0 -71 -63 -150 -157 -197
-193 -96 -452 -63 -593 76 -140 138 -136 299 14 479 78 94 166 148 306 187 19
6 36 10 37 11 2 1 9 -15 18 -35z"/>
<path d="M24029 4813 c-10 -11 -15 -52 -17 -127 -4 -126 -9 -136 -77 -136 -57
0 -75 22 -75 89 0 51 -21 121 -37 121 -14 0 -28 -15 -40 -41 -8 -20 -23 -29
-60 -38 -75 -19 -105 -56 -118 -144 -12 -78 -27 -61 -40 43 -4 30 -14 72 -22
92 -30 75 -69 57 -132 -63 -62 -117 -90 -161 -100 -154 -5 3 -9 28 -9 57 -1
55 -18 83 -45 72 -16 -6 -23 -25 -47 -121 -17 -69 -30 -50 -31 45 0 111 -15
157 -49 157 -22 0 -25 -4 -24 -35 0 -19 9 -62 18 -95 10 -33 21 -110 24 -172
8 -131 20 -154 57 -111 13 15 29 52 35 83 l12 56 42 -6 c39 -6 44 -4 67 27 14
18 45 69 68 113 24 44 47 84 52 90 14 14 26 -9 34 -64 8 -51 28 -81 78 -115
79 -54 116 -40 171 63 33 63 56 88 56 62 0 -5 12 -23 26 -41 26 -30 29 -31 98
-28 l71 3 -3 -77 c-2 -71 -1 -78 17 -78 22 0 31 25 31 90 0 71 8 85 75 139 65
51 81 53 69 6 -20 -79 35 -140 103 -115 43 15 59 3 73 -54 19 -75 40 -123 65
-146 38 -36 63 0 31 45 -7 11 -24 57 -36 101 -15 59 -30 89 -50 109 l-29 28
-46 -18 c-26 -9 -49 -15 -52 -11 -3 3 0 47 7 98 15 110 12 132 -17 136 -17 3
-27 -6 -42 -35 -23 -46 -103 -123 -127 -123 -15 0 -16 11 -10 106 5 75 3 110
-5 120 -15 18 -24 18 -40 -3z m-269 -200 c-1 -44 -72 -153 -100 -153 -26 0 0
111 35 146 29 29 65 32 65 7z"/>
<path d="M23251 3754 c-71 -91 -111 -408 -58 -462 16 -15 18 -15 34 0 14 15
15 23 5 56 -22 74 -12 153 40 309 29 86 32 123 9 123 -5 0 -19 -12 -30 -26z"/>
<path d="M23551 3708 c-5 -13 -16 -81 -26 -151 -9 -70 -28 -176 -41 -235 -39
-170 -38 -161 -20 -168 10 -4 22 -2 27 3 25 25 98 381 102 498 2 59 -1 70 -15
73 -11 2 -21 -5 -27 -20z"/>
<path d="M23822 3588 c-27 -34 -71 -139 -78 -185 -11 -89 10 -148 77 -215 56
-56 59 -58 111 -58 83 0 126 17 178 69 53 53 77 121 67 193 -11 80 -53 113
-192 153 -50 15 -97 33 -106 41 -19 17 -43 18 -57 2z m107 -89 c174 -56 191
-69 191 -151 0 -166 -177 -228 -280 -98 -52 65 -58 158 -14 241 17 35 20 35
103 8z"/>
<path d="M27320 6871 c0 -12 5 -21 10 -21 6 0 10 6 10 14 0 8 -4 18 -10 21 -5
3 -10 -3 -10 -14z"/>
<path d="M27385 6710 c3 -5 8 -10 11 -10 2 0 4 5 4 10 0 6 -5 10 -11 10 -5 0
-7 -4 -4 -10z"/>
<path d="M27405 6660 c3 -5 8 -10 11 -10 2 0 4 5 4 10 0 6 -5 10 -11 10 -5 0
-7 -4 -4 -10z"/>
<path d="M27420 6611 c0 -11 4 -22 9 -26 5 -3 13 -19 16 -37 9 -39 35 -101 40
-96 3 2 -7 41 -20 86 -25 80 -45 113 -45 73z"/>
<path d="M21466 6438 c-8 -13 -19 -57 -25 -98 -17 -117 -49 -368 -56 -440 -3
-36 -10 -94 -15 -130 -30 -214 -33 -261 -22 -272 8 -8 14 -5 21 13 10 23 62
308 76 414 8 68 76 479 80 485 7 12 -16 50 -29 50 -9 0 -22 -10 -30 -22z"/>
<path d="M27520 6321 c0 -17 5 -31 10 -31 6 0 10 11 10 24 0 14 -4 28 -10 31
-6 4 -10 -7 -10 -24z"/>
<path d="M27560 6196 c0 -24 16 -43 27 -32 8 8 -6 56 -17 56 -6 0 -10 -11 -10
-24z"/>
<path d="M27592 6109 c3 -24 11 -57 17 -72 15 -39 32 -25 19 16 -6 17 -12 44
-15 60 -9 48 -26 45 -21 -4z"/>
<path d="M25976 5985 c-11 -12 -16 -35 -16 -79 0 -34 -9 -161 -21 -282 -22
-236 -32 -775 -15 -784 17 -9 24 47 40 322 18 299 28 416 52 615 17 135 14
192 -10 212 -11 9 -18 8 -30 -4z"/>
<path d="M27635 5949 c3 -23 9 -55 14 -73 29 -93 41 -140 41 -157 0 -11 7 -19
16 -19 12 0 15 6 11 23 -4 12 -9 41 -13 65 -4 23 -11 45 -15 48 -5 3 -9 15 -9
28 0 28 -29 114 -40 121 -5 3 -7 -13 -5 -36z"/>
<path d="M27708 5674 c-5 -4 1 -40 21 -119 5 -22 15 -65 20 -95 6 -30 13 -64
16 -75 10 -43 25 -122 31 -168 4 -26 11 -50 17 -54 21 -13 -4 143 -59 369 -13
53 -24 106 -24 117 0 20 -13 35 -22 25z"/>
<path d="M19746 5438 c-8 -13 -17 -48 -21 -80 -3 -31 -17 -98 -31 -150 -41
-155 -48 -193 -40 -222 5 -21 12 -27 28 -24 18 2 24 13 34 58 6 30 23 98 37
150 39 146 52 235 39 265 -14 31 -27 32 -46 3z"/>
<path d="M19995 5322 c-67 -42 -122 -159 -112 -243 7 -55 23 -83 64 -110 56
-38 131 -12 180 60 44 65 18 215 -41 242 -16 7 -26 22 -28 38 -4 32 -24 37
-63 13z m74 -111 c43 -43 35 -155 -14 -187 -39 -26 -77 -15 -99 29 -16 33 -17
44 -7 83 17 67 38 94 72 94 16 0 38 -9 48 -19z"/>
<path d="M20847 5304 c-77 -18 -106 -34 -155 -87 -73 -81 -91 -207 -39 -284
59 -87 175 -110 275 -53 33 19 75 58 114 106 68 82 72 82 81 -5 7 -57 47 -131
71 -131 22 0 27 30 11 64 -9 17 -20 74 -25 126 -12 125 -13 116 11 139 30 28
18 47 -33 55 -24 4 -55 12 -68 20 -120 64 -155 71 -243 50z m194 -80 c42 -19
59 -32 59 -46 0 -31 -73 -130 -144 -195 -98 -90 -173 -104 -230 -44 -83 87
-24 263 102 301 60 18 152 11 213 -16z"/>
<path d="M20273 5293 c-10 -4 -13 -50 -13 -186 0 -241 17 -344 51 -310 15 15
22 416 8 460 -10 32 -25 43 -46 36z"/>
<path d="M22276 5168 c-3 -13 -7 -72 -10 -133 -15 -285 -23 -349 -55 -439 -36
-101 -38 -119 -14 -114 22 4 45 78 84 268 58 278 70 381 49 421 -15 27 -48 25
-54 -3z"/>
<path d="M27814 5131 c3 -4 8 -38 10 -75 3 -37 10 -102 16 -144 5 -42 11 -92
12 -111 2 -19 9 -36 17 -39 13 -4 12 64 -5 193 -3 22 -7 60 -10 85 -4 25 -10
49 -15 55 -5 5 -9 17 -9 27 0 10 -5 18 -11 18 -5 0 -8 -4 -5 -9z"/>
<path d="M25840 4755 c-11 -13 -9 -33 9 -112 26 -115 39 -253 23 -253 -6 0
-14 4 -17 10 -12 20 -112 62 -165 70 -42 6 -64 3 -95 -10 -143 -62 -132 -207
21 -277 67 -30 107 -34 112 -11 2 12 -6 21 -25 29 -120 47 -158 89 -133 149
20 47 72 70 137 60 53 -9 127 -46 157 -78 9 -10 30 -46 46 -80 46 -95 85 -79
50 20 -10 29 -21 98 -24 153 -7 107 -33 286 -47 323 -10 26 -31 29 -49 7z"/>
<path d="M27865 4678 c3 -40 8 -104 11 -143 12 -141 11 -604 -2 -775 -30 -407
-76 -663 -181 -1000 -129 -412 -293 -723 -480 -907 -99 -98 -253 -198 -321
-211 -65 -11 -251 -13 -297 -3 -28 6 -88 13 -133 16 -45 2 -87 7 -92 10 -6 4
-38 8 -73 11 -34 2 -98 12 -142 20 -44 9 -98 20 -120 24 -22 4 -53 13 -70 18
-140 50 -179 61 -187 56 -12 -8 10 -34 29 -34 8 0 80 -22 161 -49 114 -39 171
-52 257 -61 125 -12 268 -29 305 -36 14 -3 69 -10 123 -15 228 -23 411 47 590
227 112 112 185 222 314 474 39 77 131 302 168 415 31 94 101 367 115 445 64
368 84 636 78 1025 -7 399 -20 554 -46 563 -10 3 -11 -13 -7 -70z"/>
<path d="M26599 4485 c-102 -76 -115 -231 -25 -300 32 -24 127 -49 163 -43 27
5 26 -24 0 -83 -37 -81 -90 -208 -147 -354 -58 -146 -106 -238 -114 -215 -2 8
-7 42 -11 75 -7 72 -24 95 -50 69 -14 -14 -16 -27 -11 -63 4 -25 9 -80 12
-121 6 -73 5 -76 -25 -114 -17 -21 -31 -44 -31 -50 1 -6 12 2 25 19 13 16 27
26 31 22 4 -4 7 -79 6 -167 0 -88 3 -160 7 -160 26 0 37 78 45 301 4 120 8
133 57 205 45 66 120 215 214 424 48 107 94 204 101 215 19 26 18 64 -1 72 -9
3 -46 -2 -83 -11 -37 -9 -76 -16 -87 -16 -27 0 -76 33 -91 62 -40 72 26 198
103 198 10 0 36 -9 58 -20 56 -29 77 -27 73 8 -2 21 -13 32 -48 50 -61 31
-126 30 -171 -3z"/>
<path d="M26151 4424 c-25 -31 -26 -48 -7 -66 12 -11 7 -19 -32 -54 -52 -46
-60 -85 -26 -131 42 -55 69 -67 153 -68 68 0 83 3 118 27 58 38 81 99 63 165
-26 89 -108 152 -202 153 -39 0 -50 -5 -67 -26z m175 -78 c55 -54 59 -94 16
-145 -25 -30 -35 -35 -87 -39 -112 -9 -163 48 -90 104 38 28 44 54 20 74 -25
21 9 50 58 50 33 0 46 -7 83 -44z"/>
<path d="M21460 3816 c8 -8 31 -17 50 -20 19 -3 48 -8 64 -12 21 -5 27 -3 24
6 -4 14 -86 39 -128 40 -21 0 -22 -2 -10 -14z"/>
<path d="M21680 3760 c0 -5 7 -10 16 -10 8 0 12 5 9 10 -3 6 -10 10 -16 10 -5
0 -9 -4 -9 -10z"/>
<path d="M26115 3746 c-12 -17 -16 -38 -12 -63 8 -66 -12 -368 -32 -464 -18
-88 -18 -119 -1 -119 37 0 73 181 89 455 10 153 5 205 -16 212 -7 3 -19 -7
-28 -21z"/>
<path d="M21740 3742 c0 -5 12 -14 26 -21 23 -10 26 -10 20 4 -3 9 -6 19 -6
21 0 2 -9 4 -20 4 -11 0 -20 -4 -20 -8z"/>
<path d="M21858 3694 c12 -8 41 -17 64 -20 23 -2 46 -8 52 -14 12 -12 36 -13
36 -1 0 10 -122 51 -152 51 l-22 0 22 -16z"/>
<path d="M22102 3614 c18 -18 153 -74 178 -74 30 0 -15 28 -95 59 -91 35 -106
38 -83 15z"/>
<path d="M25783 3609 c-17 -21 -18 -38 -4 -119 15 -81 9 -303 -10 -458 -12
-88 -7 -127 14 -135 32 -12 42 10 42 105 1 51 5 172 10 268 9 197 2 299 -24
331 -14 17 -19 19 -28 8z"/>
<path d="M22300 3540 c0 -11 27 -26 81 -45 50 -18 52 0 2 21 -21 9 -46 20 -55
25 -23 11 -28 11 -28 -1z"/>
<path d="M22595 3400 c3 -5 11 -10 16 -10 6 0 7 5 4 10 -3 6 -11 10 -16 10 -6
0 -7 -4 -4 -10z"/>
<path d="M22740 3350 c0 -5 9 -14 20 -20 11 -6 20 -7 20 -3 0 5 -9 14 -20 21
-11 7 -20 8 -20 2z"/>
<path d="M26292 3238 c-7 -7 -12 -19 -12 -27 0 -11 4 -10 20 4 21 19 26 35 12
35 -4 0 -13 -5 -20 -12z"/>
<path d="M23960 2752 c0 -4 13 -15 29 -25 35 -21 52 -6 19 17 -24 17 -48 21
-48 8z"/>
<path d="M24045 2700 c3 -5 10 -10 16 -10 5 0 9 5 9 10 0 6 -7 10 -16 10 -8 0
-12 -4 -9 -10z"/>
<path d="M24112 2669 c2 -7 10 -15 17 -17 8 -3 12 1 9 9 -2 7 -10 15 -17 17
-8 3 -12 -1 -9 -9z"/>
<path d="M24182 2618 c6 -18 28 -21 28 -4 0 9 -7 16 -16 16 -9 0 -14 -5 -12
-12z"/>
<path d="M24266 2566 c10 -8 21 -12 24 -10 5 6 -21 24 -34 24 -6 0 -1 -6 10
-14z"/>
<path d="M24340 2531 c0 -5 5 -13 10 -16 6 -3 10 -2 10 4 0 5 -4 13 -10 16 -5
3 -10 2 -10 -4z"/>
<path d="M24380 2500 c0 -5 5 -10 10 -10 6 0 10 5 10 10 0 6 -4 10 -10 10 -5
0 -10 -4 -10 -10z"/>
<path d="M24490 2440 c0 -5 5 -10 11 -10 5 0 7 5 4 10 -3 6 -8 10 -11 10 -2 0
-4 -4 -4 -10z"/>
<path d="M24800 2260 c0 -5 9 -10 21 -10 11 0 17 5 14 10 -3 6 -13 10 -21 10
-8 0 -14 -4 -14 -10z"/>
<path d="M25240 2010 c20 -13 43 -13 35 0 -3 6 -16 10 -28 10 -18 0 -19 -2 -7
-10z"/>
<path d="M25290 1990 c0 -5 5 -10 10 -10 6 0 10 5 10 10 0 6 -4 10 -10 10 -5
0 -10 -4 -10 -10z"/>
<path d="M25460 1923 c0 -7 33 -32 43 -33 16 0 5 16 -18 27 -14 6 -25 9 -25 6z"/>
<path d="M25532 1878 c3 -7 15 -15 27 -16 16 -3 22 1 19 10 -3 7 -15 15 -27
16 -16 3 -22 -1 -19 -10z"/>
<path d="M25705 1800 c3 -5 18 -10 33 -10 21 0 24 2 12 10 -20 13 -53 13 -45
0z"/>
<path d="M11706 775 c-5 -15 28 -155 45 -187 30 -57 25 55 -7 155 -16 48 -28
58 -38 32z"/>
</g>
</svg>
