<?xml version="1.0" standalone="no"?>
<!DOCTYPE svg PUBLIC "-//W3C//DTD SVG 20010904//EN"
 "http://www.w3.org/TR/2001/REC-SVG-20010904/DTD/svg10.dtd">
<svg version="1.0" xmlns="http://www.w3.org/2000/svg"
 width="2448.000000pt" height="3264.000000pt" viewBox="0 0 2448.000000 3264.000000"
 preserveAspectRatio="xMidYMid meet">
<metadata>
Created by potrace 1.12, written by Peter Selinger 2001-2015
</metadata>
<g transform="translate(0.000000,3264.000000) scale(0.100000,-0.100000)"
fill="#000000" stroke="none">
<path d="M4575 31588 c-104 -57 -251 -286 -492 -763 -83 -165 -164 -331 -181
-370 -17 -38 -68 -149 -115 -245 -46 -96 -110 -231 -142 -300 -66 -141 -77
-161 -118 -208 -34 -40 -33 -75 1 -80 40 -6 80 18 111 67 35 54 161 317 161
335 0 6 4 16 9 21 4 6 23 46 41 90 18 44 39 91 46 105 18 32 103 227 114 260
4 14 38 90 75 170 207 447 407 792 492 847 44 29 48 7 24 -129 -54 -305 -63
-366 -82 -578 -22 -245 -36 -776 -24 -904 8 -93 32 -126 87 -126 112 2 200 76
303 256 42 73 225 438 225 449 0 3 9 24 19 48 10 23 31 74 45 112 43 114 119
260 139 263 13 3 17 -3 17 -30 0 -18 -5 -51 -10 -73 -38 -165 -71 -452 -71
-626 -1 -101 5 -125 33 -140 38 -20 46 5 58 171 21 299 67 632 113 820 29 115
24 135 -31 127 -46 -8 -74 -39 -126 -144 -22 -43 -55 -103 -75 -133 -19 -30
-102 -189 -184 -354 -81 -164 -160 -317 -174 -340 -124 -197 -203 -296 -236
-296 -7 0 -19 5 -27 10 -34 21 -16 645 30 1056 11 98 23 190 26 204 4 14 10
59 15 100 4 41 14 113 23 160 20 108 20 145 0 164 -18 19 -89 21 -119 4z"/>
<path d="M1730 31565 c-28 -34 7 -63 196 -159 99 -50 211 -104 249 -119 39
-14 122 -47 185 -71 158 -61 311 -131 337 -154 25 -22 22 -52 -7 -70 -30 -19
-179 -40 -470 -67 -361 -34 -714 -46 -1270 -45 -250 1 -517 1 -592 1 -135 1
-232 -15 -265 -43 -16 -13 -17 -52 -3 -78 19 -36 44 -41 107 -21 87 28 204 33
441 21 354 -17 1353 10 1612 44 14 2 70 9 125 15 55 7 138 20 185 30 51 12 89
16 95 10 12 -12 15 -10 -160 -133 -151 -107 -358 -258 -470 -341 -33 -25 -105
-76 -160 -114 -109 -75 -156 -130 -135 -156 7 -8 21 -15 31 -15 41 0 776 515
962 675 98 84 161 175 151 220 -16 73 -64 112 -286 234 -196 107 -338 176
-463 224 -49 19 -137 53 -195 76 -128 51 -180 60 -200 36z m977 -610 c5 -16
-22 -55 -39 -55 -11 0 -10 13 2 44 11 29 28 34 37 11z"/>
<path d="M325 31409 c-10 -15 3 -25 16 -12 7 7 7 13 1 17 -6 3 -14 1 -17 -5z"/>
<path d="M130 31220 c0 -5 5 -10 10 -10 6 0 10 5 10 10 0 6 -4 10 -10 10 -5 0
-10 -4 -10 -10z"/>
<path d="M8349 31187 c-48 -36 -159 -348 -228 -637 -37 -158 -91 -422 -91
-449 0 -45 74 -50 150 -11 19 10 103 83 185 161 213 201 305 281 318 276 27
-9 0 -294 -58 -597 -34 -179 -34 -183 -24 -202 12 -22 38 -23 67 -2 18 12 22
25 22 65 0 43 3 51 25 59 45 17 132 160 170 280 9 30 31 85 48 123 25 57 28
71 19 92 -9 18 -19 25 -41 25 -36 0 -54 -23 -76 -99 -52 -177 -71 -231 -82
-231 -6 0 -14 3 -16 8 -4 7 8 93 37 267 9 50 19 133 22 185 6 87 5 96 -14 113
-39 36 -103 21 -180 -41 -109 -87 -311 -264 -367 -321 -66 -68 -95 -78 -95
-33 0 42 125 529 171 667 22 66 58 157 81 202 22 45 38 89 35 98 -8 18 -55 20
-78 2z"/>
<path d="M15162 31063 c-92 -139 -176 -302 -222 -426 -46 -127 -95 -300 -110
-387 -7 -41 -17 -79 -21 -84 -4 -5 -36 16 -71 46 -118 103 -234 151 -369 151
-63 1 -85 -4 -141 -30 -108 -51 -155 -138 -137 -254 36 -230 210 -323 554
-298 210 15 632 83 864 139 l131 32 107 -36 c162 -53 219 -65 360 -77 142 -12
183 -5 183 31 0 34 -55 60 -130 60 -71 0 -226 23 -277 41 -45 15 -41 36 10 49
186 49 295 107 390 208 57 62 65 117 27 192 -33 64 -88 104 -198 144 -177 64
-366 10 -590 -166 -104 -83 -151 -170 -130 -245 6 -23 30 -56 64 -89 30 -29
54 -55 54 -58 0 -4 -90 -19 -185 -31 -27 -3 -122 -19 -210 -35 -264 -48 -390
-62 -555 -62 -117 0 -166 4 -199 16 -94 34 -142 94 -162 204 -20 105 21 168
120 183 126 19 332 -95 426 -236 37 -57 60 -75 93 -75 32 0 46 28 48 93 3 103
115 480 208 696 46 108 103 206 179 305 67 88 68 109 4 114 -36 3 -37 3 -115
-115z m899 -572 c102 -39 149 -86 157 -158 4 -42 3 -46 -33 -76 -95 -79 -397
-207 -487 -207 -92 0 -198 92 -198 172 0 28 9 43 53 85 82 80 241 176 322 196
49 12 138 6 186 -12z"/>
<path d="M8852 31074 c-29 -20 -28 -36 4 -91 34 -57 64 -72 99 -49 29 19 31
30 10 80 -30 71 -69 91 -113 60z"/>
<path d="M12847 30770 c-92 -29 -205 -109 -313 -221 -87 -92 -127 -150 -165
-240 -54 -133 -61 -248 -18 -318 51 -84 208 -95 374 -26 147 60 246 115 243
134 -6 27 -78 15 -216 -37 -111 -41 -137 -47 -204 -47 -67 0 -80 3 -100 22
-46 46 -19 203 55 328 91 152 283 306 408 326 34 5 66 12 71 15 13 8 9 41 -7
54 -19 16 -92 22 -128 10z"/>
<path d="M7511 30729 c-251 -37 -504 -362 -505 -649 0 -161 66 -270 173 -285
91 -12 251 52 354 144 63 56 235 233 256 264 8 12 29 39 48 60 34 38 41 61 23
72 -15 10 -29 -1 -171 -139 -231 -223 -333 -294 -439 -303 -49 -5 -59 -2 -86
20 -32 27 -49 70 -59 152 -9 68 32 223 81 312 87 154 239 273 351 273 56 0 93
-13 93 -31 0 -6 -27 -45 -60 -86 -84 -104 -71 -116 45 -41 96 63 141 135 115
183 -26 48 -112 69 -219 54z"/>
<path d="M10555 30721 c-118 -19 -290 -118 -355 -205 -55 -73 -68 -110 -76
-214 l-7 -91 -49 -11 c-73 -15 -90 -27 -86 -58 3 -27 4 -27 74 -24 77 3 83 0
102 -56 19 -56 78 -127 129 -154 81 -44 181 -62 308 -54 136 8 258 29 291 51
21 14 23 19 13 32 -12 13 -37 14 -194 8 -281 -11 -387 22 -446 137 -33 64 -28
72 58 97 80 23 266 112 343 164 149 99 214 222 163 308 -35 59 -149 89 -268
70z m130 -85 c134 -56 14 -194 -290 -334 -124 -57 -145 -63 -167 -56 -18 5
-20 12 -14 56 4 27 16 75 28 106 58 154 309 284 443 228z"/>
<path d="M9306 30682 c-11 -13 -14 -28 -10 -49 9 -46 -14 -294 -37 -408 -12
-55 -32 -129 -46 -165 -37 -95 -43 -126 -28 -146 14 -20 59 -13 88 14 11 9 64
107 118 217 120 241 147 289 197 345 58 66 66 53 59 -99 -3 -69 -15 -184 -25
-256 -40 -261 -38 -298 21 -318 47 -15 60 5 53 83 -5 45 -1 98 13 175 29 159
41 288 41 423 0 102 -3 121 -18 135 -23 21 -64 22 -101 2 -44 -22 -135 -129
-172 -201 -19 -36 -42 -72 -52 -81 -34 -31 -38 -3 -17 136 25 170 17 211 -40
211 -15 0 -34 -8 -44 -18z"/>
<path d="M6225 30581 c-95 -34 -169 -84 -255 -170 -161 -163 -250 -366 -250
-570 0 -60 4 -74 25 -100 14 -16 42 -35 62 -42 80 -26 228 36 363 153 90 78
147 155 192 261 16 40 34 76 39 82 16 16 31 -11 66 -117 61 -186 98 -224 205
-209 95 13 142 61 61 61 -20 0 -56 9 -79 20 -34 17 -46 31 -67 78 -42 95 -97
282 -109 367 -12 95 -18 109 -47 113 -17 3 -20 7 -11 17 16 19 3 42 -35 59
-42 20 -97 19 -160 -3z m150 -83 c6 -8 -18 -180 -31 -228 -32 -112 -149 -281
-253 -365 -146 -118 -281 -142 -281 -49 0 48 44 218 74 285 67 152 176 272
312 344 42 22 58 25 113 21 35 -3 65 -7 66 -8z"/>
<path d="M13376 30500 c-123 -25 -216 -63 -260 -107 -42 -43 -53 -72 -36 -103
11 -21 16 -22 82 -15 66 6 70 5 63 -12 -39 -94 -51 -232 -26 -305 46 -139 290
-146 548 -17 79 39 115 64 153 105 101 112 92 206 -34 329 -74 73 -147 110
-253 131 -92 17 -124 17 -237 -6z m217 -76 c75 -19 129 -50 186 -106 40 -40
91 -126 91 -155 0 -7 -16 -31 -37 -53 -71 -80 -285 -160 -424 -160 -63 0 -69
2 -94 32 -26 30 -27 36 -23 122 5 126 37 195 127 277 73 65 81 67 174 43z
m-283 -27 c0 -7 -12 -28 -28 -46 l-27 -33 -38 15 c-24 11 -35 21 -31 30 12 33
124 64 124 34z"/>
<path d="M7560 28251 c-7 -14 -7 -162 0 -478 5 -252 12 -580 15 -729 5 -280
-7 -587 -26 -657 -19 -70 5 -106 58 -86 27 10 48 78 62 204 7 69 19 1636 12
1692 0 6 -13 25 -27 42 -31 37 -77 42 -94 12z"/>
<path d="M11049 28169 c-18 -18 -20 -28 -14 -82 10 -97 -16 -256 -115 -692
-110 -484 -207 -1232 -166 -1274 20 -19 60 -7 74 23 14 32 28 118 42 271 11
118 85 598 115 745 31 155 53 247 73 320 12 41 38 149 59 240 32 141 37 183
38 288 l0 124 -33 29 c-39 35 -46 35 -73 8z"/>
<path d="M6100 27943 c-76 -8 -238 -37 -520 -93 -429 -86 -469 -92 -620 -92
-74 -1 -143 -5 -153 -10 -12 -6 -17 -18 -15 -36 2 -20 15 -32 53 -51 47 -24
59 -26 190 -26 154 1 215 10 600 86 443 88 595 104 729 78 68 -14 116 -53 116
-94 0 -47 -30 -146 -67 -219 -57 -115 -134 -228 -324 -480 -195 -259 -281
-386 -377 -557 -49 -87 -151 -300 -176 -364 -29 -77 -32 -117 -13 -154 26 -52
87 -42 87 15 0 13 4 32 10 42 5 9 23 51 41 92 27 65 88 186 164 325 63 116
156 251 338 493 292 389 387 540 423 674 68 256 -132 408 -486 371z"/>
<path d="M9305 27943 c-51 -7 -126 -34 -220 -81 -327 -162 -515 -375 -570
-643 -25 -119 -17 -319 15 -404 62 -162 177 -249 371 -282 78 -14 111 -14 195
-5 153 17 244 45 419 131 281 138 447 285 549 485 77 151 91 299 42 460 -25
81 -33 95 -86 148 -97 97 -267 157 -460 164 -63 2 -128 8 -145 13 -46 14 -77
18 -110 14z m405 -143 c159 -54 246 -114 284 -194 54 -115 45 -291 -24 -432
-110 -228 -449 -445 -795 -509 -179 -34 -386 -5 -458 63 -106 100 -121 313
-40 552 32 93 62 148 126 225 99 121 286 265 323 251 13 -5 13 -10 -2 -35 -15
-25 -15 -32 -5 -45 27 -32 78 -18 143 40 38 34 127 84 150 84 7 0 29 -18 50
-41 49 -54 73 -50 74 11 0 25 1 49 2 54 3 14 100 0 172 -24z"/>
<path d="M8688 26279 c-26 -15 -22 -37 12 -69 26 -24 57 -35 188 -65 86 -20
220 -56 298 -81 83 -26 177 -48 230 -54 179 -20 245 -31 356 -59 62 -16 133
-32 158 -35 25 -3 259 -8 520 -11 440 -5 487 -4 635 16 88 11 226 23 307 26
151 6 178 14 165 47 -3 8 -17 22 -30 31 -22 14 -41 14 -209 0 -102 -8 -218
-20 -259 -27 -77 -12 -972 -15 -1094 -2 -33 3 -125 21 -205 40 -80 18 -209 41
-285 49 -108 11 -172 25 -280 58 -77 25 -192 57 -255 72 -63 15 -136 39 -162
51 -52 26 -65 28 -90 13z"/>
<path d="M7970 26093 c-14 -2 -82 -15 -153 -29 -84 -16 -162 -24 -230 -24
-112 0 -284 23 -300 39 -25 25 -127 -2 -127 -33 0 -31 42 -51 134 -63 268 -36
413 -38 531 -8 115 30 242 47 335 43 93 -3 95 -3 98 20 2 13 -4 32 -14 43 -15
17 -30 19 -133 18 -64 -1 -127 -4 -141 -6z"/>
<path d="M6199 25936 c-2 -2 -86 -9 -186 -15 -99 -6 -286 -27 -415 -45 -128
-19 -305 -42 -393 -51 -166 -18 -225 -34 -225 -59 0 -27 18 -63 36 -70 25 -10
228 14 531 63 67 11 200 27 295 35 95 9 224 21 286 26 183 17 267 56 213 101
-17 14 -39 19 -80 19 -32 0 -60 -2 -62 -4z"/>
<path d="M13425 25560 c-9 -15 22 -60 40 -60 18 0 20 41 3 58 -15 15 -35 15
-43 2z"/>
<path d="M7710 25364 c-146 -29 -237 -60 -510 -173 -69 -29 -180 -73 -248 -98
-123 -45 -156 -69 -144 -102 9 -26 23 -31 87 -31 51 0 86 10 225 65 91 36 189
77 218 90 29 14 58 25 65 25 7 0 17 4 23 9 18 18 218 82 300 96 138 24 242 -4
271 -73 41 -98 -57 -308 -275 -592 -68 -88 -197 -245 -318 -386 -198 -231
-362 -458 -364 -502 0 -7 -10 -26 -22 -42 -18 -25 -20 -34 -10 -54 17 -38 58
-54 196 -76 235 -38 370 -25 621 58 83 27 165 53 183 57 44 9 102 61 102 90 0
22 -69 95 -89 95 -23 0 -120 -37 -152 -57 -100 -65 -554 -156 -662 -133 -27 5
-32 11 -30 32 2 28 200 297 332 452 425 497 575 714 617 894 35 150 -26 279
-161 337 -40 17 -202 29 -255 19z"/>
<path d="M11075 25201 c-177 -24 -322 -99 -453 -235 -59 -62 -77 -96 -70 -133
9 -47 66 -21 173 77 62 58 159 112 250 142 98 31 284 31 404 0 97 -25 232 -90
311 -149 67 -49 161 -149 194 -206 39 -65 58 -152 45 -201 -16 -62 -73 -139
-147 -199 -189 -152 -363 -236 -587 -284 -112 -23 -330 -24 -407 0 -112 34
-188 121 -188 215 0 42 36 149 68 202 114 189 340 438 419 459 21 6 43 11 49
11 21 0 75 71 72 93 -7 51 -96 57 -174 12 -91 -53 -349 -334 -423 -461 -19
-33 -42 -71 -52 -86 -10 -15 -31 -62 -45 -105 -22 -65 -25 -90 -21 -149 6 -86
23 -129 73 -183 77 -86 187 -130 349 -138 193 -10 364 22 557 103 253 107 458
268 540 424 20 38 23 60 23 145 0 113 -8 138 -71 235 -110 170 -337 335 -539
390 -88 24 -250 34 -350 21z"/>
<path d="M9400 25125 c-317 -46 -575 -191 -667 -374 -13 -24 -23 -59 -23 -76
0 -41 52 -119 99 -150 41 -28 193 -90 266 -110 108 -30 126 -37 132 -51 3 -8
-17 -46 -45 -87 -132 -191 -184 -305 -186 -405 -4 -254 295 -365 586 -217 226
114 325 276 258 423 -23 50 -102 137 -182 198 -63 49 -188 118 -230 128 -16 4
-28 10 -28 14 0 17 210 259 296 343 72 70 101 90 150 109 43 15 65 29 73 46
37 81 -36 120 -138 74 -76 -35 -293 -268 -421 -452 -20 -30 -45 -54 -57 -56
-24 -4 -370 131 -415 162 -17 11 -33 27 -36 33 -7 22 104 127 185 175 101 60
215 104 447 173 67 19 136 61 136 81 0 35 -57 40 -200 19z m54 -866 c158 -94
219 -146 256 -222 25 -52 29 -68 21 -89 -44 -116 -305 -259 -449 -246 -136 13
-223 108 -192 212 10 35 83 184 115 235 6 9 32 54 58 100 38 64 53 82 67 78 9
-2 65 -33 124 -68z"/>
<path d="M5565 24661 c-265 -72 -445 -189 -595 -386 -131 -172 -209 -355 -196
-454 14 -103 102 -228 200 -286 196 -115 559 -140 996 -69 184 30 273 86 207
129 -21 13 -30 13 -78 1 -174 -46 -479 -67 -670 -47 -145 14 -308 54 -396 97
-63 30 -79 43 -111 91 -33 51 -37 63 -37 122 0 58 6 77 42 149 82 160 203 315
307 391 148 108 352 168 539 159 116 -6 160 -22 246 -87 56 -42 94 -51 132
-31 23 13 25 47 5 76 -19 26 -153 120 -203 141 -62 26 -299 28 -388 4z"/>
<path d="M12209 23554 c-154 -50 -243 -62 -543 -69 -163 -3 -330 -13 -425 -25
-244 -30 -362 -39 -561 -45 -102 -4 -279 -13 -395 -21 -148 -10 -351 -14 -686
-13 -456 2 -477 1 -520 -18 -62 -29 -129 -89 -129 -118 0 -37 25 -51 63 -36
66 27 145 32 592 35 253 3 507 9 565 15 58 5 229 15 380 21 151 6 334 18 405
26 356 41 494 52 687 53 206 2 320 10 412 31 88 20 208 72 247 107 40 36 51
76 26 86 -8 3 -61 -10 -118 -29z"/>
<path d="M5955 23373 c-22 -2 -94 -12 -160 -23 -292 -46 -352 -51 -710 -54
-255 -2 -262 -3 -350 -31 -49 -15 -124 -37 -166 -49 -116 -32 -133 -55 -78
-107 35 -33 97 -40 119 -14 7 8 26 15 43 15 16 0 54 11 83 25 30 14 77 30 105
35 60 12 315 12 374 1 l40 -7 -48 -8 c-26 -4 -45 -11 -42 -16 3 -4 13 -6 23
-4 9 2 206 13 437 24 424 20 595 34 628 51 23 13 22 61 -3 84 -17 15 -25 16
-62 7 -46 -12 -59 -9 -40 10 18 18 14 46 -7 58 -19 9 -99 11 -186 3z"/>
<path d="M7131 23284 c-59 -18 -71 -31 -71 -70 0 -43 5 -45 180 -83 188 -40
185 -40 380 -46 96 -3 206 -10 245 -15 l70 -9 53 36 c48 33 63 55 44 67 -26
16 -218 39 -347 41 -140 3 -162 6 -328 49 -99 25 -180 46 -180 45 -1 -1 -22
-7 -46 -15z"/>
<path d="M11574 22875 c-9 -14 -29 -87 -44 -162 -16 -76 -38 -181 -49 -233
-30 -141 -40 -261 -51 -573 -12 -364 -16 -420 -45 -612 -13 -88 -27 -193 -31
-232 -7 -73 -7 -73 18 -73 54 0 67 35 103 265 37 244 43 301 60 560 20 319 48
513 103 730 55 215 60 290 23 329 -31 33 -66 33 -87 1z"/>
<path d="M7840 22845 c-188 -33 -553 -120 -623 -147 -52 -20 -58 -71 -10 -89
39 -15 86 -11 180 15 223 61 536 122 684 133 98 7 159 -7 159 -37 0 -38 -132
-193 -355 -416 -383 -385 -410 -420 -355 -469 43 -39 155 -31 555 40 243 43
397 30 473 -40 34 -31 36 -35 35 -98 0 -54 -7 -80 -35 -139 -108 -227 -398
-477 -751 -649 -111 -54 -122 -56 -236 -47 -63 5 -69 -65 -8 -102 91 -56 270
9 562 203 371 247 577 515 576 749 -1 85 -22 139 -74 183 -120 103 -336 115
-711 39 -123 -24 -173 -31 -187 -23 -11 5 -19 12 -19 15 0 9 62 64 135 119
145 110 473 453 520 544 21 42 16 96 -16 147 -56 91 -237 116 -499 69z"/>
<path d="M5925 22770 c-391 -37 -1074 -262 -1293 -425 -60 -45 -73 -76 -47
-105 34 -38 97 -24 159 34 143 136 973 386 1280 386 92 0 146 -23 146 -61 0
-77 -127 -340 -316 -654 -213 -352 -263 -441 -398 -710 -53 -104 -123 -241
-156 -303 -68 -129 -68 -152 -4 -152 54 0 49 -8 256 369 26 47 63 115 82 151
48 91 59 111 77 140 9 14 43 70 75 125 32 55 86 143 119 195 257 399 395 675
395 793 0 164 -131 240 -375 217z"/>
<path d="M9795 22553 c-59 -5 -218 -32 -313 -54 -79 -18 -86 -18 -119 -2 -33
15 -37 15 -72 -3 -57 -30 -175 -153 -206 -214 -60 -118 -91 -267 -82 -383 11
-134 91 -316 181 -416 70 -78 190 -147 306 -177 78 -20 234 -14 319 11 210 64
468 249 556 400 13 22 38 83 56 135 89 265 -5 559 -209 652 -114 52 -233 67
-417 51z m320 -113 c89 -34 172 -122 205 -215 35 -98 36 -268 2 -367 -50 -143
-165 -260 -356 -359 -248 -130 -535 -114 -682 38 -59 60 -120 164 -139 238
-24 95 -20 228 11 327 14 45 40 106 56 135 30 52 89 113 110 113 7 0 28 11 48
25 30 21 75 32 236 60 171 30 217 34 324 31 101 -2 136 -7 185 -26z"/>
<path d="M6165 20816 c-38 -8 -151 -35 -250 -61 -349 -93 -557 -130 -865 -155
-149 -12 -201 -23 -225 -46 -22 -22 -19 -77 5 -99 20 -18 23 -18 68 -2 26 8
103 21 172 27 69 6 152 15 185 20 33 5 112 17 175 26 116 17 294 58 585 133
143 38 172 42 273 42 63 0 123 4 134 10 30 16 18 49 -28 82 -50 35 -126 43
-229 23z"/>
<path d="M9638 20811 c-34 -27 -35 -41 -5 -69 34 -32 69 -37 99 -13 24 19 40
21 175 21 81 0 191 -7 243 -14 92 -14 139 -9 125 15 -25 40 -180 68 -425 76
-180 5 -186 5 -212 -16z"/>
<path d="M11666 20699 c-59 -5 -110 -16 -124 -25 -33 -22 -26 -55 19 -77 32
-15 40 -16 70 -3 48 20 243 38 336 31 87 -7 115 3 97 32 -6 10 -27 23 -46 30
-51 17 -235 23 -352 12z"/>
<path d="M7760 20544 c-113 -12 -229 -23 -258 -23 -102 -1 -146 -51 -79 -91
38 -23 70 -26 86 -6 7 8 40 17 74 21 34 3 125 15 202 25 77 11 215 24 305 30
223 14 249 21 220 55 -19 23 -301 18 -550 -11z"/>
<path d="M11742 20350 c-70 -43 -154 -220 -193 -410 -37 -180 -94 -743 -93
-920 1 -129 31 -345 55 -392 12 -22 93 -19 97 4 2 9 -9 83 -23 165 -26 147
-35 327 -21 419 3 21 13 125 21 229 29 355 74 615 124 712 27 54 69 103 98
114 27 10 46 52 38 80 -8 26 -60 25 -103 -1z"/>
<path d="M5681 20273 c-28 -23 -39 -71 -47 -203 -14 -229 62 -872 156 -1310
48 -228 61 -338 58 -501 -3 -153 3 -179 42 -179 30 0 41 25 53 125 15 129 0
291 -52 550 -62 312 -95 532 -111 735 -6 74 -15 178 -21 230 -13 133 -13 390
2 471 10 55 10 71 -1 84 -17 20 -53 19 -79 -2z"/>
<path d="M7892 20133 c-222 -238 -334 -433 -372 -649 -26 -150 9 -200 211
-301 149 -74 285 -113 414 -119 63 -4 129 -2 155 4 59 14 70 5 59 -52 -11 -58
-59 -539 -59 -588 0 -52 23 -103 54 -124 25 -16 28 -16 46 1 25 22 26 54 3 71
-24 17 -23 97 4 339 12 105 24 228 28 275 8 112 9 115 58 143 23 14 53 39 66
57 21 29 22 34 8 47 -13 14 -19 14 -48 -1 -40 -20 -59 -20 -59 -1 0 8 16 98
35 199 46 241 93 374 169 471 38 50 53 62 93 81 58 25 53 104 -6 104 -64 0
-150 -94 -225 -245 -71 -144 -115 -317 -136 -535 -7 -63 -16 -119 -21 -125 -6
-5 -65 -12 -132 -13 -99 -3 -138 0 -207 17 -152 39 -322 116 -391 178 l-41 38
5 60 c10 105 99 312 180 420 53 70 151 166 190 186 28 15 37 26 37 45 0 78
-53 86 -118 17z"/>
<path d="M10092 20009 c-190 -18 -641 -163 -691 -222 -6 -9 -13 -27 -14 -42
-4 -55 82 -86 98 -36 7 23 66 49 270 117 194 65 282 84 383 84 190 0 235 -62
156 -215 -47 -92 -80 -136 -247 -337 -269 -321 -373 -490 -393 -636 -8 -64 4
-85 70 -117 48 -24 66 -26 164 -27 230 0 428 40 701 144 123 46 166 67 234
115 75 53 97 74 97 95 0 26 -18 23 -132 -26 -232 -98 -352 -139 -539 -183
-100 -23 -135 -27 -290 -27 -163 -1 -179 1 -199 19 -30 27 -23 52 46 171 71
123 152 233 327 443 215 257 277 364 284 485 6 96 -13 131 -87 168 -64 31
-123 37 -238 27z"/>
<path d="M12050 18569 c-30 -5 -129 -20 -220 -34 -91 -14 -177 -28 -192 -30
-17 -3 -33 1 -40 11 -38 46 -50 54 -81 54 -38 0 -77 -24 -77 -47 0 -14 -10
-15 -65 -10 -35 3 -79 14 -96 23 -24 12 -37 14 -55 5 -44 -20 -44 -109 1 -151
23 -22 26 -22 232 -17 163 3 252 11 413 35 196 30 287 38 339 30 20 -2 28 6
53 54 43 81 38 88 -69 87 -48 -1 -113 -5 -143 -10z"/>
<path d="M10455 18553 c-43 -6 -238 -58 -374 -100 -256 -78 -239 -75 -337 -68
-82 5 -92 4 -108 -14 -14 -15 -17 -29 -12 -54 11 -57 34 -70 122 -68 94 2 95
2 266 57 151 48 363 103 412 105 17 1 38 -2 47 -5 19 -8 44 23 74 92 26 60 10
69 -90 55z"/>
<path d="M7389 18205 c-62 -20 -113 -76 -104 -114 12 -51 25 -55 109 -36 67
15 93 16 209 6 72 -6 294 -11 492 -10 359 2 691 -13 709 -31 21 -21 54 -10 75
24 12 18 21 41 21 50 0 29 -88 74 -155 80 -198 17 -489 29 -760 31 -170 1
-364 5 -430 8 -94 6 -130 4 -166 -8z"/>
<path d="M11465 18129 c-120 -18 -283 -83 -408 -163 -239 -154 -352 -317 -327
-474 13 -79 71 -193 120 -234 21 -18 105 -62 185 -97 81 -35 149 -70 152 -77
3 -7 -16 -46 -40 -86 -116 -185 -217 -519 -217 -714 0 -124 46 -226 117 -259
128 -61 386 67 509 252 46 69 98 214 113 314 33 217 -66 405 -264 504 -98 48
-93 45 -73 56 10 5 54 53 99 107 44 53 149 170 232 260 147 158 221 258 215
290 -2 8 -10 19 -19 25 -28 17 -77 -11 -132 -77 -27 -34 -92 -106 -143 -161
-132 -144 -213 -241 -263 -318 -29 -45 -50 -67 -63 -67 -23 0 -217 105 -300
163 -74 51 -128 120 -128 163 0 75 159 220 342 311 127 63 185 81 309 95 102
11 115 11 202 -10 157 -39 143 -39 167 8 11 22 18 49 15 58 -10 30 -98 92
-160 112 -75 24 -162 31 -240 19z m-80 -1154 c128 -94 173 -165 182 -289 10
-135 -61 -338 -149 -426 -55 -55 -143 -104 -225 -125 -67 -17 -95 -12 -128 25
-28 31 -34 209 -10 318 32 147 123 391 192 517 30 55 37 55 138 -20z"/>
<path d="M6265 18054 c-129 -6 -374 -33 -725 -79 -102 -13 -234 -29 -295 -35
-147 -15 -154 -17 -165 -46 -12 -31 10 -79 40 -89 21 -7 109 2 350 36 80 11
240 33 357 49 223 31 403 47 618 56 133 5 175 17 175 50 0 8 -20 24 -45 35
-47 21 -169 30 -310 23z"/>
<path d="M9937 17566 c-174 -72 -371 -240 -495 -423 -111 -165 -156 -256 -217
-438 -82 -249 -64 -443 53 -545 67 -59 132 -76 247 -62 221 25 473 164 687
376 202 201 314 376 358 560 33 134 23 258 -27 344 -64 111 -253 162 -438 118
-67 -16 -85 -9 -61 25 29 42 16 69 -32 69 -9 0 -43 -11 -75 -24z m29 -182
c-40 -35 -143 -74 -194 -74 l-25 0 23 25 c39 41 137 85 189 85 l46 -1 -39 -35z
m373 -49 c35 -9 76 -24 92 -36 52 -37 63 -133 29 -264 -43 -167 -115 -280
-295 -461 -190 -191 -341 -284 -547 -336 -58 -14 -103 -19 -164 -16 -78 3 -85
5 -117 36 -43 42 -57 88 -57 194 0 139 64 340 152 477 52 81 149 210 175 234
20 17 53 15 53 -4 0 -15 30 -10 58 10 96 67 329 159 437 171 95 11 116 11 184
-5z"/>
<path d="M7518 17568 c-9 -7 -31 -47 -48 -88 -18 -41 -66 -133 -107 -205 -100
-174 -214 -408 -257 -527 -41 -110 -45 -161 -20 -271 22 -95 47 -143 87 -164
46 -24 183 -30 244 -10 27 8 111 27 188 42 77 14 170 33 206 42 94 23 100 18
91 -59 -4 -35 -7 -110 -7 -168 0 -116 14 -154 62 -166 41 -11 57 14 43 66 -11
42 -6 317 7 363 2 10 35 33 73 52 49 25 79 48 105 82 37 49 39 60 13 76 -11 7
-34 2 -83 -21 -37 -18 -71 -32 -76 -32 -5 0 -9 12 -9 27 0 58 78 581 111 742
26 128 26 131 -14 131 -31 0 -60 -21 -80 -56 -23 -40 -117 -687 -117 -801 0
-28 -5 -55 -11 -59 -6 -3 -54 -10 -107 -14 -54 -5 -162 -18 -241 -29 -170 -25
-297 -27 -346 -7 -42 18 -69 66 -61 110 16 83 175 420 255 538 80 118 185 378
165 409 -8 13 -48 11 -66 -3z"/>
<path d="M6101 17423 c-49 -24 -56 -25 -90 -13 -66 24 -149 15 -283 -30 -156
-53 -203 -76 -217 -107 -13 -29 -35 -26 -39 5 -2 13 -11 22 -20 22 -64 0 -304
-217 -375 -339 -48 -81 -77 -168 -77 -228 0 -131 136 -267 287 -288 59 -8 123
-24 123 -31 0 -2 -15 -35 -34 -72 -36 -73 -97 -253 -117 -343 -18 -84 -7 -260
20 -331 25 -65 88 -129 158 -160 25 -11 41 -24 37 -28 -22 -21 -332 -63 -480
-65 -84 -1 -157 -6 -163 -9 -18 -11 -13 -64 8 -85 49 -49 243 -38 586 34 369
78 662 123 846 132 102 5 135 10 152 23 18 15 19 20 9 33 -55 66 -295 62 -657
-12 -77 -15 -146 -26 -152 -23 -20 7 -6 20 28 27 89 20 385 273 518 442 53 68
101 167 101 207 0 51 -52 99 -155 144 -127 55 -289 102 -548 158 -82 18 -121
42 -49 29 40 -6 42 -5 67 35 15 23 53 91 86 151 53 97 167 269 219 331 11 13
53 64 95 115 77 93 126 133 163 133 34 0 62 46 62 101 0 38 -4 51 -19 59 -27
14 -30 13 -90 -17z m-131 -109 c20 -52 4 -83 -35 -68 -15 6 -22 74 -8 87 14
15 34 6 43 -19z m-90 -95 c0 -6 -29 -45 -65 -86 -119 -140 -213 -293 -291
-475 -19 -46 -41 -89 -49 -97 -20 -21 -52 -17 -178 23 -126 41 -197 88 -197
130 0 13 17 57 37 97 28 57 58 95 132 169 91 90 201 170 234 170 8 0 20 -7 27
-15 21 -25 74 -17 147 21 115 61 203 88 203 63z m-185 -870 c358 -98 465 -139
473 -182 6 -29 -58 -107 -208 -258 -197 -197 -303 -274 -424 -307 -105 -29
-189 85 -189 258 0 98 12 144 81 332 62 167 78 198 100 198 9 0 85 -18 167
-41z"/>
<path d="M8975 15870 c-23 -25 -10 -42 58 -77 40 -20 58 -24 93 -18 30 4 81
-3 181 -26 159 -37 303 -42 503 -19 152 17 350 15 480 -5 78 -13 222 -19 560
-25 250 -5 520 -14 600 -19 193 -14 825 -14 851 -1 10 6 19 17 19 24 0 35 -24
38 -317 37 -159 -1 -376 4 -483 10 -107 5 -386 14 -620 18 -348 7 -455 13
-590 31 -180 24 -315 24 -610 0 -172 -14 -163 -15 -495 55 -198 41 -206 41
-230 15z"/>
<path d="M7950 15804 c-77 -12 -164 -30 -320 -66 -166 -39 -184 -41 -342 -42
-171 -1 -197 -7 -185 -40 12 -32 57 -38 227 -33 140 5 184 10 290 37 298 74
384 84 467 51 54 -21 93 -14 93 17 0 30 -35 53 -102 68 -63 13 -82 14 -128 8z"/>
<path d="M11410 15094 c-240 -22 -497 -102 -730 -229 -122 -66 -126 -71 -112
-141 20 -99 44 -107 128 -39 187 153 592 258 906 235 129 -9 152 -14 181 -38
24 -21 22 -38 -14 -107 -67 -128 -217 -320 -478 -610 -239 -266 -341 -395
-411 -519 -40 -72 -52 -171 -27 -227 8 -19 18 -44 22 -56 11 -41 33 -53 92
-53 106 0 292 65 565 198 90 44 192 91 228 105 36 14 85 35 110 46 26 12 66
21 96 21 65 0 86 21 94 96 8 70 -4 89 -57 87 -45 -1 -230 -60 -362 -115 -400
-165 -608 -241 -645 -236 -11 2 -22 10 -24 19 -5 26 226 322 460 589 237 271
299 346 368 450 118 175 143 352 64 440 -52 57 -127 79 -284 84 -69 2 -145 2
-170 0z"/>
<path d="M9745 15011 c-110 -25 -201 -56 -331 -112 -61 -26 -137 -58 -170 -70
-102 -38 -324 -147 -330 -162 -3 -8 6 -41 19 -73 29 -69 48 -76 104 -41 52 33
80 45 298 133 306 122 516 184 629 184 49 0 64 -23 41 -63 -116 -202 -375
-496 -599 -681 -139 -114 -139 -114 -131 -161 3 -22 12 -46 19 -55 8 -8 17
-25 20 -37 11 -36 45 -28 116 28 61 48 219 155 359 242 79 50 253 131 313 147
51 13 78 4 78 -27 0 -20 -83 -106 -250 -257 -79 -72 -219 -204 -310 -292 -220
-215 -361 -337 -429 -371 -46 -23 -57 -33 -59 -56 -6 -54 57 -107 111 -94 58
15 202 132 437 356 91 86 192 182 225 211 206 188 360 339 382 377 24 42 25
49 19 136 -8 105 -21 131 -82 162 -49 24 -151 25 -214 1 -25 -10 -67 -22 -95
-28 -27 -5 -57 -16 -66 -24 -17 -15 -49 -19 -49 -6 0 14 23 32 42 32 9 0 21 6
25 13 4 6 24 23 44 37 76 53 183 202 215 302 12 36 15 67 11 116 -11 118 -49
145 -207 149 -74 2 -129 -3 -185 -16z m175 -671 c0 -11 -4 -20 -9 -20 -5 0
-24 -14 -43 -31 -43 -40 -158 -85 -158 -62 0 16 98 103 133 118 48 21 77 19
77 -5z"/>
<path d="M7985 14894 c-79 -7 -183 -26 -365 -69 -102 -23 -227 -52 -279 -64
-135 -32 -211 -73 -211 -115 0 -12 16 -45 35 -74 38 -55 64 -66 87 -34 7 10
19 22 26 26 25 15 570 145 667 159 101 15 175 11 182 -9 5 -15 -70 -91 -192
-194 -234 -200 -465 -415 -530 -495 -19 -23 -35 -51 -35 -62 0 -29 79 -132
107 -139 32 -8 79 2 218 46 199 64 304 89 423 100 111 10 125 9 211 -12 42
-11 43 -12 38 -44 -6 -38 -78 -153 -145 -234 -121 -145 -380 -413 -514 -531
-93 -82 -126 -101 -166 -93 -22 5 -35 1 -51 -15 -28 -28 -27 -37 13 -77 43
-43 77 -44 154 -5 111 56 234 166 497 445 153 163 221 246 277 341 40 67 42
74 46 165 4 86 2 98 -18 123 -49 61 -178 99 -340 99 -114 0 -216 -17 -353 -59
-63 -19 -91 -23 -98 -16 -16 16 -7 26 66 80 111 84 405 346 452 403 73 88 86
122 78 196 -8 77 -37 125 -85 140 -41 13 -139 22 -195 18z m-335 -915 c0 -5
-7 -9 -15 -9 -15 0 -20 12 -9 23 8 8 24 -1 24 -14z"/>
<path d="M5660 14795 c-131 -29 -274 -97 -437 -207 -133 -89 -203 -169 -203
-231 0 -34 60 -100 87 -95 9 2 28 25 42 53 14 27 42 65 62 85 45 44 217 165
281 197 177 89 488 97 488 12 0 -62 -100 -249 -298 -556 -64 -100 -129 -204
-145 -230 -15 -26 -50 -84 -77 -128 -28 -44 -90 -161 -139 -260 -146 -295
-193 -434 -177 -519 9 -45 56 -100 130 -151 l53 -36 74 10 c41 6 112 24 159
40 133 46 247 89 267 100 10 6 81 36 158 67 407 165 415 168 464 210 34 28 40
64 16 84 -17 14 17 24 -600 -175 -437 -140 -455 -145 -521 -152 -44 -5 -55 -3
-60 11 -15 39 184 481 318 706 41 69 89 150 107 180 33 56 136 214 248 379 78
116 130 221 143 291 26 134 -57 279 -177 309 -75 19 -192 22 -263 6z"/>
<path d="M11745 13150 c-184 -21 -414 -84 -459 -125 -22 -21 -25 -28 -16 -45
6 -11 22 -27 35 -36 23 -15 28 -15 82 14 69 35 132 56 233 77 144 31 186 35
326 35 106 0 145 4 160 15 25 18 10 46 -32 57 -47 13 -243 17 -329 8z"/>
<path d="M9588 12999 c-136 -8 -360 -39 -430 -59 -20 -6 -47 -19 -60 -29 l-23
-19 23 -25 c37 -39 62 -40 164 -7 101 33 257 55 458 65 329 16 417 33 366 71
-22 16 -255 17 -498 3z"/>
<path d="M7670 12864 c-142 -16 -170 -25 -170 -54 0 -15 13 -26 46 -40 54 -24
77 -25 107 -6 31 20 147 34 387 46 236 12 275 16 290 35 24 29 -24 35 -282 34
-139 -1 -309 -8 -378 -15z"/>
<path d="M6635 12763 c-194 -7 -976 -124 -1470 -221 -110 -22 -249 -43 -308
-47 -98 -6 -109 -9 -123 -30 -14 -21 -14 -27 0 -54 9 -16 25 -33 37 -36 43
-14 212 9 494 66 332 68 398 81 550 104 61 9 148 23 195 31 379 63 559 84 762
87 116 2 171 7 182 16 57 47 -108 91 -319 84z"/>
<path d="M10201 12598 c-63 -14 -142 -95 -186 -191 -58 -126 -99 -289 -122
-492 l-8 -70 -40 -13 c-22 -7 -103 -16 -181 -19 -117 -5 -149 -3 -192 11 -66
22 -87 51 -77 103 8 43 120 385 136 414 6 13 21 19 44 19 41 0 67 24 63 59 -3
23 -9 27 -55 34 -63 10 -109 -8 -135 -53 -24 -43 -157 -441 -164 -493 -19
-134 72 -189 314 -190 83 -1 136 5 182 17 102 28 95 35 97 -84 5 -229 59 -762
84 -828 7 -18 15 -23 37 -20 42 5 52 49 42 198 -23 344 -30 479 -33 628 -2
189 -8 177 102 212 186 60 394 226 436 349 39 116 9 224 -94 331 -44 46 -67
62 -110 74 -61 18 -76 18 -140 4z m127 -93 c53 -23 79 -51 102 -112 27 -73 25
-117 -9 -188 -42 -88 -114 -152 -284 -254 -105 -63 -123 -63 -119 -1 8 129 77
377 133 476 52 92 97 112 177 79z"/>
<path d="M11602 12529 c-80 -15 -185 -75 -265 -149 -107 -100 -141 -160 -89
-160 9 0 53 32 97 70 46 41 115 88 164 112 83 43 84 43 191 43 102 0 110 -1
176 -35 47 -24 77 -47 96 -75 89 -128 72 -362 -54 -755 -79 -247 -231 -500
-404 -674 -167 -167 -309 -256 -419 -264 -55 -4 -64 -1 -92 22 -53 45 -58 74
-58 361 1 273 17 430 66 645 58 253 190 614 246 672 23 24 24 29 12 44 -20 24
-56 35 -84 24 -37 -14 -72 -76 -127 -222 -164 -440 -215 -688 -225 -1093 -8
-298 10 -409 75 -485 44 -52 91 -72 172 -73 138 -1 269 66 451 229 236 211
411 514 519 899 58 205 73 302 74 450 1 101 -3 142 -17 182 -38 109 -110 174
-240 218 -80 26 -177 32 -265 14z"/>
<path d="M8320 12283 c-164 -28 -390 -107 -535 -186 -106 -57 -261 -186 -268
-223 -10 -54 30 -87 75 -63 13 7 57 44 99 83 124 116 295 201 517 257 229 58
385 61 425 7 18 -24 19 -31 8 -75 -30 -120 -164 -351 -367 -628 -438 -598
-610 -845 -627 -901 -14 -44 -3 -81 27 -86 31 -6 240 26 291 45 22 8 76 31
120 52 44 20 114 50 155 67 41 16 100 42 131 58 31 15 92 43 135 61 106 44
436 215 463 240 11 11 21 30 21 42 0 12 3 32 6 45 9 34 -11 29 -143 -36 -138
-67 -191 -91 -413 -183 -329 -138 -319 -134 -519 -225 -77 -35 -101 -41 -101
-24 0 22 44 95 98 166 65 84 128 169 197 269 26 39 85 121 129 183 212 296
301 424 350 507 83 139 95 163 128 244 24 62 29 87 26 136 -5 77 -30 114 -100
149 -48 24 -61 26 -177 25 -70 -1 -137 -4 -151 -6z"/>
<path d="M6625 11990 c-209 -48 -459 -203 -734 -457 -116 -106 -281 -300 -374
-441 -214 -319 -318 -572 -259 -625 29 -27 51 -18 90 33 40 53 62 62 62 28 0
-47 32 -118 75 -165 141 -157 455 -229 680 -157 166 54 410 217 580 388 177
178 294 350 368 543 67 172 87 264 88 403 1 88 -3 117 -24 177 -64 184 -212
294 -397 292 -41 0 -111 -9 -155 -19z m268 -109 c84 -20 151 -92 184 -199 54
-179 -38 -520 -210 -777 -78 -116 -292 -330 -407 -407 -116 -77 -220 -131
-315 -165 -74 -25 -92 -27 -225 -27 -126 0 -152 3 -202 23 -90 35 -147 80
-182 141 -30 53 -31 59 -31 180 0 142 3 148 114 323 161 253 314 421 567 620
184 145 257 189 424 254 103 40 205 52 283 34z"/>
<path d="M9640 10410 c-100 -13 -127 -20 -145 -39 -23 -26 -12 -56 26 -71 25
-11 42 -9 117 11 106 29 265 31 449 4 65 -9 141 -15 168 -13 43 3 50 6 53 26
2 12 1 22 -1 22 -3 0 -49 9 -103 20 -231 48 -408 60 -564 40z"/>
<path d="M11740 10393 c-108 -7 -313 -34 -332 -44 -30 -16 -20 -59 20 -82 32
-19 37 -19 110 -4 177 37 282 47 459 46 130 -2 189 2 218 12 43 15 57 42 28
57 -19 10 -406 21 -503 15z"/>
<path d="M6940 10244 c-112 -13 -260 -41 -445 -84 -325 -76 -539 -118 -795
-156 -149 -22 -353 -62 -435 -86 -114 -33 -273 -98 -305 -125 -35 -29 -38 -51
-9 -87 25 -32 48 -33 93 -2 48 32 197 91 292 115 82 20 158 35 539 101 126 23
286 54 355 70 69 17 220 52 335 79 211 50 336 74 454 86 99 10 146 42 108 74
-15 12 -132 21 -187 15z"/>
<path d="M8230 10079 c-91 -15 -194 -28 -230 -29 -70 0 -105 -13 -127 -46 -12
-19 -12 -24 2 -38 37 -37 97 -30 440 48 153 35 200 53 200 76 0 25 -103 21
-285 -11z"/>
<path d="M11761 9930 c-293 -23 -521 -77 -521 -123 0 -18 43 -57 62 -57 9 0
38 11 65 24 59 30 102 40 258 61 177 23 407 29 590 16 187 -14 210 -22 209
-72 -2 -61 -65 -143 -233 -303 -227 -217 -481 -477 -481 -492 0 -23 59 -63
106 -70 25 -3 118 -2 207 4 223 15 345 1 481 -55 76 -32 116 -62 116 -87 -1
-57 -113 -156 -360 -320 -189 -125 -225 -147 -550 -341 -122 -73 -485 -241
-561 -260 -42 -11 -94 -58 -86 -79 10 -24 67 -16 207 31 243 81 660 305 1100
591 206 134 350 262 366 328 30 121 -177 249 -456 284 -69 8 -313 -2 -381 -16
-16 -3 -30 1 -38 9 -9 12 16 40 141 158 449 422 538 525 538 621 0 110 -106
145 -455 152 -115 3 -261 1 -324 -4z"/>
<path d="M10350 9794 c-114 -17 -172 -30 -229 -54 -115 -47 -233 -120 -344
-212 -26 -22 -28 -26 -16 -51 11 -25 10 -30 -13 -55 -149 -162 -242 -372 -268
-607 -26 -231 15 -420 113 -514 52 -51 109 -71 217 -78 143 -8 305 50 499 178
164 108 333 275 454 446 53 76 122 219 142 298 60 234 -47 495 -245 595 -88
44 -218 67 -310 54z m191 -90 c157 -47 254 -185 266 -379 14 -213 -125 -460
-397 -707 -107 -98 -186 -155 -292 -212 -171 -92 -339 -115 -425 -59 -82 53
-117 162 -117 363 0 309 102 535 344 763 114 107 189 149 262 145 57 -3 58 -2
46 67 -2 16 4 21 32 26 73 13 226 9 281 -7z"/>
<path d="M6610 9663 c-41 -6 -151 -34 -174 -43 -11 -5 -59 -23 -105 -40 -119
-45 -270 -121 -358 -182 -142 -98 -266 -261 -287 -377 -16 -89 51 -179 203
-271 50 -30 91 -59 91 -63 0 -4 -22 -54 -49 -110 -129 -265 -216 -631 -209
-869 3 -107 6 -128 27 -165 27 -48 61 -75 113 -92 41 -14 131 -16 181 -6 203
44 500 305 604 532 35 77 43 188 18 264 -42 129 -161 241 -412 390 -79 46
-144 89 -147 95 -5 12 156 256 261 395 82 110 242 267 298 293 23 11 59 18 93
17 62 0 82 10 82 44 0 37 -26 50 -99 49 -148 -3 -270 -100 -452 -359 -111
-159 -144 -208 -193 -290 -50 -83 -63 -98 -82 -91 -24 9 -172 126 -197 156
-68 80 -1 223 168 362 79 64 172 123 256 162 88 40 300 122 360 140 58 16 86
37 74 56 -6 10 -19 11 -65 3z m-522 -1036 c11 -13 94 -70 222 -152 142 -91
225 -190 249 -296 36 -158 -128 -404 -379 -569 -100 -65 -157 -84 -235 -78
-44 4 -62 11 -85 33 -46 44 -54 82 -47 224 9 195 68 437 166 686 62 154 83
184 109 152z"/>
<path d="M8415 9644 c-38 -8 -85 -22 -105 -31 -19 -8 -63 -19 -98 -23 -112
-15 -212 -79 -318 -205 -159 -187 -265 -416 -300 -646 -28 -184 -3 -433 57
-556 71 -147 255 -232 439 -204 319 50 687 325 948 710 113 166 152 274 152
418 0 105 -26 185 -87 271 -51 72 -174 174 -248 208 -148 65 -311 87 -440 58z
m286 -94 c130 -42 252 -122 307 -202 51 -76 67 -133 66 -238 -1 -82 -5 -106
-32 -176 -33 -84 -105 -199 -201 -319 -261 -330 -584 -538 -837 -538 -90 0
-167 34 -219 97 -45 55 -61 96 -85 213 -47 227 -14 458 99 693 66 138 363 410
448 410 21 0 38 8 50 23 49 63 263 82 404 37z"/>
<path d="M9604 7649 c-26 -29 -9 -50 57 -72 130 -44 170 -48 634 -57 412 -8
896 -36 1420 -80 147 -13 495 -38 625 -45 58 -4 156 -10 219 -13 143 -9 210
-3 225 21 17 27 -5 51 -55 59 -24 4 -143 12 -264 18 -264 13 -617 35 -775 50
-510 46 -921 69 -1375 75 -390 6 -489 14 -581 45 -73 25 -106 25 -130 -1z"/>
<path d="M7890 7552 c-45 -22 -53 -58 -15 -72 14 -5 50 -10 78 -10 29 0 116
-9 195 -20 210 -30 424 -43 473 -30 33 9 40 15 37 33 -4 26 -25 31 -193 47
-66 6 -203 25 -305 41 -217 34 -224 34 -270 11z"/>
<path d="M6820 7500 c-197 -15 -309 -34 -638 -106 -355 -79 -629 -121 -904
-140 -75 -5 -101 -10 -113 -24 -13 -14 -14 -23 -6 -37 23 -44 32 -45 183 -34
232 19 338 37 903 156 403 85 550 103 880 111 171 4 237 10 257 20 29 15 36
38 17 49 -17 11 -452 14 -579 5z"/>
<path d="M13744 6880 c-39 -12 -58 -34 -50 -56 6 -15 18 -16 92 -10 96 7 118
0 170 -56 67 -70 89 -158 58 -224 -56 -119 -327 -297 -580 -382 -154 -51 -242
-65 -424 -66 -176 -1 -167 -2 -545 79 -251 54 -380 92 -438 129 -43 28 -159
56 -228 56 -96 0 -198 -35 -366 -127 -289 -158 -455 -308 -552 -500 -12 -24
-28 -43 -37 -43 -9 0 -28 28 -48 73 -88 191 -224 305 -465 386 -149 51 -266
71 -410 71 -185 0 -315 -25 -634 -119 -401 -118 -436 -124 -667 -125 -162 -1
-180 1 -235 23 -176 71 -277 164 -331 307 -50 133 -73 376 -39 404 9 7 15 23
13 34 -2 16 -11 22 -40 24 -31 3 -43 -2 -63 -24 -23 -25 -25 -34 -25 -123 1
-375 151 -603 465 -706 65 -21 97 -25 194 -25 203 0 381 30 646 110 360 109
432 125 629 140 196 14 403 -29 591 -122 114 -57 211 -159 287 -300 62 -115
88 -178 88 -219 0 -31 14 -44 56 -53 46 -10 63 15 61 89 -1 48 5 71 27 115
126 245 281 386 611 554 61 31 139 63 174 72 60 15 70 15 124 0 32 -9 99 -34
150 -55 95 -41 217 -78 347 -106 470 -101 445 -97 640 -102 187 -5 202 -4 377
38 249 59 506 192 662 342 105 103 136 205 91 305 -25 54 -113 148 -165 175
-45 23 -161 32 -211 17z"/>
<path d="M6525 6487 c-55 -27 -133 -104 -244 -240 -95 -117 -149 -181 -251
-296 -106 -119 -134 -155 -245 -311 -49 -69 -110 -153 -137 -186 -51 -65 -61
-106 -30 -122 9 -6 26 -6 38 -2 30 12 110 103 194 224 41 59 89 124 105 145
17 21 55 71 85 111 144 190 210 251 347 321 88 45 97 38 90 -59 -6 -80 -32
-191 -93 -390 -172 -561 -218 -797 -219 -1112 0 -208 9 -261 47 -281 27 -14
64 12 91 64 17 33 18 40 5 55 -26 29 -29 53 -29 197 0 256 71 629 191 1010 57
180 88 305 102 405 19 145 -5 204 -83 204 -24 0 -61 -3 -81 -8 -31 -7 -38 -5
-38 7 0 19 196 207 215 207 43 0 89 -101 176 -385 64 -207 109 -343 122 -362
11 -18 32 -16 51 3 25 24 19 88 -19 219 -20 66 -47 163 -61 215 -50 190 -115
337 -160 366 -42 28 -112 28 -169 1z"/>
<path d="M16002 5363 c-5 -10 -12 -45 -16 -78 -6 -57 -17 -105 -78 -365 -43
-183 -95 -451 -108 -562 -7 -54 -17 -98 -23 -98 -5 0 -37 24 -71 54 -91 80
-148 109 -216 109 -99 2 -137 -42 -126 -143 12 -108 51 -202 117 -281 76 -91
249 -153 257 -92 2 15 -5 27 -25 39 -83 51 -110 74 -149 126 -49 67 -84 162
-84 230 0 40 3 48 18 48 29 0 98 -55 197 -155 50 -51 101 -96 115 -100 39 -12
56 19 64 122 9 122 92 524 181 878 49 197 53 229 29 263 -19 27 -69 30 -82 5z"/>
<path d="M16705 4895 c-161 -34 -267 -75 -342 -131 -17 -13 -36 -24 -40 -24
-5 0 -42 -27 -81 -61 -164 -137 -175 -263 -37 -416 107 -119 265 -209 540
-306 114 -41 125 -47 125 -77 0 -31 -29 -72 -90 -126 -24 -21 -94 -84 -155
-138 -112 -101 -241 -202 -350 -271 -105 -68 -125 -96 -90 -125 19 -16 95 19
199 91 43 30 87 59 98 66 37 20 396 333 443 385 109 121 77 185 -130 261 -287
105 -378 152 -472 243 -97 95 -132 188 -99 267 32 78 225 206 376 250 122 36
131 37 231 38 64 1 94 5 104 16 21 20 19 30 -10 58 -31 32 -72 32 -220 0z"/>
<path d="M14995 4824 c-107 -38 -212 -233 -286 -532 -52 -208 -69 -201 -69 29
0 167 -4 179 -51 179 -38 0 -53 -23 -52 -83 6 -303 3 -506 -6 -627 -12 -144
-12 -145 9 -162 30 -25 67 -23 84 5 8 12 24 60 36 107 106 436 126 511 190
700 54 158 100 257 139 294 37 35 56 29 65 -21 6 -35 17 -485 16 -700 0 -88 2
-94 28 -124 25 -28 31 -30 50 -20 12 6 22 17 22 24 5 138 0 841 -5 858 -4 13
-21 39 -38 57 -35 36 -66 40 -132 16z"/>
<path d="M12955 4551 c-104 -18 -247 -137 -302 -251 -22 -46 -35 -95 -45 -165
l-14 -100 -49 0 c-57 0 -75 -8 -75 -35 0 -22 20 -35 72 -44 20 -4 39 -14 42
-23 4 -9 11 -61 16 -115 12 -119 31 -190 69 -250 24 -38 40 -50 85 -67 69 -26
156 -28 192 -5 48 32 56 65 49 184 -7 94 -5 117 13 177 24 76 65 146 125 213
42 45 172 153 211 174 12 6 39 23 62 38 92 59 219 117 349 159 75 24 85 24 85
0 0 -12 -23 -37 -57 -64 -32 -25 -72 -60 -89 -79 -55 -58 -170 -221 -196 -278
-57 -120 -75 -273 -41 -331 30 -51 109 -67 172 -35 58 30 157 183 232 357 21
52 44 98 50 104 15 15 27 -11 34 -75 17 -158 52 -250 96 -250 29 0 34 43 15
139 -33 177 -40 374 -17 520 7 42 5 56 -8 72 l-16 21 -160 -22 c-127 -17 -178
-28 -250 -57 -214 -85 -335 -163 -498 -322 -180 -175 -243 -315 -218 -490 15
-111 -10 -150 -73 -113 -69 41 -110 150 -122 327 l-7 100 74 18 c102 25 194
82 284 179 80 87 145 202 145 257 0 94 -106 154 -235 132z m88 -81 c45 -35 45
-78 1 -160 -52 -96 -148 -187 -249 -235 -94 -46 -110 -42 -102 23 22 183 127
336 257 377 60 18 63 18 93 -5z m874 -95 c6 -19 -21 -121 -50 -185 -34 -77
-231 -411 -259 -442 -15 -16 -35 -28 -45 -26 -37 7 -34 123 7 231 33 87 153
261 269 389 45 50 67 59 78 33z"/>
<path d="M11068 4424 c-120 -28 -288 -135 -410 -260 -57 -60 -145 -188 -191
-280 -80 -158 -143 -437 -131 -575 9 -107 23 -141 64 -161 68 -34 160 -18 300
51 161 81 284 185 449 381 249 296 346 497 319 668 -7 47 -16 64 -51 100 -56
58 -85 72 -165 78 -37 3 -80 6 -97 8 -16 2 -56 -3 -87 -10z m207 -104 c41 0
66 -29 85 -95 27 -95 -25 -249 -137 -408 -237 -339 -472 -544 -687 -598 -96
-24 -116 3 -116 154 1 206 75 436 204 629 82 124 266 300 266 255 0 -8 -9 -26
-21 -41 -47 -60 4 -89 54 -29 68 81 138 142 180 156 38 13 46 12 90 -4 26 -11
63 -19 82 -19z"/>
<path d="M12170 4244 c-201 -33 -401 -173 -554 -386 -91 -129 -177 -332 -210
-498 -10 -47 -22 -104 -27 -128 -29 -132 -34 -499 -9 -687 24 -180 92 -348
145 -361 91 -23 114 54 121 416 3 129 12 287 20 350 17 138 17 171 2 205 -15
33 -61 35 -82 3 -16 -26 -28 -259 -30 -587 -1 -222 -9 -252 -45 -169 -66 150
-74 652 -14 953 29 148 106 336 190 462 58 88 199 224 284 274 168 99 319 118
319 40 0 -105 -254 -444 -462 -617 -93 -78 -136 -98 -193 -89 -32 4 -45 2 -55
-10 -20 -24 -2 -47 50 -64 38 -12 49 -12 97 3 98 31 250 162 417 361 157 186
240 320 252 408 7 52 -6 77 -56 102 -28 14 -121 25 -160 19z"/>
<path d="M8047 3782 c-14 -15 -16 -45 -16 -192 0 -96 -4 -222 -10 -280 -14
-135 -42 -333 -48 -342 -7 -13 -42 -9 -100 9 -50 16 -56 16 -106 0 -66 -21
-117 -68 -117 -109 0 -98 123 -202 271 -229 138 -25 343 28 494 127 26 17 31
15 85 -27 91 -71 225 -76 410 -14 138 46 185 73 185 105 0 23 -3 25 -45 23
-25 0 -94 -15 -155 -33 -141 -40 -256 -49 -304 -23 -60 32 -62 49 -11 91 109
90 205 220 230 313 30 109 -43 194 -182 214 -99 15 -244 -56 -312 -152 -57
-82 -42 -232 36 -345 34 -49 26 -62 -69 -106 -103 -47 -227 -86 -248 -78 -12
4 -11 11 6 40 21 37 58 208 85 401 8 61 18 218 21 351 l6 241 -24 16 c-31 22
-62 21 -82 -1z m628 -487 c30 -29 30 -31 5 -89 -27 -63 -93 -159 -151 -219
-58 -60 -63 -58 -99 41 -25 69 -29 156 -10 202 22 53 91 88 173 89 49 1 62 -3
82 -24z m-759 -430 c17 -13 37 -39 44 -57 7 -18 20 -41 28 -50 13 -16 13 -18
-2 -24 -52 -20 -168 46 -194 110 -13 32 -13 39 -1 47 22 14 91 -1 125 -26z"/>
<path d="M6888 3485 c-198 -101 -338 -306 -338 -494 0 -142 49 -263 128 -317
62 -42 197 -39 238 7 25 28 6 39 -69 39 -69 0 -98 17 -132 75 -54 90 -52 311
1 404 43 72 141 165 199 186 63 24 125 64 125 81 0 20 -41 44 -75 44 -16 0
-51 -11 -77 -25z"/>
<path d="M5347 3449 c-26 -5 -73 -22 -105 -36 -50 -23 -70 -27 -168 -27 -102
-1 -115 -3 -169 -31 -68 -35 -117 -92 -169 -200 -63 -131 -89 -237 -101 -411
-5 -73 -2 -106 14 -172 24 -97 39 -128 82 -170 55 -53 111 -75 178 -69 88 8
160 47 262 145 160 152 333 393 430 598 72 151 75 245 12 315 -55 61 -145 81
-266 58z m125 -88 c67 -26 82 -74 54 -177 -54 -202 -355 -622 -515 -718 -73
-44 -102 -50 -148 -31 -77 31 -114 120 -121 291 -11 291 108 561 256 581 22 3
42 1 45 -4 3 -5 -30 -40 -74 -78 -94 -83 -149 -149 -149 -182 0 -43 31 -25
146 86 77 74 132 118 171 137 32 16 63 35 69 42 16 22 143 61 196 62 26 0 57
-4 70 -9z"/>
<path d="M6210 3417 c-98 -36 -162 -73 -237 -137 -151 -126 -279 -353 -354
-625 -26 -92 -37 -446 -20 -580 16 -121 48 -220 82 -260 44 -50 66 -51 111 -6
45 45 47 65 21 211 -9 52 -17 160 -18 240 -1 80 -3 150 -4 156 0 7 -20 19 -42
28 l-42 17 6 102 c10 181 94 390 227 562 86 111 237 206 363 228 146 25 132
-27 -67 -239 -129 -137 -342 -329 -408 -367 -53 -31 -60 -52 -24 -68 50 -23
180 63 406 269 221 202 324 335 318 409 -3 33 -8 41 -42 57 -25 12 -67 20
-125 23 -73 3 -96 0 -151 -20z"/>
<path d="M7323 3314 c-29 -20 -62 -52 -75 -72 -12 -19 -44 -62 -71 -95 -46
-54 -49 -62 -43 -98 4 -25 0 -61 -10 -96 -24 -82 -16 -165 20 -202 38 -40 66
-45 124 -23 110 42 243 171 331 320 44 75 50 130 20 166 -13 15 -42 33 -64 40
-29 10 -42 22 -48 42 -15 47 -26 54 -81 54 -42 -1 -61 -7 -103 -36z m177 -142
l23 -19 -29 -52 c-30 -56 -151 -203 -202 -245 -56 -48 -68 -32 -48 61 17 83
71 227 91 243 37 31 134 37 165 12z"/>
</g>
</svg>
