<?xml version="1.0" standalone="no"?>
<!DOCTYPE svg PUBLIC "-//W3C//DTD SVG 20010904//EN"
 "http://www.w3.org/TR/2001/REC-SVG-20010904/DTD/svg10.dtd">
<svg version="1.0" xmlns="http://www.w3.org/2000/svg"
 width="3264.000000pt" height="2448.000000pt" viewBox="0 0 3264.000000 2448.000000"
 preserveAspectRatio="xMidYMid meet">
<metadata>
Created by potrace 1.12, written by Peter Selinger 2001-2015
</metadata>
<g transform="translate(0.000000,2448.000000) scale(0.100000,-0.100000)"
fill="#000000" stroke="none">
<path d="M8508 24046 c-95 -29 -223 -93 -297 -150 -158 -122 -373 -397 -431
-554 -25 -67 -28 -167 -6 -210 41 -80 118 -137 242 -180 68 -23 94 -27 189
-26 118 0 199 16 318 62 72 28 121 64 114 85 -6 18 -83 13 -162 -12 -114 -35
-255 -53 -330 -41 -153 24 -249 75 -276 147 -15 39 -11 109 10 162 49 131 233
382 343 470 112 89 279 166 389 177 72 8 118 -12 147 -65 26 -46 46 -56 67
-35 32 32 11 101 -45 147 -61 52 -149 59 -272 23z"/>
<path d="M11692 23823 c-5 -10 -12 -56 -16 -101 -4 -46 -11 -105 -16 -130 -28
-148 -34 -173 -44 -181 -6 -5 -42 -16 -81 -26 -148 -37 -219 -77 -213 -124 6
-49 28 -48 147 7 61 29 115 52 122 52 26 0 -23 -131 -77 -207 -37 -52 -42 -74
-20 -92 21 -18 64 -3 91 33 22 29 60 134 85 234 9 36 17 46 46 58 40 17 201
40 211 30 3 -3 -8 -35 -25 -71 -36 -72 -39 -102 -17 -145 44 -84 223 -51 350
66 26 24 51 41 55 39 4 -3 10 -25 13 -51 9 -80 65 -129 125 -108 43 15 40 46
-7 84 -35 27 -41 37 -41 70 0 50 -34 130 -56 130 -9 0 -42 -24 -74 -52 -157
-142 -355 -175 -263 -45 52 75 93 95 228 113 125 17 165 32 165 63 0 56 -89
66 -221 25 -46 -14 -122 -30 -169 -35 -47 -5 -125 -14 -174 -20 -61 -8 -91 -8
-99 0 -7 7 -4 34 11 88 43 156 53 254 32 294 -13 24 -56 25 -68 2z"/>
<path d="M13667 23725 c-9 -8 -22 -36 -31 -63 -9 -26 -30 -64 -47 -85 -26 -31
-37 -37 -69 -37 -110 0 -204 -47 -198 -99 4 -34 44 -40 89 -12 35 21 59 27 59
14 0 -5 -32 -44 -70 -87 -72 -81 -89 -126 -54 -140 25 -10 50 10 105 82 27 37
74 91 102 121 l52 54 80 -7 c44 -3 106 -6 137 -6 57 0 58 -1 77 -38 25 -48 68
-87 190 -168 53 -35 103 -70 111 -77 31 -24 60 -70 60 -93 0 -69 -197 -142
-456 -169 -71 -8 -124 -35 -124 -65 0 -33 32 -42 117 -31 43 6 113 15 156 21
141 18 265 66 341 132 31 27 40 43 46 83 16 104 -24 158 -205 278 -142 94
-177 124 -173 152 4 28 86 54 173 54 57 0 77 -4 110 -24 50 -31 63 -31 77 0
16 36 -7 84 -48 101 -63 26 -235 13 -309 -23 -16 -9 -42 -27 -57 -41 l-28 -25
-100 12 c-113 15 -116 19 -75 86 27 43 32 84 13 103 -16 16 -33 15 -51 -3z"/>
<path d="M11007 23645 c-120 -17 -181 -34 -282 -80 -114 -52 -135 -69 -135
-111 0 -45 38 -69 134 -84 39 -6 94 -15 121 -20 28 -5 91 -16 140 -25 169 -30
272 -103 246 -175 -21 -60 -71 -119 -147 -169 -83 -56 -119 -70 -137 -52 -17
17 -55 13 -67 -8 -28 -53 6 -101 71 -101 129 0 369 215 369 330 0 52 -23 104
-66 150 -60 64 -160 103 -320 125 -195 27 -207 30 -211 41 -6 19 79 54 184 76
92 19 227 25 363 16 44 -3 45 -2 45 26 0 45 -36 64 -130 70 -44 3 -123 -1
-178 -9z"/>
<path d="M9013 23585 c-141 -73 -234 -170 -247 -259 -15 -101 39 -181 144
-214 84 -26 285 -22 364 6 76 28 145 73 176 114 21 27 25 44 25 98 0 54 -4 72
-27 105 -15 22 -49 54 -75 71 -67 43 -93 61 -132 89 -27 20 -46 25 -96 25 -52
0 -75 -6 -132 -35z m153 -72 c-4 -16 -9 -35 -12 -44 -2 -9 2 -22 10 -29 13
-10 20 -8 42 9 54 43 122 17 169 -63 30 -52 31 -66 4 -100 -49 -62 -157 -96
-304 -96 -123 0 -180 18 -211 65 -36 55 24 154 136 223 70 43 112 60 149 61
20 1 22 -2 17 -26z"/>
<path d="M10113 23470 c-49 -33 -103 -78 -121 -102 -48 -65 -121 -143 -127
-136 -3 3 4 43 16 88 21 81 21 83 2 108 -43 57 -61 37 -88 -99 -13 -63 -37
-155 -55 -206 -34 -99 -31 -133 11 -133 35 0 55 17 100 87 98 154 294 353 348
353 16 0 14 -96 -4 -205 -19 -115 -19 -165 1 -193 17 -24 48 -29 61 -9 4 6 11
46 14 87 4 41 12 122 19 180 6 58 8 125 5 149 -7 48 -42 91 -74 91 -10 0 -59
-27 -108 -60z"/>
<path d="M13105 23505 c-34 -17 -134 -93 -226 -173 -34 -29 -63 -51 -66 -49
-2 3 5 29 17 58 24 65 26 112 4 133 -18 19 -49 7 -58 -21 -3 -10 -12 -45 -22
-78 -9 -33 -28 -82 -42 -110 -39 -78 -43 -101 -23 -126 33 -41 51 -30 254 155
82 74 142 116 166 116 20 0 8 -59 -28 -134 -35 -71 -38 -92 -15 -124 20 -29
49 -28 79 3 20 19 25 34 25 75 0 28 7 67 15 87 23 54 20 158 -5 183 -24 24
-35 24 -75 5z"/>
<path d="M14878 22479 c-25 -14 -22 -42 7 -69 68 -64 149 -262 195 -480 38
-175 16 -356 -58 -483 -36 -63 -179 -205 -266 -265 -80 -54 -159 -129 -153
-145 7 -23 34 -31 65 -18 45 19 166 97 258 168 152 116 247 247 275 378 36
172 -10 454 -118 725 -63 156 -140 227 -205 189z"/>
<path d="M17310 22231 c-51 -10 -120 -61 -187 -137 -32 -36 -77 -79 -100 -95
-33 -23 -43 -37 -48 -67 -7 -47 -14 -65 -65 -182 -49 -111 -72 -195 -99 -363
-32 -199 -37 -282 -17 -312 21 -32 60 -33 80 -2 7 12 16 53 20 91 3 39 11 75
18 82 7 6 53 21 102 33 163 40 320 133 408 242 123 150 173 471 98 619 -37 72
-124 109 -210 91z m103 -100 c33 -13 47 -58 47 -156 0 -158 -47 -323 -115
-403 -37 -44 -115 -96 -262 -173 -113 -59 -124 -62 -139 -47 -15 15 -12 30 35
196 28 99 51 186 51 194 0 27 59 137 113 209 65 88 124 144 181 170 47 21 56
22 89 10z"/>
<path d="M11755 22215 c-5 -1 -30 -9 -55 -16 -80 -24 -191 -99 -299 -204 -120
-116 -185 -199 -242 -308 -76 -146 -119 -391 -85 -481 31 -80 105 -126 203
-126 56 0 73 8 73 34 0 31 -19 46 -59 46 -51 0 -115 35 -136 74 -17 32 -18 42
-6 117 25 162 90 322 176 437 57 74 194 210 261 258 34 24 87 55 117 69 51 22
60 23 111 13 60 -13 86 -3 86 33 0 35 -36 59 -87 58 -27 0 -52 -2 -58 -4z"/>
<path d="M13334 22140 c-36 -14 -54 -50 -54 -107 0 -69 -20 -146 -63 -243 -51
-115 -61 -140 -83 -214 -34 -114 -30 -156 17 -156 25 0 38 21 59 99 11 40 47
127 79 194 55 114 101 240 116 315 8 39 -2 87 -22 107 -16 17 -19 17 -49 5z"/>
<path d="M9130 22113 c-76 -20 -101 -23 -125 -14 -48 17 -85 16 -164 -4 -140
-34 -312 -174 -432 -352 -92 -136 -135 -266 -127 -388 8 -120 70 -200 208
-268 63 -31 68 -32 200 -32 189 0 322 39 490 142 203 126 321 263 377 439 24
77 28 105 28 209 0 110 -2 125 -25 170 -31 60 -97 101 -175 109 -136 14 -162
13 -255 -11z m239 -64 c97 -21 133 -71 132 -188 0 -247 -124 -453 -356 -590
-113 -67 -183 -99 -262 -117 -79 -19 -241 -23 -298 -6 -65 19 -147 74 -180
120 -28 41 -30 50 -30 130 0 66 6 102 23 151 69 186 232 369 414 465 82 44
114 44 106 2 -5 -25 1 -27 112 -39 22 -2 38 15 53 57 7 20 214 31 286 15z"/>
<path d="M12385 22128 c-120 -43 -223 -171 -276 -339 -16 -54 -35 -102 -42
-107 -7 -5 -52 -18 -101 -30 -94 -23 -136 -49 -136 -87 0 -24 17 -45 37 -45 7
0 38 16 68 36 31 19 68 36 83 37 33 2 33 -4 -3 -128 -29 -101 -37 -214 -16
-239 18 -21 48 -20 59 2 5 9 13 49 16 87 8 76 29 182 53 257 13 41 18 48 46
52 223 34 331 46 339 38 5 -5 -7 -19 -30 -35 -63 -41 -140 -125 -157 -172 -22
-56 -7 -93 48 -114 35 -13 42 -12 105 12 76 30 163 101 187 151 9 18 29 48 45
67 25 28 31 32 40 19 5 -8 10 -41 10 -72 0 -72 6 -85 43 -104 28 -15 31 -15
50 4 18 18 19 25 8 66 -6 24 -11 77 -11 116 0 86 -19 137 -54 146 -34 8 -40 3
-82 -76 -25 -47 -59 -91 -107 -136 -132 -125 -245 -142 -154 -23 22 29 57 56
109 84 42 22 86 49 97 59 26 24 27 52 2 66 -31 16 -295 12 -376 -6 -101 -22
-100 -22 -103 8 -4 29 58 157 110 229 41 56 111 99 164 99 23 0 49 3 58 6 23
9 21 61 -3 74 -25 13 -87 12 -126 -2z"/>
<path d="M19069 22076 c-76 -72 -136 -105 -264 -141 -180 -52 -350 -157 -482
-299 -67 -72 -111 -146 -154 -261 -11 -30 -24 -55 -28 -55 -14 0 -38 25 -62
65 -22 37 -24 51 -24 166 0 134 -8 159 -48 159 -11 0 -41 10 -66 22 -153 74
-358 -57 -386 -247 -13 -82 60 -165 144 -165 60 0 148 57 205 132 28 37 54 68
58 68 5 0 8 -13 8 -29 0 -101 50 -189 118 -209 21 -7 47 -21 57 -32 21 -23 57
-26 74 -7 6 8 20 45 32 83 48 157 156 298 305 396 66 43 354 188 374 188 24 0
-2 -42 -138 -222 -134 -175 -163 -319 -82 -400 40 -40 73 -37 133 13 l49 42
46 -46 c57 -55 96 -69 286 -102 175 -31 256 -33 279 -7 44 48 8 78 -103 85
-122 7 -356 56 -386 79 -13 11 -24 29 -24 41 0 32 106 97 191 119 38 9 77 22
89 28 25 14 36 55 19 76 -33 40 -53 38 -209 -26 -88 -37 -119 -61 -227 -186
-44 -51 -54 -57 -70 -48 -52 31 -14 157 87 292 36 48 92 125 125 172 33 47 92
120 132 162 75 78 90 117 61 146 -24 24 -54 10 -119 -52z m-1145 -448 c8 -14
7 -24 -5 -44 -22 -36 -159 -153 -188 -161 -35 -9 -75 9 -79 34 -7 49 69 147
138 177 46 20 119 17 134 -6z"/>
<path d="M14205 21944 c-59 -20 -95 -42 -137 -82 -41 -39 -51 -39 -153 -1 -46
17 -87 24 -175 27 -109 3 -117 2 -150 -20 -46 -32 -45 -67 3 -134 42 -59 85
-153 93 -205 9 -54 -9 -60 -183 -63 -129 -3 -148 -6 -160 -22 -19 -27 -12 -56
17 -72 47 -25 330 9 379 46 15 11 32 36 40 57 13 33 12 44 -7 110 -14 47 -39
98 -69 141 -44 63 -46 67 -28 80 24 18 37 18 165 -2 156 -24 153 -21 145 -99
-10 -94 -1 -126 53 -186 85 -95 294 -169 440 -156 98 10 145 49 105 89 -19 18
-25 19 -78 8 -63 -13 -112 -9 -225 22 -85 22 -128 45 -164 89 -33 39 -51 102
-36 129 12 23 16 21 75 -25 58 -47 78 -55 135 -55 64 0 117 26 164 81 61 72
60 145 -4 202 -58 53 -162 71 -245 41z m177 -91 c30 -27 23 -66 -23 -112 -64
-64 -96 -66 -182 -11 -57 36 -66 54 -41 82 48 54 203 80 246 41z"/>
<path d="M20470 21699 c-107 -18 -231 -90 -271 -158 -44 -73 -15 -192 59 -240
57 -38 172 -42 243 -9 30 14 79 44 109 67 56 42 70 48 70 31 0 -20 -168 -429
-224 -545 -45 -93 -96 -160 -118 -153 -7 3 -24 24 -38 49 -39 66 -90 63 -90
-6 0 -68 75 -122 153 -111 68 10 108 51 161 163 26 54 55 114 65 133 22 41
125 293 136 330 4 14 18 53 31 87 27 69 30 122 10 203 -19 77 -24 86 -59 113
-55 42 -153 61 -237 46z m156 -132 c8 -8 10 -33 7 -68 -5 -53 -8 -58 -42 -77
-47 -26 -165 -62 -205 -62 -30 0 -94 31 -108 54 -27 41 11 85 115 130 98 44
203 54 233 23z"/>
<path d="M21743 21661 c-22 -16 -50 -43 -62 -60 -12 -17 -26 -31 -31 -31 -5 0
-26 11 -46 25 -73 49 -216 24 -395 -70 -77 -40 -91 -42 -127 -16 -44 30 -67
33 -92 13 -33 -26 -21 -65 31 -99 94 -63 77 -62 181 -11 106 53 291 118 336
118 46 0 52 -16 50 -131 -3 -94 -1 -109 23 -159 14 -31 41 -73 59 -94 44 -49
133 -109 193 -130 61 -21 158 -20 228 0 30 9 74 17 99 18 41 1 45 3 51 33 4
19 25 50 56 80 65 64 95 127 96 202 1 110 -76 218 -167 235 -80 15 -149 -46
-227 -205 -54 -107 -47 -166 25 -246 20 -22 33 -43 29 -47 -3 -3 -32 -6 -63
-6 -43 0 -71 7 -119 31 -64 32 -174 124 -168 142 1 5 32 20 67 33 105 38 200
155 215 264 5 37 2 51 -17 80 -31 46 -61 60 -129 60 -46 0 -63 -5 -96 -29z
m161 -97 c9 -8 16 -19 16 -24 0 -13 -92 -121 -130 -153 -46 -39 -77 -44 -103
-18 -20 19 -20 24 -8 58 17 46 75 119 110 138 35 19 96 19 115 -1z m355 -99
c16 -8 36 -31 46 -51 14 -30 15 -43 6 -81 -15 -59 -70 -143 -115 -178 -46 -35
-76 -28 -117 28 -27 36 -30 48 -25 86 10 73 92 192 141 204 33 8 35 8 64 -8z"/>
<path d="M22895 21404 c-38 -20 -90 -51 -115 -69 -54 -39 -130 -78 -137 -71
-3 3 13 26 36 52 46 53 49 64 22 88 -15 14 -24 15 -39 7 -30 -16 -111 -110
-118 -137 -15 -60 28 -120 81 -111 32 5 190 97 242 141 16 13 46 31 67 40 51
21 63 10 47 -44 -12 -41 -57 -93 -124 -143 -41 -31 -46 -61 -15 -81 39 -24
147 59 192 148 51 101 48 178 -9 202 -47 19 -51 19 -130 -22z"/>
<path d="M11225 20461 c-47 -29 -265 -257 -334 -349 -149 -198 -288 -473 -327
-649 -45 -201 28 -361 230 -510 126 -93 238 -133 276 -98 11 10 20 24 20 31 0
20 -46 51 -87 59 -58 10 -190 94 -246 155 -60 65 -96 140 -104 212 -11 107 40
284 140 483 111 223 354 511 493 585 35 18 50 32 52 50 7 48 -58 66 -113 31z"/>
<path d="M8789 20419 c-8 -15 -9 -52 -4 -118 10 -130 8 -558 -5 -816 -20 -428
-11 -592 37 -637 37 -34 59 -15 55 48 -2 27 -2 204 -1 394 2 190 3 517 4 726
0 362 -1 383 -19 403 -24 27 -52 27 -67 0z"/>
<path d="M14107 20403 c-15 -15 -5 -56 32 -125 31 -56 50 -116 84 -258 66
-272 72 -311 71 -465 0 -123 -4 -151 -28 -230 -35 -115 -72 -188 -146 -284
-73 -97 -155 -168 -253 -221 -85 -46 -104 -68 -87 -100 16 -30 47 -25 124 20
249 146 407 364 461 635 37 190 -1 472 -111 830 -24 77 -60 151 -92 188 -15
17 -43 23 -55 10z"/>
<path d="M11862 20193 c-7 -3 -19 -17 -27 -32 -22 -44 -72 -269 -79 -356 -4
-59 -10 -83 -22 -90 -46 -27 -85 -69 -82 -88 5 -34 33 -44 68 -24 l30 18 0
-53 c0 -29 7 -109 15 -178 8 -69 15 -157 15 -197 0 -52 4 -76 16 -87 22 -23
41 -20 60 10 14 21 16 42 11 137 -4 62 -11 137 -16 167 -6 30 -11 100 -13 155
l-3 100 46 23 c120 59 365 66 414 12 24 -26 16 -121 -19 -247 -34 -120 -34
-167 -1 -189 23 -15 27 -15 53 2 35 22 148 123 272 243 97 93 127 117 136 108
3 -3 -5 -55 -17 -116 -19 -97 -20 -117 -9 -154 28 -95 64 -100 150 -20 80 73
133 150 208 297 48 93 59 123 51 138 -23 43 -62 6 -143 -135 -31 -54 -64 -110
-73 -125 -25 -40 -85 -102 -100 -102 -20 0 -16 56 12 166 14 54 25 110 25 125
0 34 -32 63 -62 55 -29 -7 -178 -127 -278 -223 -114 -110 -159 -139 -146 -95
71 248 60 309 -62 369 -53 26 -65 28 -172 27 -101 0 -123 -4 -179 -27 -84 -35
-101 -35 -101 1 0 34 33 166 61 240 25 70 25 128 0 142 -11 5 -21 10 -23 9 -2
0 -9 -3 -16 -6z"/>
<path d="M16572 20153 c-6 -2 -29 -39 -49 -81 -68 -143 -152 -291 -264 -469
-197 -313 -221 -372 -171 -426 64 -68 272 -68 609 -2 170 34 243 69 243 117 0
29 -19 30 -100 4 -124 -39 -256 -62 -445 -78 -117 -10 -147 -9 -185 3 -76 24
-73 36 97 307 113 180 291 485 315 539 18 41 18 46 4 69 -16 23 -28 28 -54 17z"/>
<path d="M18322 20073 c-5 -10 -10 -45 -10 -78 -1 -52 -11 -107 -52 -295 -4
-19 -22 -89 -40 -155 -48 -177 -50 -213 -14 -249 29 -30 69 -19 164 45 102 68
206 179 280 299 62 99 93 135 113 127 27 -10 31 -75 14 -282 -17 -210 -13
-269 19 -292 45 -33 78 -5 70 59 -4 24 0 120 7 215 14 179 8 305 -14 341 -29
46 -94 57 -150 25 -17 -10 -63 -63 -102 -118 -97 -137 -201 -261 -249 -295
-42 -31 -76 -45 -84 -37 -3 3 12 67 34 144 54 187 102 412 102 477 0 39 -5 57
-18 69 -24 22 -59 22 -70 0z"/>
<path d="M17409 19831 c-30 -31 -36 -59 -19 -92 12 -21 50 -25 68 -7 7 7 27
17 44 22 45 15 50 55 12 85 -37 29 -70 26 -105 -8z"/>
<path d="M19340 19839 c-7 -12 -9 -37 -5 -60 4 -21 4 -52 0 -68 -6 -27 -10
-29 -63 -36 -132 -15 -243 -110 -190 -163 22 -22 47 -13 104 38 80 73 124 88
124 43 0 -28 -28 -88 -113 -245 -50 -90 -56 -118 -33 -137 17 -14 40 -5 72 31
33 35 119 204 144 283 12 39 28 76 35 83 18 19 83 17 230 -8 198 -34 224 -35
232 -15 8 22 -7 47 -38 62 -50 24 -187 46 -294 47 l-110 1 -5 66 c-3 36 -11
73 -19 82 -19 24 -58 21 -71 -4z"/>
<path d="M13385 19757 c-96 -32 -160 -90 -201 -184 -30 -66 -30 -114 -3 -170
46 -94 153 -141 299 -130 122 10 195 48 188 99 -3 20 -9 23 -43 22 -22 0 -69
-9 -105 -18 -74 -21 -157 -17 -214 10 -64 31 -51 52 49 84 109 35 178 94 205
175 28 86 -68 147 -175 112z m85 -106 c0 -36 -132 -120 -187 -121 -28 0 -29
16 -4 54 32 48 97 86 148 86 36 0 43 -3 43 -19z"/>
<path d="M17787 19670 c-107 -42 -180 -118 -294 -307 -54 -88 -65 -132 -43
-174 15 -27 71 -25 118 5 59 37 190 165 218 212 25 43 77 94 95 94 29 0 -30
-342 -92 -525 -57 -168 -160 -344 -211 -361 -16 -5 -27 0 -45 20 -24 29 -31
50 -66 200 -25 109 -46 137 -73 102 -42 -57 19 -317 91 -388 46 -46 124 -34
190 28 100 95 215 345 263 574 30 146 66 422 59 452 -8 29 -36 43 -66 33 -11
-3 -38 -31 -62 -63 -23 -31 -61 -73 -83 -92 -23 -19 -80 -74 -129 -122 -48
-49 -92 -88 -97 -88 -22 0 -8 40 39 110 93 141 169 212 248 228 43 9 63 34 47
60 -15 24 -51 25 -107 2z"/>
<path d="M17271 19667 c-6 -8 -35 -110 -65 -228 -30 -118 -60 -227 -65 -243
-23 -58 -2 -104 41 -93 30 8 36 22 78 177 91 331 96 364 65 386 -24 18 -40 18
-54 1z"/>
<path d="M20665 19616 c-92 -29 -183 -99 -199 -153 -8 -26 16 -78 43 -93 44
-23 173 2 195 39 13 20 26 12 26 -15 0 -15 -37 -92 -83 -173 -46 -80 -103
-181 -127 -223 -24 -43 -47 -78 -51 -78 -4 0 -9 14 -11 31 -2 18 -11 37 -21
43 -58 35 -90 -155 -36 -213 41 -43 91 -15 141 79 14 25 62 106 107 180 46 74
115 197 153 273 38 76 87 164 109 195 21 30 39 63 39 73 0 28 -37 44 -67 30
-20 -9 -30 -9 -49 4 -28 18 -113 19 -169 1z m119 -62 c24 -9 20 -20 -25 -69
-32 -35 -51 -46 -93 -56 -83 -18 -123 13 -73 57 61 55 147 85 191 68z"/>
<path d="M21769 19580 c-31 -16 -85 -81 -103 -123 -5 -14 -21 3 -48 52 -25 46
-70 64 -173 69 -149 7 -186 -9 -311 -132 -86 -85 -104 -107 -104 -132 0 -36
16 -54 47 -54 17 0 40 22 89 84 101 129 150 156 281 156 l72 0 40 -52 c22 -29
48 -58 59 -65 10 -6 29 -38 41 -72 24 -66 47 -88 127 -119 105 -42 241 -36
340 14 l53 27 42 -38 c83 -75 188 -102 261 -66 65 31 99 101 63 131 -12 10
-22 8 -53 -12 -52 -35 -105 -52 -135 -44 -36 9 -97 64 -97 87 0 10 20 58 45
106 54 105 59 151 19 182 -35 28 -56 26 -94 -5 -49 -42 -73 -98 -78 -186 -5
-91 -13 -99 -114 -123 -96 -22 -192 -20 -239 7 -61 34 -48 58 30 58 111 0 201
63 201 141 0 47 -28 92 -70 114 -42 22 -146 19 -191 -5z m148 -74 c27 -24 27
-26 13 -53 -20 -37 -94 -75 -140 -71 -30 3 -35 7 -38 31 -6 50 61 115 120 117
9 0 30 -11 45 -24z"/>
<path d="M22707 19503 c-8 -10 -19 -31 -23 -48 -4 -16 -20 -60 -36 -97 -35
-84 -36 -122 -3 -144 36 -24 87 -3 160 66 67 63 146 120 168 120 27 0 45 -36
57 -115 16 -98 55 -228 75 -245 22 -19 48 -8 57 25 5 20 2 54 -11 105 -10 41
-24 106 -31 144 -18 108 -44 144 -119 166 -50 14 -96 -6 -173 -76 -90 -81
-101 -83 -73 -17 20 48 19 96 -3 116 -23 21 -25 21 -45 0z"/>
<path d="M7569 18034 c-17 -21 -15 -116 6 -233 24 -139 144 -527 208 -676 68
-158 139 -225 236 -225 38 0 49 6 103 58 71 67 88 98 122 218 33 115 53 242
61 374 9 152 24 276 41 344 9 33 13 69 10 81 -8 31 -36 40 -57 18 -28 -28 -66
-197 -94 -415 -45 -350 -121 -578 -191 -578 -72 0 -178 219 -280 577 -79 276
-85 317 -58 358 18 27 13 51 -17 89 -23 30 -69 35 -90 10z"/>
<path d="M12159 17859 c-18 -18 -20 -28 -14 -68 15 -98 22 -274 17 -456 -3
-151 0 -204 12 -259 18 -76 30 -96 56 -96 42 0 47 23 54 270 10 388 7 581 -10
608 -20 30 -85 31 -115 1z"/>
<path d="M11350 17840 c-11 -11 -20 -31 -20 -44 0 -28 108 -456 140 -556 11
-36 25 -96 30 -133 12 -82 24 -107 51 -107 26 0 79 52 79 79 0 65 24 126 68
174 85 90 132 94 173 15 43 -85 22 -262 -46 -384 -37 -66 -106 -134 -136 -134
-26 0 -67 -21 -73 -37 -9 -22 11 -52 39 -59 39 -10 138 41 195 102 63 67 125
192 147 299 13 64 14 94 6 152 -21 144 -77 208 -183 207 -72 0 -112 -22 -182
-97 -40 -44 -60 -59 -67 -51 -6 6 -18 53 -26 105 -9 52 -29 151 -45 221 -17
70 -30 143 -30 162 0 40 -16 87 -33 98 -22 14 -67 8 -87 -12z"/>
<path d="M10714 17766 c-16 -12 -20 -32 -26 -118 -4 -57 -14 -137 -23 -178
-37 -181 -46 -254 -47 -385 -3 -218 30 -295 124 -295 49 0 127 40 157 81 24
32 56 150 66 247 10 88 32 82 65 -18 32 -95 54 -136 85 -156 24 -16 27 -15 45
1 28 25 25 56 -11 133 -42 90 -77 200 -94 296 -16 87 -41 126 -82 126 -57 0
-83 -42 -83 -133 0 -100 -56 -390 -86 -449 -18 -35 -30 -35 -47 0 -36 70 -26
286 25 522 39 183 47 263 32 299 -18 42 -63 54 -100 27z"/>
<path d="M10136 17711 c-10 -11 -20 -37 -23 -59 -9 -69 50 -104 107 -65 14 9
28 22 32 27 14 20 8 63 -13 90 -25 32 -77 36 -103 7z"/>
<path d="M8861 17351 c-125 -127 -163 -198 -169 -318 -5 -101 0 -123 39 -162
47 -47 94 -43 181 14 83 56 106 88 139 189 14 44 30 81 36 83 7 3 22 -32 37
-79 27 -89 75 -168 127 -212 24 -21 40 -26 68 -24 32 3 36 6 39 34 2 24 -4 38
-28 60 -68 65 -110 161 -145 339 -18 92 -44 126 -90 117 -35 -6 -56 -41 -67
-108 -5 -30 -29 -98 -54 -151 -91 -190 -127 -228 -154 -163 -37 89 23 251 135
365 66 67 74 82 53 103 -25 25 -52 9 -147 -87z"/>
<path d="M12855 17426 c-68 -31 -158 -129 -181 -198 -10 -29 -21 -91 -24 -138
l-5 -85 -120 -6 c-92 -4 -133 -11 -175 -28 -66 -27 -80 -38 -80 -62 0 -34 28
-37 114 -12 44 13 91 21 103 18 13 -3 54 2 93 11 38 8 74 13 80 9 5 -3 19 -28
31 -55 33 -77 92 -124 177 -144 131 -30 255 -16 333 37 26 17 34 30 34 52 0
40 -25 43 -98 10 -64 -28 -143 -33 -208 -13 -49 14 -112 67 -129 107 -20 50
-7 74 66 117 79 46 126 97 165 179 80 166 -15 274 -176 201z m85 -81 c29 -35
-27 -151 -112 -233 -29 -27 -37 -31 -46 -19 -29 34 29 191 88 241 36 30 52 32
70 11z"/>
<path d="M10090 17413 c-86 -22 -144 -68 -234 -186 -59 -79 -155 -260 -163
-312 -7 -41 11 -75 40 -75 43 0 91 52 111 121 34 114 90 210 185 312 32 34 51
47 71 47 63 0 145 -125 205 -310 54 -168 73 -195 121 -170 48 26 49 55 3 191
-70 211 -119 302 -192 359 -41 32 -85 39 -147 23z"/>
<path d="M13850 17339 c-109 -50 -170 -126 -170 -211 0 -53 24 -95 114 -207
112 -138 127 -194 77 -272 -33 -51 -70 -87 -126 -121 -53 -33 -74 -38 -179
-47 -69 -6 -92 -12 -102 -26 -21 -28 -17 -53 12 -72 23 -15 34 -15 101 -4 83
14 153 36 234 75 97 46 203 197 203 291 0 60 -18 97 -92 189 -70 87 -112 162
-112 201 0 44 33 90 87 121 55 31 83 53 83 66 0 13 -39 48 -52 48 -7 -1 -42
-14 -78 -31z"/>
<path d="M14527 16743 c-15 -14 -6 -52 13 -58 25 -8 40 1 40 24 0 30 -35 53
-53 34z"/>
<path d="M11009 15283 c-16 -19 -15 -202 1 -339 6 -45 8 -88 5 -95 -3 -8 -24
-26 -45 -41 -44 -30 -49 -51 -25 -98 20 -39 32 -38 50 6 18 43 35 36 35 -15 0
-30 -4 -40 -20 -44 -11 -3 -20 -13 -20 -24 1 -39 50 -188 66 -200 23 -17 28
-16 48 6 15 17 16 28 7 96 -6 42 -11 117 -11 166 l0 89 38 16 c46 20 246 54
275 46 54 -13 67 -41 96 -209 23 -130 43 -178 83 -199 42 -22 76 -2 111 65 32
64 35 118 11 224 -21 90 -35 120 -76 150 -43 32 -63 38 -166 44 -142 10 -200
5 -283 -22 -43 -15 -83 -24 -89 -20 -6 4 -10 75 -10 188 0 149 -3 187 -16 205
-18 26 -46 29 -65 5z m605 -483 c16 -27 21 -56 24 -130 3 -93 -5 -129 -26
-116 -6 3 -15 30 -20 59 -6 28 -15 79 -21 112 -6 33 -14 73 -17 88 -6 26 -4
28 17 25 14 -2 31 -17 43 -38z"/>
<path d="M8519 15223 c-1 -5 -2 -73 -3 -153 -2 -121 -6 -156 -25 -210 -39
-112 -96 -204 -167 -269 -74 -68 -136 -94 -210 -89 -70 5 -87 32 -94 156 -5
100 -11 122 -35 122 -23 0 -38 -67 -33 -155 4 -68 9 -89 32 -126 58 -92 156
-132 251 -104 73 21 169 88 221 154 58 73 117 190 139 273 33 124 8 358 -42
396 -19 14 -33 16 -34 5z"/>
<path d="M10463 15100 c-91 -55 -283 -224 -387 -339 -77 -86 -116 -158 -116
-215 0 -33 -7 -45 -40 -78 -68 -64 -141 -108 -179 -108 -68 0 -168 142 -146
208 3 10 33 33 66 52 130 75 199 191 199 339 0 53 -4 71 -18 84 -43 39 -127 3
-211 -89 -46 -49 -71 -101 -91 -184 -23 -98 -26 -105 -49 -108 -13 -2 -52 11
-87 29 -51 26 -68 31 -82 23 -64 -40 39 -134 147 -134 27 0 47 -34 55 -95 14
-113 123 -210 234 -208 60 0 113 32 214 126 54 52 65 72 83 159 9 45 115 176
244 301 66 64 125 117 131 117 18 0 11 -36 -27 -131 -33 -84 -37 -104 -37
-184 0 -69 4 -99 19 -130 24 -48 66 -75 92 -59 31 19 62 88 74 164 15 102 24
115 39 60 47 -183 78 -242 137 -266 27 -12 38 -12 49 -3 21 17 17 37 -12 71
-53 64 -85 146 -118 299 -18 83 -40 113 -78 107 -30 -4 -45 -38 -59 -134 -6
-43 -17 -101 -26 -127 -37 -117 -58 21 -23 154 11 44 41 119 66 166 34 65 44
93 39 112 -12 46 -49 54 -102 21z m-690 -193 c-3 -51 -37 -114 -91 -169 -54
-56 -72 -60 -72 -18 0 69 117 240 155 226 5 -2 9 -19 8 -39z"/>
<path d="M12074 15076 c-47 -21 -97 -69 -122 -119 -36 -73 -64 -194 -66 -289
-1 -79 1 -89 23 -112 26 -28 38 -31 60 -17 11 7 15 36 16 123 1 86 6 130 23
184 20 63 29 78 87 132 68 63 78 85 46 102 -24 13 -29 12 -67 -4z"/>
<path d="M9005 15071 c-69 -17 -123 -59 -183 -141 -74 -103 -95 -159 -112
-313 -26 -224 54 -507 154 -542 24 -8 31 -6 48 15 19 23 20 34 14 145 -10 172
-39 332 -65 359 -18 17 -24 19 -41 8 -25 -15 -26 -3 -5 87 29 122 122 242 200
257 137 25 212 -64 151 -183 -31 -61 -88 -111 -136 -119 -50 -7 -65 -17 -68
-47 -4 -30 29 -57 69 -57 39 0 119 45 163 93 79 85 102 176 70 269 -37 110
-164 192 -259 169z m-190 -582 c20 -74 32 -268 16 -253 -21 19 -40 126 -41
223 0 52 3 92 6 89 3 -3 12 -30 19 -59z"/>
<path d="M12685 14981 c-117 -34 -175 -77 -175 -129 0 -13 32 -76 70 -140 58
-95 70 -123 70 -158 0 -37 -5 -47 -42 -78 -41 -35 -94 -54 -123 -43 -8 4 -28
25 -45 49 -35 48 -56 60 -82 46 -12 -6 -18 -21 -18 -45 0 -30 8 -44 45 -79 57
-56 110 -72 173 -55 83 22 168 102 184 173 7 35 5 49 -21 104 -16 34 -48 90
-70 123 -23 33 -41 66 -41 74 0 35 82 71 191 83 76 8 99 18 99 44 0 50 -100
64 -215 31z"/>
<path d="M10894 14786 c-8 -22 3 -33 18 -18 9 9 9 15 0 24 -9 9 -13 7 -18 -6z"/>
<path d="M20653 14385 c-28 -20 -29 -37 -3 -90 25 -52 70 -202 70 -236 0 -15
-12 -36 -31 -55 -64 -60 -109 -190 -109 -316 0 -62 2 -69 34 -102 40 -43 75
-46 179 -17 81 24 129 52 162 95 28 37 32 68 10 86 -12 10 -30 2 -106 -49 -49
-33 -96 -61 -103 -61 -19 0 -32 20 -39 55 -7 36 12 175 26 193 14 18 34 -2 42
-44 8 -48 37 -74 79 -74 84 0 90 134 10 238 -27 36 -34 54 -34 91 0 67 -27
210 -45 237 -34 52 -105 76 -142 49z"/>
<path d="M31982 14374 c-44 -30 -107 -140 -161 -281 -7 -17 -22 -34 -34 -37
-72 -19 -105 10 -137 124 -25 88 -49 117 -81 99 -31 -16 -32 -51 -5 -122 54
-143 92 -183 174 -181 50 1 48 14 19 -131 -42 -202 -50 -265 -37 -280 41 -50
81 37 120 263 25 143 107 341 178 431 45 56 52 72 40 95 -20 39 -41 45 -76 20z"/>
<path d="M16863 14263 c-59 -40 -258 -197 -327 -260 -33 -29 -65 -53 -71 -53
-15 0 -75 89 -103 152 -26 60 -62 80 -92 53 -37 -33 -20 -78 70 -185 26 -30
50 -61 54 -68 5 -8 -14 -36 -53 -78 -50 -53 -61 -71 -61 -99 0 -37 23 -68 48
-63 8 2 32 32 54 68 71 118 62 117 170 14 109 -104 158 -135 182 -115 9 8 16
24 16 37 0 26 -2 27 -130 131 -47 38 -86 78 -87 89 -2 13 20 35 75 76 130 97
275 214 312 252 28 30 32 40 24 54 -17 26 -35 25 -81 -5z"/>
<path d="M28550 14260 c-18 -18 -20 -29 -14 -83 4 -34 12 -69 19 -77 8 -8 29
-50 49 -94 l36 -78 -88 -87 c-93 -92 -142 -171 -142 -229 0 -45 48 -95 87 -90
27 3 28 5 28 63 1 51 6 69 37 120 38 63 108 145 124 145 5 0 21 -22 35 -48 45
-82 106 -149 191 -213 46 -34 93 -66 105 -72 30 -14 53 -2 53 28 0 20 -18 38
-92 93 -51 38 -109 89 -128 112 -55 69 -90 123 -90 142 0 14 57 54 141 98 9 4
60 31 115 60 54 29 110 62 123 75 31 30 22 55 -20 55 -38 0 -252 -101 -337
-159 -33 -22 -65 -41 -70 -41 -17 0 -72 174 -72 228 0 23 -40 72 -60 72 -5 0
-19 -9 -30 -20z"/>
<path d="M29685 14243 c-21 -21 -15 -96 15 -181 11 -31 20 -65 20 -75 0 -10
-35 -53 -78 -96 -92 -92 -148 -190 -137 -240 13 -58 83 -70 98 -16 20 67 67
153 112 203 26 28 50 52 54 52 4 0 26 -29 49 -64 56 -85 115 -138 150 -134 19
2 28 10 30 26 3 17 -15 42 -71 100 -93 97 -105 117 -81 143 9 10 76 58 148
105 135 90 155 107 156 136 1 47 -63 33 -168 -37 -46 -29 -101 -70 -124 -89
-66 -57 -72 -51 -85 78 -9 94 -46 132 -88 89z"/>
<path d="M18628 14229 c-20 -14 -28 -30 -28 -50 0 -36 85 -202 140 -276 22
-28 40 -62 40 -73 0 -12 -20 -42 -45 -68 -49 -50 -61 -77 -51 -117 7 -28 49
-44 70 -26 7 6 23 38 35 70 22 61 46 91 60 75 4 -5 36 -46 70 -91 52 -70 66
-83 91 -83 55 0 77 51 43 100 -9 14 -38 49 -65 78 -64 72 -63 89 11 140 107
75 146 138 101 162 -31 16 -79 -11 -150 -86 -34 -36 -66 -64 -72 -62 -21 7
-78 121 -105 208 -14 47 -33 93 -41 103 -20 23 -71 21 -104 -4z"/>
<path d="M26622 14215 c-11 -14 -23 -46 -27 -71 -3 -26 -24 -102 -46 -170 -30
-94 -46 -128 -64 -140 -55 -36 -88 5 -135 168 -38 132 -52 158 -84 158 -58 0
-56 -38 13 -220 28 -75 46 -105 83 -142 26 -27 54 -48 63 -48 30 0 14 -45 -70
-200 -90 -166 -104 -213 -64 -225 33 -11 69 33 142 168 212 399 307 677 249
730 -25 23 -37 21 -60 -8z"/>
<path d="M15360 14215 c-17 -21 -8 -135 19 -239 12 -44 21 -98 21 -120 1 -29
15 -68 48 -131 40 -76 51 -90 72 -90 42 0 47 40 15 115 -42 100 -43 116 -7
137 17 10 74 34 127 53 107 39 184 93 172 123 -14 36 -95 17 -255 -60 -57 -28
-97 -42 -103 -36 -5 5 -15 60 -23 121 -7 62 -19 119 -26 127 -16 19 -44 19
-60 0z"/>
<path d="M30820 14224 c-8 -3 -40 -13 -70 -22 -113 -35 -189 -145 -213 -308
-9 -62 -8 -75 9 -110 21 -42 52 -55 74 -30 13 16 18 126 6 145 -22 34 50 170
111 210 47 30 54 18 14 -23 -55 -57 -53 -155 6 -234 28 -37 102 -78 180 -98
66 -17 95 -18 111 -2 34 34 1 65 -102 95 -110 33 -156 70 -156 128 0 58 45 96
130 110 112 17 149 41 135 86 -4 12 -21 27 -38 34 -34 14 -172 27 -197 19z"/>
<path d="M14668 14161 c-15 -17 -49 -101 -83 -202 -65 -196 -99 -279 -114
-279 -26 0 -46 99 -70 358 -10 108 -25 142 -61 142 -27 0 -37 -18 -58 -110
-11 -47 -35 -128 -52 -180 -27 -80 -44 -146 -87 -338 -6 -27 21 -62 48 -62 31
0 47 40 64 160 16 115 60 297 76 315 6 5 9 3 9 -5 0 -33 41 -287 51 -318 28
-85 97 -118 138 -66 25 32 95 211 162 414 41 125 48 159 40 177 -14 31 -34 29
-63 -6z"/>
<path d="M21676 14174 c-9 -8 -16 -17 -16 -18 0 -31 -41 -213 -80 -356 -80
-290 -134 -579 -117 -623 8 -22 40 -22 61 1 9 11 29 79 46 161 34 166 77 314
166 576 35 104 64 198 64 208 0 50 -89 87 -124 51z"/>
<path d="M20045 14137 c-34 -29 -82 -182 -64 -203 15 -18 28 -18 50 2 17 16
19 15 29 -10 5 -15 10 -37 10 -49 0 -60 58 -84 122 -51 l30 16 43 -48 c35 -40
47 -48 77 -48 70 0 115 58 67 86 -12 7 -36 45 -54 85 -36 78 -54 91 -119 80
-18 -3 -37 -2 -43 1 -6 4 -14 33 -17 65 -9 68 -32 97 -75 97 -17 0 -42 -10
-56 -23z"/>
<path d="M25421 14114 c-98 -49 -218 -209 -246 -328 -20 -82 -19 -124 4 -166
26 -49 63 -61 96 -30 30 29 33 70 5 95 -13 12 -20 31 -20 55 0 47 30 142 43
137 6 -2 16 -22 22 -45 19 -61 77 -134 132 -164 79 -43 167 -69 220 -66 43 3
48 6 51 29 4 35 -12 46 -109 73 -46 13 -100 30 -119 38 -81 35 -126 118 -96
176 24 46 63 62 150 62 82 0 122 13 132 42 14 46 -65 100 -163 111 -42 5 -60
1 -102 -19z"/>
<path d="M30270 14084 c-26 -11 -60 -47 -60 -64 0 -40 38 -49 108 -25 47 17
114 11 133 -11 18 -22 1 -63 -47 -109 -46 -45 -92 -65 -151 -65 -49 0 -66 24
-59 83 7 62 -6 87 -43 87 -40 0 -56 -24 -56 -84 0 -63 29 -122 75 -153 26 -18
47 -23 102 -23 88 0 134 23 189 93 69 86 84 140 54 197 -27 52 -69 73 -154 77
-42 1 -83 0 -91 -3z"/>
<path d="M24780 14021 c-19 -10 -42 -30 -50 -44 -13 -24 -13 -28 3 -44 15 -15
21 -16 50 -4 77 32 107 36 135 20 15 -8 37 -30 49 -48 47 -69 20 -212 -63
-337 -42 -63 -68 -84 -106 -84 -31 0 -39 17 -39 87 0 61 11 98 45 147 40 59
31 106 -21 106 -55 0 -114 -106 -121 -218 -8 -124 36 -197 129 -209 96 -13
171 52 245 212 81 175 42 369 -83 421 -47 20 -132 18 -173 -5z"/>
<path d="M19675 14003 c-82 -42 -137 -130 -150 -240 -8 -63 20 -113 63 -113
73 0 137 20 165 51 16 17 34 28 42 26 7 -3 20 -28 29 -55 18 -52 30 -62 74
-62 39 1 72 30 78 71 5 30 1 41 -25 71 -25 29 -32 48 -37 99 -9 89 -16 102
-69 138 -53 36 -119 41 -170 14z m80 -121 c0 -56 -3 -64 -35 -97 -47 -48 -60
-46 -60 13 0 50 17 92 53 130 31 34 42 22 42 -46z"/>
<path d="M23639 13989 c-33 -33 -13 -88 82 -221 65 -92 65 -88 -1 -168 -74
-89 -84 -136 -40 -180 40 -40 74 -18 94 61 17 66 52 129 71 129 7 0 33 -22 57
-49 39 -45 178 -159 221 -183 24 -12 47 6 47 38 0 18 -17 37 -62 72 -161 123
-208 163 -208 177 0 14 76 68 194 136 65 38 87 69 66 94 -7 8 -22 15 -35 15
-24 0 -153 -74 -229 -133 -27 -20 -52 -37 -57 -37 -14 0 -77 115 -95 175 -28
95 -61 118 -105 74z"/>
<path d="M21298 13989 c-27 -15 -23 -74 8 -114 34 -44 110 -95 143 -95 32 0
71 25 71 45 0 8 -9 20 -20 27 -11 7 -38 38 -60 69 -48 69 -99 93 -142 68z"/>
<path d="M15105 13892 c-17 -11 -43 -35 -58 -55 -15 -21 -34 -37 -41 -37 -28
0 -46 -36 -46 -91 0 -79 17 -99 85 -99 48 0 58 4 87 33 42 42 76 111 84 170
12 86 -40 122 -111 79z m25 -109 c0 -19 -41 -73 -55 -73 -23 0 -18 21 12 52
26 27 43 35 43 21z"/>
<path d="M14387 13179 c-165 -14 -257 -50 -243 -97 10 -31 50 -38 110 -19 112
35 181 38 656 33 508 -7 544 -9 672 -33 84 -16 88 -16 108 2 22 20 27 67 8 82
-7 6 -67 16 -133 23 -139 15 -1023 22 -1178 9z"/>
<path d="M19453 12958 c-121 -113 -424 -419 -506 -510 -33 -38 -67 -68 -76
-68 -21 1 -230 307 -231 337 0 32 -33 91 -56 102 -31 14 -30 14 -48 -5 -9 -8
-16 -29 -16 -45 0 -66 103 -240 232 -391 53 -62 59 -86 27 -114 -29 -26 -203
-222 -316 -357 -80 -95 -93 -115 -93 -147 0 -26 7 -43 24 -59 36 -34 69 -23
90 31 9 24 33 66 54 94 72 100 326 394 336 391 6 -2 34 -35 61 -74 101 -142
284 -321 373 -367 40 -21 91 -17 106 7 16 24 -2 47 -55 74 -24 11 -71 43 -104
70 -79 64 -315 332 -315 358 0 20 391 423 578 596 76 71 92 90 92 115 0 34
-16 54 -42 54 -9 0 -61 -41 -115 -92z"/>
<path d="M31755 13008 c-29 -34 -184 -345 -205 -411 -6 -21 -23 -51 -37 -67
-20 -25 -32 -30 -68 -30 -37 0 -52 7 -103 50 -91 76 -195 221 -269 375 -37 77
-39 80 -57 83 -43 9 -59 -48 -32 -113 27 -63 182 -290 245 -357 65 -70 144
-118 192 -118 15 0 31 -4 34 -10 3 -5 -10 -40 -29 -77 -118 -231 -277 -644
-364 -948 -51 -177 -54 -198 -37 -221 13 -17 15 -18 30 -3 16 16 76 167 96
243 53 201 247 679 442 1086 32 69 69 148 82 175 56 126 71 153 106 192 39 43
53 85 47 144 -4 48 -36 51 -73 7z"/>
<path d="M29899 12980 c-110 -19 -298 -139 -383 -243 -43 -53 -96 -151 -134
-247 -38 -96 -137 -443 -153 -534 -14 -84 -6 -236 16 -321 24 -86 101 -244
138 -283 99 -102 280 -150 468 -123 153 23 220 62 369 217 113 117 141 163
195 326 41 124 46 150 62 321 14 155 14 191 4 211 -9 16 -14 68 -15 148 l-1
123 -58 115 c-69 135 -95 171 -150 211 -79 57 -258 97 -358 79z m198 -104 c77
-22 133 -52 160 -86 7 -8 39 -67 70 -130 l58 -115 0 -127 c0 -102 -3 -130 -16
-143 -10 -10 -63 -23 -144 -35 -71 -11 -145 -25 -165 -30 -19 -5 -57 -10 -84
-10 l-49 0 7 138 c4 75 14 205 23 287 10 83 17 173 18 200 0 47 -2 50 -25 50
-20 0 -28 -9 -43 -50 -26 -70 -47 -242 -55 -457 l-7 -182 -237 -1 c-131 0
-238 3 -238 7 0 39 117 346 160 424 35 60 134 158 212 207 126 81 215 94 355
53z m306 -693 c6 -10 -27 -233 -42 -290 -24 -89 -51 -164 -78 -219 -44 -91
-259 -311 -305 -314 -5 0 -8 42 -8 93 0 50 -7 164 -15 252 -24 268 -29 391
-16 399 6 4 54 12 107 17 52 5 143 23 202 38 114 30 148 36 155 24z m-784 -88
l236 0 6 -160 c4 -88 14 -225 23 -305 22 -196 21 -231 -6 -273 -27 -41 -58
-47 -199 -35 -98 7 -188 44 -246 100 -35 34 -92 160 -119 261 -18 67 -15 247
5 317 5 19 15 54 21 78 10 38 13 42 27 30 12 -10 71 -13 252 -13z"/>
<path d="M15472 12958 c-5 -7 -15 -31 -21 -53 -24 -92 -157 -248 -397 -465
-82 -74 -185 -170 -230 -212 -44 -43 -85 -78 -90 -78 -14 0 -185 205 -260 310
-87 122 -129 195 -163 284 -32 84 -54 116 -81 116 -53 0 -52 -62 2 -171 85
-172 223 -371 356 -510 39 -42 72 -80 72 -86 0 -5 -33 -32 -72 -59 -126 -88
-294 -234 -342 -297 -46 -60 -29 -111 36 -105 28 2 37 10 56 48 30 57 84 114
197 205 50 40 108 91 130 114 21 23 44 41 49 41 6 0 40 -29 76 -64 73 -72 330
-279 374 -303 45 -23 76 -5 76 46 0 38 -2 40 -97 105 -167 112 -343 251 -343
269 0 7 48 53 107 102 129 108 380 349 481 460 40 44 89 106 109 139 55 89 56
176 3 176 -10 0 -22 -6 -28 -12z"/>
<path d="M9905 12924 c-126 -67 -377 -295 -504 -456 -29 -38 -58 -68 -65 -68
-20 0 -208 215 -255 292 -36 60 -91 60 -91 -1 0 -52 121 -209 227 -294 41 -33
63 -58 63 -71 -1 -12 -23 -50 -51 -86 -73 -96 -159 -271 -159 -325 0 -73 69
-132 108 -93 7 7 12 30 12 53 0 53 28 125 93 238 77 132 80 137 96 137 7 0 43
-28 80 -62 70 -67 173 -138 349 -242 153 -90 169 -98 210 -94 34 3 37 6 37 33
0 23 -7 33 -30 44 -127 64 -284 159 -420 254 -126 89 -161 118 -163 137 -5 54
316 392 474 498 85 58 114 93 93 118 -17 21 -48 17 -104 -12z"/>
<path d="M29076 12864 c-130 -78 -382 -297 -509 -444 l-57 -65 -20 25 c-25 31
-166 272 -174 297 -4 13 1 21 16 28 12 6 26 18 32 28 15 26 -21 54 -81 63 -74
11 -97 -19 -74 -96 15 -52 129 -245 189 -321 29 -37 52 -75 52 -86 0 -11 -20
-46 -44 -79 -49 -65 -122 -206 -161 -310 -35 -93 -35 -190 0 -228 28 -30 38
-32 59 -10 11 11 14 23 9 42 -13 45 -6 103 22 182 28 78 132 288 163 328 l18
24 64 -84 c35 -46 85 -108 110 -138 64 -75 165 -201 225 -280 79 -103 185
-221 211 -232 31 -14 54 4 54 44 0 24 -13 42 -66 91 -37 34 -116 127 -177 206
-60 79 -165 206 -233 282 -68 76 -124 147 -124 158 0 25 60 99 146 182 117
110 277 243 344 284 86 54 122 89 118 117 -5 36 -45 33 -112 -8z"/>
<path d="M20893 12857 c-17 -22 -89 -232 -143 -414 -22 -79 -53 -113 -99 -113
-35 0 -225 106 -333 187 -104 77 -165 142 -218 234 -41 70 -63 87 -86 68 -18
-15 -18 -45 2 -105 23 -68 71 -131 154 -199 182 -152 350 -250 450 -262 28 -3
53 -9 55 -13 3 -4 -11 -56 -30 -114 -33 -103 -89 -348 -114 -506 -19 -113 -26
-391 -12 -418 14 -26 47 -29 59 -4 5 9 12 78 15 152 7 161 33 315 92 545 63
246 78 295 133 440 27 72 60 168 75 215 14 47 40 126 58 176 28 75 32 97 24
120 -14 39 -55 44 -82 11z"/>
<path d="M23291 12831 c-53 -53 -4 -201 144 -431 55 -85 162 -225 194 -254 35
-32 26 -57 -36 -106 -126 -98 -293 -311 -293 -373 0 -29 19 -57 40 -57 20 0
44 29 79 100 13 25 40 68 61 95 56 75 210 235 225 235 8 0 40 -32 72 -70 69
-84 222 -224 305 -280 70 -47 103 -51 120 -15 13 30 0 50 -46 69 -74 31 -383
319 -374 348 7 22 219 160 588 384 156 95 218 154 177 170 -19 7 -107 -35
-212 -99 -49 -31 -106 -65 -125 -76 -148 -87 -323 -199 -389 -250 -44 -34 -86
-61 -93 -61 -11 0 -152 197 -282 395 -41 63 -71 122 -80 158 -6 25 -4 27 23
27 31 0 61 22 61 45 0 54 -117 88 -159 46z"/>
<path d="M25712 12758 c-22 -22 -13 -77 37 -221 67 -192 80 -224 117 -282 56
-89 123 -134 222 -150 51 -8 53 -20 18 -103 -13 -31 -43 -111 -66 -177 -23
-66 -68 -190 -100 -276 -136 -360 -147 -402 -115 -429 27 -22 61 12 80 77 13
48 131 373 255 703 103 273 200 589 200 651 0 10 16 38 35 63 41 55 45 92 11
107 -18 9 -30 7 -55 -6 -46 -23 -76 -95 -111 -267 -31 -153 -63 -258 -82 -269
-16 -10 -93 15 -139 45 -21 15 -54 50 -73 79 -33 50 -109 261 -136 376 -18 77
-63 114 -98 79z"/>
<path d="M25001 12721 c-53 -53 -65 -147 -52 -413 3 -48 1 -91 -3 -95 -4 -4
-42 -11 -84 -14 -115 -9 -160 -24 -168 -56 -8 -32 6 -57 34 -61 11 -2 49 5 84
16 35 11 79 22 99 26 35 6 37 5 41 -23 2 -16 0 -93 -5 -171 -10 -153 -6 -167
37 -156 36 9 48 65 48 223 -1 101 2 134 13 143 7 6 42 15 77 20 35 5 99 17
143 25 44 9 111 20 150 26 77 11 115 30 115 58 0 41 -20 43 -177 21 -81 -11
-176 -30 -210 -41 -112 -37 -108 -42 -108 161 1 162 2 178 24 221 30 60 26
103 -11 107 -17 2 -34 -4 -47 -17z"/>
<path d="M9895 10209 c-65 -41 -111 -89 -231 -238 -314 -392 -631 -879 -648
-996 -8 -51 6 -85 34 -85 24 0 60 45 60 75 0 50 75 185 255 458 171 258 291
426 393 546 155 186 163 191 215 151 65 -51 109 -203 136 -465 31 -293 71
-525 105 -607 26 -60 22 -71 -32 -90 -103 -37 -259 -117 -302 -156 -94 -84 5
-73 200 22 119 59 143 64 174 41 25 -19 50 -19 66 0 11 13 7 47 -24 192 -48
225 -73 399 -86 589 -12 190 -34 337 -60 406 -44 118 -109 188 -176 188 -17 0
-52 -14 -79 -31z"/>
<path d="M11571 10101 c-11 -11 -23 -37 -26 -58 -4 -21 -15 -76 -26 -122 -84
-366 -108 -573 -74 -644 18 -39 50 -56 68 -38 7 7 12 60 12 144 1 109 6 158
33 282 18 83 45 193 61 245 46 150 46 156 17 185 -30 30 -40 31 -65 6z"/>
<path d="M13651 9891 c-45 -48 -200 -467 -209 -565 -6 -70 14 -118 59 -136 36
-15 128 -5 237 26 119 34 131 33 165 -21 16 -24 45 -58 65 -76 77 -68 259
-132 326 -115 15 4 32 18 38 32 18 38 -6 55 -93 64 -114 13 -289 108 -289 158
0 15 19 27 80 52 56 23 90 44 115 71 46 51 46 81 -3 129 -42 42 -99 57 -171
45 -77 -13 -113 -60 -126 -167 -8 -64 -1 -59 -115 -84 -174 -38 -210 -37 -210
8 0 10 22 76 49 146 26 70 60 159 75 198 15 40 45 101 66 137 45 74 48 87 22
110 -27 24 -50 21 -81 -12z m418 -435 c25 -30 -61 -96 -124 -96 -36 0 -31 43
13 93 18 21 94 23 111 3z"/>
<path d="M9770 9858 c-18 -30 -20 -49 -18 -183 1 -82 -2 -194 -6 -248 -8 -91
-10 -99 -32 -107 -27 -11 -30 -36 -12 -103 9 -35 8 -85 -5 -243 -10 -109 -17
-223 -17 -251 0 -46 -4 -58 -35 -92 -40 -44 -43 -61 -15 -86 23 -21 27 -87 10
-174 -18 -98 -50 -436 -70 -751 -11 -173 -25 -364 -30 -425 -41 -420 -48 -544
-60 -975 -10 -387 -30 -750 -55 -1020 -8 -85 -17 -202 -20 -260 -10 -174 -12
-183 -45 -202 -37 -21 -38 -41 -3 -66 l27 -19 -23 -214 c-12 -118 -27 -253
-32 -302 -5 -48 -12 -143 -16 -212 -3 -69 -10 -125 -14 -125 -5 0 -66 9 -136
19 -71 11 -193 27 -273 36 -230 25 -447 56 -605 86 -334 64 -863 139 -974 139
-131 0 -294 -45 -353 -98 -33 -29 -17 -82 25 -82 10 0 56 18 101 41 113 55
195 60 436 25 275 -40 476 -72 730 -114 129 -22 309 -49 400 -61 367 -45 507
-61 547 -61 23 0 54 -5 68 -10 30 -11 30 -5 7 -160 -13 -81 -37 -277 -52 -405
-5 -44 -11 -170 -14 -280 -4 -122 -15 -261 -28 -357 -22 -153 -22 -157 -4
-177 21 -24 49 -27 63 -8 29 35 53 242 63 527 5 146 17 323 29 413 11 87 25
218 31 290 6 73 14 135 18 139 7 6 49 3 242 -22 41 -5 143 -14 225 -20 83 -6
170 -13 195 -15 204 -16 318 -26 395 -34 154 -17 634 -57 840 -71 218 -15 382
-28 480 -39 50 -6 356 -31 680 -56 325 -25 709 -56 855 -70 367 -35 571 -53
665 -60 95 -7 338 -31 450 -45 173 -22 449 -50 620 -65 99 -8 221 -19 270 -24
195 -21 681 -56 1125 -81 102 -6 309 -20 460 -30 151 -11 309 -22 350 -25 41
-3 161 -10 265 -15 105 -6 273 -17 375 -24 235 -19 710 -51 1040 -71 140 -8
350 -22 465 -29 231 -16 522 -33 715 -42 69 -3 229 -12 355 -20 127 -8 297
-17 378 -21 81 -3 150 -10 153 -14 6 -11 -47 -44 -101 -63 -147 -53 -447 -136
-675 -186 -238 -52 -616 -133 -725 -155 -285 -58 -290 -59 -269 -93 22 -34
159 -25 424 29 80 16 255 51 390 79 685 137 990 242 1194 412 126 105 157 178
113 267 -16 33 -180 153 -327 240 -69 41 -143 89 -164 108 -86 72 -200 14
-119 -61 14 -14 54 -39 87 -56 224 -117 363 -204 389 -244 35 -53 17 -117 -52
-179 -47 -42 -45 -42 -166 -22 -122 21 -592 56 -1000 75 -208 10 -498 28 -790
50 -71 5 -254 16 -405 25 -270 15 -424 26 -945 64 -143 11 -352 25 -465 31
-113 6 -263 15 -335 20 -139 10 -310 21 -710 46 -556 34 -1202 86 -1595 129
-74 8 -217 24 -318 35 -101 11 -256 27 -345 35 -89 8 -283 26 -432 40 -289 27
-900 80 -1105 95 -218 16 -380 29 -555 45 -182 16 -719 60 -925 75 -69 5 -179
14 -245 20 -66 5 -176 15 -245 20 -69 6 -141 12 -160 15 -36 5 -158 15 -470
40 -172 14 -340 29 -468 41 -77 8 -82 17 -66 111 8 43 18 125 23 183 31 349
41 471 43 515 3 47 5 50 32 53 16 2 48 -1 71 -7 24 -6 166 -15 316 -20 151 -6
405 -15 564 -21 160 -6 441 -15 625 -20 184 -5 425 -16 535 -24 496 -36 559
-39 601 -27 23 6 47 18 54 26 7 9 21 68 30 133 10 64 25 146 33 182 9 36 18
106 22 155 3 50 15 162 25 250 11 88 24 266 30 395 9 209 31 405 60 535 5 22
12 87 15 145 9 138 29 301 55 430 11 58 27 182 35 275 9 94 20 193 26 220 6
28 13 122 15 210 2 87 8 163 12 167 4 4 34 3 67 -2 99 -16 307 -31 555 -40
129 -5 300 -14 380 -20 98 -8 277 -10 550 -6 597 10 1744 8 1748 -3 2 -5 -6
-47 -17 -93 -45 -190 -45 -294 -1 -728 31 -305 38 -673 16 -835 -8 -55 -41
-215 -74 -355 -81 -344 -100 -440 -112 -562 -6 -57 -15 -150 -20 -208 -6 -61
-7 -138 -3 -184 10 -98 21 -108 158 -140 473 -110 1192 -161 1587 -113 155 19
295 22 383 7 33 -6 132 -20 220 -31 157 -19 192 -26 348 -69 69 -18 118 -27
262 -46 26 -4 46 -1 59 8 21 17 48 125 71 292 8 60 22 135 30 165 59 231 83
448 92 816 6 267 4 292 -31 595 -8 69 -18 195 -21 280 -3 85 -10 237 -15 337
-10 199 0 421 27 648 18 152 39 232 64 248 12 8 63 6 170 -6 251 -28 406 -38
477 -33 37 3 146 11 242 16 96 6 240 18 320 27 217 23 894 23 1085 -1 267 -34
800 -37 1008 -6 58 9 91 10 98 3 6 -6 4 -44 -7 -111 -16 -105 -14 -210 16
-817 6 -110 8 -234 5 -275 -15 -183 -48 -450 -66 -529 -78 -337 -93 -395 -144
-566 -60 -202 -83 -314 -99 -486 -9 -96 -21 -210 -25 -254 -10 -93 -7 -627 3
-644 4 -6 37 -11 79 -11 185 -1 421 -37 705 -110 128 -32 300 -64 457 -85 55
-8 145 -21 200 -29 55 -9 156 -23 225 -31 69 -9 166 -25 215 -36 190 -43 314
-68 410 -84 122 -20 216 -51 355 -117 58 -28 121 -53 141 -55 32 -5 39 -2 55
22 22 33 10 57 -32 66 -16 3 -83 31 -149 61 -152 71 -217 90 -445 132 -102 19
-238 46 -302 60 -65 14 -207 37 -315 51 -109 14 -205 28 -213 30 -8 2 -78 14
-155 25 -129 19 -432 77 -446 85 -3 2 -77 20 -165 40 -105 24 -220 41 -339 52
-99 9 -185 20 -190 24 -7 5 -8 36 -3 91 7 72 5 153 -7 313 -3 39 25 351 45
510 12 93 42 219 94 395 47 158 127 477 155 620 15 78 41 326 48 455 3 61 0
211 -6 335 -7 124 -15 340 -18 481 -6 278 2 362 41 431 37 66 -2 93 -90 63
-104 -35 -804 -49 -1044 -21 -69 8 -163 18 -210 21 -252 18 -816 8 -1100 -19
-91 -9 -271 -19 -400 -22 -204 -6 -262 -4 -436 15 -111 12 -223 21 -250 19
-49 -3 -49 -3 -76 -61 -43 -90 -60 -187 -89 -532 -17 -197 6 -812 41 -1110 24
-199 26 -357 10 -687 -12 -253 -33 -404 -83 -603 -8 -33 -20 -98 -27 -145 -20
-146 -42 -249 -55 -253 -17 -7 -125 14 -285 56 -74 20 -178 41 -230 47 -52 6
-154 20 -227 31 -162 23 -300 24 -463 2 -155 -20 -526 -23 -760 -5 -243 19
-600 69 -807 114 -101 21 -104 32 -78 278 25 242 33 301 53 390 11 47 32 141
47 210 14 69 40 177 55 240 45 176 60 306 60 507 0 180 -18 486 -45 768 -21
217 -19 362 6 476 11 52 23 119 26 149 4 47 2 58 -16 74 -21 19 -40 20 -749
16 -1611 -8 -2016 3 -2649 77 -64 8 -70 -8 -77 -217 -3 -96 -12 -215 -20 -265
-8 -49 -18 -137 -21 -195 -3 -58 -22 -193 -40 -300 -19 -107 -39 -260 -45
-340 -5 -80 -19 -194 -30 -253 -31 -172 -48 -329 -55 -520 -3 -98 -13 -233
-21 -300 -8 -67 -19 -165 -24 -217 -20 -190 -33 -296 -42 -325 -5 -16 -16 -68
-23 -114 -8 -47 -18 -88 -23 -93 -5 -5 -127 0 -273 11 -417 31 -627 41 -1039
51 -212 6 -459 14 -550 20 -91 5 -219 10 -285 10 -178 0 -524 27 -542 41 -9 8
-13 22 -9 38 3 14 19 170 36 346 32 334 55 746 65 1170 6 256 19 486 35 655
19 196 50 591 61 764 5 99 14 187 19 196 5 9 12 50 15 91 3 41 17 144 31 230
13 86 24 173 24 193 0 44 15 76 36 76 22 0 122 -43 281 -121 159 -78 229 -95
263 -64 41 37 21 69 -46 78 -23 2 -86 24 -140 47 -55 24 -148 60 -209 80
l-109 37 139 7 c77 3 208 10 290 15 365 22 2652 -3 3665 -39 140 -5 363 -10
495 -10 132 -1 283 -5 335 -10 52 -6 300 -13 550 -16 414 -6 456 -5 469 9 42
51 -33 65 -435 77 -175 5 -422 14 -549 20 -126 5 -363 12 -525 15 -162 3 -414
10 -560 15 -146 5 -420 12 -610 15 -190 4 -352 9 -360 12 -16 5 -1798 19
-2155 17 -254 -2 -451 -17 -645 -48 -80 -13 -148 -22 -152 -19 -14 8 -9 37 13
77 17 31 18 43 10 60 -17 32 2 375 34 601 22 156 26 217 22 340 -2 90 -8 159
-16 173 -18 34 -57 29 -81 -10z"/>
<path d="M12275 9640 c-96 -11 -183 -66 -273 -174 -91 -107 -124 -213 -85
-272 47 -73 237 -101 265 -39 9 20 8 29 -6 44 -16 17 -27 19 -85 14 -107 -9
-126 27 -69 127 64 113 192 207 296 217 65 7 72 0 72 -75 0 -62 25 -118 70
-155 37 -32 83 -41 155 -32 31 3 55 3 55 -3 0 -4 -24 -40 -52 -79 -29 -39 -74
-104 -101 -145 -26 -40 -62 -92 -79 -116 -34 -45 -33 -62 4 -86 35 -21 70 20
203 239 78 128 97 154 159 222 35 37 68 78 74 90 23 42 9 93 -24 93 -7 0 -39
-20 -72 -45 -145 -109 -256 -125 -295 -42 -25 51 -21 72 18 116 19 21 35 43
35 48 0 24 -39 41 -107 47 -39 3 -77 8 -85 10 -7 2 -40 0 -73 -4z"/>
<path d="M13056 9535 c-110 -57 -128 -245 -34 -342 37 -38 122 -73 176 -73 86
1 168 69 129 107 -15 15 -23 16 -62 5 -131 -35 -215 8 -215 109 0 57 19 83 81
113 47 22 62 54 39 82 -16 18 -77 18 -114 -1z"/>
<path d="M15853 9403 c-4 -9 4 -58 17 -109 26 -104 25 -206 -5 -344 -8 -41
-18 -107 -22 -148 -4 -47 -11 -76 -19 -79 -14 -5 -135 17 -235 43 -98 25 -138
12 -125 -40 8 -34 43 -44 200 -61 76 -8 145 -20 153 -27 22 -18 13 -146 -12
-165 -35 -25 -288 -101 -442 -132 -132 -27 -133 -28 -133 -61 0 -37 28 -53 78
-44 129 22 293 71 400 120 41 19 79 34 86 34 14 0 20 -69 32 -340 5 -107 3
-148 -10 -198 -20 -79 -20 -96 -1 -112 13 -11 20 -9 41 11 34 31 41 52 54 151
6 56 6 127 -1 218 -5 74 -12 174 -16 221 l-6 86 62 42 c75 51 95 79 86 120 -6
28 -29 48 -111 97 -17 10 -16 19 16 180 39 201 44 340 16 444 -10 36 -24 75
-32 88 -17 26 -62 30 -71 5z m78 -803 c10 -6 19 -16 19 -22 0 -16 -31 -48 -47
-48 -13 0 -18 36 -7 64 7 19 9 19 35 6z"/>
<path d="M14635 7544 c-89 -21 -108 -29 -135 -61 -53 -60 -37 -148 47 -251 39
-47 39 -71 3 -89 -36 -18 -154 -16 -211 4 -45 16 -50 16 -65 1 -15 -14 -15
-19 1 -52 10 -20 30 -43 46 -51 37 -20 170 -19 236 0 55 16 103 61 103 96 0
36 20 58 61 69 56 15 67 4 52 -53 -11 -37 -10 -44 8 -62 17 -18 20 -18 35 -3
9 9 24 45 33 80 l16 63 55 13 c30 7 65 15 77 17 33 8 49 43 29 63 -12 13 -32
16 -83 14 -75 -4 -83 2 -83 61 0 49 -24 101 -57 123 -26 16 -128 28 -168 18z
m145 -123 c5 -11 10 -35 10 -54 l0 -35 -87 -27 c-93 -29 -104 -28 -130 16 -38
63 23 118 134 119 52 0 64 -3 73 -19z"/>
<path d="M13300 7503 c-50 -9 -189 -82 -232 -121 -79 -73 -85 -138 -21 -235
56 -85 109 -110 244 -115 98 -4 109 -2 128 17 24 24 27 44 9 58 -7 5 -61 15
-120 20 -129 13 -191 40 -196 87 -6 54 119 146 242 177 40 10 50 8 89 -11 24
-12 53 -20 63 -18 44 8 18 94 -39 128 -31 19 -101 25 -167 13z"/>
<path d="M14125 7475 c-22 -8 -55 -31 -74 -51 -28 -30 -37 -35 -60 -29 -14 4
-49 9 -77 12 -123 11 -342 -153 -320 -241 8 -31 32 -56 55 -56 10 0 39 27 66
61 38 49 62 68 114 92 41 20 82 31 110 32 44 0 45 0 82 -65 54 -93 77 -110
148 -110 31 0 62 5 69 12 18 18 14 46 -8 58 -29 16 -24 33 16 55 57 30 84 70
84 121 0 56 -37 101 -95 114 -52 12 -62 12 -110 -5z m108 -108 c3 -8 -4 -28
-15 -45 -24 -39 -83 -60 -117 -43 -27 15 -26 22 2 49 49 46 119 67 130 39z"/>
<path d="M6809 7194 c-16 -19 -17 -38 -25 -459 -7 -369 1 -500 34 -545 24 -31
45 -36 66 -15 13 14 15 27 9 68 -8 55 -8 374 1 542 3 55 8 157 12 226 l7 125
-33 37 c-35 41 -51 45 -71 21z"/>
<path d="M7441 7071 c-21 -13 -41 -121 -48 -256 -3 -68 -11 -123 -17 -127 -6
-4 -40 -10 -76 -13 -86 -9 -98 -13 -105 -35 -9 -28 23 -89 51 -96 13 -3 46 2
74 11 28 9 54 14 57 11 9 -9 9 -55 -1 -166 -8 -90 -7 -96 14 -115 16 -15 25
-17 38 -9 34 22 42 56 42 191 0 151 -10 136 110 158 36 6 95 20 132 30 37 11
70 16 74 12 4 -4 -5 -33 -20 -66 -34 -77 -33 -123 4 -187 55 -97 135 -94 234
9 49 51 60 58 67 44 21 -37 62 -77 79 -77 10 0 23 7 30 15 10 13 6 29 -24 95
-30 66 -36 90 -36 147 0 77 -17 113 -54 113 -36 0 -47 -22 -51 -103 -3 -79
-25 -135 -67 -174 -52 -49 -108 -34 -108 28 0 42 14 65 81 136 92 96 77 140
-45 130 -95 -7 -288 -37 -307 -48 -27 -14 -79 -11 -85 5 -3 8 7 59 22 113 38
138 41 172 14 206 -22 27 -53 34 -79 18z"/>
<path d="M5062 7007 c-8 -10 -7 -27 5 -65 15 -45 15 -60 4 -116 -20 -99 9
-415 46 -507 19 -48 87 -110 160 -145 68 -34 137 -29 215 13 91 49 373 335
419 425 23 45 24 81 3 102 -24 25 -34 20 -83 -36 -93 -109 -344 -350 -394
-378 -85 -49 -180 -36 -206 27 -17 43 -42 300 -46 470 -2 83 -6 160 -9 170 -7
22 -56 53 -84 53 -11 0 -24 -6 -30 -13z"/>
<path d="M10795 6901 c-65 -24 -116 -54 -190 -112 -243 -191 -386 -468 -386
-747 1 -90 4 -111 27 -163 65 -145 261 -243 453 -226 130 12 321 79 456 161
371 224 659 625 581 810 -20 49 -71 102 -114 119 -21 9 -75 21 -119 27 -163
24 -383 -40 -383 -111 0 -32 31 -40 96 -22 37 10 100 17 169 17 98 1 115 -2
159 -24 96 -48 113 -112 60 -230 -36 -81 -155 -240 -231 -310 -152 -139 -333
-248 -513 -306 -104 -34 -256 -36 -350 -5 -89 30 -134 62 -167 118 -26 45 -28
56 -28 153 1 134 21 214 90 355 44 89 70 127 136 198 96 104 202 181 275 203
54 15 78 13 151 -13 35 -13 48 -13 73 -3 57 24 48 89 -15 116 -48 19 -168 17
-230 -5z"/>
<path d="M9037 6886 c-73 -26 -117 -64 -144 -123 -22 -49 -25 -64 -19 -123 7
-79 0 -89 -65 -97 l-42 -6 7 39 c19 102 19 124 1 144 -10 11 -24 20 -32 20 -7
0 -13 10 -13 23 0 37 -35 62 -85 61 -89 -2 -195 -78 -246 -176 -23 -45 -24
-70 -4 -108 40 -77 131 -81 224 -8 38 29 46 8 23 -59 -11 -32 -30 -78 -41
-103 -11 -25 -33 -95 -49 -155 -16 -61 -41 -133 -55 -162 -31 -60 -33 -81 -12
-89 31 -12 64 6 89 49 26 46 45 98 100 282 56 182 53 178 124 194 33 7 69 10
80 7 12 -4 35 -38 60 -89 75 -156 125 -199 286 -253 96 -32 149 -35 173 -11
17 17 17 19 -6 36 -13 10 -54 27 -92 39 -101 32 -159 62 -200 104 -42 43 -113
173 -106 192 3 8 38 26 78 41 119 46 209 146 209 233 0 37 -6 50 -34 78 -32
32 -38 34 -102 34 -38 -1 -86 -7 -107 -14z m160 -112 c3 -8 -3 -28 -14 -42
-29 -40 -154 -122 -188 -125 -28 -2 -30 1 -33 33 -6 75 84 150 180 150 35 0
50 -4 55 -16z m-497 -76 c0 -44 -75 -112 -138 -124 -39 -8 -82 2 -82 19 0 19
71 88 105 103 39 17 115 18 115 2z"/>
<path d="M6365 6866 c-49 -16 -97 -40 -152 -77 -34 -24 -51 -48 -94 -136 -88
-183 -100 -260 -54 -339 65 -110 212 -130 353 -48 75 44 200 177 233 248 70
150 39 295 -76 347 -47 22 -150 24 -210 5z m209 -126 c29 -29 25 -111 -8 -183
-37 -77 -155 -188 -230 -216 -82 -31 -153 -25 -178 13 -16 23 -7 80 27 170 19
52 35 99 35 105 0 15 75 69 130 94 109 49 186 55 224 17z"/>
<path d="M13726 6734 c-20 -19 -20 -53 -1 -124 20 -74 19 -176 -5 -420 -11
-113 -27 -331 -34 -485 -8 -154 -20 -326 -27 -383 -12 -93 -12 -104 4 -119 16
-16 18 -16 37 3 40 40 59 171 80 554 6 107 22 286 36 398 41 331 30 514 -32
570 -30 26 -37 27 -58 6z"/>
<path d="M17095 6456 c-94 -18 -170 -46 -257 -97 -188 -109 -348 -269 -416
-416 -88 -192 35 -372 313 -459 203 -64 467 -22 665 105 120 77 244 234 291
367 46 129 3 285 -104 379 -53 47 -141 94 -212 114 -64 18 -203 21 -280 7z
m95 -102 c50 -15 56 -15 83 1 52 31 177 -9 260 -84 107 -96 117 -260 25 -404
-106 -166 -247 -263 -443 -307 -163 -36 -295 -21 -445 51 -94 45 -133 76 -161
131 -68 133 60 330 328 505 82 54 117 69 228 103 75 23 62 23 125 4z"/>
<path d="M20042 6270 c-18 -19 -45 -97 -139 -395 -82 -260 -95 -325 -95 -470
1 -168 9 -240 32 -268 15 -18 22 -20 37 -11 24 15 31 72 21 180 -10 107 -3
211 22 319 22 95 118 387 166 503 38 93 40 108 18 140 -19 27 -38 28 -62 2z"/>
<path d="M23283 5970 c-18 -4 -57 -17 -88 -30 -62 -25 -86 -54 -63 -76 11 -11
26 -9 93 12 75 24 85 25 160 15 138 -19 330 -128 429 -245 107 -125 158 -248
158 -382 0 -299 -181 -399 -517 -284 -328 112 -565 355 -524 537 14 64 31 93
86 144 87 82 237 118 346 83 65 -20 90 -10 85 35 -5 45 -64 66 -183 65 -160
-2 -281 -58 -363 -170 -140 -188 -74 -406 179 -594 192 -142 468 -241 632
-226 184 17 306 132 336 316 16 94 14 147 -9 233 -44 168 -158 323 -319 437
-161 114 -315 160 -438 130z"/>
<path d="M9927 5421 c-21 -26 -57 -142 -57 -187 0 -7 -18 -33 -39 -58 -22 -25
-42 -55 -46 -66 -10 -31 13 -53 48 -46 l29 6 -7 -110 c-8 -119 -2 -140 40
-140 45 0 53 25 57 177 1 78 6 144 10 148 3 4 43 15 89 25 85 19 124 44 114
72 -10 26 -34 30 -112 16 -97 -16 -102 -11 -74 80 25 84 25 77 5 96 -21 22
-29 20 -57 -13z"/>
<path d="M11674 5335 c-12 -18 -19 -59 -24 -138 -5 -75 -13 -123 -24 -145 -21
-40 -18 -81 7 -96 14 -9 26 -6 57 12 21 12 42 22 46 22 3 0 29 -23 56 -51 38
-39 54 -50 75 -47 32 4 48 27 40 60 -10 38 -80 112 -127 133 -26 12 -39 23
-36 32 15 39 29 185 20 210 -14 40 -66 45 -90 8z"/>
<path d="M10657 5252 c-29 -32 -21 -59 23 -82 22 -11 47 -31 56 -44 14 -22 14
-27 -1 -55 -17 -34 -80 -71 -119 -71 -42 0 -51 31 -30 111 17 66 17 69 -1 89
-25 27 -55 25 -123 -9 -109 -57 -166 -105 -216 -184 -21 -34 -18 -86 7 -101
30 -19 68 12 107 87 26 50 45 74 75 92 22 13 43 21 47 19 5 -3 8 -35 8 -71 0
-61 2 -67 34 -99 28 -28 41 -34 78 -34 49 0 111 34 162 89 35 36 46 38 71 11
52 -58 172 19 249 159 24 44 27 57 17 77 -6 13 -19 24 -29 24 -20 0 -62 -39
-62 -59 0 -19 -91 -111 -110 -111 -22 0 -55 36 -83 90 -26 51 -58 76 -107 85
-28 5 -40 2 -53 -13z"/>
<path d="M11426 5193 c-4 -4 -15 -26 -26 -49 -21 -49 -78 -92 -134 -101 -45
-7 -46 4 -1 47 40 39 42 50 17 73 -28 26 -46 21 -101 -29 -87 -78 -101 -126
-49 -169 27 -23 37 -25 72 -19 22 3 67 18 98 32 32 14 61 23 63 20 3 -2 0 -33
-6 -67 -8 -46 -19 -71 -39 -91 -35 -36 -44 -63 -31 -89 17 -31 47 -35 80 -10
37 27 53 66 86 211 15 62 31 126 36 142 12 40 11 80 -3 94 -13 13 -51 16 -62
5z"/>
<path d="M7265 4377 c-202 -71 -350 -139 -570 -262 -190 -106 -234 -135 -277
-183 -41 -46 -54 -79 -44 -118 8 -29 38 -44 141 -69 322 -77 762 -207 960
-283 311 -119 421 -144 449 -100 16 25 -15 52 -82 73 -115 35 -170 55 -288
104 -124 51 -329 118 -584 190 -80 23 -174 50 -210 61 -36 11 -96 27 -135 36
-83 20 -145 49 -145 68 0 8 51 39 112 71 62 31 124 65 138 75 39 27 263 134
389 185 94 38 130 47 200 52 93 7 128 22 137 59 11 42 -11 54 -90 53 -39 -1
-84 -6 -101 -12z"/>
<path d="M8819 2936 c-9 -19 -7 -37 9 -87 24 -72 58 -230 72 -334 45 -325 73
-427 124 -455 61 -32 173 16 427 186 186 125 285 200 407 311 87 79 102 112
62 133 -26 14 -55 -1 -118 -61 -131 -126 -523 -396 -666 -460 -87 -38 -94 -25
-126 216 -12 88 -30 205 -40 260 -10 55 -24 132 -31 170 -6 39 -15 79 -20 91
-20 55 -81 73 -100 30z"/>
<path d="M21980 2471 c-5 -11 -10 -40 -10 -64 0 -24 -21 -147 -46 -273 -25
-126 -48 -240 -51 -254 -25 -135 -24 -130 -47 -130 -12 0 -50 11 -84 25 -34
14 -101 34 -147 45 -135 31 -175 25 -175 -27 0 -38 32 -60 96 -67 80 -9 280
-56 299 -70 14 -10 14 -16 0 -55 -28 -82 -47 -411 -25 -452 13 -23 33 -24 54
-3 12 12 16 38 16 112 0 119 24 350 37 363 7 7 39 3 93 -11 115 -29 264 -37
313 -17 42 18 55 40 37 62 -9 11 -35 15 -99 15 -123 1 -292 27 -313 48 -8 8
-3 40 19 114 17 57 39 139 48 183 9 44 29 136 46 205 31 133 36 198 18 233
-22 41 -61 50 -79 18z"/>
<path d="M22506 2320 c-41 -13 -66 -39 -66 -70 0 -50 37 -63 103 -35 20 8 58
15 85 15 59 0 75 13 59 47 -21 47 -103 66 -181 43z"/>
<path d="M22736 2138 c-9 -12 -16 -41 -16 -63 0 -44 -28 -209 -60 -350 -11
-49 -23 -138 -26 -196 -6 -100 -6 -107 15 -128 11 -11 28 -21 38 -21 19 0 83
65 117 118 51 80 169 224 199 243 39 23 92 25 101 3 10 -27 7 -51 -19 -128
-29 -86 -32 -142 -9 -174 24 -35 62 -28 124 24 63 53 154 97 181 89 11 -4 29
-36 50 -88 41 -106 56 -136 87 -169 32 -35 69 -42 136 -27 l55 12 62 -57 c81
-75 123 -101 222 -136 116 -41 204 -54 234 -35 31 20 19 43 -25 50 -63 10
-125 27 -177 48 -59 25 -202 115 -228 144 -17 20 -17 22 -2 35 111 89 205 210
232 296 27 90 -11 188 -97 247 -39 27 -51 30 -124 30 -75 0 -85 -2 -127 -32
-58 -40 -97 -96 -116 -170 -26 -99 -5 -192 67 -299 33 -50 28 -58 -31 -52 -44
4 -79 55 -114 167 -36 111 -59 135 -126 129 -38 -4 -66 -16 -117 -51 -78 -53
-104 -66 -98 -46 27 79 46 158 46 187 0 28 -8 43 -40 74 -35 32 -47 38 -86 38
-88 0 -135 -37 -239 -190 -71 -104 -98 -139 -107 -139 -16 -2 -7 69 27 204 70
283 79 365 44 409 -25 32 -33 32 -53 4z m1140 -334 c51 -24 84 -69 84 -112 0
-67 -135 -258 -210 -297 -25 -13 -29 -12 -41 3 -40 49 -79 151 -79 207 0 83
51 163 125 196 50 23 77 24 121 3z"/>
<path d="M22498 1943 c-23 -27 -43 -97 -88 -307 -29 -132 -40 -208 -38 -250 3
-58 4 -61 30 -64 31 -4 37 12 63 158 21 121 57 259 90 345 30 80 31 97 7 118
-24 22 -45 21 -64 0z"/>
</g>
</svg>
