<?xml version="1.0" standalone="no"?>
<!DOCTYPE svg PUBLIC "-//W3C//DTD SVG 20010904//EN"
 "http://www.w3.org/TR/2001/REC-SVG-20010904/DTD/svg10.dtd">
<svg version="1.0" xmlns="http://www.w3.org/2000/svg"
 width="3264.000000pt" height="2448.000000pt" viewBox="0 0 3264.000000 2448.000000"
 preserveAspectRatio="xMidYMid meet">
<metadata>
Created by potrace 1.12, written by Peter Selinger 2001-2015
</metadata>
<g transform="translate(0.000000,2448.000000) scale(0.100000,-0.100000)"
fill="#000000" stroke="none">
<path d="M10896 21107 c-38 -49 -54 -131 -66 -323 -14 -212 -2 -377 39 -581
40 -198 69 -240 157 -227 30 4 52 1 80 -14 70 -35 217 -53 518 -61 174 -5 286
-4 294 2 16 13 15 42 -2 56 -29 25 -88 32 -311 41 -328 13 -485 39 -485 79 0
29 113 97 185 111 33 7 73 19 89 27 78 40 222 216 246 302 6 20 13 64 17 97
11 116 -40 158 -187 152 -82 -3 -93 -6 -191 -55 -126 -63 -209 -126 -284 -215
-31 -38 -59 -68 -62 -68 -11 0 8 434 21 501 8 36 26 83 40 104 38 56 20 105
-40 105 -26 0 -39 -7 -58 -33z m642 -439 c42 -42 -22 -194 -127 -299 -59 -58
-74 -68 -141 -88 -60 -18 -83 -31 -116 -65 -22 -23 -44 -58 -50 -77 -27 -95
-134 1 -134 120 0 28 9 75 20 104 18 47 32 63 108 123 48 37 117 86 153 107
121 70 256 106 287 75z"/>
<path d="M10255 20676 c-34 -15 -66 -59 -118 -162 -85 -170 -67 -305 53 -385
84 -57 213 -68 315 -29 129 49 279 251 221 299 -19 16 -43 4 -71 -37 -73 -107
-163 -171 -254 -179 -86 -8 -125 2 -171 46 -35 33 -40 44 -40 82 0 88 44 191
109 254 48 46 54 85 19 109 -26 19 -25 19 -63 2z"/>
<path d="M8655 20567 c-63 -34 -193 -158 -261 -249 -188 -249 -229 -332 -210
-433 10 -51 67 -110 129 -133 137 -51 271 -52 458 -7 164 41 245 76 317 139
24 21 30 64 9 72 -7 2 -53 -14 -102 -37 -105 -48 -214 -81 -340 -103 -164 -29
-264 -15 -326 43 -46 44 -56 80 -40 140 32 124 280 424 404 490 45 25 46 25
86 7 67 -31 120 1 91 54 -31 58 -126 65 -215 17z"/>
<path d="M9784 20451 c-46 -33 -132 -124 -159 -166 -44 -70 -121 -149 -163
-168 -107 -47 -184 21 -201 175 -4 43 -13 73 -22 79 -26 16 -57 9 -79 -18 -18
-23 -21 -37 -17 -74 7 -60 47 -149 91 -203 29 -35 46 -45 90 -56 100 -24 205
1 268 65 15 15 57 71 93 125 36 54 78 111 93 127 l27 28 3 -37 c2 -24 -10 -72
-39 -145 -43 -113 -78 -216 -152 -449 -25 -77 -62 -180 -82 -227 -41 -96 -38
-117 15 -117 54 0 75 43 194 402 52 156 113 335 135 400 56 159 54 226 -7 276
-24 19 -45 15 -88 -17z"/>
<path d="M15788 19829 c-28 -16 -22 -52 13 -78 l32 -24 -7 -84 c-5 -66 -12
-94 -36 -136 -16 -29 -47 -106 -69 -171 -22 -65 -43 -121 -46 -124 -3 -3 -5
38 -5 90 0 105 -10 125 -54 114 -19 -5 -26 -15 -30 -39 -5 -31 -19 -493 -20
-674 -1 -50 -4 -94 -8 -98 -9 -9 -266 58 -380 99 -233 86 -276 110 -328 188
-37 55 -68 70 -96 48 -18 -16 -18 -63 1 -99 40 -78 197 -169 410 -239 155 -51
191 -60 303 -76 52 -8 96 -17 99 -19 9 -10 20 -131 14 -155 l-6 -23 -1084 1
c-596 0 -1086 2 -1090 4 -23 13 -1077 19 -2741 16 -1064 -2 -2020 -4 -2125 -3
-193 1 -240 4 -700 48 -397 38 -508 33 -530 -24 -13 -33 18 -40 250 -56 247
-16 371 -27 615 -52 100 -10 244 -16 405 -16 3214 6 4276 3 4765 -10 582 -15
2079 -13 2184 3 32 5 63 7 67 4 13 -8 10 -67 -4 -86 -7 -9 -49 -40 -93 -70
-47 -31 -146 -119 -247 -218 -162 -159 -167 -166 -167 -205 0 -53 11 -67 46
-63 23 2 38 16 68 61 36 55 372 397 389 397 4 0 4 -64 0 -142 -4 -79 -8 -263
-8 -410 0 -261 1 -268 22 -289 28 -28 66 -20 81 18 30 74 35 137 44 528 4 226
11 420 13 432 8 34 39 46 79 32 18 -7 45 -9 59 -5 34 8 46 49 23 75 -16 18
-16 21 3 52 42 69 23 113 -72 164 -42 22 -43 27 -22 128 21 105 63 408 70 512
3 50 17 152 32 229 19 104 23 146 16 170 -6 19 -6 68 -1 126 11 122 7 136 -40
149 -46 13 -72 13 -94 0z m3 -611 c-7 -57 -23 -168 -36 -248 -14 -80 -29 -201
-35 -270 -6 -69 -15 -129 -20 -134 -5 -5 -16 -6 -25 -2 -14 5 -15 23 -10 158
7 172 16 239 50 384 24 98 73 229 83 220 2 -3 -1 -51 -7 -108z m-88 -787 c-1
-23 -7 -59 -14 -79 -10 -32 -13 -34 -20 -17 -11 29 -11 89 1 120 15 40 35 25
33 -24z m101 6 c23 -17 14 -50 -24 -97 -22 -27 -32 -32 -41 -23 -15 15 -3 97
17 118 19 18 25 19 48 2z"/>
<path d="M6599 19562 c-81 -54 -204 -265 -315 -540 -50 -123 -61 -191 -40
-246 29 -76 121 -123 156 -81 14 16 6 65 -11 65 -25 0 -59 50 -59 87 0 59 65
226 167 428 67 135 123 213 142 200 15 -9 41 -102 41 -144 -1 -20 -7 -47 -15
-61 -18 -32 -18 -72 -1 -173 8 -45 20 -118 26 -162 6 -44 15 -107 20 -140 24
-161 31 -576 15 -840 -3 -55 -10 -172 -15 -260 -5 -88 -9 -437 -10 -775 0
-620 12 -967 45 -1319 7 -86 17 -230 20 -321 8 -233 23 -565 36 -770 11 -194
37 -602 44 -695 2 -33 7 -100 10 -150 3 -49 8 -117 10 -150 2 -33 6 -116 10
-185 3 -69 11 -177 17 -241 8 -89 8 -124 -2 -153 -10 -30 -9 -41 3 -59 11 -17
16 -76 21 -242 4 -121 9 -227 11 -235 2 -8 11 -123 20 -256 9 -133 20 -256 25
-275 13 -46 12 -82 -2 -102 -16 -20 -226 -27 -818 -28 -638 0 -971 25 -1310
99 -41 9 -84 17 -95 17 -19 0 -69 11 -285 61 -125 29 -168 41 -322 88 -64 20
-125 36 -136 36 -47 0 -69 -62 -33 -94 10 -9 61 -26 112 -37 52 -10 119 -26
149 -35 30 -9 102 -27 160 -40 58 -14 130 -31 160 -39 30 -8 136 -30 235 -50
439 -85 590 -97 1265 -102 498 -4 664 1 887 23 51 6 51 6 58 -26 4 -18 4 -51
1 -73 -9 -59 50 -542 106 -862 5 -33 12 -145 15 -250 4 -166 2 -197 -14 -250
-14 -46 -24 -61 -40 -63 -31 -5 -369 337 -438 444 -61 94 -99 118 -144 93 -48
-27 -40 -55 36 -128 37 -36 93 -95 123 -130 57 -66 290 -279 350 -321 19 -13
69 -53 110 -88 41 -35 95 -76 120 -90 25 -14 56 -34 69 -44 31 -24 66 -23 123
5 158 75 342 508 419 990 18 111 20 139 9 152 -7 8 -18 15 -25 15 -21 0 -52
-46 -59 -87 -25 -135 -114 -451 -170 -598 -77 -202 -163 -348 -227 -381 -39
-20 -57 -13 -163 61 -78 55 -88 71 -57 96 62 50 92 237 71 439 -12 114 -33
280 -50 395 -4 33 -20 155 -34 270 -14 116 -33 249 -41 296 -26 149 -27 149
131 149 58 0 181 4 273 10 225 13 580 27 1101 45 825 27 885 30 1200 45 113 5
315 12 450 15 135 3 306 7 380 10 172 6 518 14 925 20 476 7 806 14 935 20 63
3 248 7 410 10 162 3 367 7 455 10 88 3 736 7 1440 10 704 3 1375 8 1490 10
285 6 1702 6 2005 0 1126 -20 1858 -19 2670 4 278 9 1651 6 1860 -3 399 -17
635 -25 870 -26 269 -2 864 -26 1010 -41 63 -6 149 -13 190 -15 41 -1 109 -7
150 -12 213 -28 740 -67 770 -57 28 9 37 51 16 74 -15 16 -41 19 -219 25 -206
7 -496 25 -802 50 -93 8 -179 14 -190 15 -11 0 -49 3 -85 5 -254 19 -855 39
-1870 64 -407 10 -1374 9 -1915 -2 -706 -14 -2212 -10 -2800 9 -217 7 -746 7
-1745 1 -503 -3 -1369 -9 -1925 -12 -555 -3 -1080 -7 -1165 -9 -85 -3 -360 -9
-610 -15 -250 -5 -549 -12 -665 -15 -115 -3 -361 -7 -545 -10 -519 -8 -1406
-36 -1885 -60 -134 -6 -394 -15 -590 -21 -88 -2 -221 -6 -295 -8 -74 -3 -223
-7 -330 -11 -223 -6 -465 -15 -560 -19 -36 -2 -123 -7 -195 -10 -71 -4 -178
-12 -238 -18 -74 -8 -111 -8 -118 -1 -5 5 -12 68 -14 139 -2 71 -13 275 -25
454 -12 179 -22 366 -23 415 l-2 90 44 3 c25 2 76 -5 115 -14 58 -15 113 -18
306 -18 246 0 328 4 550 29 74 8 272 17 440 20 168 4 384 12 480 20 96 8 229
17 295 20 223 11 489 36 690 65 541 78 949 163 1026 214 49 33 56 66 31 158
-24 89 -39 184 -47 303 -3 50 -10 146 -15 215 -6 69 -15 204 -20 300 -11 187
-35 423 -50 480 -10 39 -31 214 -55 460 -9 91 -30 273 -45 405 -16 132 -34
303 -40 380 -21 291 -43 470 -86 715 -19 107 -36 205 -38 217 -2 13 2 30 9 39
10 15 20 15 82 4 52 -8 218 -10 624 -6 814 9 1024 14 1329 31 151 8 401 22
555 30 154 9 323 22 375 30 138 22 265 30 257 18 -4 -6 -35 -20 -69 -33 -154
-56 -258 -125 -289 -194 -43 -94 -15 -145 116 -221 50 -29 92 -59 93 -69 7
-32 -86 -86 -146 -86 -65 0 -252 112 -252 152 0 9 11 34 25 54 32 46 32 80 0
126 -28 42 -53 53 -99 44 -56 -11 -78 -44 -80 -123 l-1 -68 -35 -3 c-47 -3
-87 23 -141 94 -77 101 -148 116 -257 54 -60 -35 -102 -102 -133 -216 -22 -82
-20 -125 8 -156 16 -18 54 -16 81 5 28 22 49 85 56 162 7 88 25 123 69 139 38
14 69 -4 116 -68 70 -95 156 -127 273 -102 37 8 40 7 106 -55 38 -35 101 -82
142 -103 94 -50 159 -53 244 -12 66 32 136 107 136 145 0 50 -51 114 -118 147
-43 20 -105 62 -113 76 -14 22 15 70 62 108 52 41 240 137 286 146 20 4 33 0
44 -13 18 -20 89 -184 89 -204 0 -7 -11 -22 -24 -34 -36 -30 -41 -60 -16 -85
18 -18 29 -20 60 -15 l39 7 21 -74 c47 -160 81 -216 114 -189 25 21 19 85 -15
162 -45 104 -42 112 61 126 118 15 230 40 246 54 8 6 14 24 14 40 0 42 -32 46
-180 23 -69 -10 -147 -19 -175 -19 l-49 0 -21 70 c-25 79 -46 125 -82 173 -13
17 -21 37 -17 43 5 8 174 10 593 8 473 -3 598 -1 649 10 37 8 67 10 72 5 13
-13 38 -369 45 -629 3 -121 13 -328 21 -460 24 -363 18 -985 -11 -1390 -24
-319 -64 -749 -90 -960 -13 -110 -21 -213 -18 -230 8 -45 40 -73 89 -81 44 -6
298 8 489 28 55 5 354 14 665 18 618 8 1143 29 1515 61 457 38 522 41 1043 41
l522 -1 11 22 c7 11 21 59 33 107 20 82 21 107 21 775 0 562 3 727 17 890 9
110 19 360 22 555 3 195 11 407 17 470 14 146 13 522 -2 607 -11 61 -10 66 10
86 20 20 32 22 227 24 113 1 303 9 422 17 120 9 316 20 437 26 121 6 231 12
245 15 14 2 79 9 145 15 353 31 571 53 755 75 551 65 1348 125 1679 125 80 0
82 -1 92 -27 12 -30 7 -145 -14 -363 -7 -71 -14 -294 -15 -520 -1 -217 -4
-435 -7 -485 -3 -49 -7 -128 -10 -175 -21 -378 -62 -664 -145 -1005 -72 -296
-121 -562 -127 -691 -6 -114 -5 -124 17 -163 50 -87 135 -103 535 -99 160 2
378 -3 485 -9 107 -7 440 -15 740 -18 680 -7 776 -11 1070 -40 348 -36 372
-40 471 -91 56 -28 70 -27 94 10 13 19 14 29 6 45 -17 30 -117 71 -201 81 -41
5 -106 14 -145 20 -253 39 -776 68 -1275 71 -190 1 -379 3 -420 4 -250 8 -415
17 -424 23 -6 4 -184 7 -396 7 -517 1 -494 -10 -460 223 24 170 65 379 120
608 74 310 120 609 140 919 13 212 28 709 29 965 1 113 5 241 11 285 42 332
39 406 -18 467 -34 36 -44 40 -107 48 -72 10 -233 6 -485 -10 -80 -5 -201 -12
-270 -15 -163 -8 -548 -41 -720 -61 -285 -33 -469 -53 -750 -79 -91 -8 -232
-22 -315 -30 -82 -7 -242 -19 -355 -25 -113 -6 -311 -17 -440 -25 -130 -8
-292 -15 -360 -15 -209 -1 -318 -13 -343 -38 -23 -24 -22 5 -17 -452 2 -139
-2 -270 -9 -320 -6 -47 -16 -287 -21 -535 -6 -283 -15 -507 -26 -605 -14 -133
-15 -226 -9 -650 7 -545 -3 -817 -34 -899 -15 -41 -20 -46 -46 -45 -480 20
-1005 12 -1325 -21 -307 -32 -1066 -63 -1665 -69 -424 -4 -551 -10 -968 -48
-95 -8 -131 -8 -139 0 -8 8 -7 37 5 109 18 106 50 409 67 643 6 80 13 159 15
175 11 69 34 466 40 685 11 390 8 722 -9 965 -9 127 -21 354 -26 505 -13 344
-40 615 -64 638 -13 14 -34 17 -99 15 -45 -1 -309 -2 -587 -2 -278 0 -577 -5
-665 -11 -88 -6 -194 -13 -235 -15 -41 -3 -223 -14 -405 -25 -937 -56 -1188
-65 -2125 -75 -347 -3 -605 -2 -667 5 -57 5 -109 7 -117 4 -39 -15 -35 -73 34
-464 16 -96 37 -260 46 -365 14 -177 45 -490 64 -650 5 -38 24 -227 44 -420
20 -192 40 -370 46 -395 19 -89 39 -268 50 -445 35 -610 51 -782 81 -881 11
-34 17 -69 13 -77 -7 -20 -40 -32 -139 -51 -44 -9 -123 -25 -175 -36 -385 -84
-948 -158 -1365 -180 -115 -6 -244 -15 -285 -21 -41 -6 -212 -12 -380 -15
-173 -3 -404 -13 -535 -24 -328 -28 -576 -33 -774 -17 -91 8 -181 14 -200 14
-18 0 -37 6 -42 14 -4 7 -7 54 -7 104 1 49 -4 180 -11 290 -23 394 -41 683
-51 840 -10 158 -15 240 -45 785 -17 304 -39 686 -58 1000 -8 140 -12 547 -12
1290 1 1040 2 1085 19 1088 33 7 41 -14 21 -51 -17 -33 -17 -35 1 -73 13 -27
27 -40 44 -42 14 -2 33 -11 43 -20 10 -9 72 -39 137 -68 119 -51 320 -160 435
-235 33 -21 80 -51 105 -66 59 -35 286 -198 328 -234 44 -39 109 -71 135 -67
15 2 23 11 25 29 4 34 -24 58 -298 256 -372 270 -661 434 -825 469 -25 6 -40
15 -40 24 0 20 59 47 121 54 62 7 165 44 219 78 45 28 190 98 204 98 5 0 42
15 83 34 145 66 232 88 331 84 l72 -3 3 59 c6 114 -41 122 -243 42 -66 -27
-219 -96 -340 -154 l-220 -107 -91 -3 c-66 -3 -100 0 -127 12 -37 15 -37 16
-36 68 1 45 -16 252 -36 428 -26 232 -14 427 30 491 40 57 29 99 -26 99 -18 0
-35 -9 -47 -25 -39 -50 -55 -231 -40 -455 4 -58 4 -96 -1 -85 -15 35 -31 155
-46 333 -8 94 -19 181 -25 192 -11 21 -59 50 -82 50 -7 0 -25 -8 -39 -18z
m241 -972 c4 -36 11 -72 14 -81 7 -15 -27 -69 -37 -59 -7 8 -10 65 -8 165 3
102 16 91 31 -25z m90 -225 c0 -8 -6 -15 -14 -15 -17 0 -28 14 -19 24 12 12
33 6 33 -9z m6286 -1742 c-10 -10 -19 5 -10 18 6 11 8 11 12 0 2 -7 1 -15 -2
-18z"/>
<path d="M6847 18144 c-4 -4 -7 -60 -7 -125 0 -173 37 -332 90 -389 32 -34 72
-39 108 -14 33 23 28 52 -12 69 -19 8 -43 27 -53 42 -40 58 -41 67 -71 353 -6
55 -10 65 -27 68 -12 2 -24 0 -28 -4z"/>
<path d="M7078 18048 c-5 -13 9 -80 36 -170 18 -64 46 -89 73 -67 11 10 13 23
9 50 -6 35 -51 159 -69 187 -10 15 -44 16 -49 0z"/>
<path d="M11908 16737 c-101 -38 -225 -141 -253 -210 -26 -64 -24 -144 3 -189
30 -49 58 -65 155 -90 69 -17 100 -19 197 -14 116 6 258 34 308 60 40 21 64
51 60 78 -2 19 -9 23 -38 22 -19 -1 -69 -14 -110 -29 -69 -25 -87 -28 -230
-29 -134 -1 -161 2 -198 18 -69 31 -90 92 -53 152 34 55 161 144 207 144 9 0
37 -12 63 -27 55 -30 95 -27 112 11 15 33 -2 61 -52 87 -52 26 -124 33 -171
16z"/>
<path d="M9070 16340 c-92 -16 -205 -75 -267 -141 -18 -19 -46 -64 -62 -101
-31 -66 -31 -67 -78 -73 -27 -4 -62 -11 -79 -16 -75 -23 -201 -169 -281 -325
-76 -147 -87 -194 -88 -354 0 -123 3 -142 28 -210 81 -221 193 -319 376 -328
216 -12 447 101 627 305 116 131 181 248 243 439 36 111 43 144 48 244 11 223
-60 416 -184 501 -84 58 -176 77 -283 59z m165 -101 c58 -16 135 -98 162 -174
39 -108 46 -151 40 -263 -5 -121 -35 -225 -113 -390 -124 -266 -339 -452 -585
-508 -130 -29 -243 -4 -311 69 -92 100 -140 315 -109 479 26 129 153 346 250
426 44 36 58 42 98 42 34 0 53 -6 69 -21 21 -19 27 -20 53 -9 25 10 38 9 77
-4 71 -24 110 -21 131 10 15 24 15 29 2 52 -15 27 -25 31 -138 54 -35 7 -65
18 -68 24 -11 29 82 139 148 175 77 41 215 60 294 38z"/>
<path d="M13049 16052 c-20 -17 -23 -31 -31 -148 -6 -79 -5 -204 1 -324 6
-107 13 -276 16 -375 4 -99 8 -206 10 -238 2 -31 5 -157 6 -280 2 -294 22
-580 43 -613 9 -13 20 -24 25 -24 30 0 31 30 19 631 -14 719 -16 1156 -5 1261
8 75 8 78 -17 103 -30 30 -37 31 -67 7z"/>
<path d="M17334 15962 c-210 -73 -416 -311 -506 -585 -32 -98 -33 -108 -33
-257 1 -172 13 -221 79 -317 84 -124 276 -178 454 -127 149 42 329 160 488
320 81 81 98 105 153 216 l63 124 6 112 c5 121 -4 172 -45 255 -58 117 -173
189 -323 203 -59 6 -77 12 -102 35 -48 44 -143 52 -234 21z m41 -111 c9 -29
33 -33 81 -15 68 26 212 5 318 -46 266 -127 208 -546 -111 -801 -207 -166
-342 -229 -488 -229 -116 1 -189 34 -239 111 -59 89 -72 267 -32 430 53 214
186 409 354 519 82 54 107 61 117 31z"/>
<path d="M21393 15950 c-12 -5 -26 -18 -32 -29 -7 -13 -11 -148 -11 -393 0
-432 -9 -598 -45 -833 -14 -94 -28 -212 -32 -262 -5 -82 -4 -93 11 -99 39 -15
52 17 86 225 12 69 23 128 25 131 2 4 13 70 24 147 15 103 25 260 36 579 18
536 18 509 -1 528 -17 18 -29 19 -61 6z"/>
<path d="M5199 15847 c-34 -26 -49 -74 -49 -160 0 -97 22 -253 44 -316 30 -84
27 -91 -77 -159 -101 -65 -136 -113 -123 -166 15 -59 85 -38 131 39 30 52 102
100 122 83 7 -6 13 -25 13 -42 0 -93 93 -336 129 -336 35 0 40 27 19 109 -26
106 -45 166 -76 240 l-26 64 21 17 c12 9 50 23 85 29 35 7 77 17 93 21 54 15
135 22 135 12 0 -5 -25 -40 -56 -78 -66 -80 -74 -98 -74 -165 0 -66 30 -99 90
-99 58 0 109 30 172 100 30 33 59 60 65 60 6 0 26 -22 45 -50 63 -90 141 -133
176 -98 22 22 13 47 -26 75 -50 37 -102 96 -137 156 -35 60 -68 85 -91 66 -8
-7 -22 -28 -30 -48 -28 -68 -121 -161 -161 -161 -24 0 -13 46 27 108 42 65 86
102 174 147 62 31 77 57 50 86 -20 22 -83 26 -102 7 -7 -7 -66 -15 -155 -19
-94 -5 -171 -16 -229 -31 -48 -12 -90 -20 -93 -16 -12 11 -29 204 -28 306 1
75 6 109 17 127 22 34 21 82 -3 95 -26 13 -52 12 -72 -3z"/>
<path d="M4372 15838 c-14 -14 -15 -72 -2 -151 5 -32 14 -104 20 -160 6 -56
17 -127 24 -157 8 -30 19 -82 26 -115 23 -114 97 -349 152 -480 63 -153 107
-205 144 -174 21 17 13 54 -32 148 -77 160 -178 501 -203 685 -6 43 -13 81
-16 86 -2 4 -5 67 -6 141 -1 159 -11 189 -62 189 -18 0 -38 -5 -45 -12z"/>
<path d="M25081 15680 c-201 -96 -378 -298 -427 -490 -35 -137 -12 -343 51
-458 60 -109 180 -205 311 -248 80 -26 101 -29 209 -28 181 2 352 48 550 146
228 113 388 284 480 512 46 116 61 270 32 336 -67 155 -339 262 -622 245 -106
-7 -293 -38 -354 -60 -63 -22 -74 -20 -67 11 10 37 -17 64 -63 64 -20 0 -65
-14 -100 -30z m79 -90 c0 -5 -6 -10 -12 -10 -20 0 -74 -47 -65 -56 4 -4 36 -2
70 5 34 8 94 17 132 21 39 5 126 18 195 30 102 18 151 21 270 17 221 -7 352
-55 418 -153 32 -47 33 -52 29 -125 -7 -106 -51 -228 -121 -332 -132 -199
-336 -327 -656 -414 -92 -24 -315 -24 -385 0 -133 48 -242 159 -283 291 -25
80 -22 264 6 340 44 120 128 226 256 325 67 52 146 85 146 61z"/>
<path d="M2807 15579 c-9 -5 -27 -29 -38 -52 -20 -38 -21 -52 -16 -167 15
-306 109 -584 269 -798 59 -79 79 -92 152 -93 43 -1 65 4 100 25 67 39 138
113 199 207 51 79 137 238 137 253 0 4 27 57 61 117 73 132 89 176 78 207 -10
27 -49 30 -72 5 -14 -16 -115 -208 -199 -377 -45 -91 -135 -224 -183 -270 -23
-23 -61 -49 -83 -58 -75 -29 -122 12 -211 192 -105 209 -151 393 -151 604 0
78 2 86 30 122 20 25 30 47 28 63 -3 23 -8 26 -43 28 -22 2 -48 -2 -58 -8z"/>
<path d="M6506 15530 c-58 -23 -91 -51 -119 -105 -40 -77 -17 -195 52 -268 48
-51 89 -67 175 -67 74 0 116 16 116 45 0 23 -29 32 -120 39 -94 8 -120 13
-120 26 0 4 23 7 51 7 47 -2 53 1 89 39 32 34 39 51 45 98 11 85 1 134 -32
166 -38 37 -77 42 -137 20z m92 -108 c7 -49 -42 -142 -76 -142 -21 0 -72 49
-72 70 0 34 100 105 135 96 6 -1 11 -12 13 -24z"/>
<path d="M6195 15466 c-29 -13 -80 -68 -103 -113 -7 -12 -12 -42 -12 -67 0
-57 34 -101 86 -111 36 -6 36 -6 30 -48 -21 -131 -12 -340 16 -402 16 -34 46
-42 70 -17 19 19 20 26 10 163 -6 90 -7 169 -1 209 24 169 24 177 -4 195 -23
15 -30 15 -69 2 -46 -16 -58 -14 -58 8 0 19 68 73 110 86 19 7 41 16 48 22 51
41 -55 104 -123 73z"/>
<path d="M4000 15108 c-25 -13 -67 -41 -94 -63 -37 -30 -56 -38 -80 -37 -43 3
-63 -21 -76 -89 -20 -103 11 -213 81 -293 85 -97 306 -62 414 66 49 57 86 153
87 222 1 69 -14 105 -64 152 -48 45 -68 54 -150 59 -63 5 -79 3 -118 -17z
m190 -100 c47 -32 54 -67 27 -147 -28 -86 -91 -153 -167 -175 -100 -30 -112
-30 -149 2 -30 25 -35 36 -42 97 -10 81 3 110 76 169 93 77 191 97 255 54z"/>
<path d="M9693 14483 c-23 -35 -21 -107 7 -268 15 -84 20 -155 19 -238 -2 -98
1 -121 14 -135 13 -12 23 -14 44 -6 22 7 37 28 70 97 44 91 70 115 115 104 44
-11 83 -92 155 -321 30 -94 50 -119 81 -100 25 16 26 61 2 155 -83 325 -218
452 -351 332 -22 -20 -41 -34 -43 -32 -7 9 -23 308 -19 355 4 38 1 55 -12 67
-25 26 -62 21 -82 -10z"/>
<path d="M7608 14280 c-43 -26 -46 -153 -6 -274 10 -32 18 -65 16 -74 -2 -9
-33 -24 -83 -38 -151 -46 -255 -130 -255 -209 0 -48 13 -65 50 -65 29 0 54 22
64 57 12 39 80 89 165 122 46 17 88 31 95 31 16 0 43 -56 51 -105 9 -53 50
-144 70 -151 8 -4 22 0 31 7 22 18 13 93 -20 158 -30 58 -34 106 -10 115 41
16 83 6 120 -29 l37 -35 -6 -172 c-6 -151 -4 -174 10 -190 22 -25 60 -22 86 6
12 13 42 61 66 106 46 86 95 150 115 150 7 0 25 -40 39 -90 32 -106 86 -181
159 -218 119 -61 219 42 205 212 -5 62 -19 102 -58 168 -26 42 -22 53 15 44
34 -8 52 -39 76 -122 64 -222 191 -216 310 15 27 53 65 121 85 151 42 65 46
123 8 128 -38 6 -94 -58 -156 -177 -69 -131 -100 -171 -132 -171 -19 0 -27 10
-44 55 -12 31 -21 63 -21 73 -1 42 -39 101 -82 126 -56 32 -79 33 -116 1 -17
-14 -36 -25 -44 -25 -20 0 -38 -21 -38 -42 0 -11 20 -40 44 -66 24 -26 49 -64
56 -86 22 -67 -9 -188 -50 -201 -54 -17 -133 106 -161 249 -13 71 -32 96 -72
96 -42 0 -91 -40 -154 -126 l-48 -66 -5 99 c-6 109 -15 136 -57 175 -44 42
-107 61 -180 53 -57 -6 -62 -5 -73 16 -24 43 -31 159 -15 222 10 40 12 64 5
77 -16 29 -59 39 -92 20z"/>
<path d="M9316 14153 c-7 -16 -22 -57 -31 -93 -31 -115 -72 -160 -97 -106 -23
51 -68 38 -68 -19 0 -30 42 -97 73 -117 43 -28 123 34 145 112 19 67 33 100
43 100 12 0 35 -90 54 -210 10 -66 16 -161 16 -254 -2 -209 -30 -333 -85 -372
-73 -51 -72 -51 -54 -70 21 -21 89 -21 127 2 148 87 155 644 13 964 -27 61
-56 90 -92 90 -22 0 -33 -7 -44 -27z"/>
<path d="M25475 12336 c-15 -22 -15 -28 -2 -53 20 -38 49 -63 132 -113 68 -41
346 -179 590 -294 172 -82 330 -173 360 -208 27 -31 26 -59 0 -87 -7 -7 -91
-39 -186 -71 -373 -124 -621 -244 -830 -404 -105 -80 -151 -145 -130 -185 19
-35 40 -25 110 50 138 150 448 313 841 442 223 73 283 104 304 157 22 55 20
70 -12 119 -49 73 -238 187 -522 316 -202 92 -229 105 -355 174 -81 45 -139
85 -178 124 -65 64 -97 72 -122 33z"/>
<path d="M27570 11441 c-15 -4 -32 -20 -42 -41 -21 -42 -58 -360 -58 -492 0
-106 -10 -121 -97 -138 -92 -18 -226 -68 -245 -91 -23 -27 -23 -42 2 -64 28
-25 76 -15 192 40 52 25 103 45 112 45 27 0 29 -25 13 -113 -68 -360 -68 -361
-25 -355 48 7 89 136 108 337 14 155 15 157 51 170 40 14 263 14 366 1 243
-33 305 -101 328 -363 7 -66 22 -97 50 -97 68 0 57 233 -17 372 -30 57 -91
117 -133 132 -154 56 -403 80 -534 51 -43 -9 -78 -12 -83 -7 -13 13 39 412 64
494 28 92 9 134 -52 119z"/>
<path d="M28238 11200 c-82 -44 -123 -134 -78 -175 29 -26 66 -13 89 34 11 21
35 51 53 66 42 35 52 60 32 80 -20 20 -51 18 -96 -5z"/>
<path d="M29464 10956 c-35 -16 -131 -130 -210 -251 -52 -79 -94 -125 -117
-125 -6 0 -7 40 -3 113 12 192 -18 267 -107 267 -95 0 -201 -111 -320 -334
-89 -167 -116 -168 -82 -4 9 40 13 83 10 95 -11 47 -73 53 -96 11 -13 -24 -16
-225 -5 -304 9 -62 37 -98 69 -88 34 10 62 42 107 124 23 41 57 98 75 125 160
247 182 275 215 275 32 0 40 -38 40 -195 0 -140 1 -144 26 -174 20 -24 34 -31
61 -31 32 0 45 9 107 73 42 44 95 114 130 173 58 99 92 144 108 144 11 0 10
-64 -3 -175 -26 -217 34 -325 191 -349 73 -11 169 8 254 50 l77 38 52 -17 c28
-9 66 -19 82 -22 17 -3 64 -12 105 -20 92 -18 162 -19 178 -3 19 19 14 56 -10
72 -14 9 -82 21 -162 30 -77 8 -144 20 -149 25 -10 10 -4 21 54 107 39 58 79
183 79 247 0 91 -53 137 -157 137 -104 0 -181 -32 -260 -108 -67 -65 -95 -120
-101 -204 -4 -62 -3 -70 23 -100 15 -18 43 -43 63 -55 41 -25 59 -50 45 -64
-5 -5 -39 -12 -76 -16 -74 -7 -140 12 -173 48 -22 24 -25 116 -11 326 8 123 8
123 -17 148 -28 28 -47 30 -92 11z m638 -93 c33 -30 19 -106 -44 -228 -45 -90
-75 -125 -104 -125 -62 0 -154 81 -154 136 0 30 27 93 57 132 29 39 151 102
197 102 16 0 38 -7 48 -17z"/>
</g>
</svg>
