<?xml version="1.0" standalone="no"?>
<!DOCTYPE svg PUBLIC "-//W3C//DTD SVG 20010904//EN"
 "http://www.w3.org/TR/2001/REC-SVG-20010904/DTD/svg10.dtd">
<svg version="1.0" xmlns="http://www.w3.org/2000/svg"
 width="3264.000000pt" height="2448.000000pt" viewBox="0 0 3264.000000 2448.000000"
 preserveAspectRatio="xMidYMid meet">
<metadata>
Created by potrace 1.12, written by Peter Selinger 2001-2015
</metadata>
<g transform="translate(0.000000,2448.000000) scale(0.100000,-0.100000)"
fill="#000000" stroke="none">
<path d="M31420 24361 c0 -5 7 -12 16 -15 14 -5 15 -4 4 9 -14 17 -20 19 -20
6z"/>
<path d="M31254 24348 c-4 -5 -2 -14 4 -20 8 -8 20 -5 43 10 l32 20 -36 0
c-21 0 -40 -4 -43 -10z"/>
<path d="M31348 24343 c7 -3 16 -2 19 1 4 3 -2 6 -13 5 -11 0 -14 -3 -6 -6z"/>
<path d="M31155 24320 c-8 -13 5 -13 25 0 13 8 13 10 -2 10 -9 0 -20 -4 -23
-10z"/>
<path d="M13677 23527 c-22 -17 -23 -30 -9 -132 17 -131 30 -260 44 -435 19
-223 15 -1036 -6 -1530 -9 -223 -19 -481 -21 -575 -3 -93 -8 -287 -11 -430 -4
-143 -5 -280 -4 -305 4 -51 2 -218 -5 -520 -11 -448 -1 -1433 15 -1510 6 -25
10 -92 9 -150 -2 -121 5 -250 21 -400 6 -58 10 -125 7 -150 -2 -25 2 -79 9
-120 7 -41 12 -100 12 -130 0 -30 6 -192 15 -360 8 -168 16 -332 17 -365 2
-84 7 -177 19 -345 6 -80 12 -174 13 -210 0 -36 9 -150 20 -255 11 -104 23
-239 28 -300 5 -60 13 -141 19 -180 6 -38 10 -101 11 -138 0 -38 5 -77 11 -89
6 -11 12 -64 14 -118 2 -54 9 -118 15 -141 6 -23 10 -63 9 -88 -1 -25 1 -62 5
-81 4 -19 9 -69 11 -110 3 -66 17 -286 31 -495 2 -38 4 -107 4 -151 -1 -45 3
-108 9 -140 6 -33 13 -124 15 -204 3 -80 8 -185 11 -235 4 -49 8 -124 10 -165
9 -209 53 -788 60 -800 2 -4 5 -52 6 -106 0 -54 5 -124 10 -154 9 -53 28 -240
34 -325 1 -22 7 -80 14 -130 21 -155 39 -297 51 -395 6 -52 16 -133 22 -180 6
-47 12 -105 14 -130 7 -77 23 -212 33 -274 5 -33 7 -72 4 -88 -3 -15 0 -49 6
-74 7 -26 14 -97 16 -158 3 -61 10 -130 16 -154 7 -23 9 -57 6 -76 -3 -19 1
-65 9 -103 8 -40 15 -132 15 -223 1 -85 5 -171 9 -190 5 -19 11 -127 15 -240
3 -113 10 -252 15 -309 5 -57 8 -106 6 -110 -2 -3 0 -31 5 -61 5 -30 11 -113
14 -185 3 -71 12 -175 19 -230 8 -55 20 -170 26 -255 6 -85 16 -175 21 -199 5
-24 14 -96 20 -160 5 -64 12 -127 14 -141 2 -14 8 -92 14 -175 6 -82 15 -195
19 -250 5 -55 9 -111 9 -125 -1 -73 24 -556 32 -625 5 -44 9 -98 8 -120 0 -22
8 -134 17 -250 9 -115 21 -259 26 -320 5 -60 15 -157 23 -215 8 -58 15 -114
15 -125 5 -72 11 -126 21 -163 6 -23 11 -55 10 -70 -1 -15 3 -45 9 -67 6 -23
8 -57 3 -80 -4 -22 -3 -58 2 -80 9 -41 25 -166 32 -245 4 -41 8 -115 19 -340
2 -47 9 -97 14 -111 7 -17 8 -59 3 -113 -5 -50 -4 -107 1 -134 6 -26 11 -112
13 -192 1 -80 6 -181 10 -225 5 -44 8 -87 7 -95 -6 -63 -2 -182 6 -212 6 -24
7 -53 1 -79 -5 -22 -6 -45 -3 -51 14 -22 19 -233 8 -329 -4 -27 -1 -56 6 -68
9 -18 24 -185 20 -228 -5 -55 9 -143 22 -143 6 0 8 12 5 29 -3 15 -1 33 5 39
6 6 7 20 2 33 -11 33 -15 136 -12 284 0 39 -3 133 -7 210 -4 77 -8 156 -9 175
-1 19 -5 43 -10 53 -5 10 -3 29 4 47 8 20 10 49 5 87 -4 32 -9 141 -10 242 -2
131 -7 186 -15 191 -9 6 -10 16 -4 36 10 29 9 188 -2 409 -16 339 -25 474 -35
515 -6 25 -12 74 -14 110 -8 172 -16 294 -21 301 -2 4 -11 79 -19 166 -9 87
-18 165 -20 173 -3 9 -7 60 -10 115 -3 55 -9 138 -14 185 -5 47 -15 177 -21
290 -5 113 -14 228 -19 255 -5 28 -8 77 -6 110 2 33 -1 83 -5 110 -5 28 -11
133 -15 235 -3 102 -8 210 -10 240 -3 30 -7 87 -9 125 -14 235 -39 549 -51
665 -8 74 -22 198 -30 275 -8 77 -19 183 -25 235 -6 52 -15 156 -20 230 -5 74
-14 196 -19 270 -6 74 -17 311 -26 525 -9 215 -20 424 -25 465 -6 41 -15 131
-20 200 -15 193 -38 436 -60 640 -11 102 -23 210 -26 240 -2 30 -9 84 -15 120
-5 36 -13 108 -18 160 -5 52 -22 214 -39 360 -46 406 -81 803 -102 1145 -25
421 -31 519 -40 655 -12 165 -29 467 -35 615 -3 55 -9 147 -14 205 -6 58 -18
213 -27 345 -16 248 -31 406 -94 985 -21 198 -34 356 -50 620 -6 102 -15 241
-20 310 -6 69 -12 213 -16 320 -3 107 -10 267 -14 355 -17 304 -29 501 -39
650 -22 309 -29 632 -30 1415 -1 660 1 809 12 824 11 15 22 17 68 12 197 -23
453 -28 1499 -29 1085 -2 1349 1 1985 23 242 9 686 31 900 45 44 3 130 7 190
10 61 3 196 9 300 15 260 14 936 30 978 23 21 -3 45 1 65 11 26 14 32 23 32
50 0 18 -6 38 -12 44 -22 17 -77 24 -110 13 -18 -5 -127 -12 -243 -15 -265 -6
-638 -23 -820 -36 -217 -16 -454 -32 -520 -36 -33 -1 -141 -7 -240 -13 -244
-15 -355 -20 -590 -26 -110 -3 -240 -8 -290 -10 -475 -24 -3168 -25 -3192 -1
-9 8 -8 68 7 651 5 204 12 516 16 695 4 179 10 404 14 500 4 96 6 384 5 640
-2 406 -6 500 -28 741 -25 276 -36 329 -71 342 -8 3 -21 0 -29 -6z"/>
<path d="M30180 23445 c-10 -12 -10 -15 3 -15 19 0 31 16 18 24 -5 3 -14 -1
-21 -9z"/>
<path d="M4186 22723 c-26 -25 -53 -58 -61 -72 -7 -14 -41 -54 -73 -88 -33
-35 -71 -81 -84 -103 -19 -34 -64 -101 -158 -240 -9 -14 -25 -41 -35 -60 -9
-19 -25 -44 -35 -55 -19 -22 -118 -206 -188 -350 -72 -147 -152 -316 -152
-321 0 -2 -9 -23 -19 -47 -60 -131 -129 -318 -138 -375 -3 -20 1 -41 11 -57
14 -22 21 -23 64 -18 33 4 74 -1 130 -16 109 -28 125 -27 156 10 20 24 24 34
16 49 -15 29 -27 33 -109 35 -42 2 -86 3 -97 4 -36 2 -36 27 0 144 76 246 212
566 311 732 24 39 61 106 84 150 23 44 54 101 69 126 15 26 42 72 60 103 18
31 42 66 53 78 19 23 84 119 126 187 13 20 23 48 23 62 0 19 9 31 35 45 51 27
62 11 75 -111 7 -55 18 -135 26 -177 8 -43 21 -115 29 -159 8 -45 31 -146 50
-225 19 -78 35 -149 35 -158 0 -22 18 -29 63 -28 48 2 54 7 37 27 -12 14 -32
116 -70 349 -11 66 -22 126 -25 134 -11 28 -55 324 -55 368 0 73 -22 104 -76
104 -23 0 -42 -11 -78 -47z"/>
<path d="M8233 22255 c-12 -8 -27 -32 -34 -52 -13 -41 -39 -85 -116 -196 -29
-42 -53 -78 -53 -81 0 -3 -26 -45 -59 -93 -32 -49 -70 -108 -85 -133 -15 -25
-45 -70 -67 -100 -22 -30 -79 -113 -126 -185 -48 -71 -117 -170 -155 -219 -37
-49 -75 -106 -84 -125 -9 -20 -31 -61 -49 -91 -44 -74 -51 -110 -27 -140 15
-18 24 -21 49 -16 43 10 57 28 113 154 48 109 111 213 208 342 51 69 118 170
223 338 120 192 129 207 199 339 68 129 99 125 111 -14 14 -177 59 -471 86
-567 16 -55 16 -59 0 -71 -9 -6 -63 -15 -119 -18 -126 -8 -191 -19 -333 -58
-195 -54 -215 -65 -215 -122 0 -56 42 -57 190 -2 66 24 176 52 310 79 41 8 97
24 123 35 27 12 58 19 70 15 20 -4 22 -12 24 -80 1 -41 9 -95 18 -120 8 -24
15 -67 15 -94 0 -27 4 -61 10 -75 8 -22 15 -26 42 -23 43 4 56 39 41 106 -33
144 -53 240 -53 262 0 14 11 38 25 54 30 35 28 50 -8 54 -14 2 -30 9 -36 16
-6 7 -17 62 -26 122 -8 60 -26 186 -39 279 -14 94 -32 226 -41 295 -19 150
-37 194 -80 198 -16 1 -40 -4 -52 -13z"/>
<path d="M10818 21842 c-150 -161 -173 -189 -270 -337 -37 -55 -80 -116 -97
-136 -33 -39 -151 -300 -151 -335 0 -11 6 -29 14 -39 12 -17 18 -18 55 -7 47
15 57 29 102 160 17 48 35 92 40 98 20 24 167 48 429 70 47 4 105 13 128 20
75 22 71 28 97 -169 18 -137 16 -163 -17 -208 l-22 -29 22 -22 c29 -30 68 -16
94 33 23 44 27 188 8 288 -15 81 -15 89 -6 127 6 26 2 37 -18 59 -14 15 -28
35 -30 44 -3 9 -14 48 -25 86 -39 141 -124 401 -139 423 -10 15 -24 22 -46 22
-27 -1 -49 -19 -168 -148z m159 -38 c9 -15 27 -65 39 -113 12 -47 38 -123 57
-168 30 -70 33 -85 22 -100 -10 -14 -23 -16 -61 -13 -27 3 -101 3 -164 1 -253
-7 -244 -8 -248 12 -2 11 27 58 74 120 43 56 81 104 84 107 3 3 36 42 74 87
86 104 95 109 123 67z"/>
<path d="M4180 21780 c-172 -26 -298 -56 -410 -97 -139 -52 -170 -69 -170 -96
0 -53 36 -59 136 -21 149 56 263 92 359 113 137 31 232 61 258 82 46 37 -12
43 -173 19z"/>
<path d="M4447 21705 c-18 -18 -12 -49 44 -225 59 -186 99 -343 93 -367 -3
-11 -1 -30 6 -42 9 -17 14 -19 30 -11 35 19 27 83 -46 390 -46 196 -53 221
-70 248 -17 26 -36 28 -57 7z"/>
<path d="M5769 21240 c-9 -5 -61 -18 -115 -29 -55 -10 -146 -33 -204 -51 -58
-18 -120 -36 -138 -41 -48 -15 -301 -111 -427 -163 -133 -55 -161 -83 -139
-140 16 -41 39 -37 166 27 143 74 297 136 548 224 25 8 61 24 81 34 53 27 141
59 162 59 11 0 17 -8 17 -21 0 -21 -8 -34 -112 -184 -160 -232 -186 -356 -95
-453 93 -98 370 -95 662 8 50 18 151 63 227 101 104 53 151 83 197 128 59 57
81 92 44 71 -10 -5 -56 -27 -103 -50 -47 -22 -101 -49 -120 -60 -38 -21 -125
-60 -135 -60 -4 0 -21 -7 -38 -14 -120 -55 -283 -86 -455 -86 -165 0 -212 22
-212 97 0 58 71 189 236 435 62 91 74 131 48 159 -18 20 -68 25 -95 9z"/>
<path d="M9197 21068 c-32 -25 -40 -64 -71 -343 -18 -158 -16 -386 3 -409 40
-48 85 17 75 109 -3 28 -1 82 5 120 28 204 53 354 66 399 20 68 19 83 -10 111
-27 28 -43 31 -68 13z"/>
<path d="M11639 21016 c-26 -7 -52 -17 -58 -21 -7 -4 -33 -12 -59 -18 -43 -11
-49 -16 -74 -67 -36 -74 -52 -157 -45 -235 7 -77 26 -125 71 -180 75 -91 176
-132 357 -142 163 -9 282 20 424 104 143 85 178 157 139 289 -25 88 -66 132
-173 188 -144 74 -200 88 -381 92 -109 2 -169 -1 -201 -10z m346 -107 c104
-22 201 -66 241 -111 61 -68 82 -148 53 -197 -19 -30 -111 -85 -195 -117 -85
-32 -233 -43 -315 -24 -71 17 -162 64 -203 104 -54 54 -71 150 -40 231 8 22
20 56 26 75 5 19 12 37 15 40 7 8 117 17 223 18 64 1 129 -5 195 -19z"/>
<path d="M1275 20309 c-153 -15 -218 -29 -252 -55 -34 -26 -43 -60 -21 -82 15
-15 75 -16 84 -1 15 26 93 48 189 54 85 6 312 -4 450 -20 22 -3 94 -7 160 -10
66 -3 185 -10 265 -15 80 -5 188 -12 240 -15 52 -3 172 -10 265 -16 388 -23
506 -29 728 -39 127 -5 264 -12 302 -15 39 -2 153 -7 255 -10 102 -4 277 -10
390 -15 113 -4 301 -9 419 -10 118 0 217 -2 220 -4 3 -2 137 -6 296 -10 160
-3 333 -8 385 -11 82 -5 418 -17 825 -30 66 -2 242 -7 390 -10 149 -4 274 -10
279 -13 5 -3 680 -7 1500 -8 820 -2 1653 -5 1851 -8 1007 -14 1279 -18 1725
-27 553 -11 729 -16 990 -29 211 -11 365 -13 398 -4 42 12 21 38 -44 55 -58
16 -264 32 -374 29 -30 0 -179 4 -330 9 -151 6 -459 13 -685 16 -225 3 -522 7
-660 10 -137 3 -448 7 -690 10 -242 3 -530 8 -640 11 -193 5 -763 6 -1860 1
-565 -2 -969 2 -1165 14 -69 4 -278 10 -465 13 -187 4 -380 11 -430 15 -49 5
-164 10 -254 10 -91 1 -168 4 -171 6 -4 2 -114 7 -246 10 -131 3 -270 7 -309
10 -122 8 -400 15 -739 20 -180 3 -331 7 -335 9 -4 3 -94 7 -201 10 -331 10
-453 15 -505 21 -27 3 -111 7 -185 10 -74 3 -230 12 -345 20 -116 8 -271 18
-345 21 -74 3 -202 10 -285 15 -82 5 -238 14 -345 19 -107 6 -206 13 -218 15
-75 18 -413 33 -507 24z"/>
<path d="M26945 20234 c-216 -15 -374 -31 -435 -44 -25 -5 -64 -9 -88 -10 -93
-1 -149 -54 -107 -100 23 -25 53 -25 102 -1 73 37 178 62 243 57 33 -3 62 0
65 5 4 5 14 9 25 9 14 0 17 -5 12 -22 -4 -18 -2 -20 14 -13 10 4 30 10 44 12
14 3 32 7 40 10 33 11 122 13 159 3 28 -7 47 -7 68 1 15 7 53 13 83 15 88 3
211 14 265 23 28 5 66 9 85 10 19 1 49 4 65 8 l30 6 -30 9 c-38 12 -65 15
-195 22 -207 12 -268 12 -445 0z"/>
<path d="M21245 20023 c-89 -19 -606 -112 -765 -138 -52 -8 -105 -17 -117 -20
-53 -12 -73 -76 -30 -96 23 -10 41 -7 312 60 44 11 112 23 150 26 39 4 75 10
80 14 18 13 128 39 214 51 97 13 234 55 258 78 14 14 14 17 -3 23 -21 8 -67 9
-99 2z"/>
<path d="M24999 19976 c-2 -2 -125 -7 -274 -10 -148 -4 -290 -8 -315 -10 -25
-2 -106 -7 -180 -10 -74 -3 -166 -8 -205 -11 -182 -13 -217 -15 -324 -16 -102
-2 -116 -4 -139 -24 -23 -20 -25 -26 -14 -49 19 -43 26 -43 337 -2 61 8 164
17 230 21 142 7 479 33 515 40 14 2 104 7 200 10 156 6 324 26 338 40 6 6 -3
7 -70 10 -27 2 -59 5 -72 9 -12 3 -25 4 -27 2z"/>
<path d="M30082 19838 c-15 -18 -4 -60 23 -94 20 -24 27 -27 42 -18 10 6 19
25 21 45 3 33 -9 46 -69 77 -3 1 -11 -3 -17 -10z"/>
<path d="M24366 19734 c-3 -8 3 -66 14 -127 10 -62 19 -148 20 -192 1 -121 32
-309 71 -436 11 -36 19 -79 17 -95 -3 -29 -3 -29 -88 -36 -47 -3 -139 -16
-205 -28 -66 -12 -147 -25 -180 -31 -94 -15 -104 -18 -115 -39 -8 -15 -6 -24
10 -40 26 -26 67 -26 200 1 58 12 121 22 140 23 95 6 163 28 207 68 13 13 43
23 80 27 32 4 64 10 71 14 15 10 16 37 2 37 -21 0 -46 105 -75 313 -8 53 -16
101 -19 106 -3 5 -12 78 -21 163 -15 162 -32 228 -67 265 -25 27 -53 30 -62 7z"/>
<path d="M20767 19733 c-18 -17 -4 -66 35 -123 35 -50 42 -68 40 -103 -1 -23
7 -76 17 -117 11 -41 25 -102 31 -135 7 -33 25 -113 41 -178 16 -66 29 -134
29 -152 0 -37 -10 -43 -83 -51 -23 -2 -91 -11 -152 -20 -62 -9 -138 -14 -174
-11 -65 5 -109 -4 -123 -26 -11 -16 -10 -55 1 -61 14 -9 269 23 351 44 41 10
129 33 195 51 82 21 157 34 238 39 64 4 123 12 130 18 6 5 30 13 52 16 46 8
73 22 62 32 -9 10 -215 -13 -288 -32 -75 -19 -96 -18 -109 5 -9 18 -79 340
-101 466 -6 33 -18 74 -28 90 -9 17 -23 50 -31 75 -18 57 -47 107 -65 114 -8
3 -15 12 -15 19 0 8 -8 21 -18 30 -20 19 -26 20 -35 10z"/>
<path d="M29753 19724 c-3 -8 0 -47 6 -87 6 -40 14 -154 16 -253 4 -152 2
-184 -10 -194 -11 -9 -45 -11 -122 -6 -97 5 -329 10 -360 7 -7 -1 -20 -12 -29
-26 -16 -25 -16 -27 7 -52 l24 -25 215 6 c287 8 350 8 450 -6 125 -18 532 -17
553 1 24 19 21 50 -5 60 -13 4 -154 11 -315 15 -160 3 -298 9 -306 12 -12 4
-14 41 -14 202 0 209 -12 313 -39 343 -21 23 -62 25 -71 3z"/>
<path d="M26813 19711 c-23 -11 -49 -31 -58 -45 -10 -14 -21 -26 -26 -26 -12
0 -57 -47 -73 -78 -8 -15 -31 -44 -51 -65 -33 -34 -91 -120 -108 -157 -4 -8
-17 -31 -28 -50 -37 -60 -109 -200 -109 -211 0 -19 -81 -184 -123 -248 -23
-36 -65 -112 -92 -168 l-49 -102 17 -36 c18 -38 57 -60 88 -50 23 8 34 33 100
233 81 246 128 375 148 402 10 14 22 37 26 50 37 119 138 264 308 442 26 28
47 57 47 65 0 16 33 10 58 -10 21 -17 63 -94 74 -135 31 -122 74 -394 84 -530
6 -85 4 -99 -11 -112 -14 -12 -24 -12 -63 -1 -70 20 -228 25 -407 12 -135 -9
-162 -14 -179 -31 -16 -15 -17 -22 -7 -34 17 -21 72 -37 123 -38 64 0 448 39
484 50 17 6 61 8 96 5 50 -4 66 -2 70 8 8 25 -11 302 -27 384 -31 156 -37 181
-67 280 -38 123 -81 187 -136 203 -51 16 -59 15 -109 -7z"/>
<path d="M7570 19594 c-30 -8 -64 -19 -75 -24 -11 -6 -53 -21 -94 -35 -168
-57 -254 -164 -297 -372 -25 -121 3 -255 78 -364 72 -104 146 -157 271 -193
156 -45 309 -35 522 32 105 34 343 166 385 215 18 21 45 44 60 52 41 21 102
111 102 150 0 37 -27 136 -47 176 -24 45 -88 99 -165 137 -69 34 -80 37 -160
36 -87 -1 -169 -21 -160 -39 3 -5 14 -9 26 -7 39 5 224 -38 274 -63 55 -28
110 -93 135 -159 17 -43 17 -43 -15 -100 -67 -118 -258 -249 -475 -324 -162
-57 -374 -71 -475 -33 -202 76 -302 246 -270 457 12 81 56 182 103 235 80 90
294 170 416 156 55 -7 109 -34 164 -83 29 -27 46 -34 77 -34 37 0 40 2 40 29
0 39 -71 99 -182 153 -45 22 -157 23 -238 2z"/>
<path d="M4220 19495 c-80 -13 -138 -27 -221 -55 -32 -11 -40 -10 -65 8 -64
46 -239 60 -345 27 -163 -51 -244 -92 -303 -152 -53 -55 -100 -201 -94 -292 9
-122 66 -213 209 -331 87 -72 246 -120 394 -120 318 0 735 255 875 534 8 17
20 31 25 31 30 0 54 33 60 81 5 43 1 57 -27 109 -31 56 -39 63 -129 112 -94
50 -99 52 -195 57 -61 3 -132 0 -184 -9z m230 -71 c60 -9 111 -36 145 -76 15
-18 42 -43 59 -56 49 -36 67 -79 47 -111 -8 -12 -13 -11 -29 9 -10 13 -23 20
-29 17 -5 -3 -24 -36 -42 -71 -23 -47 -59 -92 -128 -162 -161 -161 -324 -253
-536 -303 -106 -25 -239 -8 -362 45 -73 32 -102 52 -166 114 -67 65 -79 83
-95 135 -44 148 -2 302 99 364 138 85 430 127 453 66 7 -17 -24 -70 -60 -104
-14 -14 -26 -35 -26 -48 0 -36 39 -26 68 17 25 37 100 92 142 105 14 4 48 18
76 31 78 38 235 49 384 28z"/>
<path d="M4017 19353 c-13 -12 -7 -33 18 -73 14 -22 35 -65 46 -95 36 -96 86
-138 128 -108 33 22 25 46 -28 91 -34 29 -54 56 -66 89 -10 27 -31 60 -46 76
-30 28 -41 32 -52 20z"/>
<path d="M24224 19451 c-12 -9 -32 -37 -44 -62 -13 -24 -46 -77 -74 -117 -28
-41 -57 -83 -65 -95 -8 -12 -25 -33 -37 -47 -11 -14 -40 -61 -64 -105 -23 -44
-56 -105 -73 -135 -16 -30 -36 -67 -44 -82 -8 -15 -18 -30 -24 -33 -5 -4 -9
-15 -9 -25 0 -10 -11 -32 -25 -48 -13 -16 -39 -62 -58 -103 -19 -41 -57 -114
-85 -163 -61 -106 -70 -141 -48 -185 14 -25 23 -31 50 -31 44 0 57 18 91 120
15 47 31 90 35 95 7 9 51 128 108 295 15 41 29 77 33 80 3 3 9 14 13 26 3 12
17 26 30 32 16 7 26 22 30 47 4 20 22 53 40 73 37 41 76 112 76 139 0 9 11 28
24 42 24 27 156 272 156 290 0 16 -12 13 -36 -8z"/>
<path d="M11284 19439 c-54 -12 -155 -101 -137 -120 10 -10 24 -7 72 15 80 36
128 43 229 34 132 -11 306 -70 412 -139 164 -106 265 -277 231 -391 -36 -117
-219 -276 -400 -345 -187 -71 -378 -68 -540 7 -96 45 -145 90 -181 164 -44 93
-42 166 6 266 45 94 75 134 125 166 65 41 50 94 -27 94 -52 0 -81 -22 -126
-97 -117 -199 -136 -310 -74 -444 58 -126 171 -208 369 -269 120 -37 291 -29
432 20 173 61 336 166 436 281 75 86 93 128 93 214 0 60 -4 79 -33 135 -48 93
-73 122 -171 200 -95 75 -140 100 -275 154 -142 58 -327 80 -441 55z"/>
<path d="M15682 19410 c-12 -5 -27 -20 -32 -32 -16 -39 -27 -487 -15 -660 8
-130 13 -160 29 -177 24 -27 58 -27 81 -1 17 19 18 30 6 193 -11 139 -11 209
0 367 18 277 18 279 -10 301 -26 21 -27 21 -59 9z"/>
<path d="M20626 19338 c-20 -28 -20 -42 0 -58 24 -21 48 9 39 49 -8 37 -18 39
-39 9z"/>
<path d="M20572 19148 c-38 -49 -38 -54 -12 -68 28 -15 38 -6 45 38 4 20 9 45
12 55 8 29 -11 19 -45 -25z"/>
<path d="M29763 19048 c-18 -26 -123 -470 -123 -525 0 -12 9 -27 21 -33 34
-18 56 11 74 99 9 42 32 135 51 206 20 72 38 160 41 198 l6 67 -30 0 c-17 0
-35 -6 -40 -12z"/>
<path d="M24736 18865 c-19 -14 -18 -15 11 -15 37 0 63 9 63 21 0 14 -53 10
-74 -6z"/>
<path d="M27270 18840 c0 -5 7 -10 15 -10 8 0 15 5 15 10 0 6 -7 10 -15 10 -8
0 -15 -4 -15 -10z"/>
<path d="M27075 18800 c-14 -16 -19 -40 -21 -108 -2 -48 -6 -126 -9 -174 -4
-76 -2 -89 13 -97 25 -13 59 4 76 38 13 24 16 65 16 196 l0 165 -28 0 c-16 0
-37 -9 -47 -20z"/>
<path d="M21017 18803 c-12 -12 -7 -63 9 -95 9 -16 22 -56 30 -87 8 -31 24
-74 34 -97 11 -22 20 -61 20 -86 0 -52 14 -64 56 -48 21 8 25 15 21 33 -17 66
-60 229 -73 277 -27 99 -34 110 -64 110 -14 0 -30 -3 -33 -7z"/>
<path d="M24558 18799 c-10 -5 -18 -19 -18 -29 0 -22 23 -88 49 -140 10 -19
24 -57 31 -85 7 -27 19 -55 27 -61 18 -15 77 -2 81 18 2 9 -22 75 -52 148 -31
72 -56 138 -56 146 0 16 -37 18 -62 3z"/>
<path d="M27751 18719 c-125 -42 -144 -71 -56 -85 25 -3 45 -11 45 -17 0 -6
-21 -42 -46 -79 -64 -97 -100 -181 -114 -271 -15 -100 4 -173 58 -230 59 -61
115 -76 336 -91 50 -4 195 25 228 44 10 5 22 10 27 10 13 0 121 67 149 92 38
36 97 120 110 157 71 206 -166 438 -493 481 -148 20 -156 20 -244 -11z m336
-104 c153 -48 278 -149 308 -247 12 -42 12 -54 -1 -95 -20 -66 -76 -138 -126
-164 -49 -25 -188 -56 -308 -69 -145 -16 -258 24 -276 96 -4 14 -4 56 -2 92 8
104 86 250 192 360 45 47 55 52 93 52 23 0 77 -11 120 -25z"/>
<path d="M20370 18725 c0 -8 -3 -15 -8 -15 -18 0 -125 -241 -120 -273 2 -14
10 -22 23 -22 22 0 46 56 72 165 8 36 20 70 25 77 14 18 28 83 17 83 -5 0 -9
-7 -9 -15z"/>
<path d="M25387 18567 c-12 -8 -23 -40 -32 -92 -7 -44 -18 -92 -23 -105 -5
-14 -15 -65 -22 -115 -7 -49 -24 -146 -38 -215 -35 -176 -37 -206 -18 -213 22
-9 63 8 75 31 13 24 36 124 61 265 11 61 38 166 60 231 22 66 40 134 40 151 0
56 -61 93 -103 62z"/>
<path d="M22221 18559 c-77 -15 -261 -80 -384 -135 -212 -96 -275 -158 -215
-214 36 -34 104 -21 128 25 11 21 90 85 104 85 3 0 38 15 78 34 122 57 211 93
258 106 25 7 54 16 65 20 51 21 91 30 132 30 47 0 59 -13 49 -53 -6 -27 -477
-502 -542 -547 -27 -19 -44 -52 -44 -83 0 -29 48 -74 88 -83 15 -3 34 -8 42
-10 38 -13 323 27 440 61 25 7 83 23 130 35 107 28 202 57 260 79 33 12 46 23
48 40 2 13 -2 28 -10 32 -20 13 -91 11 -113 -4 -56 -38 -210 -81 -415 -117
-238 -42 -360 -37 -360 14 0 31 17 50 77 85 56 32 245 195 373 321 77 76 150
187 150 228 0 11 -12 30 -26 41 -24 19 -39 21 -148 20 -66 -1 -141 -5 -165
-10z"/>
<path d="M8175 17619 c-16 -5 -68 -14 -115 -19 -57 -7 -100 -19 -130 -35 -25
-14 -68 -36 -96 -50 -68 -34 -183 -140 -167 -156 9 -9 22 -3 55 23 50 40 140
88 218 117 141 51 402 75 505 46 33 -9 76 -20 95 -24 130 -28 299 -153 355
-263 38 -73 41 -119 15 -204 -33 -103 -104 -185 -265 -304 -150 -111 -357
-166 -506 -135 -87 19 -145 52 -203 116 -64 72 -89 144 -83 239 3 41 12 91 21
111 17 41 69 90 126 119 53 27 67 53 41 79 -49 49 -110 33 -189 -47 -59 -61
-91 -132 -101 -228 -15 -126 20 -224 112 -322 63 -65 109 -93 218 -132 165
-58 336 -34 524 75 170 98 310 225 374 338 32 57 34 67 35 156 1 89 -1 101
-32 163 -65 134 -300 301 -467 332 -54 11 -309 14 -340 5z"/>
<path d="M11512 17498 c-22 -85 21 -360 137 -867 17 -74 33 -154 36 -179 7
-61 26 -97 50 -97 31 0 41 44 27 117 -15 77 -59 316 -77 418 -34 187 -48 306
-54 446 -7 172 -16 194 -77 194 -29 0 -34 -4 -42 -32z"/>
<path d="M4170 17503 c-53 -10 -167 -42 -218 -62 -88 -35 -250 -142 -327 -216
-125 -120 -171 -240 -163 -421 4 -89 7 -105 36 -155 92 -160 259 -247 478
-250 50 0 113 2 140 6 49 7 220 61 239 75 6 4 39 20 75 35 35 15 71 36 79 47
7 11 50 38 95 59 53 26 100 58 136 94 30 29 76 74 103 100 47 45 47 46 32 75
-8 16 -15 31 -15 35 0 10 39 5 45 -6 5 -7 15 -3 31 11 20 20 23 30 20 86 -3
68 -7 76 -109 189 -74 82 -170 121 -331 135 -60 5 -112 13 -116 17 -4 4 -13
27 -20 51 -16 52 -20 55 -97 81 -63 21 -68 22 -113 14z m88 -99 c26 -17 29
-49 5 -58 -15 -6 -15 -8 0 -23 12 -13 19 -14 30 -4 22 18 166 4 196 -20 13
-10 38 -19 55 -19 17 0 40 -6 51 -14 11 -7 56 -32 100 -56 82 -43 143 -93 165
-136 12 -21 11 -27 -10 -49 -13 -14 -20 -30 -16 -40 20 -52 -138 -225 -279
-304 -137 -78 -227 -120 -325 -153 -87 -29 -106 -32 -220 -32 -135 0 -207 16
-287 67 -146 92 -196 301 -114 482 37 80 75 125 107 125 26 0 50 26 46 50 -6
37 145 129 304 185 76 27 149 27 192 -1z"/>
<path d="M4055 17319 c-22 -5 -44 -14 -49 -19 -6 -6 -19 -10 -31 -10 -26 0
-63 -25 -52 -36 4 -4 23 0 42 9 20 9 47 17 60 17 13 0 27 5 30 10 3 6 17 10
29 10 13 0 29 7 36 15 15 18 -1 19 -65 4z"/>
<path d="M4387 17263 c-10 -9 -9 -32 4 -76 10 -36 12 -38 47 -35 33 3 37 6 40
34 5 49 -63 106 -91 77z"/>
<path d="M3870 17250 c0 -5 7 -10 15 -10 8 0 15 5 15 10 0 6 -7 10 -15 10 -8
0 -15 -4 -15 -10z"/>
<path d="M4315 17241 c-8 -14 3 -51 23 -70 14 -14 15 -12 9 23 -7 44 -21 64
-32 47z"/>
<path d="M15425 17259 c-95 -14 -192 -47 -295 -101 -298 -156 -434 -307 -447
-496 -16 -226 123 -394 409 -497 183 -66 336 -86 489 -64 41 6 99 14 129 18
61 9 150 34 220 61 25 10 61 21 80 25 55 11 179 76 248 130 79 62 123 145 148
283 28 153 12 178 -193 309 -89 56 -125 72 -260 114 -144 45 -226 60 -393 74
-73 6 -108 -13 -94 -50 10 -26 36 -34 130 -40 80 -5 143 -20 309 -72 160 -49
305 -129 372 -206 36 -41 36 -60 1 -181 -29 -101 -65 -149 -165 -221 -27 -20
-218 -95 -303 -119 -260 -75 -557 -59 -755 42 -181 91 -267 202 -266 343 0
150 93 290 248 375 32 17 83 45 113 61 105 57 267 106 387 118 56 5 85 3 127
-10 30 -10 62 -15 71 -12 25 10 19 74 -10 102 -23 24 -30 25 -132 24 -59 -1
-135 -5 -168 -10z"/>
<path d="M21309 16106 c-2 -2 -62 -6 -134 -9 -142 -7 -361 -24 -412 -32 -18
-3 -123 -6 -234 -6 -160 0 -224 5 -316 21 -105 20 -117 20 -139 5 -32 -21 -33
-69 -1 -89 25 -16 116 -31 291 -46 84 -8 182 -7 335 0 118 6 218 13 221 15 3
2 123 11 266 20 259 17 469 15 586 -4 91 -15 158 12 143 59 -11 34 -54 48
-188 59 -121 10 -409 15 -418 7z"/>
<path d="M26826 15942 c-25 -29 -17 -63 21 -85 43 -25 246 -65 363 -72 52 -3
255 -7 450 -10 340 -4 595 -21 1010 -65 58 -7 164 -13 237 -13 118 -2 134 0
159 18 35 27 45 56 30 86 -9 18 -19 24 -41 22 -17 -1 -68 -5 -115 -9 -53 -4
-156 0 -275 11 -104 9 -235 20 -290 25 -55 5 -181 16 -280 25 -99 8 -360 20
-580 25 -356 8 -410 11 -495 30 -144 34 -172 35 -194 12z"/>
<path d="M8620 15670 c-15 -15 -21 -35 -22 -77 -4 -128 4 -264 23 -373 62
-353 76 -540 55 -742 -12 -123 4 -165 54 -138 21 11 26 35 41 215 19 224 6
441 -39 630 -12 52 -16 121 -17 273 0 190 -1 205 -19 218 -27 19 -52 18 -76
-6z"/>
<path d="M20640 15655 c-14 -17 -7 -73 15 -115 7 -14 16 -50 19 -80 32 -260
74 -488 108 -586 12 -33 19 -67 16 -76 -5 -11 -37 -18 -135 -27 -182 -16 -253
-28 -378 -63 -147 -41 -152 -42 -160 -29 -8 14 28 93 65 141 15 19 48 76 75
125 46 86 91 160 181 298 53 82 89 151 107 209 9 26 28 64 43 83 35 46 26 53
-15 13 -44 -43 -109 -136 -161 -228 -23 -41 -67 -112 -96 -157 -30 -44 -54
-85 -54 -90 0 -5 -28 -65 -63 -133 -34 -69 -71 -147 -81 -174 -10 -27 -37 -76
-60 -110 -23 -33 -52 -80 -63 -103 -12 -23 -26 -50 -32 -60 -13 -26 -41 -90
-41 -96 0 -7 -85 -181 -114 -232 -34 -62 -58 -132 -54 -162 2 -22 10 -29 41
-36 27 -7 42 -5 53 4 26 21 68 117 103 234 18 61 40 130 48 155 8 25 29 91 47
147 17 56 35 105 39 109 4 4 22 -1 40 -11 32 -17 36 -17 133 4 54 12 117 26
139 32 109 27 392 61 540 65 234 6 290 11 324 29 34 17 40 39 14 51 -10 4 -99
8 -198 10 -99 1 -183 2 -188 3 -19 3 -62 197 -92 416 -9 66 -23 168 -31 226
-14 104 -37 191 -57 217 -13 17 -62 15 -77 -3z"/>
<path d="M24452 15654 c-28 -19 -29 -69 -3 -127 17 -39 33 -105 75 -322 13
-67 44 -170 70 -236 6 -14 -1 -16 -51 -12 -112 8 -269 8 -343 0 -112 -13 -124
-14 -168 -22 -45 -7 -82 0 -82 17 0 12 49 76 101 133 21 22 79 92 129 155 51
63 107 131 125 150 44 47 70 99 56 113 -13 13 -50 -11 -82 -53 -13 -17 -58
-72 -99 -123 -158 -194 -188 -233 -200 -256 -18 -36 -79 -113 -107 -138 -27
-23 -81 -43 -120 -43 -71 0 -99 -46 -64 -104 l22 -35 -68 -71 c-37 -40 -78
-88 -92 -108 -13 -20 -41 -57 -61 -82 -20 -25 -52 -67 -70 -94 -18 -27 -55
-74 -82 -103 -26 -29 -48 -62 -48 -72 0 -31 39 -71 69 -71 37 0 60 23 127 132
71 115 185 286 232 347 19 25 48 70 64 99 21 36 41 57 63 66 33 14 185 36 385
56 187 18 252 30 310 57 53 25 90 29 119 13 10 -5 5 -13 -18 -30 -28 -19 -31
-26 -26 -54 16 -78 66 -237 95 -301 21 -46 32 -87 33 -124 2 -61 18 -78 61
-67 54 13 53 40 -2 200 -28 80 -63 191 -77 246 -23 95 -24 102 -9 126 15 22
21 24 59 18 48 -7 87 8 79 30 -9 23 -32 27 -80 15 -54 -14 -90 -2 -103 35 -5
13 -33 138 -61 277 -58 290 -73 343 -103 364 -27 19 -27 19 -55 -1z"/>
<path d="M30955 15649 c-4 -5 2 -32 14 -58 30 -71 35 -157 17 -339 -9 -89 -16
-183 -16 -207 0 -40 -3 -47 -26 -55 -14 -6 -52 -10 -84 -10 -55 0 -335 -51
-386 -71 -24 -8 -41 -49 -29 -68 9 -15 59 -13 130 4 33 8 74 14 92 15 18 0 42
4 55 9 13 5 66 19 119 31 78 18 116 21 205 17 138 -6 455 -33 537 -47 99 -16
116 -14 123 16 10 41 -14 56 -108 65 -46 5 -125 13 -176 19 -51 5 -154 12
-230 15 -167 7 -169 8 -153 97 34 194 36 440 4 521 -20 49 -70 76 -88 46z"/>
<path d="M12055 15603 c-11 -2 -55 -13 -98 -25 -63 -18 -82 -20 -97 -10 -34
21 -110 14 -181 -17 -169 -72 -324 -226 -395 -392 -74 -174 -36 -385 92 -506
89 -85 198 -123 356 -123 92 0 260 36 305 65 12 8 27 15 32 15 18 0 214 121
274 169 125 99 220 270 239 430 14 120 0 182 -56 258 -54 74 -104 108 -186
127 -60 14 -235 20 -285 9z m297 -115 c123 -57 163 -176 118 -352 -43 -171
-178 -314 -390 -413 -142 -68 -231 -93 -325 -93 -184 0 -320 74 -382 208 -34
73 -35 194 -2 273 51 123 183 268 262 290 23 6 58 17 78 25 20 7 64 20 98 29
53 13 65 14 88 2 16 -8 49 -17 74 -21 52 -8 65 1 71 49 3 27 7 31 43 35 79 10
209 -6 267 -32z"/>
<path d="M27841 15469 c-113 -59 -140 -78 -265 -190 -103 -93 -356 -437 -453
-619 -61 -113 -132 -231 -186 -308 -44 -63 -48 -72 -40 -103 8 -28 14 -34 39
-36 53 -5 64 11 246 367 154 300 288 508 407 629 71 73 186 150 266 176 48 17
49 17 67 -5 21 -25 34 -69 87 -285 21 -88 53 -197 71 -242 43 -110 40 -118
-53 -108 -164 18 -531 6 -590 -18 -17 -8 -38 -25 -46 -39 -11 -22 -11 -29 4
-52 13 -20 26 -26 52 -26 19 0 42 4 52 9 17 9 172 25 356 36 50 3 126 8 170
11 127 9 123 13 169 -171 31 -128 36 -161 27 -181 -16 -35 -14 -44 12 -53 24
-9 67 3 79 22 16 25 7 77 -38 215 -45 138 -46 143 -29 162 14 15 31 20 69 20
94 0 155 30 114 57 -7 4 -64 8 -126 8 l-114 0 -14 40 c-7 22 -14 50 -14 61 0
12 -13 66 -29 120 -15 55 -34 126 -41 159 -18 89 -69 264 -91 311 -35 78 -62
83 -158 33z"/>
<path d="M15498 15389 c-10 -5 -18 -22 -18 -36 0 -27 72 -248 96 -295 15 -29
64 -169 107 -303 33 -105 47 -170 57 -280 5 -50 16 -117 25 -150 8 -32 15 -79
15 -103 0 -50 16 -86 58 -126 26 -24 36 -27 65 -22 18 3 43 15 55 27 34 31 28
63 -17 99 -42 34 -49 55 -76 236 -16 107 -69 346 -85 379 -23 50 -150 432
-170 512 -6 23 -17 49 -26 58 -18 17 -60 19 -86 4z"/>
<path d="M4055 15281 c-88 -26 -127 -44 -218 -104 -113 -74 -213 -162 -243
-213 -71 -121 -72 -295 -2 -426 48 -90 155 -191 257 -243 173 -88 470 -122
697 -80 225 42 586 200 707 310 46 42 68 71 87 118 15 35 34 63 43 65 10 2 17
-1 17 -7 0 -6 9 -11 20 -11 20 0 22 6 35 111 5 39 2 49 -20 75 -14 16 -25 34
-25 41 0 7 -6 16 -14 20 -7 4 -23 27 -35 51 -31 60 -117 113 -256 156 -179 55
-449 86 -585 66 -165 -25 -145 -27 -174 18 -21 34 -35 44 -78 57 -66 19 -137
18 -213 -4z m180 -71 c21 -8 26 -16 23 -37 -3 -23 -15 -33 -79 -64 -79 -38
-98 -59 -74 -79 12 -10 25 -5 67 22 53 35 94 52 201 84 93 27 368 12 642 -37
74 -13 192 -75 261 -138 29 -25 59 -52 68 -59 18 -14 22 -87 6 -97 -5 -3 -10
-13 -10 -21 0 -31 -74 -166 -99 -182 -14 -9 -48 -33 -76 -53 -124 -92 -391
-204 -585 -245 -131 -28 -397 -26 -505 5 -44 12 -93 28 -110 35 -16 8 -51 23
-76 34 -67 29 -169 129 -202 196 -54 110 -62 258 -18 343 85 168 429 345 566
293z"/>
<path d="M4346 15091 c-15 -17 -16 -25 -6 -55 9 -30 16 -36 39 -36 15 0 32 5
39 12 20 20 14 65 -10 82 -29 21 -41 20 -62 -3z"/>
<path d="M30976 14875 c-14 -15 -16 -44 -14 -233 3 -201 2 -219 -17 -250 -23
-39 -13 -65 28 -70 19 -2 30 4 44 24 15 24 18 55 21 214 5 289 -10 366 -62
315z"/>
<path d="M20880 14665 c-10 -12 -4 -36 30 -127 23 -62 43 -130 44 -150 3 -52
18 -66 50 -44 34 22 34 55 -3 159 -60 171 -85 205 -121 162z"/>
<path d="M22210 14639 c-115 -10 -187 -30 -305 -88 -114 -55 -185 -111 -185
-145 0 -28 39 -66 69 -66 14 0 46 22 84 59 34 32 85 70 112 83 140 69 413 90
467 36 31 -31 20 -92 -33 -180 -51 -85 -127 -175 -291 -346 -65 -67 -118 -131
-118 -141 0 -11 21 -40 46 -66 l46 -48 106 7 c124 9 221 32 457 111 224 75
377 156 348 185 -9 10 -24 6 -67 -14 -31 -15 -75 -30 -99 -35 -23 -5 -100 -26
-172 -46 -71 -20 -148 -41 -170 -45 -22 -5 -67 -18 -100 -30 -33 -11 -97 -24
-142 -27 -123 -9 -121 -1 39 166 128 133 231 269 264 348 23 54 15 170 -15
211 -42 60 -169 86 -341 71z"/>
<path d="M25662 14439 c-26 -10 -37 -35 -48 -105 -4 -27 -20 -89 -37 -139 -21
-65 -32 -123 -38 -210 -12 -147 -8 -165 30 -165 45 0 55 22 63 139 6 103 40
232 92 353 28 64 19 105 -29 130 -5 3 -20 2 -33 -3z"/>
<path d="M29223 14439 c-7 -8 -9 -20 -5 -25 12 -19 65 -42 122 -53 256 -50
369 -85 436 -136 82 -62 18 -111 -231 -175 -242 -63 -396 -69 -550 -22 -53 16
-115 68 -115 97 0 33 42 86 111 141 64 51 69 58 69 94 0 29 -5 42 -20 50 -35
19 -85 -15 -171 -118 -104 -124 -105 -152 -14 -270 43 -56 51 -61 121 -82 95
-28 247 -37 351 -21 147 23 355 81 437 123 52 26 162 113 170 134 34 88 -106
175 -394 244 -114 27 -301 38 -317 19z"/>
<path d="M8696 13884 c-20 -20 -20 -51 0 -89 28 -52 44 -127 49 -230 4 -55 12
-125 20 -155 8 -30 26 -125 40 -210 14 -85 31 -180 38 -210 10 -40 11 -62 3
-83 -9 -24 -8 -31 11 -45 25 -20 49 -105 58 -207 9 -102 12 -110 40 -123 38
-17 63 -15 75 8 10 19 6 46 -66 375 -41 190 -110 670 -117 823 -3 44 -9 69
-23 85 -11 12 -28 34 -37 50 -20 31 -65 37 -91 11z"/>
<path d="M4610 13670 c-30 -4 -68 -14 -85 -22 -16 -8 -42 -18 -56 -21 -32 -8
-77 -43 -67 -52 4 -4 48 2 98 14 205 50 587 16 720 -63 30 -18 69 -38 87 -44
31 -10 171 -124 204 -167 9 -11 20 -35 23 -52 4 -18 12 -35 17 -38 5 -4 9 -27
9 -53 0 -34 -11 -67 -42 -130 -35 -69 -56 -95 -122 -156 -98 -88 -186 -146
-332 -220 -137 -69 -196 -90 -469 -169 -23 -7 -109 -12 -205 -12 -182 0 -215
7 -340 71 -76 39 -87 48 -161 134 -80 93 -102 155 -103 295 -1 96 2 115 22
152 20 39 111 123 133 123 5 0 27 16 49 36 37 34 49 61 34 77 -11 10 -67 -18
-173 -87 -93 -61 -103 -71 -132 -129 -27 -55 -31 -74 -34 -167 -3 -70 0 -120
9 -150 51 -167 156 -297 299 -369 125 -63 244 -85 421 -77 138 7 309 41 397
80 19 8 66 27 104 42 39 14 108 47 155 72 47 25 103 54 125 65 65 32 195 131
260 197 33 34 85 87 116 118 69 71 94 131 86 212 -6 66 -24 105 -83 178 -72
88 -165 155 -297 215 -45 21 -79 33 -222 77 -64 20 -344 32 -445 20z"/>
<path d="M16275 13640 c-107 -9 -166 -25 -211 -55 -58 -40 -104 -50 -161 -36
-26 7 -56 20 -67 29 -23 22 -149 23 -221 3 -208 -59 -424 -227 -513 -399 -101
-194 -126 -399 -73 -585 40 -139 213 -390 308 -448 21 -13 58 -38 82 -57 89
-67 250 -134 392 -163 132 -26 399 -6 545 41 101 33 257 101 306 133 64 43
161 127 212 184 159 178 251 510 221 793 -16 149 -65 253 -168 358 -49 50 -85
74 -172 117 -152 76 -294 101 -480 85z m330 -114 c90 -29 158 -68 235 -136 66
-58 91 -102 130 -229 51 -162 11 -475 -85 -677 -75 -155 -248 -303 -438 -373
-193 -70 -297 -91 -461 -91 -173 0 -327 43 -474 132 -186 112 -330 305 -377
505 -21 88 -21 233 1 320 28 114 92 228 171 304 97 93 139 123 230 163 132 58
253 81 253 47 0 -4 -35 -40 -79 -79 -81 -74 -111 -119 -111 -170 0 -33 20 -55
42 -47 8 3 34 39 57 79 51 89 79 117 158 156 93 44 110 47 140 19 48 -45 73
-95 73 -147 0 -51 -14 -70 -87 -121 -39 -26 -44 -64 -13 -81 32 -17 82 4 144
61 105 96 106 168 4 291 -22 26 -37 52 -33 57 17 28 220 53 365 44 47 -3 117
-15 155 -27z"/>
<path d="M19147 13574 c-9 -10 2 -24 19 -24 8 0 14 7 14 15 0 15 -21 21 -33 9z"/>
<path d="M11696 13517 c-46 -46 -130 -240 -162 -373 -16 -67 -19 -118 -19
-329 1 -229 3 -269 33 -469 18 -120 32 -238 32 -261 0 -54 30 -96 57 -79 23
14 34 66 27 129 -13 132 -27 227 -42 295 -24 110 -23 489 1 620 21 113 74 242
134 327 62 89 59 141 -9 158 -21 5 -33 1 -52 -18z"/>
<path d="M4232 13480 c-18 -16 -37 -30 -43 -30 -13 0 -114 -99 -107 -106 9 -8
65 23 76 42 7 12 30 16 98 19 49 2 107 9 129 14 142 37 366 -11 474 -100 56
-46 70 -75 64 -134 -6 -59 12 -105 52 -131 20 -13 28 -14 51 -2 44 21 50 40
31 100 -9 29 -19 65 -22 79 -5 25 -79 125 -120 162 -48 42 -163 88 -260 102
-71 11 -294 6 -318 -7 -16 -8 -23 -7 -32 6 -18 23 -36 20 -73 -14z"/>
<path d="M9250 11570 c-60 -15 -129 -48 -203 -99 -67 -46 -76 -49 -134 -49
-110 0 -247 -62 -311 -141 -55 -69 -99 -179 -112 -284 -11 -86 -10 -101 9
-176 30 -116 71 -191 141 -260 72 -70 131 -103 230 -130 173 -47 327 -28 505
61 66 33 129 68 140 77 11 10 54 42 95 71 79 56 170 142 170 160 0 6 13 23 30
38 48 44 85 152 84 247 0 67 -4 88 -27 133 -71 136 -174 240 -307 307 -100 51
-214 67 -310 45z m207 -96 c73 -31 121 -56 140 -73 10 -9 33 -27 51 -40 18
-12 55 -56 82 -96 27 -41 54 -76 60 -80 7 -4 6 -13 -1 -27 -7 -12 -9 -40 -5
-66 18 -135 -93 -304 -286 -433 -174 -116 -294 -159 -442 -159 -142 0 -244 40
-336 130 -66 64 -93 117 -115 218 -19 93 -19 146 1 213 40 136 90 209 169 245
63 30 101 31 116 3 11 -21 11 -21 32 -1 59 54 112 53 213 -4 68 -38 98 -39
110 -2 8 27 -19 51 -98 86 -32 13 -58 30 -58 37 0 16 67 43 150 61 76 16 163
11 217 -12z"/>
<path d="M4755 11456 c-17 -13 -18 -19 -7 -79 8 -42 12 -178 12 -379 1 -172 3
-329 5 -348 5 -38 35 -676 37 -775 2 -100 38 -144 74 -90 14 22 15 60 10 352
-4 181 -11 416 -16 523 -5 107 -8 327 -6 489 2 240 0 296 -11 307 -18 18 -74
18 -98 0z"/>
<path d="M11653 11151 c-67 -11 -179 -99 -156 -122 8 -8 20 -6 42 10 17 12 43
24 58 27 130 21 167 25 229 21 89 -6 180 -35 314 -100 91 -44 116 -62 191
-136 113 -114 143 -181 144 -321 0 -85 -3 -100 -29 -149 -61 -118 -209 -224
-402 -290 -108 -36 -210 -49 -314 -39 -105 11 -238 76 -307 152 -113 124 -124
333 -26 489 35 55 125 142 171 166 104 53 181 57 254 13 46 -27 104 -35 123
-16 20 21 19 77 -2 97 -24 21 -141 47 -214 47 -120 0 -254 -63 -345 -162 -96
-104 -140 -201 -150 -329 -12 -157 50 -320 161 -421 68 -62 261 -136 370 -142
171 -10 360 47 530 159 157 104 243 225 266 375 15 99 7 161 -30 252 -62 148
-113 207 -262 301 -96 61 -167 86 -339 117 -53 10 -217 10 -277 1z"/>
<path d="M24795 11080 c-196 -8 -405 -25 -655 -56 -69 -8 -182 -15 -252 -15
-125 0 -128 -1 -148 -26 -18 -23 -19 -29 -7 -47 8 -12 25 -27 38 -33 33 -17
176 -16 334 2 72 9 173 20 225 25 52 5 140 14 195 19 55 6 193 11 306 11 202
0 206 0 227 23 32 34 29 73 -8 92 -16 8 -35 14 -42 13 -7 -1 -103 -4 -213 -8z"/>
<path d="M15875 10978 c-11 -6 -24 -16 -28 -22 -10 -14 -6 -693 5 -886 11
-193 37 -499 49 -580 10 -65 62 -166 79 -155 24 15 31 78 21 178 -31 301 -54
920 -45 1223 7 228 6 232 -14 243 -26 14 -41 14 -67 -1z"/>
<path d="M27379 10925 c-3 -3 -137 -5 -298 -5 -276 -1 -293 -2 -312 -21 -25
-25 -24 -53 2 -78 21 -19 33 -20 538 -15 297 3 573 0 651 -5 74 -6 212 -15
305 -21 94 -6 212 -18 264 -26 106 -16 135 -8 147 43 10 37 -7 57 -52 65 -66
11 -319 28 -514 33 -102 3 -230 7 -285 10 -55 3 -171 8 -258 10 -86 3 -163 8
-170 11 -7 2 -15 2 -18 -1z"/>
<path d="M20403 10847 c-15 -12 -45 -31 -67 -42 -21 -11 -64 -45 -95 -75 -31
-30 -73 -66 -94 -81 -21 -14 -46 -41 -55 -59 -9 -18 -31 -41 -49 -50 -31 -16
-103 -90 -213 -215 -28 -33 -64 -71 -79 -85 -15 -14 -48 -54 -73 -90 -25 -36
-77 -97 -114 -137 -81 -85 -176 -205 -256 -323 -31 -47 -74 -110 -96 -140 -21
-30 -57 -86 -81 -125 -23 -38 -57 -90 -76 -115 -18 -25 -34 -50 -34 -56 -1 -6
-8 -17 -16 -24 -25 -20 -18 -66 12 -90 44 -35 63 -24 108 62 40 77 77 140 185
323 33 55 60 104 60 108 0 8 44 74 144 212 32 44 62 89 67 100 21 45 92 131
229 276 80 84 183 193 230 243 94 99 164 164 262 242 77 61 100 71 122 49 15
-16 36 -76 36 -105 0 -22 57 -306 71 -355 6 -22 16 -46 22 -53 20 -25 -7 -31
-97 -21 -59 7 -104 7 -135 0 -25 -5 -64 -13 -86 -16 -152 -24 -425 -147 -500
-225 l-29 -30 31 -32 32 -31 38 26 c177 125 252 155 528 207 61 11 147 32 192
47 48 15 89 23 100 19 16 -7 16 -9 -9 -30 -37 -29 -36 -47 11 -196 61 -196 81
-248 133 -354 35 -72 48 -111 48 -142 0 -50 25 -73 60 -54 26 14 27 72 1 143
-11 28 -36 97 -56 152 -20 55 -43 120 -50 145 -7 25 -29 99 -49 165 -20 66
-36 127 -36 136 0 9 12 24 26 34 20 13 23 19 13 31 -6 8 -20 14 -30 14 -10 0
-25 10 -33 23 -17 26 -60 212 -81 352 -21 137 -42 205 -73 238 -31 33 -61 34
-99 4z"/>
<path d="M27570 10358 c-25 -13 -49 -33 -55 -45 -10 -23 -72 -63 -99 -63 -8 0
-39 -22 -68 -50 -29 -27 -56 -50 -60 -50 -4 0 -25 -17 -46 -37 -22 -21 -46
-43 -53 -49 -22 -18 -122 -141 -219 -270 -127 -169 -138 -184 -167 -229 -15
-22 -39 -58 -54 -80 -14 -22 -66 -112 -114 -200 -49 -88 -120 -213 -158 -279
-61 -102 -69 -122 -61 -144 24 -69 107 -42 139 45 34 93 245 509 299 592 31
47 56 86 56 87 0 1 37 56 83 121 91 131 217 284 255 309 13 8 28 28 33 44 8
21 25 34 70 54 33 14 59 32 59 40 0 13 70 76 84 76 4 0 27 9 52 21 79 36 133
6 155 -86 6 -27 21 -81 31 -120 11 -38 24 -104 29 -145 5 -41 16 -101 24 -133
8 -32 15 -69 15 -81 0 -13 10 -35 21 -50 12 -15 20 -28 18 -30 -25 -18 -71
-26 -109 -17 -24 5 -48 7 -52 5 -5 -3 -32 -7 -61 -9 -131 -7 -482 -129 -508
-176 -15 -28 0 -75 28 -88 23 -10 32 -8 77 24 79 54 302 134 375 135 24 0 35
3 141 35 75 23 113 18 116 -15 4 -51 34 -187 55 -250 16 -50 20 -80 15 -132
-4 -61 -3 -69 16 -79 16 -9 26 -7 47 8 42 32 40 98 -9 283 -23 84 -46 162 -52
173 -5 10 -6 23 -1 27 7 6 92 24 178 36 121 18 172 41 146 67 -17 17 -163 12
-212 -7 -22 -9 -54 -16 -73 -16 -29 0 -35 5 -49 38 -9 20 -21 73 -27 117 -43
308 -104 508 -177 577 -41 39 -79 43 -133 16z"/>
<path d="M24653 10316 c-15 -12 -58 -38 -95 -56 -38 -19 -68 -37 -68 -41 0 -3
-33 -30 -72 -60 -70 -51 -298 -276 -383 -376 -22 -26 -67 -79 -100 -118 -62
-74 -236 -271 -340 -386 -117 -128 -212 -267 -228 -330 -8 -30 27 -92 54 -97
31 -6 67 37 95 115 44 119 118 226 291 416 30 32 69 82 87 110 53 82 312 381
426 492 71 69 136 119 243 186 123 76 177 52 192 -88 3 -37 10 -86 15 -108 5
-22 14 -74 20 -115 6 -41 17 -92 22 -112 15 -53 -2 -72 -56 -63 -191 29 -470
-51 -636 -182 -105 -83 -116 -100 -99 -155 12 -35 19 -44 41 -46 23 -3 32 4
55 40 38 59 118 131 173 155 52 23 135 44 310 79 186 38 209 41 235 36 22 -4
23 -6 10 -26 -9 -15 -14 -60 -15 -156 -1 -165 -9 -209 -44 -251 -24 -28 -25
-34 -13 -47 20 -19 71 -7 90 21 38 58 51 138 51 299 l-1 157 36 5 c20 3 58 8
84 12 52 7 79 26 71 49 -8 20 -40 28 -109 26 -33 0 -65 2 -72 7 -19 12 -33 60
-33 112 0 27 -11 111 -25 187 -37 198 -77 297 -130 321 -37 17 -50 15 -82 -12z"/>
<path d="M31100 10111 c-5 -11 -10 -48 -10 -83 0 -96 -22 -332 -32 -343 -4 -5
-41 -8 -81 -6 -39 1 -132 -1 -206 -4 -145 -8 -171 -19 -171 -70 0 -47 58 -56
225 -36 135 16 199 14 216 -6 12 -15 15 -56 13 -223 -1 -113 -5 -219 -9 -237
-6 -29 -5 -33 21 -39 22 -6 32 -2 52 21 l24 29 -8 150 c-4 83 -8 185 -9 226 0
72 1 75 27 88 23 11 37 10 85 -2 32 -7 114 -17 183 -20 69 -3 161 -8 205 -10
44 -2 86 1 92 6 8 7 23 6 44 -1 35 -12 118 -15 143 -5 9 3 16 12 16 19 0 23
-5 24 -275 58 -66 9 -149 18 -185 21 -197 17 -296 29 -307 38 -17 14 -16 47 2
133 22 108 30 247 15 276 -23 43 -53 51 -70 20z"/>
<path d="M29188 9450 c-26 -4 -52 -11 -58 -15 -30 -19 40 -50 135 -59 173 -17
281 -49 385 -114 75 -47 108 -79 136 -134 28 -56 28 -97 1 -153 -47 -96 -140
-150 -402 -235 -123 -40 -137 -42 -255 -43 -105 -1 -137 2 -200 22 -134 41
-195 84 -205 142 -9 51 9 82 90 156 63 58 67 65 61 94 -9 47 -25 62 -59 55
-32 -6 -85 -55 -114 -104 -10 -17 -31 -52 -47 -79 -39 -63 -39 -129 2 -187 15
-21 35 -54 45 -73 28 -54 149 -98 307 -112 191 -17 395 29 635 144 189 90 262
179 253 309 -14 215 -249 374 -577 391 -47 2 -107 0 -133 -5z"/>
<path d="M9055 9373 c-120 -25 -189 -66 -328 -193 -150 -137 -277 -443 -277
-667 0 -60 32 -187 66 -260 30 -64 101 -158 167 -220 215 -201 524 -205 847
-10 32 19 108 75 120 87 3 3 19 16 35 28 73 55 172 166 242 269 92 139 128
213 178 371 36 115 38 126 27 169 -15 56 -72 144 -119 182 -83 69 -296 145
-434 157 -222 18 -512 -77 -445 -145 14 -13 23 -12 83 13 57 23 86 28 193 33
366 16 628 -142 607 -367 -6 -72 -84 -261 -138 -333 -85 -116 -108 -142 -194
-221 -96 -87 -234 -183 -319 -222 -175 -80 -347 -83 -502 -10 -214 101 -336
340 -299 586 27 182 108 362 220 488 35 40 160 130 211 153 36 17 71 23 135
25 62 1 93 6 113 19 38 25 33 50 -14 69 -48 19 -83 19 -175 -1z"/>
<path d="M11870 9375 c-13 -15 -12 -20 13 -145 9 -41 18 -109 22 -150 3 -41
13 -122 22 -180 8 -58 19 -143 23 -190 15 -152 40 -322 70 -474 17 -83 30
-182 30 -221 0 -40 3 -75 6 -78 4 -4 16 10 26 30 17 31 19 51 16 152 -3 64
-14 199 -26 301 -32 284 -51 480 -62 650 -12 189 -26 279 -47 302 -20 22 -76
24 -93 3z"/>
<path d="M22430 9343 c-247 -25 -699 -112 -840 -162 -47 -17 -137 -48 -200
-70 -145 -51 -160 -59 -160 -87 0 -23 51 -74 75 -74 8 0 53 18 101 41 128 59
203 83 459 148 256 65 340 85 435 101 36 6 99 18 140 27 115 25 151 23 169 -8
13 -23 13 -33 1 -68 -7 -23 -17 -41 -21 -41 -4 0 -10 -9 -14 -20 -3 -11 -23
-37 -43 -59 -20 -22 -50 -59 -67 -82 -16 -24 -50 -66 -75 -94 -73 -83 -111
-132 -132 -172 -11 -21 -24 -42 -29 -47 -5 -6 -9 -32 -9 -60 0 -47 3 -52 53
-99 83 -77 96 -82 227 -82 104 1 127 4 238 38 127 39 303 121 356 167 17 15
41 32 54 39 20 11 31 41 15 41 -5 0 -26 -11 -48 -25 -22 -13 -48 -25 -57 -25
-9 0 -48 -16 -86 -35 -134 -67 -279 -100 -442 -100 -88 0 -111 3 -140 21 -72
42 -60 101 47 228 125 149 242 311 273 377 27 59 31 77 25 114 -13 88 -45 95
-305 68z"/>
<path d="M25542 9132 c-13 -13 -23 -45 -31 -98 -78 -515 -80 -541 -46 -658 24
-80 64 -106 110 -72 19 14 19 15 -8 64 -42 77 -43 138 -9 352 16 102 40 212
52 245 43 113 36 166 -22 180 -19 5 -32 1 -46 -13z"/>
<path d="M4742 8863 c-23 -9 -31 -48 -21 -94 6 -24 12 -219 14 -434 3 -424 8
-467 53 -473 48 -7 49 -3 57 356 4 185 8 355 10 377 1 22 6 85 10 141 6 87 5
102 -10 117 -16 16 -83 22 -113 10z"/>
<path d="M16162 8825 c-34 -7 -88 -23 -120 -34 -32 -12 -83 -21 -113 -21 -92
0 -250 -53 -339 -113 -129 -87 -233 -219 -291 -367 l-42 -105 6 -110 c6 -117
19 -169 62 -256 45 -90 101 -156 193 -225 106 -80 218 -135 348 -170 92 -25
114 -28 294 -28 193 0 196 0 300 33 58 18 136 47 175 65 71 34 210 138 258
196 37 44 88 132 123 215 28 67 29 76 28 215 -1 128 -4 154 -27 225 -33 100
-72 161 -157 246 -109 108 -214 169 -365 214 -112 32 -244 41 -333 20z m198
-80 c172 -26 289 -85 412 -207 87 -85 140 -180 159 -285 16 -81 5 -255 -19
-323 -41 -117 -155 -257 -255 -312 -226 -126 -556 -163 -785 -88 -252 82 -410
214 -471 391 -76 222 -36 390 132 559 56 58 109 99 160 128 79 43 101 50 112
32 9 -15 31 -12 83 11 63 29 109 34 189 19 91 -17 121 -30 165 -73 82 -79 92
-136 58 -328 -29 -165 -28 -177 16 -195 32 -14 38 -13 60 1 13 8 25 21 25 28
6 46 10 142 11 267 1 207 -16 241 -178 335 -54 32 -63 40 -48 46 29 12 71 10
174 -6z"/>
<path d="M5253 7112 c-51 -5 -59 -22 -45 -105 12 -74 9 -214 -8 -342 -10 -75
-24 -500 -21 -625 2 -81 26 -173 44 -167 14 4 32 114 41 247 4 58 11 148 16
200 5 52 12 136 15 185 2 50 7 115 10 145 2 30 9 137 15 237 13 221 10 233
-67 225z"/>
<path d="M9035 6933 c-45 -11 -45 -13 -40 -252 3 -124 8 -236 10 -249 3 -12 8
-60 10 -105 3 -45 7 -116 10 -157 3 -41 10 -142 15 -223 6 -106 13 -156 25
-173 20 -30 21 -30 39 5 18 34 24 380 13 752 -5 145 -4 262 3 305 9 64 8 70
-11 87 -21 17 -36 19 -74 10z"/>
<path d="M12170 6673 c-228 -27 -340 -68 -340 -125 0 -25 28 -23 84 7 112 60
131 13 28 -69 -88 -69 -142 -134 -186 -224 -139 -275 -163 -579 -68 -839 44
-121 140 -242 237 -300 156 -94 250 -108 420 -66 144 36 315 133 395 225 108
123 136 172 178 302 23 74 26 96 26 256 1 161 -1 183 -26 271 -15 53 -48 140
-74 193 -40 83 -58 107 -129 174 -130 123 -276 188 -435 194 -47 2 -96 2 -110
1z m136 -88 c108 -20 167 -44 250 -98 158 -104 243 -235 286 -437 46 -220 25
-401 -64 -573 -63 -121 -147 -200 -279 -265 -140 -69 -210 -92 -294 -99 -62
-5 -79 -2 -147 24 -141 55 -221 134 -285 282 -81 184 -66 526 32 738 66 144
185 268 318 333 78 37 101 58 96 86 -5 28 -10 28 87 9z"/>
<path d="M16163 6403 c-21 -31 -21 -28 -10 -493 8 -339 17 -476 42 -592 9 -40
18 -86 21 -103 4 -16 19 -75 34 -130 16 -55 38 -147 51 -205 12 -58 27 -111
32 -118 6 -7 22 -12 36 -10 38 4 37 35 -5 243 -58 288 -74 375 -90 490 -4 28
-8 246 -8 485 -1 239 -5 441 -9 448 -5 6 -24 12 -42 12 -26 0 -39 -6 -52 -27z"/>
<path d="M26840 6310 c-25 -25 -25 -52 0 -75 23 -21 126 -31 355 -33 271 -3
617 -26 950 -63 183 -20 527 -80 627 -110 73 -21 108 -16 127 20 15 27 -2 69
-31 80 -13 4 -52 11 -88 15 -36 4 -110 16 -165 26 -289 55 -454 75 -830 105
-52 4 -411 23 -585 30 -74 4 -171 10 -215 16 -110 13 -122 12 -145 -11z"/>
<path d="M20482 5973 c-10 -10 -43 -31 -73 -47 -30 -16 -73 -43 -97 -60 -39
-28 -181 -168 -297 -291 -47 -50 -103 -150 -90 -163 7 -7 63 51 148 155 30 37
86 97 124 133 81 79 253 200 282 200 52 0 77 -62 111 -270 11 -69 25 -147 30
-175 6 -27 12 -70 14 -95 4 -58 78 -487 106 -610 16 -72 20 -112 15 -162 -6
-63 -5 -67 17 -74 90 -31 98 46 39 381 -5 33 -17 119 -26 190 -9 72 -20 153
-25 180 -5 28 -16 100 -25 160 -24 164 -63 371 -86 447 -14 47 -28 74 -50 92
-36 31 -90 35 -117 9z"/>
<path d="M31038 5635 c-8 -17 -8 -42 -1 -87 11 -64 6 -93 -43 -303 -22 -92
-45 -207 -49 -240 -15 -142 -16 -172 -2 -209 7 -22 19 -42 25 -44 22 -7 43 47
52 135 10 92 46 288 56 305 7 11 50 216 64 303 10 62 1 124 -20 150 -21 25
-69 19 -82 -10z"/>
<path d="M27718 5613 c-9 -2 -20 -12 -23 -22 -3 -10 -34 -39 -70 -64 -62 -45
-77 -68 -55 -82 6 -4 25 2 43 13 47 27 112 36 131 17 19 -19 22 -30 36 -135
23 -177 44 -278 69 -344 7 -16 10 -35 7 -42 -5 -14 55 -28 84 -19 19 6 18 7
-5 28 -21 19 -25 36 -34 122 -29 281 -42 358 -83 463 -25 65 -47 79 -100 65z"/>
<path d="M25505 5549 c-11 -6 -29 -23 -40 -39 -10 -16 -42 -39 -70 -52 -27
-13 -78 -44 -113 -70 -35 -27 -65 -48 -68 -48 -20 0 -300 -265 -320 -302 -17
-33 -18 -46 -2 -30 7 7 20 12 29 12 9 0 22 7 30 16 7 8 35 30 63 49 28 19 71
52 96 75 39 35 106 87 230 175 15 11 48 37 73 58 52 44 71 46 93 11 15 -23 16
-37 6 -132 -7 -59 -12 -132 -12 -162 0 -102 -31 -161 -74 -138 -27 14 -260 4
-321 -15 -140 -42 -171 -48 -217 -42 -32 5 -48 12 -48 21 0 8 -2 14 -5 14 -12
0 -51 -27 -67 -46 -9 -12 -48 -39 -85 -62 -37 -22 -92 -63 -121 -91 -29 -28
-56 -51 -60 -51 -12 0 -137 -112 -260 -234 -238 -234 -262 -259 -262 -273 0
-45 54 -82 91 -62 11 5 33 29 50 52 60 85 167 204 298 334 l134 132 44 -6 c39
-5 48 -3 76 24 42 39 104 84 146 106 61 33 255 78 421 97 47 5 111 15 143 21
49 10 61 10 73 -3 19 -18 20 -58 6 -123 -6 -28 -18 -97 -26 -155 -22 -154 -30
-191 -52 -235 -21 -41 -21 -75 -1 -75 30 1 58 40 87 125 37 108 56 202 71 354
8 83 16 121 30 140 14 20 17 33 11 56 -5 17 -5 49 -1 72 10 53 30 275 33 371
3 61 -1 79 -18 105 -23 34 -56 43 -91 26z"/>
<path d="M20284 5390 c-34 -5 -117 -23 -185 -40 -68 -18 -149 -35 -179 -39
-33 -4 -72 -17 -97 -34 -24 -15 -63 -32 -88 -39 -25 -7 -58 -25 -72 -41 l-28
-28 24 -43 23 -44 -47 -87 c-25 -48 -55 -109 -65 -136 -11 -26 -37 -85 -59
-131 -21 -46 -51 -123 -66 -173 -15 -49 -40 -120 -55 -157 -25 -58 -27 -68
-14 -86 7 -11 28 -25 45 -31 27 -9 33 -8 54 13 13 13 27 41 30 62 22 134 82
319 166 516 42 99 59 151 59 182 0 42 3 46 48 75 27 17 52 31 56 31 4 0 27 9
50 20 98 44 347 101 529 121 85 9 147 29 147 49 0 33 -159 55 -276 40z"/>
<path d="M27383 5243 c-13 -13 -23 -27 -23 -32 0 -5 -3 -16 -6 -25 -10 -26 24
-19 42 8 8 14 14 35 12 48 l-3 23 -22 -22z"/>
<path d="M27309 5131 c-6 -15 -21 -33 -34 -39 -14 -7 -25 -18 -25 -26 0 -7 -7
-19 -16 -27 -8 -7 -31 -36 -50 -65 -19 -29 -70 -90 -113 -136 -43 -46 -116
-126 -163 -178 -122 -134 -225 -239 -281 -284 -65 -52 -80 -76 -68 -110 9 -22
17 -26 50 -26 36 0 44 6 127 98 49 53 102 110 117 126 80 81 284 337 365 456
9 14 36 50 59 82 24 31 43 64 43 75 0 10 7 27 15 37 19 26 19 46 -1 46 -8 0
-20 -13 -25 -29z"/>
<path d="M28166 4933 c-3 -3 -22 -5 -43 -5 -21 0 -49 -6 -63 -13 -19 -10 -65
-12 -180 -9 -279 8 -331 6 -414 -16 -44 -11 -88 -20 -99 -20 -27 0 -87 -47
-87 -68 0 -26 28 -62 48 -62 10 0 52 13 95 30 42 16 119 36 170 44 156 25 235
36 252 36 20 0 35 -39 45 -120 4 -36 17 -100 28 -142 21 -78 28 -117 38 -218
3 -30 7 -65 10 -77 6 -31 39 -30 59 1 14 21 14 34 -1 132 -9 60 -19 116 -24
124 -4 9 -11 36 -14 60 -4 25 -18 85 -32 133 -14 48 -22 93 -18 98 4 6 52 10
123 8 139 -2 303 10 295 22 -3 5 -15 9 -28 9 -12 0 -27 5 -34 12 -14 14 -119
48 -126 41z"/>
<path d="M30459 4830 c-9 -5 -22 -23 -29 -40 -11 -26 -10 -33 5 -50 33 -37
295 -130 465 -165 19 -4 44 -14 56 -22 12 -7 28 -11 37 -7 8 3 53 -4 99 -15
165 -41 338 -62 523 -64 108 -1 155 9 155 33 0 23 -5 24 -170 45 -169 20 -244
32 -345 55 -44 10 -107 24 -140 30 -33 7 -80 21 -104 31 -24 11 -59 21 -78 23
-35 5 -95 22 -128 36 -11 5 -55 23 -98 40 -43 17 -100 41 -127 55 -51 26 -93
31 -121 15z"/>
<path d="M22510 4772 c-59 -2 -283 -37 -340 -52 -19 -5 -93 -23 -165 -40 -138
-34 -288 -81 -395 -125 -36 -15 -107 -38 -159 -51 -91 -22 -141 -51 -141 -80
0 -19 59 -64 83 -64 25 1 107 29 257 90 217 88 461 158 680 196 76 13 158 28
182 33 75 18 116 14 133 -13 22 -33 11 -70 -40 -136 -65 -85 -179 -257 -220
-335 -21 -38 -44 -79 -52 -90 -19 -28 -16 -105 5 -137 25 -38 99 -91 157 -114
39 -15 74 -19 160 -18 153 1 314 36 590 129 55 19 118 39 140 44 22 6 55 20
73 31 29 18 32 23 21 36 -9 11 -23 14 -43 10 -45 -7 -152 -34 -226 -56 -286
-86 -523 -112 -675 -75 -44 11 -95 63 -95 97 0 44 75 177 185 328 34 47 68 99
77 115 8 17 29 57 47 90 34 66 38 102 16 144 -25 49 -49 53 -255 43z"/>
<path d="M29100 4630 c-63 -9 -131 -22 -150 -28 -19 -6 -64 -18 -100 -27 -36
-10 -76 -21 -90 -25 -14 -5 -37 -11 -52 -14 -19 -4 -28 -13 -28 -26 0 -18 7
-20 54 -20 30 0 67 5 83 11 42 16 206 38 329 44 304 16 534 -88 633 -284 57
-113 54 -196 -10 -266 -63 -69 -181 -119 -409 -175 -38 -10 -265 -12 -373 -3
-64 4 -68 4 -59 -13 17 -30 111 -43 277 -39 83 3 166 9 185 16 19 6 60 17 90
24 192 46 338 123 396 207 91 131 -16 389 -217 526 -68 46 -216 91 -319 98
-47 3 -94 6 -105 8 -11 2 -72 -4 -135 -14z"/>
<path d="M28889 4379 c-33 -35 -59 -67 -59 -70 0 -4 -18 -30 -40 -58 -62 -78
-88 -164 -70 -230 20 -76 172 -181 262 -181 40 0 29 12 -46 49 -76 37 -136
108 -136 160 0 62 44 135 141 240 56 59 60 67 57 105 -3 35 -7 42 -27 44 -18
3 -37 -10 -82 -59z"/>
<path d="M30945 4430 c-14 -22 -17 -110 -5 -125 20 -24 69 -19 79 9 11 26 0
89 -19 111 -14 17 -46 20 -55 5z"/>
<path d="M26107 4406 c-8 -8 -17 -42 -20 -75 -4 -34 -13 -75 -22 -90 -42 -81
-59 -172 -76 -396 -13 -177 2 -237 62 -250 51 -12 63 9 39 72 -30 79 -35 142
-16 206 9 30 16 67 16 81 0 40 30 189 42 211 72 127 85 195 45 233 -27 25 -50
28 -70 8z"/>
<path d="M5489 4099 c-22 -22 -21 -48 7 -159 17 -67 34 -286 30 -400 -1 -47 1
-143 5 -213 4 -70 8 -172 9 -225 3 -142 20 -182 78 -182 39 0 46 23 30 107
-14 76 -15 114 -9 583 1 85 -3 227 -8 314 -8 150 -10 160 -32 177 -32 25 -84
24 -110 -2z"/>
<path d="M12369 4081 c-20 -16 -24 -28 -23 -73 1 -75 21 -263 35 -328 13 -62
13 -73 23 -375 4 -121 12 -260 17 -310 5 -49 14 -139 19 -200 19 -204 33 -318
61 -499 7 -39 13 -95 16 -125 8 -99 22 -171 34 -171 5 0 6 19 3 43 -4 23 -8
58 -10 77 -1 19 -5 60 -9 90 -7 67 -7 63 1 126 3 28 1 120 -5 205 -15 197 -28
431 -36 633 -3 88 -10 180 -15 205 -5 25 -11 136 -15 246 -3 110 -8 252 -11
315 -8 152 -29 187 -85 141z"/>
<path d="M28850 3842 c0 -12 49 -37 56 -29 11 10 -17 37 -37 37 -11 0 -19 -4
-19 -8z"/>
<path d="M16420 3593 c-27 -4 -76 -17 -150 -40 -101 -32 -293 -153 -288 -182
6 -31 47 -22 165 34 146 70 215 86 363 87 155 1 209 -19 302 -110 39 -38 81
-91 99 -126 18 -34 37 -68 44 -76 24 -30 84 -198 110 -305 44 -188 29 -372
-42 -513 -58 -115 -201 -252 -329 -316 -115 -57 -155 -73 -259 -102 -95 -27
-111 -28 -300 -28 -199 0 -200 0 -289 32 -187 67 -313 166 -377 297 -28 58
-34 80 -33 130 3 128 85 285 223 424 168 171 341 301 471 353 184 74 244 82
353 46 63 -20 71 -21 95 -7 68 38 18 109 -90 128 -105 18 -218 -3 -384 -72
-211 -88 -493 -326 -637 -536 -79 -116 -116 -209 -124 -307 -10 -115 56 -271
154 -366 48 -47 187 -138 209 -138 7 0 28 -9 46 -19 18 -11 74 -30 123 -42
120 -31 393 -34 525 -6 168 37 399 147 510 245 96 85 240 280 240 326 0 7 9
41 20 75 30 94 34 248 10 361 -27 126 -82 295 -110 340 -6 8 -14 25 -19 37
-24 54 -123 201 -158 234 -58 55 -142 105 -203 123 -52 15 -216 26 -270 19z"/>
<path d="M9389 3530 c-33 -25 -31 45 -31 -1008 0 -624 3 -828 13 -878 13 -64
29 -91 48 -80 5 4 10 103 10 244 0 223 4 373 16 572 14 234 20 477 16 677 -3
201 -1 227 17 285 11 34 23 80 27 101 6 35 3 42 -30 73 -42 39 -50 41 -86 14z"/>
<path d="M14855 2211 c-3 -11 1 -33 9 -48 l14 -28 7 27 c8 33 4 60 -12 65 -6
2 -14 -5 -18 -16z"/>
<path d="M14870 2086 c0 -14 5 -28 10 -31 6 -4 10 7 10 24 0 17 -4 31 -10 31
-5 0 -10 -11 -10 -24z"/>
<path d="M14864 1905 c-8 -32 1 -55 21 -55 9 0 18 7 21 15 9 23 -5 65 -21 65
-8 0 -17 -11 -21 -25z"/>
<path d="M14886 1733 c-8 -25 3 -55 18 -50 17 6 18 30 3 52 -14 18 -15 18 -21
-2z"/>
<path d="M14886 1649 c-3 -8 -7 -32 -8 -54 -3 -34 0 -40 17 -40 17 0 19 6 17
45 -4 47 -18 74 -26 49z"/>
<path d="M14904 1454 c3 -9 6 -20 6 -25 0 -6 4 -8 9 -5 12 8 2 46 -11 46 -6 0
-7 -7 -4 -16z"/>
<path d="M14912 1340 c0 -14 2 -19 5 -12 2 6 2 18 0 25 -3 6 -5 1 -5 -13z"/>
<path d="M14904 1267 c-9 -24 6 -44 18 -22 7 11 6 21 -1 28 -7 7 -12 6 -17 -6z"/>
<path d="M14910 1110 c0 -5 7 -10 16 -10 8 0 12 5 9 10 -3 6 -10 10 -16 10 -5
0 -9 -4 -9 -10z"/>
<path d="M720 519 c-200 -30 -322 -67 -445 -134 -76 -42 -175 -121 -175 -139
0 -5 -10 -23 -23 -40 -31 -42 -47 -81 -47 -116 0 -16 -4 -32 -10 -35 -5 -3
-10 -17 -10 -31 0 -23 3 -25 38 -22 35 3 38 6 55 57 38 116 129 213 257 274
241 115 595 146 895 76 167 -39 322 -110 390 -179 60 -61 64 -89 26 -166 l-31
-59 46 -3 c61 -4 71 0 89 44 43 103 0 213 -115 295 -108 77 -347 158 -531 179
-99 12 -331 11 -409 -1z"/>
</g>
</svg>
