<?xml version="1.0" standalone="no"?>
<!DOCTYPE svg PUBLIC "-//W3C//DTD SVG 20010904//EN"
 "http://www.w3.org/TR/2001/REC-SVG-20010904/DTD/svg10.dtd">
<svg version="1.0" xmlns="http://www.w3.org/2000/svg"
 width="3264.000000pt" height="2448.000000pt" viewBox="0 0 3264.000000 2448.000000"
 preserveAspectRatio="xMidYMid meet">
<metadata>
Created by potrace 1.12, written by Peter Selinger 2001-2015
</metadata>
<g transform="translate(0.000000,2448.000000) scale(0.100000,-0.100000)"
fill="#000000" stroke="none">
<path d="M8183 22589 c-19 -19 -16 -37 10 -53 41 -27 428 -41 712 -27 134 7
312 11 395 10 98 -2 154 1 161 8 14 14 3 51 -19 61 -17 8 -251 1 -512 -17
-216 -15 -517 -4 -695 24 -27 4 -44 2 -52 -6z"/>
<path d="M6580 22361 c-83 -26 -144 -66 -205 -135 -176 -197 -205 -478 -59
-579 59 -41 143 -48 221 -17 66 27 97 46 171 108 77 65 129 140 197 280 20 39
39 72 44 72 4 0 13 -18 20 -41 16 -52 68 -149 144 -267 48 -74 64 -92 81 -90
41 6 31 44 -27 108 -31 35 -75 102 -106 162 -48 94 -53 111 -60 196 -5 51 -12
97 -17 101 -33 29 -103 79 -124 89 -70 34 -197 40 -280 13z m250 -60 c51 -16
93 -52 93 -82 0 -34 -47 -147 -107 -258 -60 -111 -152 -210 -241 -261 -54 -31
-68 -34 -137 -35 -68 0 -79 3 -103 25 -63 59 -77 143 -45 265 43 165 169 311
308 356 33 11 185 4 232 -10z"/>
<path d="M11337 22324 c-34 -11 -53 -12 -66 -4 -34 18 -68 11 -158 -32 -323
-153 -387 -550 -107 -658 44 -17 87 -24 169 -27 138 -6 235 16 384 88 123 60
191 122 239 218 42 84 47 118 28 183 -49 171 -300 290 -489 232z m238 -66 c64
-24 120 -63 158 -111 25 -30 32 -49 35 -96 4 -52 0 -66 -28 -119 -41 -77 -87
-121 -181 -171 -121 -65 -209 -92 -325 -98 -222 -12 -347 72 -348 234 0 53 6
74 39 138 46 91 108 151 201 195 35 16 66 30 69 30 2 0 2 -13 -1 -30 -9 -40
10 -39 75 4 32 22 69 37 99 41 26 4 52 8 57 9 22 6 103 -8 150 -26z"/>
<path d="M8871 22267 c-6 -8 -20 -42 -31 -78 -24 -78 -61 -135 -137 -213 -94
-95 -215 -166 -285 -166 -78 0 -44 156 54 246 79 73 223 133 287 119 36 -8 57
14 41 44 -38 72 -259 1 -375 -120 -133 -139 -150 -323 -33 -353 103 -26 320
115 423 274 23 36 44 72 47 80 7 18 5 23 43 -105 15 -49 40 -115 55 -145 36
-70 109 -140 148 -140 38 0 74 27 70 53 -3 19 -8 22 -45 19 -34 -3 -47 2 -76
27 -28 25 -41 52 -72 143 -21 62 -39 140 -42 173 -6 94 -13 123 -29 140 -19
18 -28 19 -43 2z"/>
<path d="M7903 22043 c-36 -14 5 -86 45 -81 35 4 41 39 13 67 -21 21 -34 24
-58 14z"/>
<path d="M10325 22039 c-49 -4 -142 -7 -205 -8 -124 -2 -245 -15 -297 -32 -27
-9 -33 -16 -33 -39 0 -37 16 -42 78 -20 62 22 198 40 301 40 121 0 304 20 320
36 12 11 11 15 -13 24 -15 5 -35 9 -44 8 -9 0 -57 -4 -107 -9z"/>
<path d="M10450 21895 c-30 -8 -149 -19 -265 -25 -245 -12 -272 -16 -285 -40
-15 -28 15 -54 54 -46 72 15 256 36 313 36 74 0 202 17 252 33 25 9 36 18 36
32 0 26 -31 28 -105 10z"/>
<path d="M17543 19935 c-91 -33 -144 -67 -203 -132 -105 -115 -128 -248 -52
-300 36 -24 89 -22 152 5 l35 16 -55 8 c-30 5 -66 17 -80 27 -37 27 -38 85 -5
153 32 65 58 95 116 135 65 45 105 59 205 72 112 16 124 19 104 31 -28 18
-152 9 -217 -15z"/>
<path d="M17867 19933 c-14 -13 -7 -72 17 -146 13 -42 27 -91 31 -109 11 -50
65 -146 111 -197 22 -25 43 -54 47 -64 10 -27 33 -31 61 -10 35 25 32 49 -9
69 -23 11 -50 39 -78 83 -63 95 -86 163 -101 291 -6 60 -23 90 -49 90 -13 0
-27 -3 -30 -7z"/>
<path d="M17744 19728 c-23 -15 -56 -44 -73 -63 -17 -19 -39 -35 -49 -35 -11
0 -25 -6 -31 -14 -6 -7 -31 -26 -56 -42 -50 -31 -56 -44 -21 -44 23 0 113 61
129 87 4 7 16 13 26 13 19 0 124 106 119 119 -2 4 -22 -5 -44 -21z"/>
<path d="M7300 19513 c-25 -2 -135 -10 -246 -18 -243 -18 -341 -19 -476 -3
-57 7 -119 12 -138 12 -32 1 -35 -1 -35 -29 l0 -30 100 -8 c149 -13 411 -12
580 2 83 6 217 13 300 14 135 2 150 4 153 20 9 45 -46 54 -238 40z"/>
<path d="M6655 19307 c-52 -24 -69 -52 -73 -120 -3 -52 0 -67 20 -97 13 -19
39 -43 58 -52 86 -44 264 -2 367 87 23 19 43 35 46 35 2 0 12 -20 21 -44 28
-73 116 -140 162 -122 28 11 13 49 -22 57 -17 3 -36 9 -43 13 -22 14 -54 91
-60 145 -7 67 -33 90 -59 53 -9 -13 -30 -38 -45 -55 -26 -30 -29 -31 -40 -13
-7 10 -21 32 -32 49 -32 48 -84 69 -183 74 -61 2 -96 -1 -117 -10z m213 -58
c45 -17 62 -39 62 -81 0 -36 -3 -40 -37 -54 -91 -38 -204 -42 -238 -8 -36 36
-6 131 49 155 24 10 125 3 164 -12z"/>
<path d="M9291 19303 c-7 -14 -6 -33 5 -69 8 -27 22 -137 29 -244 8 -107 17
-213 20 -235 14 -110 37 -543 37 -717 0 -245 -6 -296 -35 -302 -63 -13 -1075
-45 -1452 -47 -137 0 -382 -6 -544 -12 -270 -11 -295 -11 -313 5 -42 36 -194
51 -673 68 -154 5 -316 12 -360 15 -44 4 -168 10 -275 15 -107 5 -244 14 -305
19 -184 16 -259 20 -565 32 -162 6 -361 13 -442 17 -272 13 -578 -4 -978 -53
-317 -39 -393 -46 -635 -55 -127 -4 -237 -10 -245 -12 -12 -2 -16 17 -22 107
-3 61 -11 153 -16 205 -11 98 -15 204 -13 373 l1 98 45 48 45 48 172 6 c95 3
250 13 343 22 123 12 178 14 198 6 l27 -11 0 -178 c0 -203 4 -218 61 -210 61
9 220 54 399 113 96 31 213 68 260 82 47 14 111 36 142 49 32 13 64 24 72 24
8 0 23 -16 34 -34 41 -70 181 -126 335 -134 78 -4 96 -1 164 23 61 22 89 40
132 82 47 47 58 53 83 48 20 -5 35 -2 46 9 40 35 595 44 1087 17 239 -13 529
-13 596 -1 30 6 147 12 261 15 114 2 212 6 218 10 19 12 257 56 380 70 69 8
181 21 250 30 291 35 542 48 925 48 209 0 394 -2 410 -4 25 -3 31 0 33 18 7
45 -18 48 -373 47 -181 0 -415 -6 -520 -13 -372 -23 -830 -74 -1015 -112 -71
-15 -150 -21 -312 -24 -120 -3 -237 -9 -260 -15 -56 -13 -418 -12 -678 1 -385
19 -995 10 -1063 -17 -12 -4 -21 5 -32 33 -47 112 -215 193 -375 180 -90 -7
-137 -29 -243 -109 -49 -37 -94 -68 -98 -68 -4 0 -36 20 -71 44 -58 41 -258
142 -388 197 -30 12 -84 41 -120 62 -36 22 -103 62 -150 89 -47 27 -99 63
-115 79 -34 32 -56 36 -75 14 -9 -11 -10 -37 -1 -112 10 -101 14 -177 12 -249
l-1 -41 -112 -1 c-62 0 -153 -5 -203 -11 -49 -6 -165 -15 -256 -21 l-166 -11
-36 36 c-51 51 -93 49 -147 -6 l-39 -41 -103 10 c-57 6 -164 7 -238 4 l-135
-7 0 -25 c0 -28 -39 -26 309 -20 l179 4 26 -33 c25 -32 25 -33 26 -274 2 -139
8 -272 15 -312 6 -38 15 -126 19 -195 l6 -125 45 1 c234 8 553 25 630 34 52 6
181 21 285 35 105 13 255 29 335 36 168 14 621 18 825 6 77 -4 246 -12 375
-17 129 -5 354 -18 500 -29 317 -24 653 -41 845 -43 77 0 219 -7 315 -14 96
-7 194 -13 218 -13 38 -1 42 -3 42 -26 0 -14 7 -28 16 -32 9 -3 217 1 463 10
245 9 579 19 741 22 456 8 910 24 1073 36 83 6 152 7 156 3 5 -5 2 -70 -5
-144 -21 -219 -21 -287 -1 -307 13 -14 21 -15 35 -7 15 10 18 36 24 190 4 98
12 206 17 239 23 136 24 507 2 815 -20 277 -56 697 -64 747 -8 44 11 48 252
48 134 0 264 -6 321 -14 116 -16 343 -72 459 -113 210 -74 428 -201 517 -302
86 -97 156 -281 185 -484 10 -73 9 -85 -5 -101 -20 -22 -20 -30 -1 -51 13 -15
14 -28 5 -82 -27 -170 -82 -253 -265 -402 -176 -143 -255 -193 -511 -319 -188
-92 -344 -148 -474 -171 -146 -25 -382 -48 -464 -44 -67 3 -80 0 -90 -15 -9
-15 -7 -21 9 -34 17 -12 41 -14 143 -9 157 7 364 32 467 56 261 60 690 272
915 451 214 170 300 293 324 460 l12 84 39 7 c61 11 411 9 590 -2 88 -6 302
-22 475 -35 173 -14 461 -29 640 -35 257 -8 373 -16 556 -39 127 -17 243 -35
257 -42 14 -6 33 -9 41 -6 22 9 20 54 -2 66 -42 22 -545 72 -826 81 -319 11
-356 13 -701 40 -473 38 -551 43 -810 44 l-260 1 -7 87 c-7 101 -56 285 -99
374 -42 90 -128 194 -206 251 -327 240 -832 378 -1308 358 -209 -8 -196 -8
-222 0 -15 5 -24 2 -32 -12z m-5847 -308 c18 -14 36 -25 39 -25 3 0 48 -28 99
-62 51 -34 163 -94 248 -134 85 -39 199 -92 254 -118 54 -26 109 -52 122 -57
13 -4 24 -15 24 -22 0 -17 -46 -35 -195 -78 -60 -17 -162 -48 -225 -69 -187
-62 -322 -100 -365 -103 l-40 -2 3 270 c1 149 -1 302 -6 340 -13 95 -10 99 42
60z m1259 -275 c136 -20 227 -83 227 -157 0 -73 -122 -149 -255 -160 -88 -8
-265 38 -312 80 -32 28 -29 57 12 110 41 54 102 98 165 120 53 19 73 20 163 7z"/>
<path d="M18405 19130 c-252 -65 -353 -74 -747 -67 -295 5 -339 4 -353 -9 -18
-19 -19 -26 -3 -42 9 -9 103 -12 360 -12 331 0 532 11 571 32 10 5 67 13 127
18 118 10 150 20 150 50 0 35 -42 47 -105 30z"/>
<path d="M8146 18952 c-2 -1 -79 -4 -172 -6 -163 -3 -317 -18 -521 -50 -196
-31 -289 -49 -332 -62 -25 -8 -61 -14 -80 -14 -20 0 -79 -7 -131 -14 -166 -25
-446 -33 -700 -21 -131 6 -428 6 -589 0 -73 -3 -168 -1 -210 5 -42 5 -107 12
-146 15 -95 8 -122 12 -135 20 -5 3 -19 3 -31 0 -17 -6 -20 -14 -17 -48 l3
-42 225 -2 c124 -1 277 -2 340 -2 185 0 326 -2 460 -6 69 -3 152 -4 185 -4
295 4 552 17 577 30 9 5 36 9 60 9 64 0 246 27 302 45 27 8 63 15 81 15 17 0
35 4 41 9 9 9 294 43 514 61 69 6 350 12 625 14 449 3 503 2 528 -13 27 -15
29 -15 43 3 8 11 14 30 14 42 0 22 -2 22 -102 18 -114 -5 -578 -6 -731 -2 -54
2 -100 2 -101 0z"/>
<path d="M3108 18905 c-12 -13 -366 -35 -633 -40 -267 -5 -442 -15 -570 -33
-41 -6 -51 -11 -53 -29 -2 -14 5 -27 21 -37 20 -13 36 -14 103 -6 121 14 543
32 684 28 123 -4 191 0 424 21 85 8 125 16 138 28 21 19 23 44 6 61 -12 12
-109 17 -120 7z"/>
<path d="M735 18887 c-104 -41 -187 -118 -240 -223 -26 -52 -30 -69 -30 -145
0 -78 2 -89 28 -122 101 -132 269 -62 380 159 41 82 52 113 71 197 9 38 29 34
55 -14 94 -167 188 -264 207 -214 7 17 6 18 -79 128 -31 42 -76 110 -98 152
-44 82 -60 95 -91 76 -15 -9 -30 -8 -70 4 -60 18 -92 18 -133 2z m174 -61 c27
-25 20 -58 -37 -171 -100 -197 -172 -275 -253 -275 -29 0 -43 7 -63 31 -33 39
-39 65 -34 137 9 127 99 243 223 290 44 17 140 10 164 -12z"/>
<path d="M17600 18869 c-120 -33 -244 -101 -293 -162 -113 -138 -136 -320 -48
-385 83 -61 237 -69 345 -17 67 32 215 172 256 243 60 103 80 132 92 132 7 0
26 -25 42 -56 32 -61 103 -161 168 -236 41 -49 72 -60 96 -36 21 21 14 35 -49
100 -69 71 -131 171 -166 267 -12 35 -23 66 -23 68 0 12 -53 21 -77 12 -23 -8
-30 -6 -57 20 -17 17 -48 37 -68 45 -42 18 -161 20 -218 5z m231 -71 c64 -30
67 -33 67 -67 0 -55 -78 -171 -185 -272 -195 -186 -449 -162 -430 41 13 144
150 275 329 314 103 23 144 20 219 -16z"/>
<path d="M12857 18825 c-18 -18 -11 -52 12 -59 9 -3 48 -5 86 -4 39 0 158 -9
265 -20 107 -12 233 -22 280 -24 80 -3 85 -2 88 18 6 38 -21 47 -136 45 -106
-1 -264 14 -456 44 -121 18 -121 18 -139 0z"/>
<path d="M11920 18776 c-73 -17 -117 -37 -188 -84 -69 -47 -113 -109 -120
-169 -4 -39 -1 -46 32 -79 36 -36 37 -37 102 -31 46 3 83 14 130 38 119 62
129 103 12 49 -204 -94 -305 -11 -155 127 51 47 86 67 165 94 112 38 200 18
243 -56 24 -40 39 -45 39 -14 0 40 -41 90 -94 115 -56 26 -85 28 -166 10z"/>
<path d="M12063 18662 c-20 -14 -20 -38 2 -82 12 -25 30 -71 39 -103 17 -59
40 -82 57 -56 13 19 3 70 -32 161 -29 74 -45 93 -66 80z"/>
<path d="M12905 18616 c-110 -27 -185 -94 -170 -153 9 -37 60 -81 103 -89 54
-10 131 9 239 61 119 57 137 56 141 -5 5 -91 11 -112 34 -108 34 5 42 57 24
145 -16 80 -29 103 -55 103 -9 0 -26 7 -38 15 -27 19 -137 45 -188 44 -22 0
-63 -6 -90 -13z m189 -55 c86 -20 72 -41 -58 -93 -104 -41 -193 -49 -219 -20
-31 34 -18 63 42 94 44 23 66 28 125 28 39 0 88 -5 110 -9z"/>
<path d="M12483 18543 c-19 -7 -16 -60 3 -67 22 -8 44 11 44 39 0 18 -22 40
-33 34 -1 0 -8 -3 -14 -6z"/>
<path d="M2290 18504 c-19 -49 -8 -238 30 -519 10 -77 24 -232 31 -344 15
-238 14 -237 98 -227 196 23 290 26 681 25 684 -3 713 -2 935 21 319 33 446
39 870 39 440 1 644 -10 1165 -59 58 -5 191 -17 295 -25 105 -8 201 -17 215
-20 84 -17 547 -37 925 -40 242 -3 485 -9 540 -14 55 -6 287 -15 515 -21 345
-10 420 -15 447 -28 31 -16 33 -15 58 8 14 13 25 29 25 36 0 42 -142 60 -560
69 -151 4 -324 11 -385 17 -60 5 -348 13 -640 18 -562 9 -834 25 -1520 90
-106 10 -191 18 -450 40 -149 12 -1064 18 -1200 7 -55 -5 -185 -17 -290 -28
-263 -27 -412 -32 -685 -22 -274 9 -681 1 -828 -17 -80 -10 -105 -11 -115 -1
-7 7 -15 60 -19 134 -10 185 -18 273 -33 377 -13 86 -31 331 -32 438 -1 23 -7
49 -13 57 -19 23 -49 18 -60 -11z"/>
<path d="M7342 18098 c-7 -7 -12 -17 -12 -24 0 -6 -7 -17 -15 -24 -13 -10 -19
-10 -33 3 -50 46 -140 50 -260 12 -117 -37 -164 -103 -112 -155 30 -30 63 -40
134 -40 81 0 145 20 230 71 66 40 70 41 82 23 64 -95 106 -126 132 -100 14 13
12 18 -14 43 -33 31 -50 67 -60 128 -10 62 -44 91 -72 63z m-102 -63 c47 -24
37 -43 -43 -80 -108 -50 -216 -59 -231 -19 -14 38 30 73 126 98 70 19 113 19
148 1z"/>
<path d="M18395 17884 c-65 -9 -201 -13 -391 -13 -318 1 -338 -2 -332 -49 3
-25 6 -27 48 -25 25 1 213 6 419 12 329 9 376 12 392 27 33 30 18 67 -24 63
-7 -1 -57 -8 -112 -15z"/>
<path d="M11148 17770 c-29 -18 -21 -40 20 -57 32 -14 110 -17 627 -19 325 -2
637 -8 695 -14 58 -5 329 -15 602 -20 448 -10 501 -9 528 5 39 20 48 42 26 63
-15 15 -82 17 -674 25 -361 4 -758 11 -882 15 -191 7 -439 6 -620 -1 -25 0
-103 2 -175 6 -89 5 -136 4 -147 -3z"/>
<path d="M17018 17740 c-110 -17 -232 -98 -284 -186 -37 -63 -43 -147 -15
-202 34 -68 123 -102 209 -80 60 15 153 106 201 196 18 35 37 60 41 55 5 -4
26 -49 48 -99 22 -51 54 -113 72 -139 26 -38 36 -46 58 -43 36 4 39 30 9 70
-33 43 -62 102 -112 223 -42 101 -60 120 -90 95 -7 -6 -17 -23 -20 -38 -10
-45 -117 -194 -161 -225 -123 -86 -256 4 -200 137 48 115 203 195 355 183 64
-5 68 -7 109 -53 36 -39 47 -46 60 -37 26 16 25 38 -4 72 -54 64 -154 90 -276
71z"/>
<path d="M18009 17706 c-113 -46 -157 -85 -198 -176 -26 -56 -26 -116 -2 -156
35 -57 123 -80 194 -51 48 21 143 112 183 178 20 32 40 57 43 54 4 -2 30 -42
59 -88 57 -93 101 -137 138 -137 38 0 31 39 -16 85 -55 54 -100 135 -100 182
-1 43 -27 80 -80 112 -49 29 -146 28 -221 -3z m185 -39 c17 -13 17 -15 -3 -58
-31 -65 -125 -175 -177 -205 -91 -53 -160 -26 -156 62 3 79 56 139 165 189 58
27 143 33 171 12z"/>
<path d="M17626 17544 c-19 -18 -19 -20 -6 -45 15 -27 48 -24 62 5 21 48 -20
77 -56 40z"/>
<path d="M17991 16295 c-33 -29 -65 -91 -106 -210 -57 -164 -170 -409 -280
-605 -21 -38 -23 -47 -11 -64 15 -23 27 -28 42 -18 23 15 219 435 280 599 34
94 72 190 84 213 29 57 55 52 95 -17 89 -154 183 -309 241 -398 36 -55 85
-142 110 -192 27 -58 49 -93 59 -93 47 0 -9 135 -149 360 -57 91 -127 206
-154 256 -83 147 -96 165 -124 180 -38 20 -52 18 -87 -11z"/>
<path d="M6015 16227 c-15 -12 -17 -20 -10 -31 9 -14 71 -16 528 -19 423 -2
520 0 529 11 8 10 8 17 -4 28 -12 12 -92 15 -519 20 -446 6 -506 4 -524 -9z"/>
<path d="M3453 16053 c-4 -9 1 -80 10 -157 24 -200 26 -272 7 -268 -24 6 -544
20 -552 16 -3 -2 -174 -7 -380 -10 -205 -4 -381 -11 -391 -16 -11 -6 -17 -18
-15 -31 3 -22 4 -22 188 -19 102 2 199 5 215 5 l30 2 7 -80 c23 -248 28 -398
26 -745 l-3 -385 45 1 c25 1 83 7 130 13 86 12 1861 18 1879 7 5 -3 303 -6
662 -7 705 -2 1231 -12 1589 -29 124 -6 356 -15 515 -20 160 -5 389 -16 510
-25 429 -29 521 -35 645 -45 134 -11 301 -4 312 13 4 6 2 19 -3 29 -8 16 -24
18 -118 18 -60 0 -308 13 -552 30 -885 59 -1739 84 -3284 95 -407 3 -895 8
-1085 11 -298 4 -1110 -8 -1163 -18 -17 -3 -18 19 -22 447 -3 248 -9 488 -14
535 -6 66 -5 90 5 107 8 12 11 29 7 38 -5 16 12 16 218 9 123 -4 298 -7 389
-6 150 2 168 1 198 -18 l32 -20 0 -97 c0 -53 5 -149 11 -212 15 -158 21 -163
114 -72 38 37 99 88 134 111 83 55 278 148 411 195 58 20 133 47 167 60 35 13
65 20 67 17 2 -4 9 -23 15 -44 49 -151 305 -178 403 -42 36 51 36 51 249 35
208 -16 693 -24 1344 -23 677 2 1707 12 1715 17 3 2 190 -1 415 -7 226 -6 425
-11 443 -11 37 -1 37 -3 17 -89 -8 -35 -19 -126 -25 -203 -6 -77 -20 -205 -32
-285 -23 -170 -42 -709 -27 -799 5 -31 9 -60 9 -64 0 -16 73 -38 153 -47 58
-7 142 -6 287 5 113 8 246 17 295 21 97 6 195 18 290 34 204 35 399 74 459 91
183 54 380 171 488 288 68 76 106 157 132 281 7 36 17 65 22 65 5 0 97 -6 204
-13 548 -37 642 -40 1285 -47 259 -3 529 -9 600 -14 141 -10 232 -2 246 20 17
27 2 34 -62 31 -35 -2 -152 1 -259 7 -107 6 -422 13 -700 16 -465 5 -670 14
-1219 53 -106 8 -100 3 -125 107 -40 171 -198 410 -357 541 -66 54 -212 143
-311 188 -102 47 -363 116 -583 155 -95 17 -630 69 -730 72 -119 2 -117 3
-113 -23 2 -19 10 -24 44 -26 l41 -3 7 -67 c3 -37 9 -95 13 -129 3 -34 3 -72
0 -85 l-6 -23 -1548 -3 c-1521 -2 -2104 5 -2456 31 l-159 12 -13 39 c-31 91
-144 166 -250 166 -93 0 -191 -59 -166 -99 7 -11 15 -10 45 8 43 27 49 11 7
-18 -35 -25 -43 -23 -136 40 -75 50 -286 154 -423 209 -46 18 -109 49 -140 68
-141 86 -177 104 -192 94 -31 -19 -21 -40 37 -78 62 -41 249 -138 323 -168 71
-29 383 -187 402 -204 23 -20 9 -38 -37 -46 -50 -10 -217 -64 -305 -99 -150
-59 -257 -120 -388 -220 -29 -22 -55 -37 -58 -34 -4 3 -9 73 -12 155 -4 126
-2 153 11 172 14 21 14 25 -3 49 -14 21 -19 53 -24 156 -14 274 -23 325 -63
325 -7 0 -17 -8 -20 -17z m5853 -252 c87 -11 200 -22 249 -26 234 -17 629
-108 785 -181 263 -124 430 -278 553 -513 68 -129 91 -215 84 -315 -6 -94 -42
-205 -86 -270 -60 -87 -217 -203 -367 -272 -173 -79 -629 -157 -1049 -181
-212 -12 -456 -10 -481 5 -31 17 -36 80 -30 357 5 226 13 327 41 515 8 52 19
160 25 240 6 80 21 192 32 250 23 114 27 224 14 338 l-9 72 40 0 c21 0 111 -9
199 -19z m-4657 -111 c47 -13 110 -58 127 -91 24 -47 18 -78 -24 -119 -59 -59
-143 -75 -210 -41 -58 30 -87 67 -83 107 2 21 64 73 99 85 31 10 33 14 28 40
-6 33 4 36 63 19z"/>
<path d="M18022 16003 c-7 -15 -16 -109 -22 -208 -6 -99 -15 -232 -21 -295
-15 -165 -1 -380 55 -825 20 -163 39 -476 29 -486 -5 -5 -57 -10 -117 -11
-109 -3 -125 -9 -106 -38 7 -11 37 -16 122 -20 l113 -5 3 -75 c1 -41 11 -167
22 -280 11 -113 22 -322 25 -465 7 -329 11 -422 35 -675 10 -113 21 -252 25
-310 3 -58 15 -188 27 -290 24 -222 40 -677 24 -702 -8 -13 -6 -22 11 -40 23
-26 38 -127 19 -129 -6 0 -38 -1 -71 -2 -60 -2 -60 -2 -60 -32 0 -30 0 -30 67
-35 37 -3 71 -9 76 -15 5 -5 13 -83 17 -172 6 -159 6 -163 -14 -163 -11 0 -75
4 -143 10 -176 14 -250 17 -751 30 -406 10 -451 10 -473 -4 -28 -19 -29 -25
-10 -51 12 -16 20 -17 72 -9 105 16 1280 -20 1313 -40 6 -4 10 -52 10 -124 -1
-64 6 -173 14 -242 27 -218 39 -668 19 -778 -8 -49 -22 -59 -33 -22 -65 232
-112 377 -125 392 -19 21 -60 24 -67 6 -2 -7 6 -33 18 -58 22 -44 55 -138 150
-430 76 -234 108 -280 192 -280 24 0 57 7 72 15 48 25 124 118 168 206 56 114
101 255 86 270 -23 23 -41 -2 -92 -128 -61 -148 -108 -223 -169 -270 -55 -41
-93 -43 -122 -5 -47 59 -50 82 -37 230 19 215 13 696 -12 941 -24 237 -25 267
-8 273 6 3 57 1 112 -3 280 -22 478 -29 1000 -36 314 -4 662 -8 775 -7 1074 4
1709 4 1990 -1 184 -2 511 -7 725 -10 550 -8 1663 -33 1960 -45 138 -5 324
-12 415 -15 355 -11 944 -36 1115 -45 281 -16 327 -18 540 -25 110 -3 315 -12
455 -20 403 -23 642 -34 975 -45 171 -6 360 -15 420 -20 61 -5 254 -16 430
-25 422 -20 722 -41 930 -66 94 -11 202 -19 240 -17 62 3 70 5 70 23 0 18 -10
21 -115 31 -63 7 -169 19 -235 27 -125 17 -337 33 -535 42 -63 3 -155 7 -205
10 -49 3 -148 7 -220 10 -71 4 -213 12 -315 20 -102 8 -282 17 -400 20 -215 6
-567 22 -1120 49 -162 8 -380 18 -485 21 -212 7 -285 10 -495 24 -176 12 -345
19 -1160 46 -239 8 -613 19 -830 25 -217 5 -487 12 -600 15 -567 15 -1727 27
-2880 30 -1434 3 -1920 10 -2217 31 -111 8 -231 14 -265 14 -35 0 -68 4 -73 8
-6 4 -10 51 -10 107 0 55 -4 128 -8 163 l-9 62 50 0 c27 0 66 -7 85 -15 21 -8
67 -15 105 -15 38 0 113 -7 168 -15 54 -8 176 -18 269 -21 108 -4 205 -13 265
-26 322 -66 343 -69 570 -67 189 2 237 -1 398 -25 l183 -28 152 18 c168 21
199 21 337 10 85 -7 101 -6 150 13 72 28 302 50 520 49 145 -1 171 2 216 20
50 20 188 40 313 45 78 3 94 20 112 117 17 100 9 95 150 95 68 0 205 1 304 2
99 1 203 0 230 -2 28 -1 101 2 164 7 131 12 141 7 141 -64 0 -25 7 -45 21 -59
20 -20 27 -21 177 -14 117 5 191 3 290 -9 172 -21 212 -20 374 4 115 17 174
19 433 16 165 -2 365 -10 445 -18 80 -8 161 -15 180 -16 182 -5 389 -20 405
-29 11 -6 70 -30 130 -54 141 -54 234 -63 340 -30 39 12 105 26 148 32 43 5
113 20 155 33 88 27 231 47 282 39 155 -22 302 -48 392 -69 176 -40 442 -58
514 -34 49 16 423 33 749 34 171 1 317 5 327 10 17 8 28 36 28 77 0 25 2 26
78 32 42 3 104 13 136 21 33 9 82 18 110 21 l51 6 -54 -48 c-139 -124 -146
-132 -134 -143 14 -15 24 -9 103 55 34 28 83 67 108 88 26 20 61 41 77 45 34
9 220 1 230 -10 4 -4 10 -39 13 -79 8 -88 5 -86 172 -88 63 -1 187 -6 275 -10
134 -7 183 -6 300 10 77 10 159 23 182 29 32 7 69 6 140 -5 53 -8 102 -10 108
-6 19 15 71 20 111 10 49 -13 19 -12 291 -6 154 4 251 11 290 21 71 18 516 15
738 -5 77 -6 255 -13 395 -14 151 -1 268 -6 288 -13 31 -10 32 -10 32 19 0 16
-4 29 -9 29 -5 0 -22 5 -38 12 -19 8 -108 12 -283 12 -140 1 -320 6 -400 13
-217 18 -652 23 -725 8 -90 -19 -462 -29 -570 -15 -49 6 -102 11 -117 11 -16
0 -28 4 -28 9 0 6 10 10 23 10 22 1 57 21 57 33 0 4 -8 6 -17 4 -10 -1 -40 3
-68 10 -47 11 -160 27 -270 39 -27 2 -214 7 -415 11 -201 3 -372 9 -381 14
-14 7 -15 34 -11 231 8 408 -49 1069 -123 1443 -38 188 -75 410 -85 500 -5 55
-15 143 -20 195 -6 52 -15 188 -20 303 -5 114 -12 212 -16 218 -20 34 -173 40
-319 13 -49 -9 -108 -17 -130 -16 -22 0 -76 -6 -120 -13 -44 -8 -105 -17 -136
-20 -31 -3 -63 -12 -71 -18 -33 -27 -50 -127 -45 -260 3 -69 8 -131 12 -138 4
-6 14 -95 21 -198 36 -513 40 -547 87 -771 13 -63 29 -146 36 -185 6 -38 16
-95 21 -125 13 -76 30 -371 30 -526 0 -70 7 -209 16 -308 19 -227 16 -345 -8
-357 -10 -5 -26 -13 -35 -18 -25 -12 -23 -46 2 -46 30 -1 45 -14 45 -39 l0
-24 -237 4 c-281 5 -724 -19 -821 -43 -57 -14 -80 -15 -196 -4 -72 7 -156 17
-186 23 -136 25 -187 36 -213 47 -16 6 -52 11 -81 11 -28 0 -58 6 -64 12 -9 9
-59 13 -170 13 -148 0 -163 -2 -262 -32 -58 -18 -143 -39 -190 -47 -47 -8
-110 -20 -140 -26 -92 -20 -173 -9 -280 37 -110 47 -120 48 -568 68 -90 4
-130 10 -149 22 -21 14 -33 15 -89 4 -53 -9 -80 -9 -152 3 -100 18 -574 16
-652 -2 -96 -22 -221 -25 -340 -7 -85 13 -161 16 -290 14 l-175 -4 -3 44 c-2
24 1 48 5 52 5 5 52 11 104 13 51 3 123 9 159 15 77 13 754 18 920 8 63 -4
151 -12 195 -17 140 -16 286 -20 334 -8 26 6 174 11 345 13 278 2 300 3 312
20 20 27 19 372 -1 480 -8 44 -26 139 -39 210 -33 177 -47 290 -56 485 -8 164
-23 252 -80 460 -57 206 -74 354 -85 725 -6 220 -19 373 -36 439 -14 53 -3 58
106 51 75 -5 105 -2 176 16 80 21 92 22 153 10 49 -10 124 -11 308 -6 203 6
258 5 333 -9 50 -9 149 -23 220 -30 97 -11 155 -23 230 -50 144 -50 348 -71
437 -44 31 9 44 9 59 0 10 -7 44 -12 75 -12 31 0 97 -7 147 -17 76 -13 102
-14 165 -4 41 6 80 16 87 21 6 5 41 11 78 12 88 4 96 -5 131 -157 79 -342 96
-417 110 -500 19 -109 32 -215 46 -355 5 -58 14 -134 19 -170 6 -36 15 -110
22 -165 6 -55 20 -138 30 -185 31 -137 46 -229 53 -320 8 -103 23 -211 41
-305 16 -84 27 -277 29 -515 1 -152 3 -175 17 -178 44 -8 50 434 9 718 -10 74
-24 189 -30 255 -13 152 -34 293 -55 370 -8 33 -24 137 -35 230 -11 94 -22
179 -25 191 -2 12 -9 70 -15 130 -23 251 -47 406 -100 634 -87 381 -91 388
-235 391 -50 1 -134 -4 -189 -12 -89 -12 -109 -11 -215 6 -79 13 -154 18 -236
16 -158 -4 -324 20 -456 64 -79 27 -132 38 -220 45 -63 5 -148 16 -187 25 -56
11 -143 15 -390 14 -174 0 -333 0 -354 1 -20 1 -66 -5 -103 -15 -36 -9 -99
-16 -138 -15 -139 3 -164 0 -186 -17 -21 -17 -21 -20 -7 -68 17 -58 32 -266
46 -625 12 -284 29 -397 99 -650 38 -135 52 -223 61 -385 5 -88 16 -216 24
-285 14 -117 62 -375 73 -393 3 -5 9 -104 14 -220 6 -157 5 -215 -4 -225 -8
-11 -25 -13 -67 -8 -134 16 -197 17 -293 2 -222 -33 -280 -38 -347 -27 -36 6
-144 17 -240 25 -96 9 -215 20 -265 25 -87 10 -772 6 -804 -4 -31 -9 -236 -45
-263 -45 -15 0 -29 4 -32 9 -16 25 -54 405 -57 561 -1 97 1 109 25 150 14 25
26 55 26 66 0 24 -21 37 -45 28 -13 -5 -15 21 -15 203 0 202 -25 478 -61 678
-6 33 -15 121 -19 195 -4 74 -18 191 -30 260 -55 322 -70 424 -79 540 -9 108
-8 127 5 141 9 10 14 26 12 35 -4 23 -68 37 -104 24 -18 -7 -45 -7 -85 0 -41
8 -65 8 -78 0 -11 -5 -50 -10 -88 -10 -37 0 -88 -7 -113 -16 -66 -23 -189 -30
-247 -13 -26 8 -86 14 -133 14 -72 -1 -94 -5 -142 -29 -92 -44 -88 -29 -88
-359 0 -279 3 -348 35 -782 8 -110 17 -254 20 -320 3 -66 12 -165 20 -220 28
-202 46 -323 65 -440 10 -66 22 -156 25 -200 4 -44 20 -165 36 -269 17 -104
29 -201 27 -215 -3 -23 -7 -26 -38 -23 -19 1 -58 10 -87 18 l-53 15 0 77 c0
42 -7 113 -16 157 -16 87 -39 273 -54 455 -5 63 -14 171 -20 240 -6 69 -15
204 -20 300 -10 189 -32 425 -50 530 -6 36 -24 139 -41 230 -16 91 -34 195
-39 232 -5 37 -25 113 -44 170 -50 150 -56 174 -66 272 -13 135 -1 129 -278
137 -126 3 -234 9 -240 13 -19 11 -333 32 -417 26 -27 -1 -104 1 -170 6 -66 5
-520 8 -1010 7 -759 -2 -1062 -8 -1340 -27 -27 -2 -56 -1 -62 1 -9 3 -13 35
-13 111 -1 152 -15 328 -45 545 -14 104 -30 263 -37 355 -11 151 -10 192 10
417 30 343 32 419 11 423 -10 2 -21 -8 -27 -25z m4900 -1972 c4 -62 21 -197
38 -300 16 -102 33 -204 36 -226 3 -22 11 -71 19 -110 8 -38 16 -131 19 -205
4 -74 13 -166 21 -205 37 -172 65 -451 66 -651 0 -110 4 -226 8 -259 10 -70 7
-77 -66 -168 -88 -109 -221 -237 -348 -332 -64 -49 -166 -131 -227 -183 l-109
-95 -66 2 c-36 1 -69 3 -73 6 -4 2 -10 48 -13 102 -4 54 -14 136 -22 183 -14
77 -45 331 -45 372 0 9 29 40 64 70 35 29 146 130 246 223 101 94 208 193 238
220 58 54 208 223 236 267 23 35 13 70 -17 66 -13 -2 -38 -28 -66 -68 -72
-105 -694 -711 -711 -694 -5 5 -18 81 -30 169 -12 88 -25 178 -30 200 -4 22
-11 68 -15 103 l-7 62 38 36 c34 32 86 73 173 139 131 99 369 296 423 352 72
74 193 230 203 263 7 23 -10 50 -30 50 -7 0 -39 -38 -70 -85 -98 -146 -226
-275 -405 -410 -70 -52 -219 -173 -235 -190 -5 -6 -31 -28 -57 -48 l-46 -37
-5 38 c-3 20 -6 91 -6 157 0 66 -5 152 -10 190 -20 135 -18 145 42 192 28 22
101 86 160 142 175 163 380 334 572 475 48 36 55 45 48 63 -14 37 -66 6 -285
-169 -180 -145 -362 -305 -463 -407 -38 -39 -74 -71 -81 -71 -7 0 -14 56 -22
163 l-10 162 46 45 c26 26 77 80 115 122 73 83 181 174 320 270 76 52 88 63
83 83 -6 22 -4 22 152 32 86 5 166 10 177 9 18 -1 21 -11 27 -115z m-2032 86
c107 -3 224 -11 260 -17 36 -7 139 -15 229 -18 l165 -7 17 -87 c9 -48 35 -144
57 -215 81 -250 190 -936 191 -1197 1 -49 3 -103 6 -120 2 -17 9 -110 15 -206
13 -210 48 -559 61 -615 6 -22 14 -85 19 -140 10 -107 24 -200 35 -226 5 -13
28 -18 108 -23 126 -8 134 -14 117 -85 -21 -87 -26 -90 -180 -101 -92 -6 -156
-16 -200 -31 -59 -20 -93 -23 -360 -30 -288 -6 -296 -7 -355 -33 -67 -28 -102
-31 -223 -16 -65 9 -103 8 -175 -4 -175 -28 -236 -28 -426 0 -152 23 -205 27
-389 25 -225 -2 -259 2 -542 59 -116 23 -182 30 -330 34 -102 3 -223 13 -270
21 -47 8 -111 15 -143 15 -63 0 -248 27 -259 38 -10 11 -13 107 -2 106 12 -1
95 -25 119 -34 30 -12 146 -31 175 -29 14 1 49 -2 79 -6 40 -6 52 -5 47 4 -4
6 -20 11 -36 11 -16 0 -32 5 -35 10 -3 6 -17 7 -31 4 -17 -4 -24 -2 -24 9 0
21 -25 28 -60 15 -28 -9 -33 -8 -46 11 -15 21 -82 32 -69 11 3 -5 2 -10 -2
-10 -5 0 -14 9 -20 19 -7 11 -36 26 -65 35 l-53 15 -1 238 c-1 176 -7 286 -23
421 -11 101 -26 252 -31 335 -6 84 -20 242 -31 352 -13 125 -24 327 -29 540
-5 187 -11 372 -15 410 -9 96 -47 478 -48 490 -1 6 82 13 221 17 123 3 227 9
230 13 8 7 2025 0 2322 -8z m1363 -8 c62 -12 203 -12 245 1 52 14 26 -8 -96
-85 -59 -37 -127 -84 -152 -103 -57 -46 -163 -155 -203 -209 -17 -24 -34 -43
-38 -43 -9 0 -9 395 0 408 9 13 52 35 86 43 32 7 79 4 158 -12z m6805 -53 c5
-3 11 -74 14 -158 l5 -152 -81 -84 c-45 -46 -144 -141 -221 -211 -150 -136
-325 -309 -325 -322 0 -21 21 -15 68 20 71 54 326 283 460 415 61 61 112 108
112 106 1 -3 3 -50 5 -105 8 -174 16 -257 36 -354 105 -512 167 -1019 185
-1512 l7 -186 -29 -53 c-16 -30 -67 -93 -114 -142 l-85 -88 -65 0 c-80 0 -163
-13 -302 -47 -60 -15 -111 -23 -115 -19 -4 4 -8 73 -10 154 -2 81 -8 181 -13
222 -6 41 -15 224 -20 405 -7 219 -16 363 -27 428 l-16 99 34 26 c71 53 454
440 510 515 62 82 76 127 40 127 -13 0 -33 -20 -58 -57 -38 -57 -509 -550
-528 -553 -5 0 -17 41 -26 92 -9 51 -24 120 -32 153 -28 108 -38 207 -66 660
-9 140 -8 163 6 185 29 45 206 213 328 312 66 52 129 105 139 117 18 20 27 21
98 17 42 -2 82 -7 86 -10z m-415 -46 c-7 -25 4 -25 63 0 26 11 49 18 52 15 7
-7 11 -3 -133 -117 -66 -53 -136 -112 -155 -133 -33 -35 -88 -71 -96 -63 -2 2
-6 41 -10 86 -7 78 5 159 28 188 4 6 40 15 79 18 39 4 81 11 93 16 11 5 35 9
53 9 26 1 30 -2 26 -19z m-5509 -2162 c3 -24 7 -104 10 -180 3 -75 15 -182 26
-239 14 -71 17 -106 9 -114 -15 -15 -699 -14 -699 2 0 6 33 35 73 64 326 239
407 309 507 438 30 39 58 71 62 71 4 0 9 -19 12 -42z m6181 -635 c-3 -10 -14
-13 -32 -9 -16 3 -47 8 -70 11 -24 4 -43 12 -43 18 0 6 33 44 73 84 l72 72 3
-81 c2 -45 0 -88 -3 -95z m284 -89 c97 -3 183 -8 191 -11 8 -3 112 -8 230 -9
194 -3 252 -9 315 -34 24 -9 23 -9 -200 -41 -137 -19 -176 -20 -447 -14 -332
8 -314 3 -302 82 5 34 10 43 22 38 8 -3 94 -8 191 -11z m821 -50 c0 -2 -15 -4
-32 -4 -23 0 -29 3 -19 9 12 8 51 4 51 -5z"/>
<path d="M20800 14048 c0 -29 5 -80 10 -113 10 -60 15 -155 25 -425 3 -80 10
-183 15 -230 5 -47 8 -92 7 -100 -1 -8 4 -64 10 -125 18 -155 32 -346 39 -515
3 -80 7 -163 9 -185 15 -141 25 -307 30 -490 7 -276 20 -477 35 -544 7 -32 10
-80 6 -117 -5 -51 -4 -63 10 -68 26 -10 31 -7 43 23 10 23 9 53 -4 147 -15
107 -26 272 -40 599 -6 141 -14 258 -20 315 -19 164 -18 154 -33 482 -6 114
-13 211 -16 216 -3 6 -11 74 -16 153 -11 138 -17 213 -25 289 -2 19 -7 132
-10 250 -4 118 -11 237 -16 263 -5 26 -9 71 -10 100 0 59 -18 118 -36 125 -9
3 -13 -11 -13 -50z"/>
<path d="M20474 13989 c-10 -12 -44 -40 -74 -62 -30 -23 -102 -85 -161 -138
-147 -135 -186 -217 -108 -227 20 -2 49 24 164 148 77 84 144 158 148 166 12
21 34 17 40 -8 4 -12 1 -106 -5 -208 -10 -158 -9 -210 6 -359 9 -96 19 -278
22 -405 4 -127 9 -285 14 -351 9 -153 3 -361 -15 -542 -16 -154 -20 -460 -6
-481 5 -8 17 -12 27 -10 18 3 19 19 25 248 4 135 12 304 19 375 15 153 -1 816
-26 1120 -9 107 -14 263 -13 385 2 113 -1 225 -5 249 -20 108 63 -26 127 -205
26 -73 36 -90 55 -92 12 -2 22 1 22 6 0 16 -47 144 -90 250 -60 143 -119 193
-166 141z"/>
<path d="M18830 11200 c0 -5 7 -10 15 -10 8 0 15 5 15 10 0 6 -7 10 -15 10 -8
0 -15 -4 -15 -10z"/>
<path d="M18886 11202 c-3 -6 -1 -14 5 -17 15 -10 25 3 12 16 -7 7 -13 7 -17
1z"/>
<path d="M20645 11165 c-33 -7 -65 -9 -70 -5 -6 5 -33 4 -60 -1 -28 -5 -75 -9
-105 -8 -30 0 -227 0 -436 -2 -210 -1 -387 1 -393 5 -6 4 -20 2 -32 -5 l-22
-11 23 -18 c21 -16 55 -17 439 -14 229 2 439 6 466 9 28 3 149 8 270 11 121 3
227 8 235 10 33 11 -17 22 -130 29 -63 4 -117 8 -120 10 -3 1 -32 -3 -65 -10z"/>
<path d="M19055 11150 c-3 -5 1 -10 10 -10 9 0 13 5 10 10 -3 6 -8 10 -10 10
-2 0 -7 -4 -10 -10z"/>
<path d="M19487 11144 c-8 -8 1 -24 14 -24 5 0 9 7 9 15 0 15 -12 20 -23 9z"/>
<path d="M29098 12213 c-54 -73 -140 -172 -199 -228 -248 -239 -288 -285 -245
-285 19 0 303 257 390 352 83 91 188 243 184 266 -8 42 -37 19 -130 -105z"/>
<path d="M6605 16001 c-5 -16 -14 -18 -98 -13 -162 8 -335 -51 -381 -131 -16
-29 -19 -40 -10 -54 19 -31 42 -27 57 9 8 18 24 41 35 52 38 34 149 66 248 73
83 5 94 4 100 -11 5 -12 -1 -26 -17 -41 -38 -38 -166 -105 -198 -105 -16 0
-41 -4 -54 -9 -14 -6 -50 -11 -81 -13 -60 -3 -73 -13 -30 -24 37 -9 304 13
320 27 8 6 14 17 14 24 0 23 74 75 97 69 15 -4 25 1 33 15 13 26 30 19 30 -13
0 -13 15 -43 33 -67 41 -53 57 -83 57 -103 0 -13 -27 -15 -207 -15 -115 1
-263 5 -331 10 -72 5 -265 5 -465 -1 -188 -5 -446 -10 -572 -11 -250 -1 -285
-4 -285 -25 0 -35 35 -37 469 -30 235 4 620 9 856 11 237 2 543 7 680 11 614
17 1219 -5 1585 -56 80 -11 174 -25 210 -30 36 -5 77 -12 93 -16 24 -6 27 -4
27 19 0 22 -6 28 -42 38 -23 6 -51 17 -61 24 -14 10 -25 11 -42 3 -24 -11
-272 13 -345 33 -98 27 -1143 46 -1401 26 l-106 -9 -27 61 c-15 34 -30 77 -33
96 -3 18 -16 44 -29 56 -13 12 -24 27 -24 33 0 6 -14 32 -30 59 -32 50 -64 62
-75 28z"/>
<path d="M3262 15875 c-17 -8 -63 -14 -101 -14 -39 0 -79 -5 -91 -11 -15 -8
-133 -13 -374 -16 -540 -6 -617 -10 -637 -31 -12 -12 -16 -27 -12 -45 6 -33
31 -36 90 -14 21 8 85 18 143 22 122 8 114 8 250 5 58 -1 134 2 170 7 36 5
128 10 205 11 77 1 171 9 209 16 38 8 87 12 108 10 21 -3 56 -7 78 -10 34 -5
42 -2 57 21 16 26 16 27 -6 45 -27 22 -45 23 -89 4z"/>
<path d="M1121 15684 c-127 -34 -250 -127 -271 -204 -26 -95 35 -214 134 -265
50 -25 70 -29 130 -29 61 1 81 6 132 33 100 53 185 159 217 268 20 69 38 61
62 -27 28 -98 56 -152 113 -213 60 -64 116 -99 150 -95 47 5 38 33 -21 66 -64
36 -108 84 -145 160 -34 67 -58 150 -47 160 4 4 28 -17 54 -45 26 -29 53 -53
59 -53 41 0 5 62 -84 142 -28 26 -55 59 -58 74 -6 24 -9 25 -54 20 -29 -4 -68
-1 -102 9 -69 19 -198 18 -269 -1z m315 -59 c19 -8 34 -21 34 -30 0 -40 -111
-217 -168 -266 -125 -110 -301 -108 -366 3 -50 89 -47 134 16 197 83 82 211
123 356 116 52 -3 109 -12 128 -20z"/>
<path d="M2392 15463 c-7 -12 -14 -117 -17 -264 -5 -223 -8 -295 -20 -549 -2
-47 -9 -119 -16 -160 -6 -41 -13 -95 -14 -120 -2 -25 -8 -58 -14 -73 -13 -33
-14 -74 -3 -81 4 -2 55 -7 112 -11 58 -4 108 -8 111 -11 16 -10 271 -19 477
-17 134 1 222 -2 222 -8 0 -10 43 -13 53 -3 4 4 98 8 210 9 190 2 227 5 227
23 0 6 -169 15 -280 15 -477 -1 -755 6 -865 23 -22 3 -65 7 -95 8 -107 5 -130
27 -105 98 18 50 36 208 34 293 -1 33 4 119 10 190 8 97 8 137 0 158 -8 19 -8
31 -1 40 6 6 10 23 10 37 0 14 4 104 7 200 7 166 7 176 -12 199 -20 25 -20 25
-31 4z"/>
<path d="M12397 15453 c-4 -3 -7 -17 -7 -29 0 -28 27 -38 78 -29 34 5 152 -3
519 -35 65 -6 127 -17 148 -27 26 -12 38 -14 46 -6 17 17 3 58 -25 71 -14 6
-110 18 -213 27 -103 9 -228 20 -278 25 -105 11 -259 13 -268 3z"/>
<path d="M11600 15311 c-85 -19 -182 -88 -216 -152 -18 -36 -18 -89 1 -116 22
-31 96 -57 142 -49 76 14 164 48 245 97 46 28 87 51 91 52 5 1 9 -24 10 -55 2
-61 23 -96 51 -85 12 5 14 16 10 49 -3 24 0 70 8 103 26 113 5 121 -104 43
-87 -63 -190 -112 -280 -134 -57 -14 -69 -14 -94 -2 -24 12 -29 19 -27 48 1
28 11 44 51 80 75 69 196 97 282 65 81 -30 80 -30 80 -2 0 19 -9 29 -36 42
-40 19 -161 28 -214 16z"/>
<path d="M12525 15271 c-82 -38 -115 -113 -80 -180 18 -36 82 -71 130 -71 39
0 103 30 147 69 20 17 38 31 40 31 3 0 10 -25 17 -55 14 -61 52 -115 82 -115
31 0 33 27 5 61 -14 17 -26 36 -27 42 -7 114 -18 190 -29 197 -16 10 -50 -5
-50 -22 0 -25 -56 -91 -98 -115 -88 -52 -183 -25 -167 47 11 52 55 73 138 66
67 -6 68 -6 65 16 -7 47 -100 63 -173 29z"/>
<path d="M12205 15144 c-19 -20 -16 -43 8 -58 20 -13 50 2 55 26 3 16 -23 48
-38 48 -5 0 -16 -7 -25 -16z"/>
<path d="M17745 15036 c-73 -32 -135 -113 -135 -176 0 -102 119 -199 243 -200
50 0 58 3 55 17 -2 12 -22 21 -71 31 -37 8 -67 19 -67 24 0 6 12 24 27 42 72
85 95 205 48 251 -27 28 -55 31 -100 11z m73 -83 c2 -18 -5 -49 -14 -69 -19
-40 -80 -104 -99 -104 -7 0 -20 19 -29 41 -17 42 -17 42 11 87 28 45 85 85
113 80 9 -2 16 -16 18 -35z"/>
<path d="M6342 14845 c-113 -44 -162 -99 -162 -182 0 -70 62 -101 165 -82 70
13 103 28 169 80 27 22 51 39 55 39 3 0 18 -23 34 -50 30 -55 69 -82 90 -61 9
9 8 18 -6 39 -9 15 -26 47 -37 72 -42 91 -44 95 -75 95 -21 0 -41 12 -66 38
-45 45 -75 47 -167 12z m148 -89 c14 -26 14 -28 -15 -52 -45 -36 -131 -65
-184 -62 -45 3 -46 4 -44 36 1 39 24 67 75 93 88 45 137 41 168 -15z"/>
<path d="M17540 14735 c-19 -14 -47 -25 -66 -25 -62 0 -114 -66 -116 -146 0
-34 5 -51 21 -67 35 -35 67 -9 121 97 69 137 96 139 120 8 7 -37 25 -117 41
-178 16 -61 29 -132 29 -157 0 -49 20 -80 45 -70 37 13 29 96 -31 311 -19 70
-39 144 -45 166 -11 41 -49 86 -72 86 -7 0 -28 -11 -47 -25z m-60 -80 c0 -11
-63 -106 -67 -101 -15 15 35 106 58 106 5 0 9 -2 9 -5z"/>
<path d="M11150 14606 c0 -21 150 -36 410 -41 221 -5 331 -12 510 -35 41 -6
149 -14 240 -20 91 -5 192 -13 225 -16 33 -4 83 -8 110 -9 28 -2 88 -7 135
-13 47 -6 141 -14 209 -18 81 -4 133 -11 147 -20 23 -16 54 -9 54 11 0 32 -30
38 -210 41 -99 1 -184 5 -190 9 -5 3 -43 8 -82 11 -40 3 -98 9 -128 14 -30 5
-100 12 -155 15 -109 6 -379 30 -515 45 -74 8 -282 19 -652 34 -84 4 -108 2
-108 -8z"/>
<path d="M17199 14543 c-1 -4 -2 -35 -3 -68 -4 -99 -69 -265 -128 -328 -41
-43 -65 -47 -74 -11 -9 35 49 146 98 188 63 54 47 69 -41 41 -25 -8 -84 -26
-131 -39 -47 -14 -120 -46 -162 -71 -42 -25 -79 -45 -82 -45 -5 0 -135 240
-154 283 -15 36 -41 46 -58 22 -17 -23 -6 -51 85 -201 39 -64 71 -124 71 -133
0 -9 -14 -25 -31 -35 -67 -40 -86 -76 -50 -96 16 -8 29 -2 73 30 39 31 55 37
61 28 145 -237 166 -262 181 -223 7 20 -26 85 -94 185 l-51 75 32 27 c54 46
259 137 259 115 0 -3 -12 -30 -26 -61 -46 -101 -29 -166 43 -166 70 0 152 132
187 302 6 31 14 60 18 63 4 4 23 -27 44 -68 38 -78 67 -115 109 -143 33 -21
32 -36 -2 -33 -34 4 -104 -10 -120 -24 -19 -14 -16 -35 5 -46 14 -8 32 -3 73
19 30 16 62 29 72 30 10 0 17 8 17 20 0 11 5 20 10 20 22 0 8 30 -21 47 -34
20 -92 108 -128 193 -38 92 -46 105 -64 108 -9 2 -17 0 -18 -5z"/>
<path d="M20747 14323 c-3 -16 -1 -32 4 -37 5 -6 9 -20 9 -33 0 -30 7 -29 33
3 18 23 25 26 64 20 34 -4 43 -2 43 9 0 9 6 12 15 9 8 -4 12 -11 8 -18 -4 -8
-3 -8 6 0 10 9 19 8 39 -1 15 -7 48 -16 75 -20 52 -7 59 3 31 43 -12 18 -19
20 -29 12 -10 -9 -20 -8 -37 3 -17 11 -35 13 -70 8 -27 -4 -48 -5 -48 -1 0 11
-65 30 -102 30 -31 0 -36 -4 -41 -27z"/>
<path d="M24285 14300 c-4 -6 13 -10 44 -10 27 0 53 5 56 10 4 6 -13 10 -44
10 -27 0 -53 -4 -56 -10z"/>
<path d="M24400 14301 c0 -9 24 -21 41 -21 5 0 9 7 9 15 0 9 -9 15 -25 15 -14
0 -25 -4 -25 -9z"/>
<path d="M23985 14289 c-10 -16 1 -22 26 -14 17 6 19 9 8 16 -19 12 -26 11
-34 -2z"/>
<path d="M23920 14282 c0 -14 11 -21 26 -15 8 3 11 9 8 14 -7 11 -34 12 -34 1z"/>
<path d="M24500 14276 c0 -8 4 -17 9 -20 4 -3 11 -20 15 -38 3 -18 11 -55 17
-83 6 -27 17 -95 25 -150 7 -55 19 -122 25 -150 12 -58 38 -242 46 -330 3 -33
9 -65 14 -71 5 -6 9 -33 8 -60 -1 -61 8 -186 15 -222 4 -15 8 -55 11 -90 2
-34 10 -90 17 -125 6 -34 11 -87 10 -117 l-1 -55 15 35 c17 39 15 193 -4 212
-5 5 -7 29 -4 53 2 24 -1 81 -8 127 -13 82 -15 95 -24 213 -7 74 -24 203 -36
270 -9 50 -16 108 -45 350 -14 116 -27 164 -57 215 -5 8 -11 23 -14 33 -8 21
-34 23 -34 3z"/>
<path d="M23740 14270 c0 -5 10 -10 23 -10 18 0 19 2 7 10 -19 13 -30 13 -30
0z"/>
<path d="M23840 14270 c0 -5 9 -10 19 -10 11 0 23 5 26 10 4 6 -5 10 -19 10
-14 0 -26 -4 -26 -10z"/>
<path d="M23645 14260 c-7 -12 22 -12 50 0 17 7 15 9 -12 9 -17 1 -35 -3 -38
-9z"/>
<path d="M21135 14250 c-3 -5 3 -10 14 -10 12 0 21 5 21 10 0 6 -6 10 -14 10
-8 0 -18 -4 -21 -10z"/>
<path d="M23413 14253 c-55 -4 -75 -23 -24 -23 50 0 121 12 121 21 0 5 -10 8
-22 7 -13 -1 -47 -3 -75 -5z"/>
<path d="M23593 14253 c9 -2 23 -2 30 0 6 3 -1 5 -18 5 -16 0 -22 -2 -12 -5z"/>
<path d="M30700 14251 l-35 -6 3 -75 c3 -67 35 -230 63 -317 5 -17 11 -44 13
-60 3 -15 11 -68 20 -118 8 -49 20 -124 25 -165 6 -41 19 -131 30 -200 11 -69
29 -201 40 -295 12 -93 26 -201 31 -240 13 -99 20 -221 26 -445 16 -668 28
-807 80 -990 13 -46 24 -92 24 -101 0 -19 -23 -26 -105 -34 -27 -2 -76 -7
-107 -11 -48 -5 -63 -2 -92 16 -33 20 -37 20 -65 5 -32 -16 -54 -44 -65 -82
-5 -16 -1 -26 16 -37 21 -14 36 -14 133 -1 61 7 127 19 149 25 22 7 59 9 86 5
28 -4 50 -3 54 3 3 6 15 8 26 5 28 -7 50 14 50 49 0 16 -13 82 -29 146 -16 64
-34 151 -40 192 -17 131 -25 195 -22 204 1 5 -3 99 -9 210 -6 110 -11 271 -11
356 1 179 -10 351 -39 570 -11 85 -25 193 -30 240 -6 47 -22 155 -35 240 -13
85 -31 207 -40 270 -19 131 -53 290 -85 400 -13 41 -25 89 -27 107 -8 53 18
54 317 8 77 -12 208 -15 680 -13 450 1 599 -1 647 -11 76 -16 93 -7 93 50 0
47 -14 52 -101 40 -37 -5 -94 -5 -138 1 -40 5 -315 10 -610 11 -490 2 -548 5
-671 24 -172 27 -207 30 -250 24z"/>
<path d="M21346 14243 c-12 -12 -5 -23 14 -23 11 0 20 4 20 9 0 11 -26 22 -34
14z"/>
<path d="M21640 14240 c-7 -4 -10 -12 -7 -17 9 -14 212 -21 225 -8 3 3 1 10
-4 15 -12 12 -197 20 -214 10z"/>
<path d="M23285 14240 c3 -5 17 -10 31 -10 14 0 22 4 19 10 -3 6 -17 10 -31
10 -14 0 -22 -4 -19 -10z"/>
<path d="M23138 14233 c6 -2 18 -2 25 0 6 3 1 5 -13 5 -14 0 -19 -2 -12 -5z"/>
<path d="M21558 14223 c7 -3 16 -2 19 1 4 3 -2 6 -13 5 -11 0 -14 -3 -6 -6z"/>
<path d="M29504 14216 c-18 -14 -18 -15 9 -21 30 -8 54 6 43 24 -10 15 -28 14
-52 -3z"/>
<path d="M29625 14220 c-3 -5 -1 -10 4 -10 6 0 11 5 11 10 0 6 -2 10 -4 10 -3
0 -8 -4 -11 -10z"/>
<path d="M3835 14212 c-3 -3 -24 -6 -47 -6 -64 -1 -62 -20 2 -27 69 -7 856 2
880 10 3 1 -3 6 -13 12 -21 12 -137 19 -152 8 -19 -12 -72 -18 -82 -8 -10 10
-338 15 -422 6 -24 -2 -70 -1 -102 2 -33 4 -61 5 -64 3z"/>
<path d="M4896 14213 c-11 -11 16 -33 40 -33 20 0 42 16 33 24 -9 7 -67 14
-73 9z"/>
<path d="M5105 14210 c-15 -24 101 -35 150 -14 18 8 17 9 -10 15 -48 11 -133
10 -140 -1z"/>
<path d="M5285 14209 c-11 -16 2 -22 32 -14 26 7 26 8 8 15 -28 12 -33 12 -40
-1z"/>
<path d="M4713 14197 c-9 -16 8 -21 27 -9 25 15 53 15 68 0 6 -6 15 -8 19 -4
4 4 1 11 -7 17 -18 11 -100 8 -107 -4z"/>
<path d="M5048 14194 c12 -8 27 -12 34 -8 8 5 6 10 -8 15 -35 14 -50 10 -26
-7z"/>
<path d="M5446 14198 c7 -11 54 -10 54 1 0 5 -13 9 -30 9 -16 -1 -27 -5 -24
-10z"/>
<path d="M16147 14203 c-22 -21 19 -131 89 -240 42 -67 211 -286 298 -386 53
-62 60 -67 74 -53 14 14 12 20 -22 68 -20 29 -80 107 -132 173 -128 161 -201
272 -233 353 -14 37 -30 73 -34 80 -9 13 -30 16 -40 5z"/>
<path d="M17505 14194 c-11 -3 -30 -7 -42 -10 -44 -9 -22 -22 56 -34 59 -9 84
-9 100 -1 23 13 28 30 9 36 -24 7 -103 13 -123 9z"/>
<path d="M27375 14190 c-8 -12 17 -23 41 -18 10 1 19 9 22 16 5 15 -54 17 -63
2z"/>
<path d="M29314 14191 c-14 -14 1 -22 34 -17 20 3 43 5 50 6 6 0 12 4 12 10 0
9 -86 10 -96 1z"/>
<path d="M29726 14192 c-6 -10 15 -90 34 -137 28 -66 49 -131 50 -152 0 -13 9
-46 20 -75 11 -29 20 -62 20 -74 0 -28 20 -84 30 -84 21 0 16 65 -10 135 -4
11 -13 49 -20 85 -6 36 -15 70 -19 75 -4 6 -15 39 -25 75 -34 127 -40 141 -57
151 -10 5 -20 5 -23 1z"/>
<path d="M6135 14179 c-11 -16 0 -21 30 -13 20 5 23 9 13 15 -18 12 -36 11
-43 -2z"/>
<path d="M29250 14180 c-13 -8 -12 -10 3 -10 9 0 17 5 17 10 0 12 -1 12 -20 0z"/>
<path d="M6330 14170 c0 -5 7 -10 16 -10 8 0 12 5 9 10 -3 6 -10 10 -16 10 -5
0 -9 -4 -9 -10z"/>
<path d="M6440 14170 c-21 -13 -12 -18 44 -22 33 -2 50 1 53 10 3 8 -6 12 -25
12 -17 0 -36 2 -44 5 -7 3 -20 1 -28 -5z"/>
<path d="M6260 14160 c0 -5 9 -10 21 -10 11 0 17 5 14 10 -3 6 -13 10 -21 10
-8 0 -14 -4 -14 -10z"/>
<path d="M6375 14160 c-3 -5 1 -10 10 -10 9 0 13 5 10 10 -3 6 -8 10 -10 10
-2 0 -7 -4 -10 -10z"/>
<path d="M8462 14135 c-45 -40 -92 -48 -92 -15 0 17 -7 20 -51 20 -50 0 -87
-12 -101 -34 -12 -18 -9 -23 16 -28 28 -6 40 0 49 22 5 13 6 13 6 0 2 -25 281
-16 281 9 0 8 -37 43 -57 55 -7 4 -29 -9 -51 -29z"/>
<path d="M6650 14150 c0 -5 7 -10 16 -10 8 0 12 5 9 10 -3 6 -10 10 -16 10 -5
0 -9 -4 -9 -10z"/>
<path d="M6963 14143 c-22 -8 -14 -20 12 -20 20 0 23 2 14 13 -6 8 -12 14 -13
13 0 0 -7 -3 -13 -6z"/>
<path d="M27888 14143 c6 -2 18 -2 25 0 6 3 1 5 -13 5 -14 0 -19 -2 -12 -5z"/>
<path d="M28069 14139 c-26 -16 0 -17 179 -10 12 1 22 6 22 11 0 11 -183 11
-201 -1z"/>
<path d="M7036 14125 c-4 -12 1 -15 22 -13 15 1 33 -1 39 -5 7 -4 24 -5 39 -1
26 7 26 8 9 20 -26 19 -101 18 -109 -1z"/>
<path d="M7230 14131 c0 -18 18 -21 30 -6 10 13 9 15 -9 15 -11 0 -21 -4 -21
-9z"/>
<path d="M7575 14120 c-18 -20 -18 -20 46 -21 35 0 83 -2 107 -4 30 -2 42 1
42 10 0 21 -14 26 -98 31 -70 4 -80 2 -97 -16z"/>
<path d="M7952 14126 l-34 -12 24 -12 c13 -7 57 -12 103 -12 44 1 96 0 115 -2
22 -2 35 1 35 9 0 6 3 15 7 19 10 10 0 24 -18 24 -8 0 -14 -7 -14 -15 0 -10
-10 -15 -30 -15 -16 0 -30 5 -30 11 0 8 -17 10 -50 7 -28 -3 -53 -1 -56 3 -6
11 -10 11 -52 -5z m28 -10 c0 -3 -4 -8 -10 -11 -5 -3 -10 -1 -10 4 0 6 5 11
10 11 6 0 10 -2 10 -4z"/>
<path d="M7295 14120 c-3 -5 -3 -10 2 -11 120 -8 143 -9 143 -1 0 21 -133 32
-145 12z"/>
<path d="M7455 14120 c-8 -12 17 -23 41 -18 10 1 19 9 22 16 5 15 -54 17 -63
2z"/>
<path d="M7829 14104 c-12 -14 -11 -16 5 -13 11 2 21 10 24 17 5 17 -13 15
-29 -4z"/>
<path d="M17382 14081 c-66 -23 -146 -89 -150 -124 -4 -29 28 -57 66 -57 28 0
109 40 150 74 39 33 46 33 74 -6 44 -63 95 -92 136 -77 31 12 28 36 -7 54 -16
8 -39 27 -50 41 -20 25 -20 28 -5 45 20 22 14 32 -30 53 -44 21 -118 20 -184
-3z m22 -78 c-30 -24 -68 -31 -62 -11 6 16 69 48 81 41 6 -3 -3 -17 -19 -30z"/>
<path d="M27395 13978 c-8 -20 -3 -77 18 -198 35 -205 60 -418 82 -695 8 -104
19 -230 25 -280 7 -49 15 -126 20 -170 16 -159 31 -281 40 -330 32 -168 52
-907 29 -1040 -7 -42 -7 -69 0 -88 15 -39 39 -34 48 11 9 41 8 492 0 667 -9
166 -27 398 -33 415 -3 8 -11 86 -19 175 -8 88 -24 210 -35 270 -11 61 -27
207 -35 325 -27 360 -59 677 -75 730 -6 19 -17 70 -25 113 -8 42 -18 85 -24
95 -9 16 -10 16 -16 0z"/>
<path d="M15710 13650 c-17 -32 -24 -338 -11 -470 22 -212 24 -294 11 -334 -6
-20 -17 -35 -23 -33 -7 2 -38 46 -69 98 -97 158 -190 279 -213 276 -39 -4 -28
-41 32 -115 50 -61 124 -172 193 -289 60 -102 127 -66 145 78 4 35 -1 124 -15
250 -22 192 -22 212 -7 514 2 30 -2 40 -15 43 -9 2 -22 -6 -28 -18z"/>
<path d="M16066 13655 c-80 -28 -147 -127 -149 -221 -1 -48 2 -59 22 -75 13
-11 29 -19 35 -19 7 0 36 -22 64 -50 46 -44 57 -50 94 -50 57 0 101 28 126 82
60 124 41 292 -38 333 -36 18 -102 19 -154 0z m119 -59 c27 -12 36 -23 45 -57
18 -68 -1 -158 -44 -206 -46 -53 -132 -6 -156 85 -13 49 -36 64 -56 37 -21
-28 -17 0 6 45 28 55 101 108 153 109 10 1 33 -5 52 -13z"/>
<path d="M4366 13625 c-15 -39 -17 -155 -6 -272 6 -70 13 -139 14 -153 l1 -25
-151 -11 c-83 -6 -156 -14 -162 -18 -20 -12 -13 -45 12 -62 21 -13 34 -14 78
-5 29 5 93 15 142 22 104 14 102 16 111 -85 3 -39 13 -123 21 -186 8 -63 18
-158 21 -210 5 -84 4 -97 -12 -110 -10 -8 -20 -14 -22 -12 -9 7 -23 0 -23 -11
0 -18 32 -47 52 -47 8 0 23 9 34 21 33 37 23 272 -23 536 -9 50 -13 98 -10
106 4 10 25 18 54 22 291 39 403 65 403 92 0 14 -10 15 -67 10 -89 -8 -319
-36 -360 -43 -29 -5 -34 -3 -43 21 -11 30 -12 250 -1 338 5 43 4 63 -6 78 -17
23 -48 25 -57 4z"/>
<path d="M29905 13569 c-8 -12 26 -150 35 -144 12 7 -6 142 -20 150 -5 3 -12
0 -15 -6z"/>
<path d="M29937 13370 c-3 -10 1 -27 9 -37 12 -16 13 -14 14 20 0 39 -14 50
-23 17z"/>
<path d="M2416 13293 c-2 -2 -126 -5 -276 -6 -184 -3 -275 -7 -277 -14 -2 -6
6 -21 18 -32 32 -29 17 -39 -71 -44 -93 -6 -110 -13 -110 -43 0 -50 76 -68
100 -24 12 23 53 36 150 49 41 6 102 19 136 30 41 13 75 17 108 14 33 -4 51
-2 56 7 4 7 31 13 63 14 45 1 59 -3 70 -19 14 -18 16 -19 48 -3 57 28 148 44
170 30 23 -15 57 -15 98 -1 23 8 35 8 46 -1 15 -13 63 -11 83 4 8 6 19 3 31
-8 11 -10 36 -17 62 -17 24 -1 74 -10 110 -22 74 -23 99 -19 99 16 0 31 -32
59 -73 64 -36 4 -637 9 -641 6z"/>
<path d="M3184 13171 c-16 -9 -31 -17 -33 -18 -11 -7 11 -14 85 -28 81 -15
134 -19 134 -10 0 18 -32 64 -47 69 -34 11 -110 3 -139 -13z"/>
<path d="M29980 13140 c0 -5 5 -10 11 -10 5 0 7 5 4 10 -3 6 -8 10 -11 10 -2
0 -4 -4 -4 -10z"/>
<path d="M5333 13060 c-118 -42 -207 -143 -304 -342 -21 -45 -39 -91 -39 -103
0 -24 17 -45 37 -45 20 0 103 133 103 166 0 74 103 202 197 246 35 17 70 28
78 25 19 -8 34 -67 45 -187 12 -125 24 -171 51 -196 20 -18 21 -18 66 6 68 36
124 115 193 272 33 75 60 143 60 152 0 9 -7 19 -16 23 -24 9 -51 -32 -105
-160 -52 -119 -88 -178 -130 -208 -15 -10 -29 -19 -32 -19 -10 0 -17 33 -27
137 -15 155 -27 198 -62 228 -35 30 -47 30 -115 5z"/>
<path d="M6121 12969 c-70 -21 -150 -89 -173 -148 -17 -46 -12 -118 12 -155
35 -57 106 -112 188 -147 83 -34 270 -76 297 -65 30 11 12 40 -30 49 -173 35
-312 91 -372 149 -57 55 -48 63 70 63 93 0 107 3 162 30 103 52 122 130 50
202 -31 31 -37 33 -101 32 -38 0 -84 -5 -103 -10z m174 -72 c28 -21 13 -63
-33 -86 -73 -37 -219 -49 -238 -20 -17 29 47 87 117 108 50 14 133 13 154 -2z"/>
<path d="M24718 12663 c-2 -38 0 -77 6 -88 5 -10 8 -52 8 -92 -2 -58 1 -73 13
-73 12 0 13 25 11 149 -2 81 -6 153 -10 160 -16 25 -24 8 -28 -56z"/>
<path d="M15167 12453 c-12 -19 -18 -81 -9 -87 15 -9 24 9 26 51 1 33 -7 52
-17 36z"/>
<path d="M15666 12384 c-3 -9 -9 -60 -13 -115 -6 -97 0 -117 25 -86 12 15 34
181 26 202 -8 20 -30 19 -38 -1z"/>
<path d="M15150 12310 c0 -5 5 -10 10 -10 6 0 10 5 10 10 0 6 -4 10 -10 10 -5
0 -10 -4 -10 -10z"/>
<path d="M24744 12258 c4 -35 9 -101 12 -148 19 -307 37 -511 48 -529 23 -36
30 63 9 119 -3 8 -7 56 -9 105 -5 135 -6 152 -17 255 -5 52 -10 124 -9 158 0
79 -6 102 -26 102 -12 0 -14 -10 -8 -62z"/>
<path d="M30211 11924 c0 -11 3 -14 6 -6 3 7 2 16 -1 19 -3 4 -6 -2 -5 -13z"/>
<path d="M4584 11876 c-81 -37 -142 -122 -162 -226 -14 -70 -15 -95 -13 -261
1 -103 5 -140 16 -155 15 -19 15 -19 30 0 12 16 14 42 9 143 -5 106 -4 124 10
129 9 3 73 -6 144 -20 70 -15 164 -29 209 -33 l82 -6 -25 -46 c-34 -65 -32
-112 7 -145 62 -53 130 -28 226 83 82 95 131 137 144 124 5 -5 18 -45 28 -88
18 -75 41 -110 66 -102 15 6 10 63 -14 152 -29 107 -42 122 -116 136 -81 15
-143 6 -207 -30 -36 -20 -68 -31 -94 -31 -85 1 -435 65 -446 83 -9 15 20 106
49 153 81 129 243 124 357 -10 50 -58 87 -73 100 -39 10 24 -113 139 -181 170
-65 30 -174 40 -219 19z m576 -399 c0 -19 -151 -164 -184 -177 -24 -9 -32 -8
-45 5 -14 14 -14 20 8 60 31 59 48 73 123 101 72 26 98 29 98 11z"/>
<path d="M17208 11795 c-41 -28 -47 -40 -49 -106 -2 -53 28 -114 62 -124 28
-9 85 3 104 21 24 24 18 38 -10 20 -31 -20 -64 -20 -93 0 -17 12 -22 25 -22
60 0 82 47 134 122 134 25 0 29 3 18 10 -29 19 -94 11 -132 -15z"/>
<path d="M5531 11781 c-12 -21 -6 -328 9 -479 9 -97 34 -167 60 -167 17 0 17
15 1 125 -13 96 -14 327 -1 424 8 54 8 81 0 96 -14 25 -56 26 -69 1z"/>
<path d="M17423 11731 c-13 -11 -23 -26 -23 -35 0 -20 16 -21 24 -1 6 18 26
20 26 3 0 -15 51 -90 57 -84 3 2 -7 28 -21 56 -14 28 -26 58 -26 66 0 19 -10
17 -37 -5z"/>
<path d="M15140 11719 c0 -25 33 -22 38 4 2 12 -3 17 -17 17 -15 0 -21 -6 -21
-21z"/>
<path d="M2140 11690 c-23 -23 -24 -33 -10 -61 7 -12 21 -19 40 -19 35 0 39
-19 10 -45 -14 -13 -20 -29 -18 -49 4 -42 36 -45 98 -12 59 32 173 69 264 86
99 18 436 -3 654 -41 63 -11 163 -22 223 -26 105 -6 110 -5 134 17 31 29 31
41 0 70 -21 19 -41 25 -113 31 -48 4 -121 13 -162 18 -110 16 -221 22 -540 27
-157 2 -329 9 -383 14 -144 15 -174 13 -197 -10z"/>
<path d="M17520 11583 c1 -25 37 -67 90 -102 75 -51 89 -38 24 22 -32 28 -67
62 -78 75 -24 26 -36 28 -36 5z"/>
<path d="M5880 11569 c-67 -12 -128 -53 -154 -104 -17 -35 -18 -39 -3 -71 28
-57 112 -88 287 -105 63 -6 121 -16 128 -22 18 -15 8 -80 -19 -123 -11 -18
-44 -55 -74 -82 -81 -74 -179 -101 -244 -67 -52 26 -59 -24 -8 -56 66 -42 209
-4 300 80 49 45 102 137 115 197 7 36 10 39 37 36 39 -5 50 -14 63 -59 31
-102 139 -189 305 -245 86 -29 102 -31 238 -32 150 -1 185 7 172 39 -4 11 -27
13 -116 9 -138 -7 -222 9 -342 65 -100 47 -155 87 -185 137 -31 50 -23 60 57
67 110 11 166 31 208 78 34 38 37 45 31 82 -11 67 -52 114 -113 128 -46 10
-103 -3 -152 -37 -40 -27 -90 -96 -98 -136 -10 -50 -22 -51 -183 -17 -25 5
-99 16 -164 24 -191 25 -228 56 -138 119 42 30 47 31 155 31 106 0 112 1 115
21 2 11 -3 26 -11 32 -19 16 -141 23 -207 11z m700 -119 c17 0 40 -32 40 -55
0 -32 -49 -71 -112 -90 -59 -17 -134 -20 -143 -5 -11 18 43 97 81 121 39 24
91 39 112 33 8 -2 17 -4 22 -4z"/>
<path d="M24815 11499 c-7 -19 19 -95 31 -89 14 8 6 72 -11 89 -12 13 -15 13
-20 0z"/>
<path d="M30244 11379 c1 -36 8 -74 15 -84 10 -17 11 -7 9 52 -2 40 -9 78 -15
84 -9 9 -11 -3 -9 -52z"/>
<path d="M17730 11411 c0 -12 28 -41 40 -41 14 0 23 21 14 30 -15 14 -54 22
-54 11z"/>
<path d="M15140 11360 c0 -5 5 -10 10 -10 6 0 10 5 10 10 0 6 -4 10 -10 10 -5
0 -10 -4 -10 -10z"/>
<path d="M15337 11225 c-5 -11 -15 -32 -23 -47 -17 -33 -18 -62 -1 -76 26 -22
38 3 35 74 -2 48 -6 63 -11 49z"/>
<path d="M17094 11187 c-11 -6 -41 -28 -65 -48 -24 -21 -118 -86 -209 -147
-252 -167 -360 -266 -362 -331 -2 -65 77 -115 255 -160 162 -42 482 -103 519
-99 40 4 52 35 16 42 -13 3 -81 16 -153 30 -394 77 -575 135 -575 186 0 51
115 146 438 359 166 110 202 138 200 155 -4 25 -34 31 -64 13z"/>
<path d="M28420 11126 c0 -9 5 -16 10 -16 6 0 10 4 10 9 0 6 -4 13 -10 16 -5
3 -10 -1 -10 -9z"/>
<path d="M29942 10738 c-17 -17 -15 -42 8 -71 22 -27 226 -144 437 -250 165
-83 346 -177 352 -183 13 -13 -28 -26 -164 -49 -166 -28 -398 -79 -460 -100
-22 -7 -107 -34 -190 -60 -181 -56 -225 -74 -225 -92 0 -27 34 -25 134 7 286
91 446 130 793 190 178 30 203 42 203 99 0 27 -38 49 -465 271 -207 107 -293
160 -343 208 -46 44 -60 50 -80 30z"/>
<path d="M28692 9898 c-9 -9 -12 -72 -12 -232 0 -122 -3 -238 -6 -258 -6 -37
-8 -38 -48 -38 -23 0 -68 7 -99 15 -32 8 -67 15 -77 15 -25 0 -46 -36 -30 -55
16 -20 90 -35 169 -35 83 0 78 13 59 -163 -10 -94 -9 -110 4 -123 14 -14 17
-14 30 0 11 11 18 48 23 128 10 159 7 154 104 162 131 11 254 57 225 86 -5 5
-46 0 -94 -10 -113 -24 -182 -31 -198 -22 -10 7 -10 53 -3 223 9 235 5 312
-19 317 -9 1 -21 -3 -28 -10z"/>
<path d="M29231 9735 c-48 -44 -69 -88 -51 -110 19 -22 38 -18 57 13 9 15 32
44 51 64 63 67 13 96 -57 33z"/>
<path d="M30219 9556 c-53 -36 -77 -104 -58 -166 14 -46 101 -134 157 -157 44
-18 40 -47 -7 -51 -67 -7 -122 17 -182 80 -78 81 -103 79 -199 -23 -73 -77
-91 -79 -107 -14 -7 28 -15 71 -18 97 -8 65 -36 98 -84 98 -47 0 -66 -20 -116
-119 -47 -95 -83 -151 -95 -151 -15 0 -12 104 7 202 16 83 16 89 0 106 -13 13
-21 14 -35 6 -19 -13 -26 -49 -41 -218 -12 -132 -4 -168 37 -174 42 -6 87 41
142 151 51 100 75 137 91 137 16 0 36 -55 43 -113 18 -159 83 -177 206 -56 44
43 76 67 83 62 6 -4 23 -20 36 -36 69 -82 195 -111 286 -67 51 25 41 25 295
-18 169 -29 185 -31 201 -22 25 16 -2 27 -96 39 -107 15 -284 56 -298 70 -6 6
-4 22 7 46 23 48 41 145 32 178 -17 68 -120 137 -206 137 -32 0 -56 -7 -81
-24z m153 -57 c82 -40 102 -103 64 -203 -21 -55 -35 -57 -97 -17 -74 48 -111
93 -116 144 -5 39 -2 49 20 71 32 32 71 33 129 5z"/>
<path d="M29266 9478 c-3 -7 -7 -50 -10 -94 -3 -45 -14 -117 -25 -160 -31
-128 -32 -131 -17 -143 7 -6 20 -9 29 -5 33 12 98 336 78 387 -11 28 -48 38
-55 15z"/>
<path d="M11730 8187 c0 -76 3 -96 15 -101 28 -10 36 32 22 113 -19 111 -37
105 -37 -12z"/>
<path d="M24505 4138 c-8 -43 -3 -83 10 -83 6 0 11 22 13 49 4 60 -14 85 -23
34z"/>
<path d="M24501 3963 c0 -36 3 -43 9 -28 12 28 12 63 0 70 -6 4 -10 -12 -9
-42z"/>
<path d="M32388 173 c-40 -6 -34 -20 12 -28 27 -5 46 -2 60 8 18 13 19 15 5
21 -17 6 -30 6 -77 -1z"/>
<path d="M32580 172 c0 -6 14 -17 30 -26 24 -11 30 -12 30 -1 0 7 -8 15 -17
19 -10 3 -24 9 -30 12 -7 3 -13 1 -13 -4z"/>
<path d="M31855 162 c-27 -2 -53 -8 -56 -14 -4 -7 -13 -7 -27 1 -22 12 -100
15 -126 5 -9 -3 -16 -14 -16 -24 0 -15 7 -17 45 -12 29 3 50 0 61 -9 14 -11
18 -11 29 4 17 23 87 36 83 16 -4 -19 57 -20 102 -1 26 10 39 11 52 3 23 -14
51 -14 65 0 9 9 18 8 36 -3 25 -17 111 -14 134 4 7 5 17 6 24 3 21 -14 79 -23
85 -14 2 5 0 17 -5 27 -8 14 -22 19 -63 20 -31 0 -56 -4 -60 -11 -5 -8 -11 -8
-15 -2 -8 9 -235 14 -348 7z"/>
<path d="M29800 143 c-131 -3 -163 -9 -157 -26 4 -14 168 -17 178 -3 4 4 16 3
27 -3 20 -11 207 1 220 14 3 3 0 11 -6 17 -10 10 -17 10 -32 0 -15 -9 -31 -9
-62 -2 -24 5 -45 9 -48 8 -3 -1 -57 -4 -120 -5z"/>
<path d="M30255 140 c-3 -5 -17 -7 -30 -4 -12 3 -26 1 -30 -6 -5 -8 -10 -8
-21 1 -8 6 -21 8 -31 3 -10 -4 -27 -8 -38 -8 -14 -1 -19 -7 -17 -21 6 -29 12
-32 27 -11 12 15 22 17 65 11 35 -5 55 -3 66 5 12 10 20 10 42 0 32 -16 310
-22 330 -7 6 5 12 16 12 23 0 17 -37 19 -43 2 -3 -9 -9 -7 -20 7 -12 16 -18
17 -30 7 -8 -7 -26 -11 -39 -8 -55 11 -237 16 -243 6z"/>
<path d="M30695 141 c-11 -5 -26 -6 -32 -4 -8 3 -13 -3 -13 -16 0 -16 6 -21
26 -21 14 0 34 5 45 11 17 8 23 7 34 -8 13 -17 15 -17 48 0 19 10 40 18 48 17
28 -4 50 0 45 9 -10 15 -94 23 -117 11 -15 -9 -24 -9 -32 -1 -13 13 -24 13
-52 2z"/>
<path d="M30927 144 c-15 -15 -6 -24 22 -24 16 0 42 -5 58 -12 28 -11 43 -12
99 -3 26 5 31 9 27 25 -6 22 -29 27 -36 8 -3 -10 -9 -10 -25 -1 -16 10 -23 9
-32 -3 -8 -9 -17 -11 -24 -5 -16 13 -80 24 -89 15z"/>
<path d="M31140 140 c0 -5 9 -10 19 -10 11 0 22 -4 26 -9 9 -15 194 -9 207 6
8 10 7 13 -3 14 -8 1 -30 2 -49 4 -19 2 -46 -1 -59 -7 -17 -6 -27 -6 -29 1 -5
14 -112 14 -112 1z"/>
<path d="M31420 140 c0 -11 30 -21 41 -15 5 3 18 1 30 -5 14 -8 25 -8 31 -2 6
6 24 6 49 -1 44 -11 52 -8 43 17 -5 14 -21 16 -100 15 -52 -1 -94 -5 -94 -9z"/>
<path d="M28250 125 c-36 -7 -67 -9 -70 -5 -5 9 -130 4 -139 -5 -14 -14 28
-26 77 -21 28 2 67 0 85 -5 20 -6 42 -6 57 0 14 5 38 12 53 16 16 3 27 11 25
17 -6 17 -16 17 -88 3z"/>
<path d="M28656 132 c-2 -4 -48 -7 -100 -6 -95 1 -128 -7 -84 -22 13 -4 121
-8 241 -8 188 -1 217 1 215 14 -3 12 -24 15 -120 15 -64 0 -120 3 -124 8 -9 9
-22 9 -28 -1z"/>
<path d="M29040 125 c0 -18 -3 -17 129 -16 107 2 161 14 105 24 -16 3 -75 5
-131 6 -84 0 -103 -2 -103 -14z"/>
<path d="M29490 130 c0 -4 7 -13 14 -20 19 -15 129 -3 123 14 -4 12 -137 18
-137 6z"/>
<path d="M27921 121 c-21 -6 -22 -8 -8 -19 16 -14 117 -7 117 8 0 19 -60 25
-109 11z"/>
<path d="M28367 124 c-12 -12 4 -24 33 -24 16 0 31 4 34 9 10 16 -52 30 -67
15z"/>
<path d="M29430 121 c0 -19 22 -23 38 -7 15 15 14 16 -11 16 -15 0 -27 -4 -27
-9z"/>
<path d="M27093 113 c-34 -4 -43 -17 -19 -26 28 -11 156 -19 173 -12 21 10
129 16 301 18 79 1 121 5 119 12 -3 6 -85 9 -243 8 -131 -1 -243 -3 -249 -3
-5 -1 -19 0 -30 3 -11 2 -35 2 -52 0z"/>
<path d="M27687 114 c-4 -4 -7 -10 -7 -13 0 -11 195 -6 198 4 2 11 -180 20
-191 9z"/>
<path d="M28972 109 c2 -6 8 -10 13 -10 5 0 11 4 13 10 2 6 -4 11 -13 11 -9 0
-15 -5 -13 -11z"/>
<path d="M19540 100 c-8 -5 -78 -9 -155 -9 -200 0 -670 -10 -805 -17 -63 -4
-142 -8 -175 -10 -33 -2 -82 -6 -110 -9 -88 -11 -264 -19 -552 -24 -45 -1 -73
-5 -73 -12 0 -7 254 -9 878 -5 482 4 895 8 917 11 22 2 234 7 470 10 492 6
638 13 632 29 -2 6 -28 11 -58 12 -30 1 -103 4 -164 9 -99 6 -216 13 -255 15
-8 0 -124 0 -256 -1 -133 -1 -250 2 -260 5 -11 3 -26 1 -34 -4z"/>
<path d="M26595 102 c-1 -1 -123 -5 -271 -7 -303 -6 -721 -13 -1019 -20 -617
-12 -711 -14 -722 -14 -16 -1 -27 -1 -183 -5 -69 -1 -151 -3 -183 -4 -42 -2
-57 -6 -55 -14 3 -9 45 -14 148 -16 79 -1 147 -7 150 -12 4 -6 18 -6 36 -2 32
9 55 9 127 -3 30 -4 57 -3 70 3 42 20 56 21 65 6 7 -13 23 -14 108 -5 173 17
219 19 237 9 13 -7 24 -5 35 5 20 17 69 30 75 20 3 -5 52 -6 109 -3 56 3 109
2 115 -3 8 -6 25 -5 44 4 30 12 33 11 55 -17 13 -16 24 -24 24 -18 0 5 -5 15
-12 22 -7 7 -8 12 -3 13 6 1 178 1 382 1 205 -1 375 3 377 7 3 4 40 6 83 4
145 -5 208 -5 253 1 25 3 63 6 85 7 22 1 53 8 68 16 22 11 32 12 43 2 11 -9
17 -9 29 1 9 7 13 16 9 19 -5 6 -273 9 -279 3z"/>
<path d="M26940 101 c-23 -4 -31 -9 -22 -14 6 -5 17 -5 22 -2 6 3 10 1 10 -4
0 -16 35 -14 49 2 12 15 5 28 -13 26 -6 -1 -27 -4 -46 -8z"/>
<path d="M20640 70 c-36 -3 -60 -8 -55 -11 17 -9 179 -10 194 0 18 12 -53 18
-139 11z"/>
<path d="M24045 46 c-38 -6 -65 -14 -60 -17 16 -9 129 -10 144 0 13 8 7 32 -7
30 -4 -1 -38 -6 -77 -13z"/>
<path d="M23207 33 c-38 -10 -10 -28 39 -25 55 4 65 9 44 22 -16 10 -52 11
-83 3z"/>
<path d="M23616 31 c-25 -10 -9 -18 29 -16 17 1 38 3 48 4 9 0 17 6 17 11 0
12 -66 12 -94 1z"/>
<path d="M23794 31 c7 -11 76 -10 76 1 0 4 -18 8 -41 8 -22 0 -38 -4 -35 -9z"/>
<path d="M23880 36 c0 -8 61 -12 66 -4 3 4 -11 8 -30 8 -20 0 -36 -2 -36 -4z"/>
<path d="M22807 22 c-9 -2 -15 -8 -12 -13 8 -12 45 -12 45 0 0 13 -12 18 -33
13z"/>
<path d="M22885 21 c-23 -6 -26 -9 -14 -15 23 -10 114 -3 114 9 0 12 -60 16
-100 6z"/>
<path d="M23031 21 c-10 -6 -10 -10 -1 -16 14 -9 60 2 60 15 0 12 -40 13 -59
1z"/>
<path d="M23125 20 c3 -5 15 -10 26 -10 10 0 19 5 19 10 0 6 -12 10 -26 10
-14 0 -23 -4 -19 -10z"/>
<path d="M23320 23 c8 -3 21 -10 28 -16 8 -7 12 -5 12 7 0 11 -8 16 -27 15
-16 0 -22 -3 -13 -6z"/>
<path d="M23408 23 c7 -3 16 -2 19 1 4 3 -2 6 -13 5 -11 0 -14 -3 -6 -6z"/>
<path d="M23455 20 c4 -6 11 -8 16 -5 14 9 11 15 -7 15 -8 0 -12 -5 -9 -10z"/>
<path d="M23513 23 c9 -2 23 -2 30 0 6 3 -1 5 -18 5 -16 0 -22 -2 -12 -5z"/>
<path d="M22075 10 c-14 -6 0 -9 44 -9 35 -1 62 1 60 3 -10 9 -86 13 -104 6z"/>
<path d="M22203 8 c-2 -5 64 -8 148 -8 84 0 149 3 145 7 -9 10 -287 10 -293 1z"/>
<path d="M22565 10 c-12 -5 24 -8 93 -8 61 -1 112 3 112 7 0 11 -179 12 -205
1z"/>
<path d="M21508 3 c6 -2 18 -2 25 0 6 3 1 5 -13 5 -14 0 -19 -2 -12 -5z"/>
<path d="M21678 3 c12 -2 30 -2 40 0 9 3 -1 5 -23 4 -22 0 -30 -2 -17 -4z"/>
<path d="M21788 3 c6 -2 18 -2 25 0 6 3 1 5 -13 5 -14 0 -19 -2 -12 -5z"/>
<path d="M21853 3 c9 -2 23 -2 30 0 6 3 -1 5 -18 5 -16 0 -22 -2 -12 -5z"/>
<path d="M21938 3 c17 -2 47 -2 65 0 17 2 3 4 -33 4 -36 0 -50 -2 -32 -4z"/>
</g>
</svg>
