<?xml version="1.0" standalone="no"?>
<!DOCTYPE svg PUBLIC "-//W3C//DTD SVG 20010904//EN"
 "http://www.w3.org/TR/2001/REC-SVG-20010904/DTD/svg10.dtd">
<svg version="1.0" xmlns="http://www.w3.org/2000/svg"
 width="2448.000000pt" height="3264.000000pt" viewBox="0 0 2448.000000 3264.000000"
 preserveAspectRatio="xMidYMid meet">
<metadata>
Created by potrace 1.12, written by Peter Selinger 2001-2015
</metadata>
<g transform="translate(0.000000,3264.000000) scale(0.100000,-0.100000)"
fill="#000000" stroke="none">
<path d="M3203 26898 c-65 -31 -90 -199 -58 -390 26 -160 139 -607 194 -768
130 -383 196 -525 260 -563 40 -24 61 -16 109 38 66 75 82 148 93 425 8 214
23 411 34 450 3 8 9 44 14 80 34 220 84 475 116 592 24 90 25 108 2 108 -15 0
-64 -80 -73 -118 -3 -15 -14 -52 -24 -82 -23 -69 -43 -151 -74 -310 -22 -111
-31 -167 -51 -290 -3 -19 -14 -165 -25 -325 -26 -373 -47 -472 -104 -483 -19
-4 -55 69 -101 203 -15 44 -31 88 -37 98 -5 10 -31 82 -59 160 -64 182 -144
499 -185 732 -19 110 -25 317 -9 324 6 2 27 -28 48 -68 45 -84 114 -161 145
-161 12 0 29 11 37 24 21 31 11 52 -49 101 -31 25 -58 63 -91 126 -25 49 -54
93 -65 99 -22 12 -19 12 -47 -2z"/>
<path d="M7473 26480 c-113 -68 -219 -340 -288 -733 -14 -84 -30 -165 -35
-182 -5 -16 -16 -81 -25 -144 -14 -106 -48 -303 -76 -448 -11 -54 -10 -65 5
-87 34 -53 82 -19 96 69 17 107 59 425 85 655 29 244 55 371 116 555 37 112
93 224 106 211 3 -3 8 -90 10 -193 4 -232 31 -484 88 -833 31 -187 87 -323
139 -336 85 -21 184 153 207 365 6 53 17 132 24 176 8 44 21 148 30 230 21
198 37 264 98 426 30 78 38 140 19 146 -16 6 -69 -51 -89 -96 -32 -74 -83
-259 -98 -356 -8 -55 -27 -185 -41 -290 -37 -279 -96 -485 -138 -485 -13 0
-39 81 -64 195 -19 82 -41 252 -52 395 -6 74 -15 176 -20 225 -5 50 -10 183
-10 297 0 114 -4 218 -10 232 -11 31 -34 33 -77 6z"/>
<path d="M17061 26118 c-86 -84 -166 -252 -227 -472 -40 -150 -30 -222 40
-284 29 -25 45 -32 80 -32 88 0 217 65 323 163 24 22 43 36 43 31 0 -5 -10
-52 -21 -104 -20 -88 -21 -98 -6 -132 19 -46 58 -72 92 -64 36 9 43 35 15 58
-20 16 -22 24 -16 66 3 26 15 83 26 127 35 140 25 183 -43 201 -26 6 -36 -1
-110 -78 -58 -60 -104 -97 -157 -126 -90 -49 -163 -70 -185 -52 -32 26 -9 161
60 359 52 148 79 198 146 263 63 61 71 81 40 98 -35 18 -66 11 -100 -22z"/>
<path d="M4550 26009 c-25 -11 -66 -42 -91 -69 -68 -73 -140 -236 -112 -253
15 -9 27 5 63 68 79 142 154 210 204 187 34 -15 82 -103 101 -184 31 -139 15
-272 -48 -391 -70 -133 -171 -227 -242 -227 -64 0 -124 58 -157 150 -21 59
-23 82 -22 240 0 190 11 256 59 350 29 57 33 105 9 114 -66 25 -135 -143 -155
-379 -24 -279 27 -461 148 -532 94 -55 205 -27 310 76 62 61 138 174 173 256
23 54 25 73 25 195 0 116 -3 146 -24 209 -55 168 -141 236 -241 190z"/>
<path d="M17760 25993 c-25 -10 -30 -25 -30 -90 0 -62 15 -93 44 -93 23 0 46
36 46 70 0 20 8 42 20 55 12 12 18 29 15 37 -9 24 -59 34 -95 21z"/>
<path d="M9443 25931 c-29 -24 -55 -85 -103 -241 -73 -237 -103 -305 -187
-418 -102 -139 -206 -172 -233 -74 -21 77 -7 245 31 371 33 109 21 147 -38
125 -18 -6 -39 -34 -70 -94 -54 -101 -117 -182 -243 -308 -113 -113 -191 -175
-266 -209 -98 -45 -201 -30 -235 34 -15 28 -10 34 56 58 37 14 71 40 130 99
130 131 226 293 247 414 10 61 10 75 -6 117 -41 106 -149 93 -310 -35 -152
-121 -234 -267 -250 -450 -3 -30 -8 -71 -11 -90 -5 -29 1 -48 34 -109 44 -79
54 -90 116 -122 58 -31 171 -31 245 1 114 49 293 200 395 334 28 36 55 65 60
66 7 0 11 -39 10 -107 0 -93 3 -115 23 -155 43 -86 148 -111 250 -59 21 11 69
52 105 91 80 87 155 231 191 370 14 52 48 162 76 243 28 82 48 153 45 158 -10
15 -38 10 -62 -10z m-1009 -206 c0 -59 -6 -81 -34 -135 -67 -132 -180 -272
-274 -341 -60 -44 -66 -40 -66 44 0 191 101 358 290 479 25 16 54 27 65 26 18
-3 20 -10 19 -73z"/>
<path d="M18137 25903 c-18 -42 -102 -262 -137 -360 -23 -64 -26 -66 -95 -78
-51 -9 -65 -21 -65 -55 0 -37 23 -54 60 -46 37 7 38 -4 9 -70 -23 -55 -19 -90
12 -99 30 -10 46 11 68 87 29 108 33 111 147 127 148 21 135 24 156 -45 20
-70 46 -99 115 -134 46 -24 56 -25 223 -24 159 1 179 3 218 23 89 45 28 64
-179 55 -218 -10 -299 19 -299 106 0 49 11 54 121 63 152 13 239 48 239 97 0
27 -49 80 -87 96 -95 40 -245 -2 -316 -89 l-37 -44 -83 -7 c-45 -4 -92 -10
-104 -13 -32 -7 -30 9 13 97 34 71 104 240 118 287 9 28 -24 63 -57 63 -18 0
-28 -9 -40 -37z m463 -341 c0 -5 -26 -14 -57 -21 -32 -7 -69 -15 -82 -18 -37
-9 -21 18 20 33 39 14 119 18 119 6z"/>
<path d="M19986 25888 c-13 -18 -57 -100 -97 -181 -48 -99 -82 -155 -101 -170
-112 -84 -168 -156 -168 -215 0 -63 77 -131 118 -106 9 6 31 47 48 90 56 142
75 167 152 202 73 33 159 58 169 48 3 -3 -10 -45 -30 -93 -47 -114 -51 -135
-37 -178 15 -45 71 -85 120 -85 53 0 164 47 214 91 87 76 180 259 148 291 -9
9 -17 10 -30 2 -19 -12 -92 -113 -92 -129 -1 -21 -87 -103 -129 -125 -24 -12
-68 -24 -98 -27 -65 -7 -64 -15 -7 128 19 48 34 100 34 116 0 36 -22 69 -60
88 -27 14 -35 13 -110 -11 -45 -14 -85 -24 -89 -22 -5 2 22 55 60 118 86 142
87 146 58 176 -30 32 -43 30 -73 -8z m-276 -578 c-18 -33 -25 -15 -9 22 9 23
15 28 17 16 2 -9 -2 -27 -8 -38z"/>
<path d="M16339 25846 c-2 -3 -81 -20 -175 -40 -320 -65 -490 -176 -612 -399
-74 -134 -82 -197 -32 -267 17 -23 29 -30 56 -30 45 0 51 18 25 73 -24 49 -18
86 25 167 96 180 165 249 319 325 120 60 398 145 410 126 2 -5 -19 -18 -48
-31 -180 -81 -223 -104 -277 -146 -80 -63 -110 -115 -110 -192 0 -45 5 -67 23
-93 48 -72 132 -105 237 -95 85 9 250 65 359 121 125 65 270 189 247 212 -4 4
-73 -27 -154 -69 -226 -118 -466 -191 -562 -172 -59 12 -76 73 -41 150 27 60
79 97 259 185 186 92 208 113 159 155 -25 22 -94 34 -108 20z"/>
<path d="M5420 25827 c-82 -26 -194 -197 -260 -397 -18 -52 -35 -99 -40 -103
-4 -5 -15 27 -25 70 -25 116 -92 317 -116 347 -22 28 -57 34 -77 14 -16 -16
-15 -59 2 -83 17 -25 69 -171 102 -287 13 -49 28 -136 33 -194 8 -110 15 -124
57 -124 35 0 54 33 84 146 43 162 72 241 135 362 66 128 104 178 128 169 19
-7 52 -114 98 -312 49 -217 67 -272 101 -310 32 -37 65 -45 74 -20 4 8 -5 46
-19 83 -13 37 -37 135 -52 217 -41 225 -84 374 -116 408 -29 29 -52 32 -109
14z"/>
<path d="M11910 25804 c-60 -54 -131 -166 -278 -439 -82 -152 -142 -231 -142
-188 0 12 9 75 19 140 10 65 24 158 31 208 7 49 16 103 21 118 10 36 -20 71
-54 61 -47 -14 -56 -34 -67 -149 -5 -61 -14 -148 -20 -195 -37 -299 -37 -304
16 -326 47 -20 49 -19 98 26 78 72 157 202 314 515 38 76 79 135 93 135 6 0 8
-126 7 -302 -3 -274 -1 -306 15 -335 9 -18 28 -40 41 -48 45 -30 118 21 86 60
-7 8 -21 15 -31 15 -35 0 -40 60 -24 271 8 107 15 247 15 312 0 104 -2 119
-20 137 -31 31 -74 26 -120 -16z"/>
<path d="M14955 25825 c-201 -54 -342 -164 -427 -334 -29 -59 -33 -75 -33
-151 0 -105 19 -150 80 -185 51 -30 133 -34 197 -8 116 45 243 161 284 261 30
73 53 108 55 82 9 -191 68 -300 164 -300 32 0 32 10 -1 41 -50 46 -64 82 -74
185 -5 55 -10 145 -10 202 0 100 -1 103 -26 114 -39 18 -56 1 -71 -76 -45
-224 -235 -432 -412 -453 -37 -4 -50 -1 -68 16 -75 71 -26 271 96 391 144 141
338 199 515 154 90 -23 130 -53 147 -109 16 -52 23 -61 61 -70 39 -10 44 13
18 72 -29 66 -64 101 -135 133 -110 50 -253 64 -360 35z"/>
<path d="M12824 25791 c-81 -37 -154 -121 -214 -246 -65 -135 -175 -294 -203
-295 -5 0 -6 17 -3 38 3 20 8 102 11 182 3 80 8 167 11 193 7 58 -6 77 -51 77
-58 0 -59 -4 -57 -306 1 -292 4 -314 50 -326 35 -9 69 16 142 107 92 114 109
142 182 289 45 92 72 133 110 169 28 26 56 47 62 47 18 0 84 -145 101 -220 20
-87 19 -217 -2 -316 -17 -84 -14 -114 11 -114 25 0 45 41 72 146 22 84 25 112
20 184 -8 105 -25 179 -67 282 -25 62 -40 84 -68 104 -43 29 -53 29 -107 5z"/>
<path d="M10313 25718 c-69 -73 -103 -136 -108 -196 -2 -31 -13 -65 -29 -91
-14 -22 -26 -45 -26 -50 0 -5 -5 -13 -11 -17 -9 -5 -10 1 -5 22 l8 29 -30 -28
c-16 -16 -32 -25 -35 -20 -2 4 6 80 19 168 14 88 22 170 19 182 -3 14 -16 25
-32 29 -45 12 -76 -7 -107 -65 -24 -45 -29 -68 -32 -137 -3 -95 -22 -204 -35
-204 -5 0 -9 12 -9 28 -1 26 -2 26 -21 -12 -34 -63 -42 -35 -36 126 3 78 8
153 12 165 5 15 1 27 -14 42 -24 24 -49 27 -77 7 -17 -13 -19 -27 -19 -118 0
-57 4 -184 9 -283 9 -200 17 -225 66 -225 19 0 34 8 45 23 23 32 61 159 86
284 11 59 25 115 29 123 16 29 23 -18 15 -98 -5 -43 -9 -106 -9 -142 -1 -62 0
-65 27 -74 56 -20 92 19 216 229 32 55 70 125 85 156 14 30 37 66 50 78 l25
23 25 -83 c14 -46 30 -129 36 -184 6 -55 13 -119 16 -142 6 -51 40 -103 79
-122 25 -12 32 -12 62 4 27 15 33 24 31 44 -3 22 -8 26 -37 26 -41 0 -49 16
-50 100 -2 144 -42 357 -77 411 -17 24 -55 44 -88 44 -15 0 -41 -19 -73 -52z"/>
<path d="M11030 25723 c-19 -9 -74 -55 -121 -102 -79 -78 -92 -97 -147 -211
-68 -142 -122 -303 -122 -368 0 -84 85 -132 175 -98 109 42 193 197 225 419
15 97 26 117 35 60 3 -21 10 -65 15 -98 5 -33 15 -99 21 -147 13 -96 40 -154
81 -177 24 -14 30 -14 62 2 20 9 36 23 36 30 0 18 -21 37 -41 37 -28 0 -39 25
-51 116 -22 179 -69 448 -80 462 -10 11 -9 16 5 23 26 15 21 48 -9 59 -34 13
-43 12 -84 -7z m-14 -140 c-6 -16 -33 -111 -78 -278 -41 -154 -104 -261 -164
-279 -72 -22 -43 114 73 348 47 94 85 153 128 199 29 30 51 36 41 10z"/>
<path d="M21320 25621 c-42 -13 -84 -38 -108 -64 l-24 -25 -56 20 c-76 26
-112 20 -234 -39 -90 -42 -109 -57 -178 -131 -67 -72 -78 -81 -90 -67 -17 21
-47 19 -60 -4 -26 -49 2 -136 47 -148 33 -8 66 18 127 100 70 94 98 119 175
157 89 45 137 60 185 60 52 0 82 -21 91 -63 16 -74 60 -129 237 -299 97 -93
182 -167 188 -163 38 23 -28 118 -180 259 -125 116 -163 164 -158 201 3 18 13
21 108 26 113 6 133 11 168 42 32 29 28 63 -12 103 -32 32 -38 34 -104 34 -39
0 -76 2 -84 4 -7 2 -24 1 -38 -3z m122 -93 c-14 -14 -97 -27 -113 -18 -20 13
22 29 76 30 37 0 46 -3 37 -12z m-54 -48 c15 0 15 -2 2 -10 -19 -12 -90 -13
-90 -1 0 11 38 20 58 15 8 -2 21 -4 30 -4z"/>
<path d="M19085 25474 c-85 -30 -106 -102 -61 -201 29 -60 52 -78 125 -94 65
-14 139 -1 254 43 86 33 137 70 137 99 0 28 -30 24 -145 -17 -84 -30 -114 -36
-188 -38 -78 -1 -90 1 -103 19 -16 21 -12 71 7 90 6 5 57 10 117 10 101 0 107
1 110 21 2 12 -9 34 -27 52 -28 31 -32 32 -108 31 -43 0 -96 -7 -118 -15z"/>
<path d="M17656 25434 c-10 -9 -16 -33 -16 -58 0 -31 -9 -55 -31 -89 -34 -51
-34 -73 -3 -93 18 -13 25 -12 55 8 73 49 104 174 54 223 -28 29 -38 31 -59 9z"/>
<path d="M13429 23862 c-154 -63 -264 -202 -364 -462 -47 -120 -69 -212 -119
-501 -25 -140 -54 -292 -66 -339 -11 -47 -23 -122 -27 -168 -5 -71 -3 -85 12
-102 27 -30 82 -26 154 13 88 47 137 91 222 203 105 139 141 196 207 331 125
251 201 474 230 670 18 123 11 205 -23 277 -39 82 -134 115 -226 78z m96 -74
c14 -6 35 -28 48 -47 44 -71 18 -291 -62 -530 -106 -317 -239 -555 -411 -734
-70 -74 -141 -124 -159 -113 -14 9 -4 101 38 341 21 127 42 255 46 285 23 178
87 398 158 539 53 107 167 232 230 255 52 18 79 19 112 4z"/>
<path d="M11740 23730 c-282 -52 -419 -250 -367 -526 19 -95 43 -161 100 -265
l41 -77 -76 -93 c-140 -174 -189 -271 -167 -336 26 -80 102 -82 274 -5 61 27
139 67 175 89 l66 40 67 -63 c78 -72 145 -109 183 -100 29 8 39 26 30 59 -3
15 -26 32 -73 54 -37 17 -83 45 -102 60 l-34 29 49 31 c27 17 94 57 149 89 55
32 120 73 144 93 40 31 42 36 26 47 -29 21 -86 -5 -342 -157 -45 -27 -85 -49
-90 -48 -9 0 -176 192 -181 208 -2 6 39 57 90 113 203 223 319 402 334 518 14
108 -17 180 -95 220 -45 22 -139 32 -201 20z m94 -80 c20 0 40 -12 68 -40 l40
-40 -4 -72 c-3 -63 -10 -83 -47 -148 -23 -42 -83 -125 -132 -185 -49 -61 -110
-138 -136 -172 -27 -35 -51 -63 -55 -63 -10 0 -70 131 -99 216 -20 57 -24 89
-24 179 0 100 3 115 27 161 15 29 44 66 65 83 57 47 198 95 248 85 11 -2 33
-4 49 -4z m-243 -882 c13 -18 50 -61 83 -96 32 -34 57 -63 55 -65 -11 -6 -82
-39 -151 -71 -136 -62 -208 -80 -223 -56 -9 14 23 76 75 146 25 34 63 87 85
118 22 31 43 56 47 56 3 0 17 -15 29 -32z"/>
<path d="M4939 23687 c-238 -81 -414 -320 -464 -632 -39 -236 2 -560 82 -655
29 -35 35 -36 58 -13 21 20 14 64 -19 125 -67 123 -85 491 -31 653 9 28 39 97
67 154 67 136 150 227 252 276 95 46 139 51 225 30 87 -21 134 -62 182 -161
31 -62 34 -77 34 -154 -1 -47 -6 -101 -13 -122 -37 -105 -236 -209 -467 -244
-55 -8 -108 -17 -117 -20 -31 -9 -35 -76 -5 -87 23 -8 173 13 262 38 196 55
338 147 397 256 20 39 23 57 23 164 0 110 -3 125 -28 180 -58 125 -111 176
-225 214 -78 27 -131 26 -213 -2z"/>
<path d="M14935 23466 c-14 -14 -25 -36 -25 -49 0 -14 -22 -89 -49 -168 -74
-218 -58 -195 -142 -203 -40 -4 -85 -14 -99 -21 -67 -35 -106 -116 -94 -194
15 -91 61 -73 73 29 6 49 13 66 31 80 37 28 130 42 130 20 0 -5 -15 -49 -34
-97 -75 -195 -85 -225 -79 -239 8 -22 41 -17 58 10 20 29 74 158 105 246 35
101 39 106 112 114 108 12 380 17 432 9 l50 -8 -94 -59 c-135 -86 -240 -200
-240 -260 0 -54 54 -93 114 -83 53 8 165 56 234 100 68 42 138 122 148 165 13
59 18 53 25 -28 14 -160 70 -275 199 -414 78 -83 112 -103 134 -80 27 26 19
44 -52 118 -84 89 -147 183 -167 250 -18 59 -34 215 -28 266 4 27 0 40 -15 54
-23 20 -62 18 -72 -4 -51 -108 -71 -138 -125 -186 -85 -77 -267 -165 -292
-141 -22 23 156 170 304 249 39 21 77 45 83 53 16 19 5 62 -18 69 -84 27 -341
34 -529 15 -62 -7 -116 -9 -120 -6 -5 6 4 31 46 132 35 82 75 230 68 249 -3 8
-15 20 -27 26 -17 9 -24 7 -45 -14z"/>
<path d="M14308 23243 c-9 -10 -19 -33 -23 -52 -4 -19 -11 -39 -16 -45 -5 -6
-17 -21 -27 -34 -15 -21 -20 -22 -51 -11 -70 25 -226 -22 -347 -103 -199 -135
-289 -326 -194 -411 29 -26 39 -29 81 -25 63 6 139 46 231 121 97 80 167 157
248 275 36 53 71 97 77 99 9 3 13 -62 15 -246 3 -245 4 -251 26 -273 18 -18
26 -20 40 -12 16 10 17 41 19 357 2 301 1 348 -13 362 -20 20 -47 19 -66 -2z
m-143 -243 c8 -13 -172 -190 -262 -257 -83 -61 -129 -82 -182 -83 -33 0 -33 1
-28 35 18 108 215 276 357 304 62 12 108 13 115 1z"/>
<path d="M8739 23207 c-29 -33 -32 -34 -74 -24 -33 8 -58 6 -112 -7 -125 -32
-335 -144 -432 -231 -77 -70 -156 -197 -208 -333 -25 -69 -23 -96 9 -113 30
-16 55 13 69 78 18 89 95 229 164 298 131 132 468 282 492 219 10 -26 -65
-122 -199 -256 -123 -123 -137 -143 -122 -182 20 -52 190 18 291 119 36 36 68
64 70 61 3 -3 12 -42 19 -88 8 -46 26 -106 38 -135 36 -76 63 -90 175 -84 30
1 104 74 99 98 -4 23 -45 29 -66 9 -25 -22 -73 -38 -98 -32 -31 8 -50 67 -70
215 -18 139 -16 157 26 244 34 72 45 116 36 152 -5 21 -12 25 -42 25 -28 0
-42 -7 -65 -33z m-59 -267 c-30 -56 -120 -137 -120 -108 0 23 112 150 122 140
6 -6 6 -18 -2 -32z"/>
<path d="M6078 23186 c-205 -83 -353 -208 -490 -413 -97 -145 -140 -230 -136
-271 7 -78 63 -61 92 27 50 154 247 412 386 508 71 48 205 112 251 119 41 7
42 6 35 -17 -5 -13 -11 -44 -15 -69 -6 -33 -28 -74 -84 -153 -110 -156 -145
-264 -118 -365 14 -50 59 -105 101 -122 49 -20 136 -8 210 29 155 79 322 222
374 320 84 158 9 356 -160 421 -49 19 -83 23 -199 26 l-140 4 -107 -44z m383
-52 c93 -29 179 -139 179 -227 0 -51 -43 -128 -101 -183 -127 -119 -260 -195
-350 -202 -48 -4 -59 -1 -85 21 -26 23 -29 31 -28 84 1 71 29 136 109 253 60
87 108 181 119 237 4 17 15 34 24 36 23 6 78 -2 133 -19z"/>
<path d="M9698 23218 c-9 -7 -39 -48 -67 -92 -72 -110 -264 -374 -301 -414
-17 -19 -34 -31 -37 -28 -3 3 6 61 21 129 14 68 31 163 37 211 9 75 8 90 -5
112 -19 28 -56 32 -78 7 -22 -25 -97 -184 -104 -222 -10 -51 8 -36 54 44 24
41 46 75 48 75 9 0 -21 -188 -56 -352 -14 -70 -17 -104 -10 -122 11 -30 49
-43 79 -27 43 23 244 291 363 484 26 43 53 77 59 77 14 0 7 -80 -22 -249 -11
-64 -17 -125 -15 -137 10 -40 46 -74 78 -74 65 0 296 151 441 288 88 84 90 85
100 61 5 -14 6 -84 2 -165 -5 -115 -3 -149 9 -178 31 -75 61 -29 77 119 12
118 8 293 -10 337 -12 32 -49 45 -80 28 -17 -9 -21 -17 -16 -43 5 -29 0 -35
-43 -68 -26 -20 -63 -44 -82 -53 -43 -20 -96 -53 -141 -87 -69 -52 -204 -129
-226 -129 -28 0 -28 2 -2 115 11 50 23 140 26 202 5 95 3 116 -11 138 -18 28
-61 34 -88 13z"/>
<path d="M7342 23053 c-6 -16 -14 -59 -18 -98 -11 -125 -73 -242 -206 -397
-55 -62 -109 -103 -150 -113 -23 -6 -29 -2 -42 24 -30 56 -16 205 29 303 52
117 146 185 264 192 52 2 68 7 83 26 23 29 23 36 -4 54 -31 22 -123 20 -175
-4 -197 -89 -295 -247 -294 -472 0 -94 13 -137 54 -180 21 -23 35 -28 72 -28
25 0 62 7 81 15 44 18 124 100 189 193 28 39 53 72 58 72 8 0 8 -4 -29 -240
-48 -317 -100 -527 -152 -620 -33 -58 -30 -56 -44 -42 -22 22 -48 14 -48 -13
0 -40 28 -75 60 -75 58 0 124 117 169 297 52 206 69 285 90 418 12 72 33 202
47 290 42 259 53 382 37 405 -21 30 -58 26 -71 -7z"/>
<path d="M6973 21486 c-111 -53 -233 -172 -309 -302 -60 -102 -140 -321 -168
-459 -40 -198 -48 -264 -53 -450 -5 -228 1 -273 40 -295 24 -13 28 -13 44 2
15 16 16 26 5 101 -22 154 -13 393 25 607 25 146 118 410 184 521 76 127 221
239 309 239 105 0 189 -167 190 -376 0 -71 -3 -85 -29 -126 -23 -35 -44 -53
-93 -77 -82 -40 -147 -52 -288 -52 -167 -1 -220 -21 -220 -86 0 -72 75 -173
206 -280 53 -43 138 -110 188 -148 50 -39 141 -112 203 -162 141 -115 222
-164 279 -171 52 -6 104 13 104 38 0 14 -12 19 -57 24 -71 9 -145 43 -198 93
-155 146 -210 194 -366 325 -169 142 -259 227 -259 247 0 5 39 12 88 15 363
24 489 94 523 289 27 159 -52 405 -153 480 -44 33 -131 34 -195 3z"/>
<path d="M3892 21241 c-8 -5 -12 -23 -10 -47 l3 -39 60 -3 c108 -6 116 -5 132
10 9 10 13 24 8 37 -11 35 -155 67 -193 42z"/>
<path d="M8632 21143 c-42 -62 -108 -185 -228 -425 -52 -103 -99 -190 -105
-194 -6 -4 -66 -14 -132 -23 -84 -12 -123 -21 -130 -32 -15 -23 0 -66 29 -85
23 -16 29 -16 89 1 35 9 69 15 74 13 6 -1 -16 -42 -47 -90 -53 -80 -161 -253
-189 -301 -21 -37 28 -89 65 -68 17 9 116 183 215 379 42 82 57 104 77 108 14
2 59 13 100 24 121 31 229 54 233 49 4 -5 -8 -181 -23 -334 -13 -136 -3 -191
37 -206 30 -11 56 15 50 49 -3 14 2 102 10 196 11 121 13 232 9 381 -7 232
-38 548 -57 571 -19 23 -56 17 -77 -13z m26 -263 c7 -58 15 -153 18 -211 l7
-106 -99 -6 c-55 -4 -121 -10 -148 -13 l-49 -7 43 79 c44 79 56 104 123 244
49 101 77 145 86 134 4 -5 13 -56 19 -114z"/>
<path d="M9604 21034 c-19 -20 -49 -64 -66 -97 -17 -34 -41 -78 -54 -99 -13
-21 -58 -104 -101 -185 -84 -163 -164 -306 -240 -428 -39 -63 -56 -81 -81 -87
-24 -7 -36 -18 -51 -52 -32 -74 -35 -102 -12 -125 12 -12 27 -21 35 -21 23 0
65 40 93 88 14 26 56 97 91 157 66 112 218 406 262 505 31 71 112 210 123 210
4 0 5 -28 2 -62 -10 -99 -44 -375 -57 -460 -10 -68 -9 -79 6 -103 21 -31 61
-48 96 -40 54 14 174 139 313 327 65 88 217 335 217 354 0 19 -43 26 -53 8 -5
-8 -23 -31 -40 -51 -18 -20 -43 -55 -57 -78 -35 -59 -79 -118 -199 -267 -103
-129 -187 -206 -203 -190 -5 5 2 76 16 164 14 86 33 231 42 324 17 181 14 213
-26 234 -19 10 -26 7 -56 -26z"/>
<path d="M10180 21028 c-24 -26 -26 -44 -6 -51 38 -15 92 -301 121 -642 10
-104 21 -198 27 -208 5 -10 17 -17 26 -15 23 4 27 127 13 378 -15 272 -57 481
-107 535 -28 31 -47 32 -74 3z"/>
<path d="M3935 20790 c-35 -39 -35 -281 0 -493 21 -129 34 -173 57 -194 19
-17 20 -17 34 2 8 10 12 26 9 34 -10 35 -47 323 -54 426 -6 85 -5 122 7 162 8
29 12 59 9 68 -9 21 -40 19 -62 -5z"/>
<path d="M4940 20769 c-68 -28 -157 -132 -257 -300 -26 -43 -51 -79 -55 -79
-4 0 -9 9 -13 19 -8 26 -42 36 -61 20 -31 -26 -56 -92 -61 -164 -5 -69 -4 -75
20 -99 14 -14 33 -26 41 -26 22 0 73 64 112 143 20 40 60 104 88 143 28 39 62
94 76 122 14 28 31 52 38 52 7 0 25 12 39 26 103 103 222 1 279 -239 16 -70
41 -117 63 -117 23 0 33 32 27 83 -21 164 -93 321 -178 390 -41 33 -113 45
-158 26z"/>
<path d="M2499 18618 c-9 -16 -10 -74 -5 -213 6 -177 39 -546 52 -579 3 -9 -5
-19 -23 -28 -20 -10 -29 -22 -31 -45 -3 -28 1 -32 32 -43 31 -10 36 -16 37
-43 5 -140 29 -459 35 -468 8 -14 40 -10 54 6 17 21 3 282 -26 453 l-5 32 44
0 c25 0 84 -7 133 -16 49 -9 159 -21 244 -27 l155 -12 7 -50 c3 -27 11 -108
18 -180 20 -235 43 -296 85 -231 16 24 16 31 2 93 -9 38 -21 120 -27 183 -6
63 -13 130 -15 147 -3 29 0 34 23 39 105 23 187 45 198 55 19 15 18 45 -2 53
-9 3 -39 0 -67 -8 -79 -22 -120 -27 -137 -16 -13 8 -12 35 7 222 30 285 65
408 128 442 30 16 34 27 22 53 -13 30 -53 40 -86 22 -37 -21 -68 -72 -95 -158
-44 -139 -57 -228 -62 -411 l-4 -175 -42 3 c-56 4 -311 39 -374 51 -27 5 -70
13 -96 16 -25 3 -51 11 -56 18 -5 7 -12 64 -16 127 -4 63 -11 180 -16 260 -5
80 -9 206 -9 281 -1 119 -3 138 -19 152 -25 23 -49 21 -63 -5z"/>
<path d="M7978 18493 c-9 -10 -18 -31 -20 -48 -3 -16 -24 -82 -48 -145 -118
-319 -153 -447 -167 -607 -3 -40 -10 -73 -14 -73 -4 0 -34 18 -65 40 -80 56
-154 81 -254 87 -98 6 -170 -11 -224 -52 -43 -32 -52 -65 -30 -110 52 -110
220 -175 452 -175 247 0 527 61 498 109 -9 14 -83 8 -198 -15 -44 -9 -82 -13
-86 -9 -12 11 -7 186 7 260 27 143 78 298 190 578 35 87 38 122 15 155 -18 27
-36 28 -56 5z m-409 -873 c62 -31 161 -113 161 -133 0 -15 -222 -1 -295 19
-89 24 -185 81 -185 111 0 19 34 33 98 41 81 11 148 -1 221 -38z"/>
<path d="M7170 18197 c-147 -66 -207 -104 -306 -193 -81 -74 -284 -291 -342
-368 -25 -33 -29 -78 -8 -96 27 -22 58 -7 94 45 70 100 252 302 352 390 101
89 192 155 289 207 50 28 68 58 34 58 -10 0 -61 -19 -113 -43z"/>
<path d="M15568 18165 c-74 -50 -151 -186 -188 -330 -11 -44 -25 -81 -30 -83
-5 -2 -33 -15 -62 -30 -94 -48 -100 -103 -24 -214 46 -67 84 -91 114 -72 19
12 26 38 44 164 12 79 15 86 43 100 19 9 71 16 141 18 154 6 158 0 128 -153
-8 -44 -15 -105 -15 -135 0 -51 2 -57 36 -89 34 -30 42 -33 85 -29 88 9 171
98 214 232 30 91 34 154 10 163 -24 9 -38 -12 -89 -128 -25 -59 -56 -115 -68
-126 -33 -30 -85 -58 -93 -50 -4 4 0 51 9 105 27 151 24 184 -19 231 -50 56
-85 65 -227 57 l-119 -7 7 23 c3 13 28 69 55 125 37 75 62 112 96 142 26 23
51 41 55 41 18 0 8 39 -13 54 -31 22 -47 20 -90 -9z m-218 -535 c0 -35 -24
-110 -35 -110 -6 0 -17 16 -24 35 -13 38 -5 66 27 84 25 15 32 13 32 -9z"/>
<path d="M12155 18035 c-33 -44 -127 -238 -154 -320 -24 -73 -48 -187 -57
-276 -11 -111 36 -171 135 -172 79 -1 168 54 318 197 50 47 93 86 96 86 3 0 8
-21 12 -47 18 -147 26 -172 63 -204 30 -27 41 -30 74 -26 46 6 131 62 196 129
53 55 71 84 72 116 0 40 -37 25 -117 -49 -75 -68 -137 -109 -166 -109 -17 0
-27 68 -27 186 0 72 -3 84 -25 108 -42 45 -66 36 -172 -64 -158 -150 -308
-252 -347 -237 -22 9 -21 56 5 180 40 198 116 382 185 449 38 37 43 62 15 78
-40 21 -77 12 -106 -25z m295 -480 c-7 -8 -17 -15 -22 -15 -6 0 -5 7 2 15 7 8
17 15 22 15 6 0 5 -7 -2 -15z"/>
<path d="M13348 18009 c-32 -56 -21 -90 33 -104 21 -5 30 -2 43 16 19 27 21
90 4 107 -23 23 -62 14 -80 -19z"/>
<path d="M5070 18016 c-98 -26 -168 -86 -344 -295 -227 -271 -273 -335 -261
-370 7 -23 37 -35 64 -26 11 3 35 34 55 68 95 170 405 512 509 561 66 31 77
44 52 63 -22 15 -17 15 -75 -1z"/>
<path d="M6056 17888 c-9 -12 -16 -33 -16 -46 0 -14 -14 -37 -33 -55 -19 -18
-61 -58 -95 -90 -60 -57 -161 -196 -181 -250 -16 -43 -13 -75 8 -87 37 -19 86
-11 129 20 67 48 109 115 181 283 11 26 24 47 28 47 4 0 27 -58 50 -128 57
-175 130 -327 181 -376 34 -33 48 -39 84 -40 40 -1 43 1 46 27 2 15 -2 27 -8
27 -24 0 -101 86 -128 144 -34 72 -129 329 -138 372 -5 25 -1 33 20 47 34 23
35 60 1 75 -14 7 -31 12 -36 12 -6 0 -22 9 -36 20 -32 25 -38 25 -57 -2z
m-134 -325 c-31 -48 -92 -114 -92 -99 0 28 106 164 118 152 2 -3 -9 -27 -26
-53z"/>
<path d="M13493 17894 c-17 -8 -30 -55 -48 -183 -21 -148 -24 -154 -75 -171
-90 -30 -128 -106 -68 -139 26 -15 29 -14 59 14 l32 30 -6 -25 c-33 -127 -33
-165 -1 -177 29 -11 52 29 72 125 11 52 23 96 26 99 3 4 86 10 183 14 98 4
181 8 186 8 4 1 7 8 7 17 0 19 35 -18 69 -75 54 -89 155 -131 325 -134 88 -2
108 1 123 15 29 30 3 40 -133 54 -70 8 -142 18 -160 24 -41 14 -96 75 -92 101
3 18 14 20 93 25 120 6 216 35 249 75 34 40 33 57 -8 111 -44 58 -82 73 -176
72 -128 -1 -234 -67 -259 -162 l-11 -39 -183 -5 c-100 -3 -184 -4 -185 -2 -2
1 1 18 7 36 14 43 51 216 51 240 0 36 -44 65 -77 52z m767 -219 c24 -28 -3
-44 -130 -76 -89 -22 -140 -24 -140 -6 0 21 54 67 96 82 53 19 158 19 174 0z"/>
<path d="M17105 17891 c-38 -10 -87 -35 -138 -72 -42 -31 -111 -115 -122 -149
-9 -27 -33 -25 -78 6 -115 78 -248 10 -431 -219 -21 -26 -53 -54 -73 -62 -29
-12 -34 -19 -31 -41 2 -20 14 -33 41 -47 34 -18 39 -18 61 -3 13 8 47 48 75
88 100 141 206 230 274 230 17 0 53 -9 78 -20 44 -19 46 -22 52 -70 10 -87 47
-140 152 -218 75 -55 163 -111 197 -123 39 -15 97 -43 311 -145 166 -80 207
-91 207 -56 0 43 -53 74 -346 203 -328 145 -424 217 -424 320 0 43 -3 42 110
54 144 16 223 62 274 160 55 108 -48 198 -189 164z m115 -101 c0 -64 -63 -115
-176 -144 -121 -31 -134 -14 -51 67 62 60 147 107 194 107 30 0 33 -3 33 -30z"/>
<path d="M4011 17867 c-6 -8 -10 -52 -9 -113 2 -90 0 -105 -26 -161 -31 -69
-98 -138 -142 -149 -40 -10 -78 14 -82 52 -4 39 30 130 69 183 33 47 83 81
116 81 27 0 45 29 32 52 -5 9 -24 22 -43 28 -110 36 -255 -164 -256 -351 0
-90 48 -131 155 -131 86 0 171 75 206 179 6 20 15 31 20 26 4 -4 25 -62 45
-128 19 -65 47 -140 60 -166 47 -94 125 -139 132 -78 2 18 -10 45 -36 83 -23
32 -51 91 -65 138 -85 270 -87 278 -87 353 0 62 -4 79 -20 95 -23 23 -53 26
-69 7z"/>
<path d="M5146 17808 c-26 -41 -39 -142 -34 -270 4 -101 8 -130 26 -165 74
-142 214 -125 397 48 125 119 235 277 215 309 -13 21 -35 6 -78 -53 -67 -90
-123 -147 -206 -209 -137 -102 -184 -118 -226 -74 -28 31 -39 86 -39 201 -1
69 4 100 19 134 25 54 25 78 1 91 -31 16 -59 12 -75 -12z"/>
<path d="M11410 17805 c-8 -2 -69 -9 -135 -15 -234 -23 -487 -89 -605 -157
-60 -35 -194 -166 -226 -221 -31 -52 -35 -103 -11 -130 29 -32 116 -68 135
-56 32 20 26 52 -13 75 -38 23 -39 32 -10 89 27 52 158 164 235 201 184 89
520 177 635 167 l40 -3 -35 -17 c-19 -9 -88 -40 -154 -69 -208 -92 -281 -154
-306 -260 -16 -67 0 -125 52 -184 102 -116 303 -112 553 12 83 41 145 89 145
113 0 6 -6 10 -13 10 -13 0 -106 -35 -172 -65 -143 -63 -340 -90 -408 -53 -53
28 -74 135 -38 194 42 69 177 151 351 213 115 42 152 65 148 94 -5 34 -109 73
-168 62z"/>
<path d="M9672 17775 c-203 -45 -370 -212 -418 -416 -18 -76 -8 -115 41 -158
123 -108 387 10 536 240 28 43 56 79 60 79 5 0 9 -15 9 -34 0 -44 25 -166 44
-209 21 -51 76 -108 124 -129 40 -18 82 -17 82 2 0 10 -61 70 -72 70 -14 0
-47 67 -62 125 -37 143 -37 307 -1 328 24 13 17 45 -13 61 -84 44 -234 62
-330 41z m188 -55 c61 -1 65 -10 26 -78 -57 -101 -90 -143 -173 -223 -93 -89
-152 -131 -222 -159 -94 -37 -145 -24 -156 38 -8 48 17 126 66 207 32 53 130
144 189 176 42 22 163 49 200 44 19 -3 51 -5 70 -5z"/>
<path d="M14723 17680 c-69 -16 -123 -76 -123 -135 0 -39 51 -127 89 -154 99
-71 255 -65 411 14 57 29 105 78 97 99 -7 17 -37 21 -52 7 -6 -5 -44 -23 -85
-40 -62 -27 -93 -33 -182 -38 l-107 -6 -30 31 c-60 59 -28 142 55 142 25 0 38
-7 50 -25 20 -30 58 -42 79 -25 23 19 18 36 -21 80 -49 54 -103 69 -181 50z"/>
<path d="M13020 17645 c-7 -9 -17 -57 -21 -108 -4 -51 -17 -144 -28 -207 -27
-150 -27 -200 0 -234 14 -17 29 -26 43 -24 19 3 21 10 22 68 1 36 15 137 32
225 47 249 46 237 22 268 -24 30 -51 35 -70 12z"/>
<path d="M5480 16251 c-113 -37 -195 -123 -279 -293 -77 -155 -123 -276 -161
-425 -63 -242 -71 -372 -44 -667 19 -218 19 -216 48 -216 44 0 57 36 45 130
-7 52 -4 82 12 148 26 105 23 136 -12 140 -16 2 -29 11 -32 22 -8 32 11 261
33 385 29 162 32 171 56 166 73 -14 189 -1 375 43 312 74 418 118 440 184 9
29 7 40 -16 89 -38 78 -191 231 -267 267 -60 29 -153 42 -198 27z m147 -87
c60 -29 181 -137 223 -200 66 -94 57 -99 -372 -208 -217 -55 -288 -65 -307
-42 -11 13 -11 20 -3 28 7 7 12 20 12 31 0 10 11 33 25 51 14 18 25 40 25 49
0 74 156 272 241 306 44 18 103 12 156 -15z"/>
<path d="M15102 15835 c-75 -17 -92 -26 -144 -73 -79 -71 -83 -89 -82 -327 2
-340 47 -653 110 -747 23 -37 62 -57 83 -43 16 10 13 61 -5 76 -53 44 -86 223
-114 611 -12 166 -3 255 33 328 18 36 33 51 78 73 69 35 174 45 274 28 147
-26 374 -120 375 -156 0 -14 -12 -21 -242 -136 -344 -172 -398 -210 -398 -274
0 -69 76 -137 215 -192 113 -45 227 -73 321 -80 98 -7 134 0 134 26 0 21 -71
51 -120 51 -15 0 -85 16 -156 35 -142 39 -297 110 -302 137 -5 26 82 78 350
211 264 131 288 146 288 187 0 47 -116 147 -223 193 -172 74 -349 101 -475 72z"/>
<path d="M12296 15649 c-29 -23 -33 -50 -12 -72 19 -19 65 -10 88 17 48 57
-15 103 -76 55z"/>
<path d="M6436 15605 c-115 -47 -259 -165 -367 -301 -68 -86 -162 -242 -189
-314 -25 -67 -18 -90 26 -90 19 0 34 14 65 62 24 39 38 70 35 82 -9 34 56 144
149 250 124 143 224 224 309 252 28 9 57 19 64 22 19 7 14 -33 -12 -101 -53
-132 -78 -239 -83 -350 -7 -129 8 -177 67 -231 135 -122 423 -31 517 163 24
49 27 67 26 147 0 70 -6 102 -22 140 -32 70 -56 92 -134 116 -95 28 -167 15
-167 -32 0 -23 20 -30 84 -30 105 0 147 -59 149 -205 0 -92 -14 -134 -65 -182
-81 -78 -242 -113 -305 -67 -53 40 -68 78 -65 177 2 105 19 183 67 308 20 52
38 115 42 141 5 45 4 48 -21 58 -44 16 -107 11 -170 -15z"/>
<path d="M16440 15549 c-13 -6 -31 -16 -40 -23 -8 -7 -35 -20 -60 -29 -77 -29
-175 -111 -204 -170 -55 -112 -60 -253 -13 -359 67 -150 285 -278 475 -278
168 0 343 93 395 210 29 65 36 228 12 301 -45 138 -133 247 -243 303 -96 49
-256 71 -322 45z m240 -91 c124 -37 186 -102 237 -251 22 -62 25 -83 19 -145
-10 -126 -54 -191 -168 -251 -72 -37 -147 -47 -235 -31 -164 30 -298 117 -343
222 -41 97 -12 248 63 326 58 61 112 85 190 88 73 2 93 14 76 45 -5 10 -9 20
-9 23 0 10 105 -6 170 -26z"/>
<path d="M5130 15515 c-17 -21 -8 -50 17 -53 14 -2 26 4 34 19 10 19 9 25 -7
36 -23 17 -29 16 -44 -2z"/>
<path d="M17519 15503 c-9 -15 -36 -64 -59 -108 -24 -44 -61 -107 -82 -140
-20 -33 -52 -87 -69 -120 -17 -33 -71 -130 -119 -215 -144 -255 -230 -420
-230 -444 0 -34 23 -58 50 -54 20 2 47 50 185 323 89 176 167 336 175 355 7
19 18 49 25 65 6 17 30 59 53 94 23 35 43 69 45 75 3 7 8 8 15 1 7 -7 6 -40
-3 -105 -16 -115 -14 -382 4 -425 20 -50 61 -85 97 -85 99 0 282 144 396 313
86 128 198 261 209 250 22 -22 42 -139 48 -283 5 -137 8 -155 24 -158 33 -7
51 60 52 188 0 171 -30 285 -93 353 -14 15 -32 27 -40 27 -21 0 -108 -92 -177
-188 -151 -210 -229 -295 -335 -365 -30 -20 -66 -38 -80 -39 -33 -4 -37 20
-38 197 -1 128 7 213 38 394 10 58 9 67 -8 90 -27 37 -63 39 -83 4z m610 -214
c-23 -27 -44 -48 -46 -45 -9 9 7 42 37 74 48 53 56 27 9 -29z"/>
<path d="M12444 15415 c-30 -45 -2 -265 57 -441 11 -34 30 -103 43 -154 25
-103 46 -130 72 -95 17 22 18 16 -37 246 -45 191 -63 315 -55 379 10 78 -43
121 -80 65z"/>
<path d="M7363 15335 c-120 -33 -178 -75 -213 -157 -39 -90 -14 -162 70 -205
115 -59 315 2 533 163 20 15 40 24 44 21 3 -4 -6 -69 -20 -144 -44 -228 -77
-436 -107 -670 -26 -198 -43 -293 -56 -315 -3 -4 -14 -2 -25 5 -39 24 -60 -39
-27 -80 19 -24 63 -15 95 20 35 36 51 98 78 292 22 161 41 274 69 420 14 72
27 144 30 160 3 17 22 117 42 223 29 155 34 195 24 207 -19 23 -42 18 -96 -20
-58 -41 -62 -42 -66 -12 -6 45 -173 107 -283 106 -22 0 -63 -7 -92 -14z m192
-86 c64 -18 146 -60 139 -71 -21 -34 -299 -138 -369 -138 -79 0 -130 62 -100
119 17 35 58 65 111 85 48 17 165 20 219 5z"/>
<path d="M9001 15309 c-183 -20 -442 -102 -546 -173 -62 -42 -122 -105 -168
-176 -20 -30 -50 -69 -66 -86 -22 -24 -31 -45 -36 -88 -9 -68 -4 -83 30 -92
36 -9 50 8 74 86 24 80 122 233 173 272 83 63 204 113 393 164 107 28 145 31
145 8 0 -35 -36 -86 -141 -205 -60 -68 -112 -135 -116 -148 -7 -29 18 -51 59
-51 53 0 205 179 193 227 -6 26 13 93 28 93 5 0 6 -14 2 -31 -5 -20 -2 -36 7
-47 8 -9 20 -62 26 -117 24 -198 57 -265 131 -265 31 0 44 6 60 26 37 47 24
82 -22 65 -36 -14 -43 -2 -68 129 -16 84 -22 155 -23 265 l-1 150 -25 1 c-14
1 -63 -2 -109 -7z"/>
<path d="M9515 15296 c-18 -13 -19 -28 -16 -267 2 -221 4 -256 18 -266 28 -21
57 -15 93 20 34 32 170 231 170 248 0 5 5 9 11 9 8 0 10 -31 4 -110 -8 -123 1
-152 49 -164 53 -13 138 48 321 229 78 77 165 140 206 150 23 6 28 2 47 -42
25 -59 47 -137 63 -223 19 -101 49 -148 88 -135 10 3 22 13 25 22 8 20 -38
258 -63 324 -46 119 -102 163 -176 139 -46 -15 -140 -84 -250 -185 -121 -111
-208 -185 -217 -185 -12 0 -10 93 4 184 13 90 4 152 -25 170 -33 21 -66 -13
-136 -136 -36 -65 -83 -137 -103 -160 l-38 -43 1 140 c1 248 0 262 -17 279
-19 20 -35 20 -59 2z"/>
<path d="M13345 15289 c-41 -24 -69 -57 -146 -170 -85 -126 -197 -254 -230
-264 -38 -12 -43 7 -30 111 7 52 17 108 22 124 15 42 -11 100 -45 100 -47 0
-58 -34 -64 -203 l-5 -152 28 -33 c22 -26 34 -32 66 -32 53 0 84 17 150 87 70
73 116 132 164 208 63 99 104 145 130 145 35 0 124 -76 173 -149 39 -59 52
-90 67 -164 7 -36 33 -46 52 -21 23 30 11 112 -26 188 -32 65 -117 168 -171
206 -35 25 -108 35 -135 19z"/>
<path d="M5463 13790 c-155 -62 -293 -287 -396 -645 -51 -177 -76 -397 -57
-489 13 -65 32 -88 69 -84 21 2 33 17 63 73 56 104 60 126 43 230 -29 174 -13
266 54 332 44 42 79 58 153 67 57 7 86 26 73 47 -12 19 -133 6 -183 -20 -24
-12 -61 -38 -82 -58 -22 -19 -40 -32 -40 -28 0 22 110 279 165 385 32 62 147
141 214 148 79 7 146 -39 222 -155 80 -123 106 -296 60 -413 -43 -111 -265
-386 -428 -532 -75 -67 -92 -78 -124 -78 -58 0 -76 -45 -28 -70 72 -39 203 52
403 280 203 231 269 334 286 447 30 193 -70 443 -217 540 -46 31 -63 36 -126
40 -55 2 -84 -2 -124 -17z m-349 -882 c19 -92 10 -174 -18 -165 -16 5 -19 31
-11 114 7 72 20 95 29 51z"/>
<path d="M7430 13565 c-15 -18 -44 -321 -50 -516 0 -11 -22 -24 -67 -39 -142
-48 -203 -115 -203 -222 0 -51 11 -71 36 -66 21 4 40 36 54 93 13 56 61 110
115 131 25 9 48 14 52 10 11 -11 -14 -158 -37 -222 -33 -89 -35 -103 -15 -111
42 -15 97 98 122 252 9 50 20 95 27 101 6 6 103 28 216 48 229 40 220 39 220
27 0 -11 -140 -249 -180 -306 -15 -22 -40 -64 -55 -93 -26 -51 -27 -53 -10
-72 63 -70 198 50 305 271 48 99 51 116 15 93 -24 -16 -25 -15 -25 5 0 12 11
26 29 35 16 9 31 22 34 31 4 8 17 15 30 15 27 0 46 -25 112 -145 68 -123 223
-352 281 -414 39 -42 64 -61 80 -61 32 0 31 22 -4 62 -75 86 -146 205 -276
458 -40 80 -83 153 -94 163 -27 25 -97 40 -121 27 -12 -6 -37 -6 -67 -1 -58
11 -221 -9 -372 -45 -58 -14 -109 -21 -113 -17 -5 5 1 89 11 188 36 325 35
306 15 321 -24 18 -50 18 -65 -1z"/>
<path d="M13200 13513 c-97 -11 -189 -55 -252 -119 -93 -94 -132 -203 -186
-514 -29 -163 -33 -221 -37 -470 -3 -215 -3 -220 18 -235 29 -20 54 -19 66 3
5 9 11 159 14 332 5 350 18 463 68 615 39 117 78 183 140 239 144 129 381 112
550 -41 86 -78 40 -110 -213 -148 -308 -46 -381 -66 -423 -117 -72 -85 10
-217 246 -399 136 -105 413 -269 454 -269 22 0 31 29 14 45 -8 8 -79 55 -158
105 -244 154 -443 321 -471 395 -35 93 -13 103 377 165 156 25 218 42 264 73
156 105 -211 370 -471 340z"/>
<path d="M6626 13372 c-13 -22 -27 -171 -22 -227 14 -130 -52 -310 -172 -471
-107 -145 -211 -217 -315 -218 -54 -1 -61 2 -89 33 -28 32 -30 38 -26 100 5
101 60 202 168 313 94 96 141 123 239 136 71 10 102 32 84 60 -16 25 -121 20
-196 -8 -98 -37 -224 -152 -308 -282 -80 -124 -103 -269 -54 -341 41 -59 94
-82 195 -82 78 0 90 3 150 35 125 67 279 258 330 408 13 39 30 72 37 72 7 0
22 -30 33 -67 44 -145 172 -425 218 -478 51 -60 113 -83 127 -48 4 12 -1 24
-17 35 -44 34 -57 51 -99 130 -49 96 -141 353 -176 498 -21 84 -25 125 -23
205 1 55 3 123 4 150 l1 50 -42 3 c-22 2 -44 -1 -47 -6z"/>
<path d="M14442 13354 c-41 -28 -72 -109 -166 -424 -14 -47 -37 -100 -51 -119
-14 -19 -25 -46 -25 -59 0 -33 -48 -126 -108 -209 -112 -154 -145 -211 -138
-237 3 -14 15 -28 27 -31 38 -12 65 3 85 47 10 24 46 84 78 133 33 50 79 131
103 181 24 51 49 97 57 103 25 21 121 34 241 32 66 -2 125 -7 132 -13 7 -6 13
-23 13 -39 0 -16 9 -91 20 -166 42 -292 56 -343 92 -343 26 0 31 34 14 117
-30 147 -66 416 -57 425 3 4 35 3 71 -2 63 -9 90 -2 90 22 0 13 -76 45 -127
53 -24 4 -45 10 -47 14 -3 4 -9 68 -15 142 -18 219 -49 291 -155 353 -66 39
-100 44 -134 20z m118 -101 c40 -46 54 -79 69 -168 7 -38 19 -105 28 -149 9
-47 11 -82 6 -87 -6 -6 -47 -5 -104 3 -67 8 -113 9 -157 1 -34 -5 -64 -8 -66
-6 -2 2 13 50 34 106 20 56 49 139 64 184 55 170 68 182 126 116z"/>
<path d="M10711 13332 c-31 -9 -66 -56 -58 -76 11 -28 37 -30 91 -7 28 11 63
21 76 21 14 0 32 5 40 10 13 9 12 13 -9 30 -13 11 -31 20 -41 20 -10 0 -30 2
-46 4 -16 3 -40 2 -53 -2z"/>
<path d="M16107 13232 c-10 -10 -17 -23 -17 -28 0 -5 -9 -15 -19 -21 -53 -33
-168 -219 -232 -376 -29 -73 -116 -231 -157 -285 -24 -31 -87 -72 -113 -72 -8
0 -9 17 -4 58 15 126 57 364 87 492 41 174 41 199 6 219 -21 12 -32 13 -45 5
-20 -12 -112 -143 -113 -160 0 -6 -13 -29 -29 -51 -16 -23 -39 -62 -52 -89
-12 -27 -37 -68 -55 -93 -19 -24 -34 -48 -34 -54 0 -5 -22 -48 -49 -96 -27
-47 -69 -124 -93 -171 -25 -47 -74 -141 -110 -210 -36 -69 -82 -165 -103 -215
l-37 -90 27 -23 c49 -42 65 -25 121 128 15 41 60 141 100 222 95 190 209 436
217 468 11 44 125 245 140 248 30 6 30 3 -21 -315 -18 -105 -33 -221 -34 -258
-3 -60 -1 -69 21 -86 39 -31 69 -34 119 -10 112 55 157 118 276 384 97 218
155 325 206 378 47 50 72 50 109 -1 33 -46 38 -58 85 -210 43 -137 58 -206 86
-405 24 -163 43 -220 75 -220 17 0 20 6 19 45 -1 141 -108 616 -167 743 -58
125 -164 200 -210 149z"/>
<path d="M10633 12958 c-19 -24 -54 -158 -63 -241 -35 -315 -37 -346 -18 -365
15 -15 54 -16 63 -2 4 6 13 74 20 153 16 167 38 284 59 326 25 48 21 105 -9
125 -29 19 -39 20 -52 4z"/>
<path d="M11089 12958 c0 -2 -1 -113 -3 -247 -2 -261 0 -271 47 -271 39 0 67
29 148 154 164 253 158 249 237 169 32 -32 77 -86 100 -119 41 -61 116 -128
137 -121 25 9 11 43 -56 144 -90 134 -159 204 -217 221 -76 23 -112 -3 -203
-143 -86 -134 -91 -140 -99 -124 -4 8 -4 66 0 129 7 121 1 161 -26 191 -14 15
-62 27 -65 17z"/>
</g>
</svg>
