<?xml version="1.0" standalone="no"?>
<!DOCTYPE svg PUBLIC "-//W3C//DTD SVG 20010904//EN"
 "http://www.w3.org/TR/2001/REC-SVG-20010904/DTD/svg10.dtd">
<svg version="1.0" xmlns="http://www.w3.org/2000/svg"
 width="3264.000000pt" height="2448.000000pt" viewBox="0 0 3264.000000 2448.000000"
 preserveAspectRatio="xMidYMid meet">
<metadata>
Created by potrace 1.12, written by Peter Selinger 2001-2015
</metadata>
<g transform="translate(0.000000,2448.000000) scale(0.100000,-0.100000)"
fill="#000000" stroke="none">
<path d="M6170 21455 c-10 -12 -11 -50 -1 -188 19 -275 25 -309 57 -321 32
-12 37 33 30 257 -4 121 -10 225 -12 232 -4 10 -45 35 -58 35 -2 0 -9 -7 -16
-15z"/>
<path d="M7109 21408 c-16 -30 -12 -206 6 -313 19 -109 56 -260 95 -390 16
-55 35 -139 41 -187 6 -48 17 -93 25 -99 23 -19 49 7 68 68 30 96 52 130 102
159 93 55 247 81 275 48 7 -9 15 -44 17 -78 3 -66 -14 -109 -69 -174 -46 -53
-82 -65 -172 -58 l-78 7 3 -28 c5 -41 39 -55 123 -50 81 4 114 19 174 79 66
66 94 128 98 223 7 140 -39 176 -200 158 -110 -13 -182 -47 -253 -118 -31 -31
-57 -55 -59 -53 -1 2 -23 89 -48 193 -59 243 -82 401 -74 509 5 65 3 88 -9
105 -19 27 -50 27 -65 -1z"/>
<path d="M7994 21256 c-35 -36 -54 -63 -54 -78 0 -62 63 -78 89 -23 8 17 31
49 53 73 32 35 37 45 28 62 -19 36 -57 25 -116 -34z"/>
<path d="M4290 21195 c-18 -22 -8 -110 26 -220 39 -130 40 -125 -36 -148 -36
-10 -89 -30 -118 -43 -29 -13 -65 -24 -81 -24 -35 0 -41 21 -42 154 0 107 -15
160 -45 164 -46 7 -48 -16 -22 -193 14 -90 22 -169 18 -175 -4 -6 -31 -21 -61
-33 -138 -58 -178 -91 -163 -134 5 -14 14 -28 20 -30 7 -2 39 19 72 46 66 55
121 91 139 91 6 0 14 -19 18 -42 3 -24 17 -96 31 -161 32 -157 32 -159 -16
-191 -42 -28 -51 -55 -25 -76 13 -11 21 -9 47 10 32 23 47 17 48 -21 0 -28 40
-69 66 -69 31 0 41 24 25 64 -19 45 -28 89 -23 104 6 18 66 47 195 94 200 72
193 70 211 43 9 -14 16 -30 16 -38 0 -14 19 -37 32 -37 19 0 29 41 19 77 -7
23 -7 41 -1 47 5 5 51 18 102 30 87 21 93 24 96 49 2 17 -2 29 -11 33 -8 3
-61 -11 -118 -30 l-104 -35 -22 27 c-33 39 -125 248 -121 274 3 25 31 36 99
37 26 1 61 4 78 7 27 6 32 11 29 33 -3 22 -9 26 -40 29 -20 2 -67 -6 -104 -17
-86 -27 -89 -27 -107 12 -18 37 -57 208 -57 248 0 15 -3 34 -6 43 -8 20 -48
21 -64 1z m131 -500 c18 -44 48 -104 66 -133 19 -29 33 -61 31 -70 -2 -12 -28
-23 -88 -39 -47 -12 -129 -44 -182 -72 -92 -47 -98 -49 -108 -31 -5 10 -10 34
-10 52 0 18 -11 78 -25 133 -14 55 -25 112 -25 127 0 32 10 38 122 77 46 16
101 35 123 44 50 19 53 17 96 -88z"/>
<path d="M8459 21098 c-18 -29 -20 -45 -16 -120 l4 -88 -33 -19 c-37 -22 -47
-66 -18 -78 13 -5 26 -1 76 25 3 2 11 -12 16 -30 6 -18 23 -75 38 -126 30
-103 64 -153 89 -132 22 18 18 56 -16 171 -46 153 -43 168 36 169 92 0 150 39
113 76 -12 12 -22 12 -74 -4 -32 -11 -74 -22 -91 -25 -46 -9 -57 16 -49 106 5
58 3 73 -10 88 -24 27 -41 23 -65 -13z"/>
<path d="M9299 20964 c-119 -50 -182 -97 -199 -149 -21 -64 -2 -94 115 -171
88 -58 116 -84 139 -128 20 -38 10 -55 -52 -89 -62 -34 -135 -36 -193 -6 -49
24 -72 13 -67 -34 2 -24 12 -35 42 -50 35 -19 45 -19 113 -9 122 19 233 92
257 168 12 40 -46 106 -173 195 -79 55 -106 88 -96 118 9 29 66 65 139 91 128
44 153 61 140 95 -10 25 -54 17 -165 -31z"/>
<path d="M5605 20830 c-33 -4 -80 -15 -104 -24 -24 -9 -52 -14 -61 -11 -21 7
-139 -82 -173 -132 -81 -117 -73 -230 22 -316 92 -83 216 -106 356 -67 151 42
228 103 289 230 49 105 37 170 -45 244 -76 69 -162 92 -284 76z m179 -80 c42
-22 85 -87 92 -141 23 -166 -241 -326 -440 -267 -85 26 -159 138 -141 216 3
16 31 57 61 90 48 54 63 63 132 86 42 13 86 27 97 30 39 9 170 0 199 -14z"/>
<path d="M7940 20791 c-15 -30 -13 -54 20 -180 16 -64 34 -148 40 -186 6 -39
15 -77 20 -84 12 -21 39 -5 55 32 15 37 6 150 -20 242 -7 28 -17 73 -20 100
-4 28 -14 60 -21 73 -18 28 -59 29 -74 3z"/>
<path d="M17092 20510 c-40 -25 -94 -107 -124 -191 -38 -106 -26 -329 18 -346
8 -3 18 -2 22 2 4 3 10 75 13 158 6 172 26 242 84 305 31 34 32 34 70 22 34
-11 40 -11 52 6 17 23 13 36 -18 51 -35 18 -80 16 -117 -7z"/>
<path d="M14162 20263 c-15 -29 -59 -182 -73 -251 -10 -55 -9 -241 3 -327 3
-17 -9 -24 -72 -45 -110 -37 -122 -45 -118 -83 4 -46 30 -46 91 1 29 21 67 46
84 56 l32 16 7 -37 c3 -21 20 -94 36 -161 20 -81 27 -127 20 -134 -5 -5 -53
-12 -106 -15 -105 -6 -122 -16 -105 -60 11 -30 40 -30 127 2 116 42 114 43
146 -86 17 -67 28 -138 28 -178 0 -37 3 -74 8 -81 13 -21 40 -3 56 37 14 32
14 48 4 111 -6 41 -22 109 -35 151 -13 45 -19 80 -14 87 5 6 41 16 81 23 139
23 183 33 263 56 44 13 94 26 110 30 l31 6 18 -139 c19 -151 27 -175 48 -154
15 15 16 71 5 195 l-8 87 26 10 c15 6 51 10 81 10 46 0 54 3 54 19 0 23 -18
31 -45 20 -11 -4 -43 -8 -71 -8 -51 -1 -52 0 -57 32 -52 304 -52 308 -37 318
8 5 42 8 75 7 48 -2 60 0 60 12 0 12 -15 15 -72 15 -39 0 -74 3 -78 7 -4 4
-24 85 -45 180 -21 95 -41 181 -45 191 -8 20 -51 41 -66 31 -15 -9 -10 -65 12
-144 41 -144 67 -265 59 -270 -5 -3 -42 -7 -82 -8 -88 -3 -257 -37 -313 -62
-22 -10 -56 -21 -76 -25 -47 -9 -50 -2 -56 157 -6 133 -2 160 43 301 19 59 22
82 14 97 -13 25 -36 26 -48 3z m564 -671 c18 -100 28 -181 23 -186 -5 -6 -46
-11 -91 -13 -79 -2 -124 -10 -311 -55 -48 -11 -90 -18 -93 -16 -7 8 -74 281
-74 305 0 25 54 55 100 55 25 0 87 12 150 28 146 38 225 57 250 59 12 1 22
-37 46 -177z"/>
<path d="M20592 20224 c-27 -19 -29 -61 -4 -103 11 -21 23 -31 37 -29 17 3 20
12 23 65 2 52 0 63 -16 72 -14 7 -25 6 -40 -5z"/>
<path d="M2700 20035 c-59 -15 -94 -34 -209 -112 -107 -73 -176 -136 -257
-234 -55 -68 -65 -97 -40 -119 29 -24 60 -8 75 38 43 138 442 416 535 374 57
-26 77 -132 56 -298 -12 -94 -37 -207 -65 -289 -37 -109 -86 -237 -113 -296
-74 -160 -128 -352 -112 -393 11 -29 38 -46 73 -46 27 0 130 37 222 79 33 16
123 58 200 94 77 35 151 68 165 72 30 9 213 86 288 121 79 38 130 54 168 54
51 0 81 51 48 84 -21 22 -63 20 -89 -4 -11 -10 -104 -53 -205 -95 -347 -142
-312 -127 -612 -266 -161 -75 -182 -76 -180 -7 1 41 70 245 135 403 25 61 102
300 132 410 9 34 19 120 22 200 5 136 4 141 -19 175 -44 64 -113 82 -218 55z"/>
<path d="M21511 19914 c-28 -35 -25 -78 6 -82 33 -5 65 32 61 71 -4 43 -37 49
-67 11z"/>
<path d="M21906 19875 c-20 -20 -19 1 -20 -430 -1 -252 -5 -374 -13 -407 -14
-50 -9 -78 13 -78 49 0 73 190 76 591 2 290 1 300 -19 320 -19 19 -21 19 -37
4z"/>
<path d="M11949 19855 c-3 -2 -106 -7 -229 -10 -124 -3 -272 -8 -330 -10 -127
-7 -330 -34 -347 -48 -16 -12 -17 -49 -1 -65 16 -16 58 -15 77 2 24 22 125 35
353 46 357 17 551 31 570 41 10 5 18 19 18 29 0 17 -7 20 -53 20 -30 0 -56 -2
-58 -5z"/>
<path d="M22251 19764 c-25 -32 -25 -33 -5 -62 19 -28 29 -28 59 3 29 28 31
47 9 69 -22 23 -40 20 -63 -10z"/>
<path d="M20996 19744 c-3 -9 -9 -109 -12 -222 -2 -113 -7 -209 -10 -213 -3
-5 -9 -43 -14 -86 -8 -77 -1 -120 23 -135 49 -31 198 26 281 108 61 62 86 111
86 169 0 92 -78 124 -216 87 l-77 -20 7 129 c5 102 3 137 -8 164 -16 38 -49
48 -60 19z m261 -340 c48 -13 37 -68 -27 -138 -47 -51 -121 -101 -164 -112
l-29 -7 6 82 c6 92 19 119 75 155 37 25 92 32 139 20z"/>
<path d="M22599 19733 c-10 -12 -13 -40 -11 -102 2 -47 5 -111 5 -141 l2 -54
-45 -12 c-25 -6 -70 -17 -100 -24 -71 -16 -100 -34 -100 -64 0 -50 21 -51 135
-7 58 23 110 41 115 41 12 0 12 -109 1 -195 -9 -69 2 -107 24 -84 15 16 40
130 50 231 7 67 7 68 44 78 52 14 128 12 160 -5 41 -21 63 -82 62 -175 -1
-101 -17 -180 -41 -202 -24 -22 -23 -20 -8 -53 16 -36 48 -29 70 15 40 83 61
278 39 374 -12 49 -61 100 -112 115 -31 10 -57 10 -114 0 -41 -6 -80 -9 -88
-6 -11 4 -15 34 -19 126 -3 99 -7 124 -23 141 -22 24 -29 25 -46 3z"/>
<path d="M12178 19705 c-8 -19 -28 -31 -77 -47 -64 -22 -82 -22 -581 -26 -341
-2 -519 -7 -527 -14 -17 -14 -16 -53 1 -68 11 -9 32 -9 88 0 40 6 255 15 478
20 414 9 500 17 625 59 43 14 50 20 53 46 3 19 -2 33 -14 42 -25 18 -33 16
-46 -12z"/>
<path d="M16083 19702 c-67 -24 -121 -62 -186 -130 -72 -75 -87 -91 -140 -141
-51 -48 -96 -129 -104 -189 -12 -86 56 -141 173 -142 104 0 246 63 376 167 95
76 142 126 177 193 51 96 39 151 -51 216 -47 35 -59 39 -123 42 -49 2 -86 -3
-122 -16z m187 -63 c19 -11 41 -28 48 -37 17 -23 15 -88 -5 -120 -141 -224
-514 -406 -578 -282 -8 16 -15 38 -15 48 0 16 51 125 66 141 2 3 14 -5 27 -17
40 -37 57 -29 57 26 0 54 16 75 84 105 36 17 38 20 32 52 -6 32 -4 35 39 61
83 48 186 58 245 23z"/>
<path d="M20270 19651 c-168 -65 -229 -112 -237 -183 -5 -42 -3 -45 67 -123
130 -145 158 -220 100 -269 -41 -34 -87 -41 -148 -23 -57 16 -82 8 -82 -27 0
-73 144 -84 257 -20 54 31 88 98 78 151 -10 57 -37 101 -119 197 -42 48 -76
97 -76 107 0 10 12 29 26 42 38 35 162 96 214 105 39 7 45 11 45 32 0 22 -5
25 -40 27 -22 1 -60 -6 -85 -16z"/>
<path d="M22956 19650 c-53 -21 -66 -33 -66 -66 0 -39 24 -48 72 -26 24 10 55
22 70 25 15 4 33 17 39 29 10 18 8 24 -11 40 -28 22 -42 22 -104 -2z"/>
<path d="M18195 19571 c-109 -32 -198 -88 -272 -173 -65 -75 -136 -240 -159
-370 -21 -119 -15 -338 11 -413 22 -64 51 -105 75 -105 29 0 86 63 122 133
l31 62 9 245 c5 135 9 260 9 278 0 58 -39 82 -63 40 -9 -17 -14 -91 -15 -272
-1 -155 -7 -262 -14 -285 -17 -53 -51 -111 -65 -111 -34 0 -55 235 -35 393 28
222 87 339 223 443 93 72 150 96 243 101 92 6 143 -9 170 -51 21 -32 15 -52
-40 -120 -75 -92 -257 -196 -341 -196 -39 0 -48 -11 -30 -35 9 -12 27 -18 67
-18 45 -1 69 6 142 43 114 57 192 120 245 200 36 53 43 70 39 97 -14 86 -92
133 -214 132 -43 0 -105 -8 -138 -18z"/>
<path d="M19489 19572 c-110 -29 -167 -89 -141 -146 9 -21 135 -109 292 -206
137 -84 159 -119 94 -146 -61 -25 -194 -38 -276 -26 -82 12 -101 5 -96 -37 5
-42 40 -53 148 -47 88 4 228 33 272 57 27 14 58 69 58 101 0 53 -30 77 -266
216 -132 79 -158 100 -148 126 9 24 79 53 146 61 62 7 78 19 57 41 -23 23 -70
25 -140 6z"/>
<path d="M18950 19540 c-51 -9 -180 -62 -225 -93 -78 -52 -154 -144 -140 -167
12 -20 31 -9 77 43 104 120 324 190 428 137 46 -24 60 -45 60 -96 0 -32 -8
-45 -68 -103 -169 -166 -412 -234 -412 -115 0 39 20 69 61 94 47 30 53 43 30
71 -15 19 -20 20 -42 9 -34 -18 -88 -70 -105 -102 -24 -45 -18 -122 11 -157
46 -54 165 -57 281 -6 122 54 282 197 304 272 27 89 -27 179 -123 208 -55 16
-69 17 -137 5z"/>
<path d="M20666 19458 c-21 -32 -33 -94 -47 -238 -12 -131 -5 -180 25 -180 24
0 34 29 51 156 9 65 23 146 31 178 13 53 13 62 -1 82 -19 30 -40 30 -59 2z"/>
<path d="M23455 19451 c-52 -23 -126 -97 -149 -149 -15 -34 -24 -41 -50 -44
-39 -4 -47 -36 -17 -74 15 -19 21 -41 21 -78 0 -92 64 -192 149 -235 77 -39
223 -45 296 -12 98 43 155 107 155 173 0 42 -38 124 -79 170 -17 20 -31 43
-31 51 0 8 19 25 43 36 59 28 136 20 182 -21 18 -15 37 -28 43 -28 17 0 24 35
13 63 -17 44 -64 61 -171 60 -148 0 -200 -39 -191 -140 1 -6 21 -35 46 -64 50
-59 76 -123 64 -156 -13 -35 -84 -80 -137 -88 -116 -16 -252 38 -293 115 -23
42 -26 132 -5 149 7 6 40 18 72 27 84 21 124 45 162 93 25 33 32 52 32 87 0
80 -64 107 -155 65z m95 -80 c0 -26 -71 -85 -120 -100 -65 -19 -76 -2 -33 50
37 43 81 69 121 69 25 0 32 -4 32 -19z"/>
<path d="M21400 19415 c-6 -16 -4 -42 6 -81 8 -31 19 -100 24 -153 13 -118 17
-131 40 -131 10 0 21 8 25 18 12 32 5 212 -11 275 -23 91 -63 126 -84 72z"/>
<path d="M22199 19358 c-8 -14 -9 -44 -5 -87 4 -36 11 -110 16 -165 9 -108 20
-131 48 -103 15 15 17 39 17 171 0 128 -3 156 -18 179 -21 33 -42 35 -58 5z"/>
<path d="M7645 16808 c-31 -17 -35 -28 -35 -100 0 -37 -5 -79 -10 -94 -6 -15
-13 -52 -15 -83 -3 -31 -12 -112 -20 -181 -9 -69 -20 -161 -25 -205 -33 -273
-35 -594 -6 -1085 8 -135 12 -266 9 -291 -4 -39 -2 -50 17 -69 l23 -23 19 23
c15 18 18 40 18 119 0 53 -4 132 -10 176 -5 44 -17 186 -25 315 -25 353 -11
736 40 1135 8 65 15 140 15 166 0 63 17 108 43 113 12 3 101 12 197 20 135 13
251 15 510 11 184 -2 358 -7 385 -9 28 -3 142 -10 255 -16 318 -17 485 -30
521 -41 65 -18 121 10 99 50 -10 19 -20 21 -97 21 -47 0 -160 4 -252 10 -325
19 -939 41 -1121 39 -362 -5 -455 -4 -485 3 -17 4 -39 2 -50 -4z"/>
<path d="M27489 16548 c-17 -32 -29 -258 -18 -358 4 -47 11 -191 15 -320 5
-195 4 -253 -10 -339 -9 -58 -19 -108 -22 -113 -3 -4 6 -19 20 -33 15 -14 26
-32 26 -40 0 -8 9 -24 20 -35 17 -17 33 -20 106 -20 129 0 272 47 394 130 93
63 160 164 160 241 0 125 -210 171 -380 83 -40 -20 -128 -107 -180 -175 -40
-54 -68 -75 -81 -62 -5 5 -3 62 5 136 12 111 12 169 -1 435 -12 247 -13 322
-3 384 7 43 10 84 6 93 -8 23 -44 18 -57 -7z m589 -852 c27 -14 32 -22 32 -52
0 -42 -42 -107 -101 -154 -97 -78 -326 -149 -435 -135 -30 3 -54 10 -54 13 0
16 141 181 206 242 53 49 83 69 124 82 30 9 62 19 70 22 27 10 126 -2 158 -18z"/>
<path d="M12653 16538 c-61 -46 -119 -134 -153 -234 -42 -120 -77 -398 -56
-433 21 -33 37 8 76 189 46 220 81 313 145 387 26 30 44 43 68 45 37 3 47 27
22 52 -23 23 -66 20 -102 -6z"/>
<path d="M26570 16513 c-21 -45 -25 -216 -7 -310 17 -86 49 -173 65 -173 18 0
19 25 6 125 -21 156 -18 256 8 309 18 37 19 47 8 60 -21 27 -65 20 -80 -11z"/>
<path d="M20255 16490 c-38 -4 -119 -13 -180 -19 -60 -6 -202 -15 -315 -20
-213 -8 -250 -16 -250 -52 0 -27 34 -38 87 -28 24 5 124 13 221 19 97 5 209
14 247 20 292 41 317 43 326 29 5 -8 6 -25 3 -39 -13 -49 -23 -98 -53 -265
-32 -171 -51 -254 -96 -420 -79 -288 -85 -356 -88 -961 -2 -320 -4 -354 -19
-371 -27 -29 -23 -69 8 -89 24 -16 26 -16 44 2 34 34 40 130 38 610 l-2 459
32 150 c17 83 45 193 61 245 40 129 106 384 130 500 10 52 25 121 31 152 17
80 9 88 -84 87 -39 -1 -102 -5 -141 -9z"/>
<path d="M9857 16380 c-14 -16 -28 -44 -32 -62 -23 -117 -110 -455 -120 -466
-6 -7 -38 -12 -80 -13 -77 -1 -246 -30 -312 -55 -48 -17 -64 -47 -39 -72 14
-14 22 -13 83 11 37 15 102 36 143 47 41 10 91 24 110 30 48 14 77 13 83 -4 3
-8 -5 -69 -17 -137 l-23 -124 -64 3 c-35 2 -86 8 -114 13 -43 8 -52 7 -69 -10
-17 -17 -18 -24 -8 -46 10 -21 18 -25 54 -25 24 0 72 5 108 10 40 6 68 6 74 0
6 -6 3 -54 -7 -128 -15 -107 -32 -171 -68 -259 -10 -26 -10 -34 0 -47 20 -24
27 -20 59 27 42 60 63 133 82 282 15 118 18 130 36 127 10 -1 138 -4 283 -6
164 -3 267 -8 274 -15 7 -7 4 -27 -11 -65 -17 -44 -18 -57 -8 -71 12 -16 14
-15 34 10 13 16 29 51 37 80 l15 51 121 -4 c96 -2 120 0 117 10 -3 8 -32 15
-84 20 -43 3 -91 11 -105 16 l-26 10 4 129 c3 70 6 133 8 140 3 9 12 10 32 3
47 -14 141 -21 148 -10 9 15 -31 28 -107 35 -37 4 -70 10 -73 14 -8 14 -25
139 -39 296 -14 141 -16 151 -41 172 -32 28 -40 28 -66 2 -22 -22 -22 -24 0
-144 42 -236 62 -387 65 -509 l4 -138 -56 6 c-147 15 -342 25 -422 21 -120 -6
-119 -7 -90 148 13 67 25 124 28 127 2 3 95 5 208 5 211 0 255 9 153 32 -35 8
-102 10 -191 7 -129 -5 -137 -4 -147 15 -8 14 -8 28 0 48 6 15 24 78 41 138
76 277 86 320 77 338 -14 25 -34 21 -62 -13z"/>
<path d="M28450 16363 c-68 -17 -110 -58 -110 -107 0 -43 21 -63 44 -41 9 9
21 25 26 35 5 10 33 26 62 36 29 9 70 25 91 36 32 16 36 21 27 38 -13 24 -57
25 -140 3z"/>
<path d="M3290 16278 c-1 -2 -2 -149 -4 -328 -4 -297 -20 -585 -56 -957 -11
-121 -2 -156 39 -151 34 4 37 21 51 283 6 116 17 325 25 465 8 140 16 343 17
451 3 182 2 198 -16 218 -15 17 -54 30 -56 19z"/>
<path d="M28770 16260 c-9 -17 -2 -54 40 -199 27 -99 57 -198 65 -221 24 -69
21 -75 -51 -109 -36 -17 -79 -40 -96 -52 -37 -27 -60 -76 -47 -101 15 -28 39
-21 75 21 39 45 138 101 153 86 5 -6 14 -64 21 -130 6 -66 13 -126 15 -132 7
-21 21 -15 34 14 12 27 9 105 -10 218 -13 74 -12 74 120 104 103 24 128 38
117 67 -5 14 -16 16 -64 11 -31 -4 -83 -16 -114 -27 -31 -11 -63 -17 -70 -15
-7 3 -35 94 -65 216 -29 116 -58 223 -65 237 -17 34 -43 39 -58 12z"/>
<path d="M23881 16131 c-8 -13 -6 -33 4 -67 7 -27 28 -122 46 -212 37 -185 40
-174 -49 -192 -28 -6 -85 -22 -125 -35 -39 -13 -75 -20 -80 -16 -4 4 -10 66
-14 137 -4 101 -2 142 10 191 9 35 14 69 11 77 -15 39 -57 19 -71 -32 -5 -15
-8 -113 -8 -219 l0 -192 -80 -31 c-175 -69 -237 -132 -179 -181 12 -10 21 -6
47 18 64 60 194 132 215 119 5 -3 12 -52 15 -108 4 -57 9 -137 13 -179 l6 -75
-38 -11 c-22 -6 -77 -19 -124 -29 -47 -9 -91 -22 -98 -27 -18 -14 -11 -68 10
-81 14 -8 26 -7 50 6 48 26 165 68 187 68 26 0 29 -49 19 -265 -6 -145 -5
-172 8 -185 13 -13 16 -13 24 -1 26 44 38 266 21 403 -8 64 -1 78 39 78 29 0
287 47 300 55 4 3 14 -2 21 -11 10 -12 10 -36 0 -122 -15 -131 -26 -176 -54
-214 -19 -26 -20 -30 -5 -45 20 -19 41 -12 62 19 24 37 49 202 44 296 -3 45
-4 82 -4 83 1 0 39 5 86 10 132 14 231 33 228 44 -2 6 -61 9 -159 7 l-157 -3
-11 88 c-7 48 -18 120 -26 158 -22 109 -28 172 -17 179 5 3 55 11 111 17 102
12 119 22 85 50 -12 10 -32 10 -100 1 -117 -15 -134 -8 -134 63 0 63 -50 338
-66 363 -18 27 -50 29 -63 3z m98 -528 c5 -10 14 -54 21 -98 7 -44 23 -129 36
-189 14 -60 22 -111 19 -115 -4 -3 -48 -11 -98 -17 -51 -7 -124 -18 -163 -25
-103 -18 -104 -18 -104 98 0 54 -5 132 -10 173 -6 41 -8 82 -5 91 5 16 36 27
195 73 104 30 97 30 109 9z"/>
<path d="M15732 16109 c-40 -26 -48 -56 -32 -128 15 -66 25 -81 56 -81 36 0
57 28 48 64 -5 17 -8 60 -9 96 0 75 -10 83 -63 49z"/>
<path d="M29672 15885 c-126 -31 -194 -86 -238 -192 -29 -69 5 -176 95 -300
28 -38 51 -77 51 -86 0 -57 -148 -42 -204 22 -11 11 -30 21 -43 21 -57 0 -5
-96 72 -131 48 -22 133 -24 179 -5 18 7 43 26 55 42 33 42 20 85 -56 180 -39
48 -78 133 -86 189 -5 31 -1 48 18 81 45 77 157 114 341 114 70 0 95 4 104 16
42 50 -149 83 -288 49z"/>
<path d="M11432 15840 c-27 -26 -28 -36 -1 -51 18 -9 27 -7 50 10 15 12 37 21
47 21 40 0 82 -13 82 -26 0 -7 -39 -36 -87 -65 -113 -68 -211 -165 -252 -252
-37 -77 -38 -86 -9 -122 30 -39 77 -55 159 -55 95 0 173 22 294 82 139 69 163
85 196 131 34 47 37 83 8 138 -67 133 -207 209 -385 209 -67 0 -84 -3 -102
-20z m366 -155 c66 -89 75 -126 37 -165 -53 -55 -244 -137 -361 -155 -87 -13
-166 33 -148 87 13 42 95 136 170 195 70 55 196 114 234 110 8 -1 39 -34 68
-72z"/>
<path d="M16835 15800 c-13 -14 -19 -35 -19 -60 2 -65 12 -89 41 -96 43 -11
58 7 56 65 -4 93 -40 134 -78 91z"/>
<path d="M16109 15726 c-8 -17 -8 -43 0 -94 31 -197 -13 -502 -90 -623 -32
-51 -36 -71 -15 -88 26 -22 54 6 98 95 29 60 53 95 82 118 61 50 76 55 185 68
155 18 207 -7 187 -88 -17 -66 -251 -253 -330 -264 -38 -5 -41 -7 -41 -35 0
-29 1 -30 46 -29 37 0 62 10 125 49 101 62 255 216 279 280 36 92 -17 133
-182 142 -99 6 -151 -5 -245 -52 -26 -13 -50 -20 -53 -16 -3 5 4 44 16 87 25
97 36 295 20 378 -16 87 -59 124 -82 72z"/>
<path d="M28323 15643 c-7 -18 2 -52 42 -163 24 -67 25 -78 14 -112 -10 -30
-9 -40 1 -53 17 -21 36 -19 60 8 18 18 21 31 17 77 -4 56 -43 196 -66 238 -14
26 -58 30 -68 5z"/>
<path d="M14115 15617 c-51 -24 -80 -63 -69 -92 8 -21 28 -19 50 6 51 56 117
60 175 12 42 -36 59 -80 59 -154 0 -94 -16 -132 -81 -194 -60 -57 -86 -66
-113 -39 -25 25 -19 55 25 129 43 70 44 96 6 103 -55 11 -155 -220 -119 -274
25 -38 104 -44 171 -14 214 98 271 406 92 503 -72 40 -133 44 -196 14z"/>
<path d="M17139 15623 c-10 -12 -14 -53 -15 -157 0 -104 -9 -198 -33 -354 -32
-218 -32 -252 5 -252 19 0 31 30 44 115 5 39 17 108 25 155 58 338 65 434 35
490 -13 24 -43 26 -61 3z"/>
<path d="M14806 15609 c-54 -20 -108 -60 -140 -103 -15 -20 -21 -42 -20 -79 0
-59 19 -94 104 -196 52 -62 85 -125 75 -141 -3 -4 -25 -16 -50 -26 -38 -14
-53 -15 -103 -5 -63 12 -87 8 -96 -15 -16 -41 23 -60 121 -58 120 2 206 57
205 133 -1 52 -22 91 -95 176 -95 110 -106 153 -55 211 43 49 83 64 168 64 75
0 96 14 70 45 -18 21 -122 18 -184 -6z"/>
<path d="M13303 15601 c-143 -44 -275 -137 -351 -249 -60 -89 -78 -128 -116
-263 -43 -151 -56 -232 -56 -369 0 -117 12 -150 55 -150 30 0 48 26 76 110 11
35 37 88 57 118 75 111 83 133 59 166 -31 42 -54 12 -142 -183 -31 -68 -34
-72 -41 -47 -9 39 4 165 32 291 62 282 232 486 443 531 86 18 155 18 218 -1
64 -19 100 -47 108 -86 9 -39 -5 -54 -104 -118 -127 -81 -241 -133 -342 -155
-48 -10 -45 -66 3 -66 50 0 313 123 422 198 84 57 110 90 110 138 0 49 -60
106 -135 129 -84 26 -221 29 -296 6z"/>
<path d="M17446 15596 c-9 -14 -16 -37 -16 -50 0 -20 7 -27 33 -34 44 -12 55
-6 63 33 10 53 2 70 -32 73 -24 2 -35 -3 -48 -22z"/>
<path d="M25417 15576 c-128 -49 -193 -145 -185 -271 6 -83 40 -148 117 -226
105 -106 217 -147 362 -134 173 15 345 127 418 272 48 96 17 228 -74 311 -80
75 -188 88 -398 51 l-118 -22 -23 22 c-27 25 -26 25 -99 -3z m525 -62 c134
-52 183 -199 104 -312 -86 -124 -225 -196 -381 -196 -104 1 -176 28 -249 95
-114 104 -149 245 -85 342 35 53 43 56 68 26 l17 -21 47 21 c111 51 395 77
479 45z"/>
<path d="M3965 15533 c-109 -27 -221 -68 -241 -88 -28 -28 -29 -35 -9 -61 15
-19 15 -19 32 3 24 30 154 88 228 102 70 13 158 2 213 -27 46 -24 75 -79 80
-154 4 -50 0 -68 -27 -123 -49 -98 -211 -237 -276 -237 -33 0 -54 19 -76 67
-35 76 -21 198 38 323 27 57 25 82 -6 82 -30 0 -66 -55 -96 -145 -53 -159 -41
-294 31 -353 67 -55 137 -48 245 24 131 87 213 199 240 329 15 75 7 121 -30
172 -46 64 -106 88 -226 90 -55 1 -109 -1 -120 -4z"/>
<path d="M18215 15520 c-27 -11 -56 -28 -62 -37 -37 -50 16 -83 69 -43 32 24
77 28 119 11 31 -11 39 -6 39 25 0 30 -45 64 -84 64 -17 -1 -53 -10 -81 -20z"/>
<path d="M15422 15495 c-56 -13 -107 -52 -123 -93 -7 -18 -1 -42 26 -103 27
-62 35 -93 35 -138 0 -56 -2 -61 -46 -110 -92 -103 -211 -128 -258 -55 -33 49
-95 18 -80 -41 14 -55 94 -82 192 -64 104 20 190 81 243 174 24 42 29 61 29
123 0 61 -5 82 -30 132 -40 78 -39 97 5 116 46 19 196 18 264 -2 57 -17 123
-69 148 -118 47 -90 68 -288 42 -392 -10 -39 -9 -48 5 -62 15 -15 18 -15 37 4
25 26 39 112 39 250 0 238 -86 344 -309 380 -103 17 -148 17 -219 -1z"/>
<path d="M20950 15478 c-32 -17 -36 -39 -12 -68 18 -23 20 -23 68 -9 39 11
118 13 384 11 353 -2 400 0 400 23 0 22 -14 26 -127 31 -60 2 -139 7 -178 10
-38 3 -169 7 -290 10 -172 4 -225 2 -245 -8z"/>
<path d="M17851 15404 c-13 -17 -22 -48 -27 -95 -8 -80 -7 -79 -110 -98 -82
-15 -128 -41 -132 -74 -5 -41 22 -44 91 -9 87 43 115 49 124 26 7 -20 -19
-104 -74 -233 -27 -62 -33 -88 -26 -100 17 -27 35 -18 65 32 27 47 85 205 108
294 l10 41 65 7 c71 8 108 -6 120 -44 3 -12 -6 -85 -21 -163 -15 -79 -28 -159
-28 -178 -1 -31 2 -35 24 -35 29 0 38 22 76 187 29 129 31 208 7 235 -16 18
-101 41 -198 56 -13 2 -19 9 -17 22 13 102 14 126 2 140 -18 22 -36 19 -59
-11z"/>
<path d="M16713 15365 c-20 -14 -22 -23 -21 -148 0 -104 -4 -149 -21 -211 -23
-87 -27 -131 -11 -141 30 -19 65 69 101 258 23 125 25 205 3 235 -18 26 -23
27 -51 7z"/>
<path d="M4593 15340 c-93 -19 -174 -87 -187 -156 -8 -39 14 -97 51 -136 98
-103 359 -102 519 2 34 23 70 50 79 60 20 22 14 39 -7 23 -19 -16 -103 -49
-197 -77 -180 -55 -320 -22 -365 85 -20 48 -7 80 48 114 42 26 59 30 141 33
52 2 124 -1 161 -7 116 -21 234 -80 234 -118 0 -7 12 -18 26 -23 24 -10 26
-14 20 -49 -3 -21 -17 -72 -31 -112 -14 -41 -41 -135 -60 -209 -65 -257 -114
-379 -207 -520 -64 -96 -103 -137 -145 -151 -27 -8 -33 -16 -31 -32 6 -43 69
-34 127 18 82 74 226 322 255 440 8 33 31 112 50 175 19 63 50 176 70 250 20
74 50 178 67 231 33 106 31 132 -10 127 -19 -2 -32 -15 -50 -46 l-23 -44 -27
25 c-69 65 -214 107 -366 106 -55 -1 -119 -5 -142 -9z"/>
<path d="M18654 15311 c-104 -27 -195 -100 -243 -196 -56 -113 -15 -278 86
-342 106 -66 234 -97 375 -88 95 6 229 47 270 84 27 24 32 36 36 90 6 76 -11
122 -78 220 -28 40 -50 80 -50 90 0 20 41 46 88 56 19 4 92 8 163 10 139 3
172 13 134 42 -16 12 -45 14 -160 10 -187 -7 -268 -32 -306 -94 -23 -37 -26
-27 43 -131 92 -137 112 -217 65 -258 -43 -37 -101 -49 -242 -49 -104 0 -140
4 -182 19 -115 43 -193 133 -193 223 0 42 1 44 23 36 12 -4 60 -8 107 -7 71 0
95 5 145 28 72 33 111 68 126 113 14 45 4 84 -31 118 -25 24 -40 29 -87 31
-32 2 -72 -1 -89 -5z m118 -78 c63 -55 -23 -129 -173 -149 -49 -7 -109 15
-109 39 0 31 102 107 170 128 32 10 91 0 112 -18z"/>
<path d="M17412 15187 c-6 -7 -10 -57 -9 -117 1 -93 -1 -110 -23 -153 -24 -48
-22 -75 8 -85 21 -7 60 44 77 99 21 71 30 206 16 242 -11 29 -50 38 -69 14z"/>
<path d="M21073 15170 c-25 -10 -30 -42 -10 -57 6 -6 62 -13 122 -16 61 -3
142 -13 180 -22 135 -33 321 1 355 65 18 34 -2 49 -38 28 -42 -25 -131 -48
-181 -48 -25 0 -95 12 -156 26 -124 28 -239 39 -272 24z"/>
<path d="M5846 14895 c-37 -8 -151 -42 -252 -76 -187 -63 -205 -74 -172 -107
20 -20 43 -14 186 42 161 63 241 85 338 93 83 7 117 0 144 -27 47 -47 19 -89
-193 -301 -105 -104 -142 -148 -162 -191 -24 -53 -25 -59 -12 -91 18 -42 60
-73 118 -86 64 -15 220 -13 351 4 260 33 367 45 420 45 70 0 107 24 89 57 -15
29 -44 37 -84 24 -17 -6 -140 -24 -272 -41 -253 -32 -448 -40 -487 -19 -99 51
-79 96 140 311 176 173 221 243 191 297 -35 64 -199 96 -343 66z"/>
<path d="M5227 13092 c-19 -20 -66 -123 -113 -246 -93 -242 -123 -655 -56
-770 37 -63 136 -84 220 -46 97 44 267 246 351 418 50 100 74 132 86 112 3 -5
17 -56 31 -113 48 -196 128 -317 234 -350 119 -37 207 17 389 238 76 93 110
152 117 208 6 42 5 47 -13 47 -12 0 -25 -11 -32 -26 -25 -57 -182 -253 -249
-312 -85 -76 -115 -92 -168 -92 -36 0 -47 6 -79 41 -64 71 -126 236 -141 372
-8 82 -25 107 -69 107 -31 0 -37 -5 -59 -48 -43 -85 -222 -345 -284 -412 -85
-93 -160 -142 -209 -138 -35 3 -40 7 -63 53 -22 45 -24 60 -23 185 1 157 14
254 53 400 55 202 100 285 87 161 -6 -51 -4 -61 14 -77 20 -18 21 -18 38 3 14
16 20 50 25 135 9 146 9 150 -6 159 -22 15 -64 10 -81 -9z"/>
<path d="M10325 12980 c-4 -6 -3 -16 3 -22 6 -6 12 -6 17 2 4 6 3 16 -3 22 -6
6 -12 6 -17 -2z"/>
<path d="M9060 12924 c-79 -105 -163 -332 -146 -397 6 -26 30 -46 41 -35 3 3
19 52 36 109 56 188 123 294 187 294 22 0 28 5 30 27 4 32 -29 58 -74 58 -27
0 -38 -9 -74 -56z"/>
<path d="M6734 12893 c28 -151 27 -301 0 -324 -8 -6 -14 -18 -14 -26 0 -8 -10
-46 -21 -85 -18 -59 -21 -88 -17 -203 3 -116 6 -138 24 -162 31 -42 67 -64
112 -70 40 -5 43 -4 106 59 35 35 85 97 111 138 81 128 98 151 118 162 10 5
23 6 28 1 4 -4 17 -85 28 -178 11 -94 27 -191 36 -216 18 -51 50 -92 68 -86
15 5 14 27 -6 147 -8 52 -19 148 -22 212 -8 130 -24 170 -79 196 -56 28 -101
-6 -201 -149 -32 -46 -83 -112 -113 -147 -44 -51 -60 -62 -80 -60 -20 2 -30
12 -41 41 -13 35 -13 46 2 105 17 69 27 130 52 337 24 193 17 304 -21 332 -10
7 -31 13 -47 13 -29 0 -29 -1 -23 -37z"/>
<path d="M29061 12861 c-16 -17 -38 -59 -49 -93 -11 -35 -28 -83 -38 -108 -15
-40 -16 -49 -3 -75 22 -46 52 -40 60 10 7 43 58 171 83 207 22 31 20 65 -4 78
-18 9 -25 6 -49 -19z"/>
<path d="M18713 12828 c-35 -43 -102 -233 -132 -371 -23 -104 -51 -370 -51
-477 0 -53 4 -70 19 -84 11 -10 24 -15 29 -12 5 3 12 57 16 121 17 284 86 604
159 736 26 47 30 62 21 76 -14 22 -47 28 -61 11z"/>
<path d="M8492 12797 c-14 -17 -28 -81 -41 -197 -23 -198 -15 -177 -71 -184
-27 -4 -56 -14 -65 -22 -14 -14 -14 -19 -2 -38 11 -16 25 -21 58 -21 l44 0 5
-195 c3 -107 9 -201 13 -207 12 -18 34 -16 43 5 4 9 10 103 13 208 5 133 10
196 19 207 19 22 77 29 242 31 142 1 145 2 148 24 2 16 -3 25 -21 31 -48 19
-164 23 -253 11 -117 -17 -118 -15 -88 127 12 60 27 121 33 136 15 39 14 63
-5 81 -19 19 -58 21 -72 3z"/>
<path d="M18227 12763 c-24 -27 -44 -81 -73 -196 -25 -96 -26 -120 -31 -407
-4 -321 0 -355 40 -355 16 0 18 19 22 229 7 363 30 530 87 644 24 49 29 68 21
80 -14 24 -46 26 -66 5z"/>
<path d="M11522 12707 c-12 -13 -26 -36 -31 -52 -17 -51 -40 -236 -42 -333 -2
-112 7 -106 -179 -130 -69 -8 -131 -20 -137 -25 -19 -14 -16 -41 7 -62 24 -21
75 -16 193 22 44 13 85 22 93 19 11 -4 14 -30 14 -113 0 -127 14 -221 35 -242
31 -31 37 1 39 190 l1 184 25 12 c14 6 59 19 101 27 41 9 127 34 190 56 63 22
122 40 131 40 24 0 73 44 64 58 -13 21 -60 13 -261 -48 -109 -33 -206 -60
-216 -60 -9 0 -19 6 -22 14 -13 34 36 317 64 364 25 43 24 67 -3 86 -30 21
-41 20 -66 -7z"/>
<path d="M30724 12716 c-63 -15 -136 -47 -166 -74 -23 -19 -23 -70 -1 -102 22
-32 33 -40 59 -40 29 0 34 18 18 65 -7 22 -12 40 -11 41 1 1 27 12 57 24 39
16 85 24 160 27 120 6 199 -6 276 -41 48 -22 54 -28 54 -55 0 -48 -75 -137
-254 -299 -325 -296 -391 -385 -335 -456 53 -68 174 -82 424 -51 150 19 351
63 385 84 45 30 -45 33 -195 7 -56 -9 -186 -20 -295 -23 -164 -5 -201 -3 -232
10 -21 9 -38 21 -38 27 0 26 64 101 166 195 201 186 338 320 376 367 103 125
79 221 -69 279 -74 28 -283 36 -379 15z"/>
<path d="M12206 12588 c-19 -29 -109 -327 -130 -430 -9 -42 -16 -103 -16 -134
0 -50 3 -59 34 -90 28 -28 42 -34 75 -34 76 0 242 94 380 216 88 76 139 110
152 97 6 -6 4 -34 -6 -82 -28 -132 -15 -197 47 -244 42 -32 119 -50 178 -42
25 3 89 20 143 38 95 30 98 31 125 13 91 -59 233 -97 440 -117 129 -13 251 -4
259 18 9 24 -13 31 -116 38 -53 4 -175 20 -271 36 -163 27 -240 50 -247 74 -2
6 32 27 75 47 88 41 112 69 120 135 6 53 -11 95 -54 133 -45 39 -93 47 -161
26 -120 -38 -163 -136 -127 -287 6 -25 4 -26 -93 -50 -153 -37 -235 -28 -249
28 -3 12 3 77 15 144 13 78 17 128 11 139 -26 49 -86 56 -147 17 -21 -14 -99
-70 -173 -126 -74 -55 -165 -117 -201 -136 -68 -36 -123 -45 -132 -22 -12 32
52 296 113 466 35 97 37 126 11 141 -29 15 -39 13 -55 -12z m1153 -382 c7 -8
15 -30 18 -50 5 -31 1 -39 -33 -70 -44 -40 -118 -79 -143 -74 -10 2 -19 19
-25 48 -11 58 10 112 56 140 39 23 110 27 127 6z"/>
<path d="M7889 12548 c-7 -13 -13 -75 -15 -146 -4 -166 -17 -205 -103 -294
-69 -73 -143 -88 -157 -31 -13 50 3 143 33 191 32 52 84 92 120 92 52 0 81 38
51 68 -19 19 -87 14 -134 -9 -87 -41 -145 -139 -159 -265 -9 -75 9 -120 61
-160 30 -23 47 -29 84 -28 26 1 61 9 77 18 34 17 107 96 129 139 20 37 30 34
52 -16 46 -104 177 -142 214 -62 17 38 -1 53 -45 37 -80 -29 -97 -9 -123 140
-15 88 -15 150 2 274 4 30 1 45 -11 57 -24 24 -62 21 -76 -5z"/>
<path d="M20004 12545 c-9 -6 -25 -41 -35 -76 -9 -35 -25 -91 -34 -124 -10
-33 -25 -98 -34 -145 l-17 -84 -76 -26 c-88 -30 -110 -45 -106 -73 6 -40 34
-44 87 -14 68 38 75 36 66 -15 -18 -108 -18 -108 -1 -114 27 -10 42 12 61 95
11 51 24 82 34 86 27 11 214 35 269 35 61 0 94 14 86 35 -11 28 -77 37 -192
24 -149 -17 -147 -17 -150 6 -3 22 40 167 82 280 15 38 25 79 22 91 -7 26 -39
36 -62 19z"/>
<path d="M21925 12452 c-108 -35 -218 -184 -286 -387 -12 -38 -29 -77 -36 -86
-7 -9 -12 -27 -12 -40 1 -13 -7 -62 -17 -109 -13 -62 -18 -128 -19 -245 0
-142 3 -168 24 -233 27 -83 66 -132 105 -132 40 0 46 43 12 79 -52 54 -69 121
-73 286 -2 92 1 183 9 235 l13 85 35 3 c235 19 515 172 575 316 40 96 0 190
-97 231 -48 20 -167 18 -233 -3z m205 -57 c38 -20 70 -62 70 -94 0 -55 -82
-147 -190 -212 -66 -40 -263 -109 -312 -109 -29 0 -30 1 -23 38 9 51 78 205
121 269 33 50 76 83 107 83 8 0 34 9 58 20 52 23 129 26 169 5z"/>
<path d="M9230 12451 c-47 -15 -105 -49 -135 -81 -54 -57 -36 -141 40 -183 11
-6 56 -21 100 -32 102 -28 106 -41 33 -116 -49 -49 -94 -79 -140 -93 -21 -6
-24 -36 -6 -54 34 -34 107 0 199 91 109 108 116 161 26 203 -29 13 -60 24 -70
24 -11 0 -43 7 -73 16 -44 12 -55 20 -60 41 -9 33 2 51 52 86 34 24 46 27 101
24 41 -2 68 -9 81 -20 39 -35 83 -8 66 41 -16 47 -137 76 -214 53z"/>
<path d="M16070 12433 c-276 -20 -640 -157 -628 -236 4 -25 10 -28 133 -67
111 -35 200 -89 343 -208 100 -84 141 -135 126 -160 -33 -53 -165 -89 -367
-100 -133 -8 -167 -17 -167 -47 0 -7 7 -18 16 -26 13 -10 42 -11 162 -1 210
18 298 44 376 113 38 33 61 87 51 120 -25 79 -294 275 -477 349 -48 19 -89 40
-90 45 -8 42 298 139 540 170 54 7 78 29 51 46 -8 5 -16 8 -19 7 -3 -1 -25 -3
-50 -5z"/>
<path d="M19463 12305 c-50 -21 -83 -59 -83 -95 0 -18 25 -78 60 -145 33 -63
60 -126 60 -139 0 -52 -43 -71 -165 -71 -125 0 -204 33 -252 104 -37 54 -31
63 51 88 123 38 209 122 192 188 -13 53 -100 79 -177 54 -45 -15 -114 -82
-139 -137 l-21 -45 -33 32 c-25 24 -41 32 -62 29 -61 -7 -32 -82 44 -115 18
-7 34 -19 36 -26 30 -109 39 -128 79 -162 116 -100 390 -108 488 -15 33 31 39
43 39 77 0 57 -23 114 -80 204 -28 43 -50 80 -50 83 0 3 25 24 55 46 31 23 53
45 50 51 -9 13 -55 10 -92 -6z m-214 -89 c24 -29 -99 -126 -160 -126 -44 0
-17 79 40 117 38 26 102 31 120 9z"/>
<path d="M17738 12278 c-7 -14 -14 -83 -18 -173 -5 -126 -9 -156 -27 -190 -25
-48 -54 -76 -108 -104 -56 -30 -98 -27 -137 8 l-33 29 0 124 c1 138 11 169 67
211 47 35 72 40 129 27 56 -14 82 -2 77 34 -7 51 -144 57 -224 11 -93 -54
-126 -134 -125 -297 0 -55 3 -110 6 -122 17 -59 30 -78 68 -98 83 -42 200 -8
281 82 l37 41 14 -35 c8 -20 15 -39 15 -44 0 -18 37 -42 64 -42 32 0 32 10 -1
90 -15 38 -18 75 -18 245 -1 110 -2 206 -3 213 -4 21 -50 14 -64 -10z"/>
<path d="M22650 12281 c-8 -5 -36 -11 -63 -14 -86 -12 -129 -46 -102 -83 11
-15 17 -16 39 -6 40 18 40 -1 0 -85 -50 -103 -58 -200 -22 -252 50 -73 110
-95 223 -81 90 11 154 40 198 89 119 131 20 361 -179 415 -27 8 -56 16 -64 20
-8 3 -22 2 -30 -3z m86 -86 c85 -25 166 -134 166 -223 0 -30 -8 -44 -45 -78
-53 -51 -106 -67 -199 -62 -82 4 -99 18 -105 85 -5 53 25 148 69 219 14 22 27
47 31 57 8 21 19 21 83 2z"/>
<path d="M26008 12270 c-254 -47 -386 -118 -464 -247 -75 -126 -64 -263 21
-263 l26 0 -7 73 c-6 67 -4 80 21 135 60 133 188 201 465 247 148 24 150 25
150 45 0 36 -60 38 -212 10z"/>
<path d="M23341 12255 c-37 -48 -60 -218 -41 -309 9 -46 20 -66 52 -97 23 -22
54 -41 73 -45 47 -9 121 18 178 65 46 39 158 166 178 202 22 41 28 14 27 -118
-2 -192 21 -242 125 -267 59 -14 107 11 198 103 75 75 90 97 123 175 40 94 40
121 0 121 -14 0 -30 -23 -61 -85 -45 -93 -92 -148 -168 -198 -66 -43 -103 -41
-128 8 -16 31 -18 52 -13 175 3 77 9 161 12 186 6 42 4 49 -18 63 -14 9 -32
14 -41 10 -9 -3 -39 -40 -68 -82 -106 -154 -251 -282 -318 -282 -46 0 -65 19
-81 79 -14 55 -7 132 22 223 18 55 19 70 8 82 -18 23 -36 20 -59 -9z"/>
<path d="M25008 12241 c-73 -24 -125 -65 -167 -135 -30 -50 -34 -66 -39 -146
-5 -100 -3 -98 -77 -79 -31 8 -55 24 -84 56 -45 49 -83 56 -89 16 -9 -64 66
-125 189 -152 52 -11 103 -30 135 -50 54 -34 110 -48 133 -32 19 13 6 29 -40
48 -43 17 -51 33 -16 33 35 0 147 35 203 63 53 27 119 92 134 133 25 65 6 159
-43 211 -49 53 -140 65 -239 34z m176 -85 c13 -8 29 -28 36 -45 46 -112 -104
-233 -290 -235 l-65 -1 -3 47 c-2 37 4 61 32 116 51 102 118 145 214 137 30
-2 64 -10 76 -19z"/>
<path d="M16388 12223 c-77 -87 -126 -314 -85 -390 18 -35 68 -56 109 -46 39
10 125 82 197 167 123 144 149 171 156 164 4 -3 -5 -78 -19 -165 -30 -184 -32
-220 -10 -251 45 -64 138 -2 331 221 73 84 88 97 99 85 8 -8 26 -61 40 -118
29 -117 45 -155 73 -170 30 -15 41 -12 41 13 -1 42 -79 320 -96 338 -10 11
-30 19 -47 19 -32 0 -48 -15 -266 -243 -128 -135 -132 -127 -84 166 30 185 28
203 -23 200 -23 -1 -63 -37 -200 -177 -111 -114 -178 -176 -191 -176 -69 0
-66 150 6 287 23 43 28 61 20 75 -12 23 -31 23 -51 1z"/>
<path d="M28140 12216 c-25 -7 -54 -18 -65 -23 -11 -6 -32 -9 -47 -6 -30 6
-99 -36 -142 -87 -30 -36 -56 -117 -56 -174 1 -118 102 -206 236 -206 75 1
130 17 234 68 170 85 243 176 225 282 -9 56 -73 121 -140 143 -57 20 -179 21
-245 3z m211 -68 c49 -16 87 -45 105 -80 15 -29 14 -32 -13 -76 -61 -99 -250
-192 -390 -192 -74 0 -76 1 -114 39 -34 34 -39 44 -39 85 0 92 38 139 155 191
33 15 78 30 100 35 61 12 158 11 196 -2z"/>
<path d="M12261 10866 c-6 -7 -29 -100 -50 -207 l-38 -194 -54 0 c-84 -1 -101
-10 -97 -52 4 -46 29 -64 56 -40 22 20 55 22 70 4 11 -12 -11 -138 -37 -218
-5 -15 -4 -33 1 -43 10 -18 43 -22 53 -5 10 16 32 116 40 180 10 84 10 84 100
65 42 -9 94 -16 114 -16 62 0 66 -7 66 -123 0 -98 2 -106 30 -153 35 -57 106
-108 161 -117 21 -4 57 -1 81 5 66 16 53 37 -35 58 -127 30 -162 69 -165 185
-3 124 1 132 75 140 98 10 160 31 196 66 37 37 41 69 12 116 -65 107 -236 71
-299 -62 -24 -52 -26 -52 -162 -34 -110 15 -129 23 -129 53 0 13 20 89 45 168
25 78 45 157 45 174 0 50 -52 83 -79 50z m503 -372 c29 -11 18 -44 -18 -59
-88 -37 -153 -36 -130 2 28 46 102 75 148 57z"/>
<path d="M25618 10849 c-44 -26 -158 -231 -173 -310 -5 -27 -2 -40 10 -52 24
-25 44 -21 51 11 20 94 74 183 153 253 55 49 56 50 41 77 -17 29 -53 39 -82
21z"/>
<path d="M15087 10767 c-31 -25 -116 -342 -133 -494 -6 -57 -9 -63 -29 -63
-64 0 -76 -48 -24 -91 l32 -26 -12 -68 c-30 -173 -2 -353 53 -332 14 6 16 14
9 44 -9 43 -6 220 5 303 l7 55 140 6 c114 6 166 14 280 43 170 43 230 67 314
124 36 24 74 42 85 40 19 -3 20 -8 16 -48 -3 -25 -5 -108 -4 -185 1 -163 14
-206 82 -267 100 -90 224 -72 400 59 93 69 105 70 117 5 9 -50 29 -86 62 -111
24 -19 28 -20 42 -7 13 14 13 19 -7 46 -12 16 -27 52 -32 80 -27 142 -87 159
-214 62 -128 -97 -224 -124 -302 -84 -54 28 -63 40 -76 110 -14 78 3 271 32
362 23 72 20 104 -11 120 -18 10 -27 5 -72 -42 -59 -61 -104 -85 -255 -133
-270 -87 -517 -123 -568 -83 -13 10 -8 41 34 213 17 66 46 159 66 207 38 92
44 129 24 145 -24 18 -46 22 -61 10z"/>
<path d="M9345 10695 c-92 -24 -218 -90 -264 -140 -71 -77 -91 -211 -44 -301
59 -115 214 -135 383 -49 76 39 206 142 310 246 55 55 105 99 113 99 21 0 26
-42 15 -129 -44 -359 -207 -701 -382 -801 -30 -18 -66 -30 -86 -30 -43 0 -92
29 -115 68 -22 37 -54 57 -68 43 -19 -19 10 -86 57 -129 120 -111 290 -43 436
173 129 191 211 426 239 687 12 106 -1 171 -40 201 -38 28 -60 17 -159 -77
-102 -97 -199 -180 -260 -222 -150 -104 -314 -140 -366 -83 -12 14 -19 41 -22
85 -9 142 58 217 246 274 102 31 219 26 285 -13 25 -15 53 -24 61 -21 43 17
-8 89 -80 113 -62 20 -191 23 -259 6z"/>
<path d="M19848 10583 c-8 -10 -23 -32 -33 -50 -10 -17 -35 -41 -56 -52 -43
-25 -276 -84 -296 -77 -10 4 -13 22 -11 68 l3 63 -30 0 c-29 0 -31 -2 -51 -80
l-20 -80 -140 -31 c-151 -34 -190 -47 -216 -71 -24 -21 -23 -29 6 -58 l25 -25
63 30 c66 31 237 84 245 77 2 -3 5 -106 7 -230 3 -193 6 -230 20 -252 10 -15
23 -24 29 -22 15 5 24 129 26 342 1 88 5 165 9 171 9 13 59 30 130 44 29 5 81
21 115 35 37 14 65 21 71 15 5 -5 0 -40 -13 -87 -25 -96 -26 -124 -4 -170 46
-97 201 -93 426 12 32 15 64 25 71 22 8 -3 15 -29 19 -66 6 -70 27 -112 78
-153 51 -41 103 -46 179 -18 l61 23 67 -31 c169 -77 311 -112 459 -112 85 0
93 2 93 19 0 24 -3 24 -158 51 -154 26 -392 103 -392 127 0 4 9 16 19 27 37
41 61 100 61 151 0 59 -22 100 -76 141 -31 24 -47 29 -93 29 -101 -1 -136 -46
-129 -164 3 -59 9 -76 41 -125 l37 -56 -25 -10 c-37 -14 -71 -12 -104 5 -37
19 -42 33 -46 133 -2 46 -9 90 -16 98 -25 31 -47 35 -86 18 -251 -108 -395
-136 -424 -82 -7 14 -5 40 10 97 27 102 53 161 96 218 40 52 42 63 17 86 -24
22 -45 21 -64 0z m773 -320 c32 -32 33 -72 2 -132 -32 -63 -54 -81 -80 -65
-52 31 -79 180 -38 211 26 19 91 11 116 -14z"/>
<path d="M22777 10587 c-19 -14 -36 -120 -37 -228 l0 -67 -96 -12 c-90 -11
-298 -59 -323 -74 -16 -11 -13 -62 5 -77 13 -10 21 -10 47 1 94 39 240 82 300
87 l67 6 0 -61 c0 -53 -3 -62 -21 -67 -28 -9 -143 3 -183 20 -26 11 -40 11
-85 -1 -62 -16 -74 -28 -59 -60 17 -37 66 -47 196 -40 65 4 122 3 128 -1 7 -5
13 -59 16 -138 5 -141 19 -190 53 -190 18 0 20 5 15 70 -2 39 -4 113 -5 165
l0 95 161 3 c137 2 163 0 174 -13 8 -10 14 -49 15 -103 2 -69 5 -88 19 -97 13
-8 21 -6 32 10 12 15 15 41 12 110 l-3 90 223 -4 c223 -4 255 1 201 30 -23 12
-267 38 -360 39 -34 0 -61 5 -67 13 -6 7 -12 37 -14 67 l-3 55 45 0 c25 -1 79
-3 120 -5 64 -4 75 -3 78 12 6 30 -42 50 -134 56 -123 7 -124 9 -117 164 5
108 4 126 -11 141 -20 20 -62 23 -68 5 -2 -7 -1 -74 3 -148 4 -74 4 -138 1
-142 -4 -3 -69 -4 -144 -1 -106 5 -138 9 -142 20 -3 8 -2 45 4 81 18 130 17
173 -6 188 -16 11 -24 12 -37 1z m331 -369 c5 -7 13 -39 17 -71 l7 -58 -154 4
c-85 2 -160 7 -166 11 -7 4 -12 32 -12 67 l0 59 149 0 c107 0 151 -4 159 -12z"/>
<path d="M31355 10575 c-100 -27 -162 -139 -104 -191 23 -21 52 -10 57 22 7
50 13 61 44 79 63 37 332 17 404 -30 54 -35 42 -79 -83 -321 -91 -176 -107
-236 -66 -242 23 -3 31 10 180 306 73 146 80 203 34 274 -19 30 -46 55 -72 69
-87 44 -291 62 -394 34z"/>
<path d="M10475 10550 c-129 -51 -229 -190 -290 -402 -19 -66 -14 -92 21 -115
24 -15 27 -15 52 4 15 11 36 36 47 56 19 35 19 38 2 83 l-17 46 37 70 c20 38
56 90 80 114 73 75 187 114 244 84 25 -14 24 -25 -5 -63 -96 -127 -17 -302
154 -341 102 -24 292 2 307 41 10 26 -16 31 -142 26 -183 -8 -245 12 -275 92
-16 41 -3 120 24 152 l23 26 73 -62 c85 -71 139 -91 243 -91 65 0 71 2 103 34
43 43 43 72 1 128 -74 98 -262 148 -372 99 l-48 -21 -40 27 c-53 37 -149 42
-222 13z m538 -97 c47 -18 107 -59 107 -73 0 -30 -101 -41 -177 -21 -51 14
-138 71 -138 91 0 32 128 34 208 3z"/>
<path d="M28085 10534 c-44 -47 -26 -134 28 -134 20 0 37 30 37 63 0 14 7 30
15 37 21 17 19 37 -4 50 -31 16 -50 12 -76 -16z"/>
<path d="M11722 10528 c-5 -7 -19 -32 -31 -55 -27 -55 -37 -60 -72 -34 -38 29
-103 51 -145 51 -60 0 -141 -38 -178 -83 -44 -55 -52 -93 -27 -134 29 -46 63
-65 119 -65 66 1 148 34 229 92 37 28 71 50 75 50 11 0 16 -33 21 -131 7 -124
42 -179 114 -179 37 0 76 32 71 58 -3 13 -13 16 -44 14 -26 -2 -45 2 -52 11
-14 17 -21 272 -9 334 7 35 5 45 -12 62 -24 24 -44 27 -59 9z m-178 -132 c55
-23 53 -34 -16 -66 -105 -49 -198 -57 -198 -17 0 19 49 68 84 83 40 17 88 17
130 0z"/>
<path d="M28385 10510 c-3 -6 1 -47 11 -93 12 -59 17 -127 16 -243 -1 -173
-13 -266 -43 -328 -10 -22 -19 -45 -19 -51 0 -11 31 -45 41 -45 3 0 28 22 57
50 59 57 112 75 181 65 90 -14 104 -44 48 -100 -51 -51 -115 -63 -209 -40 -40
10 -37 -18 6 -61 28 -28 41 -34 78 -34 70 0 132 26 177 76 36 39 41 49 41 93
0 57 -32 105 -87 127 -39 17 -128 18 -172 3 -48 -17 -56 -4 -43 73 18 104 22
197 12 337 -7 117 -11 136 -31 157 -23 25 -53 31 -64 14z"/>
<path d="M13580 10484 c-166 -25 -406 -112 -497 -181 -60 -46 -85 -150 -44
-187 34 -30 55 -17 64 40 11 67 40 95 154 144 85 36 273 98 357 116 42 10 63
32 53 58 -6 16 -29 18 -87 10z"/>
<path d="M28955 10365 c-32 -31 -34 -91 -5 -123 37 -40 70 -21 70 39 0 20 7
42 15 49 21 17 19 37 -4 50 -30 16 -50 12 -76 -15z"/>
<path d="M24566 10249 c-16 -4 -41 -20 -56 -34 -15 -14 -40 -29 -56 -34 -22
-5 -30 -15 -35 -40 -4 -17 -13 -40 -22 -49 -21 -25 -43 -72 -51 -111 -14 -76
62 -170 154 -190 68 -15 96 -14 188 5 191 38 353 131 368 211 23 123 -105 213
-305 213 -56 0 -94 5 -106 13 -31 21 -48 25 -79 16z m357 -132 c36 -16 61 -35
69 -52 10 -23 8 -29 -18 -56 -102 -108 -403 -179 -510 -121 -70 37 -62 103 23
201 48 54 77 61 253 57 111 -2 132 -6 183 -29z"/>
<path d="M17384 10188 c-12 -23 -19 -66 -22 -138 l-4 -105 36 -42 c42 -48 82
-61 123 -40 28 15 136 121 188 185 15 17 34 32 42 32 8 0 42 -26 76 -59 120
-114 207 -164 227 -130 13 20 2 35 -58 77 -31 22 -84 68 -117 102 -68 69 -101
90 -144 90 -24 0 -45 -17 -127 -106 -54 -58 -106 -110 -116 -115 -51 -27 -64
67 -26 183 24 76 17 98 -33 98 -22 0 -32 -7 -45 -32z"/>
<path d="M29627 10193 c-27 -31 -30 -66 -7 -91 11 -12 22 -22 25 -22 10 0 85
80 85 92 0 38 -74 53 -103 21z"/>
<path d="M16903 10174 c-85 -30 -172 -162 -176 -267 -1 -33 4 -44 32 -69 57
-51 108 -24 183 99 28 46 56 82 62 80 5 -2 15 -25 21 -53 18 -76 50 -130 99
-163 50 -34 71 -39 80 -16 4 11 -11 32 -43 63 -51 50 -71 103 -71 193 0 57
-22 103 -63 127 -40 25 -65 26 -124 6z m44 -85 c17 -17 -18 -83 -75 -141 -72
-75 -93 -59 -48 37 20 45 84 115 104 115 5 0 13 -5 19 -11z"/>
<path d="M29241 10131 c-9 -6 -15 -34 -18 -82 -2 -41 -11 -127 -19 -192 -22
-172 -3 -294 43 -285 13 2 17 22 19 113 1 61 12 160 23 220 27 142 27 189 1
215 -22 22 -29 24 -49 11z"/>
<path d="M27753 10036 c-57 -26 -55 -66 15 -268 42 -122 40 -135 -24 -156 -46
-15 -119 -2 -159 30 -20 16 -25 28 -25 64 0 38 -4 46 -26 56 -22 11 -28 10
-40 -7 -17 -23 -17 -38 -3 -88 40 -145 278 -200 355 -82 26 40 20 93 -27 230
-54 157 -55 155 98 155 119 0 168 -15 183 -55 13 -34 13 -214 1 -289 -12 -66
-4 -86 34 -86 27 0 31 11 46 146 20 180 -14 289 -104 333 -59 29 -274 40 -324
17z"/>
<path d="M28840 10003 c0 -10 7 -36 15 -58 9 -26 14 -82 15 -160 0 -126 6
-149 35 -143 24 4 33 39 39 153 5 103 -12 191 -41 212 -26 19 -63 16 -63 -4z"/>
<path d="M29833 10008 c-6 -7 -14 -46 -18 -85 l-7 -73 -40 -10 c-21 -6 -41
-17 -44 -25 -8 -20 14 -55 42 -65 24 -9 25 -13 17 -57 -4 -27 -8 -68 -8 -93 0
-41 2 -45 25 -45 23 0 26 5 33 60 5 33 13 79 19 103 l11 42 51 0 c63 0 196
-31 231 -54 31 -20 30 -30 -13 -164 -20 -63 -24 -87 -16 -100 30 -47 64 -8 98
110 29 101 18 165 -36 215 -28 25 -130 58 -214 68 -85 9 -87 11 -73 72 9 40 9
55 -2 79 -16 32 -40 42 -56 22z"/>
<path d="M30220 10004 c-10 -11 -11 -23 -4 -42 9 -25 14 -27 83 -32 81 -6 95
-1 89 26 -9 50 -137 86 -168 48z"/>
<path d="M27337 9979 c-88 -21 -137 -67 -137 -128 0 -36 11 -58 100 -198 28
-46 31 -55 19 -69 -11 -14 -25 -15 -82 -10 -101 9 -134 -16 -83 -63 32 -30 79
-39 141 -28 126 22 128 112 7 295 -41 62 -39 73 24 110 35 21 48 23 120 18 45
-3 84 -2 88 1 10 10 -14 42 -42 57 -38 19 -109 27 -155 15z"/>
<path d="M26519 9960 c-48 -14 -146 -71 -180 -103 -89 -87 -212 -335 -309
-625 -32 -97 -32 -125 1 -142 27 -15 35 -7 54 53 10 28 41 102 71 164 34 72
57 136 64 177 6 36 16 82 23 103 l12 37 60 2 c67 1 143 25 188 57 16 12 56 55
88 95 52 64 59 78 59 117 0 34 -5 47 -22 59 -24 17 -66 19 -109 6z m51 -82 c0
-27 -80 -115 -128 -141 -54 -29 -132 -41 -139 -20 -7 18 98 116 157 146 56 28
110 36 110 15z"/>
<path d="M26891 9952 c-24 -20 -61 -147 -61 -207 0 -120 137 -177 218 -90 25
27 32 43 32 75 0 53 -31 112 -76 146 -20 15 -40 38 -45 50 -13 36 -43 47 -68
26z m88 -138 c35 -30 42 -76 14 -106 -32 -36 -103 -14 -103 33 0 25 37 99 49
99 5 0 23 -12 40 -26z"/>
<path d="M30595 9884 c-99 -36 -147 -136 -117 -241 42 -149 277 -285 464 -270
75 6 116 24 147 63 27 35 26 72 -4 174 -14 46 -25 96 -25 112 0 34 17 42 113
52 90 9 126 32 111 71 -13 32 -212 12 -266 -26 -30 -21 -30 -24 -25 -83 2 -34
14 -88 26 -121 11 -32 21 -74 21 -93 0 -28 -5 -35 -35 -48 -99 -41 -300 13
-420 113 -36 31 -70 81 -61 91 4 3 40 7 79 8 99 2 179 26 211 65 14 17 26 37
26 45 0 28 -31 74 -60 89 -36 19 -132 18 -185 -1z m162 -81 c6 -18 -97 -47
-140 -39 -48 9 -54 22 -20 40 33 19 154 18 160 -1z"/>
<path d="M29525 9838 c-2 -7 -9 -41 -15 -75 -6 -34 -17 -84 -25 -110 -24 -79
-17 -103 30 -103 17 0 85 186 85 233 0 19 -7 43 -16 51 -19 19 -53 21 -59 4z"/>
<path d="M31583 9383 c-20 -7 -15 -61 7 -83 35 -35 70 -19 70 31 0 45 -36 69
-77 52z"/>
</g>
</svg>
