<?xml version="1.0" standalone="no"?>
<!DOCTYPE svg PUBLIC "-//W3C//DTD SVG 20010904//EN"
 "http://www.w3.org/TR/2001/REC-SVG-20010904/DTD/svg10.dtd">
<svg version="1.0" xmlns="http://www.w3.org/2000/svg"
 width="3264.000000pt" height="2448.000000pt" viewBox="0 0 3264.000000 2448.000000"
 preserveAspectRatio="xMidYMid meet">
<metadata>
Created by potrace 1.12, written by Peter Selinger 2001-2015
</metadata>
<g transform="translate(0.000000,2448.000000) scale(0.100000,-0.100000)"
fill="#000000" stroke="none">
<path d="M10756 24467 c9 -25 125 -71 169 -68 22 2 56 2 75 1 99 -8 132 -5
146 15 8 11 29 25 46 31 52 17 47 34 -10 34 -35 0 -52 -4 -56 -15 -4 -12 -28
-15 -124 -15 -94 0 -122 3 -132 15 -17 20 -122 22 -114 2z"/>
<path d="M24850 24458 c0 -32 -9 -42 -58 -67 -23 -12 -40 -26 -37 -32 4 -5 11
-7 16 -3 6 3 13 -3 16 -15 6 -23 7 -23 142 -24 70 0 86 3 97 18 23 31 16 52
-23 72 -27 14 -39 27 -41 46 -3 26 -6 27 -58 27 -49 0 -54 -2 -54 -22z"/>
<path d="M5492 24047 c-27 -28 -28 -42 -4 -59 46 -34 59 -69 62 -173 2 -55 4
-122 5 -150 1 -27 2 -129 3 -225 0 -96 1 -184 1 -194 0 -28 21 -37 66 -31 53
8 66 25 52 73 -5 20 -11 60 -13 87 -2 28 -7 86 -12 130 -7 59 -6 85 3 100 23
38 25 70 7 96 -14 20 -17 49 -17 171 0 141 -1 147 -24 172 -33 35 -98 36 -129
3z"/>
<path d="M6128 24047 c-36 -29 -35 -53 2 -72 16 -8 32 -25 34 -38 3 -12 8
-114 11 -227 3 -113 7 -256 9 -318 l4 -113 -34 -27 c-70 -55 -29 -88 99 -78
43 3 82 8 87 11 12 8 -7 67 -25 78 -9 5 -20 19 -25 32 -5 13 -10 180 -11 372
l-2 348 -28 27 c-34 35 -82 37 -121 5z"/>
<path d="M847 24035 c-23 -20 -28 -32 -25 -62 4 -52 40 -77 90 -63 51 15 67
59 37 106 -11 19 -27 34 -34 34 -7 0 -19 2 -27 5 -7 2 -26 -7 -41 -20z"/>
<path d="M9278 24028 c-38 -13 -35 -28 12 -76 39 -38 40 -42 42 -113 4 -116 0
-150 -16 -168 -12 -14 -13 -24 -5 -54 5 -20 14 -39 19 -42 6 -4 10 -65 10
-141 0 -102 -4 -142 -16 -165 -30 -59 10 -103 102 -114 50 -5 64 -4 77 10 22
21 21 28 -3 50 -58 53 -58 52 -65 435 -5 255 -10 359 -19 368 -16 16 -104 23
-138 10z"/>
<path d="M4632 23990 c-41 -55 -23 -109 41 -124 34 -8 63 7 80 42 18 38 11 68
-23 92 -40 29 -72 26 -98 -10z"/>
<path d="M13622 23963 c-25 -5 -42 -38 -42 -82 0 -19 9 -34 30 -49 39 -30 62
-28 100 8 29 27 32 35 27 67 -4 20 -10 40 -14 44 -11 10 -73 18 -101 12z"/>
<path d="M1805 23930 c-12 -13 -22 -46 -27 -87 -9 -75 -13 -83 -59 -92 -18 -4
-34 -11 -36 -18 -2 -6 19 -27 47 -47 l50 -36 1 -92 c2 -185 12 -261 39 -295
41 -52 78 -60 153 -34 46 16 50 41 7 41 -55 0 -87 25 -96 72 -5 24 -7 50 -6
58 6 33 2 99 -13 210 -9 68 -2 75 79 83 67 7 86 18 66 42 -8 10 -29 15 -60 15
-82 0 -124 57 -101 138 7 24 6 35 -5 47 -19 19 -17 19 -39 -5z"/>
<path d="M0 23740 c0 -24 5 -30 23 -32 12 0 28 -2 35 -2 8 -1 18 -9 23 -19 6
-9 17 -17 25 -17 9 0 27 -27 45 -65 36 -79 38 -140 7 -222 -23 -60 -48 -87
-83 -89 -11 -1 -32 -2 -47 -3 -23 -1 -28 -6 -28 -26 0 -21 5 -25 33 -26 81 -3
106 7 173 68 54 50 79 122 70 205 -10 95 -38 147 -112 206 -58 47 -69 52 -114
52 -49 0 -50 -1 -50 -30z"/>
<path d="M364 23757 c-6 -16 22 -67 36 -67 17 0 34 -78 35 -160 1 -47 5 -110
9 -142 9 -67 -3 -98 -39 -98 -47 0 -43 -40 6 -61 46 -18 207 -6 224 18 16 21
3 43 -26 43 -10 0 -29 5 -43 11 -31 14 -35 50 -33 244 3 185 -9 210 -106 221
-46 5 -58 4 -63 -9z"/>
<path d="M617 23753 c-27 -26 27 -123 68 -123 25 0 39 14 50 48 10 34 -37 82
-80 82 -18 0 -35 -3 -38 -7z"/>
<path d="M826 23752 c-6 -11 21 -72 33 -72 19 0 30 -75 33 -229 l3 -155 -38
-9 c-31 -8 -38 -13 -35 -31 6 -44 137 -62 196 -26 36 22 42 49 13 57 -11 3
-23 12 -27 21 -4 10 -10 108 -14 218 -4 146 -9 206 -19 218 -10 12 -31 16 -77
16 -34 0 -65 -3 -68 -8z"/>
<path d="M1257 23753 c-12 -11 -8 -23 8 -23 8 0 15 7 15 15 0 16 -12 20 -23 8z"/>
<path d="M1390 23753 c-8 -2 -21 -6 -28 -9 -9 -3 0 -17 26 -42 22 -21 46 -51
54 -67 21 -41 36 -253 22 -317 -6 -30 24 -66 80 -95 27 -14 33 -14 63 3 37 20
41 47 6 52 -44 6 -51 28 -56 188 -4 142 -6 154 -32 197 -15 27 -34 47 -44 47
-10 0 -28 11 -41 25 -25 26 -26 27 -50 18z"/>
<path d="M2292 23734 c-9 -16 -43 -38 -74 -50 -10 -3 -18 -13 -18 -21 0 -9 -8
-30 -19 -47 -10 -17 -22 -57 -26 -89 -9 -79 32 -207 82 -253 57 -53 99 -68
178 -65 61 3 118 27 129 56 3 8 12 15 20 15 17 0 51 58 41 68 -3 4 -18 7 -33
8 -22 1 -31 -6 -47 -40 -17 -35 -26 -42 -60 -48 -60 -10 -114 8 -152 51 -45
50 -53 88 -48 226 3 97 7 122 20 130 9 6 26 18 38 28 28 24 73 14 114 -27 38
-36 55 -79 51 -128 -2 -43 5 -55 43 -63 24 -5 36 -2 54 15 33 31 35 57 8 109
-38 73 -89 113 -163 130 -29 6 -48 6 -56 0 -8 -7 -14 -6 -19 1 -10 16 -53 12
-63 -6z"/>
<path d="M3053 23743 c-38 -8 -29 -47 20 -87 34 -28 50 -53 76 -118 19 -46 42
-97 51 -114 10 -17 28 -60 40 -95 26 -72 51 -121 65 -126 6 -1 23 7 38 20 37
29 50 106 22 128 -44 35 -75 73 -75 91 0 10 -16 58 -36 105 -35 85 -35 87 -20
132 10 30 12 49 5 56 -10 10 -148 17 -186 8z"/>
<path d="M3455 23740 c-48 -5 -50 -6 -53 -38 -2 -19 3 -41 11 -50 8 -10 17
-25 20 -34 8 -24 20 -23 54 5 15 13 36 26 45 30 19 7 33 48 25 71 -7 17 -39
22 -102 16z"/>
<path d="M3820 23710 c0 -16 6 -33 13 -37 7 -4 26 -25 41 -45 24 -32 28 -48
33 -130 7 -127 7 -169 -2 -199 -6 -23 0 -33 36 -68 50 -48 76 -51 113 -15 33
34 33 37 -4 51 -44 16 -53 50 -51 198 1 137 -2 147 -50 201 -25 29 -98 74
-118 74 -6 0 -11 -13 -11 -30z"/>
<path d="M4178 23733 c-41 -6 -36 -39 14 -90 l42 -43 1 -168 0 -167 -32 -3
c-27 -3 -33 -8 -33 -26 0 -39 25 -50 124 -54 89 -4 94 -3 121 22 25 23 27 29
14 41 -8 8 -32 20 -54 27 l-40 13 0 185 0 185 -28 37 c-38 49 -50 53 -129 41z"/>
<path d="M4633 23721 c-26 -22 -30 -46 -10 -58 34 -20 49 -62 48 -140 0 -43 1
-116 2 -163 l2 -85 -32 -15 c-32 -15 -47 -48 -32 -71 7 -12 181 -15 200 -3 16
9 10 48 -13 84 -21 32 -22 49 -25 220 -3 214 -9 240 -58 240 -19 0 -39 2 -47
5 -7 2 -23 -4 -35 -14z"/>
<path d="M3720 23715 c0 -8 5 -15 10 -15 6 0 10 7 10 15 0 8 -4 15 -10 15 -5
0 -10 -7 -10 -15z"/>
<path d="M4410 23705 c-12 -23 -12 -29 5 -58 34 -58 69 -72 98 -39 22 24 22
75 0 95 -10 8 -34 18 -53 22 -32 6 -38 3 -50 -20z"/>
<path d="M5157 23723 c-16 -15 -4 -48 34 -93 37 -44 40 -52 35 -87 -4 -21 -1
-67 7 -103 12 -60 10 -99 -8 -157 -6 -17 3 -29 45 -62 55 -44 75 -46 113 -13
24 22 22 33 -15 64 l-32 26 -4 139 c-4 186 -18 218 -113 268 -54 28 -53 28
-62 18z"/>
<path d="M5822 23705 l-23 -23 44 -31 c60 -41 89 -101 93 -195 2 -54 -2 -80
-17 -110 -10 -22 -19 -47 -19 -55 0 -9 -14 -24 -30 -33 -28 -16 -43 -58 -21
-58 22 0 99 40 104 54 4 9 12 16 20 16 7 0 27 28 43 61 25 54 29 72 27 139 -3
84 -18 121 -78 184 -32 33 -96 77 -111 75 -5 -1 -19 -11 -32 -24z"/>
<path d="M1214 23706 c-3 -9 -12 -16 -20 -16 -20 0 -34 -33 -29 -71 7 -53 56
-77 89 -44 26 26 28 52 7 94 -24 47 -39 58 -47 37z"/>
<path d="M6555 23704 c-10 -8 -25 -14 -33 -14 -25 0 -67 -56 -90 -121 -27 -78
-28 -150 -2 -208 11 -24 20 -47 20 -53 0 -22 57 -81 99 -102 25 -13 74 -26
109 -30 58 -7 64 -5 85 18 12 13 29 37 37 53 8 15 22 33 30 40 13 11 12 12 -7
13 -12 0 -26 -7 -30 -15 -10 -18 -111 -46 -119 -34 -3 5 -14 9 -24 9 -39 0
-99 78 -114 147 -5 19 -2 44 8 66 8 21 12 51 9 75 -6 44 18 102 43 102 8 0 17
7 21 16 3 8 12 13 19 10 8 -3 14 1 14 9 0 8 -6 12 -14 9 -7 -3 -20 1 -28 9
-12 12 -17 13 -33 1z"/>
<path d="M6672 23708 c-18 -18 -14 -36 12 -53 13 -9 35 -33 49 -53 22 -31 25
-44 20 -81 -6 -46 4 -61 43 -61 26 0 54 39 54 75 0 53 -73 157 -123 174 -38
14 -40 14 -55 -1z"/>
<path d="M8375 23706 c-54 -15 -58 -44 -11 -79 41 -32 43 -41 51 -220 l6 -137
-28 -30 c-15 -17 -34 -30 -40 -30 -7 0 -13 -9 -13 -20 0 -25 38 -32 150 -28
102 4 110 15 54 83 -35 44 -37 48 -31 106 3 33 1 75 -4 94 -7 24 -5 55 5 105
21 97 10 122 -64 152 -28 12 -43 13 -75 4z"/>
<path d="M7010 23700 c-8 -5 -23 -11 -32 -14 -10 -3 -18 -11 -18 -17 0 -8 13
-9 42 -5 51 8 56 12 37 30 -9 9 -20 11 -29 6z"/>
<path d="M7142 23698 c-19 -19 -16 -24 44 -82 l57 -55 18 22 c22 27 25 90 4
107 -20 17 -109 22 -123 8z"/>
<path d="M7993 23687 c-31 -16 -29 -20 16 -45 47 -27 65 -67 58 -129 -3 -28 1
-62 9 -87 9 -24 12 -55 8 -80 -18 -120 -20 -111 28 -143 23 -16 51 -32 61 -36
24 -9 57 9 57 31 0 10 5 23 11 29 8 8 1 16 -24 28 -43 20 -46 29 -45 196 0
137 -6 161 -60 212 -32 31 -85 42 -119 24z"/>
<path d="M8664 23691 c-37 -16 -37 -30 0 -52 39 -23 38 -18 53 -243 9 -128 3
-148 -49 -187 -38 -29 -10 -46 85 -54 89 -6 140 3 145 26 1 8 -15 35 -38 59
-44 48 -44 47 -40 231 2 111 -6 150 -38 188 -29 34 -80 48 -118 32z"/>
<path d="M9094 23689 c-29 -10 -114 -96 -114 -114 0 -9 -7 -30 -17 -48 -23
-46 -20 -135 8 -205 26 -68 47 -92 111 -134 45 -28 54 -30 108 -25 73 6 90 15
65 34 -11 7 -30 13 -44 13 -31 0 -108 59 -129 98 -23 42 -28 189 -8 250 21 62
39 78 100 87 44 6 47 8 33 22 -19 19 -87 32 -113 22z"/>
<path d="M10497 23693 c-21 -2 -41 -11 -44 -19 -8 -21 16 -44 45 -44 47 0 192
-172 192 -228 0 -12 4 -22 10 -22 15 0 80 -61 80 -76 0 -7 6 -17 14 -21 23
-13 30 -57 12 -72 -20 -17 -20 -35 -1 -51 20 -17 200 -16 220 0 24 20 19 27
-47 70 -35 22 -74 57 -88 78 -14 20 -30 41 -37 45 -7 4 -13 14 -13 21 0 8 -7
19 -16 27 -9 7 -22 30 -31 51 -8 20 -23 40 -34 43 -18 6 -52 47 -77 94 -10 20
-10 31 -1 54 15 35 2 47 -52 47 -20 0 -49 2 -65 4 -16 2 -46 1 -67 -1z"/>
<path d="M10815 23688 c-11 -6 -22 -13 -24 -15 -8 -6 44 -103 55 -103 6 0 27
11 46 24 19 13 51 26 72 30 41 8 56 30 35 51 -19 18 -157 28 -184 13z"/>
<path d="M4981 23664 c-47 -39 -54 -59 -36 -94 8 -16 25 -35 36 -41 18 -9 25
-7 46 13 22 23 24 30 17 86 -8 70 -17 75 -63 36z"/>
<path d="M7838 23670 c-12 -11 -31 -26 -42 -34 -16 -11 -18 -20 -12 -59 6 -38
13 -50 36 -62 40 -21 46 -19 64 15 10 22 13 46 9 80 -5 40 -3 51 11 56 26 10
18 24 -13 24 -16 0 -40 -9 -53 -20z"/>
<path d="M10055 23657 c-25 -20 -52 -55 -70 -92 -26 -53 -30 -69 -28 -136 4
-107 46 -182 136 -244 50 -33 180 -42 208 -14 11 11 19 23 19 28 0 5 10 11 23
15 26 6 55 53 50 79 -9 35 -53 13 -73 -37 -13 -34 -17 -36 -59 -37 -71 -2 -83
1 -116 28 -58 49 -98 186 -64 220 9 9 9 19 -1 42 -11 27 -10 36 11 78 l24 48
68 0 c66 0 69 -1 97 -35 39 -46 41 -96 5 -110 -32 -12 -32 -15 7 -34 45 -23
105 -21 118 3 25 48 -3 126 -70 192 l-38 38 -104 -1 c-100 0 -104 -1 -143 -31z"/>
<path d="M11090 23674 c-13 -15 -10 -20 23 -48 l37 -31 5 -240 c3 -132 8 -256
11 -276 3 -22 -1 -51 -9 -71 -12 -28 -22 -37 -51 -42 -40 -8 -48 -29 -17 -46
28 -15 237 -18 251 -4 16 16 3 54 -18 54 -9 0 -27 15 -39 33 -29 42 -33 159
-7 188 14 15 14 23 4 51 -6 18 -16 98 -20 178 -7 120 -6 148 6 161 8 8 14 25
14 37 0 21 12 28 35 22 6 -2 37 -7 70 -12 76 -11 124 -54 132 -120 3 -24 10
-51 15 -61 5 -10 5 -41 -2 -78 -17 -93 -80 -169 -140 -169 -10 0 -22 -5 -25
-10 -4 -6 -11 -8 -16 -5 -5 4 -9 2 -9 -3 0 -5 27 -17 60 -26 64 -18 80 -15
114 23 11 12 25 21 33 21 7 0 16 8 20 18 3 9 19 33 34 52 16 22 32 61 40 99
12 55 11 71 -4 129 -10 36 -26 76 -37 87 -11 12 -20 25 -20 31 0 5 -23 24 -51
43 l-50 34 -82 -8 c-45 -4 -93 -7 -107 -6 -14 1 -61 4 -106 7 -68 5 -83 3 -94
-12z"/>
<path d="M11728 23683 c-37 -6 -37 -37 0 -59 51 -29 55 -47 58 -215 2 -153 1
-157 -22 -183 -14 -14 -34 -26 -44 -26 -22 0 -25 -16 -10 -40 7 -12 35 -15
142 -15 l133 0 3 26 c3 23 -1 27 -40 35 -38 8 -43 13 -54 49 -7 25 -10 107 -8
212 l2 172 -25 26 c-26 25 -58 30 -135 18z"/>
<path d="M11972 23683 c-13 -2 -25 -10 -28 -17 -6 -16 38 -83 67 -104 19 -13
24 -12 47 6 22 16 27 27 26 61 0 23 -3 43 -5 45 -8 7 -84 14 -107 9z"/>
<path d="M12273 23673 c-7 -2 -13 -11 -13 -19 0 -8 -11 -19 -25 -24 -14 -5
-25 -16 -25 -24 0 -9 -9 -20 -20 -26 -11 -6 -20 -21 -20 -34 0 -13 -4 -36 -10
-52 -14 -42 -19 -105 -10 -123 5 -9 13 -34 19 -57 11 -40 83 -134 103 -134 5
0 21 -9 35 -20 21 -16 41 -20 103 -20 l77 0 31 49 c18 27 32 52 32 56 0 4 8
14 18 21 15 12 14 13 -11 14 -21 0 -27 -4 -25 -17 2 -12 -4 -19 -18 -21 -12
-2 -24 -12 -27 -23 -4 -15 -14 -19 -54 -19 -73 0 -85 6 -127 68 -36 52 -39 62
-38 117 1 33 1 84 1 113 1 50 21 106 46 124 14 11 64 10 107 -3 75 -20 97
-149 26 -149 -49 0 9 -36 67 -41 51 -4 66 2 76 29 14 36 3 104 -22 134 -11 12
-32 38 -47 55 l-27 33 -105 -1 c-58 0 -111 -3 -117 -6z"/>
<path d="M12716 23672 c-4 -3 -6 -14 -6 -24 0 -10 -4 -18 -10 -18 -17 0 -38
-65 -33 -106 8 -76 65 -126 165 -147 36 -8 79 -24 96 -36 33 -23 58 -76 41
-87 -6 -3 -14 -16 -19 -29 -16 -43 -157 -44 -179 -1 -52 100 -91 132 -106 87
-3 -12 -11 -21 -17 -21 -17 0 -3 -98 17 -120 12 -14 30 -20 54 -19 20 1 82 -2
139 -6 62 -4 102 -3 102 2 0 5 16 31 36 57 44 56 57 129 30 170 -9 14 -16 32
-16 40 0 9 -12 19 -27 23 -16 3 -41 15 -58 25 -16 10 -41 18 -55 18 -42 0
-100 20 -100 35 0 7 -9 17 -20 20 -26 8 -28 70 -2 83 62 33 149 14 192 -41 44
-55 87 -26 74 50 l-9 48 -142 1 c-78 1 -144 -1 -147 -4z"/>
<path d="M13173 23673 c-7 -3 -13 -13 -13 -24 0 -10 -7 -19 -15 -19 -8 0 -15
-9 -15 -19 0 -11 -4 -22 -9 -25 -19 -12 -18 -61 2 -103 27 -56 95 -99 169
-109 94 -12 141 -69 116 -141 -12 -34 -36 -43 -110 -43 -33 0 -45 6 -70 34
-17 19 -36 45 -42 58 -6 13 -22 24 -34 26 -18 3 -26 -4 -37 -32 -18 -43 -19
-100 -2 -114 6 -5 64 -14 127 -18 171 -12 173 -12 186 15 7 13 16 26 22 30 20
13 52 92 52 130 0 56 -35 108 -82 121 -20 6 -38 16 -40 22 -2 6 -35 15 -73 19
-72 7 -92 21 -116 78 -17 42 -3 59 55 66 64 8 112 -9 155 -57 25 -27 33 -31
48 -22 21 13 31 100 13 118 -11 11 -260 18 -287 9z"/>
<path d="M13584 23670 c-43 -17 -36 -35 30 -75 14 -8 17 -38 22 -197 5 -179 4
-187 -15 -197 -11 -6 -29 -11 -41 -11 -26 0 -37 -27 -19 -45 10 -10 46 -15
117 -17 87 -2 105 1 120 16 16 17 15 19 -18 47 l-35 30 -3 217 c-2 119 -7 221
-12 225 -11 12 -121 17 -146 7z"/>
<path d="M3642 23654 c-25 -17 -29 -58 -10 -99 13 -29 34 -32 66 -9 39 27 23
124 -21 124 -7 0 -23 -7 -35 -16z"/>
<path d="M14004 23656 c-4 -9 -20 -24 -37 -33 -35 -18 -66 -51 -67 -72 0 -8
-7 -22 -16 -32 -24 -26 -24 -212 0 -238 9 -10 16 -23 16 -29 0 -15 59 -82 73
-82 6 0 20 -9 32 -20 17 -16 37 -20 117 -22 93 -3 97 -2 124 25 16 15 40 37
53 50 86 81 106 208 51 317 -17 33 -35 60 -40 60 -6 0 -10 7 -10 15 0 9 -11
20 -24 25 -13 5 -29 17 -34 27 -9 15 -27 19 -121 21 -95 3 -112 1 -117 -12z
m198 -73 c66 -69 87 -211 47 -301 -36 -78 -54 -92 -127 -92 -58 0 -65 3 -92
31 -63 70 -75 233 -25 352 l15 37 78 0 c72 0 80 -2 104 -27z"/>
<path d="M14463 23663 c-23 -9 -14 -42 16 -58 32 -16 68 -92 57 -121 -7 -17
-8 -146 -1 -203 3 -34 -11 -80 -30 -93 -5 -4 -20 -8 -32 -8 -26 0 -32 -30 -10
-48 17 -15 225 -18 238 -5 18 18 5 46 -26 56 -16 5 -32 11 -34 13 -2 2 -5 67
-7 146 -3 112 0 154 13 194 l16 52 -32 41 c-32 40 -34 41 -94 40 -34 0 -68 -3
-74 -6z"/>
<path d="M14695 23651 c-7 -12 28 -33 79 -46 57 -14 61 -36 66 -300 2 -109 -3
-125 -40 -125 -40 0 -55 -22 -30 -45 24 -22 100 -29 185 -18 51 7 60 11 63 29
2 15 -4 23 -20 28 -53 14 -53 12 -58 223 l-6 198 -31 33 c-30 31 -33 32 -116
32 -47 0 -88 -4 -92 -9z"/>
<path d="M15115 23626 c-45 -51 -55 -72 -55 -113 0 -37 42 -113 63 -113 6 0
18 -7 28 -16 10 -9 49 -23 86 -30 86 -19 130 -47 138 -92 13 -69 -37 -97 -148
-83 -39 5 -50 11 -65 37 -37 67 -65 104 -77 104 -15 0 -25 -53 -25 -133 l0
-58 43 1 c23 1 91 -2 151 -5 108 -7 109 -7 133 19 13 14 27 26 32 26 4 0 15
32 25 71 l17 72 -23 46 c-17 32 -33 49 -55 56 -16 6 -37 16 -46 23 -9 8 -46
18 -83 22 -56 7 -71 13 -90 37 -23 28 -28 67 -11 90 13 18 89 26 131 15 24 -7
52 -27 79 -58 l41 -46 19 23 c15 19 18 35 14 72 -2 27 -11 53 -18 58 -8 5 -72
9 -144 9 l-130 0 -30 -34z"/>
<path d="M6937 23635 c-13 -9 -19 -27 -19 -60 0 -84 71 -145 193 -167 48 -8
64 -17 89 -44 16 -19 30 -44 30 -55 0 -19 -48 -72 -86 -95 -23 -14 -12 -29 28
-39 24 -6 29 -3 38 19 5 14 16 26 24 26 21 0 51 43 65 93 12 40 11 49 -8 85
-33 64 -83 99 -154 107 -81 10 -131 43 -153 101 -18 48 -21 50 -47 29z"/>
<path d="M3426 23559 c-12 -52 -11 -64 4 -64 10 0 16 12 18 34 4 41 -14 66
-22 30z"/>
<path d="M1245 23490 c-22 -16 -46 -29 -52 -30 -7 0 -13 -8 -13 -19 0 -10 -9
-30 -21 -45 -32 -41 -20 -102 29 -139 37 -29 45 -29 161 -17 8 0 -22 30 -31
30 -5 0 -21 11 -36 25 -21 20 -27 34 -27 68 0 44 27 113 47 119 12 4 4 39 -9
37 -4 0 -26 -14 -48 -29z"/>
<path d="M3700 23470 c-13 -11 -28 -20 -34 -20 -7 0 -26 -19 -44 -42 -23 -30
-32 -52 -32 -79 0 -78 30 -112 107 -125 53 -8 66 13 36 55 -41 54 -38 137 7
194 11 14 20 28 20 31 0 14 -39 5 -60 -14z"/>
<path d="M5065 23480 c3 -5 8 -10 11 -10 2 0 4 5 4 10 0 6 -5 10 -11 10 -5 0
-7 -4 -4 -10z"/>
<path d="M4976 23428 c-44 -42 -59 -82 -51 -135 11 -72 102 -127 146 -87 25
23 24 28 -8 59 -24 22 -28 33 -27 81 0 42 4 58 17 66 9 5 17 18 17 28 0 33
-54 26 -94 -12z"/>
<path d="M7867 23453 c-15 -2 -32 -13 -37 -23 -5 -10 -19 -22 -30 -25 -11 -3
-20 -14 -20 -23 0 -9 -7 -26 -15 -36 -20 -26 -19 -49 4 -94 30 -59 142 -106
158 -67 3 9 -1 23 -9 33 -56 65 -58 145 -6 192 17 16 27 33 24 39 -7 11 -17
12 -69 4z"/>
<path d="M2032 23360 c1 -13 9 -25 16 -28 17 -5 15 23 -4 39 -14 11 -15 10
-12 -11z"/>
<path d="M6917 23353 c-10 -9 -8 -125 2 -141 5 -8 27 -13 62 -12 30 0 66 -2
82 -6 38 -9 36 14 -3 29 -16 6 -30 17 -30 25 0 16 -28 59 -58 89 -23 23 -43
29 -55 16z"/>
<path d="M10605 23290 c-4 -6 -36 -25 -72 -43 -78 -38 -95 -59 -71 -83 12 -13
36 -17 95 -17 44 0 84 3 91 7 18 11 15 80 -5 115 -19 33 -28 37 -38 21z"/>
<path d="M15610 23257 c0 -8 -9 -22 -20 -32 -25 -22 -25 -44 -2 -84 14 -25 24
-31 50 -31 47 0 69 15 78 52 10 43 7 58 -19 86 -23 25 -87 32 -87 9z"/>
<path d="M7965 23190 c4 -6 11 -8 16 -5 14 9 11 15 -7 15 -8 0 -12 -5 -9 -10z"/>
<path d="M2 23025 c0 -16 2 -22 5 -12 2 9 2 23 0 30 -3 6 -5 -1 -5 -18z"/>
<path d="M16803 22743 c-7 -3 -13 -13 -13 -23 0 -10 -9 -20 -19 -23 -18 -4
-19 -23 -20 -508 -3 -1411 -1 -2591 4 -2599 3 -5 16 -8 28 -7 34 5 68 85 69
163 0 42 5 64 13 68 25 9 37 -22 34 -96 -1 -40 2 -122 8 -183 5 -61 6 -174 2
-255 -5 -80 -9 -188 -9 -240 -2 -99 -10 -130 -35 -130 -16 0 -19 40 -6 74 8
20 -3 59 -32 113 -9 18 -17 44 -17 59 0 18 -4 25 -14 21 -8 -3 -18 2 -22 11
-5 13 -9 7 -16 -23 -5 -22 -11 -633 -14 -1391 -5 -1213 -3 -1353 10 -1367 9
-9 16 -27 16 -41 0 -32 23 -34 37 -3 27 59 54 158 48 176 -3 11 -1 22 5 26 6
4 7 13 1 23 -20 39 -22 113 -6 193 12 59 14 84 6 92 -16 16 -13 83 4 97 9 8
11 17 5 28 -18 35 -31 102 -22 119 4 10 6 59 4 108 -5 135 -5 137 3 183 9 48
29 52 32 6 5 -67 10 -420 6 -426 -8 -14 -11 -193 -3 -203 4 -5 4 -48 1 -95 -3
-47 -3 -105 0 -128 4 -29 1 -49 -9 -63 -10 -15 -11 -23 -2 -34 11 -14 31 -210
23 -232 -2 -6 0 -27 5 -46 6 -23 6 -52 0 -83 -6 -27 -11 -94 -13 -149 -2 -55
-3 -113 -4 -128 -2 -52 -50 -44 -51 9 0 11 -7 44 -16 73 -16 55 -34 63 -44 20
-3 -13 -11 -24 -17 -24 -6 0 -14 -3 -17 -6 -5 -5 -9 -1647 -5 -1869 1 -14 6
-28 12 -32 9 -6 9 -10 1 -15 -14 -10 -13 -3 -14 -218 -1 -375 0 -393 14 -398
8 -3 17 -21 21 -39 13 -66 15 -70 31 -57 8 6 14 19 14 28 0 10 12 28 26 42 24
22 26 23 38 7 31 -42 27 -450 -4 -533 -6 -15 -8 -31 -5 -36 3 -5 1 -18 -5 -29
-7 -14 -8 -26 -2 -33 17 -22 20 -68 7 -115 -15 -53 -16 -49 -21 95 -5 159 -47
213 -83 108 -13 -39 -16 -80 -15 -182 2 -116 0 -133 -14 -133 -14 0 -14 -1 0
-12 15 -12 24 -47 18 -73 -1 -5 -2 -77 -2 -160 0 -82 -3 -154 -8 -160 -4 -5
-4 -39 1 -75 7 -56 11 -153 9 -225 0 -32 1 -527 2 -565 1 -19 1 -96 0 -170 0
-74 0 -153 0 -175 0 -22 -1 -135 -2 -252 -1 -116 0 -215 3 -220 4 -6 3 -23 -2
-39 -4 -17 -3 -49 5 -79 6 -27 15 -62 18 -77 9 -40 19 -35 45 20 17 37 23 68
24 137 1 50 6 96 11 103 5 8 4 18 -3 25 -14 14 -14 64 0 72 6 4 13 4 17 0 9
-8 16 -193 11 -277 -1 -13 3 -68 9 -123 14 -127 15 -239 2 -287 -9 -32 -20
-147 -20 -216 0 -13 -5 -20 -10 -17 -6 3 -10 13 -10 22 0 24 -41 143 -50 143
-3 0 -16 -10 -28 -23 l-21 -22 -4 -1403 c-4 -1219 -2 -1404 11 -1414 8 -7 18
-22 22 -34 20 -51 118 -66 161 -23 10 10 28 19 39 19 11 0 23 7 26 15 4 8 28
21 55 29 27 8 56 22 65 31 8 8 24 15 35 15 11 0 22 7 25 15 3 8 22 19 42 26
21 7 48 20 61 30 13 11 31 19 41 19 9 0 25 9 34 19 10 11 32 23 50 27 17 4 42
15 55 25 13 11 33 19 43 19 11 0 33 11 50 25 16 14 38 25 49 25 10 0 28 9 39
20 11 11 28 20 39 20 10 0 29 9 43 19 13 11 36 23 51 26 14 4 33 15 43 26 9
10 27 19 39 19 12 0 33 9 46 21 13 11 37 23 52 26 16 3 31 12 34 19 3 7 20 16
38 20 19 3 41 14 51 25 9 10 32 22 51 25 19 4 40 15 46 25 7 11 23 19 38 19
14 0 34 9 43 19 10 11 31 23 47 26 16 4 31 10 34 15 7 11 168 90 182 90 6 0
16 6 22 14 7 8 25 18 41 21 16 3 34 13 40 20 6 8 28 19 48 26 20 6 40 17 44
24 4 7 23 16 41 19 19 4 42 15 52 26 10 11 23 20 29 20 6 1 26 14 45 30 42 36
36 57 -17 66 -68 11 -72 20 -27 60 22 20 56 45 75 55 19 11 71 42 115 69 44
28 91 50 106 50 14 0 29 4 35 9 5 5 25 11 45 15 31 6 39 3 52 -18 16 -23 15
-25 -17 -46 -18 -13 -37 -35 -44 -49 -45 -106 -54 -140 -56 -228 -2 -51 -8
-98 -14 -105 -7 -9 -7 -27 0 -58 11 -49 13 -79 9 -155 -2 -27 -3 -103 -2 -168
0 -65 -4 -128 -8 -140 -5 -13 -5 -30 -1 -38 5 -8 8 -265 7 -570 -2 -305 1
-567 5 -583 4 -16 3 -36 -2 -46 -5 -10 -9 -31 -9 -46 0 -16 2 -99 5 -184 4
-179 4 -142 3 -470 -1 -342 0 -745 3 -800 1 -25 1 -63 0 -85 -9 -184 -1 -468
16 -585 20 -136 18 -316 -3 -350 -5 -8 -19 -160 -18 -205 0 -11 0 -49 1 -85 0
-36 0 -87 -2 -115 -1 -27 2 -70 6 -94 4 -25 5 -48 0 -53 -4 -4 -5 -45 -1 -90
3 -46 4 -87 2 -91 -5 -9 -6 -463 -2 -815 2 -133 -1 -196 -9 -204 -8 -8 -7 -18
4 -40 8 -16 12 -33 8 -39 -4 -6 -8 -57 -10 -113 -1 -55 -3 -108 -4 -116 -1 -8
1 -134 4 -280 3 -191 9 -283 20 -330 9 -36 16 -84 16 -107 0 -61 -39 -86 -134
-88 -39 -1 -75 -3 -81 -4 -5 -1 -41 -2 -80 -1 -38 0 -74 0 -80 0 -25 -2 -146
-2 -201 0 -34 2 -67 -1 -73 -5 -7 -4 -18 -1 -26 5 -9 8 -20 8 -31 2 -11 -6
-26 -5 -45 5 -26 13 -31 13 -45 -1 -22 -23 -193 -25 -247 -4 -20 8 -34 8 -50
0 -35 -17 -109 -22 -152 -11 -49 13 -41 13 -197 6 -91 -4 -128 -2 -128 6 0 8
-3 8 -11 0 -8 -8 -18 -8 -34 -1 -15 7 -29 7 -41 0 -12 -6 -55 -7 -118 -1 -54
4 -142 5 -195 2 -53 -4 -114 -6 -136 -6 -84 2 -186 10 -192 16 -3 4 -12 2 -20
-4 -8 -8 -33 -9 -68 -5 -29 3 -56 2 -59 -3 -4 -5 -235 -7 -553 -5 -667 6 -585
6 -786 0 -93 -2 -171 -6 -173 -9 -3 -3 -21 0 -40 6 -26 8 -47 8 -79 -1 -28 -7
-53 -8 -68 -3 -13 5 -61 6 -105 2 -45 -4 -89 -3 -98 2 -10 6 -19 5 -23 -1 -5
-8 -136 -19 -151 -12 -3 1 -50 4 -105 7 -55 2 -104 4 -110 4 -51 2 -348 -10
-352 -15 -3 -3 -11 1 -18 10 -9 14 -17 14 -56 4 -24 -7 -48 -12 -54 -12 -62 7
-254 7 -305 1 -40 -5 -69 -4 -77 2 -8 7 -21 6 -39 -4 -29 -15 -81 -6 -96 16
-4 7 -12 6 -22 -2 -9 -7 -24 -10 -36 -6 -13 4 -28 1 -38 -8 -12 -11 -31 -14
-67 -10 -59 6 -51 6 -227 2 -90 -2 -141 1 -150 9 -8 6 -19 7 -27 3 -7 -4 -31
-6 -54 -4 -80 8 -132 9 -142 4 -10 -6 -99 -8 -485 -13 -236 -3 -251 -2 -244
17 3 8 -4 19 -16 25 -16 9 -20 19 -18 43 4 42 28 47 253 53 99 3 191 6 205 6
14 1 59 0 100 0 41 -1 93 -1 115 0 22 0 56 -1 75 -2 19 -2 247 0 505 5 397 6
737 8 1415 7 483 -2 580 0 585 8 3 6 53 7 118 4 241 -12 318 -13 832 -14 121
0 240 0 265 0 61 0 408 1 550 2 63 0 194 2 290 4 96 2 184 4 195 4 115 -5 801
-5 835 -1 25 4 126 4 225 1 261 -7 440 13 433 49 -2 8 -14 18 -28 22 -24 7
-24 7 5 8 23 1 27 4 15 11 -9 6 -293 8 -750 5 -1120 -7 -2327 -16 -2600 -19
l-245 -3 4 121 c1 67 -2 209 -9 316 -9 147 -9 215 0 275 26 183 26 171 -10
178 -18 4 -36 5 -41 2 -20 -13 -29 -90 -29 -247 0 -218 20 -452 53 -632 2 -10
-28 -13 -123 -16 -8 0 -46 2 -85 4 -72 4 -123 5 -383 5 -84 0 -156 3 -161 6
-6 3 -31 1 -56 -5 -25 -6 -50 -8 -55 -5 -4 3 -146 5 -314 6 -240 1 -309 -1
-322 -12 -13 -11 -17 -10 -24 1 -6 10 -24 14 -52 13 -24 -1 -169 -4 -323 -6
-154 -3 -284 -5 -290 -5 -5 0 -50 2 -98 5 -53 3 -93 0 -100 -6 -7 -5 -18 -7
-24 -3 -6 4 -130 6 -275 6 -771 -4 -693 -1 -748 -30 -64 -33 -78 -79 -56 -184
16 -77 41 -89 186 -84 109 3 1168 15 1200 13 8 0 44 -1 80 -1 36 0 103 0 150
0 47 0 90 0 95 1 51 5 1347 6 1377 1 21 -4 41 -4 44 1 3 5 80 6 172 4 92 -3
174 -5 182 -5 8 1 157 0 330 -1 173 -1 331 -1 350 -1 184 0 2499 20 2515 22 6
0 179 0 385 -1 283 -1 375 1 378 10 2 7 16 23 31 37 24 23 26 29 24 105 -2 63
-7 86 -23 106 -20 26 -20 34 -18 1369 l2 1344 23 22 c20 19 23 31 23 104 0 75
-2 84 -22 99 l-23 15 0 2116 c0 2030 -1 2116 -18 2129 -12 9 -15 15 -7 20 6 4
15 17 20 30 6 17 19 24 51 28 23 3 46 13 51 21 5 9 22 16 40 16 20 0 39 9 54
25 13 14 34 25 48 25 14 0 29 6 33 14 10 16 46 36 67 36 9 0 25 9 36 20 11 11
30 20 43 20 12 0 30 9 39 20 10 11 30 23 45 26 15 4 39 15 52 26 13 10 31 18
41 18 10 0 29 9 43 20 14 11 34 20 46 20 11 0 26 9 34 20 8 11 29 23 48 26 19
4 42 15 52 25 10 10 30 22 45 25 15 4 35 15 45 25 10 11 31 19 46 19 16 0 31
6 34 14 3 8 23 20 44 26 21 7 49 21 62 31 13 11 32 19 42 19 11 0 28 9 39 20
11 11 27 20 37 20 9 0 31 11 49 25 18 14 41 25 52 25 10 0 27 9 37 20 10 11
24 20 32 20 18 0 241 109 249 121 3 5 13 9 23 9 9 0 32 11 51 25 19 14 41 25
51 25 9 0 27 8 40 18 13 10 44 26 69 36 25 9 65 28 90 41 25 13 64 32 86 43
23 11 45 25 48 31 4 6 17 11 29 11 12 0 33 9 47 20 14 11 30 20 37 20 9 0 102
45 163 79 8 5 26 14 40 20 14 6 32 15 40 20 45 26 147 71 161 71 9 0 19 7 22
14 3 8 22 18 42 22 19 3 40 14 45 24 5 10 25 21 44 24 19 4 39 13 46 21 6 7
26 17 43 21 18 3 40 15 50 25 10 11 31 19 47 19 19 0 33 7 40 19 5 11 24 23
42 26 18 4 44 16 57 26 13 11 34 19 47 19 13 0 28 8 33 19 6 10 27 22 46 25
20 4 45 16 56 27 10 10 27 19 38 19 10 0 24 7 31 14 6 8 28 20 48 27 20 7 48
20 61 30 13 11 34 19 46 19 12 0 28 7 35 14 6 8 28 20 48 27 20 7 43 18 50 26
7 7 24 13 36 13 24 0 90 47 114 81 11 16 15 102 18 462 4 511 12 1136 19 1622
2 187 7 525 10 750 3 226 8 554 12 730 10 583 9 893 -3 905 -24 24 -74 -20
-74 -66 0 -6 -7 -17 -15 -24 -38 -31 -54 34 -60 235 -3 95 1 142 24 279 7 42
6 64 -2 78 -10 16 -9 22 7 33 16 12 17 17 6 30 -17 21 -4 231 16 239 7 3 17 0
21 -7 11 -17 3 -241 -9 -248 -6 -4 -6 -13 0 -25 15 -29 40 -96 46 -126 5 -20
13 -28 27 -28 14 0 19 5 16 14 -3 8 1 28 9 45 12 23 16 92 20 328 3 164 7 366
9 448 3 83 7 290 10 460 6 348 12 601 30 1340 2 99 7 299 10 445 12 577 25
1092 31 1240 9 269 7 340 -10 359 -9 10 -16 22 -16 28 0 6 -19 13 -42 17 -24
4 -47 15 -55 26 -10 14 -26 20 -50 20 -26 0 -36 5 -40 19 -3 13 -17 21 -48 25
-31 5 -44 12 -48 26 -4 15 -14 20 -36 20 -20 0 -35 7 -43 20 -8 12 -24 20 -41
20 -17 0 -37 10 -51 25 -13 14 -33 25 -45 25 -11 0 -30 9 -40 19 -10 10 -35
25 -55 32 -20 7 -36 18 -36 25 0 7 -18 15 -39 19 -22 3 -47 15 -57 26 -9 10
-25 19 -35 19 -10 0 -30 11 -45 25 -15 14 -39 25 -55 25 -16 0 -33 8 -41 19
-7 10 -28 22 -46 25 -18 4 -37 16 -42 27 -6 11 -21 19 -36 19 -14 0 -35 11
-48 25 -13 14 -33 25 -44 25 -31 0 -52 11 -52 26 0 8 -10 14 -24 14 -14 0 -38
11 -54 25 -17 14 -41 25 -56 25 -14 0 -29 8 -35 18 -5 10 -28 24 -49 30 -22 7
-45 19 -52 27 -7 8 -23 15 -36 15 -13 0 -34 11 -46 25 -12 14 -32 25 -44 25
-33 0 -54 10 -54 26 0 8 -10 14 -25 14 -15 0 -36 11 -49 25 -14 14 -34 25 -50
25 -14 0 -35 9 -46 20 -11 11 -32 23 -47 26 -16 4 -34 16 -41 26 -7 10 -24 18
-37 18 -13 0 -36 11 -51 25 -15 14 -37 25 -50 25 -13 0 -28 9 -34 20 -6 10
-26 22 -44 26 -19 3 -42 15 -52 25 -9 10 -28 19 -41 19 -13 0 -34 11 -47 25
-13 14 -34 25 -48 25 -14 0 -34 11 -46 25 -13 14 -27 23 -32 20 -17 -10 -48 5
-53 25 -4 15 -14 20 -36 20 -22 0 -35 7 -47 25 -12 19 -25 25 -51 25 -26 0
-36 5 -40 20 -5 20 -8 21 -55 24 -15 1 -38 12 -51 24 -13 12 -30 22 -38 22 -9
0 -25 11 -37 25 -14 16 -32 25 -50 25 -16 0 -37 9 -47 20 -10 11 -26 20 -36
20 -28 0 -49 11 -49 26 0 7 -19 18 -42 25 -23 6 -48 20 -56 30 -8 11 -25 19
-43 19 -19 0 -32 6 -36 18 -9 23 -23 32 -54 32 -16 0 -32 9 -41 22 -9 13 -27
23 -44 24 -16 1 -32 3 -36 3 -5 1 -8 7 -8 15 0 15 -21 26 -47 26 -9 0 -26 11
-39 25 -15 16 -34 25 -53 25 -19 0 -34 7 -40 19 -6 11 -26 21 -49 25 -28 4
-41 12 -45 26 -4 15 -13 20 -41 20 -25 0 -38 6 -46 20 -6 11 -26 22 -46 26
-23 4 -38 13 -41 25 -3 10 -18 20 -37 24 -56 11 -66 16 -66 31 0 9 -11 14 -30
14 -19 0 -33 7 -40 19 -6 12 -26 22 -51 26 -28 5 -43 13 -46 26 -4 13 -18 20
-48 25 -31 4 -45 12 -48 25 -4 14 -14 19 -41 19 -25 0 -38 6 -46 20 -6 10 -28
24 -50 30 -22 6 -40 17 -40 25 0 8 -16 16 -41 20 -28 5 -43 13 -46 25 -3 12
-18 20 -48 24 -31 5 -44 12 -48 26 -3 14 -14 20 -32 20 -15 0 -36 10 -49 25
-15 17 -34 25 -55 25 -21 0 -34 6 -38 18 -9 23 -23 32 -55 32 -17 0 -31 8 -38
19 -6 12 -23 21 -43 23 -22 2 -35 10 -42 26 -7 16 -18 22 -40 22 -35 0 -49 8
-58 33 -4 10 -11 16 -16 13 -16 -10 -69 15 -74 35 -4 14 -14 19 -42 19 -28 0
-38 5 -42 20 -4 14 -14 20 -33 20 -38 0 -60 9 -60 25 0 14 -22 25 -50 25 -11
0 -24 9 -30 20 -7 13 -26 22 -52 26 -27 5 -42 13 -45 25 -3 11 -19 20 -45 24
-28 5 -42 13 -45 26 -3 11 -14 19 -27 19 -36 0 -66 12 -66 26 0 7 -19 19 -42
26 -24 7 -49 20 -56 30 -7 10 -26 18 -41 18 -19 0 -30 6 -34 19 -3 12 -17 20
-45 25 -26 4 -45 13 -52 26 -7 13 -21 20 -40 20 -19 0 -33 7 -40 19 -5 11 -23
22 -39 26 -17 3 -40 14 -53 24 -13 10 -35 21 -50 25 -15 3 -35 15 -45 25 -10
10 -31 21 -47 25 -16 4 -36 16 -45 26 -13 15 -33 20 -101 23 -47 2 -91 2 -97
0z m217 -133 c24 -6 65 -24 89 -41 24 -16 49 -29 55 -29 7 0 22 -8 36 -17 13
-9 32 -18 42 -18 11 -1 26 -11 34 -23 8 -12 24 -22 36 -22 11 0 33 -11 50 -25
16 -14 37 -25 47 -25 9 0 21 -4 27 -9 5 -6 41 -26 79 -45 39 -20 77 -40 85
-45 36 -22 222 -122 290 -157 41 -21 80 -43 85 -49 6 -6 30 -20 55 -30 25 -10
54 -28 65 -40 11 -12 33 -22 48 -23 25 -2 46 -11 97 -41 8 -5 45 -23 82 -40
37 -17 73 -39 80 -51 9 -13 23 -20 45 -20 18 0 36 -6 40 -13 4 -7 35 -26 68
-41 107 -51 140 -68 150 -81 6 -7 29 -18 50 -25 22 -6 54 -20 70 -30 17 -11
37 -23 45 -26 8 -4 36 -22 61 -41 26 -18 53 -33 61 -33 19 0 107 -46 133 -70
11 -10 33 -22 48 -26 16 -3 31 -13 34 -20 3 -8 10 -14 15 -14 27 0 254 -114
288 -145 9 -8 21 -15 26 -15 15 0 78 -34 108 -58 15 -11 44 -26 64 -33 20 -6
44 -17 52 -24 8 -7 26 -16 40 -20 14 -4 36 -15 50 -25 14 -9 40 -22 57 -28 18
-6 48 -22 65 -35 18 -13 55 -34 82 -47 27 -13 57 -31 66 -40 9 -9 37 -22 63
-29 26 -8 52 -20 58 -27 6 -8 29 -19 50 -24 22 -6 39 -15 39 -20 0 -12 53 -40
76 -40 9 0 33 -13 54 -30 21 -16 45 -30 54 -30 9 0 19 -7 22 -15 4 -8 16 -15
29 -15 12 0 28 -7 35 -15 7 -8 18 -15 25 -15 6 0 33 -11 59 -25 26 -14 52 -25
58 -25 6 0 16 -6 22 -13 6 -8 40 -26 76 -42 36 -15 74 -36 86 -46 11 -11 25
-19 30 -19 6 0 62 -26 125 -58 189 -97 219 -114 219 -122 0 -4 12 -13 28 -19
15 -6 34 -15 42 -20 8 -5 49 -24 90 -41 41 -18 84 -41 95 -51 11 -10 38 -25
60 -32 70 -25 213 -98 219 -112 2 -7 22 -19 43 -25 21 -7 49 -21 62 -31 13
-11 30 -19 37 -19 8 0 14 -4 14 -9 0 -5 10 -13 23 -16 27 -8 119 -49 169 -75
20 -11 43 -20 49 -20 7 0 23 -10 36 -22 13 -12 55 -38 92 -58 38 -19 105 -54
149 -77 44 -23 82 -39 86 -36 3 3 14 -1 23 -9 10 -8 43 -26 74 -40 30 -14 70
-39 88 -57 17 -17 39 -31 48 -31 29 0 117 -48 147 -79 18 -19 40 -31 55 -31
35 0 48 -10 71 -52 21 -39 25 -115 17 -333 -2 -66 -7 -248 -11 -405 -3 -157
-9 -352 -12 -435 -3 -82 -7 -226 -9 -320 -1 -93 -4 -172 -5 -175 -3 -6 -8
-204 -8 -365 -1 -130 -1 -147 -3 -246 -1 -42 0 -80 3 -85 3 -5 3 -26 1 -46 -2
-21 -5 -53 -6 -71 -2 -18 -7 -39 -11 -45 -4 -7 -2 -28 5 -47 11 -30 11 -42 -4
-82 -10 -28 -14 -50 -8 -57 5 -6 7 -45 5 -86 -3 -41 -7 -183 -9 -315 -2 -132
-6 -271 -9 -310 -3 -42 -1 -74 6 -82 6 -7 7 -21 2 -30 -6 -16 -16 -358 -14
-510 1 -31 -3 -53 -9 -53 -6 0 -11 -12 -12 -27 l-1 -28 -13 30 c-9 18 -14 66
-15 123 0 79 3 95 20 112 25 25 25 26 -1 33 -19 5 -20 10 -13 64 4 32 7 66 6
76 -4 38 -2 204 4 447 6 278 7 287 6 470 0 69 2 186 4 260 2 74 6 230 8 345 3
116 8 225 11 243 4 20 1 39 -6 48 -8 10 -9 21 -1 41 9 23 16 266 13 437 0 16
4 36 9 45 5 11 5 35 -1 61 -7 33 -7 50 2 68 10 18 11 27 1 43 -7 11 -10 24 -7
29 5 9 19 420 17 498 -2 49 -2 55 3 231 2 90 6 169 8 175 9 22 -28 135 -47
148 -19 13 -25 9 -30 -24 -3 -18 -8 -49 -12 -68 -3 -19 -5 -52 -5 -74 1 -21
-3 -44 -9 -51 -11 -13 -8 -100 4 -112 12 -12 6 -33 -9 -33 -17 0 -20 -16 -5
-25 10 -6 10 -115 0 -115 -3 0 -5 -25 -5 -55 -1 -30 2 -55 6 -55 11 0 8 -69
-3 -76 -6 -4 -5 -9 3 -14 9 -6 8 -16 -5 -45 -14 -29 -15 -39 -5 -51 10 -13 10
-17 -1 -24 -11 -7 -12 -16 -2 -46 8 -28 8 -40 0 -45 -6 -4 -8 -13 -6 -20 3 -8
1 -22 -4 -32 -6 -12 -5 -19 6 -23 15 -6 20 -64 4 -64 -4 0 -7 -13 -6 -28 1
-15 -1 -33 -5 -39 -4 -6 -3 -14 2 -18 10 -6 8 -56 -3 -74 -4 -5 -3 -12 2 -15
5 -3 5 -33 1 -68 -4 -37 -4 -64 2 -66 12 -5 12 -112 -1 -112 -14 0 -12 -27 3
-33 9 -4 9 -8 1 -14 -17 -11 -22 -79 -6 -75 7 1 12 -2 12 -8 0 -5 -5 -10 -10
-10 -6 0 -8 -15 -4 -40 4 -26 2 -45 -6 -55 -10 -11 -10 -18 -1 -29 7 -9 8 -17
3 -20 -6 -4 -7 -21 -1 -43 5 -23 4 -42 -1 -47 -15 -15 -12 -26 5 -26 8 0 15
-4 15 -10 0 -5 -7 -10 -15 -10 -8 0 -15 -7 -15 -15 0 -8 5 -15 10 -15 14 0 12
-54 -2 -68 -10 -10 -10 -15 -1 -20 8 -5 9 -13 3 -22 -6 -9 -3 -18 8 -27 15
-11 15 -12 1 -13 -18 0 -36 -73 -19 -78 12 -5 13 -59 1 -66 -7 -5 -12 -145
-11 -328 0 -16 0 -36 0 -45 0 -10 -2 -38 -4 -63 -2 -25 2 -51 8 -59 13 -16 14
-118 1 -146 -4 -11 -9 -47 -11 -80 -1 -33 -4 -86 -7 -118 -2 -32 -1 -60 4 -62
4 -3 3 -21 -2 -41 -7 -25 -7 -39 1 -49 6 -7 7 -16 3 -18 -15 -9 -15 -120 -1
-129 10 -6 10 -10 -2 -18 -13 -9 -13 -11 -1 -19 11 -7 12 -13 4 -23 -7 -8 -13
-62 -14 -126 -3 -91 0 -115 11 -123 11 -6 12 -11 4 -16 -18 -12 -27 -80 -12
-86 10 -4 10 -8 -1 -16 -12 -8 -13 -16 -4 -45 7 -21 7 -38 2 -42 -14 -8 -11
-121 4 -127 9 -4 9 -8 0 -14 -6 -4 -11 -19 -11 -33 0 -14 -2 -104 -6 -200 -10
-285 -10 -330 2 -342 8 -8 2 -17 -21 -33 -37 -25 -39 -56 -6 -91 14 -15 19
-33 18 -61 -2 -21 0 -44 4 -50 4 -7 3 -14 -2 -18 -6 -3 -10 -43 -9 -88 0 -45
-1 -84 -2 -87 -6 -14 -5 -119 1 -148 4 -17 4 -34 0 -37 -4 -2 -8 -93 -9 -202
-1 -109 -4 -335 -7 -503 -4 -168 -8 -453 -10 -635 -3 -181 -7 -514 -10 -740
-12 -807 -12 -876 -5 -880 5 -3 4 -20 0 -39 -9 -39 -10 -112 -13 -586 l-2
-335 24 -33 c21 -30 25 -32 39 -19 22 23 44 114 46 192 1 39 5 75 9 82 4 6 3
14 -3 18 -13 8 -13 55 0 55 6 0 15 -12 21 -27 6 -16 15 -36 20 -45 5 -10 4
-60 -1 -119 -5 -56 -7 -119 -4 -140 4 -21 4 -49 0 -63 -8 -32 -64 -84 -115
-107 -21 -9 -42 -22 -45 -28 -15 -24 -60 -39 -86 -29 l-25 9 23 19 c13 11 29
17 37 14 9 -4 20 7 32 31 12 26 22 35 35 32 22 -6 36 12 18 23 -7 4 -10 12 -6
18 3 6 2 13 -3 16 -5 4 -12 2 -15 -3 -3 -5 -25 -6 -49 -4 -39 5 -45 3 -50 -16
-4 -17 -13 -21 -46 -21 -34 0 -41 -3 -41 -20 0 -16 -7 -20 -35 -20 -21 0 -41
-7 -52 -19 -10 -11 -34 -22 -55 -26 -24 -5 -38 -13 -41 -26 -4 -14 -14 -19
-42 -19 -28 0 -38 -5 -42 -19 -3 -13 -17 -21 -48 -25 -31 -5 -44 -12 -48 -26
-4 -16 -14 -20 -45 -20 -31 0 -41 -4 -45 -19 -3 -14 -17 -21 -51 -26 -27 -4
-46 -13 -46 -20 0 -13 -30 -25 -67 -25 -13 0 -23 -6 -23 -14 0 -14 -43 -31
-67 -27 -7 1 -17 -7 -22 -18 -6 -11 -25 -23 -43 -26 -18 -4 -41 -16 -51 -26
-10 -10 -30 -22 -45 -25 -15 -4 -38 -15 -51 -26 -13 -10 -34 -18 -48 -18 -13
0 -26 -7 -29 -15 -3 -8 -22 -17 -42 -21 -21 -4 -45 -15 -55 -25 -10 -10 -30
-22 -45 -25 -15 -4 -35 -15 -45 -25 -10 -11 -31 -19 -47 -19 -19 0 -38 -9 -51
-24 -12 -14 -37 -26 -59 -30 -21 -3 -40 -12 -43 -20 -3 -7 -24 -16 -46 -20
-25 -4 -41 -12 -41 -20 0 -17 -22 -26 -60 -26 -19 0 -29 -6 -33 -20 -4 -16
-14 -20 -45 -20 -30 0 -41 -4 -45 -19 -3 -13 -17 -21 -45 -26 -28 -4 -42 -12
-45 -26 -4 -14 -14 -19 -41 -19 -25 0 -38 -6 -46 -19 -6 -12 -26 -22 -49 -26
-27 -4 -41 -12 -44 -26 -4 -14 -14 -19 -42 -19 -28 0 -38 -5 -42 -20 -4 -14
-14 -20 -34 -20 -16 0 -38 -9 -48 -19 -10 -10 -37 -22 -60 -26 -31 -5 -41 -11
-41 -26 0 -16 -7 -19 -41 -19 -33 0 -42 -4 -46 -20 -4 -14 -17 -22 -46 -27
-27 -4 -41 -12 -44 -24 -4 -14 -15 -19 -39 -19 -25 0 -38 -7 -50 -24 -11 -18
-26 -26 -52 -28 -25 -2 -37 -8 -37 -18 0 -10 -12 -16 -37 -18 -26 -2 -41 -10
-52 -28 -12 -17 -25 -24 -50 -24 -25 0 -35 -5 -39 -19 -3 -13 -17 -21 -45 -26
-22 -3 -43 -13 -46 -21 -3 -7 -23 -16 -45 -20 -27 -4 -41 -12 -44 -25 -4 -14
-14 -19 -42 -19 -28 0 -38 -5 -42 -20 -4 -13 -18 -22 -47 -27 -25 -6 -41 -14
-41 -23 0 -10 -16 -18 -47 -23 -29 -6 -48 -15 -50 -24 -2 -10 -17 -17 -38 -19
-19 -3 -39 -10 -45 -17 -16 -22 -52 -37 -70 -31 -11 5 -18 0 -22 -14 -6 -23
-32 -36 -80 -41 -7 0 -13 -8 -13 -15 0 -11 -11 -14 -42 -12 -58 4 -75 -4 -128
-58 -25 -25 -50 -46 -56 -46 -16 0 -64 -24 -64 -32 0 -5 -11 -8 -24 -8 -14 0
-27 -4 -31 -10 -3 -5 -12 -7 -19 -4 -8 3 -16 -4 -19 -15 -4 -16 -13 -21 -41
-21 -30 0 -38 -5 -46 -25 -6 -15 -17 -24 -27 -23 -41 3 -61 -3 -66 -21 -3 -13
-17 -21 -46 -26 -24 -4 -41 -12 -41 -20 0 -9 -17 -16 -44 -20 -32 -5 -46 -12
-49 -26 -4 -14 -14 -19 -42 -19 -28 0 -38 -5 -42 -19 -3 -12 -17 -21 -39 -25
-18 -4 -38 -16 -44 -26 -6 -11 -21 -20 -35 -20 -33 0 -55 -10 -55 -25 0 -7
-18 -15 -44 -19 -32 -5 -45 -12 -49 -26 -4 -15 -14 -20 -42 -20 -28 0 -38 -5
-42 -20 -4 -14 -17 -21 -49 -26 -33 -5 -44 -11 -44 -24 0 -13 -11 -19 -40 -24
-23 -3 -43 -13 -46 -20 -3 -8 -23 -17 -44 -21 -25 -4 -40 -13 -43 -24 -3 -13
-18 -20 -51 -25 -29 -5 -46 -12 -46 -21 0 -8 -15 -17 -36 -21 -19 -4 -38 -13
-41 -20 -3 -8 -23 -19 -45 -24 -21 -6 -48 -20 -59 -31 -10 -10 -30 -19 -42
-19 -13 0 -32 -9 -42 -20 -10 -11 -33 -22 -51 -26 -18 -3 -35 -12 -38 -19 -3
-8 -21 -17 -41 -21 -19 -3 -40 -14 -45 -24 -5 -10 -23 -21 -40 -25 -23 -5 -30
-12 -30 -31 0 -19 -5 -24 -25 -24 -14 0 -25 -4 -25 -10 0 -5 10 -10 23 -10 29
0 45 -11 61 -42 12 -23 10 -26 -50 -66 -34 -23 -68 -42 -74 -42 -7 0 -27 -9
-45 -20 -44 -27 -90 -18 -116 24 -17 27 -19 46 -15 160 3 123 9 145 37 146 10
0 39 -48 39 -65 0 -8 6 -15 13 -15 16 0 47 77 47 120 0 19 4 52 9 73 5 20 5
39 1 42 -4 3 -7 52 -5 110 2 58 -1 108 -6 111 -5 3 -6 10 -2 17 3 6 6 256 5
556 -2 480 -2 687 0 749 1 9 0 42 -1 72 -2 30 -2 224 -1 432 0 316 3 377 15
382 23 8 16 157 -9 185 -10 11 -16 27 -12 36 4 12 7 349 4 560 0 11 0 139 0
285 0 146 0 279 0 295 0 17 1 390 1 830 1 651 4 810 16 855 15 61 13 166 -4
197 -14 26 -7 2886 7 2983 6 45 6 76 -2 100 -9 26 -11 404 -9 1405 1 754 4
1381 7 1395 2 14 1 43 -3 65 -4 22 -3 58 1 80 15 82 21 251 8 274 -8 16 -11
141 -10 459 1 577 1 533 -1 1052 -1 140 -1 265 0 278 0 12 1 32 2 45 0 12 0
110 0 217 0 107 0 200 0 205 0 19 -1 281 -1 355 -2 144 -24 241 -51 224 -39
-24 -61 -155 -38 -223 9 -26 8 -35 -4 -49 -11 -12 -13 -22 -6 -35 7 -12 7 -22
0 -31 -8 -10 -7 -25 4 -56 9 -26 12 -47 6 -54 -5 -6 -9 -63 -10 -126 0 -63 -2
-126 -4 -140 -3 -14 -5 -35 -6 -47 -1 -16 -7 -23 -21 -23 -17 0 -21 6 -21 38
0 20 -2 109 -5 197 -3 102 0 169 7 186 8 20 7 38 -6 75 -14 45 -14 54 -1 93
11 30 13 48 6 61 -6 11 -11 99 -13 197 -2 142 1 184 13 208 23 45 67 52 170
25z m-125 -1271 c-4 -83 -3 -129 4 -134 11 -6 8 -86 -4 -105 -3 -5 -1 -28 6
-49 8 -28 9 -44 1 -53 -6 -8 -8 -57 -6 -133 3 -77 1 -127 -6 -140 -8 -15 -9
-42 -2 -91 8 -57 7 -72 -6 -86 -8 -10 -19 -18 -24 -18 -12 0 -10 128 3 135 7
5 5 13 -6 25 -12 14 -14 23 -7 36 6 11 7 27 1 42 -11 29 -4 141 10 155 7 7 7
15 -1 24 -9 11 -17 161 -16 283 0 14 0 52 -2 85 -3 110 1 169 12 183 10 12 15
11 31 -9 16 -20 17 -36 12 -150z m-13 -883 c15 -38 16 -55 8 -92 -6 -26 -7
-52 -2 -62 10 -18 8 -116 -2 -144 -14 -41 -14 -47 0 -52 17 -6 19 -59 3 -84
-9 -14 -9 -35 0 -83 10 -58 9 -65 -9 -83 -11 -11 -22 -18 -24 -15 -3 3 -6 30
-6 60 -1 50 -1 67 1 117 1 9 1 41 0 71 0 30 4 60 10 68 9 9 8 17 -1 28 -9 11
-11 37 -7 90 3 41 2 77 -3 80 -5 3 -9 39 -9 81 0 88 14 94 41 20z m9 -1593
c16 -44 8 -87 -18 -91 -21 -3 -23 0 -23 51 0 29 3 57 7 60 13 13 24 7 34 -20z
m7 -166 c3 -31 0 -37 -16 -37 -15 0 -21 8 -24 35 -5 40 -1 47 22 43 9 -2 16
-16 18 -41z m-12 -84 c-4 -16 -7 -34 -6 -40 0 -7 1 -23 1 -35 1 -13 6 -35 11
-50 8 -21 6 -39 -8 -78 -12 -32 -21 -46 -26 -37 -10 16 -10 109 1 126 5 8 4
25 -3 42 -7 16 -10 44 -8 64 3 27 9 35 24 35 17 0 19 -4 14 -27z m-7 -321 c-2
-16 3 -40 12 -53 16 -25 17 -99 3 -154 -4 -16 -7 -38 -5 -47 1 -10 -2 -26 -8
-36 -6 -11 -6 -23 -1 -28 12 -13 19 -186 8 -207 -6 -12 -5 -30 2 -53 8 -23 9
-39 2 -46 -5 -5 -7 -29 -5 -52 4 -35 2 -44 -12 -50 -10 -3 -20 -5 -22 -3 -9
10 -4 135 7 158 9 21 9 35 -3 70 -8 24 -12 53 -8 64 8 25 7 81 -3 117 -5 18
-3 38 8 59 9 17 13 36 10 41 -8 13 -15 228 -8 239 12 19 25 7 23 -19z m6 -772
c7 -12 -12 -50 -25 -50 -11 0 -14 43 -3 53 9 10 21 9 28 -3z m0 -1810 c-5 -8
-11 -8 -17 -2 -6 6 -7 16 -3 22 5 8 11 8 17 2 6 -6 7 -16 3 -22z m-4 -147 c1
-43 1 -81 0 -86 -3 -23 -1 -79 5 -125 6 -49 5 -54 -12 -50 -20 4 -20 6 -13
138 1 36 -3 85 -10 109 -9 32 -10 51 -2 68 20 43 31 24 32 -54z m-6 -330 c-10
-56 -14 -68 -25 -57 -14 14 0 94 17 94 11 0 12 -9 8 -37z m15 -125 c0 -38 -13
-63 -27 -55 -5 4 -9 16 -7 29 1 13 3 31 3 41 1 9 8 17 16 17 10 0 15 -10 15
-32z m-5 -108 c8 -12 -3 -50 -15 -50 -10 0 -18 31 -13 48 6 15 19 16 28 2z
m-20 -79 c3 -5 1 -12 -5 -16 -5 -3 -10 1 -10 9 0 18 6 21 15 7z m14 -93 c2
-58 2 -251 1 -283 -1 -19 -2 -18 -21 4 -11 14 -17 31 -14 40 4 9 6 74 6 144
-1 71 1 132 4 138 14 21 22 6 24 -43z m-3 -333 c-3 -9 -11 -13 -16 -10 -8 5
-7 11 1 21 14 18 24 11 15 -11z m7 -71 c4 -21 -16 -84 -27 -84 -5 0 -5 64 0
88 6 30 21 28 27 -4z m-3 -209 c5 -22 -1 -36 -12 -33 -7 3 -13 14 -14 25 -1
11 -4 33 -8 48 -4 17 -2 33 6 42 11 14 14 10 19 -28 4 -24 8 -48 9 -54z m6121
88 c1 -11 -1 -300 -2 -348 0 -22 0 -49 0 -60 5 -83 -2 -136 -19 -145 -10 -6
-21 -7 -24 -2 -10 16 -3 402 7 419 3 5 2 15 -3 23 -4 7 -4 24 1 38 6 16 6 29
-2 38 -9 11 -8 18 1 29 13 16 39 21 41 8z m-6118 -254 c6 -43 -7 -73 -23 -49
-13 21 -12 64 2 78 14 14 14 15 21 -29z m0 -211 c7 -57 -3 -79 -27 -59 -24 20
-13 111 13 111 5 0 11 -23 14 -52z m1 -130 c6 -40 -6 -105 -19 -98 -18 9 -13
130 5 130 4 0 10 -15 14 -32z m6100 0 c11 -18 13 -53 9 -173 -2 -82 -4 -167
-4 -187 0 -32 -3 -38 -20 -38 -19 0 -21 6 -20 103 0 56 0 120 -1 142 -4 81 2
175 12 175 5 0 16 -10 24 -22z m-6099 -194 c0 -19 -5 -29 -15 -29 -16 0 -25
28 -16 51 10 25 31 10 31 -22z m-5 -104 c0 -20 -5 -30 -15 -30 -18 0 -19 14
-5 41 15 27 20 24 20 -11z m6101 -152 c0 -7 3 -33 6 -58 2 -25 4 -54 3 -65 -4
-68 -9 -203 -11 -283 -1 -79 -4 -92 -18 -90 -13 3 -17 25 -21 138 -3 74 -2
146 2 160 5 14 4 48 -1 75 -6 31 -6 54 0 61 5 6 7 19 3 28 -6 16 11 46 27 46
5 0 9 -6 10 -12z m-6 -643 c0 -74 -4 -138 -8 -142 -17 -16 -28 25 -23 84 3 35
1 65 -4 68 -16 10 -11 55 5 61 10 4 13 13 10 25 -7 20 1 39 14 39 4 0 7 -61 6
-135z m-6095 -123 c0 -10 4 -22 9 -27 5 -6 7 -34 4 -63 -5 -42 -9 -52 -22 -50
-12 3 -17 18 -19 67 -2 35 -1 70 2 77 8 20 26 17 26 -4z m6093 -159 c-1 -54
-2 -168 -2 -253 -1 -192 -8 -267 -27 -274 -20 -8 -31 24 -13 35 12 8 12 10 -1
19 -12 8 -13 14 -3 41 9 24 10 36 1 46 -7 9 -8 38 -3 91 8 89 10 152 5 237 -2
33 0 80 4 105 11 68 14 74 29 62 9 -8 12 -39 10 -109z m-6089 -150 c4 -127 -1
-162 -22 -149 -6 4 -9 51 -7 123 3 107 11 170 21 160 2 -2 6 -62 8 -134z m-2
-220 c2 -10 2 -47 1 -83 -2 -36 -4 -78 -4 -95 -1 -16 0 -103 3 -193 2 -89 2
-165 0 -167 -3 -3 -11 4 -19 15 -10 14 -13 57 -12 172 1 84 -1 160 -5 169 -4
10 -3 20 2 23 6 3 8 40 7 83 -2 42 -1 81 1 85 9 14 21 9 26 -9z m6082 -260
c-2 -43 -4 -95 -4 -116 0 -30 -4 -38 -16 -35 -20 4 -31 93 -14 113 7 9 6 16
-6 25 -25 21 3 90 36 90 4 0 5 -35 4 -77z m-11 -219 c-2 -16 -2 -36 -1 -44 1
-8 1 -77 1 -154 -1 -104 -4 -141 -14 -147 -7 -4 -15 -6 -17 -4 -10 10 -8 361
1 373 16 20 32 7 30 -24z m-6078 -187 c1 -37 8 -73 15 -82 15 -18 8 -30 -13
-22 -17 6 -27 51 -27 124 0 38 4 53 12 51 7 -3 12 -29 13 -71z m10 -136 c3 -5
1 -12 -5 -16 -5 -3 -10 1 -10 9 0 18 6 21 15 7z m3 -55 c13 -29 8 -364 -6
-378 -20 -20 -31 82 -31 275 0 97 4 127 18 127 4 0 13 -11 19 -24z m6058 -11
c18 -14 18 -16 2 -28 -13 -11 -15 -16 -5 -26 14 -14 19 -151 5 -168 -7 -9 -7
-22 1 -41 13 -30 14 -58 5 -147 -7 -83 -10 -88 -33 -75 -18 9 -20 21 -20 113
0 56 5 153 9 216 6 74 6 120 -1 133 -10 18 -5 38 10 38 4 0 16 -7 27 -15z
m-6064 -420 c3 -14 1 -28 -4 -31 -5 -4 -7 -15 -5 -26 4 -12 1 -18 -6 -15 -7 2
-12 11 -11 20 0 10 1 33 2 53 2 39 17 39 24 -1z m6066 -176 c3 -19 -27 -34
-40 -21 -13 13 2 43 21 40 9 -2 17 -10 19 -19z m-335 -637 c2 7 8 10 11 6 12
-11 -42 -56 -93 -78 -42 -18 -38 0 9 40 31 26 49 35 57 29 7 -7 13 -5 16 3z
m-123 -62 c0 -5 -5 -10 -11 -10 -5 0 -7 5 -4 10 3 6 8 10 11 10 2 0 4 -4 4
-10z m-63 -45 c-20 -19 -49 -37 -64 -41 -16 -4 -45 -16 -65 -27 -31 -17 -40
-18 -53 -7 -11 9 -13 16 -5 24 14 14 108 48 140 50 13 0 35 12 48 25 13 13 26
20 29 17 4 -4 -10 -22 -30 -41z m-207 -90 c0 -21 -11 -30 -67 -56 -38 -17 -76
-31 -87 -31 -23 1 -68 -27 -61 -39 7 -11 -127 -79 -157 -80 -13 0 -36 -9 -53
-20 -16 -10 -37 -21 -45 -25 -8 -3 -25 -11 -38 -17 -16 -8 -25 -8 -34 1 -9 9
-5 19 17 42 16 16 34 30 41 30 6 0 23 9 37 20 14 11 36 20 49 20 12 0 41 11
63 25 22 13 52 25 66 25 14 0 34 9 44 20 10 11 26 20 35 20 9 0 31 11 50 25
19 14 46 25 61 25 18 0 28 6 32 20 8 31 47 27 47 -5z m-5335 -129 c-5 -43 -12
-65 -19 -63 -15 5 -17 63 -4 110 17 58 31 29 23 -47z m0 -198 c0 -34 -4 -64
-10 -65 -5 -1 -10 14 -10 35 0 20 -4 45 -9 55 -8 17 9 51 23 43 3 -2 6 -33 6
-68z m4755 41 c0 -6 -13 -16 -30 -22 -16 -6 -30 -16 -30 -23 0 -6 -12 -16 -27
-24 -16 -7 -40 -19 -55 -26 -32 -17 -104 -20 -75 -3 9 5 17 17 17 25 0 8 17
22 37 30 33 14 38 14 49 0 17 -23 34 -20 34 7 0 15 9 28 23 35 29 14 57 15 57
1z m-260 -134 c0 -21 -27 -37 -57 -33 -17 2 -28 9 -28 18 0 10 8 14 21 12 12
-2 24 4 27 12 7 18 37 10 37 -9z m-120 -60 c-7 -8 -18 -15 -25 -15 -7 0 -15
-6 -18 -14 -3 -7 -18 -16 -34 -19 -15 -3 -45 -17 -66 -31 -21 -14 -47 -26 -57
-26 -11 0 -24 -9 -29 -19 -12 -22 -65 -43 -86 -35 -17 7 -21 34 -5 34 5 0 17
8 27 18 10 10 39 26 65 36 25 9 52 24 58 32 7 7 17 14 23 14 6 0 18 7 27 15
14 13 23 13 46 5 24 -9 31 -9 39 4 5 9 18 16 29 16 15 0 16 -3 6 -15z m-4377
-192 c-7 -61 -18 -53 -19 13 -1 44 1 53 11 42 7 -8 10 -30 8 -55z m4037 27 c0
-11 -68 -42 -82 -38 -5 2 0 13 12 26 21 22 70 31 70 12z m-120 -48 c0 -14 -23
-32 -41 -32 -10 0 -20 -8 -23 -18 -6 -18 -13 -23 -89 -56 -32 -13 -38 -14 -43
-2 -8 20 64 84 104 92 18 3 35 10 38 15 7 11 54 12 54 1z m-3918 -108 c-1
-135 -3 -164 -12 -164 -7 0 -9 27 -7 70 3 39 1 72 -2 75 -4 2 -5 20 -3 40 6
48 24 31 24 -21z m3658 -34 c-9 -17 -41 -35 -75 -43 -11 -3 -29 -8 -40 -13
-39 -15 4 24 52 48 25 13 48 29 51 36 4 11 6 11 13 1 4 -7 4 -20 -1 -29z
m-206 -102 c-3 -13 -7 -24 -8 -25 -1 -1 -26 -5 -55 -9 -40 -5 -52 -4 -47 5 4
6 13 11 19 11 7 0 20 9 30 20 9 11 28 20 43 20 22 0 24 -3 18 -22z m-154 -78
c0 -6 -8 -14 -17 -17 -10 -4 -21 -11 -25 -17 -5 -8 -11 -7 -20 2 -9 9 -9 12 4
12 9 0 18 7 22 15 6 17 36 21 36 5z m-125 -70 c0 -7 -6 -15 -12 -17 -8 -3 -13
4 -13 17 0 13 5 20 13 18 6 -3 12 -11 12 -18z m-50 -10 c3 -5 -1 -10 -9 -10
-9 0 -16 5 -16 10 0 6 4 10 9 10 6 0 13 -4 16 -10z m-105 -57 c0 -5 -4 -14 -9
-22 -8 -12 -12 -12 -25 -2 -23 19 -20 31 9 31 14 0 25 -3 25 -7z m-123 -70
c-14 -14 -19 -15 -29 -4 -11 10 -9 15 6 27 27 20 47 0 23 -23z m53 27 c0 -5
-5 -10 -11 -10 -5 0 -7 5 -4 10 3 6 8 10 11 10 2 0 4 -4 4 -10z m-146 -67 c11
-26 -11 -40 -32 -20 -15 16 -15 19 -2 27 21 14 27 12 34 -7z m-59 -24 c0 -7
-8 -15 -17 -17 -18 -3 -25 18 -11 32 10 10 28 1 28 -15z m-2745 -46 c0 -20 -3
-24 -11 -16 -7 7 -9 19 -6 27 10 24 17 19 17 -11z m2609 -10 c-52 -64 -94 -81
-94 -38 0 15 8 21 33 23 18 2 36 10 39 18 3 8 12 14 20 14 13 0 13 -2 2 -17z
m-140 -89 c7 -7 -2 -11 -36 -17 -32 -6 -45 8 -26 27 7 7 53 -1 62 -10z m-2469
-9 c0 -8 -4 -15 -10 -15 -5 0 -10 7 -10 15 0 8 5 15 10 15 6 0 10 -7 10 -15z
m0 -135 c0 -5 -4 -10 -10 -10 -5 0 -10 5 -10 10 0 6 5 10 10 10 6 0 10 -4 10
-10z m1925 -130 c0 -8 -25 -21 -62 -32 -35 -10 -63 -23 -63 -28 0 -6 -7 -10
-17 -10 -29 0 12 35 60 51 23 7 46 19 50 27 10 16 32 11 32 -8z m-1925 0 c0
-5 -4 -10 -10 -10 -5 0 -10 5 -10 10 0 6 5 10 10 10 6 0 10 -4 10 -10z m1730
-90 c0 -5 -7 -10 -15 -10 -8 0 -15 5 -15 10 0 6 7 10 15 10 8 0 15 -4 15 -10z
m-1738 -32 c-7 -7 -12 -8 -12 -2 0 14 12 26 19 19 2 -3 -1 -11 -7 -17z m1703
2 c3 -5 -1 -10 -9 -10 -8 0 -18 5 -21 10 -3 6 1 10 9 10 8 0 18 -4 21 -10z
m-75 -24 c0 -16 -57 -39 -65 -26 -3 4 -2 15 1 24 8 20 64 22 64 2z m-150 -81
c-27 -14 -36 -13 -25 4 3 6 16 11 28 11 21 -1 21 -1 -3 -15z m-205 -96 c9 -14
-24 -49 -45 -49 -10 0 -23 -7 -30 -15 -12 -15 -70 -22 -70 -8 0 13 34 43 49
43 9 0 27 9 41 20 28 22 46 25 55 9z m-1257 -67 c3 -17 -2 -22 -17 -22 -14 0
-21 6 -21 18 0 38 33 41 38 4z m1092 -12 c0 -5 -4 -10 -10 -10 -5 0 -10 5 -10
10 0 6 5 10 10 10 6 0 10 -4 10 -10z m-40 -35 c0 -8 -7 -15 -15 -15 -16 0 -20
12 -8 23 11 12 23 8 23 -8z m-50 -19 c0 -15 -42 -46 -63 -46 -8 0 -22 -9 -32
-20 -23 -25 -45 -26 -45 -1 0 13 17 27 54 44 30 14 57 31 61 37 8 13 25 3 25
-14z m-248 -143 c-7 -3 -18 -11 -25 -18 -16 -15 -72 -45 -87 -45 -33 0 32 71
73 80 32 7 65 -8 39 -17z m-134 -64 c4 -19 -19 -31 -38 -19 -18 11 -4 42 17
38 10 -2 19 -10 21 -19z m-79 -45 c-22 -22 -31 -24 -63 -19 -49 10 -41 29 14
33 25 2 46 5 49 8 2 2 9 4 15 4 6 0 -1 -12 -15 -26z"/>
<path d="M17087 22413 c-8 -14 11 -51 34 -64 13 -6 28 -16 33 -20 27 -22 86
-58 107 -64 13 -4 36 -16 51 -27 15 -10 37 -21 48 -23 11 -2 27 -11 35 -19 8
-8 31 -20 50 -26 19 -6 35 -16 35 -21 0 -5 9 -9 20 -9 11 0 20 -4 20 -10 0 -5
7 -10 16 -10 9 0 27 -9 41 -20 14 -11 32 -20 40 -20 8 0 29 -11 45 -26 17 -14
44 -28 59 -31 16 -3 29 -9 29 -14 0 -5 7 -9 14 -9 8 0 41 -16 73 -35 32 -19
63 -35 69 -35 5 0 25 -11 44 -25 19 -14 41 -25 50 -25 8 0 23 -9 33 -20 9 -11
27 -20 40 -20 13 0 32 -9 42 -20 10 -11 24 -20 30 -20 7 0 29 -11 49 -25 20
-14 45 -25 55 -25 9 0 35 -13 57 -30 21 -16 46 -30 55 -30 9 0 24 -9 34 -20
10 -11 27 -20 38 -20 10 0 32 -11 49 -25 16 -14 38 -25 48 -25 10 0 25 -6 32
-13 7 -7 29 -19 48 -27 19 -7 48 -24 63 -37 16 -13 39 -23 51 -23 13 0 31 -9
41 -20 10 -11 26 -20 36 -20 10 0 26 -8 36 -19 10 -10 35 -24 55 -30 21 -7 40
-16 43 -21 7 -11 144 -80 160 -80 7 0 15 -6 18 -13 2 -6 22 -18 43 -26 22 -8
50 -22 63 -32 13 -11 31 -19 41 -19 9 0 25 -9 35 -20 10 -11 28 -20 40 -20 12
0 30 -9 40 -20 9 -10 34 -25 54 -31 20 -7 39 -18 44 -25 4 -7 22 -16 39 -20
18 -3 47 -17 64 -30 17 -13 40 -24 50 -24 11 0 25 -9 32 -20 7 -12 23 -20 41
-20 15 0 36 -9 45 -19 10 -11 32 -25 49 -32 18 -7 35 -18 40 -25 4 -7 21 -16
38 -19 17 -4 47 -18 66 -31 20 -13 44 -24 54 -24 10 0 21 -5 25 -11 3 -6 25
-19 48 -30 22 -11 52 -26 66 -34 14 -8 32 -17 40 -20 8 -4 38 -19 65 -36 28
-16 66 -36 85 -44 19 -9 42 -20 50 -25 15 -10 40 -22 70 -34 8 -4 38 -20 65
-36 28 -16 64 -36 80 -43 52 -24 59 -28 110 -57 28 -16 61 -35 75 -41 14 -6
32 -15 40 -20 8 -5 31 -15 50 -24 19 -8 42 -19 50 -25 8 -6 32 -18 53 -27 20
-9 37 -20 37 -24 0 -4 17 -13 38 -19 20 -7 44 -18 52 -24 8 -6 51 -29 95 -51
44 -22 86 -45 92 -52 7 -6 27 -14 44 -18 17 -4 33 -13 36 -21 3 -8 13 -14 23
-14 9 0 32 -10 51 -22 19 -13 48 -29 64 -37 17 -7 46 -22 66 -32 20 -11 44
-19 53 -19 9 0 16 -4 16 -10 0 -5 20 -18 44 -28 24 -11 47 -25 50 -31 4 -6 16
-11 26 -11 10 0 32 -11 48 -25 17 -14 34 -25 40 -25 6 0 40 -16 76 -35 37 -19
75 -39 86 -45 11 -5 30 -15 43 -22 12 -6 40 -20 62 -30 22 -10 47 -23 55 -28
8 -4 70 -37 138 -71 68 -35 128 -69 134 -76 6 -7 20 -13 32 -13 11 0 32 -9 46
-20 14 -11 30 -20 36 -20 6 0 22 -9 35 -21 13 -11 37 -23 52 -26 16 -3 31 -12
34 -19 3 -8 10 -14 15 -14 6 0 40 -14 77 -31 177 -82 206 -93 226 -85 32 12
15 44 -46 86 -33 22 -70 45 -82 50 -12 4 -37 20 -56 34 -19 14 -39 26 -45 26
-18 0 -166 71 -166 80 0 7 -78 46 -170 87 -99 44 -169 80 -230 118 -30 19 -64
35 -76 35 -12 0 -28 7 -35 16 -7 9 -22 20 -34 25 -11 5 -27 13 -35 19 -8 5
-26 14 -40 20 -14 5 -33 14 -42 20 -41 23 -56 31 -104 55 -29 14 -62 34 -75
43 -13 10 -55 31 -94 47 -38 16 -92 44 -118 62 -26 19 -52 31 -58 28 -5 -4
-21 2 -37 13 -23 16 -99 56 -230 121 -30 14 -58 46 -54 61 1 3 -10 4 -23 2
-14 -2 -62 14 -110 37 -46 23 -89 41 -94 41 -5 0 -11 7 -15 15 -3 8 -11 15
-19 15 -15 0 -54 19 -147 73 -36 21 -74 43 -85 49 -11 6 -27 15 -35 20 -8 4
-24 12 -35 17 -11 5 -47 25 -80 45 -33 20 -72 36 -87 36 -15 0 -29 4 -32 9 -3
5 -23 18 -43 29 -112 58 -160 86 -178 102 -11 10 -45 26 -75 36 -76 24 -72 22
-105 44 -16 10 -54 31 -83 46 -29 14 -56 32 -58 39 -3 7 -31 21 -62 30 -31 10
-64 23 -72 30 -8 7 -37 25 -65 39 -27 14 -57 30 -65 35 -36 21 -223 111 -231
111 -5 0 -29 16 -55 35 -25 19 -50 35 -56 35 -5 0 -31 11 -57 24 -26 12 -63
28 -83 35 -20 7 -53 25 -73 41 -20 16 -49 31 -64 35 -16 3 -39 17 -51 31 -13
13 -31 24 -41 24 -9 0 -22 6 -28 14 -7 8 -24 17 -39 21 -15 4 -34 12 -42 20
-8 7 -33 18 -55 25 -22 7 -47 19 -55 26 -15 13 -36 24 -180 101 -36 19 -69 39
-75 44 -5 5 -16 9 -25 9 -9 0 -25 9 -34 19 -10 11 -41 27 -69 36 -29 9 -58 22
-66 28 -15 13 -117 66 -281 146 -58 28 -112 56 -120 61 -8 5 -40 23 -70 40
-30 17 -62 34 -70 38 -60 34 -88 48 -185 97 -60 31 -155 81 -210 111 -79 44
-107 55 -131 51 -18 -3 -36 -1 -42 5 -5 5 -12 6 -15 1z"/>
<path d="M16860 21890 c0 -5 5 -10 11 -10 5 0 7 5 4 10 -3 6 -8 10 -11 10 -2
0 -4 -4 -4 -10z"/>
<path d="M18910 21579 c0 -5 5 -7 10 -4 6 3 10 8 10 11 0 2 -4 4 -10 4 -5 0
-10 -5 -10 -11z"/>
<path d="M17864 20083 c-20 -2 -34 -11 -37 -22 -2 -10 -18 -21 -36 -24 -23 -5
-35 -16 -49 -44 -9 -21 -22 -41 -29 -46 -6 -4 -15 -28 -19 -52 -3 -25 -11 -49
-18 -53 -15 -9 -16 -26 -22 -237 -4 -119 -2 -195 6 -225 6 -25 15 -63 20 -86
23 -107 88 -198 151 -211 16 -3 34 -12 40 -19 8 -10 34 -14 83 -14 59 0 75 3
89 20 9 11 25 20 35 20 11 0 32 11 48 25 16 14 32 25 35 25 17 0 78 144 94
220 27 127 25 367 -4 475 -31 116 -76 205 -103 205 -12 0 -31 9 -42 19 -17 16
-40 21 -116 24 -52 3 -109 3 -126 0z m194 -159 c15 -9 40 -37 55 -62 28 -45
29 -51 33 -212 5 -190 -9 -350 -31 -363 -8 -4 -15 -14 -15 -22 0 -8 -13 -21
-29 -30 -16 -8 -31 -20 -33 -27 -5 -15 -141 -14 -146 1 -2 7 -17 18 -33 26
-16 9 -29 22 -29 31 0 8 -6 17 -14 20 -15 6 -26 50 -31 119 -8 107 -6 299 4
377 10 75 15 91 41 117 39 38 42 39 128 40 51 1 82 -4 100 -15z"/>
<path d="M17993 16823 c-7 -2 -13 -14 -13 -26 0 -12 -9 -33 -20 -47 -11 -14
-20 -33 -20 -42 0 -10 -5 -18 -10 -18 -6 0 -20 -11 -32 -25 -13 -15 -32 -25
-49 -25 -17 0 -32 -7 -38 -19 -6 -10 -24 -21 -41 -24 -20 -5 -34 -15 -40 -32
-13 -35 -13 -102 1 -110 14 -9 118 46 124 66 3 9 13 19 23 23 9 3 24 11 33 18
14 9 22 8 44 -6 21 -14 25 -23 21 -44 -13 -62 -18 -150 -21 -373 -1 -131 -6
-242 -10 -248 -11 -19 5 -71 27 -82 27 -15 85 -3 98 20 11 21 17 971 6 989 -7
12 -59 15 -83 5z"/>
<path d="M17837 13570 c-8 -12 -31 -23 -52 -27 -26 -4 -49 -19 -81 -52 -24
-25 -44 -52 -44 -59 0 -7 -8 -29 -19 -50 -28 -56 -13 -82 49 -82 44 0 53 7 70
50 7 19 27 47 44 62 29 25 38 27 119 28 117 0 167 -27 187 -101 23 -83 -31
-195 -132 -278 -29 -23 -52 -44 -144 -131 -12 -11 -25 -20 -29 -20 -4 0 -18
-10 -30 -22 -12 -13 -34 -34 -49 -47 -14 -13 -26 -31 -26 -41 0 -10 -9 -22
-20 -25 -11 -3 -20 -15 -20 -25 0 -10 -10 -31 -23 -47 -21 -25 -24 -42 -18
-100 1 -10 67 -13 295 -13 l295 0 19 28 c26 37 35 78 21 103 -10 20 -17 21
-227 17 l-217 -3 -3 30 c-3 26 4 35 43 63 25 17 49 32 54 32 4 0 16 9 26 20
10 11 23 20 30 20 19 0 245 242 245 265 1 5 9 28 20 50 29 59 26 143 -6 213
-29 64 -85 122 -117 122 -13 0 -30 9 -40 20 -15 17 -29 20 -111 20 -84 0 -96
-2 -109 -20z"/>
<path d="M17867 10399 c-62 -6 -84 -13 -102 -31 -13 -13 -37 -36 -54 -51 -17
-16 -31 -35 -31 -43 0 -8 -6 -14 -14 -14 -20 0 -37 -76 -24 -106 12 -26 39
-38 66 -30 9 3 35 31 57 62 22 30 48 60 57 65 19 10 140 12 187 3 35 -7 71
-56 71 -95 -1 -13 -12 -37 -25 -53 -22 -28 -28 -30 -89 -28 -53 2 -70 -2 -85
-17 -20 -20 -38 -102 -27 -120 4 -6 30 -10 59 -9 99 3 173 -34 199 -102 27
-71 0 -174 -58 -219 -23 -18 -40 -21 -126 -21 -95 0 -100 1 -125 28 -14 15
-32 44 -41 65 -19 43 -37 51 -94 42 l-41 -7 6 -60 c3 -33 12 -67 21 -76 8 -9
30 -32 47 -51 52 -56 113 -82 204 -88 75 -4 83 -3 140 27 33 18 70 43 83 56
13 13 26 24 31 24 4 0 23 29 40 64 56 109 52 249 -8 312 -39 40 -81 74 -92 74
-21 0 -6 32 41 81 47 51 50 57 50 110 0 78 -11 97 -112 183 -13 11 -129 42
-132 35 -1 -1 -36 -5 -79 -10z"/>
<path d="M22795 10101 c-3 -5 -1 -12 5 -16 5 -3 10 1 10 9 0 18 -6 21 -15 7z"/>
<path d="M9354 22144 c-162 -85 -223 -226 -288 -674 -36 -243 -46 -386 -52
-750 -5 -309 -6 -316 -30 -361 -33 -64 -32 -103 5 -130 22 -16 31 -33 36 -68
8 -54 29 -81 61 -81 39 0 57 64 34 124 -11 31 2 41 75 51 49 8 93 25 214 84
36 17 69 31 74 31 6 0 62 25 124 55 63 30 117 55 120 55 12 0 271 150 283 165
7 8 17 15 22 15 17 0 134 98 183 152 62 70 75 97 82 178 7 86 -3 105 -83 147
-111 58 -259 96 -638 163 -180 32 -222 42 -242 61 -13 12 -24 29 -24 37 0 21
106 219 141 263 16 20 29 40 29 44 0 3 11 21 25 39 42 55 103 183 115 241 14
67 3 109 -41 154 -27 29 -34 31 -103 31 -59 0 -82 -5 -122 -26z m154 -50 c18
-12 22 -25 22 -63 0 -57 -37 -135 -134 -286 -161 -247 -204 -361 -161 -422 38
-55 96 -73 400 -123 420 -69 556 -115 563 -189 8 -80 -140 -223 -368 -354 -62
-36 -590 -297 -601 -297 -4 0 -13 -9 -19 -20 -6 -11 -19 -20 -28 -20 -10 0
-23 -5 -29 -11 -8 -8 -17 -8 -32 1 -18 9 -22 19 -19 53 3 35 9 45 43 68 49 34
54 64 10 63 -16 0 -37 -4 -46 -8 -15 -7 -16 12 -13 206 3 194 17 546 29 723 3
39 6 82 6 98 1 15 6 27 10 27 5 0 9 9 9 19 0 32 67 282 87 326 36 78 120 187
163 210 34 19 81 18 108 -1z"/>
<path d="M4145 22090 c-289 -43 -522 -246 -630 -550 -83 -230 -121 -453 -170
-978 -15 -158 -15 -176 0 -198 8 -13 24 -24 35 -24 22 0 50 25 50 46 0 10 7 7
23 -10 82 -91 213 -86 446 16 64 28 121 55 127 60 7 5 47 27 89 49 43 22 94
53 114 69 19 17 41 30 49 30 16 0 137 76 171 108 14 14 43 36 64 50 21 14 55
41 77 61 21 20 53 49 72 65 155 133 229 231 236 312 4 49 3 53 -29 77 -19 14
-61 31 -94 38 -87 20 -346 17 -465 -5 -168 -31 -163 -30 -158 -15 2 8 13 19
24 24 28 15 144 113 177 149 15 17 35 40 46 51 43 47 120 201 131 264 26 148
-39 258 -174 295 -68 19 -150 25 -211 16z m204 -97 c73 -37 94 -74 88 -158 -5
-70 -45 -159 -109 -244 -87 -116 -284 -286 -433 -376 -145 -87 -160 -99 -160
-124 0 -48 26 -48 126 2 52 25 106 49 121 52 15 4 32 13 39 21 6 8 15 12 19 9
4 -3 21 2 36 10 16 8 36 15 45 15 8 0 19 4 25 9 5 5 56 15 113 21 57 6 118 13
135 15 17 2 92 7 167 11 141 7 235 -5 245 -31 3 -7 -8 -39 -24 -71 -81 -159
-431 -422 -832 -625 -153 -77 -211 -99 -285 -111 -139 -22 -180 6 -180 122 0
62 -1 65 -23 63 -25 -3 -25 -13 -1 197 58 521 115 750 227 914 105 155 242
251 420 296 98 25 167 20 241 -17z"/>
<path d="M7878 21963 c-22 -5 -25 -19 -33 -123 -4 -47 -13 -134 -21 -195 -9
-60 -17 -177 -20 -259 l-5 -150 -89 -36 c-105 -44 -171 -85 -260 -161 -130
-112 -190 -184 -190 -229 0 -63 72 -63 114 0 73 110 271 279 398 338 59 27 86
37 213 76 28 8 77 25 110 37 101 35 226 67 297 74 98 11 131 44 58 59 -62 12
-303 -35 -451 -89 -90 -32 -111 -33 -105 -2 3 12 8 65 11 117 8 136 34 367 46
418 15 68 -11 138 -49 131 -4 -1 -15 -3 -24 -6z"/>
<path d="M7832 21158 l-23 -12 8 -170 c12 -262 9 -402 -10 -468 -19 -62 -15
-88 13 -88 40 0 67 53 80 155 12 102 13 308 2 485 -6 95 -9 105 -27 107 -11 1
-30 -3 -43 -9z"/>
<path d="M10715 20634 c-11 -2 -61 -14 -112 -25 -79 -17 -147 -44 -203 -78 -8
-6 -43 -27 -78 -47 -67 -40 -102 -79 -102 -113 0 -33 23 -26 110 34 156 106
230 133 391 139 145 6 336 -40 419 -101 86 -64 97 -105 54 -192 -60 -120 -335
-277 -569 -326 -192 -39 -308 57 -248 207 29 73 86 161 137 212 82 83 98 156
33 156 -27 0 -40 -10 -82 -60 -78 -96 -152 -210 -176 -272 -30 -81 -24 -176
15 -235 42 -63 148 -115 236 -115 136 -1 335 72 549 200 69 42 182 152 202
198 25 56 28 174 4 210 -58 88 -181 160 -325 189 -89 17 -221 27 -255 19z"/>
<path d="M5602 20498 c-7 -7 -12 -26 -12 -42 0 -17 -16 -69 -36 -116 -38 -90
-65 -170 -90 -260 -45 -161 -85 -331 -90 -387 l-7 -63 -51 7 c-38 6 -2623 7
-2731 1 -11 0 -78 0 -150 0 -771 4 -757 5 -778 -20 -17 -20 -18 -21 -32 -2
-13 18 -14 18 -20 2 -4 -10 -11 -16 -16 -13 -10 7 -32 -32 -24 -45 7 -11 -14
-51 -32 -63 -30 -19 -14 -62 42 -117 l56 -55 1862 -1 c1024 0 1999 -4 2167 -7
168 -4 539 -9 825 -12 286 -3 563 -7 615 -10 52 -3 307 -7 565 -10 259 -3 565
-7 680 -10 116 -3 444 -7 730 -10 286 -3 635 -8 775 -10 140 -3 575 -7 965
-10 391 -3 888 -7 1105 -10 217 -3 582 -7 810 -10 228 -3 609 -8 845 -10 237
-3 531 -8 655 -10 605 -12 2310 -19 2380 -10 91 13 93 13 85 43 -4 15 -8 28
-9 30 -17 17 -245 23 -1016 27 -1196 7 -2718 23 -3160 33 -14 1 -99 1 -190 1
-162 -1 -918 5 -2120 17 -929 9 -926 9 -1415 17 -253 5 -638 10 -855 12 -217
2 -418 6 -447 10 -34 4 -58 2 -71 -6 -16 -10 -24 -10 -35 -1 -10 9 -63 12
-178 11 -90 -1 -177 -1 -194 -1 -454 8 -599 12 -613 16 -9 3 -58 2 -109 -2
-60 -5 -110 -4 -142 4 -28 6 -52 9 -54 8 -5 -6 -670 -1 -1172 7 -11 0 -123 0
-250 1 -126 0 -239 0 -250 1 -37 0 -560 -3 -577 -4 -18 -1 -50 -1 -268 -1 -58
-1 -121 -1 -140 -1 -19 0 -48 0 -65 1 -124 4 -682 -5 -692 -11 -6 -4 -30 -1
-51 6 -24 9 -46 11 -55 5 -9 -4 -67 -8 -129 -7 -231 2 -353 2 -433 -1 -14 -1
-44 -1 -67 0 -24 0 -62 -2 -85 -6 -23 -4 -50 -3 -60 1 -10 5 -26 7 -35 6 -9
-1 -35 7 -57 19 -36 18 -41 25 -41 55 0 25 7 38 27 53 44 30 66 32 358 33 39
0 95 2 125 5 67 6 68 6 153 -4 38 -4 70 -5 72 -2 2 3 200 5 440 4 358 -1 438
2 442 13 7 17 23 17 23 -1 0 -12 54 -14 343 -12 188 1 354 -2 370 -7 16 -6 32
-5 40 0 6 5 93 8 192 7 590 -8 995 -6 1009 5 14 12 135 9 168 -4 9 -4 24 -3
33 3 10 5 38 5 68 0 70 -11 196 -16 547 -24 309 -7 375 -8 950 -18 195 -3 474
-9 620 -12 502 -10 961 -17 2065 -29 1097 -13 2741 -28 2763 -26 29 3 63 3
387 -3 318 -5 622 -9 1770 -21 253 -3 804 -5 1224 -6 l763 0 54 22 c30 13 53
28 51 33 -5 15 -107 25 -257 25 -69 1 -132 0 -140 -1 -8 0 -75 0 -149 0 -114
2 -132 4 -127 17 3 9 0 15 -10 15 -10 0 -14 -6 -10 -15 4 -13 -8 -15 -79 -15
-54 0 -85 4 -85 11 0 6 -8 8 -19 4 -11 -3 -22 -1 -26 5 -9 15 -41 12 -59 -5
-8 -8 -31 -15 -50 -15 -25 0 -36 4 -36 15 0 12 -13 15 -55 15 -44 0 -53 -3
-49 -15 5 -12 -1 -15 -27 -14 -19 1 -26 3 -16 6 26 7 21 23 -8 23 -16 0 -25
-6 -25 -15 0 -19 -19 -19 -34 -1 -9 12 -120 15 -671 20 -363 3 -883 8 -1155
11 -1044 10 -1658 15 -2580 20 -1215 6 -2178 14 -2535 20 -154 3 -500 7 -770
10 -269 3 -614 8 -765 10 -214 4 -1429 16 -1512 15 -14 0 -18 8 -18 38 1 50
18 123 34 142 7 8 19 44 26 80 18 86 68 220 138 370 34 73 49 170 33 213 -8
21 -17 27 -39 27 -15 0 -33 -5 -40 -12z"/>
<path d="M16755 19551 c-6 -11 9 -23 19 -14 9 9 7 23 -3 23 -6 0 -12 -4 -16
-9z"/>
<path d="M15710 19540 c0 -5 5 -10 10 -10 6 0 10 5 10 10 0 6 -4 10 -10 10 -5
0 -10 -4 -10 -10z"/>
<path d="M15930 19540 c0 -5 4 -10 9 -10 6 0 13 5 16 10 3 6 -1 10 -9 10 -9 0
-16 -4 -16 -10z"/>
<path d="M16080 19540 c0 -5 5 -10 10 -10 6 0 10 5 10 10 0 6 -4 10 -10 10 -5
0 -10 -4 -10 -10z"/>
<path d="M16460 19540 c0 -13 11 -13 30 0 12 8 11 10 -7 10 -13 0 -23 -4 -23
-10z"/>
<path d="M4775 18655 c-228 -64 -348 -165 -426 -355 -66 -162 -84 -395 -42
-541 33 -113 86 -222 133 -273 50 -54 131 -86 178 -70 25 9 28 15 34 79 5 54
4 75 -8 93 -24 37 -50 28 -70 -25 -22 -60 -19 -57 -43 -44 -31 17 -76 88 -104
166 -99 277 -32 662 138 781 94 67 219 119 325 135 136 21 287 -13 397 -88 93
-63 128 -141 99 -217 -17 -45 -132 -165 -159 -167 -7 0 -118 -1 -247 -3 -213
-2 -241 -4 -295 -24 -72 -26 -118 -71 -113 -110 3 -23 8 -27 33 -26 17 0 35
-6 41 -15 16 -21 112 -26 234 -11 127 14 290 60 290 81 0 14 -128 10 -205 -6
-110 -23 -196 -28 -230 -15 -27 11 -28 13 -10 20 104 39 431 37 604 -5 296
-72 378 -190 276 -398 -109 -222 -423 -427 -654 -427 -74 0 -115 19 -129 59
-23 64 -77 59 -77 -8 0 -50 27 -88 86 -121 64 -36 200 -34 314 4 171 58 257
110 391 239 124 118 173 193 199 304 26 107 17 173 -33 243 -54 75 -134 123
-268 161 -43 12 -80 23 -82 24 -1 1 26 31 61 67 79 80 95 126 77 214 -27 128
-124 216 -303 275 -45 15 -97 22 -192 25 -116 3 -140 1 -220 -21z"/>
<path d="M6122 17778 c-18 -18 -14 -36 13 -54 13 -9 44 -56 69 -108 67 -136
79 -214 82 -535 3 -272 7 -297 42 -275 28 18 41 96 48 298 5 150 3 216 -10
306 -15 107 -39 201 -56 225 -4 6 -13 26 -19 46 -6 19 -27 52 -45 72 -28 31
-41 37 -73 37 -21 0 -44 -5 -51 -12z"/>
<path d="M29972 17088 c-12 -16 -34 -696 -24 -755 8 -44 112 -28 112 17 0 6 7
10 15 10 7 0 18 6 22 13 17 29 53 27 81 -4 14 -16 27 -37 28 -46 2 -9 11 -28
22 -42 10 -14 22 -34 25 -45 6 -15 15 -18 50 -14 60 7 101 47 100 95 -1 21 -8
42 -17 49 -9 6 -16 18 -16 27 0 9 -4 19 -10 22 -5 3 -10 22 -10 41 l0 34 65 0
c61 0 66 2 75 26 17 45 11 68 -33 115 -67 73 -119 132 -157 179 -57 71 -142
150 -162 150 -11 0 -32 21 -53 53 -19 28 -41 60 -48 70 -16 20 -50 22 -65 5z
m118 -139 c0 -5 8 -17 18 -27 9 -10 29 -36 44 -57 35 -50 213 -235 227 -235 6
0 11 -7 11 -15 0 -8 9 -19 21 -25 36 -20 15 -35 -55 -41 -36 -3 -72 -11 -78
-17 -17 -17 -12 -64 9 -81 21 -18 46 -62 42 -77 -1 -5 1 -17 5 -26 4 -9 6 -27
4 -40 -2 -18 -10 -24 -35 -26 -27 -3 -32 0 -38 26 -3 16 -17 39 -30 51 -15 12
-25 32 -25 48 0 14 -5 42 -12 60 -9 25 -18 33 -36 33 -15 0 -26 -7 -29 -20 -3
-11 -14 -20 -24 -20 -12 0 -19 -7 -19 -20 0 -14 -9 -21 -35 -26 -20 -3 -38 -4
-41 -2 -13 14 4 540 18 549 13 8 58 -1 58 -12z"/>
<path d="M1712 16400 c-18 -21 -41 -41 -51 -45 -35 -11 -48 -78 -20 -104 9 -9
23 -32 31 -51 9 -20 28 -42 44 -50 16 -8 39 -22 52 -32 22 -16 97 -17 1105
-17 595 -1 1359 -3 1697 -6 1489 -12 2160 -19 2745 -30 675 -13 1391 -22 2170
-30 292 -3 694 -7 895 -10 723 -9 2657 -22 4796 -31 1116 -5 1506 -4 1522 5
17 9 23 8 31 -6 9 -16 12 -16 21 -3 12 19 13 30 0 30 -5 0 -19 11 -32 24 -50
52 127 49 -3138 61 -2291 8 -4785 23 -5110 30 -107 3 -395 7 -640 11 -245 3
-528 8 -630 10 -102 2 -385 6 -630 9 -245 3 -535 8 -645 11 -110 4 -207 6
-215 6 -82 -4 -651 -2 -900 4 -173 3 -322 6 -330 6 -8 0 -55 -2 -103 -4 -49
-2 -90 -1 -92 2 -3 5 -657 4 -700 -1 -12 -1 -350 -1 -380 0 -148 7 -385 6
-403 0 -16 -6 -39 -4 -69 6 -35 12 -49 13 -59 4 -9 -8 -50 -11 -117 -9 -130 3
-139 3 -217 -1 -36 -1 -110 -2 -165 -1 -55 1 -142 2 -193 3 -84 1 -159 16
-199 42 -21 13 -15 62 11 90 l24 25 568 2 c313 1 587 2 609 2 30 0 1155 -12
1295 -14 14 -1 99 0 190 0 256 2 560 -2 560 -8 0 -3 161 -6 358 -7 196 -1 519
-4 717 -7 783 -12 1008 -16 1205 -21 113 -3 309 -8 435 -10 127 -2 347 -7 490
-9 365 -7 1318 -15 2575 -21 591 -3 1431 -8 1865 -10 435 -3 1292 -8 1905 -11
613 -3 1311 -7 1550 -9 274 -2 450 0 475 6 22 6 52 13 68 16 15 3 27 9 27 13
0 5 10 10 22 12 13 2 24 10 26 19 2 14 -36 16 -360 17 -200 1 -633 4 -963 7
-330 3 -751 5 -935 5 -184 1 -352 5 -373 9 -20 5 -39 5 -42 1 -7 -12 -390 -12
-440 0 -21 5 -44 5 -50 1 -16 -13 -199 -5 -203 8 -3 9 -7 9 -18 0 -11 -9 -18
-9 -29 1 -12 10 -21 10 -43 1 -22 -9 -35 -9 -55 0 -21 9 -30 9 -42 -1 -12 -10
-19 -10 -27 -2 -17 17 -68 15 -75 -3 -5 -14 -8 -14 -30 0 -19 13 -27 14 -39 4
-11 -9 -25 -9 -61 0 -26 7 -94 12 -152 11 -277 -3 -4250 19 -4516 25 -110 3
-432 7 -715 10 -283 3 -587 8 -675 10 -88 2 -497 7 -910 10 -412 3 -988 8
-1280 11 -291 2 -726 4 -965 4 -239 -1 -469 -1 -510 -1 -145 0 -440 0 -865 0
-452 -1 -614 3 -631 14 -6 3 -25 -11 -42 -33z"/>
<path d="M29110 15216 c-18 -8 -20 -19 -21 -95 -2 -186 -17 -655 -25 -774 -5
-85 -4 -100 11 -117 25 -28 65 -25 95 6 23 25 24 31 22 143 -1 64 -5 152 -8
196 -8 108 -12 105 197 93 90 -5 177 -6 193 -3 38 7 72 45 80 90 6 32 4 40
-20 62 -26 24 -32 25 -88 18 -34 -5 -83 -10 -111 -12 -27 -2 -86 -6 -131 -9
-108 -8 -112 -3 -108 141 1 58 6 109 9 115 4 7 81 8 229 4 122 -4 233 -4 247
-1 44 12 81 122 47 143 -17 10 -594 11 -618 0z"/>
<path d="M4598 15149 c-31 -4 -91 -20 -133 -34 -294 -98 -453 -285 -511 -601
-16 -86 -19 -150 -18 -489 1 -409 6 -465 44 -485 17 -9 25 -6 46 17 22 24 25
35 22 85 -2 32 1 58 5 58 4 0 19 -7 32 -16 17 -11 59 -17 143 -21 97 -5 137
-2 223 16 373 76 680 245 811 445 32 50 38 68 38 112 0 46 -3 55 -34 81 -30
27 -139 73 -208 88 -16 3 -28 9 -28 14 0 9 61 41 79 41 25 0 173 86 221 128
62 54 92 99 115 174 25 77 15 119 -39 171 -24 23 -56 49 -72 57 -16 8 -53 30
-84 48 -64 38 -244 96 -347 111 -82 13 -221 12 -305 0z m102 -59 c0 -6 7 -6
19 1 13 9 26 9 48 2 16 -6 41 -9 55 -6 28 5 187 -32 230 -53 15 -8 35 -14 45
-14 18 0 120 -49 197 -94 40 -24 76 -75 76 -109 0 -105 -195 -249 -460 -340
-70 -24 -87 -26 -260 -26 -312 0 -420 -25 -420 -95 0 -27 49 -65 93 -73 18 -2
73 0 122 6 50 6 128 15 175 21 47 5 109 17 139 26 94 29 286 0 401 -62 19 -10
38 -17 43 -16 16 4 6 -57 -15 -84 -72 -97 -163 -167 -313 -242 -152 -76 -289
-120 -545 -174 -64 -14 -202 -13 -228 1 -16 8 -28 9 -41 1 -17 -8 -20 -6 -25
18 -6 34 -20 469 -17 577 1 78 35 270 50 290 5 5 11 23 15 39 13 53 115 180
190 235 89 66 206 117 323 141 29 6 52 14 52 18 -3 17 3 22 26 22 14 0 25 -5
25 -10z m391 -730 c70 -29 103 -49 96 -57 -2 -2 -24 8 -48 21 -24 13 -82 33
-129 44 -129 31 -130 32 -58 26 41 -3 93 -16 139 -34z m-453 3 c-16 -2 -40 -2
-55 0 -16 2 -3 4 27 4 30 0 43 -2 28 -4z m-141 -619 c-3 -3 -12 -4 -19 -1 -8
3 -5 6 6 6 11 1 17 -2 13 -5z m-134 -21 c-7 -2 -19 -2 -25 0 -7 3 -2 5 12 5
14 0 19 -2 13 -5z"/>
<path d="M8957 14909 c-181 -42 -313 -221 -385 -519 -49 -202 -102 -494 -123
-670 -23 -202 7 -372 72 -405 40 -21 52 -19 83 14 32 33 31 61 -1 76 -23 10
-47 63 -58 126 l-7 35 49 1 c45 0 293 63 408 103 47 16 138 44 285 88 91 28
213 78 258 106 50 32 122 119 122 148 0 32 -41 61 -121 88 -57 18 -163 33
-566 80 -57 7 -103 15 -103 19 0 3 46 33 102 66 132 78 225 154 286 235 65 87
83 122 89 184 11 111 -29 171 -143 211 -73 26 -172 32 -247 14z m237 -104 c31
-21 56 -69 56 -109 0 -14 -9 -50 -21 -81 -18 -47 -33 -67 -97 -121 -43 -35
-144 -106 -226 -157 -82 -50 -158 -104 -169 -118 -29 -40 -16 -65 46 -84 29
-9 59 -20 68 -25 9 -5 35 -6 58 -3 32 4 41 3 39 -8 -4 -19 156 -38 357 -43
121 -3 170 -8 203 -21 23 -9 42 -20 42 -24 0 -13 -44 -48 -85 -69 -103 -51
-386 -151 -645 -226 -85 -25 -181 -54 -213 -64 -31 -11 -60 -16 -62 -12 -3 4
0 43 5 86 6 44 12 108 15 144 3 36 10 88 14 115 5 28 17 102 26 165 43 300 91
438 193 559 43 51 95 83 182 112 45 15 182 5 214 -16z"/>
<path d="M28049 14786 c-2 -2 -620 -6 -1374 -10 -753 -3 -1512 -8 -1685 -11
-311 -4 -1839 -18 -1872 -17 -10 0 -18 -3 -18 -7 0 -19 46 -46 112 -67 l71
-23 736 5 c405 2 770 3 811 2 41 -2 127 -2 190 -1 332 4 1891 14 2398 15 l583
1 27 -27 c26 -26 27 -27 8 -42 -18 -12 -84 -20 -156 -17 -83 4 -621 3 -1875
-3 -781 -3 -1721 -6 -2090 -7 -614 -2 -674 -4 -722 -20 -49 -17 -70 -38 -57
-58 3 -5 14 -9 24 -9 10 0 21 -4 24 -9 6 -9 351 -8 1836 4 974 7 2988 7 3036
-1 39 -6 44 -4 88 38 l46 45 0 76 c0 55 -4 80 -16 91 -8 9 -19 16 -24 16 -4 0
-10 9 -13 20 -4 16 -14 20 -44 20 -22 0 -42 -2 -44 -4z"/>
<path d="M23095 14500 c-3 -5 -2 -10 4 -10 5 0 13 5 16 10 3 6 2 10 -4 10 -5
0 -13 -4 -16 -10z"/>
<path d="M7482 14045 c-7 -14 -12 -34 -12 -44 0 -18 39 -61 56 -61 18 0 64 55
64 76 0 53 -87 75 -108 29z"/>
<path d="M9853 14010 c-57 -23 -9 -58 119 -88 59 -14 211 -102 261 -150 49
-48 80 -112 71 -147 -21 -84 -233 -200 -434 -240 -69 -14 -94 -15 -128 -6 -46
13 -51 25 -24 57 22 28 56 44 172 83 139 46 190 102 121 131 -38 15 -115 -9
-251 -78 -112 -56 -152 -103 -154 -176 -1 -65 17 -79 105 -84 81 -5 195 11
283 40 34 10 83 23 110 29 55 10 196 84 240 125 60 57 82 156 51 230 -27 64
-131 155 -236 206 -140 68 -247 92 -306 68z"/>
<path d="M6103 13675 c-3 -9 -3 -29 1 -46 7 -36 -18 -104 -99 -274 -61 -127
-68 -165 -35 -199 18 -18 20 -18 44 -2 34 22 52 59 61 126 4 30 14 63 22 72
18 20 46 67 78 133 32 65 35 155 5 185 -24 24 -68 26 -77 5z"/>
<path d="M1820 13278 c0 -11 -8 -22 -20 -25 -12 -3 -20 -14 -20 -27 0 -41 -12
-66 -31 -66 -16 0 -19 -8 -19 -41 0 -38 5 -47 58 -95 l57 -54 315 0 c173 0
668 -2 1100 -5 432 -3 790 -6 795 -6 6 0 109 0 230 1 121 1 526 -1 900 -4 374
-3 977 -8 1340 -11 363 -3 923 -8 1245 -10 322 -3 1546 -8 2720 -10 2064 -4
3728 -11 4495 -20 774 -9 1655 -6 1698 7 52 15 49 11 42 40 -12 49 -49 52
-785 55 -371 2 -684 4 -695 4 -11 1 -204 1 -430 1 -454 -1 -2925 6 -4255 12
-470 3 -862 4 -870 4 -365 -2 -1638 2 -2130 7 -366 4 -894 9 -1175 10 -280 1
-584 3 -675 3 -194 2 -199 2 -575 2 -159 0 -335 0 -391 1 -55 0 -136 2 -180 6
-43 3 -88 6 -99 5 -31 -1 -176 -2 -210 -1 -35 1 -523 -11 -605 -14 -30 -2 -77
2 -105 8 -48 10 -180 13 -189 4 -2 -2 -51 -3 -108 -2 -57 1 -141 1 -188 0
-145 -2 -220 -2 -375 1 -82 1 -265 1 -405 0 -259 -3 -385 8 -402 35 -14 22 -8
53 15 74 29 27 85 45 105 35 10 -5 112 -7 227 -6 116 2 327 3 470 3 143 0 269
0 280 0 119 2 641 3 905 2 1146 -5 1842 -12 1872 -17 52 -8 107 12 119 43 5
14 8 28 5 30 -11 11 -336 20 -354 10 -6 -5 -17 -5 -22 -2 -6 3 -130 6 -278 5
-147 0 -277 0 -289 0 -33 0 -74 1 -102 0 -13 0 -38 7 -54 15 -28 14 -32 14
-39 0 -11 -19 -64 -19 -100 -1 -24 13 -29 13 -36 -1 -7 -11 -11 -12 -16 -4 -9
14 -59 14 -73 0 -7 -7 -23 -7 -53 1 -24 6 -53 9 -66 6 -12 -3 -26 -2 -29 4 -8
14 -68 13 -83 -2 -7 -7 -16 -8 -24 -2 -13 10 -110 9 -193 0 -22 -3 -44 -1 -50
3 -12 9 -544 13 -558 4 -17 -10 -97 -12 -103 -2 -6 11 -104 12 -104 1 0 -11
-78 -13 -85 -2 -3 4 -307 8 -675 9 -667 0 -670 0 -670 -21z"/>
<path d="M6191 13242 c-23 -21 -24 -24 -7 -40 14 -14 39 -17 144 -19 126 -3
768 -11 1312 -18 157 -1 578 -6 935 -11 358 -4 756 -6 885 -5 129 2 273 3 320
3 47 -1 1019 -3 2160 -6 1141 -3 2453 -8 2915 -12 462 -3 851 -6 865 -6 14 0
122 0 240 0 641 0 674 2 754 44 17 9 17 11 2 26 -15 15 -71 17 -569 20 -304 1
-752 3 -996 4 -355 2 -447 5 -457 16 -8 7 -19 10 -26 6 -16 -10 -108 -15 -108
-6 0 4 -25 8 -55 10 -31 2 -55 -1 -55 -7 0 -10 -98 -7 -108 3 -3 3 -12 1 -19
-6 -10 -8 -17 -9 -21 -1 -7 11 -48 11 -612 13 -1058 4 -3752 -10 -3785 -18
-22 -6 -45 -18 -51 -26 -16 -23 -61 -20 -69 3 -5 16 -20 19 -103 25 -87 6
-1165 10 -1202 4 -8 -1 -49 1 -90 5 -41 3 -475 9 -965 12 -489 4 -962 7 -1050
8 -153 2 -160 1 -184 -21z"/>
<path d="M6145 13240 c3 -5 8 -10 11 -10 2 0 4 5 4 10 0 6 -5 10 -11 10 -5 0
-7 -4 -4 -10z"/>
<path d="M6545 12124 c-16 -3 -67 -11 -113 -19 -75 -12 -86 -12 -112 3 -28 16
-32 16 -63 -3 -97 -58 -158 -102 -163 -120 -4 -11 -15 -29 -26 -40 -30 -31
-108 -131 -108 -139 0 -4 -9 -19 -20 -34 -10 -15 -31 -63 -46 -107 -24 -72
-26 -90 -21 -180 6 -118 27 -187 93 -304 128 -228 339 -358 667 -412 271 -44
588 -24 800 50 114 40 169 66 219 104 24 18 56 40 72 51 53 34 127 121 158
186 26 54 32 80 36 155 4 78 1 101 -21 163 -102 293 -464 550 -882 628 -87 16
-403 28 -470 18z m452 -93 c62 -11 127 -26 145 -34 18 -8 56 -23 83 -32 151
-54 329 -169 436 -281 158 -168 209 -330 149 -483 -27 -70 -101 -154 -180
-207 -54 -36 -195 -104 -215 -104 -8 0 -17 -4 -20 -10 -3 -5 -19 -10 -35 -10
-16 0 -41 -4 -55 -10 -14 -5 -41 -12 -58 -15 -18 -3 -59 -10 -92 -15 -68 -12
-316 -14 -420 -5 -247 23 -447 108 -595 255 -208 207 -247 445 -109 681 45 78
169 214 201 222 13 3 57 15 98 27 184 51 450 60 667 21z"/>
<path d="M1931 10151 c-27 -5 -37 -13 -44 -36 -6 -16 -18 -41 -28 -54 -24 -30
-24 -72 0 -102 10 -13 21 -34 25 -46 4 -11 13 -27 21 -33 11 -9 249 -11 1007
-9 1255 4 6115 4 6148 0 14 -2 1730 0 3814 3 2540 4 3795 10 3807 17 11 5 24
7 29 4 9 -6 25 13 17 21 -3 3 -38 17 -78 30 l-74 25 -525 -1 c-289 -1 -671 -1
-850 0 -179 1 -1648 2 -3265 1 -1617 0 -3048 0 -3180 0 -132 0 -247 0 -255 -1
-8 -1 -42 -1 -75 -1 -33 0 -215 0 -405 -1 -190 0 -356 1 -370 2 -14 2 -38 3
-55 2 -16 0 -91 0 -165 1 -74 1 -202 0 -285 -1 -82 -1 -285 -1 -450 0 -165 1
-370 1 -455 0 -408 -5 -630 -2 -656 8 -16 6 -40 8 -54 4 -49 -13 -385 -18
-906 -13 -67 1 -126 -1 -130 -4 -5 -3 -56 -3 -114 0 -58 3 -114 5 -125 4 -11
0 -175 -1 -365 -3 -190 -2 -351 -7 -358 -11 -7 -5 -29 -3 -50 4 -20 7 -41 12
-47 10 -16 -5 -108 -12 -135 -10 -33 3 -674 2 -725 0 -22 -2 -140 -2 -263 -2
-123 1 -228 -1 -232 -4 -17 -11 -90 34 -90 55 0 42 60 52 290 49 188 -3 189
-3 280 -2 47 1 110 1 140 0 30 -1 87 0 125 2 39 1 79 2 90 2 44 -3 543 -3 580
-1 22 2 47 3 55 3 198 -1 341 -2 405 -4 124 -3 137 -3 190 0 46 2 348 4 520 4
968 -5 1855 -4 1864 2 7 3 18 2 25 -4 7 -6 58 -10 127 -9 63 2 269 1 459 0
190 -2 590 -2 890 -1 300 1 608 2 685 1 77 0 1243 -1 2590 -1 1348 -1 3094 -2
3880 -4 1387 -2 1432 -1 1473 17 47 21 51 33 22 64 -19 20 -30 22 -143 22
-918 1 -2752 -2 -3872 -6 -1947 -7 -2737 -4 -2784 11 -13 4 -21 2 -21 -6 0 -9
-15 -10 -57 -4 -59 8 -4505 8 -5548 0 -319 -3 -854 -5 -1190 -5 -335 0 -621 0
-635 0 -14 0 -56 -4 -95 -9 -38 -5 -77 -5 -85 -1 -8 4 -63 8 -122 8 -59 1
-117 6 -127 12 -11 5 -23 9 -28 9 -4 -1 -23 -4 -42 -8z"/>
<path d="M19050 7830 c0 -5 -9 -10 -19 -10 -17 0 -20 -10 -25 -72 -4 -40 -5
-920 -4 -1954 3 -1793 4 -1883 21 -1902 17 -19 17 -20 0 -26 -17 -7 -17 -8 -1
-20 13 -10 14 -16 6 -24 -6 -6 -9 -14 -5 -18 11 -11 27 7 27 30 0 12 4 26 9
31 27 29 42 131 41 278 -3 489 -1 589 11 603 10 12 10 23 0 50 -9 26 -13 147
-13 473 0 241 2 444 6 450 4 6 4 16 0 22 -4 7 -7 89 -6 183 0 161 0 487 0 586
-1 25 0 90 1 145 1 96 4 834 3 885 -3 142 -11 244 -22 270 -12 29 -30 41 -30
20z"/>
<path d="M16062 6155 c-76 -33 -244 -249 -331 -425 -18 -36 -37 -72 -42 -80
-20 -32 -108 -228 -134 -300 -15 -41 -33 -88 -40 -105 -7 -16 -16 -41 -20 -55
-10 -33 -24 -50 -52 -61 -12 -4 -30 -20 -39 -34 -16 -24 -16 -28 -1 -42 14
-15 25 -12 119 35 122 61 241 112 260 112 7 0 22 6 33 14 11 7 36 17 55 21 19
4 53 15 75 25 108 47 267 88 363 95 45 3 52 1 48 -12 -4 -8 7 -97 24 -197 16
-99 34 -212 40 -251 19 -128 93 -460 105 -474 11 -11 16 -9 30 13 19 28 19 28
-14 181 -31 142 -61 318 -61 354 0 16 -4 33 -10 36 -5 3 -10 19 -10 34 0 15
-9 67 -19 116 -10 50 -22 116 -25 148 l-6 57 64 0 c47 0 70 5 87 19 l23 19
-40 6 c-22 4 -63 8 -92 8 -29 1 -52 4 -52 6 0 3 -6 39 -14 81 -8 42 -25 130
-36 196 -41 227 -102 396 -159 442 -37 29 -88 36 -129 18z m95 -93 c44 -53
110 -257 133 -412 5 -30 18 -95 28 -145 11 -49 19 -91 17 -93 -1 -1 -38 -7
-81 -12 -155 -18 -333 -72 -609 -184 -60 -24 -111 -41 -113 -36 -3 9 16 54 84
196 24 51 44 96 44 102 0 11 141 293 150 302 4 3 14 22 23 43 10 20 22 37 26
37 5 0 14 14 20 30 5 17 15 30 20 30 6 0 11 7 11 15 0 8 9 19 20 25 11 6 20
15 20 21 0 18 52 73 95 101 39 24 83 17 112 -20z"/>
<path d="M22880 5351 c-77 -24 -176 -106 -236 -197 -46 -69 -99 -186 -118
-259 -39 -154 -40 -369 -2 -458 39 -92 117 -105 120 -21 1 32 -3 41 -22 49
-32 14 -47 74 -46 187 2 162 41 297 130 457 29 53 124 140 164 151 115 32 200
-16 200 -114 0 -53 -49 -132 -134 -216 -31 -30 -56 -60 -56 -67 0 -9 -18 -13
-59 -13 -69 0 -103 -21 -121 -75 -14 -44 -9 -52 41 -60 44 -8 94 8 103 31 21
54 263 -67 337 -168 48 -67 42 -99 -34 -172 -172 -164 -340 -246 -509 -246
-41 0 -48 -3 -48 -19 0 -62 54 -80 173 -56 83 17 227 81 292 131 18 13 35 24
39 24 12 0 114 86 141 118 36 43 56 97 57 153 0 39 -7 60 -32 99 -47 74 -141
154 -230 196 l-78 37 42 35 c52 43 75 67 107 117 45 68 53 108 39 187 -18 93
-61 151 -124 167 -50 12 -99 13 -136 2z"/>
<path d="M18322 5184 c-95 -21 -143 -66 -180 -169 -32 -92 -35 -116 -34 -308
0 -163 12 -262 33 -292 4 -5 10 -26 14 -45 8 -37 65 -100 91 -100 8 0 28 -9
43 -21 25 -19 40 -21 121 -18 70 3 94 8 103 20 7 9 23 20 36 24 36 11 79 62
112 134 38 84 53 207 46 374 -5 105 -12 143 -37 217 -35 106 -54 138 -86 146
-13 3 -24 11 -24 18 0 11 -110 37 -152 35 -13 -1 -51 -7 -86 -15z m197 -172
c34 -33 46 -65 61 -162 12 -73 12 -257 0 -295 -5 -16 -14 -51 -21 -78 -8 -32
-22 -57 -46 -77 -31 -28 -40 -30 -108 -30 -69 0 -77 2 -109 31 -24 20 -38 43
-42 67 -4 20 -9 41 -12 47 -15 26 -16 339 -1 415 20 104 44 121 165 117 76 -2
82 -4 113 -35z"/>
<path d="M21835 5120 c-192 -43 -392 -171 -371 -237 9 -29 42 -43 119 -53 104
-13 360 -77 413 -102 82 -40 71 -86 -50 -212 -78 -80 -215 -176 -253 -176 -13
0 -35 7 -48 16 -13 9 -29 13 -35 9 -14 -9 -13 -50 4 -90 13 -30 20 -35 49 -35
79 0 241 103 355 225 78 84 101 124 108 193 9 82 -37 139 -139 176 -38 13
-171 46 -314 76 -29 7 -53 17 -53 23 1 26 198 91 310 102 73 7 90 17 90 51 0
56 -48 65 -185 34z"/>
<path d="M15407 4958 c-93 -268 -177 -603 -177 -709 0 -41 21 -62 42 -41 6 6
19 66 28 134 17 115 40 215 90 398 12 41 25 84 30 95 10 22 39 125 47 168 4
22 2 27 -15 27 -15 0 -25 -15 -45 -72z"/>
<path d="M17116 4970 c-32 -15 -78 -48 -103 -72 -83 -82 -212 -300 -259 -438
-26 -79 -26 -223 1 -268 31 -52 92 -75 180 -70 82 5 141 31 190 82 46 47 110
127 129 161 23 42 40 69 47 75 3 3 14 21 24 40 9 19 23 42 30 50 23 28 65 161
65 206 0 95 -80 200 -146 192 -27 -3 -35 0 -40 15 -8 26 11 44 30 28 17 -14
36 -7 36 15 0 27 -116 17 -184 -16z m156 -85 c27 -11 58 -86 58 -138 0 -121
-139 -384 -257 -488 -92 -80 -224 -95 -258 -28 -17 32 -21 177 -7 224 7 26 13
30 38 27 23 -2 34 3 52 27 12 17 22 37 22 46 0 19 20 56 40 72 8 7 11 13 6 13
-4 0 8 18 28 40 20 22 36 47 36 55 0 8 7 15 15 15 9 0 20 10 25 23 6 12 22 32
37 45 16 12 44 36 63 52 34 30 57 33 102 15z m-294 -127 c-14 -18 -37 -55 -53
-81 -15 -26 -29 -46 -32 -43 -4 4 26 57 75 129 14 20 27 35 30 32 3 -2 -6 -19
-20 -37z"/>
<path d="M20721 4966 c-6 -7 -15 -46 -21 -87 -5 -41 -30 -137 -55 -214 -26
-82 -50 -178 -57 -232 -10 -84 -9 -94 8 -125 30 -52 76 -70 159 -65 127 9 295
80 295 126 0 38 -20 41 -100 11 -50 -18 -109 -31 -162 -36 -99 -8 -128 2 -127
44 0 35 38 171 82 300 53 153 60 238 21 277 -19 19 -28 19 -43 1z"/>
<path d="M15638 3805 c-2 -1 -379 -5 -838 -9 -852 -6 -1290 -11 -1990 -22
-433 -6 -588 -6 -637 1 -18 2 -35 0 -37 -4 -6 -9 -125 -7 -209 4 -48 6 -64 4
-93 -11 -39 -21 -41 -26 -48 -146 -5 -85 -5 -87 22 -104 51 -34 114 -64 122
-59 4 3 275 7 601 10 327 2 882 7 1234 10 352 3 859 7 1126 10 267 2 1279 5
2248 5 1608 1 1765 2 1797 17 33 16 35 16 59 -7 14 -13 25 -19 25 -14 0 17
-64 71 -102 87 -27 11 -78 16 -195 17 -87 1 -165 1 -173 0 -8 -1 -32 -1 -52
-1 -20 0 -40 -4 -43 -9 -3 -5 -19 -5 -38 1 -17 5 -77 9 -132 8 -55 0 -779 -2
-1610 -4 -830 -2 -1519 -3 -1530 -3 -11 0 -47 0 -80 0 -33 0 -161 0 -285 -1
-124 0 -292 -1 -375 -1 -218 0 -1102 -10 -1370 -15 -126 -3 -237 -5 -245 -4
-27 1 -242 0 -520 -2 -283 -3 -351 4 -364 37 -7 17 30 71 53 78 30 9 646 17
1651 22 553 3 1014 5 1025 5 11 0 103 0 205 1 102 0 196 0 210 0 14 0 63 -1
110 0 47 0 272 0 500 -1 444 0 429 0 493 2 23 1 69 0 102 -1 66 -3 2135 7
2440 11 193 3 245 12 245 44 0 28 -56 36 -260 39 -113 2 -236 3 -275 3 -38 0
-142 0 -230 1 -589 3 -2535 7 -2537 5z"/>
<path d="M19023 3401 c-21 -20 -21 -21 -22 -1173 -1 -634 -2 -1160 -3 -1168
-1 -8 2 -48 6 -87 7 -60 12 -73 26 -73 13 0 17 -6 13 -20 -3 -11 0 -20 6 -20
6 0 11 11 11 24 0 13 6 29 14 35 23 19 26 77 29 546 1 248 5 455 10 462 4 6 3
14 -2 17 -6 4 -16 766 -11 881 6 124 -5 514 -15 550 -13 47 -31 55 -62 26z"/>
<path d="M14055 2763 c-75 -39 -166 -154 -238 -298 -78 -159 -95 -198 -137
-327 -23 -70 -51 -139 -62 -154 -16 -20 -19 -31 -11 -42 7 -12 5 -34 -7 -77
-54 -189 -73 -453 -37 -509 34 -51 42 -29 48 135 4 85 17 210 28 279 12 68 20
132 18 141 -4 14 7 17 63 22 85 7 238 52 405 118 72 28 164 62 205 76 83 27
293 67 440 84 114 14 143 23 138 46 -2 12 -18 20 -47 26 -53 10 -270 -19 -430
-59 -57 -14 -109 -23 -116 -20 -8 3 -15 37 -19 93 -9 115 -34 284 -51 351 -15
57 -45 106 -75 122 -27 15 -81 12 -115 -7z m84 -62 c10 -10 28 -47 39 -82 21
-66 59 -302 64 -398 3 -53 3 -54 -32 -66 -333 -122 -365 -132 -451 -141 l-68
-6 14 51 c7 29 18 57 23 64 5 7 15 30 22 52 6 22 21 58 31 81 10 22 19 46 19
53 0 19 94 195 146 273 52 78 118 138 151 138 13 0 31 -8 42 -19z"/>
<path d="M21001 2378 c-64 -100 -151 -318 -176 -438 -11 -53 -85 -274 -96
-284 -5 -6 -9 8 -9 37 0 25 -4 79 -9 119 -5 40 -15 129 -21 198 -6 69 -16 139
-21 157 -12 38 -71 93 -101 93 -54 0 -160 -179 -253 -430 -74 -197 -151 -485
-141 -525 19 -74 103 14 105 110 2 72 67 303 117 413 13 29 24 56 24 60 0 15
133 282 144 289 20 13 35 -33 41 -125 8 -116 32 -352 46 -441 23 -149 85 -164
120 -27 11 45 29 71 29 44 0 -8 5 -6 11 5 5 9 7 22 4 27 -4 6 -3 24 0 42 5 21
10 27 15 18 10 -16 19 16 56 195 14 72 32 137 39 145 7 8 16 27 20 42 4 15 13
29 21 32 8 3 14 13 14 23 0 10 5 35 11 57 7 27 14 35 21 28 7 -7 7 -68 -1
-199 -7 -125 -7 -210 -1 -255 17 -119 68 -223 100 -203 7 4 10 20 7 39 -25
152 -28 206 -23 381 3 105 9 224 12 265 6 71 5 77 -19 103 -32 33 -67 35 -86
5z"/>
<path d="M22904 2358 c-84 -57 -156 -161 -208 -301 -53 -142 -60 -191 -61
-407 0 -239 20 -341 75 -370 23 -12 63 9 75 38 4 9 9 112 12 228 4 161 3 213
-6 219 -26 15 -33 -18 -41 -180 -4 -91 -10 -169 -13 -172 -16 -15 -25 17 -31
109 -14 200 28 440 102 583 43 84 105 170 131 185 26 14 64 13 79 -2 22 -22
13 -118 -19 -208 -17 -47 -41 -114 -54 -150 -13 -36 -33 -84 -44 -107 -35 -70
-24 -123 24 -123 11 0 55 12 99 25 128 41 214 9 270 -102 37 -73 10 -231 -61
-363 -54 -101 -82 -136 -137 -172 -65 -44 -114 -46 -191 -9 -64 31 -85 33 -85
6 0 -18 66 -74 109 -92 49 -21 130 -11 185 21 47 27 123 106 165 171 75 116
105 228 99 368 -3 90 -7 108 -33 154 -17 29 -46 62 -68 76 -53 34 -158 53
-222 39 -27 -6 -53 -9 -56 -6 -4 2 4 32 18 67 66 158 93 251 93 320 0 167 -89
233 -206 155z"/>
<path d="M21940 2336 c-84 -22 -181 -86 -277 -181 -84 -83 -93 -95 -93 -129 0
-51 27 -60 133 -45 161 24 356 -8 420 -69 38 -36 35 -75 -13 -169 -77 -148
-328 -463 -370 -463 -9 0 -21 5 -27 11 -15 15 -43 4 -43 -15 0 -23 50 -76 71
-76 11 0 32 6 47 14 25 13 159 152 234 241 18 23 39 47 46 55 92 108 172 258
172 324 0 66 -60 150 -134 188 -60 31 -161 48 -288 48 -65 0 -118 4 -118 9 0
19 90 87 161 123 84 43 136 58 195 58 55 0 71 18 49 59 -14 29 -19 31 -68 30
-28 0 -72 -6 -97 -13z"/>
<path d="M14266 2082 c-14 -44 58 -437 111 -606 49 -156 86 -213 119 -185 19
16 17 46 -5 77 -35 50 -100 296 -141 532 -34 196 -33 195 -57 198 -14 2 -23
-3 -27 -16z"/>
<path d="M18442 1960 c-12 -16 -22 -36 -22 -44 0 -26 -84 -100 -152 -135 -55
-28 -70 -41 -78 -67 -14 -41 1 -74 33 -74 24 0 81 37 107 69 20 25 65 35 79
18 14 -17 14 -47 6 -382 -3 -154 -4 -289 -1 -302 11 -43 79 -47 110 -6 18 24
19 41 16 232 -2 113 -3 316 -4 451 -1 135 -5 251 -9 258 -15 23 -62 14 -85
-18z"/>
<path d="M27635 560 c-9 -15 -1 -23 21 -18 15 3 16 4 1 16 -11 9 -17 10 -22 2z"/>
<path d="M28417 555 c-9 -7 -17 -15 -17 -18 0 -9 54 -24 84 -22 39 2 45 23 9
30 -15 4 -35 10 -43 14 -10 5 -23 4 -33 -4z"/>
<path d="M29332 554 c-7 -12 -11 -13 -17 -5 -5 9 -10 9 -21 0 -26 -22 -14 -28
54 -26 41 1 65 6 62 12 -3 6 -13 9 -23 8 -10 -2 -20 4 -23 12 -8 20 -21 19
-32 -1z"/>
<path d="M26314 551 c-3 -3 -38 -6 -77 -6 -55 0 -72 -3 -72 -14 0 -11 28 -14
147 -15 143 -1 172 4 151 25 -11 11 -139 19 -149 10z"/>
<path d="M26680 540 c0 -19 20 -27 33 -13 8 7 -11 33 -24 33 -5 0 -9 -9 -9
-20z"/>
<path d="M26850 545 c0 -9 9 -14 23 -14 12 0 50 -2 85 -4 48 -4 62 -2 62 8 0
9 -17 15 -52 18 -96 9 -118 7 -118 -8z"/>
<path d="M27115 551 c-6 -11 9 -23 19 -14 9 9 7 23 -3 23 -6 0 -12 -4 -16 -9z"/>
<path d="M27240 542 c0 -10 7 -12 23 -8 12 3 28 6 35 6 6 0 12 4 12 8 0 4 -16
8 -35 8 -24 0 -35 -5 -35 -14z"/>
<path d="M27320 551 c0 -11 26 -22 34 -14 12 12 5 23 -14 23 -11 0 -20 -4 -20
-9z"/>
<path d="M27550 548 c0 -5 17 -8 37 -8 20 0 33 3 29 8 -4 4 -21 7 -37 7 -16 0
-29 -3 -29 -7z"/>
<path d="M27977 553 c-9 -9 -9 -33 1 -33 4 0 13 9 20 20 10 16 10 20 -1 20 -8
0 -17 -3 -20 -7z"/>
<path d="M28070 540 c0 -23 0 -23 37 -9 26 10 27 12 8 19 -33 14 -45 11 -45
-10z"/>
<path d="M28162 548 c7 -21 36 -34 49 -21 6 6 8 16 5 22 -10 15 -59 14 -54 -1z"/>
<path d="M28260 550 c0 -5 5 -10 10 -10 6 0 10 5 10 10 0 6 -4 10 -10 10 -5 0
-10 -4 -10 -10z"/>
<path d="M28668 549 c-27 -15 -23 -42 5 -36 12 3 39 9 59 12 26 5 35 11 31 21
-6 17 -30 18 -36 2 -4 -10 -7 -10 -18 0 -15 14 -19 14 -41 1z"/>
<path d="M28875 551 c-32 -7 -37 -24 -10 -29 30 -7 65 7 59 23 -4 8 -9 14 -13
14 -3 -1 -19 -4 -36 -8z"/>
<path d="M28990 547 c0 -23 58 -33 78 -13 15 15 15 16 0 16 -8 0 -30 3 -47 6
-24 5 -31 3 -31 -9z"/>
<path d="M29442 548 c3 -7 13 -15 24 -17 16 -3 17 -1 5 13 -16 19 -34 21 -29
4z"/>
<path d="M29498 549 c-20 -12 -3 -21 49 -25 40 -2 51 1 61 16 11 18 9 19 -43
18 -30 -1 -60 -5 -67 -9z"/>
<path d="M29690 550 c-31 -3 -45 -10 -45 -20 0 -13 17 -15 100 -12 131 3 179
7 192 15 7 4 14 3 17 -2 4 -5 43 -10 89 -11 45 -1 105 -2 132 -4 28 -1 58 2
68 7 11 5 24 4 33 -3 9 -8 27 -10 51 -5 21 4 52 8 68 9 35 1 46 21 12 22 -12
0 -30 4 -40 8 -10 5 -31 3 -49 -5 -18 -7 -33 -9 -35 -3 -2 7 -320 10 -343 3
-3 -1 -9 0 -15 1 -23 5 -193 5 -235 0z"/>
<path d="M30615 548 c-27 -5 -66 -6 -85 -4 -35 5 -70 -7 -58 -20 7 -6 472 -10
508 -4 8 1 21 1 29 -1 7 -2 16 2 19 10 3 10 -1 13 -17 8 -11 -3 -23 -2 -25 2
-3 4 -51 9 -108 10 -57 1 -116 3 -133 5 -16 1 -36 -2 -42 -7 -8 -6 -18 -6 -25
0 -8 6 -33 6 -63 1z"/>
<path d="M31247 553 c-4 -3 -29 -8 -55 -9 -26 -1 -49 -3 -51 -3 -3 -1 1 -7 7
-13 14 -14 160 -20 167 -7 3 4 -9 15 -26 23 -37 19 -34 18 -42 9z"/>
<path d="M31406 553 c-4 -4 -18 -8 -29 -8 -13 0 -22 -6 -22 -15 0 -12 18 -15
98 -15 90 0 119 6 103 22 -3 3 -22 7 -43 8 -21 1 -52 5 -68 9 -17 4 -35 3 -39
-1z"/>
<path d="M31660 550 c0 -5 -7 -10 -16 -10 -9 0 -14 -6 -11 -12 2 -8 20 -13 42
-13 22 0 40 5 43 13 2 7 -5 12 -17 12 -12 0 -21 5 -21 10 0 6 -4 10 -10 10 -5
0 -10 -4 -10 -10z"/>
<path d="M25245 542 c-3 -3 -138 -6 -302 -8 -164 -2 -304 -4 -310 -4 -7 0 -59
0 -115 0 -57 0 -227 -2 -378 -6 -151 -3 -329 -6 -395 -7 -102 -2 -120 -4 -123
-18 -3 -15 9 -17 85 -19 48 -1 93 -2 98 -1 6 0 199 3 430 6 231 3 551 8 710
10 160 3 343 5 407 6 84 0 120 4 128 14 16 19 4 22 -80 24 -41 0 -92 2 -113 4
-21 1 -40 1 -42 -1z"/>
<path d="M25512 538 c-21 -21 -13 -26 41 -27 28 0 70 -2 91 -4 21 -1 64 0 95
4 31 3 63 3 72 -2 9 -5 19 -6 22 -2 9 8 106 7 137 -1 27 -8 71 16 57 31 -12
11 -372 12 -423 0 -28 -6 -49 -5 -61 2 -14 7 -23 7 -31 -1z"/>
<path d="M26045 540 c-4 -6 0 -13 9 -16 21 -8 69 -1 73 11 4 13 -74 17 -82 5z"/>
<path d="M26490 540 c0 -5 7 -10 15 -10 8 0 15 5 15 10 0 6 -7 10 -15 10 -8 0
-15 -4 -15 -10z"/>
<path d="M26760 541 c0 -12 21 -19 43 -13 28 7 20 22 -13 22 -16 0 -30 -4 -30
-9z"/>
<path d="M27070 540 c0 -5 7 -10 15 -10 8 0 15 5 15 10 0 6 -7 10 -15 10 -8 0
-15 -4 -15 -10z"/>
<path d="M27425 540 c3 -5 8 -10 11 -10 2 0 4 5 4 10 0 6 -5 10 -11 10 -5 0
-7 -4 -4 -10z"/>
<path d="M27726 536 c3 -9 11 -16 16 -16 13 0 5 23 -10 28 -7 2 -10 -2 -6 -12z"/>
<path d="M27845 540 c-3 -5 -1 -10 4 -10 6 0 11 5 11 10 0 6 -2 10 -4 10 -3 0
-8 -4 -11 -10z"/>
<path d="M29213 538 c2 -7 12 -13 22 -13 10 0 20 6 23 13 2 7 -6 12 -23 12
-17 0 -25 -5 -22 -12z"/>
<path d="M31577 544 c-13 -13 -7 -24 14 -24 11 0 19 5 17 12 -5 14 -22 21 -31
12z"/>
<path d="M31790 535 l-45 -12 40 -5 c53 -7 146 2 139 14 -3 4 -20 8 -38 6 -17
-1 -36 0 -41 3 -6 3 -30 0 -55 -6z"/>
<path d="M31966 542 c-3 -6 -1 -14 5 -17 15 -10 25 3 12 16 -7 7 -13 7 -17 1z"/>
<path d="M32137 544 c-14 -14 -7 -25 13 -22 12 2 21 8 21 13 0 12 -24 18 -34
9z"/>
<path d="M32278 545 c-3 -4 -14 -8 -24 -9 -10 -2 -20 -8 -22 -14 -3 -9 10 -10
45 -6 46 6 85 24 51 24 -9 0 -23 2 -30 5 -8 3 -17 3 -20 0z"/>
<path d="M32436 541 c-4 -5 8 -12 25 -16 33 -7 45 -3 34 14 -8 13 -52 14 -59
2z"/>
<path d="M32530 541 c0 -19 55 -29 83 -14 15 7 27 16 27 18 0 3 -25 5 -55 5
-30 0 -55 -4 -55 -9z"/>
<path d="M26585 530 c3 -5 8 -10 11 -10 2 0 4 5 4 10 0 6 -5 10 -11 10 -5 0
-7 -4 -4 -10z"/>
<path d="M27780 529 c0 -5 5 -7 10 -4 6 3 10 8 10 11 0 2 -4 4 -10 4 -5 0 -10
-5 -10 -11z"/>
<path d="M28360 530 c0 -5 7 -10 15 -10 8 0 15 5 15 10 0 6 -7 10 -15 10 -8 0
-15 -4 -15 -10z"/>
<path d="M28790 530 c0 -5 9 -10 20 -10 11 0 20 5 20 10 0 6 -9 10 -20 10 -11
0 -20 -4 -20 -10z"/>
<path d="M31062 529 c2 -6 7 -10 11 -10 4 1 16 1 27 1 11 0 20 5 20 10 0 6
-14 10 -31 10 -17 0 -29 -5 -27 -11z"/>
<path d="M32355 530 c3 -5 10 -10 16 -10 5 0 9 5 9 10 0 6 -7 10 -16 10 -8 0
-12 -4 -9 -10z"/>
<path d="M19813 519 c-5 -5 -45 -9 -91 -11 -48 -2 -81 -7 -80 -13 4 -16 360
-13 366 3 2 7 -5 12 -15 12 -11 0 -24 5 -30 11 -8 8 -19 6 -41 -5 -17 -9 -33
-12 -36 -7 -8 12 -64 19 -73 10z"/>
<path d="M20080 520 c-30 -3 -45 -10 -45 -20 0 -10 13 -15 45 -16 70 -4 112 6
108 25 -3 17 -29 20 -108 11z"/>
<path d="M20340 520 c0 -8 -17 -10 -64 -5 -43 5 -66 3 -70 -4 -10 -15 21 -25
69 -23 22 1 50 2 62 2 28 0 37 14 18 30 -12 10 -15 10 -15 0z"/>
<path d="M20780 520 c0 -14 50 -32 67 -25 21 7 4 28 -18 22 -10 -3 -22 -1 -25
4 -7 12 -24 11 -24 -1z"/>
<path d="M20875 520 c-9 -14 -7 -16 28 -24 21 -5 27 -3 27 9 0 9 -5 13 -10 10
-6 -4 -17 -2 -25 5 -10 8 -15 8 -20 0z"/>
<path d="M19483 510 c-43 -18 -23 -27 54 -26 51 1 78 5 81 14 2 8 -9 12 -35
12 -21 0 -47 2 -58 5 -11 2 -30 0 -42 -5z"/>
<path d="M20447 508 c-15 -12 -13 -13 19 -16 25 -1 34 2 32 10 -6 18 -30 21
-51 6z"/>
<path d="M20515 511 c-6 -11 9 -23 19 -14 9 9 7 23 -3 23 -6 0 -12 -4 -16 -9z"/>
<path d="M20692 506 c1 -10 8 -17 13 -17 15 1 12 24 -3 29 -9 3 -13 -2 -10
-12z"/>
<path d="M20740 504 c0 -8 5 -12 10 -9 6 3 10 10 10 16 0 5 -4 9 -10 9 -5 0
-10 -7 -10 -16z"/>
<path d="M21047 514 c-12 -12 4 -24 34 -24 16 0 29 5 29 10 0 6 -6 10 -14 10
-8 0 -21 2 -28 5 -8 3 -17 3 -21 -1z"/>
<path d="M21395 510 c-4 -6 -3 -16 3 -22 6 -6 12 -6 17 2 4 6 3 16 -3 22 -6 6
-12 6 -17 -2z"/>
<path d="M21500 510 c-30 -5 -32 -8 -15 -14 11 -4 27 -11 36 -16 9 -5 20 -6
23 -3 9 9 7 43 -1 42 -5 -1 -24 -5 -43 -9z"/>
<path d="M21566 511 c-8 -12 3 -41 15 -41 5 0 9 11 9 25 0 25 -14 34 -24 16z"/>
<path d="M21875 511 c-7 -12 12 -24 25 -16 11 7 4 25 -10 25 -5 0 -11 -4 -15
-9z"/>
<path d="M21926 513 c-11 -11 -6 -23 9 -23 8 0 15 4 15 9 0 13 -16 22 -24 14z"/>
<path d="M22017 498 c-3 -10 -1 -21 4 -24 5 -3 9 0 9 5 0 15 53 14 68 -1 9 -9
15 -9 24 0 9 9 7 13 -5 17 -9 3 -25 8 -34 11 -36 13 -62 10 -66 -8z"/>
<path d="M22365 510 c-4 -6 -3 -16 3 -22 6 -6 12 -6 17 2 4 6 3 16 -3 22 -6 6
-12 6 -17 -2z"/>
<path d="M22457 514 c-11 -11 -8 -44 3 -44 15 0 24 30 13 41 -5 5 -12 6 -16 3z"/>
<path d="M22497 513 c-13 -12 -7 -43 8 -43 9 0 15 9 15 25 0 24 -10 32 -23 18z"/>
<path d="M22755 510 c-8 -13 4 -32 16 -24 5 3 17 0 25 -7 18 -14 45 4 29 20
-16 14 -63 22 -70 11z"/>
<path d="M22852 512 c-17 -5 -15 -32 3 -32 8 0 15 5 15 11 0 6 9 8 20 4 11 -3
20 -2 20 3 0 11 -39 21 -58 14z"/>
<path d="M22932 504 c2 -11 11 -18 20 -16 9 1 19 -2 23 -8 5 -8 11 -7 21 1 8
7 29 9 48 6 25 -4 36 -1 40 9 4 11 -6 14 -52 14 -31 0 -68 3 -81 7 -19 5 -22
2 -19 -13z"/>
<path d="M23175 510 c-34 -6 -43 -36 -10 -33 46 5 75 5 159 -1 88 -6 116 0
116 28 0 11 -206 16 -265 6z"/>
<path d="M23498 513 c-27 -2 -48 -7 -48 -12 0 -4 24 -12 53 -18 41 -9 55 -8
66 2 15 14 7 36 -12 33 -7 -1 -33 -3 -59 -5z"/>
<path d="M19380 500 c0 -6 7 -10 15 -10 8 0 15 2 15 4 0 2 -7 6 -15 10 -8 3
-15 1 -15 -4z"/>
<path d="M20618 503 c6 -2 18 -2 25 0 6 3 1 5 -13 5 -14 0 -19 -2 -12 -5z"/>
<path d="M20960 500 c0 -5 5 -10 11 -10 5 0 7 5 4 10 -3 6 -8 10 -11 10 -2 0
-4 -4 -4 -10z"/>
<path d="M21350 500 c0 -5 5 -10 10 -10 6 0 10 5 10 10 0 6 -4 10 -10 10 -5 0
-10 -4 -10 -10z"/>
<path d="M21795 501 c-6 -11 9 -23 19 -14 9 9 7 23 -3 23 -6 0 -12 -4 -16 -9z"/>
<path d="M21965 500 c3 -5 8 -10 11 -10 2 0 4 5 4 10 0 6 -5 10 -11 10 -5 0
-7 -4 -4 -10z"/>
<path d="M22145 499 c-4 -6 -5 -13 -2 -16 7 -7 27 6 27 18 0 12 -17 12 -25 -2z"/>
<path d="M22187 495 c-8 -19 13 -31 24 -14 13 20 11 29 -5 29 -8 0 -16 -7 -19
-15z"/>
<path d="M22230 495 c0 -9 5 -15 11 -13 6 2 11 8 11 13 0 5 -5 11 -11 13 -6 2
-11 -4 -11 -13z"/>
<path d="M22320 501 c0 -6 5 -13 10 -16 6 -3 10 1 10 9 0 9 -4 16 -10 16 -5 0
-10 -4 -10 -9z"/>
<path d="M22540 496 c0 -9 6 -16 13 -17 67 -6 83 -6 92 -1 6 4 21 5 34 3 16
-2 22 2 19 11 -3 9 -29 14 -81 16 -65 3 -77 1 -77 -12z"/>
<path d="M22270 490 c0 -5 5 -10 10 -10 6 0 10 5 10 10 0 6 -4 10 -10 10 -5 0
-10 -4 -10 -10z"/>
<path d="M5442 478 c-7 -7 -24 -13 -40 -14 -50 -3 -55 -4 -49 -10 3 -3 26 -8
50 -10 32 -3 48 0 57 11 17 20 0 41 -18 23z"/>
<path d="M5608 479 c-2 -5 -24 -10 -51 -12 -26 -1 -48 -7 -50 -12 -3 -12 102
-16 109 -4 3 5 14 9 25 9 10 0 19 4 19 9 0 11 -48 21 -52 10z"/>
<path d="M5735 478 c-58 -20 -60 -22 -22 -26 21 -2 44 2 52 8 10 8 14 8 17 -1
3 -9 33 -13 99 -13 80 0 94 3 97 17 4 21 -27 35 -38 17 -7 -11 -14 -12 -36 -1
-24 10 -30 10 -39 -2 -11 -15 -71 -12 -81 4 -6 10 -9 10 -49 -3z"/>
<path d="M6038 471 c-10 -10 -18 -20 -18 -22 0 -2 25 -4 55 -5 37 -1 54 3 52
10 -2 6 -13 10 -23 9 -10 -1 -23 5 -27 13 -10 18 -18 17 -39 -5z"/>
<path d="M7495 483 c-11 -3 -26 -10 -32 -15 -9 -7 -17 -7 -26 0 -12 11 -84 11
-102 1 -6 -4 -35 -3 -65 0 -98 11 -155 8 -155 -9 0 -15 3 -15 655 -12 47 0
141 0 210 0 116 0 125 1 125 18 0 12 -5 17 -15 15 -26 -8 -552 -6 -557 2 -4 7
-7 7 -38 0z"/>
<path d="M3770 470 c0 -5 5 -10 11 -10 5 0 7 5 4 10 -3 6 -8 10 -11 10 -2 0
-4 -4 -4 -10z"/>
<path d="M4710 465 c0 -10 10 -15 30 -15 32 0 40 14 14 24 -27 10 -44 7 -44
-9z"/>
<path d="M4892 463 c3 -20 39 -29 66 -18 14 6 12 10 -13 21 -41 18 -57 17 -53
-3z"/>
<path d="M6335 473 c-110 -12 -89 -30 36 -32 87 -1 109 8 71 28 -18 9 -41 10
-107 4z"/>
<path d="M6552 472 c-51 -8 -12 -23 70 -27 82 -5 115 3 86 21 -13 8 -117 12
-156 6z"/>
<path d="M6740 465 c0 -8 7 -15 15 -15 8 0 15 7 15 15 0 8 -7 15 -15 15 -8 0
-15 -7 -15 -15z"/>
<path d="M6780 468 c0 -18 35 -23 163 -24 131 -1 163 4 135 23 -16 10 -298 11
-298 1z"/>
<path d="M8135 471 c-10 -18 2 -27 32 -25 15 1 49 3 76 3 26 1 47 5 47 11 0 5
-10 9 -22 8 -13 -1 -46 2 -74 6 -34 5 -54 4 -59 -3z"/>
<path d="M8357 474 c-13 -13 -7 -24 14 -24 11 0 19 5 17 12 -5 14 -22 21 -31
12z"/>
<path d="M8444 469 c-11 -18 9 -28 36 -17 24 10 24 10 5 18 -28 12 -33 12 -41
-1z"/>
<path d="M8540 469 c0 -5 5 -7 10 -4 6 3 10 8 10 11 0 2 -4 4 -10 4 -5 0 -10
-5 -10 -11z"/>
<path d="M8617 473 c-12 -18 10 -34 37 -27 32 8 44 24 17 24 -10 0 -26 3 -34
6 -8 3 -17 1 -20 -3z"/>
<path d="M8793 467 c-3 -5 -1 -13 3 -17 10 -10 64 -1 64 10 0 11 -60 18 -67 7z"/>
<path d="M9307 473 c-26 -7 -10 -23 24 -23 20 0 29 4 27 13 -5 13 -24 17 -51
10z"/>
<path d="M10836 473 c-12 -12 -6 -43 9 -43 8 0 15 9 15 19 0 21 -13 34 -24 24z"/>
<path d="M2605 461 c-9 -16 21 -24 42 -12 10 6 13 11 6 11 -6 0 -18 3 -26 6
-8 3 -18 1 -22 -5z"/>
<path d="M2735 460 c3 -5 8 -10 11 -10 2 0 4 5 4 10 0 6 -5 10 -11 10 -5 0 -7
-4 -4 -10z"/>
<path d="M2825 460 c-3 -5 1 -10 10 -10 9 0 13 5 10 10 -3 6 -8 10 -10 10 -2
0 -7 -4 -10 -10z"/>
<path d="M2880 460 c0 -5 5 -10 10 -10 6 0 10 5 10 10 0 6 -4 10 -10 10 -5 0
-10 -4 -10 -10z"/>
<path d="M3228 463 c6 -2 18 -2 25 0 6 3 1 5 -13 5 -14 0 -19 -2 -12 -5z"/>
<path d="M4390 462 c0 -12 19 -26 26 -19 2 2 -2 10 -11 17 -9 8 -15 8 -15 2z"/>
<path d="M4530 455 c0 -9 5 -15 11 -13 6 2 11 8 11 13 0 5 -5 11 -11 13 -6 2
-11 -4 -11 -13z"/>
<path d="M4577 464 c-12 -12 4 -24 34 -24 34 0 39 15 7 24 -29 7 -33 7 -41 0z"/>
<path d="M4806 462 c-3 -5 8 -12 24 -14 17 -3 30 -1 30 4 0 4 -4 8 -9 8 -5 0
-16 3 -24 6 -8 3 -18 1 -21 -4z"/>
<path d="M5065 461 c-8 -14 10 -22 30 -15 13 5 14 8 3 15 -17 11 -26 11 -33 0z"/>
<path d="M5245 460 c-3 -5 1 -10 9 -10 9 0 16 5 16 10 0 6 -4 10 -9 10 -6 0
-13 -4 -16 -10z"/>
<path d="M5295 459 c-10 -15 3 -25 16 -12 7 7 7 13 1 17 -6 3 -14 1 -17 -5z"/>
<path d="M6150 461 c0 -14 28 -21 60 -14 45 9 36 23 -15 23 -25 0 -45 -4 -45
-9z"/>
<path d="M9175 460 c-3 -5 3 -10 14 -10 12 0 21 5 21 10 0 6 -6 10 -14 10 -8
0 -18 -4 -21 -10z"/>
<path d="M9235 460 c-3 -5 -1 -10 4 -10 6 0 11 5 11 10 0 6 -2 10 -4 10 -3 0
-8 -4 -11 -10z"/>
<path d="M9394 455 c24 -18 49 -20 44 -2 -3 6 -18 13 -34 15 -28 2 -28 2 -10
-13z"/>
<path d="M9630 460 c0 -5 7 -10 15 -10 8 0 15 5 15 10 0 6 -7 10 -15 10 -8 0
-15 -4 -15 -10z"/>
<path d="M10395 461 c-3 -5 -1 -12 4 -15 5 -3 11 1 15 9 6 16 -9 21 -19 6z"/>
<path d="M10568 458 c-3 -7 -12 -13 -21 -13 -26 0 -15 -19 11 -20 31 -1 46 10
39 29 -8 19 -24 21 -29 4z"/>
<path d="M10624 455 c-9 -22 1 -29 15 -11 8 10 9 16 1 21 -5 3 -13 -1 -16 -10z"/>
<path d="M10754 448 c1 -18 7 -22 31 -22 34 0 44 29 10 29 -11 1 -25 4 -31 8
-7 4 -11 -2 -10 -15z"/>
<path d="M11020 454 c0 -9 7 -14 17 -12 25 5 28 28 4 28 -12 0 -21 -6 -21 -16z"/>
<path d="M11270 455 c-10 -12 -9 -16 4 -21 22 -8 46 2 46 21 0 19 -34 20 -50
0z"/>
<path d="M11371 456 c-18 -21 -5 -24 84 -21 115 4 113 3 93 19 -25 18 -162 20
-177 2z"/>
<path d="M11591 456 c-17 -20 -5 -24 58 -22 36 1 56 6 59 15 3 10 -2 12 -22 7
-15 -4 -26 -2 -26 4 0 15 -56 12 -69 -4z"/>
<path d="M2232 449 c2 -6 7 -10 11 -10 4 1 21 1 37 1 17 0 30 5 30 10 0 6 -18
10 -41 10 -25 0 -39 -4 -37 -11z"/>
<path d="M2468 453 c7 -3 16 -2 19 1 4 3 -2 6 -13 5 -11 0 -14 -3 -6 -6z"/>
<path d="M5128 453 c6 -2 18 -2 25 0 6 3 1 5 -13 5 -14 0 -19 -2 -12 -5z"/>
<path d="M6488 453 c7 -3 16 -2 19 1 4 3 -2 6 -13 5 -11 0 -14 -3 -6 -6z"/>
<path d="M8930 450 c0 -5 4 -10 9 -10 6 0 13 5 16 10 3 6 -1 10 -9 10 -9 0
-16 -4 -16 -10z"/>
<path d="M10660 440 c0 -11 6 -20 14 -20 24 0 28 18 6 30 -17 9 -20 8 -20 -10z"/>
<path d="M10880 450 c0 -5 5 -10 10 -10 6 0 10 5 10 10 0 6 -4 10 -10 10 -5 0
-10 -4 -10 -10z"/>
<path d="M10917 454 c-8 -8 1 -24 14 -24 5 0 9 7 9 15 0 15 -12 20 -23 9z"/>
<path d="M11070 445 c-10 -12 -10 -15 4 -15 9 0 16 7 16 15 0 8 -2 15 -4 15
-2 0 -9 -7 -16 -15z"/>
<path d="M11108 453 c7 -3 16 -2 19 1 4 3 -2 6 -13 5 -11 0 -14 -3 -6 -6z"/>
<path d="M11181 446 c-10 -11 -8 -16 9 -21 24 -8 46 7 36 24 -10 15 -31 14
-45 -3z"/>
<path d="M2000 440 c0 -5 7 -10 15 -10 8 0 15 5 15 10 0 6 -7 10 -15 10 -8 0
-15 -4 -15 -10z"/>
<path d="M2180 446 c0 -2 7 -6 15 -10 8 -3 15 -1 15 4 0 6 -7 10 -15 10 -8 0
-15 -2 -15 -4z"/>
<path d="M1843 433 c9 -2 25 -2 35 0 9 3 1 5 -18 5 -19 0 -27 -2 -17 -5z"/>
<path d="M22854 243 c6 -100 16 -136 32 -120 4 3 10 35 13 71 4 40 14 72 24
84 17 19 17 21 -13 46 -57 48 -63 40 -56 -81z"/>
<path d="M23131 339 c-21 -8 -23 -14 -18 -47 4 -20 13 -59 21 -87 11 -37 15
-43 15 -23 1 15 9 49 19 76 14 35 16 54 9 70 -11 24 -12 25 -46 11z"/>
<path d="M22994 326 c-3 -8 -4 -27 -2 -43 4 -36 27 -37 47 -1 13 22 13 29 2
42 -17 20 -40 21 -47 2z"/>
</g>
</svg>
