<?xml version="1.0" standalone="no"?>
<!DOCTYPE svg PUBLIC "-//W3C//DTD SVG 20010904//EN"
 "http://www.w3.org/TR/2001/REC-SVG-20010904/DTD/svg10.dtd">
<svg version="1.0" xmlns="http://www.w3.org/2000/svg"
 width="2448.000000pt" height="3264.000000pt" viewBox="0 0 2448.000000 3264.000000"
 preserveAspectRatio="xMidYMid meet">
<metadata>
Created by potrace 1.12, written by Peter Selinger 2001-2015
</metadata>
<g transform="translate(0.000000,3264.000000) scale(0.100000,-0.100000)"
fill="#000000" stroke="none">
<path d="M5450 31594 c0 -8 5 -12 10 -9 6 4 8 11 5 16 -9 14 -15 11 -15 -7z"/>
<path d="M5300 31151 c0 -14 18 -23 31 -15 8 4 7 9 -2 15 -18 11 -29 11 -29 0z"/>
<path d="M13186 31017 c-37 -48 -134 -249 -197 -404 -58 -145 -56 -144 -130
-118 -64 23 -177 30 -240 15 -114 -26 -155 -75 -138 -164 5 -26 7 -52 4 -56
-12 -19 -119 -50 -171 -50 -50 0 -59 3 -91 35 -29 29 -34 40 -31 72 l3 38 63
7 c44 5 78 16 113 37 27 17 53 31 57 31 22 0 82 64 88 94 7 38 -15 89 -45 106
-61 32 -180 -8 -260 -89 -70 -69 -93 -116 -98 -201 -6 -90 22 -145 92 -180 73
-36 151 -32 252 14 l78 34 86 -29 c160 -54 399 -36 399 30 0 32 -21 41 -70 30
-72 -17 -269 -7 -302 15 -16 10 -28 25 -28 32 0 9 -11 14 -30 14 -24 0 -31 5
-36 27 -4 14 -2 33 3 42 35 56 234 52 350 -8 23 -11 49 -21 57 -21 23 0 46 29
46 59 0 27 30 108 82 221 14 30 50 111 79 180 29 69 61 137 71 153 43 61 -11
94 -56 34z m-762 -433 c9 -3 16 -12 16 -20 0 -30 -172 -116 -192 -96 -23 23
39 83 111 108 43 16 45 16 65 8z"/>
<path d="M9126 30979 c-35 -5 -59 -17 -80 -38 -37 -38 -28 -50 16 -23 48 30
131 39 163 18 37 -24 85 -95 85 -125 0 -32 -48 -62 -146 -90 -70 -19 -139 -50
-229 -102 -27 -16 -58 -32 -67 -35 -26 -9 -68 -87 -62 -115 21 -98 26 -107 78
-142 102 -70 264 -131 386 -146 99 -12 130 -9 130 15 0 30 -66 57 -185 75
-164 25 -275 71 -312 128 -64 95 4 152 296 247 137 44 166 61 182 102 23 61
-56 196 -132 226 -43 17 -50 18 -123 5z"/>
<path d="M10753 30958 c-22 -24 -93 -160 -138 -263 -15 -33 -39 -114 -55 -179
-17 -65 -32 -121 -35 -124 -3 -3 -22 0 -43 8 -55 20 -180 15 -212 -8 -28 -21
-46 -77 -37 -114 13 -51 67 -109 125 -135 47 -22 72 -26 142 -26 75 0 94 4
160 33 41 18 82 39 91 47 8 7 20 13 25 13 14 1 60 44 74 70 28 53 -36 40 -105
-21 -33 -29 -154 -70 -225 -76 -87 -7 -141 9 -179 52 -56 64 -36 141 31 125
74 -17 115 -31 162 -55 38 -19 53 -22 68 -14 15 8 18 16 12 32 -16 44 -8 141
19 219 33 98 105 248 150 316 44 64 52 89 37 107 -18 21 -43 18 -67 -7z"/>
<path d="M3337 30823 c-3 -5 -4 -33 -3 -63 2 -30 -3 -111 -10 -180 -8 -69 -18
-246 -24 -395 -6 -148 -14 -302 -20 -340 -5 -39 -12 -125 -16 -191 -6 -115 -6
-122 14 -142 36 -36 72 -5 50 42 -8 19 -6 58 11 168 12 79 26 184 30 233 9 89
16 482 13 665 -3 133 -26 235 -45 203z"/>
<path d="M9765 30682 c-41 -26 -56 -83 -51 -195 3 -69 8 -94 23 -110 11 -12
37 -47 60 -77 67 -92 170 -130 264 -99 37 13 66 35 57 44 -3 4 -26 1 -49 -6
-57 -17 -83 -13 -136 18 -77 45 -91 113 -24 113 14 0 32 4 40 9 20 13 3 34
-22 27 -11 -3 -40 -2 -65 1 -52 7 -72 31 -83 105 -10 59 1 85 55 137 26 25 32
37 23 43 -21 13 -61 9 -92 -10z"/>
<path d="M6297 30663 c-4 -3 -7 -19 -7 -35 0 -52 79 -62 102 -12 15 33 -5 54
-52 54 -20 0 -40 -3 -43 -7z"/>
<path d="M5348 30628 c-10 -8 -23 -56 -36 -128 -29 -156 -118 -597 -131 -640
-58 -203 -59 -243 -5 -256 38 -10 86 19 148 87 60 67 216 180 268 196 49 14
88 6 88 -18 0 -21 23 -35 40 -24 8 5 8 11 -1 21 -9 11 -8 18 1 29 11 13 8 21
-15 45 -66 69 -185 18 -398 -174 -117 -105 -118 -104 -32 224 14 52 32 129 41
170 38 175 65 299 79 364 14 62 14 71 0 92 -18 27 -25 29 -47 12z"/>
<path d="M10015 30631 c-7 -12 44 -53 56 -45 13 8 11 21 -7 38 -17 18 -40 21
-49 7z"/>
<path d="M11755 30610 c-111 -10 -228 -35 -275 -59 -67 -33 -89 -132 -51 -218
22 -48 50 -69 129 -95 61 -21 213 -35 255 -24 33 8 52 40 38 63 -8 15 -27 18
-110 20 -126 3 -176 16 -218 58 -38 38 -44 82 -13 110 44 40 144 58 330 60 97
0 181 4 188 9 20 12 14 44 -12 61 -30 20 -138 26 -261 15z"/>
<path d="M4029 30580 c-9 -5 -31 -47 -48 -92 -45 -115 -73 -180 -86 -198 -17
-22 -112 -267 -130 -336 -27 -101 -45 -216 -45 -289 0 -69 1 -72 51 -138 50
-66 79 -83 96 -53 5 8 32 15 65 18 41 3 82 17 140 46 109 54 149 89 199 172
35 59 39 73 33 105 -4 23 -16 42 -31 53 -30 19 -144 35 -158 21 -5 -5 -19 -9
-31 -9 -42 0 -140 -68 -217 -150 -42 -44 -78 -77 -80 -73 -7 13 10 156 23 188
7 17 18 54 26 83 8 30 32 97 54 151 22 53 42 111 46 128 4 18 13 38 20 44 8 6
14 19 14 28 0 10 12 42 26 72 15 30 33 71 40 92 7 21 20 48 29 60 20 28 19 73
-1 81 -19 7 -15 8 -35 -4z m194 -767 c33 -19 -35 -113 -126 -175 -100 -68
-229 -101 -244 -62 -13 35 13 69 107 135 52 37 106 76 120 86 38 28 108 36
143 16z"/>
<path d="M6571 30547 c-8 -10 -8 -79 -2 -248 5 -128 7 -237 4 -242 -3 -4 -31
-7 -64 -5 -45 2 -63 -1 -76 -15 -16 -16 -16 -20 -3 -45 14 -24 23 -28 75 -32
l60 -5 -4 -145 c-3 -126 -1 -148 13 -160 15 -11 19 -11 33 2 12 12 16 49 20
162 7 164 4 159 83 170 78 12 195 39 208 49 15 12 15 19 -1 41 -12 17 -19 17
-136 1 -67 -9 -125 -14 -129 -10 -4 4 -7 109 -7 234 0 179 -3 232 -14 244 -16
20 -44 22 -60 4z"/>
<path d="M11021 30516 c-12 -25 -21 -53 -21 -63 0 -10 -9 -35 -20 -56 -14 -25
-21 -59 -22 -106 -2 -63 0 -71 22 -90 77 -63 274 21 343 146 31 57 40 118 18
118 -8 0 -42 -33 -75 -73 -68 -82 -120 -118 -183 -128 -75 -11 -77 1 -15 126
45 93 52 114 45 137 -7 22 -17 29 -41 31 -28 3 -33 -1 -51 -42z"/>
<path d="M10091 30469 c-9 -27 -8 -30 7 -27 10 2 18 14 20 31 4 37 -13 34 -27
-4z"/>
<path d="M8814 30295 c-14 -22 -15 -31 -4 -70 20 -72 56 -67 60 10 4 57 2 63
-20 75 -16 9 -22 6 -36 -15z"/>
<path d="M10165 30280 c-4 -6 -3 -16 3 -22 6 -6 12 -6 17 2 4 6 3 16 -3 22 -6
6 -12 6 -17 -2z"/>
<path d="M6133 30204 c-12 -32 -3 -226 12 -272 12 -32 14 -34 21 -17 4 11 16
30 27 43 l20 22 -23 25 -23 25 20 23 c21 22 31 107 18 148 -8 24 -63 26 -72 3z"/>
<path d="M6155 29830 c-3 -5 1 -10 10 -10 9 0 13 5 10 10 -3 6 -8 10 -10 10
-2 0 -7 -4 -10 -10z"/>
<path d="M5671 29784 c-12 -19 -21 -39 -21 -43 0 -20 -74 -90 -122 -116 -97
-52 -148 -75 -161 -75 -8 0 -22 -9 -32 -20 -20 -23 -65 -26 -95 -8 -41 26 -77
-26 -44 -63 24 -27 83 -25 127 5 19 13 46 27 58 31 30 8 109 42 129 55 8 5 32
19 54 31 64 35 119 78 153 121 46 57 50 77 22 99 -34 26 -44 24 -68 -17z"/>
<path d="M10616 29702 c-3 -5 -5 -49 -4 -98 0 -49 -3 -125 -7 -169 l-8 -80
-51 -47 c-64 -59 -94 -111 -76 -133 7 -8 21 -15 32 -15 18 0 20 -4 13 -32 -5
-18 -9 -53 -9 -78 -1 -38 2 -45 18 -45 24 0 59 83 82 195 9 41 20 82 25 91 21
40 188 109 264 109 31 0 47 -6 65 -25 21 -22 22 -31 17 -90 -3 -36 -11 -74
-17 -85 -6 -12 -10 -42 -8 -68 3 -40 7 -48 29 -56 23 -8 36 -3 88 32 34 22 78
60 98 84 49 59 72 75 84 57 5 -8 9 -25 9 -37 0 -40 30 -90 58 -100 97 -32 191
29 255 166 27 58 28 65 14 79 -14 14 -18 14 -41 -5 -15 -11 -44 -47 -66 -80
-56 -83 -102 -111 -129 -78 -7 8 -16 51 -20 96 -7 61 -14 87 -29 102 -18 19
-21 19 -45 4 -14 -10 -36 -34 -50 -54 -43 -63 -136 -154 -155 -150 -18 4 -18
4 -6 118 6 64 -15 107 -68 140 -44 27 -97 25 -195 -6 -108 -34 -118 -30 -110
44 21 189 21 181 2 202 -18 20 -50 27 -59 12z"/>
<path d="M12521 29686 c-7 -8 -29 -56 -49 -107 -41 -103 -39 -102 -160 -140
-81 -25 -122 -56 -122 -92 0 -40 28 -41 89 -4 31 19 66 38 79 41 35 11 28 -25
-25 -131 -38 -75 -45 -97 -37 -111 29 -45 73 -5 113 103 12 33 33 84 47 113
21 46 27 52 54 52 19 0 42 -11 62 -28 45 -41 45 -102 -1 -196 -34 -72 -34 -87
1 -110 24 -15 47 9 81 84 36 79 45 161 24 211 -17 42 -68 84 -114 94 -17 3
-34 13 -37 22 -4 9 9 44 29 80 37 67 43 101 23 121 -16 16 -43 15 -57 -2z"/>
<path d="M8885 29669 c-7 -10 -29 -253 -42 -446 -6 -99 -5 -101 20 -127 28
-28 52 -34 59 -13 3 6 2 39 -2 72 -4 33 -3 73 3 88 5 16 7 47 4 69 -3 22 -2
48 3 57 14 25 29 273 19 294 -11 19 -54 23 -64 6z"/>
<path d="M12646 29624 c-19 -18 -21 -65 -4 -82 17 -17 24 -15 48 10 25 28 26
64 1 78 -25 13 -27 13 -45 -6z"/>
<path d="M13326 29532 c-15 -17 -15 -23 -2 -59 11 -31 12 -51 5 -79 -29 -113
-31 -127 -21 -150 9 -18 20 -23 54 -26 l43 -3 0 -76 c0 -76 12 -109 41 -109 7
0 17 8 22 18 13 24 37 255 29 276 -9 23 -36 31 -60 17 -29 -19 -39 -1 -28 50
17 73 14 98 -18 130 -34 34 -42 35 -65 11z"/>
<path d="M12932 29485 c-14 -10 -32 -15 -46 -11 -35 9 -44 -10 -66 -125 -32
-164 -25 -216 31 -240 92 -37 239 53 255 157 9 59 -1 140 -21 170 -34 52 -113
77 -153 49z m84 -90 c12 -19 15 -41 12 -87 -4 -53 -9 -65 -36 -89 -34 -31 -73
-45 -97 -35 -20 7 -20 77 -1 141 27 88 87 123 122 70z"/>
<path d="M10177 29439 c-44 -10 -97 -36 -97 -47 0 -11 114 -4 167 10 24 6 61
11 83 12 43 1 55 20 18 30 -32 8 -126 6 -171 -5z"/>
<path d="M9598 29393 c-20 -5 -117 -124 -168 -206 -19 -31 -41 -58 -47 -61
-18 -8 -17 43 3 121 18 73 14 96 -18 91 -31 -4 -45 -38 -68 -165 -25 -138 -25
-185 -2 -206 43 -39 76 -13 147 116 89 164 135 227 165 227 26 0 30 -19 30
-139 0 -117 11 -166 42 -182 28 -15 51 6 43 40 -3 14 -7 79 -10 145 -8 193
-34 241 -117 219z"/>
<path d="M11857 29390 c-130 -33 -194 -120 -173 -234 15 -81 74 -112 196 -103
85 5 144 30 198 80 30 29 43 67 23 67 -5 0 -54 -18 -109 -40 -54 -22 -111 -40
-126 -40 -69 0 -120 64 -93 118 24 49 59 65 159 71 90 6 93 7 96 31 1 14 -2
31 -7 39 -12 18 -110 24 -164 11z"/>
<path d="M9976 29349 c-38 -33 -45 -63 -23 -93 17 -23 100 -34 122 -16 9 8 28
10 49 6 19 -4 37 -2 40 3 12 19 -25 41 -69 41 -52 0 -78 21 -69 55 9 36 -12
38 -50 4z"/>
<path d="M10280 29214 c0 -3 12 -25 26 -50 l26 -44 -46 -45 c-47 -45 -58 -78
-31 -89 18 -7 90 55 111 95 22 44 18 105 -8 123 -21 15 -78 22 -78 10z"/>
<path d="M10127 28973 c-12 -12 -7 -60 8 -73 18 -15 116 -1 122 17 3 9 -4 11
-25 7 -25 -5 -33 -1 -51 25 -22 30 -40 38 -54 24z"/>
<path d="M8805 28872 c-83 -23 -132 -52 -188 -110 -129 -132 -33 -238 242
-267 142 -16 170 -57 117 -171 -33 -71 -75 -115 -154 -162 -99 -59 -160 -76
-243 -68 -63 6 -69 4 -69 -12 0 -29 35 -54 82 -59 44 -4 159 26 248 65 153 68
251 209 238 344 -9 87 -60 118 -238 143 -137 19 -184 38 -188 78 -7 55 104
130 223 150 49 8 71 7 120 -7 87 -24 90 -24 93 5 4 33 -20 53 -87 73 -68 20
-119 19 -196 -2z"/>
<path d="M9965 28547 c9 -135 12 -131 -105 -142 -116 -11 -188 -64 -150 -110
15 -18 41 -13 113 22 64 31 108 39 137 23 20 -11 22 -16 15 -74 -5 -53 -3 -66
13 -86 18 -22 22 -23 37 -10 15 12 17 26 12 90 -3 42 -4 86 -1 97 7 24 49 36
76 22 23 -13 48 -1 48 23 0 18 -5 20 -37 15 -57 -10 -83 20 -84 92 0 76 -27
145 -58 149 l-23 4 7 -115z"/>
<path d="M9545 28611 c-42 -13 -101 -51 -132 -83 -43 -44 -63 -97 -70 -179 -3
-38 -11 -74 -18 -79 -15 -12 -55 0 -74 24 -19 23 -51 21 -51 -3 0 -58 49 -101
114 -101 17 0 34 -12 53 -37 30 -40 111 -83 156 -83 16 0 52 7 81 15 61 18
131 81 120 108 -9 25 -38 21 -86 -13 -45 -32 -101 -46 -140 -37 -29 8 -68 43
-68 61 0 12 111 86 129 86 18 0 104 104 126 153 39 83 31 133 -25 162 -30 15
-79 18 -115 6z m91 -82 c22 -21 22 -23 7 -53 -28 -53 -56 -86 -110 -127 -70
-53 -102 -64 -121 -45 -40 40 68 226 138 239 50 9 64 7 86 -14z"/>
<path d="M11865 28109 c-4 -5 -6 -68 -6 -138 1 -94 -2 -131 -11 -139 -7 -6
-39 -20 -71 -32 -81 -30 -112 -59 -103 -94 10 -40 30 -42 83 -7 51 34 83 40
83 15 0 -8 -12 -56 -27 -105 -20 -66 -24 -95 -17 -107 37 -58 70 0 109 191 20
96 39 112 131 112 72 0 100 -18 110 -72 9 -45 -10 -159 -42 -249 -25 -73 -24
-98 2 -108 25 -10 51 11 68 55 29 72 56 201 56 269 0 87 -22 128 -84 159 -44
22 -52 23 -119 14 -44 -7 -76 -7 -82 -1 -6 5 -9 50 -7 105 2 73 -1 101 -13
119 -16 25 -49 32 -60 13z"/>
<path d="M12202 28004 c-24 -17 -30 -62 -10 -82 18 -18 52 -14 76 8 27 26 28
44 2 70 -24 24 -38 25 -68 4z"/>
<path d="M8845 27973 c-185 -23 -368 -91 -450 -168 -51 -47 -55 -54 -55 -96 0
-35 8 -58 39 -105 69 -106 165 -154 311 -154 85 0 117 5 236 36 49 13 104 52
104 74 0 23 -34 21 -113 -5 -111 -36 -252 -45 -329 -21 -85 27 -158 103 -158
164 0 44 34 76 132 124 112 54 163 68 279 76 l104 7 3 27 c3 22 -2 30 -23 38
-14 5 -32 9 -38 9 -7 -1 -25 -4 -42 -6z"/>
<path d="M11502 27878 c-5 -7 -15 -32 -21 -55 -25 -91 -186 -293 -234 -293
-34 0 -39 21 -22 87 19 74 19 86 -4 114 -31 38 -53 16 -67 -67 -23 -128 -11
-194 37 -209 59 -19 171 40 239 126 86 108 142 240 122 285 -13 26 -34 31 -50
12z"/>
<path d="M12691 27761 c-31 -32 -74 -84 -96 -114 -53 -75 -70 -81 -61 -25 17
110 18 128 6 143 -32 38 -64 7 -75 -71 -3 -27 -22 -95 -42 -152 -30 -86 -34
-107 -25 -128 14 -30 50 -32 86 -3 33 26 96 110 124 164 20 41 112 135 132
135 18 0 11 -43 -20 -123 -41 -106 -38 -164 6 -155 13 2 26 22 40 63 11 33 33
95 47 137 44 126 32 188 -37 188 -21 0 -42 -15 -85 -59z"/>
<path d="M13310 27811 c-19 -4 -50 -15 -68 -25 -54 -28 -160 -207 -177 -299
-8 -43 20 -77 63 -77 35 1 60 15 119 70 99 92 143 115 143 75 0 -26 -114 -238
-181 -335 -35 -52 -92 -121 -126 -154 -35 -33 -63 -68 -63 -78 0 -54 101 18
211 152 98 118 162 228 232 399 45 109 60 182 42 211 -5 8 -20 10 -45 6 -34
-5 -38 -4 -44 19 -6 22 -43 47 -64 44 -4 -1 -23 -4 -42 -8z m79 -80 c19 -12 6
-43 -39 -90 -40 -41 -158 -131 -172 -131 -18 0 -6 54 24 107 47 84 91 123 136
123 20 0 43 -4 51 -9z"/>
<path d="M10073 27765 c-15 -19 -50 -72 -78 -117 -29 -47 -59 -84 -69 -86 -17
-4 -18 1 -12 54 11 86 10 106 -9 120 -39 28 -57 -5 -74 -137 -19 -149 -11
-189 41 -189 38 0 55 19 107 115 35 65 53 90 67 90 19 0 20 -5 23 -77 1 -36
33 -68 67 -68 19 0 45 19 98 75 47 49 80 75 94 75 21 0 22 -4 22 -79 0 -83 11
-106 47 -99 13 2 20 16 25 53 17 127 0 234 -39 249 -23 9 -79 -32 -128 -94
-11 -14 -37 -39 -58 -54 -55 -42 -64 -28 -48 75 11 71 10 84 -4 105 -21 33
-39 30 -72 -11z"/>
<path d="M10850 27747 c-36 -18 -78 -42 -93 -54 -35 -27 -75 -85 -84 -121 -3
-15 -12 -32 -18 -39 -7 -6 -34 -74 -60 -150 -70 -204 -72 -303 -6 -303 43 0
87 98 106 239 9 72 16 78 96 85 l73 8 68 68 c79 79 107 134 108 207 0 44 -4
55 -26 72 -37 29 -87 26 -164 -12z m113 -58 c15 -25 -19 -86 -96 -170 -47 -52
-60 -60 -79 -54 -13 4 -35 9 -50 12 -21 4 -28 12 -29 29 -1 13 -2 28 -3 33 -1
4 23 34 52 66 28 32 52 62 52 66 0 11 38 31 75 39 34 8 65 -1 78 -21z"/>
<path d="M9277 27680 c-50 -44 -114 -181 -103 -223 3 -13 24 -41 47 -62 l42
-37 76 4 c59 4 89 12 138 36 79 41 190 150 199 198 8 41 -14 80 -54 96 -38 15
-131 12 -182 -6 -42 -14 -46 -14 -65 4 -30 28 -59 25 -98 -10z m290 -57 c13
-9 23 -19 23 -25 0 -60 -230 -187 -295 -162 -21 8 -30 50 -17 78 9 20 93 83
167 125 24 13 90 5 122 -16z"/>
<path d="M5778 26694 c-14 -14 -69 -16 -439 -20 -233 -2 -487 -6 -564 -9 -77
-2 -268 -4 -425 -5 -369 0 -1259 -18 -1515 -30 l-200 -9 -23 24 c-28 31 -46
31 -151 0 -91 -27 -131 -48 -131 -69 0 -7 -7 -19 -15 -26 -8 -7 -17 -28 -20
-49 -4 -20 -15 -71 -26 -114 -45 -174 -71 -375 -104 -797 -11 -151 -14 -326
-12 -775 2 -319 0 -636 -4 -705 -13 -211 18 -303 116 -339 119 -45 391 -71
930 -91 160 -6 405 -17 545 -25 393 -23 675 -34 1025 -40 315 -5 637 -16 1070
-35 121 -5 285 -12 365 -15 556 -21 1366 -64 1495 -80 22 -3 220 -14 440 -25
695 -34 975 -50 1150 -65 209 -18 714 -50 1010 -65 507 -24 695 -33 780 -35
50 -2 190 -8 313 -15 122 -6 267 -12 322 -12 55 -1 105 -5 112 -9 25 -16 -7
-471 -47 -649 -28 -128 -36 -204 -36 -358 -1 -168 8 -212 40 -212 34 0 41 32
41 196 0 87 5 209 11 271 10 91 9 116 -1 128 -15 18 -5 32 25 36 13 2 36 -14
65 -43 34 -34 60 -50 100 -62 164 -47 440 -48 440 -2 0 29 -26 36 -129 36
-208 0 -338 26 -365 73 -18 30 12 42 156 66 151 24 278 55 422 103 108 36 135
58 102 83 -22 17 -32 15 -173 -31 -56 -19 -153 -45 -215 -58 -62 -14 -142 -34
-178 -45 -36 -12 -71 -21 -77 -21 -23 0 -13 32 28 93 52 75 119 214 119 244 0
29 -23 30 -50 3 -20 -20 -72 -117 -85 -159 -6 -20 -107 -211 -122 -230 -2 -3
-9 1 -15 7 -9 9 -8 37 5 119 10 64 17 164 17 244 0 95 4 140 13 153 12 16 25
17 172 7 88 -6 266 -13 395 -16 129 -3 296 -8 370 -10 74 -3 293 -9 485 -15
193 -5 393 -12 445 -15 129 -6 788 -14 1600 -20 1492 -10 2026 -16 2265 -27
448 -19 609 -23 698 -18 77 5 90 9 113 32 25 25 28 37 55 284 41 368 67 582
94 789 42 311 92 872 110 1235 10 202 54 789 65 860 17 112 13 157 -13 175
-54 35 -333 50 -662 36 -352 -16 -783 -30 -1063 -36 -298 -7 -2356 -7 -2487 0
-49 2 -241 7 -425 10 -409 7 -1099 28 -1670 50 -69 2 -224 7 -345 10 -121 3
-278 7 -350 10 -71 3 -339 7 -595 10 -256 3 -573 7 -705 10 -132 3 -397 7
-590 10 -844 12 -1034 16 -1265 25 -135 5 -508 12 -830 15 -322 3 -646 8 -720
11 -74 2 -373 7 -663 9 -443 4 -533 8 -557 20 -36 19 -42 19 -62 -1z m777 -89
c270 -3 553 -8 630 -10 77 -2 399 -7 715 -11 316 -3 598 -7 625 -9 127 -7 496
-16 875 -20 228 -3 512 -7 630 -10 118 -3 411 -7 650 -10 239 -3 514 -7 610
-10 96 -3 337 -7 535 -10 198 -3 384 -8 413 -11 l52 -5 0 -50 c0 -27 -7 -141
-15 -252 -21 -271 -37 -360 -160 -892 -44 -187 -75 -351 -111 -585 -20 -124
-42 -265 -50 -315 -46 -289 -67 -551 -58 -707 5 -80 2 -107 -20 -191 -31 -115
-31 -123 -9 -131 22 -9 45 16 73 84 22 51 24 73 31 320 8 296 15 359 104 920
54 340 80 476 147 755 86 362 112 561 121 945 l2 95 70 0 c61 0 610 -19 875
-30 52 -2 235 -7 405 -10 171 -4 330 -8 355 -10 88 -6 1266 -17 1890 -19 809
-1 1154 3 1670 22 228 8 557 16 730 16 291 1 318 0 344 -17 25 -17 27 -23 23
-60 -21 -170 -62 -700 -72 -927 -4 -74 -15 -247 -26 -385 -11 -137 -24 -306
-29 -375 -11 -142 -26 -285 -40 -380 -11 -71 -26 -188 -70 -565 -58 -501 -59
-509 -75 -525 -20 -19 -287 -20 -725 -2 -162 6 -758 14 -1325 17 -1934 10
-2138 13 -3175 45 -342 10 -536 16 -1080 31 -195 5 -418 14 -495 19 -77 5
-252 14 -390 20 -137 5 -281 12 -320 15 -38 2 -167 9 -285 15 -377 18 -639 33
-910 50 -85 5 -231 14 -325 20 -93 6 -264 17 -380 26 -281 20 -326 22 -495 29
-80 4 -284 15 -455 26 -170 10 -386 24 -480 29 -93 6 -237 15 -320 20 -82 5
-238 14 -345 19 -107 6 -240 13 -295 16 -190 11 -698 24 -706 19 -5 -3 -31 -2
-60 2 l-51 7 5 46 c2 25 12 80 22 121 13 58 15 91 9 145 -5 39 -9 275 -10 525
-1 378 2 461 14 492 11 28 12 44 4 68 -8 21 -10 121 -6 303 8 442 24 936 34
1027 6 47 10 112 10 145 0 33 4 65 8 72 9 14 58 20 137 16 33 -1 281 -5 550
-8z m-771 -55 c0 -30 -5 -109 -12 -175 -14 -150 -32 -678 -35 -1015 l-2 -255
-70 -6 c-84 -7 -111 -18 -159 -59 -63 -56 -72 -16 -30 133 64 225 63 223 29
239 -21 9 -29 9 -41 -4 -19 -19 -52 -161 -68 -288 l-11 -95 -50 -3 c-27 -2
-55 -8 -62 -14 -49 -41 48 -199 140 -229 23 -7 58 -21 77 -31 19 -10 47 -18
62 -18 22 0 27 5 30 27 2 20 16 35 58 60 73 44 96 41 93 -12 -7 -123 -10 -801
-5 -860 5 -45 2 -95 -7 -139 -10 -53 -11 -79 -2 -105 6 -22 7 -39 1 -45 -5 -5
-72 -4 -172 3 -216 16 -281 19 -623 25 -479 10 -961 29 -1140 46 -55 5 -221
14 -370 19 -451 18 -548 22 -600 27 -27 2 -77 6 -110 9 -33 2 -109 11 -170 19
-60 8 -135 18 -165 22 -72 9 -116 29 -132 56 -9 18 -12 186 -13 728 0 800 2
875 40 1285 11 114 45 333 65 416 10 46 22 101 25 121 3 21 17 50 30 66 21 25
34 30 87 36 112 11 966 36 1588 46 561 9 1063 20 1067 24 1 0 149 1 330 1
l328 0 -1 -55z m-60 -1536 c9 -8 16 -23 16 -33 0 -24 -67 -87 -115 -107 -82
-34 -95 -35 -121 -9 -32 32 -30 63 5 105 43 53 179 80 215 44z"/>
<path d="M9423 26408 c-6 -7 -13 -65 -16 -128 -6 -105 -42 -282 -76 -373 -42
-109 -115 -443 -181 -827 -22 -129 -47 -269 -55 -310 -7 -41 -27 -147 -43
-235 -53 -284 -57 -331 -56 -640 0 -159 3 -302 7 -317 8 -30 43 -46 61 -28 8
8 11 102 12 323 0 363 11 455 114 967 11 52 31 163 45 245 80 462 97 543 175
805 58 197 78 290 87 410 4 65 3 93 -7 105 -15 18 -54 20 -67 3z"/>
<path d="M14035 25656 c-82 -26 -164 -92 -224 -182 -42 -63 -101 -202 -122
-289 -7 -31 -24 -64 -44 -85 -63 -68 -69 -106 -30 -192 21 -45 23 -60 15 -89
-12 -42 -26 -376 -16 -412 8 -34 41 -53 63 -36 13 11 14 40 8 208 -8 236 -6
244 65 206 91 -50 211 -106 257 -120 29 -9 95 -15 167 -16 116 -1 121 -2 163
-30 83 -57 143 -72 288 -71 157 1 410 26 514 51 164 40 242 85 262 150 29 97
-39 165 -221 222 -64 20 -95 24 -205 23 -111 -1 -144 -5 -225 -29 -52 -15
-114 -30 -137 -32 -68 -8 -70 -14 114 364 19 39 43 79 54 89 33 30 19 84 -21
84 -40 0 -66 -46 -196 -339 -75 -169 -83 -203 -55 -248 30 -47 71 -51 184 -19
127 36 195 46 310 46 141 0 262 -35 311 -89 41 -45 -22 -95 -159 -126 -306
-71 -733 -86 -751 -26 -14 45 -17 46 -140 47 -76 0 -144 7 -188 18 -94 23
-302 125 -344 168 -32 34 -33 38 -28 93 4 35 13 66 23 78 21 23 118 70 458
220 77 34 164 86 181 108 6 8 16 30 22 49 37 115 -80 221 -241 219 -40 0 -90
-6 -112 -13z m223 -89 c23 -15 49 -38 58 -53 16 -24 16 -27 -2 -51 -10 -14
-57 -44 -104 -68 -276 -139 -441 -217 -446 -212 -24 24 84 252 151 322 37 37
73 60 145 88 8 4 47 5 86 4 58 -2 78 -7 112 -30z"/>
<path d="M7178 25616 c-56 -15 -136 -75 -219 -164 -77 -82 -102 -139 -135
-312 -3 -19 -15 -49 -25 -66 -23 -38 -24 -62 -5 -106 8 -18 20 -87 26 -153 18
-201 71 -321 139 -313 36 4 37 29 2 79 -17 24 -40 69 -51 101 -22 64 -46 195
-37 204 3 4 37 -11 74 -31 95 -53 201 -105 215 -105 6 0 71 -29 145 -65 130
-64 175 -76 189 -54 3 6 -2 19 -12 30 -15 14 -309 155 -490 234 -17 8 -52 33
-79 57 -36 33 -47 51 -47 72 0 36 23 57 197 173 278 186 344 251 331 331 -14
86 -98 120 -218 88z m122 -61 c21 -23 22 -28 11 -64 -13 -44 -77 -107 -176
-174 -33 -22 -99 -69 -146 -104 -48 -35 -92 -63 -98 -63 -21 0 -11 65 21 145
27 68 43 91 103 149 103 100 159 136 216 136 36 0 51 -5 69 -25z"/>
<path d="M8132 25498 c-21 -35 -94 -219 -119 -301 -8 -27 -20 -98 -28 -158 -7
-61 -16 -113 -19 -117 -4 -3 -34 4 -69 16 -76 27 -113 28 -154 2 -43 -26 -67
-74 -67 -135 0 -66 27 -113 85 -145 37 -20 56 -24 119 -23 84 1 140 18 206 63
25 16 59 37 77 46 35 18 48 34 40 46 -5 10 -32 4 -81 -18 -53 -25 -66 -16 -76
49 -19 121 47 397 137 570 56 108 56 129 0 135 -25 3 -34 -3 -51 -30z m-222
-634 c40 -34 86 -122 71 -137 -13 -13 -130 -22 -166 -13 -58 15 -70 115 -18
156 35 27 75 25 113 -6z"/>
<path d="M10310 25507 c-124 -35 -236 -128 -324 -270 -76 -122 -94 -184 -127
-437 -38 -294 0 -520 87 -520 33 0 41 36 16 70 -35 47 -51 126 -58 280 -8 174
0 206 37 141 33 -59 95 -96 239 -140 146 -46 339 -87 363 -78 22 8 22 44 -1
56 -10 5 -65 21 -122 35 -143 36 -344 109 -386 141 -25 19 -34 34 -34 56 0 27
6 32 53 52 180 74 407 207 474 279 23 24 36 49 43 87 30 161 -106 291 -260
248z m100 -77 c48 -24 89 -77 96 -122 4 -24 0 -42 -18 -68 -27 -40 -127 -123
-178 -149 -61 -31 -345 -192 -354 -202 -18 -17 -36 -9 -36 15 0 40 49 185 86
256 70 134 177 242 272 273 63 21 86 21 132 -3z"/>
<path d="M11059 24989 c-10 -19 -17 -20 -63 -15 -116 15 -269 -73 -295 -169
-40 -146 43 -242 148 -172 57 38 125 110 176 187 25 38 50 72 54 74 11 7 20
-2 99 -96 110 -130 169 -176 207 -162 25 10 17 42 -16 71 -37 32 -146 162
-207 246 -47 63 -82 75 -103 36z m-80 -98 c19 -12 4 -35 -76 -113 -63 -61
-114 -90 -130 -75 -3 4 -6 25 -6 47 0 73 83 149 163 149 19 1 41 -3 49 -8z"/>
<path d="M4187 25318 c-76 -17 -153 -93 -197 -198 -19 -45 -43 -86 -52 -91
-21 -12 -23 -36 -4 -58 10 -12 15 -62 19 -180 6 -151 8 -166 28 -187 30 -32
46 -30 68 7 24 39 65 193 58 213 -8 20 -36 20 -65 0 -21 -14 -23 -14 -33 13
-14 35 -5 131 14 150 7 8 62 34 122 59 129 53 164 73 204 119 70 80 44 150
-59 159 -30 3 -77 0 -103 -6z m103 -66 l23 -18 -41 -35 c-22 -19 -80 -54 -128
-78 -79 -39 -88 -41 -103 -27 -14 15 -14 20 8 61 24 45 70 87 113 105 39 15
104 11 128 -8z"/>
<path d="M3380 25249 c-77 -31 -160 -149 -162 -231 -3 -185 137 -310 297 -264
78 23 196 134 221 208 42 128 -40 247 -196 282 -78 18 -124 19 -160 5z m165
-72 c47 -14 121 -81 130 -120 13 -51 -4 -97 -57 -153 -110 -116 -246 -107
-307 19 -25 52 -27 116 -5 160 21 42 18 39 61 47 24 4 37 11 35 19 -2 8 5 22
15 33 18 21 44 20 128 -5z"/>
<path d="M4625 25208 c-45 -26 -128 -104 -151 -143 -37 -63 -33 -115 12 -165
48 -53 93 -66 179 -52 44 7 76 7 101 1 28 -8 50 -6 105 11 80 24 142 73 159
125 14 44 21 183 9 191 -5 3 -26 7 -46 8 -21 2 -65 7 -99 11 -47 6 -67 4 -92
-9 -37 -19 -40 -41 -11 -72 l22 -23 -57 -62 c-31 -34 -56 -70 -56 -79 0 -28
-26 -43 -62 -35 -52 11 -86 33 -102 63 -21 41 -4 68 78 123 74 49 102 85 84
106 -13 16 -46 16 -73 1z m341 -154 c17 -66 -51 -126 -136 -122 -39 3 -45 6
-48 26 -4 29 18 56 77 94 59 37 98 38 107 2z"/>
<path d="M2202 23293 c-42 -15 -57 -160 -41 -398 5 -73 4 -116 -4 -130 -12
-23 -46 -213 -47 -265 -1 -91 48 -200 91 -200 36 0 39 23 12 90 -24 61 -25 72
-21 191 8 194 26 208 128 99 45 -48 73 -70 89 -70 20 0 23 4 18 28 -2 15 -11
41 -18 59 -7 18 -11 35 -8 37 11 11 124 10 316 -3 160 -11 211 -12 243 -2 79
24 27 79 -61 65 -22 -4 -105 -1 -185 6 -117 10 -170 10 -265 0 -111 -11 -121
-11 -151 7 -18 10 -40 31 -48 46 -14 25 -13 28 8 49 21 21 32 23 134 23 119 0
137 8 102 46 -25 27 -134 27 -198 -2 -26 -11 -54 -18 -62 -15 -18 7 -18 65 1
192 8 54 15 107 15 116 0 19 -28 38 -48 31z"/>
<path d="M8895 23276 c-17 -12 -17 -19 -7 -82 11 -66 8 -373 -4 -453 -5 -33
-6 -33 -47 -28 -23 3 -86 13 -139 22 -134 24 -200 8 -184 -43 6 -17 21 -20
129 -26 167 -10 201 -17 205 -41 2 -11 8 -30 14 -42 15 -30 0 -57 -69 -127
-80 -81 -69 -127 17 -70 22 15 42 25 45 23 2 -3 9 -63 15 -134 14 -151 15
-154 35 -161 46 -18 59 81 30 241 -20 107 -19 174 0 181 8 4 21 2 28 -4 6 -5
63 -26 125 -47 121 -40 207 -50 221 -26 21 34 -15 54 -160 91 -126 32 -149 44
-149 76 l0 26 210 -3 c180 -3 211 -2 225 12 21 21 10 44 -27 60 -25 10 -59 10
-167 2 -75 -7 -149 -17 -165 -22 -56 -22 -49 3 20 64 60 55 67 64 55 79 -7 9
-17 16 -22 16 -5 0 -43 -32 -86 -70 -42 -39 -81 -69 -87 -67 -13 5 -13 49 2
182 12 108 14 295 3 334 -3 13 -16 30 -27 37 -17 12 -23 12 -39 0z"/>
<path d="M5592 23258 c-17 -17 -15 -45 7 -108 31 -88 34 -153 19 -406 -17
-317 -15 -516 6 -549 18 -27 47 -32 65 -12 8 10 8 36 1 93 -11 83 -7 247 11
529 7 93 9 204 5 247 -8 93 -40 204 -62 212 -24 9 -39 7 -52 -6z"/>
<path d="M7815 23058 c-11 -6 -27 -21 -37 -32 -24 -30 -76 -165 -95 -247 -13
-59 -20 -72 -44 -84 -37 -20 -144 -35 -250 -35 -201 0 -276 71 -174 166 48 45
53 55 31 73 -23 20 -80 -11 -113 -60 -24 -36 -28 -53 -28 -110 0 -61 3 -71 28
-97 51 -53 208 -75 342 -47 44 9 97 20 118 25 48 10 54 -1 38 -78 -6 -31 -14
-98 -18 -147 -5 -76 -3 -92 11 -104 30 -25 43 -7 50 76 14 154 96 494 141 584
9 19 29 47 43 62 21 22 24 31 16 45 -14 22 -33 25 -59 10z"/>
<path d="M3460 23034 c-61 -52 -140 -194 -140 -252 0 -77 104 -159 230 -182
88 -16 156 -3 293 55 18 7 18 0 11 -168 l-7 -175 27 -27 c47 -46 50 -35 57
171 4 104 9 214 13 244 4 30 14 113 23 183 15 120 15 129 -1 145 -15 15 -19
15 -44 2 -16 -10 -28 -25 -29 -40 -1 -14 -5 -74 -9 -133 -5 -88 -9 -109 -23
-114 -9 -2 -40 -16 -70 -31 -47 -22 -67 -26 -160 -26 -119 -1 -161 10 -209 53
-46 43 -42 67 31 167 83 115 88 125 75 141 -16 19 -33 16 -68 -13z"/>
<path d="M10379 23029 c-62 -45 -202 -189 -233 -243 -20 -34 -26 -58 -26 -102
0 -130 87 -178 325 -179 112 0 124 2 178 28 135 67 102 98 -64 60 -62 -14 -86
-14 -160 -4 -149 19 -219 64 -204 129 13 61 168 219 263 266 33 17 41 43 20
64 -20 20 -53 14 -99 -19z"/>
<path d="M10896 23007 c-75 -92 -124 -249 -185 -587 -29 -166 -29 -168 -16
-187 16 -21 43 -11 49 19 3 13 30 127 61 253 82 341 121 449 171 481 36 24 29
58 -12 62 -27 3 -37 -4 -68 -41z"/>
<path d="M14533 22949 c-142 -63 -253 -173 -253 -251 0 -61 35 -98 126 -135
44 -18 112 -39 150 -47 83 -18 311 -35 372 -29 40 5 42 4 42 -21 0 -14 -16
-78 -35 -142 -19 -63 -35 -128 -35 -144 0 -33 22 -45 43 -22 35 41 110 279
143 458 29 158 54 247 79 286 28 42 24 68 -9 68 -54 0 -94 -83 -131 -271 -14
-73 -28 -135 -30 -139 -7 -11 -294 0 -374 14 -153 27 -251 78 -251 131 0 55
113 146 223 180 77 23 106 50 84 77 -23 31 -50 28 -144 -13z"/>
<path d="M18136 22961 c-20 -22 -22 -61 -11 -164 10 -87 -19 -451 -56 -697
-33 -220 -35 -258 -15 -266 32 -12 57 28 82 132 30 123 40 202 59 474 21 308
24 502 6 523 -18 22 -44 21 -65 -2z"/>
<path d="M4840 22895 c-16 -20 -6 -43 22 -50 430 -96 508 -117 508 -135 0 -15
-49 -44 -195 -119 -193 -98 -207 -107 -203 -134 5 -36 42 -33 116 11 37 21
112 63 167 92 156 83 205 117 205 141 0 56 -47 81 -250 129 -74 17 -175 43
-223 56 -102 28 -130 30 -147 9z"/>
<path d="M6005 22901 c-49 -12 -124 -60 -192 -124 -118 -110 -82 -155 184
-232 92 -27 143 -25 143 6 0 23 -24 36 -125 69 -63 21 -80 31 -80 46 0 17 7
19 80 16 44 -2 112 -9 150 -17 202 -39 203 -39 219 -25 24 19 19 48 -12 64
-15 8 -81 22 -146 31 -98 15 -132 16 -205 6 -101 -13 -161 -14 -161 -3 0 11
62 57 95 69 17 7 46 15 65 19 43 8 60 21 60 45 0 15 -30 42 -42 38 -2 -1 -17
-4 -33 -8z"/>
<path d="M11378 22854 c-18 -39 -2 -55 108 -99 54 -23 118 -53 142 -68 65 -42
59 -59 -54 -142 -52 -38 -118 -81 -146 -95 -56 -27 -75 -48 -65 -74 15 -38 69
-15 204 85 108 81 173 155 173 194 0 39 -57 90 -161 144 -46 24 -96 52 -111
62 -38 28 -76 25 -90 -7z"/>
<path d="M17260 22815 c-7 -8 -10 -21 -7 -29 7 -17 16 -20 269 -81 103 -24
215 -56 249 -70 66 -27 129 -69 129 -87 0 -10 -303 -6 -465 6 -27 3 -106 7
-175 11 -215 12 -720 64 -905 95 -129 21 -195 6 -195 -46 0 -23 2 -24 70 -24
38 0 118 -7 177 -15 118 -16 455 -50 598 -60 50 -4 101 -9 115 -12 14 -2 177
-7 363 -10 237 -4 337 -9 334 -17 -5 -15 -267 -125 -299 -126 -15 0 -30 5 -33
10 -21 34 -88 -22 -83 -69 3 -23 8 -26 45 -29 56 -4 163 34 350 125 146 71
203 112 203 148 0 49 -142 139 -295 188 -321 102 -420 123 -445 92z"/>
<path d="M4368 22769 c-20 -11 -24 -44 -8 -54 6 -3 128 -11 273 -16 144 -6
301 -13 348 -17 103 -9 134 -3 134 23 0 17 -9 21 -55 27 -67 8 -313 27 -435
33 -49 3 -124 7 -165 10 -44 3 -82 1 -92 -6z"/>
<path d="M11101 22716 c-7 -8 -11 -27 -9 -43 4 -40 53 -60 218 -90 145 -27
194 -25 188 5 -4 25 -62 49 -167 72 -51 11 -115 32 -142 45 -56 29 -72 31 -88
11z"/>
<path d="M8141 22611 c-26 -26 -26 -33 -3 -58 16 -19 28 -19 277 -12 162 5
284 14 323 22 68 16 77 21 68 36 -9 14 -83 20 -378 26 -261 6 -267 6 -287 -14z"/>
<path d="M5967 22076 c-3 -8 8 -36 25 -62 17 -27 53 -93 82 -148 68 -133 184
-254 296 -309 113 -56 175 -69 350 -74 148 -5 163 -3 330 30 160 32 236 47
405 77 33 6 170 14 305 17 215 5 266 3 410 -16 241 -31 561 -114 755 -196 286
-120 421 -224 545 -424 76 -122 134 -188 173 -197 26 -6 38 3 140 108 169 173
334 286 532 362 281 108 748 129 1245 55 36 -5 97 -13 135 -19 150 -20 449
-73 635 -111 333 -70 562 -113 950 -179 96 -16 220 -39 275 -50 240 -47 623
-94 855 -105 293 -13 372 -15 685 -20 723 -11 979 38 1515 293 47 22 119 54
160 72 212 91 247 109 287 148 25 25 33 41 33 68 0 60 -25 55 -91 -19 -50 -55
-71 -70 -137 -97 -42 -17 -99 -42 -127 -55 -100 -48 -421 -188 -485 -212 -75
-28 -137 -47 -230 -69 -36 -8 -83 -20 -105 -25 -150 -37 -374 -50 -815 -48
-217 0 -411 2 -430 4 -19 2 -129 8 -245 14 -244 12 -446 34 -670 71 -89 15
-189 31 -240 40 -142 22 -674 124 -980 186 -93 19 -242 48 -330 64 -88 16
-182 34 -210 40 -158 32 -615 93 -785 104 -148 10 -421 8 -520 -4 -204 -24
-326 -56 -490 -128 -178 -78 -337 -188 -473 -329 -53 -54 -88 -82 -97 -78 -8
3 -33 38 -55 77 -88 159 -190 272 -325 361 -207 136 -693 297 -1015 337 -49 6
-123 15 -163 21 -40 5 -135 9 -211 9 -209 0 -345 -15 -661 -75 -69 -13 -195
-31 -280 -41 -130 -14 -171 -14 -255 -4 -273 32 -418 139 -544 399 -64 134
-78 151 -116 151 -19 0 -35 -6 -38 -14z"/>
<path d="M12409 20728 c-105 -123 -212 -259 -224 -285 -9 -18 -20 -35 -25 -38
-5 -3 -35 2 -67 11 -32 9 -90 17 -129 18 -87 1 -108 -12 -99 -60 7 -40 -16
-57 -73 -52 -37 3 -37 4 -65 83 -38 110 -80 142 -123 94 -28 -31 -114 -99
-126 -99 -7 0 -8 18 -4 51 8 55 -3 79 -35 79 -34 0 -53 -46 -54 -126 0 -125
33 -133 151 -39 38 30 74 55 80 55 17 0 29 -19 50 -79 10 -30 29 -60 42 -69
29 -19 102 -10 150 18 l34 21 117 -40 c101 -35 131 -41 229 -45 94 -4 115 -2
128 12 15 14 15 17 0 28 -9 6 -62 15 -118 19 -107 7 -189 25 -240 51 -51 27
-20 37 55 18 102 -25 114 -18 272 170 55 65 110 130 122 145 25 29 29 51 11
69 -18 18 -37 15 -59 -10z"/>
<path d="M8839 20631 c-83 -33 -179 -113 -212 -176 -50 -97 -5 -251 88 -299
33 -17 58 -21 140 -21 104 1 165 16 280 69 68 32 141 111 149 162 8 46 -7 124
-31 160 -23 35 -86 65 -152 71 -32 4 -68 14 -85 26 -40 29 -119 32 -177 8z
m86 -60 c3 -5 -9 -19 -25 -31 -24 -17 -30 -29 -28 -49 4 -34 43 -42 53 -11 14
43 122 72 188 51 52 -18 97 -73 97 -119 0 -79 -53 -133 -180 -181 -151 -57
-254 -47 -310 31 -35 48 -48 116 -30 159 16 39 91 114 139 139 39 20 86 26 96
11z"/>
<path d="M10225 20564 c-11 -3 -30 -7 -43 -10 -31 -6 -97 -68 -112 -104 -8
-19 -20 -30 -32 -30 -24 0 -58 -18 -58 -30 0 -6 14 -22 30 -37 17 -14 30 -35
30 -45 0 -27 27 -76 48 -86 34 -18 88 -22 106 -9 18 13 16 16 -25 38 -33 19
-44 30 -44 49 0 21 8 27 72 46 117 36 183 88 183 146 0 50 -84 89 -155 72z
m62 -80 c14 -36 -121 -124 -149 -96 -15 15 7 67 40 92 31 25 100 27 109 4z"/>
<path d="M10855 20541 c-210 -73 -379 -184 -467 -305 -32 -45 -33 -49 -13 -69
24 -24 52 -9 109 60 48 58 177 174 231 208 30 19 65 28 65 16 0 -6 -11 -27
-25 -48 -17 -24 -25 -48 -23 -68 6 -58 79 -43 202 42 27 18 54 32 60 30 6 -2
16 -34 22 -72 12 -71 39 -110 73 -103 18 4 18 14 6 144 -5 56 -4 87 4 103 18
33 5 61 -30 61 -22 0 -34 -8 -54 -38 -37 -56 -120 -112 -165 -112 l-21 0 20
29 c12 16 42 43 69 60 91 58 94 61 81 77 -17 20 -54 17 -144 -15z"/>
<path d="M9682 20519 c-79 -25 -146 -90 -217 -209 -121 -204 -149 -291 -97
-298 31 -5 53 16 107 103 l45 73 58 -1 c41 -1 70 5 105 22 100 48 217 185 217
254 0 16 -10 38 -25 52 -31 32 -102 33 -193 4z m128 -49 c16 -29 -11 -79 -76
-140 -83 -78 -174 -111 -205 -74 -11 13 -10 22 7 52 64 123 240 226 274 162z"/>
<path d="M12813 20515 c-125 -29 -193 -76 -193 -136 0 -37 39 -66 98 -74 181
-25 322 -65 322 -91 0 -38 -88 -72 -360 -140 -147 -37 -170 -46 -170 -69 0
-23 25 -24 141 -4 146 25 272 61 362 103 110 51 133 87 87 139 -35 40 -136 78
-290 107 -58 11 -106 20 -108 20 -2 0 -2 10 0 23 5 33 91 59 196 60 95 0 120
14 85 49 -27 26 -90 31 -170 13z"/>
<path d="M6059 19701 c-17 -48 -33 -52 -176 -41 -639 49 -820 55 -1638 55
-440 0 -856 -3 -925 -8 -219 -13 -581 -29 -717 -32 -89 -1 -137 -6 -148 -15
-21 -18 -19 -57 5 -70 22 -12 233 -3 775 31 409 25 1611 28 1990 4 451 -29
570 -35 687 -35 64 0 119 -4 122 -9 7 -10 -9 -370 -24 -546 -5 -66 -12 -153
-15 -194 -3 -41 -8 -78 -11 -82 -2 -4 -23 1 -47 11 -23 11 -52 20 -63 20 -40
0 -123 -33 -148 -59 -24 -26 -56 -98 -59 -135 -3 -29 97 -94 156 -102 72 -10
101 27 41 54 -13 7 -24 18 -24 25 0 15 109 87 130 87 14 0 13 -2 -15 -185 -37
-245 -42 -569 -10 -722 16 -75 23 -86 56 -81 28 4 30 27 8 123 -29 131 -7 570
51 1015 20 153 35 350 45 590 4 80 9 153 12 164 6 21 -26 22 538 -15 88 -5
257 -16 375 -24 306 -20 782 -42 1234 -56 307 -10 389 -16 393 -26 7 -18 -15
-531 -27 -631 -23 -198 -31 -740 -16 -1182 8 -229 4 -304 -19 -375 -5 -17 1
-24 30 -38 47 -22 68 -21 90 3 17 19 17 21 0 40 -20 23 -21 32 -10 195 5 86 2
179 -10 330 -10 131 -15 253 -11 325 3 63 8 214 12 335 3 121 10 281 15 355
15 227 29 471 32 560 l2 85 125 -1 c678 -6 1364 -16 1585 -24 149 -5 362 -12
475 -15 302 -8 775 -24 930 -30 200 -9 428 -21 655 -35 83 -5 245 -14 360 -20
193 -10 439 -24 830 -50 83 -5 276 -17 430 -25 154 -8 359 -19 455 -25 192
-10 383 -17 765 -26 138 -3 286 -8 330 -10 44 -2 269 -5 500 -7 436 -4 790 2
1420 23 204 7 523 13 710 14 l340 1 0 -50 c-1 -53 -26 -314 -50 -505 -8 -63
-19 -173 -24 -245 -15 -191 -18 -254 -36 -860 -13 -429 -17 -473 -55 -586 -44
-130 -91 -193 -165 -225 -16 -7 -66 -20 -110 -29 -69 -14 -154 -16 -600 -16
-286 1 -563 3 -615 6 -182 10 -517 35 -715 55 -110 10 -254 24 -320 29 -406
36 -589 53 -660 61 -44 5 -152 14 -240 20 -88 6 -167 13 -175 15 -8 2 -69 7
-135 10 -66 3 -140 8 -165 10 -52 6 -549 42 -755 55 -130 8 -206 14 -690 55
-99 8 -315 24 -480 35 -165 12 -358 25 -430 30 -71 5 -211 14 -310 20 -99 5
-227 14 -285 20 -119 10 -242 18 -410 25 -63 3 -135 7 -160 10 -89 9 -504 32
-845 45 -143 6 -339 15 -435 20 -96 5 -267 12 -380 15 -113 3 -227 8 -255 11
-82 8 -318 11 -344 5 -14 -4 -26 -12 -28 -18 -5 -13 48 -20 207 -28 63 -3 185
-10 270 -15 85 -5 306 -14 490 -20 474 -14 598 -19 708 -30 53 -5 167 -12 252
-15 85 -3 241 -10 345 -16 201 -11 213 -11 456 -28 85 -6 246 -15 359 -21 113
-6 282 -17 375 -25 94 -8 215 -17 270 -20 55 -3 145 -10 200 -15 55 -5 138
-12 185 -15 47 -3 103 -8 125 -10 22 -3 72 -7 110 -10 117 -7 448 -35 480 -40
17 -3 75 -7 130 -10 55 -3 120 -7 145 -10 25 -3 162 -14 305 -25 143 -11 314
-24 380 -29 66 -6 156 -12 200 -15 107 -8 385 -33 565 -52 177 -19 200 -21
420 -39 96 -8 238 -22 315 -30 168 -18 694 -60 930 -75 94 -5 393 -10 665 -11
547 -1 586 2 707 61 93 46 142 117 187 273 35 119 44 231 56 662 12 425 25
703 40 845 24 226 61 551 70 620 6 41 10 98 10 127 0 44 -4 54 -22 64 -25 14
-605 7 -1108 -12 -609 -23 -835 -27 -1385 -24 -313 2 -716 8 -895 14 -179 5
-408 13 -510 16 -102 3 -295 12 -430 20 -135 8 -330 19 -435 25 -104 6 -361
22 -570 35 -429 28 -429 28 -915 55 -408 23 -948 44 -1650 65 -113 4 -232 8
-265 10 -33 3 -395 9 -805 14 -898 13 -988 15 -1003 30 -14 14 -52 14 -78 0
-15 -7 -79 -7 -222 0 -111 6 -281 13 -377 16 -354 12 -925 43 -1265 70 -175
13 -293 20 -539 30 -66 3 -122 8 -125 11 -3 3 -10 19 -16 37 -14 46 -52 50
-66 8z m-159 -1005 c0 -29 -112 -78 -133 -57 -15 15 1 41 34 58 34 18 99 17
99 -1z"/>
<path d="M2685 19468 c-2 -7 -6 -40 -8 -73 -3 -33 -19 -107 -36 -165 -45 -157
-61 -265 -61 -422 0 -121 24 -420 35 -438 2 -3 11 -48 20 -100 16 -98 49 -259
65 -320 5 -19 19 -73 30 -119 26 -99 121 -304 159 -338 56 -52 66 -54 646 -78
77 -4 158 -8 180 -10 22 -2 85 -6 140 -10 55 -4 114 -9 130 -11 40 -5 375 -12
835 -19 394 -6 526 -10 805 -25 94 -5 237 -9 318 -10 82 0 152 -2 155 -4 4 -2
203 -7 442 -10 239 -4 455 -9 480 -11 25 -3 142 -7 260 -10 219 -5 505 -18
800 -36 294 -18 397 -22 427 -14 l28 7 -27 14 c-34 18 -61 21 -311 34 -107 5
-201 12 -208 14 -12 4 -122 9 -664 31 -71 3 -254 8 -405 10 -151 2 -435 7
-630 10 -195 3 -384 7 -420 10 -36 3 -123 7 -194 11 -71 3 -145 7 -164 9 -19
2 -145 6 -281 9 -135 4 -277 8 -316 11 -38 2 -223 7 -410 10 -187 3 -356 8
-375 10 -19 3 -75 7 -125 10 -112 7 -316 23 -455 35 -58 5 -208 17 -334 25
-153 11 -238 21 -257 30 -88 46 -169 264 -250 675 -51 260 -74 532 -59 701 11
129 21 178 68 324 41 127 46 165 28 209 -15 36 -52 51 -61 24z"/>
<path d="M5576 19155 c-23 -23 -53 -142 -106 -417 -12 -63 -19 -67 -71 -41
-44 22 -96 20 -121 -5 -11 -11 -24 -39 -29 -63 -20 -109 21 -170 121 -177 75
-5 113 14 109 56 -2 15 2 41 8 57 7 17 35 120 63 230 28 110 60 229 72 264 16
50 18 68 9 87 -12 27 -33 31 -55 9z m-180 -547 c11 -13 28 -35 37 -50 14 -23
15 -27 1 -32 -71 -27 -145 27 -114 84 14 27 52 26 76 -2z"/>
<path d="M6991 19135 c-159 -45 -253 -183 -302 -443 -16 -84 -8 -356 12 -397
12 -25 20 -30 49 -30 l35 0 0 167 c0 143 2 170 17 184 15 16 19 15 59 -20 90
-77 360 -196 444 -196 68 0 49 37 -30 60 -147 43 -405 193 -405 235 0 16 44
55 115 103 78 52 200 177 219 224 18 43 8 86 -26 107 -32 20 -126 23 -187 6z
m124 -48 c13 -10 16 -21 12 -38 -9 -34 -68 -109 -120 -150 -23 -18 -82 -69
-130 -112 -91 -82 -117 -91 -117 -40 1 69 76 228 133 282 63 58 179 89 222 58z"/>
<path d="M7876 19038 c-14 -22 -46 -370 -46 -503 0 -29 -4 -56 -8 -59 -5 -3
-37 10 -73 28 -102 51 -204 73 -238 50 -67 -47 31 -174 172 -224 115 -41 266
-51 356 -24 39 11 51 19 49 32 -4 18 -48 21 -142 11 l-39 -4 -4 71 c-4 78 29
468 47 552 11 47 10 56 -6 73 -23 25 -50 24 -68 -3z m-163 -574 c68 -33 136
-85 137 -103 0 -21 -95 -5 -153 27 -52 28 -97 74 -97 99 0 21 45 12 113 -23z"/>
<path d="M4400 19026 c-30 -13 -83 -50 -118 -82 -107 -97 -162 -183 -235 -369
-33 -83 -45 -129 -83 -315 -14 -68 -19 -274 -8 -330 4 -19 16 -36 30 -42 26
-12 53 6 117 80 45 52 48 87 11 104 -25 11 -29 10 -56 -22 -55 -66 -61 -5 -24
220 44 263 98 400 208 537 69 85 141 146 193 163 54 18 69 8 62 -41 -9 -69
-76 -165 -197 -282 -84 -82 -110 -114 -108 -130 2 -16 11 -23 34 -25 26 -3 38
6 88 60 117 127 128 138 140 138 9 0 11 -15 8 -52 -9 -115 67 -228 153 -228
81 0 87 31 12 64 -59 26 -95 67 -104 119 -6 39 30 193 58 248 10 20 34 48 53
63 20 15 36 36 36 46 0 27 -28 40 -59 27 -19 -9 -25 -9 -29 1 -2 7 -15 26 -29
42 -31 38 -75 39 -153 6z"/>
<path d="M3373 19004 c-19 -20 -47 -62 -62 -93 -15 -31 -44 -88 -64 -127 -81
-157 -59 -315 60 -426 135 -125 275 -128 423 -9 122 98 181 186 201 298 20
112 -24 239 -101 291 -93 63 -276 70 -295 12 -13 -41 2 -48 110 -52 98 -3 106
-5 142 -34 21 -17 48 -50 61 -75 49 -92 6 -227 -103 -326 -126 -115 -254 -147
-347 -88 -56 36 -88 76 -110 139 -31 91 -25 137 37 262 31 63 75 134 100 162
47 52 53 70 33 90 -21 21 -50 13 -85 -24z"/>
<path d="M4808 18851 c-14 -11 -42 -49 -63 -83 -32 -52 -39 -74 -43 -128 -3
-56 0 -70 20 -100 13 -19 38 -44 56 -57 43 -28 163 -56 209 -47 49 9 108 70
116 118 13 80 -36 229 -90 277 -31 26 -41 29 -91 27 -31 -1 -64 1 -73 5 -9 5
-25 0 -41 -12z m166 -103 c17 -18 40 -59 50 -91 18 -54 18 -60 3 -92 -20 -42
-64 -57 -132 -44 -125 23 -163 118 -82 207 16 17 28 21 47 17 19 -4 31 0 45
15 24 27 32 26 69 -12z"/>
<path d="M10261 18836 c-7 -8 -11 -27 -9 -43 3 -25 8 -28 41 -31 63 -5 86 29
47 68 -23 23 -62 26 -79 6z"/>
<path d="M15237 18583 c-18 -21 -46 -153 -57 -277 -5 -48 -13 -93 -18 -98 -5
-5 -29 -12 -53 -15 -49 -6 -79 -27 -79 -53 0 -24 22 -31 74 -24 26 4 46 2 50
-4 3 -6 1 -32 -5 -59 -17 -77 -20 -180 -5 -192 20 -17 45 18 56 80 6 30 15 80
21 112 6 32 17 61 24 64 8 2 67 0 131 -6 l116 -10 92 -95 c82 -85 101 -99 196
-144 141 -68 427 -172 471 -172 25 0 49 27 49 55 0 30 -2 31 -86 48 -85 18
-291 94 -401 148 -82 41 -153 98 -153 124 0 18 10 18 82 4 41 -8 78 -8 137 0
132 17 171 48 152 119 -24 86 -149 162 -267 163 -38 0 -84 -5 -102 -10 -78
-24 -143 -85 -157 -149 -6 -29 -10 -33 -28 -28 -12 3 -56 11 -97 17 -107 15
-117 17 -123 32 -4 11 4 61 45 288 6 36 9 73 5 82 -8 22 -50 22 -70 0z m636
-333 c20 -14 44 -40 54 -57 28 -53 14 -58 -151 -58 -156 0 -176 6 -176 54 0
56 69 92 171 88 51 -2 74 -8 102 -27z"/>
<path d="M13607 18560 c-44 -35 -112 -194 -137 -323 -19 -92 -29 -98 -83 -48
-58 54 -119 81 -186 81 -213 1 -220 -309 -9 -400 97 -42 276 -26 319 29 18 23
20 34 14 86 -4 33 -7 75 -7 93 1 65 65 265 119 370 40 80 50 108 42 119 -16
19 -42 16 -72 -7z m-326 -387 c81 -41 146 -110 154 -166 12 -81 11 -82 -85
-82 -115 1 -163 26 -203 106 -32 64 -30 111 4 148 27 28 64 26 130 -6z"/>
<path d="M10220 18490 c-18 -18 -20 -33 -20 -167 0 -133 20 -375 36 -439 9
-33 42 -51 61 -32 12 12 12 26 2 84 -7 39 -12 174 -13 312 -1 204 -3 244 -16
252 -21 14 -28 12 -50 -10z"/>
<path d="M12554 18456 c-85 -20 -155 -58 -198 -108 -42 -49 -59 -100 -59 -183
-1 -66 29 -146 76 -201 35 -42 129 -90 201 -103 172 -32 446 16 446 77 0 13
-11 14 -77 6 -137 -16 -351 -11 -411 10 -60 20 -131 81 -115 97 6 6 41 17 79
25 161 36 343 156 358 237 20 108 -132 181 -300 143z m153 -71 c50 -21 73 -43
73 -72 0 -61 -322 -201 -397 -172 -59 22 -2 158 87 208 46 26 125 49 173 50
15 1 44 -6 64 -14z"/>
<path d="M10867 18448 c-9 -7 -34 -54 -56 -105 -43 -102 -79 -159 -91 -146 -5
4 -10 21 -12 37 -4 42 -31 55 -59 31 -20 -19 -21 -26 -15 -104 3 -46 9 -87 12
-92 7 -12 51 -11 75 1 27 15 61 73 89 151 28 80 51 114 73 106 29 -11 31 -53
4 -89 -41 -56 -44 -108 -6 -108 12 0 23 10 29 25 14 37 27 30 34 -17 12 -74
36 -128 63 -134 32 -8 56 13 50 45 -3 14 -14 51 -25 81 -11 30 -23 72 -26 92
-6 32 -3 39 19 54 41 27 98 43 116 33 22 -11 45 -71 53 -139 4 -30 14 -79 22
-108 14 -49 17 -53 42 -50 27 3 27 4 25 71 -3 81 -28 207 -49 248 -33 66 -88
73 -185 23 -27 -13 -54 -21 -62 -18 -8 3 -19 22 -25 42 -12 41 -45 82 -65 82
-7 0 -21 -6 -30 -12z"/>
<path d="M13930 18405 c-25 -31 -8 -49 65 -68 88 -22 130 -20 130 8 0 14 -16
28 -54 48 -60 30 -122 35 -141 12z"/>
<path d="M14639 18384 c-7 -9 -12 -34 -10 -56 1 -24 -4 -47 -12 -57 -8 -9 -20
-40 -26 -70 -17 -82 -39 -118 -99 -167 -69 -56 -122 -84 -161 -84 -47 0 -61 9
-61 42 0 23 14 44 58 90 49 51 69 64 127 83 79 25 101 48 70 71 -25 19 -69 12
-144 -22 -83 -37 -133 -84 -168 -156 -46 -93 -49 -121 -15 -160 26 -28 33 -31
90 -30 72 1 164 35 215 78 38 33 91 106 106 146 12 31 29 44 42 31 5 -5 18
-65 29 -134 11 -68 27 -142 35 -165 32 -86 109 -124 173 -85 32 21 43 55 20
64 -7 2 -25 0 -41 -6 -33 -11 -54 3 -73 49 -17 41 -52 258 -65 407 -5 67 -15
127 -21 134 -15 18 -53 16 -69 -3z"/>
<path d="M11737 18372 c-9 -10 -33 -65 -53 -122 -43 -125 -58 -156 -92 -192
-58 -63 -83 -14 -63 125 8 59 8 84 0 94 -18 21 -46 15 -69 -14 -21 -26 -22
-34 -16 -142 7 -122 22 -166 59 -180 57 -21 119 30 177 147 33 66 46 70 52 17
7 -67 66 -39 216 101 124 115 129 117 186 65 40 -37 57 -82 55 -150 -2 -63 4
-81 27 -81 26 0 47 68 40 132 -16 153 -112 239 -220 198 -14 -5 -63 -48 -110
-95 -108 -110 -122 -110 -118 -5 4 96 -2 120 -32 120 -12 0 -30 -8 -39 -18z"/>
<path d="M13916 18114 c-9 -8 -16 -21 -17 -27 -8 -149 -6 -204 7 -225 23 -36
56 -26 72 22 17 52 18 211 2 231 -16 19 -44 19 -64 -1z"/>
<path d="M6132 17147 c-37 -44 -32 -201 11 -324 53 -154 170 -309 281 -373
102 -58 155 -63 496 -54 168 5 427 8 575 7 1286 -8 1729 -7 1855 5 213 20 586
26 749 13 214 -17 439 -74 586 -149 134 -67 300 -203 369 -301 17 -25 76 -120
131 -211 94 -153 103 -165 130 -165 32 0 30 -2 125 166 42 75 162 201 245 256
209 140 546 260 865 308 146 22 454 27 615 10 219 -23 219 -23 720 -148 280
-70 420 -102 520 -121 44 -9 123 -24 175 -35 52 -11 129 -23 170 -27 41 -4 84
-13 95 -20 11 -7 48 -17 83 -23 34 -5 66 -12 70 -15 5 -3 40 -10 78 -16 38 -6
83 -14 99 -16 17 -3 64 -9 105 -14 41 -5 111 -14 155 -19 451 -58 960 -60
1290 -5 211 35 469 104 650 174 44 17 105 38 135 46 134 36 409 187 460 252
24 29 26 60 5 68 -10 4 -40 -21 -89 -72 -108 -115 -150 -136 -566 -269 -41
-13 -118 -33 -170 -45 -52 -12 -115 -28 -140 -35 -25 -7 -67 -18 -95 -25 -27
-6 -66 -15 -85 -20 -19 -5 -71 -14 -115 -21 -44 -7 -127 -20 -185 -29 -145
-24 -662 -20 -895 6 -22 2 -80 9 -130 14 -49 5 -153 19 -230 30 -77 12 -183
27 -235 35 -52 8 -115 21 -139 30 -25 9 -71 17 -103 17 -41 1 -66 6 -83 19
-13 11 -31 19 -41 19 -9 0 -40 7 -68 15 -28 8 -107 26 -176 39 -173 35 -356
78 -545 126 -88 23 -212 55 -275 71 -289 74 -698 108 -976 80 -408 -42 -870
-214 -1084 -404 -71 -63 -127 -135 -176 -224 -31 -56 -51 -83 -63 -83 -17 0
-56 55 -110 155 -47 87 -89 147 -152 217 -194 216 -421 330 -789 400 -137 26
-541 32 -810 12 -292 -22 -1190 -27 -1593 -10 -260 12 -401 13 -615 5 -345
-12 -645 -12 -695 0 -215 51 -412 392 -356 617 9 34 9 47 -1 59 -15 18 -44 19
-58 2z"/>
<path d="M10215 15466 c-83 -21 -127 -47 -197 -117 -92 -91 -138 -185 -138
-282 0 -39 6 -80 14 -95 77 -147 390 -157 660 -21 141 72 188 131 188 238 0
93 -61 191 -162 257 -35 23 -53 28 -104 28 -33 0 -74 -2 -91 -4 -16 -2 -50 -1
-75 3 -26 3 -66 1 -95 -7z m96 -76 c13 -37 32 -38 83 -2 31 21 50 27 87 25
127 -3 240 -176 185 -281 -47 -90 -205 -169 -405 -202 -123 -21 -235 4 -290
63 -20 23 -23 33 -19 84 5 74 36 139 100 208 54 59 95 88 166 116 67 26 81 24
93 -11z"/>
<path d="M11120 15211 c-133 -46 -210 -117 -258 -237 -42 -106 -65 -251 -60
-384 5 -122 20 -163 60 -168 32 -4 35 1 78 129 35 104 35 149 0 149 -23 0 -29
-8 -43 -66 -7 -25 -16 -44 -22 -42 -16 5 -6 156 16 248 32 129 79 207 157 260
71 48 208 64 272 32 28 -14 35 -22 33 -45 -4 -64 -96 -141 -193 -161 -75 -15
-90 -28 -65 -56 58 -64 262 35 316 154 23 50 23 69 3 112 -23 49 -85 75 -187
80 -45 2 -93 0 -107 -5z"/>
<path d="M11806 15199 c-38 -9 -97 -46 -124 -79 -7 -8 -24 -39 -37 -67 -14
-29 -28 -53 -32 -53 -5 0 -21 9 -38 20 -35 23 -63 26 -71 6 -9 -23 13 -52 60
-80 33 -19 48 -36 57 -63 25 -80 48 -112 101 -142 29 -17 70 -33 92 -37 23 -4
64 -17 91 -29 72 -32 132 -39 162 -20 22 15 23 20 18 73 -4 32 -2 69 3 83 17
43 72 98 121 123 51 25 186 71 241 81 19 4 43 9 53 11 30 9 19 -25 -27 -84
-83 -107 -97 -164 -50 -201 56 -44 143 -16 214 69 59 70 69 68 84 -21 7 -38
64 -109 89 -109 8 0 20 7 27 15 11 13 9 19 -7 38 -31 34 -41 57 -63 153 -12
49 -24 99 -27 112 -4 16 1 29 16 43 28 26 27 47 -4 61 -18 8 -35 8 -62 0 -21
-6 -65 -13 -98 -17 -325 -35 -433 -68 -509 -157 -37 -43 -76 -131 -76 -173 0
-44 -75 -50 -170 -13 -104 41 -167 98 -158 144 3 16 18 21 93 29 98 11 144 32
190 86 18 22 25 42 25 72 0 100 -78 152 -184 126z m102 -85 c29 -20 29 -64 0
-91 -50 -44 -191 -71 -216 -40 -31 39 87 145 163 147 17 0 41 -7 53 -16z m777
-136 c-4 -18 -13 -44 -20 -58 -20 -39 -86 -97 -129 -115 -34 -14 -41 -15 -53
-2 -13 13 -12 19 5 53 36 70 137 154 185 154 16 0 17 -5 12 -32z"/>
<path d="M14511 15053 c-16 -31 -69 -174 -95 -258 -14 -44 -31 -89 -39 -99
-12 -16 -16 -17 -49 -3 -19 8 -59 31 -87 50 -59 41 -136 72 -202 82 -37 5 -49
3 -72 -15 -93 -74 53 -250 298 -357 193 -84 435 -105 435 -38 0 9 -22 15 -62
19 -261 27 -433 93 -560 216 -103 99 -62 134 76 64 39 -20 82 -44 96 -54 14
-10 44 -27 68 -39 75 -38 84 -27 174 194 43 105 78 199 78 211 0 40 -41 59
-59 27z"/>
<path d="M13483 14968 c-11 -13 -31 -43 -43 -68 -46 -92 -137 -180 -185 -180
-30 0 -36 20 -25 78 21 99 22 110 11 131 -15 28 -37 27 -57 -4 -11 -17 -18
-57 -21 -129 -6 -116 4 -148 51 -160 58 -14 181 77 246 183 18 28 36 51 41 51
14 0 37 -42 66 -121 48 -136 92 -182 173 -183 39 -1 45 2 48 21 2 16 -4 24
-32 33 -57 19 -104 82 -141 192 -34 98 -57 143 -84 166 -20 16 -24 16 -48 -10z"/>
<path d="M15185 14762 c-113 -12 -205 -72 -205 -132 0 -23 9 -40 32 -62 44
-41 205 -120 358 -175 158 -57 180 -69 180 -93 0 -28 -46 -48 -135 -61 -61 -8
-100 -7 -198 7 -205 28 -196 28 -203 9 -10 -24 17 -46 68 -56 198 -41 284 -47
383 -25 108 23 155 60 155 123 0 40 -34 67 -140 113 -328 141 -412 184 -424
215 -6 17 22 37 78 55 37 12 139 9 238 -6 30 -5 39 -3 44 11 9 23 -6 47 -38
63 -26 12 -137 21 -193 14z"/>
<path d="M11395 13212 c-79 -4 -277 -32 -307 -43 -32 -13 -42 -34 -28 -60 13
-23 45 -24 117 -5 29 8 55 10 58 5 3 -4 -5 -50 -19 -101 -14 -51 -28 -114 -32
-140 -8 -62 -22 -72 -86 -65 -56 7 -88 -9 -88 -44 0 -25 17 -33 80 -39 l55 -5
-1 -35 c-1 -19 -6 -83 -13 -141 -16 -152 6 -241 55 -222 26 10 33 37 22 87
-15 72 -7 292 12 310 18 18 235 25 315 10 l50 -9 5 -70 c7 -92 33 -135 104
-170 68 -33 140 -41 218 -25 71 16 132 60 111 81 -10 10 -25 9 -73 -4 -116
-33 -198 -18 -254 43 -28 32 -36 48 -36 79 0 21 6 43 13 49 6 6 53 15 104 21
165 18 255 90 191 152 -33 31 -66 42 -125 41 -57 -1 -97 -18 -154 -64 -36 -29
-39 -30 -175 -33 -77 -1 -166 -6 -199 -10 -78 -10 -88 0 -68 70 7 28 24 92 37
143 13 52 28 98 33 103 5 5 103 12 219 17 200 7 209 8 209 27 0 15 -10 23 -45
31 -47 12 -219 21 -305 16z m480 -392 c0 -18 -68 -42 -105 -38 -37 4 -31 31
10 45 46 16 95 13 95 -7z"/>
<path d="M12331 13011 c-24 -24 -51 -111 -51 -165 0 -90 -18 -104 -105 -87
-54 10 -78 3 -94 -28 -7 -13 -6 -24 3 -37 12 -15 28 -19 98 -19 l83 0 6 -105
c8 -124 25 -185 53 -185 34 0 41 27 27 113 -29 176 -22 187 98 178 47 -3 87
-9 90 -12 3 -3 0 -13 -7 -22 -59 -83 -72 -117 -72 -189 0 -70 2 -75 36 -113
47 -52 112 -80 200 -87 114 -9 244 41 291 113 11 17 13 28 6 35 -8 8 -31 -1
-78 -30 -75 -45 -128 -57 -216 -47 -110 11 -159 58 -159 151 0 72 25 115 85
145 46 23 61 25 180 25 72 0 136 4 143 8 6 5 12 19 12 31 0 40 -41 48 -212 45
-149 -2 -330 5 -375 16 -12 3 -24 13 -27 23 -6 20 13 105 40 174 17 46 17 48
-1 68 -23 25 -30 25 -54 1z"/>
<path d="M13261 12943 c-40 -50 -70 -209 -74 -385 -2 -111 10 -142 68 -176 56
-32 129 -27 214 16 35 18 68 32 72 32 20 0 82 -67 129 -140 29 -43 59 -81 66
-84 22 -9 44 5 44 27 0 24 -57 130 -103 192 -34 45 -100 95 -127 95 -9 0 -40
-16 -70 -35 -97 -63 -158 -70 -193 -23 -17 23 -19 41 -18 130 1 120 13 199 44
286 22 63 22 64 3 78 -27 19 -31 18 -55 -13z"/>
<path d="M6020 12860 c-19 -36 6 -58 128 -116 64 -30 176 -84 247 -119 206
-101 476 -224 580 -265 81 -31 365 -150 422 -176 198 -92 328 -125 389 -99 18
7 39 23 46 34 7 12 17 21 23 21 14 0 74 -42 175 -122 184 -144 162 -154 -295
-133 -176 7 -393 17 -482 20 -90 4 -177 10 -195 16 -47 13 -56 12 -68 -11 -9
-17 -6 -25 14 -45 23 -23 32 -25 126 -25 56 0 212 -8 348 -17 301 -22 633 -24
678 -5 37 16 59 51 50 80 -20 63 -138 180 -276 274 -41 28 -107 85 -146 127
-43 46 -99 93 -143 119 -76 45 -90 49 -109 30 -33 -33 3 -72 155 -168 45 -28
85 -60 88 -71 16 -48 -28 -83 -86 -69 -49 11 -53 13 -296 121 -23 11 -44 19
-47 19 -3 0 -31 12 -63 26 -31 15 -138 59 -237 99 -100 40 -230 96 -290 124
-59 28 -110 51 -112 51 -3 0 -195 95 -384 191 -52 26 -115 61 -140 78 -52 36
-85 39 -100 11z"/>
<path d="M9100 12073 c-448 -23 -785 -142 -1031 -362 -122 -110 -170 -207
-171 -346 0 -146 60 -273 191 -403 186 -184 443 -287 846 -338 214 -27 605
-10 780 35 175 44 293 96 402 178 172 129 257 303 231 471 -5 35 -7 69 -4 77
8 23 124 52 247 64 171 16 752 35 1019 34 212 -1 416 -13 735 -43 61 -6 160
-15 220 -20 251 -23 638 -62 750 -76 66 -8 156 -19 200 -24 116 -14 125 -15
290 -39 83 -12 195 -28 250 -36 147 -21 369 -39 389 -32 12 5 16 16 14 34 -3
28 -3 28 -103 35 -144 10 -392 41 -785 98 -132 19 -308 41 -410 50 -58 6 -139
15 -180 20 -41 5 -131 14 -200 20 -137 11 -402 37 -465 45 -101 12 -448 35
-626 41 -192 7 -752 -7 -1061 -27 -120 -7 -174 -15 -233 -34 -41 -14 -77 -25
-79 -25 -2 0 -16 21 -31 48 -79 137 -137 201 -270 302 -131 100 -412 217 -570
238 -88 12 -259 20 -345 15z m-48 -95 c14 -22 18 -22 59 -10 105 30 162 35
249 24 138 -19 298 -81 349 -136 30 -32 44 -33 70 -5 24 26 30 24 138 -47 170
-114 299 -260 344 -392 87 -253 -38 -479 -345 -623 -88 -41 -176 -66 -326 -95
-151 -29 -568 -26 -750 5 -186 32 -269 55 -415 116 -83 35 -231 131 -283 185
-217 218 -230 474 -35 669 145 145 437 262 788 315 128 20 140 19 157 -6z"/>
<path d="M9005 11522 c-72 -27 -92 -39 -142 -85 -58 -54 -73 -84 -73 -152 0
-104 53 -166 170 -199 163 -46 482 49 519 155 12 36 -6 95 -46 147 -27 36
-107 92 -131 92 -8 0 -40 12 -71 27 -71 35 -156 41 -226 15z m233 -102 c145
-52 206 -124 149 -178 -63 -60 -275 -104 -392 -83 -67 13 -133 53 -141 87 -23
90 128 220 246 211 25 -2 87 -19 138 -37z"/>
<path d="M13672 11694 c-53 -37 -13 -70 109 -90 217 -35 619 -158 771 -235 48
-24 108 -77 108 -94 0 -30 -56 -76 -136 -115 -93 -45 -511 -186 -689 -233 -84
-23 -135 -62 -135 -104 0 -53 62 -59 91 -9 22 37 31 41 164 75 140 35 406 127
509 175 94 44 136 56 136 38 0 -4 -15 -30 -34 -57 -68 -102 -95 -186 -96 -295
0 -173 80 -341 232 -488 71 -69 181 -156 236 -187 15 -9 45 -27 67 -40 74 -47
279 -143 380 -178 114 -40 153 -51 245 -67 36 -7 74 -14 84 -17 19 -5 19 -6 1
-19 -19 -14 -19 -41 5 -239 13 -119 12 -369 -4 -550 -34 -382 -110 -578 -380
-990 -124 -188 -149 -228 -246 -385 -83 -133 -111 -175 -218 -318 -52 -69 -57
-73 -86 -68 -17 3 -37 2 -45 -3 -20 -13 -97 16 -131 50 -33 34 -43 87 -43 239
0 117 6 162 40 313 29 128 26 152 -18 152 -34 0 -43 -26 -73 -203 -27 -158
-33 -315 -17 -400 11 -58 -1 -62 -103 -29 -141 45 -361 58 -545 32 -396 -56
-657 -247 -742 -542 -23 -82 -33 -223 -21 -298 7 -43 7 -62 -2 -68 -13 -10
-542 -1 -716 12 -69 5 -188 12 -265 16 -77 3 -165 8 -195 10 -85 7 -462 24
-865 40 -488 18 -1226 21 -1502 5 -194 -12 -214 -12 -238 4 -37 24 -67 6 -63
-37 5 -48 48 -59 185 -47 59 5 151 12 203 16 105 9 1013 8 1265 -1 306 -11
420 -15 500 -20 44 -3 132 -7 195 -10 63 -2 142 -7 175 -10 33 -2 118 -7 188
-10 71 -4 136 -8 145 -9 9 -2 73 -7 142 -10 69 -4 179 -11 245 -16 187 -15
566 -16 594 -1 12 7 24 11 26 9 2 -2 18 -44 35 -93 86 -246 280 -504 535 -710
106 -85 224 -160 315 -199 36 -15 74 -32 85 -37 11 -5 65 -24 120 -42 231 -78
426 -94 630 -52 98 20 127 33 232 102 120 79 192 162 257 297 74 154 91 234
90 421 0 142 -2 155 -33 245 -39 115 -77 195 -129 276 -45 69 -131 168 -175
201 -45 34 -77 83 -77 120 0 18 3 33 8 33 4 0 41 -5 82 -11 90 -12 203 -13
307 -3 62 5 81 11 106 34 53 47 16 63 -78 35 -40 -12 -83 -14 -210 -10 -287
11 -254 4 -323 64 -52 45 -72 69 -72 86 0 2 16 12 35 21 71 33 140 130 504
699 274 429 342 567 400 815 31 131 41 234 48 497 6 256 -6 448 -34 532 -10
30 -11 46 -4 50 6 4 48 3 93 -2 142 -14 302 3 458 50 291 87 507 300 540 533
11 77 0 188 -26 260 -21 60 -80 176 -107 212 -71 94 -132 161 -203 222 -69 61
-121 98 -323 232 -187 125 -479 204 -749 204 -263 0 -524 -80 -675 -206 -34
-29 -43 -25 -51 22 -11 53 -76 113 -179 162 -142 68 -436 162 -707 226 -52 13
-104 26 -115 29 -12 4 -30 1 -43 -9z m1935 -303 c124 -11 139 -18 89 -43 -38
-19 -49 -47 -18 -49 9 0 51 0 92 1 112 1 250 -39 419 -123 24 -12 62 -45 85
-74 47 -60 60 -67 87 -52 18 9 31 2 92 -49 147 -121 282 -319 322 -470 70
-273 -95 -529 -425 -656 -140 -53 -210 -64 -422 -62 -203 2 -245 9 -453 78
-153 51 -177 61 -305 127 -430 219 -620 445 -620 735 0 247 135 423 421 550
168 74 403 106 636 87z m-1297 -4111 c151 -23 213 -43 240 -78 23 -29 23 -68
0 -65 -8 1 -60 18 -115 38 -105 37 -224 58 -211 36 10 -15 70 -40 131 -53 28
-6 55 -14 60 -18 6 -5 27 -11 48 -15 20 -4 40 -11 43 -16 3 -5 11 -9 19 -9 28
0 153 -65 245 -128 118 -80 177 -136 186 -176 9 -46 33 -68 65 -61 22 5 32 -1
66 -42 172 -207 271 -462 257 -658 -18 -237 -80 -395 -213 -537 -60 -64 -86
-83 -164 -121 -136 -66 -217 -81 -391 -74 -385 17 -724 174 -1012 470 -314
322 -454 659 -399 958 47 259 199 420 480 508 196 62 438 77 665 41z m450
-175 c16 -20 1 -39 -24 -29 -15 6 -46 52 -46 69 0 9 55 -22 70 -40z"/>
<path d="M15555 10929 c-15 -48 -21 -191 -13 -309 12 -158 18 -185 43 -185 19
0 20 7 17 176 -2 96 1 201 7 232 8 42 7 64 -1 82 -14 31 -44 33 -53 4z"/>
<path d="M13688 6824 c-17 -37 0 -57 63 -72 30 -8 124 -36 210 -64 116 -37
168 -59 205 -87 104 -78 93 -125 -58 -258 -55 -49 -109 -105 -119 -125 -39
-75 -16 -151 66 -221 105 -90 375 -184 420 -147 27 22 18 45 -22 57 -21 5 -72
20 -114 31 -170 47 -289 140 -289 225 0 24 21 49 110 135 113 111 140 153 140
217 0 63 -47 125 -126 166 -61 32 -227 99 -245 99 -9 0 -18 3 -22 6 -8 9 -175
64 -193 64 -8 0 -20 -12 -26 -26z"/>
<path d="M11104 11291 c-42 -11 -54 -19 -54 -40 0 -47 65 -55 123 -15 48 32
46 58 -3 61 -19 1 -49 -2 -66 -6z"/>
<path d="M12399 11104 c-11 -14 -10 -26 10 -78 40 -105 41 -99 -36 -139 -64
-32 -68 -37 -68 -68 0 -46 23 -48 85 -9 28 18 56 30 64 27 21 -8 30 -121 21
-252 -11 -162 -11 -180 0 -184 26 -10 46 80 61 273 8 106 24 79 24 -42 0 -117
16 -162 58 -162 35 0 61 26 97 100 44 89 116 193 127 182 6 -6 5 -38 -1 -86
-23 -161 -8 -242 51 -286 24 -18 39 -21 72 -17 45 6 75 35 102 96 21 50 57
269 49 308 -13 69 -37 33 -66 -97 -10 -49 -26 -111 -35 -137 -26 -77 -70 -113
-102 -81 -18 18 -15 126 7 262 14 81 17 125 10 137 -12 24 -44 40 -62 33 -27
-10 -111 -120 -167 -217 -73 -128 -83 -126 -91 18 -7 127 -10 138 -56 186 -27
29 -38 52 -49 105 -19 94 -31 119 -60 133 -31 14 -29 14 -45 -5z"/>
<path d="M3874 10995 c-17 -26 -16 -78 7 -344 6 -80 6 -118 -1 -125 -11 -11
-15 -9 -136 63 -49 29 -69 35 -135 39 -66 4 -85 1 -124 -18 -66 -32 -98 -78
-99 -143 -1 -102 76 -159 243 -178 108 -13 283 1 332 27 30 15 31 18 26 62 -4
26 -11 71 -16 100 -5 28 -13 159 -17 290 -3 130 -8 240 -11 245 -10 17 -53 6
-69 -18z m-190 -450 c12 -6 48 -22 81 -34 50 -18 68 -31 103 -76 23 -31 42
-58 42 -61 0 -17 -73 -32 -141 -29 -181 10 -252 30 -285 80 -14 22 -15 32 -5
66 18 58 59 82 130 74 30 -4 64 -13 75 -20z"/>
<path d="M1694 10986 c-18 -13 -19 -26 -16 -178 2 -90 10 -230 18 -313 8 -82
17 -190 20 -240 7 -119 10 -132 35 -140 35 -12 51 13 45 69 -13 130 -29 458
-30 616 -1 96 -5 181 -9 188 -11 16 -39 15 -63 -2z"/>
<path d="M11423 10992 c-29 -19 -36 -69 -35 -251 2 -200 4 -216 32 -231 41
-22 73 19 91 118 19 103 54 149 78 103 6 -10 24 -56 41 -102 31 -86 70 -139
102 -139 31 0 31 25 -1 86 -16 33 -42 93 -57 134 -29 79 -69 130 -102 130 -27
0 -69 -35 -76 -65 -4 -14 -13 -25 -21 -25 -21 0 -20 64 2 145 16 61 16 65 -2
85 -19 21 -33 24 -52 12z"/>
<path d="M11176 10961 c-29 -55 -38 -156 -26 -296 6 -71 15 -172 19 -224 7
-74 12 -97 27 -108 23 -17 29 -16 49 3 10 11 14 26 11 43 -28 132 -34 431 -11
496 20 53 19 79 -3 98 -27 25 -50 21 -66 -12z"/>
<path d="M12063 10950 c-94 -25 -141 -50 -186 -99 -42 -47 -46 -77 -16 -115
38 -48 94 -69 202 -74 73 -4 100 -8 104 -19 6 -16 -31 -106 -56 -136 -8 -10
-26 -23 -40 -30 -33 -16 -36 -32 -12 -56 45 -45 100 -15 151 80 26 50 33 75
34 122 1 53 -2 62 -26 79 -21 17 -44 21 -120 22 -115 3 -168 18 -168 50 0 42
91 93 182 103 75 7 98 17 98 43 0 21 -36 50 -60 49 -8 0 -47 -9 -87 -19z"/>
<path d="M13547 10942 c-20 -22 -36 -92 -37 -159 0 -55 -17 -83 -50 -83 -30 0
-69 -21 -75 -41 -6 -19 10 -59 24 -59 4 0 16 9 26 20 10 11 27 20 38 20 19 0
19 -5 12 -119 -5 -100 -4 -119 8 -124 33 -12 49 17 57 102 5 46 12 97 15 113
7 29 9 30 47 25 81 -11 112 -65 110 -193 -1 -67 2 -95 12 -103 60 -50 90 144
38 245 -24 47 -46 63 -120 90 -29 10 -58 24 -64 32 -12 14 -3 78 24 169 11 37
10 44 -7 63 -22 25 -37 25 -58 2z"/>
<path d="M6206 10934 c-20 -20 -20 -18 8 -67 29 -49 49 -144 44 -207 -3 -41
-6 -45 -36 -54 -46 -13 -75 4 -102 57 -35 70 -95 86 -177 46 -47 -23 -145
-127 -178 -188 -33 -62 -52 -83 -71 -79 -11 2 -44 49 -84 123 -52 93 -72 121
-90 123 -24 4 -40 -12 -40 -39 0 -18 79 -142 147 -232 l44 -57 -56 -127 c-61
-137 -65 -168 -25 -168 27 0 40 22 96 152 15 35 32 67 38 72 8 7 31 0 70 -19
69 -35 116 -38 162 -10 61 39 56 97 -7 65 -64 -34 -188 0 -189 50 0 19 6 30
55 101 92 137 192 208 245 174 12 -8 13 -13 3 -30 -34 -53 -1 -80 99 -80 50 0
79 -4 86 -13 14 -16 -10 -140 -40 -209 -22 -51 -18 -81 9 -76 38 7 72 89 88
209 10 77 14 79 161 88 144 10 204 27 204 60 0 26 -15 26 -194 6 -161 -18
-160 -18 -154 83 11 167 -55 307 -116 246z"/>
<path d="M4827 10783 c-14 -16 -33 -45 -42 -65 -16 -40 -29 -48 -39 -23 -8 22
-33 18 -50 -8 -13 -19 -14 -43 -6 -147 5 -69 8 -165 7 -215 l-2 -90 30 0 c37
0 55 31 55 97 0 84 21 252 37 303 32 101 62 120 89 58 16 -38 68 -229 85 -310
15 -78 51 -128 86 -121 23 4 29 36 9 51 -9 7 -25 51 -36 102 -66 292 -86 354
-124 380 -32 23 -69 18 -99 -12z"/>
<path d="M13287 10765 c-96 -40 -125 -62 -136 -103 -16 -57 3 -118 57 -191 46
-62 159 -92 195 -53 17 19 23 52 10 52 -5 1 -31 2 -60 3 -62 3 -100 27 -126
81 -31 65 -10 99 87 138 72 29 88 48 62 77 -23 25 -18 26 -89 -4z"/>
<path d="M5200 10672 c-57 -29 -74 -63 -79 -153 -4 -97 33 -230 83 -300 59
-80 168 -119 206 -73 19 22 4 42 -37 50 -52 9 -82 26 -121 67 -28 29 -33 41
-30 73 l3 39 65 0 c99 1 150 46 150 133 0 61 -77 155 -137 167 -12 3 -33 7
-46 10 -13 2 -38 -3 -57 -13z m127 -83 c8 -7 23 -30 34 -52 21 -40 18 -52 -21
-84 -21 -17 -83 -16 -125 1 -32 14 -35 19 -35 56 0 33 6 48 30 72 26 26 36 30
66 25 20 -3 42 -12 51 -18z"/>
<path d="M13893 10643 c-24 -8 -13 -40 21 -66 l33 -26 -5 -100 -5 -100 36 -36
c42 -42 69 -44 104 -9 24 24 25 31 21 94 -6 76 -32 136 -76 176 -35 32 -114
72 -129 67z m147 -238 c0 -27 -15 -41 -25 -25 -10 16 4 62 15 55 6 -3 10 -17
10 -30z"/>
<path d="M2820 10626 c-133 -37 -195 -120 -170 -226 31 -128 182 -173 320 -96
l46 25 39 -54 c68 -94 137 -126 186 -87 l22 19 -39 19 c-24 12 -61 47 -99 95
-101 129 -109 137 -131 144 -28 7 -51 -15 -64 -65 -13 -47 -42 -70 -88 -70
-70 0 -129 63 -118 124 3 18 21 46 39 63 46 43 93 56 180 48 62 -6 76 -4 91
10 9 10 15 22 13 28 -11 33 -143 46 -227 23z"/>
<path d="M2234 10619 c-5 -8 -9 -23 -9 -34 0 -16 -14 -24 -66 -41 -106 -34
-201 -103 -230 -168 -24 -52 -24 -73 1 -129 54 -123 266 -164 448 -88 139 58
209 130 198 203 -16 97 -79 174 -184 224 -88 41 -145 53 -158 33z m226 -161
c52 -65 58 -97 27 -143 -53 -78 -163 -126 -290 -128 -66 -1 -90 3 -123 20 -51
27 -74 61 -74 109 0 32 8 45 50 86 81 78 156 105 289 105 l83 -1 38 -48z"/>
<path d="M8693 10529 c-30 -19 -34 -19 -84 -5 -29 9 -71 16 -93 16 -90 0 -297
-65 -449 -140 -86 -42 -92 -47 -92 -75 0 -46 32 -44 131 9 143 76 338 136 443
136 47 0 51 -2 51 -24 0 -14 -24 -55 -56 -96 -57 -74 -128 -207 -205 -385 -82
-189 -356 -730 -577 -1139 -118 -218 -154 -294 -212 -445 -25 -68 -54 -127
-63 -133 -11 -6 -45 -5 -93 1 -226 32 -532 -15 -749 -114 -229 -104 -417 -314
-510 -571 -35 -97 -65 -292 -65 -427 0 -392 113 -757 319 -1032 63 -84 242
-259 310 -302 79 -51 180 -107 221 -123 19 -7 41 -18 49 -24 22 -17 249 -84
331 -97 165 -27 359 -31 481 -10 168 29 459 149 606 249 80 55 182 158 204
207 26 57 23 99 -11 167 -16 32 -30 63 -30 68 0 13 172 240 181 240 5 0 25
-30 46 -67 48 -87 170 -209 305 -305 57 -40 117 -83 133 -95 17 -12 44 -30 60
-39 17 -9 62 -37 100 -62 98 -64 183 -104 206 -97 10 4 23 15 29 25 12 22 1
32 -60 56 -25 9 -71 34 -104 56 -32 21 -62 38 -66 38 -5 0 -15 6 -22 13 -22
20 -69 51 -128 85 -30 17 -79 50 -107 74 -29 24 -78 63 -109 88 -68 53 -166
164 -194 220 -31 60 -26 111 16 187 47 82 107 131 249 198 179 86 357 141 523
164 77 10 112 30 112 62 0 28 -39 32 -136 14 -213 -39 -426 -117 -574 -210
-80 -50 -83 -48 -73 33 12 99 7 233 -11 295 -120 412 -611 847 -1092 967 -49
12 -120 26 -158 31 -39 5 -74 13 -80 19 -6 6 -4 29 8 67 22 70 142 345 186
428 18 33 63 117 101 186 115 213 425 829 493 981 155 345 225 476 248 462 7
-4 8 -67 3 -180 -11 -256 5 -357 52 -328 17 10 18 33 19 308 l1 297 29 30 c22
23 26 33 18 46 -15 25 -25 25 -61 2z m-1217 -2354 c4 -9 15 -20 26 -26 16 -9
26 -7 50 11 28 21 31 21 91 6 296 -73 433 -126 607 -238 145 -93 321 -253 410
-374 142 -190 199 -328 207 -495 8 -161 -10 -223 -123 -416 -53 -90 -265 -370
-308 -406 -40 -35 -81 -57 -103 -57 -13 0 -30 -11 -39 -26 -15 -22 -15 -27 -2
-40 20 -20 75 -6 141 36 26 16 54 30 62 30 19 0 49 -94 40 -128 -38 -154 -484
-400 -800 -443 -253 -34 -592 29 -850 158 -201 101 -382 262 -492 438 -178
285 -253 563 -254 940 -2 561 318 951 841 1024 41 6 86 13 100 15 14 2 107 4
208 5 155 1 184 -1 188 -14z"/>
<path d="M7510 7522 c0 -16 8 -36 18 -45 10 -9 92 -45 183 -80 173 -67 243
-100 254 -118 17 -26 -59 -79 -177 -122 -140 -52 -385 -149 -416 -165 -48 -24
-56 -44 -31 -76 20 -26 121 -78 219 -113 132 -48 141 -50 289 -95 41 -12 86
-32 100 -44 25 -22 25 -23 7 -43 -38 -41 -76 -46 -371 -45 -238 0 -287 3 -324
17 -54 21 -87 22 -95 2 -26 -69 116 -101 444 -98 219 2 314 14 389 52 49 25
75 62 67 94 -5 21 -76 77 -97 77 -6 0 -27 9 -47 19 -78 42 -123 61 -140 61
-10 0 -22 4 -27 9 -10 9 -154 54 -210 65 -42 9 -95 43 -95 61 0 19 34 36 160
78 102 34 129 44 197 73 17 8 34 14 37 14 24 0 125 59 163 95 41 40 45 47 39
76 -3 18 -14 41 -23 52 -27 29 -130 83 -260 136 -65 27 -135 58 -156 70 -21
11 -51 21 -67 21 -26 0 -30 -4 -30 -28z"/>
<path d="M14212 10437 c-6 -7 -14 -33 -17 -57 -3 -25 -11 -64 -17 -88 -9 -36
-8 -45 7 -62 23 -25 41 -25 83 0 18 11 34 20 37 20 2 0 18 -27 36 -61 33 -61
83 -113 103 -106 19 6 18 44 -1 73 -10 15 -34 59 -53 98 -36 72 -45 81 -92 91
-24 5 -28 10 -28 39 0 19 -8 40 -18 49 -22 20 -26 21 -40 4z"/>
<path d="M5300 9670 c-17 -17 -20 -33 -20 -124 0 -119 -4 -126 -78 -134 -51
-5 -82 -25 -82 -53 0 -24 31 -32 91 -24 64 9 67 -1 35 -99 -36 -107 -34 -146
8 -130 25 10 44 54 56 129 19 121 41 141 138 126 110 -17 152 -71 152 -193 0
-59 7 -72 33 -62 26 10 36 57 27 126 -18 143 -68 186 -228 196 -77 4 -83 6
-88 29 -4 13 -2 50 4 81 19 98 20 116 11 134 -13 24 -34 23 -59 -2z"/>
<path d="M5610 9649 c-29 -32 -44 -77 -34 -104 7 -18 36 -28 57 -19 41 15 56
154 16 154 -6 0 -23 -14 -39 -31z"/>
<path d="M3570 9640 c-24 -24 -26 -79 -4 -121 19 -38 12 -58 -31 -89 -70 -50
-119 -140 -91 -168 20 -20 51 -1 76 47 17 35 36 51 61 51 19 0 -2 -178 -30
-253 -18 -47 -14 -67 13 -67 50 0 76 75 81 229 4 147 9 152 123 152 102 0 149
-14 201 -61 43 -40 48 -59 31 -120 -7 -26 -7 -38 3 -48 21 -20 59 0 103 54 54
66 81 94 93 94 5 0 13 -26 17 -57 20 -165 68 -236 169 -248 99 -13 156 22 242
148 18 26 37 47 43 47 5 0 17 -15 26 -32 23 -46 62 -86 109 -111 60 -32 197
-32 243 1 18 13 32 32 32 44 0 18 -4 19 -32 14 -71 -15 -111 -18 -153 -12 -74
12 -160 97 -172 171 -5 30 0 39 46 88 70 74 70 125 -1 88 -32 -16 -36 -16 -45
-2 -16 26 -37 -1 -68 -87 -42 -116 -74 -171 -135 -234 -49 -51 -61 -58 -94
-58 -51 0 -89 29 -109 82 -15 43 -20 66 -37 167 -11 65 -24 81 -63 81 -25 0
-42 -11 -82 -55 -29 -30 -55 -55 -59 -55 -3 0 -19 20 -35 45 -68 108 -157 141
-325 121 -83 -10 -86 -7 -86 86 0 57 -3 69 -20 78 -15 8 -24 6 -40 -10z"/>
<path d="M1773 9585 c-13 -9 -23 -27 -23 -41 0 -22 4 -24 43 -24 52 0 89 23
85 53 -2 18 -11 23 -43 25 -25 2 -49 -3 -62 -13z"/>
<path d="M2955 9535 c-157 -78 -245 -161 -245 -230 0 -62 58 -92 195 -100 98
-6 231 -25 265 -37 84 -31 93 -96 25 -186 -55 -73 -90 -89 -140 -65 -40 19
-65 6 -65 -32 0 -34 25 -48 83 -48 92 0 170 59 227 172 17 35 21 56 17 95 -4
43 -10 55 -43 83 -57 48 -171 80 -319 88 -66 4 -130 11 -142 16 -58 22 -2 84
134 150 45 21 88 39 96 39 8 0 29 13 47 30 26 25 30 32 20 50 -17 31 -55 25
-155 -25z"/>
<path d="M5893 9405 c-17 -7 -56 -29 -87 -49 -70 -45 -82 -79 -65 -188 17
-112 48 -163 106 -174 52 -10 113 19 171 80 85 90 106 213 48 289 -42 54 -108
71 -173 42z m116 -91 c23 -29 28 -85 11 -128 -5 -14 -26 -44 -47 -67 -82 -91
-135 -72 -164 59 -14 70 4 112 62 140 62 31 112 29 138 -4z"/>
<path d="M1739 9329 c-18 -18 -20 -28 -14 -107 4 -48 8 -169 10 -269 1 -99 6
-186 9 -192 9 -15 39 -14 54 1 16 16 17 540 2 569 -14 25 -35 24 -61 -2z"/>
<path d="M6567 9339 c-58 -14 -94 -35 -201 -122 -94 -74 -100 -78 -113 -61 -8
11 -16 30 -19 44 -13 60 -21 75 -42 78 -32 5 -39 -39 -18 -117 33 -124 73
-133 176 -37 45 43 52 48 147 111 59 40 110 46 136 17 32 -35 49 -103 45 -187
-3 -76 -2 -80 19 -83 69 -10 70 213 1 314 -19 28 -65 57 -87 53 -3 -1 -23 -5
-44 -10z"/>
<path d="M2350 9333 c-44 -17 -107 -73 -165 -148 -37 -47 -71 -85 -76 -85 -13
0 -11 23 6 63 20 48 19 64 -6 77 -42 23 -63 -16 -88 -160 -18 -109 -15 -153
13 -158 33 -7 67 21 103 86 72 129 169 233 227 244 27 5 44 -51 45 -148 1 -71
4 -83 24 -102 28 -27 58 -28 80 -4 22 24 21 34 -1 53 -14 12 -22 42 -31 110
-17 132 -26 155 -63 168 -34 12 -45 12 -68 4z"/>
<path d="M17348 9330 c-90 -16 -176 -66 -269 -159 -97 -98 -148 -182 -190
-311 -27 -83 -28 -85 -61 -88 -19 -2 -68 6 -109 17 -40 12 -84 21 -96 21 -30
0 -55 -37 -42 -61 16 -31 50 -42 142 -49 48 -4 92 -11 98 -17 7 -7 -3 -63 -31
-172 -23 -90 -40 -173 -38 -185 5 -36 40 -26 62 17 16 34 54 181 70 278 10 58
19 60 142 44 175 -23 276 -18 322 18 24 19 -5 29 -109 38 -223 18 -291 27
-301 37 -19 19 61 211 121 292 147 197 338 257 534 168 55 -25 82 -17 82 22 0
36 -42 58 -149 80 -106 22 -108 22 -178 10z"/>
<path d="M18429 9107 c-15 -8 -28 -28 -36 -56 -20 -69 -43 -241 -43 -320 0
-68 -1 -72 -26 -81 -14 -6 -56 -10 -93 -10 -71 0 -91 -10 -91 -46 0 -34 24
-48 73 -40 114 18 127 19 128 5 1 -8 2 -89 3 -180 1 -124 4 -170 15 -182 15
-19 47 -22 57 -6 3 6 6 94 5 195 l-2 184 24 9 c14 5 89 10 168 11 150 2 159 0
124 -40 -25 -29 -45 -79 -45 -112 1 -76 71 -165 148 -189 92 -27 252 31 260
95 4 34 -18 34 -80 1 -66 -35 -121 -42 -155 -20 -39 26 -60 53 -79 103 -19 49
-11 80 29 106 27 18 213 59 227 51 5 -3 25 1 45 9 31 13 36 20 33 43 -3 26 -6
28 -48 26 -25 -1 -177 -4 -338 -6 -211 -3 -295 -1 -302 7 -11 14 13 241 35
333 26 106 16 135 -36 110z"/>
<path d="M19437 8992 c-19 -21 -52 -211 -73 -423 -12 -129 43 -167 142 -98 23
16 44 33 46 38 7 20 92 81 112 81 26 0 48 -41 67 -125 27 -117 100 -209 159
-203 36 4 36 33 0 75 -39 44 -51 70 -85 193 -32 113 -52 140 -108 140 -40 0
-96 -33 -175 -105 -38 -34 -69 -48 -77 -35 -3 4 -1 37 4 72 28 192 43 288 52
326 15 70 -23 109 -64 64z"/>
<path d="M24002 8857 c-32 -34 -49 -95 -67 -242 -8 -71 -18 -149 -21 -172 -3
-24 -9 -43 -13 -43 -4 0 -23 24 -41 53 -19 28 -58 75 -86 103 -43 42 -64 54
-117 69 -75 20 -108 15 -144 -21 -23 -23 -25 -31 -20 -86 3 -38 17 -83 36
-122 58 -116 117 -169 256 -226 65 -26 98 -33 175 -37 102 -5 140 7 127 41 -5
13 -21 16 -84 16 -117 1 -246 52 -318 127 -64 67 -113 179 -101 229 7 25 10
26 48 21 59 -8 151 -101 215 -219 26 -49 53 -94 60 -100 18 -15 52 0 57 25 14
75 47 296 55 370 6 48 19 108 31 133 25 58 25 80 1 94 -26 13 -24 14 -49 -13z"/>
<path d="M17629 8832 c-109 -45 -167 -90 -201 -156 -57 -111 36 -283 190 -354
74 -34 210 -44 232 -17 26 31 1 49 -78 56 -81 8 -133 33 -195 95 -52 53 -91
135 -83 176 11 57 19 63 58 46 65 -30 138 -41 245 -35 92 4 110 8 151 34 55
33 64 65 33 105 -39 49 -97 71 -196 74 -79 3 -98 0 -156 -24z m237 -58 c15
-11 30 -26 32 -32 7 -22 -51 -34 -148 -30 -140 7 -176 32 -97 69 57 27 173 23
213 -7z"/>
<path d="M21101 8755 c-63 -18 -99 -42 -140 -94 -65 -82 -81 -145 -110 -436
-20 -198 -17 -354 10 -460 14 -55 54 -84 84 -61 20 14 18 50 -9 151 -20 75
-34 365 -18 365 6 0 32 -11 58 -25 55 -29 121 -33 208 -10 191 50 282 203 232
391 -20 74 -44 110 -101 149 -61 42 -133 52 -214 30z m161 -80 c63 -43 102
-163 84 -260 -8 -41 -64 -108 -110 -132 -43 -23 -124 -43 -170 -43 -34 0 -45
6 -87 53 -27 28 -49 60 -49 69 0 40 32 164 56 213 51 109 189 159 276 100z"/>
<path d="M4494 8710 c-68 -23 -84 -33 -121 -72 -52 -54 -91 -150 -103 -253
-23 -203 -5 -538 31 -581 17 -21 49 -14 71 17 18 24 18 29 5 62 -46 109 -65
417 -26 417 5 0 48 -40 96 -89 133 -134 297 -232 341 -204 35 22 19 45 -63 87
-71 37 -187 112 -254 164 -17 14 -22 25 -17 40 8 24 10 25 131 48 95 18 205
61 241 95 13 12 28 34 34 49 10 24 8 35 -14 78 -14 27 -40 61 -58 76 -18 14
-39 31 -46 37 -49 40 -175 55 -248 29z m208 -90 c24 -12 53 -34 65 -48 54 -66
10 -109 -152 -150 -157 -40 -240 -64 -249 -73 -31 -29 -48 18 -27 73 5 13 14
41 21 63 37 114 116 169 232 162 42 -3 82 -12 110 -27z"/>
<path d="M21645 8718 c-68 -37 -99 -94 -121 -219 -28 -165 7 -274 106 -324 55
-28 87 -31 115 -12 24 18 13 34 -36 53 -92 37 -127 119 -111 256 16 131 52
187 122 188 41 0 94 -29 111 -61 19 -36 16 -95 -6 -119 -17 -19 -27 -21 -68
-17 -57 7 -77 1 -77 -23 0 -58 119 -76 184 -27 66 51 82 116 47 192 -23 49
-64 89 -113 109 -43 18 -124 20 -153 4z"/>
<path d="M22555 8646 c-5 -2 -44 -9 -85 -16 -172 -29 -253 -63 -337 -143 -61
-57 -123 -147 -123 -176 0 -18 24 -51 36 -51 23 0 51 32 75 83 37 81 102 149
170 180 111 50 138 59 154 53 19 -7 9 -30 -41 -91 -39 -48 -84 -135 -95 -184
-19 -83 70 -143 140 -95 26 19 55 80 65 139 10 57 27 96 40 92 6 -2 19 -34 28
-71 34 -129 95 -206 163 -206 45 0 47 25 5 65 -17 16 -42 48 -55 72 -31 52
-67 197 -70 283 -2 64 -3 65 -31 67 -16 1 -33 0 -39 -1z m-45 -168 c-1 -36
-86 -198 -107 -206 -20 -6 -16 40 8 100 47 122 100 178 99 106z"/>
<path d="M5671 8603 c-36 -36 -45 -57 -91 -208 -4 -16 -20 -93 -34 -170 -15
-77 -36 -174 -47 -216 -12 -42 -19 -85 -17 -95 5 -27 43 -29 66 -4 29 31 38
75 67 302 25 200 49 298 75 298 10 0 12 -23 14 -155 3 -183 123 -159 226 45
31 62 79 128 99 135 27 11 47 -28 106 -204 55 -166 100 -251 133 -251 22 0 52
20 52 34 0 7 -16 33 -35 57 -26 33 -48 84 -85 199 -54 163 -85 224 -125 242
-52 24 -129 -41 -194 -163 -42 -80 -79 -129 -96 -129 -20 0 -29 54 -27 165 3
150 -22 184 -87 118z"/>
<path d="M20468 8592 c-9 -4 -27 -21 -40 -39 -13 -18 -40 -52 -61 -77 -74 -87
-84 -218 -23 -299 91 -119 285 -121 380 -3 29 36 31 43 31 124 0 75 -4 94 -28
139 -14 28 -32 55 -38 58 -6 4 -19 27 -29 51 l-19 44 -65 0 c-35 0 -70 2 -78
4 -7 3 -21 2 -30 -2z m131 -119 c50 -53 81 -129 81 -201 0 -134 -209 -162
-270 -37 -48 98 -2 227 95 271 43 19 44 19 94 -33z"/>
<path d="M23261 8571 c-10 -10 -33 -56 -51 -102 -17 -46 -37 -93 -44 -104 -7
-11 -20 -40 -30 -65 -9 -25 -25 -56 -36 -70 l-19 -25 -9 26 c-6 14 -12 83 -15
154 -5 127 -10 144 -44 145 -7 0 -23 -10 -34 -21 -20 -20 -21 -28 -15 -103 10
-117 26 -234 36 -261 5 -13 20 -31 34 -40 22 -15 27 -15 55 0 41 21 56 45 115
193 28 70 56 127 61 126 6 0 17 -34 26 -75 31 -149 91 -204 183 -169 44 16 28
50 -24 50 -40 0 -74 83 -85 205 -9 89 -22 133 -45 145 -27 14 -37 13 -59 -9z"/>
<path d="M5157 8541 c-63 -56 -108 -167 -168 -421 -17 -74 -38 -150 -45 -169
-27 -65 -14 -92 36 -71 27 11 60 68 60 103 0 8 7 37 16 66 15 50 16 52 44 46
23 -5 34 -1 50 17 97 111 109 122 119 113 6 -6 16 -58 24 -115 14 -114 26
-131 66 -91 26 26 26 50 1 121 -20 58 -27 155 -10 165 21 13 48 62 41 74 -6 9
-13 9 -34 0 -38 -17 -52 -1 -66 80 -20 111 -67 140 -134 82z m75 -117 c32 -95
28 -108 -64 -195 -45 -43 -85 -76 -89 -73 -21 13 46 237 86 290 15 19 32 33
38 31 7 -2 20 -26 29 -53z"/>
<path d="M1520 8501 c-94 -31 -187 -116 -234 -216 -40 -84 -50 -92 -130 -116
-81 -24 -96 -34 -96 -60 0 -29 41 -44 81 -30 42 15 79 14 79 -1 0 -7 -7 -53
-15 -103 -8 -49 -15 -121 -15 -158 l0 -68 27 3 c32 4 39 27 48 153 14 200 22
222 93 243 49 15 274 16 342 1 65 -14 75 -41 36 -99 -41 -62 -32 -99 19 -86
16 4 41 31 70 76 26 38 62 83 81 100 46 40 162 98 213 106 l41 7 0 -36 c0 -19
-9 -56 -20 -82 -22 -51 -26 -90 -10 -100 6 -4 17 -22 25 -40 19 -47 68 -75
129 -75 93 0 185 69 245 184 53 100 39 236 -28 270 -67 35 -167 15 -245 -51
-20 -16 -36 -22 -50 -18 -61 18 -84 16 -169 -15 -50 -19 -113 -51 -147 -76
-67 -49 -84 -52 -138 -25 -59 30 -203 46 -317 35 -74 -7 -98 -7 -102 3 -8 21
63 118 113 155 98 70 152 73 224 13 46 -38 84 -45 99 -17 14 26 -5 58 -56 94
-33 24 -53 31 -105 34 -34 2 -74 0 -88 -5z m949 -207 c58 -74 -17 -237 -134
-294 -39 -19 -50 -20 -75 -10 -37 15 -54 63 -44 127 12 85 58 146 139 184 57
26 89 24 114 -7z"/>
<path d="M3445 8412 c-85 -47 -157 -99 -225 -162 -36 -33 -68 -60 -71 -60 -3
0 -9 32 -11 71 -7 94 -20 107 -85 89 -40 -11 -63 -29 -136 -103 -48 -49 -91
-86 -94 -83 -4 3 -1 42 6 85 14 85 11 101 -20 101 -23 0 -59 -54 -52 -79 2 -9
-3 -48 -11 -85 -9 -37 -16 -89 -16 -117 0 -48 1 -49 30 -49 43 0 72 22 115 88
40 61 113 135 158 158 32 17 31 20 32 -91 0 -76 1 -80 24 -83 44 -7 71 9 139
76 112 113 238 199 259 178 4 -4 -8 -56 -25 -115 -34 -117 -38 -153 -21 -198
13 -36 27 -44 55 -31 30 14 35 29 23 72 -8 28 -4 59 21 159 17 69 30 142 28
163 -3 37 -5 39 -38 42 -23 1 -52 -7 -85 -26z"/>
<path d="M19020 7865 c-13 -16 -11 -172 6 -540 6 -111 4 -124 -16 -163 -31
-59 -24 -136 14 -169 62 -53 193 -9 290 99 126 138 113 307 -23 308 -36 0 -52
-7 -89 -37 -25 -20 -54 -52 -64 -70 -11 -18 -26 -33 -34 -33 -12 0 -14 47 -14
284 0 271 -1 284 -21 310 -24 30 -32 32 -49 11z m320 -591 c0 -49 -93 -166
-171 -213 -81 -49 -147 -2 -78 56 16 14 43 52 59 84 34 67 89 126 122 132 25
4 68 -33 68 -59z"/>
<path d="M19501 7778 c-8 -23 -27 -441 -25 -573 1 -98 37 -166 71 -133 12 13
13 25 3 76 -7 33 -10 95 -7 139 2 43 10 169 18 280 11 166 11 204 0 217 -19
23 -50 20 -60 -6z"/>
<path d="M17090 7721 c-95 -20 -186 -84 -221 -153 -64 -126 -5 -376 120 -506
111 -116 341 -176 341 -91 0 25 -16 32 -76 34 -59 3 -154 42 -197 83 -80 76
-137 214 -140 337 -1 65 2 78 28 120 70 112 261 153 407 89 39 -17 68 -63 68
-106 -1 -59 -72 -157 -133 -183 -77 -32 -136 -37 -215 -19 -40 9 -75 14 -78
11 -17 -16 9 -58 47 -77 58 -30 123 -35 197 -16 117 30 184 82 226 179 79 177
-18 294 -249 303 -49 1 -106 -1 -125 -5z"/>
<path d="M18080 7633 c-56 -22 -178 -145 -255 -258 -78 -114 -112 -152 -124
-140 -14 15 11 153 37 203 26 50 28 75 7 92 -23 19 -48 7 -72 -35 -17 -31 -26
-76 -38 -192 -15 -139 -15 -153 -1 -182 13 -24 23 -31 47 -31 26 0 35 9 79 78
59 93 127 186 195 267 129 153 163 153 146 0 -19 -159 -4 -252 48 -299 42 -38
77 7 42 55 -25 34 -28 86 -16 282 7 114 7 119 -16 143 -22 23 -48 29 -79 17z"/>
<path d="M18515 7561 c-83 -37 -149 -141 -185 -293 -38 -159 -17 -227 70 -228
49 0 100 45 151 133 83 144 84 144 99 24 14 -114 63 -178 126 -165 9 1 22 11
28 21 11 19 -1 34 -49 62 -27 16 -45 109 -45 232 l0 112 -29 22 c-16 12 -31
33 -34 48 -6 28 -42 52 -75 50 -9 0 -35 -8 -57 -18z m125 -83 c-1 -53 -160
-313 -209 -341 -59 -34 -66 4 -25 135 35 111 55 147 103 191 35 31 48 37 86
37 40 0 45 -2 45 -22z"/>
<path d="M20998 7560 c-9 -6 -27 -27 -39 -48 -13 -20 -40 -59 -61 -87 -21 -27
-38 -53 -38 -57 0 -4 -13 -26 -28 -50 -16 -24 -44 -76 -63 -115 -26 -56 -39
-73 -55 -73 -32 0 -47 -25 -40 -63 5 -26 0 -43 -25 -82 -41 -66 -105 -132
-151 -156 -39 -20 -45 -36 -28 -68 36 -68 130 4 230 176 l53 91 111 -5 c127
-6 139 -13 150 -85 12 -75 50 -179 69 -190 22 -11 47 6 47 33 0 10 -11 53 -25
96 -14 43 -25 93 -25 111 l0 32 53 0 c64 0 98 19 81 47 -9 15 -24 18 -80 18
l-69 0 -8 55 c-5 30 -7 129 -4 219 4 155 3 164 -17 187 -16 18 -25 21 -38 14z
m-28 -192 c0 -24 3 -95 6 -159 l7 -117 -31 -7 c-27 -6 -78 -1 -124 11 -32 9
-27 36 28 146 57 113 91 168 106 168 4 0 8 -19 8 -42z"/>
<path d="M23046 7484 c-12 -11 -15 -25 -11 -45 10 -44 -34 -227 -75 -314 -5
-11 -19 -45 -30 -75 -25 -64 -82 -171 -118 -218 -37 -51 -136 -119 -198 -137
-63 -18 -110 -9 -153 29 -81 72 -95 305 -30 495 22 62 13 94 -24 89 -32 -4
-63 -76 -81 -187 -35 -211 -12 -357 70 -436 76 -74 166 -92 264 -52 167 69
278 223 380 527 73 220 81 288 40 325 -16 15 -19 15 -34 -1z"/>
<path d="M21627 7460 c-31 -36 -49 -90 -83 -245 -23 -106 -25 -136 -21 -250 6
-150 26 -221 79 -272 100 -97 227 -65 387 95 91 91 118 130 108 156 -9 23 -43
19 -62 -6 -30 -45 -121 -131 -176 -168 -176 -121 -259 -46 -259 236 0 111 39
299 80 387 22 45 27 65 19 79 -14 27 -44 22 -72 -12z"/>
<path d="M19835 7476 c-5 -2 -22 -7 -37 -10 -40 -9 -98 -64 -121 -116 -27 -60
-29 -177 -4 -241 20 -53 96 -130 167 -172 94 -54 323 -95 364 -65 13 10 16 21
12 36 -7 20 -14 22 -70 22 -126 0 -275 59 -357 141 -38 38 -59 100 -59 175 0
107 104 181 220 155 47 -10 90 -45 90 -73 0 -24 -37 -38 -124 -48 -71 -8 -103
-27 -93 -54 16 -40 87 -38 202 5 107 40 131 89 74 154 -51 58 -108 85 -186 90
-37 3 -72 3 -78 1z"/>
<path d="M11299 5596 c-14 -29 -4 -75 17 -83 20 -7 54 25 54 52 0 23 -28 55
-49 55 -6 0 -16 -11 -22 -24z"/>
<path d="M10925 5278 c-98 -45 -166 -103 -241 -208 -85 -119 -130 -276 -89
-310 21 -18 63 2 69 32 3 13 10 52 16 88 14 77 28 107 86 180 56 71 111 115
176 144 85 38 102 39 136 11 38 -32 53 -111 46 -240 -6 -103 -40 -319 -55
-347 -6 -10 -9 -33 -7 -51 2 -27 7 -32 28 -32 34 0 45 27 77 182 21 104 26
158 27 288 1 177 -9 217 -67 259 -42 31 -138 33 -202 4z"/>
<path d="M11818 5250 c-51 -15 -103 -51 -128 -87 -25 -37 -28 -72 -18 -188 3
-30 3 -30 -45 -28 -49 3 -114 30 -136 57 -9 11 -11 32 -7 69 8 59 -5 104 -30
114 -24 9 -44 -23 -44 -69 0 -21 -7 -55 -15 -75 -12 -28 -13 -44 -4 -76 6 -24
10 -112 8 -219 -3 -197 1 -214 46 -176 l27 24 0 154 c-1 85 3 160 9 166 7 8
28 5 82 -13 39 -13 95 -27 123 -31 36 -6 65 -19 95 -44 123 -98 308 -180 372
-164 52 13 44 61 -11 70 -95 15 -142 29 -202 59 -54 26 -65 36 -65 57 0 20 8
28 48 42 94 35 157 111 157 189 0 56 -46 136 -91 159 -40 21 -120 26 -171 10z
m166 -93 c32 -42 34 -97 6 -142 -30 -48 -113 -98 -164 -99 -39 -1 -42 1 -65
48 -32 64 -32 138 0 173 27 28 97 51 156 52 36 1 45 -4 67 -32z"/>
<path d="M9571 5094 c-27 -34 -36 -108 -36 -299 0 -184 14 -252 64 -299 54
-52 147 -52 186 0 11 16 41 77 67 137 69 159 77 164 104 71 25 -88 94 -152
149 -138 34 8 72 56 85 107 6 23 22 79 36 125 27 87 26 116 -3 110 -23 -4 -56
-64 -89 -161 -31 -87 -55 -117 -78 -98 -17 14 -40 79 -57 161 -12 55 -34 100
-50 100 -26 0 -75 -69 -129 -180 -81 -167 -90 -183 -108 -197 -49 -40 -87 19
-102 162 -12 101 -6 269 10 326 6 19 10 49 10 66 0 42 -29 45 -59 7z"/>
<path d="M13219 4243 c-8 -9 -16 -68 -21 -157 -5 -77 -12 -163 -16 -191 l-7
-50 -45 -1 c-25 0 -58 5 -75 12 -16 6 -72 15 -123 19 -81 6 -96 4 -113 -11
-22 -19 -25 -59 -6 -71 6 -4 69 -6 139 -4 70 1 147 -1 172 -4 38 -6 46 -11 50
-34 9 -42 -20 -260 -43 -328 -26 -76 -26 -93 -3 -93 51 0 87 99 100 276 5 73
13 137 16 143 10 16 56 14 107 -4 24 -9 84 -22 132 -29 79 -12 91 -11 108 3
47 38 -35 67 -249 86 -98 9 -104 18 -92 145 26 263 25 292 -4 303 -8 3 -20 -1
-27 -10z"/>
<path d="M12390 4185 c-10 -13 -10 -53 -1 -208 7 -105 15 -241 17 -302 7 -162
32 -403 45 -426 6 -11 17 -19 26 -17 35 7 38 32 20 215 -9 98 -19 225 -22 283
-4 58 -13 179 -21 269 -18 193 -30 227 -64 186z"/>
<path d="M10319 4090 c-25 -4 -65 -18 -89 -30 -61 -31 -156 -124 -192 -187
-17 -29 -34 -56 -39 -59 -5 -3 -25 8 -43 24 -19 16 -59 42 -89 57 -55 27 -56
27 -87 8 -33 -18 -78 -96 -120 -205 -26 -67 -41 -288 -20 -313 19 -22 47 -18
66 10 13 20 15 38 9 93 -4 42 -2 93 6 133 14 76 71 207 94 215 16 6 114 -47
141 -78 11 -12 16 -43 18 -115 2 -122 29 -190 99 -247 83 -68 233 -101 350
-77 62 14 87 31 87 63 0 18 -4 20 -37 14 -178 -30 -276 -14 -349 60 -52 52
-75 99 -77 160 -3 67 10 71 94 29 84 -43 163 -55 233 -35 73 20 149 135 162
243 7 60 -7 120 -38 167 -46 66 -94 85 -179 70z m88 -73 c33 -15 66 -110 59
-165 -6 -47 -32 -101 -70 -147 -24 -29 -26 -30 -108 -29 -100 2 -182 28 -212
67 -19 26 -19 28 -2 64 42 88 158 194 239 218 43 13 54 12 94 -8z"/>
<path d="M11060 4090 c-138 -25 -250 -75 -329 -146 -53 -47 -70 -89 -57 -139
7 -28 77 -82 129 -102 18 -6 82 -29 143 -51 185 -66 387 -153 427 -184 24 -20
37 -38 37 -54 0 -55 -114 -137 -250 -180 -51 -16 -137 -21 -220 -12 -33 3 -35
1 -35 -27 0 -44 33 -57 125 -51 171 10 360 102 433 209 41 60 37 97 -15 142
-69 59 -276 155 -473 220 -177 59 -235 89 -235 125 0 43 129 126 240 156 41
10 101 17 163 16 73 0 101 3 112 14 17 18 19 33 5 54 -11 17 -128 23 -200 10z"/>
<path d="M11661 3901 c-29 -29 -41 -84 -41 -193 0 -103 28 -217 69 -284 35
-57 127 -112 188 -114 29 0 79 44 103 90 27 54 63 196 84 334 5 36 -2 56 -20
56 -21 0 -34 -32 -70 -176 -50 -200 -82 -250 -144 -224 -15 6 -37 21 -48 33
-58 61 -102 236 -87 345 18 136 8 175 -34 133z"/>
<path d="M13797 3298 c-15 -24 -41 -86 -57 -138 -16 -52 -40 -131 -54 -175
-13 -44 -45 -139 -70 -211 -48 -138 -55 -174 -33 -174 24 0 44 33 87 140 23
58 53 132 66 165 13 33 37 105 54 160 16 55 44 131 62 168 25 53 30 72 22 85
-21 32 -47 25 -77 -20z"/>
<path d="M10200 2578 c-108 -19 -242 -114 -323 -231 -79 -113 -96 -177 -97
-356 0 -106 -3 -126 -17 -137 -10 -7 -26 -14 -35 -14 -11 0 -18 -8 -18 -20 0
-17 7 -20 44 -20 l45 0 16 -57 c32 -111 38 -129 67 -197 60 -138 128 -203 184
-177 20 9 25 17 22 39 -2 22 -9 28 -37 32 -48 7 -79 52 -135 192 -74 186 -73
191 30 209 216 39 432 103 573 170 124 59 201 158 201 259 0 169 -300 346
-520 308z m191 -84 c30 -9 58 -20 64 -25 5 -5 15 -9 23 -9 20 0 102 -59 139
-100 53 -57 53 -129 2 -194 -45 -57 -228 -144 -424 -201 -49 -14 -138 -42
-197 -61 -146 -46 -145 -46 -154 22 -3 30 -3 96 1 147 9 114 45 191 134 289
99 107 175 147 287 147 39 1 95 -6 125 -15z"/>
<path d="M11153 2489 c-247 -41 -406 -234 -420 -511 -7 -128 7 -179 73 -279
54 -81 100 -124 190 -177 137 -79 361 -82 372 -4 4 25 -8 27 -93 12 -59 -10
-166 9 -235 42 -59 29 -161 131 -192 193 -50 99 -61 216 -29 325 58 204 212
329 404 330 26 0 80 -7 118 -16 66 -15 72 -15 90 2 22 20 25 47 7 62 -27 21
-205 34 -285 21z"/>
<path d="M13037 2368 c-46 -44 -64 -94 -79 -223 -9 -74 -17 -109 -27 -113 -15
-6 -77 9 -190 45 -95 30 -115 25 -108 -28 6 -43 5 -44 -83 -53 -84 -9 -368
-12 -376 -4 -3 4 -3 80 2 169 9 171 5 201 -31 207 -37 8 -45 -23 -45 -184 0
-84 -3 -159 -6 -168 -7 -19 -66 -21 -128 -5 -82 21 -112 28 -158 34 -41 6 -48
5 -58 -15 -9 -17 -8 -26 4 -44 16 -26 46 -32 219 -45 60 -5 113 -13 118 -18 6
-6 4 -45 -4 -104 -15 -98 -9 -139 18 -139 28 0 46 47 53 137 6 80 9 89 32 100
17 9 42 11 75 7 108 -15 355 10 440 44 49 19 53 19 135 3 l85 -16 -1 -40 c0
-22 -8 -80 -17 -130 -22 -118 -22 -184 -1 -192 27 -10 40 20 58 135 9 59 20
127 24 152 7 43 9 45 43 48 21 2 63 -4 95 -12 86 -22 335 -56 366 -49 15 3 29
12 33 21 10 27 27 22 -275 76 -74 13 -156 27 -182 31 -60 8 -67 27 -44 127 33
143 40 160 73 200 39 47 39 72 1 76 -20 2 -36 -6 -61 -30z"/>
</g>
</svg>
