<?xml version="1.0" standalone="no"?>
<!DOCTYPE svg PUBLIC "-//W3C//DTD SVG 20010904//EN"
 "http://www.w3.org/TR/2001/REC-SVG-20010904/DTD/svg10.dtd">
<svg version="1.0" xmlns="http://www.w3.org/2000/svg"
 width="3264.000000pt" height="2448.000000pt" viewBox="0 0 3264.000000 2448.000000"
 preserveAspectRatio="xMidYMid meet">
<metadata>
Created by potrace 1.12, written by Peter Selinger 2001-2015
</metadata>
<g transform="translate(0.000000,2448.000000) scale(0.100000,-0.100000)"
fill="#000000" stroke="none">
<path d="M11490 22620 c-8 -5 -23 -10 -33 -10 -36 0 -105 -60 -154 -132 -78
-116 -104 -202 -117 -389 -8 -114 33 -180 81 -131 14 15 38 21 107 26 128 9
326 61 429 113 37 18 47 29 47 48 0 30 -28 50 -95 65 -68 16 -155 52 -155 63
0 6 14 31 30 57 36 57 56 140 46 194 -5 25 -20 52 -41 73 -28 28 -40 33 -81
33 -27 0 -56 -5 -64 -10z m83 -48 c45 -50 26 -162 -44 -254 -21 -29 -39 -55
-39 -58 1 -25 40 -45 105 -55 55 -8 145 -43 145 -56 0 -17 -57 -37 -190 -68
-74 -17 -151 -36 -171 -41 -55 -15 -84 -12 -104 10 -15 17 -17 30 -11 94 15
164 76 309 161 380 83 71 118 82 148 48z"/>
<path d="M9757 22428 c-37 -75 -65 -152 -145 -393 -32 -95 -61 -160 -89 -204
-47 -69 -53 -95 -24 -110 51 -28 148 163 190 374 12 55 25 114 31 130 5 17 15
50 22 75 7 25 18 44 23 43 6 -2 13 -78 17 -185 9 -228 12 -242 47 -268 40 -28
54 -25 90 15 41 47 72 110 109 220 17 50 38 107 46 127 9 21 16 47 16 58 0 12
11 33 25 47 l24 27 11 -28 c6 -16 17 -92 25 -170 15 -154 28 -224 48 -259 20
-37 39 -57 54 -57 17 0 16 34 -2 88 -9 24 -20 110 -25 190 -17 268 -33 332
-85 332 -27 0 -45 -25 -45 -63 0 -23 -16 -45 -33 -46 -9 0 -36 -46 -76 -127
-11 -23 -28 -69 -36 -103 -9 -33 -26 -78 -38 -99 -76 -132 -82 -120 -84 185
-1 135 -4 251 -7 259 -3 8 -16 14 -29 14 -21 0 -31 -12 -60 -72z"/>
<path d="M10820 22417 c-132 -39 -342 -113 -383 -133 -38 -20 -48 -30 -45 -46
4 -30 40 -37 122 -25 124 18 293 -19 333 -72 45 -59 -21 -174 -142 -246 -50
-30 -69 -36 -110 -34 -71 2 -75 1 -75 -21 0 -48 117 -56 199 -12 87 46 157
108 191 168 28 47 32 63 27 102 -4 40 -12 53 -47 85 -51 44 -117 66 -236 77
-47 4 -87 10 -90 13 -17 17 182 74 314 90 77 9 92 14 92 29 0 36 -73 49 -150
25z"/>
<path d="M23308 21438 c-3 -7 -3 -29 -1 -49 4 -29 17 -46 63 -88 88 -77 132
-148 224 -365 49 -113 80 -216 91 -302 9 -69 -10 -199 -47 -314 -39 -122 -70
-185 -116 -233 -37 -39 -128 -87 -163 -87 -13 0 -19 -7 -19 -24 0 -47 98 -39
175 14 96 66 161 183 201 360 23 101 25 130 21 240 -7 163 -35 250 -163 517
-107 222 -244 392 -266 331z"/>
<path d="M5093 21330 c-88 -21 -222 -131 -316 -261 -108 -150 -154 -298 -141
-457 8 -99 26 -132 63 -113 22 12 22 15 15 135 -8 147 10 248 58 330 17 28 40
66 50 85 55 98 208 231 264 231 50 0 38 -84 -32 -223 -27 -53 -44 -100 -42
-115 4 -36 68 -66 193 -92 129 -27 225 -56 250 -74 17 -12 18 -17 7 -40 -43
-96 -277 -263 -420 -302 -61 -16 -204 -20 -229 -5 -42 23 -79 -22 -42 -52 19
-15 39 -18 123 -16 56 1 128 8 160 16 158 36 418 224 482 348 l29 56 -29 24
c-19 15 -83 38 -180 64 -250 68 -261 72 -264 103 -2 14 9 50 24 80 37 73 74
185 74 224 0 23 -7 38 -22 48 -24 17 -28 18 -75 6z"/>
<path d="M9717 21312 c-9 -10 -32 -62 -51 -117 -20 -55 -83 -206 -142 -335
-187 -413 -194 -433 -156 -481 26 -31 52 -19 53 23 0 18 8 57 17 87 l17 55 70
12 c39 7 110 26 158 43 62 21 89 27 91 18 2 -7 9 -38 15 -69 13 -60 29 -82 58
-76 26 5 28 46 4 79 -28 38 -37 82 -19 96 7 6 40 18 73 27 65 17 92 40 74 63
-15 18 -35 16 -97 -6 -30 -11 -59 -18 -67 -15 -10 4 -12 42 -11 167 1 152 -8
331 -20 387 -6 25 -31 60 -44 60 -4 0 -14 -8 -23 -18z m18 -327 c3 -77 11
-171 16 -209 8 -54 7 -72 -3 -82 -19 -19 -228 -68 -240 -56 -6 6 3 35 26 79
19 38 67 152 107 252 45 115 75 178 80 170 4 -8 10 -77 14 -154z"/>
<path d="M13063 21192 c-184 -95 -271 -212 -347 -465 -50 -165 -48 -256 6
-314 25 -27 63 -30 72 -7 3 9 -4 30 -16 47 -49 68 -14 262 80 440 65 124 182
238 262 254 30 6 31 5 24 -23 -12 -48 -53 -124 -115 -208 -33 -44 -59 -90 -59
-102 0 -21 39 -80 102 -152 31 -36 35 -66 14 -115 -30 -73 -165 -167 -276
-193 -61 -14 -83 -11 -112 13 -22 20 -38 8 -38 -27 0 -40 41 -70 95 -70 87 0
255 77 335 153 118 113 120 171 14 308 -24 30 -44 65 -44 77 0 12 20 49 45 82
97 133 134 222 114 279 -20 58 -74 66 -156 23z"/>
<path d="M14309 21175 c-92 -60 -187 -216 -241 -393 -58 -193 -72 -272 -64
-374 l6 -88 -35 0 c-58 0 -73 -63 -18 -76 51 -13 399 108 463 160 8 7 36 24
61 39 55 31 119 99 119 126 0 38 -19 68 -55 90 l-37 21 31 35 c85 98 104 246
45 354 -31 58 -54 81 -109 110 -54 28 -119 27 -166 -4z m171 -79 c32 -21 42
-36 55 -80 14 -49 14 -60 0 -124 -17 -72 -54 -141 -92 -167 -12 -8 -70 -22
-130 -30 -143 -20 -173 -30 -173 -60 0 -37 18 -44 95 -35 39 4 82 11 98 15 44
12 177 -4 184 -22 12 -31 -66 -89 -242 -177 -95 -49 -178 -85 -184 -81 -26 15
-7 225 33 381 37 142 132 322 203 384 31 28 42 31 75 27 22 -3 57 -17 78 -31z"/>
<path d="M11419 21093 c-25 -27 -101 -115 -170 -198 -68 -82 -174 -206 -236
-274 -62 -68 -113 -132 -113 -143 0 -30 19 -58 39 -58 12 0 33 22 57 60 26 42
47 62 64 66 14 3 54 16 90 29 90 33 222 75 239 75 11 0 13 -12 8 -59 -5 -40
-2 -63 7 -76 25 -34 41 -12 51 71 10 78 10 79 48 98 29 14 37 23 35 40 -2 16
-11 22 -36 24 -26 3 -32 7 -27 20 3 9 10 57 15 106 5 50 12 118 15 151 6 59
-6 104 -30 112 -6 2 -31 -18 -56 -44z m7 -130 c-3 -21 -10 -83 -16 -137 -6
-55 -12 -101 -14 -103 -9 -9 -238 -64 -243 -59 -8 8 16 42 83 117 33 36 86
100 119 142 33 42 64 76 68 77 5 0 6 -17 3 -37z"/>
<path d="M2273 21110 c-41 -17 -83 -88 -143 -245 -10 -26 -25 -85 -41 -157
-11 -52 -22 -75 -61 -131 -11 -14 -10 -19 2 -27 24 -15 39 -12 65 14 26 26
110 73 190 106 47 20 109 51 146 73 9 6 23 8 31 5 14 -6 98 -225 122 -318 18
-72 31 -84 60 -54 28 28 25 45 -61 269 -9 22 -24 58 -33 80 -10 22 -16 45 -13
51 2 6 30 14 61 16 79 8 142 28 142 46 0 18 -63 11 -146 -15 -28 -9 -58 -14
-66 -11 -8 3 -34 50 -57 104 -61 139 -60 138 -84 168 -24 29 -77 42 -114 26z
m53 -72 c18 -21 33 -49 94 -180 12 -26 20 -55 18 -64 -2 -10 -32 -26 -83 -44
-44 -15 -111 -41 -148 -59 -38 -17 -74 -28 -79 -25 -13 8 -2 108 12 112 6 2 8
8 5 13 -9 14 25 117 40 123 8 3 15 13 15 21 0 27 70 125 89 125 10 0 26 -10
37 -22z"/>
<path d="M22500 21109 c-294 -50 -407 -223 -426 -654 -8 -180 -5 -195 40 -195
21 0 36 6 40 15 3 9 3 77 0 153 -5 115 -2 154 15 242 48 243 153 354 361 380
111 14 154 -5 127 -57 -25 -46 -67 -78 -152 -113 -102 -43 -107 -47 -103 -84
3 -30 6 -31 109 -61 187 -55 384 -148 408 -194 32 -58 -134 -130 -348 -151
-246 -24 -297 -26 -329 -16 -39 11 -57 -1 -47 -33 11 -35 71 -44 209 -31 312
29 485 70 559 130 31 26 37 38 37 69 0 30 -7 44 -37 73 -89 84 -188 135 -367
192 -38 12 -71 26 -73 31 -2 6 27 25 63 43 113 56 164 107 164 165 0 26 -31
72 -58 86 -28 14 -133 20 -192 10z"/>
<path d="M19704 21032 c-94 -69 -389 -414 -446 -524 -31 -58 -33 -184 -4 -242
24 -48 76 -99 124 -122 53 -26 197 -26 236 -1 36 24 31 53 -9 49 -17 -1 -60
-4 -97 -5 -59 -2 -71 1 -109 28 -128 90 -115 230 38 431 64 84 222 257 273
301 30 25 31 25 45 7 15 -19 15 -19 30 0 18 24 20 77 3 94 -19 19 -42 14 -84
-16z"/>
<path d="M18300 21030 c-161 -15 -328 -63 -429 -123 -116 -69 -231 -200 -216
-247 3 -11 15 -20 26 -20 22 0 59 34 59 55 0 14 108 131 115 124 2 -2 -4 -38
-14 -79 l-17 -75 -43 -5 c-47 -5 -69 -26 -57 -55 5 -14 15 -17 51 -12 l45 5
-7 -52 c-5 -28 -8 -104 -8 -170 0 -102 2 -120 17 -130 14 -8 22 -7 35 7 15 15
19 42 23 177 3 98 10 164 16 170 7 7 76 18 155 26 178 19 385 51 411 65 24 13
19 30 -13 46 -20 10 -42 9 -108 -2 -46 -8 -135 -20 -200 -26 -64 -6 -138 -15
-165 -20 -61 -11 -71 -3 -57 47 6 22 11 58 11 81 0 39 3 44 39 63 67 34 209
70 340 86 123 16 167 32 145 54 -15 15 -62 18 -154 10z"/>
<path d="M20518 20918 c-47 -50 -91 -106 -211 -263 -45 -60 -59 -72 -97 -81
-70 -18 -100 -32 -107 -50 -8 -22 8 -47 35 -54 19 -5 14 -13 -47 -93 -93 -121
-146 -220 -131 -247 13 -24 52 -26 75 -3 9 9 27 40 40 69 27 62 162 268 199
305 17 17 50 31 100 43 85 20 131 49 106 66 -9 6 -37 8 -67 5 -29 -4 -53 -4
-53 0 0 9 145 198 168 218 20 18 20 18 27 -3 6 -20 2 -185 -11 -403 -3 -49 -2
-97 1 -108 9 -28 53 -25 64 4 19 46 39 551 25 604 -4 12 -19 26 -37 32 -29 11
-33 9 -79 -41z"/>
<path d="M21420 20895 c-41 -42 -114 -102 -161 -135 -47 -32 -92 -66 -99 -75
-8 -10 -39 -33 -70 -52 -105 -67 -129 -102 -93 -139 14 -14 29 -16 93 -10 41
3 158 13 260 21 227 18 290 28 346 55 48 24 64 54 41 78 -14 14 -22 13 -74
-11 -38 -17 -91 -30 -153 -37 -52 -6 -131 -15 -175 -20 -44 -5 -110 -12 -147
-15 -111 -11 -102 0 147 177 127 90 211 162 218 188 6 23 -16 50 -41 50 -10 0
-51 -34 -92 -75z"/>
<path d="M16129 20830 c-11 -7 -14 -37 -14 -137 -1 -123 -3 -133 -43 -258 -24
-71 -52 -179 -63 -240 -12 -60 -23 -115 -24 -121 -2 -8 -190 -10 -657 -7 -359
1 -987 4 -1395 5 -422 0 -743 5 -743 10 0 5 9 26 20 48 16 32 56 165 77 255 3
12 -4 32 -16 45 -38 48 -66 4 -106 -170 -23 -102 -59 -180 -82 -180 -25 0
-818 38 -933 45 -52 3 -218 7 -368 10 -150 2 -276 6 -281 9 -14 9 -383 35
-510 36 -68 0 -127 3 -131 5 -3 2 -148 7 -321 11 -173 3 -317 9 -321 13 -18
16 2 234 38 400 19 87 12 111 -28 111 -42 0 -81 -187 -80 -393 l0 -128 -41 6
c-46 7 -615 9 -1412 7 -286 -1 -556 1 -600 3 -128 7 -786 7 -835 0 -65 -9
-210 -44 -234 -57 -67 -34 -96 -96 -56 -118 16 -9 26 -5 57 24 90 81 248 102
688 91 165 -5 785 -9 1377 -9 l1078 -2 28 -27 c34 -33 60 -35 64 -4 3 20 9 22
53 21 136 -2 598 -15 655 -19 36 -2 130 -7 210 -10 80 -3 208 -10 285 -15 77
-5 268 -14 425 -20 157 -6 413 -17 570 -25 157 -8 332 -17 390 -20 246 -11
718 -16 1878 -20 679 -3 1237 -7 1241 -9 4 -3 2 -38 -5 -78 -42 -254 -56 -803
-60 -2523 -2 -759 -7 -1379 -11 -1378 -32 6 -381 14 -893 18 -333 3 -652 8
-710 10 -58 3 -215 10 -350 15 -135 5 -339 14 -455 20 -115 5 -344 12 -507 16
-293 6 -296 6 -308 -15 -12 -23 -5 -23 185 -26 28 -1 102 -4 165 -8 120 -7
283 -14 560 -22 91 -3 226 -10 300 -15 320 -23 530 -28 1399 -35 343 -2 626
-7 629 -9 2 -3 6 -58 8 -123 19 -688 59 -1355 123 -2063 18 -197 41 -455 46
-530 3 -41 8 -102 10 -135 3 -33 10 -134 15 -225 6 -91 17 -241 25 -335 23
-257 23 -263 30 -372 6 -96 5 -103 -12 -103 -10 0 -88 4 -173 9 -85 5 -229 12
-320 16 -91 3 -340 12 -555 20 -214 8 -477 17 -582 20 -106 3 -277 7 -380 10
-104 3 -336 10 -518 15 -509 15 -1022 26 -1715 35 -107 2 -289 7 -405 11 -248
10 -2283 11 -2630 0 -209 -6 -569 -14 -915 -20 -58 -1 -442 -5 -855 -9 -573
-4 -803 -3 -975 8 -124 7 -326 18 -450 25 -124 6 -237 13 -251 16 -28 5 -63
-19 -56 -39 6 -19 56 -26 241 -32 99 -3 206 -7 236 -10 30 -3 116 -8 190 -11
74 -4 162 -8 195 -10 95 -5 798 -4 925 1 268 11 447 15 815 16 215 1 527 5
695 9 542 15 1213 23 1700 23 523 0 1299 -11 1310 -18 4 -2 99 -4 211 -4 112
0 211 -1 219 -1 74 -4 267 -9 535 -14 176 -4 399 -8 495 -10 109 -3 180 0 187
6 9 7 23 7 45 -1 21 -7 34 -8 38 -1 4 6 25 5 60 -4 33 -9 61 -11 71 -6 18 10
78 8 95 -2 6 -4 44 -7 85 -7 41 1 76 0 79 -1 3 -1 43 -4 90 -5 293 -11 451
-16 650 -20 237 -5 363 -10 795 -30 297 -13 534 -21 812 -25 28 0 30 -10 43
-155 5 -66 17 -185 25 -265 8 -80 24 -287 35 -460 19 -311 25 -392 55 -765 8
-104 17 -224 20 -265 3 -41 10 -131 15 -199 17 -210 29 -566 35 -1036 3 -247
8 -461 10 -475 6 -32 23 -323 30 -500 3 -74 7 -151 10 -170 2 -19 7 -93 10
-165 3 -71 10 -209 15 -305 9 -167 14 -303 25 -650 13 -409 40 -990 50 -1095
3 -27 12 -144 20 -260 9 -115 18 -221 20 -235 3 -14 12 -97 20 -185 22 -219
24 -244 41 -370 7 -60 14 -113 14 -117 0 -5 4 -8 9 -8 9 0 7 162 -3 178 -4 7
-17 160 -18 212 0 8 -6 85 -13 170 -8 85 -16 198 -20 250 -3 52 -7 129 -10
170 -2 41 -7 143 -11 225 -4 83 -9 166 -10 185 -10 136 -15 254 -25 535 -6
176 -12 361 -15 410 -2 50 -6 189 -9 310 -6 247 -10 340 -24 605 -18 317 -23
364 -38 388 -11 18 -12 30 -4 53 8 25 7 32 -11 49 -12 11 -20 22 -17 24 2 2
28 -2 58 -10 73 -18 248 -44 305 -44 41 0 46 -2 46 -22 4 -243 -3 -980 -10
-1153 -5 -126 -12 -338 -15 -470 -3 -132 -7 -258 -10 -280 -2 -22 -7 -114 -10
-205 -6 -195 -14 -370 -22 -460 -3 -36 -6 -330 -8 -655 -2 -557 -10 -754 -36
-889 -15 -83 -11 -181 9 -205 23 -28 145 -78 342 -140 91 -29 181 -58 200 -66
19 -8 53 -19 75 -26 48 -14 264 -95 320 -119 150 -66 297 -136 338 -161 26
-16 51 -29 55 -29 17 0 395 -201 484 -257 21 -12 41 -23 44 -23 6 0 121 -65
194 -110 8 -5 33 -19 56 -30 22 -12 78 -46 125 -76 109 -69 217 -124 247 -124
36 0 62 18 77 53 14 35 10 86 -25 307 -55 350 -64 588 -40 995 17 287 29 522
40 785 14 306 15 339 35 645 24 365 28 837 10 1165 -19 369 -26 489 -30 525
-2 17 -4 121 -4 233 -1 257 9 242 -168 242 -124 0 -286 18 -368 40 -137 37
-221 63 -229 71 -6 5 -7 9 -3 9 16 0 247 -52 315 -71 57 -16 76 -18 88 -8 19
16 18 46 -3 57 -19 10 -135 36 -323 73 -63 12 -158 35 -210 50 -128 37 -479
151 -560 182 -206 78 -240 92 -240 100 0 5 24 6 53 3 28 -3 151 -13 272 -21
121 -8 270 -19 330 -25 61 -5 187 -15 280 -20 94 -6 233 -15 310 -21 77 -5
214 -14 305 -19 412 -25 955 -64 1095 -80 44 -5 180 -19 302 -30 122 -11 271
-30 330 -41 129 -25 144 -25 160 -3 23 32 9 53 -43 64 -65 14 -279 39 -474 55
-102 8 -284 23 -405 34 -121 11 -440 34 -710 51 -692 43 -675 41 -675 46 0 3
9 17 19 32 18 26 18 37 9 222 -12 211 -4 378 32 695 25 220 73 577 105 780 78
494 104 798 106 1255 1 252 -6 340 -36 443 -28 94 -77 144 -128 132 -14 -4
-60 12 -129 45 -59 28 -143 61 -185 74 -390 122 -570 171 -915 251 -117 28
-158 49 -75 40 23 -3 179 -9 347 -15 168 -5 382 -12 475 -15 94 -3 229 -10
300 -15 203 -15 288 -19 620 -30 353 -12 920 -38 980 -45 22 -2 195 -7 385
-10 190 -4 372 -10 404 -15 65 -10 74 -8 86 24 20 53 23 52 -402 60 -351 6
-585 13 -933 31 -128 6 -479 20 -890 36 -159 6 -292 13 -294 15 -2 2 8 4 23 4
36 0 66 17 66 37 0 8 -22 81 -50 162 -27 80 -58 191 -69 246 -44 221 -37 523
20 810 22 108 32 202 39 335 5 102 21 255 34 340 27 166 80 453 96 510 13 50
55 303 85 519 14 101 34 238 45 305 30 188 43 330 36 381 -10 64 -53 111 -120
130 -61 17 -526 115 -549 115 -9 0 -18 3 -21 8 -2 4 37 4 87 0 414 -30 686
-40 1215 -43 288 -2 596 -9 685 -15 89 -7 178 -11 197 -9 45 5 52 32 13 52
-42 21 -432 36 -1078 42 -479 4 -1129 25 -1235 39 -19 3 -127 10 -240 16 -129
7 -292 24 -440 45 -309 46 -480 62 -678 64 l-162 2 -21 -35 c-18 -30 -23 -34
-39 -24 -14 9 -75 9 -247 0 -125 -7 -246 -12 -268 -12 l-40 0 0 1198 c1 658 4
1242 8 1297 4 55 10 226 12 380 7 390 14 646 19 653 2 4 7 99 11 212 4 122 12
210 18 218 9 11 34 13 117 8 58 -4 336 -9 619 -11 282 -2 515 -6 518 -9 9 -9
-104 -16 -378 -26 -305 -10 -336 -16 -364 -69 -25 -49 -28 -109 -10 -216 12
-72 19 -217 26 -525 9 -419 8 -543 -11 -830 -15 -222 -29 -473 -40 -710 -6
-118 -17 -339 -26 -490 -20 -352 -20 -623 0 -759 9 -58 16 -121 16 -140 0 -42
5 -50 43 -75 27 -17 36 -17 175 -2 270 28 525 37 1480 52 425 7 434 8 447 28
14 21 66 271 85 406 19 137 52 572 57 760 5 163 -22 754 -42 915 -5 41 -32
413 -39 540 -3 39 2 149 10 245 14 179 18 217 55 520 12 96 25 210 28 252 3
42 9 79 12 82 3 3 97 0 210 -6 211 -11 1872 -15 1964 -4 28 3 253 8 500 11
248 4 460 8 473 11 13 3 22 12 22 23 0 42 -15 44 -317 37 -354 -8 -597 -16
-643 -22 -93 -13 -1146 -16 -1654 -5 l-561 13 -26 24 c-15 14 -48 32 -74 40
-66 19 -251 18 -433 -3 -127 -16 -231 -18 -767 -16 -341 1 -757 5 -925 10
-168 4 -343 6 -390 5 -47 -2 -100 0 -118 3 l-33 6 6 52 c4 29 10 54 15 57 4 3
15 30 24 60 42 141 70 229 88 278 22 65 35 245 20 284 -13 32 -42 50 -63 38z
m2379 -876 l222 -7 0 -41 c0 -22 -7 -86 -15 -141 -9 -55 -32 -239 -51 -410
-33 -288 -35 -325 -30 -515 3 -113 12 -286 20 -385 8 -99 17 -245 21 -325 3
-80 8 -170 10 -200 25 -279 25 -588 0 -860 -3 -30 -12 -131 -20 -225 -9 -93
-20 -201 -26 -240 -11 -74 -68 -338 -74 -344 -2 -2 -138 -5 -302 -7 -473 -6
-1084 -22 -1258 -34 -154 -10 -371 -35 -398 -46 -10 -3 -20 29 -38 123 -22
119 -24 150 -23 438 1 353 31 1002 71 1520 25 316 24 1210 -1 1403 -18 144
-12 203 23 222 10 5 86 12 167 15 454 17 678 31 1079 65 91 7 218 6 623 -6z
m-1570 -3910 c56 -3 105 -11 109 -17 4 -6 -2 -8 -18 -4 -13 4 -111 7 -216 7
-112 0 -193 4 -193 9 0 19 87 21 318 5z m-423 -140 c-16 -103 -19 -213 -16
-639 2 -302 -3 -423 -34 -785 -19 -232 -24 -523 -14 -805 5 -126 11 -297 14
-380 7 -184 -8 -449 -30 -530 -21 -81 -82 -207 -144 -299 -68 -101 -66 -124
13 -171 132 -77 323 -109 781 -130 287 -13 698 -54 1185 -117 91 -12 182 -22
202 -23 38 -2 56 -10 45 -21 -3 -3 -59 -1 -124 5 -216 20 -1454 56 -1650 48
-79 -3 -170 -2 -201 3 -47 8 -224 15 -269 11 -20 -2 -15 -29 6 -36 10 -3 62
-7 115 -8 68 -1 96 -6 96 -14 0 -7 11 -20 26 -29 23 -16 44 -16 267 -4 133 7
248 11 256 9 7 -3 -27 -31 -75 -63 -119 -78 -256 -188 -300 -239 -30 -36 -86
-139 -109 -202 -21 -59 -37 -165 -42 -285 -6 -145 9 -470 31 -665 8 -66 15
-231 15 -370 1 -137 6 -448 12 -690 6 -242 12 -552 12 -690 2 -173 6 -256 14
-271 13 -23 50 -38 188 -79 50 -15 162 -54 250 -87 88 -33 205 -76 260 -95
166 -57 528 -153 577 -153 15 0 39 -5 55 -11 56 -21 1 -29 -138 -19 -74 5
-204 14 -289 19 -91 6 -174 17 -200 26 -77 27 -357 95 -393 95 -34 0 -58 -18
-70 -52 -4 -10 -12 -18 -20 -18 -29 0 -297 40 -338 50 l-44 11 -3 487 c-1 268
-4 548 -7 622 -3 74 -7 196 -10 270 -7 174 -13 290 -25 420 -22 250 -30 350
-35 425 -2 44 -9 144 -15 223 -5 78 -17 262 -25 410 -8 147 -18 294 -20 327
-29 324 -47 499 -55 519 -5 13 -9 33 -8 43 1 38 -23 290 -32 328 -5 22 -12
140 -15 262 -3 121 -7 227 -9 235 -3 7 -7 69 -10 138 -4 69 -11 184 -16 255
-5 72 -12 162 -15 200 -5 77 -17 207 -40 445 -29 301 -45 508 -60 785 -8 154
-18 323 -21 375 -4 52 -7 104 -7 115 0 11 -3 103 -8 205 -4 102 -11 262 -14
355 -6 165 -17 284 -29 304 -4 5 -2 12 2 15 5 3 99 6 208 7 109 1 235 7 279
13 44 7 81 12 82 11 2 -1 -4 -42 -12 -91z m805 81 c41 -3 140 -17 220 -30 80
-14 228 -38 330 -55 102 -17 226 -37 275 -46 118 -20 591 -132 631 -149 59
-24 68 -51 61 -179 -4 -62 -13 -151 -21 -197 -16 -96 -46 -295 -76 -514 -21
-148 -41 -263 -99 -545 -48 -234 -70 -358 -82 -470 -17 -167 -16 -163 -49
-182 l-31 -17 17 -38 c25 -55 28 -102 15 -211 -21 -177 -34 -236 -63 -288 -32
-58 -36 -84 -10 -84 16 0 17 -18 17 -227 0 -272 10 -337 86 -565 33 -99 35
-118 14 -118 -23 0 -204 19 -244 26 -29 5 -33 3 -27 -13 6 -17 5 -17 -8 0 -14
18 -42 24 -31 7 3 -5 -3 -10 -15 -10 -11 0 -23 7 -26 15 -4 9 -19 15 -36 15
-17 0 -27 -4 -23 -10 7 -11 -13 -13 -67 -4 -21 4 -35 10 -33 15 7 10 -2 15
-44 24 -29 6 -33 5 -28 -10 5 -13 2 -16 -16 -13 -12 2 -21 9 -20 16 2 7 -7 12
-20 12 -18 0 -19 -2 -7 -10 13 -8 12 -10 -2 -10 -10 0 -18 4 -18 8 0 12 -77
30 -152 36 -36 4 -72 8 -80 11 -25 9 -286 35 -503 50 -313 22 -516 43 -620 66
-97 20 -198 65 -203 90 -1 8 18 46 44 84 155 233 177 362 155 942 -17 437 -15
849 4 1078 31 377 35 490 34 931 -2 354 1 462 12 509 l14 60 295 5 c162 3 309
4 325 3 17 -1 64 -5 105 -8z m1210 -3941 c0 -2 -9 -4 -21 -4 -11 0 -18 4 -14
10 5 8 35 3 35 -6z m-1150 -120 c351 -82 539 -132 760 -202 69 -22 181 -56
250 -77 222 -65 364 -137 435 -217 17 -19 36 -37 43 -39 8 -3 19 -43 29 -104
31 -202 -8 -953 -71 -1365 -8 -52 -31 -198 -50 -325 -19 -126 -42 -286 -51
-355 -75 -598 -76 -616 -73 -900 1 -140 -1 -264 -5 -275 -9 -27 -57 -55 -87
-50 -14 2 -70 8 -125 14 -169 20 -500 88 -710 146 -98 27 -473 155 -615 211
-80 30 -203 76 -275 101 -71 24 -140 51 -152 59 -28 18 -33 59 -38 354 -2 129
-6 379 -9 555 -3 176 -8 489 -11 695 -2 206 -9 416 -14 465 -6 50 -15 179 -21
288 -22 419 25 644 161 773 131 122 382 283 444 284 17 0 100 -16 185 -36z
m-339 -3799 l44 -14 -60 5 c-94 8 -125 14 -125 26 0 13 77 4 141 -17z m111
-82 c60 -4 92 -2 102 6 15 12 240 -62 541 -178 83 -32 159 -61 169 -65 33 -11
11 -16 -25 -6 -19 6 -86 13 -149 15 -80 4 -131 12 -168 25 -208 78 -520 -101
-487 -279 24 -127 133 -212 325 -251 171 -35 470 -20 603 31 104 40 167 113
167 194 0 71 -75 172 -161 215 -22 12 -39 23 -37 26 3 2 61 -15 130 -38 87
-28 125 -45 121 -54 -9 -23 76 -65 241 -119 260 -86 400 -117 539 -119 91 -2
121 -6 128 -17 5 -8 8 -88 8 -179 -1 -91 1 -181 5 -200 6 -36 27 -347 47 -700
8 -139 8 -298 3 -495 -5 -159 -8 -299 -7 -310 1 -11 -2 -63 -7 -115 -12 -119
-38 -565 -55 -950 -3 -58 -8 -145 -11 -195 -4 -49 -8 -108 -10 -130 -19 -288
-26 -742 -13 -880 5 -55 11 -125 13 -155 7 -73 34 -255 46 -305 12 -50 13
-165 1 -184 -11 -17 -71 2 -121 40 -19 14 -55 38 -80 53 -25 15 -67 41 -95 58
-59 36 -185 106 -305 170 -47 25 -101 55 -121 66 -20 11 -99 53 -175 93 -77
40 -209 109 -294 154 -181 94 -315 159 -385 187 -27 10 -63 25 -80 32 -49 22
-281 103 -637 223 -45 15 -93 39 -115 58 l-37 32 19 179 c15 150 19 272 20
754 1 316 7 665 13 775 6 110 14 243 17 295 3 52 7 129 10 170 23 323 47 1133
49 1579 l1 514 85 -7 c47 -4 124 -9 172 -13z m401 -239 c4 -4 -27 -27 -68 -51
-53 -31 -75 -49 -75 -63 0 -28 13 -25 95 20 130 72 186 65 245 -31 16 -27 34
-49 39 -49 49 0 54 49 10 103 l-30 37 53 0 c30 0 88 -11 132 -26 132 -43 185
-91 197 -178 9 -67 -8 -102 -68 -143 -88 -58 -143 -68 -373 -68 -197 0 -208 1
-293 28 -73 23 -97 36 -137 75 -111 108 -77 236 82 307 72 32 176 53 191 39z"/>
<path d="M17725 19820 c-16 -4 -66 -13 -110 -20 -184 -28 -296 -139 -320 -317
-21 -154 135 -256 411 -270 125 -6 210 8 327 55 130 53 176 113 177 231 0 125
-59 235 -152 282 -80 41 -250 61 -333 39z m222 -69 c89 -23 122 -46 156 -110
51 -93 44 -205 -16 -258 -104 -93 -342 -130 -529 -83 -95 24 -128 40 -161 80
-51 60 -44 127 23 233 47 74 134 117 238 117 66 0 100 -14 133 -53 24 -28 28
-30 44 -17 14 11 16 24 12 62 -7 57 -6 57 100 29z"/>
<path d="M17616 18808 c-9 -13 -16 -43 -16 -73 0 -27 -7 -93 -15 -146 -30
-203 -36 -269 -25 -289 12 -22 43 -26 57 -7 10 13 66 398 66 457 0 71 -36 102
-67 58z"/>
<path d="M17554 17895 c-4 -8 -2 -68 4 -132 6 -65 9 -120 8 -123 -2 -3 -7 -68
-10 -146 -7 -131 -6 -142 13 -165 18 -22 21 -23 36 -8 41 40 56 506 19 567
-17 25 -62 30 -70 7z"/>
<path d="M17526 17045 c-38 -38 -53 -211 -39 -444 7 -110 11 -136 25 -145 14
-8 22 -7 35 7 16 15 18 41 20 205 2 129 8 211 19 265 l17 78 -23 24 c-27 29
-33 30 -54 10z"/>
<path d="M17358 15850 c-183 -22 -288 -98 -288 -206 0 -209 375 -338 620 -214
148 76 186 198 92 302 -80 89 -257 138 -424 118z m305 -120 c58 -27 87 -62 87
-105 0 -49 -38 -96 -105 -130 -57 -28 -66 -30 -181 -30 -119 0 -121 0 -198 38
-84 42 -116 78 -116 133 0 17 9 43 21 58 36 45 75 59 174 60 102 1 145 -15
173 -65 20 -34 39 -44 58 -28 18 15 17 49 -1 73 -8 11 -15 23 -15 27 0 10 44
-3 103 -31z"/>
<path d="M17380 15048 c-123 -43 -171 -80 -295 -225 -84 -98 -94 -151 -49
-242 49 -97 155 -137 326 -120 136 13 227 45 314 111 109 82 123 231 36 372
-50 81 -104 114 -199 121 -55 5 -80 1 -133 -17z m195 -52 c42 -18 69 -59 96
-149 24 -78 21 -148 -8 -198 -34 -58 -182 -117 -314 -126 -124 -8 -173 1 -219
44 -69 62 -66 133 10 216 67 73 224 150 319 155 98 6 107 28 25 57 l-39 14 48
1 c26 0 63 -6 82 -14z"/>
<path d="M17312 14123 c-16 -32 -35 -270 -28 -355 7 -90 18 -118 45 -118 16 0
19 14 24 133 3 72 12 175 18 229 11 79 10 99 0 112 -18 21 -48 20 -59 -1z"/>
<path d="M17438 13076 c-11 -10 -17 -50 -22 -138 -4 -68 -11 -152 -16 -188 -5
-36 -12 -120 -16 -187 -6 -103 -4 -130 10 -167 20 -52 37 -69 60 -60 24 9 30
49 12 76 -22 30 -21 112 4 328 11 96 21 208 22 249 3 65 1 75 -18 87 -19 13
-24 13 -36 0z"/>
<path d="M17360 11803 c-41 -7 -132 -43 -179 -70 -135 -79 -219 -220 -191
-322 12 -47 85 -122 148 -152 69 -34 208 -32 310 4 103 37 174 80 226 138 52
58 71 112 63 182 -7 55 -25 84 -95 149 -71 66 -168 91 -282 71z m177 -103 c28
-7 58 -25 88 -53 41 -40 45 -48 45 -92 0 -46 -3 -52 -52 -100 -61 -58 -172
-116 -269 -140 -118 -30 -237 3 -274 75 -35 67 -13 153 60 238 42 48 55 52 55
17 0 -34 26 -42 53 -18 27 25 57 41 122 64 56 21 110 23 172 9z"/>
<path d="M17278 10946 c-145 -59 -296 -223 -315 -340 -8 -52 31 -138 86 -189
72 -67 134 -84 259 -70 111 13 249 56 337 105 49 27 64 43 88 88 31 60 31 97
1 192 -19 58 -91 128 -159 153 -28 10 -63 29 -78 41 -58 48 -134 55 -219 20z
m82 -51 c0 -2 -24 -17 -52 -31 -71 -36 -138 -92 -138 -116 0 -33 28 -31 72 5
68 55 126 79 199 85 78 5 132 -9 173 -47 65 -59 88 -185 44 -235 -53 -58 -251
-133 -378 -143 -97 -7 -149 7 -189 52 -47 53 -58 104 -38 168 18 57 87 150
139 190 67 51 168 94 168 72z"/>
<path d="M17311 9999 c-114 -32 -131 -42 -131 -70 0 -10 -9 -24 -21 -31 -38
-24 -142 -160 -165 -217 -44 -106 -24 -194 61 -269 158 -139 506 -127 658 23
165 164 169 398 8 497 -20 13 -70 38 -111 56 -107 47 -168 49 -299 11z m274
-81 c139 -30 197 -102 182 -228 -14 -114 -104 -229 -213 -270 -85 -31 -207
-44 -292 -29 -245 41 -281 222 -85 423 73 75 127 104 210 114 74 9 121 7 198
-10z"/>
<path d="M17419 9123 c-11 -12 -14 -58 -14 -197 1 -194 8 -245 56 -396 33
-102 62 -142 86 -117 11 11 7 35 -24 153 -37 138 -37 140 -38 347 0 172 -3
210 -15 217 -22 14 -36 12 -51 -7z"/>
<path d="M17680 6969 c-19 -5 -62 -10 -95 -12 -176 -7 -367 -202 -382 -389 -7
-82 13 -127 72 -168 181 -125 632 -76 807 87 88 83 113 165 84 267 -28 96
-108 167 -225 201 -61 18 -217 26 -261 14z m230 -72 c103 -37 148 -70 175
-130 24 -51 24 -54 9 -117 -8 -36 -25 -76 -37 -91 -63 -71 -187 -125 -358
-155 -152 -26 -310 -3 -380 55 -68 57 -41 213 53 316 45 49 116 105 133 105 3
0 5 -9 5 -19 0 -41 38 -34 91 16 23 21 30 22 55 13 38 -15 74 -49 74 -71 0
-22 24 -42 46 -37 43 8 43 70 -1 114 l-24 24 47 0 c26 0 76 -11 112 -23z"/>
<path d="M17755 6003 c-185 -44 -269 -109 -335 -263 -34 -80 -34 -188 0 -250
53 -94 164 -136 340 -127 308 15 519 163 497 349 -7 52 -29 96 -83 164 -65 81
-194 135 -321 133 -43 -1 -87 -3 -98 -6z m253 -82 c61 -32 119 -88 146 -143
80 -160 -39 -291 -312 -345 -71 -14 -94 -14 -165 -4 -147 22 -203 74 -201 186
2 208 203 370 371 300 50 -21 90 -19 103 5 13 24 12 24 58 1z"/>
<path d="M17645 4616 c-101 -72 -189 -214 -220 -356 -20 -93 -9 -184 34 -276
70 -151 200 -233 416 -265 177 -25 388 33 487 135 143 146 45 465 -193 626
-104 71 -319 140 -391 126 -24 -5 -30 -2 -38 19 -13 34 -37 31 -95 -9z m219
-81 c176 -37 313 -123 407 -255 71 -100 94 -271 49 -361 -43 -84 -179 -139
-341 -139 -273 1 -443 121 -481 339 -9 55 -9 84 0 128 25 122 122 274 186 292
46 14 103 12 180 -4z"/>
<path d="M11726 20693 c-37 -11 -64 -30 -109 -76 -78 -81 -120 -169 -121 -252
-1 -73 17 -106 74 -135 73 -37 144 -22 263 57 105 70 143 112 163 179 15 53
15 61 -1 115 -10 33 -30 69 -45 84 -47 45 -135 56 -224 28z m179 -88 c48 -47
28 -131 -46 -201 -49 -46 -150 -109 -191 -119 -40 -10 -75 1 -94 30 -15 23
-15 29 6 96 16 54 31 82 61 111 21 21 39 45 39 53 0 28 69 53 148 54 44 1 57
-3 77 -24z"/>
<path d="M14670 20566 c-19 -7 -40 -22 -46 -34 -6 -12 -18 -30 -27 -39 -23
-27 -87 -165 -93 -204 -8 -47 9 -85 48 -109 54 -33 114 -24 252 39 85 38 154
93 172 137 12 28 11 39 -2 76 -20 57 -57 95 -123 124 -59 27 -125 30 -181 10z
m129 -72 c17 -4 50 -23 73 -43 l41 -37 -17 -30 c-50 -85 -292 -183 -313 -128
-3 9 9 48 27 88 17 39 37 87 43 106 6 19 16 38 22 42 12 9 82 10 124 2z"/>
<path d="M4904 20000 c-107 -61 -168 -166 -168 -290 0 -55 5 -72 29 -108 59
-88 161 -106 302 -52 124 48 253 177 253 254 0 58 -65 110 -168 135 -98 24
-233 -14 -240 -67 -4 -26 0 -26 53 -7 89 32 237 7 264 -44 22 -40 12 -64 -49
-124 -82 -80 -171 -121 -246 -115 -85 7 -123 52 -125 147 -3 105 57 199 156
246 30 14 55 32 55 40 0 25 -61 17 -116 -15z"/>
<path d="M14078 19914 c-3 -3 -50 -14 -103 -25 -131 -27 -200 -64 -295 -157
-65 -64 -81 -86 -94 -131 -15 -50 -15 -56 3 -95 25 -57 52 -77 118 -90 81 -15
258 -14 318 3 28 8 96 36 153 63 121 59 202 129 202 175 0 40 -41 119 -94 179
-37 42 -55 54 -104 68 -60 17 -95 20 -104 10z m108 -79 c42 -32 124 -146 124
-172 0 -50 -117 -129 -265 -180 -88 -30 -252 -42 -320 -23 -59 17 -89 52 -81
99 8 50 68 134 129 180 93 71 231 119 243 86 9 -23 37 -18 64 10 30 32 64 32
106 0z"/>
<path d="M11149 19861 c-193 -63 -339 -194 -339 -305 0 -87 93 -203 183 -230
85 -24 101 -26 163 -16 112 17 416 192 474 271 55 76 48 151 -21 216 -47 44
-81 55 -165 52 -47 -2 -77 1 -87 9 -26 22 -145 24 -208 3z m111 -56 c0 -3 -15
-18 -32 -34 -25 -23 -30 -32 -21 -41 8 -9 27 -6 76 14 36 14 81 26 101 26 19
0 38 5 41 10 3 6 24 10 47 10 32 0 47 -7 74 -34 28 -28 34 -42 34 -75 0 -55
-42 -101 -168 -182 -183 -119 -309 -152 -409 -109 -89 38 -138 144 -99 217 36
72 159 161 256 187 57 15 100 20 100 11z"/>
<path d="M12530 19819 c-59 -26 -125 -97 -138 -149 -21 -83 24 -160 121 -208
83 -41 165 -51 235 -28 108 36 212 140 212 212 -1 68 -60 144 -137 175 -15 7
-78 13 -139 14 -91 2 -119 -1 -154 -16z m81 -55 c15 -14 22 -14 72 1 57 17 89
14 142 -13 42 -21 54 -41 55 -90 0 -36 -6 -49 -40 -86 -70 -76 -188 -108 -283
-77 -40 13 -84 59 -93 96 -12 50 31 130 90 166 37 23 35 23 57 3z"/>
<path d="M9693 19785 c-174 -31 -317 -142 -390 -301 -45 -99 -40 -238 10 -292
100 -108 332 -80 515 62 67 51 167 174 199 244 21 44 24 65 21 118 -4 70 -21
96 -89 139 -29 19 -152 48 -186 44 -4 0 -41 -7 -80 -14z m210 -83 c46 -20 77
-67 77 -114 0 -74 -154 -274 -256 -334 -89 -52 -233 -78 -300 -54 -52 19 -69
55 -69 146 0 72 4 87 34 144 59 114 118 170 178 170 26 0 36 6 48 29 18 35 43
41 162 36 53 -3 99 -11 126 -23z"/>
<path d="M4934 19240 c-12 -4 -23 -14 -26 -22 -2 -7 2 -67 9 -133 7 -66 12
-176 11 -245 l-3 -125 26 -3 c14 -2 31 3 38 11 19 24 24 161 12 342 -13 186
-16 196 -67 175z"/>
<path d="M13951 18982 c-20 -38 -31 -189 -32 -472 -1 -162 -1 -313 0 -334 1
-48 14 -65 39 -50 15 10 18 47 28 340 6 181 17 368 24 416 11 71 11 89 1 102
-18 21 -48 20 -60 -2z"/>
<path d="M11245 18906 c-60 -26 -143 -114 -182 -194 -34 -68 -38 -83 -37 -151
1 -88 23 -149 80 -218 123 -149 361 -111 569 93 127 123 135 188 34 299 -87
94 -211 151 -317 144 -24 -2 -49 5 -72 19 -41 25 -36 25 -75 8z m287 -117
c112 -56 178 -145 159 -214 -21 -76 -173 -204 -283 -239 -73 -22 -154 -24
-196 -2 -36 19 -83 84 -102 140 -19 58 -8 155 25 220 23 46 35 57 83 80 32 14
75 30 97 36 62 14 167 5 217 -21z"/>
<path d="M25628 18831 c-278 -89 -445 -388 -479 -857 -21 -288 23 -492 111
-522 74 -26 326 66 545 200 266 162 351 231 412 336 33 56 36 121 8 152 -62
69 -268 119 -490 120 -94 0 -125 7 -125 27 0 7 22 47 50 87 84 123 140 261
140 347 0 73 -11 100 -46 115 -42 18 -56 17 -126 -5z m100 -91 c4 -49 -20
-144 -50 -205 -12 -22 -47 -78 -79 -125 -76 -112 -84 -131 -69 -160 20 -37 70
-49 247 -60 187 -12 281 -28 342 -59 37 -20 41 -25 41 -60 0 -54 -45 -110
-152 -191 -138 -104 -400 -256 -578 -335 -83 -37 -111 -44 -139 -34 -20 8 -21
13 -15 58 6 43 4 50 -14 55 -25 8 -29 25 -43 164 -22 235 24 514 117 702 53
110 139 205 239 265 49 29 68 35 105 33 l45 -3 3 -45z"/>
<path d="M12474 18778 c-21 -18 -50 -60 -66 -93 -46 -99 -38 -248 21 -362 26
-52 103 -120 150 -133 94 -26 159 -3 240 86 90 98 130 210 116 317 -10 68 -58
120 -140 148 -68 24 -135 22 -218 -7 -53 -18 -68 -14 -43 11 19 19 20 37 4 53
-17 17 -23 16 -64 -20z m300 -99 c64 -18 86 -48 86 -118 0 -80 -28 -152 -88
-226 -54 -68 -119 -103 -168 -91 -46 12 -110 84 -128 146 -24 81 -30 160 -16
219 10 45 15 50 33 46 12 -3 56 3 97 14 86 23 129 25 184 10z"/>
<path d="M9733 18761 c-26 -12 -62 -19 -96 -18 -74 2 -134 -34 -179 -107 -110
-175 -50 -386 109 -386 86 0 228 66 308 143 18 17 58 54 89 80 68 58 111 127
102 162 -8 30 -92 94 -163 123 -63 27 -115 28 -170 3z m141 -61 c55 -27 106
-76 106 -103 0 -37 -162 -187 -248 -230 -170 -84 -252 -54 -252 93 0 44 7 80
21 110 21 47 65 100 83 100 6 0 5 -5 -2 -12 -14 -14 -16 -48 -3 -48 5 0 22 11
38 24 54 45 140 84 187 85 16 1 48 -8 70 -19z"/>
<path d="M22295 18587 c-120 -32 -237 -110 -342 -229 -162 -183 -227 -352
-240 -625 -5 -102 -9 -125 -25 -139 -24 -22 -23 -32 7 -77 30 -43 61 -49 75
-12 5 13 9 84 9 157 -1 194 26 339 83 452 120 238 285 385 468 418 49 8 68 7
110 -7 181 -60 105 -297 -137 -426 -73 -39 -95 -61 -76 -80 9 -9 35 -5 110 16
76 22 118 28 193 28 153 -1 212 -28 212 -97 0 -131 -209 -317 -463 -411 -59
-23 -92 -28 -161 -29 -82 -1 -89 1 -133 32 -50 35 -78 38 -83 9 -8 -43 81
-103 165 -113 175 -19 453 96 614 256 111 109 158 218 130 303 -26 77 -97 108
-249 109 l-103 1 54 56 c78 80 91 110 92 207 0 71 -3 85 -28 122 -15 23 -45
51 -67 62 -51 26 -149 34 -215 17z"/>
<path d="M24464 18573 c-15 -16 -16 -38 -10 -248 6 -187 5 -233 -6 -242 -7 -6
-47 -18 -88 -27 -110 -24 -258 -84 -276 -111 -36 -55 21 -72 109 -31 125 58
175 80 226 97 65 23 67 23 51 4 -6 -8 -18 -66 -25 -130 -18 -150 -36 -211 -80
-263 -57 -65 -30 -110 33 -57 62 52 109 195 119 364 5 92 5 99 -13 103 -25 5
134 45 209 53 60 7 90 25 81 50 -9 21 -50 19 -160 -10 -54 -14 -99 -24 -100
-22 -2 2 -4 106 -5 233 -1 136 -5 234 -11 242 -14 17 -33 15 -54 -5z"/>
<path d="M2286 18430 c-143 -37 -192 -67 -322 -201 -132 -137 -165 -192 -199
-324 -35 -143 9 -262 112 -297 141 -49 277 -20 458 98 167 108 289 235 358
373 37 75 41 91 41 155 0 105 -32 154 -129 197 -80 36 -175 35 -319 -1z m296
-66 c84 -42 108 -93 83 -177 -21 -72 -58 -149 -87 -179 -13 -14 -43 -50 -67
-81 -24 -31 -47 -57 -51 -57 -5 0 -23 -15 -41 -32 -38 -37 -73 -59 -170 -112
-91 -49 -142 -65 -225 -72 -87 -8 -129 4 -175 52 -32 34 -34 38 -32 103 3 142
59 254 194 390 90 90 137 121 186 121 21 0 47 7 57 15 29 22 59 18 86 -10 36
-39 54 -33 46 14 -5 32 -3 40 11 45 34 10 152 -3 185 -20z"/>
<path d="M4953 18255 c-82 -15 -156 -38 -230 -71 -29 -13 -64 -26 -77 -30 -14
-3 -28 -16 -32 -27 -3 -12 -16 -32 -27 -45 -20 -21 -20 -23 -4 -40 20 -19 46
-9 61 25 11 23 130 81 217 106 78 23 169 36 175 25 7 -11 -33 -64 -121 -158
-89 -96 -175 -210 -175 -233 0 -40 58 -40 233 2 112 27 349 108 358 123 13 21
-3 38 -35 38 -17 0 -80 -18 -141 -40 -108 -40 -258 -80 -296 -80 -10 0 -19 4
-19 9 0 13 85 116 187 225 152 165 134 209 -74 171z"/>
<path d="M26393 17845 c-87 -25 -143 -56 -143 -81 0 -24 29 -28 71 -9 21 10
41 16 44 14 2 -3 -24 -45 -57 -94 -124 -181 -141 -289 -57 -353 48 -36 225
-33 338 5 84 28 205 90 247 126 22 19 55 63 73 97 28 53 33 70 29 112 -4 39
-12 57 -39 84 -108 112 -316 153 -506 99z m308 -69 c89 -32 101 -39 138 -81
37 -42 38 -55 10 -112 -24 -50 -82 -103 -148 -134 -121 -57 -292 -96 -360 -83
-40 8 -71 39 -71 71 0 33 43 118 109 212 53 77 62 107 36 117 -8 4 -15 10 -15
14 0 13 34 17 140 19 78 1 107 -3 161 -23z"/>
<path d="M9585 17831 c-126 -78 -162 -268 -90 -474 37 -108 87 -147 189 -147
117 0 262 90 347 216 27 41 54 86 60 101 16 43 1 98 -43 157 -72 98 -163 139
-257 116 -51 -12 -88 -41 -76 -59 4 -7 32 -8 78 -5 81 7 112 -3 158 -53 34
-35 69 -101 69 -128 0 -73 -107 -195 -215 -246 -114 -55 -196 -35 -235 56 -25
58 -43 188 -35 244 15 97 66 171 119 171 13 0 31 9 41 20 40 44 -48 70 -110
31z"/>
<path d="M11401 17835 c-24 -7 -61 -13 -82 -12 -81 3 -205 -115 -250 -237 -30
-83 -32 -232 -3 -290 34 -70 59 -81 187 -81 108 0 115 2 190 37 122 58 237
159 321 282 86 127 -51 289 -259 310 -39 3 -75 1 -104 -9z m173 -67 c25 -6 56
-27 87 -58 42 -42 49 -55 49 -88 0 -48 -37 -107 -116 -184 -130 -126 -305
-192 -424 -159 -40 11 -62 90 -50 184 11 91 22 119 67 178 43 56 145 114 236
134 61 13 75 12 151 -7z"/>
<path d="M12643 17788 c-21 -26 -26 -80 -33 -348 -4 -151 -10 -282 -14 -291
-9 -20 20 -51 42 -47 33 7 44 76 53 343 4 143 11 275 15 294 5 27 3 37 -12 48
-22 16 -39 17 -51 1z"/>
<path d="M13830 17771 c-58 -18 -110 -53 -166 -113 -114 -123 -151 -248 -104
-362 40 -99 95 -130 230 -131 87 0 101 3 163 32 146 70 236 154 256 242 19 86
-19 145 -126 198 -72 35 -83 38 -163 37 -124 -1 -216 -46 -180 -88 10 -13 17
-13 53 1 23 8 76 16 117 16 62 1 84 -3 125 -25 66 -34 105 -74 105 -107 -1
-42 -62 -114 -144 -169 -88 -59 -127 -72 -211 -72 -68 0 -124 26 -159 73 -30
41 -27 116 7 190 44 97 164 207 226 207 35 0 51 12 51 36 0 17 -8 27 -26 34
-14 6 -26 10 -27 9 -1 0 -13 -4 -27 -8z"/>
<path d="M23096 17738 c-9 -12 -16 -32 -16 -44 0 -12 -7 -37 -14 -56 -8 -19
-20 -81 -25 -137 -14 -129 -14 -451 -1 -485 5 -14 21 -33 35 -42 24 -16 27
-16 45 1 26 23 26 61 0 75 -20 11 -21 18 -16 206 6 201 17 299 42 370 9 22 14
60 12 85 -2 36 -7 45 -25 47 -13 2 -27 -5 -37 -20z"/>
<path d="M4775 17401 c-184 -50 -269 -101 -231 -139 14 -15 21 -13 80 16 78
39 224 88 233 78 12 -11 -24 -67 -92 -144 -74 -83 -88 -106 -81 -130 10 -29
42 -42 159 -63 312 -56 354 -76 290 -135 -74 -68 -211 -130 -376 -170 -187
-45 -218 -54 -224 -70 -12 -32 13 -39 100 -26 235 34 442 117 549 221 60 59
73 95 48 141 -17 31 -141 69 -326 100 -80 13 -134 30 -134 41 0 5 29 41 64 78
60 64 116 153 116 184 0 20 -33 47 -56 46 -10 0 -64 -13 -119 -28z"/>
<path d="M9745 16986 c-25 -6 -56 -26 -90 -60 -44 -43 -59 -67 -93 -157 -23
-58 -53 -147 -68 -198 -51 -179 -21 -317 82 -377 66 -39 120 -42 186 -12 93
43 156 105 260 254 74 105 82 130 82 234 0 78 -4 105 -23 147 -26 59 -93 126
-149 151 -49 21 -139 30 -187 18z m175 -95 c72 -50 101 -106 108 -205 6 -92
-13 -153 -75 -245 -93 -136 -177 -202 -262 -204 -61 -2 -97 21 -128 83 -39 76
-24 211 42 375 53 131 62 146 118 198 50 46 54 47 97 42 29 -4 65 -20 100 -44z"/>
<path d="M11324 16816 c-74 -28 -77 -30 -134 -77 -34 -28 -52 -36 -71 -32 -20
4 -33 -4 -61 -35 -51 -57 -78 -136 -78 -231 0 -263 245 -357 486 -186 114 82
213 233 222 340 8 94 -40 190 -112 225 -59 28 -170 26 -252 -4z m222 -53 c39
-25 68 -90 67 -149 -2 -220 -332 -470 -487 -369 -37 25 -79 129 -79 196 1 90
59 199 106 199 10 0 33 16 50 36 30 34 76 60 157 90 52 19 155 18 186 -3z"/>
<path d="M12602 16768 c-15 -20 -26 -401 -13 -427 13 -23 45 -28 58 -8 11 18
31 409 21 430 -10 20 -51 23 -66 5z"/>
<path d="M13810 16755 c-6 -8 -14 -34 -17 -57 -2 -24 -16 -123 -29 -220 -28
-208 -32 -369 -9 -388 30 -25 45 5 45 86 0 75 15 186 50 372 30 155 25 222
-16 222 -6 0 -17 -7 -24 -15z"/>
<path d="M5433 16210 c-22 -9 -31 -34 -15 -44 4 -2 43 -7 87 -11 44 -3 87 -8
95 -10 8 -2 51 -6 95 -10 162 -12 502 -46 560 -55 134 -21 439 -39 760 -45
788 -16 2153 -4 2475 21 47 4 207 6 355 4 794 -7 1966 2 2083 16 66 8 54 30
-22 38 -76 8 -352 8 -446 1 -118 -9 -255 -17 -272 -16 -21 1 -51 1 -75 0 -10
0 -245 3 -523 7 -278 3 -566 6 -640 6 -74 -1 -156 -2 -182 -2 -37 0 -48 -4
-48 -16 0 -12 -5 -14 -17 -9 -10 4 -25 9 -33 10 -104 15 -181 15 -488 4 -378
-14 -1476 -16 -2107 -5 -389 7 -599 18 -752 41 -51 7 -204 23 -340 34 -137 12
-300 28 -363 36 -130 17 -155 18 -187 5z"/>
<path d="M11996 16089 c-2 -8 -7 -117 -10 -244 -5 -207 -21 -379 -45 -490 -5
-22 -27 -121 -49 -220 -70 -307 -87 -435 -96 -705 -10 -286 -18 -505 -21 -555
-15 -287 -16 -485 -5 -615 7 -80 11 -226 9 -325 -7 -407 -6 -433 16 -453 46
-44 222 -82 467 -103 128 -10 969 -4 1011 7 20 6 22 39 6 81 -18 49 -58 215
-74 313 -11 64 -19 213 -25 455 -4 198 -14 455 -21 571 -13 212 -10 308 21
704 6 69 14 269 20 445 5 176 14 352 20 390 6 39 15 144 21 235 5 91 12 186
15 211 5 43 4 47 -19 53 -14 3 -32 3 -41 0 -8 -3 -28 3 -44 15 -61 43 -139 64
-357 96 -93 14 -195 30 -225 35 -30 5 -86 13 -125 19 -184 27 -269 44 -322 62
-80 29 -122 34 -127 18z m211 -108 c54 -11 224 -38 378 -60 309 -45 407 -64
470 -91 41 -17 85 -61 85 -84 0 -6 -18 -27 -41 -48 -29 -27 -40 -44 -37 -60 5
-37 43 -35 79 4 l30 33 -5 -90 c-5 -80 -17 -189 -31 -280 -3 -16 -9 -194 -15
-395 -5 -201 -14 -417 -20 -480 -33 -390 -33 -416 -17 -720 9 -162 19 -423 21
-580 5 -302 16 -406 61 -584 14 -55 22 -103 17 -108 -9 -9 -694 -11 -872 -3
-119 6 -255 25 -373 51 -57 13 -70 20 -78 42 -6 15 -9 139 -8 301 1 152 -1
416 -4 586 -2 171 -1 389 3 485 5 96 9 227 10 290 3 171 28 501 46 615 9 55
40 210 69 345 30 135 61 297 69 360 13 92 35 387 36 473 0 21 7 21 127 -2z"/>
<path d="M12579 15776 c-104 -40 -178 -95 -208 -155 -48 -95 -53 -242 -11
-301 60 -84 218 -92 361 -20 112 58 199 186 199 293 0 69 -26 133 -62 157 -44
28 -228 45 -279 26z m6 -90 c-13 -19 -14 -29 -5 -45 15 -29 30 -26 74 14 44
40 105 60 144 47 86 -28 47 -225 -59 -305 -82 -61 -198 -92 -273 -73 -41 10
-60 58 -53 135 11 124 51 195 132 232 53 24 59 24 40 -5z"/>
<path d="M12401 14765 c-40 -35 -97 -139 -117 -217 -24 -91 -15 -206 20 -258
39 -59 95 -84 173 -77 75 6 125 33 202 109 116 113 180 230 167 303 -10 51
-39 80 -107 105 -50 19 -79 23 -160 22 -79 -2 -99 1 -99 12 0 13 -20 26 -40
26 -5 0 -22 -11 -39 -25z m331 -106 c35 -18 38 -23 38 -60 0 -61 -26 -105
-115 -197 -89 -94 -140 -125 -202 -125 -80 0 -107 47 -101 177 3 77 9 101 36
158 30 63 35 67 60 62 15 -3 38 -1 52 5 38 16 186 4 232 -20z"/>
<path d="M12470 13885 c-21 -25 -9 -395 14 -429 18 -29 41 -34 49 -12 3 8 7
110 8 226 1 172 -1 214 -12 221 -21 13 -45 11 -59 -6z"/>
<path d="M12390 13073 c-21 -26 -22 -36 -17 -158 5 -142 49 -387 74 -417 8 -9
22 -14 30 -11 13 5 14 20 10 87 -3 45 -12 117 -21 161 -18 95 -20 229 -5 291
9 34 9 47 -1 59 -19 23 -46 18 -70 -12z"/>
<path d="M4577 15925 c-27 -7 -56 -20 -65 -28 -9 -8 -33 -18 -52 -22 -66 -14
-155 -58 -189 -92 -30 -32 -33 -40 -28 -79 6 -59 27 -88 89 -123 103 -59 313
-81 449 -46 130 33 239 102 239 151 0 69 -76 164 -166 205 -107 50 -185 59
-277 34z m210 -70 c106 -38 188 -137 152 -182 -8 -9 -39 -27 -69 -41 -177 -80
-433 -65 -537 31 -27 25 -30 68 -5 89 34 30 97 56 124 51 16 -3 36 1 50 11 32
23 74 21 81 -4 7 -25 18 -25 45 0 17 16 20 25 12 45 -9 24 -8 25 35 25 24 0
75 -11 112 -25z"/>
<path d="M11224 15878 c-12 -39 -12 -163 2 -311 7 -78 13 -181 14 -228 0 -96
12 -120 46 -95 17 13 19 27 18 158 0 79 -3 183 -6 232 -3 49 -2 123 3 164 10
85 3 102 -42 102 -20 0 -30 -6 -35 -22z"/>
<path d="M9715 15855 c-33 -14 -87 -32 -120 -40 -107 -28 -212 -116 -265 -222
-28 -55 -23 -115 15 -180 92 -155 433 -117 644 73 96 86 115 167 61 260 -37
66 -78 100 -142 119 -72 21 -123 18 -193 -10z m162 -46 c57 -18 114 -89 127
-159 8 -45 -14 -82 -85 -142 -103 -86 -244 -134 -367 -125 -80 6 -134 36 -153
84 -13 35 -11 99 5 136 17 38 77 101 128 133 49 31 61 31 46 -1 -8 -17 -8 -29
-1 -36 15 -15 40 -1 64 37 25 42 37 42 74 4 34 -35 60 -38 75 -9 9 16 8 26 -5
45 -8 13 -20 24 -25 24 -6 0 -10 7 -10 16 0 12 8 14 48 9 26 -4 61 -11 79 -16z"/>
<path d="M13732 15756 c-67 -25 -98 -48 -107 -76 -3 -10 -27 -31 -53 -47 -81
-50 -153 -188 -138 -267 10 -53 56 -114 103 -137 51 -24 145 -39 205 -32 52 6
188 49 241 75 54 27 115 85 139 132 28 55 28 137 0 191 -78 152 -239 219 -390
161z m231 -83 c23 -16 56 -48 74 -72 27 -35 33 -51 33 -92 0 -47 -4 -54 -51
-105 -29 -29 -75 -65 -103 -78 -148 -70 -326 -75 -386 -11 -19 20 -22 32 -18
73 13 138 138 246 264 228 37 -5 45 -2 54 14 8 15 6 24 -10 40 -11 11 -28 20
-37 20 -16 0 -16 2 -3 11 8 5 43 8 79 6 49 -4 73 -11 104 -34z"/>
<path d="M1804 15179 c-10 -17 -6 -132 12 -319 16 -167 11 -428 -11 -525 -2
-11 0 -49 5 -84 7 -47 16 -71 33 -89 33 -33 51 -21 42 27 -8 39 -8 93 -4 421
3 219 -11 546 -25 568 -9 15 -43 16 -52 1z"/>
<path d="M4553 15158 c-30 -38 -51 -237 -33 -313 12 -54 35 -86 55 -79 10 4
13 36 12 127 -1 92 3 136 16 179 14 44 16 62 7 78 -12 22 -42 27 -57 8z"/>
<path d="M9760 15091 c-30 -10 -68 -25 -85 -34 -16 -9 -51 -25 -76 -37 -92
-41 -186 -147 -225 -255 -26 -73 -24 -186 6 -248 35 -73 69 -92 165 -92 78 0
83 2 183 55 195 102 372 308 372 431 -1 155 -159 239 -340 180z m131 -41 c65
-13 112 -54 128 -113 21 -75 -23 -161 -137 -269 -194 -182 -378 -231 -438
-116 -24 47 -15 176 18 248 30 67 75 121 97 119 33 -3 42 2 86 43 45 40 46 41
86 29 22 -7 49 -9 60 -6 18 6 20 12 14 41 -7 39 -2 41 86 24z"/>
<path d="M13781 14946 c-17 -20 -29 -141 -36 -361 -3 -110 -8 -222 -11 -249
-7 -53 6 -72 37 -56 21 12 28 57 39 260 5 91 15 216 22 279 12 107 11 114 -7
127 -23 17 -30 17 -44 0z"/>
<path d="M11382 14898 c-16 -16 -15 -85 2 -178 16 -83 45 -256 52 -308 5 -29
8 -33 32 -30 26 3 27 6 30 65 2 35 -6 109 -18 170 -12 59 -21 141 -21 181 1
59 -3 76 -19 92 -23 23 -41 25 -58 8z"/>
<path d="M22480 14780 c0 -5 14 -8 31 -6 87 9 206 -35 234 -88 16 -29 16 -39
5 -84 -16 -68 -73 -155 -141 -216 -61 -55 -344 -246 -432 -291 -55 -28 -58
-32 -52 -60 3 -16 9 -33 14 -38 11 -11 151 12 151 25 0 4 10 8 23 8 18 0 19
-2 7 -10 -11 -8 8 -9 62 -6 43 3 80 1 82 -3 3 -5 30 -9 60 -9 41 0 69 -8 107
-29 29 -15 54 -33 56 -39 6 -19 -73 -110 -150 -174 -39 -33 -148 -113 -242
-177 -93 -64 -198 -137 -232 -162 -34 -25 -92 -66 -129 -91 -100 -67 -128 -94
-121 -113 11 -29 53 -19 109 26 29 24 98 73 153 109 438 290 632 444 686 544
46 86 -145 166 -423 176 -38 2 -67 7 -65 12 2 5 18 17 36 27 18 9 49 28 69 42
20 13 78 51 127 83 175 114 302 272 306 380 3 78 -34 133 -108 160 -44 15
-223 19 -223 4z"/>
<path d="M22370 14770 c-11 -7 -4 -10 27 -10 23 0 45 5 48 10 8 13 -55 13 -75
0z"/>
<path d="M22246 14731 c-4 -5 3 -7 14 -4 23 6 26 13 6 13 -8 0 -17 -4 -20 -9z"/>
<path d="M22155 14700 c-3 -5 3 -10 14 -10 11 0 23 5 26 10 3 6 -3 10 -14 10
-11 0 -23 -4 -26 -10z"/>
<path d="M22065 14660 c-71 -35 -195 -135 -195 -158 0 -6 -10 -19 -23 -29 -31
-24 -121 -211 -143 -296 -22 -85 -15 -299 12 -362 9 -22 18 -53 19 -70 17
-183 97 -395 149 -395 13 0 31 9 41 20 17 19 16 21 -20 75 -100 152 -184 525
-156 703 14 93 46 182 89 244 16 23 39 61 50 83 21 41 101 109 202 171 61 37
43 47 -25 14z"/>
<path d="M4560 14455 c-163 -36 -276 -111 -254 -169 11 -28 35 -25 72 8 70 63
271 121 335 97 15 -6 27 -15 27 -21 0 -24 -39 -71 -147 -176 -107 -103 -114
-113 -111 -145 8 -85 145 -90 411 -15 86 24 161 47 167 51 17 10 11 43 -9 50
-10 3 -81 -10 -157 -30 -143 -37 -316 -57 -327 -38 -6 10 15 32 137 144 69 64
96 112 96 172 0 63 -23 81 -108 84 -37 1 -96 -4 -132 -12z"/>
<path d="M9685 14135 c-144 -87 -294 -224 -351 -320 -31 -53 -34 -124 -10
-193 23 -63 44 -89 93 -113 58 -28 138 -28 223 1 139 47 355 200 399 283 25
46 25 46 8 100 -12 39 -29 66 -58 92 -48 43 -132 85 -171 85 -66 0 -147 -55
-120 -82 8 -8 22 -5 47 7 46 21 86 15 149 -25 48 -31 85 -90 86 -138 0 -51
-196 -206 -325 -256 -139 -54 -221 -32 -260 71 -44 114 19 225 208 369 52 40
150 93 200 108 32 10 16 41 -23 44 -26 2 -51 -7 -95 -33z"/>
<path d="M11371 13984 c-16 -36 -41 -302 -41 -440 0 -113 6 -134 42 -134 21 0
25 23 33 200 6 140 15 213 37 313 12 55 11 60 -7 73 -29 21 -50 17 -64 -12z"/>
<path d="M13674 13920 c-99 -29 -135 -50 -207 -121 -84 -84 -119 -155 -120
-244 -2 -189 171 -278 407 -208 116 34 213 105 263 191 20 33 27 63 31 117 6
101 -3 139 -45 186 -42 46 -77 67 -148 85 -65 18 -107 16 -181 -6z m216 -84
c64 -32 90 -74 90 -148 0 -79 -17 -114 -83 -174 -79 -73 -166 -106 -277 -107
-47 -1 -102 4 -122 12 -114 39 -107 189 13 316 50 53 137 105 176 105 24 0 43
-19 43 -41 0 -23 15 -32 41 -24 18 6 21 13 16 45 -3 21 -2 41 1 44 8 8 51 -4
102 -28z"/>
<path d="M4521 13639 c-97 -9 -131 -24 -131 -59 0 -37 23 -42 127 -25 124 20
293 31 293 19 0 -9 -33 -36 -152 -125 -68 -50 -79 -69 -62 -114 10 -26 70 -50
204 -84 119 -30 249 -84 257 -108 6 -18 -86 -64 -191 -95 -155 -46 -273 -76
-361 -93 -102 -20 -125 -30 -125 -54 0 -35 36 -36 190 -4 255 53 425 105 501
153 52 34 59 45 59 95 0 25 -8 40 -32 61 -49 41 -160 89 -289 124 -63 18 -118
36 -123 41 -14 12 8 34 93 90 82 55 114 88 124 131 13 50 -9 58 -156 57 -73
-1 -174 -6 -226 -10z"/>
<path d="M23014 13426 c-3 -8 -1 -23 5 -35 6 -11 11 -43 11 -72 0 -77 19 -271
35 -364 24 -138 57 -545 52 -635 -3 -46 28 -55 44 -13 11 30 -5 351 -42 828
-5 72 -7 151 -3 177 5 38 2 54 -15 82 -29 46 -75 63 -87 32z"/>
<path d="M9623 13236 c-81 -26 -146 -74 -238 -176 -73 -81 -119 -164 -135
-242 -9 -48 -9 -68 5 -120 46 -180 176 -280 365 -280 68 0 99 5 153 26 98 37
200 92 294 158 222 157 252 302 86 411 -73 48 -168 69 -313 68 -182 -1 -270
-21 -270 -61 0 -24 5 -24 95 -5 99 21 240 19 324 -4 132 -37 182 -80 189 -164
4 -48 1 -57 -30 -97 -41 -54 -119 -110 -248 -178 -170 -90 -273 -111 -387 -77
-78 23 -114 53 -150 125 -60 120 -54 228 19 342 53 83 110 141 180 184 79 48
108 55 147 36 58 -28 109 17 59 52 -27 19 -87 20 -145 2z"/>
<path d="M11361 13172 c-20 -37 -31 -183 -31 -411 0 -207 2 -240 16 -252 14
-11 19 -10 34 8 15 19 18 52 22 260 4 183 9 255 23 310 15 59 16 75 5 88 -17
20 -57 19 -69 -3z"/>
<path d="M13464 12879 c-9 -16 -10 -499 0 -591 7 -68 10 -78 27 -78 11 0 22 6
24 13 4 12 18 526 16 601 0 21 -6 45 -12 52 -14 17 -45 18 -55 3z"/>
<path d="M4475 12079 c-27 -5 -79 -10 -115 -12 -71 -3 -153 -35 -206 -80 -113
-96 -64 -243 96 -292 51 -16 93 -20 195 -20 116 1 142 4 244 33 197 56 331
136 331 196 0 36 -41 89 -90 115 -87 48 -341 82 -455 60z m274 -54 c126 -27
201 -72 201 -121 0 -41 -108 -96 -280 -144 -116 -33 -327 -35 -408 -6 -70 27
-104 63 -106 115 0 34 5 45 34 72 38 34 104 68 134 69 10 0 24 -8 31 -17 12
-16 15 -16 48 2 33 17 37 17 60 2 14 -9 33 -34 43 -56 19 -40 49 -55 60 -28 6
17 -20 80 -40 97 -9 7 -16 16 -16 21 0 15 159 10 239 -6z"/>
<path d="M11390 12048 c-19 -5 -80 -11 -135 -12 -154 -3 -291 -54 -372 -138
-77 -80 -79 -133 -7 -196 57 -51 115 -67 239 -66 111 0 185 20 309 80 144 71
226 153 226 226 0 54 -15 76 -63 99 -46 20 -137 24 -197 7z m136 -48 c18 0 54
-40 54 -61 0 -11 -22 -44 -50 -72 l-50 -52 0 38 c0 41 -28 105 -56 128 -16 13
-14 15 17 20 19 4 43 5 54 3 11 -2 25 -4 31 -4z m-353 -39 c-52 -43 -14 -62
53 -28 27 14 63 28 80 31 27 6 35 2 62 -29 19 -21 34 -52 38 -75 5 -30 12 -41
32 -48 23 -7 18 -11 -59 -44 -137 -59 -190 -71 -293 -66 -77 3 -99 8 -138 31
-54 31 -63 49 -43 86 29 57 105 110 205 142 73 24 91 24 63 0z"/>
<path d="M9566 12032 c-3 -5 -10 -42 -16 -83 -6 -41 -15 -97 -19 -125 -10 -65
4 -381 18 -416 12 -32 31 -36 53 -10 13 13 14 27 8 67 -5 28 -9 127 -9 220 0
138 3 183 19 240 29 103 27 115 -14 115 -19 0 -37 -4 -40 -8z"/>
<path d="M13402 11938 c-97 -15 -176 -68 -214 -142 -26 -51 -22 -161 10 -221
25 -50 84 -107 137 -133 179 -88 440 -28 525 121 68 118 19 260 -113 328 -80
42 -242 64 -345 47z m153 -90 c19 -9 30 -8 48 1 18 9 31 9 65 -3 90 -32 152
-109 152 -189 0 -50 -53 -107 -138 -149 -60 -30 -75 -33 -157 -33 -98 0 -134
10 -202 58 -50 35 -73 67 -84 116 -18 77 36 168 116 196 49 17 165 19 200 3z"/>
<path d="M12421 11839 c-18 -6 -43 -16 -55 -23 -11 -7 -39 -18 -61 -25 -56
-17 -129 -73 -162 -122 -51 -78 -41 -203 24 -280 14 -16 49 -42 77 -57 125
-65 352 -4 493 133 40 39 55 62 68 108 15 52 15 62 1 110 -29 101 -122 158
-266 163 -47 2 -100 -1 -119 -7z m195 -54 c85 -25 131 -98 119 -186 -20 -148
-314 -291 -453 -220 -122 62 -137 223 -30 317 32 28 150 74 191 74 8 0 17 7
21 15 7 20 86 20 152 0z"/>
<path d="M4564 11295 c-21 -15 -21 -76 -3 -254 11 -116 27 -169 52 -183 37
-19 43 4 24 95 -10 48 -17 127 -17 192 0 61 -3 120 -6 132 -8 28 -27 35 -50
18z"/>
<path d="M13498 11228 c-32 -25 -41 -115 -43 -421 -2 -244 1 -299 12 -309 11
-9 18 -8 29 4 13 13 17 65 24 299 6 220 12 296 25 337 15 49 15 56 0 78 -18
27 -25 29 -47 12z"/>
<path d="M12335 11157 c-123 -41 -227 -125 -270 -219 -42 -90 -26 -177 46
-245 91 -86 220 -85 428 4 144 62 185 117 147 192 -19 36 -141 149 -174 162
-58 22 -142 -18 -142 -68 0 -28 21 -30 44 -4 10 10 26 21 36 24 49 13 185
-148 167 -197 -8 -20 -140 -83 -216 -102 -83 -21 -177 -16 -212 11 -112 84
-95 225 39 331 130 102 310 100 369 -5 24 -41 70 -61 80 -35 16 42 -35 113
-99 139 -56 23 -191 29 -243 12z"/>
<path d="M9585 11148 c-12 -32 -36 -225 -42 -330 -5 -107 -4 -118 12 -124 38
-15 50 8 56 113 8 126 27 229 45 244 14 12 19 65 8 93 -7 19 -72 22 -79 4z"/>
<path d="M11285 11105 c-33 -7 -82 -23 -108 -34 -27 -12 -61 -21 -75 -21 -60
0 -231 -100 -257 -150 -21 -41 -19 -123 4 -168 26 -50 55 -76 126 -109 54 -25
70 -28 160 -27 81 0 115 5 178 27 116 40 208 90 267 145 51 46 54 51 57 108 4
52 1 64 -25 105 -36 57 -99 101 -172 123 -63 19 -75 19 -155 1z m145 -67 c60
-18 118 -78 133 -137 25 -100 -235 -241 -444 -241 -90 0 -161 30 -196 83 -27
40 -30 102 -7 135 26 38 95 82 126 82 16 0 46 9 68 20 22 11 59 20 83 20 37 0
46 4 55 24 16 35 92 41 182 14z"/>
<path d="M6330 10724 c0 -9 7 -14 17 -12 25 5 28 28 4 28 -12 0 -21 -6 -21
-16z"/>
<path d="M1404 10690 c-135 -19 -250 -65 -260 -104 -12 -49 21 -60 79 -26 58
35 181 59 328 66 160 8 199 -1 199 -45 0 -51 -75 -154 -269 -373 -40 -46 -83
-94 -95 -108 -38 -42 -68 -113 -64 -150 2 -27 10 -38 33 -50 45 -22 187 -16
325 14 63 13 198 43 300 64 238 51 269 64 235 92 -15 13 -28 11 -135 -11 -25
-6 -65 -14 -90 -19 -25 -5 -56 -11 -70 -14 -14 -3 -56 -10 -95 -16 -38 -7
-116 -20 -173 -31 -57 -10 -132 -19 -167 -19 -154 0 -150 6 238 434 15 17 44
64 64 104 36 72 36 74 22 115 -27 72 -50 82 -207 84 -75 1 -165 -2 -198 -7z"/>
<path d="M4556 10519 c-184 -24 -302 -80 -327 -157 -11 -33 -10 -37 11 -54 27
-22 44 -19 48 8 10 53 96 99 236 123 74 14 163 14 171 2 6 -11 -103 -123 -178
-185 -41 -33 -48 -43 -45 -70 7 -67 113 -81 388 -51 137 16 166 27 154 58 -10
26 -47 31 -158 19 -242 -26 -286 -26 -286 4 0 8 4 14 8 14 9 0 21 11 124 108
55 51 73 89 64 136 -6 30 -12 37 -44 46 -42 11 -68 11 -166 -1z"/>
<path d="M9610 10290 c-9 -6 -20 -50 -32 -127 -24 -162 -45 -324 -53 -408 -3
-38 -8 -79 -11 -90 -3 -11 1 -29 9 -39 11 -15 18 -17 33 -8 15 9 22 33 35 129
24 177 56 379 73 458 10 49 11 73 4 82 -12 15 -37 17 -58 3z"/>
<path d="M22465 10243 c-198 -19 -481 -135 -617 -253 -45 -39 -116 -128 -143
-179 -78 -152 -131 -468 -107 -640 13 -87 29 -110 69 -95 32 11 33 16 15 179
-20 185 15 393 92 550 51 102 93 150 186 210 214 138 368 184 584 173 110 -6
164 -23 209 -65 32 -31 33 -53 8 -108 -27 -58 -95 -117 -179 -154 -93 -42
-293 -80 -422 -81 -99 0 -120 -7 -120 -42 0 -23 25 -35 75 -36 136 -4 374
-104 472 -198 63 -60 66 -81 22 -147 -124 -187 -666 -374 -872 -300 -42 15
-49 15 -57 3 -12 -19 -12 -21 5 -43 20 -27 84 -38 184 -32 348 22 697 167 815
338 66 96 50 156 -66 248 -53 42 -203 118 -276 139 -23 7 -42 16 -42 20 0 4
38 12 84 19 112 15 189 36 264 71 127 59 212 163 212 258 0 62 -50 112 -140
140 -67 20 -185 32 -255 25z"/>
<path d="M13332 10185 c-111 -56 -197 -167 -222 -287 -26 -119 18 -233 112
-291 39 -24 61 -30 131 -34 182 -12 335 65 404 202 32 61 41 156 22 222 -18
67 -86 132 -161 158 -32 10 -58 22 -58 26 0 24 -35 39 -94 39 -52 0 -76 -6
-134 -35z m205 -81 c127 -27 183 -87 183 -196 -1 -70 -27 -125 -84 -175 -67
-59 -151 -88 -256 -88 -75 0 -91 3 -132 28 -65 38 -82 73 -76 158 8 106 64
199 162 271 44 32 59 32 203 2z"/>
<path d="M12482 10183 c-30 -58 -67 -300 -76 -508 -6 -116 -1 -139 30 -133 25
4 29 30 48 258 9 102 23 217 32 255 9 39 19 87 21 108 5 34 3 37 -21 37 -14 0
-29 -8 -34 -17z"/>
<path d="M11153 10112 c-113 -36 -262 -179 -304 -291 -28 -76 -28 -183 1 -248
26 -58 60 -96 120 -131 41 -24 55 -27 145 -27 108 0 154 12 300 80 272 125
365 259 286 412 -46 91 -180 171 -299 181 -37 3 -83 13 -102 23 -42 23 -78 23
-147 1z m282 -87 c114 -30 195 -102 216 -192 22 -97 -49 -176 -244 -272 -233
-116 -383 -121 -474 -18 -42 47 -50 103 -30 201 23 112 124 255 170 240 10 -3
42 4 71 16 99 40 200 48 291 25z"/>
<path d="M24870 10024 c-81 -15 -196 -80 -256 -145 -83 -92 -144 -223 -164
-356 -51 -340 -71 -643 -50 -751 24 -119 40 -143 90 -127 36 11 44 42 21 78
-24 40 -33 124 -13 119 8 -1 48 11 90 27 43 17 124 44 182 61 371 108 510 168
510 220 0 48 -164 104 -435 150 -71 13 -136 26 -143 30 -15 8 30 47 103 90 79
47 226 163 265 210 72 86 104 192 80 264 -15 47 -56 95 -95 111 -33 14 -146
26 -185 19z m129 -72 c54 -27 76 -65 74 -125 0 -29 -8 -68 -16 -87 -24 -55
-152 -180 -244 -240 -29 -18 -53 -36 -53 -40 0 -4 -24 -19 -52 -35 -119 -63
-141 -95 -92 -134 27 -21 67 -31 227 -56 118 -19 265 -51 304 -66 l28 -11 -26
-22 c-34 -30 -151 -75 -324 -126 -77 -23 -182 -59 -232 -81 -51 -21 -97 -39
-102 -39 -20 0 -23 74 -12 282 21 404 64 551 202 686 96 94 237 136 318 94z"/>
<path d="M4480 9736 c-6 -8 -10 -25 -8 -38 l3 -23 195 -1 c191 0 244 -6 238
-25 -2 -6 -44 -32 -93 -58 -87 -46 -90 -49 -93 -85 -2 -21 2 -44 9 -52 18 -21
84 -54 219 -107 123 -49 200 -88 221 -113 10 -12 8 -19 -11 -40 -56 -59 -227
-113 -385 -121 -113 -6 -138 -15 -133 -46 3 -21 7 -22 128 -21 146 1 265 26
366 76 81 40 110 71 118 127 6 40 4 45 -28 76 -40 37 -165 101 -283 144 -91
32 -147 67 -137 83 4 6 46 28 93 50 102 47 121 62 121 98 0 65 -94 90 -351 90
-142 0 -179 -3 -189 -14z"/>
<path d="M23659 9453 c-5 -14 -7 -33 -5 -40 14 -36 82 -27 92 12 8 33 -11 55
-47 55 -23 0 -32 -6 -40 -27z"/>
<path d="M9582 9378 c-24 -30 -69 -448 -53 -490 22 -57 60 -26 67 54 11 133
16 171 36 290 11 69 18 133 15 142 -8 19 -50 21 -65 4z"/>
<path d="M13476 9242 c-22 -36 -29 -135 -30 -429 -1 -244 1 -324 10 -327 37
-14 49 67 53 354 1 104 9 228 17 283 12 77 13 101 4 113 -14 15 -46 19 -54 6z"/>
<path d="M11150 9184 c-124 -45 -193 -84 -230 -132 -113 -145 -132 -189 -104
-247 11 -24 29 -42 50 -51 38 -16 130 -18 191 -4 110 25 423 164 518 230 45
31 105 94 105 110 0 16 -40 51 -78 68 -27 12 -74 18 -177 20 -77 1 -167 5
-200 7 -33 2 -67 2 -75 -1z m96 -84 c23 0 36 -7 48 -25 27 -41 76 -27 76 22 0
22 4 23 65 23 65 0 126 -17 140 -40 17 -28 -72 -85 -270 -172 -208 -91 -352
-125 -400 -94 -83 54 63 253 220 299 42 12 53 12 70 1 11 -8 34 -14 51 -14z"/>
<path d="M12476 9153 c-7 -16 -24 -64 -37 -108 -22 -72 -24 -98 -23 -251 2
-184 9 -218 47 -212 21 3 21 7 23 168 1 179 12 254 51 342 30 67 26 88 -16 88
-23 0 -34 -7 -45 -27z"/>
<path d="M22804 9137 c-3 -8 4 -37 15 -64 51 -129 66 -228 66 -423 0 -109 -4
-197 -11 -215 -15 -41 -8 -55 26 -55 43 0 51 25 61 184 14 208 -6 414 -52 528
-19 47 -92 78 -105 45z"/>
<path d="M25340 8680 c-20 -20 -21 -23 -6 -38 13 -13 40 -17 137 -18 l121 -1
36 -37 37 -37 -25 -20 c-52 -42 -236 -109 -371 -134 -83 -16 -99 -16 -125 -4
-19 9 -30 23 -32 39 -3 35 58 114 117 151 27 16 51 36 54 43 8 22 -22 56 -49
56 -36 0 -132 -89 -181 -169 -31 -49 -32 -132 -2 -160 24 -22 91 -41 146 -41
105 1 358 85 483 160 68 42 75 49 78 81 3 41 -10 56 -83 93 -62 31 -114 43
-226 52 -81 6 -88 5 -109 -16z"/>
<path d="M9047 8594 c-1 -1 -83 -5 -182 -8 -99 -4 -244 -11 -322 -16 -648 -45
-712 -50 -833 -65 -63 -8 -209 -17 -323 -21 -189 -6 -209 -8 -218 -26 -21 -39
-5 -41 210 -35 113 4 265 13 336 21 72 8 227 22 345 31 400 28 635 46 730 54
253 21 1355 9 1750 -19 74 -6 317 -21 540 -35 488 -30 671 -42 810 -55 58 -6
132 -13 165 -16 33 -3 123 -12 200 -20 77 -8 194 -19 260 -24 66 -6 165 -14
220 -20 55 -5 136 -12 180 -14 142 -9 367 -25 490 -36 243 -21 1051 -70 1405
-85 201 -9 496 -24 655 -35 512 -34 627 -40 772 -42 79 -1 146 2 150 5 22 22
-52 34 -292 47 -282 16 -358 21 -500 35 -27 3 -99 7 -160 10 -60 3 -184 9
-275 14 -91 6 -275 15 -410 21 -135 5 -321 15 -415 21 -93 5 -204 12 -245 14
-41 3 -100 7 -130 10 -99 9 -163 14 -340 25 -96 6 -267 18 -380 26 -113 8
-268 19 -345 24 -77 5 -153 12 -170 15 -16 2 -64 7 -105 10 -106 8 -371 33
-460 44 -41 4 -84 9 -95 9 -11 0 -69 5 -130 11 -284 26 -338 31 -450 36 -178
8 -593 34 -725 45 -63 5 -164 12 -225 15 -60 3 -191 10 -290 15 -149 9 -1191
21 -1198 14z"/>
<path d="M4937 8429 c-51 -12 -158 -62 -220 -102 -52 -34 -117 -125 -117 -165
0 -60 44 -114 130 -157 149 -76 442 -70 630 13 64 28 140 98 140 128 0 42 -29
97 -78 147 -90 92 -195 133 -358 141 -49 3 -106 0 -127 -5z m257 -78 c80 -28
132 -60 184 -112 50 -51 54 -84 15 -121 -72 -67 -173 -92 -373 -93 -137 0
-163 3 -222 23 -37 13 -78 32 -91 42 -86 68 9 171 145 156 32 -3 76 -15 98
-26 47 -24 69 -25 77 -4 14 37 -86 94 -166 94 -58 0 -67 14 -24 33 71 31 108
37 203 32 61 -2 116 -11 154 -24z"/>
<path d="M9670 8353 c0 -10 7 -54 16 -98 23 -120 21 -316 -5 -449 -25 -131
-26 -169 -6 -186 23 -19 34 -2 46 71 5 35 17 87 25 114 35 115 26 448 -13 533
-17 36 -63 47 -63 15z"/>
<path d="M11282 8243 c-22 -42 -31 -132 -36 -360 -6 -250 -2 -275 34 -253 16
10 24 95 35 360 5 118 10 153 27 189 15 32 18 48 11 60 -15 24 -60 26 -71 4z"/>
<path d="M12439 8150 c-69 -12 -198 -69 -240 -107 -54 -49 -72 -93 -67 -168 7
-110 59 -166 192 -207 161 -49 469 12 585 117 38 34 41 41 41 88 0 77 -31 132
-101 177 -31 20 -79 42 -106 49 -26 6 -69 23 -96 36 -50 26 -113 31 -208 15z
m-49 -73 c0 -2 -11 -18 -25 -37 -55 -74 -14 -112 44 -40 61 76 128 89 270 55
114 -28 211 -107 211 -172 0 -55 -110 -118 -268 -154 -252 -57 -467 41 -428
196 9 37 72 103 125 130 41 21 71 31 71 22z"/>
<path d="M13416 8131 c-33 -5 -55 -15 -68 -31 -38 -47 -14 -53 119 -30 42 7
88 9 110 5 l38 -8 -39 -9 c-57 -12 -102 -44 -138 -96 -27 -39 -32 -57 -36
-124 -6 -106 10 -157 69 -222 93 -102 232 -113 396 -29 74 37 147 119 169 188
15 47 16 60 5 97 -28 93 -111 172 -218 209 -128 44 -303 66 -407 50z m305 -87
c151 -44 259 -128 259 -203 0 -31 -9 -50 -40 -89 -66 -84 -112 -113 -226 -142
-70 -18 -78 -18 -122 -4 -77 26 -106 60 -122 144 -20 106 28 207 111 232 36
10 41 9 60 -11 11 -12 24 -19 30 -16 16 10 10 51 -11 70 -41 38 -23 43 61 19z"/>
<path d="M5110 7495 c-16 -20 -17 -452 -1 -512 11 -41 35 -64 56 -57 11 4 11
529 0 564 -7 23 -37 26 -55 5z"/>
<path d="M9663 7408 c-4 -7 -9 -78 -10 -158 -1 -80 -8 -196 -17 -259 -15 -121
-10 -155 22 -149 29 6 48 108 63 338 10 144 9 170 -4 203 -16 37 -39 48 -54
25z"/>
<path d="M11340 7360 c-12 -8 -12 -25 -1 -137 8 -70 15 -195 17 -278 2 -82 6
-156 9 -162 2 -7 13 -13 23 -13 11 0 24 6 29 13 25 33 8 561 -19 578 -17 11
-39 11 -58 -1z"/>
<path d="M13795 7320 c-4 -6 -4 -33 0 -60 4 -26 2 -99 -4 -162 -35 -371 -47
-581 -37 -622 7 -30 31 -34 44 -8 5 9 12 62 15 117 4 55 18 204 32 330 35 305
36 346 9 382 -23 31 -48 40 -59 23z"/>
<path d="M12422 7270 c-56 -12 -158 -69 -199 -112 -95 -99 -101 -275 -13 -396
18 -25 50 -50 87 -68 55 -28 64 -29 193 -28 106 0 153 5 220 23 158 42 278
118 322 205 25 49 29 135 9 186 -54 132 -174 189 -356 168 -71 -8 -91 -8 -118
5 -45 21 -94 27 -145 17z m58 -85 c-36 -38 -14 -53 44 -31 34 13 50 15 65 7
36 -20 61 -14 61 14 0 24 2 25 70 25 151 0 262 -82 262 -195 0 -98 -91 -184
-257 -241 -73 -26 -93 -28 -225 -29 -137 0 -148 1 -188 25 -118 67 -136 249
-35 360 40 45 132 85 202 89 l24 1 -23 -25z"/>
<path d="M1692 6909 c-75 -7 -204 -35 -234 -51 -21 -10 -24 -44 -4 -51 8 -3
40 1 72 9 165 44 305 53 479 34 110 -13 159 -27 182 -52 16 -18 16 -21 -2 -54
-21 -40 -71 -82 -175 -149 -41 -26 -87 -56 -102 -66 -15 -11 -30 -19 -34 -19
-4 0 -43 -21 -88 -47 -44 -27 -108 -61 -141 -78 -49 -25 -61 -35 -63 -57 -5
-39 16 -44 198 -53 169 -7 267 -27 326 -66 30 -20 34 -28 30 -52 -8 -39 -90
-137 -151 -178 -58 -40 -227 -124 -300 -149 -27 -9 -81 -23 -118 -30 -64 -13
-68 -15 -65 -39 3 -22 9 -26 39 -29 69 -6 271 64 398 137 25 14 58 32 72 40
39 19 140 119 177 174 45 67 42 95 -12 145 -80 74 -158 99 -336 108 -63 3
-119 10 -124 15 -10 9 31 48 50 49 6 0 17 6 23 14 7 8 24 17 39 21 35 9 127
52 177 84 164 102 204 135 250 201 65 93 -19 158 -240 185 -125 15 -191 16
-323 4z"/>
<path d="M9652 6744 c-5 -8 -5 -40 0 -72 4 -31 10 -151 12 -267 2 -115 7 -218
11 -228 4 -10 15 -17 24 -15 13 3 18 23 24 108 11 146 3 428 -13 463 -15 30
-44 36 -58 11z"/>
<path d="M5025 6589 c-93 -12 -225 -53 -253 -79 -28 -26 -29 -66 -2 -75 11 -3
43 5 77 20 188 86 479 90 500 7 12 -50 -31 -101 -229 -267 -38 -31 -68 -62
-68 -69 0 -6 15 -26 33 -44 28 -28 42 -33 108 -40 69 -7 473 3 527 14 26 5 30
35 7 54 -13 10 -67 12 -253 7 -248 -7 -312 -3 -312 19 0 13 105 104 119 104
16 0 121 108 131 134 14 39 12 88 -6 124 -43 87 -171 117 -379 91z"/>
<path d="M11401 6558 c-5 -13 -23 -83 -40 -156 -59 -248 -80 -521 -45 -557 9
-9 24 -15 33 -13 14 3 17 26 22 153 7 158 22 243 71 405 53 176 53 190 -3 190
-21 0 -32 -6 -38 -22z"/>
<path d="M12716 6494 c-21 -20 -21 -124 0 -359 15 -175 26 -224 51 -232 26 -9
33 33 22 148 -6 63 -12 186 -13 274 -1 88 -5 166 -9 173 -11 17 -32 15 -51 -4z"/>
<path d="M13776 6234 c-19 -18 -19 -20 -5 -46 8 -16 17 -19 40 -14 39 8 36 0
-9 -23 -21 -11 -56 -39 -79 -63 -136 -149 -98 -411 73 -494 79 -39 174 -44
256 -14 110 40 177 94 212 169 31 68 30 209 -3 271 -43 83 -87 127 -165 166
-119 58 -285 84 -320 48z m275 -99 c115 -59 171 -141 171 -250 -1 -78 -19
-121 -76 -173 -90 -83 -227 -104 -333 -51 -36 19 -54 36 -77 79 -83 147 0 324
176 375 31 9 62 22 68 30 16 19 12 19 71 -10z"/>
<path d="M23495 5914 c-56 -8 -74 -14 -90 -30 -13 -13 -13 -19 -3 -31 10 -13
8 -19 -14 -37 -154 -127 -224 -200 -259 -273 -26 -53 -35 -153 -20 -208 37
-137 170 -232 358 -255 193 -24 433 52 608 192 93 74 124 123 132 209 10 109
-63 211 -214 301 -88 52 -181 92 -263 113 -61 15 -188 25 -235 19z m227 -100
c139 -43 265 -113 341 -190 69 -69 89 -131 60 -191 -68 -146 -351 -284 -583
-284 -216 -1 -370 113 -370 273 0 118 183 315 360 389 82 35 91 35 192 3z"/>
<path d="M9793 5558 c-13 -16 0 -538 17 -723 36 -388 50 -508 60 -521 23 -27
31 -3 25 74 -3 43 -8 147 -10 232 -3 85 -9 203 -15 262 -6 59 -10 227 -10 373
0 178 -4 273 -12 290 -12 27 -39 33 -55 13z"/>
<path d="M5072 5478 c-7 -7 -12 -23 -12 -36 0 -31 49 -52 200 -87 274 -63 355
-91 355 -125 0 -21 -64 -54 -164 -85 -229 -71 -311 -113 -311 -159 0 -37 49
-94 194 -225 192 -175 223 -229 176 -306 -56 -91 -288 -174 -485 -175 -98 0
-223 29 -267 61 -75 56 -121 58 -97 6 17 -37 72 -72 159 -103 195 -68 578 -1
724 128 60 52 73 86 58 155 -15 74 -57 128 -201 257 -125 112 -181 170 -181
186 0 16 69 45 238 100 193 63 242 92 242 145 0 76 -101 129 -380 200 -58 15
-129 37 -159 51 -61 27 -72 29 -89 12z"/>
<path d="M12782 5224 c-17 -12 -22 -25 -22 -62 0 -26 -5 -63 -11 -82 -7 -21
-14 -195 -19 -445 -4 -234 -13 -448 -20 -498 -10 -67 -10 -91 -2 -99 9 -9 15
-9 23 -1 21 21 57 378 64 643 4 140 11 284 17 320 19 128 22 215 6 228 -11 9
-19 8 -36 -4z"/>
<path d="M11450 5185 c-8 -9 -16 -72 -21 -168 -21 -388 -40 -695 -45 -723 -5
-29 14 -64 34 -64 26 1 32 26 42 175 6 88 13 167 15 175 3 8 14 128 25 265 11
138 23 264 26 281 3 18 1 41 -5 53 -14 25 -53 28 -71 6z"/>
<path d="M13893 5173 c-15 -23 -18 -53 -19 -198 -1 -93 -7 -206 -14 -250 -14
-96 -94 -415 -116 -467 -17 -38 -13 -58 11 -58 24 0 42 38 80 170 83 283 97
355 101 510 3 80 9 175 15 211 17 98 -17 145 -58 82z"/>
<path d="M16644 4319 c-3 -6 -1 -16 5 -22 8 -8 11 -5 11 11 0 24 -5 28 -16 11z"/>
<path d="M16650 4251 c0 -12 5 -21 10 -21 6 0 10 6 10 14 0 8 -4 18 -10 21 -5
3 -10 -3 -10 -14z"/>
<path d="M16661 4094 c0 -11 3 -14 6 -6 3 7 2 16 -1 19 -3 4 -6 -2 -5 -13z"/>
<path d="M16660 3953 c0 -13 5 -23 10 -23 13 0 13 11 0 30 -8 12 -10 11 -10
-7z"/>
<path d="M16665 3637 c-4 -10 -5 -21 -1 -24 10 -10 18 4 13 24 -4 17 -4 17
-12 0z"/>
<path d="M16659 3503 c-6 -72 -4 -103 5 -100 14 5 20 117 6 117 -5 0 -11 -8
-11 -17z"/>
<path d="M16648 3324 c-2 -251 1 -309 12 -298 6 6 12 83 14 177 3 136 1 169
-11 179 -12 10 -14 1 -15 -58z"/>
<path d="M29706 3129 c-3 -18 -1 -38 4 -44 6 -7 8 -25 4 -39 -7 -30 15 -36 36
-10 11 12 11 18 -2 31 -12 11 -14 23 -8 43 5 18 4 32 -3 39 -18 18 -24 13 -31
-20z"/>
</g>
</svg>
