<?xml version="1.0" standalone="no"?>
<!DOCTYPE svg PUBLIC "-//W3C//DTD SVG 20010904//EN"
 "http://www.w3.org/TR/2001/REC-SVG-20010904/DTD/svg10.dtd">
<svg version="1.0" xmlns="http://www.w3.org/2000/svg"
 width="3264.000000pt" height="2448.000000pt" viewBox="0 0 3264.000000 2448.000000"
 preserveAspectRatio="xMidYMid meet">
<metadata>
Created by potrace 1.12, written by Peter Selinger 2001-2015
</metadata>
<g transform="translate(0.000000,2448.000000) scale(0.100000,-0.100000)"
fill="#000000" stroke="none">
<path d="M9043 24453 c-13 -8 -23 -22 -23 -29 0 -16 16 -19 25 -4 3 6 14 10
23 10 9 0 24 5 32 10 13 9 13 11 0 20 -20 13 -31 12 -57 -7z"/>
<path d="M9245 24426 c1 -15 8 -21 26 -21 32 0 31 27 -2 35 -22 6 -25 4 -24
-14z"/>
<path d="M8852 24373 c8 -10 18 -27 22 -37 10 -28 26 -6 19 27 -4 21 -11 27
-31 27 -23 0 -24 -1 -10 -17z"/>
<path d="M13725 24360 c3 -5 10 -10 16 -10 5 0 9 5 9 10 0 6 -7 10 -16 10 -8
0 -12 -4 -9 -10z"/>
<path d="M9100 24330 c0 -5 6 -10 14 -10 8 0 18 5 21 10 3 6 -3 10 -14 10 -12
0 -21 -4 -21 -10z"/>
<path d="M8880 24276 c0 -9 40 -13 46 -5 3 5 -6 9 -20 9 -14 0 -26 -2 -26 -4z"/>
<path d="M13410 24221 c0 -10 36 -21 44 -14 3 3 3 10 0 14 -7 12 -44 12 -44 0z"/>
<path d="M8900 24211 c8 -5 26 -12 40 -15 l25 -7 -25 15 c-14 9 -32 15 -40 15
-13 0 -13 -1 0 -8z"/>
<path d="M8800 24206 c0 -2 7 -6 15 -10 8 -3 15 -1 15 4 0 6 -7 10 -15 10 -8
0 -15 -2 -15 -4z"/>
<path d="M13633 24186 c-21 -21 -21 -22 -3 -45 l17 -24 23 21 c22 20 22 22 6
47 -9 14 -17 25 -19 24 -1 -1 -12 -11 -24 -23z"/>
<path d="M9340 24191 c0 -6 5 -13 10 -16 6 -3 10 -15 10 -26 0 -10 5 -19 11
-19 6 0 8 7 5 16 -3 9 -6 24 -6 35 0 10 -7 19 -15 19 -8 0 -15 -4 -15 -9z"/>
<path d="M13539 24166 c16 -19 44 -21 39 -3 -3 6 -15 14 -28 15 -21 3 -22 2
-11 -12z"/>
<path d="M13436 24141 c-3 -5 1 -14 9 -21 8 -7 15 -19 15 -26 0 -16 16 -19 25
-4 3 6 -1 13 -9 16 -9 3 -16 15 -16 25 0 20 -15 26 -24 10z"/>
<path d="M8850 24110 c0 -5 7 -10 15 -10 8 0 15 5 15 10 0 6 -7 10 -15 10 -8
0 -15 -4 -15 -10z"/>
<path d="M5015 24061 c-49 -4 -96 -10 -103 -15 -8 -4 -42 -10 -75 -11 -34 -2
-73 -8 -87 -14 -53 -21 133 -12 206 10 40 12 81 19 100 16 37 -6 74 1 74 14 0
5 -6 8 -12 7 -7 -1 -53 -4 -103 -7z"/>
<path d="M9520 24050 c0 -5 5 -10 10 -10 6 0 10 5 10 10 0 6 -4 10 -10 10 -5
0 -10 -4 -10 -10z"/>
<path d="M13520 24034 c-21 -54 0 -78 46 -54 27 15 32 30 9 30 -11 0 -14 7 -9
25 5 21 3 25 -15 25 -14 0 -25 -9 -31 -26z"/>
<path d="M9016 24031 c-3 -4 6 -18 19 -31 22 -20 28 -22 51 -11 22 9 24 14 14
26 -7 9 -21 13 -31 10 -9 -3 -20 -1 -24 5 -8 12 -22 13 -29 1z"/>
<path d="M13340 24016 c0 -10 9 -16 21 -16 24 0 21 23 -4 28 -10 2 -17 -3 -17
-12z"/>
<path d="M13746 24005 c-11 -8 -16 -21 -13 -30 9 -21 27 -19 27 3 0 10 5 23
12 30 17 17 -3 14 -26 -3z"/>
<path d="M9188 24003 c7 -3 16 -2 19 1 4 3 -2 6 -13 5 -11 0 -14 -3 -6 -6z"/>
<path d="M13427 23995 c-7 -16 8 -29 23 -20 15 9 12 35 -4 35 -8 0 -16 -7 -19
-15z"/>
<path d="M9533 23949 c1 -19 6 -32 12 -29 12 6 9 40 -4 53 -6 6 -9 -5 -8 -24z"/>
<path d="M13385 23910 c-8 -13 5 -13 25 0 13 8 13 10 -2 10 -9 0 -20 -4 -23
-10z"/>
<path d="M13685 23890 c-10 -16 18 -33 60 -36 39 -3 46 -1 41 12 -3 9 -6 19
-6 23 0 9 -90 9 -95 1z"/>
<path d="M13910 23875 c0 -9 43 -44 53 -45 5 0 7 10 5 23 -2 16 -11 23 -30 25
-16 2 -28 0 -28 -3z"/>
<path d="M13870 23859 c0 -5 5 -7 10 -4 6 3 10 8 10 11 0 2 -4 4 -10 4 -5 0
-10 -5 -10 -11z"/>
<path d="M14060 23849 c0 -5 5 -7 10 -4 6 3 10 8 10 11 0 2 -4 4 -10 4 -5 0
-10 -5 -10 -11z"/>
<path d="M13380 23750 c0 -5 7 -10 16 -10 8 0 12 5 9 10 -3 6 -10 10 -16 10
-5 0 -9 -4 -9 -10z"/>
<path d="M13530 23740 c-14 -5 -19 -8 -12 -9 7 -1 20 -8 28 -16 28 -28 46 -14
22 17 -9 11 -20 13 -38 8z"/>
<path d="M13800 23680 c0 -5 5 -10 10 -10 6 0 10 5 10 10 0 6 -4 10 -10 10 -5
0 -10 -4 -10 -10z"/>
<path d="M14104 23655 c10 -8 23 -12 28 -9 14 9 -2 24 -25 24 -21 -1 -21 -1
-3 -15z"/>
<path d="M13560 23592 c0 -12 50 -33 61 -26 16 10 -11 34 -37 34 -13 0 -24 -4
-24 -8z"/>
<path d="M13732 23441 c-14 -9 54 -21 112 -21 29 1 30 1 12 15 -21 16 -103 20
-124 6z"/>
<path d="M14217 23414 c-4 -4 -4 -10 -1 -15 6 -10 34 0 34 12 0 10 -24 12 -33
3z"/>
<path d="M13820 23260 c0 -5 5 -10 11 -10 5 0 7 5 4 10 -3 6 -8 10 -11 10 -2
0 -4 -4 -4 -10z"/>
<path d="M13680 23225 c0 -9 5 -15 11 -13 6 2 11 8 11 13 0 5 -5 11 -11 13 -6
2 -11 -4 -11 -13z"/>
<path d="M13998 23223 c-10 -2 -18 -9 -18 -15 0 -5 7 -7 16 -4 9 3 22 6 30 6
8 0 14 5 14 10 0 10 -12 11 -42 3z"/>
<path d="M20716 23222 c-7 -12 33 -92 46 -92 9 0 2 74 -9 93 -6 10 -31 9 -37
-1z"/>
<path d="M13855 23210 c3 -5 15 -10 26 -10 11 0 17 5 14 10 -3 6 -15 10 -26
10 -11 0 -17 -4 -14 -10z"/>
<path d="M2439 22520 c-20 -11 -50 -36 -67 -57 -81 -104 -207 -373 -274 -586
-17 -56 -35 -107 -39 -113 -5 -6 -52 -27 -104 -48 -113 -45 -155 -76 -155
-115 0 -31 27 -61 54 -61 10 0 34 14 53 31 39 34 100 66 108 57 3 -3 -13 -59
-35 -124 -46 -132 -120 -413 -120 -454 0 -45 54 -78 77 -47 6 6 20 62 32 124
22 117 123 490 144 533 14 28 56 45 278 115 160 49 188 67 144 87 -44 20 -235
-16 -359 -67 -18 -8 -19 -5 -12 34 3 24 16 61 27 82 11 22 33 75 49 119 16 43
34 87 39 97 6 10 29 56 51 103 71 146 133 226 165 213 8 -2 18 -18 24 -34 32
-93 75 -515 75 -750 1 -154 1 -156 -26 -195 -33 -48 -35 -69 -8 -84 36 -19 72
-8 93 28 35 59 40 163 22 472 -27 474 -51 587 -137 640 -40 24 -53 24 -99 0z"/>
<path d="M4284 22438 c-51 -61 -136 -273 -184 -459 -56 -220 -75 -284 -119
-416 -26 -77 -67 -175 -91 -216 -43 -76 -122 -164 -150 -167 -41 -6 -50 1 -65
53 -36 126 -24 408 41 900 15 116 18 186 8 212 -10 25 -61 47 -83 36 -42 -23
-139 -193 -201 -351 -32 -83 -131 -417 -171 -575 -33 -133 -79 -264 -130 -372
-53 -111 -60 -150 -29 -178 39 -35 60 -10 129 146 55 126 74 189 151 497 83
330 141 516 189 611 20 38 38 57 46 49 2 -2 -3 -58 -10 -125 -48 -407 -57
-679 -29 -806 20 -87 42 -133 87 -181 57 -60 113 -48 198 41 121 126 195 302
290 693 65 269 80 313 144 451 56 120 67 172 39 183 -26 10 -31 8 -60 -26z"/>
<path d="M5065 22413 c-104 -28 -226 -104 -307 -191 -204 -221 -293 -491 -292
-887 1 -188 12 -257 56 -345 27 -53 37 -65 57 -65 44 0 47 25 15 121 -29 88
-29 91 -29 319 1 224 2 233 32 355 56 220 163 398 304 505 203 153 361 133
424 -53 51 -151 58 -216 52 -467 -8 -330 -38 -501 -110 -640 -46 -87 -193
-232 -277 -272 -117 -56 -169 -66 -310 -60 -188 9 -345 53 -390 110 -27 34
-75 37 -85 6 -13 -39 40 -98 128 -141 107 -53 209 -78 349 -85 144 -7 213 5
325 58 182 87 352 302 397 504 60 273 79 702 39 887 -38 173 -98 264 -207 313
-52 24 -135 38 -171 28z"/>
<path d="M12260 22286 c-176 -48 -306 -129 -460 -286 -99 -100 -131 -139 -212
-250 -163 -224 -204 -423 -107 -516 36 -35 67 -27 109 26 26 32 30 46 25 70
-8 36 -38 60 -67 52 -19 -5 -21 -2 -15 27 22 107 127 279 281 457 179 207 331
302 545 339 127 22 211 8 211 -35 0 -29 -40 -71 -209 -215 -239 -204 -341
-318 -341 -382 0 -120 121 -203 444 -304 133 -42 170 -57 176 -74 12 -31 36
-47 67 -43 62 7 52 99 -16 143 -20 13 -121 52 -226 86 -196 64 -306 112 -339
148 -18 20 -18 21 -1 48 33 50 138 154 260 256 288 242 329 306 253 393 -75
86 -207 106 -378 60z"/>
<path d="M20618 22162 c-13 -34 -20 -40 -57 -46 -114 -18 -221 -84 -221 -135
0 -62 57 -75 110 -26 32 29 103 65 130 65 24 0 26 -27 5 -115 -7 -33 -25 -112
-39 -175 -14 -63 -44 -174 -66 -246 -71 -231 -83 -315 -51 -355 26 -32 35 -21
60 77 11 45 41 144 65 220 49 151 93 320 126 484 12 58 27 111 32 118 8 9 55
12 172 12 184 0 291 -11 422 -42 121 -28 154 -16 97 36 -15 14 -55 35 -88 46
-97 33 -345 70 -470 70 -106 0 -113 1 -135 25 -14 15 -35 25 -50 25 -22 0 -30
-7 -42 -38z"/>
<path d="M25336 22165 c-8 -23 9 -60 58 -123 24 -32 78 -115 121 -187 85 -142
220 -327 284 -390 43 -41 50 -59 27 -68 -7 -3 -54 -34 -102 -68 -217 -154
-383 -303 -483 -435 -58 -77 -68 -126 -30 -160 18 -17 23 -17 46 -4 14 8 31
24 37 35 32 59 105 153 164 213 60 60 372 317 429 353 21 13 27 9 100 -67 126
-128 309 -254 371 -254 25 0 46 25 36 42 -14 21 -65 61 -118 92 -107 60 -300
226 -290 248 2 7 42 40 86 73 136 99 372 295 388 321 11 18 12 26 2 36 -9 9
-22 7 -59 -11 -42 -20 -290 -196 -426 -303 -27 -21 -57 -38 -66 -38 -21 0 -60
41 -139 146 -78 104 -251 364 -287 432 -54 100 -132 162 -149 117z"/>
<path d="M10640 22121 c-42 -9 -90 -39 -90 -56 0 -7 7 -18 15 -25 26 -22 17
-30 -34 -30 -150 0 -357 -203 -419 -410 -75 -251 4 -425 223 -489 218 -64 445
-37 692 84 142 69 207 130 248 231 33 81 43 193 26 275 -18 84 -74 189 -131
246 -119 120 -383 206 -530 174z m170 -85 c272 -58 410 -198 410 -417 0 -200
-117 -305 -444 -400 -166 -49 -364 -38 -503 26 -91 42 -109 73 -98 170 22 198
105 348 256 458 46 33 120 50 181 42 39 -6 50 -3 67 14 24 24 17 48 -21 75
-33 24 -11 37 72 44 8 1 44 -5 80 -12z"/>
<path d="M28550 22114 c-129 -17 -278 -70 -384 -138 -103 -66 -225 -216 -286
-350 -66 -146 -147 -406 -175 -566 -14 -84 -15 -102 -3 -150 24 -95 65 -76
123 55 14 30 29 55 34 55 5 0 28 -16 52 -36 102 -85 355 -181 606 -229 103
-20 130 -19 142 3 29 55 -73 172 -105 121 -8 -13 -84 -5 -148 15 -22 8 -88 28
-146 46 -146 45 -308 124 -356 173 l-22 22 40 105 c23 58 43 123 47 145 7 44
18 52 306 210 388 213 482 271 533 329 80 91 8 182 -150 190 -40 2 -89 2 -108
0z m163 -85 c45 -12 47 -26 5 -66 -44 -41 -119 -87 -403 -243 -132 -73 -273
-154 -313 -181 -66 -44 -102 -59 -102 -44 0 15 69 140 118 213 115 172 260
264 490 312 103 21 153 24 205 9z m-913 -949 c0 -5 -4 -10 -10 -10 -5 0 -10 5
-10 10 0 6 5 10 10 10 6 0 10 -4 10 -10z"/>
<path d="M18951 22046 c-7 -8 -27 -59 -46 -113 -94 -277 -150 -394 -278 -580
-96 -141 -244 -253 -333 -253 -81 0 -158 75 -169 164 -6 46 8 217 36 451 16
131 9 193 -25 222 -15 13 -32 23 -38 23 -29 0 -183 -193 -298 -375 -150 -237
-241 -427 -273 -575 -19 -84 -13 -125 20 -147 32 -21 48 3 72 107 36 155 141
381 282 607 98 155 150 226 162 214 4 -4 3 -59 -2 -122 -6 -63 -15 -161 -21
-218 -12 -131 -1 -215 39 -296 41 -82 103 -139 175 -160 52 -15 60 -15 114 0
222 63 448 371 588 802 32 98 58 196 58 218 1 36 -2 40 -25 43 -14 2 -31 -4
-38 -12z"/>
<path d="M27065 21800 c-129 -17 -236 -64 -256 -113 -12 -28 -11 -32 14 -51
l26 -21 -46 -80 c-64 -113 -73 -139 -88 -234 -15 -98 -5 -161 38 -234 78 -132
322 -142 560 -21 202 101 307 207 327 328 23 144 -72 299 -233 380 -107 54
-191 65 -342 46z m250 -95 c72 -20 137 -65 183 -127 94 -126 95 -174 5 -285
-50 -63 -201 -155 -324 -198 -136 -49 -301 -33 -370 36 -43 43 -19 164 62 314
72 135 129 191 237 234 45 18 85 37 88 42 5 9 44 4 119 -16z"/>
<path d="M19565 21783 c-16 -9 -55 -35 -85 -58 -30 -23 -77 -54 -105 -68 -28
-14 -89 -64 -142 -117 -184 -184 -235 -372 -141 -515 41 -62 97 -88 188 -88
111 0 202 38 389 160 144 94 203 149 231 215 63 147 -51 363 -212 402 -21 5
-28 12 -28 30 0 29 -24 56 -48 56 -9 -1 -30 -8 -47 -17z m143 -157 c69 -36
122 -125 122 -206 0 -43 -37 -100 -96 -147 -58 -45 -232 -156 -284 -180 -126
-58 -277 -55 -310 7 -17 31 4 140 41 216 58 118 237 282 338 310 63 17 156 17
189 0z"/>
<path d="M11172 20644 c-51 -36 -95 -179 -71 -236 16 -38 42 -52 72 -37 30 16
35 25 42 84 4 27 16 77 27 109 l21 60 -23 18 c-27 22 -39 23 -68 2z"/>
<path d="M11476 20632 c-3 -5 -1 -77 5 -162 7 -109 6 -156 -2 -166 -6 -7 -32
-21 -57 -30 -164 -60 -207 -79 -238 -106 -39 -34 -45 -75 -16 -101 27 -24 55
-21 105 12 38 27 142 78 189 94 10 3 20 3 22 -2 6 -9 -28 -320 -45 -416 -5
-33 -15 -74 -21 -92 -9 -25 -9 -35 1 -47 19 -23 48 -20 65 7 31 46 86 366 86
498 0 100 3 104 95 144 152 67 230 108 304 160 73 51 111 67 111 46 0 -25 -65
-220 -103 -311 -85 -200 -103 -285 -70 -341 35 -59 89 -47 212 47 126 96 136
103 146 104 6 0 10 -36 11 -88 1 -98 16 -143 63 -190 17 -16 45 -32 64 -36 41
-8 115 14 168 48 21 14 57 38 78 52 l39 25 41 -27 c36 -23 44 -25 70 -15 37
16 61 58 41 71 -8 6 -29 10 -47 10 -43 0 -50 16 -21 48 71 76 140 211 131 254
-8 39 -37 62 -68 54 -35 -9 -145 -123 -173 -179 -12 -24 -22 -60 -22 -79 0
-40 -22 -61 -122 -117 -44 -25 -66 -32 -100 -29 -63 4 -74 32 -53 139 28 148
15 229 -37 229 -19 0 -84 -42 -252 -164 -51 -36 -83 -53 -89 -47 -6 6 16 63
61 158 73 154 87 192 122 330 25 101 25 130 1 170 -37 59 -67 52 -219 -50 -81
-54 -335 -187 -358 -187 -11 0 -14 25 -14 119 0 105 -2 121 -21 145 -20 26
-71 37 -83 18z"/>
<path d="M18994 20530 c-12 -5 -41 -31 -65 -59 -63 -73 -192 -136 -497 -243
-78 -27 -148 -48 -155 -45 -7 3 -23 42 -37 88 -19 67 -32 92 -67 127 -41 44
-43 45 -92 39 -66 -8 -127 -40 -151 -80 -32 -52 -60 -134 -71 -213 -7 -42 -17
-81 -24 -88 -7 -7 -57 -27 -112 -44 -116 -37 -193 -82 -193 -112 0 -24 18 -61
34 -72 21 -15 46 -8 69 18 27 32 177 108 190 95 5 -5 4 -42 -3 -87 -19 -139
-30 -372 -18 -407 12 -35 36 -60 50 -51 20 12 27 59 48 295 12 134 25 255 29
268 6 21 24 29 137 61 360 103 533 168 671 251 45 27 85 49 88 49 11 0 -5 -39
-62 -155 -92 -187 -182 -445 -183 -520 0 -44 31 -141 51 -157 28 -24 70 -23
103 3 49 38 20 100 -39 85 -13 -3 -27 -2 -30 4 -8 14 39 186 82 295 60 154
200 426 263 514 33 46 60 88 60 95 -1 31 -45 57 -76 46z m-854 -217 c57 -64
78 -143 43 -162 -31 -16 -223 -64 -230 -57 -18 18 44 186 85 229 35 37 63 34
102 -10z"/>
<path d="M9977 20426 c-14 -13 -35 -42 -47 -65 -11 -23 -36 -59 -54 -79 -25
-27 -35 -49 -39 -82 -9 -84 -39 -205 -54 -217 -8 -6 -38 -14 -66 -18 -29 -4
-60 -11 -69 -17 -26 -13 -22 -51 9 -82 23 -23 31 -26 73 -20 l48 6 3 -90 c4
-88 5 -93 45 -149 31 -44 55 -65 99 -88 58 -30 61 -30 214 -30 139 1 163 3
221 24 116 43 160 84 160 149 0 60 -38 67 -87 17 -36 -38 -93 -58 -208 -76
-131 -21 -312 8 -336 53 -6 11 -13 61 -16 112 -4 72 -3 94 8 103 8 7 57 23
109 37 52 14 141 41 198 60 186 63 252 109 206 143 -28 21 -33 20 -249 -45
-159 -48 -228 -63 -237 -54 -13 13 20 121 49 160 37 49 87 70 337 142 240 70
272 85 231 117 -26 20 -113 12 -260 -22 -169 -40 -185 -42 -185 -17 0 51 -60
68 -103 28z"/>
<path d="M2405 20371 c-151 -76 -247 -209 -310 -425 -63 -220 -104 -533 -84
-641 7 -41 7 -61 0 -68 -18 -18 -12 -46 13 -62 28 -19 35 -16 126 45 30 20 84
54 120 75 175 103 439 286 483 335 48 53 68 110 50 139 -16 25 -78 52 -148 64
-36 6 -65 16 -64 22 0 5 27 32 60 58 143 115 184 268 105 385 -45 66 -107 96
-211 100 -73 3 -85 1 -140 -27z m224 -64 c65 -32 85 -150 39 -228 -34 -57
-116 -137 -208 -202 -96 -68 -102 -79 -68 -114 26 -26 29 -26 78 -15 90 21
220 14 220 -12 0 -24 -99 -107 -240 -202 -80 -53 -179 -123 -221 -156 -42 -32
-82 -58 -89 -58 -10 0 -11 12 -6 48 13 88 38 366 41 442 3 93 10 125 47 219
44 112 96 181 180 238 74 50 174 68 227 40z"/>
<path d="M3766 20353 c-4 -9 4 -31 18 -52 15 -22 29 -61 35 -101 15 -95 23
-273 14 -286 -4 -5 -42 -35 -83 -66 -86 -63 -153 -132 -177 -182 -14 -31 -15
-39 -2 -73 13 -32 19 -38 44 -38 26 0 34 8 67 70 37 68 124 165 148 165 9 0
10 -22 4 -87 -10 -108 -8 -182 7 -199 16 -20 47 -17 53 4 11 35 25 168 26 242
0 41 3 85 6 97 4 13 42 47 93 82 99 67 116 84 107 106 -9 25 -57 17 -118 -21
-32 -19 -63 -32 -69 -28 -8 5 -10 30 -6 78 15 198 -31 306 -132 306 -18 0 -31
-7 -35 -17z"/>
<path d="M25256 20294 c-15 -14 -16 -26 -9 -68 10 -65 6 -323 -8 -445 -13
-113 -38 -198 -90 -308 -41 -85 -46 -107 -28 -118 28 -18 56 7 101 87 105 188
260 312 406 325 55 5 62 3 86 -20 14 -14 26 -33 26 -42 0 -58 -268 -251 -450
-325 -112 -45 -120 -49 -120 -70 0 -25 36 -35 93 -26 94 15 317 142 432 248
81 73 115 130 115 189 0 41 -4 51 -35 77 -87 77 -252 46 -404 -76 -62 -50 -81
-61 -81 -44 0 4 7 43 15 87 19 96 31 455 18 505 -11 40 -41 51 -67 24z"/>
<path d="M4363 20270 c-33 -13 -40 -50 -14 -71 12 -10 27 -19 33 -21 9 -3 6
-52 -11 -196 -31 -254 -32 -334 -3 -389 24 -47 58 -63 96 -45 13 6 58 50 102
98 144 160 217 234 236 240 44 14 67 -45 77 -200 5 -85 9 -101 27 -112 17 -12
23 -12 40 0 17 13 19 27 19 128 0 108 -2 115 -33 174 -34 63 -101 124 -135
124 -41 0 -171 -110 -247 -210 -32 -41 -69 -86 -84 -99 -24 -22 -26 -23 -32
-6 -4 10 6 98 21 194 16 97 31 215 33 262 3 86 3 86 -28 113 -32 27 -59 31
-97 16z"/>
<path d="M11043 20268 c-22 -28 -54 -134 -74 -245 -11 -64 -29 -143 -39 -177
-33 -106 -51 -206 -41 -225 25 -45 64 -49 74 -8 3 12 22 75 42 140 19 65 49
175 65 243 17 69 37 138 46 155 21 42 21 85 -1 109 -20 23 -58 26 -72 8z"/>
<path d="M26073 20232 c-26 -26 -47 -64 -67 -116 -25 -70 -26 -80 -13 -93 23
-23 61 -9 80 29 9 18 27 59 41 91 20 45 33 61 58 71 18 8 36 18 40 22 16 15
-16 34 -58 34 -38 0 -49 -5 -81 -38z"/>
<path d="M32589 20249 c-15 -6 -69 -31 -120 -57 -112 -56 -140 -90 -100 -123
13 -10 27 -19 32 -19 5 0 30 20 55 45 30 29 71 54 115 71 66 26 69 29 69 61 0
35 -7 38 -51 22z"/>
<path d="M19235 20219 c-4 -5 -4 -20 -1 -33 3 -13 2 -86 -3 -162 -11 -161 -37
-262 -106 -413 -47 -103 -54 -141 -30 -161 25 -21 50 -1 93 74 111 200 184
543 135 639 -28 55 -72 83 -88 56z"/>
<path d="M26551 20178 c-4 -12 -4 -41 1 -65 5 -23 7 -129 4 -235 -6 -238 -9
-278 -33 -453 -11 -77 -18 -146 -15 -152 6 -17 37 -16 51 0 13 17 47 185 64
321 16 131 14 130 277 190 141 33 149 56 18 56 -60 0 -119 -7 -167 -20 -116
-31 -106 -46 -106 159 0 162 -2 181 -19 200 -25 28 -64 28 -75 -1z"/>
<path d="M13465 20094 c-166 -26 -243 -60 -359 -160 -61 -53 -88 -69 -119 -74
-22 -3 -45 -13 -51 -23 -9 -14 -2 -26 47 -72 32 -30 63 -55 69 -55 6 0 51 41
99 90 113 117 159 139 373 178 161 30 176 36 176 79 0 55 -56 64 -235 37z"/>
<path d="M30267 20096 c-155 -57 -318 -267 -440 -567 l-15 -36 -80 -5 c-121
-9 -147 -32 -121 -112 22 -71 56 -116 85 -116 25 0 26 -2 19 -32 -18 -86 -18
-107 0 -114 23 -9 55 28 55 65 0 46 66 217 92 239 14 11 214 72 238 72 25 0
121 43 117 53 -5 15 -68 10 -182 -14 -110 -23 -125 -23 -125 -3 0 16 36 84
108 204 129 213 223 294 342 295 48 0 55 3 58 21 7 48 -79 77 -151 50z m-493
-685 c7 -11 -26 -91 -37 -91 -15 0 -46 44 -47 67 0 12 7 23 18 26 30 8 61 7
66 -2z"/>
<path d="M28823 20068 c-11 -13 -30 -54 -41 -93 -114 -387 -173 -566 -189
-572 -8 -3 -31 15 -54 40 -52 60 -151 133 -219 164 -109 48 -172 16 -173 -89
-2 -124 101 -256 243 -312 139 -55 429 -12 583 86 91 58 51 71 -85 28 -100
-31 -217 -59 -250 -60 -27 0 -22 22 27 118 46 90 107 259 151 417 14 49 38
125 55 167 17 42 29 87 27 100 -4 33 -47 36 -75 6z m-472 -566 c70 -45 219
-206 219 -237 0 -10 -55 -5 -101 9 -74 23 -122 51 -166 98 -48 53 -82 140 -63
163 10 13 17 12 48 -1 20 -8 48 -23 63 -32z"/>
<path d="M32524 19982 c-196 -150 -294 -250 -280 -287 9 -24 33 -18 73 18 33
29 214 175 296 237 22 18 27 29 27 66 0 24 -3 44 -7 43 -5 0 -53 -35 -109 -77z"/>
<path d="M30725 20022 c-121 -51 -260 -196 -364 -379 -29 -51 -58 -96 -64
-101 -7 -5 -38 -17 -69 -27 -118 -36 -148 -75 -148 -193 0 -59 4 -75 23 -99
19 -22 23 -36 19 -66 -4 -37 -3 -38 24 -35 22 2 31 10 38 33 27 92 124 274
161 305 16 13 206 47 316 56 l82 7 -7 -29 c-3 -16 -12 -59 -18 -96 -14 -83 0
-135 48 -177 35 -31 130 -71 168 -71 29 0 72 33 63 48 -4 5 -38 22 -75 36 -38
15 -81 40 -97 56 -25 26 -27 33 -23 92 3 41 12 76 27 100 l23 37 128 -6 128
-6 41 84 c50 102 54 147 14 179 -24 19 -37 21 -93 18 -108 -8 -169 -45 -267
-161 -31 -36 -32 -37 -103 -37 -40 0 -117 -7 -172 -16 -55 -8 -106 -13 -115
-10 -12 5 -5 20 33 74 120 169 212 266 292 306 19 10 61 20 94 24 71 8 98 32
64 58 -27 19 -121 17 -171 -4z m375 -337 c0 -10 -26 -62 -43 -87 -16 -25 -24
-28 -76 -28 -36 0 -64 6 -77 15 -18 15 -17 17 29 60 50 46 116 70 150 53 9 -5
17 -11 17 -13z m-860 -256 c0 -6 -17 -38 -37 -71 -33 -54 -38 -58 -50 -42 -26
36 -11 84 35 108 33 18 52 20 52 5z"/>
<path d="M29379 20000 c-14 -8 -16 -30 -12 -161 3 -150 9 -179 39 -179 32 0
47 49 49 159 2 70 7 115 16 130 13 20 12 24 -11 41 -27 21 -56 25 -81 10z"/>
<path d="M19888 19987 c-161 -61 -305 -218 -363 -397 -25 -79 -30 -83 -91 -76
-40 4 -55 2 -64 -9 -11 -13 -9 -20 11 -41 13 -14 39 -32 58 -40 31 -13 33 -17
27 -47 -50 -241 -66 -415 -45 -475 13 -39 47 -52 66 -26 30 41 69 194 115 451
13 76 24 83 121 83 206 1 410 89 468 202 52 101 30 243 -50 330 l-47 51 -85 4
c-54 2 -97 -1 -121 -10z m188 -96 c41 -25 69 -95 59 -147 -9 -52 -90 -135
-163 -167 -53 -23 -191 -54 -287 -64 -36 -4 -42 -1 -57 27 -18 31 -17 32 17
99 37 75 117 168 172 202 60 37 146 69 188 69 22 0 54 -9 71 -19z"/>
<path d="M25970 19949 c-9 -15 -7 -36 5 -87 13 -52 16 -89 11 -167 -13 -190
-43 -329 -93 -429 -27 -54 -24 -79 9 -74 53 7 125 185 154 380 20 137 15 335
-11 374 -19 30 -60 32 -75 3z"/>
<path d="M27410 19895 c-104 -29 -285 -93 -362 -130 -50 -23 -98 -65 -98 -84
1 -28 80 -62 186 -80 135 -23 286 -60 329 -81 60 -29 72 -52 43 -80 -47 -44
-391 -200 -442 -200 -29 0 -66 -27 -66 -49 0 -75 135 -46 419 92 164 79 225
152 187 221 -37 68 -141 113 -341 147 -140 23 -187 37 -182 52 6 18 242 94
412 134 78 18 80 19 80 48 0 28 -3 30 -40 32 -22 1 -78 -9 -125 -22z"/>
<path d="M3024 19866 c-48 -34 -84 -75 -84 -98 0 -13 -5 -39 -10 -58 -6 -19
-15 -70 -21 -114 -13 -99 1 -168 44 -233 74 -110 196 -124 332 -38 111 70 187
181 188 273 1 125 -120 224 -292 239 -36 3 -73 11 -81 18 -26 22 -55 26 -76
11z m267 -143 c119 -53 118 -132 0 -253 -64 -65 -147 -103 -215 -98 -35 3 -43
8 -59 38 -15 29 -17 49 -12 111 6 75 29 163 54 208 13 23 16 23 100 19 56 -3
103 -12 132 -25z"/>
<path d="M31698 19827 c-29 -23 -70 -66 -93 -93 -139 -176 -182 -229 -256
-319 -75 -92 -118 -162 -119 -192 0 -19 30 -43 55 -43 25 0 45 25 45 57 0 24
43 85 160 230 53 65 113 143 135 173 22 30 70 87 107 127 38 40 68 79 68 87 0
30 -48 17 -102 -27z"/>
<path d="M29232 19646 c-70 -80 -127 -185 -192 -359 -32 -82 -33 -89 -17 -105
23 -23 47 -7 67 44 43 111 155 309 201 355 51 51 57 67 37 87 -23 23 -64 14
-96 -22z"/>
<path d="M32221 19308 c-13 -7 -30 -23 -38 -35 -13 -19 -12 -24 6 -42 24 -24
73 -28 90 -7 7 8 11 32 9 53 -3 43 -25 53 -67 31z"/>
<path d="M11684 19152 c-6 -4 -58 -102 -116 -218 -117 -234 -141 -274 -191
-327 -37 -40 -71 -47 -86 -19 -5 10 -14 68 -20 130 -12 127 -34 191 -76 218
-28 18 -28 18 -103 -21 -88 -47 -159 -108 -254 -223 -38 -45 -73 -80 -78 -77
-4 3 -8 39 -8 80 0 42 -6 91 -12 110 -13 39 -72 95 -100 95 -36 0 -154 -37
-224 -69 -76 -36 -102 -35 -92 4 3 13 9 52 13 85 5 54 4 63 -17 85 -29 31 -64
32 -84 3 -12 -17 -16 -50 -16 -140 0 -81 -4 -121 -12 -128 -7 -6 -51 -32 -97
-58 -46 -26 -108 -70 -138 -97 -49 -47 -53 -54 -53 -97 0 -37 5 -50 22 -62 37
-26 54 -19 100 41 48 63 144 146 161 140 16 -6 10 -90 -14 -202 -22 -103 -24
-136 -7 -153 14 -14 28 -15 46 -4 32 21 81 240 82 368 0 50 1 52 43 72 80 40
247 102 276 102 21 0 30 -6 35 -22 11 -42 6 -172 -10 -262 -18 -102 -14 -129
21 -152 32 -21 41 -14 111 92 97 147 261 316 351 363 12 6 24 7 27 3 3 -5 10
-47 16 -95 6 -47 17 -104 25 -126 18 -51 69 -126 90 -135 73 -28 172 48 253
194 65 116 203 424 204 453 1 41 -37 70 -68 49z"/>
<path d="M4248 19046 c-103 -37 -190 -117 -229 -211 -22 -52 -23 -53 -56 -48
-65 11 -71 -39 -14 -106 21 -26 41 -57 45 -71 14 -48 76 -126 118 -151 40 -22
53 -24 173 -24 148 0 210 13 370 77 110 44 241 109 281 140 16 13 24 28 22 42
-6 39 -53 31 -229 -38 -181 -71 -278 -99 -402 -116 -119 -17 -227 0 -227 34 0
9 17 15 49 18 102 10 249 116 301 218 31 60 32 138 4 177 -51 68 -122 89 -206
59z m126 -109 c52 -38 -99 -195 -228 -237 -32 -10 -40 -10 -53 2 -12 13 -11
22 10 69 30 68 107 139 174 162 60 20 75 20 97 4z"/>
<path d="M12148 19030 c-114 -15 -216 -88 -259 -185 -32 -73 -51 -163 -44
-208 10 -58 62 -153 102 -186 18 -15 63 -38 101 -52 60 -22 83 -24 222 -24
251 1 382 45 354 119 -13 34 -38 36 -145 14 -122 -24 -314 -29 -401 -10 -69
16 -119 48 -132 85 -5 14 -8 29 -5 31 3 3 25 -2 49 -10 70 -25 174 -15 253 24
132 65 187 127 187 209 -1 72 -59 158 -124 183 -38 14 -100 18 -158 10z m141
-126 c92 -37 48 -108 -102 -168 -91 -36 -158 -44 -192 -22 -33 21 -32 44 4 93
68 94 193 136 290 97z"/>
<path d="M2498 19009 c-19 -10 -24 -48 -9 -64 4 -6 25 -50 46 -99 l38 -90 -34
-28 c-19 -16 -59 -48 -89 -71 -69 -53 -97 -105 -80 -147 12 -30 102 -120 119
-120 48 0 53 38 12 86 -19 21 -28 40 -24 53 7 29 112 126 124 114 25 -25 39
-216 19 -268 -8 -20 -6 -29 10 -45 26 -26 66 -26 80 -1 15 30 12 203 -6 281
-8 38 -14 77 -12 86 2 8 33 28 69 44 112 47 221 62 288 39 l31 -11 -6 -62 c-5
-53 -3 -65 16 -88 41 -53 74 -33 90 53 11 58 52 129 74 129 13 0 26 -52 42
-175 20 -156 121 -285 223 -285 57 0 91 22 138 86 42 60 56 92 83 192 42 159
47 312 10 332 -30 16 -60 -15 -60 -62 0 -56 -27 -196 -51 -265 -54 -159 -138
-223 -201 -155 -33 35 -34 38 -62 231 -25 167 -35 197 -79 220 -37 20 -73 7
-125 -45 -25 -24 -49 -44 -53 -44 -5 0 -28 10 -51 23 -36 19 -58 22 -138 21
-83 -1 -106 -5 -177 -34 -45 -18 -88 -30 -95 -27 -7 2 -23 39 -36 82 -31 106
-73 144 -124 114z"/>
<path d="M30603 12524 c-8 -20 34 -104 52 -104 17 0 31 19 39 53 5 22 3 27
-13 27 -11 0 -23 4 -26 10 -3 5 -15 15 -26 20 -15 9 -21 7 -26 -6z"/>
<path d="M27479 9729 c-10 -6 -7 -9 14 -9 29 0 35 5 14 13 -8 3 -20 1 -28 -4z"/>
<path d="M27865 9731 c-7 -12 12 -24 25 -16 11 7 4 25 -10 25 -5 0 -11 -4 -15
-9z"/>
<path d="M28118 9663 c7 -3 16 -2 19 1 4 3 -2 6 -13 5 -11 0 -14 -3 -6 -6z"/>
<path d="M27635 9600 c3 -5 15 -10 26 -10 11 0 17 5 14 10 -3 6 -15 10 -26 10
-11 0 -17 -4 -14 -10z"/>
<path d="M27465 9560 c3 -5 13 -10 21 -10 8 0 14 5 14 10 0 6 -9 10 -21 10
-11 0 -17 -4 -14 -10z"/>
<path d="M27528 9563 c7 -3 16 -2 19 1 4 3 -2 6 -13 5 -11 0 -14 -3 -6 -6z"/>
<path d="M27887 9510 c-70 -6 -79 -23 -14 -26 30 -2 47 1 47 8 0 9 3 9 12 0
16 -16 28 -15 28 2 0 20 -7 22 -73 16z"/>
<path d="M27610 9500 c8 -5 22 -10 30 -10 13 0 13 1 0 10 -8 5 -22 10 -30 10
-13 0 -13 -1 0 -10z"/>
<path d="M27772 9501 c4 -13 18 -16 19 -4 0 4 -5 9 -11 12 -7 2 -11 -2 -8 -8z"/>
<path d="M28069 9480 c25 -22 41 -26 41 -10 0 11 -33 30 -52 30 -7 -1 -3 -9
11 -20z"/>
<path d="M20877 7324 c-9 -10 2 -24 19 -24 8 0 14 7 14 15 0 15 -21 21 -33 9z"/>
</g>
</svg>
