<?xml version="1.0" standalone="no"?>
<!DOCTYPE svg PUBLIC "-//W3C//DTD SVG 20010904//EN"
 "http://www.w3.org/TR/2001/REC-SVG-20010904/DTD/svg10.dtd">
<svg version="1.0" xmlns="http://www.w3.org/2000/svg"
 width="3264.000000pt" height="2448.000000pt" viewBox="0 0 3264.000000 2448.000000"
 preserveAspectRatio="xMidYMid meet">
<metadata>
Created by potrace 1.12, written by Peter Selinger 2001-2015
</metadata>
<g transform="translate(0.000000,2448.000000) scale(0.100000,-0.100000)"
fill="#000000" stroke="none">
<path d="M7297 24424 c-9 -10 2 -24 19 -24 8 0 14 7 14 15 0 15 -21 21 -33 9z"/>
<path d="M7374 24415 c-7 -18 50 -84 62 -73 3 4 2 24 -3 45 -6 28 -14 39 -31
41 -14 2 -25 -3 -28 -13z"/>
<path d="M7521 24418 c14 -7 33 -19 43 -27 9 -7 16 -10 16 -5 -1 20 -18 34
-50 39 -34 5 -34 5 -9 -7z"/>
<path d="M7563 24353 c-19 -7 -16 -21 7 -33 18 -9 20 -8 20 15 0 25 -4 28 -27
18z"/>
<path d="M7110 24289 c0 -5 5 -7 10 -4 6 3 10 8 10 11 0 2 -4 4 -10 4 -5 0
-10 -5 -10 -11z"/>
<path d="M7571 24286 c-8 -10 -9 -16 -1 -21 13 -8 30 3 30 21 0 18 -14 18 -29
0z"/>
<path d="M7355 24210 c-3 -5 3 -10 14 -10 12 0 21 5 21 10 0 6 -6 10 -14 10
-8 0 -18 -4 -21 -10z"/>
<path d="M12210 24206 c0 -8 -5 -16 -10 -18 -6 -2 -8 -17 -4 -36 4 -22 10 -30
17 -23 5 5 16 7 23 4 18 -7 17 17 -1 40 -7 11 -11 25 -8 33 3 8 0 14 -6 14 -6
0 -11 -6 -11 -14z"/>
<path d="M7544 24169 c-8 -13 24 -41 41 -36 5 2 10 12 10 23 0 22 -39 32 -51
13z"/>
<path d="M7650 24160 c0 -5 4 -10 9 -10 6 0 13 5 16 10 3 6 -1 10 -9 10 -9 0
-16 -4 -16 -10z"/>
<path d="M7040 24125 c-11 -20 -11 -28 -1 -38 15 -15 31 6 31 41 0 29 -13 28
-30 -3z"/>
<path d="M7700 24106 c0 -19 22 -35 62 -46 l33 -10 -30 25 c-16 13 -35 29 -42
35 -16 14 -23 13 -23 -4z"/>
<path d="M7600 24060 c0 -5 7 -10 16 -10 8 0 12 5 9 10 -3 6 -10 10 -16 10 -5
0 -9 -4 -9 -10z"/>
<path d="M5140 24051 c0 -11 61 -34 68 -26 8 8 -31 34 -50 35 -10 0 -18 -4
-18 -9z"/>
<path d="M5246 24053 c-11 -11 -6 -23 9 -23 8 0 15 4 15 9 0 13 -16 22 -24 14z"/>
<path d="M7335 24010 c-16 -7 -11 -9 20 -9 29 -1 36 2 25 9 -17 11 -19 11 -45
0z"/>
<path d="M12257 23983 c-4 -10 -12 -26 -19 -35 -11 -15 -9 -22 13 -44 27 -26
32 -26 79 4 2 2 -2 7 -9 11 -7 5 -14 24 -15 42 -1 26 -6 35 -22 37 -14 2 -24
-4 -27 -15z"/>
<path d="M7225 23930 c-4 -6 23 -10 75 -10 52 0 79 4 75 10 -3 6 -37 10 -75
10 -38 0 -72 -4 -75 -10z"/>
<path d="M7415 23930 c-8 -13 55 -13 75 0 11 7 4 10 -27 10 -23 0 -45 -4 -48
-10z"/>
<path d="M7180 23920 c-9 -6 -10 -10 -3 -10 6 0 15 5 18 10 8 12 4 12 -15 0z"/>
<path d="M7830 23906 c0 -13 50 -29 60 -19 7 6 -31 33 -47 33 -7 0 -13 -6 -13
-14z"/>
<path d="M7916 23865 c4 -8 8 -15 10 -15 2 0 4 7 4 15 0 8 -4 15 -10 15 -5 0
-7 -7 -4 -15z"/>
<path d="M12070 23871 c0 -12 29 -23 42 -15 6 4 5 10 -3 15 -18 11 -39 11 -39
0z"/>
<path d="M7430 23841 c0 -11 59 -26 67 -17 9 9 2 12 -34 19 -18 4 -33 2 -33
-2z"/>
<path d="M12325 23830 c-7 -12 18 -24 37 -18 8 3 5 9 -9 16 -14 8 -24 9 -28 2z"/>
<path d="M7907 23823 c-12 -11 -8 -22 14 -33 26 -15 34 -7 19 19 -11 22 -22
26 -33 14z"/>
<path d="M12088 23763 c12 -8 22 -23 22 -32 1 -14 3 -13 15 2 20 27 8 47 -29
46 l-31 0 23 -16z"/>
<path d="M12275 23740 c-10 -16 2 -27 35 -32 37 -6 40 14 5 30 -31 14 -32 15
-40 2z"/>
<path d="M7910 23717 c0 -22 30 -57 50 -57 30 0 32 15 5 44 -25 27 -55 35 -55
13z"/>
<path d="M7840 23675 c0 -8 7 -15 15 -15 8 0 15 7 15 15 0 8 -7 15 -15 15 -8
0 -15 -7 -15 -15z"/>
<path d="M8006 23655 c4 -8 8 -15 10 -15 2 0 4 7 4 15 0 8 -4 15 -10 15 -5 0
-7 -7 -4 -15z"/>
<path d="M10640 23640 c0 -5 7 -10 15 -10 8 0 15 5 15 10 0 6 -7 10 -15 10 -8
0 -15 -4 -15 -10z"/>
<path d="M8015 23620 c-4 -6 -3 -16 3 -22 6 -6 12 -6 17 2 4 6 3 16 -3 22 -6
6 -12 6 -17 -2z"/>
<path d="M10694 23554 c3 -9 6 -18 6 -20 0 -2 7 -4 15 -4 18 0 19 12 3 28 -17
17 -31 15 -24 -4z"/>
<path d="M7906 23525 c28 -28 49 -33 40 -9 -3 9 -6 20 -6 25 0 5 -13 9 -30 9
l-29 0 25 -25z"/>
<path d="M8010 23525 c0 -17 6 -25 18 -25 9 0 32 -9 51 -21 18 -11 36 -17 39
-14 12 12 -15 40 -42 43 -15 2 -32 12 -39 23 -16 26 -27 24 -27 -6z"/>
<path d="M8022 23408 c3 -7 13 -15 22 -16 12 -3 17 1 14 10 -3 7 -13 15 -22
16 -12 3 -17 -1 -14 -10z"/>
<path d="M8120 23412 c0 -5 12 -13 28 -16 15 -4 35 -9 45 -12 9 -3 17 -1 17 4
0 5 -10 12 -22 15 -13 3 -33 9 -45 12 -14 4 -23 3 -23 -3z"/>
<path d="M7836 23371 c-4 -5 -2 -12 3 -15 5 -4 12 -2 15 3 4 5 2 12 -3 15 -5
4 -12 2 -15 -3z"/>
<path d="M7897 23368 c-8 -5 -3 -8 13 -8 14 0 35 -3 48 -6 12 -4 22 -2 22 4 0
12 -66 21 -83 10z"/>
<path d="M8160 23310 c0 -15 5 -20 18 -18 9 2 17 10 17 18 0 8 -8 16 -17 18
-13 2 -18 -3 -18 -18z"/>
<path d="M12154 23272 c8 -13 116 -15 116 -2 0 6 -26 10 -61 10 -33 0 -58 -4
-55 -8z"/>
<path d="M8176 23242 c-8 -14 32 -52 54 -52 11 0 20 -4 20 -10 0 -5 5 -10 10
-10 21 0 9 30 -15 36 -14 3 -30 15 -36 25 -10 20 -24 25 -33 11z"/>
<path d="M7875 23220 c3 -5 8 -10 11 -10 2 0 4 5 4 10 0 6 -5 10 -11 10 -5 0
-7 -4 -4 -10z"/>
<path d="M7925 23132 c-3 -3 9 -12 26 -19 41 -17 49 -10 10 10 -16 8 -32 12
-36 9z"/>
<path d="M12368 23123 c12 -2 32 -2 45 0 12 2 2 4 -23 4 -25 0 -35 -2 -22 -4z"/>
<path d="M8225 23088 c9 -44 17 -50 49 -42 35 8 33 21 -4 29 -21 5 -30 13 -30
26 0 10 -5 19 -11 19 -7 0 -8 -12 -4 -32z"/>
<path d="M8345 23051 c-3 -5 -1 -12 5 -16 5 -3 10 1 10 9 0 18 -6 21 -15 7z"/>
<path d="M12570 23050 c0 -5 5 -10 10 -10 6 0 10 5 10 10 0 6 -4 10 -10 10 -5
0 -10 -4 -10 -10z"/>
<path d="M12208 23043 c7 -3 16 -2 19 1 4 3 -2 6 -13 5 -11 0 -14 -3 -6 -6z"/>
<path d="M12340 23035 c-7 -8 -19 -15 -26 -15 -7 0 -28 -9 -46 -20 l-33 -20
62 1 c42 1 64 6 67 15 3 8 14 14 25 14 30 0 51 11 51 26 0 17 -5 17 -30 2 -15
-10 -22 -10 -32 0 -16 16 -23 15 -38 -3z"/>
<path d="M8375 23020 c4 -6 11 -8 16 -5 14 9 11 15 -7 15 -8 0 -12 -5 -9 -10z"/>
<path d="M12510 23000 c0 -5 7 -10 16 -10 8 0 12 5 9 10 -3 6 -10 10 -16 10
-5 0 -9 -4 -9 -10z"/>
<path d="M8195 22960 c-3 -5 1 -10 9 -10 9 0 16 5 16 10 0 6 -4 10 -9 10 -6 0
-13 -4 -16 -10z"/>
<path d="M8256 22962 c-3 -5 7 -21 22 -37 23 -25 27 -27 30 -11 2 9 -4 26 -14
37 -18 20 -30 24 -38 11z"/>
<path d="M8070 22931 c0 -22 25 -39 38 -27 8 8 -10 38 -26 44 -7 2 -12 -6 -12
-17z"/>
<path d="M12157 22924 c-3 -4 -2 -16 4 -26 8 -15 14 -17 22 -9 8 8 7 15 -4 26
-8 9 -18 13 -22 9z"/>
<path d="M8006 22904 c-20 -11 -31 -13 -39 -5 -15 15 -27 14 -27 -2 0 -7 17
-19 37 -26 33 -12 38 -12 50 5 11 15 18 45 11 44 -2 -1 -16 -8 -32 -16z"/>
<path d="M8352 22848 c2 -12 11 -24 21 -26 24 -5 22 25 -4 38 -18 10 -20 9
-17 -12z"/>
<path d="M12480 22850 c0 -5 7 -10 15 -10 8 0 15 5 15 10 0 6 -7 10 -15 10 -8
0 -15 -4 -15 -10z"/>
<path d="M8025 22830 c-4 -6 22 -10 72 -10 54 0 73 3 63 10 -20 13 -127 13
-135 0z"/>
<path d="M7943 22811 c-1 -11 8 -23 22 -29 17 -8 25 -21 27 -44 4 -38 22 -41
26 -3 2 16 -2 27 -12 31 -9 3 -16 14 -16 25 0 10 -9 23 -19 29 -26 13 -27 13
-28 -9z"/>
<path d="M8330 22790 c8 -5 20 -10 25 -10 6 0 3 5 -5 10 -8 5 -19 10 -25 10
-5 0 -3 -5 5 -10z"/>
<path d="M8502 22783 c2 -10 11 -19 21 -21 24 -5 21 15 -4 28 -18 10 -20 9
-17 -7z"/>
<path d="M12380 22750 c0 -5 5 -10 10 -10 6 0 10 5 10 10 0 6 -4 10 -10 10 -5
0 -10 -4 -10 -10z"/>
<path d="M12474 22745 c3 -9 6 -19 6 -21 0 -2 7 -4 16 -4 22 0 13 34 -10 38
-14 3 -17 0 -12 -13z"/>
<path d="M8068 22673 c7 -3 16 -2 19 1 4 3 -2 6 -13 5 -11 0 -14 -3 -6 -6z"/>
<path d="M8170 22670 c0 -5 7 -10 15 -10 8 0 15 5 15 10 0 6 -7 10 -15 10 -8
0 -15 -4 -15 -10z"/>
<path d="M12635 22649 c-4 -6 -5 -13 -2 -16 7 -7 27 6 27 18 0 12 -17 12 -25
-2z"/>
<path d="M12670 22655 c0 -2 14 -12 31 -21 26 -13 33 -13 40 -3 4 7 5 17 3 21
-5 8 -74 11 -74 3z"/>
<path d="M8392 22618 c3 -7 13 -15 22 -16 12 -3 17 1 14 10 -3 7 -13 15 -22
16 -12 3 -17 -1 -14 -10z"/>
<path d="M8523 22622 c-18 -12 4 -38 39 -46 35 -8 44 8 18 34 -21 21 -37 25
-57 12z"/>
<path d="M12340 22565 c7 -9 15 -13 17 -11 7 7 -7 26 -19 26 -6 0 -6 -6 2 -15z"/>
<path d="M12576 22550 c11 -11 37 -14 74 -10 24 2 24 3 -5 10 -45 12 -81 12
-69 0z"/>
<path d="M12750 22528 c0 -10 16 -14 55 -14 70 0 68 20 -3 24 -38 2 -52 0 -52
-10z"/>
<path d="M8637 22513 c-12 -11 -8 -21 13 -26 12 -3 18 -11 15 -19 -4 -9 4 -19
20 -26 15 -7 25 -20 25 -32 0 -11 5 -20 11 -20 15 0 1 42 -22 62 -11 9 -18 22
-17 28 4 14 -36 43 -45 33z"/>
<path d="M13082 22504 c1 -9 9 -19 16 -22 9 -3 13 2 10 14 -1 9 -9 19 -16 22
-9 3 -13 -2 -10 -14z"/>
<path d="M8552 22444 c9 -9 21 -13 28 -9 14 9 -5 25 -30 25 -12 0 -12 -3 2
-16z"/>
<path d="M32448 22386 c-10 -7 -18 -16 -18 -20 0 -12 21 -6 42 14 25 23 5 28
-24 6z"/>
<path d="M32207 22325 c-14 -19 -15 -25 -4 -25 14 0 47 31 47 43 0 16 -26 4
-43 -18z"/>
<path d="M8792 22313 c2 -10 11 -19 21 -21 24 -5 21 15 -4 28 -18 10 -20 9
-17 -7z"/>
<path d="M8883 22199 c9 -5 17 -19 17 -29 0 -11 5 -20 10 -20 6 0 10 6 10 14
0 18 -27 46 -43 46 -7 0 -4 -5 6 -11z"/>
<path d="M8660 22155 c0 -20 32 -35 74 -35 50 0 45 13 -11 33 -58 21 -63 21
-63 2z"/>
<path d="M8602 22151 c4 -13 18 -16 19 -4 0 4 -5 9 -11 12 -7 2 -11 -2 -8 -8z"/>
<path d="M12820 22130 c0 -5 11 -10 25 -10 14 0 25 5 25 10 0 6 -11 10 -25 10
-14 0 -25 -4 -25 -10z"/>
<path d="M12580 22039 c0 -5 5 -7 10 -4 6 3 10 8 10 11 0 2 -4 4 -10 4 -5 0
-10 -5 -10 -11z"/>
<path d="M12731 22041 c-7 -5 -9 -11 -4 -14 13 -8 93 4 93 14 0 12 -71 11 -89
0z"/>
<path d="M31311 21774 c0 -11 3 -14 6 -6 3 7 2 16 -1 19 -3 4 -6 -2 -5 -13z"/>
<path d="M31115 21640 c-3 -5 1 -10 9 -10 8 0 18 5 21 10 3 6 -1 10 -9 10 -8
0 -18 -4 -21 -10z"/>
<path d="M31305 21560 c-3 -5 -2 -10 4 -10 5 0 13 5 16 10 3 6 2 10 -4 10 -5
0 -13 -4 -16 -10z"/>
<path d="M31033 21476 c-32 -28 -25 -46 11 -27 13 8 28 11 33 8 15 -9 36 10
30 27 -9 23 -42 20 -74 -8z"/>
<path d="M26896 20961 c-11 -12 -41 -85 -69 -163 -133 -383 -158 -502 -119
-564 25 -39 55 -48 84 -24 21 17 22 21 10 64 -6 26 -12 61 -12 78 0 47 36 165
95 318 93 237 104 302 54 308 -15 2 -32 -5 -43 -17z"/>
<path d="M8820 20630 c-145 -13 -198 -50 -187 -131 7 -53 31 -88 74 -105 81
-34 140 7 65 45 -85 44 -78 72 25 91 86 17 267 7 388 -20 125 -28 270 -100
367 -184 91 -78 181 -207 230 -330 30 -74 32 -90 32 -191 0 -127 -16 -194 -69
-283 -110 -188 -430 -394 -765 -492 -139 -41 -229 -54 -375 -54 -141 0 -250
21 -349 68 -70 32 -165 104 -209 158 -103 126 -168 388 -138 558 47 261 210
526 377 610 40 20 68 26 160 30 91 4 116 9 133 24 48 43 5 116 -68 116 -22 0
-60 -6 -83 -14 -24 -8 -64 -17 -90 -21 -119 -16 -248 -117 -353 -275 -82 -122
-130 -227 -162 -349 -21 -82 -24 -111 -20 -201 7 -135 43 -276 104 -399 39
-80 61 -109 147 -196 82 -82 115 -109 176 -138 285 -139 675 -103 1089 98 285
139 476 309 541 482 87 231 55 464 -93 689 -195 296 -549 450 -947 414z"/>
<path d="M29465 20618 c-115 -8 -352 -58 -554 -119 -109 -33 -167 -76 -146
-109 11 -18 71 -11 129 16 80 37 311 101 451 125 116 20 283 24 301 7 16 -17
-19 -60 -108 -135 -221 -187 -636 -569 -786 -722 -106 -109 -202 -243 -202
-282 0 -86 198 -138 415 -110 218 29 739 166 877 231 126 59 132 128 6 75
-121 -51 -205 -77 -454 -140 -291 -74 -386 -89 -532 -83 -120 5 -185 27 -190
64 -3 24 52 97 157 209 71 75 598 560 774 713 112 97 180 175 175 200 -10 52
-117 72 -313 60z"/>
<path d="M10747 20592 c-19 -21 -47 -95 -47 -125 0 -11 -4 -34 -10 -51 -5 -17
-23 -92 -40 -166 -40 -178 -189 -610 -256 -741 -15 -30 -45 -80 -67 -113 -33
-49 -38 -64 -33 -94 3 -20 14 -44 24 -55 26 -26 40 -18 162 98 109 103 203
156 342 195 117 32 403 37 411 6 1 -4 -145 -59 -326 -122 -180 -62 -340 -119
-355 -126 -32 -16 -38 -39 -21 -80 11 -28 15 -30 53 -26 23 3 201 57 396 121
195 64 395 127 444 141 105 29 121 41 112 89 -11 61 -35 72 -216 106 -213 39
-297 46 -396 31 -115 -17 -206 -46 -318 -102 -54 -27 -100 -47 -102 -45 -2 2
7 30 22 63 49 111 125 319 201 549 41 127 91 259 109 294 43 81 44 111 3 145
-36 30 -69 33 -92 8z"/>
<path d="M14929 20161 c-21 -22 -29 -39 -29 -66 0 -51 25 -95 54 -95 37 0 76
37 76 71 0 17 5 39 11 50 8 16 7 26 -6 45 -22 34 -68 32 -106 -5z"/>
<path d="M25670 20113 c-85 -14 -278 -69 -364 -103 -98 -39 -137 -59 -276
-145 -84 -52 -172 -141 -168 -169 5 -37 46 -32 92 11 73 69 205 151 321 200
127 54 419 130 430 113 7 -11 -10 -54 -37 -94 -25 -36 -106 -128 -270 -305
-136 -149 -150 -166 -146 -192 7 -49 113 -89 239 -89 138 0 394 89 542 189 83
56 94 68 79 83 -7 7 -45 -6 -119 -40 -207 -95 -389 -138 -513 -123 -57 7 -100
25 -100 41 0 6 47 60 104 122 164 177 240 274 287 365 36 70 41 87 33 111 -8
24 -14 27 -59 28 -28 1 -61 0 -75 -3z"/>
<path d="M27630 19958 c-90 -34 -74 -124 23 -122 114 3 382 26 461 40 99 17
126 27 126 49 0 18 13 17 -241 15 -113 -1 -224 3 -245 8 -70 18 -99 20 -124
10z"/>
<path d="M18465 19849 c-44 -17 -129 -54 -190 -83 -230 -111 -416 -329 -454
-533 -7 -36 -5 -48 15 -77 48 -70 104 -49 104 39 0 31 13 68 45 133 38 76 59
103 143 183 81 79 114 102 193 141 159 77 220 101 232 89 6 -6 16 -61 24 -123
10 -88 19 -126 43 -175 43 -87 76 -108 165 -108 65 0 80 4 179 52 129 64 200
110 277 180 31 29 62 53 69 53 37 0 -46 -235 -163 -465 -50 -97 -119 -199
-178 -261 l-30 -30 -77 12 c-179 28 -366 39 -682 39 -281 -1 -348 -4 -495 -24
-180 -24 -400 -62 -500 -86 -96 -23 -332 -72 -430 -89 -235 -41 -286 -42
-1475 -26 -878 11 -1123 20 -1895 70 -251 16 -429 21 -945 28 -1011 13 -1705
3 -1900 -28 -68 -11 -152 -46 -158 -67 -2 -6 10 -26 27 -45 28 -32 30 -33 63
-20 112 46 386 63 1019 65 800 3 1714 -18 2234 -53 469 -30 827 -41 2013 -58
752 -10 897 -1 1325 89 106 22 257 53 335 70 355 73 700 94 1187 71 160 -8
292 -16 295 -19 2 -2 -53 -61 -122 -131 -69 -70 -131 -136 -136 -148 -15 -28
0 -47 37 -47 35 0 82 35 219 168 51 49 99 93 106 97 20 11 147 165 193 233
100 149 217 412 267 595 20 74 36 149 36 166 0 38 -39 98 -66 102 -19 3 -130
-75 -259 -182 -84 -70 -214 -142 -329 -182 -47 -17 -122 -18 -132 -2 -4 6 -11
76 -15 154 -8 158 -20 199 -74 240 -39 30 -42 30 -140 -7z"/>
<path d="M26873 19850 c-46 -11 -129 -35 -185 -54 -57 -19 -143 -43 -191 -52
-99 -19 -147 -51 -147 -98 0 -56 71 -56 168 1 36 22 342 133 452 165 42 12 60
26 60 44 0 19 -55 17 -157 -6z"/>
<path d="M16905 19831 c-161 -21 -378 -168 -435 -294 -55 -120 21 -233 163
-244 180 -15 392 90 499 245 29 42 32 44 45 27 7 -11 13 -26 13 -35 0 -32 40
-133 66 -167 25 -33 90 -73 118 -73 31 0 25 20 -19 70 -24 27 -47 63 -51 78
-3 15 -8 34 -11 42 -3 8 -13 70 -23 138 -15 109 -20 126 -45 152 -22 23 -38
30 -67 30 -21 0 -49 7 -63 16 -29 19 -109 25 -190 15z m183 -157 c25 -16 31
-50 7 -41 -8 4 -31 -10 -55 -33 -109 -104 -170 -140 -287 -171 -84 -21 -139
-24 -178 -9 -25 10 -26 10 -9 42 45 87 187 188 314 223 64 17 173 12 208 -11z"/>
<path d="M16097 19760 c-59 -18 -217 -115 -352 -216 -171 -128 -206 -148 -250
-140 -63 12 -84 -53 -39 -121 15 -23 21 -25 66 -20 74 9 119 36 258 152 133
111 230 173 325 206 78 27 101 20 116 -33 12 -47 8 -94 -22 -247 -24 -118 -20
-172 14 -223 13 -18 32 -34 44 -36 20 -3 21 1 21 60 0 35 7 92 17 128 44 166
49 315 12 386 -8 16 -36 49 -61 72 -48 44 -83 52 -149 32z"/>
<path d="M14896 19591 c-15 -17 -18 -37 -15 -133 2 -98 -2 -136 -34 -290 -39
-185 -39 -218 -5 -242 33 -23 45 -9 67 77 12 45 35 132 51 193 17 61 30 129
30 151 0 22 9 66 20 99 13 37 19 71 15 91 -11 62 -92 95 -129 54z"/>
<path d="M27511 19554 c-17 -14 -31 -32 -31 -40 0 -29 41 -35 253 -36 208 -1
319 11 333 34 15 25 -30 35 -178 42 -84 4 -171 11 -193 16 -22 5 -66 10 -97
10 -46 0 -62 -5 -87 -26z"/>
<path d="M25671 18181 c-51 -14 -95 -63 -94 -106 2 -54 27 -87 66 -83 29 3 32
6 35 41 3 30 9 40 29 48 13 5 111 12 217 16 162 5 204 3 271 -11 44 -10 84
-22 89 -27 14 -12 -9 -34 -72 -70 -115 -64 -219 -138 -225 -159 -7 -28 21 -56
70 -69 21 -6 136 -20 256 -31 241 -22 273 -30 217 -54 -20 -8 -92 -29 -160
-46 -258 -66 -620 -220 -620 -264 0 -25 28 -39 69 -32 21 3 88 26 149 51 123
49 262 95 452 148 144 41 221 69 268 97 27 17 32 26 32 58 0 21 -6 46 -13 56
-16 22 -210 62 -372 77 -140 12 -165 17 -165 27 0 5 37 28 81 51 113 60 149
94 149 138 0 41 -13 69 -39 83 -11 5 -63 21 -118 36 -88 23 -120 26 -318 30
-121 2 -235 -1 -254 -5z"/>
<path d="M8090 17814 c-239 -29 -417 -92 -572 -200 -89 -63 -245 -210 -317
-299 -171 -213 -267 -470 -278 -750 -13 -339 92 -569 338 -738 97 -66 249
-118 434 -148 113 -19 434 -16 560 5 325 54 653 172 887 319 429 271 672 606
720 993 48 396 -235 693 -709 745 -111 12 -253 7 -399 -13 l-82 -11 -58 33
c-95 52 -142 61 -324 65 -91 2 -181 1 -200 -1z m255 -104 c113 -16 135 -20
135 -30 0 -4 -44 -23 -97 -41 -116 -38 -160 -59 -228 -109 -61 -45 -79 -66
-70 -81 12 -18 72 -5 175 39 86 37 194 70 381 116 37 9 132 21 213 28 408 34
714 -89 834 -334 50 -101 67 -191 58 -297 -18 -189 -74 -350 -172 -486 -181
-254 -456 -465 -765 -589 -460 -183 -928 -215 -1313 -88 -218 71 -399 273
-451 502 -22 99 -23 296 -2 416 31 175 108 366 192 479 97 130 250 265 385
339 205 112 500 167 725 136z"/>
<path d="M18152 17773 c-21 -8 -32 -38 -54 -150 -18 -92 -21 -154 -24 -418 -5
-415 -27 -657 -103 -1125 -16 -96 -32 -206 -36 -243 -4 -38 -16 -101 -26 -139
-12 -43 -16 -75 -11 -80 5 -5 26 -8 47 -6 63 5 75 31 96 215 10 87 23 190 29
228 79 505 99 700 110 1080 8 284 9 305 35 390 37 121 44 209 20 235 -17 19
-54 25 -83 13z"/>
<path d="M28930 17526 c-165 -30 -379 -120 -453 -193 -21 -20 -47 -54 -58 -74
-49 -97 -19 -129 295 -305 38 -22 71 -44 73 -51 2 -6 -22 -28 -54 -49 -147
-93 -286 -205 -436 -353 -234 -229 -325 -387 -315 -545 14 -216 185 -315 492
-285 449 43 929 262 1016 463 42 96 34 192 -29 331 -58 127 -221 292 -405 409
l-79 50 24 19 c13 10 46 30 74 44 27 14 109 64 180 111 72 47 146 95 165 107
19 12 59 37 89 55 56 35 91 80 91 117 0 42 -53 34 -100 -17 -35 -38 -50 -38
-50 -1 0 41 -88 121 -165 150 -76 29 -245 37 -355 17z m309 -115 c50 -20 171
-107 171 -122 0 -7 -20 -21 -230 -149 -74 -46 -161 -100 -193 -121 -32 -22
-66 -39 -75 -39 -32 0 -334 167 -380 211 -27 25 -28 39 -2 71 39 50 261 140
415 168 85 15 233 6 294 -19z m-268 -607 c250 -168 381 -316 424 -481 29 -111
2 -197 -89 -280 -184 -169 -665 -313 -948 -284 -209 21 -293 107 -268 279 12
85 44 150 132 267 103 136 307 327 456 428 31 22 75 53 97 71 50 40 75 55 96
56 9 0 54 -25 100 -56z"/>
<path d="M16233 17491 c-163 -41 -320 -279 -403 -611 -20 -79 -35 -120 -49
-131 -11 -9 -51 -22 -88 -29 -137 -26 -303 -105 -303 -145 0 -8 11 -22 24 -30
27 -18 52 -11 106 29 55 42 246 97 245 71 -1 -5 -22 -75 -48 -155 -52 -158
-57 -213 -22 -218 46 -7 102 122 161 371 8 34 22 41 104 56 36 6 164 29 285
50 258 47 375 64 381 58 2 -2 -19 -16 -48 -31 -83 -43 -183 -124 -227 -183
-64 -86 -85 -151 -86 -265 0 -93 1 -97 31 -134 66 -82 160 -103 285 -64 216
67 395 275 493 573 20 59 36 114 36 122 0 24 19 18 24 -7 2 -13 9 -60 16 -106
6 -45 18 -99 26 -120 37 -87 138 -151 174 -107 10 12 5 25 -23 72 -19 32 -40
76 -46 98 -15 52 -41 274 -41 345 0 68 -19 100 -59 100 -41 0 -66 -27 -86 -90
-45 -142 -187 -451 -254 -549 -79 -116 -221 -235 -313 -263 -32 -9 -45 -9 -73
5 -51 24 -68 66 -63 152 9 136 99 272 231 349 26 16 102 50 168 77 168 68 181
76 177 102 -3 20 -9 22 -58 21 -133 -2 -580 -58 -825 -104 -162 -31 -185 -34
-185 -23 0 22 120 354 148 409 39 77 104 159 142 179 16 8 49 15 73 15 46 0
69 16 81 56 13 44 -43 72 -111 55z"/>
<path d="M24685 17233 c-189 -41 -398 -151 -498 -263 -53 -58 -56 -72 -26 -94
27 -19 54 -9 105 39 161 151 443 263 537 213 46 -24 106 -80 122 -114 22 -46
13 -98 -31 -185 -72 -144 -188 -261 -464 -470 -171 -130 -346 -287 -361 -326
-12 -31 -2 -52 28 -59 18 -5 46 4 102 34 42 22 101 47 131 55 130 37 417 49
830 33 223 -8 236 -8 257 10 29 25 52 109 35 126 -9 9 -17 9 -26 3 -70 -51
-51 -49 -264 -36 -257 16 -591 17 -667 3 -127 -24 -135 -25 -135 -14 0 5 63
54 140 108 77 53 182 136 233 184 151 142 271 328 284 443 20 167 -171 345
-332 310z"/>
<path d="M26118 17175 c-201 -36 -353 -86 -461 -152 -60 -36 -81 -62 -71 -87
13 -34 81 -19 158 33 84 58 138 77 519 183 26 7 37 16 35 27 -5 23 -37 22
-180 -4z"/>
<path d="M10922 17065 c-48 -22 -58 -23 -110 -13 -33 6 -117 8 -202 5 -174 -6
-288 -34 -425 -103 -276 -138 -465 -391 -465 -623 0 -135 30 -211 119 -305 93
-99 244 -156 409 -156 178 0 341 47 557 158 331 173 492 323 540 507 24 92 20
219 -10 312 -26 84 -50 122 -106 171 -86 76 -204 93 -307 47z m217 -116 c39
-32 17 -33 -38 -1 -28 16 -48 31 -45 35 8 8 55 -11 83 -34z m-364 -16 c11 -26
33 -29 80 -12 46 17 94 4 165 -44 35 -23 75 -50 89 -59 32 -22 59 -23 82 -2
10 9 22 13 27 10 16 -9 34 -164 27 -220 -30 -219 -131 -325 -470 -494 -262
-131 -480 -170 -640 -116 -148 49 -239 122 -275 219 -41 112 -37 274 10 365
31 60 128 157 214 214 99 67 198 110 308 136 114 26 127 27 258 26 109 -1 116
-2 125 -23z"/>
<path d="M14327 17034 c-109 -18 -224 -58 -352 -122 -272 -135 -448 -270 -509
-390 -81 -158 59 -430 277 -537 177 -87 465 -117 712 -75 171 29 376 96 500
165 95 53 145 89 145 107 0 17 -31 7 -141 -46 -150 -70 -206 -90 -341 -122
-164 -37 -324 -50 -456 -35 -206 22 -353 82 -458 186 -104 103 -155 220 -139
323 5 36 16 54 54 91 101 98 345 241 513 300 122 42 224 61 363 68 160 7 255
-7 302 -44 19 -15 44 -34 54 -42 43 -31 102 22 83 76 -11 32 -88 77 -169 98
-74 19 -324 19 -438 -1z"/>
<path d="M26966 16957 c-33 -33 -33 -47 2 -79 50 -47 67 -51 113 -27 40 20 50
21 253 14 l212 -8 29 26 c27 24 29 27 14 42 -24 25 -181 45 -400 52 l-197 6
-26 -26z"/>
<path d="M26633 16711 c-43 -8 -73 -35 -73 -65 0 -44 17 -48 172 -41 107 5
206 1 393 -15 318 -26 617 -40 677 -31 25 4 58 16 73 25 24 16 26 20 12 33
-11 11 -52 18 -154 24 -76 5 -168 14 -205 19 -36 5 -142 17 -235 25 -92 8
-211 20 -263 25 -103 10 -345 11 -397 1z"/>
<path d="M21225 16120 c3 -5 8 -10 11 -10 2 0 4 5 4 10 0 6 -5 10 -11 10 -5 0
-7 -4 -4 -10z"/>
<path d="M9550 15559 c-131 -7 -275 -25 -291 -34 -17 -11 -9 -33 22 -59 36
-30 51 -31 190 -10 133 20 903 24 1139 6 549 -43 961 -66 1440 -82 922 -30
1288 -56 2124 -150 598 -67 832 -86 1601 -130 99 -6 266 -15 370 -21 181 -11
570 -9 1340 7 254 5 344 3 585 -15 157 -12 292 -24 300 -26 33 -10 363 -36
380 -30 26 8 32 32 15 65 -18 34 -30 38 -116 39 -36 1 -110 6 -165 11 -554 55
-818 62 -1489 40 -392 -13 -769 -10 -1110 9 -99 6 -274 15 -390 21 -459 24
-789 52 -1404 120 -879 97 -1243 123 -2181 155 -495 17 -674 26 -1055 55 -509
39 -972 49 -1305 29z"/>
<path d="M2376 14977 c-18 -13 -19 -30 -17 -308 2 -377 10 -449 83 -789 48
-223 82 -334 114 -377 46 -61 131 -53 179 17 97 140 230 314 275 358 119 117
246 189 353 199 l65 6 44 -44 c24 -24 72 -91 107 -149 151 -247 316 -343 591
-345 58 0 126 4 152 9 l46 8 47 -71 c97 -147 225 -221 383 -221 47 0 64 4 69
15 8 22 3 25 -70 40 -72 15 -134 43 -188 86 -44 35 -143 175 -136 193 3 7 34
28 69 46 156 81 278 221 278 319 0 77 -33 127 -110 166 -171 87 -410 33 -440
-100 -18 -79 -11 -195 16 -270 40 -111 40 -113 10 -125 -56 -21 -180 -23 -262
-5 -174 38 -254 109 -398 352 -66 111 -162 173 -266 173 -52 0 -146 -26 -215
-60 -137 -67 -222 -151 -384 -383 -101 -144 -135 -185 -144 -170 -18 32 -70
282 -116 563 -34 208 -42 349 -36 595 6 213 5 232 -12 252 -24 29 -63 38 -87
20z m2284 -906 c104 -55 61 -165 -114 -297 -54 -41 -105 -74 -114 -72 -20 4
-40 71 -48 159 -8 82 2 151 24 180 37 45 190 64 252 30z"/>
<path d="M8482 14790 c-47 -34 -64 -61 -60 -93 3 -21 0 -22 -117 -28 -101 -5
-137 -12 -230 -43 -138 -46 -385 -167 -490 -240 -166 -116 -309 -284 -374
-441 -92 -219 -57 -512 81 -688 80 -101 235 -184 404 -217 348 -67 672 -38
984 89 152 62 254 125 354 221 107 102 169 201 234 375 39 103 43 123 51 225
8 115 20 115 103 3 36 -48 78 -108 93 -132 15 -25 46 -65 69 -90 76 -84 82
-68 -56 -177 -171 -136 -278 -235 -278 -255 0 -26 49 -79 72 -79 10 0 47 24
81 54 204 179 276 241 305 264 l33 25 27 -21 c168 -135 432 -306 597 -388 98
-49 207 -76 227 -56 13 13 -6 42 -28 42 -71 0 -744 428 -744 473 0 7 10 18 23
26 44 28 313 229 525 394 232 180 336 252 447 311 39 20 75 44 82 53 17 23 0
49 -41 63 -70 23 -207 -60 -581 -350 -85 -66 -447 -331 -540 -394 -20 -14 -30
-3 -160 175 -64 87 -135 175 -158 194 -23 18 -52 42 -64 52 -17 14 -24 36 -33
99 -13 101 -60 267 -98 348 -33 70 -100 149 -145 172 -22 12 -46 15 -91 11
-34 -3 -108 -3 -166 1 -96 6 -106 9 -115 30 -9 20 -16 22 -96 22 -79 0 -89 -2
-127 -30z m423 -180 c41 -16 72 -37 101 -69 23 -25 71 -77 106 -116 86 -94
102 -147 102 -340 -1 -110 -5 -158 -22 -222 -51 -196 -119 -319 -245 -439
-127 -121 -294 -213 -477 -262 -306 -81 -714 -73 -937 20 -87 36 -157 105
-201 201 -69 147 -79 338 -26 500 31 93 147 207 347 340 192 129 397 211 560
226 49 5 93 13 100 20 6 6 20 11 32 11 11 0 29 6 40 14 11 7 47 15 79 18 33 3
62 10 64 16 7 22 128 13 249 -18 17 -4 68 -30 113 -56 83 -50 130 -100 130
-139 0 -12 6 -30 14 -41 19 -25 50 -9 54 29 11 89 -163 229 -363 293 -106 33
-98 48 21 42 69 -4 117 -12 159 -28z m-422 -57 c-7 -2 -19 -2 -25 0 -7 3 -2 5
12 5 14 0 19 -2 13 -5z"/>
<path d="M27217 14808 c-9 -7 -49 -78 -90 -158 -86 -171 -132 -245 -163 -258
-12 -6 -37 -24 -56 -40 -18 -17 -67 -49 -108 -71 -97 -53 -146 -55 -232 -9
-32 17 -68 45 -80 61 -71 99 7 271 140 307 66 18 102 46 102 77 0 25 -2 26
-47 20 -120 -14 -261 -112 -303 -209 -60 -140 7 -295 148 -338 139 -43 216
-21 363 103 31 26 59 47 62 47 3 0 -21 -52 -54 -115 -63 -123 -71 -155 -39
-155 28 0 48 25 157 203 218 356 286 489 269 532 -7 18 -46 19 -69 3z"/>
<path d="M16628 14619 c-42 -24 -194 -297 -255 -457 -55 -146 -103 -323 -103
-381 0 -33 -16 -33 -65 0 -81 54 -182 81 -331 87 -256 9 -469 -66 -553 -196
-136 -212 24 -383 422 -453 258 -46 644 -21 977 63 l84 21 21 -29 c99 -142
318 -236 590 -253 100 -7 144 -5 227 9 141 24 225 62 188 85 -5 3 -72 -1 -147
-11 -267 -32 -523 14 -680 122 -46 31 -93 87 -93 108 0 4 25 18 56 32 186 82
318 223 358 380 23 88 21 106 -16 141 -99 93 -240 95 -367 6 -104 -74 -164
-216 -165 -395 -1 -54 -6 -101 -11 -106 -11 -10 -225 -54 -378 -78 -135 -21
-456 -30 -569 -15 -201 27 -357 83 -401 145 -26 36 -27 98 -3 143 71 138 374
219 624 167 91 -19 128 -35 177 -77 35 -30 37 -36 45 -114 13 -123 34 -152
113 -153 57 0 61 94 8 198 -29 57 -29 57 -16 137 34 213 183 564 310 734 30
40 55 81 55 91 0 21 -45 60 -69 60 -9 0 -24 -5 -33 -11z m587 -785 c18 -19 15
-33 -25 -121 -38 -82 -76 -129 -158 -190 -86 -65 -132 -89 -142 -73 -15 24 24
200 61 272 22 44 83 97 130 114 50 18 115 17 134 -2z"/>
<path d="M30309 14548 c-36 -30 -191 -238 -300 -403 -91 -137 -231 -460 -289
-664 -73 -260 -55 -436 59 -578 141 -175 424 -173 725 3 165 97 305 283 329
438 6 36 3 42 -29 73 -65 61 -108 76 -221 81 -121 5 -204 -15 -322 -80 -155
-84 -351 -243 -402 -325 -12 -18 -27 -33 -34 -33 -41 0 -43 197 -5 357 43 178
132 398 232 578 76 137 114 194 250 373 107 141 123 174 92 186 -26 10 -69 7
-85 -6z m336 -1147 c88 -40 92 -68 23 -186 -93 -158 -246 -275 -446 -342 -152
-51 -258 -30 -347 69 -52 58 -57 78 -17 78 20 0 59 27 147 101 187 156 360
267 451 288 66 15 146 12 189 -8z"/>
<path d="M29217 14442 c-9 -10 -21 -47 -26 -83 -6 -35 -26 -122 -46 -194 -37
-138 -81 -314 -95 -380 -4 -22 -29 -137 -54 -255 -26 -118 -55 -260 -66 -315
-29 -157 -59 -294 -81 -373 -22 -79 -19 -109 14 -121 27 -10 96 5 119 26 24
22 23 53 -1 53 -11 0 -22 3 -25 8 -2 4 8 63 24 132 15 69 42 195 60 280 68
331 140 642 192 830 55 197 88 331 88 357 0 48 -70 72 -103 35z"/>
<path d="M13140 14121 c-257 -56 -403 -186 -404 -360 -1 -125 55 -195 211
-262 78 -34 78 -34 233 -33 149 1 160 2 280 38 280 83 444 156 660 291 123 78
119 79 144 -55 33 -179 90 -316 148 -354 13 -9 38 -19 56 -22 47 -9 49 13 8
75 -42 61 -67 139 -96 288 -11 59 -27 129 -36 155 -17 52 -63 98 -98 98 -12 0
-56 -21 -99 -46 l-77 -46 -52 47 c-134 121 -361 193 -633 200 -131 4 -175 2
-245 -14z m472 -86 c93 -16 235 -63 295 -97 58 -32 113 -70 113 -77 0 -9 -122
-82 -209 -126 -233 -116 -546 -195 -720 -182 -97 8 -142 21 -182 54 -131 111
-32 324 186 398 130 45 359 58 517 30z"/>
<path d="M19028 14116 c-115 -42 -156 -129 -75 -155 41 -14 59 -8 113 36 22
18 55 36 72 39 19 4 34 14 38 26 15 48 -76 81 -148 54z"/>
<path d="M22459 14117 c-47 -22 -59 -37 -59 -81 0 -23 4 -46 10 -52 20 -20 23
-155 6 -223 -21 -83 -93 -235 -157 -333 -56 -85 -59 -111 -15 -116 105 -12
336 443 336 663 0 62 -27 127 -59 145 -23 12 -28 12 -62 -3z"/>
<path d="M25135 14106 c-71 -13 -167 -50 -285 -109 -53 -26 -65 -36 -65 -56 0
-48 26 -47 126 2 52 26 130 56 173 67 93 23 247 28 264 7 24 -28 -28 -95 -277
-352 -139 -143 -285 -300 -325 -350 -41 -49 -83 -99 -95 -109 -52 -47 -6 -95
108 -116 66 -12 237 -2 356 20 215 40 388 75 487 100 101 26 128 37 185 78 43
30 69 56 71 70 5 33 -29 28 -88 -12 -54 -37 -114 -53 -396 -105 -378 -70 -593
-79 -611 -25 -5 16 81 110 357 389 135 138 265 274 288 303 73 93 81 169 20
192 -49 18 -213 21 -293 6z"/>
<path d="M26830 13723 c-30 -1 -116 -8 -190 -14 -74 -6 -210 -14 -301 -18
-132 -5 -171 -10 -193 -24 -41 -27 -28 -78 21 -78 26 -1 232 18 338 30 50 6
133 16 185 21 123 14 275 39 307 51 13 5 23 15 21 22 -5 12 -81 17 -188 10z"/>
<path d="M18255 13699 c-64 -7 -161 -44 -227 -85 -82 -52 -110 -176 -58 -259
73 -117 320 -165 533 -101 48 14 94 26 102 26 21 0 28 -41 20 -106 -8 -67 3
-84 55 -84 35 0 39 3 54 40 31 79 17 148 -41 201 -60 56 -75 56 -298 8 -238
-50 -395 27 -315 156 39 63 218 114 333 95 56 -9 66 -14 108 -60 37 -40 52
-50 78 -50 59 0 54 60 -12 126 -70 69 -205 107 -332 93z"/>
<path d="M27709 13666 c-95 -20 -135 -62 -93 -97 13 -11 27 -10 82 6 54 15
117 19 324 24 224 5 260 8 274 23 16 16 16 18 -7 27 -68 28 -473 40 -580 17z"/>
<path d="M19817 13660 c-48 -14 -94 -57 -159 -147 -97 -132 -138 -183 -147
-183 -5 0 -8 31 -7 69 1 78 -21 123 -64 129 -36 6 -50 -23 -50 -97 0 -36 -7
-102 -17 -147 -9 -44 -13 -88 -10 -98 4 -9 23 -24 44 -32 33 -14 40 -14 71 0
48 23 136 110 190 186 156 221 164 231 178 219 19 -16 18 -51 -5 -131 -33
-116 -36 -171 -12 -221 25 -52 67 -75 149 -83 72 -8 163 21 332 106 67 33 126
58 132 54 6 -4 8 -22 3 -48 -13 -80 -12 -91 14 -94 48 -7 68 6 91 60 17 40 21
62 16 97 -16 120 -107 120 -356 3 -183 -86 -248 -100 -275 -58 -15 23 -14 31
9 118 43 154 30 236 -43 285 -37 25 -42 26 -84 13z"/>
<path d="M21080 13595 c-102 -29 -176 -102 -238 -233 -63 -134 -48 -225 44
-272 59 -29 162 -32 234 -6 123 45 264 165 329 279 51 90 56 80 51 -99 -2 -85
-1 -92 25 -122 24 -28 33 -32 78 -32 29 0 62 3 75 6 32 9 24 37 -14 45 -57 11
-56 9 -49 163 6 129 5 146 -14 198 -24 61 -59 93 -92 83 -11 -4 -54 -58 -95
-120 -93 -142 -197 -243 -303 -293 -116 -55 -201 -48 -201 18 0 43 69 170 121
222 54 54 74 59 83 23 8 -31 46 -42 95 -28 72 21 156 55 169 68 21 19 -9 68
-54 90 -51 24 -175 29 -244 10z"/>
<path d="M27508 13449 c-22 -13 -23 -42 -2 -60 23 -19 547 -26 649 -9 86 15
105 24 88 41 -9 9 -113 16 -340 25 -399 16 -374 16 -395 3z"/>
<path d="M3018 13049 c-24 -14 -22 -33 6 -65 22 -27 27 -28 132 -30 78 -2 148
-11 249 -34 77 -17 190 -42 250 -55 61 -14 173 -38 250 -55 77 -17 196 -42
265 -55 69 -14 179 -36 245 -50 224 -46 797 -131 1075 -159 217 -22 275 -25
635 -36 182 -6 519 -17 750 -25 637 -21 1263 -32 2425 -40 377 -3 764 -10 860
-15 96 -5 256 -14 355 -20 295 -16 779 -29 1305 -35 454 -6 772 -18 1180 -45
401 -26 501 -30 875 -40 851 -23 1033 -25 1430 -17 471 10 1027 3 1460 -18
165 -8 406 -19 535 -25 580 -24 993 -50 1467 -90 285 -24 361 -25 391 -4 12 8
22 22 22 29 0 29 -44 43 -160 49 -63 4 -216 15 -340 26 -495 42 -755 57 -1770
102 -435 19 -629 22 -1605 23 -1140 0 -1519 9 -2130 50 -525 35 -923 49 -1810
65 -478 9 -965 29 -1325 55 -41 3 -554 8 -1140 11 -586 3 -1096 7 -1135 9 -38
1 -221 6 -405 9 -184 4 -427 11 -540 16 -113 5 -371 14 -575 20 -505 14 -690
26 -965 61 -629 79 -1000 148 -1695 315 -104 25 -235 54 -290 65 -108 20 -249
25 -277 8z"/>
<path d="M18340 8595 c0 -8 9 -15 20 -15 11 0 20 7 20 15 0 8 -9 15 -20 15
-11 0 -20 -7 -20 -15z"/>
</g>
</svg>
