<?xml version="1.0" standalone="no"?>
<!DOCTYPE svg PUBLIC "-//W3C//DTD SVG 20010904//EN"
 "http://www.w3.org/TR/2001/REC-SVG-20010904/DTD/svg10.dtd">
<svg version="1.0" xmlns="http://www.w3.org/2000/svg"
 width="2448.000000pt" height="3264.000000pt" viewBox="0 0 2448.000000 3264.000000"
 preserveAspectRatio="xMidYMid meet">
<metadata>
Created by potrace 1.12, written by Peter Selinger 2001-2015
</metadata>
<g transform="translate(0.000000,3264.000000) scale(0.100000,-0.100000)"
fill="#000000" stroke="none">
<path d="M15525 31630 c-3 -5 3 -10 14 -10 12 0 21 5 21 10 0 6 -6 10 -14 10
-8 0 -18 -4 -21 -10z"/>
<path d="M15610 31622 c0 -14 11 -21 26 -15 8 3 11 9 8 14 -7 11 -34 12 -34 1z"/>
<path d="M15715 31610 c4 -6 11 -8 16 -5 14 9 11 15 -7 15 -8 0 -12 -5 -9 -10z"/>
<path d="M5780 31420 c-104 -28 -199 -76 -219 -111 -12 -21 -23 -28 -41 -27
-40 3 -48 -8 -55 -80 -4 -37 -17 -143 -31 -237 -13 -93 -29 -222 -35 -285 -25
-237 -6 -1018 26 -1049 38 -38 40 -10 41 462 0 432 1 460 26 637 15 102 34
244 43 315 26 208 22 193 50 187 19 -3 35 5 65 32 63 57 135 85 254 98 108 12
130 11 481 -37 61 -9 144 -17 185 -18 62 -2 75 1 78 15 4 21 -36 33 -148 47
-128 16 -207 29 -285 46 -38 9 -135 18 -215 21 -123 4 -156 1 -220 -16z"/>
<path d="M12785 31099 c-288 -42 -611 -210 -676 -353 -10 -23 -19 -51 -19 -62
0 -37 114 -126 265 -209 161 -88 353 -208 402 -252 50 -45 51 -65 1 -108 -80
-68 -358 -189 -553 -240 -113 -29 -145 -31 -186 -9 -24 12 -34 13 -45 3 -35
-29 6 -101 65 -114 91 -20 548 150 736 273 75 49 94 71 101 113 11 67 -87 168
-252 261 -27 15 -83 48 -124 72 -41 25 -112 66 -158 92 -45 26 -98 61 -118 78
-31 27 -35 35 -29 60 9 33 99 122 171 168 64 41 223 110 299 131 46 13 258 57
273 57 1 0 2 7 2 15 0 33 -43 40 -155 24z"/>
<path d="M8772 31027 c-28 -33 -22 -97 12 -119 20 -14 66 -9 73 8 9 23 -17 93
-41 110 -25 17 -31 17 -44 1z"/>
<path d="M7282 31008 c-20 -20 -14 -74 11 -104 19 -22 29 -26 50 -20 34 8 44
44 23 85 -24 45 -61 62 -84 39z"/>
<path d="M9171 30993 c-6 -11 -7 -115 -4 -273 5 -212 4 -257 -8 -266 -8 -7
-52 -17 -99 -23 -58 -8 -90 -17 -103 -30 -25 -24 -15 -56 24 -76 26 -14 35
-14 94 2 35 9 67 14 71 10 4 -4 0 -43 -10 -88 -22 -101 -34 -323 -18 -333 23
-14 40 44 66 219 35 233 33 223 56 235 11 6 59 16 108 22 93 11 112 20 112 49
0 25 -32 34 -135 34 -67 0 -89 3 -88 12 3 12 24 369 26 445 3 62 -66 107 -92
61z"/>
<path d="M13266 30935 c-11 -12 -15 -39 -15 -113 0 -118 -20 -405 -29 -413 -4
-4 -50 -17 -102 -28 -52 -12 -132 -34 -178 -49 -69 -22 -84 -30 -89 -51 -7
-30 6 -53 39 -65 19 -7 49 2 145 43 67 28 135 54 152 57 31 6 31 6 30 -37 0
-24 -6 -84 -13 -134 -18 -125 6 -166 48 -81 16 33 22 67 42 234 7 56 29 66
178 82 61 6 114 14 118 16 4 3 13 2 18 -1 6 -4 -10 -30 -39 -60 -57 -63 -87
-120 -103 -199 -11 -52 -10 -61 7 -94 11 -20 36 -46 56 -56 34 -18 41 -19 94
-6 32 8 84 30 115 51 51 32 159 145 189 196 18 31 31 -4 31 -88 0 -102 34
-172 100 -207 56 -30 124 -26 152 8 36 44 15 66 -45 48 -30 -9 -40 -8 -71 11
-49 31 -57 69 -57 274 0 188 -7 217 -55 217 -13 0 -35 7 -48 15 -21 14 -32 14
-112 -4 -49 -10 -143 -24 -209 -31 -66 -6 -158 -21 -204 -32 -51 -12 -87 -16
-93 -10 -6 6 -3 53 7 122 35 257 31 365 -16 390 -23 13 -25 13 -43 -5z m668
-537 c-17 -56 -52 -108 -117 -175 -137 -142 -267 -201 -267 -122 0 28 68 151
103 187 45 47 87 71 181 103 100 35 109 36 100 7z"/>
<path d="M14736 30818 c-8 -13 -18 -45 -22 -73 -3 -27 -13 -66 -20 -85 -7 -19
-18 -64 -23 -100 -18 -109 -31 -164 -41 -174 -6 -6 -10 -20 -10 -32 0 -30 -16
-34 -96 -24 -38 4 -99 9 -136 9 -58 1 -69 -2 -78 -19 -12 -23 -4 -45 29 -74
17 -16 31 -18 88 -13 38 3 88 9 112 13 l44 7 -7 -44 c-4 -24 -11 -48 -17 -53
-12 -13 -12 -63 0 -70 11 -7 46 47 55 84 3 14 16 37 28 52 l23 28 58 -14 c47
-11 68 -11 117 -1 60 12 106 10 116 -6 3 -5 -4 -9 -16 -9 -29 0 -36 -27 -14
-51 10 -11 19 -28 19 -37 0 -18 35 -82 45 -82 3 0 23 -16 44 -35 45 -41 105
-61 227 -74 81 -9 193 -2 219 14 5 3 10 15 10 26 0 17 -8 19 -87 20 -49 0
-110 5 -138 10 -27 5 -59 11 -70 12 -36 5 -129 58 -153 88 -13 16 -33 29 -45
29 -20 1 -20 2 -4 11 20 12 23 57 4 65 -11 4 -10 17 6 67 25 79 35 90 110 118
52 20 81 24 182 24 133 1 158 -2 148 -18 -3 -5 5 -18 18 -28 29 -22 20 -32
-41 -47 -54 -13 -213 -38 -294 -47 -75 -9 -86 -13 -86 -35 0 -27 19 -34 39
-16 22 20 37 20 45 1 17 -44 359 14 429 73 27 23 21 67 -14 107 -58 66 -118
85 -279 92 -178 8 -258 -29 -316 -144 -21 -41 -25 -56 -16 -65 19 -19 14 -28
-10 -19 -13 4 -66 14 -119 21 -53 7 -102 16 -108 20 -9 5 8 69 63 233 42 125
76 231 76 237 0 17 -39 50 -60 50 -11 0 -26 -10 -34 -22z"/>
<path d="M17343 30828 c-6 -7 -13 -21 -16 -30 -4 -10 -13 -18 -20 -18 -25 0
-115 -129 -100 -144 13 -13 59 7 86 37 l29 32 -5 -30 c-13 -69 -20 -131 -18
-143 1 -8 -3 -20 -10 -28 -6 -7 -9 -26 -6 -41 3 -15 -1 -43 -8 -63 -18 -44
-40 -244 -38 -332 2 -80 28 -146 71 -176 39 -28 49 -28 103 6 81 52 166 189
268 437 16 38 93 190 102 199 18 20 16 -2 -7 -89 -79 -293 -100 -453 -69 -519
13 -27 23 -36 37 -34 18 3 20 13 22 113 3 84 10 137 34 225 16 63 42 162 57
220 14 58 35 134 46 169 10 35 19 77 19 95 0 41 -25 76 -53 76 -30 0 -48 -30
-192 -320 -43 -85 -83 -162 -90 -170 -6 -8 -22 -41 -36 -72 -30 -71 -135 -225
-171 -251 -37 -27 -52 -13 -67 62 -15 74 -7 154 31 341 16 80 33 165 38 190 4
25 17 76 29 115 24 79 27 125 9 143 -16 16 -63 15 -75 0z"/>
<path d="M20538 30742 c-46 -51 -131 -229 -166 -349 -52 -175 -85 -365 -80
-461 5 -84 5 -85 46 -123 23 -22 50 -39 60 -39 27 0 107 56 140 98 35 45 49
71 101 185 23 51 45 86 51 82 5 -3 10 -39 10 -78 0 -132 58 -201 137 -163 26
12 34 22 31 39 -2 17 -11 23 -43 27 l-40 5 -6 135 c-6 147 -22 200 -60 200
-32 0 -63 -44 -143 -205 -51 -103 -88 -163 -117 -192 -69 -70 -91 -55 -91 57
0 186 124 569 228 706 40 52 43 77 12 98 -30 21 -31 21 -70 -22z"/>
<path d="M7146 30677 c-21 -32 -30 -247 -18 -423 12 -162 33 -224 76 -224 33
0 36 23 14 88 -25 71 -23 266 3 412 24 137 24 144 -6 158 -38 17 -53 15 -69
-11z"/>
<path d="M6265 30629 c-310 -66 -514 -87 -628 -65 -77 15 -127 10 -127 -13 0
-102 249 -104 690 -4 143 32 203 56 198 80 -4 24 -28 25 -133 2z"/>
<path d="M21312 30617 c-41 -43 -19 -117 35 -117 15 0 25 12 37 43 20 53 20
62 0 81 -22 22 -47 20 -72 -7z"/>
<path d="M8060 30573 c-19 -10 -64 -47 -100 -83 -51 -50 -79 -91 -124 -180
-111 -216 -133 -237 -122 -117 3 39 11 108 16 152 24 187 24 171 -1 189 -31
21 -66 20 -78 -1 -5 -10 -10 -140 -12 -290 -4 -263 -3 -273 16 -287 31 -24 49
-19 82 22 43 53 72 101 143 237 35 66 74 138 88 160 35 57 93 115 115 115 19
0 19 -5 13 -82 -4 -46 -13 -123 -21 -172 -8 -49 -17 -128 -21 -175 -6 -79 -4
-88 16 -113 24 -31 67 -38 76 -13 4 9 1 28 -6 44 -10 24 -6 60 20 218 40 239
39 332 -3 369 -33 28 -50 29 -97 7z"/>
<path d="M9935 30564 c-187 -45 -289 -118 -356 -258 -68 -139 -65 -211 10
-286 61 -61 122 -80 254 -80 94 0 219 20 258 40 61 33 -25 63 -140 48 -42 -5
-112 -7 -155 -3 -159 13 -202 55 -171 163 44 151 107 214 268 269 79 27 209
34 260 14 42 -17 35 -46 -20 -82 -75 -47 -165 -72 -265 -73 -93 -1 -114 -10
-103 -45 32 -103 342 -50 458 78 51 57 52 105 2 160 -62 68 -166 87 -300 55z"/>
<path d="M17167 30573 c-4 -3 -7 -13 -7 -21 0 -9 -6 -23 -14 -31 -17 -19 -126
-260 -126 -278 0 -7 7 -13 16 -13 8 0 12 -4 9 -10 -3 -5 -14 -10 -25 -10 -10
0 -23 -12 -29 -27 -7 -16 -30 -59 -51 -98 -22 -38 -61 -113 -86 -165 -25 -52
-56 -117 -70 -144 -32 -66 -31 -101 2 -122 24 -16 26 -16 43 2 10 10 34 60 54
109 19 50 63 146 96 215 104 216 186 423 177 447 -3 7 -1 13 5 13 14 0 29 43
18 55 -14 14 -11 35 5 35 22 0 30 19 16 35 -14 16 -23 19 -33 8z"/>
<path d="M8622 30528 c-8 -8 -12 -47 -12 -110 0 -107 -8 -153 -52 -306 -35
-122 -34 -157 2 -157 22 0 29 12 72 120 70 180 100 389 62 443 -17 24 -53 29
-72 10z"/>
<path d="M18665 30398 c-97 -19 -241 -68 -287 -98 -107 -71 -208 -214 -224
-316 -8 -53 17 -109 60 -136 75 -47 242 11 359 124 46 45 57 61 52 78 -4 12
-1 27 5 35 7 8 10 20 8 26 -2 7 -22 -4 -48 -26 -63 -52 -133 -97 -218 -141
-60 -30 -79 -36 -99 -28 -43 15 -49 36 -28 86 63 141 196 253 350 293 66 17
149 23 153 10 7 -22 -23 -88 -55 -120 -34 -34 -43 -65 -20 -65 7 0 18 5 24 11
7 7 19 9 27 6 13 -5 16 -26 16 -120 0 -185 30 -252 135 -302 73 -35 181 -20
173 23 -2 13 -18 18 -68 23 -79 6 -116 29 -140 83 -15 35 -17 72 -15 264 1
122 5 225 9 229 13 13 5 43 -16 57 -24 17 -75 19 -153 4z"/>
<path d="M21975 30309 c-36 -33 -62 -78 -135 -226 -50 -102 -93 -183 -96 -180
-3 2 2 55 10 116 27 193 19 251 -34 251 -31 0 -37 -27 -43 -175 -3 -77 -13
-186 -23 -242 -21 -120 -15 -156 28 -161 41 -5 94 71 158 224 43 103 112 237
136 263 13 15 11 -17 -6 -95 -36 -161 -21 -238 60 -327 l48 -52 63 1 c38 1 99
12 150 27 l86 27 64 -29 c105 -47 196 -70 332 -81 203 -16 331 -14 355 8 25
20 36 61 23 81 -8 13 -15 13 -53 0 -50 -16 -264 -17 -398 -2 -85 10 -192 43
-198 61 -1 5 28 29 65 53 102 66 180 134 228 200 56 76 66 128 36 187 -27 54
-66 73 -160 79 -233 15 -443 -130 -445 -308 -1 -48 4 -64 38 -118 24 -40 35
-66 29 -72 -14 -14 -112 -39 -154 -39 -42 0 -82 27 -105 73 -22 41 -13 147 21
275 27 103 31 152 14 185 -26 48 -38 47 -94 -4z m759 -103 c19 -8 37 -19 40
-25 21 -33 -100 -163 -235 -253 -120 -80 -131 -83 -169 -51 -61 51 -74 107
-40 181 31 67 95 116 195 148 54 17 168 17 209 0z"/>
<path d="M19650 30326 c-229 -64 -365 -242 -354 -464 5 -116 34 -167 124 -219
75 -44 208 -36 316 18 61 31 114 72 114 89 0 20 -61 9 -127 -21 -133 -62 -288
-47 -328 31 -39 75 -14 222 55 330 67 104 193 164 334 158 45 -1 87 1 94 5 18
12 15 51 -6 70 -23 21 -152 22 -222 3z"/>
<path d="M21282 30188 c-8 -8 -12 -43 -12 -98 0 -98 -18 -170 -61 -247 -16
-29 -29 -64 -29 -79 0 -22 4 -25 26 -22 78 9 188 341 142 428 -15 28 -47 37
-66 18z"/>
<path d="M18636 30064 c-4 -10 -1 -14 6 -12 15 5 23 28 10 28 -5 0 -13 -7 -16
-16z"/>
<path d="M5575 29616 c-107 -17 -147 -31 -176 -62 -18 -19 -21 -29 -13 -41 22
-35 42 -39 71 -15 15 12 39 27 53 33 72 31 250 38 395 15 164 -26 268 -35 485
-41 118 -4 298 -11 400 -16 461 -24 622 -28 1190 -33 552 -5 847 -12 1490 -35
124 -5 1040 -6 2035 -3 996 3 2040 5 2320 6 281 1 516 5 523 9 17 11 15 52 -3
67 -13 11 -119 12 -528 7 -282 -4 -528 -9 -547 -11 -122 -16 -3581 -21 -3975
-6 -420 16 -917 26 -1420 29 -242 1 -528 6 -635 11 -107 5 -287 14 -400 19
-113 6 -320 15 -460 21 -152 7 -309 19 -390 32 -170 26 -312 31 -415 14z"/>
<path d="M17520 29397 c-3 -2 -250 -7 -550 -11 -300 -4 -563 -9 -585 -11 -22
-2 -132 -6 -245 -9 -272 -8 -703 -24 -975 -36 -239 -11 -523 -22 -1140 -45
-220 -8 -445 -17 -500 -20 -55 -3 -185 -7 -290 -10 -104 -3 -230 -7 -280 -10
-49 -3 -252 -7 -450 -10 -198 -3 -430 -8 -515 -10 -85 -3 -425 -10 -755 -15
-330 -6 -760 -15 -955 -20 -195 -5 -708 -16 -1140 -25 -432 -8 -839 -17 -905
-20 -654 -29 -2030 -64 -2585 -66 -280 0 -547 -16 -599 -34 -36 -12 -51 -39
-33 -57 12 -12 82 -13 262 -5 74 4 293 9 485 12 684 11 949 16 989 20 23 2
174 7 336 10 162 4 298 9 301 11 3 2 80 4 170 4 90 1 261 5 379 10 379 15 824
26 1390 35 358 6 707 13 980 21 299 8 533 13 910 19 190 3 406 8 480 10 74 3
284 7 465 10 424 7 871 19 1180 30 277 10 499 17 525 17 14 0 81 4 150 9 123
9 304 18 490 24 202 6 467 16 515 20 28 2 156 7 285 11 279 8 267 7 635 23
160 6 346 16 415 20 345 22 2043 20 3480 -4 340 -6 1528 -16 2230 -20 473 -2
724 -12 806 -30 26 -6 361 -37 387 -37 29 1 47 22 47 53 0 36 -24 49 -92 49
-29 0 -152 9 -273 20 -276 25 -433 29 -1520 35 -950 6 -2737 21 -3455 30 -245
3 -448 4 -450 2z m-5923 -233 c-3 -3 -12 -4 -19 -1 -8 3 -5 6 6 6 11 1 17 -2
13 -5z"/>
<path d="M6755 27076 c-194 -38 -444 -169 -669 -351 -214 -172 -349 -361 -401
-560 -70 -272 5 -598 182 -785 83 -88 131 -124 263 -193 259 -136 529 -170
830 -103 166 36 258 68 409 144 118 59 144 77 221 152 78 76 93 96 138 190 47
100 62 153 77 286 8 66 -9 184 -50 356 -56 229 -111 314 -209 325 -39 5 -46 2
-61 -21 -17 -25 -17 -27 1 -47 15 -17 26 -20 56 -15 33 5 38 3 56 -27 19 -32
50 -135 93 -312 17 -67 22 -121 23 -210 0 -139 -14 -198 -76 -317 -87 -167
-295 -314 -560 -394 -348 -105 -627 -91 -902 47 -190 95 -292 190 -360 333
-80 167 -96 447 -35 624 26 75 90 191 143 261 184 239 596 500 870 551 164 30
469 -27 667 -126 135 -67 283 -229 304 -332 9 -46 85 -83 98 -49 8 21 -30 117
-68 173 -46 67 -166 182 -236 227 -201 128 -596 214 -804 173z"/>
<path d="M11311 26316 c-7 -8 -21 -63 -33 -123 -17 -91 -22 -163 -28 -385 0
-3 -32 -12 -71 -19 -77 -14 -99 -28 -99 -64 0 -22 23 -55 38 -55 4 0 31 9 60
20 86 33 82 38 83 -112 2 -154 8 -191 31 -196 23 -4 27 15 36 193 l7 150 85
12 c265 37 314 43 318 38 3 -2 -5 -30 -17 -61 -26 -68 -26 -87 -2 -141 59
-129 246 -79 398 107 31 38 59 67 62 64 3 -3 6 -65 7 -139 2 -120 4 -138 25
-176 30 -52 52 -68 77 -53 26 17 27 50 0 68 -23 16 -23 16 -20 236 l4 219 -26
26 c-15 15 -34 25 -43 23 -17 -3 -17 -3 -65 -102 -24 -50 -51 -85 -103 -133
-81 -76 -128 -102 -196 -110 l-49 -6 0 35 c0 36 38 119 68 150 9 10 63 31 119
47 56 16 106 32 112 36 20 12 12 53 -15 74 -55 43 -180 18 -251 -51 -31 -30
-39 -32 -140 -41 -60 -5 -160 -15 -223 -22 -63 -7 -118 -11 -122 -9 -21 13 4
265 37 377 18 61 19 109 3 125 -16 16 -53 15 -67 -2z"/>
<path d="M12627 26273 c-19 -36 -63 -226 -77 -327 -5 -43 -13 -82 -16 -87 -3
-5 -17 -9 -32 -9 -38 0 -72 -26 -72 -55 0 -31 36 -56 68 -48 24 6 25 4 18 -28
-16 -74 -19 -136 -7 -143 22 -14 40 15 57 91 9 41 22 77 29 80 8 2 67 -3 131
-12 74 -11 141 -15 180 -11 71 7 73 6 97 -75 9 -31 29 -74 45 -97 31 -46 116
-118 182 -154 167 -92 311 -90 278 3 -5 16 -15 29 -21 30 -142 7 -249 51 -360
149 -36 31 -74 117 -64 144 3 8 40 18 97 25 67 10 109 22 158 47 85 44 114 80
120 149 4 49 2 55 -33 94 -41 45 -82 61 -160 61 -126 0 -238 -107 -261 -249
l-7 -44 -90 7 c-152 10 -267 29 -267 42 0 28 60 275 79 325 26 67 26 74 1 99
-28 28 -57 25 -73 -7z m731 -287 c23 -22 7 -63 -36 -90 -68 -45 -262 -97 -262
-70 0 3 9 27 21 54 21 50 80 105 127 121 38 12 132 3 150 -15z"/>
<path d="M10235 26172 c-71 -27 -91 -38 -114 -68 -26 -33 -27 -78 -1 -146 43
-115 113 -164 285 -198 192 -39 263 -65 319 -121 l48 -48 -4 -70 c-4 -84 -35
-135 -111 -187 -100 -69 -327 -121 -455 -105 -51 6 -68 13 -95 39 -43 41 -67
42 -67 2 0 -40 50 -94 108 -117 103 -40 318 -12 477 61 82 38 173 116 199 170
52 110 39 208 -40 295 -65 72 -154 112 -324 146 -198 40 -235 59 -266 141 -24
63 -13 91 44 117 37 17 67 21 142 22 88 0 95 2 98 21 5 37 -30 55 -115 60 -60
4 -90 0 -128 -14z"/>
<path d="M1960 24730 c0 -5 5 -10 11 -10 5 0 7 5 4 10 -3 6 -8 10 -11 10 -2 0
-4 -4 -4 -10z"/>
<path d="M6720 23715 c-229 -32 -471 -114 -610 -208 -71 -48 -152 -120 -195
-175 -22 -28 -48 -51 -57 -52 -10 0 -50 11 -90 24 -40 14 -116 34 -168 46
-139 30 -244 67 -286 101 -20 16 -47 29 -60 29 -30 0 -40 -32 -20 -63 33 -49
134 -87 377 -141 123 -27 178 -44 193 -57 5 -4 -6 -33 -25 -66 -19 -32 -40
-69 -47 -83 -8 -14 -39 -43 -69 -65 -100 -72 -328 -267 -341 -292 -15 -27 -8
-58 13 -67 16 -6 129 86 260 208 38 36 75 66 82 66 9 0 13 -19 13 -63 0 -194
141 -384 365 -492 262 -127 636 -138 1000 -30 185 55 406 151 560 243 137 82
274 212 328 311 103 193 65 424 -97 587 -58 58 -90 80 -176 122 -136 66 -231
90 -410 102 -80 5 -167 14 -195 19 -69 14 -232 11 -345 -4z m268 -63 c7 -5 10
-15 7 -23 -2 -8 -1 -20 4 -28 8 -12 18 -13 63 -3 99 22 141 18 211 -16 35 -17
81 -45 102 -62 40 -32 44 -33 69 -24 32 12 18 52 -30 84 -25 18 -44 34 -42 36
11 10 182 -42 264 -81 116 -56 219 -148 255 -228 21 -45 24 -67 24 -167 0
-111 -1 -118 -34 -184 -83 -169 -288 -321 -616 -459 -251 -104 -454 -148 -700
-149 -279 -1 -479 53 -612 164 -143 120 -212 277 -189 431 6 39 16 55 67 104
82 79 103 114 95 162 -6 37 -4 40 75 112 143 131 249 193 421 250 183 59 523
108 566 81z"/>
<path d="M15692 23443 c-6 -15 -22 -70 -36 -122 -37 -131 -102 -301 -126 -326
-25 -26 -39 -118 -21 -130 7 -4 20 0 29 8 11 9 51 17 114 21 l96 7 28 -61 c47
-106 121 -152 309 -191 107 -22 271 -25 318 -6 45 19 63 43 47 62 -10 12 -36
15 -116 15 -178 0 -352 35 -441 90 -36 22 -68 64 -59 79 3 5 45 12 94 16 153
11 324 78 374 146 18 24 18 29 5 61 -38 91 -195 125 -341 73 -81 -28 -120 -63
-167 -146 l-34 -60 -70 7 c-38 3 -71 7 -73 9 -1 1 18 44 42 95 25 52 62 144
82 206 31 92 37 118 29 141 -8 21 -18 29 -41 31 -26 3 -33 -1 -42 -25z m493
-337 c19 -8 35 -19 35 -24 0 -24 -181 -85 -292 -98 -69 -8 -73 0 -22 56 63 69
196 101 279 66z"/>
<path d="M11246 23438 c-3 -7 -7 -73 -11 -146 -6 -148 -21 -243 -38 -254 -7
-4 -46 -8 -87 -8 -80 0 -192 -26 -234 -54 -34 -22 -44 -61 -21 -86 23 -26 38
-25 83 4 38 25 236 75 248 63 4 -4 -9 -69 -29 -145 -41 -156 -43 -174 -21
-192 12 -11 18 -11 29 1 14 13 76 215 90 291 4 21 13 42 20 48 18 15 145 26
145 12 0 -6 -4 -13 -9 -17 -21 -13 -71 -115 -71 -144 0 -49 46 -91 100 -91 55
0 97 21 150 75 24 25 49 45 55 45 6 0 16 -19 22 -43 13 -46 65 -124 89 -134
32 -12 38 14 15 66 -12 28 -27 87 -33 132 -11 80 -35 129 -63 129 -7 0 -34
-25 -60 -55 -62 -73 -185 -144 -185 -107 0 24 64 104 106 133 42 29 59 34 129
39 44 3 86 9 93 13 20 13 14 54 -10 71 -29 21 -112 21 -169 1 -56 -20 -272
-46 -280 -33 -3 4 0 45 8 91 7 45 15 120 19 167 6 78 4 87 -16 113 -22 28 -58
36 -64 15z"/>
<path d="M12627 23372 c-34 -32 -123 -101 -197 -154 -286 -203 -427 -401 -363
-509 35 -59 73 -43 73 30 0 34 9 59 33 98 60 96 160 203 257 275 52 39 123 98
157 131 34 34 65 59 67 56 8 -8 -42 -260 -54 -274 -6 -7 -27 -16 -48 -20 -20
-4 -74 -24 -119 -45 -72 -34 -83 -42 -83 -64 0 -25 31 -66 50 -66 5 0 44 18
86 41 42 22 81 36 85 32 4 -4 4 -26 -1 -48 -15 -64 -12 -171 5 -185 23 -19 33
-4 40 58 10 84 42 204 57 213 7 5 65 20 128 35 148 34 180 47 180 74 0 29 -16
32 -106 20 -173 -24 -187 -25 -181 -4 22 72 48 193 53 242 7 64 -3 94 -37 112
-17 10 -28 3 -82 -48z"/>
<path d="M14533 23364 c-3 -9 1 -37 10 -63 19 -57 26 -137 18 -215 l-6 -60
-65 -12 c-126 -23 -171 -55 -146 -105 15 -30 49 -30 129 1 31 13 60 20 64 17
3 -4 -2 -38 -11 -77 -21 -85 -23 -127 -7 -143 21 -21 43 18 71 128 15 58 31
110 36 114 21 20 214 62 214 48 0 -3 -11 -25 -26 -50 -41 -75 -46 -104 -25
-153 19 -43 45 -64 78 -64 59 0 192 100 229 171 15 30 34 39 34 17 0 -37 25
-94 57 -129 29 -33 42 -39 74 -39 30 0 42 5 56 26 22 34 8 58 -38 62 -68 7
-85 49 -69 175 14 109 -7 149 -66 127 -14 -6 -39 -10 -55 -10 -16 0 -46 -7
-65 -15 -20 -8 -97 -24 -172 -35 -76 -12 -153 -24 -173 -27 l-37 -5 2 113 c1
103 -1 119 -24 164 -20 40 -31 51 -53 53 -18 2 -29 -2 -34 -14z m535 -374
c-32 -58 -130 -140 -173 -147 -44 -7 -45 5 -4 68 39 61 122 116 177 118 l23 1
-23 -40z"/>
<path d="M10220 23319 c-36 -5 -99 -21 -141 -35 -184 -60 -248 -151 -184 -260
35 -60 111 -95 314 -144 262 -65 373 -118 442 -213 51 -71 32 -159 -51 -229
-50 -43 -98 -58 -188 -58 -98 0 -170 28 -235 92 -43 42 -52 47 -64 35 -32 -32
44 -129 136 -177 52 -26 144 -50 195 -50 101 0 214 58 269 138 67 95 68 162 7
265 -71 120 -205 197 -435 251 -327 78 -385 118 -297 206 68 68 224 109 414
110 164 0 283 -32 404 -110 27 -17 33 -18 50 -5 18 13 18 16 4 42 -21 37 -107
88 -205 120 -68 22 -101 26 -225 29 -80 1 -174 -2 -210 -7z"/>
<path d="M13661 23230 c-124 -33 -201 -91 -201 -150 0 -38 38 -91 84 -116 46
-26 162 -51 271 -60 226 -16 359 -45 372 -81 10 -26 -37 -101 -90 -144 -28
-22 -80 -54 -116 -72 -58 -28 -76 -32 -149 -32 -82 0 -84 1 -110 33 -32 38
-49 41 -58 8 -8 -32 18 -79 62 -113 77 -58 239 -27 384 76 157 110 198 216
119 306 -41 47 -135 75 -304 90 -116 11 -314 44 -352 60 -19 8 -33 20 -31 27
13 39 152 88 250 88 66 0 90 37 48 75 -28 26 -95 28 -179 5z"/>
<path d="M4780 23198 c-74 -5 -181 -7 -237 -5 -115 5 -135 -3 -115 -48 21 -45
67 -49 367 -30 297 19 526 16 775 -10 131 -14 146 -14 160 1 76 77 -432 127
-950 92z"/>
<path d="M6450 21380 c-381 -40 -873 -320 -1028 -585 -155 -265 -128 -563 70
-780 122 -133 501 -351 686 -394 158 -37 305 -46 543 -33 118 6 255 18 304 27
373 61 659 253 752 505 47 125 57 333 23 464 -49 187 -211 410 -327 450 -63
23 -77 31 -173 99 -256 185 -572 277 -850 247z m365 -79 c176 -44 291 -97 464
-214 39 -27 69 -52 66 -57 -11 -17 8 -38 48 -55 66 -27 72 -31 72 -51 0 -11
13 -40 29 -67 35 -59 56 -127 56 -184 0 -50 16 -62 57 -44 24 11 25 15 20 64
-4 29 -9 63 -13 76 -15 51 19 7 56 -73 79 -167 90 -368 33 -551 -74 -237 -354
-416 -728 -465 -140 -18 -557 -25 -656 -11 -155 23 -296 79 -508 205 -291 172
-396 314 -408 551 -6 118 9 193 62 302 88 179 222 296 500 436 138 69 308 130
427 153 101 19 317 11 423 -15z"/>
<path d="M6485 21109 c-211 -16 -481 -132 -593 -254 -64 -70 -137 -186 -164
-261 -45 -127 -18 -307 67 -449 121 -201 393 -345 652 -345 218 0 486 94 623
218 119 107 202 271 217 426 7 78 -29 357 -55 419 -23 55 -123 142 -217 188
-65 31 -97 41 -170 48 -140 15 -251 18 -360 10z m409 -83 c73 -17 157 -61 208
-111 l31 -30 -49 -5 c-58 -6 -74 -15 -74 -40 0 -22 35 -44 57 -36 17 7 52 -10
70 -33 41 -52 79 -268 64 -361 -20 -120 -86 -244 -178 -332 -131 -126 -421
-217 -630 -197 -152 14 -248 49 -368 134 -88 62 -142 126 -185 218 -71 152
-77 274 -19 389 42 84 98 164 151 217 69 69 266 160 428 196 84 19 393 13 494
-9z"/>
<path d="M18060 21102 c-29 -23 -19 -42 21 -42 37 0 108 -63 157 -139 81 -126
212 -414 263 -581 56 -180 50 -388 -17 -537 -50 -114 -156 -232 -279 -312 -92
-59 -113 -85 -79 -98 22 -8 117 32 184 78 64 43 144 124 189 191 124 185 146
458 58 713 -102 294 -284 617 -397 706 -49 38 -73 43 -100 21z"/>
<path d="M10520 20996 c-81 -17 -122 -47 -158 -113 -33 -64 -46 -135 -58 -322
l-7 -113 -188 3 c-164 4 -190 2 -205 -12 -21 -22 -4 -56 34 -66 26 -6 313 12
360 24 21 5 22 3 17 -20 -10 -38 13 -228 36 -303 21 -69 35 -82 68 -64 25 13
26 37 7 102 -8 26 -20 93 -26 150 -6 57 -16 111 -21 121 -5 9 -8 17 -7 17 2 0
59 5 128 10 69 5 211 21 315 36 105 15 198 25 208 21 11 -4 17 -17 17 -36 0
-53 -40 -315 -55 -360 -19 -56 -19 -75 -1 -91 25 -20 66 8 81 55 18 54 42 178
60 309 19 137 19 151 -1 170 -20 21 -125 21 -231 1 -106 -20 -286 -43 -412
-51 l-103 -7 6 139 c11 228 28 285 97 331 36 24 49 27 132 26 125 0 266 -40
383 -108 38 -22 42 -28 32 -44 -27 -43 20 -76 58 -41 50 48 19 90 -112 152
-152 71 -347 107 -454 84z"/>
<path d="M12993 20943 c-16 -25 -18 -58 -18 -353 0 -330 14 -531 40 -567 7 -9
19 -14 27 -10 14 5 15 59 12 472 -2 257 -7 471 -10 476 -10 17 -34 9 -51 -18z"/>
<path d="M17370 20844 c-96 -48 -126 -68 -188 -129 -59 -59 -81 -91 -116 -167
-24 -51 -49 -117 -55 -146 -16 -76 -14 -190 5 -252 37 -125 156 -260 229 -260
56 0 58 38 3 61 -36 15 -100 93 -128 156 -104 235 28 558 275 674 45 21 106
42 135 46 55 8 78 28 67 57 -5 12 -19 16 -59 16 -44 0 -73 -10 -168 -56z"/>
<path d="M16176 20805 c-8 -9 -18 -30 -20 -48 -8 -50 -24 -175 -32 -247 -7
-71 -14 -80 -59 -80 -41 0 -57 -13 -53 -41 3 -21 9 -24 51 -27 26 -2 47 -4 47
-5 0 -1 -9 -49 -20 -107 -26 -136 -26 -170 -1 -170 25 0 59 81 75 181 7 43 15
82 19 85 7 7 192 -12 207 -21 6 -4 8 -21 5 -38 -10 -53 13 -166 47 -229 51
-96 139 -148 247 -148 79 1 130 15 159 43 45 46 8 74 -54 42 -75 -39 -192 -5
-251 73 -41 54 -55 105 -51 185 3 55 5 62 23 60 68 -8 186 -2 220 10 86 30 86
104 0 147 -40 20 -65 25 -126 25 -66 0 -81 -4 -118 -28 -23 -15 -47 -39 -54
-54 -13 -28 -23 -28 -169 -3 -81 14 -77 -5 -46 217 18 134 20 164 9 177 -17
20 -35 20 -55 1z m486 -385 c21 -6 40 -16 44 -21 12 -20 -20 -29 -104 -29 -74
0 -83 2 -80 17 7 37 71 52 140 33z"/>
<path d="M15021 20776 c-8 -10 -10 -52 -5 -148 l7 -135 -49 -7 c-106 -15 -206
-89 -169 -125 16 -16 26 -12 120 44 22 13 51 25 65 27 25 3 25 2 22 -57 -3
-74 -36 -238 -63 -317 -22 -61 -20 -88 5 -88 47 0 115 171 137 345 6 55 17
105 23 111 8 8 32 9 81 3 39 -4 108 -9 155 -10 47 -1 98 -4 114 -8 l30 -6 -43
-28 c-101 -67 -221 -219 -221 -280 0 -14 12 -40 27 -57 26 -32 28 -32 95 -28
99 8 197 58 275 142 l60 64 9 -179 c7 -143 13 -182 25 -195 13 -13 21 -14 38
-5 20 11 21 18 21 244 0 128 4 247 10 266 12 42 -1 61 -41 61 -24 0 -32 -9
-65 -71 -42 -79 -147 -184 -226 -225 -55 -28 -122 -41 -132 -25 -19 31 108
188 200 247 28 18 74 40 102 49 28 9 59 23 69 30 17 13 17 15 0 32 -15 15 -32
17 -110 15 -50 -2 -148 4 -217 12 -68 9 -154 16 -191 16 l-66 0 -7 38 c-3 20
-6 69 -6 107 0 39 -4 86 -10 104 -14 49 -45 66 -69 37z"/>
<path d="M14505 20666 c-73 -17 -156 -48 -210 -79 -32 -18 -41 -29 -43 -54 -3
-30 2 -35 65 -76 37 -24 89 -56 115 -71 98 -55 158 -127 161 -195 3 -78 -85
-178 -209 -236 -57 -27 -63 -27 -174 -13 -33 4 -39 -31 -9 -58 17 -15 35 -19
93 -18 63 0 81 5 151 40 92 45 190 131 216 189 55 120 -24 262 -198 353 -43
23 -89 51 -103 62 -31 25 -23 31 70 60 79 25 197 36 238 22 58 -20 107 31 60
62 -34 22 -151 28 -223 12z"/>
<path d="M17630 20571 c-132 -38 -218 -81 -240 -120 -17 -33 -12 -83 12 -108
26 -28 186 -81 353 -117 147 -33 202 -49 251 -74 45 -23 54 -37 54 -86 0 -55
-83 -151 -157 -183 -71 -29 -192 -8 -232 41 -8 9 -19 16 -27 16 -44 0 -11 -70
54 -111 98 -62 255 -28 350 75 88 95 105 195 46 258 -44 47 -117 74 -368 139
-230 59 -276 77 -276 104 0 56 281 129 388 102 59 -16 92 -5 92 29 0 53 -166
72 -300 35z"/>
<path d="M12465 20538 c-2 -7 -11 -57 -19 -111 -25 -155 -68 -218 -182 -268
-75 -34 -89 -4 -58 130 19 84 64 143 126 163 46 16 65 37 55 62 -15 38 -117 9
-180 -52 -55 -53 -86 -119 -98 -212 -12 -90 -2 -140 34 -165 55 -38 172 0 260
85 32 32 60 52 62 46 3 -6 9 -49 15 -96 12 -95 33 -133 74 -138 32 -4 43 17
27 56 -20 49 -50 334 -44 411 4 50 2 75 -7 86 -15 18 -59 20 -65 3z"/>
<path d="M11735 20459 c-54 -28 -87 -61 -148 -144 -72 -99 -70 -99 -62 -22 5
54 3 73 -9 92 -18 27 -47 32 -65 11 -10 -12 -33 -252 -35 -365 -1 -58 21 -74
61 -45 31 23 36 33 86 144 31 69 153 248 191 279 24 20 61 0 84 -46 11 -21 36
-98 56 -171 37 -137 55 -175 89 -193 15 -8 23 -7 34 4 13 13 13 18 0 43 -7 16
-26 81 -42 144 -49 203 -72 251 -132 276 -44 19 -61 18 -108 -7z"/>
<path d="M7165 18386 c-17 -12 -18 -17 -6 -42 7 -16 15 -79 18 -141 l6 -112
-56 -16 c-65 -19 -120 -53 -125 -79 -5 -22 25 -56 49 -56 10 0 38 14 62 30 25
17 50 30 56 30 6 0 11 -18 11 -44 0 -54 24 -81 46 -51 8 10 14 37 14 59 0 23
4 47 9 54 4 8 69 29 142 48 180 46 219 61 219 85 0 18 -6 19 -72 13 -40 -3
-115 -15 -167 -25 -52 -10 -100 -19 -107 -19 -8 0 -13 33 -15 119 -3 100 -7
122 -23 140 -22 25 -35 26 -61 7z"/>
<path d="M5092 18358 c-19 -19 -14 -35 15 -63 36 -33 73 -34 73 -1 0 29 -36
76 -59 76 -9 0 -22 -5 -29 -12z"/>
<path d="M3540 18344 c-363 -45 -611 -223 -741 -534 -67 -159 -78 -323 -30
-465 77 -230 288 -458 526 -570 208 -98 511 -165 678 -150 263 24 365 73 459
225 74 118 107 235 117 410 l6 115 1165 1 c672 1 1179 -3 1197 -8 39 -11 73 4
73 32 0 12 -11 22 -32 28 -20 6 -409 11 -973 12 -517 2 -1005 4 -1085 4 -80 1
-190 -1 -245 -4 l-100 -4 -7 54 c-24 175 -33 222 -55 283 -26 72 -55 129 -84
162 -9 11 -28 43 -42 70 -47 94 -126 159 -296 245 -116 58 -248 90 -386 95
-60 2 -126 1 -145 -1z m290 -75 c125 -23 333 -112 405 -175 29 -25 29 -25 5
-19 -14 3 -52 9 -86 12 -48 4 -63 2 -77 -11 -27 -27 -10 -43 51 -51 63 -7 149
-44 177 -75 13 -15 18 -35 17 -71 -1 -46 1 -50 21 -47 23 4 24 8 12 48 -7 22
-6 23 9 11 9 -7 16 -21 16 -31 0 -10 6 -20 14 -23 37 -15 122 -397 88 -397
-17 0 -30 -45 -20 -65 12 -21 5 -156 -13 -250 -15 -79 -96 -248 -147 -306
-178 -202 -734 -159 -1108 86 -92 61 -232 208 -283 298 -86 152 -96 187 -95
322 1 102 5 131 27 198 83 240 183 362 382 461 186 93 396 122 605 85z"/>
<path d="M3200 18011 c-55 -12 -99 -39 -120 -74 -24 -39 -57 -137 -66 -195 -6
-38 -11 -45 -58 -70 -54 -29 -69 -59 -41 -82 13 -11 22 -11 51 3 19 10 36 17
38 17 2 0 6 -29 8 -65 7 -79 43 -160 73 -160 29 0 31 43 6 115 -12 33 -21 76
-21 96 0 30 4 37 33 48 55 23 224 57 264 54 38 -3 38 -3 41 -52 2 -26 -1 -69
-7 -94 -11 -51 -7 -68 20 -83 15 -8 31 2 91 54 88 76 137 111 145 104 3 -4 0
-35 -7 -70 -12 -59 -12 -68 6 -102 11 -21 35 -47 55 -58 31 -18 38 -19 64 -6
16 8 45 36 64 63 29 41 35 58 35 103 1 50 -2 57 -36 89 -21 19 -47 34 -58 34
-10 0 -24 9 -30 20 -21 40 -105 18 -196 -51 -36 -27 -68 -49 -71 -49 -3 0 -2
12 1 26 4 14 2 41 -4 60 -25 74 -151 96 -309 55 -41 -11 -78 -18 -82 -15 -12
7 15 106 42 154 30 55 58 70 134 70 70 0 115 -23 140 -69 21 -42 52 -58 73
-37 14 13 13 20 -9 63 -45 86 -155 129 -269 104z m578 -417 c27 -19 28 -49 2
-92 -39 -64 -85 -13 -61 67 13 44 25 49 59 25z"/>
<path d="M3966 17588 c-8 -13 -17 -54 -21 -91 -5 -54 -3 -73 9 -92 20 -30 47
-32 71 -5 11 12 31 20 52 20 22 0 52 13 91 39 57 40 106 63 114 56 2 -2 0 -38
-6 -80 -8 -64 -7 -78 6 -91 23 -23 55 -2 67 44 15 53 25 156 17 185 -13 52
-84 43 -193 -24 -36 -21 -70 -36 -76 -32 -6 4 -25 6 -41 5 -27 -2 -28 -1 -22
29 11 55 -39 82 -68 37z"/>
<path d="M6914 18121 c-28 -31 -63 -74 -79 -96 -36 -52 -94 -97 -120 -93 -18
3 -20 11 -21 74 0 38 -4 76 -8 82 -12 20 -64 14 -76 -7 -16 -31 -12 -122 8
-161 19 -39 74 -80 107 -80 32 0 107 52 147 101 50 63 130 208 124 225 -9 24
-29 13 -82 -45z"/>
<path d="M6180 18151 c-126 -39 -178 -134 -211 -385 -23 -184 -23 -172 1 -196
26 -26 36 -25 57 7 14 21 18 51 19 152 2 149 14 209 55 273 49 76 159 113 217
72 29 -20 28 -27 -8 -68 -33 -37 -89 -60 -173 -72 -54 -7 -71 -29 -41 -51 13
-10 39 -13 84 -11 123 6 230 82 230 163 0 84 -126 147 -230 116z"/>
<path d="M5061 18133 c-20 -17 -20 -23 -11 -113 5 -52 14 -145 20 -206 5 -61
16 -129 23 -150 16 -43 45 -68 67 -54 12 7 12 23 -4 117 -10 59 -21 172 -25
249 -8 169 -21 197 -70 157z"/>
<path d="M8725 18119 c-287 -27 -592 -103 -676 -169 -82 -66 -34 -79 90 -25
159 70 349 109 618 125 376 24 590 -29 812 -198 114 -87 211 -218 245 -328 19
-63 23 -164 10 -254 -16 -107 -59 -207 -159 -368 -90 -146 -207 -248 -393
-342 -191 -96 -289 -115 -592 -115 -229 1 -238 2 -360 32 -228 57 -336 110
-433 212 -110 116 -162 251 -155 401 9 185 88 282 594 732 114 101 210 138
303 117 31 -7 47 -6 57 2 24 20 16 36 -26 53 -52 21 -90 20 -171 -2 -114 -32
-126 -41 -472 -354 -95 -87 -199 -189 -230 -228 l-58 -70 -66 25 c-86 33 -141
47 -363 96 -243 53 -451 104 -525 130 -33 12 -97 35 -142 51 -68 25 -86 28
-98 18 -27 -22 -17 -48 25 -70 52 -27 559 -158 787 -205 210 -42 325 -74 320
-89 -5 -14 -42 -23 -222 -51 -197 -30 -286 -48 -583 -119 -128 -31 -239 -56
-246 -56 -20 0 -37 -25 -30 -43 11 -31 65 -28 224 8 306 71 418 95 610 130
107 20 205 38 217 41 21 6 21 4 16 -88 -7 -120 7 -194 56 -293 78 -157 206
-278 367 -345 96 -40 275 -86 384 -100 192 -23 465 -8 630 35 181 48 430 192
543 315 111 120 237 362 262 504 19 112 19 158 -1 253 -40 195 -184 371 -418
511 -178 107 -443 150 -751 121z"/>
<path d="M5627 18090 c-14 -11 -35 -36 -47 -55 -18 -29 -25 -33 -50 -29 -41 9
-57 -23 -63 -124 -5 -77 -4 -85 20 -112 47 -56 66 -36 114 114 19 61 41 109
59 129 l29 32 11 -30 c6 -16 20 -72 31 -123 24 -117 41 -151 76 -152 22 0 24
39 8 132 -30 180 -61 238 -124 238 -23 0 -48 -8 -64 -20z"/>
<path d="M14601 17967 c-71 -36 -105 -113 -60 -137 36 -20 63 -9 70 30 5 21
20 45 39 62 33 27 38 60 10 65 -8 2 -35 -7 -59 -20z"/>
<path d="M11430 17945 c-7 -8 -14 -61 -17 -127 -3 -62 -8 -131 -12 -152 l-6
-40 -85 -13 c-115 -19 -255 -86 -255 -123 0 -16 9 -29 26 -39 24 -13 29 -12
85 22 58 35 176 77 216 77 19 0 20 -5 14 -52 -5 -47 -10 -150 -20 -381 -4 -80
12 -113 40 -85 9 9 20 36 25 60 7 39 26 287 32 418 l2 55 60 13 c33 7 128 13
210 15 l150 2 64 -33 c133 -70 140 -100 46 -203 -67 -73 -74 -86 -53 -107 21
-21 46 -13 80 24 45 50 143 119 214 150 161 72 454 148 454 118 0 -4 -33 -50
-73 -103 -101 -132 -177 -265 -177 -308 0 -8 11 -25 25 -38 89 -90 324 64 423
277 15 32 30 58 33 58 4 0 14 -39 22 -87 9 -49 29 -113 45 -143 25 -51 30 -55
62 -55 43 0 52 26 20 60 -22 23 -40 87 -60 215 -29 188 -41 215 -84 187 -16
-11 -31 -39 -46 -84 -34 -105 -88 -199 -152 -265 -81 -82 -198 -135 -198 -90
0 26 61 122 143 225 98 124 109 141 105 174 -3 26 -7 29 -62 37 -108 17 -371
-41 -518 -115 -68 -34 -78 -35 -78 -9 0 24 -53 86 -92 106 -15 8 -72 26 -126
40 -107 29 -234 35 -361 20 l-74 -9 7 44 c15 106 19 248 6 264 -16 19 -44 19
-60 0z"/>
<path d="M14970 17835 c-10 -12 -10 -25 -1 -58 15 -56 31 -178 25 -189 -3 -4
-20 -8 -38 -8 -73 0 -166 -53 -166 -94 0 -43 57 -49 102 -10 24 20 40 24 72
22 l41 -3 0 -240 c0 -132 1 -248 3 -257 1 -10 11 -18 22 -18 38 0 45 34 48
258 4 228 7 240 49 167 25 -45 43 -136 43 -219 0 -68 24 -126 51 -126 31 0 37
36 29 160 -10 156 -33 216 -113 294 l-60 59 -8 108 c-8 120 -27 169 -65 169
-12 0 -27 -7 -34 -15z"/>
<path d="M15330 17733 c-80 -29 -102 -54 -74 -84 21 -23 57 -25 74 -3 8 8 28
21 47 29 67 28 23 83 -47 58z"/>
<path d="M14165 17635 c-108 -29 -188 -94 -201 -160 -13 -73 33 -127 201 -230
99 -61 175 -120 175 -135 0 -24 -169 -38 -248 -20 -56 13 -82 0 -82 -41 0 -41
32 -52 155 -52 206 0 304 84 212 183 -36 40 -105 93 -221 172 -44 29 -88 65
-99 79 -17 24 -18 29 -3 56 26 52 141 93 258 93 61 0 71 -3 103 -31 60 -53 95
-205 95 -416 0 -116 1 -123 20 -123 11 0 27 12 37 27 23 34 30 207 14 314 -35
227 -103 299 -281 298 -47 0 -107 -6 -135 -14z"/>
<path d="M8491 17598 c-6 -18 -16 -67 -22 -108 -15 -102 -24 -122 -52 -120
-45 4 -57 0 -57 -19 0 -33 12 -52 37 -62 18 -6 23 -14 19 -26 -4 -9 -15 -49
-26 -89 -20 -78 -16 -120 13 -138 20 -13 36 5 37 39 0 11 13 63 29 115 l29 95
43 7 c64 11 243 26 251 21 4 -2 0 -20 -9 -40 -19 -46 -13 -111 13 -146 25 -33
76 -57 122 -57 54 0 181 37 224 66 157 102 86 268 -120 282 -50 3 -85 0 -115
-11 -28 -10 -97 -17 -211 -21 l-168 -6 4 28 c3 15 13 58 24 95 17 62 17 71 3
95 -22 41 -55 41 -68 0z m629 -286 c100 -48 -40 -152 -205 -152 -85 0 -94 20
-46 110 27 51 32 55 73 61 60 9 136 1 178 -19z"/>
<path d="M13279 17581 c-24 -19 -24 -21 -23 -208 1 -103 5 -206 11 -228 8 -37
11 -40 43 -40 33 0 39 6 100 97 88 132 152 197 238 241 39 20 75 37 80 37 23
0 45 -106 57 -265 8 -100 18 -135 39 -135 31 0 39 29 38 148 0 148 -23 254
-62 294 -33 33 -57 35 -131 10 -88 -29 -165 -88 -248 -188 -42 -51 -80 -90
-85 -86 -5 3 -6 72 -3 162 5 115 4 159 -5 168 -16 16 -22 15 -49 -7z"/>
<path d="M15636 17474 c-59 -19 -148 -84 -165 -121 -7 -16 -16 -65 -18 -110
-5 -72 -3 -85 17 -118 69 -112 260 -126 397 -29 63 45 83 78 83 140 0 166
-158 286 -314 238z m121 -75 c34 -13 80 -55 99 -91 8 -15 14 -48 14 -73 0 -74
-45 -105 -176 -121 -86 -11 -144 19 -160 80 -6 27 -5 29 17 21 42 -14 123 -17
152 -6 47 18 33 38 -38 54 -111 26 -140 60 -91 106 40 38 125 52 183 30z"/>
<path d="M16510 17401 c-53 -17 -271 -122 -298 -144 -22 -18 -23 -1 -1 47 25
58 20 96 -15 96 -32 0 -48 -23 -79 -108 -32 -88 -33 -103 -7 -127 31 -28 83
-14 195 51 105 61 302 147 317 138 16 -10 37 -61 53 -129 9 -38 21 -72 27 -76
6 -4 11 -33 11 -64 0 -32 3 -51 8 -44 5 9 9 5 12 -12 7 -34 4 -69 -6 -69 -4 0
-7 -12 -5 -27 2 -16 8 -27 16 -25 15 3 16 -25 1 -30 -17 -6 -3 -86 22 -127 11
-18 25 -31 32 -28 41 13 -7 508 -61 617 -37 76 -112 96 -222 61z"/>
<path d="M1014 16518 c-5 -7 -9 -96 -9 -198 l-1 -185 -84 -17 c-174 -36 -264
-79 -258 -122 4 -30 51 -26 173 17 55 20 118 37 140 39 l40 3 7 -50 c4 -27 20
-124 35 -215 15 -91 28 -196 30 -235 5 -97 10 -115 33 -115 26 0 40 29 40 80
0 46 -37 277 -70 434 -12 54 -18 101 -15 105 12 11 188 1 311 -19 111 -18 349
-68 418 -88 16 -4 31 -13 33 -19 2 -6 -30 -42 -72 -79 -93 -83 -170 -176 -224
-269 -52 -89 -53 -122 -6 -164 20 -17 37 -31 39 -31 2 0 26 -4 54 -10 122 -23
214 46 341 257 41 67 91 140 111 164 l36 42 80 -55 c130 -91 167 -104 196 -70
19 21 30 65 22 86 -8 21 -33 20 -55 0 -17 -15 -21 -15 -61 9 -24 14 -71 49
-106 77 -45 36 -69 49 -82 45 -30 -10 -89 -83 -160 -199 -36 -59 -84 -133
-106 -165 -46 -64 -123 -121 -164 -121 -42 0 -89 20 -95 40 -14 43 65 148 234
315 66 65 124 127 127 138 8 26 -10 43 -64 57 -26 7 -87 23 -135 37 -215 58
-483 103 -619 103 l-71 0 9 133 c5 72 9 159 9 192 0 58 -1 60 -27 63 -14 2
-30 -3 -34 -10z"/>
<path d="M4155 16180 c-87 -44 -120 -99 -70 -122 19 -9 29 -8 47 6 64 46 97
64 133 72 33 8 40 14 40 34 0 23 -4 25 -55 28 -39 2 -66 -3 -95 -18z"/>
<path d="M4536 16075 c-13 -14 -13 -20 0 -57 14 -41 34 -183 34 -250 0 -34 -3
-38 -53 -61 -87 -40 -114 -85 -63 -108 20 -10 31 -8 59 10 19 11 39 21 44 21
12 0 6 -132 -9 -178 -12 -38 -1 -56 28 -50 29 5 47 55 55 153 4 50 8 92 8 94
1 2 42 1 91 -2 101 -8 164 -32 176 -69 4 -13 8 -52 8 -87 1 -50 5 -66 19 -75
15 -9 22 -7 38 13 15 18 19 39 19 93 0 140 -64 190 -262 206 l-83 7 -6 120
c-6 138 -20 198 -52 220 -27 19 -32 19 -51 0z"/>
<path d="M4920 16040 c-14 -26 -2 -95 21 -116 12 -11 27 -14 44 -10 30 8 33
39 9 103 -13 34 -22 43 -40 43 -13 0 -28 -9 -34 -20z"/>
<path d="M14435 15896 c-12 -18 -13 -29 -5 -51 15 -40 48 -306 65 -528 18
-246 35 -773 35 -1137 0 -157 4 -348 10 -425 19 -277 31 -421 40 -485 12 -80
13 -147 2 -154 -4 -2 -41 -1 -82 4 -41 5 -203 11 -360 14 -157 4 -314 9 -350
11 -36 3 -186 7 -335 10 -268 6 -310 7 -582 21 -178 8 -210 10 -418 18 -93 4
-237 12 -320 17 -82 5 -197 11 -255 14 -58 2 -148 7 -200 10 -52 3 -151 8
-220 10 -69 3 -183 9 -255 15 -71 5 -224 12 -339 15 -233 5 -459 16 -956 45
-584 35 -704 39 -1180 47 -592 10 -757 10 -954 -1 -135 -7 -161 -11 -177 -27
-24 -24 -24 -41 -1 -69 l19 -23 99 19 c93 18 147 19 834 16 687 -3 1130 -17
1475 -47 33 -3 222 -12 420 -20 451 -19 657 -28 1625 -70 450 -20 660 -28
1070 -40 102 -3 304 -10 450 -15 146 -5 433 -15 638 -21 364 -12 373 -13 376
-33 2 -12 11 -95 20 -186 17 -167 25 -224 121 -905 77 -547 82 -597 136 -1530
41 -712 57 -1087 69 -1580 5 -231 15 -564 21 -740 11 -292 9 -696 -6 -1370 -2
-104 -7 -300 -10 -435 -3 -135 -12 -353 -20 -485 -27 -426 -34 -547 -40 -700
-3 -82 -10 -206 -15 -275 -18 -236 -22 -285 -25 -325 -14 -147 -25 -326 -26
-420 0 -60 -6 -147 -13 -193 -10 -67 -10 -87 0 -100 12 -16 14 -16 29 -1 26
25 35 92 46 344 5 127 14 277 18 335 23 270 45 631 77 1250 1 30 7 132 13 225
6 94 13 323 17 510 3 187 9 468 14 625 9 329 6 772 -9 1215 -5 171 -13 427
-16 570 -8 359 -24 847 -30 925 -5 57 -22 365 -55 1000 -26 483 -50 739 -115
1195 -71 496 -134 990 -135 1043 l0 33 143 -6 c78 -3 446 -7 817 -10 403 -3
788 -11 955 -20 246 -13 743 -41 1350 -75 105 -6 429 -31 720 -55 292 -24 616
-49 720 -55 105 -5 236 -15 293 -21 94 -11 104 -10 122 6 22 20 27 64 8 66 -7
1 -65 2 -128 3 -223 4 -526 23 -955 60 -398 34 -539 44 -760 56 -383 20 -556
30 -805 45 -140 9 -293 18 -340 20 -47 3 -161 9 -255 14 -253 15 -560 21
-1259 26 -345 2 -630 6 -633 8 -6 6 -18 140 -44 467 -17 214 -22 370 -24 805
-4 683 -16 922 -71 1415 -11 100 -53 141 -89 86z"/>
<path d="M3854 15840 c-29 -11 -64 -58 -64 -84 0 -37 48 -121 88 -153 20 -16
71 -52 113 -80 90 -61 146 -120 129 -137 -16 -16 -231 -11 -318 8 -89 19 -164
56 -190 94 -11 15 -30 62 -43 104 -27 96 -55 126 -97 109 -16 -7 -57 -43 -91
-82 -34 -38 -66 -69 -72 -69 -5 0 -9 38 -9 84 0 98 -11 136 -40 136 -40 0 -49
-35 -42 -167 8 -132 13 -146 66 -159 26 -6 35 0 105 75 42 44 79 81 83 81 3 0
16 -29 28 -64 41 -123 99 -173 250 -216 96 -27 268 -37 338 -20 132 31 154
119 53 213 -27 26 -94 75 -149 111 -98 63 -129 94 -119 120 14 37 211 23 283
-19 72 -42 115 -155 130 -338 7 -90 12 -101 37 -91 73 27 28 312 -68 439 -40
52 -84 74 -187 96 -98 20 -179 23 -214 9z"/>
<path d="M2730 15796 c-110 -30 -203 -103 -244 -191 -43 -89 -32 -136 41 -174
60 -31 161 7 237 90 31 33 56 64 56 70 0 13 20 11 25 -3 50 -144 80 -187 144
-206 44 -14 84 -4 95 23 8 23 -1 35 -26 35 -37 0 -103 78 -127 152 -12 37 -21
80 -19 95 3 24 7 28 32 26 37 -3 56 12 56 44 0 18 -9 28 -35 39 -42 17 -172
18 -235 0z m90 -74 c0 -26 -51 -102 -94 -139 -74 -66 -168 -95 -183 -56 -10
26 40 104 93 146 74 57 184 86 184 49z"/>
<path d="M5335 15746 c-5 -2 -35 -12 -65 -21 -67 -20 -122 -70 -145 -132 -16
-42 -16 -47 0 -88 48 -126 207 -185 330 -122 112 57 161 162 121 258 -26 62
-85 97 -173 104 -32 3 -62 3 -68 1z m95 -88 c45 -23 90 -77 90 -107 0 -31 -41
-82 -77 -98 -25 -10 -57 -14 -95 -11 -47 3 -64 10 -89 34 -33 31 -59 80 -59
114 0 35 94 85 165 89 12 1 41 -9 65 -21z"/>
<path d="M5808 15610 c-19 -15 -29 -36 -38 -86 -7 -37 -19 -79 -26 -93 -31
-59 -7 -121 48 -121 14 0 49 14 79 30 30 17 104 55 165 86 135 66 195 77 247
45 38 -23 47 -44 47 -109 0 -53 -18 -98 -59 -144 -64 -73 -21 -95 49 -25 102
101 118 238 37 324 -66 71 -162 71 -307 0 -52 -25 -124 -62 -159 -82 -35 -19
-66 -33 -68 -31 -3 3 9 45 26 94 36 106 35 96 15 116 -20 21 -26 20 -56 -4z"/>
<path d="M20503 15410 c3 -11 1 -23 -4 -26 -15 -9 -11 -84 5 -84 17 0 26 22
26 65 0 19 5 37 10 40 15 9 2 25 -22 25 -15 0 -19 -5 -15 -20z"/>
<path d="M21192 15370 c3 -8 0 -26 -7 -40 -15 -29 -40 -245 -30 -260 11 -18
32 -11 39 13 4 12 11 56 16 97 5 41 12 95 16 120 5 39 3 48 -16 65 -16 14 -21
16 -18 5z"/>
<path d="M20484 15257 c-7 -20 -2 -47 11 -50 14 -3 19 43 6 56 -7 7 -12 6 -17
-6z"/>
<path d="M3404 14946 c-18 -14 -19 -32 -24 -308 -3 -161 -2 -307 3 -324 9 -40
91 -117 142 -134 25 -8 64 -11 114 -6 152 12 290 113 362 263 73 154 14 235
-159 219 -130 -12 -215 -69 -303 -207 -35 -54 -68 -97 -74 -95 -5 1 -9 23 -9
47 9 318 9 540 0 549 -14 14 -29 13 -52 -4z m527 -376 c26 -15 24 -52 -7 -114
-79 -158 -265 -247 -406 -194 -26 10 -39 28 -20 28 5 0 30 33 57 73 85 126
137 170 240 203 50 16 110 17 136 4z"/>
<path d="M4304 14933 c-14 -14 -15 -27 -9 -82 4 -37 11 -181 14 -321 6 -252 6
-255 28 -258 32 -5 39 17 53 170 10 110 10 170 1 310 -7 95 -18 179 -23 186
-15 17 -44 15 -64 -5z"/>
<path d="M10660 14934 c-226 -82 -383 -343 -424 -704 l-12 -105 -103 -16 c-85
-13 -108 -20 -122 -38 -14 -17 -16 -27 -9 -42 13 -23 51 -24 135 -4 100 24 91
44 87 -207 -1 -123 0 -233 3 -245 6 -25 38 -31 52 -10 4 6 10 116 13 242 l5
230 175 7 c96 4 194 10 217 13 51 7 70 26 47 46 -13 11 -66 15 -221 17 -160 3
-205 6 -209 17 -7 18 60 314 87 385 33 87 88 186 130 234 88 100 255 153 352
112 45 -18 90 -73 82 -100 -18 -63 -18 -89 0 -102 25 -18 31 -18 55 6 15 15
20 33 20 75 0 86 -31 130 -120 176 -59 30 -176 36 -240 13z"/>
<path d="M16271 14776 c-7 -8 -10 -20 -6 -27 7 -10 28 -414 29 -559 1 -49 -1
-55 -21 -58 -46 -7 -36 -76 12 -88 32 -8 33 -13 39 -214 5 -126 2 -181 -9
-235 -18 -83 -7 -106 30 -63 37 43 48 123 41 283 -4 77 -8 160 -9 185 l-2 45
103 3 c70 2 165 -6 291 -23 103 -14 206 -25 228 -25 55 0 103 -10 103 -22 0
-5 -21 -34 -46 -63 -100 -118 -110 -246 -24 -336 45 -48 101 -64 215 -63 195
2 378 85 438 198 18 33 22 58 22 131 0 78 -4 98 -28 146 -53 108 -146 167
-301 190 -132 20 -294 -19 -331 -79 l-20 -33 -65 7 c-36 3 -130 17 -210 31
-80 14 -199 27 -266 30 l-121 6 -6 180 c-4 99 -7 232 -7 296 0 125 -11 164
-46 169 -11 2 -26 -4 -33 -12z m1199 -692 c70 -24 143 -92 159 -149 21 -77 14
-138 -21 -191 -42 -62 -101 -98 -208 -125 -181 -46 -360 -2 -360 89 0 42 65
148 132 214 37 37 68 74 68 82 0 33 -30 46 -106 46 -41 0 -74 4 -74 8 0 5 28
17 63 27 34 9 67 19 72 21 27 10 225 -6 275 -22z"/>
<path d="M1852 14735 c-43 -31 -73 -205 -71 -425 1 -157 17 -254 42 -258 36
-7 45 48 40 240 -5 135 -3 181 7 193 10 13 47 15 229 15 119 0 258 5 310 10
52 6 96 8 99 6 2 -3 -5 -17 -16 -33 -79 -113 -102 -251 -45 -269 10 -3 35 -15
55 -25 90 -47 213 20 310 169 22 34 44 62 48 62 10 0 16 -28 30 -130 6 -41 18
-91 28 -110 15 -31 21 -35 56 -35 55 0 68 23 34 63 -20 24 -30 59 -51 169 -15
76 -29 162 -33 191 -6 49 -24 82 -43 82 -19 0 -41 -40 -55 -103 -20 -86 -43
-130 -98 -188 -95 -101 -175 -141 -211 -104 -25 24 -21 72 11 140 42 88 140
164 212 165 64 0 93 65 38 84 -20 7 -42 4 -90 -13 -125 -43 -135 -44 -473 -45
l-330 -1 3 33 c1 18 10 44 19 58 13 20 14 30 5 49 -13 29 -29 31 -60 10z"/>
<path d="M21115 14620 c-3 -11 -3 -25 1 -31 10 -16 35 18 27 37 -7 20 -21 17
-28 -6z"/>
<path d="M4801 14555 c-67 -15 -117 -47 -155 -99 -17 -23 -21 -42 -21 -112 0
-83 0 -84 -26 -84 -24 0 -69 -32 -69 -48 0 -20 28 -32 75 -32 49 0 52 -1 103
-60 68 -77 183 -135 367 -184 247 -67 406 -83 413 -44 4 19 -14 25 -178 58
-187 38 -339 86 -437 138 -47 24 -115 90 -110 105 2 6 43 21 93 34 49 13 126
41 171 63 69 34 87 48 108 84 14 23 25 55 25 69 0 84 -203 147 -359 112z m177
-79 c170 -46 122 -112 -128 -175 -132 -34 -139 -32 -147 43 -13 112 116 174
275 132z"/>
<path d="M20443 14474 c-3 -8 1 -23 10 -31 13 -13 19 -14 31 -3 9 7 16 21 16
31 0 24 -48 26 -57 3z"/>
<path d="M11930 14300 c-100 -19 -124 -26 -134 -43 -15 -24 5 -52 35 -51 13 1
51 7 84 14 58 12 181 9 218 -5 28 -12 20 -28 -45 -93 -107 -106 -276 -223
-387 -269 -68 -27 -136 -31 -145 -6 -4 9 18 89 49 178 88 260 71 317 -72 251
-88 -41 -163 -99 -270 -208 -104 -106 -161 -177 -226 -284 -43 -71 -42 -68
-22 -88 27 -27 61 0 105 81 67 124 180 253 320 365 41 33 120 78 136 78 13 0
-7 -83 -45 -178 -39 -100 -61 -175 -61 -212 0 -12 13 -35 29 -51 25 -25 37
-29 84 -29 72 0 154 29 257 92 128 77 225 156 323 262 111 121 114 147 21 180
-50 17 -196 27 -254 16z"/>
<path d="M12892 14167 c-12 -13 -46 -79 -76 -148 -30 -68 -70 -158 -90 -199
-43 -89 -46 -117 -12 -126 49 -12 99 34 199 185 40 61 44 58 50 -38 3 -52 8
-68 26 -82 54 -44 157 -9 354 122 55 37 106 65 113 62 7 -2 22 -28 35 -56 20
-47 29 -128 29 -279 0 -5 9 -8 20 -8 37 0 52 42 53 147 1 117 -26 213 -73 258
-41 39 -74 30 -191 -53 -114 -80 -238 -145 -261 -137 -11 5 -19 30 -28 88 -27
187 -72 205 -148 59 -36 -68 -72 -118 -72 -99 0 18 76 167 106 210 46 63 51
111 14 115 -17 2 -33 -5 -48 -21z"/>
<path d="M20420 13990 c0 -11 7 -20 15 -20 8 0 15 9 15 20 0 11 -7 20 -15 20
-8 0 -15 -9 -15 -20z"/>
<path d="M20680 13844 c-6 -14 -10 -37 -10 -52 0 -15 -7 -36 -15 -46 -18 -24
-19 -57 -2 -80 22 -30 34 0 41 107 7 99 3 117 -14 71z"/>
<path d="M2280 13653 c-78 -30 -150 -117 -187 -226 -18 -55 -53 -222 -53 -258
0 -4 -27 -17 -59 -29 -89 -33 -114 -72 -64 -99 14 -7 30 -5 61 9 23 10 43 16
45 12 3 -4 1 -34 -4 -67 -9 -77 -11 -246 -2 -364 7 -102 21 -123 55 -82 16 21
18 45 18 277 0 233 1 255 18 262 9 4 67 7 128 6 123 -1 170 -16 208 -68 18
-24 21 -42 20 -137 -1 -97 1 -109 17 -114 28 -9 41 3 108 92 66 90 129 163
141 163 4 0 10 -34 13 -75 10 -109 37 -161 108 -204 37 -23 101 -27 146 -10
61 23 123 108 123 169 0 103 -150 240 -263 240 -17 0 -56 -7 -86 -15 -58 -15
-92 -43 -164 -132 -23 -29 -45 -53 -48 -53 -4 0 -12 20 -18 44 -18 71 -67 127
-136 155 -49 19 -81 24 -173 26 -62 2 -116 5 -118 8 -7 7 41 206 61 254 21 50
61 101 97 123 24 14 36 16 58 8 49 -16 88 20 62 58 -18 28 -74 41 -112 27z
m614 -587 c46 -19 116 -84 133 -123 21 -51 16 -87 -14 -118 -24 -23 -34 -26
-71 -22 -79 9 -122 81 -122 203 0 76 12 86 74 60z"/>
<path d="M5243 13194 c-3 -8 0 -49 7 -90 7 -41 13 -111 14 -156 l1 -82 -53 -8
c-91 -14 -116 -43 -72 -83 16 -14 24 -16 47 -7 16 6 39 12 53 14 23 3 25 0 22
-32 -2 -19 -10 -60 -18 -91 -8 -31 -14 -75 -14 -98 0 -35 3 -41 21 -41 28 0
53 61 73 174 9 49 18 91 21 94 10 10 205 15 205 5 0 -5 -12 -20 -26 -34 -27
-25 -54 -70 -54 -89 0 -25 49 -60 84 -60 57 0 86 17 156 91 77 81 80 80 80
-38 0 -115 36 -172 91 -143 16 9 19 17 14 33 -4 12 -16 87 -27 166 -10 80 -24
151 -30 158 -13 16 -105 17 -143 3 -40 -15 -332 -20 -343 -6 -5 6 -12 76 -16
155 -3 78 -11 152 -17 162 -12 24 -67 26 -76 3z m455 -416 c-30 -40 -96 -87
-121 -88 -17 0 -17 2 2 29 23 32 106 91 129 91 11 0 8 -9 -10 -32z"/>
<path d="M6166 13079 c-17 -10 -18 -24 -15 -173 l4 -161 -63 3 c-86 5 -113
-17 -72 -58 15 -15 33 -20 76 -20 l57 0 -7 -52 c-17 -127 -18 -167 -6 -202 8
-25 17 -36 31 -36 27 0 35 28 44 153 5 77 11 110 21 114 7 2 53 -4 101 -16 48
-11 117 -23 153 -27 62 -6 68 -9 125 -64 94 -91 232 -160 320 -160 63 0 41 27
-67 81 -101 50 -198 113 -198 128 0 4 36 12 80 18 99 13 130 31 130 77 0 48
-37 96 -99 128 -130 68 -268 8 -247 -106 4 -19 2 -37 -3 -40 -9 -6 -235 39
-277 55 -22 8 -22 11 -17 173 5 126 3 169 -7 181 -15 17 -37 19 -64 4z m561
-310 c37 -14 73 -48 73 -70 0 -21 -83 -43 -140 -37 -34 3 -35 4 -35 48 0 37 4
46 25 57 31 16 41 16 77 2z"/>
<path d="M4619 13035 c-89 -14 -159 -37 -159 -52 0 -20 33 -52 72 -70 24 -11
101 -37 172 -57 206 -59 243 -85 233 -161 -9 -65 -49 -136 -103 -183 -51 -46
-94 -59 -138 -42 -30 11 -66 5 -66 -11 0 -38 52 -69 114 -69 130 1 296 206
271 337 -8 44 -57 99 -114 127 -25 13 -93 38 -151 55 -202 61 -205 73 -17 72
131 0 152 -5 225 -54 51 -34 76 -32 80 5 4 34 -32 59 -128 88 -86 27 -186 32
-291 15z"/>
<path d="M3670 12970 c-46 -9 -108 -41 -203 -107 -43 -30 -82 -52 -85 -48 -4
4 -5 33 -4 66 7 120 -57 121 -118 2 -12 -24 -24 -43 -26 -43 -3 0 -15 7 -29
16 -22 14 -25 14 -44 -5 -12 -12 -21 -27 -21 -33 0 -7 -5 -42 -10 -76 -10 -72
-6 -89 21 -97 32 -11 62 18 98 93 33 67 51 83 51 43 0 -10 8 -25 18 -34 30
-27 75 -21 133 19 91 61 203 124 221 124 12 0 21 -13 28 -42 19 -70 33 -93 62
-96 38 -5 50 22 38 91 -10 63 -20 85 -47 108 -25 22 -43 26 -83 19z"/>
<path d="M12835 12884 c-27 -8 -73 -18 -101 -23 -133 -24 -267 -139 -344 -293
-102 -206 -70 -389 100 -559 123 -124 239 -168 398 -149 236 27 398 157 468
374 23 72 27 98 28 236 1 151 0 156 -28 213 -67 138 -218 218 -404 216 -37 0
-89 -7 -117 -15z m308 -92 c76 -35 125 -82 158 -148 21 -44 24 -61 23 -164 -3
-212 -67 -361 -199 -460 -87 -66 -149 -83 -287 -78 -103 3 -119 6 -181 35
-174 82 -285 262 -258 417 12 68 75 202 122 256 29 35 29 35 23 8 -10 -45 15
-34 85 36 35 35 81 72 103 82 36 16 44 16 104 2 73 -17 97 -8 87 33 -6 22 -5
22 75 16 62 -4 98 -12 145 -35z"/>
<path d="M16340 12675 c-10 -12 -8 -32 9 -102 30 -128 68 -394 81 -578 22
-304 38 -457 48 -467 6 -6 18 -8 28 -4 15 6 16 25 10 239 -8 269 -15 352 -61
672 -29 203 -46 255 -84 255 -10 0 -24 -7 -31 -15z"/>
<path d="M7284 12382 c-6 -4 -20 -27 -31 -52 -11 -25 -60 -99 -110 -165 -105
-141 -190 -265 -202 -298 -13 -33 2 -56 26 -41 36 22 337 432 359 490 17 45
17 47 -1 60 -21 16 -26 17 -41 6z"/>
<path d="M2520 12095 c-15 -18 -6 -41 23 -59 26 -16 72 13 72 44 0 22 -5 25
-41 28 -28 2 -45 -2 -54 -13z"/>
<path d="M4983 11984 c-3 -9 0 -97 7 -197 7 -100 11 -191 9 -202 -4 -19 -11
-20 -98 -17 -123 4 -174 -25 -123 -71 15 -13 39 -17 111 -17 l92 0 -3 -70 c-3
-72 8 -98 35 -87 9 3 20 30 26 64 19 94 3 87 222 90 204 1 294 15 294 43 0 22
-62 28 -288 29 l-198 1 2 78 c3 107 -12 333 -23 355 -11 21 -57 22 -65 1z"/>
<path d="M2536 11908 c-13 -20 -17 -77 -22 -315 l-7 -291 23 -7 c15 -5 28 -2
39 9 14 14 17 56 23 279 5 144 9 280 10 302 3 37 1 40 -24 43 -19 2 -31 -3
-42 -20z"/>
<path d="M4705 11749 c-22 -38 -53 -91 -70 -117 -40 -63 -147 -172 -168 -172
-20 0 -47 54 -47 93 0 26 -28 57 -52 57 -16 0 -48 -31 -48 -46 0 -34 35 -120
61 -149 37 -42 78 -46 138 -15 77 39 191 193 240 324 26 70 27 96 4 96 -12 0
-32 -25 -58 -71z"/>
<path d="M3130 11743 c-32 -12 -64 -51 -104 -128 l-41 -80 -3 45 c-4 50 -16
70 -43 70 -38 0 -52 -42 -44 -138 8 -94 16 -112 49 -112 35 0 82 59 121 152
58 138 78 139 110 7 19 -78 55 -129 89 -129 45 0 59 39 27 74 -11 12 -29 57
-41 101 -31 116 -67 157 -120 138z"/>
<path d="M3850 11741 c-84 -27 -126 -70 -175 -176 -38 -83 -49 -187 -50 -441
0 -122 3 -165 14 -177 18 -22 44 -21 65 2 15 17 17 44 15 237 -1 121 2 227 6
237 7 16 14 17 49 10 72 -14 187 -9 236 11 88 35 150 101 150 158 0 35 -50 92
-104 120 -44 23 -162 34 -206 19z m155 -70 c22 -10 48 -27 58 -39 17 -19 17
-22 3 -51 -21 -40 -54 -61 -124 -77 -74 -18 -126 -17 -161 1 -38 19 -42 35
-21 82 39 87 154 126 245 84z"/>
<path d="M12979 11258 c-12 -23 -10 -146 11 -733 10 -270 20 -369 46 -493 13
-58 20 -72 33 -70 10 2 15 13 14 28 0 14 -6 95 -12 180 -6 85 -13 363 -15 617
-2 355 -6 466 -16 478 -18 22 -47 19 -61 -7z"/>
<path d="M16325 10904 c-165 -26 -261 -60 -400 -140 -122 -70 -129 -78 -98
-109 26 -26 67 -13 184 57 58 35 142 76 187 91 223 74 521 72 602 -3 24 -22
30 -36 30 -69 0 -90 -45 -141 -255 -291 -401 -286 -510 -403 -458 -493 25 -42
127 -109 208 -135 98 -33 329 -73 425 -75 72 -2 85 0 88 15 4 19 -28 30 -148
48 -41 7 -97 18 -125 25 -27 7 -84 20 -125 30 -95 22 -187 65 -224 104 -27 28
-28 33 -16 56 22 41 155 162 270 247 58 43 160 118 227 168 67 49 140 112 161
139 48 61 69 134 53 184 -22 65 -106 124 -211 146 -85 19 -273 21 -375 5z"/>
<path d="M4140 10810 c-6 -10 -15 -115 -21 -232 -5 -117 -17 -283 -25 -368 -8
-86 -14 -172 -14 -192 0 -20 -4 -48 -10 -63 -10 -25 -10 -25 -40 -10 -55 28
-126 138 -195 302 -19 45 -47 62 -70 43 -26 -22 -16 -60 43 -173 60 -116 125
-197 199 -248 34 -24 43 -36 43 -59 0 -41 17 -46 49 -16 20 19 38 26 67 26 77
0 215 53 329 128 66 43 145 123 145 147 0 36 -34 26 -128 -37 -189 -127 -360
-192 -378 -144 -3 8 4 63 15 123 11 59 25 153 30 208 15 145 33 549 25 569 -9
22 -51 20 -64 -4z"/>
<path d="M13080 9154 c-137 -25 -234 -59 -264 -93 -16 -18 -17 -25 -8 -46 15
-32 39 -32 102 0 116 59 269 70 400 30 74 -23 134 -81 124 -122 -18 -73 -97
-165 -256 -297 -77 -64 -147 -134 -170 -171 -21 -36 -24 -112 -4 -158 21 -50
109 -125 189 -161 86 -40 274 -91 530 -147 202 -43 242 -46 242 -15 0 24 -55
44 -270 96 -349 85 -497 139 -580 211 -44 39 -68 83 -59 111 10 32 70 93 194
198 147 124 205 187 237 256 61 135 -10 241 -192 288 -66 17 -176 27 -215 20z"/>
<path d="M3079 9123 c-21 -24 -23 -160 -5 -298 12 -93 13 -121 3 -127 -15 -9
-96 -1 -211 22 -100 20 -116 18 -116 -15 0 -51 65 -75 225 -84 l120 -6 6 -75
c4 -41 10 -117 14 -168 6 -75 5 -96 -6 -102 -10 -7 -11 -16 -3 -37 11 -34 47
-42 75 -17 23 21 25 86 7 214 -6 47 -12 108 -12 135 l-1 50 120 7 c100 7 304
31 332 40 16 6 10 -18 -15 -62 -18 -31 -27 -62 -30 -105 -11 -192 194 -271
422 -162 97 47 149 95 187 173 43 88 45 156 6 236 -35 72 -77 114 -142 144
-120 56 -265 10 -337 -107 -18 -28 -64 -41 -208 -59 -188 -22 -332 -30 -345
-20 -20 17 -28 263 -11 329 16 58 9 94 -19 105 -27 10 -42 7 -56 -11z m977
-314 c66 -41 106 -147 85 -227 -16 -59 -90 -135 -167 -173 -54 -27 -79 -33
-157 -37 -93 -5 -94 -4 -128 26 -29 26 -34 36 -33 74 1 55 22 100 85 178 37
46 50 69 46 86 -13 69 188 123 269 73z"/>
<path d="M6267 9023 c-4 -3 -7 -75 -7 -158 0 -110 -3 -155 -12 -163 -7 -5 -44
-15 -83 -21 -85 -15 -168 -51 -188 -83 -20 -30 -30 -121 -20 -178 7 -35 13
-45 28 -45 17 0 21 10 28 70 5 50 13 76 29 92 29 31 93 60 152 69 56 8 56 20
-1 -136 -39 -103 -69 -158 -115 -207 -58 -61 6 -76 66 -15 21 20 47 55 59 77
22 44 87 229 87 250 0 7 8 22 18 34 14 18 34 22 122 30 95 8 135 6 102 -6 -32
-12 -135 -97 -162 -134 -37 -51 -37 -72 -4 -116 20 -27 32 -33 63 -33 20 0 60
11 88 25 53 27 155 121 206 193 51 70 53 65 33 -80 -15 -118 -6 -161 36 -166
18 -2 31 4 42 20 22 32 21 58 -4 58 -24 0 -24 -14 0 150 11 74 20 150 20 168
0 80 -53 99 -94 33 -14 -21 -35 -41 -48 -44 -13 -3 -106 -6 -206 -6 l-184 1 6
31 c14 86 18 238 6 267 -12 29 -46 41 -63 23z m411 -432 c-4 -12 -100 -89
-153 -123 -44 -29 -105 -47 -105 -31 0 23 110 115 166 138 61 25 98 32 92 16z"/>
<path d="M7365 8986 c-9 -13 -22 -71 -29 -128 -12 -92 -28 -164 -68 -313 -6
-23 -25 -52 -45 -71 -38 -35 -40 -57 -9 -99 13 -18 16 -18 40 -5 23 12 42 12
124 1 53 -7 120 -15 147 -18 41 -5 59 -14 100 -51 115 -104 211 -149 384 -182
169 -33 386 -22 347 17 -4 5 -74 11 -154 14 -166 8 -212 20 -400 105 -58 26
-112 66 -112 84 0 3 33 12 74 18 145 22 231 72 256 148 16 49 1 82 -58 121
-67 45 -151 67 -230 60 -142 -14 -200 -77 -189 -204 5 -46 3 -63 -6 -63 -22 0
-220 39 -225 45 -3 3 9 51 28 108 33 103 36 117 66 262 28 138 28 147 8 162
-25 18 -31 17 -49 -11z m551 -413 c67 -35 71 -46 27 -82 -48 -40 -140 -71
-232 -78 -86 -7 -101 3 -101 70 0 49 13 73 53 98 44 28 192 23 253 -8z"/>
<path d="M5350 8903 c-106 -16 -238 -73 -296 -128 -67 -63 -36 -140 83 -202
85 -45 182 -77 413 -138 208 -55 288 -83 309 -109 19 -22 -9 -75 -63 -123 -25
-22 -88 -62 -139 -88 -74 -37 -107 -48 -160 -52 -73 -6 -121 7 -138 38 -14 26
-49 25 -49 -1 0 -39 29 -78 76 -100 37 -19 57 -22 107 -17 113 9 246 67 356
155 60 49 81 86 81 148 0 44 -5 57 -29 83 -39 42 -112 74 -256 112 -397 104
-550 163 -550 213 0 12 22 32 61 55 93 56 150 71 273 71 92 0 117 -4 170 -25
65 -27 95 -26 105 2 12 30 -19 57 -85 76 -114 32 -199 41 -269 30z"/>
<path d="M16305 8661 c-50 -8 -65 -17 -65 -40 0 -32 21 -41 70 -29 63 14 204
4 271 -20 165 -59 499 -258 499 -299 0 -34 -186 -76 -450 -102 -126 -12 -136
-15 -144 -47 -17 -67 31 -146 275 -450 145 -180 218 -304 234 -397 6 -35 3
-42 -32 -77 -43 -43 -81 -56 -205 -72 -140 -18 -256 4 -415 78 -80 38 -93 40
-93 20 0 -49 153 -135 289 -160 104 -20 184 -20 295 -1 103 18 151 40 194 90
29 32 32 42 32 97 0 53 -6 75 -45 153 -43 88 -86 150 -320 465 -150 203 -162
240 -75 240 83 0 252 20 337 40 93 22 197 70 212 99 13 23 5 33 -84 103 -195
155 -469 290 -615 304 -30 2 -71 6 -90 8 -19 2 -53 0 -75 -3z"/>
<path d="M4 7290 c3 -294 8 -566 11 -605 3 -38 7 -100 9 -136 2 -36 7 -72 11
-79 4 -6 8 -62 9 -124 1 -61 8 -163 15 -226 7 -63 14 -131 16 -150 2 -19 6
-55 9 -80 3 -25 6 -91 6 -147 0 -77 3 -105 15 -116 12 -12 12 -21 3 -47 -7
-20 -8 -57 -4 -99 4 -36 9 -103 11 -148 2 -45 6 -87 10 -92 3 -6 8 -55 10
-109 3 -53 9 -176 15 -272 6 -96 13 -227 16 -290 2 -63 9 -149 14 -190 14 -99
21 -211 25 -343 2 -66 7 -113 15 -122 7 -8 9 -22 5 -32 -14 -34 -2 -263 16
-310 7 -19 6 -32 -6 -50 -15 -22 -15 -26 0 -49 11 -18 13 -29 6 -43 -6 -10 -8
-21 -5 -24 7 -7 16 -105 20 -212 2 -49 5 -147 7 -216 3 -69 10 -135 16 -147 9
-17 15 -104 12 -172 -1 -8 1 -53 4 -100 3 -47 7 -130 10 -186 2 -55 8 -111 13
-125 5 -13 6 -34 1 -46 -5 -15 -3 -25 6 -33 8 -7 12 -17 8 -24 -13 -21 -11
-131 3 -180 8 -30 10 -53 5 -60 -5 -6 -6 -30 -2 -52 5 -23 4 -49 -1 -58 -5 -9
-5 -23 0 -33 12 -21 24 -152 24 -254 0 -41 4 -81 9 -90 4 -9 9 -72 9 -140 1
-68 6 -151 11 -184 10 -61 16 -139 23 -300 5 -107 27 -221 41 -215 6 3 10 23
9 45 -2 75 -12 270 -18 335 -3 36 -8 97 -11 135 -3 39 -9 106 -14 150 -4 44
-7 118 -5 165 1 47 -1 89 -5 95 -9 12 1 71 12 68 4 -2 7 0 7 5 0 4 -6 7 -12 7
-8 0 -13 15 -14 40 0 22 -4 47 -7 55 -3 8 -6 26 -6 40 0 14 -2 50 -5 80 -8 79
-7 113 5 121 8 4 8 13 1 25 -14 28 -22 92 -12 96 5 2 3 23 -3 46 -10 39 -10
45 7 58 15 11 17 16 7 28 -8 10 -9 16 -1 21 14 9 13 26 -3 24 -32 -4 -36 1
-30 34 3 17 12 39 19 48 17 19 18 39 3 39 -5 0 -9 9 -7 20 2 10 -6 26 -17 34
-20 16 -20 16 3 22 21 6 22 10 15 63 -3 31 -5 82 -4 114 1 33 -3 65 -9 72 -8
10 -8 19 0 35 7 13 8 26 3 31 -5 5 -6 32 -3 60 6 43 4 53 -12 62 -21 14 -24
27 -4 27 10 0 13 11 10 43 -2 23 -6 89 -8 147 -3 58 -11 131 -19 162 -10 38
-11 60 -4 67 7 7 6 15 -2 25 -9 10 -9 16 -1 21 8 5 9 20 5 44 -4 20 -9 83 -12
141 -2 58 -6 134 -8 170 -1 36 -8 139 -14 230 -6 91 -13 212 -16 270 -3 58
-10 150 -15 205 -5 55 -12 152 -15 215 -3 63 -8 129 -10 145 -3 17 -7 84 -10
150 -3 66 -8 140 -12 165 -4 25 -8 72 -9 105 -1 33 -4 87 -7 120 -3 33 -9 103
-12 155 -3 52 -7 118 -10 145 -2 28 -7 88 -10 135 -3 47 -13 168 -21 270 -22
270 -23 288 -28 369 -3 40 -7 96 -10 125 -3 28 -8 87 -11 131 -3 44 -12 179
-21 300 -9 121 -17 231 -17 245 0 14 -4 59 -8 100 -11 92 -28 312 -35 440 -12
210 -15 79 -10 -430z"/>
<path d="M13072 7398 c-19 -19 -14 -56 11 -72 32 -20 150 -51 313 -80 203 -37
362 -101 457 -187 l42 -37 -28 -11 c-20 -8 -87 -7 -245 3 -237 15 -277 13
-293 -16 -15 -27 13 -111 57 -173 84 -118 264 -396 302 -465 50 -92 79 -177
94 -274 16 -105 -6 -186 -65 -243 -81 -77 -169 -111 -303 -120 -119 -8 -179 7
-244 59 -29 23 -57 38 -65 34 -39 -15 7 -91 76 -127 167 -85 420 -47 575 85
71 61 94 118 94 240 0 123 -26 216 -100 359 -48 94 -199 340 -294 480 -58 86
-59 101 -8 93 20 -3 123 -8 227 -11 168 -6 196 -5 244 12 64 21 79 40 65 80
-14 41 -144 144 -242 193 -110 54 -173 74 -352 110 -80 17 -172 41 -205 55
-67 27 -95 31 -113 13z"/>
<path d="M16506 6736 c3 -9 29 -23 58 -31 293 -87 430 -193 545 -420 177 -352
114 -669 -160 -804 -88 -43 -160 -61 -249 -61 -216 0 -501 95 -621 207 -115
108 -145 228 -96 385 62 197 242 430 386 500 30 15 71 24 116 26 91 5 131 38
89 73 -24 20 -148 -2 -229 -40 -125 -58 -290 -243 -384 -430 -160 -321 -77
-530 270 -677 133 -56 348 -104 465 -104 111 0 288 64 396 144 57 43 132 147
161 223 32 85 31 285 -1 397 -48 166 -119 290 -231 401 -119 119 -304 208
-459 222 -55 5 -62 4 -56 -11z"/>
<path d="M436 552 c-3 -5 -1 -26 4 -48 5 -21 10 -54 10 -72 0 -23 4 -32 13
-29 10 3 13 62 8 138 -1 11 -30 19 -35 11z"/>
<path d="M465 371 c-3 -5 -1 -12 5 -16 5 -3 10 1 10 9 0 18 -6 21 -15 7z"/>
<path d="M454 299 c-3 -6 4 -21 16 -33 20 -18 22 -19 16 -3 -3 10 -6 25 -6 33
0 17 -16 19 -26 3z"/>
<path d="M486 154 c-9 -24 -7 -72 3 -78 11 -7 21 18 21 54 0 33 -15 48 -24 24z"/>
<path d="M18440 91 c-27 -18 -112 -24 -121 -10 -6 11 -16 11 -51 2 -30 -8 -57
-9 -86 -2 -28 6 -49 6 -62 -1 -13 -7 -27 -7 -45 2 -22 10 -28 8 -46 -11 -20
-21 -22 -21 -39 -6 -16 15 -53 17 -290 19 -216 1 -273 -1 -279 -11 -6 -11 -14
-11 -44 2 -34 14 -45 14 -115 -1 -42 -9 -105 -15 -139 -15 -34 1 -64 -3 -68
-9 -3 -5 -22 -10 -41 -10 -19 0 -34 -5 -34 -11 0 -8 129 -9 468 -4 257 4 505
8 552 10 47 2 195 6 330 9 380 9 582 18 573 27 -4 4 -33 8 -63 8 -30 1 -99 1
-153 2 -54 0 -113 5 -130 10 -41 12 -98 11 -117 0z"/>
<path d="M19090 85 c0 -9 9 -15 21 -15 18 0 19 2 9 15 -7 8 -16 15 -21 15 -5
0 -9 -7 -9 -15z"/>
<path d="M18945 70 c-3 -5 1 -10 9 -10 9 0 16 5 16 10 0 6 -4 10 -9 10 -6 0
-13 -4 -16 -10z"/>
<path d="M19018 73 c6 -2 18 -2 25 0 6 3 1 5 -13 5 -14 0 -19 -2 -12 -5z"/>
<path d="M24070 69 c0 -5 5 -7 10 -4 6 3 10 8 10 11 0 2 -4 4 -10 4 -5 0 -10
-5 -10 -11z"/>
<path d="M23375 60 c-3 -5 1 -10 9 -10 9 0 16 5 16 10 0 6 -4 10 -9 10 -6 0
-13 -4 -16 -10z"/>
<path d="M23475 60 c3 -5 15 -10 26 -10 10 0 19 5 19 10 0 6 -12 10 -26 10
-14 0 -23 -4 -19 -10z"/>
<path d="M23566 60 c-15 -5 -16 -9 -7 -14 7 -5 18 -3 24 3 14 14 6 20 -17 11z"/>
<path d="M23242 49 c5 -14 21 -14 26 0 2 6 -4 11 -13 11 -9 0 -15 -5 -13 -11z"/>
<path d="M480 41 c0 -6 5 -13 10 -16 6 -3 10 1 10 9 0 9 -4 16 -10 16 -5 0
-10 -4 -10 -9z"/>
<path d="M22735 40 c3 -5 8 -10 11 -10 2 0 4 5 4 10 0 6 -5 10 -11 10 -5 0 -7
-4 -4 -10z"/>
<path d="M16890 30 c0 -5 5 -10 10 -10 6 0 10 5 10 10 0 6 -4 10 -10 10 -5 0
-10 -4 -10 -10z"/>
<path d="M21863 32 c-21 -2 -33 -9 -33 -18 0 -10 14 -14 59 -14 75 0 123 10
118 24 -4 11 -76 15 -144 8z"/>
<path d="M22329 27 c6 -8 8 -17 4 -20 -3 -4 4 -7 16 -7 19 0 20 3 11 20 -6 11
-18 20 -27 20 -12 0 -13 -3 -4 -13z"/>
<path d="M22381 35 c10 -10 80 -14 74 -5 -4 6 -22 10 -42 10 -20 0 -34 -2 -32
-5z"/>
<path d="M22485 30 c-3 -5 1 -10 10 -10 9 0 13 5 10 10 -3 6 -8 10 -10 10 -2
0 -7 -4 -10 -10z"/>
<path d="M22565 30 c4 -6 11 -8 16 -5 14 9 11 15 -7 15 -8 0 -12 -5 -9 -10z"/>
<path d="M21246 23 c-2 -3 -171 -6 -376 -8 -204 -1 -374 -5 -377 -9 -4 -3 204
-6 461 -6 370 0 467 3 463 12 -2 9 -30 13 -85 14 -45 1 -83 -1 -86 -3z"/>
<path d="M21513 23 c-27 -10 -11 -23 28 -23 36 0 40 2 29 15 -12 15 -34 18
-57 8z"/>
<path d="M21607 24 c-16 -16 -5 -25 26 -22 17 2 31 8 30 13 -3 12 -46 19 -56
9z"/>
<path d="M21697 23 c-17 -16 -3 -23 43 -23 38 0 50 4 50 15 0 11 -11 15 -43
15 -24 0 -47 -3 -50 -7z"/>
<path d="M22090 15 c7 -8 24 -15 38 -15 25 0 25 1 6 15 -10 8 -27 15 -38 15
-15 0 -16 -3 -6 -15z"/>
<path d="M21435 10 c-4 -6 7 -10 24 -10 17 0 31 5 31 10 0 6 -11 10 -24 10
-14 0 -28 -4 -31 -10z"/>
<path d="M20023 3 c15 -2 39 -2 55 0 15 2 2 4 -28 4 -30 0 -43 -2 -27 -4z"/>
<path d="M20178 3 c12 -2 30 -2 40 0 9 3 -1 5 -23 4 -22 0 -30 -2 -17 -4z"/>
<path d="M20298 3 c17 -2 47 -2 65 0 17 2 3 4 -33 4 -36 0 -50 -2 -32 -4z"/>
<path d="M20423 3 c9 -2 25 -2 35 0 9 3 1 5 -18 5 -19 0 -27 -2 -17 -5z"/>
</g>
</svg>
