<?xml version="1.0" standalone="no"?>
<!DOCTYPE svg PUBLIC "-//W3C//DTD SVG 20010904//EN"
 "http://www.w3.org/TR/2001/REC-SVG-20010904/DTD/svg10.dtd">
<svg version="1.0" xmlns="http://www.w3.org/2000/svg"
 width="3264.000000pt" height="2448.000000pt" viewBox="0 0 3264.000000 2448.000000"
 preserveAspectRatio="xMidYMid meet">
<metadata>
Created by potrace 1.12, written by Peter Selinger 2001-2015
</metadata>
<g transform="translate(0.000000,2448.000000) scale(0.100000,-0.100000)"
fill="#000000" stroke="none">
<path d="M4214 21525 c-15 -23 -16 -50 -9 -249 l7 -223 -134 -7 c-210 -11
-287 -9 -305 5 -17 15 -15 88 8 236 14 89 6 123 -35 145 -28 15 -46 -14 -46
-71 0 -25 -8 -108 -17 -183 -17 -137 -17 -138 3 -165 36 -48 81 -58 259 -57
88 1 179 6 202 11 56 14 63 4 63 -82 0 -79 29 -250 57 -335 17 -52 20 -55 54
-58 23 -2 40 2 49 13 11 13 9 20 -13 43 -14 15 -32 53 -41 87 -22 86 -43 322
-30 343 6 9 31 21 57 28 65 16 110 45 121 77 15 42 -6 57 -41 29 -35 -28 -61
-39 -99 -44 l-29 -3 0 75 c0 41 2 137 5 212 l4 138 -29 30 c-35 36 -40 37 -61
5z"/>
<path d="M8685 21443 c-33 -37 -119 -126 -191 -199 -72 -73 -148 -153 -169
-178 -37 -45 -38 -46 -58 -29 -45 41 -107 143 -132 218 -32 97 -37 102 -71 86
-25 -11 -26 -15 -22 -61 7 -69 58 -167 128 -245 33 -36 60 -68 60 -71 0 -4
-28 -37 -63 -74 -35 -36 -91 -107 -124 -157 -106 -159 -125 -249 -51 -241 28
3 32 8 52 68 12 36 33 85 48 110 29 49 174 233 187 238 4 1 50 -41 102 -94
137 -141 255 -213 330 -202 39 5 31 40 -11 52 -19 5 -60 25 -90 45 -69 45
-270 239 -270 261 0 9 88 110 196 225 207 221 250 275 240 300 -10 27 -30 16
-91 -52z"/>
<path d="M5330 21458 c-53 -56 -55 -68 -54 -303 2 -307 35 -561 87 -661 22
-43 50 -65 67 -54 12 8 12 15 2 52 -35 114 -43 150 -57 236 -8 51 -18 186 -22
300 -7 227 3 318 40 382 18 32 19 40 8 54 -19 22 -47 20 -71 -6z"/>
<path d="M7778 21448 c-29 -44 -44 -119 -68 -323 -26 -228 -79 -426 -134 -498
-38 -50 -51 -54 -93 -28 -76 47 -133 204 -203 554 -9 46 -17 61 -36 69 -21 10
-28 8 -45 -9 -24 -23 -23 -31 26 -203 14 -52 33 -120 40 -150 32 -126 101
-267 151 -309 47 -38 84 -46 140 -31 125 35 199 239 244 675 6 61 16 137 21
169 16 93 -7 139 -43 84z"/>
<path d="M6630 21332 c-41 -41 -72 -166 -90 -367 -15 -157 -30 -254 -40 -260
-24 -15 -81 120 -100 238 -6 37 -15 78 -20 92 -6 15 -10 36 -10 48 0 54 -22
98 -61 127 -22 16 -46 27 -54 24 -19 -7 -80 -128 -99 -194 -31 -108 -78 -372
-96 -540 -14 -124 -6 -160 35 -160 56 0 65 14 65 99 0 138 78 621 100 621 14
0 29 -33 41 -92 26 -125 88 -271 140 -328 39 -42 97 -43 131 -1 29 33 52 144
68 321 6 63 15 129 20 145 4 17 11 42 14 58 4 15 10 27 14 27 18 0 61 -124 96
-280 10 -41 23 -93 31 -115 7 -22 23 -80 36 -129 24 -95 38 -116 73 -116 41 0
46 18 21 73 -13 29 -49 158 -80 287 -32 129 -66 260 -77 291 -18 53 -98 159
-120 159 -5 0 -22 -13 -38 -28z"/>
<path d="M5170 20985 c-72 -42 -152 -58 -280 -55 -293 6 -265 8 -268 -22 -5
-44 23 -51 208 -52 144 -1 174 2 235 21 82 26 174 87 175 116 0 12 -43 7 -70
-8z"/>
<path d="M25060 19369 c-107 -65 -170 -139 -170 -201 0 -56 32 -81 136 -109
46 -12 84 -27 84 -33 0 -6 -45 -54 -100 -108 -55 -53 -107 -111 -114 -130 -31
-73 5 -116 115 -137 33 -7 62 -18 65 -25 3 -8 -11 -48 -32 -91 -64 -132 -55
-221 30 -313 44 -48 110 -87 132 -78 28 11 13 40 -47 95 -102 91 -106 123 -34
273 39 81 41 97 20 138 -15 28 -53 47 -142 70 -26 6 -43 17 -43 25 0 8 52 66
115 128 92 90 115 118 115 141 0 41 -46 81 -108 95 -71 15 -122 37 -122 53 0
36 113 132 174 149 28 8 36 15 36 32 0 50 -51 62 -110 26z"/>
<path d="M20033 19211 c-78 -56 -339 -399 -413 -542 -58 -113 -90 -200 -121
-327 -41 -175 -15 -345 82 -532 73 -140 225 -303 289 -311 72 -8 79 18 15 56
-109 63 -229 219 -286 372 -31 84 -33 95 -33 223 0 108 5 152 23 220 24 93 77
223 125 310 78 143 231 344 332 439 74 69 84 87 62 109 -18 18 -31 15 -75 -17z"/>
<path d="M23900 19145 c0 -14 11 -42 23 -63 55 -87 141 -359 155 -490 17 -149
-4 -312 -59 -476 -42 -124 -80 -206 -105 -227 -33 -27 -2 -75 34 -53 20 13 82
124 114 204 64 162 95 374 78 532 -21 185 -103 464 -166 561 -17 26 -31 37
-49 37 -20 0 -25 -5 -25 -25z"/>
<path d="M21948 19001 c-31 -25 -42 -64 -68 -239 -33 -234 -23 -592 17 -592
24 0 30 40 36 230 7 233 33 411 82 566 4 13 1 27 -10 38 -21 21 -27 20 -57 -3z"/>
<path d="M18546 18861 c-37 -41 -107 -343 -128 -550 -10 -102 -9 -123 6 -173
18 -62 39 -77 90 -64 33 8 117 80 165 142 55 70 114 109 158 105 16 -1 48 -64
58 -111 16 -76 66 -219 86 -244 31 -39 66 -50 96 -31 30 20 26 47 -6 55 -39 9
-59 47 -92 175 -46 178 -88 240 -163 238 -55 -2 -96 -30 -208 -146 -69 -71
-110 -107 -118 -102 -33 20 58 505 118 634 18 39 22 58 15 70 -15 24 -56 25
-77 2z"/>
<path d="M23449 18870 c-32 -19 -54 -101 -70 -260 -6 -63 -15 -120 -20 -126
-5 -6 -55 -14 -111 -18 -113 -7 -138 -19 -119 -55 17 -31 50 -35 135 -16 41 9
80 14 86 10 6 -4 10 -50 10 -114 0 -82 4 -111 14 -120 23 -19 33 12 40 129 4
58 11 109 15 113 5 5 28 13 52 18 90 20 115 29 137 49 51 48 15 59 -88 29 -51
-14 -84 -19 -90 -13 -11 11 17 158 49 251 26 78 27 109 2 123 -23 12 -22 12
-42 0z"/>
<path d="M22251 18664 c-64 -32 -163 -122 -185 -168 -29 -61 -13 -153 37 -220
39 -52 40 -55 12 -66 -21 -8 -26 -16 -23 -37 4 -35 28 -40 79 -18 23 11 47 15
61 11 75 -23 102 -27 187 -26 78 0 103 4 148 24 38 18 53 30 53 45 0 30 -16
34 -68 17 -70 -22 -135 -29 -207 -21 -49 5 -65 10 -65 22 0 9 28 45 61 81 126
134 154 284 68 357 -40 33 -90 33 -158 -1z m139 -69 c23 -60 -50 -213 -144
-304 -31 -30 -37 -33 -52 -20 -29 24 -54 91 -54 147 0 51 2 55 53 106 54 54
126 96 165 96 15 0 26 -8 32 -25z"/>
<path d="M21473 18650 c-77 -44 -124 -124 -159 -268 -16 -69 -19 -73 -41 -68
-12 3 -34 9 -48 12 -18 5 -27 2 -31 -11 -11 -28 9 -49 56 -61 43 -10 44 -11
56 -71 23 -115 89 -223 149 -249 76 -32 180 -2 173 50 -3 24 -34 27 -85 5 -50
-20 -78 -1 -115 77 -21 45 -32 87 -36 133 l-4 66 33 16 c98 47 225 190 250
282 12 45 -2 91 -32 107 -37 20 -112 11 -166 -20z m124 -46 c14 -38 -83 -179
-158 -228 -21 -14 -41 -26 -44 -26 -23 0 25 140 67 196 52 68 120 97 135 58z"/>
<path d="M17140 18631 c-7 -14 -6 -39 4 -88 24 -113 66 -364 66 -394 0 -24 -9
-32 -60 -60 -63 -33 -78 -55 -60 -89 15 -28 41 -25 85 10 43 34 55 32 55 -13
0 -18 9 -86 20 -152 20 -122 38 -161 62 -137 9 9 9 35 -1 120 -7 59 -16 139
-18 179 l-5 72 53 25 c30 13 94 39 143 57 115 43 131 72 38 73 -35 0 -72 -11
-141 -42 -52 -23 -96 -41 -98 -39 -2 2 -8 52 -13 110 -15 159 -47 357 -61 373
-17 20 -57 17 -69 -5z"/>
<path d="M22889 18620 c-89 -47 -159 -164 -159 -264 0 -122 92 -294 167 -312
29 -8 125 12 168 34 48 25 124 94 141 131 28 58 3 57 -67 -2 -80 -68 -118 -87
-183 -94 -45 -5 -54 -2 -77 21 -33 33 -59 123 -59 207 0 82 33 155 88 193 21
14 43 26 49 26 14 0 43 28 43 40 0 16 -32 40 -53 40 -12 -1 -38 -9 -58 -20z"/>
<path d="M16867 18623 c-20 -19 13 -93 41 -93 16 0 52 32 52 45 0 34 -71 70
-93 48z"/>
<path d="M20709 18602 c-75 -20 -145 -61 -160 -96 -15 -31 15 -89 74 -145 56
-54 67 -61 163 -111 43 -23 87 -50 97 -62 22 -26 22 -80 0 -126 -24 -51 -167
-190 -205 -200 -46 -12 -58 -36 -31 -64 20 -20 25 -20 64 -9 48 15 206 161
244 226 69 118 31 205 -122 276 -125 60 -236 175 -204 213 18 21 93 45 168 52
67 7 86 22 63 49 -16 19 -68 18 -151 -3z"/>
<path d="M17855 18251 c-174 -158 -196 -209 -145 -326 33 -75 104 -115 205
-115 90 0 218 64 231 116 11 42 -8 46 -58 13 -103 -67 -234 -71 -290 -9 -54
59 -27 135 83 231 136 119 151 135 147 166 -2 22 -9 28 -28 30 -19 2 -53 -23
-145 -106z"/>
<path d="M5416 18314 c-20 -19 -20 -24 -1 -51 19 -27 43 -201 65 -468 6 -66
13 -139 16 -162 l6 -42 -57 -16 c-53 -16 -66 -16 -184 -1 -211 27 -376 19
-626 -29 -44 -8 -126 -15 -183 -15 -107 0 -167 -15 -178 -45 -21 -55 112 -61
336 -15 202 42 379 56 506 40 196 -24 240 -24 310 -1 35 12 68 20 72 17 5 -3
12 -117 15 -253 4 -136 10 -305 13 -374 l7 -126 -24 -6 c-13 -4 -184 -7 -379
-7 -361 0 -502 -10 -658 -45 -133 -31 -213 -102 -152 -135 23 -12 37 -6 62 26
10 12 39 27 65 34 141 35 233 42 633 49 302 4 411 9 428 19 12 7 23 11 23 10
1 -2 3 -122 4 -268 3 -347 14 -935 20 -1080 3 -63 10 -227 15 -365 6 -137 15
-351 20 -475 17 -395 7 -676 -31 -858 -12 -60 -2 -82 37 -82 31 0 45 16 105
123 109 195 339 521 530 752 105 128 146 172 152 164 6 -8 141 -571 161 -669
65 -329 119 -808 161 -1430 8 -124 17 -259 21 -301 l6 -76 -238 3 c-132 1
-426 -4 -654 -11 -288 -10 -603 -12 -1030 -8 -621 6 -839 0 -1250 -32 -343
-28 -492 -51 -640 -100 -99 -33 -180 -80 -180 -104 0 -33 29 -32 98 3 126 63
253 93 537 126 370 44 599 51 1500 49 468 0 1057 3 1310 7 491 10 525 9 525
-11 0 -7 6 -18 14 -24 9 -7 15 -46 19 -119 3 -59 13 -194 22 -300 13 -146 15
-196 6 -205 -12 -12 -174 -14 -681 -8 -297 3 -470 -8 -785 -49 -918 -119 -920
-119 -1375 -210 -367 -73 -416 -84 -688 -157 -158 -42 -173 -48 -170 -67 2
-12 12 -22 24 -24 11 -2 112 21 225 51 207 55 853 188 1099 227 163 25 759
103 995 130 287 32 528 43 790 35 132 -5 317 -7 412 -7 134 1 178 -2 200 -13
55 -29 93 -11 93 43 0 23 -30 52 -53 52 -14 0 -17 11 -17 63 0 35 -7 133 -14
218 -28 297 -31 365 -12 372 21 8 20 33 -2 49 -16 11 -20 41 -31 243 -26 495
-84 1076 -142 1420 -29 171 -45 243 -153 691 -25 104 -46 199 -46 210 0 22
296 334 419 441 l76 67 1 280 c0 155 4 308 8 342 l8 61 282 8 c297 7 587 7
621 0 11 -3 103 -12 205 -20 578 -46 631 -49 648 -39 21 14 27 48 10 61 -15
12 -250 35 -648 64 -243 18 -335 20 -630 14 -190 -3 -374 -10 -410 -14 -73 -9
-83 -7 -75 19 3 10 7 185 9 390 l4 372 -34 60 c-71 126 -185 260 -443 523
-418 426 -512 523 -608 630 -147 164 -390 375 -432 375 -11 0 -27 -7 -35 -16z
m218 -223 c52 -45 123 -115 158 -155 35 -39 95 -105 134 -146 196 -208 475
-501 609 -640 160 -165 228 -250 295 -366 l42 -73 0 -363 c1 -271 -3 -407 -16
-538 -10 -109 -16 -251 -15 -375 l1 -201 -137 -134 c-76 -74 -176 -178 -223
-230 -51 -58 -97 -99 -116 -106 -24 -9 -31 -17 -31 -38 -1 -19 -20 -48 -67
-99 -185 -202 -330 -398 -550 -739 -24 -37 -47 -68 -52 -68 -4 0 -5 19 -2 43
21 140 24 356 11 656 -8 174 -21 465 -30 646 -8 182 -19 584 -25 895 -13 759
-19 990 -30 1215 -6 105 -12 240 -15 300 -13 259 -28 432 -51 574 -3 19 -1 32
4 30 6 -2 53 -42 106 -88z"/>
<path d="M5725 17735 c-50 -18 -69 -40 -90 -109 -20 -63 -15 -92 21 -135 46
-55 131 -64 200 -22 40 24 94 120 94 166 0 87 -116 139 -225 100z m112 -94
c45 -66 21 -131 -48 -131 -31 0 -47 7 -70 29 -35 35 -37 71 -8 112 18 26 26
30 62 27 34 -2 45 -9 64 -37z"/>
<path d="M5783 17004 c-7 -20 13 -248 27 -296 19 -64 82 -124 118 -111 22 9
12 41 -28 88 -22 25 -40 47 -40 48 -1 1 -5 59 -9 129 -8 126 -18 158 -48 158
-7 0 -16 -7 -20 -16z"/>
<path d="M5908 16396 c-62 -22 -135 -75 -148 -106 -25 -60 15 -80 68 -35 31
26 108 64 130 65 20 0 14 -42 -23 -156 -40 -122 -43 -154 -17 -177 30 -27 62
-20 179 37 107 52 123 66 123 107 0 26 -7 25 -107 -20 -108 -49 -143 -58 -143
-40 0 8 12 50 26 94 34 107 43 205 20 228 -21 20 -57 21 -108 3z"/>
<path d="M5929 15345 c-122 -82 -171 -139 -155 -180 10 -27 34 -16 82 35 51
55 78 67 45 21 -31 -43 -40 -74 -29 -95 9 -15 19 -17 72 -12 74 7 130 -10 134
-40 4 -30 -68 -106 -133 -140 -47 -25 -55 -33 -55 -57 0 -35 20 -43 72 -28
109 33 221 221 178 300 -13 25 -81 51 -130 51 -22 0 -40 4 -40 9 0 5 16 33 35
62 68 100 26 142 -76 74z"/>
<path d="M14875 18310 c-129 -14 -246 -77 -260 -139 -8 -37 21 -97 68 -138 19
-16 104 -64 189 -106 88 -43 163 -86 172 -99 39 -55 4 -133 -104 -230 -75 -69
-138 -97 -176 -79 -51 23 -68 -31 -21 -64 112 -78 429 184 401 332 -11 60 -85
122 -239 199 -159 79 -205 114 -205 154 0 63 100 99 295 109 127 5 140 8 143
25 7 34 -25 46 -112 45 -45 -1 -112 -5 -151 -9z"/>
<path d="M16539 18148 c-76 -95 -137 -199 -184 -317 -54 -134 -106 -208 -125
-181 -7 10 -10 86 -8 215 1 110 -1 210 -5 222 -11 31 -62 46 -95 29 -27 -14
-84 -88 -157 -205 -108 -173 -230 -301 -285 -301 -9 0 -25 9 -36 21 -17 19
-19 37 -19 178 1 116 5 172 18 219 19 67 16 96 -9 106 -24 9 -51 -11 -63 -46
-18 -59 -33 -190 -34 -298 -1 -85 3 -113 20 -150 24 -56 75 -100 113 -100 39
0 108 26 147 56 42 32 160 190 249 335 38 60 72 109 76 109 4 0 5 -71 1 -158
-6 -169 2 -236 39 -298 24 -41 49 -49 86 -30 56 29 111 121 191 316 17 41 51
109 76 150 68 115 78 139 64 156 -17 21 -22 18 -60 -28z"/>
<path d="M16739 18108 c-15 -27 -6 -140 26 -324 34 -198 49 -237 84 -215 17
11 17 28 -8 194 -12 76 -21 181 -21 233 0 53 -5 104 -10 115 -14 26 -56 25
-71 -3z"/>
<path d="M3537 17926 c-32 -14 -68 -32 -80 -42 -80 -65 -121 -162 -82 -194 19
-16 32 -6 56 46 23 48 45 67 126 108 121 60 168 12 152 -156 -14 -150 -79
-192 -145 -96 -24 35 -29 52 -31 109 -1 76 -6 89 -33 89 -89 0 -9 -279 91
-321 71 -29 154 23 180 113 30 102 6 274 -47 337 -23 27 -32 31 -77 31 -31 0
-75 -10 -110 -24z"/>
<path d="M2652 17833 c-23 -9 -34 -41 -21 -65 12 -23 28 -38 41 -38 16 0 68
54 68 71 0 29 -49 48 -88 32z"/>
<path d="M3026 17752 c-2 -4 -7 -23 -11 -43 -5 -28 2 -63 31 -149 40 -122 77
-179 108 -167 16 6 17 17 12 90 l-7 82 28 -35 c50 -64 141 -149 167 -156 32
-8 56 1 56 20 0 8 -29 38 -65 67 -35 29 -93 88 -127 131 -55 71 -65 79 -90 76
-26 -4 -28 -2 -28 28 0 18 -7 40 -16 48 -16 17 -49 21 -58 8z"/>
<path d="M2700 17672 c0 -64 147 -263 184 -249 25 10 19 35 -24 96 -23 31 -59
84 -80 119 -27 43 -46 62 -60 62 -15 0 -20 -7 -20 -28z"/>
<path d="M30052 17418 c-7 -7 -12 -23 -12 -37 0 -15 -9 -86 -20 -159 -11 -73
-22 -188 -25 -255 -7 -163 -13 -214 -31 -255 -7 -19 -18 -62 -24 -95 -8 -50
-7 -65 5 -84 9 -13 20 -23 25 -23 19 0 41 50 52 117 5 37 12 70 14 72 3 3 17
-10 32 -28 25 -31 33 -34 97 -38 57 -4 83 -1 140 19 91 32 155 72 155 98 0 34
-23 33 -103 -4 -109 -51 -237 -67 -250 -32 -15 40 68 165 165 248 119 102 130
115 118 138 -25 46 -84 10 -260 -158 -35 -34 -68 -62 -72 -62 -12 0 -10 18 22
245 16 116 30 226 30 246 0 35 -14 59 -35 59 -6 0 -16 -5 -23 -12z"/>
<path d="M28051 17266 c-7 -9 -18 -49 -23 -90 -9 -60 -8 -97 6 -188 32 -212
55 -353 61 -378 6 -24 5 -23 -25 8 -17 18 -39 32 -48 30 -23 -4 -27 -44 -7
-74 57 -87 274 -61 366 43 73 84 86 174 40 279 -25 56 -45 73 -88 74 -59 0
-121 -71 -163 -190 -39 -110 -40 -109 -61 80 -23 212 -24 235 -16 300 13 118
14 115 -9 118 -11 2 -26 -4 -33 -12z m291 -373 c20 -24 38 -79 38 -118 0 -43
-54 -121 -107 -155 -41 -26 -128 -48 -140 -36 -4 3 5 17 18 30 13 13 35 55 48
93 43 123 88 203 116 203 7 0 19 -8 27 -17z"/>
<path d="M26373 17209 c-5 -5 -25 -18 -44 -27 -27 -14 -34 -23 -34 -47 0 -16
-14 -57 -31 -90 -63 -121 -82 -259 -48 -358 20 -59 84 -132 130 -147 96 -32
181 -3 269 91 115 123 138 312 52 440 -30 45 -109 98 -160 106 -22 3 -48 14
-59 25 -20 20 -58 24 -75 7z m165 -115 c76 -37 107 -93 107 -194 0 -66 -5 -85
-33 -142 -31 -64 -90 -126 -149 -157 -57 -29 -133 2 -167 68 -22 41 -28 120
-16 196 11 76 63 194 105 239 22 24 31 27 63 21 20 -3 61 -17 90 -31z"/>
<path d="M3866 17154 c-26 -26 -19 -70 33 -192 27 -65 56 -133 64 -153 20 -48
75 -109 98 -109 41 0 36 38 -15 107 -32 44 -105 232 -113 291 -9 70 -33 91
-67 56z"/>
<path d="M30627 17132 c-23 -26 -21 -59 5 -73 19 -10 25 -8 44 15 18 20 21 32
15 49 -11 28 -42 33 -64 9z"/>
<path d="M23333 17093 c-9 -21 -18 -66 -21 -100 l-4 -63 -132 -127 c-98 -95
-148 -137 -198 -162 -74 -37 -143 -50 -177 -31 -20 10 -22 17 -17 58 12 107
12 107 -10 110 -29 4 -54 -38 -61 -104 -7 -70 10 -112 53 -130 139 -58 362 64
506 277 18 27 36 49 41 49 16 0 6 -65 -14 -86 -25 -26 -19 -53 11 -61 22 -6
26 -18 34 -100 6 -66 50 -156 74 -151 20 4 20 13 -2 128 -9 47 -16 97 -16 112
0 29 7 32 130 63 67 17 208 60 248 76 12 5 22 16 22 25 0 14 -8 16 -62 10 -35
-4 -125 -23 -202 -42 -76 -19 -140 -33 -143 -31 -11 11 -13 109 -4 196 7 67 7
99 -1 108 -19 23 -39 14 -55 -24z"/>
<path d="M20063 17077 c-29 -7 -58 -17 -64 -24 -17 -17 -3 -43 23 -43 18 0 6
-15 -62 -82 -84 -84 -172 -205 -211 -294 -34 -75 -32 -183 3 -250 93 -177 276
-189 506 -34 244 164 335 359 251 535 -30 64 -110 144 -174 175 -59 29 -185
37 -272 17z m245 -76 c48 -24 108 -90 133 -145 28 -63 25 -143 -9 -219 -22
-47 -48 -80 -108 -137 -164 -155 -338 -223 -434 -171 -48 25 -90 106 -90 172
0 95 89 253 214 381 55 57 78 72 139 92 10 3 17 15 17 29 0 13 2 26 5 29 9 9
92 -10 133 -31z"/>
<path d="M25223 17048 c-22 -28 -22 -37 -2 -62 27 -34 57 -34 70 0 18 48 -39
99 -68 62z"/>
<path d="M2953 17030 c-39 -23 -45 -66 -13 -95 19 -17 21 -17 55 6 43 29 54
62 30 89 -23 25 -32 25 -72 0z"/>
<path d="M27015 17001 c-80 -26 -114 -72 -76 -102 28 -23 46 -16 105 35 67 58
52 94 -29 67z"/>
<path d="M28974 16985 c-54 -27 -67 -44 -87 -114 -7 -25 -18 -46 -24 -48 -6
-2 -34 16 -62 41 -66 58 -99 61 -163 12 -112 -86 -188 -303 -110 -314 38 -6
55 16 48 60 -5 30 0 51 21 94 30 62 106 139 126 127 6 -4 32 -21 57 -37 25
-17 54 -36 65 -42 10 -6 28 -26 38 -45 30 -56 62 -79 112 -79 68 0 135 18 210
55 72 37 85 35 85 -12 0 -32 45 -63 92 -63 32 0 46 7 81 43 23 23 51 61 61 85
11 23 23 41 28 40 5 -2 19 -33 31 -69 29 -84 65 -131 120 -158 37 -18 49 -20
73 -11 58 22 53 60 -8 60 -73 0 -120 81 -148 257 -6 37 -16 60 -30 70 -11 8
-20 25 -20 39 0 58 -60 38 -168 -55 -38 -33 -79 -75 -91 -94 -23 -37 -31 -42
-151 -89 -103 -40 -195 -46 -195 -13 0 14 10 22 39 29 49 11 131 93 146 144
12 45 -8 86 -51 101 -47 16 -70 14 -125 -14z m106 -65 c0 -32 -47 -95 -84
-113 -19 -8 -37 -13 -40 -10 -20 20 15 115 47 131 12 6 34 11 50 11 21 1 27
-4 27 -19z m450 5 c0 -3 -13 -41 -30 -83 -30 -79 -99 -167 -123 -159 -22 7
-19 70 5 117 28 55 148 156 148 125z"/>
<path d="M3447 16959 c-29 -17 -47 -65 -48 -126 0 -59 -5 -56 -25 12 -7 22
-16 31 -36 33 -22 3 -29 -2 -34 -24 -13 -52 101 -244 145 -244 5 0 14 7 22 16
10 13 11 29 1 85 -17 96 -15 133 7 160 18 22 19 22 45 6 14 -10 39 -35 54 -56
27 -38 36 -54 92 -173 35 -77 65 -102 87 -72 7 10 12 21 11 24 -97 203 -144
282 -188 324 -51 48 -92 59 -133 35z"/>
<path d="M25765 16946 c-17 -7 -46 -36 -65 -65 -26 -38 -40 -50 -54 -47 -11 3
-28 0 -38 -5 -17 -9 -19 -18 -13 -62 9 -74 14 -86 37 -98 28 -15 40 -1 91 102
23 46 47 85 54 87 7 2 32 -36 57 -85 57 -114 121 -161 157 -117 11 14 9 20
-20 43 -20 17 -52 66 -84 131 -59 118 -77 135 -122 116z"/>
<path d="M20931 16922 c-7 -14 -6 -25 5 -40 32 -46 100 -10 74 38 -14 26 -65
27 -79 2z"/>
<path d="M24485 16925 c-5 -2 -73 -13 -149 -24 -76 -11 -143 -24 -148 -29 -5
-5 -8 -20 -6 -33 3 -21 8 -24 43 -23 61 1 265 43 305 62 19 9 35 24 35 32 0
14 -56 25 -80 15z"/>
<path d="M25229 16867 c-12 -27 3 -207 22 -269 17 -52 61 -103 82 -95 18 7 23
47 8 63 -13 14 -30 102 -36 196 -9 121 -11 128 -40 128 -17 0 -29 -8 -36 -23z"/>
<path d="M19195 16861 c-46 -28 -115 -109 -143 -170 -21 -45 -24 -64 -20 -125
12 -180 119 -265 317 -254 106 7 208 34 222 60 7 14 6 20 -6 24 -16 6 -27 5
-157 -16 -152 -24 -248 11 -283 104 -10 26 -15 49 -12 52 3 3 22 1 42 -6 56
-19 98 -5 160 52 56 51 86 97 99 151 10 40 -24 112 -63 131 -41 22 -119 20
-156 -3z m125 -61 c11 -11 20 -27 20 -35 0 -60 -106 -175 -160 -175 -39 0 -70
16 -70 36 0 50 93 168 144 183 44 13 44 13 66 -9z"/>
<path d="M18680 16841 c-96 -49 -94 -97 6 -179 69 -57 110 -126 100 -168 -10
-38 -123 -145 -192 -181 -67 -36 -107 -41 -150 -19 -28 15 -64 7 -64 -15 0
-20 49 -58 84 -64 95 -18 184 24 309 148 67 65 86 90 91 119 11 60 -24 127
-105 202 -38 35 -69 68 -69 72 0 5 19 25 42 45 37 32 41 39 29 53 -17 21 -16
21 -81 -13z"/>
<path d="M2942 16828 c-45 -45 67 -237 169 -288 47 -24 65 -25 73 -4 8 22 -17
60 -52 78 -58 30 -112 110 -112 165 0 49 -48 79 -78 49z"/>
<path d="M30732 16823 c-21 -40 -72 -461 -76 -627 -1 -48 20 -59 35 -19 14 36
36 160 44 246 5 63 30 209 55 330 11 56 0 87 -30 87 -11 0 -23 -8 -28 -17z"/>
<path d="M22319 16815 c-33 -18 -70 -102 -76 -174 -6 -75 25 -135 88 -169 90
-49 235 -12 294 76 65 95 9 194 -140 246 -27 10 -58 22 -67 27 -25 13 -69 10
-99 -6z m138 -82 c73 -23 123 -66 123 -105 0 -63 -99 -125 -172 -109 -101 23
-131 93 -83 195 20 42 46 46 132 19z"/>
<path d="M24635 16780 c-11 -4 -47 -16 -80 -26 -54 -16 -68 -16 -140 -4 -138
23 -189 24 -205 5 -26 -32 -1 -50 76 -53 38 -1 94 -6 124 -11 127 -20 306 39
274 90 -6 11 -22 11 -49 -1z"/>
<path d="M27001 16746 c-8 -9 -11 -85 -10 -249 0 -149 -4 -263 -12 -311 -14
-85 -7 -106 30 -87 41 23 53 96 60 371 4 140 3 263 -2 273 -9 20 -50 23 -66 3z"/>
<path d="M21006 16705 c-20 -21 -20 -39 0 -59 30 -30 84 -14 84 25 0 35 -59
58 -84 34z"/>
<path d="M17875 16690 c-34 -14 -142 -133 -168 -185 -40 -78 -67 -153 -67
-186 0 -97 106 -151 187 -96 35 23 78 98 89 155 9 42 21 49 47 24 62 -56 239
-96 254 -56 9 23 -8 34 -71 44 -119 19 -181 70 -195 160 -4 27 -13 56 -20 64
-10 11 -9 19 0 34 10 16 10 23 0 36 -15 18 -26 19 -56 6z m-5 -162 c0 -104
-33 -199 -83 -246 -31 -30 -63 -22 -70 16 -6 29 32 155 60 200 21 34 74 92 85
92 4 0 8 -28 8 -62z"/>
<path d="M17297 16675 c-51 -18 -138 -76 -188 -126 -120 -120 -150 -266 -71
-342 44 -42 124 -68 229 -74 78 -5 103 -2 162 17 72 23 112 53 95 70 -7 7 -43
3 -104 -11 -140 -31 -266 -11 -325 51 -25 26 -27 34 -22 80 12 97 81 189 190
248 35 19 51 22 98 17 47 -5 58 -3 63 10 10 26 7 34 -16 49 -37 22 -70 26
-111 11z"/>
<path d="M3996 16280 c-78 -40 -88 -49 -84 -78 5 -40 32 -51 71 -28 95 56 106
61 117 50 22 -22 26 -81 17 -245 -6 -91 -7 -178 -3 -193 10 -41 48 -51 99 -25
150 75 341 276 281 296 -6 2 -57 -36 -112 -85 -93 -81 -168 -132 -194 -132 -8
0 -8 39 -3 123 11 162 7 233 -15 283 -21 49 -25 51 -76 59 -31 5 -51 0 -98
-25z"/>
<path d="M10230 16273 c-17 -22 -20 -40 -20 -134 0 -108 0 -109 -28 -123 -38
-20 -64 -51 -60 -73 4 -18 24 -21 64 -8 21 6 22 3 28 -102 9 -129 12 -143 35
-143 39 0 45 25 33 119 -7 49 -12 102 -12 119 0 34 5 36 129 63 54 11 96 41
88 62 -5 14 -14 14 -126 -2 -45 -7 -85 -10 -88 -8 -2 3 0 54 5 113 5 60 7 114
5 121 -9 23 -33 22 -53 -4z"/>
<path d="M3097 16162 c-27 -30 -31 -74 -9 -102 25 -31 48 -21 63 30 21 68 -15
115 -54 72z"/>
<path d="M9191 16063 c-143 -148 -187 -264 -136 -352 35 -60 67 -76 148 -75
184 2 304 155 237 301 -20 45 -87 96 -141 108 -37 8 -36 16 2 37 38 22 38 61
0 66 -20 3 -42 -14 -110 -85z m74 -94 c75 -20 131 -96 118 -159 -13 -69 -155
-115 -231 -76 -65 34 -64 112 4 200 37 49 47 52 109 35z"/>
<path d="M3590 16053 c-14 -10 -35 -16 -48 -14 -53 7 -65 -39 -33 -130 26 -76
59 -127 92 -144 26 -14 29 -13 38 2 6 12 5 45 -3 93 -14 91 -11 120 13 120 25
0 86 -57 124 -115 24 -38 38 -50 57 -50 15 0 26 6 28 17 4 20 -37 86 -92 148
-80 89 -125 108 -176 73z"/>
<path d="M9585 16036 c-13 -19 -17 -50 -17 -138 0 -141 13 -191 62 -240 31
-32 44 -38 79 -38 86 0 168 70 260 223 52 86 63 132 31 132 -8 0 -34 -29 -57
-65 -96 -151 -147 -200 -208 -200 -75 0 -98 54 -99 225 -1 104 -3 120 -18 123
-9 2 -24 -8 -33 -22z"/>
<path d="M3179 16009 c-18 -18 -21 -29 -16 -72 9 -76 57 -169 101 -196 61 -38
78 3 27 67 -36 46 -55 104 -47 144 11 57 -29 93 -65 57z"/>
<path d="M23891 16016 c-19 -22 -33 -236 -26 -386 l7 -136 -70 -28 c-81 -33
-127 -74 -118 -104 11 -33 32 -33 78 2 37 29 107 61 114 54 3 -5 47 -298 53
-365 8 -78 24 -98 52 -64 24 29 24 25 -5 184 -13 73 -27 162 -31 199 -6 66 -6
67 22 81 15 8 75 29 133 47 58 18 128 40 155 50 50 17 69 42 41 53 -19 8 -119
-14 -244 -53 -56 -17 -107 -28 -113 -24 -9 5 -10 58 -4 208 4 111 8 221 9 246
1 39 -2 45 -20 48 -11 2 -26 -4 -33 -12z"/>
<path d="M5050 15955 c-74 -7 -171 -17 -215 -23 -44 -6 -117 -14 -163 -18 -90
-7 -131 -27 -119 -57 7 -20 46 -21 152 -7 199 28 436 52 565 58 131 6 145 9
148 26 2 10 -2 22 -10 27 -18 12 -197 9 -358 -6z"/>
<path d="M28132 15958 c-23 -23 -13 -156 23 -333 23 -113 35 -196 35 -251 0
-77 2 -84 25 -103 35 -27 65 -15 148 57 71 61 122 123 156 187 28 53 26 72 -9
90 -67 34 -170 7 -230 -62 -17 -19 -33 -33 -36 -31 -4 5 -25 115 -45 243 -6
39 -9 100 -5 136 5 56 3 68 -10 73 -24 9 -39 7 -52 -6z m314 -413 c9 -22 -37
-87 -109 -156 -93 -89 -103 -80 -56 46 26 70 45 93 94 110 52 18 64 18 71 0z"/>
<path d="M20442 15943 c-19 -36 -34 -160 -33 -266 2 -152 32 -434 57 -532 19
-74 57 -135 84 -135 28 0 35 23 17 52 -22 34 -36 92 -52 225 -28 232 -35 390
-23 492 6 53 12 114 12 136 1 36 -2 40 -26 43 -18 2 -30 -3 -36 -15z"/>
<path d="M26481 15904 c-23 -16 -23 -20 -18 -123 4 -92 29 -250 68 -430 11
-53 33 -75 51 -50 11 17 4 112 -18 239 -9 52 -17 158 -19 235 -2 128 -4 140
-21 143 -11 1 -30 -5 -43 -14z"/>
<path d="M24830 15830 c-107 -18 -205 -45 -228 -63 -18 -14 -11 -47 13 -63 17
-11 27 -10 63 7 47 22 154 49 267 69 98 17 107 20 103 38 -7 34 -69 38 -218
12z"/>
<path d="M29682 15817 c-26 -27 -44 -78 -82 -223 -42 -165 -46 -201 -25 -224
25 -27 36 -25 74 14 l34 35 36 -25 c29 -19 48 -24 101 -24 84 1 173 34 178 68
4 28 -13 28 -119 5 -64 -13 -83 -14 -108 -4 -39 17 -44 34 -20 65 27 35 147
123 233 171 58 33 71 45 71 65 0 37 -52 39 -118 5 -104 -55 -237 -166 -257
-215 -12 -29 -30 -41 -30 -19 0 23 64 207 87 251 14 26 23 54 20 62 -9 23 -50
19 -75 -7z"/>
<path d="M25424 15799 c-39 -11 -50 -36 -28 -60 19 -21 45 -24 72 -10 9 6 29
12 45 16 20 4 27 11 27 29 0 36 -45 46 -116 25z"/>
<path d="M26992 15744 c-29 -20 -28 -45 2 -73 27 -25 49 -23 84 10 28 25 16
52 -29 68 -18 6 -33 11 -33 11 -1 0 -12 -7 -24 -16z"/>
<path d="M30333 15694 c-7 -19 5 -43 30 -58 13 -8 22 -6 38 10 17 18 19 25 10
43 -14 26 -68 29 -78 5z"/>
<path d="M20963 15653 c-16 -6 -17 -57 -3 -84 13 -24 32 -24 53 -1 41 45 3
107 -50 85z"/>
<path d="M28941 15624 c-15 -11 -46 -17 -85 -18 -50 -1 -71 -6 -103 -28 -46
-30 -163 -161 -163 -182 0 -7 9 -21 20 -31 19 -17 21 -17 41 1 12 10 39 46 61
79 39 60 99 115 125 115 9 0 13 -16 13 -60 0 -75 31 -161 71 -195 57 -47 105
-19 56 33 -28 29 -61 108 -53 129 3 8 17 10 39 6 30 -4 40 0 76 32 29 27 41
45 41 65 0 57 -86 91 -139 54z m64 -54 c8 -14 -13 -40 -32 -40 -7 0 -16 7 -20
16 -10 26 38 47 52 24z"/>
<path d="M29193 15620 c-42 -25 -55 -52 -57 -117 -1 -50 2 -57 31 -84 41 -36
54 -32 120 40 33 36 55 52 61 46 5 -5 19 -43 31 -84 24 -79 63 -131 100 -131
30 0 34 17 13 53 -11 17 -37 89 -58 159 -39 132 -56 156 -90 127 -11 -9 -20
-9 -40 0 -37 16 -75 14 -111 -9z m107 -49 c0 -14 -64 -95 -75 -95 -18 -1 -17
70 0 88 17 17 75 22 75 7z"/>
<path d="M25425 15593 c-11 -11 -15 -26 -11 -47 3 -17 10 -78 16 -136 19 -184
43 -270 76 -270 24 0 31 38 17 104 -7 33 -18 122 -24 196 -6 74 -15 143 -20
153 -12 21 -33 22 -54 0z"/>
<path d="M26003 15596 c-23 -11 -52 -46 -107 -130 -42 -63 -81 -118 -87 -122
-21 -12 -30 20 -24 84 5 53 3 63 -11 69 -12 4 -25 -3 -42 -22 -21 -25 -24 -36
-20 -96 4 -83 32 -122 83 -117 26 3 40 18 105 115 82 123 107 153 125 153 7 0
21 -42 34 -97 37 -157 50 -199 70 -217 28 -25 54 -10 48 28 -10 66 -68 311
-80 335 -14 31 -48 37 -94 17z"/>
<path d="M24557 15575 c-24 -23 -21 -42 8 -61 21 -14 46 -16 158 -12 145 6
197 19 197 49 0 28 -20 32 -99 22 -65 -9 -125 -5 -212 12 -27 5 -40 3 -52 -10z"/>
<path d="M22557 15527 c-19 -19 -55 -77 -80 -128 -104 -208 -98 -402 15 -477
50 -33 117 -33 201 -2 146 55 242 186 254 350 13 163 -71 254 -247 270 -41 4
-83 10 -93 15 -13 5 -26 -2 -50 -28z m215 -71 c63 -28 93 -61 108 -118 21 -76
-15 -205 -76 -277 -42 -49 -87 -74 -166 -91 -51 -12 -59 -11 -89 6 -62 37 -74
64 -74 172 1 86 5 107 33 179 36 89 63 130 96 143 41 17 112 11 168 -14z"/>
<path d="M23521 15546 c-8 -9 -10 -27 -6 -45 9 -43 -12 -278 -31 -343 -31
-102 -101 -228 -129 -228 -40 0 -98 101 -140 245 -21 73 -26 109 -25 195 2
151 3 142 -22 138 -40 -5 -50 -42 -45 -163 9 -188 76 -378 162 -454 20 -17 44
-31 54 -31 58 0 158 135 201 272 21 68 49 297 46 383 -1 35 -4 40 -27 43 -14
2 -31 -4 -38 -12z"/>
<path d="M30277 15518 c-27 -36 -75 -161 -114 -296 -35 -123 -39 -158 -18
-166 9 -3 21 -4 26 0 16 9 49 85 85 192 45 133 79 211 107 240 27 29 14 56
-31 60 -24 3 -35 -3 -55 -30z"/>
<path d="M19455 15488 c-46 -23 -112 -75 -168 -131 l-38 -38 -32 25 c-50 38
-101 56 -158 56 -64 0 -102 -11 -196 -57 -85 -41 -176 -131 -194 -192 -16 -54
3 -85 107 -172 l87 -72 -6 -79 c-4 -60 -12 -94 -34 -136 -25 -52 -31 -57 -63
-60 -63 -5 -80 -11 -80 -32 0 -10 9 -25 21 -33 25 -18 86 -7 146 29 34 19 46
35 63 82 27 70 36 163 21 219 -12 44 -72 110 -141 156 -68 44 -43 127 59 201
129 92 280 107 334 34 19 -25 19 -31 7 -81 -10 -44 -10 -65 0 -108 24 -104 84
-167 193 -201 73 -23 156 -20 307 11 120 25 130 29 130 52 0 18 -23 26 -55 19
-145 -29 -311 -38 -362 -19 -79 29 -143 106 -143 172 0 32 3 32 35 11 66 -43
182 -8 273 83 133 133 119 284 -28 283 -25 -1 -62 -10 -85 -22z m130 -67 c16
-52 -71 -156 -169 -202 -74 -35 -78 -35 -112 -6 l-27 24 22 37 c27 42 130 132
176 152 47 21 102 18 110 -5z"/>
<path d="M26969 15424 c-23 -25 -24 -30 -27 -217 -4 -213 2 -306 23 -334 13
-17 15 -17 32 0 16 16 19 43 23 250 5 198 8 237 23 265 14 26 16 37 6 48 -18
22 -53 17 -80 -12z"/>
<path d="M4193 15263 c-156 -105 -173 -121 -173 -153 0 -42 34 -59 63 -32 117
104 180 153 188 145 6 -6 -8 -62 -36 -141 -50 -147 -55 -192 -25 -222 24 -24
23 -24 86 -6 78 22 134 26 141 11 8 -22 -39 -113 -101 -195 -31 -41 -55 -82
-54 -90 7 -33 39 -21 91 34 41 42 64 57 98 65 75 17 699 129 784 141 152 21
285 65 285 94 0 22 -25 26 -82 11 -29 -8 -156 -32 -283 -54 -126 -21 -335 -58
-464 -81 -128 -22 -236 -39 -239 -35 -3 3 2 20 11 39 21 44 31 100 23 130 -8
32 -55 40 -157 25 -44 -6 -83 -8 -87 -5 -3 4 15 69 40 144 26 75 49 151 52
168 6 37 -16 74 -44 74 -10 0 -63 -30 -117 -67z"/>
<path d="M17403 15240 c-69 -14 -152 -65 -278 -170 -96 -81 -139 -170 -136
-280 4 -104 60 -173 176 -216 80 -29 266 -25 370 9 81 27 125 50 125 68 0 14
-58 11 -91 -7 -49 -25 -178 -46 -241 -39 -136 14 -210 48 -250 113 -17 28 -19
42 -13 95 10 89 46 160 112 221 121 110 238 160 329 139 36 -8 48 -8 60 4 18
19 18 26 -4 46 -21 20 -104 29 -159 17z"/>
<path d="M20922 15108 c-21 -21 -14 -57 12 -70 30 -13 51 -6 66 21 20 38 -47
80 -78 49z"/>
<path d="M17864 15066 c-58 -27 -101 -76 -144 -167 -47 -101 -37 -194 29 -260
48 -48 96 -58 148 -32 44 22 64 58 91 162 l19 74 24 -47 c35 -70 104 -130 167
-146 40 -9 56 -9 67 0 22 18 7 37 -33 44 -78 12 -182 169 -198 300 -12 92 -72
118 -170 72z m90 -34 c3 -5 -13 -44 -34 -87 -22 -43 -40 -82 -40 -88 0 -5 11
-7 25 -5 30 6 30 2 6 -84 -31 -114 -64 -143 -109 -95 -31 33 -44 76 -36 122
10 63 63 152 118 201 52 45 61 50 70 36z"/>
<path d="M3332 14920 c-43 -26 -59 -62 -44 -95 16 -35 44 -31 81 10 33 38 37
55 21 86 -13 24 -17 24 -58 -1z"/>
<path d="M3791 14804 c-17 -14 -43 -53 -58 -86 l-28 -60 -5 58 c-5 55 -7 59
-30 59 -17 0 -29 -8 -39 -29 -12 -26 -10 -40 14 -135 33 -128 54 -175 79 -179
27 -6 34 12 34 97 1 83 21 153 54 188 30 32 41 29 85 -21 41 -47 83 -149 83
-203 0 -29 21 -63 39 -63 17 0 31 27 31 61 0 91 -101 297 -161 330 -31 16 -66
10 -98 -17z"/>
<path d="M3238 14745 c-15 -32 -1 -81 57 -200 49 -100 113 -190 135 -190 31 0
21 51 -28 140 -54 100 -92 194 -92 228 0 49 -52 64 -72 22z"/>
<path d="M28620 14711 c-12 -8 -12 -15 -2 -44 19 -53 15 -284 -7 -412 -31
-176 -58 -287 -90 -366 l-30 -74 21 -18 c32 -27 50 -17 83 44 63 117 113 170
211 225 58 33 134 47 134 25 0 -22 -58 -74 -155 -139 -57 -39 -113 -73 -124
-77 -53 -17 0 -54 57 -40 78 19 271 165 301 228 25 52 21 71 -20 87 -76 32
-208 -9 -306 -95 -28 -25 -54 -42 -56 -38 -3 5 6 50 19 102 13 51 29 130 35
175 15 111 14 359 -3 394 -14 29 -43 38 -68 23z"/>
<path d="M26861 14405 c-65 -15 -152 -54 -158 -72 -6 -17 26 -43 52 -43 13 0
39 9 57 19 69 41 199 62 252 41 24 -9 24 -11 14 -42 -6 -18 -40 -85 -76 -148
-38 -69 -71 -144 -84 -190 -19 -70 -19 -78 -4 -113 32 -78 178 -103 286 -49
38 19 56 34 58 50 4 27 -5 27 -86 2 -86 -27 -133 -26 -160 3 -44 47 -25 123
72 287 65 110 95 193 80 218 -28 46 -178 64 -303 37z"/>
<path d="M25858 14389 c-25 -14 -22 -31 10 -61 28 -28 39 -31 85 -29 25 1 28
5 25 28 -2 18 -15 35 -37 50 -37 25 -57 28 -83 12z"/>
<path d="M30313 14355 c-12 -9 -24 -30 -27 -48 -32 -202 -50 -291 -67 -340
-24 -64 -17 -87 27 -87 20 0 29 11 50 55 15 31 31 58 36 61 5 3 24 -8 44 -25
72 -64 164 -79 279 -46 58 17 78 34 66 54 -10 16 -41 17 -110 2 -76 -16 -121
-14 -161 8 -25 13 -35 25 -35 42 0 23 18 37 205 163 124 83 153 138 77 144
-52 4 -146 -47 -226 -125 -35 -35 -68 -63 -73 -63 -6 0 -18 -10 -28 -22 -14
-17 -22 -20 -30 -12 -8 8 -4 40 16 119 25 104 26 109 8 122 -22 16 -25 16 -51
-2z"/>
<path d="M24151 14294 c-19 -24 -21 -40 -21 -153 0 -149 16 -387 35 -525 11
-74 20 -105 35 -120 38 -39 43 -13 30 165 -12 161 -12 163 9 180 32 26 143 42
292 40 104 -1 139 2 148 13 18 21 -6 33 -81 40 -106 12 -237 8 -311 -7 -41 -9
-70 -11 -73 -5 -3 5 -5 91 -3 191 2 100 0 188 -4 195 -13 19 -34 14 -56 -14z"/>
<path d="M30025 14221 c-13 -26 -21 -31 -53 -31 -68 0 -186 -95 -199 -161 -5
-26 -9 -29 -45 -29 -31 0 -46 7 -70 30 -36 36 -33 52 10 55 41 3 62 21 62 52
0 34 -72 66 -128 57 -29 -4 -47 -1 -66 11 -37 24 -120 15 -180 -20 -25 -15
-85 -70 -133 -122 l-87 -95 27 -24 c42 -36 41 -37 119 68 62 82 102 118 162
143 33 14 41 14 60 2 12 -8 28 -35 35 -58 31 -106 140 -177 211 -139 14 8 30
6 56 -5 60 -25 74 -20 142 52 34 36 65 63 69 59 4 -3 8 -38 9 -76 2 -85 22
-123 62 -118 23 3 26 7 23 28 -3 14 -5 97 -5 185 l-1 160 -32 3 c-27 3 -34 -2
-48 -27z m-55 -115 c0 -19 -111 -99 -122 -88 -15 15 77 102 110 102 6 0 12 -6
12 -14z"/>
<path d="M27564 14201 c-51 -23 -59 -42 -33 -75 19 -25 69 -37 69 -17 0 4 14
25 30 46 23 29 28 41 19 51 -15 19 -36 17 -85 -5z"/>
<path d="M25015 14176 c-27 -20 -12 -43 37 -57 24 -6 88 -26 143 -44 109 -36
183 -49 204 -36 21 13 6 40 -26 46 -28 6 -139 45 -243 84 -64 24 -89 26 -115
7z"/>
<path d="M31033 14173 c-21 -8 -14 -42 12 -59 35 -23 75 -12 75 21 0 35 -46
55 -87 38z"/>
<path d="M20770 14050 c-63 -11 -137 -37 -190 -68 -70 -40 -189 -126 -195
-141 -9 -22 4 -49 26 -56 22 -7 28 -3 129 75 84 65 197 112 270 114 53 1 55 0
52 -24 -4 -29 -55 -135 -113 -235 -69 -118 -157 -298 -184 -378 -16 -48 -25
-98 -25 -137 0 -53 3 -64 27 -86 71 -66 167 -56 351 37 68 34 136 72 150 84
15 12 44 32 65 44 44 27 51 61 12 61 -28 0 -76 -22 -113 -51 -29 -23 -155 -83
-240 -115 -67 -26 -141 -31 -160 -12 -47 47 36 276 196 544 32 55 71 125 85
158 26 56 35 129 19 152 -20 30 -93 46 -162 34z"/>
<path d="M25891 14014 c-37 -26 -51 -74 -51 -171 0 -115 17 -272 32 -300 14
-28 47 -40 60 -22 5 8 6 57 2 110 -3 53 -6 139 -7 192 0 86 2 100 21 120 53
56 5 114 -57 71z"/>
<path d="M26428 14007 c-14 -13 -37 -42 -51 -63 -41 -65 -98 -112 -137 -116
-28 -2 -36 -8 -38 -26 -5 -31 13 -50 54 -58 43 -8 58 4 126 101 27 39 55 70
61 70 14 0 26 -59 27 -135 1 -111 25 -160 76 -160 30 0 34 17 19 81 -7 30 -17
97 -22 149 -15 155 -56 211 -115 157z"/>
<path d="M30970 13998 c-11 -18 -38 -88 -60 -156 -22 -67 -49 -141 -61 -163
-25 -50 -19 -72 18 -67 30 3 56 47 121 203 18 44 42 98 53 120 22 46 24 66 7
83 -23 23 -57 14 -78 -20z"/>
<path d="M24871 13921 c-33 -9 -50 -36 -33 -53 14 -14 311 -31 374 -22 38 6
55 26 35 42 -12 9 -281 43 -327 41 -14 -1 -36 -4 -49 -8z"/>
<path d="M22823 13890 c-92 -22 -199 -133 -224 -233 -22 -88 21 -221 86 -263
18 -12 50 -16 112 -17 78 -1 95 2 148 27 72 35 146 95 175 140 28 46 26 101
-7 166 -24 45 -35 56 -73 70 -39 15 -45 22 -48 50 -3 26 -10 35 -45 51 -44 20
-72 22 -124 9z m98 -61 l24 -20 -42 4 c-32 4 -46 1 -58 -13 -25 -28 -9 -43 36
-36 110 18 220 -104 175 -193 -25 -48 -115 -109 -185 -127 -82 -21 -124 -11
-165 40 -29 36 -31 43 -31 121 0 76 2 87 30 126 45 65 111 106 186 118 4 1 17
-8 30 -20z"/>
<path d="M23853 13873 c-24 -22 -77 -89 -128 -163 -21 -30 -74 -94 -118 -142
-87 -97 -115 -108 -154 -65 -33 36 -45 66 -57 146 -11 69 -14 76 -36 79 -30 5
-50 -21 -50 -64 0 -59 39 -163 77 -205 35 -38 37 -39 105 -39 l71 0 66 68 c95
97 282 378 264 396 -10 10 -19 7 -40 -11z"/>
<path d="M27525 13781 c-44 -19 -75 -74 -149 -270 -54 -142 -58 -164 -30 -175
37 -14 48 3 114 176 42 108 59 140 91 170 65 62 48 129 -26 99z"/>
<path d="M21252 13768 c-19 -19 -14 -46 12 -63 27 -18 52 -11 67 17 21 39 -47
78 -79 46z"/>
<path d="M19518 13710 c-57 -38 -122 -123 -150 -196 -12 -31 -27 -58 -34 -61
-7 -3 -26 7 -41 22 -38 37 -121 89 -162 103 -53 18 -140 14 -191 -9 -85 -39
-120 -88 -120 -171 l0 -52 107 -104 c123 -119 153 -156 153 -189 0 -61 -74
-148 -155 -184 -34 -15 -47 -16 -77 -7 -44 13 -68 6 -68 -21 0 -22 35 -44 86
-55 103 -22 294 138 294 246 0 65 -28 107 -147 221 -120 117 -135 144 -110
194 21 41 89 75 146 75 58 0 105 -23 198 -97 l71 -56 11 -77 c15 -103 57 -188
123 -247 29 -26 63 -52 77 -59 47 -24 133 -39 196 -34 102 9 222 73 200 108
-10 16 -39 12 -99 -16 -120 -55 -229 -40 -313 44 -46 46 -94 135 -108 200 l-7
32 62 0 c103 0 174 45 224 144 49 97 47 181 -6 241 -41 47 -94 49 -160 5z
m113 -61 c18 -34 5 -113 -24 -158 -49 -73 -133 -119 -185 -100 -20 8 -21 10
-8 53 20 64 58 127 112 180 51 51 86 59 105 25z"/>
<path d="M18116 13469 c-84 -73 -122 -203 -114 -390 5 -118 22 -159 79 -193
72 -42 123 -8 180 119 19 41 39 75 45 75 7 0 18 -10 27 -23 20 -31 113 -77
162 -80 34 -2 40 1 43 20 2 16 -3 23 -26 28 -48 10 -118 60 -149 107 -25 35
-31 57 -36 118 -7 97 -21 130 -57 130 -53 0 -59 -34 -34 -193 5 -27 0 -52 -16
-90 -31 -71 -87 -157 -103 -157 -54 0 -61 221 -11 372 11 35 31 61 72 98 47
42 55 53 46 68 -20 31 -68 27 -108 -9z"/>
<path d="M17543 13450 c-110 -26 -354 -240 -439 -386 -36 -62 -32 -144 12
-206 39 -56 120 -111 203 -140 123 -43 361 -25 361 26 0 20 -45 21 -102 4 -98
-29 -307 43 -374 130 -71 93 -56 153 72 290 96 103 209 184 289 208 57 16 77
42 55 69 -13 16 -28 17 -77 5z"/>
<path d="M21450 13330 c-16 -30 -4 -56 32 -71 57 -24 88 22 44 66 -30 30 -61
32 -76 5z"/>
<path d="M8391 12813 c-52 -63 -127 -230 -161 -360 -27 -101 -36 -123 -56
-132 -58 -26 -6 -63 142 -101 131 -34 284 -20 470 41 105 35 146 58 170 93 24
38 13 63 -68 144 -87 88 -156 123 -297 152 -55 11 -107 23 -116 26 -18 7 -17
24 6 100 16 53 8 74 -30 74 -22 0 -37 -10 -60 -37z m49 -184 c24 -12 87 -30
140 -41 128 -26 199 -59 256 -120 25 -27 44 -54 41 -61 -2 -7 -21 -22 -42 -34
-124 -69 -426 -125 -509 -93 -23 9 -26 15 -26 62 1 84 64 308 88 308 4 0 28
-10 52 -21z"/>
<path d="M7916 12738 c-78 -27 -136 -84 -136 -133 0 -41 39 -90 109 -137 58
-39 121 -98 121 -114 0 -13 -48 -22 -139 -27 -62 -2 -85 -23 -61 -52 13 -15
28 -17 115 -12 217 11 241 83 71 211 -71 54 -126 108 -126 126 0 20 49 63 105
93 103 55 60 87 -59 45z"/>
<path d="M7314 12710 c-25 -10 -28 -17 -60 -130 -24 -85 -30 -144 -18 -175 8
-19 61 -47 129 -66 70 -20 253 -19 265 1 17 28 -13 38 -139 48 -187 15 -202
35 -146 193 28 81 31 109 13 127 -14 14 -15 14 -44 2z"/>
<path d="M3483 12571 c-52 -32 -106 -122 -111 -184 -7 -91 42 -174 130 -223
46 -24 66 -29 149 -32 134 -6 251 31 351 110 41 32 98 113 98 139 0 30 -47 75
-102 99 -105 46 -354 35 -484 -21 -63 -27 -76 -19 -36 21 29 28 38 32 72 27
40 -5 60 6 60 34 0 43 -77 61 -127 30z m457 -143 c86 -27 102 -64 48 -115 -54
-51 -115 -83 -195 -104 -87 -22 -131 -24 -204 -8 -58 13 -119 60 -139 109 -11
27 -10 33 6 51 60 67 352 107 484 67z"/>
<path d="M29266 12527 c-17 -12 -19 -46 -31 -383 -8 -239 -9 -373 -2 -381 5
-7 21 -13 36 -12 22 0 31 10 55 62 53 112 204 227 298 227 33 0 38 -3 38 -23
0 -58 -175 -211 -282 -248 -66 -22 -75 -33 -47 -53 32 -22 55 -20 118 9 145
68 301 221 301 295 0 37 -26 57 -89 71 -95 20 -167 -8 -273 -108 -37 -35 -72
-62 -77 -59 -5 4 -7 23 -5 44 2 20 8 143 13 272 5 129 12 242 16 251 7 18 -18
49 -39 49 -7 0 -20 -6 -30 -13z"/>
<path d="M27420 12480 c-30 -5 -113 -8 -183 -9 -129 -1 -167 -9 -167 -37 0
-30 49 -36 185 -25 72 7 151 14 178 18 64 8 62 -5 -19 -97 -109 -123 -126
-165 -81 -194 12 -7 73 -28 135 -46 209 -61 221 -114 70 -333 -59 -87 -67
-117 -30 -117 32 0 68 36 125 123 117 178 120 272 12 334 -21 11 -81 34 -134
49 -53 15 -102 32 -108 38 -10 9 4 31 60 94 111 128 128 153 125 182 -3 23 -7
25 -58 26 -30 1 -80 -2 -110 -6z"/>
<path d="M26118 12417 c-10 -8 -18 -21 -18 -29 0 -34 124 -55 137 -22 15 39
-82 80 -119 51z"/>
<path d="M31357 12332 c-18 -20 -32 -73 -73 -292 -14 -74 -34 -166 -45 -205
-16 -60 -17 -71 -5 -83 22 -22 61 -7 85 33 l20 35 64 -35 c84 -46 153 -53 284
-30 100 17 183 46 183 63 0 5 -7 15 -15 22 -11 9 -30 8 -87 -5 -40 -9 -113
-19 -163 -22 -106 -6 -158 8 -189 50 l-21 29 36 31 c71 63 146 119 224 168 87
54 103 72 85 95 -20 23 -62 16 -115 -21 -27 -20 -67 -47 -87 -60 -21 -14 -74
-61 -119 -105 -45 -45 -84 -79 -86 -76 -9 9 67 301 90 344 17 33 19 46 11 60
-16 24 -57 27 -77 4z"/>
<path d="M24245 12286 c-15 -23 -15 -34 6 -156 17 -106 19 -136 10 -157 -10
-22 -9 -29 7 -47 11 -12 22 -43 26 -72 3 -28 20 -106 37 -175 31 -130 66 -199
100 -199 25 0 25 31 -1 106 -23 67 -70 291 -70 335 0 21 7 32 28 43 35 18 195
53 297 66 154 19 185 29 185 57 0 31 -325 -2 -454 -47 -32 -11 -62 -18 -66
-15 -8 5 -29 153 -33 230 -2 46 -4 50 -29 53 -20 2 -31 -3 -43 -22z"/>
<path d="M25235 12290 c-30 -33 -5 -50 74 -50 36 0 93 -5 126 -10 113 -18 288
-23 307 -8 10 7 14 18 10 24 -8 11 -381 65 -453 64 -33 0 -51 -6 -64 -20z"/>
<path d="M32099 12264 c-8 -10 -10 -21 -3 -31 15 -23 60 -47 78 -40 19 7 22
57 4 75 -17 17 -63 15 -79 -4z"/>
<path d="M27988 12214 c-35 -18 -36 -46 -3 -64 21 -11 32 -11 66 0 55 19 84
42 76 63 -8 22 -100 23 -139 1z"/>
<path d="M26103 12088 c-6 -7 -13 -21 -16 -30 -10 -28 39 -399 65 -490 13 -44
51 -83 72 -75 20 8 20 33 2 106 -21 83 -46 291 -46 386 0 46 -3 90 -6 99 -7
19 -57 21 -71 4z"/>
<path d="M30337 12073 c-26 -27 -32 -28 -125 -28 -107 0 -127 -7 -218 -76 -62
-48 -148 -154 -140 -174 6 -17 49 -30 71 -22 8 4 23 24 34 45 49 96 199 190
280 176 49 -9 60 -19 72 -71 24 -93 109 -165 195 -165 65 0 66 34 1 46 -46 9
-117 86 -117 128 0 9 13 14 36 15 47 1 74 27 74 70 0 77 -105 113 -163 56z
m83 -58 c0 -8 -9 -15 -20 -15 -20 0 -26 11 -13 23 12 13 33 7 33 -8z"/>
<path d="M8750 12081 c-125 -38 -200 -163 -200 -331 0 -72 3 -84 24 -105 41
-40 106 -46 106 -9 0 9 -12 30 -26 47 -25 29 -26 37 -21 98 7 86 39 160 88
204 42 37 71 48 115 43 37 -4 77 -69 69 -113 -7 -40 -57 -89 -116 -115 -35
-15 -49 -26 -49 -41 0 -24 22 -33 123 -48 219 -32 251 -153 63 -236 -99 -44
-265 -64 -375 -45 -77 13 -104 9 -95 -14 18 -48 255 -73 392 -42 181 41 292
124 292 219 0 31 -7 45 -43 81 -40 40 -132 86 -172 86 -23 0 -27 18 -6 30 11
6 32 31 47 56 49 83 17 185 -70 225 -42 19 -102 23 -146 10z"/>
<path d="M30778 12080 c-116 -35 -188 -147 -188 -292 0 -49 4 -62 28 -88 22
-26 35 -31 74 -32 57 -1 103 29 133 88 10 22 31 57 45 79 15 22 30 49 34 59
12 34 23 4 34 -94 12 -100 44 -208 65 -222 18 -11 55 -10 63 3 3 6 -3 32 -14
58 -26 60 -39 136 -52 296 -6 72 -13 136 -15 143 -5 14 -162 16 -207 2z m108
-65 c9 -23 -20 -87 -77 -169 -67 -98 -95 -124 -117 -110 -46 29 -31 158 25
225 47 55 156 90 169 54z"/>
<path d="M20535 12063 c-16 -2 -90 -15 -163 -29 -73 -13 -157 -24 -185 -25
-79 -2 -101 -11 -105 -41 -7 -55 53 -56 336 -2 136 26 248 35 269 21 20 -13 2
-47 -98 -180 -148 -197 -162 -232 -104 -259 21 -9 53 -8 155 7 215 30 344 13
386 -50 14 -21 15 -32 5 -71 -28 -110 -118 -266 -188 -323 -46 -38 -56 -38
-77 -5 -20 29 -59 30 -64 1 -10 -51 30 -107 76 -107 33 0 117 47 154 86 41 44
135 199 158 262 28 73 29 140 4 183 -46 81 -224 123 -420 100 -59 -7 -109 -10
-112 -7 -6 7 51 90 113 166 120 145 135 228 48 261 -30 11 -147 19 -188 12z"/>
<path d="M23015 12027 c-39 -19 -67 -51 -64 -74 2 -11 -18 -39 -51 -73 -95
-95 -152 -227 -151 -349 2 -161 79 -219 239 -179 38 9 61 25 122 87 125 128
188 258 177 372 -6 69 -56 170 -101 201 -37 27 -128 35 -171 15z m125 -60 c55
-37 75 -81 75 -167 0 -66 -4 -84 -37 -150 -89 -181 -224 -283 -307 -234 -39
23 -51 53 -51 128 0 101 49 223 120 297 34 36 43 40 67 34 71 -19 103 -22 119
-10 37 26 -26 75 -97 75 -33 0 -36 6 -12 32 23 25 82 23 123 -5z"/>
<path d="M25195 12003 c-31 -8 -46 -24 -43 -47 3 -20 8 -21 203 -23 110 -1
208 1 218 3 25 8 21 41 -6 48 -80 20 -318 32 -372 19z"/>
<path d="M23993 11928 c-22 -35 -55 -90 -73 -123 -66 -118 -160 -254 -190
-275 -43 -30 -89 -24 -112 16 -27 47 -40 127 -39 254 0 85 -4 120 -15 137 -19
30 -52 30 -63 1 -12 -32 5 -292 23 -357 19 -69 59 -129 92 -137 43 -11 113 2
154 30 76 50 290 413 290 491 0 43 -26 28 -67 -37z"/>
<path d="M8085 11942 c-69 -25 -80 -32 -80 -52 0 -21 16 -31 122 -79 68 -31
139 -70 159 -86 l37 -30 -26 -31 c-15 -17 -50 -41 -78 -53 -43 -19 -56 -21
-79 -11 -21 9 -34 9 -49 0 -28 -14 -27 -36 4 -56 41 -27 94 -28 159 -4 70 27
156 104 156 140 0 36 -78 102 -180 151 -50 24 -90 47 -90 51 0 9 106 22 118
14 10 -6 42 19 42 32 -1 47 -103 54 -215 14z"/>
<path d="M26734 11960 c-26 -10 -85 -78 -107 -122 -37 -75 -76 -165 -82 -191
-13 -50 -30 -23 -33 52 -2 54 1 79 13 98 22 34 16 87 -11 91 -33 5 -72 -34
-81 -80 -9 -45 8 -236 26 -306 9 -33 17 -42 42 -47 40 -9 53 4 68 72 26 112
87 249 148 331 20 26 28 31 39 21 18 -15 56 -136 83 -263 11 -55 28 -107 37
-118 22 -24 51 -23 59 2 9 28 -52 314 -82 380 -38 87 -62 103 -119 80z"/>
<path d="M21382 11943 c-13 -22 4 -70 30 -84 40 -22 80 55 46 89 -18 18 -66
15 -76 -5z"/>
<path d="M32077 11921 c-25 -28 -44 -65 -62 -123 -28 -90 -58 -286 -53 -346 3
-32 7 -37 29 -40 34 -4 37 5 55 143 13 97 40 220 59 267 4 9 22 28 40 42 58
44 55 96 -5 96 -20 0 -38 -12 -63 -39z"/>
<path d="M7713 11923 c-29 -26 -105 -120 -143 -178 -39 -59 -98 -121 -106
-112 -8 8 -7 144 1 212 7 51 6 55 -18 66 -36 16 -67 -8 -130 -104 -77 -118
-83 -127 -113 -198 -64 -152 -71 -219 -25 -234 36 -11 49 5 71 93 37 152 94
289 116 280 4 -2 6 -26 5 -54 -3 -59 18 -117 47 -133 12 -6 36 -11 54 -11 41
0 63 21 156 150 37 52 72 94 77 94 6 1 13 -28 17 -64 8 -86 22 -118 55 -131
41 -15 56 -5 48 34 -3 17 -10 87 -14 154 -5 74 -13 128 -21 138 -17 20 -53 19
-77 -2z"/>
<path d="M27983 11782 c-21 -13 -34 -107 -43 -312 -9 -192 -20 -282 -40 -320
-14 -26 -13 -36 6 -54 25 -25 34 -19 58 37 38 84 45 131 61 417 3 52 13 119
21 148 19 66 12 92 -24 92 -15 0 -33 -4 -39 -8z"/>
<path d="M3762 11694 c-19 -13 -22 -24 -22 -78 0 -69 11 -141 36 -224 13 -46
18 -53 37 -50 22 3 22 4 18 173 -4 197 -12 219 -69 179z"/>
<path d="M19505 11663 c-82 -18 -124 -74 -133 -178 -6 -75 -10 -77 -80 -41
-80 40 -161 60 -252 60 -94 0 -139 -13 -182 -52 -42 -39 -37 -67 20 -105 26
-17 73 -58 106 -89 58 -57 59 -58 54 -107 -6 -65 -52 -154 -108 -212 -59 -61
-138 -89 -200 -70 -48 14 -103 60 -138 115 -47 76 -122 330 -122 416 0 51 -29
83 -62 71 -18 -6 -25 -19 -31 -57 -4 -27 -13 -78 -19 -114 -11 -69 -64 -196
-90 -218 -9 -7 -22 -10 -29 -7 -25 9 -58 69 -70 124 -14 67 -6 126 26 194 29
62 63 97 108 112 25 8 32 16 32 35 0 23 -4 25 -45 28 -66 4 -108 -31 -162
-137 -40 -78 -42 -89 -43 -165 0 -74 4 -89 35 -152 29 -58 42 -73 80 -91 24
-13 56 -23 71 -23 57 0 105 68 133 188 6 29 16 54 21 55 6 1 15 -25 22 -58 41
-206 114 -321 232 -366 155 -58 321 25 410 204 36 75 43 154 18 203 -16 31
-104 119 -149 148 -37 24 -35 34 10 53 59 24 151 11 298 -44 102 -38 128 -51
135 -71 33 -86 155 -176 294 -217 85 -25 251 -26 288 -2 17 11 24 22 20 33 -5
14 -17 15 -80 10 -139 -13 -283 36 -384 131 -49 46 -54 63 -18 63 88 0 148
120 119 239 -18 78 -64 110 -135 94z m55 -87 c17 -33 8 -111 -17 -144 -28 -37
-72 -50 -90 -26 -30 41 -7 134 42 172 36 28 49 28 65 -2z"/>
<path d="M17680 11568 c-108 -17 -212 -88 -336 -228 -77 -88 -163 -216 -187
-280 -45 -121 -5 -245 97 -305 101 -59 274 -81 407 -51 89 20 203 74 207 99 5
26 -30 22 -120 -13 -135 -52 -279 -49 -417 10 -94 41 -136 146 -99 251 22 63
98 177 169 253 117 125 270 211 341 193 42 -11 73 25 50 59 -11 17 -52 22
-112 12z"/>
<path d="M7063 11399 c-29 -10 -29 -11 -79 -172 -66 -212 -94 -361 -94 -503 0
-145 12 -197 43 -192 21 3 22 9 29 148 8 195 30 305 88 450 12 30 25 69 30 85
4 17 19 56 34 89 14 32 26 64 26 71 0 18 -51 34 -77 24z"/>
<path d="M8528 11333 c-28 -32 -69 -169 -87 -290 -6 -39 -11 -74 -11 -77 0 -3
-9 -6 -20 -6 -11 0 -36 -7 -55 -14 -29 -12 -35 -20 -35 -44 0 -35 18 -45 66
-36 l34 6 0 -115 c0 -77 4 -118 12 -123 22 -14 36 28 43 131 6 90 9 105 26
110 10 4 23 4 28 1 17 -11 179 -8 200 3 26 14 27 37 4 49 -10 5 -62 12 -117
15 -54 3 -103 10 -108 15 -12 12 28 179 67 275 32 80 30 111 -6 115 -15 2 -31
-4 -41 -15z"/>
<path d="M21562 11191 c-8 -5 -12 -21 -10 -37 2 -23 12 -34 49 -52 81 -40 112
-3 50 59 -38 38 -63 47 -89 30z"/>
<path d="M6495 11056 c-57 -24 -125 -123 -156 -225 l-13 -43 -57 6 c-46 4 -61
2 -75 -11 -15 -16 -15 -18 6 -35 12 -10 34 -18 49 -18 57 0 67 -9 84 -70 38
-135 152 -181 311 -125 74 26 103 46 92 64 -10 15 -43 14 -91 -4 -54 -19 -111
-19 -146 2 -31 19 -63 76 -73 131 -5 29 -1 37 32 68 20 18 40 34 43 34 4 0 32
31 63 69 68 83 83 135 45 149 -48 18 -85 20 -114 8z m-5 -120 c-31 -45 -40
-54 -40 -38 0 14 61 94 67 89 3 -3 -9 -26 -27 -51z"/>
<path d="M5975 11017 c-199 -83 -415 -229 -415 -282 0 -33 41 -45 160 -45 178
0 298 -32 322 -86 10 -22 8 -33 -11 -70 -57 -106 -372 -361 -462 -373 -48 -7
-70 -31 -50 -55 31 -37 74 -20 233 87 178 120 288 220 341 308 59 101 47 154
-48 202 -52 26 -186 49 -292 50 -57 0 -103 3 -103 6 1 33 359 221 421 221 58
0 78 50 26 64 -33 9 -36 8 -122 -27z"/>
<path d="M7458 10990 c-72 -38 -176 -134 -199 -185 -38 -82 -13 -229 49 -288
58 -56 152 -71 260 -43 90 24 182 91 182 132 0 22 -21 17 -110 -27 -93 -45
-168 -63 -204 -49 -31 11 -72 66 -80 105 -5 28 -2 32 54 64 78 45 240 219 240
259 0 7 -11 24 -25 37 -34 35 -93 33 -167 -5z m41 -97 c-68 -73 -140 -133
-151 -127 -22 14 57 105 137 158 65 43 72 30 14 -31z"/>
<path d="M7883 10963 c-62 -12 -115 -123 -117 -245 -1 -63 3 -81 20 -105 68
-92 216 -78 335 33 70 67 96 118 64 130 -9 4 -41 -16 -82 -50 -83 -69 -136
-96 -191 -96 -39 0 -41 2 -48 35 -15 81 17 184 72 231 l37 31 -22 22 c-21 21
-26 22 -68 14z"/>
<path d="M14896 8428 c-141 -8 -166 -16 -166 -48 0 -37 24 -43 123 -32 151 18
197 21 197 14 0 -4 -34 -45 -75 -91 -77 -86 -89 -116 -65 -160 12 -23 80 -51
125 -51 18 0 36 -4 40 -9 3 -5 -14 -31 -36 -58 -46 -52 -89 -135 -89 -171 0
-29 25 -90 48 -115 9 -11 54 -51 100 -89 54 -46 82 -76 82 -90 0 -31 -35 -82
-77 -111 -30 -21 -150 -71 -220 -93 -7 -2 -13 -15 -13 -30 0 -26 1 -26 58 -22
134 11 311 126 328 213 13 70 6 81 -164 235 -34 31 -64 67 -67 82 -9 37 20 95
95 186 33 41 60 82 60 92 0 31 -39 50 -102 50 -66 0 -108 13 -108 35 0 8 38
55 84 103 89 95 103 119 86 152 -12 23 -15 23 -244 8z"/>
</g>
</svg>
