<?xml version="1.0" standalone="no"?>
<!DOCTYPE svg PUBLIC "-//W3C//DTD SVG 20010904//EN"
 "http://www.w3.org/TR/2001/REC-SVG-20010904/DTD/svg10.dtd">
<svg version="1.0" xmlns="http://www.w3.org/2000/svg"
 width="3264.000000pt" height="2448.000000pt" viewBox="0 0 3264.000000 2448.000000"
 preserveAspectRatio="xMidYMid meet">
<metadata>
Created by potrace 1.12, written by Peter Selinger 2001-2015
</metadata>
<g transform="translate(0.000000,2448.000000) scale(0.100000,-0.100000)"
fill="#000000" stroke="none">
<path d="M874 24466 c-11 -12 -2 -115 12 -138 3 -5 0 -15 -6 -23 -8 -9 -10
-27 -6 -47 4 -18 10 -51 13 -73 7 -51 18 -64 39 -44 19 20 27 78 12 96 -6 7
-12 40 -15 73 -2 33 -10 78 -18 100 -13 37 -13 40 8 55 l21 15 -24 0 c-14 -1
-30 -7 -36 -14z"/>
<path d="M1477 24465 c-4 -8 -2 -17 3 -20 5 -3 9 -18 9 -33 -1 -54 10 -208 20
-262 16 -92 29 -111 52 -69 12 24 4 125 -12 135 -6 3 -10 27 -10 52 1 83 -4
140 -11 147 -4 4 -1 20 8 36 l15 29 -35 0 c-21 0 -36 -6 -39 -15z"/>
<path d="M2090 24460 c-7 -13 -8 -26 -2 -33 5 -7 10 -34 11 -62 2 -81 8 -142
15 -153 3 -6 -5 -32 -19 -58 -14 -26 -25 -48 -25 -50 0 -1 21 -6 48 -9 26 -3
57 -8 70 -11 15 -3 22 0 22 11 0 8 -4 15 -9 15 -19 0 -51 101 -57 182 -6 73
-4 86 9 91 15 6 14 11 -6 48 -26 50 -42 58 -57 29z"/>
<path d="M3060 24472 c0 -4 5 -13 11 -19 6 -6 12 -39 14 -74 2 -35 7 -120 11
-189 11 -173 9 -277 -6 -306 -11 -20 -11 -27 3 -41 16 -18 58 -22 90 -9 22 11
22 22 -4 49 -16 17 -20 31 -16 60 3 21 1 37 -5 37 -6 0 -8 16 -4 43 4 23 7 51
7 62 1 28 -19 201 -29 250 -5 22 -4 56 1 75 8 29 6 37 -13 52 -23 18 -60 25
-60 10z"/>
<path d="M4940 24463 c0 -10 6 -45 14 -78 14 -62 15 -112 2 -134 -4 -6 -3 -18
3 -25 6 -7 10 -37 9 -67 -1 -68 31 -129 68 -129 28 0 29 3 9 33 -8 13 -14 36
-14 52 0 73 -8 192 -15 216 -5 16 -3 29 3 33 7 5 7 13 -2 26 -9 16 -9 24 1 40
15 24 15 30 2 30 -5 0 -10 -7 -10 -15 0 -21 -9 -19 -36 10 -27 30 -34 31 -34
8z"/>
<path d="M8518 24467 c12 -14 11 -155 -1 -174 -4 -7 -4 -21 2 -31 5 -10 10
-43 11 -73 2 -115 8 -195 15 -211 10 -24 52 -23 65 2 6 11 8 25 5 30 -11 18
-21 266 -11 297 3 10 -1 44 -8 76 -8 32 -11 67 -9 78 5 17 0 19 -37 19 -33 0
-40 -3 -32 -13z"/>
<path d="M9114 24308 c13 -305 13 -293 -11 -327 -27 -35 -29 -51 -8 -51 7 0
18 -8 24 -17 8 -14 12 -15 22 -6 9 9 16 9 25 2 8 -7 14 -7 19 1 3 5 15 10 25
10 32 0 32 17 1 60 -28 39 -29 44 -30 168 -1 70 -3 173 -4 230 l-2 102 -34 0
-34 0 7 -172z"/>
<path d="M12058 24458 c-5 -31 -2 -223 6 -338 4 -52 7 -99 7 -105 0 -5 -3 -34
-7 -63 -6 -49 -5 -55 21 -82 21 -22 35 -28 57 -26 16 2 30 5 32 7 12 12 8 47
-7 70 -17 26 -18 30 -28 474 -2 79 -5 85 -44 85 -26 0 -34 -5 -37 -22z"/>
<path d="M15992 24460 c-12 -12 -22 -23 -22 -25 0 -2 14 -20 31 -40 32 -37 59
-46 59 -20 0 8 4 15 10 15 13 0 6 55 -10 74 -17 22 -42 20 -68 -4z"/>
<path d="M1210 24466 c0 -2 7 -20 15 -39 8 -20 15 -65 15 -101 0 -36 5 -68 10
-71 19 -12 37 14 43 61 6 58 -9 114 -36 136 -20 16 -47 24 -47 14z"/>
<path d="M1835 24433 c4 -21 8 -60 10 -88 1 -27 6 -58 10 -67 4 -9 5 -40 2
-67 -4 -39 -1 -51 9 -51 8 0 14 5 14 10 0 6 9 29 20 52 11 22 17 44 15 49 -3
4 -1 10 5 14 18 11 11 56 -15 89 -14 18 -25 40 -25 48 0 15 -30 48 -44 48 -5
0 -5 -17 -1 -37z"/>
<path d="M4116 24461 c-6 -10 -1 -169 10 -289 7 -84 -2 -125 -33 -145 -27 -17
-11 -24 30 -15 23 5 56 7 73 5 l32 -5 -15 46 c-7 26 -13 65 -12 88 2 22 -1 46
-5 53 -5 7 -9 58 -10 114 -2 79 -6 108 -20 130 -18 27 -40 35 -50 18z"/>
<path d="M3900 24426 c0 -16 28 -42 36 -33 8 7 -14 47 -26 47 -6 0 -10 -6 -10
-14z"/>
<path d="M6213 24433 c-32 -6 -30 -47 2 -77 14 -13 28 -38 31 -57 4 -19 15
-43 25 -54 9 -11 23 -42 30 -70 7 -27 18 -54 25 -60 10 -9 26 -52 28 -80 1 -5
13 -16 28 -25 71 -39 95 66 25 108 -33 19 -51 47 -61 94 -4 15 -15 35 -25 45
-15 14 -18 31 -17 80 0 35 -4 69 -10 77 -12 17 -49 26 -81 19z"/>
<path d="M6540 24431 c-19 -5 -26 -14 -28 -40 -2 -18 2 -38 8 -46 28 -34 92
34 70 75 -11 21 -12 22 -50 11z"/>
<path d="M538 24418 c7 -7 12 -20 12 -29 0 -17 17 -35 26 -27 2 3 7 19 10 36
6 31 5 32 -27 32 -26 0 -30 -3 -21 -12z"/>
<path d="M3680 24416 c0 -8 5 -18 10 -21 6 -3 10 -48 10 -99 0 -51 5 -107 11
-124 9 -25 8 -36 -5 -54 -21 -29 -22 -92 -2 -85 8 3 29 -1 47 -10 30 -15 33
-15 45 1 10 15 8 26 -11 68 -21 44 -24 67 -24 169 0 156 -4 169 -47 169 -23 0
-34 -5 -34 -14z"/>
<path d="M2841 24402 c-9 -17 -6 -220 4 -249 9 -27 36 -11 56 32 25 54 21 123
-12 193 -23 46 -33 51 -48 24z"/>
<path d="M3410 24413 c0 -5 9 -23 20 -41 18 -30 20 -46 17 -130 -3 -54 -6
-103 -8 -111 -2 -7 1 -15 7 -18 16 -5 44 24 44 46 0 10 7 24 15 31 34 29 8
151 -46 216 -12 15 -49 19 -49 7z"/>
<path d="M2480 24389 c-22 -19 -25 -29 -24 -83 1 -44 7 -72 24 -101 13 -22 24
-41 24 -41 1 -1 12 -5 25 -9 22 -7 23 -5 15 27 -4 18 -9 49 -10 68 -2 19 -5
58 -8 85 -2 28 -5 56 -5 63 -1 17 -12 15 -41 -9z"/>
<path d="M4401 24392 c-16 -30 -2 -62 25 -62 20 0 24 5 24 28 0 46 -31 67 -49
34z"/>
<path d="M7224 24398 c-4 -6 0 -16 9 -23 18 -13 36 -89 35 -145 -1 -19 3 -71
7 -116 7 -68 5 -85 -10 -107 -9 -14 -14 -30 -11 -36 7 -11 166 -11 166 1 0 4
-6 8 -14 8 -28 0 -57 51 -56 99 2 130 0 254 -6 276 -10 42 -101 74 -120 43z"/>
<path d="M7692 24402 c-28 -4 -37 -24 -24 -49 6 -10 13 -54 17 -98 3 -44 8
-109 11 -145 4 -58 2 -69 -21 -99 -14 -19 -22 -38 -18 -42 17 -17 94 -27 122
-16 25 9 28 13 17 31 -6 12 -17 29 -25 38 -9 12 -14 52 -15 138 0 66 2 120 5
120 13 0 -17 112 -31 119 -8 4 -25 5 -38 3z"/>
<path d="M4658 24328 c1 -40 6 -84 9 -98 3 -14 6 -51 5 -84 -1 -64 11 -106 30
-106 6 0 24 -12 39 -26 22 -21 31 -24 46 -15 10 6 12 11 5 11 -7 0 -17 10 -23
23 -5 12 -16 33 -24 47 -8 14 -12 33 -9 43 3 9 -4 30 -15 45 -18 26 -19 31 -5
50 18 26 20 63 6 115 -12 45 -29 67 -51 67 -14 0 -16 -10 -13 -72z"/>
<path d="M5637 24382 c-19 -21 -13 -88 12 -121 14 -18 23 -21 45 -15 27 6 28
9 22 47 -4 22 -13 45 -20 51 -7 6 -20 21 -28 34 -14 21 -16 21 -31 4z"/>
<path d="M7457 24383 c-15 -15 -5 -39 22 -55 26 -14 31 -15 42 -2 26 32 -35
86 -64 57z"/>
<path d="M5355 24362 c-6 -4 -19 -32 -29 -63 -18 -55 -18 -59 -1 -115 10 -33
31 -73 47 -90 18 -20 26 -37 22 -47 -4 -13 -1 -17 14 -17 24 0 37 16 22 25 -5
3 -10 15 -10 26 0 11 -6 22 -13 25 -8 3 -13 26 -13 63 -1 32 -3 63 -5 67 -3 5
-4 37 -4 71 0 60 -7 72 -30 55z"/>
<path d="M6963 24354 c-3 -9 -2 -55 2 -102 4 -48 6 -118 5 -156 -1 -65 0 -70
30 -97 40 -37 80 -48 80 -24 0 10 -11 28 -25 41 -23 21 -25 31 -27 111 -3 163
-12 214 -39 231 -16 10 -20 10 -26 -4z"/>
<path d="M6705 24349 c-10 -16 3 -56 20 -63 26 -9 45 5 45 34 0 35 -48 57 -65
29z"/>
<path d="M7962 24338 c-6 -6 -12 -19 -12 -28 0 -18 57 -77 66 -68 3 4 6 28 7
55 2 44 0 48 -23 51 -14 2 -31 -3 -38 -10z"/>
<path d="M8216 24248 c4 -57 8 -133 9 -169 0 -61 2 -68 31 -92 36 -30 84 -46
84 -27 0 7 -9 28 -21 47 -16 26 -22 55 -25 131 -5 113 -17 165 -45 193 -38 38
-42 26 -33 -83z"/>
<path d="M8837 24334 c-3 -4 4 -19 16 -35 35 -48 40 -167 11 -281 -5 -24 -3
-28 15 -28 26 0 75 46 66 61 -4 5 1 26 10 45 17 36 15 63 -8 134 -23 71 -85
129 -110 104z"/>
<path d="M11160 24310 c0 -19 5 -30 14 -30 23 0 28 -28 33 -185 5 -131 4 -152
-11 -164 -22 -18 -20 -48 4 -61 19 -10 105 -12 123 -3 4 3 -6 28 -23 57 l-30
53 9 114 c5 63 12 121 16 130 3 10 -7 37 -26 68 -30 47 -35 51 -70 51 -37 0
-39 -2 -39 -30z"/>
<path d="M564 24307 c1 -21 4 -23 19 -15 21 11 18 32 -5 36 -11 2 -16 -4 -14
-21z"/>
<path d="M9648 24313 c-2 -5 -2 -36 0 -71 4 -69 21 -88 67 -76 23 6 25 10 19
36 -11 52 -75 134 -86 111z"/>
<path d="M10070 24311 c0 -23 14 -41 31 -41 14 0 19 7 19 25 0 20 -5 25 -25
25 -14 0 -25 -4 -25 -9z"/>
<path d="M249 24283 c-12 -32 -5 -53 17 -53 10 0 14 -5 10 -15 -11 -29 9 -15
23 15 11 26 11 34 -3 55 -21 32 -34 32 -47 -2z"/>
<path d="M10875 24283 c8 -35 19 -203 16 -270 -2 -44 2 -57 25 -83 15 -16 33
-30 40 -30 6 0 14 -7 18 -15 5 -14 56 -22 56 -8 0 3 -12 22 -27 41 -28 37 -31
57 -32 230 -1 75 -4 92 -16 92 -8 0 -15 5 -15 10 0 13 -49 60 -63 60 -5 0 -6
-12 -2 -27z"/>
<path d="M9357 24252 c-10 -26 -23 -55 -28 -64 -13 -26 -11 -54 6 -68 8 -7 20
-31 27 -54 13 -46 59 -96 89 -96 22 0 25 15 5 27 -29 18 -39 59 -41 171 -2 85
-6 116 -16 123 -21 13 -23 12 -42 -39z"/>
<path d="M10640 24281 c-22 -43 -1 -91 41 -91 16 0 19 7 19 43 0 62 -37 91
-60 48z"/>
<path d="M11484 24248 c3 -29 8 -110 12 -179 l6 -126 -26 -20 -26 -21 23 -24
c18 -20 32 -24 77 -23 l55 0 -3 30 c-2 17 -11 38 -20 49 -14 15 -17 41 -17
155 0 122 -2 140 -22 174 -15 24 -30 37 -43 37 -20 0 -21 -4 -16 -52z"/>
<path d="M13157 24276 c-26 -12 -27 -26 -1 -26 15 0 68 -50 77 -72 3 -10 13
-18 22 -18 8 0 15 -7 15 -16 0 -9 8 -18 18 -21 12 -3 23 -21 31 -54 7 -28 19
-49 26 -49 8 0 30 -15 49 -34 32 -30 36 -39 36 -83 0 -64 21 -85 85 -85 72 0
78 16 25 62 -25 22 -48 40 -52 40 -4 0 -10 10 -14 23 -4 12 -16 32 -28 44 -42
44 -53 59 -66 91 -9 24 -21 35 -42 39 -33 7 -44 27 -54 103 -6 42 -11 53 -31
61 -32 12 -61 10 -96 -5z"/>
<path d="M13453 24278 c-25 -12 -28 -24 -13 -63 8 -21 14 -24 37 -19 16 4 33
13 39 20 6 8 18 14 27 14 19 0 29 26 14 38 -20 16 -81 21 -104 10z"/>
<path d="M13715 24267 c-17 -13 -17 -15 3 -35 12 -12 22 -32 23 -44 0 -13 2
-72 4 -133 11 -336 10 -363 -13 -388 -24 -26 -21 -53 6 -61 10 -3 40 -7 69
-10 46 -5 53 -3 58 14 4 14 -2 30 -19 51 -28 33 -36 105 -15 126 7 7 9 34 5
74 -8 99 -9 289 -1 340 l7 46 -48 17 c-57 19 -56 19 -79 3z"/>
<path d="M14295 24260 c-4 -6 1 -32 10 -56 12 -33 17 -80 18 -177 2 -121 0
-135 -20 -163 -12 -16 -18 -35 -14 -42 6 -10 77 -17 146 -13 l30 1 -21 18
c-39 31 -44 55 -44 226 0 157 -1 166 -22 186 -12 11 -27 20 -34 20 -7 0 -19 3
-27 6 -8 3 -18 0 -22 -6z"/>
<path d="M11775 24246 c-38 -16 -56 -55 -61 -125 -5 -84 21 -154 72 -191 57
-40 71 -39 45 6 -12 20 -20 41 -19 47 1 7 -3 22 -10 35 -16 29 -20 136 -5 153
15 19 26 76 16 82 -5 3 -22 0 -38 -7z"/>
<path d="M12717 24238 c-17 -6 -35 -25 -48 -50 -24 -46 -36 -132 -22 -150 6
-7 16 -31 23 -53 14 -44 54 -89 88 -99 29 -9 28 2 -3 70 -21 47 -25 69 -25
154 0 82 3 100 15 100 16 0 19 9 7 26 -5 7 -16 8 -35 2z"/>
<path d="M12959 24248 c0 -2 -3 -31 -5 -64 -4 -55 -2 -63 18 -76 56 -36 78
-28 78 29 0 35 -83 135 -91 111z"/>
<path d="M14034 24227 c29 -29 56 -118 56 -182 0 -48 -14 -112 -32 -152 -12
-24 -2 -47 14 -37 6 4 20 7 32 8 14 1 22 9 24 25 2 13 12 25 21 28 15 4 18 18
20 93 2 101 -8 134 -64 198 -27 31 -44 42 -65 42 l-29 0 23 -23z"/>
<path d="M14508 24243 c-40 -10 2 -72 50 -73 18 0 22 5 22 34 0 42 -20 53 -72
39z"/>
<path d="M580 24225 c-10 -12 -10 -19 -2 -27 17 -17 37 5 25 27 -9 15 -11 15
-23 0z"/>
<path d="M1206 24232 c-10 -16 6 -51 26 -58 26 -8 29 -3 22 34 -6 31 -35 45
-48 24z"/>
<path d="M9825 24231 c-3 -5 -1 -12 5 -16 5 -3 10 -15 10 -26 0 -10 4 -19 10
-19 5 0 20 -11 33 -25 19 -21 35 -27 78 -29 82 -4 116 -28 140 -101 17 -52 27
-63 35 -39 4 10 13 22 20 27 10 6 10 13 -2 35 -7 15 -14 32 -14 38 0 6 -17 25
-39 42 -28 23 -57 34 -107 43 -53 9 -79 20 -110 45 -44 37 -50 39 -59 25z"/>
<path d="M15810 24202 c0 -16 7 -37 16 -48 15 -18 15 -18 9 11 -3 17 -6 38 -6
48 0 9 -4 17 -10 17 -5 0 -9 -13 -9 -28z"/>
<path d="M15982 24223 c-9 -3 -6 -13 9 -35 20 -27 22 -46 26 -185 4 -148 3
-157 -17 -179 -20 -20 -21 -24 -6 -46 13 -20 23 -23 68 -22 46 0 53 3 56 22 2
11 -2 30 -8 41 -6 13 -11 89 -11 197 0 160 -2 177 -20 195 -18 18 -67 24 -97
12z"/>
<path d="M15360 24205 c0 -18 31 -35 64 -35 36 0 32 13 -9 33 -44 21 -55 21
-55 2z"/>
<path d="M16802 24210 c-20 -9 -21 -12 -10 -31 7 -12 19 -31 25 -43 9 -14 13
-68 13 -159 0 -114 -3 -144 -17 -168 -27 -46 -10 -63 66 -67 58 -3 61 -2 61
21 0 13 -11 38 -24 55 -19 27 -23 41 -19 80 2 26 5 70 6 99 2 28 6 55 10 59 4
4 7 28 7 53 0 33 -5 51 -19 63 -10 8 -20 20 -22 26 -6 16 -51 22 -77 12z"/>
<path d="M4425 24198 c-23 -10 -55 -61 -55 -86 1 -23 29 -55 62 -72 36 -17 42
-10 22 28 -8 18 -12 37 -8 43 10 17 15 87 6 92 -4 3 -16 0 -27 -5z"/>
<path d="M14725 24192 c-6 -4 -22 -25 -35 -47 -19 -32 -24 -54 -25 -111 0 -62
3 -75 28 -107 15 -19 27 -43 27 -51 0 -9 3 -16 8 -16 4 0 17 -3 30 -6 29 -8
29 15 -2 82 -22 48 -23 51 -7 85 13 26 15 44 9 73 -5 23 -5 51 1 67 12 36 -5
52 -34 31z"/>
<path d="M14967 24168 c3 -18 10 -37 14 -42 5 -6 9 -24 9 -42 0 -24 5 -33 22
-37 12 -3 25 -4 29 -2 13 9 -4 100 -22 118 -11 10 -19 22 -19 27 0 6 -9 10
-20 10 -17 0 -19 -5 -13 -32z"/>
<path d="M17097 24192 c-3 -4 -1 -45 4 -92 13 -144 11 -257 -7 -292 -12 -23
-13 -36 -6 -53 9 -20 16 -22 59 -18 63 7 70 15 54 60 -9 25 -13 79 -12 169 2
117 0 135 -19 167 -22 37 -66 72 -73 59z"/>
<path d="M15160 24180 c0 -5 5 -10 10 -10 6 0 10 5 10 10 0 6 -4 10 -10 10 -5
0 -10 -4 -10 -10z"/>
<path d="M15571 24181 c-7 -5 -11 -13 -8 -18 4 -6 1 -24 -5 -41 -11 -29 -10
-34 17 -62 16 -16 33 -30 38 -30 5 0 16 -9 25 -21 12 -14 32 -21 69 -24 39 -3
62 -11 88 -32 19 -15 35 -33 35 -40 0 -18 22 -63 30 -63 12 0 18 49 10 85 -14
63 -54 89 -159 101 -46 5 -62 11 -66 25 -3 10 -14 21 -25 24 -21 7 -33 45 -24
80 6 26 -1 31 -25 16z"/>
<path d="M6744 24165 c4 -11 -2 -15 -22 -15 -21 0 -32 -9 -48 -39 -20 -37 -20
-39 -2 -62 35 -47 63 -69 87 -69 21 0 22 2 10 17 -10 11 -14 42 -12 100 1 50
-3 83 -9 83 -6 0 -8 -7 -4 -15z"/>
<path d="M16555 24152 c4 -18 13 -45 21 -60 18 -35 18 -132 -1 -202 -18 -68
-18 -70 -1 -70 8 0 16 -5 18 -12 2 -6 15 0 31 16 33 33 46 91 41 174 -5 66
-48 162 -74 162 -9 0 -22 6 -29 13 -11 10 -12 6 -6 -21z"/>
<path d="M17575 24160 c-6 -10 24 -59 36 -60 15 0 16 41 2 55 -17 17 -29 19
-38 5z"/>
<path d="M16265 24120 c-25 -26 -27 -35 -29 -118 -1 -81 1 -93 22 -114 12 -13
22 -29 22 -35 0 -7 14 -18 30 -27 35 -17 35 -17 14 76 -12 51 -14 89 -9 132
12 99 11 109 -7 111 -9 2 -28 -10 -43 -25z"/>
<path d="M17353 24130 c-3 -11 -9 -20 -14 -20 -5 0 -9 -17 -9 -39 0 -29 7 -46
30 -69 31 -33 90 -55 125 -46 14 3 34 -5 60 -26 44 -35 53 -51 54 -93 1 -24 5
-28 24 -25 25 3 32 31 23 82 -10 50 -46 80 -127 104 -88 27 -120 42 -129 62
-4 8 -12 25 -18 37 -7 14 -8 24 -2 28 13 8 13 25 -1 25 -6 0 -13 -9 -16 -20z"/>
<path d="M7965 24127 c-30 -18 -35 -28 -35 -70 0 -31 7 -45 31 -68 18 -16 37
-28 43 -26 6 2 12 30 12 63 1 32 3 70 5 84 5 29 -23 37 -56 17z"/>
<path d="M15147 24124 c-10 -11 3 -24 24 -24 10 0 19 7 19 15 0 15 -31 21 -43
9z"/>
<path d="M896 24074 c-3 -9 -3 -26 0 -38 3 -14 -1 -27 -10 -35 -9 -8 -16 -26
-16 -41 0 -29 18 -40 72 -40 35 0 41 12 24 47 -8 15 -22 47 -32 71 -20 49 -29
58 -38 36z"/>
<path d="M10650 24082 c0 -5 -11 -14 -25 -20 -55 -25 -16 -152 46 -152 l28 0
-2 88 c-2 82 -3 87 -24 90 -13 2 -23 -1 -23 -6z"/>
<path d="M15181 24071 c-12 -8 -12 -12 -2 -25 8 -9 18 -16 24 -16 6 0 18 -7
27 -15 9 -9 38 -17 64 -19 59 -4 95 -29 121 -84 11 -23 23 -42 27 -42 5 0 8
20 8 45 0 25 -4 45 -8 45 -5 0 -15 12 -22 26 -17 32 -53 51 -141 75 -79 22
-79 22 -98 10z"/>
<path d="M1511 23975 c-26 -45 -26 -43 5 -72 l27 -25 21 21 c19 20 19 23 5 63
-9 23 -20 43 -26 45 -6 2 -20 -12 -32 -32z"/>
<path d="M9809 23998 c-5 -54 16 -82 54 -72 32 8 34 23 6 58 -21 27 -58 35
-60 14z"/>
<path d="M9460 23950 c0 -5 5 -10 11 -10 5 0 7 5 4 10 -3 6 -8 10 -11 10 -2 0
-4 -4 -4 -10z"/>
<path d="M13185 23900 c-3 -5 -15 -10 -26 -10 -31 0 -26 -48 7 -60 57 -22 114
-3 114 38 0 12 -9 26 -19 32 -25 13 -68 13 -76 0z"/>
<path d="M15137 23903 c-4 -3 -7 -26 -7 -50 0 -41 1 -43 31 -43 29 0 30 2 27
36 -3 36 -36 73 -51 57z"/>
<path d="M15558 23882 c-8 -13 -13 -35 -10 -52 4 -25 9 -30 33 -30 25 0 29 4
29 28 0 15 -9 38 -19 51 l-18 24 -15 -21z"/>
<path d="M17327 23843 c-4 -3 -7 -19 -7 -35 0 -21 6 -31 26 -38 34 -13 45 -5
38 28 -11 44 -37 65 -57 45z"/>
<path d="M17796 23825 c-22 -23 -20 -49 7 -80 18 -21 28 -25 50 -20 31 8 41
36 29 80 -7 24 -15 31 -39 33 -18 2 -37 -3 -47 -13z"/>
<path d="M14850 23820 c0 -5 5 -10 10 -10 6 0 10 5 10 10 0 6 -4 10 -10 10 -5
0 -10 -4 -10 -10z"/>
<path d="M18889 23358 c-28 -9 -72 -87 -60 -106 4 -6 6 -68 5 -138 -1 -79 2
-121 8 -112 8 12 4 -60 -8 -139 -3 -20 -1 -33 6 -33 13 0 13 -26 -1 -49 -9
-13 -9 -42 -2 -105 5 -48 6 -89 4 -92 -12 -12 -8 -68 5 -81 12 -12 15 -11 24
12 5 14 10 55 10 89 0 35 5 87 10 116 7 37 7 57 -1 66 -16 20 -22 103 -9 120
10 11 10 29 0 79 -8 43 -9 74 -3 92 6 16 6 41 2 58 -9 31 4 87 25 114 18 23
84 61 106 61 49 0 2 45 -55 52 -22 3 -52 1 -66 -4z"/>
<path d="M19245 23030 c4 -6 11 -8 16 -5 14 9 11 15 -7 15 -8 0 -12 -5 -9 -10z"/>
<path d="M19300 23000 c-13 -9 -13 -11 -1 -19 17 -11 43 -3 38 12 -5 15 -20
18 -37 7z"/>
<path d="M19400 22949 c0 -10 59 -39 80 -39 21 0 9 18 -24 34 -39 19 -56 20
-56 5z"/>
<path d="M19020 22854 c0 -8 5 -12 10 -9 6 3 10 10 10 16 0 5 -4 9 -10 9 -5 0
-10 -7 -10 -16z"/>
<path d="M19570 22860 c0 -5 7 -10 16 -10 8 0 12 5 9 10 -3 6 -10 10 -16 10
-5 0 -9 -4 -9 -10z"/>
<path d="M19625 22830 c-9 -15 3 -29 25 -27 23 1 25 8 8 25 -15 15 -25 15 -33
2z"/>
<path d="M19012 22777 c-15 -35 -15 -64 -1 -73 18 -11 25 9 19 56 l-6 45 -12
-28z"/>
<path d="M19722 22772 c-8 -6 -2 -9 17 -9 17 0 28 4 25 9 -7 10 -25 10 -42 0z"/>
<path d="M19785 22741 c-8 -14 24 -29 47 -23 18 4 18 5 1 18 -21 16 -40 18
-48 5z"/>
<path d="M19908 22683 c7 -3 16 -2 19 1 4 3 -2 6 -13 5 -11 0 -14 -3 -6 -6z"/>
<path d="M19014 22659 c-3 -6 -1 -15 6 -19 11 -7 10 -17 -2 -57 -9 -28 -12
-52 -7 -57 14 -15 19 -3 26 66 5 62 -5 95 -23 67z"/>
<path d="M19950 22639 c0 -15 7 -19 33 -19 17 0 42 -3 55 -6 16 -5 22 -2 22
10 0 19 -8 22 -67 29 -37 4 -43 3 -43 -14z"/>
<path d="M20320 22650 c0 -5 5 -10 10 -10 6 0 10 5 10 10 0 6 -4 10 -10 10 -5
0 -10 -4 -10 -10z"/>
<path d="M8069 22590 c-129 -15 -267 -90 -381 -207 -101 -103 -176 -210 -235
-335 -65 -136 -78 -198 -78 -363 0 -167 7 -205 76 -388 24 -65 38 -118 35
-131 -7 -30 17 -62 62 -83 30 -14 66 -17 197 -16 145 0 171 3 277 31 200 53
377 148 518 279 122 113 162 208 116 278 -24 37 -107 71 -207 86 -100 14 -321
7 -458 -16 -52 -9 -95 -14 -97 -12 -2 2 42 41 98 87 302 252 448 428 448 540
0 117 -80 212 -207 245 -62 16 -65 16 -164 5z m182 -75 c52 -19 87 -49 105
-92 35 -82 2 -168 -110 -289 -69 -75 -295 -283 -429 -394 -74 -62 -89 -87 -61
-107 23 -17 74 -16 150 2 176 41 541 46 639 9 60 -23 66 -43 34 -105 -43 -86
-176 -193 -344 -277 -157 -80 -338 -122 -519 -122 -114 0 -116 0 -116 23 0 12
-8 36 -19 53 -34 56 -102 237 -121 326 -50 223 -10 399 142 629 155 236 335
356 534 358 41 1 90 -6 115 -14z"/>
<path d="M20140 22572 c0 -10 22 -32 32 -32 5 0 3 9 -4 20 -13 20 -28 27 -28
12z"/>
<path d="M20505 22570 c-3 -5 -1 -10 4 -10 6 0 11 5 11 10 0 6 -2 10 -4 10 -3
0 -8 -4 -11 -10z"/>
<path d="M20220 22525 c0 -11 41 -45 54 -45 7 0 19 -7 26 -15 7 -8 22 -15 33
-15 20 0 20 1 -4 26 -30 33 -109 69 -109 49z"/>
<path d="M19020 22480 c0 -5 5 -10 10 -10 6 0 10 5 10 10 0 6 -4 10 -10 10 -5
0 -10 -4 -10 -10z"/>
<path d="M11995 22473 c-154 -21 -314 -89 -406 -170 -57 -52 -119 -169 -143
-273 -40 -167 -2 -380 103 -588 31 -62 120 -206 160 -259 47 -62 114 -65 127
-5 3 15 12 47 19 72 28 89 39 188 39 350 1 157 0 167 -24 215 -20 40 -31 51
-53 53 -39 5 -44 -18 -22 -102 32 -120 19 -526 -16 -526 -23 0 -152 218 -199
335 -74 187 -90 296 -61 429 27 122 49 167 121 237 66 64 123 96 240 134 74
24 106 28 252 32 222 7 323 -13 396 -80 46 -42 11 -107 -81 -150 -103 -49
-525 -167 -596 -167 -12 0 -38 -7 -57 -15 -30 -12 -35 -19 -32 -42 3 -26 6
-28 48 -26 207 7 279 4 365 -16 230 -52 496 -171 574 -255 33 -36 31 -81 -7
-148 -55 -95 -151 -182 -265 -239 -75 -39 -235 -88 -307 -96 -48 -4 -58 -2
-74 16 -37 41 -82 10 -56 -39 24 -45 105 -52 233 -19 232 58 360 130 476 264
95 111 124 211 81 280 -56 90 -381 253 -599 300 -45 10 -81 21 -81 25 0 4 26
13 58 19 31 7 98 26 147 42 190 60 255 116 255 221 0 39 -6 54 -32 84 -40 46
-133 90 -219 104 -61 9 -300 12 -364 3z"/>
<path d="M18837 22453 c-8 -31 -5 -167 4 -185 5 -10 5 -27 -1 -43 -6 -15 -10
-72 -9 -128 4 -348 2 -322 24 -322 18 0 20 7 21 78 1 43 4 80 8 84 3 3 -1 14
-9 23 -12 13 -12 24 -4 54 6 22 9 50 6 64 -3 15 -1 37 5 51 8 21 5 29 -13 43
-17 15 -19 21 -9 33 6 8 9 23 5 35 -4 12 -1 27 5 35 12 14 9 163 -4 184 -10
16 -24 13 -29 -6z"/>
<path d="M19020 22415 c0 -19 5 -35 10 -35 6 0 10 16 10 35 0 19 -4 35 -10 35
-5 0 -10 -16 -10 -35z"/>
<path d="M20380 22440 c0 -4 8 -18 18 -30 13 -16 26 -21 49 -18 29 3 30 5 18
21 -14 19 -85 41 -85 27z"/>
<path d="M19016 22312 c3 -66 4 -72 13 -72 5 0 9 25 10 55 0 37 -4 55 -12 55
-7 0 -11 -14 -11 -38z"/>
<path d="M20592 22318 c3 -20 8 -23 37 -20 19 1 37 5 40 7 8 9 -13 23 -47 30
-31 6 -33 5 -30 -17z"/>
<path d="M20670 22275 c0 -8 9 -15 20 -15 11 0 20 7 20 15 0 8 -9 15 -20 15
-11 0 -20 -7 -20 -15z"/>
<path d="M19020 22210 c0 -5 5 -10 11 -10 5 0 7 5 4 10 -3 6 -8 10 -11 10 -2
0 -4 -4 -4 -10z"/>
<path d="M20837 22212 c-6 -12 -3 -37 6 -39 17 -6 47 -2 47 6 0 12 -48 43 -53
33z"/>
<path d="M10216 22193 c-2 -10 -10 -115 -16 -233 -6 -118 -12 -228 -13 -243
-2 -26 -9 -32 -73 -56 -101 -40 -202 -98 -209 -122 -10 -30 13 -52 48 -45 15
3 65 28 110 56 132 81 124 92 124 -182 -1 -165 3 -240 11 -255 14 -25 36 -30
49 -10 4 6 8 126 9 266 1 222 3 256 18 266 18 14 237 67 371 90 96 17 184 42
200 56 6 6 4 15 -5 24 -13 12 -30 12 -130 0 -128 -15 -299 -47 -374 -70 -27
-8 -54 -15 -59 -15 -13 0 0 211 19 310 19 101 18 132 -6 158 -25 27 -67 29
-74 5z"/>
<path d="M20943 22153 c-22 -8 -14 -23 13 -23 15 0 24 5 22 12 -5 14 -18 18
-35 11z"/>
<path d="M19010 22129 c-7 -11 -9 -24 -5 -27 7 -7 35 25 35 40 0 16 -19 8 -30
-13z"/>
<path d="M21030 22096 c0 -9 7 -16 16 -16 17 0 14 22 -4 28 -7 2 -12 -3 -12
-12z"/>
<path d="M21390 22080 c0 -5 5 -10 11 -10 5 0 7 5 4 10 -3 6 -8 10 -11 10 -2
0 -4 -4 -4 -10z"/>
<path d="M21140 22045 c0 -15 68 -55 92 -55 16 0 -62 69 -79 70 -7 0 -13 -7
-13 -15z"/>
<path d="M21297 21973 c-4 -3 -7 -13 -7 -21 0 -10 7 -12 27 -7 36 9 41 14 23
25 -18 11 -34 13 -43 3z"/>
<path d="M19010 21916 c0 -40 19 -60 22 -22 0 14 1 31 2 38 1 6 -5 13 -11 16
-9 2 -13 -8 -13 -32z"/>
<path d="M21364 21898 c-3 -4 3 -8 13 -8 10 0 33 -9 52 -21 45 -28 66 -22 41
11 -14 19 -28 25 -60 26 -22 0 -43 -3 -46 -8z"/>
<path d="M19020 21845 c-7 -30 -7 -96 0 -100 11 -7 17 56 9 86 -4 13 -8 20 -9
14z"/>
<path d="M21511 21832 c13 -21 63 -42 100 -42 9 0 22 -7 29 -15 17 -20 30 -19
30 4 0 28 -26 44 -60 38 -16 -4 -32 -2 -35 3 -3 6 -16 10 -29 10 -12 0 -28 6
-35 13 -10 9 -10 7 0 -11z"/>
<path d="M21699 21741 c10 -17 68 -37 79 -27 6 6 -60 46 -76 46 -9 0 -10 -5
-3 -19z"/>
<path d="M18829 21723 c-3 -46 6 -121 15 -130 2 -3 14 1 26 7 15 8 19 17 14
28 -4 9 -9 33 -12 52 -7 51 -41 85 -43 43z"/>
<path d="M21802 21708 c-21 -21 -14 -38 18 -38 26 0 28 2 21 22 -10 27 -23 32
-39 16z"/>
<path d="M19010 21674 c-9 -10 -10 -18 -3 -25 8 -8 14 -5 22 9 13 25 -2 38
-19 16z"/>
<path d="M21870 21665 c0 -10 7 -15 18 -13 21 4 19 22 -2 26 -10 2 -16 -3 -16
-13z"/>
<path d="M22007 21596 c-6 -15 19 -30 34 -20 6 3 5 11 -2 20 -15 18 -25 18
-32 0z"/>
<path d="M13083 21563 c-25 -5 -47 -28 -39 -41 3 -5 47 -12 98 -15 93 -6 173
-29 271 -79 59 -29 148 -102 174 -140 34 -52 63 -135 63 -183 0 -110 -132
-170 -400 -182 -96 -5 -129 -2 -199 16 -118 29 -181 81 -167 137 13 51 176
186 268 223 74 30 95 52 80 86 -7 16 -20 25 -34 25 -42 0 -142 -56 -231 -129
-151 -124 -188 -176 -168 -241 23 -78 90 -129 214 -162 168 -45 440 -26 582
42 75 36 131 95 140 148 24 146 -106 344 -278 426 -125 59 -279 88 -374 69z"/>
<path d="M18838 21563 c-1 -7 -8 -482 -7 -530 0 -13 0 -38 1 -55 1 -18 0 -68
-3 -111 -3 -61 -1 -80 11 -87 12 -8 13 -13 3 -30 -16 -24 -16 -30 -3 -30 6 0
10 5 10 10 0 6 9 19 21 31 14 14 18 27 13 41 -3 12 -6 52 -5 90 1 43 -3 68
-10 68 -6 0 -8 8 -4 20 15 48 20 134 11 198 -6 37 -4 57 4 67 10 12 10 18 0
30 -6 8 -9 19 -5 25 3 5 3 16 -2 23 -4 6 -8 63 -8 126 0 82 -3 115 -12 118 -7
3 -14 1 -15 -4z"/>
<path d="M22094 21548 c-8 -12 16 -29 29 -21 5 3 18 -5 29 -17 19 -20 37 -22
24 -2 -12 20 -75 51 -82 40z"/>
<path d="M22050 21540 c0 -5 5 -10 10 -10 6 0 10 5 10 10 0 6 -4 10 -10 10 -5
0 -10 -4 -10 -10z"/>
<path d="M19012 21507 c-15 -35 -15 -47 -2 -47 14 0 22 24 18 52 -4 22 -5 22
-16 -5z"/>
<path d="M22240 21481 c0 -8 43 -41 55 -41 3 0 -2 11 -11 25 -16 24 -44 34
-44 16z"/>
<path d="M19015 21428 c-7 -18 -1 -95 8 -104 4 -4 7 20 7 54 0 59 -5 76 -15
50z"/>
<path d="M22325 21419 c-10 -15 1 -23 20 -15 9 3 13 10 10 16 -8 13 -22 13
-30 -1z"/>
<path d="M8968 21399 c-23 -13 -23 -35 1 -84 18 -37 41 -198 56 -391 5 -71 -8
-162 -30 -206 -21 -44 -19 -58 10 -58 40 0 71 39 85 106 13 62 9 281 -9 477
-8 93 -11 101 -42 133 -35 36 -44 39 -71 23z"/>
<path d="M22410 21368 c0 -10 13 -18 35 -21 19 -3 42 -13 51 -21 17 -18 44
-21 44 -6 0 6 -4 10 -10 10 -5 0 -18 9 -28 20 -25 27 -92 39 -92 18z"/>
<path d="M22550 21280 c0 -5 4 -10 9 -10 6 0 13 5 16 10 3 6 -1 10 -9 10 -9 0
-16 -4 -16 -10z"/>
<path d="M22610 21275 c0 -14 33 -54 41 -49 5 3 25 2 45 -2 28 -5 35 -10 31
-25 -5 -19 -2 -20 46 -23 10 -1 21 -7 25 -13 12 -20 56 -21 60 -2 2 11 -7 20
-28 27 -17 6 -44 20 -59 32 -18 12 -45 20 -70 20 -30 0 -43 5 -51 20 -9 18
-40 29 -40 15z"/>
<path d="M19015 21211 c-3 -5 -1 -12 5 -16 5 -3 10 1 10 9 0 18 -6 21 -15 7z"/>
<path d="M19010 21115 c0 -8 5 -15 10 -15 6 0 10 7 10 15 0 8 -4 15 -10 15 -5
0 -10 -7 -10 -15z"/>
<path d="M22895 21101 c-7 -12 12 -24 25 -16 16 10 58 -6 63 -25 3 -13 11 -16
31 -13 21 4 24 8 15 19 -6 8 -17 14 -24 14 -7 0 -18 7 -25 15 -14 16 -75 21
-85 6z"/>
<path d="M23075 21040 c-3 -5 -2 -10 4 -10 5 0 13 5 16 10 3 6 2 10 -4 10 -5
0 -13 -4 -16 -10z"/>
<path d="M19798 21022 c-84 -30 -115 -79 -144 -222 -13 -67 -15 -115 -11 -235
10 -229 37 -305 129 -365 50 -33 58 -35 128 -32 91 2 176 39 200 87 9 17 20
37 25 45 9 14 30 105 39 175 3 17 5 82 6 145 2 211 -45 345 -134 384 -77 34
-171 41 -238 18z m228 -113 c37 -35 55 -110 59 -244 7 -263 -37 -384 -148
-400 -113 -17 -169 21 -192 132 -25 123 -13 422 20 468 42 60 50 65 110 73 73
10 119 1 151 -29z"/>
<path d="M23100 21022 c0 -6 83 -53 142 -79 4 -2 9 1 13 7 3 5 -7 15 -22 22
-15 7 -41 23 -56 35 -27 22 -77 32 -77 15z"/>
<path d="M19019 20985 c-13 -20 -18 -80 -9 -95 15 -24 21 -6 18 51 -2 30 -6
50 -9 44z"/>
<path d="M23260 20920 c0 -5 12 -13 28 -16 15 -4 37 -14 49 -21 12 -8 30 -13
40 -11 13 3 6 11 -28 31 -46 27 -89 35 -89 17z"/>
<path d="M23415 20840 c-9 -15 5 -32 21 -26 7 3 16 1 19 -4 8 -13 45 -13 45
-1 0 28 -14 41 -45 41 -19 0 -37 -4 -40 -10z"/>
<path d="M23537 20793 c-12 -11 -8 -21 13 -26 11 -3 20 -12 20 -20 0 -16 50
-30 64 -17 13 13 -3 30 -30 30 -14 0 -24 6 -24 14 0 8 -7 17 -16 20 -19 7 -19
7 -27 -1z"/>
<path d="M19010 20725 c0 -30 5 -55 10 -55 6 0 10 25 10 55 0 30 -4 55 -10 55
-5 0 -10 -25 -10 -55z"/>
<path d="M6828 20753 c7 -3 16 -2 19 1 4 3 -2 6 -13 5 -11 0 -14 -3 -6 -6z"/>
<path d="M4763 20736 c3 -8 -1 -29 -9 -45 -21 -41 -12 -61 41 -99 49 -34 105
-43 105 -17 0 8 -9 15 -20 15 -11 0 -20 5 -20 11 0 6 -9 22 -20 36 -12 15 -20
41 -20 63 0 31 -4 39 -22 44 -35 9 -41 7 -35 -8z"/>
<path d="M23688 20733 c-10 -3 -18 -13 -18 -24 0 -14 7 -19 28 -19 29 0 81
-29 53 -30 -11 0 -12 -3 -4 -11 18 -18 45 -2 41 23 -2 15 -14 26 -33 33 -16 5
-34 15 -40 21 -5 6 -18 9 -27 7z"/>
<path d="M10980 20659 c0 -5 5 -7 10 -4 6 3 10 8 10 11 0 2 -4 4 -10 4 -5 0
-10 -5 -10 -11z"/>
<path d="M11090 20650 c0 -5 5 -10 10 -10 6 0 10 5 10 10 0 6 -4 10 -10 10 -5
0 -10 -4 -10 -10z"/>
<path d="M11500 20650 c0 -5 5 -10 10 -10 6 0 10 5 10 10 0 6 -4 10 -10 10 -5
0 -10 -4 -10 -10z"/>
<path d="M11665 20650 c3 -5 10 -10 16 -10 5 0 9 5 9 10 0 6 -7 10 -16 10 -8
0 -12 -4 -9 -10z"/>
<path d="M11770 20650 c-12 -7 -12 -10 2 -15 9 -4 25 -5 35 -3 17 4 16 5 -3
15 -12 7 -26 8 -34 3z"/>
<path d="M23838 20629 c7 -17 18 -25 41 -27 52 -5 36 14 -37 45 -9 4 -10 -1
-4 -18z"/>
<path d="M15058 20593 c-29 -7 -20 -23 13 -23 19 0 29 4 27 12 -5 14 -17 17
-40 11z"/>
<path d="M14895 20580 c3 -5 12 -7 20 -3 21 7 19 13 -6 13 -11 0 -18 -4 -14
-10z"/>
<path d="M15000 20580 c0 -6 7 -10 15 -10 8 0 15 2 15 4 0 2 -7 6 -15 10 -8 3
-15 1 -15 -4z"/>
<path d="M15520 20576 c0 -9 7 -16 16 -16 9 0 14 5 12 12 -6 18 -28 21 -28 4z"/>
<path d="M15665 20580 c-3 -5 3 -10 15 -10 12 0 18 5 15 10 -3 6 -10 10 -15
10 -5 0 -12 -4 -15 -10z"/>
<path d="M15787 20579 c-9 -6 -26 -7 -37 -4 -12 4 -20 2 -20 -4 0 -7 19 -11
48 -10 54 2 70 8 51 20 -17 11 -20 11 -42 -2z"/>
<path d="M16015 20580 c-8 -13 15 -24 27 -12 6 6 4 11 -6 15 -8 3 -18 2 -21
-3z"/>
<path d="M16112 20579 c-34 -13 -26 -19 23 -19 25 0 45 4 45 9 0 13 -43 19
-68 10z"/>
<path d="M23926 20574 c-4 -10 -1 -14 6 -12 15 5 23 28 10 28 -5 0 -13 -7 -16
-16z"/>
<path d="M15136 20571 c5 -6 24 -6 44 -1 l35 8 -44 1 c-28 1 -41 -3 -35 -8z"/>
<path d="M15892 20571 c2 -7 7 -12 11 -12 12 1 9 15 -3 20 -7 2 -11 -2 -8 -8z"/>
<path d="M16321 20567 c-8 -11 -5 -13 19 -9 17 2 30 8 30 13 0 14 -36 11 -49
-4z"/>
<path d="M16405 20570 c-3 -5 1 -10 10 -10 9 0 13 5 10 10 -3 6 -8 10 -10 10
-2 0 -7 -4 -10 -10z"/>
<path d="M16555 20571 c-51 -6 -46 -12 20 -25 23 -5 33 -2 43 14 10 16 10 20
0 18 -7 0 -35 -4 -63 -7z"/>
<path d="M16645 20560 c3 -5 15 -10 26 -10 11 0 17 5 14 10 -3 6 -15 10 -26
10 -11 0 -17 -4 -14 -10z"/>
<path d="M17065 20560 c-3 -5 -1 -10 4 -10 6 0 11 5 11 10 0 6 -2 10 -4 10 -3
0 -8 -4 -11 -10z"/>
<path d="M17441 20556 c10 -8 89 -13 89 -5 0 5 -21 9 -47 9 -25 0 -44 -2 -42
-4z"/>
<path d="M24010 20546 c0 -8 13 -17 29 -21 21 -4 28 -11 24 -21 -4 -11 0 -14
10 -12 9 2 22 -6 30 -16 8 -11 19 -16 26 -11 14 8 -22 47 -71 78 -33 21 -48
22 -48 3z"/>
<path d="M7464 20525 c-10 -8 -14 -14 -9 -15 15 0 40 18 34 24 -3 3 -14 -1
-25 -9z"/>
<path d="M7220 20521 c0 -6 5 -13 10 -16 6 -3 10 1 10 9 0 9 -4 16 -10 16 -5
0 -10 -4 -10 -9z"/>
<path d="M7280 20520 c0 -5 5 -10 11 -10 5 0 7 5 4 10 -3 6 -8 10 -11 10 -2 0
-4 -4 -4 -10z"/>
<path d="M7650 20510 c0 -5 9 -10 20 -10 11 0 20 5 20 10 0 6 -9 10 -20 10
-11 0 -20 -4 -20 -10z"/>
<path d="M7920 20500 c0 -5 5 -10 10 -10 6 0 10 5 10 10 0 6 -4 10 -10 10 -5
0 -10 -4 -10 -10z"/>
<path d="M8595 20500 l-30 -6 33 -8 c34 -8 53 -2 36 12 -5 5 -22 6 -39 2z"/>
<path d="M19007 20488 c-7 -27 2 -45 14 -27 11 18 11 49 0 49 -5 0 -11 -10
-14 -22z"/>
<path d="M8735 20491 c-3 -5 -1 -12 5 -16 14 -9 52 4 45 16 -8 12 -42 12 -50
0z"/>
<path d="M9358 20473 c6 -2 18 -2 25 0 6 3 1 5 -13 5 -14 0 -19 -2 -12 -5z"/>
<path d="M24475 20461 c-4 -8 17 -68 32 -90 2 -2 14 1 28 7 36 16 35 62 -2 80
-32 14 -50 15 -58 3z"/>
<path d="M10395 20450 c4 -6 11 -8 16 -5 14 9 11 15 -7 15 -8 0 -12 -5 -9 -10z"/>
<path d="M24180 20446 c0 -15 18 -31 26 -23 7 7 -7 37 -17 37 -5 0 -9 -6 -9
-14z"/>
<path d="M10866 20440 c7 -7 19 -7 35 -1 23 9 22 10 -10 10 -24 1 -32 -2 -25
-9z"/>
<path d="M11635 20430 c4 -6 11 -8 16 -5 14 9 11 15 -7 15 -8 0 -12 -5 -9 -10z"/>
<path d="M19005 20419 c12 -39 27 -48 23 -15 -2 16 -9 31 -17 34 -10 3 -11 -2
-6 -19z"/>
<path d="M12385 20420 c3 -5 10 -10 16 -10 5 0 9 5 9 10 0 6 -7 10 -16 10 -8
0 -12 -4 -9 -10z"/>
<path d="M12440 20405 c0 -8 5 -15 10 -15 6 0 10 7 10 15 0 8 -4 15 -10 15 -5
0 -10 -7 -10 -15z"/>
<path d="M12115 20400 c3 -5 10 -10 16 -10 5 0 9 5 9 10 0 6 -7 10 -16 10 -8
0 -12 -4 -9 -10z"/>
<path d="M12210 20400 c0 -5 5 -10 11 -10 5 0 7 5 4 10 -3 6 -8 10 -11 10 -2
0 -4 -4 -4 -10z"/>
<path d="M12260 20400 c0 -5 5 -10 10 -10 6 0 10 5 10 10 0 6 -4 10 -10 10 -5
0 -10 -4 -10 -10z"/>
<path d="M12482 20399 c2 -6 8 -10 13 -10 5 0 11 4 13 10 2 6 -4 11 -13 11 -9
0 -15 -5 -13 -11z"/>
<path d="M12625 20401 c14 -13 54 -18 55 -6 0 5 -14 11 -32 12 -20 2 -28 0
-23 -6z"/>
<path d="M12856 20399 c3 -5 22 -9 43 -9 20 0 41 -4 47 -10 11 -11 39 4 31 17
-4 5 -33 10 -67 10 -33 1 -57 -3 -54 -8z"/>
<path d="M13150 20401 c-20 -3 -30 -9 -24 -13 16 -11 114 -7 114 3 0 5 -6 9
-14 9 -8 0 -20 2 -28 4 -7 2 -29 0 -48 -3z"/>
<path d="M13284 20395 c-18 -14 -18 -14 9 -15 15 0 27 4 27 9 0 18 -17 20 -36
6z"/>
<path d="M13406 20402 c-3 -6 -3 -13 1 -15 16 -9 113 -6 113 4 0 5 -11 9 -24
9 -13 0 -37 3 -54 6 -16 3 -32 1 -36 -4z"/>
<path d="M13743 20403 c-7 -2 -13 -11 -13 -20 0 -10 6 -12 23 -7 28 8 30 10
22 23 -7 12 -13 12 -32 4z"/>
<path d="M13030 20390 c0 -5 7 -10 15 -10 8 0 15 5 15 10 0 6 -7 10 -15 10 -8
0 -15 -4 -15 -10z"/>
<path d="M13355 20390 c4 -6 11 -8 16 -5 14 9 11 15 -7 15 -8 0 -12 -5 -9 -10z"/>
<path d="M13575 20390 c-4 -6 12 -10 40 -10 28 0 44 4 40 10 -3 6 -21 10 -40
10 -19 0 -37 -4 -40 -10z"/>
<path d="M13820 20384 c0 -17 22 -14 28 4 2 7 -3 12 -12 12 -9 0 -16 -7 -16
-16z"/>
<path d="M13920 20391 c-51 -9 -22 -22 44 -20 58 2 73 12 34 23 -25 6 -27 6
-78 -3z"/>
<path d="M14300 20390 c-35 -7 -26 -18 15 -19 73 -3 148 -1 153 4 19 19 -91
28 -168 15z"/>
<path d="M14095 20380 c3 -5 10 -10 16 -10 5 0 9 5 9 10 0 6 -7 10 -16 10 -8
0 -12 -4 -9 -10z"/>
<path d="M14175 20380 c3 -5 10 -10 16 -10 5 0 9 5 9 10 0 6 -7 10 -16 10 -8
0 -12 -4 -9 -10z"/>
<path d="M14680 20380 c0 -5 5 -10 10 -10 6 0 10 5 10 10 0 6 -4 10 -10 10 -5
0 -10 -4 -10 -10z"/>
<path d="M14765 20380 c-3 -5 3 -10 15 -10 12 0 18 5 15 10 -3 6 -10 10 -15
10 -5 0 -12 -4 -15 -10z"/>
<path d="M14836 20381 c-7 -10 33 -23 47 -14 10 6 -11 23 -30 23 -6 0 -14 -4
-17 -9z"/>
<path d="M15005 20370 c3 -5 8 -10 11 -10 2 0 4 5 4 10 0 6 -5 10 -11 10 -5 0
-7 -4 -4 -10z"/>
<path d="M15078 20373 c6 -2 18 -2 25 0 6 3 1 5 -13 5 -14 0 -19 -2 -12 -5z"/>
<path d="M15695 20370 c-4 -6 3 -10 14 -10 25 0 27 6 6 13 -8 4 -17 2 -20 -3z"/>
<path d="M15603 20363 c9 -2 25 -2 35 0 9 3 1 5 -18 5 -19 0 -27 -2 -17 -5z"/>
<path d="M15880 20360 c0 -5 7 -10 16 -10 8 0 12 5 9 10 -3 6 -10 10 -16 10
-5 0 -9 -4 -9 -10z"/>
<path d="M16345 20350 c3 -5 22 -10 41 -10 19 0 34 5 34 10 0 6 -18 10 -41 10
-24 0 -38 -4 -34 -10z"/>
<path d="M16440 20350 c0 -5 7 -10 16 -10 8 0 12 5 9 10 -3 6 -10 10 -16 10
-5 0 -9 -4 -9 -10z"/>
<path d="M16575 20350 c-3 -5 0 -13 9 -16 21 -8 61 -1 61 11 0 14 -62 19 -70
5z"/>
<path d="M16660 20350 c0 -5 10 -10 23 -10 18 0 19 2 7 10 -19 13 -30 13 -30
0z"/>
<path d="M16837 20354 c-11 -12 3 -24 28 -24 13 0 25 -6 28 -12 3 -10 8 -10
16 -2 9 8 9 13 -1 22 -18 14 -62 25 -71 16z"/>
<path d="M16780 20340 c20 -13 33 -13 25 0 -3 6 -14 10 -23 10 -15 0 -15 -2
-2 -10z"/>
<path d="M17063 20337 c2 -7 27 -13 61 -15 44 -2 57 0 54 10 -3 8 -26 13 -62
15 -41 1 -56 -1 -53 -10z"/>
<path d="M17286 20337 c-16 -12 -17 -15 -3 -20 21 -8 59 3 54 17 -6 17 -30 18
-51 3z"/>
<path d="M17420 20342 c0 -4 4 -12 8 -18 9 -14 84 -5 79 10 -4 12 -87 20 -87
8z"/>
<path d="M17633 20337 c-3 -5 -11 -6 -17 -4 -7 3 -19 1 -27 -3 -11 -7 -10 -10
4 -16 10 -4 23 -2 29 4 8 8 15 9 25 1 9 -8 17 -8 26 0 9 7 24 8 46 1 22 -6 43
-5 69 5 l37 14 -35 1 c-110 5 -152 4 -157 -3z"/>
<path d="M17873 20335 c-20 -22 -16 -26 12 -13 14 6 25 15 25 20 0 13 -24 9
-37 -7z"/>
<path d="M18127 20339 c-10 -6 -15 -14 -12 -20 10 -14 45 -11 45 5 0 21 -12
26 -33 15z"/>
<path d="M19000 20343 c0 -14 19 -38 25 -32 8 8 -5 39 -16 39 -5 0 -9 -3 -9
-7z"/>
<path d="M17972 20333 c-18 -2 -30 -9 -27 -14 8 -12 125 -12 125 0 0 9 -37 22
-55 19 -5 -1 -25 -3 -43 -5z"/>
<path d="M18243 20330 c-36 -15 -27 -20 33 -20 40 0 55 4 52 13 -6 15 -55 19
-85 7z"/>
<path d="M18344 20329 c-6 -11 -5 -11 81 -14 63 -3 108 -4 213 -5 17 0 32 5
32 10 0 12 14 11 -168 14 -84 2 -155 -1 -158 -5z"/>
<path d="M16980 20320 c0 -5 5 -10 10 -10 6 0 10 5 10 10 0 6 -4 10 -10 10 -5
0 -10 -4 -10 -10z"/>
<path d="M24531 20271 c-9 -16 -10 -26 -2 -34 13 -13 25 12 19 40 -3 16 -5 15
-17 -6z"/>
<path d="M24367 20193 c-10 -10 -8 -53 2 -53 10 0 21 24 21 46 0 15 -12 19
-23 7z"/>
<path d="M18830 20128 c1 -18 1 -37 0 -43 -2 -5 -4 -206 -5 -445 -3 -557 -3
-643 -5 -710 0 -30 0 -84 1 -120 0 -36 0 -92 0 -125 -1 -33 -1 -76 0 -95 2
-37 2 -61 1 -175 -1 -38 -1 -133 -1 -210 0 -77 -1 -179 -3 -227 -3 -60 0 -92
9 -104 7 -10 16 -14 20 -10 4 4 9 67 11 139 2 88 8 139 17 153 11 17 11 22 0
30 -14 9 -25 157 -14 179 3 8 3 131 -2 255 -2 77 4 306 9 315 11 18 11 69 0
102 -8 21 -8 39 -2 54 6 13 7 52 1 102 -6 61 -5 82 5 88 9 6 8 12 -6 28 -14
16 -16 24 -8 34 6 7 11 27 11 43 -1 45 -2 354 -2 394 1 19 1 60 1 90 0 30 1
66 2 80 1 14 1 36 1 50 0 14 -1 50 -1 80 -1 53 -12 80 -32 80 -5 0 -9 -15 -8
-32z"/>
<path d="M19010 20131 c0 -12 5 -21 10 -21 6 0 10 6 10 14 0 8 -4 18 -10 21
-5 3 -10 -3 -10 -14z"/>
<path d="M24375 20112 c-5 -4 -11 -25 -11 -47 -2 -65 -4 -147 -3 -197 0 -27
-1 -56 -2 -65 -1 -10 1 -39 4 -66 4 -31 1 -57 -9 -75 -18 -35 -18 -61 1 -68
23 -9 48 15 34 32 -8 10 -8 22 0 46 7 20 8 35 2 41 -6 6 -6 17 -2 26 14 28 21
80 11 86 -5 3 -7 56 -5 123 5 119 -2 177 -20 164z"/>
<path d="M19007 20063 c-10 -9 -9 -43 2 -43 5 0 11 6 14 13 6 17 -7 40 -16 30z"/>
<path d="M19003 19989 c-8 -8 -8 -20 0 -42 l11 -32 7 29 c10 35 -1 62 -18 45z"/>
<path d="M24520 19923 c0 -21 3 -24 9 -14 5 8 7 20 4 28 -8 21 -13 15 -13 -14z"/>
<path d="M19011 19794 c0 -11 3 -14 6 -6 3 7 2 16 -1 19 -3 4 -6 -2 -5 -13z"/>
<path d="M24515 19780 c-3 -5 -1 -10 4 -10 6 0 11 5 11 10 0 6 -2 10 -4 10 -3
0 -8 -4 -11 -10z"/>
<path d="M19000 19696 c0 -8 5 -18 10 -21 6 -3 10 3 10 14 0 12 -4 21 -10 21
-5 0 -10 -6 -10 -14z"/>
<path d="M19000 19611 c0 -47 19 -67 22 -22 0 17 1 36 2 43 1 6 -5 13 -11 16
-9 2 -13 -9 -13 -37z"/>
<path d="M24340 19543 c0 -20 18 -43 33 -43 4 0 7 12 5 27 -4 32 -38 46 -38
16z"/>
<path d="M18984 19475 c-8 -20 4 -85 15 -85 9 0 19 71 13 89 -5 16 -22 13 -28
-4z"/>
<path d="M9360 19469 c-278 -41 -652 -272 -738 -455 -23 -51 -27 -71 -27 -154
0 -60 7 -124 20 -175 22 -92 49 -128 93 -123 24 3 27 7 26 38 -1 19 -14 69
-29 110 -24 64 -27 86 -23 155 3 57 11 95 27 128 90 186 430 384 717 418 97
12 237 0 258 -21 31 -31 -152 -174 -409 -318 -90 -51 -120 -76 -111 -91 16
-26 91 -52 174 -62 273 -30 461 -65 470 -87 8 -22 -71 -87 -148 -123 -122 -57
-585 -204 -790 -252 -80 -19 -95 -25 -95 -42 0 -17 8 -20 56 -23 113 -6 692
153 857 235 51 26 75 34 83 26 16 -16 28 -132 29 -269 0 -105 3 -125 19 -145
18 -22 21 -23 36 -8 23 22 33 278 16 403 -12 88 -12 89 14 128 35 53 28 80
-32 115 -61 36 -249 77 -428 93 -137 13 -138 13 -115 32 12 10 68 44 124 75
261 146 390 265 345 319 -49 59 -263 96 -419 73z"/>
<path d="M24345 19470 c-4 -6 -5 -25 -4 -43 2 -17 -1 -58 -5 -90 -6 -40 -5
-61 4 -72 6 -8 9 -18 6 -24 -6 -9 -8 -59 -21 -376 -4 -112 -6 -248 -4 -275 1
-8 -2 -45 -5 -82 -4 -54 -3 -67 10 -72 9 -3 12 -11 8 -18 -12 -18 -19 -75 -18
-145 0 -35 -4 -63 -8 -63 -4 0 -8 -4 -8 -10 0 -5 7 -10 16 -10 15 0 15 -2 1
-24 -17 -25 -24 -158 -11 -209 4 -17 1 -38 -6 -52 -10 -19 -10 -27 -1 -39 7
-8 11 -25 9 -38 -2 -17 2 -23 17 -23 19 0 20 8 23 135 2 74 3 146 4 160 0 14
0 43 -1 65 -1 22 1 67 4 100 4 33 6 68 5 78 -1 9 -1 40 -1 67 1 93 1 130 0
163 0 17 2 47 6 65 5 22 2 39 -9 57 -14 22 -15 25 -1 25 17 0 21 26 4 32 -8 3
-6 15 6 38 23 45 27 98 7 109 -11 6 -12 12 -2 30 6 12 12 63 12 114 0 51 0
120 0 155 0 35 -4 68 -10 74 -6 6 -6 22 0 46 13 50 18 159 6 138 -11 -20 -30
-12 -21 9 6 17 -3 20 -12 5z"/>
<path d="M24504 19379 c-3 -6 -1 -16 5 -22 8 -8 11 -5 11 11 0 24 -5 28 -16
11z"/>
<path d="M18985 19350 c-8 -13 13 -70 26 -70 10 0 0 61 -11 73 -4 5 -11 4 -15
-3z"/>
<path d="M24500 19263 c0 -6 -3 -18 -6 -27 -3 -9 -1 -16 5 -16 17 0 25 30 12
43 -8 8 -11 8 -11 0z"/>
<path d="M18995 19230 c-7 -31 -1 -50 16 -50 5 0 9 18 9 40 0 47 -16 53 -25
10z"/>
<path d="M24500 19016 c0 -9 5 -16 10 -16 6 0 10 4 10 9 0 6 -4 13 -10 16 -5
3 -10 -1 -10 -9z"/>
<path d="M18987 18983 c-13 -12 -7 -43 8 -43 9 0 15 9 15 25 0 24 -10 32 -23
18z"/>
<path d="M24486 18955 c-7 -19 3 -47 15 -39 12 7 12 54 0 54 -5 0 -11 -7 -15
-15z"/>
<path d="M18995 18787 c-4 -10 -5 -21 -1 -24 10 -10 18 4 13 24 -4 17 -4 17
-12 0z"/>
<path d="M18996 18621 c-4 -7 -5 -15 -2 -18 9 -9 19 4 14 18 -4 11 -6 11 -12
0z"/>
<path d="M18982 18473 c5 -25 28 -28 28 -4 0 12 -6 21 -16 21 -9 0 -14 -7 -12
-17z"/>
<path d="M24480 18464 c0 -8 5 -12 10 -9 6 4 8 11 5 16 -9 14 -15 11 -15 -7z"/>
<path d="M24475 18400 c-4 -6 -3 -16 3 -22 6 -6 12 -6 17 2 4 6 3 16 -3 22 -6
6 -12 6 -17 -2z"/>
<path d="M18981 18292 c-6 -11 -11 -30 -11 -42 0 -34 34 -21 38 14 5 37 -13
55 -27 28z"/>
<path d="M24480 18280 c0 -19 3 -21 12 -12 9 9 9 15 0 24 -9 9 -12 7 -12 -12z"/>
<path d="M19909 18117 c-30 -31 -64 -69 -76 -85 -12 -16 -35 -32 -50 -35 -15
-4 -43 -16 -61 -27 -28 -17 -33 -25 -30 -53 2 -27 8 -33 31 -35 23 -3 39 7 82
47 30 28 58 51 64 51 6 0 18 -11 27 -26 15 -22 16 -36 6 -122 -6 -53 -11 -167
-12 -252 0 -85 -3 -174 -6 -196 -8 -58 16 -104 55 -104 17 0 31 6 35 16 3 8 6
190 6 404 -1 214 2 399 5 412 3 13 0 31 -8 42 -14 19 -17 17 -68 -37z"/>
<path d="M24470 18160 c0 -5 5 -10 10 -10 6 0 10 5 10 10 0 6 -4 10 -10 10 -5
0 -10 -4 -10 -10z"/>
<path d="M24460 18075 c0 -19 5 -35 10 -35 6 0 10 16 10 35 0 19 -4 35 -10 35
-5 0 -10 -16 -10 -35z"/>
<path d="M18981 18040 c-9 -19 -9 -33 -1 -54 16 -42 29 -20 21 34 -7 44 -8 44
-20 20z"/>
<path d="M4893 17830 c-31 -18 -47 -60 -23 -60 6 0 10 -6 10 -13 0 -7 9 -20
19 -29 30 -25 49 -3 57 65 6 52 5 57 -12 57 -11 0 -34 -9 -51 -20z"/>
<path d="M10160 17780 c0 -5 5 -10 10 -10 6 0 10 5 10 10 0 6 -4 10 -10 10 -5
0 -10 -4 -10 -10z"/>
<path d="M24461 17774 c0 -11 3 -14 6 -6 3 7 2 16 -1 19 -3 4 -6 -2 -5 -13z"/>
<path d="M24315 17755 c-15 -16 -20 -35 -21 -80 -1 -33 -5 -141 -8 -240 -4
-99 -9 -245 -12 -325 -2 -80 -6 -219 -9 -310 -5 -175 -6 -311 -4 -398 1 -29
-1 -55 -4 -59 -4 -3 -7 -22 -7 -41 0 -19 -9 -45 -20 -59 -28 -36 -25 -54 16
-94 l35 -34 -2 71 c-1 39 1 76 5 83 4 6 5 20 1 30 -3 10 -1 31 5 47 17 44 26
212 17 317 -3 31 0 47 8 47 8 0 9 19 4 68 -4 37 -5 71 -2 76 3 5 6 95 7 201 2
178 4 194 24 229 27 46 28 59 2 51 -20 -6 -20 -3 -14 87 9 152 11 270 5 313
l-6 40 -20 -20z"/>
<path d="M13690 17730 c0 -5 5 -10 10 -10 6 0 10 5 10 10 0 6 -4 10 -10 10 -5
0 -10 -4 -10 -10z"/>
<path d="M13825 17730 c3 -5 15 -10 26 -10 10 0 19 5 19 10 0 6 -12 10 -26 10
-14 0 -23 -4 -19 -10z"/>
<path d="M14136 17728 c7 -11 94 -10 94 1 0 6 -22 9 -50 9 -27 -1 -47 -5 -44
-10z"/>
<path d="M14282 17733 c-6 -2 -10 -9 -7 -13 7 -11 35 -2 35 11 0 10 -8 10 -28
2z"/>
<path d="M14648 17733 c6 -2 18 -2 25 0 6 3 1 5 -13 5 -14 0 -19 -2 -12 -5z"/>
<path d="M14990 17730 c0 -5 7 -10 15 -10 8 0 15 5 15 10 0 6 -7 10 -15 10 -8
0 -15 -4 -15 -10z"/>
<path d="M15598 17723 c7 -3 16 -2 19 1 4 3 -2 6 -13 5 -11 0 -14 -3 -6 -6z"/>
<path d="M17470 17700 c0 -5 5 -10 11 -10 5 0 7 5 4 10 -3 6 -8 10 -11 10 -2
0 -4 -4 -4 -10z"/>
<path d="M17640 17700 c0 -5 7 -10 16 -10 8 0 12 5 9 10 -3 6 -10 10 -16 10
-5 0 -9 -4 -9 -10z"/>
<path d="M17995 17701 c-16 -7 -13 -9 19 -15 24 -5 43 -3 49 3 8 8 6 11 -5 11
-9 0 -22 2 -30 4 -7 3 -22 1 -33 -3z"/>
<path d="M18125 17700 c-3 -5 -2 -10 4 -10 5 0 13 5 16 10 3 6 2 10 -4 10 -5
0 -13 -4 -16 -10z"/>
<path d="M18300 17700 c0 -5 5 -10 10 -10 6 0 10 5 10 10 0 6 -4 10 -10 10 -5
0 -10 -4 -10 -10z"/>
<path d="M18490 17695 c0 -8 9 -15 19 -15 26 0 35 16 15 24 -25 10 -34 7 -34
-9z"/>
<path d="M18600 17700 l-45 -6 37 -8 c38 -8 78 -1 78 15 0 5 -6 8 -12 7 -7 0
-33 -4 -58 -8z"/>
<path d="M17575 17690 c3 -5 10 -10 16 -10 5 0 9 5 9 10 0 6 -7 10 -16 10 -8
0 -12 -4 -9 -10z"/>
<path d="M17865 17690 c-8 -13 65 -13 85 0 11 7 2 10 -32 10 -26 0 -50 -4 -53
-10z"/>
<path d="M18175 17690 c3 -5 15 -10 26 -10 10 0 19 5 19 10 0 6 -12 10 -26 10
-14 0 -23 -4 -19 -10z"/>
<path d="M18390 17691 c0 -5 16 -9 35 -8 19 1 35 5 35 9 0 4 -16 8 -35 8 -19
0 -35 -4 -35 -9z"/>
<path d="M18990 17638 c0 -15 -4 -29 -9 -32 -10 -6 -2 -56 9 -56 12 0 21 93
10 104 -7 7 -10 1 -10 -16z"/>
<path d="M24450 17625 c0 -8 5 -15 10 -15 6 0 10 7 10 15 0 8 -4 15 -10 15 -5
0 -10 -7 -10 -15z"/>
<path d="M11465 17560 c-3 -5 1 -10 9 -10 9 0 16 5 16 10 0 6 -4 10 -9 10 -6
0 -13 -4 -16 -10z"/>
<path d="M10910 17550 c-13 -8 -12 -10 3 -10 9 0 17 5 17 10 0 12 -1 12 -20 0z"/>
<path d="M11135 17550 c3 -5 8 -10 11 -10 2 0 4 5 4 10 0 6 -5 10 -11 10 -5 0
-7 -4 -4 -10z"/>
<path d="M11676 17551 c-19 -7 -18 -8 4 -14 26 -7 43 0 35 14 -7 10 -13 10
-39 0z"/>
<path d="M11908 17553 c-48 -7 -30 -19 32 -21 36 -2 60 2 60 8 0 5 -9 10 -19
10 -11 0 -25 2 -33 3 -7 2 -25 2 -40 0z"/>
<path d="M12320 17550 c-11 -7 -12 -12 -3 -21 14 -14 46 -4 41 13 -6 16 -20
19 -38 8z"/>
<path d="M12513 17544 c-16 -12 -12 -13 30 -14 27 0 46 4 43 9 -10 15 -55 19
-73 5z"/>
<path d="M12650 17540 c0 -5 9 -10 20 -10 11 0 20 5 20 10 0 6 -9 10 -20 10
-11 0 -20 -4 -20 -10z"/>
<path d="M12745 17540 c-4 -6 8 -10 30 -10 22 0 34 4 30 10 -3 6 -17 10 -30
10 -13 0 -27 -4 -30 -10z"/>
<path d="M12927 17544 c-15 -16 -6 -22 29 -19 36 4 61 15 33 15 -8 0 -23 3
-34 6 -11 3 -24 2 -28 -2z"/>
<path d="M13115 17540 c-3 -5 3 -10 15 -10 12 0 18 5 15 10 -3 6 -10 10 -15
10 -5 0 -12 -4 -15 -10z"/>
<path d="M13325 17540 c-35 -9 -34 -10 28 -15 35 -3 47 -1 44 8 -4 15 -32 18
-72 7z"/>
<path d="M13160 17531 c0 -4 11 -6 25 -3 14 2 25 6 25 8 0 2 -11 4 -25 4 -14
0 -25 -4 -25 -9z"/>
<path d="M13755 17530 c3 -5 13 -10 21 -10 8 0 12 5 9 10 -3 6 -13 10 -21 10
-8 0 -12 -4 -9 -10z"/>
<path d="M14386 17531 c-8 -12 18 -21 33 -11 10 5 8 9 -4 14 -21 8 -23 8 -29
-3z"/>
<path d="M14830 17532 c0 -5 11 -14 25 -20 29 -14 34 2 6 18 -24 12 -31 13
-31 2z"/>
<path d="M15032 17518 c5 -15 37 -18 41 -3 1 6 -9 12 -22 13 -16 3 -22 -1 -19
-10z"/>
<path d="M15097 17523 c-13 -12 -7 -23 12 -23 26 0 35 16 15 24 -19 7 -19 7
-27 -1z"/>
<path d="M15758 17514 c-16 -8 -28 -16 -28 -19 0 -5 83 -4 93 2 7 4 -21 32
-33 32 -3 0 -17 -7 -32 -15z"/>
<path d="M16095 17522 c-71 -3 -92 -9 -79 -22 8 -8 54 -10 217 -10 15 0 27 4
27 10 0 5 -16 10 -36 10 -19 0 -43 3 -52 8 -9 4 -44 6 -77 4z"/>
<path d="M24449 17498 c-3 -21 -2 -38 2 -38 13 0 16 14 9 45 l-6 30 -5 -37z"/>
<path d="M15275 17503 c-18 -14 -18 -15 -2 -9 10 3 23 6 28 6 5 0 9 5 9 10 0
14 -12 12 -35 -7z"/>
<path d="M15352 17508 c6 -16 33 -22 56 -13 14 5 14 7 2 15 -22 14 -62 12 -58
-2z"/>
<path d="M15462 17511 c-11 -6 -10 -9 3 -15 28 -10 57 -7 53 7 -6 15 -38 20
-56 8z"/>
<path d="M15572 17504 c9 -9 21 -13 27 -10 20 13 11 26 -16 26 -25 0 -26 -1
-11 -16z"/>
<path d="M15668 17513 c-43 -7 -33 -23 13 -23 27 0 39 4 37 12 -5 14 -14 16
-50 11z"/>
<path d="M16437 17514 c-3 -3 -39 -5 -81 -6 -42 0 -79 -4 -82 -9 -6 -10 4 -10
164 -11 96 0 123 4 110 17 -7 7 -104 15 -111 9z"/>
<path d="M16615 17510 c-9 -15 4 -30 25 -30 24 0 36 20 19 31 -19 12 -36 11
-44 -1z"/>
<path d="M16885 17513 c-78 -15 -40 -31 65 -27 41 1 86 3 99 3 53 2 5 16 -58
17 -38 1 -72 3 -77 6 -5 2 -18 3 -29 1z"/>
<path d="M17135 17511 c-47 -10 -26 -26 30 -23 66 4 76 14 25 24 -14 3 -38 2
-55 -1z"/>
<path d="M15950 17500 c0 -5 9 -10 20 -10 11 0 20 5 20 10 0 6 -9 10 -20 10
-11 0 -20 -4 -20 -10z"/>
<path d="M16693 17498 c2 -8 20 -12 48 -12 67 2 71 3 64 14 -9 15 -118 13
-112 -2z"/>
<path d="M17269 17499 l-24 -7 25 -2 c146 -12 242 -8 225 8 -9 9 -194 10 -226
1z"/>
<path d="M17526 17501 c-29 -11 -6 -18 34 -10 19 3 30 7 23 8 -6 0 -17 3 -25
5 -7 3 -22 1 -32 -3z"/>
<path d="M17740 17500 c0 -5 10 -10 23 -10 18 0 19 2 7 10 -19 13 -30 13 -30
0z"/>
<path d="M18261 17499 c-13 -5 -39 -7 -57 -3 -22 4 -34 2 -34 -5 0 -6 15 -11
33 -11 17 0 41 -3 52 -5 25 -7 54 10 40 24 -6 5 -19 5 -34 0z"/>
<path d="M17620 17490 c0 -5 11 -10 25 -10 14 0 25 5 25 10 0 6 -11 10 -25 10
-14 0 -25 -4 -25 -10z"/>
<path d="M17950 17490 c0 -5 9 -10 20 -10 11 0 20 5 20 10 0 6 -9 10 -20 10
-11 0 -20 -4 -20 -10z"/>
<path d="M18060 17490 c0 -13 40 -13 60 0 11 7 5 10 -22 10 -21 0 -38 -4 -38
-10z"/>
<path d="M18365 17491 c14 -14 119 -19 123 -6 1 6 -27 11 -65 13 -46 2 -65 0
-58 -7z"/>
<path d="M18571 17491 c-7 -5 -11 -13 -8 -19 9 -14 57 -2 57 14 0 16 -28 18
-49 5z"/>
<path d="M18970 17350 c-12 -22 -7 -50 9 -50 13 0 24 51 12 63 -6 6 -13 1 -21
-13z"/>
<path d="M18826 17282 c-13 -22 -23 -92 -14 -98 6 -4 7 -23 3 -48 -10 -55 -18
-1123 -11 -1341 1 -27 -2 -56 -7 -62 -5 -7 -6 -29 -3 -48 12 -63 8 -476 -5
-491 -6 -8 -8 -21 -3 -31 4 -10 8 -29 8 -42 1 -40 20 -34 35 11 18 59 31 224
20 256 -4 15 -7 97 -5 182 2 85 4 162 4 170 1 114 3 183 7 335 3 99 5 207 4
240 -1 33 -2 72 -1 88 3 54 3 75 -3 307 -3 129 -5 244 -5 255 1 11 1 43 1 70
0 28 4 79 10 115 7 41 8 78 2 99 -9 35 -26 50 -37 33z"/>
<path d="M18985 17271 c-3 -5 -1 -12 5 -16 5 -3 10 1 10 9 0 18 -6 21 -15 7z"/>
<path d="M24434 17168 c2 -24 5 -50 5 -58 1 -13 3 -13 11 1 12 21 7 92 -8 97
-8 2 -11 -9 -8 -40z"/>
<path d="M18955 17099 c-4 -6 1 -16 11 -24 16 -11 20 -11 27 1 15 27 -22 49
-38 23z"/>
<path d="M24432 17054 c-9 -16 -8 -26 2 -39 12 -16 13 -16 19 -1 4 9 3 26 -2
38 l-8 22 -11 -20z"/>
<path d="M24427 16983 c-12 -11 -8 -23 8 -23 8 0 15 7 15 15 0 16 -12 20 -23
8z"/>
<path d="M18963 16953 c-10 -3 -10 -9 0 -24 16 -26 39 -25 35 3 -3 22 -15 30
-35 21z"/>
<path d="M24423 16856 c3 -18 1 -38 -5 -44 -7 -7 -6 -18 3 -33 13 -23 14 -21
21 31 8 60 5 80 -13 80 -8 0 -10 -12 -6 -34z"/>
<path d="M18972 16783 c3 -20 -2 -49 -9 -64 -7 -15 -10 -35 -7 -44 7 -17 8
-17 21 1 16 22 18 144 2 144 -7 0 -10 -14 -7 -37z"/>
<path d="M24410 16690 c0 -5 4 -10 9 -10 6 0 13 5 16 10 3 6 -1 10 -9 10 -9 0
-16 -4 -16 -10z"/>
<path d="M8374 16679 c-308 -22 -567 -202 -710 -494 -78 -160 -98 -249 -90
-400 3 -66 9 -141 12 -166 6 -41 4 -47 -15 -52 -25 -6 -29 -42 -5 -51 9 -3 30
-6 48 -6 55 0 356 48 446 70 19 5 98 20 175 34 612 110 745 144 813 212 109
109 -47 206 -473 295 -33 7 -51 14 -40 16 425 75 525 124 525 255 0 81 -55
137 -205 209 -143 69 -282 92 -481 78z m286 -75 c127 -28 238 -82 294 -144 61
-68 46 -119 -50 -164 -106 -50 -379 -106 -519 -106 -95 0 -141 -46 -72 -74 17
-8 109 -28 203 -45 311 -56 484 -121 484 -180 0 -17 -13 -28 -57 -48 -85 -37
-242 -73 -648 -149 -77 -14 -203 -38 -280 -54 -376 -77 -338 -76 -354 -7 -54
242 -15 432 132 645 74 108 189 211 289 260 167 83 387 108 578 66z"/>
<path d="M29623 16652 c-10 -10 -13 -54 -13 -170 -1 -86 -3 -179 -5 -207 -2
-27 -6 -97 -9 -155 -3 -58 -8 -144 -12 -191 -7 -85 -7 -86 21 -107 34 -27 45
-25 66 14 14 25 15 48 7 159 -4 72 -6 144 -3 162 6 34 53 77 77 68 25 -8 280
-26 298 -20 27 8 32 63 8 87 -17 17 -31 19 -151 14 -73 -3 -141 -8 -152 -11
-13 -4 -31 2 -48 15 -26 20 -27 26 -27 107 0 70 4 92 22 120 l21 35 86 -5
c241 -17 310 -17 327 0 16 17 13 68 -5 86 -5 5 -118 10 -252 11 -189 1 -245
-2 -256 -12z"/>
<path d="M18967 16628 c-3 -11 1 -30 9 -42 13 -19 14 -18 14 22 0 44 -14 57
-23 20z"/>
<path d="M24415 16627 c-4 -10 -5 -21 -1 -24 10 -10 18 4 13 24 -4 17 -4 17
-12 0z"/>
<path d="M24410 16545 c0 -8 5 -15 10 -15 6 0 10 7 10 15 0 8 -4 15 -10 15 -5
0 -10 -7 -10 -15z"/>
<path d="M18973 16498 c1 -32 5 -58 10 -58 9 0 8 70 -3 95 -5 14 -8 1 -7 -37z"/>
<path d="M10814 16490 c-124 -18 -234 -70 -295 -138 -114 -127 -151 -391 -119
-852 8 -104 7 -177 -1 -258 -9 -88 -9 -115 1 -127 19 -23 48 -18 67 12 15 23
18 50 17 183 0 85 -6 205 -13 265 -21 167 -11 457 18 560 42 152 98 220 216
264 170 64 428 47 547 -35 45 -32 68 -70 68 -114 0 -111 -129 -187 -500 -296
-160 -48 -180 -56 -180 -81 0 -23 57 -40 175 -52 211 -23 457 -81 509 -122 97
-76 -99 -222 -514 -384 -159 -62 -170 -68 -170 -98 0 -17 5 -19 38 -14 20 2
98 27 173 55 382 142 579 279 579 402 0 83 -182 159 -492 205 -56 9 -104 18
-106 20 -6 6 -3 7 142 50 261 79 373 148 411 255 29 82 1 154 -80 210 -117 81
-312 116 -491 90z"/>
<path d="M26545 16292 c-3 -4 -40 -5 -81 -3 -42 1 -74 -1 -74 -7 0 -12 68 -21
155 -19 54 2 70 5 70 17 0 14 -57 24 -70 12z"/>
<path d="M26969 16295 c-3 -2 -77 -6 -164 -9 -109 -2 -160 -7 -163 -15 -3 -9
20 -11 87 -7 53 3 93 1 96 -4 10 -16 52 -11 59 6 5 12 10 13 19 6 7 -6 37 -11
67 -11 30 0 66 -2 79 -3 13 -2 26 3 28 10 3 8 -8 12 -36 12 -22 0 -43 5 -46
10 -7 11 -19 13 -26 5z"/>
<path d="M27128 16293 c-38 -4 -44 -9 -30 -29 8 -12 395 -12 425 1 40 17 10
25 -95 24 -62 -1 -130 2 -151 6 -26 5 -42 3 -54 -6 -13 -11 -17 -11 -20 -1 -3
6 -12 11 -21 10 -9 -1 -34 -3 -54 -5z"/>
<path d="M27565 16280 c-10 -11 -16 -20 -14 -21 46 -7 132 -4 145 6 15 10 10
13 -32 19 -27 4 -56 9 -65 12 -9 2 -24 -5 -34 -16z"/>
<path d="M18971 16274 c0 -11 3 -14 6 -6 3 7 2 16 -1 19 -3 4 -6 -2 -5 -13z"/>
<path d="M24682 16283 c-12 -2 -20 -8 -17 -12 6 -10 53 -2 61 10 5 9 -4 10
-44 2z"/>
<path d="M25658 16279 c-19 -12 7 -18 50 -12 23 3 42 9 42 14 0 9 -76 8 -92
-2z"/>
<path d="M25815 16281 c-16 -7 -17 -10 -5 -15 18 -7 77 -2 87 7 3 4 0 7 -8 7
-8 0 -23 2 -34 5 -11 2 -29 0 -40 -4z"/>
<path d="M25975 16280 c-8 -13 15 -24 27 -12 6 6 4 11 -6 15 -8 3 -18 2 -21
-3z"/>
<path d="M26137 16284 c-8 -8 1 -24 13 -24 4 0 10 7 14 15 5 15 -14 21 -27 9z"/>
<path d="M26236 16269 c16 -17 27 -20 67 -16 89 8 76 30 -20 34 l-66 3 19 -21z"/>
<path d="M27861 16281 c-44 -12 -37 -31 13 -31 50 0 67 13 37 29 -11 6 -21 11
-23 10 -2 -1 -14 -4 -27 -8z"/>
<path d="M28101 16281 c-8 -5 -10 -14 -7 -20 9 -13 33 -15 40 -2 9 14 -18 31
-33 22z"/>
<path d="M28300 16270 c-30 -16 -32 -19 -17 -25 10 -4 29 -2 42 5 13 7 30 10
38 7 27 -10 27 6 1 20 -15 7 -27 13 -28 12 0 -1 -17 -9 -36 -19z"/>
<path d="M28731 16279 c-39 -8 -74 -39 -53 -46 7 -3 19 -18 27 -34 14 -27 14
-29 -7 -43 -13 -8 -35 -20 -50 -27 -52 -23 -28 -44 62 -54 83 -9 107 7 121 80
16 87 -26 140 -100 124z"/>
<path d="M24775 16270 c4 -6 11 -8 16 -5 14 9 11 15 -7 15 -8 0 -12 -5 -9 -10z"/>
<path d="M24875 16270 c3 -5 8 -10 11 -10 2 0 4 5 4 10 0 6 -5 10 -11 10 -5 0
-7 -4 -4 -10z"/>
<path d="M25135 16270 c3 -5 10 -10 16 -10 5 0 9 5 9 10 0 6 -7 10 -16 10 -8
0 -12 -4 -9 -10z"/>
<path d="M25270 16270 c0 -5 9 -10 20 -10 11 0 20 5 20 10 0 6 -9 10 -20 10
-11 0 -20 -4 -20 -10z"/>
<path d="M25410 16270 c0 -5 9 -10 21 -10 11 0 17 5 14 10 -3 6 -13 10 -21 10
-8 0 -14 -4 -14 -10z"/>
<path d="M25525 16270 c28 -12 45 -12 45 0 0 6 -15 10 -32 9 -28 0 -30 -2 -13
-9z"/>
<path d="M26056 16271 c-7 -11 22 -23 35 -15 5 3 9 9 9 15 0 12 -37 12 -44 0z"/>
<path d="M27955 16271 c-7 -13 17 -24 40 -19 9 1 16 8 16 13 0 14 -48 19 -56
6z"/>
<path d="M27785 16260 c4 -6 11 -8 16 -5 14 9 11 15 -7 15 -8 0 -12 -5 -9 -10z"/>
<path d="M28410 16259 c0 -5 5 -7 10 -4 6 3 10 8 10 11 0 2 -4 4 -10 4 -5 0
-10 -5 -10 -11z"/>
<path d="M28475 16261 c-3 -2 -5 -10 -5 -16 0 -9 21 -12 70 -11 57 1 70 4 68
16 -3 11 -18 15 -66 16 -34 0 -65 -2 -67 -5z"/>
<path d="M18977 16153 c-11 -10 -8 -43 3 -43 6 0 10 11 10 25 0 26 -2 29 -13
18z"/>
<path d="M25265 16150 c-3 -4 -23 -6 -45 -3 -32 5 -40 2 -40 -10 0 -20 32 -30
98 -30 49 0 84 14 70 29 -11 11 -78 22 -83 14z"/>
<path d="M25780 16143 c-91 -4 -113 -10 -88 -24 30 -17 212 -9 231 10 8 8 4
11 -15 11 -15 0 -32 1 -40 3 -7 2 -47 1 -88 0z"/>
<path d="M25983 16142 c-10 -7 -10 -12 1 -27 12 -17 18 -18 52 -7 27 8 41 8
51 0 9 -7 17 -7 28 2 9 8 28 10 52 6 50 -9 83 -9 90 -2 11 10 -4 18 -52 27
-35 7 -54 5 -75 -6 -15 -8 -30 -11 -34 -8 -3 4 -21 7 -39 8 -17 1 -39 5 -47 8
-8 4 -21 3 -27 -1z"/>
<path d="M26660 16137 c-71 -8 -105 -21 -95 -37 6 -10 185 -6 208 5 11 4 28 3
43 -5 20 -11 27 -11 44 5 18 16 20 16 20 2 0 -19 15 -23 25 -7 4 6 12 7 18 3
6 -4 114 -8 240 -10 217 -2 267 2 267 26 0 12 -173 20 -187 9 -8 -7 -30 -6
-62 2 -28 6 -55 9 -61 5 -6 -4 -17 -1 -25 5 -12 10 -21 10 -44 0 -22 -9 -38
-9 -67 0 -31 9 -44 9 -66 -3 -22 -11 -41 -12 -105 -3 -49 7 -106 8 -153 3z"/>
<path d="M27694 16139 c-5 -9 -41 -10 -125 -6 -119 6 -143 1 -119 -27 12 -16
127 -20 136 -5 3 5 12 5 22 0 21 -11 170 -12 177 -1 3 4 20 6 37 4 18 -2 106
-5 195 -8 130 -4 164 -2 173 9 22 26 1 33 -83 29 -90 -5 -113 -5 -264 -1 -56
1 -105 5 -109 10 -11 11 -32 9 -40 -4z"/>
<path d="M24607 16129 c-9 -6 -15 -14 -12 -18 4 -8 378 -8 400 -1 6 2 29 0 53
-4 41 -8 72 3 72 24 0 12 -492 11 -513 -1z"/>
<path d="M25408 16132 c-16 -2 -28 -8 -28 -13 0 -6 45 -9 113 -7 61 2 111 7
110 12 -3 9 -144 15 -195 8z"/>
<path d="M26310 16128 c0 -16 29 -23 95 -24 39 -1 78 -5 87 -9 9 -4 22 -4 28
0 20 12 10 33 -20 40 -37 8 -190 3 -190 -7z"/>
<path d="M28260 16125 c-25 -7 -47 -14 -50 -15 -3 -1 6 -6 20 -10 35 -11 202
-12 220 0 18 11 7 15 -60 24 -25 3 -54 8 -65 10 -11 2 -40 -2 -65 -9z"/>
<path d="M28501 16119 c-18 -7 -21 -13 -13 -21 12 -12 102 -2 102 12 0 4 -8 6
-19 3 -10 -3 -22 0 -25 6 -8 13 -13 13 -45 0z"/>
<path d="M24254 16089 c-3 -6 -8 -66 -10 -132 -2 -67 -7 -158 -10 -202 -8
-109 -6 -155 8 -189 9 -23 9 -31 -3 -40 -12 -9 -15 -37 -15 -136 -1 -69 -4
-181 -7 -250 -10 -178 -21 -566 -31 -1045 -10 -488 -15 -610 -21 -628 -4 -9
-4 -34 -1 -55 3 -20 6 -41 6 -47 -2 -65 -12 -215 -19 -279 -4 -44 -5 -85 -1
-91 3 -5 6 -62 5 -125 -1 -63 2 -123 7 -133 6 -12 5 -19 -4 -22 -19 -8 -19
-82 0 -90 18 -7 42 12 42 34 0 9 6 23 13 30 10 10 8 16 -9 30 -17 13 -19 22
-12 35 6 10 6 33 0 60 -7 32 -6 50 4 67 20 36 17 66 -6 72 -24 6 -29 64 -6 73
8 3 18 13 22 22 6 16 18 414 15 525 0 6 2 62 4 122 3 61 5 211 6 335 1 124 6
232 10 241 4 9 4 44 -1 80 -6 41 -5 79 1 109 6 25 13 133 15 240 3 107 7 251
10 320 6 149 6 163 6 283 -1 94 2 171 14 447 7 170 7 305 -2 333 -6 19 -20 22
-30 6z"/>
<path d="M18957 16030 c-3 -11 -1 -20 4 -20 5 0 9 2 9 4 0 2 3 11 6 20 3 9 2
16 -4 16 -5 0 -12 -9 -15 -20z"/>
<path d="M18970 15979 c0 -11 5 -17 10 -14 6 3 10 13 10 21 0 8 -4 14 -10 14
-5 0 -10 -9 -10 -21z"/>
<path d="M24405 15937 c-4 -10 -5 -21 -1 -24 10 -10 18 4 13 24 -4 17 -4 17
-12 0z"/>
<path d="M18957 15920 c-5 -19 18 -48 29 -37 9 8 -4 57 -15 57 -5 0 -11 -9
-14 -20z"/>
<path d="M10047 15893 c-25 -25 13 -99 66 -127 30 -17 38 -18 51 -7 9 8 16 26
16 42 0 47 -105 120 -133 92z"/>
<path d="M18964 15837 c-8 -21 2 -35 16 -21 5 5 6 15 0 24 -8 12 -10 12 -16
-3z"/>
<path d="M24396 15801 c-4 -6 -6 -37 -5 -69 1 -33 -1 -63 -4 -69 -6 -10 9 -40
17 -32 7 6 10 168 3 175 -3 3 -8 1 -11 -5z"/>
<path d="M18957 15708 c6 -76 10 -91 23 -83 6 3 6 15 0 30 -6 15 -6 27 0 30 6
4 10 24 10 46 0 32 -4 39 -19 39 -17 0 -19 -6 -14 -62z"/>
<path d="M24390 15589 c0 -11 5 -17 10 -14 6 3 10 13 10 21 0 8 -4 14 -10 14
-5 0 -10 -9 -10 -21z"/>
<path d="M11732 15551 c-84 -29 -159 -113 -121 -136 5 -4 34 8 62 27 72 47
109 61 170 61 82 1 147 -26 220 -93 69 -63 91 -101 85 -146 -4 -40 -50 -60
-190 -84 -176 -31 -302 -24 -315 17 -2 6 22 24 54 39 32 15 61 33 65 39 14 20
8 54 -12 65 -23 13 -40 5 -115 -50 -102 -76 -114 -105 -57 -146 46 -35 91 -44
209 -44 133 0 291 28 368 65 52 25 85 66 85 104 0 61 -84 161 -191 231 -107
69 -214 87 -317 51z"/>
<path d="M18967 15524 c-11 -11 -8 -44 3 -44 15 0 24 30 13 41 -5 5 -12 6 -16
3z"/>
<path d="M24387 15498 c-8 -28 4 -47 14 -22 11 27 11 44 0 44 -5 0 -11 -10
-14 -22z"/>
<path d="M18967 15416 c-4 -10 -5 -21 -2 -24 9 -9 17 6 13 25 -3 17 -4 17 -11
-1z"/>
<path d="M9296 15404 c-9 -8 -16 -26 -16 -40 0 -13 -17 -59 -39 -102 -21 -42
-51 -108 -66 -147 -15 -38 -38 -91 -51 -117 -13 -26 -24 -54 -24 -63 0 -21 27
-30 44 -16 15 12 209 398 221 438 14 49 -34 82 -69 47z"/>
<path d="M24380 15384 c0 -8 5 -12 10 -9 6 4 8 11 5 16 -9 14 -15 11 -15 -7z"/>
<path d="M18953 15324 c-7 -18 17 -38 31 -24 11 11 1 40 -14 40 -6 0 -13 -7
-17 -16z"/>
<path d="M24376 15281 c-8 -12 3 -41 15 -41 12 0 12 37 0 45 -5 3 -12 1 -15
-4z"/>
<path d="M19745 15256 c-88 -29 -126 -55 -147 -104 -19 -41 -19 -49 -7 -72 18
-31 53 -37 73 -13 9 10 31 35 49 57 32 37 36 39 112 46 104 10 138 -3 165 -62
25 -55 25 -75 -2 -145 -19 -48 -43 -77 -134 -168 -62 -60 -133 -128 -158 -149
-102 -86 -160 -193 -123 -224 9 -8 75 -10 196 -8 101 1 202 -1 225 -5 29 -5
50 -3 74 8 27 13 32 21 32 49 0 50 -22 55 -200 43 -167 -12 -196 -9 -205 22
-13 40 13 72 93 119 91 52 243 195 272 255 21 44 29 152 15 215 -16 75 -108
133 -231 144 -37 4 -74 1 -99 -8z"/>
<path d="M18950 15228 c0 -42 10 -78 20 -78 11 0 16 36 11 78 -2 19 -9 32 -17
32 -9 0 -14 -11 -14 -32z"/>
<path d="M24375 15190 c-7 -12 2 -30 16 -30 5 0 9 9 9 20 0 21 -15 27 -25 10z"/>
<path d="M24377 15103 c-10 -9 -9 -43 2 -43 5 0 11 6 14 13 6 17 -7 40 -16 30z"/>
<path d="M18960 15016 c0 -9 5 -16 10 -16 6 0 10 4 10 9 0 6 -4 13 -10 16 -5
3 -10 -1 -10 -9z"/>
<path d="M24376 14968 c-8 -30 -8 -63 0 -55 8 7 17 77 10 77 -2 0 -6 -10 -10
-22z"/>
<path d="M5003 14924 l-27 -56 29 -23 c16 -13 37 -26 47 -28 22 -6 24 16 3 33
-20 17 -19 21 11 65 29 43 26 65 -10 65 -21 0 -30 -10 -53 -56z"/>
<path d="M13545 14949 c-23 -9 -19 -10 49 -12 28 -1 51 3 53 9 4 12 -72 15
-102 3z"/>
<path d="M13895 14950 c-3 -5 -1 -10 4 -10 6 0 11 5 11 10 0 6 -2 10 -4 10 -3
0 -8 -4 -11 -10z"/>
<path d="M12838 14943 c7 -3 16 -2 19 1 4 3 -2 6 -13 5 -11 0 -14 -3 -6 -6z"/>
<path d="M13280 14940 c0 -5 7 -10 15 -10 8 0 15 5 15 10 0 6 -7 10 -15 10 -8
0 -15 -4 -15 -10z"/>
<path d="M13458 14943 c7 -3 16 -2 19 1 4 3 -2 6 -13 5 -11 0 -14 -3 -6 -6z"/>
<path d="M13708 14943 c6 -2 18 -2 25 0 6 3 1 5 -13 5 -14 0 -19 -2 -12 -5z"/>
<path d="M13955 14940 c4 -6 11 -8 16 -5 14 9 11 15 -7 15 -8 0 -12 -5 -9 -10z"/>
<path d="M15660 14941 c0 -14 18 -23 31 -15 8 4 7 9 -2 15 -18 11 -29 11 -29
0z"/>
<path d="M15755 14940 c-20 -9 -2 -11 103 -15 29 0 31 1 16 12 -20 15 -88 16
-119 3z"/>
<path d="M16018 14943 c-32 -8 -20 -26 13 -19 17 3 36 6 41 6 5 0 6 5 3 10 -6
10 -26 11 -57 3z"/>
<path d="M16140 14940 c-32 -7 -31 -7 18 -9 33 -1 51 3 47 9 -7 11 -13 11 -65
0z"/>
<path d="M16315 14941 l-20 -8 20 -6 c11 -3 65 -4 120 -2 145 4 149 4 142 11
-9 9 -240 13 -262 5z"/>
<path d="M16615 14940 c-4 -6 6 -10 22 -10 22 0 25 2 13 10 -19 12 -27 12 -35
0z"/>
<path d="M16725 14941 c-7 -12 59 -26 75 -16 9 6 9 10 -1 16 -19 12 -66 11
-74 0z"/>
<path d="M16840 14941 c0 -13 89 -22 135 -13 l40 8 -50 6 c-80 9 -125 9 -125
-1z"/>
<path d="M16248 14933 c7 -3 16 -2 19 1 4 3 -2 6 -13 5 -11 0 -14 -3 -6 -6z"/>
<path d="M17063 14933 c9 -2 23 -2 30 0 6 3 -1 5 -18 5 -16 0 -22 -2 -12 -5z"/>
<path d="M17138 14933 c7 -3 16 -2 19 1 4 3 -2 6 -13 5 -11 0 -14 -3 -6 -6z"/>
<path d="M18365 14920 c-3 -6 1 -7 9 -4 18 7 21 14 7 14 -6 0 -13 -4 -16 -10z"/>
<path d="M18578 14923 c7 -3 16 -2 19 1 4 3 -2 6 -13 5 -11 0 -14 -3 -6 -6z"/>
<path d="M18964 14896 c-11 -28 -10 -161 1 -163 6 -2 11 12 13 30 1 17 5 54 8
80 6 51 -9 87 -22 53z"/>
<path d="M24350 14771 c0 -6 4 -12 8 -15 5 -3 7 -30 4 -61 -3 -42 -1 -55 9
-55 11 0 14 17 14 70 0 60 -2 70 -17 70 -10 0 -18 -4 -18 -9z"/>
<path d="M15450 14749 c0 -5 5 -7 10 -4 6 3 10 8 10 11 0 2 -4 4 -10 4 -5 0
-10 -5 -10 -11z"/>
<path d="M14465 14740 c-3 -5 -1 -10 4 -10 6 0 11 5 11 10 0 6 -2 10 -4 10 -3
0 -8 -4 -11 -10z"/>
<path d="M14595 14740 c3 -5 10 -10 16 -10 5 0 9 5 9 10 0 6 -7 10 -16 10 -8
0 -12 -4 -9 -10z"/>
<path d="M15000 14740 c0 -5 7 -10 15 -10 8 0 15 5 15 10 0 6 -7 10 -15 10 -8
0 -15 -4 -15 -10z"/>
<path d="M15113 14738 c2 -7 10 -13 17 -13 7 0 15 6 18 13 2 7 -5 12 -18 12
-13 0 -20 -5 -17 -12z"/>
<path d="M15260 14740 c0 -5 7 -10 16 -10 8 0 12 5 9 10 -3 6 -10 10 -16 10
-5 0 -9 -4 -9 -10z"/>
<path d="M16352 14738 c5 -15 28 -18 29 -3 0 6 -7 12 -17 13 -10 3 -15 -1 -12
-10z"/>
<path d="M16700 14740 c-9 -6 -10 -10 -3 -10 6 0 15 5 18 10 8 12 4 12 -15 0z"/>
<path d="M16857 14735 c-8 -18 11 -31 25 -17 11 11 3 32 -12 32 -4 0 -10 -7
-13 -15z"/>
<path d="M17327 14744 c-9 -10 4 -34 18 -34 20 0 30 21 14 31 -17 10 -24 11
-32 3z"/>
<path d="M17407 14744 c-9 -9 4 -35 14 -28 5 3 9 12 9 20 0 14 -12 19 -23 8z"/>
<path d="M17983 14743 c-62 -6 -53 -23 12 -23 42 0 55 3 55 15 0 8 -6 14 -12
13 -7 -1 -32 -3 -55 -5z"/>
<path d="M18270 14738 c0 -11 0 -11 113 -12 53 -1 97 2 97 6 0 4 -17 8 -37 9
-21 1 -68 2 -105 3 -38 1 -68 -2 -68 -6z"/>
<path d="M18563 14743 c-51 -7 -39 -22 15 -20 26 1 46 7 45 12 -2 12 -16 14
-60 8z"/>
<path d="M14700 14730 c0 -5 5 -10 10 -10 6 0 10 5 10 10 0 6 -4 10 -10 10 -5
0 -10 -4 -10 -10z"/>
<path d="M14920 14730 c0 -5 4 -10 9 -10 6 0 13 5 16 10 3 6 -1 10 -9 10 -9 0
-16 -4 -16 -10z"/>
<path d="M15180 14730 c0 -5 5 -10 10 -10 6 0 10 5 10 10 0 6 -4 10 -10 10 -5
0 -10 -4 -10 -10z"/>
<path d="M17160 14730 c0 -5 9 -10 21 -10 11 0 17 5 14 10 -3 6 -13 10 -21 10
-8 0 -14 -4 -14 -10z"/>
<path d="M17230 14724 c0 -9 7 -14 17 -12 25 5 28 28 4 28 -12 0 -21 -6 -21
-16z"/>
<path d="M17542 14729 c2 -6 8 -10 13 -10 5 0 11 4 13 10 2 6 -4 11 -13 11 -9
0 -15 -5 -13 -11z"/>
<path d="M17653 14733 c-13 -2 -23 -9 -23 -14 0 -11 159 -3 163 8 2 9 -104 13
-140 6z"/>
<path d="M18118 14725 c18 -8 39 -12 47 -9 27 11 5 24 -38 24 l-42 -1 33 -14z"/>
<path d="M18210 14731 c0 -5 9 -11 20 -14 13 -3 20 0 20 9 0 8 -9 14 -20 14
-11 0 -20 -4 -20 -9z"/>
<path d="M24356 14563 c-3 -3 -6 -24 -6 -45 0 -51 24 -46 27 5 2 35 -7 53 -21
40z"/>
<path d="M18796 14488 c-10 -98 -17 -212 -15 -228 1 -8 1 -60 0 -115 -2 -117
-2 -88 -1 -295 0 -91 -1 -253 -4 -360 -3 -107 -1 -213 4 -235 5 -24 5 -44 -1
-51 -5 -7 -7 -30 -3 -53 4 -27 2 -51 -6 -66 -9 -18 -10 -28 -2 -37 7 -9 8 -58
4 -151 -4 -76 -4 -144 1 -152 4 -7 3 -24 -1 -37 -14 -38 -9 -411 5 -415 21 -7
34 36 38 134 3 54 5 105 4 113 -3 62 3 150 13 173 9 24 8 34 -6 58 -9 16 -14
34 -10 41 4 6 9 62 10 122 1 61 5 142 8 179 5 56 2 75 -14 107 -16 31 -17 41
-7 47 24 14 27 43 10 84 -11 28 -12 44 -5 51 6 6 7 21 1 43 -7 26 -5 45 10 83
20 50 20 50 0 102 -15 40 -17 55 -8 66 6 8 8 25 5 38 -3 14 -2 27 3 30 13 9
14 236 0 252 -7 8 -7 19 0 31 5 11 8 76 7 148 -2 72 1 135 6 141 5 7 5 30 -1
55 -5 24 -9 53 -8 64 2 61 -4 95 -17 95 -10 0 -16 -18 -20 -62z"/>
<path d="M18945 14510 c-8 -13 14 -42 25 -35 10 6 1 45 -11 45 -4 0 -11 -5
-14 -10z"/>
<path d="M24351 14403 c-1 -56 13 -79 23 -38 3 13 0 39 -8 57 l-14 33 -1 -52z"/>
<path d="M18951 14392 c-11 -21 -6 -52 9 -52 4 0 11 12 14 26 9 35 -8 53 -23
26z"/>
<path d="M18946 14235 c-8 -39 0 -75 15 -75 5 0 8 25 8 55 -2 62 -14 72 -23
20z"/>
<path d="M24346 14244 c-6 -24 -2 -44 8 -33 9 11 15 59 7 59 -5 0 -12 -12 -15
-26z"/>
<path d="M24345 14167 c-4 -9 -4 -34 0 -55 l8 -37 10 33 c12 38 -5 92 -18 59z"/>
<path d="M18949 14123 c-7 -59 -6 -94 4 -90 15 5 22 97 7 97 -5 0 -10 -3 -11
-7z"/>
<path d="M24340 13985 c-9 -11 -10 -22 -3 -38 11 -22 11 -22 24 6 15 33 0 57
-21 32z"/>
<path d="M32066 13928 c-9 -12 -16 -32 -16 -44 0 -20 28 -54 44 -54 11 0 36
66 36 95 0 20 -5 25 -24 25 -14 0 -32 -10 -40 -22z"/>
<path d="M7565 13858 c-77 -39 -159 -83 -181 -99 -63 -43 -121 -114 -145 -178
-29 -78 -24 -202 13 -281 110 -240 522 -394 1048 -394 190 1 293 15 435 61
339 109 563 387 475 590 -25 59 -108 144 -183 188 -108 63 -296 123 -457 146
-103 15 -392 15 -515 -1 -190 -23 -555 -137 -595 -185 -27 -33 6 -31 116 6
210 71 507 119 729 119 326 -1 671 -102 792 -232 138 -147 5 -402 -279 -532
-195 -90 -462 -118 -760 -80 -536 67 -816 275 -758 561 10 51 19 65 69 114 58
57 98 79 256 144 102 42 141 75 125 106 -6 10 -18 19 -28 19 -9 0 -80 -32
-157 -72z"/>
<path d="M24343 13883 c-16 -26 -17 -59 -3 -68 14 -9 22 17 18 57 -3 32 -3 32
-15 11z"/>
<path d="M18945 13848 c-11 -50 -10 -91 4 -96 10 -3 13 2 9 22 -3 15 -1 29 3
32 12 7 11 51 -1 59 -5 3 -12 -4 -15 -17z"/>
<path d="M24336 13742 c-3 -6 -6 -35 -6 -64 0 -29 1 -63 0 -75 0 -13 4 -23 9
-23 5 0 11 35 13 78 3 74 -3 105 -16 84z"/>
<path d="M18925 13710 c-4 -6 0 -19 9 -29 9 -10 15 -31 13 -52 -1 -19 2 -34 8
-34 5 0 10 27 10 60 0 48 -3 60 -17 63 -9 2 -19 -2 -23 -8z"/>
<path d="M18940 13510 c0 -5 5 -10 10 -10 6 0 10 5 10 10 0 6 -4 10 -10 10 -5
0 -10 -4 -10 -10z"/>
<path d="M24327 13463 c-6 -56 -3 -73 9 -60 9 9 12 117 4 117 -4 0 -10 -26
-13 -57z"/>
<path d="M18936 13414 c-4 -14 -4 -34 -1 -45 5 -14 3 -17 -9 -13 -11 4 -16 1
-16 -10 0 -9 7 -16 16 -16 10 0 14 -6 10 -15 -3 -8 -1 -15 4 -15 12 0 11 -3
16 78 4 62 -8 84 -20 36z"/>
<path d="M24320 13275 c0 -30 4 -55 9 -55 10 0 23 88 15 101 -14 23 -24 4 -24
-46z"/>
<path d="M18938 13159 c-22 -38 -23 -82 -3 -99 22 -18 25 -10 15 35 -6 25 -5
44 1 52 6 6 9 19 7 27 -2 11 -8 6 -20 -15z"/>
<path d="M24314 13093 c3 -21 6 -48 6 -61 0 -14 4 -21 11 -17 6 4 9 19 8 33
-2 15 0 33 5 40 4 7 2 19 -4 27 -22 26 -33 17 -26 -22z"/>
<path d="M18933 13019 c4 -16 0 -30 -15 -46 -17 -18 -19 -25 -8 -38 7 -8 10
-30 8 -52 -4 -36 -2 -52 18 -128 8 -28 8 -27 14 20 3 28 2 75 -2 105 -5 33 -3
65 3 82 13 33 8 70 -10 76 -10 3 -12 -1 -8 -19z"/>
<path d="M24302 12958 c-9 -28 -7 -217 3 -240 3 -9 2 -25 -3 -35 -5 -10 -10
-93 -10 -185 0 -92 -3 -177 -7 -188 -3 -11 -2 -20 3 -20 17 0 32 85 31 186 0
141 0 133 3 314 2 91 7 171 11 178 5 8 3 12 -8 12 -8 0 -19 -10 -23 -22z"/>
<path d="M18937 12665 c-18 -67 -15 -121 7 -127 11 -3 15 98 6 127 -7 20 -7
20 -13 0z"/>
<path d="M24151 12572 c-6 -22 -10 -61 -10 -88 1 -27 -1 -88 -5 -135 -4 -64
-2 -91 8 -104 13 -18 15 -17 31 14 11 23 15 44 10 67 -3 19 -1 42 4 53 14 26
0 223 -16 228 -7 3 -16 -12 -22 -35z"/>
<path d="M18923 12370 c1 -94 6 -149 12 -148 6 2 10 39 11 83 0 44 2 105 3
135 4 76 3 80 -14 80 -12 0 -14 -23 -12 -150z"/>
<path d="M19720 12381 c-110 -34 -183 -121 -164 -197 5 -21 11 -25 38 -22 25
2 38 14 68 60 42 64 54 69 151 71 76 2 100 -13 118 -74 10 -32 9 -44 -6 -76
-29 -63 -42 -73 -100 -73 -68 0 -90 -16 -80 -59 l7 -34 68 5 c78 6 90 1 122
-50 19 -30 23 -50 22 -112 0 -63 -5 -82 -26 -115 -46 -73 -60 -80 -152 -79
-44 0 -91 6 -102 12 -12 6 -31 32 -43 57 -36 76 -101 89 -101 19 0 -44 41
-100 105 -144 35 -24 58 -31 118 -36 66 -6 80 -4 133 20 125 56 182 198 139
344 -9 29 -19 52 -23 52 -15 0 -82 72 -82 88 0 10 11 29 25 45 14 15 35 48 46
74 18 43 19 49 4 92 -16 46 -59 101 -81 101 -6 0 -31 8 -55 19 -46 19 -107 24
-149 12z"/>
<path d="M24287 12233 c-11 -10 -8 -51 3 -58 18 -11 27 3 22 35 -4 29 -12 37
-25 23z"/>
<path d="M27110 12165 c-20 -25 -4 -48 28 -40 35 8 46 20 39 39 -8 20 -51 21
-67 1z"/>
<path d="M27225 12161 c-7 -12 12 -24 25 -16 11 7 4 25 -10 25 -5 0 -11 -4
-15 -9z"/>
<path d="M18926 12099 c-8 -47 1 -70 19 -46 12 16 8 87 -5 87 -4 0 -10 -18
-14 -41z"/>
<path d="M24276 12131 c-4 -5 -3 -16 0 -25 3 -9 -10 -47 -29 -85 l-35 -69 27
2 c14 1 37 9 50 18 21 15 25 26 25 65 0 79 -19 125 -38 94z"/>
<path d="M15268 12123 c-32 -2 -58 -7 -58 -11 0 -10 157 -9 166 1 4 4 0 7 -9
7 -8 0 -21 1 -29 3 -7 2 -39 1 -70 0z"/>
<path d="M15845 12120 c-3 -5 1 -10 10 -10 9 0 13 5 10 10 -3 6 -8 10 -10 10
-2 0 -7 -4 -10 -10z"/>
<path d="M18207 12124 c-12 -12 4 -24 33 -24 16 0 32 5 36 11 4 7 0 9 -14 5
-11 -4 -23 -2 -27 4 -7 11 -19 13 -28 4z"/>
<path d="M18370 12120 c0 -22 180 -26 187 -4 2 7 -28 11 -92 12 -52 0 -95 -4
-95 -8z"/>
<path d="M15738 12113 c12 -2 32 -2 45 0 12 2 2 4 -23 4 -25 0 -35 -2 -22 -4z"/>
<path d="M16025 12110 c3 -5 15 -10 26 -10 11 0 17 5 14 10 -3 6 -15 10 -26
10 -11 0 -17 -4 -14 -10z"/>
<path d="M17635 12110 c-16 -7 -13 -9 18 -9 20 -1 37 4 37 9 0 12 -27 12 -55
0z"/>
<path d="M17800 12110 c0 -5 18 -10 40 -10 22 0 40 5 40 10 0 6 -18 10 -40 10
-22 0 -40 -4 -40 -10z"/>
<path d="M18130 12110 c0 -5 5 -10 10 -10 6 0 10 5 10 10 0 6 -4 10 -10 10 -5
0 -10 -4 -10 -10z"/>
<path d="M15080 12100 c0 -5 7 -10 15 -10 8 0 15 5 15 10 0 6 -7 10 -15 10 -8
0 -15 -4 -15 -10z"/>
<path d="M18058 12103 c7 -3 16 -2 19 1 4 3 -2 6 -13 5 -11 0 -14 -3 -6 -6z"/>
<path d="M5081 12034 c-26 -33 -26 -44 0 -93 35 -67 82 -65 59 3 -8 25 -9 46
-2 64 5 15 7 33 5 40 -8 21 -40 13 -62 -14z"/>
<path d="M18927 12024 c-9 -9 4 -35 14 -28 5 3 9 12 9 20 0 14 -12 19 -23 8z"/>
<path d="M23955 11989 c-4 -6 -5 -13 -2 -16 7 -7 27 6 27 18 0 12 -17 12 -25
-2z"/>
<path d="M18175 11960 c-4 -6 7 -10 27 -9 27 0 30 2 13 9 -27 12 -33 12 -40 0z"/>
<path d="M23760 11890 c0 -16 5 -21 23 -18 12 2 22 10 22 18 0 8 -10 16 -22
18 -18 3 -23 -2 -23 -18z"/>
<path d="M18916 11781 c-8 -13 4 -42 15 -35 12 7 12 44 0 44 -6 0 -12 -4 -15
-9z"/>
<path d="M18770 11765 c-12 -14 -16 -55 -18 -184 -2 -91 -6 -213 -8 -271 -2
-58 -4 -243 -6 -412 -1 -170 -5 -308 -10 -308 -8 0 -2 -140 8 -173 3 -10 0
-24 -6 -32 -8 -10 -8 -24 -2 -49 6 -19 7 -37 4 -41 -3 -3 -8 -76 -10 -163 -2
-86 -4 -166 -4 -177 -1 -11 0 -58 1 -105 1 -47 -1 -210 -4 -363 l-6 -279 26
-34 c21 -27 33 -34 61 -34 19 0 44 4 54 10 25 13 15 47 -16 54 -14 4 -28 14
-31 24 -3 9 -14 28 -23 42 -19 27 -33 123 -20 136 4 5 4 36 0 68 -5 33 -6 65
-2 70 4 6 8 81 9 166 2 85 3 173 4 195 1 22 1 49 0 60 -1 11 1 58 5 105 3 47
5 103 3 125 -2 45 -3 100 0 130 1 11 2 98 1 193 0 95 3 180 8 190 5 9 6 49 2
87 -4 39 -3 75 2 82 6 7 5 20 -2 33 -6 11 -8 25 -5 31 4 5 9 62 11 125 2 63 9
124 15 136 9 17 8 24 -5 34 -14 10 -16 22 -10 70 4 33 6 70 6 84 -1 14 -2 90
-2 170 -1 80 -5 163 -8 184 -7 36 -8 38 -22 21z"/>
<path d="M23500 11760 c0 -5 4 -10 9 -10 6 0 13 5 16 10 3 6 -1 10 -9 10 -9 0
-16 -4 -16 -10z"/>
<path d="M18922 11718 c-16 -16 -15 -28 3 -28 8 0 15 9 15 20 0 23 -2 24 -18
8z"/>
<path d="M23353 11688 c-13 -6 -23 -15 -23 -20 0 -16 37 -8 55 12 21 23 6 26
-32 8z"/>
<path d="M18917 11653 c-4 -3 -7 -15 -7 -26 0 -16 3 -17 15 -7 8 7 15 19 15
26 0 15 -12 19 -23 7z"/>
<path d="M18909 11540 c-4 -45 -1 -74 8 -77 11 -4 23 54 16 75 -6 14 -23 16
-24 2z"/>
<path d="M22955 11480 c-3 -5 -2 -10 4 -10 5 0 13 5 16 10 3 6 2 10 -4 10 -5
0 -13 -4 -16 -10z"/>
<path d="M18910 11416 c0 -14 -4 -28 -10 -31 -17 -10 -11 -25 10 -25 17 0 20
7 20 40 0 22 -4 40 -10 40 -5 0 -10 -11 -10 -24z"/>
<path d="M22765 11391 c-6 -11 9 -23 19 -14 9 9 7 23 -3 23 -6 0 -12 -4 -16
-9z"/>
<path d="M18905 11323 c-3 -15 -10 -44 -15 -64 -12 -43 -13 -89 -2 -89 25 1
36 23 39 77 1 32 4 67 5 77 5 31 -21 30 -27 -1z"/>
<path d="M22495 11249 c-12 -19 5 -23 22 -6 16 16 16 17 1 17 -9 0 -20 -5 -23
-11z"/>
<path d="M22425 11210 c-3 -5 -2 -10 4 -10 5 0 13 5 16 10 3 6 2 10 -4 10 -5
0 -13 -4 -16 -10z"/>
<path d="M22325 11170 c-3 -5 1 -10 9 -10 9 0 16 5 16 10 0 6 -4 10 -9 10 -6
0 -13 -4 -16 -10z"/>
<path d="M18885 11149 c-4 -5 0 -18 9 -28 13 -15 14 -24 6 -47 -13 -34 -5 -74
15 -74 11 0 14 16 14 80 -1 71 -3 80 -19 80 -10 0 -22 -5 -25 -11z"/>
<path d="M22140 11059 c0 -5 5 -7 10 -4 6 3 10 8 10 11 0 2 -4 4 -10 4 -5 0
-10 -5 -10 -11z"/>
<path d="M22003 10999 c-13 -5 -23 -13 -23 -19 0 -12 38 -4 53 10 14 12 -6 18
-30 9z"/>
<path d="M18904 10933 c1 -26 6 -48 11 -48 13 0 11 88 -2 92 -5 2 -9 -18 -9
-44z"/>
<path d="M22100 10880 c0 -5 5 -10 10 -10 6 0 10 5 10 10 0 6 -4 10 -10 10 -5
0 -10 -4 -10 -10z"/>
<path d="M21745 10866 c-19 -15 -18 -15 18 -16 27 0 37 4 35 13 -7 18 -31 20
-53 3z"/>
<path d="M18895 10830 c-7 -21 0 -40 16 -40 12 0 12 47 0 55 -5 3 -12 -4 -16
-15z"/>
<path d="M22010 10830 c19 -13 30 -13 30 0 0 6 -10 10 -22 10 -19 0 -20 -2 -8
-10z"/>
<path d="M21560 10760 c0 -5 4 -10 9 -10 6 0 13 5 16 10 3 6 -1 10 -9 10 -9 0
-16 -4 -16 -10z"/>
<path d="M18891 10725 c-12 -34 -11 -39 7 -58 l21 -20 6 25 c4 14 0 39 -7 57
l-13 33 -14 -37z"/>
<path d="M21405 10690 c-3 -5 -2 -10 4 -10 5 0 13 5 16 10 3 6 2 10 -4 10 -5
0 -13 -4 -16 -10z"/>
<path d="M18891 10627 c-12 -16 -15 -52 -9 -155 2 -40 0 -107 -4 -149 -5 -46
-5 -80 1 -86 5 -5 7 -48 4 -98 -4 -63 -3 -89 5 -89 7 0 14 10 17 23 10 45 13
475 3 485 -6 6 -6 12 1 16 13 8 15 66 2 66 -5 0 -14 -6 -20 -13z"/>
<path d="M20770 10385 c-6 -8 -9 -18 -6 -24 9 -14 40 -3 54 20 11 17 9 19 -12
19 -13 0 -29 -7 -36 -15z"/>
<path d="M20495 10219 c-4 -6 -5 -12 -2 -15 7 -7 37 7 37 17 0 13 -27 11 -35
-2z"/>
<path d="M20379 10154 c-12 -14 -11 -16 5 -13 11 2 21 10 24 17 5 17 -13 15
-29 -4z"/>
<path d="M20248 10082 c-10 -2 -18 -8 -18 -13 0 -13 27 -11 35 2 9 13 4 16
-17 11z"/>
<path d="M20900 10025 c0 -25 5 -45 10 -45 6 0 10 9 10 20 0 11 5 20 10 20 16
0 11 37 -6 44 -24 9 -24 9 -24 -39z"/>
<path d="M18890 10016 c0 -14 5 -26 10 -26 6 0 10 9 10 19 0 11 -4 23 -10 26
-6 4 -10 -5 -10 -19z"/>
<path d="M18883 9968 c-6 -7 -16 -37 -22 -67 -10 -46 -9 -58 4 -78 27 -41 40
-23 43 62 3 78 -6 107 -25 83z"/>
<path d="M20901 9918 c-16 -35 -21 -143 -20 -423 0 -93 0 -177 0 -185 1 -8 -2
-79 -4 -157 -4 -85 -2 -145 4 -148 5 -4 5 -14 -2 -27 -11 -21 -17 -233 -7
-244 4 -3 16 1 27 8 15 9 20 20 17 34 -3 11 -2 45 3 75 5 30 5 61 1 70 -5 8
-5 33 0 55 7 29 5 45 -5 60 -13 21 -13 57 1 144 3 19 1 55 -5 79 -5 25 -7 50
-3 55 9 15 9 216 0 216 -14 0 -8 23 9 35 12 9 16 25 14 61 -4 58 -4 77 1 213
3 111 -6 135 -31 79z"/>
<path d="M20719 9898 c-1 -18 -3 -148 -5 -288 -2 -140 -5 -311 -7 -380 -2 -69
0 -127 4 -130 4 -3 2 -21 -5 -40 -8 -24 -13 -145 -14 -393 -1 -197 -4 -363 -8
-368 -5 -8 -6 -95 -3 -384 0 -49 -1 -94 -2 -100 -1 -5 -3 -89 -5 -185 -1 -96
-5 -260 -8 -365 -12 -438 -15 -945 -5 -945 27 0 40 125 46 440 10 535 21 1080
28 1370 6 253 16 679 18 740 0 19 0 76 -1 125 -1 50 1 128 4 175 3 47 6 233 7
413 2 282 0 329 -13 337 -24 16 -30 12 -31 -22z"/>
<path d="M18872 9770 c-22 -9 -22 -11 -7 -34 13 -20 14 -29 5 -47 -9 -16 -9
-28 -1 -45 14 -32 31 -30 31 4 1 15 3 51 6 80 4 55 3 56 -34 42z"/>
<path d="M19595 9730 c-3 -5 -1 -10 4 -10 6 0 11 5 11 10 0 6 -2 10 -4 10 -3
0 -8 -4 -11 -10z"/>
<path d="M19446 9662 c-3 -6 -1 -14 5 -17 15 -10 25 3 12 16 -7 7 -13 7 -17 1z"/>
<path d="M19330 9610 c0 -5 7 -10 16 -10 8 0 12 5 9 10 -3 6 -10 10 -16 10 -5
0 -9 -4 -9 -10z"/>
<path d="M20882 8700 c-15 -17 -18 -39 -21 -147 -1 -71 -5 -138 -8 -150 -3
-13 3 -36 16 -56 25 -41 26 -47 6 -47 -21 0 -30 -47 -17 -94 6 -22 7 -47 2
-56 -11 -22 -20 -519 -9 -526 5 -3 6 -11 2 -17 -4 -7 -9 -101 -10 -210 -1
-109 -5 -203 -10 -210 -5 -7 -8 -106 -7 -221 2 -115 -1 -217 -6 -225 -5 -10
-3 -26 5 -41 11 -21 11 -29 -3 -52 -13 -23 -14 -31 -3 -51 8 -15 10 -37 6 -56
-9 -40 0 -54 25 -39 14 9 17 19 13 40 -3 15 0 42 7 58 11 26 10 33 -4 49 -14
16 -15 20 -2 30 18 15 17 81 -1 81 -10 0 -11 5 -4 19 6 10 12 51 15 92 3 58 1
76 -12 85 -17 12 -7 38 10 28 7 -5 9 0 5 14 -4 12 -10 31 -13 42 -5 15 -3 19
8 15 13 -5 15 7 12 75 -2 44 -6 85 -10 91 -10 18 -6 133 5 137 7 2 7 11 0 25
-6 14 -6 51 -1 102 6 53 5 88 -2 103 -8 19 -7 26 6 33 11 6 17 22 16 49 0 22
-4 40 -8 40 -12 0 -10 191 1 222 8 18 7 32 -1 48 -9 16 -8 25 1 36 10 13 10
17 -2 24 -12 8 -12 13 -1 31 11 17 11 23 1 29 -9 6 -9 15 3 42 13 26 15 63 12
183 -6 229 -4 334 7 362 5 13 9 26 9 29 0 11 -21 2 -38 -16z"/>
<path d="M24932 8520 c-104 -22 -221 -122 -280 -242 -48 -98 -65 -185 -58
-298 8 -131 26 -191 99 -339 50 -102 102 -161 141 -161 42 0 43 26 2 63 -59
53 -127 190 -161 327 -33 130 -10 327 50 419 82 129 241 205 350 169 34 -11
41 -19 49 -50 14 -57 -40 -157 -153 -285 -50 -56 -91 -108 -91 -116 0 -32 26
-38 122 -32 82 6 103 4 181 -19 104 -31 153 -55 202 -98 53 -46 68 -80 56
-126 -43 -158 -261 -252 -799 -347 -143 -25 -164 -34 -141 -61 18 -21 69 -15
354 41 308 62 447 110 551 193 89 70 130 193 90 271 -52 100 -222 180 -445
208 l-64 8 72 85 c94 110 131 185 131 260 0 47 -4 62 -25 84 -13 14 -35 30
-47 35 -38 14 -140 20 -186 11z"/>
<path d="M23610 8067 c-73 -21 -118 -47 -177 -100 -132 -121 -148 -238 -40
-293 41 -22 137 -14 272 21 182 47 319 43 431 -12 82 -40 114 -76 114 -130 0
-62 -21 -105 -85 -172 -64 -67 -158 -119 -232 -128 -43 -5 -53 -2 -81 22 -35
29 -62 27 -62 -5 0 -54 87 -89 177 -71 228 45 408 268 337 417 -45 95 -223
173 -394 174 -66 0 -167 -16 -275 -44 -84 -22 -177 -21 -198 2 -27 30 -20 64
23 116 130 158 282 192 487 110 51 -21 67 -23 78 -14 26 21 17 39 -32 64 -86
43 -264 65 -343 43z"/>
<path d="M17141 7961 c-14 -14 -21 -34 -21 -58 0 -20 -6 -44 -14 -52 -7 -9
-23 -42 -35 -75 -12 -32 -33 -78 -47 -101 -38 -66 -44 -99 -45 -250 0 -175
-10 -219 -56 -248 -43 -28 -54 -65 -25 -85 l20 -13 -25 -72 c-13 -40 -54 -146
-90 -237 -64 -159 -80 -229 -56 -237 17 -6 51 35 59 71 3 17 22 69 42 116 19
47 56 146 81 220 l46 135 82 3 c91 3 142 -6 154 -28 4 -8 20 -58 34 -110 32
-118 139 -364 176 -405 l28 -30 22 22 22 21 -61 124 c-59 118 -142 326 -142
354 0 18 33 17 94 -1 65 -20 115 -19 123 1 9 24 -7 33 -122 64 -60 16 -112 33
-116 37 -7 7 -16 60 -56 328 -8 55 -18 194 -21 309 -7 221 -11 237 -51 197z
m-61 -356 c-24 -83 -35 -97 -27 -32 6 45 34 114 43 105 2 -2 -5 -35 -16 -73z
m60 -22 c3 -78 24 -277 36 -336 21 -103 18 -109 -48 -102 -100 11 -98 11 -98
59 0 65 84 386 101 386 5 0 9 -3 9 -7z"/>
<path d="M22247 7852 c-37 -38 -53 -92 -66 -218 -7 -60 -20 -172 -31 -249 -11
-77 -22 -208 -26 -290 -7 -150 -7 -151 17 -179 l25 -28 169 11 c263 17 371 30
480 57 106 26 145 45 145 69 0 20 -31 19 -113 -4 -37 -11 -100 -25 -140 -30
-95 -15 -497 -41 -515 -34 -12 5 -13 29 -7 142 4 75 11 168 16 206 5 39 20
157 34 263 14 106 29 202 35 212 6 11 22 27 35 36 15 10 25 26 25 40 0 35 -48
33 -83 -4z"/>
<path d="M20021 7489 c-67 -23 -77 -32 -106 -89 -53 -104 -75 -334 -48 -495
18 -101 62 -210 93 -225 63 -31 80 -35 159 -34 123 1 169 30 214 139 38 92 58
290 41 420 -15 109 -24 147 -52 201 -26 52 -37 60 -108 84 -73 24 -123 24
-193 -1z m197 -75 c29 -20 40 -43 53 -106 23 -122 18 -337 -12 -453 -24 -94
-75 -133 -166 -129 -68 3 -84 13 -113 71 -24 46 -25 56 -25 233 1 102 5 208
11 236 16 76 52 135 94 150 50 18 131 17 158 -2z"/>
<path d="M17885 6850 c-67 -38 -70 -41 -71 -77 -1 -21 -12 -65 -24 -98 -28
-77 -24 -197 9 -260 26 -50 91 -114 152 -149 148 -84 373 -19 433 126 67 159
-87 363 -329 437 -46 14 -61 23 -63 40 -5 30 -27 26 -107 -19z m147 -86 c136
-43 240 -124 274 -211 24 -63 16 -149 -19 -195 -79 -103 -256 -99 -359 8 -65
67 -82 108 -82 199 0 67 4 90 28 143 26 56 46 81 68 82 4 0 44 -12 90 -26z"/>
<path d="M20815 6460 c-3 -6 -3 -20 1 -33 4 -12 7 -44 8 -72 1 -37 5 -50 16
-50 12 0 15 14 15 65 0 66 -8 100 -25 100 -5 0 -12 -5 -15 -10z"/>
<path d="M20850 6236 c0 -9 5 -16 10 -16 6 0 10 4 10 9 0 6 -4 13 -10 16 -5 3
-10 -1 -10 -9z"/>
<path d="M19687 6162 c-20 -2 -35 -7 -32 -13 8 -12 85 -12 85 0 0 14 -11 17
-53 13z"/>
<path d="M19917 6156 c-4 -10 -1 -13 9 -9 15 6 19 23 5 23 -5 0 -11 -7 -14
-14z"/>
<path d="M20298 6163 c6 -2 18 -2 25 0 6 3 1 5 -13 5 -14 0 -19 -2 -12 -5z"/>
<path d="M20837 6083 c-5 -82 1 -113 23 -113 9 0 22 42 26 80 1 14 3 30 5 35
6 18 -22 85 -35 85 -9 0 -15 -26 -19 -87z"/>
<path d="M17460 6130 c0 -5 7 -10 15 -10 8 0 15 5 15 10 0 6 -7 10 -15 10 -8
0 -15 -4 -15 -10z"/>
<path d="M17133 6123 c9 -2 25 -2 35 0 9 3 1 5 -18 5 -19 0 -27 -2 -17 -5z"/>
<path d="M15240 6100 c-24 -8 -23 -8 8 -9 20 -1 31 3 27 9 -3 6 -7 10 -8 9 -1
-1 -13 -5 -27 -9z"/>
<path d="M15470 6100 c0 -5 5 -10 10 -10 6 0 10 5 10 10 0 6 -4 10 -10 10 -5
0 -10 -4 -10 -10z"/>
<path d="M15533 6103 c9 -2 25 -2 35 0 9 3 1 5 -18 5 -19 0 -27 -2 -17 -5z"/>
<path d="M14166 6064 c-12 -11 -16 -36 -16 -94 0 -88 3 -92 73 -103 42 -6 53
14 17 33 -35 19 -27 82 15 129 19 21 35 41 35 45 0 14 -109 6 -124 -10z"/>
<path d="M20645 5810 c3 -5 8 -10 11 -10 2 0 4 5 4 10 0 6 -5 10 -11 10 -5 0
-7 -4 -4 -10z"/>
<path d="M20805 5685 c1 -58 4 -108 8 -111 12 -13 37 17 28 35 -4 9 -7 41 -6
71 1 51 -12 110 -25 110 -4 0 -5 -47 -5 -105z"/>
<path d="M20650 5764 c-10 -11 -15 -47 -16 -113 0 -53 -2 -98 -3 -101 -7 -16
-5 -149 3 -167 6 -15 4 -38 -4 -68 -10 -37 -10 -50 0 -70 11 -20 10 -28 -3
-48 -8 -13 -12 -29 -8 -35 10 -17 2 -221 -10 -243 -6 -13 -7 -25 -1 -32 10
-14 8 -192 -3 -226 -4 -12 -2 -28 4 -35 7 -9 8 -28 2 -59 -5 -27 -4 -50 1 -55
6 -6 4 -30 -6 -62 -12 -40 -13 -57 -5 -67 9 -9 8 -17 -1 -28 -14 -16 -6 -35
16 -35 18 0 18 -19 -1 -40 -15 -17 -17 -70 -16 -445 0 -38 -4 -74 -9 -80 -4
-5 -10 -43 -11 -83 -3 -56 0 -75 11 -82 12 -8 13 -13 3 -30 -15 -24 -17 -140
-3 -140 6 0 10 8 10 17 0 9 8 25 17 35 15 16 15 25 5 64 -7 25 -10 48 -8 52 7
12 18 155 16 207 -6 114 -5 181 3 197 11 26 18 406 6 413 -5 4 -4 15 3 28 7
12 14 61 14 112 1 50 3 101 3 115 1 14 2 90 1 170 0 80 2 197 4 260 13 335 17
661 8 675 -8 15 -10 15 -22 -1z"/>
<path d="M20830 5540 c0 -5 5 -10 10 -10 6 0 10 5 10 10 0 6 -4 10 -10 10 -5
0 -10 -4 -10 -10z"/>
<path d="M20790 5525 c0 -8 7 -15 15 -15 8 0 15 7 15 15 0 8 -7 15 -15 15 -8
0 -15 -7 -15 -15z"/>
<path d="M20800 5454 c0 -11 5 -14 16 -10 9 3 20 6 25 6 6 0 7 5 4 10 -10 16
-45 12 -45 -6z"/>
<path d="M20802 5408 c2 -12 9 -23 16 -26 18 -6 15 35 -4 42 -11 4 -15 0 -12
-16z"/>
<path d="M20815 5340 c-10 -16 16 -43 28 -31 11 11 2 41 -12 41 -5 0 -13 -5
-16 -10z"/>
<path d="M24960 5291 c-91 -30 -183 -102 -241 -187 -40 -58 -92 -170 -116
-248 -38 -122 -43 -294 -13 -401 26 -94 38 -119 79 -162 24 -26 38 -33 69 -33
61 0 144 74 129 114 -11 28 -53 19 -81 -19 -15 -19 -36 -35 -46 -35 -31 0 -67
66 -91 165 -26 111 -20 214 21 356 52 182 150 323 264 378 57 28 125 33 150
11 27 -21 17 -119 -18 -193 -23 -49 -132 -207 -258 -375 -26 -35 -30 -46 -21
-60 16 -25 57 -19 138 18 159 73 260 100 379 100 115 0 144 -24 127 -102 -18
-78 -144 -252 -270 -370 -110 -105 -217 -171 -321 -202 -68 -20 -85 -30 -75
-46 11 -18 101 -7 172 22 92 37 194 111 302 217 169 165 260 307 263 406 3 97
-51 128 -222 128 -105 -1 -184 -18 -297 -65 -40 -16 -77 -28 -82 -26 -6 1 35
61 90 132 55 71 116 163 136 203 60 121 56 225 -10 259 -35 19 -122 27 -157
15z"/>
<path d="M20805 5228 c8 -49 12 -55 25 -42 10 10 -10 84 -23 84 -5 0 -6 -19
-2 -42z"/>
<path d="M16918 5189 c-25 -14 -22 -40 12 -102 17 -30 30 -63 30 -72 0 -9 9
-28 20 -42 22 -28 33 -61 90 -268 21 -77 52 -179 68 -227 21 -63 26 -90 18
-96 -12 -9 -281 9 -291 20 -4 3 -7 75 -7 160 -1 130 3 171 25 270 15 64 30
148 33 187 6 62 5 71 -11 77 -34 13 -50 -9 -57 -82 -4 -38 -19 -118 -34 -179
-22 -92 -27 -135 -28 -260 -1 -112 -5 -156 -16 -172 -13 -20 -12 -24 8 -43 19
-18 22 -31 22 -108 0 -172 45 -519 71 -547 5 -5 9 -17 9 -27 0 -10 4 -18 8
-18 10 0 8 64 -13 382 -10 141 -15 264 -12 272 5 14 28 15 163 11 114 -3 159
-7 165 -17 5 -7 21 -49 35 -93 132 -397 314 -705 418 -705 37 0 28 32 -23 82
-84 82 -175 242 -250 438 -18 47 -37 94 -42 105 -17 39 -59 158 -59 166 0 5
11 14 25 19 14 5 25 14 25 20 0 11 -8 15 -50 24 -28 6 -33 20 -115 321 -47
171 -90 302 -106 320 -5 5 -9 26 -9 46 0 28 -6 41 -24 52 -13 9 -27 28 -31 44
-12 50 -32 63 -67 42z"/>
<path d="M20797 5153 c-2 -4 -5 -41 -6 -81 -1 -41 -6 -82 -11 -93 -8 -13 -7
-25 0 -39 13 -25 19 -25 36 -2 18 23 17 53 -2 80 -16 23 -11 47 8 36 8 -5 9 3
5 23 -3 17 -2 34 4 40 6 6 3 16 -10 27 -10 9 -21 14 -24 9z"/>
<path d="M20800 4850 c-15 -28 -23 -170 -10 -170 5 0 10 9 10 21 0 11 5 30 11
41 14 27 22 128 9 128 -5 0 -14 -9 -20 -20z"/>
<path d="M23930 4768 c-291 -50 -395 -88 -497 -181 -96 -90 -115 -156 -48
-173 34 -8 74 0 250 51 304 88 517 114 593 72 29 -16 32 -22 32 -62 0 -98
-125 -293 -290 -453 -103 -100 -226 -182 -287 -190 -55 -8 -63 -28 -22 -51 24
-13 31 -13 72 3 153 58 370 260 515 479 84 127 110 233 68 286 -24 31 -98 53
-195 58 -115 5 -283 -23 -486 -82 -137 -40 -215 -54 -215 -37 0 5 23 31 51 57
61 57 167 107 272 129 104 21 275 44 312 43 25 -2 31 2 33 22 2 13 -2 28 -10
32 -16 11 -75 9 -148 -3z"/>
<path d="M20774 4635 c-3 -14 -4 -40 0 -57 4 -18 1 -37 -6 -46 -10 -11 -9 -17
7 -28 27 -20 45 -17 45 6 0 11 -5 20 -10 20 -12 0 -1 53 12 58 11 5 10 32 -1
32 -5 0 -11 9 -14 20 -7 28 -25 25 -33 -5z"/>
<path d="M22536 4597 c-53 -53 -97 -288 -112 -597 -7 -150 -16 -189 -38 -171
-17 14 -53 88 -90 186 -15 39 -32 79 -36 90 -5 11 -33 78 -61 149 -118 301
-164 360 -263 342 -69 -13 -132 -115 -161 -261 -17 -86 -23 -284 -15 -528 4
-124 8 -150 21 -158 26 -14 44 17 43 75 0 28 -4 134 -9 236 -12 276 12 439 80
541 56 85 120 42 192 -127 23 -55 72 -175 109 -269 69 -175 129 -302 162 -343
30 -38 62 -26 93 34 23 46 27 68 33 200 11 224 47 466 79 533 20 43 52 39 83
-11 36 -57 91 -176 148 -323 65 -167 97 -235 124 -270 26 -32 64 -54 98 -55
21 0 74 44 74 62 0 15 -32 22 -51 10 -51 -32 -72 -1 -179 261 -88 217 -151
344 -192 388 -35 38 -97 41 -132 6z"/>
<path d="M20775 4428 c-3 -13 -4 -60 -2 -105 2 -47 0 -84 -6 -86 -6 -2 -5 -17
1 -41 7 -24 8 -47 1 -62 -5 -16 -5 -41 0 -66 7 -30 6 -53 -4 -80 -11 -33 -11
-44 1 -66 11 -22 14 -23 20 -9 3 9 3 29 0 43 -5 19 -2 30 10 39 11 7 14 17 9
25 -14 23 -14 74 0 102 11 22 11 28 -1 32 -16 6 -19 52 -4 61 8 5 7 12 -1 22
-10 11 -10 16 -1 22 7 4 12 43 14 96 3 78 1 90 -14 93 -11 2 -19 -5 -23 -20z"/>
<path d="M20108 4409 c-9 -5 -34 -45 -55 -89 -26 -55 -43 -80 -56 -80 -25 0
-89 -35 -109 -59 -22 -26 -23 -45 -3 -61 22 -18 46 -4 94 58 30 37 48 52 66
52 21 0 24 -5 30 -55 4 -30 5 -65 1 -79 -15 -60 -30 -570 -17 -594 15 -28 49
-34 71 -12 16 16 18 40 19 262 1 133 4 332 7 442 5 221 0 244 -48 215z"/>
<path d="M17762 3974 c-28 -19 -29 -64 -2 -200 10 -55 22 -167 26 -248 4 -81
14 -188 23 -239 15 -87 17 -92 41 -92 l25 0 -3 125 c-5 203 -21 404 -37 472
-8 35 -15 88 -15 119 0 48 -12 79 -30 79 -3 0 -16 -7 -28 -16z"/>
<path d="M20765 3858 c-4 -17 -2 -35 4 -41 13 -13 17 -10 24 30 8 43 -19 55
-28 11z"/>
<path d="M20757 3683 c-12 -12 -7 -33 8 -33 7 0 18 -7 23 -16 8 -15 10 -14 16
1 4 11 0 25 -10 36 -18 20 -27 23 -37 12z"/>
<path d="M20770 3575 c0 -8 7 -15 15 -15 8 0 15 7 15 15 0 8 -7 15 -15 15 -8
0 -15 -7 -15 -15z"/>
<path d="M20756 3524 c-3 -9 -2 -23 4 -32 7 -14 9 -10 10 16 0 35 -5 41 -14
16z"/>
<path d="M20762 3453 c-8 -15 -9 -24 -1 -28 15 -10 21 0 17 27 l-3 23 -13 -22z"/>
<path d="M20770 3205 c0 -49 -4 -59 -36 -95 -53 -59 -32 -95 39 -65 25 10 37
22 37 35 0 10 5 22 10 25 7 4 6 13 -1 26 -9 17 -15 51 -18 112 -1 9 -8 17 -16
17 -12 0 -15 -13 -15 -55z"/>
<path d="M18195 3220 c4 -6 11 -8 16 -5 14 9 11 15 -7 15 -8 0 -12 -5 -9 -10z"/>
<path d="M14084 3079 c-15 -17 -18 -34 -16 -82 1 -34 6 -63 11 -67 4 -3 12
-15 16 -28 5 -19 13 -23 38 -20 42 4 47 35 12 68 -31 29 -34 79 -5 98 11 7 20
21 20 32 0 28 -51 27 -76 -1z"/>
<path d="M25664 2911 c-76 -32 -143 -73 -285 -173 -60 -42 -117 -79 -126 -82
-10 -4 -29 -15 -43 -26 l-25 -20 45 19 c90 37 196 96 307 172 23 16 44 29 46
29 3 0 28 16 57 35 29 19 58 35 65 35 16 0 39 27 28 32 -4 3 -36 -7 -69 -21z"/>
<path d="M25142 2596 c-31 -18 -38 -26 -21 -26 8 0 25 9 39 20 28 22 17 25
-18 6z"/>
<path d="M25037 2543 c-10 -9 -9 -23 1 -23 5 0 17 7 28 15 19 14 19 14 -2 15
-11 0 -24 -3 -27 -7z"/>
<path d="M24985 2509 c-4 -5 -18 -14 -31 -19 -13 -5 -24 -14 -24 -20 0 -13 17
-13 25 1 4 5 18 14 31 19 13 5 24 14 24 20 0 13 -17 13 -25 -1z"/>
<path d="M24865 2440 c-3 -5 1 -10 9 -10 8 0 18 5 21 10 3 6 -1 10 -9 10 -8 0
-18 -4 -21 -10z"/>
<path d="M24819 2413 c-13 -15 -12 -15 9 -4 23 12 28 21 13 21 -5 0 -15 -7
-22 -17z"/>
<path d="M24745 2380 c-3 -5 -2 -10 4 -10 5 0 13 5 16 10 3 6 2 10 -4 10 -5 0
-13 -4 -16 -10z"/>
<path d="M24476 2265 c-25 -19 -9 -19 24 0 14 8 19 14 10 14 -8 0 -24 -6 -34
-14z"/>
<path d="M24341 2212 c-36 -15 -57 -28 -49 -30 9 -2 36 6 59 17 24 12 48 21
55 21 7 0 16 5 19 10 10 16 -16 11 -84 -18z"/>
<path d="M24238 2163 c7 -3 16 -2 19 1 4 3 -2 6 -13 5 -11 0 -14 -3 -6 -6z"/>
<path d="M24160 2140 c-8 -5 -12 -11 -9 -14 2 -3 11 -1 19 4 8 5 12 11 9 14
-2 3 -11 1 -19 -4z"/>
<path d="M24091 2119 c-13 -5 -21 -12 -18 -15 9 -9 57 5 57 16 0 12 -7 12 -39
-1z"/>
<path d="M23980 2080 c-8 -4 -26 -13 -40 -19 -24 -10 -24 -10 5 -4 36 7 87 32
65 32 -8 0 -22 -4 -30 -9z"/>
<path d="M23780 2009 c0 -5 5 -7 10 -4 6 3 10 8 10 11 0 2 -4 4 -10 4 -5 0
-10 -5 -10 -11z"/>
<path d="M28898 1944 c-32 -17 -41 -39 -23 -54 20 -16 69 9 73 36 4 28 -17 35
-50 18z"/>
<path d="M23440 1884 c-43 -24 -41 -24 25 -2 36 13 55 28 35 28 -8 -1 -35 -12
-60 -26z"/>
<path d="M23202 1784 c-13 -9 -46 -24 -75 -34 -86 -31 -145 -63 -123 -68 10
-2 64 19 120 47 55 28 107 51 114 51 6 0 12 5 12 10 0 15 -23 12 -48 -6z"/>
<path d="M27285 1540 c3 -5 10 -10 16 -10 5 0 9 5 9 10 0 6 -7 10 -16 10 -8 0
-12 -4 -9 -10z"/>
<path d="M28617 456 c-8 -20 16 -39 30 -25 14 14 6 39 -12 39 -7 0 -15 -6 -18
-14z"/>
<path d="M27331 324 c-12 -26 -1 -54 20 -54 14 0 30 40 24 60 -9 28 -30 25
-44 -6z"/>
</g>
</svg>
