<?xml version="1.0" standalone="no"?>
<!DOCTYPE svg PUBLIC "-//W3C//DTD SVG 20010904//EN"
 "http://www.w3.org/TR/2001/REC-SVG-20010904/DTD/svg10.dtd">
<svg version="1.0" xmlns="http://www.w3.org/2000/svg"
 width="3264.000000pt" height="2448.000000pt" viewBox="0 0 3264.000000 2448.000000"
 preserveAspectRatio="xMidYMid meet">
<metadata>
Created by potrace 1.12, written by Peter Selinger 2001-2015
</metadata>
<g transform="translate(0.000000,2448.000000) scale(0.100000,-0.100000)"
fill="#000000" stroke="none">
<path d="M9803 23200 c-144 -29 -335 -115 -400 -181 -48 -48 -83 -115 -83
-159 0 -16 8 -45 17 -65 15 -31 21 -36 48 -33 l30 3 0 65 c0 57 4 71 32 112
27 39 49 54 135 97 57 28 139 60 182 71 97 25 230 27 284 4 91 -38 141 -132
127 -242 -17 -134 -95 -248 -411 -602 -340 -381 -389 -459 -349 -553 24 -57
64 -77 158 -77 190 0 478 81 866 243 147 62 161 71 161 98 0 31 -43 24 -190
-31 -74 -28 -144 -55 -155 -60 -11 -6 -74 -28 -140 -49 -350 -113 -619 -143
-633 -71 -4 21 62 128 128 208 50 61 227 260 241 272 20 17 243 287 282 341
26 36 61 97 79 135 30 62 33 78 33 159 0 81 -3 96 -32 150 -43 82 -94 129
-170 154 -65 22 -161 26 -240 11z"/>
<path d="M14902 23158 c-19 -19 -14 -50 12 -77 14 -15 58 -85 99 -157 100
-173 190 -306 260 -381 25 -26 28 -35 18 -47 -18 -22 -235 -162 -421 -271
-262 -154 -386 -241 -481 -335 -84 -85 -136 -166 -125 -195 11 -30 35 -14 90
59 88 117 256 251 417 331 87 44 428 253 517 318 29 20 56 37 60 37 4 0 37
-32 72 -71 68 -77 172 -151 246 -176 89 -30 204 0 212 56 4 24 -4 25 -63 11
-81 -19 -210 41 -333 155 -57 53 -65 65 -54 78 7 8 70 54 140 101 70 48 165
113 212 146 110 78 293 185 348 204 31 11 49 13 62 6 25 -14 63 -13 78 2 22
22 12 47 -28 74 -83 55 -163 17 -605 -290 -93 -65 -189 -134 -213 -153 -23
-19 -49 -33 -58 -31 -27 5 -204 257 -300 425 -78 136 -120 193 -143 193 -4 0
-12 -5 -19 -12z"/>
<path d="M12582 23086 c-55 -40 -160 -153 -198 -214 -102 -158 -165 -335 -278
-782 -88 -347 -87 -340 -95 -340 -3 0 -12 9 -19 20 -28 46 -89 6 -78 -52 19
-104 112 -105 165 -1 13 26 40 122 125 458 107 417 141 506 269 693 49 71 121
140 130 125 3 -5 -1 -67 -9 -138 -22 -208 -44 -510 -44 -604 0 -91 13 -186 32
-234 31 -80 127 -58 246 57 107 102 205 267 305 513 25 61 63 145 84 185 34
66 38 70 41 44 2 -16 -1 -65 -7 -110 -7 -44 -14 -144 -18 -222 -7 -175 6 -269
56 -384 36 -84 38 -85 75 -88 32 -3 42 2 70 31 74 79 99 177 100 387 1 139 -1
155 -16 158 -26 5 -35 -28 -48 -178 -13 -160 -25 -223 -53 -272 -28 -52 -44
-55 -63 -10 -59 140 -67 393 -22 715 13 93 7 131 -24 151 -15 9 -23 5 -47 -19
-27 -27 -141 -243 -187 -355 -39 -95 -145 -298 -191 -370 -51 -77 -156 -183
-194 -195 -71 -23 -85 135 -49 562 11 131 25 274 31 319 14 93 6 149 -21 164
-26 14 -32 13 -68 -14z"/>
<path d="M11880 23035 c-7 -8 -18 -86 -26 -182 -17 -205 -19 -220 -55 -408
-48 -249 -78 -393 -115 -540 -50 -196 -114 -486 -114 -513 0 -24 33 -43 60
-34 46 16 72 72 34 72 -8 0 -14 8 -14 18 1 21 47 236 127 592 85 377 107 486
148 741 29 179 34 231 26 248 -14 24 -53 28 -71 6z"/>
<path d="M13866 22988 c-5 -15 -40 -178 -55 -253 -41 -210 -52 -683 -18 -802
48 -166 155 -158 341 25 137 135 197 245 295 542 67 202 82 270 58 270 -17 0
-32 -17 -40 -45 -13 -47 -107 -306 -134 -372 -57 -134 -122 -233 -212 -323
-49 -49 -107 -96 -134 -109 -44 -21 -49 -22 -71 -8 -26 17 -30 34 -46 172 -27
238 2 550 69 765 26 81 26 112 3 133 -22 20 -51 22 -56 5z"/>
<path d="M11705 22734 c-112 -98 -192 -147 -417 -256 -175 -86 -203 -109 -174
-153 21 -31 24 -31 72 2 21 14 107 60 189 101 83 41 182 97 222 124 87 60 186
161 181 186 -5 27 -40 25 -73 -4z"/>
<path d="M29747 17763 c-16 -16 -5 -57 23 -83 17 -15 30 -31 30 -34 0 -3 29
-43 63 -89 133 -176 210 -465 192 -722 -8 -125 -43 -310 -95 -499 -52 -189
-82 -271 -138 -379 -58 -114 -113 -188 -224 -303 -93 -96 -105 -124 -54 -124
16 0 46 20 87 58 221 203 285 321 413 762 54 185 97 470 89 595 -15 249 -81
468 -204 675 -64 108 -150 175 -182 143z"/>
<path d="M31589 17706 c-138 -83 -288 -212 -348 -299 -48 -70 -58 -118 -37
-182 20 -65 40 -79 184 -129 56 -19 111 -40 122 -46 41 -22 23 -49 -120 -189
-146 -142 -170 -178 -170 -251 0 -49 38 -128 78 -161 16 -13 90 -55 166 -94
144 -73 220 -131 231 -177 8 -31 -30 -133 -90 -237 -19 -35 -35 -68 -35 -74 0
-7 -7 -21 -15 -31 -8 -11 -15 -37 -15 -58 0 -31 4 -38 19 -38 10 0 24 6 30 14
26 32 174 344 179 378 2 21 -1 58 -8 83 -20 72 -116 149 -293 235 -47 22 -106
59 -131 81 -82 73 -68 106 129 299 114 112 145 156 145 209 0 58 -42 88 -192
136 -97 31 -148 69 -148 110 0 76 269 317 380 340 41 8 100 50 100 70 0 25
-31 45 -68 45 -24 0 -56 -12 -93 -34z"/>
<path d="M23545 17608 c-95 -78 -205 -197 -313 -343 -231 -309 -287 -517 -296
-1105 -5 -325 7 -434 68 -620 75 -223 234 -410 351 -410 24 0 38 5 42 16 7 20
-21 44 -50 44 -27 0 -100 62 -146 124 -154 208 -210 457 -197 876 18 597 82
793 369 1122 116 133 210 219 285 258 36 20 48 32 50 53 2 16 -2 35 -9 43 -25
30 -63 16 -154 -58z"/>
<path d="M21755 17324 c-227 -119 -338 -385 -322 -774 5 -138 5 -140 -16 -145
-12 -2 -49 -9 -82 -16 -72 -14 -167 -60 -189 -91 -21 -30 -20 -61 2 -81 26
-24 40 -21 82 17 37 33 126 73 186 83 l32 5 7 -93 c12 -166 62 -422 91 -466
16 -26 39 -30 47 -9 3 7 -7 73 -23 147 -15 74 -37 194 -49 268 -19 120 -20
136 -6 150 19 19 169 29 446 30 166 1 209 4 225 16 18 14 18 16 1 29 -35 27
-424 42 -602 24 -38 -4 -76 -4 -84 1 -11 7 -12 37 -3 182 14 214 40 337 94
439 46 88 66 112 136 168 64 50 108 64 158 50 29 -8 39 -6 55 8 42 38 10 82
-67 89 -42 5 -59 0 -119 -31z"/>
<path d="M28857 17212 c-21 -23 -32 -54 -62 -175 -33 -134 -48 -256 -40 -332
3 -33 2 -65 -2 -71 -4 -7 -46 -15 -93 -18 -209 -16 -260 -34 -246 -91 10 -38
39 -44 115 -23 70 19 199 38 217 31 7 -2 13 -72 17 -196 8 -211 22 -359 41
-397 6 -14 20 -25 31 -25 18 0 20 7 19 55 0 73 -21 343 -35 454 -16 126 -24
121 212 121 152 0 191 3 198 14 5 8 7 20 4 27 -6 16 -139 35 -287 40 -66 3
-123 7 -128 10 -8 5 -7 19 12 179 13 112 48 255 79 328 16 37 18 53 11 68 -13
24 -42 25 -63 1z"/>
<path d="M26413 17188 c-50 -65 -98 -517 -88 -818 8 -223 30 -340 71 -390 46
-54 80 -29 49 36 -68 145 -62 772 12 1057 14 53 22 104 19 112 -7 18 -50 20
-63 3z"/>
<path d="M20414 16876 c-52 -51 -57 -89 -22 -160 26 -54 45 -64 72 -37 18 18
19 25 8 54 -19 51 -15 67 26 116 22 25 37 52 35 59 -3 6 -21 12 -40 12 -29 0
-44 -9 -79 -44z"/>
<path d="M6712 16838 c-20 -20 -14 -34 24 -63 36 -28 36 -29 31 -84 -4 -31
-11 -85 -17 -121 -7 -41 -8 -161 -4 -330 5 -211 3 -291 -10 -395 -36 -290 -54
-491 -65 -695 -32 -599 -41 -792 -46 -975 -4 -110 -13 -312 -21 -450 -24 -414
-32 -648 -40 -1128 -6 -397 -9 -460 -22 -465 -8 -3 -40 0 -71 7 -179 40 -248
51 -375 65 -163 18 -472 43 -631 51 -137 7 -400 33 -480 46 -33 6 -97 22 -143
36 -77 23 -84 24 -107 9 -61 -40 -21 -67 145 -99 134 -27 289 -42 700 -72 410
-29 599 -50 821 -94 l144 -28 -1 -39 c-19 -527 -14 -722 27 -946 12 -69 17
-123 12 -132 -4 -8 -33 -32 -63 -53 -65 -45 -88 -84 -71 -119 14 -32 45 -30
70 5 20 28 67 63 346 260 83 58 177 125 210 148 33 24 197 135 365 247 168
113 328 221 355 240 28 19 54 35 58 36 5 0 6 -37 3 -82 -3 -46 -9 -366 -15
-713 -6 -396 -16 -715 -26 -860 -14 -185 -16 -295 -10 -560 9 -422 9 -463 -4
-925 -25 -860 -35 -996 -92 -1245 -17 -72 -33 -175 -36 -231 -6 -100 -6 -102
17 -109 41 -13 60 23 60 119 1 44 7 108 16 141 66 267 86 453 99 913 3 108 10
341 16 517 5 176 8 554 7 840 -2 372 1 547 10 615 8 60 16 334 22 750 5 360
12 707 16 772 l7 116 121 73 c67 40 184 113 261 164 77 50 196 122 265 159 69
38 159 92 201 122 42 29 100 65 130 81 l54 29 -5 69 c-14 215 9 743 48 1080 7
57 8 59 39 66 72 14 559 20 898 9 271 -8 532 -7 1055 2 796 15 1173 16 1213 5
16 -4 32 -18 37 -32 10 -27 38 -33 58 -13 21 21 14 63 -17 92 -43 41 -132 49
-466 42 -1015 -22 -1420 -25 -2165 -16 -286 3 -415 1 -504 -9 -88 -10 -120
-11 -125 -2 -4 6 -4 35 0 64 37 248 86 1228 63 1275 -14 31 -376 341 -590 505
-132 102 -411 320 -429 335 -41 36 -276 202 -422 300 -84 56 -213 150 -287
210 -74 59 -184 138 -246 176 -141 88 -260 196 -260 237 0 36 -28 55 -95 63
-34 4 -55 2 -63 -6z m216 -237 c37 -32 112 -86 167 -121 105 -66 125 -80 270
-196 50 -39 187 -138 305 -219 234 -161 322 -226 475 -350 55 -45 154 -122
220 -172 66 -49 154 -118 195 -152 41 -34 84 -70 95 -78 55 -45 219 -190 288
-255 l78 -73 1 -95 c2 -175 -13 -613 -28 -815 -8 -110 -18 -236 -21 -280 -7
-95 -14 -113 -50 -117 -22 -2 -29 -9 -31 -31 -3 -24 1 -28 29 -34 l31 -6 -6
-56 c-4 -31 -11 -92 -17 -136 -14 -124 -41 -727 -37 -854 l3 -115 -115 -78
c-63 -43 -158 -101 -210 -128 -52 -27 -147 -83 -210 -124 -127 -83 -217 -140
-315 -201 -217 -134 -867 -561 -995 -654 -36 -26 -112 -81 -170 -121 -58 -41
-126 -92 -153 -113 -26 -21 -53 -37 -61 -34 -14 6 -29 103 -49 317 -11 127
-13 663 -3 706 5 19 13 24 40 24 42 0 72 25 55 46 -6 8 -30 17 -52 21 l-40 6
7 96 c4 53 11 314 16 581 5 267 16 613 25 770 8 157 19 402 25 545 31 868 62
1307 117 1670 13 86 17 186 18 450 1 331 7 435 27 435 5 0 40 -26 76 -59z"/>
<path d="M27985 16596 c-153 -50 -349 -203 -396 -310 -40 -92 -7 -210 82 -290
87 -78 120 -91 234 -91 116 0 174 16 278 77 92 53 137 94 137 124 0 36 -32 31
-96 -17 -139 -103 -316 -135 -440 -80 -87 39 -134 104 -134 185 0 67 14 93 89
167 79 77 204 145 286 155 59 8 75 18 75 50 0 17 -8 28 -26 34 -31 12 -39 12
-89 -4z"/>
<path d="M25517 16585 c-67 -25 -201 -120 -248 -176 -66 -79 -83 -121 -83
-206 1 -60 6 -82 32 -135 66 -131 152 -215 271 -263 140 -57 360 -32 415 47
13 19 14 25 3 36 -11 11 -27 9 -93 -14 -68 -22 -92 -26 -169 -22 -75 3 -101 9
-158 35 -71 34 -180 127 -175 150 2 8 32 24 68 36 141 47 351 240 380 349 15
54 -2 109 -45 147 -32 28 -42 31 -98 30 -34 0 -79 -7 -100 -14z m164 -75 c65
-35 -42 -186 -210 -299 -80 -53 -131 -73 -177 -69 -38 3 -39 4 -42 45 -4 61
33 126 120 209 54 51 92 78 139 97 67 27 137 34 170 17z"/>
<path d="M27103 16575 c-29 -8 -89 -33 -134 -56 -183 -91 -203 -115 -195 -226
5 -65 4 -74 -14 -85 -22 -14 -27 -57 -8 -76 7 -7 22 -12 34 -12 28 0 54 -10
54 -20 0 -19 82 -130 116 -158 96 -79 193 -112 337 -112 117 0 177 13 208 46
38 41 16 48 -104 33 -185 -22 -323 18 -436 128 -59 57 -75 90 -48 97 6 2 43
11 82 20 111 26 254 126 295 207 42 82 16 185 -55 215 -42 17 -64 17 -132 -1z
m127 -85 c24 -24 24 -30 6 -73 -33 -80 -203 -184 -316 -194 -72 -7 -80 -1 -80
64 0 74 71 132 245 199 75 29 119 30 145 4z"/>
<path d="M24673 16525 c-110 -30 -205 -96 -262 -182 -40 -60 -41 -105 -3 -161
26 -38 110 -112 142 -125 105 -40 235 -99 259 -116 20 -14 31 -31 31 -46 0
-85 -326 -215 -539 -215 -65 0 -81 3 -96 20 -26 29 -63 26 -71 -6 -9 -35 33
-78 92 -94 142 -40 544 85 649 202 34 37 37 45 32 85 -3 25 -13 57 -24 72 -29
39 -103 85 -185 116 -107 40 -185 84 -218 122 l-30 34 20 37 c27 50 47 72 100
109 63 43 158 72 259 79 125 10 149 27 89 64 -40 24 -164 27 -245 5z"/>
<path d="M3980 16347 c-122 -46 -284 -204 -349 -340 -90 -189 -85 -412 12
-553 25 -37 52 -59 108 -89 73 -39 76 -40 174 -39 117 1 156 13 256 80 175
116 302 276 357 449 52 166 -16 350 -147 394 -19 6 -74 11 -122 11 -86 0 -89
1 -103 28 -8 15 -23 36 -35 46 -26 24 -104 31 -151 13z m115 -80 c8 -12 15
-25 15 -29 0 -4 -27 -25 -59 -47 -69 -47 -101 -84 -101 -118 0 -43 29 -40 71
9 38 45 98 78 143 78 12 0 31 9 41 20 26 29 116 28 175 -2 65 -34 93 -95 94
-208 1 -78 -2 -91 -36 -163 -71 -149 -216 -301 -353 -372 -68 -35 -86 -39
-163 -43 -77 -3 -92 -1 -132 20 -97 52 -145 160 -145 323 0 168 55 295 184
424 65 65 126 108 180 127 41 14 67 8 86 -19z"/>
<path d="M20372 16272 c-44 -28 -18 -187 124 -752 60 -238 77 -287 106 -296
35 -11 43 11 25 68 -24 77 -99 376 -147 583 -32 136 -43 205 -45 281 -1 56 -5
106 -9 113 -8 13 -35 14 -54 3z"/>
<path d="M2407 16144 c-12 -13 -8 -38 27 -145 54 -169 54 -162 4 -196 -52 -35
-74 -76 -62 -112 13 -37 49 -39 85 -5 34 32 36 29 42 -74 5 -79 22 -110 52
-98 16 6 17 18 10 120 l-7 113 75 28 c75 27 135 73 123 94 -10 16 -72 13 -132
-5 -60 -20 -84 -14 -84 19 0 42 -48 210 -68 236 -19 26 -52 38 -65 25z"/>
<path d="M482 16054 c-26 -18 -30 -69 -6 -102 19 -27 41 -28 69 -2 19 17 26
19 50 10 65 -25 67 51 3 90 -40 24 -85 26 -116 4z"/>
<path d="M2298 16013 c-8 -10 -50 -81 -93 -158 -112 -199 -158 -235 -191 -150
-18 48 -42 69 -68 59 -28 -11 -29 -43 -1 -99 32 -67 76 -105 118 -105 39 1 58
17 116 95 52 68 173 320 169 350 -4 26 -30 30 -50 8z"/>
<path d="M965 15827 c-36 -36 -54 -87 -84 -242 -17 -88 -17 -103 -4 -123 42
-68 77 -28 86 97 8 114 23 175 49 197 26 24 46 11 75 -47 29 -57 78 -208 94
-284 14 -73 33 -105 59 -105 22 0 23 3 20 70 -4 144 -115 425 -181 460 -37 20
-80 11 -114 -23z"/>
<path d="M1695 15801 c-22 -10 -71 -51 -110 -92 -38 -41 -78 -79 -88 -84 -16
-9 -20 -27 -24 -120 -3 -61 -6 -169 -7 -240 -1 -111 2 -135 17 -159 13 -18 25
-26 40 -24 36 5 46 69 44 268 l-1 175 33 68 c35 70 96 133 138 143 27 7 53
-11 53 -35 0 -26 -54 -105 -89 -130 -32 -23 -39 -49 -19 -69 19 -19 42 -14 86
18 99 72 121 228 40 284 -29 21 -64 20 -113 -3z"/>
<path d="M456 15624 c-25 -25 -19 -47 32 -126 27 -40 56 -85 66 -100 9 -16 25
-28 35 -28 44 0 33 66 -25 158 -19 29 -34 56 -34 60 0 10 -43 52 -52 52 -4 0
-14 -7 -22 -16z"/>
<path d="M4934 15161 c-61 -10 -94 -35 -94 -71 0 -23 6 -33 25 -42 21 -9 29
-7 61 22 l37 32 81 -7 c45 -4 133 -20 196 -35 154 -37 270 -49 620 -60 424
-14 640 -28 692 -44 48 -14 78 -7 78 19 0 29 -90 56 -215 65 -246 19 -474 30
-590 30 -230 1 -393 16 -551 54 -157 37 -272 49 -340 37z"/>
<path d="M31649 14517 c-8 -18 -6 -71 6 -199 14 -158 14 -184 1 -279 -21 -140
-27 -249 -15 -271 11 -21 42 -24 57 -5 6 6 15 62 21 122 6 61 16 144 21 185 6
44 8 117 3 175 -7 101 -7 119 -3 212 3 62 -10 83 -51 83 -21 0 -32 -7 -40 -23z"/>
<path d="M30683 14458 c-4 -7 -8 -103 -9 -213 0 -114 -6 -211 -12 -226 -7 -17
-23 -29 -50 -37 -22 -7 -42 -18 -45 -26 -9 -24 22 -56 54 -56 21 0 29 -5 30
-17 0 -10 0 -83 -1 -163 -1 -169 7 -203 48 -198 l27 3 -4 187 c-3 141 0 192 9
203 9 11 32 15 84 15 39 0 134 11 210 24 135 24 176 41 176 72 0 17 -34 27
-68 20 -75 -16 -350 -46 -370 -41 -27 7 -27 3 -4 167 14 93 6 245 -13 275 -17
25 -49 31 -62 11z"/>
<path d="M24947 14373 c-28 -32 -30 -73 -12 -262 l19 -187 -24 -31 c-26 -36
-22 -59 14 -73 16 -6 28 -20 32 -37 34 -148 97 -335 120 -354 17 -14 42 -5 51
17 3 9 -17 89 -45 178 -62 196 -67 219 -50 234 21 17 307 78 453 97 251 32
330 46 345 61 29 29 -7 36 -155 30 -167 -6 -401 -37 -505 -66 -41 -12 -94 -24
-116 -27 -40 -5 -42 -4 -48 23 -4 16 -8 111 -10 211 -2 99 -7 186 -10 192 -11
17 -41 13 -59 -6z"/>
<path d="M15667 14358 c-24 -19 -36 -397 -17 -568 10 -92 10 -124 1 -133 -8
-8 -62 -10 -181 -8 -144 2 -175 0 -195 -13 -14 -9 -25 -25 -25 -35 0 -38 19
-41 189 -31 90 6 167 12 171 15 5 3 20 1 34 -5 l26 -10 0 -174 c0 -96 -4 -208
-9 -248 -22 -167 -23 -208 -8 -208 40 0 69 165 76 430 l6 205 365 -3 c221 -2
371 1 379 6 22 15 5 40 -31 47 -18 3 -186 9 -373 13 l-340 7 0 240 c0 132 4
290 9 350 l8 111 -26 12 c-34 15 -38 15 -59 0z"/>
<path d="M27786 14310 c-16 -10 -33 -24 -37 -32 -12 -18 -11 -65 1 -88 28 -52
90 -44 90 11 0 16 11 47 25 70 14 22 23 44 20 49 -10 16 -68 10 -99 -10z"/>
<path d="M32303 14240 c-18 -7 -23 -17 -23 -43 0 -54 30 -70 84 -46 48 22 45
71 -6 88 -17 6 -31 11 -32 10 -1 0 -11 -4 -23 -9z"/>
<path d="M28505 14096 c-16 -8 -43 -26 -59 -42 -38 -36 -102 -136 -117 -182
-6 -20 -17 -44 -24 -52 -6 -8 -15 -23 -18 -33 -9 -26 -40 -17 -48 13 -4 14 -7
50 -8 81 -1 60 -13 79 -48 79 -16 0 -27 -8 -33 -26 -11 -27 -10 -31 20 -159
11 -44 23 -102 27 -130 8 -47 10 -50 39 -53 37 -4 44 4 74 83 60 159 174 345
210 345 25 0 39 -29 89 -176 47 -138 84 -197 124 -202 40 -5 43 20 10 75 -16
27 -34 66 -41 88 -6 22 -24 85 -41 140 -43 136 -89 181 -156 151z"/>
<path d="M24761 13960 c-128 -135 -252 -241 -361 -307 -89 -54 -125 -67 -186
-68 -91 0 -123 48 -132 197 -5 107 -15 124 -59 107 -29 -11 -37 -46 -29 -133
13 -159 59 -229 168 -258 128 -33 299 58 533 284 114 110 215 242 215 282 0
15 -6 26 -14 26 -7 0 -68 -58 -135 -130z"/>
<path d="M26540 14054 c-74 -7 -175 -13 -224 -13 -49 -1 -118 -6 -153 -12
-108 -19 -165 -77 -111 -113 22 -14 29 -13 96 10 53 18 108 27 207 34 232 17
367 43 373 71 6 30 -44 36 -188 23z"/>
<path d="M27637 14043 c-22 -36 -17 -118 21 -318 25 -132 45 -175 82 -175 36
0 40 13 23 75 -24 94 -35 170 -42 295 l-6 125 -37 3 c-20 2 -38 -1 -41 -5z"/>
<path d="M13200 14014 c-62 -22 -129 -73 -200 -152 -153 -170 -189 -357 -105
-548 44 -100 144 -168 291 -199 178 -37 377 24 515 159 120 118 145 278 69
433 -66 134 -214 204 -435 205 -109 1 -170 -12 -207 -42 -35 -30 -8 -42 50
-23 34 12 71 14 156 10 223 -10 350 -92 381 -246 23 -111 -9 -223 -88 -302
-115 -116 -257 -165 -403 -140 -170 30 -255 114 -284 284 -30 171 59 356 231
482 42 31 58 37 100 37 30 0 64 -7 84 -18 28 -15 36 -16 49 -5 22 19 20 48 -5
61 -36 20 -150 22 -199 4z"/>
<path d="M29350 14021 c-51 -16 -88 -41 -131 -89 -65 -73 -98 -140 -103 -213
-3 -33 -14 -109 -26 -168 -26 -132 -33 -173 -61 -337 -19 -115 -20 -134 -8
-160 12 -24 21 -29 49 -29 32 0 35 3 48 45 23 76 62 330 62 405 0 98 17 250
35 310 25 87 118 175 185 175 64 0 137 -55 159 -119 26 -79 7 -150 -51 -194
-48 -36 -71 -40 -149 -26 -85 15 -107 4 -70 -35 30 -32 98 -50 158 -41 122 18
203 106 203 219 0 176 -149 303 -300 257z"/>
<path d="M14302 13943 c-27 -23 -88 -223 -103 -341 -27 -202 37 -452 140 -545
50 -45 122 -67 219 -67 241 0 394 147 470 450 39 155 73 353 63 363 -25 25
-61 -43 -96 -184 -50 -196 -83 -284 -144 -376 -62 -95 -112 -145 -168 -168
-41 -17 -169 -20 -223 -5 -66 18 -122 98 -157 225 -20 74 -28 258 -14 340 20
114 67 248 97 274 20 18 23 25 14 37 -17 19 -73 18 -98 -3z"/>
<path d="M30249 13921 c-13 -16 -39 -56 -58 -89 -88 -157 -247 -301 -306 -278
-27 10 -35 54 -35 184 0 137 -10 175 -48 180 -37 5 -43 -31 -33 -198 9 -158
19 -186 74 -225 37 -26 116 -19 168 14 83 53 221 216 274 325 44 90 17 154
-36 87z"/>
<path d="M23468 13926 c-64 -19 -115 -52 -134 -87 -14 -28 -13 -31 10 -54 14
-14 29 -25 34 -25 5 0 25 15 44 34 81 79 215 74 272 -10 48 -70 26 -146 -68
-237 -138 -136 -374 -162 -475 -53 -21 22 -23 32 -19 84 10 108 93 238 181
283 41 21 50 54 17 64 -52 17 -177 -80 -225 -175 -35 -68 -65 -164 -65 -205 0
-109 108 -192 262 -202 140 -10 267 39 379 144 74 70 129 163 129 217 0 158
-174 270 -342 222z"/>
<path d="M26735 13859 c-173 -39 -294 -50 -521 -48 -236 3 -264 -2 -264 -45 0
-13 6 -28 13 -33 21 -18 484 2 617 26 211 38 300 67 300 100 0 26 -31 26 -145
0z"/>
<path d="M1423 13853 c-24 -5 -63 -47 -63 -68 0 -7 9 -23 19 -36 19 -24 20
-24 49 -6 17 9 41 17 55 17 40 0 57 10 57 36 0 37 -63 68 -117 57z"/>
<path d="M32271 13686 c-8 -9 -16 -79 -21 -178 -12 -223 -36 -337 -96 -465
-19 -39 -34 -76 -34 -82 0 -16 45 -24 68 -12 24 13 91 179 117 291 10 41 24
131 32 200 7 69 16 146 19 171 5 39 3 50 -15 68 -24 24 -53 27 -70 7z"/>
<path d="M3947 13538 c-9 -7 -28 -42 -43 -78 -14 -36 -42 -86 -61 -113 -40
-54 -38 -77 6 -77 21 0 37 9 55 33 l26 32 0 -35 c0 -19 -5 -64 -10 -100 -14
-89 -14 -610 -1 -623 7 -7 20 -8 38 -1 l27 9 3 345 c1 190 6 368 10 395 7 45
11 50 36 53 19 2 39 -6 66 -27 43 -34 63 -38 80 -17 10 11 10 20 1 36 -13 25
-83 59 -120 60 -41 1 -53 14 -47 51 8 59 -24 88 -66 57z"/>
<path d="M1299 13524 c-24 -29 -24 -263 0 -433 21 -143 37 -191 67 -191 26 0
28 32 9 180 -11 84 -19 210 -19 300 -1 149 -2 155 -22 158 -11 2 -27 -5 -35
-14z"/>
<path d="M3166 13515 c-22 -23 -21 -92 5 -192 12 -46 19 -89 16 -97 -3 -8 -29
-16 -64 -21 -65 -8 -93 -26 -93 -62 0 -33 36 -66 63 -57 46 15 90 22 102 18 9
-4 15 -41 19 -122 7 -156 17 -212 39 -226 43 -26 52 50 27 237 -12 94 -2 117
51 117 43 0 171 37 188 55 15 15 14 17 -4 32 -16 12 -41 14 -123 11 -65 -3
-108 -1 -116 6 -9 7 -18 54 -26 136 -6 69 -17 136 -24 150 -14 30 -38 36 -60
15z"/>
<path d="M1784 13317 c-16 -18 -36 -44 -46 -57 l-16 -25 -22 23 c-12 13 -29
21 -37 18 -8 -3 -16 -6 -19 -6 -2 0 -11 -15 -20 -32 -24 -45 -22 -193 3 -220
34 -37 50 -22 117 107 81 156 116 175 116 65 0 -132 34 -214 74 -181 13 11 13
132 0 240 -12 93 -95 131 -150 68z"/>
<path d="M2336 13225 c-88 -31 -179 -113 -223 -200 -60 -119 -65 -370 -11
-498 30 -69 78 -77 115 -20 16 23 18 50 18 198 1 110 5 180 13 198 20 47 15
102 -10 119 -30 20 -19 40 44 82 68 46 140 61 164 35 23 -25 29 -88 12 -129
-18 -42 -114 -150 -134 -150 -20 0 -17 -34 4 -53 10 -10 29 -17 41 -17 31 0
115 83 146 143 50 100 26 240 -49 287 -39 23 -75 25 -130 5z m-176 -466 c0
-142 -10 -192 -24 -111 -8 48 -8 236 0 256 16 41 24 -8 24 -145z"/>
<path d="M2963 13176 c-24 -20 -37 -24 -70 -19 -24 3 -43 1 -47 -6 -10 -15 11
-51 30 -51 46 0 12 -79 -73 -169 -70 -73 -97 -79 -119 -26 -8 19 -13 57 -12
84 2 53 -12 81 -43 81 -66 0 -41 -196 35 -271 60 -60 133 -38 207 60 72 98
159 291 145 326 -8 21 -20 19 -53 -9z"/>
<path d="M27160 12158 c-24 -13 -48 -31 -54 -40 -23 -37 45 -102 120 -114 70
-11 73 -19 29 -58 -22 -20 -58 -48 -80 -63 -84 -57 -207 -166 -244 -216 -52
-69 -60 -113 -30 -167 27 -47 91 -82 183 -99 73 -13 118 -39 130 -74 8 -22 1
-44 -49 -142 -49 -97 -60 -127 -63 -178 -3 -56 -1 -66 26 -103 41 -57 95 -96
133 -97 47 -3 46 18 -4 67 -84 81 -95 143 -43 231 71 117 96 194 82 248 -14
57 -113 123 -216 146 -65 13 -120 44 -120 66 0 23 90 116 185 192 44 35 98 78
120 96 22 17 59 51 83 75 39 39 43 48 40 85 -3 41 -4 42 -53 55 -27 8 -51 16
-53 17 -2 2 6 13 17 24 62 62 -41 98 -139 49z"/>
<path d="M21082 11910 c-159 -34 -206 -54 -210 -91 -2 -19 4 -31 24 -44 25
-16 33 -17 68 -6 42 13 205 58 226 63 30 7 16 -26 -37 -89 -113 -131 -124
-158 -87 -203 29 -34 93 -57 189 -65 115 -10 247 -36 293 -57 23 -11 62 -42
85 -68 103 -115 101 -268 -9 -519 -87 -198 -97 -229 -98 -317 -1 -91 15 -124
61 -124 22 0 23 3 23 78 0 94 12 140 82 312 74 182 91 257 86 373 -5 121 -38
197 -115 267 -89 81 -161 107 -387 140 -71 10 -133 23 -138 28 -6 6 27 55 86
128 98 121 123 171 105 205 -14 27 -83 23 -247 -11z"/>
<path d="M23967 11853 c-8 -16 -18 -50 -21 -78 -4 -27 -20 -99 -36 -160 -16
-60 -36 -150 -45 -200 -18 -101 -21 -317 -5 -373 5 -20 14 -56 20 -79 8 -33
16 -43 31 -43 19 0 19 5 13 133 -7 145 11 329 46 467 23 89 77 239 93 258 16
20 10 75 -10 90 -30 22 -71 15 -86 -15z"/>
<path d="M25660 11671 c-86 -27 -152 -90 -197 -187 -18 -40 -33 -77 -33 -82 0
-5 -6 -14 -13 -20 -23 -19 -81 5 -180 74 -50 35 -119 78 -152 94 -123 61 -245
47 -294 -34 -40 -65 -34 -78 152 -345 32 -45 50 -83 54 -110 5 -37 2 -44 -34
-80 -53 -54 -129 -76 -253 -76 -107 1 -170 22 -226 76 -41 40 -79 38 -79 -5 0
-41 54 -81 156 -117 93 -32 178 -37 271 -18 140 30 248 112 248 189 0 60 -27
110 -154 280 -68 92 -82 123 -68 154 15 33 75 51 137 42 35 -6 77 -28 172 -92
69 -46 144 -89 167 -94 71 -18 85 -28 110 -77 29 -58 75 -103 135 -133 70 -35
191 -67 277 -74 43 -4 93 -9 110 -12 21 -3 39 2 55 15 39 32 13 47 -107 60
-218 25 -403 104 -404 174 0 10 6 19 13 21 180 53 230 83 273 168 36 72 33
120 -13 168 -40 42 -79 55 -123 41z m68 -83 c21 -21 14 -84 -13 -117 -33 -38
-138 -91 -182 -91 -18 0 -33 3 -33 6 0 3 14 32 31 64 57 106 158 177 197 138z"/>
<path d="M22895 11364 c-77 -27 -137 -83 -179 -167 -35 -67 -40 -87 -44 -162
-4 -75 -7 -85 -26 -91 -47 -15 -38 -55 16 -73 27 -9 41 -25 73 -87 84 -160
252 -264 425 -264 85 1 171 47 156 85 -7 19 -34 19 -82 -1 -26 -11 -60 -15
-109 -12 -97 5 -170 42 -257 129 -66 67 -90 111 -71 130 5 5 43 13 84 18 79 9
169 47 228 97 48 40 119 145 132 195 17 65 5 116 -40 160 -20 20 -54 42 -76
48 -55 15 -182 12 -230 -5z m254 -89 c45 -48 29 -105 -61 -209 -56 -64 -125
-100 -225 -118 -93 -16 -105 -10 -97 44 3 24 15 70 25 104 47 147 129 206 277
200 47 -1 67 -7 81 -21z"/>
<path d="M31905 9510 c-22 -10 -69 -23 -105 -30 -81 -15 -125 -43 -110 -71 8
-14 21 -19 50 -19 22 0 40 -5 40 -10 0 -6 -28 -48 -63 -93 -239 -314 -316
-657 -181 -807 89 -99 227 -90 427 28 171 100 277 270 312 501 27 184 17 289
-37 368 -39 58 -76 82 -152 98 -36 7 -77 23 -92 34 -32 25 -37 25 -89 1z m173
-122 c77 -14 110 -47 122 -123 35 -214 -30 -464 -157 -605 -84 -93 -238 -172
-340 -174 -52 -1 -65 3 -88 24 -47 44 -57 75 -57 179 -1 166 50 299 198 521
144 215 140 213 322 178z"/>
<path d="M27625 9387 c-91 -36 -111 -84 -54 -131 39 -33 55 -33 74 3 9 18 28
34 48 40 19 7 45 23 58 37 l24 26 -24 19 c-26 21 -80 24 -126 6z"/>
<path d="M30850 9372 l-22 -18 16 -150 c24 -229 31 -380 17 -388 -6 -4 -66
-11 -133 -15 -109 -7 -123 -10 -139 -30 -15 -18 -16 -27 -8 -43 10 -18 17 -20
62 -14 29 3 89 9 135 12 l82 7 0 -30 c0 -17 -9 -75 -20 -128 -24 -118 -25
-151 -4 -159 45 -17 69 43 84 214 11 119 15 125 89 136 70 9 241 53 273 70 29
15 38 48 15 57 -8 3 -79 -10 -158 -29 -79 -18 -156 -33 -170 -34 l-26 0 -8
188 c-5 103 -8 220 -7 261 2 57 -2 78 -14 93 -21 23 -36 23 -64 0z"/>
<path d="M24817 9282 c-9 -10 -23 -37 -32 -61 -13 -39 -13 -57 1 -180 8 -75
18 -153 21 -173 l5 -37 -73 -36 c-140 -68 -181 -142 -92 -169 16 -5 34 5 78
43 55 49 91 69 102 58 2 -3 13 -48 23 -101 20 -104 33 -136 55 -136 33 0 36
36 10 145 -14 58 -23 111 -20 116 19 30 206 94 405 139 161 36 202 52 194 75
-9 22 -41 22 -209 -1 -132 -18 -238 -45 -311 -80 -30 -14 -64 -24 -76 -22 -22
3 -23 8 -29 118 -4 78 -1 133 7 170 18 77 17 114 -4 133 -24 22 -35 21 -55 -1z"/>
<path d="M28374 9111 c-48 -22 -111 -84 -139 -138 -11 -21 -36 -54 -57 -74
l-38 -36 0 -107 c0 -104 1 -107 25 -118 19 -8 31 -8 50 0 21 10 25 18 25 55 0
70 18 147 51 217 35 76 62 107 106 126 46 20 58 18 96 -16 40 -35 86 -138 127
-283 36 -130 74 -170 125 -133 18 13 18 14 -2 47 -12 19 -38 92 -58 162 -52
184 -117 285 -196 307 -48 14 -68 12 -115 -9z"/>
<path d="M26295 9109 c-265 -32 -365 -62 -365 -109 0 -21 31 -50 54 -50 10 0
59 13 109 29 111 35 270 60 450 70 74 4 139 11 145 15 20 12 13 36 -14 46 -30
12 -279 11 -379 -1z"/>
<path d="M32610 9105 c-13 -16 -6 -47 15 -65 13 -11 15 -6 15 34 0 47 -9 57
-30 31z"/>
<path d="M27600 9075 c-20 -24 -13 -111 16 -211 32 -110 58 -218 74 -304 6
-36 18 -70 27 -77 23 -18 57 -1 61 31 4 32 -29 191 -65 320 -14 50 -26 119
-27 156 -1 40 -7 74 -15 84 -17 20 -55 21 -71 1z"/>
<path d="M29333 8870 c-37 -19 -84 -55 -122 -95 -35 -36 -66 -65 -71 -65 -4 0
-6 18 -3 40 5 35 3 41 -19 51 -39 17 -64 -2 -72 -53 -3 -24 -8 -113 -11 -198
-6 -149 -25 -285 -66 -467 -25 -106 -24 -119 6 -139 23 -15 27 -15 50 0 13 9
29 25 35 36 16 31 39 202 47 347 3 72 10 137 14 144 6 11 19 11 67 1 149 -31
310 13 395 107 60 67 72 170 29 245 -44 78 -173 99 -279 46z m189 -67 c33 -29
41 -62 27 -113 -21 -78 -80 -126 -190 -154 -78 -19 -178 -21 -203 -3 -16 12
-16 16 5 72 31 83 134 185 211 208 63 19 122 16 150 -10z"/>
<path d="M30484 8848 c-89 -143 -129 -194 -224 -288 -145 -145 -225 -180 -304
-130 -51 31 -113 195 -123 325 -6 78 -15 95 -49 95 -34 0 -55 -36 -48 -84 10
-72 85 -293 115 -341 49 -77 156 -106 258 -71 156 56 402 341 427 495 9 56
-17 55 -52 -1z"/>
<path d="M23202 8789 c-57 -11 -220 -89 -255 -123 -38 -36 -32 -60 16 -64 25
-2 49 4 71 17 18 12 37 21 42 21 12 0 -55 -67 -114 -112 -90 -70 -189 -220
-228 -348 -18 -59 -18 -144 1 -184 35 -73 146 -94 285 -53 254 75 444 227 548
436 45 90 47 98 47 180 0 77 -3 90 -28 128 -28 45 -78 81 -136 101 -38 14
-184 14 -249 1z m258 -101 c57 -30 79 -61 86 -124 5 -39 2 -60 -16 -100 -66
-144 -219 -309 -346 -370 -102 -49 -240 -94 -288 -94 -144 0 -102 200 89 420
77 89 139 138 183 145 73 12 86 32 47 71 -21 21 -33 25 -66 22 -67 -6 -43 12
61 46 8 2 58 5 110 5 81 1 103 -3 140 -21z"/>
<path d="M25890 8785 c-15 -18 -4 -52 20 -60 11 -3 70 -8 132 -10 62 -2 142
-9 178 -15 102 -19 226 -18 245 1 28 28 -3 44 -111 58 -55 7 -134 19 -178 27
-106 19 -269 19 -286 -1z"/>
<path d="M23660 8631 c-12 -23 3 -316 20 -371 16 -56 46 -97 91 -127 39 -25
51 -28 133 -28 77 0 99 4 147 26 75 35 178 135 291 280 99 127 122 167 108
189 -16 27 -27 16 -274 -274 -90 -107 -222 -169 -309 -145 -90 24 -124 100
-133 299 -6 126 -19 170 -49 170 -8 0 -19 -9 -25 -19z"/>
<path d="M32620 8408 c0 -40 -5 -89 -10 -108 -5 -19 -21 -78 -35 -130 -24 -86
-51 -198 -75 -305 -15 -72 -51 -128 -87 -137 -64 -17 -50 -48 22 -48 31 0 47
7 73 31 18 17 38 43 43 58 18 45 60 232 75 330 16 109 19 381 4 381 -6 0 -10
-31 -10 -72z"/>
<path d="M66 7028 c-54 -12 -66 -24 -66 -68 0 -48 19 -66 52 -49 43 22 78 62
78 90 0 33 -13 38 -64 27z"/>
<path d="M8648 6453 c-27 -31 -36 -56 -43 -118 -4 -33 -27 -172 -52 -310 -25
-137 -49 -277 -54 -310 -4 -33 -13 -84 -19 -114 -15 -77 -13 -166 4 -180 20
-17 32 4 40 69 4 30 28 156 53 280 25 124 51 254 58 290 30 155 57 274 71 316
21 61 16 88 -17 92 -15 2 -31 -4 -41 -15z"/>
<path d="M10655 6333 c-50 -26 -76 -55 -102 -111 -26 -60 -63 -257 -63 -343 0
-82 -11 -89 -161 -101 -68 -5 -131 -14 -141 -19 -29 -16 -42 -59 -24 -78 14
-13 27 -12 123 9 135 30 188 32 187 8 0 -10 -1 -71 -2 -137 -2 -111 -3 -120
-27 -143 -85 -85 -301 -130 -452 -95 -141 34 -232 97 -283 199 -54 109 -36
204 54 286 66 61 117 82 198 82 61 0 69 2 84 25 31 47 14 59 -77 52 -107 -7
-191 -47 -275 -131 -49 -49 -64 -73 -78 -118 -32 -110 -13 -201 63 -295 76
-94 155 -140 301 -174 154 -37 316 -7 445 80 l30 21 15 -53 c12 -40 21 -52 35
-52 19 0 20 9 22 201 2 131 7 214 15 240 l13 39 325 -2 c179 -1 381 -6 450
-11 134 -10 170 -4 170 27 0 15 -10 23 -37 30 -55 14 -496 35 -722 34 l-193 0
7 61 c10 94 34 225 51 286 12 41 28 66 65 103 50 49 61 80 33 91 -19 7 -13 8
-49 -11z"/>
<path d="M6775 6283 c-358 -39 -636 -129 -867 -279 -82 -54 -110 -88 -106
-128 5 -48 38 -58 232 -67 329 -16 475 -39 651 -107 224 -85 400 -229 380
-310 -18 -72 -165 -247 -278 -331 -117 -86 -260 -139 -342 -127 -32 5 -45 3
-55 -9 -11 -14 -10 -19 8 -38 30 -29 131 -36 204 -12 70 23 210 103 274 157
102 87 219 236 244 313 17 52 8 125 -21 164 -47 63 -166 151 -281 206 -235
113 -401 149 -733 160 -145 5 -196 13 -203 33 -10 30 208 145 402 211 164 57
338 90 485 93 105 2 122 -1 155 -20 46 -27 72 -28 86 -3 16 31 12 58 -13 74
-23 15 -158 28 -222 20z"/>
<path d="M7776 6015 c-33 -13 -75 -37 -95 -53 -50 -40 -98 -114 -106 -164 -12
-73 -27 -88 -91 -88 -31 0 -99 7 -151 16 -89 15 -95 15 -114 -1 -21 -20 -26
-70 -8 -81 6 -3 85 -6 174 -6 l164 0 6 -66 c7 -81 18 -129 58 -252 71 -223
146 -302 242 -258 43 19 32 44 -26 58 -82 20 -122 90 -173 302 -50 207 -48
215 54 228 82 10 162 40 236 89 71 46 87 63 113 122 15 34 18 53 12 81 -12 50
-18 58 -65 79 -60 27 -156 25 -230 -6z m195 -73 c26 -23 31 -34 26 -54 -9 -36
-87 -96 -171 -131 -77 -32 -193 -59 -201 -47 -10 16 26 109 59 152 55 71 122
106 208 107 39 1 54 -4 79 -27z"/>
<path d="M9125 5951 c-54 -13 -156 -73 -186 -110 -56 -69 -73 -131 -73 -276
-1 -148 18 -228 76 -325 60 -99 161 -141 243 -100 50 25 38 44 -30 51 -63 6
-109 25 -137 56 -33 37 -70 136 -72 192 -1 63 -6 61 139 80 133 18 261 95 306
184 17 31 20 53 17 99 -4 51 -9 63 -42 97 -20 21 -54 43 -75 50 -42 12 -119
13 -166 2z m163 -86 c112 -94 28 -213 -189 -265 -87 -21 -164 -26 -173 -12 -7
12 22 120 46 165 41 82 134 137 230 137 46 0 62 -5 86 -25z"/>
<path d="M21343 5876 c-57 -26 -65 -85 -13 -101 43 -14 217 -9 298 9 46 10
111 18 145 19 l62 2 3 -33 c4 -43 -38 -118 -130 -231 -131 -162 -181 -268
-141 -303 18 -17 142 -39 296 -52 78 -8 111 -20 150 -55 99 -90 72 -234 -101
-531 -30 -52 -65 -113 -77 -135 -136 -248 -146 -277 -95 -283 35 -4 78 44 135
153 26 50 80 146 120 215 101 174 131 237 155 322 23 82 25 125 9 198 -13 60
-45 102 -114 145 -66 42 -79 45 -227 54 -70 3 -133 12 -139 18 -16 16 9 66 93
178 203 271 206 278 167 341 -39 63 -71 78 -168 76 -47 -1 -111 -6 -141 -12
-112 -22 -146 -23 -171 -7 -37 23 -81 28 -116 13z"/>
</g>
</svg>
