<?xml version="1.0" standalone="no"?>
<!DOCTYPE svg PUBLIC "-//W3C//DTD SVG 20010904//EN"
 "http://www.w3.org/TR/2001/REC-SVG-20010904/DTD/svg10.dtd">
<svg version="1.0" xmlns="http://www.w3.org/2000/svg"
 width="3264.000000pt" height="2448.000000pt" viewBox="0 0 3264.000000 2448.000000"
 preserveAspectRatio="xMidYMid meet">
<metadata>
Created by potrace 1.12, written by Peter Selinger 2001-2015
</metadata>
<g transform="translate(0.000000,2448.000000) scale(0.100000,-0.100000)"
fill="#000000" stroke="none">
<path d="M20880 24470 c20 -13 67 -13 75 0 4 6 -12 10 -42 10 -35 0 -44 -3
-33 -10z"/>
<path d="M2110 24374 c0 -9 5 -14 12 -12 18 6 21 28 4 28 -9 0 -16 -7 -16 -16z"/>
<path d="M3072 24309 c2 -7 10 -15 17 -17 8 -3 12 1 9 9 -2 7 -10 15 -17 17
-8 3 -12 -1 -9 -9z"/>
<path d="M0 24240 c0 -5 4 -10 9 -10 6 0 13 5 16 10 3 6 -1 10 -9 10 -9 0 -16
-4 -16 -10z"/>
<path d="M405 24240 c-3 -5 -1 -10 4 -10 6 0 11 5 11 10 0 6 -2 10 -4 10 -3 0
-8 -4 -11 -10z"/>
<path d="M19788 24132 c-22 -3 -29 -11 -37 -40 -13 -45 -8 -50 28 -29 16 9 36
17 44 17 25 0 31 21 11 39 -11 10 -30 15 -46 13z"/>
<path d="M1560 24090 c0 -5 5 -10 10 -10 6 0 10 5 10 10 0 6 -4 10 -10 10 -5
0 -10 -4 -10 -10z"/>
<path d="M3575 23990 c-3 -5 -1 -10 4 -10 6 0 11 5 11 10 0 6 -2 10 -4 10 -3
0 -8 -4 -11 -10z"/>
<path d="M700 23769 c0 -5 5 -7 10 -4 6 3 10 8 10 11 0 2 -4 4 -10 4 -5 0 -10
-5 -10 -11z"/>
<path d="M1020 23721 c0 -6 5 -13 10 -16 6 -3 10 1 10 9 0 9 -4 16 -10 16 -5
0 -10 -4 -10 -9z"/>
<path d="M1310 23619 c0 -5 5 -7 10 -4 6 3 10 8 10 11 0 2 -4 4 -10 4 -5 0
-10 -5 -10 -11z"/>
<path d="M1400 23320 c0 -5 5 -10 10 -10 6 0 10 5 10 10 0 6 -4 10 -10 10 -5
0 -10 -4 -10 -10z"/>
<path d="M550 23270 c0 -5 4 -10 9 -10 6 0 13 5 16 10 3 6 -1 10 -9 10 -9 0
-16 -4 -16 -10z"/>
<path d="M5045 23160 c3 -5 8 -10 11 -10 2 0 4 5 4 10 0 6 -5 10 -11 10 -5 0
-7 -4 -4 -10z"/>
<path d="M286 23143 c-11 -11 -6 -23 9 -23 8 0 15 4 15 9 0 13 -16 22 -24 14z"/>
<path d="M3745 22980 c-3 -5 -1 -10 4 -10 6 0 11 5 11 10 0 6 -2 10 -4 10 -3
0 -8 -4 -11 -10z"/>
<path d="M7110 22920 c0 -5 5 -10 11 -10 5 0 7 5 4 10 -3 6 -8 10 -11 10 -2 0
-4 -4 -4 -10z"/>
<path d="M875 22630 c-3 -5 -2 -10 4 -10 5 0 13 5 16 10 3 6 2 10 -4 10 -5 0
-13 -4 -16 -10z"/>
<path d="M1705 22500 c-3 -5 -1 -10 4 -10 6 0 11 5 11 10 0 6 -2 10 -4 10 -3
0 -8 -4 -11 -10z"/>
<path d="M170 22269 c0 -5 5 -7 10 -4 6 3 10 8 10 11 0 2 -4 4 -10 4 -5 0 -10
-5 -10 -11z"/>
<path d="M1865 22220 c-3 -5 -1 -10 4 -10 6 0 11 5 11 10 0 6 -2 10 -4 10 -3
0 -8 -4 -11 -10z"/>
<path d="M640 22160 c0 -5 5 -10 10 -10 6 0 10 5 10 10 0 6 -4 10 -10 10 -5 0
-10 -4 -10 -10z"/>
<path d="M1565 22120 c4 -6 11 -8 16 -5 14 9 11 15 -7 15 -8 0 -12 -5 -9 -10z"/>
<path d="M1520 21940 c0 -5 5 -10 11 -10 5 0 7 5 4 10 -3 6 -8 10 -11 10 -2 0
-4 -4 -4 -10z"/>
<path d="M310 21545 c-7 -8 -9 -15 -6 -15 4 0 14 7 22 15 9 8 11 15 6 15 -5 0
-15 -7 -22 -15z"/>
<path d="M35 20790 c-3 -5 1 -10 9 -10 9 0 16 5 16 10 0 6 -4 10 -9 10 -6 0
-13 -4 -16 -10z"/>
<path d="M26264 20586 c-8 -22 2 -46 21 -46 19 0 20 34 0 50 -12 10 -16 9 -21
-4z"/>
<path d="M1230 20530 c0 -5 5 -10 10 -10 6 0 10 5 10 10 0 6 -4 10 -10 10 -5
0 -10 -4 -10 -10z"/>
<path d="M1600 20409 c0 -5 5 -7 10 -4 6 3 10 8 10 11 0 2 -4 4 -10 4 -5 0
-10 -5 -10 -11z"/>
<path d="M1220 20290 c0 -5 5 -10 10 -10 6 0 10 5 10 10 0 6 -4 10 -10 10 -5
0 -10 -4 -10 -10z"/>
<path d="M380 20229 c0 -5 5 -7 10 -4 6 3 10 8 10 11 0 2 -4 4 -10 4 -5 0 -10
-5 -10 -11z"/>
<path d="M720 19350 c0 -5 5 -10 10 -10 6 0 10 5 10 10 0 6 -4 10 -10 10 -5 0
-10 -4 -10 -10z"/>
<path d="M11864 18926 c-3 -8 -4 -31 -2 -52 2 -31 7 -39 23 -39 16 0 21 8 23
38 4 51 -29 91 -44 53z"/>
<path d="M18024 18796 c-4 -16 6 -49 30 -101 46 -98 85 -234 101 -350 7 -49
18 -119 25 -155 23 -131 27 -178 28 -310 3 -194 29 -367 60 -393 23 -18 44 20
38 68 -3 22 -8 110 -11 195 -8 232 -24 371 -56 513 -16 71 -31 132 -34 136 -2
4 -14 48 -25 97 -12 49 -26 109 -32 134 -6 25 -17 54 -24 65 -8 11 -14 30 -14
43 0 30 -39 82 -62 82 -10 0 -20 -10 -24 -24z"/>
<path d="M19510 18729 c-25 -4 -58 -13 -75 -20 -16 -7 -60 -15 -97 -19 -51 -5
-74 -13 -100 -34 -18 -15 -44 -36 -58 -47 -85 -68 -128 -106 -153 -138 -182
-226 -280 -434 -308 -656 -11 -79 -5 -202 10 -234 27 -56 46 -88 60 -103 52
-57 52 -57 76 -46 33 15 55 4 48 -23 -6 -21 -5 -22 51 -15 32 3 66 11 76 16
10 6 29 10 41 10 26 0 129 47 129 59 0 5 13 11 28 14 74 15 287 250 364 402
12 22 29 51 40 65 39 51 68 101 68 118 0 10 4 22 8 28 13 15 48 115 60 169 23
106 26 132 23 200 -2 58 -9 81 -39 138 -54 101 -129 135 -252 116z m104 -82
c60 -34 95 -104 99 -200 7 -151 -25 -266 -125 -449 -122 -223 -293 -418 -414
-471 -21 -10 -47 -22 -56 -27 -10 -6 -24 -10 -32 -10 -7 0 -27 -7 -42 -15 -35
-18 -48 -18 -97 -2 -51 18 -101 69 -128 131 -36 84 -32 302 8 396 8 19 21 55
30 80 31 91 130 261 193 330 17 19 55 65 82 103 37 48 57 67 73 67 13 0 25 -7
29 -15 9 -24 30 -18 102 30 36 25 74 45 83 45 9 0 21 4 27 9 28 27 120 26 168
-2z"/>
<path d="M29976 18715 c-9 -13 -21 -55 -26 -92 -6 -37 -15 -97 -21 -133 -13
-86 -18 -220 -8 -220 9 0 24 58 20 82 -1 10 3 26 9 38 6 11 15 48 19 83 13 87
39 188 57 215 9 13 13 30 10 38 -9 22 -42 16 -60 -11z"/>
<path d="M26352 18688 c-5 -7 -19 -74 -31 -150 -37 -233 -32 -701 11 -1003 12
-82 21 -172 20 -200 -3 -108 32 -162 83 -129 31 20 63 81 57 108 -3 14 -10 17
-33 12 -25 -5 -31 -2 -41 22 -10 27 -20 128 -33 336 -3 61 -8 112 -10 116 -8
12 -18 268 -17 430 1 166 8 231 42 374 9 35 9 55 1 72 -12 26 -33 31 -49 12z"/>
<path d="M24305 18671 c-3 -11 6 -47 21 -83 36 -86 48 -129 84 -303 50 -240
70 -358 90 -525 21 -174 51 -388 60 -425 5 -22 10 -70 10 -106 0 -72 16 -99
58 -99 28 0 38 39 23 88 -19 63 -42 193 -51 292 -5 52 -13 115 -19 140 -5 25
-12 86 -15 135 -8 114 -34 329 -46 375 -5 19 -16 78 -25 130 -25 144 -56 271
-77 314 -37 73 -99 110 -113 67z"/>
<path d="M5735 18603 c-33 -20 -78 -42 -99 -49 -21 -8 -49 -25 -62 -39 -13
-14 -29 -25 -36 -25 -16 0 -78 -55 -78 -69 0 -5 -10 -13 -22 -17 -13 -4 -35
-16 -50 -28 -15 -11 -41 -31 -57 -43 -16 -13 -36 -23 -44 -23 -8 0 -17 -7 -21
-15 -3 -8 -12 -12 -21 -9 -10 4 -15 0 -15 -10 0 -9 -12 -22 -27 -28 -16 -7
-52 -28 -82 -48 -29 -19 -61 -40 -70 -45 -9 -6 -51 -34 -93 -63 -42 -28 -79
-52 -82 -52 -3 0 -36 -23 -73 -51 -37 -28 -81 -58 -98 -66 -66 -32 -112 -59
-135 -81 -33 -30 -85 -66 -140 -96 -25 -13 -56 -36 -69 -50 -14 -14 -32 -26
-42 -26 -10 0 -22 -6 -26 -13 -4 -7 -47 -39 -95 -71 -48 -32 -99 -69 -113 -82
-14 -13 -30 -24 -35 -24 -11 0 -76 -37 -116 -67 -17 -13 -36 -23 -42 -23 -6 0
-16 -8 -21 -19 -15 -27 6 -48 54 -55 37 -6 44 -3 100 43 108 90 123 101 133
101 5 0 16 7 23 16 8 9 32 28 54 42 22 14 46 33 53 43 6 9 26 20 42 24 17 4
35 16 41 27 6 11 26 26 45 34 19 8 37 21 41 29 3 8 14 15 25 15 10 0 31 11 46
25 44 40 116 91 178 125 33 18 75 47 94 64 19 18 64 50 100 71 36 21 81 51
101 67 20 15 40 28 43 28 3 0 32 17 64 39 31 21 71 45 87 54 17 8 39 24 49 36
10 11 34 24 53 27 23 4 38 15 45 30 6 13 19 24 29 24 34 0 74 24 121 72 26 26
54 48 63 48 8 0 15 6 15 14 0 8 14 18 33 22 17 3 47 22 66 40 22 21 48 35 75
40 23 3 46 10 52 15 16 13 185 -98 331 -218 28 -24 54 -43 58 -43 4 0 28 -14
53 -32 26 -17 59 -40 74 -50 15 -10 69 -42 120 -72 51 -30 102 -63 114 -75 12
-12 25 -21 30 -21 5 0 33 -16 63 -35 29 -19 55 -35 57 -35 2 0 41 -25 86 -55
45 -30 86 -55 92 -55 5 0 19 -8 30 -18 22 -19 172 -112 182 -112 3 0 31 -18
61 -40 31 -22 60 -40 65 -40 5 0 40 -21 79 -47 38 -27 91 -59 117 -73 27 -14
63 -37 82 -51 31 -23 108 -69 201 -120 16 -9 35 -22 43 -29 8 -6 30 -19 48
-29 18 -9 42 -22 53 -28 11 -5 46 -23 78 -39 86 -43 100 -51 109 -68 12 -21
67 -21 75 0 8 21 -13 63 -34 71 -53 18 -146 62 -202 95 -34 21 -65 38 -68 38
-3 0 -39 20 -80 45 -40 25 -76 45 -79 45 -3 0 -27 14 -52 32 -112 76 -131 88
-136 88 -3 0 -38 21 -77 48 -40 26 -94 59 -122 74 -28 15 -68 40 -90 55 -44
31 -57 39 -117 71 -24 13 -65 39 -91 58 -27 19 -53 34 -58 34 -4 0 -25 14 -46
30 -21 17 -43 30 -50 30 -6 0 -45 25 -85 55 -40 30 -77 55 -82 55 -7 0 -129
78 -203 130 -12 8 -47 30 -78 48 -30 18 -61 40 -67 47 -7 8 -17 15 -22 15 -11
0 -78 50 -170 125 -33 28 -68 55 -77 61 -45 31 -167 111 -190 126 -25 16 -28
16 -86 -19z"/>
<path d="M25760 18628 c-4 -124 -10 -205 -20 -257 -11 -63 -9 -369 4 -389 3
-5 10 -60 16 -123 10 -113 15 -144 46 -289 9 -41 19 -102 23 -136 10 -97 58
-148 82 -86 10 27 9 39 -9 117 -19 79 -53 241 -57 272 -3 18 -14 72 -24 120
-32 143 -41 374 -21 513 28 193 23 270 -20 270 -11 0 -20 -6 -20 -12z"/>
<path d="M20848 18600 c-46 -14 -82 -46 -131 -117 -79 -113 -113 -170 -125
-210 -38 -129 -81 -319 -87 -383 -4 -41 -9 -91 -11 -110 -4 -38 10 -164 28
-250 19 -92 63 -163 125 -202 75 -46 266 -52 386 -12 152 50 169 58 281 145
62 48 124 102 137 119 13 17 38 48 55 68 28 33 47 71 124 235 17 37 21 58 16
89 -4 22 -2 45 3 52 21 26 30 142 15 217 -15 80 -67 193 -99 216 -66 46 -112
73 -128 73 -10 0 -44 11 -75 24 -73 31 -179 36 -276 12 -52 -12 -72 -14 -83
-5 -7 7 -15 10 -16 8 -2 -2 -11 -16 -20 -31 -9 -14 -26 -29 -37 -33 -24 -8
-28 -56 -5 -75 23 -19 75 -2 94 31 9 16 23 29 32 29 9 0 22 7 29 15 17 20 189
21 245 0 133 -47 190 -110 230 -253 23 -82 16 -260 -13 -342 -54 -151 -135
-279 -227 -361 -54 -49 -171 -129 -188 -129 -6 0 -18 -6 -26 -13 -44 -37 -213
-73 -295 -63 -88 11 -182 96 -205 185 -44 168 -48 287 -17 468 25 146 29 157
102 310 44 92 164 252 191 254 17 2 24 3 52 13 24 8 24 9 6 22 -21 15 -46 17
-87 4z"/>
<path d="M30731 18586 c-16 -20 -54 -231 -44 -248 10 -19 21 -4 38 50 9 31 27
87 40 124 16 47 19 70 12 77 -15 15 -32 14 -46 -3z"/>
<path d="M30316 18578 c-19 -64 -28 -111 -23 -127 3 -11 -1 -55 -9 -98 -8 -43
-13 -104 -12 -135 1 -31 -3 -63 -9 -70 -6 -7 -11 -40 -11 -73 -1 -33 -4 -82
-7 -110 -3 -27 -7 -84 -9 -125 -2 -41 -6 -109 -10 -150 -3 -41 -9 -124 -13
-185 -12 -200 -4 -229 47 -180 32 31 39 70 21 119 -11 28 -14 139 -6 246 3 41
7 141 9 221 3 81 8 159 12 174 6 24 7 66 4 145 -2 43 22 169 41 218 5 13 9 50
9 82 0 47 -3 60 -15 60 -9 0 -17 -6 -19 -12z"/>
<path d="M28066 18488 c-39 -95 -40 -101 -42 -355 -1 -138 -4 -255 -7 -260 -3
-4 -5 -78 -4 -163 0 -85 -1 -251 -3 -368 -2 -181 0 -216 12 -229 14 -13 18
-13 42 2 32 21 40 50 28 101 -5 22 -9 281 -8 604 1 525 2 567 19 598 22 41 19
95 -5 100 -12 2 -22 -7 -32 -30z"/>
<path d="M22334 18473 c-4 -14 -2 -54 4 -87 6 -34 14 -104 17 -156 12 -200 58
-497 96 -625 5 -16 15 -77 23 -134 16 -114 33 -144 75 -139 31 4 31 19 6 118
-23 90 -36 165 -39 230 -2 30 -13 111 -25 179 -12 68 -26 192 -31 275 -23 345
-18 313 -54 341 -42 32 -64 32 -72 -2z"/>
<path d="M22852 18473 c-6 -11 -6 -43 -1 -78 5 -33 11 -105 14 -160 7 -113 33
-384 40 -402 2 -6 9 -49 15 -95 13 -103 35 -227 60 -338 11 -47 22 -100 25
-117 7 -35 46 -73 76 -73 15 0 19 7 19 33 0 18 -6 41 -13 52 -26 41 -38 93
-51 221 -2 17 -6 36 -9 41 -6 9 -22 144 -42 333 -2 25 -9 133 -15 240 -17 308
-15 299 -46 331 -31 33 -59 37 -72 12z"/>
<path d="M23474 18436 c-6 -17 -6 -25 19 -206 9 -63 18 -133 21 -155 8 -70 24
-197 40 -310 37 -262 48 -357 53 -465 5 -127 17 -153 62 -148 22 3 26 8 25 35
-1 17 -9 46 -18 65 -13 24 -18 69 -21 169 -5 161 -14 332 -20 374 -11 72 -36
321 -45 439 -9 125 -13 138 -52 187 -20 25 -57 33 -64 15z"/>
<path d="M31567 18436 c-37 -16 -97 -81 -97 -105 0 -10 6 -21 13 -24 23 -9 67
5 78 24 14 28 48 43 109 49 40 4 55 9 55 20 0 8 -9 16 -20 18 -11 2 -37 10
-58 18 -43 16 -43 16 -80 0z"/>
<path d="M27314 18430 c-44 -17 -166 -182 -194 -262 -10 -29 -30 -82 -44 -117
-15 -36 -26 -78 -26 -94 0 -15 -4 -36 -9 -45 -30 -56 -42 -439 -16 -512 33
-93 93 -137 172 -125 47 7 164 61 176 82 4 7 14 13 21 13 23 0 115 114 142
176 9 21 27 62 40 89 13 28 26 73 28 100 6 57 18 107 36 150 14 33 16 268 3
302 -11 27 -52 73 -93 104 -37 28 -130 49 -130 30 0 -6 7 -11 16 -11 9 0 26
-9 38 -21 12 -11 37 -30 56 -42 51 -32 83 -101 83 -185 1 -119 -10 -241 -23
-257 -7 -8 -10 -21 -6 -30 3 -8 -1 -27 -9 -42 -8 -16 -34 -71 -59 -123 -51
-109 -93 -161 -169 -214 -44 -30 -67 -39 -116 -43 -60 -6 -62 -5 -94 29 -54
57 -72 179 -56 360 13 135 16 160 28 191 6 16 11 40 11 54 0 53 32 136 67 170
18 19 36 47 40 63 7 40 37 68 78 76 41 7 55 23 31 36 -14 8 -13 13 10 44 22
28 24 37 14 49 -14 17 -17 17 -46 5z"/>
<path d="M1400 18280 c0 -5 5 -10 10 -10 6 0 10 5 10 10 0 6 -4 10 -10 10 -5
0 -10 -4 -10 -10z"/>
<path d="M30668 18273 c-1 -5 -3 -28 -4 -53 -7 -105 -11 -136 -21 -155 -10
-20 -30 -154 -31 -210 0 -16 -3 -66 -7 -110 -3 -44 -8 -109 -10 -145 -2 -36
-8 -85 -14 -110 -15 -65 -13 -126 4 -140 20 -17 47 -5 94 43 52 52 53 82 1 82
l-35 0 0 90 c0 50 3 115 7 145 4 30 10 91 13 135 4 44 8 96 10 115 3 19 7 67
10 105 3 39 6 79 7 90 4 51 -3 125 -12 125 -5 0 -11 -3 -12 -7z"/>
<path d="M29890 18165 c0 -8 2 -15 4 -15 2 0 6 7 10 15 3 8 1 15 -4 15 -6 0
-10 -7 -10 -15z"/>
<path d="M31960 18100 c0 -5 5 -10 10 -10 6 0 10 5 10 10 0 6 -4 10 -10 10 -5
0 -10 -4 -10 -10z"/>
<path d="M31367 18073 c-11 -10 -8 -53 3 -53 6 0 10 14 10 30 0 31 -2 35 -13
23z"/>
<path d="M29856 17925 c-4 -33 -11 -78 -16 -100 -24 -116 -30 -157 -33 -228
-3 -65 0 -83 15 -103 24 -30 39 -30 66 -1 27 29 28 45 1 73 -18 20 -20 34 -20
163 1 81 5 149 12 159 7 12 6 28 -4 57 l-14 40 -7 -60z"/>
<path d="M31334 17959 c-3 -6 -8 -31 -9 -56 -2 -24 -11 -61 -21 -81 -12 -27
-18 -65 -19 -136 l-1 -100 43 -66 43 -66 101 2 c55 2 104 5 107 9 12 12 -24
25 -71 25 -43 0 -52 4 -90 43 -38 37 -45 51 -56 114 -10 49 -12 112 -9 197 5
115 1 145 -18 115z"/>
<path d="M31757 17582 c-10 -10 -17 -21 -17 -24 0 -10 44 4 52 16 21 30 -9 36
-35 8z"/>
<path d="M31685 17527 c-11 -9 -14 -16 -7 -21 15 -9 42 4 42 20 0 18 -11 18
-35 1z"/>
<path d="M4630 17280 c0 -5 7 -10 16 -10 8 0 12 5 9 10 -3 6 -10 10 -16 10 -5
0 -9 -4 -9 -10z"/>
<path d="M3081 17234 c-18 -8 -43 -14 -56 -14 -20 0 -45 -10 -172 -66 -18 -8
-35 -19 -38 -24 -3 -6 -15 -10 -27 -10 -20 0 -67 -28 -99 -59 -9 -9 -37 -36
-63 -59 -25 -24 -48 -52 -51 -63 -4 -10 -10 -19 -15 -19 -4 0 -11 -12 -15 -27
-3 -16 -12 -35 -19 -43 -33 -39 -61 -217 -46 -286 20 -89 80 -179 181 -272 25
-23 52 -42 60 -42 8 0 28 -9 44 -20 80 -53 356 -92 418 -59 10 6 31 8 47 4 18
-4 31 -2 37 7 4 7 17 14 28 15 49 4 101 17 110 29 6 7 28 19 50 27 22 7 65 31
95 53 67 47 212 191 233 230 15 28 21 41 53 109 7 17 16 47 20 67 8 47 -21
195 -45 228 -9 14 -28 43 -40 65 -22 39 -108 115 -130 115 -6 0 -20 9 -31 20
-30 30 -95 60 -179 82 -99 26 -301 33 -350 12z m306 -72 c12 -7 29 -12 39 -12
33 0 180 -80 226 -122 69 -65 101 -125 123 -231 9 -42 -12 -145 -42 -204 -14
-29 -28 -53 -32 -53 -4 0 -24 -24 -46 -52 -44 -59 -84 -97 -102 -98 -7 0 -18
-9 -25 -20 -7 -11 -18 -20 -25 -20 -7 0 -13 -4 -13 -9 0 -9 -121 -71 -138 -71
-5 0 -23 -7 -38 -15 -16 -8 -46 -15 -67 -15 -21 0 -48 -5 -60 -12 -27 -14
-135 -20 -143 -7 -3 5 -33 9 -66 9 -72 0 -120 21 -224 97 -78 56 -78 56 -128
123 -30 41 -34 54 -40 141 -12 156 21 240 151 380 51 56 99 89 128 89 7 0 32
16 55 35 32 27 51 35 80 35 22 0 42 -4 45 -10 10 -17 25 -11 35 14 6 16 21 27
47 33 52 13 233 10 260 -5z"/>
<path d="M18055 17153 c-11 -3 -29 -12 -40 -19 -11 -8 -29 -14 -40 -14 -11 0
-35 -9 -52 -20 -26 -15 -33 -27 -33 -50 0 -17 6 -33 13 -36 8 -3 42 9 78 26
58 27 73 30 165 30 99 0 259 -23 279 -40 6 -5 35 -12 65 -16 30 -3 70 -16 88
-27 31 -18 53 -20 310 -21 152 -1 291 2 307 7 30 9 197 31 335 43 68 6 77 5
94 -15 40 -45 90 -15 103 62 8 50 -14 59 -113 47 -368 -47 -604 -61 -754 -47
-47 5 -101 8 -120 8 -48 0 -190 19 -220 30 -14 5 -38 11 -55 14 -16 3 -52 10
-80 15 -113 22 -286 34 -330 23z"/>
<path d="M20375 16986 c-40 -9 -50 -15 -50 -31 0 -18 6 -20 75 -17 67 3 177
-13 325 -47 138 -31 202 -42 300 -50 60 -5 113 -7 118 -4 20 12 187 4 215 -11
33 -17 52 -6 52 30 0 45 -28 51 -200 41 -47 -2 -95 -7 -106 -11 -34 -11 -359
46 -549 95 -60 16 -124 18 -180 5z"/>
<path d="M22259 16941 c-13 -10 -20 -24 -17 -33 8 -19 75 -31 100 -17 12 7 31
6 56 -1 20 -5 75 -10 122 -10 47 0 112 -4 145 -9 33 -5 145 -12 249 -16 103
-4 205 -12 225 -19 43 -15 90 -7 105 16 26 42 -22 51 -339 67 -110 6 -228 15
-262 21 -34 6 -81 9 -105 8 -24 -1 -91 1 -150 5 -94 5 -110 4 -129 -12z"/>
<path d="M25720 16938 c-156 -14 -206 -36 -168 -74 12 -12 26 -13 84 -4 167
26 343 9 414 -39 33 -23 310 -56 436 -52 50 1 131 -5 180 -13 49 -8 170 -18
268 -21 98 -3 187 -10 197 -16 11 -5 33 -9 51 -9 18 1 56 1 83 2 28 1 65 -2
83 -6 60 -14 166 -18 477 -20 238 -1 315 -4 334 -15 20 -11 28 -10 57 5 37 20
52 50 34 68 -12 12 -15 12 -295 7 -205 -3 -474 6 -543 18 -26 5 -74 7 -107 6
-33 -2 -89 4 -125 13 -40 9 -122 16 -215 18 -152 2 -179 4 -340 25 -53 7 -134
9 -196 5 -88 -5 -109 -4 -119 9 -8 10 -30 15 -66 15 -66 0 -210 26 -244 45
-21 11 -173 48 -182 44 -2 -1 -46 -6 -98 -11z"/>
<path d="M8352 16868 c-5 -7 -10 -53 -11 -102 -1 -49 -3 -92 -5 -95 -2 -3 -18
-73 -35 -156 -17 -82 -36 -175 -43 -205 -6 -30 -12 -127 -12 -215 l-1 -160 31
-32 c35 -36 55 -41 74 -17 11 12 9 31 -10 109 -16 68 -21 110 -17 152 7 81 34
249 40 260 6 10 14 43 24 103 3 19 14 61 24 94 28 89 36 204 15 244 -18 34
-54 44 -74 20z"/>
<path d="M23300 16862 c0 -6 5 -23 12 -37 13 -29 55 -43 203 -68 11 -2 30 -9
42 -15 12 -7 48 -14 80 -17 32 -3 100 -12 151 -21 77 -12 111 -13 190 -4 137
16 317 40 382 51 46 7 305 28 362 29 9 0 30 -14 47 -32 26 -28 31 -30 46 -18
43 35 36 79 -15 100 -41 17 -285 7 -475 -20 -38 -6 -90 -12 -115 -15 -25 -3
-57 -8 -72 -11 -16 -3 -85 -9 -155 -13 -111 -7 -142 -5 -228 12 -59 12 -129
20 -172 19 -66 -2 -75 0 -117 30 -36 25 -59 33 -106 36 -39 3 -60 1 -60 -6z"/>
<path d="M29347 16845 c-9 -9 -17 -21 -17 -25 0 -23 49 -37 129 -39 46 -1 93
-6 103 -12 10 -5 71 -9 135 -8 83 2 138 -3 183 -14 84 -22 292 -57 301 -51 7
4 51 -4 164 -28 28 -6 57 -16 65 -23 23 -19 115 -42 210 -53 85 -10 630 -9
725 2 28 3 178 8 334 11 276 5 285 4 298 -15 28 -40 103 -14 103 36 0 41 -42
46 -363 46 -166 1 -331 -3 -367 -7 -94 -12 -121 -13 -368 -14 -123 -1 -227 1
-232 4 -5 3 -49 8 -97 11 -90 5 -134 15 -181 40 -15 8 -39 14 -53 14 -15 0
-46 7 -70 16 -24 8 -75 17 -114 18 -38 2 -88 8 -110 15 -22 6 -69 15 -105 21
-36 5 -87 14 -115 20 -27 6 -118 12 -200 15 -83 2 -162 8 -177 14 -14 5 -57
13 -95 16 -58 6 -72 4 -86 -10z"/>
<path d="M18894 16389 c-16 -18 -19 -35 -17 -116 2 -105 6 -100 -64 -72 -26
11 -34 10 -48 -1 -29 -24 -14 -53 42 -80 79 -38 78 -36 74 -164 -3 -122 12
-186 44 -186 15 0 16 15 10 145 -9 168 -10 166 83 145 31 -7 68 -12 82 -12 14
1 83 1 154 1 121 1 156 8 156 31 0 5 -37 7 -82 5 -46 -1 -114 1 -153 6 -38 4
-94 10 -123 13 -29 2 -67 13 -85 23 -28 17 -32 25 -35 67 -2 26 1 53 6 59 13
16 25 119 16 140 -9 23 -37 21 -60 -4z"/>
<path d="M17862 16354 c-56 -39 -78 -155 -58 -307 8 -61 18 -149 21 -195 4
-45 11 -85 16 -88 25 -15 52 14 101 107 57 107 133 194 160 184 18 -7 49 -74
68 -150 7 -27 19 -57 26 -65 7 -8 16 -28 20 -45 11 -46 53 -125 70 -132 8 -3
25 3 37 14 12 11 34 23 49 27 37 8 118 119 118 161 0 24 -15 15 -42 -24 -30
-45 -54 -59 -70 -43 -27 27 -9 97 50 192 50 80 107 61 83 -27 -15 -53 -14 -62
8 -56 16 4 21 -2 26 -34 10 -56 33 -126 51 -151 17 -25 81 -31 102 -10 22 22
14 56 -15 70 -38 18 -53 63 -67 205 -6 54 -22 83 -47 83 -11 0 -31 7 -44 16
-33 21 -67 8 -128 -50 -38 -37 -47 -54 -65 -123 -12 -43 -22 -91 -22 -106 0
-14 -4 -28 -8 -31 -12 -7 -40 60 -46 109 -30 224 -63 276 -157 245 -43 -14
-118 -89 -159 -159 -13 -23 -29 -40 -35 -38 -15 5 -23 78 -21 209 1 105 3 119
25 148 20 28 22 35 10 56 -15 28 -26 30 -57 8z"/>
<path d="M20975 16280 c-4 -6 -11 -57 -16 -113 -13 -149 -12 -147 -59 -147
-60 0 -51 -46 11 -59 31 -6 34 -10 36 -46 2 -71 35 -204 57 -238 24 -35 54
-47 67 -25 15 23 10 49 -16 80 -14 16 -28 42 -31 56 -3 15 -10 38 -16 52 -6
14 -11 49 -12 78 -1 45 2 52 19 53 11 1 40 3 65 5 25 2 72 5 104 6 63 3 77 15
50 43 -15 14 -34 16 -123 13 l-106 -3 -3 60 c-2 32 1 68 7 80 5 11 12 39 15
61 5 33 2 43 -10 48 -22 9 -32 7 -39 -4z"/>
<path d="M25850 16260 c-19 -35 -3 -60 36 -60 68 0 95 34 52 64 -32 23 -75 20
-88 -4z"/>
<path d="M26750 16242 c-40 -3 -71 -17 -116 -49 -17 -13 -36 -23 -42 -23 -14
0 -122 -111 -122 -126 0 -6 -6 -17 -14 -23 -23 -19 -29 -77 -11 -112 21 -40
61 -55 167 -63 51 -3 105 -14 133 -26 55 -24 91 -26 99 -5 13 35 -57 60 -188
69 -52 3 -73 9 -83 22 -7 10 -12 22 -10 28 2 5 37 21 78 36 96 35 159 69 159
86 0 7 11 24 25 36 35 33 47 80 28 107 -20 30 -62 47 -103 43z m28 -64 c18
-18 15 -42 -8 -71 -41 -52 -185 -135 -242 -139 -30 -3 -33 -1 -30 21 5 33 31
71 48 71 8 0 14 9 14 20 0 12 10 24 24 30 13 5 28 22 34 39 9 26 16 30 54 34
85 7 94 7 106 -5z"/>
<path d="M22761 16181 c-42 -58 -17 -119 45 -112 15 1 24 88 13 118 -12 31
-33 29 -58 -6z"/>
<path d="M26263 16189 c-57 -28 -155 -134 -187 -202 -35 -75 -44 -153 -21
-200 38 -82 238 -122 300 -61 41 41 -2 63 -75 39 -55 -18 -93 -14 -126 13 -52
44 -57 97 -15 180 38 74 102 140 174 177 44 23 57 35 55 50 -4 28 -53 30 -105
4z"/>
<path d="M23377 16108 c-13 -18 -39 -71 -56 -118 -53 -139 -102 -249 -117
-261 -35 -29 -66 49 -60 150 5 74 -4 115 -27 119 -11 2 -20 -12 -33 -52 -15
-47 -16 -64 -6 -123 17 -104 48 -155 102 -167 29 -7 37 -3 70 44 28 40 47 77
85 170 55 134 84 188 104 195 21 6 26 29 15 59 -11 27 -51 19 -77 -16z"/>
<path d="M24600 16094 c-124 -19 -200 -55 -200 -93 0 -25 32 -51 62 -51 74 0
178 -82 178 -140 0 -22 -10 -37 -42 -63 -24 -19 -54 -38 -68 -42 -14 -4 -51
-18 -82 -31 -32 -13 -72 -24 -90 -24 -69 0 -102 -54 -53 -86 24 -16 27 -16 48
3 29 27 85 53 111 53 12 0 53 12 92 26 168 61 204 194 80 289 -18 14 -50 31
-71 38 -47 16 -67 43 -45 57 21 14 87 12 127 -2 25 -9 39 -9 51 -2 19 13 28
42 15 54 -10 10 -81 19 -113 14z"/>
<path d="M25892 16083 c-9 -17 -22 -67 -41 -155 -6 -24 -15 -64 -20 -90 -17
-76 -14 -135 9 -158 44 -44 67 -9 63 94 -2 59 4 99 27 181 23 81 28 111 20
125 -13 25 -46 26 -58 3z"/>
<path d="M20285 16042 c-37 -4 -85 -21 -105 -38 -59 -51 -92 -91 -140 -169
-51 -83 -55 -95 -55 -149 1 -51 4 -61 28 -82 24 -21 38 -24 105 -24 105 0 252
57 252 97 0 21 -58 13 -120 -15 -82 -37 -115 -42 -152 -24 -28 14 -34 23 -36
57 -6 72 16 121 88 195 72 76 99 90 165 90 46 0 59 9 49 33 -7 20 -43 33 -79
29z"/>
<path d="M22805 16004 c-8 -9 -15 -27 -16 -42 -2 -64 -9 -150 -16 -192 -8 -54
-9 -63 -23 -210 -17 -186 -70 -340 -133 -390 -21 -17 -31 -19 -46 -11 -11 6
-24 11 -29 11 -16 0 -23 -30 -11 -52 9 -17 18 -19 50 -15 55 7 83 28 124 92
62 97 67 115 95 350 57 470 56 461 37 468 -9 3 -23 -1 -32 -9z"/>
<path d="M24214 16000 c-28 -11 -85 -83 -118 -147 -28 -56 -32 -78 -16 -88 10
-6 14 3 40 71 16 43 73 104 98 104 27 0 43 -43 45 -119 2 -50 -1 -64 -16 -72
-14 -8 -15 -14 -6 -30 7 -15 19 -19 41 -17 27 3 33 9 46 47 15 44 11 90 -17
196 -15 58 -46 76 -97 55z"/>
<path d="M20637 15975 c-42 -29 -47 -42 -14 -47 19 -3 22 -8 20 -42 -2 -22 -7
-44 -13 -50 -17 -17 -11 -33 13 -32 15 1 23 -5 25 -21 4 -28 85 -103 111 -103
11 0 27 10 35 22 19 27 5 58 -29 58 -13 0 -30 7 -39 15 -19 20 -30 94 -22 152
10 76 -21 92 -87 48z"/>
<path d="M23644 15992 c-6 -4 -18 -21 -27 -38 -9 -17 -27 -38 -40 -47 -27 -17
-47 -80 -47 -146 0 -30 6 -44 22 -55 45 -32 51 -24 63 84 9 83 18 92 54 50 25
-29 33 -33 48 -24 10 6 22 20 28 32 5 12 13 22 17 22 4 0 19 -25 34 -56 19
-40 35 -60 59 -71 31 -15 35 -15 67 4 41 24 50 60 16 68 -13 2 -32 4 -43 2
-20 -2 -39 28 -66 101 -10 27 -16 33 -38 30 -20 -2 -27 -10 -31 -33 -4 -23
-11 -31 -31 -33 -29 -3 -39 15 -39 74 0 20 -6 34 -16 38 -19 7 -17 7 -30 -2z"/>
<path d="M29557 15892 c-10 -10 -17 -28 -17 -39 0 -11 -11 -37 -25 -57 -29
-43 -31 -65 -10 -106 12 -23 16 -73 18 -215 3 -165 5 -187 23 -206 27 -30 47
-39 73 -32 18 5 22 11 18 32 -3 14 0 35 6 46 6 11 17 34 23 52 l11 32 -27 -29
c-60 -64 -71 -30 -65 203 4 150 8 192 25 240 15 44 18 62 10 77 -13 25 -42 26
-63 2z"/>
<path d="M20527 15873 c-4 -3 -7 -11 -7 -17 0 -6 5 -5 12 2 6 6 9 14 7 17 -3
3 -9 2 -12 -2z"/>
<path d="M24180 15874 c-23 -7 -42 -62 -29 -85 13 -26 20 -24 52 18 39 52 29
81 -23 67z"/>
<path d="M20462 15793 c-16 -21 -35 -49 -42 -62 -11 -22 -10 -27 15 -47 33
-26 93 -38 113 -22 14 12 62 105 62 120 0 16 -20 8 -53 -22 -50 -44 -60 -40
-55 20 3 28 2 50 -3 50 -4 0 -21 -17 -37 -37z"/>
<path d="M3760 15731 c-15 -28 -12 -275 4 -343 15 -67 9 -78 -45 -78 -21 0
-41 -4 -44 -10 -3 -5 -16 -10 -27 -10 -23 0 -111 -40 -117 -53 -1 -4 -14 -18
-28 -31 -29 -27 -29 -82 0 -100 16 -9 24 -5 55 30 41 46 112 94 140 94 10 0
23 5 29 11 7 7 19 9 29 5 15 -6 16 -16 10 -79 -3 -39 -9 -82 -12 -94 -5 -17
-2 -23 9 -23 23 0 34 28 36 88 0 30 6 72 13 94 14 49 46 65 155 81 60 8 76 14
89 34 20 32 12 39 -26 23 -24 -10 -33 -10 -45 0 -12 10 -21 10 -38 2 -34 -16
-77 -23 -98 -17 -23 8 -24 42 -7 181 12 104 3 159 -33 195 -24 24 -36 24 -49
0z"/>
<path d="M24180 15740 c0 -5 5 -10 10 -10 6 0 10 5 10 10 0 6 -4 10 -10 10 -5
0 -10 -4 -10 -10z"/>
<path d="M24046 15643 c-9 -38 -23 -88 -31 -113 -19 -64 -29 -190 -16 -222 13
-35 50 -47 69 -22 10 14 12 34 7 79 -11 91 -9 166 3 210 9 33 8 41 -4 48 -10
6 -12 18 -8 48 10 62 -2 45 -20 -28z"/>
<path d="M30144 15588 c-38 -30 -46 -37 -71 -73 -27 -38 -73 -152 -73 -180 0
-29 -19 -45 -51 -45 -23 0 -32 8 -52 48 -14 28 -30 85 -37 135 -6 47 -17 90
-23 95 -31 24 -47 21 -72 -12 -33 -43 -38 -90 -11 -91 14 0 22 -10 28 -35 25
-110 54 -151 132 -190 56 -29 70 -27 143 13 44 23 55 46 37 77 -16 30 -18 66
-4 75 6 3 10 14 10 23 1 18 58 87 66 79 3 -3 1 -31 -5 -63 -9 -45 -8 -62 2
-78 8 -12 20 -43 27 -71 12 -44 25 -67 71 -122 14 -18 94 -16 109 2 22 26 8
50 -33 55 -28 4 -42 12 -55 35 -25 41 -40 110 -40 176 1 37 -5 65 -16 80 -15
23 -15 25 5 40 14 10 20 22 16 33 -9 24 -68 20 -103 -6z"/>
<path d="M31912 15516 c-17 -20 -33 -52 -37 -75 -4 -23 -11 -43 -16 -47 -5 -3
-9 -24 -9 -48 0 -30 -6 -48 -20 -61 -25 -23 -25 -35 1 -82 31 -56 34 -59 92
-73 49 -11 57 -11 96 9 60 31 49 47 -31 43 -80 -3 -93 8 -84 70 3 24 7 56 9
71 2 15 9 33 15 39 7 7 12 21 12 33 1 29 20 51 63 68 65 28 44 87 -31 87 -22
0 -38 -10 -60 -34z"/>
<path d="M31404 15504 l-27 -35 20 -35 c17 -30 18 -43 11 -99 -11 -81 -1 -105
46 -105 30 0 34 4 45 41 9 29 9 44 1 54 -7 8 -8 40 -4 93 6 73 5 81 -15 101
-29 29 -46 26 -77 -15z"/>
<path d="M30868 15503 c-16 -18 -48 -77 -48 -88 0 -4 10 -5 23 -3 21 3 22 0
22 -82 0 -95 3 -103 47 -126 30 -16 31 -15 70 23 34 34 78 104 78 125 0 17
-38 7 -60 -17 -47 -50 -59 -24 -41 88 7 40 5 52 -11 73 -23 28 -59 31 -80 7z"/>
<path d="M31173 15508 c-5 -7 -18 -51 -27 -98 -10 -47 -24 -106 -32 -132 -21
-69 -18 -81 22 -103 l35 -19 24 30 c14 16 31 36 40 45 22 23 19 44 -10 63 -26
17 -32 45 -15 62 6 6 12 25 14 42 3 17 7 41 11 52 12 36 -3 70 -29 70 -13 0
-28 -6 -33 -12z"/>
<path d="M26674 15478 c-22 -18 -55 -54 -74 -80 -18 -27 -36 -48 -40 -48 -5 0
-11 19 -15 43 -8 48 -29 77 -57 77 -24 0 -154 -66 -193 -97 -69 -57 -156 -148
-162 -171 -13 -55 42 -53 80 3 26 38 177 176 215 196 26 14 55 3 59 -22 1 -8
5 -40 8 -72 6 -50 12 -64 45 -98 29 -30 48 -40 80 -44 24 -3 46 -8 50 -10 4
-3 22 0 39 6 41 14 37 37 -9 54 -90 32 -90 32 -90 72 0 44 46 123 86 149 34
23 57 9 65 -39 5 -30 2 -38 -13 -43 -10 -3 -18 -12 -18 -20 0 -24 14 -16 48
28 27 36 31 47 26 82 -9 64 -11 66 -51 66 -27 0 -49 -9 -79 -32z"/>
<path d="M30632 15481 c-25 -15 -41 -61 -36 -99 8 -62 21 -126 29 -150 13 -37
75 -42 75 -6 0 9 7 22 15 30 19 20 19 54 0 54 -24 0 -32 29 -24 88 5 31 6 65
3 75 -6 18 -40 23 -62 8z"/>
<path d="M27410 15470 c-8 -5 -17 -40 -22 -87 -31 -299 -31 -303 -20 -328 13
-29 50 -34 58 -7 3 9 14 35 25 58 23 49 24 83 4 90 -19 8 -19 47 0 146 15 81
10 120 -18 131 -7 3 -20 1 -27 -3z"/>
<path d="M30468 15463 c-21 -24 -52 -177 -44 -221 6 -40 31 -72 57 -72 30 0
52 98 30 139 -6 11 -6 42 2 85 9 57 9 69 -3 76 -21 13 -25 12 -42 -7z"/>
<path d="M26935 15446 c-41 -18 -69 -51 -96 -111 -39 -88 -49 -119 -55 -177
-6 -47 -3 -61 15 -86 25 -36 89 -64 122 -54 24 7 127 110 146 145 8 16 13 14
38 -23 48 -69 109 -89 142 -46 29 36 68 114 61 121 -3 3 -18 7 -34 8 -22 2
-32 -5 -48 -30 -30 -47 -51 -39 -52 22 -1 28 -2 62 -3 77 -1 39 -36 56 -63 31
-21 -19 -73 -113 -62 -113 4 0 -20 -27 -52 -60 -71 -73 -101 -79 -127 -25 -18
38 -23 100 -8 109 5 3 12 18 16 33 9 38 62 108 91 122 13 6 37 8 54 5 37 -8
39 8 5 41 -27 28 -46 30 -90 11z"/>
<path d="M31598 15416 c-8 -20 -7 -32 6 -60 9 -18 16 -48 16 -64 0 -39 41 -88
81 -97 26 -6 35 -2 65 29 l35 36 -41 0 c-35 0 -42 4 -51 28 -6 15 -13 45 -15
67 -2 27 -12 47 -29 63 -34 29 -53 28 -67 -2z"/>
<path d="M2535 15414 c-73 -16 -123 -34 -220 -81 -191 -91 -332 -201 -382
-296 -10 -20 -17 -55 -17 -93 0 -83 52 -185 117 -230 43 -30 48 -31 153 -31
60 0 118 3 130 7 11 5 27 4 34 0 8 -5 19 -6 24 -2 6 3 24 6 40 6 21 1 32 7 34
19 4 19 3 19 -165 21 -51 1 -87 6 -94 14 -7 6 -24 12 -37 12 -33 0 -107 62
-128 105 -11 24 -14 46 -10 70 7 36 44 107 58 113 5 2 26 21 48 42 22 21 61
49 85 61 25 12 45 26 45 31 0 4 30 22 68 39 37 17 75 35 84 40 10 5 28 9 40 9
13 1 34 7 48 15 33 19 82 19 127 0 40 -17 63 -7 63 28 0 33 -38 85 -72 96 -32
11 -39 12 -73 5z"/>
<path d="M3140 15402 c-67 -10 -175 -44 -183 -57 -4 -8 -17 -15 -27 -15 -27 0
-102 -77 -128 -130 -36 -77 -34 -177 5 -237 31 -49 58 -63 138 -73 63 -7 94 0
130 32 11 9 41 28 65 41 28 14 50 35 59 54 15 33 52 60 70 49 5 -4 13 -23 17
-44 4 -20 13 -51 21 -69 7 -18 13 -45 13 -60 0 -16 11 -40 26 -56 24 -26 28
-27 47 -14 33 21 34 67 2 97 -14 13 -25 34 -25 47 0 14 -4 32 -10 42 -5 10
-10 62 -11 115 -2 79 -6 102 -21 122 -11 13 -26 24 -34 24 -8 0 -15 6 -15 13
-1 6 -2 18 -3 24 -2 20 -49 73 -65 73 -8 0 -22 6 -30 13 -9 7 -27 11 -41 9z
m73 -131 c40 -19 47 -26 47 -51 0 -16 -5 -32 -11 -35 -5 -4 -21 -31 -35 -60
-24 -54 -55 -85 -84 -85 -9 0 -30 -13 -47 -29 -19 -17 -55 -34 -94 -44 -61
-15 -63 -15 -90 6 -43 34 -55 71 -40 126 7 25 23 55 35 66 13 11 33 34 44 51
12 17 34 37 49 43 29 12 164 40 173 36 3 -2 26 -12 53 -24z"/>
<path d="M8766 15384 c-10 -26 -7 -42 16 -92 60 -131 157 -248 303 -367 27
-22 70 -59 96 -82 25 -24 49 -43 53 -43 4 0 22 -15 39 -33 18 -18 51 -45 75
-61 23 -16 42 -32 42 -37 0 -4 9 -11 21 -14 25 -8 53 -35 62 -59 8 -21 31 -16
35 7 2 12 -3 17 -17 17 -12 0 -21 6 -21 15 0 8 -4 15 -9 15 -4 0 -21 10 -35
21 -22 17 -25 24 -14 31 10 7 9 11 -5 23 -11 7 -25 11 -32 9 -8 -4 -15 3 -17
18 -2 15 -11 24 -24 26 -12 2 -24 12 -27 23 -3 11 -15 23 -26 26 -12 3 -21 12
-21 19 0 8 -6 14 -14 14 -8 0 -17 11 -20 25 -7 27 -36 35 -36 9 0 -28 -25 -9
-30 23 -3 20 -20 43 -48 67 -24 20 -48 36 -53 36 -5 0 -21 19 -36 42 -16 23
-42 57 -58 75 -39 43 -76 115 -105 206 -6 20 -20 42 -30 47 -28 15 -57 12 -64
-6z"/>
<path d="M26040 15393 c-41 -8 -126 -71 -194 -144 -53 -58 -68 -82 -85 -137
-44 -146 12 -225 160 -226 44 -1 64 4 97 26 51 34 80 74 64 90 -8 8 -28 1 -72
-26 -34 -20 -71 -38 -83 -41 -35 -9 -83 28 -106 81 -25 55 -26 70 -7 81 7 4
21 24 31 43 9 19 34 58 55 86 36 48 90 82 193 123 30 12 36 35 11 45 -16 6
-24 6 -64 -1z"/>
<path d="M27546 15343 c-15 -21 -19 -42 -19 -95 2 -104 25 -121 82 -63 53 53
95 69 150 59 45 -9 47 -11 81 -81 27 -56 42 -75 64 -83 15 -5 32 -7 37 -4 26
16 -7 125 -54 179 -54 62 -151 83 -202 43 -31 -24 -60 -15 -60 19 -1 26 -23
53 -44 53 -9 0 -25 -13 -35 -27z"/>
<path d="M7719 15302 c-24 -15 -69 -40 -99 -55 -30 -15 -66 -34 -80 -41 -14
-8 -43 -22 -64 -32 -85 -40 -132 -67 -151 -84 -11 -11 -36 -26 -55 -35 -51
-24 -94 -47 -100 -54 -8 -9 -78 -61 -83 -61 -8 0 -141 -91 -162 -110 -11 -11
-37 -26 -58 -35 -20 -8 -37 -19 -37 -24 0 -5 -19 -20 -42 -34 -24 -14 -55 -37
-69 -50 -14 -14 -36 -28 -48 -32 -13 -4 -40 -21 -60 -39 -42 -36 -126 -96
-136 -96 -4 0 -33 -20 -65 -45 -32 -25 -64 -45 -70 -45 -6 0 -22 -11 -35 -24
-13 -13 -37 -31 -52 -39 -15 -8 -49 -26 -75 -40 -26 -14 -59 -34 -73 -45 -14
-11 -39 -24 -55 -27 -42 -9 -83 -60 -70 -86 13 -24 40 -24 71 -1 57 45 131 92
224 146 55 32 114 70 130 85 17 15 53 43 80 61 28 19 77 52 111 74 33 23 76
56 95 73 18 18 39 33 45 33 6 0 45 24 86 54 42 30 85 59 97 65 11 7 31 21 43
32 33 29 113 86 151 107 17 10 51 30 74 45 24 15 46 27 51 27 5 0 17 9 27 20
10 11 26 20 35 20 9 0 25 9 35 20 10 11 24 20 31 20 7 0 32 13 56 29 24 16 76
43 117 61 40 17 88 40 105 51 17 10 38 19 47 19 9 0 22 6 28 14 6 7 25 16 41
19 38 8 68 51 50 72 -18 22 -40 19 -91 -13z"/>
<path d="M980 15310 c0 -5 5 -10 11 -10 5 0 7 5 4 10 -3 6 -8 10 -11 10 -2 0
-4 -4 -4 -10z"/>
<path d="M32596 15282 c-2 -4 -69 -7 -148 -6 -99 0 -151 -3 -169 -12 -15 -7
-29 -11 -32 -8 -9 9 -50 -16 -74 -45 -26 -31 -29 -54 -8 -71 16 -13 17 -13 84
25 24 14 50 25 57 25 7 0 14 4 16 9 2 5 45 11 96 14 50 2 98 10 106 16 10 8
21 9 33 3 10 -5 33 -10 51 -10 30 -1 32 1 32 34 0 27 -4 34 -19 34 -11 0 -22
-4 -25 -8z"/>
<path d="M3739 14983 c-5 -14 -7 -34 -4 -42 5 -13 10 -12 25 9 11 14 20 33 20
43 0 27 -29 20 -41 -10z"/>
<path d="M2490 14734 c0 -9 7 -14 17 -12 25 5 28 28 4 28 -12 0 -21 -6 -21
-16z"/>
<path d="M9560 14546 c0 -15 37 -32 47 -22 9 8 -17 36 -33 36 -8 0 -14 -6 -14
-14z"/>
<path d="M9672 14478 c2 -17 11 -24 32 -26 23 -3 28 0 22 13 -3 9 -6 21 -6 26
0 5 -12 9 -26 9 -21 0 -25 -4 -22 -22z"/>
<path d="M735 14430 c-3 -5 -1 -10 4 -10 6 0 11 5 11 10 0 6 -2 10 -4 10 -3 0
-8 -4 -11 -10z"/>
<path d="M9735 14430 c3 -5 15 -10 26 -10 11 0 17 5 14 10 -3 6 -15 10 -26 10
-11 0 -17 -4 -14 -10z"/>
<path d="M9792 14403 c3 -16 54 -50 63 -41 3 3 1 17 -4 30 -7 18 -17 26 -36
26 -17 0 -25 -5 -23 -15z"/>
<path d="M9894 14355 c-6 -14 30 -54 49 -55 9 0 9 32 -1 46 -13 19 -42 25 -48
9z"/>
<path d="M9987 14303 c-4 -3 -7 -12 -7 -19 0 -12 117 -109 160 -133 14 -7 47
-40 73 -72 28 -34 56 -59 67 -59 21 0 50 25 50 43 -1 20 -54 71 -105 102 -28
16 -61 39 -75 52 -14 13 -33 26 -42 29 -10 3 -18 9 -18 14 0 5 -21 18 -46 30
-53 23 -49 22 -57 13z"/>
<path d="M5449 13808 c0 -2 -2 -13 -3 -25 -2 -13 -10 -31 -19 -41 -21 -23 -22
-46 -3 -62 12 -9 30 -6 88 13 88 30 154 41 163 27 3 -5 17 -10 30 -10 12 0 26
-7 29 -16 4 -12 13 -14 32 -10 19 5 25 3 21 -6 -6 -19 11 -48 29 -48 8 0 30
-15 49 -34 31 -32 34 -41 44 -127 9 -78 8 -97 -4 -116 -8 -12 -15 -33 -15 -46
0 -14 -6 -40 -14 -58 -19 -48 -27 -99 -16 -99 6 0 10 6 10 14 0 8 6 16 14 19
8 3 24 27 36 54 11 26 25 50 29 53 5 3 11 25 15 50 3 25 10 71 15 103 14 84
-11 146 -86 215 -31 28 -64 52 -73 52 -9 0 -21 5 -26 10 -13 13 -124 42 -140
36 -6 -2 -16 0 -21 5 -5 5 -44 12 -86 15 -55 5 -77 11 -77 20 0 11 -18 21 -21
12z"/>
<path d="M5311 13786 c-14 -8 -31 -12 -38 -9 -8 3 -21 -1 -31 -10 -9 -8 -28
-17 -41 -19 -14 -1 -26 -9 -29 -15 -5 -18 38 -16 77 3 17 9 63 20 101 26 39 6
70 14 70 19 0 5 -6 9 -14 9 -7 0 -26 2 -42 5 -16 3 -40 -1 -53 -9z"/>
<path d="M5042 13685 c-12 -7 -33 -22 -46 -34 -12 -11 -28 -21 -34 -21 -19 0
-130 -83 -137 -102 -3 -9 -15 -20 -26 -23 -10 -4 -24 -16 -30 -28 -7 -12 -33
-48 -59 -82 -52 -67 -60 -89 -67 -188 -4 -55 -1 -77 16 -112 12 -25 21 -50 21
-57 0 -7 8 -34 18 -59 24 -64 84 -127 138 -146 24 -8 46 -19 50 -24 3 -5 15
-9 27 -9 12 0 34 -6 48 -14 19 -10 41 -11 90 -4 35 4 69 6 75 4 7 -3 41 -1 76
4 39 6 66 6 72 0 13 -13 46 -13 46 -1 0 5 9 7 19 4 11 -3 32 5 48 17 18 12 48
22 75 24 51 4 68 11 68 30 0 9 9 12 25 8 20 -3 33 4 60 33 30 31 46 65 31 65
-9 0 -127 -73 -132 -81 -3 -5 -18 -9 -33 -9 -15 0 -54 -11 -87 -23 -100 -40
-351 -44 -399 -7 -5 4 -25 10 -44 14 -46 8 -123 59 -155 100 -40 53 -77 145
-86 214 -7 53 -5 72 15 128 13 36 37 80 53 98 16 17 33 41 37 54 3 12 10 22
14 22 6 0 43 29 90 72 8 7 30 22 50 34 20 11 41 30 46 43 6 12 21 25 35 28 32
7 51 23 44 34 -7 12 -24 10 -52 -6z"/>
<path d="M10754 13338 c-4 -6 -9 -50 -11 -97 -3 -47 -8 -113 -12 -146 -4 -33
-4 -96 0 -140 24 -259 30 -368 24 -437 -4 -49 -2 -84 5 -97 12 -23 52 -28 68
-8 17 20 -3 376 -29 511 -10 54 -4 155 16 261 13 71 11 130 -7 153 -13 15 -45
16 -54 0z"/>
<path d="M5755 13065 c-77 -82 -85 -95 -60 -95 32 0 90 43 118 87 26 42 36 83
20 83 -5 0 -39 -34 -78 -75z"/>
<path d="M1755 13080 c-53 -7 -77 -25 -105 -80 -23 -45 -34 -141 -15 -137 5 1
8 10 7 20 -2 9 4 20 12 23 9 3 16 16 16 28 0 37 62 98 106 105 24 4 40 12 42
22 4 21 -13 26 -63 19z"/>
<path d="M1194 13023 c-3 -10 -9 -25 -14 -33 -4 -9 -11 -45 -15 -80 -3 -36
-11 -79 -17 -96 -8 -23 -8 -64 1 -147 13 -131 17 -147 38 -147 12 0 13 6 7 28
-4 15 -7 38 -6 52 1 14 2 41 3 60 0 19 4 37 9 40 4 3 10 42 13 88 5 68 10 90
30 116 32 42 37 88 13 115 -23 26 -55 27 -62 4z"/>
<path d="M1932 12983 c11 -27 31 -56 44 -66 13 -11 24 -29 24 -42 0 -13 5 -27
11 -31 8 -5 10 -39 6 -110 -5 -103 0 -119 27 -91 32 32 38 84 27 229 -1 25
-71 100 -86 94 -8 -3 -11 2 -8 14 3 11 -4 24 -18 34 -42 29 -50 20 -27 -31z"/>
<path d="M1792 12905 c-17 -14 -47 -61 -67 -103 -20 -42 -40 -85 -46 -95 -5
-10 -7 -22 -3 -28 3 -5 -1 -21 -10 -34 -18 -28 -21 -106 -5 -138 18 -35 72
-87 90 -87 9 0 19 7 23 15 3 9 18 15 36 15 16 0 30 5 30 10 0 6 12 10 28 10
32 0 112 66 112 93 0 9 -4 17 -9 17 -26 0 -121 -68 -121 -87 0 -8 -14 -13 -39
-13 -34 0 -44 5 -65 33 -15 19 -26 45 -26 58 0 25 22 94 33 105 4 4 4 17 1 28
-3 14 6 37 25 66 17 25 31 51 31 58 0 6 8 12 19 12 26 0 43 24 39 57 -4 38
-36 41 -76 8z"/>
<path d="M3972 12777 c-6 -7 -11 -26 -10 -42 1 -49 -22 -193 -48 -302 -13 -57
-24 -116 -24 -133 0 -33 53 -160 73 -172 27 -17 83 -7 137 25 30 18 78 43 105
56 28 12 57 27 65 32 8 5 35 21 60 36 25 14 55 36 68 47 38 34 55 13 73 -96 9
-53 26 -115 37 -140 12 -24 22 -49 22 -55 0 -12 23 -23 49 -23 28 0 71 39 71
65 0 27 -24 50 -44 42 -20 -8 -37 15 -46 61 -5 20 -13 62 -20 92 -7 30 -16 74
-20 98 -10 63 -37 86 -88 77 -27 -4 -46 -15 -57 -31 -8 -13 -21 -24 -28 -24
-7 0 -18 -9 -25 -20 -7 -11 -19 -20 -28 -20 -16 0 -66 -25 -94 -47 -37 -28
-155 -83 -181 -83 -50 0 -51 47 -5 235 43 175 46 193 46 236 0 69 -56 124 -88
86z"/>
<path d="M5531 12623 c-5 -11 -5 -55 2 -116 5 -53 7 -100 4 -104 -4 -3 -41 -7
-84 -9 -42 -2 -85 -6 -95 -10 -25 -8 -34 -52 -17 -83 18 -31 50 -32 118 -7 24
9 52 14 63 10 16 -5 18 -12 14 -53 -3 -26 -8 -55 -12 -64 -9 -24 4 -67 20 -67
19 0 27 24 33 106 5 67 7 71 36 82 22 9 37 8 61 -1 21 -9 50 -10 91 -5 33 4
88 4 123 1 44 -4 62 -2 62 6 0 6 -8 14 -17 17 -10 3 -31 12 -46 20 -16 7 -39
14 -51 14 -12 0 -26 4 -31 9 -24 21 -64 21 -83 0 -22 -23 -89 -24 -85 -2 2 7
-5 17 -15 22 -17 9 -18 17 -9 81 10 80 4 132 -19 155 -21 20 -51 19 -63 -2z"/>
<path d="M1996 12594 c-8 -22 -8 -24 8 -24 15 0 28 24 19 34 -11 10 -21 7 -27
-10z"/>
<path d="M1180 12485 c0 -8 5 -15 10 -15 6 0 10 7 10 15 0 8 -4 15 -10 15 -5
0 -10 -7 -10 -15z"/>
<path d="M5055 12422 c-11 -2 -28 -11 -38 -20 -12 -11 -21 -12 -28 -5 -5 5
-33 8 -62 5 -55 -5 -111 -38 -150 -89 -12 -15 -27 -32 -34 -36 -21 -13 -15
-80 10 -128 20 -37 29 -45 61 -50 31 -5 43 -2 66 17 15 13 33 24 38 24 14 0
52 49 52 66 0 21 -24 17 -48 -9 -20 -21 -26 -22 -67 -13 -25 6 -45 14 -45 19
0 35 74 91 132 101 23 4 45 17 57 32 l20 26 12 -26 c11 -23 9 -31 -9 -56 -27
-36 -28 -50 -2 -50 16 0 21 -9 26 -52 5 -35 16 -61 34 -82 26 -29 29 -30 54
-16 43 22 49 90 8 90 -36 0 -42 19 -36 124 6 91 5 103 -12 117 -11 8 -28 14
-39 11z"/>
<path d="M6000 12320 c0 -5 5 -10 11 -10 5 0 7 5 4 10 -3 6 -8 10 -11 10 -2 0
-4 -4 -4 -10z"/>
<path d="M10931 11821 c-26 -16 -4 -73 59 -149 33 -41 60 -78 60 -83 0 -4 8
-16 18 -26 10 -10 36 -43 57 -73 21 -30 50 -67 64 -82 14 -14 60 -71 101 -126
41 -55 85 -106 97 -113 13 -7 25 -19 28 -28 3 -9 31 -43 63 -76 31 -33 72 -82
91 -110 19 -27 62 -78 95 -112 74 -76 146 -158 146 -166 0 -3 12 -19 26 -34
15 -15 43 -53 64 -83 56 -81 103 -123 129 -115 39 12 25 50 -49 137 -39 46
-89 107 -113 136 -23 29 -54 65 -68 80 -14 15 -45 52 -70 82 -24 30 -51 62
-60 70 -9 8 -42 47 -75 85 -50 59 -111 129 -258 295 -13 14 -40 50 -61 80 -20
30 -54 75 -75 100 -49 60 -164 219 -180 250 -17 33 -51 70 -64 70 -6 0 -17 -4
-25 -9z"/>
<path d="M2090 11774 c0 -8 5 -12 10 -9 6 4 8 11 5 16 -9 14 -15 11 -15 -7z"/>
<path d="M10210 11558 c-107 -54 -232 -110 -278 -124 -45 -15 -85 -30 -88 -35
-3 -5 -12 -9 -19 -9 -17 0 -402 -189 -530 -260 -49 -28 -101 -56 -115 -62 -14
-7 -46 -27 -72 -45 -99 -68 -147 -86 -233 -88 -74 -1 -80 -3 -83 -23 -2 -14 8
-33 28 -53 30 -30 34 -31 88 -25 34 4 64 14 77 26 11 10 51 33 90 50 38 17 78
39 88 48 23 21 93 61 177 103 36 17 67 34 70 38 9 11 89 61 99 61 5 0 51 21
102 48 52 26 119 58 149 71 30 13 66 32 80 41 23 15 63 31 275 106 39 14 89
34 112 44 41 19 170 67 208 77 33 9 45 24 45 53 0 31 -28 61 -56 58 -10 0
-107 -45 -214 -100z"/>
<path d="M2635 11490 c-3 -5 1 -10 9 -10 9 0 16 5 16 10 0 6 -4 10 -9 10 -6 0
-13 -4 -16 -10z"/>
<path d="M20 10940 c0 -5 5 -10 10 -10 6 0 10 5 10 10 0 6 -4 10 -10 10 -5 0
-10 -4 -10 -10z"/>
<path d="M8001 10426 c-15 -18 2 -31 25 -18 13 7 13 10 1 20 -11 10 -17 9 -26
-2z"/>
<path d="M8116 10421 c-8 -13 26 -31 58 -31 18 0 30 -9 41 -30 20 -39 65 -42
88 -6 9 13 29 26 46 29 31 6 42 31 19 40 -26 9 -246 8 -252 -2z"/>
<path d="M7810 10409 c0 -5 5 -7 10 -4 6 3 10 8 10 11 0 2 -4 4 -10 4 -5 0
-10 -5 -10 -11z"/>
<path d="M8457 10394 c-12 -12 4 -24 32 -24 31 0 52 -16 44 -36 -4 -11 2 -13
25 -8 33 7 72 -9 72 -29 0 -7 21 -21 48 -30 46 -17 71 -34 166 -107 65 -50
108 -141 110 -229 1 -59 -3 -72 -31 -115 -18 -27 -33 -54 -33 -59 0 -14 -46
-54 -70 -62 -11 -3 -20 -15 -20 -26 0 -10 -7 -19 -15 -19 -8 0 -15 -9 -15 -20
0 -11 2 -20 4 -20 27 0 156 85 156 102 0 4 13 26 28 50 89 135 83 277 -17 388
-69 77 -81 88 -114 104 -19 9 -37 22 -40 30 -3 7 -38 26 -79 41 -40 15 -86 33
-103 40 -28 13 -114 35 -133 35 -5 0 -12 -3 -15 -6z"/>
<path d="M8370 10328 c0 -22 58 -60 80 -53 25 8 25 17 3 37 -26 23 -83 33 -83
16z"/>
<path d="M7489 10306 c-72 -43 -132 -86 -146 -106 -8 -11 -19 -20 -24 -20 -18
0 -111 -102 -136 -149 -15 -29 -26 -70 -30 -116 -5 -65 -3 -75 27 -137 18 -36
49 -82 69 -100 46 -44 165 -118 189 -118 10 0 22 -4 28 -8 32 -29 233 -79 379
-94 216 -23 360 -18 360 12 0 12 -16 15 -70 15 -112 1 -299 16 -317 26 -9 5
-32 9 -50 9 -18 0 -89 20 -158 44 -173 60 -197 70 -217 88 -10 9 -28 19 -41
23 -28 8 -119 116 -128 151 -10 39 6 166 23 194 9 14 34 46 55 71 21 25 38 50
38 56 0 6 11 14 25 17 16 4 25 13 25 26 0 13 23 34 69 65 39 24 72 49 76 54
11 19 -11 17 -46 -3z"/>
<path d="M7563 10323 c-18 -6 -16 -23 1 -23 17 0 30 16 19 23 -5 2 -14 2 -20
0z"/>
<path d="M12251 10027 c-12 -31 -46 -249 -76 -482 -2 -22 -7 -51 -10 -65 -6
-30 -22 -131 -29 -180 -2 -19 -12 -69 -21 -110 -17 -79 -18 -91 -29 -320 -7
-142 -1 -200 21 -207 24 -8 36 46 44 196 9 188 19 263 59 457 17 82 45 237 61
344 17 107 35 227 41 267 9 54 9 78 0 97 -15 33 -49 34 -61 3z"/>
<path d="M8695 9593 c0 -18 6 -29 17 -31 22 -4 31 14 18 38 -16 29 -36 25 -35
-7z"/>
<path d="M8600 9555 c0 -17 -35 -21 -45 -5 -4 6 -21 -1 -41 -16 -31 -24 -38
-25 -58 -14 -18 9 -29 9 -45 1 -24 -13 -25 -19 -7 -44 13 -16 15 -16 40 4 23
18 26 18 26 4 0 -13 6 -16 23 -11 12 3 30 6 40 6 14 0 17 5 12 21 -7 20 -5 21
29 15 21 -4 45 -2 58 5 30 16 29 14 22 33 -8 20 -54 22 -54 1z"/>
<path d="M8303 9503 c-41 -3 -55 -9 -64 -25 -10 -19 -9 -20 12 -15 14 4 32 -1
49 -13 26 -18 28 -19 42 -2 18 20 33 63 21 60 -4 -1 -32 -3 -60 -5z"/>
<path d="M2215 9340 c3 -5 10 -10 16 -10 5 0 9 5 9 10 0 6 -7 10 -16 10 -8 0
-12 -4 -9 -10z"/>
<path d="M6908 8969 c-42 -22 -96 -44 -120 -49 -24 -5 -60 -13 -81 -18 -20 -6
-46 -8 -57 -5 -11 3 -20 0 -20 -6 0 -6 -17 -11 -37 -11 -21 0 -60 -7 -87 -15
-27 -8 -65 -15 -83 -15 -19 0 -42 -4 -52 -10 -10 -5 -44 -12 -77 -15 -32 -3
-85 -11 -118 -19 -34 -8 -74 -17 -91 -20 -53 -9 -119 -24 -160 -36 -148 -42
-184 -53 -213 -67 -18 -8 -55 -21 -82 -29 -27 -8 -52 -19 -55 -24 -3 -6 -13
-10 -21 -10 -32 0 -204 -90 -220 -116 -16 -24 -16 -26 3 -46 l21 -21 55 32
c30 17 60 38 67 46 7 8 17 15 23 15 9 0 107 44 178 80 9 5 35 14 58 20 22 6
41 15 41 19 0 5 26 12 58 15 31 4 80 18 107 31 28 12 68 26 90 29 66 9 81 13
94 20 7 5 45 12 84 18 83 11 99 14 149 26 20 6 39 7 43 4 3 -3 15 0 28 6 12 6
45 13 72 16 28 3 91 12 140 21 50 9 104 17 120 18 17 2 40 8 52 15 12 7 32 12
45 12 13 0 46 11 73 25 28 13 55 25 60 25 6 0 39 -29 73 -65 35 -36 69 -65 76
-65 7 0 33 -19 58 -42 25 -24 76 -71 114 -104 38 -34 103 -91 144 -128 41 -37
79 -76 84 -86 5 -11 18 -23 30 -26 12 -4 48 -32 80 -63 142 -135 207 -191 222
-191 5 0 43 -32 84 -70 41 -38 81 -70 88 -70 6 0 12 -4 12 -9 0 -8 36 -42 224
-205 125 -108 136 -122 130 -154 -5 -23 -1 -33 17 -46 27 -19 80 -21 97 -4 30
30 4 67 -128 177 -41 34 -91 77 -110 95 -20 18 -55 45 -78 60 -23 14 -42 30
-42 35 0 4 -17 20 -39 34 -21 14 -50 36 -64 49 -15 13 -40 34 -57 48 -17 14
-38 33 -48 43 -9 10 -33 28 -52 39 -19 12 -59 44 -88 72 -30 28 -80 76 -112
106 -32 30 -123 118 -202 195 -79 77 -174 167 -211 200 -36 33 -110 104 -164
158 -73 73 -104 97 -123 96 -14 0 -60 -18 -102 -40z"/>
<path d="M600 8180 c0 -5 7 -10 15 -10 8 0 15 5 15 10 0 6 -7 10 -15 10 -8 0
-15 -4 -15 -10z"/>
<path d="M4505 8101 c-27 -9 -56 -20 -62 -24 -16 -10 -17 -43 -3 -52 6 -4 9
-1 8 7 -2 7 8 14 21 16 14 2 34 10 46 18 22 14 55 10 55 -7 0 -5 7 -9 15 -9 8
0 15 9 15 20 0 24 8 25 37 5 17 -12 27 -12 53 -4 22 8 38 8 53 1 12 -6 29 -13
38 -15 20 -7 59 19 59 39 0 16 -26 19 -35 4 -5 -8 -11 -7 -21 1 -23 19 -221
19 -279 0z"/>
<path d="M4910 8091 c0 -6 -9 -11 -21 -11 -12 0 -19 -5 -17 -12 4 -12 43 -23
118 -34 19 -3 46 -10 60 -16 58 -25 90 -43 90 -51 0 -4 14 -13 30 -18 17 -6
30 -15 30 -19 0 -5 15 -18 33 -29 27 -16 37 -33 50 -78 9 -32 18 -71 19 -87 2
-16 11 -34 21 -40 29 -17 48 16 40 70 -5 35 -3 44 9 44 9 0 21 -7 28 -15 7 -8
19 -15 27 -15 23 0 73 -42 73 -62 0 -10 6 -21 14 -24 47 -18 75 -203 39 -254
-10 -14 -25 -37 -33 -51 -45 -78 -55 -88 -92 -94 -24 -4 -42 -15 -53 -32 -28
-42 -10 -41 94 4 40 18 121 98 140 138 7 17 20 44 28 61 15 31 11 119 -6 159
-5 11 -12 27 -15 35 -36 84 -139 190 -185 190 -10 0 -24 6 -30 14 -6 7 -25 16
-41 20 -18 3 -30 12 -30 21 0 25 -75 90 -142 122 -35 17 -101 38 -148 46 -47
9 -95 19 -107 23 -14 4 -23 2 -23 -5z"/>
<path d="M4320 8033 c-30 -16 -57 -31 -60 -35 -3 -4 -27 -16 -54 -27 -29 -13
-50 -29 -53 -41 -3 -12 -18 -27 -33 -35 -57 -29 -118 -155 -121 -250 -4 -102
47 -246 109 -310 36 -37 115 -95 129 -95 6 0 21 -8 34 -18 21 -15 74 -40 154
-73 48 -19 311 -41 336 -28 9 5 48 6 86 4 60 -4 72 -2 88 15 14 15 22 17 37 9
14 -8 23 -8 31 0 33 33 -64 43 -192 21 -52 -10 -65 -9 -72 2 -6 10 -11 10 -20
1 -9 -9 -16 -9 -25 -2 -9 7 -19 7 -34 -1 -16 -9 -25 -9 -35 0 -8 7 -18 9 -23
6 -9 -6 -55 6 -97 24 -11 5 -51 19 -88 31 -73 23 -154 68 -229 127 -35 28 -57
58 -87 120 -52 105 -53 160 -3 249 7 12 12 35 12 51 0 23 9 35 45 61 43 31 57
51 34 51 -5 0 -7 5 -3 11 4 8 9 7 15 -2 8 -12 11 -11 19 1 5 8 10 20 10 27 0
7 7 10 16 6 9 -3 21 3 30 16 8 11 22 21 31 21 9 0 27 12 40 26 18 20 27 24 36
15 18 -18 27 -13 27 19 0 38 -18 39 -90 3z"/>
<path d="M12830 8030 c-9 -16 -2 -40 30 -122 51 -129 94 -204 155 -277 68 -78
303 -309 320 -313 7 -2 55 -42 107 -90 51 -49 138 -125 193 -170 55 -46 110
-92 122 -103 11 -11 69 -60 129 -110 59 -49 182 -163 273 -253 148 -147 166
-162 179 -148 14 14 9 23 -56 89 -158 163 -370 367 -442 425 -47 38 -84 71
-244 217 -54 50 -105 95 -114 100 -18 11 -48 38 -231 213 -118 112 -231 246
-231 274 0 8 -4 18 -8 24 -5 5 -26 52 -46 104 -66 166 -62 160 -95 160 -20 0
-34 -7 -41 -20z"/>
<path d="M12635 7924 c-27 -13 -75 -42 -105 -64 -30 -22 -77 -56 -105 -75 -27
-19 -72 -55 -99 -80 -26 -25 -52 -45 -57 -45 -13 0 -249 -233 -249 -246 0 -6
-7 -18 -17 -25 -9 -8 -32 -38 -52 -68 -20 -29 -40 -60 -46 -68 -7 -10 -5 -18
10 -29 37 -27 61 -27 104 1 41 28 45 34 55 97 5 26 23 53 61 93 30 32 55 60
57 64 2 3 21 18 43 34 22 15 71 56 109 92 38 36 90 80 115 97 140 96 266 178
283 184 22 7 24 49 2 58 -28 11 -58 5 -109 -20z"/>
<path d="M731 7719 c-20 -22 -28 -53 -36 -149 -11 -129 -19 -196 -35 -285 -5
-33 -17 -124 -25 -202 -7 -78 -18 -151 -24 -161 -13 -24 4 -42 39 -42 45 0 57
41 86 310 15 135 30 274 35 310 4 36 8 99 10 141 2 101 -10 121 -50 78z"/>
<path d="M500 7628 c-11 -18 -23 -44 -26 -58 -7 -31 -29 -97 -59 -175 -13 -33
-27 -85 -30 -115 -4 -30 -12 -71 -19 -90 -10 -29 -13 -118 -7 -201 2 -27 28
-30 56 -7 25 19 27 25 21 71 -8 58 10 226 29 277 7 19 19 58 25 85 12 50 20
74 46 130 22 50 27 84 14 100 -18 22 -28 19 -50 -17z"/>
<path d="M1210 7580 c-8 -5 -36 -10 -63 -10 -60 0 -127 -40 -127 -77 0 -13 7
-26 15 -29 22 -9 19 -21 -18 -67 -79 -99 -119 -265 -82 -337 22 -43 75 -63
145 -54 64 8 80 17 73 45 -5 18 -2 20 29 14 28 -5 38 -2 61 20 14 15 29 34 32
44 3 9 18 24 35 33 16 9 30 25 30 34 0 9 14 33 30 54 17 21 30 44 30 51 0 8 7
33 15 57 9 24 12 55 9 70 -10 40 -53 93 -85 104 -16 5 -29 14 -29 18 0 10 -57
40 -74 40 -6 0 -18 -5 -26 -10z m108 -83 c12 -11 22 -27 22 -34 0 -8 6 -26 14
-42 13 -25 12 -34 -10 -101 -14 -41 -29 -77 -33 -80 -4 -3 -22 -26 -41 -52
-18 -27 -38 -48 -43 -48 -5 0 -35 -16 -68 -36 -65 -41 -90 -41 -134 0 -32 30
-34 95 -4 177 25 68 135 191 182 203 16 4 38 15 49 26 22 20 30 19 66 -13z
m-138 13 c0 -5 -2 -10 -4 -10 -3 0 -8 5 -11 10 -3 6 -1 10 4 10 6 0 11 -4 11
-10z"/>
<path d="M1698 7436 c-15 -6 -37 -21 -50 -31 -13 -11 -35 -28 -50 -37 -15 -10
-43 -42 -63 -72 -30 -45 -37 -67 -42 -124 -4 -47 -2 -71 6 -76 6 -4 11 -22 11
-41 0 -36 35 -99 60 -109 8 -4 26 -13 40 -21 14 -8 37 -15 51 -15 19 0 28 -6
32 -21 5 -17 11 -20 31 -15 14 3 27 2 30 -3 8 -12 107 -11 174 1 34 6 56 16
62 29 6 10 18 19 28 19 9 0 49 30 89 68 61 57 74 75 84 117 24 97 11 193 -28
218 -7 4 -13 14 -13 20 0 20 -37 47 -106 78 -58 26 -69 27 -112 18 -94 -21
-108 -21 -121 -5 -16 19 -73 20 -113 2z m42 -59 c0 -7 -6 -19 -12 -26 -11 -10
-9 -15 6 -27 25 -18 40 -18 56 1 7 8 20 15 30 15 10 0 33 7 52 15 27 11 38 11
47 2 9 -9 14 -9 20 2 6 8 14 10 22 5 8 -4 27 -7 43 -5 66 7 149 -146 117 -216
-6 -14 -9 -28 -6 -33 10 -16 -46 -105 -79 -127 -19 -12 -58 -29 -88 -38 -29
-9 -61 -21 -70 -25 -24 -13 -129 8 -154 31 -11 10 -30 19 -42 19 -12 0 -32 12
-45 26 -12 15 -29 34 -38 43 -27 28 -42 94 -35 155 7 54 12 61 78 126 67 67
98 85 98 57z"/>
<path d="M5283 7237 c-9 -20 -17 -23 -48 -19 -25 3 -40 0 -46 -9 -7 -11 -12
-12 -29 -1 -17 10 -24 10 -45 -4 -26 -17 -34 -43 -12 -45 39 -3 83 4 92 15 6
7 32 13 60 15 56 2 63 6 67 41 4 33 -25 38 -39 7z"/>
<path d="M3233 7167 c-52 -59 -82 -276 -55 -392 34 -144 50 -175 89 -175 15 0
18 61 4 88 -17 31 -31 110 -31 176 0 72 16 140 55 233 20 50 23 67 15 83 -16
29 -44 24 -77 -13z"/>
<path d="M2902 7178 c-178 -25 -306 -153 -273 -274 13 -47 44 -80 86 -90 17
-4 33 -11 36 -17 4 -5 26 -9 50 -9 23 1 48 -2 53 -6 10 -6 44 -10 110 -13 20
-1 37 6 50 22 15 17 29 23 49 21 18 -2 27 1 27 10 0 16 -61 18 -93 4 -10 -5
-43 -5 -75 -2 -31 4 -72 8 -91 10 -18 1 -38 10 -43 19 -5 10 -15 17 -22 17 -7
0 -24 13 -39 28 -29 30 -35 68 -16 105 15 28 70 77 87 77 7 0 23 5 35 12 12 7
29 14 37 16 29 7 185 9 195 2 15 -11 95 -19 95 -11 0 4 -17 22 -38 39 -35 27
-56 34 -137 46 -11 2 -48 -1 -83 -6z"/>
<path d="M5027 7176 c-4 -9 2 -17 15 -21 23 -8 44 8 34 24 -10 16 -43 13 -49
-3z"/>
<path d="M3580 7083 c-57 -52 -94 -217 -71 -322 14 -67 63 -170 93 -197 12
-12 37 -25 55 -29 42 -9 103 4 103 21 0 8 7 14 15 14 11 0 89 38 138 67 12 7
-13 33 -32 33 -9 0 -32 -11 -52 -24 -35 -24 -100 -43 -129 -37 -26 5 -72 54
-92 98 -41 92 -28 250 26 314 28 33 33 58 14 77 -18 18 -35 15 -68 -15z"/>
<path d="M8691 7073 c-8 -20 -11 -153 -10 -433 0 -223 -2 -434 -6 -470 -4 -36
-9 -83 -10 -105 -2 -22 -8 -71 -14 -110 -7 -38 -14 -88 -17 -110 -3 -21 -8
-43 -10 -47 -3 -4 -1 -8 5 -8 19 0 51 53 51 86 0 18 5 45 11 61 21 52 42 162
55 283 9 94 11 844 2 863 -13 26 -44 21 -57 -10z"/>
<path d="M4124 6880 c-23 -9 -74 -72 -74 -92 0 -8 5 -19 12 -26 9 -9 7 -17 -9
-34 -40 -44 -55 -89 -58 -171 -4 -121 29 -169 114 -171 27 -1 52 -4 56 -7 3
-4 27 -4 53 -2 65 7 118 60 138 139 9 31 13 62 11 68 -3 7 -1 32 3 56 8 43 2
74 -26 137 -15 34 -67 83 -89 83 -7 0 -18 7 -25 15 -13 16 -72 19 -106 5z m96
-63 c8 -7 21 -24 27 -39 7 -16 17 -28 22 -28 5 0 20 -19 34 -42 21 -36 24 -53
21 -110 -5 -110 -42 -152 -136 -157 -57 -3 -80 8 -108 55 -18 29 -22 45 -17
84 6 53 38 125 59 133 8 2 26 30 41 61 29 59 33 62 57 43z"/>
<path d="M11775 6812 c-12 -1 -34 -13 -49 -26 -24 -18 -28 -28 -22 -49 11 -44
86 -51 86 -7 0 28 63 53 115 46 22 -3 67 -9 101 -13 54 -8 134 -45 134 -64 0
-3 11 -19 25 -35 14 -16 33 -51 42 -79 20 -60 21 -192 2 -238 -21 -52 -92
-113 -176 -152 -43 -19 -86 -40 -96 -46 -55 -31 -271 -48 -342 -27 -42 13 -43
14 -88 50 -41 34 -48 111 -17 170 13 24 30 55 37 71 8 15 18 27 22 27 4 0 23
15 43 33 73 64 90 76 189 123 132 64 219 58 293 -21 35 -36 79 -47 89 -21 15
40 -99 120 -188 132 -142 20 -333 -64 -469 -206 -94 -99 -121 -152 -112 -227
10 -82 49 -123 165 -172 48 -20 67 -22 190 -20 75 2 147 6 161 10 193 59 332
146 384 239 22 39 34 154 17 165 -6 3 -11 18 -11 33 0 15 -7 40 -15 56 -8 15
-15 35 -15 43 0 8 -9 17 -20 20 -13 3 -20 14 -20 28 0 80 -197 170 -358 163
-42 -1 -86 -4 -97 -6z"/>
<path d="M4531 6716 c-91 -33 -101 -164 -19 -255 37 -42 71 -53 82 -26 8 22
-3 45 -46 94 -21 24 -38 50 -38 57 0 19 56 71 83 76 18 3 43 -8 88 -38 35 -24
71 -44 80 -44 15 0 28 26 29 56 0 17 -75 64 -128 80 -56 16 -86 17 -131 0z"/>
<path d="M5897 6646 c-16 -16 -34 -134 -37 -229 0 -32 -6 -71 -11 -85 -6 -15
-11 -58 -11 -97 0 -40 -5 -77 -13 -88 -7 -10 -10 -27 -8 -38 10 -38 -26 -8
-68 57 -23 35 -45 64 -48 64 -4 0 -18 21 -31 47 -14 26 -50 73 -81 104 -91 92
-146 110 -190 63 -19 -20 -24 -35 -22 -70 1 -25 9 -56 17 -69 9 -13 16 -32 16
-41 0 -14 40 -77 60 -94 3 -3 13 -17 23 -33 17 -26 87 -77 106 -77 20 0 -15
73 -46 97 -18 14 -33 30 -33 35 0 5 -15 33 -34 61 -39 59 -53 101 -37 112 6 3
25 7 42 7 25 1 41 -11 94 -68 35 -38 64 -75 65 -83 0 -8 10 -28 23 -45 12 -17
35 -56 51 -86 44 -87 88 -119 116 -85 18 22 30 97 18 112 -7 9 -5 17 6 28 9 9
16 31 16 49 0 19 7 52 15 75 8 23 17 65 21 94 4 29 17 93 30 142 28 106 29
119 8 139 -19 20 -38 20 -57 2z"/>
<path d="M17020 6620 c0 -5 5 -10 11 -10 5 0 7 5 4 10 -3 6 -8 10 -11 10 -2 0
-4 -4 -4 -10z"/>
<path d="M4831 6507 c-109 -58 -146 -135 -105 -219 23 -48 54 -66 126 -74 59
-6 66 -4 94 19 21 18 45 27 74 29 l44 3 2 -40 c2 -22 8 -49 13 -60 10 -21 24
-72 26 -91 0 -14 60 -74 73 -74 5 0 15 -7 22 -15 24 -29 54 -15 64 31 6 29 4
32 -21 39 -15 3 -39 16 -51 28 -43 40 -51 76 -45 204 5 141 5 152 -1 179 -8
31 -96 65 -181 71 -65 4 -75 2 -134 -30z m190 -43 c6 -8 17 -14 24 -14 36 0
11 -119 -31 -146 -28 -19 -127 -29 -178 -20 -47 9 -66 53 -43 101 30 62 195
119 228 79z"/>
<path d="M10810 6492 c-21 -7 -30 -23 -30 -57 -1 -16 -7 -48 -15 -70 -8 -22
-24 -107 -35 -189 -32 -238 -26 -310 28 -304 26 3 27 6 29 58 2 67 35 289 63
423 14 68 17 104 10 117 -11 21 -29 29 -50 22z"/>
<path d="M10391 6476 c-19 -23 -72 -389 -75 -516 -1 -81 13 -110 54 -110 35 0
53 59 26 89 -15 17 -15 22 20 231 8 52 22 125 30 161 19 89 18 123 -4 142 -23
21 -36 21 -51 3z"/>
<path d="M14465 6399 c-9 -13 -2 -19 64 -62 35 -23 37 -26 64 -89 32 -73 30
-441 -2 -628 -5 -30 -7 -88 -4 -127 5 -62 9 -73 24 -73 32 0 40 25 78 265 36
228 39 387 10 513 -19 85 -54 142 -108 178 -46 30 -114 43 -126 23z"/>
<path d="M6037 6313 c-35 -9 -14 -38 30 -43 33 -4 53 -15 93 -52 27 -27 54
-48 60 -48 5 0 10 -10 10 -23 0 -12 7 -33 16 -45 8 -12 12 -22 8 -22 -3 0 -2
-6 3 -12 5 -7 10 -41 12 -74 2 -56 0 -63 -25 -83 -34 -27 -46 -26 -108 3 -58
28 -156 131 -156 165 0 15 9 23 32 29 65 17 63 74 -4 80 -26 2 -43 -4 -67 -23
-40 -35 -41 -74 -3 -124 16 -20 32 -51 35 -69 8 -37 49 -78 90 -87 15 -4 27
-12 27 -20 0 -24 31 -39 81 -38 27 0 56 6 64 13 8 6 18 9 24 6 5 -4 12 3 16
14 3 11 13 20 20 20 18 0 43 47 51 96 6 40 -9 95 -48 184 -34 77 -67 103 -178
141 -30 10 -57 18 -60 18 -3 -1 -13 -3 -23 -6z"/>
<path d="M11030 6300 c-10 -6 -19 -39 -26 -92 -14 -100 -56 -328 -78 -420 -8
-37 -13 -82 -10 -100 8 -42 30 -78 49 -78 19 0 35 32 28 58 -3 11 9 76 25 144
17 68 38 168 47 223 9 55 20 120 25 145 6 25 7 58 2 74 -10 36 -41 59 -62 46z"/>
<path d="M5950 6285 c0 -9 5 -15 11 -13 6 2 11 8 11 13 0 5 -5 11 -11 13 -6 2
-11 -4 -11 -13z"/>
<path d="M7753 6000 c-28 -11 -57 -55 -49 -75 5 -13 21 -15 83 -13 l78 3 3 31
c3 28 -1 32 -40 47 -49 19 -45 19 -75 7z"/>
<path d="M11302 5968 c-7 -7 -12 -18 -12 -26 0 -8 -21 -33 -46 -55 -54 -47
-89 -100 -121 -181 -29 -74 -29 -128 -2 -172 22 -36 76 -80 86 -70 3 3 12 1
20 -6 13 -11 54 -3 121 23 13 5 35 9 50 9 36 0 116 76 132 126 22 65 4 143
-54 241 -23 40 -50 65 -101 94 -57 33 -57 33 -73 17z m114 -141 c23 -20 28
-34 32 -84 7 -106 -36 -160 -157 -194 -53 -15 -75 -17 -96 -9 -26 10 -27 13
-21 56 6 45 35 121 55 146 55 68 78 89 105 97 47 14 53 13 82 -12z"/>
<path d="M1910 5890 c0 -5 5 -10 10 -10 6 0 10 5 10 10 0 6 -4 10 -10 10 -5 0
-10 -4 -10 -10z"/>
<path d="M11941 5808 c-15 -35 -36 -85 -46 -113 -10 -27 -24 -57 -31 -65 -7
-8 -16 -33 -20 -54 l-7 -39 29 7 c16 4 37 8 47 10 9 1 37 16 61 33 24 17 47
29 50 26 3 -4 6 -39 6 -79 0 -67 2 -75 24 -89 14 -9 37 -15 53 -13 25 3 28 7
25 33 -18 196 -29 228 -82 240 -30 7 -70 -8 -70 -25 0 -6 -7 -10 -15 -10 -24
0 -17 25 19 69 55 66 57 131 4 131 -14 0 -27 -17 -47 -62z"/>
<path d="M7726 5761 c-25 -28 -30 -113 -11 -211 15 -79 29 -179 41 -308 8 -79
55 -110 90 -58 13 22 14 33 3 83 -6 32 -13 96 -15 143 -1 47 -7 106 -12 132
-5 26 -8 81 -7 123 2 66 -1 80 -18 96 -26 24 -49 24 -71 0z"/>
<path d="M8150 5626 c-72 -37 -104 -59 -146 -97 -52 -48 -65 -72 -71 -133 -8
-78 10 -128 70 -191 45 -48 60 -57 117 -71 68 -18 188 -22 228 -10 45 15 16
31 -64 37 -45 3 -93 12 -111 22 -18 9 -38 17 -46 17 -30 0 -85 76 -97 134 -10
49 -9 60 8 100 22 48 23 49 151 116 54 28 87 52 89 64 8 41 -59 48 -128 12z"/>
<path d="M12314 5613 c-26 -5 -73 -53 -78 -79 -2 -10 -6 -25 -8 -33 -3 -13 26
-34 65 -45 12 -4 17 -16 17 -44 0 -46 18 -65 57 -60 l28 3 -1 85 c-1 108 -9
152 -31 168 -9 6 -19 11 -22 11 -3 -1 -16 -4 -27 -6z"/>
<path d="M12587 5578 c-15 -23 -15 -23 -46 -5 -17 10 -35 16 -40 13 -9 -6 -17
-45 -26 -126 -3 -25 -6 -54 -8 -65 -1 -15 5 -21 25 -23 26 -3 37 5 72 53 11
16 17 17 29 7 35 -29 107 47 78 82 -7 8 -9 25 -5 41 12 46 -51 64 -79 23z"/>
<path d="M12744 5578 c-19 -23 -44 -64 -44 -72 0 -3 10 -6 23 -8 20 -3 22 -9
23 -68 1 -85 1 -87 20 -94 35 -13 51 10 59 86 11 109 8 151 -12 166 -25 18
-47 15 -69 -10z"/>
<path d="M380 5545 c0 -8 5 -15 10 -15 6 0 10 7 10 15 0 8 -4 15 -10 15 -5 0
-10 -7 -10 -15z"/>
<path d="M8710 5525 c-72 -15 -129 -45 -168 -89 -35 -40 -48 -77 -67 -186 -12
-73 -12 -77 16 -153 53 -146 135 -212 289 -232 46 -6 140 21 140 40 0 11 -15
14 -67 14 -80 -2 -166 23 -204 58 -41 38 -81 122 -77 163 3 31 7 35 33 38 17
2 35 8 40 12 6 5 33 16 60 25 28 10 62 29 77 43 15 15 35 34 43 42 24 22 60
81 73 119 14 39 1 64 -43 87 -50 26 -88 31 -145 19z m88 -109 c2 -19 -9 -39
-45 -77 -47 -51 -98 -80 -160 -92 -35 -7 -53 7 -34 26 6 6 11 20 12 32 0 11
13 43 27 70 22 40 38 56 81 77 l54 28 31 -20 c19 -11 32 -29 34 -44z"/>
<path d="M10350 5509 c-13 -6 -27 -13 -30 -17 -3 -4 -20 -18 -38 -30 l-34 -24
-14 21 c-27 37 -50 43 -102 26 -70 -24 -165 -102 -227 -188 -19 -26 -35 -51
-35 -55 0 -5 -13 -21 -29 -36 -40 -39 -54 -27 -49 42 4 48 9 59 39 82 29 24
31 30 20 44 -20 23 -59 20 -98 -10 -47 -36 -63 -73 -63 -147 0 -77 24 -111 87
-121 33 -6 46 -3 82 21 24 15 52 45 63 67 34 66 183 236 208 236 15 0 65 -97
66 -129 2 -47 26 -133 48 -165 9 -14 43 -39 76 -56 63 -32 118 -38 166 -20 23
9 25 13 13 24 -8 7 -40 18 -71 25 -44 9 -64 20 -87 46 -40 46 -49 98 -26 142
14 26 16 36 7 45 -22 22 -14 65 17 87 36 26 53 26 76 1 17 -18 16 -21 -5 -65
-12 -25 -20 -48 -17 -51 3 -3 19 -3 36 1 44 9 86 67 86 117 0 73 -86 118 -165
87z"/>
<path d="M9320 5492 c-94 -45 -130 -96 -130 -184 0 -51 5 -69 31 -110 39 -61
129 -143 171 -157 55 -17 181 -29 231 -21 54 8 73 21 64 44 -5 13 -20 15 -82
11 -45 -3 -93 -1 -118 7 -62 17 -134 72 -147 113 -6 18 -18 39 -26 45 -21 18
-18 108 5 146 10 17 33 36 50 42 17 7 45 17 62 23 22 9 29 17 27 33 -3 18 -11
21 -53 23 -30 1 -64 -5 -85 -15z"/>
<path d="M12922 5501 c-8 -4 -16 -28 -19 -52 -2 -24 -8 -53 -13 -64 -5 -11
-11 -35 -14 -52 -4 -26 -1 -35 16 -44 18 -10 24 -8 40 12 10 13 21 34 24 47 4
13 11 21 18 19 10 -4 12 -27 4 -72 -4 -24 31 -28 42 -5 4 8 12 24 17 35 23 45
37 134 25 160 -14 30 -26 31 -52 5 -25 -25 -29 -25 -55 0 -12 12 -25 16 -33
11z"/>
<path d="M13157 5452 c-10 -10 -17 -23 -17 -29 0 -6 -10 -18 -22 -26 -23 -15
-23 -15 -2 -10 41 9 51 -47 25 -139 -19 -66 -15 -100 13 -111 31 -12 48 4 44
41 -3 20 6 76 19 126 26 103 28 137 11 154 -18 18 -53 15 -71 -6z"/>
<path d="M10661 5425 c-58 -26 -131 -116 -131 -163 0 -39 22 -71 57 -83 44
-14 123 -4 123 17 0 8 -6 14 -13 14 -18 0 -57 42 -57 62 0 9 7 32 15 52 18 42
46 47 85 15 24 -20 24 -21 8 -65 -13 -37 -13 -45 -2 -55 8 -6 23 -32 35 -58
30 -68 55 -91 101 -91 43 0 89 36 108 85 15 39 6 43 -45 15 -28 -16 -48 -21
-54 -15 -15 16 -31 110 -25 147 5 29 1 39 -29 71 -36 36 -94 67 -126 67 -9 -1
-31 -7 -50 -15z"/>
<path d="M13382 5398 c-25 -12 -74 -80 -96 -132 -30 -72 -5 -197 42 -213 9 -3
31 -11 47 -18 77 -31 95 -36 112 -31 10 4 38 39 63 78 58 92 98 123 194 153
92 28 120 49 105 76 -13 24 -30 24 -62 -1 -14 -11 -34 -20 -45 -20 -12 0 -24
-4 -27 -10 -3 -5 -12 -10 -19 -10 -13 0 -77 -28 -124 -55 -26 -14 -92 -101
-92 -121 0 -6 -9 -22 -19 -35 l-19 -24 -24 21 c-12 11 -35 25 -51 32 -46 19
-61 83 -29 122 16 20 21 21 40 9 17 -11 24 -11 34 -1 6 6 22 12 35 12 34 0 57
42 50 92 -9 65 -63 101 -115 76z m58 -85 c0 -8 -7 -27 -15 -43 -13 -25 -22
-30 -50 -30 -27 0 -35 4 -35 18 0 22 16 43 49 65 26 17 51 13 51 -10z"/>
<path d="M11064 5390 c-43 -17 -54 -48 -54 -152 0 -114 9 -130 68 -122 72 10
82 15 138 69 31 30 59 53 64 50 4 -3 13 -29 20 -57 7 -29 18 -63 26 -74 15
-26 112 -59 148 -52 14 3 49 0 78 -7 50 -11 53 -13 55 -43 1 -34 41 -76 81
-87 32 -8 76 16 80 42 3 17 -3 24 -25 29 -15 4 -46 23 -68 44 -67 62 -84 70
-151 70 -46 0 -65 4 -77 18 -10 10 -17 23 -17 29 0 5 -8 25 -17 44 -9 18 -16
49 -15 69 2 28 -4 42 -29 68 -17 18 -41 32 -52 32 -24 0 -95 -73 -99 -103 -2
-11 -24 -36 -51 -54 -59 -42 -64 -33 -47 76 16 107 2 135 -56 111z"/>
<path d="M14476 5341 c-3 -4 -10 -41 -17 -81 -6 -40 -19 -98 -30 -129 -10 -31
-24 -107 -31 -169 -10 -100 -10 -116 5 -147 20 -42 57 -48 81 -13 21 30 20 51
-4 73 -25 23 -20 81 22 250 21 84 28 132 23 160 -8 52 -33 82 -49 56z"/>
<path d="M15048 5223 c-9 -10 -20 -28 -26 -39 -20 -38 -53 -254 -58 -381 -5
-104 -3 -128 10 -148 22 -33 54 -32 67 1 7 21 6 32 -7 52 -13 20 -15 38 -10
89 6 60 41 247 68 360 9 41 9 55 -1 67 -17 20 -24 20 -43 -1z"/>
<path d="M14701 5213 c-13 -26 -29 -140 -37 -271 -5 -94 -4 -120 11 -157 13
-36 21 -45 41 -45 34 0 45 34 28 83 -15 42 -12 118 10 265 17 111 12 142 -20
142 -13 0 -27 -8 -33 -17z"/>
<path d="M15216 5213 c-16 -56 -30 -218 -30 -353 0 -140 2 -159 22 -197 25
-48 34 -55 56 -47 20 8 20 31 0 80 -23 54 -20 200 6 358 20 117 20 129 5 152
-18 28 -51 32 -59 7z"/>
<path d="M4010 5184 c0 -8 5 -12 10 -9 6 4 8 11 5 16 -9 14 -15 11 -15 -7z"/>
<path d="M15748 5119 c-22 -12 -23 -52 -2 -70 22 -18 155 -24 166 -7 13 22 9
38 -17 63 -20 20 -34 25 -77 25 -29 0 -61 -5 -70 -11z"/>
<path d="M370 4949 c0 -5 5 -7 10 -4 6 3 10 8 10 11 0 2 -4 4 -10 4 -5 0 -10
-5 -10 -11z"/>
<path d="M16341 4820 c-28 -22 -51 -48 -51 -58 0 -24 47 -44 72 -31 26 14 34
4 20 -24 -20 -42 -44 -234 -33 -273 15 -58 68 -55 114 8 17 23 18 29 7 44 -8
9 -24 20 -36 24 -21 8 -21 9 -6 96 14 80 14 89 -1 116 -16 27 -15 30 3 48 16
16 18 24 9 47 -10 26 -25 42 -41 43 -3 0 -29 -18 -57 -40z"/>
<path d="M15980 4795 c-9 -10 -13 -53 -14 -128 -1 -136 11 -170 63 -175 18 -2
38 1 44 7 6 6 19 11 29 11 9 0 22 9 28 20 6 11 20 20 32 20 26 0 78 47 78 71
0 9 -8 20 -17 24 -16 6 -16 8 5 25 16 13 19 21 10 26 -6 4 -14 2 -16 -4 -2 -7
-8 -12 -13 -12 -5 0 -27 -18 -49 -40 -26 -26 -37 -45 -33 -56 5 -14 1 -15 -28
-9 -71 15 -73 18 -65 112 6 86 -2 123 -28 123 -8 0 -19 -7 -26 -15z"/>
<path d="M1226 4791 c-4 -7 -5 -15 -2 -18 9 -9 19 4 14 18 -4 11 -6 11 -12 0z"/>
<path d="M15821 4753 c-20 -76 -63 -217 -71 -228 -4 -5 -11 -21 -15 -35 -16
-55 -127 -266 -151 -288 -21 -18 -33 -21 -60 -16 -32 6 -34 5 -34 -22 1 -16
11 -42 24 -57 l23 -29 42 26 c23 15 45 34 48 44 4 9 23 41 44 72 34 51 95 167
132 250 24 54 47 117 70 201 17 63 19 81 9 103 -19 43 -47 34 -61 -21z"/>
<path d="M16565 4668 c-31 -18 -34 -28 -18 -75 8 -24 13 -60 11 -81 -10 -81
30 -135 72 -97 16 14 18 30 15 126 -4 135 -21 161 -80 127z"/>
<path d="M16765 4646 c-15 -11 -17 -20 -10 -52 4 -21 9 -61 10 -89 3 -97 5
-103 25 -110 41 -13 82 35 62 72 -7 11 -7 26 0 42 13 35 12 104 -2 130 -13 24
-56 28 -85 7z"/>
<path d="M17162 4645 c-12 -9 -36 -21 -54 -27 -49 -16 -68 -37 -68 -75 0 -18
4 -33 9 -33 22 0 41 13 41 29 0 9 12 29 26 45 23 27 28 28 79 21 30 -3 55 -10
55 -15 0 -21 -75 -158 -103 -187 -40 -43 -54 -41 -62 7 -4 22 -11 43 -17 46
-17 11 -49 -38 -43 -64 3 -12 0 -32 -6 -43 -12 -24 4 -74 29 -88 21 -12 83 4
102 27 148 185 186 260 160 321 -20 49 -101 68 -148 36z"/>
<path d="M17451 4546 c-18 -21 -5 -136 15 -136 8 0 23 -8 35 -17 49 -40 60
-54 54 -73 -4 -13 1 -22 15 -30 11 -6 20 -16 20 -23 0 -7 14 -32 30 -56 36
-53 37 -74 8 -118 -30 -43 -69 -57 -119 -41 -34 10 -42 9 -59 -7 -22 -20 -27
-60 -7 -72 20 -13 81 -33 101 -33 33 0 110 49 134 86 15 23 25 57 29 99 5 55
3 68 -18 102 -25 41 -125 143 -140 143 -5 0 -9 8 -9 18 0 10 -9 26 -21 35 -56
48 29 53 101 7 25 -16 64 -39 87 -52 41 -21 43 -21 63 -3 25 22 26 59 2 83
-10 10 -49 28 -87 41 -39 13 -77 30 -86 37 -8 8 -42 17 -75 20 -48 5 -62 3
-73 -10z"/>
<path d="M16970 4294 c0 -9 5 -14 12 -12 18 6 21 28 4 28 -9 0 -16 -7 -16 -16z"/>
<path d="M260 4280 c0 -5 5 -10 10 -10 6 0 10 5 10 10 0 6 -4 10 -10 10 -5 0
-10 -4 -10 -10z"/>
<path d="M16933 4235 c-18 -18 -33 -36 -33 -41 0 -4 -15 -24 -34 -44 -30 -31
-34 -43 -38 -98 -5 -76 7 -92 46 -61 14 11 26 25 26 31 0 6 6 19 13 27 14 17
67 172 67 196 0 26 -15 23 -47 -10z"/>
<path d="M8791 4201 c-7 -12 -7 -59 -2 -132 5 -63 7 -117 4 -121 -2 -4 -6 -76
-9 -160 -3 -84 -10 -196 -15 -248 -6 -52 -11 -131 -12 -175 -2 -78 -2 -80 27
-93 25 -12 30 -12 44 2 13 13 14 21 5 48 -11 31 -10 102 1 178 3 19 8 58 10
87 9 104 19 168 28 180 6 7 11 99 12 212 l1 199 -25 20 c-31 27 -56 28 -69 3z"/>
<path d="M8450 4155 c-7 -8 -12 -25 -12 -37 0 -13 1 -61 1 -108 1 -86 -10
-211 -30 -330 -18 -114 -21 -167 -10 -189 7 -12 8 -21 3 -21 -5 0 -13 -15 -17
-32 -10 -43 -14 -118 -6 -118 12 1 51 72 45 81 -3 6 0 16 6 24 7 8 9 15 6 15
-4 0 -2 9 4 20 6 12 16 62 21 112 6 49 15 102 21 117 16 39 29 90 38 146 4 28
13 79 19 115 15 91 6 150 -31 189 -33 35 -40 37 -58 16z"/>
<path d="M720 4009 c0 -5 5 -7 10 -4 6 3 10 8 10 11 0 2 -4 4 -10 4 -5 0 -10
-5 -10 -11z"/>
<path d="M9992 3968 c-5 -7 -12 -26 -15 -43 -10 -54 -19 -296 -19 -548 0 -204
2 -251 15 -270 8 -12 19 -18 23 -14 10 10 22 116 30 257 5 107 7 127 24 285 5
50 12 133 16 186 6 91 5 98 -17 128 -24 33 -40 39 -57 19z"/>
<path d="M9312 3933 c-12 -2 -29 -15 -38 -28 -8 -12 -28 -25 -43 -28 -19 -4
-36 -19 -51 -44 -13 -21 -33 -49 -44 -63 -27 -32 -46 -66 -46 -83 0 -7 -10
-30 -22 -52 -19 -33 -23 -56 -23 -130 0 -111 24 -173 79 -199 31 -15 66 -21
66 -12 0 2 -18 31 -40 64 -52 78 -54 133 -9 242 37 87 56 115 127 185 46 46
59 53 103 58 161 19 199 -33 160 -220 -11 -51 -27 -100 -35 -109 -9 -8 -16
-23 -16 -33 0 -10 -9 -26 -20 -36 -11 -10 -20 -26 -20 -35 0 -18 -40 -60 -58
-60 -6 0 -31 -13 -55 -30 -29 -20 -57 -30 -81 -30 -40 0 -47 -17 -18 -42 15
-13 25 -14 77 -3 106 22 201 106 251 223 14 31 29 65 34 74 11 20 28 127 29
182 0 21 3 41 5 44 6 6 -31 81 -53 106 -35 39 -91 59 -153 52 -33 -3 -60 -2
-63 4 -3 6 -9 9 -13 9 -4 -1 -17 -4 -30 -6z"/>
<path d="M176 3882 c-3 -6 -1 -14 5 -17 15 -10 25 3 12 16 -7 7 -13 7 -17 1z"/>
<path d="M8370 3284 c0 -14 4 -23 10 -19 6 3 10 15 10 26 0 10 -4 19 -10 19
-5 0 -10 -12 -10 -26z"/>
<path d="M2170 3260 c0 -5 7 -10 16 -10 8 0 12 5 9 10 -3 6 -10 10 -16 10 -5
0 -9 -4 -9 -10z"/>
<path d="M8400 3260 c0 -5 5 -10 10 -10 6 0 10 5 10 10 0 6 -4 10 -10 10 -5 0
-10 -4 -10 -10z"/>
<path d="M8370 3188 c-23 -38 -36 -106 -22 -120 5 -5 25 -8 43 -6 33 3 34 5
40 53 6 50 -10 105 -31 105 -6 0 -19 -14 -30 -32z"/>
<path d="M1110 3130 c0 -5 5 -10 10 -10 6 0 10 5 10 10 0 6 -4 10 -10 10 -5 0
-10 -4 -10 -10z"/>
<path d="M460 3090 c-12 -8 -11 -10 8 -10 12 0 22 5 22 10 0 13 -11 13 -30 0z"/>
<path d="M9990 3065 c0 -8 4 -15 10 -15 5 0 7 7 4 15 -4 8 -8 15 -10 15 -2 0
-4 -7 -4 -15z"/>
<path d="M32185 3050 c3 -5 8 -10 11 -10 2 0 4 5 4 10 0 6 -5 10 -11 10 -5 0
-7 -4 -4 -10z"/>
<path d="M2655 3040 c3 -5 8 -10 11 -10 2 0 4 5 4 10 0 6 -5 10 -11 10 -5 0
-7 -4 -4 -10z"/>
<path d="M9984 2985 c-6 -41 -1 -66 10 -54 10 11 16 99 7 99 -5 0 -13 -20 -17
-45z"/>
<path d="M2190 2751 c0 -5 5 -13 10 -16 6 -3 10 -2 10 4 0 5 -4 13 -10 16 -5
3 -10 2 -10 -4z"/>
<path d="M565 2641 c-3 -5 -1 -12 5 -16 5 -3 10 1 10 9 0 18 -6 21 -15 7z"/>
<path d="M12230 2610 c0 -5 7 -10 15 -10 8 0 15 5 15 10 0 6 -7 10 -15 10 -8
0 -15 -4 -15 -10z"/>
<path d="M790 2580 c0 -5 5 -10 11 -10 5 0 7 5 4 10 -3 6 -8 10 -11 10 -2 0
-4 -4 -4 -10z"/>
<path d="M31260 2520 c0 -5 5 -10 10 -10 6 0 10 5 10 10 0 6 -4 10 -10 10 -5
0 -10 -4 -10 -10z"/>
<path d="M240 2320 c0 -5 5 -10 11 -10 5 0 7 5 4 10 -3 6 -8 10 -11 10 -2 0
-4 -4 -4 -10z"/>
<path d="M2320 2130 c0 -5 5 -10 10 -10 6 0 10 5 10 10 0 6 -4 10 -10 10 -5 0
-10 -4 -10 -10z"/>
<path d="M280 2090 c0 -5 5 -10 10 -10 6 0 10 5 10 10 0 6 -4 10 -10 10 -5 0
-10 -4 -10 -10z"/>
<path d="M1355 2060 c-3 -5 -1 -10 4 -10 6 0 11 5 11 10 0 6 -2 10 -4 10 -3 0
-8 -4 -11 -10z"/>
<path d="M6473 2044 c-7 -19 13 -34 45 -34 24 0 29 12 10 27 -26 20 -49 23
-55 7z"/>
<path d="M31685 1950 c-8 -12 20 -24 35 -15 5 3 10 10 10 16 0 12 -37 12 -45
-1z"/>
<path d="M1060 1880 c0 -5 5 -10 11 -10 5 0 7 5 4 10 -3 6 -8 10 -11 10 -2 0
-4 -4 -4 -10z"/>
<path d="M2810 1785 c0 -9 5 -15 11 -13 6 2 11 8 11 13 0 5 -5 11 -11 13 -6 2
-11 -4 -11 -13z"/>
<path d="M1470 1720 c0 -5 5 -10 11 -10 5 0 7 5 4 10 -3 6 -8 10 -11 10 -2 0
-4 -4 -4 -10z"/>
<path d="M625 1660 c-3 -5 -1 -10 4 -10 6 0 11 5 11 10 0 6 -2 10 -4 10 -3 0
-8 -4 -11 -10z"/>
<path d="M250 1645 c0 -8 5 -15 10 -15 6 0 10 7 10 15 0 8 -4 15 -10 15 -5 0
-10 -7 -10 -15z"/>
<path d="M30190 1619 c0 -5 5 -7 10 -4 6 3 10 8 10 11 0 2 -4 4 -10 4 -5 0
-10 -5 -10 -11z"/>
<path d="M540 1569 c0 -5 5 -7 10 -4 6 3 10 8 10 11 0 2 -4 4 -10 4 -5 0 -10
-5 -10 -11z"/>
<path d="M400 1390 c0 -5 5 -10 10 -10 6 0 10 5 10 10 0 6 -4 10 -10 10 -5 0
-10 -4 -10 -10z"/>
<path d="M32020 1280 c0 -5 5 -10 10 -10 6 0 10 5 10 10 0 6 -4 10 -10 10 -5
0 -10 -4 -10 -10z"/>
<path d="M950 1190 c0 -5 5 -10 10 -10 6 0 10 5 10 10 0 6 -4 10 -10 10 -5 0
-10 -4 -10 -10z"/>
<path d="M9095 1150 c-9 -15 16 -43 27 -32 10 10 0 42 -12 42 -5 0 -12 -5 -15
-10z"/>
<path d="M2690 1050 c0 -5 7 -10 16 -10 8 0 12 5 9 10 -3 6 -10 10 -16 10 -5
0 -9 -4 -9 -10z"/>
<path d="M31410 1050 c0 -5 5 -10 10 -10 6 0 10 5 10 10 0 6 -4 10 -10 10 -5
0 -10 -4 -10 -10z"/>
<path d="M2206 1031 c-4 -7 -5 -15 -2 -18 9 -9 19 4 14 18 -4 11 -6 11 -12 0z"/>
<path d="M15755 860 c3 -5 8 -10 11 -10 2 0 4 5 4 10 0 6 -5 10 -11 10 -5 0
-7 -4 -4 -10z"/>
<path d="M3150 820 c0 -5 5 -10 10 -10 6 0 10 5 10 10 0 6 -4 10 -10 10 -5 0
-10 -4 -10 -10z"/>
<path d="M450 810 c0 -5 5 -10 10 -10 6 0 10 5 10 10 0 6 -4 10 -10 10 -5 0
-10 -4 -10 -10z"/>
<path d="M18760 702 c0 -14 11 -21 26 -15 8 3 11 9 8 14 -7 11 -34 12 -34 1z"/>
<path d="M30110 699 c0 -5 5 -7 10 -4 6 3 10 8 10 11 0 2 -4 4 -10 4 -5 0 -10
-5 -10 -11z"/>
<path d="M5265 650 c3 -5 8 -10 11 -10 2 0 4 5 4 10 0 6 -5 10 -11 10 -5 0 -7
-4 -4 -10z"/>
<path d="M1140 625 c0 -8 5 -15 10 -15 6 0 10 7 10 15 0 8 -4 15 -10 15 -5 0
-10 -7 -10 -15z"/>
<path d="M4505 569 c-10 -15 3 -25 16 -12 7 7 7 13 1 17 -6 3 -14 1 -17 -5z"/>
<path d="M5977 573 c-12 -11 -8 -23 8 -23 8 0 15 7 15 15 0 16 -12 20 -23 8z"/>
<path d="M6100 500 c0 -5 5 -10 10 -10 6 0 10 5 10 10 0 6 -4 10 -10 10 -5 0
-10 -4 -10 -10z"/>
<path d="M6140 470 c-7 -12 -9 -33 -6 -46 9 -36 63 -34 77 3 11 30 0 46 -38
57 -16 5 -25 1 -33 -14z"/>
<path d="M280 460 c0 -5 5 -10 11 -10 5 0 7 5 4 10 -3 6 -8 10 -11 10 -2 0 -4
-4 -4 -10z"/>
<path d="M9012 384 c4 -21 22 -23 26 -1 2 10 -3 17 -13 17 -10 0 -15 -6 -13
-16z"/>
<path d="M40 345 c0 -9 14 -30 32 -47 30 -28 30 -29 7 -23 -14 3 -37 1 -52 -4
-23 -9 -27 -16 -27 -52 0 -33 3 -40 15 -35 9 3 23 -3 32 -14 20 -23 43 -26 43
-7 0 15 130 18 141 4 4 -5 24 -8 45 -7 74 5 156 0 175 -10 16 -9 19 -7 19 8 0
28 11 34 34 19 29 -19 95 -30 109 -19 7 5 26 13 42 17 72 19 120 11 109 -20
-6 -15 12 -29 26 -20 8 5 8 11 1 19 -14 17 -3 27 18 17 9 -5 33 -14 54 -21 33
-10 41 -9 56 4 10 9 25 16 33 16 9 0 18 6 21 14 6 15 41 12 64 -6 14 -11 25 5
17 26 -10 26 12 18 31 -11 16 -25 19 -25 31 -9 7 10 29 19 51 21 21 2 49 7 63
13 28 11 40 7 40 -12 0 -8 8 -16 18 -20 9 -3 23 -9 31 -12 10 -5 12 -2 8 10
-8 19 14 21 46 4 27 -15 115 -20 122 -7 10 15 105 11 111 -5 9 -23 35 -28 55
-10 12 11 27 14 47 9 18 -3 33 -2 37 4 7 12 52 4 73 -12 7 -6 12 -6 12 0 0 11
136 10 147 0 3 -4 17 3 29 14 18 17 27 19 37 11 9 -8 17 -8 24 -1 6 6 28 5 67
-5 40 -11 64 -12 82 -6 41 16 54 12 68 -21 12 -29 14 -30 29 -14 10 9 17 21
17 27 0 6 9 8 20 5 10 -3 24 1 30 8 13 16 82 14 103 -3 12 -11 22 -10 52 3 48
19 79 19 99 -1 9 -8 16 -11 16 -5 0 14 35 14 61 0 15 -7 27 -6 47 4 26 12 29
12 45 -10 23 -30 35 -29 35 2 0 30 10 44 20 28 4 -6 28 -12 55 -14 38 -3 48
-1 53 13 7 22 23 23 30 3 7 -17 49 -20 59 -5 9 15 51 12 65 -5 15 -18 40 -19
93 -3 32 10 41 10 45 0 5 -15 38 -16 48 -1 4 7 22 9 45 6 24 -3 45 0 56 9 24
18 47 18 40 0 -4 -10 -1 -13 9 -9 8 3 22 -1 32 -9 28 -24 64 -29 84 -11 11 10
29 14 50 11 18 -3 41 0 50 6 13 8 23 8 38 -2 25 -15 47 -15 52 0 4 12 167 13
214 2 12 -3 25 -1 29 6 5 8 10 8 20 0 8 -7 20 -8 27 -4 18 12 81 13 94 2 8 -5
14 -3 18 8 5 13 10 14 18 6 7 -7 30 -8 61 -5 40 5 51 3 59 -10 12 -22 38 -22
38 -1 0 12 5 14 18 8 9 -5 59 -9 110 -9 70 0 91 3 87 13 -2 7 4 12 15 12 11 0
20 -4 20 -10 0 -5 15 -10 34 -10 19 0 37 -4 40 -9 13 -21 56 -21 76 -1 25 25
40 25 83 1 33 -19 36 -19 100 -1 62 17 67 17 76 2 7 -13 12 -14 25 -3 8 7 19
10 24 7 5 -3 49 -7 98 -10 49 -2 99 -9 112 -13 14 -5 72 -4 142 2 65 7 142 8
172 5 30 -4 61 -3 72 2 10 6 32 7 48 4 24 -5 31 -2 35 14 4 16 10 19 27 13 11
-4 31 -7 43 -8 13 -1 26 -5 30 -8 12 -13 43 -7 43 8 0 9 10 15 26 15 21 0 24
-4 19 -20 -4 -11 -2 -20 4 -20 6 0 11 7 11 15 0 21 17 19 36 -4 14 -16 27 -18
85 -14 49 3 69 1 69 -8 0 -8 5 -8 16 2 14 11 18 11 29 -4 15 -21 25 -22 25 -1
0 17 23 44 38 44 5 0 12 -9 15 -20 6 -23 32 -25 91 -9 31 8 41 8 47 -3 7 -10
11 -10 17 -1 5 8 26 11 61 8 33 -3 60 0 68 7 10 8 17 8 25 0 14 -14 84 -16 92
-3 7 11 79 4 119 -11 20 -8 31 -7 42 2 11 9 19 10 28 1 10 -8 19 -7 33 3 13
10 34 13 67 10 28 -3 54 -1 61 5 10 8 17 7 26 -5 15 -17 55 -12 81 12 18 16
63 5 72 -18 3 -10 8 -11 26 -1 11 7 29 13 39 13 10 0 23 5 29 11 7 7 19 8 30
3 21 -9 51 -13 148 -17 39 -1 75 -6 82 -10 7 -5 16 1 23 14 10 19 17 20 58 14
26 -4 68 -7 94 -6 25 1 49 -3 52 -8 4 -6 15 -7 29 -2 12 5 31 5 42 1 11 -4 39
-10 63 -14 33 -5 44 -3 48 9 8 19 34 20 34 0 0 -8 8 -15 18 -16 9 0 44 -2 77
-5 33 -2 92 -6 130 -7 39 -1 75 -6 81 -9 6 -4 26 -3 45 3 19 5 84 9 144 9 183
-3 213 -1 247 14 9 4 25 3 35 -1 35 -18 79 -13 117 12 53 36 81 40 114 19 31
-21 134 -25 169 -6 17 9 22 9 27 -3 3 -9 19 -15 39 -15 19 0 46 -9 60 -20 l26
-21 11 22 c11 19 13 19 29 5 22 -20 31 -20 31 -1 0 18 11 19 45 3 21 -9 31 -9
46 0 23 15 49 16 49 2 0 -5 16 -10 36 -10 27 0 37 5 41 20 6 23 23 27 23 6 0
-18 23 -23 85 -20 196 8 309 5 331 -8 6 -4 22 -1 36 6 15 8 30 10 35 6 4 -4
39 -10 76 -13 37 -2 73 -9 79 -15 7 -7 19 -12 27 -12 13 0 14 2 2 9 -8 5 -11
16 -8 25 7 18 23 21 32 6 8 -13 45 -13 45 -1 0 14 85 52 102 46 9 -4 18 1 22
12 7 17 8 17 21 -1 11 -14 20 -17 42 -11 15 5 41 7 57 6 23 -2 28 0 22 14 -3
9 -6 19 -6 21 0 2 -7 4 -15 4 -9 0 -18 7 -21 15 -4 10 -11 12 -22 6 -10 -5
-53 -7 -97 -6 -66 2 -257 4 -340 4 -11 0 -69 0 -130 -1 -60 -1 -153 -1 -205 0
-52 2 -106 2 -120 1 -95 -7 -1084 -2 -1082 5 2 5 -2 13 -10 17 -21 14 -48 10
-48 -6 0 -10 -10 -15 -27 -16 -57 -1 -1051 1 -1133 2 -47 1 -101 1 -120 0 -19
-1 -348 0 -730 3 -654 5 -1009 6 -1055 5 -11 -1 -171 -1 -355 0 -184 0 -351 0
-370 0 -435 1 -585 4 -611 11 -17 5 -37 6 -43 2 -11 -7 -67 -11 -141 -10 -22
1 -62 0 -90 -1 -27 -1 -61 -2 -75 -2 -14 0 -65 0 -115 0 -49 -1 -99 -1 -110
-1 -11 1 -85 1 -165 1 -183 -1 -430 0 -450 0 -8 1 -91 0 -185 -2 -93 -2 -175
1 -182 6 -7 5 -26 5 -45 -1 -18 -5 -69 -11 -113 -11 -279 -6 -387 -5 -392 2
-3 5 -17 5 -32 1 -14 -4 -91 -9 -171 -10 -325 -7 -451 -11 -457 -17 -3 -4 -16
-4 -28 -1 -13 3 -26 1 -29 -4 -4 -7 -17 -5 -36 4 -21 11 -39 13 -62 7 -18 -5
-69 -7 -113 -5 -84 5 -124 6 -165 4 -14 -1 -143 -1 -287 -1 -145 0 -267 -2
-272 -5 -5 -4 -20 -2 -33 3 -15 5 -44 5 -72 0 -27 -5 -53 -6 -58 -3 -5 3 -18
-2 -30 -12 -19 -18 -20 -18 -34 1 -16 22 -18 35 -4 35 17 0 11 35 -8 46 -10 6
-32 15 -50 19 -26 5 -32 4 -32 -10z"/>
<path d="M985 350 c-3 -5 1 -10 10 -10 9 0 13 5 10 10 -3 6 -8 10 -10 10 -2 0
-7 -4 -10 -10z"/>
<path d="M1140 345 c-6 -8 -9 -18 -6 -23 7 -11 212 -14 251 -4 30 8 30 9 8 20
-17 10 -27 10 -41 1 -14 -9 -25 -8 -51 5 -26 14 -35 15 -47 5 -11 -9 -24 -9
-53 0 -48 14 -46 14 -61 -4z"/>
<path d="M23870 342 c0 -21 18 -42 36 -42 19 0 24 28 8 45 -21 20 -44 19 -44
-3z"/>
<path d="M17355 340 c-11 -17 18 -42 39 -34 9 4 16 14 14 23 -4 19 -43 27 -53
11z"/>
<path d="M1060 330 c0 -5 7 -10 15 -10 8 0 15 5 15 10 0 6 -7 10 -15 10 -8 0
-15 -4 -15 -10z"/>
<path d="M18760 320 c0 -5 11 -10 25 -10 14 0 25 5 25 10 0 6 -11 10 -25 10
-14 0 -25 -4 -25 -10z"/>
<path d="M19703 316 c4 -12 93 -15 110 -4 15 10 14 10 -56 12 -35 1 -56 -2
-54 -8z"/>
<path d="M19840 320 c0 -5 18 -10 40 -10 22 0 40 5 40 10 0 6 -18 10 -40 10
-22 0 -40 -4 -40 -10z"/>
<path d="M10787 303 c-4 -3 -7 -17 -7 -30 0 -20 4 -22 25 -17 14 3 25 2 25 -4
0 -5 23 -12 50 -16 48 -6 64 -19 38 -29 -7 -2 -10 -8 -5 -12 4 -5 30 -3 58 4
28 7 74 15 102 16 29 2 62 6 75 10 17 6 22 3 22 -9 0 -11 9 -16 29 -16 16 0
43 -3 60 -6 24 -5 31 -3 31 10 0 20 47 33 63 17 9 -9 8 -14 -3 -22 -11 -8 -9
-9 8 -4 18 5 25 2 29 -14 6 -24 33 -29 33 -7 0 15 10 19 69 31 32 7 77 -7 92
-28 4 -5 9 3 13 17 7 30 22 33 47 10 13 -11 41 -17 91 -19 40 -2 81 -6 91 -10
10 -4 27 0 43 10 26 17 78 14 89 -6 10 -14 58 -11 83 7 14 9 33 13 50 10 65
-13 242 -22 332 -17 25 1 89 0 144 -3 62 -4 106 -2 118 5 16 8 23 8 29 -2 7
-11 9 -10 9 4 0 9 8 18 18 18 9 1 33 3 52 5 19 2 44 4 55 5 11 1 49 -1 84 -5
54 -4 66 -3 80 14 19 23 71 38 71 21 0 -22 47 -31 77 -16 40 21 56 19 50 -6
-5 -19 -1 -20 66 -19 40 1 81 1 92 0 11 0 40 3 65 7 47 8 160 -5 160 -19 0
-13 27 -9 39 6 12 14 137 26 297 29 52 1 87 7 97 16 36 29 20 38 -80 45 -54 4
-105 7 -113 6 -8 0 -28 0 -45 -1 -16 -1 -64 -1 -105 0 -41 1 -176 -1 -300 -5
-124 -3 -299 -6 -390 -6 -207 1 -470 1 -760 1 -124 0 -263 1 -310 1 -47 1
-121 -1 -165 -4 -106 -7 -77 -7 -355 -3 -135 1 -251 6 -258 11 -6 4 -16 4 -22
1 -5 -3 -17 -2 -26 3 -10 6 -33 6 -58 0 -52 -13 -146 -16 -152 -6 -3 5 -16 8
-29 8 -13 0 -27 5 -30 10 -7 11 -28 13 -38 3z m2173 -63 c0 -5 -5 -10 -11 -10
-5 0 -7 5 -4 10 3 6 8 10 11 10 2 0 4 -4 4 -10z m-200 -9 c0 -5 -11 -11 -25
-13 -24 -5 -32 2 -18 15 9 10 43 8 43 -2z"/>
<path d="M16400 297 c0 -19 -33 -31 -60 -22 -28 9 -40 -23 -15 -41 16 -12 16
-14 3 -14 -16 0 -33 -28 -24 -38 3 -2 13 -1 23 3 10 5 25 7 34 6 10 -1 22 10
30 29 8 16 19 28 25 26 7 -3 11 7 9 27 -2 31 -25 52 -25 24z"/>
<path d="M15567 294 c-3 -3 -30 -8 -59 -11 -71 -6 -756 -6 -766 1 -5 3 -30 2
-56 -2 -46 -7 -49 -9 -51 -40 -2 -27 2 -36 20 -44 20 -9 34 -5 86 22 53 27 65
30 84 20 13 -7 29 -10 37 -8 7 3 25 -1 41 -9 18 -9 33 -11 44 -5 9 5 24 7 33
5 10 -3 21 0 24 6 9 14 53 14 58 1 2 -7 16 -5 40 5 41 17 78 20 78 6 0 -5 27
-9 61 -10 33 0 64 -3 70 -6 15 -10 10 -22 -11 -28 -13 -3 -18 -10 -14 -21 9
-24 33 -19 43 8 8 18 19 24 57 30 26 3 56 14 67 24 11 9 22 13 24 7 12 -33 22
-39 46 -28 19 9 29 8 43 -1 22 -15 88 -14 124 1 30 13 60 6 60 -14 0 -11 6
-13 23 -8 46 14 78 17 90 7 6 -5 39 -10 72 -9 33 0 70 -5 82 -11 18 -10 25 -7
54 28 38 44 54 48 85 21 16 -13 20 -25 17 -45 -5 -23 -3 -27 13 -24 15 3 19
13 21 55 l3 52 -58 -1 c-31 0 -109 3 -172 7 -63 4 -176 8 -251 9 -74 2 -140 6
-146 9 -6 4 -13 4 -16 1z"/>
<path d="M26657 294 c-3 -3 -353 -7 -779 -9 -1269 -5 -1266 -5 -1278 -20 -10
-12 -16 -12 -36 2 -18 11 -28 13 -36 5 -6 -6 -26 -8 -44 -5 -25 4 -40 1 -53
-11 -18 -16 -22 -16 -53 -3 -59 27 -78 30 -84 12 -5 -11 -10 -13 -19 -5 -7 6
-65 10 -141 10 -71 -1 -210 -1 -309 0 -173 2 -210 2 -237 0 -7 -1 -36 0 -65 1
-29 1 -58 -3 -66 -9 -10 -9 -18 -8 -33 2 -17 13 -21 12 -38 -2 -14 -13 -20
-14 -23 -4 -6 15 -65 16 -80 1 -8 -8 -13 -8 -17 0 -9 14 -56 15 -56 1 0 -5 12
-12 28 -16 34 -8 51 -29 45 -54 -5 -17 0 -20 32 -20 21 0 49 9 65 20 21 15 40
19 73 17 24 -2 49 -7 56 -11 6 -4 11 -2 11 3 0 7 23 11 56 11 46 0 55 -3 50
-15 -3 -9 0 -15 9 -15 7 0 17 9 20 21 4 13 12 18 22 15 49 -19 64 -18 70 3 6
24 21 28 29 6 4 -10 14 -13 29 -9 15 4 24 0 28 -10 8 -20 33 -21 40 -2 11 29
49 26 79 -6 26 -28 31 -30 52 -18 13 7 27 25 30 41 6 33 21 38 28 11 6 -22 75
-37 94 -21 8 7 13 4 17 -11 6 -25 21 -26 45 -3 18 19 77 20 99 1 16 -13 34 -1
26 17 -8 23 25 18 37 -5 11 -21 40 -28 40 -10 0 6 12 11 28 11 15 0 43 0 62 1
19 0 40 7 46 16 7 10 16 12 25 7 15 -10 35 -14 94 -18 22 -2 46 -6 52 -10 7
-5 22 -3 33 3 11 6 57 12 102 14 46 3 91 8 101 11 9 4 24 1 33 -6 14 -11 18
-11 29 4 15 21 45 22 45 2 0 -10 11 -15 33 -16 17 0 52 -3 77 -6 25 -3 60 -4
79 -4 19 1 38 -3 41 -9 5 -7 15 -8 32 -1 15 6 53 6 94 1 38 -4 114 -7 169 -5
58 2 105 -1 112 -7 8 -7 39 -7 95 0 85 11 156 5 196 -17 20 -11 22 -10 22 14
0 27 26 35 47 14 8 -8 17 -8 30 0 24 12 91 7 151 -11 32 -9 47 -10 61 -1 12 8
31 9 57 3 44 -10 58 -5 51 20 -3 11 2 21 10 24 20 8 33 7 31 -1 -5 -18 15 -53
29 -53 11 0 14 6 9 24 -8 33 8 41 43 20 32 -19 32 -34 0 -34 -11 0 -18 -4 -15
-9 6 -10 77 -8 95 3 6 4 19 -1 29 -12 9 -11 27 -23 40 -27 19 -5 25 -2 29 15
4 15 11 19 22 15 9 -4 40 -9 69 -10 51 -4 52 -3 46 21 -4 17 -2 24 7 24 20 0
34 -13 34 -30 0 -21 39 -24 55 -5 11 13 10 15 -2 10 -9 -4 -18 1 -22 10 -7 20
23 33 34 15 4 -7 12 -10 18 -6 6 3 13 2 17 -4 3 -5 1 -10 -4 -10 -6 0 -11 -7
-11 -16 0 -12 5 -15 23 -9 12 4 37 9 55 10 18 2 45 8 60 14 15 6 39 10 52 9
19 -2 26 2 28 18 5 34 49 43 96 20 37 -18 41 -19 68 -3 27 15 31 15 61 -2 20
-11 45 -16 65 -13 27 4 33 0 42 -22 5 -14 14 -26 19 -26 17 0 23 20 11 35 -6
7 -7 15 -3 17 18 9 75 8 94 -2 29 -16 159 -18 159 -3 0 9 8 8 28 -3 25 -13 27
-13 30 9 5 30 17 41 38 33 13 -5 14 -10 6 -18 -8 -8 -6 -19 9 -40 24 -33 35
-35 42 -9 5 19 69 36 75 20 5 -14 30 -11 39 4 13 22 39 27 72 14 24 -9 36 -9
51 1 30 18 48 15 52 -10 3 -20 8 -23 38 -20 19 2 41 11 48 20 8 11 15 13 23 5
7 -7 5 -15 -6 -27 -19 -19 -12 -36 16 -36 12 0 19 7 19 20 0 37 71 49 84 14
11 -27 29 -15 23 16 -8 37 10 49 29 21 18 -26 32 -27 51 -4 14 17 14 17 9 1
-3 -10 -1 -18 4 -18 6 0 10 7 10 16 0 13 7 15 43 9 23 -4 51 -14 62 -21 26
-18 79 -18 95 1 7 8 19 15 27 15 13 0 13 -3 3 -15 -10 -12 -9 -16 4 -21 9 -3
23 -1 31 6 12 10 21 10 41 1 17 -8 30 -8 38 -2 7 6 18 6 25 1 8 -4 21 -6 29
-2 8 3 21 -3 28 -13 12 -16 15 -16 44 13 16 17 30 33 30 36 0 16 -38 41 -65
43 -82 4 -75 4 -220 2 -49 -1 -101 -1 -115 0 -14 0 -56 1 -94 1 -39 0 -76 6
-83 12 -9 7 -17 7 -26 0 -7 -6 -43 -10 -80 -9 -50 1 -70 -2 -83 -14 -15 -16
-18 -16 -48 1 -26 15 -57 18 -190 19 -95 1 -174 -4 -197 -11 -29 -8 -45 -8
-64 0 -17 8 -33 8 -55 1 -17 -6 -38 -8 -48 -3 -9 4 -249 8 -533 9 -284 1 -521
5 -526 8 -6 4 -13 4 -16 1z m333 -59 c0 -8 -4 -15 -10 -15 -5 0 -10 7 -10 15
0 8 5 15 10 15 6 0 10 -7 10 -15z m-700 -5 c0 -5 -4 -10 -10 -10 -5 0 -10 5
-10 10 0 6 5 10 10 10 6 0 10 -4 10 -10z m513 -15 c-4 -15 -36 -12 -41 3 -3 9
3 13 19 10 13 -1 23 -7 22 -13z"/>
<path d="M14380 279 c-36 -5 -72 -10 -80 -13 -8 -2 -30 -9 -47 -14 -24 -8 -32
-7 -30 1 1 7 -8 11 -23 9 -35 -5 -46 -18 -30 -37 15 -18 47 -20 53 -2 3 9 7 9
18 0 23 -19 169 -20 180 -1 5 8 15 8 36 0 43 -16 92 -22 98 -13 3 5 14 7 25 4
15 -4 20 0 20 15 0 12 5 24 10 27 14 9 3 24 -18 25 -105 6 -157 6 -212 -1z"/>
<path d="M17076 278 c-9 -5 -65 -7 -124 -5 -154 5 -256 -4 -260 -24 -4 -24 39
-64 88 -81 69 -23 72 -24 77 -11 2 6 -6 13 -19 15 -33 4 -29 32 5 36 19 2 27
9 27 23 0 12 4 17 11 13 6 -3 9 -14 6 -24 -2 -10 3 -24 13 -32 14 -13 20 -13
35 -2 25 19 33 18 40 -6 3 -11 15 -20 26 -20 12 0 19 7 19 20 0 23 25 27 34 5
7 -19 35 -20 42 -1 7 19 53 29 70 16 18 -16 33 -4 27 20 -4 14 0 20 11 20 17
0 56 -34 56 -49 0 -15 41 -24 53 -12 16 16 38 13 54 -6 13 -17 14 -17 29 4 12
17 20 20 44 13 16 -4 31 -6 33 -3 3 3 19 -6 36 -18 24 -18 34 -20 43 -11 15
15 60 16 76 0 8 -8 15 -8 28 3 13 11 18 11 21 2 6 -18 64 -16 91 3 17 11 34
14 63 9 24 -4 45 -3 53 4 10 8 16 7 26 -4 10 -12 15 -12 35 1 13 8 39 16 59
17 19 2 41 8 48 15 17 17 45 15 52 -3 3 -8 15 -15 27 -15 11 0 34 -8 50 -17
27 -16 29 -16 42 2 9 11 21 16 30 12 9 -3 19 -1 23 4 4 6 20 8 39 5 22 -5 35
-2 38 6 4 10 8 10 16 -2 10 -13 13 -13 25 3 10 13 15 15 19 5 4 -11 8 -11 26
0 26 15 41 8 41 -19 0 -17 4 -19 22 -13 27 8 49 35 40 49 -4 5 -5 20 -3 33 1
13 -3 22 -11 22 -22 0 -68 -24 -68 -35 0 -5 -4 -3 -9 5 -7 10 -32 14 -98 15
-48 0 -93 4 -100 8 -7 4 -16 0 -22 -10 -9 -15 -12 -15 -20 -4 -5 8 -17 11 -29
7 -11 -4 -23 -2 -27 4 -7 11 -52 3 -72 -12 -7 -6 -21 -7 -30 -2 -29 12 -131
17 -298 14 -38 0 -101 1 -140 3 -38 2 -77 1 -85 -3 -8 -4 -76 -4 -150 0 -84 4
-145 2 -162 -4 -19 -7 -34 -7 -50 1 -33 17 -74 21 -92 11z"/>
<path d="M29113 283 c-13 -2 -23 -7 -23 -11 1 -17 48 -62 74 -72 24 -9 31 -8
42 7 9 12 16 15 21 7 5 -6 34 -15 67 -19 45 -5 59 -11 63 -26 7 -25 29 -24 36
2 5 17 12 20 44 18 21 -1 48 3 60 9 28 15 48 15 73 0 13 -9 23 -9 30 -2 6 6
39 7 93 2 54 -5 91 -4 109 3 19 8 32 8 46 0 27 -14 28 -14 47 5 15 15 17 15
31 -5 10 -14 22 -20 33 -16 10 3 23 -1 30 -9 9 -11 19 -12 49 -3 53 14 106 12
134 -7 14 -9 33 -14 42 -10 18 7 21 20 6 29 -15 9 -12 25 5 25 8 0 15 -6 15
-14 0 -20 18 -30 33 -18 20 17 77 25 77 12 0 -8 9 -10 28 -5 49 13 166 15 173
3 5 -8 16 -8 38 2 23 9 34 10 45 1 7 -6 50 -14 94 -16 71 -5 82 -3 94 13 10
15 18 17 36 11 12 -5 22 -13 22 -19 0 -15 32 -12 54 5 30 23 133 20 174 -5 25
-16 37 -18 47 -10 7 6 24 8 38 5 14 -4 58 -8 99 -9 40 -1 82 -6 92 -11 14 -6
24 -3 37 13 20 26 29 28 29 7 0 -19 15 -19 45 1 20 13 28 14 40 4 9 -7 25 -10
40 -6 18 5 35 0 56 -15 37 -26 71 -28 123 -5 22 10 51 15 65 13 14 -3 37 1 51
8 30 16 60 3 60 -26 0 -12 5 -19 13 -16 6 2 11 16 9 31 -3 28 12 36 22 11 7
-20 92 -21 103 -1 6 11 21 12 72 5 45 -6 68 -6 77 2 10 9 26 7 63 -5 67 -22
74 -21 69 9 -6 28 4 32 23 9 10 -12 23 -14 61 -9 30 4 48 3 48 -3 0 -6 17 -9
38 -9 20 1 51 -2 67 -6 24 -7 28 -6 18 4 -7 7 -13 17 -13 23 0 6 5 5 12 -2 22
-22 29 -13 26 30 -3 42 -4 43 -48 50 -25 5 -79 4 -121 -1 -45 -5 -99 -5 -134
1 -44 7 -60 6 -66 -4 -5 -8 -14 -9 -31 -2 -13 6 -43 8 -68 7 -93 -7 -2307 4
-2403 12 -32 3 -77 1 -100 -5 -28 -6 -56 -5 -84 2 -24 5 -51 7 -60 3 -10 -5
-22 -7 -28 -5 -10 2 -239 1 -260 -2 -5 -1 -30 1 -55 4 -25 3 -55 3 -67 1z"/>
<path d="M10640 265 c-10 -11 -10 -19 -2 -27 15 -15 44 -2 40 19 -4 23 -22 27
-38 8z"/>
<path d="M14090 266 c-7 -10 -3 -16 16 -25 29 -13 46 -7 38 13 -7 19 -41 26
-54 12z"/>
<path d="M21274 271 c-75 -4 -117 -11 -128 -21 -16 -12 -19 -12 -27 3 -10 17
-40 23 -52 11 -9 -9 30 -49 71 -75 l33 -21 27 24 c34 31 94 31 123 -1 11 -12
22 -21 24 -21 2 0 31 16 64 35 32 19 61 35 64 35 2 0 16 -11 31 -25 20 -18 32
-23 43 -16 9 4 24 6 35 3 14 -3 21 2 25 17 7 29 74 30 94 1 13 -19 16 -19 43
-5 35 18 72 19 83 2 19 -30 114 -50 128 -27 5 7 11 8 19 1 11 -9 106 16 123
33 12 12 33 6 33 -9 0 -22 9 -19 40 15 27 29 27 30 6 37 -11 4 -95 5 -186 3
-91 -2 -203 -3 -250 -3 -167 3 -215 2 -225 -7 -6 -5 -18 -2 -29 6 -11 8 -38
13 -60 12 -23 -1 -91 -4 -152 -7z"/>
<path d="M16655 260 c3 -5 8 -10 11 -10 2 0 4 5 4 10 0 6 -5 10 -11 10 -5 0
-7 -4 -4 -10z"/>
<path d="M18647 259 c-9 -5 -22 -7 -27 -4 -15 9 -50 -4 -50 -20 0 -30 53 -49
140 -51 47 -1 91 3 98 9 8 7 20 6 37 -1 18 -8 25 -8 28 1 3 9 10 9 26 -1 20
-11 22 -11 19 5 -2 12 4 19 20 21 12 2 22 -1 22 -7 0 -6 11 -11 24 -11 12 0
37 -5 54 -11 20 -7 42 -7 65 -1 27 8 36 6 45 -7 10 -15 12 -15 25 2 8 9 24 17
36 17 29 0 37 26 16 50 -17 19 -29 20 -169 16 -83 -2 -164 -7 -179 -11 -18 -5
-38 -3 -53 5 -20 11 -28 11 -48 0 -23 -12 -62 -11 -96 3 -8 4 -23 2 -33 -4z"/>
<path d="M19345 260 c-2 -4 -1 -20 4 -36 5 -21 16 -31 39 -38 36 -10 52 -2 34
16 -19 19 -14 26 13 20 15 -2 25 0 25 7 0 6 13 11 29 11 21 0 30 -6 36 -22 6
-23 7 -22 17 5 7 21 16 27 39 27 16 0 29 4 29 8 0 9 -259 11 -265 2z"/>
<path d="M19627 263 c-10 -9 25 -32 49 -33 11 0 25 -5 31 -11 14 -14 33 -3 33
17 0 21 -25 28 -51 14 -18 -10 -24 -9 -31 4 -10 17 -20 20 -31 9z"/>
<path d="M19982 238 c3 -37 38 -55 38 -20 0 31 -11 52 -27 52 -10 0 -13 -9
-11 -32z"/>
<path d="M20386 261 c-3 -4 -17 -6 -31 -3 -36 6 -31 -18 8 -44 20 -12 39 -17
48 -13 7 4 22 10 32 13 10 3 17 15 17 31 0 22 -4 25 -34 25 -19 0 -37 -4 -40
-9z"/>
<path d="M20510 260 c1 -19 21 -32 41 -27 12 3 31 2 41 -4 14 -7 18 -6 18 6 0
21 10 19 37 -7 20 -19 26 -20 48 -8 20 11 27 11 40 0 11 -9 19 -10 26 -3 16
16 48 3 51 -21 2 -15 10 -21 28 -21 14 0 30 -3 36 -7 7 -5 14 0 17 11 3 13 11
18 23 16 11 -2 40 -6 65 -9 46 -5 46 -5 47 26 0 17 7 35 14 39 9 6 6 9 -12 11
-59 4 -520 3 -520 -2z"/>
<path d="M22285 260 c-3 -5 1 -10 10 -10 9 0 13 5 10 10 -3 6 -8 10 -10 10 -2
0 -7 -4 -10 -10z"/>
<path d="M22357 263 c-4 -3 -7 -14 -7 -22 0 -19 57 -44 66 -30 3 5 21 9 41 9
33 0 62 20 63 43 0 11 -58 8 -66 -4 -6 -10 -26 -8 -75 7 -8 2 -18 1 -22 -3z"/>
<path d="M22864 259 c-3 -5 -8 -7 -12 -5 -4 2 -16 -2 -27 -10 -18 -13 -18 -15
-2 -32 15 -14 19 -15 26 -3 5 8 16 11 24 8 8 -3 20 0 26 6 9 9 14 9 19 1 4 -6
17 -14 29 -18 12 -4 25 -16 28 -27 8 -23 31 -25 39 -3 9 23 0 32 -39 40 -19 3
-32 11 -29 16 7 11 99 1 127 -14 10 -5 26 -6 35 -2 9 4 33 8 52 8 41 1 55 30
18 39 -39 9 -308 6 -314 -4z"/>
<path d="M16237 253 c-14 -13 -6 -24 15 -21 27 4 36 28 11 28 -11 0 -23 -3
-26 -7z"/>
<path d="M16470 248 c0 -20 13 -35 38 -42 28 -9 29 7 0 34 -25 23 -38 26 -38
8z"/>
<path d="M19260 250 c0 -16 41 -33 52 -22 6 6 7 15 4 21 -9 14 -56 15 -56 1z"/>
<path d="M19797 242 c-26 -28 -21 -33 29 -28 51 5 63 12 48 25 -21 21 -60 22
-77 3z"/>
<path d="M19930 249 c0 -5 5 -7 10 -4 6 3 10 8 10 11 0 2 -4 4 -10 4 -5 0 -10
-5 -10 -11z"/>
<path d="M20062 249 c2 -6 8 -10 13 -10 5 0 11 4 13 10 2 6 -4 11 -13 11 -9 0
-15 -5 -13 -11z"/>
<path d="M20107 253 c-3 -5 -1 -17 4 -28 4 -11 8 -15 8 -8 1 6 4 18 7 27 6 16
-11 23 -19 9z"/>
<path d="M20240 251 c0 -5 14 -14 31 -21 23 -10 33 -10 42 -1 9 9 8 14 -3 21
-19 12 -70 13 -70 1z"/>
<path d="M22600 250 c0 -5 5 -10 10 -10 6 0 10 5 10 10 0 6 -4 10 -10 10 -5 0
-10 -4 -10 -10z"/>
<path d="M22660 250 c0 -5 9 -10 20 -10 11 0 20 5 20 10 0 6 -9 10 -20 10 -11
0 -20 -4 -20 -10z"/>
<path d="M20140 242 c0 -4 10 -13 21 -21 18 -10 23 -10 30 0 4 7 5 17 3 21 -7
10 -54 11 -54 0z"/>
<path d="M16630 230 c-13 -9 -13 -11 0 -20 18 -11 39 5 24 20 -6 6 -15 6 -24
0z"/>
<path d="M19930 214 c0 -8 5 -12 10 -9 6 4 8 11 5 16 -9 14 -15 11 -15 -7z"/>
<path d="M23200 210 c0 -11 5 -20 10 -20 6 0 10 9 10 20 0 11 -4 20 -10 20 -5
0 -10 -9 -10 -20z"/>
<path d="M27380 205 c0 -8 7 -15 15 -15 8 0 15 7 15 15 0 8 -7 15 -15 15 -8 0
-15 -7 -15 -15z"/>
<path d="M22584 195 c21 -16 32 -13 21 4 -3 6 -14 11 -23 11 -15 -1 -15 -2 2
-15z"/>
<path d="M28685 191 c-3 -5 -1 -12 5 -16 12 -7 30 2 30 16 0 12 -27 12 -35 0z"/>
<path d="M7330 182 c0 -5 7 -15 15 -22 8 -7 15 -8 15 -2 0 5 -7 15 -15 22 -8
7 -15 8 -15 2z"/>
<path d="M8925 180 c3 -5 8 -10 11 -10 2 0 4 5 4 10 0 6 -5 10 -11 10 -5 0 -7
-4 -4 -10z"/>
<path d="M27740 174 c0 -8 5 -12 10 -9 6 4 8 11 5 16 -9 14 -15 11 -15 -7z"/>
<path d="M20010 170 c0 -5 5 -10 10 -10 6 0 10 5 10 10 0 6 -4 10 -10 10 -5 0
-10 -4 -10 -10z"/>
<path d="M20380 171 c0 -6 5 -13 10 -16 6 -3 10 1 10 9 0 9 -4 16 -10 16 -5 0
-10 -4 -10 -9z"/>
<path d="M31005 171 c-3 -5 -1 -12 5 -16 5 -3 10 1 10 9 0 18 -6 21 -15 7z"/>
<path d="M22655 160 c3 -5 8 -10 11 -10 2 0 4 5 4 10 0 6 -5 10 -11 10 -5 0
-7 -4 -4 -10z"/>
<path d="M12195 150 c-3 -5 1 -10 9 -10 9 0 16 5 16 10 0 6 -4 10 -9 10 -6 0
-13 -4 -16 -10z"/>
<path d="M22685 150 c-3 -5 1 -10 9 -10 9 0 16 5 16 10 0 6 -4 10 -9 10 -6 0
-13 -4 -16 -10z"/>
<path d="M28952 151 c4 -13 18 -16 19 -4 0 4 -5 9 -11 12 -7 2 -11 -2 -8 -8z"/>
<path d="M31040 150 c0 -5 7 -10 15 -10 8 0 15 5 15 10 0 6 -7 10 -15 10 -8 0
-15 -4 -15 -10z"/>
<path d="M1560 136 c0 -8 4 -17 9 -20 10 -7 23 19 14 28 -11 11 -23 6 -23 -8z"/>
<path d="M9350 134 c0 -8 5 -12 10 -9 6 3 10 10 10 16 0 5 -4 9 -10 9 -5 0
-10 -7 -10 -16z"/>
<path d="M15320 133 c0 -13 5 -23 10 -23 13 0 13 11 0 30 -8 12 -10 11 -10 -7z"/>
<path d="M16160 139 c0 -5 5 -7 10 -4 6 3 10 8 10 11 0 2 -4 4 -10 4 -5 0 -10
-5 -10 -11z"/>
<path d="M1185 110 c3 -5 8 -10 11 -10 2 0 4 5 4 10 0 6 -5 10 -11 10 -5 0 -7
-4 -4 -10z"/>
<path d="M22800 110 c0 -5 5 -10 10 -10 6 0 10 5 10 10 0 6 -4 10 -10 10 -5 0
-10 -4 -10 -10z"/>
<path d="M22415 100 c-8 -13 15 -24 27 -12 6 6 4 11 -6 15 -8 3 -18 2 -21 -3z"/>
<path d="M30560 70 c0 -5 5 -10 11 -10 5 0 7 5 4 10 -3 6 -8 10 -11 10 -2 0
-4 -4 -4 -10z"/>
<path d="M32180 70 c0 -5 5 -10 10 -10 6 0 10 5 10 10 0 6 -4 10 -10 10 -5 0
-10 -4 -10 -10z"/>
<path d="M940 50 c0 -5 5 -10 10 -10 6 0 10 5 10 10 0 6 -4 10 -10 10 -5 0
-10 -4 -10 -10z"/>
<path d="M32442 49 c5 -14 21 -14 26 0 2 6 -4 11 -13 11 -9 0 -15 -5 -13 -11z"/>
<path d="M650 31 c0 -5 5 -13 10 -16 6 -3 10 -2 10 4 0 5 -4 13 -10 16 -5 3
-10 2 -10 -4z"/>
</g>
</svg>
