<?xml version="1.0" standalone="no"?>
<!DOCTYPE svg PUBLIC "-//W3C//DTD SVG 20010904//EN"
 "http://www.w3.org/TR/2001/REC-SVG-20010904/DTD/svg10.dtd">
<svg version="1.0" xmlns="http://www.w3.org/2000/svg"
 width="2448.000000pt" height="3264.000000pt" viewBox="0 0 2448.000000 3264.000000"
 preserveAspectRatio="xMidYMid meet">
<metadata>
Created by potrace 1.12, written by Peter Selinger 2001-2015
</metadata>
<g transform="translate(0.000000,3264.000000) scale(0.100000,-0.100000)"
fill="#000000" stroke="none">
<path d="M21018 30669 c-19 -11 -24 -39 -9 -54 5 -6 11 -21 13 -35 2 -14 13
-29 26 -35 12 -5 22 -15 22 -21 0 -6 7 -17 15 -24 9 -7 14 -19 11 -26 -3 -7
-1 -16 3 -19 5 -3 8 -30 6 -62 -1 -42 -7 -60 -22 -72 -10 -9 -22 -24 -26 -35
-4 -11 -13 -16 -22 -12 -9 3 -25 -4 -36 -15 -16 -16 -19 -28 -15 -54 4 -18 14
-39 22 -46 13 -11 19 -9 34 11 14 19 23 22 53 17 26 -4 37 -2 41 9 3 9 11 12
17 8 11 -7 8 -98 -6 -140 -5 -16 -2 -23 14 -27 22 -5 26 -23 21 -104 -1 -26 3
-43 9 -43 6 0 11 9 11 20 0 18 2 17 25 -5 13 -14 29 -25 35 -25 12 0 14 27 2
34 -11 7 -35 113 -28 125 3 5 -3 29 -14 52 -11 24 -20 57 -20 73 0 17 -12 42
-30 63 -16 18 -30 38 -30 43 0 13 32 50 110 125 134 130 151 141 205 126 l30
-8 0 -124 c0 -68 4 -130 8 -137 5 -7 10 -49 11 -92 1 -44 5 -83 9 -86 4 -4 7
-15 7 -25 0 -31 21 -66 47 -78 34 -15 60 1 85 52 57 121 107 165 174 154 34
-6 98 -65 110 -102 3 -11 15 -39 26 -62 19 -42 21 -43 69 -43 50 0 56 6 40 38
-5 9 -16 32 -23 50 -7 17 -17 32 -23 32 -5 0 -17 11 -25 24 -51 81 -74 106
-115 131 -39 23 -56 26 -96 23 -57 -6 -83 -26 -110 -83 -11 -22 -26 -49 -34
-59 -14 -19 -16 -19 -28 -2 -12 17 -15 17 -29 2 -26 -26 -37 -19 -34 22 2 20
0 47 -5 58 -5 14 -2 26 8 36 12 12 15 40 14 124 -1 151 -7 179 -45 227 -26 33
-150 29 -181 -7 -5 -6 -30 -24 -54 -41 -23 -16 -47 -39 -52 -51 -10 -28 -33
-41 -78 -45 -38 -4 -42 3 -41 91 0 104 -46 162 -102 129z"/>
<path d="M19825 30561 c-56 -14 -125 -61 -125 -85 0 -6 -9 -17 -20 -24 -11 -7
-20 -22 -20 -33 0 -12 -6 -33 -14 -47 -31 -61 -38 -81 -31 -91 4 -7 3 -17 -2
-24 -13 -17 2 -286 16 -300 6 -6 11 -20 11 -30 0 -10 9 -30 20 -44 11 -14 20
-41 20 -59 0 -19 5 -34 10 -34 6 0 10 -11 10 -24 0 -27 16 -36 66 -36 36 0 55
22 38 45 -39 52 -68 104 -70 128 -2 15 -9 37 -15 49 -12 23 -17 53 -25 173 -3
50 0 82 11 112 9 24 14 47 10 53 -6 9 13 75 38 132 18 41 96 72 161 63 108
-14 205 -62 206 -103 1 -42 -59 -109 -129 -146 -20 -10 -43 -22 -51 -27 -8 -5
-28 -15 -45 -22 -61 -28 -65 -56 -16 -101 21 -19 22 -19 64 2 23 12 54 31 68
43 70 56 205 49 299 -16 32 -22 36 -29 32 -60 -3 -22 -12 -40 -23 -46 -11 -5
-17 -15 -13 -21 11 -17 -74 -170 -123 -223 -45 -50 -47 -50 -119 -29 -16 4
-31 -3 -55 -24 l-34 -30 45 -41 c75 -68 90 -62 220 90 109 128 158 248 146
362 -9 81 -35 109 -121 131 -124 33 -129 38 -95 115 11 24 20 54 20 66 0 36
-56 85 -146 127 -84 39 -143 47 -219 29z"/>
<path d="M17994 30470 c-35 -19 -60 -44 -78 -74 -15 -26 -31 -46 -35 -46 -5 0
-12 -16 -16 -36 -3 -20 -15 -53 -27 -75 -11 -21 -18 -46 -14 -54 3 -8 -1 -32
-8 -53 -8 -21 -13 -59 -11 -83 5 -76 17 -149 25 -154 5 -3 6 -14 3 -24 -3 -10
0 -22 6 -25 6 -4 11 -19 11 -32 0 -14 12 -52 28 -85 24 -53 30 -59 58 -59 17
0 37 7 44 15 8 10 31 15 69 15 67 0 170 28 248 67 48 24 92 63 202 178 30 32
54 101 47 135 -3 17 -9 45 -12 63 -17 81 -129 199 -288 303 -34 23 -142 53
-186 54 -8 0 -38 -13 -66 -30z m196 -85 c226 -144 265 -189 263 -304 -1 -35
-5 -67 -10 -70 -4 -3 -23 -24 -42 -46 -18 -22 -47 -50 -65 -63 -73 -52 -106
-72 -133 -78 -15 -4 -32 -10 -38 -14 -22 -15 -126 -32 -161 -27 -24 4 -50 19
-72 40 l-33 34 -6 123 c-3 70 -1 132 5 144 21 46 30 74 46 141 13 58 23 77 56
108 37 35 44 37 97 36 41 -1 68 -8 93 -24z"/>
<path d="M16231 30404 c-47 -68 -41 -89 15 -59 47 24 71 19 99 -22 31 -46 32
-66 2 -86 -38 -24 -80 -29 -120 -12 -33 14 -36 18 -30 45 3 17 1 30 -4 30 -6
0 -13 -18 -17 -41 -9 -56 -45 -116 -78 -130 -15 -6 -33 -17 -39 -25 -6 -8 -20
-14 -30 -14 -10 0 -22 -6 -26 -13 -4 -7 -23 -23 -40 -36 -38 -26 -43 -57 -14
-92 19 -24 19 -24 41 -4 18 16 24 17 42 6 17 -10 23 -10 39 5 28 25 23 5 -16
-72 -19 -37 -35 -73 -35 -80 0 -6 -9 -32 -20 -58 -13 -28 -23 -79 -27 -131 -6
-82 -5 -85 18 -93 13 -5 31 -7 41 -4 34 9 43 32 39 109 -1 42 2 79 8 87 6 7
15 45 21 85 6 40 15 82 21 93 6 11 9 33 6 48 -3 14 1 39 9 54 7 16 11 38 8 50
-4 18 3 29 30 49 19 15 38 27 42 27 4 0 36 14 72 31 96 45 121 38 161 -47 17
-36 31 -72 31 -80 0 -8 34 -74 75 -145 41 -72 75 -133 75 -136 0 -3 11 -18 25
-35 14 -16 25 -35 25 -41 0 -22 76 -47 93 -31 8 8 -29 81 -59 117 -13 16 -24
33 -24 39 0 6 -8 20 -17 30 -9 11 -46 76 -81 146 -35 70 -78 154 -94 186 -29
55 -30 60 -13 72 9 7 35 16 57 19 93 16 134 51 88 75 -15 8 -39 7 -92 -4 -62
-13 -76 -13 -105 -1 -19 8 -32 19 -28 24 7 12 -11 46 -44 84 -19 20 -34 27
-62 27 -33 0 -41 -5 -68 -46z"/>
<path d="M17497 30413 c-13 -12 -7 -52 12 -90 11 -21 23 -60 26 -86 3 -27 12
-87 20 -135 18 -113 28 -247 19 -274 -6 -20 -7 -20 -30 6 -14 14 -31 26 -39
26 -8 0 -16 16 -20 40 -4 22 -10 40 -14 40 -3 0 -11 22 -18 49 -14 59 -71 183
-126 273 -31 50 -50 71 -79 84 -38 17 -39 17 -61 -4 -19 -20 -21 -34 -25 -159
-5 -173 -5 -154 3 -243 4 -41 7 -110 5 -152 -1 -77 -1 -77 30 -93 47 -24 75
-17 73 20 -4 88 -22 243 -30 265 -4 8 -7 26 -8 40 -1 14 -4 52 -8 85 -7 51 -5
65 13 93 11 19 26 32 33 30 12 -4 48 -70 100 -183 15 -33 43 -89 62 -125 19
-36 37 -83 41 -106 7 -47 41 -112 66 -128 13 -8 29 -6 60 5 l43 16 2 104 c0
57 2 127 4 155 1 28 -1 56 -5 63 -4 6 -5 19 -2 29 7 21 -48 312 -64 342 -11
20 -68 29 -83 13z"/>
<path d="M20625 30167 c-116 -36 -122 -44 -138 -185 -5 -46 -4 -53 10 -50 9 2
20 16 24 32 11 39 43 71 107 108 49 28 60 30 114 25 71 -6 93 -22 80 -58 -15
-39 -153 -173 -199 -193 -39 -17 -44 -18 -67 -2 -14 9 -30 25 -36 36 -11 20
-40 28 -40 11 0 -5 7 -22 15 -37 8 -16 15 -39 15 -52 0 -26 52 -62 90 -62 46
1 164 93 231 181 53 70 75 182 42 211 -61 53 -150 66 -248 35z"/>
<path d="M20309 29649 c-14 -14 -18 -26 -13 -42 4 -12 8 -32 8 -44 1 -12 7
-28 14 -35 6 -6 12 -18 12 -26 0 -8 11 -23 25 -34 14 -11 25 -28 25 -38 0 -9
7 -23 15 -30 8 -7 12 -16 9 -21 -11 -18 -88 -49 -121 -49 -18 0 -51 -9 -73
-21 -35 -18 -40 -25 -40 -55 0 -51 32 -54 125 -13 68 30 79 32 108 21 46 -17
54 -15 61 11 8 34 72 52 182 52 113 0 134 -13 134 -84 0 -34 -6 -51 -25 -71
-24 -25 -30 -43 -27 -87 2 -28 44 -41 77 -23 20 10 23 18 18 42 -3 16 0 47 7
68 11 34 17 38 53 43 23 3 45 4 49 1 4 -3 17 -35 28 -72 11 -37 32 -84 45
-104 14 -21 25 -44 25 -51 0 -22 42 -54 91 -70 84 -29 155 11 179 99 7 27 17
54 22 60 7 9 9 75 6 159 -4 92 3 177 16 214 9 24 16 45 16 46 0 10 -58 11 -78
2 -24 -11 -24 -13 -17 -87 4 -41 7 -84 6 -95 -1 -11 -4 -40 -6 -65 -2 -25 -6
-72 -8 -105 -5 -74 -25 -115 -70 -139 -57 -30 -91 -14 -145 68 -22 34 -32 62
-32 87 0 27 -6 42 -20 52 -12 8 -20 18 -19 23 7 23 -15 74 -36 88 -14 9 -46
16 -72 16 -26 0 -58 6 -69 13 -107 62 -135 67 -245 47 -32 -6 -72 -7 -95 -2
-36 7 -39 11 -41 42 -5 99 -12 140 -31 177 -26 50 -46 59 -73 32z"/>
<path d="M21587 29599 c-57 -23 -107 -58 -107 -75 0 -7 -8 -20 -17 -29 -12
-13 -17 -41 -21 -118 -3 -86 -1 -109 16 -147 26 -59 100 -133 149 -149 60 -19
185 -25 240 -12 53 14 113 54 113 76 0 24 -64 29 -115 10 -35 -14 -64 -17
-134 -13 -49 3 -93 8 -99 12 -17 10 -3 35 29 52 43 22 144 124 162 164 8 19
18 64 22 100 6 64 5 66 -27 97 -59 57 -125 67 -211 32z m138 -83 c51 -22 47
-48 -23 -159 -13 -20 -27 -37 -32 -37 -4 0 -19 -12 -33 -26 -19 -19 -40 -27
-81 -31 -73 -8 -90 5 -81 61 12 72 73 147 150 185 49 24 56 25 100 7z"/>
<path d="M8587 29273 c-128 -16 -229 -34 -247 -44 -24 -12 -123 -48 -153 -55
-15 -3 -30 -10 -33 -15 -3 -5 -12 -9 -21 -9 -19 0 -180 -77 -188 -91 -4 -5
-12 -9 -20 -9 -15 0 -86 -45 -95 -60 -3 -5 -30 -20 -60 -34 -53 -23 -140 -96
-140 -116 0 -6 -9 -10 -19 -10 -11 0 -29 -12 -41 -27 -27 -34 -80 -70 -110
-75 -17 -2 -31 -17 -47 -50 -13 -27 -28 -48 -34 -48 -12 0 -58 -51 -59 -66 0
-19 -48 -57 -61 -48 -9 5 -10 2 -6 -9 4 -10 -7 -32 -28 -59 -19 -24 -47 -58
-62 -77 -16 -19 -43 -49 -60 -67 -18 -18 -33 -35 -33 -39 0 -16 -52 -115 -61
-115 -5 0 -9 -5 -9 -11 0 -5 -13 -37 -30 -71 -16 -33 -30 -65 -30 -72 0 -7 -6
-18 -12 -24 -7 -7 -24 -47 -39 -90 -15 -42 -31 -90 -37 -107 -62 -171 -75
-273 -76 -560 -1 -235 4 -278 46 -430 66 -238 242 -394 544 -479 162 -45 536
-81 854 -81 161 0 179 2 221 23 25 12 48 22 51 22 4 0 37 20 74 45 36 25 75
45 85 45 11 0 19 4 19 10 0 5 14 22 30 37 31 27 39 60 18 81 -25 25 -58 12
-113 -43 -31 -30 -60 -55 -65 -55 -6 0 -29 -12 -52 -27 -49 -30 -84 -40 -187
-53 -71 -9 -130 -6 -456 20 -66 6 -163 13 -215 15 -104 6 -237 30 -287 51 -17
8 -39 14 -48 14 -25 0 -169 77 -237 127 -79 58 -129 138 -173 276 -20 61 -33
117 -31 124 3 7 1 26 -5 41 -15 38 -20 335 -8 472 6 63 19 149 30 190 11 41
24 91 28 110 8 34 51 159 73 210 27 66 41 96 49 110 5 8 15 26 21 40 7 14 23
39 35 56 13 17 23 35 23 39 0 18 125 195 137 195 8 0 17 8 20 18 10 27 158
182 227 237 21 17 58 49 83 73 25 23 49 42 52 42 3 0 20 12 36 26 34 30 95 72
134 93 14 8 56 33 92 57 37 24 85 51 108 60 23 9 41 20 41 24 0 4 12 11 26 14
14 4 45 15 68 26 59 27 167 67 196 73 14 3 63 15 110 27 66 17 123 22 260 25
96 2 198 0 225 -6 28 -5 70 -13 95 -18 46 -7 64 -13 207 -62 92 -32 303 -134
368 -179 124 -85 218 -253 265 -470 6 -30 16 -71 21 -91 11 -42 13 -269 4
-325 -29 -171 -48 -224 -135 -384 -51 -92 -145 -223 -202 -282 -21 -22 -38
-44 -38 -51 0 -7 -8 -19 -17 -28 -10 -8 -31 -33 -48 -54 -32 -42 -210 -230
-259 -274 -69 -62 -105 -90 -168 -135 -38 -26 -68 -51 -68 -55 0 -7 -3 -8
-107 -59 -37 -18 -88 -45 -113 -60 -25 -15 -63 -33 -85 -41 -22 -7 -47 -20
-56 -28 -9 -7 -32 -15 -50 -17 -19 -2 -45 -6 -59 -9 -14 -4 -65 -13 -115 -22
-49 -9 -106 -20 -125 -25 -19 -5 -74 -14 -123 -20 -48 -7 -90 -16 -93 -21 -2
-5 0 -18 6 -30 11 -20 17 -21 98 -14 48 4 91 11 97 16 5 5 22 9 38 9 44 0 165
29 232 56 33 13 66 24 73 24 7 0 20 4 30 9 9 5 42 16 72 25 31 8 82 29 115 46
32 16 64 30 71 30 6 0 17 7 24 15 7 8 37 27 67 41 30 15 57 33 60 40 3 8 27
27 54 44 28 17 52 37 55 45 4 8 12 15 19 15 7 0 64 54 128 120 64 66 120 120
126 120 6 0 11 5 11 11 0 6 20 29 45 52 25 24 45 48 45 55 0 6 4 12 8 12 4 0
15 13 24 28 10 16 44 57 78 92 33 35 60 69 60 75 0 6 12 22 26 36 14 13 39 47
55 75 17 29 39 54 50 57 12 3 18 10 14 16 -5 10 20 68 36 81 13 10 69 139 69
157 0 10 6 27 14 38 28 42 48 302 32 440 -22 196 -73 369 -147 500 -17 30 -56
79 -86 110 -53 53 -205 151 -282 181 -20 8 -58 25 -86 38 -247 115 -515 160
-758 129z"/>
<path d="M20467 29203 c-3 -5 -8 -42 -12 -83 -4 -41 -14 -84 -22 -97 -13 -20
-12 -25 8 -52 29 -40 79 -43 98 -7 13 24 12 51 -7 148 -12 67 -49 117 -65 91z"/>
<path d="M20728 28534 c-16 -8 -28 -19 -28 -23 0 -5 18 -23 39 -40 41 -33 79
-39 126 -21 25 10 26 12 13 33 -9 12 -25 27 -37 33 -13 7 -28 17 -34 23 -15
15 -46 13 -79 -5z"/>
<path d="M21058 28443 c-31 -16 -36 -34 -13 -53 11 -10 15 -10 15 0 0 6 6 10
13 7 7 -2 11 -16 9 -33 -3 -25 1 -29 23 -30 26 -2 29 3 25 46 -2 29 -27 80
-38 79 -4 -1 -19 -8 -34 -16z"/>
<path d="M21340 28429 c-19 -12 -57 -41 -85 -65 -42 -37 -56 -44 -92 -44 l-43
0 0 -49 c0 -51 -1 -52 -108 -136 -47 -36 -53 -49 -46 -95 4 -25 8 -47 10 -49
11 -12 61 18 73 44 24 53 41 66 76 59 37 -7 60 14 52 47 -8 31 19 68 100 137
85 74 111 85 153 71 31 -11 34 -18 45 -104 19 -151 20 -286 2 -320 -22 -44
-10 -99 23 -103 35 -4 53 15 75 78 10 30 32 76 48 103 25 41 33 47 62 47 41 0
64 -29 90 -113 22 -70 58 -109 121 -131 41 -14 54 -14 103 -2 112 28 116 28
162 -6 76 -55 149 -58 194 -8 10 11 28 20 41 20 26 0 112 68 113 90 1 23 39
62 125 126 43 32 92 75 110 95 17 20 41 40 54 44 18 5 22 13 20 33 -3 29 -24
38 -64 28 -13 -4 -57 -36 -96 -72 -39 -36 -96 -83 -127 -104 -31 -21 -72 -52
-91 -68 -32 -28 -34 -31 -22 -57 12 -26 11 -30 -15 -51 -68 -56 -138 -68 -223
-38 -42 15 -60 28 -60 47 0 5 29 39 64 75 137 145 177 303 87 351 -28 15 -88
-5 -109 -37 -15 -23 -30 -87 -64 -280 l-12 -64 -54 -24 c-30 -13 -69 -24 -86
-24 -36 0 -96 33 -96 54 0 8 -7 17 -16 20 -9 4 -13 13 -10 24 4 10 -3 37 -14
60 -11 22 -20 47 -20 55 0 8 -9 26 -21 41 -16 20 -29 26 -59 26 -33 0 -41 -5
-58 -33 -16 -28 -25 -34 -53 -33 -19 0 -41 -4 -51 -8 -14 -6 -16 -2 -12 31 2
21 5 81 8 133 3 86 1 98 -19 128 -48 70 -120 90 -185 51z m870 -272 c0 -13 -9
-32 -20 -42 -19 -18 -20 -17 -20 4 0 27 17 61 30 61 6 0 10 -11 10 -23z"/>
<path d="M17564 28268 c-52 -19 -88 -55 -122 -122 -61 -123 -67 -153 -77 -346
l-7 -114 33 -64 c32 -60 35 -63 63 -58 15 3 35 6 42 6 19 0 17 17 -4 48 -31
46 -62 142 -62 193 0 42 3 51 24 60 20 10 33 6 86 -25 138 -81 270 -120 415
-120 105 -1 195 18 195 41 0 7 -11 20 -25 29 -20 13 -40 15 -103 10 -115 -10
-222 13 -397 83 -143 58 -185 82 -185 105 0 24 118 82 267 131 84 29 159 57
165 63 8 8 9 18 0 36 -22 50 -214 77 -308 44z m44 -75 c-2 -13 -15 -19 -42
-21 -41 -4 -43 12 -2 28 34 14 48 11 44 -7z"/>
<path d="M20245 28231 c-22 -4 -67 -20 -101 -37 -63 -30 -94 -68 -153 -186
-20 -41 -28 -48 -52 -48 -26 0 -29 -3 -29 -33 0 -18 4 -37 8 -42 4 -6 16 -37
26 -70 29 -96 49 -128 97 -152 62 -33 116 -30 202 11 70 32 187 129 187 153 0
7 -16 15 -34 19 -31 5 -43 0 -99 -41 -112 -83 -216 -98 -277 -40 -60 57 -33
101 76 125 84 19 198 107 277 212 33 45 34 58 5 85 -21 19 -83 55 -90 52 -2
-1 -21 -5 -43 -8z m30 -105 c15 -23 14 -25 -17 -59 -49 -52 -125 -92 -175 -92
-24 0 -43 4 -43 9 0 20 113 118 163 142 29 13 53 24 54 24 2 0 10 -11 18 -24z"/>
<path d="M8168 28069 c-12 -6 -18 -22 -18 -43 0 -27 11 -43 63 -93 54 -52 69
-61 112 -67 43 -6 52 -4 67 14 23 28 16 40 -40 74 -26 17 -65 49 -87 72 -44
46 -71 58 -97 43z"/>
<path d="M16557 28063 c-44 -7 -64 -60 -73 -196 -12 -204 62 -355 183 -373
110 -16 246 30 386 130 117 84 178 171 191 270 6 46 4 50 -32 86 -43 44 -118
70 -196 70 -76 -1 -172 -24 -214 -53 -20 -14 -49 -31 -64 -38 -16 -7 -28 -16
-28 -21 0 -10 -47 -52 -88 -80 -26 -17 -30 -16 -80 18 -11 7 25 82 55 115 29
32 33 41 23 58 -6 12 -16 20 -23 20 -7 -1 -24 -4 -40 -6z m512 -103 c74 -10
111 -38 111 -82 0 -22 -18 -46 -84 -111 -67 -67 -102 -91 -180 -130 -195 -97
-290 -87 -343 37 -23 50 -17 82 20 105 17 11 55 36 82 55 28 19 56 35 63 35 7
1 31 15 54 31 22 17 48 30 58 30 9 0 21 5 27 11 6 6 35 14 64 19 30 4 56 8 59
9 3 0 34 -4 69 -9z"/>
<path d="M20663 28062 c-6 -4 -11 -51 -11 -120 -1 -62 -4 -117 -7 -123 -6 -9
13 -77 25 -90 3 -4 23 -9 45 -12 l40 -6 0 47 c0 26 -4 53 -9 60 -8 14 3 127
19 178 4 13 0 28 -12 41 -19 22 -71 36 -90 25z"/>
<path d="M21198 28038 c-3 -65 -5 -73 -17 -103 -12 -28 -10 -90 3 -103 4 -3
15 -1 25 5 14 9 22 8 34 -5 9 -9 19 -14 21 -11 14 14 1 155 -15 165 -5 3 -9
18 -9 33 0 26 -16 51 -32 51 -4 0 -9 -15 -10 -32z"/>
<path d="M24306 28005 c-5 -13 -9 -13 -26 -3 -17 11 -22 10 -30 -1 -6 -11 -12
-12 -22 -4 -15 11 -88 5 -88 -8 0 -18 32 -26 141 -32 54 -4 55 -3 51 20 -3 18
0 23 17 23 11 0 21 5 21 10 0 16 -57 12 -64 -5z"/>
<path d="M23550 28000 c0 -5 5 -10 10 -10 6 0 10 5 10 10 0 6 -4 10 -10 10 -5
0 -10 -4 -10 -10z"/>
<path d="M23763 27984 c-7 -18 17 -38 31 -24 11 11 1 40 -14 40 -6 0 -13 -7
-17 -16z"/>
<path d="M23831 27991 c-11 -7 -10 -11 7 -20 26 -14 49 -14 58 0 13 22 -37 38
-65 20z"/>
<path d="M24027 27986 c-8 -20 2 -26 45 -26 26 0 38 4 38 14 0 27 -74 37 -83
12z"/>
<path d="M24393 27980 c-26 -10 -31 -30 -9 -30 24 0 66 19 66 30 0 12 -27 12
-57 0z"/>
<path d="M7527 27843 c-14 -13 -7 -70 11 -86 15 -13 53 -21 88 -18 20 2 24 31
9 61 -18 34 -89 63 -108 43z"/>
<path d="M8630 27595 c-7 -8 -21 -15 -32 -15 -12 0 -24 -12 -33 -35 -8 -19
-28 -49 -44 -67 -15 -18 -36 -48 -45 -65 -9 -18 -20 -33 -24 -33 -4 0 -16 -15
-27 -32 -10 -18 -35 -49 -54 -68 -20 -20 -52 -54 -72 -76 -67 -73 -151 -139
-243 -189 -84 -46 -96 -50 -156 -49 -88 2 -147 33 -233 123 -37 39 -71 71 -76
71 -4 0 -16 -9 -25 -19 -15 -17 -16 -22 -3 -53 21 -50 123 -147 183 -175 29
-13 77 -29 107 -35 48 -10 62 -9 128 12 41 13 94 33 119 46 61 31 168 118 239
195 146 159 180 197 197 225 10 16 21 31 24 34 3 3 13 16 22 30 10 14 32 45
49 70 20 28 32 58 33 79 1 38 -14 50 -34 26z"/>
<path d="M21669 27400 c-21 -12 -65 -104 -74 -155 -4 -22 -10 -44 -14 -50 -13
-17 -34 -98 -37 -138 -1 -21 -7 -43 -12 -50 -6 -7 -17 -49 -26 -93 -19 -104
-43 -156 -68 -149 -9 4 -26 1 -38 -5 -16 -8 -20 -8 -20 3 0 8 -9 26 -20 40
-14 17 -20 40 -20 74 0 26 -7 68 -16 92 -8 24 -13 50 -10 58 7 18 -18 68 -44
86 -35 24 -84 8 -119 -39 -25 -36 -33 -41 -58 -36 -15 3 -45 20 -65 38 -77 69
-192 72 -345 8 -35 -15 -63 -30 -63 -35 0 -15 -81 -6 -90 11 -14 27 -30 176
-24 226 5 41 3 52 -15 68 -19 17 -23 17 -58 3 -48 -19 -54 -53 -23 -135 12
-31 29 -77 38 -100 8 -24 21 -46 28 -49 8 -3 14 -9 14 -15 0 -5 7 -16 15 -24
25 -25 19 -79 -10 -98 -14 -9 -39 -31 -55 -48 -23 -24 -27 -34 -20 -49 6 -10
10 -27 10 -39 0 -17 5 -21 28 -18 19 2 31 12 41 36 13 29 19 32 58 32 52 0 69
-21 79 -96 8 -64 37 -100 87 -108 20 -4 37 -3 37 1 -1 34 -83 183 -101 183 -5
0 -9 6 -9 13 0 8 -11 24 -25 37 -45 42 -31 67 60 113 96 48 261 66 321 34 38
-20 63 -85 46 -120 -6 -12 -16 -39 -22 -60 -11 -35 -10 -40 11 -58 15 -13 34
-19 54 -17 30 3 30 3 27 59 -3 46 1 65 26 110 31 58 54 69 105 50 18 -7 27
-18 27 -33 0 -27 27 -108 42 -125 6 -7 8 -19 5 -26 -6 -17 47 -127 70 -144 48
-37 116 9 139 94 12 45 19 67 49 153 25 71 37 111 40 139 3 26 53 166 76 216
15 34 33 59 52 73 20 15 22 43 5 60 -14 14 -66 15 -89 2z"/>
<path d="M22107 27349 c-41 -10 -109 -52 -144 -90 -26 -29 -43 -88 -43 -151 0
-41 -2 -46 -20 -41 -24 6 -50 -13 -50 -37 0 -10 19 -35 43 -57 23 -21 55 -57
72 -79 50 -67 98 -92 178 -93 58 -1 202 45 298 95 57 30 69 41 69 61 0 23 -2
24 -47 17 -27 -4 -57 -13 -68 -20 -11 -6 -61 -26 -111 -43 -126 -43 -244 -41
-244 4 0 7 10 17 23 21 64 20 202 158 218 218 21 78 27 139 15 158 -20 33
-124 54 -189 37z m117 -98 c16 -18 16 -21 -4 -64 -12 -25 -49 -75 -82 -111
-49 -53 -66 -65 -92 -66 -17 0 -42 -1 -56 -2 -24 -3 -25 -1 -22 42 7 90 59
161 147 201 52 24 88 24 109 0z"/>
<path d="M23322 27139 c2 -6 8 -10 13 -10 5 0 11 4 13 10 2 6 -4 11 -13 11 -9
0 -15 -5 -13 -11z"/>
<path d="M23350 26511 c0 -6 5 -13 10 -16 6 -3 10 1 10 9 0 9 -4 16 -10 16 -5
0 -10 -4 -10 -9z"/>
<path d="M10360 26140 c-102 -5 -216 -11 -255 -14 -38 -4 -151 -8 -250 -11
-99 -3 -202 -7 -230 -10 -27 -3 -160 -8 -295 -11 -135 -3 -272 -8 -305 -10
-33 -2 -67 -5 -75 -5 -8 0 -89 -5 -180 -10 -314 -18 -388 -20 -945 -24 -1219
-9 -1587 -8 -1765 5 -203 16 -690 15 -768 -1 -33 -6 -66 -22 -85 -39 -47 -41
-125 -199 -150 -305 -35 -144 -47 -202 -47 -231 0 -17 -5 -44 -10 -60 -6 -16
-12 -60 -15 -99 -3 -38 -9 -119 -13 -180 -4 -60 -7 -162 -5 -225 2 -63 3 -131
3 -150 0 -44 17 -197 30 -270 30 -169 50 -322 60 -455 7 -82 18 -199 26 -258
12 -96 18 -195 12 -198 -2 -1 -82 -3 -178 -5 -96 -2 -258 -8 -360 -14 -102 -6
-230 -13 -285 -15 -107 -5 -142 -7 -560 -30 -336 -18 -435 -23 -655 -30 -96
-3 -233 -8 -305 -10 -71 -3 -223 -8 -337 -10 -114 -3 -240 -7 -280 -9 -40 -3
-136 -8 -213 -11 -259 -12 -424 -43 -451 -86 -3 -6 3 -21 15 -32 19 -20 24
-20 63 -8 98 29 215 43 558 66 270 19 369 23 780 31 173 3 344 7 380 9 36 2
126 6 200 9 175 9 297 15 390 22 41 3 111 7 155 9 44 2 125 6 180 9 353 21
454 26 570 31 72 3 165 9 207 15 52 6 86 6 107 -1 32 -11 34 -17 47 -184 3
-44 19 -147 36 -229 16 -81 27 -150 25 -152 -2 -3 -7 9 -10 26 -7 34 -73 110
-122 140 -34 21 -146 60 -174 60 -9 0 -35 18 -58 39 -51 48 -101 65 -162 57
-88 -12 -256 -112 -313 -188 -13 -18 -35 -60 -48 -93 -12 -33 -27 -70 -33 -82
-5 -11 -8 -66 -5 -120 4 -117 33 -188 100 -248 137 -124 339 -124 564 1 29 16
69 39 91 51 42 23 81 73 108 138 9 22 26 58 36 80 10 22 19 52 19 67 0 34 18
46 25 16 6 -25 32 -150 45 -213 5 -22 23 -96 40 -165 18 -69 36 -145 40 -170
5 -25 14 -60 20 -78 7 -18 10 -35 7 -38 -2 -3 2 -26 10 -52 16 -55 31 -129 39
-192 2 -25 9 -58 13 -75 5 -16 14 -73 20 -125 21 -174 32 -254 46 -335 7 -44
13 -87 13 -95 0 -8 9 -85 21 -171 11 -86 21 -180 22 -210 0 -30 4 -99 9 -154
5 -55 12 -152 15 -215 3 -63 10 -171 16 -240 22 -293 20 -407 -7 -538 -6 -29
-2 -37 34 -70 65 -60 180 -111 306 -137 61 -13 123 -28 139 -34 29 -11 35 -26
15 -34 -7 -3 22 -6 64 -6 42 -1 123 -10 180 -22 91 -18 123 -20 273 -13 328
13 605 3 902 -32 47 -6 76 -29 46 -38 -50 -14 -272 -44 -573 -76 -47 -5 -128
-14 -180 -20 -52 -6 -196 -10 -320 -9 -290 2 -277 3 -305 -26 -23 -22 -25 -32
-25 -109 0 -56 12 -147 34 -263 73 -378 79 -509 63 -1343 -4 -195 -9 -517 -12
-715 -8 -520 -22 -752 -55 -925 -6 -30 -15 -78 -20 -107 -4 -29 -13 -67 -18
-85 -6 -18 -18 -72 -27 -119 -24 -130 -6 -157 95 -144 25 4 160 8 300 10 242
3 291 8 490 44 295 54 367 63 565 71 274 11 490 40 555 75 14 8 60 24 103 37
42 12 77 26 77 30 0 4 -9 34 -19 65 -26 77 -34 153 -32 298 0 66 -2 154 -7
195 -4 41 -4 125 1 185 13 172 17 2810 4 2873 -5 28 -8 55 -4 58 9 9 488 -36
537 -51 8 -2 186 -25 395 -50 209 -25 412 -50 450 -55 261 -34 653 -75 864
-90 175 -12 186 -16 195 -70 3 -22 2 -49 -3 -59 -6 -10 -13 -197 -16 -427 -4
-225 -8 -443 -10 -484 -4 -92 -13 -321 -21 -580 -7 -204 -7 -1025 0 -1120 2
-30 7 -143 11 -250 3 -107 8 -205 10 -217 3 -12 7 -111 10 -220 3 -109 10
-239 16 -289 5 -50 9 -97 7 -105 -2 -9 11 -16 42 -20 172 -25 284 -37 340 -37
36 1 88 0 115 -1 78 -4 105 -2 105 9 0 29 -47 35 -345 46 -116 4 -177 10 -191
19 -20 13 -21 25 -29 242 -4 125 -9 251 -11 278 -1 28 -6 154 -9 280 -4 127
-9 233 -12 238 -6 10 -6 1145 1 1155 3 5 7 121 11 258 3 137 8 337 11 444 9
292 9 735 0 817 -9 72 -9 72 17 78 14 4 30 4 35 1 6 -3 98 -6 206 -7 170 0
198 -3 217 -18 22 -17 22 -18 21 -517 0 -627 -10 -1532 -17 -1684 -6 -123 -27
-298 -46 -389 -6 -31 -11 -69 -10 -86 0 -16 -6 -59 -14 -95 -8 -36 -21 -101
-30 -145 -9 -44 -22 -103 -30 -131 -8 -28 -15 -60 -15 -72 0 -12 -6 -36 -14
-54 -22 -53 -45 -139 -52 -199 -5 -45 -2 -63 14 -95 54 -106 367 -269 581
-303 71 -11 107 -34 81 -51 -8 -5 -25 -10 -38 -10 -12 0 -50 -8 -83 -17 -112
-31 -197 -144 -250 -330 -19 -70 -64 -342 -75 -458 -2 -27 -12 -108 -21 -180
-13 -106 -14 -184 -9 -425 4 -174 3 -342 -3 -410 -24 -272 -35 -874 -21 -1140
6 -118 13 -336 16 -485 5 -250 13 -410 32 -576 11 -91 33 -116 167 -184 130
-65 194 -83 461 -124 296 -46 406 -54 609 -47 99 3 371 7 605 8 464 2 664 10
810 33 114 17 178 25 245 29 28 2 58 4 68 5 9 0 17 9 17 19 0 55 -101 75 -235
48 -186 -37 -430 -47 -1240 -49 l-610 -2 -170 28 c-368 60 -419 73 -538 135
-90 46 -120 82 -112 133 4 21 2 80 -4 131 -6 51 -13 217 -16 368 -5 250 -8
313 -20 490 -7 107 -7 408 0 630 10 328 11 345 24 580 10 168 10 246 1 355
-11 124 -9 252 5 390 20 192 61 484 85 590 6 28 12 61 15 75 9 50 41 136 70
186 56 98 166 139 443 165 71 6 134 18 160 29 50 22 124 33 417 59 274 25 727
36 822 20 123 -20 230 -68 288 -129 29 -30 29 -32 11 -45 -18 -14 -18 -15 5
-24 27 -10 60 -44 79 -80 15 -30 28 -120 35 -251 10 -204 17 -277 37 -415 22
-154 25 -309 19 -960 -3 -252 0 -405 8 -480 7 -60 14 -146 16 -190 3 -44 7
-134 10 -200 9 -160 10 -650 3 -800 -3 -66 -11 -154 -16 -195 -11 -75 -21
-177 -26 -260 -5 -80 25 -130 79 -130 15 0 30 34 21 48 -10 16 -8 167 3 277
32 332 33 1017 1 1335 -20 202 -32 546 -23 710 15 297 8 676 -15 850 -12 85
-23 205 -27 265 -9 168 -25 314 -42 373 -8 30 -13 63 -10 74 4 14 -8 33 -41
66 -26 26 -64 68 -85 95 -22 28 -60 58 -90 74 -56 28 -175 63 -219 63 -37 0
-128 22 -128 31 0 10 153 37 310 55 74 8 162 19 195 25 33 5 128 13 210 17
l150 7 3 25 c2 17 -6 34 -23 50 l-25 24 -123 -13 c-109 -11 -365 -47 -502 -71
-27 -4 -70 -15 -95 -23 -162 -54 -424 -98 -699 -118 -80 -5 -238 -21 -351 -35
-381 -47 -548 -31 -821 77 -178 70 -359 185 -359 227 0 10 7 42 16 72 9 29 22
81 29 114 8 34 26 111 40 171 15 61 31 135 36 165 5 30 15 87 23 125 19 91 49
338 61 500 19 264 39 2002 25 2200 l-5 70 190 1 c105 0 253 4 330 8 181 10
184 8 151 -84 -13 -36 -26 -93 -30 -128 l-6 -64 63 -59 c34 -33 85 -72 112
-87 44 -24 61 -27 145 -27 101 0 138 12 275 88 135 74 175 270 75 361 -21 19
-49 40 -61 47 l-23 12 22 8 c58 22 199 22 333 0 133 -22 164 -29 329 -75 47
-13 128 -34 180 -46 120 -29 137 -40 145 -93 3 -23 10 -69 15 -102 5 -33 14
-147 20 -253 11 -197 15 -315 24 -827 3 -159 8 -382 12 -495 14 -512 19 -1063
10 -1078 -4 -7 -10 -79 -21 -258 -6 -97 -3 -106 45 -117 44 -11 53 4 45 70 -3
32 -1 115 5 183 18 183 15 677 -5 1075 -3 50 -7 254 -10 455 -7 461 -17 765
-30 970 -2 30 -4 93 -5 140 -2 72 -20 193 -46 312 -4 16 -21 41 -39 57 -33 28
-129 56 -424 121 -150 33 -153 38 -41 72 121 37 196 67 239 95 66 44 138 72
192 75 51 2 144 -8 160 -18 4 -2 49 -6 101 -8 51 -2 154 -9 228 -15 155 -13
449 -38 530 -46 30 -3 128 -12 216 -20 89 -8 168 -17 175 -20 24 -8 201 -26
459 -45 91 -7 179 -14 195 -16 17 -1 45 -3 63 -3 24 -1 45 -12 77 -42 37 -34
50 -40 72 -36 46 9 636 -13 660 -25 20 -10 22 -16 16 -68 -3 -32 -2 -88 2
-125 8 -80 29 -108 78 -103 36 3 46 27 28 62 -20 39 -51 148 -51 181 0 53 22
64 110 54 146 -17 469 -43 665 -55 61 -3 113 -8 116 -10 4 -2 94 -7 200 -10
107 -4 204 -11 217 -15 19 -8 22 -15 22 -70 0 -54 3 -64 29 -90 16 -16 38 -29
49 -29 39 0 138 62 193 120 49 51 62 60 92 60 37 0 605 -31 922 -50 176 -11
557 -40 785 -60 143 -13 372 -39 785 -91 322 -41 405 -43 405 -14 0 8 -8 18
-17 24 -30 15 -163 40 -278 51 -101 10 -409 46 -600 70 -222 28 -671 65 -1105
90 -102 6 -246 15 -320 20 -74 5 -216 12 -315 16 -99 3 -195 10 -213 16 -31 9
-32 11 -19 36 77 151 80 173 37 217 -46 48 -116 69 -198 62 -35 -4 -70 -12
-78 -18 -18 -15 -80 -3 -88 16 -14 36 -73 4 -63 -34 3 -12 -4 -28 -19 -42 -33
-31 -30 -62 7 -92 30 -23 31 -27 24 -75 l-7 -50 -54 -7 c-29 -3 -57 -4 -62 -2
-4 3 -91 8 -192 12 -102 4 -329 20 -504 36 -176 16 -347 29 -381 29 -103 0
-149 36 -82 65 80 36 97 73 40 92 -65 22 -112 -15 -128 -100 -9 -44 11 -42
-310 -27 -207 10 -265 20 -265 45 0 8 34 44 75 82 41 38 75 76 75 84 0 8 11
32 24 55 13 23 26 58 30 77 6 34 4 38 -26 57 -54 32 -110 36 -181 10 -34 -12
-71 -28 -83 -35 -25 -16 -97 2 -89 22 2 7 7 35 11 62 6 47 4 52 -25 82 -28 28
-37 31 -75 27 -62 -7 -101 -47 -168 -172 -26 -49 -31 -140 -14 -230 9 -44 13
-82 10 -85 -9 -9 -85 -5 -137 7 -48 12 -472 61 -702 82 -66 6 -154 15 -195 20
-41 6 -115 13 -165 16 -49 3 -164 12 -255 20 -91 8 -238 17 -328 20 -118 3
-169 8 -184 18 -19 14 -19 15 -2 67 9 30 20 95 24 144 8 105 -5 605 -20 750
-5 55 -12 132 -15 170 -6 83 -41 349 -55 418 -6 27 -10 65 -10 85 0 19 -6 63
-14 96 -8 34 -19 111 -26 171 -6 61 -15 128 -20 150 -14 66 -39 232 -54 360
-15 120 -31 241 -62 475 -9 69 -20 159 -25 200 -5 41 -16 125 -24 185 -8 61
-17 139 -21 175 -10 98 -12 110 -22 139 -17 44 -22 128 -9 140 8 6 37 5 87 -5
67 -13 215 -30 340 -39 25 -2 106 -9 180 -15 216 -19 242 -21 770 -61 85 -7
159 -15 163 -19 17 -15 -7 -38 -71 -68 -69 -32 -120 -67 -112 -75 3 -3 25 -8
50 -12 46 -7 46 -6 117 59 112 104 123 106 530 80 216 -13 348 -15 683 -10
714 12 1652 15 1975 6 171 -5 418 -11 550 -14 316 -8 562 -15 710 -21 66 -3
208 -8 315 -10 822 -19 1011 -26 1085 -42 88 -20 160 -22 177 -5 30 30 -59 65
-196 77 -39 4 -74 9 -78 11 -4 3 -227 9 -495 14 -269 5 -535 12 -593 15 -58 2
-235 7 -395 10 -159 3 -405 10 -545 15 -624 23 -1061 26 -2245 17 -631 -5
-766 -4 -920 10 -99 8 -250 17 -335 18 -162 2 -278 10 -370 25 -30 5 -237 23
-460 39 -223 17 -491 38 -595 46 -105 8 -220 15 -256 15 -94 0 -100 9 -104
149 -2 61 -8 132 -14 158 -26 118 -33 531 -16 998 10 310 7 608 -9 660 -11 37
-15 40 -46 40 -31 0 -35 -3 -33 -25 16 -184 20 -545 9 -795 -9 -226 -8 -602 3
-679 6 -39 15 -130 20 -203 5 -72 14 -141 21 -153 6 -11 12 -47 13 -78 l2 -57
-40 1 c-22 1 -92 7 -155 13 -231 24 -846 58 -1160 66 -140 3 -311 8 -380 10
-207 9 -624 10 -646 2 -18 -6 -26 -1 -44 27 -12 20 -19 39 -16 44 5 9 -5 152
-24 327 -6 55 -12 123 -15 150 -2 28 -7 82 -10 120 -3 39 -9 111 -14 160 -5
50 -9 144 -11 210 -1 66 -4 123 -6 126 -2 4 -4 90 -3 191 1 100 1 196 0 212
-1 36 -27 66 -56 66 -34 0 -47 -23 -41 -72 4 -24 8 -126 11 -228 5 -208 22
-497 34 -580 5 -30 7 -60 4 -66 -2 -7 2 -50 11 -96 8 -46 18 -121 21 -168 4
-47 15 -156 26 -243 11 -87 17 -163 13 -169 -4 -6 -25 -8 -58 -3 -104 14 -192
18 -566 30 -85 3 -204 7 -265 10 -60 3 -231 8 -380 11 -148 3 -308 7 -355 9
-47 2 -173 4 -281 5 -107 1 -364 8 -570 17 -206 8 -405 16 -444 17 -38 2 -137
6 -220 9 -471 21 -1114 27 -1450 16 -110 -4 -292 -10 -404 -14 -112 -3 -226
-10 -254 -16 -85 -16 -112 -12 -125 16 -7 14 -12 54 -12 88 0 70 -34 418 -51
517 -67 404 -87 854 -49 1130 37 272 64 382 123 505 59 123 64 124 422 132
190 4 320 2 405 -7 136 -13 982 -16 1380 -4 124 4 232 7 240 7 8 -1 170 -1
360 -1 190 0 359 0 375 -1 17 0 93 4 170 9 77 6 190 13 250 15 61 2 148 6 195
9 126 8 286 15 455 21 206 7 561 24 670 31 173 12 213 12 610 15 479 2 539 -1
820 -47 262 -43 500 -64 745 -64 320 0 442 -24 661 -130 46 -22 98 -40 116
-40 49 0 103 29 103 56 0 25 -22 34 -90 34 -27 0 -67 10 -100 26 -217 102
-407 134 -794 134 -195 0 -333 12 -581 50 -77 12 -198 28 -270 36 -160 17
-704 25 -955 14z m-3230 -2591 c223 -6 416 -12 430 -12 22 0 184 -8 450 -21
52 -3 181 -8 285 -11 105 -3 251 -8 325 -10 74 -2 261 -7 415 -11 154 -3 330
-7 390 -9 61 -2 218 -7 350 -10 132 -3 255 -8 272 -11 18 -3 126 -5 240 -5
232 0 263 -7 263 -57 1 -15 3 -74 5 -132 2 -58 6 -271 9 -475 5 -357 12 -621
21 -810 3 -49 7 -162 10 -250 3 -88 10 -290 15 -450 13 -370 12 -319 11 -1075
0 -52 5 -182 10 -289 5 -107 7 -196 4 -199 -2 -3 -293 -4 -646 -3 -445 1 -665
-2 -721 -10 -124 -18 -113 -51 -134 381 -3 69 -1 160 4 203 12 93 5 127 -32
147 -26 14 -28 14 -47 -9 -17 -21 -19 -39 -19 -175 1 -120 28 -483 40 -531 1
-5 2 -14 1 -20 -1 -6 -123 -10 -344 -10 -410 0 -544 -11 -513 -42 12 -13 507
-16 666 -4 126 10 203 11 445 8 173 -3 1246 12 1253 17 19 12 42 -6 47 -37 3
-18 7 -84 9 -147 4 -113 18 -190 35 -190 10 0 12 32 11 194 0 94 -4 123 -16
137 -14 16 -14 18 7 30 16 8 48 10 113 4 106 -9 137 -10 591 -19 187 -3 369
-8 405 -11 64 -5 227 -12 470 -20 69 -2 163 -9 210 -14 198 -23 770 -31 770
-10 0 10 -37 22 -49 15 -5 -4 -20 -2 -33 3 -25 9 -230 23 -553 36 -71 3 -166
7 -210 10 -44 3 -143 7 -220 9 -77 2 -178 6 -225 9 -116 8 -365 19 -480 22
-52 1 -205 6 -340 11 -135 5 -282 8 -327 6 -77 -2 -82 -1 -102 24 -22 29 -28
69 -10 79 5 4 8 19 5 33 -3 15 -8 286 -11 602 -6 589 -13 1009 -20 1160 -20
454 -27 707 -30 1135 -3 401 -6 517 -19 587 -13 69 -13 93 -4 113 8 18 16 24
27 19 34 -15 146 -22 411 -28 755 -18 1195 -38 1645 -77 72 -6 168 -11 215
-11 67 0 92 -4 118 -20 17 -11 32 -20 33 -21 0 -1 2 -36 5 -77 5 -76 21 -214
29 -260 2 -14 9 -68 15 -120 6 -52 12 -102 15 -110 2 -8 9 -73 15 -145 6 -71
17 -166 24 -210 8 -44 13 -82 10 -86 -2 -4 2 -42 10 -86 8 -43 17 -105 21
-138 11 -109 45 -359 55 -400 5 -22 14 -83 20 -135 6 -52 20 -147 30 -210 24
-142 41 -254 45 -298 2 -18 6 -49 10 -69 13 -69 43 -470 44 -597 1 -71 4 -133
8 -138 7 -13 5 -512 -3 -546 -17 -69 -29 -80 -99 -87 -51 -6 -63 -10 -55 -20
8 -9 0 -22 -30 -49 -22 -20 -46 -36 -53 -36 -7 0 -30 -10 -52 -21 -58 -31
-208 -78 -295 -92 -86 -13 -182 -12 -211 4 -23 12 -303 63 -464 85 -263 36
-675 46 -786 20 -152 -35 -174 -56 -167 -168 l3 -63 -240 4 c-169 2 -246 7
-260 16 -14 9 -26 9 -43 2 -25 -11 -268 7 -587 45 -93 11 -188 22 -210 24
-150 15 -695 81 -945 114 -312 42 -488 60 -583 60 -88 0 -138 19 -130 51 6 20
-28 46 -73 55 -22 4 -49 -5 -114 -37 -85 -43 -86 -43 -200 -45 -261 -3 -503
23 -549 60 -10 8 -150 11 -460 11 l-446 0 -135 37 c-74 21 -182 46 -240 57
-202 39 -365 125 -345 183 16 46 17 284 1 443 -8 88 -20 252 -26 365 -6 113
-22 309 -36 435 -14 127 -29 262 -34 300 -4 39 -19 149 -33 245 -15 96 -28
191 -31 210 -9 77 -48 298 -61 350 -7 30 -37 152 -65 270 -29 118 -60 240 -70
270 -10 30 -30 111 -44 180 -28 135 -86 558 -79 576 2 7 39 10 101 10 53 -1
189 2 302 7 113 4 309 10 435 13 127 4 231 7 232 8 5 4 541 -5 893 -15z
m-2419 -339 c31 -17 22 -27 -28 -33 -27 -3 -58 -9 -70 -12 -18 -6 -23 -3 -23
12 0 10 5 24 12 31 15 15 82 16 109 2z m82 -110 c42 -37 55 -38 63 -5 8 33 26
32 112 -10 83 -40 116 -72 133 -133 42 -151 -60 -290 -281 -380 -202 -83 -340
-62 -437 66 -44 58 -57 110 -49 205 8 117 55 204 128 239 89 43 98 45 215 47
78 1 84 -1 116 -29z m10846 -3319 c10 -10 21 -35 25 -56 6 -32 3 -45 -23 -87
-56 -89 -37 -110 54 -58 153 87 305 108 305 41 0 -17 -53 -87 -82 -109 -10 -7
-24 -28 -32 -46 -8 -18 -27 -47 -44 -64 l-30 -30 -121 0 c-117 1 -121 2 -137
26 -12 18 -14 36 -10 67 6 38 4 45 -19 64 -34 26 -41 77 -21 159 20 88 38 112
81 112 21 0 43 -8 54 -19z m-7523 -241 c9 0 13 -4 10 -8 -3 -5 -19 -7 -35 -4
-17 2 -28 9 -25 14 3 5 13 7 21 4 8 -3 21 -6 29 -6z m43 -91 c23 -9 24 -11 16
-87 -5 -42 -10 -646 -12 -1342 -5 -1579 -2 -1432 -33 -1465 -23 -25 -25 -33
-23 -123 0 -54 10 -162 22 -242 13 -94 19 -187 18 -266 l-2 -122 -30 -10 c-95
-33 -266 -58 -455 -67 -185 -9 -417 -32 -492 -49 -35 -8 -90 -20 -123 -26 -33
-6 -78 -16 -100 -21 -109 -24 -214 -31 -478 -34 -349 -3 -331 -11 -292 130 36
130 45 186 64 376 11 112 23 319 27 459 4 140 8 280 9 310 1 30 5 258 10 505
4 248 9 453 11 457 2 3 4 150 5 325 0 300 -7 428 -31 603 -11 73 -14 95 -44
250 -20 106 -29 195 -23 222 l6 24 225 -1 c145 0 229 -4 236 -11 7 -7 0 -22
-23 -50 -50 -60 -66 -89 -81 -149 -16 -61 -12 -113 14 -165 35 -69 109 -109
215 -117 80 -6 114 2 215 52 136 67 174 91 216 138 74 83 72 150 -7 221 -44
40 -142 96 -167 96 -5 0 -17 8 -26 19 -16 18 -12 19 131 31 81 7 177 18 213
26 243 49 388 81 399 89 47 28 325 38 390 14z m9953 -25 c20 -4 47 -16 58 -27
26 -24 23 -64 -11 -131 -19 -40 -25 -44 -67 -50 -69 -9 -156 -7 -191 5 -28 10
-31 15 -31 52 0 42 14 114 23 124 3 2 27 11 54 18 54 15 110 18 165 9z m-6247
-30 c195 -5 255 -10 272 -22 28 -18 30 -32 4 -32 -22 0 -69 -35 -59 -45 4 -4
44 -1 90 7 75 12 83 15 86 37 4 22 6 23 55 17 29 -4 83 -13 120 -19 65 -12 67
-13 50 -29 -10 -9 -47 -24 -83 -32 -69 -17 -299 -38 -313 -29 -12 7 -698 6
-749 -2 -54 -8 -112 13 -98 35 6 8 10 24 10 36 0 43 53 66 186 80 32 3 61 8
64 11 3 3 30 2 60 -1 30 -3 167 -9 305 -12z m-4796 -185 c48 -24 70 -43 92
-77 41 -65 38 -87 -19 -142 -94 -91 -269 -167 -364 -158 -53 6 -96 31 -115 69
-15 29 -17 139 -3 171 5 13 14 41 19 63 6 22 23 53 37 69 26 27 31 28 85 22
34 -3 61 -2 64 4 3 6 37 10 74 10 56 0 79 -5 130 -31z m5098 -14 c4 -27 -118
-101 -130 -79 -4 8 -17 14 -28 14 -16 0 -19 4 -14 23 11 34 27 47 76 56 66 14
94 9 96 -14z m292 -11 c47 -10 81 -46 81 -89 0 -62 -36 -147 -79 -185 -55 -49
-176 -90 -266 -90 -99 1 -145 23 -191 96 l-36 56 48 50 c53 54 83 71 201 119
118 48 170 57 242 43z m5562 -34 c28 -16 23 -36 -13 -58 -49 -30 -73 -34 -118
-22 -37 10 -40 14 -40 45 0 18 6 36 13 38 23 10 138 7 158 -3z"/>
<path d="M6585 23193 c-11 -3 -24 -9 -29 -14 -6 -5 -18 -9 -28 -9 -10 0 -39
-21 -65 -46 -27 -26 -67 -53 -89 -61 -54 -19 -120 -75 -145 -125 -36 -70 -13
-156 58 -218 91 -80 257 -120 370 -90 71 19 193 78 231 111 18 16 36 29 41 29
15 0 147 134 169 171 28 46 28 98 1 133 -28 35 -123 82 -207 102 -66 16 -268
27 -307 17z m257 -74 c131 -27 188 -64 188 -122 0 -50 -160 -194 -254 -228
-20 -7 -36 -17 -36 -21 0 -19 -141 -58 -211 -58 -91 0 -178 53 -210 127 -29
67 -25 101 16 146 l35 39 95 -3 c52 -2 97 0 101 4 4 3 -5 20 -20 37 -30 37
-31 43 -10 60 47 40 172 47 306 19z"/>
<path d="M8843 23037 c-50 -28 -114 -153 -135 -262 -13 -73 -1 -170 34 -263
50 -135 166 -217 308 -217 63 1 86 6 140 31 118 56 258 178 308 266 54 97 39
202 -40 275 -39 37 -171 93 -243 105 -106 16 -177 7 -228 -28 -29 -20 -43 -38
-45 -57 -3 -23 0 -27 22 -27 14 0 42 10 63 21 33 19 49 21 133 17 114 -6 211
-44 250 -98 28 -40 38 -111 19 -148 -46 -90 -143 -181 -255 -237 -50 -25 -70
-30 -135 -30 -67 0 -81 4 -125 30 -68 43 -103 113 -116 235 -12 109 5 205 48
270 28 42 83 74 109 64 23 -9 18 20 -8 44 -26 24 -70 28 -104 9z"/>
<path d="M12080 23005 c-81 -18 -148 -56 -221 -125 -35 -34 -74 -68 -86 -77
-13 -8 -23 -20 -23 -26 0 -6 -8 -20 -18 -31 -24 -27 -42 -91 -42 -148 0 -131
156 -220 345 -198 157 18 259 55 432 156 161 94 209 189 147 288 -36 57 -128
124 -209 152 -56 20 -86 24 -169 23 -56 -1 -126 -7 -156 -14z m235 -45 c137
-22 235 -103 235 -194 0 -34 -6 -46 -48 -85 -86 -83 -314 -179 -478 -202 -145
-21 -216 6 -234 86 -22 94 -9 129 80 221 71 73 145 108 238 113 68 3 76 1 133
-33 58 -34 119 -48 119 -26 0 18 -42 54 -98 86 -80 45 -66 54 53 34z"/>
<path d="M6797 22083 c-101 -21 -169 -49 -254 -105 -122 -82 -187 -164 -213
-269 -10 -41 -9 -52 9 -87 25 -50 68 -77 147 -92 99 -19 143 -6 315 98 141 86
319 234 319 266 0 8 11 21 25 30 37 25 35 76 -6 110 -63 54 -214 75 -342 49z
m243 -68 c32 -17 39 -46 19 -87 -11 -23 -178 -169 -202 -177 -6 -2 -34 -18
-62 -36 -27 -17 -69 -43 -92 -58 -24 -15 -47 -27 -53 -27 -6 0 -21 -7 -34 -15
-33 -22 -116 -35 -140 -23 -50 27 -78 106 -55 151 31 57 96 130 146 163 55 36
73 39 143 23 11 -3 15 6 15 36 0 39 0 40 50 51 76 18 230 17 265 -1z"/>
<path d="M9112 22027 c-6 -7 -23 -62 -37 -122 -14 -61 -30 -128 -36 -150 -20
-84 -26 -173 -17 -270 9 -89 13 -103 36 -124 l26 -23 19 23 c15 19 18 33 13
69 -10 73 -8 250 2 263 5 7 12 36 15 66 4 29 10 58 15 65 5 6 15 34 22 63 6
29 18 57 26 64 20 16 17 46 -6 69 -23 23 -62 26 -78 7z"/>
<path d="M11993 21954 c-3 -9 2 -46 11 -84 9 -37 16 -85 16 -105 0 -21 11
-126 25 -234 14 -108 28 -215 31 -238 4 -32 12 -48 35 -63 16 -12 33 -18 39
-15 13 8 12 78 0 170 -21 148 -43 360 -42 395 1 8 -2 42 -5 74 -4 48 -11 66
-33 88 -31 31 -67 37 -77 12z"/>
<path d="M6655 21210 c-12 -19 15 -227 44 -347 16 -65 32 -135 35 -155 5 -26
15 -42 39 -57 48 -30 61 -13 53 68 -4 35 -11 72 -17 82 -20 38 -51 217 -51
299 -1 60 -5 90 -16 103 -16 19 -77 24 -87 7z"/>
<path d="M9048 20998 c-50 -13 -172 -141 -187 -195 -48 -170 56 -320 207 -299
50 7 182 75 224 115 14 14 38 37 52 50 32 31 40 68 31 139 -17 135 -95 203
-227 201 -35 -1 -80 -6 -100 -11z m201 -114 c26 -33 44 -99 36 -131 -16 -66
-155 -163 -234 -163 -31 0 -49 7 -73 29 -27 24 -32 36 -36 89 -9 121 31 171
153 191 99 17 132 13 154 -15z"/>
<path d="M11995 20880 c-3 -5 1 -23 9 -39 16 -29 44 -180 67 -345 12 -96 30
-126 74 -126 22 0 25 4 25 38 0 21 -4 63 -9 93 -5 30 -17 113 -26 184 -17 131
-37 186 -71 199 -24 9 -62 7 -69 -4z"/>
<path d="M6654 20253 c10 -230 34 -339 86 -388 23 -22 33 -26 42 -17 9 9 7 39
-10 129 -32 175 -36 225 -21 297 11 57 10 67 -5 90 -13 21 -24 26 -57 26 l-41
0 6 -137z"/>
<path d="M12053 20219 c4 -30 12 -110 18 -179 15 -180 18 -190 47 -216 44 -41
57 -29 56 51 -2 152 -18 356 -28 371 -7 8 -31 18 -55 21 l-44 6 6 -54z"/>
<path d="M8128 19653 c7 -3 16 -2 19 1 4 3 -2 6 -13 5 -11 0 -14 -3 -6 -6z"/>
<path d="M8180 19650 c0 -5 4 -10 9 -10 6 0 13 5 16 10 3 6 -1 10 -9 10 -9 0
-16 -4 -16 -10z"/>
<path d="M7880 19640 c0 -5 7 -10 15 -10 8 0 15 5 15 10 0 6 -7 10 -15 10 -8
0 -15 -4 -15 -10z"/>
<path d="M7695 19630 c3 -5 15 -10 26 -10 10 0 19 5 19 10 0 6 -12 10 -26 10
-14 0 -23 -4 -19 -10z"/>
<path d="M7578 19623 c12 -2 30 -2 40 0 9 3 -1 5 -23 4 -22 0 -30 -2 -17 -4z"/>
<path d="M7778 19623 c7 -3 16 -2 19 1 4 3 -2 6 -13 5 -11 0 -14 -3 -6 -6z"/>
<path d="M7285 19610 c-3 -5 1 -10 9 -10 9 0 16 5 16 10 0 6 -4 10 -9 10 -6 0
-13 -4 -16 -10z"/>
<path d="M7380 19610 c0 -5 5 -10 10 -10 6 0 10 5 10 10 0 6 -4 10 -10 10 -5
0 -10 -4 -10 -10z"/>
<path d="M6830 18323 c-23 -7 -92 -99 -134 -178 -32 -59 -39 -82 -43 -151 -11
-164 56 -254 190 -254 94 0 190 53 319 178 64 62 83 87 107 147 37 88 34 129
-14 178 -54 56 -118 81 -205 81 -41 0 -88 -1 -105 -2 -16 -2 -46 -1 -65 2 -19
2 -42 2 -50 -1z m310 -81 c21 -10 42 -32 54 -55 18 -37 18 -39 -4 -92 -24 -60
-87 -130 -173 -194 -174 -128 -257 -121 -278 24 -8 55 15 179 38 206 7 8 13
21 13 27 0 15 63 62 84 62 10 0 27 5 39 12 59 31 175 37 227 10z"/>
<path d="M6860 17545 c-15 -18 -7 -146 15 -240 51 -219 70 -277 98 -293 25
-15 28 -15 44 1 16 16 15 26 -26 187 -39 152 -43 178 -37 240 7 66 6 71 -18
95 -28 28 -58 32 -76 10z"/>
<path d="M7065 16627 c-21 -33 -25 -287 -6 -427 12 -83 19 -109 37 -127 54
-54 71 -17 55 114 -23 194 -24 259 -5 339 l18 77 -28 23 c-34 30 -51 30 -71 1z"/>
<path d="M2049 25292 c-35 -15 -121 -128 -177 -232 -62 -117 -70 -132 -90
-180 -25 -56 -68 -147 -86 -180 -8 -14 -34 -68 -59 -120 -25 -52 -57 -106 -71
-119 -39 -37 -33 -66 18 -85 28 -10 91 58 109 120 22 75 55 142 75 152 18 10
127 27 152 25 26 -3 153 27 203 48 71 30 100 20 121 -39 10 -26 24 -62 32 -80
8 -18 14 -38 14 -45 0 -7 6 -24 14 -38 7 -14 16 -43 20 -63 8 -40 41 -64 72
-52 14 5 16 15 11 54 -3 27 -12 64 -21 83 -8 19 -29 72 -47 118 -27 70 -30 87
-20 103 10 17 7 24 -21 56 -27 30 -40 61 -66 157 -18 66 -39 140 -47 165 -8
25 -19 64 -25 88 -11 42 -19 49 -75 65 -11 3 -27 2 -36 -1z m50 -181 c12 -35
21 -71 21 -79 0 -8 19 -61 41 -118 23 -58 39 -107 36 -111 -4 -3 -62 -14 -129
-24 -68 -10 -137 -23 -155 -29 -17 -6 -44 -10 -59 -8 -23 2 -30 9 -35 37 -5
26 -3 36 13 50 11 9 56 89 100 179 108 218 126 230 167 103z"/>
<path d="M3630 25200 c-17 -11 -99 -154 -168 -295 -44 -88 -122 -275 -122
-290 0 -8 -53 -123 -101 -218 -40 -81 -41 -106 -3 -121 48 -18 75 8 89 89 10
53 31 92 52 99 10 2 52 8 93 11 91 8 193 28 282 56 103 31 125 26 165 -43 57
-97 108 -104 83 -11 -7 26 -17 53 -22 60 -18 23 -3 47 36 58 49 14 55 29 22
50 -20 14 -32 15 -55 7 -27 -9 -33 -7 -59 19 -16 16 -35 49 -41 72 -13 41 -41
118 -121 328 -36 95 -44 107 -75 122 -42 20 -36 19 -55 7z m54 -182 c14 -35
42 -106 62 -158 20 -52 52 -126 71 -164 19 -37 33 -70 31 -71 -2 -2 -48 -11
-103 -20 -55 -8 -137 -24 -183 -35 -114 -27 -140 -26 -148 4 -8 31 9 83 41
126 14 19 25 38 25 43 0 5 6 23 14 40 30 66 78 184 93 227 32 93 60 96 97 8z"/>
<path d="M6705 25183 c-89 -7 -165 -28 -260 -74 -55 -27 -108 -56 -117 -66
-10 -10 -39 -36 -65 -58 -54 -45 -103 -108 -135 -175 -16 -34 -23 -72 -27
-151 -6 -105 -6 -106 -43 -147 -41 -46 -128 -219 -128 -256 0 -28 17 -45 51
-48 20 -3 29 8 66 80 23 46 47 99 53 118 6 19 19 40 29 46 35 25 53 81 61 188
5 58 12 116 16 130 20 67 99 152 224 241 64 46 244 98 337 99 46 0 109 -25
117 -47 3 -7 -10 -31 -29 -52 -34 -38 -67 -58 -284 -171 -58 -31 -115 -61
-126 -68 -11 -6 -47 -22 -80 -34 -55 -21 -60 -26 -60 -53 0 -29 4 -31 75 -53
165 -52 316 -134 375 -204 56 -67 26 -94 -242 -214 -17 -8 -38 -14 -47 -14 -8
0 -25 -4 -38 -9 -13 -5 -43 -14 -68 -21 -25 -7 -62 -19 -83 -26 -20 -8 -53
-14 -72 -14 -18 0 -46 -5 -61 -10 -22 -9 -40 -6 -91 12 -56 20 -65 21 -73 8
-10 -16 -4 -47 14 -69 18 -23 72 -41 120 -41 135 0 559 143 673 227 17 12 36
23 42 23 10 0 25 42 34 96 8 41 -17 80 -91 142 -70 58 -149 104 -234 138 -55
21 -77 37 -78 55 0 7 41 26 100 46 25 8 74 29 110 45 36 17 81 37 100 46 44
20 101 62 163 121 39 37 47 51 47 81 -1 59 -52 103 -142 121 -75 14 -88 15
-133 12z"/>
<path d="M8634 25176 c-22 -6 -55 -22 -72 -36 -17 -14 -45 -36 -62 -49 -28
-21 -118 -151 -148 -211 -6 -14 -16 -32 -21 -40 -27 -45 -72 -168 -88 -241
-13 -62 -17 -132 -18 -268 0 -163 2 -185 17 -195 14 -8 42 -2 130 28 62 21
146 54 186 72 41 19 75 34 77 34 16 0 163 93 210 134 110 94 120 116 84 184
-19 37 -35 50 -84 73 -33 16 -66 29 -73 29 -7 0 -24 8 -36 18 l-24 17 20 28
c11 15 24 27 30 27 21 0 102 82 121 123 48 103 11 206 -93 260 -57 29 -89 31
-156 13z m137 -82 c40 -20 63 -74 51 -118 -16 -57 -115 -177 -187 -225 -47
-32 -65 -50 -65 -66 0 -35 26 -49 112 -61 81 -12 163 -46 182 -76 8 -14 5 -23
-14 -44 -39 -41 -147 -108 -266 -164 -60 -28 -140 -67 -179 -86 l-69 -35 -19
36 c-15 31 -17 50 -12 118 16 224 55 373 129 492 45 71 72 110 89 127 9 10 17
21 17 26 0 4 21 20 48 37 26 16 53 35 60 42 18 18 87 16 123 -3z"/>
<path d="M12340 24810 c-136 -13 -380 -84 -439 -128 -53 -39 -31 -116 23 -82
157 98 390 142 704 133 130 -4 192 -2 192 5 0 29 -17 43 -64 56 -63 18 -302
27 -416 16z"/>
<path d="M13959 24662 c-27 -17 -89 -84 -89 -96 0 -4 -12 -24 -26 -45 -20 -31
-24 -46 -19 -75 10 -49 21 -53 39 -14 9 18 26 44 39 58 12 14 30 37 40 52 29
46 58 60 95 47 20 -7 34 -19 36 -32 19 -99 40 -227 40 -251 1 -29 -1 -30 -89
-53 -86 -22 -170 -59 -207 -91 -16 -13 -21 -12 -51 11 l-34 26 -26 -27 c-23
-25 -87 -150 -87 -170 0 -5 -8 -20 -19 -33 -10 -13 -22 -35 -26 -49 -4 -14
-16 -33 -26 -43 -11 -10 -19 -23 -19 -30 0 -7 -18 -34 -40 -61 -43 -52 -49
-76 -25 -100 26 -26 55 -29 77 -9 22 20 68 105 68 126 0 8 9 22 20 32 11 10
20 28 20 40 0 13 7 46 17 74 13 42 25 57 62 82 58 38 236 125 308 150 49 17
58 17 83 4 30 -16 40 -39 40 -102 0 -23 7 -75 15 -115 8 -40 17 -90 20 -111 7
-44 55 -104 75 -92 9 5 10 24 5 68 -7 68 -49 284 -65 337 -15 53 -14 56 45 80
30 12 55 29 55 36 0 8 -3 14 -7 15 -5 0 -24 2 -44 3 -40 2 -89 29 -90 49 -1
33 -19 157 -27 193 -25 114 -106 165 -183 116z"/>
<path d="M17165 24643 c-198 -23 -408 -122 -506 -238 -19 -21 -42 -47 -51 -57
-10 -10 -18 -24 -18 -31 0 -8 -9 -22 -20 -32 -32 -29 -90 -161 -117 -269 -15
-56 -33 -106 -42 -113 -21 -15 -23 -209 -3 -230 20 -20 30 -16 55 23 l22 36
278 4 c182 2 284 7 298 15 12 6 67 13 122 15 90 3 108 7 167 36 77 39 84 58
46 135 -27 52 -123 150 -173 175 -15 8 -37 19 -48 26 -11 6 -51 23 -90 37 -93
35 -135 56 -135 69 0 6 37 36 83 66 113 76 165 116 215 169 46 49 58 77 48
114 -5 22 -63 59 -89 56 -7 -1 -25 -4 -42 -6z m30 -83 c3 -11 0 -29 -8 -40
-14 -21 -144 -120 -157 -120 -15 0 -130 -90 -146 -115 -20 -30 -13 -79 16
-113 11 -13 50 -35 87 -48 195 -70 343 -167 343 -223 0 -15 -83 -51 -117 -51
-15 0 -47 -9 -71 -20 -37 -17 -50 -18 -94 -9 -37 8 -104 8 -247 0 -108 -7
-207 -12 -221 -12 -48 1 -90 13 -90 27 0 24 54 124 67 124 10 0 8 13 -7 52
-13 34 -16 56 -10 62 6 6 10 17 10 26 0 8 14 35 30 59 17 24 30 51 30 60 0 19
119 158 171 201 52 42 165 98 267 131 106 34 138 36 147 9z"/>
<path d="M11817 24512 c3 -15 16 -41 29 -57 l23 -30 -24 -68 c-21 -62 -46
-196 -65 -362 -9 -78 3 -105 47 -105 28 0 28 0 42 110 14 107 27 188 42 265 6
33 11 69 11 80 -1 39 21 95 40 101 21 6 176 0 373 -16 66 -5 163 -12 215 -15
52 -2 134 -10 182 -17 48 -6 91 -8 95 -4 12 12 -11 40 -49 59 -76 37 -407 72
-786 81 l-182 5 7 -27z"/>
<path d="M15470 24464 c-69 -25 -199 -72 -290 -104 -230 -81 -231 -81 -270
-103 -63 -34 -73 -48 -67 -92 9 -64 54 -97 188 -138 63 -19 128 -38 144 -41
105 -22 361 -116 515 -189 121 -57 210 -87 261 -87 43 0 115 24 149 50 25 19
25 19 5 34 -14 11 -44 15 -101 16 -105 0 -204 26 -340 89 -179 82 -324 132
-568 195 -89 23 -176 61 -176 76 0 10 111 59 170 74 30 7 139 43 242 79 103
36 219 73 259 82 88 20 109 30 109 55 0 30 -28 50 -68 49 -20 0 -93 -21 -162
-45z"/>
<path d="M4681 24469 c-14 -5 -31 -15 -39 -22 -9 -7 -38 -12 -67 -13 -41 0
-62 -7 -99 -32 -26 -18 -50 -32 -55 -32 -4 0 -37 -32 -74 -70 -71 -75 -75 -86
-67 -190 8 -116 125 -213 260 -214 68 -1 154 24 200 56 159 114 210 192 210
319 0 59 -49 142 -103 173 -48 28 -130 41 -166 25z m40 -79 c67 -9 89 -20 123
-61 71 -85 -14 -241 -176 -321 -130 -65 -262 -13 -299 120 -11 41 -11 48 10
88 21 39 45 60 121 106 14 8 46 18 73 22 44 7 47 9 47 38 0 27 3 30 23 23 12
-4 47 -10 78 -15z"/>
<path d="M9095 24416 c-14 -14 -34 -26 -44 -26 -25 0 -68 -46 -91 -95 -81
-179 -60 -333 53 -392 74 -38 290 9 437 94 61 35 120 104 120 139 0 13 7 44
16 70 15 44 15 47 -8 80 -53 79 -194 137 -360 150 -95 7 -97 6 -123 -20z m190
-81 c43 -9 103 -26 131 -39 95 -44 113 -82 73 -150 -21 -36 -108 -106 -132
-106 -7 0 -17 -4 -22 -9 -21 -20 -133 -45 -202 -45 -58 -1 -77 3 -100 20 -24
18 -28 29 -31 79 -4 76 40 217 76 246 31 24 96 25 207 4z"/>
<path d="M9681 24426 c-9 -11 -9 -22 3 -50 16 -38 40 -47 50 -20 22 56 -20
110 -53 70z"/>
<path d="M7131 24373 c-14 -9 -20 -21 -16 -32 6 -19 -28 -288 -46 -361 -32
-133 -36 -174 -22 -203 33 -66 65 -40 82 67 7 38 18 90 26 115 14 43 22 84 44
231 5 30 14 74 20 97 14 52 4 77 -38 91 -22 8 -34 7 -50 -5z"/>
<path d="M13790 24339 c-23 -31 -21 -46 3 -36 16 6 41 67 27 67 -5 0 -18 -14
-30 -31z"/>
<path d="M2430 24221 c-26 -50 8 -191 67 -275 38 -54 107 -94 129 -75 20 16 9
45 -38 98 -45 52 -73 135 -63 188 9 47 -15 83 -55 83 -19 0 -33 -7 -40 -19z"/>
<path d="M2524 23340 c-23 -5 -82 -28 -130 -52 -73 -36 -96 -52 -131 -98 -23
-30 -54 -79 -69 -109 -24 -49 -26 -61 -21 -135 7 -112 52 -227 111 -285 50
-49 87 -60 197 -61 133 0 260 57 406 182 65 56 106 116 123 185 12 46 11 53
-9 94 -25 50 -66 82 -136 107 -37 14 -54 28 -83 72 -58 85 -154 122 -258 100z
m86 -46 c18 -4 51 -25 74 -46 37 -36 40 -41 24 -52 -10 -7 -45 -16 -79 -19
-87 -10 -176 -35 -212 -60 -17 -12 -53 -39 -80 -59 -27 -21 -53 -38 -58 -38
-5 0 -9 20 -9 44 0 36 7 52 36 87 57 69 187 147 245 148 15 1 41 -2 59 -5z
m147 -194 l37 -33 14 22 c18 26 27 26 60 0 38 -29 62 -69 62 -103 0 -66 -81
-175 -161 -216 -20 -11 -39 -26 -42 -35 -4 -8 -16 -15 -28 -15 -13 0 -30 -7
-39 -15 -20 -18 -137 -45 -198 -45 -83 0 -130 39 -179 151 -12 26 -24 65 -28
88 -6 37 -5 42 18 50 13 5 34 25 45 43 30 48 65 70 162 100 184 57 219 58 277
8z"/>
<path d="M15165 22600 c-27 -5 -122 -18 -210 -30 -196 -27 -227 -35 -250 -59
-17 -19 -16 -21 11 -45 16 -14 40 -25 54 -26 30 0 186 33 255 54 28 8 85 19
127 25 80 11 158 32 158 42 0 3 -6 13 -13 22 -15 22 -66 28 -132 17z"/>
<path d="M23386 22487 c3 -10 9 -15 12 -12 3 3 0 11 -7 18 -10 9 -11 8 -5 -6z"/>
<path d="M18796 22458 c-21 -32 -27 -267 -8 -291 7 -9 12 -32 10 -53 -3 -42 3
-39 -137 -74 -92 -24 -166 -80 -166 -126 0 -26 4 -29 36 -32 29 -2 39 2 52 22
18 27 114 76 149 76 60 -1 95 -71 59 -120 -19 -27 -33 -72 -31 -105 0 -18 4
-98 9 -178 1 -21 6 -28 19 -26 9 2 27 -2 38 -9 12 -6 24 -8 28 -5 10 10 -5
268 -20 348 -8 45 -9 74 -3 81 18 22 64 22 159 1 90 -20 185 -26 198 -12 26
25 -109 85 -223 100 -73 9 -135 38 -135 64 0 10 9 30 21 45 16 20 20 35 15 59
-3 18 2 61 10 97 17 70 20 128 7 140 -4 4 -22 11 -40 15 -26 5 -34 2 -47 -17z"/>
<path d="M23370 22358 c0 -32 17 -46 26 -23 4 9 0 24 -10 33 -15 15 -16 14
-16 -10z"/>
<path d="M2625 22207 c-49 -13 -106 -30 -125 -39 -19 -9 -54 -24 -77 -33 -23
-10 -50 -26 -59 -36 -10 -11 -25 -19 -34 -19 -30 0 -139 -60 -145 -81 -7 -20
9 -49 26 -49 4 0 36 25 70 55 42 38 70 55 89 55 38 0 40 -6 19 -47 -41 -80
-35 -156 22 -278 33 -72 42 -83 97 -122 97 -70 297 -83 404 -26 134 72 188
121 248 224 38 65 42 76 43 148 l2 78 -44 52 c-77 92 -171 129 -341 136 -86 4
-121 1 -195 -18z m305 -66 c79 -30 115 -55 151 -103 29 -40 31 -48 26 -108 -8
-121 -72 -204 -223 -287 -36 -20 -142 -36 -194 -30 -120 14 -203 102 -229 242
-15 79 -14 117 3 150 18 34 33 45 64 45 34 0 40 29 11 51 -34 26 -19 35 86 53
113 19 233 14 305 -13z"/>
<path d="M16815 22221 c-44 -11 -90 -37 -131 -73 -41 -36 -84 -99 -84 -123 0
-9 -9 -41 -20 -72 -11 -32 -20 -72 -20 -89 0 -17 -7 -50 -14 -72 -8 -23 -11
-44 -7 -47 5 -2 9 -41 9 -86 0 -44 5 -93 10 -107 5 -15 15 -52 22 -82 21 -91
59 -150 96 -150 17 0 33 14 59 52 19 29 35 60 35 68 0 8 7 23 15 33 7 11 17
47 20 82 6 51 3 74 -13 118 -17 44 -19 58 -9 71 16 22 76 35 162 36 171 0 224
-60 154 -173 -36 -58 -118 -168 -152 -204 -16 -17 -34 -40 -41 -52 -52 -93
-57 -104 -47 -114 14 -14 87 44 146 116 25 30 53 58 61 61 7 3 14 11 14 17 0
6 14 27 30 46 17 18 30 38 30 44 0 5 11 28 26 50 14 22 28 63 31 90 3 27 9 52
14 54 12 8 -8 66 -33 92 -39 42 -95 59 -210 65 -68 4 -118 12 -139 22 -43 21
-61 20 -88 -5 -21 -20 -22 -27 -17 -108 17 -282 18 -309 7 -329 -11 -20 -11
-20 -49 -2 -34 17 -39 24 -49 77 -31 151 -27 250 19 442 16 68 82 146 136 161
59 16 110 12 132 -10 25 -25 25 -35 -2 -87 -12 -23 -19 -45 -15 -50 17 -17 63
25 95 87 38 73 35 105 -12 135 -29 19 -126 28 -171 16z"/>
<path d="M15050 22152 c-39 -20 -60 -38 -72 -62 -19 -39 -23 -76 -9 -85 6 -3
6 -18 0 -38 -14 -50 -10 -182 10 -297 36 -206 99 -284 120 -150 11 66 -5 190
-24 190 -21 0 -47 48 -37 67 29 52 204 65 310 23 67 -27 132 -73 132 -95 0 -7
-30 -39 -67 -71 -38 -32 -70 -61 -73 -65 -3 -3 -27 -22 -55 -41 -27 -19 -71
-50 -98 -68 -36 -26 -50 -31 -59 -22 -19 19 -38 14 -48 -13 -6 -16 -17 -25
-32 -25 -63 1 -189 -17 -199 -27 -9 -9 -6 -19 11 -43 23 -32 23 -32 96 -28 64
4 88 12 186 61 176 87 325 196 361 264 29 56 47 104 47 127 0 57 -147 144
-271 161 -30 4 -62 12 -72 17 -11 5 -30 7 -43 4 -25 -7 -98 -73 -106 -97 -3
-10 -12 -6 -31 15 -23 25 -27 38 -27 88 0 81 28 135 74 143 46 9 71 0 96 -36
27 -37 45 -37 59 2 17 49 13 68 -18 100 -38 38 -87 38 -161 1z"/>
<path d="M4629 22106 c-19 -13 -46 -40 -60 -60 -13 -20 -39 -44 -57 -53 -57
-27 -100 -113 -57 -113 7 0 18 7 25 15 7 8 20 15 30 15 14 0 18 -13 23 -68 12
-125 67 -231 174 -336 82 -80 166 -120 264 -124 85 -4 128 11 206 75 45 36
113 130 113 155 0 7 4 18 10 24 20 20 23 147 6 208 -42 143 -226 248 -434 248
-56 -1 -82 4 -105 19 -44 26 -95 24 -138 -5z m328 -85 c111 -18 230 -88 268
-159 14 -28 19 -56 18 -112 -1 -79 -16 -127 -56 -176 -12 -16 -31 -42 -41 -57
-22 -35 -108 -76 -164 -79 -119 -4 -295 153 -352 313 -23 67 -42 207 -30 229
22 40 221 63 357 41z"/>
<path d="M23380 22051 c0 -6 5 -13 10 -16 6 -3 10 1 10 9 0 9 -4 16 -10 16 -5
0 -10 -4 -10 -9z"/>
<path d="M23380 21890 c0 -5 5 -10 10 -10 6 0 10 5 10 10 0 6 -4 10 -10 10 -5
0 -10 -4 -10 -10z"/>
<path d="M23360 21721 c0 -10 30 -24 37 -17 3 2 -5 9 -16 16 -12 6 -21 7 -21
1z"/>
<path d="M17430 21581 c-19 -4 -47 -18 -61 -32 l-26 -24 18 -42 c10 -24 23
-43 29 -43 6 0 10 -32 10 -82 0 -122 46 -245 105 -284 38 -25 120 -14 198 25
76 39 177 132 196 181 8 19 18 39 23 45 16 18 9 86 -12 112 -27 35 -137 98
-202 117 -84 23 -225 37 -278 27z m193 -106 c115 -24 237 -92 237 -131 0 -21
-72 -93 -133 -135 -143 -95 -237 -64 -237 78 0 24 -7 54 -15 66 -8 12 -15 42
-17 66 -3 39 0 46 22 58 32 16 59 16 143 -2z"/>
<path d="M15853 21525 c-22 -16 -46 -74 -62 -153 -11 -54 -15 -371 -5 -407 6
-23 57 -50 74 -40 7 5 11 64 10 173 0 126 11 311 19 328 1 1 15 15 31 32 17
18 30 35 30 39 -1 32 -66 50 -97 28z"/>
<path d="M23375 21390 c-3 -5 -1 -10 4 -10 6 0 11 5 11 10 0 6 -2 10 -4 10 -3
0 -8 -4 -11 -10z"/>
<path d="M23975 21363 c-50 -26 -86 -65 -115 -125 -15 -31 -41 -73 -59 -93
-33 -38 -40 -80 -22 -141 5 -18 5 -37 0 -47 -5 -8 -11 -64 -14 -124 -3 -59 -9
-139 -14 -178 -4 -38 -7 -81 -5 -95 2 -14 6 -68 9 -120 12 -170 6 -155 56
-155 24 0 52 -4 61 -9 9 -4 26 -3 38 4 12 6 28 9 36 6 8 -3 23 4 33 17 56 66
170 206 188 233 19 27 30 32 81 37 32 4 74 13 95 22 71 29 107 18 107 -36 0
-12 5 -16 15 -13 18 7 22 144 4 144 -6 0 -56 -9 -111 -20 -55 -12 -102 -19
-105 -17 -2 3 3 20 11 38 8 19 20 67 27 107 l12 73 -31 32 c-31 31 -55 42
-159 68 l-52 12 31 61 c20 40 32 80 35 116 2 30 6 70 9 88 8 41 -13 110 -37
123 -26 13 -89 9 -124 -8z m75 -93 c14 -14 20 -33 20 -62 -1 -53 -34 -155 -60
-183 -11 -11 -26 -40 -34 -63 -14 -40 -14 -44 4 -62 16 -16 33 -19 110 -18 77
1 96 -3 118 -19 35 -26 40 -73 13 -112 -12 -16 -21 -34 -21 -39 0 -6 -6 -17
-13 -24 -7 -7 -28 -33 -48 -58 -19 -25 -69 -88 -111 -140 -41 -52 -82 -108
-90 -125 -13 -24 -23 -30 -52 -31 -31 -1 -37 3 -43 25 -19 68 -1 632 22 706 8
28 15 63 15 79 0 16 11 49 25 72 41 70 106 93 145 54z"/>
<path d="M2590 21361 c-19 -4 -44 -12 -55 -18 -11 -6 -37 -19 -58 -29 -53 -26
-103 -84 -138 -159 -84 -178 -56 -483 55 -603 63 -70 178 -100 307 -81 92 13
182 53 282 125 38 27 77 54 87 59 24 14 87 90 107 129 8 17 21 38 27 46 12 15
32 68 44 118 4 15 7 59 6 97 0 61 -4 77 -32 121 -34 54 -89 103 -137 122 -47
18 -165 32 -222 25 -44 -5 -58 -2 -97 21 -50 29 -119 40 -176 27z m74 -67 c20
-8 21 -30 1 -38 -17 -6 -20 -32 -4 -41 5 -4 33 3 60 14 70 31 214 31 282 1
107 -48 157 -123 158 -240 1 -85 -37 -171 -110 -252 -87 -96 -176 -148 -339
-199 -136 -43 -260 20 -306 156 -37 108 -31 343 12 445 43 105 169 183 246
154z"/>
<path d="M21765 21348 c-78 -44 -167 -170 -194 -273 -18 -71 -24 -171 -12
-206 9 -26 8 -35 -4 -49 -8 -9 -13 -19 -10 -21 8 -8 14 -112 19 -284 2 -88 7
-168 11 -177 5 -13 18 -18 44 -18 51 0 65 12 56 46 -22 88 -32 214 -20 271 6
25 3 33 -13 42 -11 6 -23 24 -27 41 -10 46 -12 191 -3 196 5 3 6 14 3 25 -8
25 14 129 32 150 10 12 11 18 3 21 -40 13 88 154 137 150 14 -1 32 -7 38 -12
17 -14 28 -75 17 -97 -5 -10 -26 -54 -46 -98 -21 -44 -42 -87 -47 -95 -22 -37
-39 -85 -39 -110 0 -43 21 -53 92 -46 151 15 299 18 345 7 50 -13 93 -45 93
-69 0 -24 -77 -147 -158 -252 -61 -78 -223 -242 -265 -268 -29 -17 -46 -58
-31 -71 25 -23 62 -20 96 7 42 33 124 116 155 157 13 16 43 50 66 75 111 117
183 227 210 319 23 78 6 111 -75 149 -67 32 -227 59 -274 48 -39 -10 -175 -9
-185 1 -9 9 80 130 107 146 8 4 14 21 14 37 0 16 5 32 11 35 6 4 8 13 5 20 -2
7 0 17 6 23 8 8 8 15 0 24 -6 8 -9 37 -6 70 4 53 3 58 -25 77 -32 23 -94 27
-126 9z"/>
<path d="M4770 21243 c-149 -14 -318 -111 -320 -183 0 -25 16 -50 32 -50 4 0
15 16 24 36 20 43 104 102 166 117 24 6 95 11 158 11 96 0 124 -4 172 -22 78
-31 130 -69 172 -124 42 -55 51 -89 41 -154 -9 -64 -70 -128 -171 -179 -68
-35 -86 -39 -166 -43 -80 -4 -96 -2 -154 23 -91 39 -129 88 -129 167 0 53 4
62 31 88 50 46 99 62 179 58 65 -3 70 -2 73 19 5 31 -33 53 -93 53 -66 0 -156
-43 -213 -103 -39 -40 -44 -50 -49 -105 -7 -74 18 -132 79 -187 58 -53 115
-75 213 -82 118 -8 225 24 340 102 42 28 108 100 119 130 19 51 25 119 15 159
-24 97 -151 208 -279 246 -65 18 -173 29 -240 23z"/>
<path d="M16653 21172 c-36 -6 -31 -48 9 -68 28 -14 55 -16 198 -11 91 3 185
11 208 18 43 12 63 33 46 48 -9 9 -421 20 -461 13z"/>
<path d="M23160 21120 c-11 -11 -22 -31 -25 -45 -3 -14 -8 -37 -11 -52 -19
-81 -13 -170 11 -180 22 -8 65 45 65 81 0 42 28 116 57 147 41 45 27 69 -43
69 -21 0 -42 -8 -54 -20z"/>
<path d="M18849 21081 c-21 -18 -23 -22 -11 -42 14 -21 22 -72 27 -162 1 -28
13 -68 27 -95 14 -26 28 -62 31 -79 l7 -33 -53 0 c-28 0 -74 7 -101 15 -27 8
-71 15 -98 15 -43 0 -50 -3 -58 -26 -6 -14 -10 -27 -10 -29 0 -13 80 -37 179
-54 77 -13 123 -26 142 -40 24 -18 38 -21 77 -16 28 4 76 0 120 -9 76 -17 149
-21 176 -10 45 17 -16 69 -94 80 -110 14 -188 33 -220 51 -31 18 -35 24 -33
59 1 21 2 84 2 139 -1 55 0 124 1 153 1 67 -19 102 -59 102 -16 0 -39 -9 -52
-19z"/>
<path d="M20785 21019 c-137 -16 -305 -71 -349 -114 -9 -9 -16 -30 -16 -46 0
-28 2 -29 44 -29 25 0 48 6 55 14 31 37 118 66 354 117 64 14 76 24 56 44 -21
20 -56 24 -144 14z"/>
<path d="M16935 20974 c-69 -29 -107 -67 -142 -142 -22 -47 -25 -67 -24 -155
1 -118 24 -182 69 -194 38 -9 154 53 150 82 -2 15 -13 21 -49 26 -62 9 -86 23
-92 55 -6 34 17 172 32 187 6 6 11 19 11 28 0 49 130 73 171 32 23 -23 21 -59
-4 -85 -8 -7 -19 -24 -26 -37 -11 -20 -10 -26 3 -39 15 -15 25 -14 125 12 113
29 157 29 186 -1 8 -8 15 -24 15 -35 0 -23 -39 -105 -73 -155 -12 -17 -33 -51
-47 -74 -14 -24 -63 -80 -108 -125 -92 -90 -99 -112 -44 -128 30 -8 35 -6 73
35 72 78 125 143 137 172 6 15 16 27 22 27 6 0 15 10 20 23 6 12 14 29 19 37
25 41 59 119 66 150 3 19 11 49 17 65 15 45 -16 95 -70 115 -34 12 -53 12
-114 2 -86 -15 -141 -8 -134 17 3 9 7 34 11 56 5 37 3 41 -26 58 -43 24 -103
21 -174 -9z"/>
<path d="M15356 20936 c-43 -27 -126 -105 -126 -119 0 -5 -8 -21 -18 -35 -23
-34 -49 -105 -57 -157 -4 -22 -12 -54 -17 -71 -7 -19 -8 -73 -3 -146 7 -116 7
-116 35 -128 35 -15 45 -9 71 41 l20 40 -26 56 c-25 52 -26 60 -17 117 18 103
28 138 62 219 26 64 39 81 65 94 65 31 125 -20 128 -109 2 -49 -25 -113 -53
-128 -21 -11 -60 -79 -60 -103 0 -18 36 -50 50 -45 7 2 28 35 48 73 34 64 42
73 95 98 79 39 117 44 146 20 l23 -19 -30 -59 c-17 -33 -45 -73 -61 -89 -17
-17 -31 -34 -31 -39 0 -11 -116 -151 -160 -192 -32 -30 -60 -74 -60 -95 0 -5
9 -10 19 -10 11 0 23 -4 26 -10 12 -19 31 -10 49 23 11 17 40 55 66 82 25 28
68 82 95 120 27 39 56 79 65 90 9 11 27 47 39 80 13 33 32 78 43 101 11 24 18
55 16 75 -3 30 -8 36 -43 47 -36 12 -46 11 -111 -13 -62 -23 -75 -24 -99 -13
-27 12 -27 14 -21 71 7 74 -17 129 -65 146 -45 15 -59 14 -103 -13z"/>
<path d="M22863 20769 c-20 -6 -39 -21 -48 -40 -19 -36 -11 -53 21 -46 14 2
27 0 30 -4 3 -5 55 -9 115 -9 81 0 118 -4 141 -16 26 -14 37 -14 69 -4 25 9
61 10 109 6 78 -8 120 7 120 43 0 28 -37 39 -148 45 -56 3 -108 9 -115 13 -7
4 -50 8 -97 8 -47 1 -103 4 -125 7 -22 4 -55 3 -72 -3z"/>
<path d="M20745 20574 c-11 -1 -82 -8 -157 -15 -99 -9 -146 -17 -168 -30 -32
-20 -39 -49 -16 -68 15 -13 87 -18 104 -7 15 9 158 34 241 41 41 4 92 13 113
22 37 15 51 40 26 47 -20 6 -121 13 -143 10z"/>
<path d="M23119 20548 c-7 -12 -15 -62 -17 -110 l-4 -87 50 1 c53 1 73 18 52
43 -7 8 -7 15 -1 19 5 3 7 25 5 48 -3 31 -13 50 -38 75 l-34 35 -13 -24z"/>
<path d="M22404 20479 c-12 -24 -15 -56 -13 -148 2 -64 0 -122 -5 -129 -4 -6
-4 -18 1 -24 8 -13 12 -61 14 -143 0 -56 19 -189 29 -204 5 -9 13 -10 26 -3
11 6 27 13 37 16 19 6 22 47 7 111 -5 22 -12 92 -15 155 -3 63 -7 129 -10 145
-2 17 0 48 6 70 6 22 14 58 18 80 4 23 10 46 15 53 4 6 2 21 -4 32 -8 15 -21
20 -50 20 -34 0 -42 -4 -56 -31z"/>
<path d="M18974 20476 c5 -19 2 -36 -10 -54 -13 -21 -15 -39 -10 -100 6 -79
17 -102 47 -102 10 0 21 -4 24 -10 9 -14 22 -12 28 5 10 24 -20 185 -40 213
-9 15 -16 32 -15 38 1 6 -5 18 -15 25 -15 13 -16 11 -9 -15z"/>
<path d="M24430 20487 c0 -8 -7 -28 -15 -45 -23 -44 -29 -160 -14 -245 7 -39
13 -75 13 -79 1 -4 7 -13 14 -19 10 -10 12 -8 12 12 0 13 -5 43 -10 67 -8 33
-7 54 4 85 17 51 22 237 6 237 -5 0 -10 -6 -10 -13z"/>
<path d="M17509 20458 c-12 -22 -23 -199 -21 -323 3 -140 56 -255 117 -255 36
0 147 46 202 83 87 58 157 138 190 218 45 108 48 130 22 162 -38 50 -108 77
-196 77 -43 0 -100 -7 -127 -15 -49 -15 -126 -20 -126 -9 0 3 9 17 19 31 28
34 17 53 -30 53 -29 0 -41 -5 -50 -22z m419 -165 c41 -31 38 -53 -15 -118
-101 -124 -190 -185 -269 -185 -65 0 -78 22 -82 138 -3 140 -3 145 11 158 22
22 101 33 215 30 95 -2 117 -5 140 -23z"/>
<path d="M23362 20433 c-8 -15 -9 -24 -1 -28 15 -10 21 0 17 27 l-3 23 -13
-22z"/>
<path d="M4980 20415 c-30 -8 -72 -18 -93 -23 -57 -15 -240 -108 -266 -135
-13 -15 -19 -30 -15 -40 8 -22 20 -21 51 3 14 11 35 20 47 20 19 0 21 -6 22
-73 1 -42 8 -87 17 -108 23 -53 98 -114 177 -145 61 -24 78 -26 142 -21 90 7
162 35 242 92 154 110 185 263 70 350 -105 80 -261 112 -394 80z m235 -84 c62
-22 140 -80 150 -111 20 -62 -45 -150 -154 -208 -73 -39 -84 -42 -158 -42 -96
0 -162 28 -212 90 -50 62 -65 107 -52 151 12 39 38 55 96 61 26 3 31 8 35 38
6 43 23 48 146 44 60 -2 111 -10 149 -23z"/>
<path d="M2800 20363 c-74 -12 -249 -80 -312 -121 -41 -26 -49 -57 -22 -76 13
-10 11 -17 -21 -50 -102 -108 -98 -208 13 -307 74 -67 147 -91 275 -92 113 -1
187 13 262 51 228 112 346 315 256 438 -37 53 -79 87 -143 118 -78 37 -215 55
-308 39z m156 -77 c134 -35 234 -123 234 -204 0 -54 -46 -127 -114 -180 -88
-68 -103 -76 -186 -102 -171 -51 -346 5 -411 131 -41 82 -10 155 91 207 62 32
68 33 138 27 72 -7 72 -7 72 18 0 34 -44 51 -120 45 l-60 -4 22 23 c12 12 42
29 67 37 60 18 202 19 267 2z"/>
<path d="M15928 20343 c-12 -13 -17 -46 -19 -128 -7 -250 -4 -265 51 -265 39
0 54 22 45 67 -15 72 -5 224 17 266 18 37 18 40 2 58 -22 24 -76 25 -96 2z"/>
<path d="M23340 20235 c0 -10 7 -15 18 -13 21 4 19 22 -2 26 -10 2 -16 -3 -16
-13z"/>
<path d="M23351 20084 c0 -11 3 -14 6 -6 3 7 2 16 -1 19 -3 4 -6 -2 -5 -13z"/>
<path d="M24461 20061 c-11 -7 -11 -13 0 -32 11 -20 14 -21 17 -6 6 29 -2 47
-17 38z"/>
<path d="M17171 19786 c-17 -31 -31 -60 -31 -65 0 -5 -11 -33 -25 -63 -20 -43
-25 -68 -25 -140 0 -127 37 -204 88 -183 41 17 85 15 99 -5 16 -23 42 -20 113
14 77 37 125 72 167 123 43 52 93 150 93 185 0 64 -137 87 -249 42 -20 -9 -48
-11 -72 -8 l-39 7 1 54 c2 61 -9 79 -57 89 -29 6 -33 3 -63 -50z m77 -121 c2
-26 -2 -61 -9 -76 -6 -16 -8 -36 -5 -45 5 -14 13 -12 59 14 129 72 277 89 277
32 0 -24 -52 -73 -135 -129 -66 -44 -73 -46 -137 -45 -53 0 -72 4 -90 21 -13
11 -30 23 -39 26 -20 7 -28 54 -22 128 6 86 16 114 40 114 12 0 25 3 29 8 17
16 29 -2 32 -48z"/>
<path d="M4725 19570 c-181 -5 -424 -13 -540 -20 -115 -6 -246 -13 -290 -15
-113 -5 -407 -24 -700 -45 -137 -10 -252 -16 -255 -15 -3 2 -298 6 -655 10
-358 4 -668 8 -690 10 -22 2 -141 6 -265 10 -231 7 -280 2 -280 -30 0 -47 73
-50 1190 -50 765 0 1080 9 1625 45 83 6 209 12 280 15 72 3 157 7 190 10 85 7
411 14 920 20 242 3 458 8 480 10 22 3 82 7 134 10 52 2 99 9 105 15 6 6 6 11
1 11 -51 7 -125 9 -495 12 -234 2 -573 1 -755 -3z"/>
<path d="M2865 19346 c-28 -19 -75 -47 -105 -63 -104 -52 -210 -195 -210 -281
0 -53 47 -122 102 -149 95 -48 280 -54 371 -13 23 10 65 27 93 38 47 18 164
99 181 125 4 7 17 37 28 67 18 48 19 61 9 97 -7 23 -21 54 -31 68 -50 69 -222
145 -329 145 -51 0 -66 -5 -109 -34z m255 -97 c75 -51 113 -113 112 -180 -1
-52 -22 -71 -141 -132 l-84 -42 -116 0 c-105 0 -120 2 -161 25 -24 14 -55 40
-67 59 -55 82 -12 157 154 270 l72 48 84 -2 c82 -1 86 -3 147 -46z"/>
<path d="M4907 19373 c-11 -11 -8 -100 8 -233 9 -69 18 -156 22 -195 5 -55 11
-74 30 -93 23 -22 26 -23 41 -9 14 14 14 30 3 139 -6 68 -14 179 -17 248 -4
69 -11 131 -16 138 -11 13 -60 17 -71 5z"/>
<path d="M9178 19208 c-37 -8 -63 -24 -117 -72 -128 -115 -191 -213 -191 -297
0 -85 66 -173 149 -198 47 -14 155 -14 196 -1 109 35 221 89 268 128 9 8 27
20 39 26 58 29 87 160 50 232 -53 103 -138 165 -253 184 -73 11 -77 11 -141
-2z m166 -95 c106 -38 184 -144 156 -213 -21 -51 -160 -137 -265 -165 -128
-33 -235 -12 -261 51 -18 44 -18 69 3 128 35 95 118 164 220 181 23 3 47 13
54 21 15 18 34 18 93 -3z"/>
<path d="M23330 19161 c0 -6 5 -13 10 -16 6 -3 10 1 10 9 0 9 -4 16 -10 16 -5
0 -10 -4 -10 -9z"/>
<path d="M2954 18621 c-155 -38 -252 -91 -327 -179 -99 -117 -105 -336 -13
-457 57 -74 164 -107 342 -106 167 1 267 25 419 101 265 132 366 274 299 416
-21 44 -96 118 -140 139 -47 22 -180 55 -223 55 -20 0 -60 11 -89 25 -65 30
-159 32 -268 6z m306 -106 c191 -28 324 -122 337 -238 5 -43 3 -48 -42 -96
-79 -85 -243 -172 -390 -207 -86 -21 -261 -24 -332 -6 -67 18 -136 63 -162
108 -27 45 -36 142 -21 223 19 104 63 159 149 186 l24 7 -22 -30 c-36 -52 -23
-72 18 -28 42 44 144 78 261 86 58 4 112 6 120 4 8 -1 35 -5 60 -9z"/>
<path d="M4962 18448 c-11 -14 -8 -192 6 -401 7 -100 12 -121 29 -139 49 -48
66 3 53 157 -5 55 -7 160 -5 234 3 88 1 139 -7 148 -13 17 -62 17 -76 1z"/>
<path d="M9223 18435 c-16 -11 -27 -39 -42 -107 -30 -138 -34 -203 -18 -288
30 -150 65 -210 122 -210 22 0 19 68 -5 123 -46 105 -44 271 6 383 30 67 30
79 2 98 -28 20 -38 20 -65 1z"/>
<path d="M12155 18211 c-50 -14 -116 -51 -122 -68 -4 -9 -1 -30 5 -47 11 -29
10 -33 -31 -76 -55 -58 -72 -84 -91 -150 -34 -113 -15 -195 56 -253 94 -76
210 -70 393 19 67 33 86 45 207 125 115 77 132 129 77 244 -37 78 -87 125
-188 173 -67 32 -82 36 -175 38 -55 2 -114 -1 -131 -5z m280 -99 c105 -52 165
-117 165 -178 0 -41 -56 -108 -110 -133 -19 -9 -55 -29 -79 -45 -115 -74 -282
-120 -347 -96 -73 28 -97 77 -77 162 21 93 50 144 112 198 56 50 105 72 170
74 25 1 40 10 55 29 22 30 30 30 111 -11z"/>
<path d="M16307 17849 c-95 -22 -203 -152 -238 -284 -41 -157 -49 -237 -49
-485 -1 -211 8 -304 36 -400 9 -30 22 -80 30 -111 22 -90 59 -165 85 -172 30
-8 55 7 63 38 5 21 -1 35 -27 66 -25 28 -40 62 -57 125 -31 117 -39 193 -46
429 -7 208 8 384 40 485 7 25 19 64 25 88 14 51 73 118 121 138 59 25 122 0
162 -63 18 -30 22 -51 22 -132 1 -53 -3 -116 -8 -140 -8 -42 -8 -43 15 -36 13
4 34 17 47 29 20 20 24 35 28 127 l5 104 -38 75 c-34 68 -43 78 -92 103 -58
29 -65 30 -124 16z"/>
<path d="M4976 17752 c-2 -4 -1 -52 2 -107 4 -55 4 -181 0 -280 -7 -176 -7
-180 14 -198 35 -29 52 -18 59 38 4 28 10 152 14 277 7 203 6 230 -9 253 -11
17 -25 25 -46 25 -16 0 -31 -3 -34 -8z"/>
<path d="M3110 17740 c-94 -4 -113 -9 -175 -39 -74 -37 -162 -119 -190 -177
-44 -93 -42 -230 5 -329 35 -74 47 -85 133 -125 60 -29 76 -32 159 -31 99 0
223 26 288 60 142 74 176 96 218 137 26 25 63 54 83 64 32 17 61 52 97 117 16
30 15 86 -2 126 -32 76 -165 166 -278 187 -66 13 -209 17 -338 10z m295 -98
c113 -29 213 -101 235 -167 10 -29 8 -38 -13 -72 -37 -59 -122 -130 -216 -182
-17 -9 -59 -32 -93 -52 -36 -20 -102 -45 -153 -58 -76 -19 -98 -20 -139 -11
-160 36 -219 110 -220 275 0 83 2 95 30 145 23 40 43 61 74 78 70 37 147 54
220 47 45 -4 77 -1 105 9 43 16 73 14 170 -12z"/>
<path d="M9335 17551 c-62 -15 -167 -95 -201 -153 -45 -77 -57 -115 -58 -183
0 -83 20 -129 86 -192 110 -107 299 -98 462 24 35 26 77 68 92 93 25 39 29 55
29 122 0 70 -2 79 -31 115 -44 55 -115 100 -182 113 -31 7 -64 16 -72 21 -31
18 -89 49 -92 48 -2 -1 -17 -4 -33 -8z m177 -152 c92 -27 148 -78 148 -137 0
-78 -38 -130 -130 -180 -99 -54 -219 -61 -284 -18 -58 38 -100 150 -77 207 5
13 14 43 21 67 12 47 24 54 115 77 59 15 115 11 207 -16z"/>
<path d="M12194 17346 c-3 -8 0 -40 6 -73 6 -32 15 -89 20 -128 6 -38 15 -99
21 -135 6 -36 12 -82 14 -103 6 -78 16 -105 41 -122 14 -9 33 -14 41 -11 17 7
13 78 -12 216 -8 42 -17 133 -21 203 -6 104 -10 130 -26 147 -22 23 -76 27
-84 6z"/>
<path d="M16440 17344 c0 -8 5 -12 10 -9 6 3 10 10 10 16 0 5 -4 9 -10 9 -5 0
-10 -7 -10 -16z"/>
<path d="M16391 17263 c-25 -24 -56 -54 -69 -65 -28 -27 -38 -64 -22 -83 19
-23 49 -18 78 14 75 82 276 116 423 71 57 -17 83 -31 116 -65 28 -28 43 -51
43 -68 0 -28 -54 -155 -73 -171 -7 -6 -26 -31 -42 -56 -17 -25 -32 -47 -35
-50 -3 -3 -22 -26 -43 -52 -20 -26 -46 -49 -56 -53 -10 -3 -24 -18 -30 -33 -6
-15 -25 -36 -41 -47 -17 -11 -30 -25 -30 -31 0 -10 -105 -85 -157 -113 -12 -6
-46 -11 -76 -11 -65 0 -82 -14 -67 -54 21 -57 87 -55 190 5 125 72 450 420
502 536 24 55 34 151 19 196 -17 49 -95 119 -167 148 -54 21 -75 24 -238 24
l-178 2 -47 -44z"/>
<path d="M4705 17190 c3 -5 8 -10 11 -10 2 0 4 5 4 10 0 6 -5 10 -11 10 -5 0
-7 -4 -4 -10z"/>
<path d="M5061 17006 c-8 -9 -14 -64 -16 -140 -2 -69 -6 -129 -9 -134 -8 -13
-18 -158 -20 -269 -1 -93 1 -104 21 -125 27 -27 33 -22 45 39 14 67 15 78 32
258 8 88 20 202 27 254 12 93 12 94 -10 112 -28 23 -54 24 -70 5z"/>
<path d="M4530 16980 c0 -5 7 -10 15 -10 8 0 15 5 15 10 0 6 -7 10 -15 10 -8
0 -15 -4 -15 -10z"/>
<path d="M3070 16969 c-92 -25 -141 -53 -189 -105 -66 -72 -82 -106 -88 -186
-8 -94 16 -155 90 -235 84 -90 133 -107 302 -107 151 -1 206 14 455 121 174
75 195 203 49 305 -96 66 -161 92 -270 106 -41 6 -81 10 -89 9 -9 0 -43 19
-77 42 -56 38 -112 62 -138 60 -5 0 -26 -5 -45 -10z m65 -83 c16 -12 17 -16 6
-30 -7 -9 -22 -16 -32 -16 -28 0 -120 -43 -156 -74 -65 -55 -46 38 19 96 38
33 49 38 94 38 27 0 59 -6 69 -14z m240 -101 c90 -17 220 -65 274 -101 32 -21
47 -40 68 -86 3 -7 -121 -88 -136 -88 -4 0 -14 -6 -20 -14 -7 -8 -27 -18 -44
-22 -18 -3 -37 -10 -42 -15 -6 -4 -31 -13 -55 -19 -149 -38 -305 -38 -380 0
-84 42 -160 134 -160 193 0 42 141 139 230 157 60 13 185 11 265 -5z"/>
<path d="M17281 16723 c-37 -31 -31 -135 29 -495 11 -68 24 -136 29 -153 6
-16 13 -55 16 -85 4 -30 13 -69 21 -87 17 -37 35 -164 27 -193 -3 -11 0 -20 6
-20 6 0 11 -10 11 -22 0 -28 8 -39 40 -61 49 -34 49 -38 5 168 -14 66 -33 161
-40 210 -8 50 -22 126 -30 170 -21 107 -34 192 -45 300 -8 73 -7 105 7 169
l17 79 -23 18 c-29 24 -43 24 -70 2z"/>
<path d="M9435 16656 c-17 -12 -19 -27 -17 -177 2 -146 14 -273 53 -549 8 -60
15 -80 36 -98 14 -13 30 -21 37 -19 19 6 25 79 10 137 -13 56 -25 146 -45 372
-10 103 -10 141 1 200 16 87 14 119 -8 136 -21 16 -44 15 -67 -2z"/>
<path d="M12267 16520 c-3 -11 1 -68 9 -127 8 -60 16 -183 17 -276 3 -167 3
-167 30 -194 20 -21 30 -24 38 -16 17 17 22 177 12 407 -8 178 -11 199 -28
212 -29 21 -72 18 -78 -6z"/>
<path d="M3693 15483 c9 -9 19 -14 23 -11 10 10 -6 28 -24 28 -15 0 -15 -1 1
-17z"/>
<path d="M7340 15487 c-3 -3 -86 -8 -185 -12 -155 -6 -212 -9 -284 -14 -8 -1
-11 -4 -8 -8 4 -3 94 -8 199 -10 106 -2 199 -5 207 -8 8 -3 285 -8 615 -10
585 -5 898 -10 1371 -23 325 -10 805 -4 805 9 0 18 -317 36 -860 49 -234 5
-504 12 -600 14 -305 9 -1255 19 -1260 13z"/>
<path d="M5965 15451 c-16 -4 -106 -8 -200 -9 -93 -1 -192 -5 -220 -7 -48 -5
-244 -18 -740 -50 -126 -8 -254 -20 -284 -26 -29 -6 -76 -12 -105 -14 -28 -2
-127 -10 -221 -19 -93 -9 -198 -16 -232 -16 -34 0 -74 -5 -90 -11 -15 -6 -66
-12 -113 -13 -47 -1 -96 -8 -109 -15 -17 -9 -26 -10 -34 -2 -13 13 -44 14 -52
2 -3 -6 11 -17 30 -27 38 -18 75 -17 265 5 47 6 130 13 185 16 55 3 161 13
235 20 74 8 236 21 360 29 124 8 284 20 355 26 72 7 173 14 225 16 52 2 140 8
195 13 55 5 107 9 115 9 8 0 103 4 210 10 107 6 206 10 220 11 76 0 221 15
226 22 3 5 21 9 40 9 19 0 34 5 34 10 0 9 -49 15 -90 12 -48 -4 -120 -4 -145
1 -17 3 -43 2 -60 -2z"/>
<path d="M6440 15450 c0 -5 9 -10 21 -10 11 0 17 5 14 10 -3 6 -13 10 -21 10
-8 0 -14 -4 -14 -10z"/>
<path d="M6525 15450 c3 -5 13 -10 21 -10 8 0 12 5 9 10 -3 6 -13 10 -21 10
-8 0 -12 -4 -9 -10z"/>
<path d="M6270 15440 c0 -5 7 -10 15 -10 8 0 15 5 15 10 0 6 -7 10 -15 10 -8
0 -15 -4 -15 -10z"/>
<path d="M3600 15411 c0 -10 24 -21 46 -21 8 0 14 7 14 15 0 10 -10 15 -30 15
-16 0 -30 -4 -30 -9z"/>
<path d="M10585 15380 c-3 -5 1 -10 10 -10 9 0 13 5 10 10 -3 6 -8 10 -10 10
-2 0 -7 -4 -10 -10z"/>
<path d="M10085 15308 c-49 -4 -169 -21 -265 -37 -411 -70 -868 -98 -1160 -70
-58 5 -265 14 -460 19 -217 5 -402 15 -475 25 -233 31 -282 35 -445 35 -91 1
-219 7 -285 14 -95 10 -145 10 -237 1 -119 -12 -163 -28 -175 -63 -3 -9 -12
-24 -19 -32 -18 -21 -41 -94 -53 -165 -5 -33 -21 -126 -35 -206 -31 -177 -76
-635 -76 -776 0 -56 4 -157 9 -225 6 -68 12 -222 15 -343 5 -216 17 -317 60
-499 51 -217 78 -364 96 -521 17 -149 28 -219 57 -335 28 -115 30 -182 13
-337 -23 -216 -13 -401 24 -432 6 -5 40 -19 75 -31 148 -49 511 -63 1161 -42
792 25 836 25 995 8 83 -9 200 -21 260 -27 114 -12 221 -31 385 -70 83 -19
124 -22 330 -23 129 -1 301 1 383 4 136 4 149 3 167 -15 19 -20 19 -20 0 -83
-31 -100 -22 -149 27 -140 18 3 27 27 67 163 33 112 39 382 14 645 -18 197
-14 998 7 1255 9 102 14 177 20 270 3 50 8 124 12 165 4 41 7 246 8 455 0 209
6 459 13 555 6 96 14 235 16 308 5 119 8 139 32 190 32 65 43 157 24 201 -13
33 -66 78 -126 109 -86 44 -281 65 -459 50z m369 -105 c150 -28 160 -44 121
-194 -20 -79 -27 -140 -35 -297 -6 -108 -14 -260 -20 -337 -5 -77 -9 -273 -9
-435 0 -251 -5 -394 -26 -725 -2 -27 -6 -66 -9 -86 -5 -37 -10 -145 -23 -514
-11 -288 -7 -732 6 -835 7 -47 14 -192 18 -323 l6 -238 -29 6 c-16 4 -59 16
-97 27 -61 18 -80 19 -225 10 -86 -5 -233 -8 -327 -6 -157 2 -182 5 -320 39
-101 24 -220 44 -365 60 -384 42 -461 46 -700 34 -386 -20 -1178 -29 -1360
-17 -58 4 -147 11 -197 14 l-93 7 -19 41 c-20 44 -21 115 -6 362 12 201 12
227 -8 294 -28 95 -44 179 -62 320 -28 221 -45 322 -81 474 -43 182 -73 356
-79 456 -22 411 -25 781 -7 1005 19 235 55 509 72 550 8 18 11 42 24 165 2 19
9 54 16 76 12 40 14 42 69 53 111 21 223 23 331 8 59 -9 175 -15 265 -15 117
0 215 -7 365 -27 170 -23 266 -29 560 -35 195 -5 407 -14 470 -20 168 -16 387
-15 620 4 248 19 329 30 485 61 104 21 252 44 375 59 55 6 208 -4 294 -21z"/>
<path d="M7221 15054 c-74 -16 -157 -59 -184 -96 -23 -31 -33 -124 -18 -171
19 -56 108 -131 183 -155 95 -30 135 -33 239 -16 98 15 160 40 210 81 34 29
36 54 9 98 -40 64 -107 108 -250 165 -74 30 -83 40 -32 38 23 -1 45 2 49 6 13
12 -12 39 -48 52 -43 16 -78 15 -158 -2z m146 -149 c102 -41 191 -91 207 -117
17 -28 -3 -49 -70 -74 -67 -26 -218 -33 -288 -13 -51 14 -90 56 -111 120 -22
66 -15 92 32 112 55 23 123 15 230 -28z"/>
<path d="M9368 14963 c-54 -26 -81 -66 -86 -128 -8 -93 54 -173 168 -216 104
-40 290 -13 410 59 19 12 51 30 71 41 55 30 64 45 49 81 -24 59 -118 120 -228
150 -23 6 -86 12 -139 14 -54 2 -123 6 -153 10 -42 5 -63 3 -92 -11z m372
-105 c80 -20 140 -52 140 -72 0 -16 -52 -40 -165 -76 -105 -34 -144 -37 -221
-14 -58 17 -100 47 -136 96 l-21 31 22 18 c17 14 28 16 41 9 13 -7 27 -6 44 2
20 8 32 8 51 0 30 -14 32 -42 5 -67 -25 -23 -26 -55 -2 -55 19 0 72 92 72 127
0 36 36 37 170 1z"/>
<path d="M9617 14328 c-24 -18 -52 -100 -67 -196 -24 -149 20 -447 74 -501 26
-25 27 -26 42 -7 20 27 18 56 -12 187 -22 99 -25 129 -20 224 6 119 16 160 53
216 27 41 23 66 -14 80 -31 12 -36 11 -56 -3z"/>
<path d="M7385 14169 c-33 -10 -75 -19 -92 -19 -36 0 -70 -19 -126 -70 -91
-82 -114 -207 -57 -307 31 -54 106 -114 186 -148 58 -25 204 -31 281 -12 80
21 226 91 280 133 62 51 84 92 88 171 3 59 0 73 -22 107 -52 80 -129 130 -234
152 -95 20 -228 17 -304 -7z m344 -81 c106 -38 140 -83 127 -172 -13 -85 -88
-146 -246 -199 -172 -58 -296 -43 -380 43 -62 64 -75 125 -45 205 14 35 26 45
88 77 100 51 164 67 287 67 84 1 117 -3 169 -21z"/>
<path d="M7625 13326 c-13 -20 -15 -69 -14 -344 2 -294 3 -323 20 -338 27 -24
52 -14 61 26 4 19 7 134 6 255 0 123 4 249 11 285 15 88 14 97 -9 120 -27 27
-56 25 -75 -4z"/>
<path d="M9584 13163 c-202 -149 -204 -422 -4 -548 181 -114 436 -43 562 156
29 45 36 91 26 160 -20 131 -75 185 -200 199 -40 5 -95 4 -123 0 -65 -11 -215
-60 -215 -70 0 -4 -7 -10 -15 -14 -13 -4 -14 -2 -5 14 8 15 8 20 -2 20 -17 1
30 40 47 40 8 0 23 12 34 26 16 21 18 30 10 40 -20 24 -63 15 -115 -23z m436
-141 c95 -46 90 -204 -10 -289 -136 -114 -280 -125 -414 -30 -37 26 -79 119
-79 177 -1 83 11 117 45 134 38 20 35 20 41 -4 7 -26 29 -25 102 5 52 21 76
24 170 24 83 0 119 -4 145 -17z"/>
<path d="M9816 12278 c-2 -7 -8 -29 -15 -49 -13 -43 -15 -190 -1 -256 5 -26
14 -106 20 -178 25 -323 32 -379 49 -402 22 -31 38 -29 57 9 15 29 15 43 0
182 -9 83 -18 180 -21 216 -2 36 -10 124 -16 197 -10 116 -10 137 5 182 9 27
16 57 16 65 0 33 -86 64 -94 34z"/>
<path d="M7582 12263 c-7 -3 -20 -19 -29 -36 -14 -27 -18 -78 -23 -317 -4
-157 -5 -290 -3 -295 2 -6 13 -16 24 -23 51 -32 70 46 68 278 0 96 5 202 11
235 23 125 23 125 5 145 -18 20 -29 23 -53 13z"/>
<path d="M10684 15229 c7 -78 21 -108 31 -68 9 36 -8 132 -24 137 -12 4 -13
-8 -7 -69z"/>
<path d="M12528 15282 c-10 -2 -18 -9 -18 -16 0 -12 65 -20 265 -33 160 -10
218 -13 315 -18 58 -3 140 -10 182 -14 42 -5 96 -5 120 -1 24 5 55 6 69 3 15
-3 30 0 33 6 9 14 -24 21 -219 46 -60 8 -225 17 -365 21 -140 3 -280 6 -310 8
-30 1 -63 0 -72 -2z"/>
<path d="M3433 15256 c-6 -12 -17 -13 -48 -6 -24 6 -54 6 -75 0 -19 -5 -107
-18 -195 -29 -181 -23 -170 -22 -405 -50 -96 -12 -200 -25 -230 -31 -30 -5
-95 -14 -145 -20 -96 -11 -262 -34 -360 -51 -77 -13 -278 -43 -475 -69 -151
-21 -200 -36 -200 -64 0 -26 29 -39 73 -32 23 3 125 18 227 32 102 14 205 30
230 34 93 17 319 52 420 66 58 8 130 18 160 24 30 5 143 21 250 35 107 14 242
32 300 40 58 8 167 22 243 30 76 8 147 19 157 25 11 6 32 9 48 8 28 -2 82 24
82 40 0 12 -23 32 -37 32 -6 0 -16 -7 -20 -14z"/>
<path d="M3510 15240 c-9 -6 -10 -10 -3 -10 6 0 15 5 18 10 8 12 4 12 -15 0z"/>
<path d="M5140 15206 c-61 -17 -90 -34 -90 -51 0 -21 38 -38 67 -30 31 7 27
-15 -6 -31 -31 -16 -90 -74 -106 -105 -18 -34 -10 -131 15 -184 27 -56 95
-119 165 -152 51 -24 73 -28 145 -28 76 0 93 4 160 35 157 72 227 130 266 218
29 66 30 101 5 151 -39 76 -124 134 -243 165 -81 21 -321 29 -378 12z m336
-80 c118 -31 224 -116 224 -179 0 -61 -52 -118 -150 -168 -25 -12 -52 -28 -60
-34 -8 -6 -41 -20 -73 -30 -96 -29 -191 -7 -267 61 -86 78 -100 184 -33 251
80 81 194 83 249 4 8 -11 26 -21 39 -21 31 0 42 33 21 63 -9 12 -23 32 -32 45
-16 21 -15 22 7 22 13 0 47 -6 75 -14z"/>
<path d="M13787 15208 c-8 -5 -8 -10 -2 -16 14 -12 91 -32 141 -36 23 -2 45
-6 50 -9 5 -3 64 -8 131 -12 67 -3 145 -10 175 -16 29 -5 82 -12 118 -14 66
-4 200 -19 255 -29 17 -3 68 -8 115 -11 46 -4 109 -13 140 -21 30 -8 82 -15
115 -15 83 0 127 -4 145 -11 25 -11 175 -31 320 -44 36 -3 92 -11 125 -19 33
-7 103 -18 155 -25 52 -6 129 -18 170 -25 41 -8 95 -16 120 -19 25 -2 70 -9
100 -15 143 -28 633 -107 755 -123 44 -5 124 -21 179 -34 74 -19 125 -25 203
-25 57 0 108 3 113 6 5 3 49 1 97 -5 812 -99 1169 -131 1678 -149 160 -6 331
-15 380 -21 50 -5 146 -14 215 -20 69 -6 152 -15 185 -20 33 -5 96 -14 140
-20 80 -10 460 -64 717 -101 109 -16 145 -18 177 -9 85 22 31 56 -121 76 -62
8 -237 32 -388 54 -620 88 -888 115 -1370 135 -307 13 -472 24 -720 50 -30 3
-127 12 -215 20 -143 14 -312 35 -520 65 -129 19 -269 29 -389 30 -117 0 -119
0 -153 30 -44 39 -89 41 -103 5 -10 -28 -15 -28 -80 -14 -54 11 -108 21 -305
53 -82 14 -190 32 -240 40 -88 15 -146 24 -444 65 -79 11 -151 22 -160 25 -9
3 -45 7 -81 11 -36 3 -85 10 -110 15 -50 10 -328 44 -485 60 -55 6 -154 19
-220 30 -66 11 -143 19 -171 20 -28 0 -76 5 -105 11 -30 5 -99 14 -154 19 -55
5 -116 11 -135 14 -19 3 -75 9 -125 15 -49 6 -128 15 -175 20 -118 14 -228 18
-243 9z"/>
<path d="M3228 14993 c-59 -71 -92 -465 -44 -537 10 -16 24 -26 34 -24 15 3
18 25 24 173 6 156 9 177 37 253 33 89 38 121 19 140 -17 17 -53 15 -70 -5z"/>
<path d="M10704 14833 c3 -98 8 -320 12 -493 3 -173 7 -317 9 -320 2 -3 6 -90
9 -195 4 -104 9 -221 11 -260 3 -38 10 -151 15 -250 6 -99 12 -211 14 -250 3
-38 7 -140 11 -225 3 -85 10 -204 15 -265 6 -60 12 -144 15 -185 3 -41 10
-122 15 -180 5 -58 12 -145 15 -195 7 -121 24 -324 30 -355 2 -14 7 -72 10
-130 3 -58 8 -121 11 -141 3 -20 7 -67 9 -105 12 -207 16 -256 26 -330 17
-118 18 -118 -94 -110 -74 5 -793 9 -927 4 -49 -1 -195 8 -325 21 -60 6 -123
11 -140 11 -16 1 -140 5 -275 10 -135 5 -378 12 -540 15 -477 10 -640 14
-1025 30 -66 3 -151 7 -190 10 -38 3 -137 7 -220 10 -82 3 -184 7 -225 10 -41
3 -131 7 -200 10 -306 11 -409 15 -470 20 -36 3 -101 8 -145 10 -341 20 -597
36 -635 40 -25 3 -146 10 -270 16 -124 6 -250 13 -280 15 -30 3 -199 7 -375
10 -324 6 -895 -15 -1370 -50 -33 -3 -103 -8 -155 -11 -251 -16 -306 -20 -390
-31 -25 -4 -63 -8 -85 -9 -208 -15 -454 -37 -515 -45 -151 -19 -415 -27 -595
-16 -27 1 -111 6 -185 10 -159 9 -208 1 -229 -36 -13 -22 -13 -29 -1 -43 12
-14 31 -16 124 -14 61 1 221 -1 356 -5 152 -4 281 -2 340 4 52 6 122 13 155
16 33 3 130 11 215 19 85 8 191 17 235 20 44 3 121 9 170 15 81 9 206 21 530
50 61 6 209 15 330 20 121 6 321 15 445 22 350 18 755 15 1050 -7 36 -3 117
-7 180 -10 216 -10 495 -25 735 -40 132 -8 292 -17 355 -20 63 -3 183 -10 265
-15 83 -5 258 -14 390 -20 132 -5 274 -12 315 -15 114 -8 266 -14 465 -20 99
-3 207 -8 240 -10 33 -3 200 -8 370 -11 171 -4 362 -8 425 -10 63 -2 392 -6
730 -8 400 -3 636 -9 675 -16 35 -7 205 -13 414 -15 194 -2 357 -7 362 -12 4
-4 8 -64 10 -133 1 -69 5 -154 10 -190 4 -36 11 -139 14 -230 6 -163 8 -199
18 -335 3 -38 9 -133 12 -210 4 -77 8 -171 10 -210 2 -38 7 -140 10 -225 4
-85 8 -157 10 -161 2 -3 4 -43 5 -90 1 -46 5 -136 11 -199 14 -177 39 -645 44
-840 2 -96 7 -281 10 -410 15 -573 8 -1452 -15 -1825 -5 -88 -12 -216 -14
-285 -2 -69 -7 -147 -10 -175 -3 -27 -8 -185 -11 -350 -3 -165 -8 -334 -10
-375 -2 -41 -7 -127 -10 -190 -4 -63 -9 -118 -11 -122 -3 -4 -5 -29 -5 -55 0
-26 -8 -111 -16 -188 -21 -185 -18 -285 7 -285 6 0 15 12 21 27 15 41 47 213
47 258 0 22 7 103 16 180 8 77 14 147 13 155 -1 8 2 57 6 108 5 52 10 155 12
230 2 76 7 198 9 272 10 241 18 515 17 530 -3 37 1 175 5 182 2 4 6 76 9 160
4 127 13 425 17 503 1 39 -13 1302 -17 1435 -5 204 -15 484 -20 590 -12 241
-17 327 -20 355 -1 17 -5 89 -9 160 -4 72 -9 140 -12 153 -2 12 -7 100 -10
195 -3 94 -7 197 -9 227 -12 233 -16 293 -20 355 -6 83 -12 189 -25 470 -20
410 -20 416 -40 494 -6 24 -8 46 -5 50 8 7 15 7 445 -2 184 -4 389 -11 455
-17 66 -5 210 -12 320 -15 110 -3 227 -8 260 -10 33 -3 303 -7 600 -10 297 -3
646 -8 775 -11 129 -3 242 -5 250 -5 8 0 107 -5 220 -10 113 -6 252 -12 310
-14 276 -7 749 -34 930 -52 25 -2 86 -5 135 -7 50 -1 113 -6 140 -10 28 -4 64
-7 81 -6 17 0 62 -4 100 -10 38 -6 76 -12 84 -12 18 -1 244 -28 280 -33 14 -2
61 -7 105 -11 44 -3 134 -17 200 -29 66 -13 145 -26 175 -30 57 -6 145 -20
340 -55 63 -11 160 -27 215 -35 55 -7 147 -21 205 -30 208 -32 251 -35 308
-18 29 8 56 22 59 30 12 30 -26 43 -119 43 -49 0 -122 5 -161 10 -40 6 -103
15 -142 21 -38 5 -122 19 -185 30 -218 36 -430 70 -507 79 -43 6 -114 16 -157
24 -44 8 -82 14 -85 14 -7 -2 -87 7 -286 32 -433 53 -636 72 -1015 90 -118 6
-249 13 -290 15 -41 2 -185 9 -320 15 -135 5 -279 12 -320 15 -111 7 -551 16
-915 20 -449 4 -999 19 -1315 35 -353 19 -447 22 -793 25 -415 3 -388 -5 -386
119 1 45 -3 142 -10 216 -6 74 -16 198 -22 275 -6 77 -17 212 -25 300 -8 88
-19 223 -25 300 -12 168 -15 198 -28 340 -6 61 -16 187 -21 280 -11 183 -13
215 -29 435 -6 80 -13 201 -16 270 -3 69 -7 157 -10 195 -3 39 -8 126 -10 195
-2 69 -7 166 -9 215 -8 143 -21 469 -19 485 2 16 -33 416 -43 493 -3 26 -10
47 -15 47 -6 0 -8 -70 -5 -177z"/>
<path d="M12455 14898 c-59 -21 -113 -69 -152 -136 -128 -217 -112 -398 42
-472 117 -57 394 15 495 128 84 93 90 105 90 172 0 159 -94 257 -256 266 -44
2 -79 11 -111 29 -52 27 -63 29 -108 13z m323 -143 c82 -34 99 -94 58 -205
-32 -84 -101 -131 -253 -169 -130 -34 -223 -24 -263 26 -34 43 -24 163 23 276
18 41 72 71 157 87 71 14 229 5 278 -15z"/>
<path d="M5475 14414 c-215 -56 -404 -147 -405 -196 -1 -56 28 -62 65 -13 15
19 35 37 46 40 10 3 28 7 39 11 17 4 14 -4 -16 -63 -31 -59 -35 -74 -30 -116
12 -110 94 -216 198 -258 92 -38 224 -18 366 54 186 94 248 233 166 372 -28
49 -135 127 -206 152 -41 14 -190 25 -223 17z m189 -94 c105 -40 179 -115 192
-197 6 -39 4 -44 -41 -92 -104 -111 -311 -172 -423 -125 -54 22 -99 71 -122
131 -24 64 -25 94 -5 133 24 46 66 63 136 55 66 -8 89 3 89 40 0 25 -17 35
-60 35 -28 0 -49 25 -27 34 7 2 56 5 109 5 75 1 110 -4 152 -19z"/>
<path d="M3384 14272 c-17 -10 -31 -74 -39 -169 -5 -63 -1 -117 16 -225 25
-159 39 -189 79 -168 25 13 25 25 -1 227 -10 84 -10 114 0 165 24 114 25 137
6 158 -19 21 -42 25 -61 12z"/>
<path d="M12629 13889 c-173 -25 -338 -135 -289 -194 18 -22 32 -19 76 19 90
77 172 100 332 94 106 -4 123 -7 165 -31 72 -42 89 -74 94 -175 6 -101 -18
-190 -68 -253 -55 -69 -227 -139 -306 -124 -97 18 -123 58 -123 190 0 76 3 90
27 128 15 23 37 52 50 63 29 29 20 59 -21 74 -29 10 -33 9 -63 -26 -54 -62
-78 -135 -77 -241 1 -79 5 -100 28 -147 55 -112 149 -154 279 -122 218 52 374
243 354 434 -17 157 -110 280 -232 306 -52 11 -168 13 -226 5z"/>
<path d="M5345 13551 c-40 -14 -51 -23 -53 -43 -2 -13 4 -31 13 -38 14 -11 14
-15 1 -29 -25 -28 -64 -115 -71 -161 -28 -171 44 -315 177 -354 128 -37 248
-15 447 83 107 52 161 123 161 212 0 115 -126 238 -313 303 -34 12 -69 26 -77
31 -8 5 -64 11 -125 12 -85 2 -121 -2 -160 -16z m281 -92 c147 -46 252 -116
294 -199 25 -48 21 -75 -14 -118 -48 -57 -287 -152 -381 -152 -82 0 -161 44
-194 107 -17 33 -15 171 2 218 38 99 54 117 146 150 50 19 69 18 147 -6z"/>
<path d="M3270 13490 c-16 -30 10 -412 31 -451 10 -19 42 -30 59 -19 14 9 14
4 8 251 -4 139 -10 202 -19 217 -18 28 -64 30 -79 2z"/>
<path d="M12814 12869 c-33 -9 -116 -88 -138 -131 -104 -201 -57 -404 111
-484 52 -24 64 -26 138 -21 81 6 204 44 235 72 9 8 22 15 28 15 6 0 27 21 47
46 29 39 35 55 35 96 0 26 -4 56 -9 66 -4 9 -16 34 -27 55 -34 72 -157 130
-271 129 -56 0 -73 -6 -73 -26 0 -31 27 -47 98 -57 95 -13 153 -39 186 -82 39
-51 33 -90 -22 -150 -36 -38 -146 -71 -242 -72 -132 0 -191 49 -204 167 -8 77
12 163 52 221 21 32 41 47 89 65 34 14 64 31 67 38 8 21 -3 40 -30 53 -28 12
-28 12 -70 0z"/>
<path d="M17909 12797 c-26 -12 -66 -46 -93 -77 -52 -60 -119 -192 -131 -255
-4 -22 -10 -44 -15 -50 -8 -11 -22 -60 -26 -92 -2 -12 -7 -31 -13 -42 -6 -10
-13 -57 -16 -103 -3 -45 -10 -110 -15 -143 -5 -33 -12 -98 -16 -145 -6 -75 -4
-87 12 -101 31 -27 59 -31 83 -12 l21 18 -25 47 c-14 26 -25 58 -25 72 0 29
22 45 150 110 133 69 340 199 340 215 0 3 22 21 49 40 45 30 49 35 39 56 -17
39 -74 59 -165 60 -45 0 -85 3 -89 8 -4 4 -16 7 -26 7 -22 0 -24 16 -3 27 36
20 144 136 150 161 4 15 13 34 21 43 8 8 17 37 20 63 8 53 1 62 -71 96 -53 26
-100 25 -156 -3z m126 -79 c14 -6 25 -17 25 -24 0 -22 -39 -89 -65 -114 -13
-12 -27 -36 -30 -52 -8 -34 -62 -90 -123 -128 -61 -38 -62 -89 -2 -103 13 -4
49 0 80 7 98 25 138 26 162 6 l23 -18 -20 -22 c-11 -12 -74 -49 -139 -81 -66
-33 -127 -65 -135 -73 -38 -34 -91 -55 -121 -49 -35 7 -35 6 6 179 13 56 24
111 24 123 0 54 130 298 182 341 26 22 93 26 133 8z"/>
<path d="M3413 12679 c-12 -4 -25 -19 -28 -32 -9 -35 1 -416 12 -457 7 -28 14
-36 36 -38 33 -4 47 24 38 77 -8 44 -5 252 4 338 4 34 4 72 0 83 -9 27 -35 40
-62 29z"/>
<path d="M5544 12602 c-210 -117 -295 -246 -281 -430 11 -148 66 -236 185
-294 61 -30 75 -33 162 -32 196 0 408 95 478 214 22 37 27 57 26 110 -1 78
-16 111 -77 167 -60 55 -266 154 -369 177 -34 8 -36 31 -5 56 18 15 20 22 11
37 -18 29 -72 27 -130 -5z m136 -178 c289 -115 392 -204 351 -303 -17 -40 -88
-106 -146 -134 -87 -44 -163 -61 -265 -62 -84 0 -101 3 -145 27 -93 49 -127
111 -127 236 0 98 16 149 68 216 71 91 86 92 264 20z"/>
<path d="M15575 12607 c-42 -26 -85 -61 -85 -71 0 -6 -16 -26 -35 -45 -30 -30
-78 -116 -120 -216 -7 -16 -18 -41 -24 -55 -43 -96 -51 -147 -53 -331 -1 -101
1 -194 6 -206 7 -20 3 -25 -38 -45 -25 -12 -46 -28 -46 -34 0 -15 38 -44 58
-44 15 0 189 112 287 185 73 55 338 302 343 320 3 13 -50 45 -76 45 -11 0 -36
7 -56 15 l-36 15 21 29 c12 16 34 38 50 50 47 35 73 96 74 172 0 56 -4 73 -30
114 -43 69 -100 108 -167 111 -29 2 -62 -2 -73 -9z m145 -107 c19 -15 41 -43
49 -63 12 -32 11 -41 -3 -71 -9 -19 -16 -37 -16 -41 0 -3 -9 -25 -19 -48 -10
-23 -26 -58 -34 -78 -11 -27 -32 -47 -76 -74 -60 -37 -82 -69 -66 -95 4 -7 20
-10 39 -7 17 3 49 8 71 12 28 5 46 2 60 -8 19 -15 19 -16 1 -35 -10 -11 -48
-41 -84 -66 -37 -25 -110 -84 -161 -131 -91 -83 -97 -86 -130 -80 -20 4 -38 8
-40 10 -1 2 0 27 4 56 6 40 15 60 37 80 l29 28 -31 34 c-16 19 -30 43 -30 53
0 24 65 215 94 279 77 164 99 204 128 234 18 18 42 37 53 42 32 12 87 -1 125
-31z"/>
<path d="M16855 12366 c-65 -28 -70 -65 -12 -92 33 -16 37 -16 91 9 68 32 76
60 21 83 -42 17 -61 17 -100 0z"/>
<path d="M18625 12329 c-68 -33 -145 -123 -145 -168 0 -11 -5 -23 -11 -26 -5
-4 -15 -17 -20 -28 -5 -12 -16 -33 -24 -47 -19 -32 -19 -90 0 -117 13 -18 13
-24 -1 -53 -29 -57 -5 -169 49 -227 29 -32 69 -29 142 12 80 44 119 93 189
237 l58 117 4 115 c4 115 4 115 -24 141 -60 57 -152 76 -217 44z m149 -94 c21
-14 26 -25 26 -60 0 -120 -138 -397 -218 -439 -22 -12 -35 -12 -66 -3 l-38 12
5 75 c5 72 17 112 58 192 23 45 24 62 3 97 -16 27 -15 28 27 76 24 26 58 54
74 61 37 17 93 12 129 -11z"/>
<path d="M16173 12003 c-20 -18 -73 -129 -73 -152 0 -7 -5 -22 -12 -34 -26
-46 -38 -95 -49 -197 -14 -125 -19 -186 -18 -220 0 -14 0 -36 0 -50 0 -14 -1
-74 -2 -135 -1 -60 -5 -118 -10 -127 -5 -10 -5 -19 0 -22 5 -3 8 -59 8 -123 0
-100 3 -125 21 -166 16 -36 26 -48 39 -45 10 2 16 11 14 19 -8 27 -8 584 -1
659 22 212 53 362 87 425 9 17 34 51 55 76 39 48 47 76 26 97 -18 18 -63 15
-85 -5z"/>
<path d="M23190 11815 c0 -9 5 -15 11 -13 6 2 11 8 11 13 0 5 -5 11 -11 13 -6
2 -11 -4 -11 -13z"/>
<path d="M12978 11739 c-21 -12 -19 -77 7 -294 8 -71 15 -159 15 -195 0 -47 6
-74 20 -97 38 -63 58 -36 62 82 2 65 -12 443 -18 472 -2 13 -16 25 -35 32 -18
6 -32 11 -33 11 -1 0 -9 -5 -18 -11z"/>
<path d="M23180 11406 c0 -9 5 -16 10 -16 6 0 10 4 10 9 0 6 -4 13 -10 16 -5
3 -10 -1 -10 -9z"/>
<path d="M3380 10871 c-9 -18 -3 -187 15 -431 9 -121 34 -158 70 -107 14 19
15 52 9 262 -7 261 -14 295 -59 295 -14 0 -29 -8 -35 -19z"/>
<path d="M5582 10797 c-13 -15 -14 -28 -42 -367 -11 -135 -25 -261 -30 -281
-12 -44 3 -94 33 -110 16 -9 23 -8 34 6 15 21 17 37 33 200 12 129 34 325 50
444 9 62 8 78 -5 98 -17 25 -56 31 -73 10z"/>
<path d="M9825 10768 c-79 -8 -179 -43 -222 -75 -30 -23 -34 -31 -32 -67 1
-25 -6 -57 -19 -82 -33 -65 -37 -129 -13 -210 46 -154 154 -256 318 -299 113
-30 282 -10 350 41 17 13 35 24 40 24 18 1 63 59 87 114 43 96 31 227 -31 346
-72 139 -281 231 -478 208z m208 -97 c138 -48 204 -119 233 -248 41 -183 -26
-283 -218 -323 -155 -33 -342 54 -399 187 -30 69 -42 167 -28 225 12 50 55 98
88 98 42 0 78 22 95 57 l17 36 77 -6 c42 -3 103 -14 135 -26z"/>
<path d="M7984 10650 c-29 -4 -57 -11 -63 -14 -6 -4 -39 -12 -73 -17 -74 -12
-168 -51 -220 -91 -87 -68 -122 -230 -78 -363 32 -95 109 -173 200 -203 146
-48 251 -38 418 36 178 80 272 193 288 350 13 119 -34 215 -129 263 -82 42
-218 57 -343 39z m248 -91 c123 -36 160 -93 138 -218 -15 -89 -45 -145 -101
-192 -90 -75 -269 -139 -390 -139 -88 0 -202 70 -245 150 -29 54 -25 211 6
263 25 43 47 57 86 57 15 0 42 11 60 25 18 14 56 30 86 35 29 6 69 17 88 25
70 28 161 26 272 -6z"/>
<path d="M13185 10573 c-11 -2 -47 -10 -80 -18 -33 -7 -116 -21 -185 -30 -68
-9 -128 -19 -131 -21 -4 -2 -31 -9 -61 -14 -52 -10 -281 -82 -388 -122 -125
-47 -243 -120 -265 -165 -6 -11 -17 -29 -25 -38 -40 -47 -128 -221 -175 -345
-72 -191 -103 -339 -145 -700 -11 -96 -24 -206 -29 -245 -4 -38 -6 -73 -4 -78
2 -4 0 -49 -6 -100 -25 -214 -42 -1021 -26 -1217 9 -113 14 -478 14 -1025 0
-1071 2 -1246 15 -1495 14 -265 44 -367 131 -454 28 -29 67 -58 86 -65 19 -7
49 -19 67 -27 74 -32 261 -26 383 11 106 33 229 75 247 85 22 12 159 70 165
70 5 0 114 50 272 124 119 56 167 75 350 137 50 17 104 37 120 44 17 8 66 28
110 45 44 17 99 40 122 51 24 10 46 19 51 19 4 0 23 8 42 19 19 10 46 22 60
26 30 9 200 112 215 129 5 7 32 28 60 47 27 19 63 49 80 68 16 18 44 48 62 67
17 18 39 47 49 63 10 17 25 33 34 36 9 3 21 17 28 32 6 16 30 56 52 91 37 57
82 166 97 232 3 14 10 30 15 37 11 14 49 182 53 238 2 22 6 85 10 140 4 55 8
116 9 135 2 19 0 67 -5 105 -4 39 -9 102 -10 140 -1 39 -5 95 -10 125 -4 30
-10 82 -13 115 -10 115 -36 330 -47 385 -6 30 -14 91 -19 135 -4 44 -13 100
-19 125 -6 25 -13 86 -15 135 -4 76 -26 263 -51 430 -5 38 -53 418 -60 480 -2
17 -8 61 -15 100 -6 38 -15 99 -20 135 -5 36 -18 121 -30 190 -48 285 -49 289
-115 560 -41 166 -61 242 -79 290 -9 25 -24 67 -32 94 -9 28 -36 92 -61 143
-35 71 -43 97 -34 106 6 6 11 21 11 33 0 24 -27 47 -99 84 -24 12 -71 49 -105
82 -33 33 -83 75 -111 93 -52 35 -198 93 -300 120 -54 14 -192 19 -240 8z
m315 -128 c152 -50 172 -61 258 -144 40 -39 90 -82 111 -95 21 -14 53 -45 70
-70 44 -66 138 -287 162 -381 24 -97 39 -144 50 -167 5 -10 9 -26 9 -37 0 -11
11 -66 25 -123 14 -56 27 -119 30 -138 5 -41 15 -99 50 -275 14 -71 27 -150
30 -175 5 -43 9 -69 34 -205 6 -33 11 -81 11 -107 0 -26 5 -59 11 -75 6 -15
13 -50 15 -78 4 -47 9 -84 19 -145 3 -14 9 -77 15 -140 5 -63 13 -121 16 -130
4 -8 13 -76 20 -150 7 -74 18 -171 24 -215 6 -44 13 -102 15 -130 2 -27 10
-90 19 -140 9 -49 19 -119 21 -155 3 -36 10 -87 14 -115 5 -27 10 -57 10 -65
0 -8 4 -60 10 -115 35 -338 44 -568 25 -690 -3 -22 -7 -58 -8 -80 -2 -22 -6
-48 -11 -58 -4 -10 -5 -20 -2 -23 3 -3 -3 -36 -14 -72 -10 -37 -19 -79 -19
-93 0 -15 -7 -32 -15 -39 -8 -7 -15 -23 -15 -35 0 -12 -7 -28 -15 -35 -8 -7
-13 -16 -10 -20 6 -10 -24 -70 -34 -70 -5 0 -14 -21 -21 -46 -7 -25 -19 -48
-27 -51 -7 -3 -13 -10 -13 -15 0 -13 -55 -82 -96 -123 -17 -16 -44 -47 -59
-69 -16 -21 -63 -64 -105 -95 -69 -53 -104 -75 -200 -128 -66 -37 -489 -203
-516 -203 -5 0 -27 -9 -49 -20 -22 -11 -47 -20 -57 -20 -9 0 -20 -5 -23 -10
-3 -6 -14 -10 -23 -10 -9 0 -44 -14 -77 -30 -33 -16 -65 -30 -71 -30 -6 0 -35
-12 -65 -28 -30 -15 -85 -40 -124 -56 -38 -15 -110 -47 -160 -71 -108 -52
-276 -115 -325 -122 -19 -3 -42 -9 -50 -13 -8 -4 -59 -15 -114 -25 -80 -13
-114 -14 -184 -6 -183 23 -249 91 -273 280 -5 42 -11 92 -14 111 -6 51 -23
353 -24 435 -1 206 -3 789 -3 1225 0 272 -1 551 -3 620 -15 534 -19 894 -10
1030 3 41 7 120 9 175 4 90 18 285 33 450 3 33 5 75 4 93 -1 19 4 62 10 95 18
105 19 111 20 157 0 25 5 61 9 80 5 19 14 71 20 115 6 44 15 96 20 115 4 19
16 71 25 115 9 44 20 87 25 95 4 9 11 31 15 50 4 19 12 44 19 55 7 11 18 39
26 63 7 23 19 47 27 53 7 6 13 21 13 33 0 12 8 33 17 46 18 26 55 88 75 128 6
12 17 22 25 22 7 0 13 7 13 15 0 21 45 62 95 87 55 27 198 83 265 103 30 9 66
21 80 25 128 42 291 80 342 80 19 0 74 9 123 19 131 28 141 30 240 26 71 -2
114 -10 205 -40z"/>
<path d="M13035 10343 c-62 -8 -172 -54 -183 -76 -36 -75 -66 -170 -70 -224
-4 -57 -1 -67 32 -127 41 -73 75 -104 159 -141 136 -60 353 -37 476 49 95 67
111 98 111 216 0 111 -59 209 -156 259 -85 44 -231 62 -369 44z m333 -114 c43
-21 73 -44 94 -72 28 -40 30 -46 25 -111 -7 -77 -37 -133 -85 -156 -15 -7 -34
-16 -44 -21 -9 -4 -43 -15 -76 -23 -155 -41 -327 -3 -388 86 -39 56 -40 151
-2 223 38 73 68 97 127 103 41 4 59 -1 114 -28 70 -36 97 -35 97 3 0 13 3 27
7 31 12 12 63 -2 131 -35z"/>
<path d="M13112 9399 c-24 -4 -71 -23 -104 -41 -57 -31 -62 -37 -85 -98 -64
-168 -68 -232 -22 -326 72 -145 204 -223 377 -224 78 0 169 39 235 99 39 36
47 51 60 109 22 98 7 217 -36 291 -65 108 -150 171 -259 190 -73 12 -104 13
-166 0z m156 -73 c92 -25 168 -81 205 -151 26 -51 51 -163 39 -178 -6 -7 -9
-22 -6 -33 9 -33 -53 -105 -116 -136 -137 -68 -353 1 -408 131 -27 62 -30 181
-6 230 24 49 58 62 119 45 101 -28 102 -28 115 -4 9 18 8 25 -6 41 -10 11 -29
25 -43 32 -71 35 3 50 107 23z"/>
<path d="M13202 8356 c-54 -14 -72 -37 -65 -80 4 -26 -3 -45 -33 -91 -72 -113
-89 -199 -59 -299 29 -96 94 -169 190 -212 49 -22 79 -28 167 -32 94 -4 117
-2 180 19 84 27 164 86 192 143 25 50 33 168 15 204 -27 54 -98 149 -137 183
-131 112 -210 154 -307 164 -39 4 -77 8 -85 10 -8 1 -35 -2 -58 -9z m262 -131
c81 -38 208 -152 236 -211 14 -28 23 -68 25 -102 2 -54 0 -59 -39 -100 -31
-32 -59 -49 -113 -67 -68 -24 -79 -25 -171 -16 -108 10 -155 26 -212 71 -37
29 -67 87 -71 135 -4 61 3 115 17 129 8 9 13 20 10 25 -3 4 6 32 21 61 18 37
39 61 72 82 41 26 53 29 106 26 39 -3 81 -14 119 -33z"/>
<path d="M13475 6967 c-140 -55 -230 -120 -269 -195 -78 -151 -40 -333 101
-483 114 -120 258 -177 424 -166 153 10 272 72 329 172 29 52 23 107 -24 207
-69 148 -246 266 -493 328 -44 11 -92 44 -81 55 13 13 92 26 120 20 34 -8 128
23 128 42 0 43 -144 56 -235 20z m-57 -171 c15 -7 49 -19 76 -25 93 -23 250
-100 343 -169 84 -61 148 -150 159 -218 13 -92 -64 -155 -215 -176 -115 -15
-200 -1 -299 47 -152 76 -241 220 -228 370 4 39 7 77 8 85 0 8 15 34 31 58 26
35 36 42 64 42 19 0 46 -6 61 -14z"/>
<path d="M3414 9944 c-16 -23 -16 -37 -4 -172 8 -81 13 -191 11 -245 -3 -126
16 -155 68 -105 l24 21 -8 246 c-4 135 -11 254 -16 264 -14 26 -56 21 -75 -9z"/>
<path d="M10020 9835 c-13 -16 -13 -12 -34 -200 -9 -77 -23 -194 -31 -260 -13
-113 -28 -327 -28 -388 0 -26 27 -67 44 -67 20 0 40 83 49 204 16 213 19 248
31 321 6 39 13 88 14 110 5 66 25 177 35 196 17 30 11 67 -12 83 -28 20 -52
20 -68 1z"/>
<path d="M5650 9701 c-16 -31 -2 -480 17 -509 19 -31 54 -26 63 8 12 46 11
492 -1 507 -17 20 -67 16 -79 -6z"/>
<path d="M23113 9659 c4 -13 7 -27 7 -31 0 -5 5 -8 11 -8 15 0 6 53 -10 58
-10 4 -12 -1 -8 -19z"/>
<path d="M8090 9641 c-47 -10 -104 -27 -126 -39 -60 -31 -120 -111 -144 -192
-58 -193 38 -323 249 -337 75 -5 113 0 241 32 104 25 149 46 204 92 65 56 77
81 87 173 7 67 5 81 -16 127 -28 63 -92 113 -183 142 -77 26 -191 26 -312 2z
m245 -62 c131 -24 207 -115 184 -219 -12 -54 -32 -83 -78 -113 -47 -31 -113
-54 -210 -73 -278 -53 -407 53 -313 257 25 55 37 70 74 91 61 34 101 40 171
27 57 -12 59 -11 85 15 15 14 27 26 27 26 1 0 28 -5 60 -11z"/>
<path d="M16865 9183 c-67 -6 -173 -25 -215 -38 -25 -7 -63 -16 -85 -20 -86
-13 -208 -60 -262 -101 -17 -13 -34 -24 -38 -24 -9 0 -70 -44 -74 -54 -2 -5
-21 -27 -43 -50 -46 -48 -193 -264 -203 -298 -4 -12 -18 -48 -32 -78 -66 -147
-84 -203 -89 -275 -2 -33 -9 -72 -15 -87 -7 -18 -9 -49 -4 -85 5 -32 7 -68 6
-81 -3 -31 36 -149 62 -187 93 -135 235 -202 412 -192 50 2 101 9 115 15 14 5
45 16 70 23 85 25 248 108 330 168 25 18 52 36 60 39 41 15 420 381 420 405 0
5 21 35 48 66 52 62 92 117 92 126 0 4 18 37 40 73 69 116 85 232 49 357 -15
54 -126 162 -210 205 -82 42 -200 80 -264 86 -89 8 -139 10 -170 7z m173 -77
c83 -23 111 -56 47 -56 -56 0 -142 41 -129 61 7 12 20 11 82 -5z m-95 -91 c68
-32 86 -37 129 -33 28 3 62 14 78 27 50 36 93 26 188 -46 26 -19 62 -54 81
-76 33 -42 33 -42 28 -129 -2 -49 -9 -94 -15 -100 -6 -7 -20 -37 -31 -66 -12
-29 -38 -79 -59 -109 -20 -31 -41 -63 -47 -72 -5 -9 -25 -33 -42 -54 -18 -20
-33 -40 -33 -45 0 -4 -27 -35 -60 -69 -33 -34 -60 -64 -60 -68 0 -4 -26 -30
-57 -58 -32 -29 -68 -62 -81 -74 -13 -13 -25 -23 -28 -23 -3 0 -26 -20 -52
-45 -26 -25 -72 -60 -102 -77 -30 -17 -77 -46 -105 -64 -61 -41 -222 -108
-297 -123 -73 -16 -199 -15 -246 0 -77 25 -178 104 -209 163 -32 61 -41 125
-33 225 9 102 16 150 30 191 5 14 21 66 35 115 15 50 31 95 35 100 20 26 48
84 55 113 3 18 12 35 18 39 7 5 21 24 32 43 72 129 181 227 300 270 33 12 74
28 90 35 107 49 137 55 260 52 115 -4 123 -5 198 -42z"/>
<path d="M23075 9120 c-4 -6 -2 -16 4 -23 6 -8 6 -18 1 -27 -17 -26 -11 -40
16 -40 24 0 26 3 20 31 -3 17 -6 40 -6 50 0 20 -24 26 -35 9z"/>
<path d="M3406 9054 c-19 -19 -19 -10 0 -164 8 -69 17 -190 21 -270 3 -80 10
-151 15 -157 14 -17 33 -16 52 3 13 13 16 42 16 162 0 172 -15 377 -29 415
-12 31 -50 37 -75 11z"/>
<path d="M5708 8903 c-13 -15 -16 -51 -17 -203 0 -126 -5 -214 -17 -275 -29
-163 -29 -163 0 -177 22 -9 29 -9 41 3 8 8 28 86 45 174 25 135 30 185 30 316
0 107 -4 159 -12 167 -17 17 -53 15 -70 -5z"/>
<path d="M8190 8734 c-7 -18 -7 -46 1 -88 13 -68 16 -370 5 -486 -7 -71 -6
-77 17 -98 23 -22 24 -22 41 -4 29 33 39 185 37 544 -1 104 -2 108 -28 133
-36 32 -61 32 -73 -1z"/>
<path d="M10035 8535 c-5 -2 -38 -9 -73 -16 -58 -12 -102 -37 -102 -58 0 -5 9
-20 21 -35 l21 -27 -34 -42 c-63 -77 -86 -201 -53 -280 21 -51 79 -105 143
-135 48 -22 64 -24 134 -19 64 4 93 12 145 39 76 38 162 125 192 194 25 55 42
147 36 192 -11 78 -89 159 -171 176 -32 7 -242 16 -259 11z m220 -91 c89 -10
135 -66 130 -157 -11 -169 -202 -320 -359 -284 -73 17 -131 76 -139 143 -14
104 51 242 138 295 30 19 93 20 230 3z"/>
<path d="M3529 7993 c-6 -16 -8 -45 -5 -66 4 -20 2 -65 -3 -100 -11 -73 8
-330 25 -347 14 -14 48 1 58 26 8 21 9 195 1 215 -3 10 -1 52 6 95 16 99 16
169 -1 189 -7 8 -26 15 -41 15 -23 0 -32 -6 -40 -27z"/>
<path d="M5857 7770 c-16 -23 -15 -348 2 -605 14 -225 14 -364 -4 -479 -14
-98 -13 -136 5 -136 15 0 28 55 34 138 4 45 13 109 22 143 12 47 16 142 20
437 3 207 4 397 4 421 -2 84 -49 130 -83 81z"/>
<path d="M10216 7564 c-26 -67 -26 -725 0 -1024 14 -162 47 -396 58 -403 25
-16 58 -19 67 -6 16 26 15 166 -2 184 -5 5 -9 21 -9 36 0 15 -4 39 -9 52 -5
13 -12 91 -16 173 -3 81 -9 152 -12 158 -4 5 -8 107 -9 226 -1 118 -2 262 -3
320 -1 58 5 140 14 184 17 95 10 116 -39 116 -22 0 -36 -6 -40 -16z"/>
<path d="M8280 7451 c-14 -26 -12 -69 5 -176 17 -105 19 -261 4 -325 -6 -25
-19 -83 -29 -128 l-18 -84 23 -26 c22 -26 24 -26 43 -9 34 31 91 310 86 416
-12 215 -22 289 -45 320 -26 35 -53 40 -69 12z"/>
<path d="M23000 6544 c0 -8 5 -12 10 -9 6 3 10 10 10 16 0 5 -4 9 -10 9 -5 0
-10 -7 -10 -16z"/>
<path d="M24450 5450 c0 -5 5 -10 11 -10 5 0 7 5 4 10 -3 6 -8 10 -11 10 -2 0
-4 -4 -4 -10z"/>
<path d="M22866 4115 c-3 -8 -1 -15 4 -15 6 0 10 7 10 15 0 8 -2 15 -4 15 -2
0 -6 -7 -10 -15z"/>
<path d="M22842 3744 c1 -9 9 -19 16 -22 9 -3 13 2 10 14 -1 9 -9 19 -16 22
-9 3 -13 -2 -10 -14z"/>
<path d="M24420 3564 c0 -14 3 -14 15 -4 8 7 15 14 15 16 0 2 -7 4 -15 4 -8 0
-15 -7 -15 -16z"/>
<path d="M24416 3331 c-3 -5 1 -14 9 -21 12 -10 15 -10 15 3 0 19 -16 31 -24
18z"/>
<path d="M24415 3200 c-8 -13 4 -32 16 -25 12 8 12 35 0 35 -6 0 -13 -4 -16
-10z"/>
<path d="M24410 3085 c0 -8 5 -15 10 -15 6 0 10 7 10 15 0 8 -4 15 -10 15 -5
0 -10 -7 -10 -15z"/>
<path d="M23061 2924 c0 -11 3 -14 6 -6 3 7 2 16 -1 19 -3 4 -6 -2 -5 -13z"/>
<path d="M23687 2924 c3 -7 9 -14 14 -14 14 0 10 17 -5 23 -10 4 -13 1 -9 -9z"/>
<path d="M23756 2931 c-4 -5 -2 -12 3 -15 5 -4 12 -2 15 3 4 5 2 12 -3 15 -5
4 -12 2 -15 -3z"/>
<path d="M23810 2931 c0 -11 26 -22 34 -14 3 3 3 10 0 14 -7 12 -34 11 -34 0z"/>
<path d="M23380 2920 c0 -5 9 -14 21 -20 19 -11 20 -10 9 9 -11 22 -30 29 -30
11z"/>
<path d="M24027 2924 c-8 -8 1 -24 14 -24 5 0 9 7 9 15 0 15 -12 20 -23 9z"/>
<path d="M23588 2913 c7 -3 16 -2 19 1 4 3 -2 6 -13 5 -11 0 -14 -3 -6 -6z"/>
<path d="M24387 2863 c-4 -3 -7 -11 -7 -17 0 -6 5 -5 12 2 6 6 9 14 7 17 -3 3
-9 2 -12 -2z"/>
<path d="M24395 2800 c-3 -5 -1 -10 4 -10 6 0 11 5 11 10 0 6 -2 10 -4 10 -3
0 -8 -4 -11 -10z"/>
<path d="M24397 2763 c-4 -3 -7 -11 -7 -17 0 -6 5 -5 12 2 6 6 9 14 7 17 -3 3
-9 2 -12 -2z"/>
<path d="M24345 1791 c-6 -11 9 -23 19 -14 9 9 7 23 -3 23 -6 0 -12 -4 -16 -9z"/>
<path d="M24365 1640 c3 -5 8 -10 11 -10 2 0 4 5 4 10 0 6 -5 10 -11 10 -5 0
-7 -4 -4 -10z"/>
<path d="M24340 1455 c-17 -21 -8 -28 15 -11 11 8 14 15 8 19 -6 4 -16 0 -23
-8z"/>
<path d="M24325 750 c-4 -6 -3 -16 3 -22 6 -6 12 -6 17 2 4 6 3 16 -3 22 -6 6
-12 6 -17 -2z"/>
<path d="M24276 662 c-3 -6 -1 -14 5 -17 15 -10 25 3 12 16 -7 7 -13 7 -17 1z"/>
</g>
</svg>
