<?xml version="1.0" standalone="no"?>
<!DOCTYPE svg PUBLIC "-//W3C//DTD SVG 20010904//EN"
 "http://www.w3.org/TR/2001/REC-SVG-20010904/DTD/svg10.dtd">
<svg version="1.0" xmlns="http://www.w3.org/2000/svg"
 width="2448.000000pt" height="3264.000000pt" viewBox="0 0 2448.000000 3264.000000"
 preserveAspectRatio="xMidYMid meet">
<metadata>
Created by potrace 1.12, written by Peter Selinger 2001-2015
</metadata>
<g transform="translate(0.000000,3264.000000) scale(0.100000,-0.100000)"
fill="#000000" stroke="none">
<path d="M15962 31434 c-39 -20 -137 -123 -190 -201 -91 -134 -195 -319 -200
-355 -4 -33 -2 -38 16 -38 27 0 48 26 185 232 147 219 197 272 284 301 21 6
39 19 41 28 8 45 -72 64 -136 33z"/>
<path d="M16320 31424 c-6 -14 -10 -33 -10 -43 0 -24 -33 -119 -70 -201 -121
-271 -162 -365 -189 -433 -34 -86 -41 -157 -16 -157 24 0 72 88 250 469 127
271 146 339 107 374 -28 26 -61 21 -72 -9z"/>
<path d="M7100 31255 c-11 -13 -8 -33 14 -113 15 -53 47 -185 72 -292 47 -203
91 -342 148 -463 37 -79 95 -143 120 -134 23 9 20 27 -12 78 -56 88 -116 259
-161 459 -12 52 -28 122 -36 155 -8 33 -24 106 -35 163 -20 103 -33 140 -54
154 -18 12 -43 9 -56 -7z"/>
<path d="M6762 30998 c-17 -17 -15 -153 3 -235 22 -96 42 -143 107 -261 71
-128 80 -140 115 -163 37 -25 56 -24 88 4 22 19 27 32 28 76 2 69 -14 75 -42
16 -11 -25 -25 -45 -30 -45 -16 0 -41 37 -85 125 -92 187 -123 297 -113 404 2
32 1 65 -5 74 -11 20 -49 22 -66 5z"/>
<path d="M8063 30968 c-39 -48 -65 -261 -68 -556 -2 -282 1 -272 -72 -272 -31
0 -45 -5 -52 -19 -15 -28 17 -52 81 -60 l53 -6 0 -280 c0 -247 -2 -286 -18
-327 -24 -62 -20 -93 13 -93 56 0 79 150 76 497 -3 244 -9 227 79 228 60 0
262 37 325 58 109 38 207 105 198 134 -9 26 -52 19 -131 -21 -45 -23 -109 -48
-142 -56 -64 -16 -222 -35 -293 -35 l-43 0 2 197 c2 224 19 405 50 509 12 39
19 80 17 90 -4 23 -59 32 -75 12z"/>
<path d="M12591 30927 c-36 -44 -71 -205 -91 -417 -31 -338 -70 -626 -96 -721
-20 -70 -16 -104 11 -104 31 0 51 56 89 247 34 174 39 208 76 523 25 206 46
316 71 374 24 54 24 73 1 94 -22 20 -46 22 -61 4z"/>
<path d="M14861 30898 c-43 -137 -116 -934 -101 -1103 8 -95 17 -128 42 -172
22 -37 52 -50 73 -33 21 17 19 44 -5 65 -41 37 -52 108 -40 271 6 82 15 187
20 234 33 302 52 455 65 525 43 231 41 216 20 231 -34 25 -62 18 -74 -18z"/>
<path d="M8911 30809 c-20 -22 -34 -75 -81 -309 -42 -215 -54 -377 -47 -644 7
-252 17 -298 66 -304 33 -5 43 16 24 52 -13 26 -15 70 -10 320 3 160 10 325
17 366 18 123 60 320 86 400 27 85 29 111 12 128 -18 18 -45 14 -67 -9z"/>
<path d="M10610 30828 c-1 -2 -1 -194 -2 -427 -1 -424 -1 -425 20 -439 13 -8
32 -12 46 -8 27 7 130 126 192 221 59 91 76 97 103 33 20 -47 68 -233 106
-412 14 -62 25 -87 51 -115 30 -33 34 -35 49 -20 15 14 14 20 -5 69 -12 29
-30 105 -41 169 -34 198 -82 353 -123 399 -24 27 -67 52 -90 52 -24 0 -82 -56
-112 -108 -34 -59 -102 -142 -116 -142 -8 0 -9 30 -4 93 3 50 9 202 12 337 6
276 3 293 -54 298 -17 2 -32 2 -32 0z"/>
<path d="M9366 30764 c-18 -17 -11 -37 23 -68 25 -22 47 -15 63 20 11 23 10
28 -11 45 -28 23 -54 24 -75 3z"/>
<path d="M10004 30682 c-64 -46 -185 -172 -237 -244 -71 -100 -123 -204 -148
-292 -34 -126 -16 -199 57 -234 34 -16 37 -15 72 3 51 28 102 100 169 238 81
166 95 158 87 -52 -33 -906 -38 -979 -65 -1006 -7 -7 -18 1 -35 23 -31 39 -54
42 -54 7 0 -50 57 -135 90 -135 18 0 41 22 58 56 26 50 51 238 62 459 6 127
15 309 20 405 10 217 -1 439 -24 475 -22 34 -77 35 -103 2 -10 -13 -51 -89
-92 -169 -82 -161 -141 -239 -166 -218 -49 40 25 242 147 405 29 38 91 100
138 138 150 120 144 113 110 147 -27 27 -40 25 -86 -8z"/>
<path d="M22966 30601 c-3 -5 -22 -51 -41 -102 -32 -82 -69 -155 -215 -424
-17 -33 -34 -62 -36 -64 -2 -3 -14 5 -27 17 -31 29 -70 42 -130 42 -68 0 -98
-17 -116 -64 -12 -31 -13 -49 -3 -92 32 -154 105 -210 288 -221 84 -6 171 9
275 47 l47 18 54 -31 c109 -63 138 -69 308 -68 210 1 280 12 280 45 0 7 -8 20
-18 29 -16 15 -47 17 -218 18 -200 1 -279 11 -279 38 0 7 32 25 70 40 119 47
168 74 206 113 95 98 47 245 -100 304 -90 36 -223 -4 -295 -87 -65 -77 -93
-197 -65 -278 7 -19 8 -36 3 -41 -16 -15 -205 -50 -273 -50 -84 0 -134 14
-172 48 -63 57 -42 146 35 146 49 0 77 -30 96 -101 18 -69 41 -81 59 -31 20
55 87 186 162 318 164 287 203 385 169 425 -14 16 -56 20 -64 6z m367 -461
c41 -26 47 -34 47 -63 0 -45 -32 -73 -155 -135 -188 -95 -197 -96 -198 -25 -2
66 23 131 69 182 69 77 156 92 237 41z"/>
<path d="M12944 30476 c-123 -57 -214 -257 -214 -473 0 -139 13 -185 66 -241
43 -44 43 -44 102 -40 70 5 130 38 237 128 68 58 101 102 90 120 -13 21 -46 8
-131 -54 -153 -109 -226 -133 -258 -83 -35 52 -29 259 11 376 21 61 80 147
117 170 51 32 119 45 160 31 45 -14 46 -33 7 -88 -42 -57 -111 -106 -191 -137
-37 -14 -71 -32 -74 -40 -2 -8 5 -26 16 -40 19 -24 26 -26 60 -21 55 9 106 37
177 96 77 64 121 137 121 201 0 41 -4 50 -32 71 -72 54 -178 64 -264 24z"/>
<path d="M14249 30451 c-77 -15 -173 -93 -231 -187 -37 -59 -74 -160 -91 -249
-37 -187 -33 -230 29 -285 70 -61 155 -29 305 118 80 78 100 104 97 122 -6 46
-8 45 -212 -115 -67 -53 -122 -75 -147 -60 -14 9 -6 161 12 215 19 58 29 63
80 45 81 -29 186 5 292 96 113 97 114 214 1 275 -48 27 -88 34 -135 25z m126
-111 c25 -28 13 -61 -42 -111 -71 -62 -163 -103 -215 -95 -56 9 -58 12 -46 49
14 43 92 123 148 152 58 31 129 33 155 5z"/>
<path d="M9347 30443 c-11 -11 -8 -109 9 -257 14 -117 15 -163 6 -273 -12
-143 -10 -163 19 -163 26 0 37 25 55 137 14 86 14 124 3 313 -6 118 -16 223
-21 233 -9 17 -58 24 -71 10z"/>
<path d="M13806 30348 c-8 -13 -24 -61 -35 -108 -36 -153 -72 -264 -103 -320
-75 -134 -169 -223 -201 -191 -14 14 -13 228 2 346 10 82 1 112 -34 121 -46
11 -53 -8 -61 -162 -12 -257 4 -343 77 -397 39 -28 80 -11 158 66 76 74 123
144 158 235 33 89 95 356 91 395 -4 40 -31 47 -52 15z"/>
<path d="M19661 30264 c-169 -36 -368 -179 -436 -314 -22 -44 -105 -293 -105
-315 0 -7 -11 -22 -25 -35 -31 -29 -33 -77 -4 -114 42 -54 73 -27 109 95 56
193 84 278 107 327 37 76 145 171 258 227 89 43 190 71 201 54 3 -5 -26 -44
-64 -87 -138 -157 -201 -273 -210 -384 -4 -60 -2 -72 20 -106 14 -20 44 -50
66 -66 35 -24 50 -28 111 -28 60 0 97 9 238 57 161 55 263 94 310 117 17 8 36
7 80 -5 89 -23 141 -28 224 -18 91 10 133 28 137 58 5 37 -34 48 -117 35 -84
-14 -158 -15 -165 -3 -4 5 20 31 53 58 87 72 106 104 106 180 0 59 -3 65 -37
99 -33 34 -41 37 -92 36 -64 0 -121 -25 -174 -75 -70 -66 -90 -152 -56 -237
10 -24 13 -45 8 -49 -5 -5 -106 -41 -224 -81 -182 -62 -226 -73 -285 -74 -95
-1 -130 19 -122 73 15 106 100 250 229 387 62 66 78 90 78 114 0 39 -29 67
-77 75 -21 3 -47 8 -58 10 -11 1 -49 -3 -84 -11z m819 -243 c14 -28 -1 -63
-54 -119 -51 -54 -125 -98 -150 -89 -20 8 -22 77 -2 115 44 84 178 144 206 93z"/>
<path d="M17300 30234 c-156 -56 -250 -135 -250 -209 0 -53 28 -119 75 -172
49 -55 141 -107 290 -163 104 -39 113 -45 100 -66 -30 -48 -240 -113 -392
-121 -87 -5 -93 -4 -93 13 0 56 -76 89 -100 43 -18 -32 -2 -75 41 -113 38 -35
42 -36 117 -36 46 0 121 10 187 25 193 44 306 99 340 166 15 28 15 33 -1 57
-34 54 -108 98 -233 138 -143 47 -224 114 -238 198 -10 61 24 99 142 156 55
27 114 52 130 56 40 10 75 33 75 50 0 25 -89 15 -190 -22z"/>
<path d="M21725 30219 c-105 -39 -161 -82 -230 -175 -90 -121 -110 -182 -84
-251 14 -38 67 -92 106 -109 48 -21 167 -17 233 7 30 11 63 23 74 26 13 4 27
-4 50 -31 35 -42 67 -50 142 -34 74 15 244 99 291 144 95 91 56 217 -87 282
-30 14 -61 34 -68 44 -9 12 -23 18 -40 16 -22 -2 -28 -9 -30 -34 -5 -47 27
-78 108 -104 109 -35 128 -79 58 -131 -58 -42 -214 -116 -262 -125 -52 -9 -45
11 15 46 33 19 45 33 47 54 8 64 -44 70 -127 16 -71 -47 -281 -106 -338 -95
-10 2 -30 6 -45 9 -69 15 -70 52 -2 163 92 149 207 218 364 218 84 0 85 0 88
26 9 73 -119 92 -263 38z"/>
<path d="M17902 30203 c-11 -15 -31 -52 -46 -81 -18 -36 -42 -63 -73 -85 -26
-18 -67 -50 -91 -71 -52 -48 -52 -73 -1 -100 l36 -20 -5 -62 c-6 -81 1 -106
44 -153 61 -68 155 -76 294 -24 196 73 305 187 302 317 -4 166 -154 261 -338
215 -49 -13 -64 -8 -45 15 7 8 11 27 9 43 -2 23 -8 29 -34 31 -25 2 -36 -3
-52 -25z m316 -152 c44 -22 62 -55 62 -112 0 -53 -36 -108 -102 -157 -68 -50
-86 -59 -171 -88 -79 -27 -154 -31 -183 -10 -32 24 -24 103 23 226 l41 105 84
27 c103 34 192 37 246 9z"/>
<path d="M18942 30132 c-7 -5 -28 -60 -46 -123 -45 -151 -65 -196 -131 -284
-71 -95 -118 -135 -154 -135 -24 0 -32 7 -47 43 -15 35 -19 72 -20 224 -2 195
-6 213 -50 213 -41 0 -47 -28 -42 -219 6 -203 22 -266 84 -320 73 -64 133 -55
219 33 146 152 227 328 229 501 1 71 -9 88 -42 67z"/>
<path d="M16674 27789 c-4 -6 -6 -43 -5 -83 1 -69 -12 -154 -63 -402 -42 -202
-66 -350 -66 -404 0 -61 22 -108 55 -116 41 -10 47 2 40 75 -7 74 19 253 79
541 46 223 51 345 16 380 -22 22 -45 26 -56 9z"/>
<path d="M2395 27770 c-234 -62 -502 -242 -657 -440 -215 -277 -192 -545 58
-686 268 -150 741 -63 1155 212 155 103 221 191 242 324 21 134 -39 309 -144
420 -77 81 -189 146 -300 174 -90 22 -263 21 -354 -4z m225 -70 c58 -30 74
-67 71 -172 -1 -78 0 -88 19 -98 22 -12 53 -1 68 25 8 15 -7 155 -23 216 -4
15 -2 30 4 33 25 16 170 -80 236 -156 20 -24 53 -77 73 -118 36 -73 37 -78 37
-190 0 -90 -4 -123 -18 -151 -47 -95 -232 -227 -441 -315 -374 -158 -703 -164
-867 -16 -135 121 -149 238 -54 427 73 147 240 311 416 411 34 19 64 32 67 30
2 -3 -1 -19 -7 -37 -8 -23 -8 -36 0 -45 17 -20 45 0 59 40 15 46 79 102 132
116 24 6 48 13 53 15 34 12 139 3 175 -15z"/>
<path d="M10420 27724 c-111 -22 -265 -99 -334 -169 -109 -109 -186 -327 -186
-528 0 -42 -6 -69 -22 -97 -23 -39 -23 -40 -4 -72 13 -23 20 -60 23 -122 5
-110 15 -139 46 -134 21 3 22 6 22 120 0 141 2 145 106 163 131 22 519 68 525
62 4 -3 -21 -37 -55 -74 -72 -80 -121 -170 -121 -224 0 -30 7 -46 34 -73 71
-70 144 -58 244 42 39 38 82 94 100 130 18 34 37 62 41 62 5 0 32 -41 61 -92
28 -51 68 -111 87 -135 53 -64 133 -81 178 -37 21 22 6 39 -48 52 -23 6 -54
24 -69 39 -61 66 -206 332 -193 354 3 5 31 16 60 25 45 12 56 20 61 41 17 68
-43 79 -153 30 -96 -43 -154 -55 -308 -62 -290 -13 -355 -18 -434 -30 -47 -8
-88 -12 -93 -9 -13 9 -9 40 22 162 32 127 61 205 98 265 76 124 266 227 417
227 56 0 70 -8 105 -58 25 -38 63 -41 68 -7 4 28 -50 106 -87 128 -31 18 -141
30 -191 21z m380 -792 c0 -65 -92 -204 -173 -263 -46 -33 -117 -41 -117 -14 0
68 211 305 271 305 14 0 19 -7 19 -28z"/>
<path d="M6983 27672 c-34 -21 -35 -113 -1 -120 16 -3 88 65 88 85 0 15 -39
43 -60 43 -8 0 -20 -4 -27 -8z"/>
<path d="M14365 27656 c-12 -9 -21 -33 -26 -72 -4 -32 -21 -153 -38 -269 -36
-250 -49 -487 -29 -525 9 -16 22 -25 38 -25 21 0 25 4 23 25 -12 132 22 411
75 625 11 44 23 99 27 121 8 50 -9 120 -31 128 -20 8 -17 8 -39 -8z"/>
<path d="M8281 27611 c-14 -26 -16 -139 -4 -171 15 -38 47 -255 40 -273 -3 -8
-39 -32 -79 -52 -97 -49 -140 -90 -136 -130 2 -24 8 -31 31 -33 22 -3 40 8 89
52 73 67 98 72 98 20 0 -19 -5 -66 -11 -104 -14 -80 -7 -120 20 -120 10 0 23
6 29 13 16 19 32 97 39 198 5 81 9 92 30 106 13 9 87 28 165 44 142 29 176 44
165 73 -17 43 -116 39 -261 -10 -88 -30 -96 -25 -96 65 0 126 -20 284 -39 311
-23 32 -66 38 -80 11z"/>
<path d="M12172 27606 c-26 -14 -86 -85 -109 -129 -26 -51 -51 -142 -58 -213
-10 -100 -11 -102 -81 -135 -95 -45 -140 -116 -114 -179 21 -50 70 -52 70 -3
0 29 59 93 85 93 19 0 19 -1 -6 -211 -14 -120 -10 -145 20 -130 32 18 39 53
66 313 4 31 12 61 18 66 11 10 118 41 217 63 25 6 61 14 80 19 22 6 38 6 44 0
7 -7 2 -10 -13 -10 -28 0 -61 -17 -61 -32 0 -7 10 -22 22 -35 l21 -22 -37 -74
c-49 -96 -56 -144 -26 -191 19 -32 27 -36 62 -36 82 0 178 102 178 189 0 45
-21 104 -47 133 -12 13 -16 35 -14 79 2 70 -15 99 -59 99 -33 0 -204 -34 -274
-55 -81 -24 -89 -22 -81 26 16 93 81 216 140 266 46 38 55 65 35 104 -12 22
-44 24 -78 5z m302 -629 c12 -47 -3 -80 -46 -107 -27 -16 -35 -17 -46 -6 -11
11 -10 20 4 57 22 57 53 101 68 96 6 -2 15 -20 20 -40z"/>
<path d="M13197 27570 c-20 -29 -11 -63 28 -100 60 -59 89 -7 42 75 -26 46
-49 55 -70 25z"/>
<path d="M13828 27326 c-100 -36 -243 -159 -287 -248 -40 -79 -39 -102 4 -145
31 -31 40 -35 71 -30 44 7 107 53 146 107 17 22 35 39 40 38 6 -2 25 -41 43
-87 32 -81 67 -131 90 -131 18 0 45 34 45 58 0 12 -9 26 -20 32 -18 10 -59 87
-99 186 -19 47 -11 108 14 112 47 8 62 79 23 106 -26 19 -23 19 -70 2z m-71
-192 c10 -26 -105 -129 -124 -110 -18 18 65 126 98 126 11 0 22 -7 26 -16z"/>
<path d="M15208 27331 c-27 -4 -53 -12 -59 -18 -18 -18 -2 -56 33 -80 29 -19
39 -20 88 -12 30 5 122 10 203 9 136 0 151 2 178 21 20 14 29 28 27 43 -3 18
-12 22 -58 27 -97 11 -364 18 -412 10z"/>
<path d="M17396 27314 c-23 -22 -20 -60 6 -78 29 -20 52 -20 72 0 34 34 9 94
-39 94 -13 0 -31 -7 -39 -16z"/>
<path d="M6929 27299 c-39 -39 -137 -283 -162 -404 -29 -145 13 -293 104 -365
64 -51 172 -84 248 -77 66 6 134 36 157 72 35 53 -10 85 -65 46 -75 -54 -214
-27 -301 58 -57 55 -86 134 -75 204 7 44 73 255 85 272 4 6 10 21 13 35 4 14
24 52 46 85 30 46 37 64 30 77 -13 24 -54 23 -80 -3z"/>
<path d="M7563 27253 c-46 -58 -61 -93 -93 -221 -29 -113 -37 -183 -24 -216 7
-19 36 -21 67 -5 23 12 66 58 67 71 1 29 142 217 192 257 40 32 59 20 76 -45
18 -67 10 -305 -13 -407 -18 -78 -18 -78 3 -99 44 -45 65 -10 93 162 23 138
24 246 4 360 -21 117 -61 163 -127 147 -33 -9 -133 -107 -192 -189 -50 -71
-66 -82 -66 -47 0 43 24 99 61 144 40 48 50 90 27 113 -21 21 -44 13 -75 -25z"/>
<path d="M13148 27260 c-72 -21 -238 -136 -295 -204 -16 -18 -42 -42 -60 -54
-26 -19 -34 -34 -49 -97 -17 -72 -17 -75 1 -95 32 -35 48 -24 100 71 35 63 69
109 113 150 81 76 161 129 198 132 25 2 29 -1 26 -23 -1 -14 -14 -55 -29 -92
-22 -59 -24 -71 -13 -97 27 -66 53 -45 98 83 65 180 32 263 -90 226z"/>
<path d="M15028 27159 c-26 -14 -22 -52 7 -81 l25 -25 269 -7 c187 -5 275 -4
289 3 24 13 38 49 25 62 -5 5 -68 14 -139 19 -71 5 -194 16 -274 25 -169 17
-179 18 -202 4z"/>
<path d="M11545 27131 c-55 -9 -106 -42 -160 -104 -55 -63 -75 -119 -75 -209
0 -107 57 -201 154 -252 62 -33 115 -33 183 -2 63 30 163 123 163 153 0 35
-15 35 -56 2 -78 -62 -172 -92 -237 -75 -59 14 -127 103 -127 163 0 52 20 100
60 145 51 59 99 81 175 82 59 1 60 1 63 32 5 54 -53 81 -143 65z"/>
<path d="M17241 26906 c-7 -8 -21 -50 -31 -94 -43 -179 -116 -346 -199 -457
-48 -63 -53 -78 -36 -102 14 -17 15 -17 52 3 69 38 167 198 226 370 56 162 73
239 59 269 -13 28 -52 34 -71 11z"/>
<path d="M22290 25789 c-36 -4 -144 -15 -240 -24 -330 -30 -429 -42 -445 -55
-21 -17 -21 -90 0 -90 9 0 73 7 143 14 70 8 201 22 292 31 91 9 198 20 238 25
114 15 160 13 166 -8 3 -10 -10 -65 -29 -122 -120 -356 -160 -604 -124 -769 9
-44 9 -56 -3 -67 -18 -18 -93 -30 -278 -44 -80 -6 -192 -17 -250 -26 -57 -9
-134 -16 -170 -17 -72 -2 -86 -17 -56 -61 22 -34 90 -41 197 -22 46 8 118 18
159 21 438 30 481 39 496 102 4 15 1 81 -6 148 -19 185 3 310 115 661 54 169
65 236 45 274 -20 37 -108 47 -250 29z"/>
<path d="M6597 25743 c-4 -3 -7 -23 -7 -44 0 -49 29 -69 66 -44 26 17 33 62
12 83 -13 13 -60 16 -71 5z"/>
<path d="M14277 25718 c-14 -18 -46 -82 -72 -143 -48 -109 -145 -363 -145
-377 0 -11 -108 -315 -125 -353 -75 -167 -109 -230 -139 -261 -39 -40 -45 -64
-20 -88 22 -22 25 -21 70 27 54 56 77 98 139 252 l51 130 95 7 c52 4 135 16
184 27 50 11 93 16 97 12 4 -3 17 -76 27 -161 20 -155 43 -254 61 -265 16 -10
49 14 56 41 4 14 -3 73 -14 132 -39 198 -44 228 -40 257 3 28 7 30 78 46 127
29 214 84 164 103 -27 10 -57 7 -154 -19 -54 -14 -99 -20 -104 -15 -4 4 -12
44 -16 87 -7 68 -60 372 -90 517 -6 27 -15 55 -21 63 -20 23 -57 15 -82 -19z
m68 -323 c20 -121 43 -246 52 -279 17 -68 13 -75 -49 -87 -67 -13 -278 -23
-278 -13 0 16 123 391 158 479 39 101 61 140 73 128 4 -4 24 -107 44 -228z"/>
<path d="M16737 25692 c-30 -31 -79 -159 -182 -473 -37 -112 -86 -249 -107
-304 -112 -282 -146 -414 -118 -465 13 -24 97 -50 159 -50 85 0 320 29 448 55
126 26 443 125 470 146 7 6 13 20 13 30 0 29 -49 24 -186 -16 -236 -71 -428
-103 -649 -112 -191 -7 -192 -7 -170 78 8 30 48 145 88 254 41 110 114 316
161 458 113 334 120 351 149 344 12 -3 105 -35 207 -72 435 -157 432 -157 461
-144 30 12 41 31 33 53 -3 7 -107 49 -232 91 -125 43 -274 95 -331 116 -128
48 -176 50 -214 11z"/>
<path d="M13350 25691 c-73 -22 -163 -101 -247 -214 -100 -136 -191 -387 -224
-616 -14 -98 -7 -385 11 -446 25 -84 79 -108 131 -56 46 46 37 83 -20 85 -21
1 -29 9 -39 41 -26 74 -28 453 -3 493 5 8 49 -2 156 -37 185 -60 276 -98 385
-164 114 -69 184 -96 245 -97 42 0 57 5 88 31 45 37 50 65 10 54 -81 -22 -151
0 -322 102 -102 61 -183 98 -331 149 -52 18 -96 38 -98 44 -2 6 23 39 56 74
92 95 169 222 231 378 39 100 47 151 26 172 -18 18 -19 18 -55 7z m-29 -149
c-21 -60 -78 -170 -126 -241 -91 -136 -191 -239 -211 -219 -11 11 68 192 125
287 65 108 109 162 165 203 49 36 66 25 47 -30z"/>
<path d="M2403 25638 c-4 -7 -8 -204 -8 -438 0 -371 -2 -436 -18 -512 -10 -48
-17 -107 -15 -130 3 -40 5 -43 33 -43 34 0 34 -1 62 175 16 100 18 167 15 524
-1 281 -6 414 -13 423 -14 16 -45 17 -56 1z"/>
<path d="M15433 25588 c-43 -46 -164 -230 -207 -316 -88 -174 -219 -498 -270
-664 -15 -48 -35 -108 -46 -134 -17 -39 -18 -50 -8 -72 7 -14 19 -27 25 -30
22 -6 71 53 83 99 83 328 268 801 377 965 36 54 53 67 53 40 0 -8 -14 -140
-31 -293 -35 -320 -35 -399 1 -438 13 -14 29 -25 36 -25 24 0 133 111 175 178
45 72 112 210 161 332 53 135 81 190 94 190 31 0 18 -369 -22 -625 -36 -224
-39 -276 -21 -300 13 -16 20 -18 44 -9 25 9 28 14 26 49 -2 37 8 97 54 330 14
73 18 142 18 363 l0 274 -24 19 c-68 55 -104 11 -279 -342 -78 -156 -154 -297
-169 -314 l-28 -30 -3 45 c-2 25 11 194 29 375 18 182 30 338 26 348 -11 29
-59 21 -94 -15z"/>
<path d="M18240 25591 c-43 -9 -84 -35 -104 -66 -9 -13 -42 -38 -75 -55 -162
-87 -253 -265 -255 -500 -1 -138 19 -202 87 -276 37 -41 61 -57 100 -69 153
-45 344 15 487 154 143 140 183 314 114 500 -87 231 -212 342 -354 312z m85
-171 c21 -23 45 -26 64 -7 30 29 129 -148 146 -264 15 -100 -26 -215 -104
-295 -103 -105 -190 -145 -321 -148 -110 -1 -143 16 -184 97 -26 52 -29 68
-29 155 -1 214 77 388 196 437 23 9 53 23 67 30 14 7 52 14 86 14 49 1 64 -3
79 -19z"/>
<path d="M7980 25575 c-12 -15 -11 -35 9 -110 5 -22 19 -121 30 -220 12 -99
24 -192 27 -208 7 -33 -3 -38 -203 -98 -76 -23 -146 -48 -155 -57 -37 -32 -14
-82 44 -96 20 -4 55 4 120 30 51 20 98 40 103 44 17 14 82 28 94 21 8 -5 9
-64 3 -212 -8 -242 -8 -253 18 -239 34 18 42 69 47 282 l5 207 27 10 c56 23
311 86 387 96 57 7 114 37 114 60 0 50 -157 42 -413 -23 -128 -32 -127 -32
-127 74 0 96 -26 340 -41 384 -22 65 -61 89 -89 55z"/>
<path d="M20067 25560 c-72 -13 -208 -82 -250 -130 -75 -82 -32 -160 146 -263
26 -15 47 -33 47 -40 0 -7 -22 -42 -49 -77 -95 -128 -171 -284 -171 -353 0
-43 38 -94 83 -112 112 -45 361 21 482 127 78 69 95 137 50 207 -35 57 -112
130 -188 180 -37 25 -67 48 -67 52 0 3 38 43 84 87 90 86 148 122 234 142 55
13 112 51 112 76 0 7 -11 21 -25 30 -23 15 -29 14 -92 -7 -127 -41 -205 -95
-327 -227 -27 -28 -55 -52 -62 -52 -31 0 -204 136 -204 160 0 36 90 90 215
131 149 48 137 95 -18 69z m132 -542 c90 -75 151 -141 151 -163 0 -29 -50 -83
-110 -117 -113 -65 -297 -98 -347 -63 -27 19 -21 47 38 159 71 136 151 256
172 256 5 0 48 -33 96 -72z"/>
<path d="M20942 25560 c-74 -16 -107 -40 -110 -83 -3 -34 -1 -37 22 -37 14 0
28 5 31 10 3 6 14 10 23 10 11 0 1 -15 -30 -47 -90 -93 -235 -337 -257 -433
-29 -126 -4 -233 65 -279 98 -67 312 -19 488 108 169 123 241 241 241 391 -1
65 -6 84 -35 144 -41 83 -108 155 -179 191 -59 29 -182 41 -259 25z m155 -94
c92 -25 158 -79 205 -169 55 -104 6 -265 -110 -364 -119 -102 -246 -162 -364
-171 -74 -5 -112 10 -127 51 -14 36 7 145 42 226 40 93 151 264 213 331 30 32
45 57 44 72 -1 13 -2 26 -1 31 2 11 40 8 98 -7z"/>
<path d="M6636 25318 c-23 -38 -28 -68 -16 -98 10 -23 8 -65 -9 -212 -11 -101
-25 -239 -32 -308 -8 -84 -18 -138 -31 -165 l-20 -39 27 -23 c31 -28 47 -29
67 -5 23 26 25 39 68 417 22 193 43 361 46 375 7 33 -29 80 -61 80 -15 0 -30
-9 -39 -22z"/>
<path d="M19590 25303 c-65 -13 -260 -103 -422 -196 -37 -21 -72 -35 -78 -32
-6 4 -33 54 -60 111 -39 84 -53 104 -74 110 -59 14 -70 -19 -36 -106 11 -28
36 -74 55 -103 48 -71 46 -86 -18 -130 -49 -34 -163 -151 -214 -221 -27 -35
-30 -78 -7 -100 14 -15 18 -15 42 0 15 8 51 48 81 89 60 82 188 215 207 215 7
0 41 -30 76 -66 81 -86 156 -141 237 -175 67 -29 154 -39 166 -19 14 23 -8 49
-63 71 -107 43 -237 131 -301 205 -32 36 -32 37 -14 55 10 9 123 70 251 135
129 64 236 124 239 132 3 8 0 18 -8 23 -15 9 -18 9 -59 2z"/>
<path d="M12025 25253 c-143 -10 -335 -64 -490 -137 -135 -64 -189 -118 -153
-154 18 -18 38 -15 72 12 127 97 519 216 710 216 56 0 76 8 76 29 0 37 -55 45
-215 34z"/>
<path d="M10046 25188 c-25 -38 -29 -81 -13 -121 20 -46 83 -114 147 -158 27
-19 50 -37 50 -41 0 -4 -33 -30 -72 -57 -79 -53 -210 -182 -250 -246 -35 -56
-42 -99 -19 -119 24 -22 47 -12 60 26 21 60 108 161 216 252 61 51 115 95 122
99 8 5 34 -14 70 -50 82 -82 285 -258 305 -266 9 -3 22 1 28 9 23 27 -10 73
-153 213 -78 77 -137 143 -133 149 11 18 225 127 339 172 116 46 148 67 125
81 -38 24 -183 -23 -385 -123 l-163 -80 -69 56 c-81 65 -109 101 -131 170 -20
60 -49 73 -74 34z"/>
<path d="M7319 25143 c-63 -26 -127 -100 -185 -215 -30 -60 -59 -108 -64 -108
-6 0 -10 27 -10 60 0 89 -31 138 -67 108 -13 -10 -14 -44 -10 -216 4 -175 8
-206 23 -223 20 -22 47 -25 62 -6 6 6 20 49 31 95 29 112 50 162 111 262 53
89 105 150 127 150 35 0 42 -91 21 -313 -9 -109 -9 -130 3 -138 19 -12 22 -11
42 4 41 29 63 359 32 464 -23 76 -59 100 -116 76z"/>
<path d="M11950 24984 c-153 -18 -224 -29 -350 -54 -223 -45 -272 -61 -289
-92 -13 -22 -13 -29 -2 -42 18 -21 46 -20 117 4 135 47 286 76 553 105 144 15
180 30 151 60 -16 15 -119 26 -180 19z"/>
<path d="M14730 24350 c0 -5 19 -10 43 -10 31 0 38 3 27 10 -20 13 -70 13 -70
0z"/>
<path d="M15200 24350 c0 -5 4 -10 9 -10 6 0 13 5 16 10 3 6 -1 10 -9 10 -9 0
-16 -4 -16 -10z"/>
<path d="M17519 23888 c-10 -19 -8 -25 17 -44 79 -63 100 -100 158 -284 118
-374 84 -615 -162 -1140 -24 -52 -66 -148 -93 -213 -27 -65 -59 -137 -70 -159
-27 -53 -19 -91 17 -86 32 4 48 33 185 337 188 418 248 599 264 798 12 144
-23 336 -100 548 -45 124 -68 167 -119 220 -47 50 -79 57 -97 23z"/>
<path d="M19255 23836 c-135 -31 -291 -100 -324 -142 -22 -28 -27 -68 -12
-106 16 -42 109 -96 311 -180 61 -25 93 -43 98 -56 5 -15 -35 -54 -146 -138
-127 -97 -160 -169 -107 -232 19 -23 43 -34 115 -52 49 -13 113 -35 142 -49
45 -22 53 -31 56 -56 2 -21 -6 -44 -24 -70 -112 -165 -135 -202 -155 -252 -26
-70 -36 -221 -20 -308 13 -69 24 -84 49 -69 14 10 17 29 18 125 0 156 22 216
140 385 74 106 88 137 79 182 -7 38 -55 96 -97 118 -16 8 -75 29 -131 45 -134
40 -139 45 -91 98 20 23 74 69 120 102 134 96 160 143 113 203 -21 27 -151 97
-244 132 -84 31 -160 78 -163 100 -6 43 125 107 292 143 105 23 172 21 162 -6
-8 -19 11 -53 29 -53 23 0 55 37 55 64 0 14 -10 37 -23 52 -21 25 -31 27 -103
30 -44 2 -105 -3 -139 -10z"/>
<path d="M9145 23496 c-51 -51 -17 -190 45 -184 23 3 25 6 22 49 -1 25 1 57 6
70 12 30 0 64 -28 79 -17 9 -24 7 -45 -14z"/>
<path d="M16823 23489 c-6 -6 -9 -29 -6 -52 2 -26 -9 -97 -30 -187 -101 -428
-158 -676 -176 -765 -40 -205 -37 -290 11 -283 20 3 24 12 34 88 15 111 34
198 150 670 105 429 113 490 75 521 -26 22 -42 24 -58 8z"/>
<path d="M11624 23447 c-151 -124 -242 -294 -266 -498 -20 -173 23 -330 139
-502 54 -80 107 -128 183 -164 50 -25 66 -27 171 -28 109 0 119 2 175 30 56
29 77 56 57 76 -5 5 -44 0 -93 -12 -89 -23 -160 -22 -244 3 -95 28 -207 191
-252 364 -23 88 -25 113 -21 229 7 194 42 282 153 386 87 82 96 96 86 142 -6
27 -33 19 -88 -26z"/>
<path d="M9420 23330 c-15 -15 -20 -33 -20 -67 1 -45 21 -151 33 -170 19 -31
39 -261 46 -542 7 -289 9 -315 26 -327 24 -18 30 -17 49 2 14 13 15 66 13 432
l-3 417 -28 120 c-35 149 -66 185 -116 135z"/>
<path d="M8308 23328 c-18 -14 -38 -124 -38 -210 0 -30 -12 -123 -26 -208 -56
-339 -67 -558 -31 -613 21 -33 52 -34 88 -4 15 12 62 80 104 151 140 232 206
316 249 316 45 0 60 -42 90 -251 8 -57 18 -134 22 -172 5 -51 11 -71 26 -81
20 -14 54 -11 64 6 10 16 -16 288 -37 398 -22 109 -37 150 -71 187 -49 53
-135 30 -205 -53 -53 -64 -166 -231 -197 -291 -13 -27 -33 -56 -44 -66 -29
-26 -33 -6 -21 105 10 95 13 118 49 318 11 63 27 184 35 268 8 84 17 157 20
162 7 11 -30 50 -48 50 -7 0 -20 -6 -29 -12z"/>
<path d="M15037 23323 c-27 -26 24 -84 99 -113 61 -23 254 -54 469 -75 309
-31 445 -56 532 -97 104 -49 35 -114 -453 -423 -220 -140 -366 -244 -396 -286
-15 -20 -17 -30 -9 -52 15 -39 49 -35 92 9 57 59 167 137 415 295 272 171 350
225 416 287 79 73 83 125 16 189 -72 69 -223 106 -585 142 -344 35 -458 58
-514 105 -29 25 -68 34 -82 19z"/>
<path d="M2435 23254 c-147 -32 -331 -128 -425 -224 -54 -55 -68 -84 -50 -105
20 -24 38 -17 64 23 58 90 199 180 361 228 89 27 255 25 317 -3 64 -29 75 -52
49 -106 -32 -65 -98 -134 -280 -291 -157 -136 -243 -222 -286 -289 -25 -40 -8
-72 53 -99 39 -18 66 -21 157 -21 101 0 150 5 360 33 39 5 130 17 203 26 140
18 188 37 175 71 -8 19 -64 16 -388 -21 -298 -35 -467 -33 -491 5 -9 15 10 34
221 219 237 209 296 270 334 344 36 68 39 103 10 140 -59 75 -220 104 -384 70z"/>
<path d="M13093 23143 c-7 -2 -13 -15 -13 -28 0 -41 105 -270 161 -350 l53
-77 -29 -25 c-157 -129 -233 -221 -221 -267 7 -29 37 -49 60 -40 8 3 29 30 46
60 35 62 152 190 183 200 17 5 29 -2 57 -33 64 -72 145 -124 272 -174 29 -11
60 -27 69 -35 22 -19 49 -7 49 22 0 33 -28 55 -120 93 -128 52 -260 150 -247
184 7 20 265 150 380 191 54 20 146 49 205 66 109 32 129 44 110 68 -19 22
-130 2 -298 -52 -146 -47 -318 -126 -408 -188 l-45 -31 -24 29 c-37 47 -81
135 -124 251 -46 125 -72 155 -116 136z"/>
<path d="M10280 23061 c-146 -46 -293 -168 -370 -305 -100 -177 0 -418 205
-495 145 -54 358 -54 550 0 44 12 75 35 75 55 0 23 -19 25 -98 10 -120 -23
-194 -27 -300 -16 -123 13 -209 42 -271 90 -88 70 -132 203 -97 294 31 82 185
202 316 248 104 36 220 33 220 -6 0 -19 -85 -94 -173 -152 -98 -65 -208 -114
-270 -121 -29 -3 -58 -10 -64 -16 -19 -14 -16 -51 5 -77 17 -22 22 -22 79 -12
122 21 269 110 400 239 142 140 155 204 54 256 -46 23 -67 27 -130 26 -44 0
-100 -8 -131 -18z"/>
<path d="M7797 23008 c-8 -13 -33 -76 -57 -140 -45 -124 -92 -205 -193 -324
-61 -74 -135 -136 -174 -148 -51 -16 -85 41 -117 196 -26 124 -43 153 -88 146
-24 -3 -29 -12 -98 -161 -32 -70 -83 -127 -112 -127 -25 0 -35 42 -54 234 -13
137 -15 185 -6 213 13 43 2 63 -33 63 -31 0 -43 -18 -56 -84 -19 -94 24 -411
66 -483 63 -106 143 -68 240 115 40 74 61 89 70 50 3 -13 11 -50 19 -84 19
-86 42 -128 85 -158 76 -53 134 -31 254 93 182 189 288 389 299 566 2 40 0 50
-14 53 -9 2 -23 -7 -31 -20z"/>
<path d="M9110 22685 c-15 -18 -15 -76 0 -125 5 -19 10 -66 10 -105 0 -92 15
-120 60 -120 l35 0 3 110 c4 142 -4 211 -29 236 -23 23 -62 25 -79 4z"/>
<path d="M2504 21130 c-71 -6 -96 -22 -92 -59 3 -29 24 -32 108 -13 53 12 709
11 728 -1 20 -13 9 -21 -105 -84 -121 -66 -208 -139 -218 -183 -4 -17 -1 -40
8 -57 30 -56 103 -95 317 -170 85 -29 171 -60 190 -67 19 -8 60 -24 90 -36 67
-27 130 -68 130 -86 0 -25 -89 -90 -196 -143 -96 -47 -219 -98 -375 -155 -58
-21 -90 -53 -69 -67 20 -12 53 -5 192 42 297 99 528 241 528 323 0 73 -102
130 -450 251 -285 98 -340 145 -252 212 20 16 87 57 147 91 113 64 175 112
175 137 0 26 -46 45 -131 55 -93 10 -629 18 -725 10z"/>
<path d="M15575 20879 c-7 -10 -38 -136 -90 -359 -51 -219 -95 -548 -95 -723
-1 -56 -5 -136 -10 -177 -7 -58 -6 -78 5 -89 36 -37 64 38 75 205 11 166 17
230 36 364 30 214 52 326 130 653 21 86 24 110 14 122 -14 17 -56 20 -65 4z"/>
<path d="M9965 20796 c-114 -20 -207 -51 -309 -104 -206 -108 -376 -333 -429
-567 -23 -103 -40 -301 -27 -325 5 -10 10 -32 10 -47 0 -84 82 -279 150 -356
32 -36 38 -39 58 -28 12 6 22 16 22 22 0 6 -27 58 -60 117 -80 144 -101 207
-103 311 l-2 85 40 27 c95 66 274 99 535 99 205 0 361 12 488 39 51 10 92 18
92 17 0 0 -32 -35 -71 -76 -86 -90 -165 -200 -174 -241 -9 -40 17 -69 60 -69
48 0 168 65 235 127 32 30 80 85 105 124 25 38 50 69 56 69 5 0 17 -17 25 -37
42 -104 109 -228 142 -265 68 -76 177 -107 256 -74 72 30 49 66 -41 66 -124 0
-188 69 -287 310 -48 114 -82 122 -141 33 -61 -92 -172 -196 -248 -233 -37
-18 -70 -30 -73 -27 -14 14 107 168 180 227 30 25 90 63 133 86 55 28 79 47
81 61 5 35 -27 35 -153 3 -207 -53 -277 -61 -630 -70 -361 -9 -383 -12 -522
-75 -41 -19 -79 -35 -83 -35 -13 0 0 79 27 170 62 211 203 394 366 477 71 36
199 79 275 93 227 41 502 -39 502 -146 0 -31 -35 -56 -134 -93 -93 -35 -121
-62 -86 -81 28 -15 201 59 253 108 31 31 37 43 37 78 0 77 -72 137 -215 179
-107 31 -235 39 -340 21z"/>
<path d="M12285 20798 c-77 -42 -139 -160 -175 -333 -11 -54 -14 -57 -73 -93
-110 -66 -181 -152 -163 -198 10 -26 38 -11 80 44 42 54 111 108 120 94 2 -4
-9 -75 -26 -157 -23 -116 -30 -179 -32 -280 -1 -119 0 -130 18 -133 26 -6 34
12 41 98 10 110 75 503 86 516 25 30 242 47 303 24 39 -14 44 -53 12 -91 -31
-37 -32 -43 -5 -60 19 -13 19 -18 8 -89 -15 -96 -7 -270 16 -332 21 -60 74
-108 118 -108 40 0 101 28 145 65 89 75 113 195 73 369 -34 148 -79 196 -188
201 -53 2 -58 4 -65 30 -9 37 -44 72 -82 84 -61 19 -151 22 -231 8 -44 -8 -82
-13 -84 -11 -8 7 38 153 65 210 16 34 37 61 59 74 38 24 54 58 34 71 -18 11
-30 11 -54 -3z m402 -543 c68 -45 108 -284 64 -381 -37 -81 -122 -109 -163
-53 -33 43 -43 153 -30 301 6 72 17 137 24 145 15 18 68 12 105 -12z"/>
<path d="M14002 20614 c-27 -19 -31 -71 -4 -77 9 -2 42 -4 72 -3 51 1 55 3 55
25 0 43 -86 81 -123 55z"/>
<path d="M16782 20498 c-19 -19 -15 -50 17 -133 44 -113 115 -219 208 -313 46
-46 81 -87 79 -91 -3 -4 -31 -4 -63 0 -32 4 -138 8 -235 8 -165 1 -179 0 -198
-19 -11 -11 -20 -26 -20 -34 0 -34 23 -36 256 -28 126 5 235 5 242 2 9 -4 -3
-30 -42 -88 -30 -45 -74 -113 -97 -152 -37 -63 -40 -73 -27 -86 29 -29 76 27
190 229 34 59 54 86 56 74 4 -18 -31 -177 -68 -314 -20 -74 -19 -97 6 -107 44
-17 67 35 103 237 15 86 30 160 34 163 4 4 55 -42 114 -103 128 -131 202 -192
286 -234 52 -27 67 -30 97 -23 24 6 36 15 38 30 2 17 -6 24 -44 39 -25 9 -75
37 -111 61 -80 54 -271 224 -272 243 -1 10 9 12 42 8 147 -20 331 -38 364 -35
30 2 38 7 38 23 0 14 -11 23 -38 32 -53 18 -249 43 -386 50 l-113 6 5 44 c4
38 12 51 63 98 77 70 182 130 302 172 92 32 102 34 191 28 79 -5 97 -3 112 11
25 23 24 51 -2 65 -40 21 -203 6 -299 -28 -122 -43 -219 -95 -289 -153 -33
-27 -63 -50 -66 -50 -3 0 -5 26 -5 58 0 89 -63 202 -104 186 -21 -8 -20 -42 3
-80 32 -52 42 -284 12 -284 -13 0 -52 40 -108 112 -87 112 -126 178 -163 283
-33 95 -37 100 -65 103 -17 2 -36 -3 -43 -10z"/>
<path d="M21525 20456 c-39 -18 -101 -56 -140 -83 -80 -57 -351 -287 -440
-374 -33 -33 -68 -59 -76 -59 -20 0 -170 176 -250 295 -109 160 -130 185 -159
185 -20 0 -31 -8 -45 -33 l-17 -33 93 -129 c112 -156 191 -255 253 -314 l45
-44 -168 -164 c-221 -213 -310 -334 -311 -419 0 -33 22 -60 40 -49 6 3 17 22
25 42 37 87 115 184 284 351 164 160 200 188 216 162 12 -19 141 -116 215
-162 76 -47 179 -84 206 -74 7 3 14 14 14 25 0 14 -24 34 -84 70 -86 53 -296
215 -296 230 0 4 44 44 97 87 53 43 124 102 157 130 285 237 379 304 429 304
34 0 62 33 48 58 -10 20 -32 32 -55 32 -6 0 -43 -15 -81 -34z"/>
<path d="M22286 20430 c-22 -4 -45 -16 -53 -26 -14 -19 -17 -71 -7 -98 9 -24
43 -19 56 9 l11 24 29 -24 c34 -29 74 -32 106 -9 25 17 30 60 10 87 -12 15
-91 49 -107 46 -3 -1 -24 -5 -45 -9z"/>
<path d="M14673 20408 c-4 -7 -12 -26 -18 -43 -9 -26 -20 -33 -76 -51 -186
-60 -346 -186 -424 -334 -32 -61 -39 -86 -40 -132 0 -49 4 -61 27 -84 62 -62
184 -19 314 110 69 69 89 97 135 190 l54 109 6 -159 c7 -174 19 -252 54 -330
39 -87 109 -120 157 -72 l21 21 -24 18 c-73 54 -79 62 -94 112 -30 105 -46
457 -26 579 4 25 4 54 -1 62 -11 19 -53 21 -65 4z m-68 -168 c10 -16 -70 -170
-128 -245 -62 -82 -162 -161 -214 -171 -30 -6 -39 -3 -54 15 -16 20 -17 26 -4
68 20 67 97 175 159 222 57 44 198 121 221 121 8 0 17 -4 20 -10z"/>
<path d="M11464 20399 c-140 -27 -307 -193 -366 -363 -43 -127 -12 -274 72
-335 92 -66 214 -64 399 8 149 57 301 154 301 190 0 20 -26 11 -161 -53 -177
-85 -230 -100 -354 -101 -99 0 -101 1 -142 33 -54 42 -70 100 -54 198 15 98
53 168 137 251 60 60 82 75 130 89 54 15 60 15 117 -2 l60 -18 18 23 c11 13
19 29 19 37 0 32 -103 58 -176 43z"/>
<path d="M13634 20276 c-141 -52 -272 -153 -356 -273 -16 -24 -33 -43 -38 -43
-6 0 -10 22 -10 49 0 40 -4 53 -22 65 -29 21 -35 20 -52 -6 -12 -19 -13 -37
-5 -98 7 -53 6 -96 -2 -145 -17 -100 -17 -126 3 -138 27 -17 63 24 94 107 45
121 67 158 134 229 102 109 262 206 344 209 96 4 127 -122 90 -369 -16 -114
-15 -133 14 -133 29 0 53 34 63 87 44 235 20 426 -60 467 -42 22 -125 19 -197
-8z"/>
<path d="M18334 20088 c-9 -9 -14 -27 -12 -40 3 -22 6 -23 133 -29 153 -6
1042 14 1067 25 24 11 29 33 11 48 -13 10 -130 13 -600 13 -533 0 -586 -1
-599 -17z"/>
<path d="M18231 19851 c-23 -23 -28 -56 -10 -67 32 -19 855 -36 961 -19 48 7
68 29 48 49 -7 7 -109 14 -278 18 -289 8 -622 25 -670 34 -22 5 -35 1 -51 -15z"/>
<path d="M22313 19828 c-4 -7 -17 -35 -28 -63 -12 -27 -61 -111 -110 -185 -48
-74 -117 -180 -153 -235 -36 -55 -97 -147 -134 -204 -38 -57 -67 -110 -64
-117 3 -8 17 -14 32 -14 37 0 75 45 218 260 270 405 295 449 296 503 0 53 -36
88 -57 55z"/>
<path d="M3475 19396 c-69 -30 -175 -179 -250 -353 -19 -43 -44 -85 -56 -92
-14 -10 -59 -16 -139 -19 -147 -5 -213 11 -259 63 -35 40 -39 71 -15 120 15
33 106 126 173 177 38 29 37 58 -2 58 -53 0 -205 -143 -245 -228 -29 -64 -27
-123 8 -171 56 -79 233 -122 379 -90 92 19 93 18 61 -87 -55 -178 -64 -392
-19 -455 22 -31 46 -38 55 -15 3 8 1 56 -5 107 -12 104 -5 166 35 337 34 146
39 153 145 209 93 48 229 161 229 189 0 28 -36 13 -110 -46 -82 -65 -168 -116
-178 -105 -8 8 60 143 107 210 62 90 84 114 124 131 44 20 62 45 45 62 -15 15
-45 15 -83 -2z"/>
<path d="M9782 18965 c-11 -13 -25 -38 -32 -56 -12 -28 -11 -36 14 -87 38 -78
110 -194 135 -216 12 -11 21 -23 21 -28 0 -4 -30 -28 -67 -52 -82 -52 -216
-175 -250 -229 -32 -52 -29 -101 8 -105 21 -3 34 8 77 66 47 64 151 164 212
205 14 9 37 25 51 37 l27 20 68 -56 c50 -41 132 -88 299 -170 283 -141 325
-154 325 -103 0 26 -59 62 -280 171 -206 101 -324 173 -314 189 7 12 126 68
224 106 102 40 248 80 391 108 73 14 136 28 140 31 5 3 9 14 9 24 0 29 -37 34
-137 20 -187 -26 -366 -78 -570 -166 -69 -29 -129 -54 -133 -54 -13 0 -71 97
-96 158 -12 31 -27 86 -33 120 -6 35 -15 70 -22 78 -17 21 -45 17 -67 -11z"/>
<path d="M11337 18596 c-9 -10 -17 -26 -17 -37 0 -39 49 -47 350 -58 157 -6
332 -18 389 -25 102 -14 141 -10 141 14 0 16 -42 38 -103 54 -106 28 -170 34
-637 62 -92 6 -108 5 -123 -10z"/>
<path d="M12725 18536 c-78 -17 -93 -24 -100 -47 -8 -25 12 -59 35 -59 11 0
62 7 112 16 110 19 378 14 518 -10 57 -9 91 -11 103 -4 46 24 -13 62 -138 88
-127 27 -437 37 -530 16z"/>
<path d="M13756 18474 c-32 -32 -7 -94 38 -94 24 0 50 64 36 90 -13 24 -52 26
-74 4z"/>
<path d="M7205 18213 c-11 -10 -15 -29 -13 -57 l3 -41 113 -37 c62 -21 145
-46 185 -57 43 -11 72 -24 72 -32 0 -7 -38 -26 -90 -45 -119 -42 -161 -68
-174 -106 -16 -45 -14 -141 4 -164 20 -26 19 -43 -6 -99 -19 -43 -21 -61 -16
-154 6 -129 27 -195 131 -407 117 -237 128 -313 69 -479 -68 -192 -187 -338
-310 -380 -74 -25 -68 -71 8 -68 124 5 325 228 394 438 16 48 29 114 32 165 5
77 3 94 -25 175 -16 50 -55 137 -85 195 -101 190 -147 330 -133 404 5 24 25
56 61 95 53 57 55 61 55 115 0 54 -1 58 -30 67 -16 6 -30 15 -30 20 0 14 47
35 145 64 50 15 102 34 117 41 30 16 48 63 48 130 0 41 -19 69 -65 91 -57 29
-280 93 -322 93 -10 0 -42 11 -70 25 -48 22 -54 22 -68 8z"/>
<path d="M13877 18162 c-14 -15 -49 -85 -77 -156 -28 -71 -81 -192 -117 -269
-35 -78 -85 -191 -110 -253 -37 -94 -43 -116 -33 -134 19 -36 43 -19 83 60 55
110 264 562 288 623 11 28 26 59 34 67 57 66 -8 125 -68 62z"/>
<path d="M9530 17868 c-57 -39 -184 -216 -545 -764 -243 -369 -337 -494 -487
-650 -88 -91 -118 -128 -118 -147 0 -14 5 -29 11 -32 26 -16 65 13 165 123
155 169 249 298 474 652 202 317 490 730 544 779 30 28 33 46 10 55 -21 8 -16
9 -54 -16z"/>
<path d="M3875 17763 c-158 -20 -319 -67 -565 -164 -143 -56 -200 -95 -200
-139 0 -21 9 -36 33 -54 43 -32 75 -45 262 -101 324 -97 472 -201 515 -362 9
-37 8 -48 -9 -82 -51 -99 -203 -171 -362 -171 -68 0 -84 4 -148 36 -73 37
-104 40 -109 13 -5 -26 35 -66 95 -95 148 -73 404 -19 535 112 63 63 81 103
76 169 -11 130 -129 271 -290 349 -93 44 -252 101 -372 132 -63 16 -130 47
-141 64 -10 16 145 79 380 155 99 32 101 32 290 30 162 -1 218 -6 380 -34 700
-118 798 -129 826 -95 10 13 10 17 -2 25 -8 5 -18 9 -22 9 -5 0 -101 16 -215
35 -114 20 -261 45 -327 56 -66 11 -177 31 -248 44 -70 14 -140 25 -156 25
-16 0 -39 11 -55 25 -23 21 -36 25 -84 24 -31 -1 -70 -4 -87 -6z"/>
<path d="M10261 17668 c-117 -64 -420 -394 -682 -743 -95 -126 -335 -464 -383
-540 -11 -16 -44 -53 -73 -82 -58 -57 -69 -94 -33 -113 23 -12 62 4 96 42 12
12 96 133 186 268 300 449 505 714 727 944 137 140 184 176 231 176 35 0 70
19 70 39 0 36 -79 41 -139 9z"/>
<path d="M16405 17193 c-148 -14 -599 -118 -666 -154 -37 -19 -13 -89 30 -89
9 0 64 16 122 35 147 50 244 74 394 96 137 20 310 25 320 10 3 -5 -23 -34 -57
-63 -102 -88 -215 -193 -382 -357 -154 -152 -206 -213 -220 -258 -16 -52 54
-131 144 -162 111 -39 311 -50 620 -36 163 7 200 18 200 55 0 41 -36 50 -160
40 -279 -23 -570 -5 -662 41 -49 25 -56 51 -24 94 28 37 275 271 486 462 138
125 170 163 170 205 0 31 -36 65 -81 78 -32 10 -148 11 -234 3z"/>
<path d="M12893 17069 c-7 -7 -36 -84 -64 -170 -35 -108 -56 -160 -68 -163 -9
-3 -37 -10 -63 -16 -53 -11 -136 -47 -185 -80 l-32 -21 -26 45 c-31 53 -85
103 -131 122 -40 17 -162 18 -215 3 -21 -7 -54 -25 -73 -41 -29 -24 -36 -36
-36 -65 0 -27 -10 -47 -44 -86 -54 -65 -111 -175 -125 -246 -14 -69 -2 -117
41 -157 48 -45 92 -59 183 -58 138 0 299 67 387 161 54 58 72 107 71 186 l-1
58 56 45 c50 39 143 84 174 84 19 0 2 -59 -61 -219 -34 -85 -61 -162 -61 -173
0 -28 45 -23 69 7 21 27 71 149 124 305 27 79 36 95 57 101 59 16 429 3 449
-16 2 -3 -12 -37 -32 -76 -80 -155 -31 -249 147 -280 158 -27 431 59 522 164
89 104 64 280 -51 358 -48 33 -135 59 -196 59 -117 0 -278 -78 -279 -134 0
-12 -12 -29 -26 -40 -24 -17 -29 -17 -77 -2 -90 27 -188 38 -322 34 l-130 -3
3 25 c1 14 23 76 48 139 52 130 53 155 9 159 -17 2 -36 -3 -42 -9z m912 -260
c82 -38 133 -146 111 -233 -12 -47 -63 -93 -140 -125 -233 -97 -442 -76 -438
43 3 83 66 162 167 210 60 28 77 31 177 25 65 -4 90 10 72 39 -15 24 -77 35
-164 28 -60 -4 -71 -3 -55 6 70 42 190 44 270 7z m-1473 -121 c70 -55 118
-198 92 -274 -24 -70 -118 -140 -239 -177 -117 -36 -197 -30 -250 19 -25 23
-27 30 -22 74 15 123 137 284 272 359 78 43 91 43 147 -1z"/>
<path d="M11240 17025 c-253 -47 -484 -156 -644 -306 -91 -85 -130 -148 -130
-214 -2 -136 145 -214 352 -187 208 28 404 120 552 259 63 59 81 72 75 53 -8
-26 -155 -446 -207 -590 -72 -199 -168 -335 -273 -385 -30 -14 -67 -25 -84
-25 -42 0 -61 -9 -61 -31 0 -55 117 -45 217 20 159 103 239 266 469 957 80
240 93 289 91 335 -3 53 -4 54 -52 81 -49 26 -144 49 -201 47 -16 0 -63 -7
-104 -14z m202 -72 c24 -9 53 -23 65 -31 l23 -14 -35 -67 c-52 -98 -127 -195
-190 -244 -174 -137 -479 -232 -632 -197 -77 17 -123 61 -123 117 0 70 77 162
210 253 213 145 549 235 682 183z"/>
<path d="M3775 15453 c-73 -16 -205 -88 -355 -194 -297 -210 -442 -400 -498
-656 -13 -60 -14 -86 -5 -137 22 -131 103 -244 210 -293 161 -74 351 -61 559
37 180 85 291 177 339 283 37 81 40 118 16 165 -27 52 -61 79 -129 98 -105 31
-240 3 -404 -84 -132 -69 -418 -296 -418 -332 0 -17 28 -18 53 -2 23 15 131
94 225 165 56 42 219 122 297 146 39 12 104 24 145 27 65 4 81 2 120 -19 73
-38 78 -89 17 -169 -70 -91 -213 -184 -377 -243 -100 -36 -263 -45 -360 -20
-113 29 -174 81 -211 178 -18 47 -21 72 -17 140 9 151 79 300 207 439 140 151
432 344 571 379 56 13 66 19 75 43 8 23 6 30 -10 42 -10 8 -21 13 -24 13 -3
-1 -15 -3 -26 -6z"/>
<path d="M15760 14660 c0 -5 5 -10 10 -10 6 0 10 5 10 10 0 6 -4 10 -10 10 -5
0 -10 -4 -10 -10z"/>
<path d="M15557 11152 c-9 -2 -15 -8 -12 -13 8 -12 65 -12 65 0 0 11 -29 18
-53 13z"/>
<path d="M13362 3589 c2 -6 8 -10 13 -10 5 0 11 4 13 10 2 6 -4 11 -13 11 -9
0 -15 -5 -13 -11z"/>
</g>
</svg>
