<?xml version="1.0" standalone="no"?>
<!DOCTYPE svg PUBLIC "-//W3C//DTD SVG 20010904//EN"
 "http://www.w3.org/TR/2001/REC-SVG-20010904/DTD/svg10.dtd">
<svg version="1.0" xmlns="http://www.w3.org/2000/svg"
 width="3264.000000pt" height="2448.000000pt" viewBox="0 0 3264.000000 2448.000000"
 preserveAspectRatio="xMidYMid meet">
<metadata>
Created by potrace 1.12, written by Peter Selinger 2001-2015
</metadata>
<g transform="translate(0.000000,2448.000000) scale(0.100000,-0.100000)"
fill="#000000" stroke="none">
<path d="M22896 24275 c-3 -9 1 -18 10 -22 19 -7 28 2 21 22 -8 19 -23 19 -31
0z"/>
<path d="M3325 22504 c-14 -15 -25 -32 -25 -39 0 -18 -78 -143 -142 -228 -74
-97 -85 -121 -68 -142 21 -25 19 -26 95 56 54 58 225 311 225 331 0 21 -27 48
-46 48 -8 0 -26 -12 -39 -26z"/>
<path d="M7522 22328 c-20 -20 -14 -45 16 -66 25 -19 27 -25 25 -89 -4 -128
-25 -278 -49 -352 -13 -40 -24 -84 -24 -97 0 -28 36 -68 55 -60 7 2 50 10 95
17 89 13 100 9 100 -38 0 -12 17 -40 38 -63 38 -39 41 -40 107 -40 56 0 77 5
126 31 48 26 61 29 74 19 21 -18 45 4 45 42 0 16 7 42 15 58 15 29 135 133
143 125 3 -2 -14 -40 -37 -84 -46 -88 -49 -110 -23 -134 40 -36 69 -23 173 80
55 53 99 93 99 88 0 -5 -12 -43 -27 -85 -24 -69 -25 -78 -12 -105 27 -56 70
-47 168 35 39 33 76 60 81 60 4 0 14 -16 20 -35 6 -18 27 -48 47 -66 33 -29
41 -31 90 -27 60 5 108 34 108 64 0 17 -8 19 -66 19 -75 0 -99 13 -99 55 0 24
5 29 38 35 134 24 192 119 121 200 -63 71 -155 31 -212 -93 -22 -46 -36 -60
-108 -108 -46 -29 -87 -54 -92 -54 -4 0 0 17 9 38 52 118 55 176 10 188 -34 8
-78 -18 -128 -76 -55 -64 -128 -125 -128 -108 0 8 23 50 50 93 64 100 66 138
8 143 -44 4 -83 -15 -163 -78 -89 -71 -155 -145 -155 -174 0 -20 -9 -29 -47
-46 -27 -12 -71 -24 -99 -27 -44 -5 -55 -2 -73 16 -11 11 -21 34 -21 49 0 25
6 30 53 47 119 42 167 84 167 148 0 35 -24 83 -45 91 -32 12 -97 6 -134 -14
-48 -24 -74 -57 -97 -118 -9 -26 -22 -52 -28 -59 -16 -18 -146 -24 -153 -8 -6
17 9 104 36 210 11 44 24 132 27 196 7 117 7 117 -19 143 -28 28 -83 36 -105
14z m428 -467 c0 -29 -99 -96 -116 -78 -7 7 13 46 39 75 26 28 77 31 77 3z
m950 -25 c0 -16 -26 -46 -41 -46 -14 0 -11 22 8 42 19 22 33 23 33 4z"/>
<path d="M2611 22240 c-18 -4 -43 -12 -55 -18 -265 -120 -342 -166 -352 -207
-7 -29 10 -55 35 -55 9 0 41 19 71 41 78 59 271 148 337 155 52 7 53 6 53 -19
0 -33 -88 -205 -209 -409 -159 -269 -172 -382 -47 -416 39 -11 140 -1 172 17
10 5 45 21 76 35 79 35 256 153 263 177 8 24 -1 39 -24 39 -10 0 -74 -33 -143
-73 -133 -78 -233 -117 -297 -117 -39 0 -51 11 -51 48 0 29 51 143 108 240
153 263 183 320 207 392 29 87 27 116 -12 155 -27 27 -65 31 -132 15z"/>
<path d="M9881 22116 c-6 -7 -18 -49 -26 -92 -9 -44 -20 -94 -26 -111 l-11
-33 -82 0 c-91 0 -126 -15 -126 -54 0 -34 24 -49 62 -42 90 17 108 18 108 9 0
-13 -22 -66 -59 -148 -36 -78 -44 -111 -31 -135 6 -11 21 -20 34 -20 24 0 37
24 116 210 29 69 39 85 55 82 104 -13 156 -14 170 -2 40 33 5 66 -79 75 -76 8
-77 10 -46 93 24 64 26 144 4 166 -19 20 -48 21 -63 2z"/>
<path d="M3515 22055 c-147 -28 -225 -64 -288 -134 -41 -45 -44 -59 -23 -99
30 -59 76 -77 216 -87 91 -7 160 -25 160 -42 0 -18 -33 -54 -63 -69 -63 -33
-136 -44 -220 -32 -82 12 -103 6 -91 -26 22 -58 203 -77 301 -32 103 48 153
103 153 168 0 67 -63 98 -234 117 -99 11 -146 26 -146 46 0 13 36 48 65 63 46
24 187 52 258 52 53 0 78 4 87 15 28 34 -14 75 -75 74 -16 0 -61 -7 -100 -14z"/>
<path d="M4935 22007 c-132 -50 -226 -123 -260 -203 -24 -58 -20 -142 10 -186
56 -82 187 -89 400 -21 93 30 135 56 135 84 0 32 -28 34 -114 6 -161 -52 -310
-63 -346 -27 -62 62 23 199 156 250 80 30 180 38 222 16 65 -33 105 -13 86 43
-22 63 -170 82 -289 38z"/>
<path d="M6517 22000 c-19 -16 -48 -55 -65 -87 -17 -32 -44 -71 -60 -86 l-29
-28 -7 78 c-8 89 -25 123 -61 123 -31 0 -94 -55 -135 -121 -18 -27 -33 -49
-35 -49 -1 0 0 31 3 68 3 55 1 70 -12 81 -13 11 -22 11 -40 3 -25 -11 -36 -58
-36 -153 0 -26 -9 -76 -20 -111 -24 -76 -25 -111 -4 -128 31 -27 65 -1 111 85
23 44 43 89 43 100 0 21 67 116 86 122 13 4 24 -50 24 -123 0 -58 20 -84 62
-84 28 0 70 42 128 128 19 28 38 52 41 52 4 0 4 -20 2 -44 -4 -35 -1 -48 16
-65 23 -23 56 -28 67 -9 5 7 9 33 10 58 1 25 5 73 9 107 6 51 5 67 -9 88 -22
33 -48 32 -89 -5z"/>
<path d="M13426 22014 c-13 -13 -16 -43 -16 -168 l0 -153 -31 -7 c-17 -3 -50
-6 -73 -6 -45 0 -66 -13 -66 -42 0 -31 44 -51 100 -46 46 5 50 3 50 -17 0 -45
-33 -171 -51 -194 -24 -30 -24 -53 -1 -74 52 -47 84 -2 113 159 13 68 26 130
30 136 10 15 146 14 194 -2 19 -6 42 -21 50 -33 20 -29 19 -88 -2 -127 -18
-31 -18 -31 6 -51 27 -22 54 -18 89 14 43 40 25 176 -32 233 -39 39 -83 52
-199 61 l-88 6 7 76 c5 42 7 107 7 146 -1 59 -5 72 -23 87 -27 22 -44 23 -64
2z"/>
<path d="M6964 21977 c-28 -14 -76 -51 -107 -83 -47 -49 -57 -65 -57 -94 0
-19 -7 -73 -16 -120 -9 -51 -16 -145 -16 -235 -1 -204 20 -275 82 -275 15 0
35 9 46 21 16 18 19 45 26 232 6 192 3 253 -18 370 -6 33 -3 42 21 67 32 34
101 60 157 60 67 0 128 -46 128 -96 0 -40 -32 -122 -62 -158 -51 -62 -108 -41
-108 38 0 76 -50 104 -64 36 -16 -82 0 -140 50 -179 36 -28 66 -26 126 6 95
52 156 165 145 270 -11 110 -68 155 -202 161 -68 2 -88 -1 -131 -21z m-117
-539 c-2 -35 -3 -7 -3 62 0 69 1 97 3 63 2 -35 2 -91 0 -125z"/>
<path d="M9273 21930 c-27 -11 -42 -41 -75 -145 -38 -117 -39 -129 -22 -153
22 -31 54 -27 101 13 23 19 44 35 47 35 3 0 6 -11 6 -24 0 -14 9 -32 21 -40
19 -13 25 -13 50 0 16 8 29 18 30 22 0 4 2 23 4 42 1 19 6 53 10 76 6 31 3 44
-10 57 -25 25 -48 21 -100 -19 -26 -19 -49 -33 -53 -30 -7 8 27 83 45 97 19
17 16 57 -6 69 -22 11 -19 11 -48 0z"/>
<path d="M11709 21930 c-50 -15 -117 -61 -143 -98 -38 -55 -66 -143 -66 -207
0 -55 -15 -75 -24 -32 -3 12 -7 84 -8 159 -3 117 -6 139 -22 157 -11 12 -28
21 -39 21 -34 0 -129 -59 -189 -118 l-58 -56 0 34 c-1 51 -16 112 -32 121 -24
15 -56 10 -63 -11 -3 -10 -1 -37 5 -60 12 -44 -1 -205 -21 -256 -13 -36 -4
-70 21 -84 27 -15 58 3 66 38 10 43 73 157 111 201 34 40 119 98 129 89 3 -3
9 -70 14 -148 11 -155 21 -185 67 -196 14 -4 40 -2 58 5 26 9 38 8 65 -5 48
-24 159 -30 185 -10 20 16 20 16 -2 35 -13 11 -45 22 -73 26 -27 4 -52 11 -55
15 -3 5 26 29 63 54 62 41 140 124 170 183 48 90 -49 177 -159 143z m67 -105
c12 -29 -57 -112 -148 -178 -37 -27 -58 -34 -58 -19 0 28 32 108 55 138 48 63
137 98 151 59z"/>
<path d="M5435 21898 c-79 -32 -80 -33 -88 -79 -19 -110 -19 -153 2 -186 32
-52 72 -66 165 -61 66 4 91 10 135 35 103 56 145 142 102 210 -30 47 -63 64
-150 77 -44 6 -83 14 -87 19 -10 10 -22 8 -79 -15z m223 -108 c17 -11 32 -27
32 -36 0 -66 -194 -133 -258 -88 -32 22 -30 80 3 117 24 25 31 27 108 27 64 0
89 -4 115 -20z"/>
<path d="M13833 21908 c-13 -6 -41 -35 -64 -65 -50 -67 -51 -106 -3 -111 30
-3 58 16 105 74 9 10 26 27 38 36 54 45 -9 99 -76 66z"/>
<path d="M12128 21830 c-45 -24 -86 -90 -105 -169 -15 -66 -10 -101 20 -129
28 -27 68 -36 114 -27 28 5 57 26 116 83 62 61 80 74 87 62 36 -57 -105 -427
-191 -505 -48 -43 -65 -41 -124 16 -43 41 -65 48 -84 25 -33 -39 47 -130 125
-142 65 -9 94 2 151 61 39 40 69 88 118 187 99 202 130 361 86 435 -39 64 -83
51 -198 -58 -96 -91 -152 -105 -137 -36 8 40 40 103 56 113 7 4 42 10 78 13
62 6 65 7 68 33 3 21 -3 30 -27 42 -41 21 -108 19 -153 -4z"/>
<path d="M12815 21816 c-104 -33 -181 -87 -242 -170 -56 -76 -57 -111 -7 -162
l37 -36 91 4 c89 4 95 5 176 53 47 27 111 75 144 108 32 32 61 55 65 52 3 -4
6 -79 6 -168 0 -89 4 -169 8 -179 13 -26 61 -42 86 -29 42 23 56 90 22 113
-17 12 -19 31 -22 190 -4 160 -6 180 -25 205 -12 15 -28 29 -36 31 -22 4 -65
-34 -103 -94 -59 -91 -227 -194 -323 -197 -64 -2 -82 12 -59 47 41 62 116 111
219 140 71 21 96 46 80 81 -13 29 -50 32 -117 11z"/>
<path d="M14381 21701 c-9 -6 -17 -35 -21 -73 -4 -35 -20 -102 -35 -151 -23
-72 -26 -92 -17 -112 9 -18 19 -25 41 -25 24 0 39 11 73 52 80 97 143 154 178
161 54 11 64 -4 57 -98 -6 -87 -4 -96 31 -114 35 -19 56 7 70 83 17 90 15 123
-9 166 -39 68 -98 77 -199 29 -36 -17 -74 -38 -84 -47 -18 -17 -19 -15 -12 36
6 47 4 55 -18 77 -27 27 -34 29 -55 16z"/>
<path d="M13990 21683 c-35 -14 -70 -46 -70 -63 0 -11 11 -27 24 -35 22 -15
25 -26 32 -107 6 -75 11 -95 31 -119 33 -39 72 -38 117 2 95 83 111 209 37
291 -25 29 -35 32 -92 35 -35 1 -71 0 -79 -4z m100 -93 c27 -15 34 -61 14
-109 -27 -67 -34 -57 -48 72 -6 49 0 55 34 37z"/>
<path d="M32372 20833 c-23 -5 -40 -28 -28 -40 3 -4 40 -8 81 -10 62 -3 76 -1
81 12 4 9 2 21 -3 26 -11 11 -98 20 -131 12z"/>
<path d="M9274 20717 c-8 -21 45 -94 79 -108 52 -22 178 12 221 59 39 44 -8
55 -90 21 -65 -27 -134 -20 -166 17 -24 27 -36 30 -44 11z"/>
<path d="M20194 20482 c-17 -12 -58 -212 -57 -277 2 -70 36 -240 54 -261 17
-21 36 -17 55 11 12 19 14 40 10 97 -3 40 -8 150 -12 243 -6 180 -15 212 -50
187z"/>
<path d="M11980 20428 c-28 -30 -76 -132 -89 -188 -6 -25 -11 -79 -11 -120 l0
-75 -55 -29 c-57 -29 -75 -57 -55 -81 18 -21 35 -19 80 11 22 15 43 25 46 22
3 -3 15 -25 27 -49 54 -108 214 -133 373 -58 86 41 124 86 124 145 0 64 -43
107 -124 124 -73 15 -156 3 -318 -46 -16 -5 -18 2 -18 50 0 62 25 136 71 207
34 53 37 84 10 99 -28 15 -38 13 -61 -12z m342 -405 c20 -21 21 -23 4 -48 -21
-32 -103 -71 -168 -80 -85 -13 -188 40 -188 96 0 21 16 27 119 45 111 19 206
14 233 -13z"/>
<path d="M16746 20413 c-57 -57 -121 -150 -162 -237 -30 -64 -40 -77 -58 -74
-11 2 -27 16 -35 33 -17 36 -4 97 34 153 28 42 31 64 11 82 -50 41 -116 -56
-123 -182 -5 -86 6 -112 60 -148 24 -15 37 -30 34 -40 -52 -174 -56 -230 -17
-230 26 0 30 9 63 134 34 133 39 142 76 149 34 7 101 62 101 83 0 21 -27 28
-56 16 -13 -7 -24 -8 -24 -4 0 11 112 164 131 178 8 6 27 14 42 18 39 9 55 47
33 81 -25 38 -64 33 -110 -12z"/>
<path d="M13860 20431 c-117 -17 -236 -87 -276 -163 -18 -34 -18 -88 0 -113 7
-11 66 -47 130 -80 127 -66 128 -67 101 -145 -21 -59 -19 -133 4 -178 33 -65
93 -78 171 -38 59 30 90 76 90 134 0 58 -25 97 -95 147 -30 22 -55 43 -55 48
0 28 118 166 148 173 42 10 72 33 72 54 0 22 -36 50 -63 50 -29 0 -129 -102
-171 -175 -37 -62 -59 -77 -82 -56 -5 5 -30 20 -55 34 -88 48 -119 72 -126 96
-8 31 4 49 54 84 50 36 194 61 294 51 52 -4 68 -3 78 10 17 21 8 44 -23 56
-37 14 -135 19 -196 11z m85 -492 c48 -34 67 -72 54 -105 -19 -52 -98 -73
-120 -32 -17 32 -3 168 17 168 3 0 25 -14 49 -31z"/>
<path d="M18440 20433 c-261 -35 -346 -70 -338 -139 4 -39 37 -43 80 -11 67
51 240 83 370 68 78 -9 149 -36 156 -59 2 -8 -59 -76 -137 -152 -158 -154
-180 -189 -157 -244 22 -53 67 -63 209 -47 239 27 321 55 287 97 -15 18 -13
18 -195 -10 -133 -20 -204 -21 -211 -1 -7 18 20 63 55 90 48 36 164 150 202
198 24 30 39 59 39 77 0 56 -59 100 -160 120 -55 10 -166 18 -200 13z"/>
<path d="M5255 20410 c-60 -10 -128 -26 -150 -35 -51 -22 -105 -78 -105 -109
0 -43 116 -170 201 -221 40 -24 99 -108 99 -140 0 -51 -110 -159 -155 -153
-18 3 -20 10 -19 78 1 41 9 108 18 149 12 55 14 77 6 85 -13 13 -50 -26 -50
-53 0 -9 -11 -49 -25 -89 -26 -77 -33 -169 -15 -202 6 -11 28 -25 49 -31 34
-10 45 -9 93 13 60 28 148 109 167 156 15 36 2 93 -31 138 -13 17 -71 72 -130
122 -112 96 -128 116 -128 154 1 40 31 63 98 78 34 7 65 11 68 8 2 -3 -11 -38
-31 -79 -19 -40 -35 -81 -35 -91 0 -32 28 -19 54 27 15 24 42 56 61 71 25 19
35 34 35 54 l0 28 67 -3 c78 -4 93 1 93 26 0 41 -63 46 -235 19z"/>
<path d="M7578 20373 c-37 -39 -58 -97 -58 -157 0 -117 -33 -156 -86 -99 -23
25 -32 49 -51 137 -11 51 -40 72 -71 50 -60 -42 14 -217 118 -275 21 -12 41
-30 43 -40 3 -10 -4 -44 -14 -75 -17 -52 -18 -60 -4 -73 27 -27 49 -2 57 64
10 74 33 136 70 182 32 41 34 50 12 74 -14 16 -13 22 7 68 12 29 35 61 50 72
16 11 29 29 29 40 0 62 -57 79 -102 32z"/>
<path d="M3960 20362 c-26 -21 -26 -31 8 -182 6 -25 15 -75 20 -111 5 -36 16
-81 24 -100 17 -37 38 -120 38 -145 0 -9 6 -30 14 -47 8 -18 17 -45 20 -62 6
-40 52 -216 61 -237 7 -19 32 -31 46 -22 16 9 10 35 -35 174 -24 74 -50 162
-57 195 -7 33 -16 65 -21 71 -5 7 -13 37 -18 68 -6 31 -14 82 -20 114 -5 31
-13 104 -16 162 -5 80 -10 109 -23 123 -17 17 -18 17 -41 -1z"/>
<path d="M11424 20325 c-26 -40 -34 -102 -24 -200 21 -207 56 -310 103 -303
27 4 28 31 2 138 -22 94 -26 271 -6 318 12 29 12 35 -4 52 -25 27 -51 25 -71
-5z"/>
<path d="M9074 20310 c-142 -15 -174 -22 -206 -44 -37 -24 -44 -62 -16 -79 13
-9 28 -6 63 12 129 65 695 61 695 -4 0 -15 -43 -54 -101 -93 -56 -37 -99 -87
-99 -112 0 -10 14 -29 30 -42 89 -68 90 -69 90 -103 0 -47 -63 -101 -191 -164
-105 -52 -130 -58 -183 -45 -31 7 -46 -6 -46 -43 0 -33 27 -53 72 -53 98 0
367 155 421 242 41 66 32 107 -40 174 l-54 51 86 68 c94 75 105 89 105 133 0
48 -39 70 -165 91 -81 14 -373 21 -461 11z"/>
<path d="M9853 20281 c-53 -14 -122 -60 -129 -86 -12 -47 26 -60 74 -27 41 28
102 42 178 41 86 -1 138 -18 142 -47 5 -31 -78 -115 -214 -217 -63 -47 -118
-94 -124 -105 -17 -31 -12 -68 12 -84 32 -23 149 -21 289 5 130 23 174 43 174
80 0 22 -4 24 -45 23 -25 -1 -78 -11 -119 -23 -73 -21 -211 -29 -211 -13 0 15
85 90 135 118 27 16 75 55 106 87 114 117 118 189 12 234 -42 17 -231 27 -280
14z"/>
<path d="M4525 20275 c-5 -1 -36 -9 -69 -16 -87 -19 -143 -84 -102 -118 18
-15 38 -6 64 28 21 29 72 46 122 42 30 -2 70 -44 70 -72 0 -30 -55 -132 -103
-191 -57 -71 -112 -163 -128 -216 -11 -39 -10 -45 8 -70 29 -39 64 -49 121
-33 26 7 65 14 87 15 44 2 183 56 228 88 64 46 6 67 -67 24 -113 -66 -274 -95
-300 -54 -19 31 21 108 152 293 59 84 77 168 47 225 -23 44 -83 70 -130 55z"/>
<path d="M6398 20131 c-16 -18 -34 -66 -52 -139 -24 -99 -26 -118 -17 -169 13
-67 33 -98 84 -132 23 -15 37 -32 37 -45 0 -32 28 -66 54 -66 33 0 78 38 71
60 -5 15 4 18 72 24 93 8 151 24 248 71 123 59 169 137 108 184 -39 32 -66 35
-125 16 -95 -31 -303 -155 -313 -186 -3 -10 -21 -20 -41 -23 -44 -9 -96 21
-115 66 -29 71 -12 197 37 270 30 44 34 56 25 75 -14 31 -44 29 -73 -6z m542
-285 c0 -38 -205 -130 -311 -139 -34 -2 -41 12 -14 27 11 6 39 23 62 38 55 35
131 70 168 79 55 12 95 10 95 -5z"/>
<path d="M3150 19880 c0 -5 7 -10 15 -10 8 0 15 5 15 10 0 6 -7 10 -15 10 -8
0 -15 -4 -15 -10z"/>
<path d="M4887 19822 c-22 -24 -21 -32 2 -32 22 0 45 25 36 40 -9 15 -20 12
-38 -8z"/>
<path d="M14105 19563 c-99 -6 -636 -86 -698 -104 -67 -18 -98 -69 -61 -99 12
-11 26 -10 77 8 64 22 197 46 442 81 223 31 249 34 465 40 l205 6 3 26 c3 22
-2 29 -29 38 -29 10 -274 13 -404 4z"/>
<path d="M15930 19543 c-199 -4 -518 -24 -609 -37 -120 -18 -146 -32 -146 -76
0 -34 1 -35 40 -33 22 1 87 11 145 22 72 13 184 23 355 30 391 16 912 23 1000
13 94 -11 118 -3 113 36 -6 50 -22 52 -418 50 -201 -1 -417 -3 -480 -5z"/>
<path d="M17725 19530 c-147 -10 -225 -43 -225 -96 0 -43 33 -48 103 -17 l62
28 220 -1 c121 -1 292 -9 380 -17 435 -43 611 -58 632 -53 35 9 48 41 25 64
-15 15 -41 21 -123 26 -57 4 -187 16 -289 26 -345 36 -627 50 -785 40z"/>
<path d="M11870 19523 c-435 -13 -751 -57 -873 -120 -23 -12 -28 -20 -25 -46
4 -42 24 -45 101 -13 172 71 616 110 1169 102 168 -3 316 -2 327 1 33 8 25 37
-13 51 -48 17 -454 32 -686 25z"/>
<path d="M19354 19481 c-87 -7 -117 -21 -112 -55 3 -20 9 -21 168 -23 124 -1
234 -10 445 -37 154 -20 304 -41 334 -46 76 -14 107 -12 125 6 39 39 8 69 -81
78 -37 4 -174 20 -303 36 -242 30 -454 51 -480 48 -8 0 -52 -4 -96 -7z"/>
<path d="M7645 19440 c-16 -5 -82 -16 -145 -24 -63 -9 -160 -22 -215 -30 -55
-8 -152 -20 -215 -26 -63 -6 -146 -15 -185 -20 -207 -26 -408 -34 -577 -23
-185 12 -208 9 -208 -32 0 -23 31 -51 43 -38 4 3 116 7 249 8 299 4 598 26
808 61 47 7 142 18 210 24 154 14 319 45 338 64 8 8 12 22 9 30 -7 18 -61 20
-112 6z"/>
<path d="M8713 19388 c-25 -12 -36 -37 -27 -61 8 -23 30 -27 104 -19 36 4 137
4 225 0 88 -3 241 -9 340 -12 99 -4 302 -12 450 -18 357 -16 365 -15 365 21 0
13 -8 22 -22 25 -40 8 -406 26 -648 31 -330 8 -428 13 -485 24 -80 15 -277 21
-302 9z"/>
<path d="M32110 19354 c-115 -9 -296 -27 -408 -40 -105 -12 -129 -18 -158 -40
-25 -19 -34 -34 -34 -55 0 -46 28 -53 92 -24 43 19 93 28 263 45 256 26 650
37 621 18 -172 -118 -336 -277 -421 -408 -23 -36 -77 -119 -120 -185 -167
-259 -288 -390 -415 -453 -63 -31 -76 -41 -78 -64 -2 -19 3 -30 18 -38 28 -15
71 -1 151 51 136 88 280 255 424 490 104 170 157 241 245 329 144 144 234 210
333 243 13 5 17 18 17 61 0 44 -4 56 -17 60 -23 6 -453 15 -513 10z"/>
<path d="M3350 19329 c-9 -15 -8 -24 1 -36 34 -40 100 -46 524 -49 193 -1 492
-4 665 -6 227 -4 350 -1 440 9 69 7 166 17 215 22 131 13 175 35 141 69 -15
15 -34 13 -238 -21 -194 -32 -453 -58 -483 -48 -5 2 -75 5 -155 7 -80 2 -161
6 -181 9 -35 5 -375 19 -411 17 -185 -10 -376 2 -437 29 -55 24 -68 24 -81 -2z"/>
<path d="M30711 19318 c-135 -9 -181 -18 -320 -61 -109 -34 -135 -53 -115 -84
17 -29 74 -43 104 -28 15 8 43 11 71 8 38 -4 51 -1 67 15 11 11 21 24 23 30 6
17 116 30 302 38 140 6 167 5 167 -7 0 -25 -31 -103 -48 -122 -35 -40 -192
-147 -272 -187 -113 -57 -320 -177 -344 -200 -24 -23 -16 -62 16 -78 15 -8 96
-14 223 -16 264 -6 335 -24 459 -114 49 -36 96 -115 96 -164 0 -79 -82 -196
-163 -233 -67 -30 -257 -64 -322 -58 -59 6 -81 -10 -71 -52 16 -61 112 -70
289 -25 118 29 167 51 203 91 10 11 27 25 36 30 14 8 16 6 11 -7 -7 -19 -5
-18 62 27 68 47 125 117 125 156 0 13 9 32 20 43 28 28 24 82 -13 158 -16 33
-41 29 -31 -5 4 -16 7 -58 7 -94 0 -66 0 -67 -61 -146 -34 -44 -62 -85 -62
-90 0 -10 -22 -23 -37 -23 -3 0 8 15 25 34 43 49 75 140 69 198 -7 77 -59 170
-125 224 -116 96 -240 137 -451 150 -110 7 -113 7 -91 24 12 9 64 34 114 56
167 71 363 219 387 292 6 20 26 63 43 95 34 65 31 79 -20 108 -36 21 -209 29
-373 17z"/>
<path d="M13820 19066 c-25 -6 -63 -25 -84 -41 -32 -24 -37 -33 -32 -56 5 -25
0 -31 -58 -63 -89 -50 -213 -161 -267 -239 -63 -90 -82 -156 -78 -261 4 -74 9
-93 44 -162 32 -63 50 -85 88 -111 138 -93 354 -115 518 -53 114 42 262 157
330 256 55 81 71 139 67 244 -4 112 -31 179 -104 261 -30 34 -44 59 -44 78 0
38 -38 71 -92 78 -23 3 -72 20 -108 38 -80 40 -122 47 -180 31z m229 -155 c71
-47 146 -127 177 -188 26 -51 29 -68 29 -148 0 -79 -4 -97 -30 -150 -49 -101
-176 -209 -310 -264 -150 -61 -399 -25 -465 68 -31 45 -51 122 -51 200 0 66 4
84 35 145 92 185 295 330 501 359 62 8 73 6 114 -22z"/>
<path d="M16277 18996 c-14 -14 -53 -200 -81 -386 -45 -300 -96 -578 -126
-691 -12 -42 -40 -197 -40 -220 0 -8 6 -24 14 -34 19 -26 40 -8 54 48 36 136
107 438 127 537 13 63 41 203 63 311 53 255 70 389 54 423 -13 29 -43 34 -65
12z"/>
<path d="M19828 18889 c-13 -7 -17 -23 -16 -67 1 -46 -8 -79 -47 -177 -26 -66
-51 -131 -55 -145 -5 -14 -34 -97 -64 -184 -84 -238 -120 -400 -133 -593 -5
-81 -4 -93 10 -93 21 0 25 9 37 67 54 279 115 469 265 828 80 192 100 269 85
324 -13 49 -43 63 -82 40z"/>
<path d="M6845 18835 c-139 -35 -216 -76 -300 -159 -138 -138 -203 -364 -192
-661 9 -257 85 -377 274 -435 122 -38 242 -21 415 59 117 53 198 110 289 201
111 111 157 212 166 365 6 99 -10 163 -68 278 -41 81 -64 110 -131 163 -38 31
-58 54 -58 69 0 32 -59 83 -126 106 -77 27 -191 33 -269 14z m190 -65 c3 -6
-5 -10 -18 -10 -14 0 -35 -9 -48 -19 -22 -18 -23 -21 -8 -36 12 -13 21 -14 43
-5 38 14 65 12 106 -8 31 -15 35 -22 35 -56 0 -50 24 -69 54 -42 18 16 23 17
38 5 81 -65 145 -194 173 -349 28 -154 -52 -308 -228 -438 -204 -152 -427
-201 -576 -128 -121 59 -167 142 -174 309 -11 253 57 508 166 629 60 66 148
112 277 144 62 15 152 17 160 4z"/>
<path d="M17839 18817 c-92 -33 -164 -84 -252 -176 -84 -88 -143 -195 -173
-311 -46 -181 34 -346 210 -429 110 -52 150 -61 260 -61 273 0 471 101 556
282 69 148 67 308 -7 450 -45 86 -90 137 -163 187 -76 50 -146 71 -268 77 -85
4 -105 2 -163 -19z m227 -96 c20 -12 42 -40 58 -74 32 -68 73 -89 96 -48 8 15
3 32 -20 75 -40 77 -17 74 64 -6 48 -49 70 -81 97 -143 32 -76 34 -86 34 -195
0 -101 -3 -121 -24 -165 -52 -106 -119 -165 -246 -215 -47 -18 -86 -24 -180
-28 -110 -4 -126 -2 -200 22 -158 53 -232 127 -242 244 -12 126 55 290 161
394 130 129 314 193 402 139z"/>
<path d="M4645 18797 c-43 -20 -67 -46 -60 -66 4 -13 -9 -20 -68 -35 -96 -24
-240 -104 -311 -173 -203 -199 -191 -610 23 -741 165 -102 355 -79 574 70 111
75 236 187 277 248 62 91 73 132 68 258 -3 95 -7 113 -32 159 -38 70 -206 218
-296 262 -57 28 -135 36 -175 18z m96 -59 c87 -29 238 -157 278 -237 77 -151
65 -289 -36 -402 -75 -83 -225 -191 -343 -248 -72 -35 -79 -36 -185 -36 -126
0 -165 14 -227 83 -56 62 -81 139 -82 252 0 206 82 340 259 425 190 91 315 90
425 -5 38 -32 87 -40 96 -15 10 24 -29 78 -72 102 -50 28 -145 53 -201 53 -47
0 -55 11 -20 28 30 14 67 14 108 0z"/>
<path d="M9535 18780 c-16 -18 -17 -25 -7 -54 7 -18 12 -48 12 -67 0 -56 -36
-188 -78 -284 -21 -49 -50 -128 -65 -175 -83 -272 -97 -323 -112 -403 -9 -48
-14 -96 -10 -107 3 -10 22 -24 42 -30 53 -18 66 0 68 97 4 116 87 398 190 645
85 206 85 398 0 398 -12 0 -30 -9 -40 -20z"/>
<path d="M11882 18750 c-19 -4 -52 -21 -75 -37 -23 -17 -55 -33 -71 -37 -48
-12 -132 -72 -207 -148 -149 -154 -198 -243 -207 -380 -4 -65 -1 -83 18 -122
12 -25 36 -58 53 -72 81 -68 230 -102 372 -84 154 19 346 142 406 260 31 62
37 177 14 273 -37 158 -145 325 -223 347 -20 5 -39 9 -42 9 -3 -1 -20 -5 -38
-9z m107 -164 c46 -24 48 -27 74 -108 68 -214 58 -309 -45 -404 -99 -92 -209
-130 -343 -121 -91 7 -154 26 -202 63 -53 40 -67 76 -60 158 9 104 47 173 159
288 124 127 160 145 296 147 58 1 82 -4 121 -23z"/>
<path d="M916 18709 c-135 -31 -204 -66 -231 -119 -16 -32 -11 -56 14 -70 23
-12 36 -2 54 41 12 30 23 38 73 56 89 31 171 46 250 46 113 -1 145 -33 82 -83
-17 -14 -50 -41 -73 -60 -24 -19 -70 -57 -104 -84 -79 -65 -117 -117 -102
-144 10 -20 32 -29 151 -67 167 -53 361 -174 389 -243 23 -55 -27 -124 -140
-193 -66 -40 -75 -42 -142 -42 -40 0 -92 4 -115 8 -26 4 -48 3 -54 -3 -17 -17
0 -48 37 -65 71 -34 209 -15 310 41 87 49 102 61 144 115 52 67 66 137 37 182
-21 32 -134 121 -200 158 -78 43 -193 97 -208 97 -24 0 -112 37 -116 49 -6 18
14 38 124 120 186 140 218 210 115 254 -48 20 -216 24 -295 6z"/>
<path d="M29305 18656 c-137 -6 -256 -15 -262 -19 -20 -12 -15 -51 8 -82 17
-21 27 -25 48 -20 14 3 53 7 86 9 33 2 152 8 265 15 271 14 638 14 696 0 38
-10 48 -9 61 4 25 24 9 62 -34 83 -34 17 -66 19 -328 20 -159 1 -402 -4 -540
-10z"/>
<path d="M1725 18566 c-55 -13 -127 -28 -159 -34 -58 -11 -106 -34 -106 -51 0
-5 8 -18 18 -29 l17 -21 75 20 c41 11 107 26 145 34 335 69 381 20 240 -256
-75 -148 -197 -319 -300 -419 -79 -78 -91 -96 -74 -116 22 -27 46 -14 130 74
115 118 165 180 235 292 100 159 162 295 170 372 7 67 7 67 -28 102 -18 18
-52 39 -73 45 -62 17 -180 12 -290 -13z"/>
<path d="M2883 18390 c-27 -11 -30 -41 -5 -62 9 -8 51 -23 92 -33 82 -19 170
-53 170 -65 0 -14 -31 -20 -103 -20 -40 0 -135 -7 -212 -15 -77 -8 -198 -20
-270 -26 -152 -12 -175 -19 -175 -53 0 -48 15 -50 207 -27 406 50 570 76 628
103 37 17 32 48 -13 78 -26 17 -32 25 -21 28 24 5 124 -35 144 -58 18 -20 17
-21 -22 -58 -22 -20 -80 -55 -129 -77 -279 -123 -358 -174 -352 -224 4 -38 36
-38 84 0 21 17 110 66 197 109 260 130 327 179 327 238 -1 73 -99 118 -346
156 -112 18 -168 19 -201 6z"/>
<path d="M13887 17466 c-11 -11 -13 -32 -10 -83 6 -97 -33 -615 -57 -758 -11
-66 -32 -165 -46 -220 -36 -138 -39 -159 -21 -174 23 -18 52 1 70 46 17 44 91
357 106 453 13 79 41 495 41 603 0 121 -36 179 -83 133z"/>
<path d="M11422 17426 c-14 -19 -22 -57 -33 -173 -26 -276 -16 -444 53 -883 5
-36 13 -128 17 -205 l6 -140 27 -3 c44 -5 52 24 45 163 -4 66 -13 170 -21 230
-36 276 -41 342 -41 560 0 127 6 279 13 338 10 83 10 112 1 123 -17 21 -45 17
-67 -10z"/>
<path d="M4194 17276 c-17 -13 -19 -25 -16 -113 1 -54 -7 -234 -18 -401 -18
-263 -19 -328 -10 -489 6 -102 16 -206 21 -232 6 -25 13 -59 16 -74 6 -33 27
-31 31 4 2 13 8 168 12 344 5 176 13 360 19 408 5 48 13 186 17 307 7 204 6
221 -11 240 -21 24 -34 25 -61 6z"/>
<path d="M17881 17233 c-12 -8 -21 -21 -21 -29 0 -17 -101 -490 -155 -728 -33
-144 -76 -304 -130 -484 -34 -116 -43 -203 -20 -225 37 -38 59 -15 68 73 4 30
29 127 57 215 70 221 179 659 235 945 9 47 23 108 32 135 24 80 -13 136 -66
98z"/>
<path d="M19472 17197 c-6 -7 -10 -48 -10 -92 1 -48 -7 -118 -20 -175 -27
-123 -58 -316 -72 -455 -16 -152 -32 -230 -79 -378 -44 -138 -51 -191 -25
-201 23 -9 31 -1 65 65 72 144 99 247 134 525 14 109 43 287 65 394 49 239 50
262 11 301 -32 31 -52 36 -69 16z"/>
<path d="M6883 17178 c-4 -7 -18 -65 -30 -128 -78 -407 -98 -702 -69 -1025 7
-82 13 -168 12 -190 -1 -35 2 -40 22 -43 56 -8 68 54 46 230 -19 141 -21 334
-5 458 26 208 34 263 57 385 48 253 50 281 29 305 -20 23 -50 26 -62 8z"/>
<path d="M850 17152 c-27 -8 -40 -46 -22 -64 6 -6 92 -12 193 -14 195 -4 254
-12 254 -33 0 -7 -36 -38 -79 -69 -99 -71 -125 -113 -107 -174 15 -48 67 -107
164 -184 40 -32 100 -85 135 -118 94 -92 86 -127 -57 -240 -130 -102 -319
-206 -375 -206 -28 0 -59 -32 -51 -52 11 -28 53 -40 93 -27 72 24 209 103 362
210 154 107 208 222 145 305 -14 18 -80 78 -148 134 -127 105 -197 180 -197
210 0 23 81 97 157 143 47 29 63 44 68 68 15 68 2 71 -460 114 -27 2 -61 1
-75 -3z"/>
<path d="M9275 17153 c-61 -8 -202 -56 -278 -94 -357 -178 -462 -390 -331
-665 59 -125 174 -206 342 -241 112 -23 318 -13 427 21 240 74 381 168 453
304 78 147 81 330 6 429 -93 124 -208 201 -339 227 -76 15 -232 26 -280 19z
m134 -105 c17 -17 31 -36 31 -42 0 -15 31 -46 46 -46 8 0 21 11 29 24 14 22
15 28 1 60 -17 42 -14 43 55 22 110 -34 215 -115 257 -200 88 -175 13 -401
-168 -511 -218 -132 -518 -171 -724 -95 -95 36 -147 78 -185 153 -29 57 -34
78 -39 161 -6 113 8 158 70 237 41 52 154 132 263 186 88 45 102 47 108 23 5
-21 41 -28 52 -10 13 21 105 59 166 69 4 1 21 -13 38 -31z"/>
<path d="M16005 17109 c-48 -6 -95 -21 -150 -48 -44 -22 -108 -51 -142 -64
-215 -84 -400 -270 -458 -462 -55 -181 -42 -289 46 -377 94 -93 238 -140 439
-142 225 -2 425 64 612 200 107 79 209 229 239 354 21 85 18 224 -6 289 -65
176 -318 285 -580 250z m307 -109 c130 -53 189 -118 209 -230 10 -59 10 -81
-4 -151 -30 -146 -92 -246 -208 -333 -159 -120 -355 -186 -550 -186 -254 0
-449 108 -449 250 1 156 102 349 239 454 141 109 283 165 435 172 104 5 107 5
170 -40 24 -17 28 -17 51 -2 32 21 31 37 -2 76 l-27 32 34 -7 c19 -4 65 -20
102 -35z"/>
<path d="M1551 17028 c-28 -10 -27 -40 2 -74 22 -25 26 -26 57 -16 45 16 376
15 461 -1 36 -7 83 -22 105 -34 50 -26 55 -55 16 -108 -34 -47 -192 -223 -371
-415 -250 -267 -299 -338 -259 -378 23 -23 48 -13 65 26 25 60 71 118 199 251
67 69 139 146 160 170 22 25 86 95 143 155 114 121 156 180 172 240 14 50 2
77 -48 110 -73 49 -178 68 -368 67 -93 0 -202 3 -242 7 -39 5 -81 5 -92 0z"/>
<path d="M27966 16979 c-14 -28 -26 -53 -26 -55 0 -10 34 -2 70 16 43 22 51
47 24 74 -26 26 -40 19 -68 -35z"/>
<path d="M2970 16728 c-26 -9 -26 -49 -1 -72 15 -14 48 -20 148 -26 143 -10
186 -22 181 -54 -4 -26 -30 -32 -218 -52 -266 -27 -326 -29 -369 -9 -44 19
-69 17 -85 -7 -18 -29 4 -70 48 -87 33 -13 56 -13 194 2 198 21 239 29 362 67
97 30 120 46 155 104 9 15 16 16 62 6 29 -7 55 -16 58 -21 8 -12 -77 -65 -139
-85 -150 -50 -424 -242 -414 -291 6 -32 41 -25 92 17 90 75 210 147 331 200
181 79 183 80 210 112 68 81 4 125 -218 148 -62 6 -133 18 -158 26 -57 18
-211 32 -239 22z"/>
<path d="M27842 16724 c-22 -15 -30 -48 -13 -58 5 -4 21 -2 36 4 21 8 26 16
23 37 -4 33 -17 38 -46 17z"/>
<path d="M30472 16659 c-72 -9 -199 -45 -317 -89 -104 -39 -127 -68 -85 -110
27 -27 44 -25 116 9 169 80 340 117 504 108 118 -7 166 -18 204 -48 35 -28 34
-72 -3 -130 -38 -60 -107 -109 -262 -186 -210 -103 -351 -152 -436 -153 -39 0
-80 -18 -88 -38 -3 -8 2 -25 10 -38 15 -23 18 -24 114 -18 229 15 475 -61 576
-178 48 -57 52 -88 21 -152 -30 -62 -51 -83 -131 -131 -98 -59 -203 -88 -320
-89 -104 -1 -117 3 -212 60 -30 18 -34 18 -49 3 -23 -23 -11 -52 35 -82 67
-45 128 -61 231 -61 278 -1 561 183 560 363 -1 68 -70 162 -163 222 -61 40
-195 92 -264 104 -24 4 -43 10 -43 15 0 4 37 22 83 40 242 96 395 201 443 305
60 128 0 228 -161 270 -64 16 -252 19 -363 4z"/>
<path d="M457 16635 c-48 -7 -136 -15 -196 -17 -59 -3 -113 -8 -119 -12 -19
-12 -14 -44 9 -57 26 -14 134 -12 219 4 83 16 368 26 460 17 80 -9 96 -8 109
5 14 13 13 17 -5 35 -38 38 -293 51 -477 25z"/>
<path d="M31675 16589 c-284 -22 -473 -43 -497 -56 -36 -17 -38 -56 -4 -78 20
-14 34 -14 83 -6 153 27 372 44 570 45 234 1 247 -2 217 -50 -31 -49 -220
-256 -291 -319 -133 -119 -378 -362 -477 -475 -171 -195 -254 -276 -336 -330
-82 -54 -98 -73 -79 -96 17 -21 35 -17 112 23 81 43 174 131 399 379 80 88
196 207 259 265 359 330 529 518 529 583 0 39 -36 80 -83 95 -86 28 -223 34
-402 20z"/>
<path d="M30160 14939 c-113 -14 -172 -56 -155 -108 12 -40 40 -44 97 -14 51
27 59 28 188 27 171 -1 300 -27 300 -60 0 -22 -48 -51 -158 -94 -134 -53 -160
-66 -194 -98 -32 -29 -36 -67 -13 -112 20 -38 50 -58 175 -115 211 -96 310
-166 310 -222 0 -46 -52 -116 -123 -167 -86 -61 -222 -124 -276 -128 -41 -3
-43 -1 -54 32 -10 30 -17 35 -42 35 -25 0 -31 -5 -39 -33 -7 -25 -5 -41 7 -67
33 -70 155 -68 307 6 212 102 310 202 310 317 0 110 -109 202 -383 322 -53 23
-100 46 -103 52 -11 18 18 36 138 82 68 26 145 63 171 82 77 56 96 125 48 173
-61 61 -346 111 -511 90z"/>
<path d="M31041 14720 c-80 -17 -143 -81 -122 -126 15 -33 55 -31 105 4 36 25
46 27 140 27 77 0 118 -5 173 -23 133 -41 163 -94 104 -183 -39 -58 -68 -85
-208 -193 -169 -132 -220 -215 -179 -295 47 -90 253 -158 576 -192 116 -12
160 -4 160 30 0 30 -19 37 -130 50 -123 13 -318 52 -411 80 -75 24 -125 67
-114 100 10 32 100 118 217 208 207 158 265 290 173 392 -80 89 -335 152 -484
121z"/>
<path d="M28605 14529 c-33 -5 -73 -14 -88 -20 -24 -10 -28 -17 -25 -48 4 -49
35 -59 122 -42 48 10 165 12 453 9 359 -3 391 -2 416 15 31 20 34 33 10 45
-70 35 -720 65 -888 41z"/>
<path d="M5091 14278 c-27 -72 -57 -400 -67 -723 -3 -126 -14 -282 -23 -346
-10 -65 -14 -126 -10 -137 10 -27 39 -36 59 -17 15 13 17 27 13 73 -3 31 5
152 16 267 12 116 26 266 31 335 15 195 30 326 51 433 22 113 16 137 -32 137
-21 0 -32 -6 -38 -22z"/>
<path d="M5540 14065 c-86 -14 -192 -39 -210 -50 -19 -12 -10 -54 14 -70 22
-14 30 -14 110 10 117 33 298 54 320 36 37 -30 20 -62 -139 -273 -100 -132
-126 -172 -169 -261 -50 -105 -66 -160 -66 -231 0 -101 56 -153 180 -163 98
-8 189 22 304 100 113 78 179 139 174 164 -6 31 -31 25 -98 -21 -182 -125
-245 -155 -345 -163 -55 -5 -64 -3 -93 22 -37 31 -41 66 -18 150 32 120 94
226 239 414 89 115 147 214 147 249 0 28 -38 72 -76 88 -41 17 -160 17 -274
-1z"/>
<path d="M14654 14004 c-57 -28 -162 -122 -214 -191 -68 -90 -120 -199 -127
-267 -5 -47 -2 -61 21 -99 33 -58 76 -84 168 -103 88 -19 242 -14 307 10 24 9
46 14 48 12 3 -2 -3 -42 -11 -88 -9 -45 -25 -141 -36 -213 -12 -71 -28 -152
-37 -179 -20 -63 -7 -99 35 -94 33 4 35 13 87 303 58 327 67 355 125 410 39
36 60 75 60 110 0 31 -7 31 -37 3 -13 -12 -23 -16 -23 -10 0 15 46 120 66 150
15 22 16 23 28 6 19 -25 41 -12 76 43 31 49 39 100 18 121 -7 7 -27 12 -46 12
-84 0 -201 -191 -262 -428 -10 -38 -17 -46 -58 -65 -40 -18 -66 -21 -177 -22
-147 0 -204 13 -242 53 -31 34 -28 75 15 164 60 129 192 265 271 283 38 8 53
27 49 62 -3 24 -8 28 -38 31 -19 1 -49 -5 -66 -14z"/>
<path d="M6152 13920 c-83 -37 -73 -64 78 -222 66 -69 120 -131 120 -137 0 -7
-18 -31 -41 -54 -92 -95 -149 -206 -149 -290 0 -100 60 -181 159 -215 89 -31
251 2 315 64 52 51 63 98 42 178 -20 71 -91 195 -155 268 -23 25 -41 53 -41
62 0 16 72 78 145 124 63 40 165 88 227 106 66 19 83 45 50 78 -26 26 -62 20
-157 -26 -107 -51 -305 -186 -305 -207 0 -5 -8 -9 -17 -9 -19 0 -213 181 -213
199 0 30 115 21 269 -21 67 -18 75 -18 89 -4 14 14 14 17 -1 34 -27 30 -97 59
-179 76 -104 21 -183 20 -236 -4z m305 -457 c60 -86 110 -187 124 -248 10 -46
10 -57 -4 -78 -36 -56 -189 -86 -256 -50 -71 38 -90 128 -45 223 29 63 123
210 134 210 4 0 25 -26 47 -57z"/>
<path d="M4515 13909 c-62 -15 -265 -25 -438 -23 -145 3 -160 1 -178 -17 -24
-24 -24 -42 -2 -65 16 -15 37 -16 228 -11 231 8 312 16 442 47 93 23 120 38
110 64 -7 18 -94 21 -162 5z"/>
<path d="M29727 13669 c-24 -19 -16 -54 16 -71 15 -8 124 -12 347 -14 350 -2
479 -10 805 -50 378 -46 788 -123 1180 -220 121 -30 231 -54 245 -52 34 4 39
42 8 61 -24 16 -323 99 -488 135 -529 119 -1064 194 -1499 212 -427 18 -592
17 -614 -1z"/>
<path d="M17115 13600 c-118 -25 -336 -124 -356 -162 -19 -36 -2 -68 47 -89
42 -19 47 -19 69 -5 15 10 25 27 27 48 3 28 10 35 58 59 132 66 344 93 435 55
64 -27 49 -56 -130 -246 -263 -279 -326 -354 -359 -434 -62 -149 69 -256 314
-256 136 0 288 26 472 81 71 22 87 39 61 64 -18 18 -53 15 -203 -18 -77 -18
-129 -22 -275 -22 -172 0 -182 1 -230 25 -44 22 -50 29 -53 60 -5 64 78 173
353 459 180 188 207 243 158 318 -8 12 -36 32 -61 45 -40 19 -66 23 -167 25
-66 1 -138 -2 -160 -7z"/>
<path d="M13400 13540 c-80 -3 -153 -10 -162 -14 -25 -11 -30 -36 -13 -62 l15
-24 293 0 c323 1 481 11 527 35 33 17 40 49 13 60 -24 10 -492 14 -673 5z"/>
<path d="M19216 13223 c-57 -87 -101 -298 -126 -603 -6 -69 -15 -167 -21 -219
-8 -77 -7 -97 4 -108 7 -8 21 -11 30 -7 27 10 43 90 82 415 32 264 47 338 90
425 37 76 42 103 23 122 -24 24 -57 13 -82 -25z"/>
<path d="M31145 13200 c-22 -5 -59 -16 -82 -25 -35 -14 -45 -24 -53 -54 -20
-76 -22 -145 -6 -206 25 -98 36 -104 310 -180 238 -65 387 -168 495 -339 17
-28 31 -58 31 -67 0 -57 -121 -127 -265 -153 -139 -25 -273 -22 -595 14 -97
11 -130 6 -130 -20 0 -22 -1 -21 160 -54 298 -59 495 -68 649 -30 74 19 175
63 208 92 35 30 73 93 73 118 0 68 -74 195 -172 293 -119 121 -223 176 -463
246 -160 47 -195 66 -206 109 -9 34 8 148 24 158 59 37 426 12 543 -37 17 -7
45 -27 63 -44 33 -33 77 -41 99 -19 42 42 -30 115 -156 159 -120 42 -407 63
-527 39z"/>
<path d="M5695 12677 c-182 -97 -347 -374 -349 -583 -1 -181 142 -298 360
-295 195 2 374 123 374 251 0 38 -5 48 -44 86 -51 48 -126 80 -214 90 -137 15
-268 -61 -322 -188 -14 -32 -28 -58 -32 -58 -12 0 -35 52 -42 95 -9 53 14 138
65 244 89 188 191 289 310 307 57 9 79 21 79 42 0 53 -94 58 -185 9z m218
-570 c122 -55 95 -143 -59 -199 -82 -29 -186 -35 -258 -14 -65 19 -82 44 -61
86 17 32 111 123 150 144 45 25 155 16 228 -17z"/>
<path d="M6400 12604 c-52 -47 -109 -163 -116 -234 -4 -44 -1 -62 14 -86 29
-45 112 -84 179 -84 61 0 97 16 154 67 47 43 48 35 9 -82 -17 -49 -49 -156
-71 -238 -37 -130 -40 -150 -27 -163 19 -19 47 -8 60 25 6 14 57 161 113 327
57 165 112 319 124 342 33 65 24 102 -25 102 -29 0 -58 -37 -83 -105 -21 -56
-74 -113 -154 -167 -62 -43 -131 -34 -181 21 -43 48 -3 156 80 214 46 33 54
55 28 81 -25 26 -61 19 -104 -20z"/>
<path d="M14060 12459 c-175 -15 -283 -18 -423 -14 -186 5 -219 1 -239 -29
-11 -16 -10 -23 8 -40 13 -14 49 -16 237 -16 122 0 301 7 397 15 397 33 697
29 1058 -17 73 -9 95 -9 105 1 19 20 -14 37 -112 60 -240 56 -652 72 -1031 40z"/>
<path d="M16520 12263 c-24 -3 -50 -9 -57 -15 -19 -15 -16 -52 6 -72 16 -15
29 -15 117 -5 108 12 152 10 594 -27 377 -31 649 -63 844 -99 104 -20 311 -30
301 -16 -3 6 -14 11 -24 11 -10 0 -21 3 -25 7 -41 41 -521 127 -911 163 -121
11 -254 25 -295 30 -188 24 -422 34 -550 23z"/>
<path d="M14566 12220 c-128 -23 -261 -96 -301 -164 -83 -145 3 -326 220 -461
115 -72 206 -98 340 -99 137 -1 177 15 213 88 62 125 -1 308 -143 411 -40 28
-51 41 -41 47 8 4 17 24 20 43 10 49 -16 99 -61 120 -42 20 -174 28 -247 15z
m217 -88 c10 -9 17 -29 17 -49 0 -33 0 -33 -27 -19 -51 26 -170 56 -224 57
-48 0 -51 2 -29 11 30 13 150 24 205 19 22 -2 48 -10 58 -19z m-308 -32 c-10
-33 12 -50 64 -50 98 0 243 -58 323 -129 53 -47 103 -139 114 -207 8 -56 -9
-100 -47 -119 -65 -34 -253 -8 -376 52 -75 37 -175 131 -207 196 -53 105 -23
186 94 256 43 26 43 26 35 1z"/>
<path d="M19064 12041 c-47 -12 -54 -19 -54 -56 0 -46 25 -60 83 -44 23 6 87
11 142 11 167 -1 343 -48 650 -173 232 -95 286 -112 299 -99 46 47 -429 264
-744 340 -93 22 -323 35 -376 21z"/>
<path d="M17230 11886 c-97 -23 -162 -45 -205 -70 -59 -35 -106 -111 -120
-196 -18 -106 144 -235 370 -294 199 -51 383 -54 474 -7 20 10 54 24 76 30 68
19 115 73 115 131 0 44 -48 128 -92 162 -18 14 -59 40 -90 58 -49 27 -58 36
-58 60 0 33 -69 95 -134 118 -55 21 -262 25 -336 8z m285 -80 c19 -8 35 -18
35 -21 0 -4 -33 -4 -73 0 -60 6 -75 4 -86 -9 -18 -21 -6 -34 37 -41 211 -35
309 -87 384 -204 52 -82 33 -110 -88 -136 -184 -39 -459 5 -621 101 -88 51
-123 172 -65 226 37 35 81 56 165 78 90 24 262 27 312 6z"/>
<path d="M31446 11816 c-21 -8 -55 -28 -75 -43 -54 -44 -166 -187 -219 -281
-53 -93 -49 -92 -155 -52 -109 41 -222 148 -204 194 4 9 23 23 44 32 77 33 88
40 91 62 10 67 -77 70 -170 6 -54 -37 -64 -71 -42 -136 9 -29 28 -70 41 -91
38 -61 152 -134 247 -158 25 -6 46 -15 46 -20 0 -5 -27 -60 -59 -122 -33 -61
-85 -175 -115 -251 -31 -77 -61 -145 -67 -152 -17 -21 -7 -59 17 -62 33 -5 68
46 99 140 15 46 68 162 119 258 l91 174 60 11 c66 12 139 46 148 68 14 37 -33
46 -120 21 -13 -3 -23 -2 -23 2 0 11 101 147 162 217 42 48 84 77 161 106 27
11 36 41 19 68 -12 19 -55 23 -96 9z"/>
<path d="M3930 11733 c-55 -4 -90 -24 -90 -50 0 -21 37 -52 57 -47 112 26 504
16 914 -25 114 -12 267 -26 340 -31 289 -21 640 -57 769 -80 30 -5 111 -16
180 -25 180 -22 601 -90 737 -120 80 -17 166 -44 227 -70 30 -13 45 -14 63 -6
30 14 31 55 1 75 -47 30 -287 83 -593 130 -55 9 -125 21 -155 26 -30 5 -120
19 -200 30 -80 12 -185 27 -235 35 -104 16 -396 50 -570 65 -400 35 -728 65
-870 80 -114 11 -492 20 -575 13z"/>
<path d="M29298 11569 c-24 -13 -23 -44 2 -69 18 -18 34 -20 197 -20 129 0
226 -6 353 -23 176 -24 212 -23 218 5 7 35 -127 76 -334 103 -130 17 -410 20
-436 4z"/>
<path d="M19396 11529 c-59 -9 -75 -22 -59 -47 9 -16 2 -24 -55 -63 -55 -37
-72 -56 -99 -108 -28 -53 -33 -73 -33 -132 0 -156 106 -257 310 -295 96 -18
199 -7 264 29 122 67 175 270 107 412 -74 157 -244 237 -435 204z m197 -105
c68 -34 113 -77 144 -138 22 -44 25 -59 21 -131 -3 -62 -10 -90 -27 -119 -36
-57 -71 -71 -181 -71 -82 1 -103 5 -155 29 -104 47 -145 102 -145 193 0 55 26
118 61 150 28 25 111 68 151 78 15 4 32 13 39 21 16 20 32 18 92 -12z"/>
<path d="M5565 11218 c-78 -43 -165 -109 -253 -193 -155 -148 -212 -242 -212
-349 1 -131 96 -222 274 -261 145 -32 361 0 463 69 76 52 111 143 78 205 -36
70 -200 110 -368 92 -163 -18 -277 -63 -262 -103 11 -27 33 -29 113 -8 98 27
259 36 333 21 33 -7 69 -23 89 -39 33 -28 33 -28 16 -60 -58 -113 -401 -143
-558 -49 -134 81 -129 189 17 360 78 92 187 174 325 246 24 13 24 47 -2 65
-26 19 -27 19 -53 4z"/>
<path d="M22082 11115 c-61 -19 -121 -63 -128 -94 -3 -14 -12 -46 -20 -71 -47
-153 -39 -219 36 -292 59 -57 106 -82 183 -98 123 -25 227 25 285 139 61 121
39 254 -59 348 -24 23 -64 51 -89 62 -53 24 -143 27 -208 6z m161 -78 c119
-51 172 -185 115 -297 -34 -65 -66 -84 -148 -88 -60 -4 -78 0 -123 21 -62 31
-87 68 -87 129 0 166 123 285 243 235z"/>
<path d="M6185 11071 c-192 -92 -221 -273 -60 -370 102 -61 149 -74 263 -69
60 3 102 1 102 -5 0 -5 -25 -55 -55 -111 -30 -56 -61 -120 -69 -142 -96 -264
-96 -263 -73 -283 24 -20 44 10 108 159 106 252 235 469 329 553 58 53 63 62
51 86 -28 52 -87 23 -168 -85 -49 -65 -61 -76 -106 -89 -61 -18 -98 -19 -169
-4 -118 25 -228 107 -228 169 0 52 99 130 165 130 40 0 65 18 65 45 0 52 -67
59 -155 16z"/>
<path d="M3968 11069 c-22 -12 -23 -52 -2 -73 20 -21 37 -24 169 -30 114 -6
280 -31 445 -66 105 -23 270 -25 277 -4 6 18 -24 43 -65 53 -88 22 -428 82
-552 96 -74 9 -153 20 -175 25 -52 12 -76 12 -97 -1z"/>
<path d="M1345 10914 c-20 -48 -19 -77 3 -97 45 -41 87 -10 80 58 -10 81 -56
103 -83 39z"/>
<path d="M14790 10943 c-200 -14 -301 -47 -383 -122 -114 -105 -172 -329 -118
-455 61 -141 300 -249 516 -232 155 11 253 64 301 162 26 53 29 69 29 159 0
94 -2 104 -36 175 -39 81 -96 152 -153 191 -40 27 -43 35 -21 59 29 32 -12 73
-68 68 -12 -1 -42 -3 -67 -5z m-65 -116 c-4 -15 0 -28 10 -37 15 -12 22 -11
55 8 l38 21 41 -27 c44 -30 110 -111 143 -175 33 -65 50 -168 37 -226 -21
-101 -77 -149 -200 -170 -179 -32 -408 49 -473 168 -30 56 -32 93 -11 174 41
159 111 229 270 272 78 21 97 20 90 -8z"/>
<path d="M29701 10766 c-18 -21 -7 -62 22 -80 14 -9 136 -25 337 -45 484 -49
676 -70 780 -86 383 -60 631 -109 834 -164 285 -78 284 -78 303 -58 28 27 7
45 -87 78 -87 30 -366 104 -455 120 -186 35 -265 50 -300 58 -22 5 -71 14
-110 20 -250 38 -505 73 -665 91 -102 12 -270 33 -375 47 -104 14 -208 27
-230 30 -30 4 -44 1 -54 -11z"/>
<path d="M17421 10409 c-61 -12 -126 -45 -156 -81 -48 -57 -19 -88 41 -43 19
15 37 25 40 22 2 -2 -7 -28 -22 -57 -15 -30 -28 -77 -31 -111 -5 -51 -2 -66
23 -115 35 -70 106 -134 202 -181 66 -33 79 -36 153 -35 143 2 275 55 311 126
31 61 22 164 -21 239 -98 172 -336 276 -540 236z m170 -135 c39 -27 60 -30 88
-13 15 10 26 7 63 -19 113 -78 181 -201 152 -277 -13 -33 -84 -58 -182 -63
-89 -5 -95 -4 -158 28 -107 55 -164 133 -164 227 0 61 27 113 71 136 41 21 79
15 130 -19z"/>
<path d="M30846 10392 c-24 -47 -35 -110 -51 -300 -9 -97 -18 -189 -21 -203
-10 -52 -22 -734 -13 -751 6 -10 16 -18 24 -18 8 0 18 8 24 18 11 21 29 244
36 457 5 145 18 324 44 585 5 52 17 112 26 134 9 21 15 52 13 70 -3 27 -7 31
-35 34 -27 3 -34 -2 -47 -26z"/>
<path d="M19446 10115 c-20 -20 -18 9 -20 -318 -2 -257 0 -279 16 -294 28 -25
44 -3 69 92 30 117 44 445 20 495 -18 40 -58 52 -85 25z"/>
<path d="M5392 9873 c-5 -10 -17 -43 -27 -73 -10 -30 -26 -71 -35 -90 -67
-136 -156 -498 -167 -682 -6 -94 -5 -96 21 -123 16 -16 35 -25 49 -23 24 3 23
0 11 128 -7 68 15 196 60 360 42 154 61 207 120 338 47 104 56 148 34 170 -18
18 -56 15 -66 -5z"/>
<path d="M14616 9850 c-58 -18 -84 -63 -50 -90 13 -11 23 -10 60 8 47 23 94
29 94 12 0 -5 -6 -10 -12 -10 -7 0 -41 -13 -74 -29 -162 -76 -240 -220 -232
-425 5 -137 26 -177 118 -223 128 -65 269 -67 447 -8 116 39 172 80 213 156
29 55 35 76 38 149 3 69 0 96 -17 141 -21 55 -111 171 -160 205 -40 28 -182
84 -266 104 -86 21 -114 23 -159 10z m349 -175 c111 -71 168 -162 169 -270 2
-174 -113 -260 -365 -272 -213 -11 -289 46 -289 215 0 100 61 231 133 286 72
55 182 87 267 77 19 -2 58 -18 85 -36z"/>
<path d="M22099 9824 c-10 -13 -14 -54 -15 -153 0 -75 -6 -201 -13 -281 -20
-230 -1 -327 55 -286 15 12 19 34 26 152 4 77 12 175 18 219 16 125 23 259 16
298 -11 61 -57 87 -87 51z"/>
<path d="M4580 9689 c-47 -52 -78 -113 -105 -209 -25 -90 -22 -89 -175 -36
-83 30 -109 35 -127 27 -25 -11 -29 -31 -13 -61 10 -19 58 -36 185 -65 38 -8
73 -19 78 -24 6 -6 3 -38 -8 -81 -24 -98 -25 -169 -3 -184 33 -21 57 19 68
114 14 107 18 120 38 120 9 0 59 -24 111 -54 52 -30 101 -52 108 -49 24 9 14
50 -18 78 -18 14 -65 42 -106 61 -41 20 -77 42 -80 49 -7 19 34 141 63 186 12
19 36 49 53 66 32 33 40 70 19 91 -22 22 -50 13 -88 -29z"/>
<path d="M6340 9497 c-74 -34 -203 -149 -326 -291 -22 -26 -39 -36 -60 -36
-40 0 -190 -47 -208 -66 -20 -20 -20 -38 -1 -54 12 -10 26 -9 71 9 53 20 94
27 94 16 0 -3 -20 -44 -45 -91 -40 -75 -45 -92 -45 -150 0 -71 16 -120 55
-166 14 -17 24 -32 22 -34 -2 -2 -53 7 -113 20 -120 26 -259 49 -404 67 -354
42 -721 100 -835 131 -44 12 -98 22 -120 22 -38 1 -40 -1 -40 -28 0 -19 8 -35
25 -47 46 -34 355 -88 820 -144 118 -14 253 -32 300 -39 47 -8 119 -19 160
-25 173 -25 397 -63 425 -71 82 -24 363 -113 385 -122 14 -6 54 -21 90 -33 36
-13 100 -39 143 -59 85 -39 108 -43 126 -22 21 26 -2 47 -103 95 -140 67 -308
125 -460 160 -71 16 -133 34 -138 39 -7 7 10 16 44 26 75 21 136 50 184 84
178 129 13 431 -256 471 -72 10 -64 29 49 123 107 88 161 121 225 135 51 11
72 40 50 71 -17 25 -71 29 -114 9z m-231 -417 c93 -26 136 -48 185 -96 42 -40
86 -124 86 -163 0 -61 -164 -160 -280 -168 -55 -4 -72 -1 -110 19 -87 47 -110
125 -74 249 16 57 69 159 88 171 16 11 24 10 105 -12z"/>
<path d="M17745 9463 c-9 -9 -21 -28 -27 -42 -16 -39 -17 -669 -1 -690 22 -30
46 0 66 85 16 66 20 125 22 359 2 185 0 284 -7 292 -14 18 -33 16 -53 -4z"/>
<path d="M19594 9273 c-12 -2 -32 -15 -44 -28 -19 -20 -21 -27 -10 -39 9 -12
25 -14 69 -10 50 5 61 3 102 -24 142 -91 221 -404 149 -594 -34 -92 -132 -168
-218 -168 -86 0 -198 150 -220 295 -16 101 9 226 59 294 35 49 80 71 142 71
30 0 49 6 60 18 39 43 9 77 -66 74 -87 -4 -125 -20 -182 -75 -61 -60 -90 -126
-106 -244 -12 -88 -5 -154 25 -238 78 -217 259 -326 413 -250 144 72 233 244
217 419 -23 239 -132 430 -277 484 -57 22 -71 23 -113 15z"/>
<path d="M15031 8849 c-72 -14 -114 -54 -80 -75 7 -4 66 -7 133 -8 108 -1 126
-4 171 -26 28 -14 73 -48 101 -75 70 -69 96 -140 97 -260 1 -78 -3 -98 -27
-153 -47 -101 -120 -151 -286 -193 -120 -31 -243 -24 -324 16 -80 40 -118 89
-124 157 -7 97 57 221 147 282 63 42 172 76 245 76 67 0 106 18 106 49 0 36
-25 44 -109 37 -144 -12 -250 -55 -339 -139 -86 -82 -142 -200 -142 -299 0
-197 251 -321 526 -260 118 26 252 91 312 151 145 146 144 423 -2 579 -95 102
-279 166 -405 141z"/>
<path d="M21791 8841 c-14 -25 -1 -55 29 -71 11 -6 96 -17 189 -25 225 -20
411 -58 411 -84 0 -13 -16 -24 -105 -71 -180 -96 -287 -216 -287 -321 0 -84
54 -143 172 -189 58 -23 318 -70 386 -70 46 0 69 19 59 49 -8 26 -19 29 -180
57 -187 32 -269 59 -312 101 -18 19 -33 44 -33 56 0 62 103 157 280 260 95 55
126 78 130 97 24 98 -141 165 -510 206 -80 9 -161 19 -182 21 -29 4 -38 1 -47
-16z"/>
<path d="M29095 8834 c-19 -19 -13 -58 12 -86 30 -34 225 -97 498 -163 61 -14
150 -37 198 -51 93 -26 127 -25 127 6 0 37 -95 76 -406 165 -123 36 -263 83
-310 105 -48 22 -90 40 -95 40 -4 0 -15 -7 -24 -16z"/>
<path d="M30417 8695 c-18 -17 -32 -101 -46 -280 -6 -71 -22 -190 -36 -264
-29 -155 -30 -180 -11 -207 11 -14 18 -16 26 -8 7 7 31 92 55 190 39 156 51
232 82 512 7 63 -32 96 -70 57z"/>
<path d="M17720 8428 c-25 -42 -46 -134 -76 -343 -48 -333 -50 -377 -19 -389
14 -5 38 18 49 48 8 24 49 238 70 372 9 55 26 136 37 180 11 43 23 91 26 107
12 60 -54 80 -87 25z"/>
<path d="M5102 8320 c-25 -27 -68 -140 -81 -213 -13 -69 -2 -135 34 -211 34
-72 90 -121 160 -142 31 -8 59 -22 61 -29 3 -7 -4 -53 -15 -102 -32 -138 -61
-299 -61 -337 0 -26 6 -38 22 -47 31 -16 44 6 53 89 9 91 74 393 87 410 7 7
29 22 49 33 21 10 41 23 44 29 11 18 -17 42 -42 37 -27 -5 -28 5 -9 59 53 151
133 265 198 282 65 17 61 92 -5 92 -94 0 -213 -163 -267 -368 -13 -47 -29 -86
-37 -89 -19 -7 -69 16 -111 52 -92 77 -103 218 -28 360 31 57 32 76 8 98 -24
22 -37 21 -60 -3z"/>
<path d="M29051 8143 c-11 -21 2 -59 32 -92 33 -35 117 -74 272 -124 230 -75
404 -97 805 -100 259 -2 265 -2 265 18 0 18 -11 21 -110 32 -60 7 -193 19
-295 27 -102 9 -228 21 -280 27 -102 12 -292 57 -368 88 -26 10 -73 29 -106
42 -32 12 -79 40 -103 61 -48 42 -95 51 -112 21z"/>
<path d="M3862 8128 c-18 -18 -15 -63 6 -81 15 -14 42 -17 153 -17 85 0 155
-5 190 -14 104 -27 153 -30 173 -10 18 17 18 19 -7 40 -31 26 -206 70 -317 79
-41 3 -100 8 -130 11 -37 3 -60 0 -68 -8z"/>
<path d="M19666 8044 c-9 -8 -19 -27 -22 -42 -3 -15 -8 -34 -11 -42 -6 -19
-32 -339 -40 -490 -5 -99 -3 -117 11 -129 22 -18 43 0 56 49 16 60 60 370 60
425 0 28 7 77 15 110 19 80 19 91 -5 115 -24 24 -43 25 -64 4z"/>
<path d="M6188 8036 c-124 -34 -132 -71 -47 -213 21 -34 39 -69 41 -79 2 -11
-13 -30 -42 -51 -116 -89 -226 -213 -271 -308 -63 -131 -17 -286 90 -311 14
-4 53 -15 86 -26 47 -16 74 -19 125 -14 83 9 197 63 239 113 84 102 58 265
-82 514 -43 77 -51 62 86 154 88 59 89 59 115 42 15 -9 42 -24 60 -34 33 -17
34 -17 48 2 20 27 18 36 -16 77 -30 36 -128 90 -221 121 -66 22 -157 28 -211
13z m160 -87 c94 -20 95 -28 6 -97 -44 -34 -84 -62 -91 -62 -14 0 -83 119 -83
143 0 27 82 35 168 16z m-49 -419 c99 -240 94 -322 -23 -382 -57 -29 -178 -36
-244 -14 -70 24 -112 72 -112 130 0 77 57 171 183 302 l111 116 23 -28 c12
-16 40 -71 62 -124z"/>
<path d="M15253 7858 c-6 -7 -16 -38 -23 -68 -7 -30 -27 -104 -45 -165 -47
-156 -75 -294 -82 -400 -5 -85 -4 -94 15 -113 12 -12 28 -19 37 -16 17 7 19
13 35 138 12 87 48 225 109 420 44 138 48 172 26 196 -20 23 -58 26 -72 8z"/>
<path d="M22142 7620 c-60 -9 -82 -49 -46 -84 17 -18 19 -18 119 -16 78 1 178
-29 272 -81 58 -33 113 -81 113 -99 0 -17 -63 -40 -173 -61 -122 -23 -157 -45
-157 -98 0 -33 23 -70 115 -185 108 -136 147 -211 153 -297 5 -67 4 -69 -30
-103 -48 -48 -99 -60 -235 -53 -93 4 -114 3 -125 -10 -10 -13 -8 -19 14 -38
64 -55 247 -59 345 -9 77 39 113 91 120 171 10 113 -42 232 -177 399 -39 48
-70 92 -70 99 0 12 27 21 149 45 72 14 125 45 147 86 40 73 -31 169 -183 247
-137 70 -262 101 -351 87z"/>
<path d="M30094 7396 c-3 -9 -1 -23 5 -30 10 -12 6 -13 -26 -10 -50 6 -101
-21 -125 -66 -26 -50 -25 -171 3 -251 60 -172 221 -379 345 -442 108 -55 234
-71 331 -42 229 68 256 335 59 586 -108 137 -329 254 -503 266 -71 5 -83 3
-89 -11z m150 -85 c148 -51 242 -101 321 -173 114 -104 165 -205 166 -325 1
-72 -16 -107 -69 -143 -32 -23 -46 -25 -136 -25 -94 0 -106 2 -168 33 -88 43
-165 115 -233 216 -70 106 -104 183 -111 255 -9 79 4 101 59 101 24 0 48 5 55
12 15 15 16 54 2 63 -10 6 -14 25 -6 25 3 0 57 -18 120 -39z"/>
<path d="M17755 7363 c-22 -8 -76 -19 -120 -23 -44 -5 -81 -9 -82 -9 -8 -4
-33 -34 -33 -41 0 -18 33 -40 61 -40 16 0 29 -3 29 -7 0 -3 -12 -36 -27 -72
-57 -140 -27 -277 87 -392 70 -70 149 -110 234 -116 187 -15 298 79 299 257 1
120 -54 212 -178 295 -29 19 -69 56 -88 83 -34 48 -87 82 -124 82 -10 -1 -36
-8 -58 -17z m56 -148 c53 -21 68 -31 80 -58 12 -29 18 -32 51 -30 32 2 44 -4
86 -45 61 -60 82 -105 82 -177 0 -118 -67 -174 -191 -161 -111 11 -197 75
-247 184 -22 48 -24 64 -19 131 6 96 39 181 71 181 11 0 50 -11 87 -25z"/>
<path d="M4367 7129 c-30 -18 -79 -126 -118 -261 -13 -47 -27 -78 -35 -78 -7
0 -37 10 -66 23 -29 13 -97 36 -151 52 l-98 29 -22 -22 c-20 -21 -21 -24 -7
-50 18 -31 73 -52 205 -78 122 -24 124 -26 102 -111 -10 -37 -29 -113 -42
-168 -13 -55 -31 -117 -39 -138 -20 -46 -7 -80 27 -75 26 4 52 52 67 124 24
118 69 306 74 312 4 3 41 -5 84 -17 220 -66 430 -99 447 -71 11 18 -15 39 -54
46 -20 3 -76 19 -126 36 -49 16 -137 41 -194 56 -57 15 -108 34 -113 42 -14
21 77 234 114 269 57 53 12 119 -55 80z"/>
<path d="M5795 6835 c-5 -2 -31 -6 -58 -10 -36 -5 -57 -15 -87 -44 -35 -33
-40 -44 -40 -82 0 -50 49 -156 113 -245 20 -28 37 -59 37 -68 0 -10 -35 -50
-77 -91 -100 -94 -153 -180 -153 -250 0 -91 45 -135 165 -161 120 -26 208 -11
269 46 41 38 41 39 41 112 -1 87 -19 146 -80 253 -25 44 -44 86 -43 95 2 8 41
38 87 65 47 28 120 83 163 123 69 64 82 72 117 72 54 0 69 20 52 68 -8 20 -18
43 -23 50 -14 17 -48 15 -70 -5 -17 -15 -22 -15 -76 10 -31 14 -86 33 -122 41
-67 15 -197 28 -215 21z m243 -115 c45 -10 86 -20 90 -24 15 -15 -26 -61 -91
-101 -37 -24 -93 -66 -124 -94 -30 -28 -61 -51 -68 -51 -22 0 -145 204 -145
240 0 18 24 43 50 53 24 10 198 -4 288 -23z m-201 -445 c36 -63 83 -202 83
-244 0 -53 -27 -75 -93 -75 -91 -1 -145 13 -182 46 -58 51 -49 80 72 236 42
52 71 82 81 80 9 -2 27 -21 39 -43z"/>
<path d="M19535 6817 c-116 -56 -212 -202 -222 -338 -13 -175 80 -323 262
-417 67 -35 74 -37 175 -37 99 0 108 2 170 33 85 44 142 101 176 176 34 75 40
136 25 252 -21 157 -92 268 -205 319 -42 20 -74 25 -191 30 -134 6 -142 5
-190 -18z m205 -87 c64 -25 85 -25 104 1 l15 21 29 -21 c50 -35 89 -86 113
-148 19 -48 23 -78 23 -173 1 -63 -2 -126 -6 -140 -11 -38 -84 -107 -147 -138
-177 -87 -410 34 -466 243 -22 80 -11 149 36 231 70 124 182 170 299 124z"/>
<path d="M15133 6712 c-21 -13 -33 -61 -33 -130 0 -37 -10 -133 -22 -212 -16
-112 -21 -194 -22 -360 -1 -221 7 -284 40 -311 14 -11 19 -10 36 11 11 13 17
32 15 41 -11 40 13 439 37 618 14 107 26 220 26 252 0 50 -3 60 -26 78 -29 23
-34 24 -51 13z"/>
<path d="M22203 6313 c-21 -25 -67 -78 -102 -117 -74 -82 -100 -133 -101 -196
0 -80 49 -135 137 -151 61 -12 132 8 203 57 41 28 52 32 47 18 -3 -11 -24 -70
-46 -132 -31 -90 -40 -132 -46 -217 -8 -111 -1 -135 36 -135 27 0 36 24 53
146 9 60 25 137 36 172 37 118 124 281 184 347 42 46 46 78 12 100 -39 26 -75
0 -130 -92 -57 -97 -89 -133 -116 -133 -11 0 -37 -7 -58 -16 -20 -8 -66 -18
-102 -21 -57 -5 -69 -2 -92 17 -56 44 -34 93 101 222 76 71 91 91 91 116 0 35
-22 62 -50 62 -11 0 -36 -21 -57 -47z"/>
<path d="M17786 6286 c-90 -34 -158 -117 -202 -248 -49 -149 -35 -284 43 -417
120 -203 330 -290 439 -183 70 70 104 228 69 331 -21 63 -55 105 -107 132 -80
41 -94 -11 -24 -90 26 -30 46 -63 50 -85 14 -73 -20 -215 -57 -241 -81 -56
-236 44 -315 204 -32 64 -37 87 -40 156 -9 192 114 387 222 353 124 -39 174
-26 150 37 -18 46 -157 77 -228 51z"/>
<path d="M21098 6219 c-11 -6 -18 -22 -18 -39 0 -46 35 -65 142 -79 51 -7 147
-23 213 -36 378 -76 505 -83 505 -28 0 27 -17 32 -553 143 -257 54 -263 55
-289 39z"/>
<path d="M3542 5908 c-18 -18 -14 -44 11 -72 37 -42 167 -74 412 -101 47 -5
320 -22 490 -30 66 -3 143 -8 170 -10 28 -2 95 -6 150 -10 55 -4 168 -13 250
-22 83 -8 191 -18 240 -23 106 -10 236 -27 320 -40 33 -5 110 -16 170 -25 214
-29 649 -113 855 -164 204 -52 461 -137 614 -205 59 -26 95 -27 116 -1 24 29
-7 50 -152 103 -230 85 -238 88 -353 121 -180 52 -257 71 -370 91 -436 76
-550 95 -670 110 -44 6 -87 13 -95 15 -8 2 -71 11 -140 20 -69 8 -163 21 -210
29 -47 8 -128 20 -180 26 -52 7 -129 16 -170 21 -41 5 -97 11 -125 14 -27 3
-68 7 -90 10 -22 3 -204 16 -405 30 -527 36 -656 53 -756 101 -58 27 -65 29
-82 12z"/>
<path d="M9377 5799 c-9 -5 -24 -27 -32 -47 -33 -77 -82 -474 -68 -544 l6 -29
17 26 c16 25 33 83 75 260 45 186 66 291 63 315 -3 28 -31 37 -61 19z"/>
<path d="M19656 5736 c-18 -42 -33 -120 -41 -211 -4 -38 -22 -140 -41 -225
-45 -200 -64 -320 -64 -397 0 -97 38 -96 58 2 5 28 19 82 30 120 37 130 91
369 107 470 8 55 20 119 25 143 21 90 9 132 -37 132 -16 0 -27 -9 -37 -34z"/>
<path d="M15031 5498 c-43 -45 -46 -76 -45 -428 0 -338 12 -482 46 -554 11
-27 47 -36 49 -13 0 6 2 206 3 442 2 324 6 443 16 482 12 48 12 54 -5 73 -23
26 -39 25 -64 -2z"/>
<path d="M21867 5162 c-20 -22 -21 -42 -4 -65 9 -13 41 -22 111 -33 142 -21
335 -108 344 -155 3 -17 -40 -34 -118 -44 -104 -15 -150 -48 -150 -107 0 -34
8 -48 58 -100 31 -33 92 -90 136 -127 90 -76 136 -137 143 -191 5 -33 1 -43
-33 -80 -50 -55 -217 -141 -348 -179 -33 -10 -64 -25 -70 -33 -14 -23 9 -48
44 -48 77 0 331 113 410 182 137 121 121 225 -62 389 -148 134 -180 167 -176
181 3 7 49 23 104 35 87 19 103 26 132 57 46 51 43 84 -10 136 -86 84 -239
158 -377 184 -105 20 -114 20 -134 -2z"/>
<path d="M4815 5128 c-168 -122 -269 -241 -281 -330 -15 -107 97 -244 274
-332 61 -31 64 -45 31 -128 -32 -82 -69 -197 -69 -217 0 -10 7 -25 16 -32 14
-11 19 -10 35 10 11 13 19 31 19 41 0 26 76 250 90 264 6 6 40 9 84 7 65 -2
76 0 101 22 20 16 26 29 22 41 -6 15 -18 17 -80 14 l-72 -3 1 30 c2 33 123
220 177 273 18 17 68 47 112 66 82 36 99 54 84 94 -11 28 -36 28 -102 0 -140
-58 -241 -178 -328 -388 -12 -30 -24 -56 -25 -58 -5 -7 -81 38 -141 82 -103
75 -164 189 -133 247 30 55 89 115 177 176 98 68 112 92 77 127 -20 21 -33 20
-69 -6z"/>
<path d="M21018 4959 c-19 -10 -24 -45 -10 -66 13 -20 80 -44 181 -64 130 -26
447 -38 475 -17 22 17 15 52 -12 63 -9 3 -73 9 -142 11 -152 6 -278 27 -369
59 -75 27 -97 30 -123 14z"/>
<path d="M3531 4906 c-21 -22 -22 -26 -8 -53 16 -30 75 -57 212 -94 83 -23
235 -35 328 -25 53 6 69 12 78 28 9 16 7 24 -5 37 -14 13 -41 16 -159 17 -124
0 -153 4 -230 27 -49 14 -109 40 -135 57 -25 16 -48 30 -52 30 -4 0 -17 -11
-29 -24z"/>
<path d="M17917 4803 c-12 -14 -18 -46 -22 -123 -6 -122 -7 -130 -47 -318 -24
-114 -28 -148 -19 -168 15 -34 40 -30 56 9 29 70 95 347 106 448 9 88 9 111
-2 135 -17 35 -49 42 -72 17z"/>
<path d="M5798 4784 c-5 -4 -8 -17 -8 -29 0 -14 -24 -41 -71 -80 -82 -69 -114
-106 -162 -195 -95 -173 -78 -305 54 -424 79 -71 176 -113 279 -121 92 -7 136
1 235 45 142 64 265 230 268 364 2 97 -105 247 -239 332 -104 66 -330 135
-356 108z m242 -131 c153 -86 261 -219 263 -324 1 -52 -33 -131 -82 -190 -35
-43 -151 -102 -231 -118 -112 -23 -259 28 -345 120 -76 82 -82 171 -18 298 40
80 156 193 234 230 35 16 71 30 79 30 8 1 53 -20 100 -46z"/>
<path d="M19363 4534 c-12 -31 14 -62 72 -83 165 -62 284 -215 334 -427 26
-115 27 -194 1 -275 -34 -108 -86 -149 -187 -149 -80 0 -150 35 -223 109 -76
77 -104 148 -97 241 7 95 38 167 106 244 62 71 78 112 54 146 -25 36 -48 23
-115 -67 -127 -171 -162 -301 -117 -435 46 -137 167 -255 308 -298 183 -57
311 14 366 205 25 86 16 262 -18 366 -69 207 -204 353 -387 422 -57 21 -89 22
-97 1z"/>
<path d="M15100 4135 c-7 -9 -19 -50 -25 -93 -7 -42 -20 -115 -29 -162 -9 -48
-21 -190 -27 -325 -5 -132 -12 -279 -15 -326 -7 -90 3 -117 31 -88 21 22 55
248 80 527 8 96 26 223 40 282 14 60 25 122 25 138 0 50 -52 80 -80 47z"/>
<path d="M3677 3785 c-26 -30 -61 -84 -77 -121 -28 -62 -32 -66 -58 -60 -157
34 -212 31 -212 -12 0 -39 22 -51 107 -58 98 -8 106 -18 73 -91 -60 -133 -88
-295 -57 -337 8 -11 23 -17 38 -14 22 3 24 8 30 78 3 41 15 107 27 145 12 39
28 96 37 128 9 32 22 60 29 63 16 6 187 -31 382 -82 157 -41 166 -41 162 -11
-2 14 -16 28 -38 39 -70 33 -185 78 -200 78 -8 0 -33 7 -55 14 -22 8 -73 19
-113 24 -124 18 -130 39 -37 129 67 65 86 103 65 128 -23 28 -54 16 -103 -40z"/>
<path d="M21687 3791 c-60 -7 -77 -19 -77 -57 0 -41 21 -47 143 -39 97 6 126
4 202 -14 109 -26 224 -80 259 -122 16 -18 26 -43 26 -62 0 -43 -67 -105 -211
-195 -63 -40 -134 -88 -157 -108 -114 -97 -65 -218 147 -358 108 -72 273 -156
307 -156 12 0 27 7 34 15 21 25 1 55 -55 80 -137 60 -328 191 -370 254 -36 52
-33 83 15 123 21 19 52 41 67 49 117 60 270 185 297 243 34 72 12 156 -54 204
-136 101 -390 164 -573 143z"/>
<path d="M20785 3596 c-29 -21 -10 -65 42 -94 89 -49 183 -65 384 -66 196 -1
219 4 219 45 0 30 -34 41 -108 33 -121 -11 -334 26 -434 77 -44 23 -77 24
-103 5z"/>
<path d="M22834 3496 c-9 -24 12 -44 28 -28 10 10 8 16 -5 29 -15 15 -17 15
-23 -1z"/>
<path d="M5522 3368 c-13 -13 -16 -47 -6 -73 4 -9 76 -68 160 -131 198 -147
265 -204 287 -242 13 -24 15 -32 5 -39 -27 -16 -203 -15 -313 2 -60 10 -125
20 -143 22 -18 3 -39 0 -47 -7 -35 -29 -18 -59 119 -203 224 -238 277 -307
260 -335 -20 -32 -62 -42 -195 -48 -155 -7 -294 10 -410 50 -74 26 -109 23
-109 -9 0 -29 43 -53 149 -84 141 -41 311 -59 413 -43 141 23 165 29 200 50
52 32 61 69 34 134 -19 44 -111 164 -191 248 -77 81 -127 141 -123 146 2 2 58
-3 123 -11 136 -15 259 -8 300 19 27 18 33 54 15 101 -18 48 -98 139 -187 212
-49 40 -131 107 -183 151 -83 69 -129 102 -142 102 -2 0 -9 -5 -16 -12z"/>
<path d="M17757 3257 c-10 -7 -24 -41 -33 -77 -8 -36 -24 -90 -35 -121 -26
-75 -71 -312 -67 -358 3 -31 7 -36 28 -36 31 0 51 50 75 185 18 104 42 191 81
287 27 68 25 107 -6 123 -23 12 -23 13 -43 -3z"/>
<path d="M14995 3079 c-4 -5 -4 -22 -1 -35 6 -21 9 -24 21 -14 19 16 20 60 1
60 -8 0 -18 -5 -21 -11z"/>
<path d="M19600 3013 c-5 -10 -48 -94 -96 -187 -142 -279 -207 -468 -245 -721
-10 -70 -3 -124 19 -132 24 -10 38 20 56 119 15 83 29 138 68 273 32 114 94
251 199 446 43 80 79 155 79 166 0 23 -30 53 -53 53 -9 0 -21 -8 -27 -17z"/>
<path d="M22776 2923 c-11 -11 -6 -23 9 -23 8 0 15 4 15 9 0 13 -16 22 -24 14z"/>
<path d="M22732 2798 c-17 -17 -15 -63 3 -78 24 -20 47 6 43 49 -3 38 -24 51
-46 29z"/>
<path d="M3166 2698 c-37 -53 -13 -99 98 -188 166 -132 352 -189 1041 -321
188 -35 371 -74 450 -95 305 -79 370 -97 700 -196 132 -39 252 -66 585 -128
63 -12 157 -38 209 -57 l94 -35 20 20 c19 19 19 22 4 45 -26 40 -124 69 -387
117 -251 46 -440 92 -637 156 -40 13 -92 28 -115 34 -24 6 -113 31 -198 55
-146 42 -392 100 -525 125 -33 6 -85 18 -115 25 -30 8 -82 19 -115 24 -111 18
-399 80 -515 110 -280 72 -444 162 -524 289 -30 47 -48 52 -70 20z"/>
<path d="M20556 2204 c-21 -20 -20 -47 2 -67 16 -14 190 -77 422 -153 195 -64
344 -84 377 -51 25 25 3 43 -80 62 -130 31 -360 106 -535 176 -133 53 -162 58
-186 33z"/>
<path d="M21983 2212 c-7 -4 -23 -32 -36 -62 -22 -48 -27 -89 -46 -330 -28
-355 -30 -445 -7 -468 24 -24 49 -5 58 44 4 21 21 188 37 369 21 226 36 343
47 373 16 40 16 43 -1 62 -19 21 -33 24 -52 12z"/>
<path d="M4597 1902 c-41 -45 -8 -78 94 -92 151 -21 309 -87 364 -151 28 -35
30 -42 13 -57 -14 -11 -168 -33 -179 -26 -14 8 -154 -17 -168 -30 -24 -25 -5
-58 89 -156 156 -164 198 -229 200 -306 0 -66 -87 -154 -192 -194 -90 -34
-136 -24 -159 37 -12 32 -39 41 -55 18 -23 -31 -17 -72 15 -107 27 -30 34 -33
105 -36 71 -4 79 -2 160 37 87 42 179 121 197 169 5 13 9 48 9 79 0 84 -45
165 -157 284 -51 54 -93 105 -93 114 0 11 11 15 43 15 242 2 328 56 269 168
-53 99 -283 212 -503 247 -27 4 -40 1 -52 -13z"/>
<path d="M3845 1835 c-107 -33 -145 -85 -89 -122 54 -35 384 -82 580 -83 143
0 168 8 162 51 -3 24 -3 24 -158 30 -85 4 -211 14 -279 23 -166 23 -194 35
-156 66 36 30 -2 52 -60 35z"/>
<path d="M5346 1534 c-20 -19 -20 -24 0 -53 43 -61 263 -111 493 -111 147 0
211 -7 211 -22 0 -21 -43 -63 -117 -112 -157 -104 -249 -174 -384 -287 -163
-138 -281 -262 -277 -291 6 -47 37 -33 126 59 47 48 111 108 143 133 31 25 83
67 115 93 33 27 115 88 184 136 69 48 145 103 170 122 187 144 196 154 168
192 -17 21 -76 34 -218 47 -405 36 -415 37 -498 79 -69 35 -94 38 -116 15z"/>
<path d="M1105 230 c-11 -18 7 -29 38 -23 28 6 38 23 13 23 -8 0 -21 3 -29 6
-8 3 -18 0 -22 -6z"/>
<path d="M2315 230 c-9 -15 4 -30 25 -30 27 0 34 17 11 29 -24 13 -28 14 -36
1z"/>
<path d="M3207 233 c-30 -5 -32 -26 -3 -31 29 -6 66 7 66 23 0 15 -9 16 -63 8z"/>
<path d="M4030 230 c-13 -9 -13 -11 0 -20 19 -12 35 -8 35 10 0 18 -16 22 -35
10z"/>
<path d="M80 214 c0 -17 22 -14 28 4 2 7 -3 12 -12 12 -9 0 -16 -7 -16 -16z"/>
<path d="M405 220 c-8 -12 20 -24 35 -15 6 3 8 11 5 16 -8 12 -32 12 -40 -1z"/>
<path d="M780 220 c0 -5 7 -10 15 -10 8 0 15 5 15 10 0 6 -7 10 -15 10 -8 0
-15 -4 -15 -10z"/>
<path d="M957 224 c-13 -13 -7 -24 14 -24 11 0 19 5 17 12 -5 14 -22 21 -31
12z"/>
<path d="M1724 221 c-5 -5 -18 -11 -29 -13 -16 -3 -17 -5 -5 -10 16 -6 58 17
49 27 -3 2 -10 1 -15 -4z"/>
<path d="M1771 217 c-12 -15 -5 -27 16 -27 7 0 13 9 13 20 0 23 -13 26 -29 7z"/>
<path d="M1925 220 c-3 -5 3 -10 15 -10 12 0 18 5 15 10 -3 6 -10 10 -15 10
-5 0 -12 -4 -15 -10z"/>
<path d="M2795 220 c-4 -7 -3 -16 3 -22 14 -14 45 -2 40 15 -6 16 -34 21 -43
7z"/>
<path d="M3120 220 c0 -5 7 -10 15 -10 8 0 15 5 15 10 0 6 -7 10 -15 10 -8 0
-15 -4 -15 -10z"/>
<path d="M3320 216 c0 -8 6 -16 13 -19 19 -7 41 8 33 22 -10 16 -46 14 -46 -3z"/>
<path d="M3437 224 c-9 -10 2 -24 19 -24 8 0 14 7 14 15 0 15 -21 21 -33 9z"/>
<path d="M3620 220 c0 -5 7 -10 15 -10 8 0 15 5 15 10 0 6 -7 10 -15 10 -8 0
-15 -4 -15 -10z"/>
<path d="M4300 218 c0 -12 43 -38 62 -38 19 0 6 31 -18 40 -34 13 -44 13 -44
-2z"/>
<path d="M4830 215 c0 -24 36 -38 63 -23 21 12 21 12 2 16 -11 2 -24 8 -29 13
-15 14 -36 11 -36 -6z"/>
<path d="M5317 223 c-12 -11 -8 -23 8 -23 8 0 15 7 15 15 0 16 -12 20 -23 8z"/>
<path d="M1020 210 c0 -5 5 -10 11 -10 5 0 7 5 4 10 -3 6 -8 10 -11 10 -2 0
-4 -4 -4 -10z"/>
<path d="M1305 210 c-3 -5 1 -10 9 -10 9 0 16 5 16 10 0 6 -4 10 -9 10 -6 0
-13 -4 -16 -10z"/>
<path d="M2170 206 c0 -11 10 -16 31 -16 38 0 35 24 -4 28 -19 2 -27 -1 -27
-12z"/>
<path d="M2390 204 c0 -9 5 -14 12 -12 18 6 21 28 4 28 -9 0 -16 -7 -16 -16z"/>
<path d="M2693 213 c-22 -8 -14 -23 12 -23 14 0 25 4 25 9 0 11 -21 19 -37 14z"/>
<path d="M3507 213 c-12 -11 -8 -23 8 -23 8 0 15 7 15 15 0 16 -12 20 -23 8z"/>
<path d="M4115 211 c-3 -5 -1 -12 5 -16 12 -7 30 2 30 16 0 12 -27 12 -35 0z"/>
<path d="M4179 206 c17 -20 95 -22 89 -3 -3 7 -26 13 -53 15 -43 3 -47 1 -36
-12z"/>
<path d="M4412 203 c4 -23 68 -32 68 -10 0 16 -21 27 -52 27 -13 0 -18 -6 -16
-17z"/>
<path d="M5000 205 c-16 -20 -14 -21 43 -28 35 -5 47 -3 47 6 0 35 -66 51 -90
22z"/>
<path d="M5120 205 c0 -24 46 -41 65 -25 12 10 13 16 4 26 -16 19 -69 18 -69
-1z"/>
<path d="M5467 214 c-13 -13 -7 -24 14 -24 11 0 19 5 17 12 -5 14 -22 21 -31
12z"/>
<path d="M5565 211 c-7 -12 12 -24 25 -16 11 7 4 25 -10 25 -5 0 -11 -4 -15
-9z"/>
<path d="M26133 204 c-7 -18 4 -31 30 -36 30 -5 14 -23 -18 -20 -152 14 -145
12 -142 35 2 20 -3 22 -42 21 -27 -1 -48 -7 -55 -16 -11 -15 -33 -22 -114 -37
-86 -16 -64 -43 34 -42 109 2 135 2 200 2 34 0 75 4 93 9 19 5 44 5 64 -1 17
-5 74 -12 125 -16 89 -6 93 -5 99 15 6 25 16 28 32 8 6 -7 32 -21 57 -31 42
-16 46 -16 63 -1 13 12 34 16 73 15 65 -2 85 6 67 27 -6 8 -17 14 -25 14 -7 0
-14 10 -16 23 -3 19 -10 22 -51 25 -51 3 -71 -14 -47 -43 10 -13 8 -15 -13
-15 -27 0 -49 21 -29 28 26 8 10 18 -35 21 -112 9 -128 7 -126 -12 1 -17 -1
-17 -21 2 -23 21 -41 26 -139 36 -47 4 -59 2 -64 -11z m-196 -40 c-3 -3 -12
-4 -19 -1 -8 3 -5 6 6 6 11 1 17 -2 13 -5z"/>
<path d="M1510 200 c0 -5 5 -10 10 -10 6 0 10 5 10 10 0 6 -4 10 -10 10 -5 0
-10 -4 -10 -10z"/>
<path d="M5640 195 c-21 -26 18 -32 43 -6 l21 21 -26 0 c-14 0 -31 -7 -38 -15z"/>
<path d="M25644 196 c-4 -9 -1 -23 6 -31 10 -13 9 -15 -9 -15 -14 0 -25 9 -31
25 -8 21 -16 25 -50 25 -94 0 -145 -53 -138 -144 3 -36 1 -41 -17 -37 -48 8
-312 3 -335 -7 -19 -8 32 -10 200 -9 l224 2 8 44 c4 24 10 46 13 49 5 6 34 6
105 1 25 -1 93 21 107 35 5 4 0 14 -11 21 -23 17 -11 38 16 29 14 -4 19 -2 16
7 -2 7 -25 14 -51 16 -36 3 -49 1 -53 -11z"/>
<path d="M6460 190 c0 -5 4 -10 9 -10 6 0 13 5 16 10 3 6 -1 10 -9 10 -9 0
-16 -4 -16 -10z"/>
<path d="M26697 193 c-16 -15 -6 -34 15 -31 29 4 38 38 10 38 -10 0 -22 -3
-25 -7z"/>
<path d="M26826 192 c-17 -4 -17 -4 1 -18 10 -7 28 -14 41 -14 12 0 22 -5 22
-11 0 -7 -10 -9 -27 -4 -33 8 -32 8 -61 6 -28 -1 -40 -28 -20 -47 22 -22 139
-8 146 18 5 20 22 18 74 -8 21 -11 33 -11 62 -1 l36 12 -56 38 c-53 35 -60 36
-128 34 -40 -1 -80 -3 -90 -5z"/>
<path d="M27107 188 c-22 -13 6 -26 73 -32 70 -7 97 2 87 28 -6 14 -20 16 -77
14 -39 -1 -76 -5 -83 -10z"/>
<path d="M2840 180 c0 -5 7 -10 15 -10 8 0 15 5 15 10 0 6 -7 10 -15 10 -8 0
-15 -4 -15 -10z"/>
<path d="M27050 180 c0 -5 9 -10 20 -10 11 0 20 5 20 10 0 6 -9 10 -20 10 -11
0 -20 -4 -20 -10z"/>
<path d="M27387 184 c-3 -4 -2 -15 4 -25 13 -24 -7 -34 -42 -20 -36 13 -159 2
-166 -16 -3 -8 -3 -16 0 -19 3 -3 59 -7 125 -9 87 -2 129 -8 152 -20 30 -15
36 -16 69 -1 28 12 66 15 181 12 126 -2 152 -6 198 -26 29 -12 59 -31 66 -42
12 -16 24 -18 95 -16 l82 3 -56 67 c-82 99 -101 108 -230 109 -116 1 -151 -11
-90 -31 27 -9 34 -15 24 -21 -8 -5 -22 -9 -31 -9 -21 0 -50 29 -42 42 10 15
-17 28 -36 18 -9 -5 -27 -6 -39 -3 -17 4 -24 1 -28 -17 -5 -20 -10 -22 -50
-16 -25 3 -56 15 -70 26 -25 19 -101 28 -116 14z"/>
<path d="M7693 165 c-3 -9 -3 -19 1 -22 7 -7 36 16 36 28 0 15 -30 10 -37 -6z"/>
<path d="M8222 168 c3 -7 15 -15 27 -16 16 -3 22 1 19 10 -3 7 -15 15 -27 16
-16 3 -22 -1 -19 -10z"/>
<path d="M8135 150 c3 -5 8 -10 11 -10 2 0 4 5 4 10 0 6 -5 10 -11 10 -5 0 -7
-4 -4 -10z"/>
<path d="M8660 150 c0 -5 7 -10 15 -10 8 0 15 5 15 10 0 6 -7 10 -15 10 -8 0
-15 -4 -15 -10z"/>
<path d="M20837 143 c-14 -13 -6 -40 16 -61 24 -23 97 -32 97 -12 0 6 13 10
29 10 16 0 35 7 42 16 7 9 24 20 37 25 14 5 23 12 20 14 -8 8 -234 15 -241 8z"/>
<path d="M10498 129 c-28 -16 -22 -39 10 -39 29 0 68 31 55 43 -9 10 -45 8
-65 -4z"/>
<path d="M10607 133 c-14 -13 -6 -42 13 -48 38 -12 54 17 23 41 -21 15 -27 17
-36 7z"/>
<path d="M29767 33 c-17 -16 -5 -33 23 -33 32 0 37 9 18 28 -13 13 -31 16 -41
5z"/>
<path d="M24968 3 c6 -2 18 -2 25 0 6 3 1 5 -13 5 -14 0 -19 -2 -12 -5z"/>
</g>
</svg>
