<?xml version="1.0" standalone="no"?>
<!DOCTYPE svg PUBLIC "-//W3C//DTD SVG 20010904//EN"
 "http://www.w3.org/TR/2001/REC-SVG-20010904/DTD/svg10.dtd">
<svg version="1.0" xmlns="http://www.w3.org/2000/svg"
 width="3264.000000pt" height="2448.000000pt" viewBox="0 0 3264.000000 2448.000000"
 preserveAspectRatio="xMidYMid meet">
<metadata>
Created by potrace 1.12, written by Peter Selinger 2001-2015
</metadata>
<g transform="translate(0.000000,2448.000000) scale(0.100000,-0.100000)"
fill="#000000" stroke="none">
<path d="M12728 21728 c-41 -46 -120 -139 -175 -208 -55 -69 -145 -175 -199
-236 -55 -60 -115 -131 -134 -157 -19 -25 -39 -45 -45 -43 -20 5 -165 234
-232 364 -51 100 -74 134 -91 139 -27 7 -52 -12 -52 -41 0 -46 187 -372 272
-474 26 -31 48 -61 48 -67 0 -5 -14 -30 -31 -55 -76 -112 -139 -264 -139 -335
0 -46 13 -65 46 -65 31 0 43 20 54 86 13 77 36 145 77 224 45 85 50 89 70 60
29 -43 156 -171 213 -215 110 -84 209 -119 224 -79 9 23 2 30 -67 66 -44 23
-101 71 -199 168 -76 75 -138 143 -138 151 0 8 37 58 83 110 179 204 501 600
525 645 12 22 0 44 -24 44 -7 0 -46 -37 -86 -82z"/>
<path d="M8891 21727 l-22 -24 20 -119 c48 -291 105 -575 131 -649 91 -257 91
-258 116 -248 21 8 17 54 -11 147 -24 81 -55 225 -95 451 -12 66 -28 152 -35
190 -8 39 -19 111 -26 160 -16 120 -33 139 -78 92z"/>
<path d="M11556 21612 c-11 -33 -17 -208 -17 -442 1 -463 -48 -652 -141 -552
-42 45 -78 127 -149 347 -62 192 -80 277 -82 382 -2 78 -5 98 -19 106 -21 14
-53 -12 -62 -49 -11 -41 22 -224 64 -358 22 -71 40 -134 40 -141 0 -22 71
-228 97 -280 45 -90 91 -125 166 -125 69 0 113 57 147 187 26 104 29 519 5
858 -2 39 -5 73 -5 78 0 15 -39 6 -44 -11z"/>
<path d="M10376 21504 c-47 -61 -93 -205 -107 -332 -6 -53 -17 -140 -25 -192
-8 -53 -14 -108 -14 -122 0 -60 -19 -31 -50 75 -67 234 -167 497 -201 532 -18
18 -21 19 -47 5 -55 -31 -99 -194 -107 -397 -16 -447 -17 -559 -2 -571 17 -14
43 -7 51 14 3 8 8 157 11 332 3 174 8 337 11 362 8 64 35 170 44 170 9 0 22
-28 96 -223 85 -221 121 -333 134 -415 11 -71 27 -92 67 -92 46 0 60 59 88
365 21 236 58 415 85 415 16 0 61 -130 116 -335 99 -371 129 -456 182 -523 23
-29 92 -41 110 -20 15 19 33 113 26 133 -9 23 -40 18 -59 -11 -13 -20 -19 -23
-30 -14 -25 20 -64 137 -115 340 -51 203 -96 347 -147 475 -24 60 -32 70 -55
73 -21 3 -33 -6 -62 -44z"/>
<path d="M7035 21418 c-125 -17 -258 -80 -330 -156 -46 -49 -105 -152 -105
-184 0 -51 75 -51 86 0 27 129 158 238 314 263 115 19 192 -4 258 -74 48 -53
58 -88 55 -212 -1 -113 -30 -241 -83 -381 -85 -221 -125 -373 -108 -407 17
-33 56 -40 163 -29 55 5 120 17 145 27 25 9 83 27 130 41 47 14 112 33 145 43
33 10 106 31 162 46 119 33 228 83 228 105 0 24 -36 23 -116 -3 -41 -14 -113
-32 -160 -41 -90 -17 -206 -48 -384 -101 -141 -43 -185 -50 -207 -33 -23 18
-13 66 56 263 30 88 67 210 82 270 23 96 26 125 22 230 -4 91 -10 133 -27 177
-46 119 -168 178 -326 156z"/>
<path d="M8463 21024 c-117 -14 -257 -45 -300 -66 -96 -47 -30 -120 67 -75 50
23 165 52 310 77 69 12 135 24 148 26 28 5 40 33 21 45 -19 12 -112 9 -246 -7z"/>
<path d="M8864 18985 c-15 -24 -15 -31 0 -108 9 -45 25 -168 35 -274 20 -195
32 -259 56 -297 14 -23 34 -353 38 -611 l2 -150 -140 5 c-360 13 -991 -7
-1325 -41 -102 -10 -144 -33 -138 -74 3 -19 9 -20 108 -17 58 1 141 7 185 12
154 18 879 34 1105 24 l215 -9 0 -305 c0 -420 -28 -1326 -42 -1340 -2 -3 -118
-5 -256 -6 -337 -1 -862 -32 -1003 -59 -237 -46 -290 -59 -311 -78 -25 -22
-31 -62 -10 -69 6 -3 86 10 177 28 91 19 230 40 310 49 186 20 785 43 958 37
l132 -4 0 -29 c0 -15 -4 -72 -10 -126 -13 -139 -45 -607 -45 -677 0 -50 3 -61
23 -74 22 -14 25 -13 79 49 32 35 134 138 228 229 93 90 238 234 322 319 100
102 154 150 157 140 2 -7 6 -27 9 -44 2 -16 18 -113 35 -215 39 -231 77 -480
96 -630 15 -118 19 -178 36 -580 13 -285 36 -536 95 -1017 15 -119 46 -270 60
-294 4 -6 1 -22 -6 -35 -11 -21 -10 -29 5 -57 33 -57 62 -70 90 -41 22 21 20
78 -4 140 -32 86 -50 179 -75 399 -14 116 -29 244 -35 285 -5 41 -14 111 -19
155 -11 85 -24 288 -41 655 -11 234 -31 421 -81 750 -38 258 -44 292 -80 448
-20 87 -28 140 -23 151 9 18 223 213 414 377 115 98 251 206 317 248 53 35 67
68 56 132 -13 72 -16 464 -5 495 l10 26 449 7 c246 4 466 9 488 11 22 2 157 6
300 9 143 4 337 11 430 17 219 14 782 84 801 100 18 15 18 55 0 62 -7 3 -31 2
-52 -3 -53 -11 -160 -26 -416 -55 -296 -33 -640 -47 -1572 -62 l-429 -6 7 59
c9 88 25 253 36 394 5 69 17 174 27 234 15 94 15 110 2 120 -8 6 -27 28 -42
49 -15 20 -34 37 -41 37 -7 0 -18 11 -26 24 -7 14 -25 30 -40 36 -15 6 -33 22
-40 35 -7 14 -28 29 -46 35 -18 6 -35 17 -37 25 -3 7 -34 30 -69 50 -35 20
-83 51 -108 69 -107 78 -152 109 -265 187 -257 177 -462 312 -515 339 -30 15
-118 69 -195 118 -77 50 -166 108 -199 128 -32 21 -69 55 -82 76 -28 44 -47
48 -70 13z m272 -265 c91 -60 167 -110 170 -110 2 0 17 -8 32 -18 15 -11 68
-43 117 -72 50 -30 118 -73 152 -97 245 -169 392 -271 418 -290 17 -12 101
-70 188 -129 163 -111 237 -170 298 -239 52 -58 59 -75 49 -121 -10 -42 -31
-258 -50 -494 -6 -80 -16 -188 -21 -240 -21 -216 -27 -371 -20 -470 5 -58 6
-110 4 -116 -2 -6 -34 -36 -71 -65 -152 -121 -336 -280 -489 -421 -162 -148
-163 -149 -175 -124 -26 58 -68 14 -54 -56 7 -36 43 2 -438 -456 l-269 -256 7
58 c7 66 43 556 46 631 1 32 8 57 19 70 34 37 36 85 5 85 -12 0 -17 10 -16 30
19 268 38 992 36 1395 -1 312 -22 901 -40 1160 -14 199 -18 223 -39 255 -17
26 -25 56 -30 118 -4 45 -4 82 0 82 4 0 81 -49 171 -110z"/>
<path d="M23785 18831 c-33 -10 -89 -32 -125 -51 -116 -58 -300 -216 -300
-255 0 -37 45 -62 164 -90 64 -15 131 -37 149 -49 61 -41 48 -77 -88 -236
-188 -222 -196 -262 -72 -398 65 -72 81 -121 76 -232 -8 -190 -4 -375 9 -418
8 -25 31 -62 57 -88 73 -76 94 -42 49 78 -27 70 -28 79 -24 218 9 297 6 351
-19 399 -13 24 -42 65 -66 90 -53 58 -66 82 -58 112 10 39 65 117 157 224 97
113 116 146 116 203 0 87 -57 120 -302 176 -39 9 -35 29 14 70 138 118 307
204 380 192 45 -7 78 7 78 34 0 43 -88 52 -195 21z"/>
<path d="M22249 18681 c-21 -17 -23 -22 -12 -48 6 -15 41 -104 77 -198 177
-456 222 -670 204 -970 -18 -302 -78 -527 -167 -627 -41 -46 -47 -50 -80 -44
-41 6 -61 -7 -61 -40 0 -62 115 -55 190 12 138 125 235 539 211 899 -19 267
-65 448 -223 865 -64 170 -86 194 -139 151z"/>
<path d="M17451 18423 c-102 -50 -256 -216 -331 -355 -44 -83 -84 -202 -99
-298 -25 -162 -24 -240 5 -412 l6 -36 -69 -21 c-74 -22 -113 -50 -113 -81 0
-35 28 -39 102 -14 39 13 76 24 83 24 15 0 31 -44 39 -113 7 -56 42 -146 66
-167 9 -8 20 -23 23 -32 7 -19 47 -25 47 -8 0 5 -20 69 -45 142 -25 73 -45
147 -45 164 l0 31 101 22 c249 56 444 118 475 152 16 17 16 19 0 25 -9 4 -56
-3 -104 -15 -140 -34 -485 -101 -491 -95 -3 3 -8 75 -9 159 -7 320 73 556 259
759 28 31 72 69 97 83 42 25 48 26 98 15 29 -6 61 -8 72 -5 23 6 44 46 35 69
-16 42 -125 46 -202 7z"/>
<path d="M6525 18410 c-85 -20 -145 -77 -197 -188 -33 -70 -41 -100 -50 -185
-34 -353 129 -596 382 -573 193 17 337 122 432 312 40 81 42 90 43 177 0 72
-5 107 -24 160 -28 84 -102 184 -156 214 -57 31 -148 53 -225 55 -36 0 -78 7
-95 13 -46 19 -77 23 -110 15z m349 -148 c159 -75 224 -294 140 -472 -70 -147
-151 -212 -288 -229 -104 -12 -182 1 -244 43 -108 72 -157 279 -117 499 21
122 45 138 270 191 11 3 55 3 97 1 61 -2 92 -10 142 -33z"/>
<path d="M5326 18381 c-24 -26 -30 -77 -17 -157 10 -65 9 -70 -12 -92 -27 -29
-28 -96 -3 -157 27 -63 46 -199 47 -329 1 -67 6 -127 11 -133 16 -19 36 -16
63 12 22 21 25 33 25 91 0 82 44 304 71 362 26 52 44 53 91 5 67 -71 115 -148
193 -305 78 -159 99 -184 130 -158 27 22 16 58 -58 202 -142 276 -232 388
-312 388 -30 0 -39 -6 -65 -42 -17 -23 -43 -81 -58 -130 -15 -48 -30 -88 -33
-88 -6 0 -39 118 -39 141 0 8 4 8 15 -1 27 -22 48 -4 42 38 -24 174 -28 215
-23 276 7 72 -2 96 -34 96 -9 0 -25 -8 -34 -19z"/>
<path d="M18211 18364 c-66 -33 -117 -96 -183 -228 -82 -164 -99 -247 -105
-531 -4 -157 -1 -271 6 -330 11 -82 48 -231 71 -280 5 -11 16 -36 24 -56 7
-20 34 -57 58 -83 45 -46 63 -53 137 -48 51 3 45 45 -8 55 -39 8 -100 76 -127
141 -86 211 -106 608 -45 892 43 202 155 394 237 410 34 6 64 27 64 44 0 16
-32 40 -54 40 -12 0 -46 -12 -75 -26z"/>
<path d="M4902 18258 c-19 -19 -15 -76 6 -87 24 -13 67 -3 89 21 16 18 16 22
2 46 -11 20 -24 28 -49 30 -19 2 -41 -3 -48 -10z"/>
<path d="M21800 18143 c-61 -55 -103 -248 -99 -456 1 -95 1 -99 -27 -128 -25
-26 -27 -32 -16 -50 15 -23 4 -50 -29 -73 -12 -8 -45 -44 -73 -79 -64 -80
-140 -146 -218 -187 -53 -28 -67 -32 -119 -28 -68 5 -103 30 -118 85 -11 39 6
119 38 182 30 58 115 135 189 171 73 36 86 48 70 67 -29 36 -131 3 -226 -71
-107 -85 -163 -184 -170 -298 l-4 -68 -52 -29 c-125 -71 -330 -115 -406 -88
-53 18 -48 38 15 66 93 40 175 153 175 241 0 34 -37 91 -70 107 -34 17 -103
16 -146 -2 -108 -45 -157 -127 -159 -265 l-1 -85 -64 -32 c-36 -18 -70 -33
-77 -33 -37 0 -105 196 -124 355 -18 151 -6 490 19 580 27 92 10 126 -49 95
-50 -27 -71 -139 -73 -400 l-2 -195 -49 -110 c-27 -60 -57 -122 -67 -137 -10
-14 -18 -30 -18 -35 0 -14 -71 -116 -109 -156 -52 -56 -86 -70 -160 -69 -75 1
-106 18 -135 76 -12 26 -16 47 -12 71 6 32 10 35 41 35 102 0 185 56 185 124
0 78 -47 146 -101 146 -72 0 -176 -80 -206 -158 -21 -56 -23 -177 -4 -237 18
-53 52 -98 97 -126 28 -17 52 -22 108 -23 63 -1 80 3 147 36 123 60 192 156
259 359 17 52 35 98 39 102 5 5 12 -13 16 -40 12 -85 47 -206 77 -271 49 -105
104 -116 218 -43 35 23 67 41 71 41 4 0 21 -18 38 -39 46 -57 100 -76 200 -67
137 11 285 71 351 141 31 34 42 32 71 -12 29 -46 92 -83 139 -83 45 0 137 24
193 50 103 49 262 216 317 335 l23 50 9 -70 c24 -191 51 -278 93 -297 51 -23
79 29 39 73 -9 10 -20 37 -25 61 -18 77 -38 243 -33 263 3 13 38 37 99 68 97
49 195 130 195 160 0 28 -42 20 -106 -21 -88 -57 -170 -102 -184 -102 -10 0
-11 26 -5 116 10 156 36 281 73 346 23 40 28 57 21 71 -15 25 -54 21 -89 -10z
m-1185 -719 c35 -23 31 -52 -16 -123 -43 -65 -78 -95 -122 -106 l-27 -7 0 58
c0 41 8 75 24 110 37 79 87 103 141 68z m-1063 -51 c41 -37 9 -93 -54 -93 -34
0 -38 3 -38 26 0 15 12 38 29 55 34 34 38 35 63 12z"/>
<path d="M4954 17962 c-6 -4 -16 -17 -23 -29 -10 -20 -6 -34 24 -97 20 -40 48
-106 63 -146 28 -75 47 -98 76 -87 26 10 19 65 -24 194 -50 148 -80 190 -116
165z"/>
<path d="M16343 17798 c-28 -29 -58 -68 -68 -86 -15 -31 -15 -36 -1 -58 44
-66 146 -26 116 46 -10 23 -8 34 9 69 24 46 27 81 8 81 -7 0 -36 -24 -64 -52z"/>
<path d="M14499 17623 c-20 -24 -16 -118 11 -256 22 -112 23 -120 7 -147 -20
-33 -14 -58 15 -62 22 -3 30 -21 81 -182 23 -72 42 -94 72 -82 20 7 19 19 -19
154 -14 51 -26 102 -26 113 0 13 17 27 53 45 139 70 292 167 301 191 8 19 -1
33 -20 33 -17 0 -237 -105 -306 -147 -26 -15 -50 -24 -54 -20 -9 9 -20 85 -35
237 -6 63 -15 121 -21 127 -15 18 -43 16 -59 -4z"/>
<path d="M18987 17580 c-133 -34 -247 -156 -218 -233 11 -29 55 -71 129 -124
60 -42 170 -150 177 -174 9 -26 -22 -86 -60 -114 -73 -57 -201 -73 -275 -35
-51 26 -85 25 -104 -1 -21 -30 -7 -59 40 -84 58 -30 216 -28 298 5 74 29 149
97 172 155 14 38 15 51 4 95 -11 44 -23 62 -84 120 -39 38 -100 93 -136 122
-36 30 -66 64 -68 76 -4 26 29 72 67 95 15 9 61 23 101 31 79 17 113 37 93 57
-15 15 -90 20 -136 9z"/>
<path d="M16346 17479 c-24 -19 -26 -26 -26 -103 0 -100 20 -220 56 -336 14
-47 37 -121 50 -165 25 -81 46 -120 77 -139 32 -20 37 5 16 79 -32 113 -87
373 -98 461 -5 44 -7 106 -4 137 9 83 -18 108 -71 66z"/>
<path d="M14425 17430 c-9 -17 -23 -70 -31 -118 -17 -99 -69 -276 -90 -309
-45 -71 -129 18 -173 185 -10 35 -16 42 -36 42 -50 0 -58 -67 -20 -162 47
-116 105 -168 188 -168 81 0 112 27 146 125 26 74 49 221 53 339 3 98 -9 120
-37 66z"/>
<path d="M13514 17372 c-83 -61 -141 -163 -165 -294 -16 -85 -5 -146 34 -205
56 -84 153 -100 307 -51 92 29 151 91 181 188 32 108 12 222 -48 269 -45 36
-195 38 -288 5 -14 -5 -8 6 18 33 65 68 35 108 -39 55z m234 -161 c58 -31 66
-108 22 -208 -39 -89 -92 -123 -192 -123 -124 0 -162 55 -138 196 14 81 23 95
81 129 56 33 171 36 227 6z"/>
<path d="M24518 16683 c-9 -10 -20 -28 -27 -40 -20 -40 -60 -217 -73 -328 -28
-240 -3 -754 38 -795 14 -13 17 -13 30 5 11 14 14 34 10 70 -3 28 -9 147 -12
265 -9 296 14 545 66 696 23 65 26 114 8 132 -16 16 -22 15 -40 -5z"/>
<path d="M22895 16436 c-18 -27 -11 -52 17 -67 24 -13 55 -3 68 21 7 13 4 24
-11 44 -25 32 -54 33 -74 2z"/>
<path d="M6445 16395 c-24 -23 -25 -30 -25 -137 0 -107 15 -219 55 -408 21
-100 83 -376 95 -421 6 -20 10 -54 10 -77 0 -23 7 -49 18 -62 17 -21 19 -21
35 -6 18 18 17 89 -4 191 -21 107 -81 425 -99 530 -13 74 -20 156 -20 251 0
134 -6 164 -32 164 -5 0 -20 -11 -33 -25z"/>
<path d="M20975 16306 c-16 -24 -44 -205 -45 -283 0 -48 -4 -52 -74 -67 -57
-13 -83 -44 -64 -79 8 -15 17 -18 44 -13 19 3 49 9 68 12 l34 6 7 -63 c9 -84
54 -239 76 -263 37 -40 69 21 35 69 -7 11 -16 34 -19 50 -40 197 -41 205 -25
221 18 18 133 49 279 73 99 17 165 43 154 61 -15 25 -229 10 -364 -25 -32 -8
-64 -15 -70 -15 -14 0 -14 53 -1 134 26 159 28 181 18 194 -16 19 -36 14 -53
-12z"/>
<path d="M5126 16268 c-19 -27 -21 -77 -3 -84 28 -10 95 30 97 59 0 14 -40 47
-59 47 -11 0 -27 -10 -35 -22z"/>
<path d="M24975 16265 c-37 -19 -55 -42 -55 -69 1 -55 50 -65 102 -21 44 37
50 49 38 79 -11 30 -40 34 -85 11z"/>
<path d="M22937 16168 c-9 -7 -21 -34 -26 -60 -18 -79 -51 -328 -57 -428 -5
-83 -3 -101 15 -142 37 -81 76 -58 61 35 -13 82 4 237 52 470 19 94 19 99 3
118 -21 22 -26 23 -48 7z"/>
<path d="M23645 16166 c-16 -7 -40 -24 -52 -37 -27 -29 -76 -136 -92 -199 -20
-77 -64 -215 -71 -223 -3 -4 -11 67 -17 158 -12 169 -19 195 -54 195 -35 0
-39 -30 -24 -161 32 -271 48 -364 63 -381 42 -48 64 -11 117 196 25 98 55 204
68 235 30 74 74 141 91 141 34 0 81 -101 120 -260 38 -153 82 -224 125 -200
27 14 28 63 2 87 -11 10 -29 50 -41 88 -75 250 -105 316 -159 352 -39 27 -37
26 -76 9z"/>
<path d="M22025 16134 c-33 -7 -91 -16 -130 -19 -99 -10 -143 -23 -155 -46
-13 -24 -5 -55 17 -63 17 -7 177 22 298 55 44 11 96 21 117 21 22 -1 42 6 52
17 41 45 -63 63 -199 35z"/>
<path d="M5130 16011 c-19 -36 -10 -69 42 -158 86 -147 117 -191 139 -198 41
-13 52 41 18 90 -30 44 -109 202 -109 218 0 23 -40 67 -60 67 -11 0 -24 -9
-30 -19z"/>
<path d="M5660 16000 c-33 -33 -27 -97 19 -188 52 -103 90 -147 118 -138 29 9
35 29 22 79 -13 50 1 97 28 97 50 0 211 -99 305 -188 42 -39 68 -38 68 4 0 48
-180 208 -282 251 -89 37 -144 29 -173 -28 -23 -43 -37 -27 -29 32 6 43 4 53
-16 74 -28 30 -34 31 -60 5z"/>
<path d="M20603 15890 c-17 -10 -32 -23 -34 -28 -6 -14 -116 -137 -174 -194
-98 -96 -195 -146 -257 -133 -39 9 -63 75 -54 152 14 117 14 118 -17 121 -24
3 -30 -2 -49 -44 -40 -92 -5 -229 74 -287 15 -11 49 -22 78 -25 116 -11 287
119 418 318 59 90 72 123 54 134 -5 3 -22 -3 -39 -14z"/>
<path d="M25060 15878 c-11 -18 -23 -49 -26 -68 -12 -76 -33 -170 -62 -285
-38 -146 -64 -289 -56 -310 9 -22 31 -18 48 8 7 12 21 54 30 92 9 39 32 124
51 190 58 208 90 365 78 383 -18 29 -41 25 -63 -10z"/>
<path d="M21663 15869 c-17 -17 -16 -64 1 -78 9 -8 70 -13 176 -14 160 -2 162
-2 181 22 18 22 18 25 4 41 -13 14 -40 19 -143 24 -70 3 -145 8 -167 12 -26 3
-44 1 -52 -7z"/>
<path d="M19380 15843 c-75 -26 -144 -85 -176 -149 -49 -101 -43 -200 18 -269
94 -108 408 -96 479 19 22 34 19 96 -6 151 -23 50 -83 113 -131 137 -38 18
-44 26 -40 44 8 32 -2 53 -35 69 -34 18 -51 18 -109 -2z m55 -49 c12 -5 3 -11
-32 -23 -40 -13 -48 -20 -48 -41 0 -19 6 -26 24 -28 13 -2 28 1 34 7 45 45
204 -52 227 -140 13 -48 1 -80 -42 -112 -50 -37 -102 -50 -183 -45 -99 7 -139
32 -160 100 -31 105 19 218 120 271 35 19 38 19 60 11z"/>
<path d="M21753 15168 c-124 -104 -271 -267 -274 -304 -4 -44 2 -53 41 -64 23
-6 50 -8 60 -5 31 10 25 -26 -13 -76 -49 -63 -67 -103 -67 -144 0 -30 10 -46
62 -103 35 -37 76 -80 93 -96 31 -29 174 -126 186 -126 15 0 30 30 22 44 -4 8
-37 38 -73 67 -36 28 -98 83 -139 121 -67 64 -73 72 -67 101 4 17 24 58 46 92
72 111 72 145 -3 182 -26 13 -47 28 -47 32 0 13 152 156 209 196 27 19 51 42
54 50 6 14 -28 65 -43 65 -5 0 -26 -14 -47 -32z"/>
<path d="M19476 15025 c-48 -48 -62 -338 -26 -555 42 -256 59 -320 85 -320 26
0 28 25 11 132 -34 228 -39 276 -39 411 0 125 3 152 25 222 14 44 23 85 21 91
-3 10 -45 34 -58 34 -2 0 -10 -7 -19 -15z"/>
<path d="M17637 14915 c-37 -8 -124 -18 -193 -24 -127 -10 -154 -19 -154 -51
0 -47 37 -48 235 -7 116 25 145 28 145 19 0 -5 -15 -28 -32 -52 -80 -105 -98
-134 -98 -160 0 -41 23 -44 108 -15 79 27 122 31 152 15 28 -15 43 -73 35
-133 -4 -29 -7 -79 -7 -111 1 -52 5 -63 32 -91 l31 -32 -21 -54 c-11 -30 -43
-94 -70 -144 -95 -172 -132 -257 -138 -318 -5 -57 -4 -59 18 -55 19 2 38 31
99 153 42 83 97 186 123 230 91 158 98 199 44 249 l-34 31 1 120 c1 137 -8
165 -63 203 -31 22 -43 23 -117 20 l-83 -4 17 25 c9 14 34 48 55 74 59 76 64
128 11 126 -15 0 -59 -7 -96 -14z"/>
<path d="M20109 14755 c-82 -16 -133 -42 -179 -89 -30 -32 -35 -43 -38 -100
-4 -61 -2 -69 34 -128 21 -35 72 -100 112 -146 60 -68 73 -87 68 -107 -8 -31
-34 -38 -140 -36 -95 1 -116 -6 -116 -45 0 -37 36 -54 111 -54 125 0 229 54
229 118 0 34 -50 113 -119 187 -75 80 -94 114 -98 170 -8 100 62 153 218 164
122 9 144 38 50 70 -40 13 -47 13 -132 -4z"/>
<path d="M20595 14671 c-38 -21 -97 -52 -131 -69 -51 -25 -65 -37 -84 -77 -19
-39 -22 -58 -17 -118 6 -88 32 -151 87 -211 88 -95 330 -166 330 -97 0 10 -8
22 -17 26 -30 12 -123 35 -141 35 -9 0 -40 16 -69 36 -72 49 -104 114 -104
212 -1 111 25 145 150 196 144 58 170 4 29 -61 -58 -27 -68 -37 -68 -70 0 -16
8 -25 27 -29 59 -15 223 103 223 161 0 15 -15 39 -41 65 -52 51 -82 52 -174 1z"/>
<path d="M18928 14671 c-26 -11 -62 -31 -79 -45 -17 -14 -36 -26 -43 -26 -6 0
-35 -24 -63 -52 -50 -51 -103 -147 -103 -186 0 -10 -11 -33 -25 -52 -29 -40
-30 -48 -10 -70 9 -9 22 -52 30 -94 19 -99 57 -179 112 -234 67 -67 179 -107
218 -79 30 22 12 45 -42 52 -26 4 -62 16 -79 26 -69 42 -138 184 -132 274 l3
49 91 22 c104 25 175 61 249 124 75 65 99 104 99 166 1 118 -101 174 -226 125z
m128 -67 c22 -21 25 -31 19 -62 -19 -100 -177 -215 -329 -237 -44 -7 -48 -6
-43 11 3 11 9 35 13 54 14 71 105 184 179 223 81 42 128 45 161 11z"/>
<path d="M24628 13755 c-43 -24 -114 -159 -147 -280 -61 -230 -4 -443 136
-505 97 -43 188 -16 289 85 233 233 213 577 -39 652 -34 10 -70 13 -103 9 -47
-5 -52 -4 -73 24 -25 34 -26 34 -63 15z m257 -144 c54 -24 101 -80 110 -130
18 -108 -44 -261 -144 -353 -71 -66 -115 -88 -175 -88 -40 0 -51 5 -84 38 -54
54 -69 123 -54 242 13 97 62 255 87 279 41 41 178 47 260 12z"/>
<path d="M21238 13717 c-43 -40 -68 -209 -57 -382 3 -50 1 -109 -5 -132 -9
-37 -8 -45 11 -65 11 -13 28 -55 37 -97 21 -98 56 -192 73 -198 7 -3 20 0 28
7 12 10 12 19 -4 63 -59 167 -66 227 -27 252 29 20 242 74 321 82 33 3 68 10
78 15 28 14 16 41 -22 49 -43 9 -236 -16 -322 -41 -110 -33 -103 -43 -95 133
7 171 16 216 53 269 21 31 23 41 13 53 -18 22 -53 18 -82 -8z"/>
<path d="M23202 13680 c-60 -37 -69 -94 -21 -134 36 -30 46 -32 77 -10 26 18
28 36 7 54 -10 9 -13 24 -9 54 8 52 -9 63 -54 36z"/>
<path d="M25655 13623 c-33 -8 -84 -52 -91 -79 -15 -58 43 -71 110 -24 53 36
61 53 40 86 -16 24 -22 26 -59 17z"/>
<path d="M22153 13495 c-13 -9 -23 -27 -23 -39 0 -43 19 -48 133 -36 134 13
265 11 345 -6 61 -14 102 -8 102 15 0 19 -38 40 -85 46 -27 4 -60 11 -72 16
-12 4 -102 11 -200 14 -155 6 -181 4 -200 -10z"/>
<path d="M23797 13408 c-28 -49 -105 -179 -127 -213 -31 -50 23 -109 67 -73 9
7 36 55 59 106 24 50 47 92 52 92 13 0 28 -38 47 -124 21 -94 64 -163 119
-190 47 -23 71 -13 71 30 0 23 -7 33 -38 49 -47 25 -50 30 -87 154 -40 134
-84 211 -121 211 -11 0 -28 -17 -42 -42z"/>
<path d="M23146 13390 c-41 -50 -49 -98 -37 -226 14 -142 64 -297 105 -326 16
-11 36 3 36 27 0 12 -12 54 -27 91 -23 61 -27 83 -27 196 l-1 127 33 33 c17
19 32 42 32 52 0 62 -70 78 -114 26z"/>
<path d="M22183 13349 c-7 -7 -13 -21 -13 -30 0 -27 21 -37 103 -48 122 -17
236 -15 244 5 11 28 -3 33 -167 59 -58 9 -116 18 -130 21 -14 3 -31 0 -37 -7z"/>
<path d="M19965 13230 c-68 -27 -144 -87 -180 -141 -16 -25 -51 -69 -77 -98
-49 -54 -88 -140 -88 -193 0 -39 35 -97 67 -109 35 -13 123 -11 174 4 103 31
271 172 351 294 32 49 43 77 46 116 4 47 1 55 -24 81 -43 42 -79 57 -152 62
-52 3 -79 0 -117 -16z m185 -68 c14 -11 26 -28 28 -40 9 -59 -103 -210 -217
-295 -133 -98 -271 -112 -271 -27 0 43 57 146 103 186 44 38 41 37 144 18 28
-5 33 -3 38 19 9 35 1 44 -43 52 -66 11 -72 21 -32 56 68 58 192 74 250 31z"/>
<path d="M25421 13212 c-48 -50 -75 -131 -107 -322 -14 -85 -41 -206 -60 -267
-38 -127 -40 -145 -19 -163 44 -37 92 81 151 370 38 182 68 263 118 309 17 16
26 35 26 56 0 66 -54 75 -109 17z"/>
<path d="M20436 13196 c-25 -17 -38 -120 -34 -251 4 -128 19 -175 68 -220 31
-28 142 -33 207 -9 117 43 265 177 365 329 55 86 66 114 43 122 -12 4 -76 -59
-148 -147 -90 -110 -259 -228 -349 -245 -52 -10 -78 2 -95 43 -18 42 -19 188
-2 274 6 31 9 68 5 81 -7 28 -38 40 -60 23z"/>
<path d="M12129 12707 c-15 -12 -32 -33 -39 -46 -17 -32 -48 -143 -61 -216
-15 -89 -18 -95 -43 -95 -37 0 -78 -38 -74 -69 3 -25 5 -26 56 -23 l52 3 0
-68 c0 -116 31 -186 67 -151 13 14 14 27 5 94 -11 85 -7 127 13 144 7 6 48 15
91 20 215 25 252 32 293 53 74 37 65 47 -41 46 -88 0 -154 -7 -278 -27 -30 -6
-59 -6 -63 -2 -11 10 37 192 68 256 28 57 30 75 13 92 -17 17 -29 15 -59 -11z"/>
<path d="M10522 12564 c-34 -23 -48 -58 -87 -215 -52 -206 -61 -461 -19 -515
14 -18 14 -18 29 0 11 15 15 47 15 126 0 130 21 258 67 410 35 116 47 200 28
207 -6 2 -20 -4 -33 -13z"/>
<path d="M11450 12258 c-171 -87 -223 -182 -166 -304 58 -125 233 -195 375
-149 57 19 135 78 163 122 18 29 18 34 4 39 -9 4 -31 -6 -53 -24 -61 -47 -82
-54 -173 -60 -132 -7 -195 21 -231 105 -27 63 -25 108 6 139 28 28 114 71 162
80 40 8 66 35 61 66 -5 39 -51 35 -148 -14z"/>
<path d="M10955 12236 c-97 -31 -198 -115 -242 -200 -20 -40 -24 -61 -22 -115
1 -36 -1 -78 -5 -94 -10 -33 8 -59 38 -56 12 1 48 -6 81 -16 34 -11 93 -19
137 -19 72 -1 79 1 107 28 17 17 31 33 31 37 0 4 -28 7 -61 6 -34 -1 -63 3
-65 8 -2 6 14 22 35 36 48 34 124 132 141 183 21 64 17 128 -10 167 -13 19
-29 37 -35 41 -16 12 -85 8 -130 -6z m97 -77 c17 -9 19 -17 13 -55 -14 -97
-57 -165 -138 -217 -70 -46 -112 -54 -132 -24 -65 100 13 239 164 293 45 16
67 17 93 3z"/>
<path d="M9269 12211 c-122 -47 -220 -122 -264 -202 -55 -100 -37 -212 46
-285 61 -53 220 -94 367 -94 46 0 58 -4 83 -29 72 -72 11 -237 -131 -356 -39
-33 -54 -40 -105 -47 -16 -3 -20 -11 -20 -43 l0 -40 39 2 c116 7 309 235 324
381 8 88 -39 184 -101 205 -10 4 -71 12 -135 17 -194 17 -292 57 -322 130 -31
76 43 185 169 248 72 36 122 40 186 16 98 -38 103 -38 125 -19 25 22 26 57 3
77 -21 18 -111 44 -173 51 -30 4 -61 -1 -91 -12z"/>
<path d="M9954 12121 c-67 -30 -116 -100 -135 -193 -6 -29 -20 -68 -31 -85
-20 -34 -17 -73 5 -73 7 0 23 -32 37 -72 27 -80 90 -168 120 -168 10 0 21 -4
24 -9 10 -15 65 -21 92 -9 28 13 60 66 47 79 -4 4 -25 4 -47 -1 -21 -5 -48 -5
-60 0 -49 19 -110 111 -104 158 2 22 10 28 43 34 57 12 108 58 144 130 43 85
43 144 0 193 -36 41 -69 45 -135 16z m70 -77 c37 -14 6 -132 -46 -176 -11 -10
-35 -18 -54 -18 -33 0 -34 1 -34 39 0 53 15 89 53 129 30 32 50 38 81 26z"/>
<path d="M18145 11959 c-22 -4 -82 -8 -133 -8 -87 -1 -93 -2 -103 -25 -8 -17
-8 -29 1 -46 11 -20 17 -22 68 -15 32 3 73 10 92 15 19 5 61 12 93 15 54 7 57
6 57 -14 0 -12 -16 -62 -35 -111 -42 -108 -44 -148 -10 -180 21 -20 31 -22 79
-16 30 3 61 9 69 12 12 4 14 -12 13 -106 l-1 -111 41 -37 c22 -20 63 -50 90
-67 45 -28 49 -33 52 -73 4 -49 -25 -169 -63 -268 -15 -38 -74 -166 -132 -284
-76 -153 -107 -229 -111 -262 -4 -38 -1 -48 11 -48 30 0 57 45 211 360 108
223 165 376 173 471 5 63 4 67 -27 103 -18 20 -54 48 -79 61 -25 13 -57 35
-70 49 -26 27 -25 20 -5 193 4 34 2 58 -5 67 -17 20 -68 26 -124 14 -72 -15
-75 -5 -32 101 45 114 56 188 30 207 -20 15 -87 17 -150 3z"/>
</g>
</svg>
