<?xml version="1.0" standalone="no"?>
<!DOCTYPE svg PUBLIC "-//W3C//DTD SVG 20010904//EN"
 "http://www.w3.org/TR/2001/REC-SVG-20010904/DTD/svg10.dtd">
<svg version="1.0" xmlns="http://www.w3.org/2000/svg"
 width="3264.000000pt" height="2448.000000pt" viewBox="0 0 3264.000000 2448.000000"
 preserveAspectRatio="xMidYMid meet">
<metadata>
Created by potrace 1.12, written by Peter Selinger 2001-2015
</metadata>
<g transform="translate(0.000000,2448.000000) scale(0.100000,-0.100000)"
fill="#000000" stroke="none">
<path d="M3562 23478 c-5 -7 -12 -35 -15 -63 -7 -68 -35 -259 -47 -320 -32
-162 -33 -186 -16 -222 11 -23 22 -33 34 -31 14 3 17 13 14 58 -1 32 8 96 22
155 41 171 76 339 76 368 0 26 -30 67 -49 67 -5 0 -13 -6 -19 -12z"/>
<path d="M3886 23423 c-14 -113 -28 -191 -41 -231 -24 -70 -58 -241 -62 -317
-5 -89 7 -125 43 -125 21 0 25 3 19 18 -23 56 -11 136 53 357 76 263 81 301
39 330 -35 25 -45 18 -51 -32z"/>
<path d="M6411 23387 c-6 -8 -33 -50 -59 -93 -26 -44 -76 -126 -111 -183 -35
-58 -68 -120 -73 -138 -10 -36 -38 -44 -67 -19 -29 24 -104 42 -150 36 -76
-11 -102 -70 -61 -138 11 -18 32 -37 47 -43 16 -7 37 -15 48 -19 63 -26 249
-14 286 17 12 10 23 11 42 4 32 -12 64 8 53 34 -5 14 -13 16 -39 11 -17 -3
-37 -13 -44 -22 -6 -9 -14 -11 -17 -5 -4 5 -27 7 -54 5 -101 -11 -168 -11
-207 0 -34 10 -41 17 -49 49 -12 45 -3 57 48 61 29 2 53 -6 103 -36 36 -21 67
-38 68 -38 2 0 18 26 36 58 17 31 46 80 64 107 17 28 49 78 71 113 21 34 58
88 82 120 34 45 42 64 40 92 -2 27 -8 36 -24 38 -11 2 -26 -3 -33 -11z"/>
<path d="M2136 23338 c-10 -13 -16 -43 -16 -73 1 -75 35 -398 54 -500 29 -156
34 -174 64 -207 11 -14 18 -15 29 -7 17 15 17 46 -2 99 -21 58 -33 130 -50
285 -20 184 -19 309 1 326 10 8 51 14 112 16 54 2 110 8 126 13 16 6 57 10 91
10 34 0 65 3 69 7 4 4 15 8 24 8 9 1 29 2 45 3 41 3 34 28 -10 35 -50 8 -358
-26 -377 -42 -15 -13 -16 -12 -93 27 -51 27 -48 27 -67 0z"/>
<path d="M5761 23321 c-12 -16 -21 -38 -21 -49 0 -12 -4 -24 -10 -27 -5 -3
-10 -13 -10 -22 0 -9 -15 -60 -34 -112 -18 -53 -38 -109 -43 -126 -8 -26 -13
-30 -38 -27 -17 2 -35 8 -42 13 -6 6 -36 13 -65 16 -45 4 -59 1 -90 -18 -65
-42 -71 -105 -14 -143 32 -20 129 -22 145 -2 10 11 8 16 -7 20 -11 4 -26 4
-34 1 -24 -10 -62 28 -54 53 19 57 124 65 151 11 20 -37 19 -38 -10 -49 -43
-16 -29 -30 23 -23 59 7 157 55 127 61 -48 10 -47 72 4 171 21 42 46 99 56
126 10 28 22 54 27 60 20 23 0 95 -27 95 -7 0 -23 -13 -34 -29z"/>
<path d="M5009 23317 c-14 -12 -48 -51 -75 -86 -108 -140 -135 -171 -162 -183
-24 -12 -27 -19 -27 -63 -1 -40 -9 -64 -44 -125 -73 -125 -74 -129 -60 -146
34 -41 73 11 153 204 28 68 35 78 65 86 33 9 33 10 27 55 -5 34 -2 55 11 80
20 39 82 100 101 101 19 0 16 -149 -3 -178 -14 -19 -14 -25 -2 -49 8 -16 17
-69 20 -119 6 -98 22 -148 56 -178 16 -15 24 -17 33 -8 9 9 9 23 -1 60 -33
116 -40 245 -15 273 13 15 14 24 5 50 -7 21 -9 66 -5 125 5 69 4 97 -6 109
-17 21 -41 19 -71 -8z"/>
<path d="M3364 23082 c-5 -4 -31 -45 -58 -91 -26 -46 -59 -96 -72 -110 -13
-14 -24 -29 -24 -32 0 -3 -18 -19 -41 -34 -39 -28 -40 -28 -59 -9 -14 14 -20
37 -23 91 -2 40 -10 79 -17 88 -15 18 -46 20 -56 3 -13 -21 -4 -150 13 -185
19 -40 79 -75 114 -66 31 8 85 48 124 92 16 19 37 42 47 50 21 20 88 151 88
172 0 21 -22 40 -36 31z"/>
<path d="M6770 23063 c-52 -17 -100 -46 -129 -77 -19 -20 -40 -36 -47 -36 -6
0 -17 -7 -24 -16 -11 -13 -5 -24 45 -74 77 -78 143 -110 287 -139 l88 -18 35
35 c19 20 35 40 35 44 0 4 21 21 46 39 40 27 63 34 173 50 69 10 170 21 224
24 93 7 97 8 97 30 0 34 -23 48 -67 41 -21 -3 -94 -10 -163 -16 -161 -13 -256
-38 -326 -86 -29 -20 -54 -40 -54 -43 0 -3 -11 -19 -23 -35 l-24 -29 -94 23
c-107 26 -144 42 -159 69 -19 37 3 53 108 81 74 19 108 91 60 124 -22 16 -58
19 -88 9z"/>
<path d="M2296 22984 c-21 -20 -12 -35 34 -61 56 -33 162 -31 367 6 93 17 143
71 65 71 -21 0 -43 -5 -50 -12 -29 -29 -303 -42 -344 -16 -39 25 -57 28 -72
12z"/>
<path d="M6517 22404 c-2 -2 -360 -12 -682 -20 -132 -3 -262 -8 -290 -10 -27
-2 -147 -6 -265 -9 -118 -3 -249 -8 -290 -11 -41 -2 -136 -6 -210 -9 -74 -2
-184 -6 -245 -9 -60 -3 -175 -8 -255 -10 -275 -9 -445 -18 -458 -25 -7 -4 -38
-4 -70 0 -58 7 -79 6 -337 -12 -82 -5 -186 -12 -230 -15 -84 -5 -253 -19 -370
-31 -38 -3 -106 -8 -150 -9 -175 -4 -377 -14 -385 -19 -4 -2 -70 -7 -146 -10
-76 -3 -147 -8 -156 -11 -22 -6 -156 -15 -221 -14 -27 1 -55 -4 -63 -11 -19
-16 -18 -46 3 -57 17 -9 110 -1 143 12 8 3 49 8 90 10 128 8 278 20 380 31 19
2 127 6 240 10 113 4 207 9 210 10 6 4 246 25 340 30 30 2 102 8 160 13 58 6
112 10 120 10 8 0 65 3 125 6 310 17 450 24 660 31 66 2 168 9 227 15 59 6
137 11 175 11 62 -1 111 0 353 9 41 2 78 5 83 7 4 3 83 5 175 5 92 1 170 3
174 5 4 2 114 6 245 8 131 2 436 7 678 12 482 8 923 8 1370 -1 160 -3 434 -8
610 -11 185 -3 340 -10 366 -17 54 -13 79 -6 79 21 0 48 -73 63 -308 61 -183
-2 -281 -2 -1230 2 -354 2 -644 3 -645 2z"/>
<path d="M8821 21957 c-6 -14 -3 -66 6 -136 18 -141 11 -244 -72 -1036 -8 -71
-17 -168 -20 -215 -4 -47 -9 -92 -11 -101 -7 -24 -39 -29 -98 -18 -46 9 -541
5 -891 -6 -66 -3 -338 -4 -605 -4 -821 2 -1186 1 -1400 -5 -113 -4 -393 -8
-623 -11 -231 -3 -422 -7 -426 -9 -4 -3 -34 -5 -67 -6 -32 -1 -135 -6 -229
-11 -93 -6 -205 -12 -247 -14 -43 -2 -90 -6 -105 -9 -16 -3 -73 -8 -128 -11
-55 -3 -145 -9 -200 -15 -55 -5 -136 -12 -180 -16 -81 -6 -101 -9 -165 -17
-19 -3 -75 -8 -125 -12 -49 -4 -106 -9 -125 -11 -63 -9 -104 -13 -165 -19
-111 -10 -313 -35 -327 -40 -11 -4 -78 -10 -303 -29 -235 -20 -323 -23 -470
-14 -37 3 -40 1 -43 -24 -2 -20 4 -31 23 -44 22 -15 43 -16 153 -11 177 9 467
34 592 52 58 8 124 15 148 15 24 0 51 4 61 9 10 6 44 13 77 16 32 3 165 17
294 30 129 14 280 29 335 34 55 6 145 15 200 22 55 6 129 12 164 14 35 2 80 6
100 10 20 3 95 7 166 9 72 3 142 7 155 10 48 10 558 27 955 32 220 2 434 6
475 8 78 4 955 5 1475 3 165 -1 404 1 530 5 127 3 365 9 530 12 165 3 339 9
386 12 77 6 87 4 93 -12 7 -18 -19 -313 -33 -369 -5 -22 -13 -30 -31 -32 -47
-3 -155 -21 -175 -29 -11 -4 -23 -12 -27 -18 -9 -13 -10 -60 -2 -68 3 -3 35 7
72 23 66 28 125 36 150 21 10 -7 10 -20 1 -61 l-11 -52 -108 3 c-94 3 -112 0
-127 -15 -14 -14 -15 -21 -6 -35 6 -9 16 -16 22 -14 7 1 52 5 100 9 113 8 118
2 97 -114 -13 -72 -29 -223 -40 -382 -2 -35 -9 -68 -15 -74 -5 -5 -43 -16 -83
-24 -76 -14 -98 -29 -98 -70 0 -12 -9 -27 -21 -33 -13 -7 -19 -19 -17 -33 3
-24 0 -23 131 -14 76 6 91 -7 84 -77 -3 -28 -11 -213 -18 -411 -6 -198 -15
-364 -19 -368 -4 -4 -20 -10 -36 -13 -48 -8 -56 -13 -52 -36 2 -18 10 -24 40
-26 46 -4 68 -26 46 -48 -15 -15 -45 -13 -138 8 -20 4 -25 -36 -7 -51 8 -6 41
-16 72 -21 32 -5 60 -11 62 -14 8 -7 7 -39 -5 -216 -7 -91 -12 -226 -12 -300
0 -74 -4 -141 -9 -148 -6 -10 -27 -13 -67 -12 -84 3 -84 3 -84 -29 0 -39 13
-46 89 -46 64 0 65 0 73 -32 5 -18 4 -42 -2 -57 -8 -23 -15 -26 -57 -26 -27 1
-66 7 -88 15 -61 22 -77 20 -73 -12 5 -41 43 -61 127 -68 41 -3 76 -7 78 -9 3
-2 6 -129 8 -282 2 -154 8 -346 13 -429 6 -82 10 -159 10 -170 -1 -11 3 -72 7
-136 l8 -116 -28 -7 c-25 -7 -27 -10 -22 -47 4 -28 1 -39 -8 -39 -19 0 -36
-25 -29 -43 3 -9 22 -21 42 -28 21 -6 40 -14 44 -18 4 -4 10 -92 13 -196 2
-105 7 -255 11 -334 l7 -144 -57 7 c-48 6 -57 5 -63 -10 -11 -28 11 -47 66
-60 58 -13 71 -25 71 -65 0 -48 -17 -51 -134 -28 -114 22 -136 21 -136 -9 0
-43 21 -52 134 -61 59 -5 112 -13 116 -18 4 -4 11 -136 14 -293 4 -157 11
-330 16 -385 5 -55 9 -121 10 -147 0 -42 -3 -48 -25 -54 -25 -6 -41 -36 -30
-54 3 -5 19 -10 36 -10 22 0 29 -5 29 -19 0 -16 -11 -19 -90 -25 -73 -6 -90
-11 -95 -25 -7 -22 2 -48 19 -54 6 -3 44 2 84 11 56 12 75 13 84 4 16 -16 35
-426 39 -843 3 -267 2 -311 -11 -319 -9 -6 -53 -8 -106 -4 -89 6 -92 6 -99
-15 -4 -15 -1 -29 11 -42 16 -17 26 -19 109 -13 l91 7 13 -31 c14 -33 8 -67
-12 -75 -7 -2 -41 2 -77 10 -103 22 -114 21 -118 -5 -6 -38 14 -50 98 -57 49
-4 84 -12 91 -21 8 -9 13 -69 15 -167 2 -83 11 -226 19 -317 9 -91 19 -199 22
-240 6 -76 16 -110 33 -110 26 0 29 42 15 191 -25 273 -47 610 -40 626 5 13
17 15 78 8 106 -12 190 -12 194 0 2 6 -3 19 -10 29 -12 16 -34 21 -127 27
-133 10 -160 22 -160 74 0 57 17 62 245 64 212 1 235 4 235 26 0 31 -41 37
-246 36 -237 -1 -227 -5 -214 99 15 129 -1 740 -25 940 -16 132 -11 144 53
136 26 -4 84 -14 129 -23 45 -10 85 -14 89 -11 12 13 -9 49 -34 59 -15 6 -76
13 -135 16 -102 6 -109 8 -120 30 -26 57 77 76 241 44 76 -15 98 -9 87 22 -13
33 -135 58 -250 51 l-85 -6 0 34 c0 18 -2 74 -4 123 -3 50 -7 187 -11 305 -3
118 -10 245 -15 282 -14 112 -14 112 102 105 54 -3 105 -4 113 -1 15 6 21 53
8 55 -5 0 -52 2 -105 3 -109 2 -138 16 -138 67 0 51 14 55 200 62 195 8 227
18 183 62 -13 13 -26 15 -57 10 -23 -3 -98 -8 -168 -11 -123 -5 -127 -5 -142
18 -13 19 -15 39 -10 108 6 76 -11 455 -22 505 -9 40 7 46 82 34 38 -6 97 -13
132 -16 58 -5 62 -4 62 15 0 30 -29 42 -107 43 -37 0 -88 6 -112 12 -70 19
-82 60 -21 70 32 5 309 -18 333 -28 16 -7 18 -3 15 21 -5 46 -40 56 -221 62
-157 5 -159 5 -168 29 -12 33 -11 180 1 204 7 13 7 25 0 38 -11 22 -16 109
-30 554 -6 175 -8 323 -4 328 3 5 30 9 60 9 64 0 94 13 94 40 0 26 -28 40 -59
30 -86 -27 -111 -16 -111 48 0 62 6 65 115 60 78 -4 98 -3 102 9 10 26 -21 43
-97 52 -41 5 -77 8 -82 5 -4 -2 -12 5 -18 16 -8 15 -8 59 -1 157 6 75 14 218
17 317 4 100 11 186 16 192 5 7 38 15 73 19 73 7 106 28 83 51 -10 11 -22 11
-48 4 -72 -21 -120 -8 -120 31 0 35 23 40 109 23 64 -13 85 -14 94 -5 22 23
-27 49 -104 57 -89 9 -96 20 -81 126 6 41 14 221 18 401 5 216 11 330 18 336
12 10 88 0 157 -19 48 -14 99 -7 99 13 0 23 -73 47 -159 52 -46 2 -84 5 -85 7
-1 2 -8 16 -14 32 -11 25 -11 32 3 45 13 13 35 15 116 13 91 -3 100 -2 97 14
-4 24 -51 35 -126 29 -59 -4 -64 -2 -74 20 -8 18 -8 43 0 92 6 38 19 149 28
248 11 111 22 185 30 194 12 13 23 13 86 -2 138 -32 244 -15 217 35 -9 17 -17
19 -52 14 -62 -9 -227 9 -238 25 -5 8 -9 28 -9 45 0 16 -5 35 -10 40 -7 7 -4
17 11 30 19 17 35 19 185 16 158 -2 164 -1 164 18 0 12 -8 22 -22 25 -93 21
-125 24 -195 18 -105 -8 -110 -2 -94 110 6 45 15 129 20 186 6 65 15 107 23
112 7 4 51 5 98 2 47 -3 90 -5 95 -3 6 1 60 3 120 5 61 2 236 8 390 13 326 11
377 12 1040 21 275 4 781 5 1125 4 805 -4 1547 -3 1680 1 58 2 391 7 740 11
606 7 744 4 862 -21 20 -5 29 -1 38 15 16 32 4 58 -33 68 -33 8 -937 7 -1197
-2 -238 -8 -820 -18 -1050 -17 -118 0 -586 1 -1040 2 -916 2 -2015 -10 -2260
-25 -25 -2 -139 -6 -253 -9 -114 -4 -219 -11 -233 -16 -14 -6 -45 -10 -69 -10
-49 0 -70 21 -60 62 6 31 50 439 65 608 6 74 20 211 31 303 27 241 22 503 -12
543 -17 21 -38 17 -48 -9z m-236 -2838 c4 -10 3 -29 0 -40 -6 -19 -12 -21 -58
-16 -62 8 -78 21 -54 44 19 20 77 41 94 35 7 -2 15 -12 18 -23z"/>
<path d="M13630 21579 c-165 -44 -290 -131 -290 -202 0 -38 22 -62 116 -125
114 -76 175 -173 141 -225 -31 -47 -216 -115 -284 -104 -18 3 -45 15 -60 26
-34 27 -62 27 -72 -1 -17 -46 11 -79 82 -99 86 -23 297 43 366 115 28 29 35
45 39 90 8 95 -46 170 -192 269 -65 44 -70 64 -23 103 44 38 95 58 212 85 109
25 125 32 125 59 0 36 -49 38 -160 9z"/>
<path d="M10064 21536 c-100 -32 -249 -110 -311 -163 -73 -61 -117 -142 -116
-209 2 -90 52 -152 164 -203 106 -48 182 -64 286 -59 96 4 118 13 107 41 -5
13 -19 17 -61 17 -64 0 -186 17 -228 32 -42 15 -125 58 -155 80 -51 40 -64
102 -34 161 21 39 85 117 97 117 5 0 22 10 39 21 34 25 130 72 191 95 33 13
131 22 240 24 12 0 8 45 -5 58 -20 20 -136 13 -214 -12z"/>
<path d="M7140 21515 c-88 -26 -145 -51 -174 -75 -75 -65 -120 -125 -159 -215
-28 -64 -77 -226 -77 -255 0 -9 -9 -29 -20 -43 -11 -14 -20 -40 -20 -59 0 -34
32 -98 50 -98 18 0 33 44 42 124 9 90 49 245 81 321 44 104 130 189 225 225
66 25 79 25 87 1 10 -33 -20 -86 -81 -142 -153 -143 -174 -166 -174 -192 0
-40 31 -64 97 -76 148 -29 336 -82 391 -109 31 -17 42 -28 42 -46 0 -41 -78
-62 -270 -71 -154 -7 -220 2 -256 36 -24 23 -26 23 -39 6 -17 -24 -5 -66 26
-89 61 -45 482 -23 573 30 16 9 38 34 49 55 18 35 18 39 2 63 -28 43 -273 149
-390 168 -22 4 -64 14 -92 22 -78 22 -71 47 39 127 57 42 104 96 132 152 22
42 24 56 16 90 -5 22 -17 45 -26 52 -20 15 -16 15 -74 -2z"/>
<path d="M2795 21502 c-6 -5 -30 -15 -55 -22 -25 -8 -66 -27 -91 -42 -25 -15
-53 -28 -61 -28 -9 0 -33 -18 -54 -40 -22 -22 -42 -40 -45 -40 -11 0 -129
-123 -129 -135 0 -6 -18 -31 -40 -53 -43 -46 -104 -165 -114 -225 -9 -50 9
-137 37 -179 28 -41 110 -86 179 -99 29 -5 58 -9 63 -9 120 4 214 24 255 53
13 9 30 17 36 17 20 0 39 29 26 42 -8 8 -29 5 -79 -10 -127 -38 -163 -45 -216
-39 -92 11 -157 36 -201 77 -40 38 -41 40 -40 102 3 115 67 234 206 380 74 79
107 103 210 157 120 61 143 59 165 -14 12 -42 35 -37 52 11 12 34 12 44 0 70
-12 24 -21 30 -54 32 -22 2 -45 -1 -50 -6z"/>
<path d="M11712 21468 c-6 -18 -13 -83 -16 -145 -4 -62 -9 -119 -12 -127 -3
-8 -21 -17 -39 -20 -52 -10 -79 -37 -71 -71 7 -26 9 -27 46 -21 l40 6 -2 -50
c-2 -49 11 -78 30 -66 5 3 15 35 22 71 7 35 18 69 26 76 7 6 62 15 121 20 59
4 140 13 180 20 67 11 73 14 73 36 0 42 -30 43 -302 7 -61 -8 -67 4 -44 100
20 88 21 145 0 174 -22 31 -41 27 -52 -10z"/>
<path d="M14582 21453 c-9 -18 -26 -268 -27 -400 0 -61 3 -76 22 -94 35 -36
63 -20 137 81 37 49 71 90 76 90 4 0 6 -17 3 -37 -6 -47 25 -93 63 -93 41 0
206 71 270 116 76 54 114 70 126 52 5 -7 6 -44 2 -83 -6 -76 7 -113 35 -96 16
10 53 174 44 199 -11 38 -27 62 -43 67 -26 8 -101 -18 -161 -57 -84 -54 -246
-131 -258 -124 -15 10 -14 38 5 103 12 43 14 61 5 80 -18 40 -49 26 -103 -47
-65 -88 -138 -170 -150 -170 -7 0 -8 44 -2 138 5 75 8 162 8 193 -2 81 -30
125 -52 82z"/>
<path d="M14371 21328 c-50 -106 -114 -192 -158 -213 -59 -28 -98 -30 -137 -5
-66 40 -80 86 -55 186 9 33 9 52 1 70 -30 65 -72 -4 -79 -131 -6 -105 18 -157
92 -193 96 -49 192 -26 280 66 58 60 146 250 132 286 -14 35 -38 14 -76 -66z"/>
<path d="M5613 21294 c-16 -7 -121 -145 -169 -223 -21 -35 -46 -73 -54 -86 -8
-13 -33 -51 -54 -86 -22 -35 -57 -88 -79 -117 -44 -61 -57 -111 -33 -131 25
-21 42 -7 81 71 61 119 115 219 159 292 22 37 47 80 55 95 8 14 20 30 28 34 7
4 13 14 13 21 0 15 32 46 48 46 11 0 72 -178 72 -211 0 -19 -18 -25 -100 -34
-86 -10 -99 -14 -110 -35 -18 -33 4 -60 48 -60 21 0 42 4 48 8 20 19 126 54
134 46 4 -5 15 -40 23 -77 16 -73 39 -117 61 -117 21 0 24 29 8 85 -8 28 -17
71 -19 96 -5 44 -3 46 28 59 18 8 50 13 70 11 46 -3 67 24 45 55 -13 17 -17
17 -42 4 -16 -8 -35 -18 -42 -24 -21 -15 -69 -17 -80 -3 -6 7 -23 57 -37 112
-40 150 -61 186 -102 169z"/>
<path d="M10533 21199 c-94 -60 -97 -197 -5 -259 52 -34 177 -36 239 -3 81 44
105 110 63 178 -25 40 -64 55 -140 55 -47 0 -60 4 -80 25 -28 30 -36 31 -77 4z
m213 -99 c27 -11 42 -55 27 -79 -5 -9 -32 -23 -59 -33 -92 -31 -189 10 -182
76 4 45 37 58 122 51 38 -4 79 -10 92 -15z"/>
<path d="M11007 21134 c-19 -19 -5 -82 29 -133 47 -70 103 -96 183 -87 99 12
210 102 195 160 -8 33 -37 34 -57 2 -9 -13 -37 -37 -63 -55 -37 -24 -58 -31
-95 -31 -58 0 -88 22 -127 95 -25 47 -49 65 -65 49z"/>
<path d="M3077 21063 c-13 -12 -7 -60 8 -73 38 -31 88 33 53 68 -13 13 -50 16
-61 5z"/>
<path d="M3646 20833 c-11 -3 -33 -18 -50 -34 -17 -16 -34 -29 -37 -29 -3 0
-30 -34 -59 -75 -55 -76 -70 -82 -85 -35 -7 23 -34 33 -51 19 -24 -20 -26 -66
-6 -113 38 -85 73 -70 165 69 56 86 94 123 132 131 25 5 36 0 67 -31 20 -20
51 -66 69 -101 35 -72 82 -128 101 -122 21 7 21 46 0 75 -10 16 -36 61 -57
100 -60 116 -121 163 -189 146z"/>
<path d="M3069 20733 c-25 -64 14 -252 58 -281 21 -13 23 -13 29 3 4 10 -1 49
-11 87 -13 50 -16 85 -11 129 8 65 -2 89 -35 89 -12 0 -24 -11 -30 -27z"/>
<path d="M13480 20191 c-18 -11 -87 -29 -157 -42 -125 -22 -215 -80 -243 -155
-18 -45 -11 -126 13 -179 82 -176 440 -272 731 -196 137 35 216 200 167 345
-27 78 -135 169 -251 211 -51 18 -237 30 -260 16z m165 -62 c33 -6 87 -23 120
-38 123 -56 181 -136 173 -241 -5 -76 -40 -123 -116 -157 -113 -52 -349 -40
-512 26 -129 53 -170 100 -170 195 0 48 4 60 33 92 73 84 203 102 314 46 75
-39 83 -39 83 -7 0 19 -10 31 -35 46 -38 23 -46 45 -17 51 19 4 40 2 127 -13z"/>
<path d="M10590 20144 c-69 -12 -121 -30 -180 -62 -144 -77 -190 -139 -190
-253 0 -180 135 -281 380 -283 221 -2 365 64 438 201 56 105 53 180 -11 240
-31 30 -198 119 -265 141 -38 13 -137 22 -172 16z m84 -64 c9 0 13 -13 12 -37
-1 -42 -4 -41 92 -27 67 10 90 -1 112 -51 22 -51 36 -56 51 -19 l10 27 24 -23
c13 -12 27 -36 30 -52 10 -43 -23 -124 -73 -179 -35 -39 -56 -52 -120 -74 -95
-33 -222 -43 -318 -25 -145 27 -204 84 -204 196 0 88 42 148 138 198 50 26
205 76 220 70 8 -2 19 -4 26 -4z"/>
<path d="M7054 20071 c-12 -5 -26 -23 -32 -40 -8 -22 -25 -37 -64 -56 -72 -35
-151 -114 -185 -183 -71 -144 1 -277 162 -305 143 -24 381 61 509 182 62 59
76 93 76 184 0 60 -4 80 -22 107 -28 39 -49 51 -158 86 -90 29 -245 42 -286
25z m321 -119 c51 -36 85 -86 85 -127 0 -35 -59 -119 -104 -148 -109 -72 -260
-127 -347 -127 -87 0 -118 10 -160 50 -32 30 -39 44 -39 74 0 56 47 142 105
191 89 76 153 104 265 115 103 11 148 4 195 -28z"/>
<path d="M4736 20048 c-15 -26 -32 -110 -42 -208 -3 -36 -10 -70 -15 -76 -10
-13 -54 -11 -132 6 -64 14 -80 7 -70 -31 9 -34 31 -42 113 -41 63 2 81 -1 88
-14 5 -9 7 -64 5 -123 -5 -110 5 -161 31 -161 24 0 28 34 21 158 -8 152 -9
151 121 158 55 3 108 9 119 14 11 5 38 11 59 12 45 3 72 32 46 48 -27 18 -149
5 -206 -22 -11 -5 -42 -8 -70 -6 -48 3 -49 4 -52 38 -3 32 4 64 40 187 11 37
10 44 -7 63 -23 26 -31 25 -49 -2z"/>
<path d="M6475 19948 c-13 -29 -27 -79 -30 -110 -8 -62 -16 -74 -55 -80 -20
-2 -25 -9 -25 -33 0 -23 5 -30 25 -35 23 -5 25 -11 25 -60 0 -33 5 -55 12 -57
13 -5 20 10 44 87 l14 45 82 5 c45 3 85 8 88 12 24 24 -30 48 -107 48 -46 0
-51 28 -21 113 27 74 27 76 9 96 -11 12 -23 21 -28 21 -5 0 -20 -24 -33 -52z"/>
<path d="M23812 19928 c-126 -133 -272 -324 -272 -356 0 -21 24 -52 40 -52 13
0 45 45 137 193 90 146 117 166 92 68 -15 -60 -6 -95 31 -123 62 -46 139 -18
251 90 41 40 85 79 97 88 21 15 22 14 22 -17 0 -18 -30 -108 -66 -199 -36 -91
-75 -190 -86 -220 -12 -30 -41 -95 -66 -143 -32 -63 -41 -92 -34 -99 27 -27
59 21 161 243 179 388 210 478 176 512 -35 36 -89 12 -219 -99 -83 -72 -156
-124 -173 -124 -31 0 -28 70 9 178 17 47 19 69 12 90 -17 48 -46 40 -112 -30z"/>
<path d="M3465 19950 c-11 -5 -32 -9 -46 -9 -15 -1 -32 -8 -39 -16 -7 -8 -19
-15 -28 -15 -8 0 -37 -16 -63 -35 -27 -19 -52 -35 -57 -35 -21 0 -116 -98
-133 -138 -37 -85 -40 -121 -17 -174 40 -94 140 -148 277 -150 103 -1 129 6
247 63 83 40 114 62 170 119 68 69 103 120 104 150 0 34 -22 90 -51 126 -64
81 -161 124 -274 123 -38 0 -79 -4 -90 -9z m146 -44 c146 -43 229 -149 184
-236 -41 -79 -172 -175 -295 -218 -123 -42 -278 -13 -334 62 -35 46 -39 88
-16 154 20 57 36 73 80 82 13 3 30 16 36 29 7 13 18 28 26 32 23 15 124 10
156 -8 36 -21 65 -11 60 19 -2 15 -16 29 -40 40 -43 20 -54 34 -40 51 14 17
115 13 183 -7z"/>
<path d="M5535 19932 c-145 -53 -195 -91 -210 -162 -4 -19 -16 -52 -26 -72
-11 -22 -19 -58 -19 -89 0 -146 133 -235 301 -200 91 18 176 72 292 181 51 49
60 62 64 101 4 34 0 56 -15 85 -28 54 -98 119 -155 144 -67 30 -168 35 -232
12z m211 -68 c38 -16 124 -109 124 -134 0 -52 -57 -120 -156 -187 -102 -69
-218 -93 -294 -61 -44 19 -55 32 -70 86 -14 54 -2 95 43 144 26 29 38 35 60
31 24 -5 27 -2 27 21 0 15 -7 29 -15 32 -8 4 -15 15 -15 25 0 55 198 84 296
43z"/>
<path d="M23523 19878 c-117 -113 -213 -262 -216 -338 -2 -48 26 -82 62 -78
24 3 26 7 32 69 9 106 97 257 193 332 49 38 56 46 49 64 -12 30 -55 13 -120
-49z"/>
<path d="M22475 19901 c-92 -34 -179 -93 -271 -185 -73 -74 -99 -108 -135
-180 -40 -81 -44 -96 -47 -175 -3 -76 -1 -89 18 -114 31 -39 71 -57 144 -64
68 -6 124 8 226 57 92 43 139 78 146 106 9 34 -13 49 -41 29 -99 -72 -242
-135 -307 -135 -98 0 -131 82 -88 222 40 131 167 272 304 338 45 21 92 40 105
42 32 4 50 32 35 56 -15 24 -31 24 -89 3z"/>
<path d="M22920 19750 c-112 -110 -185 -204 -200 -261 -27 -101 67 -152 178
-97 26 14 69 51 105 93 33 38 64 70 69 70 5 0 19 -25 32 -56 33 -82 65 -129
87 -129 25 0 25 24 -1 100 -11 33 -25 95 -31 138 -18 129 -16 124 -52 120 -29
-3 -33 -7 -44 -51 -15 -63 -33 -89 -107 -160 -73 -70 -134 -106 -147 -85 -34
54 49 182 204 312 47 40 58 54 55 75 -6 53 -38 38 -148 -69z"/>
<path d="M28082 19778 c-34 -34 13 -87 62 -69 28 11 35 41 13 59 -21 18 -61
24 -75 10z"/>
<path d="M25833 19545 c-64 -18 -218 -94 -296 -147 -131 -89 -260 -233 -303
-338 -33 -81 -32 -124 4 -160 24 -24 40 -29 103 -35 83 -8 117 -1 273 54 92
33 186 79 186 91 0 20 -50 17 -114 -6 -39 -14 -105 -37 -146 -50 -41 -13 -89
-28 -106 -34 -124 -40 -174 36 -108 166 35 70 168 208 249 260 33 21 112 62
175 91 123 57 172 65 215 37 29 -19 45 -11 45 21 0 50 -88 75 -177 50z"/>
<path d="M28011 19501 c-19 -19 -41 -79 -41 -111 0 -8 -16 -49 -36 -92 -31
-64 -35 -80 -24 -93 20 -24 36 -18 68 23 34 43 102 206 102 245 0 16 -8 30
-19 37 -26 13 -28 13 -50 -9z"/>
<path d="M28361 19506 c-6 -8 -23 -58 -37 -113 -38 -147 -39 -155 -15 -177 20
-18 23 -19 54 -3 17 9 70 50 117 91 118 106 131 108 145 20 6 -43 -12 -98 -46
-145 -16 -21 -5 -49 19 -49 40 0 91 84 99 164 9 92 -57 178 -124 161 -14 -3
-57 -36 -96 -72 -77 -74 -87 -72 -67 11 15 64 11 95 -16 113 -18 12 -23 11
-33 -1z"/>
<path d="M26875 19364 c-160 -199 -176 -231 -139 -269 29 -29 56 -15 79 41 27
68 80 162 110 199 l25 30 -6 -82 -7 -82 36 -36 c23 -23 44 -35 63 -35 46 0
133 51 185 109 34 38 50 50 54 40 3 -8 -19 -88 -49 -179 -65 -198 -86 -251
-137 -353 -41 -81 -49 -117 -25 -117 36 0 80 82 176 330 29 74 81 206 117 294
70 172 73 201 26 212 -23 6 -32 1 -62 -37 -57 -73 -197 -205 -236 -223 -58
-28 -68 -18 -62 62 2 37 10 92 17 122 18 75 8 110 -28 110 -23 0 -44 -21 -137
-136z"/>
<path d="M26653 19443 c-112 -61 -286 -293 -268 -355 11 -34 35 -58 60 -58 26
0 35 17 35 68 0 40 33 114 78 174 26 36 129 128 143 128 14 0 19 33 8 46 -15
18 -18 18 -56 -3z"/>
<path d="M7182 19403 c-15 -29 -23 -196 -21 -429 1 -121 2 -285 3 -366 1 -103
5 -151 14 -159 30 -31 35 7 42 358 5 191 13 397 20 456 9 80 10 115 2 133 -13
28 -47 32 -60 7z"/>
<path d="M26055 19397 c-86 -26 -140 -71 -174 -147 -31 -67 -28 -125 7 -160
35 -34 91 -47 132 -30 29 12 110 92 142 140 l16 25 7 -30 c18 -71 82 -165 112
-165 17 0 17 44 -2 79 -8 16 -26 75 -40 132 -19 79 -32 111 -53 131 -32 33
-89 42 -147 25z m83 -74 c7 -67 -109 -219 -161 -211 -20 3 -22 9 -22 65 0 73
17 101 90 151 61 41 89 39 93 -5z"/>
<path d="M23400 19314 c-13 -34 -13 -131 1 -193 9 -43 8 -55 -7 -80 -21 -36
-13 -59 21 -63 24 -3 31 -14 65 -105 46 -123 46 -123 71 -123 34 0 33 30 -4
144 -21 61 -37 121 -37 133 0 30 39 58 118 84 37 12 73 26 80 32 17 13 15 44
-3 51 -19 7 -35 2 -122 -41 -39 -20 -79 -33 -87 -30 -13 5 -16 24 -16 96 0
110 -4 121 -41 121 -22 0 -32 -6 -39 -26z"/>
<path d="M5583 19180 c-21 -25 -34 -30 -69 -30 -71 0 -120 -26 -174 -92 -26
-33 -62 -90 -80 -126 -28 -58 -32 -74 -27 -123 10 -109 78 -213 164 -250 66
-29 172 -22 251 17 65 31 221 177 277 259 81 117 47 224 -102 320 -59 38 -110
55 -170 55 -35 0 -48 -6 -70 -30z m190 -65 c55 -31 116 -91 124 -123 15 -62
-20 -132 -119 -232 -113 -115 -227 -167 -331 -149 -85 14 -137 89 -137 198 0
80 26 135 96 207 50 51 106 76 133 60 5 -4 16 2 23 12 7 11 31 29 53 41 49 26
93 22 158 -14z"/>
<path d="M3569 19181 c-36 -9 -76 -26 -89 -38 -13 -13 -29 -23 -35 -23 -7 0
-32 -15 -56 -34 -24 -18 -63 -43 -86 -54 -32 -17 -47 -34 -68 -77 -25 -50 -27
-63 -23 -138 5 -85 33 -162 74 -199 83 -75 306 -62 449 25 237 144 314 266
237 373 -63 86 -170 153 -277 173 -32 6 -59 10 -59 10 -1 -1 -31 -9 -67 -18z
m179 -65 c107 -42 182 -118 182 -183 0 -87 -174 -229 -346 -283 -84 -26 -202
-29 -237 -5 -13 8 -34 36 -46 61 -42 83 -26 254 23 254 7 0 19 6 26 14 6 8 26
16 43 18 28 3 33 7 37 38 8 55 20 66 100 88 99 27 144 27 218 -2z"/>
<path d="M13430 19143 c-6 -108 -12 -470 -10 -593 1 -132 -2 -172 -14 -203
-12 -28 -14 -42 -6 -57 14 -27 25 -25 49 9 34 47 43 114 37 266 -4 91 -2 195
8 296 14 155 10 224 -14 269 -10 19 -50 29 -50 13z"/>
<path d="M10380 19133 c-144 -26 -295 -140 -334 -251 -35 -101 1 -239 76 -289
94 -63 206 -92 350 -93 105 0 184 20 303 76 173 83 225 250 118 382 -49 60
-101 84 -181 83 -61 -1 -66 1 -108 38 -36 31 -56 41 -97 46 -29 3 -63 7 -77 9
-14 2 -36 1 -50 -1z m174 -83 c36 -29 10 -62 -69 -85 -31 -10 -41 -18 -43 -37
-2 -16 3 -28 12 -31 18 -7 99 20 148 51 126 78 277 -1 278 -146 0 -49 -3 -56
-46 -102 -106 -113 -376 -171 -539 -114 -22 7 -49 14 -61 14 -35 0 -100 54
-118 99 -36 91 -12 185 66 259 84 80 171 114 280 109 43 -2 84 -9 92 -17z"/>
<path d="M6481 19059 c-6 -18 -8 -66 -5 -117 3 -48 2 -92 -3 -98 -5 -8 -26 -9
-61 -4 -43 5 -58 3 -75 -10 -19 -16 -20 -21 -9 -45 12 -27 13 -27 82 -20 67 7
69 6 74 -17 16 -86 22 -103 36 -103 11 0 16 13 18 45 5 98 0 94 112 87 106 -7
128 1 115 43 -7 22 -26 24 -138 20 -84 -3 -90 5 -81 112 5 73 4 92 -10 113
-22 34 -42 32 -55 -6z"/>
<path d="M23278 19043 c-9 -10 -23 -34 -33 -53 -24 -47 -133 -186 -187 -236
-123 -116 -165 -99 -155 62 7 99 -5 125 -46 107 -32 -15 -40 -53 -36 -168 4
-81 6 -88 32 -111 35 -30 103 -32 165 -4 100 45 323 330 310 397 -4 24 -31 28
-50 6z"/>
<path d="M4791 18923 c-6 -21 -11 -54 -11 -73 0 -48 -9 -58 -55 -62 -33 -2
-41 -7 -43 -27 -5 -30 12 -46 46 -46 27 0 30 -6 46 -85 3 -14 12 -34 20 -45
24 -31 37 -2 30 67 -10 86 -2 92 116 84 123 -9 186 10 146 43 -13 11 -51 13
-164 10 -29 -1 -59 4 -67 11 -17 14 -20 53 -5 81 13 24 -7 72 -32 77 -12 2
-20 -8 -27 -35z"/>
<path d="M22569 18921 c-49 -10 -115 -60 -156 -118 -18 -26 -46 -55 -61 -63
-34 -20 -82 -112 -82 -159 0 -106 116 -162 229 -111 24 11 76 53 117 94 57 57
83 93 115 159 38 80 40 88 29 122 -23 69 -90 95 -191 76z m101 -71 c11 -11 20
-32 20 -47 0 -42 -56 -131 -124 -198 -107 -105 -169 -121 -203 -50 -20 43 -9
89 22 91 11 1 26 2 33 3 6 1 12 12 12 25 0 57 37 110 114 167 47 35 97 38 126
9z"/>
<path d="M26113 18858 c-11 -13 -60 -81 -108 -153 -49 -71 -107 -155 -130
-185 -22 -30 -114 -165 -204 -300 -163 -245 -163 -245 -200 -245 l-36 0 -3 57
c-2 36 7 98 23 170 37 157 41 200 21 217 -22 19 -64 0 -71 -31 -21 -92 -56
-299 -60 -349 -2 -34 -5 -63 -7 -65 -3 -2 -114 -6 -249 -8 -246 -5 -584 -26
-759 -47 -100 -12 -130 -27 -130 -63 0 -12 -12 -62 -26 -111 -14 -50 -35 -137
-45 -195 -25 -133 -43 -489 -41 -770 2 -210 -3 -281 -33 -445 -8 -44 -21 -156
-29 -250 -42 -471 -42 -511 -6 -800 23 -179 29 -276 35 -535 3 -107 7 -215 10
-240 2 -25 4 -160 4 -300 -4 -836 -1 -1024 16 -1145 34 -235 14 -590 -50 -869
-39 -173 -41 -192 -20 -242 24 -57 54 -64 308 -70 122 -2 274 -7 337 -9 436
-17 436 -17 410 -1 -17 9 -68 16 -145 20 -231 11 -321 17 -405 27 -47 5 -160
9 -251 9 -148 0 -168 2 -182 18 -24 27 -21 107 8 237 32 139 52 290 67 505 10
151 9 184 -8 322 -14 116 -19 217 -19 418 l0 265 40 5 c22 3 47 3 55 -1 13 -5
1734 -23 1920 -19 72 1 93 12 69 36 -14 13 -130 15 -975 20 -580 3 -979 1
-1009 -5 -27 -5 -62 -7 -77 -4 l-27 5 2 402 c2 498 -9 853 -34 1106 -28 271
-33 434 -20 580 33 375 42 456 63 570 18 103 22 165 23 355 1 268 20 621 40
750 13 85 78 342 89 353 3 3 40 6 83 8 43 1 191 9 328 18 525 32 845 36 1045
11 200 -24 474 -19 753 15 42 5 84 7 92 3 27 -10 37 -43 43 -146 5 -96 4 -100
-14 -92 -10 4 -30 8 -44 9 -34 1 -37 -27 -10 -77 31 -54 36 -142 16 -258 -8
-52 -20 -143 -26 -204 -6 -60 -17 -148 -25 -195 -21 -117 -53 -414 -65 -595
-10 -144 -28 -290 -50 -406 -21 -107 -39 -238 -45 -330 -4 -52 -11 -116 -16
-144 -5 -27 -11 -93 -14 -145 -21 -377 -42 -600 -66 -691 -5 -20 -11 -87 -14
-149 -3 -62 -8 -117 -11 -122 -10 -15 -4 -489 6 -507 5 -10 10 -61 11 -114 1
-53 5 -97 9 -97 13 0 28 292 25 474 -5 204 8 373 49 651 13 88 29 234 35 325
23 328 55 604 96 825 28 151 45 272 55 396 14 167 39 409 51 489 5 36 18 119
29 185 10 66 22 156 25 200 4 44 15 125 27 180 18 89 18 108 7 168 -12 65 -11
68 9 82 33 24 45 78 38 164 -11 115 -25 169 -49 186 -30 21 -244 20 -407 -1
-117 -16 -574 -23 -587 -10 -3 2 -2 14 2 25 4 14 41 39 112 74 128 63 216 136
211 176 -5 42 -33 37 -90 -16 -87 -80 -249 -193 -278 -193 -24 0 -5 37 68 138
43 59 114 159 157 222 43 63 104 149 135 190 172 229 192 260 186 285 -8 32
-45 33 -73 3z"/>
<path d="M23109 18417 c-42 -32 -47 -85 -29 -267 6 -56 8 -105 5 -109 -4 -3
-17 6 -28 20 -58 70 -156 64 -201 -11 -22 -38 -20 -66 5 -84 30 -21 42 -12 67
45 26 61 35 59 106 -30 27 -34 54 -61 61 -61 30 0 119 67 139 105 11 22 38 70
58 107 41 72 48 115 21 125 -21 8 -41 -17 -99 -123 -25 -46 -48 -84 -51 -84
-3 0 -3 78 -2 174 3 135 1 177 -10 190 -16 19 -21 19 -42 3z"/>
<path d="M3680 18295 c-14 -8 -36 -19 -50 -25 -57 -24 -75 -37 -122 -90 -106
-118 -168 -258 -168 -381 0 -55 5 -72 29 -111 51 -80 126 -114 232 -105 173
16 255 57 397 198 112 111 146 164 146 228 -1 91 -63 172 -183 235 -120 63
-227 82 -281 51z m181 -64 c116 -44 199 -120 213 -195 10 -53 -26 -119 -114
-206 -81 -81 -101 -98 -140 -118 -14 -7 -37 -20 -52 -28 -34 -18 -149 -44
-200 -44 -21 0 -55 7 -76 15 -72 29 -107 135 -78 236 33 114 118 249 157 249
39 0 59 19 59 55 0 27 6 38 28 50 36 21 129 14 203 -14z"/>
<path d="M6473 18252 c-20 -14 -21 -42 -7 -138 7 -55 14 -123 14 -152 l0 -52
-72 6 c-40 4 -100 8 -133 8 -57 1 -60 0 -63 -24 -4 -36 20 -63 54 -63 16 1 57
5 92 10 34 6 79 7 100 4 36 -6 37 -8 42 -54 10 -83 49 -89 50 -7 0 55 12 64
82 67 35 2 69 5 76 8 16 6 15 26 -1 49 -11 15 -20 16 -77 7 -43 -7 -68 -7 -74
-1 -6 6 -11 69 -13 140 -1 92 -6 137 -17 158 -16 31 -37 44 -53 34z"/>
<path d="M5691 18209 c-31 -89 9 -355 67 -446 34 -54 42 21 16 152 -11 59 -14
108 -9 188 7 117 1 137 -40 137 -17 0 -26 -9 -34 -31z"/>
<path d="M10304 18165 c-55 -13 -118 -31 -140 -40 -69 -29 -168 -103 -209
-156 -37 -49 -40 -57 -40 -120 0 -78 15 -100 92 -139 40 -20 67 -24 174 -28
110 -4 136 -2 200 18 41 12 90 26 109 32 81 23 140 60 165 103 79 134 -39 336
-203 350 -28 2 -89 -6 -148 -20z m222 -83 c67 -34 106 -151 70 -207 -49 -74
-214 -127 -398 -127 -103 -1 -123 2 -165 23 -45 23 -48 27 -51 68 -6 79 61
150 205 217 52 25 79 32 101 28 21 -4 38 -1 54 11 31 22 129 15 184 -13z"/>
<path d="M7228 18148 c-46 -12 -118 -81 -118 -114 0 -35 21 -41 45 -11 20 26
55 37 55 18 0 -5 -15 -30 -34 -54 -45 -60 -62 -93 -69 -142 -17 -109 66 -207
168 -199 98 7 155 46 249 168 85 111 90 179 18 258 -70 77 -195 108 -314 76z
m223 -84 c95 -59 101 -115 23 -214 -84 -107 -162 -150 -238 -129 -114 31 -79
179 77 321 68 63 73 63 138 22z"/>
<path d="M13520 18110 c-6 -10 -19 -101 -29 -202 -33 -310 -33 -321 -17 -343
29 -39 44 -2 66 172 11 90 25 186 30 214 16 83 13 143 -8 162 -24 22 -29 21
-42 -3z"/>
<path d="M28540 18056 c-194 -44 -459 -286 -587 -534 -47 -92 -48 -96 -48
-186 0 -86 2 -96 29 -134 73 -105 245 -139 421 -83 96 30 115 42 115 67 0 13
-4 25 -8 28 -4 2 -41 -7 -82 -20 -88 -30 -225 -42 -287 -25 -118 32 -146 186
-63 353 92 185 303 390 463 449 69 26 155 27 191 4 24 -16 29 -17 43 -3 19 20
10 53 -20 72 -33 21 -105 27 -167 12z"/>
<path d="M23640 17929 c-167 -43 -595 -97 -780 -99 -93 -1 -291 -19 -575 -51
-49 -5 -135 -15 -190 -20 -68 -8 -104 -16 -112 -26 -9 -11 -12 -69 -12 -192 0
-97 -5 -194 -11 -216 -19 -76 -34 -597 -17 -614 6 -6 16 -26 22 -43 9 -30 14
-33 50 -32 22 0 76 8 120 18 88 20 194 38 355 60 58 8 137 20 175 25 310 47
489 61 740 60 145 0 202 3 240 15 28 9 62 16 78 16 20 0 32 8 47 32 16 26 19
51 19 150 0 65 2 121 4 126 22 36 39 545 22 667 -15 107 -36 146 -79 144 -12
-1 -55 -10 -96 -20z m87 -96 c15 -56 7 -542 -10 -657 -10 -60 -17 -149 -17
-197 0 -48 -3 -94 -6 -103 -5 -14 -30 -16 -175 -16 -159 0 -169 1 -169 19 0
10 -6 24 -14 31 -12 9 -21 7 -45 -11 -32 -23 -42 -23 -177 0 -121 21 -268 17
-414 -13 -74 -14 -159 -31 -189 -37 -46 -9 -55 -15 -65 -40 -12 -33 -19 -36
-131 -43 -44 -3 -105 -12 -135 -21 -102 -28 -162 -37 -173 -26 -7 7 -7 36 1
93 7 46 14 164 17 263 2 99 11 218 20 265 8 47 15 140 15 207 0 152 1 153 110
153 43 0 138 7 212 15 377 41 523 54 532 45 6 -6 5 -24 -2 -48 -7 -22 -12 -73
-12 -113 0 -41 -7 -155 -15 -254 -8 -99 -15 -207 -15 -240 0 -33 -4 -76 -10
-95 -8 -26 -7 -38 4 -48 12 -12 19 -8 45 28 17 23 33 56 35 74 11 69 29 578
23 640 l-6 65 32 5 c18 3 118 10 222 15 195 11 336 30 415 55 70 23 88 20 97
-11z m-787 -992 c0 -5 -8 -12 -17 -16 -24 -9 -210 -19 -202 -11 23 25 219 50
219 27z"/>
<path d="M4812 17898 c-5 -7 -13 -23 -16 -35 -8 -25 -53 -43 -106 -43 -95 0
-135 -28 -109 -76 16 -31 37 -30 105 2 29 14 66 24 81 22 27 -3 28 -6 39 -81
11 -82 29 -127 50 -127 22 0 27 46 14 131 -8 59 -8 84 0 94 6 7 42 16 83 19
143 13 149 15 145 44 -3 30 -2 30 -130 17 -76 -8 -78 -7 -99 19 -22 28 -41 33
-57 14z"/>
<path d="M29755 17811 c-16 -4 -66 -25 -110 -46 -147 -71 -271 -221 -311 -375
-18 -70 -13 -118 17 -166 22 -37 51 -47 76 -29 16 12 17 16 3 47 -8 19 -15 63
-15 103 0 58 6 82 32 138 58 123 169 211 333 267 60 20 75 29 75 45 0 16 -7
20 -35 22 -19 1 -48 -2 -65 -6z"/>
<path d="M30209 17782 c-13 -11 -39 -27 -57 -36 -89 -46 -232 -225 -321 -403
-53 -107 -54 -159 0 -151 25 3 30 11 80 133 70 172 196 328 319 395 46 25 65
41 65 55 0 28 -53 32 -86 7z"/>
<path d="M30868 17739 c-9 -5 -24 -31 -33 -59 -42 -127 -312 -290 -427 -259
-30 8 -38 15 -38 33 0 13 7 26 15 30 36 14 35 86 -1 86 -26 0 -70 -37 -88 -74
-34 -73 38 -146 144 -146 86 0 150 24 255 96 108 74 106 76 75 -61 -11 -49
-36 -164 -56 -255 -73 -335 -145 -524 -227 -596 -52 -46 -59 -64 -24 -64 31 0
80 32 111 72 30 40 94 176 124 263 27 79 97 354 122 480 22 113 53 232 81 319
10 33 19 71 19 86 0 35 -29 62 -52 49z"/>
<path d="M25059 17725 c-150 -38 -307 -174 -358 -310 -36 -96 -25 -160 36
-216 38 -36 76 -54 180 -85 268 -79 614 15 697 191 25 52 24 139 -1 196 -37
82 -103 131 -198 144 -27 4 -59 15 -70 25 -67 60 -181 82 -286 55z m151 -71
c0 -8 -8 -17 -17 -21 -29 -10 -53 -35 -53 -55 0 -22 16 -23 61 -4 19 8 50 16
69 18 31 3 37 0 49 -29 18 -41 36 -42 56 -2 13 24 20 29 38 23 27 -8 67 -29
87 -46 54 -45 76 -155 43 -218 -25 -48 -109 -102 -212 -136 -76 -26 -100 -29
-206 -29 -97 1 -135 5 -195 24 -87 27 -155 64 -170 91 -26 49 2 144 65 222 38
45 130 113 193 142 96 43 192 53 192 20z"/>
<path d="M28842 17670 c-135 -48 -272 -208 -246 -286 22 -69 56 -94 127 -94
86 0 198 84 251 188 10 19 19 32 21 30 1 -1 31 -57 64 -124 64 -126 108 -181
135 -171 20 8 21 45 2 66 -22 24 -125 229 -136 270 -5 20 -23 60 -40 89 -30
51 -31 52 -78 51 -26 0 -71 -9 -100 -19z m98 -65 c0 -13 -9 -49 -20 -78 -37
-99 -179 -205 -225 -167 -21 18 -19 88 4 126 20 33 123 118 163 133 13 6 35
10 51 10 22 1 27 -3 27 -24z"/>
<path d="M5768 17483 c-28 -30 -37 -100 -38 -265 0 -194 22 -318 56 -318 17 0
16 -20 17 245 2 196 4 224 21 258 15 29 18 43 10 65 -11 33 -44 40 -66 15z"/>
<path d="M7285 17397 c-19 -30 -34 -175 -36 -353 0 -78 -5 -179 -10 -225 -11
-96 -6 -132 18 -127 29 5 46 126 69 478 3 52 12 113 20 135 19 54 18 79 -4 98
-25 23 -39 21 -57 -6z"/>
<path d="M6695 17356 c-13 -9 -20 -31 -24 -82 -6 -69 -6 -69 -36 -68 -16 0
-69 7 -117 14 -102 16 -138 7 -138 -34 0 -39 27 -59 69 -52 20 4 73 9 117 13
77 5 82 5 88 -15 4 -11 2 -50 -4 -85 -9 -48 -9 -71 -1 -86 30 -54 58 5 81 167
1 6 59 1 90 -8 23 -7 38 -6 44 0 18 18 -7 42 -60 58 -27 8 -52 19 -55 24 -4 6
-4 38 -2 72 5 51 2 64 -14 78 -17 15 -22 16 -38 4z"/>
<path d="M10171 17329 c-6 -13 -17 -73 -26 -134 -8 -60 -24 -173 -36 -250 -23
-157 -22 -256 3 -282 14 -13 20 -14 32 -3 12 9 16 32 16 88 0 72 18 198 60
419 21 109 18 134 -19 167 -20 18 -20 18 -30 -5z"/>
<path d="M4953 17275 c-3 -9 -3 -37 1 -63 3 -26 9 -70 12 -98 l6 -51 -32 -7
c-18 -3 -56 -6 -84 -6 -73 0 -95 -9 -103 -38 -4 -19 -1 -30 15 -43 24 -19 34
-18 130 13 73 23 78 21 101 -49 24 -71 45 -64 51 17 l5 65 123 3 c111 2 122 4
122 21 0 38 -23 43 -143 36 l-114 -7 -6 47 c-4 26 -7 63 -7 82 0 35 -15 73
-34 85 -18 12 -36 9 -43 -7z"/>
<path d="M13198 17215 c-140 -34 -275 -130 -324 -231 -51 -104 -32 -222 47
-288 81 -68 210 -116 330 -123 306 -17 534 125 532 331 -1 146 -91 236 -278
277 -44 10 -105 25 -135 33 -66 19 -97 19 -172 1z m211 -101 c26 -16 35 -17
52 -6 16 10 28 11 57 1 103 -33 169 -82 191 -142 16 -41 13 -114 -5 -153 -40
-85 -181 -156 -345 -176 -74 -8 -101 -7 -166 7 -78 17 -174 59 -222 97 -127
99 -47 280 164 372 54 24 70 26 151 23 66 -3 100 -9 123 -23z"/>
<path d="M3502 17164 c-90 -40 -179 -114 -221 -184 -58 -97 12 -279 132 -342
35 -19 59 -22 147 -22 87 -1 116 3 169 24 115 43 249 148 306 239 52 83 21
171 -86 247 -70 49 -110 58 -261 59 -120 1 -142 -2 -186 -21z m346 -41 c18 -8
58 -37 88 -66 68 -66 71 -97 19 -175 -20 -28 -39 -52 -43 -52 -4 -1 -29 -21
-56 -45 -32 -29 -78 -56 -130 -77 -71 -28 -93 -33 -171 -32 -106 0 -142 14
-181 73 -40 61 -56 125 -43 178 9 44 64 133 81 133 4 0 17 9 29 21 35 35 56 8
34 -43 -10 -26 17 -23 41 3 33 38 96 79 121 79 16 0 33 -13 55 -45 32 -45 61
-58 72 -30 3 8 1 27 -4 41 -6 14 -10 34 -10 44 0 17 5 19 33 13 17 -3 47 -12
65 -20z"/>
<path d="M24492 17023 c-45 -9 -64 -82 -25 -97 8 -3 37 1 64 10 43 14 68 15
216 4 93 -7 218 -15 278 -19 149 -9 456 -8 477 2 23 12 30 35 17 59 -9 16 -16
19 -42 13 -60 -14 -419 -13 -562 1 -316 31 -378 35 -423 27z"/>
<path d="M23205 16674 c-101 -11 -278 -47 -356 -73 -156 -52 -195 -83 -169
-131 16 -29 46 -25 93 15 84 72 286 123 555 139 67 4 139 -11 146 -31 14 -36
-63 -117 -270 -289 -194 -160 -246 -215 -242 -257 6 -55 39 -68 200 -79 220
-13 414 -56 456 -101 36 -38 29 -77 -26 -149 -55 -72 -138 -132 -259 -189
-104 -49 -190 -71 -243 -63 -38 6 -40 5 -40 -18 0 -36 31 -60 66 -53 65 15
229 77 299 113 203 105 332 267 292 364 -31 74 -241 142 -492 158 -173 11
-196 21 -154 66 13 15 67 61 119 102 126 101 305 257 330 289 28 36 42 95 31
126 -7 18 -24 30 -58 41 -49 16 -206 27 -278 20z"/>
<path d="M24863 16630 c-56 -5 -146 -18 -200 -29 -340 -70 -465 -107 -478
-139 -16 -41 11 -38 365 48 156 38 284 54 435 54 188 1 205 -3 205 -49 0 -36
-17 -61 -179 -265 -85 -106 -76 -97 -272 -314 -329 -363 -341 -378 -316 -403
8 -9 20 -12 26 -9 6 4 46 50 90 101 43 52 131 150 194 217 203 217 419 474
501 599 45 69 47 120 6 150 -48 35 -212 52 -377 39z"/>
<path d="M28540 16623 c-45 -19 -117 -89 -186 -180 -166 -218 -394 -764 -355
-849 13 -29 51 -32 74 -6 10 11 17 36 17 58 0 54 21 137 74 293 45 131 61 165
75 156 4 -2 42 7 85 21 73 23 195 48 314 63 51 7 54 6 63 -17 5 -13 9 -32 9
-42 0 -38 41 -258 60 -320 11 -39 30 -76 45 -90 26 -24 27 -25 41 -6 18 26 18
31 -6 94 -22 58 -74 356 -66 378 3 7 26 19 51 25 56 14 54 30 -5 35 -25 3 -50
10 -57 17 -6 6 -14 41 -16 77 -21 262 -86 350 -217 293z m87 -75 c17 -14 29
-61 48 -187 11 -73 12 -108 5 -115 -6 -6 -59 -13 -118 -17 -96 -6 -216 -26
-264 -44 -23 -9 -24 24 -2 67 24 46 141 207 183 252 57 60 108 76 148 44z"/>
<path d="M5346 16193 c-1 -1 -66 -4 -144 -6 -79 -3 -146 -8 -149 -11 -4 -3
-11 -2 -17 3 -6 5 -63 5 -126 1 -63 -4 -119 -4 -124 0 -4 5 -20 5 -35 0 -14
-4 -84 -7 -154 -8 -80 0 -133 -4 -141 -12 -9 -7 -17 -7 -20 -1 -3 5 -48 8
-104 6 -281 -11 -445 -17 -512 -21 -41 -3 -120 -7 -175 -9 -55 -2 -154 -9
-220 -14 -66 -6 -169 -13 -230 -15 -232 -11 -293 -15 -385 -26 -52 -6 -102
-14 -110 -17 -8 -3 -33 -5 -55 -4 -22 1 -49 3 -60 3 -45 1 -465 -27 -710 -48
-99 -9 -215 -17 -259 -19 -85 -4 -99 -11 -94 -46 4 -29 11 -29 198 -5 74 9
176 19 225 22 50 2 124 9 165 14 41 5 131 14 200 20 69 6 141 14 160 18 41 7
76 11 150 16 30 2 91 7 135 11 44 4 123 8 175 10 52 2 129 6 170 9 85 6 254
16 380 21 47 2 87 5 90 6 6 2 56 4 325 13 211 7 421 16 475 21 19 2 121 6 225
9 105 3 244 8 310 12 66 3 147 5 180 3 33 -1 69 -2 80 -2 11 1 95 3 187 6 91
3 176 8 188 12 11 4 27 1 35 -5 8 -6 18 -9 23 -6 5 3 60 5 123 5 215 1 275 3
285 13 10 11 -55 20 -126 18 -39 -1 -80 -1 -92 -1 -70 3 -440 6 -442 4z"/>
<path d="M6094 16189 c-3 -6 -19 -9 -35 -5 -21 4 -29 2 -29 -9 0 -18 76 -30
110 -17 14 5 36 5 50 1 46 -13 117 -10 130 6 15 18 21 16 -102 20 -54 2 -102
6 -107 9 -5 4 -13 1 -17 -5z"/>
<path d="M6365 16180 c-65 -12 12 -23 175 -26 91 -1 185 -3 210 -4 25 0 76 -1
114 -1 39 0 73 -2 76 -4 12 -8 218 -7 230 0 28 17 -14 26 -116 26 -154 0 -148
0 -269 5 -60 2 -121 5 -135 5 -14 1 -34 1 -45 0 -11 0 -63 1 -115 2 -52 1
-108 0 -125 -3z"/>
<path d="M7222 16163 c-20 -3 -32 -9 -29 -16 5 -17 259 -15 265 1 2 8 -8 12
-30 11 -18 0 -64 1 -103 4 -38 2 -85 2 -103 0z"/>
<path d="M7546 16154 c-4 -9 -5 -19 -2 -21 2 -2 109 -6 237 -8 129 -2 234 -5
234 -5 0 -1 68 -3 150 -4 83 -2 161 -6 175 -10 24 -7 72 16 59 28 -8 8 -300
18 -576 20 -127 0 -235 4 -239 9 -13 12 -32 8 -38 -9z"/>
<path d="M8706 16122 c-14 -23 36 -30 232 -36 112 -3 207 -8 211 -11 5 -2 102
-7 217 -10 115 -4 236 -8 269 -11 88 -6 335 -17 445 -20 52 -1 102 -5 110 -7
8 -3 77 -8 153 -11 76 -3 162 -8 190 -11 29 -2 102 -7 162 -10 61 -2 148 -7
195 -10 47 -3 270 -15 495 -26 226 -11 442 -22 480 -25 192 -11 242 -14 390
-24 88 -6 216 -15 285 -21 69 -5 177 -14 240 -19 63 -5 169 -16 235 -24 66 -9
163 -20 215 -26 149 -18 303 -42 330 -52 13 -5 56 -15 95 -23 80 -16 173 -37
260 -59 87 -22 107 -21 103 6 -4 29 -38 45 -130 63 -40 8 -113 24 -163 35 -49
11 -117 25 -150 30 -33 5 -105 16 -160 25 -213 34 -284 44 -410 55 -71 7 -137
12 -145 12 -8 0 -40 4 -70 9 -30 5 -140 14 -245 19 -104 6 -251 14 -325 20
-74 5 -182 12 -240 15 -58 4 -123 8 -145 10 -37 4 -109 7 -450 21 -182 7 -311
13 -410 20 -135 9 -235 13 -362 14 -68 1 -125 6 -129 11 -3 5 -9 7 -13 5 -15
-10 -221 -5 -416 8 -154 11 -204 14 -430 25 -121 6 -254 13 -296 17 -42 3
-127 7 -190 9 -63 3 -184 7 -270 11 -107 4 -158 3 -163 -4z"/>
<path d="M5769 16001 c-133 -28 -294 -177 -306 -284 -10 -82 67 -196 162 -241
84 -39 173 -34 285 19 68 31 78 37 167 103 126 94 139 140 68 248 -25 37 -45
72 -45 76 0 5 -35 24 -77 44 -83 38 -179 51 -254 35z m121 -63 c0 -22 33 -48
61 -48 41 0 73 -15 118 -55 83 -75 63 -128 -86 -228 -111 -75 -248 -108 -328
-77 -67 25 -115 99 -115 177 0 93 94 184 235 229 52 16 115 18 115 2z"/>
<path d="M6602 15945 c-7 -14 -12 -41 -12 -60 0 -59 -6 -65 -70 -65 -65 0 -86
-15 -76 -54 8 -32 27 -38 87 -24 59 14 69 6 69 -52 0 -59 19 -112 38 -108 14
3 17 18 20 91 1 48 6 88 10 88 4 1 40 2 81 3 57 1 77 5 85 18 7 12 6 21 -4 33
-11 13 -28 16 -82 13 -79 -3 -88 4 -81 62 4 29 1 42 -16 59 -27 27 -35 27 -49
-4z"/>
<path d="M7380 15955 c-6 -8 -10 -22 -8 -32 3 -14 12 -18 38 -16 53 3 180 -25
211 -48 42 -30 69 -68 69 -100 0 -60 -186 -187 -385 -265 -49 -18 -91 -27
-137 -28 -61 -1 -70 2 -94 26 -51 51 -43 162 19 254 25 38 48 57 100 83 57 30
71 33 87 23 27 -17 67 -15 74 3 8 23 -4 44 -35 60 -46 24 -85 18 -157 -24
-132 -77 -185 -161 -186 -291 -1 -139 69 -205 209 -201 76 2 118 17 270 91
266 131 344 224 285 340 -30 58 -98 106 -180 124 -88 20 -164 21 -180 1z"/>
<path d="M3640 15921 c-15 -28 -13 -42 10 -66 16 -17 24 -49 35 -126 61 -451
60 -448 86 -422 17 17 14 106 -10 328 -25 231 -33 269 -64 290 -29 20 -44 19
-57 -4z"/>
<path d="M4768 15858 c-1 -7 -2 -49 -2 -93 l-1 -80 -75 0 c-71 0 -75 -1 -78
-23 -7 -45 15 -55 100 -48 l77 6 16 -57 c23 -83 34 -105 48 -100 8 3 11 27 10
78 -2 48 2 76 10 81 7 5 53 6 102 2 77 -5 93 -4 105 10 11 15 11 19 -4 34 -14
14 -36 17 -124 17 l-107 0 -6 72 c-4 50 -11 78 -24 93 -20 22 -44 26 -47 8z"/>
<path d="M9947 15840 c-160 -27 -227 -147 -158 -286 65 -132 287 -212 513
-184 170 20 288 90 288 169 -1 72 -96 194 -179 230 -27 11 -86 25 -132 30 -46
6 -109 19 -139 31 -57 21 -110 23 -193 10z m117 -46 c22 -8 20 -31 -3 -39 -22
-7 -81 -70 -81 -86 0 -26 34 -19 68 13 49 47 75 59 127 61 35 2 49 -3 72 -25
37 -36 74 -40 88 -10 5 12 16 22 23 22 23 0 93 -63 118 -106 24 -40 34 -110
20 -132 -17 -29 -91 -51 -199 -62 -264 -25 -457 74 -457 235 0 82 62 130 172
134 20 0 43 -2 52 -5z"/>
<path d="M13387 15723 c-4 -3 -7 -61 -7 -127 0 -69 -7 -165 -17 -223 -18 -110
-14 -131 26 -118 15 5 27 26 43 78 31 97 34 326 5 370 -17 26 -37 34 -50 20z"/>
<path d="M5847 15216 c-132 -47 -230 -168 -257 -316 -19 -107 2 -195 68 -278
62 -78 131 -97 244 -67 73 19 114 47 220 152 166 164 200 300 105 425 -44 58
-94 82 -173 80 -34 0 -72 -6 -84 -12 -17 -9 -25 -7 -47 9 -30 24 -27 24 -76 7z
m256 -70 c49 -18 75 -42 93 -85 37 -89 -6 -194 -130 -317 -99 -98 -163 -134
-240 -135 -98 -3 -149 49 -166 168 -16 116 21 225 106 311 58 58 84 66 84 27
0 -31 25 -43 48 -22 29 26 116 66 142 66 14 0 42 -6 63 -13z"/>
<path d="M7346 15161 c-63 -69 -29 -695 35 -655 5 3 8 101 7 222 -2 149 1 248
11 314 14 92 13 99 -4 118 -22 25 -28 25 -49 1z"/>
<path d="M6693 15158 c-4 -7 -8 -62 -8 -123 l0 -110 -95 0 -95 0 -3 -31 c-5
-47 14 -56 93 -45 92 13 95 11 95 -63 0 -40 5 -69 15 -82 15 -19 15 -19 30 0
8 11 15 38 15 60 0 23 3 51 6 64 6 21 10 22 68 15 33 -4 86 -7 116 -7 45 -1
55 2 58 17 8 38 -15 47 -119 47 -89 0 -99 2 -109 21 -7 11 -9 37 -5 58 11 66
8 160 -5 176 -15 18 -46 20 -57 3z"/>
<path d="M4983 15138 c-21 -27 -22 -51 -7 -139 17 -99 13 -113 -31 -104 -75
15 -94 15 -109 0 -8 -9 -12 -23 -9 -33 14 -39 23 -42 108 -36 l82 7 17 -51
c32 -95 69 -96 59 -1 l-6 61 114 -7 c100 -7 116 -5 128 9 12 14 11 19 -3 35
-15 17 -29 18 -136 14 -141 -5 -140 -6 -140 109 0 98 -37 174 -67 136z"/>
<path d="M28335 15091 c-120 -29 -231 -156 -274 -311 -43 -157 -54 -416 -25
-571 18 -98 35 -129 69 -129 33 0 41 36 21 97 -51 158 -47 469 9 623 50 139
156 230 269 230 60 0 86 -31 86 -105 0 -65 -34 -136 -125 -258 -42 -56 -65
-96 -63 -109 4 -28 47 -58 94 -68 459 -93 517 -108 535 -141 16 -31 0 -65 -60
-123 -70 -66 -158 -124 -271 -178 -121 -57 -193 -79 -287 -85 -101 -7 -152 9
-208 67 -39 40 -59 48 -70 30 -13 -22 48 -100 100 -128 117 -62 295 -40 511
62 192 91 374 248 374 323 0 37 -27 81 -61 99 -53 27 -186 63 -368 99 -160 32
-201 45 -201 65 0 4 26 41 58 82 112 145 150 273 105 350 -37 65 -133 99 -218
79z"/>
<path d="M13180 15070 c-124 -14 -250 -83 -284 -155 -13 -28 -17 -55 -14 -104
7 -124 68 -174 318 -260 56 -19 199 -41 273 -41 132 0 250 55 297 140 35 64
36 170 1 219 -40 56 -112 95 -213 116 -14 3 -39 16 -55 29 -60 51 -183 72
-323 56z m47 -75 c12 -9 53 -17 94 -20 136 -9 189 -27 189 -64 0 -22 25 -45
40 -36 5 3 10 15 10 25 0 31 18 33 69 5 76 -42 116 -88 115 -133 -2 -64 -64
-156 -128 -189 -43 -23 -239 -21 -322 2 -275 78 -364 151 -340 279 13 66 56
101 166 132 61 17 82 17 107 -1z"/>
<path d="M10063 15044 c-14 -37 10 -441 32 -541 8 -36 41 -29 54 10 14 42 -21
511 -40 533 -15 19 -38 18 -46 -2z"/>
<path d="M24450 15043 c-30 -3 -60 -9 -67 -15 -18 -15 -16 -42 5 -62 17 -14
23 -15 53 -2 39 16 363 32 428 21 63 -11 57 -40 -23 -98 -85 -63 -154 -140
-162 -182 -16 -89 7 -103 383 -226 177 -58 217 -81 221 -125 3 -28 -3 -35 -46
-63 -111 -71 -320 -152 -549 -211 -86 -23 -119 -44 -92 -61 21 -13 54 -11 149
10 184 41 296 79 444 152 160 79 205 143 154 219 -33 48 -95 79 -298 145 -227
73 -284 101 -288 138 -5 41 35 88 139 164 56 41 91 74 95 89 9 35 -19 71 -63
83 -101 27 -298 36 -483 24z"/>
<path d="M3772 15018 c-5 -7 -16 -32 -23 -55 -10 -36 -10 -49 4 -80 8 -21 25
-81 38 -133 23 -100 43 -150 60 -150 20 0 21 33 5 113 -10 45 -21 128 -26 185
-9 116 -28 156 -58 120z"/>
<path d="M23450 14946 c-125 -46 -248 -112 -280 -151 -17 -20 -8 -59 14 -63
11 -2 33 10 55 30 56 53 88 72 195 113 130 50 184 47 206 -11 24 -63 -63 -189
-316 -454 -225 -236 -249 -274 -204 -315 35 -31 121 -15 387 74 133 45 250 81
260 81 36 0 137 36 147 53 33 52 -50 43 -312 -37 -84 -26 -187 -60 -228 -77
-89 -36 -174 -49 -174 -28 0 24 32 64 167 205 72 77 146 157 165 179 18 23 43
52 56 65 13 14 46 58 73 98 42 63 49 81 49 121 0 54 -23 92 -70 116 -36 18
-142 19 -190 1z"/>
<path d="M21845 14753 c-11 -32 -19 -95 -22 -185 -4 -83 -10 -141 -17 -146 -6
-5 -81 -26 -166 -46 -85 -21 -161 -43 -167 -48 -20 -16 -15 -45 10 -68 26 -25
59 -23 128 8 126 58 183 82 195 82 14 0 20 -49 29 -250 4 -87 11 -132 22 -149
31 -48 38 -11 38 211 l0 211 50 17 c28 10 127 32 220 49 234 43 266 51 272 68
13 33 -14 38 -115 20 -221 -39 -300 -55 -345 -71 -95 -32 -102 -22 -80 110 32
199 30 234 -11 234 -20 0 -27 -9 -41 -47z"/>
<path d="M3870 14275 c-23 -27 -16 -184 24 -530 18 -148 28 -189 49 -182 19 6
20 141 3 317 -8 85 -18 206 -22 267 -5 87 -11 116 -24 128 -15 14 -18 14 -30
0z"/>
<path d="M5200 14204 c-6 -14 -10 -46 -11 -72 -2 -94 -4 -96 -99 -102 -79 -5
-85 -7 -88 -28 -7 -44 14 -54 95 -47 l73 7 0 -65 c0 -46 4 -68 15 -77 23 -19
35 -2 42 61 10 91 12 93 112 85 47 -3 114 -9 148 -12 53 -5 64 -4 69 11 9 22
-16 46 -53 52 -15 3 -73 7 -128 9 -55 2 -106 7 -112 9 -16 6 -16 42 -1 99 9
34 9 51 0 70 -15 34 -49 34 -62 0z"/>
<path d="M5957 14224 c-37 -37 72 -555 120 -571 25 -9 22 19 -32 317 -8 47
-15 112 -15 145 0 33 -6 71 -13 85 -12 24 -46 38 -60 24z"/>
<path d="M10165 14088 c-36 -126 -44 -307 -21 -484 17 -128 23 -146 45 -142
13 3 16 16 15 68 -6 373 -4 429 12 493 19 76 13 117 -16 117 -15 0 -23 -12
-35 -52z"/>
<path d="M6821 14111 c-24 -24 -37 -71 -46 -164 -4 -43 -12 -70 -20 -73 -8 -3
-64 4 -126 16 -132 25 -159 22 -159 -19 0 -16 6 -34 13 -40 8 -6 69 -13 137
-16 67 -3 126 -8 131 -11 5 -3 9 -25 9 -49 0 -52 8 -75 25 -75 19 0 26 14 33
68 l7 47 73 3 c63 3 72 5 72 22 0 25 -16 34 -75 40 l-50 5 -3 41 c-2 24 5 63
17 95 27 69 27 105 1 119 -15 8 -24 6 -39 -9z"/>
<path d="M13145 14105 c-81 -20 -207 -78 -266 -122 -99 -73 -148 -159 -149
-259 0 -51 5 -68 31 -107 42 -64 80 -94 174 -137 103 -48 193 -65 304 -56 168
13 299 63 379 144 131 135 150 352 36 420 -145 86 -183 107 -214 119 -45 16
-229 15 -295 -2z m319 -83 c67 -23 77 -42 49 -92 -27 -45 -28 -63 -9 -79 19
-16 50 17 72 76 9 24 22 43 29 43 24 0 64 -59 70 -103 8 -53 -5 -102 -48 -184
-48 -93 -95 -137 -170 -161 -124 -40 -286 -53 -389 -31 -148 32 -268 143 -268
249 0 122 167 272 325 290 116 14 287 10 339 -8z"/>
<path d="M7427 13860 c-69 -52 -104 -101 -139 -193 -38 -98 -19 -227 40 -280
47 -43 161 -60 233 -35 74 25 190 101 239 156 102 114 135 209 101 289 -28 68
-155 109 -281 92 -58 -8 -74 -7 -92 5 -12 9 -25 16 -29 16 -3 0 -36 -23 -72
-50z m363 -56 c65 -26 77 -72 39 -147 -70 -138 -224 -245 -358 -248 -72 -2
-106 16 -127 66 -19 46 -18 81 6 159 15 48 33 79 69 118 45 49 52 53 107 59
118 12 222 10 264 -7z"/>
<path d="M21040 13762 c-50 -4 -62 -15 -50 -46 8 -24 -37 -22 825 -30 1698
-17 2215 -11 2215 25 0 5 -6 9 -12 10 -7 1 -33 3 -58 5 -25 2 -430 6 -900 9
-470 3 -949 7 -1065 10 -115 2 -334 7 -485 10 -151 3 -309 6 -350 8 -41 1 -95
1 -120 -1z"/>
<path d="M26324 13716 c-14 -35 11 -43 164 -50 178 -8 300 -22 406 -47 44 -11
83 -19 88 -19 4 0 8 14 8 31 0 25 -6 32 -37 46 -54 22 -229 42 -440 50 -165 6
-183 5 -189 -11z"/>
<path d="M26270 13594 c0 -14 -4 -33 -9 -42 -5 -9 -12 -82 -15 -162 -4 -80
-10 -181 -13 -225 -3 -44 -7 -262 -7 -485 -1 -223 -3 -513 -4 -645 l-4 -240
39 3 c21 2 41 9 46 15 4 7 4 48 0 92 -4 44 -8 206 -9 360 0 154 -4 404 -8 555
-5 162 -4 365 2 495 5 121 7 239 5 263 -5 45 -23 58 -23 16z"/>
<path d="M23369 13409 c-266 -301 -329 -398 -329 -509 0 -72 21 -118 77 -172
115 -110 338 -111 556 -1 170 85 215 173 145 279 -52 77 -118 105 -261 112
-132 5 -230 -16 -335 -74 -34 -19 -67 -34 -72 -34 -49 0 87 177 329 430 48 49
61 70 59 89 -6 53 -34 33 -169 -120z m324 -373 c49 -24 87 -80 87 -127 0 -30
-7 -43 -40 -73 -105 -95 -351 -152 -484 -112 -83 25 -156 98 -156 156 0 57
120 134 255 165 89 21 289 15 338 -9z"/>
<path d="M24955 13349 c-22 -5 -83 -31 -135 -57 -72 -36 -112 -64 -171 -122
-67 -66 -79 -83 -99 -145 -33 -97 -34 -240 -3 -305 40 -84 90 -121 224 -166
74 -26 97 -29 194 -28 174 2 292 51 408 170 114 117 172 312 133 446 -20 71
-46 103 -109 135 -42 21 -68 26 -145 29 -70 2 -105 8 -138 24 -53 26 -105 32
-159 19z m175 -108 c43 -52 64 -57 74 -16 7 28 31 38 56 25 10 -6 30 -10 45
-10 14 0 41 -7 60 -15 88 -36 100 -215 26 -380 -37 -80 -123 -168 -204 -206
-173 -80 -422 -62 -530 39 -73 69 -74 276 -1 400 57 98 262 210 386 211 43 1
49 -2 88 -48z"/>
<path d="M28430 13325 c-82 -18 -169 -51 -195 -73 -55 -47 -85 -93 -85 -131 0
-58 27 -83 163 -151 194 -99 257 -139 334 -216 187 -184 174 -351 -32 -425
-73 -26 -203 -36 -264 -19 -42 11 -59 24 -113 89 -50 59 -68 6 -21 -62 27 -39
87 -77 122 -77 11 0 23 -4 26 -10 8 -13 122 -13 198 0 118 19 233 95 279 184
29 57 20 127 -27 208 -96 162 -171 226 -439 368 -135 72 -141 76 -144 109 -9
89 169 156 410 154 96 -1 123 -4 150 -20 30 -17 33 -24 36 -70 5 -78 48 -97
71 -31 24 69 0 117 -77 155 -52 26 -67 28 -192 30 -90 2 -157 -2 -200 -12z"/>
<path d="M6086 13017 c-30 -45 -29 -123 3 -347 17 -118 38 -267 47 -330 24
-172 25 -178 41 -192 12 -9 16 -9 24 3 12 19 11 44 -5 205 -8 77 -17 168 -21
204 -3 36 -11 114 -18 174 -9 74 -10 136 -4 193 7 62 6 87 -3 98 -18 22 -47
18 -64 -8z"/>
<path d="M5015 13006 c-13 -20 -13 -34 0 -131 10 -73 12 -112 5 -119 -13 -13
-38 -14 -160 -6 -116 9 -130 4 -130 -42 0 -37 24 -46 98 -37 82 10 200 10 206
0 3 -5 10 -41 16 -81 12 -85 24 -112 47 -103 14 5 15 19 9 95 -7 106 -6 108
98 88 118 -22 161 -24 175 -6 28 33 -19 50 -169 61 -52 3 -100 11 -107 17 -9
7 -13 42 -13 115 0 72 -5 113 -15 132 -20 39 -42 45 -60 17z"/>
<path d="M3865 13005 c-3 -8 -7 -22 -10 -30 -8 -27 15 -176 49 -320 19 -77 39
-171 46 -210 22 -129 25 -140 40 -140 12 0 16 19 18 88 3 90 1 102 -43 312
-13 66 -28 156 -31 199 -5 57 -12 84 -26 98 -22 22 -37 23 -43 3z"/>
<path d="M6895 12898 c-3 -13 5 -62 18 -108 32 -111 41 -166 28 -174 -5 -4
-44 3 -86 14 -42 11 -110 25 -151 31 -81 11 -104 4 -104 -32 0 -34 28 -49 93
-49 109 0 228 -18 250 -37 18 -16 19 -26 13 -109 -7 -98 -2 -124 20 -124 23 0
34 44 34 130 0 43 4 81 10 85 5 3 37 -2 72 -11 35 -9 88 -17 118 -18 49 -1 55
1 58 21 4 30 -19 40 -108 48 -94 8 -138 21 -144 43 -3 9 -10 62 -16 117 -12
115 -41 188 -77 193 -16 2 -24 -3 -28 -20z"/>
<path d="M13391 12888 c-4 -13 -11 -87 -15 -164 -4 -78 -13 -222 -22 -320 -31
-379 -34 -437 -23 -451 32 -38 45 1 69 206 37 326 60 695 45 725 -15 30 -43
32 -54 4z"/>
<path d="M9940 12873 c0 -25 34 -251 69 -468 17 -99 35 -235 40 -301 13 -143
16 -156 45 -152 20 3 21 7 18 133 -4 144 -19 264 -56 442 -14 65 -29 159 -35
210 -11 103 -31 153 -61 153 -12 0 -20 -7 -20 -17z"/>
<path d="M7741 12786 c-24 -28 -32 -196 -16 -328 8 -69 15 -213 15 -325 0
-141 3 -204 12 -209 36 -22 53 103 48 346 -6 278 -5 364 4 426 8 56 6 64 -13
83 -25 25 -34 26 -50 7z"/>
<path d="M29131 12786 c-15 -18 -61 -238 -61 -292 0 -29 8 -52 29 -80 38 -53
71 -73 141 -86 148 -26 274 75 365 291 28 68 28 115 -2 109 -9 -2 -34 -39 -57
-83 -101 -196 -183 -267 -291 -250 -28 4 -55 16 -75 35 -38 36 -40 83 -5 201
27 93 31 139 13 157 -16 16 -43 15 -57 -2z"/>
<path d="M29950 12733 c-18 -15 -56 -64 -85 -109 -29 -45 -58 -84 -63 -88 -7
-4 -8 14 -5 51 5 50 2 61 -16 77 -20 18 -23 18 -38 4 -16 -17 -43 -143 -44
-215 -2 -52 14 -73 52 -73 32 0 26 -7 145 175 80 121 92 135 116 135 24 0 45
-49 57 -135 5 -37 17 -77 25 -91 33 -49 103 -41 197 21 50 34 52 35 71 18 29
-26 66 -105 74 -155 8 -50 19 -68 45 -68 71 0 26 184 -67 274 -48 46 -73 46
-148 -3 -34 -21 -71 -42 -83 -45 -24 -8 -26 -4 -42 86 -15 83 -36 125 -73 148
-45 27 -80 25 -118 -7z"/>
<path d="M25310 12366 c-6 -5 -160 -31 -240 -41 -30 -3 -113 -15 -185 -25 -71
-10 -197 -24 -280 -30 -170 -13 -184 -19 -169 -72 7 -23 21 -39 46 -53 36 -19
37 -19 57 -1 16 15 51 21 168 32 82 7 186 21 233 29 47 9 145 19 218 22 l133
6 6 28 c4 22 11 29 36 31 37 4 57 30 41 56 -10 16 -54 29 -64 18z"/>
<path d="M25130 11871 c-55 -11 -13 -19 112 -23 121 -3 153 6 51 15 -38 3 -81
8 -98 11 -16 2 -46 1 -65 -3z"/>
<path d="M25480 11846 c0 -9 30 -14 35 -6 4 6 -3 10 -14 10 -12 0 -21 -2 -21
-4z"/>
<path d="M25675 11830 c-3 -5 -5 -10 -3 -10 72 -8 161 -9 153 -1 -15 14 -142
24 -150 11z"/>
<path d="M25840 11821 c0 -12 37 -21 94 -21 42 0 47 2 36 15 -14 16 -130 22
-130 6z"/>
<path d="M26048 11812 c-16 -2 -28 -7 -28 -12 0 -11 49 -17 85 -10 l30 6 -30
10 c-16 5 -42 8 -57 6z"/>
<path d="M30766 961 c-4 -7 -5 -15 -2 -18 9 -9 19 4 14 18 -4 11 -6 11 -12 0z"/>
</g>
</svg>
