<?xml version="1.0" standalone="no"?>
<!DOCTYPE svg PUBLIC "-//W3C//DTD SVG 20010904//EN"
 "http://www.w3.org/TR/2001/REC-SVG-20010904/DTD/svg10.dtd">
<svg version="1.0" xmlns="http://www.w3.org/2000/svg"
 width="3264.000000pt" height="2448.000000pt" viewBox="0 0 3264.000000 2448.000000"
 preserveAspectRatio="xMidYMid meet">
<metadata>
Created by potrace 1.12, written by Peter Selinger 2001-2015
</metadata>
<g transform="translate(0.000000,2448.000000) scale(0.100000,-0.100000)"
fill="#000000" stroke="none">
<path d="M20945 22022 c-67 -8 -226 -53 -317 -90 -54 -22 -213 -100 -354 -174
-272 -141 -357 -177 -414 -178 -41 0 -102 20 -127 42 -10 8 -36 22 -58 30 -22
9 -79 34 -127 57 -48 23 -91 41 -96 41 -5 0 -40 14 -77 31 -37 16 -126 48
-198 70 -215 64 -356 54 -490 -35 -113 -75 -261 -257 -386 -474 -71 -123 -116
-232 -140 -342 -12 -52 -30 -128 -41 -167 -24 -88 -25 -117 -4 -137 21 -22 50
-20 90 5 38 23 40 30 49 144 8 108 55 280 104 382 85 177 235 380 338 457 151
114 239 122 488 42 204 -65 257 -88 523 -224 25 -13 70 -28 100 -33 104 -20
138 -6 672 267 313 160 498 207 668 170 87 -20 192 -62 208 -84 6 -8 28 -17
50 -21 37 -6 39 -8 39 -41 0 -27 5 -37 23 -45 12 -5 22 -18 22 -29 0 -10 11
-34 25 -52 14 -18 25 -37 25 -43 0 -5 10 -22 23 -38 13 -15 36 -58 51 -96 16
-37 32 -70 37 -73 5 -3 9 -19 9 -35 0 -19 9 -38 25 -53 14 -13 25 -31 25 -40
0 -9 4 -24 9 -34 5 -9 16 -35 25 -57 10 -22 35 -70 57 -106 33 -56 48 -70 94
-92 63 -31 81 -33 167 -11 99 25 171 63 343 178 189 127 307 186 430 218 82
21 112 23 325 22 271 0 298 -5 541 -85 31 -11 64 -19 74 -19 11 0 31 -12 46
-26 28 -26 49 -25 49 2 0 11 6 13 20 9 25 -8 25 9 1 50 -12 20 -32 35 -62 45
-24 8 -51 19 -59 25 -50 33 -83 43 -280 85 -242 52 -571 35 -790 -39 -104 -36
-159 -64 -296 -153 -238 -156 -318 -198 -397 -212 -25 -5 -44 -3 -53 5 -11 9
-18 8 -34 -6 -16 -15 -22 -15 -35 -5 -8 7 -15 17 -15 22 0 6 -12 24 -27 42
l-26 31 29 3 c34 4 46 20 33 41 -38 62 -71 121 -83 146 -8 17 -23 38 -34 48
-11 10 -18 26 -15 36 2 9 -3 23 -11 30 -9 8 -16 24 -16 37 0 23 -37 96 -53
103 -4 2 -12 14 -17 27 -6 13 -20 28 -33 33 -27 10 -39 33 -31 55 9 23 -45
105 -86 131 -20 13 -43 34 -52 47 -16 25 -127 98 -148 98 -7 0 -44 11 -83 25
-57 21 -85 25 -156 23 -47 -1 -99 -4 -116 -6z m765 -559 c0 -5 -5 -15 -10 -23
-8 -12 -10 -11 -10 8 0 12 5 22 10 22 6 0 10 -3 10 -7z"/>
<path d="M23880 21195 c-16 -19 -4 -52 22 -61 15 -4 26 -1 35 12 19 25 17 32
-16 48 -25 13 -31 14 -41 1z"/>
<path d="M16598 21134 c-118 -28 -205 -87 -304 -203 -79 -94 -170 -160 -308
-227 -82 -40 -113 -49 -223 -65 -148 -22 -358 -26 -501 -9 -87 11 -259 58
-287 79 -5 4 -35 16 -65 25 -30 9 -82 30 -115 46 -166 81 -389 102 -508 47
-81 -37 -187 -141 -224 -220 -45 -94 -78 -213 -88 -312 -2 -16 -9 -68 -16
-115 -6 -47 -13 -105 -15 -130 -1 -25 -12 -94 -24 -155 -21 -104 -25 -115 -88
-208 -59 -89 -64 -99 -49 -114 33 -34 111 12 149 88 38 77 94 262 102 339 4
36 11 99 15 141 4 42 11 81 15 87 4 7 12 54 17 104 11 110 20 140 66 235 40
83 72 114 163 157 63 30 69 31 195 30 118 -1 135 -4 188 -28 32 -14 62 -24 66
-22 12 8 144 -42 213 -79 14 -8 33 -15 42 -15 9 0 27 -6 39 -14 12 -8 69 -25
127 -38 92 -20 129 -23 294 -21 322 2 458 27 616 109 107 56 199 131 267 214
39 50 72 76 135 113 115 66 141 72 298 71 114 -1 151 -5 235 -28 118 -32 215
-66 215 -75 0 -4 21 -13 48 -20 26 -8 56 -20 67 -28 29 -19 55 -16 55 7 0 35
-23 70 -49 76 -30 6 -96 40 -130 66 -13 10 -31 18 -41 18 -9 0 -59 14 -111 30
-176 57 -360 74 -481 44z"/>
<path d="M24001 21108 c-9 -25 0 -34 24 -24 20 7 19 46 0 46 -9 0 -19 -10 -24
-22z"/>
<path d="M24042 21063 c-12 -23 -5 -43 14 -36 16 6 19 39 5 48 -6 3 -14 -2
-19 -12z"/>
<path d="M24074 20956 c-4 -10 -17 -22 -31 -27 -32 -12 -39 -34 -19 -64 23
-35 50 -31 75 11 26 44 26 56 1 79 -18 17 -20 17 -26 1z"/>
<path d="M17444 20886 c-15 -12 -17 -18 -8 -33 13 -21 52 -29 66 -15 6 6 8 22
4 36 -7 29 -32 34 -62 12z"/>
<path d="M24110 20847 c0 -7 -8 -24 -17 -37 -27 -38 -44 -120 -30 -145 6 -11
12 -58 14 -105 1 -47 4 -103 7 -125 7 -49 7 -44 1 -130 -13 -221 -19 -336 -16
-358 2 -17 68 -47 104 -47 44 0 385 48 398 56 22 13 340 21 360 8 8 -4 39 -9
69 -11 57 -2 167 -24 254 -50 27 -8 70 -16 97 -18 26 -1 58 -10 71 -19 12 -9
29 -16 36 -16 8 0 41 -13 72 -29 32 -16 61 -27 64 -24 3 3 19 -6 36 -21 38
-31 66 -33 73 -6 7 26 35 25 64 -2 19 -17 26 -19 36 -9 9 10 6 17 -18 37 -16
14 -48 33 -70 44 -22 11 -60 31 -84 45 -24 14 -50 25 -58 25 -8 0 -24 6 -36
14 -28 18 -200 76 -226 76 -11 0 -62 11 -113 25 -115 31 -277 55 -377 55 -92
0 -330 -26 -426 -47 -38 -9 -110 -16 -160 -17 -83 -1 -90 1 -93 19 -1 11 8 42
22 67 21 40 25 60 24 135 -2 174 -7 359 -11 403 -19 204 -23 220 -53 220 -8 0
-14 -6 -14 -13z"/>
<path d="M17600 20785 c0 -9 5 -15 11 -13 6 2 11 8 11 13 0 5 -5 11 -11 13 -6
2 -11 -4 -11 -13z"/>
<path d="M17750 20751 c0 -15 6 -21 21 -21 14 0 19 5 17 17 -5 26 -38 29 -38
4z"/>
<path d="M17675 20740 c-4 -7 -3 -16 3 -22 14 -14 45 -2 40 15 -6 16 -34 21
-43 7z"/>
<path d="M17820 20710 c0 -5 5 -10 10 -10 6 0 10 5 10 10 0 6 -4 10 -10 10 -5
0 -10 -4 -10 -10z"/>
<path d="M25717 19744 c-13 -13 -7 -42 8 -48 22 -8 31 22 13 40 -8 8 -17 11
-21 8z"/>
<path d="M25865 19700 c-8 -14 13 -40 32 -40 7 0 16 7 20 16 10 26 -38 47 -52
24z"/>
<path d="M25890 19640 c0 -5 5 -10 11 -10 5 0 7 5 4 10 -3 6 -8 10 -11 10 -2
0 -4 -4 -4 -10z"/>
<path d="M25990 19562 c0 -21 24 -112 29 -112 3 0 12 4 20 9 11 7 11 15 2 44
-12 34 -51 80 -51 59z"/>
<path d="M21486 19549 c-38 -5 -112 -19 -165 -30 -53 -12 -115 -25 -139 -30
-68 -14 -321 -99 -399 -134 -39 -18 -76 -42 -82 -53 -15 -29 5 -69 57 -116 38
-35 45 -38 67 -28 20 9 25 19 25 47 0 59 45 89 210 143 148 48 302 83 425 97
89 10 489 7 575 -4 102 -14 259 -46 294 -60 16 -6 49 -16 75 -22 25 -5 82 -21
126 -36 131 -42 362 -37 318 8 -16 16 -102 46 -187 64 -38 9 -74 19 -80 23
-16 12 -80 29 -156 42 -36 6 -90 19 -120 29 -52 18 -98 26 -270 51 -101 15
-488 21 -574 9z"/>
<path d="M4942 19444 c-119 -32 -222 -117 -222 -183 0 -39 38 -32 96 19 81 70
203 102 279 73 17 -6 53 -17 80 -24 41 -10 64 -26 122 -83 97 -95 126 -116
161 -116 17 0 34 -4 37 -10 3 -5 15 -10 26 -10 15 0 20 6 17 23 -2 16 -10 22
-29 22 -21 0 -25 3 -21 23 8 40 -55 96 -258 228 -38 25 -151 54 -203 53 -18 0
-56 -7 -85 -15z"/>
<path d="M12620 19446 c-30 -6 -72 -22 -92 -34 -54 -33 -124 -116 -141 -165
-8 -23 -20 -58 -26 -77 -23 -65 -43 -175 -44 -235 -1 -74 24 -169 45 -173 17
-3 19 6 22 143 1 61 8 102 19 128 10 21 22 60 27 87 14 73 33 113 75 153 82
79 228 103 456 73 239 -30 382 -21 489 32 102 50 56 76 -84 48 -85 -18 -270
-21 -343 -6 -78 16 -269 40 -310 39 -21 0 -63 -6 -93 -13z"/>
<path d="M17065 19420 c-77 -4 -178 -13 -225 -19 -47 -7 -119 -16 -160 -21
-41 -4 -178 -20 -305 -34 -253 -29 -515 -65 -526 -72 -4 -2 -71 -17 -149 -34
-146 -30 -181 -44 -200 -81 -9 -17 -8 -25 7 -41 22 -25 44 -23 248 27 147 36
356 71 565 95 109 12 284 34 405 50 303 41 532 49 714 25 123 -16 231 -40 271
-60 14 -7 62 -18 108 -26 46 -7 91 -18 100 -25 15 -11 14 -16 -18 -49 -157
-165 -761 -429 -1100 -480 -52 -8 -133 -15 -180 -15 -83 0 -245 21 -305 40
-112 35 -190 63 -257 93 -21 10 -41 17 -45 17 -12 0 -131 48 -208 85 -86 41
-132 55 -151 48 -18 -7 -18 -12 5 -50 27 -44 88 -83 221 -140 223 -96 374
-144 565 -180 83 -15 289 -12 385 6 133 26 180 37 339 88 368 115 680 279 786
412 33 42 76 71 105 71 11 0 31 -11 46 -23 l27 -24 -16 -69 c-10 -38 -22 -125
-27 -194 -6 -69 -12 -150 -15 -180 -3 -30 -7 -80 -10 -110 -2 -30 -9 -107 -14
-170 -15 -164 -20 -253 -27 -432 -5 -137 -4 -161 10 -183 19 -29 61 -34 74 -7
11 19 20 118 27 272 2 58 8 139 11 180 4 41 8 107 9 145 3 101 14 231 25 300
18 108 30 252 30 347 0 53 7 124 17 166 12 53 14 78 6 90 -14 23 -47 27 -63 7
-7 -8 -21 -15 -32 -15 -11 0 -33 -8 -49 -17 -27 -16 -31 -16 -64 0 -20 9 -44
17 -54 17 -10 0 -30 9 -44 20 -14 11 -28 20 -32 20 -4 0 -18 9 -32 20 -14 11
-37 20 -51 20 -14 0 -33 6 -41 14 -31 26 -295 71 -470 79 -53 3 -159 1 -236
-3z"/>
<path d="M7453 19389 c-37 -11 -113 -92 -137 -146 -9 -21 -25 -55 -36 -75 -11
-20 -20 -45 -20 -55 0 -10 -7 -28 -15 -41 -11 -15 -14 -33 -10 -56 4 -18 3
-36 -2 -39 -14 -9 -15 -204 -2 -212 21 -13 57 6 78 41 24 40 25 64 7 116 -11
31 -11 45 0 80 7 24 23 76 35 116 30 99 72 144 163 177 65 23 106 49 106 66 0
4 -7 15 -16 23 -17 18 -98 20 -151 5z"/>
<path d="M23000 19318 c-19 -5 -51 -24 -70 -42 -69 -64 -344 -209 -465 -244
-69 -20 -216 -46 -325 -56 -126 -12 -563 -17 -680 -7 -138 11 -306 42 -366 66
-22 8 -57 16 -78 18 -35 2 -40 -1 -48 -26 -9 -24 -6 -32 12 -52 12 -13 34 -28
48 -33 67 -23 110 -36 147 -43 22 -4 63 -13 90 -20 69 -18 748 -18 905 -1 303
34 501 102 750 259 110 70 173 103 194 103 21 0 29 17 14 29 -7 6 -26 22 -42
36 -32 27 -35 28 -86 13z"/>
<path d="M23144 19190 c-23 -9 -84 -78 -84 -95 0 -6 -9 -28 -21 -49 -50 -94
-140 -393 -219 -728 -31 -133 -34 -168 -16 -210 9 -21 22 -38 29 -38 16 0 57
88 68 145 22 108 58 266 64 274 3 6 21 66 40 133 51 178 71 248 85 288 7 19
19 54 27 78 11 30 24 47 46 58 18 9 38 22 46 28 8 6 32 16 55 21 54 13 57 45
6 60 -19 5 -46 18 -60 28 -27 19 -35 20 -66 7z"/>
<path d="M26120 19165 c0 -10 7 -15 18 -13 21 4 19 22 -2 26 -10 2 -16 -3 -16
-13z"/>
<path d="M20796 19108 c-17 -27 -22 -65 -13 -94 4 -12 0 -37 -10 -60 -17 -41
-22 -84 -27 -279 -2 -66 -9 -145 -16 -175 -7 -31 -10 -80 -6 -113 4 -38 2 -66
-6 -80 -7 -12 -15 -51 -19 -87 -10 -93 -29 -197 -46 -255 -8 -27 -19 -66 -23
-85 -13 -62 -105 -414 -125 -484 -8 -26 -15 -56 -15 -65 0 -9 -16 -68 -36
-131 -20 -63 -44 -143 -55 -176 -10 -34 -19 -74 -19 -88 0 -15 -11 -49 -25
-76 -31 -62 -33 -105 -4 -121 30 -16 99 -5 159 26 58 30 78 31 87 8 3 -10 14
-27 24 -38 9 -11 19 -33 21 -49 3 -24 15 -35 83 -72 44 -25 85 -46 90 -48 6
-2 39 -14 75 -26 85 -29 127 -46 172 -70 20 -11 51 -20 68 -20 17 0 44 -7 60
-15 40 -21 194 -46 287 -47 68 0 464 34 723 62 82 9 172 26 257 49 52 14 101
64 113 116 5 22 17 60 26 85 9 25 22 65 29 90 7 25 29 91 49 147 19 55 41 139
47 185 6 45 14 108 19 138 4 30 12 91 18 135 6 44 13 87 16 95 15 40 46 300
40 336 -3 25 0 66 10 103 9 35 16 69 16 77 0 21 -58 47 -91 40 -18 -3 -35 1
-51 13 -57 44 -139 32 -201 -30 -31 -30 -37 -43 -32 -61 15 -49 29 -53 92 -28
85 33 124 36 147 11 11 -12 27 -21 37 -21 36 0 35 -17 -12 -145 -20 -56 -41
-177 -46 -275 -3 -60 -8 -95 -46 -300 -24 -128 -64 -275 -106 -390 -72 -198
-75 -204 -116 -227 -45 -24 -168 -42 -475 -68 -102 -9 -237 -22 -300 -29 -116
-13 -269 -7 -370 14 -69 14 -208 64 -277 99 -34 17 -70 31 -79 31 -9 0 -28 8
-42 19 -15 10 -51 30 -81 45 -30 15 -75 44 -100 65 -72 59 -139 91 -193 91
-44 0 -48 2 -48 24 0 14 16 60 36 103 34 75 44 109 64 216 5 26 13 62 19 80 6
17 17 57 25 87 8 30 24 89 35 130 12 41 21 84 21 95 0 12 4 25 10 31 9 9 29
90 50 204 6 30 15 78 21 105 6 28 15 73 20 100 6 28 17 73 25 100 22 81 33
157 27 205 -3 26 1 67 9 95 19 65 29 404 14 455 -4 14 -8 40 -9 58 -2 29 0 32
25 32 62 0 93 86 46 130 -29 27 -74 26 -92 -2z"/>
<path d="M5527 19079 c-16 -18 -16 -21 -1 -44 21 -32 36 -32 28 0 -5 21 -3 24
11 19 10 -4 15 -14 12 -25 -3 -12 3 -19 20 -24 24 -6 24 -7 8 -31 -16 -25 -16
-27 6 -50 12 -13 30 -26 40 -29 11 -4 17 -15 17 -33 -1 -15 6 -42 16 -59 23
-46 20 -87 -11 -132 -105 -148 -491 -228 -753 -156 -129 36 -148 38 -200 23
-37 -12 -45 -18 -45 -38 0 -33 63 -64 123 -63 24 1 74 -5 110 -13 216 -48 326
-54 475 -23 164 33 296 106 355 194 49 73 81 210 62 260 -14 37 -73 105 -118
135 -48 33 -87 71 -95 93 -8 22 -37 21 -60 -4z"/>
<path d="M15462 19043 c-18 -7 -43 -59 -36 -75 7 -17 92 -79 126 -92 33 -12
63 10 73 55 8 34 -2 49 -59 91 -36 26 -73 34 -104 21z"/>
<path d="M26131 18978 c-21 -22 -29 -58 -13 -58 12 0 52 44 52 58 0 22 -19 22
-39 0z"/>
<path d="M26085 18810 c-4 -6 -4 -22 -1 -36 9 -36 -13 -182 -35 -230 -11 -22
-19 -46 -19 -54 0 -15 -75 -241 -95 -285 -8 -17 -26 -63 -40 -103 -14 -40 -46
-102 -71 -138 -25 -36 -49 -76 -54 -88 -33 -80 -206 -270 -316 -346 -40 -28
-111 -69 -158 -91 -74 -36 -93 -41 -154 -41 -58 0 -81 6 -137 33 l-66 32 -42
-30 c-38 -27 -42 -33 -41 -71 2 -81 73 -116 142 -69 35 24 41 25 95 15 102
-18 244 23 362 104 76 53 269 245 324 323 71 101 88 129 127 206 20 41 41 81
45 89 5 8 12 22 15 30 3 8 21 51 39 95 59 138 116 318 121 380 3 33 9 75 14
94 6 22 5 41 -1 53 -8 14 -6 26 6 44 9 14 15 39 13 57 -3 28 -7 32 -35 35 -17
2 -34 -2 -38 -8z"/>
<path d="M15496 18793 c-14 -52 -16 -85 -6 -148 6 -39 13 -110 15 -160 2 -49
8 -112 13 -140 5 -27 6 -97 3 -155 -4 -58 -3 -124 1 -147 4 -23 3 -55 -1 -71
-5 -16 -8 -83 -6 -148 2 -73 -1 -124 -8 -132 -6 -7 -12 -28 -13 -45 -4 -58
-52 -331 -62 -362 -14 -41 -29 -118 -37 -190 -5 -43 -20 -85 -52 -146 -38 -73
-43 -90 -34 -108 21 -39 94 -22 123 30 10 16 32 37 49 47 18 9 48 31 68 48 30
28 33 34 22 48 -9 10 -29 16 -58 16 -57 0 -62 15 -29 91 15 33 30 76 32 97 3
20 10 48 15 62 8 22 27 135 60 350 18 115 25 587 14 885 -6 171 -12 219 -31
256 -20 40 -69 53 -78 22z"/>
<path d="M7735 18769 c-33 -5 -73 -13 -89 -19 -16 -5 -38 -10 -50 -10 -35 -1
-271 -94 -306 -120 -31 -24 -32 -29 -33 -90 -1 -100 21 -125 88 -100 25 9 26
13 20 50 -6 34 -3 43 19 63 29 27 157 73 323 116 124 32 206 72 201 99 -4 20
-79 25 -173 11z"/>
<path d="M6324 18720 c-46 -23 -152 -125 -196 -188 -16 -23 -36 -63 -45 -87
-8 -25 -19 -45 -23 -45 -5 0 -11 -13 -15 -30 -4 -16 -11 -32 -16 -35 -5 -4 -9
-14 -9 -23 0 -9 -11 -44 -25 -77 -33 -80 -33 -142 -2 -156 18 -8 33 -7 60 5
40 16 57 45 77 134 11 46 10 55 -4 71 -9 10 -16 23 -16 29 0 15 43 95 70 129
11 16 41 56 66 91 47 64 75 84 132 97 40 8 82 -15 82 -47 0 -12 -12 -34 -27
-50 -22 -23 -24 -30 -13 -43 15 -18 91 -20 108 -3 7 7 12 26 12 44 0 40 18 55
83 67 121 23 228 0 299 -62 46 -41 47 -49 40 -173 -4 -63 -95 -128 -178 -128
-42 0 -105 51 -122 98 -7 19 -20 44 -29 54 -9 10 -21 28 -28 41 -9 18 -18 22
-55 19 -24 -2 -46 -5 -49 -8 -9 -9 33 -118 67 -174 37 -62 95 -113 149 -131
21 -7 63 -9 100 -6 113 9 199 88 251 232 22 60 22 60 4 110 -41 109 -48 116
-187 191 -84 46 -95 49 -160 48 -47 -1 -85 -8 -115 -21 -25 -11 -60 -24 -78
-27 -28 -7 -32 -5 -38 19 -14 56 -94 72 -170 35z"/>
<path d="M12380 18716 c0 -9 5 -16 10 -16 6 0 10 4 10 9 0 6 -4 13 -10 16 -5
3 -10 -1 -10 -9z"/>
<path d="M12365 18666 c-26 -19 -9 -36 28 -29 19 4 27 11 25 22 -4 21 -29 25
-53 7z"/>
<path d="M12410 18505 c-10 -12 -9 -16 5 -21 19 -8 40 9 31 25 -10 15 -21 14
-36 -4z"/>
<path d="M14324 18505 c-64 -29 -67 -68 -5 -84 20 -5 72 -13 116 -16 90 -8
339 -69 472 -116 48 -17 97 -33 108 -36 11 -3 25 -9 30 -14 18 -13 98 -38 107
-33 10 6 76 -14 83 -25 6 -10 -92 -79 -160 -114 -27 -13 -111 -46 -185 -72
-302 -105 -716 -273 -908 -367 -44 -22 -68 -50 -57 -68 17 -27 122 2 360 101
28 12 70 29 95 39 25 9 72 30 105 45 33 15 71 31 85 36 14 4 57 19 95 34 39
14 133 46 210 71 77 25 154 52 170 59 17 7 62 25 102 40 73 27 123 69 138 115
11 35 -16 107 -55 144 -78 75 -423 200 -725 262 -85 17 -140 17 -181 -1z"/>
<path d="M22438 18480 c-27 -17 -49 -36 -49 -43 -5 -50 21 -97 54 -97 12 0 47
15 77 33 66 40 76 72 36 112 -33 33 -60 31 -118 -5z"/>
<path d="M9323 18364 c-62 -22 -92 -68 -89 -132 1 -29 6 -55 10 -59 3 -4 30
16 59 44 71 70 102 77 270 63 343 -28 389 -30 1787 -45 1172 -14 1079 -11
1101 -31 17 -15 24 -16 58 -4 48 16 49 16 291 1 107 -6 233 -13 280 -16 47 -3
123 -7 170 -10 153 -9 263 -14 405 -20 150 -6 345 -18 625 -39 96 -8 184 -13
195 -12 11 0 63 -3 115 -8 77 -6 103 -5 132 7 46 19 62 47 44 73 -13 17 -36
19 -228 26 -117 4 -278 12 -358 17 -180 13 -282 18 -630 31 -151 6 -342 16
-425 21 -82 6 -262 13 -400 16 -137 3 -254 9 -260 13 -19 14 -74 21 -92 12
-12 -7 -136 -7 -348 -2 -182 5 -577 11 -880 15 -1086 12 -1180 15 -1445 41
-184 18 -332 17 -387 -2z"/>
<path d="M21957 18262 c-41 -42 -44 -53 -22 -72 22 -18 92 15 111 51 34 67
-30 82 -89 21z"/>
<path d="M21765 18141 c-118 -30 -205 -151 -221 -304 -6 -58 -4 -64 20 -86 23
-22 28 -23 56 -11 45 19 80 49 80 69 0 10 -11 28 -25 41 -45 42 -27 90 53 141
38 24 57 29 109 29 71 0 91 17 73 64 -5 14 -7 32 -4 40 3 9 -4 13 -23 14 -15
0 -41 3 -58 6 -16 2 -43 1 -60 -3z"/>
<path d="M21999 18073 c-72 -69 -119 -143 -119 -186 0 -13 -5 -28 -12 -35 -18
-18 -3 -25 47 -24 54 0 75 15 75 51 0 32 25 74 91 153 57 69 62 101 16 106
-22 3 -40 -9 -98 -65z"/>
<path d="M9296 18108 c-11 -15 -12 -24 -5 -29 25 -15 78 18 64 41 -11 17 -43
11 -59 -12z"/>
<path d="M22290 18076 c-77 -17 -116 -40 -150 -88 -17 -23 -51 -55 -77 -72
-25 -17 -51 -39 -57 -48 -17 -27 5 -52 48 -56 20 -2 36 -5 36 -7 0 -3 -20 -35
-43 -72 -24 -37 -57 -92 -72 -121 -16 -29 -55 -79 -87 -113 -42 -43 -58 -66
-56 -82 3 -19 9 -22 45 -20 56 2 114 41 149 100 74 126 76 130 115 238 43 123
84 193 116 201 18 5 30 2 38 -9 35 -48 105 -18 105 46 0 44 -25 112 -42 114
-7 0 -38 -4 -68 -11z"/>
<path d="M21190 18039 c-41 -16 -86 -29 -101 -29 -45 0 -151 -61 -185 -106
-29 -39 -32 -50 -37 -140 -5 -108 -1 -119 55 -153 22 -14 41 -16 101 -10 96 9
174 41 277 114 95 67 144 131 137 180 -3 17 0 38 5 48 20 39 -39 92 -125 112
-49 11 -57 10 -127 -16z m137 -111 c29 -7 53 -16 53 -20 0 -18 -146 -121 -236
-166 -79 -41 -127 -49 -159 -28 -13 9 -32 16 -41 16 -12 0 -14 3 -6 13 6 7 9
22 6 33 -11 43 98 133 163 134 15 1 55 7 88 14 78 18 71 18 132 4z"/>
<path d="M12482 18042 c-22 -17 -22 -20 -11 -87 7 -39 13 -91 14 -116 2 -25 6
-56 10 -70 5 -13 7 -46 6 -72 -1 -26 -3 -96 -4 -155 -2 -97 -5 -113 -32 -167
-31 -61 -44 -74 -252 -235 -92 -71 -115 -105 -125 -186 -7 -60 -5 -69 22 -119
40 -74 110 -175 121 -175 5 0 26 -16 48 -35 21 -19 44 -35 50 -35 7 0 36 -25
66 -55 29 -30 58 -55 64 -55 7 0 24 -7 39 -17 45 -27 106 -67 122 -80 73 -59
96 -74 116 -79 12 -3 24 -14 27 -25 3 -10 13 -19 22 -19 28 0 115 -62 115 -82
0 -14 8 -18 34 -18 25 0 38 -6 50 -25 9 -14 25 -25 35 -25 10 0 30 -12 44 -26
14 -14 34 -25 44 -24 34 4 42 0 55 -27 15 -32 49 -41 68 -18 11 13 10 19 -5
35 -21 23 -349 247 -401 273 -19 10 -37 24 -41 33 -3 8 -19 22 -35 30 -34 17
-114 75 -142 101 -22 21 -58 45 -107 72 -19 11 -42 27 -50 37 -8 9 -39 35 -69
57 -30 22 -61 47 -68 56 -7 9 -38 42 -68 73 -52 53 -56 60 -61 116 -7 76 9
102 116 180 127 94 220 195 269 292 41 82 42 88 42 180 0 52 -4 111 -10 130
-5 19 -11 51 -14 70 -3 19 -12 60 -21 90 -9 34 -13 70 -9 93 8 50 -13 127 -35
127 -9 0 -26 -8 -39 -18z"/>
<path d="M16783 17943 c-70 -24 -164 -120 -236 -241 -92 -156 -147 -261 -147
-283 0 -11 -6 -32 -14 -47 -8 -15 -17 -52 -20 -82 -6 -46 -3 -61 16 -95 26
-45 59 -55 109 -35 42 18 47 52 15 91 -15 17 -26 43 -26 59 0 59 37 178 93
300 13 29 61 102 96 145 35 45 115 102 153 109 18 4 48 19 67 34 31 27 32 29
16 45 -20 20 -64 20 -122 0z"/>
<path d="M4780 17920 c0 -23 0 -23 35 -10 31 12 24 30 -11 30 -17 0 -24 -5
-24 -20z"/>
<path d="M17092 17926 c-23 -8 -49 -19 -56 -25 -8 -7 -41 -25 -75 -41 -33 -16
-84 -51 -113 -77 -29 -27 -78 -66 -108 -87 -99 -71 -160 -127 -160 -147 0 -10
6 -19 13 -20 29 -3 73 4 92 13 33 17 136 98 190 149 28 26 73 57 100 68 28 12
67 31 89 42 21 12 68 32 105 44 36 13 70 30 76 39 26 41 -72 68 -153 42z"/>
<path d="M4817 17836 c-3 -8 1 -20 9 -27 10 -8 13 -21 9 -40 -8 -34 10 -47 26
-18 8 15 8 28 1 43 -6 11 -13 29 -16 39 -7 21 -22 22 -29 3z"/>
<path d="M16373 17825 c-12 -8 -42 -57 -68 -109 -57 -113 -122 -184 -212 -228
-70 -34 -81 -32 -109 28 -15 31 -14 34 5 53 22 22 41 81 43 134 2 63 -20 71
-87 33 l-40 -23 3 -59 c2 -32 4 -98 5 -145 4 -129 31 -158 137 -146 103 12
148 52 307 273 95 133 115 196 63 202 -14 1 -35 -4 -47 -13z"/>
<path d="M17245 17751 c-16 -10 -40 -30 -52 -45 -13 -14 -29 -26 -36 -26 -8 0
-24 -11 -37 -25 -17 -18 -21 -31 -17 -55 6 -28 3 -31 -46 -56 -67 -34 -97 -62
-97 -90 0 -46 58 -50 143 -9 48 22 71 56 69 101 -1 19 3 34 8 34 6 0 27 16 49
35 21 19 42 35 46 35 7 0 2 -54 -10 -95 -8 -31 9 -47 58 -52 40 -5 48 -2 80
28 20 19 49 42 65 51 l30 18 26 -40 c14 -22 26 -44 26 -49 0 -22 43 -23 69 -2
14 11 38 28 54 36 25 15 28 14 33 -2 23 -74 28 -75 108 -33 l57 31 20 -26 c11
-14 29 -25 40 -25 11 0 33 -10 48 -21 l29 -21 58 30 c33 17 77 32 99 35 22 2
48 7 58 11 12 6 17 4 17 -7 0 -12 9 -14 43 -10 47 6 77 19 77 33 0 14 -98 89
-126 96 -41 11 -174 -13 -226 -40 -27 -14 -61 -26 -74 -26 -20 0 -24 5 -24 28
0 17 -10 38 -24 51 -23 21 -28 22 -79 11 -30 -6 -63 -17 -73 -25 -28 -21 -44
-18 -44 9 0 39 -21 85 -42 92 -14 4 -36 -5 -73 -30 -49 -34 -56 -36 -107 -30
-40 5 -62 2 -85 -9 -38 -20 -53 -7 -46 38 5 29 2 35 -25 49 -38 19 -31 20 -67
-3z"/>
<path d="M4850 17686 c0 -7 6 -19 14 -25 8 -7 18 -30 21 -53 5 -27 13 -42 25
-45 12 -3 18 -15 18 -36 1 -70 93 -188 156 -199 47 -9 125 19 139 49 10 22 8
28 -12 44 -13 11 -33 19 -45 19 -42 0 -146 78 -146 110 0 8 -6 25 -14 36 -8
11 -16 33 -18 48 -4 38 -31 55 -58 38 -28 -17 -38 -15 -45 8 -7 23 -35 27 -35
6z"/>
<path d="M17993 17375 c-20 -14 -63 -113 -78 -180 -9 -41 -113 -249 -159 -318
-59 -89 -117 -148 -213 -216 -104 -75 -208 -127 -294 -147 -178 -41 -420 -55
-599 -34 -248 29 -481 123 -805 323 -11 6 -52 40 -91 74 -64 56 -108 83 -135
83 -18 0 -8 -30 21 -64 23 -26 29 -41 25 -59 -5 -19 0 -29 25 -48 17 -13 48
-39 69 -56 21 -18 43 -33 49 -33 5 0 36 -15 68 -34 139 -81 185 -106 198 -106
8 0 19 -6 25 -14 7 -8 35 -22 64 -31 29 -9 73 -27 99 -40 173 -87 507 -124
813 -91 188 20 247 35 360 91 163 81 307 210 410 369 139 214 238 489 193 534
-15 15 -19 15 -45 -3z"/>
<path d="M24907 17168 c-8 -20 -14 -82 -15 -152 -2 -65 -7 -127 -12 -137 -6
-10 -10 -30 -10 -46 0 -31 -33 -140 -60 -193 -10 -19 -27 -66 -39 -105 -12
-38 -39 -101 -61 -140 -22 -38 -59 -108 -82 -155 -22 -47 -52 -98 -65 -115
-14 -16 -59 -77 -101 -135 -168 -233 -432 -509 -582 -611 -19 -13 -62 -45 -95
-70 -111 -85 -298 -187 -483 -265 -59 -24 -115 -49 -124 -54 -10 -6 -27 -10
-38 -10 -12 0 -38 -9 -60 -20 -22 -11 -49 -20 -62 -20 -12 0 -52 -11 -88 -24
-36 -14 -94 -29 -130 -35 -36 -6 -85 -15 -110 -21 -60 -14 -234 -36 -345 -45
-117 -9 -492 -13 -503 -6 -5 3 -12 18 -16 34 -5 23 -12 27 -39 27 -17 -1 -43
-7 -57 -15 -14 -8 -35 -14 -48 -15 -30 0 -264 78 -389 131 -265 111 -393 160
-518 199 -161 50 -529 109 -680 110 -259 0 -400 -77 -653 -356 -56 -62 -95
-97 -122 -108 -24 -9 -45 -27 -52 -41 -13 -29 -48 -52 -159 -106 -166 -80
-311 -106 -639 -115 -383 -10 -684 36 -1230 190 -30 9 -68 22 -85 30 -16 8
-50 22 -75 31 -69 26 -78 30 -187 79 -56 25 -108 46 -115 47 -7 0 -40 16 -73
34 -55 31 -137 73 -255 129 -25 12 -63 33 -85 47 -22 14 -73 42 -112 62 -40
21 -89 48 -109 62 -20 14 -41 25 -46 25 -6 0 -22 9 -37 19 -15 11 -47 28 -72
37 -24 10 -71 33 -104 52 -113 64 -288 114 -655 188 -206 41 -354 50 -425 25
-26 -9 -66 -40 -115 -91 -100 -102 -134 -114 -263 -95 -50 8 -117 23 -147 34
-30 11 -86 31 -123 45 -38 13 -95 40 -127 59 -32 19 -69 38 -81 42 -13 4 -36
21 -52 36 -16 16 -33 29 -39 29 -5 0 -22 8 -36 19 -15 10 -70 41 -122 68 -152
79 -213 115 -248 145 -18 15 -39 28 -47 28 -8 0 -18 6 -22 14 -14 23 -84 66
-109 66 -28 0 -29 -7 -9 -34 8 -11 15 -28 15 -38 0 -18 47 -48 75 -48 8 0 23
-4 33 -9 9 -5 25 -12 35 -15 9 -3 20 -19 23 -36 5 -25 11 -30 34 -30 15 0 33
-6 39 -14 7 -8 30 -17 51 -21 38 -6 60 -22 140 -97 39 -38 47 -41 85 -39 11 1
49 -13 85 -32 54 -27 65 -37 65 -57 0 -21 5 -25 28 -25 19 0 32 -7 41 -23 12
-23 111 -92 133 -92 6 0 38 -11 70 -24 88 -36 168 -51 273 -51 125 1 158 14
233 90 140 142 168 142 732 19 66 -14 139 -30 162 -35 24 -4 63 -17 87 -29 25
-11 52 -20 60 -20 8 0 18 -4 21 -10 3 -5 25 -10 48 -10 30 0 55 -9 87 -30 25
-16 54 -30 64 -30 10 0 41 -13 68 -30 26 -16 57 -30 67 -30 10 0 21 -7 25 -15
3 -8 14 -15 25 -15 11 0 33 -11 49 -25 17 -14 35 -25 41 -25 5 0 24 -13 41
-30 17 -16 40 -30 51 -30 22 0 100 -46 112 -66 4 -8 12 -14 16 -14 4 0 71 -36
147 -80 76 -44 146 -80 154 -80 9 0 25 -7 37 -15 12 -8 59 -28 105 -44 46 -16
110 -38 142 -50 33 -11 74 -21 91 -21 18 0 44 -9 59 -21 15 -11 52 -27 84 -34
31 -8 82 -25 112 -39 30 -14 65 -26 77 -26 19 0 74 -11 243 -48 25 -5 81 -19
124 -31 44 -12 104 -21 135 -21 31 0 72 -5 91 -10 20 -6 133 -11 260 -11 399
-1 648 46 870 164 108 57 123 69 260 207 200 201 286 265 435 321 105 39 392
23 655 -38 36 -8 88 -18 115 -23 28 -4 72 -17 98 -29 27 -12 57 -21 67 -21 10
0 42 -11 72 -25 29 -14 62 -25 73 -25 12 0 25 -4 30 -9 14 -14 174 -81 193
-81 9 0 35 -10 59 -21 25 -12 59 -25 76 -30 18 -4 59 -18 92 -29 33 -12 76
-24 95 -26 52 -5 108 -13 173 -26 47 -9 60 -16 68 -35 5 -13 20 -28 33 -34 21
-10 30 -7 68 20 40 29 47 31 74 20 70 -27 410 -21 614 12 120 19 364 73 455
100 250 74 453 156 598 239 184 106 478 348 627 515 25 28 72 79 105 115 73
80 170 199 212 262 17 26 40 59 51 75 73 107 114 179 186 328 131 268 158 344
188 525 27 167 20 243 -26 275 -29 21 -34 19 -49 -17z"/>
<path d="M17838 16329 c-21 -17 -38 -37 -38 -43 0 -7 37 -39 83 -72 45 -32
103 -77 128 -99 26 -23 73 -59 105 -80 68 -45 108 -84 129 -126 9 -16 27 -32
43 -36 33 -8 77 -53 86 -88 3 -13 14 -29 24 -34 10 -5 31 -30 47 -55 16 -25
33 -46 37 -46 4 0 14 -16 22 -35 16 -36 47 -58 54 -37 2 7 10 12 17 12 15 0
27 -29 30 -72 3 -29 70 -102 105 -113 13 -4 20 -17 22 -43 3 -35 5 -37 41 -40
36 -3 38 -5 32 -31 -4 -19 -1 -32 10 -41 8 -7 15 -18 15 -26 0 -7 9 -16 20
-19 11 -3 20 -13 20 -20 0 -20 21 -30 31 -14 4 7 12 10 16 5 4 -5 2 -11 -4
-13 -29 -10 -11 -24 22 -17 28 5 35 3 35 -10 0 -9 6 -19 14 -22 10 -4 15 -20
14 -46 0 -45 30 -94 56 -92 11 1 25 -17 41 -52 22 -48 28 -54 52 -53 16 1 42
-6 58 -15 37 -19 55 -20 55 -3 0 20 -77 137 -90 137 -6 0 -14 8 -18 19 -9 23
-84 120 -134 173 -21 22 -38 42 -38 44 0 3 -28 33 -63 67 -34 34 -73 78 -85
98 -12 19 -31 44 -43 55 -12 10 -57 64 -100 119 -43 55 -86 109 -97 120 -10
11 -49 58 -87 105 -63 80 -90 109 -197 220 -24 25 -82 74 -128 109 -47 35 -94
73 -105 85 -54 61 -166 156 -182 156 -10 -1 -35 -14 -55 -31z"/>
<path d="M21980 16094 c-25 -14 -65 -45 -90 -68 -25 -23 -72 -64 -105 -91 -33
-27 -62 -52 -65 -55 -3 -3 -59 -53 -125 -112 -153 -135 -385 -369 -407 -410
-19 -34 -12 -60 21 -78 30 -16 90 8 326 129 120 61 227 111 237 111 20 0 24
-20 8 -36 -6 -6 -12 -24 -14 -40 -2 -16 -9 -47 -15 -69 -6 -22 -12 -112 -14
-200 -5 -174 1 -202 47 -244 23 -22 28 -23 41 -10 11 11 14 69 16 314 1 232 5
313 17 357 12 47 13 60 2 73 -24 28 -76 13 -150 -46 -33 -26 -285 -168 -322
-182 -10 -3 -18 -3 -18 1 0 10 147 144 275 252 55 46 138 119 185 161 128 115
178 133 210 76 14 -25 13 -30 -3 -59 -20 -35 -34 -150 -23 -192 6 -26 38 -36
51 -16 4 6 22 17 41 25 43 18 51 37 35 89 -28 95 -33 115 -46 186 -8 41 -15
87 -15 101 0 25 -27 59 -46 59 -5 -1 -29 -12 -54 -26z"/>
<path d="M21773 14634 c-13 -35 5 -325 26 -399 6 -22 11 -56 11 -75 0 -20 6
-60 14 -90 7 -30 19 -89 26 -130 6 -41 17 -88 22 -105 5 -16 12 -48 14 -70 2
-22 10 -71 18 -110 14 -65 31 -188 41 -295 2 -25 6 -218 9 -431 5 -349 18
-549 42 -644 3 -13 -4 -32 -16 -48 -17 -21 -30 -27 -61 -27 -38 0 -47 6 -126
88 -58 59 -93 105 -110 142 -13 30 -28 62 -34 70 -5 8 -21 37 -37 64 -39 71
-72 103 -123 116 -61 17 -105 7 -171 -40 -31 -22 -61 -40 -66 -40 -5 0 -28
-20 -51 -45 -37 -40 -40 -47 -30 -72 6 -15 13 -55 15 -88 2 -33 6 -88 9 -122
l5 -61 -34 -12 c-38 -12 -53 -39 -38 -67 5 -10 12 -32 15 -48 5 -26 1 -33 -24
-47 -19 -11 -29 -25 -29 -41 0 -34 19 -47 67 -47 35 0 50 6 79 33 41 38 54 84
44 153 -5 27 -4 73 2 104 6 30 7 90 4 132 -6 67 -4 84 14 118 29 58 89 94 139
86 57 -9 117 -52 142 -102 11 -24 28 -53 38 -66 17 -22 33 -65 36 -98 1 -8 3
-21 4 -28 0 -7 12 -17 26 -22 17 -6 23 -14 19 -25 -4 -9 1 -24 10 -34 31 -34
133 -91 164 -91 16 0 42 -4 58 -9 16 -5 66 -14 111 -21 128 -19 140 -11 354
236 168 192 247 302 234 324 -3 5 -16 10 -28 10 -40 -1 -93 -41 -147 -110 -64
-82 -231 -274 -268 -308 -33 -31 -101 -72 -118 -72 -3 0 -3 26 0 58 15 155 18
257 7 312 -7 35 -14 196 -16 382 -3 178 -7 346 -9 373 -3 28 -8 82 -11 120 -4
39 -13 106 -21 150 -8 44 -23 132 -33 195 -11 63 -24 127 -29 141 -6 14 -13
52 -17 85 -4 32 -11 78 -16 100 -5 23 -16 104 -24 180 -8 76 -20 152 -25 169
-5 16 -12 65 -16 108 -5 63 -10 80 -27 92 -28 20 -56 19 -64 -1z"/>
<path d="M19407 14633 c-14 -14 -7 -105 11 -131 9 -15 22 -36 28 -47 6 -11 25
-24 42 -29 25 -7 34 -18 49 -58 12 -33 26 -53 40 -59 13 -5 23 -14 23 -20 0
-6 14 -24 30 -39 17 -15 30 -37 30 -48 0 -12 9 -37 21 -56 19 -32 30 -40 50
-38 4 1 5 -8 2 -18 -3 -13 0 -20 8 -20 8 0 20 -4 28 -9 12 -8 12 -13 3 -24
-15 -18 -6 -44 19 -58 11 -5 19 -15 19 -22 0 -7 11 -22 24 -35 14 -12 38 -51
54 -86 23 -49 36 -65 53 -68 19 -2 25 -11 31 -48 6 -37 17 -54 58 -92 33 -30
50 -54 50 -70 0 -14 19 -46 48 -79 52 -59 82 -108 82 -133 0 -9 16 -33 35 -53
19 -20 35 -42 35 -48 0 -5 14 -25 30 -44 17 -18 30 -41 30 -50 0 -17 48 -94
79 -126 10 -11 26 -34 35 -52 9 -17 29 -41 46 -53 17 -12 37 -34 45 -50 8 -16
24 -31 35 -35 12 -4 19 -14 17 -27 -1 -16 5 -23 23 -28 17 -4 29 -17 36 -40
12 -37 41 -74 64 -82 12 -4 13 -8 3 -20 -16 -18 -7 -28 25 -28 24 0 24 -2 18
-48 -5 -39 -3 -54 12 -73 11 -13 26 -37 35 -54 22 -43 168 -191 194 -197 12
-3 30 0 39 7 16 11 16 15 -6 51 -13 21 -35 53 -50 69 -33 37 -106 156 -153
250 -19 39 -47 87 -61 108 -14 21 -26 42 -26 46 0 10 -44 68 -101 134 -20 23
-51 65 -69 92 -19 28 -40 55 -48 60 -7 6 -25 29 -40 51 -15 23 -67 101 -116
175 -49 74 -98 150 -111 169 -12 19 -47 74 -79 122 -31 47 -56 89 -56 93 0 4
-29 45 -65 90 -36 46 -65 90 -65 99 0 8 -4 18 -10 21 -5 3 -26 32 -46 63 -49
75 -99 151 -122 182 -10 14 -41 59 -68 100 -27 41 -76 111 -109 155 -33 44
-72 98 -86 120 -36 56 -118 145 -133 145 -7 0 -16 -3 -19 -7z"/>
<path d="M20255 12454 c-40 -21 -64 -43 -81 -76 -18 -36 -18 -138 0 -164 14
-19 15 -19 63 7 46 24 48 27 48 68 0 36 5 47 27 64 l27 20 78 -44 c43 -25 89
-50 103 -55 68 -30 86 -39 101 -51 30 -25 231 -103 265 -103 27 0 37 -5 46
-25 6 -14 17 -25 25 -25 7 0 13 11 13 25 0 14 -5 25 -11 25 -12 0 -46 25 -99
71 -77 68 -488 279 -544 279 -17 0 -44 -7 -61 -16z"/>
<path d="M15219 12066 c-55 -20 -97 -54 -119 -96 -25 -49 -25 -62 0 -85 23
-21 27 -70 6 -78 -11 -4 -12 -14 -6 -42 5 -20 10 -38 12 -40 10 -10 112 -43
120 -39 17 11 7 56 -29 128 -34 69 -36 77 -23 101 8 15 34 38 57 52 60 35 122
27 151 -19 19 -29 19 -34 5 -64 -20 -40 -11 -78 23 -101 26 -17 27 -16 50 11
13 15 24 37 24 50 0 44 -22 141 -38 169 -35 58 -147 84 -233 53z"/>
<path d="M13975 11966 c-11 -7 -31 -17 -45 -21 -37 -12 -118 -86 -130 -119
-16 -45 -12 -84 8 -95 29 -15 96 21 128 69 15 23 47 52 70 66 41 24 44 24 68
9 32 -21 56 -13 56 17 -1 64 -101 112 -155 74z"/>
<path d="M14638 11890 c-64 -34 -107 -113 -119 -219 -10 -92 -5 -101 67 -101
45 0 62 6 110 38 31 20 67 44 80 52 28 18 30 27 24 99 -7 76 -25 77 -81 5 -29
-37 -59 -63 -88 -75 -24 -11 -46 -17 -49 -14 -11 11 51 86 108 130 43 33 60
53 60 70 0 39 -52 47 -112 15z"/>
<path d="M14335 11880 c-11 -4 -36 -25 -55 -45 -36 -37 -98 -75 -124 -75 -16
0 -66 -55 -66 -74 0 -21 35 -46 64 -46 33 0 101 34 109 54 10 25 67 49 104 43
38 -7 56 12 68 71 13 63 -36 99 -100 72z"/>
<path d="M15915 11769 c-88 -34 -160 -132 -134 -181 14 -26 33 -22 74 17 41
38 103 71 153 81 30 6 32 5 32 -23 0 -29 24 -73 40 -73 20 0 21 42 1 76 -12
19 -21 48 -21 64 0 23 -7 33 -30 45 -37 19 -54 18 -115 -6z"/>
<path d="M15540 11710 c-41 -17 -83 -30 -93 -30 -26 0 -95 -46 -102 -70 -8
-25 -54 -50 -94 -50 -16 0 -63 -13 -104 -30 -42 -16 -87 -30 -102 -30 -43 0
-115 -48 -115 -76 0 -34 33 -47 94 -40 76 10 140 33 198 73 43 30 54 34 70 24
26 -16 55 -5 101 36 22 19 71 50 110 69 60 28 79 33 113 28 38 -5 43 -3 63 24
23 33 27 72 9 90 -19 19 -68 13 -148 -18z"/>
<path d="M14807 11593 c-11 -20 -17 -65 -11 -88 6 -23 10 -24 48 -19 69 10 70
11 51 41 -19 28 -65 72 -77 73 -4 0 -9 -3 -11 -7z"/>
<path d="M16066 11572 c-11 -18 -148 -93 -189 -104 -54 -14 -77 -6 -77 26 0
50 -75 63 -109 20 -30 -38 -26 -60 19 -104 22 -22 40 -44 40 -49 0 -6 10 -15
21 -22 18 -9 29 -7 58 9 20 11 54 23 76 27 101 18 207 118 191 181 -6 24 -20
31 -30 16z"/>
<path d="M20760 11520 c-63 -39 -76 -70 -37 -92 15 -9 63 -11 163 -9 87 2 157
-2 185 -9 24 -7 69 -16 99 -20 30 -4 67 -11 83 -15 24 -6 27 -4 27 18 0 13 7
30 15 37 21 18 94 6 166 -26 55 -25 60 -25 101 -12 70 24 77 84 12 108 -48 19
-193 29 -479 35 -295 6 -301 6 -335 -15z"/>
<path d="M23172 11478 c-43 -33 -43 -33 -37 -84 3 -28 8 -110 10 -181 3 -108
7 -137 25 -176 18 -38 20 -50 10 -62 -7 -8 -16 -12 -21 -9 -5 2 -22 -2 -39
-11 -30 -15 -34 -15 -83 9 -61 31 -125 33 -183 7 -73 -33 -110 -121 -65 -153
11 -8 23 -26 27 -42 7 -31 79 -105 134 -140 19 -12 55 -28 80 -36 25 -7 61
-25 80 -40 53 -40 131 -85 170 -99 19 -6 76 -14 125 -18 97 -6 178 9 257 47
41 19 78 19 78 -1 0 -6 11 -21 25 -34 47 -48 179 -24 258 46 28 25 39 40 34
52 -8 22 -41 21 -112 -3 -64 -22 -174 -27 -193 -8 -8 8 3 27 45 74 46 53 59
77 78 142 17 59 21 89 15 125 -4 26 -9 49 -11 51 -12 12 -85 36 -108 36 -86 0
-184 -70 -216 -154 -23 -59 -7 -123 32 -132 29 -8 53 15 53 48 0 55 55 113
128 133 19 5 22 2 24 -22 4 -84 -42 -173 -103 -197 -21 -9 -41 -22 -46 -30 -4
-8 -34 -26 -66 -40 -49 -22 -72 -26 -158 -26 -92 0 -169 16 -169 36 0 3 11 19
25 36 28 33 32 71 11 108 -43 76 -51 98 -49 143 1 26 -2 57 -6 70 -5 14 -4 35
5 57 8 23 15 106 18 235 3 110 7 216 8 235 3 31 0 35 -22 38 -16 2 -40 -9 -68
-30z m-84 -621 c26 -24 60 -51 75 -61 27 -17 28 -19 21 -79 -4 -34 -7 -63 -8
-63 0 -1 -18 -4 -38 -8 -31 -6 -41 -3 -65 21 -16 15 -58 52 -95 81 -78 63 -98
93 -77 118 19 23 47 33 97 33 37 1 49 -5 90 -42z"/>
<path d="M16801 11429 c-14 -5 -59 -14 -100 -20 -195 -26 -293 -43 -371 -65
-106 -30 -109 -30 -107 2 1 15 -4 29 -11 31 -16 6 -33 -38 -20 -54 7 -8 0 -16
-21 -27 -22 -12 -32 -26 -37 -50 -13 -71 17 -72 199 -11 100 33 173 50 288 66
166 23 248 50 269 90 22 39 -30 62 -89 38z"/>
<path d="M21990 11413 c-8 -3 -32 -22 -52 -41 -31 -29 -38 -43 -38 -73 0 -49
15 -88 48 -121 30 -32 56 -36 67 -10 13 27 27 122 28 187 2 53 0 60 -18 62
-11 1 -27 -1 -35 -4z"/>
<path d="M21336 11332 c-2 -4 4 -35 14 -67 45 -142 54 -261 29 -355 -16 -61
-93 -219 -122 -251 -46 -51 -133 -115 -197 -144 -77 -35 -140 -38 -188 -9
l-33 19 -22 -26 c-12 -15 -30 -29 -39 -32 -51 -18 15 -74 103 -88 125 -20 250
27 372 141 96 90 181 217 220 328 27 76 31 101 31 202 1 107 -1 119 -26 167
-17 31 -47 67 -74 87 -48 37 -59 42 -68 28z"/>
<path d="M14399 11198 c-63 -50 -175 -274 -233 -468 -40 -135 -58 -210 -66
-280 -5 -36 -14 -91 -21 -123 -17 -72 -7 -93 42 -89 42 3 69 28 69 61 0 43 41
260 67 356 30 112 124 344 163 404 16 26 45 61 65 79 38 36 40 43 25 73 -16
29 -62 24 -111 -13z"/>
<path d="M15791 11199 c-30 -40 -22 -71 25 -99 69 -43 180 -12 231 66 15 23
15 27 0 41 -14 14 -21 14 -81 -7 l-66 -24 -28 27 c-36 35 -53 34 -81 -4z"/>
<path d="M22637 11180 c-42 -27 -53 -42 -114 -166 -69 -141 -98 -180 -155
-207 -54 -25 -69 -24 -92 6 -16 22 -20 41 -19 80 4 87 -42 128 -167 146 -61 9
-78 16 -93 36 -19 25 -19 25 -145 19 -142 -6 -204 -25 -248 -77 -55 -65 0 -99
93 -57 89 40 233 37 233 -4 0 -7 8 -20 19 -30 20 -18 40 -14 83 17 24 18 31
18 58 7 54 -22 80 -64 81 -128 1 -73 19 -124 50 -139 41 -21 120 -16 176 12
89 45 141 112 238 308 104 211 105 242 2 177z"/>
<path d="M25188 11163 c-28 -19 -41 -37 -48 -67 -6 -22 -20 -66 -30 -97 -11
-31 -20 -70 -20 -86 0 -32 26 -63 53 -63 16 0 59 65 72 110 4 14 25 63 47 110
29 61 38 88 31 100 -16 25 -64 22 -105 -7z"/>
<path d="M24523 10915 c-23 -14 -73 -64 -111 -113 -39 -48 -83 -99 -99 -114
-30 -29 -80 -52 -87 -40 -2 4 11 47 30 96 19 48 34 96 32 105 -6 29 -59 24
-98 -8 -29 -25 -35 -37 -41 -87 -5 -33 -11 -82 -15 -110 -4 -32 -2 -66 6 -89
l12 -37 58 4 c46 3 66 11 101 38 73 56 109 92 155 157 42 57 84 92 132 107 21
7 21 7 41 -85 4 -20 5 -56 1 -80 -8 -55 10 -90 57 -113 73 -35 171 -5 217 66
31 47 1 60 -90 37 -41 -11 -48 -10 -63 7 -26 27 -51 98 -51 143 0 44 -24 99
-54 123 -30 25 -84 22 -133 -7z"/>
<path d="M21918 10874 c-20 -10 -32 -29 -43 -65 -8 -29 -33 -85 -55 -126 -59
-109 -51 -130 33 -93 65 29 99 81 126 198 22 91 1 120 -61 86z"/>
<path d="M25045 10785 c-28 -15 -85 -71 -85 -84 1 -34 87 -55 164 -40 66 13
213 10 320 -6 120 -18 156 -19 210 -3 114 32 80 69 -89 92 -60 9 -143 21 -184
27 -41 6 -102 8 -137 4 -47 -5 -70 -3 -93 9 -38 20 -68 20 -106 1z"/>
<path d="M13869 10583 c-36 -33 -40 -40 -34 -67 4 -17 9 -97 11 -178 4 -178
15 -212 70 -227 21 -6 40 -8 43 -5 3 3 6 99 6 212 1 114 4 222 9 240 17 69
-41 83 -105 25z"/>
<path d="M14239 10229 c-156 -153 -198 -188 -237 -192 -37 -4 -87 -67 -77 -97
22 -69 128 -50 195 36 19 24 90 95 157 156 67 61 124 117 127 125 17 42 0 93
-30 93 -7 0 -68 -54 -135 -121z"/>
<path d="M12047 9705 c-43 -22 -66 -56 -67 -95 0 -48 -22 -75 -72 -92 -36 -13
-92 -14 -343 -7 -165 4 -365 13 -445 19 -186 14 -493 6 -542 -14 -49 -21 -81
-62 -67 -87 11 -22 11 -22 144 -9 101 10 405 14 460 5 92 -13 464 -26 614 -21
169 6 175 6 197 -15 19 -18 21 -25 12 -42 -34 -65 141 -79 257 -21 33 17 85
45 115 62 53 30 57 30 130 22 41 -5 280 -12 530 -15 250 -4 534 -9 630 -11
l175 -3 25 -31 c30 -37 64 -39 85 -6 19 28 52 43 117 52 44 6 48 4 59 -19 6
-14 29 -33 51 -43 37 -17 42 -17 106 0 45 12 75 14 91 8 22 -8 20 -10 -30 -30
-87 -34 -135 -43 -228 -43 -64 0 -99 5 -125 18 -30 14 -40 15 -54 5 -9 -7 -25
-15 -34 -18 -35 -12 -20 -44 29 -66 105 -46 297 -31 464 37 78 31 103 31 159
-5 25 -16 70 -43 100 -61 30 -17 71 -45 90 -61 117 -97 147 -125 164 -152 10
-17 35 -47 55 -66 60 -59 123 -132 154 -180 16 -25 43 -58 61 -75 17 -16 56
-59 86 -95 29 -36 97 -110 150 -165 53 -55 110 -120 127 -145 17 -25 58 -67
92 -95 33 -27 65 -62 70 -77 6 -16 15 -28 21 -28 5 0 37 -27 71 -60 33 -33 65
-60 70 -60 5 0 9 -7 9 -15 0 -9 12 -21 28 -27 15 -7 40 -23 55 -35 16 -13 35
-23 43 -23 7 0 16 -11 20 -25 4 -16 17 -28 38 -35 18 -6 50 -29 72 -51 21 -22
69 -60 107 -85 37 -24 67 -48 67 -53 0 -4 26 -21 58 -37 31 -15 62 -33 68 -39
77 -71 359 -254 391 -255 7 0 54 -19 105 -41 282 -126 384 -163 490 -175 56
-6 57 -7 43 -28 -37 -51 0 -115 90 -157 48 -22 231 -26 315 -7 49 11 54 10
113 -20 70 -35 304 -98 532 -142 22 -5 98 -20 170 -34 71 -14 149 -26 173 -26
39 0 44 -3 54 -30 5 -17 23 -37 39 -45 27 -14 29 -14 45 10 9 14 22 42 29 63
11 31 23 42 76 69 38 20 79 33 102 33 30 0 37 4 37 19 0 11 -12 29 -27 41 -23
18 -35 20 -73 15 -46 -7 -133 -46 -145 -66 -4 -6 -27 -19 -52 -30 -43 -18 -45
-18 -86 1 -40 19 -78 28 -317 80 -58 13 -182 42 -276 66 -94 23 -208 49 -252
56 -80 12 -82 13 -82 40 0 34 -64 85 -119 93 -20 4 -47 12 -61 19 -14 7 -38
12 -55 10 -199 -18 -190 -19 -218 10 -14 14 -31 26 -37 26 -7 0 -23 8 -36 19
-13 10 -61 33 -106 51 -46 18 -139 56 -208 85 -69 28 -152 62 -185 75 -33 12
-67 29 -76 36 -8 8 -20 14 -25 14 -16 0 -172 101 -271 176 -51 38 -119 86
-153 107 -33 21 -106 75 -162 120 -56 45 -126 101 -157 124 -167 126 -310 265
-504 493 -54 63 -118 135 -142 160 -47 49 -154 177 -198 237 -42 58 -194 230
-265 300 -67 66 -140 119 -235 168 -32 17 -67 44 -80 62 -20 30 -71 56 -122
65 -23 4 -33 44 -16 61 22 22 12 52 -24 71 -19 11 -38 16 -42 12 -7 -7 8 -20
32 -29 6 -3 7 -8 3 -12 -4 -4 -21 -2 -37 5 -37 15 -81 10 -185 -19 -85 -24
-107 -22 -56 4 46 24 134 45 186 45 60 0 54 19 -12 38 -98 28 -134 27 -230
-11 -49 -19 -129 -47 -177 -62 -84 -26 -92 -27 -175 -17 -145 19 -547 31
-1035 33 l-339 2 2 51 c3 74 4 73 -42 107 -40 29 -47 31 -100 25 -50 -5 -59
-3 -68 14 -13 24 -44 26 -83 5z m226 -109 c8 -21 -30 -51 -105 -86 -86 -38
-100 -39 -92 -2 9 35 16 43 61 60 21 7 54 20 73 27 45 18 57 18 63 1z m-81
-168 c-29 -29 -197 -69 -215 -52 -11 11 6 36 33 48 32 13 195 17 182 4z"/>
<path d="M14569 9389 c-16 -10 4 -37 38 -50 54 -20 369 -52 643 -65 69 -3 148
-7 175 -9 345 -20 449 -27 555 -36 69 -6 170 -13 225 -15 55 -2 118 -7 139 -9
22 -3 63 0 93 6 61 14 70 9 87 -43 32 -96 191 -105 373 -21 69 32 79 34 121
24 82 -18 206 -28 602 -51 314 -18 356 -21 415 -30 79 -13 201 -12 248 1 91
25 -2 75 -155 84 -51 3 -169 12 -263 20 -93 8 -215 17 -270 20 -55 3 -154 10
-220 15 -66 6 -179 12 -250 13 -118 3 -135 6 -186 30 -43 22 -82 30 -170 39
-114 12 -115 11 -189 -16 -87 -32 -76 -31 -160 -12 -69 15 -304 36 -411 36
-57 0 -69 3 -89 25 -28 30 -76 33 -141 9 -33 -12 -62 -14 -114 -9 -38 3 -171
12 -295 20 -124 8 -290 19 -370 25 -163 12 -412 11 -431 -1z m2121 -169 c0 -5
-7 -10 -16 -10 -8 0 -12 5 -9 10 3 6 10 10 16 10 5 0 9 -4 9 -10z"/>
<path d="M18523 9185 c-71 -20 -150 -61 -163 -84 -5 -11 -10 -33 -10 -50 0
-26 5 -32 33 -39 28 -7 32 -13 35 -44 5 -54 37 -79 119 -88 37 -5 90 -16 117
-24 56 -18 181 -21 223 -5 32 12 93 67 93 85 0 6 9 33 21 59 16 37 19 53 11
70 -11 23 -94 85 -115 85 -7 0 -27 9 -46 21 -45 27 -240 36 -318 14z m327 -75
c0 -17 -34 -59 -49 -60 -3 -1 -27 -2 -53 -4 -26 -2 -64 -14 -85 -26 -21 -12
-54 -28 -75 -35 -32 -12 -40 -11 -70 4 -18 10 -46 21 -62 25 l-29 7 31 32 31
31 24 -22 c27 -26 50 -28 68 -6 31 37 132 72 217 73 45 1 52 -2 52 -19z m-32
-102 c-5 -14 -136 -60 -158 -55 -8 2 8 11 35 20 28 10 61 24 75 32 31 18 53
19 48 3z"/>
<path d="M19097 9067 c-32 -9 -38 -14 -35 -36 2 -18 11 -27 33 -33 33 -9 168
-28 230 -33 22 -1 117 -12 210 -24 94 -12 229 -28 300 -36 72 -8 166 -19 210
-25 86 -11 121 -15 263 -29 51 -6 97 -13 103 -16 5 -4 51 -11 102 -15 51 -5
119 -14 152 -19 33 -6 105 -17 160 -25 55 -8 114 -19 130 -25 26 -9 121 -28
370 -71 28 -4 77 -15 110 -23 33 -8 94 -22 135 -31 41 -9 109 -23 150 -31 41
-9 104 -20 140 -26 36 -5 97 -15 135 -24 39 -8 104 -19 145 -25 41 -6 106 -18
144 -27 38 -8 112 -19 165 -23 53 -5 120 -14 149 -20 64 -14 116 -6 135 20 12
18 19 19 73 10 32 -6 123 -10 202 -10 129 0 144 -2 162 -20 11 -11 20 -23 20
-27 0 -5 -30 -24 -67 -43 -130 -67 -233 -212 -292 -410 -12 -41 -33 -109 -47
-150 -13 -42 -24 -83 -24 -93 0 -10 -9 -46 -19 -80 -11 -34 -24 -80 -29 -102
-16 -68 -52 -196 -83 -290 -17 -49 -38 -120 -48 -156 -24 -86 -136 -310 -205
-407 -149 -211 -408 -445 -570 -517 -111 -49 -122 -50 -326 -9 -102 20 -225
43 -275 51 -49 8 -100 17 -112 19 -13 2 -30 18 -38 34 -11 21 -23 30 -41 30
-21 0 -24 4 -19 20 9 30 -51 53 -140 54 -57 0 -77 -4 -105 -22 -19 -12 -54
-31 -78 -43 l-42 -20 -88 26 c-132 39 -182 52 -242 66 -30 6 -71 20 -90 30
-19 11 -48 19 -65 19 -33 0 -165 33 -186 46 -8 4 -34 11 -59 15 -25 4 -88 16
-142 28 -53 11 -136 25 -185 30 -65 7 -106 18 -150 39 -33 16 -77 32 -97 35
-20 3 -50 17 -65 30 -40 33 -119 43 -163 21 -53 -26 -88 -65 -88 -95 0 -32
-11 -41 -60 -49 -29 -4 -36 -10 -38 -32 -5 -38 27 -65 85 -73 26 -3 65 -15 86
-26 48 -26 182 -41 248 -29 31 6 69 24 102 48 76 56 73 55 125 38 26 -8 97
-24 158 -35 183 -33 272 -57 429 -116 39 -15 106 -30 150 -35 44 -5 101 -17
126 -28 26 -11 93 -25 155 -32 91 -9 113 -15 134 -35 14 -12 50 -35 80 -50 30
-14 71 -35 91 -46 19 -10 56 -22 82 -25 45 -6 49 -5 101 40 l54 46 69 -35 c37
-19 76 -35 86 -35 9 0 59 -11 111 -25 160 -43 359 -30 484 31 82 40 206 137
331 258 254 248 386 453 487 756 56 169 57 172 77 225 20 52 34 100 42 150 7
43 14 69 70 262 19 67 35 132 35 145 0 13 7 32 15 42 8 11 15 27 15 35 0 9 16
57 36 108 39 103 96 176 170 219 l44 26 28 -29 c20 -22 40 -31 77 -36 28 -4
72 -14 98 -23 73 -24 173 -16 225 19 51 33 77 79 62 107 -14 26 -30 25 -90 -5
-61 -31 -62 -31 -48 0 20 44 -1 48 -89 15 -45 -16 -97 -30 -115 -31 -37 -3
-81 17 -75 34 2 6 31 26 66 44 55 30 71 34 149 36 81 2 87 1 87 -18 0 -15 6
-19 25 -17 14 2 48 4 77 5 28 2 57 8 65 14 8 6 56 9 128 7 161 -4 381 13 462
37 63 18 77 19 215 8 125 -11 155 -10 192 2 58 19 73 42 44 70 -37 37 -237 44
-669 24 -198 -9 -378 -20 -400 -25 -61 -15 -120 -12 -135 6 -21 25 -71 47
-124 55 -27 4 -68 10 -91 14 -34 6 -54 1 -125 -30 l-84 -38 -95 13 c-52 6
-108 14 -125 16 -87 11 -525 13 -571 3 -45 -10 -65 -8 -165 15 -63 15 -134 31
-159 36 -25 5 -79 16 -120 24 -41 9 -122 22 -180 30 -115 15 -336 58 -416 81
-28 8 -63 15 -78 15 -16 0 -55 7 -88 15 -33 9 -87 20 -121 25 -34 5 -111 18
-172 29 -167 30 -237 41 -275 46 -103 12 -198 25 -220 29 -14 2 -62 9 -108 15
-45 5 -87 13 -92 16 -5 3 -60 10 -122 14 -122 10 -313 33 -473 56 -55 8 -167
22 -250 30 -82 9 -157 17 -165 19 -8 2 -32 -1 -53 -7z m4173 -601 c0 -3 -4 -8
-10 -11 -5 -3 -10 -1 -10 4 0 6 5 11 10 11 6 0 10 -2 10 -4z m-4073 -1917 c38
-7 62 -16 60 -22 -2 -6 -30 -22 -62 -35 -43 -17 -68 -22 -97 -17 -49 9 -58 28
-28 61 27 27 38 28 127 13z m191 -57 c4 -13 -90 -62 -121 -62 -26 0 -12 17 41
51 48 30 72 33 80 11z m1470 -204 c-5 -13 -67 -33 -75 -24 -6 6 47 35 65 36 8
0 12 -5 10 -12z m72 -111 l35 -15 -28 -11 c-36 -14 -53 -14 -94 1 -38 14 -43
35 -10 47 22 8 30 6 97 -22z"/>
<path d="M20350 5673 c-117 -24 -185 -74 -233 -168 -45 -91 -82 -267 -60 -289
4 -4 8 -22 9 -41 0 -27 11 -44 45 -78 24 -23 53 -58 64 -77 24 -42 136 -110
192 -116 49 -7 128 31 128 61 0 16 -8 21 -35 23 -76 5 -168 36 -222 73 -41 29
-88 107 -88 147 0 32 33 102 48 102 3 0 27 -20 52 -45 35 -34 61 -50 101 -60
206 -55 497 54 453 169 -9 23 -34 20 -85 -12 -73 -46 -100 -54 -194 -63 -76
-7 -104 -5 -180 13 -108 25 -165 57 -165 94 0 33 78 116 134 144 74 35 238 24
381 -26 28 -10 55 -25 62 -33 9 -12 14 -13 24 -4 9 9 9 18 0 42 -17 39 -33 53
-116 95 -105 54 -213 70 -315 49z"/>
<path d="M20970 5599 c-33 -13 -59 -38 -78 -74 -20 -39 -18 -155 4 -196 23
-45 7 -77 -61 -124 -59 -40 -109 -99 -102 -119 2 -6 26 -10 54 -10 51 2 106
32 191 106 77 66 212 113 442 153 51 9 118 28 148 42 57 27 85 64 64 85 -13
13 -44 8 -292 -47 -63 -14 -125 -25 -139 -25 -13 0 -66 -21 -117 -46 -77 -38
-96 -44 -113 -34 -38 20 -17 110 44 189 40 50 43 71 17 94 -21 19 -27 20 -62
6z"/>
<path d="M21800 5184 c-90 -17 -178 -50 -208 -78 -60 -56 -244 -320 -299 -431
-41 -81 -89 -169 -119 -221 -45 -76 -20 -117 57 -93 35 11 51 24 77 64 29 42
33 56 28 88 -6 34 1 52 63 165 38 70 80 144 92 165 32 53 188 211 228 231 18
10 68 21 111 25 130 13 244 -15 256 -63 14 -58 -136 -176 -229 -179 -30 -1
-62 9 -112 33 -38 19 -73 39 -77 45 -4 5 -11 6 -15 1 -4 -5 -2 -11 5 -13 6 -3
12 -16 12 -29 0 -35 45 -101 82 -121 23 -12 56 -17 108 -17 67 0 82 4 139 34
43 23 80 54 112 92 73 88 75 136 6 210 -27 29 -53 42 -118 62 -89 27 -158 37
-199 30z"/>
<path d="M20968 5108 c-11 -31 53 -192 89 -226 19 -17 23 -29 18 -51 -4 -18
-1 -32 8 -39 16 -13 78 -19 95 -8 17 11 15 66 -4 88 -9 9 -51 68 -94 130 -73
108 -103 135 -112 106z"/>
<path d="M23271 5022 c-19 -9 -43 -29 -54 -43 -16 -22 -17 -30 -7 -49 11 -20
18 -22 68 -18 60 4 137 43 149 75 18 45 -89 70 -156 35z"/>
<path d="M22415 5001 c-72 -18 -122 -62 -146 -128 -5 -15 -23 -36 -39 -45 -23
-13 -30 -24 -30 -47 0 -16 5 -33 11 -36 6 -4 8 -26 4 -58 -6 -44 -3 -57 17
-87 37 -55 54 -51 87 22 28 62 28 64 11 93 -24 42 -10 85 44 140 38 37 52 44
99 50 30 4 69 4 85 0 37 -8 122 -95 122 -126 0 -27 -85 -106 -124 -115 -15 -3
-52 -3 -82 1 -55 7 -94 0 -94 -15 0 -5 15 -26 34 -46 32 -35 40 -38 99 -42 50
-3 72 0 103 16 88 46 124 104 124 200 0 49 -5 66 -28 98 -40 55 -95 94 -164
115 -63 20 -84 21 -133 10z"/>
<path d="M22935 4698 c-38 -19 -97 -66 -160 -127 -100 -97 -159 -134 -240
-153 -46 -11 -86 -44 -78 -64 7 -19 68 -44 107 -44 59 1 109 35 236 162 140
140 194 175 291 185 72 7 82 -2 73 -62 -12 -78 -65 -271 -88 -320 -39 -85 -50
-135 -33 -152 11 -12 19 -12 35 -4 11 6 29 11 39 11 33 0 43 15 63 96 37 142
71 259 80 276 15 27 12 103 -6 146 -17 45 -36 56 -118 71 -94 17 -135 13 -201
-21z"/>
<path d="M23641 4531 c-39 -16 -98 -60 -249 -188 -75 -63 -78 -113 -5 -113 43
0 70 14 102 54 78 97 160 159 221 168 25 3 25 2 21 -57 -2 -36 -12 -78 -26
-105 -34 -67 -39 -103 -20 -139 29 -58 83 -54 182 14 82 56 113 58 139 10 27
-50 38 -43 64 40 26 81 29 105 13 120 -26 27 -67 16 -160 -40 -140 -85 -154
-77 -107 65 29 86 27 135 -4 162 -28 26 -120 30 -171 9z"/>
<path d="M24265 4348 c-59 -34 -92 -90 -110 -182 -12 -63 -12 -83 -2 -102 7
-13 17 -20 23 -16 17 10 54 75 54 93 0 25 57 97 90 114 43 22 81 16 99 -17 13
-23 13 -34 2 -80 -32 -129 -158 -215 -232 -160 -46 34 -110 64 -124 58 -18 -6
-19 -27 -4 -79 11 -42 59 -78 137 -105 43 -14 46 -14 61 5 9 11 43 32 76 47
33 15 67 34 77 43 33 30 71 107 85 171 12 58 11 66 -6 101 -26 50 -98 121
-125 121 -11 0 -30 3 -41 5 -11 3 -38 -5 -60 -17z"/>
<path d="M25623 4007 c-65 -60 -122 -97 -148 -97 -13 0 -16 -6 -12 -22 5 -16
-4 -31 -34 -61 -50 -51 -51 -83 -1 -80 42 1 85 31 199 138 97 91 125 134 103
160 -21 26 -47 17 -107 -38z"/>
<path d="M24644 4026 c-35 -15 -77 -92 -89 -158 -5 -31 -2 -40 15 -50 11 -7
20 -23 20 -36 0 -32 59 -56 114 -47 66 10 165 49 246 97 95 56 106 60 121 42
15 -18 -3 -86 -43 -161 -46 -87 -37 -109 47 -108 l50 0 8 80 c4 44 18 112 32
152 31 88 32 117 3 137 -44 31 -91 20 -242 -54 -147 -72 -246 -104 -267 -83
-14 14 1 42 53 99 30 33 39 50 36 71 -3 24 -8 28 -38 30 -19 2 -49 -4 -66 -11z"/>
<path d="M25403 3934 c-6 -17 14 -36 32 -31 6 2 11 13 13 25 3 17 -2 22 -18
22 -11 0 -23 -7 -27 -16z"/>
<path d="M25730 3804 c0 -19 51 -80 94 -111 63 -48 104 -11 45 39 -19 16 -49
43 -66 59 -36 32 -73 39 -73 13z"/>
</g>
</svg>
