<?xml version="1.0" standalone="no"?>
<!DOCTYPE svg PUBLIC "-//W3C//DTD SVG 20010904//EN"
 "http://www.w3.org/TR/2001/REC-SVG-20010904/DTD/svg10.dtd">
<svg version="1.0" xmlns="http://www.w3.org/2000/svg"
 width="2448.000000pt" height="3264.000000pt" viewBox="0 0 2448.000000 3264.000000"
 preserveAspectRatio="xMidYMid meet">
<metadata>
Created by potrace 1.12, written by Peter Selinger 2001-2015
</metadata>
<g transform="translate(0.000000,3264.000000) scale(0.100000,-0.100000)"
fill="#000000" stroke="none">
<path d="M796 32608 c-13 -18 -39 -60 -57 -93 -17 -33 -38 -67 -46 -76 -7 -9
-16 -39 -20 -67 -5 -45 -3 -51 18 -65 21 -13 35 -13 118 -1 119 18 123 16 115
-77 -5 -49 -3 -73 6 -84 15 -18 82 -20 112 -4 19 10 20 17 13 81 -5 55 -3 73
8 86 9 10 18 33 22 53 6 31 3 39 -17 53 -21 15 -23 25 -26 121 l-4 105 -108 0
-109 0 -25 -32z m128 -24 c24 -23 22 -135 -2 -164 -17 -21 -21 -22 -55 -11
-33 11 -37 16 -37 46 0 20 9 45 23 62 12 15 28 40 35 56 14 32 15 32 36 11z"/>
<path d="M1705 32613 c-14 -58 -79 -223 -136 -345 -287 -617 -779 -1126 -1362
-1407 -26 -12 -82 -38 -125 -56 l-77 -34 -3 -51 -3 -51 28 7 c74 18 231 79
252 98 9 8 32 21 51 30 19 9 67 34 105 55 39 22 90 51 115 65 25 14 70 45 100
70 30 25 79 62 108 82 28 20 52 40 52 45 0 4 17 18 37 30 73 45 301 271 340
337 14 23 28 42 31 42 4 0 34 34 67 76 33 42 80 102 105 133 25 31 50 63 55
72 6 9 27 42 48 73 107 161 299 593 317 714 l7 42 -53 0 c-48 0 -52 -2 -59
-27z"/>
<path d="M2590 32615 c0 -13 5 -36 12 -50 10 -21 9 -27 -7 -39 -15 -10 -20
-32 -24 -97 -4 -46 -10 -90 -15 -98 -5 -7 -10 -43 -12 -80 -1 -36 -15 -104
-29 -151 -15 -47 -29 -96 -31 -110 -14 -79 -30 -139 -46 -165 -9 -16 -20 -50
-24 -75 -4 -25 -15 -57 -25 -72 -11 -14 -19 -34 -19 -44 0 -9 -11 -31 -23 -48
-13 -17 -35 -58 -48 -91 -28 -68 -83 -170 -143 -265 -23 -35 -48 -80 -57 -100
-9 -19 -35 -57 -58 -84 -23 -26 -66 -80 -95 -120 -29 -39 -81 -99 -116 -131
-34 -33 -71 -77 -81 -97 -11 -21 -23 -38 -27 -38 -4 0 -34 -25 -67 -55 -32
-30 -63 -55 -68 -55 -5 0 -43 -32 -83 -72 -41 -39 -90 -81 -109 -92 -19 -12
-87 -56 -151 -99 -64 -44 -131 -84 -148 -89 -17 -6 -38 -16 -46 -23 -30 -23
-200 -104 -251 -119 -29 -9 -62 -22 -73 -30 -12 -7 -64 -26 -116 -41 -52 -15
-104 -32 -115 -38 -29 -15 -74 -25 -286 -60 -48 -8 -93 -18 -99 -22 -7 -5 -35
-7 -62 -6 l-48 1 0 -59 0 -60 37 6 c61 8 262 44 348 62 79 16 280 80 387 122
83 32 337 158 394 194 30 19 58 35 63 35 5 0 29 15 53 33 24 17 84 61 133 97
143 102 350 280 360 308 3 9 28 35 55 56 28 22 50 44 50 50 0 6 28 40 61 76
33 36 71 81 84 102 14 20 29 39 35 43 6 3 20 25 31 48 12 23 32 53 44 67 13
14 33 45 46 70 12 25 34 61 49 80 14 19 39 62 55 95 16 33 39 77 52 97 12 21
29 54 36 75 8 21 26 67 40 103 14 36 35 92 47 125 12 33 28 71 35 85 13 24 30
95 42 170 3 19 10 41 16 48 6 7 16 59 23 115 7 56 17 129 24 162 6 33 14 98
16 145 3 47 10 89 15 95 12 12 11 102 -1 110 -6 4 -8 11 -5 16 4 5 -3 9 -14 9
-16 0 -21 -6 -21 -25z"/>
<path d="M1397 32503 c-4 -3 -7 -17 -7 -29 0 -44 110 -78 134 -41 9 15 6 23
-22 48 -31 28 -88 40 -105 22z"/>
<path d="M1284 32272 c-17 -11 -34 -48 -34 -76 0 -20 9 -29 46 -46 26 -11 55
-20 65 -20 22 0 52 52 47 83 -6 40 -91 81 -124 59z"/>
<path d="M1117 31993 c-30 -29 33 -107 82 -101 21 2 27 9 29 34 2 25 -3 37
-24 53 -26 20 -74 28 -87 14z"/>
<path d="M63 31943 l-63 -4 0 -71 c0 -67 1 -70 18 -55 14 13 28 14 87 7 140
-18 165 -9 165 59 0 70 -15 75 -207 64z"/>
<path d="M937 31759 c-22 -30 -10 -57 39 -85 35 -20 47 -23 63 -14 32 16 25
44 -19 84 -46 41 -63 44 -83 15z"/>
<path d="M0 31638 c0 -43 4 -78 8 -78 5 0 17 9 26 19 42 46 109 24 126 -40 32
-118 -49 -205 -120 -129 -15 17 -31 30 -34 30 -3 0 -6 -34 -6 -75 0 -74 0 -76
33 -95 38 -23 106 -26 145 -6 70 37 102 103 102 213 0 97 -13 144 -51 188 -38
43 -76 55 -161 52 l-68 -2 0 -77z"/>
<path d="M742 31558 c-20 -20 -14 -54 14 -81 33 -33 61 -42 79 -27 24 20 18
46 -19 84 -35 38 -54 44 -74 24z"/>
<path d="M520 31349 c-10 -18 -8 -28 17 -63 23 -32 35 -41 58 -41 25 0 31 5
33 25 7 65 -82 129 -108 79z"/>
<path d="M315 31213 c-37 -19 -45 -31 -45 -63 0 -29 54 -100 77 -100 25 0 73
40 73 61 0 33 -51 120 -69 119 -3 -1 -19 -8 -36 -17z"/>
<path d="M34 31055 c-15 -39 35 -128 69 -123 53 7 17 138 -38 138 -14 0 -28
-7 -31 -15z"/>
<path d="M538 29202 c-28 -3 -40 -22 -15 -22 6 0 22 -3 35 -6 16 -5 22 -2 22
9 0 20 -8 24 -42 19z"/>
<path d="M775 29165 c-29 -28 -29 -21 -10 -245 9 -96 17 -303 20 -459 2 -159
8 -288 13 -293 6 -6 18 -8 28 -6 15 2 20 14 22 58 2 30 9 58 15 62 11 7 2688
3 4229 -6 439 -3 690 -1 694 5 4 6 11 6 19 -1 9 -7 100 -10 282 -9 324 1 265
2 573 -5 547 -12 857 -14 900 -6 26 5 50 4 56 -1 13 -11 401 -14 427 -4 10 4
17 15 15 24 -4 19 -110 36 -137 22 -10 -6 -25 -5 -38 2 -14 8 -49 10 -100 6
-54 -4 -86 -1 -104 7 -21 11 -30 11 -44 0 -13 -9 -45 -11 -114 -8 -53 3 -159
4 -236 4 -77 -1 -147 -1 -155 -1 -8 0 -58 2 -110 4 -52 2 -140 4 -195 4 -55 0
-118 -1 -139 -1 -21 0 -49 6 -62 13 -17 9 -30 9 -46 2 -13 -6 -52 -9 -87 -7
-45 3 -71 -1 -86 -10 -17 -11 -25 -12 -34 -3 -7 7 -66 12 -169 14 -86 1 -209
4 -272 5 -91 2 -117 0 -126 -12 -10 -12 -14 -12 -28 0 -13 10 -62 14 -194 16
-234 4 -224 3 -249 16 -17 8 -26 8 -37 -1 -19 -16 -107 -22 -124 -8 -7 5 -35
7 -70 2 -52 -6 -92 -8 -139 -6 -10 1 -51 1 -92 0 -40 0 -95 5 -121 11 -40 10
-53 9 -77 -4 -23 -11 -39 -13 -72 -5 -24 5 -93 9 -155 8 -61 -1 -156 -2 -211
-1 -55 0 -118 0 -140 0 -35 1 -285 0 -355 0 -14 0 -36 1 -50 2 -14 1 -89 1
-168 1 -79 -1 -152 4 -162 9 -13 7 -42 7 -87 0 -88 -13 -225 -13 -258 0 -20 7
-34 6 -57 -6 -23 -12 -37 -13 -57 -6 -15 6 -189 11 -431 11 -223 1 -552 1
-732 2 -204 1 -330 5 -334 11 -4 6 -26 7 -58 2 -28 -4 -85 -6 -126 -4 -152 6
-188 4 -228 -14 -29 -13 -45 -15 -59 -8 -35 19 -53 142 -54 390 -1 114 2 146
14 160 8 9 17 26 19 37 4 23 44 33 61 16 6 -6 21 -11 32 -11 12 0 25 -3 29 -7
4 -4 71 -9 149 -11 195 -5 218 -4 234 9 10 9 17 8 31 -4 15 -13 44 -15 192
-13 96 2 183 7 193 11 9 4 25 4 35 0 9 -4 72 -7 139 -7 68 0 125 -4 128 -9 4
-5 17 -2 31 7 22 15 24 15 18 0 -8 -20 14 -21 36 -1 16 15 59 10 171 -20 21
-5 27 -3 32 15 4 17 10 20 34 14 15 -4 36 -14 46 -22 15 -14 19 -13 35 0 22
20 119 29 152 15 34 -14 93 -16 162 -4 46 8 60 6 79 -6 14 -11 28 -13 38 -7
22 11 124 16 140 6 6 -4 17 -3 24 2 7 5 30 12 51 15 30 5 42 2 52 -11 10 -14
15 -15 37 -3 39 21 330 11 355 -12 30 -27 74 -19 51 10 -9 10 -5 13 19 13 17
0 34 -5 38 -11 4 -7 21 -9 42 -5 20 3 41 1 48 -5 8 -7 27 -6 58 2 26 6 59 9
74 6 15 -2 54 -1 87 3 33 4 67 4 76 -1 10 -5 24 -2 37 7 22 15 61 10 130 -17
27 -11 36 -11 54 0 43 27 80 32 106 15 18 -12 30 -13 46 -6 13 5 45 6 80 1 33
-4 67 -4 75 0 13 7 127 7 181 -1 8 -1 25 2 37 6 16 5 28 1 42 -13 25 -25 37
-26 57 -6 11 10 35 14 89 13 41 -1 77 1 81 5 10 10 68 9 79 -2 6 -5 28 -12 51
-16 31 -5 44 -2 54 9 15 19 37 20 70 1 17 -9 29 -10 37 -3 7 6 32 8 55 4 53
-7 50 -7 123 -2 33 3 116 6 185 7 69 1 132 5 140 10 9 4 32 -1 54 -12 33 -16
45 -17 76 -8 28 9 47 8 74 -1 19 -6 45 -9 55 -5 11 3 30 1 41 -5 17 -9 24 -8
33 4 13 18 18 18 281 17 94 0 173 2 177 4 4 3 26 -2 49 -10 33 -11 61 -13 124
-7 44 4 115 6 156 4 41 -1 116 -2 165 -1 117 2 66 2 655 -5 283 -4 569 -8 635
-10 66 -2 153 0 193 4 51 6 88 4 124 -6 33 -8 56 -10 63 -4 6 5 40 9 76 9 35
0 78 4 96 9 25 8 35 7 44 -4 9 -11 30 -13 98 -9 47 3 120 2 161 -3 56 -7 85
-6 113 4 32 11 44 11 71 0 24 -10 47 -11 86 -5 29 4 58 5 64 2 9 -6 557 -12
1031 -11 88 0 174 0 190 0 17 0 127 -3 245 -6 118 -3 226 -6 240 -6 34 -1 469
-3 500 -2 14 0 59 0 100 0 41 0 86 0 100 0 73 3 257 4 430 3 107 -1 251 -2
319 -2 68 1 127 -2 133 -5 5 -3 84 -5 176 -4 243 2 237 2 237 25 0 19 -7 20
-250 22 -285 1 -803 4 -825 4 -8 -1 -109 3 -225 8 -115 4 -408 9 -650 10 -242
1 -577 4 -745 7 -168 2 -602 6 -965 10 -769 6 -1138 11 -1395 19 -167 4 -2748
15 -3550 15 -179 0 -334 0 -345 0 -11 1 -576 3 -1255 5 -679 3 -1332 7 -1450
9 -363 8 -768 8 -780 1 -11 -7 -63 5 -117 26 -21 8 -23 15 -23 72 0 35 5 68
11 74 14 14 3 33 -17 33 -8 0 -26 -11 -39 -25z"/>
<path d="M959 29179 c-19 -11 -2 -39 24 -39 14 0 30 7 37 15 11 13 16 12 44
-2 57 -30 200 -13 167 20 -9 9 -257 15 -272 6z"/>
<path d="M1257 29174 c-3 -3 -3 -12 0 -20 6 -16 41 -18 62 -5 11 7 10 11 -7
20 -23 12 -45 14 -55 5z"/>
<path d="M1380 29160 c0 -5 5 -10 11 -10 5 0 7 5 4 10 -3 6 -8 10 -11 10 -2 0
-4 -4 -4 -10z"/>
<path d="M1565 29150 c-3 -5 3 -10 14 -10 12 0 21 5 21 10 0 6 -6 10 -14 10
-8 0 -18 -4 -21 -10z"/>
<path d="M2470 29150 c0 -5 7 -10 15 -10 8 0 15 5 15 10 0 6 -7 10 -15 10 -8
0 -15 -4 -15 -10z"/>
<path d="M2740 29140 c0 -5 5 -10 10 -10 6 0 10 5 10 10 0 6 -4 10 -10 10 -5
0 -10 -4 -10 -10z"/>
<path d="M13433 28883 c-3 -8 0 -19 8 -24 21 -13 114 -16 454 -16 132 0 278
-1 325 -1 64 -1 517 -2 650 -2 8 0 103 -1 210 -3 178 -3 280 6 280 24 0 15
-128 19 -680 24 -316 3 -725 7 -908 9 -290 4 -334 2 -339 -11z"/>
<path d="M15440 28873 c-43 -7 -54 -13 -43 -24 14 -14 250 -19 283 -7 20 8 22
11 10 17 -16 9 -209 19 -250 14z"/>
<path d="M15763 28873 c-22 -8 -14 -32 13 -39 36 -9 56 12 30 32 -21 15 -24
15 -43 7z"/>
<path d="M15843 28864 c-28 -20 9 -32 115 -36 73 -3 108 -1 120 8 13 9 14 16
6 24 -15 15 -222 19 -241 4z"/>
<path d="M16133 28863 c-47 -16 45 -48 96 -33 18 5 39 6 48 3 34 -13 88 -7 91
10 2 12 -4 17 -20 18 -113 4 -205 5 -215 2z"/>
<path d="M16413 28863 c-19 -7 -16 -21 8 -33 27 -15 119 -3 119 15 0 18 -94
32 -127 18z"/>
<path d="M16591 28856 c-11 -13 -6 -17 29 -26 38 -10 430 -22 600 -19 41 1 84
2 95 1 140 -4 671 -15 735 -14 115 1 238 1 340 0 113 -1 318 10 330 17 19 12
-1 25 -33 23 -18 -1 -79 2 -137 5 -58 4 -368 9 -690 12 -322 3 -736 7 -921 10
-290 5 -337 4 -348 -9z"/>
<path d="M18793 28833 c-24 -9 -13 -21 31 -32 25 -6 52 -11 60 -11 21 0 21 36
0 44 -18 7 -73 7 -91 -1z"/>
<path d="M18925 28830 c-4 -7 -3 -16 3 -22 14 -14 45 -2 40 15 -6 16 -34 21
-43 7z"/>
<path d="M19163 28833 c-20 -7 -15 -31 7 -38 21 -7 40 0 40 15 0 13 -32 28
-47 23z"/>
<path d="M19075 28820 c-8 -13 20 -24 40 -16 8 3 15 10 15 16 0 13 -47 13 -55
0z"/>
<path d="M19255 28820 c-4 -7 -3 -16 3 -22 14 -14 47 -6 47 12 0 18 -40 26
-50 10z"/>
<path d="M19346 28823 c-17 -18 -2 -25 44 -21 27 3 53 1 59 -5 11 -11 31 -1
31 17 0 9 -19 13 -64 14 -35 1 -66 -2 -70 -5z"/>
<path d="M19515 28821 c-12 -20 6 -31 46 -31 33 0 40 3 37 18 -4 20 -72 30
-83 13z"/>
<path d="M19721 28821 c-19 -12 -4 -31 25 -31 14 0 33 -4 43 -10 13 -6 24 -5
37 4 15 12 16 16 5 30 -15 17 -86 22 -110 7z"/>
<path d="M19964 28809 c-8 -13 15 -30 36 -26 8 1 16 10 18 20 3 12 -3 17 -22
17 -14 0 -28 -5 -32 -11z"/>
<path d="M20344 28805 c-8 -19 12 -36 33 -28 19 7 12 37 -10 41 -9 2 -20 -4
-23 -13z"/>
<path d="M20748 28800 l-23 -18 27 -7 c30 -8 48 0 48 20 0 22 -28 25 -52 5z"/>
<path d="M20245 28800 c-3 -5 1 -10 10 -10 9 0 13 5 10 10 -3 6 -8 10 -10 10
-2 0 -7 -4 -10 -10z"/>
<path d="M20440 28795 c0 -8 7 -15 15 -15 8 0 15 7 15 15 0 8 -7 15 -15 15 -8
0 -15 -7 -15 -15z"/>
<path d="M20924 28796 c-3 -8 -3 -20 1 -26 8 -12 55 -13 74 -1 8 5 26 5 43 -1
21 -8 37 -7 55 1 41 19 16 30 -80 36 -72 5 -88 3 -93 -9z"/>
<path d="M20603 28788 c2 -7 10 -13 17 -13 7 0 15 6 18 13 2 7 -5 12 -18 12
-13 0 -20 -5 -17 -12z"/>
<path d="M20690 28790 c0 -5 5 -10 10 -10 6 0 10 5 10 10 0 6 -4 10 -10 10 -5
0 -10 -4 -10 -10z"/>
<path d="M21215 28789 c-10 -15 1 -23 20 -15 9 3 13 10 10 16 -8 13 -22 13
-30 -1z"/>
<path d="M21524 28789 c-10 -17 13 -36 27 -22 12 12 4 33 -11 33 -5 0 -12 -5
-16 -11z"/>
<path d="M519 28761 c-16 -16 -29 -40 -29 -54 0 -34 33 -61 64 -53 22 5 25 3
23 -21 -2 -25 2 -28 34 -31 31 -3 40 2 59 28 67 94 -69 212 -151 131z"/>
<path d="M21300 28780 c0 -5 7 -10 15 -10 8 0 15 5 15 10 0 6 -7 10 -15 10 -8
0 -15 -4 -15 -10z"/>
<path d="M22455 28770 c-3 -5 1 -10 9 -10 9 0 16 5 16 10 0 6 -4 10 -9 10 -6
0 -13 -4 -16 -10z"/>
<path d="M22620 28760 c0 -5 7 -10 15 -10 8 0 15 5 15 10 0 6 -7 10 -15 10 -8
0 -15 -4 -15 -10z"/>
<path d="M23174 28759 c-9 -15 12 -33 30 -26 9 4 16 13 16 22 0 17 -35 21 -46
4z"/>
<path d="M23315 28760 c-4 -7 -3 -16 2 -21 12 -12 45 0 40 15 -5 15 -34 19
-42 6z"/>
<path d="M23510 28755 c0 -8 9 -15 20 -15 11 0 20 7 20 15 0 8 -9 15 -20 15
-11 0 -20 -7 -20 -15z"/>
<path d="M23626 28752 c-3 -6 -1 -14 5 -17 15 -10 25 3 12 16 -7 7 -13 7 -17
1z"/>
<path d="M8242 28311 c-7 -4 -42 -7 -77 -6 -50 2 -68 -1 -80 -15 -14 -16 -14
-18 1 -31 12 -10 85 -14 332 -16 175 -1 466 -5 647 -9 182 -4 402 -6 490 -5
194 3 224 3 394 1 73 0 136 1 139 4 2 3 2 12 -1 20 -5 12 -28 15 -122 15 -64
0 -119 2 -123 5 -4 2 -27 0 -52 -4 -27 -5 -75 -4 -120 2 -67 9 -180 13 -660
21 -74 1 -172 -2 -216 -6 -53 -5 -97 -4 -125 3 -24 7 -51 11 -59 11 -8 0 -83
-3 -166 -5 -126 -5 -154 -3 -164 9 -14 17 -20 18 -38 6z"/>
<path d="M10170 28271 c-36 -5 -45 -10 -45 -25 0 -19 9 -20 150 -22 166 -3
205 1 205 21 0 19 -47 27 -132 24 -40 -2 -86 0 -103 3 -16 3 -50 2 -75 -1z"/>
<path d="M10573 28255 c-29 -21 12 -39 97 -41 96 -4 135 6 135 32 0 18 -8 19
-108 20 -65 0 -115 -4 -124 -11z"/>
<path d="M10857 28253 c-25 -25 41 -42 153 -40 78 2 95 5 98 18 2 12 -8 18
-44 23 -61 8 -199 8 -207 -1z"/>
<path d="M11188 28252 c-25 -2 -38 -8 -38 -18 0 -17 -10 -15 122 -19 106 -3
133 4 109 28 -10 10 -116 15 -193 9z"/>
<path d="M11435 28243 c-43 -11 -34 -20 19 -22 31 0 65 -6 76 -13 24 -15 46 2
36 27 -4 12 -12 14 -28 9 -25 -8 -33 -8 -63 -1 -11 3 -29 3 -40 0z"/>
<path d="M11694 28238 c-4 -5 -2 -14 4 -20 12 -12 44 -7 49 8 5 14 -45 25 -53
12z"/>
<path d="M12016 28243 c-2 -3 -31 -5 -63 -6 -44 -2 -58 -6 -58 -17 0 -11 11
-15 40 -14 82 3 152 3 205 1 44 -2 55 1 58 14 4 21 -26 33 -44 18 -10 -8 -18
-8 -26 -1 -12 10 -103 14 -112 5z"/>
<path d="M11600 28230 c0 -5 11 -10 25 -10 14 0 25 5 25 10 0 6 -11 10 -25 10
-14 0 -25 -4 -25 -10z"/>
<path d="M11830 28230 c0 -5 9 -10 20 -10 11 0 20 5 20 10 0 6 -9 10 -20 10
-11 0 -20 -4 -20 -10z"/>
<path d="M12338 28229 c-22 -14 5 -29 50 -29 52 0 78 12 67 29 -7 12 -98 12
-117 0z"/>
<path d="M12725 28226 c-18 -13 -18 -14 3 -25 30 -16 69 3 51 25 -14 18 -30
18 -54 0z"/>
<path d="M12935 28231 c-43 -4 -60 -10 -60 -21 0 -11 15 -15 60 -17 70 -2 95
3 95 22 0 10 -27 30 -33 23 -1 -1 -29 -4 -62 -7z"/>
<path d="M13145 28220 c-12 -19 5 -28 53 -28 52 1 82 15 60 29 -18 12 -106 11
-113 -1z"/>
<path d="M13320 28220 c-13 -9 -13 -11 0 -20 26 -17 140 -7 140 12 0 6 -9 8
-20 5 -11 -3 -23 -1 -26 4 -7 12 -75 11 -94 -1z"/>
<path d="M13580 28223 c-14 -3 -28 -8 -33 -12 -11 -11 58 -30 73 -21 13 8 7
41 -7 39 -4 -1 -19 -4 -33 -6z"/>
<path d="M13786 28223 c-4 -4 -22 -6 -41 -5 -19 2 -35 -2 -35 -8 0 -12 -4 -11
82 -15 75 -3 95 7 46 24 -36 13 -42 13 -52 4z"/>
<path d="M14221 28216 c-7 -8 -10 -20 -6 -26 7 -11 62 -12 109 -1 40 8 47 32
9 30 -15 -1 -44 1 -64 5 -26 6 -39 4 -48 -8z"/>
<path d="M13662 28209 c2 -6 8 -10 13 -10 5 0 11 4 13 10 2 6 -4 11 -13 11 -9
0 -15 -5 -13 -11z"/>
<path d="M13902 28213 c-18 -7 -4 -23 19 -23 12 0 19 5 17 12 -5 14 -18 18
-36 11z"/>
<path d="M14076 28213 c-11 -11 -6 -23 9 -23 8 0 15 4 15 9 0 13 -16 22 -24
14z"/>
<path d="M14127 28214 c-11 -11 3 -24 24 -24 12 0 19 5 17 13 -5 14 -31 21
-41 11z"/>
<path d="M14390 28205 c0 -8 7 -15 15 -15 8 0 15 7 15 15 0 8 -7 15 -15 15 -8
0 -15 -7 -15 -15z"/>
<path d="M14457 28214 c-12 -12 4 -24 34 -24 27 0 43 16 17 17 -7 0 -20 4 -29
7 -8 4 -18 4 -22 0z"/>
<path d="M14585 28206 c-16 -12 -16 -13 -1 -19 18 -7 46 1 46 13 0 15 -28 19
-45 6z"/>
<path d="M13988 28198 c9 -9 15 -9 24 0 9 9 7 12 -12 12 -19 0 -21 -3 -12 -12z"/>
<path d="M14830 28194 c0 -9 5 -14 12 -12 18 6 21 28 4 28 -9 0 -16 -7 -16
-16z"/>
<path d="M14880 28195 c0 -9 5 -15 11 -13 6 2 11 8 11 13 0 5 -5 11 -11 13 -6
2 -11 -4 -11 -13z"/>
<path d="M15330 28200 c0 -5 5 -10 10 -10 6 0 10 5 10 10 0 6 -4 10 -10 10 -5
0 -10 -4 -10 -10z"/>
<path d="M15393 28197 c2 -6 16 -11 32 -11 16 0 30 5 32 11 3 7 -10 11 -32 11
-22 0 -35 -4 -32 -11z"/>
<path d="M15158 28193 c6 -2 18 -2 25 0 6 3 1 5 -13 5 -14 0 -19 -2 -12 -5z"/>
<path d="M15940 28190 c0 -5 5 -10 10 -10 6 0 10 5 10 10 0 6 -4 10 -10 10 -5
0 -10 -4 -10 -10z"/>
<path d="M504 28176 c-18 -14 -18 -16 -3 -43 13 -22 18 -75 24 -268 4 -132 9
-265 10 -295 2 -30 6 -194 9 -365 4 -170 9 -366 11 -435 2 -69 7 -244 10 -390
3 -146 10 -422 15 -615 5 -192 12 -447 15 -565 11 -460 15 -610 20 -755 7
-226 14 -470 25 -890 5 -209 12 -429 15 -490 3 -60 12 -333 20 -605 8 -272 17
-544 20 -605 3 -60 7 -189 10 -285 9 -273 44 -1330 50 -1480 3 -74 10 -277 16
-450 5 -173 16 -511 24 -750 31 -918 50 -1515 70 -2145 8 -264 19 -613 25
-775 5 -162 14 -441 20 -620 22 -712 55 -1766 70 -2250 34 -1132 42 -1383 60
-1925 29 -875 39 -1179 50 -1465 12 -306 27 -733 35 -960 3 -91 10 -266 16
-390 8 -190 18 -478 45 -1260 2 -63 9 -223 15 -355 7 -132 13 -285 14 -340 2
-55 9 -282 17 -505 9 -223 15 -418 15 -435 0 -16 2 -79 6 -140 4 -60 9 -211
12 -335 3 -124 8 -263 10 -310 3 -47 7 -139 10 -205 14 -300 14 -305 43 -334
12 -12 11 -17 -8 -31 -22 -17 -22 -19 -15 -186 4 -93 9 -185 10 -204 7 -76 18
-300 19 -395 1 -55 5 -106 10 -113 4 -7 5 -25 2 -40 -8 -33 23 -348 42 -432 6
-25 15 -113 21 -195 l11 -150 -35 -30 c-28 -24 -33 -33 -23 -43 6 -6 22 -12
35 -12 12 0 40 -6 60 -14 87 -31 114 -37 192 -41 44 -2 85 -7 91 -10 16 -10
11 -77 -10 -122 -20 -46 -69 -75 -118 -70 -61 5 -251 -15 -269 -29 -17 -14
-17 -14 1 -29 16 -12 42 -14 130 -10 61 3 121 8 134 10 32 8 38 -17 17 -71
-16 -41 -16 -47 -1 -63 9 -10 16 -27 16 -39 0 -27 28 -42 80 -42 56 0 102 25
98 53 -4 29 -63 67 -105 67 -33 0 -34 1 -31 37 3 32 9 40 43 57 48 25 60 49
75 141 6 39 24 95 40 127 52 99 40 114 -70 97 -38 -6 -110 -11 -160 -12 -113
-2 -120 4 -120 107 0 39 -7 175 -15 301 -8 127 -17 282 -20 345 -3 63 -10 210
-15 325 -6 116 -15 341 -20 500 -6 160 -20 493 -30 740 -11 248 -27 605 -35
795 -8 190 -17 386 -20 435 -3 50 -12 248 -20 440 -8 193 -19 445 -25 560 -33
717 -56 1249 -75 1775 -8 228 -19 534 -25 680 -5 146 -12 337 -15 425 -3 88
-12 354 -20 590 -8 237 -19 594 -25 795 -6 201 -15 473 -20 605 -5 132 -12
359 -15 505 -3 146 -8 326 -10 400 -3 74 -10 297 -15 495 -5 198 -12 423 -15
500 -2 77 -7 237 -10 355 -3 118 -8 274 -10 345 -16 417 -25 705 -30 895 -3
118 -8 265 -10 325 -6 143 -17 459 -20 555 -2 83 -42 1179 -50 1360 -2 63 -7
192 -10 285 -3 94 -8 213 -10 265 -6 107 -11 250 -20 520 -3 102 -10 295 -15
430 -10 240 -25 685 -35 1005 -3 88 -10 268 -15 400 -5 132 -12 317 -15 410
-10 319 -25 700 -30 780 -2 44 -7 190 -10 325 -3 135 -7 277 -10 315 -3 39 -8
169 -11 290 -3 121 -8 254 -9 295 -2 41 -6 212 -9 380 -4 168 -9 328 -11 355
-5 45 -14 352 -45 1490 -5 204 -12 467 -15 585 -3 118 -7 287 -10 375 -3 88
-7 248 -10 355 -3 107 -9 377 -15 600 -5 223 -12 430 -16 460 -3 30 -1 68 5
83 8 20 8 56 0 125 -6 53 -12 177 -13 275 -2 164 -1 177 16 171 21 -6 58 28
58 55 0 24 -69 61 -113 61 -18 0 -42 -6 -53 -14z"/>
<path d="M16690 28180 c0 -5 7 -10 15 -10 8 0 15 5 15 10 0 6 -7 10 -15 10 -8
0 -15 -4 -15 -10z"/>
<path d="M16970 28180 c0 -5 6 -10 14 -10 8 0 18 5 21 10 3 6 -3 10 -14 10
-12 0 -21 -4 -21 -10z"/>
<path d="M17275 28181 c-3 -5 -1 -12 5 -16 12 -7 30 2 30 16 0 12 -27 12 -35
0z"/>
<path d="M17825 28170 c3 -5 8 -10 11 -10 2 0 4 5 4 10 0 6 -5 10 -11 10 -5 0
-7 -4 -4 -10z"/>
<path d="M19071 28171 c-10 -6 -9 -10 3 -14 8 -3 18 -2 21 3 8 13 -9 20 -24
11z"/>
<path d="M11560 28060 c0 -5 7 -10 15 -10 8 0 15 5 15 10 0 6 -7 10 -15 10 -8
0 -15 -4 -15 -10z"/>
<path d="M6093 27557 c-59 -33 -179 -235 -269 -454 -20 -48 -49 -118 -65 -155
-33 -75 -28 -108 15 -108 32 0 50 24 76 105 28 88 121 309 166 395 34 64 90
137 100 128 2 -3 11 -92 19 -199 24 -302 39 -359 107 -392 35 -17 39 -17 73
-1 96 45 139 149 181 434 8 58 17 120 21 137 10 57 -46 58 -74 1 -7 -13 -19
-72 -28 -129 -30 -201 -75 -332 -125 -359 -25 -13 -28 -13 -39 9 -16 29 -29
133 -41 316 -5 94 -15 191 -21 218 -15 63 -47 81 -96 54z"/>
<path d="M7172 27548 c-14 -14 -15 -102 -3 -223 9 -91 7 -96 -83 -144 l-44
-25 -42 38 c-53 48 -81 58 -160 58 -130 1 -262 -82 -236 -147 7 -19 50 -19 66
0 20 24 25 18 22 -29 -13 -165 135 -266 274 -187 40 23 56 41 77 83 14 29 29
65 31 79 4 16 21 36 46 53 51 33 63 33 56 -1 -3 -16 -7 -74 -8 -130 -3 -110 6
-138 40 -117 14 9 18 34 23 160 4 82 7 150 8 152 0 2 27 15 59 29 144 64 143
63 140 92 -4 36 -40 38 -119 7 -34 -15 -67 -26 -72 -26 -6 0 -7 45 -3 121 6
102 5 124 -9 145 -17 26 -44 31 -63 12z m-250 -384 c30 -9 68 -63 68 -98 0
-53 -50 -110 -108 -122 -68 -13 -108 37 -104 132 1 29 -2 55 -8 59 -47 29 72
51 152 29z"/>
<path d="M7718 26833 c-9 -10 -21 -29 -28 -42 -16 -30 -33 -289 -25 -368 7
-71 30 -102 63 -84 18 10 20 25 24 198 4 150 9 198 24 235 15 39 16 49 5 62
-18 21 -44 20 -63 -1z"/>
<path d="M7981 26756 c-7 -8 -11 -27 -9 -43 4 -34 41 -42 87 -18 34 17 43 58
15 69 -29 11 -81 6 -93 -8z"/>
<path d="M8515 26651 c-77 -19 -105 -53 -105 -127 0 -56 -15 -73 -50 -54 -21
11 -30 32 -30 69 0 28 -25 71 -41 71 -5 0 -30 -19 -54 -41 l-45 -42 0 41 c0
52 -30 92 -57 76 -25 -16 -31 -165 -8 -200 23 -36 69 -32 106 7 l30 32 33 -38
c32 -38 35 -39 117 -45 46 -4 101 -14 121 -23 54 -24 168 -23 199 2 20 16 21
21 10 35 -10 12 -32 16 -97 16 -45 0 -86 4 -89 10 -3 5 12 21 34 34 48 31 71
62 71 98 0 59 -71 98 -145 79z m63 -83 c-2 -14 -18 -31 -43 -45 -50 -28 -55
-28 -55 0 0 35 35 61 88 66 8 1 12 -7 10 -21z"/>
<path d="M7902 26557 c-18 -21 -24 -109 -10 -137 15 -28 42 -37 63 -20 19 16
31 136 15 155 -15 18 -54 20 -68 2z"/>
<path d="M9552 26513 c2 -10 10 -18 18 -18 8 0 16 8 18 18 2 12 -3 17 -18 17
-15 0 -20 -5 -18 -17z"/>
<path d="M7912 26200 c-22 -24 -115 -244 -138 -326 -15 -55 -37 -388 -27 -406
8 -15 40 -8 58 12 15 17 20 46 26 175 6 118 13 172 30 223 34 106 69 183 103
232 40 58 45 71 34 93 -12 23 -63 22 -86 -3z"/>
<path d="M4711 25912 c-19 -10 -43 -34 -53 -53 -20 -38 -24 -109 -6 -127 33
-33 84 7 73 57 -6 28 -3 33 26 49 17 9 43 27 58 38 22 19 23 24 12 38 -18 21
-68 20 -110 -2z"/>
<path d="M6432 25908 c-11 -14 -32 -190 -32 -269 0 -68 -12 -88 -60 -95 -56
-9 -100 -39 -100 -68 0 -38 25 -52 63 -37 70 28 68 29 65 -30 -3 -48 -1 -54
17 -54 16 0 25 14 42 65 23 70 23 70 126 90 65 13 88 37 61 65 -16 16 -32 16
-139 1 -11 -1 -12 -5 11 167 15 118 15 129 0 152 -18 27 -38 32 -54 13z"/>
<path d="M8068 25753 c-9 -10 -43 -76 -76 -146 -63 -132 -138 -239 -189 -269
-34 -20 -46 -15 -66 32 -9 19 -34 67 -55 106 -21 38 -46 89 -55 112 -20 49
-57 73 -82 52 -8 -7 -15 -21 -15 -32 0 -24 34 -91 75 -148 18 -25 45 -74 59
-109 35 -88 59 -111 111 -111 53 0 98 33 166 120 65 83 192 338 187 377 -4 34
-36 43 -60 16z"/>
<path d="M9991 25686 c-6 -7 -18 -55 -26 -107 -21 -123 -26 -134 -77 -157 -24
-10 -49 -26 -56 -34 -7 -9 -22 -13 -36 -11 -18 4 -30 -5 -57 -38 -53 -68 -146
-118 -164 -89 -3 5 -1 48 5 96 9 74 9 90 -5 110 -17 26 -44 31 -63 12 -18 -18
-16 -241 3 -277 20 -39 64 -56 107 -42 51 17 144 95 174 146 25 43 28 45 44
30 14 -13 23 -14 39 -6 29 16 30 15 28 -30 -4 -75 33 -61 68 27 21 54 28 62
87 94 65 36 80 58 54 79 -12 10 -23 11 -47 2 -56 -19 -56 -22 -18 108 13 45
15 70 8 83 -11 21 -52 24 -68 4z"/>
<path d="M6965 25674 c-46 -24 -81 -61 -114 -124 -35 -65 -42 -142 -16 -176
17 -22 19 -50 5 -59 -20 -12 -51 7 -65 41 -15 35 -41 44 -63 22 -27 -27 -4
-101 42 -132 53 -34 151 -12 175 41 13 29 -1 94 -24 113 -8 7 -15 22 -15 34 0
30 48 102 104 156 47 45 55 67 34 88 -16 16 -27 15 -63 -4z"/>
<path d="M4686 25634 c-19 -19 -20 0 4 -229 11 -104 20 -213 20 -241 0 -54 17
-81 45 -70 32 12 38 55 26 196 -6 74 -13 179 -17 233 -6 97 -17 127 -49 127
-7 0 -21 -7 -29 -16z"/>
<path d="M4978 25633 c-12 -14 -17 -59 -22 -203 -5 -159 -4 -189 10 -208 20
-28 55 -28 81 1 12 12 41 60 65 107 55 107 69 128 87 135 20 8 31 -13 31 -62
0 -58 15 -93 39 -93 37 0 50 58 35 153 -8 47 -53 97 -87 97 -38 0 -72 -33
-128 -126 -28 -47 -53 -83 -56 -80 -3 2 1 64 8 137 12 125 11 132 -6 145 -25
18 -39 18 -57 -3z"/>
<path d="M6213 25616 c-10 -14 -34 -53 -53 -88 -63 -112 -147 -183 -196 -164
-14 5 -16 17 -11 66 4 49 2 62 -14 76 -60 54 -91 -88 -42 -190 63 -132 278 18
356 248 13 37 14 53 6 63 -16 19 -25 16 -46 -11z"/>
<path d="M11266 25631 c-3 -5 -8 -42 -10 -83 -3 -40 -11 -93 -18 -118 l-14
-45 -80 -20 c-88 -23 -125 -42 -150 -80 -18 -28 -16 -54 7 -68 13 -8 24 -5 48
15 32 28 113 62 130 57 6 -2 -11 -47 -39 -104 -54 -108 -59 -132 -33 -142 24
-10 55 33 113 157 27 59 60 114 75 126 22 18 26 26 20 55 -3 20 0 55 9 84 19
60 21 146 4 163 -14 14 -54 16 -62 3z"/>
<path d="M5662 25613 c-93 -45 -155 -166 -202 -389 -24 -115 -25 -167 -5 -184
46 -38 100 66 89 174 -7 70 -1 80 58 89 70 11 157 57 204 110 40 44 44 54 44
99 0 44 -4 54 -34 84 -28 28 -41 34 -77 34 -24 0 -59 -8 -77 -17z m114 -78
c12 -31 -7 -63 -58 -97 -58 -39 -124 -66 -134 -55 -13 13 51 122 85 145 39 25
99 30 107 7z"/>
<path d="M9122 25520 c-32 -15 -81 -49 -109 -77 -42 -41 -53 -59 -63 -105 -11
-48 -10 -59 5 -92 38 -80 157 -99 264 -43 98 50 161 99 186 142 33 55 33 105
0 144 -30 35 -66 48 -157 54 -59 4 -76 1 -126 -23z m226 -76 c30 -19 28 -28
-16 -71 -45 -46 -163 -110 -218 -118 -120 -19 -125 68 -9 156 76 57 181 71
243 33z"/>
<path d="M10978 25458 c-15 -13 -73 -111 -117 -198 -25 -50 -88 -120 -108
-120 -16 0 -16 15 -2 97 12 69 4 93 -32 93 -27 0 -38 -35 -45 -151 -6 -87 -5
-101 11 -119 36 -40 98 -19 164 56 47 54 185 319 177 340 -7 17 -27 18 -48 2z"/>
<path d="M10460 25421 c-61 -19 -112 -54 -149 -104 -67 -88 -117 -219 -136
-358 -11 -77 39 -94 83 -29 20 30 23 43 18 88 -9 74 0 105 28 95 33 -12 66 -8
145 16 110 33 201 124 201 201 0 42 -15 67 -50 85 -31 16 -98 19 -140 6z m117
-85 c3 -3 -3 -20 -13 -38 -32 -55 -244 -147 -244 -106 0 21 51 95 80 115 39
28 93 43 133 39 21 -2 41 -7 44 -10z"/>
<path d="M11763 25371 c-179 -44 -211 -133 -101 -274 17 -20 28 -44 25 -51 -7
-18 -113 -53 -204 -66 -68 -11 -74 -10 -102 11 -26 19 -34 21 -56 11 -49 -22
-24 -91 41 -112 43 -14 77 -10 210 28 209 61 234 101 145 233 -27 40 -47 78
-44 86 8 21 83 51 153 62 81 13 102 26 98 59 -3 24 -7 27 -48 29 -25 1 -77 -6
-117 -16z"/>
<path d="M22267 25123 c-3 -5 -8 -39 -12 -78 -10 -104 -50 -285 -96 -436 -42
-138 -78 -263 -104 -359 -19 -70 -79 -354 -94 -445 -32 -193 -75 -431 -107
-595 -49 -254 -88 -527 -104 -714 -5 -71 -10 -131 -10 -133 0 -3 -87 -2 -192
1 -106 4 -301 9 -433 11 -132 3 -301 12 -375 20 -305 34 -430 40 -510 24 -73
-14 -75 -15 -75 -44 0 -29 1 -30 45 -27 124 7 294 1 470 -18 133 -14 312 -24
562 -29 202 -5 373 -9 380 -8 7 0 37 -1 67 -1 l54 -2 -7 -82 c-14 -162 -47
-455 -66 -583 -11 -71 -31 -224 -44 -340 -24 -198 -32 -297 -71 -840 -19 -261
-18 -252 -95 -905 -21 -172 -64 -612 -100 -1005 -11 -126 -25 -266 -30 -310
-5 -44 -14 -127 -20 -185 -42 -408 -86 -706 -154 -1035 -25 -121 -59 -285 -75
-365 -16 -80 -55 -273 -86 -430 -47 -241 -107 -518 -170 -785 -42 -182 -47
-215 -35 -230 28 -34 57 35 105 245 14 63 39 167 55 230 26 105 72 317 90 415
20 109 108 541 170 835 78 367 129 731 189 1355 22 226 47 484 56 575 24 248
44 441 60 575 8 66 17 149 20 185 3 36 15 133 25 215 27 208 57 518 70 720 31
478 42 596 99 1005 36 263 59 468 69 620 l7 115 837 0 c460 0 840 -3 844 -8 4
-4 -2 -42 -14 -85 -13 -42 -45 -187 -72 -322 -27 -135 -61 -294 -75 -355 -48
-206 -73 -330 -89 -440 -72 -490 -86 -592 -91 -666 -3 -46 -10 -168 -15 -270
-6 -106 -24 -267 -41 -375 -24 -149 -32 -241 -39 -439 -8 -223 -22 -412 -35
-455 -14 -50 -27 -230 -40 -555 -19 -477 -30 -654 -61 -900 -13 -110 -29 -258
-34 -330 -15 -198 -29 -323 -46 -416 -25 -137 -33 -193 -59 -419 -29 -249 -41
-318 -95 -530 -41 -164 -74 -351 -85 -486 -6 -69 -4 -83 10 -98 37 -36 65 9
65 104 0 82 30 266 64 390 28 100 65 264 84 365 7 33 21 146 32 250 11 105 31
255 45 335 21 121 47 348 69 605 2 28 13 131 24 230 30 264 40 397 52 715 18
447 28 605 50 750 13 84 25 228 30 383 10 247 18 345 45 501 23 138 34 253 45
471 10 190 32 380 96 805 20 133 47 268 89 445 18 77 48 214 65 305 50 257 99
472 112 488 10 11 26 13 71 8 32 -3 62 -8 66 -10 4 -3 4 -33 0 -68 -5 -35 -17
-144 -29 -243 -11 -99 -31 -265 -45 -370 -58 -438 -77 -617 -115 -1075 -32
-395 -69 -790 -96 -1015 -19 -164 -71 -559 -84 -645 -64 -415 -108 -795 -155
-1345 -9 -104 -25 -262 -35 -350 -56 -472 -60 -521 -61 -775 0 -283 -16 -536
-40 -655 -38 -184 -108 -459 -135 -527 -27 -68 -27 -94 1 -104 21 -9 54 22 76
71 16 36 63 217 119 459 35 151 49 326 54 676 5 322 18 496 66 905 5 44 25
258 45 475 41 452 79 791 115 1005 5 28 13 86 20 130 6 44 15 109 20 145 24
161 77 618 100 870 11 118 25 260 30 315 5 55 19 213 30 350 28 359 33 401
120 1105 22 179 46 397 55 485 9 88 18 166 20 173 4 10 23 12 77 8 80 -6 439
-25 556 -29 l72 -3 0 31 0 31 -207 12 c-115 7 -270 12 -345 12 -75 0 -139 4
-142 9 -3 5 -1 46 4 92 6 46 15 122 20 169 47 408 77 585 170 1010 43 193 107
504 140 675 26 139 62 434 58 485 -2 27 -9 47 -20 54 -34 21 -45 -10 -63 -184
-26 -255 -88 -595 -219 -1195 -64 -295 -93 -475 -131 -805 -13 -118 -27 -234
-30 -257 l-6 -43 -65 0 c-75 0 -76 1 -44 101 20 60 54 224 115 544 28 149 50
240 96 398 52 179 69 268 79 416 12 168 20 216 62 361 17 58 33 136 35 173 7
88 -14 242 -38 270 -17 21 -19 21 -35 5 -17 -17 -17 -22 -1 -100 24 -118 21
-170 -17 -305 -50 -174 -55 -202 -66 -380 -10 -165 -26 -242 -90 -453 -44
-144 -65 -233 -115 -486 -62 -315 -112 -526 -127 -536 -7 -5 -42 -5 -78 -1
-36 4 -413 8 -839 8 -649 0 -775 2 -779 14 -2 7 1 52 7 100 6 47 18 140 27
206 19 159 42 298 120 735 112 633 141 763 246 1115 93 314 138 554 108 590
-13 16 -36 20 -43 8z"/>
<path d="M6095 24979 c-217 -9 -830 -42 -1110 -60 -88 -6 -398 -12 -690 -14
-384 -3 -536 -7 -552 -16 -32 -17 -43 -59 -53 -199 -34 -463 -81 -946 -136
-1375 -32 -247 -40 -569 -15 -598 17 -21 25 -21 45 -1 13 12 16 40 16 138 0
122 16 315 45 531 39 293 89 845 115 1264 6 102 13 159 22 167 10 11 116 14
483 18 259 3 551 10 650 15 1183 66 1835 83 2025 52 134 -22 179 -34 199 -53
25 -22 25 -23 6 -152 -8 -55 -24 -191 -35 -301 -53 -525 -90 -687 -245 -1080
-78 -198 -94 -244 -136 -390 -52 -183 -57 -194 -86 -201 -44 -11 -1444 16
-1803 35 -292 16 -555 14 -646 -5 -172 -36 -287 -120 -211 -155 19 -9 35 -4
97 29 42 22 104 45 140 52 65 12 477 16 564 6 22 -3 262 -8 531 -12 270 -3
553 -9 630 -13 l140 -7 -105 -6 c-58 -4 -238 -12 -400 -18 -464 -17 -844 -56
-886 -91 -20 -16 -17 -47 5 -59 27 -14 66 -12 131 5 87 23 410 53 705 65 149
6 353 15 455 20 204 10 1030 26 1030 19 0 -4 -30 -171 -69 -379 -11 -58 -25
-186 -31 -285 -8 -119 -24 -243 -46 -365 -30 -157 -36 -220 -44 -420 -10 -246
-23 -361 -65 -570 -14 -69 -30 -165 -36 -215 -10 -97 -38 -242 -70 -370 -34
-136 -90 -426 -87 -448 2 -11 11 -25 20 -31 30 -19 46 12 72 144 14 69 39 184
56 255 59 251 69 301 85 420 9 66 25 167 36 225 39 210 54 349 65 605 6 152
22 276 54 424 11 52 27 190 35 306 8 116 22 249 30 295 14 73 30 166 62 360
l8 45 74 3 c100 4 101 4 89 -55 -5 -26 -18 -102 -28 -168 -11 -66 -24 -140
-30 -165 -5 -25 -30 -153 -55 -285 -25 -132 -50 -258 -55 -280 -38 -166 -93
-528 -150 -995 -57 -464 -96 -710 -146 -923 -21 -86 -23 -111 -14 -122 18 -22
47 -18 64 8 33 52 105 484 161 972 25 221 33 285 54 425 24 164 68 428 81 490
22 106 142 721 151 780 6 36 18 120 28 187 9 67 19 124 21 126 11 10 1204 -37
1500 -58 500 -36 709 -59 1050 -116 118 -19 271 -57 327 -80 38 -15 63 -1 63
37 0 31 -29 48 -115 67 -38 8 -113 25 -165 36 -113 25 -401 67 -556 81 -61 5
-145 14 -188 20 -220 28 -1320 80 -1783 84 -61 1 -114 4 -118 7 -3 4 -1 34 5
68 5 33 15 88 20 122 6 33 15 93 20 132 36 271 85 527 144 762 99 396 140 649
151 945 5 148 -4 197 -41 206 -44 11 -49 -5 -46 -164 4 -180 -13 -341 -69
-658 -5 -28 -33 -150 -63 -270 -69 -275 -84 -355 -137 -694 -16 -107 -34 -240
-40 -295 -16 -158 -10 -149 -107 -153 -65 -2 -82 0 -82 11 0 8 11 63 25 123
13 60 36 181 50 269 43 270 56 336 90 455 18 63 45 174 60 245 15 72 41 180
58 240 47 172 67 274 67 355 0 41 9 135 20 208 25 165 27 308 4 340 -20 28
-40 28 -59 -2 -13 -19 -13 -31 -4 -74 10 -43 9 -72 -9 -189 -12 -76 -23 -192
-26 -258 -6 -123 -11 -149 -65 -340 -17 -60 -41 -159 -52 -220 -12 -60 -38
-171 -59 -245 -42 -149 -60 -237 -90 -440 -17 -109 -57 -328 -85 -457 -5 -22
-8 -22 -160 -22 -140 0 -175 6 -145 24 9 6 33 78 105 320 15 50 61 178 102
285 149 387 186 543 233 970 26 241 37 343 51 466 11 93 10 104 -7 140 -25 51
-75 78 -183 100 -103 20 -592 27 -936 13z"/>
<path d="M8257 24812 c-10 -11 -59 -114 -108 -228 -96 -224 -225 -489 -338
-698 -136 -249 -270 -580 -287 -705 -8 -59 13 -125 49 -159 57 -54 182 -85
399 -101 347 -26 490 -32 838 -40 329 -7 380 -11 412 -26 33 -16 42 -17 78 -5
33 11 76 11 243 1 490 -29 785 -67 1212 -155 270 -56 415 -64 484 -27 82 45
129 198 191 636 16 116 34 233 39 260 22 124 44 227 67 315 65 247 86 415 62
485 -13 40 -14 40 -123 76 -60 21 -129 40 -152 44 -33 6 -46 14 -61 39 -22 38
-100 66 -267 97 -61 11 -146 27 -190 35 -278 52 -556 89 -790 104 -88 6 -431
15 -763 20 -554 9 -706 17 -932 46 -37 5 -48 2 -63 -14z m153 -77 c64 -12 232
-18 690 -25 585 -9 834 -18 1065 -41 173 -16 526 -68 680 -99 l140 -28 -160
-1 c-161 -1 -228 -10 -249 -31 -8 -8 -6 -15 7 -25 13 -9 80 -14 255 -17 249
-5 306 -14 522 -79 36 -10 92 -26 124 -35 l59 -16 -7 -97 c-4 -59 -21 -156
-45 -253 -49 -194 -83 -361 -110 -543 -47 -308 -64 -405 -92 -520 -46 -184
-63 -201 -204 -199 -84 2 -163 14 -500 78 -134 25 -334 53 -580 80 -166 19
-672 56 -755 56 -55 0 -64 4 -173 73 -63 39 -174 117 -247 171 -106 80 -129
101 -118 111 14 14 112 47 283 95 297 85 349 109 343 160 -4 31 -34 38 -76 16
-16 -8 -108 -38 -203 -66 -96 -28 -232 -71 -302 -95 l-128 -45 -27 28 c-96
102 -177 221 -203 302 -24 72 -58 116 -83 107 -28 -11 -30 -39 -7 -106 32 -92
93 -183 183 -273 43 -43 78 -79 78 -82 0 -2 -26 -14 -57 -27 -181 -73 -289
-140 -402 -248 -55 -52 -80 -69 -95 -66 -12 2 -70 9 -131 16 -196 20 -285 62
-285 132 0 83 108 364 246 640 43 87 60 113 65 99 15 -40 35 -46 105 -33 91
16 362 32 464 26 47 -2 175 -9 285 -15 534 -27 590 -31 621 -47 25 -13 42 -14
84 -7 29 5 57 16 63 25 16 25 0 65 -30 77 -16 6 -165 16 -333 22 -168 6 -357
15 -420 20 -157 13 -591 12 -687 -1 -43 -6 -95 -17 -116 -24 l-38 -13 47 87
c74 136 143 279 244 506 76 171 114 247 124 245 1 0 39 -7 86 -15z m314 -1543
c45 -42 108 -95 141 -116 109 -71 166 -110 172 -119 3 -6 -67 -7 -168 -3 -593
22 -703 27 -708 31 -11 12 60 70 146 121 92 55 310 164 327 164 5 0 45 -35 90
-78z"/>
<path d="M5139 24104 c-16 -19 -2 -79 38 -161 35 -70 161 -223 282 -341 l95
-92 -100 -103 c-106 -108 -199 -215 -242 -279 -21 -33 -23 -42 -14 -63 9 -18
19 -25 41 -25 25 0 37 12 95 93 70 98 269 317 290 317 6 0 32 -21 56 -46 67
-68 190 -158 274 -200 87 -42 138 -42 158 1 18 40 5 52 -59 57 -51 3 -69 11
-143 61 -195 130 -234 161 -227 181 6 15 125 106 214 163 78 50 219 118 283
137 73 22 100 41 100 72 0 36 -24 40 -107 15 -156 -46 -358 -158 -497 -276
-37 -31 -73 -54 -81 -51 -19 7 -263 287 -307 352 -21 31 -42 74 -48 97 -19 76
-37 107 -64 107 -13 0 -29 -7 -37 -16z"/>
<path d="M20485 23677 c-4 -12 3 -65 14 -117 24 -113 93 -258 187 -397 67 -98
74 -117 50 -130 -8 -4 -61 -49 -118 -98 -57 -50 -120 -103 -140 -118 -56 -41
-47 -87 16 -87 26 0 49 19 146 118 64 64 126 126 138 136 l22 19 68 -65 c77
-74 199 -159 256 -178 32 -10 40 -10 52 2 23 23 10 39 -73 93 -100 65 -229
169 -237 191 -7 18 6 33 64 72 104 69 349 255 354 268 8 22 -1 34 -26 34 -23
0 -277 -173 -374 -256 -36 -30 -66 -54 -68 -54 -6 0 -109 166 -154 250 -52 95
-70 147 -82 233 -13 89 -23 107 -60 107 -23 0 -31 -6 -35 -23z"/>
<path d="M23031 23522 c-61 -63 -198 -332 -285 -561 -77 -200 -81 -208 -141
-294 -46 -67 -56 -103 -30 -113 25 -10 60 21 108 93 52 79 79 136 138 288 23
61 83 193 132 294 75 153 100 194 144 238 29 29 53 58 53 63 0 16 -31 40 -53
40 -12 0 -40 -20 -66 -48z"/>
<path d="M22340 23535 c-27 -32 27 -178 97 -264 60 -73 170 -131 274 -144 57
-8 92 11 70 37 -7 9 -20 16 -28 16 -7 0 -49 14 -92 30 -126 49 -201 129 -230
246 -21 85 -59 118 -91 79z"/>
<path d="M24437 23373 c-13 -12 -7 -58 13 -100 10 -24 21 -43 25 -43 3 0 5 34
5 75 0 66 -2 75 -18 75 -10 0 -22 -3 -25 -7z"/>
<path d="M24382 22804 c-76 -60 -83 -69 -80 -98 2 -26 8 -32 31 -34 22 -3 39
8 87 54 55 53 60 60 60 101 0 23 -4 43 -8 43 -4 0 -45 -30 -90 -66z"/>
<path d="M12837 22794 c-9 -10 2 -24 19 -24 8 0 14 7 14 15 0 15 -21 21 -33 9z"/>
<path d="M12275 22410 c-80 -21 -395 -140 -470 -178 -165 -82 -214 -163 -142
-235 57 -56 148 -82 462 -131 132 -21 152 -20 165 4 17 32 -21 46 -228 80
-246 40 -352 74 -352 114 0 15 51 59 110 95 31 18 50 21 160 21 139 0 543 -19
1055 -50 187 -11 352 -20 367 -20 14 0 41 -12 58 -27 25 -20 36 -24 49 -16 38
24 17 84 -37 104 -12 5 -102 13 -200 19 -535 31 -946 50 -1092 50 -110 0 -160
4 -150 10 41 27 269 93 339 99 71 6 76 8 79 30 8 53 -52 63 -173 31z"/>
<path d="M5691 22295 c-61 -17 -95 -39 -140 -91 -54 -61 -18 -103 41 -47 21
19 15 6 -21 -42 -80 -108 -160 -230 -178 -272 -21 -49 -21 -139 0 -179 26 -51
101 -109 163 -129 109 -34 273 -7 431 70 138 68 196 133 229 260 51 189 -40
353 -229 414 -85 27 -227 35 -296 16z m284 -85 c41 -16 76 -39 111 -74 44 -43
54 -60 64 -109 25 -124 -19 -237 -122 -312 -103 -76 -310 -129 -433 -111 -56
9 -118 60 -135 111 -21 63 5 120 141 310 54 77 90 117 106 121 13 4 27 4 30 1
11 -11 43 13 43 33 0 10 -12 28 -27 40 l-28 21 95 -4 c65 -3 114 -12 155 -27z"/>
<path d="M13844 22239 c-4 -7 -8 -44 -10 -84 -3 -80 -27 -149 -80 -237 -20
-32 -36 -69 -37 -84 -2 -33 24 -54 46 -35 24 20 95 142 123 212 30 76 44 200
24 224 -15 18 -56 20 -66 4z"/>
<path d="M14092 22224 c-17 -12 -22 -24 -20 -47 3 -28 7 -32 34 -35 25 -2 37
3 53 24 25 32 26 38 5 58 -20 20 -44 20 -72 0z"/>
<path d="M8372 22118 c-7 -7 -12 -41 -12 -82 0 -39 -12 -127 -26 -196 -43
-217 -54 -292 -54 -395 0 -117 13 -175 38 -175 34 0 39 18 35 118 -4 79 2 130
27 272 43 236 48 272 49 366 1 78 -8 104 -34 104 -6 0 -16 -5 -23 -12z"/>
<path d="M20665 22046 c-72 -23 -195 -86 -220 -114 -34 -36 -72 -136 -80 -209
-10 -86 15 -132 92 -170 50 -24 72 -28 165 -32 127 -4 215 13 332 64 150 65
197 115 198 208 1 110 -90 210 -228 252 -60 18 -204 18 -259 1z m241 -71 c55
-16 126 -71 149 -116 17 -32 20 -92 5 -119 -6 -11 -29 -32 -53 -48 -161 -111
-504 -130 -557 -31 -47 86 71 265 205 311 62 22 184 23 251 3z"/>
<path d="M22540 22053 c-83 -12 -280 -109 -357 -177 -62 -54 -77 -87 -70 -155
12 -118 124 -218 266 -239 128 -19 259 5 371 67 92 51 210 198 210 261 0 34
-34 105 -64 135 -14 14 -33 39 -41 55 -8 16 -20 32 -27 36 -6 4 -59 9 -117 11
-58 1 -115 5 -126 6 -11 2 -31 2 -45 0z m223 -106 c68 -28 107 -76 107 -131 0
-86 -98 -185 -235 -238 -85 -32 -260 -33 -321 -1 -71 38 -124 111 -124 172 0
94 213 203 440 224 46 4 75 -1 133 -26z"/>
<path d="M14582 22000 c-45 -28 -66 -79 -53 -127 12 -44 6 -57 -20 -43 -14 8
-19 21 -19 54 0 82 -70 101 -167 46 -44 -25 -54 -28 -59 -16 -7 19 -36 29 -58
20 -22 -8 -48 -98 -36 -128 13 -36 38 -39 84 -11 22 15 65 42 95 60 30 19 58
32 62 29 5 -3 9 -18 9 -34 0 -49 46 -91 105 -97 42 -5 58 -13 101 -53 90 -85
179 -115 179 -60 0 17 -11 31 -35 47 -77 49 -110 73 -110 81 0 5 35 25 78 45
113 53 138 84 116 142 -21 54 -208 86 -272 45z m138 -61 c30 -6 50 -16 47 -22
-5 -16 -123 -77 -148 -77 -15 0 -19 7 -19 39 0 40 11 55 45 64 11 2 21 5 22 6
1 0 25 -4 53 -10z"/>
<path d="M13992 21918 c-7 -7 -12 -27 -12 -44 0 -18 -4 -36 -10 -39 -19 -12
-12 -63 10 -70 42 -13 90 37 90 97 0 55 -46 88 -78 56z"/>
<path d="M22448 21163 c-21 -25 -48 -282 -51 -478 -2 -158 -2 -160 20 -163 13
-2 25 4 31 15 5 10 15 88 21 173 6 85 21 219 33 297 17 116 19 145 8 158 -17
20 -43 19 -62 -2z"/>
<path d="M20720 21150 c-19 -6 -62 -12 -94 -14 -76 -6 -128 -41 -168 -113 -36
-64 -41 -153 -11 -204 43 -74 237 -121 406 -99 200 25 357 115 357 203 0 91
-221 225 -385 233 -38 2 -86 -1 -105 -6z m247 -100 c70 -32 130 -78 151 -117
12 -22 10 -26 -18 -53 -50 -46 -211 -90 -329 -90 -75 1 -183 23 -215 43 -41
28 -59 63 -53 103 7 44 17 56 72 88 37 22 46 24 74 13 29 -11 33 -9 62 22 l30
34 81 -7 c56 -5 99 -15 145 -36z"/>
<path d="M5700 21055 c-8 -9 -15 -51 -17 -98 -6 -148 -23 -289 -59 -512 -55
-347 -67 -482 -41 -504 29 -23 47 9 57 104 6 50 26 176 45 280 46 253 61 359
76 552 10 132 10 165 -1 178 -16 19 -44 19 -60 0z"/>
<path d="M8195 20789 c-110 -15 -261 -93 -351 -184 -66 -66 -118 -155 -154
-269 -107 -331 244 -603 625 -485 88 27 232 98 310 154 114 81 189 187 202
285 12 90 -61 207 -172 275 -145 88 -497 118 -449 38 8 -14 30 -20 90 -26 225
-23 343 -64 413 -143 67 -76 68 -150 4 -243 -85 -123 -321 -253 -515 -282
-174 -27 -342 43 -412 171 -87 159 1 416 186 544 83 57 233 118 298 121 71 3
70 3 70 19 0 8 -15 19 -32 24 -36 11 -39 11 -113 1z"/>
<path d="M8402 20704 c2 -11 11 -20 22 -22 13 -3 17 1 14 14 -2 11 -11 20 -22
22 -13 3 -17 -1 -14 -14z"/>
<path d="M22396 20276 c-65 -32 -124 -92 -136 -137 -6 -20 -24 -54 -41 -75
-82 -102 -100 -201 -51 -289 75 -136 236 -173 402 -93 95 46 148 92 180 154
22 44 25 61 25 164 0 129 -11 174 -58 226 -43 50 -71 61 -177 68 -87 5 -99 4
-144 -18z m190 -57 c78 -20 114 -85 114 -207 0 -136 -35 -196 -152 -257 -129
-68 -241 -51 -305 47 -36 53 -35 108 2 176 26 49 119 145 179 185 14 10 26 26
26 37 0 10 6 21 13 23 22 9 77 7 123 -4z"/>
<path d="M20743 20242 c-23 -15 -35 -69 -44 -207 -18 -287 -9 -368 38 -339 15
9 19 32 26 150 4 76 15 180 24 229 8 50 16 108 17 130 1 36 -2 40 -24 43 -14
1 -30 -1 -37 -6z"/>
<path d="M22403 19418 c-23 -37 -62 -241 -88 -461 -8 -73 -26 -208 -40 -302
-13 -93 -25 -185 -25 -203 0 -37 23 -53 46 -31 14 15 53 236 99 559 27 195 49
297 71 342 18 36 18 73 -2 92 -19 19 -50 21 -61 4z"/>
<path d="M20727 19252 c-17 -18 -29 -129 -44 -393 -7 -135 -1 -169 27 -169 28
0 36 27 43 145 8 120 34 318 48 362 19 60 -34 100 -74 55z"/>
<path d="M5205 18755 c-27 -8 -86 -21 -130 -30 -103 -18 -153 -36 -225 -80
-236 -143 -298 -456 -120 -608 83 -71 239 -107 379 -88 188 25 415 157 500
289 86 135 94 309 21 413 -62 87 -293 143 -425 104z m244 -76 c61 -13 126 -64
148 -116 29 -70 3 -197 -61 -291 -63 -95 -237 -204 -376 -237 -189 -44 -372 9
-429 124 -40 79 -31 193 22 283 90 153 307 252 445 203 43 -16 53 -16 67 -5
11 9 14 22 10 38 l-6 25 63 -6 c35 -3 87 -11 117 -18z"/>
<path d="M7148 18579 c-21 -12 -24 -49 -6 -67 18 -18 53 -15 71 6 42 46 -9 94
-65 61z"/>
<path d="M9194 18521 c-43 -22 -104 -55 -134 -74 -30 -20 -73 -47 -96 -61 -22
-14 -46 -37 -54 -52 -13 -24 -13 -28 8 -44 l22 -18 -21 -46 c-23 -52 -17 -51
-154 -36 -102 11 -135 0 -135 -45 0 -36 27 -45 134 -45 109 0 108 1 76 -82
-28 -73 -70 -245 -70 -289 0 -43 23 -68 48 -53 19 12 19 14 67 216 21 87 43
165 50 175 12 17 20 16 137 -7 67 -13 125 -25 127 -26 2 -2 -7 -17 -20 -35
-34 -48 -37 -124 -7 -169 27 -41 98 -80 144 -80 67 0 133 31 203 96 l68 64 7
-63 c11 -92 37 -144 82 -163 72 -30 115 20 49 56 -18 10 -35 30 -42 52 -13 40
-18 168 -8 213 8 37 -25 85 -57 85 -12 0 -57 7 -101 16 -75 15 -117 15 -218
-2 -31 -5 -314 47 -327 61 -8 7 92 177 120 204 15 15 61 44 102 65 67 35 82
39 142 37 69 -2 94 9 94 39 0 33 -33 50 -96 50 -50 0 -74 -7 -140 -39z m309
-492 c31 -7 57 -17 57 -24 0 -23 -71 -94 -129 -129 -46 -28 -69 -36 -108 -36
-137 0 -119 141 24 181 73 21 87 22 156 8z"/>
<path d="M10077 18428 c-31 -42 -33 -47 -63 -224 -40 -239 -54 -353 -54 -429
0 -81 13 -109 51 -103 23 3 24 6 21 64 -3 61 34 299 67 434 11 41 22 96 25
123 3 26 13 61 21 78 24 45 16 83 -17 87 -20 2 -32 -5 -51 -30z"/>
<path d="M7473 18320 c-60 -13 -122 -47 -135 -75 -28 -62 36 -122 253 -234
166 -86 201 -113 197 -149 -4 -35 -74 -88 -145 -108 -57 -17 -86 -15 -140 7
-29 12 -35 11 -50 -3 -14 -14 -15 -22 -5 -43 42 -92 265 -62 378 50 50 51 60
93 33 146 -27 54 -67 83 -229 164 -137 68 -210 116 -210 135 0 30 191 41 276
15 43 -13 51 -13 71 1 26 16 27 18 13 43 -23 44 -200 74 -307 51z"/>
<path d="M7106 18283 c-25 -51 -46 -176 -48 -298 -3 -115 -2 -120 18 -123 35
-5 46 23 61 151 7 67 23 155 35 194 17 59 18 75 8 88 -20 25 -58 18 -74 -12z"/>
<path d="M12933 18134 c-248 -132 -454 -341 -559 -569 -68 -148 -100 -327 -74
-422 35 -129 140 -255 242 -289 75 -25 163 -23 190 4 34 33 18 52 -45 52 -126
0 -221 60 -278 176 -45 91 -45 178 1 318 76 236 234 444 441 581 95 63 191
115 216 115 17 0 26 39 13 55 -21 25 -75 17 -147 -21z"/>
<path d="M10417 17980 c-42 -13 -57 -29 -57 -61 0 -35 22 -59 179 -199 201
-178 229 -242 132 -303 -48 -29 -152 -29 -231 2 -83 32 -119 26 -106 -17 15
-46 180 -99 271 -87 102 13 187 70 205 136 10 35 8 47 -13 92 -33 71 -104 155
-190 223 -91 73 -147 125 -147 137 0 6 28 8 65 4 49 -3 76 -12 107 -32 33 -22
47 -26 67 -19 20 7 26 16 26 39 0 33 -42 68 -104 85 -43 12 -164 12 -204 0z"/>
<path d="M11200 17769 c-78 -15 -167 -58 -204 -99 -59 -65 -65 -135 -21 -220
28 -54 141 -158 250 -231 166 -111 217 -131 239 -96 13 22 21 15 -151 128
-185 120 -293 232 -293 303 0 87 191 161 350 136 134 -22 217 -64 208 -107 -6
-32 -71 -44 -243 -44 -88 0 -172 -3 -188 -5 -37 -7 -55 -41 -33 -62 34 -34
370 -24 466 14 49 20 90 66 90 102 0 57 -65 118 -162 152 -104 36 -215 47
-308 29z"/>
<path d="M13686 17767 c-10 -7 -20 -28 -22 -46 -2 -17 -33 -95 -69 -172 -36
-78 -82 -186 -102 -240 -20 -54 -39 -99 -43 -99 -3 0 -12 20 -19 45 -18 61
-74 111 -136 121 -100 14 -203 -19 -251 -81 -34 -45 -37 -125 -8 -176 53 -90
174 -102 338 -34 18 8 19 5 12 -44 -7 -57 3 -81 35 -81 23 0 49 37 49 70 0 59
100 299 224 537 67 128 78 170 50 197 -19 19 -35 20 -58 3z m-341 -497 c25
-23 51 -98 38 -110 -14 -14 -112 -30 -176 -30 -73 0 -107 18 -107 57 0 31 54
85 101 101 47 15 118 6 144 -18z"/>
<path d="M14617 17550 c-26 -21 -40 -55 -52 -125 -8 -49 -122 -409 -142 -449
-13 -25 -13 -30 0 -44 24 -23 60 -7 96 43 18 25 36 45 40 45 4 0 23 -21 42
-46 19 -25 52 -55 74 -67 49 -25 180 -36 224 -17 65 27 39 76 -34 65 -56 -8
-143 11 -188 41 -31 20 -38 30 -35 52 4 33 51 66 127 88 137 40 157 47 174 62
24 21 21 39 -8 58 -21 14 -32 14 -77 4 -74 -17 -204 -81 -262 -129 -26 -23
-52 -41 -57 -41 -8 0 7 43 65 189 14 35 30 87 35 117 6 29 17 67 26 83 18 36
19 63 3 79 -16 16 -21 15 -51 -8z"/>
<path d="M17395 17384 c-9 -9 -14 -22 -11 -30 27 -70 31 -114 31 -339 0 -233
-1 -242 -25 -300 -70 -166 -155 -284 -263 -361 -28 -21 -58 -44 -64 -53 -40
-48 20 -56 91 -11 108 69 197 177 270 329 60 126 70 193 63 441 -7 231 -17
308 -44 328 -22 16 -28 15 -48 -4z"/>
<path d="M14193 17341 c-83 -58 -145 -125 -195 -212 -42 -71 -47 -103 -19
-119 30 -16 43 -5 85 73 45 81 115 156 198 212 77 51 91 95 29 95 -17 0 -55
-19 -98 -49z"/>
<path d="M13692 17368 c-7 -7 -12 -20 -12 -30 0 -10 -15 -32 -33 -48 -38 -33
-72 -128 -71 -193 2 -41 35 -87 64 -87 29 0 90 84 90 124 0 28 20 27 31 -1 35
-93 142 -163 179 -117 12 13 5 23 -47 72 -67 63 -90 102 -122 207 -26 82 -49
103 -79 73z m-16 -181 c-14 -46 -35 -89 -36 -71 0 23 31 114 40 114 5 0 3 -19
-4 -43z"/>
<path d="M5240 17208 c-10 -23 -29 -124 -55 -293 -8 -49 -26 -153 -40 -230
-78 -414 -93 -684 -42 -717 20 -13 54 -9 67 7 10 12 9 20 -5 42 -15 23 -17 43
-12 152 5 126 32 331 62 470 8 40 27 143 40 230 14 86 35 195 47 243 18 72 19
89 9 102 -20 24 -60 20 -71 -6z"/>
<path d="M15440 17189 c-79 -32 -140 -122 -140 -206 0 -26 6 -55 13 -64 22
-29 81 -59 117 -59 37 0 113 31 142 57 10 9 20 14 22 12 3 -3 -11 -58 -30
-124 -20 -66 -40 -138 -45 -160 -22 -93 -41 -135 -70 -156 -40 -28 -38 -72 3
-77 66 -8 86 27 148 258 22 85 62 219 87 297 39 120 44 145 33 158 -23 28 -53
13 -82 -40 -33 -61 -98 -121 -148 -136 -43 -13 -104 2 -114 27 -15 39 54 126
110 140 22 6 39 4 115 -12 54 -12 50 54 -5 80 -38 18 -117 20 -156 5z"/>
<path d="M16135 17177 c-28 -13 -78 -26 -111 -29 -74 -7 -134 -32 -207 -88
-64 -48 -74 -66 -50 -92 21 -23 27 -21 128 47 44 29 97 56 117 60 l38 6 11
-46 c25 -97 158 -183 328 -209 83 -13 98 -19 128 -48 32 -31 38 -33 106 -33
66 0 77 3 117 33 24 17 53 32 65 32 11 0 65 25 120 56 55 31 113 57 130 58 25
1 31 -4 42 -34 6 -19 12 -69 12 -110 1 -85 18 -123 54 -118 29 4 33 44 17 163
-14 106 -39 170 -70 180 -34 11 -90 -4 -150 -40 -30 -18 -71 -40 -90 -50 l-35
-17 33 35 c38 39 39 70 5 75 -12 2 -36 -7 -53 -20 -39 -29 -90 -104 -90 -134
0 -26 -41 -44 -101 -44 -49 0 -57 14 -18 31 17 7 44 30 60 52 38 52 42 140 8
176 -73 78 -183 23 -209 -105 -7 -33 -14 -64 -15 -70 -3 -9 -17 -9 -52 -2 -77
15 -77 15 -38 49 50 44 68 84 62 132 -14 106 -168 161 -292 104z m199 -78 c27
-21 34 -56 16 -89 -12 -23 -70 -43 -103 -35 -34 9 -75 54 -83 93 -6 27 -3 33
17 41 45 18 124 13 153 -10z m304 -117 c4 -44 -19 -77 -64 -92 -48 -16 -59 -5
-45 47 14 53 46 85 79 81 22 -2 28 -9 30 -36z"/>
<path d="M6958 16469 c-24 -14 -23 -56 2 -69 24 -13 115 -3 130 15 33 40 -79
85 -132 54z"/>
<path d="M8988 16368 c-6 -13 -14 -72 -17 -132 l-6 -109 -65 -26 c-56 -22 -65
-30 -68 -53 -3 -21 2 -30 21 -39 20 -9 34 -7 72 10 26 12 49 21 50 21 2 0 10
-33 19 -74 16 -71 84 -278 99 -304 13 -19 35 -14 52 12 18 28 19 25 -43 206
-55 161 -59 186 -30 202 29 16 260 16 301 0 24 -10 27 -17 27 -55 0 -25 -7
-64 -15 -87 -22 -61 -20 -117 4 -130 36 -19 75 -10 192 45 64 30 119 55 122
55 3 0 5 -24 5 -54 -1 -75 27 -117 100 -153 42 -21 76 -29 129 -31 l72 -4 7
-37 c3 -20 7 -42 10 -49 6 -21 35 -26 52 -8 13 13 14 22 5 56 -9 36 -8 42 8
50 29 16 35 13 76 -43 46 -60 136 -124 279 -197 113 -58 170 -72 180 -46 9 24
-8 38 -106 87 -159 79 -320 193 -320 228 0 9 27 35 59 59 112 81 130 113 93
158 -22 28 -74 54 -108 54 -56 0 -134 -112 -134 -192 0 -24 -20 -37 -54 -38
-5 0 -6 34 -2 79 5 63 3 81 -9 91 -37 31 -103 -24 -71 -59 10 -11 16 -36 16
-64 l0 -47 -49 0 c-58 0 -107 19 -141 54 -23 25 -23 29 -12 71 17 64 15 93 -7
105 -39 20 -95 10 -206 -39 -60 -27 -111 -47 -113 -46 -2 2 3 35 11 74 17 79
14 106 -16 138 -41 45 -99 58 -265 58 -128 0 -152 2 -152 15 0 8 7 51 17 96 9
44 14 88 10 97 -10 26 -63 22 -79 -5z m1292 -482 c0 -15 -76 -86 -92 -86 -18
0 -6 31 26 64 34 37 66 47 66 22z"/>
<path d="M7580 16340 c-33 -11 -66 -31 -84 -51 -26 -29 -28 -37 -24 -90 5 -66
33 -114 139 -235 81 -92 115 -150 100 -168 -18 -22 -90 -28 -192 -15 -104 12
-176 38 -208 75 -36 41 -81 26 -81 -28 0 -38 26 -61 96 -88 92 -35 208 -52
306 -46 164 9 202 59 139 184 -16 31 -63 96 -105 145 -78 90 -116 151 -116
186 0 26 53 69 97 77 19 4 87 4 149 2 119 -6 151 2 139 34 -15 39 -258 52
-355 18z"/>
<path d="M6865 16060 c-12 -13 -16 -28 -12 -47 4 -15 -1 -74 -10 -130 -15 -95
-15 -104 1 -127 18 -28 50 -34 63 -13 9 13 19 98 29 226 6 75 5 86 -12 98 -24
18 -38 16 -59 -7z"/>
<path d="M12693 15946 c-172 -81 -304 -208 -386 -372 -54 -107 -77 -201 -83
-339 -5 -106 -3 -131 19 -215 26 -101 78 -204 130 -258 37 -38 103 -72 141
-72 52 0 107 44 90 71 -3 5 -32 9 -64 9 -56 0 -60 2 -104 45 -112 113 -163
336 -121 536 22 102 76 221 139 304 58 74 92 106 191 171 72 49 107 63 171 72
46 7 49 9 49 37 0 30 -1 30 -60 33 -47 2 -72 -3 -112 -22z"/>
<path d="M13253 15538 c-6 -7 -13 -110 -17 -238 -4 -124 -11 -290 -15 -370 -4
-80 -4 -153 1 -162 12 -24 41 -23 63 2 10 11 25 20 34 21 10 0 8 3 -6 9 -28
12 -29 26 -8 320 9 118 15 262 13 320 -3 105 -3 105 -29 108 -14 2 -30 -3 -36
-10z"/>
<path d="M13554 15356 c-3 -8 -1 -46 5 -83 6 -37 9 -93 7 -123 -2 -30 -4 -79
-5 -107 -1 -49 -3 -53 -25 -53 -44 0 -54 -21 -48 -107 5 -92 21 -126 60 -121
38 4 60 50 72 153 13 121 12 316 -3 390 -11 50 -17 61 -35 63 -13 2 -25 -3
-28 -12z"/>
<path d="M14252 15288 c-7 -7 -12 -39 -12 -79 0 -37 -11 -134 -25 -215 -25
-150 -31 -220 -17 -240 13 -20 48 -33 73 -27 13 3 49 25 81 49 31 24 61 44 67
44 7 0 11 -30 11 -84 0 -89 12 -116 49 -116 37 0 41 20 30 146 -15 175 -41
192 -149 99 -35 -30 -72 -55 -82 -55 -20 0 -20 -5 14 170 13 70 22 154 23 215
0 99 0 100 -25 103 -14 2 -31 -3 -38 -10z"/>
<path d="M17320 15075 c-11 -13 -8 -25 14 -68 41 -82 55 -268 33 -444 -9 -72
-26 -158 -38 -190 -36 -94 -100 -191 -166 -253 -62 -56 -77 -85 -49 -96 22 -8
86 30 133 78 53 54 126 186 152 275 27 88 41 217 41 375 0 187 -20 307 -54
330 -19 13 -53 9 -66 -7z"/>
<path d="M14687 15036 c-8 -8 -20 -41 -27 -74 -9 -47 -18 -62 -36 -71 -30 -13
-31 -45 -3 -65 20 -13 21 -20 14 -63 -5 -26 -9 -66 -9 -88 -1 -34 2 -40 21
-43 28 -4 49 28 58 88 12 84 -2 78 167 76 135 -1 152 1 162 17 17 29 -17 47
-88 47 -75 1 -205 15 -214 24 -5 6 1 36 25 117 5 18 -21 49 -42 49 -7 0 -20
-6 -28 -14z"/>
<path d="M13879 15015 c-57 -30 -119 -86 -119 -109 0 -31 42 -40 105 -21 36
10 61 13 67 7 24 -24 -45 -372 -73 -372 -5 0 -15 16 -23 35 -29 69 -78 31 -62
-47 11 -53 33 -78 69 -78 46 0 71 21 96 80 41 95 62 200 68 338 l6 133 -28 29
c-34 36 -46 36 -106 5z"/>
<path d="M15493 14847 c-99 -52 -131 -162 -57 -196 46 -21 90 -12 179 33 47
24 85 40 85 35 0 -10 -85 -209 -112 -264 -41 -81 -77 -124 -106 -127 -51 -6
-38 -78 14 -78 41 0 105 75 161 190 50 101 143 345 143 374 0 26 -29 41 -59
29 -22 -8 -32 -6 -50 9 -34 27 -142 24 -198 -5z m167 -62 c0 -3 -18 -16 -39
-30 -48 -29 -128 -52 -142 -38 -12 12 16 52 45 63 22 9 136 13 136 5z"/>
<path d="M16139 14817 l-34 -23 -44 19 c-80 35 -226 1 -226 -53 0 -33 29 -37
106 -16 78 22 107 10 189 -83 71 -80 149 -125 235 -137 39 -5 60 -15 91 -45
64 -58 151 -71 189 -29 24 27 10 40 -43 40 -42 1 -82 17 -82 33 0 4 14 14 30
22 49 25 90 90 90 142 0 77 -38 122 -102 123 -62 0 -90 -38 -102 -140 -12 -90
-13 -92 -49 -85 -35 8 -127 45 -127 52 0 2 16 17 35 34 54 48 47 122 -15 154
-43 22 -101 19 -141 -8z m102 -57 c28 -15 24 -47 -7 -54 -29 -8 -54 8 -54 34
0 31 24 39 61 20z m327 -73 c3 -31 -2 -43 -28 -69 -41 -40 -53 -27 -36 39 17
64 24 75 44 71 12 -2 18 -15 20 -41z"/>
<path d="M16901 14680 c-83 -40 -84 -40 -98 -20 -20 28 -57 25 -82 -6 -39 -50
-17 -114 40 -114 13 0 74 25 135 56 62 31 117 53 123 50 6 -4 11 -37 11 -77 0
-39 5 -79 10 -90 13 -22 43 -25 59 -5 21 25 8 207 -16 231 -26 27 -92 17 -182
-25z"/>
<path d="M1462 13618 c-15 -15 -16 -50 0 -66 16 -16 60 -15 84 2 18 14 18 16
2 43 -18 31 -64 43 -86 21z"/>
<path d="M11920 10120 c0 -5 5 -10 10 -10 6 0 10 5 10 10 0 6 -4 10 -10 10 -5
0 -10 -4 -10 -10z"/>
<path d="M852 9601 c0 -71 9 -103 24 -88 2 2 7 34 9 69 3 55 1 68 -15 83 -18
16 -18 14 -18 -64z"/>
<path d="M849 9408 c-4 -12 -4 -117 -1 -213 l2 -39 30 34 c20 23 28 42 24 55
-3 11 -10 36 -16 55 -5 19 -10 53 -11 74 -2 38 -20 60 -28 34z"/>
<path d="M856 9042 c5 -148 4 -212 -6 -322 -4 -52 -4 -102 0 -110 4 -8 11
-114 14 -235 3 -121 8 -263 11 -315 3 -52 7 -171 10 -265 6 -200 21 -539 35
-820 6 -110 21 -443 35 -740 14 -297 29 -628 35 -735 10 -186 17 -345 40 -935
6 -143 17 -404 25 -580 8 -176 17 -383 20 -460 3 -77 10 -234 15 -350 5 -115
12 -322 16 -460 l6 -250 -41 -60 c-22 -33 -41 -70 -41 -82 0 -20 5 -23 38 -22
69 1 117 13 120 32 2 10 -3 17 -12 17 -28 0 -26 17 10 76 61 101 66 127 59
297 -7 185 -13 318 -21 457 -3 58 -7 150 -9 205 -2 99 -10 251 -21 395 -3 41
-7 138 -9 215 -5 186 -15 438 -20 500 -3 28 -7 75 -10 105 -3 30 -7 156 -10
280 -3 124 -7 266 -10 315 -13 201 -15 250 -25 485 -11 278 -27 563 -35 630
-3 25 -8 131 -11 235 -2 105 -9 229 -14 277 -6 48 -15 201 -21 340 -6 139 -13
282 -15 318 -9 189 -14 324 -18 494 -3 104 -10 203 -16 221 -6 18 -13 88 -15
156 -3 68 -7 196 -11 284 -3 87 -10 167 -14 176 -5 9 -10 61 -11 115 -2 212
-1 206 -50 218 l-26 6 3 -108z"/>
<path d="M17990 2435 c-7 -8 -10 -22 -6 -30 7 -20 42 -19 50 1 8 22 8 22 -13
33 -14 8 -22 7 -31 -4z"/>
<path d="M2097 2350 c-71 -4 -133 -12 -139 -18 -5 -5 -8 -18 -6 -28 3 -18 21
-19 333 -22 308 -2 770 -2 965 0 47 0 357 -2 690 -6 1361 -14 1556 -16 1570
-16 24 1 992 9 1025 9 91 -2 795 -10 820 -10 17 0 147 3 290 7 143 4 280 5
305 4 25 -2 77 -3 115 -2 39 0 93 1 122 1 28 1 70 8 93 16 33 12 50 12 83 3
53 -14 108 -13 136 2 19 9 20 14 10 27 -9 10 -29 14 -68 12 -31 -1 -64 1 -73
5 -9 4 -24 4 -32 -1 -8 -4 -81 -5 -162 -1 -124 7 -152 5 -171 -7 -16 -11 -28
-12 -40 -6 -35 19 -132 31 -160 20 -16 -6 -67 -7 -127 -3 -56 3 -339 8 -631
10 -291 2 -537 5 -545 5 -8 0 -80 -1 -160 -3 -80 -3 -171 -2 -202 2 -38 4 -68
2 -87 -6 -17 -7 -54 -11 -83 -9 -111 7 -495 19 -533 16 -42 -3 -173 -4 -240
-2 -108 5 -2304 7 -2490 3 -44 -1 -114 -1 -155 -1 -41 1 -88 0 -105 -2 -16 -1
-73 0 -125 3 -52 4 -153 3 -223 -2z"/>
<path d="M9061 2326 c-7 -9 -11 -22 -8 -29 7 -19 92 -29 139 -16 22 5 72 11
111 12 74 2 96 16 57 37 -17 9 -29 9 -51 0 -17 -7 -44 -9 -66 -5 -92 16 -169
17 -182 1z"/>
<path d="M8630 2318 c0 -26 18 -40 59 -45 51 -7 54 8 5 36 -40 24 -64 27 -64
9z"/>
<path d="M8794 2323 c-31 -3 -43 -9 -47 -24 -7 -26 26 -43 67 -35 17 4 62 7
100 7 38 0 77 4 87 10 24 12 25 36 2 42 -21 5 -150 5 -209 0z"/>
<path d="M9564 2318 c-10 -16 8 -28 44 -28 51 0 82 10 82 26 0 10 -16 13 -61
11 -33 -1 -63 -5 -65 -9z"/>
<path d="M9456 2313 c-11 -11 -6 -23 9 -23 8 0 15 4 15 9 0 13 -16 22 -24 14z"/>
<path d="M22235 2310 c-3 -5 3 -10 14 -10 12 0 21 5 21 10 0 6 -6 10 -14 10
-8 0 -18 -4 -21 -10z"/>
<path d="M10095 2300 c3 -5 10 -10 16 -10 5 0 9 5 9 10 0 6 -7 10 -16 10 -8 0
-12 -4 -9 -10z"/>
<path d="M10454 2299 c-10 -18 11 -31 40 -23 32 8 34 20 4 28 -32 8 -36 8 -44
-5z"/>
<path d="M11605 2229 c-88 -11 -92 -11 -138 -3 -45 7 -147 -4 -147 -16 0 -19
83 -32 141 -23 33 5 67 6 80 1 13 -5 58 -6 99 -1 41 4 93 7 115 6 22 -2 51 -3
65 -3 14 1 34 0 45 0 282 -7 480 -4 494 7 15 12 14 14 -3 28 -10 8 -23 12 -29
8 -12 -7 -486 -7 -494 0 -3 4 -15 1 -27 -5 -33 -18 -76 -19 -93 -3 -8 8 -20
14 -26 13 -7 0 -43 -5 -82 -9z"/>
<path d="M12418 2230 c-32 -8 -35 -36 -4 -44 21 -5 290 -8 501 -5 28 1 212 -2
410 -6 395 -7 1483 -17 1555 -14 25 1 59 2 75 1 32 -2 896 -1 930 0 11 1 67
-2 125 -6 58 -4 152 -6 210 -5 215 5 776 0 793 -7 10 -3 39 -3 65 1 26 4 90 7
142 6 52 0 131 -1 175 -1 44 0 92 -5 108 -11 17 -8 31 -8 40 -2 7 6 128 8 307
7 162 -2 318 -3 345 -3 28 1 444 2 927 3 482 0 879 4 883 8 4 4 17 3 29 -1 11
-4 73 -6 136 -4 63 1 153 2 200 1 86 -1 109 -1 215 0 178 3 559 3 690 0 83 -1
245 -1 360 0 251 3 165 4 615 -3 206 -4 409 -5 450 -4 64 3 124 3 198 0 42 -1
358 -3 465 -2 65 1 126 -3 135 -8 12 -6 38 -5 77 4 44 11 70 11 107 4 27 -6
64 -8 81 -5 18 3 70 1 116 -4 46 -5 89 -6 95 -2 17 10 466 3 487 -9 17 -9 19
-5 19 34 l0 44 -102 1 c-531 6 -1140 15 -1258 17 -665 13 -2264 17 -5910 17
-2340 -1 -4277 -1 -4305 -1 -252 4 -468 3 -487 -1z"/>
<path d="M10814 2219 c-8 -14 11 -33 25 -25 6 4 11 11 11 16 0 13 -29 20 -36
9z"/>
<path d="M11076 2217 c-19 -14 -19 -15 2 -26 15 -8 34 -8 63 -2 23 5 47 7 54
5 12 -5 31 13 23 21 -2 2 -30 6 -63 10 -45 5 -65 3 -79 -8z"/>
<path d="M1160 2211 c-48 -15 -87 -40 -119 -77 -33 -37 -35 -51 -16 -110 5
-17 1 -23 -24 -34 -38 -15 -111 -93 -111 -118 0 -9 8 -28 17 -42 16 -22 16
-24 -1 -34 -106 -64 -125 -82 -141 -134 -5 -17 1 -29 24 -52 26 -27 36 -30 89
-30 81 0 94 15 85 102 l-6 65 33 12 c18 6 43 11 55 11 11 0 29 6 38 13 16 11
16 15 2 59 -9 25 -15 61 -13 80 3 31 6 33 63 46 32 7 65 18 72 24 9 7 17 7 27
-1 16 -13 42 -6 50 14 6 17 -10 29 -43 29 -36 1 -49 56 -25 109 27 58 3 86
-56 68z"/>
<path d="M10432 2208 c7 -19 38 -22 38 -4 0 10 -9 16 -21 16 -12 0 -19 -5 -17
-12z"/>
<path d="M10520 2210 c0 -5 4 -10 9 -10 6 0 13 5 16 10 3 6 -1 10 -9 10 -9 0
-16 -4 -16 -10z"/>
<path d="M10713 2208 c2 -7 10 -13 17 -13 7 0 15 6 18 13 2 7 -5 12 -18 12
-13 0 -20 -5 -17 -12z"/>
<path d="M10958 2203 c6 -2 18 -2 25 0 6 3 1 5 -13 5 -14 0 -19 -2 -12 -5z"/>
<path d="M2837 2093 c-1 -1 -200 -4 -442 -7 -386 -5 -447 -8 -500 -24 -76 -23
-80 -45 -10 -53 28 -3 1157 -7 2510 -8 1353 -2 2469 -3 2480 -3 11 0 29 0 40
1 11 1 72 2 135 2 63 1 176 2 250 3 74 1 146 -2 159 -7 14 -4 38 -3 60 5 20 7
41 10 46 8 6 -3 60 -5 120 -5 61 0 117 -2 125 -5 9 -3 15 1 15 10 0 23 -89 42
-147 31 -37 -6 -50 -5 -63 8 -11 12 -20 13 -33 5 -9 -6 -46 -12 -82 -14 -93
-4 -99 -4 -160 6 -30 5 -73 7 -95 4 -23 -3 -54 0 -73 8 -18 7 -37 10 -42 7 -5
-3 -56 -8 -114 -10 -83 -4 -111 -2 -128 9 -20 13 -32 13 -84 2 -33 -7 -66 -16
-72 -20 -6 -3 -28 3 -50 14 -31 16 -45 18 -65 11 -31 -12 -210 -5 -283 11 -36
7 -57 7 -70 0 -27 -14 -84 -15 -439 -8 -433 10 -2982 26 -2988 19z"/>
<path d="M8036 2033 c-17 -18 11 -37 34 -23 10 6 8 10 -7 19 -11 5 -23 7 -27
4z"/>
<path d="M8115 2020 c-3 -5 1 -10 9 -10 9 0 16 5 16 10 0 6 -4 10 -9 10 -6 0
-13 -4 -16 -10z"/>
<path d="M8974 2019 c-10 -17 13 -36 27 -22 12 12 4 33 -11 33 -5 0 -12 -5
-16 -11z"/>
<path d="M18695 1967 c-26 -19 -13 -33 37 -40 61 -8 96 24 41 37 -16 4 -35 9
-44 12 -8 2 -23 -2 -34 -9z"/>
<path d="M19010 1969 c-119 -12 -124 -12 -151 -5 -18 5 -29 2 -39 -9 -12 -15
-12 -19 5 -31 11 -8 28 -11 39 -7 12 3 39 5 61 4 22 -2 47 -2 55 -1 8 1 51 3
95 4 108 2 115 4 115 21 0 15 -3 16 -50 20 -14 1 -32 4 -40 7 -8 3 -49 2 -90
-3z"/>
<path d="M20299 1963 c-6 -6 -8 -17 -4 -23 8 -14 178 -7 182 7 7 19 -15 24
-52 14 -19 -5 -37 -6 -40 -1 -9 14 -75 17 -86 3z"/>
<path d="M15911 1956 c-10 -12 -7 -18 14 -32 24 -16 28 -16 42 -1 13 13 14 19
3 31 -16 20 -44 20 -59 2z"/>
<path d="M16483 1964 c-25 -11 -12 -22 30 -28 23 -3 92 -6 152 -6 173 -1 161
-2 147 12 -8 8 -48 14 -110 15 -53 1 -122 4 -152 7 -30 3 -61 2 -67 0z"/>
<path d="M17646 1961 c-4 -6 -20 -8 -37 -4 -27 5 -30 3 -27 -13 3 -16 12 -19
61 -17 31 1 57 -1 57 -6 0 -18 33 -21 50 -6 12 11 20 13 25 6 8 -14 42 -14 51
0 12 20 -16 33 -78 34 -35 1 -70 5 -79 9 -10 4 -20 3 -23 -3z"/>
<path d="M17890 1961 c-22 -4 -35 -12 -35 -21 0 -18 91 -25 131 -10 22 9 24
13 14 25 -13 15 -48 17 -110 6z"/>
<path d="M18044 1955 c-28 -20 -8 -34 51 -34 115 -1 106 -3 109 31 2 18 -136
21 -160 3z"/>
<path d="M18243 1952 c-9 -21 26 -44 57 -37 14 2 50 5 80 6 30 1 63 6 73 11
12 6 23 5 32 -2 15 -13 97 -15 145 -5 22 5 30 12 28 23 -3 16 -32 18 -193 12
-5 0 -56 1 -113 4 -86 3 -105 1 -109 -12z"/>
<path d="M19233 1954 c-9 -24 4 -29 79 -28 65 0 73 2 73 20 0 17 -8 19 -73 20
-54 2 -75 -2 -79 -12z"/>
<path d="M19437 1964 c-4 -4 -7 -14 -7 -21 0 -11 16 -14 63 -14 151 0 161 1
140 22 -12 12 -185 24 -196 13z"/>
<path d="M19737 1956 c-8 -19 25 -39 48 -30 9 4 15 14 13 23 -4 21 -54 27 -61
7z"/>
<path d="M19957 1963 c-4 -3 -7 -15 -7 -25 0 -16 6 -18 48 -14 26 3 50 5 55 5
10 1 9 29 -3 36 -5 3 -19 1 -31 -5 -15 -9 -24 -9 -32 -1 -13 13 -21 14 -30 4z"/>
<path d="M20623 1954 c-10 -27 28 -43 57 -24 13 9 12 12 -4 25 -26 19 -45 19
-53 -1z"/>
<path d="M20816 1962 c-8 -13 11 -35 23 -28 16 10 14 36 -3 36 -8 0 -17 -4
-20 -8z"/>
<path d="M21007 1962 c-16 -2 -26 -9 -24 -15 5 -15 69 -15 74 -1 5 15 -14 21
-50 16z"/>
<path d="M21201 1956 c-9 -10 -8 -16 4 -26 13 -11 19 -11 32 2 16 17 10 38
-11 38 -8 0 -19 -6 -25 -14z"/>
<path d="M14080 1945 c-10 -12 -9 -16 5 -21 19 -8 40 9 31 25 -10 15 -21 14
-36 -4z"/>
<path d="M14276 1953 c-11 -11 -6 -23 9 -23 8 0 15 4 15 9 0 13 -16 22 -24 14z"/>
<path d="M14372 1944 c4 -21 22 -23 26 -1 2 10 -3 17 -13 17 -10 0 -15 -6 -13
-16z"/>
<path d="M14445 1950 c-8 -12 20 -24 35 -15 6 3 8 11 5 16 -8 12 -32 12 -40
-1z"/>
<path d="M14544 1946 c-7 -19 3 -36 22 -36 10 0 14 8 12 22 -4 26 -26 36 -34
14z"/>
<path d="M14934 1946 c-8 -22 3 -33 18 -18 9 9 9 15 0 24 -9 9 -13 7 -18 -6z"/>
<path d="M15722 1951 c-10 -6 -8 -10 9 -14 26 -7 42 0 34 14 -8 11 -26 11 -43
0z"/>
<path d="M15840 1950 c0 -5 5 -10 10 -10 6 0 10 5 10 10 0 6 -4 10 -10 10 -5
0 -10 -4 -10 -10z"/>
<path d="M16115 1950 c-4 -7 -3 -16 3 -22 14 -14 45 -2 40 15 -6 16 -34 21
-43 7z"/>
<path d="M17412 1951 c2 -7 7 -12 11 -12 12 1 9 15 -3 20 -7 2 -11 -2 -8 -8z"/>
<path d="M17477 1954 c-9 -10 2 -24 19 -24 8 0 14 7 14 15 0 15 -21 21 -33 9z"/>
<path d="M19890 1950 c0 -5 7 -10 15 -10 8 0 15 5 15 10 0 6 -7 10 -15 10 -8
0 -15 -4 -15 -10z"/>
<path d="M20150 1950 c0 -5 5 -10 10 -10 6 0 10 5 10 10 0 6 -4 10 -10 10 -5
0 -10 -4 -10 -10z"/>
<path d="M20720 1945 c0 -8 9 -15 20 -15 11 0 20 7 20 15 0 8 -9 15 -20 15
-11 0 -20 -7 -20 -15z"/>
<path d="M21260 1946 c0 -16 34 -31 49 -21 6 3 8 12 4 20 -7 19 -53 20 -53 1z"/>
<path d="M21808 1949 c-22 -12 -24 -39 -3 -39 8 0 15 5 15 10 0 6 7 10 15 10
8 0 15 7 15 15 0 17 -17 19 -42 4z"/>
<path d="M13010 1940 c0 -5 7 -10 15 -10 8 0 15 5 15 10 0 6 -7 10 -15 10 -8
0 -15 -4 -15 -10z"/>
<path d="M13090 1935 c0 -9 5 -15 11 -13 6 2 11 8 11 13 0 5 -5 11 -11 13 -6
2 -11 -4 -11 -13z"/>
<path d="M15140 1935 c0 -8 9 -15 20 -15 11 0 20 7 20 15 0 8 -9 15 -20 15
-11 0 -20 -7 -20 -15z"/>
<path d="M15420 1939 c0 -5 5 -7 10 -4 6 3 10 8 10 11 0 2 -4 4 -10 4 -5 0
-10 -5 -10 -11z"/>
<path d="M16230 1935 c0 -8 5 -15 10 -15 6 0 10 7 10 15 0 8 -4 15 -10 15 -5
0 -10 -7 -10 -15z"/>
<path d="M17290 1940 c0 -5 7 -10 15 -10 8 0 15 5 15 10 0 6 -7 10 -15 10 -8
0 -15 -4 -15 -10z"/>
<path d="M20880 1940 c0 -5 5 -10 10 -10 6 0 10 5 10 10 0 6 -4 10 -10 10 -5
0 -10 -4 -10 -10z"/>
<path d="M21660 1934 c0 -17 22 -14 28 4 2 7 -3 12 -12 12 -9 0 -16 -7 -16
-16z"/>
<path d="M22315 1941 c-8 -15 3 -31 21 -31 9 0 14 7 12 17 -4 20 -24 28 -33
14z"/>
<path d="M21606 1932 c-3 -6 -1 -14 5 -17 15 -10 25 3 12 16 -7 7 -13 7 -17 1z"/>
<path d="M2866 1883 c-1 -1 -123 -4 -271 -7 -604 -13 -732 -22 -742 -53 -10
-29 -44 -28 1622 -26 385 1 707 2 715 2 8 -1 296 0 640 0 787 0 819 0 910 -1
181 -3 240 4 240 31 0 19 -25 35 -39 26 -4 -2 -31 2 -60 10 -31 8 -62 10 -75
6 -21 -8 -440 -6 -1001 4 -291 5 -1935 12 -1939 8z"/>
<path d="M6125 1863 c-74 -4 -131 -31 -110 -52 6 -5 68 -12 139 -14 99 -4 137
-2 164 10 32 13 38 13 68 -3 29 -16 42 -16 116 -7 45 6 89 8 96 4 7 -4 47 -4
89 0 42 4 81 5 86 2 12 -7 57 5 57 16 0 11 -85 41 -114 41 -12 0 -34 -7 -50
-15 -18 -10 -42 -13 -65 -9 -52 8 -241 10 -253 3 -6 -4 -33 -1 -62 6 -81 21
-87 22 -161 18z"/>
<path d="M1548 1855 c-3 -4 -75 -10 -160 -15 -84 -5 -168 -12 -186 -15 -33 -7
-49 -21 -38 -33 4 -3 83 -6 176 -7 117 -1 174 -5 182 -13 10 -10 5 -26 -19
-75 -23 -46 -28 -68 -21 -80 25 -46 68 0 75 83 5 53 10 63 35 81 22 16 28 28
26 48 -2 21 -9 27 -33 29 -17 2 -34 0 -37 -3z"/>
<path d="M6880 1830 c-23 -15 2 -32 41 -28 23 2 35 9 37 21 3 13 -3 17 -30 17
-18 0 -40 -5 -48 -10z"/>
<path d="M7129 1824 c-12 -14 -11 -16 5 -13 11 2 21 10 24 17 5 17 -13 15 -29
-4z"/>
<path d="M7040 1820 c0 -5 5 -10 10 -10 6 0 10 5 10 10 0 6 -4 10 -10 10 -5 0
-10 -4 -10 -10z"/>
<path d="M7250 1816 c0 -10 9 -16 21 -16 24 0 21 23 -4 28 -10 2 -17 -3 -17
-12z"/>
<path d="M7367 1824 c-13 -13 5 -24 38 -24 41 0 67 9 59 21 -6 10 -87 12 -97
3z"/>
<path d="M7647 1823 c-13 -12 -7 -23 13 -23 11 0 20 7 20 15 0 15 -21 21 -33
8z"/>
<path d="M7715 1819 c-8 -12 14 -31 30 -26 6 2 10 10 10 18 0 17 -31 24 -40 8z"/>
<path d="M8075 1810 c-8 -12 20 -24 35 -15 6 3 8 11 5 16 -8 12 -32 12 -40 -1z"/>
<path d="M9874 1809 c-9 -16 18 -30 33 -17 7 6 10 14 7 19 -7 13 -31 11 -40
-2z"/>
<path d="M10410 1800 c0 -5 5 -10 10 -10 6 0 10 5 10 10 0 6 -4 10 -10 10 -5
0 -10 -4 -10 -10z"/>
<path d="M10970 1800 c0 -5 5 -10 10 -10 6 0 10 5 10 10 0 6 -4 10 -10 10 -5
0 -10 -4 -10 -10z"/>
<path d="M17123 1754 c-7 -20 22 -45 43 -37 19 7 18 39 -2 47 -25 10 -34 7
-41 -10z"/>
<path d="M18028 1758 c-31 -11 -37 -34 -10 -41 25 -7 95 -3 110 6 20 13 14 24
-15 29 -16 3 -35 8 -43 11 -8 3 -27 1 -42 -5z"/>
<path d="M18821 1761 c-19 -12 -6 -41 18 -41 27 0 34 15 15 34 -18 19 -15 18
-33 7z"/>
<path d="M20325 1754 c-22 -23 -2 -46 34 -37 36 8 37 10 16 33 -22 24 -29 25
-50 4z"/>
<path d="M20766 1763 c-4 -5 -24 -8 -44 -8 -19 0 -37 -5 -39 -11 -6 -17 43
-33 82 -27 29 5 35 10 33 26 -3 22 -20 32 -32 20z"/>
<path d="M21086 1758 c-10 -5 -29 -8 -43 -5 -14 3 -39 1 -55 -4 -20 -5 -36 -4
-49 4 -15 9 -22 9 -34 -4 -15 -14 -14 -17 0 -29 13 -11 21 -11 36 -2 14 9 25
9 39 2 23 -12 66 -13 88 -1 11 6 26 5 41 -4 18 -9 31 -10 53 -1 38 14 33 41
-7 41 -17 1 -35 4 -40 7 -6 4 -19 2 -29 -4z"/>
<path d="M15485 1750 c-3 -6 1 -13 10 -16 19 -8 30 0 20 15 -8 14 -22 14 -30
1z"/>
<path d="M15824 1749 c-8 -13 24 -23 76 -24 34 0 45 4 45 15 0 11 -14 15 -58
16 -31 1 -60 -3 -63 -7z"/>
<path d="M16510 1745 c-18 -21 31 -43 63 -28 12 6 30 14 40 17 10 3 15 10 12
16 -9 14 -35 13 -35 -2 0 -9 -3 -9 -12 0 -17 17 -53 15 -68 -3z"/>
<path d="M18154 1749 c-8 -14 18 -31 30 -19 9 9 0 30 -14 30 -5 0 -12 -5 -16
-11z"/>
<path d="M18497 1753 c-16 -15 -6 -34 16 -31 12 2 27 -3 33 -11 10 -13 15 -13
38 2 34 23 24 41 -19 33 -19 -4 -36 -2 -40 4 -7 12 -19 13 -28 3z"/>
<path d="M18950 1749 l-25 -10 30 -13 c24 -10 117 -13 198 -7 4 1 7 10 7 21 0
23 -25 26 -65 8 -19 -9 -28 -9 -37 0 -14 14 -73 15 -108 1z"/>
<path d="M19234 1749 c-9 -15 12 -33 30 -26 9 4 16 13 16 22 0 17 -35 21 -46
4z"/>
<path d="M19360 1751 c-18 -5 -21 -9 -12 -15 17 -10 65 2 57 14 -7 11 -9 11
-45 1z"/>
<path d="M19427 1753 c-14 -14 -6 -23 33 -34 45 -14 68 -3 57 25 -6 16 -76 23
-90 9z"/>
<path d="M19645 1749 c-10 -15 1 -23 20 -15 9 3 13 10 10 16 -8 13 -22 13 -30
-1z"/>
<path d="M19843 1753 c-27 -5 -30 -18 -7 -27 32 -12 54 -6 54 14 0 20 -5 21
-47 13z"/>
<path d="M19920 1750 c0 -5 7 -10 15 -10 8 0 15 5 15 10 0 6 -7 10 -15 10 -8
0 -15 -4 -15 -10z"/>
<path d="M20462 1753 c-10 -4 -10 -8 -1 -19 13 -16 35 -18 44 -5 7 12 -25 30
-43 24z"/>
<path d="M20817 1754 c-16 -16 -6 -35 16 -32 12 2 22 10 22 18 0 16 -26 25
-38 14z"/>
<path d="M21645 1750 c-3 -5 -17 -10 -31 -10 -15 0 -24 -6 -24 -16 0 -11 6
-13 20 -9 10 3 29 1 41 -5 26 -15 53 7 43 33 -7 19 -39 23 -49 7z"/>
<path d="M16740 1735 c0 -8 6 -15 14 -15 7 0 19 7 26 15 11 13 8 15 -14 15
-16 0 -26 -5 -26 -15z"/>
<path d="M17322 1739 c2 -6 8 -10 13 -10 5 0 11 4 13 10 2 6 -4 11 -13 11 -9
0 -15 -5 -13 -11z"/>
<path d="M18290 1740 c0 -5 5 -10 10 -10 6 0 10 5 10 10 0 6 -4 10 -10 10 -5
0 -10 -4 -10 -10z"/>
<path d="M18755 1741 c-6 -11 9 -23 19 -14 9 9 7 23 -3 23 -6 0 -12 -4 -16 -9z"/>
<path d="M19745 1740 c-3 -5 1 -10 9 -10 9 0 16 5 16 10 0 6 -4 10 -9 10 -6 0
-13 -4 -16 -10z"/>
<path d="M20190 1734 c0 -9 5 -14 12 -12 18 6 21 28 4 28 -9 0 -16 -7 -16 -16z"/>
<path d="M21260 1740 c-13 -9 -13 -11 0 -20 29 -19 80 -4 66 19 -9 14 -46 14
-66 1z"/>
<path d="M21384 1739 c-9 -16 21 -43 40 -36 9 4 16 16 16 27 0 15 -7 20 -24
20 -14 0 -28 -5 -32 -11z"/>
<path d="M21457 1744 c-11 -11 5 -34 24 -34 12 0 19 7 19 20 0 19 -28 28 -43
14z"/>
<path d="M18230 1730 c0 -5 5 -10 10 -10 6 0 10 5 10 10 0 6 -4 10 -10 10 -5
0 -10 -4 -10 -10z"/>
<path d="M21530 1730 c0 -5 5 -10 10 -10 6 0 10 5 10 10 0 6 -4 10 -10 10 -5
0 -10 -4 -10 -10z"/>
<path d="M22960 1710 c0 -5 5 -10 10 -10 6 0 10 5 10 10 0 6 -4 10 -10 10 -5
0 -10 -4 -10 -10z"/>
<path d="M22565 1700 c-3 -5 1 -10 9 -10 9 0 16 5 16 10 0 6 -4 10 -9 10 -6 0
-13 -4 -16 -10z"/>
<path d="M700 1505 c-9 -11 -9 -31 -1 -84 6 -38 11 -92 11 -119 0 -79 10 -86
121 -79 87 6 490 41 639 56 59 6 69 4 111 -21 77 -46 115 -59 144 -48 14 5 25
16 25 23 0 20 -73 68 -117 78 -103 22 -109 24 -88 33 11 4 34 13 50 18 28 9
927 22 1260 18 138 -2 197 -1 325 4 36 1 104 -2 152 -7 61 -7 92 -6 101 1 8 7
53 9 130 6 72 -4 129 -2 149 5 23 7 44 8 67 1 23 -6 48 -6 78 1 27 7 48 8 56
2 9 -7 493 -9 862 -3 17 0 65 -5 108 -12 63 -10 85 -9 110 1 38 16 49 16 106
1 24 -6 47 -7 50 -2 3 4 26 8 51 9 25 0 56 1 70 2 14 1 66 -2 115 -5 50 -4
104 -7 120 -6 63 1 718 4 885 3 96 -1 258 -1 360 0 102 0 213 0 247 -2 37 -1
69 3 77 10 11 9 20 10 36 1 13 -7 73 -11 153 -11 73 0 159 -2 192 -4 65 -4 90
-5 133 -3 15 0 41 0 57 -1 48 -3 175 6 181 12 3 3 17 1 31 -4 15 -6 38 -6 58
0 26 7 36 5 49 -7 15 -15 18 -15 45 1 34 20 46 21 160 13 54 -4 90 -11 101
-21 24 -21 39 -19 52 10 12 28 43 33 52 10 7 -19 36 -20 36 -1 0 20 20 25 53
13 16 -5 45 -7 66 -3 26 4 49 1 71 -10 27 -14 34 -14 41 -3 8 13 48 17 219 20
53 1 168 -7 227 -16 36 -5 57 -4 67 4 7 6 20 9 28 6 8 -3 26 -2 39 3 14 6 47
6 80 1 39 -6 71 -5 106 4 42 11 53 11 70 0 17 -11 33 -12 75 -4 47 8 55 7 71
-10 21 -23 54 -24 82 -3 15 11 46 14 138 13 65 -2 120 -6 123 -10 5 -9 113 0
135 12 11 6 21 4 28 -5 17 -21 51 -27 58 -10 7 19 90 18 138 -2 41 -17 70 -12
62 10 -4 11 3 13 36 9 23 -3 49 -9 57 -12 18 -9 40 -8 160 8 52 7 101 18 108
23 9 8 19 3 37 -16 35 -38 73 -34 66 7 0 4 0 7 1 8 56 11 94 9 123 -7 27 -14
36 -15 48 -6 12 10 20 8 44 -12 28 -23 34 -24 89 -16 119 17 149 23 159 30 16
12 103 18 113 8 12 -12 88 -13 141 0 56 13 67 8 83 -34 14 -38 28 -45 28 -13
0 16 5 20 20 16 11 -3 22 -1 25 4 10 15 73 41 84 34 7 -4 4 -20 -9 -46 -15
-28 -27 -39 -43 -39 -13 0 -28 -5 -34 -11 -9 -9 -23 -9 -57 0 -25 6 -59 11
-75 11 -22 0 -31 5 -31 16 0 9 -7 14 -17 12 -12 -2 -17 -11 -15 -25 3 -19 -3
-21 -48 -25 -28 -1 -58 1 -66 5 -17 10 -46 17 -92 24 -18 3 -35 9 -38 14 -9
15 -48 10 -74 -8 -18 -13 -49 -19 -110 -21 -47 -1 -121 -5 -165 -8 -65 -5 -86
-2 -113 12 -32 17 -35 17 -43 1 -7 -12 -18 -15 -39 -11 -57 12 -106 -19 -68
-42 6 -4 147 -6 312 -5 166 1 324 2 351 2 28 0 73 -1 100 -1 199 -2 825 -2
925 0 41 0 172 1 290 1 237 1 224 1 435 -2 83 -1 173 -2 200 -1 28 1 367 2
755 1 388 -1 714 -1 725 -1 11 1 1296 -1 2855 -3 2657 -3 3580 -7 4725 -21
621 -8 2001 -18 2108 -15 25 1 27 4 27 45 0 55 -10 62 -44 35 l-26 -21 -36 21
c-27 16 -40 19 -49 11 -17 -14 -151 -7 -187 10 -23 11 -30 11 -44 -1 -11 -9
-36 -13 -73 -11 -36 2 -63 -2 -75 -11 -16 -12 -25 -10 -73 15 -65 34 -70 34
-100 6 -22 -20 -26 -21 -73 -9 -27 7 -55 9 -62 5 -7 -5 -43 -7 -80 -5 -36 1
-75 -2 -87 -8 -16 -9 -24 -7 -38 8 -17 18 -24 19 -96 8 -60 -8 -83 -8 -97 1
-14 8 -33 9 -71 2 -43 -8 -55 -7 -69 5 -22 20 -29 19 -56 -6 -18 -17 -26 -19
-42 -10 -12 6 -47 11 -78 11 -32 0 -72 5 -90 12 -26 9 -42 8 -86 -5 -43 -13
-72 -15 -153 -9 -55 4 -121 5 -147 2 -27 -4 -48 -3 -48 2 0 5 -12 14 -26 20
-23 11 -28 9 -44 -11 -16 -23 -19 -23 -40 -8 -17 12 -28 13 -42 6 -16 -9 -25
-6 -44 12 -22 20 -26 21 -50 8 -15 -7 -38 -12 -51 -11 -13 2 -30 -2 -38 -8 -9
-8 -29 -9 -56 -5 -30 5 -44 3 -50 -6 -7 -11 -12 -12 -28 -2 -11 7 -34 10 -55
6 -20 -3 -56 1 -83 9 -56 18 -281 22 -301 6 -9 -8 -18 -6 -32 7 -17 16 -24 16
-45 5 -19 -10 -30 -10 -54 0 -17 7 -39 9 -48 5 -10 -4 -34 -7 -54 -6 -21 1
-40 -2 -44 -8 -10 -17 -48 -13 -96 8 -32 15 -48 17 -62 9 -24 -13 -270 -17
-315 -5 -21 5 -38 4 -46 -2 -13 -11 -79 -4 -109 11 -12 6 -23 6 -30 -1 -10 -8
-69 -13 -152 -11 -11 0 -76 -1 -145 -2 -69 0 -153 3 -188 7 -46 6 -70 4 -87
-5 -20 -11 -34 -11 -79 0 -35 8 -83 11 -132 7 -45 -3 -86 -2 -96 4 -12 7 -24
7 -31 1 -25 -19 -82 -21 -179 -7 -75 12 -109 13 -139 5 -22 -6 -50 -8 -62 -4
-12 4 -29 7 -39 5 -9 -1 -19 3 -23 9 -8 14 -41 13 -68 -2 -20 -11 -45 -15
-117 -19 -50 -2 -135 10 -138 20 -5 15 -29 14 -55 -4 -30 -19 -144 -16 -157 5
-7 11 -11 11 -24 1 -10 -8 -30 -12 -49 -9 -17 3 -79 2 -137 -2 -84 -6 -112 -4
-138 8 -28 13 -35 13 -42 2 -13 -21 -217 -24 -247 -4 -31 20 -46 18 -71 -11
-26 -30 -33 -30 -105 -6 -30 11 -58 17 -60 14 -12 -11 -94 -16 -212 -14 -11 1
-33 1 -50 1 -16 0 -36 7 -43 14 -11 10 -23 11 -54 3 -24 -6 -43 -6 -47 -1 -9
13 -63 14 -78 2 -8 -7 -24 -6 -48 2 -36 12 -57 8 -121 -22 -16 -8 -28 -6 -48
7 -21 14 -39 16 -98 11 -118 -10 -162 -16 -185 -28 -24 -12 -93 -3 -93 12 0 6
5 10 10 10 23 0 8 18 -20 23 -38 8 -60 0 -60 -23 0 -16 -18 -30 -40 -30 -4 0
-10 9 -13 20 -4 18 -9 19 -29 9 -21 -9 -31 -7 -64 16 -29 20 -45 24 -64 19
-14 -5 -47 -9 -75 -10 -72 -3 -114 -11 -141 -29 -21 -13 -24 -13 -32 2 -6 11
-17 14 -32 10 -13 -3 -32 -1 -42 4 -15 8 -23 7 -32 -7 -10 -14 -21 -16 -55
-10 -27 4 -61 1 -96 -9 -55 -16 -79 -13 -72 8 2 6 -2 23 -9 36 -16 30 -9 45
19 37 11 -3 29 -1 39 5 12 7 25 6 39 -2 17 -9 30 -7 61 7 57 25 35 36 -82 40
-89 3 -103 1 -120 -16 -19 -19 -18 -50 1 -50 5 0 9 -11 9 -25 0 -16 6 -25 15
-25 8 0 15 -7 15 -15 0 -24 -19 -18 -47 15 -27 33 -43 31 -43 -3 0 -17 -6 -22
-27 -22 -16 0 -34 4 -41 8 -7 5 -25 2 -43 -7 -29 -14 -30 -14 -39 10 -10 25
-34 32 -45 13 -5 -7 -13 -5 -25 6 -15 14 -18 14 -30 0 -16 -19 -29 -19 -49 -1
-9 8 -28 17 -42 21 -21 5 -27 2 -31 -13 -6 -20 -44 -32 -104 -32 -18 0 -36 -5
-39 -10 -8 -13 -52 -13 -60 0 -3 5 -16 10 -29 10 -12 0 -27 5 -32 10 -8 8 -15
6 -24 -5 -16 -19 -36 -19 -44 1 -6 15 -17 14 -63 -3 -9 -4 -13 5 -13 26 0 17
-4 31 -10 31 -15 0 -32 -40 -27 -66 6 -36 -7 -38 -56 -10 -49 29 -95 34 -103
11 -7 -18 -24 -20 -24 -2 0 7 -6 22 -14 33 -14 19 -15 19 -46 -4 -29 -22 -33
-22 -49 -8 -26 24 -56 19 -92 -13 -32 -29 -69 -43 -87 -32 -6 3 -12 17 -13 30
-5 32 -27 38 -31 9 -2 -19 -10 -24 -44 -26 -29 -2 -47 2 -59 14 -13 14 -19 14
-25 4 -10 -16 -76 -21 -118 -8 -26 8 -38 6 -57 -6 -25 -16 -25 -16 -42 19 -14
29 -21 35 -38 30 -42 -14 -60 -10 -63 11 -3 18 4 23 45 33 46 11 204 8 242 -4
10 -3 31 -1 46 5 22 8 33 7 52 -6 23 -14 34 -15 107 -3 47 8 182 14 321 15
132 2 254 3 270 4 135 3 195 -5 195 -29 0 -4 -11 -13 -25 -19 -21 -10 -36 -42
-19 -42 17 0 46 24 54 46 10 25 14 28 63 39 22 4 28 11 25 28 -3 23 -18 25
-198 19 -30 -2 -374 -1 -764 2 -426 2 -723 0 -743 -6 -24 -7 -39 -6 -49 3 -10
8 -34 10 -82 5 -37 -4 -73 -7 -79 -6 -16 2 -69 2 -108 1 -21 -1 -1212 0 -1525
1 -8 0 -269 2 -580 5 -717 5 -8268 9 -9175 4 -418 -2 -776 -9 -930 -18 -271
-15 -341 -12 -379 18 -29 23 -30 23 -46 4z m12959 -75 c9 0 12 -9 9 -25 -3
-13 -1 -26 5 -28 6 -2 7 -14 4 -29 -6 -24 -11 -26 -79 -30 -40 -3 -79 -2 -87
2 -21 11 -24 81 -4 102 21 23 35 23 56 -3 23 -26 41 -20 45 15 3 26 5 27 21
12 10 -9 23 -16 30 -16z m-229 10 c0 -3 -7 -14 -15 -25 -10 -12 -13 -30 -9
-52 6 -29 4 -33 -16 -33 -19 0 -22 4 -17 29 5 23 1 31 -18 41 -20 11 -27 11
-40 0 -19 -16 -19 -49 0 -56 8 -4 15 -10 15 -15 0 -13 -38 -11 -76 3 -31 11
-32 12 -17 35 8 13 21 23 29 23 19 0 29 21 13 31 -10 6 -8 10 8 16 25 9 143
12 143 3z m-2284 -11 c3 -6 1 -16 -5 -22 -9 -9 -14 -8 -21 3 -9 15 -4 30 10
30 5 0 12 -5 16 -11z m1422 0 c28 -9 30 -14 25 -40 -8 -40 22 -52 50 -18 22
27 43 27 96 -2 19 -10 37 -16 40 -13 6 6 -31 40 -51 46 -7 3 -8 10 -3 17 10
16 104 10 115 -8 12 -21 -12 -91 -31 -91 -10 0 -20 3 -23 8 -5 8 -118 7 -183
-3 -35 -5 -49 -3 -64 11 -14 12 -22 14 -32 6 -7 -6 -31 -14 -53 -18 -44 -7
-57 2 -68 49 -8 34 14 46 47 24 29 -19 77 -11 77 12 0 33 11 36 58 20z m532
-4 c0 -21 -28 -31 -43 -16 -9 9 -8 14 3 21 22 14 40 12 40 -5z m805 -1 c16
-12 18 -18 7 -34 -17 -28 -16 -30 24 -30 24 0 34 -4 32 -12 -7 -20 -67 -22
-87 -4 -14 13 -27 14 -67 7 -27 -5 -62 -7 -77 -4 -25 5 -28 10 -25 37 2 23 8
32 26 34 12 2 29 -4 38 -12 22 -22 54 -21 54 2 0 10 3 22 7 25 11 12 47 7 68
-9z m-1966 -11 c19 -13 51 -17 150 -18 69 -2 131 2 138 7 7 5 22 6 35 2 13 -5
34 -9 48 -9 21 0 26 -6 28 -31 l3 -31 -93 -6 c-74 -4 -327 -3 -385 2 -23 2
-14 45 15 73 33 32 32 32 61 11z m741 7 c0 -5 -4 -10 -10 -10 -5 0 -10 5 -10
10 0 6 5 10 10 10 6 0 10 -4 10 -10z m300 1 c0 -6 -4 -13 -10 -16 -5 -3 -10 1
-10 9 0 9 5 16 10 16 6 0 10 -4 10 -9z m-54 -56 c-3 -8 -10 -15 -15 -15 -5 0
-4 11 2 25 12 25 23 16 13 -10z m254 -14 c0 -27 -13 -33 -47 -20 -27 10 -27
11 -9 25 28 20 56 18 56 -5z m3290 9 c0 -5 -8 -10 -17 -10 -15 0 -16 2 -3 10
19 12 20 12 20 0z m-3491 -13 c6 -8 8 -17 4 -20 -7 -8 -33 11 -33 24 0 13 16
11 29 -4z m110 4 c13 -8 8 -31 -7 -31 -17 1 -34 19 -28 29 9 13 16 14 35 2z"/>
<path d="M17173 1503 c-29 -6 -51 -31 -32 -37 58 -18 99 -10 99 18 0 13 -23
28 -38 25 -4 -1 -17 -4 -29 -6z"/>
<path d="M15401 1491 c-16 -10 -6 -31 14 -31 7 0 15 -6 18 -12 2 -7 7 -10 11
-7 8 8 -10 59 -21 59 -5 0 -14 -4 -22 -9z"/>
<path d="M15485 1491 c-3 -2 -5 -13 -5 -23 0 -14 8 -18 39 -18 22 0 41 -5 43
-11 3 -9 17 -8 55 1 63 16 85 9 81 -27 -5 -41 25 -42 40 0 16 46 15 65 -5 76
-18 9 -239 11 -248 2z"/>
<path d="M16203 1490 c-36 -14 -27 -30 16 -30 42 0 63 16 40 31 -17 11 -27 10
-56 -1z"/>
<path d="M16323 1492 c-15 -9 -5 -25 24 -41 29 -15 41 4 17 30 -19 21 -23 22
-41 11z"/>
<path d="M16464 1479 c-13 -14 -13 -18 1 -29 12 -10 21 -10 38 -2 38 18 68 21
93 10 33 -15 52 2 29 26 -23 23 -139 19 -161 -5z"/>
<path d="M16655 1491 c-9 -16 3 -31 26 -31 14 0 19 6 17 17 -4 20 -33 29 -43
14z"/>
<path d="M16980 1480 c0 -15 5 -20 18 -18 9 2 17 10 17 18 0 8 -8 16 -17 18
-13 2 -18 -3 -18 -18z"/>
<path d="M17527 1493 c-16 -3 -26 -9 -24 -16 3 -7 10 -11 16 -9 7 1 20 -2 30
-7 25 -14 64 13 41 29 -8 5 -19 9 -25 8 -5 0 -23 -3 -38 -5z"/>
<path d="M17658 1488 c-16 -5 -28 -16 -28 -24 0 -16 16 -19 25 -4 3 6 17 10
31 10 13 0 24 4 24 9 0 15 -23 19 -52 9z"/>
<path d="M17900 1490 c-12 -8 -12 -10 3 -16 21 -8 35 2 21 16 -5 5 -15 6 -24
0z"/>
<path d="M18870 1490 c0 -5 7 -10 16 -10 8 0 12 5 9 10 -3 6 -10 10 -16 10 -5
0 -9 -4 -9 -10z"/>
<path d="M19745 1490 c-8 -13 3 -30 20 -30 23 0 27 18 6 30 -13 7 -22 7 -26 0z"/>
<path d="M20176 1493 c-13 -14 -5 -33 14 -33 11 0 20 6 20 14 0 15 -24 28 -34
19z"/>
<path d="M16091 1481 c-28 -7 -41 -31 -17 -31 8 0 17 4 20 9 3 5 15 7 26 4 14
-4 20 0 20 11 0 17 -10 18 -49 7z"/>
<path d="M16735 1480 c-3 -5 1 -10 9 -10 9 0 16 5 16 10 0 6 -4 10 -9 10 -6 0
-13 -4 -16 -10z"/>
<path d="M16832 1473 c4 -22 43 -25 43 -3 0 8 -11 16 -23 18 -19 3 -23 0 -20
-15z"/>
<path d="M17420 1480 c-12 -8 -12 -10 3 -16 20 -7 47 1 47 16 0 12 -30 13 -50
0z"/>
<path d="M17820 1480 c0 -5 4 -10 9 -10 6 0 13 5 16 10 3 6 -1 10 -9 10 -9 0
-16 -4 -16 -10z"/>
<path d="M18120 1480 c0 -5 5 -10 10 -10 6 0 10 5 10 10 0 6 -4 10 -10 10 -5
0 -10 -4 -10 -10z"/>
<path d="M20890 1475 c0 -8 7 -15 15 -15 8 0 15 7 15 15 0 8 -7 15 -15 15 -8
0 -15 -7 -15 -15z"/>
<path d="M20956 1482 c-3 -6 -1 -14 5 -17 15 -10 25 3 12 16 -7 7 -13 7 -17 1z"/>
<path d="M17750 1470 c0 -5 5 -10 10 -10 6 0 10 5 10 10 0 6 -4 10 -10 10 -5
0 -10 -4 -10 -10z"/>
<path d="M23280 1445 c0 -8 7 -15 15 -15 8 0 15 7 15 15 0 8 -7 15 -15 15 -8
0 -15 -7 -15 -15z"/>
<path d="M10893 1393 c-18 -7 -16 -23 2 -23 8 0 15 7 15 15 0 8 -1 15 -2 14
-2 0 -9 -3 -15 -6z"/>
<path d="M10244 1379 c-10 -17 13 -36 27 -22 12 12 4 33 -11 33 -5 0 -12 -5
-16 -11z"/>
<path d="M10925 1380 c-3 -5 1 -10 10 -10 9 0 13 5 10 10 -3 6 -8 10 -10 10
-2 0 -7 -4 -10 -10z"/>
<path d="M10750 1370 c0 -5 5 -10 10 -10 6 0 10 5 10 10 0 6 -4 10 -10 10 -5
0 -10 -4 -10 -10z"/>
<path d="M8695 1329 c-11 -17 26 -50 54 -47 38 5 36 26 -5 43 -43 18 -41 18
-49 4z"/>
<path d="M9392 1328 c-8 -8 -39 -11 -92 -9 -91 3 -112 -14 -27 -23 157 -16
163 -16 183 -1 19 15 19 15 0 30 -24 18 -48 19 -64 3z"/>
<path d="M9710 1326 c-12 -13 -29 -14 -90 -7 -70 7 -130 -2 -130 -20 0 -4 21
-8 48 -8 26 0 98 -2 161 -5 62 -3 131 -2 153 3 29 7 52 5 81 -5 30 -11 48 -12
67 -5 14 6 36 11 50 13 30 4 41 38 13 38 -11 0 -23 -4 -29 -10 -6 -6 -34 -3
-78 7 -55 12 -73 13 -91 3 -22 -12 -55 -10 -115 5 -16 4 -30 1 -40 -9z"/>
<path d="M8276 1323 c-11 -11 -6 -23 9 -23 8 0 15 4 15 9 0 13 -16 22 -24 14z"/>
<path d="M8871 1316 c-10 -12 -3 -16 42 -21 68 -9 103 0 86 21 -16 19 -112 19
-128 0z"/>
<path d="M10384 1319 c-2 -3 -28 -4 -58 -1 -65 5 -129 -5 -124 -20 4 -10 63
-18 128 -17 14 0 71 0 127 -1 101 0 129 8 104 33 -11 11 -170 17 -177 6z"/>
<path d="M4472 1309 c2 -6 8 -10 13 -10 5 0 11 4 13 10 2 6 -4 11 -13 11 -9 0
-15 -5 -13 -11z"/>
<path d="M7192 1309 c2 -6 8 -10 13 -10 5 0 11 4 13 10 2 6 -4 11 -13 11 -9 0
-15 -5 -13 -11z"/>
<path d="M8054 1309 c-7 -12 15 -31 28 -23 4 3 8 12 8 20 0 17 -26 19 -36 3z"/>
<path d="M8340 1304 c0 -10 7 -14 22 -12 32 5 35 28 4 28 -17 0 -26 -5 -26
-16z"/>
<path d="M8502 1308 c5 -15 37 -18 41 -3 1 6 -9 12 -22 13 -16 3 -22 -1 -19
-10z"/>
<path d="M9078 1313 c-36 -9 -16 -20 44 -27 44 -4 64 -3 69 6 4 7 6 15 3 19
-4 7 -87 8 -116 2z"/>
<path d="M7458 1303 c7 -3 16 -2 19 1 4 3 -2 6 -13 5 -11 0 -14 -3 -6 -6z"/>
<path d="M8603 1298 c2 -7 10 -13 17 -13 7 0 15 6 18 13 2 7 -5 12 -18 12 -13
0 -20 -5 -17 -12z"/>
<path d="M16943 298 c-15 -24 -35 -133 -40 -215 l-4 -83 70 0 c60 0 71 3 73
18 0 9 2 36 4 59 1 23 8 59 13 80 18 63 14 83 -25 119 -36 35 -76 44 -91 22z"/>
<path d="M11330 246 c0 -11 9 -16 26 -16 31 0 28 23 -4 28 -15 2 -22 -2 -22
-12z"/>
<path d="M11557 254 c-9 -10 2 -24 19 -24 8 0 14 7 14 15 0 15 -21 21 -33 9z"/>
<path d="M12529 243 c-30 -36 -51 -100 -58 -170 l-7 -73 67 0 c78 0 74 -6 84
117 7 82 7 83 -23 113 -35 35 -44 36 -63 13z"/>
<path d="M12105 240 c4 -6 11 -8 16 -5 14 9 11 15 -7 15 -8 0 -12 -5 -9 -10z"/>
<path d="M14820 155 c-7 -8 -21 -15 -31 -15 -27 0 -31 -14 -14 -54 13 -30 20
-36 44 -36 20 0 36 9 50 26 25 32 27 57 5 78 -19 20 -38 20 -54 1z"/>
<path d="M14310 139 c0 -14 5 -19 17 -17 26 5 29 38 4 38 -15 0 -21 -6 -21
-21z"/>
<path d="M15592 148 c-11 -14 -42 -74 -42 -82 0 -8 62 -36 80 -36 25 0 53 35
53 67 0 46 -65 82 -91 51z"/>
<path d="M16352 133 c-18 -35 -23 -75 -11 -89 6 -8 29 -14 50 -14 42 0 59 18
59 64 0 46 -79 77 -98 39z"/>
<path d="M14306 65 c-3 -9 1 -18 10 -22 19 -7 28 2 21 22 -8 19 -23 19 -31 0z"/>
</g>
</svg>
