<?xml version="1.0" standalone="no"?>
<!DOCTYPE svg PUBLIC "-//W3C//DTD SVG 20010904//EN"
 "http://www.w3.org/TR/2001/REC-SVG-20010904/DTD/svg10.dtd">
<svg version="1.0" xmlns="http://www.w3.org/2000/svg"
 width="3264.000000pt" height="2448.000000pt" viewBox="0 0 3264.000000 2448.000000"
 preserveAspectRatio="xMidYMid meet">
<metadata>
Created by potrace 1.12, written by Peter Selinger 2001-2015
</metadata>
<g transform="translate(0.000000,2448.000000) scale(0.100000,-0.100000)"
fill="#000000" stroke="none">
<path d="M23385 22787 c-15 -24 -81 -198 -92 -245 -7 -31 -50 -62 -84 -62 -16
0 -36 -8 -46 -18 -10 -11 -26 -22 -36 -25 -23 -9 -37 -47 -25 -71 9 -17 12
-16 36 12 33 37 108 56 98 25 -18 -57 -36 -154 -36 -190 0 -36 3 -43 20 -43
26 0 38 25 49 102 5 35 18 85 28 113 17 45 22 50 58 58 58 11 291 10 350 -2
40 -8 53 -7 64 4 12 11 12 17 1 29 -7 9 -21 16 -32 16 -11 0 -45 7 -76 16 -46
14 -81 15 -189 10 l-132 -7 8 28 c5 15 22 69 39 118 35 104 42 147 25 152 -6
2 -19 -7 -28 -20z"/>
<path d="M23088 22524 c-16 -8 -28 -18 -28 -23 0 -11 -132 -187 -206 -276 -45
-53 -76 -79 -129 -107 -82 -43 -130 -48 -170 -16 -26 20 -27 24 -21 85 6 53 4
64 -10 70 -29 11 -55 -29 -61 -93 -5 -55 -3 -62 23 -93 57 -68 128 -77 237
-30 86 37 165 110 238 217 27 41 49 76 49 78 0 3 25 43 56 90 61 93 68 122 22
98z"/>
<path d="M19485 22270 c-22 -10 -65 -28 -94 -41 -72 -31 -183 -140 -216 -211
-30 -65 -31 -110 -5 -196 34 -110 71 -141 200 -167 71 -14 95 -15 145 -5 116
22 133 23 157 6 29 -21 53 -20 104 3 45 21 148 97 179 133 l20 23 5 -68 c4
-60 9 -72 33 -93 28 -24 71 -32 82 -14 3 5 -11 24 -31 42 l-36 33 7 80 c4 44
16 100 26 124 10 24 19 54 19 67 0 20 -5 24 -30 24 -20 0 -32 -6 -36 -17 -31
-103 -164 -247 -262 -284 -22 -8 -24 -7 -19 11 4 15 0 20 -14 20 -29 0 -23 30
20 97 37 57 115 123 146 123 7 0 22 -12 33 -27 18 -25 21 -26 28 -10 3 10 0
34 -8 55 -13 35 -17 37 -52 34 -50 -4 -133 -59 -189 -125 -35 -40 -49 -67 -59
-112 l-13 -60 -45 -7 c-51 -9 -116 -5 -206 12 -87 16 -118 46 -141 132 -17 66
-17 70 2 125 12 36 34 71 61 98 41 43 155 125 172 125 5 0 36 11 71 25 47 19
66 23 81 15 44 -23 68 1 34 34 -22 22 -118 20 -169 -4z"/>
<path d="M22160 22255 c-48 -26 -85 -31 -95 -15 -11 18 -73 11 -110 -12 -92
-58 -145 -125 -145 -185 0 -76 86 -138 176 -127 53 7 156 54 239 109 64 43 79
60 94 107 15 45 -2 93 -44 126 -35 28 -59 27 -115 -3z m95 -59 c16 -12 17 -17
6 -43 -14 -35 -55 -77 -99 -101 -17 -9 -49 -28 -73 -41 -58 -32 -147 -40 -182
-16 -49 31 -33 97 35 153 45 36 64 35 30 -1 -26 -27 -27 -40 -8 -56 12 -10 18
-7 32 14 9 14 45 40 78 57 93 47 149 58 181 34z"/>
<path d="M20645 22227 c-62 -21 -257 -158 -267 -187 -2 -5 -22 -31 -46 -57
-79 -88 -161 -199 -178 -242 -15 -38 -15 -44 -2 -58 20 -19 53 -4 64 29 9 31
75 128 145 214 93 114 200 207 308 266 51 28 33 54 -24 35z"/>
<path d="M20935 22168 c-21 -18 -73 -73 -117 -123 -43 -49 -87 -99 -97 -110
-10 -11 -44 -53 -75 -93 -37 -47 -63 -71 -72 -68 -16 6 -46 -24 -67 -67 -18
-37 -12 -57 17 -57 39 1 47 10 308 343 60 76 73 69 34 -20 -37 -87 -40 -109
-16 -133 11 -11 33 -20 50 -20 28 0 89 28 120 55 22 20 108 55 134 55 65 0 62
-64 -9 -205 -60 -119 -82 -157 -126 -222 -16 -23 -29 -44 -29 -46 0 -11 -66
-114 -116 -182 -29 -38 -53 -77 -54 -85 -4 -28 0 -40 13 -40 18 0 99 86 132
140 16 25 43 63 61 85 46 58 172 285 212 385 26 67 32 94 28 128 -8 58 -31 90
-77 103 -37 11 -43 10 -160 -50 -70 -37 -125 -59 -130 -54 -12 12 43 165 81
227 51 80 22 114 -45 54z"/>
<path d="M14026 21611 c-4 -7 -5 -15 -2 -18 9 -9 19 4 14 18 -4 11 -6 11 -12
0z"/>
<path d="M24576 21413 c-17 -17 -2 -53 39 -93 34 -34 48 -41 57 -32 9 9 9 17
0 37 -19 42 -15 53 21 57 20 2 32 8 32 18 0 12 -15 15 -71 17 -40 1 -74 -1
-78 -4z"/>
<path d="M22046 21236 c-22 -7 -68 -39 -108 -76 -38 -35 -79 -71 -91 -81 -13
-9 -44 -63 -71 -119 -45 -92 -49 -107 -48 -168 2 -82 25 -134 81 -185 38 -34
45 -37 105 -37 67 0 138 20 168 47 39 35 7 43 -75 18 -30 -9 -66 -12 -98 -8
-41 5 -54 12 -73 37 -57 77 -59 147 -8 264 30 69 50 98 102 150 76 75 124 102
180 102 35 0 40 3 40 23 0 46 -30 56 -104 33z"/>
<path d="M19611 21129 c-11 -12 -34 -65 -52 -118 -17 -53 -44 -124 -60 -159
-16 -35 -29 -68 -29 -73 0 -11 -5 -21 -50 -109 -18 -36 -36 -67 -40 -70 -8 -6
-46 -113 -62 -175 -6 -22 -23 -78 -38 -125 -16 -47 -31 -101 -35 -120 -3 -19
-16 -75 -27 -124 -20 -85 -23 -91 -87 -158 -36 -39 -81 -77 -99 -85 -18 -7
-36 -21 -39 -31 -8 -23 -44 -62 -57 -62 -40 2 -96 98 -96 165 0 49 31 120 59
135 43 22 16 59 -34 46 -18 -5 -34 -23 -55 -66 -41 -82 -41 -150 1 -235 42
-87 80 -125 121 -125 29 0 47 15 146 115 104 105 115 114 142 108 28 -5 30 -4
30 27 0 28 14 47 95 129 89 91 114 131 81 131 -15 0 -55 -28 -103 -73 -18 -17
-35 -28 -38 -26 -17 17 140 490 207 624 25 50 51 108 58 130 7 22 16 45 20 50
4 6 22 53 41 105 18 52 41 109 51 126 17 29 17 33 3 48 -22 21 -30 20 -54 -5z"/>
<path d="M25135 21133 c-46 -11 -103 -34 -155 -62 -30 -17 -74 -39 -97 -51
-23 -11 -45 -25 -48 -31 -4 -6 -19 -7 -37 -3 -29 6 -30 5 -24 -19 5 -21 1 -28
-21 -39 -37 -17 -38 -52 -2 -56 19 -2 45 12 99 54 88 69 247 144 306 144 74 0
96 -55 69 -177 -12 -55 -14 -78 -6 -86 18 -18 41 3 61 54 26 70 31 106 19 157
-19 86 -86 133 -164 115z"/>
<path d="M22899 21092 c-47 -31 -128 -119 -224 -246 -97 -127 -101 -134 -115
-176 -12 -36 -12 -43 3 -57 20 -20 39 -7 58 40 13 33 114 183 127 189 4 2 26
29 49 60 24 31 74 88 113 126 38 38 70 74 70 80 0 20 -34 13 -81 -16z"/>
<path d="M23314 21043 c-33 -26 -80 -64 -106 -85 -26 -21 -52 -38 -58 -38 -6
0 -33 -21 -61 -47 -28 -26 -71 -61 -97 -78 -34 -22 -48 -38 -50 -58 -3 -22 1
-27 18 -27 23 0 66 34 219 168 52 45 96 81 98 78 3 -2 0 -21 -6 -43 -18 -65
-14 -104 16 -135 15 -15 35 -28 46 -28 27 0 136 60 147 81 13 23 99 84 142 99
19 7 47 10 61 6 26 -6 27 -10 27 -67 0 -49 -6 -74 -31 -123 -17 -33 -37 -68
-44 -76 -7 -8 -20 -30 -30 -49 -9 -18 -42 -61 -73 -95 -99 -108 -172 -202
-172 -222 0 -23 30 -23 59 1 38 32 197 215 238 274 59 84 116 211 121 265 6
72 -20 125 -70 144 -35 13 -43 13 -100 -9 -35 -13 -81 -39 -103 -59 -102 -90
-154 -119 -184 -101 -30 19 18 149 81 218 23 25 18 53 -11 53 -10 0 -45 -21
-77 -47z"/>
<path d="M24452 21013 c-36 -77 -55 -168 -41 -195 5 -10 21 -18 34 -18 21 0
25 5 25 33 0 37 33 152 50 172 18 22 8 70 -15 73 -17 2 -27 -11 -53 -65z"/>
<path d="M22330 20983 c-8 -3 -22 -11 -30 -18 -8 -7 -33 -16 -54 -19 -43 -8
-76 -26 -118 -65 -39 -35 -38 -79 3 -126 26 -30 37 -35 74 -35 45 0 103 31
137 76 11 13 28 24 39 24 15 0 18 -5 13 -24 -12 -48 52 -154 78 -128 8 8 7 22
-7 51 -14 32 -16 52 -10 93 29 197 -5 195 -148 -6 -18 -25 -124 -29 -140 -5
-12 20 15 61 53 81 14 7 41 22 60 34 19 12 57 25 83 29 38 5 48 10 45 23 -3
18 -49 26 -78 15z"/>
<path d="M21890 20258 c-112 -138 -193 -215 -437 -422 -32 -26 -61 -30 -35 -4
7 7 12 19 12 28 0 9 9 25 20 35 27 24 27 65 0 65 -20 0 -50 -45 -50 -75 0 -9
-53 -69 -119 -133 -183 -181 -221 -226 -221 -266 0 -41 17 -56 73 -67 57 -10
106 6 304 99 119 56 163 82 163 95 0 24 -27 22 -87 -8 -28 -13 -64 -27 -79
-31 -15 -4 -53 -22 -85 -39 -31 -18 -74 -35 -95 -38 -22 -3 -54 -9 -71 -13
-52 -10 -52 16 -1 76 37 43 47 50 70 44 29 -6 33 -3 180 139 33 32 72 65 86
75 15 9 58 44 96 77 38 33 80 69 93 80 65 54 136 130 187 198 35 47 64 77 78
79 12 2 23 8 25 15 5 13 -31 53 -47 53 -5 0 -32 -28 -60 -62z"/>
<path d="M27792 20069 c2 -6 8 -10 13 -10 5 0 11 4 13 10 2 6 -4 11 -13 11 -9
0 -15 -5 -13 -11z"/>
<path d="M24060 19915 c-19 -7 -73 -14 -120 -14 -83 -1 -89 -3 -190 -54 -162
-83 -230 -127 -293 -192 -86 -88 -117 -161 -116 -270 1 -99 17 -136 93 -220
108 -120 185 -158 351 -176 123 -13 216 -6 317 25 l78 24 30 -38 c35 -44 84
-70 132 -70 45 0 123 39 180 89 26 23 49 38 51 34 3 -5 8 -25 12 -46 10 -49
45 -77 100 -77 23 0 48 6 54 13 13 17 5 27 -23 27 -38 0 -63 27 -76 80 -12 49
-11 53 25 126 44 89 51 137 19 142 -25 4 -71 -46 -79 -86 -18 -85 -85 -167
-171 -206 -72 -33 -123 -34 -152 -3 -26 28 -27 35 -5 59 15 17 15 18 -5 18
-43 0 -23 61 54 161 49 64 111 109 193 140 55 21 85 21 179 3 25 -5 32 -3 32
9 0 43 -100 74 -180 58 -56 -12 -179 -69 -215 -99 -59 -49 -142 -187 -153
-253 l-7 -44 -60 -11 c-193 -36 -203 -37 -262 -26 -32 6 -80 14 -108 16 -29 4
-81 22 -124 43 -60 30 -85 51 -137 112 -72 87 -88 132 -74 219 19 116 83 196
223 281 124 74 271 142 309 142 92 1 201 -11 228 -25 27 -13 32 -13 37 0 8 21
-4 43 -29 53 -13 5 -31 19 -40 30 -20 24 -29 25 -78 6z"/>
<path d="M25344 19602 c-80 -45 -273 -260 -309 -345 -7 -17 -28 -50 -45 -72
-71 -89 -104 -171 -77 -194 23 -18 65 3 73 36 10 44 94 214 128 258 68 89 125
150 213 227 51 45 93 87 93 95 0 18 -39 16 -76 -5z"/>
<path d="M25985 19540 c-148 -14 -351 -98 -507 -209 -99 -71 -238 -210 -238
-239 0 -29 26 -48 45 -32 8 7 15 17 15 22 0 19 111 132 177 180 93 67 257 154
323 171 30 8 81 22 112 32 32 9 74 15 95 13 l38 -3 -42 -23 c-24 -12 -43 -29
-43 -37 0 -8 -16 -22 -35 -31 -121 -57 -137 -206 -27 -244 42 -14 45 -14 98
14 37 20 79 56 132 115 42 47 78 88 79 90 2 2 5 2 8 0 2 -3 -3 -25 -12 -49
-10 -31 -16 -89 -18 -185 -4 -221 -35 -337 -166 -625 -22 -47 -39 -89 -39 -94
0 -22 -110 -197 -162 -257 -32 -37 -58 -75 -58 -83 0 -53 109 35 185 148 25
37 45 70 45 72 0 2 11 22 25 44 14 22 25 44 25 49 0 5 27 65 60 133 32 69 63
142 69 164 5 21 21 71 36 109 42 113 45 131 50 322 5 210 8 240 37 305 17 39
19 50 8 63 -25 30 -31 24 -197 -178 -33 -40 -55 -55 -105 -74 -50 -19 -68 -22
-87 -13 -20 9 -23 16 -18 44 3 19 21 55 41 81 20 25 36 51 36 56 0 5 9 9 21 9
11 0 55 14 97 31 42 17 87 35 100 40 26 10 29 44 5 57 -28 15 -121 20 -208 12z"/>
<path d="M18984 19488 c-15 -24 -34 -52 -44 -63 -27 -31 -45 -82 -101 -285
-32 -118 -50 -268 -56 -472 -6 -230 -3 -248 38 -248 26 0 38 36 30 90 -8 55 4
333 19 446 6 46 29 144 50 218 22 74 40 140 40 146 0 18 42 100 51 100 3 0 9
-9 12 -21 10 -38 32 -14 40 45 6 40 5 62 -4 72 -21 26 -48 16 -75 -28z"/>
<path d="M16018 19445 c-5 -6 -2 -127 6 -245 3 -36 8 -123 11 -195 4 -71 10
-146 14 -165 5 -19 9 -66 10 -105 4 -118 18 -246 29 -257 7 -7 14 -4 21 10 30
57 -5 906 -39 947 -12 15 -42 20 -52 10z"/>
<path d="M17453 19362 c-17 -11 -36 -117 -29 -156 3 -17 2 -46 -4 -64 -5 -19
-14 -89 -20 -155 -11 -120 -24 -193 -40 -232 -5 -11 -14 -38 -21 -60 -7 -22
-18 -49 -25 -60 -20 -31 -38 -134 -36 -200 2 -64 41 -159 73 -175 34 -19 39
21 9 80 -37 72 -25 168 40 320 45 108 59 167 76 330 23 225 28 348 14 365 -14
17 -20 18 -37 7z"/>
<path d="M20820 19317 c-26 -9 -36 -19 -38 -37 -2 -14 -9 -31 -15 -38 -12 -16
-101 -62 -117 -62 -19 0 -124 -86 -155 -125 -60 -79 -83 -204 -51 -278 23 -54
120 -143 169 -155 120 -30 225 -25 427 20 143 33 254 100 296 180 16 31 19
127 5 176 -15 52 -121 178 -183 218 -25 16 -38 32 -38 47 0 48 -41 69 -105 55
-39 -9 -114 -6 -145 5 -8 3 -31 1 -50 -6z m215 -111 c12 -15 31 -26 44 -26 31
0 85 -34 107 -68 9 -15 35 -48 56 -73 72 -86 60 -184 -32 -258 -55 -44 -99
-59 -265 -92 -117 -24 -164 -29 -215 -24 -95 9 -124 21 -170 71 -72 78 -86
142 -50 223 28 60 129 157 179 171 22 6 43 15 46 20 14 22 42 9 51 -22 12 -39
40 -45 37 -8 -4 54 6 71 60 96 66 31 122 28 152 -10z"/>
<path d="M20990 19139 c0 -5 5 -7 10 -4 6 3 10 8 10 11 0 2 -4 4 -10 4 -5 0
-10 -5 -10 -11z"/>
<path d="M8186 18873 c-11 -11 -6 -23 9 -23 8 0 15 4 15 9 0 13 -16 22 -24 14z"/>
<path d="M21070 18450 c-8 -4 -73 -10 -145 -14 -71 -4 -188 -11 -260 -17 -221
-17 -513 -21 -601 -8 -45 7 -90 9 -99 5 -17 -6 -17 -8 1 -27 30 -33 43 -37
178 -50 98 -9 163 -9 275 0 80 6 214 14 296 17 83 2 169 7 193 10 24 2 208 6
409 9 200 3 369 7 374 11 16 10 10 33 -13 46 -17 10 -94 13 -299 14 -152 1
-280 4 -285 7 -5 3 -16 2 -24 -3z"/>
<path d="M18445 18309 c-104 -5 -200 -14 -213 -19 -29 -13 -25 -44 6 -48 25
-4 29 -17 7 -26 -21 -8 -19 -36 3 -36 9 0 33 5 52 11 19 6 122 14 229 20 107
5 228 13 268 18 114 14 512 8 522 -8 13 -20 56 -9 59 15 6 43 -24 53 -189 63
-253 16 -542 20 -744 10z"/>
<path d="M20691 18088 c-5 -13 -21 -68 -35 -123 -15 -55 -39 -134 -55 -175
-80 -210 -120 -321 -136 -375 -10 -33 -24 -80 -32 -105 -8 -25 -19 -65 -23
-90 -5 -25 -16 -76 -24 -115 -59 -265 -80 -454 -65 -579 12 -99 27 -143 58
-178 l21 -22 0 47 c0 25 -4 48 -9 51 -5 4 -13 41 -17 83 -7 79 5 208 33 353 8
41 21 109 29 150 33 168 90 371 149 525 56 149 95 265 117 350 11 44 31 104
44 134 28 64 28 56 8 75 -22 23 -53 20 -63 -6z"/>
<path d="M14318 17996 c-27 -24 -88 -142 -88 -171 0 -30 -71 -219 -136 -363
-13 -29 -24 -57 -24 -62 0 -10 -47 -122 -86 -205 -56 -117 -173 -395 -193
-457 -20 -60 -21 -76 -12 -134 11 -71 39 -114 73 -114 21 0 22 16 3 50 -8 14
-14 46 -15 71 0 48 32 168 54 204 15 24 118 255 137 305 7 19 22 53 35 75 12
22 27 58 34 80 7 22 28 74 47 115 53 117 143 365 143 396 0 30 66 160 84 167
19 7 21 38 4 55 -17 17 -29 15 -60 -12z"/>
<path d="M18750 18005 c-65 -14 -95 -30 -160 -81 -45 -37 -65 -65 -90 -124 -5
-14 -16 -34 -22 -45 -7 -11 -28 -44 -47 -73 -38 -60 -82 -196 -111 -342 -14
-73 -11 -227 6 -314 20 -101 75 -206 129 -251 22 -18 77 -52 123 -76 80 -42
88 -44 187 -47 130 -5 213 18 304 84 126 92 199 179 293 351 20 37 63 199 78
297 17 107 -10 266 -59 346 -20 34 -53 71 -76 87 -22 14 -58 43 -80 63 -63 57
-234 116 -380 132 -22 3 -65 -1 -95 -7z m230 -87 c92 -23 178 -66 258 -129 66
-52 85 -75 109 -124 26 -56 28 -68 28 -190 -1 -191 -30 -300 -123 -455 -45
-75 -76 -111 -166 -190 -110 -96 -143 -109 -272 -109 -141 -1 -215 25 -320
113 -67 56 -102 165 -111 341 -5 113 -3 128 27 250 18 72 42 148 53 170 31 64
108 188 136 219 28 30 126 100 163 116 26 11 150 4 218 -12z"/>
<path d="M23822 17957 c-29 -29 -52 -57 -52 -62 0 -6 -27 -39 -59 -73 -55 -60
-115 -143 -210 -292 -22 -36 -59 -83 -80 -105 -22 -22 -42 -50 -46 -62 -13
-45 -183 -267 -220 -287 -76 -41 -131 -196 -70 -196 18 0 61 45 82 85 9 17 43
65 77 107 34 42 76 101 94 131 18 30 47 68 63 83 16 16 36 41 44 56 9 15 25
30 38 32 129 27 319 57 343 54 29 -3 29 -4 46 -108 10 -63 17 -161 17 -245 0
-136 9 -195 31 -195 19 0 28 44 34 180 6 106 4 151 -9 210 -9 41 -19 95 -22
120 l-5 46 48 12 c34 8 128 11 301 8 296 -4 332 3 193 38 -49 12 -120 16 -280
17 -118 1 -226 0 -239 -2 -21 -3 -26 1 -32 29 -4 18 -2 125 3 238 9 208 6 234
-26 234 -6 0 -35 -24 -64 -53z m34 -89 c-15 -69 -24 -231 -18 -285 5 -35 5
-68 1 -74 -4 -7 -42 -15 -85 -20 -44 -4 -99 -13 -124 -19 -80 -18 -110 -23
-110 -16 0 4 11 24 25 44 14 20 25 40 25 44 0 5 26 41 58 81 32 39 66 86 76
102 20 32 114 145 131 157 18 14 25 8 21 -14z"/>
<path d="M17295 17969 c-4 -5 -4 -22 0 -37 19 -72 30 -237 23 -372 -3 -80 -7
-183 -8 -230 -2 -99 -32 -287 -61 -380 -11 -36 -39 -103 -63 -150 -66 -131
-88 -198 -84 -261 3 -47 6 -54 26 -57 19 -3 22 1 22 31 0 36 21 89 92 236 71
149 96 215 103 276 4 33 14 87 22 119 17 70 21 136 27 469 5 213 3 254 -11
290 -9 23 -23 50 -31 60 -17 19 -47 23 -57 6z"/>
<path d="M13466 17848 c-9 -12 -16 -30 -16 -38 0 -9 -4 -20 -9 -25 -5 -6 -16
-37 -26 -70 -9 -33 -21 -71 -25 -85 -5 -14 -16 -52 -25 -85 -9 -33 -32 -109
-50 -170 -94 -308 -134 -469 -141 -570 -2 -27 -6 -56 -9 -63 -3 -7 0 -34 6
-60 14 -67 87 -140 123 -126 24 9 19 25 -15 53 -53 44 -55 112 -9 316 33 150
36 162 70 270 46 146 79 262 94 330 8 33 21 76 30 96 31 75 66 222 54 236 -16
19 -35 16 -52 -9z"/>
<path d="M30030 17790 c0 -5 5 -10 10 -10 6 0 10 5 10 10 0 6 -4 10 -10 10 -5
0 -10 -4 -10 -10z"/>
<path d="M15610 17710 c-127 -10 -224 -61 -245 -128 -11 -37 22 -40 54 -5 33
36 131 75 178 71 l34 -3 -53 -40 c-245 -183 -295 -238 -348 -383 -33 -90 -49
-238 -36 -326 10 -65 89 -161 146 -176 22 -5 58 -15 81 -21 117 -30 336 20
457 105 27 18 64 42 83 51 73 38 171 164 201 257 30 97 19 282 -20 340 -9 14
-30 44 -45 67 -66 99 -137 147 -271 183 -73 19 -78 19 -216 8z m305 -111 c76
-39 107 -69 147 -139 37 -66 48 -104 54 -190 5 -68 -15 -160 -46 -211 -52 -88
-197 -199 -261 -199 -29 0 -46 -7 -69 -30 -17 -16 -38 -30 -48 -30 -9 0 -29
-7 -45 -15 -47 -24 -134 -29 -221 -11 -43 9 -87 21 -97 27 -11 5 -33 38 -50
71 -30 59 -31 66 -25 138 9 97 58 256 95 307 34 47 100 113 151 151 19 14 65
52 101 84 53 45 79 61 125 72 76 19 115 14 189 -25z"/>
<path d="M10657 17603 c-3 -27 -1 -52 4 -57 5 -6 -1 -14 -14 -20 -19 -10 -23
-21 -27 -96 -3 -47 -9 -91 -13 -98 -5 -6 -10 -45 -13 -85 -8 -121 -12 -160
-22 -207 -6 -25 -15 -122 -22 -216 -9 -144 -9 -180 3 -225 18 -68 77 -173 100
-177 26 -5 31 24 10 55 -11 15 -27 58 -37 94 -20 75 -19 104 14 444 6 55 12
141 15 190 7 122 20 214 34 252 9 24 10 37 1 53 -9 16 -8 24 5 36 20 21 20 90
-1 98 -28 11 -31 7 -37 -41z"/>
<path d="M11735 17614 c-113 -28 -188 -56 -294 -107 -41 -20 -101 -92 -101
-120 0 -6 -15 -28 -33 -51 -39 -48 -131 -218 -142 -261 -14 -59 -6 -198 14
-258 23 -66 51 -103 125 -165 64 -54 109 -78 166 -87 116 -19 210 4 430 108
59 28 203 167 245 237 91 152 102 357 25 511 -41 84 -61 104 -140 140 -36 17
-73 35 -84 41 -20 11 -180 20 -211 12z m188 -98 c26 -16 51 -23 64 -20 15 4
34 -3 58 -22 134 -102 148 -382 27 -560 -41 -61 -176 -180 -219 -195 -21 -6
-47 -18 -58 -25 -11 -7 -60 -25 -108 -39 -163 -51 -288 -23 -374 84 -55 69
-83 145 -83 227 0 51 8 81 42 161 23 54 61 127 85 163 24 36 43 70 43 77 0 7
11 13 25 13 18 0 25 5 25 20 0 11 12 27 28 36 15 10 43 28 62 40 32 21 128 55
190 68 56 11 150 -3 193 -28z"/>
<path d="M23089 17584 c-10 -13 -10 -17 2 -25 17 -10 22 -11 43 -3 30 11 12
44 -24 44 -4 0 -13 -7 -21 -16z"/>
<path d="M18316 16121 c-8 -12 -8 -45 0 -96 3 -22 1 -78 -5 -125 -5 -47 -17
-155 -25 -240 -9 -85 -21 -193 -26 -240 -5 -47 -23 -130 -40 -185 -38 -123
-70 -280 -70 -346 0 -41 3 -49 18 -49 16 0 23 18 42 113 13 61 43 171 67 242
41 121 78 310 67 340 -3 7 2 68 11 136 41 311 42 367 10 428 -15 30 -38 40
-49 22z"/>
<path d="M20205 15984 c-8 -20 -15 -49 -15 -64 0 -16 -4 -50 -10 -77 -5 -26
-19 -109 -30 -183 -23 -153 -44 -250 -70 -330 -10 -30 -21 -68 -25 -85 -3 -16
-22 -68 -40 -115 -47 -117 -66 -206 -71 -338 -4 -96 -3 -113 11 -118 9 -4 18
-5 20 -2 2 2 12 55 20 118 11 71 32 159 56 230 22 63 47 135 55 160 8 25 24
72 35 105 34 101 76 275 87 365 41 321 44 353 30 361 -24 16 -38 9 -53 -27z"/>
<path d="M15715 15993 c-4 -10 -11 -40 -15 -68 -22 -123 -31 -164 -49 -215
-11 -30 -31 -100 -46 -155 -14 -55 -33 -120 -41 -145 -9 -25 -32 -99 -51 -165
-18 -66 -44 -154 -56 -195 -30 -101 -31 -247 -2 -305 11 -22 27 -40 35 -40 16
0 16 4 4 135 -7 78 17 185 101 445 106 331 175 593 175 666 0 52 -39 82 -55
42z"/>
<path d="M8250 15941 c0 -10 -6 -24 -14 -30 -7 -6 -17 -37 -21 -69 -4 -31 -11
-88 -16 -127 -17 -129 -21 -278 -10 -360 7 -44 16 -109 21 -145 5 -35 8 -66 6
-67 -1 -2 -47 -7 -102 -13 -54 -5 -155 -21 -224 -35 -69 -14 -179 -35 -245
-46 -66 -11 -149 -26 -185 -34 -36 -7 -86 -16 -112 -20 -42 -5 -48 -9 -48 -29
0 -30 24 -50 47 -41 10 4 43 11 73 15 113 16 369 63 585 106 122 25 210 31
219 16 3 -5 8 -54 10 -108 8 -152 78 -420 113 -431 19 -7 23 40 8 92 -36 127
-78 446 -61 463 10 10 338 9 457 -1 104 -9 133 0 81 27 -62 32 -354 59 -460
43 -53 -8 -75 -8 -83 0 -24 24 -41 396 -25 538 13 111 16 125 32 125 10 0 14
7 12 18 -2 9 -10 16 -16 15 -7 -2 -12 4 -12 12 0 8 7 15 15 15 16 0 21 43 9
74 -9 23 -54 21 -54 -3z"/>
<path d="M14482 15938 c-48 -61 -98 -219 -138 -443 -20 -113 -25 -182 -28
-359 -3 -120 -2 -225 1 -232 5 -14 43 -20 43 -6 0 4 5 50 10 102 6 52 12 156
14 230 4 148 22 267 66 435 36 136 54 181 80 195 24 13 26 38 4 68 -17 25 -37
28 -52 10z"/>
<path d="M17191 15927 c-6 -8 -10 -38 -9 -68 8 -240 -13 -360 -122 -699 -66
-202 -84 -340 -51 -373 19 -18 41 18 41 67 0 49 34 175 82 307 74 201 111 383
123 617 6 94 4 117 -9 137 -18 28 -38 32 -55 12z"/>
<path d="M13350 15850 c-25 -10 -58 -21 -75 -25 -39 -9 -154 -129 -208 -219
-67 -111 -92 -239 -71 -351 33 -176 39 -191 94 -271 129 -188 280 -268 442
-235 60 13 164 80 195 127 9 14 28 38 43 53 36 36 105 200 124 291 27 136 8
298 -50 418 -50 104 -115 156 -249 203 -101 34 -178 38 -245 9z m182 -50 c117
-31 222 -108 261 -193 32 -68 60 -207 59 -281 -4 -129 -87 -332 -172 -417
-112 -112 -259 -132 -385 -53 -50 31 -148 145 -172 199 -76 177 -87 268 -49
408 27 96 34 110 100 189 108 128 120 134 149 64 21 -51 59 -96 82 -96 24 0
18 27 -15 62 -19 19 -30 41 -30 59 0 49 46 35 110 -32 20 -22 44 -39 53 -39
28 0 30 22 3 46 -14 14 -26 28 -26 32 0 4 -16 18 -36 32 -32 21 -34 25 -18 31
11 4 24 6 31 4 6 -2 31 -9 55 -15z"/>
<path d="M23795 15800 c-3 -5 1 -10 10 -10 9 0 13 5 10 10 -3 6 -8 10 -10 10
-2 0 -7 -4 -10 -10z"/>
<path d="M23995 15800 c4 -6 11 -8 16 -5 14 9 11 15 -7 15 -8 0 -12 -5 -9 -10z"/>
<path d="M23394 15722 c-60 -19 -100 -88 -128 -217 -13 -58 -47 -170 -60 -195
-7 -14 -28 -70 -46 -125 -18 -55 -50 -140 -72 -190 -21 -49 -52 -130 -69 -179
-16 -49 -34 -95 -39 -101 -6 -7 -13 -34 -17 -61 -3 -29 -16 -61 -30 -78 -28
-33 -27 -60 2 -64 23 -3 63 34 68 63 1 11 10 40 19 65 9 25 23 68 31 95 9 28
39 106 67 175 72 174 150 396 215 612 53 175 69 177 350 44 180 -85 170 -79
170 -111 0 -15 -7 -31 -15 -36 -41 -21 -152 -52 -210 -58 -36 -4 -81 -16 -100
-26 -19 -10 -42 -21 -50 -25 -34 -16 0 -109 62 -166 18 -18 78 -62 133 -100
55 -37 107 -76 115 -85 24 -27 140 -121 201 -162 61 -42 121 -101 132 -131 5
-11 1 -28 -7 -41 -20 -30 -169 -103 -226 -110 -25 -3 -70 -11 -101 -16 -30 -6
-161 -12 -290 -12 -209 -2 -234 -4 -237 -19 -4 -20 9 -24 108 -38 94 -14 204
-14 390 -1 163 11 226 29 347 99 72 42 97 76 88 119 -2 10 -6 30 -10 45 -3 15
-20 44 -37 64 -27 30 -181 152 -330 261 -17 13 -51 39 -75 59 -24 20 -68 51
-99 69 -56 34 -109 98 -100 121 7 17 83 37 116 30 16 -3 46 4 76 18 27 13 66
26 86 30 78 14 129 125 79 175 -30 30 -367 191 -422 201 -56 11 -55 11 -85 2z"/>
<path d="M12080 15685 c-36 -7 -81 -17 -100 -23 -51 -14 -161 -78 -193 -113
-15 -16 -32 -27 -37 -24 -68 42 -282 -198 -336 -374 -19 -63 -18 -107 5 -169
31 -85 66 -136 138 -201 87 -79 137 -95 280 -89 100 3 105 5 195 52 177 92
367 269 482 449 62 97 72 211 26 313 -27 62 -117 141 -185 164 -70 24 -196 31
-275 15z m235 -71 c114 -30 182 -108 192 -223 5 -63 3 -75 -24 -133 -47 -99
-226 -299 -328 -366 -22 -15 -44 -32 -50 -38 -21 -23 -72 -51 -135 -74 -95
-36 -234 -35 -305 2 -65 33 -140 114 -172 184 -22 49 -25 66 -21 129 4 64 10
83 47 144 54 92 155 218 180 226 11 3 29 0 41 -7 19 -12 24 -9 62 31 28 29 74
59 133 88 133 64 235 74 380 37z"/>
<path d="M10676 15472 c-3 -5 -10 -60 -16 -123 -11 -111 -45 -299 -60 -329 -4
-8 -10 -37 -14 -65 -3 -27 -15 -86 -25 -130 -40 -165 -52 -363 -30 -477 16
-82 33 -69 37 28 3 73 20 227 41 369 5 33 18 85 29 115 12 31 25 85 31 120 6
36 22 117 35 180 25 113 32 237 17 290 -7 25 -34 39 -45 22z"/>
<path d="M24010 15345 c0 -8 7 -15 15 -15 8 0 15 7 15 15 0 8 -7 15 -15 15 -8
0 -15 -7 -15 -15z"/>
<path d="M24010 15184 c0 -8 5 -12 10 -9 6 3 10 10 10 16 0 5 -4 9 -10 9 -5 0
-10 -7 -10 -16z"/>
<path d="M14595 13939 c-716 -8 -1245 -18 -1254 -23 -3 -2 -127 -7 -276 -11
-148 -3 -272 -8 -275 -10 -3 -2 -131 -8 -285 -14 -339 -14 -867 -41 -874 -45
-3 -2 -69 -7 -146 -10 -199 -10 -442 -25 -495 -31 -25 -3 -128 -12 -230 -20
-102 -8 -246 -21 -320 -30 -74 -8 -162 -17 -195 -20 -224 -21 -561 -66 -850
-115 -132 -23 -278 -47 -325 -54 -47 -8 -137 -23 -200 -34 -63 -11 -167 -28
-230 -37 -63 -9 -153 -23 -200 -31 -105 -17 -127 -20 -375 -39 -110 -9 -243
-20 -295 -26 -52 -6 -140 -14 -195 -19 -55 -5 -120 -14 -145 -19 -25 -5 -98
-12 -162 -16 -111 -5 -117 -5 -128 15 -11 20 -44 27 -54 12 -2 -4 6 -22 20
-39 21 -27 32 -32 88 -38 60 -7 299 11 471 35 39 6 135 14 215 20 231 16 480
42 740 80 36 5 85 12 110 15 25 3 115 18 200 34 85 16 187 34 225 40 39 6 122
20 185 31 182 30 286 46 415 64 66 9 161 24 212 33 51 8 99 13 107 10 14 -6
98 3 236 25 41 6 100 12 130 13 30 1 109 7 175 13 66 6 181 17 255 23 74 6
178 15 230 19 52 5 163 11 245 15 83 3 193 10 245 15 52 5 185 14 295 20 110
5 283 15 385 21 102 5 264 12 360 15 96 2 267 8 380 14 113 5 333 12 490 15
157 3 359 8 450 11 283 9 1625 12 2060 3 228 -4 588 -10 800 -13 212 -3 511
-10 665 -15 154 -6 501 -15 770 -21 270 -6 561 -15 649 -20 87 -6 231 -13 320
-15 88 -3 235 -9 326 -15 91 -5 318 -12 504 -15 187 -3 342 -8 346 -10 3 -2
159 -8 345 -14 478 -15 819 -30 965 -43 69 -5 163 -12 210 -14 209 -9 563 -25
763 -34 120 -6 228 -12 240 -15 12 -3 148 -9 302 -15 384 -14 701 -27 950 -39
201 -10 426 -15 1325 -27 1001 -13 1128 -13 1147 1 10 7 16 16 13 18 -3 3 -54
12 -115 21 -90 13 -235 17 -785 20 -371 3 -758 7 -860 10 -102 3 -309 9 -460
12 -151 4 -297 8 -325 10 -41 2 -338 14 -780 30 -38 1 -153 8 -255 14 -202 13
-406 23 -775 39 -215 9 -350 17 -640 37 -161 11 -195 12 -545 23 -190 6 -433
15 -540 21 -305 15 -528 23 -740 25 -201 3 -645 20 -760 30 -85 7 -578 23
-900 30 -518 10 -730 15 -955 25 -126 5 -432 12 -680 15 -951 11 -1271 16
-1310 18 -22 2 -305 0 -630 -4z"/>
<path d="M16890 13725 c-7 -9 -10 -30 -7 -52 2 -21 -2 -80 -10 -130 -15 -99
-13 -353 4 -449 9 -53 68 -162 91 -171 7 -3 18 -1 25 6 8 8 5 27 -11 73 -49
140 -64 329 -40 498 15 102 14 206 -3 226 -15 18 -33 18 -49 -1z"/>
<path d="M18172 13658 c-20 -20 -15 -48 9 -48 27 0 56 -16 102 -56 20 -19 41
-34 47 -34 5 0 16 -13 25 -30 8 -16 37 -56 63 -87 45 -56 47 -60 44 -118 -4
-97 -72 -211 -149 -253 -240 -128 -258 -133 -365 -111 -133 29 -178 73 -178
177 0 54 5 73 35 127 49 86 103 146 204 221 l85 64 21 -20 c27 -26 35 -17 35
37 0 30 -5 45 -15 50 -27 10 -170 -86 -266 -180 -121 -118 -153 -183 -154
-307 0 -142 38 -187 196 -231 97 -27 165 -21 267 26 155 72 233 135 304 243
38 58 42 71 45 140 5 86 -1 102 -72 194 -129 167 -237 242 -283 196z"/>
<path d="M19668 13553 c-28 -8 -48 -20 -48 -29 0 -11 20 -14 101 -14 103 0
236 -25 359 -68 30 -11 84 -30 120 -42 76 -27 162 -81 189 -119 11 -15 40 -67
65 -115 38 -72 46 -98 46 -141 0 -110 -96 -257 -254 -390 -115 -97 -195 -119
-426 -119 -168 -1 -211 8 -250 49 -13 14 -31 25 -41 25 -20 0 -57 45 -94 114
-41 77 -31 168 32 291 38 75 115 178 164 219 30 26 147 66 190 66 35 0 88 -31
102 -60 17 -35 51 -33 55 2 3 21 -7 39 -41 75 -41 44 -48 47 -104 51 -86 6
-188 -35 -257 -103 -151 -150 -249 -355 -230 -484 12 -83 80 -190 149 -234
123 -78 136 -81 300 -82 152 0 308 22 365 51 49 25 223 184 286 261 17 21 51
76 75 123 39 75 44 91 42 146 0 34 -8 77 -16 95 -9 19 -23 51 -31 71 -18 46
-115 169 -156 198 -81 58 -336 152 -460 170 -89 13 -176 11 -232 -7z"/>
<path d="M23405 13523 c-63 -8 -163 -33 -230 -57 -104 -37 -292 -134 -315
-163 -46 -59 -4 -147 82 -172 24 -7 80 -31 125 -52 60 -29 87 -48 102 -73 23
-37 49 -165 52 -252 3 -74 -14 -95 -97 -121 -145 -45 -196 -39 -309 35 -38 25
-74 51 -80 57 -5 6 -25 21 -43 34 -32 22 -68 69 -104 135 -25 43 -44 40 -41
-6 2 -26 15 -54 47 -95 53 -69 66 -81 179 -166 107 -80 153 -93 276 -78 98 13
171 42 200 82 12 16 27 54 33 84 9 48 8 71 -12 163 -13 59 -34 128 -48 154
-26 50 -19 46 -234 147 -121 56 -117 85 22 150 36 17 83 41 104 53 53 28 239
84 307 93 65 8 106 -7 163 -59 42 -39 76 -47 76 -18 0 18 -58 82 -75 82 -5 0
-27 9 -50 20 -46 22 -86 30 -130 23z"/>
<path d="M27529 13514 c-13 -7 -30 -13 -38 -14 -8 0 -48 -16 -89 -36 -159 -77
-634 -512 -670 -614 -2 -8 -19 -44 -35 -80 -26 -54 -32 -80 -35 -157 -4 -87
-2 -97 27 -160 54 -115 159 -196 282 -217 36 -7 66 5 55 22 -3 6 -30 18 -59
28 -61 20 -142 70 -178 110 -40 45 -61 116 -63 208 -1 74 2 87 36 158 55 112
100 179 150 220 44 36 56 48 186 171 40 38 99 89 130 115 31 25 59 49 62 53 8
11 141 99 182 120 21 10 55 19 77 19 41 0 54 13 40 41 -12 24 -32 29 -60 13z"/>
<path d="M30837 13515 c-52 -51 -56 -125 -5 -78 50 45 89 53 162 31 100 -30
198 -115 263 -228 15 -25 34 -54 44 -65 29 -34 70 -125 82 -184 15 -71 13
-327 -2 -406 -17 -83 -39 -150 -71 -215 -46 -95 -156 -254 -227 -329 -64 -68
-222 -195 -339 -272 -151 -100 -194 -131 -194 -139 0 -14 48 4 147 56 211 111
452 312 541 449 25 39 64 99 88 135 44 68 76 140 95 213 54 216 52 483 -6 622
-39 92 -191 297 -260 350 -55 41 -124 64 -218 71 -71 6 -85 4 -100 -11z"/>
<path d="M30324 13281 c-22 -22 -70 -80 -109 -129 -38 -49 -80 -96 -92 -102
-27 -16 -115 -125 -107 -133 3 -3 -6 -21 -20 -40 -14 -19 -26 -37 -26 -42 0
-4 -13 -23 -30 -42 -16 -18 -30 -38 -30 -43 0 -6 -9 -10 -20 -10 -30 0 -62
-37 -58 -68 2 -21 9 -28 31 -30 22 -3 31 3 45 28 9 17 40 62 69 98 29 37 65
87 79 112 60 100 94 147 130 181 22 19 72 72 112 117 44 49 81 82 93 82 26 0
93 -62 113 -105 9 -19 26 -76 37 -127 22 -100 19 -191 -7 -225 -13 -17 -16
-15 -56 29 -62 67 -141 114 -216 129 -56 10 -65 10 -80 -4 -14 -15 -14 -18 3
-37 27 -30 177 -136 233 -164 72 -36 77 -46 76 -145 0 -73 -5 -94 -27 -136
-95 -182 -272 -240 -498 -164 -128 43 -209 81 -238 112 -25 28 -41 27 -41 -2
0 -29 49 -66 165 -124 150 -74 174 -81 291 -82 97 0 103 1 176 38 70 36 158
108 158 129 0 5 11 24 24 41 14 18 30 45 36 62 16 41 20 152 8 203 -9 38 -8
45 10 65 51 54 63 152 37 292 -28 142 -79 226 -162 260 -52 22 -67 19 -109
-24z m56 -423 c29 -23 48 -44 42 -46 -10 -3 -122 73 -122 83 0 15 34 0 80 -37z"/>
<path d="M28584 13178 c-12 -7 -49 -36 -83 -65 -33 -28 -105 -82 -158 -118
-54 -36 -122 -84 -152 -105 -62 -45 -104 -60 -175 -60 -45 0 -51 -3 -92 -47
-29 -32 -44 -57 -44 -75 0 -21 -9 -33 -43 -52 -24 -14 -54 -37 -68 -52 -13
-14 -38 -32 -55 -39 -17 -7 -46 -26 -65 -42 -19 -17 -59 -43 -89 -60 -30 -16
-70 -42 -88 -58 -18 -17 -51 -47 -74 -67 -23 -21 -47 -38 -53 -38 -6 0 -21 -7
-33 -16 -18 -12 -20 -19 -12 -35 22 -40 79 -12 190 96 36 35 89 75 119 90 58
29 115 67 224 151 39 30 75 54 81 54 6 0 22 11 36 25 107 108 146 118 360 94
85 -10 100 -14 100 -30 0 -10 -4 -21 -10 -24 -5 -3 -10 -15 -10 -25 0 -11 -11
-45 -25 -75 -23 -52 -38 -110 -67 -258 -9 -42 -9 -60 0 -69 18 -18 40 -2 47
34 11 58 56 222 70 258 8 19 17 51 21 71 3 20 14 50 24 67 l19 30 223 -5 c123
-3 225 -7 227 -9 3 -2 -6 -16 -20 -30 -38 -41 -26 -134 18 -134 10 0 12 6 8
20 -23 71 70 151 200 174 104 19 184 25 191 15 2 -4 -24 -40 -58 -80 -109
-125 -147 -181 -213 -312 -44 -85 -65 -139 -65 -163 0 -64 28 -35 84 88 30 64
67 134 82 156 56 78 158 208 210 268 l53 61 80 11 c89 13 150 37 133 54 -7 7
-34 7 -81 1 -51 -7 -71 -6 -71 2 0 6 24 35 53 65 57 60 66 73 97 138 24 53 25
78 4 86 -22 9 -43 -11 -64 -59 -22 -50 -126 -192 -167 -226 -29 -24 -40 -27
-155 -31 -103 -5 -136 -11 -205 -35 l-83 -30 -122 13 c-68 7 -169 13 -225 14
-56 0 -104 4 -107 9 -6 9 64 184 107 266 35 66 40 119 12 123 -11 1 -30 -4
-41 -10z m-24 -97 c0 -5 -11 -28 -24 -52 -14 -24 -32 -69 -40 -100 -19 -73
-41 -115 -63 -121 -17 -4 -160 8 -211 18 -36 7 -22 25 59 74 41 25 117 78 169
117 95 72 110 81 110 64z"/>
<path d="M24512 13078 c-7 -7 -12 -21 -12 -32 0 -36 -42 -108 -123 -214 -85
-110 -155 -165 -282 -223 -226 -102 -367 -95 -424 24 -37 76 -25 182 36 317
23 51 64 100 85 100 4 0 8 7 8 15 0 10 -10 15 -29 15 -33 0 -82 -48 -124 -121
-31 -55 -60 -176 -60 -249 0 -66 40 -149 90 -187 46 -35 125 -54 198 -46 65 7
237 72 333 125 79 45 202 165 236 230 15 29 38 68 51 87 49 68 64 206 17 159z"/>
<path d="M25155 12980 c-10 -11 -22 -20 -28 -20 -5 0 -34 -22 -64 -50 -30 -27
-59 -50 -65 -50 -10 0 -69 -48 -133 -108 -16 -16 -50 -44 -75 -62 -25 -18 -58
-46 -75 -60 -16 -15 -49 -34 -72 -43 -41 -16 -43 -16 -43 2 0 27 34 104 53
119 23 19 42 71 30 83 -12 12 -45 -29 -98 -126 -21 -38 -49 -84 -62 -101 -27
-36 -30 -66 -7 -85 14 -11 26 -8 81 21 36 19 73 45 82 57 10 12 41 36 70 53
47 27 156 112 221 172 60 55 169 137 174 130 3 -5 -13 -53 -35 -108 -48 -118
-67 -207 -49 -229 17 -21 67 -19 115 4 22 10 58 24 80 31 22 6 108 45 191 86
185 91 248 113 339 120 94 7 119 -6 123 -64 6 -77 -24 -188 -68 -256 -22 -33
-40 -66 -40 -73 0 -43 59 1 110 81 38 59 60 141 60 222 0 122 -33 150 -170
147 -98 -2 -163 -25 -390 -138 -124 -62 -210 -98 -267 -112 -20 -5 -23 -2 -23
29 0 30 19 81 84 231 23 53 18 111 -10 115 -11 2 -28 -6 -39 -18z"/>
<path d="M22449 12523 c-36 -35 -47 -52 -40 -62 7 -11 21 -2 65 44 31 32 56
59 56 61 0 2 -7 4 -16 4 -8 0 -38 -21 -65 -47z"/>
<path d="M22075 12351 c-36 -8 -40 -35 -5 -39 34 -5 102 17 97 31 -4 14 -49
18 -92 8z"/>
<path d="M11316 11212 c-8 -13 11 -35 23 -28 16 10 14 36 -3 36 -8 0 -17 -4
-20 -8z"/>
<path d="M23450 10219 c0 -5 5 -7 10 -4 6 3 10 8 10 11 0 2 -4 4 -10 4 -5 0
-10 -5 -10 -11z"/>
<path d="M24935 9731 c-7 -13 17 -24 40 -19 9 1 16 8 16 13 0 14 -48 19 -56 6z"/>
<path d="M20125 9470 c-4 -6 -3 -16 3 -22 6 -6 12 -6 17 2 4 6 3 16 -3 22 -6
6 -12 6 -17 -2z"/>
<path d="M12479 9101 c-9 -6 -22 -25 -29 -43 -7 -18 -19 -46 -26 -63 -23 -54
-81 -209 -93 -250 -21 -67 -71 -199 -85 -225 -8 -14 -21 -49 -30 -79 -9 -29
-20 -59 -25 -65 -4 -6 -32 -58 -61 -116 -29 -58 -64 -117 -78 -132 -25 -27
-23 -48 5 -48 19 0 92 79 93 101 0 9 8 27 19 40 18 23 53 94 121 244 17 39 50
124 72 190 21 66 52 154 68 195 16 41 39 101 50 132 34 88 58 87 139 -5 42
-48 43 -51 22 -58 -11 -5 -21 -13 -21 -18 0 -6 18 -45 40 -88 22 -43 51 -123
65 -178 14 -55 33 -120 42 -145 8 -25 18 -67 23 -95 4 -27 22 -106 39 -173 17
-68 36 -149 41 -180 5 -32 16 -100 25 -152 8 -52 20 -108 25 -125 5 -16 14
-72 20 -123 6 -52 18 -126 26 -165 38 -177 46 -257 50 -517 2 -145 8 -268 13
-273 5 -5 18 -6 30 -2 21 6 21 9 17 264 -3 141 -7 268 -10 281 -4 14 -11 63
-16 110 -5 47 -18 124 -29 173 -11 48 -27 145 -35 215 -8 70 -20 141 -26 157
-7 17 -16 57 -21 90 -5 33 -13 80 -19 105 -6 25 -12 54 -12 65 0 11 -13 63
-29 115 -15 52 -31 113 -34 135 -4 22 -18 68 -31 102 -13 34 -24 72 -24 85 0
31 -43 165 -70 217 -32 63 -41 91 -30 91 5 0 17 -17 25 -37 9 -21 27 -54 40
-73 13 -19 29 -55 35 -80 20 -77 41 -108 170 -250 22 -25 57 -65 76 -90 20
-25 43 -49 50 -53 18 -10 34 -1 34 20 0 26 -69 123 -143 200 -77 81 -117 131
-117 149 0 20 -43 116 -89 199 -41 75 -114 166 -166 207 -28 22 -103 33 -126
19z"/>
<path d="M14000 8670 c0 -18 -11 -78 -24 -134 -44 -189 -75 -331 -106 -486
-17 -85 -37 -184 -45 -220 -9 -36 -29 -137 -46 -225 -16 -88 -36 -189 -44
-225 -8 -36 -20 -101 -26 -145 -6 -44 -18 -112 -26 -152 -9 -39 -13 -78 -10
-86 3 -8 -1 -54 -8 -103 -7 -49 -11 -101 -8 -116 6 -33 -16 -40 -24 -8 -3 11
-9 20 -13 20 -17 0 -17 -28 1 -66 10 -21 18 -49 19 -61 0 -12 5 -25 10 -28 33
-20 -21 -94 -70 -95 -23 0 -28 8 -53 83 -15 45 -32 105 -38 132 -13 60 -32
254 -34 345 -5 227 -3 212 -27 208 -17 -2 -25 -14 -33 -48 -7 -25 -8 -56 -4
-70 4 -14 10 -90 12 -170 2 -80 9 -163 15 -185 6 -22 15 -69 21 -105 18 -106
71 -242 103 -259 24 -14 30 -13 84 14 36 19 69 46 88 72 17 23 74 93 127 155
53 63 109 134 125 157 40 60 55 81 85 121 42 55 89 210 75 246 -10 26 -34 -1
-52 -60 -8 -28 -27 -74 -42 -103 -30 -57 -182 -272 -208 -294 -9 -7 -31 -37
-50 -66 -51 -80 -64 -72 -63 40 0 50 5 115 11 142 5 28 11 78 12 112 2 34 7
68 13 75 6 7 13 47 17 88 7 85 17 145 39 240 9 36 21 97 27 135 6 39 17 104
26 145 8 41 22 109 30 150 8 41 22 104 31 140 9 36 20 90 24 120 4 30 20 109
34 175 15 66 31 147 36 180 5 33 19 84 31 112 27 65 18 126 -19 131 -20 3 -23
-1 -23 -28z"/>
<path d="M14496 8598 c-8 -29 -20 -86 -27 -127 -7 -49 -22 -95 -45 -136 -19
-34 -34 -67 -34 -74 0 -15 -64 -123 -100 -168 -59 -74 -90 -123 -90 -143 0
-11 -8 -23 -17 -27 -48 -17 -67 -59 -38 -83 12 -10 22 -9 50 4 39 19 39 19 24
47 -9 17 -4 27 26 62 69 79 148 192 172 247 13 30 30 66 38 80 51 90 65 123
65 149 0 35 17 121 28 137 4 6 21 14 38 18 26 6 39 0 96 -46 42 -34 71 -66 81
-90 10 -24 24 -39 39 -43 13 -4 38 -28 57 -58 19 -29 43 -65 54 -80 20 -30 56
-126 88 -237 21 -74 74 -221 89 -250 6 -10 21 -58 34 -107 14 -48 32 -108 41
-133 9 -24 24 -83 34 -130 31 -147 78 -313 106 -375 14 -33 44 -114 66 -180
22 -66 53 -136 68 -155 37 -48 81 -125 81 -144 0 -8 -16 -20 -35 -27 -37 -14
-43 -27 -23 -47 20 -20 35 -14 79 28 51 48 49 68 -16 152 -49 63 -69 100 -79
143 -4 17 -16 53 -26 80 -100 257 -114 303 -150 483 -12 57 -33 136 -47 175
-14 40 -30 88 -34 107 -8 37 -50 159 -94 275 -15 39 -35 99 -45 135 -10 36
-34 102 -54 148 -19 45 -33 82 -30 82 19 0 92 -49 143 -95 48 -45 65 -69 86
-125 28 -74 40 -89 57 -72 9 9 3 57 -19 135 -3 10 -35 50 -71 89 -47 49 -87
80 -136 105 -57 29 -93 59 -189 159 -66 67 -133 129 -151 137 -17 8 -63 18
-103 22 l-71 7 -16 -54z"/>
<path d="M16759 8493 c-11 -27 -29 -70 -41 -98 -27 -64 -102 -216 -139 -280
-15 -27 -41 -88 -56 -135 -33 -100 -32 -153 5 -158 20 -3 22 1 22 40 0 56 44
180 85 239 18 25 36 57 40 70 4 13 20 49 35 79 15 30 31 70 35 87 10 48 22 49
45 3 11 -22 25 -40 30 -40 14 0 13 46 -2 69 -9 15 -6 25 17 55 15 20 31 33 36
29 22 -24 108 -207 114 -245 7 -41 20 -68 94 -198 17 -30 31 -68 31 -85 1 -16
17 -82 36 -145 19 -63 50 -171 69 -240 18 -69 41 -150 51 -180 21 -67 42 -164
54 -245 14 -93 57 -246 77 -274 11 -14 31 -52 47 -83 15 -32 32 -58 38 -58 5
0 54 -45 108 -100 93 -95 118 -110 148 -92 9 6 4 16 -19 38 -37 35 -50 48
-145 145 -66 68 -108 128 -148 214 -15 32 -42 156 -57 265 -5 36 -23 112 -40
170 -16 58 -37 133 -44 167 -8 34 -24 88 -36 120 -44 120 -90 308 -85 346 4
33 -1 46 -30 84 -20 26 -34 56 -34 72 0 35 -103 247 -138 284 -47 49 -6 28 88
-45 50 -40 102 -80 114 -88 76 -53 146 -158 146 -221 0 -33 26 -51 41 -28 15
24 10 98 -10 143 -23 48 -92 120 -172 175 -77 53 -140 102 -167 129 -12 12
-33 22 -47 22 -14 0 -43 9 -65 20 -22 11 -55 20 -75 20 -34 0 -38 -3 -56 -47z"/>
<path d="M18330 8465 c-9 -11 -11 -34 -7 -74 5 -45 3 -62 -8 -71 -9 -7 -15
-30 -15 -54 0 -22 -9 -78 -20 -124 -11 -46 -20 -95 -20 -108 0 -14 -5 -35 -12
-47 -7 -12 -15 -47 -19 -77 -4 -30 -12 -93 -18 -140 -21 -157 -43 -374 -47
-480 -2 -58 -9 -150 -16 -205 -14 -126 -15 -201 -1 -290 9 -55 8 -76 -2 -98
-12 -23 -11 -29 2 -43 24 -24 47 -12 61 31 11 33 12 54 1 120 -13 88 -13 163
1 199 5 13 10 91 11 173 1 81 5 173 10 203 5 30 13 125 19 210 10 152 37 328
59 383 6 17 18 27 31 27 11 0 20 5 20 10 0 6 -9 10 -20 10 -16 0 -20 7 -20 35
0 20 7 51 14 70 19 44 59 311 51 336 -8 23 -38 25 -55 4z"/>
<path d="M16296 8438 c-8 -18 -19 -58 -26 -88 -6 -30 -24 -95 -40 -145 -15
-49 -40 -142 -54 -205 -15 -63 -32 -131 -38 -150 -6 -19 -15 -53 -19 -75 -4
-22 -14 -69 -23 -105 -18 -82 -36 -244 -37 -335 0 -67 -8 -146 -29 -285 -6
-36 -14 -91 -18 -122 -5 -39 -14 -63 -28 -72 -23 -18 -12 -33 33 -42 25 -5 33
-2 43 15 6 12 8 26 5 31 -7 12 23 237 35 259 5 9 14 104 19 211 13 242 21 304
62 455 17 66 35 140 40 165 9 51 24 118 38 170 6 19 22 78 36 130 36 133 45
160 56 160 16 0 10 48 -7 54 -28 11 -35 7 -48 -26z"/>
<path d="M18550 8275 c0 -8 5 -15 10 -15 6 0 10 7 10 15 0 8 -4 15 -10 15 -5
0 -10 -7 -10 -15z"/>
<path d="M15696 7285 c-6 -17 4 -43 37 -86 16 -22 20 -48 23 -155 12 -367 42
-573 96 -651 16 -24 37 -47 48 -53 47 -25 121 0 157 53 52 78 112 208 123 268
7 35 26 95 42 133 17 38 34 99 39 135 5 36 15 91 24 121 18 69 19 90 1 90 -24
0 -45 -45 -72 -157 -14 -59 -34 -131 -45 -158 -10 -28 -19 -64 -19 -80 0 -17
-6 -39 -14 -50 -7 -11 -21 -47 -32 -80 -10 -33 -32 -75 -50 -95 -18 -20 -40
-55 -49 -78 -30 -73 -87 -65 -121 17 -29 69 -45 171 -59 366 -8 110 -15 232
-15 272 0 62 -5 80 -34 135 -34 64 -67 86 -80 53z"/>
<path d="M17811 7137 c-17 -17 -13 -62 9 -99 19 -32 50 -122 84 -239 17 -59
39 -94 152 -235 116 -145 148 -167 207 -145 47 18 117 113 117 159 0 11 8 30
19 43 26 33 91 158 91 174 0 7 12 27 26 44 18 22 31 57 44 123 20 98 15 128
-19 128 -23 0 -28 -12 -37 -92 -6 -57 -52 -176 -99 -258 -8 -14 -25 -45 -37
-70 -13 -25 -36 -57 -51 -72 -17 -17 -27 -38 -27 -57 0 -36 -23 -61 -55 -61
-35 0 -187 174 -247 284 -16 29 -35 87 -73 219 -9 32 -26 66 -37 77 -11 10
-22 29 -23 42 -4 35 -4 35 -19 41 -7 3 -19 0 -25 -6z"/>
<path d="M87 6363 c-11 -10 -8 -43 3 -43 15 0 24 30 13 41 -5 5 -12 6 -16 2z"/>
<path d="M24050 6136 c0 -7 12 -16 28 -19 32 -6 37 -3 29 18 -8 19 -57 20 -57
1z"/>
</g>
</svg>
