<?xml version="1.0" standalone="no"?>
<!DOCTYPE svg PUBLIC "-//W3C//DTD SVG 20010904//EN"
 "http://www.w3.org/TR/2001/REC-SVG-20010904/DTD/svg10.dtd">
<svg version="1.0" xmlns="http://www.w3.org/2000/svg"
 width="3264.000000pt" height="2448.000000pt" viewBox="0 0 3264.000000 2448.000000"
 preserveAspectRatio="xMidYMid meet">
<metadata>
Created by potrace 1.12, written by Peter Selinger 2001-2015
</metadata>
<g transform="translate(0.000000,2448.000000) scale(0.100000,-0.100000)"
fill="#000000" stroke="none">
<path d="M1465 19468 c-113 -14 -178 -27 -395 -79 -113 -27 -252 -60 -310 -73
-58 -14 -154 -31 -213 -37 -89 -11 -110 -16 -119 -32 -7 -15 -6 -23 5 -34 14
-14 33 -12 179 17 89 18 199 43 243 55 44 13 168 44 275 69 107 26 212 51 232
57 57 15 161 21 177 11 20 -14 7 -42 -62 -135 -237 -318 -351 -567 -349 -764
0 -64 15 -93 47 -93 25 0 25 1 19 68 -4 54 0 87 21 167 44 168 188 440 298
565 38 43 127 183 127 200 0 10 -10 26 -22 34 -24 17 -45 18 -153 4z"/>
<path d="M2036 19398 c-9 -12 -16 -43 -16 -68 0 -25 -12 -99 -25 -165 -68
-320 -104 -552 -106 -671 -1 -80 10 -107 44 -102 19 3 21 11 22 98 1 93 43
360 86 555 53 236 64 321 44 351 -19 30 -30 30 -49 2z"/>
<path d="M3159 19378 c-11 -13 -36 -52 -54 -88 -18 -36 -55 -94 -81 -128 -127
-166 -143 -188 -143 -204 -1 -23 -9 -22 -46 3 -16 11 -55 33 -85 49 -97 52
-147 109 -136 155 17 67 122 130 284 171 104 26 107 28 97 43 -17 28 -145 4
-287 -54 -101 -41 -168 -118 -168 -193 0 -41 71 -104 187 -167 61 -33 93 -56
93 -67 0 -10 -13 -32 -28 -50 -76 -89 -127 -229 -116 -325 11 -111 77 -163
206 -163 126 0 252 46 321 118 96 100 -12 283 -245 416 -27 15 -48 31 -48 36
0 5 10 20 23 34 82 90 142 161 165 193 119 173 133 202 112 228 -17 20 -26 19
-51 -7z m-162 -571 c185 -138 236 -245 150 -312 -64 -48 -126 -68 -227 -72
-83 -4 -99 -2 -128 17 -78 49 -77 152 4 313 42 82 73 127 88 127 8 0 59 -33
113 -73z"/>
<path d="M3741 19295 c-23 -14 -49 -25 -56 -25 -16 0 -30 -18 -21 -27 3 -3 17
2 30 11 27 17 66 22 66 7 0 -5 -19 -24 -42 -42 -134 -104 -193 -173 -252 -298
-25 -53 -31 -79 -31 -131 0 -152 102 -223 317 -221 218 1 468 150 554 330 21
44 25 62 19 100 -10 64 -48 133 -92 168 -125 99 -237 145 -363 150 -76 3 -89
1 -129 -22z m304 -76 c100 -52 160 -102 189 -160 44 -88 32 -141 -54 -244
-104 -124 -327 -210 -480 -186 -79 13 -164 52 -185 85 -24 36 -15 144 15 206
67 136 217 276 344 320 63 23 94 19 171 -21z"/>
<path d="M10107 19262 c-20 -21 -22 -53 -6 -69 9 -9 8 -61 -1 -205 -19 -294
-20 -345 -9 -453 10 -98 27 -145 52 -145 6 0 34 14 60 30 50 32 129 140 143
196 4 16 13 40 20 54 21 38 74 182 74 200 0 9 7 25 15 36 8 10 14 28 14 39 0
17 -2 17 -12 -5 -7 -14 -20 -33 -30 -43 -11 -11 -54 -92 -98 -180 -82 -170
-134 -245 -161 -234 -25 9 -32 136 -18 335 24 349 25 420 5 442 -22 25 -28 25
-48 2z"/>
<path d="M23010 19201 c-140 -43 -294 -222 -354 -411 -34 -105 -50 -261 -42
-390 10 -163 23 -190 80 -176 31 8 30 -2 10 129 -4 31 -3 47 4 47 6 0 51 -18
100 -39 167 -74 299 -113 394 -119 96 -5 143 7 154 40 3 11 3 22 0 25 -3 4
-52 7 -108 8 -88 1 -115 6 -183 32 -170 65 -324 136 -346 159 -29 30 -25 35
91 101 181 104 349 249 408 353 39 68 44 142 12 183 -43 54 -144 81 -220 58z
m140 -96 c69 -62 -36 -201 -285 -376 -130 -91 -192 -119 -181 -81 2 9 12 45
20 79 37 149 169 337 271 385 51 24 145 21 175 -7z"/>
<path d="M10532 19128 c-16 -16 -15 -74 2 -123 10 -29 14 -98 15 -250 1 -211
17 -382 40 -409 18 -21 48 -25 68 -10 17 13 17 15 -4 31 -17 14 -25 35 -32 88
-14 101 -34 338 -36 425 -1 41 -2 112 -3 157 -2 69 -5 84 -20 92 -13 7 -23 6
-30 -1z"/>
<path d="M25480 19124 c-72 -14 -105 -28 -138 -58 -20 -18 -66 -50 -102 -71
-88 -52 -226 -193 -275 -279 -42 -75 -75 -179 -75 -237 0 -79 79 -137 188
-139 65 0 178 29 260 67 347 162 506 369 433 565 -28 73 -51 101 -104 127 -43
21 -140 34 -187 25z m157 -100 c56 -37 76 -76 77 -149 1 -140 -120 -264 -377
-385 -125 -59 -190 -74 -294 -71 -46 1 -73 32 -73 81 0 172 224 416 466 509
126 49 146 50 201 15z"/>
<path d="M23501 19071 c-20 -20 -21 -32 -21 -213 0 -106 -5 -249 -10 -318 -25
-335 -25 -317 0 -325 14 -4 27 -2 35 6 24 26 71 606 63 773 -2 57 -7 71 -25
83 -19 13 -24 12 -42 -6z"/>
<path d="M26843 19060 c-79 -16 -153 -66 -153 -103 0 -20 42 -65 123 -130 l47
-39 -74 -79 c-95 -100 -130 -170 -124 -239 6 -63 32 -92 107 -121 69 -27 196
-29 291 -4 83 21 197 75 233 108 74 70 -12 181 -228 296 -80 43 -83 47 -54 70
36 30 190 109 261 135 58 20 63 24 63 52 0 25 -4 29 -32 32 -40 4 -182 -63
-303 -143 -95 -63 -95 -63 -167 0 -72 62 -57 78 88 95 295 34 295 34 263 61
-20 17 -272 23 -341 9z m149 -341 c156 -91 253 -172 246 -207 -7 -41 -218
-112 -333 -112 -154 0 -199 55 -136 165 30 52 146 185 161 185 5 0 33 -14 62
-31z"/>
<path d="M13257 19049 c-104 -25 -249 -141 -305 -247 -50 -94 -113 -280 -119
-352 -5 -54 -3 -68 12 -80 32 -27 49 -1 57 86 15 179 81 338 183 439 84 83
155 117 256 123 88 5 128 -6 159 -46 48 -61 12 -95 -135 -127 -80 -17 -240
-66 -300 -91 -41 -17 -85 -68 -85 -98 0 -13 18 -48 40 -78 34 -48 53 -63 139
-107 55 -28 105 -51 113 -51 7 0 40 -14 73 -30 33 -16 68 -30 78 -30 19 0 57
54 57 83 0 21 -27 22 -50 2 -14 -13 -26 -11 -102 15 -222 75 -336 173 -270
233 27 24 105 52 263 91 217 54 273 87 253 148 -12 40 -65 96 -105 112 -43 17
-149 20 -212 5z"/>
<path d="M15131 19047 c-43 -15 -60 -39 -42 -61 19 -23 36 -20 55 9 14 21 24
25 64 25 26 0 70 -8 97 -19 28 -10 59 -22 70 -26 11 -4 -4 9 -34 29 -30 20
-71 38 -90 41 -20 3 -47 7 -61 9 -14 2 -40 -1 -59 -7z"/>
<path d="M9915 18999 c-4 -6 -5 -13 -2 -16 7 -7 27 6 27 18 0 12 -17 12 -25
-2z"/>
<path d="M13903 19002 c-7 -5 -26 -46 -42 -93 -16 -46 -42 -118 -58 -159 -43
-107 -55 -179 -51 -305 l3 -110 30 0 30 0 -3 112 c-4 136 14 214 90 402 36 89
48 129 41 140 -12 19 -25 23 -40 13z"/>
<path d="M9856 18923 c-69 -95 -225 -441 -261 -578 -7 -30 -18 -63 -24 -74 -6
-11 -8 -26 -5 -35 17 -45 67 -10 85 59 17 70 118 364 143 418 13 29 26 59 30
67 3 8 24 49 46 90 22 41 40 81 40 88 0 24 -21 11 -54 -35z"/>
<path d="M15420 18944 c0 -3 25 -33 55 -66 109 -121 177 -264 168 -351 -9 -79
-41 -100 -248 -164 -66 -20 -95 -24 -165 -21 -53 3 -97 11 -117 21 -74 39
-104 138 -64 219 49 102 207 233 311 258 51 12 68 31 45 50 -19 16 -67 0 -165
-53 -136 -73 -217 -151 -255 -245 -30 -74 -31 -103 -6 -158 41 -91 173 -152
300 -140 92 9 148 28 269 87 76 38 109 60 123 83 55 90 -2 230 -166 412 -46
52 -85 83 -85 68z"/>
<path d="M27909 18906 c-186 -57 -285 -127 -348 -250 -56 -105 -37 -177 59
-224 51 -25 64 -27 170 -26 188 2 435 74 534 155 96 81 99 194 7 285 -64 63
-122 86 -227 89 -79 2 -106 -2 -195 -29z m307 -72 c81 -38 132 -130 101 -178
-57 -87 -286 -164 -513 -173 -99 -4 -126 -2 -152 11 -95 49 -12 208 152 291
73 37 83 38 118 13 13 -10 29 -6 85 20 78 37 153 42 209 16z"/>
<path d="M26380 18887 c-142 -72 -237 -122 -272 -144 -21 -13 -40 -23 -43 -23
-2 0 -18 27 -35 60 -34 67 -68 92 -95 70 -24 -20 -18 -50 21 -115 l36 -59 -23
-19 c-166 -127 -279 -230 -279 -256 0 -16 30 -41 50 -41 11 0 68 49 132 114
62 62 123 119 135 125 20 10 25 7 51 -32 85 -123 250 -219 260 -151 2 16 -9
29 -47 53 -56 36 -171 154 -171 175 0 13 54 46 305 188 55 32 80 52 80 64 0
30 -34 27 -105 -9z"/>
<path d="M16665 18860 c-5 -21 -39 -61 -108 -128 -55 -53 -111 -108 -124 -121
-22 -23 -24 -23 -49 -6 -14 9 -48 38 -76 65 -60 58 -60 79 0 100 51 17 54 30
8 30 -44 0 -85 -15 -113 -42 -27 -25 -30 -58 -7 -58 14 0 111 -71 173 -126 12
-11 9 -19 -18 -52 -45 -57 -81 -141 -81 -188 0 -49 31 -100 77 -127 43 -24
129 -32 191 -17 143 34 137 142 -16 287 l-76 72 125 128 c69 70 134 140 143
155 22 34 15 58 -18 58 -19 0 -26 -7 -31 -30z m-134 -464 c61 -87 66 -127 17
-152 -41 -21 -126 -21 -168 1 -32 17 -50 49 -50 91 0 26 39 110 73 156 l21 28
29 -27 c16 -16 51 -59 78 -97z"/>
<path d="M23915 18849 c-120 -20 -169 -59 -126 -102 20 -21 22 -21 73 -4 32
11 114 22 203 27 302 20 388 29 396 41 13 21 -1 36 -39 43 -54 9 -448 5 -507
-5z"/>
<path d="M11281 18802 c-231 -99 -362 -401 -226 -521 96 -84 279 -30 450 134
113 109 130 209 56 327 -27 42 -37 49 -96 67 -86 27 -107 26 -184 -7z m211
-59 c14 -16 32 -39 41 -53 19 -27 22 -104 7 -145 -15 -40 -96 -121 -169 -169
-113 -75 -206 -94 -269 -56 -60 36 -65 98 -17 206 63 143 198 236 356 243 16
1 35 -9 51 -26z"/>
<path d="M11857 18736 c-81 -198 -90 -398 -21 -457 34 -29 90 -30 167 -4 87
31 113 51 260 198 104 105 118 123 120 155 2 33 -1 37 -25 40 -22 3 -30 -3
-44 -30 -39 -75 -105 -156 -164 -200 -151 -115 -212 -142 -255 -114 -48 31
-59 77 -45 180 14 104 28 147 65 206 32 51 30 84 -6 88 -22 3 -28 -4 -52 -62z"/>
<path d="M16908 18734 c-32 -36 -58 -71 -58 -78 0 -7 -9 -30 -19 -52 -62 -127
-19 -269 98 -322 47 -22 63 -24 128 -19 85 6 186 48 229 94 84 89 84 214 1
302 -42 44 -153 97 -221 105 -33 5 -56 13 -60 22 -11 29 -42 12 -98 -52z m245
-30 c57 -20 104 -59 138 -112 35 -55 37 -103 8 -152 -51 -85 -103 -114 -220
-125 -139 -13 -208 44 -209 172 0 90 62 219 113 235 30 9 120 0 170 -18z"/>
<path d="M15826 18664 c-8 -21 14 -70 58 -127 20 -26 36 -51 36 -57 0 -5 -55
-37 -122 -70 -68 -34 -126 -67 -130 -73 -11 -18 11 -47 36 -47 22 0 190 102
231 140 12 11 24 20 27 20 3 0 40 -21 82 -46 70 -42 106 -50 106 -25 0 16 -33
43 -76 62 -72 32 -72 39 -4 115 33 38 60 72 60 76 0 17 -44 -15 -97 -69 -64
-66 -70 -64 -120 45 -28 60 -38 72 -57 72 -13 0 -27 -7 -30 -16z"/>
<path d="M24215 18615 c-82 -15 -169 -24 -237 -25 -95 0 -108 -2 -118 -19 -13
-26 -3 -50 24 -55 67 -14 94 -15 164 -5 118 16 283 50 325 66 29 12 37 20 35
37 -4 29 -36 29 -193 1z"/>
<path d="M14281 18251 c-19 -12 -181 -342 -181 -368 0 -44 25 -22 87 75 69
109 133 238 133 269 0 23 -20 35 -39 24z"/>
<path d="M25909 17876 c-159 -46 -257 -160 -327 -376 -27 -85 -31 -107 -41
-223 -15 -174 22 -548 57 -583 8 -9 23 -12 36 -8 43 12 60 62 32 93 -8 9 -23
63 -34 121 -32 165 -35 190 -22 190 7 0 48 -25 91 -56 234 -165 707 -314 794
-250 29 21 12 46 -30 46 -57 0 -171 27 -295 69 -147 49 -204 76 -348 162 -119
72 -172 113 -172 135 0 6 26 19 58 29 183 56 387 165 465 249 76 81 116 180
103 251 -9 48 -65 108 -126 134 -63 27 -179 35 -241 17z m214 -93 c132 -53 85
-214 -97 -333 -100 -65 -411 -197 -422 -179 -14 24 50 258 95 348 28 53 95
127 135 149 79 41 206 48 289 15z"/>
<path d="M1885 17859 c-147 -19 -311 -79 -341 -124 -36 -56 12 -86 62 -40 16
15 45 35 64 45 131 67 412 94 485 46 31 -21 33 -56 4 -121 -25 -56 -104 -191
-130 -220 -9 -11 -40 -54 -69 -95 -169 -247 -179 -265 -161 -307 18 -45 68
-71 155 -84 87 -12 121 -8 336 38 134 28 156 39 146 71 -10 31 -28 33 -98 11
-87 -27 -272 -59 -338 -58 -124 1 -154 38 -104 126 30 51 103 160 136 203 77
100 125 177 178 288 52 107 52 130 0 175 -63 53 -158 67 -325 46z"/>
<path d="M22693 17811 c-110 -40 -169 -98 -228 -223 -52 -109 -67 -178 -72
-323 -8 -200 36 -426 110 -575 37 -75 59 -93 83 -68 16 15 15 21 -8 80 -76
189 -124 436 -115 588 9 153 64 311 137 393 78 90 289 109 390 36 50 -36 53
-74 12 -140 -59 -91 -144 -154 -359 -263 -73 -38 -137 -74 -144 -82 -35 -42
34 -99 210 -174 53 -23 152 -68 219 -102 159 -77 222 -98 292 -98 62 0 94 16
88 46 -3 16 -14 20 -80 24 -63 5 -89 12 -145 43 -37 20 -138 71 -223 112 -212
103 -243 120 -247 131 -2 6 39 29 91 53 190 86 342 206 386 304 11 23 20 63
20 90 0 42 -4 51 -39 86 -75 75 -258 105 -378 62z"/>
<path d="M3857 17760 c-128 -41 -327 -190 -372 -281 -53 -103 -42 -186 34
-260 67 -64 143 -90 288 -96 189 -9 349 26 521 115 140 72 172 145 115 260
-16 31 -53 80 -84 111 -147 145 -340 203 -502 151z m266 -35 c105 -50 190
-117 236 -185 41 -61 43 -68 39 -122 -5 -72 -33 -105 -131 -154 -226 -115
-608 -120 -706 -9 -58 66 -60 129 -7 220 26 44 116 131 176 171 61 40 168 75
223 73 38 -2 53 1 61 14 15 24 48 21 109 -8z"/>
<path d="M2804 17756 c-97 -28 -147 -58 -173 -104 -30 -56 -23 -73 59 -138 35
-27 77 -61 94 -76 l31 -27 -26 -28 c-44 -49 -98 -128 -119 -177 -40 -95 -16
-170 70 -214 38 -20 57 -23 126 -20 73 3 89 7 164 46 147 76 186 120 160 182
-12 29 -105 120 -123 120 -15 0 -167 92 -167 100 0 18 194 184 277 237 28 18
54 37 58 43 3 5 19 10 34 10 36 0 53 17 40 42 -15 29 -57 22 -91 -14 -27 -29
-32 -31 -51 -19 -62 39 -278 61 -363 37z m325 -46 c12 -6 11 -10 -5 -23 -132
-109 -240 -203 -254 -220 -16 -20 -20 -20 -44 -7 -15 7 -54 38 -86 68 -65 58
-77 94 -42 124 30 27 115 58 183 68 68 9 225 3 248 -10z m-165 -385 c79 -52
166 -133 166 -154 0 -26 -57 -72 -125 -101 -172 -71 -314 -38 -288 68 18 76
122 242 150 242 7 0 51 -25 97 -55z"/>
<path d="M23529 17726 c-122 -26 -196 -82 -169 -126 7 -11 20 -8 67 12 157 70
324 64 405 -13 37 -35 40 -41 33 -75 -17 -92 -82 -189 -260 -389 -117 -130
-195 -231 -195 -252 0 -7 9 -22 20 -33 31 -31 97 -26 375 29 452 90 507 107
469 146 -22 22 -35 20 -401 -51 -272 -52 -353 -63 -353 -46 0 4 54 68 121 142
223 249 289 355 297 477 l5 73 -39 39 c-27 26 -58 44 -94 55 -76 23 -201 28
-281 12z"/>
<path d="M27063 17662 c-132 -156 -182 -233 -268 -408 -68 -140 -72 -144 -145
-144 -39 0 -60 -14 -60 -42 0 -21 29 -38 64 -38 14 0 26 -3 26 -7 0 -4 -22
-46 -48 -93 -71 -123 -125 -219 -139 -243 -15 -26 -6 -46 24 -53 17 -5 30 -1
43 12 18 20 101 180 163 315 21 46 42 79 53 83 23 7 221 36 245 36 15 0 17
-14 21 -112 4 -129 22 -178 62 -178 13 0 29 7 37 16 10 13 9 21 -6 47 -14 23
-20 58 -23 133 l-5 102 42 22 c47 24 49 40 5 55 -16 5 -30 10 -31 10 -2 1 13
109 32 241 20 131 34 255 33 274 -3 31 -6 35 -35 38 -28 3 -37 -4 -90 -66z
m47 -59 c0 -5 -9 -56 -20 -115 -10 -59 -24 -156 -30 -215 -6 -59 -14 -111 -18
-115 -10 -10 -225 -29 -234 -20 -10 10 147 289 219 388 55 74 83 100 83 77z"/>
<path d="M12011 17697 c-83 -42 -188 -167 -223 -267 -34 -94 -42 -157 -43
-315 0 -114 5 -189 18 -260 25 -134 30 -149 49 -153 9 -2 70 34 135 79 142 98
154 108 267 217 106 103 141 166 156 286 22 176 -35 325 -157 405 -59 40 -135
43 -202 8z m148 -36 c145 -75 204 -317 119 -488 -39 -79 -382 -388 -430 -388
-32 0 -64 248 -55 429 5 119 32 228 80 322 24 48 93 114 119 114 7 0 22 7 32
15 28 21 90 19 135 -4z"/>
<path d="M27855 17691 c-70 -42 -196 -209 -297 -391 -72 -130 -191 -355 -229
-432 -37 -74 -41 -89 -29 -103 16 -19 60 -16 71 5 4 8 60 123 123 254 139 286
252 478 319 544 l49 47 -6 -60 c-4 -33 -18 -157 -32 -275 -37 -328 -32 -399
28 -428 41 -19 77 -4 136 56 45 45 73 93 175 300 67 135 128 248 135 250 28 8
10 -284 -33 -527 -8 -47 -15 -107 -15 -133 0 -42 3 -48 24 -54 36 -9 49 4 43
40 -3 17 6 93 19 170 66 369 72 584 18 623 -45 33 -62 9 -232 -317 -119 -230
-194 -340 -232 -340 -16 0 -23 68 -15 148 10 116 43 384 61 499 12 76 13 106
4 122 -13 26 -45 27 -85 2z"/>
<path d="M28896 17693 c-55 -2 -105 -8 -112 -14 -6 -5 -14 -42 -17 -82 -10
-145 -177 -587 -293 -779 -20 -33 -34 -68 -32 -80 4 -32 71 -66 146 -74 104
-11 455 40 523 76 21 12 25 36 7 42 -7 3 -74 -3 -148 -14 -139 -19 -422 -29
-436 -15 -4 4 22 65 59 135 75 145 142 311 211 527 27 83 52 160 57 171 7 21
16 22 176 29 172 7 231 1 280 -31 18 -11 28 -12 48 -2 52 24 15 91 -62 109
-36 8 -188 9 -407 2z"/>
<path d="M29618 17649 c-42 -11 -84 -40 -102 -69 -20 -35 -20 -54 -1 -70 12
-10 21 -4 53 29 28 29 47 41 67 41 34 0 33 -1 -57 -64 -110 -77 -230 -219
-298 -354 -29 -58 -32 -70 -28 -142 4 -107 34 -150 140 -204 63 -32 90 -40
152 -44 95 -6 181 11 273 53 90 41 156 102 196 180 27 52 31 70 30 130 -1 86
-37 199 -92 294 -42 71 -135 167 -191 196 -43 23 -107 34 -142 24z m216 -183
c81 -95 155 -287 142 -369 -19 -118 -120 -205 -283 -243 -138 -32 -291 3 -345
78 -30 43 -29 136 2 198 78 155 259 353 347 380 67 20 88 13 137 -44z"/>
<path d="M9717 17623 c-2 -5 -7 -21 -11 -38 -4 -16 -45 -109 -91 -205 -114
-238 -185 -398 -192 -432 -10 -50 31 -78 149 -104 40 -8 100 -17 133 -19 83
-4 267 13 313 30 36 13 33 14 -68 14 -252 2 -393 17 -438 47 -19 13 -22 21
-16 47 7 33 95 229 171 382 90 179 117 285 74 285 -11 0 -22 -3 -24 -7z"/>
<path d="M1120 17603 c-74 -15 -263 -105 -336 -160 -127 -97 -145 -111 -166
-140 -12 -15 -36 -44 -54 -63 -72 -77 -83 -185 -27 -255 51 -64 185 -120 308
-128 100 -8 340 24 438 57 52 18 65 42 16 32 -85 -17 -237 -29 -374 -29 -131
-1 -158 2 -209 21 -139 51 -186 133 -135 235 26 52 188 213 249 249 52 31 143
76 215 108 63 27 142 29 218 5 45 -14 61 -15 70 -6 15 15 -1 41 -36 59 -48 23
-109 29 -177 15z"/>
<path d="M13210 17610 c-19 -4 -63 -21 -97 -39 -132 -68 -199 -197 -224 -427
-10 -94 -9 -131 6 -243 21 -169 45 -241 81 -241 7 0 18 9 24 20 8 16 5 34 -18
88 -38 88 -42 106 -52 240 -14 199 12 322 94 444 100 151 275 186 403 81 28
-24 54 -113 43 -151 -22 -78 -57 -103 -258 -187 -140 -59 -172 -81 -172 -119
1 -30 24 -55 110 -118 165 -121 189 -133 312 -158 67 -13 99 -15 142 -8 52 9
78 28 39 28 -61 0 -187 22 -236 40 -111 42 -314 191 -302 222 3 8 32 26 63 40
31 14 106 47 166 74 175 77 210 129 169 253 -24 77 -71 125 -145 150 -64 22
-89 24 -148 11z"/>
<path d="M15532 17571 c-152 -53 -330 -249 -348 -385 -14 -97 24 -164 120
-213 90 -47 258 -43 360 8 127 63 182 106 196 157 19 70 8 164 -25 207 -13 18
-14 12 -8 -66 7 -97 -3 -136 -47 -197 -20 -27 -39 -42 -62 -47 -18 -4 -38 -11
-44 -16 -22 -18 -131 -39 -200 -39 -113 0 -179 32 -216 104 -43 84 -4 197 109
317 78 82 196 158 221 143 19 -12 96 21 87 36 -10 16 -86 11 -143 -9z"/>
<path d="M15730 17561 c0 -4 10 -21 23 -37 12 -15 27 -42 32 -59 14 -41 29
-38 33 8 3 32 -2 43 -28 67 -31 29 -60 39 -60 21z"/>
<path d="M32208 17563 c-31 -5 -68 -46 -68 -75 0 -18 5 -19 38 -13 62 11 252
17 309 10 34 -4 56 -12 60 -22 3 -8 -6 -40 -21 -71 -57 -122 -82 -308 -72
-529 8 -176 15 -168 -169 -183 -175 -14 -322 -35 -340 -50 -21 -17 -19 -37 4
-50 14 -7 69 -4 193 10 95 11 191 20 213 20 62 0 115 19 148 52 l30 29 -6 147
c-11 234 19 442 79 570 20 40 34 81 32 90 -5 26 -72 54 -151 63 -73 8 -230 9
-279 2z"/>
<path d="M11337 17513 c-4 -3 -7 -15 -7 -26 0 -11 -8 -36 -19 -56 -10 -20 -31
-67 -47 -106 -15 -38 -41 -94 -56 -124 -15 -29 -28 -59 -28 -67 0 -27 -48
-119 -69 -132 -13 -8 -21 -22 -21 -40 0 -27 -9 -43 -83 -139 -32 -42 -33 -86
-4 -91 29 -6 53 24 87 108 18 44 37 83 43 88 13 9 220 52 254 52 19 0 23 -8
29 -57 4 -32 7 -71 8 -88 1 -20 7 -31 18 -33 27 -5 37 34 27 98 -17 101 -19
94 36 101 60 8 125 34 125 50 0 11 -46 9 -151 -7 l-37 -6 -7 74 c-3 40 -11
100 -15 133 -5 33 -14 102 -20 154 -6 52 -16 101 -22 108 -11 14 -31 17 -41 6z
m25 -289 c15 -103 25 -190 23 -194 -8 -13 -195 -24 -206 -13 -10 10 1 42 36
113 7 14 16 39 19 55 11 42 87 225 95 225 3 0 18 -84 33 -186z"/>
<path d="M13905 17483 c-117 -25 -222 -100 -187 -135 9 -9 28 0 80 36 77 52
140 73 254 83 63 5 82 3 103 -11 63 -41 17 -126 -194 -361 -40 -44 -81 -97
-92 -117 -42 -81 -11 -151 72 -163 90 -13 404 -22 417 -12 6 5 12 20 12 33 0
29 18 27 -215 28 -164 1 -194 3 -218 19 -17 11 -27 26 -27 41 0 25 13 43 173
232 169 201 199 284 116 326 -43 23 -193 23 -294 1z"/>
<path d="M24391 17479 c-64 -11 -99 -27 -117 -54 -25 -39 -4 -47 72 -29 55 13
104 15 244 11 96 -3 195 -10 220 -15 196 -45 255 -49 248 -14 -5 24 -70 57
-151 76 -138 32 -399 44 -516 25z"/>
<path d="M31509 17452 c-13 -10 -69 -45 -124 -77 -55 -32 -142 -87 -194 -121
-51 -35 -97 -64 -101 -64 -17 0 -61 64 -58 84 6 40 99 73 259 91 31 3 65 12
75 20 32 24 2 38 -88 43 -121 6 -217 -21 -287 -82 -50 -45 -46 -93 15 -165
l28 -34 -34 -26 c-113 -85 -150 -138 -150 -215 0 -88 87 -148 238 -165 91 -10
237 1 279 21 22 10 29 21 31 49 2 29 -5 46 -43 96 -48 65 -155 176 -192 200
-13 9 -23 19 -23 24 0 12 175 125 279 180 105 56 163 104 159 133 -4 28 -38
32 -69 8z m-199 -596 c22 -42 3 -47 -150 -44 -152 4 -204 20 -228 71 -20 41
14 105 91 169 l62 51 105 -110 c58 -61 112 -122 120 -137z"/>
<path d="M31597 17433 c-19 -19 18 -83 49 -83 5 0 16 -5 24 -10 12 -7 7 -16
-28 -45 -61 -53 -101 -116 -114 -181 -10 -52 -9 -61 11 -100 46 -86 151 -130
290 -121 104 7 160 27 201 73 55 63 37 157 -51 261 -73 86 -143 135 -222 155
-44 11 -75 25 -84 38 -14 19 -62 28 -76 13z m236 -164 c50 -33 114 -104 141
-156 18 -36 21 -76 6 -103 -20 -38 -174 -63 -270 -44 -47 10 -110 73 -110 110
0 65 74 172 145 208 38 20 34 21 88 -15z"/>
<path d="M17355 17391 c-22 -16 -83 -50 -135 -76 -52 -26 -136 -74 -186 -106
-50 -33 -96 -59 -101 -59 -13 0 -23 24 -23 55 0 49 127 119 243 134 52 7 66
28 14 23 -68 -7 -173 -34 -215 -54 -51 -26 -112 -90 -112 -117 0 -11 8 -26 18
-33 34 -24 33 -36 -1 -75 -55 -61 -70 -98 -62 -152 15 -98 142 -164 317 -165
111 -1 127 10 102 70 -20 48 -205 234 -234 234 -33 0 -23 -20 40 -84 75 -76
133 -153 125 -166 -9 -15 -105 -12 -165 6 -34 10 -67 29 -88 50 -32 32 -34 38
-30 86 5 47 10 56 61 104 80 76 152 122 333 217 139 71 159 85 159 106 0 34
-14 34 -60 2z"/>
<path d="M30220 17344 c-16 -41 -3 -67 76 -145 41 -40 74 -76 74 -80 0 -3 -34
-23 -76 -43 -81 -41 -214 -155 -214 -185 0 -23 20 -41 43 -41 11 0 45 27 77
63 40 43 81 75 137 105 44 23 87 42 94 42 8 -1 37 -21 64 -46 104 -94 247
-204 266 -204 14 0 19 7 19 25 0 19 -29 49 -127 135 -71 62 -129 117 -131 124
-2 8 52 38 135 76 196 90 231 113 211 137 -17 21 -54 9 -223 -69 -212 -99
-190 -94 -231 -51 -20 20 -58 70 -85 110 -39 58 -55 73 -75 73 -17 0 -27 -8
-34 -26z"/>
<path d="M10675 17309 c-27 -6 -81 -11 -120 -12 -65 -2 -74 -5 -131 -45 -102
-72 -150 -144 -160 -239 -11 -109 28 -187 111 -218 34 -14 65 -16 137 -13 84
4 101 9 180 47 48 24 90 47 94 52 3 5 23 21 43 34 21 13 50 43 64 67 30 51 67
157 67 191 0 25 -37 81 -67 102 -47 32 -146 47 -218 34z m128 -50 c92 -25 128
-107 91 -207 -23 -62 -21 -60 -116 -125 -96 -64 -183 -96 -283 -103 -78 -6
-118 10 -152 63 -25 38 -25 155 1 202 26 49 102 127 137 141 25 11 32 10 50
-6 18 -17 22 -17 47 -2 19 11 33 13 44 7 13 -7 20 -5 28 10 15 28 89 38 153
20z"/>
<path d="M17705 17300 c-3 -5 -21 -10 -38 -10 -38 0 -117 -34 -117 -50 0 -8
13 -10 42 -5 l42 7 -54 -61 c-77 -87 -109 -141 -116 -194 -9 -60 0 -89 38
-132 63 -73 148 -96 278 -76 138 21 235 91 247 179 11 81 -86 212 -210 282
-30 17 -57 40 -60 50 -5 21 -41 28 -52 10z m73 -84 c112 -57 173 -126 193
-217 14 -60 -18 -111 -90 -146 -50 -25 -66 -28 -167 -28 -111 0 -113 0 -143
30 -42 39 -58 93 -43 144 22 71 150 238 185 240 10 1 39 -10 65 -23z"/>
<path d="M16113 17274 c-9 -23 32 -96 91 -161 28 -31 45 -58 40 -62 -5 -5 -54
-25 -109 -44 -160 -56 -175 -64 -175 -91 0 -13 6 -26 13 -29 6 -2 48 12 92 32
44 21 115 54 158 73 l79 36 46 -35 c61 -46 167 -97 188 -89 26 10 11 40 -26
50 -54 16 -155 73 -155 87 0 8 44 36 97 64 100 51 163 93 155 102 -3 2 -13 0
-24 -6 -26 -14 -187 -89 -238 -111 l-42 -18 -36 47 c-20 25 -51 73 -69 106
-35 63 -71 84 -85 49z"/>
<path d="M24276 17268 c-25 -35 -20 -46 32 -72 66 -34 153 -47 307 -49 135 -1
185 9 185 38 0 23 -42 35 -123 35 -100 0 -244 23 -301 49 -61 27 -81 27 -100
-1z"/>
<path d="M16648 17250 c-28 -25 -30 -29 -13 -29 11 0 36 13 55 29 32 27 33 29
13 30 -13 0 -37 -13 -55 -30z"/>
<path d="M14763 16842 c-6 -4 -18 -21 -27 -39 -9 -18 -49 -83 -90 -145 -40
-62 -87 -141 -105 -175 -17 -34 -45 -78 -62 -98 -24 -27 -29 -39 -21 -47 9 -9
18 -8 38 3 32 17 39 26 111 149 30 52 74 121 98 155 60 86 95 149 95 172 0 22
-20 35 -37 25z"/>
<path d="M3892 16488 c-8 -8 -7 -18 3 -38 19 -38 21 -108 6 -315 -14 -185 -9
-452 9 -516 11 -36 25 -49 56 -49 30 0 35 20 17 71 -18 52 -33 363 -21 449 14
109 20 324 9 352 -13 33 -63 62 -79 46z"/>
<path d="M1160 16460 c-41 -5 -140 -16 -220 -25 -80 -9 -210 -18 -290 -19 -80
-1 -151 -5 -158 -10 -19 -12 3 -43 37 -51 39 -8 228 9 511 45 127 17 296 22
340 10 60 -16 75 -45 60 -117 -7 -32 -15 -62 -19 -68 -4 -5 -16 -32 -26 -60
-9 -27 -56 -124 -103 -215 -171 -330 -173 -335 -117 -335 23 0 32 6 40 25 6
14 49 104 97 200 219 443 244 558 133 604 -43 19 -189 27 -285 16z"/>
<path d="M1990 16436 c-52 -12 -114 -32 -137 -44 -23 -12 -47 -22 -52 -22 -6
0 -30 -13 -54 -30 -25 -16 -50 -30 -55 -30 -13 0 -25 -36 -17 -50 12 -20 53
-9 116 32 118 76 191 100 350 114 89 7 128 1 158 -27 34 -32 27 -71 -26 -136
-59 -73 -65 -78 -139 -113 -63 -30 -82 -53 -64 -75 6 -7 49 -14 108 -18 102
-5 166 -24 247 -72 25 -14 50 -35 56 -46 31 -59 -2 -128 -94 -195 -111 -82
-224 -122 -389 -139 -96 -10 -135 0 -175 43 -39 43 -51 37 -34 -19 10 -34 19
-43 59 -61 41 -18 60 -19 157 -14 170 9 288 51 423 150 60 45 117 116 129 164
3 13 -2 43 -11 67 -13 34 -28 51 -64 73 -61 36 -154 76 -219 92 -29 8 -53 19
-53 24 0 6 17 22 37 36 84 57 133 138 133 217 0 93 -173 128 -390 79z"/>
<path d="M3030 16338 c-113 -27 -177 -53 -207 -83 -59 -59 -40 -110 72 -190
36 -25 65 -52 65 -59 0 -6 -16 -28 -36 -47 -85 -83 -141 -208 -128 -290 14
-93 108 -143 269 -144 79 0 101 4 179 34 192 73 237 136 163 233 -40 52 -77
78 -232 159 -66 34 -123 67 -127 73 -10 14 58 77 187 175 l97 74 41 -14 c23
-8 63 -33 90 -56 49 -44 83 -54 93 -28 18 45 -128 127 -271 154 -79 15 -211
20 -255 9z m213 -45 c4 -4 -48 -60 -115 -125 -138 -134 -131 -132 -209 -61
-53 48 -65 78 -43 110 19 30 92 64 154 74 62 9 205 11 213 2z m-190 -334 c117
-60 269 -154 292 -180 42 -51 27 -108 -40 -148 -81 -48 -279 -75 -356 -50
-133 45 -126 177 21 357 19 23 36 42 38 42 1 0 22 -10 45 -21z"/>
<path d="M13035 16165 c-5 -2 -37 -11 -69 -21 -215 -65 -345 -224 -426 -524
-38 -141 -42 -169 -47 -280 -5 -125 5 -162 44 -168 28 -4 37 26 24 75 -27 95
3 363 54 492 28 72 96 193 129 230 43 48 140 115 209 144 220 92 359 -4 241
-165 -65 -90 -201 -177 -419 -268 -103 -43 -122 -60 -109 -97 11 -33 62 -68
181 -127 192 -95 404 -166 495 -166 94 0 153 27 63 28 -58 2 -105 14 -240 64
-206 77 -382 158 -410 188 -21 24 -15 34 38 58 23 11 81 38 130 61 106 49 158
84 242 163 131 122 153 261 48 304 -28 12 -150 18 -178 9z"/>
<path d="M9556 16118 c-16 -22 -16 -23 6 -26 47 -8 51 -19 44 -132 -4 -58 -14
-168 -23 -245 -24 -217 -8 -383 41 -424 18 -15 79 -7 138 16 60 24 198 186
244 286 8 18 25 46 37 63 12 18 27 40 33 50 21 36 34 5 35 -84 0 -48 6 -140
13 -206 10 -95 16 -121 31 -132 20 -15 45 -19 45 -6 0 4 -7 45 -14 92 -8 47
-15 128 -16 180 -5 258 -6 271 -21 281 -26 17 -43 4 -63 -47 -12 -28 -37 -70
-56 -92 -53 -62 -114 -141 -157 -204 -40 -60 -124 -135 -160 -144 -11 -3 -30
-1 -41 5 -33 18 -39 87 -26 296 19 288 18 413 -4 455 -22 44 -62 53 -86 18z"/>
<path d="M9483 16056 c-20 -17 -58 -79 -103 -169 -40 -78 -76 -149 -81 -157
-16 -29 -146 -305 -189 -402 -44 -101 -46 -132 -8 -126 17 2 28 18 46 68 32
86 120 294 170 400 21 47 54 123 73 170 18 47 41 97 51 112 10 14 18 30 18 34
0 4 14 22 31 40 41 42 34 66 -8 30z"/>
<path d="M23604 16000 c-143 -15 -218 -59 -169 -100 11 -9 26 -7 72 11 53 21
74 24 228 24 168 0 267 -13 282 -38 13 -21 -78 -85 -246 -171 -184 -94 -231
-126 -231 -158 0 -36 65 -83 216 -158 166 -81 232 -120 286 -172 48 -45 43
-61 -36 -135 -67 -62 -163 -116 -240 -133 -67 -15 -86 -7 -86 35 0 25 -5 35
-20 40 -27 9 -38 0 -49 -42 -11 -40 5 -86 34 -97 29 -11 128 -6 183 8 103 28
240 116 293 189 75 103 3 189 -275 332 -162 84 -216 117 -216 132 0 6 82 54
182 105 189 97 288 171 288 214 0 55 -94 96 -260 114 -105 11 -132 11 -236 0z"/>
<path d="M22313 15989 c-234 -27 -378 -239 -390 -574 -4 -95 -1 -140 15 -215
21 -100 117 -378 149 -433 20 -35 55 -46 79 -26 17 14 11 37 -20 84 -41 61
-174 483 -160 507 3 5 15 -6 27 -23 35 -51 123 -93 270 -128 320 -77 604 -159
679 -197 55 -28 80 -30 98 -9 16 20 0 41 -49 61 -52 22 -480 146 -649 189
-215 54 -282 83 -282 125 0 22 71 52 420 177 235 84 330 127 368 168 17 19 32
42 32 50 0 33 -91 113 -179 159 -142 73 -273 101 -408 85z m286 -93 c103 -36
221 -109 221 -136 0 -35 -111 -92 -340 -173 -279 -99 -399 -152 -459 -203 -17
-14 -34 -25 -36 -23 -7 7 15 162 36 249 35 150 127 272 229 305 73 24 256 14
349 -19z"/>
<path d="M13657 15971 c-44 -4 -71 -11 -77 -21 -16 -26 6 -32 54 -16 25 9 72
18 103 20 73 5 71 5 53 16 -16 10 -25 10 -133 1z"/>
<path d="M14174 15912 c4 -7 13 -12 21 -12 26 0 28 -40 3 -67 -20 -23 -150
-90 -320 -166 -52 -23 -58 -29 -58 -56 0 -22 8 -36 33 -54 30 -23 185 -97 202
-97 18 0 117 -73 140 -104 33 -43 32 -73 -7 -130 -37 -56 -95 -101 -195 -152
-129 -65 -73 -89 61 -26 107 51 215 177 216 253 0 34 -37 88 -77 114 -101 64
-127 78 -188 100 -78 28 -137 69 -129 90 6 14 123 85 142 85 18 0 197 102 225
128 29 28 35 63 13 81 -20 17 -91 28 -82 13z"/>
<path d="M26530 15903 c-41 -13 -65 -31 -86 -64 -20 -32 -28 -37 -74 -41 -121
-12 -323 -162 -380 -283 -64 -137 -19 -257 119 -317 180 -77 519 -65 724 26
161 71 192 260 80 484 -65 130 -172 202 -298 201 -38 0 -77 -3 -85 -6z m117
-89 c74 -25 157 -79 187 -123 37 -53 66 -152 69 -232 2 -58 -2 -71 -27 -107
-16 -23 -46 -50 -70 -61 -113 -55 -381 -86 -536 -62 -140 22 -240 92 -240 169
0 44 35 120 80 175 42 49 142 120 210 147 48 19 66 21 143 15 84 -6 87 -6 87
14 0 13 -10 26 -25 33 -27 12 -33 33 -12 41 25 11 88 6 134 -9z"/>
<path d="M10680 15871 c0 -5 6 -12 13 -15 8 -3 6 -9 -8 -17 -42 -25 -111 -107
-139 -163 -23 -48 -29 -76 -33 -155 -5 -89 -3 -98 19 -131 71 -104 193 -109
325 -11 54 39 84 99 91 176 10 132 -47 229 -171 290 -72 36 -97 42 -97 26z
m123 -75 c61 -61 82 -118 82 -228 l0 -97 -45 -45 c-24 -25 -63 -53 -86 -62
-39 -15 -46 -15 -94 1 -75 25 -93 57 -86 155 7 118 28 165 108 243 38 37 74
67 78 67 5 0 25 -15 43 -34z"/>
<path d="M28676 15840 c-39 -30 -66 -38 -66 -20 0 31 -305 -22 -395 -68 -16
-9 -50 -17 -75 -18 -40 -2 -373 -127 -627 -235 -48 -21 -81 -29 -97 -25 -14 3
-59 44 -102 91 -42 47 -85 85 -94 85 -26 0 -42 -25 -38 -61 2 -27 16 -43 76
-92 39 -32 72 -62 72 -65 0 -4 -48 -29 -106 -56 -125 -59 -154 -79 -154 -111
0 -30 26 -45 79 -45 42 0 71 20 71 49 0 21 54 59 128 91 l52 22 52 -39 c81
-60 150 -96 306 -157 138 -55 182 -63 182 -32 0 21 -33 44 -99 71 -84 34 -276
130 -312 156 -56 39 -51 43 193 138 165 64 351 146 383 167 26 18 32 18 37 -4
5 -16 66 -45 146 -68 24 -7 11 -24 -60 -80 -94 -74 -186 -162 -204 -196 -22
-43 -18 -102 11 -136 59 -71 197 -98 410 -82 220 17 338 49 365 99 30 57 -5
137 -98 223 -60 56 -172 130 -225 149 -23 8 -37 19 -35 28 2 8 55 44 119 80
177 101 201 118 197 144 -5 33 -46 32 -92 -3z m-131 -82 c-27 -17 -76 -49
-108 -70 -48 -33 -62 -38 -90 -33 -41 9 -87 33 -87 45 0 5 24 16 53 25 47 14
247 61 272 64 6 0 -12 -13 -40 -31z m-74 -228 c91 -54 209 -149 242 -197 39
-56 36 -77 -14 -97 -98 -39 -385 -60 -498 -35 -63 13 -115 47 -119 78 -3 18
13 40 70 95 93 92 219 196 236 196 8 0 45 -18 83 -40z"/>
<path d="M11195 15829 c-4 -6 -8 -52 -10 -102 -2 -51 -8 -141 -13 -202 -13
-135 -9 -157 35 -195 64 -57 176 -35 262 52 69 70 181 317 181 400 0 42 -15
34 -35 -19 -10 -27 -44 -102 -75 -168 -59 -122 -98 -173 -173 -223 -34 -23
-41 -24 -77 -13 -22 6 -44 20 -50 31 -14 27 -12 128 5 259 14 110 13 153 -8
179 -12 15 -34 16 -42 1z"/>
<path d="M29237 15812 c-16 -17 -27 -39 -27 -56 0 -16 -9 -67 -19 -115 -32
-143 -46 -279 -43 -406 3 -127 7 -139 52 -128 48 11 50 20 39 123 -13 113 -8
162 31 323 40 170 52 245 39 268 -14 27 -41 23 -72 -9z"/>
<path d="M15275 15770 c-95 -31 -187 -107 -256 -212 -32 -49 -61 -105 -65
-124 -17 -89 21 -169 96 -207 91 -45 327 -21 420 43 14 10 35 20 47 24 32 10
110 103 129 153 14 36 15 50 5 89 -17 67 -62 127 -111 149 l-42 19 23 17 c74
56 -109 93 -246 49z m85 -49 c0 -16 6 -18 43 -14 36 4 49 0 91 -29 66 -46 105
-102 112 -163 5 -47 3 -54 -36 -107 -68 -95 -179 -145 -340 -155 -89 -5 -99
-4 -146 20 -60 30 -84 63 -84 112 0 103 155 284 288 336 60 23 72 23 72 0z"/>
<path d="M16705 15728 c-45 -16 -95 -57 -95 -77 0 -18 110 -100 153 -114 38
-14 30 -37 -35 -100 -81 -77 -102 -116 -95 -171 14 -99 124 -127 325 -84 64
14 92 44 92 97 0 73 -71 149 -245 262 -22 14 -59 45 -82 69 -36 35 -41 45 -32
62 6 10 30 28 55 38 24 11 44 22 44 25 0 8 -53 4 -85 -7z m216 -330 c56 -58
69 -78 69 -104 0 -50 -36 -67 -145 -71 -119 -5 -166 20 -152 79 7 27 132 168
149 168 6 0 41 -32 79 -72z"/>
<path d="M17457 15723 c-4 -3 -7 -27 -7 -52 0 -30 -20 -103 -56 -206 -78 -227
-115 -425 -79 -425 8 0 17 10 19 23 29 137 44 187 87 304 87 236 108 363 60
363 -10 0 -21 -3 -24 -7z"/>
<path d="M17034 15661 c-101 -53 -174 -109 -174 -132 0 -27 16 -24 74 15 28
19 80 48 116 65 96 47 95 47 95 67 0 31 -35 26 -111 -15z"/>
<path d="M24830 15657 c-75 -14 -90 -21 -90 -46 0 -37 21 -41 120 -25 79 13
113 14 205 5 61 -7 126 -16 145 -21 70 -18 274 -51 287 -46 19 8 16 24 -8 37
-32 17 -179 55 -299 78 -137 26 -278 33 -360 18z"/>
<path d="M15847 15603 c-26 -26 37 -161 118 -250 30 -34 55 -66 55 -71 0 -5
-11 -13 -24 -16 -13 -3 -52 -23 -87 -45 -55 -33 -64 -42 -64 -67 0 -52 35 -43
129 30 47 36 90 66 96 66 7 0 24 -8 38 -19 51 -35 111 -61 117 -50 9 14 -13
38 -51 54 -18 7 -37 22 -43 33 -9 17 -2 26 61 73 89 68 149 111 216 154 50 33
72 65 35 50 -37 -14 -228 -131 -256 -157 -16 -16 -31 -28 -33 -28 -3 0 -18
-10 -34 -22 -25 -18 -33 -20 -52 -9 -37 20 -136 158 -159 222 -20 56 -41 73
-62 52z"/>
<path d="M24503 15469 c-39 -39 4 -67 139 -90 204 -34 596 -80 660 -77 55 3
63 5 63 23 0 22 -25 28 -195 45 -184 19 -494 71 -635 106 -11 3 -26 0 -32 -7z"/>
<path d="M14571 15261 c-6 -11 -11 -29 -11 -40 0 -44 -33 -140 -86 -254 -57
-121 -83 -219 -51 -187 8 8 26 35 40 60 13 25 40 74 59 110 60 111 110 279 92
308 -16 24 -31 25 -43 3z"/>
<path d="M1386 15154 c-11 -11 -16 -34 -16 -76 0 -33 -5 -88 -10 -122 -46
-271 -78 -520 -80 -619 0 -17 -20 6 -73 87 -31 46 -68 93 -83 105 -86 68 -268
115 -361 93 -93 -21 -159 -58 -202 -112 -114 -144 -68 -296 125 -416 260 -162
508 -185 719 -67 49 27 60 39 46 47 -5 4 -43 -9 -83 -27 -41 -19 -103 -40
-140 -47 -59 -12 -75 -11 -179 10 -265 53 -488 214 -489 353 0 72 54 144 140
185 46 22 69 26 140 26 118 0 195 -32 280 -117 71 -73 100 -128 134 -256 25
-95 38 -116 64 -102 11 7 15 44 17 182 3 174 15 274 85 668 22 128 25 173 10
202 -13 23 -24 24 -44 3z"/>
<path d="M1846 15065 c-57 -16 -71 -27 -62 -50 7 -19 17 -18 156 4 100 17 347
2 385 -23 42 -28 33 -57 -43 -133 -37 -37 -91 -84 -119 -103 -63 -42 -76 -65
-58 -106 18 -43 83 -94 197 -153 53 -28 112 -60 130 -71 18 -11 39 -20 46 -20
20 0 139 -93 151 -118 26 -54 7 -105 -65 -175 -74 -73 -226 -146 -362 -175
-75 -15 -85 -15 -110 -1 -15 8 -33 27 -40 42 -15 32 -27 34 -41 9 -26 -48 33
-102 110 -102 219 0 508 140 569 276 31 67 27 116 -13 156 -39 38 -161 118
-182 118 -8 0 -16 4 -19 9 -4 5 -43 28 -89 52 -45 23 -100 54 -123 70 -50 34
-106 97 -101 112 2 6 51 48 110 92 80 60 111 91 127 122 25 53 26 95 2 116
-59 53 -426 87 -556 52z"/>
<path d="M3245 14955 c-33 -8 -81 -23 -107 -35 -48 -21 -168 -123 -168 -142 0
-6 14 4 32 21 17 17 38 31 45 31 7 0 37 13 66 29 50 28 75 36 183 61 84 18
222 -1 317 -44 217 -99 314 -332 212 -511 -33 -58 -102 -133 -149 -163 -58
-36 -157 -84 -163 -79 -2 3 -19 1 -36 -4 -241 -71 -498 26 -554 208 -23 77
-22 157 5 208 31 60 119 140 185 170 64 28 80 51 52 71 -32 23 -33 23 -144
-63 -26 -19 -49 -29 -61 -26 -15 4 -21 -1 -26 -23 -4 -15 -20 -46 -35 -69
-104 -154 -29 -391 153 -483 97 -50 222 -64 365 -41 70 10 84 15 198 71 139
68 219 136 265 228 61 120 56 243 -12 343 -65 95 -131 153 -237 205 l-94 47
-116 2 c-68 1 -141 -4 -176 -12z"/>
<path d="M4685 14879 c-16 -5 -48 -10 -70 -10 -22 -1 -60 -11 -85 -24 -25 -13
-74 -35 -109 -49 -140 -56 -303 -201 -372 -329 -30 -56 -33 -70 -34 -147 0
-73 4 -93 28 -142 42 -86 78 -108 242 -150 64 -16 269 -3 340 22 33 12 78 26
100 31 22 6 47 16 55 23 8 7 41 25 72 39 65 29 135 90 179 155 65 97 104 262
79 338 -19 56 -81 134 -137 171 -86 56 -226 92 -288 72z m173 -71 c74 -27 150
-90 174 -145 35 -79 23 -229 -25 -312 -34 -59 -107 -145 -136 -160 -14 -7 -38
-24 -52 -38 -15 -14 -36 -23 -46 -21 -21 3 -65 -16 -95 -40 -10 -8 -26 -12
-35 -10 -10 3 -52 -1 -93 -8 -100 -18 -174 -17 -261 1 -147 31 -221 114 -220
249 0 49 7 74 36 131 34 68 135 185 160 185 6 0 20 9 30 20 30 33 198 108 277
123 40 8 89 13 110 10 31 -4 39 -1 53 21 19 29 29 28 123 -6z"/>
<path d="M13260 14701 c-32 -4 -53 -10 -50 -16 3 -5 16 -9 30 -8 99 9 175 -15
206 -62 14 -21 14 -27 0 -54 -21 -40 -69 -71 -261 -173 -88 -47 -203 -107
-255 -135 -52 -27 -101 -48 -107 -46 -8 3 -13 -4 -13 -19 0 -30 78 -96 163
-139 70 -36 195 -81 297 -108 96 -25 121 -34 195 -65 68 -29 127 -33 145 -11
21 25 4 45 -37 45 -21 0 -83 14 -138 31 -55 17 -129 40 -165 51 -210 63 -370
138 -370 172 0 25 57 60 275 166 228 111 292 152 326 206 19 31 20 38 8 66 -7
16 -24 41 -38 54 -26 24 -110 56 -140 52 -9 -1 -41 -4 -71 -7z"/>
<path d="M9391 14601 c-6 -11 -11 -28 -11 -38 0 -45 -59 -194 -149 -378 -128
-260 -128 -258 -107 -290 9 -14 35 -35 59 -47 37 -20 55 -23 153 -21 151 2
286 29 399 79 l30 13 -27 0 c-15 1 -39 -4 -54 -9 -35 -14 -263 -40 -339 -40
-33 1 -82 9 -110 18 -50 17 -50 17 -47 57 2 25 40 115 107 250 148 299 183
415 128 423 -14 2 -26 -4 -32 -17z"/>
<path d="M11995 14610 c-3 -5 -20 -16 -38 -25 -18 -8 -41 -29 -51 -47 -10 -17
-26 -38 -35 -47 -23 -24 -51 -68 -51 -82 0 -7 -7 -20 -15 -29 -18 -20 -44 -87
-81 -205 -13 -44 -29 -93 -34 -110 -15 -46 -34 -200 -27 -219 4 -9 16 -16 27
-16 13 0 24 -10 30 -25 5 -14 25 -33 44 -42 30 -14 41 -15 78 -4 101 30 279
171 355 281 82 121 110 248 79 364 -24 89 -93 182 -154 207 -31 12 -119 12
-127 -1z m113 -34 c43 -23 79 -66 107 -131 24 -53 26 -68 20 -128 -15 -154
-80 -267 -229 -395 -52 -45 -173 -112 -202 -112 -9 0 -29 8 -45 17 -27 16 -29
21 -29 78 1 33 5 78 9 100 5 22 16 74 24 115 23 113 74 260 107 307 17 23 30
46 30 52 0 7 7 14 15 17 8 4 15 12 15 20 0 7 10 19 23 25 12 7 28 20 35 31 16
22 81 24 120 4z"/>
<path d="M12926 14520 c-67 -72 -56 -85 14 -15 33 33 60 61 60 62 0 2 -6 3
-14 3 -7 0 -34 -22 -60 -50z"/>
<path d="M11155 14505 c-14 -13 -25 -30 -25 -36 0 -7 -10 -24 -22 -37 l-23
-25 30 18 c17 11 38 26 48 34 17 14 20 14 33 -4 9 -11 27 -59 42 -107 27 -88
37 -100 70 -79 11 7 9 21 -12 72 -13 35 -28 78 -32 94 -9 38 -52 95 -71 95 -7
0 -25 -11 -38 -25z"/>
<path d="M26016 14509 c-252 -57 -439 -214 -481 -402 -39 -181 -13 -566 61
-880 17 -69 37 -93 68 -81 24 9 28 39 12 78 -8 19 -24 81 -35 138 -44 224 -54
320 -55 518 0 216 9 260 73 353 106 155 338 246 596 234 163 -7 268 -40 338
-108 44 -42 48 -49 37 -69 -39 -73 -283 -155 -700 -234 -256 -49 -248 -47
-261 -62 -17 -21 16 -88 61 -124 43 -34 490 -260 514 -260 3 0 46 -20 98 -44
136 -64 217 -91 230 -78 28 28 5 43 -272 167 -167 75 -493 242 -517 265 -13
11 -23 25 -23 30 0 11 -2 11 220 50 388 69 575 125 673 203 75 58 70 113 -17
195 -100 95 -184 122 -386 127 -119 3 -161 0 -234 -16z"/>
<path d="M13773 14513 c-15 -3 -23 -12 -23 -24 0 -10 1 -19 3 -20 1 0 99 -3
217 -5 272 -7 345 -24 324 -78 -9 -24 -88 -80 -169 -121 -105 -54 -155 -98
-155 -137 0 -65 54 -105 360 -270 159 -86 210 -122 210 -150 0 -58 -153 -119
-314 -124 -54 -1 -103 -7 -108 -12 -5 -5 0 -16 12 -27 17 -15 35 -19 93 -18
223 5 417 106 376 197 -18 38 -129 111 -376 244 -134 72 -193 116 -193 145 0
39 71 94 213 165 65 33 117 83 117 114 0 43 -39 68 -131 83 -136 22 -417 45
-456 38z"/>
<path d="M22661 14449 c-140 -24 -343 -114 -471 -210 -191 -144 -270 -307
-257 -527 7 -109 10 -121 96 -351 75 -200 76 -201 106 -201 31 0 41 30 22 67
-16 31 -111 281 -134 353 -21 65 -29 268 -13 327 27 102 118 221 234 308 67
51 203 117 306 150 103 33 287 45 379 25 57 -13 125 -42 135 -59 20 -32 -69
-91 -254 -170 -69 -30 -198 -89 -286 -133 -191 -94 -254 -144 -254 -205 0 -81
69 -168 175 -221 33 -17 112 -46 175 -66 421 -128 492 -153 554 -201 63 -48
103 -10 49 47 -43 45 -103 72 -304 133 -428 132 -454 141 -510 186 -20 16 -44
47 -53 70 -15 37 -15 42 0 67 9 15 28 37 43 48 41 33 251 136 406 199 181 73
268 119 305 162 37 41 38 62 4 103 -72 85 -272 129 -453 99z"/>
<path d="M23536 14429 c-88 -12 -120 -27 -124 -60 -5 -44 19 -54 80 -32 45 15
83 18 248 17 201 0 362 -18 467 -50 76 -24 83 -37 43 -79 -37 -38 -108 -75
-320 -165 -140 -59 -200 -99 -200 -134 0 -7 10 -28 23 -47 17 -27 59 -53 195
-123 195 -99 292 -174 292 -226 0 -34 -79 -120 -160 -173 -72 -47 -183 -89
-229 -85 -33 3 -36 6 -42 41 -8 53 -23 64 -43 36 -26 -37 -21 -101 10 -130 67
-63 284 2 423 127 136 122 145 198 38 305 -72 72 -133 110 -339 209 -49 23
-88 46 -88 51 0 11 69 46 185 94 210 86 343 170 358 224 6 26 -20 78 -52 100
-61 44 -246 82 -485 101 -146 11 -182 11 -280 -1z"/>
<path d="M10533 14409 c-54 -10 -113 -38 -120 -56 -9 -24 2 -24 53 -1 73 33
213 32 271 -1 85 -49 86 -128 4 -198 -8 -7 -12 -16 -9 -19 25 -24 117 74 125
134 5 34 1 41 -40 79 -69 63 -168 85 -284 62z"/>
<path d="M29110 14379 c-48 -6 -79 -14 -86 -24 -8 -11 -10 -56 -6 -143 7 -178
-11 -242 -134 -489 -89 -177 -97 -199 -102 -263 -4 -63 -2 -73 17 -94 38 -40
85 -44 402 -37 311 6 329 9 329 52 0 11 -3 20 -7 20 -5 1 -150 3 -323 4 -173
1 -325 5 -337 9 -39 13 -28 56 53 212 149 288 178 380 172 559 l-3 110 30 6
c66 14 327 9 394 -7 67 -17 174 -65 186 -84 9 -14 41 -12 54 4 15 18 -3 60
-35 81 -36 23 -152 65 -227 81 -75 15 -255 17 -377 3z"/>
<path d="M10239 14310 c-81 -24 -111 -80 -84 -159 25 -78 77 -112 186 -125 44
-6 58 -4 68 8 15 18 13 20 -63 36 -68 15 -101 34 -125 73 -27 45 -26 62 4 93
23 23 33 25 83 22 49 -3 57 -1 60 16 8 39 -59 58 -129 36z"/>
<path d="M11030 14305 c-16 -19 -3 -40 16 -24 15 13 19 39 5 39 -5 0 -14 -7
-21 -15z"/>
<path d="M11475 14303 c-46 -10 -49 -16 -15 -24 38 -9 110 5 110 21 0 10 -57
12 -95 3z"/>
<path d="M27243 14227 c-34 -45 -94 -125 -133 -177 -164 -221 -195 -256 -263
-294 -66 -36 -83 -58 -71 -90 4 -10 -8 -35 -33 -69 -85 -113 -104 -169 -64
-182 32 -10 49 5 87 73 20 37 70 108 110 159 74 91 76 92 152 117 79 26 276
66 324 66 31 0 36 -14 63 -170 28 -168 72 -306 101 -317 9 -3 23 2 32 11 15
15 14 23 -16 109 -18 50 -44 153 -57 227 -26 144 -25 153 25 143 32 -6 58 18
38 34 -7 6 -32 13 -56 16 -24 3 -46 8 -49 11 -9 9 -32 134 -48 258 -15 123
-29 158 -64 158 -9 0 -44 -37 -78 -83z m71 -74 c3 -32 15 -102 27 -156 11 -53
18 -101 15 -106 -3 -4 -44 -11 -92 -15 -47 -3 -118 -13 -156 -22 -38 -9 -72
-14 -74 -11 -7 7 255 366 268 367 4 0 9 -26 12 -57z"/>
<path d="M31376 14298 c-19 -11 -22 -63 -3 -75 6 -4 50 -20 97 -35 47 -14 152
-49 233 -77 82 -28 186 -58 230 -67 45 -10 85 -20 89 -23 4 -4 -13 -35 -38
-71 -87 -124 -154 -278 -180 -416 -21 -112 -14 -276 15 -388 11 -43 18 -82 15
-87 -3 -5 -58 -9 -122 -9 -142 -1 -251 -19 -319 -53 -54 -28 -72 -53 -51 -74
11 -10 25 -9 78 7 98 29 183 40 313 40 174 0 208 25 169 126 -36 91 -55 219
-50 334 6 129 44 250 120 385 70 123 93 152 147 178 31 16 47 31 49 46 6 36
-15 50 -71 50 -104 -1 -300 55 -558 159 -105 43 -151 57 -163 50z"/>
<path d="M12805 14257 c-4 -10 -5 -21 -1 -24 10 -10 18 4 13 24 -4 17 -4 17
-12 0z"/>
<path d="M29961 14260 c-45 -11 -110 -58 -138 -99 -58 -86 -118 -386 -127
-639 -3 -78 -8 -152 -11 -165 -12 -52 41 -61 63 -11 8 15 12 85 12 183 0 170
20 322 64 479 44 156 92 197 225 191 100 -5 187 -46 269 -129 69 -68 91 -112
71 -136 -38 -47 -133 -74 -354 -104 -75 -10 -150 -26 -177 -38 -61 -27 -78
-72 -59 -158 23 -102 85 -152 267 -212 139 -47 203 -57 229 -38 33 24 10 42
-89 69 -113 32 -262 94 -304 128 -55 44 -68 103 -30 139 12 11 27 20 33 20 6
0 84 9 173 20 175 22 264 46 327 89 34 23 40 33 43 67 2 24 -5 59 -16 85 -22
51 -102 143 -161 183 -83 58 -234 95 -310 76z"/>
<path d="M11015 14242 c-5 -4 -14 -14 -20 -23 -5 -9 -38 -58 -72 -109 -67 -98
-72 -110 -48 -130 29 -24 52 -2 76 73 23 69 25 72 55 72 17 0 46 11 65 25 19
14 46 31 62 38 27 12 38 42 14 42 -7 0 -29 -9 -50 -20 -20 -11 -47 -20 -58
-20 -19 0 -21 4 -15 30 6 33 6 33 -9 22z"/>
<path d="M11297 14233 c-14 -13 -6 -66 23 -166 17 -56 32 -128 34 -159 3 -66
9 -76 32 -57 19 16 14 79 -18 229 -29 135 -48 177 -71 153z"/>
<path d="M28209 14218 c-18 -15 -68 -92 -123 -188 -21 -36 -60 -101 -87 -145
-27 -44 -104 -188 -171 -320 -66 -132 -132 -256 -144 -275 -27 -39 -30 -60
-12 -78 40 -40 71 0 173 223 156 341 306 629 320 613 1 -1 -10 -66 -27 -143
-16 -77 -30 -177 -31 -223 -2 -96 8 -112 74 -112 84 0 222 149 337 365 45 83
121 180 134 167 6 -6 6 -43 -1 -105 -17 -152 -14 -474 5 -529 17 -52 54 -91
80 -86 27 5 29 37 5 55 -38 26 -51 66 -51 160 0 77 6 156 36 463 7 76 -5 115
-40 131 -45 21 -95 -34 -268 -294 -102 -155 -220 -269 -248 -241 -9 9 42 282
80 424 24 91 25 114 4 134 -19 19 -26 20 -45 4z"/>
<path d="M30646 14180 c-32 -10 -66 -38 -66 -55 0 -6 6 -19 13 -29 13 -18 15
-18 48 0 29 16 57 18 204 17 94 0 181 -5 195 -11 28 -11 30 -10 -60 -37 -70
-22 -149 -61 -177 -87 -48 -44 -37 -141 21 -206 19 -20 71 -59 117 -86 46 -27
125 -72 174 -101 50 -29 119 -80 155 -113 75 -70 75 -80 -6 -124 -58 -32 -141
-52 -324 -78 -183 -27 -259 -26 -294 1 -22 17 -29 19 -42 8 -22 -18 -13 -59
19 -83 26 -19 41 -21 145 -20 170 2 436 50 522 94 59 30 100 84 100 130 0 79
-115 184 -341 310 -239 133 -271 188 -149 250 36 18 102 38 172 51 151 29 189
41 202 62 30 47 -37 65 -379 102 -154 17 -206 18 -249 5z"/>
<path d="M10686 14105 c-3 -8 -2 -15 3 -15 5 0 14 7 21 15 10 12 10 15 -3 15
-8 0 -17 -7 -21 -15z"/>
<path d="M12803 14083 c-4 -10 6 -65 21 -123 16 -58 35 -143 43 -190 14 -85
25 -110 48 -110 32 0 36 27 15 106 -35 132 -103 334 -112 334 -5 0 -12 -8 -15
-17z"/>
<path d="M10531 14051 c-8 -5 -9 -11 -3 -15 13 -8 42 3 42 15 0 11 -21 11 -39
0z"/>
<path d="M10478 14033 c7 -3 16 -2 19 1 4 3 -2 6 -13 5 -11 0 -14 -3 -6 -6z"/>
<path d="M24770 14015 c-8 -2 -69 -9 -135 -15 -66 -7 -126 -17 -132 -22 -18
-15 -16 -67 2 -74 8 -4 54 2 103 12 71 14 159 19 481 23 278 4 395 9 398 17 5
15 -60 31 -173 43 -92 10 -517 23 -544 16z"/>
<path d="M24437 13775 c-34 -33 -16 -64 44 -76 51 -10 681 -10 754 -1 42 6 51
11 53 29 2 16 -3 24 -20 28 -13 3 -189 9 -393 15 -203 5 -382 12 -396 15 -17
5 -31 1 -42 -10z"/>
<path d="M6886 10452 c-3 -6 -1 -14 5 -17 15 -10 25 3 12 16 -7 7 -13 7 -17 1z"/>
<path d="M6880 10380 c0 -11 7 -20 15 -20 8 0 15 9 15 20 0 11 -7 20 -15 20
-8 0 -15 -9 -15 -20z"/>
<path d="M7498 10382 c-18 -22 -20 -233 -2 -239 19 -6 26 26 30 139 5 108 -2
132 -28 100z"/>
<path d="M7480 9751 c0 -6 5 -13 10 -16 6 -3 10 1 10 9 0 9 -4 16 -10 16 -5 0
-10 -4 -10 -9z"/>
<path d="M6884 9619 c-3 -6 1 -18 10 -27 15 -15 17 -15 32 0 19 19 11 38 -16
38 -10 0 -22 -5 -26 -11z"/>
<path d="M6890 9190 c0 -5 7 -10 15 -10 8 0 15 5 15 10 0 6 -7 10 -15 10 -8 0
-15 -4 -15 -10z"/>
<path d="M7140 9040 c0 -18 4 -29 10 -25 6 3 10 15 10 25 0 10 -4 22 -10 25
-6 4 -10 -7 -10 -25z"/>
<path d="M7117 8972 c-26 -29 -16 -82 15 -82 15 0 29 42 23 71 -8 34 -16 36
-38 11z"/>
<path d="M4 5954 c8 -124 8 -112 2 -384 l-5 -245 19 100 c11 55 24 127 30 160
6 33 19 96 29 140 34 146 45 226 35 243 -6 8 -34 29 -63 45 l-53 30 6 -89z"/>
</g>
</svg>
