<?xml version="1.0" standalone="no"?>
<!DOCTYPE svg PUBLIC "-//W3C//DTD SVG 20010904//EN"
 "http://www.w3.org/TR/2001/REC-SVG-20010904/DTD/svg10.dtd">
<svg version="1.0" xmlns="http://www.w3.org/2000/svg"
 width="2448.000000pt" height="3264.000000pt" viewBox="0 0 2448.000000 3264.000000"
 preserveAspectRatio="xMidYMid meet">
<metadata>
Created by potrace 1.12, written by Peter Selinger 2001-2015
</metadata>
<g transform="translate(0.000000,3264.000000) scale(0.100000,-0.100000)"
fill="#000000" stroke="none">
<path d="M16364 31246 c-42 -19 -104 -75 -163 -150 -43 -55 -203 -312 -245
-393 -33 -64 -9 -117 35 -77 11 10 77 104 146 208 70 105 142 210 162 234 40
48 111 96 158 106 41 9 49 33 22 63 -26 26 -67 30 -115 9z"/>
<path d="M16730 31224 c-6 -14 -10 -33 -10 -43 0 -34 -102 -297 -182 -471
-111 -239 -147 -370 -103 -370 19 0 49 52 151 265 219 458 263 584 219 628
-26 26 -64 22 -75 -9z"/>
<path d="M6841 31159 c-18 -7 -22 -15 -18 -32 56 -233 166 -644 191 -717 54
-152 110 -260 160 -309 29 -28 50 -42 60 -38 23 9 20 29 -11 73 -14 21 -45 84
-69 139 -60 139 -100 281 -180 638 -47 211 -54 231 -84 247 -22 12 -18 12 -49
-1z"/>
<path d="M6466 30874 c-32 -32 -12 -237 35 -357 27 -68 145 -281 177 -319 49
-58 114 -68 151 -24 7 9 16 45 19 81 4 54 2 65 -10 65 -9 0 -25 -21 -37 -50
-36 -84 -50 -72 -147 128 -31 62 -64 139 -75 170 -20 58 -44 245 -34 261 3 5
1 21 -5 35 -11 30 -49 35 -74 10z"/>
<path d="M7887 30833 c-8 -10 -22 -45 -31 -78 -30 -118 -40 -249 -41 -528 0
-314 9 -284 -85 -289 -37 -3 -46 -7 -48 -25 -5 -32 33 -53 95 -53 l53 0 1 -57
c0 -32 4 -128 8 -213 8 -185 -2 -350 -26 -427 -17 -53 -17 -56 1 -68 10 -8 24
-11 31 -9 16 7 42 66 55 128 13 59 20 471 10 564 -4 39 -3 72 2 79 10 13 22
14 203 34 139 14 211 32 302 74 96 44 143 81 143 111 0 37 -33 31 -151 -26
-121 -57 -228 -80 -397 -83 l-107 -2 0 250 c1 264 14 407 46 510 24 76 24 102
0 115 -28 14 -46 12 -64 -7z"/>
<path d="M12773 30742 c-34 -22 -76 -211 -93 -427 -32 -391 -68 -678 -101
-802 -10 -40 -16 -79 -13 -87 7 -17 32 -29 46 -20 37 23 101 347 138 699 32
302 57 457 86 530 25 62 25 67 10 90 -16 25 -49 32 -73 17z"/>
<path d="M15202 30707 c-36 -43 -111 -791 -112 -1103 0 -168 29 -280 80 -312
45 -28 93 25 53 58 -49 40 -58 75 -57 230 1 80 9 215 18 300 8 85 22 225 31
310 19 186 39 322 62 412 15 62 15 68 -1 92 -18 28 -56 35 -74 13z"/>
<path d="M8822 30664 c-32 -22 -39 -40 -68 -176 -71 -338 -89 -542 -74 -858
12 -239 19 -289 51 -321 41 -41 80 -7 51 46 -15 26 -17 66 -16 300 0 149 6
326 13 395 15 148 61 386 96 499 27 84 25 111 -11 125 -20 8 -16 9 -42 -10z"/>
<path d="M10636 30645 c-3 -9 -1 -60 5 -113 6 -56 9 -243 7 -441 l-3 -344 27
-20 c23 -17 31 -18 56 -8 30 13 144 147 204 241 45 71 63 86 82 70 21 -17 59
-139 106 -335 22 -93 45 -187 50 -207 20 -72 90 -126 107 -82 3 8 -4 34 -15
57 -11 23 -28 85 -37 137 -29 165 -76 343 -109 416 -36 77 -73 112 -131 121
-31 5 -39 1 -70 -32 -20 -20 -43 -51 -51 -68 -30 -57 -115 -167 -130 -167 -15
0 -14 32 2 138 3 18 5 161 5 318 0 323 -2 334 -65 334 -21 0 -36 -6 -40 -15z"/>
<path d="M9308 30609 c-26 -15 -22 -42 12 -74 25 -24 34 -27 48 -19 27 17 39
61 21 78 -20 19 -61 27 -81 15z"/>
<path d="M9984 30501 c-70 -51 -180 -164 -243 -250 -97 -132 -181 -327 -181
-420 0 -47 24 -103 57 -131 67 -59 128 -30 214 100 30 47 74 125 96 174 22 50
44 91 50 93 19 7 21 -65 12 -512 -11 -614 -22 -765 -54 -765 -6 0 -23 17 -36
37 -32 50 -59 56 -59 13 0 -41 32 -101 70 -134 38 -32 41 -32 68 -3 31 32 48
90 66 214 30 213 53 1047 32 1197 -9 66 -41 106 -84 106 -33 0 -82 -54 -106
-116 -32 -81 -136 -267 -169 -301 -37 -40 -54 -42 -63 -8 -25 102 104 363 252
507 71 70 169 148 185 148 13 0 11 54 -3 68 -20 20 -63 13 -104 -17z"/>
<path d="M13154 30256 c-84 -39 -145 -124 -195 -271 -21 -62 -24 -88 -24 -225
0 -150 1 -157 28 -212 70 -143 182 -138 374 13 77 62 125 116 121 137 -7 36
-46 23 -153 -52 -229 -160 -285 -145 -285 79 0 131 18 221 58 302 44 86 99
137 171 157 55 15 62 15 100 0 23 -9 41 -22 41 -29 0 -42 -137 -175 -208 -201
-103 -38 -112 -43 -112 -63 0 -11 12 -29 27 -41 34 -26 74 -21 148 18 64 35
181 145 206 195 26 50 28 107 5 141 -47 72 -202 99 -302 52z"/>
<path d="M9287 30252 c-16 -17 -16 -29 0 -168 11 -95 18 -225 18 -356 0 -211
4 -235 38 -222 20 7 22 15 43 134 13 75 15 124 9 230 -19 354 -19 357 -39 379
-24 26 -48 27 -69 3z"/>
<path d="M23642 30248 c-6 -13 -18 -48 -28 -78 -32 -105 -248 -520 -269 -520
-8 0 -17 5 -21 11 -12 21 -95 51 -139 51 -96 0 -138 -61 -117 -167 15 -75 35
-115 80 -157 79 -77 228 -96 402 -53 160 40 151 39 193 11 57 -39 125 -65 197
-75 79 -11 359 2 389 18 25 14 28 47 4 60 -10 5 -112 11 -228 13 -213 5 -290
18 -290 48 0 7 18 18 40 25 137 41 245 106 275 165 24 47 26 129 6 169 -33 62
-119 119 -195 128 -203 24 -374 -218 -296 -419 8 -19 -14 -27 -160 -54 -199
-37 -340 14 -340 123 0 57 23 77 80 69 44 -5 85 -43 85 -77 0 -33 28 -89 44
-89 10 0 21 18 30 48 14 50 63 151 101 212 69 109 233 435 242 480 12 62 -59
110 -85 58z m341 -451 c18 -8 47 -26 65 -41 72 -61 23 -121 -169 -209 -69 -31
-136 -57 -149 -57 -22 0 -23 2 -17 69 10 121 80 222 164 236 21 4 43 8 48 10
18 6 25 5 58 -8z"/>
<path d="M14501 30203 c-51 -18 -169 -125 -204 -186 -74 -127 -133 -399 -108
-494 6 -21 26 -54 45 -72 28 -27 41 -33 79 -33 69 0 137 42 254 158 80 78 103
106 103 127 0 47 -35 32 -158 -67 -156 -125 -202 -147 -232 -111 -21 26 18
271 45 281 7 3 29 -2 50 -10 70 -30 154 -13 250 49 159 102 195 211 105 309
-60 65 -138 81 -229 49z m175 -106 c34 -30 28 -50 -34 -111 -78 -77 -191 -123
-257 -105 -45 13 -45 30 0 96 81 121 222 179 291 120z"/>
<path d="M14086 30127 c-11 -8 -35 -83 -65 -202 -27 -105 -57 -208 -66 -230
-36 -82 -151 -230 -193 -246 -56 -21 -66 34 -50 294 9 150 9 180 -3 191 -22
22 -54 27 -73 13 -15 -11 -17 -36 -19 -222 -2 -242 7 -296 58 -350 42 -45 86
-47 141 -7 83 61 183 198 223 307 30 79 103 413 96 436 -8 23 -29 30 -49 16z"/>
<path d="M17813 29965 c-292 -98 -363 -207 -248 -382 48 -73 135 -130 303
-199 154 -63 162 -71 106 -109 -84 -56 -403 -124 -468 -99 -9 3 -16 17 -16 29
0 30 -43 65 -71 58 -27 -7 -43 -44 -35 -78 4 -14 22 -43 41 -63 33 -36 35 -37
117 -40 196 -8 494 88 556 179 52 77 -8 137 -220 218 -146 56 -198 87 -238
142 -53 74 -48 138 16 188 36 28 183 98 238 113 53 14 92 41 82 57 -11 18 -85
12 -163 -14z"/>
<path d="M20220 29949 c-137 -38 -306 -145 -383 -244 -50 -65 -75 -125 -126
-299 -28 -98 -46 -142 -60 -153 -28 -19 -28 -81 0 -117 42 -53 74 -27 108 90
11 38 34 118 51 178 18 60 42 133 55 163 50 112 210 242 356 288 88 28 129 32
129 12 0 -6 -32 -48 -71 -91 -101 -112 -173 -230 -205 -335 -28 -94 -14 -150
60 -221 52 -50 97 -61 196 -48 55 7 346 101 469 152 76 31 91 32 134 9 41 -23
251 -24 311 -2 55 20 68 45 37 70 -21 17 -32 19 -85 12 -86 -11 -189 -10 -193
2 -2 6 28 36 65 67 85 70 107 110 99 185 -10 96 -57 140 -144 136 -86 -4 -191
-72 -227 -147 -20 -43 -21 -126 -1 -173 8 -19 15 -41 15 -48 0 -7 -98 -45
-231 -90 -194 -66 -241 -78 -297 -78 -91 -1 -132 20 -132 69 0 93 84 249 214
395 97 109 111 136 94 174 -22 48 -140 70 -238 44z m864 -255 c20 -20 20 -27
-4 -73 -34 -67 -170 -171 -206 -157 -20 8 -18 89 2 133 20 40 68 80 121 99 50
17 68 17 87 -2z"/>
<path d="M18409 29918 c-11 -13 -36 -53 -55 -89 -29 -58 -43 -73 -103 -114
-75 -49 -115 -94 -109 -122 2 -9 22 -26 45 -37 38 -18 41 -23 35 -46 -15 -52
-7 -135 17 -173 63 -103 198 -118 372 -43 139 60 236 145 267 235 26 75 3 185
-48 238 -70 72 -210 104 -308 70 -49 -17 -60 -8 -36 28 37 57 -29 103 -77 53z
m318 -167 c52 -24 75 -58 75 -115 2 -69 -40 -130 -132 -192 -124 -83 -304
-125 -348 -81 -30 31 -21 117 25 237 45 118 49 121 163 152 87 23 165 22 217
-1z"/>
<path d="M22437 29900 c-62 -16 -180 -74 -220 -110 -50 -43 -151 -197 -166
-253 -23 -81 24 -177 104 -214 64 -29 203 -23 280 12 l59 27 19 -24 c41 -52
47 -58 74 -64 75 -19 311 76 392 159 55 55 61 126 17 196 -31 48 -64 75 -121
97 -24 9 -51 27 -60 41 -12 18 -24 23 -43 21 -34 -4 -41 -39 -17 -85 14 -26
30 -36 82 -54 70 -23 123 -61 123 -88 0 -36 -131 -124 -254 -170 -105 -39
-133 -15 -45 38 45 29 50 35 47 64 -3 29 -6 32 -41 35 -28 2 -47 -3 -70 -21
-76 -57 -271 -113 -365 -104 -111 11 -129 58 -64 162 88 143 145 192 266 231
79 25 101 26 179 8 26 -6 27 -4 27 30 0 27 -6 39 -26 53 -31 20 -122 26 -177
13z"/>
<path d="M19482 29818 c-5 -7 -22 -59 -36 -116 -47 -183 -90 -264 -200 -379
-62 -64 -77 -74 -102 -71 -24 2 -31 10 -42 43 -23 69 -35 205 -28 319 5 93 3
112 -11 128 -18 21 -53 24 -71 6 -18 -18 -16 -308 3 -398 19 -89 33 -117 86
-164 38 -35 45 -38 90 -34 26 3 59 12 73 22 37 23 148 157 189 225 80 134 138
407 91 425 -23 9 -30 8 -42 -6z"/>
<path d="M1785 27409 c-134 -22 -355 -120 -504 -222 -95 -65 -264 -231 -321
-316 -132 -197 -163 -372 -90 -510 97 -182 316 -281 590 -268 187 10 275 30
495 114 574 221 763 489 594 841 -47 98 -154 217 -244 271 -132 80 -353 118
-520 90z m143 -74 c86 -37 112 -84 112 -204 0 -66 4 -93 15 -104 18 -18 45
-12 75 15 19 18 20 26 14 91 -4 40 -15 99 -25 132 -10 32 -17 61 -15 63 9 8
62 -14 114 -47 189 -123 292 -295 292 -489 0 -142 -72 -241 -255 -352 -381
-229 -789 -319 -1055 -233 -116 37 -231 142 -265 242 -63 186 88 467 355 663
86 63 218 143 225 136 3 -2 -3 -23 -12 -46 -12 -33 -13 -45 -4 -56 19 -23 40
-8 70 53 16 31 37 64 48 73 43 39 126 63 261 77 7 0 29 -6 50 -14z"/>
<path d="M17133 27358 c-4 -7 -8 -60 -9 -118 -1 -80 -10 -145 -38 -275 -83
-388 -106 -598 -68 -644 9 -12 30 -23 47 -24 l30 -2 -3 90 c-4 94 19 249 79
547 16 81 34 180 39 220 11 92 0 186 -25 205 -23 16 -41 17 -52 1z"/>
<path d="M10478 27320 c-127 -22 -264 -88 -354 -172 -68 -64 -121 -154 -154
-261 -26 -82 -50 -242 -50 -328 0 -53 -4 -69 -20 -84 -25 -23 -26 -67 -1 -89
14 -13 19 -36 24 -115 5 -104 21 -154 49 -159 31 -6 38 30 29 145 -5 59 -6
113 -4 120 6 16 81 39 168 52 151 23 506 63 512 57 3 -3 -25 -38 -62 -77 -74
-79 -129 -181 -129 -239 -1 -67 68 -130 141 -130 77 0 184 91 257 218 26 45
51 80 55 77 4 -2 29 -42 56 -87 96 -168 149 -218 227 -218 40 0 84 31 75 53
-3 9 -23 19 -44 23 -60 11 -91 34 -135 104 -23 36 -51 81 -64 100 -12 19 -42
75 -66 123 -42 87 -43 89 -23 103 11 8 31 17 45 20 60 13 70 22 70 63 0 54
-18 66 -76 52 -25 -7 -72 -25 -103 -40 -81 -41 -140 -51 -386 -62 -198 -8
-314 -17 -457 -36 -58 -7 -58 -6 -27 130 60 266 119 374 254 467 121 83 339
130 380 83 8 -10 28 -33 43 -52 22 -26 33 -32 50 -27 30 10 28 35 -10 92 -53
79 -153 113 -270 94z m412 -857 c-15 -77 -79 -182 -153 -250 -65 -60 -157 -80
-157 -34 0 58 246 321 301 321 13 0 15 -7 9 -37z"/>
<path d="M6751 27272 c-20 -16 -27 -47 -23 -104 3 -40 25 -35 80 17 53 50 52
69 -6 92 -26 11 -33 10 -51 -5z"/>
<path d="M14680 27220 c-6 -11 -15 -55 -20 -98 -5 -42 -16 -126 -25 -187 -39
-284 -58 -524 -46 -583 9 -45 35 -82 58 -82 21 0 25 23 14 85 -8 40 -8 86 -1
149 17 146 59 395 82 476 23 84 28 203 10 238 -16 28 -57 29 -72 2z"/>
<path d="M8166 27208 c-19 -26 -22 -124 -6 -178 13 -43 50 -257 50 -287 0 -18
-14 -29 -62 -54 -145 -71 -190 -117 -169 -172 16 -41 53 -36 109 16 60 56 111
91 119 83 9 -9 4 -96 -8 -171 -7 -41 -7 -69 0 -88 11 -29 41 -36 60 -13 16 19
41 156 41 224 0 93 5 100 74 121 33 10 111 29 171 41 125 25 145 33 145 59 0
58 -98 59 -279 5 -46 -14 -89 -23 -97 -20 -10 4 -14 27 -14 90 0 122 -27 305
-49 336 -24 34 -64 38 -85 8z"/>
<path d="M12319 27153 c-85 -91 -122 -181 -142 -342 l-12 -96 -75 -40 c-91
-49 -120 -87 -120 -156 0 -41 4 -51 25 -65 34 -22 55 -12 55 27 0 23 9 40 36
65 35 34 74 45 74 22 0 -19 -28 -246 -35 -293 -5 -32 -3 -44 10 -55 15 -13 19
-12 36 8 23 29 36 94 49 252 7 69 16 130 21 136 5 6 31 17 57 24 26 6 90 25
142 41 125 37 184 47 178 28 -2 -8 -22 -16 -44 -19 -49 -6 -59 -39 -20 -65
l24 -16 -39 -77 c-27 -51 -42 -96 -46 -132 -5 -50 -3 -59 22 -88 38 -46 86
-44 152 5 114 84 133 191 52 295 -27 35 -29 40 -19 80 14 57 1 99 -35 117 -24
11 -40 11 -119 -4 -50 -9 -135 -28 -189 -42 -54 -14 -101 -23 -104 -20 -9 10
18 108 49 177 38 86 74 136 114 161 26 16 34 27 34 50 0 48 -16 69 -54 69 -27
0 -42 -9 -77 -47z m360 -624 c19 -54 13 -79 -25 -115 -45 -43 -74 -45 -74 -6
0 33 59 152 76 152 7 0 17 -14 23 -31z"/>
<path d="M13452 27148 c-26 -26 -14 -69 30 -110 23 -21 47 -37 52 -35 21 7 17
71 -7 112 -23 41 -53 55 -75 33z"/>
<path d="M6707 26889 c-45 -27 -172 -355 -191 -494 -4 -27 -2 -81 4 -120 23
-149 98 -240 236 -288 110 -38 181 -37 262 4 65 32 85 55 80 92 -4 32 -40 33
-93 1 -41 -24 -54 -26 -110 -22 -87 7 -188 58 -232 116 -43 57 -67 139 -58
200 9 65 101 337 132 392 14 25 35 55 47 68 16 18 18 27 10 40 -13 20 -61 26
-87 11z"/>
<path d="M14105 26878 c-175 -97 -315 -253 -315 -352 0 -45 55 -96 103 -96 43
0 114 45 161 104 42 50 53 55 63 29 51 -150 89 -206 133 -201 17 2 28 12 34
30 9 24 6 32 -20 57 -36 35 -113 210 -116 265 -3 36 0 40 26 47 16 5 33 14 37
21 13 20 11 82 -3 96 -15 15 -76 15 -103 0z m-55 -198 c0 -24 -54 -86 -91
-106 -70 -36 -65 -1 11 76 59 60 80 68 80 30z"/>
<path d="M15580 26883 c-37 -5 -70 -28 -70 -49 0 -7 16 -30 36 -49 l36 -36 86
10 c48 6 145 11 215 11 137 0 176 10 198 51 8 17 8 24 -3 34 -25 24 -370 43
-498 28z"/>
<path d="M7381 26818 c-56 -76 -66 -100 -95 -229 -30 -133 -34 -230 -11 -249
37 -31 95 12 160 119 53 87 147 206 188 240 38 32 58 20 75 -45 20 -73 19
-322 -1 -414 -27 -119 -20 -150 30 -150 29 0 38 21 63 145 34 171 34 326 -1
485 -15 71 -54 110 -110 110 -30 0 -49 -9 -91 -43 -45 -36 -169 -185 -198
-236 -5 -9 -12 -12 -16 -8 -16 16 36 144 76 190 45 51 51 86 20 117 -30 30
-46 25 -89 -32z"/>
<path d="M17886 26848 c-21 -30 -20 -44 4 -68 22 -22 69 -27 88 -8 31 31 -1
98 -48 98 -18 0 -34 -8 -44 -22z"/>
<path d="M13336 26784 c-85 -43 -128 -76 -227 -171 -42 -40 -82 -73 -87 -73
-16 0 -33 -35 -48 -99 -19 -79 -17 -98 10 -116 33 -22 50 -12 77 48 33 72 84
146 128 185 89 82 173 139 229 156 19 6 22 4 22 -19 0 -14 -11 -53 -25 -87
-30 -75 -32 -121 -5 -148 27 -27 44 -17 63 38 9 26 25 73 37 105 26 74 29 156
7 191 -26 40 -92 36 -181 -10z"/>
<path d="M15385 26686 c-17 -26 -17 -28 2 -54 11 -15 30 -32 42 -38 13 -7 129
-14 295 -19 287 -7 304 -5 326 36 19 34 -3 46 -98 53 -48 4 -145 13 -217 21
-71 8 -176 17 -231 21 l-102 6 -17 -26z"/>
<path d="M11658 26675 c-59 -19 -155 -105 -186 -168 -46 -92 -47 -199 -3 -289
30 -63 130 -155 177 -164 89 -17 175 13 261 90 99 89 105 173 7 95 -70 -56
-132 -81 -199 -82 -73 -1 -114 20 -152 78 -55 83 -39 187 43 270 60 62 100 78
174 69 58 -6 59 -6 66 20 3 14 4 32 1 40 -17 44 -113 65 -189 41z"/>
<path d="M17738 26430 c-10 -6 -22 -34 -28 -68 -45 -216 -127 -406 -244 -561
-31 -41 -33 -67 -6 -76 88 -28 242 225 330 545 26 96 26 146 1 160 -24 12 -31
12 -53 0z"/>
<path d="M6360 25191 c-19 -37 -12 -80 15 -93 29 -13 69 8 78 41 13 50 -69 96
-93 52z"/>
<path d="M13598 25118 c-115 -14 -169 -54 -223 -164 -34 -69 -38 -84 -43 -183
-8 -171 28 -242 142 -286 52 -20 121 -18 351 10 386 48 595 -39 595 -246 0
-115 -96 -248 -257 -357 -77 -52 -122 -74 -218 -108 -70 -24 -95 -28 -205 -29
-112 0 -125 -2 -128 -18 -15 -78 196 -102 374 -42 259 87 492 312 523 505 29
179 -71 311 -284 376 -82 26 -328 26 -530 0 -170 -21 -210 -15 -249 37 -18 25
-21 43 -21 141 0 105 2 116 30 171 47 90 72 100 265 99 211 0 295 -21 620
-154 68 -28 129 -55 135 -59 42 -33 98 -8 93 42 -3 29 -9 34 -73 58 -38 14
-126 49 -195 77 -265 108 -513 154 -702 130z"/>
<path d="M1756 25087 c-17 -13 -18 -26 -12 -168 19 -484 19 -665 0 -811 -23
-176 -24 -232 -3 -253 14 -15 18 -14 38 2 17 14 25 35 31 78 4 33 16 112 25
175 18 117 17 359 -3 806 -8 178 -23 210 -76 171z"/>
<path d="M7865 25020 c-17 -19 -17 -22 -1 -72 15 -47 57 -322 73 -483 l5 -60
-160 -53 c-89 -28 -167 -52 -175 -52 -29 0 -67 -41 -67 -70 0 -34 39 -60 89
-60 28 0 129 36 230 82 24 11 55 20 70 21 l26 2 0 -247 c0 -137 4 -249 9 -250
19 -6 47 51 56 113 5 35 10 145 10 245 l0 180 55 18 c78 24 277 73 375 92 46
8 97 22 112 30 29 15 37 47 16 60 -37 23 -316 -11 -470 -56 -38 -12 -76 -19
-83 -16 -8 3 -15 37 -19 103 -10 140 -35 352 -47 395 -11 41 -54 98 -73 98 -7
0 -21 -9 -31 -20z"/>
<path d="M6402 24731 c-25 -43 -27 -63 -11 -89 10 -16 -3 -194 -47 -662 -4
-41 -13 -73 -25 -89 -17 -21 -18 -27 -6 -45 8 -11 21 -24 29 -29 24 -15 68 1
78 28 12 31 33 205 59 490 12 121 25 250 31 287 13 88 14 82 -16 117 -36 43
-65 41 -92 -8z"/>
<path d="M12184 24669 c-161 -15 -366 -78 -527 -162 -107 -56 -148 -98 -128
-135 18 -34 41 -34 81 -2 125 99 452 207 700 231 153 15 188 34 115 65 -37 15
-109 16 -241 3z"/>
<path d="M10106 24608 c-38 -58 -40 -85 -12 -142 30 -62 77 -111 154 -162 28
-19 52 -39 52 -43 0 -4 -33 -30 -72 -56 -168 -113 -328 -317 -300 -380 8 -17
20 -25 37 -25 21 0 29 9 49 53 33 76 113 165 244 274 l114 95 62 -59 c120
-117 329 -293 345 -293 23 1 33 20 26 51 -6 26 -43 68 -163 185 -109 106 -154
155 -149 166 6 18 241 139 367 189 101 40 130 57 130 75 0 51 -242 -26 -477
-152 -56 -29 -106 -54 -112 -54 -13 0 -159 123 -179 151 -9 13 -26 50 -38 84
-25 68 -52 83 -78 43z"/>
<path d="M7145 24551 c-82 -38 -164 -146 -231 -303 -16 -38 -32 -68 -36 -68
-4 0 -5 35 -2 78 5 66 3 82 -15 110 -23 36 -55 42 -71 13 -19 -37 3 -431 26
-468 16 -26 55 -30 73 -9 7 8 23 56 37 108 32 123 45 155 111 270 56 100 125
182 146 175 21 -7 28 -90 22 -247 -4 -85 -8 -172 -8 -194 -2 -27 3 -42 16 -50
52 -33 87 83 89 299 2 167 -14 238 -63 279 -36 31 -42 31 -94 7z"/>
<path d="M15012 24394 c-27 -19 -29 -64 -4 -87 10 -10 23 -17 29 -17 17 0 53
45 53 68 0 18 -33 52 -50 52 -3 0 -16 -7 -28 -16z"/>
<path d="M12105 24384 c-16 -3 -79 -11 -140 -20 -132 -18 -411 -78 -459 -98
-47 -20 -62 -50 -41 -82 19 -30 24 -30 99 0 110 44 328 87 585 116 187 21 222
33 189 66 -12 13 -39 17 -110 19 -51 2 -106 1 -123 -1z"/>
<path d="M14985 24004 c-10 -10 -14 -26 -11 -38 6 -23 -7 -71 -70 -269 -43
-135 -90 -238 -139 -306 -28 -38 -33 -79 -10 -87 16 -7 75 33 112 76 33 37 85
140 131 260 23 58 57 147 77 198 22 55 35 103 31 116 -14 57 -84 86 -121 50z"/>
<path d="M15601 23731 c-10 -7 -10 -10 -1 -16 6 -4 16 -3 22 3 13 13 -4 23
-21 13z"/>
<path d="M15155 23721 c-7 -12 31 -25 46 -15 8 4 7 9 -2 15 -18 11 -36 11 -44
0z"/>
<path d="M18041 23246 c-17 -20 0 -49 42 -75 53 -33 112 -159 166 -359 90
-327 64 -535 -119 -967 -99 -233 -214 -495 -234 -533 -9 -18 -16 -48 -14 -65
2 -26 7 -32 27 -32 29 0 59 46 108 165 18 41 59 136 93 210 195 427 260 644
261 869 0 180 -40 363 -126 576 -44 109 -65 143 -115 189 -43 38 -70 45 -89
22z"/>
<path d="M19825 23176 c-121 -32 -190 -59 -249 -98 -69 -46 -90 -77 -82 -122
13 -67 66 -104 286 -198 136 -58 161 -73 154 -92 -5 -14 -74 -73 -180 -156
-64 -50 -114 -120 -114 -161 0 -59 35 -81 210 -133 47 -14 100 -35 118 -46 51
-31 44 -58 -51 -202 -109 -165 -132 -231 -131 -383 0 -130 15 -195 45 -195 11
0 22 6 24 13 3 7 7 71 8 142 4 162 17 199 133 371 46 69 86 140 90 159 8 46
-9 87 -57 130 -45 40 -69 51 -202 90 -55 15 -101 34 -104 42 -9 24 45 80 156
163 217 161 194 212 -167 360 -46 19 -100 49 -120 66 l-37 32 22 24 c57 60
283 138 404 138 l58 0 3 -32 c3 -29 6 -33 33 -33 63 0 66 98 4 130 -41 22
-150 18 -254 -9z"/>
<path d="M17312 22813 c-6 -10 -8 -31 -5 -46 6 -33 -8 -111 -59 -327 -21 -91
-43 -185 -48 -210 -5 -25 -20 -94 -35 -155 -43 -179 -85 -404 -91 -491 -7 -88
3 -124 36 -124 22 0 26 12 34 105 5 54 41 220 127 585 39 167 51 217 94 405
46 203 43 250 -22 269 -15 5 -25 2 -31 -11z"/>
<path d="M9157 22808 c-21 -17 -37 -60 -37 -102 0 -44 54 -118 84 -114 18 3
21 10 22 58 0 30 4 69 8 87 7 27 4 36 -17 57 -30 29 -37 31 -60 14z"/>
<path d="M11810 22750 c-152 -121 -252 -303 -280 -513 -30 -214 62 -468 230
-636 92 -92 222 -132 367 -111 118 16 205 65 189 106 -7 18 -9 17 -116 -11
-95 -25 -211 -17 -280 21 -112 61 -210 225 -257 429 -12 53 -14 100 -10 195 9
202 44 287 173 410 70 67 89 100 79 137 -8 34 -27 29 -95 -27z"/>
<path d="M9470 22633 c-49 -18 -52 -96 -10 -260 36 -139 47 -230 55 -473 16
-433 21 -470 64 -470 40 0 41 11 41 395 0 203 -5 411 -10 460 -15 136 -62 315
-90 337 -23 19 -26 20 -50 11z"/>
<path d="M15430 22614 c0 -56 96 -108 245 -133 58 -10 152 -21 480 -56 184
-19 301 -39 382 -66 62 -20 113 -52 113 -70 0 -6 -23 -34 -51 -64 -48 -51
-150 -122 -569 -397 -202 -133 -325 -228 -335 -258 -7 -23 18 -70 38 -70 7 0
39 25 72 55 82 75 173 140 425 301 435 278 518 351 495 441 -17 68 -149 137
-320 166 -49 9 -160 23 -245 32 -282 28 -344 36 -459 56 -119 21 -139 27 -184
65 -16 13 -42 24 -58 24 -25 0 -29 -4 -29 -26z"/>
<path d="M8243 22608 c-12 -15 -30 -136 -38 -258 -3 -47 -19 -175 -35 -285
-36 -245 -47 -451 -28 -514 8 -25 25 -53 41 -64 l27 -21 36 30 c21 16 61 70
90 119 89 151 187 298 233 348 71 77 102 62 130 -65 16 -71 49 -268 56 -338 9
-83 18 -100 54 -100 46 0 50 13 41 150 -13 190 -49 381 -86 452 -18 35 -69 68
-104 68 -45 -1 -106 -37 -152 -91 -59 -70 -166 -228 -207 -304 -17 -33 -38
-69 -46 -79 -42 -56 -37 45 20 411 19 125 39 287 44 360 5 73 12 136 15 141 3
5 -2 18 -10 30 -17 24 -65 30 -81 10z"/>
<path d="M1844 22500 c-181 -36 -424 -167 -498 -269 -42 -57 -50 -82 -33 -105
16 -21 41 -13 55 19 49 107 267 239 462 281 169 36 360 -8 360 -82 0 -69 -75
-157 -309 -358 -187 -162 -300 -276 -320 -324 -40 -95 80 -142 309 -121 117
10 538 62 644 79 59 9 96 31 96 57 0 22 -38 30 -94 21 -101 -16 -454 -58 -582
-69 -142 -12 -255 -2 -282 25 -12 12 -12 17 -1 33 19 26 141 138 303 277 212
183 304 294 321 387 11 61 -49 116 -160 145 -54 15 -205 17 -271 4z"/>
<path d="M8105 22470 c-3 -5 -1 -10 4 -10 6 0 11 5 11 10 0 6 -2 10 -4 10 -3
0 -8 -4 -11 -10z"/>
<path d="M13370 22425 c-7 -8 -9 -24 -5 -37 21 -69 112 -260 153 -321 85 -126
81 -116 48 -141 -88 -64 -196 -175 -226 -231 -25 -47 18 -114 57 -89 10 6 33
37 52 69 33 58 175 215 193 215 5 0 35 -26 67 -57 66 -67 134 -110 250 -157
46 -19 88 -39 94 -45 6 -6 21 -11 34 -11 19 0 23 5 23 29 0 36 -27 57 -125 95
-117 46 -265 150 -265 186 0 18 99 78 240 145 110 53 171 77 300 115 161 49
195 64 195 86 0 17 -6 19 -60 16 -149 -8 -510 -145 -682 -260 l-55 -36 -18 24
c-43 57 -102 172 -141 275 -22 61 -48 118 -57 128 -18 21 -55 22 -72 2z"/>
<path d="M10408 22344 c-169 -41 -356 -191 -435 -350 -34 -70 -35 -77 -31
-151 8 -115 38 -185 112 -259 100 -99 195 -132 401 -141 115 -4 143 -2 242 21
119 27 170 47 180 72 12 33 -13 38 -104 19 -257 -51 -511 -16 -627 86 -76 67
-120 188 -102 285 6 28 26 55 90 119 69 69 98 90 177 128 136 65 275 83 310
41 10 -12 3 -23 -32 -57 -120 -115 -333 -234 -437 -244 -31 -3 -63 -10 -69
-16 -20 -15 -16 -72 7 -92 18 -17 27 -17 84 -7 84 16 152 47 261 120 158 106
295 259 295 330 0 84 -167 134 -322 96z"/>
<path d="M7706 22278 c-8 -13 -32 -72 -54 -133 -21 -60 -52 -135 -67 -165 -68
-134 -256 -346 -328 -370 -35 -11 -41 -10 -61 9 -22 21 -66 147 -82 236 -12
64 -33 105 -60 115 -40 16 -63 -5 -100 -88 -56 -124 -67 -145 -103 -184 -44
-49 -67 -49 -80 0 -23 84 -53 368 -46 435 7 74 -1 85 -49 73 -54 -14 -64 -162
-26 -396 38 -237 91 -306 191 -255 37 19 104 110 143 193 17 34 34 61 39 59 6
-2 21 -50 35 -107 23 -97 28 -106 72 -151 84 -84 146 -77 259 27 160 148 287
340 335 505 18 63 36 188 29 207 -8 19 -31 14 -47 -10z"/>
<path d="M9125 21930 c-19 -21 -18 -55 5 -175 5 -27 9 -75 9 -105 1 -33 7 -65
17 -78 19 -28 69 -30 83 -4 6 10 9 80 7 158 -2 107 -7 146 -19 171 -28 54 -71
67 -102 33z"/>
<path d="M1945 20203 c-81 -10 -96 -15 -106 -37 -8 -17 -8 -30 0 -45 14 -26
38 -27 71 -3 23 15 63 17 409 20 376 3 451 0 451 -18 0 -5 -30 -26 -67 -46
-273 -148 -335 -215 -283 -300 39 -63 120 -100 439 -204 225 -74 354 -134 359
-167 8 -57 -261 -203 -578 -315 -86 -30 -120 -51 -120 -73 0 -33 68 -19 270
55 239 88 464 217 510 293 26 43 25 50 -12 92 -50 57 -147 101 -454 203 -98
33 -201 70 -227 82 -59 26 -117 76 -117 100 0 28 70 82 203 155 180 99 223
150 155 183 -46 22 -235 32 -563 30 -170 0 -323 -3 -340 -5z"/>
<path d="M16023 20058 c-6 -7 -33 -112 -61 -233 -91 -394 -124 -654 -134
-1050 l-3 -130 25 0 c36 0 45 46 64 306 23 324 66 595 151 948 27 109 32 147
24 157 -14 17 -53 18 -66 2z"/>
<path d="M12514 19932 c-62 -45 -123 -181 -161 -357 -8 -36 -17 -46 -98 -100
-63 -42 -100 -75 -123 -109 -38 -58 -39 -91 -2 -91 18 0 33 13 60 52 36 54
113 119 129 109 5 -3 1 -44 -9 -93 -50 -243 -67 -480 -37 -511 28 -28 44 1 52
91 11 138 68 508 85 551 12 32 78 46 214 46 89 0 107 -3 130 -21 33 -26 33
-49 1 -79 -28 -27 -34 -70 -9 -70 14 0 14 -11 7 -92 -11 -124 -9 -231 6 -299
20 -96 82 -169 143 -169 65 0 186 89 224 166 30 62 25 232 -11 343 -40 124
-87 161 -206 161 -44 0 -47 2 -53 30 -8 41 -45 76 -95 90 -56 15 -194 15 -264
1 -32 -7 -61 -10 -64 -7 -7 7 12 83 45 175 21 60 37 86 80 128 44 44 52 56 42
68 -18 22 -43 18 -86 -13z m453 -547 c56 -37 94 -157 95 -301 1 -94 -20 -144
-76 -182 -120 -82 -182 87 -145 393 6 50 16 96 22 103 14 17 69 10 104 -13z"/>
<path d="M10065 19925 c-110 -21 -276 -79 -356 -125 -129 -76 -250 -202 -335
-350 -83 -144 -122 -297 -125 -490 -2 -159 25 -268 106 -416 61 -112 91 -146
124 -142 15 2 27 10 29 21 2 9 -26 68 -62 130 -78 135 -94 175 -112 291 -11
71 -11 95 -1 115 28 58 187 119 362 139 50 6 189 14 310 17 222 6 391 23 499
51 32 8 60 13 63 11 2 -3 -29 -38 -69 -79 -40 -41 -100 -112 -131 -159 -48
-70 -58 -92 -55 -120 7 -77 93 -69 229 20 79 52 136 112 208 219 24 35 47 60
51 55 4 -4 26 -52 50 -105 93 -214 170 -294 299 -305 62 -6 127 14 138 43 9
23 -14 34 -72 34 -79 0 -126 18 -171 64 -40 42 -109 167 -154 279 -46 112 -80
113 -155 6 -66 -94 -193 -215 -258 -245 -94 -44 -98 -32 -24 69 89 119 182
202 274 244 57 25 103 59 103 74 0 5 -9 13 -19 18 -14 8 -39 5 -92 -9 -281
-76 -387 -90 -764 -100 -331 -9 -383 -16 -500 -67 -33 -15 -72 -35 -87 -45
-14 -10 -29 -18 -32 -18 -18 0 7 150 42 250 60 174 189 342 332 432 63 40 231
103 330 123 225 46 514 -24 545 -132 10 -37 -39 -78 -145 -120 -77 -31 -96
-42 -98 -61 -2 -12 3 -24 11 -28 8 -3 65 16 126 42 133 56 181 99 181 163 0
59 -34 100 -118 143 -132 66 -324 91 -477 63z"/>
<path d="M14356 19759 c-19 -28 -21 -55 -3 -66 22 -13 126 -11 138 3 23 28
-20 70 -84 81 -28 4 -37 1 -51 -18z"/>
<path d="M17303 19678 c-81 -39 88 -366 261 -507 36 -30 62 -59 58 -63 -5 -5
-58 -4 -117 2 -60 5 -172 7 -249 4 -129 -6 -143 -8 -165 -29 -17 -17 -21 -28
-16 -45 8 -25 4 -25 408 -4 98 6 117 4 117 -8 0 -8 -24 -50 -53 -94 -91 -136
-139 -223 -133 -239 7 -20 29 -19 55 3 23 19 137 204 173 282 28 59 42 64 35
13 -7 -57 -65 -315 -77 -348 -6 -16 -8 -40 -5 -53 4 -18 11 -23 33 -20 41 5
60 57 93 255 15 96 29 176 31 178 2 1 37 -35 78 -79 159 -172 343 -308 420
-310 40 -1 78 23 66 42 -3 5 -40 26 -82 46 -42 20 -95 51 -118 69 -57 44 -250
219 -254 229 -6 14 161 3 393 -27 36 -5 55 -3 70 8 25 19 10 39 -43 55 -59 18
-294 44 -409 45 l-103 2 0 43 c0 38 6 49 52 99 67 70 206 153 334 199 95 35
103 36 195 31 103 -6 139 5 139 42 0 36 -27 45 -122 43 -74 -2 -111 -9 -194
-37 -149 -49 -235 -96 -352 -192 l-39 -33 -5 78 c-4 65 -10 85 -38 130 -25 39
-39 52 -57 52 -35 0 -38 -24 -10 -74 21 -37 26 -63 31 -163 10 -181 -3 -184
-123 -34 -100 126 -151 213 -185 319 -17 49 -35 86 -46 92 -22 12 -19 12 -47
-2z m464 -640 c-3 -7 -5 -2 -5 12 0 14 2 19 5 13 2 -7 2 -19 0 -25z"/>
<path d="M22212 19657 c-34 -18 -92 -55 -130 -82 -71 -53 -324 -270 -456 -392
-44 -40 -82 -73 -86 -73 -18 0 -199 225 -300 374 -61 88 -103 136 -119 136
-16 0 -61 -50 -61 -67 0 -8 16 -36 35 -61 20 -26 82 -110 139 -187 57 -77 131
-167 165 -200 34 -33 61 -64 61 -70 0 -6 -32 -38 -71 -70 -154 -128 -351 -355
-400 -460 -22 -46 -25 -108 -6 -123 19 -16 35 -1 66 64 55 115 182 262 393
456 l87 79 64 -54 c177 -150 382 -247 403 -192 9 22 -9 40 -81 80 -62 35 -265
186 -298 223 -16 18 -11 24 125 138 78 65 162 137 187 159 102 88 288 234 321
251 19 9 51 20 70 23 27 5 36 12 38 29 9 60 -52 67 -146 19z"/>
<path d="M22980 19633 c-47 -18 -65 -76 -40 -124 15 -28 48 -24 56 6 7 30 14
31 37 5 22 -26 98 -28 122 -4 24 24 15 73 -17 97 -28 21 -126 33 -158 20z"/>
<path d="M15083 19562 c-7 -4 -18 -25 -25 -46 -12 -36 -17 -40 -95 -66 -175
-58 -329 -177 -410 -315 -52 -89 -67 -136 -60 -193 11 -96 92 -119 214 -59
119 58 231 188 303 351 19 42 37 76 40 76 4 0 10 -82 13 -182 6 -190 18 -259
56 -340 23 -47 71 -88 104 -88 29 0 67 23 67 41 0 10 -15 25 -37 36 -74 36
-97 112 -115 385 -9 142 -9 210 0 284 8 70 8 102 0 111 -12 14 -37 17 -55 5z
m-73 -185 c0 -24 -70 -159 -122 -233 -82 -119 -200 -214 -266 -214 -30 0 -55
41 -46 76 29 122 154 261 299 337 90 47 135 58 135 34z"/>
<path d="M11628 19506 c-98 -35 -178 -102 -261 -218 -193 -270 -111 -558 158
-558 74 0 173 23 265 60 139 55 301 157 308 193 6 29 -22 20 -156 -47 -137
-70 -192 -90 -292 -112 -97 -21 -148 -18 -208 12 -85 42 -113 118 -92 249 18
114 89 225 190 299 77 57 140 73 201 52 24 -9 54 -16 65 -16 49 0 59 65 14 87
-32 16 -145 16 -192 -1z"/>
<path d="M14050 19430 c-138 -24 -333 -158 -433 -298 l-52 -73 -6 57 c-8 67
-36 101 -69 84 -27 -15 -31 -39 -20 -119 8 -56 7 -95 -5 -172 -15 -105 -13
-129 14 -129 36 0 59 32 100 140 48 123 97 198 185 278 96 87 259 172 330 172
31 0 73 -49 83 -98 12 -54 8 -244 -6 -336 -14 -86 -8 -103 32 -92 29 7 42 37
56 121 26 163 21 294 -15 384 -27 67 -99 97 -194 81z"/>
<path d="M18919 19259 c-13 -13 -19 -30 -17 -47 l3 -27 180 -3 c254 -4 1039
24 1065 38 29 15 21 41 -15 53 -20 7 -173 7 -475 -2 -405 -11 -506 -10 -667 4
-44 4 -56 2 -74 -16z"/>
<path d="M18814 19006 c-24 -17 -35 -48 -24 -66 10 -16 322 -29 675 -29 298 1
380 10 380 44 0 29 -44 34 -315 35 -227 0 -572 14 -655 25 -27 4 -47 1 -61 -9z"/>
<path d="M23019 18993 c-38 -95 -39 -98 -293 -498 -45 -71 -108 -169 -139
-217 -31 -47 -57 -93 -57 -101 0 -37 57 -26 93 17 34 40 162 230 275 405 172
269 217 372 180 409 -21 21 -48 14 -59 -15z"/>
<path d="M3035 18346 c-38 -18 -111 -94 -164 -173 -43 -63 -125 -230 -137
-277 -9 -36 -27 -44 -137 -57 -202 -25 -367 37 -367 139 0 58 92 173 189 237
47 31 57 53 37 74 -14 13 -19 13 -49 -1 -42 -20 -192 -161 -223 -210 -102
-162 -5 -297 231 -323 51 -6 136 3 257 27 18 4 15 -21 -15 -137 -33 -126 -46
-250 -36 -342 12 -111 51 -175 86 -141 10 10 10 27 3 73 -23 141 3 363 62 524
22 62 25 65 88 98 104 55 161 94 223 152 98 93 65 128 -38 40 -72 -61 -185
-139 -202 -139 -21 0 -15 18 43 131 58 111 153 239 179 239 7 0 26 11 41 23
52 45 2 76 -71 43z"/>
<path d="M9882 17973 c-10 -16 -24 -42 -31 -60 -12 -31 -10 -37 39 -129 52
-99 83 -146 129 -198 25 -27 25 -29 8 -40 -107 -66 -155 -103 -229 -176 -97
-95 -137 -164 -118 -200 21 -39 56 -25 97 38 20 31 62 82 93 112 61 62 213
180 230 180 7 0 35 -21 63 -46 35 -31 106 -72 217 -126 91 -44 210 -102 266
-130 107 -53 180 -71 194 -47 5 7 5 20 0 29 -12 22 -182 114 -365 197 -154 71
-279 146 -273 165 6 17 226 113 358 158 63 21 189 54 279 74 90 19 168 39 174
45 5 5 7 17 4 25 -16 41 -279 -1 -532 -85 -49 -16 -150 -58 -224 -91 l-134
-62 -29 35 c-56 66 -127 248 -128 325 0 42 -60 46 -88 7z"/>
<path d="M11558 17610 c-27 -17 -24 -68 5 -80 12 -5 162 -14 332 -19 171 -6
365 -16 433 -23 126 -12 149 -8 137 25 -16 41 -195 73 -483 87 -109 5 -244 12
-302 15 -69 4 -111 2 -122 -5z"/>
<path d="M13150 17574 c-14 -2 -58 -9 -99 -15 -114 -17 -147 -40 -122 -87 16
-30 29 -31 126 -11 117 25 376 26 552 4 92 -12 128 -14 136 -6 15 15 -1 42
-36 59 -77 38 -435 74 -557 56z"/>
<path d="M14122 17508 c-31 -31 3 -104 44 -96 26 5 51 73 34 93 -15 18 -61 20
-78 3z"/>
<path d="M14254 17177 c-17 -18 -35 -46 -42 -63 -6 -16 -28 -72 -48 -124 -20
-52 -65 -160 -101 -240 -100 -224 -164 -390 -161 -419 2 -20 9 -26 26 -26 28
0 51 40 152 268 38 86 102 228 140 315 39 86 85 185 103 219 25 50 30 66 21
80 -20 32 -58 28 -90 -10z"/>
<path d="M7115 17148 c-22 -72 -8 -120 37 -131 27 -6 337 -95 357 -102 27 -10
-10 -34 -92 -60 -94 -31 -182 -77 -192 -103 -3 -9 -9 -47 -12 -84 -5 -57 -3
-72 16 -104 l22 -37 -23 -51 c-19 -41 -23 -68 -22 -141 0 -131 28 -217 144
-450 119 -238 142 -316 121 -418 -50 -247 -210 -477 -368 -527 -36 -11 -48
-20 -48 -35 0 -15 10 -22 37 -29 51 -13 130 28 220 112 169 159 280 412 265
598 -8 90 -43 179 -141 361 -76 140 -121 255 -133 338 -8 64 17 122 78 180
l50 47 -3 61 c-3 60 -4 61 -36 69 -72 19 -25 48 176 108 104 32 113 41 120
129 5 69 4 73 -24 102 -39 40 -220 97 -395 124 -20 3 -58 17 -85 30 -56 28
-63 30 -69 13z"/>
<path d="M9629 16807 c-56 -38 -119 -128 -688 -992 -176 -266 -281 -402 -431
-556 -101 -105 -116 -133 -85 -159 26 -21 55 1 171 127 145 159 246 297 436
596 272 429 566 864 618 915 52 51 61 75 34 86 -21 8 -16 9 -55 -17z"/>
<path d="M10421 16608 c-98 -49 -429 -406 -659 -710 -117 -156 -311 -429 -437
-617 -39 -57 -92 -123 -119 -148 -39 -34 -49 -51 -49 -74 0 -53 36 -59 97 -16
16 11 85 106 154 211 319 487 503 738 723 991 101 116 273 286 308 305 13 6
36 9 52 6 39 -7 79 25 63 51 -17 27 -80 28 -133 1z"/>
<path d="M3469 16595 c-131 -21 -237 -50 -434 -122 -201 -72 -352 -147 -368
-180 -15 -34 0 -71 42 -99 43 -28 60 -34 311 -104 96 -26 209 -64 250 -83 174
-80 289 -208 290 -323 0 -68 -66 -140 -181 -194 -83 -39 -157 -53 -249 -48
-63 4 -87 11 -145 41 -76 40 -100 45 -109 21 -11 -30 22 -70 86 -104 55 -30
74 -35 153 -38 112 -5 201 15 310 68 97 47 176 114 205 176 44 89 9 206 -94
320 -97 107 -244 177 -549 262 -166 46 -227 71 -227 92 0 15 50 37 244 109
255 95 298 107 334 92 20 -9 41 -9 73 -2 77 18 245 12 424 -14 94 -14 220 -32
280 -40 61 -8 202 -28 315 -45 195 -28 330 -37 364 -24 23 9 20 33 -6 43 -13
5 -63 15 -113 21 -49 7 -265 39 -480 72 -214 33 -414 63 -443 67 -37 6 -57 14
-68 29 -13 18 -24 22 -72 21 -31 -1 -96 -7 -143 -14z"/>
<path d="M16790 16175 c-204 -35 -550 -131 -579 -160 -11 -11 -13 -21 -5 -42
14 -43 58 -41 191 6 140 50 232 74 398 101 133 22 317 31 331 17 5 -4 -50 -63
-121 -129 -72 -66 -220 -211 -330 -322 -249 -250 -267 -284 -200 -365 85 -100
329 -132 765 -102 178 13 210 21 210 57 0 41 -43 54 -136 42 -43 -7 -189 -12
-324 -12 -262 -1 -365 12 -420 52 -61 46 -34 81 276 372 334 312 390 370 399
408 8 37 -9 63 -57 88 -43 22 -238 17 -398 -11z"/>
<path d="M13226 16015 c-8 -9 -40 -91 -70 -183 -46 -143 -57 -168 -77 -174
-13 -5 -56 -17 -96 -28 -39 -11 -95 -36 -124 -56 -29 -19 -56 -37 -60 -39 -4
-3 -19 15 -33 39 -55 94 -142 145 -247 146 -93 0 -165 -24 -212 -71 -32 -32
-38 -43 -33 -66 5 -23 -2 -38 -40 -83 -91 -109 -156 -285 -133 -364 11 -38 44
-72 94 -99 54 -29 213 -31 295 -3 144 49 257 128 308 214 22 39 27 60 28 124
2 86 6 92 108 161 40 27 135 61 144 52 5 -5 -66 -212 -110 -319 -31 -77 -35
-104 -14 -112 46 -18 90 59 167 290 46 137 56 159 78 168 36 14 456 7 471 -8
8 -8 4 -24 -18 -60 -35 -57 -57 -143 -47 -181 34 -136 250 -175 500 -92 227
76 325 191 295 347 -13 70 -31 102 -84 149 -64 57 -134 76 -249 71 -71 -3
-104 -10 -147 -29 -73 -34 -130 -84 -130 -115 0 -16 -9 -28 -30 -39 -27 -14
-35 -13 -107 7 -69 20 -101 23 -266 22 l-188 0 6 26 c4 13 29 80 56 148 27 68
49 127 49 132 0 15 -31 40 -50 40 -10 0 -26 -7 -34 -15z m936 -251 c52 -17
109 -69 133 -121 13 -26 16 -54 13 -101 -4 -63 -6 -67 -51 -108 -88 -80 -292
-138 -431 -124 -58 7 -73 12 -99 38 -23 24 -30 39 -29 67 3 88 72 172 186 226
57 28 66 30 141 24 63 -5 84 -3 100 9 29 22 8 49 -46 59 -46 8 -149 3 -184 -9
-16 -5 -18 -4 -8 6 20 22 116 49 174 50 30 0 76 -7 101 -16z m-1530 -165 c78
-63 132 -234 95 -306 -35 -66 -152 -145 -269 -179 -27 -9 -80 -15 -119 -16
-57 0 -75 4 -104 23 -60 41 -60 105 1 228 47 95 152 205 237 246 31 15 60 32
63 37 10 15 54 -1 96 -33z"/>
<path d="M11450 15936 c-321 -68 -640 -252 -761 -439 -63 -97 -60 -170 12
-246 48 -51 103 -66 239 -66 107 0 138 4 217 28 191 56 363 156 472 273 34 36
64 64 66 63 4 -5 -233 -694 -265 -769 -75 -178 -221 -320 -329 -320 -42 0 -61
-9 -61 -30 0 -31 26 -43 79 -37 98 12 223 96 291 197 88 129 207 436 376 969
64 200 73 238 63 257 -6 12 -9 27 -5 32 13 21 -7 41 -67 68 -53 24 -77 28
-162 31 -57 1 -128 -4 -165 -11z m261 -82 c33 -15 59 -32 59 -39 0 -18 -75
-149 -121 -211 -128 -174 -417 -322 -665 -341 -109 -8 -174 8 -214 53 -60 69
-50 119 46 223 104 112 240 198 420 266 209 79 370 96 475 49z"/>
<path d="M3373 14109 c-140 -54 -435 -260 -584 -409 -138 -138 -222 -271 -268
-428 -35 -116 -38 -198 -11 -282 44 -136 133 -229 264 -272 99 -32 266 -32
381 0 306 88 549 281 583 463 11 60 -2 102 -45 144 -97 94 -297 84 -516 -26
-101 -51 -139 -77 -292 -197 -150 -119 -195 -161 -195 -184 0 -28 26 -32 57
-9 16 12 89 68 163 125 198 152 350 227 519 256 105 19 211 -13 232 -68 47
-123 -269 -368 -551 -428 -179 -38 -388 6 -465 98 -155 183 -74 500 194 766
157 155 500 372 588 372 59 0 98 66 54 90 -27 14 -48 12 -108 -11z"/>
<path d="M16260 13530 c0 -5 5 -10 10 -10 6 0 10 5 10 10 0 6 -4 10 -10 10 -5
0 -10 -4 -10 -10z"/>
<path d="M16077 9854 c-13 -13 5 -24 39 -24 38 0 46 15 12 24 -30 8 -43 7 -51
0z"/>
<path d="M13836 1983 c-3 -3 -3 -10 0 -14 7 -12 34 -11 34 0 0 11 -26 22 -34
14z"/>
</g>
</svg>
