<?xml version="1.0" standalone="no"?>
<!DOCTYPE svg PUBLIC "-//W3C//DTD SVG 20010904//EN"
 "http://www.w3.org/TR/2001/REC-SVG-20010904/DTD/svg10.dtd">
<svg version="1.0" xmlns="http://www.w3.org/2000/svg"
 width="2448.000000pt" height="3264.000000pt" viewBox="0 0 2448.000000 3264.000000"
 preserveAspectRatio="xMidYMid meet">
<metadata>
Created by potrace 1.12, written by Peter Selinger 2001-2015
</metadata>
<g transform="translate(0.000000,3264.000000) scale(0.100000,-0.100000)"
fill="#000000" stroke="none">
<path d="M0 32600 c0 -5 4 -10 9 -10 6 0 13 5 16 10 3 6 -1 10 -9 10 -9 0 -16
-4 -16 -10z"/>
<path d="M3390 32490 c0 -5 5 -10 10 -10 6 0 10 5 10 10 0 6 -4 10 -10 10 -5
0 -10 -4 -10 -10z"/>
<path d="M6735 32450 c-3 -5 1 -10 10 -10 9 0 13 5 10 10 -3 6 -8 10 -10 10
-2 0 -7 -4 -10 -10z"/>
<path d="M1090 32080 c0 -5 5 -10 10 -10 6 0 10 5 10 10 0 6 -4 10 -10 10 -5
0 -10 -4 -10 -10z"/>
<path d="M570 31261 c0 -6 5 -13 10 -16 6 -3 10 1 10 9 0 9 -4 16 -10 16 -5 0
-10 -4 -10 -9z"/>
<path d="M1680 31100 c0 -5 5 -10 10 -10 6 0 10 5 10 10 0 6 -4 10 -10 10 -5
0 -10 -4 -10 -10z"/>
<path d="M3105 31040 c3 -5 8 -10 11 -10 2 0 4 5 4 10 0 6 -5 10 -11 10 -5 0
-7 -4 -4 -10z"/>
<path d="M170 30830 c0 -5 5 -10 10 -10 6 0 10 5 10 10 0 6 -4 10 -10 10 -5 0
-10 -4 -10 -10z"/>
<path d="M1765 30040 c4 -6 11 -8 16 -5 14 9 11 15 -7 15 -8 0 -12 -5 -9 -10z"/>
<path d="M1145 29740 c3 -5 8 -10 11 -10 2 0 4 5 4 10 0 6 -5 10 -11 10 -5 0
-7 -4 -4 -10z"/>
<path d="M610 29430 c0 -5 5 -10 10 -10 6 0 10 5 10 10 0 6 -4 10 -10 10 -5 0
-10 -4 -10 -10z"/>
<path d="M17319 27618 c0 -1 -2 -26 -4 -54 l-3 -52 34 -4 c41 -5 58 16 48 56
-5 20 -17 30 -66 54 -5 2 -8 2 -9 0z"/>
<path d="M11851 27463 c-12 -3 -44 -16 -69 -29 -25 -13 -51 -24 -58 -24 -19 0
-18 -29 1 -36 8 -4 21 -2 28 4 10 9 79 8 187 -1 40 -3 39 35 -3 67 -34 26 -41
27 -86 19z"/>
<path d="M3030 27410 c0 -5 5 -10 11 -10 5 0 7 5 4 10 -3 6 -8 10 -11 10 -2 0
-4 -4 -4 -10z"/>
<path d="M6554 27246 c-7 -29 8 -61 40 -81 33 -22 221 -81 319 -101 74 -14
125 -25 327 -70 88 -19 143 -36 155 -46 5 -4 16 -8 25 -8 29 0 158 -68 170
-90 19 -35 3 -74 -45 -109 -24 -17 -48 -31 -53 -31 -6 0 -24 -11 -40 -25 -17
-14 -46 -32 -66 -40 -20 -9 -36 -22 -36 -30 0 -8 -8 -15 -19 -15 -10 0 -24 -7
-31 -15 -7 -8 -18 -15 -24 -15 -28 0 -96 -41 -96 -58 0 -25 -38 -59 -80 -73
-19 -7 -51 -25 -71 -40 -23 -18 -52 -30 -76 -32 -51 -5 -63 -13 -63 -41 0 -26
38 -66 62 -66 9 0 33 20 53 45 20 24 52 50 71 57 19 6 34 15 34 20 0 4 25 19
55 33 30 15 60 34 67 43 7 10 36 35 63 57 28 21 55 45 61 51 5 7 22 16 36 19
22 6 29 2 41 -22 21 -40 1 -138 -29 -138 -15 0 -20 -8 -22 -37 -8 -97 61 -198
195 -284 45 -29 84 -63 88 -74 5 -15 -2 -39 -20 -73 -15 -29 -42 -92 -61 -142
-20 -49 -44 -109 -55 -131 -26 -56 -59 -153 -59 -174 0 -10 -7 -23 -15 -30 -8
-7 -15 -20 -15 -29 0 -9 -7 -29 -15 -45 -8 -15 -15 -36 -15 -45 0 -10 -9 -36
-20 -59 -11 -22 -20 -46 -20 -52 0 -7 -8 -24 -18 -38 -10 -15 -24 -46 -32 -69
-7 -24 -21 -50 -31 -59 -10 -9 -23 -33 -29 -53 -7 -20 -17 -49 -25 -66 -35
-79 -68 -152 -76 -167 -5 -10 -9 -25 -9 -35 0 -9 -6 -24 -13 -32 -18 -21 -47
-101 -47 -128 0 -12 -7 -26 -17 -31 -9 -5 -14 -16 -11 -24 3 -8 -5 -36 -17
-63 -13 -27 -21 -53 -18 -58 5 -8 -3 -29 -28 -79 -5 -10 -9 -28 -9 -40 0 -12
-7 -29 -14 -37 -8 -9 -17 -32 -19 -51 -2 -19 -9 -45 -15 -57 -7 -12 -12 -33
-12 -47 0 -13 -5 -26 -10 -28 -6 -2 -14 -29 -17 -61 -3 -32 -10 -60 -14 -63
-5 -3 -9 -21 -9 -40 0 -19 -4 -34 -8 -34 -12 0 -32 -59 -25 -76 3 -8 -3 -24
-13 -35 -10 -12 -19 -37 -19 -59 -1 -27 -8 -46 -23 -60 -12 -12 -22 -31 -22
-44 0 -13 -8 -38 -17 -57 -9 -19 -18 -50 -19 -69 -2 -52 -14 -88 -31 -94 -9
-4 -13 -14 -10 -26 5 -19 -20 -101 -36 -116 -4 -4 -7 -24 -7 -44 0 -20 -5 -41
-11 -47 -5 -5 -11 -21 -13 -34 -13 -97 -20 -130 -28 -135 -5 -3 -4 -12 3 -20
9 -11 8 -18 -4 -32 -24 -27 -37 -68 -25 -80 7 -7 5 -17 -6 -33 -9 -13 -13 -32
-10 -45 3 -12 1 -25 -5 -28 -6 -4 -11 -18 -11 -30 0 -13 -6 -29 -14 -35 -15
-13 -32 -66 -28 -88 5 -23 -29 -121 -43 -127 -8 -3 -13 -18 -13 -35 1 -17 -4
-36 -9 -43 -6 -7 -13 -28 -16 -46 -4 -18 -15 -45 -26 -60 -11 -15 -29 -58 -42
-95 -12 -38 -28 -71 -36 -74 -7 -3 -13 -13 -13 -23 0 -11 -4 -21 -9 -24 -4 -3
-30 -49 -57 -103 -26 -54 -61 -114 -76 -134 -15 -20 -28 -42 -28 -49 0 -7 -29
-57 -65 -111 -36 -55 -65 -104 -65 -109 0 -5 -12 -24 -28 -42 -15 -18 -34 -46
-42 -61 -8 -16 -38 -54 -67 -85 -29 -30 -53 -59 -53 -64 0 -4 -34 -43 -76 -85
-42 -43 -84 -89 -92 -102 -9 -13 -44 -44 -77 -68 -33 -25 -95 -78 -137 -119
-42 -41 -81 -74 -87 -74 -6 0 -17 -13 -26 -30 -9 -16 -23 -30 -31 -30 -15 0
-70 -39 -120 -85 -42 -39 -89 -77 -124 -100 -100 -67 -118 -82 -126 -100 -5
-11 -20 -22 -34 -23 -14 -2 -34 -11 -45 -21 -11 -9 -37 -26 -59 -37 -21 -10
-41 -27 -44 -36 -2 -11 -14 -18 -29 -18 -14 0 -44 -16 -67 -35 -24 -19 -46
-35 -50 -35 -4 0 -31 -18 -60 -40 -29 -22 -58 -40 -64 -40 -6 0 -19 -9 -29
-19 -10 -10 -62 -42 -115 -70 -54 -28 -107 -60 -118 -71 -11 -11 -27 -20 -36
-20 -13 0 -127 -56 -219 -107 -11 -7 -42 -21 -70 -33 -27 -12 -66 -30 -86 -41
-20 -10 -45 -19 -56 -19 -10 0 -43 -9 -73 -21 -59 -22 -220 -66 -285 -79 -22
-4 -51 -12 -65 -18 -31 -12 -198 -40 -260 -43 -25 -2 -50 -6 -56 -11 -6 -4
-49 -10 -95 -12 -46 -2 -93 -7 -104 -10 -28 -8 -368 10 -435 24 -30 6 -76 14
-103 19 -26 4 -53 13 -59 19 -7 7 -21 12 -33 12 -55 1 -290 99 -420 175 -148
87 -372 316 -421 432 -8 17 -18 34 -24 38 -5 3 -15 24 -21 45 -7 22 -20 47
-31 56 -10 10 -18 23 -18 30 0 6 -14 40 -31 75 -17 34 -40 89 -51 123 -11 33
-26 69 -34 80 -8 11 -14 27 -14 36 0 8 -7 27 -14 42 -8 16 -17 40 -19 56 -3
15 -12 50 -21 77 -9 28 -22 77 -30 110 -8 33 -24 92 -36 130 -12 39 -23 81
-25 95 -1 14 -7 45 -13 70 -26 106 -80 507 -82 610 -6 250 1 662 14 805 20
212 25 248 77 545 6 36 21 99 32 140 11 41 21 86 23 100 2 26 30 112 46 143 5
10 6 22 3 27 -3 4 4 30 16 57 11 26 27 68 35 93 8 25 19 54 24 65 5 11 16 43
25 70 9 28 23 64 30 80 8 17 24 55 35 85 12 30 30 70 41 89 11 18 31 60 45 92
13 33 33 68 44 79 11 11 20 27 20 35 0 8 16 39 35 70 20 30 38 63 42 73 3 9
35 61 70 114 34 54 63 104 63 112 0 8 6 19 13 23 6 4 32 34 56 66 24 31 47 57
52 57 4 0 11 10 15 23 21 65 294 366 469 515 33 29 69 61 81 72 12 11 24 20
27 20 3 0 27 20 53 45 25 25 52 45 59 45 6 0 20 10 31 21 10 12 33 31 50 43
18 11 70 49 118 84 47 34 92 62 99 62 7 0 28 11 47 25 19 14 38 25 43 25 5 0
22 11 39 25 16 14 35 25 43 25 7 0 18 7 25 15 7 8 20 15 29 15 10 0 30 14 46
30 18 19 39 30 56 30 16 0 32 6 36 13 8 13 73 46 183 93 36 16 76 36 90 45 14
10 51 25 82 34 31 9 68 25 81 36 14 10 32 16 40 13 8 -3 33 6 56 20 22 14 47
26 54 26 8 0 25 8 38 19 24 18 74 32 116 31 12 0 26 6 30 13 10 15 43 31 113
52 55 17 70 28 70 53 0 20 -61 5 -81 -20 -15 -19 -17 -20 -26 -4 -9 16 -12 16
-54 0 -24 -10 -50 -26 -57 -36 -11 -15 -21 -18 -43 -13 -20 5 -38 1 -54 -9
-13 -9 -33 -16 -44 -16 -11 0 -32 -5 -48 -12 -15 -6 -34 -10 -40 -9 -7 1 -13
-3 -13 -9 0 -5 -5 -10 -11 -10 -5 0 -34 -11 -63 -25 -29 -14 -67 -28 -84 -31
-17 -4 -37 -13 -43 -20 -6 -8 -18 -14 -26 -14 -23 0 -160 -60 -174 -76 -6 -8
-19 -14 -29 -14 -10 0 -20 -7 -24 -15 -3 -8 -16 -15 -28 -15 -13 0 -32 -7 -42
-15 -11 -8 -25 -15 -32 -15 -6 0 -45 -22 -87 -50 -42 -27 -81 -50 -86 -50 -6
0 -11 -4 -11 -10 0 -5 -6 -10 -13 -10 -8 0 -32 -13 -54 -29 -21 -15 -59 -38
-84 -49 -24 -11 -56 -32 -71 -46 -15 -14 -33 -26 -41 -26 -8 0 -35 -18 -60
-40 -25 -22 -48 -40 -52 -40 -8 0 -74 -48 -104 -77 -13 -13 -29 -23 -36 -23
-7 0 -20 -11 -29 -25 -9 -14 -22 -25 -29 -25 -15 0 -59 -45 -76 -77 -6 -13
-17 -23 -23 -23 -6 0 -25 -10 -42 -23 -17 -13 -39 -26 -48 -30 -10 -3 -18 -16
-18 -27 0 -13 -7 -20 -20 -20 -11 0 -20 -7 -20 -16 0 -8 -41 -57 -91 -107 -50
-51 -95 -104 -101 -118 -5 -14 -19 -32 -32 -39 -23 -12 -106 -120 -106 -138 0
-5 -10 -14 -23 -21 -25 -14 -57 -64 -57 -91 0 -11 -9 -24 -20 -30 -11 -6 -32
-30 -46 -53 -14 -23 -31 -46 -38 -52 -19 -16 -46 -63 -46 -79 0 -8 -6 -19 -13
-23 -15 -9 -46 -58 -82 -128 -14 -27 -47 -90 -74 -140 -28 -49 -50 -96 -50
-103 -1 -13 -44 -112 -62 -142 -5 -8 -12 -22 -15 -30 -3 -8 -12 -28 -19 -45
-41 -96 -94 -235 -100 -265 -4 -19 -13 -44 -20 -55 -7 -11 -16 -38 -19 -60 -4
-22 -13 -60 -21 -85 -7 -25 -19 -65 -25 -90 -6 -25 -18 -65 -26 -90 -12 -40
-28 -125 -39 -215 -2 -16 -11 -70 -20 -120 -29 -167 -36 -220 -35 -253 0 -19
-3 -38 -6 -44 -4 -6 -8 -38 -10 -72 -1 -33 -5 -104 -9 -156 -10 -146 -8 -566
4 -692 6 -62 13 -138 16 -168 2 -30 9 -80 15 -110 5 -30 13 -86 16 -125 4 -38
10 -74 14 -80 4 -5 11 -39 14 -75 6 -57 97 -410 116 -450 4 -8 20 -55 35 -105
46 -146 63 -186 155 -380 60 -125 113 -212 183 -301 17 -23 48 -62 67 -87 45
-59 198 -185 275 -227 33 -18 67 -39 75 -45 8 -7 65 -34 125 -60 61 -26 123
-53 138 -61 16 -8 36 -14 45 -14 8 0 29 -4 46 -9 139 -41 180 -51 241 -61 39
-6 119 -14 179 -17 119 -7 465 12 536 28 25 6 72 13 105 15 33 2 71 9 85 14
14 5 79 23 145 40 66 17 136 37 155 44 19 7 67 23 105 36 39 12 93 33 121 46
28 13 58 24 66 24 9 0 72 29 141 65 69 36 132 65 140 65 8 0 22 9 32 20 9 10
38 27 64 36 25 10 55 26 67 36 11 10 25 18 30 18 5 0 31 16 58 35 27 19 55 35
61 35 6 0 22 11 35 25 13 14 30 25 38 25 7 0 33 16 56 35 24 19 48 35 54 35 6
0 48 26 93 58 148 103 253 175 281 191 14 9 61 44 105 78 43 35 102 82 132
105 30 24 95 79 143 123 49 44 115 102 146 129 136 116 296 282 377 391 28 36
60 76 73 88 12 11 22 25 22 30 0 5 14 29 30 54 17 24 30 46 30 49 0 2 14 23
30 46 17 22 30 46 30 51 0 6 12 26 27 46 24 31 50 75 108 186 9 17 27 48 40
70 45 75 145 280 145 297 0 9 5 20 10 23 6 3 10 16 10 28 0 13 6 31 14 42 7
11 28 67 45 125 18 58 41 128 51 155 10 28 20 61 23 75 3 14 15 59 27 100 11
41 23 84 26 95 3 11 12 49 19 85 15 73 65 261 88 330 9 25 19 63 22 85 4 22
20 81 35 130 15 50 38 124 50 165 12 41 26 85 31 98 5 13 9 32 9 43 0 10 9 36
20 56 11 21 20 47 20 59 0 12 12 52 26 90 14 38 32 92 40 119 23 83 55 178 70
208 8 16 14 39 14 52 0 12 7 28 15 35 8 7 15 21 15 32 0 11 14 49 30 85 17 35
30 69 30 74 0 9 32 87 51 121 5 10 9 27 9 37 0 11 4 22 9 26 13 7 61 95 61
109 0 7 8 27 18 46 9 19 28 61 41 93 13 31 28 57 33 57 4 0 8 7 8 16 0 9 9 38
21 63 12 25 32 69 44 96 13 28 30 70 38 95 26 75 85 223 106 265 12 21 21 44
21 50 0 6 8 29 19 51 10 21 31 76 46 121 15 45 33 87 41 94 16 13 60 8 127
-17 43 -15 62 -16 155 -7 101 10 109 9 137 -11 75 -52 175 -183 175 -229 0
-23 95 -291 118 -333 6 -10 22 -48 36 -84 28 -75 56 -110 85 -110 39 0 27 49
-72 295 -24 61 -59 160 -77 220 -39 131 -58 167 -118 220 -42 38 -44 42 -31
63 12 18 23 22 70 22 63 0 122 16 191 51 10 5 25 9 33 9 8 0 32 11 53 23 20
13 55 30 77 38 22 7 50 24 62 36 12 13 28 23 36 23 8 0 22 10 33 21 10 12 27
24 36 28 21 8 146 129 179 173 34 44 56 110 64 185 5 57 3 69 -28 135 -24 53
-47 85 -83 116 -27 23 -53 42 -58 42 -5 0 -17 6 -25 14 -38 33 -252 95 -356
103 -95 7 -284 -14 -323 -37 -35 -21 -116 -27 -127 -10 -9 14 -52 12 -115 -5
-30 -8 -68 -17 -85 -20 -29 -5 -97 -48 -146 -92 -14 -13 -39 -25 -54 -26 -24
-2 -35 7 -69 51 -31 42 -55 60 -110 87 -109 52 -276 105 -411 129 -38 7 -90
18 -115 24 -25 6 -88 21 -140 33 -52 12 -137 41 -188 65 -107 51 -139 55 -148
20z m2006 -311 c36 -8 83 -19 105 -25 22 -6 56 -15 75 -19 104 -24 247 -131
276 -206 25 -66 16 -151 -22 -205 -16 -23 -35 -52 -43 -64 -17 -26 -156 -136
-172 -136 -6 0 -27 -13 -46 -30 -18 -16 -41 -30 -51 -30 -9 0 -28 -9 -42 -20
-14 -11 -31 -20 -38 -20 -7 0 -20 -4 -30 -9 -62 -32 -136 -62 -164 -67 -18 -4
-42 -12 -53 -19 -40 -24 -150 -35 -321 -32 -144 2 -175 6 -195 20 -13 10 -39
29 -58 42 -26 20 -42 24 -67 19 -42 -8 -70 11 -161 105 -76 78 -79 83 -74 175
3 46 33 119 86 211 26 44 87 94 152 125 23 12 48 27 55 34 14 14 87 49 148 72
52 20 130 29 130 15 0 -18 38 -51 59 -51 11 0 28 15 41 35 16 26 28 35 48 35
51 -1 155 -28 181 -48 46 -34 66 -36 80 -6 10 22 9 32 -9 61 -11 19 -18 39
-15 44 9 13 50 11 125 -6z"/>
<path d="M8067 26678 c-28 -21 -19 -78 15 -98 27 -14 28 -14 72 29 41 41 47
43 73 33 15 -6 52 -16 81 -21 106 -22 162 -64 162 -124 0 -32 -7 -46 -35 -73
-18 -19 -37 -34 -41 -34 -4 0 -15 -6 -23 -14 -31 -28 -120 -66 -154 -66 -55 0
-83 15 -96 52 -12 32 -11 34 41 81 29 27 63 52 76 57 25 11 30 48 6 57 -19 7
-82 -26 -95 -49 -5 -10 -14 -18 -20 -18 -6 0 -24 -14 -41 -30 -72 -72 -35
-159 82 -195 52 -16 67 -17 114 -6 31 7 73 26 97 44 23 18 49 37 57 42 31 22
72 60 72 68 0 5 9 20 20 34 11 15 20 41 20 61 0 50 -63 108 -156 145 -59 23
-93 29 -190 33 -93 5 -123 3 -137 -8z"/>
<path d="M5997 26944 c-2 -3 -89 -7 -191 -9 -108 -2 -192 -8 -199 -14 -8 -6
-64 -9 -141 -8 -112 2 -129 0 -137 -15 -8 -15 -13 -16 -35 -6 -19 9 -30 9 -43
1 -10 -7 -52 -13 -92 -14 -72 -2 -187 -23 -221 -40 -10 -5 -42 -9 -71 -9 -32
0 -61 -6 -76 -16 -15 -11 -33 -14 -52 -10 -20 4 -39 0 -54 -10 -14 -9 -32 -14
-40 -10 -12 4 -49 -5 -125 -32 -8 -3 -35 -6 -60 -7 -25 -1 -62 -9 -84 -18 -21
-9 -49 -17 -63 -17 -34 0 -120 -29 -134 -46 -6 -8 -28 -14 -48 -15 -55 -2 -86
-13 -89 -33 -4 -18 1 -19 58 -13 35 4 68 11 74 16 11 9 57 22 91 26 44 6 101
17 115 22 8 4 18 6 22 5 4 -1 29 8 55 20 49 22 55 23 186 32 43 3 83 9 90 13
7 4 41 13 77 20 36 6 88 17 115 23 28 7 59 12 70 13 11 0 43 6 70 13 56 14
180 30 210 26 10 -1 26 1 35 4 8 4 51 8 95 10 44 2 100 5 125 8 114 12 209 19
250 19 191 -1 316 -6 445 -18 221 -21 269 -25 385 -28 58 -2 116 -6 130 -10
14 -4 50 -9 80 -11 30 -3 97 -19 149 -36 110 -36 128 -31 96 28 -25 46 -83 76
-165 86 -83 11 -284 26 -390 30 -100 4 -363 21 -461 30 -26 3 -49 3 -52 0z"/>
<path d="M12031 26861 c-9 -15 -7 -20 9 -24 23 -6 60 2 60 13 0 6 -44 30 -55
30 -2 0 -9 -9 -14 -19z"/>
<path d="M10787 26853 c-12 -12 -7 -22 8 -17 8 4 15 10 15 15 0 11 -14 12 -23
2z"/>
<path d="M10568 26744 c-14 -14 -20 -15 -30 -6 -15 15 -48 16 -48 1 0 -8 -4
-8 -14 0 -8 7 -27 11 -43 9 -35 -4 -41 -33 -14 -68 19 -23 22 -24 53 -11 31
13 67 16 201 20 41 1 57 5 57 15 0 21 -30 41 -64 43 -17 1 -42 4 -56 8 -17 4
-30 1 -42 -11z"/>
<path d="M10292 26558 c-18 -18 -14 -50 11 -80 17 -21 36 -29 87 -37 82 -14
103 -14 95 -1 -3 6 -16 10 -28 10 -25 0 -102 70 -112 100 -7 22 -35 26 -53 8z"/>
<path d="M9617 26473 c-4 -3 -17 -7 -30 -8 -20 -1 -23 -9 -29 -66 -4 -35 -9
-84 -12 -109 -3 -25 -8 -67 -11 -93 -3 -27 -8 -53 -11 -59 -8 -12 -15 -143
-14 -237 1 -39 8 -77 18 -97 24 -44 77 -86 104 -82 20 3 23 8 20 43 -2 22 -8
48 -13 57 -14 27 -53 379 -46 410 12 45 79 111 113 110 16 0 34 4 40 9 8 6 51
-11 125 -50 63 -34 134 -70 159 -82 25 -11 56 -27 70 -35 14 -8 52 -28 85 -45
33 -17 74 -42 91 -55 17 -12 59 -37 92 -54 34 -17 64 -35 67 -40 3 -5 22 -14
43 -21 20 -6 53 -25 73 -40 20 -16 43 -29 50 -29 8 0 45 -20 82 -45 38 -25 72
-45 76 -45 14 0 61 -25 61 -32 0 -4 37 -26 83 -48 87 -42 166 -87 234 -132 22
-15 56 -34 74 -42 19 -9 68 -40 109 -70 45 -33 86 -55 102 -55 17 -1 32 -9 38
-22 7 -11 39 -33 72 -49 33 -16 73 -40 87 -53 14 -13 51 -34 81 -46 30 -13 66
-33 80 -46 24 -21 60 -38 87 -39 6 -1 21 -11 33 -23 11 -13 29 -23 39 -23 10
0 24 -7 31 -15 7 -9 18 -14 24 -12 6 2 22 -4 35 -14 13 -11 29 -19 36 -19 7 0
29 -13 50 -30 21 -16 48 -30 60 -30 12 0 28 -7 35 -15 14 -17 98 -65 114 -65
6 0 24 -7 39 -15 15 -8 34 -12 42 -8 9 3 15 -1 15 -10 0 -17 69 -67 92 -67 8
0 34 -14 58 -31 43 -31 191 -99 216 -99 8 0 14 -5 14 -11 0 -16 31 -38 52 -39
19 0 81 -31 86 -42 2 -5 17 -8 33 -8 19 0 34 -8 44 -24 9 -14 28 -29 43 -35
15 -6 34 -15 42 -20 34 -21 108 -51 127 -51 11 0 37 -11 57 -25 20 -14 46 -25
56 -25 11 0 20 -7 20 -15 0 -18 25 -32 84 -45 26 -6 70 -21 98 -35 59 -28 98
-32 98 -10 0 10 -14 17 -41 21 -22 4 -43 13 -46 20 -3 8 -19 14 -35 14 -18 0
-45 12 -68 30 -21 17 -44 30 -52 30 -8 0 -23 9 -33 20 -10 11 -27 20 -38 20
-10 0 -49 17 -85 37 -37 20 -119 63 -182 96 -63 32 -142 74 -175 92 -33 19
-67 37 -75 40 -8 4 -22 11 -30 16 -8 5 -26 14 -40 20 -14 6 -32 15 -40 20 -8
4 -42 22 -75 40 -33 17 -64 35 -69 40 -6 5 -18 9 -28 9 -10 0 -18 4 -18 8 0
12 -54 40 -68 35 -8 -3 -26 6 -40 20 -29 27 -197 118 -205 111 -9 -10 -75 27
-91 51 -9 14 -25 25 -35 25 -10 0 -24 7 -31 15 -7 8 -22 15 -34 15 -11 1 -35
9 -52 18 -17 9 -50 27 -72 40 -23 12 -46 31 -52 42 -6 11 -16 20 -23 20 -32 0
-277 133 -277 150 0 5 -12 13 -27 19 -16 6 -39 19 -53 30 -21 16 -190 122
-249 156 -9 6 -39 24 -66 41 -28 18 -61 35 -75 39 -26 8 -83 45 -88 58 -2 4
-40 27 -83 50 -86 45 -191 102 -236 128 -15 9 -64 35 -108 59 -44 23 -84 46
-90 51 -5 5 -16 9 -26 9 -9 0 -28 9 -43 21 -28 22 -70 46 -205 116 -47 23 -90
43 -96 43 -7 0 -20 8 -29 19 -19 21 -108 55 -171 66 -22 4 -46 12 -54 18 -16
14 -49 33 -78 46 -28 13 -30 31 -3 31 11 0 20 -4 20 -10 0 -10 14 -12 89 -11
24 1 50 -4 58 -10 7 -6 23 -9 35 -6 22 6 82 -10 160 -41 20 -8 44 -12 52 -9 9
3 18 2 21 -3 4 -6 17 -10 30 -10 12 0 43 -11 66 -25 24 -14 56 -25 71 -25 30
0 111 -18 143 -31 11 -5 65 -27 120 -49 55 -23 104 -45 110 -51 5 -5 15 -9 23
-9 7 0 32 -9 55 -19 70 -32 119 -51 129 -51 5 0 8 14 6 32 -2 26 -12 37 -48
58 -50 29 -230 100 -300 119 -192 52 -238 63 -280 69 -19 2 -41 9 -48 15 -7 6
-30 12 -50 13 -20 1 -71 12 -112 23 -41 12 -86 19 -99 16 -13 -4 -30 0 -40 8
-16 15 -58 26 -121 32 -19 2 -48 8 -64 14 -20 8 -32 8 -41 1 -9 -7 -21 -7 -39
0 -31 11 -70 13 -79 3z"/>
<path d="M11010 26380 c0 -5 9 -10 20 -10 11 0 20 5 20 10 0 6 -9 10 -20 10
-11 0 -20 -4 -20 -10z"/>
<path d="M11308 26368 c6 -6 18 -8 28 -6 14 3 12 5 -9 10 -19 3 -25 2 -19 -4z"/>
<path d="M11680 26310 c0 -9 40 -30 56 -30 12 0 2 29 -12 34 -24 9 -44 7 -44
-4z"/>
<path d="M11800 26280 c0 -5 9 -10 21 -10 11 0 17 5 14 10 -3 6 -13 10 -21 10
-8 0 -14 -4 -14 -10z"/>
<path d="M11900 26250 c0 -5 5 -10 11 -10 5 0 7 5 4 10 -3 6 -8 10 -11 10 -2
0 -4 -4 -4 -10z"/>
<path d="M11971 26223 c32 -41 122 -82 135 -61 15 23 -70 78 -121 78 -25 0
-26 -2 -14 -17z"/>
<path d="M8992 26118 c-6 -6 -12 -19 -12 -29 0 -36 62 -163 122 -248 34 -49
76 -111 92 -138 17 -26 62 -88 101 -138 39 -49 91 -119 115 -155 82 -120 232
-294 354 -410 272 -258 308 -299 534 -603 30 -40 66 -85 81 -102 15 -16 43
-55 61 -85 19 -30 62 -94 97 -142 60 -81 131 -192 204 -318 29 -49 66 -138 89
-213 5 -15 31 -71 58 -125 27 -53 68 -143 91 -200 22 -56 45 -110 51 -120 5
-9 26 -60 45 -112 56 -149 66 -173 81 -205 7 -16 23 -55 34 -85 34 -86 138
-280 184 -340 23 -30 59 -82 79 -115 19 -33 59 -87 86 -120 28 -33 71 -90 96
-127 25 -37 49 -70 55 -73 5 -3 22 -29 39 -58 17 -28 52 -76 78 -105 39 -44
54 -54 83 -55 55 -3 53 30 -7 101 -27 31 -84 107 -127 167 -43 61 -102 139
-131 175 -30 36 -67 88 -81 115 -15 28 -45 71 -67 96 -59 68 -159 267 -245
484 -164 414 -195 490 -265 636 -31 64 -62 138 -70 165 -25 82 -57 145 -122
240 -35 50 -70 106 -80 124 -9 18 -38 61 -64 94 -26 34 -65 90 -87 126 -21 36
-58 89 -82 117 -24 29 -61 75 -81 102 -218 297 -274 363 -417 497 -200 187
-332 331 -417 454 -30 44 -65 94 -136 196 -19 27 -41 54 -47 59 -19 15 -80
103 -108 155 -13 25 -45 71 -70 104 -25 32 -54 81 -64 108 -29 85 -96 140
-130 106z"/>
<path d="M8102 25830 c-55 -13 -121 -80 -122 -123 0 -36 -17 -67 -35 -67 -18
0 -21 -45 -4 -56 12 -7 44 25 117 116 24 30 60 69 80 86 21 18 32 35 28 42 -8
13 -16 14 -64 2z"/>
<path d="M7893 25593 c-19 -7 -16 -20 8 -44 28 -28 44 -7 22 28 -8 13 -16 23
-17 22 0 0 -7 -3 -13 -6z"/>
<path d="M8076 25475 c-43 -26 -84 -61 -106 -94 -18 -27 -92 -40 -115 -21 -21
18 -41 6 -48 -28 -4 -18 -14 -33 -26 -37 -20 -6 -31 -32 -31 -78 0 -20 -7 -30
-24 -37 -13 -5 -28 -19 -32 -32 -4 -13 -15 -29 -25 -36 -14 -9 -19 -26 -19
-56 0 -49 22 -76 62 -76 23 0 28 8 49 73 21 64 33 81 101 151 96 98 228 186
279 186 26 0 43 -8 63 -29 l27 -28 1 -219 c1 -211 -8 -519 -18 -634 -2 -30 -7
-116 -10 -190 -2 -74 -9 -189 -15 -255 -5 -66 -12 -266 -15 -445 -2 -179 -9
-361 -15 -405 -5 -44 -14 -114 -19 -155 -5 -41 -14 -111 -21 -155 -14 -95 -16
-118 -23 -213 -3 -40 -8 -77 -12 -83 -7 -13 -26 -127 -25 -157 1 -13 -4 -33
-10 -44 -10 -19 -23 -52 -84 -215 -14 -38 -34 -86 -44 -108 -10 -22 -24 -56
-30 -76 -6 -20 -21 -45 -31 -54 -11 -10 -20 -28 -20 -41 0 -13 -4 -26 -10 -29
-5 -3 -10 -13 -10 -22 0 -8 -8 -27 -19 -41 -17 -26 -30 -48 -97 -167 -15 -27
-41 -68 -58 -89 -17 -22 -40 -54 -51 -72 -33 -53 -99 -137 -167 -209 -141
-154 -260 -281 -274 -295 -9 -8 -36 -35 -61 -60 -25 -25 -50 -49 -55 -55 -46
-47 -162 -156 -192 -180 -20 -16 -60 -52 -89 -80 -29 -27 -83 -74 -119 -103
-36 -29 -81 -67 -100 -85 -107 -100 -221 -201 -277 -246 -35 -28 -69 -58 -75
-66 -6 -8 -25 -25 -42 -37 -64 -47 -183 -158 -321 -298 -78 -80 -152 -154
-165 -165 -12 -11 -29 -28 -37 -38 -9 -10 -34 -34 -55 -55 -97 -92 -329 -375
-349 -426 -4 -11 -15 -27 -23 -36 -31 -32 -168 -255 -224 -365 -6 -11 -21 -38
-33 -60 -47 -82 -198 -387 -197 -399 0 -4 -11 -30 -25 -58 -24 -48 -107 -270
-141 -378 -9 -30 -23 -71 -30 -90 -61 -167 -88 -521 -63 -819 14 -175 45 -312
91 -412 65 -140 252 -345 407 -446 207 -135 279 -171 471 -236 126 -43 184
-55 343 -72 115 -12 475 -13 542 -2 17 3 86 12 155 21 69 9 139 21 155 26 17
4 57 11 90 15 33 3 76 10 95 15 19 5 67 14 105 20 82 14 247 62 325 95 30 13
87 36 125 50 39 15 95 41 125 58 30 17 89 48 130 70 91 48 547 353 605 405 11
10 36 29 55 42 19 13 49 35 67 49 17 14 57 47 90 73 204 165 308 256 383 338
47 51 106 114 131 139 26 25 58 62 71 81 24 35 49 65 119 144 40 45 104 129
131 173 10 15 43 66 73 113 31 47 62 99 70 117 8 17 19 34 24 38 6 3 28 38 51
78 61 108 126 207 158 241 16 17 37 43 48 57 177 243 303 397 447 545 90 93
193 204 228 247 178 219 253 305 387 446 134 140 197 217 305 376 21 31 68 80
104 108 118 93 165 141 184 186 22 50 16 50 199 12 145 -30 410 -45 570 -31
211 18 393 40 440 55 25 7 72 21 105 30 33 10 83 27 110 40 54 25 91 39 203
80 39 15 72 30 72 35 0 4 15 13 33 21 63 25 174 120 233 199 72 95 110 184
123 285 10 82 9 96 -10 160 -29 97 -45 124 -120 203 -81 83 -166 145 -290 210
-251 130 -462 173 -644 132 -22 -5 -56 -10 -76 -10 -20 0 -67 -13 -105 -28
-75 -31 -160 -36 -189 -12 -14 12 -11 19 28 59 83 86 87 99 87 262 0 109 5
166 21 234 35 155 35 145 3 171 -16 13 -35 23 -41 24 -39 1 -71 -155 -79 -385
-7 -195 -8 -205 -49 -259 -30 -38 -45 -48 -101 -66 -94 -29 -183 -27 -234 5
-55 35 -121 136 -179 276 -37 90 -84 140 -131 142 -18 1 -35 -3 -37 -9 -2 -6
13 -35 33 -64 20 -29 52 -85 71 -124 96 -195 142 -248 266 -308 69 -34 66 -46
-14 -54 -30 -3 -63 -9 -74 -14 -11 -5 -39 -11 -63 -13 -38 -5 -229 -92 -350
-161 -58 -34 -142 -96 -142 -106 0 -5 -8 -11 -18 -14 -9 -3 -35 -29 -57 -57
-22 -29 -48 -59 -57 -68 -10 -8 -18 -19 -18 -24 0 -5 -20 -31 -44 -58 -55 -62
-71 -115 -62 -215 8 -95 47 -176 126 -255 87 -87 227 -171 325 -195 31 -7 45
-20 45 -41 0 -16 -71 -87 -139 -138 -50 -38 -114 -113 -141 -165 -17 -33 -121
-190 -140 -210 -8 -9 -64 -69 -125 -132 -100 -104 -187 -199 -224 -244 -8 -9
-50 -64 -93 -123 -44 -58 -168 -198 -276 -309 -201 -209 -240 -252 -313 -357
-23 -33 -54 -73 -68 -90 -15 -16 -34 -40 -42 -51 -8 -12 -54 -77 -104 -145
-98 -134 -156 -221 -190 -284 -12 -22 -38 -66 -58 -97 -20 -31 -37 -60 -37
-63 0 -13 -176 -263 -228 -324 -31 -37 -59 -70 -64 -76 -4 -5 -18 -22 -30 -37
-196 -229 -414 -441 -615 -596 -237 -183 -289 -222 -386 -290 -60 -43 -151
-104 -202 -137 -51 -33 -102 -67 -112 -76 -10 -9 -36 -25 -58 -36 -22 -11 -86
-43 -142 -71 -179 -92 -399 -174 -533 -198 -109 -21 -237 -44 -300 -54 -89
-15 -183 -30 -210 -35 -221 -36 -563 -39 -750 -6 -76 13 -198 46 -245 66 -22
9 -60 23 -85 32 -67 23 -206 91 -220 108 -7 8 -17 15 -23 15 -41 0 -280 198
-357 296 -8 11 -31 40 -50 64 -75 95 -121 233 -148 445 -16 123 -14 469 3 591
17 122 67 332 89 379 8 17 24 59 35 95 59 192 306 720 382 819 11 13 19 28 19
33 0 4 12 27 27 51 15 23 34 53 42 67 70 125 134 225 151 235 5 3 31 38 56 77
26 39 90 118 143 177 53 58 112 124 131 145 49 55 342 346 356 354 7 4 63 54
124 112 62 58 124 113 138 122 14 9 44 37 68 62 23 25 47 46 52 46 5 0 27 19
48 43 20 23 45 47 55 52 9 6 41 33 71 60 30 28 83 75 119 105 35 30 85 76 112
103 26 26 51 47 56 47 5 0 24 17 43 38 19 20 54 53 79 72 24 19 51 44 60 55 9
11 90 95 180 186 200 202 256 262 299 322 18 26 37 47 41 47 4 0 25 25 45 56
20 31 58 79 84 107 26 29 68 90 94 137 26 47 51 92 55 100 5 8 16 31 25 50 9
19 20 42 25 50 18 29 141 287 141 295 0 5 9 29 21 54 71 156 99 262 125 471
14 116 19 155 44 345 36 273 39 324 40 580 0 310 5 464 20 620 24 261 40 606
43 910 2 256 -6 305 -64 384 -28 39 -31 41 -82 40 -35 -1 -65 -8 -91 -24z
m4491 -4039 c177 -38 336 -98 497 -189 185 -105 276 -204 302 -330 18 -84 14
-130 -22 -235 -27 -80 -93 -179 -143 -216 -15 -12 -34 -27 -42 -34 -14 -12
-65 -50 -116 -86 -46 -33 -209 -113 -245 -120 -18 -3 -69 -17 -113 -31 -90
-28 -322 -71 -435 -80 -126 -10 -443 -13 -506 -4 -32 5 -114 16 -182 24 -82
10 -133 22 -155 35 -18 11 -50 20 -72 20 -50 0 -193 72 -299 150 -95 69 -156
158 -167 240 -9 66 12 176 42 214 10 13 19 30 19 38 0 8 20 34 46 59 25 24 68
67 97 95 47 47 175 134 196 134 4 0 25 14 46 30 21 17 43 30 49 30 6 0 25 7
41 16 17 9 62 27 100 41 39 14 88 33 110 43 92 42 114 48 195 60 179 26 224
29 267 20 24 -6 81 -7 127 -4 92 7 193 -7 266 -38 29 -12 70 -46 115 -94 55
-58 76 -74 98 -74 61 0 38 61 -59 155 -52 50 -77 66 -135 85 -38 13 -72 27
-75 32 -19 30 46 36 153 14z"/>
<path d="M11995 20997 c-7 -17 -23 -75 -35 -127 -11 -52 -27 -117 -35 -145
-16 -60 -31 -141 -39 -211 -5 -42 -3 -54 15 -73 14 -14 30 -21 47 -19 23 2 27
8 28 34 4 132 17 247 33 294 53 152 62 210 41 249 -18 34 -40 33 -55 -2z"/>
<path d="M7880 25469 c0 -5 5 -7 10 -4 6 3 10 8 10 11 0 2 -4 4 -10 4 -5 0
-10 -5 -10 -11z"/>
<path d="M7855 25439 c-4 -6 -5 -13 -2 -16 7 -7 27 6 27 18 0 12 -17 12 -25
-2z"/>
<path d="M3895 24799 c-38 -4 -90 -10 -115 -13 -52 -6 -188 -50 -242 -77 -20
-11 -46 -19 -57 -19 -26 0 -74 -21 -84 -37 -12 -19 -84 -54 -120 -59 -17 -2
-40 -12 -51 -22 -12 -11 -34 -30 -51 -43 -16 -13 -42 -36 -57 -50 -15 -15 -34
-29 -43 -32 -8 -4 -15 -15 -15 -26 0 -12 -11 -25 -26 -33 -15 -7 -35 -28 -45
-47 -10 -19 -22 -37 -26 -40 -4 -3 -15 -22 -24 -41 -8 -19 -23 -51 -32 -70
-18 -40 -42 -121 -38 -134 1 -5 -5 -24 -14 -43 -12 -26 -14 -38 -6 -46 15 -15
14 -37 -4 -57 -9 -9 -15 -38 -16 -66 -2 -71 39 -229 68 -265 7 -8 13 -18 13
-22 0 -11 59 -93 95 -133 20 -21 42 -46 48 -54 17 -21 133 -108 208 -155 141
-88 292 -129 518 -140 47 -2 92 0 102 5 9 5 48 12 85 14 102 7 286 54 304 77
3 4 30 15 60 24 30 10 60 24 66 31 6 8 15 14 19 14 12 0 158 111 168 127 4 7
15 13 23 13 17 0 94 79 94 98 0 7 16 20 36 29 20 10 44 33 55 53 11 19 35 55
54 80 18 25 34 52 34 61 1 24 31 80 47 86 25 9 45 111 46 228 1 126 -62 302
-138 388 -19 20 -34 41 -34 46 0 16 -96 104 -160 146 -170 111 -356 180 -550
203 -85 11 -99 11 -195 1z m243 -110 c63 -5 127 -16 142 -24 16 -8 40 -15 53
-15 13 0 35 -8 48 -18 13 -10 49 -29 79 -42 69 -30 149 -80 174 -109 11 -11
25 -21 32 -21 7 0 25 -20 40 -45 14 -25 35 -52 46 -59 24 -17 108 -145 108
-166 0 -8 7 -28 15 -44 9 -16 13 -38 9 -48 -3 -11 -7 -42 -9 -69 -2 -40 2 -52
17 -63 21 -15 15 -39 -16 -65 -8 -7 -13 -18 -10 -25 6 -16 -23 -86 -36 -86 -6
0 -10 -8 -10 -19 0 -10 -7 -24 -15 -31 -9 -8 -13 -21 -9 -32 4 -14 0 -21 -13
-24 -10 -3 -30 -26 -43 -52 -14 -26 -34 -51 -46 -57 -26 -13 -134 -122 -134
-135 0 -6 -5 -10 -11 -10 -6 0 -41 -25 -77 -55 -37 -31 -74 -54 -82 -53 -9 2
-25 -6 -37 -17 -12 -11 -44 -28 -70 -38 -26 -10 -71 -27 -98 -38 -28 -10 -62
-19 -77 -19 -15 0 -29 -4 -32 -9 -7 -11 -145 -33 -221 -36 -33 -1 -118 5 -190
12 -124 14 -135 17 -241 68 -61 30 -126 64 -145 77 -76 52 -229 203 -229 225
0 8 -9 26 -20 40 -11 14 -20 31 -20 38 0 7 -7 26 -15 41 -8 16 -15 48 -15 72
0 23 -4 42 -9 42 -18 0 5 255 25 275 8 7 14 22 14 33 0 11 7 25 15 32 8 7 15
19 15 27 0 26 93 186 112 192 7 2 45 36 83 75 56 57 83 76 131 94 34 12 76 33
95 47 46 34 113 65 152 71 22 4 46 -2 80 -20 39 -21 49 -23 53 -11 3 8 -1 21
-10 30 -17 18 -12 41 12 50 9 3 57 9 107 12 49 3 91 6 92 7 6 6 90 3 191 -5z"/>
<path d="M13695 24260 c-5 -9 6 -15 63 -35 6 -2 12 -9 12 -15 0 -18 52 -33 62
-18 13 22 10 26 -48 52 -61 28 -79 31 -89 16z"/>
<path d="M11885 24224 c-12 -12 -14 -24 -8 -43 4 -14 7 -78 7 -141 -1 -114
-21 -228 -57 -328 -8 -23 -13 -51 -10 -61 2 -10 -3 -42 -12 -72 -9 -30 -21
-79 -26 -109 -5 -30 -11 -68 -14 -85 -12 -65 -36 -241 -37 -260 -1 -117 6
-203 18 -222 20 -32 18 -48 -11 -79 -44 -47 -26 -98 46 -135 47 -24 82 -22 87
5 4 17 -20 112 -50 206 -13 42 -14 254 0 290 5 14 12 61 16 105 4 44 11 84 15
90 10 12 23 66 26 110 4 46 39 202 48 211 4 4 7 18 7 31 0 26 18 108 31 138 5
11 13 56 19 100 21 152 18 194 -16 234 -29 35 -54 39 -79 15z"/>
<path d="M13866 24186 c6 -16 27 -27 62 -33 35 -6 27 21 -11 35 -44 16 -58 15
-51 -2z"/>
<path d="M13972 24138 c5 -15 108 -71 116 -63 13 13 -74 75 -105 75 -8 0 -13
-6 -11 -12z"/>
<path d="M14142 24053 c2 -22 7 -27 24 -25 12 2 24 -4 27 -13 4 -8 17 -15 30
-15 14 0 30 -7 37 -15 14 -17 36 -20 45 -5 3 6 -2 13 -12 16 -40 13 -69 29
-88 50 -11 12 -30 25 -43 29 -21 6 -23 4 -20 -22z"/>
<path d="M14358 23963 c7 -3 16 -2 19 1 4 3 -2 6 -13 5 -11 0 -14 -3 -6 -6z"/>
<path d="M14420 23926 c0 -2 7 -6 15 -10 8 -3 15 -1 15 4 0 6 -7 10 -15 10 -8
0 -15 -2 -15 -4z"/>
<path d="M14560 23861 c0 -18 36 -51 59 -53 37 -4 35 17 -4 41 -39 23 -55 26
-55 12z"/>
<path d="M14696 23801 c-4 -5 -3 -16 0 -25 8 -20 44 -21 44 -1 0 17 -36 39
-44 26z"/>
<path d="M14820 23730 c0 -13 18 -22 24 -11 3 5 -1 11 -9 15 -8 3 -15 1 -15
-4z"/>
<path d="M14927 23664 c-8 -8 1 -24 14 -24 5 0 9 7 9 15 0 15 -12 20 -23 9z"/>
<path d="M14970 23620 c0 -5 5 -10 10 -10 6 0 10 5 10 10 0 6 -4 10 -10 10 -5
0 -10 -4 -10 -10z"/>
<path d="M15050 23600 c0 -13 41 -30 54 -22 11 6 -22 32 -41 32 -7 0 -13 -5
-13 -10z"/>
<path d="M15281 23459 c26 -20 64 -25 74 -10 8 14 -13 24 -58 26 l-40 2 24
-18z"/>
<path d="M15413 23412 c10 -10 17 -24 17 -30 0 -15 10 -15 30 -2 13 9 12 13
-9 30 -13 11 -30 20 -39 20 -13 0 -13 -2 1 -18z"/>
<path d="M15480 23370 c0 -5 9 -10 21 -10 11 0 17 5 14 10 -3 6 -13 10 -21 10
-8 0 -14 -4 -14 -10z"/>
<path d="M15646 23275 c9 -14 22 -25 30 -25 7 0 18 -9 24 -20 9 -17 14 -18 31
-9 16 8 18 13 8 25 -6 8 -18 14 -25 14 -8 0 -23 9 -34 20 -11 11 -27 20 -35
20 -14 0 -13 -3 1 -25z"/>
<path d="M15800 23205 c0 -9 8 -19 18 -22 9 -4 29 -16 45 -27 18 -13 30 -17
37 -10 7 7 -6 21 -40 42 -59 37 -60 37 -60 17z"/>
<path d="M15930 23130 c0 -6 7 -10 15 -10 8 0 15 2 15 4 0 2 -7 6 -15 10 -8 3
-15 1 -15 -4z"/>
<path d="M15979 23093 c4 -16 16 -30 27 -32 10 -2 27 -12 38 -23 21 -22 38
-13 30 18 -4 17 -75 64 -96 64 -3 0 -3 -12 1 -27z"/>
<path d="M16130 23020 c0 -13 38 -32 57 -28 15 3 15 5 -1 21 -19 18 -56 23
-56 7z"/>
<path d="M16290 22909 c0 -19 4 -21 31 -15 27 5 30 3 27 -16 -3 -19 2 -23 35
-25 48 -4 46 14 -3 39 -18 9 -38 22 -43 27 -19 19 -47 13 -47 -10z"/>
<path d="M16420 22818 c0 -4 13 -8 29 -8 17 0 33 -4 36 -10 3 -5 14 -10 25
-10 10 0 20 -7 24 -15 6 -15 36 -21 36 -7 0 14 -24 32 -42 32 -10 0 -21 6 -24
14 -6 16 -84 19 -84 4z"/>
<path d="M16600 22740 c0 -5 4 -10 10 -10 5 0 12 -11 16 -24 7 -29 31 -41 51
-25 10 9 17 9 25 1 7 -7 19 -12 27 -12 22 0 -2 22 -61 54 -50 28 -68 32 -68
16z"/>
<path d="M16746 22651 c-3 -5 1 -11 9 -15 9 -3 15 0 15 9 0 16 -16 20 -24 6z"/>
<path d="M16847 22594 c-9 -9 6 -56 19 -61 18 -7 64 5 64 16 0 11 -76 52 -83
45z"/>
<path d="M17020 22467 c0 -7 13 -26 29 -41 l28 -27 5 25 c3 16 -1 31 -12 41
-20 18 -50 20 -50 2z"/>
<path d="M4903 22398 c-25 -12 -27 -24 -13 -83 6 -22 12 -121 15 -219 7 -252
11 -268 67 -247 24 9 26 15 32 103 3 51 9 154 12 229 l6 135 -34 44 c-37 49
-51 55 -85 38z"/>
<path d="M17115 22390 c-3 -5 1 -10 9 -10 9 0 16 5 16 10 0 6 -4 10 -9 10 -6
0 -13 -4 -16 -10z"/>
<path d="M17170 22370 c0 -6 12 -15 26 -20 37 -15 40 -12 11 10 -28 22 -37 25
-37 10z"/>
<path d="M17252 22303 c2 -10 13 -19 26 -21 24 -4 29 7 10 26 -18 18 -40 15
-36 -5z"/>
<path d="M17310 22257 c0 -7 16 -28 35 -47 34 -33 36 -33 53 -16 16 17 15 19
-18 47 -36 30 -70 38 -70 16z"/>
<path d="M17495 22120 c-9 -15 4 -30 26 -30 22 0 24 11 7 28 -15 15 -25 15
-33 2z"/>
<path d="M17540 22068 c0 -8 43 -28 61 -28 5 0 9 6 9 14 0 8 -14 15 -35 18
-19 2 -35 0 -35 -4z"/>
<path d="M17623 22023 c-16 -6 2 -43 20 -43 7 0 28 -16 47 -35 35 -36 54 -43
65 -24 7 10 -61 78 -79 79 -5 0 -17 6 -25 14 -9 7 -22 11 -28 9z"/>
<path d="M17780 21891 c0 -23 35 -51 64 -51 18 0 18 2 -5 26 -37 40 -59 49
-59 25z"/>
<path d="M3005 21894 c-60 -13 -180 -48 -220 -65 -66 -28 -100 -39 -119 -39
-12 0 -27 -9 -34 -21 -7 -11 -19 -18 -27 -15 -7 2 -30 -8 -51 -25 -20 -16 -40
-29 -45 -29 -5 0 -33 -20 -63 -45 -31 -25 -64 -45 -73 -45 -10 0 -27 -13 -38
-30 -11 -16 -32 -35 -47 -41 -15 -6 -45 -30 -67 -52 -22 -23 -53 -53 -70 -67
-17 -14 -40 -45 -53 -70 -13 -25 -28 -49 -35 -55 -28 -24 4 -252 44 -311 11
-16 33 -49 49 -73 35 -54 118 -121 148 -121 12 0 26 -4 32 -10 29 -29 498 -31
549 -3 11 6 35 17 53 24 18 6 29 15 25 19 -19 17 -126 29 -223 25 -130 -4
-310 24 -387 62 -83 40 -135 92 -162 162 l-24 61 23 67 c28 84 54 118 149 199
42 36 83 71 92 79 9 8 21 15 28 15 6 0 14 6 17 14 3 8 35 28 72 46 37 18 76
40 87 50 11 9 56 29 100 45 44 15 94 33 110 40 140 58 227 66 283 27 64 -46
113 0 78 73 -20 41 -71 93 -103 106 -24 9 -61 10 -98 3z"/>
<path d="M3884 21858 c-3 -5 -19 -8 -37 -8 -84 -1 -98 -3 -85 -11 8 -6 0 -9
-23 -9 -21 0 -47 -8 -62 -20 -14 -11 -30 -20 -35 -20 -5 0 -17 -12 -26 -26
-10 -14 -23 -23 -29 -21 -22 8 -46 -13 -83 -71 -21 -31 -42 -61 -48 -67 -31
-28 -61 -208 -48 -284 11 -63 71 -175 99 -184 10 -4 29 -15 43 -26 21 -17 41
-21 115 -22 110 -2 132 3 214 53 34 21 68 38 73 38 18 0 94 89 123 144 23 43
37 59 67 71 49 19 48 19 48 -9 0 -13 7 -29 15 -36 10 -8 15 -30 15 -61 0 -26
4 -50 9 -53 4 -3 12 -34 15 -68 8 -65 38 -149 62 -169 8 -6 26 -8 45 -4 23 5
35 16 46 42 20 48 10 80 -30 96 -37 16 -54 44 -61 102 -2 22 -9 63 -15 92 -5
29 -12 99 -16 155 -3 57 -8 112 -11 123 -8 25 -44 65 -59 65 -23 0 -43 -36
-50 -88 -4 -29 -13 -56 -20 -58 -8 -3 -21 -23 -29 -45 -9 -22 -22 -42 -30 -45
-8 -3 -20 -20 -27 -37 -16 -39 -95 -115 -129 -124 -14 -3 -37 -14 -52 -24 -14
-11 -35 -19 -46 -19 -11 0 -25 -6 -31 -14 -18 -21 -99 -36 -147 -27 -48 9
-109 52 -130 92 -20 40 -19 159 4 200 54 101 153 177 272 210 67 18 199 20
231 4 15 -8 44 -17 66 -21 37 -6 39 -5 52 31 10 30 11 42 1 59 -22 38 -79 78
-120 83 -22 3 -37 10 -34 15 3 5 -17 7 -46 6 -29 -2 -54 -6 -56 -10z"/>
<path d="M5327 21823 c-3 -5 -2 -15 3 -23 7 -11 15 -12 36 -5 15 6 28 15 28
20 1 12 -60 19 -67 8z"/>
<path d="M5100 21798 c-25 -11 -53 -24 -62 -29 -10 -5 -22 -9 -28 -9 -6 0 -29
-9 -53 -19 -40 -19 -127 -33 -127 -21 0 3 -19 5 -42 5 -32 0 -56 -9 -91 -32
-26 -18 -52 -33 -57 -33 -5 0 -13 -6 -17 -13 -4 -7 -34 -30 -65 -51 -58 -39
-77 -70 -70 -114 5 -31 42 -48 71 -33 11 7 21 17 21 23 0 16 51 68 66 68 6 0
54 22 105 48 107 55 139 64 179 49 25 -9 34 -7 69 17 22 15 57 32 78 37 21 6
55 15 77 20 21 5 51 16 67 24 15 8 39 15 52 15 29 0 50 21 42 42 -7 17 -63 21
-82 6 -8 -7 -20 -4 -35 6 -29 20 -43 19 -98 -6z"/>
<path d="M17950 21764 c0 -16 23 -44 35 -44 20 0 19 13 -3 33 -19 17 -32 22
-32 11z"/>
<path d="M18010 21692 c0 -10 13 -28 30 -40 37 -28 38 -27 32 3 -3 16 -11 25
-23 25 -11 0 -19 7 -19 15 0 8 -4 15 -10 15 -5 0 -10 -8 -10 -18z"/>
<path d="M4959 21608 c0 -2 -2 -14 -4 -28 -12 -79 -26 -153 -30 -159 -7 -13
21 -45 33 -37 5 3 13 25 17 49 4 23 11 50 16 59 10 19 -9 118 -23 118 -4 0 -8
-1 -9 -2z"/>
<path d="M18130 21574 c0 -11 55 -64 67 -64 7 0 16 -6 20 -14 4 -7 23 -21 41
-30 17 -9 32 -21 32 -27 0 -6 5 -7 10 -4 14 9 -8 46 -31 52 -10 3 -27 20 -38
39 -11 19 -32 39 -46 44 -29 11 -55 13 -55 4z"/>
<path d="M18360 21391 c0 -24 18 -37 32 -23 8 8 7 16 -2 27 -17 21 -30 19 -30
-4z"/>
<path d="M4950 21340 c0 -5 5 -10 10 -10 6 0 10 5 10 10 0 6 -4 10 -10 10 -5
0 -10 -4 -10 -10z"/>
<path d="M18430 21321 c0 -24 18 -37 31 -24 13 13 1 43 -17 43 -8 0 -14 -9
-14 -19z"/>
<path d="M4920 21291 c0 -6 5 -13 10 -16 6 -3 10 1 10 9 0 9 -4 16 -10 16 -5
0 -10 -4 -10 -9z"/>
<path d="M4925 21250 c-8 -13 4 -32 16 -25 12 8 12 35 0 35 -6 0 -13 -4 -16
-10z"/>
<path d="M18520 21241 c0 -22 25 -45 40 -36 16 10 12 21 -15 39 -24 16 -25 15
-25 -3z"/>
<path d="M4894 21196 c-8 -22 3 -33 18 -18 9 9 9 15 0 24 -9 9 -13 7 -18 -6z"/>
<path d="M18580 21181 c0 -14 18 -23 31 -15 8 4 7 9 -2 15 -18 11 -29 11 -29
0z"/>
<path d="M18645 21110 c-3 -6 1 -13 10 -16 19 -8 30 0 20 15 -8 14 -22 14 -30
1z"/>
<path d="M18760 21011 c0 -13 29 -35 37 -28 7 8 -15 37 -28 37 -5 0 -9 -4 -9
-9z"/>
<path d="M18835 20930 c10 -11 20 -20 22 -20 2 0 -2 9 -9 20 -7 11 -17 20 -22
20 -5 0 -1 -9 9 -20z"/>
<path d="M2960 20860 c0 -5 4 -10 9 -10 6 0 13 5 16 10 3 6 -1 10 -9 10 -9 0
-16 -4 -16 -10z"/>
<path d="M19010 20755 c0 -8 5 -15 10 -15 6 0 10 7 10 15 0 8 -4 15 -10 15 -5
0 -10 -7 -10 -15z"/>
<path d="M19040 20700 c0 -5 5 -10 11 -10 5 0 7 5 4 10 -3 6 -8 10 -11 10 -2
0 -4 -4 -4 -10z"/>
<path d="M19190 20558 c0 -18 18 -34 28 -24 3 4 -2 14 -11 23 -16 16 -17 16
-17 1z"/>
<path d="M19220 20511 c0 -5 7 -15 17 -22 15 -13 15 -12 4 9 -12 23 -21 28
-21 13z"/>
<path d="M19300 20421 c0 -5 5 -13 10 -16 6 -3 10 -2 10 4 0 5 -4 13 -10 16
-5 3 -10 2 -10 -4z"/>
<path d="M19430 20280 c0 -5 5 -10 11 -10 5 0 7 5 4 10 -3 6 -8 10 -11 10 -2
0 -4 -4 -4 -10z"/>
<path d="M19460 20238 c0 -18 18 -34 28 -24 3 4 -2 14 -11 23 -16 16 -17 16
-17 1z"/>
<path d="M12910 20135 c-7 -9 -10 -25 -6 -40 4 -16 114 -133 275 -293 173
-173 297 -306 351 -377 47 -60 127 -164 180 -230 101 -126 206 -274 241 -339
31 -59 161 -248 222 -324 30 -37 78 -103 108 -147 30 -44 107 -150 172 -236
64 -86 117 -161 117 -166 0 -5 11 -20 25 -33 14 -13 25 -28 25 -33 0 -5 15
-34 34 -66 18 -31 43 -84 55 -116 12 -32 33 -83 47 -112 37 -82 107 -282 153
-440 22 -72 43 -122 145 -336 31 -65 56 -126 56 -136 0 -9 6 -25 13 -36 8 -11
24 -49 36 -85 18 -56 19 -66 6 -79 -12 -13 -19 -12 -52 5 -21 10 -61 38 -88
60 -50 42 -65 60 -218 287 -84 124 -115 150 -170 145 -25 -2 -33 -8 -35 -26
-3 -18 13 -41 65 -95 38 -40 105 -126 149 -192 43 -66 96 -137 116 -157 123
-123 330 -142 532 -49 46 21 89 47 94 58 6 10 21 25 35 32 13 7 32 27 42 44
10 18 26 40 37 50 23 23 23 28 -3 61 -34 44 -67 33 -100 -34 -33 -64 -74 -103
-169 -160 -51 -31 -77 -41 -101 -38 -41 4 -50 19 -82 158 -16 70 -44 145 -82
225 -96 202 -112 238 -130 300 -35 117 -96 300 -110 332 -8 17 -15 35 -15 40
0 9 -70 185 -100 250 -27 59 -172 284 -239 371 -31 40 -84 112 -119 160 -34
48 -109 149 -165 226 -88 120 -273 393 -325 480 -9 15 -35 51 -58 80 -22 28
-110 143 -194 255 -148 197 -226 283 -452 497 -43 40 -109 108 -147 152 -95
107 -145 138 -171 107z"/>
<path d="M19585 20050 c3 -5 10 -10 16 -10 5 0 9 5 9 10 0 6 -7 10 -16 10 -8
0 -12 -4 -9 -10z"/>
<path d="M19819 19769 c12 -12 25 -18 28 -15 4 3 -2 13 -13 21 -29 22 -41 18
-15 -6z"/>
<path d="M19888 19675 c4 -25 19 -41 28 -32 6 6 -17 57 -26 57 -4 0 -5 -11 -2
-25z"/>
<path d="M20055 19450 c3 -5 8 -10 11 -10 2 0 4 5 4 10 0 6 -5 10 -11 10 -5 0
-7 -4 -4 -10z"/>
<path d="M7365 19410 c-52 -7 -65 -11 -125 -38 -19 -8 -48 -19 -65 -23 -61
-16 -118 -40 -134 -58 -9 -10 -35 -23 -58 -30 -24 -6 -43 -16 -43 -21 0 -4
-16 -14 -36 -20 -20 -7 -54 -30 -75 -51 -22 -22 -43 -39 -49 -39 -29 0 -290
-237 -290 -263 0 -5 -13 -25 -30 -44 -16 -18 -30 -42 -30 -53 0 -10 -4 -22
-10 -25 -5 -3 -10 -15 -10 -25 0 -10 -9 -34 -20 -53 -16 -27 -20 -54 -22 -139
0 -57 2 -110 6 -116 4 -7 13 -36 21 -66 8 -30 35 -94 60 -142 25 -48 45 -96
45 -106 0 -28 76 -91 204 -170 91 -55 282 -90 320 -58 10 7 22 7 41 0 29 -11
170 -5 245 10 174 36 243 55 296 81 34 16 71 29 81 29 11 0 30 12 44 26 13 14
42 35 64 46 46 23 94 67 95 86 0 6 11 12 24 12 13 0 37 14 57 35 19 19 39 35
45 35 15 0 75 70 90 106 7 18 26 45 42 61 27 26 28 31 15 49 -14 18 -15 18
-44 -16 -16 -19 -29 -43 -29 -53 0 -10 -9 -21 -20 -24 -11 -3 -20 -10 -20 -15
0 -18 -141 -147 -156 -141 -8 3 -14 1 -14 -5 0 -14 -104 -92 -123 -92 -9 0
-20 -7 -25 -16 -9 -17 -73 -44 -103 -44 -9 0 -28 -9 -42 -20 -14 -11 -36 -20
-50 -20 -13 0 -30 -7 -37 -15 -7 -9 -21 -13 -31 -10 -9 3 -20 1 -24 -5 -4 -6
-20 -8 -39 -4 -18 3 -50 1 -72 -5 -51 -13 -324 -15 -394 -2 -130 23 -269 91
-342 166 -84 87 -161 274 -160 390 0 67 22 165 46 210 9 17 16 33 16 37 0 12
83 128 92 128 4 0 8 5 8 10 0 13 149 160 162 160 10 0 143 104 153 120 4 6 11
8 16 5 5 -4 21 2 37 13 42 30 152 82 173 82 10 0 22 7 26 15 5 8 34 18 68 24
33 5 99 20 147 35 48 14 94 23 103 20 27 -11 16 20 -12 34 -29 13 -31 13 -108
2z"/>
<path d="M7531 19333 c-36 -51 -38 -67 -11 -86 21 -14 66 -12 76 4 3 5 17 9
32 9 17 0 32 8 40 21 11 18 20 20 77 16 45 -4 69 -1 82 9 27 20 69 17 158 -12
101 -33 175 -74 175 -96 0 -10 -7 -18 -15 -18 -8 0 -15 4 -15 9 0 15 -92 64
-125 66 -16 1 -38 6 -48 10 -11 4 -23 3 -29 -3 -8 -8 -3 -14 18 -22 67 -24 83
-33 100 -51 9 -10 21 -16 25 -13 5 3 20 -3 33 -13 29 -23 82 -23 80 1 -2 20 5
20 27 0 13 -11 16 -25 12 -55 -5 -31 -2 -39 10 -39 9 0 24 -14 33 -32 37 -71
40 -135 4 -88 -22 29 -33 12 -15 -23 14 -28 13 -103 -5 -191 -7 -34 -7 -53 1
-62 8 -9 5 -15 -10 -24 -12 -6 -21 -19 -21 -28 0 -10 -5 -23 -12 -30 -14 -14
-10 -19 17 -24 15 -2 22 5 30 29 5 18 17 35 26 38 45 15 69 293 35 423 -17 66
-24 77 -86 140 -37 37 -85 75 -106 86 -22 10 -47 22 -56 27 -10 5 -26 9 -37 9
-10 0 -35 7 -54 15 -20 8 -55 17 -79 19 -24 2 -58 9 -76 15 -18 5 -84 9 -147
9 l-114 -2 -30 -43z"/>
<path d="M7830 19270 c0 -5 7 -10 16 -10 8 0 12 5 9 10 -3 6 -10 10 -16 10 -5
0 -9 -4 -9 -10z"/>
<path d="M7870 19260 c0 -5 9 -10 21 -10 11 0 17 5 14 10 -3 6 -13 10 -21 10
-8 0 -14 -4 -14 -10z"/>
<path d="M20250 19153 c0 -6 9 -21 20 -34 15 -18 19 -20 20 -8 0 9 -9 24 -20
34 -11 10 -20 13 -20 8z"/>
<path d="M8170 19100 c0 -5 5 -10 11 -10 5 0 7 5 4 10 -3 6 -8 10 -11 10 -2 0
-4 -4 -4 -10z"/>
<path d="M20337 19014 c-9 -10 4 -34 19 -34 8 0 14 4 14 9 0 12 -26 32 -33 25z"/>
<path d="M15467 18809 c-13 -8 -17 -24 -17 -72 0 -34 -5 -114 -11 -177 -16
-176 -19 -279 -9 -350 5 -36 12 -103 15 -150 3 -47 11 -132 16 -190 6 -58 11
-141 11 -184 -1 -53 4 -86 14 -100 19 -28 18 -34 -8 -38 -42 -6 -50 -105 -12
-143 20 -19 68 -19 88 0 18 19 12 68 -13 105 -15 21 -15 29 -4 50 10 19 12 57
8 150 -3 69 -5 138 -5 154 0 17 -4 53 -10 81 -6 28 -13 80 -16 115 -15 194
-20 307 -13 320 4 8 9 52 13 98 3 45 10 90 15 101 6 10 10 26 11 37 0 10 3 47
6 82 5 53 3 67 -12 84 -27 29 -47 38 -67 27z"/>
<path d="M20467 18784 c-4 -4 1 -19 11 -33 32 -49 42 -66 52 -88 8 -19 30 -33
30 -19 0 17 -34 78 -46 83 -8 3 -13 12 -9 21 9 23 -21 52 -38 36z"/>
<path d="M8175 18490 c3 -5 8 -10 11 -10 2 0 4 5 4 10 0 6 -5 10 -11 10 -5 0
-7 -4 -4 -10z"/>
<path d="M1905 18291 c-120 -10 -148 -46 -177 -225 -7 -42 20 -22 67 50 37 55
61 81 90 96 42 21 142 32 151 17 3 -5 13 -9 23 -9 10 0 30 -9 44 -20 14 -11
38 -20 54 -20 32 0 80 -41 69 -58 -3 -6 2 -24 11 -42 16 -27 22 -30 51 -25 35
6 38 4 20 -24 -9 -15 -7 -26 10 -55 12 -21 22 -50 22 -66 0 -16 5 -32 10 -35
6 -4 7 -23 4 -45 -4 -21 -2 -51 3 -67 7 -17 7 -38 1 -53 -7 -19 -5 -27 8 -37
10 -7 21 -13 26 -13 17 0 28 44 32 132 3 79 1 97 -15 120 -11 14 -19 33 -19
42 0 8 -11 23 -25 32 -24 15 -38 73 -15 59 6 -3 10 2 10 12 0 21 -36 48 -65
48 -14 0 -21 8 -23 28 -3 28 -41 77 -59 77 -6 0 -22 9 -35 20 -30 23 -119 56
-168 62 -19 3 -66 2 -105 -1z"/>
<path d="M1027 18188 c-9 -18 -18 -76 -22 -128 -4 -52 -11 -144 -16 -205 -10
-120 -3 -255 13 -255 7 0 8 -19 4 -54 -8 -59 4 -96 29 -96 18 0 19 11 4 44 -9
19 -9 29 0 39 8 10 9 33 2 78 -5 35 -5 68 -1 73 11 11 1 69 -14 78 -7 4 -4 14
7 26 18 20 15 72 -4 72 -15 0 -10 19 18 63 15 24 28 59 29 82 1 22 9 44 18 51
20 14 46 75 46 107 0 32 -30 57 -67 57 -25 0 -34 -6 -46 -32z"/>
<path d="M20770 18210 c0 -5 5 -10 11 -10 5 0 7 5 4 10 -3 6 -8 10 -11 10 -2
0 -4 -4 -4 -10z"/>
<path d="M20803 18125 c0 -14 3 -25 8 -25 5 0 9 11 9 25 0 14 -4 25 -9 25 -5
0 -8 -11 -8 -25z"/>
<path d="M1992 18040 c-47 -32 -62 -48 -67 -73 -4 -18 -16 -42 -27 -54 -13
-14 -18 -28 -14 -41 4 -13 -2 -33 -19 -57 -14 -21 -25 -43 -25 -49 -3 -80 -12
-119 -32 -146 -19 -27 -23 -43 -22 -106 1 -63 5 -78 24 -99 12 -13 28 -35 34
-47 7 -14 29 -29 56 -38 25 -8 51 -19 58 -24 13 -8 29 -3 84 25 11 5 18 4 22
-4 3 -8 8 -7 15 5 6 9 25 19 41 23 34 7 173 140 167 159 -2 6 -20 10 -40 10
-28 -1 -46 -10 -76 -41 -60 -60 -111 -91 -162 -98 -40 -6 -49 -3 -77 20 -43
36 -66 86 -58 128 3 17 2 48 -4 67 -6 22 -6 38 0 44 6 6 10 17 10 26 0 9 9 25
20 35 11 10 20 30 20 44 0 14 7 35 15 45 8 11 15 27 15 35 0 19 83 108 123
134 15 10 33 29 39 42 9 21 7 28 -13 49 -13 14 -29 26 -35 26 -7 0 -39 -18
-72 -40z"/>
<path d="M1705 18030 c-3 -6 -2 -10 4 -10 6 0 8 -12 5 -27 -2 -16 0 -35 6 -43
9 -13 11 -13 20 0 16 25 11 64 -10 77 -12 8 -21 9 -25 3z"/>
<path d="M2376 18005 c4 -8 11 -15 16 -15 6 0 5 6 -2 15 -7 8 -14 15 -16 15
-2 0 -1 -7 2 -15z"/>
<path d="M20920 17920 c0 -5 7 -10 16 -10 8 0 12 5 9 10 -3 6 -10 10 -16 10
-5 0 -9 -4 -9 -10z"/>
<path d="M5364 17862 c-7 -4 -10 -50 -10 -122 0 -116 -22 -264 -49 -325 -14
-32 -36 -209 -36 -290 0 -52 19 -102 67 -172 59 -89 102 -94 231 -27 48 26 95
52 103 59 8 7 25 16 37 19 23 7 75 36 150 84 141 89 197 122 209 122 20 0 64
-64 64 -93 0 -37 16 -102 58 -240 31 -98 41 -121 63 -132 52 -28 149 21 149
76 0 25 -38 49 -76 49 -53 0 -72 25 -79 105 -7 86 -18 139 -39 187 -9 21 -16
50 -16 66 0 34 -18 92 -34 108 -6 6 -30 14 -53 17 -36 4 -45 1 -74 -27 -17
-17 -46 -40 -64 -51 -31 -19 -49 -31 -179 -116 -32 -22 -66 -39 -75 -39 -9 0
-36 -14 -60 -30 -27 -18 -52 -28 -62 -25 -11 4 -34 -4 -56 -19 -69 -47 -161
-27 -164 37 -2 45 3 83 17 132 29 102 84 374 90 447 4 41 4 92 0 111 -13 67
-73 115 -112 89z"/>
<path d="M7700 17646 c-9 -26 -5 -84 11 -126 5 -14 11 -41 14 -60 13 -84 17
-96 40 -107 18 -8 27 -8 34 1 17 20 24 183 11 232 -21 73 -90 111 -110 60z"/>
<path d="M21042 17654 c1 -9 9 -19 16 -22 9 -3 13 2 10 14 -1 9 -9 19 -16 22
-9 3 -13 -2 -10 -14z"/>
<path d="M2330 17614 c0 -17 22 -14 28 4 2 7 -3 12 -12 12 -9 0 -16 -7 -16
-16z"/>
<path d="M21160 17422 c0 -11 9 -27 20 -37 19 -17 20 -17 20 1 -1 19 -22 54
-34 54 -3 0 -6 -8 -6 -18z"/>
<path d="M1040 17409 c0 -5 5 -7 10 -4 6 3 10 8 10 11 0 2 -4 4 -10 4 -5 0
-10 -5 -10 -11z"/>
<path d="M21192 17344 c1 -9 9 -19 16 -22 9 -3 13 2 10 14 -1 9 -9 19 -16 22
-9 3 -13 -2 -10 -14z"/>
<path d="M6978 17329 c-10 -5 -18 -16 -18 -23 0 -30 -26 -37 -76 -20 -42 14
-56 15 -99 4 -58 -15 -91 -34 -123 -72 -13 -16 -28 -28 -34 -28 -5 0 -30 -20
-54 -45 -37 -37 -46 -52 -50 -92 -5 -42 -1 -58 33 -123 34 -66 42 -75 73 -82
68 -14 198 68 264 165 47 70 28 76 -56 18 -53 -37 -137 -81 -155 -81 -4 0 -23
17 -42 37 l-34 37 59 55 c58 54 113 81 167 81 13 0 37 15 57 35 40 42 71 45
95 9 12 -19 15 -37 10 -72 -3 -26 -1 -76 4 -112 6 -36 13 -82 15 -102 7 -48
32 -87 61 -94 51 -13 109 62 87 111 -9 20 -19 25 -47 25 -53 0 -60 26 -46 183
11 119 11 131 -7 160 -19 34 -54 45 -84 26z"/>
<path d="M1050 17310 c0 -5 5 -10 10 -10 6 0 10 5 10 10 0 6 -4 10 -10 10 -5
0 -10 -4 -10 -10z"/>
<path d="M7944 17265 c-31 -24 -47 -24 -37 0 3 8 1 15 -5 15 -5 0 -12 -6 -15
-14 -8 -19 -94 -29 -137 -16 -19 6 -71 13 -115 15 -44 3 -107 7 -139 10 -74 6
-89 -4 -80 -54 12 -66 31 -91 68 -91 18 0 50 7 69 15 20 8 65 15 100 15 55 0
67 -3 79 -22 l14 -21 33 24 c31 23 41 24 199 26 92 1 181 2 197 1 130 -5 229
-1 232 9 4 12 -50 43 -75 43 -9 0 -23 7 -32 15 -9 9 -56 19 -116 26 -54 6
-106 14 -114 17 -41 15 -99 9 -126 -13z"/>
<path d="M21232 17258 c6 -18 28 -21 28 -4 0 9 -7 16 -16 16 -9 0 -14 -5 -12
-12z"/>
<path d="M21278 17160 c2 -16 10 -35 18 -41 17 -14 18 -5 2 38 -15 41 -26 43
-20 3z"/>
<path d="M7743 17088 c-22 -29 -53 -110 -53 -138 0 -23 6 -33 23 -39 35 -14
45 6 52 102 5 83 0 103 -22 75z"/>
<path d="M21550 16520 c0 -5 5 -10 11 -10 5 0 7 5 4 10 -3 6 -8 10 -11 10 -2
0 -4 -4 -4 -10z"/>
<path d="M15105 16380 c-16 -26 59 -50 83 -27 20 21 16 25 -35 33 -27 4 -43 2
-48 -6z"/>
<path d="M15406 16361 c-15 -6 22 -22 140 -61 255 -85 321 -122 437 -244 100
-104 131 -182 130 -321 0 -119 -18 -185 -61 -225 -63 -61 -161 -120 -240 -147
-43 -14 -82 -31 -88 -39 -9 -12 -19 -12 -63 2 -50 14 -55 14 -90 -4 -21 -11
-48 -18 -62 -16 -13 1 -62 8 -109 14 -112 14 -183 33 -310 84 -89 35 -115 50
-171 104 -89 83 -114 139 -106 238 8 102 34 158 124 262 18 20 33 40 33 44 0
4 15 15 33 24 17 9 43 27 57 40 33 30 184 99 235 107 52 8 106 -7 145 -39 56
-48 84 -13 37 47 -52 65 -169 81 -277 39 -135 -52 -194 -89 -286 -179 -51 -49
-104 -105 -119 -125 -59 -78 -74 -252 -30 -348 14 -29 25 -59 25 -66 0 -18
-84 -54 -112 -48 -13 3 -102 8 -198 11 -96 4 -204 10 -240 14 -162 20 -414 10
-620 -24 -56 -9 -180 -51 -242 -82 -45 -22 -72 -47 -135 -123 -43 -53 -98
-133 -123 -177 -46 -84 -57 -93 -118 -93 -21 0 -41 -9 -57 -25 -28 -27 -29
-43 -25 -230 3 -135 16 -177 142 -445 65 -137 134 -219 432 -515 431 -428 433
-431 545 -706 124 -307 156 -456 155 -744 -1 -273 -35 -479 -99 -604 -29 -57
-113 -139 -185 -182 -103 -60 -118 -68 -191 -97 -72 -28 -264 -74 -364 -87
-27 -3 -84 -10 -125 -15 -41 -5 -110 -11 -153 -14 -43 -3 -81 -7 -85 -10 -4
-2 -43 -9 -87 -16 -44 -6 -123 -18 -175 -25 -164 -24 -506 -100 -524 -116 -6
-5 -19 -9 -29 -9 -25 0 -303 -81 -387 -113 -36 -14 -81 -30 -100 -37 -19 -7
-53 -21 -75 -30 -22 -10 -54 -21 -72 -25 -17 -3 -37 -13 -43 -20 -6 -8 -33
-24 -58 -35 -26 -12 -54 -25 -62 -30 -8 -5 -37 -21 -65 -36 -69 -37 -132 -80
-187 -128 -25 -23 -52 -46 -60 -51 -66 -51 -98 -80 -98 -90 0 -6 -14 -21 -31
-34 -67 -50 -152 -212 -167 -318 -24 -174 33 -344 192 -567 193 -269 351 -436
556 -584 25 -18 101 -74 170 -125 69 -50 184 -132 257 -180 72 -48 137 -95
143 -103 7 -7 18 -14 24 -14 6 0 37 -20 68 -45 32 -25 60 -45 63 -45 5 0 95
-61 235 -159 75 -53 99 -69 120 -78 8 -3 29 -16 45 -28 17 -12 64 -40 105 -64
41 -23 82 -46 90 -51 8 -6 35 -19 60 -30 25 -11 81 -40 125 -64 179 -99 930
-466 954 -466 6 0 19 -4 29 -9 59 -31 132 -61 149 -61 11 0 28 -9 38 -20 10
-11 26 -20 35 -20 19 0 52 -14 137 -57 59 -31 171 -73 192 -73 6 0 29 -13 53
-29 24 -16 61 -32 83 -36 22 -4 51 -15 65 -25 14 -9 57 -27 95 -40 39 -12 78
-26 87 -31 10 -5 27 -9 37 -9 11 0 23 -5 26 -10 8 -13 82 -47 120 -55 17 -4
39 -10 50 -14 11 -5 47 -17 80 -29 80 -27 121 -41 175 -62 71 -27 171 -61 222
-76 25 -7 56 -17 67 -23 11 -6 39 -11 63 -11 28 0 57 -9 83 -25 22 -13 50 -25
62 -25 12 0 37 -6 55 -14 51 -21 102 -36 126 -36 11 0 24 -5 28 -11 3 -6 14
-9 24 -6 9 2 28 -2 41 -9 13 -7 34 -13 45 -14 12 0 35 -7 50 -15 16 -8 37 -15
46 -15 9 0 19 -4 23 -9 3 -6 27 -13 53 -16 56 -8 153 -34 167 -45 6 -5 29 -13
52 -19 33 -9 47 -9 63 1 29 18 25 26 -17 34 -21 4 -47 13 -58 20 -25 15 -160
56 -178 53 -15 -3 -147 38 -162 51 -6 5 -27 10 -46 12 -19 1 -56 10 -84 20
-27 10 -60 18 -72 18 -12 0 -25 5 -28 10 -3 6 -17 10 -29 10 -13 0 -29 6 -35
14 -12 14 -20 16 -118 35 -28 5 -60 14 -71 20 -10 5 -47 19 -83 31 -35 12 -71
25 -80 30 -9 5 -34 12 -55 16 -37 6 -87 24 -126 45 -10 5 -27 9 -37 9 -11 0
-23 5 -26 10 -3 6 -18 10 -32 10 -14 0 -41 9 -59 21 -19 11 -38 18 -43 15 -5
-3 -19 3 -32 13 -13 10 -35 20 -49 23 -35 8 -145 47 -205 73 -27 12 -61 26
-74 30 -14 4 -38 16 -55 26 -17 11 -43 19 -58 19 -15 0 -29 4 -33 9 -3 5 -22
15 -43 22 -20 6 -59 22 -87 34 -114 51 -148 65 -160 65 -7 0 -18 7 -25 15 -7
8 -33 21 -59 29 -25 8 -91 36 -146 64 -55 27 -118 55 -140 62 -22 7 -56 20
-75 30 -19 10 -55 27 -80 38 -98 44 -267 126 -530 257 -269 133 -319 160 -370
194 -14 10 -41 23 -60 31 -50 20 -248 127 -279 151 -30 23 -152 103 -190 125
-42 24 -73 44 -203 136 -67 48 -158 111 -201 140 -43 29 -93 64 -110 78 -18
14 -39 30 -48 35 -81 50 -381 269 -445 325 -22 19 -71 60 -108 90 -113 91
-181 163 -291 312 -94 125 -195 277 -195 293 0 4 -11 30 -24 59 -29 63 -51
200 -42 259 25 159 130 318 286 432 22 17 57 44 77 62 20 17 48 38 62 45 14 7
53 29 86 49 57 34 129 70 275 136 78 36 189 75 375 132 92 28 206 57 330 82
28 6 84 19 125 30 41 11 107 24 145 29 39 5 138 20 220 33 184 30 446 65 540
73 86 8 238 38 319 63 160 51 268 110 380 207 66 59 88 85 117 145 101 205
138 666 79 974 -31 157 -112 395 -195 570 -62 130 -153 238 -473 560 -170 171
-324 330 -344 355 -50 63 -119 195 -173 330 -43 106 -47 125 -55 240 -15 206
-20 187 53 219 47 21 69 38 90 69 15 23 45 65 68 94 22 29 58 76 80 105 66 88
132 128 269 161 186 45 448 58 740 35 220 -18 377 -19 425 -4 84 27 121 26
162 -6 138 -107 344 -173 538 -173 75 0 94 -3 99 -16 15 -38 4 -78 -38 -142
-24 -37 -80 -141 -125 -232 -90 -182 -148 -288 -171 -317 -9 -10 -26 -43 -39
-73 -12 -30 -29 -68 -37 -83 -8 -16 -14 -36 -14 -45 0 -24 -109 -343 -127
-370 -22 -35 -71 -270 -83 -401 -6 -64 -18 -168 -26 -231 -27 -213 -19 -346
33 -580 69 -314 346 -808 652 -1165 158 -185 372 -404 560 -575 57 -52 142
-130 188 -172 46 -43 95 -85 109 -95 14 -9 38 -28 53 -42 14 -14 42 -37 61
-51 18 -14 48 -37 65 -52 33 -29 372 -258 381 -258 3 0 38 -22 78 -50 41 -27
89 -58 107 -68 52 -30 150 -88 194 -115 37 -23 180 -99 377 -202 125 -65 386
-195 483 -241 50 -23 138 -65 197 -93 59 -28 112 -51 118 -51 7 0 45 -15 85
-34 39 -19 85 -38 101 -42 16 -4 38 -12 49 -18 24 -12 64 -28 165 -62 41 -14
102 -39 135 -54 33 -16 74 -31 90 -35 17 -4 51 -15 77 -26 26 -10 54 -19 63
-19 9 0 31 -6 48 -14 38 -17 200 -65 347 -102 97 -24 184 -41 335 -64 160 -24
476 -30 620 -11 50 6 106 13 125 16 19 2 58 9 85 15 28 6 82 16 120 22 39 5
75 14 80 18 6 4 30 11 54 15 24 4 58 15 75 25 17 9 64 28 103 41 48 15 75 29
79 41 3 10 8 18 12 19 4 0 26 2 49 4 34 2 56 15 121 67 l80 65 -36 1 c-42 2
-65 -14 -57 -38 4 -14 -2 -19 -27 -24 -18 -3 -42 -8 -53 -10 -11 -2 -43 -15
-71 -30 -29 -14 -57 -26 -62 -26 -6 0 -26 -9 -44 -19 -35 -21 -93 -38 -170
-50 -25 -4 -52 -12 -60 -18 -7 -6 -29 -13 -48 -16 -19 -3 -73 -13 -120 -22
-47 -8 -105 -18 -129 -20 -23 -3 -52 -10 -63 -16 -28 -15 -447 -27 -469 -13
-6 3 -43 8 -82 11 -110 7 -148 11 -197 21 -25 5 -83 17 -130 26 -172 34 -554
148 -755 226 -152 58 -239 90 -250 90 -6 0 -47 18 -93 40 -46 22 -90 40 -99
40 -8 0 -44 14 -79 30 -35 17 -94 44 -131 61 -131 60 -258 120 -273 129 -8 5
-71 37 -140 70 -69 34 -132 65 -140 70 -8 6 -37 21 -65 35 -27 13 -88 45 -135
71 -47 26 -107 59 -135 73 -43 23 -188 108 -323 188 -20 12 -48 28 -62 35 -14
7 -49 30 -78 52 -29 21 -66 46 -82 55 -88 48 -378 258 -510 369 -86 72 -222
196 -336 307 -50 50 -116 113 -145 141 -152 144 -435 459 -505 564 -13 19 -38
56 -56 82 -153 219 -234 363 -351 624 -42 93 -86 248 -108 374 -15 85 -27 331
-19 362 5 15 15 102 24 195 9 92 19 182 22 198 2 17 7 47 9 68 8 64 60 253 92
332 27 69 30 77 72 196 23 64 41 123 41 132 0 9 14 43 30 75 17 33 30 64 30
70 0 12 30 61 79 129 17 23 42 66 56 95 14 29 34 67 44 83 11 17 20 36 20 44
1 8 7 22 15 30 21 24 126 234 126 252 0 8 11 26 25 39 14 13 25 33 25 45 0 40
40 65 103 65 32 0 65 4 75 9 9 5 52 26 95 47 74 35 80 40 118 105 22 38 49 73
59 79 11 6 20 16 20 22 0 6 6 19 14 27 10 11 15 47 17 121 3 129 -4 165 -49
260 -79 170 -308 329 -551 383 -78 18 -124 20 -155 8z"/>
<path d="M21630 16311 c0 -12 5 -21 10 -21 6 0 10 6 10 14 0 8 -4 18 -10 21
-5 3 -10 -3 -10 -14z"/>
<path d="M15153 16058 c-61 -29 -7 -53 140 -62 104 -6 198 -28 222 -52 17 -18
19 -38 5 -63 -12 -24 -125 -96 -175 -111 -96 -31 -125 -44 -125 -56 0 -26 20
-65 37 -71 10 -4 26 -17 36 -30 10 -13 25 -23 33 -23 8 0 22 -4 32 -9 60 -30
109 -45 209 -61 156 -26 244 -24 311 7 28 13 52 28 52 32 0 4 -9 16 -21 27
-16 15 -23 16 -37 6 -38 -27 -69 -34 -125 -27 -34 3 -72 2 -92 -5 -28 -9 -38
-8 -67 10 -18 11 -43 20 -54 20 -27 0 -165 56 -184 75 -20 20 -9 29 89 70 119
49 145 71 161 139 13 54 12 57 -13 95 -23 34 -37 43 -94 61 -122 38 -292 51
-340 28z"/>
<path d="M6397 15953 c-13 -12 -7 -43 8 -43 9 0 15 9 15 25 0 24 -10 32 -23
18z"/>
<path d="M21960 15336 c0 -9 5 -16 10 -16 6 0 10 4 10 9 0 6 -4 13 -10 16 -5
3 -10 -1 -10 -9z"/>
<path d="M12835 15190 c-22 -3 -49 -11 -61 -17 -32 -18 -167 -28 -192 -14 -18
9 -25 8 -42 -9 -19 -19 -19 -22 -5 -49 24 -47 63 -69 115 -65 89 6 185 31 223
57 21 14 47 29 58 32 21 7 25 38 7 52 -20 16 -59 21 -103 13z"/>
<path d="M11850 15028 c-19 -5 -44 -18 -55 -28 -11 -9 -47 -27 -80 -40 -181
-66 -335 -164 -426 -271 -125 -147 -175 -326 -139 -494 22 -103 72 -171 164
-220 214 -114 554 -47 888 174 41 27 82 60 91 74 9 15 26 34 36 44 29 27 78
150 90 224 14 84 14 185 0 251 -19 89 -109 192 -204 231 -120 49 -294 76 -365
55z m286 -88 c27 -13 73 -43 102 -68 92 -78 117 -153 102 -303 -10 -95 -15
-114 -55 -204 -37 -82 -132 -168 -255 -230 -30 -16 -62 -34 -70 -40 -25 -19
-161 -64 -230 -75 -130 -21 -206 -23 -277 -5 -115 29 -174 79 -213 182 -18 49
-21 69 -15 132 7 79 30 153 64 214 57 102 144 196 215 232 17 9 45 24 61 35
96 60 205 104 245 98 8 -2 34 1 58 6 52 10 78 -4 122 -69 25 -36 37 -45 60
-45 16 0 31 3 33 8 10 15 -22 83 -57 122 -20 23 -34 45 -31 49 6 11 72 -8 141
-39z"/>
<path d="M17027 14870 c-3 -12 -14 -20 -26 -20 -12 0 -21 -3 -21 -7 0 -5 25
-33 55 -63 30 -30 55 -61 55 -67 0 -22 20 -14 20 7 0 11 3 20 8 20 14 0 45
-69 47 -106 2 -31 12 -47 58 -91 30 -29 62 -53 70 -53 8 0 25 8 38 19 l23 19
-29 36 c-17 21 -40 51 -53 69 -52 72 -167 206 -200 234 -33 28 -38 28 -45 3z"/>
<path d="M6429 14460 c-16 -9 -28 -46 -69 -215 -10 -44 -26 -105 -35 -135 -30
-104 -76 -355 -85 -459 -9 -110 3 -172 36 -185 36 -14 41 2 46 142 6 146 19
224 75 447 38 151 50 190 84 275 33 86 35 105 8 124 -27 18 -37 19 -60 6z"/>
<path d="M6746 14371 c-27 -30 -47 -142 -86 -486 -6 -55 -19 -149 -30 -210
-31 -183 -53 -381 -46 -418 7 -37 30 -54 51 -37 7 6 15 50 19 106 8 106 16
158 45 285 22 96 54 309 71 469 11 96 24 148 61 237 12 28 11 34 -6 52 -23 26
-57 27 -79 2z"/>
<path d="M7356 14337 c-35 -22 -65 -61 -72 -95 -5 -24 -17 -40 -43 -56 -114
-73 -196 -232 -236 -460 -24 -132 8 -220 95 -264 40 -20 54 -22 125 -16 134
11 253 62 370 159 64 53 88 80 119 138 35 66 38 77 33 132 -3 33 -15 89 -27
125 -26 75 -115 229 -160 278 -56 61 -155 89 -204 59z m111 -76 c63 -39 142
-182 178 -326 13 -53 14 -76 6 -116 -16 -74 -35 -103 -98 -151 -103 -77 -176
-111 -316 -144 -38 -9 -111 20 -134 54 -49 73 11 343 105 467 32 43 46 53 101
70 77 25 92 46 62 86 -26 36 -26 44 1 63 30 21 56 20 95 -3z"/>
<path d="M18120 13998 c-5 -13 -19 -66 -30 -118 -22 -100 -96 -316 -111 -326
-5 -3 -9 -12 -9 -21 0 -9 -6 -24 -14 -32 -8 -9 -41 -68 -74 -132 -33 -63 -65
-124 -71 -135 -25 -45 -43 -105 -62 -204 -24 -132 -24 -126 6 -155 25 -26 69
-33 81 -13 4 6 8 55 9 107 1 64 7 113 19 146 34 94 34 95 113 240 21 39 46 90
56 114 10 24 29 57 42 73 14 16 28 42 31 56 4 15 18 52 31 82 14 30 28 78 33
106 5 28 20 75 34 104 14 30 26 57 26 61 0 4 -12 21 -26 38 -31 38 -70 41 -84
9z"/>
<path d="M9654 13726 c-8 -14 -20 -58 -26 -98 -5 -40 -18 -111 -29 -158 -47
-198 -78 -365 -85 -442 -9 -122 16 -198 68 -198 18 0 19 4 13 73 -3 39 -1 95
4 122 5 28 16 86 24 130 13 69 39 172 79 315 16 58 48 204 48 223 0 23 -35 57
-60 57 -11 0 -27 -11 -36 -24z"/>
<path d="M10242 13359 c-96 -16 -189 -68 -278 -155 -94 -93 -134 -165 -141
-259 -10 -124 37 -200 165 -262 75 -37 80 -38 187 -37 136 1 200 18 311 87 34
20 65 37 69 37 19 0 120 76 171 128 95 96 109 124 109 211 0 98 -23 157 -80
210 -62 57 -148 67 -222 24 -29 -16 -35 -16 -83 12 -28 16 -123 18 -208 4z
m439 -100 c31 -22 59 -77 66 -130 18 -130 -209 -323 -452 -384 -156 -39 -331
14 -386 118 -26 49 -1 145 61 231 33 45 140 131 200 160 42 20 159 30 220 19
l45 -9 -3 -53 c-3 -58 15 -91 49 -91 25 0 31 14 19 45 -13 34 9 79 52 105 36
22 89 17 129 -11z"/>
<path d="M11152 13208 c-40 -52 -110 -276 -118 -383 -5 -61 -3 -76 18 -114 80
-148 267 -85 566 190 172 158 225 198 296 221 33 11 65 24 70 28 13 13 -20 59
-47 65 -47 12 -174 -62 -271 -158 -85 -84 -126 -120 -205 -179 -36 -28 -77
-61 -91 -74 -35 -32 -163 -75 -201 -67 -32 6 -59 36 -59 65 0 36 81 266 105
298 29 39 31 66 9 98 -17 24 -56 29 -72 10z"/>
<path d="M22446 13173 c4 -16 7 -40 6 -55 -2 -35 6 -36 19 -2 7 19 6 35 -3 55
-16 37 -33 38 -22 2z"/>
<path d="M12344 13146 c-127 -33 -233 -125 -252 -220 -12 -59 -3 -115 28 -175
70 -139 405 -313 778 -405 180 -44 252 -46 252 -6 0 22 -36 50 -64 50 -42 0
-397 106 -476 142 -106 48 -230 114 -291 154 -64 42 -139 114 -139 133 0 5 44
10 98 10 106 1 161 9 297 41 193 47 225 96 131 207 -52 62 -245 99 -362 69z
m195 -86 c40 -11 91 -56 91 -80 0 -20 -57 -34 -218 -56 -150 -20 -188 -18
-213 7 l-21 21 37 38 c25 26 55 43 93 55 32 9 62 18 67 20 22 8 132 4 164 -5z"/>
<path d="M13414 13040 c-87 -9 -106 -15 -153 -47 -76 -51 -92 -93 -55 -147 17
-25 166 -158 233 -209 30 -22 92 -77 138 -121 131 -126 203 -244 206 -338 3
-84 -53 -119 -223 -138 -109 -13 -304 -5 -398 16 -80 18 -91 18 -99 -2 -7 -20
32 -61 71 -73 17 -6 94 -17 172 -25 259 -26 498 14 553 93 43 61 45 126 9 226
-38 106 -196 290 -417 485 -46 41 -97 94 -113 119 -25 41 -27 47 -13 61 36 35
277 18 385 -27 56 -23 119 -32 156 -21 39 10 40 15 16 44 -23 28 -49 41 -124
63 -137 41 -232 52 -344 41z"/>
<path d="M22475 12940 c3 -5 8 -10 11 -10 2 0 4 5 4 10 0 6 -5 10 -11 10 -5 0
-7 -4 -4 -10z"/>
<path d="M15472 12847 c-6 -6 -15 -53 -21 -102 -6 -50 -18 -124 -26 -165 -20
-104 -18 -229 4 -328 24 -103 36 -120 102 -136 37 -8 45 17 18 55 -23 33 -48
125 -48 180 0 18 0 61 -1 94 0 76 26 226 51 287 22 54 15 85 -25 111 -30 20
-40 21 -54 4z"/>
<path d="M15735 12810 c-15 -24 -30 -238 -30 -428 l0 -204 33 -29 c23 -21 42
-29 60 -27 36 4 38 29 6 67 -26 32 -27 34 -20 129 4 53 8 135 11 182 2 47 12
124 23 171 20 94 16 119 -24 138 -31 14 -51 14 -59 1z"/>
<path d="M16079 12763 c-11 -28 -9 -55 10 -223 35 -296 42 -388 39 -500 -1
-69 1 -131 5 -137 5 -7 19 -13 33 -13 26 0 24 -15 30 195 4 141 4 292 -1 320
-3 17 -7 102 -9 190 -4 150 -5 160 -26 177 -34 27 -68 23 -81 -9z"/>
<path d="M18997 12653 c-3 -5 -8 -39 -11 -78 -4 -38 -12 -86 -17 -105 -47
-184 -59 -248 -50 -273 9 -24 13 -26 35 -16 29 14 71 98 62 127 -4 11 -3 29 3
39 5 10 14 36 19 58 6 22 22 73 37 114 14 40 24 80 21 87 -6 16 -65 54 -83 54
-6 0 -14 -3 -16 -7z"/>
<path d="M17335 12563 c-132 -16 -202 -35 -288 -78 -50 -26 -101 -55 -112 -64
-11 -10 -32 -25 -46 -32 -33 -17 -108 -109 -139 -169 -16 -32 -24 -67 -27
-131 -5 -83 -3 -91 30 -161 48 -103 120 -174 228 -226 117 -57 210 -75 403
-76 168 -1 193 6 141 40 -21 14 -47 16 -144 15 -104 -1 -132 2 -224 28 -163
46 -261 120 -322 245 -58 120 -30 239 80 330 61 51 100 76 118 76 8 0 20 6 27
14 15 19 178 73 258 85 67 11 207 0 272 -21 44 -13 128 -76 136 -101 8 -26 36
-17 53 17 40 84 -110 189 -287 202 -43 3 -88 6 -102 8 -14 1 -38 1 -55 -1z"/>
<path d="M18035 12335 c-186 -34 -342 -224 -382 -463 -4 -28 0 -38 34 -71 78
-79 215 -81 326 -4 70 48 144 130 151 167 4 18 15 41 26 51 22 20 27 45 8 45
-11 0 -21 -7 -82 -67 -13 -13 -27 -23 -31 -23 -4 0 -29 -22 -56 -50 -88 -92
-199 -122 -255 -69 -35 33 -30 74 20 181 37 77 53 99 94 130 89 67 128 78 265
77 67 -1 130 -5 140 -11 14 -7 18 -20 16 -61 -3 -134 -4 -294 -1 -417 2 -85
-1 -151 -9 -179 -12 -43 -12 -45 16 -69 50 -43 125 -19 162 52 15 29 15 31
-13 53 -19 15 -36 21 -49 17 -70 -21 -67 -23 -61 47 3 35 8 84 10 109 2 25 7
83 11 130 3 47 10 100 15 118 5 19 6 55 4 80 -4 35 0 60 15 95 12 27 21 55 21
64 0 16 -56 73 -71 73 -5 0 -17 -16 -26 -35 -19 -40 -41 -44 -69 -14 -10 11
-27 26 -38 31 -33 18 -129 24 -191 13z"/>
<path d="M17650 12269 c-30 -11 -68 -24 -85 -30 -16 -6 -68 -19 -115 -30 -47
-11 -101 -25 -121 -31 -46 -13 -249 -16 -361 -4 -93 9 -100 6 -78 -35 30 -54
190 -78 370 -54 132 18 136 18 211 39 123 35 228 96 263 154 10 17 -19 15 -84
-9z"/>
<path d="M22526 12272 c-3 -6 -1 -14 5 -17 14 -9 20 -2 10 14 -6 8 -11 9 -15
3z"/>
<path d="M18672 12122 c-8 -5 -12 -22 -10 -38 4 -40 56 -66 119 -58 31 4 59 0
85 -11 30 -12 44 -13 65 -5 19 8 53 7 134 -4 120 -17 155 -36 155 -88 0 -37
30 -96 67 -129 24 -22 148 -102 356 -228 148 -90 241 -159 306 -226 40 -41 71
-82 71 -93 0 -20 -62 -82 -82 -82 -6 0 -19 -6 -27 -14 -19 -16 -115 -45 -276
-82 -37 -8 -45 -9 -170 -18 -126 -9 -145 -13 -145 -30 0 -8 12 -24 26 -35 37
-29 142 -28 314 4 170 31 195 37 250 62 25 12 61 28 80 36 68 27 120 96 120
155 0 70 -125 189 -360 343 -192 126 -257 167 -287 183 -44 22 -163 138 -163
158 0 22 49 48 90 48 17 0 47 7 67 15 86 36 356 7 468 -51 68 -36 102 -45 131
-34 32 12 31 40 -3 72 -39 35 -104 63 -214 91 -156 40 -393 36 -496 -9 -17 -8
-48 -14 -70 -14 -64 0 -271 47 -309 71 -34 20 -36 20 -54 4 -18 -16 -27 -17
-98 -6 -42 6 -88 14 -102 16 -14 3 -31 2 -38 -3z"/>
<path d="M18862 11872 c-13 -9 -13 -92 0 -92 3 0 15 14 26 32 15 23 18 37 11
50 -11 20 -18 22 -37 10z"/>
<path d="M22531 11854 c0 -11 3 -14 6 -6 3 7 2 16 -1 19 -3 4 -6 -2 -5 -13z"/>
<path d="M22516 11813 c-4 -9 -2 -21 4 -27 7 -7 10 -2 10 17 0 31 -5 34 -14
10z"/>
<path d="M18840 11741 c0 -6 5 -13 10 -16 6 -3 10 1 10 9 0 9 -4 16 -10 16 -5
0 -10 -4 -10 -9z"/>
<path d="M22530 11729 c0 -5 5 -7 10 -4 6 3 10 8 10 11 0 2 -4 4 -10 4 -5 0
-10 -5 -10 -11z"/>
<path d="M18830 11684 c-6 -14 -10 -29 -10 -33 0 -4 -13 -21 -30 -37 -16 -16
-30 -34 -30 -41 0 -20 52 -54 79 -51 29 3 30 12 10 92 -10 39 -11 50 -1 54 15
5 16 42 2 42 -6 0 -15 -12 -20 -26z"/>
<path d="M22485 11380 c-8 -25 10 -50 37 -50 17 0 19 4 13 27 -11 44 -39 56
-50 23z"/>
<path d="M22472 11190 c0 -14 2 -19 5 -12 2 6 2 18 0 25 -3 6 -5 1 -5 -13z"/>
<path d="M22436 10902 c-3 -6 -1 -14 5 -17 15 -10 25 3 12 16 -7 7 -13 7 -17
1z"/>
<path d="M22392 10681 c-11 -7 -10 -10 3 -15 23 -9 25 -8 25 9 0 17 -9 19 -28
6z"/>
<path d="M22320 10510 c0 -5 5 -10 10 -10 6 0 10 5 10 10 0 6 -4 10 -10 10 -5
0 -10 -4 -10 -10z"/>
<path d="M22100 9960 c0 -5 5 -10 10 -10 6 0 10 5 10 10 0 6 -4 10 -10 10 -5
0 -10 -4 -10 -10z"/>
<path d="M21971 9764 c-7 -8 -11 -18 -8 -21 9 -9 45 7 51 22 7 20 -25 19 -43
-1z"/>
<path d="M21900 9704 c0 -8 5 -12 10 -9 6 3 10 10 10 16 0 5 -4 9 -10 9 -5 0
-10 -7 -10 -16z"/>
<path d="M21864 9655 c-7 -17 4 -37 17 -30 12 8 12 45 -1 45 -6 0 -13 -7 -16
-15z"/>
<path d="M21716 9525 c-3 -8 -12 -15 -21 -15 -8 0 -15 -7 -15 -16 0 -9 -9 -23
-20 -32 -14 -12 -17 -21 -10 -32 7 -12 15 -8 43 23 19 20 40 37 46 37 6 0 11
11 11 25 0 27 -24 35 -34 10z"/>
<path d="M137 9373 c-4 -3 -7 -35 -7 -70 0 -70 7 -75 60 -48 33 17 38 36 15
59 -8 8 -15 21 -15 30 0 8 -9 20 -19 26 -23 12 -26 12 -34 3z"/>
<path d="M570 9225 c0 -8 5 -15 10 -15 6 0 10 7 10 15 0 8 -4 15 -10 15 -5 0
-10 -7 -10 -15z"/>
<path d="M519 9174 c-7 -8 -9 -17 -6 -21 4 -3 2 -12 -4 -19 -15 -18 11 -44 43
-44 32 0 80 87 51 91 -47 7 -74 4 -84 -7z"/>
<path d="M24435 6760 c3 -5 8 -10 11 -10 2 0 4 5 4 10 0 6 -5 10 -11 10 -5 0
-7 -4 -4 -10z"/>
<path d="M16736 6696 c8 -20 127 -66 172 -66 11 0 24 -5 28 -11 3 -6 15 -8 26
-5 11 2 32 -3 47 -14 34 -24 98 -35 116 -20 11 9 22 7 48 -9 21 -13 41 -18 56
-14 13 3 26 1 30 -6 7 -11 23 -16 91 -28 19 -3 44 -12 55 -19 35 -21 110 -27
125 -9 7 8 11 15 9 16 -2 0 -13 3 -24 6 -11 3 -38 7 -60 10 -22 3 -44 9 -49
14 -6 5 -18 9 -28 9 -9 0 -22 9 -28 20 -9 17 -17 20 -46 14 -19 -3 -40 -2 -47
4 -7 6 -22 11 -32 12 -67 2 -103 8 -125 20 -52 27 -59 29 -91 20 -27 -8 -37
-6 -54 10 -28 26 -79 42 -132 40 -23 0 -44 4 -48 10 -10 16 -45 13 -39 -4z"/>
<path d="M24142 6629 c2 -6 8 -10 13 -10 5 0 11 4 13 10 2 6 -4 11 -13 11 -9
0 -15 -5 -13 -11z"/>
<path d="M17566 6495 c-28 -12 -28 -12 23 -18 28 -3 58 -13 67 -21 31 -31 124
-42 124 -15 0 13 -40 31 -55 25 -8 -3 -15 0 -18 7 -2 6 -22 10 -49 9 -31 -2
-49 2 -55 11 -6 11 -13 12 -37 2z"/>
<path d="M23757 6484 c-8 -8 1 -24 14 -24 5 0 9 7 9 15 0 15 -12 20 -23 9z"/>
<path d="M23689 6454 c-11 -14 -10 -16 9 -12 13 1 23 7 23 13 1 17 -17 16 -32
-1z"/>
<path d="M17800 6437 c0 -9 21 -17 63 -24 53 -9 98 -21 190 -50 10 -3 17 0 17
8 0 18 -55 43 -76 35 -9 -3 -28 2 -42 13 -35 24 -152 38 -152 18z"/>
<path d="M18097 6364 c6 -17 44 -15 51 4 2 8 -7 12 -27 12 -23 0 -29 -4 -24
-16z"/>
<path d="M18182 6367 c-18 -21 0 -34 55 -41 29 -4 66 -12 83 -20 32 -13 90
-10 90 5 0 15 -35 27 -97 34 -38 5 -64 13 -67 21 -7 18 -50 18 -64 1z"/>
<path d="M18453 6303 c-18 -7 -16 -23 2 -23 8 0 15 7 15 15 0 8 -1 15 -2 14
-2 0 -9 -3 -15 -6z"/>
<path d="M18510 6300 c-11 -7 -12 -12 -3 -21 13 -13 33 -4 33 17 0 16 -9 18
-30 4z"/>
<path d="M18571 6291 c-21 -13 -3 -31 31 -31 30 0 31 0 13 20 -20 22 -24 23
-44 11z"/>
<path d="M23045 6269 c-4 -6 -4 -13 -1 -16 8 -8 36 5 36 17 0 13 -27 13 -35
-1z"/>
<path d="M18711 6256 c-8 -10 -9 -16 -1 -21 16 -10 50 4 50 21 0 18 -34 18
-49 0z"/>
<path d="M18861 6231 c-20 -13 23 -34 79 -38 25 -2 54 -5 65 -6 11 -1 20 3 20
8 0 6 -12 9 -26 7 -14 -2 -32 4 -39 12 -7 10 -21 14 -35 10 -13 -3 -26 -1 -29
5 -9 13 -16 14 -35 2z"/>
<path d="M22965 6230 c-3 -5 1 -10 10 -10 9 0 13 5 10 10 -3 6 -8 10 -10 10
-2 0 -7 -4 -10 -10z"/>
<path d="M19070 6191 c0 -5 7 -14 15 -21 12 -10 19 -10 28 -1 9 9 9 14 -3 21
-19 12 -40 13 -40 1z"/>
<path d="M22677 6179 c-15 -17 -15 -20 -2 -25 25 -10 44 3 38 25 -6 25 -13 25
-36 0z"/>
<path d="M19142 6173 c3 -19 38 -30 101 -32 36 -1 49 11 26 24 -5 4 -28 8 -49
9 -22 1 -42 5 -46 9 -14 14 -35 7 -32 -10z"/>
<path d="M22610 6170 c0 -5 4 -10 9 -10 6 0 13 5 16 10 3 6 -1 10 -9 10 -9 0
-16 -4 -16 -10z"/>
<path d="M22473 6133 c9 -9 19 -14 23 -11 10 10 -6 28 -24 28 -15 0 -15 -1 1
-17z"/>
<path d="M19390 6132 c0 -12 48 -37 57 -29 4 4 2 11 -3 16 -14 14 -54 23 -54
13z"/>
<path d="M22360 6115 c0 -8 9 -15 19 -15 26 0 35 16 15 24 -25 10 -34 7 -34
-9z"/>
<path d="M19537 6103 c-12 -19 11 -33 49 -31 21 0 50 -3 62 -7 21 -7 23 -5 20
16 -2 18 -8 23 -23 21 -34 -6 -49 -5 -76 2 -15 4 -29 4 -32 -1z"/>
<path d="M19700 6090 c0 -5 7 -10 15 -10 8 0 15 5 15 10 0 6 -7 10 -15 10 -8
0 -15 -4 -15 -10z"/>
<path d="M22150 6079 c0 -5 5 -7 10 -4 6 3 10 8 10 11 0 2 -4 4 -10 4 -5 0
-10 -5 -10 -11z"/>
<path d="M19804 6063 c3 -8 6 -19 6 -24 0 -5 21 -9 46 -9 41 0 45 2 42 23 -3
19 -9 22 -51 23 -39 2 -47 -1 -43 -13z"/>
<path d="M21696 6055 c-3 -9 3 -19 14 -25 21 -11 25 -4 14 24 -8 20 -20 21
-28 1z"/>
<path d="M19940 6047 c0 -21 56 -37 76 -22 9 6 14 17 10 23 -10 17 -86 16 -86
-1z"/>
<path d="M21795 6050 c-3 -6 1 -13 10 -16 19 -8 30 0 20 15 -8 14 -22 14 -30
1z"/>
<path d="M20052 6038 c5 -15 48 -24 48 -10 0 10 -23 22 -42 22 -5 0 -8 -6 -6
-12z"/>
<path d="M20137 6044 c-16 -16 15 -44 48 -44 19 0 35 2 35 4 0 2 3 11 6 20 4
11 1 16 -10 16 -9 0 -16 -5 -16 -12 0 -6 -7 -4 -18 5 -19 18 -34 21 -45 11z"/>
<path d="M20250 6031 c0 -6 8 -11 18 -11 10 0 23 -5 30 -12 10 -9 16 -8 29 5
16 16 15 17 -14 17 -17 0 -38 3 -47 6 -9 3 -16 1 -16 -5z"/>
<path d="M20356 6032 c-9 -16 15 -30 66 -37 53 -8 88 0 88 21 0 10 -12 14 -44
14 -24 0 -57 3 -74 6 -16 3 -32 2 -36 -4z"/>
<path d="M21490 6029 c0 -5 5 -7 10 -4 6 3 10 8 10 11 0 2 -4 4 -10 4 -5 0
-10 -5 -10 -11z"/>
<path d="M20783 6023 c-7 -2 -13 -11 -13 -19 0 -10 8 -12 33 -7 39 7 41 9 32
22 -6 11 -31 13 -52 4z"/>
<path d="M21010 6010 c0 -24 15 -27 24 -4 9 22 8 24 -9 24 -8 0 -15 -9 -15
-20z"/>
<path d="M21103 6023 c-10 -3 -10 -9 0 -24 12 -20 37 -26 37 -9 0 6 11 10 24
10 31 0 56 10 56 21 0 9 -96 11 -117 2z"/>
<path d="M20684 6006 c-8 -22 3 -33 18 -18 9 9 9 15 0 24 -9 9 -13 7 -18 -6z"/>
<path d="M20585 6000 c3 -5 8 -10 11 -10 2 0 4 5 4 10 0 6 -5 10 -11 10 -5 0
-7 -4 -4 -10z"/>
<path d="M85 4881 c-3 -5 -1 -12 4 -15 12 -8 41 3 41 15 0 12 -37 12 -45 0z"/>
<path d="M9175 2530 c3 -5 8 -10 11 -10 2 0 4 5 4 10 0 6 -5 10 -11 10 -5 0
-7 -4 -4 -10z"/>
<path d="M9230 2490 c0 -5 5 -10 10 -10 6 0 10 5 10 10 0 6 -4 10 -10 10 -5 0
-10 -4 -10 -10z"/>
<path d="M9286 2461 c-16 -18 -16 -19 14 -23 35 -5 47 6 30 27 -16 20 -23 19
-44 -4z"/>
<path d="M335 1590 c-3 -5 -1 -10 4 -10 6 0 11 5 11 10 0 6 -2 10 -4 10 -3 0
-8 -4 -11 -10z"/>
<path d="M13012 1325 c11 -24 28 -34 28 -16 0 21 -13 41 -26 41 -11 0 -11 -5
-2 -25z"/>
<path d="M4520 1190 c0 -5 5 -10 10 -10 6 0 10 5 10 10 0 6 -4 10 -10 10 -5 0
-10 -4 -10 -10z"/>
<path d="M22360 1151 c0 -5 7 -12 16 -15 24 -9 28 -7 14 9 -14 17 -30 20 -30
6z"/>
<path d="M5748 893 c7 -3 16 -2 19 1 4 3 -2 6 -13 5 -11 0 -14 -3 -6 -6z"/>
<path d="M15850 860 c0 -5 5 -10 10 -10 6 0 10 5 10 10 0 6 -4 10 -10 10 -5 0
-10 -4 -10 -10z"/>
<path d="M22411 654 c0 -11 3 -14 6 -6 3 7 2 16 -1 19 -3 4 -6 -2 -5 -13z"/>
<path d="M22500 640 c0 -5 5 -10 10 -10 6 0 10 5 10 10 0 6 -4 10 -10 10 -5 0
-10 -4 -10 -10z"/>
<path d="M19595 401 c-7 -12 31 -25 45 -16 5 3 10 10 10 16 0 12 -47 12 -55 0z"/>
<path d="M8786 355 c-10 -27 -7 -80 6 -93 29 -29 98 3 98 47 0 36 -92 77 -104
46z"/>
<path d="M12862 348 c2 -12 10 -23 18 -23 22 0 19 39 -3 43 -15 3 -18 -1 -15
-20z"/>
<path d="M24464 329 c-3 -6 -1 -16 5 -22 8 -8 11 -5 11 11 0 24 -5 28 -16 11z"/>
<path d="M24100 316 c0 -9 7 -16 16 -16 9 0 14 5 12 12 -6 18 -28 21 -28 4z"/>
<path d="M22655 310 c-3 -5 -1 -10 4 -10 6 0 11 5 11 10 0 6 -2 10 -4 10 -3 0
-8 -4 -11 -10z"/>
<path d="M22786 313 c-11 -11 -6 -23 9 -23 8 0 15 4 15 9 0 13 -16 22 -24 14z"/>
<path d="M23733 295 c13 -27 46 -41 73 -31 22 8 6 28 -16 21 -13 -4 -23 1 -32
14 -19 31 -39 28 -25 -4z"/>
<path d="M24346 304 c-4 -9 -4 -19 -2 -21 8 -8 26 8 26 23 0 19 -16 18 -24 -2z"/>
<path d="M21746 301 c-4 -5 -2 -12 3 -15 5 -4 12 -2 15 3 4 5 2 12 -3 15 -5 4
-12 2 -15 -3z"/>
<path d="M22228 303 c-23 -6 -23 -16 0 -37 18 -15 20 -15 36 3 28 31 11 47
-36 34z"/>
<path d="M22301 301 c-20 -13 5 -24 37 -16 20 5 23 8 11 16 -18 11 -30 11 -48
0z"/>
<path d="M22392 290 c-17 -28 -15 -33 10 -27 12 4 28 2 34 -4 20 -17 68 -7 72
15 4 17 -1 18 -41 12 -35 -5 -47 -4 -54 8 -7 13 -10 13 -21 -4z"/>
<path d="M24165 300 c-35 -9 -33 -11 14 -13 20 -1 36 3 38 11 5 13 -6 14 -52
2z"/>
<path d="M22541 291 c-19 -12 -6 -43 16 -39 10 2 18 12 18 22 0 22 -14 29 -34
17z"/>
<path d="M24050 291 c0 -6 5 -13 10 -16 6 -3 10 1 10 9 0 9 -4 16 -10 16 -5 0
-10 -4 -10 -9z"/>
<path d="M20364 276 c-9 -22 2 -46 21 -46 12 0 15 8 13 27 -3 30 -25 42 -34
19z"/>
<path d="M20735 280 c-3 -5 -1 -10 4 -10 6 0 11 5 11 10 0 6 -2 10 -4 10 -3 0
-8 -4 -11 -10z"/>
<path d="M20880 275 c-7 -9 -10 -18 -7 -21 11 -11 57 6 57 21 0 20 -34 19 -50
0z"/>
<path d="M22110 280 c0 -5 5 -10 10 -10 6 0 10 5 10 10 0 6 -4 10 -10 10 -5 0
-10 -4 -10 -10z"/>
<path d="M22940 280 c-12 -8 -12 -10 3 -16 21 -8 35 2 21 16 -5 5 -15 6 -24 0z"/>
<path d="M18985 271 c-5 -9 24 -31 39 -31 13 0 5 28 -10 34 -20 8 -22 8 -29
-3z"/>
<path d="M20220 270 c0 -5 5 -10 10 -10 6 0 10 5 10 10 0 6 -4 10 -10 10 -5 0
-10 -4 -10 -10z"/>
<path d="M20617 273 c-13 -13 -7 -31 13 -36 16 -4 20 0 20 19 0 23 -18 32 -33
17z"/>
<path d="M21465 270 c3 -5 10 -10 16 -10 5 0 9 5 9 10 0 6 -7 10 -16 10 -8 0
-12 -4 -9 -10z"/>
<path d="M21560 271 c0 -5 9 -11 20 -14 24 -6 27 8 4 17 -21 8 -24 8 -24 -3z"/>
<path d="M24465 271 c-3 -5 -1 -12 5 -16 5 -3 10 1 10 9 0 18 -6 21 -15 7z"/>
<path d="M18572 250 c-18 -11 -32 -22 -32 -25 0 -10 29 -5 42 8 7 8 20 16 28
19 8 2 10 7 4 11 -6 3 -25 -3 -42 -13z"/>
<path d="M18676 261 c-3 -5 6 -16 20 -25 22 -15 29 -15 55 -4 16 7 29 16 29
21 0 15 -33 20 -53 7 -15 -9 -22 -10 -25 -1 -4 13 -19 15 -26 2z"/>
<path d="M18845 256 c-16 -12 -18 -17 -7 -28 15 -15 47 0 47 22 0 20 -18 22
-40 6z"/>
<path d="M19078 263 c6 -2 18 -2 25 0 6 3 1 5 -13 5 -14 0 -19 -2 -12 -5z"/>
<path d="M19303 253 c20 -8 37 -19 37 -24 0 -11 11 -11 29 0 28 18 -6 41 -58
40 l-46 0 38 -16z"/>
<path d="M20825 260 c-3 -5 1 -10 9 -10 9 0 16 5 16 10 0 6 -4 10 -9 10 -6 0
-13 -4 -16 -10z"/>
<path d="M22848 263 c7 -3 16 -2 19 1 4 3 -2 6 -13 5 -11 0 -14 -3 -6 -6z"/>
<path d="M24123 254 c-8 -22 4 -29 21 -11 14 13 14 16 0 21 -8 3 -17 -1 -21
-10z"/>
<path d="M17760 245 c0 -8 4 -15 10 -15 5 0 7 -7 4 -15 -4 -8 -1 -15 5 -15 12
0 13 6 5 38 -7 25 -24 30 -24 7z"/>
<path d="M17880 244 c-11 -12 -15 -12 -21 -2 -6 8 -9 -1 -9 -24 0 -43 1 -43
40 -23 21 11 27 20 23 35 -7 28 -18 33 -33 14z"/>
<path d="M17945 250 c-18 -7 -19 -8 -2 -15 20 -8 23 -41 5 -48 -8 -3 -7 -6 4
-6 9 -1 20 4 23 9 3 6 17 10 30 10 13 0 27 -4 30 -10 11 -18 23 -10 18 13 -10
47 -11 48 -32 35 -15 -9 -22 -8 -36 5 -9 9 -17 17 -18 16 -1 0 -11 -4 -22 -9z"/>
<path d="M18917 247 c-7 -17 16 -47 37 -47 11 0 16 9 16 30 0 25 -4 30 -24 30
-13 0 -26 -6 -29 -13z"/>
<path d="M21525 249 c-10 -15 3 -25 16 -12 7 7 7 13 1 17 -6 3 -14 1 -17 -5z"/>
<path d="M22690 251 c0 -6 5 -13 10 -16 6 -3 10 1 10 9 0 9 -4 16 -10 16 -5 0
-10 -4 -10 -9z"/>
<path d="M22920 250 c0 -5 5 -10 10 -10 6 0 10 5 10 10 0 6 -4 10 -10 10 -5 0
-10 -4 -10 -10z"/>
<path d="M17288 243 c-10 -2 -18 -13 -18 -24 0 -22 -38 -27 -58 -7 -6 6 -15 8
-19 3 -5 -4 -2 -10 6 -13 7 -2 21 -13 29 -23 20 -23 42 -25 42 -4 0 17 55 21
65 5 10 -15 25 -12 32 8 4 9 11 20 17 25 16 11 -23 37 -53 36 -14 -1 -34 -3
-43 -6z"/>
<path d="M17551 233 c-8 -15 -11 -15 -26 -3 -13 11 -18 11 -25 1 -5 -9 -18
-11 -39 -6 -35 8 -41 -8 -16 -41 15 -19 15 -19 30 0 17 22 24 19 30 -14 6 -30
11 -34 31 -26 13 5 14 9 4 21 -10 12 -10 19 1 33 7 9 14 18 15 20 7 11 44 -22
44 -38 0 -16 7 -20 31 -20 20 0 29 4 26 13 -2 6 -14 11 -26 10 -11 -2 -21 1
-21 7 0 12 8 16 48 25 30 6 32 5 32 -20 0 -23 4 -26 28 -23 20 2 28 9 30 27 3
20 0 23 -18 18 -14 -3 -28 1 -41 14 -21 21 -59 25 -77 7 -9 -9 -15 -9 -24 0
-16 16 -25 15 -37 -5z"/>
<path d="M18120 235 c0 -8 4 -15 9 -15 5 0 17 -3 26 -7 15 -5 16 -3 6 15 -13
25 -41 29 -41 7z"/>
<path d="M20780 240 c0 -5 5 -10 10 -10 6 0 10 5 10 10 0 6 -4 10 -10 10 -5 0
-10 -4 -10 -10z"/>
<path d="M16810 232 c-14 -2 -28 -9 -32 -15 -4 -7 -11 -7 -21 2 -12 10 -20 10
-38 -1 -17 -10 -23 -10 -26 0 -6 14 -43 16 -43 2 0 -6 -11 -8 -25 -4 -18 4
-27 1 -31 -10 -10 -25 3 -31 37 -19 25 10 31 9 36 -3 4 -11 14 -13 34 -9 22 5
31 2 35 -10 6 -14 15 -16 53 -10 83 12 93 16 88 36 -4 16 0 18 26 15 18 -2 39
-7 48 -11 10 -4 19 0 23 11 4 9 5 18 3 20 -5 6 -140 10 -167 6z"/>
<path d="M17065 231 c-23 -5 -31 -12 -33 -34 -3 -24 0 -27 25 -27 16 0 34 -5
40 -11 8 -8 20 -6 43 6 25 13 29 19 20 31 -10 11 -9 15 4 20 9 3 13 10 10 15
-6 10 -63 10 -109 0z"/>
<path d="M18193 225 c-3 -9 -3 -18 0 -22 10 -10 37 6 37 22 0 20 -29 20 -37 0z"/>
<path d="M18650 230 c-12 -7 -12 -12 -3 -21 15 -15 26 -7 21 15 -2 11 -7 13
-18 6z"/>
<path d="M16540 219 c0 -7 -16 -8 -46 -3 l-47 7 19 -26 c22 -31 56 -46 62 -27
3 7 13 19 23 28 10 9 16 19 13 24 -7 12 -24 10 -24 -3z"/>
<path d="M18457 223 c-4 -3 -7 -15 -7 -26 0 -19 1 -20 20 -2 11 10 20 22 20
27 0 10 -24 11 -33 1z"/>
<path d="M23175 220 c3 -5 13 -10 21 -10 8 0 12 5 9 10 -3 6 -13 10 -21 10 -8
0 -12 -4 -9 -10z"/>
<path d="M15782 212 c-20 -2 -32 -8 -29 -15 5 -15 89 -16 94 -1 5 14 -21 20
-65 16z"/>
<path d="M15963 213 c-21 -8 -15 -21 19 -37 38 -19 58 -20 58 -3 0 11 -51 49
-62 46 -1 0 -9 -3 -15 -6z"/>
<path d="M16080 210 c0 -5 5 -10 10 -10 6 0 10 5 10 10 0 6 -4 10 -10 10 -5 0
-10 -4 -10 -10z"/>
<path d="M16200 208 c-51 -14 -56 -24 -10 -20 22 2 47 -1 54 -7 10 -9 16 -9
21 -1 4 6 5 12 4 13 -2 2 -11 7 -19 13 -10 7 -27 8 -50 2z"/>
<path d="M16358 212 c-36 -7 -11 -32 33 -32 10 0 19 -4 19 -10 0 -5 5 -10 10
-10 6 0 10 7 10 15 0 8 -7 15 -15 15 -8 0 -15 4 -15 9 0 12 -21 18 -42 13z"/>
<path d="M14136 203 c-6 -6 -347 -16 -431 -12 -11 0 -54 -2 -95 -5 -41 -3
-181 -8 -310 -11 -405 -10 -444 -12 -471 -23 -14 -6 -31 -7 -38 -2 -7 4 -88 6
-179 5 -306 -6 -1207 -17 -1240 -16 -18 1 -42 -4 -53 -10 -15 -7 -24 -7 -34 1
-9 7 -31 8 -71 1 -33 -5 -66 -5 -74 -1 -17 9 -74 6 -110 -7 -14 -4 -41 -7 -60
-5 -60 4 -82 4 -190 -1 -58 -3 -115 -6 -127 -6 -33 -1 -49 -38 -27 -62 23 -26
39 -24 62 6 12 15 23 21 27 15 9 -14 98 -13 113 2 8 8 15 8 24 1 13 -10 92 -9
135 2 12 3 25 1 28 -5 4 -7 13 -6 27 1 15 8 22 8 28 -1 10 -17 115 -24 243
-18 46 2 72 -1 79 -10 13 -15 59 -16 91 -1 19 9 31 7 55 -5 34 -17 82 -22 82
-7 0 12 60 20 66 9 4 -5 13 -7 21 -4 26 10 210 8 230 -3 15 -7 25 -6 42 6 18
12 28 13 47 4 18 -8 36 -8 70 1 35 10 49 10 65 0 16 -10 20 -10 25 3 6 16 64
22 64 6 0 -17 172 1 197 21 6 5 20 8 30 6 10 -1 23 1 30 5 7 4 14 -1 18 -14 6
-19 8 -20 26 -3 29 27 98 28 126 2 19 -18 25 -19 39 -7 9 7 19 22 23 32 6 17
9 16 35 -8 19 -17 34 -24 45 -19 9 4 26 6 39 5 16 -2 22 3 22 18 0 24 22 27
43 6 11 -11 46 -16 124 -20 59 -2 149 -6 198 -9 81 -5 189 9 245 31 8 4 20 5
25 3 52 -15 86 -16 106 -2 16 11 23 12 29 2 8 -13 179 -18 199 -6 6 4 29 2 52
-4 24 -7 45 -8 52 -2 7 5 23 6 37 2 14 -3 40 0 59 8 31 12 36 12 47 -2 14 -20
25 -20 64 2 29 16 32 16 44 0 12 -16 16 -16 63 -1 30 10 58 13 69 8 35 -14 86
-16 141 -5 45 10 58 9 78 -4 20 -13 25 -13 35 -1 7 8 27 15 46 15 18 0 40 7
48 16 9 8 26 14 39 13 12 -2 32 2 44 9 17 9 22 9 26 -1 3 -9 9 -8 21 3 14 14
14 19 2 35 -13 18 -32 19 -346 19 -182 1 -333 0 -334 -1z"/>
<path d="M15265 190 c3 -5 8 -10 11 -10 2 0 4 5 4 10 0 6 -5 10 -11 10 -5 0
-7 -4 -4 -10z"/>
<path d="M15490 186 c0 -9 5 -16 10 -16 6 0 10 4 10 9 0 6 -4 13 -10 16 -5 3
-10 -1 -10 -9z"/>
<path d="M14932 179 c2 -7 10 -15 17 -17 8 -3 12 1 9 9 -2 7 -10 15 -17 17 -8
3 -12 -1 -9 -9z"/>
<path d="M15185 180 c3 -5 8 -10 11 -10 2 0 4 5 4 10 0 6 -5 10 -11 10 -5 0
-7 -4 -4 -10z"/>
<path d="M18320 179 c0 -5 5 -7 10 -4 6 3 10 8 10 11 0 2 -4 4 -10 4 -5 0 -10
-5 -10 -11z"/>
<path d="M15665 170 c-4 -6 -18 -16 -32 -21 -41 -15 -20 -21 26 -7 22 7 40 17
38 22 -5 15 -24 18 -32 6z"/>
<path d="M16955 160 c-3 -5 -1 -10 4 -10 6 0 11 5 11 10 0 6 -2 10 -4 10 -3 0
-8 -4 -11 -10z"/>
<path d="M14850 140 c0 -5 5 -10 10 -10 6 0 10 5 10 10 0 6 -4 10 -10 10 -5 0
-10 -4 -10 -10z"/>
<path d="M15870 140 c0 -5 5 -10 10 -10 6 0 10 5 10 10 0 6 -4 10 -10 10 -5 0
-10 -4 -10 -10z"/>
<path d="M16615 140 c-3 -5 1 -10 9 -10 9 0 16 5 16 10 0 6 -4 10 -9 10 -6 0
-13 -4 -16 -10z"/>
<path d="M250 112 c0 -18 12 -42 21 -42 14 0 10 26 -6 40 -9 8 -15 8 -15 2z"/>
<path d="M9445 110 c-11 -4 -24 -5 -28 -3 -5 3 -17 -3 -27 -12 -18 -16 -20
-16 -26 -1 -8 21 -30 21 -38 0 -4 -11 -12 -14 -24 -9 -9 4 -36 7 -59 6 -23 -1
-51 4 -62 10 -14 9 -23 10 -33 2 -8 -6 -78 -11 -178 -12 -91 -1 -193 -6 -227
-10 -34 -5 -78 -5 -100 -1 -23 6 -78 4 -143 -4 -58 -7 -116 -10 -131 -6 -14 4
-45 5 -70 3 -64 -7 -114 -4 -117 7 -6 16 -32 12 -32 -4 0 -24 -14 -26 -62 -11
-25 7 -60 11 -79 8 -19 -3 -79 -6 -133 -7 -69 -2 -101 -6 -104 -15 -3 -8 -8
-9 -16 -2 -6 5 -30 10 -51 10 -87 -1 -300 -6 -495 -13 -113 -4 -313 -9 -445
-12 -132 -2 -258 -7 -280 -9 -22 -3 -47 -5 -55 -5 -8 1 -95 2 -193 4 -134 2
-182 0 -195 -10 -25 -19 2008 -20 2038 -2 16 10 22 10 28 1 10 -16 782 -16
782 -1 0 7 30 8 88 2 102 -9 163 -7 176 6 15 15 36 12 36 -5 0 -20 29 -19 36
0 4 10 13 13 25 10 28 -9 59 3 52 21 -3 7 0 14 6 14 6 0 11 -4 11 -9 0 -19 79
-25 240 -17 53 2 78 -1 88 -10 18 -19 42 -18 42 1 0 8 7 15 15 15 8 0 15 -4
15 -10 0 -18 29 -11 40 10 13 23 40 27 40 5 0 -8 7 -15 15 -15 8 0 15 7 15 15
0 8 9 15 20 15 11 0 20 -6 20 -14 0 -22 36 -29 74 -15 25 9 44 9 75 1 34 -8
43 -8 48 4 8 20 20 17 26 -7 3 -12 10 -18 16 -15 6 4 7 14 4 22 -3 9 0 20 8
25 21 13 27 11 25 -7 0 -9 5 -19 13 -22 10 -3 12 0 8 11 -8 23 25 32 40 11 9
-12 21 -15 47 -11 24 4 39 1 47 -9 17 -21 57 -17 69 7 10 18 13 19 23 6 16
-20 54 -30 62 -17 4 7 2 17 -3 22 -7 7 -8 17 -2 28 8 14 4 20 -20 30 -36 15
-60 7 -60 -18 0 -27 -24 -44 -52 -39 -20 4 -19 4 5 6 21 1 28 5 25 19 -5 25
-96 35 -121 14 -16 -14 -19 -14 -32 5 -13 19 -19 20 -55 11 -29 -8 -44 -7 -55
2 -18 15 -35 5 -35 -21 0 -26 -37 -25 -45 1 -4 11 -10 18 -14 16 -13 -8 -104
-9 -153 -1 -42 6 -47 5 -53 -16 l-8 -24 -8 23 c-7 18 -12 21 -27 13 -11 -6
-24 -6 -35 1 -10 5 -32 6 -50 2 -53 -12 -130 -12 -162 1 -17 7 -39 9 -50 5z"/>
<path d="M23525 111 c-6 -11 9 -23 19 -14 9 9 7 23 -3 23 -6 0 -12 -4 -16 -9z"/>
<path d="M10493 91 c-2 -9 -8 -23 -13 -32 -13 -25 70 -19 98 7 l23 21 -51 10
c-45 9 -52 8 -57 -6z"/>
<path d="M5837 47 c-3 -9 -23 -19 -44 -22 -119 -20 -112 -23 57 -24 134 -1
171 2 162 11 -6 6 -41 13 -77 14 -50 1 -69 6 -79 19 -11 16 -13 16 -19 2z"/>
<path d="M20216 52 c-8 -13 11 -35 23 -28 16 10 14 36 -3 36 -8 0 -17 -4 -20
-8z"/>
<path d="M5535 22 l-30 -17 28 -3 c15 -2 37 -2 48 0 21 3 21 3 3 20 -18 15
-21 15 -49 0z"/>
<path d="M207 23 c-14 -13 -6 -23 19 -23 22 0 25 2 14 15 -14 16 -23 19 -33 8z"/>
<path d="M376 21 c-4 -7 -5 -15 -2 -18 9 -9 19 4 14 18 -4 11 -6 11 -12 0z"/>
<path d="M5217 24 c-19 -20 4 -24 130 -24 128 0 136 1 121 17 -14 13 -20 14
-32 4 -14 -12 -136 -9 -191 5 -11 3 -24 2 -28 -2z"/>
<path d="M25 10 c-4 -6 5 -10 19 -10 14 0 26 5 26 10 0 6 -9 10 -19 10 -11 0
-23 -4 -26 -10z"/>
<path d="M95 10 c-3 -5 1 -10 10 -10 9 0 13 5 10 10 -3 6 -8 10 -10 10 -2 0
-7 -4 -10 -10z"/>
<path d="M1380 10 c0 -5 7 -10 16 -10 8 0 12 5 9 10 -3 6 -10 10 -16 10 -5 0
-9 -4 -9 -10z"/>
<path d="M1645 10 c-3 -5 3 -10 15 -10 12 0 18 5 15 10 -3 6 -10 10 -15 10 -5
0 -12 -4 -15 -10z"/>
<path d="M1765 10 c-4 -6 8 -10 30 -10 22 0 34 4 30 10 -8 13 -52 13 -60 0z"/>
<path d="M1875 10 c-3 -5 1 -10 10 -10 9 0 13 5 10 10 -3 6 -8 10 -10 10 -2 0
-7 -4 -10 -10z"/>
<path d="M4695 10 c-3 -5 1 -10 10 -10 9 0 13 5 10 10 -3 6 -8 10 -10 10 -2 0
-7 -4 -10 -10z"/>
<path d="M4780 10 c0 -5 16 -10 36 -10 21 0 33 4 29 10 -8 13 -65 13 -65 0z"/>
<path d="M5009 9 c-10 -6 -7 -9 14 -9 29 0 35 5 14 13 -8 3 -20 1 -28 -4z"/>
<path d="M5090 10 c0 -5 17 -10 38 -9 33 1 34 2 12 9 -36 11 -50 11 -50 0z"/>
<path d="M5615 10 c-4 -6 5 -10 20 -10 15 0 24 4 20 10 -3 5 -12 10 -20 10 -8
0 -17 -4 -20 -10z"/>
<path d="M4488 3 c12 -2 30 -2 40 0 9 3 -1 5 -23 4 -22 0 -30 -2 -17 -4z"/>
<path d="M4938 3 c6 -2 18 -2 25 0 6 3 1 5 -13 5 -14 0 -19 -2 -12 -5z"/>
<path d="M9498 3 c7 -3 16 -2 19 1 4 3 -2 6 -13 5 -11 0 -14 -3 -6 -6z"/>
</g>
</svg>
