<?xml version="1.0" standalone="no"?>
<!DOCTYPE svg PUBLIC "-//W3C//DTD SVG 20010904//EN"
 "http://www.w3.org/TR/2001/REC-SVG-20010904/DTD/svg10.dtd">
<svg version="1.0" xmlns="http://www.w3.org/2000/svg"
 width="3264.000000pt" height="2448.000000pt" viewBox="0 0 3264.000000 2448.000000"
 preserveAspectRatio="xMidYMid meet">
<metadata>
Created by potrace 1.12, written by Peter Selinger 2001-2015
</metadata>
<g transform="translate(0.000000,2448.000000) scale(0.100000,-0.100000)"
fill="#000000" stroke="none">
<path d="M7059 21597 c-14 -12 -34 -35 -44 -51 -10 -16 -84 -97 -164 -180 -81
-83 -161 -168 -178 -190 -19 -24 -37 -37 -46 -33 -28 11 -109 148 -135 230
-22 67 -31 83 -49 85 -17 2 -26 -4 -35 -23 -25 -56 32 -196 125 -303 20 -24
37 -51 37 -61 0 -9 -30 -48 -66 -86 -111 -115 -219 -295 -212 -353 4 -33 32
-51 55 -36 10 6 30 46 45 88 25 73 34 89 83 156 11 15 45 61 75 104 54 75 80
92 97 61 20 -35 183 -191 237 -226 55 -36 147 -66 167 -53 25 15 6 41 -48 66
-32 15 -88 52 -124 82 -79 66 -201 203 -197 221 2 8 53 65 113 128 191 198
310 327 319 347 10 23 2 50 -16 50 -7 0 -25 -10 -39 -23z"/>
<path d="M2769 21578 c-8 -14 -11 -92 -10 -245 1 -173 -1 -224 -11 -228 -17
-5 -293 -18 -343 -16 -48 2 -75 25 -75 61 0 14 9 78 20 140 12 62 18 126 15
142 -7 30 -47 64 -64 54 -5 -3 -12 -39 -16 -78 -3 -40 -13 -126 -22 -192 -18
-140 -13 -158 50 -186 69 -30 165 -34 294 -14 107 17 114 17 131 1 13 -14 16
-32 14 -75 -4 -87 32 -353 50 -366 34 -25 53 -33 69 -29 24 7 24 27 -1 68 -12
19 -26 73 -35 131 -15 99 -22 285 -11 303 4 5 29 14 58 20 97 21 149 74 98
101 -16 8 -23 7 -37 -10 -10 -11 -33 -25 -51 -31 -28 -9 -37 -8 -49 4 -18 17
-19 80 -4 148 5 24 11 94 12 156 3 106 2 114 -21 138 -29 31 -46 32 -61 3z"/>
<path d="M6145 21540 c-16 -32 -33 -109 -65 -310 -34 -211 -40 -242 -66 -330
-45 -147 -99 -229 -142 -216 -82 26 -160 225 -197 505 -14 102 -31 141 -61
141 -8 0 -20 -10 -28 -22 -13 -21 -12 -38 14 -161 65 -311 108 -434 171 -492
34 -30 46 -35 90 -35 92 0 149 52 204 187 30 76 70 257 90 413 9 69 25 170 35
224 15 73 17 103 9 113 -18 21 -37 15 -54 -17z"/>
<path d="M3829 21538 c-56 -46 -70 -126 -70 -379 1 -301 11 -420 47 -546 16
-56 48 -103 69 -103 22 0 23 12 9 65 -33 117 -45 219 -50 435 -7 256 4 393 36
447 23 39 25 64 8 81 -15 15 -30 15 -49 0z"/>
<path d="M5058 21422 c-43 -46 -89 -226 -108 -418 -12 -127 -28 -211 -40 -219
-13 -8 -56 71 -74 135 -8 30 -20 91 -26 135 -7 44 -15 106 -20 138 -9 66 -47
117 -86 117 -61 0 -161 -331 -214 -704 -19 -140 -19 -150 -4 -167 18 -20 50
-24 71 -11 8 5 15 43 18 103 2 51 16 157 30 234 13 77 34 189 44 249 30 165
50 169 81 14 34 -168 95 -303 147 -324 44 -19 94 1 111 42 15 38 52 225 52
262 0 25 23 181 36 240 6 31 32 28 45 -5 7 -16 15 -37 20 -48 4 -11 13 -51 19
-90 22 -130 99 -438 112 -447 24 -15 59 -21 69 -11 7 7 5 23 -6 49 -16 40 -40
133 -75 299 -11 55 -27 129 -35 165 -8 36 -17 83 -20 105 -6 39 -43 113 -74
148 -31 36 -46 38 -73 9z"/>
<path d="M3575 21019 c-89 -30 -156 -35 -315 -19 -99 9 -120 4 -120 -30 0 -34
32 -47 129 -53 166 -9 336 26 393 80 25 24 28 55 4 52 -6 -1 -47 -14 -91 -30z"/>
<path d="M24257 19515 c-43 -22 -85 -55 -144 -113 -129 -126 -89 -208 122
-248 19 -3 40 -13 47 -22 11 -13 4 -23 -52 -71 -144 -125 -210 -202 -210 -248
0 -44 41 -74 125 -92 94 -20 109 -36 81 -84 -66 -112 -81 -152 -80 -215 1 -93
40 -163 122 -219 61 -42 104 -54 117 -33 12 19 -6 45 -55 82 -122 93 -132 149
-50 304 27 53 50 104 50 113 0 29 -39 81 -72 95 -18 8 -55 19 -83 25 -27 7
-56 18 -64 26 -19 18 -14 24 124 143 127 108 155 146 140 188 -13 37 -75 71
-141 80 -57 7 -114 36 -114 58 0 37 131 141 194 153 57 11 74 44 38 76 -23 21
-58 22 -95 2z"/>
<path d="M18647 19298 c-63 -59 -146 -156 -229 -265 -38 -51 -75 -99 -81 -105
-55 -57 -171 -258 -206 -358 -7 -19 -17 -44 -21 -55 -60 -145 -76 -352 -40
-503 35 -144 134 -323 232 -419 73 -70 124 -103 164 -103 58 0 54 18 -14 64
-59 40 -169 161 -211 229 -76 129 -111 251 -111 394 0 234 104 499 299 762
130 175 241 294 309 330 17 9 22 19 20 39 -2 22 -9 28 -34 30 -25 2 -40 -5
-77 -40z"/>
<path d="M22927 19283 c-14 -13 -6 -42 37 -129 48 -95 115 -317 136 -447 26
-158 -6 -413 -71 -581 -37 -93 -92 -199 -121 -232 -24 -28 -27 -36 -18 -54 27
-51 66 -14 142 135 137 267 177 564 114 849 -49 223 -110 391 -160 441 -25 25
-46 31 -59 18z"/>
<path d="M20741 19091 c-55 -55 -121 -541 -103 -764 9 -109 18 -134 45 -124
17 7 33 136 23 183 -6 28 21 275 45 414 14 80 47 207 59 231 33 60 -21 108
-69 60z"/>
<path d="M17060 18938 c-72 -119 -172 -627 -149 -755 11 -58 24 -73 63 -73 47
0 92 32 201 145 135 139 175 153 216 73 11 -22 26 -68 34 -102 27 -128 64
-223 96 -250 34 -29 70 -33 93 -11 19 20 10 44 -20 56 -37 13 -61 63 -89 183
-53 231 -113 293 -228 235 -53 -28 -110 -78 -174 -154 -28 -33 -64 -68 -81
-78 -30 -17 -31 -17 -41 1 -13 25 1 159 28 262 11 41 27 109 35 151 19 91 69
240 90 271 20 28 20 42 0 62 -25 25 -52 19 -74 -16z"/>
<path d="M22390 18928 c-22 -37 -47 -137 -62 -253 -5 -44 -13 -96 -17 -115
l-7 -35 -118 -7 c-65 -4 -125 -9 -132 -12 -19 -7 -18 -50 1 -66 16 -13 92 -9
175 9 70 15 76 4 64 -119 -9 -106 -5 -140 20 -140 23 0 27 13 37 142 5 67 12
125 17 130 4 4 43 15 87 24 81 17 155 47 155 63 0 12 -29 41 -39 41 -5 0 -28
-9 -52 -19 -24 -10 -63 -22 -86 -26 -36 -6 -42 -4 -48 13 -9 30 40 225 75 297
23 47 25 76 8 93 -23 23 -57 14 -78 -20z"/>
<path d="M21107 18746 c-49 -18 -99 -51 -165 -111 -101 -91 -119 -173 -63
-287 17 -35 36 -71 43 -82 9 -13 10 -20 2 -23 -31 -11 -46 -30 -40 -51 9 -27
44 -29 88 -6 25 13 38 14 62 6 109 -38 258 -40 371 -5 45 14 61 24 63 39 5 32
-22 49 -55 36 -90 -36 -289 -40 -322 -8 -12 12 -2 25 67 93 90 87 127 154 138
246 14 125 -72 194 -189 153z m101 -72 c59 -41 2 -186 -136 -343 -45 -52 -59
-51 -99 10 -21 33 -28 56 -31 108 -4 65 -3 67 37 113 23 26 68 63 99 82 49 29
67 37 102 45 3 0 16 -6 28 -15z"/>
<path d="M20224 18720 c-63 -35 -99 -77 -135 -155 -28 -59 -59 -163 -59 -197
0 -28 -17 -30 -60 -8 -31 16 -45 18 -60 10 -25 -13 -25 -21 1 -54 13 -17 30
-26 49 -26 40 0 56 -20 64 -81 15 -114 81 -229 150 -260 54 -25 122 -24 164 1
35 21 41 50 16 71 -13 10 -21 10 -47 -3 -65 -34 -76 -33 -116 9 -45 48 -81
149 -81 227 0 48 3 54 28 65 131 59 278 219 297 324 8 39 -14 90 -40 101 -43
16 -120 6 -171 -24z m117 -40 c25 -14 24 -36 -5 -87 -49 -85 -166 -203 -202
-203 -25 0 -24 39 5 109 34 83 86 151 133 174 39 20 44 20 69 7z"/>
<path d="M15570 18715 c-14 -17 -15 -8 29 -305 17 -113 31 -214 31 -225 0 -15
-18 -30 -68 -55 -70 -36 -88 -64 -62 -96 18 -21 36 -17 75 17 49 44 62 34 70
-53 9 -94 32 -246 40 -258 3 -6 16 -10 27 -10 20 0 21 3 14 98 -4 53 -12 119
-17 146 -5 27 -9 72 -9 100 0 50 1 51 43 72 23 12 88 36 144 53 55 18 109 41
118 51 16 17 15 19 -6 30 -34 19 -93 6 -184 -39 -45 -23 -89 -41 -97 -41 -19
0 -28 29 -28 95 0 28 -9 124 -20 215 -11 91 -20 168 -20 173 0 12 -39 47 -54
47 -7 0 -19 -7 -26 -15z"/>
<path d="M15277 18703 c-12 -11 -7 -48 9 -71 23 -34 78 -28 82 9 5 40 -66 88
-91 62z"/>
<path d="M21820 18700 c-70 -19 -143 -88 -191 -179 -30 -59 -38 -176 -15 -252
22 -76 85 -178 120 -196 47 -24 149 -12 226 27 85 43 160 114 160 151 0 41
-18 37 -86 -23 -68 -59 -123 -87 -194 -95 -96 -11 -140 53 -148 217 -4 83 -2
101 18 143 25 54 91 116 132 124 39 8 62 36 49 61 -13 24 -37 31 -71 22z"/>
<path d="M19360 18661 c-76 -24 -115 -46 -139 -77 -26 -34 -26 -46 1 -102 31
-62 113 -131 222 -189 116 -61 136 -82 136 -142 0 -63 -40 -119 -150 -212 -64
-54 -90 -69 -120 -69 -27 0 -36 -24 -21 -57 10 -23 16 -25 52 -20 95 13 310
226 325 323 14 98 -23 150 -160 219 -112 57 -226 166 -226 215 0 22 108 59
190 66 44 4 83 11 86 15 3 5 0 18 -6 29 -9 17 -20 20 -73 19 -34 0 -87 -8
-117 -18z"/>
<path d="M16385 18362 c-33 -31 -91 -84 -129 -116 -94 -82 -126 -134 -126
-206 0 -122 80 -197 215 -201 118 -4 265 66 265 127 0 32 -22 31 -79 -5 -149
-94 -343 -38 -317 90 11 56 47 99 162 195 62 51 115 103 119 114 8 25 -11 60
-33 60 -9 0 -44 -26 -77 -58z"/>
<path d="M3801 18401 c-14 -9 -13 -27 8 -106 9 -37 20 -169 39 -481 4 -66 6
-127 4 -135 -2 -9 -23 -21 -52 -28 -41 -10 -72 -10 -192 5 -210 25 -405 12
-593 -38 -22 -5 -87 -10 -144 -10 -143 2 -212 -29 -161 -70 32 -26 112 -23
278 8 205 39 219 41 322 49 56 4 130 2 180 -5 172 -23 221 -24 278 -1 90 36
85 55 87 -350 1 -195 -2 -364 -7 -377 l-8 -22 -362 0 c-310 1 -383 -2 -498
-19 -141 -20 -229 -48 -267 -83 -28 -26 -29 -40 -5 -61 26 -24 49 -21 67 7 21
32 48 41 190 67 108 19 152 21 440 20 183 -1 343 3 374 9 68 13 84 2 77 -49
-12 -83 -19 -621 -21 -1616 -2 -1118 -5 -1189 -51 -1370 -14 -56 -14 -61 3
-73 38 -28 56 -12 123 117 36 68 79 140 96 160 17 20 61 81 99 136 67 98 211
292 319 430 30 39 74 94 96 123 23 28 44 52 48 52 20 -1 36 -23 42 -61 4 -24
22 -118 40 -209 53 -271 59 -301 74 -400 44 -271 68 -547 96 -1110 9 -183 13
-289 25 -690 3 -91 8 -239 11 -330 4 -91 9 -244 13 -340 l6 -174 27 -16 c25
-13 29 -13 43 1 13 13 14 21 4 45 -6 16 -13 90 -15 164 -2 74 -6 169 -9 210
-2 41 -7 165 -10 275 -18 689 -33 1007 -65 1445 -14 189 -55 496 -90 674 -58
299 -69 352 -89 446 -35 162 -44 142 137 329 86 90 197 199 245 241 l88 78 4
208 c3 181 20 473 29 481 1 1 173 3 382 3 314 1 415 -2 589 -19 600 -60 693
-68 723 -63 37 5 46 15 37 41 -11 34 -12 35 -390 69 -126 12 -275 27 -330 33
-155 17 -618 23 -806 10 -92 -6 -175 -8 -184 -5 -14 6 -16 16 -11 53 3 25 10
170 15 321 5 151 13 305 16 341 6 60 4 71 -24 126 -60 120 -174 275 -327 445
-86 95 -209 231 -273 303 -64 71 -148 164 -188 207 -39 43 -91 104 -114 136
-74 97 -169 203 -274 302 -137 130 -182 161 -214 141z m267 -311 c43 -47 122
-139 177 -205 55 -65 167 -195 249 -289 81 -94 178 -205 213 -246 36 -41 88
-100 117 -130 121 -128 216 -260 278 -385 34 -68 35 -72 27 -145 -4 -41 -8
-172 -10 -290 -2 -206 -16 -427 -38 -575 -5 -38 -13 -173 -17 -298 l-7 -229
-181 -182 c-100 -100 -199 -205 -221 -234 -25 -34 -46 -52 -60 -52 -12 0 -29
-6 -39 -13 -15 -11 -16 -17 -7 -35 10 -19 2 -30 -72 -109 -94 -100 -167 -186
-217 -256 -19 -27 -46 -63 -60 -80 -63 -78 -134 -182 -207 -301 -43 -71 -82
-129 -88 -129 -26 1 -28 35 -11 145 17 102 18 167 15 668 -5 641 -4 812 8
1615 12 883 5 1649 -17 1805 -5 36 -10 78 -10 93 l0 29 51 -43 c28 -23 85 -81
127 -129z"/>
<path d="M4100 17819 c-61 -10 -105 -48 -96 -83 3 -11 -4 -30 -15 -44 -61 -79
26 -184 136 -163 65 12 95 38 122 102 32 78 30 123 -6 160 -16 16 -36 29 -44
29 -9 0 -21 2 -29 4 -7 2 -38 0 -68 -5z m54 -78 c20 -17 46 -71 46 -94 0 -28
-40 -57 -79 -57 -32 0 -45 6 -71 36 -26 30 -30 41 -25 68 14 65 79 90 129 47z"/>
<path d="M4097 17083 c-19 -18 10 -301 36 -350 19 -36 53 -63 80 -63 40 0 30
48 -22 103 -25 27 -26 34 -29 155 -3 97 -8 131 -20 145 -16 18 -34 22 -45 10z"/>
<path d="M4223 16480 c-36 -8 -117 -53 -150 -83 -27 -24 -31 -72 -7 -81 18 -7
22 -5 83 42 71 54 130 31 98 -39 -8 -19 -17 -43 -21 -54 -3 -11 -14 -45 -25
-75 -35 -95 -25 -140 31 -140 37 0 236 97 249 121 26 49 -22 51 -120 4 -40
-19 -79 -35 -87 -35 -27 0 -26 29 1 111 57 173 40 249 -52 229z"/>
<path d="M4190 15418 c-74 -50 -148 -117 -155 -139 -5 -14 -1 -25 12 -34 16
-13 20 -12 32 5 7 11 22 20 32 20 15 0 18 -7 16 -37 l-2 -38 71 -6 c78 -6 124
-28 124 -59 0 -27 -75 -96 -137 -126 -43 -20 -53 -29 -53 -50 0 -69 114 -40
176 45 70 95 96 188 64 227 -18 21 -71 44 -103 44 -13 0 -31 6 -41 13 -17 13
-16 17 23 68 44 58 48 68 29 87 -19 19 -39 14 -88 -20z"/>
<path d="M13225 18379 c-104 -7 -160 -22 -232 -64 -76 -45 -92 -99 -53 -175
26 -50 56 -72 225 -159 160 -83 205 -119 205 -166 0 -67 -123 -205 -224 -251
-53 -24 -63 -26 -92 -15 -19 7 -38 9 -44 6 -18 -11 -11 -41 15 -65 57 -54 195
1 316 127 172 178 147 273 -107 408 -160 84 -213 121 -229 158 -12 28 -11 34
3 51 47 51 145 75 322 79 118 2 125 3 128 23 7 47 -42 57 -233 43z"/>
<path d="M14928 18213 c-33 -37 -129 -184 -162 -250 -14 -28 -39 -86 -56 -128
-32 -80 -67 -142 -94 -164 -13 -11 -19 -11 -32 0 -15 12 -16 33 -9 194 11 252
10 265 -21 293 -14 12 -33 22 -43 22 -28 0 -89 -73 -216 -261 -122 -178 -207
-266 -269 -276 -41 -6 -61 12 -77 70 -19 70 5 307 40 400 14 37 14 43 -5 61
-24 24 -52 19 -68 -12 -15 -28 -38 -178 -51 -323 -10 -106 7 -180 52 -230 31
-35 40 -39 82 -39 71 0 137 37 202 111 78 90 160 203 198 275 41 78 91 138
103 126 6 -6 5 -69 -2 -166 -16 -235 10 -346 82 -346 46 0 130 91 176 190 87
190 154 322 186 363 41 54 52 83 36 102 -17 20 -23 19 -52 -12z"/>
<path d="M15129 18158 c-15 -27 -6 -169 22 -363 22 -157 34 -201 54 -209 23
-8 48 23 41 53 -19 79 -38 262 -39 377 -2 137 -10 164 -48 164 -10 0 -24 -10
-30 -22z"/>
<path d="M2046 18006 c-83 -35 -127 -73 -159 -139 -22 -45 -26 -61 -17 -77 14
-26 34 -25 52 2 20 30 34 17 41 -40 8 -68 48 -153 87 -186 27 -23 40 -27 68
-22 71 11 105 50 129 148 24 100 -2 272 -47 313 -31 28 -88 29 -154 1z m106
-67 c36 -20 48 -68 38 -156 -15 -135 -54 -186 -109 -146 -40 30 -61 80 -61
147 0 41 -5 65 -16 77 -23 26 -11 47 38 69 49 22 80 25 110 9z"/>
<path d="M1202 17914 c-27 -19 -28 -55 -3 -78 26 -24 62 -17 80 16 15 25 14
29 -8 52 -28 30 -38 32 -69 10z"/>
<path d="M1550 17825 c-15 -19 -7 -90 22 -190 11 -38 22 -80 25 -92 7 -29 49
-67 67 -60 12 5 14 19 9 76 -7 78 2 89 32 39 50 -85 153 -163 187 -142 17 11
6 28 -65 103 -40 42 -86 96 -102 120 -16 24 -47 54 -67 67 -23 15 -38 32 -38
44 0 10 -10 26 -22 34 -28 20 -32 20 -48 1z"/>
<path d="M1250 17753 c0 -64 119 -243 161 -243 29 0 23 27 -21 94 -21 34 -46
78 -55 99 -30 72 -85 104 -85 50z"/>
<path d="M30006 17337 c-11 -8 -19 -38 -26 -95 -5 -45 -18 -133 -29 -195 -11
-61 -25 -168 -31 -237 -5 -69 -12 -147 -14 -175 -3 -27 -15 -75 -29 -105 -13
-30 -30 -79 -36 -109 -10 -45 -9 -58 4 -77 35 -53 68 -18 89 95 9 47 19 87 22
90 3 3 15 -7 27 -23 28 -39 74 -56 149 -56 87 1 138 14 246 65 71 34 92 48 92
64 0 33 -32 43 -73 22 -103 -53 -240 -86 -302 -74 -35 6 -65 30 -65 50 0 45
146 201 269 289 100 71 119 94 96 118 -35 35 -59 23 -230 -115 -39 -31 -90
-78 -114 -104 -45 -47 -45 -47 -62 -27 -16 20 -15 28 6 129 39 189 78 430 72
446 -10 25 -42 38 -61 24z"/>
<path d="M2300 17230 c-15 -27 -4 -67 80 -299 33 -89 71 -141 105 -141 33 0
32 21 -3 79 -39 63 -92 220 -99 289 -6 60 -25 92 -54 92 -10 0 -23 -9 -29 -20z"/>
<path d="M27626 17178 c-34 -53 -45 -182 -26 -323 5 -38 16 -124 25 -190 23
-177 26 -193 40 -212 26 -35 57 0 130 148 76 154 100 185 138 175 28 -7 57
-59 64 -115 13 -95 -99 -218 -216 -237 -72 -12 -130 3 -166 43 -42 45 -65 40
-65 -15 0 -67 58 -102 172 -102 63 0 161 30 219 66 48 30 110 116 125 173 8
34 9 63 2 101 -27 151 -104 200 -200 127 -42 -32 -75 -86 -126 -204 -38 -92
-45 -78 -64 127 -18 194 -16 345 6 395 16 38 16 40 0 52 -26 19 -42 16 -58 -9z"/>
<path d="M1458 17119 c-39 -29 -38 -73 1 -94 28 -14 31 -13 60 11 38 32 39 56
5 83 -32 25 -32 25 -66 0z"/>
<path d="M25685 17130 c-3 -5 -29 -20 -56 -32 -48 -20 -50 -23 -45 -51 4 -20
0 -37 -13 -56 -72 -102 -118 -258 -108 -369 8 -80 56 -175 107 -208 51 -34
128 -48 182 -34 64 18 96 37 165 97 48 42 71 72 100 131 36 72 38 81 38 172 0
78 -4 104 -23 145 -41 90 -100 137 -214 170 -31 9 -62 22 -68 30 -14 17 -56
20 -65 5z m159 -125 c92 -41 136 -110 136 -212 0 -115 -49 -210 -147 -288 -73
-57 -119 -72 -172 -56 -84 25 -130 128 -116 259 11 104 67 235 129 300 29 31
34 33 75 27 24 -4 67 -17 95 -30z"/>
<path d="M1920 17033 c-32 -29 -54 -93 -44 -125 3 -10 1 -18 -5 -18 -6 0 -11
8 -11 18 0 26 -45 66 -66 58 -22 -9 -13 -63 25 -149 35 -78 62 -107 97 -107
29 0 29 -16 9 150 -8 65 6 110 34 110 10 0 34 -16 54 -36 33 -35 50 -67 97
-184 24 -59 55 -100 77 -100 26 0 24 28 -6 89 -17 33 -31 66 -31 73 0 23 -59
139 -91 180 -29 36 -75 68 -98 68 -6 0 -24 -12 -41 -27z"/>
<path d="M22235 17050 c-15 -25 -35 -110 -35 -155 l-1 -50 -86 -75 c-47 -41
-111 -98 -140 -126 -92 -86 -222 -153 -299 -154 -40 0 -84 34 -84 65 0 14 8
40 17 60 13 27 15 40 7 53 -31 49 -69 9 -85 -88 -19 -117 18 -160 134 -160
149 0 318 102 452 274 60 77 78 89 89 60 12 -31 6 -54 -19 -70 -33 -22 -32
-50 4 -68 26 -14 29 -20 33 -90 6 -91 40 -169 77 -174 26 -4 26 0 1 123 -6 28
-13 76 -17 107 l-5 57 38 10 c22 5 84 21 139 35 143 35 266 73 277 84 6 6 7
16 3 22 -11 18 -107 6 -280 -37 -87 -21 -159 -34 -169 -30 -17 7 -18 16 -12
121 4 62 11 128 16 146 6 21 6 39 -1 51 -10 20 -44 26 -54 9z"/>
<path d="M18633 17034 c-69 -17 -83 -34 -51 -64 l22 -20 -91 -88 c-146 -140
-253 -324 -253 -435 0 -114 74 -230 167 -261 129 -44 293 6 472 144 245 190
310 384 190 570 -42 65 -96 110 -177 146 -62 28 -178 31 -279 8z m245 -69 c60
-25 117 -80 152 -147 64 -118 44 -225 -68 -356 -70 -82 -223 -183 -337 -222
-151 -52 -252 1 -283 147 -10 45 -9 61 8 115 27 86 116 215 220 320 71 72 94
89 133 99 43 10 52 19 48 43 -1 5 0 15 3 22 5 14 62 4 124 -21z"/>
<path d="M30676 17011 c-44 -48 16 -119 64 -76 26 23 26 71 1 85 -29 15 -46
12 -65 -9z"/>
<path d="M24342 16958 c-21 -21 -13 -55 19 -83 39 -32 51 -29 63 18 8 30 6 40
-9 57 -20 22 -55 26 -73 8z"/>
<path d="M1445 16914 c-20 -20 -16 -42 27 -131 39 -83 81 -131 137 -156 78
-35 82 16 5 79 -56 46 -94 109 -94 156 0 21 -7 41 -18 51 -23 21 -36 21 -57 1z"/>
<path d="M26425 16900 c-52 -11 -120 -55 -123 -79 -5 -29 15 -51 44 -51 24 0
121 60 136 83 21 34 -8 58 -57 47z"/>
<path d="M28728 16869 c-71 -25 -110 -69 -127 -142 -7 -31 -18 -57 -24 -57 -7
0 -35 20 -62 43 -89 78 -122 84 -196 37 -153 -96 -256 -389 -125 -356 33 8 43
30 28 68 -8 23 -7 37 8 71 28 64 75 123 120 153 l41 27 42 -32 c23 -17 63 -43
89 -56 32 -17 54 -38 67 -63 10 -20 31 -48 46 -62 24 -22 35 -25 99 -24 79 1
180 29 255 70 24 13 49 24 56 24 14 0 25 -22 25 -50 0 -11 10 -31 23 -45 18
-22 31 -27 70 -27 78 0 124 40 193 167 16 29 37 25 47 -10 50 -165 122 -245
223 -245 43 0 82 34 63 56 -6 8 -28 14 -48 14 -51 0 -98 32 -120 83 -20 46
-46 146 -57 217 -4 25 -17 54 -30 67 -12 12 -24 35 -26 50 -2 22 -9 29 -31 31
-21 3 -51 -13 -126 -67 -55 -39 -109 -83 -120 -98 -12 -16 -30 -38 -39 -51
-11 -15 -60 -38 -142 -68 -139 -51 -232 -65 -264 -40 -27 22 -15 40 39 54 77
21 139 73 179 151 15 27 16 38 6 62 -17 39 -34 51 -85 59 -32 5 -60 2 -97 -11z
m101 -73 c22 -26 -53 -123 -111 -145 -72 -27 -63 104 10 143 35 19 86 20 101
2z m531 -31 c0 -34 -72 -160 -118 -207 -56 -59 -109 -46 -96 23 13 66 60 124
148 183 49 33 66 33 66 1z"/>
<path d="M19577 16873 c-16 -15 -6 -53 18 -69 21 -14 31 -15 50 -6 46 21 24
82 -29 82 -18 0 -36 -3 -39 -7z"/>
<path d="M24922 16806 c-22 -24 -45 -53 -51 -65 -8 -15 -21 -21 -44 -21 -18 0
-41 -6 -51 -13 -16 -12 -17 -19 -4 -87 13 -73 14 -75 44 -78 35 -3 48 12 78
88 24 62 63 120 81 120 9 0 33 -38 60 -94 51 -107 89 -146 141 -146 49 0 56
26 18 59 -39 34 -58 65 -100 164 -43 100 -58 117 -99 117 -25 0 -41 -9 -73
-44z"/>
<path d="M17726 16825 c-52 -18 -128 -94 -167 -168 -44 -82 -50 -162 -19 -257
43 -132 130 -178 320 -166 133 8 224 33 228 64 5 31 -37 39 -91 17 -29 -12
-73 -17 -147 -18 -113 -1 -139 7 -194 59 -29 27 -72 111 -62 121 3 3 19 0 37
-6 69 -24 130 -7 198 55 88 79 122 187 81 252 -35 57 -106 75 -184 47z m108
-74 c38 -42 18 -97 -63 -178 -46 -47 -81 -57 -125 -39 -69 29 -61 72 32 167
59 60 73 69 103 69 23 0 42 -7 53 -19z"/>
<path d="M23525 16834 c-16 -2 -52 -8 -80 -14 -27 -5 -84 -12 -125 -15 -133
-11 -170 -29 -155 -75 8 -24 30 -31 58 -21 13 5 59 14 103 20 187 28 274 53
274 81 0 16 -22 32 -38 29 -4 -1 -20 -4 -37 -5z"/>
<path d="M17160 16809 c-66 -30 -80 -46 -80 -93 0 -37 6 -46 75 -112 79 -76
110 -128 100 -173 -11 -51 -156 -172 -250 -209 -46 -19 -79 -18 -124 3 -51 23
-71 11 -55 -32 13 -37 57 -57 123 -56 84 2 176 53 289 160 l92 88 0 61 c0 71
-25 115 -114 204 -31 30 -56 61 -56 70 0 8 18 25 40 38 43 24 51 46 22 61 -13
7 -31 4 -62 -10z"/>
<path d="M24367 16772 c-13 -14 -17 -39 -17 -108 0 -158 33 -272 86 -296 41
-19 50 1 30 64 -24 77 -36 162 -36 255 0 71 -3 84 -19 93 -25 13 -25 13 -44
-8z"/>
<path d="M21102 16735 c-25 -11 -40 -29 -60 -72 -23 -49 -27 -71 -27 -145 0
-83 1 -88 30 -119 42 -44 83 -59 162 -59 127 1 231 77 241 178 8 91 -33 135
-183 196 -100 40 -115 42 -163 21z m145 -97 c68 -25 133 -84 133 -120 0 -25
-46 -76 -87 -97 -12 -6 -45 -11 -73 -11 -125 0 -184 94 -129 207 19 40 24 43
60 43 21 0 64 -10 96 -22z"/>
<path d="M23665 16668 c-139 -46 -134 -45 -303 -18 -103 17 -127 19 -149 8
-32 -16 -38 -31 -20 -50 19 -19 281 -42 368 -33 79 8 164 50 164 80 0 23 -18
27 -60 13z"/>
<path d="M30802 16667 c-20 -24 -75 -348 -97 -577 -1 -14 -8 -54 -14 -89 -13
-69 -10 -91 14 -91 26 0 40 52 75 265 32 202 70 380 92 438 9 22 7 31 -7 47
-21 23 -48 26 -63 7z"/>
<path d="M15622 16615 c-93 -47 -199 -146 -235 -219 -35 -71 -46 -169 -24
-212 33 -64 92 -94 217 -113 132 -20 320 21 320 69 0 26 -17 29 -75 13 -151
-40 -299 -21 -369 49 -36 36 -38 41 -32 81 17 102 79 187 188 253 58 35 68 37
158 31 29 -2 36 2 38 19 4 29 -42 64 -83 64 -18 0 -64 -16 -103 -35z"/>
<path d="M16213 16583 c-38 -38 -84 -91 -101 -118 -39 -63 -82 -176 -82 -216
0 -62 53 -119 111 -119 38 0 110 41 130 74 10 17 28 59 40 94 11 34 22 62 24
62 3 0 26 -14 52 -30 61 -39 132 -60 199 -60 97 0 78 44 -26 61 -35 5 -82 20
-103 32 -50 28 -95 97 -103 159 -4 27 -10 51 -15 54 -5 3 -3 13 3 23 17 28 3
51 -31 51 -23 0 -45 -15 -98 -67z m69 -84 c16 -91 -59 -280 -117 -295 -39 -10
-68 21 -62 66 12 93 126 289 161 277 6 -2 14 -23 18 -48z"/>
<path d="M19642 16623 c-29 -55 69 -103 102 -51 8 13 5 22 -14 43 -28 30 -75
34 -88 8z"/>
<path d="M26388 16618 c-14 -11 -17 -50 -21 -278 -5 -228 -9 -276 -27 -343
-16 -61 -18 -82 -9 -93 14 -17 43 -18 57 -1 25 32 53 205 63 390 5 106 12 217
15 248 5 44 3 59 -11 72 -20 20 -45 22 -67 5z"/>
<path d="M2391 16362 c-77 -38 -92 -75 -42 -101 16 -9 29 -4 72 24 49 34 53
35 75 20 29 -18 29 -23 12 -262 -13 -187 -10 -203 39 -203 67 0 331 227 321
277 -7 36 -36 22 -109 -50 -87 -88 -142 -127 -177 -127 -25 0 -25 0 -18 68 13
135 18 261 12 297 -16 85 -85 106 -185 57z"/>
<path d="M8396 16301 c-10 -19 -14 -48 -11 -87 2 -33 1 -80 -2 -107 -5 -42
-10 -50 -45 -69 -36 -21 -59 -60 -44 -76 4 -3 24 -6 44 -7 l37 0 3 -112 c2
-99 5 -114 22 -123 23 -12 50 -3 50 17 0 9 -5 67 -12 130 -9 92 -9 116 1 122
7 5 45 14 84 20 88 16 116 26 124 47 12 31 -12 37 -97 23 -88 -14 -117 -7
-112 27 24 174 26 193 13 208 -20 24 -39 19 -55 -13z"/>
<path d="M1557 16252 c-23 -25 -21 -68 3 -92 30 -30 48 -25 61 20 21 71 -22
119 -64 72z"/>
<path d="M7376 16112 c-120 -122 -155 -178 -163 -255 -8 -87 19 -151 74 -174
76 -31 196 -5 272 61 59 52 79 171 42 245 -20 38 -85 91 -112 91 -8 0 -24 6
-34 14 -17 13 -17 14 11 27 36 18 42 62 8 67 -15 2 -43 -19 -98 -76z m56 -102
c67 -19 128 -87 128 -143 0 -59 -99 -123 -178 -114 -119 13 -143 107 -57 220
38 50 48 53 107 37z"/>
<path d="M2024 16145 c-5 -11 -17 -15 -41 -13 -51 4 -60 -15 -45 -94 18 -89
57 -166 88 -174 14 -4 29 -3 34 2 5 5 3 44 -5 89 -12 70 -12 125 2 125 2 0 17
-7 32 -15 35 -17 75 -63 97 -111 20 -41 58 -64 76 -46 24 24 -83 195 -147 234
-37 22 -83 24 -91 3z"/>
<path d="M1634 16095 c-14 -22 -15 -34 -5 -82 17 -86 54 -159 90 -178 54 -28
69 5 27 60 -31 40 -49 109 -41 151 4 26 1 38 -15 54 -26 26 -36 25 -56 -5z"/>
<path d="M7754 16089 c-14 -23 -22 -166 -14 -251 13 -135 51 -188 136 -188 83
0 173 77 259 222 48 81 55 101 45 113 -7 8 -18 15 -24 15 -13 0 -56 -53 -56
-68 0 -15 -83 -125 -118 -157 -19 -16 -46 -34 -59 -39 -31 -11 -77 8 -99 42
-21 32 -29 128 -17 215 8 53 7 72 -4 87 -16 22 -38 26 -49 9z"/>
<path d="M3372 16039 c-57 -4 -134 -12 -170 -18 -37 -5 -107 -13 -157 -17
-107 -8 -135 -17 -135 -43 0 -27 46 -41 106 -31 27 4 87 13 134 19 47 6 118
16 159 21 41 6 145 13 232 17 170 7 191 11 173 40 -10 15 -28 18 -125 19 -63
1 -160 -2 -217 -7z"/>
<path d="M22813 15848 c-17 -23 -35 -248 -32 -410 1 -87 1 -159 -2 -162 -2 -2
-34 -13 -71 -25 -108 -36 -164 -83 -142 -118 18 -28 41 -27 81 6 44 35 106 63
125 56 15 -6 50 -267 53 -388 2 -72 19 -105 49 -94 19 7 38 51 31 69 -8 22
-55 365 -55 402 0 29 5 38 29 51 35 17 219 71 276 81 54 8 110 36 110 54 0 35
-119 18 -334 -49 -43 -14 -69 -17 -76 -11 -16 13 -9 270 11 413 12 84 13 111
3 123 -14 17 -43 18 -56 2z"/>
<path d="M19021 15818 c-37 -97 -47 -254 -32 -488 23 -346 50 -476 106 -502
39 -17 55 3 32 41 -9 16 -17 38 -17 49 0 12 -4 23 -8 26 -17 10 -31 116 -42
311 -12 221 -8 344 15 450 22 97 18 129 -17 133 -21 3 -30 -2 -37 -20z"/>
<path d="M27667 15724 c-4 -4 -7 -48 -7 -98 0 -82 8 -135 55 -386 8 -41 14
-119 15 -172 0 -93 1 -98 25 -114 35 -23 60 -14 152 54 113 84 232 224 233
274 0 33 -48 58 -112 58 -72 0 -109 -15 -171 -70 -26 -23 -53 -40 -60 -37 -8
3 -19 37 -26 84 -6 43 -16 103 -22 133 -5 30 -9 105 -7 165 l3 110 -35 3 c-20
2 -39 0 -43 -4z m369 -469 c9 -22 -41 -89 -114 -154 -83 -73 -108 -89 -123
-74 -7 7 -6 25 5 63 25 83 60 135 108 159 51 25 116 28 124 6z"/>
<path d="M25757 15689 c-10 -6 -22 -21 -27 -33 -11 -29 4 -226 30 -391 31
-195 40 -233 58 -251 14 -15 17 -15 29 2 17 23 16 65 -1 195 -30 218 -38 354
-26 415 10 46 10 58 -2 65 -17 12 -39 11 -61 -2z"/>
<path d="M23955 15644 c-121 -17 -229 -39 -289 -58 -58 -18 -72 -26 -74 -44
-7 -48 41 -67 97 -38 35 18 176 51 311 71 58 9 109 20 115 26 26 26 -77 54
-160 43z"/>
<path d="M24585 15595 c-5 -2 -26 -6 -47 -9 -42 -8 -55 -30 -34 -61 18 -28 52
-37 67 -19 6 8 21 14 33 14 44 0 66 12 66 35 0 29 -48 52 -85 40z"/>
<path d="M29507 15547 c-32 -35 -94 -216 -148 -432 -22 -88 20 -120 80 -61 20
20 42 36 48 36 7 0 29 -11 49 -25 51 -34 160 -35 259 -2 151 51 87 99 -75 56
-58 -15 -105 -11 -140 14 -19 12 -35 27 -37 34 -7 21 175 144 315 212 102 50
117 66 86 92 -28 23 -83 13 -166 -31 -150 -78 -288 -200 -288 -255 0 -9 -4
-13 -10 -10 -34 21 15 198 85 304 43 64 42 85 -2 89 -25 2 -39 -3 -56 -21z"/>
<path d="M26324 15497 c-27 -24 -28 -25 -11 -50 20 -31 48 -41 92 -33 59 11
70 49 23 80 -44 28 -73 29 -104 3z"/>
<path d="M19567 15494 c-12 -12 -8 -59 6 -78 18 -24 48 -17 67 16 11 21 12 32
4 45 -11 18 -64 30 -77 17z"/>
<path d="M2620 15403 c-14 -9 -42 -32 -64 -51 -21 -19 -53 -40 -71 -48 -41
-17 -105 -76 -105 -97 0 -9 12 -24 26 -33 25 -17 26 -17 87 45 34 34 69 66 77
71 22 14 60 12 60 -3 0 -12 -50 -158 -79 -230 -17 -42 -13 -82 8 -101 19 -17
23 -17 88 0 83 21 123 15 123 -21 0 -45 -13 -65 -123 -195 -38 -45 -40 -50
-27 -65 22 -26 44 -16 87 38 l43 53 97 18 c328 59 635 112 708 121 70 9 121
23 183 47 91 36 57 70 -45 44 -32 -8 -89 -19 -128 -25 -204 -32 -569 -95 -669
-116 -72 -15 -118 -7 -98 18 18 22 43 117 37 136 -11 35 -58 46 -137 31 -61
-11 -72 -10 -85 3 -14 14 -12 25 25 114 71 170 80 237 36 253 -31 12 -25 13
-54 -7z"/>
<path d="M30281 15406 c-17 -20 6 -65 37 -73 57 -14 84 45 33 71 -37 20 -55
20 -70 2z"/>
<path d="M24535 15363 c-13 -13 -16 -27 -11 -67 3 -28 11 -112 16 -186 12
-154 23 -203 51 -231 43 -43 64 -7 44 77 -7 32 -18 136 -24 229 -9 141 -14
172 -28 183 -22 16 -28 15 -48 -5z"/>
<path d="M17925 15334 c-67 -39 -137 -95 -175 -137 l-25 -28 -35 27 c-64 48
-109 64 -190 64 -139 0 -274 -70 -371 -193 -34 -42 -39 -56 -39 -100 0 -49 2
-53 52 -97 29 -25 74 -66 101 -92 l50 -48 -6 -62 c-6 -81 -42 -174 -73 -194
-13 -9 -47 -19 -76 -23 -59 -7 -73 -28 -42 -63 15 -16 26 -19 58 -13 102 16
155 62 190 165 22 64 23 174 2 224 -7 17 -50 65 -95 105 -102 93 -104 108 -29
188 62 64 107 92 202 123 84 28 141 23 196 -15 48 -33 58 -63 36 -109 -13 -27
-14 -47 -7 -106 21 -166 143 -247 358 -237 100 5 264 28 296 42 23 10 22 32
-2 45 -14 7 -49 5 -123 -7 -223 -36 -320 -20 -405 67 -38 39 -74 123 -58 138
3 3 21 -2 40 -11 41 -20 102 -22 156 -6 53 16 165 108 206 169 43 65 55 140
27 171 -55 61 -133 65 -219 13z m145 -44 c24 -24 24 -28 5 -73 -32 -76 -149
-161 -239 -173 -38 -6 -47 -3 -76 23 l-33 30 23 31 c30 41 133 123 194 156 59
31 99 33 126 6z"/>
<path d="M23546 15354 c-22 -21 -20 -37 5 -60 19 -17 38 -19 178 -19 165 1
231 15 231 50 0 25 -35 31 -120 21 -62 -7 -99 -5 -168 8 -110 20 -107 20 -126
0z"/>
<path d="M25183 15345 c-28 -17 -62 -56 -111 -127 -78 -116 -104 -143 -127
-135 -18 8 -21 74 -4 111 23 49 -36 79 -65 34 -14 -23 -20 -75 -17 -151 1 -48
37 -87 79 -87 24 0 39 12 87 71 31 40 73 97 92 128 40 63 80 102 99 94 17 -6
30 -48 49 -158 26 -151 50 -205 94 -205 26 0 30 38 12 101 -10 35 -28 116 -40
179 -32 167 -62 197 -148 145z"/>
<path d="M21319 15333 c-63 -66 -136 -209 -168 -325 -9 -30 -12 -81 -9 -138 4
-81 7 -94 35 -132 46 -65 85 -83 167 -81 98 2 214 58 277 134 60 72 74 96 99
168 27 83 28 199 0 257 -35 71 -128 121 -240 129 -36 2 -81 7 -100 10 -30 6
-39 2 -61 -22z m238 -79 c125 -60 152 -174 79 -339 -42 -95 -118 -155 -233
-185 -106 -27 -203 59 -203 179 0 87 81 302 131 347 44 40 141 39 226 -2z"/>
<path d="M22387 15346 c-15 -12 -17 -23 -11 -63 8 -65 -13 -262 -37 -341 -10
-35 -37 -99 -59 -141 -67 -129 -96 -147 -146 -88 -39 46 -70 118 -99 233 -23
86 -26 116 -23 224 l3 125 -32 3 c-31 3 -31 3 -39 -54 -18 -147 16 -360 80
-499 95 -205 198 -188 329 54 53 97 73 179 92 371 15 155 15 165 -2 177 -21
16 -33 16 -56 -1z"/>
<path d="M28620 15336 c-35 -19 -50 -22 -70 -14 -65 24 -160 -22 -267 -131
-67 -68 -83 -90 -81 -110 2 -19 9 -27 28 -28 31 -3 46 8 97 77 68 92 129 142
163 133 14 -4 18 -20 22 -87 9 -134 61 -221 129 -214 44 4 46 19 9 61 -35 40
-60 95 -60 132 0 24 2 25 38 19 47 -7 88 11 126 56 35 42 33 72 -5 104 -38 32
-72 33 -129 2z m77 -62 c3 -8 -1 -23 -10 -32 -13 -13 -21 -13 -42 -4 -26 12
-33 37 -12 45 26 11 58 6 64 -9z"/>
<path d="M28914 15331 c-63 -39 -87 -174 -39 -225 43 -46 76 -37 137 39 76 93
94 89 123 -35 10 -41 26 -89 37 -107 23 -39 75 -60 96 -39 12 12 10 23 -16 77
-17 35 -43 111 -58 169 -15 58 -32 111 -37 118 -6 7 -30 12 -56 12 -25 0 -71
2 -101 5 -44 5 -61 2 -86 -14z m124 -73 c4 -21 -55 -88 -79 -88 -34 0 -42 54
-14 100 11 18 89 8 93 -12z"/>
<path d="M30225 15216 c-11 -8 -32 -40 -47 -72 -35 -75 -113 -280 -122 -319
-4 -16 -14 -37 -21 -45 -24 -26 -28 -65 -10 -84 10 -9 25 -16 33 -14 21 4 55
63 87 153 82 223 111 281 159 322 28 25 33 42 14 61 -16 16 -69 15 -93 -2z"/>
<path d="M26322 15164 c-52 -36 -56 -60 -60 -339 -4 -254 -4 -260 17 -279 20
-18 22 -18 41 -1 18 16 20 31 20 129 1 61 5 173 9 248 7 112 13 144 30 173 26
45 26 61 2 75 -26 13 -33 13 -59 -6z"/>
<path d="M15711 15114 c-88 -23 -274 -158 -341 -246 -63 -84 -92 -205 -70
-288 18 -66 88 -131 176 -161 57 -20 88 -24 179 -24 116 1 182 13 274 50 101
41 66 82 -38 46 -32 -11 -98 -25 -147 -31 -144 -18 -280 20 -343 97 -27 32
-31 46 -31 95 0 70 29 147 76 205 66 80 208 171 302 193 19 5 63 4 98 -2 73
-12 90 -5 81 35 -12 47 -106 61 -216 31z"/>
<path d="M1745 15028 c-58 -33 -61 -118 -4 -118 24 0 71 58 67 83 -5 30 -38
48 -63 35z"/>
<path d="M16274 14950 c-97 -23 -197 -142 -234 -278 -17 -67 2 -144 49 -195
34 -36 44 -41 93 -45 52 -4 58 -2 93 30 32 29 41 47 60 123 12 49 26 90 31 92
5 2 23 -22 39 -53 50 -94 133 -154 210 -154 57 0 54 44 -4 60 -94 25 -193 174
-210 315 -6 56 -13 72 -35 92 -28 24 -40 26 -92 13z m49 -66 c10 -10 -15 -68
-45 -102 -35 -41 -35 -60 -2 -72 14 -6 24 -16 21 -23 -2 -6 -12 -37 -20 -67
-9 -30 -26 -70 -37 -88 -17 -28 -26 -33 -52 -30 -39 4 -68 40 -75 96 -6 48 23
142 65 205 36 54 123 103 145 81z"/>
<path d="M2164 14895 c-18 -19 -38 -51 -45 -70 -7 -19 -17 -35 -21 -35 -9 0
-9 2 -13 39 -2 23 -28 51 -47 51 -5 0 -13 -11 -19 -24 -9 -19 -8 -46 5 -113
25 -134 37 -174 59 -194 41 -38 47 -27 46 85 0 85 3 111 19 143 40 77 68 81
119 15 36 -47 51 -91 60 -172 7 -64 17 -80 49 -80 22 0 24 4 24 48 0 90 -60
240 -120 303 -46 49 -73 50 -116 4z"/>
<path d="M19510 14909 c-26 -47 16 -91 69 -74 29 9 28 59 -1 79 -31 22 -55 20
-68 -5z"/>
<path d="M1657 14864 c-38 -38 104 -384 161 -392 34 -5 28 33 -21 140 -24 51
-51 122 -61 158 -10 36 -21 72 -25 80 -9 16 -43 25 -54 14z"/>
<path d="M28203 14319 c-9 -9 -8 -22 4 -51 23 -58 13 -308 -17 -438 -60 -258
-86 -350 -123 -424 l-40 -79 23 -19 c41 -33 56 -24 95 57 48 101 117 169 225
223 92 46 181 65 195 41 17 -27 -120 -129 -305 -226 -30 -16 -54 -33 -54 -38
1 -6 13 -16 27 -23 31 -15 68 -2 197 70 128 71 250 184 250 232 0 23 -48 54
-94 61 -49 8 -143 -13 -208 -46 -24 -12 -68 -43 -99 -70 -42 -36 -59 -45 -68
-36 -13 13 -14 41 -2 65 11 21 36 110 49 177 6 28 16 77 24 110 18 84 18 386
-1 408 -15 19 -62 22 -78 6z"/>
<path d="M24976 14021 c-16 -18 -16 -21 14 -55 29 -33 37 -36 86 -36 60 0 67
11 38 56 -34 51 -107 70 -138 35z"/>
<path d="M26190 14034 c-60 -8 -197 -53 -221 -73 -23 -19 -24 -19 -5 -40 23
-25 72 -28 103 -6 47 33 117 49 221 49 118 1 130 -6 106 -63 -8 -20 -23 -47
-34 -61 -10 -14 -40 -61 -66 -105 -26 -44 -53 -87 -60 -95 -19 -23 -54 -135
-56 -179 -3 -83 72 -134 197 -133 118 1 266 74 195 97 -11 4 -59 -3 -105 -15
-55 -15 -95 -20 -119 -16 -43 8 -86 56 -86 97 0 38 51 137 133 261 35 53 75
123 87 154 l24 57 -27 23 c-15 13 -44 28 -65 34 -43 12 -171 20 -222 14z"/>
<path d="M23064 13982 c-32 -21 -35 -54 -33 -300 3 -251 19 -532 34 -565 10
-24 44 -42 57 -29 10 10 -6 334 -17 352 -2 4 3 14 13 23 35 31 104 41 297 43
234 2 225 1 225 19 0 21 -28 30 -149 45 -105 13 -205 9 -314 -12 -40 -7 -61
-8 -69 0 -11 11 3 353 16 383 13 29 -32 60 -60 41z"/>
<path d="M30196 13881 c-11 -13 -20 -42 -22 -78 -3 -32 -9 -76 -14 -98 -6 -22
-16 -73 -24 -113 -8 -40 -27 -99 -41 -131 -29 -64 -30 -88 -2 -105 31 -20 51
1 92 97 9 20 22 37 30 37 8 0 32 -15 52 -34 66 -58 112 -76 200 -76 70 1 158
15 206 35 9 4 17 16 17 26 0 27 -41 34 -115 20 -103 -18 -156 -14 -216 17 -67
35 -76 64 -27 87 123 57 398 233 398 255 0 3 -6 14 -13 24 -28 38 -109 17
-214 -55 -23 -16 -44 -29 -47 -29 -9 0 -146 -112 -146 -119 0 -4 -13 -14 -29
-24 -27 -16 -29 -16 -45 2 -22 24 -21 29 20 150 34 99 35 106 18 118 -26 19
-58 16 -78 -6z"/>
<path d="M24014 13816 c-34 -26 -5 -45 135 -92 203 -68 280 -84 311 -64 22 14
-12 46 -58 55 -20 4 -99 31 -175 61 -146 57 -181 63 -213 40z"/>
<path d="M26943 13777 c-55 -27 -64 -53 -29 -84 37 -31 74 -30 86 2 5 14 14
25 20 25 5 0 17 11 26 25 35 53 -25 72 -103 32z"/>
<path d="M19245 13767 c-95 -28 -118 -39 -245 -122 -100 -66 -121 -93 -93
-120 24 -24 45 -18 109 34 100 81 227 137 335 147 99 10 99 -7 0 -179 -28 -48
-63 -106 -79 -130 -26 -37 -82 -138 -125 -222 -150 -295 -134 -435 49 -435 46
0 152 23 182 40 10 5 64 32 121 60 57 28 122 63 145 78 23 15 50 32 61 38 11
6 21 21 23 33 3 17 -2 21 -25 21 -15 -1 -42 -9 -59 -18 -200 -108 -362 -172
-438 -172 -104 0 -111 76 -23 265 56 119 78 160 202 362 33 54 65 110 72 125
6 15 19 43 28 62 23 49 16 104 -16 128 -41 31 -128 32 -224 5z"/>
<path d="M29885 13772 c-6 -4 -16 -19 -22 -34 -11 -25 -18 -28 -57 -28 -25 0
-57 -5 -72 -10 -36 -14 -154 -110 -154 -126 0 -6 -7 -17 -15 -24 -8 -7 -15
-21 -15 -31 0 -38 -92 -19 -142 29 -37 35 -36 52 5 52 37 0 76 18 91 42 8 13
5 23 -13 42 -34 36 -83 51 -123 37 -27 -9 -39 -7 -86 15 -46 22 -65 25 -106
20 -70 -8 -140 -46 -221 -122 -38 -36 -89 -81 -112 -101 -47 -39 -52 -52 -25
-75 43 -38 58 -31 138 63 158 185 291 223 328 94 36 -124 126 -185 234 -161
22 5 48 2 81 -10 46 -16 50 -16 87 2 24 12 51 38 71 68 44 68 54 76 81 65 20
-8 22 -15 22 -91 0 -102 13 -132 59 -136 40 -4 60 11 43 31 -31 37 -32 254 -2
333 8 21 7 31 -6 45 -17 19 -51 25 -69 11z m-85 -161 c0 -15 -29 -37 -106 -83
-27 -16 -33 -16 -50 -3 -18 13 -18 15 16 45 42 37 108 70 127 63 7 -3 13 -13
13 -22z"/>
<path d="M31053 13654 c-15 -39 46 -80 98 -66 42 10 46 26 15 57 -30 30 -102
36 -113 9z"/>
<path d="M25012 13614 c-12 -8 -27 -25 -33 -36 -20 -37 -27 -215 -15 -357 10
-112 15 -135 31 -147 11 -8 26 -13 35 -12 13 3 15 35 15 225 l0 222 28 28 c59
62 9 126 -61 77z"/>
<path d="M25627 13586 c-18 -18 -61 -66 -95 -105 -56 -62 -68 -71 -99 -71 -47
0 -73 -16 -73 -45 0 -44 72 -71 121 -45 10 6 44 46 74 89 30 44 62 81 70 85
29 11 45 -22 46 -92 0 -121 14 -203 34 -218 21 -16 71 -19 79 -5 3 5 -1 42 -9
82 -7 41 -18 122 -24 181 -11 110 -27 161 -56 172 -28 10 -36 7 -68 -28z"/>
<path d="M21543 13551 c-69 -23 -123 -60 -166 -113 -59 -73 -71 -105 -71 -194
0 -70 4 -89 30 -140 40 -80 67 -98 160 -102 84 -5 139 7 220 45 66 31 162 115
179 158 13 31 7 103 -13 156 -14 35 -65 76 -112 90 -32 10 -38 15 -28 26 28
35 -43 93 -114 93 -18 -1 -56 -9 -85 -19z m122 -56 l30 -13 -45 -1 c-55 -1
-97 -26 -79 -47 6 -8 28 -14 48 -14 63 0 111 -20 156 -64 51 -51 65 -102 39
-144 -44 -73 -175 -143 -269 -145 -124 -3 -194 113 -155 255 16 55 69 119 130
156 58 35 97 39 145 17z"/>
<path d="M23857 13540 c-45 -8 -60 -21 -52 -42 9 -23 54 -39 105 -37 25 2 115
-1 200 -6 136 -7 157 -6 168 8 23 27 -23 44 -168 61 -192 23 -211 24 -253 16z"/>
<path d="M22679 13493 c-14 -16 -59 -71 -99 -123 -145 -187 -246 -285 -284
-274 -59 18 -105 99 -111 195 -4 71 -2 67 -24 79 -46 24 -77 -27 -62 -100 29
-136 49 -181 98 -220 35 -27 129 -28 182 -1 42 22 142 125 192 198 18 26 51
71 72 98 48 61 107 152 107 165 0 21 -47 9 -71 -17z"/>
<path d="M31003 13483 c-11 -10 -41 -74 -67 -143 -53 -141 -74 -187 -111 -247
-25 -41 -25 -42 -6 -53 11 -5 26 -10 33 -10 16 0 68 47 68 61 0 5 25 59 54
120 30 60 58 120 62 131 4 12 20 44 36 70 29 47 30 50 13 68 -22 25 -57 26
-82 3z"/>
<path d="M17983 13465 c-64 -28 -130 -102 -179 -202 l-46 -94 -31 25 c-187
152 -286 178 -423 111 -76 -37 -104 -81 -104 -163 l0 -62 119 -124 c122 -126
151 -167 151 -208 -1 -34 -64 -115 -117 -148 -58 -37 -104 -46 -155 -30 -35
10 -43 9 -57 -4 -20 -21 -7 -44 40 -69 128 -68 388 129 364 276 -10 61 -15 67
-146 205 -66 69 -122 136 -125 149 -10 38 4 70 43 100 33 25 44 28 119 28 78
0 84 -2 135 -37 30 -20 80 -60 112 -88 47 -43 57 -57 57 -84 0 -152 100 -322
222 -377 46 -21 68 -24 168 -24 102 1 121 4 170 26 68 32 88 53 70 74 -17 20
-29 19 -93 -11 -35 -15 -83 -27 -126 -31 -65 -5 -76 -3 -135 26 -90 44 -157
130 -195 250 -20 63 -17 70 32 58 143 -32 307 123 307 291 0 66 -9 92 -43 130
-24 26 -83 29 -134 7z m91 -77 c19 -27 21 -86 4 -125 -48 -110 -187 -188 -251
-140 -31 22 4 98 100 211 63 75 118 95 147 54z"/>
<path d="M19832 13468 c-17 -17 -15 -42 6 -61 23 -21 56 -22 76 -1 21 21 20
27 -7 52 -26 24 -57 28 -75 10z"/>
<path d="M26854 13283 c-33 -34 -119 -196 -139 -263 -4 -14 -21 -51 -36 -82
-16 -32 -29 -66 -29 -77 0 -24 32 -36 58 -22 17 9 72 108 72 129 0 10 51 128
72 167 22 41 54 76 80 89 30 15 46 60 28 80 -23 28 -66 19 -106 -21z"/>
<path d="M16433 13218 c-57 -60 -89 -128 -109 -233 -20 -110 -16 -264 9 -312
26 -49 63 -73 114 -73 57 0 84 27 133 133 19 42 39 76 44 77 5 0 27 -16 49
-36 69 -63 199 -106 213 -70 9 23 -9 41 -54 54 -42 13 -109 66 -144 115 -19
26 -24 50 -29 129 -7 110 -17 131 -63 126 -28 -3 -31 -7 -39 -50 -5 -33 -3
-69 8 -114 15 -66 15 -67 -10 -123 -38 -83 -98 -171 -116 -171 -49 0 -66 74
-50 221 19 176 52 249 131 289 42 22 52 37 38 63 -6 11 -21 17 -46 17 -31 0
-45 -7 -79 -42z"/>
<path d="M15776 13204 c-65 -33 -95 -54 -198 -141 -221 -187 -278 -302 -214
-439 57 -122 265 -215 446 -200 106 9 150 22 150 46 0 26 -37 35 -86 21 -80
-22 -187 -5 -293 46 -70 35 -106 65 -135 117 -42 73 -42 104 2 172 63 97 225
239 339 298 18 9 55 21 82 27 35 7 52 16 56 30 17 53 -67 66 -149 23z"/>
<path d="M20043 13003 c-20 -7 -15 -51 8 -74 28 -28 83 -23 87 8 6 42 -53 83
-95 66z"/>
<path d="M26745 11879 c-44 -5 -152 -8 -241 -6 -124 1 -165 -1 -177 -12 -24
-19 -21 -28 15 -47 32 -17 121 -16 376 2 76 6 82 5 82 -12 0 -11 -35 -52 -80
-94 -44 -42 -91 -91 -105 -110 -28 -38 -33 -81 -11 -99 8 -7 65 -28 128 -47
179 -55 241 -93 241 -149 0 -41 -59 -145 -135 -240 -56 -70 -69 -91 -61 -104
21 -33 45 -24 107 41 109 111 162 206 172 306 6 52 4 61 -19 88 -34 41 -106
78 -202 104 -109 30 -155 50 -155 65 0 7 3 15 8 17 4 2 58 55 120 119 85 88
112 122 112 142 0 47 -24 52 -175 36z"/>
<path d="M28895 11860 c-20 -22 -29 -124 -41 -470 -3 -113 -12 -241 -19 -285
-11 -71 -11 -82 3 -98 9 -10 26 -17 40 -15 19 2 29 15 48 63 37 93 153 188
287 235 83 29 147 22 147 -16 0 -32 -69 -99 -168 -165 -105 -69 -156 -93 -224
-104 -42 -6 -48 -23 -20 -48 44 -40 148 -8 295 92 123 82 217 189 217 244 0
45 -102 83 -203 75 -83 -7 -139 -35 -225 -114 -92 -84 -108 -83 -106 6 4 134
34 497 45 539 11 41 11 45 -10 63 -30 23 -44 23 -66 -2z"/>
<path d="M25218 11852 c-36 -22 -35 -38 2 -57 32 -17 125 -20 135 -5 11 18
-14 47 -55 64 -49 20 -48 20 -82 -2z"/>
<path d="M23095 11780 c-18 -20 -18 -25 3 -176 20 -141 21 -157 6 -178 -14
-22 -14 -26 5 -43 14 -13 23 -40 30 -98 14 -113 55 -294 76 -338 21 -44 72
-77 81 -53 3 8 -6 55 -19 103 -14 48 -30 113 -36 143 -52 274 -52 265 -8 279
60 20 241 51 386 67 79 8 153 20 163 25 104 56 -316 47 -499 -11 -35 -11 -69
-17 -77 -14 -21 8 -28 46 -32 178 -3 81 -8 122 -17 128 -21 13 -43 9 -62 -12z"/>
<path d="M24235 11760 c-65 -26 -50 -70 24 -70 25 0 100 -9 166 -19 228 -37
375 -39 375 -5 0 18 -29 29 -100 39 -30 4 -131 20 -225 36 -179 31 -207 33
-240 19z"/>
<path d="M18870 11639 c-58 -11 -161 -23 -229 -28 -85 -6 -126 -13 -132 -22
-13 -20 -11 -27 11 -49 24 -24 72 -22 328 16 168 25 296 31 321 15 25 -16 5
-49 -124 -208 -140 -171 -160 -210 -129 -245 18 -19 25 -20 114 -12 137 13
348 11 397 -4 65 -19 103 -56 103 -100 0 -86 -130 -313 -215 -375 -58 -43 -69
-45 -90 -13 -19 28 -39 38 -61 29 -12 -4 -14 -14 -9 -47 28 -171 222 -72 377
191 42 70 58 110 71 168 13 63 5 95 -33 139 -63 71 -195 102 -410 93 -74 -2
-141 -3 -148 0 -16 6 12 47 92 133 142 152 185 257 125 302 -56 42 -183 48
-359 17z"/>
<path d="M31397 11572 c-9 -10 -23 -47 -32 -82 -9 -36 -22 -87 -30 -115 -15
-53 -29 -113 -30 -130 -3 -31 -34 -164 -45 -190 -35 -88 -42 -116 -30 -130 23
-28 58 -18 85 25 14 22 32 40 41 40 9 0 42 -15 73 -34 77 -46 116 -57 208 -58
135 -1 379 48 370 75 -8 26 -50 35 -112 26 -190 -31 -340 -27 -414 10 -34 18
-61 46 -61 65 0 5 118 96 125 96 2 0 32 20 67 44 35 24 97 60 138 80 41 21 86
49 100 62 24 25 25 25 6 40 -37 27 -81 17 -158 -35 -40 -26 -84 -54 -98 -61
-37 -19 -176 -137 -198 -168 -17 -23 -22 -24 -36 -13 -22 19 -20 43 14 141 17
47 41 120 55 163 14 42 29 77 34 77 7 0 31 43 31 55 0 2 -7 11 -16 19 -21 21
-67 20 -87 -2z"/>
<path d="M27394 11569 c-17 -5 -37 -15 -43 -23 -27 -32 30 -77 77 -63 53 17
108 40 117 48 7 7 2 17 -14 30 -25 21 -82 24 -137 8z"/>
<path d="M21734 11543 c-12 -2 -39 -19 -60 -38 -35 -30 -38 -36 -27 -54 12
-19 9 -22 -25 -40 -66 -34 -146 -148 -191 -273 -28 -78 -32 -117 -22 -192 18
-124 71 -162 207 -147 96 11 160 53 248 162 99 123 146 224 146 316 0 47 -31
123 -82 197 -28 43 -40 52 -83 63 -50 13 -72 14 -111 6z m91 -62 c81 -36 122
-117 112 -221 -13 -153 -219 -400 -332 -400 -40 0 -92 26 -111 55 -49 75 12
293 115 407 41 46 47 49 80 44 133 -22 159 -19 147 22 -8 25 -42 43 -94 51
-54 7 -62 20 -25 43 36 22 58 22 108 -1z"/>
<path d="M19920 11505 c-22 -26 16 -105 50 -105 17 0 50 39 50 60 0 46 -72 79
-100 45z"/>
<path d="M25184 11475 c-11 -17 -15 -38 -11 -67 2 -24 12 -110 21 -193 18
-172 42 -319 56 -346 14 -24 48 -42 67 -35 17 7 15 36 -10 156 -19 90 -41 385
-32 433 9 48 -8 77 -45 77 -20 0 -35 -8 -46 -25z"/>
<path d="M32308 11479 c-10 -5 -18 -18 -18 -29 0 -46 111 -84 122 -42 8 28 -8
60 -34 67 -47 14 -53 14 -70 4z"/>
<path d="M22817 11418 c-14 -18 -55 -81 -91 -141 -152 -246 -223 -327 -287
-327 -41 0 -60 13 -82 55 -23 44 -37 178 -30 294 5 89 4 104 -12 121 -21 23
-48 26 -63 7 -10 -12 -8 -201 3 -317 12 -117 54 -209 106 -230 24 -10 44 -11
91 -2 106 20 143 61 345 386 30 49 62 105 70 124 27 65 -8 85 -50 30z"/>
<path d="M24159 11433 c-38 -6 -66 -39 -52 -61 9 -14 28 -17 114 -17 57 -1
156 -5 220 -9 64 -5 128 -6 143 -2 30 8 34 31 7 45 -42 23 -363 55 -432 44z"/>
<path d="M5122 11398 c-5 -7 -20 -47 -32 -88 -12 -41 -37 -121 -56 -177 -54
-163 -93 -429 -79 -528 6 -36 13 -49 31 -57 13 -6 26 -9 29 -6 3 3 8 52 10
109 6 125 21 230 45 324 23 87 97 296 110 309 6 6 10 17 10 27 0 9 10 29 22
44 21 27 21 28 3 41 -24 17 -79 18 -93 2z"/>
<path d="M30200 11343 c-8 -3 -29 -19 -47 -36 -31 -29 -33 -29 -77 -18 -100
25 -221 0 -311 -63 -62 -45 -195 -175 -195 -192 0 -16 39 -44 60 -44 19 0 54
35 84 84 65 107 250 183 358 147 30 -10 38 -20 52 -59 29 -81 34 -89 67 -126
43 -49 103 -79 161 -80 83 -2 80 18 -8 61 -61 29 -86 48 -111 83 -43 60 -42
70 7 70 55 0 96 23 109 61 12 35 6 52 -32 87 -25 24 -88 37 -117 25z m54 -79
c9 -3 16 -13 16 -21 0 -12 -7 -14 -32 -9 -37 7 -42 11 -33 25 7 12 26 14 49 5z"/>
<path d="M25855 11276 c-51 -52 -74 -91 -149 -259 -19 -44 -30 -58 -43 -55
-15 3 -18 16 -21 86 -3 77 -1 85 23 113 14 17 25 39 25 49 0 48 -70 52 -104 7
-19 -25 -21 -42 -20 -145 1 -157 21 -269 52 -290 37 -24 66 -4 81 55 31 123
43 151 144 322 38 65 52 81 71 81 48 0 69 -56 116 -310 15 -80 24 -109 41
-122 26 -22 43 -23 59 -3 11 13 9 32 -8 105 -12 50 -22 100 -22 112 0 29 -50
217 -66 250 -23 44 -43 58 -85 58 -35 0 -47 -7 -94 -54z"/>
<path d="M30676 11304 c-70 -22 -122 -63 -174 -136 -21 -30 -42 -124 -42 -193
0 -57 3 -66 30 -92 55 -52 141 -45 204 16 17 16 51 69 76 116 40 76 48 86 70
83 29 -4 37 -28 39 -108 2 -84 36 -231 57 -247 18 -13 76 -18 86 -7 4 3 -4 29
-17 57 -13 29 -29 86 -35 127 -6 41 -15 107 -21 145 -5 39 -9 105 -7 147 1 49
-2 82 -9 89 -19 19 -199 21 -257 3z m144 -64 c18 -9 18 -12 2 -52 -15 -41 -98
-152 -171 -230 -62 -67 -111 -43 -111 54 0 97 47 167 145 214 53 25 104 31
135 14z"/>
<path d="M6573 11302 c-28 -18 -81 -195 -91 -307 l-7 -70 -46 -10 c-53 -12
-79 -30 -79 -56 0 -23 15 -32 65 -39 35 -5 40 -8 38 -30 -1 -14 -5 -61 -9
-106 -6 -72 -5 -82 11 -88 31 -11 38 9 43 119 3 77 8 108 18 112 7 3 51 1 96
-4 118 -14 182 3 155 41 -9 13 -40 21 -116 31 -57 7 -109 19 -117 27 -10 11
-5 34 26 130 22 64 50 139 64 166 23 45 24 51 10 71 -15 21 -39 27 -61 13z"/>
<path d="M17834 11250 c-60 -26 -85 -68 -98 -161 -7 -53 -15 -79 -23 -79 -8 0
-41 14 -74 31 -180 90 -363 102 -453 27 -53 -43 -50 -76 12 -124 74 -59 142
-126 158 -156 11 -22 12 -37 4 -73 -34 -150 -166 -275 -291 -275 -47 0 -134
44 -164 84 -62 81 -128 290 -146 460 -10 97 -19 116 -55 116 -31 0 -40 -20
-52 -121 -12 -95 -42 -184 -81 -243 -39 -59 -55 -65 -87 -36 -74 69 -84 215
-23 330 39 73 59 92 112 105 35 9 43 16 45 37 6 51 -54 59 -127 15 -41 -25
-103 -119 -126 -191 -24 -76 -17 -203 15 -275 32 -72 85 -111 151 -111 70 0
86 24 155 228 10 32 30 0 46 -74 55 -267 165 -389 348 -388 105 1 162 27 242
114 118 126 150 236 97 341 -17 34 -107 124 -156 156 -31 20 -29 29 8 42 41
14 114 14 181 0 51 -11 261 -93 285 -111 7 -5 25 -33 42 -62 50 -89 142 -157
272 -200 123 -41 287 -46 335 -12 16 12 17 16 4 31 -12 15 -25 16 -80 11 -133
-12 -300 49 -407 148 -58 53 -63 76 -19 76 28 0 82 36 110 73 29 39 35 151 11
214 -27 70 -89 90 -171 53z m95 -73 c21 -26 24 -76 7 -121 -23 -60 -45 -78
-93 -74 -37 3 -38 4 -44 48 -7 51 2 81 37 127 27 36 72 45 93 20z"/>
<path d="M15842 11210 c-126 -45 -293 -200 -431 -400 -50 -72 -71 -132 -71
-200 0 -95 15 -136 69 -190 55 -55 123 -84 251 -108 71 -13 97 -13 168 -3 134
19 272 71 272 102 0 27 -38 25 -129 -8 -65 -24 -91 -28 -181 -27 -226 0 -367
82 -378 219 -4 45 1 65 27 121 44 93 106 177 193 260 136 129 221 174 331 174
81 0 110 26 71 64 -22 22 -125 20 -192 -4z"/>
<path d="M32261 11079 c-42 -44 -77 -121 -105 -232 -8 -31 -18 -62 -21 -68 -4
-6 -9 -42 -11 -81 -3 -39 -9 -79 -14 -89 -18 -33 -12 -87 11 -99 11 -7 27 -9
34 -6 24 9 43 69 48 151 5 74 41 228 72 301 8 19 29 41 53 54 76 43 81 102 9
108 -30 3 -41 -3 -76 -39z"/>
<path d="M4124 11079 c-48 -14 -238 -114 -316 -166 -66 -44 -118 -97 -118
-120 0 -27 38 -41 136 -47 193 -12 324 -62 324 -124 -1 -41 -78 -136 -182
-225 -76 -64 -247 -177 -268 -177 -31 0 -80 -22 -80 -36 0 -23 45 -46 76 -38
64 15 358 226 433 310 52 59 101 146 101 180 0 35 -42 86 -91 111 -57 30 -214
63 -296 63 -35 0 -63 4 -63 9 0 17 67 59 198 124 73 37 150 69 170 72 81 14
92 17 92 30 0 18 -39 45 -65 44 -11 0 -34 -5 -51 -10z"/>
<path d="M4584 11080 c-43 -17 -112 -123 -139 -215 l-13 -40 -64 3 c-47 2 -68
-1 -77 -11 -15 -19 8 -45 47 -52 71 -15 74 -17 97 -88 45 -141 123 -172 295
-120 84 25 102 45 55 63 -17 6 -37 5 -66 -5 -23 -8 -60 -15 -82 -15 -35 0 -46
6 -83 44 -34 36 -43 54 -49 96 -7 51 -7 52 31 83 91 73 174 175 174 213 0 40
-72 66 -126 44z"/>
<path d="M27353 11078 c-20 -26 -34 -116 -44 -282 -11 -195 -31 -325 -60 -392
-23 -54 -18 -81 16 -90 33 -8 39 -2 63 63 31 88 51 201 57 326 8 144 23 240
46 295 23 53 23 56 3 76 -19 19 -68 21 -81 4z"/>
<path d="M5545 10993 c-93 -38 -191 -128 -225 -208 -28 -65 -22 -155 15 -232
30 -59 61 -86 122 -102 88 -24 248 26 297 92 17 23 18 29 7 37 -16 9 -34 4
-119 -37 -41 -20 -73 -27 -116 -28 -56 0 -60 2 -92 39 -25 29 -34 49 -34 75 0
32 5 38 44 60 47 25 221 194 244 236 12 24 11 28 -17 55 -34 34 -65 37 -126
13z m43 -72 c6 -19 -132 -151 -158 -151 -31 0 -36 27 -9 57 35 38 140 114 152
110 6 -2 13 -9 15 -16z"/>
<path d="M5888 10919 c-39 -29 -69 -117 -75 -224 -5 -82 -3 -92 17 -118 35
-44 75 -60 134 -53 73 10 146 48 210 112 97 95 59 132 -50 48 -102 -79 -164
-101 -215 -74 -39 21 -17 166 36 235 14 19 32 35 40 35 23 0 28 20 9 41 -22
25 -71 24 -106 -2z"/>
<path d="M20088 10679 c-27 -15 -22 -44 13 -73 87 -73 163 -28 79 47 -41 38
-62 44 -92 26z"/>
<path d="M12749 8019 c-48 -48 4 -71 131 -59 123 12 190 12 190 1 0 -5 -27
-36 -61 -68 -33 -32 -69 -72 -80 -89 -46 -74 -6 -137 100 -157 33 -6 61 -14
61 -17 0 -3 -27 -38 -60 -76 -73 -87 -90 -137 -70 -210 12 -42 29 -64 117
-149 57 -55 103 -107 103 -115 0 -30 -41 -81 -87 -111 -27 -16 -92 -44 -146
-61 -100 -32 -119 -46 -97 -73 18 -22 68 -18 157 10 169 53 264 157 239 262
-5 18 -46 65 -112 128 -93 89 -106 105 -111 141 -7 53 15 96 101 196 36 43 66
84 66 91 0 26 -36 46 -95 53 -70 8 -125 28 -125 46 0 7 33 44 73 83 84 82 127
133 127 151 0 7 -7 20 -16 28 -13 13 -46 16 -200 16 -173 0 -185 -1 -205 -21z"/>
</g>
</svg>
