<?xml version="1.0" standalone="no"?>
<!DOCTYPE svg PUBLIC "-//W3C//DTD SVG 20010904//EN"
 "http://www.w3.org/TR/2001/REC-SVG-20010904/DTD/svg10.dtd">
<svg version="1.0" xmlns="http://www.w3.org/2000/svg"
 width="3264.000000pt" height="2448.000000pt" viewBox="0 0 3264.000000 2448.000000"
 preserveAspectRatio="xMidYMid meet">
<metadata>
Created by potrace 1.12, written by Peter Selinger 2001-2015
</metadata>
<g transform="translate(0.000000,2448.000000) scale(0.100000,-0.100000)"
fill="#000000" stroke="none">
<path d="M6878 23223 c7 -3 16 -2 19 1 4 3 -2 6 -13 5 -11 0 -14 -3 -6 -6z"/>
<path d="M12308 22913 c7 -3 16 -2 19 1 4 3 -2 6 -13 5 -11 0 -14 -3 -6 -6z"/>
<path d="M12378 22913 c7 -3 16 -2 19 1 4 3 -2 6 -13 5 -11 0 -14 -3 -6 -6z"/>
<path d="M12458 22913 c6 -2 18 -2 25 0 6 3 1 5 -13 5 -14 0 -19 -2 -12 -5z"/>
<path d="M12518 22913 c6 -2 18 -2 25 0 6 3 1 5 -13 5 -14 0 -19 -2 -12 -5z"/>
<path d="M12625 22910 c3 -5 15 -10 26 -10 10 0 19 5 19 10 0 6 -12 10 -26 10
-14 0 -23 -4 -19 -10z"/>
<path d="M12720 22910 c0 -6 24 -10 57 -10 68 0 66 5 -4 14 -34 4 -53 3 -53
-4z"/>
<path d="M12918 22903 c12 -2 30 -2 40 0 9 3 -1 5 -23 4 -22 0 -30 -2 -17 -4z"/>
<path d="M13038 22903 c12 -2 32 -2 45 0 12 2 2 4 -23 4 -25 0 -35 -2 -22 -4z"/>
<path d="M13135 22900 c3 -5 44 -9 91 -9 50 0 82 4 79 10 -4 5 -44 9 -91 9
-52 0 -83 -4 -79 -10z"/>
<path d="M13355 22899 c-4 -5 42 -9 117 -9 68 -1 187 -3 266 -6 97 -4 142 -2
142 5 0 7 -54 11 -162 11 -90 0 -207 2 -260 4 -56 3 -100 1 -103 -5z"/>
<path d="M13938 22883 c23 -2 59 -2 80 0 20 2 1 4 -43 4 -44 0 -61 -2 -37 -4z"/>
<path d="M14068 22883 c6 -2 18 -2 25 0 6 3 1 5 -13 5 -14 0 -19 -2 -12 -5z"/>
<path d="M14121 22886 c2 -2 65 -6 139 -9 79 -4 125 -3 110 2 -24 9 -258 15
-249 7z"/>
<path d="M14503 22873 c9 -2 25 -2 35 0 9 3 1 5 -18 5 -19 0 -27 -2 -17 -5z"/>
<path d="M4328 22773 c6 -2 18 -2 25 0 6 3 1 5 -13 5 -14 0 -19 -2 -12 -5z"/>
<path d="M4808 22773 c7 -3 16 -2 19 1 4 3 -2 6 -13 5 -11 0 -14 -3 -6 -6z"/>
<path d="M4850 22776 c0 -9 40 -13 46 -5 3 5 -6 9 -20 9 -14 0 -26 -2 -26 -4z"/>
<path d="M4920 22770 c0 -5 5 -10 10 -10 6 0 10 5 10 10 0 6 -4 10 -10 10 -5
0 -10 -4 -10 -10z"/>
<path d="M5005 22770 c3 -5 21 -10 38 -10 24 0 28 3 17 10 -20 13 -63 13 -55
0z"/>
<path d="M5105 22770 c-14 -7 -8 -8 20 -3 22 3 42 7 44 9 9 8 -45 2 -64 -6z"/>
<path d="M5245 22770 c-3 -5 3 -10 14 -10 12 0 21 5 21 10 0 6 -6 10 -14 10
-8 0 -18 -4 -21 -10z"/>
<path d="M5300 22770 c0 -5 12 -10 26 -10 14 0 23 4 19 10 -3 6 -15 10 -26 10
-10 0 -19 -4 -19 -10z"/>
<path d="M5442 22769 c-24 -9 251 -16 307 -8 25 3 39 7 31 8 -41 6 -323 5
-338 0z"/>
<path d="M5800 22763 c0 -6 64 -11 158 -12 86 -1 252 -3 367 -6 116 -2 401 -7
635 -10 234 -3 520 -7 635 -10 116 -3 318 -7 450 -10 490 -10 735 -15 905 -20
96 -3 301 -7 455 -10 154 -3 433 -10 620 -15 187 -5 475 -12 640 -15 165 -3
455 -10 645 -15 190 -5 467 -12 615 -15 585 -11 787 -16 960 -20 169 -5 793
-18 1345 -30 721 -14 2537 -25 2575 -15 28 7 29 8 5 10 -58 4 -237 9 -595 14
-755 12 -1190 21 -1740 36 -192 5 -561 12 -820 15 -516 6 -1771 29 -2460 45
-740 17 -892 20 -1410 30 -471 9 -619 13 -1195 25 -1107 24 -2790 41 -2790 28z"/>
<path d="M16855 22560 c3 -5 24 -10 46 -10 24 0 38 4 34 10 -3 6 -24 10 -46
10 -24 0 -38 -4 -34 -10z"/>
<path d="M17065 22560 c-4 -6 9 -10 32 -10 28 0 34 3 23 10 -20 13 -47 13 -55
0z"/>
<path d="M17218 22553 c7 -3 16 -2 19 1 4 3 -2 6 -13 5 -11 0 -14 -3 -6 -6z"/>
<path d="M21668 22523 c7 -3 16 -2 19 1 4 3 -2 6 -13 5 -11 0 -14 -3 -6 -6z"/>
<path d="M21809 22521 c19 -13 451 -13 451 -1 0 6 -85 10 -232 10 -136 0 -227
-4 -219 -9z"/>
<path d="M22277 22518 c-7 -4 -7 -8 -2 -8 94 -5 316 -5 335 0 14 4 -36 10
-110 13 -149 7 -206 6 -223 -5z"/>
<path d="M22655 22511 c29 -12 227 -12 245 -1 10 6 -31 10 -125 9 -80 0 -131
-4 -120 -8z"/>
<path d="M22930 22510 c0 -5 7 -10 16 -10 8 0 12 5 9 10 -3 6 -10 10 -16 10
-5 0 -9 -4 -9 -10z"/>
<path d="M23002 22512 c-7 -5 27 -9 79 -11 54 -1 89 2 85 7 -7 12 -146 15
-164 4z"/>
<path d="M23228 22503 c7 -3 16 -2 19 1 4 3 -2 6 -13 5 -11 0 -14 -3 -6 -6z"/>
<path d="M23328 22503 c6 -2 18 -2 25 0 6 3 1 5 -13 5 -14 0 -19 -2 -12 -5z"/>
<path d="M23393 22503 c9 -2 23 -2 30 0 6 3 -1 5 -18 5 -16 0 -22 -2 -12 -5z"/>
<path d="M23458 22503 c6 -2 18 -2 25 0 6 3 1 5 -13 5 -14 0 -19 -2 -12 -5z"/>
<path d="M23558 22503 c12 -2 30 -2 40 0 9 3 -1 5 -23 4 -22 0 -30 -2 -17 -4z"/>
<path d="M23738 22503 c7 -3 16 -2 19 1 4 3 -2 6 -13 5 -11 0 -14 -3 -6 -6z"/>
<path d="M23893 22493 c9 -2 25 -2 35 0 9 3 1 5 -18 5 -19 0 -27 -2 -17 -5z"/>
<path d="M24338 22493 c7 -3 16 -2 19 1 4 3 -2 6 -13 5 -11 0 -14 -3 -6 -6z"/>
<path d="M24750 22489 c0 -5 5 -7 10 -4 6 3 10 8 10 11 0 2 -4 4 -10 4 -5 0
-10 -5 -10 -11z"/>
<path d="M25068 22483 c6 -2 18 -2 25 0 6 3 1 5 -13 5 -14 0 -19 -2 -12 -5z"/>
<path d="M25480 22476 c0 -9 30 -14 35 -6 4 6 -3 10 -14 10 -12 0 -21 -2 -21
-4z"/>
<path d="M14413 22443 c-17 -6 -16 -38 1 -52 20 -16 46 -3 46 24 0 18 -22 40
-33 34 -1 0 -8 -3 -14 -6z"/>
<path d="M14096 22424 c-8 -22 -6 -23 27 -17 31 6 31 26 0 31 -12 2 -23 -4
-27 -14z"/>
<path d="M14393 22333 c-18 -7 -16 -33 3 -55 13 -14 14 -21 5 -32 -7 -8 -11
-25 -9 -38 3 -21 7 -23 53 -20 28 2 51 5 53 7 2 1 -13 29 -33 61 -19 33 -35
65 -35 72 0 12 -15 15 -37 5z"/>
<path d="M14422 22133 c4 -20 54 -29 77 -14 23 15 2 31 -40 31 -33 0 -40 -3
-37 -17z"/>
<path d="M31850 22074 c-19 -6 -52 -74 -55 -114 -3 -34 17 -60 46 -60 16 0 19
8 20 53 3 79 4 127 4 126 0 -1 -7 -3 -15 -5z"/>
<path d="M14636 21975 c-17 -13 -17 -15 -2 -21 9 -3 23 -21 32 -39 15 -31 41
-52 52 -40 3 2 -1 11 -7 19 -7 8 -11 29 -9 46 4 45 -29 63 -66 35z"/>
<path d="M327 21933 c-10 -9 -9 -43 1 -43 12 0 32 23 32 37 0 14 -22 18 -33 6z"/>
<path d="M2660 21921 c0 -10 -3 -39 -6 -65 -8 -54 4 -60 29 -13 15 27 16 38 6
65 -12 35 -29 43 -29 13z"/>
<path d="M14223 21907 c5 -15 37 -22 37 -9 0 5 -9 12 -21 15 -13 3 -19 1 -16
-6z"/>
<path d="M594 21895 c-9 -21 6 -67 24 -73 18 -6 16 63 -3 78 -12 10 -16 9 -21
-5z"/>
<path d="M1752 21898 c6 -18 28 -21 28 -4 0 9 -7 16 -16 16 -9 0 -14 -5 -12
-12z"/>
<path d="M2120 21865 c0 -16 6 -25 15 -25 8 0 15 -6 15 -14 0 -8 7 -22 16 -31
12 -12 19 -13 30 -4 20 17 18 23 -22 63 -43 43 -54 45 -54 11z"/>
<path d="M86 21873 c-11 -11 -6 -23 9 -23 8 0 15 4 15 9 0 13 -16 22 -24 14z"/>
<path d="M2782 21868 c3 -7 13 -15 22 -16 12 -3 17 1 14 10 -3 7 -13 15 -22
16 -12 3 -17 -1 -14 -10z"/>
<path d="M3145 21869 c-10 -15 3 -25 16 -12 7 7 7 13 1 17 -6 3 -14 1 -17 -5z"/>
<path d="M2917 21854 c-11 -11 -8 -64 3 -64 6 0 10 9 10 20 0 12 7 20 16 20 9
0 14 6 12 13 -5 14 -31 21 -41 11z"/>
<path d="M3242 21823 c-2 -31 0 -34 13 -23 18 15 19 34 3 48 -10 8 -14 2 -16
-25z"/>
<path d="M2054 21829 c-9 -16 18 -30 33 -17 7 6 10 14 7 19 -7 13 -31 11 -40
-2z"/>
<path d="M1733 21813 c-7 -2 -13 -9 -13 -15 0 -14 43 -6 48 10 4 12 -12 15
-35 5z"/>
<path d="M1880 21800 c0 -5 5 -10 11 -10 5 0 7 5 4 10 -3 6 -8 10 -11 10 -2 0
-4 -4 -4 -10z"/>
<path d="M80 21790 c0 -5 7 -10 16 -10 8 0 12 5 9 10 -3 6 -10 10 -16 10 -5 0
-9 -4 -9 -10z"/>
<path d="M3147 21784 c-14 -14 -7 -35 11 -32 9 2 17 10 17 17 0 16 -18 25 -28
15z"/>
<path d="M3213 21783 c-18 -6 -16 -23 1 -23 17 0 30 16 19 23 -5 2 -14 2 -20
0z"/>
<path d="M1100 21760 c0 -5 12 -10 26 -10 14 0 23 4 19 10 -3 6 -15 10 -26 10
-10 0 -19 -4 -19 -10z"/>
<path d="M2655 21720 c3 -5 8 -10 11 -10 2 0 4 5 4 10 0 6 -5 10 -11 10 -5 0
-7 -4 -4 -10z"/>
<path d="M3130 21720 c0 -5 5 -10 10 -10 6 0 10 5 10 10 0 6 -4 10 -10 10 -5
0 -10 -4 -10 -10z"/>
<path d="M31676 21675 c-16 -25 -15 -77 2 -101 12 -16 80 -64 92 -64 21 0 88
39 94 55 3 9 6 31 6 49 0 18 5 37 10 42 7 7 6 16 -3 29 -13 17 -15 17 -38 2
-29 -21 -87 -21 -113 -2 -27 20 -31 19 -50 -10z"/>
<path d="M32180 21543 c1 -47 15 -293 25 -403 2 -30 7 -86 9 -125 3 -38 8 -97
12 -130 13 -138 16 -163 19 -225 4 -90 15 -210 21 -241 3 -15 7 -69 9 -120 10
-222 20 -279 49 -279 23 0 24 9 15 100 -14 133 -18 184 -28 350 -6 85 -14 172
-19 192 -5 20 -7 57 -5 82 3 25 2 53 -2 63 -4 10 -9 54 -11 98 -9 224 -13 272
-24 299 -6 16 -8 48 -4 71 3 23 1 59 -6 81 -6 21 -16 66 -20 99 -18 115 -22
135 -31 135 -5 0 -9 -21 -9 -47z"/>
<path d="M31862 21351 c-18 -3 -33 -9 -32 -13 0 -5 0 -21 0 -38 0 -34 18 -39
59 -16 16 9 20 15 12 21 -8 4 -10 17 -7 31 4 13 5 23 4 23 -2 -1 -18 -4 -36
-8z"/>
<path d="M7540 21200 c0 -5 5 -10 10 -10 6 0 10 5 10 10 0 6 -4 10 -10 10 -5
0 -10 -4 -10 -10z"/>
<path d="M7455 21190 c-8 -13 4 -32 16 -25 12 8 12 35 0 35 -6 0 -13 -4 -16
-10z"/>
<path d="M7815 21180 c10 -11 22 -20 27 -20 15 0 9 28 -8 34 -30 11 -37 6 -19
-14z"/>
<path d="M1136 21171 c-4 -7 -5 -15 -2 -18 9 -9 19 4 14 18 -4 11 -6 11 -12 0z"/>
<path d="M6590 21170 c0 -5 7 -10 16 -10 8 0 12 5 9 10 -3 6 -10 10 -16 10 -5
0 -9 -4 -9 -10z"/>
<path d="M2163 21150 c-20 -8 -23 -17 -25 -70 -4 -157 -5 -153 24 -169 34 -19
44 -10 24 21 -11 17 -14 43 -12 102 3 67 7 83 25 97 11 9 21 20 21 23 0 9 -31
6 -57 -4z"/>
<path d="M2310 21143 c0 -5 9 -19 20 -33 11 -14 20 -33 20 -42 0 -25 17 -22
25 3 5 15 -1 29 -21 50 -27 28 -44 37 -44 22z"/>
<path d="M8573 21116 c-24 -25 -21 -76 4 -76 10 0 12 6 8 21 -5 14 0 28 15 44
16 17 18 24 8 28 -8 3 -23 -5 -35 -17z"/>
<path d="M8725 21120 c4 -6 11 -8 16 -5 14 9 11 15 -7 15 -8 0 -12 -5 -9 -10z"/>
<path d="M8865 21120 c-3 -5 3 -10 15 -10 12 0 18 5 15 10 -3 6 -10 10 -15 10
-5 0 -12 -4 -15 -10z"/>
<path d="M9960 21112 c0 -6 19 -13 42 -17 32 -6 53 -19 85 -51 23 -25 46 -56
49 -69 9 -35 24 -42 24 -11 0 14 -4 28 -10 31 -5 3 -10 14 -10 24 0 10 -19 35
-42 55 -31 29 -52 39 -90 43 -30 4 -48 2 -48 -5z"/>
<path d="M9087 21104 c-13 -13 -7 -61 8 -74 17 -14 22 -5 27 45 3 29 -18 46
-35 29z"/>
<path d="M9829 21092 c-15 -9 -40 -32 -57 -50 -29 -31 -30 -36 -28 -110 3 -89
26 -133 79 -152 53 -18 52 -11 -1 38 -36 34 -52 56 -53 75 -1 15 -2 42 -3 60
-1 38 33 85 99 134 26 19 27 22 10 23 -11 0 -32 -8 -46 -18z"/>
<path d="M4113 21074 c-3 -9 1 -31 10 -49 9 -18 13 -36 9 -39 -13 -14 -11 -94
3 -106 24 -20 32 -3 27 50 -3 29 1 69 8 90 11 32 11 42 0 55 -16 20 -49 19
-57 -1z"/>
<path d="M12450 21060 c0 -5 4 -10 9 -10 6 0 13 5 16 10 3 6 -1 10 -9 10 -9 0
-16 -4 -16 -10z"/>
<path d="M12620 21060 c0 -5 7 -10 16 -10 8 0 12 5 9 10 -3 6 -10 10 -16 10
-5 0 -9 -4 -9 -10z"/>
<path d="M2933 21048 c-12 -16 -2 -119 12 -119 11 0 27 98 20 119 -2 6 -8 12
-13 12 -5 0 -14 -6 -19 -12z"/>
<path d="M3205 21030 c-7 -11 2 -30 13 -30 4 0 13 9 20 20 11 17 10 20 -7 20
-11 0 -23 -4 -26 -10z"/>
<path d="M3352 20964 c0 -81 13 -99 23 -31 3 23 8 54 11 68 4 20 0 28 -14 31
-17 5 -19 -1 -20 -68z"/>
<path d="M3854 21025 c-10 -26 6 -38 27 -19 10 9 16 21 13 25 -8 14 -34 10
-40 -6z"/>
<path d="M3980 21031 c0 -5 6 -11 14 -14 11 -5 12 -14 5 -48 -7 -28 -6 -46 0
-52 27 -27 40 59 16 97 -17 26 -35 35 -35 17z"/>
<path d="M7390 21025 c0 -8 5 -15 10 -15 6 0 10 7 10 15 0 8 -4 15 -10 15 -5
0 -10 -7 -10 -15z"/>
<path d="M2720 21015 c-13 -16 -5 -95 10 -95 5 0 6 15 3 34 -3 19 -1 36 6 40
13 8 15 36 2 36 -5 0 -14 -7 -21 -15z"/>
<path d="M3100 21010 c0 -19 3 -21 12 -12 9 9 9 15 0 24 -9 9 -12 7 -12 -12z"/>
<path d="M6748 21023 c7 -3 16 -2 19 1 4 3 -2 6 -13 5 -11 0 -14 -3 -6 -6z"/>
<path d="M12710 21024 c0 -3 12 -20 27 -38 14 -17 32 -46 40 -63 14 -35 33
-44 33 -15 -1 31 -65 122 -87 122 -7 0 -13 -3 -13 -6z"/>
<path d="M2347 21013 c-10 -9 -8 -53 2 -53 5 0 14 7 21 15 20 24 -2 59 -23 38z"/>
<path d="M2448 21014 c-8 -7 3 -54 13 -54 12 0 12 47 0 54 -4 3 -10 3 -13 0z"/>
<path d="M16104 21010 c-52 -12 -127 -64 -159 -109 -25 -36 -30 -52 -29 -97 2
-54 13 -79 75 -155 l21 -27 -21 -29 c-57 -77 46 -94 126 -21 15 14 40 21 85
24 92 7 169 25 198 47 43 33 80 102 81 154 2 62 -10 89 -61 141 -61 61 -116
82 -209 81 -42 -1 -90 -4 -107 -9z m237 -61 c49 -24 95 -82 102 -126 4 -25 0
-48 -15 -77 -40 -80 -122 -126 -224 -126 -36 0 -64 -7 -88 -21 -45 -26 -76
-18 -76 20 0 17 -10 37 -26 52 -63 59 -74 149 -25 215 42 58 67 77 114 85 66
12 196 0 238 -22z"/>
<path d="M3735 21000 c-3 -5 -1 -10 4 -10 6 0 11 5 11 10 0 6 -2 10 -4 10 -3
0 -8 -4 -11 -10z"/>
<path d="M3601 20991 c-8 -6 -10 -14 -5 -22 5 -8 7 -22 5 -33 -1 -11 2 -17 10
-14 13 4 25 78 12 78 -4 0 -14 -4 -22 -9z"/>
<path d="M17460 20985 c-7 -9 -10 -18 -8 -21 7 -6 78 22 78 30 0 13 -59 5 -70
-9z"/>
<path d="M17557 20978 c11 -13 23 -29 27 -35 10 -18 -77 -126 -127 -158 -8 -5
-18 -21 -22 -35 l-8 -25 26 28 c14 15 31 27 37 27 5 0 10 6 10 14 0 8 16 24
35 36 50 31 75 67 75 109 0 43 -14 61 -49 61 l-24 0 20 -22z"/>
<path d="M6494 20979 c-3 -6 0 -17 8 -25 13 -13 16 -13 27 0 7 8 10 20 6 26
-8 13 -32 13 -41 -1z"/>
<path d="M12326 20968 c-9 -12 -16 -32 -16 -43 1 -14 6 -10 21 18 23 44 20 60
-5 25z"/>
<path d="M7384 20928 c3 -18 11 -37 18 -43 8 -7 9 -3 4 15 -3 14 -6 33 -6 43
0 9 -5 17 -11 17 -8 0 -9 -11 -5 -32z"/>
<path d="M2466 20942 c-3 -6 -1 -14 5 -17 15 -10 25 3 12 16 -7 7 -13 7 -17 1z"/>
<path d="M3077 20932 c-21 -23 -21 -32 -3 -32 20 0 41 29 29 41 -6 6 -15 3
-26 -9z"/>
<path d="M3210 20939 c0 -5 5 -7 10 -4 6 3 10 8 10 11 0 2 -4 4 -10 4 -5 0
-10 -5 -10 -11z"/>
<path d="M17352 20887 c-35 -28 -58 -53 -52 -55 6 -2 20 5 31 17 11 12 28 21
39 21 18 0 60 43 60 61 0 17 -15 8 -78 -44z"/>
<path d="M2965 20910 c3 -5 13 -10 21 -10 8 0 12 5 9 10 -3 6 -13 10 -21 10
-8 0 -12 -4 -9 -10z"/>
<path d="M13760 20915 c0 -4 7 -20 16 -37 19 -36 13 -91 -12 -119 -29 -32 16
-65 56 -39 12 7 12 12 0 35 -8 15 -14 55 -14 96 0 65 -1 69 -23 69 -13 0 -23
-2 -23 -5z"/>
<path d="M6260 20890 c6 -11 16 -20 22 -20 6 0 3 9 -7 20 -10 11 -20 20 -22
20 -2 0 1 -9 7 -20z"/>
<path d="M7855 20890 c-8 -13 25 -62 39 -57 6 2 11 9 10 15 -1 7 -2 20 -2 30
-2 19 -37 28 -47 12z"/>
<path d="M6726 20874 c-4 -11 -1 -14 11 -12 9 2 18 9 21 16 6 18 -25 15 -32
-4z"/>
<path d="M12296 20823 c8 -56 12 -65 25 -58 5 4 5 13 -1 25 -5 10 -10 32 -10
49 0 17 -5 31 -11 31 -7 0 -8 -16 -3 -47z"/>
<path d="M9067 20792 c-37 -38 -35 -54 6 -50 24 2 33 8 35 25 2 12 -1 29 -5
38 -8 13 -13 11 -36 -13z"/>
<path d="M10090 20805 c-6 -8 -10 -18 -8 -22 9 -22 118 -114 127 -108 21 12
10 34 -34 71 -25 20 -45 45 -45 55 0 23 -23 25 -40 4z"/>
<path d="M29508 20795 c-6 -14 -8 -28 -4 -32 9 -9 47 38 40 49 -10 15 -25 8
-36 -17z"/>
<path d="M8555 20800 c-10 -17 5 -49 25 -55 32 -10 41 3 25 36 -16 29 -38 38
-50 19z"/>
<path d="M29655 20800 c3 -5 10 -10 16 -10 5 0 9 5 9 10 0 6 -7 10 -16 10 -8
0 -12 -4 -9 -10z"/>
<path d="M12784 20783 c-14 -45 -27 -68 -45 -81 -23 -16 -25 -32 -5 -32 21 0
65 60 72 98 7 34 -12 46 -22 15z"/>
<path d="M29820 20790 c-11 -7 -12 -12 -3 -21 13 -13 33 -4 33 17 0 16 -9 18
-30 4z"/>
<path d="M7821 20764 c0 -11 3 -14 6 -6 3 7 2 16 -1 19 -3 4 -6 -2 -5 -13z"/>
<path d="M12532 20759 c2 -16 11 -25 26 -27 29 -4 28 8 -4 32 -26 18 -26 18
-22 -5z"/>
<path d="M9905 20760 c-19 -7 -18 -8 6 -15 36 -9 82 -3 87 13 4 14 -60 16 -93
2z"/>
<path d="M7430 20750 c0 -13 28 -25 38 -16 3 4 0 11 -8 16 -20 13 -30 12 -30
0z"/>
<path d="M8850 20750 c-12 -8 -10 -10 8 -10 13 0 20 4 17 10 -7 12 -6 12 -25
0z"/>
<path d="M12320 20738 c0 -17 37 -54 46 -46 3 3 -6 18 -20 33 -17 19 -26 23
-26 13z"/>
<path d="M17180 20704 c-16 -34 -18 -49 -10 -59 14 -17 63 -28 89 -20 19 6 19
7 -4 48 -14 23 -27 50 -31 60 -10 28 -22 20 -44 -29z"/>
<path d="M7780 20719 c0 -5 5 -7 10 -4 6 3 10 8 10 11 0 2 -4 4 -10 4 -5 0
-10 -5 -10 -11z"/>
<path d="M29664 20606 c-6 -7 -15 -23 -19 -36 -7 -21 -5 -22 21 -16 39 10 47
20 39 45 -7 24 -24 27 -41 7z"/>
<path d="M17065 20584 c-31 -32 2 -60 58 -50 45 8 52 41 11 56 -35 14 -50 12
-69 -6z"/>
<path d="M30355 20581 c-8 -15 3 -31 21 -31 9 0 14 7 12 17 -4 20 -24 28 -33
14z"/>
<path d="M2073 20549 c-7 -7 -13 -23 -13 -36 0 -18 6 -23 28 -24 32 -2 149 -4
622 -13 352 -6 552 -10 1132 -22 l326 -6 12 22 c8 16 9 25 1 33 -7 7 -94 11
-243 12 -320 3 -1155 15 -1313 20 -71 2 -204 6 -295 8 -91 2 -183 7 -205 11
-27 5 -44 4 -52 -5z"/>
<path d="M31190 20486 c0 -9 5 -16 10 -16 6 0 10 4 10 9 0 6 -4 13 -10 16 -5
3 -10 -1 -10 -9z"/>
<path d="M31452 20479 c2 -6 8 -10 13 -10 5 0 11 4 13 10 2 6 -4 11 -13 11 -9
0 -15 -5 -13 -11z"/>
<path d="M31452 20421 c2 -7 7 -12 11 -12 12 1 9 15 -3 20 -7 2 -11 -2 -8 -8z"/>
<path d="M29520 20381 c-12 -24 -4 -48 21 -61 27 -15 95 -12 109 5 17 20 8 51
-14 47 -10 -2 -36 4 -57 12 -49 20 -46 20 -59 -3z"/>
<path d="M31206 20384 c-9 -22 -8 -24 9 -24 8 0 15 9 15 20 0 24 -15 27 -24 4z"/>
<path d="M31470 20376 c0 -9 5 -16 10 -16 6 0 10 4 10 9 0 6 -4 13 -10 16 -5
3 -10 -1 -10 -9z"/>
<path d="M29817 20373 c-4 -3 -17 -7 -30 -9 -12 -1 -25 -3 -29 -3 -5 -1 -8
-14 -8 -31 0 -28 2 -30 38 -30 67 0 82 9 82 46 0 29 -3 34 -23 34 -13 0 -27
-3 -30 -7z"/>
<path d="M23531 20117 c-5 -5 -7 -33 -4 -63 8 -78 -3 -88 -94 -80 -65 6 -73 5
-82 -13 -15 -27 -14 -47 5 -65 17 -18 126 -21 200 -7 23 4 102 3 180 -4 163
-13 188 -10 192 29 6 46 -12 56 -98 56 -60 0 -83 4 -100 18 -21 17 -22 20 -8
43 21 33 30 76 18 84 -16 10 -199 12 -209 2z m140 -87 c24 -14 25 -40 0 -40
-10 0 -33 6 -50 13 -32 14 -32 14 -9 25 30 14 35 14 59 2z"/>
<path d="M32306 19898 c3 -62 8 -117 11 -121 3 -5 7 -59 9 -120 3 -62 9 -137
15 -167 5 -30 12 -107 14 -170 2 -63 8 -160 14 -215 5 -55 13 -149 16 -210 4
-60 9 -113 11 -117 4 -6 15 -170 18 -268 1 -25 5 -51 9 -57 5 -7 5 -18 2 -23
-4 -6 -2 -17 5 -25 7 -8 7 -15 1 -19 -10 -7 -7 -82 8 -216 5 -41 9 -82 9 -90
0 -8 3 -46 6 -85 4 -38 8 -106 10 -150 8 -148 18 -235 27 -235 6 0 6 -7 0 -18
-5 -10 -7 -36 -5 -57 7 -57 14 -148 19 -240 4 -81 7 -122 20 -275 4 -47 9
-116 10 -155 2 -38 8 -128 14 -200 6 -71 13 -170 16 -220 17 -289 25 -397 29
-403 2 -4 7 -76 10 -161 4 -85 8 -157 10 -160 2 -3 7 -85 10 -181 4 -96 9
-176 12 -179 3 -3 4 253 3 569 -1 465 -4 586 -16 630 -8 30 -11 70 -8 87 3 18
1 43 -6 55 -7 13 -12 57 -11 103 1 44 -4 98 -10 120 -5 22 -12 81 -13 130 -5
163 -16 319 -27 359 -5 21 -8 76 -7 120 2 45 0 86 -3 92 -4 5 -9 39 -13 74 -3
36 -10 85 -15 110 -21 108 -22 120 -5 120 16 0 16 2 -7 101 -8 32 -8 51 0 64
7 14 7 26 -3 46 -8 15 -14 46 -14 70 1 24 -1 71 -5 104 -3 33 -10 104 -15 158
-5 55 -12 101 -14 104 -3 2 -1 19 5 35 9 26 8 33 -7 44 -14 10 -15 16 -6 27
12 16 4 78 -12 89 -7 4 -6 12 2 22 16 19 7 82 -12 89 -9 3 -9 9 0 25 14 23 7
173 -8 204 -6 10 -5 19 1 23 13 8 13 52 0 60 -5 3 -10 44 -10 90 0 46 -4 86
-8 89 -5 3 -9 36 -10 73 -2 37 -4 102 -7 143 -22 389 -27 420 -60 420 -13 0
-14 -15 -9 -112z"/>
<path d="M31684 19643 c-21 -23 -23 -29 -10 -41 11 -12 20 -12 50 -2 45 15 52
26 30 51 -23 26 -40 24 -70 -8z"/>
<path d="M7130 18275 c-104 -20 -215 -71 -266 -122 -18 -18 -38 -33 -43 -33
-13 0 -76 -90 -100 -142 -49 -105 -69 -177 -61 -219 4 -22 4 -56 0 -75 -4 -19
-4 -37 1 -40 5 -3 9 -22 9 -42 0 -52 64 -173 129 -244 76 -83 188 -145 305
-170 61 -13 168 -11 216 3 52 16 143 59 155 73 6 6 26 24 46 39 19 14 45 47
58 72 12 25 26 45 31 45 14 0 42 99 36 125 -9 33 -34 32 -41 -2 -26 -129 -73
-198 -174 -257 -208 -124 -500 -39 -603 175 -31 64 -61 175 -55 201 3 10 1 20
-3 23 -12 7 -5 114 8 127 6 6 8 24 5 40 -4 21 0 37 14 56 11 15 26 44 34 65
19 52 99 148 154 185 120 79 293 100 414 49 78 -32 85 -33 70 -6 -19 36 -166
90 -239 88 -19 -1 -64 -7 -100 -14z"/>
<path d="M7623 18243 c-4 -10 -15 -24 -25 -31 -10 -7 -18 -20 -18 -28 0 -8
-14 -20 -30 -26 -17 -5 -29 -13 -27 -17 33 -62 60 -131 68 -178 6 -32 13 -68
15 -81 5 -25 30 -40 44 -26 5 5 11 98 13 207 4 188 3 197 -15 197 -10 0 -22
-8 -25 -17z"/>
<path d="M16090 18102 c-19 -2 -39 -7 -44 -12 -15 -15 14 -40 45 -40 30 0 58
-22 60 -48 3 -40 -2 -564 -7 -745 -5 -180 -4 -198 12 -204 12 -4 25 4 47 30
16 21 37 37 48 37 18 0 18 2 3 38 -20 52 -16 380 6 429 13 29 12 34 -4 52 -17
19 -18 36 -12 235 5 170 4 216 -6 223 -13 8 -85 11 -148 5z"/>
<path d="M11937 17953 c-25 -111 -51 -152 -115 -182 -28 -14 -52 -29 -52 -33
0 -5 16 -8 36 -8 68 0 76 -11 69 -98 -3 -42 -6 -154 -7 -248 -1 -193 3 -210
74 -267 33 -26 45 -30 107 -31 63 -1 72 2 107 29 76 62 117 285 48 258 -10 -4
-14 -24 -14 -72 0 -78 -32 -157 -74 -184 -25 -17 -28 -17 -72 2 -36 16 -49 29
-65 65 -17 40 -20 67 -20 233 1 103 0 197 0 208 0 40 8 66 25 87 16 18 24 19
74 12 31 -4 77 -8 102 -9 38 0 45 3 45 20 0 19 -7 20 -108 20 -140 0 -138 -2
-118 138 14 107 12 137 -11 137 -8 0 -20 -30 -31 -77z"/>
<path d="M19711 17918 c-5 -13 -13 -54 -19 -91 -12 -82 -44 -129 -108 -160
-24 -11 -44 -24 -44 -28 0 -3 21 -9 46 -12 25 -2 50 -9 56 -15 6 -6 9 -98 9
-245 -2 -270 4 -299 71 -347 81 -59 212 -43 257 31 26 43 47 180 31 208 -21
40 -35 18 -40 -65 -4 -63 -11 -90 -33 -127 -26 -44 -31 -47 -68 -47 -101 0
-129 66 -130 312 -2 250 -1 260 20 281 17 17 24 18 70 8 29 -6 74 -11 101 -11
43 0 50 3 50 20 0 34 -32 42 -123 30 -81 -11 -82 -11 -103 13 -20 24 -21 28
-8 93 17 87 17 147 2 162 -18 18 -27 15 -37 -10z"/>
<path d="M27903 17914 c-7 -19 13 -34 48 -34 14 0 38 -11 53 -25 24 -23 26
-30 27 -122 1 -54 1 -100 1 -103 0 -3 3 -37 8 -74 6 -46 5 -77 -3 -93 -8 -17
-7 -36 1 -71 7 -26 14 -117 16 -202 3 -86 8 -168 12 -184 5 -21 1 -35 -16 -59
-17 -22 -20 -32 -11 -35 7 -2 21 -24 32 -48 l19 -45 97 3 c83 3 98 6 101 20 2
12 -5 19 -25 23 -46 11 -82 26 -95 42 -7 9 -13 53 -15 112 -2 91 -5 164 -18
376 -10 186 -18 362 -19 435 -1 41 -5 81 -9 88 -6 8 -38 12 -103 12 -78 0 -96
-3 -101 -16z"/>
<path d="M28917 17883 c-14 -14 -5 -23 43 -44 28 -12 55 -30 60 -39 8 -15 27
-239 36 -420 2 -36 5 -103 8 -150 2 -47 7 -159 11 -250 4 -91 11 -169 15 -174
14 -14 39 1 58 34 9 16 25 33 35 36 13 4 16 11 12 22 -17 40 -25 94 -31 197
-3 61 -9 138 -13 173 -4 35 -4 65 0 67 16 10 16 55 -1 70 -14 13 -18 45 -24
198 -4 100 -7 199 -7 219 2 53 -24 68 -120 68 -41 0 -79 -3 -82 -7z"/>
<path d="M8146 17855 c-26 -20 -1 -29 77 -26 46 1 49 17 5 23 -18 3 -40 8 -48
11 -8 4 -24 0 -34 -8z"/>
<path d="M8000 17817 c-75 -37 -149 -121 -174 -195 -18 -56 -21 -161 -6 -220
22 -91 110 -187 201 -218 79 -28 226 -25 294 5 60 26 139 101 166 156 25 50
41 162 32 218 -20 129 -137 267 -225 267 -27 0 -20 -14 22 -42 21 -15 48 -48
68 -88 l34 -65 -6 -118 c-3 -65 -10 -126 -16 -137 -5 -10 -10 -26 -10 -35 0
-31 -72 -105 -125 -130 -74 -36 -142 -34 -209 5 -96 55 -131 129 -131 275 1
149 8 174 71 244 31 33 66 64 79 67 26 6 55 34 37 34 -6 0 -16 2 -24 5 -7 2
-42 -10 -78 -28z"/>
<path d="M8733 17833 c-53 -3 -73 -8 -73 -17 0 -15 21 -26 50 -26 39 0 59 -32
62 -95 4 -90 -13 -416 -22 -441 -12 -30 -24 -36 -76 -37 -31 0 -48 -5 -52 -15
-8 -21 25 -42 52 -33 22 8 241 5 264 -4 18 -7 42 5 42 21 0 8 -6 14 -12 15 -7
1 -29 2 -48 4 -50 4 -84 47 -76 94 3 20 9 101 12 181 3 80 10 155 16 167 7 15
7 31 -1 54 -6 17 -11 47 -11 66 0 44 -16 74 -38 71 -9 -1 -50 -4 -89 -5z"/>
<path d="M9106 17831 c-4 -6 10 -15 33 -21 27 -7 50 -23 68 -47 l28 -37 -3
-225 c-1 -129 -7 -237 -13 -252 -12 -30 -48 -50 -77 -42 -29 7 -66 -15 -52
-32 13 -15 345 -21 355 -5 7 12 -20 26 -66 34 -68 12 -69 20 -57 301 4 88 3
179 -1 203 -9 45 -39 85 -81 107 -35 18 -126 29 -134 16z"/>
<path d="M26232 17741 c-11 -77 -16 -94 -44 -125 -17 -20 -37 -36 -43 -36 -6
0 -21 -7 -34 -16 -27 -19 -14 -34 30 -34 53 0 57 -15 61 -265 l4 -230 30 -55
c47 -88 117 -120 220 -101 53 10 104 55 104 91 0 10 5 22 10 25 16 10 12 150
-5 165 -26 22 -35 1 -34 -78 2 -85 -7 -114 -44 -154 -32 -34 -63 -35 -108 -5
-55 37 -78 108 -79 241 0 60 -5 160 -12 222 -11 109 -11 115 8 129 25 19 58
19 135 -1 46 -12 68 -13 85 -5 31 14 30 26 -2 48 -24 15 -35 15 -112 4 -85
-12 -87 -12 -105 11 -16 19 -18 37 -15 138 3 110 2 115 -18 118 -18 3 -21 -5
-32 -87z"/>
<path d="M9005 17810 c-3 -5 1 -10 9 -10 8 0 18 5 21 10 3 6 -1 10 -9 10 -8 0
-18 -4 -21 -10z"/>
<path d="M10665 17805 c-16 -8 -43 -14 -58 -15 -34 0 -78 -22 -131 -63 -27
-22 -50 -55 -77 -113 -34 -70 -39 -91 -39 -150 0 -129 67 -246 179 -315 47
-29 151 -44 223 -32 101 17 227 115 216 169 -6 31 -25 26 -48 -13 -30 -50 -56
-75 -113 -107 -72 -40 -144 -32 -237 25 -67 41 -110 126 -110 219 -1 149 1
170 19 211 38 89 159 172 227 155 32 -8 39 9 12 28 -26 19 -24 18 -63 1z"/>
<path d="M9530 17790 c0 -13 35 -30 61 -30 37 0 84 -61 108 -142 13 -40 31
-91 41 -113 11 -22 33 -76 51 -120 18 -44 35 -84 40 -90 4 -5 15 -39 24 -75
25 -98 61 -117 95 -50 23 45 27 100 7 100 -23 0 -54 43 -72 100 -9 30 -22 69
-30 85 -7 17 -27 66 -45 110 -17 44 -36 88 -41 98 -6 10 -7 32 -4 48 5 22 14
31 38 37 20 5 32 15 32 25 0 15 -18 18 -152 22 -89 2 -153 0 -153 -5z"/>
<path d="M10767 17793 c-3 -5 9 -21 27 -35 68 -55 114 -176 86 -228 -12 -22
-14 -22 -150 -15 -95 4 -140 3 -145 -4 -13 -22 47 -30 219 -29 174 1 176 1
182 24 5 21 -13 109 -34 165 -13 32 -110 119 -134 119 -9 0 -23 3 -31 6 -8 3
-17 1 -20 -3z"/>
<path d="M10080 17777 c0 -9 13 -25 29 -36 48 -34 46 -78 -8 -171 -9 -15 -46
-95 -63 -135 -16 -37 -26 -83 -20 -89 10 -11 49 61 118 214 46 102 58 121 91
151 19 16 45 29 59 29 23 0 43 24 31 37 -4 3 -58 8 -122 10 -99 5 -115 3 -115
-10z"/>
<path d="M11133 17783 c-43 -8 -21 -43 26 -43 10 0 30 -10 45 -21 l27 -22 -7
-236 c-8 -274 -11 -284 -89 -296 -34 -5 -45 -10 -43 -22 4 -23 373 -26 373 -3
0 11 -15 17 -55 21 -31 3 -65 11 -77 17 -37 20 -37 21 -16 312 10 138 2 263
-19 288 -10 12 -113 15 -165 5z"/>
<path d="M11505 17774 c5 -10 7 -35 6 -55 -3 -67 63 -110 107 -69 50 47 5 126
-79 137 -39 6 -42 5 -34 -13z"/>
<path d="M12969 17741 c-26 -21 -24 -23 34 -35 15 -4 37 -16 48 -27 20 -20 20
-27 14 -262 -6 -241 -7 -242 -31 -264 -16 -15 -38 -23 -59 -23 -35 0 -54 -15
-39 -30 5 -5 86 -10 179 -11 140 -3 170 -1 170 11 0 8 -20 18 -54 26 -81 18
-82 21 -75 214 3 91 9 187 14 215 5 28 4 57 -1 67 -5 9 -9 33 -9 53 0 64 -12
74 -85 74 -36 0 -69 2 -74 5 -5 3 -20 -3 -32 -13z"/>
<path d="M13370 17740 c0 -5 17 -12 38 -15 110 -18 117 -36 114 -320 -2 -121
-5 -228 -8 -238 -7 -22 -61 -47 -99 -47 -20 0 -26 -4 -23 -17 3 -15 16 -18 93
-20 50 -1 122 -4 162 -6 51 -4 75 -2 83 7 14 18 -5 32 -54 39 -22 4 -44 11
-50 17 -7 7 -11 94 -11 260 0 283 0 284 -85 328 -46 23 -160 32 -160 12z"/>
<path d="M13295 17729 c-4 -6 -4 -13 -1 -16 8 -8 36 5 36 17 0 13 -27 13 -35
-1z"/>
<path d="M13897 17733 c-77 -3 -88 -6 -85 -21 2 -9 14 -18 28 -20 42 -5 80
-24 82 -41 1 -9 3 -117 3 -241 0 -205 2 -229 20 -265 26 -52 76 -85 129 -85
23 0 47 -5 53 -11 13 -13 63 -4 63 10 0 12 -56 25 -70 16 -15 -9 -76 42 -90
76 -10 22 -11 96 -7 299 5 257 5 270 -13 280 -10 5 -20 9 -22 8 -2 -1 -43 -4
-91 -5z"/>
<path d="M14265 17720 c-8 -13 24 -40 50 -40 12 0 33 -9 46 -19 24 -19 24 -20
21 -203 -2 -100 -8 -206 -14 -234 -8 -37 -7 -56 1 -72 6 -11 11 -33 11 -49 0
-51 11 -58 97 -55 91 3 113 8 113 27 0 14 -21 25 -50 25 -11 0 -31 10 -46 23
-31 27 -31 18 -16 352 5 123 6 227 1 237 -7 14 -26 16 -109 17 -54 0 -102 -4
-105 -9z"/>
<path d="M14803 17723 c-63 -3 -73 -6 -73 -22 0 -14 10 -21 38 -26 74 -13 73
-9 70 -278 -2 -271 -2 -274 -80 -292 -26 -7 -43 -17 -43 -25 0 -12 29 -16 156
-20 174 -6 189 -4 189 15 0 16 -22 25 -61 25 -16 0 -38 9 -50 21 -20 20 -21
27 -15 217 8 262 9 249 -1 312 -10 65 -18 81 -41 78 -9 -1 -50 -4 -89 -5z"/>
<path d="M15108 17717 c-44 -14 -80 -45 -38 -32 93 28 160 17 197 -31 l27 -36
-2 -217 c0 -119 -1 -225 -2 -237 0 -37 -25 -57 -76 -63 -39 -5 -49 -10 -49
-25 0 -17 12 -18 173 -21 162 -2 172 -1 172 16 0 14 -7 19 -30 19 -35 0 -86
23 -93 42 -8 22 3 329 15 389 l10 57 -40 54 c-22 30 -56 62 -75 72 -46 21
-143 28 -189 13z"/>
<path d="M15610 17720 c-8 -5 -25 -10 -38 -10 -23 0 -102 -47 -102 -61 0 -4
21 4 48 18 55 29 139 34 176 10 50 -33 56 -67 56 -311 l0 -227 -26 -24 c-19
-18 -38 -25 -65 -25 -32 0 -39 -3 -39 -20 0 -11 6 -20 13 -20 336 -4 360 -2
322 27 -11 7 -31 13 -45 13 -15 0 -36 10 -49 24 -23 24 -23 27 -18 226 7 298
-5 332 -122 369 -74 23 -89 25 -111 11z"/>
<path d="M16440 17710 c-13 -9 -13 -11 0 -20 8 -5 30 -10 48 -10 43 0 78 -19
124 -67 47 -48 68 -106 75 -206 10 -128 -26 -242 -90 -291 -87 -67 -166 -73
-274 -23 -38 17 -40 -3 -5 -33 73 -60 197 -61 310 0 143 76 211 275 150 435
-24 64 -101 155 -151 180 -64 32 -164 51 -187 35z"/>
<path d="M17223 17695 c-34 -8 -80 -23 -101 -34 -45 -23 -122 -105 -122 -130
0 -9 -7 -27 -16 -39 -8 -12 -18 -53 -21 -91 -12 -149 49 -276 169 -348 62 -38
174 -61 206 -44 12 6 39 11 61 11 36 0 48 7 106 61 55 52 65 66 65 95 0 47
-22 44 -53 -8 -90 -153 -266 -171 -378 -39 -55 63 -88 188 -63 236 11 22 12
35 4 54 -7 19 -6 41 5 81 11 44 24 64 66 103 67 62 100 76 167 67 78 -10 131
-68 152 -168 19 -87 14 -90 -144 -89 -94 2 -139 -2 -147 -10 -21 -21 66 -30
211 -24 30 1 78 -1 106 -5 68 -9 89 10 79 74 -8 54 -38 126 -71 169 -36 48
-72 64 -194 87 -14 3 -53 -2 -87 -9z"/>
<path d="M18558 17698 c-34 -12 -36 -26 -4 -34 31 -8 58 -2 63 13 7 19 -29 31
-59 21z"/>
<path d="M18096 17692 c-3 -3 -6 -28 -6 -56 0 -64 20 -96 61 -96 27 0 69 29
69 49 0 25 -25 73 -42 82 -30 16 -76 28 -82 21z"/>
<path d="M17696 17674 c-6 -17 12 -30 52 -39 60 -13 63 -25 58 -289 -4 -268
-4 -265 -78 -275 -34 -5 -43 -10 -43 -26 0 -19 7 -20 182 -22 122 -2 184 1
189 8 11 19 -14 33 -66 36 -69 4 -86 15 -93 60 -9 54 1 296 14 366 10 50 9 60
-5 76 -9 9 -16 32 -16 50 0 64 -11 71 -105 70 -58 -2 -86 -6 -89 -15z"/>
<path d="M18735 17667 c-16 -6 -32 -12 -34 -13 -1 -2 8 -18 22 -36 13 -18 32
-57 42 -86 12 -39 21 -52 33 -50 14 3 18 18 20 78 5 123 -5 135 -83 107z"/>
<path d="M20440 17670 c-8 -5 -28 -10 -45 -10 -44 0 -125 -51 -170 -106 -43
-52 -84 -158 -85 -218 0 -55 27 -155 55 -198 54 -82 137 -139 231 -159 118
-24 269 20 332 97 102 124 117 258 45 411 -27 56 -105 136 -150 155 -66 26
-191 43 -213 28z m155 -50 c55 -31 93 -73 113 -125 19 -48 30 -185 21 -253
-11 -82 -29 -121 -74 -165 -118 -114 -316 -66 -375 90 -16 42 -20 78 -20 163
0 150 20 204 97 263 54 40 69 45 172 56 7 0 37 -13 66 -29z"/>
<path d="M18405 17651 c-50 -30 -69 -68 -70 -138 0 -118 56 -159 290 -209 68
-14 86 -23 118 -54 27 -28 37 -46 37 -69 0 -51 -25 -97 -70 -130 -35 -25 -51
-30 -103 -30 -60 0 -147 17 -147 30 0 3 -15 26 -33 50 -19 24 -41 67 -49 94
-11 37 -20 50 -34 50 -17 0 -19 -10 -22 -111 -2 -91 0 -113 13 -124 13 -11 20
-10 43 7 43 31 57 33 91 12 17 -10 39 -19 49 -19 10 0 23 -5 28 -10 26 -26
159 -7 219 31 76 48 104 139 71 232 -30 84 -83 111 -321 167 -62 14 -115 61
-115 103 0 36 14 63 53 105 l31 32 -25 0 c-13 0 -38 -8 -54 -19z"/>
<path d="M21913 17655 c-14 -11 -16 -16 -5 -26 6 -7 12 -28 12 -46 0 -37 37
-83 65 -83 33 0 65 31 65 64 0 59 -95 122 -137 91z"/>
<path d="M21573 17652 c-81 -5 -69 -38 19 -56 15 -4 32 -15 38 -27 9 -16 15
-308 11 -476 -1 -36 -36 -63 -80 -63 -22 0 -43 -5 -47 -11 -16 -26 20 -33 196
-36 159 -3 181 -1 187 13 9 23 -14 34 -74 34 -44 0 -55 4 -72 26 -19 24 -21
40 -21 168 0 77 5 170 11 205 8 52 7 71 -6 103 -8 21 -15 56 -15 78 0 25 -5
40 -12 41 -40 3 -89 4 -135 1z"/>
<path d="M22455 17650 c-11 -5 -33 -9 -50 -9 -43 -2 -125 -52 -167 -103 -44
-54 -78 -151 -78 -222 0 -34 10 -81 26 -125 44 -119 131 -199 250 -231 58 -16
75 -17 139 -5 110 19 205 96 209 168 2 46 -20 43 -49 -7 -32 -54 -98 -116
-124 -116 -11 0 -22 -4 -26 -9 -10 -17 -108 1 -165 29 -67 34 -82 49 -115 123
-30 64 -40 177 -17 184 16 6 15 28 -3 43 -25 21 8 123 58 179 34 36 94 71 124
71 16 0 38 3 51 6 18 5 20 9 11 20 -13 16 -44 17 -74 4z"/>
<path d="M23195 17643 c-98 -22 -173 -69 -219 -136 -52 -75 -70 -145 -62 -240
12 -166 117 -287 279 -320 56 -12 70 -12 93 -1 14 8 33 14 40 14 8 0 14 3 14
8 0 4 -32 8 -71 10 -54 2 -80 8 -108 26 -48 31 -89 79 -113 136 -23 53 -37
218 -21 253 6 12 19 43 31 68 19 43 77 101 127 127 11 5 41 13 67 17 38 6 56
3 93 -15 24 -12 51 -20 57 -17 16 5 -47 45 -82 53 -14 3 -33 9 -42 15 -18 9
-48 10 -83 2z"/>
<path d="M22566 17632 c-3 -5 11 -24 30 -43 49 -48 83 -112 85 -165 4 -69 -10
-75 -142 -60 -93 10 -213 -9 -169 -27 14 -6 109 -12 212 -14 180 -3 188 -2
198 18 15 27 -22 157 -61 214 -36 55 -136 104 -153 77z"/>
<path d="M23528 17613 c-8 -10 -18 -30 -22 -45 -4 -17 -18 -34 -37 -43 -21
-11 -28 -20 -21 -28 16 -21 21 -58 27 -205 5 -118 3 -151 -10 -193 -16 -47
-16 -51 0 -69 14 -16 16 -38 13 -160 -3 -160 -8 -170 -81 -170 -34 0 -38 -3
-35 -21 3 -21 8 -22 175 -25 166 -3 200 3 176 27 -5 5 -33 12 -63 16 -51 8
-56 11 -67 43 -7 19 -12 78 -12 130 1 52 1 228 0 390 0 162 0 302 1 310 5 58
-14 77 -44 43z"/>
<path d="M23812 17623 c-58 -6 -53 -31 9 -49 35 -11 49 -21 57 -41 6 -16 13
-123 16 -240 5 -229 14 -272 67 -319 30 -27 92 -47 118 -39 11 3 30 1 42 -5
25 -14 89 -4 89 13 0 8 -22 13 -67 15 -64 3 -70 5 -104 40 -46 48 -49 71 -51
384 -2 229 -3 237 -23 242 -21 6 -79 5 -153 -1z"/>
<path d="M24222 17601 c-6 -17 11 -27 59 -35 66 -11 72 -31 76 -235 1 -97 -2
-200 -8 -228 -9 -44 -8 -57 5 -75 9 -12 16 -37 16 -54 0 -43 14 -51 90 -53 82
-1 120 7 120 25 0 14 -8 18 -76 44 -17 6 -36 22 -42 35 -7 14 -11 127 -11 300
0 152 -3 280 -6 285 -3 5 -53 8 -111 7 -79 -2 -108 -5 -112 -16z"/>
<path d="M24930 17607 c-111 -29 -179 -90 -226 -202 -26 -63 -16 -213 20 -286
54 -112 175 -201 292 -213 147 -16 273 57 291 168 8 49 -10 47 -43 -6 -60 -96
-109 -124 -214 -119 -130 6 -246 131 -251 271 -1 28 3 56 11 65 10 12 10 19 2
27 -20 20 -14 99 11 139 59 95 109 129 192 129 91 0 133 -34 175 -140 44 -112
31 -123 -143 -121 -130 1 -175 -6 -146 -25 8 -5 73 -9 144 -10 72 -1 153 -4
180 -8 44 -6 53 -4 69 13 18 19 18 26 6 78 -28 129 -73 186 -177 229 -47 20
-140 25 -193 11z"/>
<path d="M25638 17607 c-34 -13 -35 -23 -5 -31 32 -9 60 -7 77 4 13 9 12 12
-4 25 -22 17 -30 17 -68 2z"/>
<path d="M25503 17570 c-40 -24 -64 -60 -73 -111 -14 -75 21 -143 98 -191 37
-22 161 -58 206 -58 44 0 123 -48 140 -85 32 -66 11 -139 -51 -178 -36 -23
-46 -25 -128 -20 -72 5 -87 3 -83 -8 5 -15 57 -31 103 -32 103 -1 199 43 231
106 16 30 21 120 8 159 -11 35 -44 75 -85 104 -42 29 -178 74 -223 74 -39 0
-111 36 -136 67 -11 14 -20 37 -20 51 0 32 46 105 79 125 l26 16 -30 1 c-16 0
-44 -9 -62 -20z"/>
<path d="M25850 17580 c-8 -5 -25 -10 -37 -10 -22 0 -22 0 6 -42 15 -24 36
-64 46 -90 18 -49 39 -62 47 -30 2 9 4 47 3 83 -1 85 -23 116 -65 89z"/>
<path d="M26991 17559 c-76 -12 -110 -28 -159 -77 -128 -129 -129 -358 -2
-498 55 -61 119 -103 189 -124 76 -24 104 -25 122 -4 16 19 -2 34 -42 34 -72
0 -153 57 -204 141 -47 76 -58 124 -45 185 8 33 7 50 0 59 -6 8 -9 33 -6 57 3
24 5 46 5 50 2 17 86 111 119 133 47 31 123 29 178 -5 70 -44 131 -179 104
-231 -10 -18 -18 -19 -129 -13 -118 7 -182 1 -165 -16 15 -15 156 -28 222 -21
34 4 68 3 75 -1 20 -13 84 -9 97 7 22 26 -16 164 -63 227 -28 37 -103 84 -147
91 -19 3 -46 8 -60 10 -14 3 -54 1 -89 -4z"/>
<path d="M27795 17540 c-3 -5 -24 -10 -46 -10 -83 0 -183 -74 -227 -167 -24
-52 -27 -69 -26 -163 0 -94 3 -110 28 -159 34 -66 104 -142 160 -175 50 -29
172 -54 188 -38 16 16 0 32 -33 32 -97 0 -205 110 -234 238 -3 17 -6 75 -7
130 0 75 4 107 17 133 40 78 109 135 176 145 29 5 39 11 35 21 -4 8 -6 17 -6
19 0 8 -19 4 -25 -6z"/>
<path d="M29325 17470 c-3 -6 2 -13 12 -16 10 -3 26 -10 35 -15 17 -9 48 -3
48 10 0 27 -81 44 -95 21z"/>
<path d="M29440 17441 c0 -5 10 -15 23 -24 101 -68 156 -193 158 -363 1 -73
-24 -164 -54 -192 -33 -31 -117 -64 -162 -65 -22 0 -66 10 -97 21 -62 22 -73
15 -32 -21 50 -43 150 -57 241 -33 128 34 225 184 209 321 -18 153 -77 260
-180 327 -55 35 -106 50 -106 29z"/>
<path d="M30155 17410 c-3 -5 -2 -10 4 -10 5 0 13 5 16 10 3 6 2 10 -4 10 -5
0 -13 -4 -16 -10z"/>
<path d="M30217 17404 c-4 -4 18 -30 48 -57 30 -27 58 -61 61 -75 4 -15 11
-32 16 -39 5 -6 10 -46 12 -90 2 -43 7 -112 11 -154 5 -49 4 -88 -3 -108 -10
-28 -7 -34 33 -83 46 -56 115 -101 140 -92 24 10 17 34 -15 52 -37 21 -63 73
-65 132 -4 140 -19 321 -26 326 -5 3 -9 14 -9 25 0 41 -84 132 -135 148 -16 5
-37 12 -46 15 -8 4 -18 3 -22 0z"/>
<path d="M29970 17367 c-55 -28 -65 -99 -20 -147 30 -32 54 -34 88 -8 19 16
14 62 -9 92 -11 15 -24 38 -27 51 -6 22 -9 23 -32 12z"/>
<path d="M30901 17372 c-8 -3 -9 -8 -2 -16 11 -13 71 -10 71 4 0 9 -51 18 -69
12z"/>
<path d="M30752 17335 c-54 -29 -72 -56 -72 -109 0 -61 29 -130 62 -147 12 -7
28 -18 33 -25 10 -14 173 -74 200 -74 8 0 23 -4 33 -9 9 -5 36 -17 59 -26 67
-28 103 -80 103 -147 0 -35 -7 -50 -35 -80 -18 -21 -39 -38 -44 -38 -16 0 -13
-20 3 -26 21 -8 106 36 106 55 0 9 7 24 15 34 15 21 14 131 -3 163 -5 11 -15
30 -21 44 -25 53 -160 121 -277 140 -84 13 -148 61 -165 123 -11 41 -4 69 29
109 17 21 3 28 -26 13z"/>
<path d="M31115 17340 c-3 -5 -17 -10 -31 -10 -29 0 -31 -18 -5 -51 10 -13 30
-48 45 -76 38 -76 50 -69 43 26 -6 97 -30 147 -52 111z"/>
<path d="M31477 17279 c-22 -11 -42 -31 -48 -47 -5 -15 -17 -33 -26 -39 -59
-45 -60 -260 -3 -379 40 -81 196 -212 257 -213 40 -2 34 18 -17 52 -53 36
-150 140 -150 161 0 7 -9 25 -20 38 -26 34 -38 138 -15 138 21 0 19 17 -5 30
-15 8 -18 17 -14 43 3 17 6 45 6 60 1 20 19 47 64 96 35 38 64 72 64 75 0 12
-56 3 -93 -15z"/>
<path d="M25430 17031 c0 -99 3 -120 16 -125 17 -7 44 5 64 28 7 9 21 16 31
16 26 0 24 16 -5 51 -13 15 -32 50 -42 76 -21 57 -32 73 -50 73 -11 0 -14 -25
-14 -119z"/>
<path d="M30095 17098 c-88 -24 -119 -41 -148 -80 -29 -39 -49 -114 -40 -148
17 -68 87 -130 169 -150 90 -21 100 -22 138 -6 54 23 41 40 -35 46 -76 6 -118
27 -155 76 -33 42 -35 86 -8 146 14 31 29 44 78 67 34 16 74 32 89 35 32 8 32
29 0 31 -11 1 -50 -7 -88 -17z"/>
<path d="M27315 17010 c-14 -22 -25 -42 -25 -44 0 -10 -48 -56 -58 -56 -22 0
-62 -24 -62 -37 0 -19 69 -17 76 2 4 8 12 15 19 15 18 0 93 85 101 114 6 26
-1 46 -16 46 -6 0 -21 -18 -35 -40z"/>
<path d="M31595 17010 c-3 -6 1 -12 9 -15 9 -3 23 -7 31 -10 18 -5 20 6 3 23
-15 15 -35 16 -43 2z"/>
<path d="M25575 16940 c3 -5 11 -10 16 -10 6 0 7 5 4 10 -3 6 -11 10 -16 10
-6 0 -7 -4 -4 -10z"/>
<path d="M30708 16892 c-2 -9 -1 -57 2 -106 4 -71 9 -91 23 -100 13 -8 19 -8
25 1 13 21 61 34 83 23 31 -17 22 2 -22 45 -22 22 -51 63 -64 91 -25 57 -41
72 -47 46z"/>
<path d="M30960 16664 c0 -10 7 -14 22 -12 32 5 35 28 4 28 -17 0 -26 -5 -26
-16z"/>
<path d="M9759 15551 c-48 -10 -134 -65 -165 -107 -33 -43 -64 -125 -64 -170
0 -158 103 -269 285 -306 49 -10 104 -23 120 -28 17 -5 54 -17 83 -26 35 -11
58 -25 70 -42 9 -15 19 -29 23 -32 29 -24 39 -138 18 -213 -14 -50 -73 -115
-126 -139 -116 -51 -354 10 -411 106 -22 37 -42 112 -42 158 0 18 -5 40 -10
48 -9 13 -12 12 -25 -4 -11 -14 -15 -46 -15 -115 0 -53 -3 -126 -6 -163 -6
-59 -5 -68 11 -74 13 -5 25 1 42 22 13 16 28 35 34 42 16 20 48 14 87 -17 57
-46 167 -74 260 -69 84 6 137 25 192 72 37 32 47 45 82 116 33 68 37 184 8
253 -12 29 -33 66 -46 83 -34 46 -111 91 -169 100 -27 3 -61 11 -75 16 -13 5
-55 16 -93 24 -103 21 -154 56 -184 122 -21 48 -23 64 -17 120 6 60 10 67 58
115 54 55 107 77 183 77 36 0 160 -32 200 -52 30 -15 80 -115 93 -189 14 -77
25 -100 45 -93 12 5 15 35 15 174 0 101 -4 171 -10 175 -5 3 -27 -12 -48 -34
-44 -46 -61 -50 -88 -20 -46 52 -90 69 -187 74 -50 2 -108 1 -128 -4z"/>
<path d="M7669 15500 c-37 -27 -65 -40 -89 -41 -151 -7 -169 -11 -157 -43 9
-22 72 -20 126 4 24 11 49 20 57 20 21 0 46 -45 40 -71 -3 -13 -8 -78 -11
-144 -3 -66 -10 -220 -15 -343 -6 -123 -8 -227 -5 -231 9 -15 -15 -78 -39
-101 -21 -19 -36 -23 -102 -24 -50 -1 -79 -5 -81 -13 -7 -19 32 -34 60 -24 14
5 60 8 103 6 317 -16 362 -16 368 0 8 21 -15 29 -65 22 -54 -7 -135 17 -150
45 -7 13 -9 45 -5 87 4 36 9 84 11 106 2 22 6 110 10 195 3 85 10 234 16 330
16 263 16 254 -2 258 -9 1 -40 -15 -70 -38z"/>
<path d="M10472 15532 c-50 -5 -38 -32 22 -47 26 -7 52 -19 58 -26 8 -13 3
-388 -7 -544 -3 -33 -7 -134 -10 -225 -5 -161 -6 -166 -31 -187 -15 -14 -38
-23 -58 -23 -36 0 -66 -23 -46 -35 7 -4 89 -8 183 -8 151 -1 172 1 175 15 3
13 -9 18 -53 23 -53 7 -58 10 -71 41 -8 19 -12 52 -10 76 3 24 8 93 11 153 3
61 10 138 16 173 7 45 6 68 -2 84 -12 23 -4 356 11 453 12 75 1 86 -85 83 -38
-2 -85 -4 -103 -6z"/>
<path d="M14195 15429 c-4 -6 -14 -8 -22 -5 -27 11 -93 -17 -139 -57 -103 -91
-152 -289 -140 -563 6 -128 26 -226 61 -295 17 -32 82 -96 115 -114 44 -23
159 -47 188 -39 15 4 32 8 37 8 6 1 28 7 50 15 148 50 215 219 216 546 1 263
-51 410 -166 473 -65 36 -186 54 -200 31z m123 -33 c34 -18 75 -62 96 -102 25
-51 34 -137 35 -339 0 -352 -31 -469 -146 -547 -35 -24 -43 -25 -95 -18 -32 5
-71 18 -87 29 -43 31 -88 105 -102 169 -20 88 -16 464 6 577 22 116 37 146 99
200 48 42 54 45 109 45 32 0 70 -6 85 -14z"/>
<path d="M15836 15370 c-33 -23 -71 -41 -90 -42 -17 -1 -38 -2 -46 -4 -8 -1
-32 -2 -53 -3 -34 -1 -38 -4 -35 -23 4 -30 54 -36 109 -14 58 23 84 21 98 -10
6 -14 9 -40 6 -58 -3 -17 -7 -194 -8 -394 l-3 -363 -25 -25 c-23 -22 -35 -25
-102 -27 -72 -1 -77 -3 -77 -23 0 -22 2 -23 118 -21 64 1 177 0 250 -2 86 -3
137 0 144 7 22 22 -4 32 -80 32 -70 0 -80 3 -106 27 l-28 26 6 136 c3 75 7
289 8 476 3 296 1 340 -12 342 -8 2 -41 -15 -74 -37z"/>
<path d="M16441 15377 c-5 -12 -9 -128 -10 -258 -1 -190 2 -239 13 -248 14
-12 46 -5 46 10 0 4 19 27 43 50 25 25 34 39 22 34 -70 -26 -75 -18 -76 140
-1 151 3 158 71 145 79 -16 147 -11 229 16 79 26 151 79 151 110 0 19 -39 18
-86 -2 -23 -10 -82 -18 -149 -21 -106 -6 -115 -4 -170 21 -70 32 -73 32 -84 3z"/>
<path d="M17251 15363 c-7 -15 -16 -63 -21 -106 -5 -44 -15 -96 -21 -114 -8
-24 -8 -38 -1 -45 21 -21 40 0 47 51 5 37 14 56 32 71 23 18 40 19 246 17
l222 -2 3 -38 c2 -21 7 -37 12 -35 4 2 34 32 65 67 38 43 55 70 53 85 -3 21
-6 21 -253 23 -279 2 -305 5 -330 33 -24 27 -39 25 -54 -7z"/>
<path d="M18285 15380 c-4 -6 -14 -9 -23 -5 -8 3 -40 -2 -71 -11 -126 -36
-205 -188 -133 -257 60 -58 131 -17 123 70 -1 6 -18 27 -38 47 -37 34 -37 35
-19 55 11 12 44 33 74 48 67 33 137 33 196 0 55 -30 89 -109 80 -186 -9 -85
-31 -144 -70 -189 l-36 -42 -78 0 c-80 0 -101 -9 -80 -35 9 -11 35 -15 92 -15
99 0 124 -15 167 -101 39 -77 46 -130 31 -221 -14 -84 -27 -112 -67 -150 -56
-53 -141 -63 -241 -28 -108 38 -140 83 -83 116 26 15 51 57 51 85 0 4 -12 21
-26 38 -30 36 -74 41 -114 14 -37 -25 -41 -34 -35 -76 13 -92 71 -160 175
-210 56 -27 77 -31 145 -32 118 0 185 24 251 89 61 62 83 108 89 187 9 113
-40 198 -150 260 -41 24 -75 49 -75 55 0 7 25 30 56 50 60 40 124 115 125 148
0 12 2 32 3 45 7 61 -28 140 -80 184 -62 52 -221 97 -239 67z"/>
<path d="M19118 15374 c-4 -4 -30 -11 -58 -15 -165 -26 -253 -239 -236 -569 9
-162 21 -229 57 -309 50 -110 120 -169 226 -191 97 -20 205 7 267 67 44 43 60
71 88 161 19 61 21 90 21 302 0 211 -2 241 -21 296 -55 165 -113 226 -229 245
-32 5 -69 11 -83 15 -14 3 -28 2 -32 -2z m131 -52 c97 -59 132 -191 131 -485
-2 -388 -57 -517 -221 -517 -43 0 -59 5 -94 33 -55 41 -85 86 -96 140 -26 123
-29 172 -26 402 l2 251 32 64 c21 43 46 76 74 98 38 28 50 32 106 32 43 0 72
-6 92 -18z"/>
<path d="M19930 15360 c-8 -5 -27 -10 -43 -10 -43 0 -114 -39 -152 -83 -71
-83 -95 -200 -95 -462 1 -217 34 -349 110 -432 42 -47 107 -85 152 -89 21 -2
47 -8 58 -14 22 -12 150 14 192 40 35 21 82 80 98 122 6 18 16 42 20 53 25 59
32 140 27 345 -4 195 -6 222 -29 291 -41 125 -124 216 -203 223 -17 2 -40 8
-52 14 -26 14 -63 15 -83 2z m148 -67 c27 -22 54 -57 68 -87 33 -73 48 -245
42 -491 -6 -226 -21 -291 -80 -353 -45 -46 -64 -55 -127 -58 -47 -3 -60 1 -95
27 -111 81 -139 192 -137 533 0 114 5 222 10 240 6 17 13 49 16 70 5 30 20 52
65 98 l58 58 68 0 c62 0 70 -2 112 -37z"/>
<path d="M20790 15341 c-98 -20 -214 -118 -268 -227 -46 -93 -60 -163 -61
-309 -2 -235 36 -362 139 -465 45 -45 67 -59 118 -75 57 -17 72 -17 133 -7 85
15 136 39 177 87 42 47 56 77 76 160 33 138 -12 298 -106 380 -48 41 -67 50
-151 72 -45 12 -61 12 -72 3 -22 -18 -9 -30 31 -30 64 0 127 -50 159 -126 38
-91 42 -262 10 -371 -17 -57 -88 -132 -127 -134 -94 -6 -139 11 -191 71 -62
73 -77 172 -78 535 -1 66 18 160 39 201 5 11 15 31 23 47 20 44 100 118 154
143 68 32 128 31 172 -2 41 -31 42 -47 4 -74 -48 -33 -50 -70 -5 -114 21 -22
77 -20 97 2 53 58 -27 222 -108 222 -19 0 -37 5 -40 10 -7 11 -71 11 -125 1z"/>
<path d="M21362 15317 c-6 -7 -16 -50 -21 -96 -6 -45 -15 -100 -21 -122 -8
-30 -8 -44 1 -55 15 -18 39 -1 39 30 0 40 11 62 43 82 33 22 75 23 440 15 20
-1 30 -8 37 -26 5 -14 14 -25 18 -25 5 0 30 23 56 50 37 39 47 57 44 78 l-3
27 -269 2 -270 3 -36 25 c-42 29 -44 29 -58 12z"/>
<path d="M22204 15298 c-10 -15 -8 -479 1 -508 10 -31 41 -24 75 19 36 44 73
57 171 60 62 2 69 0 104 -30 58 -52 75 -95 86 -227 10 -126 6 -165 -21 -227
-35 -78 -98 -115 -194 -115 -73 0 -101 9 -169 58 -77 55 -83 84 -22 116 38 21
50 44 40 79 -24 76 -107 91 -141 26 -20 -39 -10 -88 31 -164 42 -76 75 -107
150 -141 75 -35 154 -36 247 -5 93 31 175 117 192 201 26 125 26 140 2 215
-55 171 -130 237 -301 259 -33 4 -48 1 -76 -18 -45 -31 -101 -42 -116 -24 -6
7 -13 71 -16 141 -5 123 -4 128 17 142 17 11 31 11 82 0 96 -20 236 15 312 79
41 36 43 66 3 66 -16 0 -46 -7 -67 -16 -27 -11 -71 -16 -153 -16 -99 -1 -123
2 -160 21 -51 24 -67 26 -77 9z"/>
<path d="M23057 15282 c-10 -11 -14 -32 -12 -62 2 -25 4 -136 4 -248 l1 -202
27 -13 c21 -9 27 -9 31 1 2 7 15 26 29 43 14 16 24 31 22 32 -2 2 -16 8 -30
14 -26 11 -27 13 -31 140 -6 160 -3 168 65 158 140 -21 260 4 332 67 25 22 45
48 45 59 0 24 1 24 -90 -2 -100 -28 -261 -24 -332 8 -43 20 -48 20 -61 5z"/>
<path d="M24450 15267 c-57 -29 -59 -93 -3 -137 51 -40 132 -5 133 59 0 28
-60 91 -86 91 -11 0 -30 -6 -44 -13z"/>
<path d="M26300 15246 c0 -20 20 -32 63 -40 70 -13 64 38 105 -906 l7 -155 25
-3 c20 -2 29 5 44 33 23 43 37 44 67 5 32 -41 87 -76 144 -92 39 -12 57 -12
110 -1 90 18 104 25 164 79 80 71 105 133 105 254 1 153 -43 255 -144 334 -62
48 -125 75 -185 79 -54 3 -56 -25 -3 -34 44 -7 77 -28 134 -84 61 -62 89 -153
88 -295 -1 -158 -35 -227 -133 -271 -53 -23 -147 -25 -175 -4 -11 8 -27 15
-35 15 -26 1 -70 46 -96 98 -23 47 -25 60 -29 268 -2 120 -8 230 -13 243 -9
23 -14 125 -17 366 -1 55 -5 106 -9 113 -12 18 -217 17 -217 -2z"/>
<path d="M27312 15157 c-50 -53 -2 -137 78 -137 37 0 42 3 56 35 18 43 10 79
-23 105 -35 27 -84 26 -111 -3z"/>
<path d="M17680 15094 c-52 -58 -141 -187 -179 -261 -53 -105 -119 -381 -107
-447 14 -72 70 -105 112 -65 22 21 24 29 23 133 0 138 13 234 48 356 26 92 43
123 133 250 38 52 50 90 31 90 -5 0 -32 -25 -61 -56z"/>
<path d="M10892 15118 c3 -7 14 -14 26 -14 30 -2 52 -22 73 -69 17 -36 18 -61
13 -265 -3 -124 -7 -235 -10 -247 -5 -26 -57 -57 -83 -48 -23 7 -60 -20 -45
-34 16 -17 347 -18 352 -2 6 18 -16 31 -53 31 -71 1 -75 20 -65 261 4 112 5
226 1 252 -14 85 -64 129 -159 141 -42 5 -53 4 -50 -6z"/>
<path d="M11670 15110 c-8 -5 -27 -10 -41 -10 -49 0 -119 -32 -171 -78 -141
-127 -161 -352 -44 -495 54 -67 93 -93 179 -119 130 -39 265 -5 357 92 74 78
95 135 95 260 0 89 -2 101 -34 164 -50 97 -146 176 -215 176 -37 0 -32 -11 18
-42 86 -52 125 -140 126 -285 0 -67 -17 -162 -31 -177 -5 -6 -9 -17 -9 -26 0
-27 -67 -96 -115 -119 -113 -53 -256 1 -307 116 -29 66 -35 221 -13 314 16 66
23 80 71 127 29 28 59 52 67 52 7 0 19 6 25 12 7 7 34 13 60 13 35 0 47 4 47
15 0 18 -43 25 -65 10z"/>
<path d="M21797 15028 c-68 -78 -119 -153 -162 -238 -69 -139 -121 -343 -113
-451 4 -52 9 -66 32 -86 34 -29 57 -29 82 -2 17 19 19 38 19 168 0 241 56 441
152 546 26 28 63 93 63 111 0 26 -18 14 -73 -48z"/>
<path d="M12130 15065 c0 -6 22 -21 50 -32 43 -18 53 -28 71 -70 12 -26 27
-70 34 -98 7 -27 36 -117 64 -200 28 -82 58 -176 67 -207 29 -102 66 -103 96
-2 24 79 23 87 -15 104 -27 13 -34 24 -48 80 -16 63 -52 172 -83 255 -8 22
-15 57 -16 78 0 34 3 38 40 53 25 10 40 22 38 31 -2 11 -33 14 -150 16 -101 2
-148 -1 -148 -8z"/>
<path d="M12539 15051 c6 -10 24 -21 40 -24 58 -12 97 -89 72 -143 -17 -39
-13 -50 16 -49 24 0 30 -6 42 -45 7 -25 20 -61 27 -80 7 -19 32 -96 55 -170
23 -74 49 -143 57 -152 24 -28 48 -5 71 66 24 73 26 90 10 81 -5 -4 -21 -4
-33 -1 -23 6 -54 73 -71 155 -4 18 -27 83 -51 145 -24 61 -44 118 -44 127 0
25 26 52 61 64 19 7 35 19 37 28 3 14 -14 16 -148 16 -143 0 -150 -1 -141 -18z"/>
<path d="M12990 15050 c0 -10 15 -27 34 -38 55 -32 55 -62 2 -184 -51 -118
-79 -215 -67 -236 5 -9 17 8 38 55 37 83 77 185 93 238 18 59 57 104 106 125
43 19 56 37 32 45 -7 2 -64 6 -125 9 -105 5 -113 4 -113 -14z"/>
<path d="M15085 15061 c-108 -15 -222 -90 -289 -191 -107 -162 -120 -312 -36
-428 33 -46 70 -69 145 -88 50 -13 58 -13 185 18 87 21 201 126 250 231 45 97
57 149 54 227 -3 63 -8 78 -41 128 -58 87 -144 120 -268 103z m132 -36 c61
-43 88 -129 72 -230 -10 -60 -38 -155 -57 -191 -5 -10 -18 -36 -28 -57 -43
-88 -189 -186 -257 -172 -54 12 -94 43 -119 93 -21 42 -23 56 -17 112 10 90
29 183 40 195 5 5 9 15 9 22 0 20 64 114 103 152 60 57 126 90 182 90 30 1 59
-5 72 -14z"/>
<path d="M16638 14998 c-16 -5 -28 -14 -28 -19 0 -10 -4 -10 77 -13 54 -2 67
-6 94 -32 63 -59 73 -93 73 -254 1 -130 -1 -149 -21 -185 -45 -85 -111 -127
-196 -127 -84 0 -163 38 -215 106 -25 33 -19 47 30 72 51 26 50 102 -2 129
-39 20 -43 19 -79 -11 -38 -32 -40 -66 -7 -146 47 -113 129 -179 243 -194 62
-8 183 19 228 50 126 88 176 242 130 400 -23 80 -40 109 -86 151 -68 61 -179
95 -241 73z"/>
<path d="M20715 14930 c-3 -5 -1 -10 4 -10 6 0 11 5 11 10 0 6 -2 10 -4 10 -3
0 -8 -4 -11 -10z"/>
<path d="M23252 14888 c-21 -21 -13 -26 52 -30 71 -4 113 -31 153 -95 44 -72
56 -330 19 -401 -8 -15 -32 -44 -53 -65 -32 -30 -51 -39 -97 -47 -96 -15 -162
8 -242 84 -40 39 -44 47 -34 65 6 12 17 21 25 21 8 0 23 10 35 22 67 73 -46
173 -116 103 -21 -21 -24 -31 -18 -62 8 -50 59 -154 93 -192 34 -38 114 -78
183 -92 47 -10 64 -8 129 11 109 32 160 74 209 174 25 49 30 71 30 132 0 191
-85 323 -239 370 -57 17 -113 18 -129 2z"/>
<path d="M24371 14886 c-14 -17 1 -31 45 -40 57 -12 69 -37 70 -140 1 -50 5
-164 9 -254 7 -161 7 -164 -16 -188 -16 -17 -33 -24 -61 -24 -35 0 -39 -3 -36
-21 3 -21 8 -22 138 -24 74 -1 147 -6 162 -10 21 -5 29 -3 34 10 9 23 -8 37
-52 44 -68 11 -72 26 -80 351 -4 162 -11 290 -17 298 -14 18 -181 17 -196 -2z"/>
<path d="M25229 14881 c-8 -6 -28 -12 -43 -15 -32 -6 -42 -13 -33 -23 4 -3 18
-1 31 7 36 19 128 5 154 -23 46 -50 53 -81 64 -280 17 -298 17 -296 -11 -318
-14 -11 -39 -19 -62 -19 -41 0 -52 -8 -40 -29 6 -9 44 -14 127 -16 65 -1 145
-6 177 -10 58 -8 59 -8 55 16 -2 20 -10 25 -43 30 -61 8 -82 24 -90 67 -5 33
-17 311 -16 367 1 11 -6 52 -14 91 -24 109 -62 139 -205 159 -19 3 -42 1 -51
-4z"/>
<path d="M24795 14870 c-10 -17 4 -29 40 -36 49 -9 83 -39 89 -77 3 -18 7
-134 10 -260 5 -217 5 -228 -14 -247 -13 -13 -34 -20 -59 -20 -45 0 -58 -12
-37 -32 10 -11 46 -15 137 -16 68 -1 143 -5 166 -8 34 -5 44 -3 49 10 9 23 0
29 -53 36 -83 9 -89 36 -99 410 -2 107 -8 173 -20 228 -4 21 -9 22 -104 22
-55 0 -102 -4 -105 -10z"/>
<path d="M23175 14859 c-10 -15 3 -25 16 -12 7 7 7 13 1 17 -6 3 -14 1 -17 -5z"/>
<path d="M27262 14788 c-17 -17 4 -38 37 -38 63 -1 77 -35 85 -200 4 -74 11
-183 16 -242 13 -142 -4 -184 -71 -171 -26 5 -59 -21 -45 -35 7 -6 149 -14
239 -13 15 0 38 -4 51 -9 34 -12 66 11 47 34 -7 9 -21 16 -31 16 -31 0 -78 21
-85 38 -4 9 -8 64 -11 122 -2 58 -6 141 -9 185 -3 44 -8 132 -11 195 -3 71
-10 118 -17 122 -20 13 -182 9 -195 -4z"/>
<path d="M27798 14782 c-70 -3 -78 -5 -78 -22 0 -13 9 -21 28 -25 81 -17 100
-47 107 -172 2 -48 7 -137 10 -198 3 -60 8 -131 11 -156 8 -58 -17 -89 -70
-89 -37 0 -66 -23 -45 -36 7 -4 71 -9 142 -10 71 -2 144 -8 161 -12 37 -10 56
-6 56 13 0 18 -31 35 -64 35 -40 0 -56 10 -77 51 -16 32 -19 57 -18 136 2 114
-5 239 -23 375 -14 114 -15 115 -140 110z"/>
<path d="M28175 14771 c-6 -11 -1 -15 46 -30 20 -6 43 -19 51 -29 41 -49 61
-169 74 -447 7 -156 2 -168 -70 -171 -53 -2 -64 -8 -48 -27 7 -9 45 -13 119
-15 59 -1 135 -6 168 -11 93 -14 103 22 12 44 -29 8 -48 20 -63 42 -21 31 -27
100 -39 403 -3 72 -28 157 -56 186 -35 38 -179 78 -194 55z"/>
<path d="M12595 14748 c-25 -74 -37 -120 -32 -124 5 -5 16 17 46 89 6 15 11
32 11 37 0 14 -20 12 -25 -2z"/>
<path d="M28951 14737 c-9 -12 -4 -16 28 -21 54 -8 133 -73 162 -133 17 -34
25 -68 26 -118 10 -332 9 -329 91 -424 35 -42 78 -56 118 -37 25 11 32 26 13
26 -6 0 -26 7 -45 16 -47 23 -62 63 -68 186 -18 335 -17 332 -67 396 -30 38
-130 100 -173 107 -23 4 -48 8 -57 11 -9 2 -21 -2 -28 -9z"/>
<path d="M29531 14692 c-20 -7 -12 -42 9 -42 33 0 86 -31 104 -60 11 -19 16
-51 16 -102 0 -41 5 -135 12 -209 21 -227 11 -264 -64 -257 -31 3 -38 0 -38
-15 0 -9 6 -19 13 -22 6 -2 90 -9 186 -15 126 -7 178 -7 185 0 15 16 -23 42
-50 36 -29 -8 -88 11 -108 33 -20 22 -38 197 -37 362 1 71 -4 120 -14 149 -8
23 -15 58 -15 76 0 24 -6 38 -22 48 -21 13 -152 26 -177 18z"/>
<path d="M28772 14673 c-19 -7 -42 -58 -42 -93 0 -37 41 -80 76 -80 29 0 64
33 64 60 0 18 -64 113 -79 117 -3 1 -12 -1 -19 -4z"/>
<path d="M29934 14627 c5 -82 32 -117 90 -117 31 0 50 31 41 69 -8 37 -62 87
-102 96 l-32 6 3 -54z"/>
<path d="M8268 14609 c-38 -28 -38 -78 -1 -114 35 -32 73 -32 107 0 77 71 -21
177 -106 114z"/>
<path d="M30150 14617 c0 -10 14 -20 35 -26 74 -20 94 -45 168 -211 14 -30 61
-131 106 -223 106 -219 129 -285 102 -301 -4 -3 -14 -27 -21 -53 -7 -27 -18
-62 -26 -80 -18 -39 -18 -53 -1 -53 16 0 52 75 71 150 8 30 23 75 35 100 11
25 21 64 21 87 0 36 -4 43 -35 62 -21 12 -35 28 -35 40 0 11 -4 23 -10 26 -5
3 -10 14 -10 23 0 9 -23 62 -50 117 -27 55 -50 105 -50 111 0 6 -9 19 -20 29
-10 9 -26 39 -35 66 -20 58 -10 84 35 94 31 7 40 22 18 30 -7 2 -40 7 -73 9
-33 3 -97 8 -142 12 -72 6 -83 5 -83 -9z"/>
<path d="M30700 14578 c0 -8 13 -27 30 -43 31 -30 56 -87 45 -105 -3 -5 1 -10
10 -10 8 0 18 8 22 18 14 39 45 71 76 77 17 4 40 12 50 17 18 9 18 11 2 28
-10 11 -29 18 -44 17 -14 0 -63 2 -108 7 -68 6 -83 5 -83 -6z"/>
<path d="M28955 14413 c-97 -24 -205 -78 -205 -105 0 -5 -10 -22 -21 -38 -18
-23 -21 -38 -17 -85 8 -95 74 -158 199 -189 75 -18 76 -18 122 2 26 12 47 25
47 30 0 5 -30 12 -67 14 -89 7 -141 32 -170 83 -34 60 -31 113 10 167 35 46
98 88 133 88 26 0 39 26 18 34 -17 6 -18 6 -49 -1z"/>
<path d="M30748 14368 c-8 -13 -21 -41 -28 -63 -7 -22 -16 -47 -20 -55 -4 -9
-11 -35 -15 -59 -6 -34 -4 -42 6 -39 8 3 15 14 17 26 2 11 10 26 18 32 8 7 14
18 14 24 0 7 9 31 20 54 20 42 27 102 11 102 -5 0 -15 -10 -23 -22z"/>
<path d="M29426 14212 c-2 -4 0 -29 5 -56 5 -26 6 -60 3 -75 -5 -19 -4 -23 5
-15 15 14 36 116 28 137 -7 17 -32 23 -41 9z"/>
<path d="M31090 14023 c-56 -22 -50 -111 9 -150 14 -9 44 -17 66 -18 22 -1 48
-5 58 -9 14 -7 17 -3 17 18 0 14 -4 34 -9 44 -5 9 -15 31 -21 49 -8 22 -25 38
-54 53 -23 11 -44 20 -47 19 -2 0 -11 -3 -19 -6z"/>
<path d="M30222 13784 c-46 -32 -16 -126 57 -174 58 -39 79 -39 50 -1 -16 22
-20 37 -15 58 19 77 19 79 -14 106 -37 31 -47 33 -78 11z"/>
<path d="M31211 13741 c-6 -11 -11 -30 -11 -42 0 -12 -13 -35 -30 -51 -16 -15
-30 -35 -30 -43 0 -8 -4 -15 -10 -15 -5 0 -10 -11 -10 -25 0 -32 30 -34 50 -2
35 55 58 105 64 143 8 46 -6 67 -23 35z"/>
<path d="M13440 13559 c-107 -19 -236 -51 -385 -94 -606 -178 -670 -192 -765
-165 -42 12 -72 4 -68 -18 8 -43 95 -52 258 -28 107 17 122 20 420 106 324 92
603 160 660 160 11 0 20 -6 20 -12 0 -22 -61 -91 -155 -175 -242 -216 -456
-459 -441 -498 11 -29 36 -14 113 67 113 119 158 162 349 333 193 173 246 230
242 260 -2 13 -22 30 -57 48 -57 28 -103 32 -191 16z"/>
<path d="M14244 13529 c-3 -6 -2 -15 4 -21 13 -13 32 -2 32 18 0 16 -26 19
-36 3z"/>
<path d="M7528 13503 c-19 -46 -16 -367 5 -511 21 -141 30 -172 52 -172 34 0
37 48 16 212 -20 149 -28 368 -15 402 4 10 18 16 35 16 43 0 49 28 13 57 -42
33 -91 31 -106 -4z"/>
<path d="M15895 13485 c-61 -12 -184 -30 -454 -65 -84 -12 -158 -41 -168 -66
-9 -23 33 -57 61 -48 12 3 30 17 41 30 24 28 58 35 265 60 74 8 163 22 198 30
35 8 77 14 93 14 27 0 29 -2 19 -20 -6 -12 -48 -51 -92 -88 -141 -116 -162
-138 -155 -155 11 -29 66 -54 165 -77 184 -42 272 -91 272 -150 0 -59 -118
-178 -285 -286 -58 -38 -105 -74 -105 -81 0 -29 33 -23 98 15 197 118 352 279
352 366 0 35 -37 86 -84 115 -35 22 -130 50 -244 72 -34 6 -65 16 -69 22 -3 6
16 31 43 56 157 145 224 212 224 225 0 38 -72 51 -175 31z"/>
<path d="M9825 13371 c-168 -42 -215 -100 -166 -206 25 -53 62 -86 146 -131
69 -35 71 -36 140 -28 39 5 115 9 170 9 95 0 104 -2 170 -35 86 -44 113 -76
96 -118 -24 -56 -143 -154 -304 -247 -50 -29 -60 -57 -22 -63 24 -3 177 83
257 144 121 94 157 182 104 254 -81 107 -217 141 -462 116 -78 -8 -83 -8 -130
19 -27 16 -66 44 -86 64 -31 28 -38 42 -38 72 0 32 5 41 33 58 94 58 261 68
457 27 98 -20 117 -22 130 -10 27 26 -11 46 -137 70 -140 28 -260 30 -358 5z"/>
<path d="M20210 13366 c-20 -7 -54 -11 -79 -8 -43 5 -44 4 -120 -75 -88 -92
-131 -160 -177 -281 -58 -153 -44 -281 37 -324 137 -73 401 79 516 297 96 184
97 331 2 381 -43 22 -135 27 -179 10z m122 -46 c48 -14 68 -43 68 -100 0 -205
-223 -470 -417 -497 -51 -7 -100 11 -109 39 -24 76 16 242 85 356 50 82 80
113 147 146 44 22 56 24 87 15 42 -11 57 -6 57 20 0 34 19 38 82 21z"/>
<path d="M27629 13350 c-109 -18 -124 -61 -65 -193 30 -67 79 -106 174 -138
144 -47 258 -125 281 -191 10 -28 8 -33 -24 -64 -46 -43 -162 -80 -279 -90
-91 -7 -106 -14 -81 -34 11 -9 40 -11 103 -7 132 10 245 51 306 111 41 42 45
70 17 131 -35 78 -121 136 -294 201 -49 18 -98 41 -109 51 -25 22 -68 110 -68
140 0 48 126 40 330 -22 126 -39 194 -42 249 -13 53 28 71 52 53 70 -10 10
-20 9 -52 -10 -21 -12 -52 -22 -67 -22 -36 0 -125 20 -233 52 -100 30 -177 38
-241 28z"/>
<path d="M22564 13292 c-148 -109 -277 -348 -277 -517 0 -174 194 -235 408
-128 161 80 255 193 255 305 0 32 -7 47 -34 74 -32 32 -38 34 -99 34 -97 0
-178 -44 -290 -158 -48 -49 -87 -97 -87 -106 0 -33 37 -13 125 65 136 122 208
158 280 138 123 -34 25 -205 -172 -300 -52 -26 -85 -34 -140 -37 -129 -7 -193
36 -193 129 0 150 157 408 285 468 40 19 44 24 35 41 -15 28 -50 25 -96 -8z"/>
<path d="M18140 13281 c-106 -29 -156 -64 -121 -86 6 -3 -3 -31 -19 -63 -65
-132 -90 -270 -73 -396 20 -138 66 -196 157 -196 97 0 183 60 291 205 124 166
181 320 154 417 -14 53 -70 109 -126 126 -57 17 -187 14 -263 -7z m271 -54
c63 -42 73 -94 40 -210 -34 -124 -178 -331 -266 -383 -62 -36 -126 -43 -153
-16 -65 65 -52 333 22 480 31 62 60 84 101 77 16 -3 36 -1 44 4 21 14 5 41
-24 41 -31 0 -33 17 -2 23 12 2 63 5 113 6 80 1 95 -2 125 -22z"/>
<path d="M25094 13279 c-37 -11 -49 -32 -28 -50 12 -9 26 -9 70 1 45 11 82 11
197 2 78 -7 175 -12 215 -12 52 0 72 -4 72 -13 0 -19 -61 -74 -175 -158 -110
-81 -285 -244 -285 -266 0 -7 7 -16 15 -20 11 -3 40 18 88 64 40 38 141 122
225 187 193 149 234 205 178 241 -39 26 -500 45 -572 24z"/>
<path d="M29998 13123 c-76 -11 -111 -150 -67 -263 16 -39 55 -61 127 -71 37
-6 98 -14 135 -19 78 -12 150 -45 207 -97 67 -60 51 -93 -61 -128 -40 -13
-109 -19 -263 -24 -141 -4 -211 -10 -213 -17 -7 -20 29 -27 172 -31 220 -8
363 23 433 93 48 48 44 77 -24 142 -81 78 -156 110 -299 127 -68 8 -126 20
-140 29 -43 28 -58 152 -23 193 24 29 109 10 279 -61 79 -33 204 -66 250 -66
23 0 36 27 22 41 -6 6 -48 19 -94 29 -46 10 -132 39 -191 64 -119 50 -191 67
-250 59z"/>
<path d="M6947 12318 c-50 -13 -103 -67 -116 -116 -8 -26 -35 -64 -91 -121
-102 -106 -144 -187 -145 -279 0 -60 2 -65 36 -97 47 -43 98 -52 180 -30 154
39 299 162 381 322 71 139 74 183 18 247 -55 62 -180 97 -263 74z m113 -54
c68 -20 130 -78 130 -121 0 -70 -118 -258 -206 -327 -184 -143 -350 -119 -315
46 14 61 32 99 84 166 52 68 67 77 104 55 19 -10 39 -14 56 -9 37 9 36 42 -3
64 -36 21 -40 57 -9 96 38 48 75 55 159 30z"/>
<path d="M20650 12268 c-55 -34 -84 -67 -64 -74 6 -3 0 -27 -17 -62 -33 -69
-58 -162 -66 -247 -5 -59 -4 -65 20 -89 30 -30 58 -32 132 -12 166 44 265 176
265 352 0 121 -41 164 -157 164 -49 0 -68 -6 -113 -32z m173 -30 c53 -27 46
-195 -11 -287 -45 -73 -131 -131 -195 -131 -49 0 -60 19 -52 82 14 114 48 212
89 256 20 23 20 24 3 37 -18 13 -17 15 15 32 60 32 103 36 151 11z"/>
<path d="M22995 12286 c-57 -18 -85 -35 -85 -51 0 -24 17 -26 82 -9 138 35
218 -4 218 -107 0 -113 -97 -324 -196 -426 -53 -54 -67 -63 -98 -63 -44 0 -62
24 -71 95 -9 66 12 282 30 319 23 44 19 58 -12 54 -21 -2 -33 -13 -47 -43 -17
-35 -20 -62 -20 -215 -1 -149 2 -180 17 -207 21 -38 45 -53 87 -53 145 0 360
324 364 550 1 63 -3 80 -21 106 -42 58 -152 80 -248 50z"/>
<path d="M15619 12278 c0 -2 -2 -61 -5 -133 -2 -71 -11 -184 -19 -250 -31
-237 -35 -271 -37 -357 -2 -61 1 -91 10 -100 23 -23 39 15 46 114 6 84 43 334
51 348 1 3 10 77 20 164 16 155 16 159 -3 185 -15 21 -60 42 -63 29z"/>
<path d="M20320 12265 c-41 -24 -63 -32 -115 -44 -96 -23 -156 -84 -196 -197
-41 -117 -35 -178 23 -215 51 -32 159 -18 254 34 50 26 120 103 149 162 32 65
44 160 25 205 -26 62 -86 86 -140 55z m67 -61 c24 -24 25 -31 20 -89 -3 -44
-13 -78 -30 -108 -34 -58 -127 -142 -173 -157 -45 -15 -121 -8 -142 14 -39 38
1 184 71 262 39 43 47 47 97 51 83 6 97 11 103 33 7 27 23 25 54 -6z"/>
<path d="M19631 12254 c-29 -8 -64 -22 -77 -31 -20 -13 -29 -13 -54 -3 -72 30
-170 -11 -237 -98 -57 -75 -53 -150 12 -234 55 -73 107 -93 240 -93 105 0 114
2 177 33 116 57 178 154 181 284 1 96 -44 145 -141 153 -26 2 -71 -2 -101 -11z
m126 -54 c52 -19 67 -89 39 -184 -33 -110 -84 -151 -213 -169 -138 -19 -239
27 -285 131 -24 54 -14 93 40 144 71 68 97 71 176 18 24 -17 54 -30 65 -30 27
0 38 26 23 51 -11 16 -7 20 36 33 58 18 80 19 119 6z"/>
<path d="M8078 12200 c-15 -9 -16 -27 -11 -168 3 -88 0 -243 -6 -351 -13 -201
-9 -235 23 -186 22 33 31 122 47 432 11 207 10 254 0 267 -15 18 -29 20 -53 6z"/>
<path d="M21622 12188 c-19 -19 -15 -31 23 -63 31 -26 37 -39 47 -99 11 -69 9
-123 -21 -561 -4 -60 -5 -121 -1 -135 8 -30 40 -40 40 -13 0 20 25 288 40 433
13 126 13 277 -1 339 -16 77 -91 135 -127 99z"/>
<path d="M17352 12175 c-70 -20 -105 -39 -146 -80 -72 -72 -116 -178 -116
-283 0 -182 158 -259 357 -172 52 23 127 92 158 144 66 115 28 193 -140 288
-52 29 -95 57 -95 62 0 5 29 6 68 1 37 -4 90 -9 117 -9 43 -1 50 2 50 19 0 22
-28 30 -135 39 -42 4 -83 0 -118 -9z m-46 -84 c5 -5 54 -32 109 -59 105 -53
137 -78 155 -126 25 -67 -49 -183 -150 -234 -52 -25 -160 -23 -197 4 -50 38
-68 81 -68 164 1 88 30 162 87 223 37 38 47 43 64 28z"/>
<path d="M13131 12153 c-18 -16 -22 -35 -30 -158 -6 -77 -18 -238 -26 -359
-16 -212 -14 -249 13 -232 6 3 15 39 21 79 24 161 34 206 62 297 16 53 33 141
39 195 6 55 13 114 16 131 5 28 2 33 -27 48 -40 20 -42 20 -68 -1z"/>
<path d="M9210 12136 c-26 -32 -33 -165 -23 -410 11 -247 17 -277 51 -243 15
16 18 51 24 315 3 163 8 308 10 322 2 21 -2 26 -23 28 -14 2 -31 -4 -39 -12z"/>
<path d="M14554 12122 c-52 -29 -72 -47 -85 -75 -7 -15 -35 -40 -65 -57 -78
-43 -161 -130 -174 -182 -23 -84 11 -169 80 -198 50 -21 155 -9 230 26 87 41
183 131 222 208 41 80 49 176 20 222 -41 64 -160 94 -228 56z m143 -56 c26
-22 28 -30 28 -93 0 -80 -17 -120 -77 -183 -56 -58 -120 -97 -200 -121 -80
-25 -102 -17 -119 41 -9 31 -9 49 0 79 15 51 98 142 150 166 39 17 43 17 74 1
37 -21 90 -18 95 4 2 10 -17 25 -55 44 l-58 28 35 29 c43 37 88 38 127 5z"/>
<path d="M22214 12128 c-4 -7 -9 -62 -10 -123 -1 -60 -7 -182 -12 -270 -12
-186 -6 -240 23 -240 18 0 20 6 17 50 -2 45 6 136 39 418 12 104 8 136 -17
161 -19 19 -30 20 -40 4z"/>
<path d="M15060 12102 c-22 -23 -29 -40 -34 -93 -4 -35 -12 -107 -18 -159 -7
-52 -12 -169 -12 -260 l-1 -165 42 -3 c73 -5 107 30 61 62 -20 14 -21 20 -14
108 8 113 48 429 62 483 5 22 -6 37 -39 48 -13 5 -27 -2 -47 -21z"/>
<path d="M7423 12090 c-37 -22 -47 -39 -79 -133 -29 -86 -41 -206 -25 -264 28
-104 135 -111 255 -17 79 62 175 211 191 295 9 48 -15 103 -54 123 -41 22
-114 20 -160 -4 -44 -22 -83 -81 -79 -119 5 -39 33 -39 47 1 20 56 59 88 106
88 86 0 100 -64 40 -179 -45 -85 -104 -154 -164 -193 -85 -54 -122 -30 -123
79 -1 130 39 255 94 294 23 17 26 24 17 35 -15 19 -28 18 -66 -6z"/>
<path d="M24542 12093 c-5 -10 -8 -167 -8 -350 1 -305 2 -334 19 -350 15 -16
19 -16 27 -3 5 8 7 24 3 35 -11 35 -1 500 13 613 6 45 -7 72 -32 72 -7 0 -17
-8 -22 -17z"/>
<path d="M10421 12086 c-9 -11 -9 -29 -1 -78 8 -43 10 -135 5 -293 -6 -198 -5
-233 8 -250 31 -41 35 -24 77 390 16 150 13 179 -16 214 -28 33 -55 39 -73 17z"/>
<path d="M17926 12081 c-34 -23 -70 -76 -61 -91 12 -19 32 -10 59 25 50 65 86
39 86 -64 0 -81 -31 -162 -84 -217 -43 -44 -59 -51 -85 -35 -12 8 -8 26 25
108 34 85 43 100 72 112 17 8 32 21 32 28 0 31 -94 1 -118 -38 -22 -35 -82
-196 -82 -220 0 -30 28 -48 73 -49 74 0 146 63 199 175 28 60 32 81 33 147 0
62 -4 82 -21 105 -27 36 -85 43 -128 14z"/>
<path d="M12040 12072 l-23 -19 2 -382 c1 -211 5 -389 8 -397 3 -8 13 -14 23
-14 15 0 18 15 24 116 3 64 15 189 26 278 20 157 31 389 20 405 -5 8 -45 31
-53 31 -3 0 -15 -8 -27 -18z"/>
<path d="M12622 12044 c-52 -42 -78 -98 -91 -200 -14 -111 -14 -344 -1 -378
14 -37 38 -33 44 7 2 17 10 70 17 117 6 47 18 103 26 124 7 21 17 77 23 124
10 91 23 119 70 154 17 12 30 25 30 30 0 10 -60 48 -75 48 -5 0 -25 -12 -43
-26z"/>
<path d="M25785 12040 c-4 -6 -3 -46 1 -89 7 -85 -5 -239 -38 -479 -11 -84
-18 -155 -15 -159 4 -3 13 0 21 6 45 38 110 647 76 712 -11 20 -35 25 -45 9z"/>
<path d="M27221 12040 c-16 -10 -57 -203 -71 -334 -11 -109 -13 -320 -3 -379
6 -41 29 -59 43 -36 5 7 7 16 4 20 -2 4 -4 74 -5 156 0 159 20 341 51 465 11
42 20 83 20 91 0 18 -22 28 -39 17z"/>
<path d="M28346 12028 c-3 -13 -7 -63 -10 -113 -8 -115 -53 -367 -93 -508 -12
-44 -13 -61 -4 -70 26 -26 50 36 95 243 44 199 58 292 60 380 1 81 0 85 -21
88 -17 2 -24 -3 -27 -20z"/>
<path d="M9681 12013 c-33 -28 -69 -243 -53 -319 15 -73 47 -123 90 -141 123
-51 327 144 340 326 5 66 -17 102 -76 127 -47 19 -114 6 -199 -40 -64 -34 -77
-30 -46 13 15 23 15 25 -2 37 -24 18 -28 18 -54 -3z m291 -70 c47 -43 -2 -193
-92 -277 -47 -44 -108 -70 -136 -59 -25 10 -47 65 -52 135 -6 86 2 116 35 129
14 5 39 19 55 31 81 57 155 73 190 41z"/>
<path d="M18401 12009 c-90 -20 -113 -32 -104 -55 3 -8 -2 -23 -11 -32 -29
-33 -48 -106 -53 -207 -7 -129 7 -168 65 -186 93 -27 216 48 280 172 28 54 32
71 31 138 0 90 -15 138 -49 162 -39 27 -68 28 -159 8z m126 -66 c13 -20 18
-47 18 -107 0 -68 -4 -89 -27 -131 -40 -76 -97 -126 -150 -132 -64 -7 -78 10
-78 96 0 128 26 221 66 240 15 6 24 18 22 28 -4 20 27 31 89 32 36 1 45 -3 60
-26z"/>
<path d="M25129 12014 c-26 -31 -38 -577 -14 -636 4 -10 15 -18 24 -18 14 0
16 23 17 223 0 135 5 253 14 302 20 120 19 139 -6 143 -11 2 -27 -5 -35 -14z"/>
<path d="M27890 11929 c-33 -13 -65 -44 -102 -97 -16 -23 -44 -49 -63 -56 -43
-18 -66 -54 -82 -130 -15 -74 -17 -207 -3 -258 40 -142 247 -74 357 117 96
166 106 329 26 409 -28 28 -84 34 -133 15z m103 -81 c47 -63 28 -208 -44 -328
-89 -151 -207 -207 -252 -120 -16 29 -18 51 -13 132 7 136 20 175 67 199 21
10 44 29 50 42 18 34 59 81 83 94 35 21 86 12 109 -19z"/>
<path d="M30833 11875 c-3 -10 -1 -39 6 -67 8 -36 8 -95 1 -216 -30 -508 -30
-632 -1 -632 14 0 19 43 25 195 5 112 13 257 30 567 5 81 -13 162 -37 166 -9
2 -20 -4 -24 -13z"/>
<path d="M29366 11788 c-3 -13 -9 -102 -12 -198 -5 -149 -3 -197 15 -320 24
-162 48 -250 68 -250 18 0 17 18 -9 140 -19 92 -22 133 -21 330 1 124 3 245 5
270 3 39 0 45 -18 48 -15 2 -23 -4 -28 -20z"/>
<path d="M30260 11753 c-56 -28 -140 -106 -140 -130 0 -32 32 -24 69 15 94
103 231 109 271 12 41 -100 -52 -314 -198 -453 -66 -62 -112 -87 -164 -87 -80
0 -109 66 -109 252 0 84 5 140 16 176 15 50 25 63 69 95 23 17 15 47 -11 47
-35 0 -74 -44 -95 -105 -42 -124 -32 -397 18 -472 54 -83 191 -55 309 63 80
79 171 223 204 321 71 212 -58 356 -239 266z"/>
<path d="M7736 11235 c-32 -17 -55 -43 -56 -63 0 -21 29 -26 49 -7 16 14 34
16 113 12 88 -5 351 -13 1148 -37 195 -6 400 -15 455 -20 366 -36 475 -44 595
-41 91 2 169 -3 240 -14 58 -10 143 -18 190 -19 85 -1 85 -1 88 25 3 26 2 26
-77 33 -44 4 -121 14 -173 21 -51 8 -163 15 -248 15 -85 1 -225 7 -310 16
-306 29 -685 53 -815 50 -102 -2 -891 26 -978 34 -135 14 -187 12 -221 -5z"/>
<path d="M17977 11200 c-15 -5 -67 -9 -115 -10 -163 -3 -537 -30 -637 -46 -55
-9 -136 -22 -180 -29 -44 -7 -118 -20 -165 -28 -80 -15 -148 -23 -435 -48
-112 -10 -269 -8 -560 7 -68 4 -178 2 -255 -5 -376 -32 -530 -41 -609 -36 -61
4 -93 2 -110 -7 -31 -17 -46 -41 -37 -63 6 -16 8 -16 30 -2 18 12 40 14 97 10
68 -5 358 12 651 38 87 7 160 7 280 -3 183 -14 432 -13 553 2 44 6 132 15 195
20 63 5 225 30 360 55 135 25 277 45 315 45 39 0 102 5 140 10 39 6 162 14
275 20 210 9 263 19 280 50 16 30 -13 38 -73 20z"/>
<path d="M22245 11191 c-203 -4 -375 -9 -382 -14 -6 -4 -87 -13 -180 -21 -200
-16 -253 -32 -253 -77 0 -24 4 -29 24 -29 14 0 28 5 31 11 13 20 56 29 193 39
75 6 164 15 197 20 33 6 253 12 490 14 425 3 431 3 535 -21 334 -76 421 -88
770 -108 151 -8 307 -17 345 -19 102 -7 332 -33 390 -45 28 -5 88 -13 134 -16
47 -4 114 -12 150 -19 74 -14 101 -11 101 10 0 34 -66 50 -300 74 -52 5 -124
14 -160 19 -142 22 -263 33 -435 41 -512 23 -614 35 -935 107 -184 41 -191 42
-270 41 -41 -1 -241 -4 -445 -7z"/>
<path d="M19677 10913 c-24 -23 12 -55 38 -33 12 10 13 16 4 26 -12 15 -31 18
-42 7z"/>
<path d="M28150 10855 c-22 -26 -5 -38 90 -61 247 -60 506 -92 830 -100 102
-3 223 -10 270 -16 160 -21 1089 -50 1167 -38 32 6 87 10 123 10 36 0 103 7
150 15 47 8 113 15 148 15 63 0 63 0 60 28 -3 27 -4 27 -73 27 -38 -1 -117 -7
-175 -14 -122 -16 -670 -23 -825 -10 -55 5 -180 11 -278 14 -98 3 -200 10
-225 15 -26 4 -137 11 -247 15 -351 11 -630 39 -826 85 -143 34 -171 36 -189
15z"/>
<path d="M5353 10726 c-81 -30 -233 -121 -325 -195 -220 -174 -326 -362 -316
-560 3 -66 7 -83 36 -129 39 -60 110 -115 185 -145 81 -31 247 -35 362 -8 106
25 252 94 385 181 257 169 372 320 372 489 0 73 -21 118 -78 171 -67 62 -122
82 -236 88 l-97 4 -33 43 c-69 90 -135 106 -255 61z m187 -62 c22 -20 40 -42
40 -48 0 -7 -16 -20 -35 -29 -28 -13 -35 -22 -35 -45 0 -51 46 -73 52 -24 4
38 48 43 72 8 9 -15 25 -26 37 -26 23 0 36 27 20 43 -23 23 -10 30 52 25 123
-10 237 -89 253 -174 9 -48 -8 -130 -38 -192 -69 -141 -364 -348 -623 -438
-71 -25 -94 -28 -205 -28 -106 0 -134 4 -183 23 -79 31 -137 78 -165 131 -21
39 -23 55 -19 125 9 144 64 254 191 381 125 124 288 232 424 280 92 33 114 31
162 -12z"/>
<path d="M20455 10577 c-79 -23 -218 -80 -242 -99 -18 -14 -16 -38 2 -38 8 0
61 18 117 39 57 21 140 47 185 57 78 16 84 16 128 0 69 -27 93 -69 104 -187
18 -196 -7 -389 -69 -525 -80 -176 -236 -357 -362 -418 -169 -82 -405 -119
-531 -82 -197 57 -254 345 -133 667 57 150 144 259 255 317 106 56 282 73 357
35 23 -13 46 -18 53 -14 24 15 6 46 -39 69 -41 22 -53 23 -145 18 -156 -9
-251 -43 -345 -123 -51 -44 -140 -180 -172 -263 -53 -135 -63 -194 -63 -370 0
-164 0 -165 31 -230 38 -80 82 -125 153 -157 100 -45 245 -40 430 13 192 55
297 128 421 294 148 197 210 384 210 634 0 217 -24 309 -92 358 -47 33 -147
35 -253 5z"/>
<path d="M13460 10401 c-90 -29 -269 -128 -354 -195 -122 -98 -259 -356 -241
-456 23 -123 163 -235 355 -285 226 -59 534 -72 518 -22 -3 8 -47 14 -144 18
-268 13 -469 68 -586 161 -44 34 -98 121 -98 157 0 88 95 268 192 363 46 45
161 120 263 171 152 76 316 76 356 0 12 -21 10 -30 -10 -69 -50 -94 -246 -255
-394 -324 -67 -31 -170 -61 -190 -55 -7 2 -24 6 -39 9 -15 4 -39 18 -54 31
-31 29 -59 29 -59 1 0 -12 18 -31 50 -50 44 -28 58 -31 125 -31 67 0 84 5 165
43 202 96 359 225 436 357 34 60 36 77 9 121 -42 67 -183 93 -300 55z"/>
<path d="M9137 10383 c-17 -16 -6 -324 22 -628 4 -49 6 -93 4 -97 -1 -3 -22 4
-46 15 -68 35 -154 30 -245 -12 -87 -41 -90 -47 -73 -180 26 -211 41 -250 107
-277 19 -8 47 -14 63 -14 35 0 148 34 216 65 28 13 84 38 125 57 82 38 104 56
90 77 -6 11 -34 3 -137 -39 -247 -103 -319 -119 -360 -80 -12 10 -24 32 -27
47 -15 71 -36 249 -31 264 7 22 93 59 153 65 39 5 56 1 104 -25 122 -66 135
-37 103 229 -9 69 -18 214 -20 323 -2 109 -7 202 -10 207 -7 11 -29 13 -38 3z"/>
<path d="M16468 10226 c-74 -26 -189 -107 -233 -164 -51 -64 -116 -192 -139
-271 -34 -118 -10 -231 69 -318 55 -63 130 -100 239 -120 80 -14 95 -14 190 0
57 9 134 29 172 44 153 62 277 144 260 172 -12 18 -34 12 -89 -24 -146 -97
-343 -147 -499 -127 -105 13 -161 36 -224 94 -107 98 -111 206 -12 401 21 43
58 99 81 124 102 111 258 173 362 144 55 -15 83 9 49 43 -20 20 -172 21 -226
2z"/>
<path d="M6117 10203 c-18 -17 1 -44 105 -150 69 -69 108 -117 102 -122 -5 -5
-42 -31 -82 -58 -104 -71 -219 -179 -316 -296 -123 -151 -166 -227 -126 -227
5 0 40 42 78 93 111 147 318 337 465 426 l38 23 77 -74 c87 -84 224 -198 295
-247 47 -32 77 -37 84 -14 5 13 5 13 -117 108 -111 86 -278 237 -279 252 -1 6
35 25 78 41 192 74 252 83 378 60 49 -9 66 -9 76 1 35 35 -51 73 -173 75 -94
1 -182 -23 -334 -92 l-78 -36 -117 122 c-106 112 -136 134 -154 115z"/>
<path d="M23411 10008 c-6 -18 -18 -89 -27 -158 -13 -105 -15 -178 -10 -448
l7 -324 -30 18 c-16 9 -46 32 -65 50 l-37 33 51 73 c49 72 65 117 44 125 -6 2
-33 -33 -59 -77 -27 -44 -54 -80 -59 -80 -6 0 -30 25 -53 55 -55 71 -109 99
-188 99 -39 0 -73 -6 -95 -18 -42 -22 -130 -105 -130 -123 0 -37 126 -102 241
-123 58 -11 100 -5 166 21 30 12 33 11 87 -38 30 -28 76 -61 101 -73 43 -21
47 -21 70 -6 23 15 24 20 17 79 -4 34 -7 215 -7 402 0 287 3 352 18 419 24
108 23 126 -7 126 -19 0 -27 -8 -35 -32z m-362 -706 c47 -23 115 -106 107
-128 -5 -14 -18 -16 -84 -12 -82 6 -172 35 -217 70 -25 20 -26 21 -8 41 42 47
140 61 202 29z"/>
<path d="M29935 10003 c-28 -28 -16 -248 24 -433 44 -202 49 -230 42 -230 -3
0 -32 29 -63 64 -32 35 -77 73 -101 85 -58 28 -129 28 -169 -1 -97 -69 -106
-303 -16 -412 74 -90 201 -100 302 -22 53 40 103 156 66 156 -4 0 -22 -22 -40
-49 -88 -128 -230 -137 -304 -18 -49 80 -46 238 6 295 44 46 151 15 211 -61
89 -113 152 -160 172 -127 3 5 -10 92 -29 192 -60 307 -69 375 -62 469 4 67 2
89 -8 98 -11 9 -18 8 -31 -6z"/>
<path d="M26580 9625 c-95 -20 -185 -54 -235 -88 -27 -18 -59 -39 -72 -48 -47
-32 -113 -190 -113 -270 0 -96 93 -235 189 -283 76 -38 110 -45 258 -50 150
-5 179 2 171 40 -3 18 -15 19 -163 25 -183 6 -217 17 -306 97 -67 60 -93 111
-93 187 -1 65 27 155 48 155 7 0 33 -15 57 -33 69 -53 137 -77 217 -77 61 0
79 5 158 44 98 47 158 103 196 181 l22 45 -24 25 c-54 58 -181 79 -310 50z
m192 -61 c25 -8 54 -24 63 -34 16 -18 15 -21 -25 -64 -27 -29 -73 -61 -124
-87 -75 -38 -86 -40 -151 -37 -51 2 -85 11 -127 31 -59 29 -74 47 -39 47 34 0
36 22 5 46 l-28 23 54 25 c60 27 221 64 286 65 22 1 61 -6 86 -15z"/>
<path d="M12010 8604 c-14 -2 -306 -8 -650 -14 -608 -9 -705 -14 -1095 -55
-290 -31 -979 -67 -1130 -60 -342 17 -375 17 -375 8 0 -13 41 -21 172 -33 277
-25 911 1 1478 60 201 21 379 29 760 35 217 3 523 10 680 16 399 13 678 11
865 -5 88 -8 248 -20 355 -26 389 -23 871 -60 977 -76 138 -20 270 -46 425
-83 242 -59 334 -79 428 -96 354 -62 508 -87 680 -110 107 -14 269 -36 360
-50 215 -31 387 -40 520 -25 58 6 249 15 425 20 347 9 332 7 595 84 174 51
274 59 530 40 280 -20 1075 -11 1755 22 322 15 1152 31 2080 39 297 3 716 10
930 15 215 6 545 11 735 11 350 2 531 8 1015 33 258 14 775 14 960 1 318 -23
535 -36 760 -45 143 -6 395 -19 560 -30 313 -20 590 -35 835 -45 134 -6 530
-29 680 -40 477 -36 828 -46 1370 -39 519 7 620 1 1060 -66 288 -44 322 -47
545 -60 88 -5 193 -17 233 -26 53 -13 75 -15 83 -7 18 18 2 31 -69 53 -50 16
-124 24 -297 35 -126 8 -275 22 -330 30 -596 94 -655 98 -1305 89 -547 -7
-758 -1 -1295 36 -299 20 -579 36 -790 45 -284 12 -622 30 -740 40 -33 3 -262
14 -510 25 -247 11 -466 22 -485 25 -51 7 -382 23 -630 31 -205 6 -302 3
-1070 -31 -184 -8 -555 -17 -825 -20 -269 -3 -634 -7 -810 -10 -176 -3 -489
-7 -695 -10 -769 -10 -1600 -24 -1740 -30 -80 -3 -278 -12 -440 -20 -368 -18
-1549 -31 -1535 -18 6 5 40 18 77 27 72 19 94 36 84 62 -8 20 -30 16 -136 -21
-59 -20 -107 -28 -220 -35 -195 -12 -266 -24 -390 -61 -266 -79 -367 -95 -551
-85 -84 4 -192 1 -325 -10 -256 -21 -462 -15 -694 20 -96 15 -258 38 -360 52
-340 45 -676 107 -980 180 -440 106 -581 122 -1470 174 -102 6 -223 16 -270
21 -85 10 -753 21 -800 13z"/>
<path d="M15096 8393 c-3 -4 -6 -12 -6 -20 0 -10 30 -13 138 -13 76 0 192 -7
257 -15 299 -38 463 -55 635 -65 178 -11 330 -7 330 9 0 5 -69 11 -152 15
-195 8 -492 32 -633 51 -225 30 -555 51 -569 38z"/>
<path d="M18950 3787 c-63 -19 -273 -167 -259 -182 6 -5 102 50 204 118 40 27
104 78 95 76 -3 -1 -21 -6 -40 -12z"/>
<path d="M21622 2818 c-21 -21 -14 -48 13 -48 25 0 46 26 38 48 -6 15 -35 16
-51 0z"/>
<path d="M15940 1994 c0 -287 1 -305 17 -302 13 3 17 12 16 33 -12 138 -2 444
15 488 13 33 13 40 -2 62 -9 14 -23 25 -31 25 -11 0 -14 -49 -15 -306z"/>
<path d="M16267 1883 c-3 -5 -1 -17 3 -28 7 -19 7 -19 18 1 11 21 7 34 -9 34
-4 0 -10 -3 -12 -7z"/>
<path d="M16210 1680 c0 -19 3 -21 12 -12 9 9 9 15 0 24 -9 9 -12 7 -12 -12z"/>
<path d="M21506 1541 c-9 -14 4 -41 20 -41 8 0 14 6 14 14 0 18 -26 40 -34 27z"/>
<path d="M20464 1456 c-7 -29 1 -46 22 -46 11 0 14 9 12 32 -4 39 -25 48 -34
14z"/>
<path d="M16164 539 c-10 -16 17 -30 46 -23 31 7 34 10 25 23 -8 14 -62 14
-71 0z"/>
<path d="M16275 530 c3 -5 15 -10 25 -10 10 0 22 5 25 10 4 6 -7 10 -25 10
-18 0 -29 -4 -25 -10z"/>
<path d="M15983 505 c4 -9 -6 -23 -26 -37 l-32 -23 45 -6 c58 -8 67 -4 67 31
0 22 -5 30 -19 30 -10 0 -18 5 -18 10 0 6 -5 10 -11 10 -6 0 -9 -7 -6 -15z"/>
<path d="M12895 460 c-3 -5 3 -10 14 -10 12 0 21 5 21 10 0 6 -6 10 -14 10 -8
0 -18 -4 -21 -10z"/>
<path d="M12956 461 c-7 -10 157 -20 219 -13 25 2 42 8 39 13 -7 12 -251 12
-258 0z"/>
<path d="M13240 460 c-10 -7 5 -10 53 -10 43 0 66 4 62 10 -8 13 -95 13 -115
0z"/>
<path d="M13435 459 c-16 -6 -14 -8 13 -8 33 -1 41 4 20 12 -7 2 -22 1 -33 -4z"/>
<path d="M13525 460 l-40 -5 51 -7 c43 -6 133 6 99 12 -26 5 -74 5 -110 0z"/>
<path d="M14085 461 c-15 -6 -12 -9 19 -14 42 -7 60 -2 51 14 -7 11 -42 11
-70 0z"/>
<path d="M11428 453 c7 -3 16 -2 19 1 4 3 -2 6 -13 5 -11 0 -14 -3 -6 -6z"/>
<path d="M12848 453 c6 -2 18 -2 25 0 6 3 1 5 -13 5 -14 0 -19 -2 -12 -5z"/>
<path d="M17820 438 c0 -4 23 -8 50 -8 28 0 50 4 50 9 0 6 -22 9 -50 9 -27 -1
-50 -5 -50 -10z"/>
<path d="M2690 433 c-13 -3 -30 -12 -37 -21 -12 -16 -14 -16 -24 1 -7 11 -23
17 -49 17 -34 0 -40 -3 -40 -21 0 -18 5 -20 45 -18 24 2 47 0 51 -4 12 -12 24
-8 24 8 0 12 4 14 17 6 10 -5 26 -5 39 -1 33 13 84 9 84 -6 0 -19 44 -28 69
-14 16 8 32 8 63 -1 29 -7 43 -8 46 -1 2 6 18 8 37 5 21 -3 50 1 74 11 58 23
114 22 160 -3 17 -9 26 -10 34 -2 6 6 25 11 41 11 27 0 29 2 15 15 -9 9 -24
16 -35 16 -10 -1 -28 -1 -39 0 -171 4 -303 4 -403 -1 -68 -3 -126 -2 -129 3
-2 4 -7 6 -11 6 -4 -1 -18 -4 -32 -6z"/>
<path d="M4912 433 c-96 -2 -151 -7 -147 -13 3 -6 24 -10 45 -10 21 0 40 -5
42 -12 3 -7 11 -9 24 -4 30 12 166 19 173 8 10 -15 45 -22 61 -12 12 7 12 13
4 27 -13 21 -2 20 -202 16z"/>
<path d="M1013 423 c-18 -6 -16 -33 1 -33 21 0 46 11 46 20 0 10 -31 18 -47
13z"/>
<path d="M1087 412 c-7 -10 -6 -17 6 -29 14 -14 19 -14 52 5 28 17 39 19 54
10 19 -12 51 -5 51 11 0 15 -150 18 -163 3z"/>
<path d="M1288 423 c-11 -3 -18 -14 -18 -30 0 -19 4 -24 16 -19 9 3 22 6 30 6
17 0 18 11 2 31 -7 9 -21 14 -30 12z"/>
<path d="M1357 423 c-9 -9 -9 -43 1 -43 11 0 32 37 25 44 -8 8 -18 8 -26 -1z"/>
<path d="M1410 405 c-13 -14 -22 -27 -19 -29 7 -7 59 6 54 14 -3 4 5 10 18 14
18 5 20 8 7 16 -23 15 -35 12 -60 -15z"/>
<path d="M1500 420 c-12 -8 -12 -10 2 -15 20 -8 41 2 33 16 -8 11 -16 11 -35
-1z"/>
<path d="M1640 423 c1 -11 26 -43 34 -43 15 0 4 30 -14 40 -11 6 -20 7 -20 3z"/>
<path d="M1709 425 c-1 -3 -2 -8 -3 -12 -1 -5 -5 -14 -9 -20 -5 -9 -3 -13 7
-13 9 0 16 7 16 15 0 8 5 15 11 15 5 0 7 5 4 10 -6 10 -24 14 -26 5z"/>
<path d="M1785 420 c-18 -7 -18 -8 7 -15 29 -7 52 1 43 16 -7 11 -23 11 -50
-1z"/>
<path d="M1866 421 c-7 -10 17 -21 42 -21 15 1 14 3 -2 15 -23 17 -33 19 -40
6z"/>
<path d="M2125 420 c-8 -12 20 -24 35 -15 5 3 10 10 10 16 0 12 -37 12 -45 -1z"/>
<path d="M2365 420 c3 -5 8 -10 11 -10 2 0 4 5 4 10 0 6 -5 10 -11 10 -5 0 -7
-4 -4 -10z"/>
<path d="M2417 424 c-12 -13 4 -24 34 -24 20 0 29 4 27 13 -5 13 -50 22 -61
11z"/>
<path d="M2490 420 c0 -5 5 -10 10 -10 6 0 10 5 10 10 0 6 -4 10 -10 10 -5 0
-10 -4 -10 -10z"/>
<path d="M3389 416 c16 -19 55 -22 49 -3 -3 6 -17 14 -33 15 -25 3 -27 2 -16
-12z"/>
<path d="M3460 414 c0 -8 5 -12 10 -9 6 3 10 10 10 16 0 5 -4 9 -10 9 -5 0
-10 -7 -10 -16z"/>
<path d="M3510 420 c0 -11 50 -19 56 -9 3 5 16 6 29 3 12 -3 26 -1 30 5 4 8
-13 11 -54 10 -34 -1 -61 -5 -61 -9z"/>
<path d="M3675 420 c-3 -5 1 -10 9 -10 9 0 16 5 16 10 0 6 -4 10 -9 10 -6 0
-13 -4 -16 -10z"/>
<path d="M4045 420 c3 -5 10 -10 16 -10 5 0 9 5 9 10 0 6 -7 10 -16 10 -8 0
-12 -4 -9 -10z"/>
<path d="M4695 420 c-3 -5 3 -10 14 -10 11 0 23 5 26 10 3 6 -3 10 -14 10 -11
0 -23 -4 -26 -10z"/>
<path d="M5136 421 c-3 -5 7 -11 22 -14 32 -6 42 0 22 13 -19 12 -37 13 -44 1z"/>
<path d="M5228 419 c-26 -14 -22 -29 7 -29 14 0 25 5 25 12 0 6 8 3 20 -7 17
-16 20 -16 26 -2 3 9 3 21 -1 27 -8 13 -55 13 -77 -1z"/>
<path d="M5326 422 c-10 -17 42 -36 66 -25 19 8 129 10 148 3 3 -1 10 -1 15 0
29 7 86 6 91 -1 10 -16 36 -10 32 8 -3 14 -24 17 -175 20 -94 2 -174 0 -177
-5z"/>
<path d="M5792 421 c-9 -5 3 -10 34 -15 50 -6 68 -1 44 14 -19 12 -61 12 -78
1z"/>
<path d="M2 400 c0 -14 2 -19 5 -12 2 6 2 18 0 25 -3 6 -5 1 -5 -13z"/>
<path d="M225 410 c4 -6 11 -8 16 -5 14 9 11 15 -7 15 -8 0 -12 -5 -9 -10z"/>
<path d="M616 411 c-14 -5 -16 -10 -7 -15 15 -9 41 -1 41 14 0 11 -7 12 -34 1z"/>
<path d="M808 413 c-26 -7 -22 -18 7 -19 15 -1 25 3 25 12 0 14 -3 15 -32 7z"/>
<path d="M869 404 c-12 -14 -11 -16 5 -13 11 2 21 10 24 17 5 17 -13 15 -29
-4z"/>
<path d="M927 414 c-13 -13 14 -44 38 -44 33 0 32 24 0 38 -30 14 -30 14 -38
6z"/>
<path d="M1571 398 c1 -16 3 -18 6 -7 3 11 11 15 24 12 10 -3 19 0 19 6 0 6
-11 11 -25 11 -20 0 -25 -5 -24 -22z"/>
<path d="M3840 410 c0 -5 5 -10 10 -10 6 0 10 5 10 10 0 6 -4 10 -10 10 -5 0
-10 -4 -10 -10z"/>
<path d="M5735 410 c-3 -5 -1 -10 4 -10 6 0 11 5 11 10 0 6 -2 10 -4 10 -3 0
-8 -4 -11 -10z"/>
<path d="M5945 410 c3 -5 10 -10 16 -10 5 0 9 5 9 10 0 6 -7 10 -16 10 -8 0
-12 -4 -9 -10z"/>
<path d="M5990 400 c0 -11 7 -20 15 -20 8 0 15 5 15 10 0 6 9 10 19 10 11 0
23 5 26 10 4 6 -10 10 -34 10 -34 0 -41 -3 -41 -20z"/>
<path d="M6100 410 c0 -7 16 -9 41 -6 58 6 61 16 6 16 -26 0 -47 -5 -47 -10z"/>
<path d="M6250 410 c0 -5 13 -10 29 -10 17 0 33 5 36 10 4 6 -8 10 -29 10 -20
0 -36 -4 -36 -10z"/>
<path d="M6345 410 c-3 -6 5 -10 19 -10 14 0 28 5 31 10 3 6 -5 10 -19 10 -14
0 -28 -4 -31 -10z"/>
<path d="M6465 410 c-14 -6 -5 -9 33 -8 28 1 52 5 52 10 0 10 -59 9 -85 -2z"/>
<path d="M6605 410 c-3 -5 1 -10 10 -10 9 0 13 5 10 10 -3 6 -8 10 -10 10 -2
0 -7 -4 -10 -10z"/>
<path d="M6852 411 c-10 -6 -8 -10 9 -14 24 -7 39 -1 39 14 0 11 -30 12 -48 0z"/>
<path d="M6953 403 c9 -2 23 -2 30 0 6 3 -1 5 -18 5 -16 0 -22 -2 -12 -5z"/>
<path d="M7595 400 c-3 -5 1 -10 10 -10 9 0 13 5 10 10 -3 6 -8 10 -10 10 -2
0 -7 -4 -10 -10z"/>
<path d="M7815 400 c-4 -6 9 -10 32 -9 30 0 34 2 18 9 -27 12 -43 12 -50 0z"/>
<path d="M8055 400 c-3 -5 1 -10 10 -10 9 0 13 5 10 10 -3 6 -8 10 -10 10 -2
0 -7 -4 -10 -10z"/>
<path d="M7930 390 c0 -5 4 -10 9 -10 6 0 13 5 16 10 3 6 -1 10 -9 10 -9 0
-16 -4 -16 -10z"/>
<path d="M11184 379 c-3 -5 19 -9 48 -9 35 0 48 3 39 9 -18 12 -79 12 -87 0z"/>
<path d="M11322 381 c-10 -6 -8 -10 9 -14 26 -7 34 -3 24 12 -7 13 -15 14 -33
2z"/>
<path d="M11385 380 c-3 -5 1 -10 9 -10 9 0 16 5 16 10 0 6 -4 10 -9 10 -6 0
-13 -4 -16 -10z"/>
<path d="M11455 380 c-3 -5 1 -10 10 -10 9 0 13 5 10 10 -3 6 -8 10 -10 10 -2
0 -7 -4 -10 -10z"/>
<path d="M13197 378 c-19 -11 -6 -16 60 -21 45 -3 66 -1 74 9 13 16 13 16 -64
18 -32 1 -63 -2 -70 -6z"/>
<path d="M13479 380 c-11 -7 -10 -10 4 -16 10 -4 23 -2 28 3 14 14 -13 24 -32
13z"/>
<path d="M14075 381 c-37 -8 -22 -19 37 -27 42 -5 80 8 65 22 -10 10 -65 13
-102 5z"/>
<path d="M14548 384 c-3 -2 -78 -5 -167 -5 -88 1 -161 -2 -161 -4 0 -12 75
-80 85 -77 12 4 125 4 250 -1 50 -2 95 0 102 5 20 16 146 13 173 -4 26 -17
114 -19 138 -5 17 11 132 12 156 2 13 -6 21 -4 24 3 2 7 23 12 47 12 27 0 47
6 56 16 12 14 14 13 21 -6 6 -17 11 -20 22 -11 7 6 20 9 27 6 8 -3 27 6 42 19
25 22 35 24 80 19 30 -4 57 -13 64 -22 10 -13 15 -14 33 -3 11 7 41 15 65 19
38 5 45 3 45 -11 0 -17 15 -22 24 -7 4 5 26 9 51 9 50 -1 65 6 47 24 -8 8
-176 12 -594 14 -321 2 -592 6 -604 9 -12 2 -23 2 -26 -1z"/>
<path d="M11558 373 c7 -3 16 -2 19 1 4 3 -2 6 -13 5 -11 0 -14 -3 -6 -6z"/>
<path d="M12927 369 c8 -8 16 -8 30 0 16 9 14 10 -11 11 -22 0 -27 -3 -19 -11z"/>
<path d="M13020 370 c20 -13 40 -13 40 0 0 6 -12 10 -27 10 -22 0 -25 -2 -13
-10z"/>
<path d="M13350 370 c0 -5 7 -10 16 -10 8 0 12 5 9 10 -3 6 -10 10 -16 10 -5
0 -9 -4 -9 -10z"/>
<path d="M13405 370 c-3 -5 1 -10 9 -10 9 0 16 5 16 10 0 6 -4 10 -9 10 -6 0
-13 -4 -16 -10z"/>
<path d="M15820 370 c-20 -12 -5 -24 16 -12 9 5 12 12 7 15 -5 3 -15 2 -23 -3z"/>
<path d="M15900 370 l-35 -7 32 -8 c17 -4 42 -18 54 -31 32 -34 119 -32 119 3
0 18 39 8 56 -15 6 -8 17 -12 25 -10 8 3 24 -4 37 -15 21 -20 25 -20 75 -7 28
8 86 15 127 17 41 2 95 5 120 8 38 4 218 15 300 18 14 0 79 0 145 -1 66 0 131
-1 145 -1 31 0 113 -9 160 -16 71 -11 235 -13 255 -3 23 13 135 17 135 6 0
-16 45 -7 77 14 41 29 42 38 1 39 -666 16 -1606 16 -1635 1 -16 -9 -23 -8 -33
3 -13 16 -95 19 -160 5z"/>
<path d="M17806 362 l-29 -4 29 -15 c16 -9 40 -21 53 -28 20 -12 29 -11 63 7
38 20 42 20 68 5 15 -10 37 -17 48 -17 12 0 23 -4 26 -9 8 -12 83 -26 116 -22
14 1 88 3 165 5 77 1 146 5 153 10 7 4 42 2 77 -5 55 -11 72 -10 127 5 43 11
111 17 218 19 85 1 160 6 166 10 7 4 39 7 73 8 59 2 96 17 49 21 -41 3 -295 5
-758 6 -498 2 -470 1 -555 5 -33 1 -73 1 -89 -1z"/>
<path d="M19381 352 c-27 -9 -6 -20 39 -20 28 -1 50 3 50 8 0 8 -71 18 -89 12z"/>
<path d="M19315 340 c27 -12 35 -12 35 0 0 6 -12 10 -27 9 -25 0 -26 -1 -8 -9z"/>
<path d="M19488 343 c6 -2 18 -2 25 0 6 3 1 5 -13 5 -14 0 -19 -2 -12 -5z"/>
<path d="M19560 340 c0 -5 4 -10 9 -10 6 0 13 5 16 10 3 6 -1 10 -9 10 -9 0
-16 -4 -16 -10z"/>
</g>
</svg>
