<?xml version="1.0" standalone="no"?>
<!DOCTYPE svg PUBLIC "-//W3C//DTD SVG 20010904//EN"
 "http://www.w3.org/TR/2001/REC-SVG-20010904/DTD/svg10.dtd">
<svg version="1.0" xmlns="http://www.w3.org/2000/svg"
 width="3264.000000pt" height="2448.000000pt" viewBox="0 0 3264.000000 2448.000000"
 preserveAspectRatio="xMidYMid meet">
<metadata>
Created by potrace 1.12, written by Peter Selinger 2001-2015
</metadata>
<g transform="translate(0.000000,2448.000000) scale(0.100000,-0.100000)"
fill="#000000" stroke="none">
<path d="M5825 24470 c-152 -13 -502 -92 -553 -126 -20 -13 -23 -21 -18 -47
12 -63 49 -71 144 -30 41 17 66 23 72 17 11 -11 1 -49 -26 -110 -31 -70 -79
-325 -88 -464 -2 -36 -5 -71 -5 -77 -1 -7 -19 -24 -41 -38 -42 -26 -49 -49
-29 -86 5 -11 21 -24 35 -29 l24 -10 -5 -137 c-3 -76 -7 -207 -10 -292 -2 -85
-10 -181 -16 -212 -14 -72 -8 -91 27 -87 66 8 83 101 89 488 3 200 6 236 19
246 9 6 48 15 86 18 39 4 148 21 243 37 94 16 210 36 257 44 47 8 128 24 180
35 52 12 123 27 158 35 88 19 156 54 160 83 3 19 -1 22 -27 22 -48 0 -248 -28
-506 -70 -398 -65 -433 -70 -489 -70 -69 0 -78 11 -66 81 6 30 17 97 25 149
41 262 107 449 168 478 33 16 368 78 496 92 159 16 401 32 494 31 85 -1 127 9
127 29 0 12 -786 11 -925 0z"/>
<path d="M22805 24469 c39 -5 131 -16 205 -24 74 -9 180 -23 235 -31 395 -59
583 -84 810 -109 127 -13 268 -29 315 -35 106 -13 248 -25 605 -50 154 -11
307 -22 340 -25 33 -3 168 -10 300 -15 132 -6 335 -14 450 -19 326 -15 624
-20 1520 -27 1058 -7 1160 -2 1785 86 206 30 503 90 835 169 110 27 245 57
300 67 58 10 89 20 75 22 -14 2 -137 2 -275 -1 -253 -5 -275 -7 -490 -57 -200
-47 -540 -103 -850 -140 -260 -31 -497 -43 -885 -44 -353 -1 -1623 12 -1765
18 -514 22 -1162 55 -1295 66 -63 5 -153 12 -200 15 -276 18 -643 55 -1045
106 -226 29 -263 31 -640 34 -270 2 -377 0 -330 -6z"/>
<path d="M11634 24175 c-8 -13 -29 -68 -45 -122 -25 -83 -30 -120 -35 -243 -2
-80 -11 -190 -19 -245 -7 -55 -17 -127 -20 -160 -11 -95 -17 -98 -165 -91 -69
4 -170 12 -226 18 -75 8 -106 8 -122 -1 -47 -25 -12 -99 56 -122 34 -12 316
-17 382 -8 21 3 25 0 24 -21 -2 -31 -70 -300 -131 -518 -50 -181 -59 -257 -31
-276 34 -21 64 27 97 154 17 63 42 158 57 210 14 52 40 168 59 256 18 89 38
171 44 182 7 14 25 23 49 27 199 30 447 137 492 212 11 19 20 36 20 39 0 15
-68 -1 -132 -31 -90 -41 -270 -95 -346 -102 l-55 -6 5 34 c3 19 12 61 21 94
22 80 37 211 37 314 0 104 25 231 57 293 25 48 25 95 1 126 -17 20 -56 14 -74
-13z"/>
<path d="M12474 23979 c-30 -11 -98 -108 -146 -209 -53 -111 -93 -229 -123
-365 -14 -60 -29 -128 -35 -150 -5 -22 -14 -83 -20 -134 -12 -115 3 -186 48
-221 23 -19 35 -21 81 -16 30 4 75 18 100 32 64 35 181 130 277 224 44 44 87
80 96 80 12 0 24 -24 43 -85 41 -137 78 -190 160 -233 44 -23 61 -26 140 -25
62 0 110 7 155 22 75 24 72 26 122 -67 38 -71 97 -109 200 -129 122 -23 201
-15 285 27 49 26 69 41 71 58 4 25 -13 28 -68 11 -61 -18 -215 -12 -277 11
-67 25 -119 63 -139 103 -14 26 -14 31 0 46 9 10 35 24 59 30 163 49 276 192
280 355 2 92 -52 140 -169 152 -130 14 -249 -56 -296 -175 -19 -48 -22 -75
-23 -183 0 -127 0 -128 -25 -137 -45 -17 -147 -23 -202 -12 -101 21 -171 118
-199 276 -8 47 -17 70 -32 80 -52 37 -102 9 -277 -155 -182 -169 -247 -208
-300 -180 -19 10 -22 18 -17 53 21 152 68 373 103 482 33 104 74 179 135 251
55 65 62 82 57 139 -3 42 -27 58 -64 44z m1217 -620 c5 -8 9 -23 9 -35 0 -36
-60 -142 -101 -177 -46 -40 -177 -109 -190 -101 -13 7 -11 161 2 209 13 48 62
102 104 115 43 14 165 6 176 -11z"/>
<path d="M14678 23862 c-40 -44 -213 -440 -253 -579 -40 -138 -42 -179 -10
-277 22 -72 33 -91 65 -116 62 -49 142 -65 315 -64 294 2 589 75 765 188 70
45 96 76 86 102 -9 23 -38 17 -117 -25 -96 -50 -257 -106 -362 -125 -200 -37
-440 -43 -552 -15 -128 32 -148 164 -63 407 36 105 144 340 198 432 33 56 23
110 -21 110 -9 0 -32 -17 -51 -38z"/>
<path d="M8184 23810 c-89 -16 -222 -70 -284 -115 -55 -41 -140 -139 -140
-162 0 -13 -33 -43 -48 -43 -16 0 -31 31 -68 135 l-31 90 -57 -2 c-72 -3 -106
-20 -249 -127 -265 -199 -418 -378 -540 -634 -56 -118 -67 -185 -34 -206 33
-21 69 12 93 84 63 194 219 424 384 564 87 74 247 194 287 215 17 9 25 8 37
-5 9 -8 16 -21 16 -27 0 -24 64 -133 100 -172 l38 -40 4 -105 c4 -97 7 -110
41 -176 59 -116 161 -192 322 -241 51 -15 95 -18 300 -17 227 0 245 2 340 27
55 15 112 27 126 27 15 0 65 -18 111 -40 45 -22 106 -45 133 -52 69 -16 373
-21 459 -8 84 13 156 43 156 64 0 20 10 19 -195 16 -180 -2 -320 14 -430 47
-85 26 -79 42 31 79 132 45 222 97 314 182 87 80 119 126 150 217 32 92 28
115 -29 168 -69 65 -131 81 -276 74 -87 -4 -128 -11 -198 -35 -158 -55 -297
-150 -362 -247 -50 -76 -59 -106 -52 -182 6 -57 12 -72 49 -120 65 -82 65 -82
49 -93 -25 -15 -178 -25 -371 -24 -207 0 -309 19 -401 72 -94 54 -175 176
-167 253 3 38 9 39 116 21 46 -7 64 -5 130 18 129 44 228 105 312 189 146 147
166 257 58 310 -51 24 -152 33 -224 21z m166 -113 c48 -24 38 -51 -52 -141
-61 -60 -104 -93 -163 -123 -128 -66 -260 -80 -317 -34 l-22 19 19 42 c25 55
135 156 205 187 121 55 275 78 330 50z m1034 -191 c56 -17 86 -41 86 -69 0
-41 -56 -134 -120 -198 -47 -47 -90 -78 -155 -111 -141 -72 -273 -128 -304
-128 -60 0 -150 114 -153 194 -3 83 71 166 212 240 146 76 324 105 434 72z"/>
<path d="M17037 23770 c-180 -38 -303 -87 -330 -131 -18 -29 1 -67 43 -89 l40
-20 27 31 c37 41 85 65 193 93 195 53 253 44 336 -47 58 -64 83 -118 84 -178
0 -55 -18 -91 -130 -260 -129 -195 -249 -307 -368 -344 -31 -9 -44 -38 -33
-69 10 -26 74 -68 132 -87 37 -12 122 -44 225 -85 78 -32 93 -25 78 33 -9 36
-13 39 -116 83 -59 26 -111 49 -114 53 -4 4 1 16 11 27 22 24 74 26 117 4 32
-17 139 -122 166 -164 9 -14 36 -49 59 -78 24 -29 43 -63 43 -75 0 -24 -66
-95 -110 -118 -42 -21 -672 -30 -860 -12 -83 9 -112 8 -137 -2 -26 -11 -38
-11 -75 2 -23 8 -63 16 -88 16 -40 2 -45 -1 -48 -21 -9 -60 114 -113 378 -162
102 -19 369 -40 510 -40 161 0 342 27 415 63 76 37 130 106 93 120 -10 3 -10
10 1 28 63 104 59 119 -84 301 -74 95 -176 183 -230 199 -25 7 -45 18 -45 23
0 5 28 39 63 75 59 61 214 295 238 359 35 92 25 179 -32 278 -39 69 -160 181
-208 193 -78 20 -155 20 -244 1z"/>
<path d="M15730 23754 c-78 -17 -144 -60 -148 -98 -7 -57 83 -164 193 -231 33
-20 155 -83 271 -140 277 -136 293 -158 196 -266 -136 -152 -440 -271 -572
-225 -25 9 -53 16 -62 16 -21 0 -31 -32 -23 -71 11 -49 57 -63 185 -55 145 8
266 48 396 131 152 96 214 179 214 285 0 110 -50 151 -395 322 -243 121 -308
164 -289 194 20 34 81 46 199 40 183 -10 311 -51 386 -123 50 -48 82 -52 94
-12 12 37 -4 66 -67 118 -49 40 -81 57 -145 77 -182 55 -304 66 -433 38z"/>
<path d="M16777 23505 c-15 -14 -34 -25 -42 -25 -19 0 -77 -71 -113 -138 -42
-79 -90 -220 -113 -331 -25 -124 -37 -454 -17 -491 20 -37 51 -37 82 1 24 28
26 37 20 78 -4 25 -7 116 -7 201 0 136 4 167 27 254 48 173 125 303 212 357
25 15 34 27 32 43 -2 17 -9 21 -38 19 -33 -3 -34 -2 -16 12 11 8 23 15 27 15
4 0 9 7 13 15 9 24 -35 18 -67 -10z"/>
<path d="M7621 21724 c-78 -21 -155 -72 -244 -161 -215 -214 -349 -523 -364
-833 -6 -128 -12 -140 -72 -141 -98 -1 -168 -63 -125 -110 18 -20 25 -20 129
-14 121 8 136 9 245 26 262 39 453 91 698 191 216 88 243 109 245 188 l2 55
-50 26 c-44 24 -375 136 -542 184 -36 10 -63 24 -63 31 0 7 23 32 52 56 202
167 258 249 258 375 0 87 -10 110 -55 129 -41 17 -45 17 -114 -2z m87 -126 c7
-57 -57 -142 -194 -259 -158 -136 -186 -195 -122 -258 18 -18 44 -34 58 -37
127 -26 533 -149 538 -163 6 -18 -3 -23 -163 -85 -221 -86 -337 -121 -559
-167 -106 -22 -109 -22 -142 -4 -39 21 -39 22 -18 153 38 239 100 405 216 576
127 189 374 345 386 244z"/>
<path d="M16330 21691 c-198 -64 -377 -231 -513 -479 -56 -101 -141 -308 -156
-380 -23 -108 -8 -196 35 -212 78 -30 546 -43 749 -21 279 30 511 103 604 190
29 27 40 47 45 81 8 50 -8 79 -63 117 -58 39 -347 123 -636 183 -54 11 -103
24 -107 28 -16 16 3 38 62 76 83 53 167 137 190 190 39 86 38 188 -1 227 -25
25 -131 25 -209 0z m131 -81 c24 -13 24 -41 0 -88 -21 -42 -72 -91 -171 -166
-92 -71 -140 -129 -140 -172 0 -62 45 -81 360 -149 296 -65 443 -108 469 -138
39 -47 -191 -129 -484 -173 -117 -17 -696 -37 -709 -24 -5 5 -1 29 11 57 41
96 65 190 70 268 5 69 11 90 46 154 54 100 145 219 218 285 62 55 171 119 244
142 51 16 62 16 86 4z"/>
<path d="M5044 21631 c-145 -84 -360 -395 -494 -717 -71 -171 -129 -404 -130
-519 0 -110 55 -178 104 -129 21 20 20 46 -3 97 -18 39 -18 48 -5 132 7 50 19
108 25 130 79 280 205 542 361 752 75 101 130 163 145 163 6 0 10 -96 10 -252
1 -276 30 -645 53 -674 8 -9 25 -14 44 -12 29 3 35 12 106 153 41 83 99 205
129 270 122 269 142 305 175 305 16 0 25 -32 81 -309 25 -120 50 -220 58 -229
22 -22 57 -6 57 25 0 72 -99 526 -131 600 -15 35 -23 43 -45 43 -38 0 -98 -52
-141 -123 -43 -71 -156 -298 -185 -372 -26 -68 -79 -155 -95 -155 -6 0 -15 5
-18 10 -4 6 -7 186 -7 401 -1 383 -1 392 -22 415 l-21 24 -51 -29z"/>
<path d="M6262 21560 c-40 -18 -94 -78 -112 -124 -24 -64 -1 -167 61 -273 44
-75 172 -203 275 -275 128 -90 186 -146 182 -177 -4 -30 -75 -88 -157 -126
-81 -39 -253 -78 -348 -79 -70 -1 -86 2 -112 22 -56 41 -91 24 -91 -43 0 -49
14 -65 83 -94 61 -26 127 -27 248 -2 161 34 281 85 376 159 77 61 97 100 89
173 -3 33 -12 72 -21 88 -20 41 -92 101 -228 193 -65 44 -139 104 -164 133
-65 74 -123 172 -123 209 0 67 63 126 155 146 68 14 103 29 109 46 8 20 -24
30 -111 36 -55 4 -81 1 -111 -12z"/>
<path d="M14972 21499 c-74 -37 -137 -105 -156 -168 -15 -50 -8 -183 13 -234
18 -47 100 -125 210 -202 151 -104 217 -178 190 -211 -43 -53 -181 -87 -354
-88 -176 -1 -245 23 -245 86 0 21 -7 32 -25 40 -32 14 -62 -10 -71 -57 -12
-67 44 -128 156 -165 59 -20 78 -22 210 -17 161 7 265 28 342 72 67 37 88 68
88 125 0 105 -63 188 -226 296 -175 117 -224 183 -209 281 4 31 17 56 42 84
41 45 66 61 173 104 49 21 76 37 78 49 6 27 -15 36 -89 36 -54 0 -77 -6 -127
-31z"/>
<path d="M14113 21363 c-6 -5 -23 -34 -37 -66 -47 -107 -129 -210 -327 -412
-226 -230 -279 -298 -279 -359 0 -23 9 -55 20 -74 49 -81 228 -146 455 -167
133 -12 416 50 497 108 32 24 55 74 41 88 -6 6 -43 -2 -107 -25 -146 -53 -247
-69 -401 -63 -91 3 -154 11 -210 27 -94 25 -199 78 -203 102 -4 19 88 129 203
243 192 191 271 285 349 415 50 83 57 100 54 140 -2 36 -7 45 -23 48 -11 1
-25 -1 -32 -5z"/>
<path d="M16593 20460 c-51 -21 -64 -77 -84 -372 -20 -295 3 -802 61 -1358 12
-111 35 -420 50 -670 24 -391 41 -603 65 -825 8 -71 19 -197 25 -280 5 -82 15
-190 20 -240 14 -131 37 -526 55 -945 25 -582 62 -1087 96 -1299 6 -43 7 -67
0 -74 -14 -14 3 -15 -481 33 -52 5 -241 25 -420 45 -179 19 -372 41 -430 47
l-104 11 -48 47 c-27 26 -81 65 -121 86 -68 36 -77 38 -162 38 -77 1 -98 -3
-147 -26 -32 -15 -73 -39 -93 -54 -34 -25 -37 -26 -97 -15 -35 6 -299 45 -588
86 -289 41 -631 90 -760 110 -129 19 -311 47 -405 61 -93 13 -210 31 -260 39
-136 21 -962 118 -1580 185 -49 5 -273 30 -496 55 -511 56 -657 70 -1109 101
-616 43 -1551 43 -2095 0 -99 -8 -225 -17 -280 -21 -303 -18 -913 -72 -1100
-96 -106 -14 -178 -35 -201 -60 -37 -41 -9 -44 218 -21 302 31 510 50 763 67
121 9 254 20 295 25 364 44 1604 69 2045 41 94 -6 258 -15 365 -21 107 -5 240
-14 295 -20 55 -5 154 -14 220 -20 188 -18 266 -26 640 -69 193 -22 411 -47
485 -55 74 -8 200 -22 280 -31 218 -24 413 -45 432 -45 16 0 17 -14 12 -172
-6 -160 15 -549 32 -592 7 -18 29 -27 48 -20 35 13 37 44 21 241 -20 248 -20
506 -1 522 7 6 20 9 27 6 8 -2 104 -16 214 -30 294 -38 890 -125 1095 -160 47
-8 135 -21 195 -30 61 -8 216 -30 345 -50 129 -19 267 -40 305 -45 289 -38
473 -60 502 -60 39 0 40 -7 12 -61 -23 -46 -22 -82 3 -87 11 -2 25 9 37 30 61
104 85 121 135 102 17 -7 22 -34 6 -34 -16 0 -69 -100 -91 -173 -26 -82 -22
-137 14 -219 42 -95 101 -163 170 -198 100 -50 167 -37 287 55 76 58 122 115
160 197 37 78 46 146 31 218 -16 75 -6 85 80 70 206 -34 1108 -130 1229 -130
36 0 70 -4 76 -8 6 -4 14 -59 17 -132 4 -69 11 -188 17 -265 5 -77 14 -259 20
-405 18 -458 37 -790 57 -982 6 -67 8 -66 -102 -48 -33 5 -177 21 -320 34
-143 14 -300 30 -350 36 -49 5 -171 17 -270 25 -99 8 -202 17 -230 20 -96 10
-603 41 -905 55 -124 6 -292 15 -375 20 -82 5 -269 17 -415 25 -250 15 -347
21 -700 45 -352 24 -694 29 -1905 32 -1111 2 -1773 -4 -1905 -18 -19 -2 -296
-6 -615 -10 -587 -6 -789 0 -1295 38 -102 8 -340 10 -690 8 -860 -6 -980 -6
-1270 5 -323 12 -794 13 -831 3 -30 -9 -44 -34 -29 -53 7 -9 117 -14 412 -19
222 -5 507 -11 633 -15 127 -3 415 -2 640 2 389 8 947 2 1174 -12 l105 -6 -3
-115 c-1 -63 5 -160 13 -215 8 -55 19 -156 26 -225 20 -227 35 -290 69 -290
39 0 44 32 32 189 -7 80 -18 202 -27 271 -8 69 -16 175 -17 237 -3 150 -5 148
139 131 145 -17 1007 -17 1669 0 573 14 3008 9 3335 -7 177 -9 770 -45 1160
-71 85 -5 238 -14 340 -20 102 -6 259 -15 350 -20 91 -6 255 -15 365 -20 201
-10 790 -56 829 -65 12 -3 77 -9 146 -15 69 -5 242 -21 385 -35 143 -14 296
-25 340 -25 124 0 121 2 117 -88 -2 -45 11 -208 32 -392 20 -173 40 -376 46
-450 6 -74 13 -148 15 -165 8 -48 34 -483 40 -680 9 -264 23 -493 30 -505 3
-5 22 -10 42 -10 l36 0 -7 283 c-11 450 -44 953 -91 1382 -8 72 -23 213 -34
315 -11 102 -23 192 -26 201 -3 8 4 27 15 42 27 34 38 34 298 5 180 -20 237
-22 652 -19 981 7 4198 6 4415 -2 296 -10 880 -35 970 -42 39 -3 149 -10 245
-15 562 -33 724 -43 990 -60 162 -11 351 -24 420 -30 69 -5 229 -17 355 -25
127 -9 338 -24 470 -35 132 -11 357 -29 500 -40 424 -33 915 -81 1385 -135
173 -20 430 -49 570 -65 268 -31 589 -56 852 -67 137 -5 160 -4 182 11 25 16
34 49 18 72 -4 7 -85 13 -227 18 -351 11 -512 24 -1350 116 -619 68 -841 90
-1260 125 -165 14 -379 32 -475 40 -96 8 -242 20 -325 25 -82 6 -339 24 -570
40 -584 41 -969 67 -1180 79 -99 6 -290 18 -425 26 -966 58 -1404 65 -3695 62
-2216 -2 -2228 -2 -2395 14 -63 6 -187 13 -275 15 -88 1 -167 5 -176 9 -12 5
-15 16 -11 54 2 26 -3 162 -12 302 -9 140 -23 421 -31 624 -19 464 -31 669
-47 768 -10 67 -10 80 3 93 16 15 21 15 349 -26 256 -32 401 -43 423 -33 45
22 63 23 201 9 403 -43 1032 -53 1691 -27 631 24 899 30 1705 38 1278 13 3042
10 3520 -5 509 -16 1048 -19 1235 -6 132 9 170 7 370 -16 44 -5 121 -13 170
-19 50 -5 216 -12 370 -16 533 -11 1325 -41 1725 -65 91 -5 239 -12 330 -15
211 -8 350 -22 396 -41 32 -14 38 -13 60 1 29 19 32 57 5 84 -34 34 -139 44
-616 61 -143 5 -366 14 -495 19 -446 19 -943 36 -1390 46 -129 3 -352 10 -495
15 -143 5 -489 14 -770 20 -280 5 -598 13 -705 16 -611 19 -1030 22 -2400 18
-833 -2 -1594 -6 -1690 -9 -96 -2 -330 -7 -520 -10 -190 -3 -385 -8 -435 -10
-226 -10 -836 -20 -1195 -19 -317 1 -445 5 -650 23 -140 12 -338 26 -440 31
-204 10 -331 31 -484 80 -89 29 -104 31 -139 20 -28 -8 -41 -19 -48 -40 -12
-33 -23 -39 -66 -33 -38 6 -43 20 -43 126 0 43 -11 191 -24 330 -31 316 -42
501 -61 992 -15 382 -35 730 -56 950 -21 236 -22 252 -10 259 7 4 42 3 79 -3
145 -24 313 -29 672 -19 255 7 507 7 835 -1 259 -6 871 -11 1360 -12 490 -1
955 -5 1035 -10 394 -23 1369 -45 2445 -54 825 -7 1523 -18 1865 -30 349 -12
444 -15 665 -21 132 -3 281 -7 330 -9 82 -4 432 -15 945 -31 742 -22 1303 -24
2470 -8 554 7 537 5 524 73 l-7 34 -466 -7 c-782 -12 -1907 -14 -2266 -5 -377
9 -1285 35 -2060 59 -567 18 -1147 29 -1715 35 -1530 14 -1623 15 -2175 35
-143 5 -384 12 -535 15 -151 3 -290 8 -307 11 -57 9 -2619 21 -3138 15 -189
-2 -337 1 -400 9 -55 6 -119 14 -142 16 l-43 5 0 57 c0 31 -4 95 -10 142 -13
112 -36 409 -55 700 -29 453 -45 667 -65 875 -56 587 -69 924 -47 1227 10 128
22 227 33 261 24 78 12 99 -43 77z m-1370 -5856 c55 -19 78 -40 52 -50 -24
-10 -270 19 -269 31 4 35 136 47 217 19z m17 -132 l144 -17 13 -60 c7 -33 12
-85 13 -116 0 -109 -110 -274 -215 -320 -43 -19 -48 -19 -94 -4 -85 28 -152
120 -166 231 -8 60 12 152 52 234 39 80 42 83 77 75 17 -4 96 -14 176 -23z"/>
<path d="M6252 19589 c-239 -25 -580 -136 -767 -249 -193 -117 -253 -178 -275
-284 -15 -75 -7 -142 29 -221 79 -173 176 -265 396 -374 102 -50 171 -68 325
-82 202 -18 370 4 514 70 67 31 89 51 84 78 -5 28 -41 27 -151 -6 -168 -51
-339 -62 -523 -36 -119 17 -170 33 -284 88 -167 81 -283 240 -285 388 0 90 33
142 142 225 183 137 398 228 718 300 90 20 260 28 330 15 33 -6 80 -21 105
-34 36 -19 48 -31 58 -64 16 -48 37 -60 63 -37 31 28 24 69 -21 118 -52 57
-133 92 -240 105 -93 12 -99 12 -218 0z"/>
<path d="M7020 19511 c-5 -11 -10 -41 -10 -66 0 -38 5 -52 29 -76 30 -29 74
-39 86 -18 4 5 4 37 0 69 -5 42 -14 67 -30 85 -29 30 -60 32 -75 6z"/>
<path d="M14623 19469 c-250 -29 -486 -225 -645 -535 -138 -269 -206 -553
-196 -812 7 -154 26 -215 66 -210 14 2 34 15 45 30 19 26 19 28 2 115 -32 158
-7 398 61 603 92 276 299 548 481 631 149 68 297 92 418 69 161 -30 207 -159
123 -341 -41 -88 -132 -190 -254 -285 -108 -85 -137 -119 -129 -153 17 -66 77
-99 256 -137 236 -50 452 -120 621 -203 124 -60 157 -89 140 -126 -38 -83
-286 -151 -861 -235 -266 -39 -664 -80 -781 -81 -158 -1 -205 -9 -205 -34 0
-27 36 -33 270 -41 210 -7 394 7 760 56 406 55 612 101 742 165 77 38 102 56
143 106 67 81 66 98 -9 169 -122 114 -403 231 -770 321 -91 22 -170 45 -176
50 -10 11 1 22 106 107 94 76 168 169 223 282 50 102 51 107 50 190 -1 103
-20 147 -91 210 -62 55 -114 78 -205 90 -82 11 -86 11 -185 -1z"/>
<path d="M11690 19354 c-235 -274 -307 -369 -427 -564 -83 -135 -160 -283
-244 -470 -73 -162 -77 -175 -54 -200 39 -43 73 -11 110 104 26 77 200 428
267 539 109 176 367 492 403 492 18 0 21 -10 28 -100 4 -55 14 -147 22 -205 8
-58 10 -109 6 -113 -5 -5 -42 -13 -82 -18 -79 -10 -266 -52 -336 -76 -46 -16
-51 -28 -28 -72 28 -55 47 -54 269 9 97 28 183 50 190 50 11 0 16 -22 21 -87
9 -132 63 -475 86 -547 10 -35 26 -69 33 -76 23 -18 59 -8 75 21 13 24 12 33
-12 107 -15 44 -36 145 -47 224 -11 78 -27 187 -35 242 -11 67 -12 102 -5 111
5 6 42 18 82 25 139 24 171 35 191 62 12 15 17 33 13 43 -5 15 -17 16 -98 10
-50 -4 -105 -11 -122 -16 -49 -14 -84 -11 -94 9 -5 9 -15 76 -22 147 -29 312
-39 397 -51 411 -6 8 -26 14 -43 14 -26 -1 -41 -13 -96 -76z"/>
<path d="M18665 19246 c-104 -20 -179 -44 -285 -90 -283 -125 -476 -336 -575
-629 -54 -163 -54 -290 2 -405 35 -71 74 -109 153 -146 57 -27 77 -31 170 -34
118 -4 189 9 315 57 95 36 310 152 412 222 40 27 74 49 77 49 2 0 12 -26 21
-57 23 -77 39 -107 88 -160 56 -61 124 -93 230 -109 180 -27 358 19 539 139
152 101 228 262 174 366 -56 107 -199 160 -396 146 -154 -12 -220 -40 -220
-95 0 -47 24 -57 74 -31 138 68 408 45 451 -40 19 -37 19 -55 -4 -106 -45 -98
-167 -191 -324 -246 -83 -29 -103 -32 -207 -32 -212 0 -295 54 -329 213 -6 30
-8 60 -3 67 4 8 43 41 87 73 44 32 112 90 152 128 102 99 107 141 20 165 -77
21 -218 -42 -282 -127 -32 -42 -64 -112 -65 -140 0 -38 -36 -69 -162 -141
-340 -196 -498 -252 -677 -240 -120 9 -167 34 -206 111 -27 53 -30 69 -30 150
1 66 7 112 24 166 31 102 105 247 167 328 140 185 441 345 695 368 85 8 145
-15 174 -69 27 -50 52 -57 82 -23 30 36 29 54 -7 98 -56 68 -199 99 -335 74z
m555 -655 c0 -18 -156 -148 -166 -138 -8 7 20 58 42 79 21 19 105 68 117 68 4
0 7 -4 7 -9z"/>
<path d="M21823 19148 c-6 -7 -16 -119 -22 -248 -7 -129 -14 -253 -15 -275 -2
-22 -4 -76 -5 -119 l-1 -79 -55 -51 c-48 -45 -55 -56 -55 -89 0 -49 39 -92 76
-83 l24 6 0 -93 c0 -165 27 -250 73 -226 19 11 20 18 13 210 l-6 198 27 25
c66 62 483 187 851 257 85 16 158 31 163 35 16 9 10 34 -8 34 -10 0 -31 7 -47
15 -39 21 -48 20 -278 -25 -233 -45 -434 -96 -560 -140 -49 -16 -100 -30 -114
-30 -23 0 -25 3 -20 28 12 61 25 183 31 282 4 58 11 153 16 211 5 59 6 114 3
123 -6 16 -53 46 -72 46 -5 0 -14 -6 -19 -12z"/>
<path d="M7034 19125 c-9 -13 -22 -68 -29 -122 -8 -54 -27 -179 -44 -278 -18
-103 -34 -241 -37 -321 -7 -139 -7 -142 14 -148 12 -4 26 -5 32 -1 13 8 30 73
30 120 0 50 23 187 55 325 66 287 83 397 66 429 -17 30 -66 28 -87 -4z"/>
<path d="M25850 19104 c-174 -26 -287 -85 -306 -159 -15 -60 39 -157 126 -228
100 -80 142 -102 470 -233 272 -110 358 -156 450 -242 85 -79 130 -152 130
-211 0 -49 -48 -129 -107 -180 -62 -54 -229 -135 -318 -155 -38 -9 -108 -20
-155 -26 -139 -16 -318 13 -369 61 -24 23 -25 59 -4 139 13 48 7 60 -33 60
-44 0 -67 -34 -72 -110 -8 -107 41 -163 187 -216 130 -46 370 -50 523 -8 137
37 287 122 365 207 63 69 77 102 78 183 0 98 -48 194 -148 297 -105 109 -213
173 -416 249 -285 106 -448 182 -519 243 -42 37 -82 99 -82 129 0 46 184 105
325 106 39 0 105 -8 147 -19 81 -19 120 -18 138 5 19 22 7 57 -25 75 -49 28
-281 48 -385 33z"/>
<path d="M7827 19026 c-36 -13 -73 -40 -105 -76 -24 -28 -129 -185 -160 -240
-30 -54 -32 -55 -71 -52 -33 2 -43 -2 -55 -20 -38 -57 -63 -279 -37 -326 9
-17 20 -22 39 -20 24 3 32 16 79 125 74 173 213 395 291 464 51 45 111 66 142
49 68 -37 140 -244 140 -408 0 -62 13 -92 40 -92 32 0 54 86 45 178 -17 194
-82 344 -177 406 -35 23 -125 29 -171 12z"/>
<path d="M21362 18668 c-22 -18 -59 -62 -83 -98 -157 -240 -185 -277 -298
-393 -79 -81 -187 -161 -250 -183 -48 -17 -124 -17 -165 0 -42 18 -81 68 -109
142 -19 52 -22 80 -23 243 -1 178 -2 185 -24 203 -29 23 -57 23 -70 -1 -16
-30 -12 -304 5 -386 27 -128 95 -229 188 -277 34 -18 59 -22 132 -22 155 1
198 22 359 181 157 155 380 486 393 583 7 49 -2 50 -55 8z"/>
<path d="M18240 18645 c-9 -11 -10 -19 -2 -27 14 -14 32 -1 32 23 0 23 -13 25
-30 4z"/>
<path d="M18137 18603 c-9 -8 -9 -48 0 -56 6 -7 33 37 33 54 0 10 -24 12 -33
2z"/>
<path d="M28023 18565 c-12 -9 -57 -64 -99 -123 -183 -254 -240 -326 -309
-390 -130 -121 -280 -177 -334 -123 -26 26 -35 109 -27 233 6 90 5 104 -14
144 -16 33 -28 44 -45 44 -44 0 -48 -19 -42 -183 7 -195 23 -252 89 -321 l47
-49 93 6 c113 7 159 25 248 99 95 79 165 163 276 333 158 240 184 284 191 315
5 28 3 30 -24 30 -15 0 -38 -7 -50 -15z"/>
<path d="M29033 18483 c-38 -7 -155 -131 -232 -247 -41 -60 -101 -139 -133
-175 -56 -62 -122 -110 -135 -98 -3 3 2 27 11 53 30 89 14 169 -34 169 -37 0
-53 -44 -58 -162 -5 -114 0 -145 28 -173 23 -23 88 -27 123 -9 66 35 208 196
325 370 60 90 113 149 134 149 12 0 16 -21 20 -105 6 -117 24 -158 82 -194 56
-35 115 -27 351 45 72 22 255 30 297 14 67 -27 143 -120 224 -274 47 -92 68
-111 90 -82 35 48 3 128 -121 300 -68 95 -82 108 -138 135 -37 19 -93 35 -139
42 -68 10 -90 9 -185 -10 -59 -12 -144 -33 -188 -46 -115 -34 -153 -39 -170
-25 -12 10 -15 37 -15 121 0 114 -8 150 -42 187 -21 21 -44 25 -95 15z"/>
<path d="M16272 18366 c-8 -18 -7 -28 3 -43 8 -10 15 -25 15 -34 0 -9 7 -22
15 -29 12 -10 20 -9 41 4 31 21 28 52 -4 49 -19 -2 -22 2 -22 37 0 32 -4 40
-18 40 -11 0 -24 -11 -30 -24z"/>
<path d="M4672 17668 c-15 -15 -15 -58 1 -79 7 -9 30 -28 52 -42 22 -15 50
-34 61 -42 19 -14 31 -14 90 -4 74 13 178 10 544 -17 148 -10 419 -17 870 -20
387 -2 770 -10 935 -19 268 -14 434 -23 885 -45 113 -6 376 -19 585 -30 389
-20 657 -32 1125 -51 263 -10 337 -14 500 -24 47 -2 153 -7 235 -10 191 -7
319 -13 420 -20 76 -6 264 -14 745 -35 118 -5 289 -14 380 -19 91 -6 226 -13
300 -17 74 -3 146 -8 160 -10 14 -1 97 -6 185 -9 88 -3 232 -10 320 -15 88 -5
198 -9 245 -10 47 -1 103 -4 125 -5 22 -2 146 -6 275 -10 129 -3 271 -8 315
-11 44 -2 148 -6 230 -9 83 -3 215 -8 295 -11 80 -4 181 -8 225 -9 45 -1 171
-6 280 -10 444 -16 447 -15 483 28 18 22 6 24 -163 26 -82 1 -163 4 -180 6
-40 6 -587 32 -950 45 -529 18 -760 28 -1240 55 -464 26 -616 35 -750 45 -143
11 -200 14 -480 30 -104 5 -255 14 -335 20 -80 5 -291 17 -470 25 -179 9 -458
22 -620 30 -162 8 -342 17 -400 20 -58 3 -168 7 -245 10 -286 10 -674 29
-1135 55 -96 6 -256 15 -354 20 -99 5 -328 19 -510 30 -182 11 -491 29 -686
40 -195 11 -465 27 -600 36 -268 16 -763 40 -1044 51 -135 5 -177 3 -172 -5 4
-7 16 -12 26 -12 10 0 31 -5 47 -11 l28 -12 -30 -8 c-16 -5 -52 -9 -80 -9 -27
-1 -108 -3 -179 -6 -102 -4 -131 -2 -145 9 -9 8 -29 17 -45 21 -27 7 -27 8
-12 25 16 17 16 19 1 25 -29 11 -130 7 -143 -6z"/>
<path d="M6967 17336 c-53 -19 -177 -115 -210 -163 -69 -99 -84 -227 -47 -401
38 -182 87 -283 188 -388 113 -118 195 -162 342 -185 220 -34 435 37 597 197
87 86 121 142 134 224 17 110 -34 263 -114 341 -123 120 -365 236 -510 246
-72 5 -79 8 -92 33 -16 31 -79 77 -132 96 -48 17 -108 17 -156 0z m208 -100
c19 -14 19 -15 1 -35 -11 -12 -25 -21 -33 -21 -23 0 -74 -56 -67 -74 9 -23 31
-23 124 -3 120 26 206 22 310 -15 247 -88 379 -218 380 -374 0 -199 -261 -409
-535 -430 -94 -8 -163 7 -275 59 -196 90 -316 325 -297 578 11 139 91 251 217
305 63 27 146 31 175 10z"/>
<path d="M15712 17117 c-8 -9 -6 -19 6 -35 17 -22 24 -23 352 -37 184 -8 372
-17 417 -20 67 -4 84 -2 98 11 38 38 -6 48 -255 59 -229 9 -525 25 -567 30
-26 3 -45 0 -51 -8z"/>
<path d="M11785 17014 c-104 -21 -129 -29 -161 -51 -36 -24 -39 -24 -65 -9
-61 36 -162 8 -272 -75 -264 -199 -274 -435 -25 -605 94 -64 153 -79 288 -71
224 12 537 131 670 253 69 65 104 135 94 192 -18 109 -63 208 -118 260 -41 39
-137 87 -204 101 -51 10 -164 13 -207 5z m315 -138 c71 -29 76 -34 102 -86 67
-135 10 -239 -190 -346 -172 -92 -454 -155 -600 -134 -146 20 -263 121 -245
212 19 100 137 239 252 296 84 42 125 42 146 2 19 -37 45 -40 45 -6 0 31 24
56 54 56 12 0 49 7 81 16 142 39 247 36 355 -10z"/>
<path d="M20511 16945 c-33 -15 -33 -16 -29 -70 5 -58 28 -95 58 -95 23 0 31
22 23 60 -20 102 116 72 325 -73 113 -78 202 -195 202 -265 0 -120 -154 -223
-390 -260 -305 -49 -604 -39 -864 28 -99 25 -229 93 -263 138 -42 56 -28 123
44 203 95 106 249 165 403 157 94 -6 171 -32 189 -66 7 -13 7 -31 1 -51 -11
-40 -4 -60 25 -67 49 -12 93 41 80 96 -13 57 -30 81 -77 111 -97 62 -309 88
-441 54 -132 -34 -274 -132 -319 -220 -17 -32 -20 -51 -15 -106 9 -106 25
-146 82 -202 88 -87 250 -149 510 -193 155 -27 520 -25 685 4 155 27 232 52
309 102 102 66 139 151 120 275 -25 162 -144 292 -356 389 -142 65 -233 80
-302 51z"/>
<path d="M14547 16750 c-98 -31 -154 -81 -198 -177 -16 -34 -46 -87 -68 -117
-106 -152 -78 -403 54 -493 21 -14 63 -29 101 -35 56 -10 71 -8 131 11 84 27
292 131 355 177 67 49 154 148 185 207 16 32 28 75 31 112 4 53 1 68 -26 121
-70 138 -221 214 -422 213 -54 0 -106 -7 -143 -19z m328 -111 c187 -57 227
-222 88 -364 -41 -43 -144 -114 -257 -178 -188 -106 -305 -102 -364 13 -20 39
-23 57 -20 130 6 156 70 250 221 325 89 45 118 45 152 3 l26 -33 25 29 c19 22
24 36 20 56 -9 47 8 50 109 19z"/>
<path d="M25668 16750 c-113 -19 -244 -72 -316 -127 -72 -54 -111 -150 -113
-278 -3 -100 12 -134 85 -203 171 -159 517 -265 871 -265 277 -1 539 45 668
116 78 44 125 166 98 257 -23 76 -139 178 -293 256 -119 60 -386 149 -542 180
-45 9 -89 23 -98 31 -10 9 -61 21 -125 29 -119 15 -165 16 -235 4z m214 -125
c362 -42 791 -197 930 -335 42 -42 58 -67 64 -95 7 -36 4 -41 -31 -72 -45 -39
-171 -82 -320 -109 -137 -25 -502 -26 -620 -1 -223 48 -325 80 -430 138 -170
93 -199 198 -90 328 47 55 176 118 300 146 33 7 61 14 62 14 0 1 61 -6 135
-14z"/>
<path d="M7340 16099 c-111 -13 -167 -27 -234 -56 -155 -69 -260 -154 -237
-192 6 -9 18 -10 55 0 26 6 49 9 52 6 3 -2 -2 -33 -12 -68 -20 -79 -14 -181
14 -257 44 -115 125 -177 272 -208 124 -26 223 -10 375 62 79 38 221 177 258
254 60 123 56 242 -9 318 -42 50 -139 105 -219 125 -80 20 -222 28 -315 16z
m340 -118 c136 -43 193 -159 138 -279 -34 -74 -168 -201 -258 -246 -122 -59
-218 -65 -353 -20 -64 21 -141 94 -156 149 -36 125 -17 212 57 259 31 20 42
34 51 71 9 35 18 48 39 56 109 43 364 48 482 10z"/>
<path d="M11855 15883 c-161 -14 -358 -67 -476 -129 -86 -45 -159 -121 -159
-164 0 -44 25 -39 129 23 87 53 198 104 206 95 2 -2 -7 -31 -20 -64 -37 -89
-30 -175 21 -279 67 -133 176 -177 360 -142 158 30 409 184 473 291 30 50 44
123 31 161 -24 72 -158 159 -291 189 -69 15 -209 25 -274 19z m275 -120 c133
-32 210 -83 210 -139 0 -45 -112 -147 -240 -219 -149 -84 -299 -108 -390 -62
-34 17 -52 35 -73 75 -53 98 -46 207 16 256 40 32 53 45 77 76 17 24 24 25
147 30 142 6 159 5 253 -17z"/>
<path d="M14760 15715 c-14 -17 -11 -49 18 -160 22 -82 76 -449 87 -587 6 -72
8 -78 29 -78 13 0 31 10 42 21 16 18 19 36 18 133 -2 111 -36 371 -74 558 -11
53 -20 99 -20 101 0 6 -59 27 -75 27 -7 0 -18 -7 -25 -15z"/>
<path d="M26078 15590 c-46 -14 -88 -49 -88 -75 0 -29 43 -65 70 -58 47 12 51
0 24 -94 -13 -48 -31 -117 -39 -153 -21 -88 -83 -297 -102 -341 -13 -32 -13
-41 0 -80 19 -55 37 -68 68 -47 24 15 41 66 170 509 63 217 59 283 -16 326
-44 25 -47 25 -87 13z"/>
<path d="M20414 15570 c-28 -4 -67 -13 -88 -20 -20 -6 -48 -9 -64 -6 -30 7
-185 -28 -331 -75 -108 -35 -273 -115 -346 -167 -128 -93 -245 -233 -245 -294
0 -61 78 -169 150 -208 44 -23 187 -61 270 -70 128 -15 224 -12 382 10 548 77
898 213 949 369 28 83 -18 212 -110 313 -113 124 -336 182 -567 148z m252 -75
c137 -26 258 -95 296 -169 30 -59 30 -149 0 -197 -42 -68 -167 -135 -367 -195
-308 -94 -618 -131 -863 -105 -178 20 -243 46 -278 112 -46 90 95 260 305 368
100 51 358 144 373 135 5 -3 6 -14 3 -24 -7 -22 21 -98 49 -128 24 -27 69 -27
74 0 2 10 -6 30 -17 44 -32 41 -27 70 17 98 20 14 44 26 52 27 36 6 101 -26
146 -72 50 -51 89 -63 101 -33 3 9 1 25 -5 35 -7 10 -12 25 -12 32 0 20 -37
50 -53 44 -8 -3 -20 -1 -27 3 -11 7 -11 11 -1 24 17 21 103 21 207 1z"/>
<path d="M1 15094 c0 -11 3 -14 6 -6 3 7 2 16 -1 19 -3 4 -6 -2 -5 -13z"/>
<path d="M7290 15057 c-99 -36 -266 -185 -309 -277 -22 -47 -26 -68 -25 -145
0 -86 2 -95 45 -185 92 -191 195 -274 342 -273 85 1 156 25 267 91 177 104
290 210 347 325 45 89 52 161 24 221 -51 105 -205 182 -390 194 -68 4 -85 8
-88 22 -9 36 -141 52 -213 27z m411 -168 c167 -48 233 -147 179 -267 -50 -111
-282 -293 -430 -338 -107 -33 -222 -5 -287 69 -58 67 -123 226 -123 303 0 83
57 153 138 168 18 3 61 18 95 34 138 63 283 74 428 31z"/>
<path d="M3 14915 c0 -27 2 -38 4 -22 2 15 2 37 0 50 -2 12 -4 0 -4 -28z"/>
<path d="M0 14537 c0 -26 4 -47 8 -47 10 0 10 76 0 86 -5 4 -8 -14 -8 -39z"/>
<path d="M0 14401 c0 -17 5 -33 10 -36 6 -4 10 8 10 29 0 20 -4 36 -10 36 -5
0 -10 -13 -10 -29z"/>
<path d="M1 14264 c0 -11 3 -14 6 -6 3 7 2 16 -1 19 -3 4 -6 -2 -5 -13z"/>
<path d="M5 14219 c-10 -15 3 -25 16 -12 7 7 7 13 1 17 -6 3 -14 1 -17 -5z"/>
<path d="M20057 14131 c-7 -17 -37 -47 -68 -68 -68 -47 -145 -132 -153 -170
-10 -46 11 -134 43 -173 37 -46 140 -97 221 -110 246 -38 563 40 743 182 94
75 88 166 -18 252 -88 72 -121 81 -300 81 -124 -1 -173 -5 -218 -19 -56 -17
-57 -17 -83 3 -15 12 -39 21 -53 21 -15 0 -36 7 -47 15 -30 23 -54 18 -67 -14z
m630 -116 c58 -17 113 -58 113 -84 0 -50 -149 -141 -306 -186 -212 -61 -470
-48 -533 28 -29 36 13 123 85 176 32 25 42 27 66 19 23 -8 46 -5 111 16 144
45 214 56 317 51 53 -3 119 -12 147 -20z"/>
<path d="M25953 14122 c-29 -14 -55 -34 -58 -43 -3 -10 -17 -24 -30 -33 -34
-22 -33 -50 0 -44 30 6 40 -5 96 -106 23 -44 54 -93 68 -110 71 -85 102 -179
126 -376 25 -206 37 -237 82 -205 16 12 18 27 16 137 -2 162 -39 371 -96 533
-8 22 -22 73 -32 114 -14 60 -26 84 -58 118 -22 24 -45 43 -51 42 -6 0 -35
-12 -63 -27z"/>
<path d="M25590 14077 c-14 -7 -44 -18 -67 -25 -62 -18 -84 -72 -31 -72 24 0
85 18 108 31 8 5 38 21 65 36 48 25 49 27 25 34 -39 11 -73 10 -100 -4z"/>
<path d="M10 14045 c-18 -21 -3 -32 16 -13 10 9 12 18 6 22 -5 3 -15 -1 -22
-9z"/>
<path d="M7490 13979 c-152 -14 -282 -75 -369 -174 -36 -42 -58 -102 -42 -118
8 -8 25 2 64 40 67 66 182 140 238 152 57 13 211 13 268 0 95 -22 200 -70 251
-116 51 -46 90 -107 90 -141 0 -64 -150 -248 -275 -338 -82 -58 -181 -103
-241 -110 -107 -13 -203 52 -269 182 -38 75 -40 162 -6 239 37 83 75 113 191
150 61 19 86 37 105 75 15 30 9 50 -14 50 -20 0 -165 -51 -202 -70 -116 -63
-213 -250 -194 -375 3 -24 23 -78 44 -121 85 -176 229 -256 390 -219 207 49
507 326 561 520 40 142 -123 297 -376 359 -82 20 -127 23 -214 15z"/>
<path d="M15 13930 c3 -5 8 -10 11 -10 2 0 4 5 4 10 0 6 -5 10 -11 10 -5 0 -7
-4 -4 -10z"/>
<path d="M12182 13785 c-31 -39 -36 -103 -23 -280 18 -244 26 -304 45 -323 15
-15 19 -15 44 -1 26 14 27 18 25 84 -3 97 -4 451 -1 500 3 39 2 40 -33 43 -30
2 -41 -2 -57 -23z"/>
<path d="M15333 13784 c-7 -3 -21 -20 -32 -37 -29 -48 -42 -195 -44 -531 -2
-313 -1 -324 45 -313 47 12 51 33 64 357 14 336 15 347 47 438 22 63 22 64 3
78 -19 14 -59 17 -83 8z"/>
<path d="M20 13770 c0 -5 5 -10 10 -10 6 0 10 5 10 10 0 6 -4 10 -10 10 -5 0
-10 -4 -10 -10z"/>
<path d="M30 13654 c0 -8 5 -12 10 -9 6 4 8 11 5 16 -9 14 -15 11 -15 -7z"/>
<path d="M20696 13508 c-29 -16 -126 -231 -141 -312 -7 -39 -16 -145 -20 -236
-6 -153 -5 -168 14 -212 15 -35 26 -48 41 -48 32 0 47 49 53 176 4 61 18 169
31 240 21 106 34 147 76 229 27 56 50 108 50 117 0 18 -50 58 -72 58 -7 0 -21
-6 -32 -12z"/>
<path d="M26172 13063 c-7 -3 -18 -16 -23 -30 -8 -21 -14 -24 -32 -18 -12 4
-48 10 -79 12 -85 7 -151 -18 -211 -81 -62 -64 -86 -116 -87 -183 0 -168 141
-306 385 -378 331 -96 924 22 976 195 10 34 9 47 -12 102 -79 213 -442 390
-798 387 -58 0 -112 -3 -119 -6z m185 -104 c128 -10 198 -23 219 -40 6 -5 37
-18 68 -29 98 -33 199 -93 256 -150 121 -122 106 -167 -76 -225 -123 -39 -262
-65 -391 -71 -197 -10 -384 38 -485 126 -28 24 -59 57 -69 74 -39 63 -14 170
51 216 39 28 130 60 170 60 18 0 32 6 35 15 3 8 7 22 10 31 4 13 13 15 45 10
22 -3 97 -11 167 -17z"/>
<path d="M40 12966 c0 -8 5 -18 10 -21 6 -3 10 3 10 14 0 12 -4 21 -10 21 -5
0 -10 -6 -10 -14z"/>
<path d="M4722 12733 c2 -10 10 -18 18 -18 8 0 16 8 18 18 2 12 -3 17 -18 17
-15 0 -20 -5 -18 -17z"/>
<path d="M12115 12340 c-157 -31 -276 -101 -260 -151 4 -12 -10 -41 -40 -84
-89 -124 -110 -247 -66 -380 49 -145 125 -236 230 -276 48 -18 71 -20 161 -16
119 5 182 23 325 94 279 139 414 332 364 518 -15 55 -91 175 -131 206 -128
100 -355 135 -583 89z m402 -101 c151 -57 212 -129 221 -265 4 -61 1 -80 -20
-126 -69 -150 -352 -317 -568 -335 -161 -13 -291 104 -321 290 -27 167 56 300
246 395 102 51 195 54 249 7 34 -29 48 -25 69 20 20 42 41 44 124 14z"/>
<path d="M60 12329 c0 -5 5 -7 10 -4 6 3 10 8 10 11 0 2 -4 4 -10 4 -5 0 -10
-5 -10 -11z"/>
<path d="M15325 12305 c-86 -16 -161 -44 -231 -87 -55 -33 -69 -53 -58 -82 9
-23 14 -21 117 29 51 25 98 45 105 45 27 0 9 -17 -53 -48 -103 -54 -170 -141
-209 -271 -40 -135 0 -262 98 -314 64 -33 177 -29 282 12 177 69 370 215 424
321 48 92 22 216 -62 299 -43 44 -139 88 -219 101 -78 12 -104 11 -194 -5z
m235 -106 c100 -30 184 -161 160 -249 -14 -50 -77 -120 -153 -168 -94 -60
-216 -118 -274 -132 -104 -24 -183 14 -199 95 -16 89 45 265 113 325 64 56
156 77 199 45 25 -19 53 -19 76 2 31 28 22 50 -27 69 -25 9 -45 20 -45 25 0
20 62 15 150 -12z"/>
<path d="M7947 12303 c-12 -11 -8 -41 7 -46 21 -8 37 13 25 35 -10 19 -21 23
-32 11z"/>
<path d="M50 12220 c0 -5 5 -10 10 -10 6 0 10 5 10 10 0 6 -4 10 -10 10 -5 0
-10 -4 -10 -10z"/>
<path d="M7957 12224 c-4 -4 -7 -22 -7 -40 0 -24 5 -34 21 -39 28 -9 31 -4 21
40 -7 38 -21 52 -35 39z"/>
<path d="M20828 12196 c-32 -7 -65 -19 -74 -27 -13 -11 -63 -14 -228 -15 -239
0 -269 -6 -421 -78 -147 -69 -255 -184 -255 -271 0 -60 84 -195 154 -248 40
-31 158 -81 222 -95 126 -27 313 -23 488 9 141 26 326 82 413 124 146 71 201
155 191 295 -5 68 -28 125 -73 178 -84 100 -278 159 -417 128z m174 -77 c104
-22 174 -71 197 -138 33 -99 -8 -215 -97 -274 -120 -79 -488 -167 -699 -167
-162 0 -311 43 -382 109 -40 38 -58 99 -43 150 17 56 127 155 217 196 122 56
199 70 385 69 261 -2 324 -19 376 -105 36 -60 64 -75 92 -47 22 22 13 36 -68
114 -63 61 -78 80 -69 91 14 16 23 16 91 2z"/>
<path d="M7973 12123 c-17 -6 -16 -68 1 -82 37 -31 65 38 30 73 -8 9 -16 16
-17 15 -1 0 -8 -3 -14 -6z"/>
<path d="M55 12111 c-3 -5 -1 -12 5 -16 5 -3 10 1 10 9 0 18 -6 21 -15 7z"/>
<path d="M26620 11906 c-25 -8 -72 -25 -105 -39 -69 -30 -78 -50 -44 -97 30
-40 65 -39 157 5 50 24 74 31 77 22 16 -50 7 -269 -20 -492 -8 -66 -19 -203
-25 -305 -5 -102 -12 -203 -15 -225 -4 -29 0 -49 15 -73 44 -71 67 -19 80 179
12 196 27 339 46 459 9 52 18 172 21 265 5 150 3 176 -13 219 -30 79 -89 107
-174 82z"/>
<path d="M9721 11862 c-8 -15 -7 -23 4 -32 23 -19 50 -8 50 20 0 32 -39 41
-54 12z"/>
<path d="M70 11810 c0 -13 5 -20 13 -17 6 2 12 10 12 17 0 7 -6 15 -12 18 -8
2 -13 -5 -13 -18z"/>
<path d="M9907 11763 c-16 -15 -5 -24 25 -21 41 4 50 28 11 28 -17 0 -33 -3
-36 -7z"/>
<path d="M80 11546 c0 -14 5 -28 10 -31 6 -4 10 7 10 24 0 17 -4 31 -10 31 -5
0 -10 -11 -10 -24z"/>
<path d="M86 11462 c-2 -4 -1 -14 5 -22 7 -12 9 -10 9 8 0 23 -5 28 -14 14z"/>
<path d="M80 11350 c0 -5 5 -10 10 -10 6 0 10 5 10 10 0 6 -4 10 -10 10 -5 0
-10 -4 -10 -10z"/>
<path d="M12230 11264 c-160 -29 -295 -78 -331 -120 -18 -20 -67 -106 -108
-189 -37 -76 -35 -169 6 -255 79 -168 194 -228 412 -218 179 9 343 79 484 208
83 76 117 131 124 204 5 47 2 64 -22 113 -55 113 -189 214 -320 241 -60 13
-210 22 -245 16z m257 -125 c124 -39 216 -134 230 -239 11 -76 -81 -183 -221
-256 -189 -100 -398 -110 -520 -26 -149 103 -134 399 23 459 25 9 64 30 86 45
72 50 268 58 402 17z"/>
<path d="M8013 11196 c-47 -39 -58 -96 -57 -281 2 -199 21 -509 39 -618 8 -46
10 -86 5 -91 -11 -11 -250 -32 -542 -46 -189 -9 -272 -8 -505 6 -294 17 -439
14 -590 -12 -53 -9 -203 -19 -377 -24 -159 -4 -292 -12 -298 -18 -5 -5 -8 -27
-6 -48 l3 -39 60 1 c218 4 568 25 665 39 92 13 156 16 320 11 590 -17 717 -18
900 -7 107 6 233 16 280 22 81 11 85 11 98 -10 14 -20 52 -30 52 -13 0 5 6 16
13 25 10 14 45 20 177 32 91 9 172 17 180 20 8 2 71 11 140 19 93 11 312 16
850 21 958 7 1470 32 2245 106 61 6 265 13 455 16 286 4 397 1 650 -16 168
-11 406 -28 530 -36 124 -9 302 -22 395 -30 243 -21 627 -43 865 -50 235 -7
484 -21 615 -35 50 -6 150 -14 224 -20 98 -7 139 -14 152 -26 15 -13 23 -14
51 -4 35 13 75 10 798 -60 168 -16 348 -32 400 -35 237 -14 246 -17 195 -65
-28 -27 -32 -52 -10 -70 20 -17 50 -4 103 45 38 34 65 42 89 27 8 -5 13 -79
17 -237 5 -207 27 -530 56 -815 55 -552 94 -1164 105 -1635 13 -572 20 -755
45 -1245 48 -927 37 -1503 -45 -2345 -8 -82 -28 -321 -45 -530 -65 -803 -85
-1007 -135 -1320 -13 -88 -29 -191 -35 -230 -6 -38 -18 -106 -26 -150 -8 -44
-32 -188 -54 -320 -21 -132 -45 -276 -54 -320 -14 -74 -66 -385 -71 -430 -2
-11 -10 -72 -18 -135 -9 -63 -18 -139 -22 -168 l-6 -52 46 0 c25 0 45 1 45 3
0 4 27 211 40 304 26 197 155 966 190 1138 13 63 54 327 80 510 37 257 58 480
90 965 6 85 15 202 20 260 6 58 15 164 20 235 6 72 13 159 15 195 3 36 12 135
21 220 15 153 24 287 45 650 10 176 15 1033 6 1048 -3 4 -8 102 -11 217 -4
116 -9 229 -11 251 -2 23 -6 93 -9 155 -20 422 -26 607 -31 934 -11 691 -32
1057 -105 1850 -18 196 -33 402 -61 809 -9 140 -9 170 3 178 7 5 40 6 73 3 33
-4 159 -10 280 -15 121 -4 296 -15 388 -26 164 -18 168 -18 200 1 29 17 52 19
262 17 127 -1 268 -4 315 -7 77 -5 534 -16 1195 -30 478 -10 702 -16 980 -25
154 -5 359 -12 455 -16 287 -9 923 -50 1165 -74 55 -5 206 -19 335 -30 129
-12 370 -34 535 -51 385 -38 871 -80 1400 -119 149 -11 329 -24 400 -30 72 -6
222 -17 335 -25 205 -15 308 -24 815 -71 342 -31 940 -90 1110 -110 72 -8 225
-23 340 -34 116 -11 271 -26 345 -35 74 -8 207 -21 295 -30 88 -9 209 -22 268
-30 187 -26 216 -19 199 47 l-8 33 -125 12 c-68 7 -207 22 -309 33 -173 18
-281 29 -820 80 -118 12 -278 27 -355 35 -77 8 -223 21 -325 30 -102 9 -284
27 -405 40 -244 28 -561 57 -850 80 -104 8 -242 19 -305 24 -63 6 -250 20
-415 31 -277 19 -489 34 -835 60 -172 13 -588 53 -885 85 -126 14 -288 30
-360 35 -71 6 -200 17 -285 25 -523 49 -1221 87 -1800 100 -135 3 -272 7 -305
10 -57 4 -216 9 -715 20 -616 14 -723 17 -950 26 -135 6 -461 12 -725 14 -264
2 -518 8 -565 14 -47 6 -161 15 -255 22 -93 6 -190 12 -215 14 -25 1 -90 8
-145 14 -55 6 -156 15 -225 21 -177 15 -305 27 -540 50 -113 11 -227 22 -255
25 -27 3 -119 10 -204 15 -85 6 -158 13 -163 16 -4 3 0 17 10 32 15 23 17 57
17 297 0 198 3 276 13 292 20 35 15 116 -9 147 -29 37 -85 37 -100 -1 -5 -15
-7 -44 -4 -64 4 -22 0 -58 -10 -93 -14 -49 -15 -75 -6 -199 14 -190 16 -386 3
-399 -7 -7 -57 -5 -153 6 -275 31 -320 34 -1059 66 -129 6 -370 22 -535 35
-165 14 -439 34 -610 45 -170 12 -357 25 -415 30 -314 29 -927 20 -1355 -20
-304 -28 -876 -64 -1185 -75 -85 -3 -465 -7 -845 -10 -648 -5 -867 -14 -983
-40 -40 -10 -256 -35 -293 -35 l-36 0 5 71 c3 39 -1 175 -8 303 -7 127 -14
290 -14 361 0 116 2 135 23 177 12 26 21 58 19 70 -5 34 -48 36 -85 4z"/>
<path d="M20673 11028 c-4 -7 -18 -69 -30 -138 -12 -69 -31 -161 -41 -205 -65
-267 -76 -315 -81 -365 -8 -77 -1 -111 35 -156 27 -32 34 -36 47 -26 11 10 13
27 10 75 -6 65 7 125 47 232 10 28 35 118 55 200 75 304 76 309 29 364 -27 32
-57 40 -71 19z"/>
<path d="M95 10901 c-3 -5 -1 -12 5 -16 5 -3 10 1 10 9 0 18 -6 21 -15 7z"/>
<path d="M100 10783 c0 -10 5 -25 10 -33 8 -12 10 -9 10 12 0 15 -4 30 -10 33
-5 3 -10 -2 -10 -12z"/>
<path d="M100 10721 c0 -6 5 -13 10 -16 6 -3 10 1 10 9 0 9 -4 16 -10 16 -5 0
-10 -4 -10 -9z"/>
<path d="M26015 10703 c-135 -31 -204 -118 -213 -264 -5 -92 12 -160 70 -268
55 -102 107 -170 197 -252 270 -249 588 -358 1006 -347 127 3 159 8 209 27
197 78 253 304 134 541 -50 99 -186 230 -309 297 -187 104 -363 147 -594 147
-171 0 -201 -8 -190 -52 13 -51 17 -52 160 -45 209 10 378 -24 564 -114 102
-49 123 -64 206 -146 105 -105 134 -157 142 -257 10 -114 -37 -210 -120 -251
-198 -96 -674 -44 -937 103 -254 143 -450 376 -450 536 0 81 54 173 123 208
43 23 120 23 144 1 43 -38 77 12 46 66 -28 48 -126 85 -188 70z"/>
<path d="M120 10500 c0 -19 3 -21 12 -12 9 9 9 15 0 24 -9 9 -12 7 -12 -12z"/>
<path d="M8069 9992 l-22 -19 16 -164 c9 -90 22 -229 28 -309 11 -138 27 -210
47 -210 6 0 20 9 33 19 32 26 31 66 -11 578 -4 56 -11 106 -15 112 -10 17 -50
13 -76 -7z"/>
<path d="M12435 9891 c-11 -5 -29 -19 -40 -31 -19 -21 -20 -34 -17 -288 3
-276 11 -332 47 -332 9 0 23 16 32 38 13 30 17 83 19 267 2 130 9 253 16 283
10 45 9 55 -3 63 -17 10 -27 10 -54 0z"/>
<path d="M15331 9697 c-44 -16 -60 -40 -43 -67 11 -18 6 -28 -52 -95 -36 -40
-74 -92 -86 -114 -34 -68 -53 -182 -48 -300 3 -98 6 -111 38 -169 118 -221
372 -267 665 -122 120 60 206 125 246 188 27 41 30 54 26 102 -5 75 -45 152
-123 243 -93 108 -254 236 -370 295 -43 22 -160 52 -197 51 -12 0 -37 -5 -56
-12z m192 -118 c80 -41 195 -128 271 -204 176 -179 213 -297 121 -389 -91 -91
-330 -178 -444 -161 -106 15 -195 78 -236 167 -21 45 -25 68 -25 149 0 190 33
274 153 392 86 84 84 83 160 46z"/>
<path d="M122 9691 c4 -13 18 -16 19 -4 0 4 -5 9 -11 12 -7 2 -11 -2 -8 -8z"/>
<path d="M140 9566 c0 -9 5 -16 10 -16 6 0 10 4 10 9 0 6 -4 13 -10 16 -5 3
-10 -1 -10 -9z"/>
<path d="M140 9508 c0 -7 5 -20 10 -28 8 -12 10 -11 10 7 0 12 -4 25 -10 28
-5 3 -10 0 -10 -7z"/>
<path d="M134 9425 c-8 -21 6 -41 17 -24 12 19 11 39 -1 39 -6 0 -13 -7 -16
-15z"/>
<path d="M20962 9373 c-37 -33 -44 -94 -49 -441 -6 -349 -2 -401 39 -509 15
-42 33 -65 85 -108 36 -31 73 -55 82 -53 30 6 22 36 -22 86 -60 67 -67 113
-67 438 0 265 9 388 36 481 18 61 10 84 -36 108 -37 19 -43 19 -68 -2z"/>
<path d="M8241 9200 c-41 -42 -47 -101 -27 -302 10 -101 16 -258 16 -414 0
-181 3 -253 12 -262 20 -20 46 -14 65 15 16 24 18 54 18 262 0 130 -2 322 -4
426 -3 138 0 202 9 232 10 34 11 45 0 58 -20 24 -56 18 -89 -15z"/>
<path d="M140 9125 c0 -8 5 -15 10 -15 6 0 10 7 10 15 0 8 -4 15 -10 15 -5 0
-10 -7 -10 -15z"/>
<path d="M140 9070 c0 -5 5 -10 10 -10 6 0 10 5 10 10 0 6 -4 10 -10 10 -5 0
-10 -4 -10 -10z"/>
<path d="M26786 9028 c-272 -21 -513 -106 -649 -229 -79 -71 -105 -117 -113
-197 -16 -148 99 -346 281 -486 236 -183 443 -279 726 -336 276 -57 485 -46
684 34 202 82 316 193 367 360 57 188 -39 448 -220 592 -68 54 -204 125 -286
148 -32 10 -91 20 -130 23 -39 3 -109 18 -156 33 -157 53 -327 72 -504 58z
m318 -117 c18 -7 26 -16 23 -25 -11 -28 19 -38 92 -31 l70 7 36 -36 c43 -44
64 -45 108 -6 19 17 42 30 50 30 58 0 224 -66 302 -120 60 -42 138 -122 167
-171 47 -81 61 -142 56 -243 -4 -77 -9 -100 -35 -151 -71 -137 -253 -257 -457
-302 -102 -23 -305 -22 -436 1 -253 45 -433 114 -625 241 -158 105 -293 245
-324 334 -30 91 3 196 86 270 116 104 295 167 593 210 79 12 254 7 294 -8z"/>
<path d="M156 8911 c-4 -5 -2 -12 3 -15 5 -4 12 -2 15 3 4 5 2 12 -3 15 -5 4
-12 2 -15 -3z"/>
<path d="M150 8705 c0 -8 5 -15 10 -15 6 0 10 7 10 15 0 8 -4 15 -10 15 -5 0
-10 -7 -10 -15z"/>
<path d="M160 8650 c0 -11 5 -20 10 -20 6 0 10 9 10 20 0 11 -4 20 -10 20 -5
0 -10 -9 -10 -20z"/>
<path d="M140 8586 c0 -2 7 -9 15 -16 12 -10 15 -10 15 4 0 9 -7 16 -15 16 -8
0 -15 -2 -15 -4z"/>
<path d="M160 8475 c0 -14 5 -25 10 -25 6 0 10 11 10 25 0 14 -4 25 -10 25 -5
0 -10 -11 -10 -25z"/>
<path d="M164 8386 c-3 -8 -1 -22 4 -32 8 -14 10 -13 14 10 6 29 -9 47 -18 22z"/>
<path d="M15890 8360 c-17 -17 -20 -33 -20 -102 0 -49 -8 -116 -20 -163 -29
-114 -34 -212 -20 -355 7 -69 15 -256 19 -417 5 -248 8 -295 22 -308 24 -25
33 -5 60 135 25 135 29 252 19 650 -5 190 -4 197 24 300 34 128 33 216 -5 256
-27 29 -52 31 -79 4z"/>
<path d="M165 8169 c-4 -6 -5 -13 -2 -16 7 -7 27 6 27 18 0 12 -17 12 -25 -2z"/>
<path d="M12452 8124 c-20 -14 -22 -23 -22 -107 0 -51 -7 -128 -16 -172 -12
-63 -14 -113 -9 -234 12 -312 39 -397 104 -332 18 18 19 33 14 258 -5 216 -3
247 16 340 27 131 16 229 -30 253 -24 13 -31 13 -57 -6z"/>
<path d="M175 8064 c2 -33 4 -62 4 -66 1 -5 6 -8 12 -8 8 0 9 18 4 58 -9 77
-24 89 -20 16z"/>
<path d="M166 7952 c-3 -6 -1 -14 5 -17 15 -10 25 3 12 16 -7 7 -13 7 -17 1z"/>
<path d="M155 7910 c-10 -17 12 -37 25 -24 8 8 6 15 -4 23 -10 9 -16 9 -21 1z"/>
<path d="M183 7813 c-18 -7 -16 -23 2 -23 8 0 15 7 15 15 0 8 -1 15 -2 14 -2
0 -9 -3 -15 -6z"/>
<path d="M4110 7690 c-112 -11 -159 -29 -207 -77 -48 -47 -65 -82 -81 -168 -6
-33 -14 -73 -17 -90 -4 -16 -10 -313 -15 -660 -12 -889 -60 -1789 -129 -2410
-6 -49 -15 -137 -21 -195 -6 -58 -24 -215 -40 -350 -45 -377 -79 -665 -90
-770 -6 -52 -15 -133 -20 -180 -5 -47 -12 -112 -15 -145 -29 -332 -88 -772
-151 -1140 -8 -49 -24 -142 -35 -205 -11 -63 -26 -160 -34 -215 -8 -55 -24
-156 -35 -225 -43 -271 -52 -419 -28 -463 42 -80 121 -141 229 -177 107 -36
337 -73 564 -90 77 -6 163 -13 190 -15 28 -2 113 -9 190 -15 344 -27 544 -46
870 -85 85 -10 210 -15 360 -14 234 1 255 11 50 24 -55 4 -127 13 -160 20
-265 59 -593 98 -1442 170 -293 25 -346 32 -564 79 -82 18 -162 51 -186 78
-32 36 -17 224 52 648 22 139 64 408 86 555 6 39 14 95 19 125 5 30 12 82 16
115 3 33 7 62 9 65 7 12 62 484 95 825 29 294 78 746 90 830 6 39 17 129 25
200 8 72 23 209 34 305 19 163 45 447 70 755 19 236 49 754 70 1210 4 88 8
336 9 550 4 670 15 847 61 950 62 140 372 137 971 -10 80 -19 188 -45 240 -56
52 -12 122 -27 155 -35 161 -37 349 -72 830 -154 219 -37 741 -110 1150 -160
156 -19 327 -41 630 -80 370 -47 768 -92 940 -105 28 -3 88 -9 135 -14 145
-17 277 -30 505 -51 316 -29 677 -68 905 -96 185 -23 477 -63 540 -74 30 -6
87 -14 125 -19 102 -14 439 -76 601 -110 188 -40 742 -185 884 -231 122 -39
222 -61 251 -55 40 9 53 35 32 66 -23 34 -33 39 -74 39 -38 0 -207 41 -429
103 -69 20 -161 45 -205 55 -44 11 -132 34 -197 51 -309 81 -982 197 -1448
250 -284 32 -459 51 -575 61 -71 6 -191 18 -265 26 -135 14 -334 33 -635 59
-88 8 -171 17 -185 20 -14 2 -117 14 -230 25 -198 20 -460 50 -605 70 -38 6
-162 21 -275 35 -113 14 -272 34 -355 45 -82 11 -190 25 -240 31 -227 27 -692
93 -910 130 -337 56 -386 65 -505 88 -58 12 -143 28 -190 37 -110 20 -288 59
-415 89 -443 106 -608 140 -730 150 -44 3 -100 7 -125 9 -25 2 -79 0 -120 -4z"/>
<path d="M176 7682 c-7 -12 22 -38 31 -28 4 3 0 14 -9 22 -9 10 -18 12 -22 6z"/>
<path d="M21000 7670 c0 -10 7 -45 15 -77 58 -219 60 -642 6 -1188 -12 -123
-4 -195 23 -217 21 -18 56 -24 57 -10 0 4 2 45 5 92 2 47 9 108 14 135 67 330
80 943 24 1164 -17 68 -67 121 -114 121 -23 0 -30 -4 -30 -20z"/>
<path d="M177 7583 c-10 -9 -8 -43 2 -43 5 0 14 7 21 15 17 21 -4 48 -23 28z"/>
<path d="M190 7520 c0 -11 -7 -20 -15 -20 -8 0 -15 -7 -15 -15 0 -18 5 -18 31
-5 20 11 27 60 9 60 -5 0 -10 -9 -10 -20z"/>
<path d="M193 7414 c3 -4 2 -15 -3 -25 -6 -11 -7 -20 -1 -24 10 -6 31 25 31
44 0 6 -7 11 -17 11 -9 0 -13 -3 -10 -6z"/>
<path d="M27646 7372 c-3 -5 -5 -60 -4 -123 1 -106 -4 -168 -33 -439 -20 -183
-15 -1244 5 -1307 8 -25 28 -30 44 -10 7 8 14 201 21 557 9 487 12 565 35 735
13 105 30 255 36 335 11 137 10 148 -9 192 -19 45 -44 68 -75 68 -8 0 -17 -4
-20 -8z"/>
<path d="M191 7306 c-15 -18 -11 -48 6 -53 7 -3 15 7 19 22 8 33 -8 52 -25 31z"/>
<path d="M201 7231 c-1 -7 -7 -11 -16 -8 -23 10 -26 -9 -6 -34 l19 -24 7 27
c4 15 5 33 2 40 -4 10 -6 10 -6 -1z"/>
<path d="M190 7056 c0 -7 7 -19 15 -26 13 -11 15 -8 15 14 0 16 -5 26 -15 26
-8 0 -15 -6 -15 -14z"/>
<path d="M182 6894 c0 -23 6 -38 18 -44 23 -12 30 -4 30 39 0 31 -3 36 -24 37
-21 2 -24 -3 -24 -32z"/>
<path d="M194 6796 c3 -14 1 -36 -6 -51 -10 -22 -9 -27 8 -39 18 -14 18 -15 0
-34 -17 -20 -17 -21 2 -33 16 -10 18 -17 11 -30 -6 -12 -5 -20 2 -24 6 -4 7
-14 3 -24 -4 -9 -8 -59 -8 -111 -1 -77 2 -99 16 -114 10 -11 20 -17 23 -14 3
3 -1 40 -10 81 -14 67 -14 80 -1 110 13 33 11 69 -9 133 -4 12 -2 25 4 28 6 4
9 17 6 29 -5 19 -9 49 -14 93 0 7 -8 15 -17 18 -13 5 -15 1 -10 -18z"/>
<path d="M13128 6319 c-24 -14 -51 -111 -43 -151 11 -49 20 -1428 10 -1618 -2
-52 -7 -419 -10 -815 -3 -396 -8 -738 -10 -760 -16 -132 -55 -1640 -55 -2114
0 -292 15 -786 26 -838 4 -20 11 -23 55 -23 l51 0 -6 113 c-15 266 -17 1041
-6 1597 7 327 14 611 15 630 1 19 5 168 9 330 4 162 9 347 12 410 3 63 7 736
9 1495 2 992 6 1427 15 1548 12 157 12 168 -5 187 -20 22 -41 25 -67 9z"/>
<path d="M216 6292 c-3 -6 -1 -14 5 -17 15 -10 25 3 12 16 -7 7 -13 7 -17 1z"/>
<path d="M220 6205 c0 -19 5 -35 10 -35 6 0 10 16 10 35 0 19 -4 35 -10 35 -5
0 -10 -16 -10 -35z"/>
<path d="M6350 6190 c-277 -28 -548 -155 -735 -344 -96 -97 -127 -142 -165
-234 -42 -103 -54 -174 -53 -307 1 -101 5 -133 28 -205 25 -78 33 -90 99 -155
115 -114 291 -192 532 -236 106 -19 143 -21 334 -16 240 6 317 18 532 86 302
95 480 189 623 328 97 94 139 148 176 228 40 85 47 152 24 231 -40 140 -134
254 -276 336 -161 93 -318 139 -471 139 -71 0 -92 4 -111 20 -39 30 -161 89
-219 106 -108 31 -183 36 -318 23z m233 -71 c40 -6 96 -20 125 -31 72 -27 68
-48 -13 -67 -126 -29 -192 -52 -254 -88 -66 -39 -100 -85 -87 -118 8 -23 39
-12 101 35 28 21 78 50 113 64 66 28 191 60 199 52 12 -11 -9 -38 -54 -68 -68
-47 -94 -74 -87 -92 8 -20 54 -21 100 -1 19 8 69 49 112 91 l77 76 75 -6 c214
-18 416 -102 541 -226 131 -130 158 -248 87 -391 -42 -85 -138 -189 -240 -263
-234 -166 -626 -299 -953 -321 -97 -7 -303 14 -410 41 -226 57 -407 160 -469
267 -79 135 -72 375 16 557 34 69 58 102 132 176 241 241 580 361 889 313z"/>
<path d="M232 6094 c3 -50 18 -54 18 -5 0 23 -5 41 -10 41 -6 0 -10 -16 -8
-36z"/>
<path d="M10688 6073 c-24 -6 -29 -29 -17 -81 7 -31 12 -247 13 -632 1 -437 6
-654 20 -860 23 -352 21 -340 51 -340 14 0 34 9 45 20 17 17 20 33 20 119 0
54 -7 190 -16 302 -13 167 -14 293 -9 689 8 596 -3 752 -55 780 -19 10 -24 11
-52 3z"/>
<path d="M230 5949 c0 -11 5 -17 10 -14 6 3 10 13 10 21 0 8 -4 14 -10 14 -5
0 -10 -9 -10 -21z"/>
<path d="M305 5959 c-4 -6 -4 -13 -1 -16 8 -8 36 5 36 17 0 13 -27 13 -35 -1z"/>
<path d="M215 5911 c-8 -15 3 -31 21 -31 9 0 14 7 12 17 -4 20 -24 28 -33 14z"/>
<path d="M223 5815 c-3 -9 -3 -18 0 -22 10 -10 37 6 37 22 0 20 -29 20 -37 0z"/>
<path d="M241 5744 c0 -11 3 -14 6 -6 3 7 2 16 -1 19 -3 4 -6 -2 -5 -13z"/>
<path d="M230 5707 c0 -7 7 -22 15 -33 12 -16 14 -17 15 -2 0 23 -11 48 -21
48 -5 0 -9 -6 -9 -13z"/>
<path d="M227 5609 c-6 -23 1 -49 13 -49 17 0 20 19 6 44 -13 26 -14 26 -19 5z"/>
<path d="M225 5500 c-7 -12 2 -30 16 -30 5 0 9 9 9 20 0 21 -15 27 -25 10z"/>
<path d="M240 5440 c0 -19 3 -21 12 -12 9 9 9 15 0 24 -9 9 -12 7 -12 -12z"/>
<path d="M230 5400 c0 -5 5 -10 10 -10 6 0 10 5 10 10 0 6 -4 10 -10 10 -5 0
-10 -4 -10 -10z"/>
<path d="M250 5312 c0 -6 -3 -17 -6 -26 -4 -10 -1 -16 9 -16 21 0 29 26 11 40
-9 8 -14 9 -14 2z"/>
<path d="M245 5230 c-3 -5 -1 -26 4 -46 6 -21 8 -41 5 -45 -2 -4 0 -10 5 -13
5 -3 12 10 15 28 11 56 -9 108 -29 76z"/>
<path d="M256 5013 c-9 -31 -10 -88 -2 -102 14 -22 26 8 26 67 0 51 -13 70
-24 35z"/>
<path d="M243 4855 c-3 -9 -3 -18 0 -22 10 -10 37 6 37 22 0 20 -29 20 -37 0z"/>
<path d="M240 4799 l-25 -10 25 -19 c34 -26 40 -25 40 10 0 33 -3 34 -40 19z"/>
<path d="M258 4733 c-17 -28 -11 -208 6 -208 9 0 15 71 15 170 0 30 -13 54
-21 38z"/>
<path d="M235 4480 c-3 -5 0 -12 6 -15 6 -4 9 -26 8 -49 -2 -23 0 -46 3 -51 3
-6 9 -27 13 -47 5 -28 3 -38 -9 -45 -17 -9 -13 -43 5 -43 5 0 9 -10 9 -22 0
-17 3 -19 11 -11 9 9 9 29 2 72 -5 34 -6 67 -1 75 5 9 6 43 2 75 -5 46 -11 60
-25 64 -11 3 -21 1 -24 -3z"/>
<path d="M267 4123 c-12 -11 -8 -23 8 -23 8 0 15 7 15 15 0 16 -12 20 -23 8z"/>
<path d="M250 4058 c0 -7 4 -19 9 -27 11 -17 25 3 17 24 -7 18 -26 20 -26 3z"/>
<path d="M272 4003 c-8 -15 -9 -24 -1 -28 5 -4 9 -17 7 -28 -1 -12 2 -24 7
-27 14 -7 18 32 7 71 -8 33 -9 33 -20 12z"/>
<path d="M275 3891 c-3 -6 -5 -27 -5 -48 2 -51 -6 -93 -19 -106 -16 -16 -13
-30 5 -23 14 5 16 1 11 -23 -4 -19 -1 -33 8 -41 8 -7 15 -11 16 -9 4 26 10 88
10 104 0 106 -3 145 -11 150 -5 3 -11 1 -15 -4z"/>
<path d="M7380 3710 c36 -12 80 -12 80 0 0 6 -24 10 -52 9 -42 -1 -48 -3 -28
-9z"/>
<path d="M280 3600 c0 -5 7 -10 16 -10 8 0 12 5 9 10 -3 6 -10 10 -16 10 -5 0
-9 -4 -9 -10z"/>
<path d="M274 3520 c-1 -26 3 -40 11 -40 18 0 28 49 14 66 -18 22 -24 17 -25
-26z"/>
<path d="M5913 3510 c-28 -12 -46 -45 -38 -71 4 -12 23 -28 43 -36 55 -23 390
-36 692 -28 140 4 506 10 812 14 435 5 560 9 570 19 29 29 -8 34 -362 53 -102
5 -324 12 -495 14 -899 14 -1108 21 -1180 39 -11 3 -30 1 -42 -4z"/>
<path d="M281 3398 c-5 -13 -5 -27 0 -32 5 -6 9 -22 9 -37 0 -33 16 -47 23
-20 7 28 -4 111 -15 111 -5 0 -13 -10 -17 -22z"/>
<path d="M270 3200 c-8 -5 -12 -10 -10 -12 39 -25 51 -28 56 -14 12 30 -15 46
-46 26z"/>
<path d="M276 3128 c-11 -15 -12 -25 -6 -34 6 -6 9 -27 8 -45 -3 -28 1 -35 18
-37 21 -3 23 7 15 121 -1 23 -17 21 -35 -5z"/>
<path d="M7005 3116 c-186 -41 -369 -156 -550 -347 -185 -195 -296 -388 -341
-592 -20 -92 -20 -292 0 -408 18 -102 74 -273 113 -345 40 -74 155 -176 229
-203 32 -12 73 -28 91 -37 88 -40 374 -56 538 -29 328 53 615 267 615 457 0
203 -292 465 -745 667 -71 32 -148 64 -169 71 -73 24 -126 51 -126 65 0 14 9
17 120 35 165 28 352 86 470 145 121 61 220 171 220 244 0 94 -102 214 -226
266 -52 22 -165 27 -239 11z m230 -103 c74 -39 128 -112 127 -174 -2 -102 -93
-163 -362 -243 -86 -25 -368 -93 -445 -106 -83 -15 -115 -32 -115 -64 0 -29
22 -48 85 -71 28 -10 93 -35 145 -57 52 -22 140 -58 195 -81 347 -143 630
-341 709 -494 81 -159 -56 -338 -331 -432 -207 -71 -487 -76 -698 -12 -102 30
-131 43 -174 73 -23 17 -24 19 -11 59 l14 41 -41 34 c-42 35 -71 96 -107 224
-20 74 -46 266 -46 343 0 203 121 441 339 670 126 132 306 251 449 298 78 25
211 21 267 -8z"/>
<path d="M295 2990 c-7 -12 2 -30 16 -30 12 0 12 27 0 35 -5 3 -12 1 -16 -5z"/>
<path d="M278 2943 c-2 -5 -4 -26 -4 -48 1 -33 4 -40 21 -40 34 0 28 94 -7 95
-4 0 -8 -3 -10 -7z"/>
<path d="M275 2820 c-4 -6 -2 -17 4 -24 13 -16 11 -146 -3 -168 -8 -14 -7 -22
6 -35 10 -9 20 -14 24 -11 11 12 14 221 3 235 -14 16 -26 17 -34 3z"/>
<path d="M299 2533 c-1 -10 -1 -24 0 -31 1 -8 -3 -20 -10 -29 -11 -12 -10 -17
4 -24 22 -13 21 -31 -4 -81 -11 -22 -17 -43 -12 -47 13 -9 33 -80 27 -96 -7
-17 16 -31 26 -15 4 7 5 58 3 114 -3 55 -5 128 -6 160 -1 37 -7 61 -14 63 -7
3 -14 -4 -14 -14z"/>
<path d="M11110 2303 c-82 -14 -157 -40 -249 -85 -87 -42 -117 -64 -192 -137
-74 -73 -94 -100 -128 -171 -71 -152 -122 -428 -157 -845 -10 -124 -6 -415 6
-470 18 -80 46 -96 89 -51 23 24 23 27 14 153 -20 254 27 850 82 1068 46 180
167 313 362 399 172 75 374 73 610 -4 125 -42 268 -128 308 -188 78 -115 -38
-189 -380 -241 -71 -11 -166 -23 -210 -26 -44 -4 -93 -8 -110 -10 -16 -3 -108
-7 -204 -11 -150 -6 -177 -10 -193 -26 -10 -10 -18 -22 -18 -27 0 -23 67 -83
271 -247 206 -164 348 -288 412 -358 168 -184 184 -309 57 -436 -102 -102
-269 -161 -514 -180 -147 -12 -233 -8 -375 16 -162 28 -233 61 -339 159 -84
76 -99 84 -120 63 -60 -60 124 -222 323 -285 115 -37 154 -43 300 -50 360 -15
655 71 816 239 149 155 125 310 -82 532 -82 88 -320 299 -422 373 -122 90
-137 103 -137 122 0 16 14 19 158 24 276 10 564 58 706 117 134 56 213 152
192 234 -15 59 -170 184 -306 247 -177 81 -430 126 -570 102z"/>
<path d="M307 2173 c-12 -19 -17 -171 -5 -175 8 -3 8 -9 -1 -25 -27 -52 -1
-162 40 -163 3 0 4 28 1 63 -2 34 -4 89 -4 122 0 33 -3 65 -6 70 -4 6 -7 31
-7 57 -1 46 -8 67 -18 51z"/>
<path d="M312 1781 c-17 -10 -19 -170 -2 -201 24 -45 35 -16 35 98 0 110 -4
122 -33 103z"/>
<path d="M317 1513 c-12 -3 -15 -11 -11 -28 3 -12 1 -26 -5 -29 -6 -4 -7 -14
-2 -24 23 -46 28 -80 16 -94 -8 -8 -11 -26 -8 -45 4 -27 10 -33 29 -33 26 0
30 10 12 28 -8 8 -8 15 -1 24 8 9 8 31 2 68 -5 30 -7 71 -3 91 6 39 0 48 -29
42z"/>
<path d="M323 1194 c0 -34 -5 -51 -18 -60 -16 -12 -17 -18 -7 -39 10 -22 15
-24 32 -15 19 10 21 19 18 82 -3 80 -25 108 -25 32z"/>
<path d="M319 999 c-8 -16 -8 -28 0 -46 8 -16 8 -30 1 -43 -16 -29 10 -38 31
-11 14 17 16 28 9 41 -6 10 -10 30 -10 44 0 33 -16 42 -31 15z"/>
<path d="M321 851 c-11 -7 -12 -17 -4 -50 7 -24 7 -43 2 -47 -16 -9 -10 -24
10 -24 23 0 29 18 29 83 0 47 -8 56 -37 38z"/>
<path d="M324 707 c-8 -22 11 -46 26 -31 7 7 5 17 -4 30 -14 18 -15 18 -22 1z"/>
<path d="M325 617 c-4 -25 -4 -54 0 -66 3 -11 1 -29 -5 -41 -6 -11 -7 -20 -1
-20 5 0 9 -10 10 -22 2 -74 7 -108 18 -119 9 -9 7 -21 -6 -53 -16 -37 -17 -48
-5 -106 15 -73 17 -111 8 -158 -6 -29 -4 -32 19 -32 25 0 26 2 20 48 -2 26 -5
114 -5 197 0 82 -2 154 -6 160 -10 15 -10 87 0 113 4 13 5 29 1 35 -5 7 -8 32
-8 57 0 34 -4 45 -17 48 -13 2 -18 -7 -23 -41z"/>
</g>
</svg>
