<?xml version="1.0" standalone="no"?>
<!DOCTYPE svg PUBLIC "-//W3C//DTD SVG 20010904//EN"
 "http://www.w3.org/TR/2001/REC-SVG-20010904/DTD/svg10.dtd">
<svg version="1.0" xmlns="http://www.w3.org/2000/svg"
 width="2448.000000pt" height="3264.000000pt" viewBox="0 0 2448.000000 3264.000000"
 preserveAspectRatio="xMidYMid meet">
<metadata>
Created by potrace 1.12, written by Peter Selinger 2001-2015
</metadata>
<g transform="translate(0.000000,3264.000000) scale(0.100000,-0.100000)"
fill="#000000" stroke="none">
<path d="M1145 31900 c3 -5 8 -10 11 -10 2 0 4 5 4 10 0 6 -5 10 -11 10 -5 0
-7 -4 -4 -10z"/>
<path d="M1472 31899 c2 -6 8 -10 13 -10 5 0 11 4 13 10 2 6 -4 11 -13 11 -9
0 -15 -5 -13 -11z"/>
<path d="M1960 31880 c0 -5 5 -10 10 -10 6 0 10 5 10 10 0 6 -4 10 -10 10 -5
0 -10 -4 -10 -10z"/>
<path d="M2625 31870 c3 -5 8 -10 11 -10 2 0 4 5 4 10 0 6 -5 10 -11 10 -5 0
-7 -4 -4 -10z"/>
<path d="M3110 31872 c0 -18 19 -24 37 -13 10 6 13 11 6 11 -6 0 -18 3 -27 6
-9 3 -16 1 -16 -4z"/>
<path d="M3610 31870 c0 -14 39 -32 52 -24 7 5 5 11 -7 21 -22 15 -45 17 -45
3z"/>
<path d="M3545 31859 c-10 -14 -1 -21 19 -13 9 3 13 10 10 15 -7 12 -21 11
-29 -2z"/>
<path d="M3770 31860 c0 -5 17 -10 38 -9 33 1 34 2 12 9 -36 11 -50 11 -50 0z"/>
<path d="M3910 31855 c0 -8 5 -15 10 -15 6 0 10 7 10 15 0 8 -4 15 -10 15 -5
0 -10 -7 -10 -15z"/>
<path d="M4061 31861 c-18 -11 -5 -18 44 -22 30 -3 40 0 40 11 0 17 -62 26
-84 11z"/>
<path d="M4175 31861 c-3 -6 -4 -14 -2 -18 3 -5 132 -8 288 -8 218 0 283 3
287 13 3 9 -43 12 -215 10 -120 -1 -248 1 -284 6 -45 5 -69 4 -74 -3z"/>
<path d="M3715 31850 c4 -6 11 -8 16 -5 14 9 11 15 -7 15 -8 0 -12 -5 -9 -10z"/>
<path d="M4865 31850 c-8 -14 -8 -14 30 -27 32 -11 75 -1 75 17 0 5 -3 10 -7
11 -5 0 -27 2 -50 5 -24 3 -44 0 -48 -6z"/>
<path d="M5108 31849 c-100 -6 -143 -18 -72 -20 21 -1 233 -3 469 -5 237 -2
541 -5 677 -8 145 -2 250 0 254 5 3 5 12 5 22 0 9 -5 71 -9 137 -9 66 0 323
-3 570 -6 384 -5 1336 -16 1545 -17 36 0 227 0 425 0 198 0 495 -2 660 -4 165
-2 498 -6 740 -9 242 -3 638 -9 880 -12 242 -4 456 -5 475 -3 19 1 51 2 70 1
87 -5 1276 -9 1287 -5 7 3 13 11 13 19 0 14 -15 15 -170 11 -211 -4 -316 -1
-509 18 -30 2 -559 7 -1175 10 -617 3 -1204 7 -1306 9 -379 9 -3411 28 -4100
25 -85 0 -162 0 -170 0 -155 6 -413 6 -473 2 -43 -4 -80 -4 -83 -1 -7 6 -45 6
-166 -1z"/>
<path d="M4800 31841 c0 -12 29 -23 41 -15 18 10 9 24 -16 24 -14 0 -25 -4
-25 -9z"/>
<path d="M13308 31783 c-10 -2 -18 -9 -18 -14 0 -12 0 -12 253 -14 120 -1 220
2 223 7 3 4 2 8 -3 9 -4 0 -17 2 -28 5 -18 4 -129 6 -290 5 -33 0 -73 1 -90 3
-16 3 -38 2 -47 -1z"/>
<path d="M13794 31768 c-7 -12 15 -17 61 -16 22 1 65 0 96 -2 60 -4 91 6 68
21 -17 11 -219 8 -225 -3z"/>
<path d="M14058 31769 c-22 -14 15 -18 189 -20 168 -3 207 1 190 17 -8 9 -366
11 -379 3z"/>
<path d="M14509 31769 c-12 -8 -12 -10 0 -18 13 -8 79 -4 90 5 15 13 -71 25
-90 13z"/>
<path d="M14455 31760 c-3 -5 1 -10 9 -10 9 0 16 5 16 10 0 6 -4 10 -9 10 -6
0 -13 -4 -16 -10z"/>
<path d="M14622 31759 c4 -13 34 -15 157 -10 51 2 10 12 -74 17 -71 5 -87 4
-83 -7z"/>
<path d="M14824 31759 c-2 -4 6 -9 18 -13 25 -6 68 2 68 13 0 9 -80 8 -86 0z"/>
<path d="M15036 31761 c-7 -10 52 -24 65 -15 5 3 7 10 4 15 -8 11 -62 12 -69
0z"/>
<path d="M14955 31750 c8 -13 35 -13 55 0 11 7 5 10 -23 10 -23 0 -36 -4 -32
-10z"/>
<path d="M15245 31750 c-4 -6 7 -10 24 -10 17 0 31 5 31 10 0 6 -11 10 -24 10
-14 0 -28 -4 -31 -10z"/>
<path d="M15320 31750 c0 -11 85 -9 96 3 4 4 -16 7 -44 7 -29 0 -52 -5 -52
-10z"/>
<path d="M15670 31750 c-11 -7 -5 -10 23 -10 23 0 36 4 32 10 -8 13 -35 13
-55 0z"/>
<path d="M15760 31750 c-22 -7 -21 -8 13 -9 23 -1 36 3 32 9 -7 11 -10 11 -45
0z"/>
<path d="M15508 31738 c9 -9 15 -9 24 0 9 9 7 12 -12 12 -19 0 -21 -3 -12 -12z"/>
<path d="M15628 31743 c7 -3 16 -2 19 1 4 3 -2 6 -13 5 -11 0 -14 -3 -6 -6z"/>
<path d="M16430 31740 c0 -5 23 -10 52 -10 28 0 48 3 45 6 -11 11 -97 15 -97
4z"/>
<path d="M12275 31641 c-14 -13 -2 -31 19 -31 31 0 40 -14 26 -41 -10 -18 -17
-20 -57 -14 -35 5 -49 3 -64 -11 -22 -20 -26 -42 -4 -24 10 8 29 10 54 6 34
-5 42 -2 75 30 31 31 36 32 36 14 0 -11 7 -20 15 -20 9 0 15 9 15 25 0 14 -5
25 -11 25 -6 0 -19 10 -29 23 -16 19 -63 31 -75 18z"/>
<path d="M12123 31619 c-16 -16 -24 -17 -56 -8 -31 8 -43 7 -63 -6 -13 -8 -24
-23 -24 -33 0 -9 -12 -28 -25 -41 -40 -37 -31 -56 13 -25 12 8 22 22 22 30 0
8 9 14 20 14 10 0 24 9 30 20 13 24 33 26 50 5 7 -8 22 -15 34 -15 29 1 70 34
63 52 -9 24 -43 28 -64 7z"/>
<path d="M8939 31616 c7 -8 9 -25 5 -41 -6 -23 -4 -26 12 -23 14 2 20 13 22
41 3 34 1 37 -24 37 -22 0 -24 -3 -15 -14z"/>
<path d="M11860 31613 c-41 -7 -87 -13 -102 -13 -49 0 -78 -17 -78 -48 0 -15
-6 -34 -12 -40 -10 -10 -10 -15 2 -22 22 -14 35 -7 38 22 2 14 11 29 20 32 9
3 24 10 32 14 8 5 32 17 54 26 35 15 39 15 50 1 8 -12 24 -15 51 -13 42 3 52
15 33 39 -12 14 -21 14 -88 2z"/>
<path d="M12420 31611 c0 -19 47 -64 58 -57 17 11 15 53 -4 60 -24 9 -54 7
-54 -3z"/>
<path d="M12536 31612 c-7 -12 34 -92 46 -92 6 0 8 13 4 31 -3 17 -6 35 -6 40
0 12 -38 30 -44 21z"/>
<path d="M8690 31601 c0 -19 22 -23 38 -7 15 15 14 16 -11 16 -15 0 -27 -4
-27 -9z"/>
<path d="M9659 31571 l-16 -38 43 5 44 5 0 -37 c0 -33 3 -37 22 -34 15 2 24
13 31 38 5 19 17 44 28 56 10 11 19 24 19 28 0 5 -29 5 -65 1 -40 -4 -71 -3
-78 3 -9 8 -16 0 -28 -27z"/>
<path d="M6020 31565 c1 -26 2 -28 11 -12 8 14 8 22 0 30 -8 8 -11 3 -11 -18z"/>
<path d="M7188 31581 c-14 -4 -38 -30 -38 -42 0 -13 63 -19 77 -8 10 9 18 8
31 -5 23 -20 48 -21 59 -1 7 12 14 13 40 3 57 -21 55 19 -2 46 -30 15 -125 19
-167 7z"/>
<path d="M8775 31552 c-39 -35 -44 -37 -100 -35 -33 2 -67 4 -75 5 -8 1 -25
-2 -37 -6 -18 -6 -25 -2 -34 18 l-12 25 -25 -19 c-13 -11 -33 -20 -43 -20 -19
0 -35 -17 -25 -28 4 -3 20 2 36 11 25 15 30 15 43 3 8 -8 32 -18 53 -22 21 -3
47 -11 57 -16 12 -6 23 -5 33 3 9 7 29 9 53 5 23 -3 42 -2 46 4 10 17 25 11
37 -15 9 -20 16 -23 37 -18 14 3 39 20 56 37 16 17 39 36 50 43 18 11 17 12
-15 13 -28 0 -41 -7 -61 -31 -15 -19 -31 -29 -37 -25 -17 10 -15 61 3 76 16
13 20 30 8 30 -5 0 -26 -17 -48 -38z"/>
<path d="M9850 31564 c-6 -14 -10 -28 -10 -31 0 -4 -7 -14 -16 -24 -14 -15
-13 -19 11 -45 22 -24 27 -26 40 -13 12 12 13 20 3 46 -9 24 -9 38 0 57 15 33
41 33 92 1 33 -21 46 -24 72 -17 34 8 51 32 23 32 -9 0 -26 -5 -38 -11 -18
-10 -23 -8 -35 10 -12 17 -24 21 -73 21 -55 0 -60 -2 -69 -26z"/>
<path d="M11640 31580 c0 -5 5 -10 10 -10 6 0 10 5 10 10 0 6 -4 10 -10 10 -5
0 -10 -4 -10 -10z"/>
<path d="M6957 31569 c-9 -5 -21 -7 -27 -4 -5 3 -14 -4 -20 -15 -11 -21 -44
-27 -55 -10 -4 7 -13 7 -26 0 -21 -12 -54 0 -62 22 -3 11 -7 11 -19 0 -9 -7
-23 -10 -32 -6 -9 3 -23 4 -31 0 -12 -4 -13 -9 -4 -24 9 -15 8 -26 -6 -56 -21
-45 -14 -55 24 -33 16 9 36 17 45 17 9 0 19 7 22 15 9 21 31 19 44 -6 11 -19
13 -20 37 -4 18 12 28 14 36 6 18 -18 37 -12 37 11 0 26 47 70 69 66 18 -4 17
-54 -2 -76 -13 -17 -1 -28 40 -35 39 -8 45 0 34 41 -7 22 -5 36 5 49 13 18 19
53 8 53 -3 0 -15 -5 -26 -11 -14 -8 -23 -8 -31 0 -14 14 -36 14 -60 0z"/>
<path d="M9509 31558 c-6 -12 -23 -33 -36 -45 -28 -26 -31 -48 -5 -34 9 5 24
12 33 14 9 3 19 21 23 42 9 45 2 55 -15 23z"/>
<path d="M12634 31548 c-9 -28 -12 -49 -17 -113 -3 -27 -8 -58 -12 -67 -8 -20
19 -26 31 -7 7 13 17 209 10 209 -3 0 -8 -10 -12 -22z"/>
<path d="M9140 31548 c0 -6 -10 -22 -21 -34 -28 -29 -19 -54 19 -54 16 0 35
-7 42 -15 16 -19 20 -19 49 4 l25 19 -37 16 c-24 9 -37 22 -37 33 0 19 -18 43
-32 43 -4 0 -8 -5 -8 -12z"/>
<path d="M6560 31536 c0 -9 5 -16 10 -16 6 0 10 4 10 9 0 6 -4 13 -10 16 -5 3
-10 -1 -10 -9z"/>
<path d="M5735 31530 c3 -5 10 -10 16 -10 5 0 9 5 9 10 0 6 -7 10 -16 10 -8 0
-12 -4 -9 -10z"/>
<path d="M5844 31505 c-8 -27 -8 -35 1 -35 19 0 48 38 42 55 -11 26 -32 16
-43 -20z"/>
<path d="M7522 31520 c-15 -24 -16 -50 -2 -50 6 0 10 11 10 25 0 14 5 25 10
25 6 0 10 5 10 10 0 16 -14 11 -28 -10z"/>
<path d="M8100 31520 c0 -16 7 -20 36 -20 l37 0 -26 20 c-14 11 -30 20 -36 20
-6 0 -11 -9 -11 -20z"/>
<path d="M11787 31513 c-45 -32 -36 -46 21 -37 38 6 42 9 42 35 0 36 -15 37
-63 2z"/>
<path d="M8972 31491 c-36 -44 -38 -51 -19 -51 18 0 53 40 60 68 8 33 -6 27
-41 -17z"/>
<path d="M11525 31520 c-3 -5 1 -10 10 -10 9 0 13 5 10 10 -3 6 -8 10 -10 10
-2 0 -7 -4 -10 -10z"/>
<path d="M11584 31515 c-15 -12 -16 -16 -6 -23 8 -5 12 -20 10 -33 -2 -20 1
-24 22 -24 21 0 26 5 28 31 2 20 -3 36 -16 47 -16 15 -21 15 -38 2z"/>
<path d="M6330 31510 c0 -5 7 -10 15 -10 8 0 15 5 15 10 0 6 -7 10 -15 10 -8
0 -15 -4 -15 -10z"/>
<path d="M9366 31504 c-11 -28 -7 -35 14 -24 23 12 27 40 6 40 -8 0 -17 -7
-20 -16z"/>
<path d="M10073 31504 c-3 -8 4 -26 18 -40 23 -25 23 -26 6 -56 -22 -39 -8
-61 22 -34 27 25 37 73 18 94 -7 9 -17 25 -20 35 -8 21 -36 22 -44 1z"/>
<path d="M5980 31500 c0 -5 7 -10 15 -10 8 0 15 5 15 10 0 6 -7 10 -15 10 -8
0 -15 -4 -15 -10z"/>
<path d="M6110 31485 c-11 -20 -11 -28 -1 -38 10 -9 15 -8 27 8 8 11 13 26 12
34 -5 25 -24 23 -38 -4z"/>
<path d="M8023 31503 c-22 -8 -14 -23 11 -23 13 0 29 7 36 15 10 13 9 15 -11
14 -13 0 -30 -3 -36 -6z"/>
<path d="M8365 31501 c-6 -11 9 -23 19 -14 9 9 7 23 -3 23 -6 0 -12 -4 -16 -9z"/>
<path d="M7955 31489 c-10 -15 3 -25 16 -12 7 7 7 13 1 17 -6 3 -14 1 -17 -5z"/>
<path d="M11457 31483 l-28 -15 25 -25 c31 -30 46 -23 46 23 0 38 -2 39 -43
17z"/>
<path d="M6315 31469 c-10 -15 3 -25 16 -12 7 7 7 13 1 17 -6 3 -14 1 -17 -5z"/>
<path d="M9580 31460 c0 -5 7 -10 15 -10 8 0 15 5 15 10 0 6 -7 10 -15 10 -8
0 -15 -4 -15 -10z"/>
<path d="M9506 31431 c-12 -13 -14 -21 -6 -26 18 -11 40 3 40 25 0 25 -12 26
-34 1z"/>
<path d="M11380 31440 c0 -5 7 -10 15 -10 8 0 15 5 15 10 0 6 -7 10 -15 10 -8
0 -15 -4 -15 -10z"/>
<path d="M11975 31439 c-10 -15 3 -25 16 -12 7 7 7 13 1 17 -6 3 -14 1 -17 -5z"/>
<path d="M12370 31430 c0 -19 11 -26 23 -14 8 8 -3 34 -14 34 -5 0 -9 -9 -9
-20z"/>
<path d="M7422 31428 c6 -18 28 -21 28 -4 0 9 -7 16 -16 16 -9 0 -14 -5 -12
-12z"/>
<path d="M12670 31409 c-12 -21 -5 -77 8 -65 6 6 11 86 5 86 -1 0 -7 -9 -13
-21z"/>
<path d="M9194 31406 c-8 -22 4 -36 32 -36 31 0 31 13 -1 34 -22 15 -26 15
-31 2z"/>
<path d="M9930 31390 c0 -13 7 -20 18 -20 26 0 34 11 21 27 -17 20 -39 16 -39
-7z"/>
<path d="M11764 31395 c-9 -23 14 -45 26 -25 5 8 8 19 7 24 -6 17 -27 18 -33
1z"/>
<path d="M6286 31393 c-9 -9 -7 -33 3 -33 12 0 22 28 12 34 -5 3 -11 3 -15 -1z"/>
<path d="M10326 31391 c-4 -5 -2 -12 3 -15 5 -4 12 -2 15 3 4 5 2 12 -3 15 -5
4 -12 2 -15 -3z"/>
<path d="M5617 31363 c-4 -21 -1 -32 14 -42 10 -7 19 -22 19 -31 0 -58 35 -67
43 -12 3 20 9 48 12 62 6 24 6 24 -9 6 -16 -20 -46 -16 -46 7 0 8 -6 20 -14
26 -11 9 -15 6 -19 -16z"/>
<path d="M9290 31374 c0 -9 5 -14 12 -12 18 6 21 28 4 28 -9 0 -16 -7 -16 -16z"/>
<path d="M11420 31359 c0 -24 23 -21 28 4 2 10 -3 17 -12 17 -10 0 -16 -9 -16
-21z"/>
<path d="M18666 31261 c-4 -5 -24 -12 -46 -16 -35 -6 -40 -10 -40 -33 0 -14 7
-33 16 -43 15 -17 15 -20 -4 -44 -31 -39 -10 -85 39 -85 31 0 39 19 15 39 -8
7 -12 21 -9 31 3 11 0 27 -7 35 -15 18 5 49 49 76 17 10 31 26 31 34 0 16 -35
21 -44 6z"/>
<path d="M12664 31246 c-10 -27 2 -43 14 -19 8 14 9 24 2 28 -6 3 -13 -1 -16
-9z"/>
<path d="M18800 31245 c-10 -13 -9 -15 11 -15 30 0 43 -9 58 -37 20 -38 12
-66 -29 -111 -22 -24 -40 -49 -40 -57 0 -8 -4 -17 -10 -20 -15 -10 -12 -35 5
-35 16 0 29 13 81 80 34 45 46 102 24 115 -5 3 -10 24 -10 46 0 35 -2 40 -19
34 -11 -3 -22 -1 -26 5 -9 15 -31 12 -45 -5z"/>
<path d="M10186 31231 c-8 -13 4 -42 15 -35 12 7 12 44 0 44 -6 0 -12 -4 -15
-9z"/>
<path d="M8802 31198 c5 -15 28 -23 28 -10 0 5 -7 13 -16 16 -10 4 -14 1 -12
-6z"/>
<path d="M12603 31181 c-26 -22 -30 -41 -9 -41 19 0 46 27 46 46 0 19 -10 17
-37 -5z"/>
<path d="M18804 31147 c-6 -26 -7 -47 -2 -47 13 0 20 25 16 61 -3 32 -3 31
-14 -14z"/>
<path d="M18557 31173 c-4 -3 -7 -11 -7 -17 0 -6 5 -5 12 2 6 6 9 14 7 17 -3
3 -9 2 -12 -2z"/>
<path d="M5650 31150 c0 -5 5 -10 11 -10 5 0 7 5 4 10 -3 6 -8 10 -11 10 -2 0
-4 -4 -4 -10z"/>
<path d="M5715 31081 c-6 -11 20 -33 28 -24 4 3 7 10 7 14 0 11 -29 19 -35 10z"/>
<path d="M18727 30996 c-3 -8 1 -17 9 -20 8 -3 14 1 14 9 0 20 -17 28 -23 11z"/>
<path d="M5872 30925 c0 -16 2 -22 5 -12 2 9 2 23 0 30 -3 6 -5 -1 -5 -18z"/>
<path d="M5862 30870 c0 -14 2 -19 5 -12 2 6 2 18 0 25 -3 6 -5 1 -5 -13z"/>
<path d="M12015 30570 c3 -5 11 -10 16 -10 6 0 7 5 4 10 -3 6 -11 10 -16 10
-6 0 -7 -4 -4 -10z"/>
<path d="M9122 30523 c-15 -28 -66 -31 -94 -6 -17 15 -18 15 -18 -1 0 -10 -11
-19 -30 -22 -32 -7 -32 -24 1 -24 10 0 19 -7 19 -15 0 -23 16 -18 28 10 14 30
28 32 44 6 6 -10 16 -17 22 -15 6 2 27 6 46 8 19 2 38 4 43 5 20 3 5 31 -17
31 -18 0 -26 6 -28 23 l-3 22 -13 -22z"/>
<path d="M11837 30533 c-24 -23 6 -62 37 -50 12 5 12 11 3 31 -12 25 -27 33
-40 19z"/>
<path d="M11765 30510 c-21 -24 -43 -26 -51 -5 -9 21 -48 19 -69 -5 -22 -24
-13 -59 10 -40 9 7 40 13 71 13 44 0 58 4 69 21 8 11 15 24 15 28 0 15 -27 8
-45 -12z"/>
<path d="M12064 30515 c-10 -26 6 -38 27 -19 10 9 16 21 13 25 -8 14 -34 10
-40 -6z"/>
<path d="M9243 30506 c-28 -16 -17 -32 29 -39 28 -4 38 -2 43 11 4 10 -1 22
-11 29 -21 15 -32 15 -61 -1z"/>
<path d="M11980 30512 c-40 -5 -80 -23 -80 -37 0 -8 -3 -20 -6 -29 -10 -26 22
-19 34 8 8 18 16 22 34 19 14 -3 29 2 37 11 18 21 11 32 -19 28z"/>
<path d="M9987 30503 c-4 -3 -7 -11 -7 -17 0 -6 5 -5 12 2 6 6 9 14 7 17 -3 3
-9 2 -12 -2z"/>
<path d="M12236 30502 c-3 -6 -1 -14 5 -17 15 -10 25 3 12 16 -7 7 -13 7 -17
1z"/>
<path d="M11368 30494 c-5 -4 -8 -16 -8 -28 0 -14 3 -17 11 -9 6 6 9 19 7 28
-1 9 -6 13 -10 9z"/>
<path d="M9870 30464 c-13 -33 -13 -34 5 -34 17 0 39 36 30 50 -11 17 -25 11
-35 -16z"/>
<path d="M10060 30480 c0 -5 7 -10 15 -10 8 0 15 5 15 10 0 6 -7 10 -15 10 -8
0 -15 -4 -15 -10z"/>
<path d="M12130 30480 c0 -5 5 -10 10 -10 6 0 10 5 10 10 0 6 -4 10 -10 10 -5
0 -10 -4 -10 -10z"/>
<path d="M7472 30468 c-18 -18 -14 -38 8 -38 21 0 23 4 12 33 -6 14 -10 15
-20 5z"/>
<path d="M7321 30448 c-19 -52 -22 -68 -12 -68 6 0 13 11 17 24 3 14 12 27 20
30 19 7 18 36 -1 36 -9 0 -19 -10 -24 -22z"/>
<path d="M11523 30456 c-44 -16 -47 -21 -32 -55 13 -29 14 -29 41 -13 22 13
28 24 28 49 0 18 -1 32 -2 32 -2 -1 -17 -7 -35 -13z"/>
<path d="M12630 30451 c0 -25 6 -27 13 -6 4 8 2 17 -3 20 -6 4 -10 -3 -10 -14z"/>
<path d="M7240 30444 c0 -8 5 -12 10 -9 6 3 10 10 10 16 0 5 -4 9 -10 9 -5 0
-10 -7 -10 -16z"/>
<path d="M9456 30440 c-19 -6 -19 -7 2 -12 12 -4 24 -2 27 2 8 13 -8 18 -29
10z"/>
<path d="M10256 30443 c-11 -11 -6 -23 9 -23 8 0 15 4 15 9 0 13 -16 22 -24
14z"/>
<path d="M7600 30430 c0 -5 4 -10 9 -10 6 0 13 5 16 10 3 6 -1 10 -9 10 -9 0
-16 -4 -16 -10z"/>
<path d="M11090 30409 c0 -5 5 -7 10 -4 6 3 10 8 10 11 0 2 -4 4 -10 4 -5 0
-10 -5 -10 -11z"/>
<path d="M11800 30412 c0 -14 11 -21 26 -15 21 8 17 23 -6 23 -11 0 -20 -4
-20 -8z"/>
<path d="M12020 30409 c0 -5 5 -7 10 -4 6 3 10 8 10 11 0 2 -4 4 -10 4 -5 0
-10 -5 -10 -11z"/>
<path d="M9043 30399 c-16 -6 -23 -17 -23 -34 0 -32 4 -32 30 6 25 35 24 40
-7 28z"/>
<path d="M9360 30386 c0 -18 17 -29 30 -21 8 5 7 11 -1 21 -15 18 -29 18 -29
0z"/>
<path d="M11924 30374 c3 -8 6 -20 6 -25 0 -6 5 -7 10 -4 15 10 12 32 -6 39
-12 5 -15 2 -10 -10z"/>
<path d="M12280 30380 c0 -5 5 -10 10 -10 6 0 10 5 10 10 0 6 -4 10 -10 10 -5
0 -10 -4 -10 -10z"/>
<path d="M9315 30370 c-3 -5 1 -10 9 -10 9 0 16 5 16 10 0 6 -4 10 -9 10 -6 0
-13 -4 -16 -10z"/>
<path d="M7410 30340 c0 -5 5 -10 11 -10 5 0 7 5 4 10 -3 6 -8 10 -11 10 -2 0
-4 -4 -4 -10z"/>
<path d="M9717 30343 c-12 -11 -8 -21 13 -26 24 -6 38 12 19 24 -17 11 -24 11
-32 2z"/>
<path d="M12638 30288 c-3 -68 9 -138 24 -138 14 0 5 193 -9 197 -8 3 -13 -15
-15 -59z"/>
<path d="M2287 30308 c-11 -18 -12 -52 -6 -153 16 -309 162 -780 262 -850 33
-23 66 -19 79 9 14 33 4 56 -26 56 -55 0 -121 164 -190 475 -40 176 -46 222
-46 331 0 57 -4 114 -10 128 -12 33 -45 34 -63 4z"/>
<path d="M7547 30303 c-4 -3 -7 -12 -7 -20 0 -11 4 -11 20 -3 11 6 18 15 15
21 -7 11 -19 12 -28 2z"/>
<path d="M1820 30256 c-31 -38 -39 -318 -15 -536 23 -218 73 -358 140 -400 48
-30 78 -26 114 15 52 59 37 106 -18 59 -37 -30 -53 -27 -81 18 -62 101 -92
299 -94 618 -1 205 -3 235 -17 238 -9 1 -22 -4 -29 -12z"/>
<path d="M6387 30174 c-10 -11 -8 -52 3 -59 13 -8 25 44 13 56 -5 5 -12 6 -16
3z"/>
<path d="M6287 30123 c-7 -11 10 -40 18 -31 4 4 3 14 -3 24 -5 9 -12 12 -15 7z"/>
<path d="M12600 30088 c0 -16 5 -28 10 -28 13 0 13 20 0 40 -8 12 -10 9 -10
-12z"/>
<path d="M12625 29997 c-4 -8 -5 -26 -3 -39 4 -23 4 -23 18 5 10 21 11 30 2
39 -8 8 -13 7 -17 -5z"/>
<path d="M6310 29956 c0 -9 7 -16 16 -16 17 0 14 22 -4 28 -7 2 -12 -3 -12
-12z"/>
<path d="M2995 29930 c-18 -20 -37 -105 -70 -324 -21 -138 -21 -558 0 -702 24
-162 55 -234 101 -234 31 0 67 18 174 90 47 31 143 87 215 125 202 106 227
125 202 160 -11 15 -20 12 -92 -28 -44 -24 -123 -66 -175 -92 -93 -48 -144
-79 -245 -150 -41 -29 -52 -33 -63 -22 -37 37 -62 252 -62 526 0 217 11 324
47 476 14 61 28 129 30 153 5 39 3 42 -19 42 -14 0 -33 -9 -43 -20z"/>
<path d="M8789 29848 c-23 -29 -53 -71 -68 -93 -14 -22 -40 -57 -58 -77 -53
-61 -84 -114 -77 -131 3 -10 10 -17 16 -17 22 0 110 87 156 154 28 39 68 91
91 116 45 49 51 74 22 90 -31 16 -38 13 -82 -42z"/>
<path d="M8973 29882 c-7 -4 -25 -39 -40 -77 -16 -39 -57 -112 -91 -162 -73
-111 -92 -145 -92 -173 0 -68 101 40 228 244 34 55 62 105 62 113 0 20 -30 63
-44 63 -6 0 -16 -4 -23 -8z"/>
<path d="M5864 29859 c-11 -19 -72 -335 -104 -544 -34 -224 -78 -496 -86 -537
-4 -18 0 -32 16 -48 28 -28 61 -22 78 12 11 23 10 32 -2 56 -12 24 -13 38 -1
102 7 41 20 116 28 165 27 159 107 568 128 647 22 88 24 129 7 146 -15 15 -55
16 -64 1z"/>
<path d="M6502 29799 c2 -7 10 -15 17 -17 8 -3 12 1 9 9 -2 7 -10 15 -17 17
-8 3 -12 -1 -9 -9z"/>
<path d="M7846 29694 c-9 -8 -16 -27 -16 -40 0 -14 -4 -44 -9 -67 -21 -95 -32
-162 -60 -353 -16 -110 -39 -239 -50 -285 -32 -136 -44 -218 -37 -267 8 -57
20 -72 62 -72 50 0 85 60 51 89 -10 8 -17 7 -25 -1 -25 -25 -22 44 7 193 17
85 36 177 41 204 5 28 17 86 26 130 9 44 23 114 31 155 24 119 31 152 42 195
16 60 13 93 -9 115 -24 24 -34 25 -54 4z"/>
<path d="M6234 29411 c-112 -27 -189 -123 -219 -273 -3 -15 -14 -29 -24 -33
-30 -9 -34 -35 -8 -59 19 -18 23 -33 25 -96 7 -156 30 -215 93 -237 70 -25
192 8 259 69 49 45 128 144 158 198 l31 54 -6 -140 c-6 -151 1 -185 49 -218
31 -22 61 -20 122 9 94 44 163 159 190 314 19 110 20 145 6 172 -25 46 -42 17
-69 -117 -26 -131 -54 -203 -102 -264 -45 -57 -84 -73 -107 -44 -17 23 -10
210 14 337 27 143 28 171 9 187 -11 9 -21 11 -32 4 -8 -5 -49 -76 -92 -157
-79 -154 -149 -245 -229 -301 -88 -60 -171 -68 -191 -17 -13 35 -24 223 -13
239 6 9 40 14 113 16 111 2 151 15 217 71 61 51 79 159 36 219 -43 58 -143 87
-230 67z m98 -61 c53 -15 92 -64 84 -108 -14 -87 -73 -122 -214 -125 l-97 -2
2 37 c3 47 42 124 81 162 25 23 52 35 102 45 3 0 22 -4 42 -9z"/>
<path d="M10190 29409 c-177 -10 -288 -54 -350 -141 -31 -42 -39 -86 -17 -92
6 -2 28 -9 47 -16 19 -7 57 -18 84 -26 164 -46 434 -197 482 -269 11 -17 13
-29 5 -43 -10 -19 -118 -75 -286 -148 -16 -7 -68 -31 -115 -53 -121 -56 -136
-59 -144 -27 -4 17 -13 26 -26 26 -26 0 -64 -73 -55 -107 6 -24 9 -25 53 -21
94 10 545 206 616 268 22 20 36 41 36 55 0 31 -84 142 -135 177 -77 54 -204
119 -312 159 -146 55 -163 65 -163 92 0 26 43 57 115 83 41 15 82 18 230 18
195 1 249 -10 361 -68 62 -31 127 -38 132 -14 3 17 -1 19 -75 34 -13 2 -37 17
-55 33 -83 72 -200 94 -428 80z"/>
<path d="M0 29381 c0 -25 5 -31 38 -42 67 -22 149 -67 175 -98 68 -81 72 -174
11 -251 -31 -39 -194 -160 -216 -160 -4 0 -8 -16 -8 -35 0 -19 4 -35 8 -35 23
0 196 126 245 179 67 73 87 138 67 222 -14 58 -71 136 -123 168 -36 22 -173
81 -188 81 -5 0 -9 -13 -9 -29z"/>
<path d="M3986 29362 c-49 -37 -123 -137 -141 -192 -24 -75 -28 -148 -11 -229
8 -40 23 -85 31 -98 36 -55 122 -79 192 -52 47 18 107 74 138 130 25 45 30 65
30 124 0 59 -5 79 -30 124 -33 59 -94 111 -132 111 -27 0 -41 26 -24 43 16 16
14 54 -3 60 -8 3 -30 -6 -50 -21z m95 -164 c93 -94 92 -250 -3 -321 -42 -31
-72 -38 -109 -25 -23 8 -32 20 -44 61 -17 57 -20 185 -5 236 18 64 36 81 84
81 37 0 50 -6 77 -32z"/>
<path d="M7215 29306 c-99 -45 -153 -130 -170 -270 -4 -31 -9 -56 -11 -56 -2
0 -20 11 -40 25 -43 29 -52 31 -61 8 -5 -12 8 -30 46 -64 52 -47 53 -49 47
-91 -9 -59 10 -193 34 -243 27 -55 67 -77 141 -77 49 0 67 5 99 27 82 57 167
172 143 196 -8 8 -29 -8 -79 -60 -69 -72 -148 -118 -183 -106 -10 3 -28 16
-40 29 -20 21 -22 35 -24 146 l-2 123 70 12 c112 19 237 90 273 154 48 85 15
192 -77 253 -36 24 -105 22 -166 -6z m152 -68 c27 -26 33 -39 33 -75 0 -76
-33 -118 -129 -167 -76 -39 -139 -57 -148 -43 -10 17 -5 65 17 138 24 78 53
125 99 156 48 33 88 30 128 -9z"/>
<path d="M13007 29279 c-120 -17 -247 -119 -308 -246 -27 -56 -33 -81 -35
-141 0 -40 -3 -74 -5 -76 -5 -6 -221 -33 -325 -42 -80 -6 -118 2 -136 30 -35
51 94 177 272 266 101 50 128 85 101 129 -22 34 -170 25 -346 -20 -167 -43
-235 -85 -416 -255 -69 -66 -142 -133 -162 -151 -20 -17 -37 -40 -37 -51 0
-28 25 -45 52 -37 13 4 93 79 179 166 199 200 257 240 416 280 128 32 214 39
194 15 -7 -8 -50 -36 -97 -62 -169 -95 -254 -199 -241 -296 7 -53 31 -73 102
-88 81 -17 298 9 482 56 14 4 37 -4 68 -26 57 -39 141 -74 227 -94 98 -23 284
-39 364 -32 62 6 74 4 96 -14 31 -24 51 -25 68 -5 14 17 5 68 -15 85 -8 7 -77
12 -187 14 -129 2 -200 9 -281 25 -195 40 -252 83 -137 106 91 18 203 59 251
93 55 39 105 113 119 178 19 82 -44 175 -131 193 -27 6 -55 10 -62 10 -7 -1
-38 -5 -70 -10z m130 -85 c35 -22 56 -71 48 -113 -9 -53 -49 -108 -95 -131
-69 -35 -300 -112 -316 -106 -24 9 -15 118 15 179 27 56 103 137 152 163 64
34 149 37 196 8z"/>
<path d="M23154 29216 c-3 -8 -4 -24 -2 -36 2 -18 19 -28 88 -51 226 -78 421
-112 695 -124 127 -5 424 -34 518 -50 25 -4 27 -2 27 30 0 40 -1 41 -130 55
-52 6 -117 15 -145 20 -27 5 -104 12 -170 14 -199 9 -295 17 -405 32 -129 19
-317 67 -386 100 -58 27 -82 30 -90 10z"/>
<path d="M5051 29206 c-6 -7 -22 -46 -36 -85 -37 -109 -73 -168 -144 -232 -67
-62 -113 -83 -170 -77 -47 4 -66 35 -92 143 -32 137 -41 160 -68 163 -28 4
-43 -15 -72 -93 -26 -71 -80 -175 -91 -175 -5 0 -8 56 -8 124 0 139 -8 159
-55 138 -29 -13 -28 -3 -25 -202 2 -159 8 -190 38 -190 44 0 82 40 132 141 29
56 55 98 59 93 4 -5 15 -36 25 -69 45 -153 118 -187 260 -122 165 76 314 304
282 431 -7 29 -18 33 -35 12z"/>
<path d="M0 29129 l0 -34 95 -1 c84 -2 95 0 95 15 0 25 -43 42 -122 48 l-68 6
0 -34z"/>
<path d="M10696 29116 c-79 -27 -96 -44 -96 -96 0 -20 -7 -61 -17 -91 -9 -30
-17 -84 -17 -120 -1 -58 2 -69 28 -100 44 -53 70 -63 182 -67 147 -6 284 33
361 101 27 24 26 24 42 -30 14 -52 49 -73 120 -73 116 0 252 95 285 198 8 26
22 67 31 91 20 56 17 144 -6 149 -12 2 -24 -20 -48 -94 -57 -171 -157 -274
-266 -274 -47 0 -55 19 -61 146 -5 112 -18 151 -56 179 -21 14 -24 14 -34 0
-9 -12 -8 -28 3 -65 24 -81 12 -90 -29 -23 -101 163 -259 227 -422 169z m232
-79 c75 -45 148 -125 162 -176 19 -70 12 -83 -52 -109 -79 -31 -145 -42 -250
-42 -82 0 -91 2 -115 26 -24 24 -25 30 -21 97 7 88 39 177 81 218 29 30 34 31
86 25 37 -4 75 -18 109 -39z"/>
<path d="M20849 27634 c-18 -22 -24 -295 -10 -544 12 -227 6 -295 -45 -512
-39 -162 -39 -170 -15 -193 19 -16 23 -17 37 -4 13 13 66 219 96 369 7 37 8
133 3 295 -10 290 -8 381 10 459 16 69 10 111 -19 131 -26 19 -40 19 -57 -1z"/>
<path d="M19671 27463 c5 -139 -3 -368 -12 -385 -7 -14 -22 -18 -59 -18 -115
0 -272 -58 -291 -107 -9 -25 -7 -30 23 -55 41 -34 43 -34 84 -3 60 46 155 85
206 85 45 0 47 -1 38 -22 -5 -13 -18 -77 -30 -144 -11 -66 -31 -165 -45 -219
-14 -53 -25 -104 -25 -111 0 -17 34 -18 48 -1 17 21 92 311 102 393 12 107 30
121 155 115 66 -4 287 20 320 33 39 17 45 32 15 41 -11 4 -119 7 -240 7 -122
1 -223 5 -226 10 -3 5 2 63 11 129 30 213 13 319 -52 319 -23 0 -24 -2 -22
-67z"/>
<path d="M620 27417 c-31 -8 -79 -26 -108 -42 -51 -28 -53 -28 -87 -12 -19 9
-56 19 -83 23 -85 11 -215 -51 -280 -133 -59 -76 -62 -89 -62 -258 0 -150 1
-158 25 -200 99 -168 364 -258 649 -219 104 14 155 30 241 78 68 39 199 148
237 198 87 114 119 241 84 333 -33 85 -157 177 -297 220 -72 21 -248 28 -319
12z m315 -97 c90 -29 167 -79 202 -131 38 -58 39 -150 3 -224 -31 -62 -166
-198 -241 -243 -121 -71 -261 -98 -439 -83 -125 10 -233 50 -302 111 -97 85
-142 243 -103 360 36 109 154 193 268 192 32 0 61 -3 64 -6 4 -4 1 -29 -6 -56
-12 -48 -9 -70 9 -70 5 0 12 9 15 20 4 11 18 34 32 51 l26 30 23 -22 c13 -12
24 -33 24 -46 0 -43 16 -60 49 -55 28 4 31 8 31 41 0 20 -9 53 -20 74 -11 20
-20 43 -20 50 0 40 263 45 385 7z"/>
<path d="M3470 27370 c-80 -10 -131 -30 -185 -75 -146 -119 -278 -317 -325
-487 -41 -149 -36 -284 20 -506 40 -157 71 -226 129 -292 43 -49 50 -53 65
-41 23 19 13 57 -24 96 -40 42 -64 96 -104 226 -60 201 -66 381 -16 530 55
163 214 379 318 433 64 33 271 66 326 52 88 -22 -55 -176 -332 -360 -127 -84
-214 -163 -232 -211 -16 -42 23 -97 105 -151 48 -32 261 -129 380 -173 127
-48 179 -77 218 -120 29 -33 46 -38 65 -19 19 19 15 27 -35 74 -59 56 -63 58
-263 139 -238 96 -380 178 -395 226 -9 26 37 76 116 128 56 37 115 79 280 205
96 72 157 150 181 227 28 94 -65 125 -292 99z"/>
<path d="M4299 27343 c-19 -23 -24 -309 -9 -528 29 -433 123 -809 195 -781 19
7 19 4 -20 116 -83 235 -107 423 -110 851 -1 185 -6 342 -9 348 -10 16 -31 14
-47 -6z"/>
<path d="M12713 27278 c-40 -29 -126 -132 -269 -323 -109 -147 -190 -244 -368
-441 -100 -112 -145 -170 -200 -264 -44 -74 -58 -143 -32 -153 28 -11 40 1 85
87 52 101 108 175 296 396 78 92 200 245 271 341 72 96 163 212 202 258 90
104 98 157 15 99z"/>
<path d="M6831 27229 c-78 -52 -156 -157 -227 -304 -111 -232 -147 -373 -126
-490 21 -108 91 -244 176 -333 91 -97 279 -138 434 -94 202 57 385 234 488
473 54 124 66 187 63 318 -4 102 -7 123 -31 172 -31 62 -105 141 -158 169 -98
50 -227 62 -429 37 -75 -10 -96 -16 -107 -32 -8 -13 -10 -25 -4 -34 7 -13 14
-13 52 0 30 10 91 14 203 14 l160 0 60 -32 c76 -39 116 -82 152 -158 26 -55
28 -69 27 -175 0 -98 -4 -127 -28 -195 -54 -158 -171 -323 -288 -405 -108 -76
-162 -93 -293 -94 -101 -1 -114 1 -161 26 -64 34 -130 107 -176 195 -47 89
-59 135 -59 236 -1 69 5 99 35 190 38 113 102 249 161 342 39 60 117 128 180
156 52 23 57 29 44 46 -23 27 -83 15 -148 -28z"/>
<path d="M13369 27221 c-138 -105 -332 -329 -463 -536 -35 -55 -116 -188 -181
-295 -65 -107 -134 -219 -154 -249 -67 -100 -67 -99 -55 -118 15 -25 42 -28
64 -8 10 9 47 67 81 128 71 128 269 458 337 562 113 174 292 376 441 497 31
25 42 40 38 52 -11 27 -41 18 -108 -33z"/>
<path d="M24395 27255 c-106 -20 -209 -62 -260 -107 -39 -34 -46 -46 -43 -72
5 -47 31 -44 81 7 44 46 98 68 260 108 45 11 47 13 47 45 0 19 -3 34 -7 33 -5
0 -39 -7 -78 -14z"/>
<path d="M9691 27186 c-36 -38 -41 -84 -41 -369 0 -283 10 -419 35 -504 18
-60 27 -69 46 -47 11 13 13 76 11 308 -2 160 2 334 8 386 5 52 13 119 16 148
6 46 4 56 -16 77 -29 31 -31 31 -59 1z"/>
<path d="M17332 27117 c-8 -9 -1 -53 23 -156 19 -80 32 -148 30 -152 -3 -4
-47 -27 -97 -52 -112 -55 -163 -95 -178 -143 -14 -41 -1 -64 35 -64 17 0 30
12 48 43 14 24 43 55 64 70 49 34 133 71 141 62 4 -4 6 -93 4 -200 -2 -149 -8
-213 -24 -286 -27 -123 -28 -162 -5 -167 27 -5 64 87 83 204 9 56 17 175 18
274 l2 175 29 14 c30 15 240 31 258 19 15 -9 0 -41 -56 -116 -44 -60 -180
-299 -191 -337 -7 -23 0 -35 34 -58 38 -26 79 -21 132 18 55 41 96 99 128 180
12 33 26 70 31 83 17 43 26 13 34 -100 10 -160 33 -207 103 -208 41 0 92 34
92 62 0 19 -4 20 -49 14 -27 -4 -52 -2 -55 3 -7 11 -19 100 -66 480 -12 100
-30 134 -68 129 -26 -3 -30 -10 -49 -77 -2 -10 -20 -12 -86 -7 -45 3 -115 3
-155 -2 -88 -10 -87 -11 -98 103 -4 44 -8 89 -10 100 -1 11 -3 32 -3 47 -1 15
-8 34 -17 42 -19 19 -67 21 -82 3z m458 -539 c0 -31 -85 -180 -122 -213 -22
-20 -42 -34 -45 -31 -6 6 109 209 135 239 18 20 32 22 32 5z"/>
<path d="M8897 27095 c-74 -20 -174 -75 -230 -125 -57 -51 -86 -107 -87 -165
0 -23 -9 -59 -20 -80 -61 -119 -65 -230 -12 -338 40 -80 91 -127 175 -158 226
-86 514 66 666 351 48 91 62 151 50 218 -26 136 -135 254 -275 297 -60 18
-201 18 -267 0z m270 -77 c72 -26 154 -103 183 -170 93 -215 -181 -551 -469
-575 -59 -5 -74 -2 -124 21 -94 45 -157 144 -157 245 1 76 66 215 137 293 24
25 25 68 2 68 -16 0 -10 36 9 53 30 27 145 76 202 86 70 12 150 4 217 -21z"/>
<path d="M18817 27092 c-8 -9 -54 -98 -100 -197 -154 -328 -245 -496 -254
-468 -2 7 3 73 11 147 29 248 19 310 -42 275 -27 -14 -27 -17 -34 -149 -4 -74
-12 -195 -18 -268 -11 -122 -10 -135 6 -153 23 -26 60 -24 84 4 64 73 207 328
279 497 109 255 117 259 107 53 -8 -175 -28 -326 -62 -481 -30 -136 -29 -156
9 -160 16 -2 29 2 31 10 8 26 57 264 71 348 23 127 37 398 25 461 -16 84 -73
125 -113 81z"/>
<path d="M5418 27085 c-3 -3 -70 -9 -149 -13 l-144 -7 0 -34 c0 -42 23 -60 57
-43 27 13 140 19 510 28 284 7 292 8 268 55 -10 18 -24 19 -274 19 -144 0
-265 -2 -268 -5z"/>
<path d="M8495 27037 c-106 -57 -269 -174 -357 -257 -63 -58 -88 -76 -95 -67
-10 12 -30 56 -56 117 -16 40 -88 95 -112 86 -18 -7 -34 -44 -28 -67 3 -9 36
-55 74 -102 38 -47 69 -94 69 -102 0 -9 -23 -42 -50 -73 -68 -76 -100 -143
-100 -207 0 -28 6 -60 14 -70 12 -17 17 -17 47 -5 52 20 56 26 62 84 6 56 39
130 80 181 l25 30 43 -44 c75 -75 301 -211 352 -211 13 0 17 6 15 22 -2 16
-31 39 -98 81 -99 62 -230 154 -242 172 -19 26 -3 53 72 126 81 79 183 160
296 237 66 44 82 68 62 88 -11 11 -24 7 -73 -19z"/>
<path d="M16812 26924 c-98 -33 -144 -57 -224 -116 -72 -53 -118 -101 -118
-123 0 -24 38 -36 163 -51 159 -18 174 -21 224 -50 111 -64 95 -152 -55 -296
-90 -86 -188 -154 -239 -164 -21 -4 -33 0 -47 15 -11 12 -25 21 -32 21 -17 0
-28 -41 -20 -68 8 -24 59 -47 106 -47 99 0 367 209 421 329 36 79 17 169 -47
232 -53 51 -129 75 -262 82 -51 3 -95 8 -97 13 -8 12 73 73 141 107 110 55
181 74 264 70 l75 -3 0 30 c0 25 -5 31 -30 36 -67 15 -150 8 -223 -17z"/>
<path d="M5935 26901 c-3 -11 -18 -22 -33 -25 -15 -4 -153 -8 -307 -11 -285
-5 -440 -18 -485 -38 -30 -14 -38 -58 -15 -77 13 -11 26 -10 78 3 88 23 129
27 332 31 281 6 453 18 472 31 19 14 20 69 2 91 -16 20 -37 17 -44 -5z"/>
<path d="M14462 26879 c-131 -23 -333 -138 -435 -248 -63 -68 -111 -157 -127
-236 -23 -109 22 -215 117 -275 86 -55 133 -65 293 -65 162 1 225 15 225 50 0
18 -6 20 -55 19 -246 -6 -266 -5 -333 16 -183 57 -218 210 -91 402 53 79 75
99 196 174 166 102 304 129 405 78 43 -22 55 -25 68 -14 8 7 15 22 15 34 0 51
-154 88 -278 65z"/>
<path d="M10280 26829 c-64 -29 -140 -106 -140 -141 0 -53 56 -45 85 12 8 16
29 37 45 45 28 14 30 14 30 -2 0 -10 -7 -27 -15 -37 -21 -28 -19 -66 3 -66 36
0 102 97 102 151 0 22 -34 59 -52 59 -7 0 -33 -10 -58 -21z"/>
<path d="M15312 26751 c-125 -43 -202 -100 -271 -200 -85 -125 -120 -234 -101
-315 21 -93 83 -131 210 -130 102 1 180 30 316 119 166 108 248 207 248 300 0
75 -20 120 -78 180 -82 84 -175 97 -324 46z m239 -63 c50 -38 89 -107 89 -155
0 -47 -30 -100 -87 -154 -137 -131 -358 -229 -460 -203 -54 13 -87 64 -79 123
9 63 49 147 96 197 22 24 40 47 40 52 0 13 52 39 93 46 43 8 56 29 38 58 -7
11 -10 22 -7 25 17 17 119 42 173 43 54 0 66 -4 104 -32z"/>
<path d="M15920 26677 c-37 -19 -59 -67 -81 -174 -10 -54 -31 -130 -45 -170
-34 -95 -30 -117 18 -121 37 -3 38 -2 99 90 112 171 221 290 249 273 6 -4 10
-70 10 -180 0 -96 4 -185 9 -198 12 -32 62 -53 90 -37 28 15 26 44 -4 58 l-25
12 6 147 c7 161 -4 256 -34 285 -15 15 -23 16 -57 7 -30 -9 -63 -35 -138 -111
-54 -55 -100 -98 -103 -96 -6 7 23 86 46 123 39 63 14 119 -40 92z"/>
<path d="M10348 26279 c-22 -12 -23 -47 -3 -69 14 -16 4 -41 -113 -281 -71
-145 -148 -288 -170 -318 -33 -43 -39 -58 -31 -73 30 -56 92 25 232 299 65
128 138 267 162 309 55 97 51 110 -40 137 -11 4 -28 2 -37 -4z"/>
<path d="M9809 26006 c-7 -7 -217 -24 -514 -41 -287 -17 -532 -37 -730 -60
-71 -8 -247 -26 -390 -40 -143 -14 -309 -30 -370 -35 -60 -6 -141 -16 -180
-21 -38 -6 -214 -11 -390 -12 -344 -1 -440 6 -607 48 -70 18 -107 23 -134 17
-41 -8 -61 -30 -51 -56 5 -13 15 -15 44 -10 25 4 73 -3 143 -21 209 -53 610
-68 955 -35 306 29 434 41 560 55 510 55 796 81 1030 94 105 6 246 16 315 22
69 5 179 11 246 13 67 2 126 6 133 10 17 11 14 63 -5 70 -18 7 -49 8 -55 2z"/>
<path d="M807 25513 c-21 -24 -32 -72 -58 -243 -43 -286 -25 -703 39 -894 29
-87 53 -108 73 -64 8 18 6 41 -10 100 -60 222 -55 694 9 966 11 46 20 94 20
106 0 44 -43 61 -73 29z"/>
<path d="M12482 25303 c-111 -112 -168 -183 -334 -418 -74 -104 -188 -264
-253 -355 -133 -184 -228 -354 -223 -397 2 -22 9 -29 30 -31 23 -3 30 2 39 25
59 144 102 215 276 458 35 50 121 171 190 270 162 232 233 322 333 424 81 82
94 111 50 111 -14 0 -54 -32 -108 -87z"/>
<path d="M3495 25314 c-11 -3 -37 -10 -57 -15 -75 -19 -167 -146 -194 -266
-24 -109 -16 -221 26 -356 28 -89 32 -112 22 -128 -19 -30 -14 -45 24 -78 28
-25 42 -51 65 -119 49 -144 100 -213 148 -197 31 9 27 47 -8 72 -30 23 -88
150 -74 164 4 4 48 -6 97 -23 116 -39 262 -64 456 -78 143 -10 155 -10 167 6
33 45 -5 60 -162 67 -157 7 -282 27 -433 68 -120 33 -170 60 -183 97 -10 26 7
46 99 114 29 22 103 90 165 151 123 123 170 196 182 283 14 105 -28 173 -130
212 -56 22 -171 36 -210 26z m160 -75 c21 -6 54 -26 72 -44 30 -30 33 -39 33
-89 0 -69 -14 -104 -72 -178 -59 -76 -320 -320 -331 -309 -5 5 -20 46 -34 92
-36 116 -38 277 -5 359 31 79 79 139 126 161 47 21 149 25 211 8z"/>
<path d="M4490 25205 c-129 -36 -246 -92 -288 -138 -27 -28 -26 -64 0 -81 14
-9 25 -4 55 25 55 52 89 73 168 102 148 54 230 60 253 17 34 -63 -8 -261 -100
-480 -96 -225 -110 -306 -60 -352 38 -36 60 -46 144 -64 146 -33 432 -15 533
33 36 17 58 52 45 73 -8 14 -12 13 -145 -26 -47 -14 -96 -18 -225 -18 -178 0
-232 9 -277 48 -41 35 -34 76 45 276 139 350 162 501 87 576 -22 22 -32 24
-107 23 -46 0 -103 -7 -128 -14z"/>
<path d="M10115 25200 c-61 -11 -83 -22 -170 -87 -91 -68 -208 -187 -219 -221
-10 -31 14 -66 72 -102 46 -29 188 -80 223 -80 23 0 282 -82 339 -108 57 -25
134 -92 150 -132 7 -18 11 -56 8 -95 -4 -70 -35 -127 -89 -168 -32 -23 -50
-19 -119 29 -28 19 -55 32 -60 29 -22 -14 -9 -54 30 -89 37 -33 45 -36 103
-36 71 0 99 14 146 74 87 109 79 266 -17 362 -77 75 -199 127 -515 219 -116
33 -187 69 -187 95 0 12 30 45 78 86 107 92 118 99 144 87 16 -7 42 -4 92 9
60 16 111 18 386 18 329 0 362 4 348 42 -8 20 -80 27 -387 35 -228 5 -256 8
-273 25 -19 19 -21 19 -83 8z"/>
<path d="M7219 25187 c-152 -43 -285 -201 -379 -449 -55 -147 -91 -305 -93
-404 -1 -70 3 -89 27 -138 26 -52 75 -102 142 -142 21 -13 21 -13 -64 -45 -29
-10 -33 -16 -30 -43 3 -28 6 -31 33 -30 17 1 55 11 85 23 88 33 199 29 695
-28 415 -47 568 -55 960 -47 1009 20 1861 58 1888 85 9 9 9 16 0 29 -12 20
-108 20 -438 2 -193 -10 -1099 -43 -1520 -55 -233 -7 -428 2 -695 31 -227 24
-423 43 -474 46 -27 2 -51 8 -53 14 -2 6 27 28 64 50 89 50 269 230 347 347
32 48 72 120 89 160 29 66 32 81 32 182 0 130 -16 175 -90 254 -87 93 -176
137 -310 153 -143 17 -169 18 -216 5z m40 -91 c-15 -33 -4 -72 26 -92 34 -22
46 -10 39 37 -6 38 -5 39 32 55 53 22 151 13 220 -21 61 -30 147 -114 175
-173 30 -60 35 -145 14 -218 -60 -209 -317 -502 -510 -583 -86 -36 -220 -37
-285 -2 -147 78 -188 170 -155 347 67 365 261 671 427 674 26 0 27 -2 17 -24z"/>
<path d="M13003 25178 c-11 -13 -62 -86 -113 -163 -134 -202 -227 -319 -417
-528 -74 -81 -173 -226 -173 -253 0 -29 38 -58 56 -43 7 6 27 36 45 67 36 65
56 91 190 252 208 251 472 619 473 660 1 34 -33 38 -61 8z"/>
<path d="M24310 25065 c-655 -138 -793 -158 -1122 -160 -207 -1 -229 -3 -248
-20 -11 -10 -19 -25 -18 -34 8 -39 594 -9 883 45 93 18 631 132 658 140 11 4
17 15 17 35 0 16 -3 29 -7 28 -5 0 -78 -16 -163 -34z"/>
<path d="M16196 25061 c-4 -5 -2 -12 3 -15 5 -4 12 -2 15 3 4 5 2 12 -3 15 -5
4 -12 2 -15 -3z"/>
<path d="M5775 24995 c-77 -19 -185 -41 -240 -50 -120 -19 -145 -28 -145 -54
0 -41 22 -43 141 -13 63 16 170 41 239 56 178 40 205 49 205 72 0 30 -43 27
-200 -11z"/>
<path d="M9235 24935 c-16 -8 -46 -16 -66 -20 -69 -11 -114 -70 -72 -93 15 -9
15 -15 3 -65 -29 -121 12 -266 106 -376 144 -168 406 -95 526 147 44 89 47
143 11 212 -51 97 -167 170 -303 190 -115 17 -175 18 -205 5z m292 -103 c120
-49 163 -92 171 -171 5 -60 -29 -132 -100 -207 -64 -68 -136 -98 -221 -92 -51
4 -62 9 -98 44 -61 59 -110 167 -117 255 -6 85 7 116 71 168 l42 33 100 -4
c69 -4 116 -12 152 -26z"/>
<path d="M5975 24859 c-55 -4 -187 -13 -293 -19 -106 -6 -204 -15 -216 -20
-32 -12 -38 -35 -17 -61 17 -21 18 -21 82 -5 39 10 149 20 284 26 120 6 249
15 285 20 36 5 68 10 71 10 14 0 19 33 8 46 -13 15 -45 16 -204 3z"/>
<path d="M14573 24805 c-46 -49 -76 -94 -123 -187 l-62 -123 6 72 c3 46 14 95
32 135 34 80 36 112 8 116 -58 8 -103 -135 -111 -358 -5 -136 -4 -157 10 -169
9 -7 24 -11 32 -7 17 6 25 23 89 185 49 123 116 239 166 286 l32 30 24 -30
c30 -36 136 -249 158 -318 9 -26 16 -60 16 -75 0 -16 6 -37 14 -48 20 -26 48
-8 60 39 12 48 -23 158 -105 325 -108 218 -142 236 -246 127z"/>
<path d="M8828 24826 c-37 -19 -266 -194 -353 -270 -38 -33 -78 -67 -88 -75
-16 -14 -24 -9 -95 62 -43 42 -83 77 -89 77 -18 0 -44 -44 -38 -62 3 -8 35
-36 71 -62 36 -25 67 -53 70 -60 3 -8 -27 -46 -73 -92 -82 -82 -149 -180 -159
-232 -8 -41 2 -78 23 -86 22 -9 37 9 53 64 7 25 29 70 49 100 42 64 158 190
175 190 6 0 49 -32 96 -71 171 -144 324 -240 351 -223 21 12 5 35 -52 76 -177
126 -324 245 -324 261 0 19 201 195 348 305 67 49 87 70 85 85 -4 27 -17 30
-50 13z"/>
<path d="M10945 24736 c-46 -46 -46 -112 1 -103 21 4 25 1 23 -17 -4 -56 14
-76 52 -56 54 29 60 113 13 170 -31 36 -57 38 -89 6z"/>
<path d="M11090 24193 c-19 -13 -21 -22 -17 -57 12 -87 -29 -201 -117 -330
-50 -73 -55 -99 -19 -104 67 -10 233 278 233 404 0 45 -20 88 -44 97 -8 3 -24
-2 -36 -10z"/>
<path d="M18137 23843 c-3 -5 -8 -24 -12 -43 -4 -19 -31 -98 -60 -175 -29 -77
-66 -180 -81 -229 -30 -93 -43 -106 -100 -106 -14 0 -61 -12 -105 -27 -91 -30
-119 -56 -99 -93 14 -25 26 -24 115 13 82 34 125 43 125 25 0 -8 -11 -48 -25
-88 -28 -84 -33 -140 -11 -140 24 0 45 39 77 142 19 61 36 99 47 103 26 10
306 6 395 -6 44 -5 118 -22 165 -36 119 -36 148 -39 156 -18 11 29 -11 50 -76
73 -129 46 -252 65 -438 68 -104 1 -176 6 -178 12 -3 10 77 220 142 370 38 87
44 130 24 150 -13 13 -54 16 -61 5z"/>
<path d="M17433 23798 c-6 -7 -13 -47 -16 -88 -4 -41 -22 -147 -41 -236 -19
-88 -44 -219 -55 -290 -12 -71 -35 -197 -51 -280 -33 -168 -31 -209 10 -209
23 0 26 6 41 95 38 219 103 556 135 703 46 213 52 271 29 297 -21 23 -38 25
-52 8z"/>
<path d="M12565 23657 c-33 -24 -75 -61 -93 -81 -84 -96 -478 -726 -607 -971
-32 -60 -71 -126 -86 -146 -31 -39 -36 -68 -17 -87 38 -38 67 -3 166 193 39
77 106 199 148 270 321 544 406 670 529 782 54 50 65 75 34 81 -8 1 -41 -17
-74 -41z"/>
<path d="M765 23616 c-162 -42 -332 -135 -464 -254 -46 -41 -53 -52 -48 -74
11 -43 31 -39 93 19 165 154 338 237 549 265 112 14 174 0 189 -44 20 -56 -85
-221 -379 -597 -123 -158 -185 -254 -185 -287 0 -12 12 -32 26 -43 51 -40 149
-25 394 60 197 69 297 97 414 120 107 20 122 28 112 55 -6 14 -16 16 -79 11
-77 -6 -317 -63 -407 -96 -75 -27 -278 -88 -315 -95 -17 -2 -37 -1 -45 4 -24
15 15 76 203 317 274 349 330 439 331 532 1 49 -2 56 -33 82 -65 54 -206 64
-356 25z"/>
<path d="M5041 23629 c-199 -21 -327 -83 -306 -149 8 -24 52 -37 74 -23 9 6
18 23 21 39 4 24 13 31 62 46 69 21 286 42 340 33 65 -11 76 -63 29 -137 -17
-26 -57 -81 -91 -123 -129 -163 -132 -220 -15 -268 40 -17 81 -29 280 -88 232
-68 269 -111 187 -216 -76 -96 -310 -289 -459 -379 -48 -28 -58 -31 -80 -21
-21 9 -27 8 -39 -8 -18 -24 -18 -40 1 -59 17 -17 55 -13 113 10 43 18 197 125
320 223 200 160 281 262 269 338 -12 72 -63 102 -302 178 -248 79 -265 85
-281 110 -20 30 -9 55 63 146 136 170 166 233 143 290 -27 65 -115 80 -329 58z"/>
<path d="M3843 23561 c-47 -29 -137 -143 -177 -225 -64 -130 -76 -199 -76
-450 0 -234 13 -353 49 -459 37 -105 64 -137 102 -117 26 14 24 31 -10 104
-16 33 -38 106 -49 161 -22 111 -38 275 -27 275 4 0 37 -27 73 -61 163 -149
483 -250 764 -241 49 2 81 23 76 50 -3 13 -19 15 -109 13 -164 -4 -331 35
-494 114 -103 51 -225 145 -225 175 0 17 37 46 269 207 134 94 241 221 241
288 0 61 -70 118 -193 160 -92 31 -169 33 -214 6z m222 -85 c101 -45 124 -81
91 -144 -22 -41 -120 -132 -231 -213 -55 -40 -135 -104 -178 -143 -43 -39 -83
-73 -89 -75 -17 -6 -2 200 22 294 27 108 74 198 137 264 l52 54 68 -5 c43 -4
90 -15 128 -32z"/>
<path d="M7377 23546 c-99 -37 -222 -173 -327 -362 -98 -176 -120 -288 -82
-400 54 -155 201 -308 353 -365 167 -64 420 -26 542 80 144 127 233 424 181
602 -34 117 -121 225 -204 254 -112 39 -301 56 -369 32 -45 -16 -58 -38 -43
-72 15 -33 55 -32 60 3 3 20 9 22 68 22 71 0 199 -23 254 -46 69 -29 125 -100
160 -203 67 -199 -49 -494 -230 -586 -102 -52 -271 -63 -383 -26 -123 41 -247
156 -308 286 -25 51 -29 73 -29 140 0 68 5 92 35 164 71 172 215 362 308 405
37 17 74 18 177 4 20 -2 26 2 28 23 2 14 -4 31 -12 38 -23 20 -134 24 -179 7z"/>
<path d="M10492 23518 c-14 -14 -15 -51 -3 -96 9 -30 39 -271 56 -439 9 -91 7
-311 -4 -368 -5 -27 -20 -112 -35 -189 -28 -148 -26 -170 18 -164 23 3 21 -4
62 208 38 195 43 425 15 705 -24 235 -38 324 -53 343 -13 15 -40 16 -56 0z"/>
<path d="M13097 23407 c-66 -67 -116 -128 -399 -482 -111 -140 -218 -299 -218
-326 0 -25 38 -51 59 -39 9 4 34 41 55 82 52 97 393 552 535 711 67 75 85 103
76 117 -14 22 -40 7 -108 -63z"/>
<path d="M9770 23442 c-120 -76 -274 -318 -301 -469 -21 -121 24 -302 112
-448 139 -231 346 -202 577 80 124 152 192 323 192 483 0 123 -31 182 -128
239 -105 62 -346 71 -456 18 l-31 -15 31 28 c18 15 44 37 59 49 28 24 30 56 5
61 -8 1 -35 -10 -60 -26z m359 -146 c62 -23 107 -60 132 -109 19 -36 21 -53
17 -137 -6 -113 -40 -210 -111 -316 -101 -153 -215 -251 -321 -279 -57 -14
-62 -14 -103 6 -23 11 -56 37 -71 57 -91 116 -155 336 -133 458 13 70 72 195
133 279 40 56 43 58 46 33 2 -14 9 -32 17 -38 11 -9 17 -5 31 17 10 15 20 30
22 33 17 23 275 19 341 -4z"/>
<path d="M24210 23329 c-526 -59 -648 -67 -905 -62 l-240 5 -24 -25 c-13 -14
-21 -31 -19 -37 3 -9 69 -13 238 -16 264 -4 433 7 908 62 166 18 305 34 307
34 3 0 5 16 5 35 0 19 -3 34 -7 34 -5 -1 -123 -14 -263 -30z"/>
<path d="M6096 23329 c-208 -20 -373 -98 -326 -154 14 -16 38 -9 93 28 79 54
363 85 657 72 276 -12 264 -12 268 7 5 24 -22 35 -123 47 -103 13 -437 12
-569 0z"/>
<path d="M15647 23275 c-137 -48 -233 -101 -299 -165 -60 -59 -77 -97 -60
-135 22 -47 79 -73 234 -105 209 -43 389 -112 442 -168 36 -39 30 -71 -22
-121 -86 -81 -280 -184 -341 -181 -14 0 -42 2 -61 3 -29 2 -36 -2 -38 -20 -5
-33 42 -73 85 -73 39 0 162 48 244 97 136 79 228 179 236 257 5 39 2 46 -33
80 -75 73 -279 154 -501 200 -175 36 -208 66 -136 125 88 72 292 153 395 156
122 3 118 86 -5 85 -23 -1 -86 -16 -140 -35z"/>
<path d="M9304 23192 c-134 -81 -285 -190 -379 -271 -38 -34 -74 -61 -79 -61
-5 0 -80 70 -167 155 -164 161 -195 180 -219 136 -14 -27 -6 -42 48 -86 90
-75 282 -247 282 -252 0 -4 -40 -45 -88 -92 -103 -101 -182 -203 -182 -237 0
-26 33 -49 54 -37 8 4 34 37 57 73 45 67 204 240 222 240 5 0 37 -25 70 -56
119 -110 315 -224 386 -224 25 0 44 34 36 60 -5 16 -15 20 -47 20 -53 0 -129
41 -265 144 -68 51 -109 89 -111 103 -2 16 27 45 140 134 78 63 186 143 238
177 140 94 185 142 132 142 -9 0 -67 -31 -128 -68z"/>
<path d="M14797 23163 c-11 -3 -34 -15 -52 -26 -19 -12 -52 -33 -75 -47 -46
-28 -76 -70 -95 -133 -11 -38 -15 -42 -41 -39 -31 3 -112 33 -172 63 -47 25
-122 24 -170 0 -87 -46 -208 -169 -266 -274 -40 -71 -86 -205 -86 -249 0 -37
16 -68 35 -68 24 0 43 41 55 115 22 142 131 304 259 386 58 38 94 37 174 -5
42 -22 86 -37 124 -41 99 -11 97 -9 137 -89 60 -123 155 -191 281 -203 42 -4
71 -1 97 10 38 16 62 46 50 63 -4 5 -50 9 -102 9 -86 0 -100 3 -142 28 -49 29
-131 130 -126 155 2 8 39 26 85 41 126 41 223 133 223 211 0 52 -8 68 -41 85
-26 14 -112 18 -152 8z m113 -88 c38 -46 -105 -145 -225 -157 -28 -3 -30 0
-33 33 -3 31 2 41 34 69 21 18 56 41 78 51 51 23 129 25 146 4z"/>
<path d="M6575 23129 c-139 -45 -529 -95 -666 -85 -90 7 -132 -2 -142 -28 -3
-8 0 -22 7 -29 20 -20 262 -13 450 13 342 47 472 85 453 134 -8 20 -28 20
-102 -5z"/>
<path d="M16256 23137 c-17 -13 -18 -27 -14 -183 6 -209 21 -262 86 -311 169
-128 368 -12 547 320 47 88 52 117 16 117 -13 0 -39 -32 -87 -111 -125 -202
-227 -289 -340 -289 -105 0 -132 56 -141 290 -4 125 -8 157 -21 168 -20 15
-24 15 -46 -1z"/>
<path d="M11146 23058 c-20 -33 -31 -135 -16 -154 35 -42 130 17 130 80 0 20
-68 96 -86 96 -7 0 -20 -10 -28 -22z"/>
<path d="M11332 22481 c-8 -5 -35 -71 -61 -147 -26 -77 -59 -167 -72 -201 -22
-58 -23 -64 -8 -79 42 -41 72 4 152 226 63 176 61 166 38 189 -23 23 -30 25
-49 12z"/>
<path d="M10625 22137 c-86 -6 -751 -9 -1715 -9 -1526 2 -1966 -4 -2008 -27
-31 -16 -38 -50 -16 -71 18 -17 24 -17 84 -5 149 32 505 38 1955 32 1367 -5
2038 4 2073 26 18 12 14 45 -7 57 -23 12 -172 11 -366 -3z"/>
<path d="M7841 21970 c-135 -49 -246 -185 -309 -380 -63 -193 -56 -432 20
-735 49 -196 81 -281 119 -318 24 -22 33 -25 49 -17 27 14 25 46 -5 81 -28 34
-81 192 -121 364 -25 107 -29 139 -29 295 0 190 13 264 73 404 86 202 236 307
383 266 87 -24 271 -171 286 -228 12 -48 -49 -83 -347 -202 -209 -83 -317
-136 -357 -173 -46 -42 -19 -124 75 -227 167 -185 737 -445 826 -377 32 23 13
43 -46 50 -92 11 -350 115 -493 199 -147 86 -272 194 -295 254 -25 65 2 84
294 199 214 84 342 144 384 179 63 54 34 137 -85 247 -138 127 -283 168 -422
119z"/>
<path d="M12320 21930 c-27 -51 -143 -446 -180 -615 -14 -66 -25 -163 -31
-285 -5 -102 -10 -202 -12 -224 -2 -45 21 -69 51 -50 27 17 40 104 41 274 1
123 6 179 26 273 27 130 86 333 140 484 40 110 42 124 17 146 -25 22 -39 21
-52 -3z"/>
<path d="M13888 21940 c-81 -25 -202 -147 -346 -349 -138 -194 -203 -301 -319
-526 -58 -110 -111 -207 -119 -217 -24 -26 -14 -62 18 -66 36 -4 58 28 156
224 88 175 156 292 265 454 186 276 305 401 407 427 28 7 35 14 35 34 0 20 -5
24 -35 26 -19 1 -47 -2 -62 -7z"/>
<path d="M4041 21914 c-130 -35 -259 -141 -335 -277 -110 -196 -100 -481 29
-891 19 -60 40 -115 46 -122 17 -20 37 -17 53 9 14 20 11 35 -35 177 -120 370
-130 606 -33 800 51 101 120 172 211 217 70 34 82 37 187 41 93 4 125 1 191
-17 102 -28 190 -71 243 -120 53 -49 54 -75 5 -125 -47 -47 -113 -86 -368
-216 -248 -127 -310 -163 -357 -208 -73 -69 -72 -135 5 -210 51 -50 139 -90
277 -127 94 -25 123 -28 270 -29 135 -1 175 2 220 17 88 30 137 55 153 78 29
41 -5 65 -49 34 -12 -8 -57 -26 -100 -41 -66 -22 -94 -26 -189 -25 -291 2
-530 87 -551 197 -13 68 11 85 351 259 292 149 358 189 414 250 59 65 56 84
-27 166 -79 78 -159 122 -282 156 -100 27 -243 30 -329 7z"/>
<path d="M11333 21916 c-89 -22 -178 -72 -228 -128 -53 -60 -78 -104 -111
-202 -52 -152 -60 -249 -76 -883 -2 -62 21 -103 57 -103 42 0 48 29 40 180
-12 236 -8 526 9 620 18 97 66 246 95 293 31 50 92 104 142 126 190 84 420 62
525 -51 40 -42 48 -69 34 -113 -20 -60 -152 -132 -510 -278 -203 -82 -264
-115 -268 -144 -4 -28 99 -121 190 -171 467 -255 533 -282 624 -262 54 12 94
43 94 72 0 27 -27 33 -51 12 -15 -13 -34 -18 -72 -17 -65 2 -117 20 -237 85
-52 28 -151 80 -220 116 -134 70 -233 137 -228 154 2 6 62 34 133 63 304 122
464 197 543 255 74 53 101 147 64 220 -23 46 -98 101 -186 136 -62 25 -86 29
-191 31 -74 1 -140 -3 -172 -11z"/>
<path d="M395 21845 c-49 -7 -91 -14 -92 -14 -2 -1 -3 -14 -3 -30 0 -50 20
-57 113 -37 126 28 403 27 490 0 30 -9 19 -31 -45 -86 -112 -96 -166 -148
-193 -189 -26 -37 -27 -42 -16 -79 6 -22 20 -44 31 -50 11 -6 68 -15 127 -20
126 -12 194 -25 272 -51 73 -25 160 -85 167 -115 16 -63 -130 -175 -476 -366
-132 -74 -336 -168 -362 -168 -9 0 -26 -8 -39 -19 -20 -16 -21 -21 -10 -35 19
-22 60 -14 191 36 249 95 586 293 706 412 113 113 98 185 -61 281 -81 49 -197
83 -318 96 -56 5 -112 12 -124 15 -42 8 -26 40 55 111 129 114 212 200 212
222 0 26 -31 47 -110 73 -54 17 -95 21 -245 24 -115 2 -212 -2 -270 -11z"/>
<path d="M14524 21778 c-33 -26 -216 -182 -318 -272 -137 -122 -260 -284 -385
-511 -82 -147 -89 -166 -67 -184 35 -29 62 -6 116 101 145 285 237 401 491
623 66 58 146 125 177 148 79 58 86 71 56 101 -21 22 -36 20 -70 -6z"/>
<path d="M5049 21722 c-44 -22 -177 -130 -212 -171 -56 -67 -60 -152 -12 -258
45 -102 149 -180 263 -198 38 -6 42 -10 42 -34 0 -39 -45 -294 -75 -426 -14
-60 -25 -119 -25 -131 0 -62 37 -73 63 -19 18 38 63 230 106 453 16 79 32 147
37 151 5 5 26 14 46 20 49 16 110 84 106 118 -5 44 -27 38 -83 -23 -41 -45
-55 -55 -60 -43 -7 20 48 270 75 338 11 28 31 69 45 91 30 48 31 61 5 85 -34
31 -63 8 -108 -87 -22 -46 -47 -108 -56 -138 -14 -46 -56 -275 -56 -303 0 -12
-58 2 -102 24 -132 67 -198 220 -144 332 21 42 158 154 204 166 30 8 40 34 22
56 -16 20 -38 19 -81 -3z"/>
<path d="M8930 21699 c-147 -10 -275 -61 -275 -109 0 -22 4 -25 35 -24 19 1
64 13 99 28 79 35 174 50 273 44 101 -6 168 -43 182 -102 15 -58 -10 -95 -237
-344 -219 -242 -301 -342 -316 -384 -15 -41 11 -65 93 -85 62 -15 88 -15 255
-5 102 7 236 19 296 27 61 8 133 15 162 15 55 0 83 17 83 50 0 50 -23 61 -76
36 -71 -34 -675 -74 -708 -47 -27 23 -25 25 228 302 179 196 262 292 280 329
26 49 28 97 8 144 -45 100 -169 141 -382 125z"/>
<path d="M17284 21669 c-4 -6 -6 -38 -5 -70 1 -54 -26 -317 -50 -469 -5 -36
-12 -144 -16 -240 l-6 -176 25 -28 c17 -20 30 -27 44 -22 18 5 19 17 20 163 1
167 7 231 55 566 29 204 29 210 12 245 -13 27 -25 38 -45 40 -14 2 -29 -2 -34
-9z"/>
<path d="M22886 21581 c-10 -11 -16 -28 -14 -38 3 -15 17 -19 78 -24 41 -4
141 -18 223 -33 248 -44 353 -49 827 -43 239 4 445 9 458 13 17 5 22 14 22 41
0 36 0 36 -37 29 -76 -12 -758 -18 -918 -8 -93 6 -244 26 -359 46 -230 42
-256 43 -280 17z"/>
<path d="M12711 21534 c-11 -8 -21 -23 -21 -33 0 -10 -9 -30 -20 -44 -11 -14
-20 -37 -20 -51 0 -29 31 -66 56 -66 45 0 93 70 94 136 0 50 -52 84 -89 58z"/>
<path d="M6405 21468 c-193 -7 -391 -30 -425 -48 -15 -8 -20 -19 -18 -38 3
-23 8 -27 41 -30 20 -2 72 4 115 12 117 24 279 37 446 37 169 0 258 -15 340
-57 56 -29 76 -22 60 23 -13 37 -80 70 -179 87 -109 20 -170 22 -380 14z"/>
<path d="M15276 21258 c-7 -13 -17 -45 -21 -73 -4 -27 -17 -104 -31 -170 -32
-161 -32 -193 3 -206 54 -20 81 -3 243 155 143 140 234 216 258 216 19 0 25
-37 32 -200 7 -174 18 -221 54 -228 31 -6 45 22 35 71 -4 23 -8 107 -9 185 0
183 -11 209 -94 236 -59 19 -166 -52 -336 -223 -81 -82 -116 -111 -118 -99 -2
9 13 80 33 158 29 115 33 145 24 163 -23 43 -51 48 -73 15z"/>
<path d="M9832 21238 c-7 -7 -12 -22 -12 -34 0 -27 31 -39 143 -54 110 -16
709 -30 725 -17 15 12 16 39 0 55 -9 9 -73 12 -223 12 -213 1 -481 20 -545 39
-46 14 -73 14 -88 -1z"/>
<path d="M6032 21188 c-18 -18 -14 -46 8 -58 11 -6 111 -17 222 -25 112 -8
221 -17 243 -20 67 -9 444 -35 505 -35 54 0 70 8 70 35 0 16 -62 27 -202 35
-241 14 -453 35 -703 70 -94 13 -129 12 -143 -2z"/>
<path d="M16414 21070 c-141 -4 -195 -9 -207 -19 -33 -27 -11 -61 39 -62 133
-2 614 20 637 29 31 13 37 48 10 56 -19 6 -177 4 -479 -4z"/>
<path d="M12587 20822 c-22 -24 -21 -35 3 -57 11 -10 20 -28 20 -39 0 -35 -49
-129 -87 -167 -43 -45 -42 -73 3 -77 26 -3 37 4 68 40 48 56 98 161 104 220 4
40 1 50 -21 72 -31 30 -67 33 -90 8z"/>
<path d="M14483 20414 c-3 -8 6 -36 20 -62 82 -151 135 -577 124 -992 -5 -178
-9 -217 -31 -298 -46 -164 -112 -299 -221 -444 -61 -82 -336 -373 -432 -458
-35 -30 -63 -60 -63 -67 0 -24 38 -35 68 -19 29 15 329 314 422 421 121 138
221 316 279 498 24 76 32 125 40 239 9 132 2 421 -14 613 -22 248 -78 498
-126 559 -23 29 -56 34 -66 10z"/>
<path d="M6755 20227 c-275 -111 -555 -428 -635 -717 -46 -166 -34 -395 26
-518 53 -109 189 -225 362 -310 85 -43 107 -44 118 -10 8 27 -7 41 -101 86
-187 91 -288 202 -329 359 -24 91 -22 288 4 389 75 291 348 585 622 670 49 15
63 16 100 5 37 -12 43 -11 55 5 21 28 14 42 -30 62 -47 20 -107 14 -192 -21z"/>
<path d="M8024 20180 c-177 -58 -304 -206 -387 -450 -83 -244 -104 -481 -72
-791 18 -172 27 -199 65 -199 41 0 56 24 42 64 -45 125 -63 556 -29 715 40
186 104 336 191 450 103 133 251 198 394 172 91 -16 221 -82 291 -147 65 -60
116 -144 107 -178 -12 -49 -160 -100 -412 -140 -245 -39 -273 -45 -358 -73
-145 -47 -184 -113 -130 -219 41 -82 99 -127 269 -209 231 -112 358 -148 525
-148 108 -1 120 1 191 31 83 36 123 69 113 95 -8 22 -11 22 -80 -12 -74 -37
-130 -50 -216 -51 -131 0 -295 46 -495 140 -126 59 -187 101 -218 148 -38 59
-40 84 -10 120 34 40 111 64 299 92 217 32 429 80 507 114 48 20 89 70 89 107
0 54 -41 122 -124 204 -120 119 -244 175 -401 181 -70 3 -104 0 -151 -16z"/>
<path d="M9240 20073 c-71 -74 -118 -159 -144 -260 -31 -118 -16 -174 69 -259
64 -65 207 -144 295 -163 64 -15 158 -13 205 4 51 19 54 19 49 -2 -2 -10 -27
-117 -54 -237 -30 -127 -49 -229 -45 -243 5 -20 11 -24 38 -21 31 3 32 5 38
58 6 58 35 187 130 576 64 264 98 379 136 466 24 54 25 59 9 83 -14 21 -19 23
-41 13 -13 -6 -34 -31 -46 -57 -21 -45 -76 -249 -119 -442 l-21 -96 -50 -24
c-60 -28 -124 -29 -217 -5 -94 24 -189 74 -248 132 -68 66 -77 109 -44 216 29
96 59 145 131 215 62 61 72 86 40 103 -33 17 -43 12 -111 -57z"/>
<path d="M444 20092 c-77 -62 -239 -224 -263 -262 -30 -49 -28 -109 4 -144 57
-62 222 -117 495 -165 69 -13 150 -28 180 -34 l55 -12 -2 -41 c-1 -22 -22
-123 -47 -225 -25 -102 -46 -190 -46 -197 0 -6 9 -16 21 -22 16 -9 25 -8 40 6
10 9 19 25 19 34 0 9 15 79 34 156 19 76 40 168 48 204 l13 65 50 -3 c59 -4
99 17 77 40 -7 7 -34 13 -60 13 l-47 0 1 45 c1 76 30 308 61 486 9 55 -57 91
-76 41 -11 -27 -25 -139 -46 -372 -9 -93 -20 -174 -25 -178 -4 -5 -43 1 -86
12 -44 12 -128 30 -189 42 -275 51 -415 112 -415 180 0 44 116 173 260 291 38
31 43 39 34 55 -18 30 -38 26 -90 -15z"/>
<path d="M13412 20070 c-37 -9 -49 -17 -66 -50 -6 -12 -44 -35 -91 -56 -156
-67 -373 -234 -512 -396 -103 -119 -202 -261 -243 -348 -46 -99 -54 -204 -20
-270 48 -95 186 -187 345 -230 123 -34 328 -38 465 -10 209 42 436 138 574
242 121 91 228 246 262 381 40 153 -25 320 -193 498 -116 122 -240 202 -364
233 -70 17 -105 19 -157 6z m256 -111 c139 -68 293 -222 364 -366 29 -60 33
-77 33 -148 -1 -95 -21 -160 -74 -242 -96 -148 -190 -229 -366 -314 -346 -168
-700 -184 -940 -44 -52 30 -132 115 -141 150 -3 14 -4 53 -2 85 9 123 158 351
351 537 129 124 221 190 352 254 123 60 191 77 247 62 48 -13 73 5 63 45 -6
23 -4 24 22 18 15 -4 56 -20 91 -37z"/>
<path d="M3862 20048 c-27 -27 -6 -68 35 -68 35 0 73 22 73 42 0 32 -82 52
-108 26z"/>
<path d="M5133 19981 c-188 -66 -317 -265 -373 -574 -10 -54 -20 -100 -23
-103 -5 -6 -263 21 -349 37 -41 7 -64 7 -78 -1 -25 -13 -26 -56 -2 -69 25 -13
135 -23 284 -24 69 -1 130 -5 134 -9 8 -9 -9 -220 -32 -383 -23 -164 -23 -160
6 -160 38 0 51 40 61 198 13 201 29 331 42 339 7 4 165 8 352 8 187 0 346 4
354 9 27 17 4 38 -51 44 -29 4 -185 7 -346 7 -245 0 -294 2 -298 14 -8 20 39
198 81 309 41 108 92 186 153 233 97 74 242 98 269 44 7 -14 15 -37 18 -52 8
-40 39 -54 65 -28 11 11 20 32 20 46 0 37 -36 91 -72 110 -47 24 -154 27 -215
5z"/>
<path d="M24372 19943 c-12 -9 -58 -61 -102 -117 -43 -56 -113 -141 -155 -191
-64 -75 -151 -196 -201 -281 -11 -18 -14 -18 -40 -4 -35 19 -125 135 -162 207
-23 47 -24 55 -14 92 21 67 86 122 194 163 51 20 125 41 163 48 76 13 115 32
115 55 0 24 -41 27 -141 11 -169 -27 -300 -86 -374 -168 -24 -26 -48 -48 -55
-48 -6 0 -26 11 -43 24 -88 67 -275 126 -396 126 -68 0 -226 -40 -296 -74
-170 -84 -410 -256 -723 -518 -83 -70 -158 -128 -165 -128 -7 0 -50 46 -94
103 -119 151 -301 360 -327 376 -33 20 -56 8 -56 -30 0 -26 18 -51 103 -143
56 -61 131 -145 166 -186 35 -41 83 -96 108 -123 25 -26 43 -51 41 -55 -2 -5
-35 -36 -73 -69 -80 -68 -155 -153 -209 -234 -31 -47 -37 -64 -34 -99 4 -54
23 -68 67 -50 20 8 31 19 31 33 0 58 185 299 268 351 10 6 32 -11 73 -53 78
-80 143 -128 258 -190 96 -52 115 -58 126 -41 15 24 -11 49 -107 105 -115 68
-273 201 -273 230 0 19 42 57 280 259 186 157 323 266 334 266 6 0 11 -6 11
-14 0 -17 24 -28 45 -20 8 3 29 28 46 56 35 54 100 108 130 108 10 0 49 12 86
26 54 21 90 27 178 31 104 4 115 3 194 -26 101 -37 171 -76 171 -96 0 -8 20
-34 44 -58 95 -93 83 -183 -52 -392 -105 -163 -280 -337 -399 -396 -87 -44
-174 -50 -223 -17 -193 132 -199 595 -9 802 50 55 60 85 36 105 -24 19 -102
-42 -137 -107 -100 -186 -127 -296 -116 -462 12 -175 51 -274 140 -358 42 -40
61 -50 113 -61 116 -25 221 10 356 118 175 141 356 379 406 534 7 20 15 37 18
37 3 0 40 -30 82 -67 42 -37 78 -68 80 -70 3 -2 -14 -38 -36 -81 -52 -96 -114
-254 -141 -352 -29 -110 -34 -198 -16 -283 9 -40 17 -80 18 -89 1 -17 -17 -18
-229 -22 -126 -2 -369 -15 -540 -29 -170 -15 -371 -31 -445 -37 -74 -6 -412
-15 -750 -20 -588 -8 -623 -9 -790 -34 -233 -35 -569 -104 -597 -122 -27 -17
-31 -62 -7 -71 9 -3 51 4 93 16 119 36 217 58 377 86 301 52 358 56 994 65
333 5 666 13 740 19 74 7 239 20 365 31 539 45 834 51 887 16 14 -9 47 -19 74
-22 27 -4 62 -13 77 -21 34 -17 57 -11 57 14 0 12 20 28 55 47 77 40 169 142
213 234 45 94 55 208 27 294 -34 107 -127 223 -252 316 -35 25 -63 53 -63 62
0 17 76 133 138 210 104 129 308 363 329 377 29 19 32 68 4 83 -26 14 -42 12
-69 -7z m-356 -794 c100 -90 142 -138 170 -196 31 -62 44 -149 32 -212 -22
-121 -135 -268 -243 -317 -52 -24 -64 -26 -114 -18 -47 8 -59 14 -78 42 -48
73 -55 233 -15 377 31 111 118 321 155 373 15 19 21 16 93 -49z"/>
<path d="M20969 19936 c-57 -15 -133 -59 -154 -88 -8 -13 -15 -33 -15 -46 0
-16 -29 -53 -98 -120 -152 -152 -257 -326 -305 -507 -29 -113 -29 -303 0 -393
40 -119 104 -172 210 -172 167 1 356 127 509 340 75 104 112 177 153 299 58
172 82 296 83 413 0 132 -14 166 -92 221 -90 63 -188 81 -291 53z m186 -80
c60 -28 92 -61 105 -107 33 -115 -19 -389 -114 -595 -87 -187 -232 -351 -371
-420 -64 -32 -92 -39 -149 -42 -61 -3 -75 -1 -99 18 -63 49 -98 182 -79 291 7
35 17 100 22 144 6 44 18 98 27 120 66 166 130 264 240 365 65 59 187 130 224
130 11 0 19 7 19 15 0 19 -46 38 -71 30 -26 -9 -24 7 4 25 90 58 159 65 242
26z"/>
<path d="M17996 19744 c-12 -11 -16 -35 -16 -86 0 -82 -37 -349 -51 -362 -5
-5 -66 -16 -136 -23 -131 -14 -153 -22 -153 -54 0 -29 36 -32 158 -11 62 10
115 15 118 11 6 -11 0 -37 -57 -230 -27 -91 -49 -178 -49 -192 0 -39 35 -36
60 6 24 39 81 211 105 322 10 44 23 86 28 93 14 17 168 15 360 -6 166 -19 198
-15 160 17 -36 30 -236 60 -400 61 -57 0 -103 4 -103 9 0 5 9 51 19 102 11 52
27 145 36 208 l18 114 -24 18 c-30 23 -53 24 -73 3z"/>
<path d="M10546 19613 c-61 -2 -116 -9 -123 -15 -20 -16 -16 -42 11 -67 24
-22 24 -22 222 -12 110 5 262 9 339 8 124 -2 140 0 143 15 5 27 -26 36 -174
52 -171 18 -277 23 -418 19z"/>
<path d="M3885 19557 c-32 -50 -48 -217 -40 -442 3 -115 10 -239 15 -275 5
-36 12 -117 16 -180 7 -125 14 -150 44 -150 29 0 34 36 21 148 -22 194 -34
440 -27 566 7 141 23 261 38 289 5 11 7 30 4 43 -8 32 -50 33 -71 1z"/>
<path d="M11735 19550 c-82 -18 -115 -35 -115 -61 0 -4 10 -20 23 -34 l22 -26
74 20 c102 28 251 42 471 45 185 1 210 5 210 31 0 30 -63 38 -330 41 -233 3
-276 1 -355 -16z"/>
<path d="M16026 19410 c-66 -17 -173 -80 -240 -141 -66 -61 -96 -108 -96 -153
0 -45 36 -102 76 -121 83 -39 333 2 583 96 58 21 107 37 109 34 3 -2 -26 -82
-63 -177 -80 -203 -192 -427 -293 -583 -51 -79 -153 -190 -196 -212 -29 -15
-30 -14 -55 15 -21 25 -29 29 -43 21 -23 -13 -23 -36 2 -76 18 -30 24 -33 68
-33 130 0 290 198 502 620 52 103 190 453 190 480 0 12 -10 25 -23 31 -19 9
-45 3 -143 -34 -207 -78 -430 -137 -525 -140 -72 -3 -99 18 -99 75 0 36 7 47
63 102 34 34 91 77 127 96 56 29 77 35 150 38 98 4 195 -15 272 -53 56 -28 90
-32 107 -11 15 18 5 41 -25 61 -69 45 -359 87 -448 65z"/>
<path d="M17159 19399 c-116 -17 -244 -87 -305 -167 -42 -55 -45 -105 -6 -110
28 -4 52 14 52 39 0 11 18 39 40 62 150 163 433 166 560 5 50 -62 53 -107 13
-161 -60 -79 -237 -183 -330 -193 -60 -7 -103 20 -103 66 0 54 22 135 51 187
16 29 29 61 29 72 0 25 -24 43 -52 39 -51 -7 -113 -181 -106 -295 3 -56 8 -68
36 -96 30 -30 38 -32 111 -35 93 -5 173 18 264 73 219 131 263 256 139 395
-47 54 -114 92 -198 114 -66 17 -107 18 -195 5z"/>
<path d="M10354 19371 c-29 -13 -38 -40 -19 -61 14 -15 40 -19 168 -23 84 -2
258 -10 387 -17 265 -14 324 -8 318 33 -3 19 -10 22 -53 25 -27 1 -176 11
-330 22 -400 29 -447 31 -471 21z"/>
<path d="M11478 19310 c-25 -15 -22 -45 6 -68 27 -21 54 -23 441 -43 202 -10
307 -7 334 11 8 4 11 16 6 29 -6 19 -13 21 -103 21 -88 0 -564 41 -637 55 -16
3 -38 0 -47 -5z"/>
<path d="M18638 19259 c-15 -6 -30 -18 -32 -27 -3 -9 -34 -42 -68 -73 -35 -31
-79 -83 -98 -115 -31 -52 -35 -66 -35 -131 0 -67 2 -75 30 -102 109 -109 525
-58 649 79 43 48 47 91 16 156 -24 49 -110 134 -166 162 -86 44 -243 71 -296
51z m239 -101 c71 -35 135 -99 154 -155 10 -31 9 -37 -12 -60 -67 -70 -212
-117 -371 -117 -93 -1 -110 2 -135 20 -35 26 -39 51 -18 114 19 56 94 145 153
182 30 18 111 43 156 47 5 1 38 -13 73 -31z"/>
<path d="M9668 17695 c-32 -8 -86 -29 -120 -46 -347 -175 -515 -503 -478 -932
13 -153 39 -246 83 -294 27 -29 37 -33 60 -28 43 11 52 38 23 72 -38 46 -57
92 -72 172 -18 103 -18 339 1 438 18 95 84 234 152 318 94 115 252 220 372
246 124 26 360 -8 369 -53 4 -21 -25 -36 -337 -175 -533 -237 -588 -281 -489
-389 57 -62 102 -83 356 -166 188 -61 248 -87 447 -188 305 -155 402 -180 455
-113 29 37 13 50 -39 33 -67 -22 -106 -7 -441 166 -146 76 -280 131 -460 189
-63 20 -137 48 -165 62 -54 26 -115 79 -115 99 0 34 103 86 623 314 226 99
251 115 255 157 3 27 -2 36 -35 57 -72 48 -149 68 -273 72 -78 2 -133 -1 -172
-11z"/>
<path d="M10685 17633 c-37 -6 -55 -20 -55 -45 0 -29 20 -31 148 -18 91 10
150 10 262 1 287 -23 518 -55 537 -75 12 -12 -22 -35 -129 -85 -458 -217 -528
-258 -528 -309 0 -48 90 -97 311 -166 440 -137 513 -162 560 -192 44 -28 49
-49 18 -88 -43 -55 -202 -145 -394 -223 -156 -64 -230 -84 -340 -92 -83 -6
-90 -8 -93 -28 -4 -30 28 -37 132 -30 149 11 336 75 571 195 80 41 127 73 173
117 79 77 82 104 21 160 -57 51 -96 67 -469 189 -323 105 -390 133 -390 160 0
22 81 68 281 159 239 110 362 171 378 191 18 21 5 53 -28 71 -113 58 -526 116
-801 113 -74 0 -148 -3 -165 -5z"/>
<path d="M185 17621 c-60 -4 -116 -10 -122 -14 -7 -5 -13 -23 -13 -41 0 -38
24 -73 136 -200 43 -49 112 -128 152 -175 40 -47 94 -110 119 -140 62 -72 121
-98 265 -116 230 -30 324 -58 516 -151 236 -116 382 -218 382 -269 0 -46 -101
-108 -270 -165 -287 -96 -516 -158 -624 -168 -48 -5 -72 -12 -79 -24 -32 -50
73 -64 216 -27 129 32 444 125 542 159 253 89 337 190 252 302 -45 59 -172
143 -362 238 -182 91 -302 134 -443 155 -53 9 -128 20 -167 26 -110 18 -148
43 -236 159 -18 25 -86 101 -149 170 -142 154 -172 189 -165 200 10 16 118 21
517 21 406 0 750 -15 945 -43 88 -12 113 -5 113 33 0 34 -39 49 -130 49 -47 0
-175 7 -285 15 -204 15 -881 18 -1110 6z"/>
<path d="M5764 17590 c-222 -32 -314 -62 -314 -104 0 -35 12 -39 62 -20 101
37 141 46 277 65 241 32 332 23 347 -36 14 -58 -13 -97 -147 -211 -106 -90
-117 -106 -90 -133 22 -22 58 -27 271 -41 199 -13 294 -27 350 -51 137 -60
102 -118 -145 -239 -139 -67 -389 -171 -495 -205 -116 -37 -186 -87 -173 -121
8 -22 69 -18 86 6 7 11 53 33 103 51 302 106 651 266 732 335 43 36 72 80 72
108 0 27 -68 93 -118 114 -73 31 -206 52 -392 61 -94 4 -175 12 -181 18 -7 7
4 24 37 54 27 24 73 67 103 94 61 57 96 123 86 163 -10 42 -54 81 -109 97 -65
19 -207 18 -362 -5z"/>
<path d="M4692 17565 c-199 -68 -378 -207 -492 -380 -95 -147 -123 -256 -124
-495 -1 -157 1 -183 22 -250 28 -89 68 -169 87 -176 25 -10 85 34 85 62 0 8
-11 19 -24 26 -31 13 -61 82 -82 185 -12 58 -15 115 -12 232 4 137 8 166 32
236 88 258 364 488 623 520 40 5 61 2 97 -14 83 -36 75 -74 -37 -187 -88 -87
-228 -184 -397 -275 -133 -71 -249 -145 -256 -164 -9 -23 2 -56 37 -108 35
-53 137 -125 231 -163 65 -27 229 -68 338 -85 103 -16 249 -8 284 15 52 34 29
41 -130 41 -131 0 -162 3 -259 28 -131 34 -294 111 -350 165 -46 44 -70 85
-62 104 2 8 60 43 128 77 307 158 505 305 590 440 39 60 37 95 -4 136 -59 59
-200 72 -325 30z"/>
<path d="M14413 17555 c-83 -18 -176 -69 -220 -119 -45 -52 -97 -155 -120
-237 -51 -184 12 -826 89 -896 15 -13 23 -14 43 -5 29 13 33 50 10 86 -19 29
-65 207 -65 252 l0 33 118 -94 c199 -161 339 -227 480 -228 58 0 78 4 100 20
51 38 36 48 -63 45 -108 -5 -170 14 -285 84 -173 107 -284 207 -326 297 -33
72 -32 110 5 137 46 32 220 85 448 135 254 56 390 92 420 112 31 21 29 51 -8
106 -127 193 -418 319 -626 272z m243 -76 c38 -12 87 -30 109 -41 61 -31 173
-116 202 -155 22 -29 24 -36 12 -48 -19 -18 -111 -45 -304 -90 -272 -62 -355
-85 -443 -121 -47 -19 -90 -34 -95 -34 -13 0 -2 118 18 195 66 256 259 369
501 294z"/>
<path d="M12596 17415 c-9 -9 -16 -21 -16 -25 0 -5 24 -33 53 -62 60 -61 208
-236 243 -288 23 -34 23 -42 24 -241 l1 -207 -29 -53 c-16 -30 -60 -110 -97
-179 -90 -166 -109 -190 -145 -190 -34 0 -44 -12 -36 -45 9 -34 38 -39 85 -16
43 22 76 70 154 226 72 143 73 143 81 39 8 -111 20 -156 51 -191 22 -26 25
-27 40 -12 16 16 16 22 -4 100 -16 62 -21 112 -20 203 l0 121 48 85 c27 47 54
86 62 87 8 1 36 -27 62 -62 67 -89 171 -200 211 -224 61 -38 126 -17 126 40 0
32 -10 36 -40 17 -17 -11 -25 -10 -47 2 -37 21 -262 271 -262 292 -1 19 41 80
134 195 138 172 225 289 225 304 0 9 -7 22 -14 29 -27 22 -60 7 -96 -44 -19
-27 -84 -114 -143 -194 -60 -80 -118 -163 -130 -184 -12 -21 -27 -38 -34 -38
-6 0 -32 27 -57 59 -44 57 -46 62 -46 128 1 37 5 115 9 172 5 57 7 110 5 116
-5 12 -47 35 -64 35 -5 0 -16 -7 -25 -16 -13 -14 -14 -33 -9 -135 5 -79 4
-119 -3 -119 -6 0 -33 33 -62 74 -73 105 -128 173 -154 190 -39 24 -64 28 -81
11z m426 -542 c15 -15 28 -31 28 -35 0 -5 -16 -32 -35 -61 l-35 -52 0 88 c0
48 3 87 7 87 4 0 20 -12 35 -27z"/>
<path d="M15440 17279 c-94 -11 -265 -64 -291 -90 -15 -15 -17 -24 -9 -39 15
-28 53 -25 135 9 39 16 108 37 154 46 157 32 489 8 517 -37 11 -18 -63 -78
-261 -211 -360 -241 -440 -321 -421 -422 27 -141 374 -243 685 -202 116 15
150 30 138 61 -6 14 -18 15 -89 9 -46 -5 -144 -8 -218 -8 -153 1 -227 16 -329
68 -74 37 -107 74 -98 109 16 64 149 175 422 352 263 172 291 207 221 275 -76
73 -315 108 -556 80z"/>
<path d="M7745 17179 c-117 -6 -267 -28 -353 -50 -49 -13 -68 -39 -52 -69 13
-25 27 -25 87 -1 121 47 304 66 698 70 178 2 233 5 244 16 11 11 9 16 -18 30
-27 14 -65 16 -259 13 -125 -1 -281 -5 -347 -9z"/>
<path d="M23820 17099 c-173 -4 -443 -13 -600 -19 -157 -7 -366 -16 -465 -20
-243 -10 -503 -4 -685 16 -91 10 -204 15 -286 12 -122 -3 -137 -5 -150 -23 -8
-11 -13 -29 -12 -40 3 -19 9 -20 148 -17 87 3 219 -3 330 -13 196 -19 580 -16
900 5 80 5 325 14 545 20 220 5 443 12 495 15 52 2 173 4 268 4 l172 1 0 35 0
35 -172 -2 c-95 0 -315 -5 -488 -9z"/>
<path d="M16840 16942 c-82 -33 -106 -55 -94 -87 9 -22 42 -18 98 10 27 14 51
23 54 20 3 -2 -3 -25 -13 -51 -15 -40 -16 -48 -3 -60 24 -25 47 -5 84 74 26
55 34 80 27 92 -15 22 -99 23 -153 2z"/>
<path d="M7112 16894 c-16 -11 -22 -24 -20 -42 4 -32 11 -32 179 -13 107 11
142 10 443 -20 142 -14 538 -7 579 9 31 13 45 38 29 54 -8 8 -24 7 -57 -1 -79
-20 -425 -16 -632 8 -230 26 -487 29 -521 5z"/>
<path d="M16860 16466 c-67 -35 -84 -58 -84 -116 -1 -38 -12 -69 -50 -142 -57
-110 -141 -241 -202 -316 -47 -58 -57 -92 -25 -92 51 0 281 338 342 502 16 44
36 76 67 105 72 68 42 106 -48 59z"/>
<path d="M15426 15526 c-21 -8 -51 -27 -67 -42 -37 -36 -82 -125 -73 -147 13
-34 44 -15 73 45 19 38 71 85 102 93 34 8 107 -46 134 -100 30 -61 27 -207 -8
-350 -79 -319 -278 -506 -453 -426 -90 41 -127 140 -127 336 0 81 5 141 17
185 31 118 108 260 142 260 21 0 54 37 48 55 -7 18 -53 20 -89 3 -43 -19 -130
-176 -161 -290 -34 -124 -28 -334 14 -468 45 -146 205 -207 362 -139 98 42
228 214 276 364 28 89 64 284 64 349 0 66 -38 187 -68 219 -53 56 -122 76
-186 53z"/>
<path d="M5001 15469 c-107 -21 -202 -62 -314 -137 -165 -110 -276 -295 -308
-514 -32 -219 48 -862 128 -1036 31 -66 57 -82 86 -53 l21 21 -32 67 c-37 80
-54 139 -81 288 -86 472 -85 738 5 922 40 81 143 206 200 244 104 69 141 90
192 109 87 33 149 43 241 38 106 -5 194 -42 272 -115 109 -101 139 -196 83
-262 -54 -65 -296 -203 -447 -255 -84 -29 -323 -138 -369 -168 -67 -42 -98
-82 -98 -124 0 -91 94 -171 260 -222 231 -70 833 -157 854 -123 13 20 -14 40
-62 46 -233 28 -391 57 -600 107 -90 21 -193 50 -229 65 -67 27 -143 89 -143
117 0 21 48 74 84 93 51 28 213 101 341 155 265 110 466 241 501 325 21 49 17
84 -16 151 -38 75 -137 170 -223 214 -103 52 -231 70 -346 47z"/>
<path d="M14245 15436 c-80 -36 -199 -185 -287 -360 -23 -47 -63 -105 -94
-138 -59 -61 -68 -94 -38 -137 15 -21 15 -31 0 -126 -29 -186 -17 -313 39
-431 20 -41 51 -86 71 -104 32 -28 43 -31 76 -27 47 6 80 33 76 61 -3 21 -25
25 -82 14 -27 -4 -92 83 -112 151 -13 41 -15 88 -13 212 3 91 8 162 14 168 8
8 34 2 86 -18 42 -16 150 -44 240 -62 253 -50 471 -45 544 13 14 11 25 26 25
33 0 11 -14 10 -67 -6 -103 -29 -185 -33 -293 -15 -149 26 -421 96 -465 120
-38 21 -40 24 -38 66 1 24 -2 47 -7 50 -14 9 -3 20 105 106 248 200 376 368
325 429 -15 18 -64 19 -105 1z m45 -61 c0 -3 -9 -24 -21 -47 -23 -44 -235
-265 -246 -255 -3 4 16 44 43 89 57 95 171 218 203 218 11 0 21 -2 21 -5z"/>
<path d="M6790 15434 c-131 -19 -265 -61 -385 -119 -112 -54 -145 -79 -145
-111 0 -33 27 -41 64 -19 241 145 516 215 667 171 99 -29 123 -85 84 -196 -60
-171 -301 -486 -653 -852 -78 -82 -85 -103 -42 -125 33 -17 68 -16 320 7 118
10 330 24 470 31 305 13 335 17 335 44 0 20 -7 20 -305 18 -197 -1 -356 -8
-450 -18 -247 -27 -280 -29 -280 -17 0 6 52 67 117 134 233 246 460 544 543
711 40 82 50 177 25 231 -41 87 -199 134 -365 110z"/>
<path d="M12794 15421 c-22 -14 -35 -33 -47 -72 -28 -91 -48 -228 -54 -372 -4
-81 -10 -141 -17 -146 -6 -4 -54 -16 -105 -25 -223 -40 -398 -129 -375 -191 9
-23 35 -18 90 17 75 48 147 77 258 103 159 39 143 61 138 -190 -4 -187 -3
-215 10 -215 37 0 43 28 47 224 2 105 7 198 12 208 7 12 30 18 96 23 231 17
402 48 411 73 6 19 -144 14 -435 -14 l-73 -7 0 36 c0 52 29 268 50 376 15 74
25 100 47 123 22 23 25 32 17 46 -16 24 -34 25 -70 3z"/>
<path d="M10750 15358 c-51 -55 -87 -183 -76 -273 21 -176 155 -336 331 -395
l61 -20 0 -218 c-1 -245 17 -450 41 -459 8 -3 21 1 30 9 13 13 13 31 3 134
-12 125 -5 459 11 502 6 16 17 22 41 22 36 0 112 31 140 57 19 17 24 58 10 67
-5 3 -35 -6 -68 -19 -32 -14 -71 -25 -86 -25 -25 0 -28 3 -28 35 0 19 7 83 16
142 15 108 39 171 89 238 43 57 43 109 2 124 -33 13 -72 -12 -95 -61 -34 -70
-69 -207 -76 -293 -14 -163 -16 -175 -38 -175 -37 0 -151 65 -199 114 -27 26
-62 75 -79 109 -25 50 -30 72 -30 132 0 75 -1 72 65 161 24 33 29 78 10 97
-23 23 -50 21 -75 -5z"/>
<path d="M9811 15299 c-156 -15 -307 -76 -409 -165 -95 -83 -134 -178 -151
-362 -15 -165 -14 -405 4 -601 21 -239 34 -316 56 -340 22 -24 32 -25 60 -11
24 13 24 28 0 121 -40 158 -55 328 -55 624 0 258 1 285 21 342 40 120 122 202
265 267 91 42 144 55 256 62 144 11 277 -23 367 -92 43 -33 43 -60 -1 -86 -16
-10 -147 -50 -290 -89 -432 -118 -535 -157 -589 -221 -27 -32 -23 -60 20 -133
37 -64 83 -97 250 -180 245 -122 464 -181 645 -173 100 4 134 16 128 46 -2 13
-25 16 -128 18 -141 2 -262 28 -422 89 -164 63 -372 184 -417 242 -43 53 -24
67 189 137 74 24 225 68 335 96 287 74 300 79 337 103 40 27 62 70 54 103 -10
37 -84 112 -138 140 -58 29 -175 61 -248 67 -30 2 -93 0 -139 -4z"/>
<path d="M984 15058 c-346 -355 -530 -643 -621 -967 -48 -173 -36 -288 43
-403 71 -102 239 -185 439 -217 141 -23 246 -23 375 -2 232 38 368 98 480 210
97 98 121 144 127 241 4 67 2 79 -19 110 -119 175 -537 195 -871 41 -156 -72
-366 -229 -354 -264 9 -29 49 -16 124 41 153 115 314 195 470 234 68 17 119
22 223 22 166 1 251 -21 321 -83 42 -37 44 -41 43 -93 -4 -158 -171 -303 -422
-368 -250 -63 -504 -46 -708 49 -245 115 -282 277 -143 626 47 118 126 263
200 366 99 139 271 339 375 436 104 96 120 123 92 151 -7 7 -17 12 -24 12 -6
0 -74 -64 -150 -142z"/>
<path d="M16126 15149 c-15 -12 -26 -30 -26 -44 0 -19 8 -27 38 -35 20 -7 53
-10 72 -8 28 2 38 10 53 40 29 55 19 68 -51 68 -45 0 -66 -5 -86 -21z"/>
<path d="M20768 15025 c-14 -31 3 -55 40 -55 15 0 121 -14 237 -31 205 -30
216 -31 470 -26 330 7 617 -6 965 -43 496 -54 643 -65 1310 -96 184 -8 400
-19 480 -24 223 -15 210 -16 210 25 0 32 -2 35 -31 35 -17 0 -135 7 -263 15
-127 8 -400 22 -606 30 -428 18 -814 50 -1275 105 -187 22 -442 32 -690 27
-288 -6 -422 3 -599 39 -65 13 -145 24 -178 24 -52 0 -60 -3 -70 -25z"/>
<path d="M7877 14891 c-80 -5 -110 -10 -117 -21 -13 -21 -12 -43 3 -64 12 -16
22 -17 137 -5 86 8 212 10 402 5 152 -4 288 -4 302 0 16 4 26 13 26 24 0 21
-17 25 -180 39 -93 9 -156 13 -400 25 -36 1 -114 0 -173 -3z"/>
<path d="M16331 14770 c-22 -27 -50 -76 -63 -107 -23 -57 -23 -64 -21 -378 3
-365 8 -444 30 -452 8 -3 18 -2 23 3 5 5 13 178 18 384 10 416 7 398 82 485
31 36 39 52 34 69 -19 62 -52 61 -103 -4z"/>
<path d="M7744 14607 c-16 -9 -18 -40 -4 -67 10 -19 20 -19 181 -13 102 4 271
1 418 -7 136 -7 259 -10 274 -6 27 6 36 29 16 41 -50 31 -839 78 -885 52z"/>
<path d="M12410 13361 c-17 -5 -26 -15 -28 -34 -3 -27 -5 -27 75 -43 33 -6
133 -94 190 -165 99 -125 237 -369 277 -491 65 -192 15 -384 -171 -672 -97
-150 -184 -257 -315 -390 -65 -66 -118 -122 -118 -126 0 -4 7 -13 15 -20 20
-17 48 5 185 147 348 358 556 762 510 989 -35 170 -222 498 -383 670 -109 117
-174 154 -237 135z"/>
<path d="M20520 13151 c-58 -10 -135 -21 -172 -25 -74 -8 -116 -32 -105 -59 9
-23 55 -22 228 7 205 35 267 40 333 26 45 -9 56 -15 56 -31 0 -24 -108 -138
-230 -244 -177 -153 -186 -162 -174 -182 9 -15 31 -19 140 -24 82 -4 157 -14
204 -27 127 -34 239 -82 275 -117 32 -29 35 -37 35 -89 0 -70 -28 -152 -77
-225 -53 -78 -264 -286 -351 -345 l-72 -50 -233 18 c-612 46 -1039 56 -1362
32 -314 -23 -533 -21 -848 9 -277 26 -387 45 -575 96 -92 26 -118 30 -138 21
-28 -14 -31 -42 -6 -65 19 -18 228 -68 377 -92 50 -8 196 -24 325 -37 273 -26
672 -30 930 -9 206 17 624 15 950 -4 390 -23 417 -25 394 -37 -58 -31 -66 -39
-52 -55 18 -23 128 -10 194 22 61 30 111 32 306 11 295 -32 388 -32 388 0 0
31 -69 45 -297 62 -123 9 -223 19 -223 23 0 4 32 33 70 64 141 115 272 273
330 397 55 117 50 252 -10 308 -19 17 -81 45 -177 78 -173 60 -259 81 -328 82
l-50 1 60 52 c275 239 346 354 251 404 -47 25 -234 27 -366 4z"/>
<path d="M17832 13149 c-23 -4 -65 -20 -92 -35 -62 -34 -157 -118 -166 -147
-4 -12 -24 -41 -46 -65 -64 -70 -102 -176 -134 -372 -40 -242 9 -395 143 -446
88 -34 228 12 329 108 161 152 248 369 249 618 0 146 -18 217 -71 278 -44 51
-131 77 -212 61z m163 -99 c54 -52 69 -116 62 -264 -4 -93 -12 -141 -32 -206
-83 -260 -236 -424 -409 -437 -52 -4 -66 -2 -96 19 -20 13 -46 44 -59 71 -20
41 -24 63 -23 137 1 146 41 332 94 432 43 82 148 157 220 158 44 0 78 18 78
39 0 33 -30 42 -94 27 -49 -12 -55 -12 -44 1 33 40 112 63 205 59 57 -2 66 -5
98 -36z"/>
<path d="M11600 13135 c-19 -7 -46 -14 -60 -14 -30 -1 -69 -26 -78 -51 -4 -10
-43 -51 -87 -92 -76 -70 -88 -77 -226 -131 -328 -129 -458 -163 -677 -176
-187 -11 -221 -24 -222 -79 0 -29 20 -37 62 -23 18 5 96 17 173 26 191 22 304
52 534 144 108 43 197 77 199 76 2 -1 -16 -32 -39 -69 -90 -144 -129 -288
-109 -410 44 -277 215 -377 513 -302 395 100 708 502 621 797 -33 111 -95 184
-202 238 -78 39 -158 62 -240 66 -37 3 -80 7 -97 9 -16 3 -46 -1 -65 -9z m-15
-75 c-3 -6 -21 -17 -38 -26 l-32 -15 30 25 c30 26 51 34 40 16z m243 -5 c34
-8 86 -27 115 -41 113 -58 165 -121 188 -230 44 -216 -143 -501 -418 -638
-191 -95 -431 -88 -499 14 -115 173 -87 425 70 628 61 79 75 90 207 161 64 34
132 76 150 91 40 34 88 38 187 15z"/>
<path d="M6872 13090 c-101 -59 -255 -224 -355 -382 -193 -305 -266 -709 -178
-993 47 -149 85 -213 165 -272 46 -35 116 -27 116 13 0 7 -22 20 -48 28 -123
41 -190 195 -199 458 -10 289 59 533 222 778 105 157 274 320 334 320 39 0 64
21 59 51 -5 37 -51 36 -116 -1z"/>
<path d="M19759 13091 c-25 -10 -67 -32 -92 -50 -47 -32 -47 -32 -47 -8 0 27
-17 47 -42 47 -26 0 -88 -66 -88 -94 0 -13 -17 -86 -37 -162 -34 -126 -37
-151 -38 -269 0 -168 15 -217 94 -296 70 -70 145 -101 243 -102 154 0 276 108
323 290 16 61 22 244 10 329 -10 69 -44 203 -60 233 -46 89 -159 124 -266 82z
m163 -68 c16 -10 38 -31 48 -48 51 -82 77 -372 45 -495 -34 -133 -94 -201
-204 -234 -68 -20 -116 -20 -172 -1 -135 48 -192 172 -168 370 14 113 82 355
106 372 23 17 34 16 27 -2 -4 -8 -3 -22 0 -31 5 -14 10 -13 39 6 114 76 216
99 279 63z"/>
<path d="M18542 13068 c-7 -7 -12 -22 -12 -35 0 -37 47 -141 102 -225 27 -42
48 -81 46 -86 -1 -5 -41 -42 -87 -83 -128 -114 -184 -202 -149 -237 25 -25 46
-13 71 41 26 57 91 133 168 198 l50 42 39 -40 c43 -43 187 -133 257 -159 33
-13 47 -14 56 -5 16 16 -1 30 -103 86 -95 52 -188 119 -197 141 -3 8 3 22 13
30 60 46 302 206 379 249 94 53 119 85 69 85 -43 0 -246 -120 -425 -251 -37
-27 -74 -49 -82 -49 -27 0 -137 213 -137 265 0 23 -17 45 -35 45 -6 0 -16 -5
-23 -12z"/>
<path d="M1135 13019 c-191 -14 -219 -20 -223 -47 -5 -31 13 -50 54 -58 24 -4
42 -1 59 10 18 12 67 20 163 27 208 16 402 1 672 -53 170 -33 293 -74 352
-114 75 -52 43 -116 -147 -295 -208 -195 -371 -358 -484 -484 -174 -194 -305
-346 -363 -422 -98 -130 -137 -253 -85 -272 31 -12 37 -6 37 37 1 50 26 102
97 197 98 132 386 448 582 640 413 403 430 421 450 466 54 118 5 182 -194 249
-166 56 -416 103 -610 114 -207 13 -243 13 -360 5z"/>
<path d="M15570 12985 c-11 -13 -10 -25 4 -68 48 -147 38 -427 -15 -427 -5 0
-37 -13 -72 -30 -64 -30 -95 -65 -84 -94 5 -13 19 -9 82 24 42 22 80 38 85 35
11 -7 -17 -147 -46 -230 -33 -92 -34 -109 -8 -113 14 -2 29 7 43 24 28 35 66
159 81 262 9 58 17 85 29 91 20 11 178 38 281 49 166 16 181 -3 126 -161 -41
-117 -44 -172 -17 -234 52 -114 219 -89 375 57 201 189 145 441 -98 440 -23 0
-72 -11 -111 -24 -53 -18 -74 -22 -89 -14 -32 17 -258 3 -364 -22 -51 -12 -96
-20 -98 -17 -3 3 0 41 6 84 22 141 -6 349 -50 373 -26 14 -45 12 -60 -5z m827
-464 c127 -58 81 -247 -89 -360 -67 -45 -132 -55 -162 -25 -26 26 -20 106 19
225 19 60 35 117 35 128 0 10 6 23 13 29 32 26 128 28 184 3z"/>
<path d="M5794 12942 c-122 -75 -300 -201 -351 -246 -140 -126 -253 -352 -253
-507 0 -24 -3 -55 -7 -68 -5 -21 -10 -23 -47 -17 -123 20 -123 20 -141 -7 -18
-27 -13 -66 8 -68 7 0 46 -1 87 -1 41 0 81 -5 88 -10 7 -6 12 -33 12 -64 0
-30 11 -86 24 -126 13 -40 32 -98 41 -128 9 -30 23 -66 32 -79 13 -21 17 -22
30 -8 14 13 13 21 -7 73 -26 70 -72 297 -64 317 4 10 28 17 77 22 126 12 259
45 314 76 89 51 85 70 -9 45 -72 -18 -246 -44 -328 -48 l-55 -3 2 56 c4 115
60 277 133 384 69 99 287 278 425 347 73 37 95 55 95 80 0 29 -38 22 -106 -20z"/>
<path d="M7430 12933 c-64 -32 -171 -134 -227 -218 -94 -139 -182 -354 -218
-529 -50 -248 -39 -555 22 -574 17 -5 73 87 73 120 0 22 -5 27 -27 30 l-28 3
-3 120 c-3 134 9 250 39 370 89 353 327 671 463 619 24 -9 55 -67 65 -120 27
-145 -84 -343 -323 -571 -58 -56 -106 -106 -106 -111 0 -23 40 -54 98 -77 35
-13 88 -40 117 -60 169 -111 455 -180 505 -120 19 23 2 35 -49 35 -57 0 -196
38 -284 79 -34 15 -103 55 -154 87 -50 32 -100 64 -110 71 -16 10 -10 19 68
100 260 267 355 459 309 624 -21 77 -94 149 -150 149 -14 0 -50 -12 -80 -27z"/>
<path d="M8482 12905 c-147 -68 -283 -279 -343 -530 -17 -74 -20 -111 -16
-205 5 -138 28 -207 94 -280 53 -59 92 -73 182 -68 159 9 344 162 448 373 116
233 99 491 -41 643 -47 51 -110 78 -196 86 -67 5 -81 3 -128 -19z m233 -90
c115 -67 168 -272 121 -469 -51 -215 -246 -430 -410 -452 -137 -19 -215 63
-235 247 -13 123 6 238 64 393 48 126 135 256 154 227 10 -15 29 -7 50 22 28
39 73 57 145 57 56 0 78 -5 111 -25z"/>
<path d="M21854 12776 c-40 -40 -44 -78 -12 -100 31 -22 69 -20 108 7 52 35
57 49 31 91 -19 30 -28 36 -58 36 -26 0 -43 -8 -69 -34z"/>
<path d="M9287 12642 c-35 -39 -9 -78 45 -69 18 3 88 -6 155 -19 176 -35 275
-30 281 14 4 24 4 24 -128 41 -47 6 -121 20 -165 31 -103 25 -166 26 -188 2z"/>
<path d="M14084 12636 c-146 -33 -273 -107 -397 -231 -119 -119 -207 -278
-192 -346 14 -64 97 -107 184 -94 162 24 320 139 481 350 33 44 66 80 73 80
17 0 11 -86 -9 -150 -24 -74 -187 -518 -222 -605 -50 -123 -112 -253 -138
-287 -28 -37 -30 -55 -9 -73 48 -40 148 162 349 700 134 357 145 405 111 470
-32 62 -99 32 -192 -87 -82 -104 -218 -235 -273 -263 -108 -55 -193 -72 -245
-48 -62 28 -35 111 86 264 125 158 322 264 490 264 45 0 64 -6 99 -29 36 -24
47 -27 66 -19 44 20 39 59 -13 93 -36 24 -166 30 -249 11z"/>
<path d="M4588 12558 c-17 -13 -21 -28 -19 -59 2 -24 87 -55 106 -39 23 19 19
67 -7 84 -37 22 -63 27 -80 14z"/>
<path d="M10768 12501 c-78 -68 -158 -91 -408 -117 -85 -8 -161 -20 -167 -26
-15 -12 -17 -64 -3 -73 6 -4 43 0 83 9 39 8 104 18 144 21 205 17 423 116 423
191 0 33 -31 31 -72 -5z"/>
<path d="M14903 12510 c-24 -10 -62 -32 -85 -48 -69 -46 -67 -46 -61 -9 9 60
-56 77 -78 21 -17 -46 -22 -161 -10 -245 18 -122 28 -155 62 -194 27 -31 37
-35 78 -35 66 0 150 56 230 152 143 172 173 307 81 361 -40 24 -162 23 -217
-3z m165 -66 c27 -19 28 -54 2 -111 -46 -103 -159 -235 -217 -254 -58 -19 -84
20 -103 160 -11 81 -11 84 11 107 82 87 247 140 307 98z"/>
<path d="M23899 12450 c-40 -12 -72 -36 -91 -68 -15 -25 -16 -32 -4 -41 10 -9
27 -4 71 19 48 25 68 30 130 30 40 0 96 -5 126 -10 60 -12 292 -40 327 -40 18
0 22 5 22 34 l0 34 -72 7 c-40 4 -128 15 -195 26 -125 19 -267 24 -314 9z"/>
<path d="M9900 12390 c-25 -16 -67 -37 -93 -46 -70 -23 -220 -15 -378 21 -69
15 -134 25 -143 22 -19 -7 -22 -57 -4 -75 7 -7 23 -12 38 -12 14 0 66 -9 115
-19 198 -41 321 -35 433 21 88 44 138 107 91 116 -8 1 -34 -11 -59 -28z"/>
<path d="M4680 12255 c-8 -9 -10 -27 -6 -47 4 -18 13 -107 21 -198 18 -203 38
-330 76 -480 52 -202 85 -278 110 -253 9 9 3 48 -24 160 -50 205 -75 368 -88
578 -14 221 -21 255 -53 255 -13 0 -29 -7 -36 -15z"/>
<path d="M21854 12059 c-4 -7 -8 -50 -8 -98 -2 -76 -9 -107 -63 -271 -86 -262
-137 -445 -130 -465 4 -10 15 -15 29 -13 19 2 27 18 51 93 15 50 67 207 114
350 92 280 109 367 79 398 -20 19 -61 23 -72 6z"/>
<path d="M1630 10534 c-16 -26 -31 -51 -33 -57 -2 -7 -51 -12 -128 -13 -167
-3 -296 -34 -466 -111 -249 -114 -353 -208 -353 -318 0 -43 60 -104 138 -141
74 -35 274 -99 355 -114 42 -8 71 -18 74 -27 3 -8 -4 -103 -16 -212 -42 -368
-43 -379 -31 -474 12 -101 42 -198 72 -236 11 -14 38 -38 60 -53 74 -51 203
-30 305 48 70 53 126 167 158 317 28 128 14 240 -41 349 -62 123 -228 247
-391 293 -30 8 -34 28 -18 82 8 27 24 93 35 148 29 140 67 212 160 307 87 88
89 88 195 58 85 -24 114 -25 122 -4 9 23 -16 39 -95 60 -83 21 -91 28 -67 54
22 24 56 25 137 4 90 -23 115 -3 61 48 -24 22 -40 26 -116 32 l-87 6 -30 -46z
m-140 -133 c0 -5 -28 -31 -63 -58 -98 -78 -149 -193 -178 -404 -7 -52 -16 -99
-21 -105 -11 -14 -38 -7 -258 65 -182 59 -227 89 -216 144 4 18 17 47 30 65
73 104 351 243 572 286 83 17 134 19 134 7z m-52 -728 c149 -81 226 -182 252
-331 23 -129 -33 -329 -120 -435 -57 -68 -166 -106 -220 -77 -48 26 -96 161
-106 300 -6 80 11 312 37 519 l11 83 30 -6 c16 -3 69 -27 116 -53z"/>
<path d="M10870 4680 c0 -11 5 -20 10 -20 6 0 10 9 10 20 0 11 -4 20 -10 20
-5 0 -10 -9 -10 -20z"/>
</g>
</svg>
