<?xml version="1.0" standalone="no"?>
<!DOCTYPE svg PUBLIC "-//W3C//DTD SVG 20010904//EN"
 "http://www.w3.org/TR/2001/REC-SVG-20010904/DTD/svg10.dtd">
<svg version="1.0" xmlns="http://www.w3.org/2000/svg"
 width="2448.000000pt" height="3264.000000pt" viewBox="0 0 2448.000000 3264.000000"
 preserveAspectRatio="xMidYMid meet">
<metadata>
Created by potrace 1.12, written by Peter Selinger 2001-2015
</metadata>
<g transform="translate(0.000000,3264.000000) scale(0.100000,-0.100000)"
fill="#000000" stroke="none">
<path d="M9625 26175 c-297 -48 -533 -153 -711 -317 -106 -98 -199 -287 -219
-449 -3 -26 -12 -54 -19 -64 -12 -16 -17 -16 -90 -1 -98 20 -140 20 -160 0
-23 -23 -20 -42 13 -75 28 -27 34 -29 108 -29 117 0 118 -1 103 -136 -29 -248
35 -454 137 -442 38 4 41 36 9 75 -14 17 -31 43 -37 59 -16 39 -24 370 -11
406 l11 26 153 -4 c84 -2 178 1 208 6 30 5 125 21 210 35 85 14 178 32 207 40
70 20 152 20 160 0 3 -9 -10 -64 -30 -123 -59 -179 -58 -228 3 -287 58 -55
146 -25 286 95 100 86 139 139 204 270 29 58 75 142 102 188 52 86 55 112 16
112 -48 0 -76 -35 -183 -235 -53 -100 -85 -142 -151 -207 -106 -102 -145 -128
-188 -128 -23 0 -26 4 -26 33 0 19 14 74 31 123 17 49 34 116 36 150 5 54 3
63 -20 89 -23 27 -32 30 -99 33 -59 3 -116 -5 -272 -37 -168 -35 -228 -43
-402 -52 -210 -11 -234 -8 -234 27 0 7 18 68 41 136 60 181 99 243 216 343
195 166 504 263 809 254 105 -4 115 -6 185 -42 41 -20 77 -37 81 -37 4 0 15
11 23 24 30 46 -16 86 -151 132 -84 28 -211 31 -349 9z"/>
<path d="M4821 26043 c-35 -30 -117 -168 -215 -363 -103 -208 -161 -359 -172
-448 -9 -82 -25 -86 -83 -24 -64 67 -107 96 -171 118 -224 74 -490 -91 -490
-304 0 -101 51 -179 153 -236 182 -102 473 -86 807 44 83 33 94 34 145 11 124
-55 352 -66 625 -31 224 28 265 43 216 76 -23 14 -42 15 -203 4 -98 -7 -253
-11 -345 -9 -142 3 -170 7 -185 21 -9 10 -14 20 -11 23 3 3 66 28 141 54 147
53 170 67 211 122 73 102 -4 237 -166 290 -56 19 -95 24 -168 24 -88 0 -101
-3 -162 -33 -81 -40 -130 -95 -158 -178 -27 -77 -16 -145 36 -216 21 -30 32
-54 27 -59 -13 -13 -215 -63 -332 -83 -121 -21 -298 -21 -376 -1 -114 30 -173
103 -160 201 9 77 51 128 140 172 62 31 79 36 150 36 116 1 176 -34 281 -166
30 -37 67 -76 81 -85 24 -16 26 -16 39 2 9 11 14 45 14 84 1 36 7 91 14 121
24 103 132 351 221 510 20 36 50 90 67 120 17 30 52 76 79 102 54 51 61 78 27
102 -29 21 -51 20 -77 -1z m264 -742 c65 -29 105 -67 105 -101 0 -47 -47 -80
-220 -156 -205 -90 -231 -92 -277 -23 -33 50 -42 132 -20 175 25 48 82 95 139
116 73 26 203 21 273 -11z"/>
<path d="M12606 25808 c-33 -52 -89 -197 -114 -296 l-27 -107 -110 -22 c-83
-17 -114 -28 -127 -44 -24 -28 -23 -72 1 -93 19 -17 23 -16 96 20 66 33 78 36
90 23 13 -13 11 -26 -14 -104 -19 -60 -31 -123 -35 -190 -5 -71 -11 -104 -23
-117 -32 -35 16 -106 55 -82 29 19 42 56 42 127 0 44 13 123 36 218 47 196 58
204 209 148 84 -31 89 -71 26 -205 -36 -76 -39 -114 -12 -138 28 -26 50 -9 93
71 73 136 71 228 -6 308 -40 42 -63 52 -186 83 -31 7 -35 12 -33 39 2 16 30
92 63 168 33 77 60 149 60 161 0 50 -58 72 -84 32z"/>
<path d="M7220 25694 c-129 -39 -377 -134 -550 -211 -85 -38 -171 -76 -190
-83 -45 -17 -70 -39 -70 -60 0 -22 42 -60 66 -60 11 0 61 22 110 50 166 92
568 253 716 287 107 24 127 16 238 -92 132 -129 158 -145 234 -145 84 0 172
29 255 84 74 50 93 78 68 103 -21 22 -59 19 -93 -6 -42 -30 -176 -71 -234 -71
-69 0 -84 8 -185 104 -49 47 -105 93 -125 103 -57 28 -143 27 -240 -3z"/>
<path d="M13002 25687 c-28 -29 -28 -77 -1 -136 22 -50 78 -123 123 -162 29
-25 30 -29 28 -98 -4 -78 14 -122 64 -158 24 -18 25 -19 9 -62 -49 -140 24
-301 136 -301 125 0 312 120 375 241 35 69 28 202 -18 292 -30 60 -85 114
-146 144 -50 24 -69 28 -147 28 -80 0 -97 -4 -157 -32 -62 -29 -68 -30 -90
-16 -45 31 -86 75 -103 113 -18 39 -18 39 9 70 32 39 32 50 3 78 -30 28 -58
28 -85 -1z m506 -312 c85 -26 122 -53 148 -109 29 -61 32 -151 8 -202 -37 -77
-177 -169 -275 -181 -42 -5 -50 -3 -74 21 -22 22 -25 32 -20 59 11 53 49 129
99 196 66 90 63 110 -27 171 -27 18 -45 36 -40 40 23 23 113 25 181 5z m-204
-96 c14 -11 26 -24 26 -28 0 -5 -14 -28 -31 -51 l-32 -44 -23 28 c-23 26 -30
68 -18 100 9 22 46 20 78 -5z"/>
<path d="M323 25511 c-130 -62 -237 -163 -292 -276 l-31 -62 0 -226 0 -225 43
-51 c63 -76 111 -96 227 -95 119 0 132 6 324 138 32 21 107 88 167 148 134
132 168 193 176 316 6 92 -6 146 -47 197 -72 91 -166 134 -320 146 -58 5 -123
11 -145 14 -31 5 -53 -1 -102 -24z m360 -71 c51 -16 73 -30 109 -68 25 -26 51
-65 58 -86 18 -56 9 -142 -24 -207 -51 -105 -252 -285 -403 -362 -166 -84
-280 -70 -352 43 -44 69 -54 113 -49 209 5 74 11 98 46 171 45 94 81 140 111
140 35 0 51 12 66 46 16 39 95 94 134 94 15 0 35 -7 45 -15 41 -31 90 -8 79
36 -5 17 1 19 55 19 33 0 89 -9 125 -20z"/>
<path d="M11524 25441 c-111 -32 -180 -86 -261 -204 -47 -69 -57 -62 -49 31 8
97 -4 134 -51 163 -29 18 -44 21 -91 16 -107 -11 -211 -79 -350 -230 -31 -34
-51 -47 -71 -47 -33 0 -58 -26 -96 -100 -15 -30 -38 -68 -51 -83 -31 -36 -30
-69 0 -104 33 -37 43 -30 134 90 41 54 122 147 181 207 88 90 119 115 181 144
80 39 111 44 129 22 7 -9 10 -62 9 -159 -3 -166 -4 -165 101 -236 110 -74 105
-73 226 -66 130 8 202 28 341 97 146 72 258 167 231 195 -11 11 -89 -17 -157
-57 -66 -39 -209 -98 -290 -121 -25 -6 -86 -13 -135 -13 -72 -1 -97 3 -118 17
-20 13 -26 24 -22 37 4 12 0 22 -11 28 -52 29 68 189 180 243 109 52 210 48
274 -11 39 -35 36 -34 56 -14 29 28 20 68 -23 107 -63 57 -170 76 -267 48z"/>
<path d="M2586 25374 c-27 -15 -79 -37 -116 -49 -127 -43 -293 -138 -406 -232
-56 -46 -70 -140 -33 -218 44 -93 217 -211 344 -234 49 -9 73 -8 130 5 190 42
225 117 44 93 -117 -16 -202 -8 -269 26 -118 59 -180 128 -180 201 0 39 4 46
53 87 98 82 211 138 406 203 73 24 140 49 147 55 21 17 17 66 -5 79 -31 16
-63 12 -115 -16z"/>
<path d="M1485 25378 c-148 -54 -290 -202 -335 -351 -8 -25 -22 -42 -41 -52
-33 -17 -33 -19 -19 -45 8 -14 5 -53 -9 -137 -45 -268 -55 -377 -56 -578 0
-110 3 -212 8 -227 17 -61 71 -78 99 -30 18 30 47 272 49 412 1 47 8 132 16
190 18 131 13 188 -19 212 -12 10 -28 22 -34 27 -13 11 -6 61 8 61 5 0 18 -5
28 -10 48 -26 117 -30 183 -10 120 34 202 86 319 200 145 143 161 199 80 281
-60 59 -194 87 -277 57z m193 -88 c53 -24 55 -50 7 -113 -96 -126 -314 -261
-421 -261 -54 0 -84 15 -84 43 0 28 102 184 153 234 106 103 245 142 345 97z"/>
<path d="M6900 25322 c-99 -33 -163 -73 -242 -151 -68 -67 -78 -81 -78 -112 0
-38 24 -69 53 -69 8 0 32 26 51 59 72 118 194 191 321 191 48 0 56 -4 116 -56
81 -70 162 -124 213 -142 201 -70 516 56 457 184 -15 34 -44 30 -76 -12 -46
-60 -101 -78 -235 -78 -108 -1 -119 1 -180 31 -36 17 -92 54 -125 82 -33 29
-73 59 -90 67 -47 24 -123 27 -185 6z"/>
<path d="M14549 25281 c-52 -20 -97 -50 -254 -166 -140 -104 -181 -129 -190
-115 -7 12 42 105 85 160 38 49 43 69 25 96 -35 53 -85 14 -145 -111 -21 -45
-55 -107 -74 -138 -40 -62 -46 -108 -20 -145 9 -13 26 -22 42 -22 27 0 271
143 336 196 152 126 235 168 250 128 7 -19 -7 -116 -39 -267 -27 -125 -25
-167 6 -167 28 0 62 76 93 206 49 207 25 366 -56 364 -7 -1 -34 -9 -59 -19z"/>
<path d="M3067 25256 c-100 -29 -143 -88 -124 -173 7 -37 6 -47 -12 -69 -27
-34 -28 -113 -2 -170 36 -79 151 -153 241 -153 105 -1 274 61 362 132 43 34
78 99 78 143 -1 105 -159 244 -320 282 -81 19 -172 22 -223 8z m168 -70 c120
-33 228 -101 280 -176 28 -40 28 -40 9 -62 -28 -34 -43 -44 -114 -82 -208
-110 -410 -77 -410 66 0 60 102 138 180 138 23 0 35 7 50 33 l20 32 -22 18
c-27 23 -91 16 -151 -15 -43 -21 -70 -18 -60 8 9 23 81 54 128 54 22 0 63 -6
90 -14z"/>
<path d="M17373 22749 c-23 -11 -58 -38 -77 -59 -38 -42 -96 -151 -96 -180 0
-9 -16 -64 -35 -121 -34 -99 -45 -134 -81 -256 l-15 -53 -105 0 c-91 0 -107
-3 -124 -20 -25 -25 -25 -42 -1 -64 14 -13 35 -16 102 -14 98 3 94 10 59 -112
-12 -41 -24 -86 -28 -99 -11 -37 -25 -31 -43 19 -18 48 -32 58 -54 40 -20 -17
-19 -99 1 -150 16 -39 65 -80 96 -80 40 0 86 87 152 287 15 45 33 87 41 93 7
6 53 15 102 21 48 5 97 10 108 12 22 2 22 5 9 -134 -6 -69 -4 -82 18 -131 62
-134 249 -203 381 -139 57 28 76 56 53 79 -13 13 -24 14 -79 4 -91 -17 -127
-15 -171 11 -88 50 -109 137 -61 258 29 76 48 93 110 104 72 12 171 45 206 68
47 32 79 83 79 127 0 28 -8 43 -36 71 -33 32 -39 34 -107 34 -57 0 -82 -5
-121 -25 -60 -30 -129 -100 -157 -158 -12 -24 -31 -49 -43 -57 -24 -15 -232
-43 -242 -32 -8 8 -5 14 103 263 46 105 103 217 136 267 49 73 56 90 47 107
-23 44 -65 50 -127 19z m422 -507 c8 -23 -22 -49 -84 -72 -55 -20 -71 -19 -71
4 0 31 106 101 136 89 7 -2 15 -12 19 -21z"/>
<path d="M6181 22639 c-12 -13 -22 -43 -26 -82 -8 -69 -11 -79 -88 -299 -30
-86 -65 -198 -77 -248 -28 -109 -37 -113 -124 -40 -33 27 -86 63 -118 80 -32
17 -58 34 -58 36 0 3 36 45 80 92 83 91 98 122 56 122 -31 0 -109 -70 -151
-136 -37 -57 -51 -68 -105 -78 -49 -9 -97 -40 -120 -78 -60 -99 23 -305 153
-381 127 -75 348 -109 556 -88 214 22 404 80 431 132 14 26 7 137 -11 170 -6
12 -33 51 -60 88 -27 37 -49 78 -49 90 0 69 100 123 298 162 68 13 85 30 58
57 -13 13 -34 17 -94 16 -129 -1 -264 -61 -332 -146 -29 -35 -35 -52 -38 -103
-4 -59 -3 -61 50 -134 101 -140 105 -151 51 -172 -133 -51 -361 -77 -527 -60
-211 21 -332 86 -396 212 -25 49 -25 70 1 103 46 59 157 14 332 -136 65 -56
96 -68 125 -50 7 5 47 103 88 218 42 115 101 277 132 359 81 218 83 315 7 315
-13 0 -33 -9 -44 -21z"/>
<path d="M14249 22585 c-3 -2 -67 -20 -144 -39 -154 -40 -246 -79 -357 -154
-151 -102 -241 -193 -311 -313 -29 -50 -37 -128 -14 -147 19 -16 64 -25 93
-18 26 7 26 9 20 63 -6 53 -4 60 28 109 89 133 301 291 491 365 59 22 95 25
95 5 0 -7 -36 -53 -80 -102 -101 -112 -155 -213 -147 -275 3 -22 15 -51 27
-64 27 -29 98 -49 140 -40 41 9 96 58 121 107 26 50 46 49 59 -4 35 -139 118
-223 232 -235 44 -4 57 -2 81 17 27 21 36 53 17 65 -5 3 -33 9 -62 12 -110 12
-149 73 -179 280 -11 76 -19 161 -18 188 2 58 -9 142 -23 168 -8 15 -57 24
-69 12z m-30 -234 c15 -28 -19 -141 -58 -189 -83 -105 -150 -119 -127 -28 7
29 153 236 166 236 5 0 14 -8 19 -19z"/>
<path d="M18550 22493 c-131 -23 -265 -88 -352 -171 -126 -120 -278 -393 -278
-500 0 -47 34 -92 69 -92 38 0 47 14 60 85 17 97 142 322 233 421 47 51 131
110 193 137 55 23 161 47 212 47 52 0 96 16 91 33 -9 26 -72 47 -138 46 -36
-1 -76 -4 -90 -6z"/>
<path d="M15719 22466 c-46 -24 -172 -132 -307 -265 -131 -129 -172 -155 -172
-110 0 11 14 72 31 136 45 169 32 244 -39 228 -38 -8 -82 -58 -172 -195 -90
-136 -96 -144 -114 -137 -11 5 -12 14 -5 44 55 226 58 276 19 288 -48 15 -83
-34 -99 -140 -24 -161 -30 -195 -34 -202 -3 -5 -12 -43 -21 -86 -19 -90 -12
-112 35 -122 52 -12 85 11 163 115 40 53 81 111 92 129 10 17 27 31 37 31 17
0 19 -5 14 -37 -19 -125 -19 -138 0 -162 15 -19 32 -25 74 -29 50 -4 59 -1
114 36 57 39 198 176 279 272 36 44 38 44 52 25 10 -13 14 -33 10 -60 -3 -22
-8 -79 -12 -126 -14 -192 52 -273 235 -286 63 -5 86 -11 131 -39 72 -44 167
-69 260 -68 169 2 420 112 420 184 0 28 -26 26 -133 -14 -147 -55 -234 -76
-317 -76 -79 1 -132 18 -108 36 7 6 47 20 88 33 99 31 143 54 197 104 76 70
112 165 92 241 -24 91 -106 132 -247 123 -72 -4 -96 -10 -159 -43 -141 -71
-202 -174 -189 -315 5 -56 3 -68 -10 -73 -32 -12 -84 6 -110 37 -30 35 -30 51
-4 329 13 134 10 166 -16 192 -19 19 -41 20 -75 2z m654 -258 c39 -46 6 -138
-69 -191 -53 -37 -195 -97 -231 -97 -25 0 -25 1 -21 63 5 91 46 169 105 204
53 31 137 54 173 47 14 -3 33 -14 43 -26z"/>
<path d="M2790 22459 c-109 -33 -217 -181 -234 -320 -14 -109 -14 -109 -52
-109 -19 0 -77 16 -128 35 -98 37 -144 43 -164 23 -19 -19 -14 -56 11 -72 46
-31 163 -68 212 -68 65 0 104 -15 109 -42 3 -11 7 -49 10 -83 14 -157 98 -243
236 -243 49 0 166 32 272 73 131 52 167 87 168 161 0 54 28 163 52 206 24 43
104 108 178 145 112 57 319 125 377 125 51 0 45 -17 -50 -142 -63 -80 -84
-124 -107 -212 -45 -175 -35 -236 38 -236 70 0 181 92 224 187 10 23 23 45 27
48 22 13 46 -14 82 -92 52 -113 92 -168 130 -182 47 -16 104 -14 120 5 15 18
3 30 -71 77 -57 37 -154 242 -175 368 -12 79 -26 109 -51 109 -22 0 -44 -42
-44 -85 0 -84 -47 -182 -129 -267 -49 -52 -61 -57 -81 -33 -11 13 -11 24 0 58
22 73 92 204 146 274 96 123 115 186 64 213 -36 19 -260 -27 -416 -86 -123
-46 -269 -135 -308 -188 -58 -77 -96 -190 -96 -287 0 -45 -13 -55 -133 -97
-176 -63 -279 -63 -331 -1 -26 31 -48 114 -50 192 l-1 49 83 28 c205 70 334
243 278 373 -35 81 -115 120 -196 96z m80 -118 c60 -43 47 -120 -32 -184 -183
-148 -259 -121 -168 60 52 101 109 158 148 148 15 -3 38 -14 52 -24z"/>
<path d="M12916 22417 c-10 -7 -30 -38 -44 -68 -21 -41 -37 -59 -67 -74 -163
-83 -325 -264 -288 -323 36 -58 144 -77 200 -36 41 30 71 80 89 143 8 31 19
65 23 75 7 19 8 19 28 -1 14 -14 24 -44 32 -104 13 -89 48 -178 84 -217 68
-74 213 -92 225 -29 6 28 -16 45 -64 53 -88 13 -131 100 -141 287 l-6 108 31
29 c36 32 40 61 15 88 -10 10 -25 32 -33 48 -18 33 -55 42 -84 21z m-173 -313
c19 -20 -61 -114 -98 -114 -37 0 -31 17 24 71 47 48 61 56 74 43z"/>
<path d="M11810 22391 c-148 -48 -263 -141 -324 -264 -83 -167 -120 -381 -121
-702 0 -230 8 -295 56 -450 21 -69 69 -135 98 -135 24 0 50 30 67 77 18 52 17
77 -4 103 -15 19 -22 21 -39 12 -28 -16 -37 -3 -56 83 -66 294 -33 755 69 970
77 164 260 265 426 236 83 -14 177 -62 222 -111 60 -66 48 -107 -61 -211 -128
-123 -279 -214 -345 -207 -24 2 -36 10 -46 31 -25 53 -82 18 -82 -50 0 -41 26
-68 79 -84 74 -22 191 18 342 117 88 57 218 184 242 236 36 77 15 190 -45 245
-34 31 -157 92 -219 108 -73 20 -191 18 -259 -4z"/>
<path d="M515 22388 c-10 -6 -60 -15 -110 -19 -198 -17 -312 -57 -333 -118
-24 -69 44 -82 113 -21 26 24 135 32 135 11 0 -5 -32 -47 -70 -93 -118 -139
-177 -287 -168 -419 14 -196 166 -298 363 -245 197 52 433 287 480 478 16 62
16 71 1 114 -19 58 -84 143 -134 177 -20 14 -62 38 -93 53 -40 19 -61 36 -70
58 -12 26 -20 31 -54 33 -22 2 -49 -2 -60 -9z m48 -149 c141 -47 259 -140 273
-216 14 -73 -46 -181 -163 -296 -119 -118 -197 -157 -313 -157 -76 0 -157 39
-176 86 -21 50 -18 159 6 223 44 116 131 252 218 344 43 44 65 46 155 16z"/>
<path d="M18968 22374 c-130 -23 -265 -82 -317 -137 -32 -36 -22 -70 39 -129
79 -77 320 -179 527 -225 12 -3 39 -20 60 -37 33 -30 37 -38 37 -82 0 -36 -7
-59 -27 -89 -58 -87 -242 -223 -442 -325 -123 -63 -149 -81 -167 -113 -13 -24
6 -47 40 -47 43 0 312 106 416 164 83 47 215 146 260 197 96 106 106 252 22
322 -68 57 -121 81 -306 137 -208 63 -303 109 -331 163 -15 28 2 41 92 71 127
43 236 50 441 30 146 -15 179 -16 192 -5 20 17 21 55 0 72 -19 15 -280 48
-384 48 -41 -1 -109 -7 -152 -15z"/>
<path d="M1822 22335 c-158 -35 -330 -157 -416 -292 -22 -37 -31 -43 -60 -43
-18 0 -39 -6 -45 -14 -6 -7 -13 -59 -16 -114 -2 -56 -15 -152 -29 -214 -13
-62 -27 -135 -30 -163 -3 -27 -12 -95 -20 -150 -8 -55 -18 -211 -22 -346 l-7
-246 24 -16 c84 -60 102 23 119 553 15 464 20 496 92 625 87 154 148 214 296
290 113 59 203 60 267 3 60 -52 47 -97 -62 -225 -52 -62 -197 -162 -280 -193
-47 -18 -71 -21 -125 -17 -59 5 -69 3 -78 -13 -11 -21 0 -59 21 -77 61 -47
218 -1 385 113 173 118 274 254 274 367 0 45 -38 115 -80 149 -44 35 -120 43
-208 23z"/>
<path d="M10260 22296 c-108 -31 -211 -111 -249 -192 -26 -55 -39 -56 -134 -7
-69 35 -77 37 -172 38 -118 0 -201 -24 -381 -110 -89 -43 -120 -64 -160 -108
-52 -57 -90 -138 -101 -213 -5 -36 -2 -46 20 -68 28 -28 68 -34 85 -13 6 7 11
38 11 69 -1 68 27 136 73 179 43 40 160 99 273 137 140 48 167 49 261 14 43
-17 98 -36 121 -42 47 -12 63 -32 63 -80 0 -81 77 -175 173 -211 55 -21 79
-24 202 -24 139 1 202 11 240 39 19 14 19 15 2 33 -16 16 -37 18 -175 18 -204
0 -261 18 -319 100 -20 28 -27 53 -24 83 1 8 22 12 69 12 149 0 323 73 369
154 30 52 -1 152 -57 181 -41 21 -136 27 -190 11z m98 -92 c31 -9 55 -56 39
-77 -27 -36 -254 -108 -294 -93 -53 21 58 126 170 161 50 16 55 17 85 9z"/>
<path d="M5047 22192 c-88 -88 -107 -114 -213 -269 -43 -65 -60 -83 -79 -83
-20 0 -25 7 -31 36 -8 42 1 140 22 241 16 79 10 107 -26 118 -10 3 -28 1 -39
-4 -34 -19 -44 -76 -45 -256 0 -137 3 -177 16 -208 45 -101 148 -56 265 114
157 230 157 230 183 227 29 -3 45 -45 80 -220 28 -135 47 -168 96 -168 28 0
44 8 76 40 47 48 45 72 -4 63 -46 -7 -57 9 -68 103 -14 113 -53 275 -76 315
-35 59 -58 52 -157 -49z"/>
<path d="M8294 22180 c-211 -42 -424 -242 -424 -398 0 -99 66 -149 184 -139
113 10 290 122 385 244 27 34 40 43 59 41 21 -3 29 -13 48 -71 49 -146 228
-298 303 -257 33 17 23 49 -29 87 -79 57 -119 103 -160 185 -44 88 -51 125
-22 113 9 -5 28 -8 42 -9 22 -1 25 4 28 34 4 51 -26 90 -92 124 -105 52 -212
67 -322 46z m183 -102 c20 -16 -7 -55 -80 -120 -206 -182 -346 -251 -415 -202
-31 21 -28 61 8 116 61 92 159 161 285 201 83 26 172 29 202 5z"/>
<path d="M1685 20678 c-75 -27 -195 -140 -316 -298 -235 -306 -301 -573 -228
-924 80 -385 260 -568 634 -647 89 -19 486 -19 509 0 29 24 2 30 -198 46 -333
27 -455 58 -593 150 -148 99 -243 271 -278 503 -29 189 -15 389 35 514 36 90
95 205 147 286 52 82 252 284 301 304 9 4 45 7 80 7 49 1 64 5 69 18 16 43
-85 68 -162 41z"/>
<path d="M2428 20550 c-15 -9 -15 -14 -2 -46 12 -28 13 -58 8 -142 -4 -59 -7
-163 -8 -232 l-1 -125 -110 -6 c-138 -8 -205 -21 -343 -64 -116 -37 -154 -63
-136 -93 15 -23 66 -27 104 -7 91 47 306 95 426 95 49 0 54 -2 60 -25 3 -14 3
-50 0 -79 -8 -59 3 -187 34 -396 12 -74 19 -157 18 -184 -3 -41 0 -49 18 -56
34 -13 68 10 72 49 2 18 -8 117 -22 220 -32 243 -50 436 -42 457 7 19 18 18
273 -11 214 -24 343 -13 274 25 -25 13 -308 56 -433 66 -124 10 -125 11 -110
123 7 50 15 161 19 246 6 141 4 157 -12 175 -19 21 -59 26 -87 10z"/>
<path d="M17294 20355 c-10 -24 2 -42 53 -79 115 -83 273 -336 386 -622 143
-357 137 -719 -15 -979 -61 -105 -163 -248 -232 -329 -132 -151 -197 -237
-194 -254 6 -34 47 -26 96 20 127 117 295 326 386 481 130 221 171 403 147
653 -21 219 -80 401 -217 670 -98 194 -165 292 -257 382 -65 62 -80 72 -111
72 -23 0 -39 -5 -42 -15z"/>
<path d="M8062 20298 c-10 -13 -15 -47 -56 -378 -50 -400 -56 -565 -26 -672
28 -97 149 -106 138 -10 -2 20 -11 29 -35 36 l-33 9 0 121 c0 67 11 220 25
341 22 188 35 280 72 493 9 54 -53 98 -85 60z"/>
<path d="M8555 20220 c-12 -19 -106 -658 -120 -815 -8 -90 8 -211 31 -236 9
-10 27 -19 38 -19 21 0 21 4 21 153 1 115 7 196 28 332 50 320 68 429 83 488
14 53 13 61 -1 83 -16 25 -68 34 -80 14z"/>
<path d="M5802 20184 c-24 -17 -29 -56 -9 -71 6 -6 52 -13 100 -16 73 -5 89
-4 94 9 9 24 -44 71 -92 83 -57 14 -66 14 -93 -5z"/>
<path d="M4026 20009 c-44 -35 -96 -160 -165 -398 -6 -20 -23 -31 -87 -53 -65
-24 -92 -28 -155 -26 -64 3 -83 8 -124 33 -86 53 -160 198 -172 335 -6 68 -20
90 -58 90 -12 0 -29 -6 -38 -12 -16 -12 -16 -19 -3 -95 36 -203 143 -366 269
-410 75 -26 198 -24 258 4 73 33 77 24 50 -109 -21 -100 -25 -153 -32 -453 -8
-375 -15 -424 -72 -527 -35 -64 -31 -80 25 -93 31 -8 48 12 78 95 45 122 59
248 61 526 2 360 25 502 130 804 43 122 64 164 104 208 36 41 44 69 23 90 -18
18 -62 14 -92 -9z"/>
<path d="M14829 19944 c-7 -9 -30 -59 -50 -112 -21 -54 -51 -129 -67 -168 -36
-85 -181 -372 -191 -379 -4 -2 -25 14 -47 36 -71 74 -211 130 -436 174 -49 10
-88 21 -88 25 0 4 17 12 38 18 94 27 166 36 277 36 98 -1 130 -4 173 -22 30
-11 60 -18 68 -15 22 8 16 40 -13 73 -23 26 -40 33 -98 42 -198 30 -551 -35
-579 -107 -10 -27 16 -64 61 -85 24 -11 118 -38 208 -60 178 -43 294 -90 344
-141 35 -35 37 -51 15 -104 -8 -20 -15 -60 -16 -88 0 -57 -21 -97 -96 -185
-48 -57 -99 -89 -126 -79 -12 5 -16 21 -16 66 0 71 -6 91 -30 91 -27 0 -38
-20 -50 -93 -8 -53 -8 -74 4 -100 15 -37 70 -77 105 -77 118 0 331 280 331
435 0 19 26 80 67 158 l67 127 51 -5 c27 -3 125 -8 218 -11 92 -3 167 -9 167
-13 0 -3 -9 -31 -21 -61 -28 -73 -28 -158 0 -203 22 -36 91 -90 144 -112 108
-45 293 -58 364 -26 55 26 79 69 148 270 73 211 99 266 156 323 39 39 60 51
133 73 69 21 86 30 86 45 0 31 -36 43 -106 36 -34 -4 -79 -13 -99 -22 -93 -38
-186 -192 -269 -442 -37 -109 -55 -149 -79 -173 l-31 -32 -106 6 c-121 6 -201
31 -245 77 -26 27 -27 33 -22 92 3 35 16 88 31 120 23 52 29 58 68 68 119 31
216 77 249 118 30 38 25 97 -10 133 -24 23 -38 29 -73 29 -74 0 -134 -38 -207
-131 l-65 -81 -210 7 c-116 4 -213 9 -216 11 -2 3 14 42 37 87 23 45 55 117
72 160 18 43 41 96 52 118 14 29 17 44 10 58 -18 33 -60 41 -82 15z m602 -358
c-16 -19 -81 -49 -89 -41 -12 11 48 55 75 55 21 0 23 -3 14 -14z"/>
<path d="M13687 19869 c-31 -18 -40 -59 -20 -81 15 -17 26 -19 67 -14 27 3 57
1 67 -4 23 -13 49 -2 49 20 0 10 -18 34 -40 54 -42 38 -86 47 -123 25z"/>
<path d="M6572 19828 c-161 -17 -282 -67 -367 -153 -115 -116 -157 -268 -117
-418 34 -128 238 -176 463 -109 117 35 189 74 189 104 0 19 -4 20 -61 14 -33
-4 -73 -12 -87 -17 -104 -40 -315 -54 -371 -25 -48 25 -64 67 -58 150 12 178
142 315 333 352 106 20 210 20 259 -1 43 -17 85 -13 85 9 0 68 -118 109 -268
94z"/>
<path d="M5020 19791 c-134 -37 -228 -99 -291 -192 -41 -61 -57 -70 -79 -44
-15 18 -54 20 -68 2 -20 -24 -34 -103 -77 -432 -8 -60 -19 -144 -25 -185 -31
-231 -32 -261 -14 -281 10 -11 30 -19 50 -19 40 0 40 1 49 145 7 135 46 402
60 422 10 14 18 14 63 3 63 -15 131 -7 227 27 198 70 363 193 410 306 22 53
20 142 -6 183 -47 77 -165 103 -299 65z m173 -62 c156 -43 12 -271 -238 -376
-82 -34 -214 -73 -249 -73 -75 0 -71 49 15 179 104 156 207 233 354 266 77 17
74 17 118 4z"/>
<path d="M5664 19796 c-3 -8 -1 -30 5 -48 6 -18 17 -86 23 -151 11 -104 10
-139 -8 -300 -18 -158 -19 -185 -7 -205 11 -18 22 -22 46 -20 32 3 32 3 39 73
3 39 11 120 18 180 9 93 7 282 -6 345 -1 8 -3 33 -3 56 -1 52 -17 73 -63 81
-29 4 -39 2 -44 -11z"/>
<path d="M7155 19749 c-135 -47 -222 -155 -274 -340 -33 -120 -27 -169 26
-197 57 -31 168 9 227 81 36 45 109 184 120 230 7 28 27 36 43 15 5 -7 25 -51
44 -98 22 -55 48 -99 75 -127 37 -40 45 -43 92 -43 48 0 82 17 82 40 0 15 -43
40 -68 40 -34 0 -68 43 -118 148 -54 113 -63 149 -40 158 22 9 20 50 -4 74
-45 45 -111 51 -205 19z m71 -114 c-9 -37 -126 -237 -160 -273 -33 -36 -75
-62 -101 -62 -47 0 30 210 110 298 69 77 167 101 151 37z"/>
<path d="M11823 19746 c-57 -18 -109 -52 -134 -87 -11 -16 -28 -29 -37 -29 -9
0 -36 19 -60 43 l-43 42 -82 0 c-180 -2 -277 -91 -452 -419 -65 -122 -115
-252 -115 -301 0 -26 6 -39 25 -51 35 -23 54 -15 92 40 30 44 33 53 27 97 -6
45 -3 55 61 176 125 238 188 314 292 353 30 11 74 20 99 20 38 0 50 -5 75 -32
39 -43 44 -65 23 -113 -23 -53 -32 -256 -14 -311 20 -61 57 -101 124 -134 81
-39 166 -60 247 -60 112 0 229 28 229 56 0 29 -44 38 -185 39 -262 1 -344 56
-345 231 0 70 14 81 58 42 102 -88 233 -79 341 25 108 104 107 227 -3 324 -67
59 -139 75 -223 49z m163 -105 c43 -26 67 -80 53 -118 -28 -74 -119 -132 -207
-133 -48 0 -58 4 -87 33 -48 48 -53 79 -22 126 64 97 186 139 263 92z"/>
<path d="M16495 19740 c-149 -16 -229 -44 -258 -91 -18 -30 1 -68 51 -100 67
-42 156 -67 319 -89 257 -35 332 -58 341 -104 7 -33 -70 -97 -233 -196 -49
-30 -137 -85 -194 -122 -128 -83 -220 -122 -337 -143 -178 -33 -240 -65 -179
-93 73 -33 275 -2 412 63 69 32 269 151 433 256 161 104 209 179 168 265 -44
94 -135 128 -448 169 -134 17 -223 41 -217 58 6 18 83 37 177 43 170 13 392
-30 481 -91 43 -30 69 -27 69 7 0 36 -28 68 -76 89 -71 30 -223 68 -299 74
-38 3 -86 7 -105 9 -19 2 -66 0 -105 -4z"/>
<path d="M13469 19664 c-7 -9 -22 -64 -31 -122 -10 -58 -43 -180 -73 -270 -30
-91 -55 -171 -55 -178 0 -19 44 -46 62 -39 21 8 31 31 87 200 50 151 91 316
91 366 0 50 -52 78 -81 43z"/>
<path d="M12658 19656 c-77 -27 -195 -103 -254 -162 -109 -109 -151 -234 -105
-310 47 -77 203 -103 326 -56 80 31 179 85 241 133 53 41 74 48 74 26 0 -7
-23 -71 -50 -142 -28 -72 -80 -226 -115 -343 -119 -392 -147 -472 -166 -472
-5 0 -9 15 -9 34 0 72 -42 53 -66 -30 -31 -108 -15 -174 42 -174 32 0 64 45
127 181 62 132 72 158 167 459 40 124 103 307 141 408 79 209 86 260 43 288
-29 20 -18 26 -150 -89 -55 -48 -110 -83 -188 -121 -131 -64 -170 -76 -253
-76 -50 0 -67 4 -83 20 -19 19 -19 22 -5 58 39 93 107 161 231 232 77 44 81
45 166 45 47 0 89 3 93 7 15 15 -7 59 -38 78 -38 23 -113 26 -169 6z"/>
<path d="M8952 19578 c-21 -26 -45 -164 -46 -265 -1 -117 11 -143 80 -178 103
-51 214 -12 383 136 73 65 106 88 114 80 7 -7 -9 -69 -56 -213 -71 -213 -106
-339 -163 -578 -107 -450 -110 -460 -128 -460 -7 0 -18 11 -24 25 -16 35 -30
31 -48 -12 -23 -55 -11 -140 22 -155 21 -10 28 -8 55 18 54 51 84 123 139 339
77 295 90 346 120 440 18 55 34 109 37 120 3 11 27 88 53 170 54 168 93 310
111 402 9 49 9 69 -1 92 -25 62 -56 50 -136 -50 -160 -201 -437 -342 -474
-243 -12 31 1 127 32 233 16 53 19 78 11 90 -13 20 -66 26 -81 9z"/>
<path d="M363 17030 c-25 -10 -63 -65 -63 -91 0 -9 9 -24 20 -34 37 -33 150
-2 150 41 0 17 -40 84 -50 84 -5 0 -14 2 -22 4 -7 3 -23 1 -35 -4z"/>
<path d="M12479 16839 c-143 -33 -317 -152 -426 -289 -68 -85 -138 -232 -167
-351 -14 -57 -26 -114 -26 -126 0 -11 -16 -40 -35 -63 -47 -56 -46 -84 3 -109
34 -17 40 -26 52 -76 24 -101 86 -170 135 -151 23 9 18 40 -19 108 -39 74 -59
141 -54 188 4 49 42 67 179 85 152 20 479 39 490 28 5 -5 15 -42 23 -83 20
-103 55 -176 112 -233 57 -57 177 -121 267 -142 114 -27 237 -12 245 29 6 29
-25 46 -87 46 -160 1 -312 76 -375 185 -26 43 -66 154 -66 180 0 24 26 34 105
40 203 17 258 66 205 183 -16 35 -29 47 -72 67 -61 29 -149 33 -202 11 -52
-22 -102 -79 -121 -138 -10 -29 -19 -55 -21 -57 -2 -2 -88 -5 -192 -7 -187 -2
-272 -11 -390 -41 -79 -20 -91 -12 -73 49 23 79 121 262 172 323 78 91 164
160 268 212 91 47 95 48 185 48 83 0 98 -3 165 -34 88 -40 157 -52 167 -27 16
42 -81 109 -203 141 -61 16 -185 18 -244 4z m403 -549 c39 -11 68 -42 68 -71
0 -22 -43 -37 -135 -45 l-75 -7 0 30 c0 29 31 67 75 91 25 14 22 14 67 2z"/>
<path d="M5480 16798 c-42 -29 -110 -153 -150 -273 -22 -67 -60 -269 -60 -322
0 -2 -11 -3 -24 -3 -18 0 -34 14 -63 58 -45 65 -117 124 -173 141 -59 18 -145
14 -189 -9 -51 -25 -96 -82 -122 -150 -17 -44 -20 -72 -17 -145 3 -79 9 -104
48 -199 35 -87 54 -119 92 -157 95 -95 223 -102 391 -20 47 22 94 41 104 41
21 0 103 91 103 114 0 9 -11 18 -24 22 -37 9 -71 107 -62 177 7 50 57 270 76
332 47 151 85 235 144 314 31 41 33 76 7 91 -29 15 -44 13 -81 -12z m-504
-495 c36 -12 68 -36 124 -92 100 -100 135 -171 143 -294 6 -83 5 -88 -17 -102
-74 -49 -236 -71 -294 -41 -74 39 -121 139 -142 300 -13 101 2 167 47 213 39
38 65 41 139 16z"/>
<path d="M7556 16710 c-40 -45 -116 -189 -116 -220 0 -36 -33 -194 -43 -207
-5 -7 -28 -13 -52 -13 -30 0 -47 -6 -61 -21 -24 -27 -10 -49 44 -67 30 -10 42
-19 42 -33 0 -10 -14 -78 -30 -151 -49 -214 -52 -239 -33 -260 30 -33 56 -19
70 37 45 187 83 329 90 336 5 5 53 -2 107 -16 55 -14 138 -28 185 -32 106 -7
128 -15 143 -50 68 -153 172 -231 419 -313 163 -54 409 -87 457 -61 50 27 10
66 -78 76 -194 23 -394 86 -533 169 -116 69 -186 164 -117 159 77 -6 273 -2
320 6 116 20 150 47 150 119 -1 124 -96 212 -262 243 -122 22 -263 -17 -342
-95 -26 -27 -37 -50 -48 -98 -13 -62 -14 -63 -48 -65 -56 -4 -302 50 -314 69
-7 12 0 48 28 140 46 153 70 212 107 262 73 100 -3 177 -85 86z m734 -402 c47
-17 98 -60 115 -95 16 -32 16 -37 1 -51 -29 -29 -398 -46 -424 -20 -17 17 -15
63 3 98 35 68 202 105 305 68z"/>
<path d="M20984 16691 c-32 -15 -53 -36 -93 -97 -28 -43 -51 -84 -51 -91 0 -8
-21 -66 -47 -130 l-47 -115 -63 -30 c-68 -33 -95 -63 -86 -97 5 -18 11 -21 33
-16 16 3 31 2 34 -3 7 -11 -64 -133 -82 -139 -7 -3 -22 3 -33 13 -24 21 -22
23 -72 -56 -19 -30 -33 -38 -87 -52 -36 -9 -91 -16 -123 -17 -48 -1 -62 3 -82
23 -30 30 -40 106 -31 236 8 112 0 130 -61 130 -25 0 -50 11 -83 35 -157 116
-394 93 -547 -52 -51 -48 -68 -85 -87 -191 -7 -39 12 -90 45 -121 33 -31 109
-69 163 -81 107 -24 266 27 355 112 53 51 70 45 87 -31 14 -65 51 -105 121
-131 77 -29 161 -27 234 6 l59 27 29 -32 c16 -17 36 -31 44 -31 33 0 178 164
271 305 36 55 71 108 78 118 25 35 156 48 260 26 46 -10 277 -91 302 -107 14
-8 -25 -32 -53 -32 -47 0 -188 -51 -225 -81 -47 -39 -48 -74 -3 -116 47 -45
89 -63 149 -63 72 0 138 22 215 70 84 53 110 79 92 91 -8 5 -17 9 -21 9 -18 0
-6 31 15 39 26 10 47 -3 47 -29 0 -9 6 -30 14 -46 7 -16 16 -71 20 -123 8
-131 60 -345 94 -396 35 -50 68 -58 83 -18 13 34 6 224 -16 428 -8 77 -15 163
-15 190 0 59 -14 115 -32 127 -36 22 -126 1 -157 -36 -8 -9 -19 -16 -26 -16
-7 0 -88 36 -180 81 -231 112 -260 122 -380 124 -91 2 -100 4 -99 22 0 21 100
194 151 262 39 53 41 64 8 96 -29 30 -65 32 -121 6z m-1051 -475 c87 -42 76
-78 -56 -179 -83 -64 -118 -81 -198 -95 -107 -20 -180 18 -181 95 0 49 19 87
70 137 57 54 127 77 227 73 63 -2 92 -9 138 -31z m1522 -246 c3 -5 -17 -21
-45 -35 -59 -30 -134 -43 -145 -26 -10 17 -5 20 67 47 67 25 113 30 123 14z"/>
<path d="M5950 16682 c-38 -17 -62 -41 -56 -57 3 -9 27 -25 53 -36 27 -11 55
-24 63 -29 73 -46 135 -66 158 -51 20 12 -5 57 -61 108 -70 64 -116 83 -157
65z"/>
<path d="M16208 16651 c-25 -16 -48 -36 -51 -46 -4 -9 -7 -50 -7 -92 0 -41 -7
-99 -16 -129 l-15 -54 -83 0 c-68 0 -86 -3 -99 -18 -22 -24 -21 -35 3 -57 16
-14 31 -17 79 -12 79 7 88 -4 61 -68 -11 -25 -20 -57 -20 -70 0 -13 -5 -36
-11 -52 -23 -56 -37 -149 -32 -198 8 -69 19 -87 51 -83 25 3 27 8 38 74 14 81
109 372 128 392 10 10 42 10 173 -3 214 -20 318 -41 318 -63 0 -6 -24 -39 -53
-72 -71 -80 -89 -133 -72 -209 29 -129 178 -199 405 -188 225 10 321 83 300
226 -21 138 -183 301 -301 301 -40 0 -84 -34 -84 -65 0 -29 39 -59 64 -49 68
26 206 -129 206 -233 0 -43 -25 -58 -120 -73 -142 -24 -296 4 -345 62 -46 55
-33 105 51 201 77 87 79 139 6 175 -85 43 -289 82 -423 82 -48 0 -90 4 -94 10
-3 5 10 64 30 132 40 139 42 168 17 191 -26 24 -52 21 -104 -12z"/>
<path d="M19571 16663 c-27 -9 -65 -36 -95 -67 -53 -54 -200 -248 -212 -281
-4 -11 -32 -56 -63 -100 -106 -154 -149 -221 -175 -279 -19 -41 -31 -56 -43
-54 -9 2 -41 49 -73 108 -102 190 -190 259 -341 268 -70 4 -85 2 -131 -21 -68
-34 -112 -80 -132 -140 -20 -59 -20 -93 -1 -147 75 -212 416 -371 761 -353
110 6 149 18 149 48 0 24 -46 33 -171 34 -273 3 -547 123 -625 273 -25 49 -25
118 1 151 28 36 99 61 147 52 111 -20 182 -85 257 -233 46 -91 123 -162 175
-162 24 0 56 41 105 135 62 119 349 489 456 588 34 32 79 67 101 80 21 12 42
30 45 40 9 27 -6 57 -33 68 -32 12 -49 11 -102 -8z"/>
<path d="M6549 16501 c-19 -15 -25 -32 -29 -82 l-5 -64 -65 -35 c-40 -21 -99
-68 -151 -120 -73 -72 -93 -100 -133 -180 -80 -166 -85 -229 -20 -250 72 -24
160 8 230 82 86 92 127 171 142 271 5 35 12 53 23 55 27 5 60 -31 70 -78 5
-25 18 -67 29 -95 11 -27 29 -83 41 -123 17 -59 30 -82 73 -127 51 -54 53 -55
107 -55 98 0 124 53 38 77 -84 24 -95 44 -166 310 -34 130 -63 255 -63 277 -2
135 -53 192 -121 137z m-54 -292 c10 -15 -45 -120 -111 -212 -77 -108 -163
-167 -180 -123 -10 26 77 177 141 244 81 88 133 119 150 91z"/>
<path d="M14144 16501 c-129 -44 -284 -207 -452 -474 -68 -108 -88 -130 -113
-122 -31 10 -78 -5 -94 -29 -21 -31 -35 -117 -24 -137 14 -26 70 -42 104 -29
44 17 134 119 215 245 144 224 169 260 225 328 65 78 155 152 205 168 19 6 45
18 58 26 19 11 21 17 11 29 -15 19 -72 17 -135 -5z"/>
<path d="M1433 16443 c-15 -13 -25 -42 -36 -103 -8 -47 -21 -110 -30 -140 -9
-31 -25 -103 -36 -160 -27 -134 -76 -293 -104 -336 -24 -36 -57 -50 -86 -35
-22 12 -27 23 -51 116 -76 286 -90 350 -91 397 -1 112 -35 166 -86 138 -43
-25 -48 -42 -30 -101 8 -30 19 -76 22 -104 8 -55 99 -337 147 -453 33 -80 47
-92 108 -92 133 0 196 130 256 525 20 134 28 155 53 155 25 0 46 -38 56 -100
12 -74 104 -344 122 -357 9 -7 36 -13 60 -13 38 0 50 6 95 48 43 39 64 74 130
209 43 89 78 165 78 170 0 18 48 55 67 51 10 -2 24 -15 30 -30 13 -25 38 -193
68 -441 8 -65 20 -134 26 -152 14 -38 55 -61 88 -50 26 8 27 34 2 82 -15 28
-23 75 -31 183 -14 200 -48 426 -71 480 -28 64 -46 80 -89 80 -30 0 -42 -6
-67 -37 -44 -56 -203 -333 -203 -355 0 -16 -71 -126 -85 -132 -8 -3 -25 -2
-38 3 -19 7 -27 26 -46 102 -13 52 -41 146 -62 210 -22 65 -39 125 -39 135 0
11 -13 42 -28 69 -30 56 -64 69 -99 38z"/>
<path d="M4083 16445 c-123 -33 -247 -122 -298 -212 -47 -84 -58 -145 -52
-272 6 -125 19 -176 69 -279 43 -88 108 -153 184 -183 79 -31 261 -34 339 -6
117 43 254 128 329 202 95 96 37 102 -102 12 -96 -62 -209 -116 -287 -136 -89
-24 -211 -6 -290 40 -69 41 -136 192 -150 337 -13 124 32 262 104 320 108 86
272 126 364 87 67 -28 123 -123 105 -178 -24 -67 -202 -177 -302 -185 -51 -4
-56 -2 -96 34 -53 48 -76 39 -74 -27 1 -34 7 -48 31 -70 137 -122 543 94 543
289 0 57 -53 157 -100 188 -80 53 -207 68 -317 39z"/>
<path d="M14563 16420 c-95 -13 -172 -38 -242 -78 -134 -77 -115 -97 196 -200
320 -107 423 -174 423 -278 0 -69 -71 -143 -196 -207 -64 -32 -169 -60 -196
-51 -17 5 -19 12 -14 44 7 45 -14 71 -42 53 -24 -15 -62 -84 -62 -114 0 -85
161 -110 318 -49 141 54 294 171 322 246 15 37 12 117 -5 157 -41 99 -219 200
-482 272 -135 37 -166 51 -160 68 10 30 100 41 362 41 143 1 266 5 273 9 17
12 15 41 -5 66 -17 19 -31 21 -223 25 -113 3 -233 1 -267 -4z"/>
<path d="M2660 16388 c-21 -35 -21 -38 -5 -523 5 -147 15 -220 32 -235 4 -4
21 -10 37 -14 63 -15 130 102 195 338 35 126 44 141 70 109 14 -17 19 -49 25
-155 10 -196 20 -224 88 -234 75 -12 158 94 224 287 43 126 53 139 89 115 22
-15 25 -23 26 -84 1 -196 16 -319 40 -343 19 -19 54 -26 63 -11 15 25 -28 588
-50 647 -11 32 -35 55 -57 55 -25 0 -77 -37 -77 -55 0 -40 -101 -295 -173
-433 -25 -51 -51 -69 -72 -52 -20 17 -24 45 -30 245 -7 192 -14 241 -39 280
-19 30 -56 33 -79 7 -21 -23 -42 -83 -52 -147 -4 -27 -17 -81 -30 -120 -12
-38 -37 -115 -55 -170 -32 -100 -52 -135 -76 -135 -21 0 -27 43 -20 153 3 56
8 167 11 247 3 80 8 160 11 178 12 76 -58 112 -96 50z"/>
<path d="M10558 16355 c-117 -79 -277 -508 -294 -786 -7 -103 -6 -106 17 -122
26 -19 65 -22 74 -7 3 5 6 38 6 72 0 66 12 178 30 263 39 185 175 505 215 505
21 0 68 -51 112 -120 20 -30 64 -85 99 -122 59 -63 63 -70 63 -115 0 -65 23
-169 50 -225 45 -96 158 -177 300 -213 132 -34 390 -2 390 48 0 34 -26 40
-128 28 -173 -20 -335 22 -419 111 -64 67 -109 208 -65 208 9 0 51 -14 92 -32
67 -29 86 -32 170 -33 115 0 173 19 224 75 54 60 68 130 42 225 -27 102 -73
156 -171 202 -79 36 -204 39 -275 6 -67 -31 -125 -87 -156 -148 -16 -34 -33
-55 -43 -55 -10 0 -42 39 -80 95 -108 162 -170 196 -253 140z m774 -132 c56
-31 83 -69 98 -139 30 -140 -76 -211 -246 -164 -147 40 -194 66 -194 110 0 47
56 144 103 177 82 59 152 64 239 16z"/>
<path d="M5853 16304 c-7 -3 -21 -20 -32 -38 -25 -40 -94 -240 -110 -316 -6
-30 -26 -97 -43 -149 -35 -104 -32 -124 20 -129 39 -4 36 -10 117 229 37 106
82 227 101 267 36 79 41 111 22 130 -12 12 -52 15 -75 6z"/>
<path d="M579 16279 c-21 -21 -22 -28 -16 -153 8 -190 31 -330 102 -631 54
-230 67 -261 118 -278 53 -17 74 28 37 76 -32 40 -47 85 -80 232 -43 191 -62
361 -64 567 -2 189 -7 208 -52 208 -13 0 -34 -10 -45 -21z"/>
<path d="M2801 14831 c-26 -26 -38 -76 -45 -193 -4 -53 -13 -147 -21 -208 -27
-208 -19 -581 16 -700 l19 -65 -35 -28 c-19 -16 -35 -38 -35 -49 0 -37 63
-139 113 -184 116 -104 349 -119 562 -36 137 53 285 179 343 292 45 87 50 140
22 226 -53 163 -237 254 -423 210 -118 -28 -202 -83 -277 -182 -40 -53 -110
-184 -125 -234 -10 -35 -24 -50 -46 -50 -29 0 -38 29 -40 127 -1 49 -6 137
-11 194 -14 154 2 356 60 741 10 65 14 127 10 138 -10 26 -61 27 -87 1z m639
-842 c118 -19 211 -91 231 -180 8 -33 5 -47 -17 -91 -14 -28 -50 -75 -79 -104
-135 -135 -320 -202 -529 -191 -110 5 -166 20 -166 45 0 8 11 29 24 47 14 17
41 62 60 98 20 37 52 96 71 132 95 177 167 233 330 254 6 0 39 -4 75 -10z"/>
<path d="M7732 14535 c-73 -66 -140 -231 -181 -450 -56 -295 -71 -400 -71
-490 l0 -95 -29 0 c-24 0 -42 13 -93 71 -78 87 -157 149 -190 149 -30 0 -68
-38 -68 -69 0 -14 23 -50 57 -88 58 -66 193 -183 211 -183 5 0 16 -7 23 -17
41 -49 193 -140 264 -157 73 -18 176 -23 237 -12 72 14 88 21 88 41 0 23 -18
28 -139 35 -114 8 -217 33 -268 66 -20 13 -23 23 -23 79 0 128 65 478 145 784
44 167 62 207 114 264 42 45 50 74 29 95 -23 23 -66 13 -106 -23z"/>
<path d="M5202 14453 c-31 -44 -58 -103 -76 -163 -18 -59 -51 -283 -61 -415
-9 -102 -42 -355 -57 -421 -14 -66 -5 -102 28 -114 55 -21 77 23 118 230 25
123 65 198 145 271 121 112 195 118 91 8 -70 -74 -99 -129 -115 -214 -21 -109
17 -181 119 -227 75 -34 249 -31 396 6 144 37 255 85 255 111 0 31 -55 30
-211 -5 -175 -39 -253 -46 -340 -30 -79 15 -106 30 -122 66 -62 136 122 335
373 403 114 32 149 50 153 83 4 37 -30 58 -93 58 -72 0 -219 -25 -294 -49
-127 -42 -251 -138 -290 -226 -22 -48 -45 -69 -66 -61 -21 8 -19 41 10 186 14
69 34 174 44 233 16 84 28 120 55 166 40 66 44 90 18 114 -27 25 -58 21 -80
-10z"/>
<path d="M9315 14391 c-82 -20 -140 -66 -151 -118 -9 -46 15 -48 102 -8 42 19
95 40 117 46 51 13 87 35 87 53 0 30 -82 44 -155 27z"/>
<path d="M17248 14340 c-81 -24 -158 -106 -158 -168 l0 -34 73 7 c78 8 107 24
107 61 0 32 25 53 71 60 21 4 47 13 56 20 17 13 16 16 -10 39 -30 26 -83 32
-139 15z"/>
<path d="M13638 14284 c-52 -40 -54 -44 -63 -124 -3 -30 -11 -74 -17 -97 -8
-33 -8 -46 2 -58 8 -10 9 -19 3 -27 -20 -27 -33 -99 -33 -181 0 -94 1 -93 -69
-117 -60 -20 -74 -45 -42 -71 15 -12 33 -18 45 -15 38 10 47 -5 36 -60 -61
-289 -64 -409 -12 -429 21 -8 50 21 57 59 4 17 24 103 45 191 21 88 41 176 44
196 9 53 38 79 88 79 69 0 396 40 493 60 117 24 188 54 183 77 -3 15 -14 18
-73 17 -39 0 -108 -6 -155 -12 -47 -7 -155 -19 -240 -27 -85 -8 -174 -18 -197
-21 -33 -5 -44 -3 -49 9 -3 8 4 62 16 119 20 96 52 349 54 428 1 33 -1 35 -34
38 -28 2 -45 -5 -82 -34z"/>
<path d="M11183 14171 c-41 -25 -52 -65 -30 -103 27 -48 63 -284 46 -304 -5
-6 -35 -15 -67 -19 -77 -9 -121 -31 -139 -71 -15 -30 -15 -35 1 -59 20 -30 58
-50 80 -42 8 3 19 21 24 39 6 26 16 36 43 44 23 8 40 9 53 2 17 -9 18 -18 12
-97 -21 -300 -21 -307 7 -335 22 -21 31 -25 46 -17 10 6 22 22 25 36 13 51 36
261 36 327 0 91 5 93 155 57 166 -39 166 -39 121 -204 -29 -106 -18 -173 34
-220 18 -17 36 -20 109 -20 76 0 93 4 146 30 35 17 90 59 132 100 61 60 74 79
88 129 44 153 -45 328 -189 371 -82 25 -164 28 -221 8 -47 -17 -60 -30 -100
-98 -10 -17 -15 -17 -82 -1 -40 9 -89 16 -111 16 -67 0 -75 13 -69 116 6 102
-12 236 -40 292 -22 45 -61 53 -110 23z m674 -482 c69 -40 110 -90 124 -155
11 -48 10 -56 -12 -101 -28 -56 -105 -122 -173 -148 -43 -16 -47 -16 -71 -1
-30 20 -33 61 -10 127 9 24 18 69 21 99 5 47 2 62 -21 104 l-26 49 21 19 c11
10 20 26 20 35 0 22 62 9 127 -28z"/>
<path d="M6469 14100 c-106 -19 -218 -109 -264 -213 -42 -92 -46 -227 -12
-353 30 -110 46 -143 100 -201 98 -107 264 -137 447 -81 134 41 273 129 254
159 -9 15 -36 10 -111 -21 -159 -64 -252 -83 -349 -71 -95 12 -163 46 -192 97
-34 59 -64 164 -52 179 6 7 38 16 73 19 76 9 130 32 212 91 79 56 120 105 141
168 46 137 -84 256 -247 227z m73 -120 c41 -12 78 -51 78 -84 0 -25 -54 -84
-116 -127 -50 -34 -187 -99 -209 -99 -23 0 -29 47 -15 109 16 72 40 118 82
158 54 52 104 64 180 43z"/>
<path d="M14711 14015 c-55 -24 -94 -84 -80 -121 10 -28 -63 -363 -100 -458
-22 -56 -32 -116 -21 -135 13 -25 64 -42 103 -34 63 12 153 61 210 113 34 31
63 50 72 47 7 -3 19 -25 25 -49 30 -112 105 -210 198 -257 142 -72 332 -65
471 18 l66 39 71 -73 c78 -81 183 -139 304 -170 81 -21 236 -18 250 5 15 25
-7 37 -80 43 -80 7 -207 54 -285 106 -59 39 -116 109 -146 177 -19 46 -20 51
-5 105 22 77 20 167 -4 223 -16 38 -24 46 -46 46 -48 0 -136 -33 -152 -58 -19
-29 -11 -118 18 -199 12 -32 23 -65 26 -74 8 -23 -37 -71 -97 -104 -68 -37
-172 -46 -247 -21 -102 34 -183 122 -211 231 -40 150 -59 185 -101 185 -41 0
-96 -28 -109 -56 -6 -13 -16 -24 -23 -24 -7 0 -40 -27 -72 -60 -62 -63 -103
-79 -93 -37 2 12 29 94 60 182 81 235 89 264 94 331 8 88 -20 111 -96 79z
m979 -608 c0 -20 -25 1 -28 24 -2 23 -2 23 13 5 8 -11 15 -24 15 -29z m30
-123 c0 -8 -4 -12 -10 -9 -5 3 -10 10 -10 16 0 5 5 9 10 9 6 0 10 -7 10 -16z"/>
<path d="M4075 14002 c-205 -77 -269 -154 -269 -327 1 -49 6 -108 12 -130 33
-115 123 -182 232 -172 106 9 176 62 252 191 45 76 51 71 128 -116 44 -106
118 -215 170 -251 30 -21 89 -22 115 -3 19 14 19 15 2 34 -10 11 -33 23 -51
26 -18 4 -40 14 -48 24 -31 34 -78 130 -137 274 -69 170 -91 258 -91 358 0 39
-5 80 -10 91 -16 29 -65 25 -86 -6 -20 -30 -31 -31 -59 -5 -31 29 -100 34
-160 12z m215 -138 c22 -107 -12 -220 -97 -314 -51 -57 -96 -80 -155 -80 -88
0 -129 46 -148 169 -20 127 -1 161 123 225 54 28 81 36 125 37 31 0 66 4 77 9
50 21 63 13 75 -46z"/>
<path d="M9400 13995 c-28 -30 -35 -81 -44 -325 -10 -241 -17 -328 -32 -406
-13 -69 -13 -80 1 -101 21 -31 72 -32 85 0 19 45 72 442 96 722 10 110 -49
171 -106 110z"/>
<path d="M19780 13990 c-64 -22 -79 -39 -79 -89 1 -20 -6 -76 -15 -125 -9 -49
-16 -101 -16 -117 0 -18 -7 -32 -21 -39 -11 -7 -30 -19 -41 -28 -30 -25 -142
-141 -151 -159 -17 -29 1 -59 42 -73 35 -11 43 -11 67 4 25 17 26 17 41 -3 21
-31 66 -28 93 7 12 15 42 70 67 122 24 52 48 102 52 110 12 23 69 38 186 50
118 12 146 4 186 -50 26 -35 53 -173 46 -238 -7 -63 10 -87 67 -98 32 -6 40
-2 84 37 27 24 61 50 75 58 24 13 29 12 45 -2 10 -9 26 -39 36 -66 21 -60 78
-115 133 -130 21 -6 65 -14 98 -17 55 -6 67 -3 125 26 73 37 153 109 206 186
21 30 41 54 45 54 4 0 34 -22 66 -48 113 -92 209 -144 321 -173 95 -24 213
-26 265 -5 69 30 50 43 -96 73 -170 34 -314 116 -407 234 -46 58 -52 97 -18
129 25 23 29 23 157 10 106 -11 141 0 141 44 0 34 -21 47 -102 62 -91 17 -165
17 -245 0 -79 -17 -107 -36 -134 -88 -17 -34 -20 -52 -15 -96 l6 -54 -52 -56
c-87 -93 -120 -123 -175 -158 -101 -66 -157 -43 -190 76 -24 88 -47 105 -141
105 -46 0 -90 -6 -110 -15 -31 -14 -35 -14 -47 3 -7 10 -18 47 -24 82 -18 104
-46 152 -107 183 -61 32 -215 43 -294 22 -35 -10 -45 -9 -58 3 -13 13 -12 23
8 83 51 154 11 210 -120 164z"/>
<path d="M10302 13905 c-26 -19 -144 -176 -194 -260 -20 -33 -62 -105 -95
-160 -93 -156 -126 -130 -83 65 34 158 25 230 -30 230 -20 0 -34 -7 -45 -24
-22 -34 -43 -189 -47 -349 -3 -136 -2 -139 21 -158 52 -42 113 -12 197 95 65
83 164 238 210 327 20 40 29 50 47 47 25 -3 36 -34 57 -153 20 -112 49 -195
77 -221 32 -30 81 -31 117 -3 35 27 33 48 -4 56 -38 7 -46 22 -55 103 -9 92
-55 331 -67 355 -17 33 -50 65 -68 65 -8 0 -25 -7 -38 -15z"/>
<path d="M22273 13899 c-79 -39 -136 -121 -166 -240 l-14 -53 -59 -11 c-72
-13 -100 -28 -109 -56 -9 -29 10 -45 65 -56 39 -8 45 -12 44 -33 -1 -14 -9
-45 -18 -69 -24 -64 -24 -245 0 -272 37 -41 66 -13 87 86 8 39 36 121 62 183
54 127 64 134 144 113 122 -32 264 -125 291 -192 14 -34 11 -64 -26 -234 -10
-47 -14 -92 -10 -109 18 -74 112 -104 155 -50 19 24 19 29 6 54 -13 26 -12 36
20 134 60 183 42 271 -76 361 -101 76 -195 112 -342 130 -27 4 -50 12 -53 20
-9 23 66 156 117 207 52 52 61 81 30 98 -32 17 -103 11 -148 -11z"/>
<path d="M18870 13830 c-59 -9 -91 -23 -114 -49 -28 -31 -10 -59 63 -101 196
-111 295 -207 375 -365 27 -53 38 -90 45 -153 12 -112 3 -139 -72 -216 -96
-97 -150 -116 -163 -57 -12 54 -16 62 -39 77 -30 20 -43 12 -67 -42 -22 -51
-17 -103 13 -130 10 -9 44 -23 76 -30 137 -32 262 29 356 174 53 82 65 116 73
201 11 124 -41 259 -145 374 -34 37 -61 74 -61 81 0 16 27 29 41 20 15 -9 48
6 59 26 16 29 -36 81 -132 130 -126 66 -192 79 -308 60z m219 -155 c28 -14 41
-33 41 -61 0 -8 -5 -14 -12 -14 -21 0 -78 51 -78 71 0 23 11 24 49 4z m201
-494 c0 -6 -4 -13 -10 -16 -5 -3 -10 1 -10 9 0 9 5 16 10 16 6 0 10 -4 10 -9z"/>
<path d="M17245 13801 c-22 -10 -48 -32 -58 -50 -11 -18 -39 -112 -63 -208
-43 -173 -64 -317 -64 -433 0 -51 3 -61 26 -79 52 -41 71 -23 90 86 24 137
109 433 171 591 23 59 23 65 8 88 -19 29 -54 31 -110 5z"/>
<path d="M17668 13788 c-49 -42 -46 -26 -69 -371 -11 -156 -10 -169 6 -187 22
-24 81 -27 113 -5 25 19 139 154 271 324 51 67 97 121 102 121 13 0 37 -29 44
-53 4 -12 24 -69 44 -127 21 -58 48 -136 60 -175 35 -109 89 -165 159 -165 48
0 53 16 25 76 -13 30 -38 120 -55 201 -43 207 -74 304 -110 343 -29 32 -30 33
-98 27 -39 -3 -86 -15 -108 -26 -55 -28 -129 -105 -213 -223 -49 -68 -76 -98
-87 -96 -10 2 -16 12 -15 23 1 11 7 58 12 105 14 111 14 169 -2 200 -16 33
-46 36 -79 8z m535 -188 c3 -11 1 -20 -4 -20 -5 0 -9 9 -9 20 0 11 2 20 4 20
2 0 6 -9 9 -20z"/>
<path d="M23029 13733 c-42 -5 -85 -44 -76 -68 10 -24 44 -32 138 -34 100 -2
122 10 98 55 -7 14 -21 30 -30 34 -22 12 -85 18 -130 13z"/>
<path d="M23232 13513 c-50 -18 -99 -64 -120 -113 -59 -140 -74 -356 -33 -474
45 -130 134 -198 260 -198 86 -1 112 15 151 96 89 180 48 550 -72 651 -65 55
-111 65 -186 38z m120 -248 c15 -65 26 -203 24 -307 -1 -84 -4 -101 -22 -118
-38 -38 -95 5 -124 94 -17 52 -15 198 4 289 20 94 24 107 49 134 l20 22 20
-37 c11 -20 24 -55 29 -77z"/>
<path d="M23760 13121 c-28 -14 -42 -33 -67 -91 -17 -40 -34 -80 -37 -89 -2
-9 -23 -49 -45 -88 -73 -130 -54 -184 70 -191 89 -5 177 16 349 84 178 70 178
70 220 42 61 -41 136 -201 152 -327 12 -96 36 -141 75 -141 11 0 -4 295 -17
322 -10 22 -10 31 4 59 31 63 3 132 -73 177 -43 25 -52 27 -155 24 -125 -2
-188 -17 -331 -77 -131 -55 -138 -57 -158 -43 -16 12 -13 20 33 88 81 121 109
219 74 254 -20 21 -52 20 -94 -3z m618 -387 c-10 -10 -28 6 -28 24 0 15 1 15
17 -1 9 -9 14 -19 11 -23z m42 -97 c0 -5 -7 -4 -15 3 -8 7 -15 20 -15 29 1 13
3 13 15 -3 8 -11 15 -24 15 -29z"/>
<path d="M0 11881 c0 -45 -7 -42 113 -61 196 -31 353 -40 742 -40 395 0 674
-9 995 -31 91 -6 187 -13 215 -14 147 -9 273 -16 380 -20 143 -7 275 -14 370
-20 71 -5 283 -16 670 -35 116 -6 275 -15 355 -21 80 -6 181 -12 225 -15 44
-2 157 -8 250 -14 94 -5 357 -12 585 -15 743 -10 1482 -25 1491 -31 10 -6 795
-5 1024 1 110 3 407 7 660 10 253 3 540 7 638 10 98 2 298 6 445 10 147 3 321
11 387 17 66 6 134 11 150 11 536 -8 1272 -10 1291 -2 14 5 23 5 20 0 -9 -15
58 -18 409 -19 187 -1 430 -4 540 -7 429 -12 522 -15 570 -20 28 -3 181 -7
340 -10 160 -3 430 -9 600 -14 171 -5 317 -9 325 -9 39 1 629 -13 735 -18 66
-3 186 -7 268 -9 81 -2 150 -6 155 -8 4 -3 84 -8 177 -11 94 -4 184 -9 200
-12 72 -11 857 -80 1015 -89 410 -21 874 -56 1150 -84 375 -40 483 -52 535
-61 33 -6 107 -15 165 -20 58 -6 134 -14 170 -19 36 -5 229 -30 430 -55 201
-25 412 -53 470 -61 58 -8 173 -24 255 -36 83 -11 179 -25 215 -30 36 -6 88
-12 115 -15 95 -9 517 -67 610 -85 28 -5 97 -16 155 -25 58 -8 137 -21 175
-29 39 -7 115 -21 170 -30 55 -9 114 -21 130 -25 17 -5 48 -11 70 -15 59 -9
107 -27 131 -47 29 -25 61 -22 80 7 22 34 6 71 -40 90 -19 8 -117 28 -218 45
-100 17 -208 36 -238 42 -30 7 -58 11 -62 10 -4 -1 -83 10 -175 24 -93 14
-231 34 -308 44 -77 10 -210 27 -295 39 -85 12 -209 28 -275 37 -113 14 -250
34 -375 53 -30 5 -79 10 -109 11 -30 0 -58 3 -61 5 -11 7 -280 44 -435 60 -83
9 -166 20 -185 25 -19 5 -114 19 -210 30 -96 11 -191 22 -210 25 -19 3 -60 7
-90 10 -30 3 -104 12 -165 20 -153 20 -466 56 -528 60 -47 4 -97 8 -227 20
-25 2 -83 7 -130 10 -47 4 -103 8 -125 10 -22 2 -114 8 -205 14 -276 18 -462
31 -514 37 -27 2 -106 9 -175 14 -69 6 -173 15 -231 22 -58 6 -130 12 -160 13
-30 2 -93 6 -140 10 -47 4 -107 7 -135 7 -27 0 -79 4 -115 8 -36 5 -110 12
-165 14 -342 17 -621 26 -915 31 -184 2 -382 7 -440 10 -58 3 -199 8 -315 10
-115 3 -271 7 -345 10 -74 3 -254 8 -400 11 -146 2 -303 7 -350 9 -288 15
-2582 24 -2980 12 -393 -13 -679 -18 -1310 -23 -349 -3 -648 -7 -665 -9 -42
-6 -574 -6 -905 0 -151 2 -462 7 -690 10 -228 3 -428 7 -445 10 -16 2 -205 7
-420 10 -214 4 -393 9 -397 11 -4 3 -90 7 -190 10 -101 2 -214 9 -253 14 -38
5 -144 12 -235 15 -174 6 -286 12 -360 20 -25 2 -124 7 -220 11 -96 4 -193 8
-215 9 -44 3 -237 14 -760 45 -187 11 -410 24 -495 30 -228 17 -527 25 -945
28 -321 3 -395 6 -560 27 -104 13 -205 27 -222 31 -33 6 -33 6 -33 -35z"/>
<path d="M2603 10838 c-14 -18 -25 -111 -13 -103 6 3 10 11 10 17 0 5 9 21 20
35 11 14 20 34 20 44 0 22 -23 25 -37 7z"/>
<path d="M6140 10579 c-27 -30 -60 -90 -177 -318 -49 -97 -123 -305 -142 -403
-5 -24 -18 -79 -30 -123 -12 -44 -28 -109 -36 -145 -26 -126 -85 -362 -100
-397 -19 -44 -12 -71 21 -79 43 -11 69 25 88 119 9 45 23 116 31 157 15 77 55
259 101 460 57 249 140 462 182 468 28 4 36 -29 22 -91 -5 -26 -15 -75 -20
-109 -6 -35 -14 -88 -20 -118 -46 -256 -51 -426 -18 -630 23 -143 23 -145 63
-186 130 -135 346 -34 463 216 44 92 95 242 112 326 8 36 60 181 105 289 41
98 80 172 125 240 55 79 62 105 29 105 -49 0 -67 -22 -159 -195 -86 -160 -125
-248 -160 -360 -41 -131 -102 -298 -135 -370 -39 -83 -141 -187 -200 -204 -57
-15 -112 14 -144 77 -27 51 -50 215 -46 322 10 286 36 471 107 770 29 122 31
168 7 197 -18 21 -38 16 -69 -18z"/>
<path d="M1748 10509 c-22 -12 -23 -43 -2 -100 8 -24 26 -109 39 -189 35 -209
93 -507 115 -590 5 -19 14 -57 21 -85 7 -27 15 -54 19 -60 9 -12 23 -63 26
-90 6 -61 25 -149 35 -161 19 -24 53 -16 88 20 34 35 55 105 81 266 10 61 14
84 37 220 8 52 19 100 23 105 4 6 13 35 19 65 7 30 19 76 27 101 8 26 14 56
14 67 0 11 7 25 15 32 8 7 15 19 15 26 0 13 10 36 66 161 39 85 28 111 -20 49
-14 -19 -26 -37 -26 -40 0 -3 -11 -29 -24 -58 -36 -79 -81 -197 -95 -248 -7
-25 -18 -65 -26 -90 -29 -97 -70 -304 -91 -462 -7 -54 -44 -89 -73 -71 -22 14
-50 97 -52 152 -1 25 -19 136 -39 246 -38 199 -68 384 -91 545 -12 92 -32 155
-56 183 -18 20 -22 20 -45 6z"/>
<path d="M18434 10268 c-29 -32 -54 -101 -54 -147 0 -44 53 -134 83 -139 47
-9 61 48 26 113 -24 48 -20 97 13 132 17 19 20 28 12 41 -17 26 -57 26 -80 0z"/>
<path d="M7185 10101 c-95 -24 -168 -91 -206 -187 -20 -52 -23 -75 -23 -204 1
-153 1 -153 58 -255 54 -94 57 -104 46 -126 -29 -53 128 -163 268 -189 105
-19 229 18 352 105 110 77 219 198 206 230 -10 27 -32 16 -107 -51 -137 -123
-250 -186 -342 -189 -68 -3 -224 41 -281 80 -20 14 -41 25 -45 25 -5 0 -11 10
-14 22 -6 23 16 68 32 68 32 0 167 95 241 170 104 103 132 156 138 257 4 78
-13 129 -61 181 -51 56 -176 86 -262 63z m182 -114 c45 -30 76 -96 67 -144
-16 -90 -118 -204 -285 -316 -106 -71 -123 -49 -123 153 0 125 2 139 27 190
40 85 74 117 144 136 60 16 128 8 170 -19z"/>
<path d="M12584 10094 c-42 -14 -65 -38 -131 -133 -33 -47 -49 -61 -68 -61
-41 0 -56 -37 -135 -325 -18 -66 -41 -142 -52 -169 -19 -49 -19 -50 0 -69 22
-22 56 -16 71 11 5 10 35 93 66 186 65 196 115 306 180 394 70 95 126 108 160
36 24 -51 60 -194 74 -289 32 -236 31 -222 57 -550 8 -102 12 -115 34 -115 46
0 49 105 9 315 -10 55 -19 125 -19 156 0 73 -36 329 -56 397 -33 115 -91 214
-132 224 -11 3 -37 -1 -58 -8z"/>
<path d="M17438 10093 c-33 -36 -76 -163 -107 -318 -39 -196 -49 -477 -18
-556 19 -51 52 -75 89 -66 40 10 184 143 201 185 16 41 87 112 112 112 17 0
18 -3 41 -173 15 -110 21 -132 46 -167 38 -51 66 -52 133 -6 84 57 115 91 115
125 0 44 -22 40 -82 -14 -28 -25 -56 -45 -62 -45 -42 0 -58 49 -71 215 -9 107
-25 149 -65 170 -35 18 -58 10 -84 -29 -9 -14 -40 -44 -69 -67 -28 -23 -67
-63 -84 -89 -41 -60 -100 -112 -121 -108 -31 6 -36 80 -18 293 26 317 32 348
77 428 46 82 49 120 8 125 -14 2 -32 -4 -41 -15z"/>
<path d="M2785 10033 c-33 -8 -70 -24 -82 -36 -29 -30 -101 -201 -114 -273
-22 -120 11 -270 73 -332 80 -81 259 -93 377 -25 64 37 157 118 176 154 8 16
23 44 33 62 12 22 17 54 17 107 0 64 -4 83 -30 128 -48 89 -170 194 -254 219
-55 16 -118 15 -196 -4z m229 -103 c64 -33 140 -117 165 -183 25 -69 15 -122
-38 -192 -96 -125 -293 -179 -414 -113 -57 32 -70 64 -71 173 0 94 7 117 48
158 14 14 26 41 30 69 7 48 39 88 86 107 42 18 140 8 194 -19z"/>
<path d="M18921 9992 c-13 -24 -44 -265 -49 -380 -3 -62 -19 -75 -107 -83 -58
-6 -83 -13 -98 -28 -19 -19 -19 -21 -3 -46 16 -24 21 -26 59 -19 23 5 60 8 82
9 36 0 40 -3 41 -25 1 -13 -4 -41 -11 -61 -7 -20 -18 -84 -24 -141 -6 -58 -15
-118 -21 -134 -25 -65 16 -103 62 -57 26 26 28 36 38 151 5 68 10 151 11 185
2 101 2 101 135 93 111 -7 114 -7 122 14 7 20 10 18 26 -19 10 -22 16 -49 13
-60 -16 -63 51 -204 128 -267 67 -54 177 -75 298 -55 59 10 97 42 77 65 -10
13 -34 16 -111 16 -130 0 -191 22 -253 91 -51 56 -93 153 -76 174 8 10 29 8
103 -8 124 -26 289 -29 334 -4 39 21 83 92 83 134 0 67 -115 181 -220 220 -48
17 -148 16 -200 -2 -108 -38 -165 -97 -179 -184 -9 -59 -15 -68 -35 -52 -7 6
-55 15 -105 20 -51 5 -97 13 -102 18 -7 7 -3 43 10 104 11 52 25 136 31 187
11 84 10 95 -7 124 -23 39 -39 45 -52 20z m674 -339 c52 -28 91 -70 98 -109
16 -83 -66 -95 -337 -49 -103 18 -106 19 -106 48 0 51 53 103 130 128 45 15
171 4 215 -18z"/>
<path d="M3985 9991 c-53 -13 -91 -38 -146 -99 -52 -55 -79 -93 -138 -191 -25
-41 -52 -58 -71 -46 -17 10 -11 43 15 95 29 57 33 117 9 127 -28 10 -44 -8
-78 -92 -31 -77 -42 -113 -66 -220 -6 -27 -25 -74 -41 -104 -35 -66 -36 -88
-5 -103 45 -20 84 15 138 121 25 52 50 97 55 100 5 3 23 29 41 58 18 28 39 54
47 57 8 3 15 12 15 20 0 8 8 17 18 20 9 3 42 31 72 62 67 68 127 105 157 98
42 -11 55 -72 52 -249 -3 -210 15 -298 65 -323 35 -18 33 -38 -13 -124 -32
-59 -71 -185 -71 -230 0 -4 -18 -19 -41 -34 -26 -16 -47 -40 -59 -67 -17 -39
-17 -49 -5 -125 8 -48 27 -111 45 -150 31 -65 46 -144 69 -354 8 -77 30 -111
70 -106 29 3 31 15 16 121 -7 51 -6 57 10 57 10 0 32 -16 49 -36 97 -111 137
-150 205 -198 111 -76 218 -122 271 -114 47 6 33 28 -42 62 -149 70 -307 195
-421 333 -56 68 -67 85 -103 154 -10 19 -15 72 -16 183 -1 198 -3 196 122 196
48 0 154 -7 236 -16 156 -16 232 -14 323 12 72 20 98 39 123 87 46 92 -7 216
-177 414 -51 58 -111 93 -192 113 -92 21 -192 -13 -265 -91 -42 -44 -64 -48
-101 -19 l-26 21 6 192 c6 205 -3 269 -48 343 -15 24 -61 58 -72 53 -1 -1 -15
-4 -32 -8z m559 -572 c67 -19 188 -148 255 -273 38 -71 38 -86 6 -125 -55 -64
-185 -81 -420 -53 -66 7 -122 8 -164 2 -80 -11 -106 -1 -96 38 3 15 29 77 57
139 62 137 121 208 210 252 66 33 92 37 152 20z"/>
<path d="M16606 9989 c-185 -20 -389 -79 -501 -145 -71 -43 -212 -184 -274
-274 -63 -93 -141 -243 -141 -272 0 -16 8 -29 24 -37 36 -20 62 3 103 89 20
41 49 101 64 133 58 122 175 243 299 310 92 50 129 64 235 88 28 6 62 17 76
25 28 14 195 34 285 34 63 0 77 -16 53 -59 -11 -19 -26 -28 -54 -32 -112 -17
-358 -173 -458 -289 -19 -23 -50 -69 -68 -103 -30 -57 -33 -68 -33 -162 -1
-88 2 -107 25 -156 27 -57 108 -145 180 -195 80 -55 267 -74 365 -37 60 23
143 76 207 131 71 62 167 177 167 201 0 45 -41 22 -156 -89 -119 -116 -150
-135 -265 -164 -79 -19 -109 -20 -174 -2 -184 49 -279 198 -247 387 7 42 21
84 35 101 59 81 179 171 342 258 192 102 245 140 274 197 6 12 9 28 6 35 -14
35 -180 47 -369 27z"/>
<path d="M11638 9920 c-31 -33 -60 -70 -64 -82 -3 -12 -23 -49 -43 -82 -21
-34 -61 -110 -90 -171 -65 -135 -94 -175 -127 -175 -22 0 -24 4 -24 43 0 64
18 214 35 288 16 71 8 122 -21 133 -38 15 -54 -63 -74 -383 -10 -143 -9 -166
5 -187 35 -54 112 -15 179 90 18 28 64 112 103 187 101 194 130 242 158 269
23 22 26 22 44 6 18 -17 32 -82 47 -221 9 -88 31 -221 48 -293 27 -114 97
-195 145 -165 35 22 29 93 -8 93 -54 0 -79 86 -126 432 -23 169 -37 220 -73
261 -27 30 -54 20 -114 -43z"/>
<path d="M20686 9915 c-78 -27 -126 -95 -144 -204 -16 -90 -28 -104 -106 -123
l-67 -16 -10 27 c-22 64 -36 69 -163 61 -62 -5 -97 -13 -146 -36 -174 -82
-224 -203 -151 -360 36 -77 122 -196 161 -221 71 -48 204 -93 273 -93 63 0
170 30 225 63 51 31 186 168 210 214 17 31 15 73 -3 73 -11 0 -75 -71 -87 -98
-8 -19 -118 -99 -176 -129 -74 -38 -139 -43 -231 -18 -124 33 -210 92 -271
187 -61 93 -61 165 -1 251 21 30 38 41 90 57 63 20 144 25 214 14 36 -6 37 -8
37 -48 0 -29 7 -49 21 -65 23 -25 36 -19 41 19 2 16 14 30 32 38 24 12 30 12
44 -1 14 -14 13 -24 -3 -98 -21 -97 -21 -187 -1 -207 12 -13 19 -10 45 17 l31
32 0 117 c0 149 7 162 88 162 70 0 219 -16 288 -31 69 -16 154 -58 176 -89 17
-23 18 -33 7 -99 -15 -97 -5 -156 31 -193 42 -42 93 -39 180 12 65 38 130 107
130 137 0 7 4 13 9 13 5 0 14 14 21 31 7 17 23 45 34 63 12 17 30 54 40 81 10
28 36 81 58 119 41 73 45 108 15 114 -25 5 -51 -20 -72 -71 -45 -108 -63 -145
-97 -199 -21 -32 -38 -61 -38 -63 0 -3 -21 -32 -47 -65 -52 -67 -97 -100 -137
-100 -42 0 -50 31 -34 125 9 50 11 92 6 112 -25 98 -258 183 -501 183 -76 0
-106 4 -128 17 -44 26 -37 53 34 132 54 62 66 71 97 71 67 0 102 47 62 83 -22
20 -35 20 -86 2z"/>
<path d="M9340 9895 c-30 -22 -130 -159 -130 -178 0 -4 -16 -45 -35 -90 -18
-45 -44 -115 -56 -154 -34 -113 -69 -123 -69 -21 0 45 -12 69 -25 49 -3 -6 -8
-63 -11 -128 -3 -65 -12 -135 -20 -156 -29 -77 -12 -122 43 -115 23 2 33 13
55 58 15 30 36 98 48 150 19 82 72 242 98 297 48 100 66 132 86 157 l24 29 24
-24 c23 -23 24 -29 18 -109 -4 -47 -6 -155 -6 -240 l1 -154 28 -10 c43 -15 72
15 138 143 32 62 65 121 73 130 7 9 26 41 42 71 60 117 105 149 138 98 13 -20
36 -176 52 -353 8 -75 32 -167 53 -195 25 -35 58 -38 72 -7 9 20 7 33 -14 73
-30 61 -33 75 -52 249 -27 250 -71 365 -141 365 -41 0 -130 -100 -180 -201
-99 -204 -106 -215 -139 -203 -12 5 -15 28 -13 128 1 156 -9 322 -22 347 -14
26 -39 24 -80 -6z"/>
<path d="M10370 9913 c-82 -13 -156 -70 -205 -157 -44 -78 -71 -157 -80 -231
-13 -101 37 -181 144 -227 59 -26 167 -21 226 9 59 31 120 96 150 161 15 31
31 66 37 78 5 11 20 34 33 50 21 26 25 27 39 14 12 -12 17 -44 20 -130 4 -125
17 -197 44 -242 17 -30 51 -45 77 -34 23 8 18 61 -9 93 -13 16 -29 46 -34 68
-16 60 -32 210 -32 294 0 125 -32 187 -68 131 -16 -26 -49 -26 -57 0 -10 30
-65 81 -110 100 -42 18 -132 30 -175 23z m171 -106 c33 -22 79 -80 79 -100 0
-6 -25 -34 -55 -62 -63 -58 -70 -83 -25 -92 17 -3 33 -9 36 -14 7 -13 -64 -95
-110 -127 -35 -24 -47 -27 -115 -25 -173 3 -226 78 -167 235 30 81 53 117 96
155 43 38 85 51 166 52 48 1 68 -4 95 -22z"/>
<path d="M8135 9820 c-25 -40 -38 -85 -57 -195 -17 -101 -18 -125 -7 -255 9
-105 15 -135 40 -187 51 -106 153 -162 278 -150 119 10 220 93 298 244 28 54
63 130 77 168 15 39 31 79 36 90 5 11 23 54 40 95 18 41 38 89 45 106 8 18 10
36 5 44 -16 25 -60 -17 -92 -88 -16 -37 -36 -80 -44 -97 -7 -16 -33 -73 -57
-125 -24 -52 -55 -117 -69 -145 -62 -118 -162 -195 -255 -195 -66 0 -88 9
-145 59 -68 60 -91 125 -91 261 -1 142 17 232 59 296 47 71 45 114 -7 114 -23
0 -34 -8 -54 -40z"/>
<path d="M14975 9851 c-264 -35 -524 -218 -640 -455 -75 -150 -55 -270 60
-357 53 -40 60 -42 119 -42 79 2 133 23 226 92 158 116 233 212 286 369 30 87
63 62 94 -72 43 -185 122 -392 177 -464 37 -49 109 -92 154 -92 29 0 42 6 59
27 28 36 22 47 -35 55 -91 13 -134 67 -189 233 -20 61 -41 119 -46 130 -36 81
-64 200 -74 318 -2 21 -11 46 -20 56 -23 25 -21 44 4 36 14 -4 20 -2 20 9 0
22 -21 31 -34 15 -6 -8 -20 -19 -31 -25 -10 -6 -25 -30 -33 -55 -23 -71 -71
-165 -94 -185 -11 -11 -32 -37 -46 -59 -34 -54 -125 -148 -194 -201 -114 -89
-211 -114 -288 -76 -122 60 -90 270 66 433 37 38 71 69 75 69 4 0 27 13 51 29
68 46 205 98 313 119 125 24 226 20 304 -13 61 -25 81 -23 81 9 0 34 -12 44
-78 70 -69 27 -192 39 -287 27z"/>
<path d="M18417 9716 c-8 -8 -17 -45 -20 -83 -4 -37 -23 -148 -42 -246 -40
-202 -41 -214 -19 -245 20 -28 30 -28 59 4 19 21 25 38 25 73 0 26 12 100 26
166 65 307 65 312 19 333 -32 15 -31 15 -48 -2z"/>
<path d="M22422 9625 c-64 -28 -97 -83 -107 -177 l-7 -68 -32 22 c-17 12 -65
56 -106 99 -88 89 -128 114 -178 105 -84 -13 -156 -95 -254 -285 -51 -101 -70
-128 -101 -148 -34 -21 -38 -28 -32 -51 10 -43 34 -72 58 -72 29 0 85 69 102
123 27 89 124 274 160 306 61 54 119 39 193 -48 48 -57 141 -121 175 -121 18
0 28 -14 55 -74 19 -41 42 -82 53 -92 10 -9 19 -24 19 -33 0 -35 189 -211 226
-211 6 0 17 -6 23 -13 6 -8 30 -19 53 -26 24 -7 50 -18 58 -25 27 -22 159 -78
170 -71 34 21 -2 54 -150 140 -63 37 -139 85 -167 107 -63 48 -191 176 -209
210 -18 32 -17 58 3 58 9 0 45 5 80 11 67 12 91 28 120 84 24 45 19 149 -8
190 -49 70 -122 93 -197 60z m128 -100 c14 -12 20 -31 20 -58 0 -53 -53 -105
-114 -109 -33 -2 -40 -7 -38 -20 5 -29 -25 -21 -36 10 -21 54 -22 82 -7 119
24 59 61 85 113 80 24 -3 52 -13 62 -22z m-240 -187 c0 -18 -2 -20 -9 -8 -6 8
-7 18 -5 22 9 14 14 9 14 -14z"/>
<path d="M6903 9416 c-23 -20 -26 -28 -17 -43 13 -21 43 -27 90 -18 48 9 47
45 -1 68 -44 21 -39 22 -72 -7z"/>
<path d="M6543 9029 c-86 -55 -166 -248 -224 -544 -25 -130 -45 -179 -76 -183
-20 -3 -21 2 -27 80 -3 46 -8 173 -10 283 -2 110 -9 212 -15 227 -11 30 -38
48 -73 48 -28 0 -135 -109 -186 -189 -20 -31 -60 -83 -90 -116 -29 -33 -65
-82 -78 -108 -31 -60 -63 -75 -108 -49 -40 23 -42 50 -22 229 21 181 21 210
-3 223 -11 5 -26 10 -35 10 -32 0 -94 -68 -198 -215 -58 -82 -141 -249 -193
-385 -63 -167 -72 -186 -117 -248 -26 -35 -37 -59 -33 -71 18 -59 87 -52 126
12 24 38 88 201 119 302 19 59 38 93 59 105 25 13 170 -5 189 -24 8 -8 17 -54
23 -117 15 -175 80 -269 145 -208 38 35 72 99 93 172 34 117 128 324 170 372
10 11 24 36 31 55 22 57 69 112 94 108 20 -3 21 -9 27 -218 9 -327 35 -410
124 -410 62 0 95 67 154 310 83 349 126 455 177 436 16 -6 17 -31 11 -317 -5
-298 -5 -311 14 -330 22 -22 52 -25 65 -6 5 6 9 147 8 312 0 338 -7 390 -57
443 -36 38 -42 38 -84 11z m-996 -281 c4 -7 6 -58 5 -113 -4 -114 -10 -125
-78 -125 -52 0 -90 27 -80 57 8 26 81 141 109 171 23 25 33 27 44 10z m163
-323 c9 -11 9 -22 0 -52 -19 -58 -25 -68 -47 -71 -33 -5 -47 26 -44 96 2 36
67 56 91 27z"/>
<path d="M8375 8960 c-14 -16 -18 -37 -18 -102 0 -46 3 -106 7 -134 10 -71 -4
-84 -93 -84 -68 0 -91 -10 -91 -40 0 -32 33 -49 99 -52 85 -4 88 -10 73 -134
-7 -55 -17 -164 -23 -244 -10 -134 -9 -145 7 -157 10 -7 21 -13 26 -13 33 0
65 161 75 382 4 82 11 145 18 155 10 13 30 16 96 16 175 -1 189 -2 196 -19 3
-9 -19 -64 -52 -130 -68 -137 -78 -184 -45 -220 34 -35 86 -47 149 -33 59 12
154 72 202 126 42 48 79 129 79 174 0 40 -50 124 -79 134 -9 3 -50 5 -91 6
-60 1 -86 6 -130 27 -50 25 -66 27 -180 28 -69 1 -130 2 -136 3 -21 2 -24 30
-13 137 11 116 2 166 -31 184 -24 13 -24 13 -45 -10z m572 -452 c19 -9 29 -22
31 -42 6 -46 -5 -71 -54 -125 -72 -80 -183 -127 -192 -80 -1 8 25 73 58 143
l62 128 34 -5 c18 -3 46 -12 61 -19z"/>
<path d="M7955 8840 c-95 -10 -218 -37 -285 -63 -70 -26 -140 -73 -140 -93 0
-9 14 -29 32 -46 58 -54 111 -74 307 -119 217 -50 258 -81 254 -193 -3 -70
-28 -135 -82 -219 -118 -180 -188 -216 -246 -124 -24 38 -60 48 -68 18 -7 -29
31 -100 67 -122 45 -27 110 -25 163 7 81 47 212 235 242 349 14 50 14 145 1
179 -18 47 -88 112 -152 141 -34 15 -127 41 -207 57 -164 33 -188 42 -170 64
20 24 139 55 253 65 142 12 155 16 162 46 12 48 -26 64 -131 53z"/>
<path d="M9960 8631 c-107 -33 -170 -99 -170 -181 0 -34 -3 -40 -21 -40 -12 0
-45 14 -74 30 -115 66 -188 48 -317 -77 -141 -138 -174 -209 -113 -249 42 -28
66 -12 108 70 46 89 135 179 198 197 39 12 43 11 142 -39 94 -48 107 -58 162
-128 110 -141 218 -225 365 -285 95 -38 202 -41 270 -6 58 29 72 72 69 217 -1
58 -1 114 0 126 3 44 59 109 148 169 93 64 121 102 92 129 -12 12 -20 12 -51
2 -86 -30 -247 -155 -277 -214 -28 -56 -30 -78 -22 -186 8 -99 2 -159 -18
-179 -16 -16 -84 -11 -154 12 -126 42 -332 190 -325 234 2 15 14 19 63 23 74
5 166 38 204 73 40 37 58 99 43 149 -16 51 -77 121 -126 143 -43 19 -147 24
-196 10z m184 -102 c106 -83 36 -174 -145 -186 -64 -5 -83 -3 -105 12 -24 15
-26 21 -21 63 4 37 12 52 38 74 68 57 184 76 233 37z"/>
<path d="M12057 8566 c-115 -34 -231 -135 -291 -255 -41 -81 -61 -163 -76
-301 -12 -113 -28 -249 -37 -318 -4 -32 -1 -47 12 -62 21 -24 58 -26 78 -5 16
15 18 32 36 325 16 253 41 330 140 429 68 68 163 119 236 127 43 5 56 2 90
-21 76 -51 104 -105 75 -140 -24 -29 -121 -86 -196 -115 -98 -38 -136 -39
-158 -5 -20 31 -44 32 -55 3 -12 -32 1 -69 33 -92 37 -28 139 -27 215 3 81 31
200 102 232 139 56 63 48 111 -33 198 -80 87 -194 120 -301 90z"/>
<path d="M13035 8520 c-145 -29 -324 -141 -399 -249 -24 -34 -27 -43 -16 -56
40 -48 98 -37 130 24 23 45 59 79 130 123 71 44 133 72 193 87 78 19 85 1 36
-103 -40 -86 -41 -137 -3 -177 57 -60 165 -57 247 5 77 58 92 127 47 216 -28
55 -101 106 -134 94 -22 -8 -20 -31 4 -44 54 -29 88 -131 57 -170 -29 -36 -71
-60 -107 -60 -69 0 -70 23 -6 162 29 62 31 80 16 109 -24 44 -97 58 -195 39z"/>
<path d="M13698 8477 c-103 -26 -178 -110 -178 -202 0 -37 6 -51 35 -84 78
-86 193 -92 282 -17 35 30 53 27 53 -7 0 -44 -92 -486 -116 -559 -18 -54 -30
-60 -44 -22 -14 36 -40 27 -57 -21 -25 -72 9 -135 73 -135 36 0 70 34 80 79 4
14 21 73 40 131 56 176 85 314 119 562 13 95 26 182 30 194 11 35 -23 64 -95
79 -77 17 -158 17 -222 2z m198 -91 c10 -27 -58 -114 -126 -159 -33 -23 -117
-23 -142 0 -32 29 -23 76 22 117 22 19 52 38 67 42 16 3 33 7 38 9 6 2 38 4
73 4 45 1 64 -3 68 -13z"/>
<path d="M14693 8406 c-171 -59 -239 -96 -326 -176 -57 -52 -142 -152 -180
-213 -25 -38 -18 -69 17 -86 26 -12 33 -12 55 0 25 14 34 28 64 99 32 78 173
205 295 266 102 52 110 26 27 -85 -67 -89 -97 -144 -89 -166 19 -48 120 -59
180 -19 51 34 66 54 111 142 21 41 41 76 46 79 22 14 33 -27 43 -172 12 -173
25 -209 72 -203 22 2 27 8 25 28 -1 14 -7 84 -13 155 -7 72 -15 180 -19 240
-9 137 -17 155 -74 155 -23 0 -51 2 -62 4 -11 2 -88 -19 -172 -48z m160 -126
c-1 -16 -27 -52 -70 -98 -64 -68 -103 -90 -103 -58 0 18 85 146 112 169 31 26
63 19 61 -13z"/>
<path d="M15478 8363 c-8 -10 -27 -65 -41 -123 -32 -136 -70 -223 -94 -218
-15 3 -17 12 -15 63 2 33 10 88 18 122 11 48 12 67 2 88 -12 27 -53 44 -69 28
-16 -16 -27 -114 -32 -271 -4 -140 -2 -155 15 -178 24 -29 77 -33 101 -6 9 10
28 43 41 75 28 61 37 68 58 39 32 -45 101 -55 148 -22 16 11 58 64 94 118 80
120 132 174 147 152 5 -8 7 -24 4 -35 -3 -11 -8 -76 -11 -145 -6 -106 -4 -130
10 -157 35 -69 126 -73 126 -7 0 17 -7 23 -27 26 l-28 3 0 95 c0 52 4 144 9
203 9 105 8 108 -14 132 -41 43 -63 34 -161 -67 -49 -51 -103 -115 -118 -143
-39 -67 -87 -117 -109 -113 -24 5 -26 42 -6 150 29 157 29 173 3 192 -29 20
-32 20 -51 -1z"/>
<path d="M16173 8369 c-91 -17 -173 -88 -173 -150 0 -37 53 -103 102 -127 24
-12 95 -44 158 -72 145 -64 166 -79 151 -108 -6 -12 -21 -27 -32 -33 -17 -9
-25 -7 -43 10 -28 27 -41 26 -60 -1 -53 -75 41 -135 138 -88 91 44 111 110 54
175 -38 44 -158 116 -253 151 -150 57 -169 86 -82 131 49 26 59 28 182 28
l130 0 3 27 c4 35 -13 43 -111 57 -88 12 -104 12 -164 0z"/>
<path d="M17363 8341 c-43 -11 -79 -35 -99 -67 -37 -55 6 -222 88 -349 l39
-60 -22 -17 c-11 -10 -67 -32 -122 -49 -200 -62 -225 -75 -210 -114 3 -9 18
-22 34 -30 26 -14 45 -12 217 17 103 17 196 29 205 25 9 -3 42 -44 72 -90 63
-97 134 -167 169 -167 53 0 59 64 9 97 -41 27 -153 142 -153 157 0 18 53 26
225 36 154 8 175 13 175 41 0 44 -77 49 -313 22 -139 -16 -149 -16 -165 1 -22
22 -19 24 133 77 177 61 237 91 294 146 44 42 51 55 51 87 0 73 -70 135 -202
180 -155 52 -346 77 -425 57z m295 -102 c110 -24 199 -54 225 -77 48 -42 -12
-103 -168 -168 -60 -26 -140 -62 -177 -80 -37 -19 -73 -31 -81 -28 -16 6 -41
53 -83 154 -18 44 -27 85 -28 125 -1 59 0 60 34 77 48 25 157 23 278 -3z"/>
<path d="M19253 8178 c-74 -82 -173 -297 -203 -443 -7 -33 -14 -66 -16 -73 -3
-9 -30 10 -76 52 -101 94 -213 148 -320 154 -94 6 -147 -13 -178 -63 -36 -58
-19 -132 48 -206 87 -97 296 -169 546 -189 143 -12 190 -5 184 27 -2 12 -17
20 -47 25 -55 9 -67 19 -79 71 -18 75 5 175 85 366 38 89 60 127 102 173 60
65 71 109 36 134 -29 21 -39 17 -82 -28z m-522 -417 c120 -41 239 -133 302
-233 36 -57 25 -58 -153 -13 -214 55 -350 131 -350 198 0 11 10 31 22 44 27
29 101 31 179 4z"/>
<path d="M2025 8074 c-8 -9 -13 -24 -11 -33 16 -52 26 -123 35 -261 12 -163
24 -294 42 -447 6 -50 8 -96 5 -102 -13 -20 -70 -11 -156 25 -137 57 -137 57
-170 44 -40 -16 -48 -46 -20 -75 23 -25 142 -66 259 -90 41 -9 80 -20 87 -26
10 -8 13 -49 12 -152 0 -78 4 -233 11 -345 9 -155 9 -212 0 -242 -9 -31 -9
-43 1 -55 15 -18 50 -20 74 -2 34 25 34 64 1 557 -4 58 -11 124 -16 147 -17
81 3 91 134 69 141 -24 300 -37 404 -35 55 2 98 -2 104 -8 6 -6 15 -55 19
-109 9 -93 43 -288 74 -413 7 -31 21 -92 31 -136 30 -134 65 -182 115 -155 26
14 25 26 -4 102 -25 66 -88 328 -105 438 -6 36 -18 112 -27 168 -12 72 -15
109 -8 120 6 9 44 26 85 39 106 34 169 103 93 103 -14 0 -44 -10 -67 -22 -57
-29 -103 -38 -121 -24 -15 11 -17 37 -32 331 l-7 130 38 72 c36 70 37 73 21
98 -19 29 -27 30 -65 10 -39 -20 -80 -123 -87 -218 -5 -69 12 -246 36 -371 7
-40 8 -62 1 -69 -6 -6 -43 -10 -83 -9 -88 3 -481 49 -524 63 l-31 10 -6 192
c-6 172 -26 462 -42 605 -10 80 -59 117 -100 76z"/>
<path d="M20615 7878 c-20 -17 -55 -58 -77 -90 -28 -42 -44 -57 -56 -54 -136
41 -248 32 -305 -25 -26 -27 -29 -35 -24 -73 8 -55 59 -163 98 -205 28 -32 33
-33 85 -29 70 6 111 43 165 151 22 43 46 80 55 84 24 9 254 -77 254 -95 0 -5
-20 -23 -45 -40 l-46 -32 16 -30 c29 -57 89 -53 206 15 49 28 90 45 111 45 38
0 52 8 61 33 7 18 79 56 108 57 23 0 67 -36 93 -79 24 -38 86 -159 177 -346
69 -142 159 -242 159 -176 0 18 -83 198 -211 458 -120 243 -187 276 -374 183
-97 -49 -126 -50 -238 -6 -34 13 -94 36 -134 51 -108 40 -110 47 -35 114 66
59 73 78 44 104 -27 24 -47 21 -87 -15z m-161 -219 c19 -17 -82 -178 -120
-193 -26 -10 -53 12 -79 64 -30 60 -33 105 -6 120 50 26 180 32 205 9z"/>
<path d="M19486 7876 c-70 -19 -111 -65 -133 -148 -15 -57 -16 -74 -5 -115 36
-137 167 -221 279 -180 66 24 118 73 178 163 55 84 71 101 83 89 4 -4 9 -58
13 -120 5 -109 6 -115 41 -167 24 -36 49 -60 80 -75 53 -27 67 -28 114 -8 28
11 35 19 32 37 -3 20 -10 24 -59 28 -61 5 -90 24 -116 73 -11 23 -14 62 -11
186 3 137 1 160 -15 184 -35 54 -70 34 -159 -93 -99 -142 -188 -220 -250 -220
-60 0 -128 66 -128 125 0 49 23 106 53 131 28 24 35 25 136 22 l106 -3 3 27
c4 36 -25 54 -108 67 -77 13 -73 13 -134 -3z"/>
<path d="M7591 7736 c-7 -8 -16 -68 -21 -134 -5 -66 -14 -160 -20 -209 -16
-138 -48 -646 -43 -676 3 -15 2 -42 -1 -61 -9 -48 -35 -54 -99 -21 -116 60
-278 39 -345 -45 -42 -52 -52 -80 -52 -149 0 -159 105 -263 302 -300 105 -20
292 -1 448 46 86 25 120 45 120 70 0 22 -43 20 -149 -8 -41 -11 -80 -18 -87
-15 -10 4 -13 27 -13 83 1 74 -16 145 -44 180 -12 16 -12 73 2 258 6 83 20
276 32 430 11 154 25 312 30 350 14 96 13 183 -1 200 -16 19 -44 19 -59 1z
m-235 -1163 c60 -20 131 -67 137 -91 3 -9 5 -37 6 -62 0 -25 9 -76 18 -113 17
-67 17 -69 -1 -83 -25 -18 -92 -18 -180 1 -104 22 -193 81 -218 145 -15 37
-10 130 8 157 40 61 131 80 230 46z"/>
<path d="M4699 7317 c-47 -21 -146 -104 -197 -165 -56 -67 -94 -142 -158 -312
-39 -102 -49 -120 -94 -160 -49 -44 -51 -47 -57 -111 -5 -61 -4 -68 16 -78 25
-14 55 -2 84 33 22 25 116 220 142 291 9 28 24 65 32 82 7 18 20 52 29 75 34
96 97 178 196 255 66 51 88 81 67 94 -18 11 -28 10 -60 -4z"/>
<path d="M7030 7256 c-41 -27 -98 -94 -192 -220 -37 -50 -76 -103 -87 -117
-53 -68 -112 -165 -130 -214 -27 -71 -45 -218 -31 -245 14 -26 33 -25 65 3 23
19 28 33 32 92 8 117 48 203 174 375 33 45 99 134 147 198 68 92 85 120 78
137 -7 20 -16 19 -56 -9z"/>
<path d="M5083 7251 c-12 -11 -29 -41 -39 -68 -10 -26 -37 -96 -60 -154 -73
-185 -96 -371 -65 -542 25 -141 95 -181 212 -121 28 14 71 44 96 67 58 53 171
194 253 317 92 137 135 187 217 247 80 59 90 70 75 85 -19 19 -93 -10 -165
-63 -47 -34 -87 -76 -130 -136 -90 -124 -252 -326 -307 -382 -49 -50 -100 -77
-125 -68 -31 13 -45 75 -45 206 0 177 32 305 124 504 41 89 43 102 17 117 -27
14 -34 13 -58 -9z"/>
<path d="M9998 7221 c-30 -22 -66 -55 -80 -73 -57 -75 -223 -402 -310 -608
-38 -90 -63 -144 -165 -357 -50 -105 -99 -157 -139 -147 -14 4 -31 1 -39 -6
-20 -16 -19 -64 0 -80 20 -17 77 -15 112 4 37 19 96 82 118 126 9 19 32 64 50
100 18 36 36 76 40 90 4 14 19 47 32 74 l25 49 61 -8 c34 -5 147 -9 250 -10
103 -1 192 -6 197 -11 4 -5 13 -54 19 -109 11 -106 16 -124 64 -250 62 -163
132 -230 182 -175 18 20 18 21 -17 58 -20 20 -46 57 -58 82 -29 57 -70 177
-70 204 0 12 -6 39 -14 61 -22 65 -27 120 -13 138 8 11 36 17 97 22 158 12
325 36 348 51 13 9 22 23 20 32 -3 14 -16 17 -83 16 -44 0 -129 -6 -190 -13
-183 -22 -189 -22 -205 -12 -11 7 -16 44 -21 148 -7 136 -14 254 -25 427 -14
211 -67 262 -186 177z m81 -83 c5 -18 12 -96 16 -173 7 -172 22 -362 35 -435
15 -80 12 -81 -189 -73 -252 9 -276 22 -224 125 17 35 43 90 58 123 16 33 62
130 104 215 113 229 175 297 200 218z"/>
<path d="M12685 7208 c-88 -48 -129 -151 -159 -393 -21 -168 -26 -265 -26
-455 -1 -201 18 -291 72 -347 47 -50 79 -63 148 -63 87 0 152 34 251 134 91
92 101 92 132 10 39 -103 50 -119 85 -122 36 -4 75 17 92 47 16 30 2 50 -38
53 -30 3 -37 8 -44 33 -23 76 -42 107 -79 126 -21 10 -45 19 -54 19 -31 0 -80
-33 -152 -101 -75 -71 -155 -119 -197 -119 -34 0 -81 42 -100 91 -53 132 -9
794 63 954 10 22 30 51 45 64 51 47 20 102 -39 69z"/>
<path d="M3599 7176 c-61 -17 -163 -87 -200 -139 -95 -130 -148 -314 -150
-519 -1 -114 11 -164 52 -206 38 -38 62 -46 132 -40 122 11 213 88 307 260 37
68 50 83 69 83 21 0 27 -10 51 -80 40 -121 69 -154 126 -143 39 7 37 32 -7 98
-76 115 -124 302 -112 441 4 53 2 68 -12 82 -21 21 -52 15 -78 -16 -16 -18
-18 -33 -12 -116 6 -83 4 -104 -15 -156 -44 -126 -182 -325 -251 -360 -15 -8
-45 -15 -67 -15 -82 0 -107 71 -91 259 26 303 173 501 370 501 77 0 96 5 109
30 7 14 6 23 -6 34 -19 20 -146 21 -215 2z"/>
<path d="M13844 7134 c-31 -15 -79 -68 -102 -111 -27 -50 -6 -98 40 -91 21 3
36 21 80 94 10 16 27 42 40 57 18 22 20 31 12 45 -15 23 -33 25 -70 6z"/>
<path d="M6175 7056 c-11 -7 -40 -15 -65 -18 -60 -7 -201 -64 -290 -118 -161
-97 -241 -278 -211 -479 14 -90 40 -135 94 -162 53 -27 140 -19 224 20 104 49
159 121 213 276 18 50 38 96 45 104 20 20 41 -21 50 -94 4 -33 18 -116 31
-185 28 -146 58 -203 110 -208 52 -5 61 19 29 75 -44 78 -117 420 -135 628
-15 176 -15 175 -48 175 -15 0 -36 -6 -47 -14z m-28 -133 c-19 -272 -146 -517
-292 -567 -25 -8 -51 -13 -58 -11 -7 2 -24 6 -39 9 -42 10 -60 54 -59 150 1
230 54 310 276 417 69 33 127 65 130 70 4 5 15 9 27 9 19 0 20 -4 15 -77z"/>
<path d="M14235 6911 c-3 -11 -8 -120 -10 -243 -2 -123 -4 -226 -5 -230 0 -4
-26 -8 -57 -10 -54 -3 -58 -5 -61 -29 -3 -22 3 -28 30 -38 86 -33 80 -27 75
-84 -2 -28 -10 -110 -17 -182 -15 -149 -11 -182 26 -191 46 -12 53 7 67 204 8
108 18 187 25 194 9 9 45 5 154 -17 79 -15 183 -31 231 -34 110 -8 117 -15
117 -119 0 -45 8 -101 20 -141 40 -135 113 -210 250 -256 107 -36 196 -34 323
5 105 33 155 66 144 95 -9 21 -25 19 -151 -19 -48 -14 -111 -26 -140 -26 -107
0 -229 47 -275 106 -50 63 -101 293 -73 327 9 10 42 16 115 19 199 10 320 90
302 199 -17 100 -210 174 -326 125 -77 -33 -147 -114 -163 -192 -4 -18 -15
-39 -26 -49 -17 -15 -28 -15 -172 15 -84 17 -184 34 -221 37 -115 10 -110 -3
-96 276 10 223 10 239 -6 257 -24 26 -72 26 -80 1z m918 -415 c39 -16 89 -72
85 -94 -6 -31 -58 -55 -168 -78 -82 -18 -117 -21 -131 -14 -68 37 63 192 169
199 7 1 27 -5 45 -13z"/>
<path d="M16876 6837 c-24 -18 -34 -104 -40 -358 -3 -118 -8 -223 -11 -231 -4
-9 -30 -24 -58 -33 -72 -23 -97 -41 -97 -70 0 -35 37 -42 91 -17 24 11 47 18
51 16 19 -12 5 -166 -39 -440 -7 -43 19 -64 55 -43 15 8 33 27 40 42 16 34 31
162 40 347 l7 135 40 13 c23 8 89 15 155 15 97 2 121 -1 154 -18 66 -33 78
-60 87 -182 4 -60 12 -129 18 -153 21 -93 105 -213 159 -227 49 -12 130 3 172
32 50 35 167 208 267 395 82 155 93 187 68 196 -23 9 -52 -30 -259 -349 -74
-114 -153 -197 -188 -197 -67 0 -138 158 -138 310 0 74 -27 161 -61 196 -68
70 -227 100 -369 70 -59 -12 -78 -13 -87 -3 -9 9 -9 71 -3 253 5 132 12 247
15 256 9 23 -12 58 -33 58 -10 0 -26 -6 -36 -13z"/>
<path d="M11600 6701 c-55 -17 -151 -73 -221 -129 -95 -75 -330 -332 -392
-430 -15 -23 -46 -56 -69 -72 -25 -19 -55 -54 -73 -88 -17 -31 -41 -73 -53
-92 -38 -60 -22 -103 33 -93 33 7 69 47 142 158 133 201 355 466 477 568 119
99 248 135 386 108 67 -13 180 -58 180 -72 0 -16 -45 -37 -135 -64 -115 -35
-154 -56 -211 -114 -63 -62 -112 -169 -137 -299 -18 -91 -19 -112 -9 -173 21
-119 66 -186 156 -228 118 -56 251 -51 376 16 120 64 149 95 115 123 -12 10
-33 3 -112 -36 -85 -41 -108 -48 -174 -52 -124 -7 -203 31 -243 117 -30 67
-27 209 7 308 60 173 100 208 347 297 65 23 109 52 122 81 10 22 8 29 -11 49
-64 68 -244 126 -385 125 -50 0 -102 -4 -116 -8z"/>
<path d="M16090 6560 c-59 -8 -119 -41 -148 -79 -61 -83 -69 -291 -17 -451 74
-232 174 -336 326 -342 111 -5 249 65 249 126 0 32 -29 35 -68 7 -15 -10 -43
-25 -63 -34 -158 -65 -260 11 -339 254 -27 80 -31 110 -33 204 -1 85 3 119 16
150 24 54 63 84 110 85 51 0 77 15 77 45 0 13 -3 26 -7 28 -19 10 -61 13 -103
7z"/>
<path d="M13537 6453 c-12 -11 -8 -52 9 -91 9 -22 20 -93 25 -177 6 -77 15
-157 20 -177 13 -49 41 -65 76 -43 22 15 24 22 19 53 -4 21 -11 102 -16 182
-11 192 -39 260 -108 260 -10 0 -22 -3 -25 -7z"/>
<path d="M18987 6270 c-21 -6 -50 -16 -66 -24 -33 -18 -89 -79 -101 -112 -13
-32 -23 -30 -54 11 -59 77 -186 103 -276 56 -108 -56 -146 -102 -237 -281 -59
-118 -94 -167 -111 -156 -16 10 -15 120 3 236 23 152 17 220 -20 220 -25 0
-34 -34 -57 -210 -19 -150 -20 -181 -9 -243 18 -106 59 -139 129 -103 38 20
63 57 149 220 102 193 174 266 260 266 51 0 89 -29 152 -113 42 -55 55 -84 73
-154 47 -191 240 -393 495 -522 69 -34 113 -44 133 -31 24 15 2 40 -88 95 -45
28 -110 70 -144 95 -127 91 -265 255 -289 343 -16 61 -10 67 73 65 133 -2 252
65 278 156 14 50 2 82 -47 127 -61 57 -159 81 -246 59z m136 -81 c35 -18 77
-61 77 -79 0 -44 -114 -104 -220 -117 -35 -4 -50 -1 -63 12 -19 18 -22 60 -8
98 12 30 64 80 93 89 37 10 98 9 121 -3z"/>
<path d="M5002 5449 c-35 -4 -80 -13 -100 -20 -83 -27 -222 -100 -307 -162
-49 -37 -100 -73 -112 -82 -12 -8 -24 -27 -27 -42 -4 -16 -30 -71 -60 -124
-107 -195 -162 -400 -201 -754 -9 -77 -20 -160 -25 -185 -10 -54 5 -93 37 -98
29 -4 50 29 57 93 24 211 59 476 66 505 24 108 75 280 91 313 27 52 59 51 83
-3 40 -90 149 -169 288 -208 101 -28 271 -23 379 11 48 15 92 34 99 42 7 8 17
15 22 15 20 0 92 67 124 116 30 44 35 63 40 130 16 207 -119 409 -296 444 -86
17 -91 17 -158 9z m199 -110 c105 -53 166 -137 189 -259 13 -68 6 -104 -30
-153 -94 -129 -327 -196 -530 -153 -135 29 -255 108 -301 198 -30 60 -25 83
33 144 94 99 219 176 368 226 104 35 200 34 271 -3z"/>
<path d="M9899 5199 c-12 -12 -35 -51 -51 -88 -17 -36 -45 -97 -63 -136 -18
-38 -47 -115 -65 -169 -31 -94 -69 -154 -89 -142 -4 3 -11 61 -15 128 -9 163
-35 347 -52 376 -18 28 -40 28 -55 0 -13 -24 -10 -60 21 -283 11 -82 25 -192
30 -243 11 -126 34 -151 100 -117 39 20 74 90 144 287 64 181 85 228 102 228
21 0 24 -27 24 -205 0 -170 0 -175 23 -186 68 -38 135 8 300 204 41 49 51 56
67 47 22 -12 31 -44 55 -195 9 -60 26 -131 37 -157 24 -55 59 -91 81 -82 29
11 30 43 2 105 -17 38 -33 106 -46 187 -30 196 -59 252 -131 252 -33 0 -46 -8
-110 -72 -41 -40 -94 -97 -120 -126 -31 -36 -52 -53 -65 -50 -17 3 -18 19 -23
204 -4 169 -8 204 -23 227 -21 32 -49 35 -78 6z"/>
<path d="M8825 5198 c-448 -57 -678 -188 -834 -473 -43 -77 -51 -124 -27 -145
22 -18 59 -8 72 20 7 14 25 52 40 85 63 135 177 250 314 314 33 16 119 48 191
72 115 38 132 41 145 28 13 -14 11 -20 -15 -55 -17 -21 -38 -50 -49 -64 -68
-90 -125 -242 -120 -321 3 -48 6 -56 38 -77 90 -60 233 32 308 199 11 24 29
65 40 90 11 26 25 49 30 53 18 11 39 -35 47 -99 22 -203 123 -334 205 -267 28
23 18 48 -27 64 -44 16 -66 53 -92 153 -23 91 -71 340 -71 370 0 11 -7 31 -16
43 -17 25 -50 27 -179 10z m101 -139 c-6 -36 -32 -92 -114 -243 -40 -73 -122
-156 -154 -156 -14 0 -31 6 -37 14 -16 19 18 102 100 248 68 120 127 178 182
178 29 0 29 -1 23 -41z"/>
<path d="M6654 5146 c-34 -15 -47 -37 -37 -62 9 -23 50 -36 75 -23 30 16 103
2 136 -26 32 -26 59 -98 68 -179 17 -149 -126 -294 -324 -328 -56 -9 -76 -8
-123 5 -60 18 -109 58 -109 89 0 32 86 113 192 180 121 76 178 124 178 149 0
26 -38 48 -101 59 -185 32 -202 33 -296 21 -329 -43 -544 -194 -684 -479 -33
-67 -62 -135 -65 -151 -8 -38 11 -71 40 -71 33 0 53 27 81 110 33 96 102 205
178 283 143 144 311 214 555 233 100 7 142 1 142 -21 0 -9 -44 -45 -97 -80
-151 -99 -179 -130 -193 -207 -15 -80 23 -142 115 -190 51 -27 175 -36 254
-18 146 32 279 142 320 265 37 116 21 262 -42 364 -38 63 -193 109 -263 77z"/>
<path d="M13048 5130 c-78 -13 -172 -48 -215 -80 -71 -52 -122 -196 -108 -306
8 -70 53 -128 136 -177 138 -81 323 -116 607 -117 145 0 174 -2 178 -15 9 -24
-9 -39 -144 -121 -70 -42 -154 -98 -187 -124 -83 -64 -178 -130 -258 -179 -55
-33 -77 -41 -116 -41 -31 0 -53 5 -61 15 -18 21 -23 92 -12 144 12 50 7 71
-18 71 -27 0 -47 -30 -65 -100 -20 -76 -10 -136 30 -176 21 -21 34 -24 92 -24
37 0 86 5 107 11 47 13 170 88 281 170 44 33 134 95 200 138 142 94 252 183
267 217 19 41 0 57 -77 70 -37 6 -109 12 -159 13 -421 8 -675 91 -702 229 -17
89 16 194 79 249 29 26 47 32 124 42 124 15 286 14 362 -4 131 -31 193 -80
286 -222 31 -49 44 -55 76 -39 42 20 36 51 -25 130 -114 149 -175 188 -346
220 -86 17 -251 19 -332 6z"/>
<path d="M7515 5124 c-11 -2 -64 -19 -118 -36 -124 -40 -178 -83 -203 -162
-71 -225 193 -265 470 -72 98 69 114 63 92 -36 -8 -34 -21 -97 -30 -138 -9
-41 -24 -120 -32 -175 -8 -55 -21 -138 -28 -185 -8 -47 -21 -111 -30 -142 -10
-32 -16 -72 -14 -90 3 -29 6 -33 33 -33 26 0 31 5 42 45 8 25 25 104 39 175
13 72 29 148 34 170 4 22 15 76 24 120 8 44 32 164 52 267 20 102 33 195 30
205 -3 11 -22 35 -42 54 l-35 34 -132 2 c-73 1 -141 0 -152 -3z m233 -86 c18
-23 -28 -63 -138 -121 -59 -30 -139 -65 -179 -77 -189 -58 -252 43 -82 130 34
17 167 62 216 73 46 11 173 7 183 -5z"/>
<path d="M11002 5104 c-68 -18 -161 -64 -212 -105 -46 -37 -90 -118 -90 -167
0 -75 104 -132 362 -196 245 -62 361 -123 361 -191 0 -35 -64 -126 -127 -180
-74 -65 -184 -118 -247 -119 -71 -1 -82 16 -73 112 6 73 6 74 -16 70 -58 -8
-85 -154 -41 -217 36 -50 74 -64 151 -58 122 10 190 48 322 175 83 81 113 145
106 226 -10 126 -123 194 -458 276 -183 44 -250 77 -250 123 0 33 88 104 170
139 70 30 83 32 182 31 89 -2 109 1 122 15 25 28 0 65 -49 74 -64 11 -156 8
-213 -8z"/>
<path d="M17760 5089 c-16 -18 -35 -57 -45 -93 -58 -213 -98 -354 -106 -374
-9 -23 -12 -24 -92 -17 -106 8 -163 -8 -194 -54 -29 -42 -30 -103 -4 -163 59
-136 175 -121 271 35 23 37 47 67 53 67 7 0 54 -13 105 -30 51 -16 131 -36
179 -44 57 -11 96 -23 117 -39 121 -93 311 -177 414 -185 57 -4 64 -3 60 13
-1 10 -10 21 -18 25 -50 26 -210 100 -215 100 -3 0 -23 12 -45 26 -37 24 -55
64 -30 64 5 0 23 19 40 42 56 76 31 173 -57 225 -40 23 -59 28 -118 28 -98 0
-149 -26 -153 -77 -2 -20 4 -53 12 -73 17 -40 20 -71 9 -78 -9 -5 -211 56
-243 73 -11 6 -20 17 -20 25 0 9 30 102 66 208 36 105 73 213 82 239 15 45 15
49 -3 68 -24 27 -31 26 -65 -11z m366 -478 c53 -24 84 -58 84 -91 0 -38 -20
-60 -60 -66 -30 -5 -40 -1 -64 22 -40 40 -69 101 -62 130 8 30 43 32 102 5z
m-591 -91 c23 -9 26 -14 21 -36 -12 -47 -74 -134 -96 -134 -43 0 -99 130 -70
165 15 18 104 21 145 5z"/>
<path d="M14273 4990 c-125 -13 -243 -80 -308 -175 -73 -106 -149 -346 -160
-510 -8 -108 8 -156 77 -231 54 -59 103 -81 199 -90 63 -5 89 -3 146 14 70 22
136 59 137 77 0 19 -34 17 -107 -6 -86 -27 -160 -27 -219 -1 -57 25 -124 99
-139 154 -23 86 11 308 48 308 8 0 31 -14 51 -31 48 -42 107 -66 195 -78 196
-27 369 33 466 161 61 83 74 172 35 250 -20 38 -95 96 -156 120 -52 20 -163
48 -183 46 -5 0 -43 -4 -82 -8z m201 -111 c79 -23 128 -55 157 -103 27 -44 24
-85 -10 -138 -78 -123 -241 -173 -432 -133 -105 22 -179 76 -196 143 -14 59
101 207 184 235 71 24 209 22 297 -4z"/>
<path d="M15105 4782 c-95 -42 -166 -102 -217 -187 -38 -62 -132 -296 -178
-440 -23 -71 -45 -139 -50 -150 -21 -47 -79 -306 -84 -371 -7 -97 2 -128 40
-132 44 -4 62 22 90 134 28 112 60 216 109 354 19 52 44 128 55 167 12 40 25
75 30 78 5 3 25 -12 45 -32 l37 -38 86 0 c74 0 95 4 144 27 32 16 72 46 93 70
75 88 131 249 122 350 -6 71 -30 114 -85 152 -35 25 -52 30 -119 33 -59 2 -88
-1 -118 -15z m173 -76 c15 -8 38 -26 52 -41 73 -78 -30 -349 -153 -406 -48
-21 -114 -24 -152 -7 -45 20 -57 58 -49 149 5 66 4 79 -8 79 -33 0 -65 -40
-87 -108 -12 -38 -28 -77 -36 -88 -8 -10 -15 -26 -15 -35 0 -20 -30 -49 -30
-29 0 41 39 149 87 241 96 186 182 259 306 259 32 0 70 -6 85 -14z m-487 -553
c-8 -15 -10 -15 -11 -2 0 17 10 32 18 25 2 -3 -1 -13 -7 -23z"/>
<path d="M16935 4714 c-120 -18 -313 -78 -446 -137 -127 -57 -249 -152 -249
-193 0 -23 24 -54 42 -54 5 0 36 27 68 60 33 32 85 72 117 88 66 34 278 120
371 151 127 43 135 17 22 -70 -109 -84 -293 -251 -307 -279 -14 -28 -3 -56 28
-65 66 -21 307 177 353 291 23 55 52 88 72 80 11 -4 14 -33 14 -138 1 -152 9
-200 41 -234 30 -32 61 -30 104 7 40 36 46 61 13 59 -38 -3 -46 -1 -53 18 -3
9 -12 103 -19 209 -8 127 -17 197 -25 207 -16 18 -25 18 -146 0z"/>
<path d="M15789 4627 c-79 -33 -118 -64 -211 -165 -55 -59 -63 -100 -26 -126
27 -19 67 -20 133 -2 63 16 86 28 153 78 67 50 82 45 82 -24 0 -62 20 -98 54
-98 34 0 50 23 36 51 -12 21 -9 106 6 217 4 30 2 49 -10 67 -15 23 -23 25 -89
25 -52 0 -88 -7 -128 -23z m118 -74 c7 -20 -70 -86 -139 -120 -63 -31 -107
-41 -121 -27 -18 19 66 108 138 147 34 19 116 19 122 0z"/>
<path d="M4954 3765 c-133 -24 -272 -91 -375 -181 -63 -56 -164 -175 -210
-249 -37 -60 -55 -75 -89 -75 -53 0 -187 41 -262 80 -81 42 -106 47 -139 30
-25 -14 -24 -32 4 -58 42 -40 219 -108 330 -127 46 -7 55 -26 31 -63 -44 -65
-104 -202 -139 -317 -10 -33 -24 -80 -31 -104 -21 -66 -18 -90 11 -103 32 -15
51 1 66 56 15 54 84 263 100 301 6 17 17 44 24 60 7 17 18 46 24 67 7 20 23
48 36 62 21 23 32 26 92 26 37 0 163 7 279 14 256 17 334 11 334 -25 0 -5 -21
-28 -47 -51 -25 -24 -91 -87 -146 -140 -97 -94 -99 -98 -85 -120 29 -44 71
-36 187 34 56 35 142 87 190 115 102 62 145 74 166 47 8 -11 15 -27 15 -36 1
-55 60 -98 114 -84 26 6 131 81 183 129 31 29 31 31 18 58 -17 32 -61 67 -122
98 l-43 21 -50 -25 c-27 -14 -59 -25 -70 -25 -27 0 -153 -55 -200 -86 -39 -27
-80 -32 -80 -10 0 8 12 28 26 45 30 36 27 68 -8 101 -50 46 -195 58 -450 37
-183 -16 -218 -14 -218 9 0 19 98 131 192 218 96 89 242 169 343 187 86 16
226 6 313 -20 80 -25 102 -20 102 25 0 34 -33 51 -145 74 -114 23 -170 24
-271 5z m579 -642 c19 -32 -82 -113 -140 -113 -34 0 -42 12 -20 30 79 65 115
90 134 90 12 0 24 -3 26 -7z"/>
<path d="M8562 3528 c-21 -27 -43 -96 -72 -227 -17 -75 -30 -146 -30 -158 0
-46 -22 -123 -35 -123 -7 0 -34 24 -60 54 -57 67 -122 110 -217 143 -90 31
-165 27 -240 -14 -64 -35 -91 -73 -96 -139 -14 -166 212 -293 471 -264 40 5
84 11 98 15 34 9 85 -34 110 -92 36 -85 138 -109 241 -57 96 49 266 177 393
296 42 40 88 79 101 86 35 19 48 -13 39 -97 -12 -104 -7 -218 10 -251 42 -80
155 -68 155 17 0 25 -4 33 -18 33 -10 0 -23 -5 -29 -11 -7 -7 -19 -9 -28 -5
-16 6 -17 21 -11 159 4 83 12 187 17 231 9 69 8 80 -7 97 -33 36 -73 22 -112
-40 -36 -58 -84 -110 -112 -121 -27 -11 -33 -10 -60 14 -17 14 -56 33 -86 42
-51 14 -61 14 -127 0 -111 -25 -195 -82 -293 -198 -24 -29 -35 -36 -53 -31
-20 5 -22 11 -18 52 8 86 116 480 139 506 13 15 9 62 -8 79 -19 19 -48 21 -62
4z m-402 -398 c79 -25 161 -83 211 -150 77 -102 51 -118 -161 -102 -125 9
-158 15 -204 37 -98 46 -130 113 -86 175 41 58 135 73 240 40z m846 -105 c61
-25 46 -46 -116 -157 -176 -120 -236 -150 -287 -146 -28 2 -39 8 -42 23 -9 51
95 175 199 233 105 59 182 74 246 47z"/>
<path d="M10034 3532 c-6 -4 -17 -18 -23 -31 -17 -31 -57 -228 -65 -320 -4
-41 -11 -80 -17 -88 -15 -17 -47 -17 -99 2 -105 37 -214 34 -248 -7 -20 -25
10 -256 62 -471 24 -100 77 -133 128 -79 35 37 92 143 119 222 12 36 25 69 30
74 5 6 9 16 9 23 0 7 9 37 21 68 19 51 23 56 47 53 32 -4 41 -37 19 -71 -8
-12 -20 -46 -27 -75 -37 -159 12 -257 141 -283 47 -9 61 -8 110 10 104 39 211
158 294 328 15 29 38 62 52 73 l26 20 22 -20 c13 -12 29 -45 38 -73 8 -29 43
-131 77 -227 34 -96 64 -184 67 -195 11 -46 69 -183 93 -220 26 -41 63 -57 73
-32 3 8 -7 41 -22 73 -26 55 -44 106 -136 394 -103 323 -179 444 -253 406 -25
-13 -32 -11 -97 20 -109 53 -204 43 -318 -34 -61 -41 -80 -45 -121 -28 -42 17
-42 23 -17 107 11 35 27 102 36 149 10 47 23 100 31 119 19 46 18 77 -6 101
-22 22 -29 24 -46 12z m455 -507 c22 -22 24 -27 11 -35 -37 -24 -238 -1 -248
28 -8 24 58 43 137 38 63 -4 78 -9 100 -31z m-614 -15 c19 -7 25 -17 25 -38 0
-48 -142 -372 -167 -380 -26 -8 -50 89 -74 295 -16 147 -16 148 104 139 48 -4
99 -11 112 -16z m445 -75 c114 -10 130 -14 130 -34 0 -35 -140 -207 -196 -242
-94 -58 -191 -32 -207 56 -6 33 17 133 40 180 29 56 32 58 103 51 36 -3 94 -8
130 -11z"/>
<path d="M6532 3284 c-87 -23 -244 -117 -332 -199 -104 -96 -130 -97 -130 -5
0 54 -3 62 -22 69 -36 14 -55 -4 -98 -89 -22 -43 -44 -81 -50 -85 -5 -3 -19
-1 -31 6 -20 10 -21 16 -14 91 7 89 -5 118 -52 118 -35 0 -46 -39 -38 -135 4
-44 9 -109 10 -145 4 -143 81 -158 148 -29 16 29 30 55 33 58 2 2 29 -8 60
-24 l56 -28 41 21 c23 12 83 56 132 97 129 108 306 205 374 205 42 0 64 -58
77 -205 10 -122 61 -202 102 -161 14 13 14 21 4 50 -7 19 -12 38 -11 43 2 4
-1 35 -5 68 -22 180 -48 245 -111 275 -48 23 -70 24 -143 4z"/>
</g>
</svg>
