<?xml version="1.0" standalone="no"?>
<!DOCTYPE svg PUBLIC "-//W3C//DTD SVG 20010904//EN"
 "http://www.w3.org/TR/2001/REC-SVG-20010904/DTD/svg10.dtd">
<svg version="1.0" xmlns="http://www.w3.org/2000/svg"
 width="2448.000000pt" height="3264.000000pt" viewBox="0 0 2448.000000 3264.000000"
 preserveAspectRatio="xMidYMid meet">
<metadata>
Created by potrace 1.12, written by Peter Selinger 2001-2015
</metadata>
<g transform="translate(0.000000,3264.000000) scale(0.100000,-0.100000)"
fill="#000000" stroke="none">
<path d="M5353 32042 c-22 -14 -25 -60 -9 -168 8 -60 18 -143 21 -184 18 -213
52 -423 86 -523 28 -84 64 -132 127 -172 66 -41 122 -51 177 -33 47 16 56 45
12 40 -72 -8 -162 49 -201 125 -41 81 -74 279 -106 628 -14 152 -30 251 -44
269 -14 18 -48 28 -63 18z"/>
<path d="M4915 31867 c-8 -31 6 -88 69 -278 30 -90 73 -225 97 -299 58 -187
67 -209 100 -225 62 -32 112 -11 125 52 7 36 -7 49 -35 31 -37 -23 -40 -16
-131 287 -50 170 -144 432 -158 443 -26 20 -61 15 -67 -11z"/>
<path d="M6813 31761 c-28 -18 -51 -101 -97 -356 -43 -230 -50 -306 -51 -508
l0 -198 -33 6 c-39 7 -62 -7 -62 -40 0 -27 15 -41 66 -58 33 -12 40 -19 47
-53 11 -49 15 -472 4 -498 -7 -18 -8 -18 -27 -1 -19 17 -19 17 -13 -36 7 -69
18 -89 47 -89 47 0 59 31 87 223 9 66 10 125 2 240 -5 83 -7 156 -3 160 4 5
27 3 51 -4 24 -7 98 -13 164 -13 111 -1 126 1 194 28 52 22 82 41 107 70 57
66 40 93 -34 53 -66 -35 -161 -57 -250 -57 -97 0 -200 16 -231 37 l-24 15 6
207 c7 256 43 502 116 786 8 31 7 45 -4 61 -15 23 -47 36 -62 25z"/>
<path d="M15728 31693 c-9 -10 -35 -65 -58 -123 -29 -72 -72 -149 -136 -246
-75 -112 -94 -148 -94 -176 0 -39 19 -55 48 -39 74 40 276 368 322 523 6 21 4
33 -12 53 -23 29 -49 32 -70 8z"/>
<path d="M15428 31593 c-115 -112 -208 -226 -208 -255 0 -27 28 -58 52 -58 9
0 37 26 63 58 26 31 90 98 143 149 82 78 95 96 95 123 0 33 -23 60 -51 60 -8
0 -50 -35 -94 -77z"/>
<path d="M14324 31612 c-22 -14 -34 -53 -50 -159 -34 -237 -70 -372 -172 -663
-88 -248 -113 -378 -81 -416 35 -42 109 -54 123 -19 8 22 -4 45 -24 45 -22 0
-29 18 -23 56 10 56 76 260 123 379 68 172 106 298 140 475 37 193 39 272 8
294 -25 18 -29 19 -44 8z"/>
<path d="M11792 31472 c-17 -11 -86 -211 -122 -352 -15 -63 -43 -203 -60 -310
-17 -107 -42 -253 -55 -325 -13 -71 -29 -182 -36 -246 -12 -108 -11 -118 7
-155 13 -26 26 -39 39 -39 18 0 21 9 26 112 4 61 10 116 13 121 6 10 38 168
61 307 47 270 120 570 168 685 51 122 57 172 26 194 -26 18 -47 20 -67 8z"/>
<path d="M7662 31366 c-80 -69 -198 -398 -227 -639 -8 -67 -22 -227 -31 -355
-15 -214 -15 -235 0 -257 11 -17 26 -25 46 -25 36 0 37 4 44 150 19 389 48
585 114 780 35 103 112 258 141 284 23 21 27 56 9 74 -20 20 -64 14 -96 -12z"/>
<path d="M16582 31354 c-24 -13 -49 -29 -55 -37 -16 -19 -87 -30 -104 -15 -9
7 -17 8 -24 1 -7 -7 -1 -16 17 -28 21 -14 31 -15 51 -6 13 6 39 11 57 11 25 0
35 6 44 25 15 33 72 37 72 5 0 -11 -9 -25 -20 -32 -22 -14 -26 -33 -10 -43 14
-9 69 36 69 58 1 9 7 17 15 17 10 0 12 -7 9 -21 -6 -21 -4 -21 43 -14 56 8 67
13 59 26 -4 5 -18 6 -32 3 -21 -6 -24 -4 -21 12 2 11 12 19 23 19 11 0 31 4
45 9 l25 9 -25 9 c-14 6 -63 11 -110 12 -71 2 -92 -1 -128 -20z"/>
<path d="M16870 31365 c-8 -9 -15 -26 -15 -37 -1 -12 -10 -27 -20 -34 -24 -18
-12 -46 17 -42 15 2 24 11 26 25 3 21 32 42 32 23 0 -6 9 -19 20 -30 16 -16
24 -18 41 -10 19 11 19 11 -3 39 -17 20 -27 26 -35 18 -9 -7 -13 -5 -13 6 0 8
-8 25 -18 37 -17 20 -19 21 -32 5z"/>
<path d="M16275 31320 c-3 -5 -1 -10 4 -10 6 0 11 5 11 10 0 6 -2 10 -4 10 -3
0 -8 -4 -11 -10z"/>
<path d="M9663 31285 c-17 -12 -23 -29 -28 -83 -29 -313 -58 -536 -95 -726
-11 -55 -20 -118 -20 -139 0 -34 4 -40 37 -53 50 -22 68 -10 172 111 160 185
223 267 318 411 14 20 28 31 37 28 42 -16 75 -197 80 -425 l3 -172 29 -24 c54
-43 61 -35 62 75 0 53 3 133 6 177 9 136 -18 312 -59 395 -27 52 -48 73 -91
88 -58 19 -77 7 -156 -101 -220 -302 -308 -411 -320 -399 -4 4 0 53 11 108 42
215 51 274 65 399 8 72 20 162 25 202 12 80 4 115 -28 132 -25 14 -22 14 -48
-4z"/>
<path d="M16340 31290 c0 -5 5 -10 10 -10 6 0 10 5 10 10 0 6 -4 10 -10 10 -5
0 -10 -4 -10 -10z"/>
<path d="M17012 31288 c-7 -7 -12 -19 -12 -28 0 -9 -5 -21 -11 -27 -18 -18 -1
-35 22 -23 11 6 17 16 13 21 -3 6 2 19 11 29 25 28 4 55 -23 28z"/>
<path d="M21873 31256 c-26 -12 -31 -36 -8 -36 10 0 15 -10 15 -27 0 -34 -8
-46 -38 -62 -18 -10 -23 -9 -28 4 -4 9 -2 27 4 39 10 22 9 23 -48 20 -31 -1
-71 -9 -89 -18 -17 -9 -36 -14 -41 -11 -15 9 -74 -25 -63 -36 15 -15 107 -27
163 -21 39 3 55 1 70 -13 18 -16 21 -16 62 6 24 13 57 34 74 46 36 27 54 29
54 7 0 -12 6 -15 23 -9 12 3 38 10 57 14 19 4 45 13 58 20 16 8 27 9 42 1 15
-8 26 -7 45 6 24 16 33 34 17 34 -4 0 -13 -5 -19 -11 -7 -7 -23 -9 -37 -5 -23
6 -25 9 -16 27 10 18 9 19 -17 13 -15 -4 -29 -10 -31 -13 -13 -30 -25 -35
-101 -37 -88 -3 -104 9 -56 40 14 9 23 21 20 26 -8 13 -84 10 -112 -4z m-93
-100 c0 -16 -37 -32 -48 -21 -7 7 25 35 40 35 4 0 8 -6 8 -14z"/>
<path d="M22008 31263 c7 -3 16 -2 19 1 4 3 -2 6 -13 5 -11 0 -14 -3 -6 -6z"/>
<path d="M17300 31250 c0 -5 5 -10 10 -10 6 0 10 5 10 10 0 6 -4 10 -10 10 -5
0 -10 -4 -10 -10z"/>
<path d="M18077 31243 c-32 -17 -47 -17 -107 -4 -60 14 -110 14 -110 0 0 -6 7
-9 15 -5 8 3 18 -2 23 -11 7 -12 13 -13 30 -4 18 10 24 8 34 -9 7 -11 23 -20
36 -20 13 0 32 -5 42 -10 16 -8 21 -5 32 17 8 16 22 28 33 29 47 2 48 3 35 19
-15 18 -26 18 -63 -2z"/>
<path d="M19640 31206 c-22 -30 -48 -57 -56 -60 -7 -3 -14 -14 -14 -25 0 -26
-17 -36 -35 -21 -8 6 -24 10 -37 8 -18 -2 -23 -10 -24 -33 -1 -62 -4 -75 -19
-75 -8 0 -15 -4 -15 -9 0 -5 -9 -11 -20 -14 -28 -7 -25 -24 6 -31 27 -7 54 7
54 29 0 6 11 17 25 23 17 8 25 20 25 37 0 30 16 33 23 4 8 -32 29 -18 46 31 9
25 40 70 72 104 46 49 59 58 71 49 8 -7 23 -10 35 -7 11 3 24 1 27 -5 4 -6 16
-11 28 -11 18 0 20 -4 14 -32 -6 -30 -5 -30 12 -15 12 11 36 17 64 17 28 0 50
6 58 15 14 17 50 20 50 5 0 -5 -4 -10 -10 -10 -5 0 -10 -4 -10 -10 0 -5 17
-10 38 -10 20 0 51 -1 67 -3 24 -2 31 2 33 20 3 20 0 21 -30 16 -27 -4 -41 0
-65 21 -35 30 -68 33 -94 10 -13 -12 -22 -13 -37 -5 -10 5 -29 7 -42 4 -15 -4
-27 -1 -34 9 -7 10 -37 17 -87 21 l-77 7 -42 -54z"/>
<path d="M18180 31242 c0 -6 12 -20 26 -31 24 -19 28 -19 47 -6 12 8 34 15 49
15 16 0 28 5 28 10 0 6 -17 10 -37 10 -21 0 -55 3 -75 6 -24 4 -38 3 -38 -4z"/>
<path d="M18363 31239 c11 -7 16 -17 12 -28 -5 -17 -2 -17 35 -8 22 6 40 14
40 17 0 8 -70 30 -91 30 -9 -1 -8 -4 4 -11z"/>
<path d="M20088 31243 c7 -3 16 -2 19 1 4 3 -2 6 -13 5 -11 0 -14 -3 -6 -6z"/>
<path d="M16424 31229 c-3 -6 -19 -9 -35 -5 -37 7 -45 -8 -12 -23 24 -11 25
-13 10 -28 -10 -10 -32 -16 -61 -15 -33 0 -46 -4 -46 -14 0 -22 -15 -16 -30
11 -16 30 -7 42 34 47 16 2 31 9 34 16 3 10 -8 11 -50 6 -29 -4 -56 -12 -60
-18 -4 -6 -12 -12 -18 -12 -5 -1 -14 -2 -20 -3 -5 0 -18 -19 -29 -41 -24 -51
-4 -55 33 -8 24 31 26 32 43 15 17 -16 16 -18 -15 -46 -18 -17 -32 -35 -32
-40 0 -19 29 -12 40 10 9 15 18 19 35 15 18 -5 25 -1 30 13 8 26 42 36 69 21
16 -8 30 -8 49 -1 22 9 27 16 25 38 -2 21 2 28 22 33 16 5 31 1 43 -8 16 -14
21 -14 50 0 l32 16 -53 7 c-29 4 -55 12 -58 16 -7 12 -21 11 -30 -2z"/>
<path d="M18608 31233 c-10 -2 -18 -11 -18 -18 0 -23 20 -28 41 -9 32 29 24
39 -23 27z"/>
<path d="M18955 31231 c-3 -6 -15 -11 -25 -11 -20 0 -45 -34 -36 -48 3 -5 -14
-6 -37 -3 -30 4 -45 12 -53 29 -9 19 -13 20 -23 8 -7 -8 -14 -31 -16 -50 -2
-28 2 -38 21 -51 29 -19 35 -19 28 0 -5 13 9 15 96 15 91 0 101 2 98 18 -2 9
-14 18 -28 20 -38 5 -45 18 -26 47 10 15 15 29 13 32 -3 2 -8 0 -12 -6z"/>
<path d="M21410 31225 c0 -8 5 -15 10 -15 6 0 10 7 10 15 0 8 -4 15 -10 15 -5
0 -10 -7 -10 -15z"/>
<path d="M21685 31231 c-3 -5 -1 -12 4 -15 5 -3 11 1 15 9 6 16 -9 21 -19 6z"/>
<path d="M20380 31220 c0 -5 4 -10 9 -10 6 0 13 5 16 10 3 6 -1 10 -9 10 -9 0
-16 -4 -16 -10z"/>
<path d="M21590 31220 c-8 -6 -26 -8 -40 -5 -29 6 -86 -30 -104 -67 -6 -12
-27 -32 -46 -45 -90 -58 -99 -71 -39 -58 18 4 50 25 71 46 27 27 51 41 78 45
24 4 42 13 45 23 3 9 18 25 35 34 16 10 30 22 30 28 0 12 -11 11 -30 -1z"/>
<path d="M19068 31212 c-41 -3 -53 -22 -15 -22 13 0 29 -6 36 -12 11 -10 14
-10 18 0 8 21 60 15 66 -8 3 -11 12 -20 21 -20 43 0 -7 57 -54 62 -19 2 -52 2
-72 0z"/>
<path d="M19525 31199 l-30 -19 26 0 c14 0 34 9 44 20 24 26 2 26 -40 -1z"/>
<path d="M20300 31210 c0 -5 7 -10 16 -10 8 0 12 5 9 10 -3 6 -10 10 -16 10
-5 0 -9 -4 -9 -10z"/>
<path d="M20580 31210 c0 -5 7 -10 15 -10 8 0 15 5 15 10 0 6 -7 10 -15 10 -8
0 -15 -4 -15 -10z"/>
<path d="M17140 31200 c0 -5 5 -10 10 -10 6 0 10 5 10 10 0 6 -4 10 -10 10 -5
0 -10 -4 -10 -10z"/>
<path d="M18710 31199 c0 -5 5 -7 10 -4 6 3 10 8 10 11 0 2 -4 4 -10 4 -5 0
-10 -5 -10 -11z"/>
<path d="M20740 31201 c0 -14 49 -43 61 -35 6 3 -3 14 -20 25 -35 21 -41 23
-41 10z"/>
<path d="M23031 31201 c-7 -5 -43 -8 -80 -7 -95 4 -108 -4 -74 -44 22 -25 59
-25 101 0 39 24 69 25 92 5 12 -11 46 -16 121 -19 57 -1 109 -5 114 -6 6 -2
20 -1 33 4 16 5 22 15 22 37 0 26 -3 29 -32 29 -18 -1 -44 -7 -58 -15 -33 -19
-70 -19 -70 0 0 18 -4 18 -46 3 -27 -9 -37 -9 -58 5 -28 19 -44 21 -65 8z"/>
<path d="M23437 31184 c-38 -25 -41 -44 -7 -44 11 0 24 9 30 21 8 15 20 20 43
19 51 -3 54 0 18 15 -41 18 -38 19 -84 -11z"/>
<path d="M20536 31191 c-4 -5 -20 -12 -36 -16 -54 -12 -43 -25 20 -23 55 1 61
3 58 22 -3 22 -32 34 -42 17z"/>
<path d="M20825 31191 c-10 -18 17 -23 33 -7 15 15 15 16 -5 16 -12 0 -24 -4
-28 -9z"/>
<path d="M21253 31185 c-8 -22 6 -33 17 -15 13 20 12 30 0 30 -6 0 -13 -7 -17
-15z"/>
<path d="M21340 31182 c-19 -9 -35 -24 -35 -32 0 -23 46 -23 83 0 28 17 32 23
22 35 -16 19 -26 18 -70 -3z"/>
<path d="M17550 31175 c7 -8 19 -15 27 -15 13 0 13 3 3 15 -7 8 -19 15 -27 15
-13 0 -13 -3 -3 -15z"/>
<path d="M19275 31180 c-3 -5 1 -10 10 -10 9 0 13 5 10 10 -3 6 -8 10 -10 10
-2 0 -7 -4 -10 -10z"/>
<path d="M21130 31175 c0 -8 9 -15 20 -15 13 0 18 5 14 15 -4 8 -12 15 -20 15
-8 0 -14 -7 -14 -15z"/>
<path d="M22334 31173 c-11 -12 -13 -18 -5 -21 13 -4 41 16 41 29 0 14 -17 10
-36 -8z"/>
<path d="M17405 31170 c3 -5 11 -10 16 -10 6 0 7 5 4 10 -3 6 -11 10 -16 10
-6 0 -7 -4 -4 -10z"/>
<path d="M17748 31173 c7 -3 16 -2 19 1 4 3 -2 6 -13 5 -11 0 -14 -3 -6 -6z"/>
<path d="M18104 31165 c-3 -8 -14 -17 -25 -20 -22 -7 -26 -45 -5 -45 28 0 46
12 46 30 0 11 5 22 10 25 15 9 12 25 -5 25 -9 0 -18 -7 -21 -15z"/>
<path d="M18533 31168 c2 -7 12 -13 22 -13 10 0 20 6 23 13 2 7 -6 12 -23 12
-17 0 -25 -5 -22 -12z"/>
<path d="M20962 31168 c-7 -7 -38 -15 -69 -18 -66 -6 -90 -32 -26 -29 21 2 45
-1 51 -5 8 -5 22 2 38 19 25 27 30 57 6 33z"/>
<path d="M19765 31160 c3 -5 8 -10 11 -10 2 0 4 5 4 10 0 6 -5 10 -11 10 -5 0
-7 -4 -4 -10z"/>
<path d="M20190 31160 c-12 -7 -11 -13 10 -34 13 -15 32 -26 42 -26 24 0 23 3
-10 39 -20 22 -31 28 -42 21z"/>
<path d="M16740 31151 c-8 -6 -27 -7 -43 -4 -22 4 -29 3 -25 -7 2 -7 20 -14
38 -15 19 -2 54 -6 77 -10 36 -6 44 -5 49 10 4 10 1 21 -7 26 -18 11 -70 11
-89 0z"/>
<path d="M16557 31143 c-14 -13 -6 -24 15 -21 27 4 36 28 11 28 -11 0 -23 -3
-26 -7z"/>
<path d="M17015 31139 c-4 -6 -5 -13 -2 -16 7 -7 27 6 27 18 0 12 -17 12 -25
-2z"/>
<path d="M18413 31138 c2 -7 16 -13 32 -13 16 0 30 6 33 13 2 8 -8 12 -33 12
-25 0 -35 -4 -32 -12z"/>
<path d="M22156 31127 c-36 -18 -37 -21 -21 -33 15 -11 22 -9 51 14 56 45 40
55 -30 19z"/>
<path d="M22525 31140 c4 -6 11 -8 16 -5 14 9 11 15 -7 15 -8 0 -12 -5 -9 -10z"/>
<path d="M18227 31133 c-7 -6 57 -33 81 -33 27 0 10 20 -25 29 -45 13 -48 13
-56 4z"/>
<path d="M20600 31126 c0 -20 16 -29 41 -21 16 5 18 10 8 21 -15 18 -49 18
-49 0z"/>
<path d="M20685 31120 c3 -5 17 -10 30 -10 13 0 27 5 30 10 4 6 -8 10 -30 10
-22 0 -34 -4 -30 -10z"/>
<path d="M21000 31120 c0 -5 7 -10 15 -10 8 0 15 5 15 10 0 6 -7 10 -15 10 -8
0 -15 -4 -15 -10z"/>
<path d="M22754 31109 c-10 -17 13 -36 27 -22 12 12 4 33 -11 33 -5 0 -12 -5
-16 -11z"/>
<path d="M17785 31090 c-3 -6 1 -13 10 -16 19 -8 30 0 20 15 -8 14 -22 14 -30
1z"/>
<path d="M19233 31089 c14 -8 22 -8 30 0 8 8 3 11 -18 11 -26 -1 -28 -2 -12
-11z"/>
<path d="M21230 31085 c-7 -9 -10 -18 -7 -21 10 -11 37 5 37 21 0 19 -14 19
-30 0z"/>
<path d="M22375 31090 c-8 -12 20 -24 35 -15 6 3 8 11 5 16 -8 12 -32 12 -40
-1z"/>
<path d="M22955 31084 l-30 -13 38 -1 c20 0 37 4 37 9 0 17 -14 19 -45 5z"/>
<path d="M22564 31079 c-5 -8 25 -34 49 -43 18 -6 75 28 69 42 -3 9 -113 9
-118 1z"/>
<path d="M23176 31081 c-7 -10 33 -23 46 -15 5 3 6 10 3 15 -8 12 -42 12 -49
0z"/>
<path d="M23465 31080 c-9 -14 -6 -17 20 -22 13 -2 20 3 20 12 0 18 -30 26
-40 10z"/>
<path d="M17698 31073 c7 -3 16 -2 19 1 4 3 -2 6 -13 5 -11 0 -14 -3 -6 -6z"/>
<path d="M19660 31070 c0 -5 5 -10 10 -10 6 0 10 5 10 10 0 6 -4 10 -10 10 -5
0 -10 -4 -10 -10z"/>
<path d="M21992 31058 c5 -15 28 -18 29 -3 0 6 -7 12 -17 13 -10 3 -15 -1 -12
-10z"/>
<path d="M22215 31060 c4 -6 11 -8 16 -5 14 9 11 15 -7 15 -8 0 -12 -5 -9 -10z"/>
<path d="M22840 31060 c0 -5 7 -10 15 -10 8 0 15 5 15 10 0 6 -7 10 -15 10 -8
0 -15 -4 -15 -10z"/>
<path d="M23583 31063 c-14 -5 -18 -33 -5 -33 5 0 17 9 27 20 18 20 8 26 -22
13z"/>
<path d="M16124 31048 c-22 -10 -44 -47 -44 -73 0 -23 19 -18 29 8 5 12 18 31
30 41 35 32 27 45 -15 24z"/>
<path d="M18295 31053 c-16 -3 -34 -9 -40 -15 -7 -7 2 -9 30 -4 22 3 55 6 73
6 17 0 32 5 32 10 0 10 -37 11 -95 3z"/>
<path d="M18575 31050 c-3 -5 -2 -10 4 -10 5 0 13 5 16 10 3 6 2 10 -4 10 -5
0 -13 -4 -16 -10z"/>
<path d="M13320 31043 c-52 -9 -167 -73 -213 -119 -60 -58 -79 -95 -116 -223
-16 -55 -40 -120 -54 -143 -46 -77 -185 -198 -228 -198 -27 0 -25 66 7 208
l26 116 -31 28 c-17 15 -37 25 -45 22 -15 -6 -79 -107 -91 -144 -4 -12 -1 -27
6 -36 9 -11 12 -48 10 -123 -2 -102 -1 -110 22 -136 19 -23 34 -29 79 -33 48
-4 64 0 108 24 29 16 76 56 107 91 31 35 59 63 63 63 4 0 14 -26 23 -58 54
-193 228 -237 437 -110 80 48 101 71 84 88 -8 8 -36 2 -100 -23 -137 -53 -163
-60 -211 -54 -59 6 -86 34 -109 110 -36 120 -10 332 51 412 64 85 166 135 290
142 66 4 86 1 115 -15 84 -46 103 -133 46 -212 -63 -87 -153 -115 -270 -85
-57 14 -70 15 -81 4 -50 -54 -12 -100 99 -119 41 -7 91 -9 111 -6 96 18 207
93 256 173 29 47 31 133 4 188 -30 62 -112 139 -169 158 -47 16 -163 21 -226
10z"/>
<path d="M12104 31009 c-112 -58 -142 -104 -168 -254 -11 -68 -11 -97 1 -190
14 -111 33 -187 56 -216 19 -25 92 -59 141 -65 52 -8 135 10 191 40 59 32 142
94 149 112 5 13 0 15 -36 9 -24 -4 -70 -18 -103 -30 -86 -34 -144 -47 -194
-43 -57 4 -77 31 -91 122 -12 76 -5 96 36 96 48 0 119 45 201 127 85 84 133
161 133 211 0 60 -93 112 -200 112 -45 0 -71 -7 -116 -31z m212 -73 c19 -14
19 -15 -1 -52 -20 -37 -161 -162 -213 -190 -47 -24 -62 -19 -62 24 0 56 26
135 52 159 65 60 181 90 224 59z"/>
<path d="M16180 31014 c-13 -34 -13 -41 4 -47 18 -7 32 9 41 46 6 23 4 27 -14
27 -14 0 -25 -9 -31 -26z"/>
<path d="M22270 31016 c0 -17 27 -29 35 -16 4 6 3 15 0 20 -9 15 -35 12 -35
-4z"/>
<path d="M17095 31010 c-88 -8 -172 -28 -181 -41 -3 -5 -16 -9 -30 -9 -14 0
-54 -13 -89 -30 -35 -16 -67 -30 -71 -30 -17 0 -182 -117 -225 -160 -78 -78
-75 -115 14 -215 52 -59 107 -82 212 -89 142 -9 276 -27 347 -45 94 -25 207
-75 215 -97 15 -39 -153 -159 -325 -231 -120 -51 -152 -54 -152 -14 0 28 -32
44 -55 27 -14 -10 -17 -22 -12 -57 8 -61 53 -99 116 -99 46 0 221 60 252 87 8
7 23 13 31 13 9 0 39 16 68 35 29 19 55 35 59 35 8 0 69 63 99 104 44 59 23
138 -54 200 -102 83 -241 124 -494 146 -299 25 -335 49 -212 143 91 69 245
146 367 185 72 22 233 22 268 -1 24 -15 26 -21 20 -67 -4 -33 -2 -50 5 -50 21
0 33 41 35 114 2 132 -40 162 -208 146z m-224 -130 c-24 -21 -61 -27 -61 -11
0 10 45 29 70 30 10 0 7 -6 -9 -19z m-341 -230 c0 -5 -4 -10 -10 -10 -5 0 -10
5 -10 10 0 6 5 10 10 10 6 0 10 -4 10 -10z m603 -577 c-7 -2 -19 -2 -25 0 -7
3 -2 5 12 5 14 0 19 -2 13 -5z"/>
<path d="M21246 30954 c-9 -33 0 -42 20 -23 8 9 12 23 8 32 -9 25 -21 21 -28
-9z"/>
<path d="M18770 30951 c-7 -14 -7 -22 1 -27 12 -7 29 12 29 34 0 19 -18 14
-30 -7z"/>
<path d="M16113 30933 c-23 -9 -15 -35 10 -31 12 2 22 9 22 17 0 16 -14 22
-32 14z"/>
<path d="M16233 30925 c-3 -9 -3 -18 0 -21 9 -9 27 6 27 22 0 19 -19 18 -27
-1z"/>
<path d="M23593 30889 l-42 -39 34 0 c28 0 37 5 51 31 24 48 4 52 -43 8z"/>
<path d="M20114 30906 c-21 -16 -16 -30 9 -20 16 6 32 34 19 34 -5 0 -17 -6
-28 -14z"/>
<path d="M22825 30901 c-3 -5 0 -13 5 -16 15 -9 60 3 60 15 0 13 -57 13 -65 1z"/>
<path d="M8200 30881 c-5 -11 -10 -53 -10 -93 0 -87 16 -118 60 -118 26 0 31
5 41 42 13 51 5 111 -22 155 -23 37 -53 43 -69 14z"/>
<path d="M8681 30813 c-99 -105 -184 -216 -222 -292 -33 -65 -61 -177 -53
-208 6 -23 49 -43 94 -43 36 0 137 62 180 109 112 125 142 159 164 186 19 23
27 27 36 18 20 -19 40 -329 40 -618 0 -261 -1 -273 -26 -370 -38 -144 -41
-181 -15 -190 56 -17 89 58 116 267 32 236 21 886 -17 1006 -9 31 -50 62 -81
62 -7 0 -74 -65 -148 -145 -124 -134 -201 -205 -221 -205 -16 0 -7 38 22 97
35 70 125 178 233 280 43 39 77 78 77 86 0 22 -34 47 -66 47 -24 0 -45 -16
-113 -87z"/>
<path d="M19370 30865 c-12 -14 -11 -18 1 -26 19 -12 26 -11 35 2 3 6 0 17 -8
25 -13 13 -16 13 -28 -1z"/>
<path d="M21115 30870 c-3 -5 1 -10 9 -10 9 0 16 5 16 10 0 6 -4 10 -9 10 -6
0 -13 -4 -16 -10z"/>
<path d="M16065 30860 c-3 -5 1 -10 9 -10 9 0 16 5 16 10 0 6 -4 10 -9 10 -6
0 -13 -4 -16 -10z"/>
<path d="M18726 30861 c-4 -5 -2 -12 3 -15 5 -4 12 -2 15 3 4 5 2 12 -3 15 -5
4 -12 2 -15 -3z"/>
<path d="M16148 30852 c-27 -12 -57 -57 -77 -119 -10 -32 -22 -66 -26 -75 -5
-13 -2 -18 9 -18 10 0 16 9 16 25 0 33 41 92 90 127 59 43 50 85 -12 60z"/>
<path d="M19980 30840 c-8 -6 -29 -10 -47 -10 -34 0 -51 -16 -36 -31 8 -8 76
17 102 38 11 8 -6 11 -19 3z"/>
<path d="M22000 30837 c-66 -35 -88 -57 -56 -57 18 0 124 49 131 61 9 14 -46
11 -75 -4z"/>
<path d="M22178 30843 c7 -3 16 -2 19 1 4 3 -2 6 -13 5 -11 0 -14 -3 -6 -6z"/>
<path d="M18140 30830 c-13 -8 -12 -10 3 -10 9 0 17 5 17 10 0 12 -1 12 -20 0z"/>
<path d="M18657 30814 c-11 -14 -16 -28 -13 -31 8 -9 46 27 46 44 0 20 -13 15
-33 -13z"/>
<path d="M7920 30805 c-13 -16 -12 -48 12 -297 8 -86 8 -136 -1 -194 -10 -66
-9 -80 4 -101 9 -12 24 -23 35 -23 51 0 73 139 62 392 -7 157 -10 180 -28 205
-24 32 -65 41 -84 18z"/>
<path d="M19800 30809 c0 -5 5 -7 10 -4 6 3 10 8 10 11 0 2 -4 4 -10 4 -5 0
-10 -5 -10 -11z"/>
<path d="M21743 30792 c-50 -32 -53 -42 -13 -42 32 0 70 30 70 55 0 20 -7 18
-57 -13z"/>
<path d="M19559 30782 c-52 -34 -167 -169 -200 -235 -12 -23 -29 -51 -39 -62
-9 -11 -24 -40 -33 -65 -8 -25 -29 -83 -46 -129 -18 -46 -34 -110 -38 -142 -6
-56 -5 -59 20 -68 13 -5 27 -15 29 -22 3 -9 9 -9 26 0 21 11 42 65 42 111 0
42 57 210 96 285 38 72 68 114 167 228 49 55 58 72 53 92 -8 30 -39 33 -77 7z"/>
<path d="M20615 30785 c-220 -60 -336 -191 -337 -378 l0 -77 -64 -51 c-75 -59
-197 -131 -310 -182 -97 -44 -169 -50 -199 -17 -24 26 -15 96 22 168 34 67
157 185 268 257 99 65 142 108 157 157 28 95 -52 124 -97 34 -6 -11 -58 -55
-115 -96 -165 -118 -253 -207 -303 -308 -39 -79 -42 -92 -41 -162 1 -109 21
-133 134 -160 50 -13 121 6 232 60 120 59 214 125 270 190 24 28 49 50 55 50
7 0 20 -15 29 -32 24 -48 123 -168 138 -168 7 0 21 -9 30 -19 20 -22 106 -46
154 -42 36 3 41 -5 15 -24 -26 -19 0 -45 45 -45 21 0 40 -7 47 -16 11 -16 14
-16 43 2 18 10 32 22 32 26 0 4 -25 20 -55 34 -36 18 -55 33 -55 45 0 11 -15
23 -45 34 -24 10 -52 26 -61 36 -9 11 -26 19 -36 19 -51 0 -172 114 -192 180
-19 64 -9 79 57 79 104 -1 374 87 456 148 46 36 63 79 49 129 -15 58 -42 89
-100 118 -60 30 -139 34 -223 11z m224 -116 l33 -20 -23 -25 c-31 -33 -124
-76 -271 -124 -138 -45 -198 -58 -198 -42 0 6 15 29 33 53 34 44 191 146 257
166 60 19 131 15 169 -8z"/>
<path d="M21830 30765 c0 -9 5 -15 11 -13 6 2 11 8 11 13 0 5 -5 11 -11 13 -6
2 -11 -4 -11 -13z"/>
<path d="M23550 30765 c-10 -12 -10 -15 3 -15 8 0 17 7 21 15 3 8 2 15 -3 15
-5 0 -14 -7 -21 -15z"/>
<path d="M16250 30749 c0 -24 23 -21 28 4 2 10 -3 17 -12 17 -10 0 -16 -9 -16
-21z"/>
<path d="M21658 30763 c7 -3 16 -2 19 1 4 3 -2 6 -13 5 -11 0 -14 -3 -6 -6z"/>
<path d="M19865 30750 c-3 -5 -1 -10 4 -10 6 0 11 5 11 10 0 6 -2 10 -4 10 -3
0 -8 -4 -11 -10z"/>
<path d="M18923 30688 c-27 -29 -93 -107 -145 -173 -130 -164 -230 -255 -279
-255 -18 0 -18 1 -1 38 9 20 41 73 69 117 68 103 81 165 37 182 -9 3 -31 -1
-49 -10 -26 -12 -41 -33 -75 -104 -23 -48 -53 -110 -66 -137 -41 -84 -28 -152
34 -182 22 -10 46 -14 65 -10 44 9 156 87 219 154 64 67 188 244 259 370 45
78 4 84 -68 10z"/>
<path d="M23460 30695 c-6 -15 -13 -32 -16 -36 -3 -5 1 -9 9 -9 19 0 41 50 28
63 -7 7 -14 1 -21 -18z"/>
<path d="M17744 30649 c-45 -15 -75 -34 -108 -68 -60 -61 -70 -105 -35 -156
30 -43 56 -45 66 -5 9 33 29 37 27 5 0 -11 -7 -47 -14 -81 -18 -83 -2 -141 56
-202 l43 -44 93 4 c79 3 104 9 163 36 145 68 205 134 205 226 0 81 -16 121
-76 185 -72 78 -152 113 -274 118 -67 3 -98 -1 -146 -18z m251 -114 c172 -45
206 -169 70 -259 -108 -72 -235 -95 -279 -50 -22 22 -20 55 10 165 14 51 27
106 29 122 1 15 3 29 4 32 2 11 110 4 166 -10z m-195 0 c0 -8 -52 -26 -58 -20
-3 2 6 9 19 14 28 11 39 13 39 6z"/>
<path d="M23330 30657 c-28 -14 -40 -47 -17 -47 13 0 36 21 51 48 9 15 -2 15
-34 -1z"/>
<path d="M23290 30530 c0 -5 4 -10 9 -10 6 0 13 5 16 10 3 6 -1 10 -9 10 -9 0
-16 -4 -16 -10z"/>
<path d="M15986 30472 c-3 -6 -1 -14 5 -17 15 -10 25 3 12 16 -7 7 -13 7 -17
1z"/>
<path d="M16090 30429 c0 -11 5 -17 10 -14 6 3 10 13 10 21 0 8 -4 14 -10 14
-5 0 -10 -9 -10 -21z"/>
<path d="M23115 30421 c-6 -11 9 -23 19 -14 9 9 7 23 -3 23 -6 0 -12 -4 -16
-9z"/>
<path d="M15987 30400 c-13 -16 -14 -20 -3 -20 8 0 17 7 20 16 9 25 2 26 -17
4z"/>
<path d="M16024 30226 c-8 -22 3 -33 18 -18 9 9 9 15 0 24 -9 9 -13 7 -18 -6z"/>
<path d="M15956 30203 c-12 -12 -6 -33 9 -33 8 0 15 6 15 14 0 17 -14 28 -24
19z"/>
<path d="M16180 30175 c-10 -11 -10 -19 -2 -27 15 -15 44 -2 40 19 -4 23 -22
27 -38 8z"/>
<path d="M15995 30171 c-3 -5 -1 -12 5 -16 12 -7 30 2 30 16 0 12 -27 12 -35
0z"/>
<path d="M16260 30141 c0 -36 -7 -41 -62 -47 -63 -6 -72 -24 -12 -24 65 0 94
20 94 66 0 19 -4 34 -10 34 -5 0 -10 -13 -10 -29z"/>
<path d="M15800 30141 c-5 -11 -10 -26 -10 -33 0 -7 -9 -19 -20 -26 -11 -7
-20 -18 -20 -26 0 -7 -7 -19 -15 -26 -8 -7 -15 -24 -15 -39 0 -18 -7 -29 -22
-36 -20 -8 -23 -19 -26 -69 -2 -32 -9 -68 -17 -80 -7 -11 -17 -38 -21 -60 -5
-30 -4 -38 7 -34 8 3 14 11 14 19 0 8 11 34 23 58 15 27 21 52 18 67 -4 15 0
30 11 42 33 34 60 77 67 107 4 17 15 38 23 47 8 10 13 24 10 32 -3 8 1 20 9
26 16 14 19 50 4 50 -5 0 -14 -9 -20 -19z"/>
<path d="M16100 30140 c0 -11 6 -20 14 -20 20 0 28 27 10 34 -23 9 -24 8 -24
-14z"/>
<path d="M15869 30101 c-19 -16 -21 -22 -12 -32 10 -10 20 -9 49 4 30 15 34
20 24 32 -17 20 -33 19 -61 -4z"/>
<path d="M15984 30095 c-16 -13 -17 -16 -4 -25 8 -6 28 -8 44 -5 16 3 38 5 50
5 21 1 21 1 -3 20 -28 24 -60 26 -87 5z"/>
<path d="M16303 30083 c4 -3 19 -7 34 -8 16 -2 52 -6 81 -10 33 -5 52 -4 52 2
0 6 -24 13 -52 17 -69 8 -123 8 -115 -1z"/>
<path d="M20872 30083 c-19 -7 -4 -23 24 -23 13 0 24 -4 24 -10 0 -15 26 -12
39 4 10 12 8 17 -8 25 -20 11 -57 13 -79 4z"/>
<path d="M21105 30071 c3 -11 1 -22 -5 -26 -18 -11 -11 -25 15 -25 14 0 29 8
34 19 9 15 6 22 -14 35 -32 21 -38 20 -30 -3z"/>
<path d="M16502 30064 c9 -10 24 -14 33 -10 23 9 9 26 -23 26 -24 0 -25 -1
-10 -16z"/>
<path d="M18993 30073 c-21 -8 -15 -23 8 -23 16 0 20 -5 16 -20 -7 -27 4 -32
52 -24 42 7 57 24 20 24 -31 0 -59 18 -53 35 6 15 -16 19 -43 8z"/>
<path d="M17488 30033 c7 -3 16 -2 19 1 4 3 -2 6 -13 5 -11 0 -14 -3 -6 -6z"/>
<path d="M19196 30012 c3 -15 7 -33 10 -39 4 -15 34 -18 34 -4 0 22 -20 59
-34 64 -13 5 -15 1 -10 -21z"/>
<path d="M19316 30021 c-4 -5 -1 -13 5 -16 6 -4 8 -18 5 -31 -7 -27 18 -35 27
-10 3 8 24 20 46 26 43 11 58 25 40 35 -6 4 -26 -1 -44 -11 -33 -17 -35 -17
-54 0 -11 10 -21 13 -25 7z"/>
<path d="M15860 29994 c-11 -29 -13 -65 -4 -88 11 -28 21 -18 28 27 4 23 9 52
13 65 8 32 -25 29 -37 -4z"/>
<path d="M16395 30010 c-3 -6 2 -13 12 -17 10 -3 23 -8 28 -11 6 -3 1 4 -9 16
-22 25 -23 25 -31 12z"/>
<path d="M18897 30003 c-4 -3 -28 -7 -54 -7 -25 -1 -48 -6 -50 -12 -6 -18 89
-11 117 9 17 11 19 17 9 17 -9 0 -19 -3 -22 -7z"/>
<path d="M18956 29993 c-10 -25 10 -39 23 -15 10 19 6 32 -10 32 -4 0 -10 -8
-13 -17z"/>
<path d="M20860 30000 c0 -5 4 -10 9 -10 6 0 13 5 16 10 3 6 -1 10 -9 10 -9 0
-16 -4 -16 -10z"/>
<path d="M21155 29990 c-3 -5 1 -10 9 -10 9 0 16 5 16 10 0 6 -4 10 -9 10 -6
0 -13 -4 -16 -10z"/>
<path d="M22050 29972 c0 -5 -17 -16 -37 -27 -21 -10 -33 -20 -27 -22 7 -2 27
5 45 16 20 13 42 18 56 15 26 -7 32 10 7 20 -22 8 -44 7 -44 -2z"/>
<path d="M20891 29956 c-16 -19 -4 -24 42 -18 22 2 36 9 34 16 -6 17 -62 19
-76 2z"/>
<path d="M21290 29950 c0 -5 5 -10 10 -10 6 0 10 5 10 10 0 6 -4 10 -10 10 -5
0 -10 -4 -10 -10z"/>
<path d="M21850 29945 c-18 -22 -8 -27 26 -15 23 9 25 13 14 20 -20 13 -26 12
-40 -5z"/>
<path d="M17400 29921 c-19 -17 -30 -30 -24 -31 6 0 17 7 24 15 7 9 29 15 52
15 27 0 38 4 36 13 -9 24 -52 18 -88 -12z"/>
<path d="M19280 29939 c0 -5 5 -7 10 -4 6 3 10 8 10 11 0 2 -4 4 -10 4 -5 0
-10 -5 -10 -11z"/>
<path d="M18720 29913 c0 -7 9 -13 20 -13 10 0 24 -8 29 -17 9 -16 10 -14 11
8 0 22 -5 28 -30 31 -20 3 -30 0 -30 -9z"/>
<path d="M18814 29905 c-9 -23 3 -30 33 -19 33 11 32 28 -2 32 -16 2 -27 -2
-31 -13z"/>
<path d="M15768 29887 c-23 -21 -26 -32 -27 -87 0 -60 -5 -71 -36 -84 -6 -2
-6 -8 1 -16 9 -9 18 -7 39 12 21 18 26 30 24 63 -3 65 0 83 17 99 27 27 10 39
-18 13z"/>
<path d="M20700 29884 l-25 -15 34 3 c19 2 36 9 39 16 5 16 -16 14 -48 -4z"/>
<path d="M20490 29880 c0 -5 4 -10 9 -10 6 0 13 5 16 10 3 6 -1 10 -9 10 -9 0
-16 -4 -16 -10z"/>
<path d="M18693 29828 c2 -7 14 -13 27 -13 13 0 25 6 28 13 2 8 -7 12 -28 12
-21 0 -30 -4 -27 -12z"/>
<path d="M15847 29803 c-13 -12 -7 -43 8 -43 9 0 15 9 15 25 0 24 -10 32 -23
18z"/>
<path d="M19315 29770 c-3 -5 -1 -10 4 -10 6 0 11 5 11 10 0 6 -2 10 -4 10 -3
0 -8 -4 -11 -10z"/>
<path d="M22535 29769 c-4 -6 -4 -13 -1 -16 8 -8 36 5 36 17 0 13 -27 13 -35
-1z"/>
<path d="M20274 29705 c-8 -20 3 -48 16 -40 13 8 13 55 0 55 -6 0 -13 -7 -16
-15z"/>
<path d="M22555 29690 c-3 -5 -2 -10 4 -10 5 0 13 5 16 10 3 6 2 10 -4 10 -5
0 -13 -4 -16 -10z"/>
<path d="M22415 29679 c-4 -6 -4 -13 -1 -16 8 -8 36 5 36 17 0 13 -27 13 -35
-1z"/>
<path d="M22500 29651 c-5 -11 -24 -28 -40 -38 -33 -19 -39 -33 -15 -33 8 0
23 10 33 22 9 12 28 32 41 45 19 18 20 23 8 23 -9 0 -21 -9 -27 -19z"/>
<path d="M18035 29650 c-3 -5 -1 -10 4 -10 6 0 11 5 11 10 0 6 -2 10 -4 10 -3
0 -8 -4 -11 -10z"/>
<path d="M15590 29635 c-7 -9 -10 -18 -7 -21 3 -3 10 4 17 15 13 25 8 27 -10
6z"/>
<path d="M15620 29599 c0 -11 5 -17 10 -14 6 3 10 13 10 21 0 8 -4 14 -10 14
-5 0 -10 -9 -10 -21z"/>
<path d="M22302 29598 c-6 -6 -12 -16 -12 -22 0 -5 -7 -18 -17 -28 -13 -14
-13 -18 -2 -18 20 1 93 53 91 65 -2 15 -45 18 -60 3z"/>
<path d="M15686 29537 c-15 -19 -26 -40 -26 -48 1 -16 70 55 70 71 0 20 -19
10 -44 -23z"/>
<path d="M15572 29498 c-7 -7 -12 -16 -12 -22 0 -5 -7 -18 -17 -28 -15 -17
-15 -18 3 -18 17 0 54 48 54 71 0 13 -14 11 -28 -3z"/>
<path d="M20040 29454 c0 -8 5 -12 10 -9 6 3 10 10 10 16 0 5 -4 9 -10 9 -5 0
-10 -7 -10 -16z"/>
<path d="M22199 29433 c-45 -37 -109 -104 -109 -115 0 -4 6 -8 13 -8 19 0 57
29 57 44 0 27 78 76 122 76 17 0 18 2 8 15 -19 23 -54 18 -91 -12z"/>
<path d="M15486 29408 c-9 -12 -16 -36 -15 -53 l1 -30 10 30 c6 17 17 37 24
46 16 18 18 29 5 29 -6 0 -17 -10 -25 -22z"/>
<path d="M21930 29384 c0 -8 5 -12 10 -9 6 3 10 10 10 16 0 5 -4 9 -10 9 -5 0
-10 -7 -10 -16z"/>
<path d="M15447 29263 c-4 -3 -7 -11 -7 -17 0 -6 5 -5 12 2 6 6 9 14 7 17 -3
3 -9 2 -12 -2z"/>
<path d="M15425 29199 c-16 -30 -16 -30 4 -19 12 6 21 20 21 30 0 28 -7 25
-25 -11z"/>
<path d="M15455 29111 c-6 -5 -25 -13 -43 -18 -30 -7 -32 -10 -19 -27 13 -18
14 -18 38 2 13 12 33 28 44 36 16 12 17 15 5 16 -9 0 -20 -4 -25 -9z"/>
<path d="M16100 29113 c0 -5 4 -15 10 -23 11 -18 25 -7 17 15 -6 15 -27 21
-27 8z"/>
<path d="M16190 29080 c0 -5 7 -10 16 -10 8 0 12 5 9 10 -3 6 -10 10 -16 10
-5 0 -9 -4 -9 -10z"/>
<path d="M15356 29014 c-8 -21 -8 -24 4 -24 5 0 14 9 20 20 8 16 8 20 -4 20
-7 0 -17 -7 -20 -16z"/>
<path d="M15490 28970 c0 -5 5 -10 10 -10 6 0 10 5 10 10 0 6 -4 10 -10 10 -5
0 -10 -4 -10 -10z"/>
<path d="M15308 28906 c-23 -47 -23 -46 12 -46 30 0 37 8 21 26 -5 5 -11 20
-13 33 -3 22 -4 21 -20 -13z"/>
<path d="M15380 28790 c0 -19 3 -21 12 -12 9 9 9 15 0 24 -9 9 -12 7 -12 -12z"/>
<path d="M15500 28795 c0 -8 5 -15 10 -15 6 0 10 7 10 15 0 8 -4 15 -10 15 -5
0 -10 -7 -10 -15z"/>
<path d="M15250 28789 c0 -5 5 -7 10 -4 6 3 10 8 10 11 0 2 -4 4 -10 4 -5 0
-10 -5 -10 -11z"/>
<path d="M15290 28724 c0 -8 5 -12 10 -9 6 4 8 11 5 16 -9 14 -15 11 -15 -7z"/>
<path d="M15280 28614 c0 -9 5 -14 12 -12 18 6 21 28 4 28 -9 0 -16 -7 -16
-16z"/>
<path d="M15715 28399 c-9 -13 13 -30 35 -26 8 1 15 9 15 17 0 18 -40 26 -50
9z"/>
<path d="M15262 27666 c-29 -7 -86 -30 -126 -50 -360 -177 -772 -607 -934
-974 -96 -216 -107 -459 -31 -685 55 -166 203 -387 260 -387 38 0 32 29 -21
102 -143 195 -199 387 -186 633 8 169 46 284 146 452 209 348 689 772 950 839
l62 16 61 -32 c96 -50 109 -2 15 59 -60 40 -115 47 -196 27z"/>
<path d="M21767 27523 c-14 -13 -6 -33 24 -67 24 -28 109 -86 126 -86 2 0 -6
13 -18 30 -13 16 -19 33 -15 37 4 5 18 -5 29 -20 12 -16 41 -48 64 -70 41 -41
99 -130 147 -224 87 -173 128 -451 95 -653 -21 -134 -155 -354 -396 -654 -186
-231 -204 -257 -201 -286 2 -19 10 -26 31 -28 34 -4 54 16 216 213 275 334
387 508 426 660 36 137 19 413 -36 600 -26 85 -93 230 -144 310 -60 94 -181
208 -239 228 -51 18 -98 22 -109 10z"/>
<path d="M7534 27411 c-67 -11 -145 -54 -194 -107 -101 -110 -172 -336 -185
-587 -3 -55 -7 -103 -10 -107 -2 -4 -62 -10 -132 -13 -70 -3 -136 -8 -145 -12
-40 -16 -29 -91 18 -115 20 -11 35 -11 87 0 96 20 158 24 167 10 4 -6 5 -73 3
-148 -7 -198 8 -338 43 -402 38 -69 95 -99 124 -65 10 12 8 22 -12 53 -47 71
-52 102 -53 347 l0 230 269 3 c148 1 273 -1 278 -6 5 -5 -11 -38 -35 -75 -57
-87 -98 -209 -104 -312 -4 -70 -2 -86 19 -125 28 -55 72 -85 144 -100 169 -35
434 135 543 348 12 24 27 42 33 40 6 -2 21 -40 33 -84 34 -128 70 -177 139
-189 45 -9 111 15 111 40 0 16 -8 21 -37 23 -75 6 -118 88 -146 279 -16 107
-15 115 2 187 18 70 18 76 2 100 -20 32 -63 35 -97 7 -20 -16 -24 -30 -29
-107 -6 -97 -29 -160 -97 -264 -91 -137 -205 -227 -351 -275 -61 -19 -88 -15
-130 20 -59 50 -51 125 29 290 81 167 142 211 324 236 44 6 103 16 130 23 49
13 50 14 53 53 3 35 0 41 -25 52 -79 36 -213 22 -330 -36 l-72 -35 -322 13
c-259 10 -322 15 -326 27 -11 26 24 240 54 337 44 143 123 255 178 255 11 0
15 7 13 22 -2 18 4 25 32 35 51 17 153 15 248 -6 79 -17 87 -21 142 -76 53
-53 59 -56 81 -44 32 16 39 28 39 66 0 63 -103 150 -212 179 -66 17 -227 25
-294 15z"/>
<path d="M4489 27256 c-35 -17 -35 -71 0 -265 17 -91 28 -168 25 -173 -3 -4
-31 -15 -62 -24 -114 -33 -272 -117 -272 -144 0 -18 60 -78 90 -90 27 -11 33
-10 67 17 42 32 103 71 146 93 60 30 73 -12 76 -262 1 -82 5 -110 17 -122 28
-29 52 -14 64 40 13 52 12 222 0 308 -7 45 -7 73 -1 79 13 13 274 63 406 79
106 12 155 33 155 68 0 14 -10 21 -37 26 -60 11 -374 -4 -453 -22 -103 -23
-103 -24 -106 171 -4 172 -13 206 -62 223 -21 7 -36 7 -53 -2z"/>
<path d="M13185 27166 c-22 -16 -22 -22 -10 -246 6 -110 3 -200 -10 -370 -10
-124 -19 -297 -19 -385 -1 -139 1 -164 17 -188 15 -23 24 -28 50 -25 28 3 31
6 28 28 -11 68 0 310 24 525 34 304 39 561 12 616 -10 20 -29 41 -43 48 -31
14 -26 14 -49 -3z"/>
<path d="M16057 27149 c-20 -11 -22 -47 -4 -69 24 -32 148 -112 162 -106 9 3
15 19 15 41 0 30 -9 45 -47 85 -50 50 -93 67 -126 49z"/>
<path d="M10059 27078 c-69 -76 -137 -242 -219 -533 -40 -140 -46 -153 -85
-191 -39 -38 -65 -89 -79 -155 -11 -51 -258 -141 -391 -142 -105 -1 -208 63
-241 148 -21 56 -16 135 14 196 49 101 192 207 310 229 45 8 63 7 114 -11 67
-22 91 -19 114 17 41 62 -27 114 -159 122 -131 8 -259 -44 -373 -150 -115
-108 -150 -188 -141 -322 10 -153 62 -237 182 -293 54 -25 70 -28 165 -27 124
0 238 31 334 89 32 19 62 35 67 35 5 0 9 -19 9 -42 0 -58 19 -92 52 -96 35 -4
48 22 81 158 44 179 58 212 103 237 72 40 314 93 424 93 67 0 97 -8 104 -25 3
-8 -8 -62 -25 -122 -44 -163 -35 -259 28 -300 29 -19 114 -13 161 11 48 25
139 113 166 163 79 140 74 316 -11 383 -87 68 -392 69 -467 2 -14 -13 -49 -23
-106 -30 -47 -7 -124 -24 -173 -39 -48 -14 -90 -23 -93 -20 -6 6 87 289 121
370 8 21 36 70 60 110 32 50 45 82 45 107 0 67 -43 80 -91 28z m600 -612 c16
-9 39 -28 51 -43 18 -23 21 -37 17 -79 -6 -59 -24 -98 -77 -169 -43 -59 -122
-107 -141 -88 -18 18 -13 91 12 174 26 86 30 178 9 203 -11 14 -11 19 -1 25
16 10 92 -4 130 -23z"/>
<path d="M24100 27104 c-313 -20 -708 -100 -767 -156 -16 -15 -23 -33 -23 -60
0 -67 71 -125 323 -262 47 -26 67 -43 65 -54 -5 -24 -72 -54 -283 -128 -196
-68 -235 -90 -235 -131 0 -60 43 -100 153 -141 59 -22 131 -63 142 -81 11 -19
-13 -47 -93 -109 -157 -121 -212 -205 -233 -351 -22 -150 69 -351 159 -351 44
0 43 24 -2 89 -74 104 -85 221 -33 334 30 66 75 117 189 214 105 89 132 124
124 159 -11 44 -86 107 -188 156 -53 26 -100 53 -104 59 -12 20 23 37 205 95
97 31 196 67 221 79 145 74 114 143 -125 275 -116 64 -195 123 -195 146 0 46
351 119 672 140 l106 7 -1 -34 c-2 -32 0 -34 28 -32 32 2 85 54 85 84 0 42
-67 61 -190 53z"/>
<path d="M11761 27086 c-28 -33 -25 -171 4 -183 8 -2 28 2 44 10 17 8 39 13
50 10 27 -7 61 30 61 66 0 40 -43 88 -88 101 -49 13 -57 13 -71 -4z"/>
<path d="M2206 27069 c-47 -37 -33 -58 69 -108 140 -68 198 -57 143 26 -16 24
-45 46 -93 69 -38 19 -75 34 -81 34 -6 0 -23 -10 -38 -21z"/>
<path d="M17835 26927 c-13 -20 -14 -33 -6 -68 19 -81 46 -428 35 -439 -6 -6
-44 -19 -84 -31 -132 -36 -178 -76 -150 -128 16 -30 38 -26 135 24 47 25 90
43 96 40 13 -9 11 -73 -6 -190 -21 -143 -20 -195 3 -195 11 0 26 8 35 18 23
25 56 171 64 280 3 51 12 100 19 110 11 15 36 17 251 17 237 0 238 0 241 22 5
35 -33 50 -162 63 -109 12 -205 10 -296 -6 l-36 -6 -11 228 c-10 197 -14 231
-31 253 -27 36 -75 40 -97 8z"/>
<path d="M7386 26864 c-22 -22 -21 -24 19 -24 37 0 49 22 19 34 -21 8 -20 8
-38 -10z"/>
<path d="M3569 26781 c-72 -45 -108 -108 -314 -551 -37 -80 -75 -163 -85 -185
-9 -22 -25 -47 -34 -54 -33 -28 -41 1 -41 149 -1 121 -3 142 -20 159 -23 26
-66 27 -89 2 -28 -30 -29 -78 -7 -227 12 -78 21 -146 21 -152 0 -6 14 -27 31
-47 44 -50 84 -49 133 5 47 52 82 116 192 345 50 104 112 225 137 268 26 43
47 82 47 87 0 18 100 110 119 110 28 0 47 -22 92 -111 98 -196 143 -371 158
-609 6 -105 6 -105 33 -108 43 -5 52 25 52 168 -1 199 -42 374 -133 566 -94
197 -184 254 -292 185z"/>
<path d="M15693 26728 c-31 -35 -50 -77 -89 -200 -77 -245 -72 -417 14 -507
48 -50 98 -64 232 -63 110 1 266 24 284 42 7 7 7 16 0 28 -9 13 -25 17 -75 16
-294 -7 -309 -6 -342 13 -52 30 -67 72 -67 193 0 127 30 252 91 378 22 46 39
91 37 100 -5 27 -60 27 -85 0z"/>
<path d="M12348 26636 c-151 -66 -262 -165 -350 -313 -76 -128 -96 -219 -63
-283 29 -55 151 -58 256 -4 68 34 163 131 209 212 19 34 39 62 43 62 5 0 5
-87 1 -194 -7 -189 -6 -194 15 -215 22 -22 65 -28 77 -10 3 6 8 151 10 323 2
171 6 334 9 363 5 44 3 55 -14 72 -32 32 -100 28 -193 -13z m62 -163 c-7 -21
-23 -58 -36 -83 -69 -136 -239 -290 -321 -290 -58 0 -13 103 112 253 62 75
229 187 249 167 4 -4 3 -25 -4 -47z"/>
<path d="M11545 26577 c-131 -34 -277 -119 -363 -212 -33 -36 -63 -65 -67 -65
-4 0 -21 11 -37 26 -20 16 -40 24 -57 22 -29 -3 -30 -13 -15 -112 4 -29 2 -75
-6 -116 -14 -74 -9 -114 16 -124 34 -13 66 19 123 122 95 174 219 288 360 332
84 26 127 26 141 -1 18 -32 -32 -303 -64 -354 -41 -64 -36 -125 9 -125 71 0
131 140 159 374 15 124 7 182 -28 215 -29 27 -103 35 -171 18z"/>
<path d="M17183 26482 c-26 -33 -83 -102 -126 -154 -83 -103 -249 -268 -268
-268 -18 0 -3 98 26 177 23 61 24 68 10 90 -17 25 -53 30 -87 12 -29 -16 -47
-66 -59 -175 -13 -118 -6 -169 27 -191 22 -14 28 -14 67 1 102 39 262 184 384
349 36 48 69 87 74 87 30 0 22 -180 -16 -328 -32 -124 -31 -156 6 -160 44 -5
64 25 92 138 37 149 50 265 37 342 -5 35 -10 66 -10 70 0 3 -12 20 -26 37 -42
50 -73 43 -131 -27z"/>
<path d="M19813 26505 c-15 -10 -30 -41 -43 -88 -12 -40 -48 -155 -80 -257
-109 -348 -123 -403 -110 -449 13 -50 33 -53 106 -16 69 35 241 232 381 439
74 108 153 196 177 196 25 0 72 -68 108 -154 l33 -81 0 -192 c0 -125 4 -196
11 -203 16 -16 62 5 69 32 45 201 30 369 -51 545 -65 143 -121 176 -218 129
-65 -32 -118 -90 -236 -261 -134 -193 -261 -347 -275 -333 -9 8 166 512 204
585 26 52 27 85 3 106 -23 21 -51 22 -79 2z"/>
<path d="M2231 26084 c-18 -23 -21 -41 -21 -129 0 -96 27 -288 51 -363 12 -35
50 -53 78 -35 19 12 19 54 1 237 -11 100 -11 138 -2 172 19 69 15 90 -19 118
-39 33 -62 33 -88 0z"/>
<path d="M5558 25357 c-21 -17 -23 -56 -5 -79 18 -23 170 -34 187 -13 19 23 4
63 -31 81 -44 22 -129 28 -151 11z"/>
<path d="M16181 25157 c-6 -8 -22 -68 -35 -133 -14 -65 -36 -166 -50 -224 -37
-157 -103 -500 -120 -630 -9 -63 -21 -142 -27 -176 -14 -70 -7 -109 20 -124
50 -26 69 21 101 250 12 80 32 199 46 265 65 313 96 486 123 685 10 79 4 100
-29 100 -10 0 -23 -6 -29 -13z"/>
<path d="M721 25088 c-43 -16 -77 -43 -156 -122 -201 -198 -339 -462 -352
-668 -7 -115 9 -159 83 -228 79 -71 158 -95 319 -95 110 0 130 3 243 38 198
60 307 109 442 195 204 130 286 205 336 307 62 128 25 273 -103 401 -71 70
-167 123 -273 150 -49 13 -93 15 -180 11 -99 -4 -119 -2 -150 14 -47 26 -139
24 -209 -3z m123 -67 c3 -5 -6 -17 -21 -26 -116 -76 -188 -201 -153 -266 17
-31 36 -22 55 28 22 56 83 125 141 159 46 27 178 54 264 54 79 0 182 -25 243
-57 78 -41 170 -139 187 -197 18 -64 8 -144 -25 -200 -94 -160 -434 -363 -725
-432 -36 -8 -110 -15 -165 -15 -176 0 -298 48 -332 129 -20 48 -13 147 17 240
76 236 366 589 487 592 12 0 24 -4 27 -9z"/>
<path d="M12797 25053 c-28 -33 -105 -305 -212 -750 -25 -106 -66 -264 -90
-350 -48 -169 -52 -199 -32 -227 19 -26 68 -18 83 14 18 37 104 355 184 680
66 271 93 365 139 490 11 30 20 69 21 85 0 63 -56 98 -93 58z"/>
<path d="M13711 25016 c-6 -7 -16 -40 -22 -72 -22 -127 -109 -382 -183 -540
l-25 -52 -58 -6 c-113 -14 -287 -47 -300 -58 -7 -6 -13 -26 -13 -44 0 -28 4
-35 27 -40 15 -4 45 -2 67 4 107 31 216 55 221 50 3 -3 -36 -86 -86 -185 -78
-150 -93 -187 -93 -228 -1 -26 4 -50 9 -51 6 -2 24 4 40 14 24 15 54 66 139
233 59 118 113 219 120 226 6 7 54 18 106 24 52 7 101 17 108 22 6 5 12 23 12
39 l0 30 -90 -7 -91 -7 26 56 c14 31 37 82 51 114 41 88 134 378 134 415 0 45
-25 77 -59 77 -16 0 -34 -6 -40 -14z"/>
<path d="M7483 24909 c-35 -13 -43 -41 -43 -146 0 -122 -17 -334 -28 -345 -4
-4 -84 -12 -177 -18 -94 -6 -178 -13 -187 -16 -33 -10 -35 -85 -4 -97 8 -3 74
3 148 15 73 11 149 21 168 21 34 2 35 1 34 -33 0 -19 -15 -118 -32 -220 -17
-102 -35 -218 -38 -257 l-7 -73 26 0 c28 0 53 20 61 48 9 32 35 166 66 341 17
96 35 182 41 192 10 20 44 25 239 35 186 10 224 16 228 37 2 10 -2 25 -10 34
-11 14 -33 15 -178 8 -91 -4 -185 -8 -210 -9 l-45 -1 1 40 c0 22 8 94 17 160
18 123 22 221 11 250 -10 24 -55 44 -81 34z"/>
<path d="M5688 24800 c-46 -25 -80 -68 -123 -159 -90 -188 -125 -336 -125
-531 -1 -181 30 -283 104 -348 52 -45 104 -57 169 -38 77 23 117 51 117 81 0
33 -21 40 -59 21 -16 -9 -50 -16 -75 -16 -58 0 -107 40 -131 108 -29 80 -31
257 -6 385 41 207 123 383 196 422 21 11 44 30 52 41 32 49 -48 71 -119 34z"/>
<path d="M16504 24749 c-12 -21 -22 -134 -12 -152 9 -17 11 -17 36 -1 83 52
108 115 60 148 -26 18 -74 21 -84 5z"/>
<path d="M6639 24665 c-48 -25 -197 -175 -272 -274 -181 -240 -260 -331 -287
-331 -25 0 -23 113 6 253 15 71 10 97 -22 115 -25 14 -64 2 -82 -26 -14 -21
-18 -58 -21 -209 -3 -160 -1 -186 14 -209 15 -23 22 -26 54 -21 49 6 157 75
212 135 25 26 110 133 191 238 80 104 163 205 184 223 l38 34 17 -22 c43 -53
56 -314 25 -505 -27 -166 -9 -217 62 -180 36 19 37 21 38 79 1 33 9 113 18
178 25 182 16 379 -20 466 -35 83 -75 98 -155 56z"/>
<path d="M10805 24626 c-92 -21 -173 -55 -211 -88 -28 -25 -34 -37 -34 -72 0
-76 40 -108 226 -181 159 -62 264 -116 352 -183 77 -58 122 -112 122 -148 0
-29 -77 -114 -144 -158 -71 -47 -196 -96 -254 -99 -44 -2 -47 -1 -64 35 -25
53 -54 66 -82 39 -26 -27 -27 -103 -1 -131 51 -57 286 -19 457 72 78 41 163
123 189 182 17 39 18 52 9 85 -14 53 -62 115 -135 174 -107 85 -166 116 -447
231 -66 27 -118 65 -118 86 0 21 40 49 92 65 70 22 301 32 350 16 40 -13 84
-6 92 15 3 7 -5 26 -18 41 l-24 28 -149 2 c-96 1 -169 -3 -208 -11z"/>
<path d="M9846 24590 c-27 -10 -66 -31 -86 -45 -33 -23 -42 -25 -61 -15 -38
21 -150 7 -216 -26 -76 -39 -212 -175 -290 -290 -61 -93 -136 -264 -149 -340
-7 -49 11 -74 50 -67 36 7 48 25 68 106 51 202 239 463 387 539 38 19 96 24
106 8 3 -5 -6 -32 -21 -59 -41 -79 -50 -158 -31 -270 34 -203 143 -272 428
-273 212 0 374 35 515 111 61 33 69 41 76 76 5 21 6 40 4 42 -2 3 -51 -18
-108 -46 -157 -77 -229 -93 -433 -95 -180 -1 -226 6 -285 46 -47 32 -71 68
-77 115 l-5 41 58 7 c33 4 86 19 119 34 118 54 306 216 321 277 10 41 -15 75
-82 109 -51 26 -72 30 -149 33 -70 1 -101 -2 -139 -18z m207 -73 c18 -8 39
-22 47 -32 14 -16 10 -22 -48 -75 -71 -65 -195 -154 -244 -174 -18 -8 -48 -11
-67 -9 -33 6 -33 6 -29 54 10 101 86 203 177 235 47 17 124 17 164 1z"/>
<path d="M11642 24483 c-7 -3 -19 -17 -27 -32 -21 -41 -85 -304 -92 -377 -12
-124 30 -208 125 -252 49 -22 63 -24 131 -18 156 13 284 112 378 293 28 54 58
123 67 153 9 30 22 76 30 101 13 41 13 49 0 68 -26 36 -49 9 -127 -147 -40
-81 -86 -167 -101 -191 -64 -101 -186 -191 -258 -191 -42 0 -93 31 -113 69
-32 62 -11 212 54 390 32 88 31 110 -9 131 -20 11 -37 12 -58 3z"/>
<path d="M14461 24351 c-63 -8 -85 -30 -76 -76 10 -52 32 -55 175 -24 71 15
153 22 322 28 125 4 230 10 234 14 4 4 3 20 -2 35 l-9 27 -295 1 c-162 1 -319
-2 -349 -5z"/>
<path d="M16547 24139 c-23 -13 -44 -62 -174 -389 -103 -262 -198 -467 -251
-545 -16 -22 -42 -49 -60 -60 -36 -23 -40 -45 -14 -68 25 -23 64 -21 95 3 27
22 112 159 171 277 39 77 103 227 182 421 58 142 98 228 119 252 8 8 16 27 20
41 11 45 -48 91 -88 68z"/>
<path d="M14955 24110 c-60 -12 -342 -30 -474 -30 -128 0 -161 -11 -161 -54 0
-38 23 -49 87 -42 32 3 132 11 223 16 193 12 356 29 388 41 19 7 23 15 20 41
-3 37 -17 41 -83 28z"/>
<path d="M17812 22554 c-12 -8 -22 -19 -22 -25 0 -5 26 -35 58 -67 171 -169
241 -515 171 -854 -38 -191 -73 -253 -324 -578 -192 -249 -313 -431 -395 -591
-77 -151 -94 -197 -79 -215 33 -39 81 10 160 161 89 172 190 320 382 560 197
247 249 322 293 424 67 155 89 296 81 521 -6 187 -36 318 -102 456 -45 94
-117 184 -166 209 -34 18 -30 18 -57 -1z"/>
<path d="M844 22516 c-24 -20 -29 -34 -35 -97 -4 -41 -8 -155 -8 -254 -1 -202
14 -290 84 -499 42 -127 59 -162 83 -175 45 -24 58 33 29 126 -37 118 -78 284
-87 353 -12 94 -12 262 0 360 23 186 24 192 9 201 -23 15 -47 10 -75 -15z"/>
<path d="M7977 22400 c-32 -26 -38 -46 -197 -645 -28 -104 -66 -244 -85 -310
-68 -237 -89 -351 -73 -396 5 -15 24 -35 43 -45 33 -18 34 -18 72 8 38 25 80
74 215 248 120 155 306 347 368 380 42 22 48 -25 54 -437 3 -166 9 -280 16
-293 16 -30 46 -43 70 -30 19 10 20 21 20 308 0 437 -12 514 -85 549 -31 15
-37 15 -79 -1 -124 -47 -298 -219 -520 -510 -96 -127 -95 -124 24 324 73 274
139 501 192 658 41 124 49 159 42 180 -12 34 -43 39 -77 12z"/>
<path d="M19476 22405 c-37 -8 -79 -21 -92 -30 -43 -28 -44 -97 -3 -181 19
-41 49 -73 209 -223 53 -49 54 -52 35 -66 -10 -8 -55 -30 -100 -47 -120 -49
-325 -153 -363 -185 -58 -49 -60 -127 -7 -218 13 -22 58 -73 99 -113 42 -40
76 -79 76 -87 0 -8 -25 -45 -56 -81 -31 -36 -62 -78 -70 -93 -30 -56 -6 -262
40 -350 20 -38 28 -46 52 -46 25 0 30 4 32 29 2 16 -3 55 -11 85 -42 155 -32
224 48 323 29 37 56 81 60 97 11 50 -26 114 -119 206 -151 150 -137 177 159
309 274 123 273 122 254 191 -9 31 -38 66 -134 160 -138 135 -160 164 -151
199 8 34 79 47 234 45 141 -2 162 6 145 58 l-10 28 -129 2 c-77 1 -157 -4
-198 -12z"/>
<path d="M9250 22307 c-22 -11 -25 -20 -28 -69 -3 -64 12 -88 58 -88 22 0 33
7 45 30 21 41 19 96 -5 120 -23 23 -36 24 -70 7z"/>
<path d="M12095 22309 c-130 -19 -219 -72 -346 -207 -165 -176 -299 -448 -414
-841 -50 -171 -69 -316 -61 -464 17 -313 128 -622 258 -721 54 -41 93 -47 103
-15 10 30 -9 60 -67 105 -106 83 -182 323 -194 619 -7 161 10 281 67 479 101
350 239 616 409 788 110 112 181 148 312 159 49 4 95 13 103 19 21 17 19 46
-5 70 -22 22 -60 24 -165 9z"/>
<path d="M17345 22190 c-4 -6 -4 -43 0 -83 5 -49 0 -131 -15 -257 -37 -323
-80 -673 -90 -730 -5 -30 -21 -125 -35 -210 -29 -174 -53 -270 -97 -380 -56
-142 -68 -175 -68 -192 0 -21 44 -52 63 -45 16 6 130 294 157 397 11 41 31
142 45 224 19 109 34 166 57 214 29 61 30 66 14 78 -22 15 -17 50 6 46 20 -3
42 33 34 54 -3 8 -14 14 -23 12 -11 -2 -18 3 -18 12 0 8 9 15 20 15 11 0 20 7
20 15 0 9 -7 14 -17 12 -11 -2 -18 3 -18 13 0 8 9 15 20 15 24 0 26 16 3 28
-19 11 -20 4 31 379 39 285 38 341 -4 375 -24 20 -75 24 -85 8z"/>
<path d="M9525 21988 c-20 -16 -25 -26 -20 -45 5 -21 -28 -279 -71 -558 -14
-90 -40 -211 -79 -365 -20 -76 -55 -260 -55 -287 0 -30 26 -53 60 -53 34 0 40
14 40 90 0 37 15 117 40 212 70 267 88 349 130 589 22 129 45 264 52 301 11
63 11 70 -8 94 -29 40 -58 47 -89 22z"/>
<path d="M6009 21960 c-35 -21 -50 -65 -76 -223 -21 -133 -26 -197 -27 -362
-1 -183 1 -206 22 -275 13 -41 35 -92 48 -113 46 -70 147 -96 230 -58 92 42
198 217 270 446 36 116 48 144 58 134 3 -3 10 -56 16 -119 18 -189 57 -323
113 -386 16 -20 53 -47 81 -62 43 -22 64 -26 131 -27 97 0 148 21 220 93 127
124 192 286 230 573 19 144 19 210 1 235 -13 17 -16 17 -29 4 -19 -20 -43 -99
-56 -190 -38 -247 -101 -413 -205 -536 -73 -87 -208 -121 -267 -68 -71 64
-120 273 -138 585 -7 120 -11 144 -27 156 -28 20 -60 16 -82 -12 -23 -28 -24
-32 -91 -238 -107 -329 -235 -538 -323 -525 -28 4 -64 56 -86 127 -26 85 -23
392 6 566 23 137 31 172 53 219 12 26 11 30 -10 47 -26 21 -38 23 -62 9z"/>
<path d="M14528 21779 c-44 -25 -1 -104 72 -133 69 -27 215 -37 535 -35 298 2
320 1 560 -30 272 -35 346 -49 352 -68 8 -22 -84 -107 -184 -171 -54 -35 -168
-107 -253 -159 -310 -192 -628 -448 -646 -520 -16 -60 54 -72 107 -17 32 34
98 86 334 264 55 42 181 125 280 184 386 233 413 253 450 331 42 91 30 146
-39 179 -117 55 -609 113 -1041 122 -298 6 -381 14 -446 44 -50 22 -57 23 -81
9z"/>
<path d="M8975 21626 c-15 -11 -20 -34 -27 -132 -10 -142 -40 -324 -73 -452
-14 -52 -25 -104 -25 -117 0 -42 44 -68 78 -47 6 5 26 64 42 133 17 68 34 140
39 159 15 54 39 196 51 292 6 48 13 94 16 103 7 17 -46 75 -68 75 -8 0 -22 -6
-33 -14z"/>
<path d="M10163 21510 c-63 -22 -98 -46 -146 -99 -52 -57 -76 -110 -95 -209
-16 -83 -18 -87 -42 -83 -14 1 -42 12 -63 23 -59 30 -108 4 -86 -45 14 -30 57
-53 117 -63 50 -8 57 -19 65 -99 8 -82 64 -192 132 -260 38 -37 84 -69 151
-102 97 -48 97 -48 198 -47 127 0 173 9 187 36 9 16 7 26 -9 47 -25 34 -81 44
-140 23 -83 -28 -237 18 -323 95 -50 46 -91 146 -93 233 l-1 64 83 21 c120 31
299 123 365 188 93 91 97 168 13 232 -84 64 -211 82 -313 45z m227 -94 c88
-32 14 -121 -181 -219 -63 -32 -131 -60 -151 -64 -36 -5 -38 -4 -38 20 0 77
82 207 154 244 67 35 152 42 216 19z"/>
<path d="M13159 21516 c-76 -21 -145 -65 -234 -149 -100 -93 -189 -209 -314
-407 -102 -163 -136 -208 -147 -197 -8 7 5 128 31 297 18 116 20 241 3 258
-16 16 -60 15 -84 -2 -17 -13 -19 -28 -20 -158 -1 -89 -7 -173 -18 -223 -9
-44 -16 -116 -16 -161 0 -75 2 -82 28 -107 37 -36 78 -35 130 3 48 35 90 90
197 260 118 188 167 251 262 340 88 82 201 150 250 150 19 0 28 -9 43 -42 23
-53 50 -270 50 -408 1 -220 27 -310 88 -310 53 0 58 11 40 87 -12 46 -19 129
-22 258 -7 300 -45 460 -118 505 -37 22 -81 24 -149 6z"/>
<path d="M1065 19940 c-84 -12 -210 -45 -307 -81 -139 -51 -369 -186 -376
-221 -4 -19 35 -68 55 -68 8 0 40 19 71 43 131 98 220 141 415 198 190 56 391
49 433 -16 22 -33 15 -89 -21 -180 -47 -118 -115 -214 -310 -436 -219 -249
-332 -402 -342 -462 -12 -78 115 -177 227 -177 68 0 225 21 419 55 237 42 346
55 533 65 181 10 228 19 228 44 0 22 -34 28 -195 33 -168 6 -369 -11 -630 -52
-215 -34 -319 -41 -383 -25 -57 13 -102 43 -102 67 0 18 140 207 221 299 298
336 398 480 443 633 20 69 20 96 0 154 -18 54 -66 98 -124 116 -53 16 -182 22
-255 11z"/>
<path d="M14753 19678 c-44 -48 -179 -345 -233 -511 -91 -282 -152 -691 -118
-792 10 -31 19 -41 39 -43 14 -2 30 3 36 10 5 7 15 85 21 173 13 179 42 330
101 527 71 237 117 348 207 504 30 52 54 100 54 107 0 21 -34 47 -62 47 -13 0
-34 -10 -45 -22z"/>
<path d="M15888 19680 c-56 -33 -291 -514 -343 -701 l-16 -57 -77 -11 c-131
-19 -316 -63 -334 -79 -21 -17 -23 -53 -6 -70 20 -20 66 -13 223 32 82 25 154
42 158 39 5 -3 5 -12 2 -22 -32 -81 -76 -258 -89 -353 -22 -154 -13 -187 42
-167 30 11 47 56 61 159 10 80 68 310 92 371 14 35 65 43 214 34 96 -6 113 -5
125 9 11 15 11 20 -8 38 -26 26 -95 37 -189 31 -101 -8 -106 -5 -83 54 77 202
173 396 273 552 l61 94 -32 28 c-34 31 -47 34 -74 19z"/>
<path d="M17328 19390 c-21 -16 -26 -31 -32 -86 -4 -36 -24 -157 -46 -267 -21
-111 -42 -230 -46 -265 -7 -66 -22 -92 -53 -92 -30 0 -21 -14 -211 335 -112
206 -193 282 -256 240 -39 -25 -26 -64 44 -139 32 -35 80 -100 107 -147 27
-46 76 -126 109 -178 34 -51 60 -96 59 -100 -2 -3 -46 -8 -99 -11 -74 -4 -99
-9 -107 -21 -12 -19 -2 -65 16 -72 7 -3 69 -1 138 4 122 10 124 9 139 -13 8
-12 27 -36 43 -53 45 -49 33 -70 -131 -244 -150 -158 -182 -186 -241 -216 -33
-17 -36 -17 -67 0 -47 25 -68 14 -61 -32 4 -20 11 -41 17 -47 19 -19 126 -10
177 15 52 25 161 125 238 218 68 81 79 80 73 -10 -4 -52 -10 -74 -22 -81 -16
-9 -21 -43 -10 -72 9 -25 76 -21 100 5 16 18 19 40 22 163 2 77 8 145 13 150
5 6 42 -23 92 -71 99 -95 148 -129 198 -138 27 -5 40 -2 52 10 26 25 20 45
-17 60 -59 25 -266 200 -265 225 0 8 30 47 66 85 l66 70 266 0 c232 0 266 2
269 15 2 10 -12 23 -35 35 -30 14 -77 20 -225 28 -104 6 -188 14 -188 18 0 4
30 41 68 81 37 40 87 98 111 128 25 30 71 83 103 117 32 34 58 70 58 80 0 35
-29 63 -65 63 -36 0 -46 -10 -145 -139 -86 -114 -230 -293 -259 -324 -20 -22
-33 -27 -61 -25 -28 2 -35 7 -34 23 1 11 34 153 74 315 50 201 71 304 66 323
-3 15 -19 33 -36 42 -37 19 -42 19 -72 -5z m-33 -800 c-10 -11 -22 -20 -27
-20 -15 0 -8 39 10 49 26 15 39 -5 17 -29z"/>
<path d="M20692 19098 c-17 -22 -105 -343 -202 -741 l-93 -377 23 -25 c42 -45
64 -35 175 78 104 105 215 261 322 452 28 50 72 128 98 175 89 159 152 220
227 220 31 0 82 -40 103 -79 27 -53 55 -189 55 -268 0 -105 -20 -178 -82 -299
-40 -79 -50 -106 -44 -128 5 -22 11 -27 34 -24 56 6 163 229 182 379 24 197
-44 419 -153 499 -68 50 -159 38 -238 -32 -51 -45 -99 -116 -207 -309 -120
-215 -199 -336 -292 -446 -61 -74 -98 -95 -86 -50 136 522 171 651 227 831
l34 108 -28 24 c-32 27 -40 29 -55 12z"/>
<path d="M12191 19079 c-157 -31 -302 -108 -347 -185 -22 -37 -26 -54 -22 -98
5 -64 33 -107 97 -148 42 -27 86 -42 321 -112 47 -14 114 -42 149 -63 83 -49
185 -148 211 -204 60 -133 -20 -271 -214 -367 -142 -71 -280 -91 -397 -56 -72
22 -111 64 -133 146 -28 98 -55 116 -82 53 -28 -68 12 -176 85 -232 62 -48
138 -67 251 -65 123 2 230 29 349 89 176 88 264 200 265 333 0 97 -35 165
-133 260 -101 98 -193 149 -351 195 -246 72 -310 111 -310 187 0 123 212 212
435 183 53 -6 62 -5 78 13 24 26 16 39 -37 63 -44 20 -136 24 -215 8z"/>
<path d="M11035 19016 c-98 -23 -183 -55 -295 -112 -129 -66 -227 -139 -282
-210 -24 -30 -46 -54 -50 -54 -4 0 -62 29 -130 63 -160 82 -235 101 -376 95
-190 -9 -377 -89 -455 -195 -76 -104 -129 -238 -151 -388 -23 -149 -40 -478
-27 -503 16 -30 47 -27 80 6 l28 28 6 219 c6 244 20 342 68 463 60 151 118
207 259 253 132 43 259 50 359 20 96 -29 301 -130 301 -148 0 -7 -6 -29 -14
-48 -56 -133 -11 -303 109 -413 99 -90 229 -144 385 -158 155 -13 466 35 603
95 41 18 47 24 47 51 0 37 -10 38 -110 6 -130 -41 -261 -59 -435 -60 -104 0
-175 4 -204 12 -191 57 -311 192 -311 350 0 60 15 128 29 137 5 2 45 0 90 -7
130 -18 274 18 474 118 150 76 294 189 312 244 12 37 -13 75 -70 109 -65 40
-146 49 -240 27z m174 -79 c45 -23 49 -43 16 -78 -72 -75 -322 -210 -455 -244
-76 -20 -197 -31 -234 -21 -35 9 -33 29 10 76 58 64 148 126 268 186 166 82
329 115 395 81z"/>
<path d="M22697 18952 c-31 -32 -37 -86 -11 -96 20 -8 134 12 152 26 20 17 14
55 -14 77 -39 31 -94 28 -127 -7z"/>
<path d="M18915 18884 c-36 -4 -287 -47 -342 -59 -32 -7 -53 -33 -53 -65 0
-56 49 -58 214 -9 145 43 228 52 536 55 162 1 301 3 308 3 27 2 11 38 -25 56
-34 17 -67 19 -318 21 -154 1 -298 0 -320 -2z"/>
<path d="M13253 18785 c-26 -18 -45 -77 -74 -230 -24 -125 -23 -260 4 -310 33
-65 96 -105 192 -125 155 -32 339 44 466 193 74 86 171 254 173 300 2 63 -48
39 -110 -53 -120 -180 -224 -285 -331 -332 -58 -26 -154 -28 -199 -5 -88 46
-113 121 -88 269 9 51 27 123 40 159 30 84 30 103 -2 128 -32 25 -43 26 -71 6z"/>
<path d="M19040 18589 c-80 -5 -226 -18 -326 -29 -99 -11 -197 -20 -217 -20
-84 0 -135 -47 -107 -99 13 -26 65 -28 149 -7 113 30 291 55 491 71 202 16
250 24 250 45 0 13 -61 50 -80 49 -8 -1 -80 -6 -160 -10z"/>
<path d="M22685 18266 c-10 -14 -20 -52 -25 -83 -4 -32 -20 -92 -37 -133 -36
-89 -143 -414 -143 -433 0 -17 37 -57 54 -57 17 0 26 21 102 237 35 100 74
206 88 235 13 29 32 86 42 127 15 66 16 77 3 100 -21 37 -63 40 -84 7z"/>
<path d="M22440 17340 c20 -13 80 -13 80 0 0 6 -21 10 -47 10 -35 0 -44 -3
-33 -10z"/>
<path d="M1700 16824 c-390 -20 -635 -72 -852 -180 l-68 -34 0 -44 c0 -73 18
-78 108 -29 43 23 115 56 162 73 276 102 857 141 1190 79 78 -15 90 -19 90
-32 0 -25 -183 -128 -395 -223 -425 -192 -445 -204 -445 -271 0 -51 30 -96 82
-126 48 -28 70 -33 288 -77 211 -42 328 -73 464 -121 122 -43 158 -68 136 -94
-34 -41 -234 -158 -447 -261 -544 -264 -792 -394 -850 -446 -32 -29 -19 -48
33 -48 35 0 77 17 216 88 187 94 340 167 513 245 328 147 496 240 575 319 43
44 90 117 90 142 0 29 -83 103 -148 132 -135 61 -293 106 -567 163 -197 40
-269 63 -263 82 5 16 50 39 228 115 313 134 458 215 548 305 68 67 88 104 71
125 -35 42 -180 86 -339 103 -112 12 -328 19 -420 15z"/>
<path d="M10115 15947 c-9 -14 -19 -66 -25 -123 -10 -106 -49 -304 -80 -407
-40 -134 -36 -157 27 -157 67 0 102 32 315 292 89 110 170 184 273 250 85 56
99 57 142 17 85 -82 185 -236 232 -358 16 -42 38 -122 49 -179 21 -106 33
-132 61 -132 48 0 53 70 16 213 -33 129 -89 254 -160 361 -149 224 -243 253
-424 132 -106 -71 -214 -177 -322 -317 -50 -65 -95 -117 -99 -114 -4 3 10 67
31 142 23 79 44 184 51 245 12 107 12 108 -12 133 -29 31 -55 32 -75 2z"/>
<path d="M15499 15780 l-24 -19 21 -37 c26 -47 68 -73 92 -58 26 17 27 75 2
107 -25 32 -58 35 -91 7z"/>
<path d="M11864 15716 c-38 -17 -46 -35 -30 -67 23 -48 66 -58 246 -59 91 0
255 -7 365 -15 375 -27 540 -36 630 -33 83 3 90 5 93 24 6 42 -18 45 -613 99
-593 53 -629 56 -645 60 -8 2 -29 -2 -46 -9z"/>
<path d="M13813 15670 c-31 -13 -46 -45 -33 -70 26 -48 22 -48 575 -45 543 2
595 6 631 46 16 18 15 19 -12 30 -17 6 -181 16 -399 24 -611 22 -739 24 -762
15z"/>
<path d="M15472 15213 c-22 -9 -32 -39 -63 -190 -49 -242 -73 -322 -137 -472
-43 -99 -44 -131 -2 -131 46 0 102 110 200 400 35 102 74 216 87 253 24 71 23
97 -5 130 -14 16 -52 21 -80 10z"/>
<path d="M9776 14440 c-16 -10 -97 -78 -180 -152 -83 -73 -218 -190 -301 -258
-82 -69 -181 -154 -220 -189 -95 -87 -429 -425 -700 -707 -190 -199 -227 -242
-262 -310 -48 -93 -95 -236 -86 -261 11 -33 36 -53 64 -53 35 0 42 12 68 119
34 138 75 201 239 373 81 85 265 280 409 434 254 273 343 358 663 629 85 72
185 158 224 193 39 34 101 83 139 108 37 24 67 50 67 57 0 39 -74 49 -124 17z"/>
<path d="M739 14406 c-43 -30 -136 -150 -175 -226 -23 -45 -28 -72 -32 -145
-5 -111 17 -179 78 -243 55 -57 116 -86 240 -114 94 -20 130 -23 335 -23 142
0 267 5 328 14 54 7 100 11 103 8 3 -3 -12 -63 -35 -134 -78 -247 -213 -929
-194 -979 15 -40 67 7 82 75 5 25 22 100 36 166 45 213 109 488 135 580 10 39
30 111 44 162 40 145 46 155 109 186 31 15 59 32 63 38 10 16 -16 29 -47 22
-15 -3 -29 -1 -33 5 -6 11 54 157 112 271 41 81 102 149 160 176 42 19 109 94
118 132 8 32 -8 43 -62 43 -42 0 -95 -28 -140 -74 -93 -95 -210 -303 -270
-481 -20 -61 -35 -89 -49 -95 -38 -14 -353 -20 -502 -10 -297 21 -451 71 -500
163 -29 53 -24 160 10 225 35 66 90 128 136 152 49 25 104 84 99 106 -3 15
-14 20 -58 22 -45 2 -62 -2 -91 -22z"/>
<path d="M6439 14404 c-18 -22 -3 -42 61 -81 75 -46 188 -91 294 -118 116 -30
124 -33 131 -55 13 -40 -40 -102 -180 -212 -86 -68 -181 -167 -195 -203 -28
-73 83 -143 320 -201 80 -20 151 -41 158 -47 32 -26 -4 -105 -115 -254 -83
-111 -117 -183 -109 -226 4 -17 25 -60 49 -96 40 -62 42 -69 41 -136 -2 -124
-94 -353 -190 -471 -51 -62 -51 -86 -1 -92 31 -4 51 17 118 118 123 185 197
406 175 522 -3 19 -27 67 -52 107 -57 89 -56 95 39 221 98 131 147 227 147
291 0 80 -36 104 -211 143 -171 39 -224 56 -253 83 -21 19 -24 28 -16 43 5 10
63 61 127 113 136 109 205 180 227 232 43 102 2 148 -171 190 -115 28 -206 64
-284 111 -62 37 -90 42 -110 18z"/>
<path d="M10737 14356 c-92 -55 -417 -294 -532 -391 -27 -23 -126 -100 -220
-170 -468 -353 -897 -724 -1070 -925 -47 -55 -106 -116 -130 -137 -30 -25 -45
-45 -45 -61 0 -52 44 -91 80 -72 11 6 85 86 163 178 141 164 216 237 487 478
175 155 602 509 789 654 32 25 114 88 182 141 68 53 180 136 249 184 69 48
135 97 148 108 60 55 -14 65 -101 13z"/>
<path d="M17964 13992 c-34 -21 -174 -494 -248 -837 -59 -273 -86 -572 -70
-776 6 -78 11 -96 30 -116 56 -56 70 -11 73 237 3 346 13 411 162 1017 11 44
44 155 74 244 30 90 55 176 55 191 0 37 -45 61 -76 40z"/>
<path d="M14187 13658 c-5 -138 -53 -479 -68 -489 -6 -3 -43 -9 -84 -12 -102
-9 -231 -51 -251 -83 -14 -20 -15 -30 -6 -49 14 -31 48 -33 100 -6 51 26 168
61 203 61 38 0 38 1 -11 -255 -44 -231 -56 -281 -70 -290 -18 -11 -11 -64 10
-75 32 -17 57 4 75 63 19 62 79 358 97 477 l13 85 125 -2 c157 -2 460 -24 465
-34 3 -4 -15 -23 -39 -42 -75 -62 -97 -147 -57 -226 23 -44 52 -65 129 -93 82
-29 277 -36 397 -14 167 31 349 102 429 167 37 31 76 117 76 169 0 93 -103
237 -199 279 -176 75 -391 74 -557 -5 -36 -17 -60 -36 -70 -56 -24 -46 -6 -57
54 -34 141 55 177 66 244 72 144 13 294 -33 370 -112 47 -50 81 -126 73 -163
-27 -124 -384 -247 -660 -227 -113 9 -156 20 -194 51 -34 29 -32 47 11 99 39
47 105 80 226 113 86 22 108 25 195 19 106 -8 116 -3 103 49 -5 20 -18 28 -63
41 -67 20 -125 15 -266 -22 -54 -15 -106 -24 -115 -21 -175 53 -328 77 -512
80 -122 2 -145 4 -143 17 2 8 18 100 38 205 33 178 43 293 29 330 -4 8 -19 22
-35 30 -54 29 -56 25 -62 -97z"/>
<path d="M11354 13465 c-102 -18 -173 -40 -314 -98 -124 -50 -260 -119 -334
-169 -66 -45 -157 -139 -177 -182 -84 -184 115 -387 379 -386 218 1 447 77
932 310 269 129 357 167 367 157 15 -16 -135 -235 -312 -457 -153 -191 -413
-471 -511 -550 -95 -76 -204 -131 -268 -133 -61 -3 -100 34 -124 117 -10 33
-23 61 -29 63 -14 5 -43 -47 -43 -75 0 -26 25 -86 57 -133 81 -122 272 -80
493 109 160 137 436 448 649 732 196 261 242 355 201 405 -29 35 -165 -2 -394
-109 -54 -25 -99 -46 -101 -46 -2 0 -69 -32 -149 -70 -223 -108 -542 -208
-717 -226 -171 -17 -328 55 -356 164 -14 58 44 157 132 224 99 75 286 168 440
219 288 95 620 87 703 -17 31 -39 51 -43 77 -14 17 19 18 22 2 55 -22 46 -76
79 -167 104 -60 17 -102 21 -220 20 -80 0 -177 -7 -216 -14z"/>
<path d="M12966 13238 c-22 -12 -20 -41 4 -63 17 -15 31 -17 102 -11 87 7 88
6 25 -36 -98 -66 -287 -249 -372 -361 -35 -47 -40 -114 -11 -146 30 -33 118
-61 194 -61 137 0 376 70 517 151 174 99 245 209 205 315 -36 93 -167 182
-297 202 -92 15 -347 21 -367 10z m410 -94 c65 -18 143 -70 167 -111 16 -28
17 -38 7 -70 -47 -142 -398 -303 -659 -303 -128 0 -127 14 14 168 105 114 177
178 270 239 62 42 66 46 60 74 l-7 31 49 -7 c26 -4 71 -13 99 -21z"/>
<path d="M1460 11723 c-346 -25 -539 -56 -758 -119 -29 -8 -37 -43 -19 -87 25
-60 104 -108 331 -202 218 -91 479 -215 588 -281 184 -111 298 -225 298 -300
0 -36 -146 -180 -256 -253 -232 -153 -696 -324 -1004 -371 -83 -12 -100 -22
-84 -47 34 -53 202 -35 494 54 363 110 602 225 785 376 115 96 165 166 165
234 0 106 -140 253 -380 397 -123 74 -527 272 -653 321 -237 91 -200 105 431
166 76 7 169 8 239 4 101 -6 116 -5 134 11 24 21 25 50 2 63 -43 22 -217 41
-313 34z"/>
<path d="M17563 11264 c-3 -9 4 -44 16 -79 74 -208 68 -565 -18 -1130 -30
-198 -31 -202 -35 -325 -4 -117 3 -160 26 -160 33 1 39 18 49 160 5 79 19 210
30 290 92 655 104 880 59 1089 -17 81 -31 122 -48 143 -26 31 -69 38 -79 12z"/>
<path d="M9118 11173 c-44 -47 -89 -190 -111 -354 -15 -109 -11 -106 -149
-137 -48 -11 -126 -37 -175 -57 -117 -49 -131 -50 -147 -4 -31 87 -134 172
-260 212 -100 31 -277 31 -391 -2 -165 -46 -332 -168 -406 -295 -19 -32 -39
-59 -44 -60 -5 0 -48 45 -95 99 -143 168 -199 219 -265 244 -156 59 -346 32
-511 -71 -168 -104 -306 -355 -306 -553 0 -88 30 -240 61 -310 17 -38 24 -45
48 -45 59 0 65 29 28 137 -39 115 -49 223 -31 313 27 129 123 302 205 368 95
76 252 129 351 118 129 -15 159 -36 306 -212 52 -63 98 -114 102 -114 4 0 24
-16 44 -35 34 -32 36 -37 27 -67 -5 -18 -12 -78 -16 -133 -18 -300 121 -517
364 -571 103 -23 307 -15 413 16 88 25 246 101 288 139 33 29 52 81 29 81 -8
0 -62 -25 -122 -57 -144 -75 -234 -102 -365 -110 -213 -12 -376 58 -446 193
-39 75 -52 128 -54 229 -5 191 -5 190 97 142 133 -62 225 -80 378 -74 246 10
458 107 551 253 29 45 38 53 57 49 13 -4 61 7 112 25 183 63 285 93 291 87 3
-3 -4 -68 -16 -144 -12 -80 -20 -169 -18 -213 3 -69 5 -75 30 -90 21 -11 32
-12 45 -4 15 9 17 23 15 75 -2 35 3 111 12 169 8 58 17 131 21 163 6 51 10 59
33 69 41 15 225 5 255 -15 32 -21 35 -47 21 -202 -22 -246 18 -345 153 -376
55 -12 154 6 226 43 132 66 311 282 433 523 47 92 51 119 19 131 -22 9 -48
-18 -97 -100 -170 -286 -292 -426 -438 -501 -38 -20 -110 -19 -138 1 -54 38
-63 89 -48 305 8 115 7 129 -12 171 -38 87 -141 127 -295 113 -63 -5 -78 -4
-83 8 -9 25 62 277 95 337 36 64 39 95 12 110 -32 17 -56 12 -83 -17z m-893
-408 c105 -28 210 -103 230 -165 22 -70 -40 -160 -152 -218 -135 -70 -207 -87
-363 -86 -124 0 -143 3 -232 32 -128 43 -188 70 -188 86 0 24 76 138 128 191
58 58 198 135 292 159 74 19 212 20 285 1z"/>
<path d="M10906 10996 c-89 -32 -162 -82 -219 -148 -83 -96 -186 -250 -237
-352 -64 -131 -132 -314 -124 -338 9 -31 39 -40 78 -24 32 13 36 21 70 129 41
132 109 271 196 405 112 173 190 235 344 272 110 26 117 70 14 77 -38 3 -72
-3 -122 -21z"/>
<path d="M18479 11010 c-13 -7 -17 -26 -17 -82 -1 -40 -11 -122 -22 -183 -12
-60 -26 -136 -32 -169 -14 -75 -31 -92 -104 -100 -92 -11 -245 -45 -260 -57
-20 -17 -17 -53 6 -74 20 -18 24 -18 153 13 72 18 138 32 145 32 17 0 15 -21
-8 -90 -11 -33 -29 -117 -41 -187 -24 -148 -22 -292 8 -408 16 -63 20 -70 43
-70 l25 0 0 225 c0 216 1 231 32 373 18 82 38 156 45 164 11 14 37 15 203 9
104 -3 242 -11 305 -17 126 -12 192 -6 211 18 11 13 10 18 -10 34 -13 11 -33
19 -45 19 -11 0 -115 9 -231 20 -115 11 -253 20 -306 20 -53 0 -98 3 -102 6
-3 3 1 27 9 52 34 109 84 329 84 369 0 33 -6 50 -25 68 -26 27 -41 30 -66 15z"/>
<path d="M15190 10844 c-95 -26 -109 -54 -62 -120 22 -29 62 -57 163 -113 198
-108 310 -208 363 -321 28 -61 27 -158 -2 -223 -63 -142 -302 -327 -422 -327
-58 0 -87 20 -100 72 -27 99 -46 109 -74 37 -18 -45 -10 -107 19 -139 29 -33
110 -53 179 -46 156 16 408 210 484 375 21 46 24 63 20 132 -7 112 -54 206
-157 309 -87 88 -165 143 -291 206 -141 71 -134 84 46 84 100 0 135 -4 204
-25 93 -28 120 -31 138 -13 60 60 -92 120 -318 125 -97 2 -150 -2 -190 -13z"/>
<path d="M11750 10791 c-14 -4 -39 -15 -55 -24 -41 -21 -212 -198 -319 -329
-91 -111 -122 -138 -155 -138 -27 0 -71 -56 -71 -90 0 -75 76 -61 177 33 36
34 111 118 165 187 117 147 233 268 266 277 14 3 29 0 37 -8 20 -20 35 -167
35 -339 0 -192 20 -260 75 -260 38 0 49 23 37 77 -6 27 -13 140 -16 253 -5
220 -17 286 -59 335 -24 28 -76 39 -117 26z"/>
<path d="M14200 10756 c-82 -22 -166 -91 -205 -166 -9 -17 -19 -30 -23 -30 -4
0 -30 19 -57 42 -178 148 -285 169 -413 81 -66 -45 -139 -152 -221 -324 -120
-250 -138 -319 -91 -334 43 -14 71 15 105 110 90 251 208 466 276 500 67 35
140 11 284 -93 l80 -58 0 -115 c1 -219 56 -340 185 -400 91 -43 141 -53 266
-54 117 0 122 1 162 29 23 16 42 33 42 38 0 5 -22 5 -52 1 -129 -19 -291 6
-374 59 -53 34 -99 102 -114 171 -16 78 -24 193 -13 200 5 3 46 -10 91 -29
106 -46 197 -60 272 -44 112 25 176 77 167 137 -17 104 -136 244 -236 276 -62
20 -70 20 -131 3z m158 -108 c48 -29 112 -124 112 -165 0 -30 -5 -36 -42 -53
-54 -25 -96 -25 -191 -1 -106 28 -177 60 -177 81 0 26 56 103 95 129 65 44
139 47 203 9z"/>
<path d="M16141 10518 c-81 -202 -108 -382 -76 -493 42 -148 152 -276 276
-325 90 -35 193 -35 269 1 77 37 154 110 220 209 59 91 135 261 146 327 6 40
-3 58 -22 45 -12 -9 -74 -112 -109 -182 -83 -166 -199 -301 -287 -335 -107
-40 -230 6 -319 122 -107 139 -119 321 -34 505 40 87 30 148 -26 148 -21 0
-32 -6 -38 -22z"/>
<path d="M19571 10203 c-41 -28 -20 -103 29 -103 36 0 60 23 60 59 0 45 -52
71 -89 44z"/>
<path d="M19351 9671 c-10 -10 -26 -51 -36 -92 -24 -100 -48 -172 -107 -314
-51 -121 -119 -257 -144 -286 -8 -8 -14 -18 -14 -22 0 -28 -205 -300 -252
-335 -41 -30 -9 -70 45 -57 57 15 277 326 391 553 89 178 196 459 196 517 0
54 -42 73 -79 36z"/>
<path d="M1079 9052 c-13 -11 -49 -34 -79 -52 -126 -74 -192 -140 -301 -300
-94 -138 -159 -279 -206 -445 -25 -91 -28 -115 -28 -265 0 -153 2 -171 28
-246 70 -208 270 -404 514 -504 122 -49 197 -63 343 -64 117 0 148 4 234 27
238 66 456 230 456 344 0 126 -112 212 -362 278 -192 50 -389 55 -566 14 -194
-45 -367 -144 -403 -232 -11 -26 -10 -31 6 -43 26 -19 28 -19 77 21 179 144
387 205 648 192 217 -11 456 -91 498 -167 40 -70 -55 -189 -210 -264 -144 -70
-228 -89 -388 -90 -162 -1 -241 18 -395 94 -282 140 -408 356 -392 671 11 224
85 424 240 654 67 99 182 205 269 249 97 50 130 79 126 114 -3 24 -8 27 -44
30 -28 2 -47 -3 -65 -16z"/>
<path d="M3561 8944 c-12 -15 -21 -30 -21 -34 0 -20 72 -109 116 -143 70 -54
194 -112 292 -137 23 -6 42 -15 42 -21 0 -6 -39 -28 -87 -50 -177 -79 -256
-124 -284 -159 -67 -86 -44 -119 151 -220 170 -88 205 -111 225 -150 30 -57
17 -121 -50 -263 -23 -51 -62 -153 -85 -227 -23 -74 -51 -153 -63 -175 -28
-57 -133 -162 -269 -272 -125 -100 -174 -153 -164 -178 9 -24 37 -30 62 -14
56 35 247 191 321 262 98 94 145 178 193 342 18 61 54 158 81 218 83 184 99
279 60 344 -32 51 -117 111 -246 173 -66 32 -129 68 -140 80 l-20 22 28 22
c16 13 54 33 85 46 31 13 111 50 177 82 119 58 179 105 173 135 -4 22 -61 49
-165 77 -116 32 -209 76 -264 125 -37 33 -43 43 -41 74 4 63 -68 91 -107 41z"/>
</g>
</svg>
