<?xml version="1.0" standalone="no"?>
<!DOCTYPE svg PUBLIC "-//W3C//DTD SVG 20010904//EN"
 "http://www.w3.org/TR/2001/REC-SVG-20010904/DTD/svg10.dtd">
<svg version="1.0" xmlns="http://www.w3.org/2000/svg"
 width="3264.000000pt" height="2448.000000pt" viewBox="0 0 3264.000000 2448.000000"
 preserveAspectRatio="xMidYMid meet">
<metadata>
Created by potrace 1.12, written by Peter Selinger 2001-2015
</metadata>
<g transform="translate(0.000000,2448.000000) scale(0.100000,-0.100000)"
fill="#000000" stroke="none">
<path d="M2883 23748 c-4 -7 -11 -40 -15 -73 -14 -112 -28 -200 -43 -275 -27
-131 -30 -194 -11 -213 10 -9 24 -17 32 -17 12 0 14 11 8 59 -5 46 -2 75 14
128 23 78 43 160 68 285 14 71 15 90 4 103 -15 18 -46 20 -57 3z"/>
<path d="M3197 23733 c-4 -3 -7 -21 -7 -39 0 -38 -13 -102 -45 -229 -51 -204
-60 -257 -56 -337 1 -20 35 -58 51 -58 6 0 10 9 10 19 0 11 -4 23 -10 26 -5 3
-10 20 -10 36 0 35 34 176 56 232 8 21 26 82 40 135 46 173 46 172 29 198 -15
23 -44 32 -58 17z"/>
<path d="M1523 23635 c-4 -14 -5 -63 0 -108 46 -475 62 -570 98 -600 39 -32
45 -7 21 90 -24 100 -37 189 -52 352 -13 136 -6 197 22 212 12 6 82 15 157 20
75 5 150 11 166 13 17 2 61 7 98 11 96 10 83 30 -19 30 -93 -1 -306 -13 -351
-21 -20 -4 -44 0 -64 10 -45 23 -66 20 -76 -9z"/>
<path d="M5567 23642 c-10 -10 -17 -22 -17 -26 0 -3 -43 -73 -97 -153 -53 -81
-102 -165 -108 -187 -7 -22 -16 -41 -22 -43 -5 -2 -34 8 -64 22 -73 34 -161
35 -183 3 -9 -12 -16 -35 -16 -50 0 -107 125 -150 335 -114 107 19 135 29 135
51 0 18 -17 18 -100 0 -79 -17 -212 -18 -260 -2 -31 11 -35 16 -38 51 l-3 39
58 -5 c42 -3 69 -11 98 -31 53 -36 71 -35 85 8 10 31 69 123 209 324 53 77 60
98 39 119 -17 17 -32 15 -51 -6z"/>
<path d="M4259 23608 c-26 -21 -119 -134 -119 -144 0 -20 -108 -124 -129 -124
-24 0 -25 -1 -10 -34 15 -32 2 -65 -63 -164 -53 -81 -57 -96 -28 -112 29 -15
58 22 109 142 25 57 48 108 52 113 8 10 59 25 134 40 l31 6 12 -116 c11 -118
28 -166 64 -189 29 -18 32 1 13 80 -25 105 -26 211 -2 228 21 16 22 35 2 50
-14 10 -14 23 -4 103 12 86 11 94 -6 113 -21 23 -35 25 -56 8z m-6 -100 c2 -7
2 -42 -2 -78 -7 -70 -14 -77 -89 -79 -60 -2 -50 38 32 127 42 45 51 49 59 30z"/>
<path d="M4974 23602 c-18 -11 -38 -57 -90 -209 -29 -86 -54 -143 -62 -143 -7
0 -30 9 -52 20 -56 29 -99 26 -148 -10 -65 -47 -69 -94 -10 -130 47 -29 150
-21 253 21 11 4 40 15 65 22 26 9 46 22 48 32 3 14 -2 16 -43 9 l-48 -7 7 39
c4 22 36 102 71 179 56 123 63 142 51 159 -15 23 -27 28 -42 18z m-186 -382
c52 -32 42 -47 -37 -55 -82 -8 -117 4 -101 35 23 43 85 52 138 20z"/>
<path d="M2682 23388 c-7 -7 -12 -18 -12 -25 0 -22 -71 -124 -124 -180 -37
-37 -60 -53 -78 -53 -32 0 -38 16 -43 106 -3 67 -12 84 -47 84 -15 0 -18 -10
-18 -67 0 -95 14 -140 50 -158 62 -32 108 -15 186 67 104 110 164 238 111 238
-7 0 -18 -5 -25 -12z"/>
<path d="M5843 23320 c-35 -17 -72 -44 -83 -60 -13 -19 -26 -27 -39 -23 -68
18 30 -106 121 -153 40 -20 221 -74 250 -74 5 0 35 24 66 54 31 29 71 61 89
70 33 17 176 39 338 53 83 7 90 10 93 31 3 21 1 22 -90 22 -163 0 -336 -28
-408 -65 -18 -10 -54 -39 -80 -66 l-47 -49 -86 24 c-92 25 -160 61 -154 80 2
6 17 15 33 20 145 45 190 86 151 140 -24 32 -85 31 -154 -4z m81 -28 c7 -12
-6 -26 -38 -40 -45 -20 -57 2 -15 27 37 23 45 25 53 13z"/>
<path d="M1667 23316 c-16 -41 71 -76 191 -76 85 0 253 29 292 50 11 6 20 18
20 27 0 12 -7 14 -32 9 -238 -49 -331 -52 -396 -15 -39 22 -68 24 -75 5z"/>
<path d="M5209 22726 c-2 -2 -186 -7 -409 -11 -223 -3 -427 -8 -455 -10 -27
-2 -151 -6 -275 -9 -239 -7 -449 -13 -670 -21 -74 -2 -223 -7 -330 -10 -396
-11 -591 -21 -794 -40 -26 -2 -170 -9 -320 -15 -149 -6 -352 -15 -451 -21 -99
-6 -227 -13 -285 -16 -123 -6 -145 -14 -129 -45 10 -18 17 -20 68 -14 140 15
389 32 621 41 187 8 496 24 550 30 86 9 176 14 330 20 85 3 200 8 255 10 132
7 302 13 565 21 118 3 258 7 310 9 52 2 205 6 340 10 135 4 265 8 290 10 88 6
1002 18 1405 19 532 1 1473 -15 1763 -30 95 -5 112 -4 112 9 0 56 -42 58
-1325 63 -639 2 -1163 3 -1166 0z"/>
<path d="M7803 22314 c-3 -8 0 -62 6 -119 9 -78 9 -137 0 -237 -6 -73 -12
-135 -14 -139 -2 -3 -13 -97 -25 -210 -38 -372 -75 -677 -82 -684 -4 -4 -681
-9 -1505 -11 -1428 -3 -2053 -8 -2318 -19 -351 -15 -1001 -59 -1180 -80 -22
-2 -74 -7 -115 -10 -104 -8 -438 -41 -595 -60 -272 -32 -610 -47 -755 -33 -32
3 -35 1 -38 -26 -4 -35 7 -43 78 -52 91 -11 585 29 930 76 294 40 1157 108
1595 125 83 3 188 8 234 10 46 2 565 6 1155 10 589 3 1373 9 1741 12 369 4
693 7 720 8 49 0 50 -1 53 -31 2 -18 -1 -47 -6 -65 l-8 -34 -325 3 c-367 3
-434 7 -502 29 -37 12 -71 14 -150 9 -56 -3 -194 -9 -307 -11 -415 -10 -566
-14 -615 -20 -115 -12 -187 -28 -218 -49 -31 -21 -47 -23 -253 -29 -120 -4
-385 -9 -589 -12 -400 -5 -783 -14 -910 -20 -44 -2 -156 -6 -250 -10 -491 -17
-833 -65 -1150 -159 -22 -7 -57 -20 -79 -29 -21 -9 -41 -17 -44 -17 -9 0 -199
-98 -243 -125 -110 -69 -359 -289 -359 -316 0 -4 -6 -14 -13 -21 -7 -7 -31
-42 -53 -78 -147 -236 -211 -515 -154 -676 59 -170 201 -244 531 -276 197 -18
373 -16 914 12 110 5 241 12 290 15 501 25 2895 -5 3595 -46 96 -6 253 -19
347 -30 95 -10 199 -19 230 -20 32 0 76 -3 98 -7 39 -7 40 -9 40 -47 0 -38 -2
-39 -42 -50 -50 -12 -66 -26 -57 -49 5 -14 16 -17 52 -14 48 3 60 -7 40 -35
-12 -15 -20 -15 -81 -5 -58 10 -70 10 -77 -2 -15 -23 18 -46 84 -59 33 -6 61
-13 64 -15 2 -3 -3 -87 -12 -188 -9 -101 -16 -240 -16 -310 l0 -127 -77 -3
c-73 -3 -78 -4 -81 -27 -5 -36 13 -46 86 -46 l67 0 3 -37 c2 -21 7 -38 12 -38
5 0 10 17 12 38 l3 37 108 -2 c97 -2 108 0 105 15 -5 24 -48 42 -122 49 -35 3
-70 9 -77 13 -10 7 -10 32 0 127 6 65 16 203 21 307 5 103 11 190 13 192 2 2
38 10 81 19 43 8 85 20 92 26 28 23 2 32 -81 25 -88 -6 -115 4 -101 40 6 15
19 16 112 10 84 -5 105 -4 102 6 -7 20 -47 36 -122 48 -38 6 -73 13 -77 16 -9
5 -1 64 11 77 4 4 72 -2 151 -15 128 -20 181 -22 484 -23 383 0 483 3 675 21
603 55 1422 40 2535 -47 203 -16 394 -22 770 -26 823 -9 1176 22 1702 147 157
38 285 85 453 169 309 154 474 288 541 436 68 153 33 363 -87 516 -51 64 -189
181 -288 244 -231 145 -658 312 -1036 404 -275 67 -727 134 -1085 161 -180 14
-1711 21 -2130 10 -313 -9 -435 -14 -955 -44 -140 -8 -325 -17 -410 -20 -85
-3 -301 -12 -480 -20 -179 -8 -399 -16 -490 -18 l-165 -3 3 64 c1 35 3 65 5
66 1 1 216 9 477 16 751 22 5114 13 5254 -11 74 -12 80 -12 93 6 21 28 12 47
-27 58 -21 5 -312 8 -735 6 -1119 -5 -1604 -5 -2700 4 -995 8 -1760 0 -2190
-23 -84 -5 -154 -5 -159 0 -6 5 1 88 17 216 15 115 31 251 37 303 5 52 21 194
36 315 28 239 31 496 6 543 -15 25 -40 29 -49 6z m4277 -1514 c299 -9 439 -21
730 -61 439 -61 739 -131 1084 -254 375 -134 633 -279 789 -445 110 -116 154
-229 144 -377 -13 -212 -159 -357 -552 -548 -204 -99 -342 -141 -663 -204
-322 -63 -598 -87 -1127 -97 -360 -7 -630 2 -1115 37 -562 40 -712 49 -1010
59 -656 22 -929 19 -1415 -14 -600 -41 -860 -42 -1240 -5 -176 17 -159 4 -151
117 4 53 9 98 11 102 1 3 6 106 10 230 4 124 8 226 10 228 1 2 46 -4 99 -13
124 -20 166 -20 166 0 0 24 -54 40 -203 60 -39 5 -50 11 -58 32 -17 44 1 52
104 47 97 -5 133 4 109 28 -8 8 -49 15 -105 18 l-92 5 1 35 c0 19 8 98 18 175
32 254 35 288 29 298 -4 7 14 8 53 3 198 -23 254 -17 254 24 0 20 -4 21 -57
15 -32 -3 -96 0 -143 7 -94 14 -85 5 -89 91 -2 31 -25 13 -37 -28 l-10 -38
-107 -1 c-87 -1 -109 -4 -124 -18 -15 -16 -15 -20 -3 -32 12 -12 25 -13 65 -5
28 6 74 7 104 4 l54 -7 -6 -51 c-3 -29 -15 -113 -26 -187 -11 -74 -21 -166
-23 -203 -1 -38 -5 -72 -8 -78 -4 -5 -33 -14 -65 -20 -76 -14 -115 -34 -115
-59 0 -25 16 -25 92 1 69 23 91 19 86 -13 -3 -22 -8 -23 -106 -28 -105 -5
-127 -14 -115 -47 5 -12 23 -13 97 -8 50 3 97 2 103 -3 10 -6 10 -38 3 -139
-5 -72 -12 -219 -16 -327 l-7 -197 -61 7 c-34 3 -137 14 -229 25 -390 43
-1018 63 -2702 86 -652 9 -962 7 -1210 -7 -574 -33 -1103 -46 -1251 -31 -222
24 -300 41 -401 89 -176 83 -218 286 -118 577 16 49 105 211 153 280 65 92
215 233 327 307 45 29 186 108 225 125 145 64 299 115 427 142 114 24 144 28
348 46 436 37 834 53 1530 60 303 3 579 8 615 10 36 2 142 7 235 10 192 7 444
28 615 51 63 9 160 22 214 29 96 13 366 9 711 -10 55 -3 243 -5 418 -5 l317
-1 0 -43 c0 -23 -5 -68 -11 -99 -11 -55 -13 -57 -48 -62 -71 -11 -146 -28
-168 -38 -17 -8 -23 -19 -23 -44 0 -39 3 -39 64 -12 64 28 264 51 411 47 104
-3 120 -1 123 13 4 22 -24 28 -181 36 -91 4 -130 10 -134 19 -3 7 1 50 9 96
l13 83 285 6 c157 4 384 12 505 18 121 6 270 13 330 16 260 12 342 17 545 30
324 21 617 36 790 38 510 7 1641 5 1900 -3z m-6187 -81 c-5 -5 -52 -12 -104
-15 -106 -5 -108 1 -4 15 103 13 121 13 108 0z"/>
<path d="M12127 20639 c-21 -5 -50 -15 -65 -23 -15 -7 -50 -16 -79 -19 -83 -9
-164 -62 -199 -129 -23 -44 -18 -117 14 -179 51 -101 209 -177 414 -201 214
-24 373 35 424 158 18 44 18 143 -1 187 -64 153 -309 253 -508 206z m206 -58
c96 -25 143 -49 195 -101 112 -112 70 -270 -85 -316 -152 -46 -447 10 -555
105 -97 85 -57 227 75 266 70 21 102 19 172 -11 74 -32 110 -39 120 -24 11 17
-22 47 -73 67 -37 14 -41 18 -26 24 34 13 99 9 177 -10z"/>
<path d="M9378 20606 c-124 -36 -244 -119 -274 -192 -32 -75 -9 -192 49 -252
111 -116 376 -135 573 -42 73 35 106 71 147 158 59 127 23 191 -162 284 -102
51 -109 53 -196 55 -52 1 -110 -4 -137 -11z m170 -42 c23 -7 23 -7 -7 -25 -34
-21 -38 -31 -17 -48 10 -8 21 -8 40 -1 66 25 156 6 156 -33 0 -25 17 -47 37
-47 7 0 13 9 13 19 0 11 4 22 9 26 16 9 51 -51 51 -87 0 -51 -46 -135 -93
-169 -113 -82 -354 -100 -485 -38 -137 67 -132 236 10 325 52 33 130 63 191
73 70 12 69 12 95 5z"/>
<path d="M6112 20564 c-12 -8 -22 -24 -22 -34 0 -14 -17 -28 -52 -46 -117 -59
-201 -159 -204 -243 -4 -90 24 -97 54 -13 51 138 187 236 355 257 97 11 147
-1 201 -48 38 -34 49 -50 53 -82 4 -34 -1 -47 -27 -82 -37 -50 -119 -106 -214
-146 -57 -24 -90 -31 -169 -35 l-97 -5 -59 37 c-33 20 -62 36 -65 36 -3 0 -6
-12 -6 -26 0 -35 55 -89 105 -103 162 -45 465 69 559 211 33 49 35 58 35 130
0 76 -1 77 -39 112 -82 74 -343 126 -408 80z"/>
<path d="M3962 20558 c-15 -19 -33 -92 -46 -188 l-12 -85 -64 4 c-115 8 -134
7 -137 -9 -7 -35 14 -45 107 -48 l90 -4 -1 -130 c-1 -99 2 -133 13 -139 29
-19 33 -1 30 129 -5 155 -15 143 145 161 101 12 193 36 193 51 0 16 -64 20
-129 8 -36 -7 -95 -12 -131 -13 l-65 0 3 34 c2 19 15 67 28 108 28 86 30 119
8 127 -21 8 -20 8 -32 -6z"/>
<path d="M5604 20492 c-18 -12 -34 -49 -53 -125 -15 -57 -23 -73 -39 -75 -26
-4 -56 -38 -49 -56 3 -8 16 -16 29 -18 21 -3 23 -8 23 -58 0 -78 24 -75 48 6
17 59 20 62 55 68 20 3 61 6 90 6 45 0 53 3 50 17 -4 19 -39 30 -103 32 -64 2
-67 13 -32 97 31 74 31 75 12 94 -11 11 -25 16 -31 12z"/>
<path d="M2761 20479 c-47 -9 -134 -50 -166 -79 -11 -10 -38 -27 -61 -38 -99
-50 -154 -146 -144 -253 6 -57 10 -65 47 -98 81 -73 211 -97 336 -62 108 29
154 53 233 120 128 108 158 175 116 258 -54 105 -226 178 -361 152z m187 -74
c102 -51 143 -107 127 -172 -9 -39 -131 -155 -195 -188 -142 -72 -283 -77
-376 -13 -49 34 -68 75 -60 130 8 54 54 130 77 126 9 -2 32 12 53 30 42 37 98
43 160 17 27 -12 42 -13 56 -5 38 20 20 45 -45 61 -28 6 -54 15 -59 20 -14 12
52 27 125 28 57 1 76 -4 137 -34z"/>
<path d="M4734 20450 c-67 -10 -176 -63 -208 -101 -15 -18 -26 -43 -26 -60 0
-16 -10 -44 -22 -60 -18 -24 -23 -43 -22 -88 2 -129 93 -200 240 -188 65 5
109 22 193 75 65 41 158 127 177 164 22 42 2 107 -52 167 -68 76 -167 108
-280 91z m185 -87 c55 -40 91 -90 91 -124 0 -35 -113 -142 -202 -190 -56 -30
-71 -34 -140 -34 -62 0 -82 4 -105 21 -33 25 -56 86 -47 126 9 41 75 108 106
108 45 0 45 41 1 54 -35 11 -28 22 30 44 73 29 84 31 158 29 56 -2 71 -7 108
-34z"/>
<path d="M6238 19957 c-23 -17 -35 -243 -31 -597 3 -254 11 -337 27 -289 11
31 26 251 26 380 0 75 7 201 16 280 23 201 23 209 -2 225 -16 11 -23 12 -36 1z"/>
<path d="M4730 19740 c-23 -25 -32 -28 -63 -23 -99 16 -267 -173 -267 -301 0
-99 66 -211 145 -247 56 -26 159 -25 220 1 60 26 80 41 189 148 127 124 163
213 118 287 -55 88 -178 165 -265 165 -41 0 -53 -5 -77 -30z m160 -47 c76 -38
140 -104 140 -143 0 -51 -38 -111 -129 -200 -105 -104 -160 -133 -256 -138
-57 -2 -76 1 -102 17 -70 44 -99 174 -57 255 50 97 132 166 198 166 13 0 29 7
37 16 16 19 79 53 100 54 8 0 39 -12 69 -27z"/>
<path d="M2820 19745 c-67 -21 -243 -135 -278 -180 -61 -77 -50 -248 21 -323
87 -93 284 -81 470 29 92 54 192 154 208 208 17 56 -8 117 -68 171 -112 98
-235 131 -353 95z m207 -60 c60 -27 136 -93 152 -133 15 -35 4 -67 -40 -117
-87 -99 -236 -180 -360 -196 -131 -16 -177 6 -205 97 -25 85 -10 204 26 204
10 0 23 7 30 15 7 8 25 15 40 15 34 0 59 25 42 42 -20 20 -14 27 50 59 103 52
170 56 265 14z"/>
<path d="M9167 19660 c-72 -26 -119 -55 -177 -112 -61 -59 -84 -109 -85 -183
0 -115 67 -199 197 -245 88 -31 268 -39 358 -16 86 22 197 77 238 117 89 88
95 205 16 298 -46 53 -93 73 -167 72 -50 0 -63 3 -74 19 -44 63 -199 88 -306
50z m218 -54 c19 -8 35 -19 35 -25 0 -14 -52 -49 -96 -63 -28 -10 -39 -19 -39
-33 0 -31 75 -23 149 15 97 49 181 39 239 -29 78 -93 31 -198 -117 -266 -99
-44 -157 -57 -256 -56 -146 1 -262 44 -308 111 -33 48 -29 151 8 203 37 51
118 115 175 137 60 23 162 26 210 6z"/>
<path d="M12109 19668 c-5 -17 -12 -366 -10 -507 2 -153 -1 -192 -14 -228 -34
-88 12 -103 52 -17 25 54 26 63 20 183 -3 78 0 189 9 291 9 91 12 180 9 198
-10 53 -27 82 -47 82 -10 0 -18 -1 -19 -2z"/>
<path d="M5571 19632 c-5 -10 -7 -55 -4 -100 7 -101 -1 -116 -62 -106 -49 7
-85 -8 -85 -35 0 -33 26 -44 89 -38 l59 6 8 -57 c7 -42 14 -58 27 -60 15 -3
17 5 17 57 0 70 7 74 98 70 103 -4 122 -1 122 20 0 28 -6 30 -111 37 -52 3
-98 10 -102 14 -5 4 -3 44 3 88 9 59 9 85 1 101 -14 26 -47 27 -60 3z"/>
<path d="M3992 19513 c-5 -10 -13 -40 -17 -68 -8 -54 -16 -65 -56 -65 -37 0
-54 -22 -39 -50 9 -16 19 -20 43 -18 31 3 32 2 40 -52 11 -64 23 -85 42 -70 9
8 11 29 8 69 l-6 58 39 6 c22 4 81 7 132 7 76 0 94 3 99 16 10 26 -17 34 -122
34 -55 0 -106 4 -114 9 -10 6 -12 19 -7 42 15 72 13 94 -11 97 -13 2 -25 -4
-31 -15z"/>
<path d="M12330 21935 c-184 -39 -299 -115 -300 -197 0 -24 15 -39 95 -98 157
-116 194 -193 118 -245 -87 -59 -244 -83 -293 -45 -14 11 -32 20 -41 20 -25 0
-42 -27 -35 -54 7 -28 77 -66 122 -66 101 1 273 67 320 124 23 27 26 37 22 92
-5 79 -38 128 -128 195 -36 26 -76 57 -90 68 l-25 21 36 34 c41 39 115 68 236
95 47 11 90 24 96 30 28 28 -51 44 -133 26z"/>
<path d="M9000 21925 c-158 -37 -341 -142 -404 -233 -31 -45 -43 -108 -32
-167 14 -73 141 -156 284 -185 107 -22 267 -2 246 31 -3 5 -40 9 -82 9 -93 0
-181 20 -264 59 -71 33 -98 54 -123 94 -15 24 -16 33 -5 73 22 77 86 137 213
199 123 61 196 80 274 72 64 -7 87 11 58 43 -21 23 -79 25 -165 5z"/>
<path d="M2115 21923 c-11 -3 -62 -25 -112 -50 -202 -98 -411 -351 -421 -511
-8 -117 34 -180 145 -222 111 -42 330 -15 406 48 41 35 -4 59 -51 27 -33 -24
-169 -47 -227 -40 -112 14 -194 54 -215 106 -35 83 17 218 132 349 132 149
287 250 385 250 34 0 34 -1 31 -37 -2 -32 0 -38 17 -38 15 0 24 12 35 43 15
43 14 44 -9 63 -22 18 -69 23 -116 12z"/>
<path d="M6190 21897 c-127 -43 -207 -112 -265 -227 -30 -59 -85 -214 -85
-239 0 -9 -7 -27 -15 -41 -32 -56 -35 -71 -25 -110 6 -21 17 -43 25 -50 26
-22 41 5 54 94 27 194 87 350 163 426 82 81 218 131 218 79 0 -33 -55 -104
-118 -153 -78 -59 -132 -121 -132 -149 0 -38 30 -55 136 -77 174 -36 349 -97
369 -130 10 -17 -77 -49 -163 -61 -44 -6 -132 -9 -195 -7 -103 3 -118 5 -139
26 -31 29 -48 28 -48 -2 0 -66 34 -83 177 -92 114 -7 306 14 367 40 50 21 78
59 74 97 -3 29 -11 39 -57 66 -69 41 -198 88 -335 122 -60 15 -111 32 -113 38
-2 6 17 28 43 50 140 113 194 181 194 243 0 72 -37 89 -130 57z"/>
<path d="M10506 21848 c-3 -13 -9 -74 -15 -137 -6 -63 -14 -118 -18 -122 -5
-3 -25 -12 -45 -18 -44 -15 -61 -33 -56 -63 3 -23 26 -29 68 -17 12 3 14 -5
12 -43 -2 -26 -1 -52 2 -57 14 -22 36 4 46 55 6 30 18 60 25 68 8 8 47 17 87
21 154 16 273 41 276 58 6 28 -24 31 -185 17 -85 -7 -157 -10 -160 -6 -3 3 1
40 10 81 19 87 21 138 7 166 -15 27 -48 25 -54 -3z"/>
<path d="M13186 21693 c-4 -65 -11 -153 -16 -196 -10 -84 1 -141 32 -160 29
-19 63 7 132 99 l65 86 -6 -50 c-5 -42 -2 -53 16 -71 11 -11 29 -21 39 -21 34
0 189 67 264 114 41 25 85 46 97 46 21 0 22 -3 19 -82 -3 -77 -2 -83 17 -83
41 0 72 172 40 221 -15 24 -21 26 -61 20 -28 -3 -80 -26 -137 -60 -135 -80
-248 -120 -234 -83 25 67 36 128 27 151 -18 47 -46 31 -132 -79 -31 -38 -70
-83 -87 -99 l-31 -30 0 40 c0 21 5 98 11 169 12 142 5 185 -30 185 -17 0 -19
-11 -25 -117z"/>
<path d="M12990 21675 c-62 -114 -90 -150 -141 -175 -48 -25 -95 -25 -136 0
-56 34 -61 59 -37 202 7 45 -15 61 -45 34 -24 -22 -45 -132 -37 -190 13 -84
82 -139 175 -139 115 0 216 91 275 247 55 144 20 158 -54 21z"/>
<path d="M4754 21668 c-21 -24 -79 -104 -128 -178 -49 -74 -115 -172 -145
-218 -31 -45 -61 -92 -68 -104 -24 -44 28 -81 54 -38 7 10 38 66 69 122 117
212 228 378 253 378 12 0 61 -147 61 -181 0 -25 -4 -27 -97 -45 l-98 -19 -3
-32 c-4 -45 21 -49 111 -18 110 38 110 38 131 -49 19 -83 38 -108 61 -85 12
12 12 20 -1 58 -8 24 -17 62 -20 85 -7 48 -4 50 99 76 34 9 47 17 47 31 0 27
-12 29 -60 13 -24 -8 -59 -14 -78 -12 l-36 3 -21 95 c-38 169 -63 192 -131
118z"/>
<path d="M9396 21601 c-45 -30 -66 -70 -66 -128 0 -91 61 -137 185 -136 128 0
215 87 171 172 -22 41 -66 63 -143 69 -49 4 -66 9 -74 23 -12 24 -36 24 -73 0z
m193 -97 c51 -20 59 -41 26 -73 -23 -23 -33 -26 -101 -26 -74 0 -77 1 -106 34
l-31 35 27 23 c22 18 39 23 86 23 33 0 77 -7 99 -16z"/>
<path d="M9837 21533 c-28 -27 29 -138 92 -180 42 -29 119 -30 176 -4 50 22
127 107 123 135 -5 31 -21 29 -63 -10 -107 -99 -205 -93 -260 16 -24 47 -49
63 -68 43z"/>
<path d="M2413 21513 c-16 -6 -17 -45 -1 -61 16 -16 30 -15 53 2 18 13 18 15
2 40 -17 25 -29 30 -54 19z"/>
<path d="M20634 21471 c-101 -47 -148 -195 -149 -466 0 -116 3 -146 18 -172
12 -23 25 -33 42 -33 37 0 48 30 29 82 -26 73 -36 241 -20 340 20 124 45 174
98 198 54 25 61 25 143 -1 91 -28 162 -97 189 -183 33 -104 4 -135 -183 -192
-160 -49 -163 -50 -159 -77 3 -21 7 -22 150 -27 199 -7 204 -15 51 -75 -54
-21 -154 -61 -223 -88 -69 -27 -163 -57 -210 -67 -71 -14 -85 -20 -85 -36 0
-17 7 -19 60 -18 67 1 345 89 515 162 87 38 150 85 150 112 0 18 -63 49 -110
55 -74 10 -79 15 -30 34 114 44 167 105 157 182 -14 102 -93 206 -197 257 -73
36 -176 41 -236 13z"/>
<path d="M22997 21466 c-109 -45 -170 -115 -183 -208 -8 -56 11 -95 67 -140
152 -122 161 -145 75 -183 -83 -37 -225 -75 -277 -75 -48 0 -79 -18 -79 -45 0
-22 38 -37 73 -30 105 21 356 114 377 140 9 11 19 10 58 -3 36 -12 91 -15 237
-15 262 1 434 24 497 67 27 17 33 29 33 56 0 29 -6 38 -40 61 -50 34 -150 67
-232 75 -59 6 -75 15 -54 29 21 12 70 113 86 174 21 83 11 111 -38 111 -52 0
-147 -67 -203 -142 -31 -42 -52 -62 -67 -63 -19 0 -23 -9 -34 -80 -6 -44 -21
-104 -33 -134 -19 -49 -20 -56 -5 -70 11 -12 20 -13 33 -5 23 14 62 92 62 124
0 33 61 171 95 216 30 39 101 94 122 94 7 0 13 -7 13 -15 0 -34 -41 -128 -79
-183 -23 -32 -41 -63 -41 -70 0 -23 47 -40 130 -46 97 -6 141 -17 188 -46 27
-16 31 -24 23 -34 -33 -40 -538 -84 -683 -60 -29 5 -38 11 -38 26 0 38 -32 78
-109 137 -91 69 -111 106 -91 165 21 66 125 138 220 154 31 5 46 13 48 25 5
26 -79 22 -151 -7z"/>
<path d="M22253 21413 c-22 -64 -44 -101 -137 -232 -124 -174 -146 -214 -146
-261 0 -95 145 -143 342 -116 122 18 197 39 230 65 18 15 20 22 11 32 -9 9
-19 9 -40 1 -100 -41 -331 -56 -400 -27 -50 21 -73 43 -73 71 0 13 29 65 64
116 198 284 207 300 204 332 -2 23 -8 32 -26 34 -14 2 -24 -3 -29 -15z"/>
<path d="M19692 21391 c-7 -4 -26 -61 -43 -127 -33 -133 -77 -274 -90 -288 -5
-6 -9 3 -9 21 0 58 -50 304 -70 343 -24 46 -34 54 -64 46 -18 -4 -40 -42 -103
-173 -85 -176 -105 -233 -123 -347 -11 -70 -4 -96 26 -96 20 0 31 28 43 114
13 94 46 195 106 323 30 64 49 93 55 87 16 -16 58 -217 69 -328 12 -114 24
-137 66 -118 36 16 57 70 102 250 20 83 41 152 44 152 4 0 10 -8 13 -17 13
-45 46 -238 46 -271 0 -52 18 -109 35 -116 25 -9 46 34 36 74 -5 19 -12 71
-16 115 -7 90 -46 274 -69 329 -15 36 -29 43 -54 27z"/>
<path d="M20200 21366 c-91 -32 -175 -76 -245 -129 -97 -73 -120 -140 -58
-166 39 -16 67 -16 226 -1 196 17 277 -5 277 -75 0 -27 -9 -43 -42 -75 -73
-70 -263 -165 -357 -179 -54 -7 -68 -34 -27 -52 33 -15 118 12 272 86 86 42
121 65 154 102 110 124 86 209 -70 249 -56 14 -81 15 -203 4 -199 -17 -237 -3
-154 54 129 90 214 126 317 135 61 5 75 9 78 24 10 51 -61 61 -168 23z"/>
<path d="M2907 21274 c-41 -27 -76 -63 -135 -141 l-35 -46 -11 34 c-23 71 -85
37 -71 -40 9 -51 31 -81 60 -81 18 0 36 16 74 68 82 111 93 124 125 143 17 10
41 19 52 19 29 0 77 -56 119 -140 41 -81 71 -108 94 -85 14 14 14 18 -2 43
-10 15 -33 57 -52 94 -20 37 -55 88 -78 113 -51 53 -82 57 -140 19z"/>
<path d="M2403 21213 c-25 -37 -22 -122 6 -205 22 -67 39 -86 60 -65 15 15 14
38 -5 83 -13 30 -15 56 -10 112 5 51 3 78 -5 88 -17 20 -26 18 -46 -13z"/>
<path d="M23574 20848 c-4 -6 -6 -55 -5 -107 2 -100 -19 -349 -44 -511 -16
-100 -34 -281 -61 -595 -9 -104 -18 -205 -21 -224 l-4 -34 -97 8 c-53 3 -509
11 -1012 17 -503 6 -1030 13 -1170 15 -263 4 -593 -12 -855 -43 -123 -14 -337
-29 -775 -54 -107 -6 -274 -18 -370 -26 -215 -19 -802 -29 -925 -16 -72 8 -94
7 -112 -4 -31 -19 -29 -42 5 -56 42 -18 605 -14 837 5 270 23 415 34 610 47
94 6 188 13 210 16 70 9 29 -8 -124 -52 -81 -23 -202 -66 -267 -95 -282 -124
-510 -326 -545 -483 -17 -77 -6 -122 44 -172 53 -52 124 -79 281 -106 111 -19
146 -20 426 -14 168 3 438 12 600 20 396 20 1005 41 1165 41 172 -1 805 -17
805 -21 0 -2 -11 -81 -24 -176 -37 -269 -60 -484 -53 -503 4 -9 14 -15 24 -13
18 3 39 109 68 338 8 69 22 159 30 201 9 42 17 93 18 115 l2 39 110 -3 c61 -1
160 -7 220 -12 168 -15 484 -30 639 -30 l139 0 -6 -72 c-3 -40 -13 -185 -22
-323 -9 -137 -19 -271 -23 -298 l-7 -47 -450 -7 c-247 -4 -601 -6 -785 -5
-470 4 -1313 -14 -1505 -33 -265 -25 -689 -86 -905 -130 -238 -48 -584 -161
-750 -245 -275 -139 -413 -327 -364 -496 19 -66 70 -114 168 -159 89 -40 124
-49 311 -74 246 -34 422 -39 1255 -35 437 2 905 0 1040 -6 135 -5 362 -12 505
-15 261 -6 449 -17 625 -35 129 -13 554 -40 665 -41 50 -1 103 -4 118 -8 l29
-6 -1 -555 c-1 -305 -4 -652 -6 -770 -2 -118 -7 -348 -10 -510 -7 -355 -25
-577 -65 -805 -16 -93 -38 -242 -50 -330 -11 -88 -28 -186 -37 -218 -14 -50
-14 -60 -2 -68 20 -12 24 -11 42 9 24 26 44 115 62 274 9 79 27 209 41 289 64
391 74 593 82 1769 l7 915 30 -1 c17 -1 129 -9 250 -18 201 -14 464 -26 950
-42 101 -3 205 -12 236 -20 67 -17 168 -18 224 -3 77 21 1638 6 2155 -21 113
-6 313 -18 445 -26 499 -30 861 -39 1159 -26 324 14 453 29 658 77 316 73 490
154 611 284 74 79 92 127 92 241 0 106 -8 125 -93 230 -100 121 -169 183 -326
287 -167 111 -296 175 -484 239 -117 40 -237 52 -237 24 0 -14 13 -19 113 -39
56 -12 266 -90 259 -97 -2 -2 -93 7 -203 20 -324 39 -828 68 -1524 86 -212 6
-495 17 -630 25 -135 9 -371 18 -525 21 -154 3 -381 12 -505 20 -124 9 -359
18 -522 21 l-296 6 71 34 c145 69 217 180 152 231 -14 11 -55 27 -92 37 -129
33 -123 28 -62 59 60 31 123 87 145 128 35 67 5 157 -65 197 -84 46 -261 37
-372 -19 -49 -25 -103 -89 -144 -171 -43 -85 -102 -255 -111 -318 -5 -42 -4
-50 13 -60 33 -17 51 7 63 82 20 129 96 302 162 368 65 64 201 100 302 79 74
-15 100 -37 100 -84 0 -29 -8 -44 -39 -77 -45 -45 -159 -106 -216 -115 -45 -8
-73 -34 -65 -62 9 -27 23 -31 149 -48 104 -14 187 -38 187 -54 0 -15 -80 -80
-132 -106 -72 -36 -141 -54 -215 -54 -64 0 -93 15 -149 79 -23 27 -44 21 -44
-12 0 -26 25 -67 60 -96 l25 -21 -385 7 c-212 5 -553 7 -758 7 l-373 -2 6 67
c3 36 14 201 25 365 11 165 22 302 25 304 2 3 82 3 177 1 95 -2 207 -3 249 -4
49 0 82 -5 92 -14 12 -9 28 -11 54 -6 74 15 1331 6 1578 -11 227 -16 378 -15
725 5 69 4 244 6 390 4 257 -2 265 -3 268 -23 2 -11 11 -24 20 -29 16 -8 191
-7 392 2 47 3 138 0 202 -5 165 -14 342 5 238 26 -81 16 2 21 353 22 539 2
807 22 1227 95 344 59 541 128 651 227 81 73 88 143 20 211 -48 48 -134 80
-337 125 -230 51 -434 73 -756 82 -246 6 -278 5 -278 -9 0 -22 23 -25 275 -37
382 -17 547 -38 829 -105 135 -32 199 -59 231 -97 35 -41 31 -62 -20 -117
-112 -119 -362 -198 -845 -265 -330 -46 -573 -61 -1189 -71 l-303 -5 31 29
c38 36 39 55 3 112 -41 64 -94 105 -230 179 -67 35 -118 67 -116 70 3 3 82 5
176 5 156 0 171 2 184 19 23 31 17 88 -16 154 -37 73 -78 110 -171 157 -162
82 -292 82 -369 0 -24 -26 -25 -31 -24 -153 1 -70 6 -176 11 -237 9 -99 8
-113 -8 -141 -17 -28 -17 -32 -3 -52 8 -12 24 -22 34 -22 35 0 43 35 36 159
-21 390 -22 385 36 422 51 32 165 23 253 -20 70 -34 167 -121 179 -159 15 -47
-3 -52 -188 -53 -94 0 -189 -3 -211 -7 -34 -6 -40 -11 -43 -36 -5 -40 19 -61
130 -116 197 -98 308 -172 308 -205 0 -18 -61 -35 -130 -35 -98 -1 -333 21
-392 36 -93 23 -126 18 -108 -17 7 -12 27 -19 67 -24 166 -18 283 -40 326 -62
25 -12 58 -17 147 -22 16 -1 21 -4 14 -11 -11 -11 -197 -15 -214 -5 -6 4 -8
10 -5 15 3 5 -3 11 -12 14 -17 4 -373 20 -703 31 -85 2 -176 7 -201 11 -25 3
-158 0 -295 -7 -286 -16 -293 -16 -555 0 -108 6 -381 12 -608 12 -226 0 -411
1 -411 3 0 3 15 27 33 55 18 27 55 93 82 145 27 53 56 98 64 100 28 8 209 11
216 4 4 -4 15 -42 24 -85 16 -72 19 -78 44 -81 36 -4 44 32 23 95 -19 56 -20
77 -3 103 12 21 5 32 -28 43 -6 2 -10 82 -11 208 -1 198 -1 204 -21 207 -14 2
-32 -10 -56 -40 -49 -60 -137 -198 -187 -294 -34 -65 -48 -82 -73 -90 -43 -13
-56 -37 -33 -63 21 -23 22 -19 -70 -168 -39 -61 -62 -107 -58 -117 5 -14 -24
-16 -253 -18 -298 -3 -846 2 -852 8 -6 6 27 352 54 574 14 107 26 213 27 235
l3 40 60 -1 c33 0 234 -2 446 -5 279 -3 390 -1 400 7 8 7 28 15 44 18 37 8
454 -10 539 -24 141 -22 366 -31 489 -19 67 6 158 14 202 18 44 4 152 4 240 0
324 -16 668 -30 995 -39 184 -6 418 -17 520 -25 102 -7 338 -17 525 -20 548
-10 854 -22 917 -38 31 -8 73 -24 93 -35 41 -25 65 -28 65 -9 0 33 -67 68
-178 92 -69 16 -362 27 -1007 40 -170 3 -406 12 -524 20 -118 8 -323 18 -455
22 -132 3 -231 10 -221 14 20 8 422 3 895 -10 146 -4 450 -9 675 -10 226 -1
473 -6 550 -11 77 -5 239 -16 360 -25 358 -24 423 -20 365 27 -15 13 -32 17
-47 13 -22 -5 -412 14 -703 35 -74 6 -295 10 -490 10 -195 0 -488 5 -650 10
-162 6 -500 12 -750 14 -311 3 -470 8 -503 16 -26 7 -67 10 -92 8 -25 -3 -48
-1 -55 6 -12 12 -33 12 -369 -3 -134 -6 -249 -15 -255 -19 -32 -25 -91 -33
-251 -32 -217 1 -285 13 -136 24 174 13 96 26 -159 26 -129 0 -381 5 -560 10
-179 5 -469 10 -644 11 l-319 1 7 86 c8 120 42 446 71 692 43 364 46 394 48
531 1 103 -1 140 -12 152 -16 20 -37 22 -47 5z m-1649 -1508 c193 -14 675 -38
880 -44 502 -15 615 -21 625 -33 3 -4 -8 -125 -26 -268 -18 -143 -38 -327 -44
-410 -6 -82 -13 -156 -15 -162 -6 -18 -296 -17 -565 3 -118 9 -307 18 -420 20
-113 2 -382 11 -599 20 -316 13 -441 14 -635 5 -132 -6 -333 -13 -446 -16
-210 -6 -487 -16 -945 -36 -462 -19 -742 24 -809 125 -21 34 -20 111 3 161 20
44 111 150 175 204 115 96 316 202 497 261 213 70 410 116 549 129 94 9 1027
38 1435 44 88 1 171 4 185 5 14 1 84 -2 155 -8z m1515 -14 c0 -17 -6 -18 -72
-11 -40 4 -219 13 -398 21 l-325 12 397 -1 c382 -2 398 -3 398 -21z m842 3
c-31 -25 -104 -30 -432 -27 -322 3 -345 4 -348 21 -3 17 16 18 392 15 217 -2
392 -6 388 -9z m1851 -36 c-7 -2 -21 -2 -30 0 -10 3 -4 5 12 5 17 0 24 -2 18
-5z m-1179 -470 l6 -43 -90 0 c-58 0 -90 4 -90 11 0 13 58 119 114 209 l41 65
7 -100 c4 -55 9 -119 12 -142z m-104 -1258 c510 -2 991 -16 1070 -30 14 -3
203 -9 420 -15 217 -6 503 -17 635 -25 132 -9 362 -18 510 -20 401 -8 1111
-42 1470 -70 323 -26 417 -42 435 -75 13 -24 60 -27 60 -4 0 8 -5 24 -10 34
-15 29 5 19 145 -68 176 -109 233 -152 305 -229 161 -171 188 -224 168 -332
-26 -143 -126 -242 -343 -338 -134 -59 -426 -131 -625 -153 -274 -31 -931 -34
-1315 -6 -501 36 -1381 61 -2157 61 -247 0 -448 1 -448 2 0 1 41 22 90 47 119
60 202 117 271 186 99 98 125 189 75 255 -55 71 -235 135 -381 135 -36 0 -65
4 -65 8 0 4 15 16 33 27 155 90 224 202 186 302 -38 100 -173 147 -302 104
-197 -66 -364 -277 -510 -641 -34 -85 -81 -262 -93 -353 -4 -26 -10 -50 -15
-53 -4 -2 -99 0 -211 5 -112 6 -268 13 -348 16 -217 9 -584 35 -591 43 -11 14
9 628 37 1099 l6 92 106 4 c59 3 265 2 457 -1 193 -3 613 -6 935 -7z m-1566
-75 c-1 -41 -9 -213 -18 -382 -9 -169 -16 -401 -16 -517 0 -115 -3 -212 -7
-214 -5 -2 -53 0 -108 4 -55 4 -194 12 -310 19 -115 6 -303 20 -416 30 -379
36 -1077 54 -2154 54 -976 1 -992 2 -1155 24 -285 40 -408 80 -479 157 -110
119 -36 289 187 431 138 89 310 159 577 234 196 56 348 87 635 129 562 82 730
91 1789 96 475 3 866 7 869 10 3 3 141 4 306 3 l301 -3 -1 -75z m1988 -186
c52 -27 71 -94 44 -157 -15 -38 -90 -107 -156 -145 -90 -51 -130 -83 -130
-102 0 -30 18 -35 140 -35 225 -1 417 -89 394 -180 -24 -96 -307 -295 -517
-365 -64 -21 -82 -22 -282 -19 -118 3 -216 7 -219 10 -12 11 15 201 40 285 85
293 243 557 399 664 91 63 214 81 287 44z"/>
<path d="M22311 19089 c-73 -22 -156 -94 -144 -125 8 -21 21 -17 64 17 104 82
280 70 337 -23 48 -79 35 -134 -48 -212 -133 -125 -435 -209 -509 -142 -55 50
-3 114 169 211 104 59 168 85 210 85 37 0 55 22 40 49 -24 45 -120 18 -290
-82 -57 -34 -128 -85 -157 -113 -51 -48 -53 -52 -53 -103 0 -47 4 -57 33 -86
42 -42 103 -59 182 -52 69 7 212 54 300 100 80 42 189 150 205 204 28 93 -24
206 -113 251 -55 27 -171 38 -226 21z"/>
<path d="M19851 19059 c-105 -47 -203 -164 -217 -257 -22 -144 112 -252 312
-252 142 0 240 31 344 109 102 77 122 136 75 218 -45 76 -145 108 -294 92 -82
-8 -211 -55 -245 -88 -18 -19 -18 -21 -2 -27 9 -4 41 5 74 19 111 50 272 57
354 16 40 -20 78 -63 78 -87 0 -25 -98 -112 -156 -139 -30 -13 -90 -32 -133
-41 -66 -14 -91 -14 -147 -5 -159 28 -234 112 -190 217 29 70 150 176 201 176
12 0 30 -9 40 -20 13 -15 22 -17 36 -9 25 13 24 40 -2 73 -25 32 -66 34 -128
5z"/>
<path d="M27285 17234 c-246 -20 -465 -67 -502 -109 -23 -26 -22 -49 3 -59 9
-3 75 14 147 39 156 53 306 74 592 84 148 5 180 9 180 21 0 8 -11 17 -25 21
-24 7 -316 9 -395 3z"/>
<path d="M27065 17036 c-92 -29 -159 -87 -195 -168 -40 -90 -52 -339 -21 -421
13 -35 38 -45 59 -24 15 15 15 22 -2 88 -15 56 -18 91 -13 172 7 127 26 182
81 239 51 54 109 73 217 73 81 -1 129 -20 129 -52 0 -27 -112 -128 -217 -197
-110 -71 -126 -86 -117 -110 7 -18 0 -17 154 -22 123 -3 205 -21 205 -44 0
-42 -135 -86 -233 -76 -102 11 -114 -34 -15 -54 151 -32 333 45 333 141 0 49
-82 85 -222 96 -43 3 -78 9 -78 13 0 3 38 32 84 64 92 62 141 111 162 163 21
49 0 95 -55 116 -50 20 -196 22 -256 3z"/>
<path d="M20149 17283 c-29 -35 -4 -349 41 -506 12 -40 37 -59 50 -37 9 14 7
36 -17 175 -9 50 -17 149 -18 222 -1 90 -6 137 -15 148 -16 19 -24 19 -41 -2z"/>
<path d="M22032 17209 c-72 -28 -167 -124 -212 -215 -30 -59 -35 -79 -35 -139
0 -56 5 -77 23 -108 36 -56 81 -86 152 -99 83 -14 147 0 270 60 115 56 211
143 230 208 17 57 -2 144 -40 188 -37 42 -127 89 -208 110 -82 21 -115 20
-180 -5z m144 -73 c19 -11 33 -12 46 -5 41 22 169 -77 183 -142 19 -86 -139
-219 -314 -264 -149 -38 -267 30 -246 144 32 176 217 325 331 267z"/>
<path d="M19934 20490 c-213 -48 -382 -148 -575 -340 -185 -184 -259 -348
-215 -473 18 -50 38 -71 94 -98 65 -31 289 -39 407 -15 95 20 185 59 185 80 0
21 -26 20 -96 -5 -75 -27 -261 -37 -360 -20 -84 15 -147 49 -164 91 -17 41 -8
126 20 181 59 116 227 299 355 386 129 87 291 151 427 167 49 6 64 4 96 -14
50 -28 76 -24 80 13 3 24 -2 30 -40 47 -53 24 -108 24 -214 0z"/>
<path d="M24705 20391 c-117 -35 -258 -98 -365 -162 -177 -105 -223 -184 -167
-289 39 -74 195 -152 335 -166 54 -6 62 -5 62 10 0 19 -26 31 -104 45 -115 21
-237 112 -251 187 -13 68 103 158 328 257 192 84 328 109 335 60 5 -32 28 -49
47 -33 21 17 19 49 -5 88 -18 30 -23 32 -72 31 -29 0 -93 -13 -143 -28z"/>
<path d="M27512 20379 c-35 -5 -86 -15 -114 -25 -57 -19 -128 -81 -128 -113 0
-31 34 -97 85 -166 86 -115 125 -179 136 -218 9 -34 8 -44 -8 -66 -41 -56
-176 -99 -212 -67 -34 30 -121 9 -121 -29 0 -33 46 -48 135 -43 71 4 95 10
157 41 87 43 117 71 125 120 7 48 -29 123 -112 231 -81 106 -117 170 -113 198
4 26 54 63 107 78 20 6 73 13 119 17 79 6 104 15 86 33 -15 13 -76 17 -142 9z"/>
<path d="M26012 20283 c-10 -20 -47 -205 -59 -297 l-8 -58 -48 -18 c-59 -23
-77 -37 -77 -62 0 -27 29 -34 62 -15 39 22 50 21 46 -5 -5 -35 16 -30 37 10
19 36 24 38 123 63 105 26 134 41 116 59 -6 6 -42 5 -103 -5 -52 -9 -95 -14
-97 -12 -2 2 13 74 33 161 28 118 35 161 27 174 -16 24 -41 26 -52 5z"/>
<path d="M22235 20260 c-55 -35 -147 -160 -225 -305 -79 -147 -142 -250 -166
-272 -42 -39 -5 -76 47 -46 18 11 45 49 76 108 l48 90 105 7 c58 3 130 8 160
10 l55 3 5 -55 c5 -51 7 -55 30 -55 24 0 25 3 28 61 l3 61 40 12 c29 9 39 17
37 29 -3 13 -12 16 -44 14 l-40 -3 -12 110 c-14 125 -45 236 -68 245 -26 10
-48 6 -79 -14z m65 -174 c11 -50 21 -109 23 -131 l2 -40 -132 -3 c-73 -1 -133
0 -133 3 0 20 131 227 174 273 19 21 22 22 33 6 6 -9 21 -57 33 -108z"/>
<path d="M20178 20180 c-21 -13 -24 -43 -5 -57 6 -6 40 -13 75 -16 61 -7 62
-6 62 18 0 43 -91 80 -132 55z"/>
<path d="M28387 20053 c-19 -36 -79 -317 -75 -346 7 -52 94 -21 168 60 25 27
59 67 77 88 l32 40 0 -41 c2 -84 66 -103 211 -63 114 32 151 34 180 11 23 -19
25 -27 25 -101 -1 -69 1 -81 16 -81 40 0 62 109 35 173 -35 84 -104 105 -226
66 -81 -25 -149 -39 -167 -32 -19 7 -16 24 14 97 22 54 24 68 13 81 -32 38
-70 12 -162 -111 -48 -63 -135 -141 -145 -130 -4 4 10 67 30 141 29 105 35
140 27 155 -15 28 -37 25 -53 -7z"/>
<path d="M20211 20042 c-42 -42 -66 -128 -65 -235 0 -70 4 -91 18 -105 16 -16
18 -16 37 7 15 18 19 39 19 101 0 89 19 162 52 197 17 19 20 28 12 41 -18 27
-42 26 -73 -6z"/>
<path d="M28163 19989 c-131 -172 -208 -223 -259 -172 -14 14 -16 30 -10 99 5
65 3 84 -9 94 -39 32 -73 -20 -74 -113 -2 -91 36 -143 110 -153 98 -13 200 64
274 208 30 58 37 80 28 89 -8 8 -23 -4 -60 -52z"/>
<path d="M24990 20020 c-19 -5 -36 -14 -39 -22 -2 -7 -22 -30 -43 -51 -40 -40
-44 -51 -29 -90 16 -42 70 -67 145 -67 75 0 127 18 169 57 31 30 34 60 11 104
-26 51 -137 86 -214 69z m139 -86 c12 -15 21 -32 21 -39 0 -39 -104 -69 -163
-46 -64 25 -37 77 38 73 35 -1 48 3 57 18 17 26 22 25 47 -6z"/>
<path d="M20732 19979 c-50 -25 -73 -53 -142 -173 -56 -97 -64 -136 -27 -136
36 0 47 13 88 106 44 97 82 154 104 154 8 0 36 -45 65 -105 51 -108 71 -125
100 -90 12 14 -2 59 -57 188 -17 38 -55 77 -77 77 -6 0 -30 -10 -54 -21z"/>
<path d="M25367 19978 c-43 -34 -48 -115 -9 -158 51 -58 170 -60 288 -4 58 28
134 103 134 134 0 29 -16 25 -68 -19 -68 -56 -128 -83 -198 -89 -95 -7 -122
19 -94 94 17 43 -16 69 -53 42z"/>
<path d="M15403 19503 c-25 -9 -15 -53 15 -65 15 -7 46 -25 69 -41 31 -22 48
-28 67 -23 15 4 72 -4 133 -18 213 -49 710 -149 798 -161 28 -4 66 -11 85 -15
144 -36 1094 -182 1490 -229 274 -32 295 -34 308 -19 6 8 8 19 4 25 -4 6 -88
20 -187 32 -783 95 -1585 231 -2285 387 -250 55 -346 82 -412 115 -37 19 -61
22 -85 12z"/>
<path d="M18021 19146 c-15 -18 -3 -46 20 -46 71 0 559 -200 559 -230 0 -4
-30 -15 -67 -24 -82 -19 -583 -111 -933 -171 -171 -30 -202 -37 -207 -52 -2
-6 4 -13 14 -15 42 -11 1066 155 1187 192 76 24 121 57 111 82 -9 24 -268 149
-410 199 -66 23 -137 50 -157 60 -44 22 -101 25 -117 5z"/>
<path d="M2922 18916 c-97 -32 -190 -125 -261 -261 -31 -59 -65 -190 -57 -217
2 -7 7 -25 10 -41 8 -32 68 -103 105 -121 69 -35 204 -27 307 19 125 55 324
248 339 328 15 77 -31 163 -115 218 -119 77 -237 104 -328 75z m214 -62 c70
-33 149 -110 162 -157 18 -66 0 -101 -107 -208 -103 -103 -160 -139 -263 -165
-74 -19 -166 -14 -204 11 -61 40 -71 170 -22 275 30 66 97 158 118 164 8 2 27
7 43 10 27 6 38 38 17 51 -23 14 1 33 65 49 42 10 137 -4 191 -30z"/>
<path d="M5542 18858 c-6 -8 -7 -32 -2 -63 4 -27 9 -90 11 -140 l4 -90 -125 0
c-123 0 -125 0 -128 -23 -7 -47 9 -52 144 -45 l124 6 0 -47 c0 -34 4 -48 16
-53 21 -8 34 14 34 59 l0 36 63 7 c84 9 97 13 97 35 0 25 -21 31 -89 23 -76
-7 -81 0 -79 144 2 89 -1 116 -15 137 -19 28 -39 33 -55 14z"/>
<path d="M4820 18835 c-25 -66 -3 -286 39 -380 33 -74 45 -59 35 43 -5 48 -9
148 -9 222 l0 135 -27 3 c-22 3 -30 -2 -38 -23z"/>
<path d="M6245 18771 c-46 -21 -105 -83 -105 -111 0 -34 21 -33 59 4 32 32 61
46 61 31 0 -3 -21 -31 -46 -62 -57 -70 -74 -108 -74 -168 0 -115 90 -182 206
-154 41 10 62 25 132 96 124 124 148 194 93 269 -39 53 -58 69 -114 93 -62 27
-156 28 -212 2z m208 -67 c43 -22 66 -43 83 -76 13 -24 12 -32 -1 -63 -18 -45
-126 -158 -170 -179 -63 -30 -146 -11 -165 38 -21 57 45 179 132 245 27 19 48
39 48 43 0 13 39 9 73 -8z"/>
<path d="M9217 18784 c-3 -3 -39 -12 -79 -19 -202 -35 -369 -177 -355 -301 6
-55 32 -85 100 -115 168 -73 554 6 611 125 46 97 -13 245 -117 295 -41 20
-145 30 -160 15z m142 -88 c50 -26 72 -57 86 -123 18 -86 -86 -151 -292 -184
-149 -24 -304 12 -311 73 -7 61 73 151 183 205 54 26 78 33 106 29 23 -4 42
-1 55 9 31 23 117 19 173 -9z"/>
<path d="M12186 18701 c-7 -10 -41 -300 -51 -429 -5 -70 -4 -83 9 -88 27 -10
43 14 50 74 4 31 18 135 32 230 20 134 24 179 15 198 -10 24 -44 33 -55 15z"/>
<path d="M3980 18534 c-6 -14 -10 -28 -10 -32 0 -4 -41 -15 -92 -24 -100 -19
-124 -33 -113 -68 6 -20 12 -22 49 -17 22 4 66 13 95 22 39 10 57 12 62 4 3
-6 9 -40 13 -76 8 -73 20 -103 41 -103 23 0 25 14 14 100 -8 66 -7 86 3 96 7
7 60 20 117 28 57 8 106 18 109 20 2 3 2 13 -2 22 -6 15 -18 16 -105 11 -97
-6 -100 -6 -115 18 -22 33 -54 32 -66 -1z"/>
<path d="M27340 18257 c-54 -15 -104 -51 -149 -107 -49 -61 -117 -196 -137
-270 -10 -36 -24 -73 -32 -82 -22 -26 -9 -44 42 -57 102 -25 279 -9 373 36 96
45 118 104 62 168 l-32 36 36 32 c98 91 54 234 -78 251 -22 3 -60 0 -85 -7z
m119 -62 c51 -26 54 -68 10 -113 -35 -36 -86 -53 -172 -56 -57 -3 -76 -14 -77
-42 0 -21 25 -32 90 -39 65 -7 160 -40 160 -56 0 -24 -100 -68 -200 -88 -99
-19 -140 -20 -140 -6 0 8 5 17 10 20 16 10 12 53 -7 63 -15 9 -15 13 1 53 24
60 98 178 133 211 37 36 101 67 136 68 15 0 41 -7 56 -15z"/>
<path d="M19948 18236 c-36 -16 -83 -58 -113 -101 -37 -55 -35 -132 5 -212 37
-75 84 -112 162 -130 104 -24 202 6 305 93 63 54 95 104 95 148 0 43 -33 107
-73 140 -84 71 -146 78 -296 31 -16 -5 -23 -2 -27 13 -9 27 -26 32 -58 18z
m309 -94 c41 -21 83 -71 83 -98 0 -26 -36 -77 -77 -110 -103 -83 -226 -103
-312 -51 -38 23 -81 104 -81 153 0 35 33 89 70 113 l24 16 -17 -25 c-9 -13
-17 -30 -17 -37 0 -19 34 -16 61 6 82 63 182 75 266 33z"/>
<path d="M17966 18224 c-9 -8 -16 -19 -16 -23 0 -15 25 -31 50 -31 15 0 69 -9
121 -20 196 -42 288 -60 403 -76 66 -9 138 -22 160 -28 40 -12 41 -12 18 -25
-13 -7 -159 -59 -325 -116 -584 -199 -670 -231 -681 -247 -6 -10 -7 -20 -4
-24 13 -12 151 30 568 174 63 22 186 63 273 91 87 28 178 61 201 72 51 24 88
56 83 72 -7 24 -77 47 -202 67 -204 33 -320 57 -459 95 -145 39 -168 42 -190
19z"/>
<path d="M4878 18153 c-29 -34 -38 -89 -39 -248 -1 -203 18 -296 55 -282 13 5
15 21 10 114 -7 124 9 306 31 359 25 59 -18 102 -57 57z"/>
<path d="M6317 18077 c-35 -27 -40 -65 -57 -417 -6 -113 -11 -214 -13 -225 -1
-14 4 -20 18 -20 29 0 36 46 69 405 8 84 20 162 30 184 19 45 16 60 -12 75
-14 7 -24 7 -35 -2z"/>
<path d="M17565 18039 c-723 -23 -1190 -41 -1385 -54 -373 -24 -761 -40 -1260
-51 -162 -3 -298 -8 -302 -10 -3 -2 -109 -4 -235 -5 -227 0 -341 8 -503 36
-112 20 -214 20 -230 0 -6 -8 -10 -22 -8 -32 2 -14 14 -19 58 -21 30 -1 132
-11 225 -21 241 -28 374 -33 580 -21 99 5 331 15 515 20 372 11 902 35 1110
50 452 32 1093 52 1803 56 350 1 642 6 647 9 6 3 10 10 10 14 0 7 -361 28
-610 35 -80 2 -266 0 -415 -5z"/>
<path d="M5741 18026 c-7 -8 -15 -40 -18 -71 l-6 -57 -71 9 c-121 14 -176 11
-192 -11 -12 -17 -12 -23 0 -40 13 -20 21 -21 135 -17 l121 3 0 -33 c0 -19 -5
-51 -11 -73 -12 -45 -5 -86 16 -86 20 0 33 29 48 102 l13 63 68 -3 c66 -4 68
-3 64 20 -2 18 -13 26 -48 36 -25 8 -51 16 -58 18 -11 3 -12 18 -7 64 5 42 3
65 -5 75 -16 19 -34 19 -49 1z"/>
<path d="M9016 17978 c-16 -84 -68 -441 -73 -496 -5 -72 7 -122 31 -122 21 0
27 14 32 73 8 102 15 154 44 305 34 174 39 225 20 247 -19 23 -49 19 -54 -7z"/>
<path d="M4113 17908 c4 -35 9 -79 13 -99 l6 -36 -83 -12 c-119 -17 -126 -19
-133 -36 -18 -47 28 -63 117 -41 96 24 104 23 112 -22 8 -50 19 -66 40 -58 13
5 16 17 13 58 l-3 53 105 8 c113 9 138 19 105 44 -16 12 -38 14 -111 9 -62 -4
-94 -2 -102 6 -7 7 -12 44 -12 88 0 82 -9 100 -48 100 -24 0 -25 -1 -19 -62z"/>
<path d="M2790 17880 c-88 -25 -215 -122 -250 -191 -38 -73 -22 -169 40 -247
56 -72 111 -95 219 -95 126 0 225 39 342 136 111 92 147 167 118 244 -22 59
-105 124 -188 148 -48 14 -237 18 -281 5z m318 -78 c25 -15 59 -44 75 -64 45
-56 34 -95 -55 -180 -127 -124 -269 -176 -400 -149 -49 11 -63 19 -93 56 -77
93 -74 196 9 278 31 31 103 77 121 77 3 0 -8 -19 -25 -42 -28 -38 -38 -68 -24
-68 4 0 33 25 66 55 74 68 106 73 140 20 23 -36 50 -51 68 -40 15 9 12 38 -5
61 -8 10 -15 23 -15 28 0 17 93 -4 138 -32z"/>
<path d="M11935 17873 c-51 -7 -137 -34 -185 -58 -66 -34 -147 -110 -176 -166
-31 -62 -33 -152 -4 -208 51 -102 239 -191 401 -191 190 0 373 82 430 192 89
173 -2 334 -217 384 -38 9 -85 22 -104 29 -41 16 -102 23 -145 18z m67 -89
c29 -4 65 -14 81 -23 22 -12 31 -13 46 -4 54 34 217 -64 237 -143 13 -52 -1
-131 -31 -169 -32 -42 -122 -89 -212 -111 -69 -16 -200 -18 -263 -3 -68 16
-166 66 -210 108 -36 34 -40 43 -40 87 0 91 69 171 195 230 71 33 110 44 132
38 7 -2 36 -6 65 -10z"/>
<path d="M7252 17802 c-16 -5 -15 -37 1 -50 15 -13 82 -29 148 -37 l46 -6 2
-331 c1 -182 3 -334 6 -338 2 -4 5 -41 6 -84 2 -72 3 -77 26 -82 29 -8 40 1
25 18 -6 8 -11 98 -12 233 -1 121 -5 300 -8 399 -8 203 -13 190 82 199 67 7
86 19 70 45 -9 14 -23 16 -77 14 -36 -2 -74 1 -86 7 -14 8 -21 8 -21 1 0 -14
-86 -13 -146 3 -28 7 -56 11 -62 9z"/>
<path d="M17958 16991 c-120 -6 -143 -14 -136 -47 3 -17 12 -19 108 -14 155 7
467 6 475 -2 17 -16 -8 -58 -57 -96 -52 -40 -394 -241 -633 -372 -70 -38 -121
-73 -123 -83 -11 -54 100 -2 632 304 187 107 292 210 266 259 -24 45 -64 54
-245 56 -93 1 -223 -2 -287 -5z"/>
<path d="M4306 16943 c-3 -3 -61 -5 -130 -4 -85 1 -127 -2 -131 -10 -12 -19
17 -29 70 -23 28 3 228 7 445 9 275 1 395 6 398 13 2 6 -7 14 -20 17 -31 7
-302 0 -316 -9 -6 -3 -13 -2 -17 3 -6 11 -111 9 -122 -2 -3 -4 -12 -2 -20 5
-10 8 -17 8 -25 0 -6 -6 -24 -9 -39 -6 -16 2 -42 6 -58 9 -16 2 -31 1 -35 -2z"/>
<path d="M4976 16941 c-7 -11 14 -18 87 -24 47 -5 74 7 40 17 -46 12 -121 17
-127 7z"/>
<path d="M3845 16933 c-141 -2 -646 -19 -805 -28 -47 -3 -139 -7 -205 -10 -66
-3 -172 -7 -235 -10 -108 -5 -433 -27 -885 -60 -110 -7 -247 -17 -305 -20
-137 -7 -499 -35 -526 -41 -25 -4 -36 -25 -24 -44 6 -10 49 -8 221 8 118 12
277 26 354 32 77 6 181 15 230 20 87 9 353 29 675 50 154 10 542 29 985 50
379 17 495 21 599 23 63 1 101 6 103 13 5 16 -25 19 -182 17z"/>
<path d="M5149 16929 c-9 -6 -1 -9 26 -9 22 -1 59 -3 83 -6 35 -5 41 -3 36 9
-4 12 -21 15 -68 15 -35 0 -70 -4 -77 -9z"/>
<path d="M5350 16930 c-12 -8 -12 -10 5 -10 11 0 31 -3 45 -7 22 -6 24 -5 11
10 -15 19 -38 22 -61 7z"/>
<path d="M5430 16930 c0 -5 10 -10 23 -10 18 0 19 2 7 10 -19 13 -30 13 -30 0z"/>
<path d="M5500 16925 c14 -16 40 -20 40 -6 0 9 -24 21 -42 21 -6 0 -6 -6 2
-15z"/>
<path d="M5728 16914 c20 -14 27 -14 65 -1 l42 15 -65 1 c-61 1 -63 0 -42 -15z"/>
<path d="M5855 16920 c3 -5 10 -10 16 -10 5 0 9 5 9 10 0 6 -7 10 -16 10 -8 0
-12 -4 -9 -10z"/>
<path d="M5943 16923 c-34 -4 -46 -22 -15 -24 31 -2 97 3 101 7 12 12 -41 22
-86 17z"/>
<path d="M18010 16898 c-74 -17 -349 -80 -610 -140 -261 -60 -632 -145 -825
-189 -598 -136 -717 -165 -1195 -288 -173 -45 -346 -87 -385 -92 -78 -12 -97
-23 -93 -53 6 -41 79 -26 738 154 211 58 555 141 860 210 124 27 293 66 375
85 264 63 491 114 880 201 209 46 390 89 403 94 26 11 27 44 2 46 -8 1 -76
-12 -150 -28z"/>
<path d="M5608 16908 c8 -8 17 -8 34 0 22 10 21 11 -11 11 -27 1 -32 -2 -23
-11z"/>
<path d="M6040 16911 c0 -5 32 -9 71 -10 39 0 74 -3 78 -5 7 -5 138 -7 239 -4
28 1 52 5 52 10 0 11 22 9 -222 14 -129 3 -218 1 -218 -5z"/>
<path d="M6544 16899 c-5 -8 12 -10 55 -6 82 6 90 17 13 17 -34 0 -64 -5 -68
-11z"/>
<path d="M6705 16900 c-8 -12 -12 -12 120 -14 143 -3 177 9 49 17 -134 9 -162
9 -169 -3z"/>
<path d="M7050 16890 c0 -5 -7 -10 -16 -10 -8 0 -13 -4 -9 -10 4 -6 15 -5 30
2 18 8 28 8 38 -1 11 -9 17 -8 26 2 6 8 8 17 4 20 -10 11 -73 8 -73 -3z"/>
<path d="M7170 16881 c0 -11 26 -22 34 -14 3 3 3 10 0 14 -7 12 -34 11 -34 0z"/>
<path d="M7241 16876 c-10 -12 -3 -15 36 -18 56 -5 60 -4 43 17 -16 19 -64 20
-79 1z"/>
<path d="M7666 16872 c-24 -6 -27 -9 -15 -19 8 -7 30 -12 49 -12 39 1 171 -7
335 -19 71 -6 118 -5 133 2 18 7 26 6 32 -4 6 -10 46 -13 172 -14 89 -1 166
-5 169 -9 7 -10 25 -11 117 -5 35 2 65 1 67 -3 8 -12 87 -18 113 -8 15 6 29 6
36 0 6 -5 38 -8 71 -7 33 2 120 -3 192 -11 73 -8 137 -12 141 -9 4 3 26 1 48
-4 39 -8 155 -16 369 -25 61 -3 175 -10 255 -15 80 -5 197 -12 260 -15 63 -4
138 -8 165 -10 28 -3 95 -7 150 -10 55 -3 204 -12 330 -20 127 -8 274 -17 327
-20 53 -3 107 -9 120 -14 l23 -10 -25 -2 c-14 -1 -196 -1 -405 -1 -209 1 -510
-4 -670 -10 -219 -8 -344 -8 -510 1 -288 16 -609 45 -820 76 -263 37 -389 53
-665 81 -238 24 -693 64 -750 65 -14 1 -225 7 -470 15 -465 14 -836 20 -1862
30 -559 6 -857 0 -1143 -21 -33 -2 -130 -7 -215 -10 -374 -13 -588 -32 -905
-80 -184 -29 -263 -44 -429 -86 -148 -38 -166 -45 -166 -64 0 -20 55 -20 128
2 92 26 395 92 429 93 9 0 11 -10 6 -31 -5 -25 -2 -31 15 -35 21 -6 26 -24 37
-159 13 -148 39 -341 48 -352 31 -41 35 52 12 306 -17 194 -23 229 -41 258
-17 27 -12 30 52 37 27 4 123 15 214 26 91 10 239 22 330 25 184 6 248 9 664
31 342 18 1022 20 1536 5 201 -6 482 -9 625 -7 143 2 316 0 385 -4 69 -4 217
-11 330 -15 336 -11 402 -14 408 -20 4 -3 6 -31 7 -62 0 -53 -2 -58 -25 -63
-17 -4 -26 -14 -28 -31 -3 -27 11 -44 43 -52 11 -2 1 -3 -22 -1 -27 2 -45 -2
-53 -11 -18 -22 5 -53 45 -61 19 -3 37 -10 40 -13 2 -4 6 -115 9 -247 3 -131
8 -272 12 -312 l7 -74 -64 4 c-50 2 -64 0 -66 -12 -6 -29 21 -51 72 -58 l50
-7 3 -49 3 -48 -38 7 c-123 23 -188 33 -199 28 -17 -6 -18 -49 -2 -59 7 -4 62
-15 122 -23 l111 -16 3 -202 2 -203 -37 0 c-21 0 -117 5 -213 10 -436 23 -610
29 -965 35 -439 7 -622 12 -865 25 -96 5 -393 12 -660 16 -266 3 -487 7 -491
9 -3 3 -107 7 -230 10 -369 9 -514 14 -714 25 -104 5 -281 14 -392 20 -111 5
-246 14 -300 20 -54 5 -191 14 -304 20 -236 11 -541 55 -662 95 -180 59 -358
175 -418 271 -36 60 -14 133 74 248 137 175 416 358 736 482 73 29 88 41 78
68 -5 12 -19 10 -79 -14 -144 -55 -383 -177 -468 -239 -70 -51 -195 -157 -219
-184 -13 -16 -41 -47 -62 -68 -21 -22 -55 -74 -76 -116 -32 -65 -38 -87 -38
-142 0 -60 3 -70 33 -107 90 -112 300 -231 488 -277 179 -44 409 -72 679 -82
88 -4 197 -11 243 -16 111 -13 617 -37 1047 -49 193 -6 425 -15 517 -20 92 -6
342 -10 555 -10 213 0 451 -4 528 -10 199 -13 385 -19 830 -25 494 -7 680 -13
985 -31 135 -8 280 -14 323 -14 53 0 79 -4 81 -12 3 -7 7 -88 10 -180 l6 -167
-29 -15 c-35 -19 -45 -41 -26 -60 18 -17 77 -11 113 12 18 12 44 14 125 9 56
-4 121 -9 145 -13 38 -6 42 -5 42 13 0 37 -97 63 -231 63 l-96 0 -6 167 c-4
92 -5 169 -3 170 2 2 176 -3 387 -11 211 -9 749 -21 1194 -26 936 -12 1481
-25 1715 -40 718 -47 1351 -61 1627 -36 482 43 923 169 1165 332 96 65 208
186 249 269 54 110 44 193 -38 317 -101 153 -323 310 -583 411 -254 99 -708
194 -1085 227 -212 18 -438 40 -520 50 -105 12 -396 36 -675 55 -245 16 -417
29 -696 49 -100 8 -230 14 -289 15 -60 1 -111 4 -115 6 -3 2 -62 6 -130 9 -69
4 -147 9 -175 11 -27 3 -106 7 -175 10 -69 3 -287 15 -485 26 -198 11 -416 22
-485 25 -69 2 -146 6 -171 9 -48 4 -218 13 -349 20 -41 2 -109 6 -150 9 -41 3
-88 2 -104 -2z m19 -112 c50 -6 169 -17 265 -25 96 -8 211 -20 255 -25 44 -5
130 -14 190 -20 120 -11 439 -45 550 -59 39 -5 131 -17 205 -26 74 -9 146 -19
160 -22 23 -6 22 -7 -12 -15 -21 -6 -38 -13 -38 -18 0 -10 304 -20 498 -17
l154 2 22 -27 c12 -16 27 -28 33 -28 26 0 63 24 63 40 0 15 14 19 98 24 179
11 1502 17 1672 7 188 -11 388 -43 634 -101 93 -22 180 -40 193 -40 38 0 27
29 -19 50 -24 11 -34 18 -23 15 11 -2 52 -11 91 -19 235 -49 460 -113 607
-173 319 -129 553 -338 574 -512 17 -145 -146 -338 -382 -452 -208 -100 -565
-194 -885 -233 -340 -42 -591 -37 -1855 34 -219 12 -1008 30 -1580 35 -660 6
-1139 15 -1275 25 -69 5 -171 10 -227 10 l-103 0 0 113 c0 63 -3 156 -7 207
l-6 93 84 -5 c117 -7 151 -1 147 26 -3 19 -11 22 -98 28 -141 11 -140 10 -140
62 l0 44 108 6 c264 16 286 20 266 53 -10 16 -26 18 -171 14 -88 -2 -169 0
-182 4 -21 6 -22 10 -18 118 5 129 -8 454 -18 487 -7 22 -6 23 46 17 30 -4 91
-10 136 -13 74 -6 83 -5 89 11 11 26 -22 45 -77 45 -81 0 -209 31 -209 51 0
19 61 22 220 11 164 -10 194 -7 172 21 -19 23 -80 35 -232 47 -80 7 -147 14
-150 15 -8 5 -11 105 -4 116 7 12 66 11 179 -1z"/>
<path d="M8765 16583 c-66 -20 -107 -52 -130 -102 -16 -37 -17 -47 -6 -96 33
-149 197 -239 431 -237 177 1 318 56 341 130 10 33 8 45 -11 90 -26 60 -101
135 -162 161 -24 10 -72 21 -108 25 -36 3 -94 15 -128 26 -75 23 -157 25 -227
3z m189 -42 c3 -4 -13 -16 -35 -26 -42 -19 -89 -67 -89 -90 0 -27 21 -26 49 2
45 45 77 63 126 70 37 5 50 2 68 -14 55 -50 97 -53 97 -7 l0 26 43 -25 c69
-41 132 -153 114 -201 -9 -24 -48 -44 -117 -62 -79 -20 -247 -15 -327 10 -56
18 -124 65 -156 108 -24 32 -35 125 -18 156 21 39 79 61 163 62 42 0 79 -4 82
-9z"/>
<path d="M12055 16460 c-3 -6 -8 -77 -10 -158 -2 -90 -9 -171 -19 -210 -9 -35
-14 -68 -10 -73 10 -17 43 -9 58 14 57 86 71 387 20 424 -21 16 -31 16 -39 3z"/>
<path d="M8907 15843 c-17 -16 4 -464 23 -510 5 -13 16 -23 24 -23 30 0 39 40
33 139 -14 227 -27 383 -33 392 -6 10 -38 12 -47 2z"/>
<path d="M11835 15840 c-65 -13 -148 -48 -192 -80 -50 -37 -73 -83 -73 -144 0
-95 48 -153 173 -211 145 -67 361 -106 472 -86 201 37 300 233 179 354 -38 38
-116 79 -174 92 -19 4 -49 19 -67 32 -18 14 -53 31 -79 39 -50 15 -173 17
-239 4z m72 -57 c-10 -3 -17 -12 -15 -20 2 -13 22 -17 103 -19 148 -5 165 -9
172 -44 10 -54 53 -66 53 -14 0 30 0 30 59 -1 128 -64 143 -135 54 -252 -38
-50 -92 -67 -203 -65 -149 2 -360 67 -436 134 -78 68 -67 193 21 241 34 19
138 46 175 45 19 0 27 -2 17 -5z"/>
<path d="M4823 16750 c-112 -40 -216 -131 -249 -215 -19 -52 -9 -101 39 -171
57 -86 134 -121 247 -111 94 9 231 80 322 167 83 80 88 108 34 189 -19 28 -36
58 -38 67 -2 9 -34 33 -73 53 -61 31 -80 36 -150 38 -59 2 -94 -3 -132 -17z
m177 -38 c0 -4 -10 -12 -22 -17 -38 -17 -26 -30 32 -36 62 -7 92 -19 134 -58
40 -37 50 -68 31 -98 -68 -103 -289 -209 -395 -190 -59 12 -99 43 -125 100
-14 28 -25 62 -25 75 0 76 107 181 225 218 44 14 145 18 145 6z"/>
<path d="M5651 16721 c-7 -5 -16 -33 -19 -62 l-7 -54 -59 -7 c-82 -11 -107
-36 -70 -73 13 -13 28 -15 71 -9 65 8 73 1 73 -68 0 -59 7 -78 31 -78 17 0 19
8 19 79 l0 78 38 7 c20 3 55 6 77 6 53 0 74 13 59 37 -8 13 -26 19 -70 21
-103 4 -104 5 -97 61 5 42 3 50 -14 59 -10 6 -25 7 -32 3z"/>
<path d="M6383 16718 c-13 -6 -23 -19 -23 -30 0 -16 8 -18 63 -18 91 0 164
-24 209 -70 53 -52 50 -77 -13 -139 -36 -36 -87 -68 -182 -115 -195 -97 -303
-115 -362 -60 -34 32 -35 117 -1 189 26 55 48 79 115 120 39 24 49 26 102 20
50 -6 60 -4 65 10 10 25 -27 56 -73 62 -89 12 -244 -104 -279 -209 -23 -69
-15 -174 15 -217 50 -70 152 -88 271 -48 142 48 312 139 383 206 116 107 48
252 -140 297 -69 16 -120 17 -150 2z"/>
<path d="M3915 16562 l7 -79 -78 -9 c-64 -7 -80 -12 -82 -27 -7 -36 16 -47 99
-47 l78 0 12 -55 c14 -63 30 -83 49 -60 10 12 10 25 1 60 -6 26 -9 50 -6 54 2
5 54 12 115 16 82 5 110 10 110 20 0 24 -22 30 -130 35 l-105 5 -3 65 c-3 69
-20 100 -54 100 -18 0 -19 -5 -13 -78z"/>
<path d="M22157 16167 c-35 -27 -63 -254 -54 -446 6 -141 33 -374 47 -408 10
-25 35 -31 43 -10 2 6 -2 86 -10 177 -18 202 -12 487 11 573 9 32 16 69 16 82
0 31 -31 49 -53 32z"/>
<path d="M20046 16048 c-19 -29 -34 -288 -25 -431 7 -107 43 -337 63 -397 13
-42 43 -52 51 -17 4 13 -1 61 -9 107 -23 120 -46 314 -46 390 0 36 5 127 12
202 10 111 9 139 -1 152 -18 22 -28 20 -45 -6z"/>
<path d="M4883 16010 c-74 -37 -145 -111 -181 -188 -21 -45 -27 -76 -30 -145
-4 -83 -2 -93 27 -152 51 -103 120 -144 225 -131 78 9 144 48 243 143 114 110
144 161 151 253 4 61 1 76 -23 126 -43 89 -119 123 -226 104 -52 -10 -64 -9
-78 4 -24 22 -39 20 -108 -14z m297 -58 c90 -45 104 -148 36 -261 -40 -65
-145 -168 -213 -208 -55 -32 -138 -41 -180 -19 -131 67 -116 322 26 447 51 46
85 52 75 15 -8 -35 13 -42 49 -15 82 60 145 73 207 41z"/>
<path d="M5722 15968 c-8 -8 -12 -48 -12 -114 0 -57 -3 -105 -7 -107 -5 -2
-37 -1 -73 3 -80 8 -110 -1 -110 -34 0 -35 15 -41 105 -41 l80 0 -3 -55 c-2
-37 2 -62 12 -75 21 -28 33 -11 43 60 l8 60 103 -4 c71 -2 107 1 117 9 41 34
-8 57 -129 59 -38 1 -73 4 -78 8 -6 3 -7 47 -3 109 6 77 4 108 -5 119 -15 18
-32 19 -48 3z"/>
<path d="M6331 15966 c-44 -53 -34 -580 12 -608 25 -16 29 9 22 151 -7 146 5
318 27 392 17 60 -27 107 -61 65z"/>
<path d="M4099 15944 c-10 -13 -11 -33 -1 -107 6 -49 9 -94 6 -98 -2 -4 -28
-5 -57 -2 -60 6 -97 -8 -97 -35 0 -34 22 -42 106 -42 l82 0 17 -51 c12 -37 21
-49 33 -47 13 3 16 13 14 50 -3 44 -2 46 29 52 17 3 66 6 108 6 82 0 107 9 98
34 -4 11 -19 16 -49 17 -114 1 -202 9 -212 19 -6 6 -12 52 -14 103 -3 70 -7
95 -20 105 -21 16 -27 15 -43 -4z"/>
<path d="M24562 15862 c-38 -43 -102 -123 -142 -178 -40 -54 -77 -103 -81
-108 -5 -6 -16 -2 -28 8 -11 10 -30 16 -43 14 -30 -4 -37 -51 -12 -79 16 -18
14 -22 -62 -105 -43 -47 -102 -105 -130 -128 -59 -46 -70 -66 -54 -96 27 -50
76 -13 220 165 40 50 76 91 81 93 5 2 26 -6 46 -17 77 -41 120 -54 208 -60
l90 -6 2 -30 c10 -121 27 -263 35 -277 12 -24 34 -23 51 3 17 23 13 78 -9 147
-8 23 -14 69 -14 101 0 57 1 59 31 70 32 11 32 31 0 31 -10 0 -23 6 -29 13 -5
7 -12 106 -14 227 -7 321 -26 348 -146 212z m72 -54 c3 -13 8 -105 11 -205 l6
-182 -38 5 c-67 10 -205 56 -229 78 l-23 21 85 105 c176 217 179 220 188 178z"/>
<path d="M27055 15889 c-127 -45 -214 -127 -275 -262 -38 -84 -80 -228 -80
-275 0 -27 -7 -42 -27 -58 -23 -19 -26 -26 -17 -41 18 -30 70 -29 99 3 22 23
25 36 25 96 0 114 69 289 152 383 24 27 65 57 106 77 62 31 73 33 172 33 89 0
113 -4 157 -24 86 -38 163 -137 163 -209 0 -7 -19 -32 -43 -55 -35 -35 -60
-49 -137 -74 -117 -39 -254 -68 -385 -83 -124 -14 -135 -17 -135 -39 0 -25 31
-36 183 -66 131 -26 216 -55 294 -101 51 -29 48 -37 -20 -77 -95 -55 -185 -80
-312 -85 -97 -3 -128 -1 -159 12 -48 20 -69 7 -42 -23 54 -60 233 -75 381 -32
133 39 275 121 275 160 0 24 -69 84 -130 116 -38 19 -121 48 -240 84 -20 7
-12 10 40 16 176 21 373 86 446 148 47 40 59 77 45 140 -22 97 -106 185 -220
228 -84 32 -236 37 -316 8z"/>
<path d="M2974 15852 c-7 -4 -19 -29 -28 -56 -15 -44 -15 -51 -1 -72 8 -13 22
-54 30 -91 31 -142 39 -168 59 -171 17 -4 18 0 12 49 -3 30 -10 77 -16 104 -5
28 -9 87 -9 132 -1 60 -5 86 -17 97 -18 18 -16 18 -30 8z"/>
<path d="M18066 15782 c-34 -8 -52 -32 -42 -57 5 -14 14 -16 44 -11 45 7 361
18 347 11 -5 -2 -131 -36 -280 -75 -276 -73 -705 -211 -990 -318 -88 -33 -295
-110 -460 -172 -165 -61 -345 -129 -400 -150 -55 -21 -224 -86 -375 -144 -151
-58 -432 -168 -625 -246 -922 -372 -1103 -442 -1188 -466 -121 -33 -142 -44
-142 -74 0 -18 6 -26 22 -28 36 -5 336 110 1018 393 181 75 821 331 1000 400
33 13 101 39 150 58 108 42 530 201 670 252 216 79 316 116 450 166 173 64
423 149 541 184 241 71 402 116 537 149 81 20 164 43 184 51 53 22 173 18 173
-7 0 -23 -58 -82 -215 -215 -206 -175 -335 -300 -335 -325 0 -25 32 -23 56 3
21 25 196 173 350 296 115 93 221 204 231 241 8 34 -21 57 -90 72 -59 13 -586
23 -631 12z"/>
<path d="M3043 15138 c-12 -21 -6 -238 12 -412 22 -216 27 -240 48 -244 27 -5
28 75 1 362 -9 98 -14 197 -11 219 3 22 1 50 -4 63 -9 26 -33 32 -46 12z"/>
<path d="M4303 15078 c-6 -7 -13 -44 -16 -82 -4 -38 -8 -71 -11 -73 -2 -2 -41
-7 -87 -11 -75 -6 -84 -9 -87 -28 -6 -42 22 -55 100 -47 l71 6 -5 -54 c-6 -62
-2 -79 18 -79 18 0 34 40 34 84 0 54 16 60 143 52 61 -4 121 -9 132 -12 31 -7
52 11 39 33 -13 21 -106 40 -204 42 -93 2 -97 5 -81 85 7 36 11 73 7 81 -7 18
-40 20 -53 3z"/>
<path d="M5006 15081 c-14 -23 20 -248 59 -391 56 -206 88 -176 44 42 -11 57
-24 155 -28 218 -4 64 -10 121 -15 128 -8 14 -52 16 -60 3z"/>
<path d="M5815 14966 c-12 -18 -45 -163 -45 -198 0 -12 -42 -10 -150 8 -81 14
-102 15 -115 4 -18 -15 -20 -56 -3 -67 7 -4 65 -10 129 -14 64 -4 122 -10 128
-13 6 -4 11 -32 11 -62 0 -42 3 -54 15 -54 18 0 35 39 35 81 l0 29 64 0 c44 0
67 5 76 15 18 22 -4 45 -44 46 -17 1 -42 4 -56 8 -21 6 -25 12 -22 41 2 19 15
63 28 97 20 49 23 67 14 83 -14 27 -46 25 -65 -4z"/>
<path d="M9001 14957 c-33 -86 -48 -300 -32 -452 16 -143 19 -155 43 -155 19
0 19 6 12 203 -6 175 -4 214 11 287 25 118 25 134 -2 138 -17 3 -26 -3 -32
-21z"/>
<path d="M11810 14926 c-196 -52 -331 -151 -375 -275 -30 -85 -10 -153 66
-229 91 -90 247 -140 409 -129 285 18 449 152 458 372 4 76 2 82 -27 122 -21
29 -50 51 -95 73 -36 17 -68 35 -71 40 -3 5 -35 19 -71 30 -87 26 -185 25
-294 -4z m301 -72 c77 -22 85 -37 53 -91 -29 -50 -26 -76 8 -71 16 2 30 18 48
55 14 29 30 53 37 53 6 0 23 -14 37 -31 59 -70 13 -235 -91 -329 -59 -54 -124
-77 -258 -93 -163 -19 -307 24 -393 117 -52 56 -67 108 -50 173 21 86 168 206
273 224 82 13 279 10 336 -7z"/>
<path d="M6396 14740 c-157 -122 -203 -350 -91 -449 87 -76 270 -43 402 73 57
50 128 150 143 203 39 130 -68 213 -257 200 -48 -4 -85 -2 -88 4 -13 20 -62 7
-109 -31z m325 -50 c73 -20 96 -68 62 -133 -69 -135 -225 -247 -345 -247 -70
0 -99 12 -123 52 -38 65 4 204 85 283 35 34 49 41 98 46 93 10 185 10 223 -1z"/>
<path d="M7447 14676 c-56 -7 -91 -17 -97 -26 -13 -20 -12 -26 5 -40 12 -10
33 -11 91 -4 41 6 78 7 83 4 12 -7 20 -206 27 -682 l6 -418 -105 0 c-114 0
-132 -9 -99 -50 16 -19 27 -20 167 -20 232 0 435 14 469 32 49 26 13 33 -199
38 l-200 5 3 55 c10 161 1 805 -12 915 -9 72 -11 124 -5 129 6 6 47 5 111 -4
133 -17 160 -18 165 -2 8 21 -75 49 -182 62 -55 6 -109 13 -120 15 -11 2 -60
-2 -108 -9z"/>
<path d="M5133 13959 c-22 -8 -27 -21 -37 -90 -4 -37 -1 -66 29 -294 9 -66 21
-158 26 -205 23 -194 33 -245 52 -248 15 -3 17 5 17 55 0 32 -10 162 -22 288
-23 239 -27 371 -14 442 7 35 6 43 -10 51 -11 6 -28 6 -41 1z"/>
<path d="M4111 13951 c-12 -8 -12 -28 -4 -123 6 -62 8 -117 6 -121 -3 -4 -62
-7 -132 -6 -70 2 -133 -1 -139 -5 -16 -10 -15 -53 1 -63 6 -4 73 -8 147 -8
l135 0 8 -70 c9 -78 18 -100 38 -100 11 0 14 19 14 85 l0 85 30 -1 c17 -1 71
-5 122 -9 99 -8 126 -4 117 19 -7 18 -32 24 -163 42 -58 7 -108 17 -112 21 -5
5 -10 59 -11 122 -3 101 -5 115 -23 127 -12 8 -26 10 -34 5z"/>
<path d="M3020 13865 c0 -78 12 -153 55 -330 8 -33 19 -98 25 -145 11 -84 24
-115 41 -104 19 12 9 181 -20 324 -16 80 -33 183 -37 230 -7 90 -15 110 -45
110 -17 0 -19 -9 -19 -85z"/>
<path d="M5884 13835 c-7 -16 -4 -29 20 -114 8 -29 18 -79 22 -109 6 -49 5
-54 -10 -49 -39 15 -238 48 -273 45 -33 -3 -38 -7 -41 -30 -4 -37 14 -44 133
-52 55 -4 123 -13 150 -20 l50 -13 0 -109 c0 -89 3 -109 15 -109 24 0 40 46
40 122 0 39 3 74 8 77 4 2 34 -2 67 -9 97 -22 155 -23 169 -2 14 23 -1 33 -63
42 -77 10 -155 28 -168 37 -6 5 -14 39 -18 76 -8 89 -25 171 -42 205 -15 30
-50 37 -59 12z"/>
<path d="M8772 13798 c-7 -7 -7 -19 -1 -36 6 -14 17 -78 24 -142 8 -63 26
-182 39 -265 14 -82 30 -211 36 -285 11 -143 25 -180 54 -150 27 29 1 326 -49
555 -8 39 -20 117 -25 174 -6 57 -15 112 -21 122 -14 26 -43 41 -57 27z"/>
<path d="M12052 13783 c-5 -10 -12 -70 -16 -133 -4 -63 -16 -209 -26 -325 -10
-115 -22 -261 -26 -322 -7 -108 -6 -113 13 -113 14 0 23 10 31 38 24 85 90
800 77 849 -7 28 -40 31 -53 6z"/>
<path d="M6687 13715 c-22 -22 -31 -134 -21 -260 5 -60 9 -204 10 -320 1 -247
0 -235 18 -235 21 0 24 17 37 182 9 112 9 190 1 293 -11 141 -10 165 10 242
13 51 5 89 -21 103 -15 7 -23 6 -34 -5z"/>
<path d="M7565 13408 c-4 -10 -4 -26 0 -35 8 -17 8 -17 12 0 3 9 3 25 0 35 -4
16 -4 16 -12 0z"/>
<path d="M7360 13345 c0 -32 21 -42 108 -50 41 -5 77 -13 83 -21 8 -9 10 -39
6 -87 -3 -39 1 -160 9 -267 8 -107 16 -238 20 -290 7 -120 11 -140 29 -140 31
0 34 34 20 186 -7 82 -16 190 -19 239 -5 85 -11 165 -21 298 l-5 57 137 -2
c98 -2 137 0 140 9 7 20 -33 33 -149 48 -62 8 -153 21 -203 29 -49 9 -105 15
-122 16 -28 0 -33 -3 -33 -25z"/>
<path d="M4655 11764 c-10 -10 -14 -26 -11 -38 3 -12 6 -73 7 -136 l1 -115
-28 -7 c-16 -3 -75 -11 -132 -17 -119 -13 -142 -22 -142 -57 0 -33 23 -40 89
-25 31 7 89 17 129 23 61 9 75 9 83 -3 6 -8 8 -55 5 -109 -3 -52 -7 -165 -8
-250 -2 -132 0 -155 13 -158 40 -7 44 21 44 282 l0 251 220 27 c248 32 268 29
301 -34 23 -44 20 -151 -6 -252 -22 -82 -21 -106 4 -106 18 0 40 28 116 145
74 114 119 166 163 189 50 28 64 17 72 -51 18 -148 46 -220 100 -248 28 -16
34 -16 66 -2 53 22 86 72 140 215 49 129 60 182 36 182 -17 0 -46 -52 -91
-165 -48 -118 -79 -165 -111 -165 -36 0 -54 43 -70 166 -8 58 -21 117 -30 130
-40 61 -162 -1 -256 -130 -30 -42 -57 -75 -61 -76 -3 0 -6 37 -5 83 1 97 -17
143 -61 153 -15 3 -45 12 -67 20 -49 17 -183 18 -280 2 -38 -6 -95 -12 -125
-12 l-55 -1 4 138 c2 98 0 142 -9 152 -16 19 -25 19 -45 -1z"/>
<path d="M6253 11713 c25 -191 35 -278 31 -285 -8 -12 -68 -37 -155 -63 -95
-29 -120 -44 -117 -70 5 -33 40 -29 158 20 62 25 115 43 119 40 7 -8 8 -250 1
-280 -7 -28 24 -31 51 -4 20 20 21 28 18 172 l-4 151 135 56 c74 31 172 75
217 98 90 46 107 51 99 25 -27 -91 -35 -313 -12 -367 18 -44 61 -76 102 -76
39 0 137 50 214 108 42 32 64 42 93 42 54 0 85 -36 156 -184 44 -93 64 -124
85 -134 50 -22 62 10 23 62 -13 17 -38 69 -57 115 -46 115 -85 171 -141 200
-42 23 -50 24 -86 13 -22 -7 -71 -35 -109 -63 -135 -100 -185 -111 -216 -49
-20 40 -23 166 -7 260 5 30 12 81 15 113 l6 57 -27 0 c-16 0 -58 -17 -94 -37
-110 -63 -392 -185 -402 -175 -4 4 -11 60 -17 125 -11 126 -26 167 -63 167
-19 0 -20 -5 -16 -37z"/>
<path d="M19855 11194 c-11 -3 -63 -14 -115 -26 -52 -12 -107 -27 -121 -34
-23 -11 -29 -11 -39 1 -7 8 -25 15 -41 15 -27 0 -29 -3 -29 -40 0 -42 24 -213
39 -282 9 -38 8 -40 -19 -50 -16 -5 -31 -16 -34 -23 -7 -20 21 -45 50 -45 27
0 25 3 74 -140 64 -192 68 -198 105 -184 21 8 20 15 -25 148 -23 65 -42 135
-43 154 -2 31 1 36 28 43 31 9 155 28 340 55 115 16 154 33 118 52 -28 16
-323 -11 -479 -44 -26 -5 -33 -2 -38 12 -5 17 -36 243 -36 263 0 4 12 6 28 3
15 -2 74 11 132 28 92 29 124 33 264 39 114 4 161 10 164 18 2 7 -9 18 -25 24
-30 11 -264 22 -298 13z"/>
<path d="M15638 11069 c-10 -5 -18 -16 -18 -24 0 -21 27 -32 95 -40 92 -11
162 -28 401 -100 336 -101 429 -139 454 -185 15 -28 13 -36 -22 -76 -50 -56
-162 -128 -528 -334 -36 -20 -123 -71 -195 -112 -264 -152 -258 -149 -248
-175 9 -22 57 -15 99 16 43 31 295 177 494 286 344 189 466 278 485 356 14 55
-93 133 -265 192 -120 42 -488 154 -575 175 -112 28 -157 34 -177 21z"/>
<path d="M22169 11039 c-34 -36 -55 -101 -65 -199 l-7 -70 -45 -20 c-90 -40
-144 -98 -120 -127 16 -20 55 -15 75 10 10 12 33 33 51 45 29 21 33 22 39 6 6
-16 -10 -155 -23 -201 -5 -19 -2 -23 14 -23 31 0 43 31 56 144 6 55 15 107 19
114 13 19 88 14 125 -8 45 -28 67 -82 87 -220 19 -124 27 -143 59 -138 24 3
25 10 7 151 -21 163 -47 217 -126 253 -30 14 -69 24 -97 24 -26 0 -49 4 -52 9
-11 17 34 164 60 198 30 39 28 62 -4 74 -20 8 -29 4 -53 -22z"/>
<path d="M22402 10958 c-35 -35 2 -65 66 -53 21 4 56 7 78 6 54 -3 63 14 22
39 -38 23 -146 28 -166 8z"/>
<path d="M20767 10853 c-13 -21 -46 -81 -73 -133 -88 -170 -160 -219 -218
-149 -40 47 -43 68 -20 176 5 25 2 33 -14 42 -27 14 -44 7 -65 -28 -19 -33
-23 -124 -6 -168 24 -64 95 -114 163 -115 84 -2 130 42 221 214 64 122 77 158
63 181 -14 25 -25 21 -51 -20z"/>
<path d="M22654 10867 c-2 -7 2 -29 10 -48 8 -20 20 -67 26 -105 26 -161 42
-207 89 -257 39 -43 79 -60 139 -59 45 0 59 5 83 28 39 37 52 89 39 149 -31
136 -126 225 -242 225 -42 0 -49 3 -63 30 -22 43 -70 65 -81 37z m212 -136
c122 -74 149 -281 38 -281 -49 0 -96 51 -116 126 -21 75 -31 151 -23 164 10
16 68 11 101 -9z"/>
<path d="M13478 10850 c-10 -6 -18 -17 -18 -25 0 -24 31 -32 150 -39 63 -4
163 -11 221 -17 58 -5 293 -16 523 -24 230 -8 427 -17 439 -19 12 -3 69 -7
127 -11 58 -3 173 -12 255 -20 83 -8 224 -22 315 -30 193 -19 343 -37 530 -66
144 -22 277 -29 323 -16 18 5 27 14 27 27 0 19 -4 20 -62 14 -46 -4 -120 2
-273 25 -248 36 -570 71 -970 105 -364 31 -415 34 -770 47 -253 8 -702 40
-775 54 -14 3 -33 0 -42 -5z"/>
<path d="M21585 10821 c-78 -35 -115 -104 -115 -211 1 -94 57 -179 142 -214
50 -21 175 -21 230 1 72 27 137 81 163 134 40 78 30 107 -15 44 -80 -111 -243
-173 -343 -131 -46 19 -97 80 -99 119 -3 60 4 112 19 144 15 32 65 63 101 63
11 0 26 7 33 16 11 14 10 19 -10 35 -29 24 -55 24 -106 0z"/>
<path d="M21159 10800 c-49 -26 -96 -82 -131 -157 -39 -83 -53 -82 -44 6 5 59
3 72 -13 92 -16 20 -23 22 -38 13 -38 -23 -24 -252 18 -286 45 -38 62 -23 124
117 76 171 179 235 217 136 5 -14 15 -72 23 -130 9 -71 20 -113 33 -130 36
-48 89 -36 57 13 -11 17 -20 60 -25 123 -4 54 -15 117 -25 140 -31 77 -117
105 -196 63z"/>
<path d="M23254 10737 c-3 -8 0 -34 5 -58 6 -24 11 -58 11 -75 0 -17 7 -38 16
-45 33 -27 77 -15 173 49 51 34 103 62 115 62 22 0 136 -74 136 -88 0 -18 91
-103 107 -100 31 6 20 33 -45 112 -83 102 -129 131 -202 131 -51 0 -64 -5
-127 -47 -102 -69 -103 -69 -103 -14 0 33 -6 52 -20 66 -23 23 -58 26 -66 7z"/>
<path d="M6051 10646 c-22 -26 -42 -186 -48 -377 -7 -220 -1 -273 32 -295 21
-14 27 -14 53 0 16 8 48 31 72 51 78 65 156 99 230 99 120 0 161 -43 124 -131
-52 -128 -263 -171 -333 -68 -29 43 -61 47 -61 9 0 -39 74 -109 129 -124 86
-23 186 8 259 79 74 72 101 165 68 229 -33 64 -177 93 -285 57 -28 -9 -85 -43
-128 -76 -42 -32 -84 -59 -92 -59 -20 0 -9 406 15 500 23 96 23 114 -2 118
-11 2 -26 -4 -33 -12z"/>
<path d="M6735 10638 c-2 -7 -6 -157 -9 -333 -2 -176 -9 -345 -15 -375 -6 -30
-12 -84 -13 -120 -3 -54 0 -65 14 -68 25 -5 37 34 48 153 5 55 14 145 19 200
16 159 16 521 1 540 -15 18 -39 20 -45 3z"/>
<path d="M5111 10577 c-18 -22 -43 -88 -66 -172 l-22 -80 -39 1 c-21 1 -93 5
-160 9 -137 9 -174 4 -174 -25 0 -10 5 -22 12 -26 6 -4 65 -8 130 -10 131 -3
218 -12 218 -23 0 -22 -51 -326 -60 -362 -13 -49 0 -74 25 -48 21 21 63 191
71 293 9 119 12 121 110 108 43 -7 114 -15 157 -18 43 -4 79 -10 82 -13 2 -4
-20 -19 -49 -34 -78 -41 -99 -75 -104 -167 -5 -91 13 -141 62 -171 66 -40 137
-19 214 66 29 32 55 55 58 52 3 -3 16 -25 29 -49 41 -78 121 -105 169 -58 26
25 13 40 -30 33 -29 -5 -40 -1 -64 22 -16 15 -38 49 -50 76 -19 45 -20 58 -12
147 8 85 7 102 -9 140 -15 35 -23 43 -41 40 -13 -2 -27 -13 -33 -25 -13 -30
-29 -30 -305 2 -159 19 -159 18 -142 82 7 26 28 81 48 122 26 57 32 77 23 87
-14 18 -33 18 -48 1z m423 -423 c3 -9 9 -40 12 -69 6 -49 4 -58 -22 -93 -35
-47 -82 -88 -117 -101 -83 -32 -146 79 -101 175 20 42 31 51 101 80 68 28 118
31 127 8z"/>
<path d="M7145 10249 c-71 -10 -176 -60 -205 -96 -24 -30 -25 -72 -6 -137 34
-112 133 -187 366 -277 92 -36 249 -77 310 -81 39 -3 45 0 45 17 0 16 -13 23
-70 39 -105 28 -311 104 -390 143 -38 19 -90 53 -114 76 -82 79 -124 169 -86
183 8 3 64 -1 124 -10 221 -32 352 -16 359 44 7 63 -186 121 -333 99z m150
-65 c36 -9 65 -20 65 -25 0 -13 -98 -11 -181 2 -70 12 -88 24 -46 32 48 9 101
6 162 -9z"/>
<path d="M21819 9974 c-10 -12 -13 -89 -14 -337 0 -177 -3 -331 -6 -341 -6
-28 17 -31 35 -4 21 32 35 171 46 438 7 198 6 227 -7 243 -20 21 -37 22 -54 1z"/>
<path d="M21287 9936 c-22 -23 -28 -99 -25 -374 1 -171 5 -258 13 -269 17 -23
63 -9 150 48 163 106 209 114 186 31 -22 -76 -82 -141 -171 -187 -75 -38 -85
-38 -119 -9 -55 46 -87 0 -36 -51 93 -94 405 117 405 274 0 47 -38 81 -90 81
-39 0 -111 -30 -170 -70 -14 -9 -43 -27 -64 -40 l-39 -24 7 245 c4 134 11 263
15 285 4 23 4 49 -1 58 -11 20 -42 21 -61 2z"/>
<path d="M20252 9778 c-18 -22 -34 -146 -30 -238 l3 -85 -140 0 c-129 0 -140
-1 -143 -19 -2 -10 2 -22 10 -27 7 -5 72 -9 145 -9 l131 0 7 -65 c4 -36 5 -93
1 -127 -3 -35 -7 -76 -8 -93 -3 -34 17 -43 47 -21 18 13 20 28 23 165 l3 151
64 0 c35 0 98 5 140 11 42 6 79 8 82 6 2 -3 -3 -19 -11 -36 -9 -16 -16 -50
-16 -75 0 -36 6 -52 29 -78 27 -30 33 -33 89 -31 96 2 145 39 201 151 17 34
35 62 40 62 8 0 22 -30 55 -112 15 -39 42 -53 87 -46 34 4 37 36 5 44 -27 6
-35 24 -86 173 -24 72 -27 76 -57 79 -30 3 -33 1 -44 -40 -27 -100 -40 -132
-75 -179 -58 -80 -116 -100 -153 -53 -26 33 -26 60 -3 99 23 36 48 50 132 73
53 14 66 21 68 39 5 36 -34 38 -124 8 -98 -33 -413 -60 -422 -37 -3 8 -2 66 2
130 4 65 8 133 9 152 2 31 -1 35 -24 38 -14 2 -31 -3 -37 -10z"/>
<path d="M22130 9664 c-102 -20 -200 -82 -200 -128 0 -28 51 -98 84 -116 14
-7 33 -24 41 -37 9 -12 24 -23 34 -23 10 0 47 -13 82 -29 155 -69 301 -116
553 -175 70 -16 96 -11 96 19 0 24 -30 36 -151 61 -176 36 -429 121 -429 145
0 5 12 12 28 15 84 21 162 83 162 130 0 32 -57 94 -107 116 -43 19 -147 31
-193 22z m135 -65 c41 -11 95 -53 95 -74 0 -34 -134 -105 -197 -105 -25 0
-119 65 -139 95 -21 33 -8 49 54 69 84 27 130 31 187 15z"/>
<path d="M5552 8727 c-6 -6 -12 -28 -14 -47 -3 -31 -7 -35 -41 -42 -58 -12
-77 -26 -77 -55 0 -27 3 -27 67 -2 21 9 36 10 42 4 6 -6 4 -49 -4 -110 -54
-413 -60 -505 -59 -950 1 -397 10 -622 34 -800 5 -38 14 -122 20 -185 12 -120
33 -307 51 -448 8 -55 16 -85 26 -89 7 -3 35 3 61 13 41 17 75 19 262 19 247
-1 319 -9 825 -95 99 -16 234 -39 300 -49 66 -11 188 -31 270 -45 173 -29 302
-48 505 -76 80 -12 208 -31 285 -44 77 -14 221 -36 320 -50 99 -15 205 -31
235 -36 30 -5 107 -16 170 -24 239 -31 673 -87 815 -106 307 -40 581 -74 865
-105 69 -7 141 -16 160 -19 19 -4 130 -18 245 -31 116 -13 284 -33 375 -44 91
-11 262 -29 380 -41 340 -33 460 -47 865 -106 209 -30 479 -68 600 -84 238
-33 434 -62 755 -115 113 -19 295 -48 405 -64 110 -17 225 -35 255 -41 282
-48 1192 -128 1835 -160 110 -5 351 -19 535 -30 184 -10 394 -22 465 -25 72
-3 157 -7 190 -10 33 -3 150 -10 260 -15 227 -11 327 -19 985 -75 162 -14 381
-32 485 -41 274 -22 675 -61 860 -83 88 -11 212 -25 275 -31 63 -6 144 -15
180 -20 36 -5 94 -12 130 -15 64 -5 122 -12 305 -34 113 -14 683 -72 750 -77
28 -2 124 -10 215 -18 238 -21 312 -27 430 -31 313 -11 420 -16 465 -20 28 -3
109 -7 180 -10 162 -7 422 -23 580 -35 117 -9 261 -18 710 -42 121 -6 486 -12
810 -13 325 -1 642 -5 705 -8 63 -4 207 -12 320 -17 275 -13 571 -39 880 -76
69 -8 226 -23 350 -34 233 -21 308 -28 570 -54 85 -9 250 -20 365 -26 208 -10
313 -17 595 -41 239 -19 839 4 1053 41 66 11 142 20 170 20 61 0 91 16 164 87
130 126 244 373 333 718 106 414 144 693 175 1312 17 336 18 416 4 643 -16
266 -44 396 -103 467 -76 92 -419 203 -811 262 -71 11 -159 23 -195 26 -36 3
-101 10 -145 15 -71 8 -345 32 -525 46 -36 3 -71 7 -77 9 -24 8 -387 16 -833
19 -333 3 -518 9 -735 25 -159 12 -357 26 -440 31 -141 9 -371 31 -685 66
-191 20 -335 35 -405 39 -33 3 -121 11 -195 20 -420 47 -599 63 -865 75 -121
5 -265 12 -320 15 -150 8 -958 9 -1590 1 -308 -3 -738 -8 -955 -11 -668 -8
-1303 24 -1805 90 -60 8 -162 19 -225 24 -63 6 -198 19 -300 30 -102 11 -288
29 -415 40 -231 21 -484 45 -865 81 -113 11 -239 22 -280 25 -41 3 -122 10
-180 15 -100 9 -302 22 -895 55 -148 8 -306 17 -350 20 -191 12 -245 16 -520
30 -159 8 -371 19 -470 25 -99 5 -247 12 -330 15 -82 3 -175 8 -205 11 -30 2
-167 11 -305 19 -137 8 -313 20 -390 25 -273 21 -1679 18 -2025 -4 -169 -11
-688 -36 -965 -46 -148 -6 -324 -15 -390 -20 -66 -5 -230 -14 -365 -20 -135
-6 -263 -13 -285 -16 -81 -9 -1096 -5 -1285 6 -330 18 -687 50 -1010 90 -163
20 -739 125 -1070 195 -439 93 -764 148 -975 164 -77 7 -196 16 -265 21 -69 6
-149 13 -177 16 l-53 5 0 38 c0 50 -25 76 -48 48z m153 -147 c39 -5 138 -14
220 -20 355 -26 618 -67 1130 -175 94 -20 240 -49 325 -66 85 -16 189 -36 230
-44 564 -108 1149 -168 1823 -187 473 -13 907 -4 1522 31 182 11 454 24 605
30 151 6 313 13 360 16 424 26 713 38 1040 45 393 8 1249 5 1375 -5 39 -3 151
-10 250 -15 99 -6 241 -15 315 -20 74 -5 281 -16 460 -25 391 -19 1015 -51
1235 -65 325 -20 507 -30 780 -45 404 -23 557 -35 1310 -105 176 -16 448 -41
605 -56 425 -39 584 -56 995 -103 178 -21 404 -41 690 -63 191 -15 1201 -16
2175 -3 1178 15 1479 10 2085 -40 221 -19 869 -84 1190 -120 233 -27 329 -35
915 -76 80 -5 195 -14 255 -20 61 -6 391 -15 735 -20 344 -5 641 -11 660 -14
19 -3 179 -19 355 -35 379 -36 512 -52 700 -86 330 -60 603 -153 682 -233 57
-57 86 -186 104 -461 27 -421 -34 -1316 -111 -1625 -5 -22 -21 -92 -36 -155
-88 -384 -199 -653 -329 -798 -61 -68 -74 -74 -170 -83 -44 -4 -110 -14 -147
-23 -63 -14 -131 -20 -348 -31 -52 -2 -162 -9 -245 -15 -107 -8 -211 -8 -364
0 -118 6 -217 12 -220 14 -3 2 -55 7 -116 10 -136 7 -404 24 -590 36 -124 9
-277 23 -630 60 -55 5 -158 15 -230 21 -71 5 -209 19 -305 29 -541 60 -1152
90 -1755 86 -392 -3 -554 1 -1000 24 -110 5 -247 12 -305 15 -58 3 -125 7
-150 10 -25 3 -133 10 -240 15 -206 11 -266 15 -500 30 -80 5 -221 12 -315 15
-382 13 -711 36 -1020 71 -71 8 -220 24 -330 35 -553 55 -894 92 -1145 124
-326 41 -359 45 -475 55 -60 6 -137 15 -170 20 -33 5 -109 11 -170 15 -60 3
-123 7 -140 10 -16 3 -124 12 -240 20 -115 9 -232 17 -260 20 -27 2 -86 7
-130 10 -44 3 -118 10 -165 15 -141 16 -482 39 -895 60 -214 11 -464 25 -555
31 -153 9 -333 19 -635 34 -225 12 -1090 75 -1240 90 -82 9 -188 20 -235 25
-169 18 -417 51 -490 65 -41 8 -111 20 -155 25 -44 6 -143 22 -220 35 -271 47
-730 117 -1010 154 -82 11 -285 40 -450 65 -408 62 -689 97 -1060 131 -163 15
-485 52 -525 60 -14 3 -122 16 -241 30 -286 32 -381 43 -524 61 -66 8 -163 19
-215 24 -52 6 -120 14 -150 20 -30 5 -116 16 -190 25 -74 8 -184 22 -245 30
-60 8 -168 22 -240 30 -71 9 -175 22 -230 30 -55 8 -136 19 -180 25 -184 26
-353 51 -405 60 -30 5 -113 19 -185 30 -71 11 -184 29 -250 40 -66 11 -190 29
-275 40 -85 12 -256 39 -380 61 -124 21 -306 52 -405 69 -99 16 -246 40 -327
54 -317 54 -608 82 -760 72 -62 -4 -129 -8 -148 -9 l-35 -2 -12 125 c-16 165
-30 301 -54 494 -44 366 -49 1064 -10 1431 12 105 26 242 31 305 6 63 13 121
15 128 5 14 16 14 110 2z"/>
<path d="M7121 7759 c-193 -25 -406 -136 -574 -298 -83 -80 -161 -187 -173
-236 -4 -17 -10 -34 -14 -40 -15 -21 -30 -106 -30 -171 0 -100 16 -141 80
-205 96 -96 250 -137 475 -125 201 10 333 44 499 128 194 98 333 252 352 389
12 87 -23 194 -89 269 -68 78 -163 136 -295 181 -111 38 -172 47 -172 25 0
-21 20 -30 116 -54 111 -28 172 -61 253 -137 94 -89 125 -158 119 -264 -5 -89
-25 -133 -93 -209 -156 -174 -493 -290 -801 -277 -211 9 -342 74 -380 188 -19
58 -14 159 11 242 66 214 340 448 617 525 164 46 302 36 435 -32 51 -26 64
-29 77 -19 8 7 12 19 9 26 -14 37 -223 106 -312 104 -25 -1 -75 -5 -110 -10z"/>
<path d="M9706 7697 c-9 -14 -18 -76 -25 -167 -32 -420 -38 -689 -21 -924 9
-121 19 -160 37 -142 5 4 9 105 10 224 2 343 33 947 49 973 8 14 -5 46 -21 53
-9 3 -21 -4 -29 -17z"/>
<path d="M10338 7645 c-14 -15 -8 -42 12 -60 17 -16 42 -19 178 -21 196 -4
489 -23 516 -34 12 -4 45 -11 74 -15 52 -7 54 -7 50 16 -3 21 -15 27 -113 52
-60 15 -153 35 -205 43 -104 17 -500 31 -512 19z"/>
<path d="M12110 7419 c-58 -5 -165 -18 -239 -29 -74 -11 -158 -20 -187 -20
-68 0 -84 -7 -84 -36 0 -23 3 -24 61 -24 33 0 145 12 247 26 347 49 715 33
1004 -41 66 -18 98 -13 98 14 0 29 -71 52 -250 80 -232 37 -440 47 -650 30z"/>
<path d="M23157 7280 c-97 -11 -131 -27 -135 -62 -5 -45 24 -52 113 -27 58 16
106 21 198 21 117 0 357 -23 442 -42 22 -5 78 -16 125 -25 117 -22 279 -62
373 -91 91 -28 107 -29 107 -9 0 22 -73 55 -190 86 -58 15 -139 36 -180 48
-274 75 -669 122 -853 101z"/>
<path d="M10701 7245 c-65 -31 -230 -191 -284 -276 -82 -129 -98 -286 -43
-439 41 -115 98 -188 181 -233 34 -19 56 -22 155 -22 169 0 278 43 377 148 61
64 90 135 110 272 17 118 11 212 -18 291 -28 75 -71 119 -144 149 -52 21 -60
27 -57 48 3 21 -5 28 -60 51 -92 40 -150 43 -217 11z m159 -50 c40 -21 38 -27
-5 -19 -27 5 -36 3 -41 -11 -10 -25 5 -34 95 -55 97 -24 129 -39 175 -85 63
-63 81 -217 44 -390 -33 -160 -137 -260 -302 -295 -209 -43 -333 21 -397 207
-35 102 -41 164 -25 243 22 105 48 151 145 253 143 150 231 193 311 152z"/>
<path d="M12212 7107 c-18 -21 -31 -94 -47 -261 -29 -292 -19 -610 31 -926 23
-144 31 -170 56 -170 20 0 20 3 14 63 -33 305 -46 486 -46 667 0 211 12 403
32 500 20 104 21 122 7 131 -20 12 -35 11 -47 -4z"/>
<path d="M17700 7053 c-43 -5 -72 -30 -68 -57 3 -18 9 -21 48 -18 25 1 158 3
295 4 508 4 1011 -63 1573 -207 117 -30 221 -55 231 -55 24 0 54 34 49 57 -2
14 -14 18 -48 20 -25 1 -97 16 -160 32 -415 111 -828 178 -1330 216 -179 14
-505 18 -590 8z"/>
<path d="M25907 6959 c-120 -28 -218 -126 -248 -249 -20 -81 -16 -272 9 -415
20 -113 41 -213 113 -555 62 -294 73 -394 50 -439 -27 -49 23 -85 53 -38 42
65 31 160 -69 592 -85 372 -100 451 -115 599 -29 294 64 441 291 454 140 8
256 -24 484 -134 221 -106 413 -274 438 -384 14 -59 -67 -130 -188 -167 -146
-44 -175 -48 -390 -48 -201 0 -225 -3 -225 -30 0 -25 22 -36 115 -60 132 -33
221 -68 330 -128 114 -63 186 -112 252 -171 52 -47 113 -139 113 -170 0 -40
-113 -136 -240 -203 -173 -92 -339 -137 -505 -137 -91 -1 -115 2 -137 18 -16
10 -28 22 -28 26 0 5 -5 21 -10 36 -15 38 -33 18 -33 -36 0 -61 30 -86 118
-100 186 -30 454 39 705 181 90 51 170 144 185 217 15 72 -77 187 -235 294
-80 53 -250 142 -319 166 -17 6 -31 15 -31 20 0 5 57 14 128 20 194 18 302 55
387 133 96 88 77 206 -55 338 -148 148 -472 319 -700 370 -54 13 -191 12 -243
0z"/>
<path d="M15240 6953 c-58 -10 -161 -48 -240 -90 -213 -113 -386 -274 -455
-423 -28 -60 -30 -74 -30 -175 0 -101 2 -115 29 -169 38 -77 135 -175 211
-213 147 -74 346 -107 482 -78 76 15 103 28 90 41 -4 4 -67 6 -140 5 -312 -5
-544 118 -609 321 -42 135 5 271 141 408 123 124 331 251 485 295 46 13 79 16
137 11 66 -5 78 -4 83 10 4 9 -1 27 -9 40 -14 22 -22 24 -83 23 -37 -1 -78 -4
-92 -6z"/>
<path d="M27930 6805 c-17 -21 -3 -52 27 -60 15 -3 65 -3 112 0 47 4 163 2
256 -4 421 -27 500 -33 655 -47 302 -28 557 -68 830 -131 128 -29 162 -33 166
-18 10 30 -116 74 -331 115 -425 80 -654 107 -1200 140 -404 24 -498 25 -515
5z"/>
<path d="M15766 6734 c-20 -20 -20 -38 0 -55 13 -10 24 -10 62 0 62 16 79 32
57 55 -22 21 -98 22 -119 0z"/>
<path d="M23696 6666 c-25 -24 -57 -63 -72 -87 -41 -66 -192 -363 -229 -454
-36 -87 -29 -83 -125 -74 -41 4 -45 2 -48 -19 -5 -32 14 -51 59 -58 46 -8 48
-16 19 -100 -12 -32 -39 -126 -61 -209 -22 -82 -49 -169 -61 -192 -18 -35 -19
-47 -10 -68 7 -15 20 -25 32 -25 29 0 50 52 94 225 68 274 87 339 97 345 5 4
38 2 72 -3 34 -5 142 -10 240 -11 169 -1 178 -2 183 -21 2 -11 15 -76 29 -145
13 -69 35 -172 49 -230 14 -58 28 -125 31 -150 11 -81 14 -90 35 -90 30 0 26
46 -19 260 -57 267 -98 488 -115 620 -51 388 -75 498 -117 520 -29 16 -37 12
-83 -34z m68 -78 c8 -18 21 -82 31 -143 9 -60 30 -186 47 -278 17 -92 28 -171
24 -174 -6 -6 -347 14 -404 24 -19 3 -36 11 -39 18 -2 7 52 125 121 262 116
230 173 323 197 323 6 0 16 -15 23 -32z"/>
<path d="M18135 6624 c-114 -24 -169 -41 -222 -70 -146 -81 -229 -199 -221
-313 5 -73 59 -188 122 -258 25 -28 79 -76 119 -106 170 -127 417 -236 417
-183 0 19 -15 29 -108 69 -115 49 -241 130 -328 210 -98 91 -154 197 -154 291
0 53 5 70 30 107 79 120 297 205 455 179 41 -7 76 -21 109 -44 27 -19 55 -32
62 -29 19 7 27 39 14 63 -28 52 -204 102 -295 84z"/>
<path d="M21684 6590 c-36 -14 -207 -229 -313 -392 -35 -54 -66 -99 -70 -99
-3 -1 -43 -2 -89 -4 -90 -3 -106 -10 -100 -46 3 -22 7 -24 67 -24 36 -1 66 -5
68 -10 1 -6 -10 -32 -26 -60 -16 -27 -71 -131 -123 -230 -51 -99 -112 -204
-136 -233 -48 -60 -55 -104 -16 -110 40 -6 91 73 221 338 69 140 135 269 148
286 24 31 24 31 147 37 390 21 375 21 387 -1 6 -12 29 -92 52 -179 22 -87 48
-185 56 -218 9 -33 21 -89 27 -125 8 -46 16 -66 28 -68 9 -2 19 5 22 16 8 24
-21 168 -79 392 -25 96 -45 180 -45 186 0 6 27 14 62 18 70 7 76 10 58 31 -8
10 -31 15 -71 15 -35 0 -61 5 -66 13 -4 6 -29 96 -55 199 -65 259 -86 296
-154 268z m76 -221 c21 -74 46 -156 54 -183 9 -27 16 -55 16 -62 0 -9 -44 -12
-183 -12 -101 0 -198 -3 -215 -7 -61 -13 -49 17 72 180 157 213 188 247 204
231 7 -7 31 -73 52 -147z"/>
<path d="M18580 6536 c-6 -8 -10 -25 -8 -38 3 -22 7 -23 88 -23 80 0 85 1 88
22 2 16 -5 26 -27 37 -38 20 -124 21 -141 2z"/>
<path d="M28585 6366 c-135 -33 -232 -82 -308 -155 -71 -67 -110 -140 -144
-270 -23 -85 -25 -116 -25 -266 0 -255 35 -483 110 -722 8 -26 8 -33 -3 -33
-24 0 -99 37 -139 69 -45 36 -56 39 -49 11 13 -50 122 -109 241 -131 29 -6
101 -8 160 -5 304 14 644 146 799 308 43 46 83 124 83 165 0 148 -215 273
-612 356 -27 5 -48 13 -48 18 0 4 26 13 58 19 330 65 516 157 536 264 22 116
-66 249 -214 326 -87 45 -159 60 -279 59 -64 0 -138 -6 -166 -13z m300 -60
c68 -18 151 -61 207 -108 50 -42 98 -124 98 -169 0 -51 -89 -119 -210 -159
-219 -74 -374 -108 -512 -115 -115 -6 -138 -14 -138 -46 0 -27 25 -36 120 -42
303 -21 661 -139 755 -250 37 -43 52 -91 40 -128 -10 -29 -86 -111 -146 -155
-141 -103 -387 -193 -602 -219 -170 -20 -203 -18 -200 13 2 12 -10 55 -26 95
-68 170 -118 507 -107 717 7 148 23 219 73 318 66 132 190 215 374 251 69 14
219 12 274 -3z"/>
<path d="M15746 6335 c-34 -34 -45 -109 -39 -250 6 -142 16 -171 48 -145 12
10 15 39 15 144 0 94 5 146 16 179 12 35 13 51 4 66 -13 25 -23 26 -44 6z"/>
<path d="M16485 6322 c-33 -16 -94 -57 -135 -91 -41 -33 -80 -61 -86 -61 -6 0
-15 17 -20 37 -9 39 -36 55 -56 35 -6 -6 -12 -44 -14 -85 -7 -126 24 -126 180
0 98 79 154 111 210 120 33 5 40 2 78 -38 51 -54 82 -123 115 -258 29 -124 37
-141 63 -141 25 0 36 41 22 78 -6 15 -21 68 -33 117 -12 50 -36 122 -54 160
-70 147 -151 185 -270 127z"/>
<path d="M19026 6168 c-28 -91 -31 -263 -5 -294 16 -20 82 -18 164 6 82 23
175 26 214 6 41 -21 103 -93 150 -174 43 -74 74 -104 97 -95 19 7 18 57 -1 73
-9 7 -32 41 -51 76 -46 82 -116 159 -168 186 -54 28 -153 28 -216 1 -62 -27
-110 -35 -126 -22 -17 14 -18 65 -2 140 9 44 9 64 0 83 -12 27 -50 36 -56 14z"/>
<path d="M18584 6145 c-32 -49 -4 -334 37 -370 15 -14 18 -14 34 1 10 10 14
25 11 38 -16 58 -28 179 -23 245 6 77 -3 111 -28 111 -8 0 -22 -11 -31 -25z"/>
<path d="M755 8377 c-103 -39 -186 -96 -287 -198 -211 -214 -284 -405 -208
-548 76 -142 208 -223 400 -246 119 -14 356 43 321 78 -6 6 -30 1 -66 -12 -99
-37 -240 -31 -373 16 -134 47 -252 189 -252 302 1 155 238 449 440 545 66 32
113 36 265 24 31 -2 40 1 43 14 5 27 -36 41 -133 45 -76 3 -100 0 -150 -20z"/>
<path d="M1445 8208 c-20 -17 -47 -52 -59 -77 -54 -107 -95 -322 -96 -503 0
-86 3 -101 21 -119 42 -42 108 -7 246 130 51 50 97 91 102 91 16 0 19 -37 10
-122 -9 -90 -6 -113 16 -122 31 -12 43 4 44 60 0 30 3 59 5 63 12 19 9 150 -3
165 -36 43 -98 8 -254 -141 -116 -111 -122 -110 -121 27 1 112 13 194 49 330
36 138 81 209 126 197 45 -12 68 22 30 43 -37 19 -79 11 -116 -22z"/>
<path d="M2587 7919 c-44 -26 -68 -162 -31 -176 31 -12 49 11 54 70 3 34 12
63 24 75 30 34 -3 56 -47 31z"/>
<path d="M2964 7723 c-31 -32 -66 -74 -78 -93 -127 -199 6 -410 242 -385 67 7
97 19 86 36 -3 5 -42 9 -87 9 -66 0 -92 5 -127 23 -83 41 -114 125 -84 227 13
46 28 67 91 129 59 59 73 78 66 90 -21 34 -51 24 -109 -36z"/>
<path d="M2157 7726 c-20 -8 -44 -19 -52 -26 -8 -7 -26 -10 -39 -6 -73 18 -77
-174 -5 -240 33 -30 115 -30 180 -1 58 25 88 57 115 122 14 34 13 39 -6 73
-40 71 -121 104 -193 78z m107 -66 c18 -17 37 -42 40 -56 14 -54 -60 -124
-133 -127 -52 -2 -80 24 -88 80 -4 34 -1 45 27 76 28 32 68 53 107 56 7 1 28
-13 47 -29z"/>
<path d="M3557 7646 c-46 -17 -61 -29 -87 -70 -49 -81 -31 -227 46 -358 53
-90 119 -152 214 -202 156 -82 302 -87 380 -13 24 23 30 37 30 71 0 75 -54
218 -112 295 -10 13 -18 29 -18 36 0 7 28 24 62 39 54 24 60 29 47 42 -33 32
-179 -24 -179 -69 0 -13 14 -45 31 -73 76 -118 117 -229 105 -279 -11 -43 -61
-67 -126 -61 -99 10 -216 61 -297 131 -47 40 -116 147 -111 171 3 15 37 31
114 55 38 11 110 72 129 110 48 91 -12 172 -136 184 -34 3 -68 0 -92 -9z m155
-57 c81 -43 4 -165 -130 -205 -67 -20 -72 -16 -72 64 0 76 23 125 70 150 26
13 100 8 132 -9z"/>
<path d="M2533 7614 c-9 -25 6 -257 17 -268 7 -7 16 -7 28 0 14 9 17 30 20
128 1 69 -2 124 -8 136 -13 24 -48 26 -57 4z"/>
<path d="M4441 7581 c-23 -42 14 -67 55 -37 15 12 17 18 8 33 -16 26 -50 28
-63 4z"/>
<path d="M4454 7053 c-9 -35 7 -58 41 -58 32 0 47 27 34 63 -6 16 -16 22 -38
22 -25 0 -32 -5 -37 -27z"/>
</g>
</svg>
