<?xml version="1.0" standalone="no"?>
<!DOCTYPE svg PUBLIC "-//W3C//DTD SVG 20010904//EN"
 "http://www.w3.org/TR/2001/REC-SVG-20010904/DTD/svg10.dtd">
<svg version="1.0" xmlns="http://www.w3.org/2000/svg"
 width="3264.000000pt" height="2448.000000pt" viewBox="0 0 3264.000000 2448.000000"
 preserveAspectRatio="xMidYMid meet">
<metadata>
Created by potrace 1.12, written by Peter Selinger 2001-2015
</metadata>
<g transform="translate(0.000000,2448.000000) scale(0.100000,-0.100000)"
fill="#000000" stroke="none">
<path d="M11128 20835 c-2 -2 -95 -5 -207 -6 -223 -1 -413 -8 -976 -35 -370
-18 -822 -23 -1158 -14 -168 5 -179 4 -193 -14 -17 -24 -18 -68 -2 -84 17 -17
637 -15 1003 3 160 8 421 21 580 29 571 29 1017 37 1555 25 408 -9 482 -12
870 -35 741 -43 1161 -82 1765 -164 300 -41 669 -107 894 -160 183 -43 246
-64 281 -94 18 -14 40 -26 50 -26 28 0 50 27 50 61 0 60 -64 93 -280 143 -167
38 -559 110 -740 135 -41 6 -100 15 -130 21 -30 5 -82 12 -115 15 -33 2 -96 9
-140 15 -103 14 -319 37 -460 50 -60 6 -168 17 -240 24 -71 8 -200 17 -285 20
-85 4 -189 11 -230 16 -100 13 -379 32 -515 36 -60 1 -186 7 -280 13 -93 6
-359 14 -590 16 -231 3 -439 7 -461 10 -23 2 -43 2 -46 0z"/>
<path d="M1833 20567 c-176 -63 -279 -210 -372 -532 -32 -112 -59 -289 -70
-463 -6 -100 -12 -136 -24 -150 -20 -22 -22 -53 -4 -71 14 -14 11 -195 -5
-224 -11 -22 7 -185 24 -204 24 -29 78 -8 78 30 0 13 5 17 18 13 131 -38 137
-39 272 -33 83 4 164 14 210 26 269 70 354 101 436 162 67 49 85 76 86 127 1
100 -97 148 -372 184 -106 14 -437 14 -517 0 -29 -5 -53 -6 -53 -1 0 9 50 40
155 98 77 41 228 139 270 173 11 9 54 42 95 73 113 84 213 175 247 225 59 85
67 110 68 190 0 64 -5 84 -30 135 -16 33 -58 88 -91 122 -122 125 -282 171
-421 120z m215 -86 c24 -9 72 -38 106 -63 50 -36 70 -58 95 -108 54 -110 40
-182 -61 -300 -67 -78 -250 -223 -427 -337 -40 -27 -103 -71 -140 -99 -75 -57
-141 -97 -148 -90 -6 5 9 90 39 231 11 50 26 119 33 155 7 36 20 90 28 121 9
32 13 74 10 96 -7 50 25 147 76 233 47 78 78 109 151 149 47 26 65 31 125 30
43 0 87 -7 113 -18z m-3 -1131 c123 -9 288 -42 312 -62 63 -52 -96 -149 -365
-222 -219 -60 -344 -68 -472 -30 -58 17 -66 34 -57 117 3 29 2 82 -2 120 -4
37 -7 68 -7 68 2 3 286 16 376 17 52 1 149 -3 215 -8z"/>
<path d="M13669 20447 c-25 -19 -41 -56 -34 -78 4 -11 27 -29 51 -41 125 -58
181 -171 243 -488 12 -58 26 -127 31 -155 19 -87 33 -316 27 -435 -8 -173 -63
-378 -155 -585 -42 -92 -108 -222 -131 -254 -12 -16 -21 -34 -21 -39 0 -20
-136 -171 -200 -222 -121 -96 -213 -137 -365 -160 -95 -15 -105 -18 -105 -40
0 -13 9 -22 28 -26 15 -3 34 -8 42 -10 28 -7 195 33 262 64 153 69 303 201
423 372 131 186 263 496 301 710 30 164 23 421 -17 635 -5 28 -16 88 -25 135
-29 159 -75 325 -109 395 -41 85 -132 197 -179 219 -40 19 -46 19 -67 3z"/>
<path d="M4219 20431 c-61 -20 -155 -78 -208 -130 -95 -92 -164 -195 -242
-361 -12 -25 -28 -56 -36 -70 -41 -74 -114 -235 -137 -302 -71 -209 -65 -616
9 -650 34 -15 51 -5 85 48 50 79 93 202 120 345 14 74 26 79 193 79 216 0 514
-61 598 -122 82 -59 79 -132 -12 -264 -37 -54 -155 -143 -256 -193 -94 -46
-126 -56 -222 -71 -82 -12 -121 -9 -263 22 -106 23 -131 20 -126 -14 2 -17 22
-33 81 -62 74 -38 81 -39 200 -44 104 -4 135 -1 207 17 149 39 367 169 452
269 111 132 134 289 55 378 -75 87 -326 161 -615 182 l-103 7 108 81 c139 105
336 307 386 395 64 115 82 221 50 301 -39 102 -119 159 -232 164 -36 2 -78 0
-92 -5z m152 -104 c53 -28 89 -78 89 -122 0 -86 -77 -238 -167 -331 -56 -58
-194 -184 -237 -217 -25 -18 -56 -47 -70 -64 -28 -33 -133 -109 -141 -102 -2
3 2 32 10 64 18 78 45 313 45 392 0 53 5 71 37 125 40 70 181 216 234 244 78
40 138 43 200 11z m-584 -606 c-10 -168 -28 -271 -48 -281 -51 -28 -62 -67
-30 -99 18 -18 18 -21 2 -82 -30 -108 -54 -179 -62 -179 -13 0 -22 130 -15
216 3 46 20 135 36 199 29 113 106 325 117 325 3 0 3 -45 0 -99z"/>
<path d="M7109 20373 c-37 -43 -176 -349 -220 -485 -27 -81 -49 -156 -49 -165
0 -10 -7 -38 -15 -61 -19 -52 -55 -262 -55 -314 0 -44 10 -41 -140 -39 -58 1
-259 -5 -448 -13 -300 -12 -346 -16 -363 -32 -22 -20 -25 -62 -6 -89 16 -21
19 -21 487 19 162 14 330 28 374 32 l79 6 -6 -53 c-12 -108 -26 -307 -31 -442
-3 -77 -11 -154 -17 -172 -15 -39 -1 -65 35 -65 53 1 62 28 70 200 11 222 36
524 46 534 5 4 68 12 142 17 73 5 156 13 183 18 28 6 115 15 195 21 172 13
306 29 338 41 24 9 29 31 10 47 -14 11 -157 3 -433 -23 -300 -29 -411 -42
-434 -50 -9 -4 -11 0 -6 12 4 10 16 59 26 108 78 368 131 515 281 773 61 104
66 125 36 164 -20 27 -61 32 -79 11z"/>
<path d="M9555 20348 c-11 -6 -49 -39 -85 -72 -61 -58 -164 -145 -248 -209
-20 -16 -53 -43 -72 -62 -19 -18 -67 -58 -107 -87 -364 -271 -516 -429 -621
-648 -127 -264 -77 -557 123 -720 96 -79 245 -152 300 -148 35 3 40 6 43 30 3
23 -2 30 -25 39 -281 115 -402 262 -403 489 0 204 111 416 325 619 84 78 122
110 349 286 57 44 162 129 234 188 72 60 161 130 199 156 55 38 69 53 71 77 5
50 -41 85 -83 62z"/>
<path d="M12862 20080 c-59 -13 -208 -84 -249 -120 -18 -17 -39 -30 -45 -30
-35 0 -271 -289 -330 -405 -14 -27 -36 -70 -48 -95 -13 -25 -29 -52 -36 -60
-12 -15 -56 -134 -114 -311 -15 -48 -43 -154 -61 -235 -30 -131 -34 -166 -34
-290 l0 -142 -40 20 c-22 12 -58 33 -80 48 -54 36 -75 43 -91 29 -24 -20 -15
-45 30 -87 76 -70 219 -130 365 -152 355 -54 908 131 1051 352 77 118 76 224
-3 335 -70 99 -141 156 -283 227 -111 55 -225 95 -378 131 -137 33 -137 32 27
85 125 40 354 158 439 226 67 54 118 117 139 171 6 15 10 59 10 96 -1 155
-111 240 -269 207z m132 -105 c62 -66 59 -146 -6 -220 -77 -87 -269 -197 -523
-298 -149 -60 -205 -76 -205 -59 0 6 46 78 101 162 155 231 277 341 447 406
108 41 154 43 186 9z m-637 -721 c32 -24 63 -35 203 -74 153 -42 215 -62 226
-71 7 -5 38 -23 71 -38 125 -61 204 -130 248 -217 28 -54 28 -59 17 -122 -13
-79 -43 -120 -133 -180 -118 -79 -243 -132 -429 -180 -91 -24 -274 -45 -350
-40 -48 3 -55 6 -58 26 -4 26 -45 57 -66 49 -28 -11 -36 17 -36 123 0 168 41
366 147 713 3 9 15 19 27 22 11 2 30 6 41 8 43 10 59 6 92 -19z"/>
<path d="M10581 20024 c-176 -47 -388 -222 -525 -432 -116 -178 -171 -312
-247 -607 -67 -258 -86 -346 -94 -432 -6 -58 -4 -72 10 -86 30 -31 75 -16 93
30 6 15 34 103 62 195 28 93 64 194 80 227 17 32 30 72 30 88 0 32 -26 63 -53
63 -9 0 -17 2 -17 4 0 25 85 237 132 329 115 226 273 398 449 487 151 77 283
80 317 5 17 -38 15 -64 -13 -123 -44 -94 -181 -217 -352 -313 -21 -12 -90 -51
-153 -86 -297 -167 -331 -193 -315 -243 3 -10 32 -30 65 -44 64 -29 140 -46
345 -76 343 -51 477 -97 520 -180 33 -63 13 -120 -72 -205 -47 -47 -87 -74
-174 -118 -212 -106 -375 -138 -514 -102 -76 20 -114 50 -167 130 -32 50 -48
65 -63 63 -30 -4 -32 -67 -4 -135 26 -65 80 -114 158 -144 75 -29 241 -31 356
-5 349 79 597 277 598 476 0 109 -67 179 -232 240 -81 30 -319 76 -536 105
-66 9 -124 20 -128 24 -5 5 56 42 135 83 268 141 471 277 556 373 114 130 134
297 45 377 -53 48 -180 62 -292 32z"/>
<path d="M18994 19450 c-68 -15 -238 -124 -372 -239 -153 -131 -346 -422 -423
-641 -32 -88 -34 -275 -5 -330 63 -119 202 -177 356 -150 101 17 184 47 325
115 290 141 530 337 611 498 72 142 93 239 71 334 -31 129 -98 209 -215 254
-92 35 -171 36 -287 4 -178 -48 -317 -138 -265 -170 6 -4 48 12 93 34 104 51
193 75 282 75 133 0 230 -48 278 -138 31 -59 30 -197 -2 -278 -65 -167 -205
-313 -426 -443 -179 -106 -300 -157 -429 -182 -213 -40 -326 27 -326 194 0 97
21 170 90 309 81 165 146 259 264 382 153 159 268 239 398 278 36 11 49 21 54
39 12 49 -13 67 -72 55z"/>
<path d="M2957 19437 c-26 -18 -33 -81 -13 -112 28 -43 116 -27 116 21 0 32
-52 104 -75 104 -6 0 -19 -6 -28 -13z"/>
<path d="M24251 19376 c-6 -8 -20 -45 -31 -83 -10 -38 -29 -91 -40 -118 -12
-28 -41 -104 -65 -170 -23 -66 -54 -149 -68 -185 -134 -338 -173 -470 -183
-633 -6 -95 -5 -110 11 -127 22 -24 68 -26 89 -4 20 19 20 38 1 54 -31 26 -11
205 40 355 26 80 151 380 273 659 72 165 86 231 57 253 -24 17 -69 17 -84 -1z"/>
<path d="M21785 19138 c-22 -11 -52 -32 -67 -46 -49 -45 -32 -112 27 -112 10
0 39 20 66 44 39 35 59 46 91 48 56 4 71 28 38 63 -30 32 -97 34 -155 3z"/>
<path d="M20260 19084 c-39 -17 -50 -30 -50 -60 0 -43 68 -72 98 -42 7 7 27
17 44 22 39 13 49 47 22 77 -21 23 -65 24 -114 3z"/>
<path d="M11491 19014 c-28 -36 -27 -70 3 -89 37 -25 88 -16 104 18 35 73 -57
134 -107 71z"/>
<path d="M30230 18925 c-19 -20 -25 -40 -28 -88 -5 -71 8 -91 55 -85 24 2 30
10 42 48 7 25 22 63 32 85 22 48 12 65 -40 65 -27 0 -44 -7 -61 -25z"/>
<path d="M26293 18870 c-35 -14 -39 -54 -13 -119 36 -89 87 -186 104 -200 26
-21 19 -35 -36 -79 -195 -156 -240 -194 -301 -252 -132 -125 -167 -200 -112
-236 36 -24 58 -11 108 64 25 39 87 107 143 158 53 49 135 126 182 172 46 45
87 82 89 82 3 0 36 -28 73 -63 37 -35 108 -92 159 -127 76 -53 91 -68 86 -85
-3 -11 -13 -69 -21 -130 -13 -92 -14 -131 -5 -238 12 -137 26 -181 67 -199 19
-9 30 -8 51 3 29 16 46 50 71 144 16 61 16 65 -2 84 -24 27 -51 27 -69 1 -13
-19 -15 -16 -19 42 -7 87 8 272 28 354 54 223 223 396 485 495 149 56 310 76
357 43 29 -20 28 -58 -4 -123 -63 -126 -231 -244 -434 -304 -101 -30 -161 -40
-176 -30 -7 5 -14 19 -15 32 -6 39 -34 49 -63 22 -50 -47 -35 -130 28 -151 45
-15 104 -7 231 32 258 78 446 211 525 372 18 36 35 85 37 109 13 117 -142 166
-374 118 -305 -63 -589 -288 -653 -517 -7 -24 -18 -44 -24 -44 -7 0 -35 19
-63 43 -27 23 -84 69 -126 102 -42 33 -76 65 -77 70 0 6 51 40 113 75 61 35
122 74 134 87 28 28 20 53 -17 53 -37 0 -154 -60 -214 -110 -26 -22 -54 -40
-62 -40 -19 0 -62 89 -84 176 -21 79 -36 114 -50 114 -4 0 -14 2 -22 4 -7 3
-23 1 -35 -4z"/>
<path d="M20075 18846 c-121 -23 -294 -110 -389 -197 -68 -62 -110 -125 -193
-291 -63 -124 -66 -132 -52 -157 10 -18 24 -27 46 -29 28 -3 34 1 52 37 12 22
21 46 21 54 0 7 26 65 57 128 46 91 71 127 123 179 122 122 376 227 457 188
15 -7 36 -29 45 -48 36 -72 13 -408 -38 -556 -13 -39 -22 -79 -18 -87 15 -40
75 -25 109 26 30 46 68 309 69 477 1 144 -1 158 -22 198 -39 73 -137 101 -267
78z"/>
<path d="M25680 18804 c-123 -26 -215 -71 -366 -176 -34 -24 -44 -26 -83 -18
-26 5 -53 18 -68 34 -42 45 -103 24 -103 -37 0 -34 62 -85 113 -94 30 -4 37
-9 31 -22 -48 -118 -16 -198 103 -253 56 -27 76 -30 161 -32 66 -1 121 5 172
18 102 26 132 42 128 69 -3 20 -8 22 -68 20 -36 -1 -117 -3 -180 -5 -106 -3
-119 -1 -165 22 -39 19 -53 33 -64 62 -12 33 -11 41 5 75 21 42 -1 36 219 63
135 16 313 62 362 93 116 73 107 159 -18 186 -63 14 -98 13 -179 -5z m160 -94
c0 -19 -63 -41 -183 -64 -150 -29 -217 -39 -217 -32 0 16 159 80 245 99 40 9
155 7 155 -3z"/>
<path d="M21165 18677 c-45 -28 -110 -71 -145 -94 -136 -87 -291 -244 -348
-351 -68 -127 -35 -202 88 -202 94 0 231 85 443 274 96 85 152 126 173 126 24
0 -137 -796 -198 -975 -28 -82 -101 -223 -138 -265 l-30 -35 -22 28 c-12 15
-32 51 -43 80 -15 37 -27 53 -42 55 -51 8 -54 -82 -6 -171 57 -103 146 -101
224 5 35 49 120 221 142 288 69 210 227 944 227 1055 0 42 -25 75 -57 75 -26
0 -133 -74 -256 -175 -33 -27 -99 -81 -146 -118 -247 -197 -385 -192 -214 7
96 112 227 215 357 282 130 65 146 78 146 114 0 66 -51 65 -155 -3z"/>
<path d="M28772 18680 c-70 -25 -108 -50 -162 -104 -24 -25 -50 -46 -56 -46
-7 0 -36 20 -66 45 -29 25 -63 48 -76 52 -80 20 -246 -47 -348 -140 -74 -67
-185 -205 -224 -278 -63 -119 -18 -207 69 -134 30 26 71 116 71 157 0 46 137
198 226 250 124 72 159 74 242 12 53 -40 61 -50 55 -68 -4 -11 -8 -53 -8 -93
0 -66 3 -75 38 -126 39 -56 85 -93 153 -122 92 -39 133 -47 276 -52 l148 -5
35 35 c24 24 35 44 35 64 0 32 -57 134 -123 220 -71 93 -71 95 -32 133 l34 33
159 10 c180 11 238 6 227 -21 -4 -9 -9 -30 -12 -47 -5 -33 20 -71 126 -196 90
-106 124 -205 84 -245 -34 -34 -86 -48 -180 -48 -54 -1 -97 -6 -103 -12 -19
-19 -7 -66 23 -88 25 -19 32 -19 95 -8 99 17 131 28 192 64 65 39 100 87 100
137 0 41 -51 153 -97 216 -16 22 -55 68 -86 102 -32 33 -57 67 -57 75 0 21 39
54 90 76 70 30 174 45 304 43 148 -1 189 -16 194 -71 9 -86 -54 -252 -149
-397 -50 -75 -63 -102 -63 -135 -2 -79 67 -80 102 -1 12 27 46 88 76 137 94
150 160 359 136 431 -30 89 -120 120 -355 120 -172 -1 -211 -8 -307 -56 -57
-27 -59 -28 -95 -12 -28 13 -79 18 -198 21 l-160 4 -37 33 c-20 19 -54 38 -75
44 -59 17 -162 13 -221 -9z m218 -85 c9 -5 3 -12 -18 -20 -16 -7 -47 -29 -68
-48 -38 -33 -42 -34 -141 -40 -56 -3 -105 -3 -107 2 -13 20 82 87 151 107 48
13 160 13 183 -1z m-282 -202 c23 -3 77 0 119 7 72 13 77 12 87 -5 6 -10 44
-68 84 -128 39 -60 72 -116 72 -123 0 -33 -188 -23 -306 16 -117 39 -188 133
-168 222 5 28 9 30 38 24 17 -4 50 -9 74 -13z"/>
<path d="M30468 18685 c-16 -9 -30 -27 -33 -43 -13 -66 -41 -134 -92 -224 -64
-114 -85 -175 -74 -215 27 -90 64 -117 186 -134 211 -29 376 81 429 285 35
133 -28 248 -173 314 -71 32 -200 41 -243 17z m242 -115 c89 -57 110 -126 71
-230 -27 -72 -60 -111 -122 -145 -48 -27 -63 -30 -144 -30 -107 0 -145 17
-145 67 0 36 127 256 159 276 22 13 27 47 12 72 -17 25 0 33 61 27 42 -4 72
-14 108 -37z"/>
<path d="M22147 18655 c-9 -8 -18 -44 -22 -82 -10 -108 -26 -211 -46 -303 -16
-76 -16 -87 -3 -107 14 -23 25 -27 54 -23 8 1 87 73 175 160 152 149 188 178
244 195 23 7 23 7 18 -56 -3 -35 -9 -87 -13 -115 -11 -86 32 -137 101 -120 28
7 34 42 13 75 -9 15 -9 37 0 98 19 125 16 165 -14 194 -21 20 -35 24 -80 22
-83 -3 -143 -40 -266 -167 -60 -60 -108 -105 -108 -99 0 6 9 55 20 108 23 109
26 205 8 223 -17 17 -64 15 -81 -3z"/>
<path d="M23105 18635 c-80 -41 -120 -76 -180 -160 -67 -94 -85 -137 -85 -201
0 -50 3 -59 34 -90 29 -29 41 -34 81 -34 50 0 132 34 173 73 13 12 44 55 69
95 25 40 47 71 49 69 2 -2 9 -30 15 -63 12 -68 47 -134 83 -158 37 -24 92 -20
143 9 35 21 43 31 43 55 0 34 -28 47 -60 30 -35 -19 -73 -8 -89 24 -8 17 -20
84 -28 150 -15 121 -29 156 -61 156 -10 0 -13 7 -9 22 18 68 -66 79 -178 23z
m120 -102 c-75 -179 -215 -319 -271 -272 -36 30 11 124 111 225 47 47 111 81
158 83 16 1 16 -1 2 -36z"/>
<path d="M21736 18637 c-14 -10 -21 -40 -31 -138 -8 -71 -24 -158 -39 -205
-14 -45 -24 -89 -20 -97 16 -43 71 -21 103 41 33 64 80 231 87 307 6 68 5 73
-17 89 -28 19 -59 21 -83 3z"/>
<path d="M31583 18557 c-4 -8 -26 -17 -47 -20 -64 -10 -134 -67 -246 -198
-107 -127 -186 -206 -196 -197 -2 3 18 53 46 111 28 59 56 133 62 166 10 54
10 63 -7 81 -22 25 -71 26 -84 3 -5 -10 -16 -53 -25 -97 -9 -43 -33 -115 -53
-160 -72 -159 -33 -268 75 -212 28 15 133 121 285 289 82 90 144 137 182 137
18 0 19 -17 4 -186 -12 -136 2 -386 23 -411 15 -18 67 -17 74 2 4 8 2 65 -3
126 -4 61 -5 145 -1 187 25 271 23 337 -13 373 -22 22 -64 25 -76 6z"/>
<path d="M8162 17628 c-45 -22 -37 -93 13 -116 14 -7 59 -7 131 -1 60 4 296
11 524 14 228 3 458 7 510 10 200 11 797 13 1059 4 501 -17 1082 -75 1374
-136 92 -19 121 -11 132 37 8 35 -4 55 -38 64 -35 8 -224 35 -327 46 -52 5
-178 19 -280 30 -516 55 -718 59 -2245 50 -385 -2 -729 -1 -765 3 -41 4 -73 2
-88 -5z"/>
<path d="M3865 17284 c-11 -3 -37 -10 -57 -15 -27 -7 -38 -15 -38 -28 0 -17
11 -19 103 -23 91 -4 110 -8 177 -39 110 -52 182 -115 221 -194 29 -59 31 -71
27 -137 -9 -135 -82 -250 -253 -401 -144 -127 -250 -198 -340 -227 -22 -7 -57
-22 -77 -33 -21 -11 -41 -18 -44 -14 -4 3 2 70 12 149 13 100 19 203 19 342
-1 195 -1 199 -24 217 -27 22 -41 24 -65 6 -17 -12 -17 -22 -6 -143 10 -114 9
-154 -10 -339 -11 -115 -32 -291 -45 -390 -14 -99 -27 -200 -30 -225 -15 -125
-25 -125 -51 0 -39 191 -30 762 15 891 10 31 40 99 65 152 25 52 46 100 46
106 0 23 -28 10 -56 -26 -78 -99 -130 -241 -161 -443 -21 -134 -23 -428 -4
-613 11 -104 11 -141 3 -149 -19 -19 -14 -55 11 -75 16 -12 30 -41 42 -86 19
-75 47 -104 85 -92 40 13 68 124 36 142 -8 4 72 8 177 8 584 1 1170 214 1213
441 25 134 -241 219 -688 219 -220 0 -218 -1 -120 63 73 46 196 164 247 237
88 125 126 255 105 351 -34 151 -168 289 -337 346 -57 20 -163 31 -198 22z
m655 -1133 c134 -24 173 -34 206 -56 23 -15 23 -17 10 -43 -53 -100 -248 -199
-555 -278 -150 -39 -264 -58 -475 -79 -198 -20 -196 -21 -196 13 0 15 5 43 10
62 9 30 40 243 40 276 0 24 88 57 230 87 80 17 172 34 205 38 103 13 399 1
525 -20z"/>
<path d="M10682 17218 c-32 -32 7 -101 65 -113 85 -18 182 -114 281 -278 136
-224 199 -413 209 -623 7 -149 -6 -249 -54 -403 -92 -291 -267 -518 -449 -582
-65 -23 -91 -23 -185 -4 -40 9 -79 13 -86 11 -21 -8 -15 -44 10 -60 32 -22
133 -46 189 -46 65 0 192 50 265 104 143 105 274 301 351 526 51 150 66 237
65 395 0 144 -23 268 -74 408 -40 111 -148 313 -219 412 -129 179 -314 307
-368 253z"/>
<path d="M8713 17171 c-28 -10 -77 -33 -108 -52 -67 -41 -317 -292 -397 -399
-112 -151 -215 -347 -257 -490 -14 -51 -31 -171 -31 -227 0 -126 61 -263 167
-374 134 -140 284 -227 437 -254 112 -19 136 -19 164 1 30 21 14 41 -37 49
-135 22 -223 58 -351 145 -71 48 -168 152 -209 223 -156 273 11 738 392 1093
97 90 192 149 296 184 73 24 76 26 79 58 2 18 -2 40 -9 48 -15 19 -72 17 -136
-5z"/>
<path d="M6677 17148 c-9 -7 -21 -26 -27 -43 -12 -31 -78 -349 -106 -510 -9
-49 -21 -96 -27 -103 -7 -9 -24 -12 -56 -7 -68 9 -338 -13 -373 -31 -36 -19
-37 -56 -2 -90 24 -25 29 -26 97 -19 40 4 82 11 94 16 27 10 223 24 223 16 0
-4 -8 -28 -19 -54 -10 -26 -29 -88 -41 -138 -40 -162 -91 -329 -111 -363 -33
-58 -21 -102 29 -102 39 0 76 48 104 135 49 151 114 400 124 478 6 45 8 47 38
47 102 0 674 32 738 41 51 7 82 17 93 29 37 41 22 43 -411 38 l-414 -5 0 22
c0 12 7 41 14 64 13 34 45 175 77 337 4 23 20 78 35 123 25 76 26 82 10 106
-18 28 -61 34 -89 13z"/>
<path d="M9960 17009 c-227 -14 -477 -101 -639 -223 -106 -80 -196 -223 -235
-376 -29 -112 -32 -346 -6 -540 34 -265 40 -321 40 -393 0 -37 7 -83 14 -102
14 -32 19 -35 55 -35 57 0 66 21 53 114 -6 39 -14 98 -17 131 -3 33 -15 121
-26 196 -56 378 -36 638 61 789 130 203 501 364 800 347 123 -7 166 -21 212
-67 44 -44 49 -81 19 -145 -51 -110 -212 -195 -636 -335 -104 -34 -212 -70
-240 -79 -56 -18 -68 -42 -40 -85 24 -37 85 -61 225 -90 69 -14 195 -40 280
-57 272 -55 467 -122 582 -201 64 -43 78 -62 78 -107 0 -45 -15 -76 -60 -125
-157 -170 -575 -276 -965 -246 -152 12 -174 9 -161 -25 10 -28 74 -45 211 -57
276 -24 596 27 811 128 204 96 318 251 273 371 -61 162 -336 280 -948 404 -80
16 -146 31 -148 33 -7 6 50 25 207 70 234 66 451 164 552 248 54 45 108 143
108 195 0 64 -22 124 -58 161 -41 41 -142 89 -204 97 -81 11 -93 11 -198 4z"/>
<path d="M18992 16758 c-15 -15 -15 -52 -2 -98 6 -19 17 -91 26 -159 15 -124
14 -180 -6 -381 -6 -52 -12 -122 -15 -155 -2 -33 -9 -98 -14 -145 -5 -47 -10
-196 -10 -331 -1 -256 4 -291 42 -276 26 10 35 70 41 282 4 110 11 238 16 285
5 47 21 184 35 305 29 253 31 354 10 519 -12 96 -19 124 -36 143 -24 25 -67
31 -87 11z"/>
<path d="M20447 16732 c-10 -10 -17 -22 -17 -25 0 -4 -29 -85 -64 -180 -36
-94 -71 -208 -80 -252 -8 -44 -29 -150 -46 -235 -30 -149 -71 -384 -85 -482
-3 -27 -10 -48 -15 -48 -5 0 -18 30 -31 67 -63 189 -117 262 -225 303 -206 78
-484 -111 -484 -329 0 -66 30 -108 102 -144 116 -58 333 -59 500 -2 113 39
115 40 101 24 -7 -7 -13 -34 -13 -60 0 -74 64 -137 98 -96 6 7 16 47 22 88 10
64 16 78 43 100 27 23 29 29 18 43 -7 9 -20 16 -28 16 -11 0 -13 7 -9 28 3 15
15 81 27 147 23 139 78 389 108 490 11 39 29 103 40 143 12 40 47 130 77 200
69 154 75 183 43 206 -31 21 -62 20 -82 -2z m-549 -968 c20 -16 45 -38 55 -49
20 -24 117 -214 117 -230 0 -15 -185 -30 -355 -30 -135 1 -177 15 -204 69 -16
34 -3 89 34 148 75 115 259 163 353 92z"/>
<path d="M24487 16198 c-8 -13 -18 -39 -22 -58 -4 -19 -20 -75 -35 -125 -16
-49 -37 -117 -47 -150 -20 -68 -9 -65 -155 -50 -64 7 -81 5 -103 -9 -31 -20
-32 -45 -3 -81 20 -25 26 -27 72 -22 29 3 64 3 79 0 22 -4 26 -9 21 -28 -4
-17 0 -26 14 -34 17 -9 26 -6 53 17 32 27 35 27 171 27 l138 0 1 -55 c1 -121
63 -200 164 -208 95 -8 195 43 195 99 0 38 -23 47 -64 26 -80 -41 -135 -40
-183 5 -18 17 -23 33 -23 70 0 66 19 83 106 93 111 12 187 40 224 82 29 32 32
41 27 81 -3 32 -13 53 -36 75 -26 27 -39 32 -95 35 -112 7 -178 -35 -260 -167
l-28 -43 -121 7 c-67 4 -123 8 -125 10 -1 1 15 40 37 86 21 46 53 127 71 179
31 88 32 97 19 125 -19 40 -71 48 -92 13z m536 -333 c3 -16 -94 -62 -145 -69
-36 -4 -48 -2 -48 7 0 15 33 47 65 66 24 13 124 10 128 -4z"/>
<path d="M20969 16026 c-160 -46 -262 -163 -289 -329 -19 -122 12 -197 99
-242 109 -55 187 -52 314 10 77 38 109 67 101 90 -10 26 -35 24 -126 -11 -84
-33 -100 -36 -166 -32 -83 6 -107 21 -122 78 -13 47 2 127 35 196 51 105 228
183 328 145 31 -12 39 -34 26 -68 -20 -54 -117 -104 -214 -111 -105 -7 -135
-45 -74 -96 39 -33 79 -33 164 -1 136 51 235 150 235 232 0 44 -40 104 -85
127 -49 25 -159 31 -226 12z"/>
<path d="M26762 15996 c-61 -20 -103 -56 -135 -114 -40 -74 -51 -144 -32 -212
30 -104 32 -95 -27 -109 -29 -7 -125 -15 -213 -18 -159 -6 -161 -5 -213 21
-65 33 -73 57 -41 121 31 61 77 101 166 142 93 43 116 80 73 123 -29 29 -56
25 -134 -22 -100 -60 -168 -130 -194 -201 -27 -72 -27 -88 -1 -165 31 -92 79
-119 229 -129 95 -6 226 8 342 38 98 24 107 24 118 -5 25 -68 220 -185 373
-225 150 -39 348 -48 424 -20 32 12 49 47 31 65 -11 11 -35 12 -133 3 -130
-11 -220 -5 -232 16 -5 7 -57 32 -118 56 -137 53 -275 133 -275 160 0 4 20 17
44 28 73 32 158 95 224 165 57 61 62 70 62 112 0 78 -40 127 -130 159 -63 22
-158 27 -208 11z m180 -115 c56 -24 73 -43 59 -69 -27 -50 -233 -212 -270
-212 -11 0 -25 9 -31 19 -13 26 -13 120 1 162 15 45 56 98 83 109 36 15 113
11 158 -9z"/>
<path d="M23054 15910 c-130 -18 -255 -91 -329 -191 -46 -62 -100 -197 -142
-356 -22 -83 -26 -120 -27 -244 l-1 -146 35 -68 c19 -38 47 -77 62 -88 25 -19
28 -19 52 -3 50 32 146 267 146 357 0 41 -4 51 -25 65 -49 32 -85 -3 -85 -86
0 -50 -33 -177 -50 -194 -18 -17 -38 19 -46 80 -14 114 55 458 113 565 59 108
153 175 288 204 84 18 127 19 195 4 71 -15 69 -42 -8 -119 -91 -91 -293 -180
-407 -180 -38 0 -65 -13 -65 -31 0 -4 12 -21 26 -38 23 -28 32 -31 80 -31 66
0 147 26 263 85 224 112 325 268 233 360 -47 48 -185 72 -308 55z"/>
<path d="M25563 15857 c-43 -57 -113 -127 -126 -127 -3 0 -10 14 -16 30 -11
34 -30 45 -65 36 -18 -4 -31 -23 -55 -84 -18 -43 -43 -95 -57 -115 -18 -27
-23 -44 -18 -64 20 -84 45 -74 214 87 81 77 151 140 155 140 3 0 3 -39 0 -87
-8 -99 11 -198 42 -220 29 -22 70 -16 93 14 25 32 22 42 -16 63 -27 16 -29 20
-27 71 10 223 9 257 -13 286 -36 48 -57 42 -111 -30z"/>
<path d="M21675 15856 c-13 -13 -28 -43 -34 -67 -10 -39 -27 -86 -89 -246 -14
-36 -14 -45 -2 -67 15 -29 50 -43 73 -29 20 11 124 134 166 198 34 50 78 94
95 95 5 0 7 -45 4 -103 -4 -62 -2 -111 5 -123 20 -38 51 -64 77 -64 54 0 162
89 244 203 27 37 53 67 58 67 18 0 30 -58 27 -140 -3 -129 -2 -139 30 -171 37
-36 75 -38 97 -4 18 27 12 43 -19 54 -20 7 -21 15 -21 152 -1 134 -3 148 -28
201 -20 44 -33 59 -54 64 -22 6 -31 2 -46 -17 -158 -207 -234 -289 -266 -289
-11 0 -12 16 -5 83 10 110 7 157 -15 186 -48 64 -87 53 -153 -43 -48 -69 -100
-129 -106 -122 -2 2 10 33 27 70 36 81 36 87 7 114 -30 28 -42 28 -72 -2z"/>
<path d="M23704 15851 c-44 -20 -84 -63 -84 -90 0 -10 6 -25 13 -35 11 -15 10
-28 -6 -78 -19 -58 -19 -61 -1 -100 10 -21 27 -46 38 -54 68 -47 294 32 365
128 36 49 38 67 11 124 -49 100 -225 155 -336 105z m200 -114 c55 -31 66 -52
41 -76 -35 -34 -117 -71 -172 -77 -50 -6 -53 -6 -53 16 0 13 15 37 35 56 41
38 44 56 13 77 l-23 15 25 11 c32 14 85 5 134 -22z"/>
<path d="M8650 14245 c-16 -19 -25 -129 -40 -500 -13 -329 -28 -445 -96 -756
-18 -86 -47 -249 -64 -362 -17 -113 -39 -235 -51 -271 -16 -55 -18 -73 -9
-106 9 -33 15 -40 36 -40 20 0 29 9 44 43 30 67 57 182 75 312 20 148 35 230
75 410 43 190 78 437 90 635 6 91 18 248 26 350 22 283 22 283 -43 296 -20 4
-33 1 -43 -11z"/>
<path d="M19255 13871 c-142 -42 -299 -142 -446 -284 -139 -134 -227 -264
-279 -412 -28 -79 -32 -104 -33 -205 -2 -110 0 -118 30 -182 100 -212 350
-320 654 -283 136 17 180 28 204 55 17 19 17 22 3 37 -15 14 -24 14 -108 -2
-70 -14 -118 -16 -199 -12 -259 14 -388 72 -453 204 -79 162 -30 386 131 600
79 105 171 189 297 273 127 84 223 121 329 127 76 5 82 4 125 -26 49 -33 69
-38 88 -19 37 37 -7 105 -87 133 -58 20 -180 18 -256 -4z"/>
<path d="M23392 13467 c-6 -7 -18 -67 -27 -132 -24 -178 -71 -409 -106 -520
-27 -86 -29 -100 -16 -112 22 -22 52 -1 82 56 39 77 165 580 165 658 0 18 -7
39 -16 47 -19 19 -67 21 -82 3z"/>
<path d="M27265 13270 c-3 -5 -15 -38 -26 -72 -12 -35 -59 -146 -105 -248
l-83 -185 -134 -5 c-157 -7 -187 -18 -187 -74 0 -37 13 -52 50 -58 24 -3 23
-4 -16 -31 -23 -15 -57 -30 -76 -33 -29 -5 -38 -2 -52 17 -14 21 -16 42 -10
149 5 118 4 128 -18 170 -47 92 -101 54 -241 -170 -74 -118 -139 -194 -160
-187 -7 2 -13 27 -15 55 -2 41 5 71 32 141 20 49 36 96 36 105 0 60 -68 79
-95 27 -26 -51 -65 -201 -65 -251 0 -68 18 -151 37 -172 19 -22 64 -23 102 -3
48 24 143 138 199 238 56 99 88 141 101 132 5 -2 9 -63 9 -135 0 -79 4 -141
12 -159 15 -37 69 -64 107 -55 80 19 174 92 193 149 l11 32 132 8 c177 10 372
10 542 1 123 -7 142 -6 154 8 20 24 -9 63 -56 75 -42 11 -331 31 -435 31 -38
0 -68 3 -68 8 0 4 21 41 47 82 55 88 150 291 159 338 9 49 -9 82 -45 82 -16 0
-33 -4 -36 -10z"/>
<path d="M19984 13145 c-61 -30 -138 -103 -165 -157 -67 -130 -32 -258 92
-338 48 -31 73 -40 127 -46 86 -9 211 14 301 56 130 61 191 130 191 214 -1
132 -130 240 -332 277 -125 23 -159 22 -214 -6z m324 -125 c124 -66 155 -137
87 -203 -75 -73 -234 -124 -353 -113 -105 9 -152 53 -152 140 0 83 68 185 123
186 12 1 33 7 47 16 18 10 47 14 105 11 68 -3 90 -8 143 -37z"/>
<path d="M22588 13115 c-234 -59 -400 -247 -482 -545 -39 -144 -50 -230 -50
-400 0 -190 11 -233 62 -238 28 -3 40 3 70 35 45 48 121 192 155 293 13 41 39
137 58 213 l34 138 77 -7 c216 -18 438 127 438 287 0 53 -36 133 -76 171 -62
58 -180 80 -286 53z m193 -100 c51 -27 69 -51 69 -95 0 -52 -18 -87 -68 -132
-51 -46 -139 -79 -227 -84 -98 -7 -100 -5 -85 99 13 94 6 122 -33 136 -19 7
-14 12 42 41 115 58 231 71 302 35z m-422 -252 c-7 -8 -14 -48 -15 -91 -2 -91
-66 -348 -119 -487 -71 -181 -88 -168 -82 65 6 190 26 298 81 427 49 115 62
139 104 185 l37 41 3 -62 c2 -39 -2 -68 -9 -78z"/>
<path d="M21633 13100 c-12 -5 -66 -49 -120 -99 -54 -50 -102 -91 -108 -91 -5
0 -10 25 -11 56 0 51 -3 60 -33 86 -37 33 -63 32 -141 -7 -59 -30 -107 -76
-157 -150 -23 -34 -49 -67 -58 -75 -16 -14 -17 -12 -10 20 4 19 18 67 31 105
14 39 27 77 30 87 14 40 -77 78 -105 44 -16 -18 -38 -100 -46 -166 -4 -30 -18
-100 -32 -155 -14 -55 -27 -109 -30 -120 -6 -26 32 -75 58 -75 27 0 59 36 136
153 103 156 227 277 255 249 6 -6 5 -37 -3 -86 -12 -75 -11 -77 11 -101 13
-14 33 -25 44 -25 23 0 155 106 222 177 22 23 45 43 51 43 6 0 13 -27 17 -60
9 -81 57 -155 101 -155 38 0 43 22 16 78 -16 33 -20 59 -19 117 3 86 -12 132
-48 149 -14 6 -26 11 -27 10 -1 0 -12 -4 -24 -9z"/>
<path d="M23805 13048 c-61 -33 -93 -84 -110 -172 l-11 -60 -110 3 c-121 3
-144 -6 -144 -53 0 -47 26 -56 161 -56 l124 0 28 -35 c78 -98 239 -126 409
-69 26 8 82 38 123 65 42 27 78 49 80 49 2 0 2 -28 -1 -62 -10 -105 21 -142
89 -107 45 24 159 133 232 224 42 51 87 101 101 109 23 16 24 16 24 -8 0 -14
-14 -60 -31 -103 -60 -153 -28 -245 64 -185 15 10 78 71 140 134 61 63 123
121 136 128 l24 12 -9 -73 c-16 -132 -8 -214 27 -280 47 -88 102 -116 192 -98
48 9 53 8 67 -12 39 -55 88 -103 117 -116 48 -19 160 -16 226 6 32 11 82 37
113 57 63 42 84 75 64 99 -18 21 -26 19 -86 -20 -97 -64 -203 -88 -270 -60
-44 18 -84 52 -84 72 0 7 28 27 63 44 94 47 220 133 261 180 43 47 86 132 86
170 0 41 -41 92 -84 107 -78 25 -217 -18 -286 -89 -53 -54 -99 -153 -118 -252
-18 -93 -22 -97 -91 -97 -26 0 -41 8 -67 35 -52 56 -61 99 -41 204 29 149 17
223 -38 237 -44 11 -82 -15 -205 -139 -66 -66 -123 -118 -125 -115 -3 3 9 38
26 79 39 92 42 149 9 184 -27 29 -49 31 -93 9 -35 -18 -169 -150 -230 -226
-40 -50 -104 -104 -113 -95 -3 3 12 44 32 92 36 81 37 88 23 113 -25 45 -50
39 -110 -23 -42 -44 -79 -69 -164 -111 -155 -76 -263 -90 -365 -47 l-35 15 70
13 c120 22 165 48 185 111 22 65 -24 161 -95 201 -44 25 -144 31 -180 11z
m166 -124 c12 -11 19 -28 17 -43 -4 -37 -56 -63 -139 -69 l-69 -5 0 27 c0 50
43 109 85 118 30 6 84 -8 106 -28z m1817 -90 c39 -11 26 -44 -45 -114 -76 -74
-214 -170 -245 -170 -23 0 -20 14 25 109 60 129 169 200 265 175z"/>
<path d="M10820 7915 c-7 -9 -14 -44 -14 -78 -1 -57 1 -62 21 -65 24 -4 27 4
37 89 7 60 -16 88 -44 54z"/>
<path d="M11515 7837 c-8 -19 -17 -85 -20 -148 -6 -92 -4 -118 8 -133 36 -48
61 15 72 185 5 81 3 99 -10 113 -24 24 -34 20 -50 -17z"/>
<path d="M10810 7724 c-9 -10 -10 -18 -2 -26 12 -12 32 -2 32 17 0 21 -16 26
-30 9z"/>
<path d="M11486 7105 c-7 -19 10 -65 24 -65 15 0 34 46 27 64 -8 20 -43 21
-51 1z"/>
<path d="M10816 6944 c-9 -8 -16 -22 -16 -29 0 -15 27 -45 40 -45 15 0 40 31
40 49 0 37 -37 52 -64 25z"/>
<path d="M10804 6436 c-10 -26 4 -48 28 -44 17 2 23 10 23 28 0 18 -6 26 -23
28 -13 2 -25 -3 -28 -12z"/>
<path d="M11096 6279 c-2 -8 -10 -35 -16 -62 -7 -26 -17 -50 -21 -53 -13 -7
-11 -38 3 -69 8 -18 18 -25 32 -23 19 3 21 11 24 102 2 57 -1 103 -7 109 -7 7
-12 6 -15 -4z"/>
<path d="M2766 724 c-22 -22 -15 -39 15 -39 19 0 24 5 24 24 0 30 -17 37 -39
15z"/>
<path d="M1480 356 c0 -17 24 -27 45 -20 12 5 13 10 4 20 -15 18 -49 18 -49 0z"/>
<path d="M1575 330 c3 -5 10 -10 16 -10 5 0 9 5 9 10 0 6 -7 10 -16 10 -8 0
-12 -4 -9 -10z"/>
<path d="M2020 215 c-10 -12 -9 -16 5 -21 23 -9 40 10 22 25 -11 9 -17 8 -27
-4z"/>
<path d="M1932 208 c5 -15 68 -24 68 -10 0 10 -32 22 -58 22 -8 0 -12 -6 -10
-12z"/>
</g>
</svg>
