<?xml version="1.0" standalone="no"?>
<!DOCTYPE svg PUBLIC "-//W3C//DTD SVG 20010904//EN"
 "http://www.w3.org/TR/2001/REC-SVG-20010904/DTD/svg10.dtd">
<svg version="1.0" xmlns="http://www.w3.org/2000/svg"
 width="3264.000000pt" height="2448.000000pt" viewBox="0 0 3264.000000 2448.000000"
 preserveAspectRatio="xMidYMid meet">
<metadata>
Created by potrace 1.12, written by Peter Selinger 2001-2015
</metadata>
<g transform="translate(0.000000,2448.000000) scale(0.100000,-0.100000)"
fill="#000000" stroke="none">
<path d="M6910 24435 c-15 -18 -25 -130 -39 -465 -12 -265 -9 -436 8 -628 7
-68 10 -131 7 -140 -8 -25 8 -44 35 -40 l24 3 1 305 c0 168 6 370 12 450 7 80
14 174 17 210 2 36 9 88 15 115 22 102 23 153 6 180 -19 29 -66 34 -86 10z"/>
<path d="M6366 24421 c-9 -10 -21 -43 -27 -72 -17 -87 -23 -685 -9 -829 7 -69
14 -179 16 -245 2 -65 6 -125 8 -132 7 -17 47 -17 71 1 14 10 18 25 17 64 0
28 -5 59 -10 69 -21 39 -35 692 -20 863 5 47 18 124 30 173 20 84 20 88 3 107
-23 25 -57 26 -79 1z"/>
<path d="M4640 24365 c-135 -19 -320 -67 -458 -120 -66 -25 -127 -45 -136 -45
-28 0 -76 -60 -76 -95 0 -16 -7 -64 -15 -105 -48 -236 -56 -373 -30 -519 8
-47 13 -86 11 -88 -2 -2 5 -36 15 -76 30 -113 52 -267 46 -324 -5 -50 -5 -52
25 -62 21 -8 36 -7 50 0 19 10 20 18 15 88 -3 42 -15 112 -27 155 -12 43 -17
82 -13 86 4 5 58 22 120 39 62 18 143 43 180 56 37 13 136 42 218 65 83 23
155 45 160 49 6 4 37 18 70 30 57 21 79 35 176 109 40 31 69 41 69 24 0 -4
-18 -59 -40 -122 -51 -144 -59 -215 -35 -304 42 -153 173 -214 359 -166 119
30 207 82 306 180 100 99 161 187 189 276 23 70 20 94 -14 94 -27 0 -50 -25
-59 -63 -9 -39 -75 -146 -128 -207 -105 -123 -310 -228 -417 -215 -63 8 -101
26 -128 61 -56 75 -35 252 53 443 36 78 44 138 19 147 -29 12 -85 -18 -127
-67 -31 -36 -53 -53 -87 -63 -25 -7 -73 -25 -106 -39 -33 -13 -82 -30 -110
-36 -60 -13 -210 -48 -395 -92 -250 -59 -288 -67 -301 -58 -10 6 -13 36 -12
121 2 180 20 305 60 433 37 118 54 136 173 179 41 16 93 36 115 46 22 10 85
29 140 43 55 14 112 30 127 36 15 5 84 15 155 21 362 33 376 34 387 52 8 13 7
21 -2 30 -19 19 -397 21 -522 3z"/>
<path d="M9226 24357 c-8 -12 -29 -55 -46 -96 -40 -97 -116 -240 -172 -321
-24 -36 -63 -103 -87 -150 -24 -47 -47 -90 -51 -95 -5 -6 -34 -68 -64 -140
-31 -71 -67 -145 -79 -165 -67 -102 -197 -418 -197 -480 0 -31 22 -50 58 -50
30 0 42 22 62 118 10 49 34 129 53 177 27 69 41 91 63 103 16 8 54 38 84 66
46 43 160 126 254 185 38 24 56 8 56 -47 0 -47 26 -262 35 -292 2 -8 7 -39 10
-69 6 -61 16 -72 60 -69 28 3 30 6 29 43 -1 22 -11 94 -23 160 -13 66 -29 167
-36 225 -15 121 -12 130 54 170 101 60 249 161 279 191 25 25 30 35 21 45 -6
8 -20 14 -31 14 -21 0 -28 -4 -215 -124 -40 -25 -82 -47 -95 -49 -22 -2 -23 1
-23 53 2 181 18 286 65 430 33 102 35 172 4 184 -30 12 -54 6 -68 -17z m-79
-529 l-3 -192 -61 -41 c-196 -128 -253 -156 -253 -125 0 14 29 71 46 90 20 24
105 182 159 300 55 120 80 160 100 160 12 0 14 -34 12 -192z"/>
<path d="M11247 24343 c-24 -27 -80 -154 -112 -253 -15 -47 -33 -99 -41 -117
-8 -17 -14 -36 -14 -42 0 -6 -13 -59 -29 -118 -16 -60 -39 -152 -51 -206 -14
-60 -28 -101 -37 -104 -8 -3 -28 8 -46 24 -43 41 -73 56 -132 64 -156 21 -305
-66 -305 -178 0 -81 46 -135 147 -173 106 -40 314 -26 564 39 90 23 226 87
240 113 23 44 -29 51 -106 15 -48 -23 -184 -69 -234 -81 -43 -9 -61 9 -61 61
0 26 4 60 10 77 29 92 81 269 95 323 40 161 107 333 166 431 31 50 39 74 37
101 -3 33 -6 36 -39 39 -24 2 -40 -3 -52 -15z m-433 -837 c49 -20 105 -74 128
-122 36 -77 32 -79 -122 -79 -122 0 -139 2 -180 23 -24 13 -50 31 -57 40 -37
49 10 103 122 138 53 17 69 17 109 0z"/>
<path d="M10125 24337 c-13 -10 -16 -22 -12 -43 4 -17 -5 -73 -22 -139 -73
-283 -93 -413 -94 -607 0 -140 -1 -148 -20 -148 -10 0 -36 14 -57 30 -21 17
-65 42 -97 57 -48 23 -71 27 -134 26 -77 0 -107 -10 -146 -46 -56 -50 -9 -187
80 -233 44 -24 179 -36 250 -24 98 17 228 48 287 69 116 40 201 95 185 120
-11 19 -44 12 -128 -25 -99 -43 -139 -43 -147 1 -6 33 12 266 30 396 7 46 28
143 47 214 71 270 76 291 70 317 -5 17 -17 30 -38 37 -39 13 -32 14 -54 -2z
m-338 -921 c108 -29 193 -90 165 -118 -17 -17 -220 -14 -262 4 -78 35 -102 89
-50 115 33 16 82 16 147 -1z"/>
<path d="M11923 23778 c-72 -28 -129 -88 -160 -168 -14 -36 -32 -72 -39 -80
-10 -12 -11 -42 -5 -135 6 -100 12 -129 35 -178 39 -81 81 -102 196 -101 128
2 315 57 315 94 0 23 -40 24 -129 1 -130 -32 -191 -36 -235 -16 -65 29 -106
107 -99 190 l3 39 88 13 c95 13 208 60 267 109 34 29 80 111 80 143 0 27 -48
81 -87 97 -49 21 -168 17 -230 -8z m197 -71 c39 -19 38 -58 -2 -92 -40 -35
-186 -104 -233 -112 -72 -12 -81 33 -22 115 59 82 184 126 257 89z"/>
<path d="M13290 23639 c-89 -8 -318 -49 -385 -69 -16 -5 -64 -19 -105 -31 -92
-27 -240 -96 -297 -138 -82 -60 -100 -141 -36 -157 21 -6 30 -2 42 15 59 84
113 122 245 175 100 40 366 100 528 120 34 5 87 8 353 24 100 6 110 9 110 26
0 13 -10 23 -30 28 -43 13 -314 17 -425 7z"/>
<path d="M27728 23615 c-56 -31 -52 -86 5 -71 44 11 136 -22 191 -67 66 -55
84 -76 153 -175 99 -142 131 -194 177 -288 123 -251 138 -605 36 -829 -44 -97
-89 -186 -99 -198 -6 -8 -24 -39 -40 -69 -16 -30 -41 -72 -55 -93 -14 -21 -26
-42 -26 -46 0 -13 -68 -109 -103 -147 -29 -30 -30 -33 -15 -48 23 -23 78 -11
110 24 14 15 48 70 75 122 52 102 132 243 170 301 12 19 23 38 23 41 0 4 13
35 29 70 86 189 104 397 55 643 -22 110 -35 149 -86 255 -34 68 -79 151 -102
184 -22 33 -47 72 -56 87 -45 80 -156 213 -209 248 -87 59 -185 82 -233 56z"/>
<path d="M25673 23342 c-59 -32 -110 -116 -166 -278 -56 -161 -69 -243 -64
-407 2 -78 9 -163 15 -190 54 -230 221 -422 420 -482 84 -25 219 -41 253 -30
24 8 24 31 2 43 -10 5 -40 13 -67 17 -68 9 -237 70 -283 100 -170 114 -272
321 -273 556 0 72 25 269 39 309 5 14 17 49 25 78 40 127 99 222 141 222 20 0
58 48 52 64 -8 21 -53 20 -94 -2z"/>
<path d="M27350 23234 c-92 -52 -170 -149 -221 -276 -16 -38 -29 -76 -29 -83
0 -7 -10 -34 -22 -61 -20 -45 -23 -68 -26 -278 -3 -147 0 -249 7 -286 7 -32 9
-70 5 -84 -6 -24 -10 -25 -77 -28 -87 -4 -96 -21 -27 -55 143 -70 155 -73 193
-49 12 8 49 17 82 21 66 7 194 42 210 56 5 5 15 9 23 9 49 0 239 107 310 174
78 74 95 107 96 185 2 135 -80 231 -236 277 -27 8 -48 21 -48 28 0 8 11 38 25
68 39 83 35 161 -11 249 -41 78 -84 125 -131 145 -46 20 -72 17 -123 -12z m79
-58 c36 -19 85 -75 112 -128 29 -57 22 -131 -20 -222 -42 -90 -37 -109 32
-134 28 -11 69 -22 89 -26 47 -9 143 -101 152 -147 10 -54 7 -68 -28 -123 -33
-52 -109 -112 -186 -148 -146 -68 -325 -121 -394 -116 l-41 3 -5 136 c-14 334
-2 501 46 638 48 135 134 261 189 274 11 3 21 5 23 6 2 0 16 -6 31 -13z"/>
<path d="M24696 22981 c-15 -17 -15 -26 -2 -117 8 -54 17 -128 21 -164 4 -36
13 -87 21 -114 29 -101 19 -119 -71 -131 -66 -9 -221 -53 -267 -76 -64 -32
-100 -98 -62 -113 10 -4 58 11 111 34 108 46 232 83 283 84 l35 1 8 -80 c12
-120 57 -357 73 -382 16 -26 46 -30 64 -9 9 12 7 31 -9 91 -12 42 -25 104 -31
138 -5 34 -16 102 -25 151 -14 74 -14 91 -3 102 8 8 54 21 103 29 50 9 117 20
150 26 140 25 315 71 315 84 0 7 -11 16 -24 19 -37 9 -254 -16 -473 -55 -95
-17 -103 -10 -103 83 0 92 -30 378 -41 401 -13 22 -51 22 -73 -2z"/>
<path d="M23505 22882 c-24 -17 -85 -102 -113 -157 -54 -106 -84 -197 -112
-333 -15 -73 -29 -134 -31 -136 -2 -2 -27 -15 -55 -29 -71 -36 -114 -74 -114
-102 0 -34 23 -37 79 -8 28 15 54 24 57 20 4 -4 -4 -62 -19 -129 -57 -276 -57
-278 -14 -278 34 0 56 29 61 81 17 161 39 318 49 338 15 30 38 37 201 57 124
15 129 15 148 -3 10 -11 27 -53 38 -94 48 -192 52 -199 101 -173 16 8 29 21
29 28 0 13 -44 132 -75 202 -16 38 -9 50 40 67 48 17 56 34 18 43 -93 21 -103
26 -118 54 -8 16 -15 39 -15 50 0 12 -12 76 -26 143 -14 67 -32 165 -39 217
-18 123 -28 150 -57 150 -13 0 -27 -4 -33 -8z m11 -177 c7 -33 22 -111 33
-173 12 -62 30 -131 42 -153 11 -22 19 -50 17 -62 -3 -20 -11 -23 -113 -31
-171 -13 -169 -13 -173 8 -2 10 6 50 18 90 12 39 25 87 31 106 11 42 45 161
61 210 27 89 68 91 84 5z"/>
<path d="M25986 22676 c-22 -8 -50 -25 -63 -38 -21 -21 -22 -26 -9 -43 13 -17
18 -18 78 -7 36 7 147 12 247 12 145 0 188 3 212 16 38 19 33 35 -17 53 -60
20 -397 26 -448 7z"/>
<path d="M9510 22543 c-734 -19 -939 -24 -1015 -28 -97 -5 -766 -31 -1010 -40
-224 -8 -625 -24 -750 -30 -319 -15 -526 -26 -665 -35 -191 -12 -610 -37 -870
-50 -107 -6 -231 -12 -275 -15 -117 -7 -493 -24 -690 -30 -93 -3 -271 -11
-395 -16 -124 -6 -367 -10 -541 -10 -292 1 -319 0 -339 -17 -19 -15 -21 -22
-12 -39 6 -11 26 -27 44 -36 29 -13 78 -14 388 -7 195 5 414 14 485 19 72 5
207 13 300 16 429 15 1084 48 1400 70 372 27 760 51 940 60 61 3 146 7 190 10
44 3 127 7 185 10 291 13 571 25 715 30 88 3 201 8 250 10 50 2 164 6 255 10
168 5 287 10 600 24 96 5 271 9 389 10 118 1 218 4 222 7 14 8 1087 4 1489 -6
771 -19 1512 -40 1564 -45 23 -2 124 -7 226 -10 102 -4 188 -9 191 -11 4 -2
64 -6 135 -9 119 -6 387 -31 594 -56 47 -6 121 -15 165 -20 44 -5 204 -28 355
-50 151 -22 302 -44 335 -49 33 -5 134 -20 225 -34 407 -63 420 -63 420 -12 0
45 -30 58 -137 61 -83 1 -365 35 -413 50 -13 4 -165 26 -480 70 -219 30 -597
74 -825 95 -355 33 -1038 63 -1730 76 -170 3 -329 7 -353 9 -118 10 -1319 24
-1562 18z"/>
<path d="M8591 21784 c-113 -30 -220 -106 -277 -196 -13 -21 -37 -77 -53 -125
-82 -248 -73 -389 34 -531 108 -143 296 -242 460 -242 133 1 257 46 338 125
35 34 47 68 28 79 -4 3 -39 -13 -77 -36 -126 -76 -255 -97 -389 -63 -192 49
-352 210 -372 373 -14 120 56 364 124 434 55 57 151 100 236 106 57 4 76 1
118 -19 54 -25 70 -22 96 17 12 18 11 24 -7 47 -37 47 -150 60 -259 31z"/>
<path d="M9365 21656 c-15 -22 -15 -27 0 -55 29 -58 115 -35 115 30 0 52 -86
70 -115 25z"/>
<path d="M26619 21615 c-48 -25 -124 -102 -167 -170 -14 -22 -39 -78 -55 -125
-29 -81 -30 -93 -31 -260 -1 -187 18 -337 55 -435 23 -60 24 -104 4 -111 -8
-3 -37 -1 -65 5 -97 21 -127 -31 -41 -68 66 -28 135 -27 255 4 258 65 573 271
615 402 28 86 -11 156 -107 194 -51 21 -75 23 -235 23 -123 1 -177 4 -177 12
0 6 25 38 56 70 31 33 70 88 86 123 29 60 31 67 25 151 -13 183 -93 250 -218
185z m105 -87 c46 -62 52 -159 15 -231 -25 -47 -85 -133 -114 -163 -44 -45
-95 -111 -95 -124 0 -19 53 -31 109 -25 75 8 290 8 349 -1 55 -8 132 -49 132
-71 0 -43 -93 -144 -190 -207 -79 -51 -303 -161 -348 -171 -38 -8 -34 -15 -57
120 -9 55 -25 132 -35 170 -11 39 -22 107 -26 152 -6 77 -5 85 21 128 34 58
28 93 -15 102 -36 7 -37 15 -6 95 42 108 79 168 141 231 40 39 86 37 119 -5z"/>
<path d="M24195 21388 c-66 -78 -135 -305 -161 -534 -6 -51 -12 -63 -46 -93
-43 -39 -48 -62 -16 -83 l22 -14 -31 -135 c-73 -314 -72 -312 -20 -307 22 2
35 11 43 28 11 22 40 188 66 369 13 89 18 96 85 110 115 23 295 41 312 32 9
-6 27 -29 39 -53 24 -47 62 -187 62 -230 0 -35 32 -46 66 -23 21 14 24 21 18
53 -7 42 -34 119 -63 184 -31 67 -31 70 18 82 78 20 59 49 -40 64 l-53 7 -27
65 c-59 142 -109 278 -124 338 -41 163 -91 210 -150 140z m48 -105 c8 -16 33
-84 56 -153 24 -69 58 -151 77 -183 58 -99 60 -97 -116 -117 -58 -7 -120 -15
-137 -17 -29 -5 -33 -3 -33 18 0 13 9 56 19 94 11 39 32 130 46 203 23 123 45
182 66 182 5 0 15 -12 22 -27z"/>
<path d="M10124 21353 c-46 -9 -106 -75 -148 -162 -40 -83 -42 -85 -76 -86
-31 0 -37 -5 -58 -45 -19 -38 -22 -55 -17 -110 9 -94 31 -149 63 -157 35 -8
58 22 67 89 15 107 71 277 111 338 49 74 95 63 162 -39 88 -131 137 -256 168
-421 15 -81 33 -106 65 -89 50 26 -3 265 -101 454 -76 147 -116 205 -155 221
-35 14 -42 15 -81 7z"/>
<path d="M9439 21309 c-8 -17 -7 -34 5 -78 20 -72 46 -242 46 -303 0 -52 27
-92 54 -82 35 14 39 67 16 242 -21 165 -34 220 -54 234 -21 15 -55 8 -67 -13z"/>
<path d="M25485 21050 c-168 -26 -215 -47 -215 -96 0 -31 34 -40 81 -20 19 8
76 22 125 30 110 19 149 31 181 52 21 13 23 18 12 29 -24 23 -60 24 -184 5z"/>
<path d="M9661 20641 c-12 -8 -13 -19 -3 -68 42 -197 41 -192 37 -698 -7 -701
-7 -775 0 -820 5 -30 3 -44 -7 -53 -9 -7 -143 -19 -379 -32 -620 -34 -1292
-69 -1559 -80 -391 -18 -604 -54 -657 -113 -56 -63 -67 -184 -58 -647 7 -381
7 -701 0 -845 -2 -44 -7 -138 -10 -210 -8 -203 -15 -353 -20 -440 -3 -44 -10
-208 -15 -365 -16 -425 -49 -961 -75 -1195 -5 -50 1 -60 48 -80 68 -28 147
-19 362 40 341 94 507 116 970 130 183 5 269 10 495 26 129 8 398 25 754 45
95 5 120 4 127 -7 5 -8 9 -50 9 -94 0 -45 7 -135 15 -200 9 -66 20 -158 25
-204 11 -98 23 -117 65 -101 l28 10 -7 73 c-4 39 -18 148 -32 242 -27 189 -30
268 -11 282 6 5 210 20 452 32 242 13 510 27 595 32 85 4 274 13 420 18 146 6
315 13 375 16 61 2 227 7 370 10 314 6 446 12 628 27 126 10 140 13 153 33 13
20 12 29 -11 91 -132 356 -218 690 -259 1010 -27 205 -66 611 -66 685 0 61 19
65 595 124 309 31 366 35 724 50 201 8 431 19 511 25 430 29 539 33 915 34
226 1 416 5 423 9 19 12 14 45 -8 57 -38 20 -938 7 -1260 -19 -74 -6 -297 -18
-495 -26 -420 -17 -419 -17 -850 -56 -297 -27 -506 -53 -528 -66 -4 -3 -15 1
-23 8 -14 11 -15 37 -10 189 4 96 9 207 11 245 3 39 9 156 15 260 5 105 17
282 26 395 20 253 15 461 -13 517 -11 23 -34 47 -58 61 -39 23 -44 23 -225 17
-102 -3 -203 -7 -225 -10 -22 -2 -116 -6 -210 -10 -156 -5 -317 -17 -610 -46
-60 -6 -308 -14 -550 -19 -242 -5 -450 -12 -462 -15 -25 -8 -31 -40 -10 -48 7
-2 51 -2 97 2 47 4 139 6 205 5 443 -7 712 -4 855 11 175 17 456 31 830 40
219 6 258 5 275 -8 30 -23 35 -179 14 -487 -38 -564 -44 -708 -42 -1010 2
-449 46 -899 123 -1275 17 -82 35 -163 40 -180 5 -16 18 -64 30 -105 12 -41
43 -140 71 -220 27 -80 49 -151 49 -157 0 -19 -23 -21 -320 -33 -1050 -39
-1316 -51 -1800 -80 -374 -23 -714 -41 -930 -50 -124 -5 -400 -21 -615 -34
-214 -14 -529 -30 -700 -36 -496 -17 -669 -42 -1070 -154 -101 -29 -186 -34
-204 -12 -9 10 -8 54 3 177 29 313 35 429 71 1299 8 206 17 384 19 395 16 71
24 702 18 1315 -3 260 8 401 33 450 30 59 179 80 715 105 184 8 378 17 430 20
243 14 484 26 820 40 201 8 409 20 463 25 66 6 108 5 128 -2 22 -7 37 -7 54 0
13 6 57 14 97 17 40 3 100 7 133 10 115 9 651 26 745 23 102 -3 120 2 120 33
0 14 -12 25 -37 36 -33 13 -71 15 -268 9 -288 -8 -621 -23 -706 -32 -51 -5
-67 -3 -71 7 -3 8 -2 178 3 379 19 886 5 1214 -54 1252 -16 10 -49 10 -66 -1z"/>
<path d="M28437 19720 c-21 -17 -22 -27 -23 -142 -1 -67 -4 -227 -7 -354 -6
-224 11 -606 27 -633 11 -17 24 -13 42 14 14 22 17 64 19 293 3 331 7 389 40
616 21 140 20 163 -10 190 -35 33 -61 37 -88 16z"/>
<path d="M27065 19496 c-89 -28 -149 -63 -169 -97 -28 -47 -4 -69 74 -69 22 0
68 17 124 45 93 48 161 59 172 30 7 -18 -33 -88 -96 -170 -78 -101 -180 -255
-195 -293 -41 -111 -40 -218 2 -254 56 -48 211 -64 309 -32 134 44 248 95 321
145 23 16 45 29 50 29 16 1 72 56 87 85 34 66 -8 60 -150 -21 -183 -105 -345
-164 -453 -164 -48 0 -71 26 -71 82 0 47 71 194 139 288 110 152 171 261 171
305 0 102 -148 144 -315 91z"/>
<path d="M26272 19458 c-11 -13 -25 -35 -31 -50 -10 -27 -22 -166 -25 -288 -1
-63 -2 -64 -44 -97 -24 -18 -66 -40 -95 -49 -69 -21 -233 -30 -279 -15 -93 31
-108 115 -42 246 21 42 44 81 51 87 19 16 16 46 -6 58 -11 5 -40 10 -65 10
-53 0 -75 -22 -102 -103 -9 -29 -26 -70 -37 -92 -16 -30 -21 -60 -21 -117 -1
-90 11 -108 101 -153 51 -26 67 -29 194 -33 151 -5 198 3 282 46 36 19 51 22
60 13 8 -8 10 -59 8 -165 -3 -159 0 -173 38 -161 24 7 33 50 37 195 3 109 11
225 15 225 1 0 3 25 4 56 2 31 8 66 14 77 6 11 11 40 11 65 0 24 3 47 7 51 10
9 42 136 43 164 0 17 -9 27 -35 38 -46 19 -58 18 -83 -8z"/>
<path d="M24723 19388 c-4 -7 -15 -33 -23 -58 l-15 -45 -90 -30 c-163 -55
-283 -138 -301 -209 -10 -41 1 -54 63 -71 32 -9 73 -22 91 -30 18 -8 43 -15
55 -15 12 0 34 -10 49 -23 l28 -22 -32 -90 c-41 -118 -49 -225 -19 -272 34
-53 73 -68 181 -68 111 1 152 17 217 87 30 33 42 56 47 91 15 96 -70 209 -199
268 -65 29 -75 42 -55 77 5 9 23 55 40 102 17 47 39 103 50 125 22 46 50 124
50 142 0 34 -118 70 -137 41z m-73 -233 c0 -36 -28 -135 -45 -162 -12 -18 -22
-22 -38 -18 -35 11 -106 46 -113 56 -11 18 7 44 53 79 95 73 143 88 143 45z
m133 -354 c44 -39 76 -101 77 -143 0 -14 -12 -40 -26 -58 -52 -61 -120 -77
-168 -39 -48 38 -50 51 -25 171 30 145 49 155 142 69z"/>
<path d="M23980 18985 c-156 -16 -329 -56 -347 -81 -19 -25 -16 -52 6 -64 14
-7 46 -4 118 11 54 11 154 29 223 39 210 32 258 53 211 91 -26 21 -36 22 -211
4z"/>
<path d="M25690 18642 l-23 -19 26 -54 c14 -30 51 -115 82 -189 32 -74 67
-153 78 -175 27 -52 56 -135 57 -160 0 -45 44 -59 75 -25 10 11 22 20 26 20
49 0 108 -380 116 -738 3 -144 6 -174 19 -179 9 -3 22 1 29 8 17 18 35 147 35
252 -1 176 -61 630 -96 720 -9 25 -46 28 -81 6 l-33 -21 -26 59 c-14 32 -52
117 -84 188 -32 72 -73 170 -91 218 -25 68 -38 91 -56 98 -31 11 -27 12 -53
-9z"/>
<path d="M23782 18553 c-7 -3 -17 -14 -23 -25 -9 -17 2 -32 95 -124 58 -58
108 -114 111 -125 4 -10 10 -19 16 -19 5 0 19 -17 32 -37 14 -21 37 -52 53
-69 17 -18 41 -48 54 -67 24 -35 61 -54 80 -42 34 21 -15 110 -129 241 -20 22
-76 89 -124 147 -49 59 -90 107 -91 107 0 0 -15 4 -31 8 -17 5 -36 7 -43 5z"/>
<path d="M22950 18530 c-26 -26 -25 -30 9 -99 72 -145 90 -247 92 -511 1 -102
4 -198 8 -215 8 -36 44 -47 60 -17 14 27 17 483 3 547 -6 28 -27 99 -47 159
-19 59 -35 115 -35 122 0 13 -38 34 -61 34 -5 0 -18 -9 -29 -20z"/>
<path d="M2708 18422 c-110 -73 -245 -402 -308 -757 -6 -33 -20 -88 -32 -122
-18 -56 -19 -66 -7 -105 16 -50 44 -61 74 -28 15 17 19 37 20 98 l0 77 39 13
c22 7 71 17 110 23 111 15 494 133 520 159 21 21 61 10 82 -23 121 -189 178
-284 212 -359 20 -44 33 -51 67 -38 36 14 32 43 -17 123 -24 38 -56 92 -73
121 -16 29 -49 78 -73 109 -43 57 -69 104 -61 111 2 2 50 20 106 41 113 41
163 76 143 100 -18 22 -33 19 -168 -32 -93 -35 -127 -44 -140 -37 -9 6 -36 42
-61 81 -151 234 -264 390 -314 431 -44 36 -79 40 -119 14z m90 -113 c18 -16
77 -91 132 -167 108 -150 144 -198 178 -241 37 -48 47 -43 -183 -106 -275 -76
-420 -104 -438 -86 -13 13 -6 48 46 226 50 177 104 306 154 373 31 41 66 42
111 1z"/>
<path d="M31955 18354 c-11 -3 -47 -9 -80 -16 -33 -6 -85 -17 -115 -25 -30 -8
-73 -19 -95 -23 -22 -5 -85 -20 -140 -35 -134 -35 -157 -63 -117 -145 21 -43
43 -44 152 -7 242 81 392 121 405 109 13 -13 2 -40 -33 -88 -72 -97 -82 -113
-141 -232 -71 -142 -87 -215 -52 -246 28 -25 47 -15 55 30 11 55 130 280 186
349 27 33 49 63 49 68 1 4 13 26 27 49 14 22 28 59 30 82 2 23 6 51 9 62 3 13
-4 33 -16 48 -17 21 -28 26 -62 25 -23 -1 -51 -3 -62 -5z"/>
<path d="M28611 18186 c-31 -37 -21 -107 56 -416 14 -59 41 -100 64 -100 5 0
16 17 24 37 14 34 14 43 -1 108 -9 38 -18 122 -20 185 -2 63 -3 123 -4 133 -1
47 -91 87 -119 53z"/>
<path d="M9950 18183 c-245 -10 -502 -28 -795 -58 -153 -16 -418 -35 -476 -35
-50 0 -73 -5 -89 -18 -32 -26 -20 -49 48 -98 31 -23 99 -74 151 -113 111 -84
278 -168 476 -240 77 -28 223 -85 325 -127 102 -42 221 -88 265 -104 105 -36
156 -61 152 -74 -5 -15 -61 -30 -182 -51 -192 -33 -384 -101 -603 -216 -171
-89 -265 -153 -330 -224 -65 -71 -67 -94 -12 -146 77 -74 204 -86 535 -54 462
45 938 75 1188 75 247 0 342 -9 392 -35 23 -13 36 -14 58 -6 29 11 33 25 18
64 -14 35 -68 46 -280 56 -185 8 -477 1 -711 -19 -69 -5 -192 -15 -275 -20
-172 -11 -368 -27 -470 -37 -38 -4 -122 -7 -185 -7 -104 0 -120 3 -160 25 -71
39 -64 61 40 130 101 68 340 191 465 241 112 44 164 59 340 98 145 31 321 79
343 93 6 5 12 14 12 21 0 7 -6 20 -12 29 -15 19 -211 109 -365 167 -56 21
-117 45 -135 54 -89 40 -190 81 -363 147 -215 82 -284 113 -405 187 -106 65
-169 117 -155 130 6 5 75 12 155 16 147 6 229 12 555 40 281 24 665 36 767 23
96 -12 118 -5 118 39 0 54 -52 60 -400 47z"/>
<path d="M16910 18093 c-65 -11 -212 -59 -279 -92 -41 -19 -94 -55 -117 -78
-43 -41 -44 -44 -44 -106 0 -54 4 -69 30 -104 79 -108 195 -153 475 -188 263
-32 384 -64 435 -115 52 -52 3 -188 -115 -317 -108 -118 -209 -173 -325 -176
-62 -2 -65 -3 -68 -29 -7 -57 81 -75 180 -38 110 41 226 131 320 248 80 101
111 170 112 253 1 58 -2 70 -28 103 -53 70 -177 110 -446 146 -209 28 -284 44
-356 80 -110 54 -172 152 -128 201 44 49 226 116 364 134 127 17 256 -1 299
-41 13 -12 12 -17 -7 -37 -49 -52 -9 -64 56 -17 57 41 79 75 61 96 -20 24 -98
60 -157 73 -50 10 -208 13 -262 4z"/>
<path d="M26957 18093 c-25 -6 -39 -47 -27 -78 19 -50 23 -82 29 -250 6 -178
-1 -531 -14 -625 -6 -47 -4 -59 13 -80 l21 -25 20 20 c34 33 51 273 48 669
l-3 328 -27 24 c-16 13 -31 23 -35 23 -4 -1 -15 -3 -25 -6z"/>
<path d="M6840 18015 c-8 -2 -71 -8 -140 -14 -117 -10 -237 -22 -570 -56 -315
-32 -527 -39 -775 -27 -217 10 -241 10 -257 -5 -24 -22 -23 -40 5 -58 19 -12
78 -16 308 -21 297 -7 442 1 854 46 99 11 205 22 235 25 191 18 427 48 442 56
19 10 24 34 9 43 -12 8 -92 16 -111 11z"/>
<path d="M24595 17931 c-38 -18 -82 -51 -120 -91 -33 -34 -75 -76 -93 -94 -56
-53 -75 -91 -68 -139 4 -25 0 -64 -9 -97 -21 -80 -11 -125 40 -176 57 -57 96
-68 219 -62 111 6 199 30 341 97 190 89 295 194 315 315 9 59 1 100 -29 144
-26 36 -110 79 -191 98 -65 15 -88 15 -174 5 -95 -11 -100 -10 -113 9 -19 27
-47 25 -118 -9z m426 -100 c69 -27 96 -46 115 -82 43 -85 -55 -208 -242 -302
-204 -103 -409 -126 -489 -56 -56 49 -56 79 2 229 39 102 59 128 122 159 63
32 176 68 236 74 75 9 204 -3 256 -22z"/>
<path d="M18613 17806 c-11 -13 -28 -46 -37 -73 -61 -170 -155 -362 -243 -496
-97 -148 -206 -227 -312 -227 -80 0 -110 49 -131 212 -19 150 -8 257 39 362
23 53 21 66 -13 66 -32 0 -53 -19 -75 -71 -51 -122 -54 -365 -6 -499 48 -133
102 -178 199 -166 201 23 402 259 561 656 60 152 80 220 68 239 -15 24 -30 24
-50 -3z"/>
<path d="M18894 17691 c-60 -44 -80 -70 -117 -151 -51 -112 -76 -234 -87 -421
-10 -167 -6 -187 28 -174 8 3 18 5 22 5 23 0 34 55 41 195 12 258 80 485 146
485 45 0 85 -187 88 -415 2 -88 3 -163 4 -167 1 -5 14 -8 29 -8 42 0 64 32
107 155 58 168 166 375 195 375 18 0 40 -58 55 -145 18 -104 19 -168 4 -284
-12 -95 -4 -135 29 -143 11 -3 31 0 44 6 18 9 22 19 20 41 -4 39 -4 75 -3 226
3 187 -39 359 -93 389 -30 15 -66 -2 -125 -61 -39 -39 -55 -68 -154 -276 -6
-13 -16 -23 -23 -23 -14 0 -21 31 -23 110 -4 135 -42 265 -85 295 -31 22 -59
18 -102 -14z"/>
<path d="M29120 17630 c0 -5 5 -10 10 -10 6 0 10 5 10 10 0 6 -4 10 -10 10 -5
0 -10 -4 -10 -10z"/>
<path d="M29360 17564 c0 -8 5 -12 10 -9 6 3 10 10 10 16 0 5 -4 9 -10 9 -5 0
-10 -7 -10 -16z"/>
<path d="M31725 17146 c-30 -46 -55 -90 -55 -97 0 -8 -11 -31 -25 -51 -14 -20
-25 -43 -25 -50 0 -8 -4 -18 -8 -23 -5 -6 -15 -30 -22 -55 -8 -25 -17 -50 -22
-56 -17 -23 -56 -146 -73 -231 -14 -68 -16 -108 -11 -175 9 -105 34 -147 123
-205 l57 -38 110 1 111 2 47 52 c27 28 48 59 48 68 0 10 6 26 14 37 21 31 46
123 46 172 0 67 -50 152 -101 173 -25 11 -34 9 -71 -13 -77 -46 -206 -185
-193 -207 3 -6 -2 -13 -12 -16 -10 -3 -25 -9 -35 -14 -12 -7 -20 -3 -32 14
-12 19 -13 36 -6 85 5 34 13 68 18 74 5 7 13 28 17 47 4 19 20 60 36 90 15 30
47 96 69 145 67 144 74 158 99 193 18 25 31 32 56 32 18 0 38 7 45 15 10 12 6
21 -20 52 -40 46 -66 62 -102 63 -24 0 -36 -12 -83 -84z m213 -619 c7 -8 7
-29 -2 -67 -17 -72 -48 -131 -91 -175 -35 -34 -38 -35 -113 -35 -59 0 -85 5
-109 20 -40 24 -42 47 -5 56 15 4 51 27 80 51 30 23 66 50 80 59 15 8 38 31
52 50 35 50 85 69 108 41z"/>
<path d="M28956 17139 c-25 -21 -41 -29 -55 -24 -31 9 -59 -15 -98 -83 -74
-132 -101 -245 -83 -342 14 -70 25 -94 73 -153 49 -59 111 -89 186 -89 161 -1
246 109 266 345 14 159 -31 286 -121 346 -65 43 -120 43 -168 0z m80 -78 c54
2 59 0 90 -33 29 -32 33 -43 39 -119 9 -115 -6 -220 -42 -277 -45 -72 -72 -87
-158 -87 -70 0 -76 2 -109 34 -43 42 -61 109 -52 195 5 46 20 90 63 176 31 63
61 118 67 122 5 4 18 2 28 -3 10 -5 43 -9 74 -8z"/>
<path d="M27086 16914 c-26 -25 -30 -62 -12 -102 9 -20 22 -64 30 -97 8 -33
40 -118 71 -190 31 -71 62 -143 69 -160 7 -16 23 -68 35 -115 13 -47 26 -96
29 -110 8 -28 52 -40 69 -18 14 16 -8 151 -36 223 -11 28 -29 77 -41 110 -11
33 -39 109 -60 168 -39 107 -48 166 -35 218 6 23 1 30 -40 58 -53 36 -58 37
-79 15z"/>
<path d="M26069 16790 c-119 -21 -214 -117 -195 -196 12 -45 48 -26 60 32 4
18 16 40 26 49 47 43 169 58 245 30 52 -18 96 -19 121 -1 62 47 -127 110 -257
86z"/>
<path d="M31058 16725 c-69 -17 -234 -23 -305 -11 -59 10 -71 -1 -59 -49 10
-39 54 -55 148 -55 198 0 363 61 317 116 -14 17 -27 17 -101 -1z"/>
<path d="M3115 16652 c-56 -6 -140 -34 -190 -64 -73 -44 -138 -121 -194 -228
-94 -184 -129 -329 -138 -585 -8 -234 16 -337 101 -427 33 -36 95 -39 126 -6
37 40 20 78 -36 78 -110 0 -145 165 -109 520 16 161 36 236 95 361 55 117 87
158 150 196 141 83 353 84 395 2 40 -76 -7 -178 -152 -329 -75 -79 -137 -120
-211 -140 -34 -9 -46 -18 -59 -46 -15 -30 -15 -36 -2 -49 12 -12 25 -13 79 -4
114 19 532 -23 594 -59 39 -23 49 -62 31 -117 -27 -77 -107 -197 -189 -280
-88 -89 -161 -142 -275 -199 -83 -42 -267 -116 -289 -116 -40 0 -121 -33 -127
-51 -42 -132 422 31 663 233 97 81 201 207 256 309 32 60 40 85 44 143 4 70 3
72 -33 113 -29 34 -49 46 -103 62 -76 23 -164 36 -303 46 -53 4 -102 11 -108
15 -9 5 15 32 69 81 130 118 200 239 200 347 0 110 -69 175 -200 191 -30 3
-68 5 -85 3z"/>
<path d="M22852 16650 c-30 -13 -42 -48 -42 -130 0 -43 -5 -72 -12 -76 -7 -4
-53 -13 -104 -20 -108 -15 -304 -76 -327 -102 -30 -33 -16 -92 22 -92 8 0 35
13 60 30 46 29 270 100 316 100 13 0 27 -4 30 -10 3 -5 1 -95 -6 -198 -6 -104
-9 -201 -5 -216 8 -34 52 -37 65 -3 8 21 23 200 26 322 1 33 3 68 4 77 0 11
16 22 39 29 43 12 187 -5 336 -42 115 -28 186 -23 186 13 0 28 -273 99 -418
108 -62 4 -117 11 -122 16 -5 5 -2 45 7 92 12 65 13 85 3 97 -14 17 -25 18
-58 5z"/>
<path d="M24756 16622 c-11 -13 -24 -60 -36 -136 -16 -100 -17 -136 -9 -244
11 -146 36 -301 51 -319 15 -18 47 -16 55 3 3 9 -1 85 -10 168 -21 188 -21
287 0 396 24 128 23 144 -8 148 -15 2 -32 -5 -43 -16z"/>
<path d="M25915 16481 c-88 -41 -177 -135 -228 -240 -27 -56 -31 -75 -31 -150
-1 -76 2 -91 26 -133 15 -25 44 -56 63 -68 19 -12 35 -25 35 -30 0 -8 -54 -16
-175 -26 -38 -3 -191 -21 -340 -39 -148 -19 -344 -43 -435 -54 -188 -23 -278
-40 -261 -50 6 -4 73 -8 149 -9 139 -2 291 10 572 47 85 11 261 34 390 51 291
38 849 79 1510 110 289 14 762 47 865 60 44 6 130 15 190 20 61 5 153 13 205
19 496 54 834 65 1125 37 220 -22 287 -21 316 3 19 15 21 22 12 32 -18 18
-191 30 -428 29 -115 0 -223 -1 -240 0 -187 2 -488 -6 -570 -15 -16 -1 -75 -8
-130 -14 -55 -6 -174 -18 -265 -26 -91 -8 -214 -19 -275 -25 -291 -28 -471
-40 -710 -50 -143 -5 -325 -14 -405 -20 -80 -5 -199 -12 -265 -15 -129 -7
-440 -31 -517 -41 -27 -4 -48 -3 -48 2 0 5 28 24 63 42 70 36 188 133 199 162
4 11 11 20 16 20 15 0 56 86 49 103 -10 27 -27 20 -66 -24 -132 -150 -166
-181 -239 -215 -90 -43 -204 -56 -264 -31 -60 25 -80 67 -76 162 3 67 9 90 36
143 37 72 49 87 111 131 56 40 110 42 153 6 37 -31 39 -31 68 0 69 73 -75 147
-185 96z"/>
<path d="M29080 16292 c0 -82 50 -121 86 -66 13 19 14 28 5 37 -6 6 -11 21
-11 34 0 16 -8 27 -26 33 -47 18 -54 14 -54 -38z"/>
<path d="M6565 16313 c-16 -2 -109 -15 -205 -28 -96 -13 -274 -36 -395 -50
-429 -50 -562 -67 -705 -91 -320 -55 -402 -65 -567 -65 -169 0 -189 -5 -181
-46 11 -60 218 -63 523 -8 287 52 493 82 725 105 152 16 454 55 920 121 41 5
90 15 108 20 34 11 42 33 16 43 -17 6 -188 6 -239 -1z"/>
<path d="M30660 16151 c-31 -8 -37 -41 -13 -63 46 -39 163 -48 388 -28 272 23
560 22 855 -5 19 -1 112 -10 205 -19 94 -8 203 -17 244 -18 70 -3 74 -2 94 25
30 40 14 49 -95 53 -51 2 -160 8 -243 14 -82 6 -186 13 -230 15 -44 2 -141 9
-215 15 -129 12 -406 9 -716 -6 -106 -6 -170 0 -234 19 -8 3 -26 2 -40 -2z"/>
<path d="M26902 16113 c-10 -4 -10 -8 -1 -19 15 -18 43 -18 58 0 17 20 -22 33
-57 19z"/>
<path d="M29150 15795 c-14 -16 -9 -173 10 -360 5 -49 12 -133 15 -185 13
-233 16 -269 46 -445 13 -76 37 -124 68 -132 38 -9 70 53 42 82 -22 23 -50
151 -60 275 -7 74 -16 182 -21 240 -5 58 -15 197 -21 310 -7 113 -16 211 -22
218 -13 17 -42 15 -57 -3z"/>
<path d="M31719 15733 c-11 -13 -14 -93 -16 -412 -3 -465 -5 -511 -33 -559
-23 -39 -20 -62 8 -62 26 0 59 38 76 89 19 53 18 25 21 411 2 179 6 367 9 419
3 55 2 101 -5 112 -12 23 -42 25 -60 2z"/>
<path d="M24405 15683 c-16 -2 -104 -15 -195 -28 -91 -14 -230 -34 -310 -46
-205 -30 -509 -104 -615 -149 -11 -5 -58 -23 -105 -40 -104 -39 -140 -64 -140
-95 0 -38 28 -37 123 6 109 49 292 113 385 134 225 53 527 106 845 150 99 13
147 33 147 60 0 15 -56 18 -135 8z"/>
<path d="M27605 15598 c-55 -18 -61 -19 -86 -4 -36 21 -61 20 -93 -5 -29 -23
-28 -42 5 -113 11 -22 19 -54 19 -70 1 -17 12 -49 25 -71 33 -53 30 -47 61
-150 14 -49 35 -119 46 -155 15 -51 17 -79 12 -130 -12 -110 -4 -198 27 -293
16 -49 29 -95 29 -103 0 -7 19 -34 43 -59 38 -39 49 -45 85 -45 128 0 299 178
370 383 21 63 24 89 24 207 -1 166 -19 255 -73 365 -55 110 -154 214 -234 244
-73 27 -178 27 -260 -1z m216 -107 c72 -38 165 -147 201 -236 37 -92 50 -287
28 -422 -30 -186 -166 -346 -249 -294 -11 7 -11 12 2 31 12 17 13 29 5 53 -5
18 -20 73 -33 122 -13 50 -31 115 -41 145 -9 30 -17 90 -18 133 0 42 -5 77
-10 77 -18 0 -46 34 -46 56 0 30 -55 200 -80 245 -11 20 -20 50 -20 67 0 26 5
31 38 41 57 16 176 6 223 -18z"/>
<path d="M23490 15426 c-9 -12 -4 -29 28 -88 34 -63 66 -145 102 -263 18 -57
50 -238 60 -334 13 -119 14 -121 43 -121 49 0 51 17 27 190 -17 124 -40 229
-77 355 -36 127 -70 199 -114 247 -30 31 -50 35 -69 14z"/>
<path d="M26151 15429 c-73 -29 -112 -93 -76 -128 15 -15 18 -14 33 5 9 12 22
29 27 39 13 22 102 37 170 29 141 -16 277 -64 344 -120 79 -66 103 -195 69
-379 -23 -130 -60 -228 -105 -281 -50 -58 -150 -94 -264 -94 -71 0 -73 1 -110
40 -28 29 -45 61 -63 119 -38 121 -57 356 -38 480 6 40 10 45 47 58 22 8 74
20 115 26 58 9 75 16 78 30 11 54 -63 61 -194 17 -110 -36 -123 -51 -126 -139
-8 -252 14 -440 66 -565 56 -133 166 -174 345 -130 177 44 251 127 307 342 35
131 43 217 33 313 -21 181 -130 284 -351 330 -99 20 -266 25 -307 8z"/>
<path d="M24908 15252 c-74 -30 -165 -102 -205 -163 -23 -36 -26 -69 -5 -69 5
0 40 30 78 68 84 82 142 106 238 100 50 -3 71 -10 100 -31 75 -58 116 -179
136 -408 9 -104 8 -137 -5 -197 -24 -114 -63 -167 -129 -177 -98 -15 -192 65
-222 188 -19 78 -30 291 -19 363 6 42 8 44 41 44 50 0 104 25 104 48 0 34 -25
45 -93 40 -123 -8 -140 -43 -134 -277 4 -163 12 -209 47 -303 38 -103 139
-188 223 -188 97 0 196 70 243 172 28 61 29 67 28 218 -1 122 -6 175 -23 248
-70 302 -200 407 -403 324z"/>
<path d="M24150 14355 c-11 -13 -10 -25 2 -73 11 -39 14 -92 12 -167 -6 -222
26 -451 91 -672 45 -149 74 -203 110 -203 33 0 34 35 4 126 -39 116 -86 324
-99 444 -6 52 -11 183 -11 290 -1 234 -8 264 -60 268 -23 2 -40 -2 -49 -13z"/>
<path d="M22020 14346 c-47 -8 -134 -25 -195 -39 -255 -59 -320 -85 -320 -128
0 -21 5 -24 39 -27 23 -2 57 5 85 16 52 23 289 82 425 107 101 19 136 12 136
-28 0 -25 -58 -127 -95 -167 -52 -56 -242 -302 -273 -353 -36 -60 -52 -140
-33 -175 20 -37 107 -55 236 -49 92 4 130 12 232 45 129 42 183 72 183 102 0
29 -38 31 -104 5 -150 -60 -379 -93 -436 -63 -59 32 -31 87 170 328 162 196
200 258 207 341 5 54 4 58 -22 75 -36 23 -123 27 -235 10z"/>
<path d="M19666 14318 c-44 -40 -116 -281 -116 -389 0 -89 9 -117 55 -164 35
-35 58 -48 117 -66 104 -32 228 -31 326 1 45 15 76 20 81 14 9 -8 5 -48 -25
-295 -5 -45 -3 -58 11 -72 23 -24 52 -6 64 41 6 20 18 105 26 187 19 182 21
187 51 216 28 26 31 44 8 53 -20 8 -15 44 22 160 57 179 128 263 200 236 53
-21 88 32 42 64 -29 20 -72 20 -132 0 -51 -18 -113 -84 -142 -153 -39 -90 -64
-173 -80 -258 l-16 -92 -57 -22 c-75 -28 -250 -32 -331 -7 -55 17 -105 58
-129 105 -35 68 37 365 95 392 30 14 40 37 24 56 -18 22 -65 18 -94 -7z"/>
<path d="M14573 14315 c-114 -25 -186 -69 -199 -121 -7 -28 0 -38 33 -48 17
-6 31 2 63 33 52 50 111 71 226 78 101 6 134 -3 134 -41 0 -33 -66 -131 -178
-263 -128 -151 -170 -210 -182 -255 -32 -114 92 -139 470 -94 237 29 270 36
270 61 0 34 -40 37 -241 16 -358 -38 -450 -24 -392 59 9 14 62 77 116 140 125
145 180 221 206 288 37 94 25 136 -44 152 -57 14 -210 11 -282 -5z"/>
<path d="M14005 14276 c-106 -30 -189 -65 -259 -110 -49 -32 -57 -40 -54 -64
3 -24 7 -27 38 -26 24 1 53 13 85 36 65 46 122 74 197 98 113 35 99 9 -62
-112 -103 -78 -140 -117 -140 -150 0 -29 21 -33 160 -33 124 0 139 -2 185 -25
59 -30 67 -53 34 -108 -39 -65 -160 -201 -261 -295 -99 -91 -119 -127 -82
-141 28 -11 94 37 203 146 171 169 261 296 261 367 0 37 -60 86 -136 111 -57
19 -81 22 -156 17 -48 -3 -88 -2 -88 2 0 11 89 85 125 104 50 26 132 105 144
137 9 26 7 34 -9 50 -26 26 -82 25 -185 -4z"/>
<path d="M8676 14249 c-107 -25 -291 -163 -339 -253 -90 -173 -80 -381 24
-486 16 -16 55 -41 87 -57 51 -25 68 -28 152 -28 85 1 102 4 163 32 65 31 83
55 51 67 -9 3 -33 2 -53 -3 -76 -19 -165 -22 -224 -6 -74 19 -101 37 -139 94
-28 39 -32 55 -36 126 -10 189 60 310 228 395 60 31 164 39 208 16 43 -22 95
-21 117 4 16 18 16 21 2 44 -20 29 -113 66 -165 65 -20 -1 -54 -5 -76 -10z"/>
<path d="M16062 14247 c-45 -26 -55 -52 -47 -135 8 -98 30 -242 54 -357 19
-91 27 -141 36 -250 7 -79 15 -117 27 -132 16 -20 46 -15 53 8 12 36 -7 219
-54 529 -27 178 -28 253 -1 280 24 24 25 34 4 54 -18 19 -41 20 -72 3z"/>
<path d="M18296 14189 c-26 -14 -65 -22 -115 -26 -252 -15 -461 -161 -461
-320 0 -56 46 -102 127 -127 32 -10 82 -27 112 -38 l53 -20 -7 -82 c-5 -60 -2
-100 11 -156 31 -137 88 -196 206 -213 92 -12 144 1 200 51 52 47 68 85 68
162 0 55 -3 63 -37 101 -48 53 -103 84 -238 135 -66 25 -111 47 -113 57 -4 19
121 287 160 345 22 32 35 42 57 42 30 0 71 36 71 62 0 16 -30 48 -46 48 -5 0
-27 -9 -48 -21z m-96 -98 c0 -4 -25 -52 -55 -106 -31 -55 -65 -131 -76 -168
-12 -38 -27 -71 -35 -74 -25 -9 -176 48 -212 82 -45 40 -40 64 27 137 73 79
156 119 286 137 51 7 65 6 65 -8z m6 -513 c120 -56 161 -83 184 -121 51 -82
-5 -177 -102 -177 -48 0 -114 27 -140 56 -47 54 -84 188 -71 257 7 37 24 35
129 -15z"/>
<path d="M16721 14123 c-33 -29 -121 -220 -147 -322 -16 -63 -24 -122 -24
-181 0 -79 -2 -88 -25 -110 -41 -38 -28 -64 26 -53 23 4 28 -1 44 -42 9 -26
36 -67 59 -90 37 -39 48 -44 114 -55 160 -26 339 28 455 139 59 56 87 107 87
160 0 96 -73 152 -222 167 -125 13 -267 -26 -381 -104 -24 -17 -52 -32 -62
-34 -18 -3 -20 2 -17 57 5 115 58 277 123 374 46 69 52 111 15 111 -13 0 -33
-8 -45 -17z m455 -492 c66 -49 64 -94 -9 -169 -74 -76 -181 -117 -307 -117
-96 1 -148 26 -191 92 -33 54 -36 74 -11 96 26 23 150 82 212 100 88 26 91 26
185 24 76 -2 95 -6 121 -26z"/>
<path d="M10502 14068 c-22 -22 -16 -52 37 -197 21 -59 19 -81 -8 -81 -28 0
-61 -30 -61 -54 0 -33 18 -44 75 -48 l50 -3 17 -101 c23 -131 31 -154 60 -154
57 1 59 35 12 173 -42 123 -38 127 126 167 98 24 204 74 197 94 -2 6 -26 12
-54 14 -46 3 -117 -11 -249 -50 -23 -6 -48 -9 -56 -5 -11 4 -23 39 -38 104
-32 147 -32 148 -66 151 -16 2 -35 -3 -42 -10z"/>
<path d="M9128 13920 c-53 -31 -94 -167 -79 -260 27 -165 139 -260 306 -260
94 0 149 21 209 78 94 90 101 214 17 285 -51 42 -117 59 -192 48 -103 -15
-199 -66 -199 -107 0 -28 21 -31 72 -9 20 8 64 19 98 24 82 13 137 0 179 -43
41 -42 35 -73 -24 -131 -97 -98 -304 -63 -365 61 -37 74 -24 200 26 255 34 36
32 69 -3 69 -16 0 -36 -5 -45 -10z"/>
<path d="M10278 13863 c-9 -10 -32 -52 -53 -93 -47 -96 -137 -229 -197 -293
-44 -47 -49 -49 -84 -44 -20 4 -49 18 -64 32 -28 26 -64 99 -74 147 -7 31 -37
44 -67 28 -19 -11 -21 -18 -16 -60 8 -70 93 -197 151 -227 37 -19 106 -19 144
1 38 20 106 98 182 209 96 140 149 262 129 298 -12 24 -31 24 -51 2z"/>
<path d="M22180 13060 c-397 -32 -456 -34 -569 -16 -126 21 -154 14 -149 -32
4 -36 38 -51 150 -63 108 -12 267 -2 612 41 226 28 269 40 252 69 -8 12 -153
13 -296 1z"/>
<path d="M16795 13044 c-33 -8 -103 -26 -155 -39 -52 -14 -150 -30 -217 -37
-103 -10 -140 -9 -255 5 -73 9 -165 24 -204 33 -78 19 -118 14 -134 -17 -16
-29 1 -45 64 -63 168 -49 492 -62 663 -27 104 22 240 65 326 103 95 43 34 72
-88 42z"/>
<path d="M18380 13003 c-190 -20 -258 -23 -437 -19 -201 5 -212 4 -229 -15
-24 -26 -9 -51 37 -61 42 -10 337 -12 428 -3 36 3 154 17 261 30 107 13 232
27 277 31 92 7 123 25 88 50 -27 20 -157 16 -425 -13z"/>
<path d="M20190 13019 c-188 -9 -695 -48 -730 -56 -77 -18 -102 -58 -55 -89
22 -15 30 -14 97 1 40 9 141 23 223 31 207 19 865 64 946 64 48 0 70 4 79 15
28 34 -2 40 -208 41 -108 0 -267 -3 -352 -7z"/>
<path d="M14793 12975 c-160 -30 -442 -48 -648 -42 -110 4 -222 11 -248 16
-165 36 -258 31 -279 -14 -18 -39 2 -51 95 -58 45 -3 120 -10 167 -16 207 -24
332 -21 730 18 270 27 347 51 309 97 -13 16 -30 16 -126 -1z"/>
<path d="M27203 12980 c-13 -5 -23 -16 -23 -24 0 -17 64 -41 81 -30 6 3 37 -1
69 -11 63 -19 93 -15 88 12 -6 34 -167 73 -215 53z"/>
<path d="M23627 12962 c-44 -48 0 -78 124 -87 46 -4 158 -16 249 -27 269 -34
923 -29 1073 8 27 6 46 29 34 40 -3 3 -187 7 -409 9 -445 3 -608 14 -924 65
-91 15 -129 13 -147 -8z"/>
<path d="M10860 12572 c-126 -46 -200 -90 -271 -162 -133 -135 -174 -292 -115
-435 53 -125 182 -201 361 -212 78 -5 99 -2 153 17 62 23 91 44 78 58 -4 4
-69 7 -144 7 -128 0 -141 2 -206 29 -92 39 -149 94 -170 165 -9 30 -16 65 -16
79 0 78 71 216 145 281 50 43 165 98 234 111 84 16 141 12 206 -15 73 -30 116
-32 139 -6 51 56 -65 111 -234 111 -67 0 -101 -6 -160 -28z"/>
<path d="M19990 12402 c-21 -17 -21 -20 -9 -81 9 -48 9 -82 1 -144 -17 -123
-22 -221 -23 -447 -1 -341 -1 -350 16 -357 29 -10 55 26 55 77 0 25 6 95 14
156 8 60 20 174 26 254 6 80 18 202 26 271 15 115 15 130 0 181 -15 51 -54
108 -74 108 -6 0 -20 -8 -32 -18z"/>
<path d="M29696 12318 c-8 -13 -24 -97 -37 -188 -19 -131 -24 -209 -24 -380 0
-118 3 -237 7 -265 29 -219 51 -317 75 -337 7 -6 15 -9 18 -7 2 3 -3 92 -12
199 -16 208 -10 372 22 575 8 50 17 108 20 130 10 89 24 138 43 158 l21 20
-21 41 c-11 23 -27 49 -36 59 -21 24 -59 21 -76 -5z"/>
<path d="M16130 12311 c-160 -43 -330 -137 -407 -225 -23 -26 -61 -86 -85
-134 -41 -82 -43 -91 -43 -172 1 -116 28 -173 132 -278 94 -96 189 -145 358
-187 100 -25 120 -27 230 -22 66 4 168 15 227 26 187 34 271 88 324 206 23 54
26 69 21 145 -4 81 -31 169 -57 185 -6 3 -10 13 -10 21 0 12 8 13 35 8 47 -9
46 1 -16 124 -59 117 -115 177 -224 237 -146 82 -331 107 -485 66z m330 -101
c63 -17 134 -111 239 -312 76 -144 71 -293 -13 -380 -68 -71 -264 -121 -476
-122 -135 -1 -217 18 -307 70 -82 47 -162 161 -177 250 -14 83 51 220 155 323
65 65 224 143 344 170 55 12 192 13 235 1z"/>
<path d="M24295 12303 c-103 -5 -235 -33 -376 -79 -130 -42 -139 -47 -187 -97
-97 -103 -123 -202 -98 -376 31 -223 158 -388 346 -451 165 -55 631 -26 856
54 274 97 395 186 503 371 71 121 70 238 -2 315 -134 142 -275 196 -446 172
-79 -11 -84 -11 -131 13 -150 76 -234 90 -465 78z m294 -90 c30 -10 56 -23 58
-28 2 -6 -77 -27 -189 -49 -314 -63 -332 -69 -326 -110 4 -25 22 -25 113 -2
228 57 418 97 465 99 61 2 97 -17 195 -108 28 -25 73 -59 101 -75 71 -41 79
-52 65 -91 -16 -47 -14 -58 15 -70 47 -17 64 -4 62 49 -1 26 -5 52 -9 58 -5 5
-7 23 -6 39 2 26 -6 34 -76 81 -79 51 -157 120 -157 137 0 5 31 8 68 5 129 -7
296 -120 322 -216 13 -51 -1 -137 -28 -174 -10 -13 -23 -34 -29 -48 -18 -41
-114 -141 -168 -175 -166 -104 -443 -176 -740 -191 -231 -13 -368 26 -469 131
-98 102 -146 222 -146 367 0 121 13 165 66 226 43 49 51 53 168 91 106 34 221
57 366 75 73 9 226 -2 279 -21z"/>
<path d="M22502 12268 c-5 -7 -10 -54 -11 -103 -1 -125 -59 -405 -121 -578
-11 -32 -27 -88 -36 -124 -13 -58 -13 -68 -1 -81 24 -23 54 -6 71 41 22 61
103 322 122 392 22 82 63 330 64 383 0 58 -14 82 -49 82 -16 0 -33 -6 -39 -12z"/>
<path d="M13235 12263 c-44 -11 -78 -50 -179 -201 -150 -225 -215 -284 -271
-248 -60 39 -74 184 -30 302 29 76 31 106 10 124 -29 24 -94 -13 -187 -108
-196 -199 -313 -380 -306 -474 3 -41 5 -43 36 -46 42 -4 62 12 62 52 0 38 46
136 99 213 22 32 55 78 72 103 43 62 101 122 111 112 4 -4 2 -27 -3 -52 -14
-60 -3 -185 21 -235 27 -56 74 -85 136 -85 98 1 159 50 274 220 31 47 69 108
85 135 36 64 74 105 97 105 45 0 62 -124 33 -245 -67 -283 -185 -497 -417
-755 -60 -67 -69 -89 -44 -109 22 -18 42 -4 136 98 136 148 216 263 290 416
91 187 129 311 137 441 7 128 0 165 -41 209 -34 35 -63 42 -121 28z"/>
<path d="M12175 12226 c-66 -30 -114 -86 -163 -187 -122 -253 -150 -319 -145
-338 13 -48 82 -30 106 28 9 20 40 95 70 168 91 223 122 262 219 278 41 6 51
15 42 39 -5 14 -14 18 -64 32 -8 2 -37 -7 -65 -20z"/>
<path d="M18466 12154 c-9 -8 -16 -30 -16 -47 -1 -45 -22 -152 -59 -292 -48
-184 -101 -525 -101 -651 0 -30 3 -34 25 -34 33 0 37 10 75 215 17 94 38 190
45 215 46 148 107 368 125 452 23 108 19 131 -26 148 -35 14 -50 12 -68 -6z"/>
<path d="M14672 12142 c-12 -8 -37 -77 -117 -322 -59 -184 -72 -311 -31 -318
24 -5 33 10 47 78 19 94 49 190 104 325 72 177 81 210 65 230 -13 16 -47 20
-68 7z"/>
<path d="M11278 12103 c-41 -45 -58 -87 -58 -149 0 -82 18 -133 54 -155 42
-26 76 -24 120 6 20 14 39 25 41 25 3 0 24 -21 47 -46 60 -65 119 -98 163 -90
62 12 119 80 85 101 -6 3 -26 1 -45 -6 -31 -12 -40 -11 -71 6 -76 41 -171 164
-205 266 -17 49 -38 69 -74 69 -21 0 -39 -9 -57 -27z m68 -128 c18 -45 18 -79
-2 -96 -35 -29 -71 61 -44 112 16 28 29 23 46 -16z"/>
<path d="M21798 11299 c-28 -16 -21 -45 15 -68 69 -43 161 -53 462 -52 197 1
312 -3 390 -13 245 -33 302 -38 345 -26 41 11 61 34 44 50 -5 4 -118 20 -252
35 -205 22 -284 26 -500 26 -271 -1 -359 7 -404 40 -30 21 -73 24 -100 8z"/>
<path d="M29822 11084 c-35 -24 -41 -44 -55 -175 -20 -195 -12 -341 33 -599
39 -218 43 -237 68 -291 31 -67 78 -94 115 -66 15 11 14 16 -18 62 -88 126
-151 634 -110 884 10 58 23 103 35 118 10 14 16 32 13 41 -16 45 -43 53 -81
26z"/>
<path d="M10919 11053 c-93 -100 -180 -289 -269 -588 -27 -92 -53 -171 -56
-177 -4 -6 -26 -19 -49 -29 -63 -28 -74 -73 -28 -107 l27 -20 -58 -183 c-57
-179 -72 -219 -112 -286 -25 -43 -11 -68 37 -68 29 0 37 6 56 40 24 45 84 232
119 375 13 52 30 113 36 134 l13 40 220 88 c255 103 269 108 283 99 5 -3 19
-39 31 -79 12 -40 42 -122 66 -182 114 -283 198 -391 249 -318 21 29 20 34 -4
58 -30 30 -87 122 -104 167 -7 21 -29 74 -49 118 -55 124 -98 245 -95 263 2
11 22 20 63 28 33 6 94 19 135 28 41 8 98 20 127 26 65 14 87 35 48 50 -14 5
-42 10 -61 10 -41 0 -256 -37 -291 -51 -65 -24 -61 -32 -153 276 -96 325 -90
310 -125 313 -23 2 -37 -4 -56 -25z m60 -163 c40 -151 50 -187 90 -305 31 -93
38 -122 28 -131 -7 -6 -55 -23 -107 -38 -52 -15 -136 -43 -185 -62 -88 -33
-135 -42 -135 -26 0 10 99 295 145 417 62 164 113 251 136 228 5 -5 18 -42 28
-83z"/>
<path d="M24844 11062 c-40 -26 -43 -101 -15 -387 11 -110 25 -254 31 -320 10
-114 29 -273 50 -434 6 -40 16 -88 24 -105 8 -17 17 -39 20 -49 10 -30 31 -14
34 26 2 20 -6 130 -17 244 -11 114 -23 258 -26 318 -11 226 -25 572 -25 623 0
68 -37 110 -76 84z"/>
<path d="M30535 10997 c-257 -55 -360 -163 -360 -378 0 -82 4 -102 26 -144 35
-69 74 -90 163 -87 107 3 164 34 297 160 112 106 114 105 114 -88 1 -85 5
-244 9 -353 8 -175 11 -199 27 -207 19 -11 49 -3 61 14 8 11 3 212 -11 461 -8
152 -7 213 4 313 7 64 11 75 36 93 31 22 38 63 19 113 -30 79 -237 134 -385
103z m240 -88 c71 -31 101 -90 51 -103 -13 -3 -34 -21 -45 -39 -55 -90 -274
-264 -368 -294 -52 -16 -55 -16 -89 2 -46 24 -64 69 -64 155 0 72 17 134 50
180 23 32 117 82 195 105 60 17 225 13 270 -6z"/>
<path d="M16515 10960 c-3 -6 -8 -94 -9 -198 -2 -103 -9 -266 -16 -362 -19
-261 -19 -821 0 -885 11 -37 20 -51 36 -53 30 -4 34 15 22 100 -14 100 9 796
32 958 5 36 12 143 16 238 6 158 6 174 -11 192 -19 21 -60 27 -70 10z"/>
<path d="M22167 10870 c-48 -38 -51 -67 -28 -333 26 -295 52 -493 91 -697 16
-85 38 -207 49 -269 14 -80 26 -121 40 -134 31 -32 44 -13 36 52 -3 31 -9 74
-11 96 -3 22 -9 56 -14 75 -4 19 -11 60 -15 90 -3 30 -15 107 -25 170 -38 223
-50 340 -62 589 -11 251 -11 252 10 281 28 37 28 65 0 84 -29 21 -40 20 -71
-4z"/>
<path d="M20196 10805 c-81 -21 -100 -33 -300 -193 -111 -89 -240 -273 -286
-408 -53 -154 3 -310 135 -374 42 -21 64 -25 140 -25 75 1 102 6 160 29 252
102 545 356 649 563 39 78 37 162 -5 229 -39 62 -85 111 -123 131 -97 50 -271
73 -370 48z m309 -114 c65 -32 120 -90 135 -142 30 -104 -84 -275 -294 -442
-108 -86 -128 -99 -226 -149 -106 -55 -170 -71 -249 -66 -285 21 -271 343 28
637 30 29 68 59 85 66 17 8 40 23 51 36 35 38 143 82 225 90 116 11 176 4 245
-30z"/>
<path d="M18465 10795 c-49 -6 -118 -22 -153 -35 -54 -20 -68 -21 -101 -11
-119 35 -259 -15 -378 -136 -100 -100 -155 -226 -173 -395 -18 -164 13 -329
86 -453 35 -60 121 -142 179 -170 151 -74 362 -50 582 64 186 97 387 305 475
491 68 143 81 192 76 278 -11 194 -126 307 -363 356 -108 22 -133 24 -230 11z
m198 -84 c141 -16 282 -106 306 -196 24 -90 8 -202 -44 -305 -103 -205 -291
-394 -488 -490 -109 -53 -233 -90 -302 -90 -201 0 -342 118 -391 327 -24 103
-15 315 18 404 67 180 194 307 326 323 46 6 52 5 52 -12 0 -10 -11 -29 -24
-41 -33 -31 -60 -85 -53 -105 10 -25 35 -19 51 12 19 38 91 102 114 102 9 0
26 -7 36 -15 11 -8 32 -15 48 -15 21 0 29 6 34 25 4 14 1 32 -6 40 -10 12 -8
16 11 25 29 13 162 28 204 23 17 -2 65 -7 108 -12z"/>
<path d="M30215 9321 c-84 -21 -186 -63 -237 -96 -21 -14 -41 -25 -46 -25 -16
0 -147 -92 -189 -133 -24 -23 -43 -49 -43 -58 0 -30 39 -69 70 -69 37 0 54 22
46 63 -5 28 -2 37 21 59 29 26 214 138 230 138 4 0 21 7 37 15 43 23 126 45
175 47 47 2 71 -17 71 -56 0 -25 -47 -122 -73 -151 -9 -11 -45 -54 -79 -95
-35 -41 -86 -100 -115 -130 -29 -30 -53 -58 -53 -62 0 -4 -15 -22 -33 -40 -30
-31 -86 -104 -164 -214 -54 -76 -111 -144 -136 -164 -30 -24 -40 -55 -21 -71
16 -13 56 -7 144 21 85 27 192 40 390 46 186 6 250 19 250 54 0 27 -19 30
-188 30 -115 0 -186 -6 -267 -21 -60 -11 -130 -23 -155 -26 l-44 -6 18 29 c11
16 42 56 71 89 28 33 66 80 85 105 47 62 138 166 249 285 157 168 201 250 201
376 0 80 -64 97 -215 60z"/>
<path d="M31070 9311 c-47 -4 -123 -13 -170 -20 -211 -31 -233 -40 -212 -86
14 -31 44 -32 121 -6 105 36 391 66 391 42 0 -19 -67 -90 -110 -117 -74 -46
-168 -148 -176 -191 -9 -47 17 -99 64 -128 140 -85 230 -185 239 -266 12 -110
-73 -203 -290 -319 -142 -76 -211 -94 -334 -87 -82 5 -104 3 -114 -9 -17 -21
13 -51 65 -65 118 -32 346 37 534 162 24 16 46 29 51 29 20 0 142 142 157 181
48 134 -22 289 -176 386 -69 44 -120 92 -120 114 0 17 63 79 175 171 136 110
165 156 125 193 -24 22 -91 27 -220 16z"/>
<path d="M28864 9118 c-7 -11 -14 -242 -13 -435 0 -56 -4 -84 -13 -89 -7 -5
-85 -9 -173 -9 -138 -1 -170 -4 -229 -24 -70 -23 -132 -70 -123 -94 6 -17 61
-13 141 11 54 17 100 22 216 24 82 2 152 -1 157 -5 4 -5 8 -59 8 -119 0 -94 3
-112 17 -122 32 -20 41 6 40 112 -1 68 2 103 11 110 8 6 31 7 67 1 64 -11 161
-3 186 16 17 12 16 13 -2 23 -11 6 -53 15 -95 21 -41 6 -93 16 -115 23 -42 15
-43 16 -31 108 34 251 44 404 27 435 -14 27 -63 35 -76 13z"/>
<path d="M25032 8878 c-16 -20 -49 -126 -61 -198 -39 -235 8 -683 90 -858 28
-60 56 -79 52 -36 -11 112 -31 264 -42 319 -18 85 -25 361 -12 465 12 94 17
115 52 216 14 41 15 55 6 75 -14 27 -67 38 -85 17z"/>
<path d="M11155 8746 c-183 -46 -425 -267 -586 -536 -92 -153 -179 -403 -215
-614 -22 -133 -15 -325 15 -410 38 -108 36 -111 -102 -142 -91 -20 -140 -55
-115 -80 13 -13 25 -13 84 -4 83 14 141 26 171 35 20 6 26 -1 57 -68 38 -83
63 -99 115 -73 50 27 56 78 11 101 -35 18 -64 59 -57 79 3 7 22 17 43 21 47 8
199 59 279 92 288 120 487 233 610 345 68 62 133 167 141 230 6 42 4 49 -22
74 -83 78 -308 124 -606 124 -69 0 -109 4 -114 11 -4 7 41 57 114 126 177 166
269 285 323 414 81 198 18 315 -146 275z m83 -78 c17 -17 15 -96 -5 -154 -41
-122 -109 -208 -357 -454 -75 -74 -136 -142 -136 -151 0 -25 26 -47 68 -58 20
-5 134 -14 252 -20 306 -16 431 -46 446 -106 8 -33 -25 -97 -79 -153 -102
-106 -421 -276 -737 -392 -41 -15 -98 -38 -126 -50 -29 -13 -59 -20 -67 -17
-9 3 -21 25 -28 49 -6 24 -18 63 -26 88 -21 61 -28 263 -14 358 12 78 51 235
76 307 37 106 48 132 81 194 103 193 241 360 384 467 119 88 233 127 268 92z"/>
<path d="M22390 8645 c-15 -18 1 -286 25 -423 18 -99 60 -281 79 -337 7 -22
18 -58 25 -80 7 -22 16 -49 21 -60 4 -11 13 -40 20 -65 14 -52 40 -110 50
-110 20 0 16 22 -45 295 -43 195 -64 347 -77 564 -9 145 -16 208 -26 217 -18
19 -56 18 -72 -1z"/>
<path d="M16316 8557 c-20 -15 -23 -58 -8 -107 27 -89 52 -272 62 -450 13
-246 29 -675 34 -935 4 -193 8 -235 27 -235 28 0 33 52 33 340 1 318 -11 1021
-20 1135 -8 112 -33 206 -65 237 -31 32 -38 33 -63 15z"/>
<path d="M20048 8530 c-9 -6 -28 -49 -43 -98 -15 -48 -48 -145 -75 -217 -71
-191 -90 -269 -111 -461 -10 -96 -10 -149 0 -260 17 -208 76 -399 122 -399 19
0 16 52 -10 150 -27 103 -44 305 -36 419 11 149 50 301 110 436 24 52 46 106
50 120 4 14 21 54 38 90 62 134 35 267 -45 220z"/>
<path d="M16473 8424 c-11 -30 108 -176 165 -200 34 -15 57 -9 81 20 20 24 -3
53 -69 86 -32 16 -62 34 -65 40 -9 15 -86 70 -97 70 -5 0 -11 -7 -15 -16z"/>
<path d="M18620 8359 c-71 -18 -221 -85 -228 -102 -2 -4 -21 -16 -42 -27 -134
-68 -260 -203 -359 -383 -67 -122 -84 -187 -78 -297 8 -155 61 -262 157 -315
159 -87 405 17 623 262 108 122 151 178 215 276 55 85 117 219 127 272 13 68
6 216 -10 242 -8 12 -48 38 -89 58 -67 32 -81 35 -157 34 -47 0 -117 -9 -159
-20z m282 -88 c25 -16 49 -34 52 -40 16 -25 7 -153 -15 -218 -79 -238 -367
-586 -564 -682 -187 -91 -278 -74 -347 66 -27 55 -33 80 -36 152 -4 81 -2 91
32 174 52 124 122 247 141 247 6 0 16 -9 23 -21 21 -33 53 -21 69 26 18 55 95
150 149 184 54 35 181 68 295 77 83 7 119 22 119 51 0 21 33 15 82 -16z"/>
<path d="M13523 8329 c-12 -4 -24 -18 -27 -31 -15 -83 -45 -434 -46 -540 0
-83 -10 -91 -96 -78 -204 31 -405 19 -724 -42 -132 -25 -160 -39 -160 -77 0
-65 26 -76 111 -45 66 23 254 62 360 74 118 14 470 13 484 -1 6 -6 10 -126 10
-332 0 -177 4 -330 9 -340 12 -25 39 -17 47 13 4 14 7 162 8 331 1 206 5 309
12 316 7 7 68 9 192 6 196 -6 237 1 237 37 0 11 -1 20 -2 21 -7 1 -159 11
-280 17 -76 5 -140 11 -144 15 -9 9 11 176 53 437 24 147 23 199 -2 215 -13 9
-28 10 -42 4z"/>
<path d="M30172 7843 c-4 -1 -101 -4 -217 -7 -115 -3 -293 -12 -395 -20 -102
-9 -278 -16 -391 -16 -174 0 -388 -11 -489 -24 -125 -17 -131 -19 -155 -48
-30 -36 -31 -44 -5 -58 14 -8 35 -7 77 4 99 25 339 45 558 46 116 0 257 5 315
10 58 6 152 14 210 20 157 14 698 5 865 -15 77 -9 160 -18 185 -20 25 -2 81
-9 125 -14 164 -22 326 -22 432 -1 157 31 237 68 188 87 -10 3 -66 -2 -126
-11 -117 -19 -334 -23 -415 -7 -48 9 -97 15 -394 47 -138 15 -352 31 -368 27z"/>
<path d="M30168 7292 c-57 -68 -168 -347 -168 -422 0 -12 -7 -34 -15 -50 -12
-22 -25 -31 -65 -39 -110 -24 -247 -8 -287 32 -29 28 -25 40 32 112 17 22 44
65 60 95 15 30 42 74 59 98 28 41 29 45 16 69 -8 14 -27 35 -42 46 -26 19 -29
20 -46 4 -11 -10 -39 -63 -63 -120 -24 -56 -62 -129 -84 -162 -65 -95 -70
-109 -55 -145 18 -44 94 -95 171 -114 84 -21 110 -20 189 4 87 26 94 19 69
-75 -35 -130 -54 -291 -64 -522 -3 -67 0 -95 9 -102 10 -8 16 -8 23 1 20 26
35 79 29 100 -11 41 23 278 58 413 14 50 30 124 37 165 7 41 23 99 36 128 13
29 23 59 23 68 0 8 6 25 14 37 8 12 22 45 32 72 29 87 75 174 115 221 21 25
39 49 39 53 0 5 -9 20 -21 35 -28 36 -70 35 -101 -2z"/>
<path d="M31140 7248 c-74 -11 -123 -31 -260 -101 -161 -83 -188 -110 -148
-147 31 -28 81 -26 131 8 70 45 79 51 152 86 132 65 216 80 231 43 5 -15 -15
-64 -48 -119 -46 -73 -164 -237 -204 -282 -37 -41 -142 -205 -167 -260 -36
-79 -36 -131 3 -184 39 -55 102 -90 196 -109 65 -13 89 -14 148 -3 128 22 265
70 354 124 33 20 64 36 70 36 11 0 42 44 42 61 0 16 -82 4 -113 -15 -26 -18
-172 -73 -241 -92 -143 -39 -301 -22 -370 39 l-36 32 33 75 c32 75 131 234
161 259 9 7 39 48 68 90 28 42 67 97 85 123 18 26 33 50 33 52 0 3 16 32 35
65 38 65 46 124 23 174 -21 43 -86 60 -178 45z"/>
<path d="M22718 7070 c-11 -25 -13 -62 -10 -132 4 -81 1 -102 -13 -125 -10
-14 -19 -40 -21 -57 -1 -17 -3 -33 -3 -36 -1 -3 -236 -5 -524 -4 -287 0 -650
-3 -807 -7 -406 -12 -837 -28 -1035 -38 -93 -5 -251 -12 -350 -16 -99 -3 -196
-8 -215 -10 -19 -3 -102 -7 -185 -10 -301 -11 -624 -26 -790 -36 -325 -19
-906 -64 -1155 -88 -58 -5 -213 -19 -345 -30 -132 -12 -280 -25 -330 -31 -49
-5 -153 -14 -230 -20 -77 -6 -187 -15 -245 -20 -100 -9 -294 -24 -445 -35
-270 -18 -846 -63 -900 -70 -71 -9 -714 -44 -895 -50 -432 -11 -590 -18 -655
-25 -91 -11 -500 -4 -590 9 -38 6 -126 10 -195 11 -150 0 -193 -14 -198 -67
-5 -47 20 -56 94 -36 62 16 192 14 384 -7 113 -12 336 -12 485 0 66 5 305 17
530 25 226 8 469 20 540 25 72 6 186 15 255 20 69 5 211 16 315 24 105 9 255
20 335 26 80 5 210 15 290 21 80 7 161 13 180 14 19 1 69 5 110 9 41 3 116 8
165 11 50 3 194 15 320 26 127 11 286 24 355 30 69 5 172 14 230 20 58 6 128
12 155 15 28 2 94 8 145 14 91 10 174 17 510 40 85 6 169 13 185 15 30 5 390
29 600 40 61 3 146 8 190 10 44 3 204 9 356 15 152 5 283 12 290 14 8 3 97 7
199 11 102 3 291 10 420 15 496 20 804 32 1055 39 330 10 1661 10 1945 1 118
-4 314 -11 435 -14 121 -4 339 -11 485 -16 146 -5 360 -12 475 -15 208 -6 397
-16 675 -35 198 -13 581 -39 660 -45 162 -12 592 -34 765 -40 242 -8 296 -11
485 -31 259 -26 322 -28 345 -11 16 12 17 18 8 28 -15 15 -129 45 -208 54 -33
3 -85 10 -115 15 -84 14 -275 30 -480 41 -102 6 -212 12 -245 14 -33 2 -116 6
-185 9 -270 14 -630 36 -735 46 -306 27 -672 42 -1315 55 -140 3 -363 10 -495
15 -424 17 -697 24 -820 22 -66 -1 -135 1 -152 3 l-33 6 7 122 c7 141 0 207
-26 239 l-19 23 -14 -35z"/>
<path d="M16755 6049 c-119 -13 -224 -48 -302 -101 -75 -51 -49 -95 30 -53 25
14 81 36 124 51 69 23 94 26 223 27 162 1 225 -11 343 -65 125 -58 165 -134
154 -297 -4 -59 -16 -119 -40 -191 -48 -144 -70 -191 -168 -360 -28 -49 -124
-166 -198 -243 -170 -176 -317 -245 -542 -254 -251 -11 -330 44 -375 262 -20
98 -15 265 11 340 49 143 103 224 229 351 167 167 256 199 426 154 95 -26 155
-72 192 -145 22 -43 56 -85 70 -85 16 0 48 40 48 60 0 24 -58 117 -101 159
-104 104 -328 141 -471 78 -140 -62 -323 -250 -416 -427 -52 -98 -94 -288 -86
-386 14 -159 76 -320 145 -374 109 -87 364 -96 583 -20 128 44 209 101 353
247 302 308 491 792 402 1029 -46 121 -139 184 -349 232 -63 15 -202 20 -285
11z"/>
<path d="M25105 6040 c-164 -26 -428 -122 -512 -186 -17 -13 -34 -24 -37 -24
-17 0 -269 -199 -283 -224 -7 -12 -75 -94 -113 -136 -65 -71 -160 -253 -201
-385 -46 -149 -60 -263 -55 -458 3 -111 11 -193 21 -232 49 -188 230 -450 374
-542 103 -66 172 -86 296 -85 117 1 340 31 415 55 25 8 58 18 74 21 42 10 171
73 186 91 7 8 18 15 24 15 25 0 118 77 244 202 72 72 132 135 132 139 0 4 20
31 43 61 95 116 249 392 264 472 3 17 10 40 16 51 24 46 67 330 67 446 0 164
-26 242 -113 331 -63 66 -245 178 -288 178 -9 0 -43 25 -75 55 -128 120 -317
182 -479 155z m231 -96 c107 -36 161 -71 140 -91 -3 -3 -52 -10 -108 -14 -119
-9 -138 -20 -119 -68 19 -45 47 -67 66 -51 8 7 15 21 15 31 0 30 45 41 135 35
111 -9 115 -14 114 -166 0 -88 3 -126 15 -148 19 -37 49 -46 72 -21 15 16 15
28 5 113 -6 52 -11 115 -11 141 0 44 1 46 23 39 57 -18 193 -122 243 -187 22
-29 36 -61 43 -102 12 -64 7 -229 -10 -335 -5 -36 -13 -92 -18 -125 -10 -73
-60 -214 -113 -315 -123 -237 -170 -301 -358 -491 -122 -123 -224 -193 -380
-262 -42 -19 -327 -81 -346 -75 -5 1 -47 -1 -94 -5 -89 -8 -158 1 -239 31
-149 55 -335 300 -407 537 -14 50 -17 95 -17 265 1 195 3 211 32 325 32 125
96 267 171 383 35 53 202 231 266 282 78 63 280 179 366 210 232 85 394 105
514 64z"/>
<path d="M22555 5884 c-18 -18 -18 -13 -4 -111 8 -57 8 -131 0 -278 -6 -110
-13 -357 -16 -550 -3 -192 -7 -377 -9 -410 -7 -110 -27 -330 -32 -344 -5 -16
-20 -192 -30 -356 -7 -113 9 -175 44 -175 39 0 49 29 56 165 3 72 15 209 26
305 35 304 50 554 56 929 3 200 11 421 19 490 7 69 12 161 11 203 -1 66 -5 80
-25 102 -34 36 -77 49 -96 30z"/>
<path d="M18562 5829 c-42 -16 -102 -72 -102 -93 0 -12 7 -46 15 -76 14 -51
28 -150 39 -280 12 -136 20 -608 13 -760 -2 -44 -1 -45 29 -48 22 -2 40 4 60
22 l29 24 3 475 c2 385 0 490 -12 558 -15 81 -15 85 4 101 11 9 25 18 31 20
16 5 1 34 -24 46 -36 18 -61 21 -85 11z"/>
<path d="M20350 5653 c-14 -3 -30 -9 -36 -14 -6 -5 -45 -9 -85 -8 -186 5 -352
-95 -534 -320 -165 -203 -209 -271 -247 -380 -55 -160 -57 -362 -5 -512 72
-205 200 -335 370 -376 69 -17 284 -13 373 7 27 6 72 15 99 21 174 38 322 122
395 223 35 48 111 204 128 261 60 208 60 205 107 445 13 69 27 168 31 220 6
84 4 101 -15 146 -33 75 -99 134 -231 203 -155 81 -246 103 -350 84z m223
-109 c65 -33 184 -109 215 -138 59 -53 64 -142 21 -366 -11 -58 -27 -141 -36
-185 -8 -44 -23 -107 -33 -140 -9 -33 -25 -87 -34 -120 -10 -33 -23 -73 -31
-90 -54 -120 -69 -147 -107 -187 -121 -128 -323 -195 -598 -199 -197 -3 -322
87 -402 291 -71 179 -49 428 52 600 113 192 295 393 430 475 47 28 68 35 111
35 30 0 71 5 92 11 33 9 51 6 122 -16 56 -18 92 -36 111 -56 31 -33 73 -38 98
-13 18 17 9 43 -22 66 -23 18 -57 58 -48 58 4 0 30 -12 59 -26z"/>
<path d="M14585 5621 c-18 -7 -20 -18 -21 -122 -1 -111 -9 -174 -39 -309 -79
-356 -108 -679 -94 -1030 12 -285 39 -420 79 -395 10 6 11 44 4 169 -28 508
11 924 132 1426 9 36 18 101 21 146 5 79 5 81 -22 102 -30 24 -31 24 -60 13z"/>
<path d="M9705 4919 c-187 -44 -325 -101 -412 -170 -53 -43 -110 -122 -124
-174 -41 -150 91 -331 368 -503 98 -61 193 -141 227 -191 51 -76 34 -165 -53
-268 -120 -144 -456 -265 -547 -197 -53 39 -69 71 -69 134 0 63 -12 85 -42 76
-24 -8 -39 -33 -47 -81 -6 -35 -2 -48 32 -105 57 -93 95 -121 179 -130 210
-22 525 154 619 345 65 135 37 249 -89 364 -38 35 -223 166 -281 199 -71 42
-127 95 -169 164 -78 125 -80 203 -5 277 67 68 284 161 433 186 69 12 134 53
108 68 -19 11 -92 15 -128 6z"/>
<path d="M10204 4294 c-10 -14 -21 -52 -26 -83 -4 -31 -12 -83 -17 -116 -32
-188 -38 -479 -13 -573 21 -76 76 -146 140 -178 114 -58 251 -32 345 64 134
138 367 794 290 819 -19 7 -45 -42 -63 -120 -49 -202 -198 -530 -281 -621 -62
-68 -116 -91 -193 -83 -103 10 -157 78 -176 217 -14 102 -8 204 27 445 34 231
34 249 6 253 -15 2 -27 -5 -39 -24z"/>
<path d="M11660 4242 c-25 -16 -50 -35 -57 -43 -23 -29 -81 -157 -113 -249
-39 -116 -77 -188 -102 -196 -11 -3 -21 -4 -24 -1 -2 2 -9 42 -15 88 -14 113
-43 154 -81 115 -8 -7 -40 -63 -73 -125 -32 -61 -63 -111 -68 -111 -6 0 -8 47
-4 123 3 67 2 172 -1 232 -6 99 -9 110 -26 110 -10 0 -28 -12 -38 -26 -19 -25
-19 -32 -8 -160 13 -139 8 -313 -11 -427 -13 -76 -2 -112 33 -112 42 0 61 28
92 135 58 197 115 295 124 214 10 -93 16 -113 37 -135 77 -77 165 30 265 322
64 187 107 217 171 120 91 -137 145 -410 128 -643 -7 -87 59 -94 82 -10 16 59
5 281 -20 387 -25 111 -45 168 -91 265 -69 146 -120 178 -200 127z"/>
<path d="M25849 3285 c-6 -6 -524 -109 -658 -130 -125 -21 -374 -24 -486 -6
-104 16 -305 56 -378 76 -87 23 -129 20 -157 -10 -31 -33 -18 -59 31 -63 19
-2 119 -19 223 -38 435 -81 628 -76 1114 30 40 9 147 29 238 45 130 22 170 33
186 49 32 32 10 52 -57 52 -28 0 -54 -2 -56 -5z"/>
</g>
</svg>
