<?xml version="1.0" standalone="no"?>
<!DOCTYPE svg PUBLIC "-//W3C//DTD SVG 20010904//EN"
 "http://www.w3.org/TR/2001/REC-SVG-20010904/DTD/svg10.dtd">
<svg version="1.0" xmlns="http://www.w3.org/2000/svg"
 width="3264.000000pt" height="2448.000000pt" viewBox="0 0 3264.000000 2448.000000"
 preserveAspectRatio="xMidYMid meet">
<metadata>
Created by potrace 1.12, written by Peter Selinger 2001-2015
</metadata>
<g transform="translate(0.000000,2448.000000) scale(0.100000,-0.100000)"
fill="#000000" stroke="none">
<path d="M22008 22669 c-66 -9 -101 -25 -95 -42 2 -8 45 -14 123 -18 116 -6
138 -2 128 25 -4 10 -83 48 -94 45 -3 -1 -31 -5 -62 -10z"/>
<path d="M21801 22575 c-26 -31 -21 -43 12 -27 12 6 33 12 47 14 36 4 32 32
-5 36 -23 2 -36 -4 -54 -23z"/>
<path d="M22160 22556 c0 -9 5 -16 10 -16 6 0 10 4 10 9 0 6 -4 13 -10 16 -5
3 -10 -1 -10 -9z"/>
<path d="M20725 21016 c-13 -10 -16 -52 -21 -301 -3 -160 -9 -319 -15 -355 -5
-36 -41 -162 -79 -280 -110 -341 -131 -440 -95 -440 19 0 69 75 95 141 12 30
32 75 45 101 30 58 96 232 118 313 26 95 36 230 38 513 1 220 -2 266 -14 286
-19 28 -50 38 -72 22z"/>
<path d="M20110 18910 c-107 -24 -213 -54 -465 -135 -110 -35 -245 -78 -300
-95 -396 -123 -619 -215 -1265 -522 -158 -75 -577 -285 -675 -338 -534 -287
-863 -528 -1390 -1021 -240 -224 -327 -314 -425 -439 -91 -119 -231 -330 -344
-522 -47 -82 -125 -214 -172 -295 -83 -141 -474 -801 -494 -833 -32 -52 -184
-344 -232 -445 -149 -317 -280 -720 -333 -1025 -45 -258 -75 -615 -64 -742 l8
-87 -54 -116 c-32 -67 -61 -115 -69 -115 -9 0 -19 19 -26 53 -12 53 -38 134
-129 387 -29 80 -68 190 -87 244 -60 176 -81 320 -49 346 25 21 14 53 -25 72
-83 40 -130 11 -130 -79 0 -57 22 -187 46 -263 19 -62 107 -300 152 -410 83
-202 111 -291 123 -393 15 -131 43 -187 93 -187 27 0 43 10 88 58 46 48 72 93
160 272 57 118 157 305 222 415 134 226 264 474 291 554 14 44 15 60 6 92 -11
36 -39 57 -60 45 -5 -3 -26 -41 -46 -83 -39 -82 -122 -233 -161 -293 -12 -19
-44 -75 -71 -125 -27 -49 -54 -99 -60 -110 -13 -22 -47 -98 -59 -130 -4 -11
-6 -26 -5 -33 2 -9 -7 -12 -26 -10 -33 4 -33 10 -10 133 9 44 25 159 37 255
28 236 45 338 85 515 82 360 294 865 530 1260 69 116 254 426 395 665 483 816
526 877 833 1189 273 276 585 547 837 728 84 60 374 249 434 283 233 130 332
182 598 314 322 158 367 180 598 285 74 34 149 68 165 76 136 64 518 208 755
283 258 83 619 191 720 218 105 27 105 27 260 15 227 -18 303 -27 425 -49 123
-23 290 -48 380 -57 116 -12 222 -28 430 -66 116 -20 230 -40 255 -44 25 -3
65 -10 90 -15 25 -5 97 -18 160 -30 136 -25 183 -36 440 -106 196 -53 420
-108 560 -139 448 -97 956 -222 1175 -289 145 -44 197 -61 635 -216 335 -118
573 -225 723 -323 102 -67 101 -79 -13 -122 -247 -95 -508 -286 -660 -485
-117 -154 -164 -245 -210 -405 l-26 -90 -40 2 c-21 1 -79 6 -129 12 -141 16
-524 15 -624 -3 -46 -8 -91 -21 -99 -29 -17 -18 -19 -82 -2 -102 19 -23 60
-18 104 13 l39 27 364 0 c216 -1 367 -5 372 -10 5 -6 11 -52 13 -104 l3 -95
-60 -49 c-82 -66 -282 -208 -406 -287 -116 -74 -407 -268 -458 -305 -54 -39
-123 -106 -169 -161 -46 -55 -77 -153 -56 -174 21 -21 87 17 134 76 25 31 70
79 100 107 52 48 329 235 565 382 142 88 282 185 347 241 29 24 57 44 63 44 6
0 26 -30 44 -67 18 -38 47 -86 64 -108 46 -60 157 -174 197 -201 19 -13 54
-37 78 -54 23 -16 45 -30 47 -30 2 0 21 -12 42 -26 58 -39 328 -168 413 -197
231 -78 411 -109 645 -109 260 0 493 39 825 138 470 141 774 323 986 590 37
46 69 84 71 84 2 0 23 -13 46 -29 157 -107 356 -160 622 -166 314 -7 648 59
960 187 198 82 341 202 412 348 62 125 77 192 77 345 1 120 -1 134 -25 185
-72 151 -259 273 -489 320 -172 35 -351 20 -546 -45 -88 -29 -311 -125 -459
-198 -27 -14 -153 -75 -279 -136 l-228 -112 -37 42 c-69 81 -68 70 -18 173 87
180 234 416 258 416 5 0 9 11 9 24 0 16 -11 32 -31 47 -46 32 -73 18 -122 -61
-95 -156 -143 -239 -189 -334 -28 -56 -51 -102 -53 -104 -1 -1 -27 21 -57 50
-136 133 -455 353 -643 444 -210 102 -399 143 -650 144 -176 0 -391 -42 -485
-94 -23 -13 -27 -12 -57 14 -67 59 -163 65 -325 19 l-47 -13 -48 45 c-76 71
-165 127 -327 204 -240 115 -378 168 -891 341 -323 110 -511 162 -835 234 -19
5 -163 37 -320 73 -157 36 -323 73 -370 83 -126 25 -280 62 -415 99 -334 93
-427 114 -795 176 -185 32 -210 36 -315 58 -55 11 -176 29 -270 41 -93 11
-251 34 -350 51 -233 39 -300 48 -415 53 -52 3 -131 7 -175 10 -57 3 -104 -1
-165 -14z m6840 -1475 c134 -22 271 -66 398 -130 128 -64 374 -225 487 -319
44 -37 107 -87 140 -113 33 -25 59 -51 58 -57 -1 -6 -11 -42 -22 -80 -15 -51
-19 -84 -15 -122 6 -44 3 -56 -16 -82 -19 -26 -22 -36 -14 -64 8 -29 14 -33
47 -36 35 -3 39 0 50 27 7 20 17 29 27 27 8 -3 42 -10 75 -16 105 -19 105 -19
105 -41 0 -31 -127 -288 -145 -295 -8 -4 -26 1 -40 10 -32 21 -62 20 -74 -2
-8 -14 -4 -31 16 -67 l25 -48 -108 -106 c-183 -179 -305 -266 -509 -362 -188
-88 -547 -195 -830 -246 -125 -22 -485 -25 -615 -5 -307 48 -587 161 -843 340
-131 91 -212 177 -265 280 -60 116 -60 114 -12 186 22 35 43 79 46 97 6 44
-22 90 -76 124 -22 14 -40 29 -40 34 0 34 59 201 96 271 143 268 348 458 691
640 l82 43 29 -31 c51 -55 87 -37 111 54 10 39 15 43 59 54 88 22 178 25 207
6 14 -9 25 -20 25 -25 0 -5 -31 -34 -70 -65 -70 -57 -88 -90 -54 -103 18 -7
87 28 126 65 15 13 33 22 40 20 7 -3 24 -44 37 -91 25 -95 37 -110 77 -105 47
5 50 26 21 130 -38 132 -38 130 36 156 161 57 445 77 637 47z m2729 -325 c220
-28 400 -125 468 -253 26 -48 30 -215 8 -314 -39 -177 -161 -344 -310 -426
-175 -96 -481 -193 -720 -228 -137 -20 -431 -18 -534 4 -162 35 -337 108 -367
153 -13 19 -10 26 26 78 74 105 110 195 110 274 l0 44 108 -7 c149 -10 403 13
509 46 36 11 49 35 31 57 -10 12 -27 13 -88 7 -58 -6 -452 -10 -565 -6 -23 1
-55 48 -55 80 0 14 9 23 28 27 34 9 105 40 262 116 69 33 188 91 265 128 284
137 416 187 570 214 100 18 148 19 254 6z m-1510 -427 c16 -35 14 -41 -20 -58
-57 -30 -70 -3 -38 83 7 19 11 21 28 10 11 -6 24 -23 30 -35z m69 -106 c3 -23
0 -28 -15 -25 -11 2 -19 14 -21 31 -3 23 0 28 15 25 11 -2 19 -14 21 -31z"/>
<path d="M26741 16808 c-75 -21 -193 -118 -251 -206 -70 -106 -137 -335 -147
-505 -3 -54 -10 -100 -14 -103 -5 -2 -60 -5 -122 -5 -138 -1 -271 28 -350 75
-46 28 -52 35 -55 69 -7 79 81 216 279 434 32 36 59 74 59 84 0 11 -15 35 -33
55 -44 48 -79 41 -109 -23 -12 -25 -61 -88 -109 -140 -96 -102 -175 -214 -197
-278 -16 -47 -9 -152 13 -195 26 -50 102 -107 178 -134 105 -37 237 -59 337
-55 l85 4 3 -28 c2 -15 -8 -62 -22 -105 -18 -59 -23 -88 -18 -122 9 -59 30
-63 70 -12 39 49 49 76 68 177 22 114 35 141 77 154 41 14 91 81 59 81 -9 -1
-28 -7 -42 -15 -37 -21 -40 -19 -40 28 0 104 64 335 121 436 62 110 154 204
223 231 44 16 62 4 92 -60 29 -64 37 -69 72 -44 31 22 28 63 -10 115 -35 50
-45 57 -108 81 -52 19 -63 20 -109 6z"/>
<path d="M31160 16881 c-111 -34 -238 -160 -216 -216 12 -32 56 -16 121 43 68
62 137 102 178 102 43 0 164 -49 307 -123 224 -117 304 -179 350 -270 44 -87
41 -130 -13 -209 -55 -81 -139 -138 -262 -177 -277 -89 -262 -86 -390 -86
-103 0 -125 3 -155 21 -115 67 -122 331 -14 494 49 74 177 136 254 124 44 -7
80 9 80 35 0 22 -46 71 -69 72 -85 6 -145 -6 -214 -43 -62 -33 -158 -123 -184
-172 -63 -119 -67 -344 -8 -474 70 -156 244 -221 465 -174 122 26 291 82 394
131 152 71 247 204 249 345 1 63 -3 82 -30 137 -47 94 -137 182 -259 251 -55
31 -113 60 -130 64 -16 4 -87 36 -159 70 -123 61 -133 64 -200 63 -38 0 -81
-4 -95 -8z"/>
<path d="M19145 16244 c-256 -31 -617 -105 -774 -159 -96 -32 -192 -85 -259
-142 -48 -41 -56 -45 -78 -34 -34 15 -99 14 -166 -4 -180 -46 -746 -453 -1026
-735 -150 -152 -213 -260 -239 -407 -36 -212 54 -442 229 -578 181 -143 336
-204 520 -204 50 0 96 -5 102 -11 7 -7 3 -10 -12 -10 -11 0 -29 -8 -39 -19
-12 -12 -39 -20 -83 -25 -167 -17 -320 -61 -475 -139 -154 -77 -244 -145 -343
-260 -45 -52 -44 -97 2 -143 27 -27 42 -34 73 -34 22 0 47 6 58 13 16 12 17
18 6 47 -10 31 -9 38 24 87 58 88 227 197 405 263 115 43 313 83 367 75 117
-17 112 -146 -17 -467 -57 -142 -62 -160 -67 -248 -4 -83 -2 -99 16 -127 16
-25 28 -33 50 -33 44 0 54 20 46 92 -6 61 -5 67 55 203 34 77 79 190 101 250
70 199 47 308 -83 391 -37 24 -48 47 -28 59 6 4 17 2 24 -5 8 -6 70 -18 137
-26 203 -26 487 -8 804 51 477 89 790 217 1226 501 166 108 374 292 481 427
85 107 191 306 203 382 13 84 15 89 28 73 17 -21 52 -28 89 -18 17 5 85 19
152 30 145 25 403 78 581 119 201 46 506 117 780 181 138 32 306 70 375 85 69
14 166 35 215 45 284 60 820 153 1100 191 137 18 187 20 348 14 186 -6 187 -6
187 15 0 12 -11 36 -25 55 l-26 33 -145 7 c-182 9 -372 -11 -749 -80 -44 -8
-150 -26 -235 -40 -85 -15 -173 -30 -195 -35 -22 -5 -76 -15 -120 -24 -44 -8
-179 -36 -300 -61 -203 -43 -298 -64 -510 -115 -397 -95 -487 -116 -725 -169
-176 -40 -490 -103 -675 -137 -55 -9 -108 -24 -117 -32 -17 -14 -18 -10 -18
80 0 199 -77 377 -221 514 -124 117 -285 189 -509 229 -132 23 -377 28 -525 9z
m544 -89 c175 -35 327 -111 438 -220 60 -59 81 -89 117 -166 24 -52 50 -119
57 -149 20 -79 17 -251 -5 -324 -55 -184 -212 -402 -399 -553 -40 -32 -78 -66
-85 -75 -12 -17 -97 -77 -110 -79 -4 0 -27 -16 -52 -35 -25 -19 -60 -41 -79
-50 -19 -9 -49 -26 -65 -39 -30 -22 -212 -117 -326 -168 -263 -120 -551 -195
-965 -252 -234 -32 -687 -29 -833 7 -276 67 -421 137 -511 249 -89 110 -131
237 -131 395 0 170 67 294 269 495 158 157 294 265 540 430 261 174 409 244
418 198 2 -8 -10 -33 -27 -54 -27 -35 -41 -85 -22 -85 12 0 54 30 104 77 26
24 52 43 58 43 7 0 30 -16 53 -35 44 -38 89 -46 121 -22 28 21 13 49 -44 82
-30 18 -50 36 -50 47 0 31 156 116 295 161 174 57 562 130 770 144 141 10 356
0 464 -22z"/>
<path d="M18435 15590 c-33 -5 -107 -13 -165 -20 -172 -19 -313 -53 -428 -101
-59 -26 -270 -166 -282 -189 -28 -53 7 -150 56 -150 39 0 64 18 64 46 0 40 26
79 77 116 159 115 325 159 730 194 231 19 262 11 216 -56 -68 -103 -291 -363
-481 -563 -57 -59 -107 -119 -113 -133 -10 -28 2 -129 20 -163 42 -78 296
-128 520 -102 186 22 399 88 442 137 31 36 40 63 29 84 -14 27 -27 26 -134
-14 -232 -86 -602 -121 -716 -67 -27 12 -36 23 -38 47 -4 37 8 52 188 252 309
344 420 489 420 549 0 43 -24 85 -60 106 -54 33 -209 44 -345 27z"/>
<path d="M17209 13658 c-18 -18 -74 -80 -124 -137 -49 -57 -164 -185 -255
-285 -198 -216 -407 -461 -554 -646 -58 -74 -119 -151 -135 -170 -176 -220
-318 -423 -481 -690 -62 -102 -132 -214 -155 -250 -23 -36 -45 -75 -49 -86
-10 -32 -52 -74 -75 -74 -11 0 -44 11 -73 24 -165 77 -508 148 -855 176 -153
13 -346 2 -458 -25 -33 -8 -87 -14 -120 -15 -108 0 -404 -61 -585 -121 -253
-82 -562 -219 -749 -331 -116 -69 -286 -182 -341 -227 -61 -50 -100 -74 -100
-61 0 5 5 10 10 10 6 0 10 7 10 14 0 24 -60 74 -125 105 -33 16 -125 60 -205
98 -80 39 -226 108 -325 154 -171 80 -184 88 -267 167 -87 82 -119 97 -146 70
-54 -54 80 -165 368 -305 527 -256 640 -317 640 -352 0 -11 -29 -45 -67 -79
-80 -70 -151 -103 -378 -177 -226 -74 -417 -144 -585 -213 -352 -145 -395
-162 -412 -162 -24 0 -88 -48 -88 -66 0 -7 10 -23 23 -35 19 -18 30 -20 77
-16 56 6 255 75 415 145 50 21 171 69 270 106 99 37 234 87 300 112 66 24 123
44 128 44 15 0 6 -38 -22 -96 -49 -102 -61 -149 -61 -243 0 -139 41 -274 117
-390 47 -70 194 -224 253 -264 25 -17 47 -33 50 -36 9 -10 149 -101 156 -101
3 0 31 -16 62 -35 101 -62 276 -133 477 -195 319 -97 786 -135 1127 -90 193
24 404 60 563 95 66 14 143 30 170 35 92 17 305 82 474 145 336 126 575 268
824 489 109 97 180 187 239 304 30 59 47 82 60 82 11 0 29 5 41 12 25 14 52
12 160 -7 89 -17 162 -10 334 31 99 23 227 47 348 65 65 9 411 13 425 4 11 -7
668 -7 730 0 25 2 140 9 255 15 892 42 2043 47 2810 11 88 -4 195 -5 238 -2
43 4 80 4 83 2 10 -11 2 -49 -14 -64 -20 -18 -363 -190 -462 -232 -105 -44
-337 -163 -445 -228 -201 -120 -363 -242 -547 -410 -147 -136 -155 -144 -142
-164 20 -32 40 -37 77 -20 19 9 43 17 52 17 9 0 42 24 73 53 31 29 86 72 122
97 36 24 85 61 109 82 47 41 195 140 335 226 107 64 279 151 534 271 254 118
395 195 426 232 15 17 31 51 37 76 12 44 12 45 48 39 20 -3 108 -8 197 -12
153 -7 255 -1 253 14 -1 15 -90 71 -126 81 -58 15 -281 33 -324 26 -50 -9 -72
5 -108 68 -32 56 -98 123 -163 167 -39 26 -48 40 -24 40 7 0 89 -29 182 -64
93 -35 228 -86 299 -112 157 -57 228 -89 251 -115 9 -10 23 -19 31 -19 7 0 25
-7 38 -16 24 -16 45 -12 45 8 0 5 7 26 16 45 10 20 13 38 8 43 -11 10 -196 93
-283 126 -35 13 -77 24 -95 24 -17 0 -80 18 -141 39 -60 21 -200 70 -310 109
-110 38 -258 95 -330 127 -209 93 -401 160 -633 220 -114 30 -132 26 -132 -26
0 -35 2 -36 86 -49 130 -21 306 -90 604 -238 156 -77 274 -146 339 -195 64
-50 131 -130 131 -159 0 -18 -5 -20 -42 -14 -94 13 -260 26 -383 31 -71 2
-274 9 -450 16 -487 18 -1876 -4 -2310 -36 -180 -13 -317 -16 -650 -13 -897 6
-841 9 -1155 -57 -68 -14 -154 -29 -190 -32 -36 -3 -75 -12 -88 -20 -27 -17
-121 -7 -129 13 -3 8 3 53 12 102 37 185 -13 402 -116 513 -19 19 -48 51 -65
70 -76 85 -319 256 -466 327 -54 26 -98 50 -98 53 0 4 16 30 35 59 19 29 61
98 92 154 199 357 438 716 623 936 25 30 68 84 95 120 65 86 308 378 426 511
282 319 349 392 430 470 100 96 108 117 61 162 -36 35 -51 34 -93 -5z m-2649
-2223 c340 -38 739 -139 818 -207 23 -19 44 -28 69 -28 66 0 347 -169 504
-303 237 -202 302 -447 198 -746 -33 -96 -61 -148 -130 -241 -79 -108 -256
-269 -379 -346 -34 -22 -78 -50 -98 -63 -52 -34 -193 -111 -205 -111 -5 0 -31
-10 -56 -21 -55 -26 -54 -26 -206 -82 -201 -75 -321 -107 -620 -166 -411 -81
-639 -111 -855 -111 -508 0 -1071 149 -1405 373 -297 198 -395 350 -395 613 0
188 106 389 267 505 78 57 113 98 113 133 0 22 230 201 340 264 19 11 75 43
125 72 257 150 541 269 830 350 148 42 170 41 145 -6 -13 -23 -13 -27 5 -40
25 -18 26 -18 71 13 65 44 201 105 247 110 89 10 117 -63 78 -207 -52 -187
-54 -201 -45 -228 5 -15 21 -31 36 -36 38 -14 65 13 73 73 4 25 18 78 31 118
35 105 39 151 19 214 -10 30 -24 61 -31 70 -21 24 -17 37 14 42 68 10 319 6
442 -8z"/>
<path d="M13906 10817 c-15 -11 -18 -34 -21 -172 -4 -189 -31 -584 -45 -670
-6 -33 -24 -106 -41 -162 -35 -117 -35 -138 1 -138 20 0 31 11 57 61 38 70 77
212 92 329 26 198 51 488 51 591 0 106 -1 114 -26 143 -28 34 -41 37 -68 18z"/>
<path d="M10863 13192 c-16 -2 -26 -16 -38 -50 -10 -26 -32 -85 -50 -132 -47
-124 -80 -246 -110 -406 -39 -214 -81 -369 -123 -453 -45 -90 -57 -135 -38
-150 22 -18 74 28 110 99 69 134 104 241 146 439 22 103 88 313 144 459 20 52
36 105 36 119 0 50 -33 83 -77 75z"/>
<path d="M8735 13040 c-101 -20 -178 -78 -187 -140 -1 -13 -12 -29 -23 -35
-116 -60 -257 -201 -309 -307 -42 -84 -56 -181 -37 -241 18 -53 97 -120 168
-142 97 -29 348 -32 503 -6 254 44 406 120 543 272 253 279 106 542 -334 599
-87 11 -267 11 -324 0z m90 -70 c3 -5 -3 -10 -15 -10 -12 0 -18 5 -15 10 3 6
10 10 15 10 5 0 12 -4 15 -10z m210 0 c73 -11 163 -39 227 -71 83 -42 148
-124 148 -186 0 -86 -130 -238 -271 -317 -146 -82 -354 -129 -579 -129 -168
-1 -217 10 -255 55 -23 27 -26 39 -23 79 14 144 201 344 411 439 69 31 186 55
224 45 14 -3 31 -22 44 -48 12 -23 28 -50 37 -59 19 -22 70 -24 79 -2 8 20
-24 78 -67 124 -29 31 -46 39 -102 50 -38 8 -68 17 -68 22 0 11 110 10 195 -2z"/>
<path d="M5105 12984 c-294 -44 -733 -185 -1010 -326 -202 -102 -454 -287
-540 -397 -22 -28 -42 -51 -45 -51 -4 0 -29 22 -56 48 -56 54 -141 101 -306
168 -132 54 -271 123 -345 170 -108 69 -208 114 -253 113 -14 0 -41 -8 -60
-17 -28 -13 -36 -24 -38 -49 -4 -41 22 -58 99 -67 61 -8 112 -30 239 -107 47
-29 165 -87 262 -130 176 -78 289 -134 340 -170 44 -32 44 -53 -1 -110 -23
-29 -41 -58 -41 -65 0 -16 -24 -28 -155 -78 -141 -54 -137 -54 -246 3 -52 27
-119 58 -149 70 -30 11 -140 52 -245 91 -156 58 -355 122 -595 190 -19 6 -127
33 -240 60 -113 28 -216 54 -230 59 -14 5 -47 13 -75 19 -143 31 -410 97 -480
119 -44 14 -125 47 -179 74 -55 27 -110 49 -122 49 -31 0 -68 -54 -67 -97 1
-46 18 -63 65 -63 22 0 76 -15 121 -34 45 -18 111 -43 147 -54 69 -22 327 -90
395 -103 155 -31 367 -82 545 -130 315 -86 448 -127 630 -195 227 -84 261 -95
320 -108 43 -9 56 -16 58 -32 4 -30 -11 -38 -138 -69 -226 -55 -445 -159 -534
-255 -54 -57 -58 -85 -19 -122 40 -37 66 -48 111 -48 53 0 65 16 56 78 l-6 50
53 28 c127 66 313 135 534 199 142 41 146 41 194 1 24 -20 52 -36 63 -36 14 0
18 -5 14 -17 -31 -98 -48 -199 -56 -317 -7 -120 -5 -151 12 -235 27 -133 47
-187 103 -281 111 -182 272 -320 520 -443 184 -92 332 -141 557 -187 196 -39
519 -29 793 25 274 55 437 96 610 154 66 23 123 41 128 41 15 0 6 -25 -33 -86
-61 -97 -56 -103 44 -46 67 36 68 38 99 116 32 79 32 80 83 97 l52 17 38 -39
c37 -38 67 -49 79 -29 3 6 15 10 26 10 29 0 33 25 10 63 -29 47 -27 54 17 68
90 29 301 145 466 255 127 86 357 313 438 434 166 246 248 468 250 671 1 142
-34 244 -126 374 -76 106 -152 163 -351 264 -155 79 -218 105 -400 168 -240
81 -488 134 -720 153 -107 9 -160 17 -186 31 -87 44 -178 61 -339 64 -85 2
-168 1 -185 -1z m292 -80 c4 -11 -130 -44 -179 -44 -36 0 -98 -28 -98 -44 0
-35 25 -38 168 -16 77 12 197 22 265 23 109 2 127 0 145 -16 39 -35 54 -84 56
-182 2 -97 13 -125 47 -125 34 0 49 38 49 131 0 73 -4 93 -25 133 -14 26 -25
49 -25 52 0 5 43 -1 196 -27 323 -55 734 -198 966 -336 134 -80 268 -223 308
-329 81 -217 12 -494 -203 -813 -28 -42 -105 -131 -173 -197 -162 -161 -306
-263 -555 -391 -63 -33 -127 -68 -142 -78 -22 -14 -39 -16 -92 -10 l-65 7 -61
-61 c-44 -44 -68 -61 -87 -61 -15 0 -42 -9 -60 -20 -17 -11 -40 -19 -50 -18
-21 3 -133 -21 -147 -32 -5 -4 -32 -11 -60 -15 -27 -4 -62 -13 -76 -21 -15 -7
-51 -18 -80 -23 -30 -5 -97 -19 -149 -30 -124 -27 -308 -57 -445 -71 -110 -12
-363 -1 -475 20 -25 4 -73 13 -107 19 -63 12 -227 62 -323 101 -270 107 -486
269 -576 431 -120 217 -119 499 4 817 50 128 90 191 153 239 50 38 69 75 69
137 0 29 36 75 151 197 52 54 198 175 254 211 325 204 758 370 1149 439 109
19 267 21 273 3z m-2119 -1107 c4 -31 -41 -87 -69 -87 -50 0 -47 67 3 98 43
27 62 23 66 -11z"/>
<path d="M5544 11952 c-167 -59 -304 -150 -445 -293 -98 -101 -127 -147 -170
-269 -34 -97 -33 -226 2 -300 44 -94 112 -146 259 -198 71 -26 84 -27 265 -27
l190 0 109 38 c240 82 436 214 541 363 88 125 115 195 115 302 0 114 -51 199
-174 287 -104 74 -151 88 -295 88 -97 -1 -130 3 -149 15 -13 9 -53 17 -95 19
-60 3 -85 -1 -153 -25z m156 -54 c0 -7 -27 -30 -61 -51 -49 -30 -60 -41 -57
-60 5 -34 47 -33 110 2 38 21 57 27 68 21 30 -19 61 -10 94 26 l34 37 83 -5
c150 -9 257 -82 300 -203 27 -77 20 -145 -26 -241 -94 -196 -342 -362 -640
-429 -109 -24 -311 -17 -404 15 -83 28 -136 64 -152 103 -27 65 -6 223 43 322
23 45 94 141 147 198 54 59 224 176 330 230 96 48 131 57 131 35z"/>
<path d="M18150 12704 c-114 -14 -168 -27 -275 -68 -136 -52 -370 -202 -456
-293 -81 -84 -177 -224 -189 -273 -18 -76 5 -140 76 -213 93 -95 214 -143 426
-168 470 -55 1135 176 1249 433 47 109 18 238 -74 325 -132 125 -312 214 -499
247 -131 23 -147 24 -258 10z m273 -115 c176 -44 369 -164 418 -261 29 -57 36
-146 14 -192 -25 -53 -103 -116 -214 -174 -193 -101 -427 -159 -681 -169 -381
-14 -546 42 -596 202 -19 61 -11 99 27 127 23 18 27 18 63 3 37 -16 41 -16 65
3 14 10 27 29 29 41 3 20 -5 30 -68 81 l-25 20 40 35 c155 135 434 272 620
304 70 13 215 3 308 -20z"/>
<path d="M9840 12401 c-47 -13 -370 -451 -370 -501 0 -6 -11 -32 -24 -58 -14
-26 -28 -64 -31 -84 -6 -34 -5 -39 20 -50 25 -11 29 -10 57 22 16 19 67 93
115 164 97 147 224 314 277 365 29 28 36 42 36 73 0 25 -7 45 -20 58 -21 21
-22 22 -60 11z"/>
<path d="M24305 11410 c-132 -22 -179 -37 -201 -61 -15 -17 -15 -19 9 -30 19
-8 38 -8 78 1 178 40 558 47 749 16 298 -50 543 -121 760 -220 440 -201 727
-465 824 -759 25 -75 21 -93 -36 -168 -16 -20 -28 -43 -28 -53 0 -9 21 -36 46
-61 l47 -44 -17 -63 c-60 -222 -144 -403 -245 -528 l-20 -25 -38 38 c-22 20
-46 37 -54 37 -8 0 -30 -13 -48 -28 -40 -33 -37 -59 10 -92 16 -12 29 -29 29
-39 0 -18 -190 -152 -326 -229 -160 -92 -502 -238 -674 -287 -25 -7 -70 -22
-100 -33 -121 -44 -469 -134 -605 -157 -16 -3 -52 -9 -80 -15 -86 -16 -215
-39 -253 -44 -165 -21 -222 -34 -222 -52 0 -7 -17 -18 -37 -23 -50 -14 -48
-15 -61 15 -14 29 -75 58 -107 50 -14 -4 -28 -20 -38 -47 -15 -39 -18 -40 -49
-34 -42 9 -58 23 -39 34 20 13 -60 28 -214 41 -343 29 -603 98 -790 208 -205
121 -304 224 -373 385 -25 58 -27 72 -26 207 0 156 10 209 64 344 44 112 210
388 254 426 10 7 34 14 54 14 42 1 53 22 31 62 -11 22 -10 28 18 57 17 17 39
43 49 56 35 43 295 271 399 349 179 134 450 284 635 352 107 39 295 92 425
119 332 68 733 53 905 -34 54 -28 77 -49 131 -121 47 -62 71 -78 99 -69 34 11
44 42 24 73 -38 59 -160 168 -219 196 -191 90 -565 119 -910 71 -143 -19 -185
-29 -335 -76 -317 -100 -466 -170 -740 -348 -257 -166 -564 -453 -641 -600
-12 -22 -33 -43 -58 -55 -23 -11 -42 -28 -45 -40 -3 -12 -29 -53 -57 -90 -140
-186 -229 -477 -215 -710 13 -226 128 -437 315 -580 189 -144 406 -233 701
-287 167 -30 168 -31 370 -34 184 -3 185 -3 188 -26 3 -18 -16 -42 -86 -108
-49 -47 -116 -104 -148 -125 -33 -22 -70 -50 -84 -62 -14 -13 -43 -30 -64 -39
-22 -9 -54 -27 -70 -40 -62 -46 -245 -122 -386 -161 -30 -8 -84 -23 -120 -33
-36 -10 -99 -26 -140 -35 -41 -9 -111 -25 -155 -35 -96 -23 -194 -44 -335 -72
-58 -12 -132 -27 -165 -34 -430 -91 -465 -97 -735 -145 -113 -20 -433 -60
-635 -80 -328 -33 -542 -39 -1095 -33 -283 3 -778 7 -1100 8 -361 1 -709 8
-910 18 -179 9 -392 19 -475 22 -784 30 -1417 82 -2155 175 -129 16 -273 34
-320 39 -92 11 -227 28 -470 61 -85 12 -258 34 -385 50 -366 46 -597 77 -780
104 -93 14 -294 41 -445 61 -511 67 -897 145 -1390 282 -91 25 -187 51 -215
58 -27 7 -129 36 -225 65 -224 66 -644 186 -736 211 -106 28 -519 166 -729
244 -113 42 -226 82 -445 157 -192 65 -390 139 -470 175 -159 72 -597 310
-740 403 -8 5 -44 26 -80 46 -155 89 -259 149 -315 184 -162 100 -265 167
-315 205 -30 23 -103 77 -163 120 -59 43 -107 81 -107 85 0 16 29 29 135 58
139 39 240 59 335 67 41 3 135 16 208 27 116 18 136 24 149 44 9 14 12 32 8
44 -11 33 -48 42 -134 30 -42 -6 -155 -19 -251 -30 -174 -19 -254 -37 -468
-104 l-113 -35 -44 21 c-25 12 -45 25 -45 30 0 9 -83 48 -103 48 -31 0 -42
-32 -42 -119 l0 -85 -85 -44 c-94 -49 -183 -119 -206 -163 -22 -44 0 -76 98
-144 52 -36 146 -122 250 -227 157 -160 169 -169 197 -163 16 3 35 13 42 21
17 21 6 92 -34 226 -64 208 -119 421 -114 440 5 16 1 19 -25 16 -46 -4 -45 16
1 41 42 21 65 20 75 -5 3 -7 11 -11 18 -9 7 3 46 -27 87 -66 78 -75 149 -130
326 -251 103 -71 309 -198 321 -198 2 0 17 -8 32 -19 31 -21 667 -386 782
-449 204 -110 418 -198 830 -338 107 -36 273 -95 367 -130 216 -80 608 -211
773 -259 69 -19 161 -46 205 -59 44 -13 125 -36 180 -51 55 -16 125 -36 155
-45 30 -10 91 -28 135 -40 44 -12 114 -33 155 -45 577 -177 1179 -309 1755
-385 88 -11 221 -29 295 -40 74 -11 236 -33 360 -50 124 -16 257 -34 295 -40
39 -5 178 -23 310 -40 132 -16 305 -39 385 -50 80 -11 203 -27 275 -35 71 -9
180 -22 242 -30 295 -39 511 -65 758 -90 83 -8 184 -19 225 -25 41 -5 109 -12
150 -15 41 -2 161 -12 265 -20 287 -24 544 -38 1250 -70 320 -15 500 -18 1755
-31 327 -4 611 -8 630 -9 19 -1 186 1 370 6 397 9 578 23 935 70 178 23 476
69 484 73 3 2 166 36 361 76 985 199 1183 250 1428 371 318 157 514 301 570
422 12 26 27 47 33 47 16 0 2 -86 -22 -133 -26 -52 -25 -66 8 -64 35 2 43 -29
17 -68 -9 -14 -14 -28 -11 -31 11 -11 66 92 97 181 17 49 38 105 46 124 9 20
12 45 9 62 -7 29 -6 29 42 29 155 1 561 84 963 196 142 40 514 171 675 237
234 97 460 228 576 335 l79 73 47 -44 c71 -65 251 -183 356 -232 123 -57 323
-129 466 -167 107 -29 132 -31 322 -36 233 -5 395 9 649 58 200 38 363 83 550
153 215 80 432 215 605 376 234 218 314 475 224 717 -59 157 -255 362 -419
437 -107 49 -128 57 -159 57 -17 0 -54 9 -83 20 -125 49 -430 76 -666 60 -200
-13 -305 -26 -413 -50 -157 -35 -356 -109 -483 -179 -74 -41 -293 -179 -351
-221 -139 -102 -225 -128 -245 -74 -6 14 -7 32 -2 40 4 8 58 67 119 131 61 65
153 168 205 229 178 212 269 314 303 340 40 30 45 60 17 94 -20 25 -51 28
-105 11 -27 -9 -54 -36 -118 -119 -88 -113 -296 -367 -380 -464 -28 -32 -56
-58 -63 -58 -8 0 -16 17 -20 43 -8 53 -57 159 -94 202 -15 18 -49 61 -77 95
-104 133 -340 309 -563 423 -280 143 -543 226 -917 287 -38 7 -173 14 -300 16
-194 3 -247 1 -340 -16z m4240 -845 c301 -33 494 -116 658 -281 78 -79 121
-146 152 -237 45 -135 30 -260 -48 -400 -40 -70 -182 -217 -282 -289 -237
-173 -538 -291 -945 -372 -255 -51 -636 -74 -770 -46 -30 6 -93 18 -140 26
-164 29 -339 89 -524 181 -156 78 -316 189 -316 220 0 8 13 28 30 44 47 47
139 183 169 251 39 85 81 221 89 288 9 65 -1 63 177 32 197 -36 801 -55 917
-31 142 31 129 95 -22 104 -82 6 -533 25 -663 29 -146 4 -156 31 -35 92 40 20
109 58 153 84 125 74 280 156 337 178 300 116 718 166 1063 127z m-22445 -445
c0 -5 -5 -10 -11 -10 -5 0 -7 5 -4 10 3 6 8 10 11 10 2 0 4 -4 4 -10z m7 -136
c7 -32 30 -112 52 -176 23 -65 41 -122 41 -128 0 -27 -34 -2 -108 78 -46 51
-100 99 -127 113 -67 35 -60 59 35 126 41 29 79 52 85 50 5 -2 15 -30 22 -63z
m17713 -1569 c0 -8 -4 -15 -10 -15 -5 0 -10 7 -10 15 0 8 5 15 10 15 6 0 10
-7 10 -15z"/>
<path d="M7265 11330 c-15 -47 44 -70 182 -70 92 0 204 -18 408 -66 61 -14
162 -34 225 -45 63 -11 153 -27 200 -35 77 -14 146 -22 485 -54 191 -18 373
-39 600 -69 317 -42 507 -67 785 -101 135 -17 378 -53 540 -81 162 -28 349
-59 415 -69 66 -10 203 -33 305 -50 250 -43 254 -43 294 -36 46 9 61 35 46 81
-13 38 -36 50 -72 36 -17 -6 -82 1 -224 24 -442 74 -532 88 -594 96 -36 5 -85
13 -110 19 -51 11 -385 64 -505 79 -196 25 -330 42 -465 56 -80 9 -190 23
-245 31 -135 21 -197 29 -350 48 -71 9 -168 21 -215 27 -47 5 -173 14 -280 19
-191 9 -309 20 -440 39 -36 6 -99 15 -140 21 -68 9 -158 27 -390 80 -126 28
-229 40 -345 40 -96 0 -104 -2 -110 -20z"/>
<path d="M8360 11320 c-22 -3 -36 -11 -38 -22 -4 -21 32 -31 183 -52 61 -9
128 -18 150 -22 l40 -6 -36 35 c-27 26 -51 38 -90 45 -108 20 -175 27 -209 22z"/>
<path d="M23995 10724 c-140 -29 -165 -44 -165 -102 0 -32 20 -55 64 -72 26
-10 32 -8 60 18 43 41 80 51 215 58 141 8 384 -14 716 -66 33 -5 106 -12 163
-16 57 -4 110 -13 120 -20 16 -12 16 -14 1 -29 -9 -9 -99 -45 -200 -79 -312
-107 -375 -138 -410 -207 -24 -48 -24 -60 2 -93 38 -49 164 -100 456 -185 94
-28 207 -65 250 -82 77 -30 268 -127 310 -158 29 -21 29 -52 1 -70 -24 -15
-203 -78 -258 -91 -31 -8 -209 -56 -575 -158 -146 -40 -351 -86 -505 -112
-226 -38 -647 -44 -710 -10 -24 13 -60 13 -60 0 0 -5 -11 -12 -24 -16 -50 -12
-37 -58 25 -90 15 -7 70 -21 124 -30 123 -21 482 -15 645 11 126 20 408 82
580 129 69 18 231 61 360 95 331 88 424 122 518 190 40 29 42 34 42 80 0 41
-5 56 -34 90 -45 54 -77 79 -160 130 -112 66 -422 181 -492 181 -15 0 -46 6
-69 14 -22 8 -85 28 -140 45 -101 31 -165 62 -165 80 0 31 61 58 390 175 173
61 302 120 324 149 20 28 17 51 -15 91 -19 24 -25 26 -67 20 -28 -3 -81 1
-132 10 -130 25 -618 95 -775 111 -129 13 -362 18 -410 9z"/>
<path d="M30736 10399 c-14 -11 -30 -29 -36 -39 -30 -55 -102 -372 -130 -565
-31 -220 -109 -538 -165 -675 -37 -91 -39 -120 -10 -120 48 0 94 71 152 235
68 193 109 360 168 677 19 104 86 341 109 386 19 37 21 93 4 110 -18 18 -62
14 -92 -9z"/>
<path d="M19721 9981 c-42 -11 -46 -31 -25 -117 26 -108 27 -448 1 -507 -20
-46 -15 -59 27 -82 42 -23 61 -15 82 32 26 61 40 304 25 427 -30 251 -38 268
-110 247z"/>
<path d="M4913 8673 c-21 -4 -35 -43 -15 -43 19 0 62 26 62 38 0 12 -6 13 -47
5z"/>
<path d="M4867 8573 c-4 -20 -4 -40 -1 -45 10 -15 40 -8 62 15 31 33 28 53 -9
61 -46 9 -46 9 -52 -31z"/>
<path d="M15675 8441 c-22 -4 -62 -18 -90 -33 -27 -14 -72 -36 -99 -49 -84
-40 -148 -145 -171 -280 -10 -56 12 -143 48 -192 126 -167 409 -115 660 122
96 91 122 138 119 219 -1 37 -8 74 -18 91 -35 59 -141 105 -283 121 -94 11
-106 11 -166 1z m159 -122 c128 -17 206 -60 206 -113 0 -25 -13 -43 -66 -94
-121 -116 -254 -195 -339 -203 -64 -5 -136 12 -170 43 -49 42 -59 80 -40 151
29 111 63 152 128 152 36 0 44 4 62 32 28 44 80 52 219 32z"/>
<path d="M1690 7255 c0 -8 5 -15 10 -15 6 0 10 7 10 15 0 8 -4 15 -10 15 -5 0
-10 -7 -10 -15z"/>
<path d="M18240 7071 l-25 -7 25 -7 c14 -4 33 -7 44 -7 15 0 16 3 6 15 -14 16
-13 16 -50 6z"/>
<path d="M31267 5095 c-89 -61 -211 -279 -280 -500 -9 -27 -23 -70 -32 -95 -9
-25 -30 -99 -46 -165 -31 -128 -64 -251 -81 -300 -5 -16 -16 -52 -23 -78 -7
-27 -21 -59 -29 -73 -18 -26 -44 -32 -51 -11 -14 39 -84 529 -105 732 -16 154
-37 252 -68 309 -31 56 -59 70 -121 61 -64 -10 -145 -93 -199 -205 -81 -168
-163 -404 -212 -617 -18 -76 -42 -169 -53 -208 -24 -81 -26 -160 -6 -180 28
-26 57 -27 82 -3 18 18 28 50 46 143 20 111 63 291 110 460 27 101 106 308
147 385 37 70 89 140 105 140 27 0 46 -91 74 -350 28 -255 62 -493 86 -605 18
-82 61 -209 77 -227 23 -28 76 -33 111 -12 71 42 97 109 201 526 38 154 86
326 106 382 44 121 153 343 183 370 20 18 21 18 31 -8 5 -15 10 -32 10 -38 0
-40 176 -684 223 -813 43 -121 79 -154 101 -93 8 22 -1 64 -42 210 -55 196
-67 242 -107 413 -79 337 -97 409 -105 426 -30 55 -74 63 -133 24z"/>
<path d="M32275 5058 c-143 -35 -234 -75 -314 -138 -65 -52 -91 -93 -91 -146
0 -35 6 -47 35 -73 74 -64 236 -83 546 -61 l189 13 0 40 0 40 -192 -9 c-435
-20 -536 5 -429 106 71 68 160 110 309 145 76 18 124 16 197 -9 47 -17 65 -11
65 18 0 28 -34 59 -79 75 -41 13 -180 13 -236 -1z"/>
<path d="M20454 4742 c10 -16 65 -32 72 -21 8 14 5 16 -40 24 -26 5 -37 4 -32
-3z"/>
<path d="M20472 4697 c-16 -20 0 -91 22 -95 16 -3 18 0 12 25 -4 15 -7 38 -7
50 1 27 -13 37 -27 20z"/>
<path d="M32593 3939 c-20 -12 -57 -23 -93 -26 -33 -3 -63 -10 -66 -14 -3 -5
-14 -9 -25 -9 -24 0 -25 -31 -1 -58 33 -38 145 -55 206 -32 25 9 26 13 26 85
0 41 -3 75 -7 75 -5 0 -23 -10 -40 -21z"/>
<path d="M32141 2168 c-5 -18 -19 -116 -31 -218 -11 -102 -27 -234 -35 -295
-8 -60 -14 -174 -15 -251 0 -159 2 -154 -76 -154 -53 0 -99 -21 -107 -49 -2
-10 5 -36 17 -57 20 -36 25 -39 57 -35 18 3 50 5 69 5 l35 1 0 -212 c0 -149 3
-215 12 -224 15 -15 58 -4 85 23 20 20 21 26 15 218 -6 167 -4 199 9 218 20
29 64 29 92 -1 26 -27 28 -37 7 -37 -8 0 -15 -4 -15 -10 0 -5 5 -10 10 -10 19
0 10 -34 -16 -61 -21 -22 -24 -32 -19 -63 4 -20 20 -50 35 -66 25 -27 35 -30
86 -30 70 0 173 24 237 56 l47 24 0 68 0 68 -82 -40 c-124 -59 -208 -60 -208
-4 0 41 177 169 253 182 l37 7 0 94 0 95 -23 -9 c-13 -5 -53 -27 -88 -48 -52
-32 -81 -41 -154 -52 -160 -24 -180 -24 -193 -8 -19 22 2 294 40 517 17 102
31 223 32 268 1 76 -1 85 -23 103 -13 10 -36 19 -51 19 -23 0 -30 -6 -39 -32z"/>
<path d="M30910 1900 c-63 -9 -95 -20 -165 -57 -127 -68 -141 -164 -45 -303
10 -14 21 -36 25 -50 12 -40 83 -107 192 -181 56 -38 106 -69 109 -69 4 0 15
-6 23 -14 9 -7 41 -27 71 -43 30 -17 78 -44 106 -60 27 -17 100 -56 161 -87
139 -71 203 -125 203 -170 0 -37 -32 -141 -62 -201 -100 -199 -338 -339 -753
-444 -144 -36 -234 -51 -302 -51 -58 0 -79 -16 -69 -54 4 -18 20 -31 52 -46
53 -23 85 -24 187 -10 201 30 271 44 373 75 394 122 608 324 664 628 16 84 7
145 -31 224 -40 83 -101 136 -261 224 -454 249 -628 360 -628 398 0 24 106
106 155 120 98 27 240 8 304 -41 22 -17 25 -17 42 -2 10 9 23 31 29 50 13 40
5 59 -44 102 -53 46 -222 77 -336 62z"/>
<path d="M6582 868 c-7 -7 -12 -23 -12 -35 0 -34 38 -103 56 -103 27 0 54 20
54 40 0 16 -7 20 -35 20 l-35 0 7 45 c6 47 -8 60 -35 33z"/>
</g>
</svg>
