<?xml version="1.0" standalone="no"?>
<!DOCTYPE svg PUBLIC "-//W3C//DTD SVG 20010904//EN"
 "http://www.w3.org/TR/2001/REC-SVG-20010904/DTD/svg10.dtd">
<svg version="1.0" xmlns="http://www.w3.org/2000/svg"
 width="3264.000000pt" height="2448.000000pt" viewBox="0 0 3264.000000 2448.000000"
 preserveAspectRatio="xMidYMid meet">
<metadata>
Created by potrace 1.12, written by Peter Selinger 2001-2015
</metadata>
<g transform="translate(0.000000,2448.000000) scale(0.100000,-0.100000)"
fill="#000000" stroke="none">
<path d="M26290 24470 c0 -5 7 -10 15 -10 8 0 15 5 15 10 0 6 -7 10 -15 10 -8
0 -15 -4 -15 -10z"/>
<path d="M26945 24470 c3 -5 13 -10 21 -10 8 0 14 5 14 10 0 6 -9 10 -21 10
-11 0 -17 -4 -14 -10z"/>
<path d="M32232 24440 c11 -22 24 -40 28 -40 8 0 30 53 30 71 0 5 -17 9 -39 9
l-38 0 19 -40z"/>
<path d="M2035 24450 c-3 -5 -1 -10 4 -10 6 0 11 5 11 10 0 6 -2 10 -4 10 -3
0 -8 -4 -11 -10z"/>
<path d="M32239 24383 c-2 -9 -10 -626 -9 -673 0 -27 -11 -1014 -13 -1090 -1
-41 1 -95 3 -120 2 -25 0 -175 -3 -335 -4 -159 -10 -483 -12 -720 -12 -933
-15 -1192 -20 -1485 -4 -303 -10 -1016 -20 -2605 -3 -456 -7 -1523 -10 -2370
-9 -3178 -23 -6240 -31 -6890 -2 -214 -6 -1852 -9 -3640 -2 -1787 -7 -3521
-10 -3852 l-7 -603 41 0 c34 0 41 4 45 23 11 50 18 1100 17 2327 -3 3038 1
5143 14 7380 4 785 12 3573 20 7300 2 1125 7 2178 10 2340 3 162 8 511 11 775
3 264 7 575 9 690 8 431 19 1957 19 2720 1 626 -2 795 -12 813 -12 21 -31 30
-33 15z"/>
<path d="M17340 24030 c-24 -24 -27 -91 -5 -110 21 -18 60 -5 73 25 18 40 14
72 -10 89 -29 20 -34 20 -58 -4z"/>
<path d="M29750 22541 c-5 -11 -10 -28 -10 -39 0 -10 -11 -50 -25 -88 -14 -38
-25 -69 -25 -69 0 0 -24 -18 -54 -40 -30 -21 -61 -51 -70 -66 -12 -20 -21 -25
-39 -22 -21 4 -29 -4 -63 -72 -59 -117 -144 -179 -144 -105 0 44 -25 97 -49
105 -38 12 -44 -2 -39 -97 5 -79 9 -93 31 -115 25 -25 25 -25 74 -9 72 24 127
76 163 152 16 36 31 71 31 77 1 7 5 -15 10 -47 9 -63 31 -106 54 -106 17 0 45
38 45 63 0 22 57 142 105 221 46 76 88 217 75 252 -12 30 -54 33 -70 5z"/>
<path d="M10967 22492 c-12 -13 -17 -37 -17 -84 0 -61 -3 -69 -35 -108 -37
-44 -39 -67 -9 -101 8 -8 14 -29 14 -46 0 -17 7 -36 15 -43 24 -20 52 13 65
79 7 31 18 65 25 77 9 14 13 54 12 130 -2 109 -2 109 -28 112 -15 2 -32 -5
-42 -16z"/>
<path d="M11244 22451 c-103 -65 -123 -115 -79 -200 22 -45 24 -55 13 -69 -22
-28 -31 -32 -78 -32 -69 0 -92 -38 -50 -80 43 -43 150 -11 197 59 29 43 29 89
1 142 l-22 42 26 21 c14 12 42 34 62 49 47 36 64 70 46 92 -20 24 -50 18 -116
-24z"/>
<path d="M25589 22393 c-33 -35 -42 -52 -69 -133 -52 -156 -185 -386 -246
-427 -30 -19 -43 -8 -45 42 -4 110 -13 135 -49 135 -38 0 -44 -25 -33 -126 12
-119 30 -148 93 -152 41 -3 45 -1 109 65 77 79 123 165 171 323 18 58 39 112
47 120 14 13 15 3 9 -94 -3 -60 -6 -127 -6 -148 0 -31 -8 -47 -38 -81 -21 -23
-41 -49 -45 -58 -8 -25 20 -59 50 -59 14 0 32 -8 39 -17 22 -30 48 -4 52 50 4
56 26 75 124 107 122 41 178 84 147 115 -17 18 -12 19 -186 -46 -34 -13 -65
-20 -69 -16 -4 4 1 78 11 165 11 86 19 180 20 207 0 48 -1 50 -30 53 -23 2
-37 -4 -56 -25z"/>
<path d="M30019 22351 c-144 -94 -178 -158 -124 -232 46 -64 51 -78 29 -94
-21 -16 -53 -19 -69 -7 -6 4 -18 19 -28 35 -21 33 -42 35 -58 6 -18 -34 4 -95
41 -114 55 -28 166 -10 200 33 31 38 25 74 -20 131 -22 28 -40 55 -40 60 0 26
43 76 99 115 100 71 123 108 70 114 -16 2 -51 -14 -100 -47z"/>
<path d="M28285 22296 c-9 -14 -15 -39 -13 -58 6 -62 76 -45 93 23 13 53 -51
80 -80 35z"/>
<path d="M23996 22288 c-30 -42 -15 -88 29 -88 29 0 45 19 45 51 0 29 -23 59
-45 59 -8 0 -21 -10 -29 -22z"/>
<path d="M28988 22291 c-48 -11 -94 -62 -110 -122 -30 -112 -60 -243 -68 -293
-4 -28 -19 -95 -34 -150 -43 -156 -36 -256 18 -256 27 0 83 57 91 93 33 145
46 267 31 299 -6 12 0 20 21 31 106 55 175 168 181 298 4 71 2 78 -19 93 -24
16 -62 19 -111 7z m56 -106 c-1 -35 -11 -70 -32 -111 -29 -58 -89 -130 -99
-120 -3 2 -9 23 -14 46 -9 41 5 104 42 183 15 32 54 58 84 54 17 -2 20 -9 19
-52z"/>
<path d="M15014 22204 c-41 -70 -81 -182 -93 -262 -8 -51 -19 -84 -36 -106
-32 -42 -32 -81 0 -102 30 -20 56 -15 70 13 23 46 58 63 177 88 15 3 40 16 55
29 23 20 26 28 17 43 -14 23 -55 28 -91 10 -15 -8 -49 -18 -75 -21 -43 -7 -48
-5 -48 12 0 30 24 91 76 196 42 84 46 98 36 120 -19 43 -56 35 -88 -20z"/>
<path d="M26290 22211 c-87 -27 -151 -83 -170 -149 -17 -56 -2 -81 81 -137 50
-34 74 -56 74 -70 0 -28 -63 -60 -179 -90 -108 -28 -182 -32 -210 -10 -26 20
-49 19 -69 -3 -26 -28 -20 -57 15 -87 30 -26 36 -27 103 -20 92 8 169 28 282
71 101 39 136 62 158 104 26 51 6 78 -119 163 -33 23 -56 46 -56 56 0 43 73
101 127 101 29 0 93 33 93 48 0 29 -69 41 -130 23z"/>
<path d="M10761 22174 c-21 -26 -34 -35 -47 -30 -9 4 -28 -1 -42 -10 -21 -14
-24 -21 -19 -61 6 -55 35 -88 69 -80 28 7 95 107 104 154 13 70 -18 83 -65 27z"/>
<path d="M9760 22163 c-39 -14 -53 -69 -24 -97 22 -22 77 -20 99 4 17 19 16
48 -3 77 -9 14 -52 24 -72 16z"/>
<path d="M10448 22120 c-21 -17 -51 -59 -68 -94 -35 -70 -75 -251 -86 -381 -6
-73 -5 -82 15 -99 19 -17 22 -18 45 -2 16 10 29 32 36 58 6 24 19 68 28 98 18
60 18 77 -5 102 -20 22 -2 54 35 63 39 8 106 79 132 138 51 116 -38 194 -132
117z m43 -124 c-24 -38 -49 -62 -57 -54 -10 10 24 75 47 92 32 22 36 5 10 -38z"/>
<path d="M12056 22088 c-21 -30 -20 -66 4 -105 22 -37 40 -41 65 -16 14 13 16
28 12 66 -4 27 -12 55 -18 63 -17 21 -46 17 -63 -8z"/>
<path d="M24112 22067 c-26 -27 -28 -50 -7 -67 12 -10 21 -10 41 -1 21 9 25
17 22 48 -4 46 -25 53 -56 20z"/>
<path d="M28277 22069 c-30 -18 -45 -63 -51 -150 -2 -46 -9 -125 -15 -176 -12
-104 -8 -123 24 -123 27 0 39 26 55 125 6 39 15 95 20 125 20 118 23 179 10
195 -15 17 -19 18 -43 4z"/>
<path d="M28587 22050 c-19 -16 -40 -45 -48 -62 -7 -18 -25 -47 -40 -65 -17
-20 -30 -48 -33 -75 -3 -24 -7 -59 -9 -78 -6 -45 8 -70 38 -70 34 0 51 31 69
128 15 84 42 146 61 144 6 -1 12 -38 15 -83 4 -65 9 -84 23 -93 27 -17 43 12
50 91 9 95 -11 173 -49 187 -28 11 -43 6 -77 -24z"/>
<path d="M9064 22051 c-38 -23 -76 -70 -72 -89 3 -12 13 -21 47 -39 1 -1 -13
-50 -33 -110 -20 -59 -40 -132 -46 -162 -9 -50 -8 -57 12 -78 12 -13 28 -23
35 -23 29 0 70 30 106 77 21 26 54 61 75 76 34 26 38 27 49 11 23 -32 26 -82
7 -150 -16 -61 -16 -66 0 -82 22 -22 44 -9 75 47 18 33 23 58 24 115 0 82 -20
137 -64 168 -36 27 -66 16 -146 -53 -37 -32 -69 -55 -71 -50 -2 5 20 70 48
146 55 150 59 174 32 198 -24 22 -40 21 -78 -2z"/>
<path d="M12306 22054 c-21 -20 -20 -36 4 -112 11 -35 20 -84 20 -108 0 -51
-10 -60 -115 -99 -88 -33 -117 -59 -113 -100 4 -38 40 -46 72 -16 20 19 116
61 139 61 14 0 -2 -69 -30 -132 -27 -62 -25 -88 7 -88 36 0 76 70 95 170 16
80 21 94 49 115 33 25 156 85 174 85 12 0 3 -25 -60 -158 -51 -109 -58 -150
-29 -176 33 -30 68 -13 148 72 45 49 75 73 81 67 5 -5 14 -29 20 -52 8 -25 25
-52 44 -68 28 -24 38 -27 87 -23 49 4 57 2 76 -20 18 -20 31 -25 67 -25 25 1
55 6 65 12 11 5 44 13 74 16 78 9 106 23 131 64 56 90 138 156 252 202 64 26
91 56 81 89 -10 31 -58 25 -149 -19 -100 -49 -201 -132 -246 -201 -36 -57 -86
-86 -166 -97 -59 -8 -63 9 -14 65 96 108 107 192 24 192 -55 0 -103 -52 -119
-130 -9 -45 -32 -70 -62 -70 -45 0 -62 18 -83 89 -30 101 -60 107 -140 26 -87
-87 -91 -74 -22 70 62 129 67 147 43 176 -17 22 -21 22 -62 10 -24 -7 -83 -36
-131 -63 -48 -28 -94 -48 -102 -45 -9 4 -15 30 -18 89 -7 124 -45 179 -92 132z"/>
<path d="M13931 22051 c-11 -11 -23 -36 -27 -56 -13 -70 42 -87 83 -26 28 42
29 55 3 81 -25 25 -35 25 -59 1z"/>
<path d="M10070 22024 c-24 -21 -57 -71 -83 -122 -24 -48 -54 -103 -65 -122
-37 -59 -25 -100 29 -100 35 0 40 8 82 117 60 155 94 188 84 81 -4 -35 -9 -72
-12 -84 -8 -27 24 -68 47 -59 25 10 48 102 48 193 0 65 -4 84 -21 106 -28 36
-61 33 -109 -10z"/>
<path d="M11885 22033 c-95 -16 -296 -67 -328 -85 -14 -7 -31 -7 -59 3 -37 12
-41 11 -63 -12 -32 -31 -122 -297 -137 -400 -10 -72 -9 -80 12 -124 29 -61 63
-75 173 -75 91 0 235 35 296 72 58 36 90 115 59 146 -18 18 -22 16 -75 -36
-54 -53 -106 -73 -238 -91 -59 -9 -75 -8 -105 7 -43 21 -58 58 -40 101 11 28
17 31 54 31 60 0 138 23 238 69 102 47 158 93 158 127 0 41 -28 40 -109 -4
-153 -82 -324 -130 -306 -84 4 9 11 29 15 43 19 65 43 99 74 108 17 6 58 19
91 31 60 21 170 49 275 70 58 12 90 33 90 60 0 28 -37 49 -75 43z"/>
<path d="M24934 21991 c-89 -41 -155 -124 -182 -231 -7 -25 -19 -109 -27 -187
-26 -249 -18 -327 34 -321 41 5 59 50 71 178 14 143 28 218 43 231 7 5 41 31
77 58 70 52 125 130 141 198 18 80 -62 118 -157 74z m72 -82 c-10 -50 -136
-189 -171 -189 -42 0 3 109 69 167 41 36 58 45 100 52 5 0 6 -13 2 -30z"/>
<path d="M14539 21970 c-21 -11 -57 -43 -81 -72 -41 -49 -172 -271 -226 -381
-28 -59 -31 -120 -7 -147 50 -55 103 10 169 207 25 75 31 84 85 127 96 75 181
187 181 238 0 49 -57 62 -121 28z m2 -97 c-13 -25 -70 -78 -76 -72 -8 9 56 89
71 89 11 0 12 -5 5 -17z"/>
<path d="M7576 21943 c-114 -61 -161 -146 -191 -348 -21 -138 -20 -393 1 -423
19 -27 45 -28 68 -3 14 16 16 33 10 131 l-7 113 25 -6 c16 -4 69 7 149 32 154
48 225 64 264 59 l30 -3 -45 -45 c-25 -25 -119 -105 -208 -179 -167 -137 -183
-158 -141 -184 31 -19 70 4 217 127 177 149 246 219 267 269 17 41 12 58 -25
92 -28 25 -103 24 -204 -4 -116 -32 -119 -29 -39 52 80 81 113 138 113 194 0
79 -77 154 -163 160 -44 2 -62 -3 -121 -34z m155 -76 c48 -32 50 -66 5 -131
-47 -68 -261 -275 -272 -263 -9 9 17 203 33 247 20 56 57 115 90 146 35 32 98
32 144 1z"/>
<path d="M23971 21954 c-17 -22 -21 -41 -21 -108 0 -203 32 -376 74 -392 23
-9 56 14 56 40 0 13 -7 43 -16 67 -13 34 -17 86 -19 220 -1 97 -5 181 -9 188
-12 19 -44 12 -65 -15z"/>
<path d="M8566 21938 c-10 -18 -12 -36 -6 -78 17 -110 12 -166 -15 -198 -14
-17 -25 -39 -25 -49 0 -11 11 -30 25 -43 23 -22 25 -30 25 -120 0 -99 7 -120
42 -120 30 0 38 35 38 165 l0 127 37 35 c21 18 61 47 89 63 64 36 184 149 184
173 0 49 -61 25 -195 -78 -47 -36 -91 -65 -98 -65 -10 0 -13 23 -13 88 1 97
-9 122 -50 122 -14 0 -30 -10 -38 -22z"/>
<path d="M9667 21942 c-21 -23 -21 -40 -2 -85 10 -24 15 -70 15 -137 0 -135
20 -170 70 -120 18 18 20 33 20 134 0 119 -16 190 -47 214 -23 17 -37 15 -56
-6z"/>
<path d="M24528 21903 c-14 -16 -36 -61 -49 -103 -23 -76 -62 -150 -78 -150
-11 0 -20 34 -27 112 -10 98 -46 135 -87 90 -22 -24 -21 -65 2 -138 10 -32 22
-73 25 -89 11 -51 43 -95 69 -95 45 0 74 38 138 185 l22 50 9 -35 c19 -69 27
-82 51 -78 21 3 22 6 19 118 -3 120 -15 160 -50 160 -10 0 -30 -12 -44 -27z"/>
<path d="M12096 21898 c-14 -13 -45 -72 -70 -135 -67 -163 -74 -293 -17 -293
32 0 51 33 51 86 0 65 20 131 70 227 45 88 47 99 24 121 -21 21 -28 20 -58 -6z"/>
<path d="M14132 21809 c-100 -94 -126 -134 -120 -193 4 -35 31 -56 54 -41 8 6
31 39 50 75 66 121 113 166 100 96 -14 -74 28 -121 52 -58 48 122 39 212 -21
212 -10 0 -61 -41 -115 -91z"/>
<path d="M13876 21874 c-9 -8 -19 -27 -22 -42 -3 -15 -17 -64 -30 -110 -29
-97 -30 -178 -1 -196 26 -16 50 4 60 50 5 21 22 90 39 153 23 90 27 119 19
138 -12 27 -42 30 -65 7z"/>
<path d="M14703 21863 c-4 -16 -7 -58 -7 -95 0 -51 4 -72 18 -87 36 -40 73
-18 115 66 39 78 17 131 -35 83 l-24 -23 0 29 c0 56 -54 77 -67 27z"/>
<path d="M30535 21764 c-149 -35 -181 -64 -146 -133 25 -47 44 -63 72 -59 36
5 47 33 26 67 -18 30 -18 30 11 45 39 20 148 39 183 31 16 -4 43 -20 59 -37
32 -31 56 -34 73 -7 16 26 -11 79 -48 95 -40 16 -154 16 -230 -2z"/>
<path d="M8116 21684 c-22 -21 -20 -50 3 -66 19 -13 18 -15 -5 -83 -13 -39
-24 -92 -24 -118 0 -42 5 -54 34 -83 27 -27 42 -34 73 -34 108 1 252 125 253
218 0 37 -38 101 -73 123 -44 27 -156 59 -205 59 -24 0 -47 -7 -56 -16z m195
-107 c19 -12 38 -35 43 -50 9 -24 6 -32 -28 -66 -42 -43 -107 -77 -130 -68
-26 10 -19 71 16 142 36 72 47 77 99 42z"/>
<path d="M27072 21572 c-55 -18 -102 -54 -102 -79 0 -25 20 -53 38 -53 9 0 37
14 61 30 36 25 54 30 101 30 33 0 64 -6 76 -14 18 -14 18 -15 -10 -45 -17 -17
-68 -57 -115 -89 -149 -99 -201 -168 -159 -210 19 -19 26 -15 86 42 31 29 89
75 127 101 77 52 159 124 175 154 22 42 -23 97 -108 130 -63 25 -99 26 -170 3z"/>
<path d="M30659 21543 c-46 -42 -154 -178 -193 -245 -30 -51 -35 -118 -11
-138 23 -19 61 11 69 54 8 43 84 157 166 249 62 70 69 84 48 105 -19 19 -35
14 -79 -25z"/>
<path d="M26827 21468 c-10 -8 -20 -40 -27 -82 -16 -102 -45 -156 -101 -186
-65 -35 -79 -49 -79 -76 0 -16 8 -27 23 -33 20 -8 23 -15 19 -40 -5 -36 19
-52 50 -32 23 14 21 21 52 -149 54 -289 57 -414 21 -780 -16 -158 -19 -307
-30 -1495 -3 -352 -10 -770 -16 -930 -6 -159 -12 -345 -14 -413 -3 -68 -7
-127 -10 -132 -3 -5 -78 -8 -168 -7 -227 1 -1054 -21 -1632 -43 -643 -26 -778
-30 -1180 -40 -236 -5 -536 -13 -666 -16 l-236 -7 -6 344 c-4 189 -11 443 -16
564 -33 757 -30 1273 11 1885 24 360 9 1038 -24 1103 -13 25 -55 21 -73 -7
-13 -19 -14 -35 -5 -97 20 -141 31 -335 30 -574 0 -207 -5 -320 -25 -605 -28
-379 -23 -1333 10 -1975 2 -49 7 -164 10 -255 3 -91 8 -211 11 -267 3 -63 1
-103 -5 -107 -5 -4 -167 -9 -358 -11 -191 -2 -397 -7 -458 -9 -60 -3 -202 -8
-315 -11 -113 -3 -254 -7 -315 -10 -99 -5 -440 -16 -890 -30 -237 -7 -768 -19
-860 -20 l-80 0 -1 120 c0 66 -4 226 -8 355 -3 129 -9 451 -11 715 -3 264 -10
584 -16 710 -7 127 -12 345 -13 485 -1 289 13 990 20 1001 7 11 -24 217 -36
240 -8 14 -19 19 -37 17 -42 -5 -49 -27 -34 -115 12 -70 17 -484 7 -502 -13
-21 -14 -657 0 -911 8 -157 19 -616 24 -1020 5 -404 14 -814 19 -910 7 -118 7
-178 0 -185 -15 -15 -2014 -8 -2689 10 -311 8 -635 17 -720 20 -206 7 -376 12
-925 30 -253 8 -527 20 -610 26 -82 7 -195 14 -250 18 -56 3 -100 10 -100 16
0 6 4 57 8 115 4 58 12 182 17 275 19 341 31 486 66 790 80 712 93 901 101
1400 3 209 9 388 14 397 13 24 11 62 -3 76 -18 18 -53 14 -74 -9 -18 -20 -19
-47 -25 -453 -8 -497 -22 -716 -84 -1271 -57 -505 -82 -853 -89 -1198 -2 -70
-6 -130 -10 -135 -4 -4 -78 -8 -164 -9 -86 0 -177 -6 -202 -12 -26 -5 -55 -8
-65 -6 -90 20 -217 50 -302 71 -138 33 -300 60 -473 79 -80 8 -179 20 -220 25
-41 6 -167 19 -280 30 -281 28 -567 63 -760 95 -218 36 -442 63 -590 70 -58 3
-177 10 -265 15 -470 28 -920 42 -971 29 -82 -21 -85 -12 -55 177 37 233 74
519 101 788 22 220 98 630 166 898 30 122 108 358 169 514 82 211 92 237 140
363 91 243 154 495 134 534 -14 25 -56 21 -84 -9 -35 -37 -40 -62 -19 -85 18
-20 18 -23 -5 -112 -13 -51 -45 -150 -72 -222 -59 -160 -164 -430 -183 -470
-56 -119 -197 -597 -226 -764 -4 -25 -19 -104 -33 -176 -37 -192 -65 -371 -82
-540 -19 -188 -51 -448 -70 -585 -8 -58 -19 -145 -24 -193 -5 -49 -13 -93 -19
-99 -6 -6 -31 -4 -73 7 -101 28 -156 33 -459 44 -549 20 -606 22 -675 26 -38
2 -124 7 -190 10 -66 3 -230 12 -365 20 -440 26 -957 52 -1200 60 -85 3 -258
10 -385 15 -126 6 -326 11 -444 12 -158 1 -214 5 -218 14 -13 36 26 711 57
979 18 155 67 489 95 650 8 50 22 135 30 190 8 55 25 172 39 260 23 155 44
317 65 515 6 52 13 172 17 266 6 152 5 172 -11 187 -23 24 -40 21 -64 -9 -16
-20 -19 -35 -15 -67 15 -108 -23 -530 -85 -942 -11 -71 -30 -197 -41 -280 -34
-244 -60 -419 -65 -435 -10 -33 -55 -391 -69 -548 -20 -212 -36 -505 -36 -641
0 -58 -5 -113 -10 -121 -7 -11 -28 -15 -84 -15 -41 1 -78 4 -82 8 -7 7 -2 40
35 212 11 50 36 225 56 390 40 339 47 379 116 702 53 248 69 387 69 601 0 117
4 153 37 295 47 208 51 343 14 482 -13 50 -28 96 -34 103 -15 19 -35 14 -52
-12 -14 -22 -14 -29 9 -98 46 -143 43 -227 -15 -443 -27 -99 -39 -233 -39
-435 0 -187 -10 -253 -79 -540 -46 -194 -68 -322 -106 -624 -19 -154 -44 -323
-54 -375 -10 -53 -24 -129 -31 -168 -6 -40 -15 -75 -19 -78 -4 -2 -388 -7
-852 -10 -464 -3 -942 -7 -1061 -10 -205 -5 -218 -5 -218 12 0 57 31 555 40
643 11 113 34 311 50 425 5 39 14 111 20 160 6 50 15 124 20 165 6 41 17 134
25 205 39 335 65 499 112 720 19 88 39 178 43 200 5 22 25 103 45 180 43 166
68 299 91 492 19 157 15 177 -35 171 -23 -3 -26 -8 -28 -43 -12 -194 -44 -374
-121 -680 -97 -385 -132 -591 -192 -1130 -11 -99 -22 -193 -25 -210 -3 -16
-23 -172 -45 -345 -36 -299 -68 -679 -73 -875 l-2 -90 -35 2 c-19 1 -267 4
-550 7 -362 3 -556 9 -651 20 -275 30 -497 40 -592 26 -106 -15 -137 -34 -119
-74 13 -29 31 -32 102 -15 55 14 292 13 415 0 313 -35 457 -41 952 -41 269 0
474 -4 477 -9 10 -16 -14 -560 -39 -878 -35 -441 -45 -685 -45 -1183 0 -481
-3 -538 -60 -1540 -5 -96 -17 -400 -25 -675 -17 -566 -19 -611 -45 -1175 -19
-408 -75 -984 -120 -1230 -17 -93 -49 -317 -140 -995 -12 -82 -27 -190 -35
-240 -7 -49 -23 -153 -35 -230 -12 -77 -28 -174 -37 -215 -31 -160 -73 -426
-73 -466 0 -45 9 -58 33 -48 19 7 53 124 72 249 8 55 29 174 45 265 17 91 37
208 45 260 8 52 21 138 29 190 8 52 25 163 36 245 20 142 81 570 120 845 10
69 23 154 29 190 75 459 104 902 156 2420 8 239 20 518 25 620 5 102 19 357
30 568 12 231 24 644 30 1045 9 637 14 751 55 1217 9 102 19 316 23 475 l7
290 295 0 c162 1 636 5 1053 9 l757 9 0 -24 c0 -13 -5 -40 -10 -59 -13 -43
-44 -225 -59 -340 -6 -47 -18 -141 -26 -210 -9 -69 -36 -242 -60 -385 -50
-303 -60 -381 -80 -685 -9 -124 -21 -270 -27 -325 -6 -56 -12 -297 -13 -545
-1 -331 -6 -484 -18 -595 -18 -170 -20 -266 -10 -614 4 -172 2 -302 -8 -435
-15 -211 -16 -287 -4 -1041 6 -425 5 -571 -8 -800 -9 -154 -19 -372 -22 -485
-7 -242 -20 -432 -40 -590 -8 -63 -21 -236 -30 -385 -18 -315 -26 -397 -60
-560 -63 -302 -95 -560 -95 -762 0 -71 3 -84 19 -93 24 -12 47 -5 56 18 4 9 9
78 11 152 6 177 44 459 83 608 36 137 65 391 76 672 4 80 11 183 16 230 31
275 40 404 49 655 5 154 15 366 21 470 15 249 18 808 6 1265 -8 288 -7 406 4
560 14 196 16 359 10 785 -2 177 1 266 15 385 15 128 18 218 16 515 -2 251 2
417 13 550 8 105 22 287 30 405 18 264 26 325 75 615 21 127 46 286 54 355 42
330 93 660 106 681 8 12 173 19 185 7 7 -7 -11 -458 -31 -758 -37 -576 -50
-882 -59 -1510 -15 -960 -31 -1273 -134 -2605 -6 -71 -15 -276 -21 -455 -26
-827 -31 -957 -46 -1183 -19 -300 -21 -738 -4 -1000 22 -347 8 -585 -55 -912
-14 -71 -35 -179 -46 -240 -12 -60 -33 -138 -46 -172 -27 -68 -27 -100 0 -117
36 -23 84 41 111 150 17 68 72 356 106 553 29 173 36 449 19 747 -18 311 -16
694 4 1019 19 308 24 434 37 950 9 353 34 809 60 1100 5 61 16 209 25 330 8
121 19 285 25 365 17 246 39 838 45 1195 12 781 25 1168 50 1545 17 240 32
546 42 812 5 139 9 178 20 182 8 3 89 1 181 -4 92 -5 264 -12 382 -15 118 -3
256 -7 305 -10 50 -3 189 -10 310 -15 423 -20 1021 -50 1170 -60 365 -24 743
-42 1140 -55 94 -3 188 -8 210 -10 22 -3 96 -9 163 -14 68 -5 128 -13 134 -19
6 -6 6 -36 -1 -85 -15 -109 -29 -304 -41 -592 -10 -236 -28 -473 -50 -665 -42
-372 -42 -349 -30 -1424 6 -561 15 -1073 20 -1136 12 -158 30 -652 31 -895 1
-110 7 -310 14 -445 15 -295 13 -1002 -4 -1190 -6 -74 -16 -189 -21 -255 -6
-66 -17 -307 -25 -535 -18 -527 -22 -598 -46 -805 -11 -93 -24 -210 -29 -260
-6 -49 -17 -213 -25 -363 -14 -269 -18 -303 -55 -512 -19 -105 -23 -140 -21
-172 1 -25 47 -24 61 1 37 70 76 329 95 625 14 222 24 349 46 556 24 235 29
296 39 470 5 102 12 266 15 365 8 260 24 574 35 690 5 55 12 152 16 215 3 63
8 133 9 155 8 86 5 734 -5 990 -5 149 -12 398 -15 555 -3 157 -12 434 -20 615
-32 731 -36 892 -32 1185 3 168 1 464 -5 658 -10 384 -4 517 46 997 14 127 30
336 36 465 21 463 40 734 54 748 6 7 39 17 72 22 62 11 148 8 619 -15 160 -8
382 -19 495 -25 209 -10 549 -43 630 -60 41 -9 158 -26 463 -65 60 -8 139 -16
175 -19 37 -3 146 -14 242 -25 96 -11 213 -23 260 -26 204 -15 544 -63 670
-94 41 -11 111 -27 155 -37 61 -13 86 -24 107 -45 25 -27 30 -29 90 -23 35 4
69 12 77 18 8 7 71 11 165 11 l151 0 -2 -40 c-1 -22 -6 -123 -12 -225 -13
-234 -13 -1028 -1 -1305 5 -115 12 -383 15 -595 11 -773 16 -1011 25 -1305 18
-548 30 -848 40 -1035 20 -354 40 -767 50 -1008 6 -133 12 -286 15 -340 18
-331 27 -480 35 -577 18 -213 20 -286 21 -953 2 -729 1 -710 55 -682 13 8 27
25 31 38 3 14 1 107 -4 206 -6 100 -9 366 -8 591 1 373 -3 553 -19 795 -6 104
-30 598 -51 1060 -9 190 -18 377 -20 415 -28 426 -64 1414 -75 2072 -5 329
-15 819 -22 1088 -15 558 -16 1243 -4 1577 7 201 10 228 25 233 10 3 60 1 112
-5 110 -11 403 -24 1014 -46 1454 -50 2107 -62 3271 -60 l892 1 6 -340 c3
-187 8 -810 11 -1385 3 -651 10 -1177 19 -1395 18 -436 25 -708 31 -1275 9
-765 24 -1285 50 -1685 7 -115 18 -243 36 -455 56 -649 70 -865 84 -1325 8
-253 32 -433 65 -496 13 -23 53 -25 71 -3 10 13 9 27 -5 82 -32 125 -45 246
-51 477 -9 384 -41 915 -75 1245 -28 272 -63 887 -75 1290 -3 96 -7 245 -10
330 -3 85 -7 385 -10 665 -3 281 -12 704 -20 940 -21 628 -26 994 -30 2120 -2
556 -7 1056 -11 1113 -4 58 -3 103 2 103 5 1 88 3 184 5 340 5 1032 24 1620
44 590 20 1462 42 1466 37 1 -1 -2 -168 -6 -372 -10 -506 -4 -891 20 -1426 11
-250 25 -560 30 -689 22 -518 60 -1380 65 -1455 2 -44 7 -123 10 -175 5 -89
10 -161 35 -510 5 -74 14 -173 20 -220 6 -47 15 -128 20 -180 11 -119 59 -555
90 -815 19 -167 49 -621 65 -990 3 -77 13 -243 21 -370 7 -126 19 -304 24
-395 6 -91 15 -223 20 -295 10 -125 24 -349 39 -635 4 -75 10 -141 15 -148 9
-15 38 -16 54 0 14 14 15 113 2 289 -5 70 -12 182 -15 250 -3 68 -8 144 -10
169 -3 25 -12 167 -20 315 -9 149 -20 349 -25 445 -6 96 -12 218 -15 270 -3
52 -10 167 -15 255 -5 88 -12 212 -15 275 -7 156 -43 588 -60 735 -8 66 -17
147 -20 180 -4 33 -15 137 -26 230 -82 724 -103 1031 -154 2245 -8 201 -17
397 -20 435 -2 39 -9 194 -15 345 -5 151 -12 318 -15 370 -19 327 -26 680 -26
1230 1 691 -3 656 64 643 45 -9 1080 16 1617 39 457 20 733 28 1410 42 173 4
353 9 400 11 109 6 391 8 395 3 2 -2 0 -60 -5 -128 -5 -69 -11 -282 -15 -475
-13 -803 -14 -845 -51 -1420 -49 -755 -49 -771 -59 -1190 -3 -137 -13 -407
-21 -600 -19 -475 -22 -549 -30 -705 -3 -74 -8 -166 -9 -205 -2 -38 -8 -200
-15 -360 -32 -775 -38 -1004 -37 -1420 0 -247 4 -517 8 -600 8 -171 26 -728
34 -1070 3 -126 8 -261 11 -300 3 -38 7 -106 9 -150 2 -44 9 -168 15 -275 7
-107 11 -248 11 -313 -1 -98 2 -119 15 -124 9 -3 25 3 37 16 21 21 22 30 21
199 0 97 -8 303 -18 457 -26 414 -23 347 -41 1125 -3 124 -10 324 -17 444 -7
141 -9 408 -5 750 6 552 20 956 72 2052 21 466 22 486 34 904 15 560 20 669
42 975 10 154 24 343 29 420 19 271 39 836 51 1408 11 508 14 579 28 586 9 4
124 4 256 -1 132 -4 434 -9 670 -10 397 -2 553 3 970 31 72 5 207 12 300 16
94 4 173 9 176 11 4 2 76 6 160 9 85 3 251 10 369 16 232 11 714 14 900 5 63
-3 185 -8 270 -11 227 -8 305 -15 403 -36 98 -22 127 -16 127 26 0 40 -46 56
-194 66 -397 26 -565 32 -1001 33 -264 0 -554 -2 -645 -6 -266 -12 -685 -37
-815 -47 -144 -12 -523 -32 -730 -38 -190 -6 -432 9 -462 28 -19 12 -27 11
-55 -1 -24 -10 -63 -12 -148 -9 -63 2 -214 4 -335 3 -121 -1 -222 3 -225 7 -4
5 -3 42 1 83 4 41 10 141 13 223 3 81 8 195 11 253 8 176 15 629 20 1395 6
793 9 909 31 1090 18 146 26 400 14 475 -5 30 -14 93 -21 140 -17 120 -55 269
-73 289 -39 42 -8 92 74 122 32 12 66 30 75 40 31 34 -7 51 -60 27 -14 -6 -28
-9 -31 -6 -3 3 6 33 20 67 33 77 34 124 4 145 -27 19 -30 19 -51 4z"/>
<path d="M29048 21445 c-12 -12 -84 -26 -208 -39 -202 -22 -313 -61 -364 -129
-32 -41 -32 -56 -5 -91 31 -40 62 -32 70 18 7 43 45 82 89 92 14 3 43 12 65
19 22 7 60 19 85 25 25 7 60 17 77 23 54 18 49 0 -16 -63 -83 -81 -99 -122
-61 -160 40 -40 111 -13 195 76 28 30 56 54 62 54 7 0 15 -17 18 -37 9 -56 27
-87 59 -98 25 -9 31 -6 57 23 31 34 30 57 0 47 -10 -3 -23 0 -28 7 -10 12 -38
144 -45 208 -3 24 -35 40 -50 25z m-44 -107 c-24 -43 -61 -81 -100 -104 -25
-15 -48 -24 -51 -20 -3 3 11 25 32 48 50 57 141 114 119 76z"/>
<path d="M29576 21424 c-16 -9 -56 -36 -89 -60 -32 -24 -63 -44 -68 -44 -5 0
-9 16 -9 35 0 43 -17 52 -70 36 -43 -13 -113 -85 -108 -111 5 -22 37 -24 59
-4 29 26 33 12 12 -46 -18 -50 -18 -52 1 -66 11 -8 24 -14 29 -14 5 0 48 38
96 84 80 78 146 125 158 112 3 -3 -7 -39 -22 -80 -30 -81 -28 -120 4 -131 32
-10 82 19 141 80 30 31 67 63 81 70 l27 14 11 -61 c13 -74 45 -114 99 -121 21
-3 64 -13 97 -22 81 -23 165 -19 229 9 65 30 94 60 76 81 -17 20 -30 19 -97
-10 -63 -28 -173 -45 -173 -27 0 6 17 24 37 39 50 38 93 100 93 134 0 46 -47
90 -103 96 -57 7 -98 -9 -133 -50 -23 -27 -25 -38 -22 -95 2 -44 -1 -67 -9
-69 -20 -7 -34 34 -32 98 4 112 -50 115 -168 8 -63 -57 -90 -73 -81 -46 26 68
39 121 36 144 -3 24 -8 28 -38 30 -19 2 -48 -4 -64 -13z m523 -88 c21 -25 1
-76 -41 -102 -55 -35 -72 -26 -65 32 2 24 13 54 22 64 21 23 67 26 84 6z"/>
<path d="M13675 21351 c-130 -47 -265 -132 -285 -180 -17 -43 -10 -75 19 -79
18 -3 35 8 67 41 64 67 225 150 255 131 18 -11 -69 -174 -193 -363 -37 -57
-68 -107 -68 -111 0 -5 7 -16 16 -24 13 -13 19 -14 38 -3 51 27 142 158 224
322 76 151 90 227 52 265 -24 24 -59 24 -125 1z"/>
<path d="M9405 21321 c-103 -25 -260 -98 -290 -133 -30 -35 -32 -73 -6 -88 32
-17 49 -12 90 25 49 45 259 130 296 121 47 -12 26 -70 -76 -209 -106 -144
-130 -186 -127 -215 2 -21 9 -28 30 -30 24 -3 37 10 122 125 121 161 170 256
170 325 0 43 -4 54 -28 74 -33 29 -80 30 -181 5z"/>
<path d="M25231 21294 c-134 -36 -227 -147 -247 -294 -6 -47 -11 -54 -53 -82
-94 -63 -112 -96 -73 -131 37 -34 73 -19 86 36 3 15 12 27 20 27 9 0 15 -22
19 -72 7 -84 30 -118 66 -99 19 11 20 17 15 119 l-6 107 33 17 c19 10 70 31
114 47 44 16 106 39 138 52 35 13 61 19 67 13 6 -6 4 -31 -5 -64 -8 -30 -15
-69 -15 -87 0 -22 -10 -44 -30 -66 -16 -19 -30 -41 -30 -48 1 -8 16 -31 35
-52 43 -49 69 -44 87 15 11 38 18 44 93 79 44 21 95 42 113 45 l32 7 0 -46 c0
-34 6 -53 26 -76 23 -27 32 -31 77 -31 57 0 125 28 145 60 7 11 24 50 37 87
27 70 49 103 71 103 19 0 27 -18 35 -79 10 -68 36 -105 76 -109 26 -3 41 6 89
52 33 31 67 56 76 56 10 0 44 24 75 52 l58 53 3 -30 c7 -54 43 -73 75 -37 23
25 18 153 -8 182 -10 11 -24 20 -31 20 -7 0 -35 -26 -63 -57 -50 -55 -81 -71
-41 -20 24 30 25 41 5 57 -25 21 -61 -13 -99 -94 -39 -86 -110 -163 -132 -145
-27 22 -13 52 60 128 79 80 103 134 76 166 -24 29 -77 18 -125 -26 -25 -23
-48 -52 -51 -65 -4 -13 -9 -24 -13 -24 -3 -1 -29 -2 -58 -3 -68 -3 -92 -26
-148 -144 -44 -93 -68 -117 -108 -111 -18 2 -23 11 -25 42 -5 59 4 82 43 106
20 12 43 36 51 53 16 29 16 32 -6 49 -39 31 -70 21 -135 -46 -30 -31 -65 -50
-137 -78 -53 -21 -101 -38 -107 -38 -27 0 4 158 39 195 12 13 49 33 81 45 71
27 104 51 125 92 14 27 14 31 -2 49 -25 28 -96 25 -149 -5 -23 -14 -59 -45
-79 -71 -45 -55 -69 -67 -165 -89 -40 -9 -114 -34 -163 -56 -50 -22 -94 -40
-99 -40 -5 0 -6 15 -2 33 20 108 111 187 214 187 41 0 60 5 72 18 23 25 21 48
-5 66 -27 19 -46 19 -117 0z"/>
<path d="M24419 21250 c-38 -22 -77 -173 -86 -338 l-6 -104 -36 5 c-132 20
-135 20 -163 -3 -41 -32 -38 -78 7 -126 l35 -37 91 6 c60 4 97 2 109 -5 14 -9
22 -9 34 1 16 13 61 100 55 105 -2 2 -14 9 -26 15 -18 9 -23 20 -23 49 0 79
31 268 56 339 14 41 23 81 20 89 -6 16 -43 18 -67 4z m-135 -500 c22 -21 -21
-38 -58 -24 -19 7 -21 30 -3 37 14 6 48 -2 61 -13z"/>
<path d="M28560 21125 c0 -4 7 -19 15 -34 17 -33 11 -43 -21 -35 -41 11 -74
-3 -74 -31 0 -40 42 -60 127 -60 62 0 76 3 95 23 22 21 22 23 6 50 -28 47
-148 117 -148 87z"/>
<path d="M24655 21084 c-42 -45 -28 -134 21 -134 8 0 23 9 34 20 17 17 20 31
18 78 -3 50 -6 57 -25 60 -15 2 -32 -6 -48 -24z"/>
<path d="M30547 21092 c-36 -39 -10 -90 38 -78 14 4 31 18 37 31 9 21 8 28 -7
45 -23 25 -47 26 -68 2z"/>
<path d="M27017 21032 c-29 -32 -14 -92 23 -92 54 0 82 82 34 100 -34 13 -38
13 -57 -8z"/>
<path d="M12995 21010 c-52 -27 -64 -36 -103 -87 -19 -24 -38 -43 -42 -43 -5
0 -10 15 -12 33 -2 24 -8 32 -23 32 -16 0 -26 -18 -55 -105 -36 -107 -73 -174
-94 -167 -16 5 -19 69 -6 165 12 90 6 112 -31 112 -34 0 -49 -42 -58 -156 -6
-84 -4 -119 7 -152 15 -44 53 -82 83 -82 45 0 102 78 150 205 29 78 42 71 69
-43 24 -97 115 -148 249 -140 109 6 207 67 169 104 -12 13 -26 12 -100 -6 -72
-17 -94 -18 -136 -9 -58 12 -112 58 -112 95 0 19 8 24 50 33 112 24 170 74
170 147 0 34 -5 47 -26 63 -34 27 -96 27 -149 1z m85 -85 c0 -17 -63 -61 -102
-70 -47 -12 -33 32 22 69 31 20 80 21 80 1z"/>
<path d="M8501 20981 c-19 -19 -51 -108 -51 -141 0 -38 -49 -201 -75 -248 -60
-110 -98 -67 -115 130 -8 102 -26 138 -69 138 -37 0 -113 -59 -166 -128 -21
-29 -42 -52 -47 -52 -4 0 -19 11 -34 25 -43 40 -82 42 -216 9 l-28 -6 0 65 c0
70 -14 93 -50 82 -33 -11 -42 -40 -35 -123 l6 -77 -57 -40 c-87 -61 -110 -134
-45 -143 16 -3 36 11 73 49 46 48 52 51 63 35 12 -16 35 -121 35 -159 0 -18
34 -57 49 -57 20 0 41 33 41 64 0 18 -11 66 -25 106 -14 40 -25 82 -25 91 0
24 49 49 110 56 47 5 49 4 65 -27 18 -35 17 -64 -5 -142 -22 -76 13 -123 63
-85 9 6 25 46 36 88 11 42 34 100 52 130 31 52 96 129 109 129 4 0 12 -37 19
-82 19 -126 30 -159 66 -195 26 -26 41 -33 70 -33 99 0 161 94 206 310 11 52
29 123 40 158 17 50 18 66 9 77 -17 21 -46 19 -69 -4z"/>
<path d="M11910 20993 c-39 -14 -50 -81 -31 -195 4 -25 4 -53 -1 -61 -4 -9
-30 -23 -57 -32 -85 -28 -122 -70 -89 -103 18 -18 43 -15 98 13 27 14 54 25
60 25 14 0 13 -69 -2 -124 -13 -50 -2 -76 33 -76 36 0 53 46 57 152 l4 98 62
35 c33 19 86 55 116 80 47 39 80 56 80 41 0 -19 -33 -153 -50 -200 -32 -93
-24 -136 25 -136 30 0 45 20 103 136 62 123 84 151 171 208 38 25 74 52 81 60
17 22 8 51 -17 54 -36 5 -141 -57 -187 -110 -48 -56 -60 -60 -51 -18 5 21 1
39 -10 57 -31 47 -104 24 -260 -83 -27 -19 -58 -34 -69 -34 -18 0 -19 6 -13
95 4 77 2 98 -10 110 -15 16 -19 17 -43 8z"/>
<path d="M8790 20899 c-145 -79 -205 -202 -169 -345 21 -81 105 -125 201 -104
109 23 263 133 256 181 -5 37 -34 34 -91 -9 -29 -22 -72 -49 -96 -62 -54 -27
-139 -37 -164 -18 -19 15 -38 70 -28 85 3 6 33 12 67 15 70 7 109 24 165 75
76 69 90 134 40 184 -41 41 -105 40 -181 -2z m115 -69 c18 -28 -87 -110 -142
-110 -45 0 -43 20 10 62 57 47 119 69 132 48z"/>
<path d="M24626 20828 c-11 -25 -12 -48 -5 -92 15 -95 32 -112 77 -80 20 14
22 24 22 98 0 90 -8 106 -53 106 -22 0 -31 -7 -41 -32z"/>
<path d="M13536 20675 c-25 -26 -29 -55 -10 -76 21 -23 42 -24 72 -3 28 20 30
69 3 84 -27 14 -47 13 -65 -5z"/>
<path d="M9380 20620 c-22 -22 -26 -60 -8 -78 18 -18 63 -14 81 6 51 56 -20
125 -73 72z"/>
<path d="M27796 20264 c-49 -49 36 -216 202 -394 30 -34 52 -66 52 -79 0 -14
-20 -42 -52 -74 -60 -59 -163 -190 -217 -276 -20 -31 -42 -66 -48 -77 -79
-122 -83 -209 -8 -190 20 5 36 28 74 104 26 54 72 132 102 174 106 150 200
268 213 268 7 0 28 -21 47 -47 48 -69 248 -263 270 -263 36 0 61 46 41 76 -4
7 -30 29 -58 50 -93 70 -244 220 -244 241 0 11 30 53 66 94 136 153 163 201
129 229 -24 20 -56 -9 -155 -136 -54 -69 -93 -109 -104 -109 -25 0 -173 218
-211 310 -31 78 -40 92 -66 106 -13 6 -22 4 -33 -7z"/>
<path d="M29317 20181 c-31 -37 -47 -110 -83 -366 -36 -259 -66 -366 -105
-373 -33 -6 -78 222 -87 442 -6 136 -10 160 -24 170 -38 24 -66 -25 -114 -194
-10 -36 -38 -112 -62 -170 -24 -58 -61 -158 -82 -223 -22 -64 -47 -131 -55
-147 -18 -35 -19 -72 -3 -88 37 -37 85 16 118 128 38 134 122 391 135 417 l13
25 5 -29 c3 -15 9 -59 12 -98 15 -175 56 -296 108 -325 25 -14 30 -13 65 6 22
13 50 43 70 76 48 82 67 166 96 429 8 69 24 168 36 219 23 91 21 118 -7 127
-6 2 -22 -10 -36 -26z"/>
<path d="M30340 20194 c-8 -3 -44 -15 -80 -26 -172 -55 -270 -180 -270 -343 0
-89 19 -224 36 -256 27 -52 86 -30 100 37 4 24 0 37 -22 64 -26 30 -29 42 -32
126 -4 88 -2 98 24 150 52 104 172 175 322 190 34 4 62 3 62 -2 0 -9 -55 -33
-125 -55 -60 -18 -115 -48 -141 -76 -27 -29 -32 -98 -13 -166 29 -104 345
-340 475 -355 58 -6 91 4 110 33 23 35 4 55 -50 55 -52 0 -133 24 -168 50 -15
11 -31 20 -37 20 -18 0 -167 117 -204 160 -45 53 -65 110 -51 147 9 26 76 62
159 84 149 39 179 50 197 66 47 42 45 75 -4 92 -30 11 -258 14 -288 5z"/>
<path d="M8564 20121 c-54 -24 -82 -81 -90 -182 -12 -139 31 -272 119 -366 68
-73 101 -82 136 -37 25 32 26 42 5 66 -14 14 -14 18 -3 22 8 2 30 9 50 15 101
32 299 197 318 266 17 63 13 85 -22 120 -40 40 -69 49 -342 106 -65 13 -127
10 -171 -10z m188 -91 c234 -40 268 -51 268 -86 0 -23 -95 -109 -191 -174 -88
-58 -178 -96 -204 -86 -34 13 -73 185 -61 268 7 44 42 98 65 98 5 0 60 -9 123
-20z"/>
<path d="M12298 20113 c-130 -49 -243 -185 -283 -340 -26 -100 -18 -186 31
-346 42 -135 73 -176 120 -155 36 17 40 52 16 134 -12 41 -22 80 -22 88 0 28
-22 64 -46 75 -20 9 -24 18 -24 58 0 136 42 245 127 331 61 61 108 84 174 84
83 -1 123 -34 103 -86 -6 -16 -91 -72 -197 -130 -79 -44 -132 -88 -140 -116
-12 -46 96 -139 228 -197 109 -49 319 -83 506 -83 64 0 79 3 95 21 14 15 16
24 8 37 -6 9 -17 18 -25 19 -8 1 -75 7 -149 13 -257 22 -411 64 -512 137 -73
53 -69 61 62 118 100 44 182 99 204 136 23 40 21 110 -6 144 -47 60 -185 90
-270 58z"/>
<path d="M8152 20078 c-22 -22 -12 -86 34 -209 33 -88 47 -144 51 -196 6 -79
-1 -88 -44 -58 -24 17 -118 136 -180 228 -82 122 -95 137 -112 137 -43 0 -49
-25 -53 -225 -4 -194 -8 -215 -49 -256 -21 -21 -25 -59 -7 -77 7 -7 27 -12 44
-12 54 0 84 50 96 158 5 48 6 120 3 160 -4 39 -3 72 2 72 11 0 53 -54 85 -111
30 -50 151 -170 198 -194 82 -42 130 74 100 242 -7 37 -27 106 -45 153 -19 47
-39 105 -45 130 -7 25 -17 51 -22 58 -13 15 -40 16 -56 0z"/>
<path d="M21592 20066 c-43 -14 -103 -54 -135 -91 -49 -57 -110 -174 -128
-244 -41 -167 -61 -381 -39 -422 13 -24 56 -25 69 -1 5 10 7 59 4 114 -3 55
-2 98 4 101 5 3 38 -17 74 -44 306 -237 318 -246 374 -274 89 -44 189 -28 216
37 23 56 -10 75 -66 38 -60 -39 -97 -24 -271 112 -160 125 -191 148 -202 148
-4 0 -27 16 -51 36 -33 28 -41 42 -39 63 3 28 1 26 200 120 129 60 198 130
198 198 0 34 -31 88 -59 102 -34 19 -104 21 -149 7z m109 -88 c14 -26 4 -52
-36 -86 -43 -38 -234 -146 -243 -137 -4 3 9 36 28 71 38 72 110 151 153 169
37 15 85 7 98 -17z"/>
<path d="M25445 20030 c-70 -42 -170 -133 -200 -184 -60 -103 -89 -288 -71
-459 9 -81 23 -102 60 -93 35 9 51 48 35 90 -16 45 -25 266 -10 266 6 0 11 -4
11 -8 0 -17 111 -136 162 -174 29 -22 64 -50 78 -63 14 -12 60 -40 103 -61 69
-33 90 -38 166 -42 79 -4 92 -2 138 22 55 27 93 67 93 98 0 31 -25 31 -83 -2
-80 -45 -143 -49 -231 -15 -78 29 -90 37 -231 148 -168 133 -170 146 -37 236
155 105 214 187 174 241 -29 38 -92 38 -157 0z m44 -97 c-36 -38 -169 -137
-175 -130 -17 16 88 122 155 157 43 22 53 9 20 -27z"/>
<path d="M7117 20029 c-56 -33 -92 -224 -85 -454 5 -164 18 -210 62 -221 36
-9 106 30 106 60 0 26 -15 42 -45 48 -22 4 -31 40 -36 138 -3 53 -2 55 27 61
45 9 51 15 69 68 14 43 49 91 59 80 2 -2 16 -24 31 -49 68 -108 295 -350 330
-350 28 0 45 18 45 48 0 17 -26 48 -90 109 -89 84 -222 232 -250 279 -14 23
-13 26 23 60 41 40 43 46 23 63 -11 10 -23 8 -56 -9 l-41 -21 -48 50 c-49 53
-83 64 -124 40z m81 -119 c12 -16 22 -32 22 -35 0 -3 -23 -34 -52 -68 l-51
-62 6 60 c9 81 25 135 41 135 7 0 22 -13 34 -30z"/>
<path d="M20771 20011 c-26 -26 -39 -73 -56 -216 -37 -290 -46 -355 -58 -403
-15 -55 -41 -102 -58 -102 -22 0 -49 93 -94 320 -26 129 -54 245 -61 258 -31
49 -104 11 -141 -75 -50 -115 -78 -231 -129 -532 -13 -80 -24 -157 -24 -171 0
-50 44 -66 79 -29 13 15 21 42 26 92 7 76 31 234 66 427 20 109 41 180 54 180
12 0 26 -56 46 -179 43 -268 98 -381 184 -381 106 0 154 134 185 515 6 72 18
156 26 189 27 103 4 156 -45 107z"/>
<path d="M24298 19947 c-18 -17 -122 -123 -230 -235 -108 -111 -201 -202 -207
-202 -15 0 -66 92 -102 185 -25 63 -31 95 -31 150 0 73 -9 95 -37 95 -34 0
-61 -43 -61 -96 1 -110 43 -222 120 -320 27 -35 50 -71 50 -81 0 -9 -22 -42
-48 -72 -27 -31 -65 -78 -84 -106 -51 -72 -128 -223 -128 -250 0 -49 61 -74
92 -37 8 9 20 37 27 62 18 62 49 121 120 227 85 127 82 125 137 64 57 -63 257
-231 276 -231 21 0 38 21 38 46 0 26 -49 72 -183 173 -90 68 -127 104 -127
123 0 4 98 106 218 225 127 127 224 232 231 250 27 67 -15 85 -71 30z"/>
<path d="M11377 19949 c-42 -22 -79 -73 -75 -104 5 -33 41 -29 81 10 41 40 66
43 129 18 105 -41 179 -114 208 -205 14 -46 -6 -134 -47 -211 -74 -136 -255
-207 -352 -138 -69 50 -112 191 -96 317 6 49 13 63 52 105 53 57 52 79 -3 79
-30 0 -45 -8 -79 -43 -52 -51 -65 -93 -65 -209 0 -119 15 -178 61 -248 54 -80
122 -115 224 -115 139 1 295 106 355 238 81 180 53 312 -89 432 -108 91 -221
118 -304 74z"/>
<path d="M24715 19952 c-85 -40 -189 -162 -247 -287 -29 -63 -32 -211 -6 -260
24 -45 77 -91 126 -111 51 -20 160 -15 229 10 93 33 213 150 242 235 31 94 -3
203 -102 333 -61 79 -168 114 -242 80z m119 -86 c40 -17 89 -74 122 -145 50
-104 20 -205 -84 -286 -88 -68 -242 -87 -296 -36 -30 29 -51 108 -42 164 12
75 72 183 140 253 69 70 94 78 160 50z"/>
<path d="M29554 19921 c-50 -13 -99 -48 -119 -84 -34 -64 1 -87 67 -42 88 60
186 71 259 28 38 -22 69 -80 69 -129 0 -51 -55 -150 -103 -185 -77 -56 -114
-51 -147 17 -19 39 -22 55 -16 111 11 103 -32 149 -75 81 -18 -29 -19 -43 -13
-118 12 -158 83 -234 195 -209 85 19 155 82 205 185 55 112 30 247 -59 318
-36 29 -44 30 -135 33 -53 1 -111 -2 -128 -6z"/>
<path d="M17705 19874 c-16 -8 -38 -23 -48 -32 -30 -27 -85 -154 -104 -243
-21 -99 -23 -307 -3 -409 7 -36 15 -92 19 -124 9 -86 31 -100 153 -99 196 1
351 101 395 252 40 139 -44 435 -161 569 -83 94 -175 126 -251 86z m155 -113
c127 -127 211 -433 153 -562 -36 -81 -177 -153 -286 -147 l-52 3 -21 85 c-31
119 -38 211 -25 331 15 135 46 249 82 299 25 34 35 40 65 40 29 0 44 -9 84
-49z"/>
<path d="M20936 19865 c-8 -8 -18 -25 -22 -37 -4 -13 -16 -35 -26 -49 -16 -21
-18 -31 -9 -47 6 -12 8 -50 5 -98 -10 -131 30 -262 98 -319 28 -23 39 -27 83
-23 69 6 99 29 136 104 63 128 45 277 -42 356 -24 22 -56 40 -77 44 -48 9 -72
21 -72 39 0 17 -27 45 -45 45 -7 0 -20 -7 -29 -15z m154 -157 c37 -38 80 -122
80 -158 0 -78 -60 -170 -111 -170 -27 0 -33 6 -57 58 -23 50 -26 70 -27 162 0
128 4 140 48 140 26 0 43 -9 67 -32z"/>
<path d="M17235 19827 c-37 -56 -44 -270 -15 -427 15 -83 18 -272 3 -277 -6
-2 -23 16 -38 41 -49 84 -160 370 -184 476 -26 110 -41 140 -73 140 -72 0
-101 -107 -113 -420 -7 -195 -22 -326 -42 -365 -37 -75 -35 -117 7 -130 28 -9
60 12 75 48 25 61 44 233 51 450 3 119 10 217 14 217 8 0 33 -65 78 -205 32
-96 63 -160 135 -271 59 -92 88 -118 122 -110 72 18 87 132 56 418 -19 177
-20 212 -10 303 10 84 10 107 0 119 -19 23 -48 20 -66 -7z"/>
<path d="M16233 19797 c-68 -38 -112 -155 -120 -322 -3 -70 -11 -131 -19 -147
-19 -37 -18 -54 6 -86 18 -25 19 -34 10 -104 -11 -86 -1 -131 32 -149 15 -8
25 -6 45 6 l25 17 -3 151 c-2 84 0 162 4 174 11 30 96 85 126 81 21 -3 31 -18
66 -103 68 -161 143 -303 166 -310 24 -8 59 19 59 45 0 9 -23 61 -52 115 -87
168 -136 288 -131 322 4 24 1 32 -15 37 -14 5 -31 38 -62 124 -55 153 -80 181
-137 149z m36 -144 c28 -56 55 -149 48 -166 -7 -18 -78 -57 -103 -57 -15 0
-16 11 -11 98 5 95 20 162 38 162 5 0 17 -17 28 -37z"/>
<path d="M15744 19622 c-34 -23 -37 -51 -24 -256 15 -227 10 -406 -10 -431
-12 -14 -15 -14 -33 2 -57 51 -232 376 -274 507 -30 96 -38 108 -71 104 -66
-8 -82 -91 -118 -604 -7 -99 -2 -111 42 -100 16 4 30 19 39 39 14 35 24 177
25 365 0 67 4 122 9 122 4 0 37 -64 71 -142 35 -79 72 -155 82 -170 10 -14 18
-29 18 -32 0 -13 69 -105 107 -142 60 -58 95 -71 138 -51 55 26 66 54 77 184
11 141 -7 544 -25 583 -13 26 -34 35 -53 22z"/>
<path d="M1372 19238 c-17 -17 -15 -42 14 -147 42 -154 150 -347 291 -524 35
-43 63 -81 63 -85 0 -10 -272 -268 -322 -306 -41 -31 -49 -63 -22 -90 34 -35
72 -14 164 89 80 89 231 245 238 245 3 0 37 -32 75 -71 71 -71 231 -185 301
-214 52 -22 100 -17 104 12 2 14 -5 27 -20 36 -13 7 -59 35 -102 61 -71 43
-173 116 -260 189 -41 34 -31 65 38 114 150 106 416 317 421 334 8 26 -2 39
-29 39 -38 0 -330 -213 -444 -324 -51 -50 -65 -59 -80 -50 -19 12 -147 197
-221 320 -56 93 -97 199 -107 276 -7 55 -19 88 -38 100 -17 12 -51 9 -64 -4z"/>
<path d="M4524 19093 c-82 -85 -227 -406 -329 -728 -54 -171 -95 -267 -149
-345 -49 -71 -60 -98 -45 -116 21 -25 47 -15 91 36 69 78 120 187 196 410 79
232 80 235 120 322 16 35 53 116 82 180 41 93 63 128 101 165 55 54 65 73 49
103 -19 36 -63 26 -116 -27z"/>
<path d="M3668 19099 c-32 -18 -22 -78 27 -178 97 -193 251 -305 442 -318 72
-5 83 -4 89 11 10 25 -12 40 -90 60 -108 27 -194 73 -258 138 -63 64 -84 100
-117 201 -13 38 -32 73 -44 82 -25 17 -26 18 -49 4z"/>
<path d="M6297 18922 c-23 -26 -21 -44 12 -110 15 -31 32 -68 36 -82 17 -57
91 -166 154 -227 76 -74 81 -58 -49 -143 -82 -53 -232 -179 -263 -222 -23 -31
-17 -73 13 -83 27 -9 37 -1 144 102 89 86 267 218 286 211 4 -2 63 -56 131
-122 180 -175 333 -266 444 -266 42 0 60 5 75 20 38 38 22 56 -60 65 -109 13
-215 71 -350 192 -36 32 -87 75 -113 97 -26 21 -47 45 -47 53 0 8 21 23 48 35
26 11 97 44 157 73 61 29 137 64 170 78 150 63 313 147 319 163 4 10 1 24 -8
32 -12 12 -20 12 -52 2 -77 -25 -422 -176 -562 -247 -79 -39 -149 -70 -155
-67 -16 7 -136 163 -169 222 -16 26 -40 83 -54 127 -37 113 -68 140 -107 97z"/>
<path d="M8506 18849 c-23 -14 -106 -189 -196 -414 -118 -293 -180 -427 -238
-513 -32 -46 -63 -94 -70 -105 -34 -59 18 -90 69 -41 75 72 141 197 279 529
92 221 179 408 222 477 22 36 22 37 4 57 -21 23 -41 26 -70 10z"/>
<path d="M10276 18824 c-9 -8 -16 -24 -16 -35 0 -27 68 -256 87 -293 36 -70
110 -160 196 -240 81 -75 90 -87 77 -100 -17 -17 -200 -115 -347 -187 -113
-56 -126 -66 -121 -105 6 -56 29 -54 151 10 62 33 140 77 175 98 34 21 64 38
67 38 3 0 36 20 75 45 39 25 76 45 83 44 6 -1 48 -42 93 -92 120 -137 252
-235 298 -223 26 6 40 34 31 57 -3 8 -37 33 -75 57 -79 49 -270 217 -270 237
0 8 44 38 98 68 179 100 416 239 477 280 85 58 178 150 173 173 -5 31 -49 29
-93 -5 -110 -84 -189 -138 -280 -188 -55 -31 -173 -100 -263 -155 -90 -54
-172 -98 -182 -98 -25 0 -195 184 -242 262 -48 78 -75 150 -98 262 -10 48 -24
92 -31 97 -21 13 -46 11 -63 -7z"/>
<path d="M7775 18747 c-50 -28 -57 -60 -22 -93 15 -13 28 -40 32 -63 11 -67
63 -141 130 -186 127 -85 308 -112 332 -49 9 23 -18 40 -75 49 -92 13 -184 47
-222 82 -54 48 -84 123 -77 192 10 92 -20 112 -98 68z"/>
<path d="M30231 18749 c-41 -38 -58 -111 -65 -277 -3 -62 -8 -117 -11 -122
-12 -19 -33 -10 -82 34 -27 24 -80 61 -118 82 -39 20 -81 47 -93 58 -33 29
-54 73 -47 96 9 28 -12 60 -40 60 -34 0 -55 -26 -55 -70 0 -80 93 -169 280
-267 107 -57 140 -77 140 -86 0 -24 -81 -208 -169 -382 -80 -159 -106 -222
-127 -304 -28 -113 -28 -148 -1 -165 34 -21 49 5 83 140 33 133 63 220 92 264
19 30 70 126 124 234 56 111 96 273 104 415 7 143 25 206 64 226 33 17 47 50
30 70 -19 22 -82 19 -109 -6z"/>
<path d="M11896 18708 c-12 -18 -13 -32 -5 -68 13 -53 7 -316 -7 -330 -6 -6
-62 -6 -156 1 -127 9 -150 9 -176 -5 -39 -20 -50 -51 -27 -76 16 -18 29 -19
188 -13 l170 6 -7 -95 c-8 -124 -23 -203 -47 -250 -36 -70 -16 -112 39 -84 58
30 91 142 92 316 0 97 5 104 66 96 27 -3 104 -9 172 -12 129 -7 152 -1 152 37
0 29 -27 36 -165 43 -71 4 -150 10 -173 13 l-44 6 6 41 c19 140 28 269 22 310
-12 75 -69 112 -100 64z"/>
<path d="M12537 18659 c-8 -11 -13 -29 -10 -39 7 -26 240 -286 348 -388 50
-48 112 -95 147 -113 32 -16 61 -36 65 -45 3 -8 -17 -48 -45 -92 -110 -170
-201 -351 -288 -569 -46 -117 -55 -179 -29 -190 28 -10 52 26 111 165 115 274
302 611 360 649 13 8 33 34 43 57 11 22 77 102 147 176 160 170 161 172 140
205 -17 26 -45 32 -77 15 -10 -6 -41 -44 -69 -85 -28 -41 -54 -75 -59 -75 -5
0 -44 -43 -87 -95 -43 -52 -85 -95 -94 -95 -55 0 -382 312 -472 450 -27 41
-55 78 -61 82 -22 14 -56 8 -70 -13z"/>
<path d="M28716 18585 c-104 -52 -308 -232 -411 -363 -22 -29 -46 -51 -54 -49
-8 1 -24 18 -35 38 -12 19 -40 66 -62 105 -23 38 -59 103 -80 144 -22 41 -46
76 -55 78 -23 4 -49 -25 -49 -55 0 -38 84 -182 163 -279 37 -46 67 -90 67 -97
0 -7 -24 -41 -53 -74 -74 -86 -155 -225 -163 -281 -8 -55 10 -95 44 -100 37
-5 52 15 52 70 0 57 18 96 100 218 83 123 78 121 142 54 29 -31 96 -85 149
-120 61 -40 121 -90 161 -135 53 -58 69 -70 86 -65 35 12 36 41 3 90 -40 57
-90 100 -229 194 -176 119 -182 124 -182 143 0 21 255 280 331 336 30 22 83
55 116 72 64 32 84 60 63 86 -17 21 -47 18 -104 -10z"/>
<path d="M20621 18514 c-69 -7 -206 -25 -305 -39 -100 -14 -221 -29 -271 -32
-71 -4 -95 -10 -112 -26 -26 -23 -28 -36 -10 -61 12 -16 21 -16 102 -7 50 6
119 16 155 21 467 73 615 82 1080 65 201 -7 453 -16 560 -19 107 -4 227 -9
266 -12 83 -7 117 5 112 39 -7 48 0 48 -768 72 -555 17 -642 17 -809 -1z"/>
<path d="M17570 18503 c-182 -4 -566 -24 -755 -38 -698 -53 -1039 -65 -1220
-45 -150 18 -335 17 -369 0 -66 -34 -60 -87 10 -82 22 1 78 5 126 8 53 4 155
-1 260 -11 177 -17 296 -16 593 5 72 5 200 14 285 20 85 6 241 17 345 25 105
8 224 16 265 19 283 19 974 27 1173 14 141 -9 177 -3 177 27 0 28 -46 45 -146
55 -88 8 -482 10 -744 3z"/>
<path d="M26113 18468 c-13 -6 -25 -18 -27 -27 -19 -68 -95 -405 -117 -521 -7
-36 -18 -82 -25 -102 -12 -34 -35 -221 -48 -380 -4 -56 -2 -71 14 -90 15 -19
22 -21 37 -12 32 19 46 66 61 199 13 117 26 192 93 525 10 52 35 161 56 242
31 123 35 149 24 162 -15 18 -36 19 -68 4z"/>
<path d="M29260 18464 c-72 -12 -182 -26 -332 -43 -93 -10 -174 -24 -183 -31
-19 -16 -20 -64 -1 -79 11 -9 29 -8 77 4 35 8 111 19 169 25 58 5 155 16 215
25 61 8 137 14 171 15 33 0 65 5 72 12 16 16 15 43 -2 57 -14 12 -144 22 -186
15z"/>
<path d="M24740 18449 c-113 -13 -223 -58 -307 -125 -42 -34 -148 -165 -195
-240 -72 -114 -102 -327 -63 -444 43 -130 81 -178 185 -232 l65 -33 157 2
c176 3 208 8 328 54 70 27 94 42 146 94 66 67 121 165 144 260 10 37 20 55 43
70 43 28 60 88 53 190 -2 44 -12 102 -21 128 -24 68 -129 172 -227 226 -69 37
-88 43 -165 49 -49 4 -113 4 -143 1z m200 -93 c171 -86 223 -139 259 -262 21
-73 27 -107 11 -66 -5 12 -17 22 -26 22 -25 0 -54 -29 -54 -54 0 -43 -15 -51
-97 -52 -43 -1 -103 -5 -134 -9 l-56 -7 -7 43 c-4 24 -9 109 -11 189 -4 142
-5 145 -30 165 -24 18 -28 18 -53 4 -26 -15 -27 -17 -25 -105 0 -49 8 -133 16
-187 19 -128 19 -128 -109 -138 -193 -15 -277 -37 -282 -75 -6 -44 19 -49 146
-30 64 10 136 24 160 32 23 8 56 14 73 14 l31 0 -6 -176 c-4 -115 -10 -182
-18 -191 -10 -12 -38 -14 -147 -11 -129 3 -139 5 -191 33 -69 38 -105 91 -125
185 -20 96 -19 128 9 245 30 121 57 172 142 264 134 145 233 192 394 188 67
-2 105 -8 130 -21z m176 -481 c8 -19 -13 -106 -39 -165 -41 -92 -125 -180
-197 -205 -69 -24 -69 -23 -54 48 8 34 17 115 21 180 3 65 9 120 13 122 4 2
38 7 76 10 38 3 87 9 109 14 59 13 65 12 71 -4z"/>
<path d="M24310 18332 c-22 -10 -127 -80 -195 -131 -99 -73 -201 -168 -255
-236 -29 -36 -57 -65 -64 -65 -7 0 -32 35 -56 78 -133 236 -184 302 -233 302
-25 0 -47 -17 -47 -36 0 -6 26 -43 58 -81 32 -38 82 -109 111 -158 30 -50 67
-106 83 -125 15 -19 28 -40 28 -47 0 -7 -15 -34 -34 -60 -45 -64 -83 -141 -91
-186 -8 -42 13 -77 46 -77 24 0 59 47 59 79 0 34 36 140 56 166 15 19 17 19
57 -30 23 -27 68 -77 102 -110 33 -33 89 -93 124 -133 35 -39 71 -72 80 -72
21 0 41 19 41 38 0 24 -88 128 -210 249 -77 76 -120 125 -120 139 0 36 277
297 414 390 17 12 46 35 65 53 27 26 31 34 21 46 -14 16 -18 17 -40 7z"/>
<path d="M25566 18244 c-33 -34 -33 -51 4 -101 74 -100 225 -175 318 -157 31
6 47 14 47 24 0 15 -22 28 -129 76 -71 32 -119 73 -136 116 -29 72 -60 85
-104 42z"/>
<path d="M21805 18218 c-28 -25 -86 -185 -121 -333 -10 -42 -24 -79 -31 -82
-7 -3 -50 25 -95 61 -123 97 -143 117 -169 164 -35 64 -89 55 -89 -16 0 -62
148 -192 299 -262 l53 -24 -7 -71 c-11 -113 -43 -303 -67 -397 -21 -82 -21
-89 -6 -104 20 -20 41 -14 62 18 21 33 63 238 81 399 8 75 21 171 29 212 20
102 80 279 116 343 35 60 37 75 12 97 -25 22 -36 21 -67 -5z"/>
<path d="M20096 18204 c-27 -27 -18 -51 42 -112 143 -147 252 -264 252 -271 0
-5 -30 -44 -66 -87 -76 -90 -134 -201 -134 -255 0 -57 43 -84 92 -58 18 9 19
17 14 62 -6 47 -4 57 26 107 44 73 117 170 127 170 4 0 48 -40 97 -88 144
-141 261 -206 272 -149 5 24 -11 42 -83 90 -146 98 -235 171 -235 191 -1 14
55 75 171 187 141 137 170 170 167 190 -6 44 -39 34 -118 -34 -41 -35 -120
-112 -176 -170 -56 -59 -106 -107 -111 -107 -5 0 -36 37 -68 83 -90 126 -194
247 -222 258 -31 12 -29 12 -47 -7z"/>
<path d="M28997 18195 c-94 -11 -109 -21 -105 -65 3 -24 6 -25 63 -23 185 5
259 5 342 2 79 -3 94 -1 112 15 22 20 28 51 11 61 -6 4 -79 9 -163 11 -84 3
-156 6 -162 8 -5 1 -50 -3 -98 -9z"/>
<path d="M21019 18159 c-38 -41 -49 -85 -49 -207 l0 -103 -37 7 c-21 4 -46 11
-55 15 -55 29 -110 -21 -78 -71 6 -10 36 -16 96 -21 52 -4 90 -12 94 -19 5 -7
13 -45 19 -84 6 -39 18 -96 28 -126 15 -47 22 -55 45 -58 20 -2 28 2 33 18 7
22 -9 103 -32 157 -7 18 -13 48 -13 67 0 39 -4 37 104 56 65 11 86 23 86 50 0
34 -27 45 -78 32 -90 -22 -119 -24 -128 -11 -4 7 -7 44 -6 82 1 55 7 82 32
134 30 61 30 66 15 89 -21 32 -41 30 -76 -7z"/>
<path d="M17534 18078 c-69 -49 -154 -196 -176 -304 -18 -91 -25 -89 -137 27
-99 103 -125 144 -153 239 -10 35 -18 46 -36 48 -61 9 -68 -59 -18 -164 43
-90 126 -179 226 -244 72 -46 80 -54 80 -82 0 -68 -32 -235 -67 -356 -20 -67
-22 -86 -12 -98 20 -25 52 -12 76 31 31 56 71 215 79 312 4 45 10 86 13 92 4
6 29 15 55 20 81 15 83 56 3 56 -41 0 -42 1 -39 33 3 46 39 148 73 208 27 49
99 124 117 124 5 0 15 11 22 25 28 52 -46 76 -106 33z"/>
<path d="M15797 18072 c-24 -26 -22 -40 23 -128 71 -142 193 -275 318 -349 17
-11 32 -26 32 -35 0 -9 -25 -40 -56 -70 -33 -33 -68 -80 -85 -115 -50 -103
-33 -195 35 -195 47 0 74 53 41 80 -20 17 -19 46 5 94 26 54 117 166 135 166
12 0 93 -66 263 -212 58 -50 81 -58 102 -33 17 21 6 45 -43 92 -38 36 -175
143 -237 184 -32 21 -23 34 92 121 53 40 127 99 165 130 37 32 103 85 145 118
74 57 99 94 83 119 -15 25 -31 15 -210 -124 -129 -100 -169 -131 -195 -150
-16 -12 -58 -49 -94 -83 -37 -34 -70 -62 -74 -62 -24 0 -164 112 -223 179 -76
87 -107 136 -129 210 -12 36 -26 69 -33 73 -20 13 -43 9 -60 -10z"/>
<path d="M4060 17273 c-107 -12 -148 -26 -277 -95 -206 -112 -273 -181 -273
-285 0 -147 156 -293 346 -323 270 -43 554 89 670 312 47 91 20 198 -67 268
-22 17 -46 46 -53 65 -17 40 -23 42 -166 50 -58 4 -114 8 -125 9 -11 2 -36 1
-55 -1z m207 -108 c119 -35 201 -125 188 -205 -8 -50 -74 -149 -123 -188 -164
-130 -447 -161 -606 -68 -57 33 -115 117 -123 177 -8 58 16 98 89 149 167 118
428 179 575 135z"/>
<path d="M1775 17250 c-75 -12 -135 -34 -205 -75 -30 -18 -64 -35 -76 -39 -53
-16 -111 -126 -134 -256 -17 -93 -7 -139 41 -194 63 -72 121 -89 299 -90 121
-1 159 3 227 21 173 48 324 137 365 216 27 51 28 138 3 191 -76 159 -304 259
-520 226z m189 -85 c124 -26 228 -109 257 -204 17 -59 -14 -120 -83 -164 -112
-71 -236 -106 -394 -114 -154 -7 -210 5 -266 58 -39 37 -40 40 -36 92 2 31 18
82 36 121 82 176 269 257 486 211z"/>
<path d="M7400 17180 c-68 -12 -179 -57 -233 -93 -54 -36 -113 -118 -133 -184
-36 -119 -22 -280 35 -397 77 -157 286 -278 459 -263 186 15 311 121 391 327
74 191 38 329 -109 419 -42 26 -50 36 -50 60 0 39 -39 84 -96 112 -51 24 -184
34 -264 19z m228 -80 c23 -10 42 -23 42 -28 0 -5 -55 -8 -122 -8 -112 1 -127
-1 -173 -24 -50 -25 -69 -55 -45 -70 7 -4 38 1 68 11 86 29 188 26 291 -11 94
-33 108 -43 151 -110 35 -55 40 -119 15 -213 -70 -270 -297 -392 -519 -280
-168 85 -230 193 -230 398 0 89 3 107 28 157 36 77 98 129 188 161 95 34 100
35 188 36 54 0 87 -5 118 -19z"/>
<path d="M28723 16998 c-5 -7 -13 -21 -16 -31 -12 -34 -37 -212 -46 -342 -6
-71 -20 -179 -31 -240 -58 -315 -58 -316 -34 -335 35 -30 50 13 105 280 78
385 91 498 71 630 -7 46 -29 63 -49 38z"/>
<path d="M11512 16990 c-77 -18 -122 -41 -128 -67 -4 -16 -1 -30 9 -41 15 -14
23 -14 90 8 99 30 206 26 290 -13 71 -32 186 -140 212 -198 17 -36 17 -47 6
-102 -16 -78 -30 -105 -80 -150 -115 -104 -518 -130 -813 -52 -110 28 -179 71
-199 122 -14 38 -12 48 29 100 56 70 66 91 52 108 -25 30 -120 -30 -146 -92
-28 -66 -9 -180 39 -231 64 -69 267 -127 506 -147 98 -7 317 12 411 37 137 36
195 80 240 181 31 70 36 134 15 219 -26 107 -43 144 -90 187 -51 47 -189 115
-263 130 -60 12 -131 13 -180 1z"/>
<path d="M25065 16906 c-103 -29 -273 -94 -328 -125 -157 -90 -319 -323 -303
-437 17 -128 112 -226 286 -295 24 -10 78 -14 175 -14 162 1 262 22 380 79 86
43 136 90 172 164 27 55 28 63 28 207 0 115 -4 163 -18 205 -22 70 -79 155
-116 174 -92 48 -197 64 -276 42z m230 -96 c53 -37 59 -44 81 -110 14 -43 18
-85 18 -190 0 -124 -2 -139 -26 -191 -28 -61 -87 -116 -152 -143 -146 -61
-377 -78 -489 -38 -171 62 -234 154 -192 281 20 62 119 196 185 251 41 34 51
39 83 33 30 -4 45 0 85 25 99 64 181 79 208 37 31 -47 84 -21 84 40 0 54 41
56 115 5z"/>
<path d="M11580 16884 c-11 -12 -10 -18 3 -31 8 -9 23 -13 31 -10 21 8 21 43
0 51 -21 8 -20 8 -34 -10z"/>
<path d="M16702 16757 c-29 -31 -28 -51 4 -75 l27 -19 -36 -224 c-48 -297 -69
-500 -65 -634 3 -104 4 -110 25 -113 33 -5 40 19 52 168 7 74 16 173 21 220 6
47 15 128 21 180 6 52 19 138 29 190 10 52 21 137 25 188 7 88 6 95 -16 118
-28 30 -59 31 -87 1z"/>
<path d="M11084 16755 c-10 -24 12 -42 34 -29 24 16 21 38 -6 42 -13 2 -25 -3
-28 -13z"/>
<path d="M21037 16732 c-43 -45 -99 -230 -126 -412 -6 -41 -16 -104 -21 -140
-18 -118 -10 -180 22 -180 22 0 41 63 63 211 31 208 56 326 90 414 26 69 30
125 10 132 -6 2 -23 -10 -38 -25z"/>
<path d="M3979 16174 c-20 -24 -35 -317 -29 -569 4 -184 7 -209 23 -219 12 -8
22 -8 35 0 15 10 18 45 29 325 6 173 16 343 22 378 7 43 7 70 0 82 -12 24 -61
25 -80 3z"/>
<path d="M1874 16133 c-38 -7 -106 -16 -151 -21 -92 -10 -131 -32 -182 -103
-61 -83 -68 -214 -17 -288 101 -145 516 -162 772 -33 114 57 161 118 148 188
-9 48 -95 132 -178 172 -165 81 -280 106 -392 85z m224 -98 c146 -52 256 -138
250 -193 -8 -72 -233 -152 -426 -152 -116 0 -206 15 -269 46 -43 21 -54 32
-68 68 -14 35 -15 51 -6 84 13 48 26 63 87 98 38 23 49 25 70 15 41 -18 64
-13 82 19 9 16 24 32 32 34 30 10 206 -4 248 -19z"/>
<path d="M7430 15925 c-25 -7 -56 -14 -70 -14 -14 -1 -59 -19 -100 -39 -101
-51 -140 -101 -140 -178 0 -30 6 -68 14 -83 21 -39 108 -104 196 -144 117 -54
136 -61 290 -115 164 -57 277 -82 371 -82 145 0 200 98 135 243 -65 148 -262
336 -417 398 -67 27 -212 34 -279 14z m272 -82 c24 -9 59 -28 78 -42 19 -14
48 -33 63 -41 74 -40 185 -184 222 -289 21 -60 19 -78 -10 -106 -20 -21 -34
-25 -82 -25 -143 0 -562 143 -710 242 -68 46 -89 103 -57 156 37 62 159 126
195 104 24 -15 55 -14 99 2 50 19 152 19 202 -1z"/>
<path d="M11497 15818 c-8 -13 -22 -81 -31 -153 -9 -71 -21 -146 -26 -165 -68
-250 -106 -463 -90 -505 19 -50 53 -27 64 45 4 25 23 108 42 184 19 77 41 171
49 210 21 97 50 369 42 389 -9 24 -34 21 -50 -5z"/>
<path d="M24756 15821 c-16 -18 -17 -30 -7 -128 6 -59 13 -153 16 -208 3 -55
10 -147 16 -205 11 -111 8 -161 -18 -328 -14 -94 -14 -105 0 -119 38 -39 68
13 91 160 20 121 20 172 1 427 -28 368 -31 392 -51 407 -23 17 -28 17 -48 -6z"/>
<path d="M20691 15745 c-124 -46 -258 -156 -234 -193 17 -27 27 -24 102 33 88
66 171 95 275 95 77 0 136 -21 170 -59 22 -24 12 -27 -44 -11 -24 7 -59 7
-110 0 -248 -34 -513 -199 -608 -378 -61 -113 -36 -211 72 -291 72 -54 153
-75 283 -74 127 1 222 22 331 75 201 98 292 261 261 467 -6 42 -14 81 -18 86
-4 6 -14 26 -21 45 -22 56 -67 121 -104 152 -98 81 -228 100 -355 53z m287
-243 c6 -58 51 -51 78 13 l12 29 16 -38 c28 -67 39 -168 26 -233 -15 -70 -21
-83 -72 -150 -48 -62 -114 -107 -206 -138 -108 -37 -205 -48 -307 -35 -169 21
-254 97 -224 202 14 52 89 150 151 196 153 116 397 211 493 192 25 -5 31 -11
33 -38z"/>
<path d="M20873 15463 c-18 -7 -16 -43 2 -43 18 0 31 28 19 39 -5 5 -15 6 -21
4z"/>
<path d="M28454 15599 c-81 -25 -151 -74 -188 -132 -17 -26 -52 -80 -78 -120
-121 -186 -139 -333 -50 -415 69 -64 106 -77 212 -77 116 1 199 28 311 101
127 83 223 198 265 318 33 92 3 180 -91 264 -45 40 -70 53 -120 66 -85 21
-186 19 -261 -5z m221 -59 c99 -38 175 -123 175 -198 0 -57 -55 -163 -115
-225 -54 -54 -166 -123 -243 -150 -84 -28 -190 -34 -233 -12 -91 46 -112 97
-80 191 71 211 251 351 372 289 35 -19 69 -6 69 27 0 23 -26 58 -44 58 -6 0
-29 5 -50 11 -29 8 -35 13 -25 19 18 12 135 5 174 -10z"/>
<path d="M16565 15518 c-24 -22 -26 -29 -30 -148 -7 -186 -13 -229 -52 -412
-19 -92 -33 -174 -29 -183 16 -41 68 -20 79 33 4 15 20 86 36 157 52 230 85
531 61 560 -17 21 -34 19 -65 -7z"/>
<path d="M4018 15086 c-104 -38 -174 -107 -195 -192 -6 -23 -29 -66 -51 -96
-53 -69 -72 -124 -72 -206 0 -194 208 -343 415 -298 73 16 183 70 252 125 122
96 155 300 83 496 -28 73 -108 158 -160 169 -75 14 -235 16 -272 2z m263 -97
c24 -13 51 -38 61 -54 33 -57 51 -153 46 -250 -7 -144 -48 -200 -195 -271 -66
-32 -87 -37 -148 -38 -58 0 -81 5 -127 27 -81 40 -138 123 -138 201 0 87 115
252 230 328 19 13 37 33 39 43 7 42 21 48 108 42 60 -3 93 -11 124 -28z"/>
<path d="M1930 15002 c-30 -24 -39 -82 -39 -262 1 -236 12 -377 32 -397 13
-14 21 -15 35 -7 15 10 18 39 23 265 3 159 11 278 19 317 10 45 11 68 4 80
-16 24 -47 26 -74 4z"/>
<path d="M7685 14858 c-27 -5 -144 -13 -260 -17 -234 -8 -301 -23 -391 -84
-114 -76 -117 -180 -10 -307 128 -152 413 -327 645 -395 177 -52 317 -24 411
82 81 93 133 243 133 388 1 104 -12 142 -69 205 -40 44 -81 69 -166 99 -112
39 -196 47 -293 29z m220 -75 c131 -48 161 -67 196 -121 26 -42 29 -54 29
-132 0 -186 -74 -341 -193 -402 -54 -27 -157 -29 -247 -3 -308 88 -660 350
-660 491 0 37 62 94 125 117 49 17 208 46 254 47 18 0 22 -4 16 -17 -31 -74
-5 -87 77 -36 58 36 61 36 106 25 31 -8 56 -23 74 -45 65 -77 67 -78 88 -67
34 18 25 56 -25 106 -25 24 -45 46 -45 49 0 18 146 9 205 -12z"/>
<path d="M11484 14382 c-32 -21 -49 -120 -74 -442 -16 -208 -18 -273 -8 -292
36 -72 71 69 103 407 8 94 20 194 25 224 13 72 13 77 -6 95 -17 18 -24 19 -40
8z"/>
<path d="M16675 14267 c-13 -21 -13 -35 5 -143 23 -135 27 -327 10 -424 -17
-103 -51 -261 -60 -284 -4 -12 -11 -44 -14 -72 -6 -40 -4 -53 9 -64 32 -27 54
16 100 200 54 210 68 302 68 447 -1 120 -27 304 -50 341 -17 28 -48 28 -68 -1z"/>
<path d="M24787 14178 c-10 -16 -15 -67 -16 -171 -3 -168 -11 -250 -40 -421
-28 -162 -45 -408 -36 -532 6 -84 10 -106 27 -121 19 -17 20 -17 39 6 17 21
19 41 19 195 0 181 8 276 40 471 11 66 24 217 29 335 9 184 8 218 -5 237 -18
29 -40 29 -57 1z"/>
<path d="M28390 14101 c-123 -18 -303 -161 -373 -298 -78 -149 -73 -386 10
-521 50 -81 159 -144 289 -167 99 -17 172 -10 277 28 253 92 441 389 356 564
-25 52 -114 135 -181 169 -27 14 -85 30 -129 37 -68 10 -93 9 -161 -5 -96 -20
-206 -72 -220 -104 -23 -49 12 -69 60 -36 88 60 259 88 353 57 98 -33 172 -95
205 -173 19 -47 13 -86 -32 -180 -133 -277 -527 -374 -719 -177 -51 53 -72
110 -82 220 -12 143 37 266 147 375 83 81 139 110 212 110 87 0 136 51 90 93
-19 18 -28 18 -102 8z"/>
<path d="M4072 14012 c-25 -25 -49 -163 -66 -392 -9 -107 -23 -298 -33 -425
-10 -126 -18 -277 -18 -335 0 -90 2 -105 17 -108 29 -6 48 40 58 144 5 54 16
164 25 244 8 80 20 212 25 293 14 213 38 394 61 458 23 63 18 101 -14 124 -27
19 -33 19 -55 -3z"/>
<path d="M20520 13963 c-196 -40 -293 -86 -391 -187 -31 -32 -72 -88 -91 -124
-41 -82 -45 -171 -11 -237 73 -140 272 -223 508 -212 206 9 323 66 388 191 30
58 32 67 32 171 0 99 -3 118 -30 185 -23 59 -43 88 -90 135 -86 87 -170 108
-315 78z m172 -113 c15 -7 35 -24 43 -37 11 -17 25 -23 50 -23 44 0 58 -25 80
-144 17 -88 13 -137 -14 -208 -17 -45 -74 -100 -131 -127 -52 -25 -63 -26
-220 -26 -162 1 -166 1 -247 34 -121 48 -169 112 -160 213 12 137 160 276 343
323 69 17 215 14 256 -5z"/>
<path d="M7639 13843 c-50 -53 -79 -98 -79 -122 0 -27 34 -45 59 -31 11 5 22
6 25 2 15 -24 37 -264 42 -452 7 -235 -13 -556 -43 -708 -15 -77 -15 -84 1
-100 25 -25 39 -2 64 103 49 203 66 433 59 782 -7 339 -21 520 -43 545 -25 27
-46 22 -85 -19z"/>
<path d="M1989 13774 l-24 -26 -3 -306 c-3 -317 2 -362 37 -362 34 0 41 22 41
124 0 151 18 432 32 497 11 53 10 60 -7 79 -24 27 -47 25 -76 -6z"/>
<path d="M11516 13198 c-34 -54 -52 -256 -36 -403 6 -55 10 -217 9 -360 -4
-538 1 -600 46 -600 19 0 20 10 28 290 4 160 5 427 2 595 -4 254 -3 315 10
363 18 70 19 109 3 125 -19 19 -46 14 -62 -10z"/>
<path d="M16659 12577 c-97 -36 -174 -113 -237 -234 -124 -240 -105 -479 50
-630 156 -151 394 -207 624 -147 127 32 222 99 289 202 84 131 122 263 113
396 -8 106 -53 175 -173 266 -145 110 -268 150 -485 156 -107 3 -154 1 -181
-9z m359 -93 c100 -26 241 -102 303 -164 95 -94 114 -160 85 -292 -37 -167
-125 -292 -249 -353 -246 -121 -636 -5 -712 213 -25 73 -30 176 -11 252 39
155 167 342 242 352 80 11 289 6 342 -8z"/>
<path d="M20600 12237 c-25 -13 -41 -56 -21 -58 6 -1 50 -2 99 -3 79 -1 94 -4
156 -36 83 -42 171 -120 232 -206 86 -121 224 -455 210 -510 -19 -74 -175
-162 -401 -225 -63 -18 -107 -23 -210 -23 -128 -1 -131 0 -203 33 -101 48
-140 96 -148 182 -21 218 170 480 452 622 77 39 97 57 92 84 -7 37 -75 20
-216 -56 -135 -73 -327 -292 -380 -434 -65 -173 -22 -341 108 -423 129 -81
284 -103 467 -65 274 57 489 173 522 281 16 54 11 82 -43 220 -135 351 -286
532 -505 607 -74 25 -172 30 -211 10z"/>
<path d="M24585 12154 c-248 -38 -392 -103 -550 -247 -109 -99 -184 -235 -185
-333 0 -114 55 -205 190 -315 158 -128 340 -193 537 -192 120 1 208 17 368 65
256 77 414 221 465 425 27 104 -15 251 -99 349 -60 69 -176 154 -213 154 -36
0 -36 -22 0 -45 29 -19 29 -19 115 -96 107 -97 147 -229 113 -374 -9 -38 -27
-88 -40 -110 -25 -42 -142 -133 -225 -175 -174 -87 -469 -133 -629 -96 -280
64 -492 236 -492 401 0 144 157 328 360 424 33 16 105 41 160 56 88 25 104 27
137 16 31 -10 51 -9 111 3 71 15 75 15 123 -5 67 -29 91 -60 83 -110 -10 -59
24 -89 60 -53 19 18 21 75 4 121 -10 28 -10 36 2 43 8 5 21 5 32 -1 21 -11 38
-4 38 15 0 20 -116 58 -205 67 -122 13 -227 18 -260 13z"/>
<path d="M28360 12139 c-9 -15 -10 -49 -6 -108 5 -63 3 -107 -9 -165 -14 -66
-16 -142 -13 -509 3 -445 6 -477 44 -477 8 0 18 10 23 23 5 12 12 216 16 452
5 310 10 449 21 498 17 85 18 243 1 277 -17 34 -61 39 -77 9z"/>
</g>
</svg>
