<?xml version="1.0" standalone="no"?>
<!DOCTYPE svg PUBLIC "-//W3C//DTD SVG 20010904//EN"
 "http://www.w3.org/TR/2001/REC-SVG-20010904/DTD/svg10.dtd">
<svg version="1.0" xmlns="http://www.w3.org/2000/svg"
 width="3264.000000pt" height="2448.000000pt" viewBox="0 0 3264.000000 2448.000000"
 preserveAspectRatio="xMidYMid meet">
<metadata>
Created by potrace 1.12, written by Peter Selinger 2001-2015
</metadata>
<g transform="translate(0.000000,2448.000000) scale(0.100000,-0.100000)"
fill="#000000" stroke="none">
<path d="M4939 23597 c-8 -17 -6 -41 6 -92 13 -53 18 -133 21 -325 5 -304 10
-375 31 -396 14 -14 17 -14 32 0 14 14 16 63 16 399 0 350 -2 385 -18 410 -23
36 -72 38 -88 4z"/>
<path d="M2600 23445 c-11 -13 -11 -25 -1 -63 27 -103 32 -158 41 -432 9 -282
35 -514 62 -547 23 -28 82 -3 63 26 -2 5 -12 62 -20 127 -17 119 -21 214 -25
550 -2 180 -17 290 -44 326 -19 25 -60 32 -76 13z"/>
<path d="M9273 23379 c-27 -10 -25 0 -27 -195 -1 -168 -2 -171 -69 -203 -96
-47 -160 -127 -137 -171 17 -32 42 -23 92 32 34 39 49 50 58 42 8 -8 6 -26 -8
-70 -31 -97 -54 -200 -50 -225 2 -16 10 -24 23 -24 30 0 55 60 116 285 30 110
52 133 140 149 95 16 136 14 158 -8 44 -44 71 -207 60 -371 -7 -107 -5 -116
23 -131 16 -9 25 -7 41 10 18 18 22 36 25 119 5 117 -11 278 -34 345 -38 111
-120 153 -239 122 -33 -8 -72 -15 -88 -15 -29 0 -29 1 -23 38 15 82 19 218 7
240 -16 30 -42 41 -68 31z"/>
<path d="M8157 23363 c-13 -15 -15 -43 -12 -168 3 -131 -2 -199 -20 -280 -2
-11 -28 -45 -57 -76 -91 -96 -125 -239 -58 -239 15 0 22 -8 27 -30 12 -62 44
-46 67 35 31 107 67 201 84 216 9 9 49 26 87 39 39 12 86 28 105 35 55 21 130
36 141 29 6 -3 -19 -34 -54 -67 -73 -71 -94 -105 -108 -182 -14 -74 1 -124 48
-165 33 -30 41 -32 85 -27 57 7 93 33 158 114 25 31 49 56 53 57 5 1 15 -17
23 -39 19 -57 58 -88 98 -80 51 11 76 34 103 92 23 49 24 57 10 70 -13 13 -20
10 -63 -31 -73 -69 -84 -64 -84 36 0 45 5 144 12 220 9 112 9 140 -2 153 -21
26 -53 14 -73 -27 l-19 -38 -101 0 c-109 -1 -164 -11 -295 -56 -94 -32 -106
-27 -90 35 18 73 29 188 26 269 -3 74 -6 86 -27 103 -29 24 -43 24 -64 2z
m543 -483 c0 -70 -93 -232 -166 -289 -80 -63 -122 16 -70 131 28 62 68 103
150 152 73 44 86 45 86 6z"/>
<path d="M3200 23288 c-22 -36 -69 -173 -96 -280 -28 -114 -38 -90 -58 132
-13 141 -23 170 -57 170 -27 0 -50 -41 -56 -102 -5 -47 -2 -57 19 -83 21 -25
28 -51 42 -150 9 -66 20 -184 25 -263 9 -158 17 -178 64 -167 14 4 29 14 31
23 3 10 12 97 21 194 15 172 31 269 57 353 17 50 36 85 48 85 14 0 29 -67 45
-193 22 -174 45 -288 67 -340 61 -141 156 -57 238 209 46 146 86 234 107 234
33 0 60 -115 78 -340 3 -41 11 -92 16 -112 17 -67 97 -100 139 -58 35 35 21
65 -35 72 l-30 3 -7 114 c-16 260 -76 442 -146 441 -56 -1 -133 -132 -202
-345 -30 -92 -70 -165 -91 -165 -14 0 -28 67 -44 210 -21 179 -51 329 -74 360
-11 16 -30 26 -49 28 -27 3 -35 -2 -52 -30z"/>
<path d="M9680 23270 c-24 -24 -27 -82 -4 -101 42 -35 104 62 67 104 -21 22
-38 22 -63 -3z"/>
<path d="M5535 23230 c-187 -27 -319 -209 -317 -437 1 -129 43 -200 139 -232
110 -36 287 52 219 109 -12 9 -24 7 -58 -8 -66 -29 -95 -34 -139 -22 -44 12
-79 56 -79 101 0 25 3 26 84 36 108 13 198 54 272 125 103 97 116 173 47 266
-41 54 -91 73 -168 62z m89 -91 c29 -14 51 -59 43 -92 -19 -72 -194 -180 -307
-189 l-45 -3 2 42 c2 56 55 155 102 193 70 55 150 74 205 49z"/>
<path d="M4420 23211 c-75 -31 -132 -110 -187 -263 -26 -70 -27 -81 -27 -283
-1 -202 9 -334 40 -513 19 -113 35 -142 81 -142 31 0 35 26 17 105 -13 54 -17
141 -21 375 -2 169 -9 325 -15 350 -22 92 -2 170 61 242 92 105 221 73 282
-69 27 -63 25 -133 -7 -196 -41 -85 -72 -114 -134 -128 -46 -10 -91 6 -113 41
-17 29 -37 25 -37 -7 0 -35 31 -87 64 -108 68 -45 154 -22 233 62 100 105 125
242 70 373 -63 148 -183 211 -307 161z"/>
<path d="M9978 23086 c-55 -13 -90 -42 -86 -70 3 -18 10 -21 53 -21 l50 0 -3
-53 c-1 -29 -7 -64 -12 -78 -15 -38 -12 -170 4 -208 36 -86 140 -88 246 -5 95
75 125 190 76 294 -12 28 -38 62 -57 76 -30 23 -192 81 -215 78 -5 -1 -30 -6
-56 -13z m187 -109 c47 -27 85 -79 85 -119 0 -60 -65 -149 -127 -175 -64 -26
-75 10 -53 185 12 95 24 132 42 132 7 0 31 -10 53 -23z"/>
<path d="M7568 23063 c-23 -26 -64 -111 -81 -168 -13 -43 -63 -163 -73 -174
-2 -2 -10 -1 -17 2 -11 4 -13 14 -7 44 5 21 13 60 18 88 13 64 -6 118 -39 113
-30 -4 -34 -17 -54 -143 -35 -230 -36 -247 -20 -272 17 -25 44 -29 78 -11 42
22 96 116 139 243 34 101 57 147 73 142 18 -6 17 -71 -4 -223 -27 -189 -27
-228 -1 -254 43 -43 101 -15 118 60 12 50 3 71 -28 63 -25 -7 -25 1 -5 133 18
116 21 294 6 323 -28 52 -74 67 -103 34z"/>
<path d="M10529 23028 c-7 -13 -9 -44 -5 -82 3 -39 0 -87 -9 -131 -19 -89 -19
-91 5 -115 28 -28 50 -15 134 83 95 109 171 169 210 165 26 -3 32 -9 43 -47
11 -37 10 -65 -4 -172 -18 -136 -14 -159 28 -159 27 0 47 46 65 152 26 151 9
263 -48 302 -29 21 -52 20 -129 -4 -56 -17 -72 -29 -126 -87 -34 -38 -65 -64
-69 -60 -5 4 -9 39 -9 76 -1 42 -6 75 -14 85 -19 23 -58 20 -72 -6z"/>
<path d="M6383 23002 c-21 -20 -62 -82 -91 -137 -54 -103 -106 -175 -117 -163
-4 3 -7 60 -8 126 -2 112 -4 122 -26 146 -14 14 -34 26 -47 26 -28 0 -67 -51
-89 -116 -23 -69 -78 -177 -92 -182 -17 -5 -17 27 3 175 18 131 14 153 -27
153 -32 0 -47 -40 -54 -145 -10 -142 -12 -161 -25 -252 -14 -92 -6 -119 36
-129 49 -12 108 68 153 210 25 78 55 141 72 152 24 14 30 -24 24 -149 -6 -114
-5 -131 11 -148 26 -29 56 -23 95 19 39 40 52 62 124 197 62 117 68 125 82
125 18 0 16 -30 -12 -163 -31 -148 -31 -157 4 -191 24 -24 32 -26 50 -17 24
13 26 23 10 53 -8 15 -6 41 10 106 32 138 44 245 31 291 -17 64 -62 69 -117
13z"/>
<path d="M6935 23030 c-86 -21 -170 -77 -209 -139 -34 -54 -56 -141 -63 -249
-7 -111 3 -140 59 -187 30 -25 37 -27 103 -23 79 5 147 33 191 79 29 30 27 59
-4 59 -11 0 -49 -13 -85 -30 -71 -32 -146 -40 -165 -17 -6 6 -13 28 -17 49 -8
42 3 51 72 62 104 16 234 99 277 177 34 61 34 112 0 156 -48 63 -91 80 -159
63z m87 -97 c26 -24 22 -58 -12 -97 -65 -73 -231 -157 -250 -126 -19 30 34
144 84 181 77 58 144 73 178 42z"/>
<path d="M9020 21854 c-74 -2 -261 -8 -415 -14 -268 -10 -355 -14 -565 -25
-52 -3 -158 -8 -235 -10 -354 -13 -1097 -50 -1490 -75 -170 -11 -357 -22 -415
-25 -746 -39 -1630 -88 -1975 -110 -44 -2 -199 -9 -345 -15 -146 -6 -348 -15
-450 -20 -474 -26 -559 -30 -765 -30 -234 0 -267 -6 -273 -47 -2 -12 2 -32 8
-44 12 -21 16 -21 94 -15 96 8 183 13 411 21 94 3 253 11 355 16 102 5 239 12
305 15 132 5 802 42 905 49 36 3 94 7 130 10 36 3 106 7 155 10 199 10 659 36
800 45 83 5 197 12 255 15 155 7 780 43 970 55 91 6 253 15 360 20 107 6 233
13 280 15 330 19 823 42 885 43 46 0 601 24 740 32 211 11 1972 5 2435 -9 212
-7 447 -19 523 -27 107 -12 142 -12 153 -3 20 16 17 32 -8 56 -36 32 -129 39
-743 54 -418 10 -1797 18 -2085 13z"/>
<path d="M27789 20076 c-2 -2 -137 -9 -299 -15 -162 -6 -338 -16 -390 -21
-153 -16 -574 -44 -815 -55 -93 -4 -426 -11 -985 -20 -179 -4 -442 -10 -585
-15 -376 -14 -667 -19 -1410 -25 -611 -5 -1412 -19 -1720 -30 -71 -2 -368 -7
-660 -10 -291 -2 -620 -9 -730 -15 -436 -21 -640 -30 -880 -35 -137 -4 -256
-8 -263 -11 -19 -6 -1399 -19 -2017 -19 -291 0 -762 3 -1045 8 -283 4 -686 10
-895 13 -209 3 -445 9 -525 14 -80 5 -350 10 -600 9 -398 0 -605 -4 -1185 -24
-71 -3 -224 -11 -340 -20 -288 -21 -334 -24 -460 -36 -60 -5 -164 -14 -230
-19 -392 -30 -672 -52 -1010 -80 -66 -6 -232 -17 -370 -25 -239 -14 -330 -18
-705 -30 -91 -3 -196 -8 -235 -10 -292 -17 -386 -21 -710 -30 -235 -7 -744
-32 -810 -40 -22 -3 -119 -12 -215 -20 -430 -36 -546 -51 -679 -86 -93 -25
-128 -43 -137 -71 -18 -51 -5 -216 27 -351 17 -72 39 -170 49 -217 16 -78 51
-235 70 -320 4 -19 31 -145 59 -280 68 -326 95 -491 136 -835 8 -66 19 -149
25 -185 5 -36 19 -141 30 -235 11 -93 29 -240 40 -325 35 -277 41 -360 41
-659 0 -295 -3 -365 -21 -538 -23 -221 -33 -291 -46 -337 -8 -27 -14 -64 -14
-82 0 -56 9 -58 218 -41 103 8 313 16 467 17 154 1 303 3 330 5 28 2 169 11
315 19 166 10 321 25 414 41 82 14 232 32 333 42 157 14 201 15 306 5 67 -7
155 -21 196 -32 41 -11 104 -20 140 -20 l66 0 18 -44 c12 -29 32 -53 56 -69
l39 -26 0 -178 c1 -98 4 -221 8 -273 3 -52 0 -268 -7 -480 -7 -212 -12 -420
-10 -463 3 -90 -4 -103 -59 -112 -38 -6 -84 -40 -105 -78 -9 -16 -30 -19 -185
-22 -96 -2 -227 -8 -290 -14 -349 -33 -962 -42 -1424 -20 -238 11 -436 4 -586
-21 -618 -105 -516 -95 -1008 -91 -252 3 -287 -1 -302 -29 -8 -16 -4 -26 19
-52 33 -37 44 -38 266 -29 55 2 172 1 260 -4 147 -7 173 -6 320 18 643 104
744 114 1025 98 315 -18 946 -14 1255 8 149 11 356 23 460 27 l190 7 35 -54
c20 -32 48 -60 67 -69 36 -17 37 -20 24 -102 -12 -69 -26 -442 -26 -663 0
-161 13 -242 47 -288 23 -30 92 -24 188 18 326 142 675 217 1165 250 44 2 145
9 225 15 80 5 282 14 450 20 168 6 391 15 495 20 105 5 348 12 540 15 349 6
779 19 1100 34 222 11 1822 3 1990 -10 72 -5 209 -14 305 -19 96 -5 185 -12
196 -15 12 -4 32 -1 44 5 21 11 22 16 17 138 -5 136 -38 473 -63 637 -8 55
-21 149 -30 210 -8 60 -17 112 -19 115 -10 17 -35 379 -40 590 -3 129 -10 266
-16 303 -5 38 -7 72 -4 77 3 5 32 23 65 41 64 34 85 59 104 122 l12 41 444 2
c245 1 537 7 650 13 113 6 365 13 561 15 196 2 362 6 367 10 6 3 212 13 459
21 246 9 547 24 668 35 352 32 525 43 820 55 77 3 237 10 355 15 118 6 265 12
325 15 61 3 214 7 340 10 127 3 244 8 260 10 57 9 58 6 46 -192 -6 -98 -14
-266 -17 -373 -5 -150 -9 -198 -20 -210 -17 -17 -8 -17 -576 -23 -301 -3 -401
-7 -413 -17 -12 -10 -15 -42 -15 -179 0 -91 -7 -235 -15 -319 -8 -85 -17 -258
-19 -385 -3 -128 -8 -311 -12 -407 -7 -189 10 -755 28 -929 7 -61 12 -312 12
-594 1 -425 -1 -490 -14 -497 -8 -4 -71 -13 -138 -20 -126 -12 -160 -16 -312
-45 -194 -35 -317 -56 -399 -65 -231 -27 -393 -42 -571 -50 -195 -10 -371 -21
-615 -40 -71 -5 -238 -13 -370 -16 -132 -3 -361 -14 -510 -25 -148 -11 -346
-24 -440 -29 -93 -6 -253 -19 -355 -30 -339 -37 -490 -49 -683 -56 -245 -8
-500 -37 -857 -98 -251 -43 -331 -51 -357 -38 -18 10 -19 27 -20 323 -3 358 0
349 -84 349 -27 0 -111 -9 -186 -19 -191 -27 -602 -59 -1103 -86 -157 -9 -377
-23 -490 -31 -338 -26 -583 -30 -828 -16 -184 11 -226 11 -239 1 -18 -16 -15
-68 17 -259 11 -69 27 -165 35 -215 45 -286 48 -930 4 -1053 -26 -75 14 -107
98 -77 38 13 105 19 318 25 283 9 603 28 617 36 4 3 367 6 805 7 676 3 802 5
826 17 l28 15 5 169 c3 124 8 176 19 199 22 44 19 66 -11 73 -47 12 -55 -10
-76 -198 -11 -95 -22 -176 -26 -180 -11 -11 -366 -19 -722 -16 -582 5 -811 2
-965 -10 -177 -15 -817 -43 -823 -37 -3 2 1 66 8 142 21 222 9 663 -24 883
-14 96 -30 198 -36 225 -6 28 -14 79 -17 114 l-6 64 144 -7 c200 -10 456 -8
634 4 365 24 629 41 740 45 283 13 985 56 1040 65 33 5 90 15 127 21 36 6 73
9 81 6 21 -8 24 -535 2 -563 -18 -24 -19 -48 -2 -62 17 -15 16 -458 -3 -619
-11 -100 -11 -124 -1 -137 30 -36 74 -9 74 47 0 17 7 93 14 167 9 84 14 204
11 315 l-3 180 110 7 c61 3 137 12 170 18 308 58 646 100 880 111 196 9 501
35 830 70 44 4 152 13 240 19 196 13 534 38 595 45 25 2 160 7 300 10 140 4
314 11 385 16 72 5 240 16 375 24 135 8 324 19 420 25 283 17 516 42 720 77
287 49 378 62 485 72 189 18 207 26 204 96 0 11 3 180 7 375 5 282 3 408 -10
615 -22 352 -34 710 -31 945 5 391 16 699 31 857 9 89 16 222 17 295 l2 133
290 1 c160 1 335 6 390 12 55 6 131 12 168 12 l69 0 -7 -117 c-6 -104 -10
-121 -31 -146 -29 -35 -30 -41 -4 -67 18 -18 19 -32 17 -184 -2 -154 0 -167
19 -193 20 -26 26 -28 85 -27 35 0 107 10 159 22 78 18 127 22 275 22 99 0
284 4 410 10 127 5 484 12 795 15 311 3 646 7 745 10 99 2 277 7 395 10 118 3
278 8 355 10 77 3 367 7 645 10 309 3 508 9 514 15 7 7 6 30 -2 68 -37 165
-96 605 -117 861 -8 103 -19 211 -25 240 -17 92 -18 91 46 91 63 0 72 7 104
76 l18 42 84 6 c46 4 106 11 133 16 87 16 366 34 722 45 95 3 239 14 320 25
81 10 246 22 366 26 144 5 220 11 222 18 10 31 18 660 14 1196 -7 1098 -3
1560 17 1870 2 36 6 189 9 340 3 151 9 327 15 390 5 63 13 153 17 200 4 47 7
213 8 370 1 226 5 308 20 395 10 61 19 158 19 216 1 92 -2 110 -18 128 -46 50
-188 111 -321 137 -63 13 -355 20 -366 10z m357 -107 c114 -23 218 -62 253
-93 22 -20 23 -26 18 -111 -3 -49 -15 -142 -26 -205 -17 -98 -19 -160 -19
-421 0 -169 -2 -311 -5 -316 -9 -14 -27 -375 -32 -643 -2 -140 -11 -401 -19
-580 -9 -179 -15 -424 -15 -545 0 -284 7 -1105 13 -1399 2 -126 0 -243 -5
-260 -8 -25 -10 -217 -6 -440 1 -61 -14 -66 -167 -61 -125 4 -208 -2 -411 -25
-49 -6 -202 -15 -340 -20 -352 -12 -565 -27 -713 -50 -161 -25 -177 -25 -215
2 -17 12 -56 27 -85 33 l-54 11 -3 320 c-2 221 -9 362 -20 459 -10 77 -17 194
-17 260 0 74 -4 125 -11 133 -6 8 -43 30 -81 49 -69 35 -73 35 -156 30 -47 -3
-143 -15 -215 -27 -121 -20 -151 -21 -440 -15 -379 8 -487 7 -775 -5 -124 -5
-342 -14 -485 -20 -143 -5 -332 -15 -420 -20 -484 -31 -1083 -39 -1367 -19
-267 19 -277 12 -235 -159 31 -122 40 -183 61 -407 29 -309 40 -525 28 -537
-8 -8 -27 -8 -72 2 -65 14 -163 12 -805 -15 -489 -21 -980 -51 -1285 -80 -220
-20 -303 -24 -670 -35 -179 -6 -383 -14 -452 -20 -70 -5 -257 -10 -415 -11
-158 -1 -405 -7 -548 -14 -143 -7 -443 -13 -667 -13 l-406 -1 -38 30 c-33 26
-46 30 -89 28 l-50 -3 3 35 c2 19 4 158 5 309 1 244 -15 540 -38 670 -2 14 -7
138 -10 275 -6 258 -27 486 -50 542 -9 21 -23 35 -40 39 -14 3 -98 -2 -188
-12 -118 -13 -234 -18 -427 -18 -236 0 -286 3 -455 28 -302 44 -415 45 -955 6
-74 -5 -202 -14 -285 -20 -82 -6 -175 -15 -205 -20 -30 -6 -202 -12 -382 -14
-180 -3 -331 -7 -335 -9 -5 -3 -93 -8 -198 -11 -278 -10 -687 -34 -865 -51
-273 -27 -507 -45 -724 -55 -116 -6 -238 -13 -271 -15 -505 -40 -1008 -40
-1168 0 -82 21 -96 19 -103 -10 -7 -30 -5 -43 35 -155 16 -47 37 -121 46 -165
15 -73 45 -361 59 -560 3 -44 11 -149 17 -232 6 -84 9 -159 6 -167 -3 -7 -28
-19 -55 -26 -41 -9 -67 -8 -148 5 -55 9 -124 23 -154 31 -139 37 -451 26 -775
-27 -222 -36 -567 -58 -1110 -71 -231 -5 -449 -10 -485 -11 l-65 -2 3 35 c2
19 8 42 13 51 10 20 36 232 49 414 13 184 13 589 -1 734 -22 242 -70 653 -119
1026 -16 127 -32 250 -35 275 -4 25 -10 72 -15 105 -6 33 -19 119 -30 190 -11
72 -27 160 -35 198 -37 168 -46 213 -80 377 -46 232 -58 284 -106 490 -47 206
-62 366 -36 389 44 36 519 97 1027 132 241 17 227 16 595 28 187 6 432 16 545
22 301 15 354 17 580 24 381 11 517 18 955 51 182 13 422 31 535 39 113 8 257
20 320 25 717 65 1095 90 1655 110 339 12 1048 12 1350 0 487 -19 909 -23
2345 -24 1804 -1 2263 7 3140 54 204 11 557 18 1295 25 292 3 575 8 630 10
207 11 422 14 1200 19 722 5 1266 13 1415 21 188 9 473 16 885 20 259 3 544 7
635 10 91 3 237 7 325 10 158 5 263 12 625 40 186 15 249 18 610 31 107 3 197
8 199 10 14 13 220 1 307 -17z m-12741 -3424 c261 -41 332 -48 565 -48 155 1
280 6 368 17 74 9 148 16 166 16 l32 0 12 -162 c6 -90 14 -248 17 -353 5 -167
21 -395 41 -580 4 -33 8 -177 9 -320 1 -143 5 -287 9 -320 l7 -60 -63 -30
c-48 -23 -64 -36 -66 -54 -6 -40 7 -70 33 -77 19 -5 34 -24 61 -82 32 -67 36
-83 31 -130 -16 -153 23 -842 58 -1037 18 -100 51 -364 65 -515 6 -63 17 -155
25 -205 19 -114 19 -159 1 -174 -16 -13 -80 -11 -381 14 -253 21 -1828 28
-2230 10 -165 -8 -563 -18 -885 -24 -322 -6 -614 -13 -650 -16 -36 -3 -213
-10 -395 -15 -1036 -33 -1501 -101 -1908 -280 -53 -23 -106 -40 -119 -38 l-23
3 0 260 c0 143 3 360 6 482 l5 221 41 45 c51 55 73 97 73 136 0 16 5 33 10 36
29 18 -12 81 -68 104 -37 16 -44 30 -31 73 28 100 47 844 30 1188 -6 118 -13
225 -17 237 -5 17 2 26 33 46 76 49 113 92 113 130 0 28 -6 40 -27 55 -24 16
-74 37 -119 47 -7 2 -13 75 -18 212 -6 198 -12 288 -36 553 -16 168 -29 245
-56 334 -32 102 -29 110 39 102 103 -13 354 -24 467 -20 202 7 534 25 552 30
9 3 126 9 260 14 266 11 481 24 628 40 192 20 600 49 790 55 107 3 220 8 250
10 111 8 369 16 515 16 158 -1 271 -4 709 -20 148 -6 273 -8 279 -4 5 3 6 23
3 44 -3 22 -5 39 -4 40 2 0 75 3 163 6 88 3 162 7 165 10 10 11 368 -6 465
-22z m10774 -566 c22 -13 23 -17 17 -99 -4 -51 0 -131 8 -200 14 -113 22 -249
31 -505 2 -72 7 -149 11 -172 l6 -42 -78 -39 c-86 -44 -144 -97 -163 -152 -7
-19 -17 -44 -21 -55 -14 -33 -18 -89 -8 -107 13 -26 63 -23 82 4 9 12 16 38
16 58 0 56 38 119 94 157 71 49 87 43 102 -36 6 -35 12 -141 13 -235 3 -304
42 -699 96 -977 14 -71 25 -145 25 -164 0 -31 -3 -35 -34 -41 -19 -3 -39 -3
-44 0 -8 5 -1112 -12 -1252 -19 -36 -2 -326 -6 -645 -9 -1091 -11 -1779 -22
-1955 -31 -47 -2 -129 -13 -183 -24 -55 -12 -103 -18 -108 -15 -5 3 -8 82 -6
176 3 161 5 172 24 185 39 26 287 114 403 144 63 16 180 38 260 50 93 13 161
28 189 42 96 47 77 84 -57 112 -133 28 -241 68 -429 161 -184 90 -311 144
-339 144 -15 0 -16 7 -10 58 35 285 42 740 16 1002 -10 102 -21 223 -25 270
-3 47 -14 117 -22 155 -9 39 -16 86 -17 105 l-1 35 70 -2 c39 -1 248 -4 465
-7 376 -4 502 -1 930 23 213 12 366 19 605 26 94 3 256 10 360 15 105 5 292
10 417 10 l227 0 3 -26 c5 -45 25 -50 150 -35 62 7 124 15 138 17 14 2 79 8
145 14 66 6 138 16 160 22 110 29 291 33 334 7z m-15869 -949 c0 -5 -7 -10
-16 -10 -8 0 -12 5 -9 10 3 6 10 10 16 10 5 0 9 -4 9 -10z m6499 -414 c20 -24
-51 -96 -94 -96 -35 0 -45 13 -45 55 0 44 110 76 139 41z m5523 -475 c174 -81
322 -142 403 -166 169 -50 172 -59 20 -81 -198 -30 -307 -60 -444 -125 -35
-17 -78 -33 -94 -36 l-30 -6 5 101 c3 70 10 108 21 126 21 32 21 55 1 77 -13
14 -15 30 -9 78 7 59 8 61 36 61 15 0 56 -13 91 -29z m-12102 -896 c0 -8 -10
-17 -21 -20 -28 -9 -45 15 -23 32 19 14 44 7 44 -12z"/>
<path d="M20026 17388 c-33 -53 -36 -139 -10 -298 17 -109 18 -106 -69 -135
-28 -9 -63 -26 -77 -37 -31 -25 -43 -73 -23 -93 20 -21 24 -20 83 21 30 21 66
37 84 38 l31 1 8 -75 c23 -228 55 -350 92 -350 32 0 37 37 16 138 -40 199 -52
273 -46 291 7 22 44 29 216 40 92 6 124 11 137 24 27 28 4 51 -62 61 -39 7
-96 5 -176 -3 -65 -7 -124 -10 -131 -6 -9 6 -10 56 -7 196 3 125 2 191 -5 198
-18 18 -46 12 -61 -11z"/>
<path d="M19833 17031 c-32 -37 -264 -291 -305 -333 -14 -16 -36 -28 -47 -28
-30 0 -149 121 -205 208 -45 71 -60 81 -100 66 -22 -8 -21 -72 1 -104 43 -63
109 -132 178 -185 41 -31 75 -59 75 -62 0 -3 -27 -34 -60 -70 -98 -105 -151
-220 -119 -259 18 -22 61 -13 75 16 43 94 70 143 112 198 43 59 49 63 77 59
17 -3 52 -19 78 -37 57 -38 107 -49 126 -26 20 23 8 40 -46 68 -85 45 -113 63
-113 72 0 5 31 41 68 81 38 39 92 103 120 141 28 38 65 87 81 109 43 59 57 93
43 107 -8 8 -18 3 -39 -21z"/>
<path d="M18745 16854 c-45 -23 -103 -83 -136 -139 -22 -38 -29 -63 -29 -102
0 -45 -4 -55 -25 -69 -48 -32 -24 -81 47 -98 18 -4 39 -24 64 -61 49 -74 108
-114 190 -128 94 -16 192 15 209 65 14 41 -15 45 -141 20 -58 -12 -127 8 -170
49 -19 18 -34 36 -34 39 0 3 26 19 57 34 86 42 129 81 159 143 39 79 39 146 1
196 -49 65 -126 85 -192 51z m99 -74 c36 -13 61 -66 47 -97 -37 -80 -128 -153
-192 -153 -24 0 -39 5 -43 16 -21 54 19 160 80 214 36 31 65 37 108 20z"/>
<path d="M18023 16759 c-65 -19 -115 -107 -148 -264 -25 -119 -43 -131 -61
-40 -7 32 -15 92 -19 132 -4 47 -13 81 -25 95 -17 21 -18 21 -44 5 -14 -10
-26 -24 -26 -31 0 -25 32 -170 70 -316 20 -80 40 -157 44 -172 5 -21 12 -28
31 -28 37 0 52 34 59 136 9 140 46 298 86 362 36 59 97 35 144 -57 25 -48 63
-175 81 -266 10 -49 33 -123 51 -163 30 -67 36 -73 60 -70 43 5 53 31 25 69
-15 21 -37 85 -61 183 -51 209 -79 292 -114 345 -50 72 -95 96 -153 80z"/>
<path d="M19660 16175 c-7 -9 -10 -26 -5 -42 8 -34 63 -181 105 -282 17 -43
27 -78 22 -83 -5 -5 -24 -17 -43 -26 -29 -15 -34 -23 -37 -58 -4 -59 16 -73
57 -39 51 43 62 33 103 -93 46 -144 59 -160 102 -129 16 12 14 20 -30 126
l-48 114 23 18 c13 11 38 19 56 19 18 0 40 3 49 6 10 4 34 -13 68 -48 94 -94
195 -132 413 -157 165 -19 224 -20 240 -4 21 20 19 28 -14 56 -25 21 -42 25
-137 30 -60 3 -143 13 -184 22 -134 28 -270 88 -270 119 0 6 29 26 63 43 88
43 178 121 202 172 17 39 18 45 3 84 -9 26 -28 51 -49 65 -29 21 -43 23 -99
19 -74 -5 -125 -31 -178 -91 -54 -62 -64 -83 -71 -158 l-6 -73 -58 -9 c-46 -7
-62 -5 -72 5 -10 12 -63 172 -107 324 -6 22 -17 50 -25 63 -16 25 -54 29 -73
7z m644 -155 c38 -14 32 -40 -21 -91 -86 -82 -190 -136 -214 -112 -20 20 8 94
52 139 67 68 122 88 183 64z"/>
<path d="M18550 15999 c-80 -40 -231 -187 -282 -275 -66 -113 -73 -216 -19
-268 33 -32 97 -50 231 -66 174 -20 175 -21 108 -87 -86 -83 -245 -148 -388
-160 -85 -7 -110 -16 -110 -42 0 -34 37 -55 93 -53 151 6 327 73 428 164 64
56 104 142 88 185 -14 38 -50 51 -199 73 -79 12 -159 28 -177 35 -30 13 -33
18 -33 58 0 56 20 106 75 182 109 154 248 238 328 200 39 -18 82 -82 125 -188
26 -61 30 -82 22 -97 -6 -11 -15 -20 -20 -20 -17 0 -42 -48 -35 -70 7 -23 33
-26 60 -6 11 8 25 12 31 9 7 -2 24 -57 39 -121 37 -164 38 -167 61 -170 41 -6
49 21 30 106 -9 42 -29 110 -43 150 -19 55 -22 76 -14 86 12 14 187 76 215 76
21 0 20 -4 -6 -75 -47 -127 -19 -263 61 -301 33 -16 37 -16 70 2 47 25 75 69
96 151 21 81 38 105 53 77 5 -11 17 -51 26 -91 22 -96 31 -120 62 -148 32 -30
55 -32 79 -5 24 27 13 66 -27 90 -33 20 -38 33 -108 307 -36 140 -43 155 -78
151 l-27 -3 0 -130 c0 -113 -3 -138 -24 -188 -37 -92 -103 -154 -126 -117 -11
18 -6 136 8 175 8 22 30 67 50 100 31 52 34 63 23 80 -7 11 -25 21 -38 23 -26
3 -167 -34 -270 -70 -32 -11 -63 -18 -71 -15 -7 3 -19 25 -26 48 -23 77 -87
203 -120 234 -27 25 -41 30 -94 32 -53 3 -71 -1 -127 -28z"/>
<path d="M13263 16014 c-14 -22 -16 -46 -13 -157 7 -237 10 -227 -68 -227 -32
0 -49 -6 -67 -25 -30 -29 -31 -39 -6 -64 16 -16 29 -19 74 -14 49 5 55 4 60
-16 3 -12 1 -36 -4 -54 -5 -17 -9 -60 -9 -93 0 -50 3 -63 17 -69 30 -11 53 29
54 94 0 31 3 74 7 96 7 35 11 41 47 51 22 7 68 13 103 13 l63 1 25 -57 c36
-84 42 -95 83 -149 71 -95 210 -140 306 -100 52 22 105 66 105 87 0 35 -31 39
-106 13 -92 -32 -130 -31 -185 5 -34 23 -55 49 -87 110 -24 45 -42 91 -40 103
2 17 22 33 70 58 95 50 128 84 128 132 0 32 -5 41 -32 58 -44 27 -91 25 -168
-5 -79 -31 -109 -58 -116 -106 -3 -20 -10 -42 -14 -50 -10 -15 -128 -24 -148
-11 -10 7 -10 43 -1 190 10 148 10 183 0 196 -21 25 -58 20 -78 -10z m457
-276 c0 -17 -82 -68 -109 -68 -25 0 -29 31 -7 49 32 27 116 40 116 19z"/>
<path d="M11845 15936 c-18 -13 -19 -20 -7 -162 7 -82 15 -165 18 -185 6 -34
4 -38 -37 -65 -35 -24 -44 -36 -44 -59 0 -27 3 -30 30 -28 17 0 39 3 50 5 17
2 20 -3 23 -37 1 -22 9 -76 17 -120 8 -44 18 -113 21 -153 8 -81 29 -120 59
-108 16 6 17 16 11 109 -6 95 -12 137 -37 260 -13 67 -11 93 5 106 8 7 67 23
133 37 65 14 176 39 246 56 70 17 131 27 135 24 3 -4 1 -15 -6 -24 -29 -40
-82 -165 -92 -220 -7 -34 -11 -106 -8 -160 3 -88 7 -104 31 -141 47 -71 99
-52 170 61 52 84 93 175 123 276 38 126 50 122 90 -31 47 -178 85 -246 125
-221 13 8 10 30 -28 164 -45 157 -73 277 -73 309 0 33 -27 55 -82 65 -72 13
-223 7 -324 -13 -55 -11 -148 -28 -205 -37 -57 -9 -132 -25 -167 -36 -35 -11
-70 -17 -78 -14 -11 4 -14 37 -14 161 0 89 -4 165 -10 176 -12 22 -48 25 -75
5z m843 -344 c2 -13 -21 -74 -53 -140 -32 -64 -75 -154 -97 -200 -43 -88 -82
-128 -99 -101 -22 35 4 220 47 329 32 83 105 142 169 137 23 -1 31 -8 33 -25z"/>
<path d="M11075 15809 c-79 -27 -168 -91 -206 -148 -27 -41 -30 -52 -27 -107
10 -162 137 -237 450 -265 201 -17 209 -19 234 -44 13 -13 24 -36 24 -50 0
-61 -85 -167 -177 -221 -50 -30 -164 -64 -214 -64 -65 0 -60 -58 6 -80 60 -20
180 12 265 69 70 47 151 133 176 186 46 96 22 201 -57 251 -38 24 -59 28 -203
40 -254 21 -348 60 -417 171 -26 41 -19 63 34 108 85 73 287 104 374 57 l43
-22 20 20 c27 27 25 44 -10 73 -58 49 -211 62 -315 26z"/>
<path d="M14810 15740 c-241 -29 -401 -59 -450 -83 -37 -18 -46 -27 -48 -53
-5 -55 15 -60 121 -31 102 29 212 49 392 72 169 22 220 33 239 54 16 17 16 20
1 35 -9 9 -22 16 -29 16 -8 0 -26 2 -42 4 -16 2 -99 -4 -184 -14z"/>
<path d="M13504 14926 c-43 -19 -84 -66 -84 -96 0 -28 16 -50 37 -50 13 0 133
116 133 129 0 13 -24 31 -39 31 -9 -1 -30 -7 -47 -14z"/>
<path d="M13872 14872 c-7 -20 -5 -55 5 -118 25 -149 26 -142 -41 -178 -84
-44 -129 -119 -94 -154 20 -20 45 -13 72 21 89 110 99 107 114 -41 15 -140 23
-172 45 -186 13 -8 21 -7 34 6 16 17 16 26 -1 170 -22 179 -22 178 78 178 81
0 126 -14 158 -47 37 -39 46 -69 54 -175 4 -51 11 -99 17 -105 14 -19 41 -16
62 7 18 19 18 27 6 108 -24 173 -76 257 -177 289 -48 15 -64 15 -128 5 -40 -7
-80 -10 -89 -7 -19 8 -32 96 -23 161 8 62 -8 94 -50 94 -26 0 -34 -5 -42 -28z"/>
<path d="M14290 14860 c-36 -36 -20 -80 30 -80 29 0 60 27 60 52 0 19 -32 48
-53 48 -9 0 -26 -9 -37 -20z"/>
<path d="M14775 14736 c-5 -3 -27 -7 -47 -11 -56 -9 -100 -50 -96 -89 3 -28 6
-31 36 -30 36 2 33 9 57 -119 18 -100 59 -190 99 -221 78 -59 145 -24 211 109
33 68 36 80 30 127 -19 135 -103 221 -227 233 -29 2 -57 3 -63 1z m126 -101
c38 -20 89 -90 89 -123 0 -47 -24 -104 -61 -145 -31 -35 -40 -40 -56 -31 -10
6 -26 34 -35 63 -23 67 -49 216 -42 236 8 20 66 20 105 0z"/>
<path d="M13234 14701 c-40 -24 -74 -68 -74 -95 0 -30 68 -133 157 -238 40
-47 73 -96 73 -107 0 -29 -83 -81 -128 -81 -72 0 -96 36 -143 222 -47 184 -72
222 -131 199 -46 -17 -86 -84 -123 -206 -20 -65 -43 -101 -57 -87 -5 5 -11 71
-15 148 -3 76 -10 147 -15 157 -5 10 -20 17 -39 17 -43 0 -55 -32 -40 -107 6
-32 17 -111 25 -175 12 -92 20 -125 41 -158 21 -34 31 -41 53 -38 22 2 32 14
55 60 15 31 34 85 43 120 27 105 77 188 101 165 3 -3 16 -57 30 -119 46 -216
103 -288 226 -288 61 0 122 32 171 90 47 57 32 95 -113 280 -41 52 -81 101
-88 108 -16 16 -16 18 -3 43 8 14 21 19 52 19 36 0 47 -6 84 -44 75 -79 149
-254 138 -325 -9 -58 34 -92 70 -55 23 22 20 76 -10 173 -30 100 -50 141 -109
231 -68 102 -156 137 -231 91z"/>
<path d="M15138 14679 c-24 -14 -22 -50 6 -134 13 -39 27 -101 31 -138 8 -71
25 -94 60 -80 17 6 95 117 95 134 0 20 65 109 84 115 16 5 29 -3 64 -42 48
-55 83 -120 116 -221 20 -58 27 -68 49 -71 18 -2 29 3 37 19 16 28 0 86 -56
204 -73 155 -157 239 -217 216 -29 -11 -77 -67 -107 -126 -22 -42 -43 -60 -59
-50 -5 2 -14 38 -21 80 -10 56 -18 80 -34 90 -24 17 -26 18 -48 4z"/>
<path d="M11275 14640 c-23 -25 -22 -63 4 -123 12 -27 21 -53 21 -58 0 -5 -22
-25 -49 -44 -47 -34 -65 -63 -55 -90 10 -26 33 -24 79 7 26 18 50 27 55 22 4
-5 18 -40 29 -79 12 -38 51 -130 88 -203 50 -102 71 -134 89 -138 27 -7 44 1
44 22 0 8 -22 61 -49 117 -88 186 -120 263 -123 297 -3 34 -2 35 52 51 273 82
297 85 340 39 15 -16 30 -40 32 -52 7 -39 -10 -296 -21 -317 -25 -46 -7 -91
35 -91 23 0 54 33 54 58 0 8 22 65 48 126 48 110 126 231 143 221 4 -3 8 -59
8 -123 0 -136 17 -198 57 -208 26 -7 70 20 104 63 20 26 62 150 77 233 5 28
14 46 24 48 17 3 21 -8 55 -153 30 -125 73 -180 112 -141 14 14 14 20 -6 63
-12 26 -29 77 -37 113 -9 36 -27 99 -40 140 -13 41 -31 101 -40 133 -12 43
-22 61 -40 69 -39 18 -51 -2 -59 -95 -14 -172 -83 -357 -133 -357 -10 0 -13
20 -13 83 0 98 21 206 56 284 20 46 23 62 14 81 -22 49 -49 25 -157 -133 -129
-191 -149 -215 -163 -195 -5 8 -10 40 -10 70 -1 67 -26 126 -69 163 -27 22
-42 27 -86 27 -65 0 -171 -22 -272 -55 -90 -31 -98 -27 -108 51 -10 83 -51
117 -90 74z"/>
<path d="M14444 13927 c-28 -26 -37 -42 -41 -78 -3 -26 0 -55 6 -68 27 -50
101 -5 101 61 0 20 5 49 10 64 7 19 7 30 -1 40 -18 22 -36 17 -75 -19z"/>
<path d="M14745 13876 c-20 -31 -6 -99 36 -172 38 -67 39 -110 2 -126 -158
-64 -233 -121 -233 -174 0 -35 16 -54 43 -54 11 0 47 26 81 58 71 66 140 102
159 83 8 -8 12 -62 14 -168 2 -163 9 -191 46 -177 31 12 40 70 34 226 l-6 147
37 10 c20 6 90 15 156 21 65 6 127 15 137 21 26 14 24 35 -6 55 -26 17 -112
16 -287 -2 l-57 -6 -5 33 c-2 19 -10 72 -16 119 -15 109 -28 130 -80 130 -31
0 -43 -5 -55 -24z"/>
<path d="M12231 13751 c-28 -28 -27 -72 4 -105 31 -33 58 -33 84 0 27 34 26
53 -2 86 -31 37 -61 44 -86 19z"/>
<path d="M12837 13596 c-139 -57 -214 -152 -271 -341 -13 -44 -32 -99 -40
-123 -20 -54 -6 -95 35 -100 39 -5 56 24 79 138 25 119 56 204 91 248 36 44
120 92 201 114 77 20 98 32 98 54 0 40 -107 45 -193 10z"/>
<path d="M11788 13561 c-14 -5 -100 -46 -190 -92 -150 -77 -170 -91 -249 -169
-105 -104 -142 -172 -143 -264 -1 -76 22 -117 99 -175 143 -108 324 -113 514
-16 56 28 111 81 111 105 0 33 -31 31 -114 -9 -196 -95 -358 -94 -463 2 -57
53 -77 90 -69 132 9 46 75 144 127 189 88 76 326 193 415 205 55 8 84 27 84
57 0 31 -71 51 -122 35z"/>
<path d="M14306 13458 c-22 -35 -10 -386 14 -418 22 -29 65 -21 73 12 3 13 6
106 7 207 1 160 -1 186 -16 202 -23 26 -60 24 -78 -3z"/>
<path d="M13265 13426 c-145 -71 -206 -180 -170 -303 18 -61 83 -126 141 -142
99 -27 223 1 296 67 53 48 64 70 45 90 -14 14 -25 11 -104 -27 -148 -72 -244
-64 -287 22 -47 97 38 202 179 222 78 11 108 51 67 88 -30 27 -89 21 -167 -17z"/>
<path d="M12169 13369 c-19 -19 -21 -30 -17 -118 4 -117 35 -194 79 -199 41
-5 54 20 32 60 -14 26 -18 56 -18 146 0 89 -3 115 -15 122 -23 15 -38 12 -61
-11z"/>
<path d="M13696 13367 c-50 -75 -71 -256 -41 -346 37 -111 128 -163 217 -123
103 46 298 296 298 382 0 57 -54 39 -89 -28 -30 -58 -148 -199 -198 -237 -52
-40 -100 -46 -126 -17 -44 48 -40 190 8 287 14 29 25 59 25 66 0 42 -70 54
-94 16z"/>
<path d="M25531 15303 c-27 -18 -27 -19 3 -273 l15 -125 -22 -18 c-61 -49 -67
-56 -67 -87 0 -30 1 -31 38 -28 l37 3 0 -80 c0 -75 1 -80 22 -83 29 -4 43 29
43 102 0 29 6 59 13 68 27 34 110 43 129 14 4 -6 8 -28 8 -48 0 -52 33 -102
80 -123 32 -15 42 -15 55 -5 22 18 19 30 -16 66 -29 30 -48 82 -49 130 0 14
19 36 56 64 87 68 104 128 51 179 -63 59 -137 23 -158 -77 -15 -72 -36 -92
-100 -92 l-49 0 0 199 c0 147 -3 201 -12 209 -26 20 -54 22 -77 5z"/>
<path d="M23133 15231 c-155 -53 -291 -199 -371 -396 -60 -147 -7 -416 80
-403 43 6 44 31 6 115 -41 88 -54 155 -39 196 16 40 43 34 106 -25 62 -58 73
-66 130 -99 85 -48 152 -77 207 -89 64 -13 87 -9 112 19 15 16 15 19 -1 33
-10 9 -56 25 -102 37 -85 21 -200 79 -293 147 -81 58 -85 55 182 100 131 22
201 43 228 67 12 12 30 45 38 74 8 29 31 71 50 94 37 44 35 63 -10 101 -57 48
-225 63 -323 29z m205 -70 c23 -5 45 -11 49 -14 8 -8 -38 -114 -57 -132 -8 -8
-76 -30 -150 -50 -74 -19 -170 -45 -213 -56 -43 -11 -85 -18 -93 -15 -25 10
17 76 92 145 121 111 236 148 372 122z"/>
<path d="M24824 15207 c-23 -20 -26 -28 -20 -60 6 -33 10 -37 37 -37 42 0 109
47 109 76 0 47 -80 60 -126 21z"/>
<path d="M25195 15052 c-23 -11 -54 -34 -69 -53 -29 -34 -66 -109 -66 -133 0
-29 52 -65 108 -76 73 -14 142 -38 165 -58 29 -25 20 -51 -41 -112 -48 -48
-70 -62 -118 -75 -32 -9 -65 -18 -71 -20 -19 -6 -16 -32 7 -55 25 -25 88 -27
137 -3 60 28 160 132 172 178 27 107 -40 185 -197 231 -69 20 -75 34 -31 66
20 15 42 20 84 19 32 0 66 4 76 10 23 12 25 61 3 80 -26 21 -114 22 -159 1z"/>
<path d="M23790 14981 c-114 -37 -223 -116 -250 -181 -19 -46 -9 -139 20 -180
63 -90 121 -136 199 -159 88 -25 221 -11 235 26 12 29 -13 43 -79 43 -115 0
-223 32 -249 73 -14 21 -11 24 79 57 102 38 176 84 241 149 62 62 66 85 28
131 -51 60 -124 73 -224 41z m144 -77 c31 -12 15 -35 -51 -77 -84 -53 -202
-106 -246 -109 -28 -3 -32 0 -35 23 -6 49 65 108 180 149 53 19 122 25 152 14z"/>
<path d="M24360 14954 c-19 -8 -47 -27 -62 -41 -38 -36 -88 -160 -95 -237 -5
-61 -4 -65 21 -81 24 -16 28 -16 51 -1 14 9 37 40 51 69 46 91 84 118 115 80
22 -26 17 -253 -9 -395 -25 -134 -74 -252 -118 -287 -25 -20 -38 -22 -98 -19
-44 2 -71 -1 -73 -8 -7 -21 38 -64 80 -75 51 -13 93 -1 150 44 137 108 224
603 136 778 -31 63 -80 82 -122 49 -30 -24 -57 -26 -57 -5 0 23 46 47 95 49
69 2 86 36 33 69 -38 24 -61 27 -98 11z"/>
<path d="M24654 14945 c-9 -23 1 -71 40 -181 19 -56 41 -141 47 -190 14 -99
21 -114 54 -114 43 0 50 22 36 113 -18 119 -71 338 -87 365 -17 26 -81 32 -90
7z"/>
<path d="M32259 17413 c-11 -13 -14 -69 -14 -262 -1 -174 -5 -259 -14 -291
-20 -68 -7 -200 24 -238 1 -1 14 3 29 9 27 13 31 23 27 74 -2 16 0 58 4 93 8
78 17 83 165 86 114 3 140 9 140 35 0 35 -55 51 -176 51 -112 0 -120 2 -115
33 8 48 16 388 10 405 -10 27 -59 31 -80 5z"/>
<path d="M30665 17152 c-63 -37 -77 -49 -119 -102 -47 -60 -75 -111 -101 -180
-81 -216 -92 -331 -33 -338 36 -4 58 30 58 91 0 65 34 196 74 282 35 74 97
144 153 170 39 19 74 61 66 81 -7 19 -61 17 -98 -4z"/>
<path d="M31334 17101 c-17 -10 -41 -33 -53 -50 -27 -37 -55 -40 -77 -6 -9 14
-22 25 -29 25 -7 0 -18 7 -25 15 -19 23 -76 18 -124 -10 -91 -53 -194 -193
-225 -305 -7 -25 -18 -56 -23 -70 -22 -56 -36 -158 -24 -182 25 -51 86 -18 86
47 0 19 9 68 21 108 11 39 24 86 29 103 26 106 137 234 201 234 38 0 73 -23
100 -66 19 -31 20 -42 13 -122 -12 -131 -3 -169 50 -214 47 -39 156 -13 244
59 43 35 52 51 66 106 9 37 -3 35 -76 -16 -68 -46 -149 -87 -172 -87 -37 0
-60 85 -35 132 10 18 17 20 77 14 58 -5 72 -3 107 17 60 34 105 107 105 169 0
45 -4 54 -36 84 -33 32 -40 34 -102 34 -48 0 -76 -5 -98 -19z m134 -72 c19 -7
32 -19 37 -36 5 -21 0 -31 -27 -54 -18 -15 -52 -33 -74 -39 -35 -10 -46 -9
-74 5 -27 14 -31 20 -25 43 17 71 90 107 163 81z"/>
<path d="M29304 17060 c-48 -10 -161 -55 -183 -73 -9 -7 -29 -19 -44 -27 -42
-21 -160 -149 -185 -201 -15 -32 -22 -65 -23 -119 -1 -64 3 -83 25 -125 48
-89 95 -126 211 -166 150 -51 379 -22 465 58 29 27 33 34 20 43 -8 5 -22 7
-30 4 -59 -22 -169 -44 -217 -44 -32 0 -94 7 -137 15 -141 27 -203 81 -256
222 -16 43 7 91 81 163 88 87 223 150 321 150 46 0 61 4 78 22 30 33 25 57
-15 74 -38 15 -50 16 -111 4z"/>
<path d="M30183 17031 c-11 -11 -33 -53 -48 -93 -63 -166 -138 -269 -232 -317
-92 -47 -163 -6 -163 94 0 43 36 110 68 124 31 15 49 56 32 76 -32 39 -111 -3
-152 -82 -59 -115 -26 -273 65 -317 83 -39 133 -31 221 38 96 74 184 210 231
356 10 30 23 65 28 78 8 16 8 28 1 40 -15 24 -28 24 -51 3z"/>
<path d="M31694 16990 c-27 -11 -32 -24 -44 -128 -6 -48 -15 -105 -21 -127 -6
-22 -13 -50 -16 -61 -7 -31 14 -64 40 -64 29 0 93 66 142 148 40 66 86 108
109 99 18 -7 24 -72 14 -156 -10 -89 -1 -149 23 -156 24 -8 59 11 59 33 0 9 9
28 20 42 11 14 20 30 20 36 0 6 9 23 20 36 21 28 31 81 15 87 -5 2 -17 -9 -25
-25 -34 -61 -50 -38 -56 81 -6 116 -14 137 -52 147 -39 10 -63 -1 -82 -39 -8
-15 -25 -42 -37 -59 -13 -17 -23 -34 -23 -38 0 -15 -45 -45 -67 -46 -29 0 -30
26 -3 98 11 29 20 59 20 67 0 20 -31 34 -56 25z"/>
<path d="M31204 16079 c-14 -27 -16 -54 -12 -154 3 -67 1 -132 -4 -145 -8 -22
-11 -22 -83 -16 -72 7 -75 6 -107 -22 -30 -28 -31 -32 -20 -57 11 -24 16 -26
45 -20 18 4 57 9 89 12 80 7 82 -6 27 -197 -12 -41 -21 -84 -21 -94 1 -30 18
-41 45 -29 30 14 54 88 63 193 4 43 10 83 14 90 4 6 26 14 49 17 47 6 81 -15
81 -50 0 -12 7 -48 16 -81 24 -89 89 -153 194 -194 95 -37 142 -43 280 -40
143 4 170 12 170 49 0 39 -35 48 -161 42 -173 -9 -285 19 -362 91 -29 27 -66
98 -67 127 0 24 38 37 112 38 85 1 164 30 212 78 44 45 53 73 36 123 -37 111
-198 155 -327 89 -59 -31 -84 -65 -94 -131 -5 -31 -16 -58 -26 -65 -24 -19
-60 -16 -82 6 -22 22 -20 72 9 214 10 50 15 101 11 120 -6 27 -12 32 -38 35
-27 3 -34 -2 -49 -29z m485 -227 c37 -27 48 -49 35 -69 -13 -22 -137 -62 -215
-70 -49 -5 -58 -3 -66 13 -13 26 1 75 29 101 56 51 164 63 217 25z"/>
<path d="M30144 15965 c-14 -22 -16 -46 -12 -166 l4 -140 -40 -21 c-94 -48
-126 -88 -126 -157 0 -22 -3 -46 -6 -55 -8 -20 -46 -20 -99 -1 -47 17 -200 50
-300 64 -103 15 -203 50 -239 83 l-31 28 35 31 c50 43 76 55 160 73 52 10 80
22 93 37 33 41 18 59 -51 59 -62 0 -179 -47 -230 -94 -60 -54 -83 -170 -42
-214 40 -43 77 -54 275 -86 249 -41 457 -99 463 -129 2 -9 -20 -42 -50 -73
-94 -100 -231 -184 -298 -184 -50 0 -79 -16 -73 -40 25 -96 206 -44 373 105
69 61 74 65 111 59 35 -6 39 -4 57 25 10 17 24 50 31 74 7 23 19 63 27 89 9
25 17 95 20 155 3 86 8 111 21 121 23 17 89 34 116 30 25 -3 26 -24 7 -98 -15
-60 -9 -160 13 -194 15 -22 25 -26 63 -26 24 0 57 8 72 17 45 28 103 95 133
155 16 31 34 60 40 64 16 10 39 -24 39 -57 0 -15 11 -71 25 -125 22 -84 31
-104 61 -132 38 -36 79 -40 97 -11 8 12 1 25 -29 56 -32 33 -43 54 -56 114
-27 116 -38 205 -38 325 0 72 -4 114 -12 122 -14 14 -54 16 -62 3 -4 -5 -15
-59 -25 -119 -19 -109 -34 -147 -75 -188 -12 -11 -41 -42 -65 -68 -34 -38 -52
-49 -84 -54 l-40 -5 7 73 c10 108 34 146 120 190 79 40 97 60 77 84 -20 23
-43 20 -181 -24 -69 -23 -144 -44 -166 -47 l-42 -5 -4 38 c-3 22 2 81 10 133
17 103 12 124 -31 129 -19 2 -30 -4 -43 -23z m-8 -410 c9 -23 -26 -258 -42
-282 -8 -13 -21 -23 -29 -23 -29 0 -59 109 -53 190 4 57 8 66 41 96 39 36 74
44 83 19z"/>
<path d="M7338 14423 c-42 -49 -58 -245 -62 -758 l-1 -90 27 -3 c21 -3 30 2
37 20 10 24 26 205 40 453 5 77 19 190 32 252 19 93 21 114 10 127 -18 21 -64
20 -83 -1z"/>
<path d="M4569 14339 c-38 -71 -72 -335 -61 -476 4 -61 4 -63 -24 -73 -45 -16
-59 -26 -62 -44 -5 -24 23 -53 58 -59 35 -8 43 -29 31 -93 -11 -61 -14 -174
-5 -220 5 -27 11 -34 29 -34 33 0 36 18 37 179 0 76 3 144 7 149 4 6 54 14
111 18 122 8 122 8 140 -80 22 -107 125 -186 249 -189 75 -2 123 9 150 34 36
33 13 49 -73 49 -40 0 -95 7 -122 15 -59 17 -127 72 -150 121 -20 41 -9 59 39
69 65 14 253 78 287 98 48 28 90 68 90 85 0 53 -161 96 -271 73 -75 -16 -123
-51 -160 -116 -17 -31 -40 -60 -51 -66 -25 -13 -211 -1 -234 15 -14 11 -14 24
-4 116 18 168 37 290 56 357 15 51 16 64 5 77 -19 23 -58 20 -72 -5z m579
-471 c-5 -16 -163 -77 -200 -78 -56 0 -19 40 63 69 63 23 143 28 137 9z"/>
<path d="M4103 14055 c-51 -22 -172 -117 -242 -189 -35 -36 -72 -66 -81 -66
-10 0 -50 38 -90 85 -40 47 -83 88 -95 91 -44 11 -60 1 -63 -37 -2 -29 4 -43
36 -80 22 -24 67 -64 101 -89 33 -24 61 -48 61 -52 0 -5 -25 -44 -55 -88 -30
-44 -55 -82 -55 -85 0 -2 -12 -30 -27 -62 -19 -43 -27 -75 -27 -123 -1 -62 0
-65 23 -65 21 0 26 7 37 57 15 66 45 128 104 216 49 75 66 78 132 24 100 -83
272 -151 347 -137 70 13 124 62 100 91 -15 18 -47 18 -94 -2 -25 -10 -50 -13
-73 -9 -74 14 -302 146 -302 175 1 27 252 226 299 236 56 12 68 22 76 60 5 30
3 41 -11 51 -23 17 -60 16 -101 -2z"/>
<path d="M5851 14034 c-63 -26 -167 -122 -215 -198 -101 -161 -126 -296 -54
-296 25 0 43 33 62 115 27 112 75 182 194 284 69 59 88 93 59 104 -7 3 -28 -1
-46 -9z"/>
<path d="M6415 13996 c-31 -14 -63 -46 -105 -106 -44 -62 -112 -141 -118 -136
-3 3 3 26 13 51 9 25 14 52 11 60 -7 18 -60 20 -73 3 -15 -21 -41 -128 -54
-226 -14 -102 -5 -142 31 -142 23 0 45 32 115 170 58 115 94 169 135 204 35
29 55 33 63 13 5 -13 -10 -105 -38 -232 -29 -134 -12 -219 43 -213 27 3 27 4
28 83 1 44 8 116 17 160 40 204 40 283 1 312 -22 16 -31 16 -69 -1z"/>
<path d="M6790 14003 c-39 -15 -111 -88 -136 -139 -31 -64 -43 -171 -25 -227
16 -47 73 -97 111 -97 37 0 63 27 106 113 40 78 58 84 93 28 12 -21 36 -46 53
-55 27 -16 31 -16 53 -2 33 22 32 42 -3 60 -20 10 -40 40 -71 105 -43 91 -68
114 -96 91 -7 -6 -17 -26 -21 -43 -11 -53 -53 -140 -81 -169 -51 -54 -79 -27
-76 74 2 85 75 168 146 168 38 0 77 27 77 53 0 37 -77 60 -130 40z"/>
<path d="M2957 13970 c-98 -17 -181 -77 -265 -189 -74 -99 -81 -113 -88 -164
-8 -57 8 -112 54 -183 54 -83 119 -116 278 -139 58 -9 241 13 289 34 43 19 72
47 61 58 -4 4 -66 6 -139 4 -141 -2 -260 15 -327 48 -97 49 -124 68 -138 98
-13 28 -14 36 -2 58 13 25 17 26 75 20 121 -13 371 74 461 161 34 32 42 48 48
90 7 60 3 74 -27 94 -26 17 -206 23 -280 10z m208 -110 c15 -24 -141 -99 -270
-130 -96 -24 -135 -25 -135 -6 0 19 67 72 123 96 86 38 267 64 282 40z"/>
<path d="M5585 13271 c-14 -17 -16 -33 -12 -98 3 -43 10 -97 15 -121 11 -49 3
-58 -78 -87 -55 -19 -80 -41 -80 -71 0 -27 24 -54 48 -54 9 0 39 8 65 17 80
29 82 23 79 -155 -2 -126 0 -153 14 -166 22 -22 50 -5 58 35 11 57 6 160 -11
230 -23 97 -20 99 142 109 90 5 131 11 141 22 43 42 -47 78 -197 78 -125 0
-124 -1 -113 135 5 58 6 114 2 125 -10 26 -49 26 -73 1z"/>
<path d="M3283 13268 c-48 -24 -14 -158 40 -158 17 0 28 11 45 45 12 25 22 54
22 64 0 39 -66 70 -107 49z"/>
<path d="M3215 13025 c-26 -25 -27 -29 -30 -185 -3 -143 25 -411 47 -452 5
-10 20 -18 34 -18 25 0 26 1 21 58 -29 382 -31 437 -14 498 21 74 21 88 1 108
-21 22 -31 20 -59 -9z"/>
<path d="M4570 12941 c-80 -25 -127 -70 -168 -161 -61 -134 -87 -308 -77 -510
11 -233 33 -332 77 -349 53 -20 70 21 47 119 -8 36 -7 53 7 88 20 54 8 92 -30
92 -13 0 -28 6 -33 13 -5 6 -9 57 -8 112 5 344 72 489 234 502 52 4 85 -10
114 -49 18 -24 19 -30 7 -59 -21 -50 -111 -133 -200 -185 -81 -46 -92 -61 -65
-84 24 -20 72 -14 118 15 135 83 206 167 215 254 13 134 -112 240 -238 202z"/>
<path d="M3835 12893 c-15 -15 -33 -39 -40 -54 -22 -42 -55 -133 -55 -151 0
-21 -48 -78 -66 -78 -20 0 -18 103 3 163 17 46 17 48 -3 68 -17 16 -25 18 -46
10 -41 -15 -53 -67 -39 -165 6 -45 13 -99 15 -121 10 -104 29 -136 69 -118 16
8 30 30 45 74 82 246 115 300 176 285 26 -6 35 -25 66 -136 41 -145 62 -205
77 -222 17 -19 58 -24 68 -8 3 5 -5 45 -19 87 -13 43 -39 125 -57 183 -37 120
-43 133 -83 178 -37 40 -73 42 -111 5z"/>
<path d="M4918 12839 c-15 -8 -18 -25 -18 -99 0 -115 36 -238 84 -286 60 -60
150 -63 234 -10 107 68 232 214 232 272 0 21 -5 34 -12 34 -7 0 -50 -38 -94
-84 -118 -120 -191 -166 -269 -166 -56 0 -90 60 -101 183 -5 53 -3 86 6 107
20 48 -16 76 -62 49z"/>
<path d="M14080 10359 c-270 -67 -372 -89 -418 -89 -42 0 -53 -4 -63 -21 -8
-16 -10 -102 -8 -293 l4 -270 -45 -9 c-80 -15 -306 -2 -403 23 -70 18 -90 20
-102 10 -21 -18 -19 -57 4 -70 27 -14 137 -39 224 -50 85 -11 375 6 394 24 9
8 10 36 5 106 -5 52 -8 176 -7 275 l0 180 45 8 c41 8 257 58 405 93 91 22 169
28 193 15 28 -15 28 -33 -3 -217 -26 -156 -55 -358 -55 -381 0 -7 11 -20 25
-29 24 -16 30 -15 108 5 69 18 115 22 299 25 156 2 222 7 233 16 9 7 15 29 15
54 0 57 -24 238 -49 366 -12 58 -21 117 -21 133 0 25 3 27 38 27 20 0 73 -9
117 -20 122 -31 199 -36 230 -16 27 18 32 45 13 64 -7 7 -35 12 -64 12 -28 0
-106 11 -174 25 -138 28 -202 31 -219 11 -16 -19 -6 -181 21 -336 12 -69 22
-152 22 -185 l1 -60 -220 -7 c-121 -4 -236 -9 -255 -10 -34 -3 -35 -2 -32 32
2 19 10 60 18 90 16 62 40 212 49 312 7 76 -5 109 -55 152 -29 24 -39 26 -113
25 -45 -1 -116 -10 -157 -20z"/>
</g>
</svg>
