<?xml version="1.0" standalone="no"?>
<!DOCTYPE svg PUBLIC "-//W3C//DTD SVG 20010904//EN"
 "http://www.w3.org/TR/2001/REC-SVG-20010904/DTD/svg10.dtd">
<svg version="1.0" xmlns="http://www.w3.org/2000/svg"
 width="3264.000000pt" height="2448.000000pt" viewBox="0 0 3264.000000 2448.000000"
 preserveAspectRatio="xMidYMid meet">
<metadata>
Created by potrace 1.12, written by Peter Selinger 2001-2015
</metadata>
<g transform="translate(0.000000,2448.000000) scale(0.100000,-0.100000)"
fill="#000000" stroke="none">
<path d="M825 24470 c-3 -5 -1 -10 4 -10 6 0 11 5 11 10 0 6 -2 10 -4 10 -3 0
-8 -4 -11 -10z"/>
<path d="M1410 24467 c0 -17 46 -29 79 -20 l22 6 -21 14 c-16 12 -24 12 -35 3
-12 -10 -18 -10 -30 0 -12 10 -15 10 -15 -3z"/>
<path d="M17914 24465 c-19 -14 -18 -14 4 -15 12 0 25 -1 29 -2 4 -2 9 5 11
15 4 21 -17 22 -44 2z"/>
<path d="M19608 24472 c-49 -3 -69 -22 -24 -22 13 0 30 -2 38 -5 16 -6 42 9
37 21 -2 5 -25 8 -51 6z"/>
<path d="M20116 24473 c-4 -5 -20 -8 -34 -9 -121 -2 -143 -5 -137 -15 4 -5 32
-10 63 -9 32 1 64 1 72 -1 8 -1 32 -1 53 -1 30 2 37 6 37 22 0 14 -7 20 -23
20 -13 0 -27 -3 -31 -7z"/>
<path d="M20497 24472 c-20 -4 -22 -18 -4 -29 13 -8 191 -6 220 3 10 3 16 11
14 17 -3 10 -184 17 -230 9z"/>
<path d="M20752 24464 c-23 -17 -3 -24 63 -21 38 2 51 6 53 19 3 14 -5 17 -48
16 -28 -1 -59 -7 -68 -14z"/>
<path d="M20955 24470 c-4 -6 -15 -8 -26 -5 -10 4 -19 2 -19 -3 0 -5 12 -12
28 -15 31 -6 52 7 35 24 -8 8 -13 8 -18 -1z"/>
<path d="M21232 24471 c-7 -4 -24 -6 -38 -3 -14 2 -24 0 -24 -7 0 -7 20 -11
51 -11 35 0 49 4 47 12 -6 16 -20 20 -36 9z"/>
<path d="M21315 24469 c-10 -16 0 -21 29 -13 14 3 23 10 20 15 -7 12 -41 11
-49 -2z"/>
<path d="M21575 24465 c-16 -8 -25 -15 -20 -15 6 -1 23 -3 40 -5 30 -4 59 11
49 26 -7 12 -33 10 -69 -6z"/>
<path d="M21670 24465 c0 -8 4 -15 9 -15 5 0 14 7 21 15 10 13 9 15 -9 15 -12
0 -21 -6 -21 -15z"/>
<path d="M21790 24465 c0 -8 7 -15 15 -15 8 0 15 7 15 15 0 8 -7 15 -15 15 -8
0 -15 -7 -15 -15z"/>
<path d="M21910 24470 c0 -5 5 -10 10 -10 6 0 10 5 10 10 0 6 -4 10 -10 10 -5
0 -10 -4 -10 -10z"/>
<path d="M22130 24470 c0 -5 7 -10 15 -10 8 0 15 5 15 10 0 6 -7 10 -15 10 -8
0 -15 -4 -15 -10z"/>
<path d="M22320 24465 c-10 -13 -9 -15 9 -15 11 0 21 4 21 9 0 18 -18 21 -30
6z"/>
<path d="M22443 24473 c-7 -2 -13 -9 -13 -14 0 -14 24 -11 46 6 19 14 19 14
-1 14 -11 0 -26 -3 -32 -6z"/>
<path d="M22640 24470 c0 -5 6 -10 14 -10 8 0 18 5 21 10 3 6 -3 10 -14 10
-12 0 -21 -4 -21 -10z"/>
<path d="M22830 24472 c0 -5 16 -9 35 -10 19 -1 35 3 35 8 0 6 -16 10 -35 10
-19 0 -35 -4 -35 -8z"/>
<path d="M24008 24473 c7 -3 16 -2 19 1 4 3 -2 6 -13 5 -11 0 -14 -3 -6 -6z"/>
<path d="M26690 24470 c0 -5 5 -10 10 -10 6 0 10 5 10 10 0 6 -4 10 -10 10 -5
0 -10 -4 -10 -10z"/>
<path d="M28638 24473 c7 -3 16 -2 19 1 4 3 -2 6 -13 5 -11 0 -14 -3 -6 -6z"/>
<path d="M1623 24457 c-3 -5 -3 -10 0 -13 2 -3 77 -6 165 -7 144 -2 186 3 170
18 -8 8 -330 10 -335 2z"/>
<path d="M3484 24459 c-7 -12 12 -29 33 -29 21 0 24 19 4 29 -25 14 -28 14
-37 0z"/>
<path d="M8755 24462 c-174 -1 -303 -6 -309 -12 -6 -6 1 -9 20 -9 16 0 180 -2
364 -4 362 -3 473 0 465 13 -3 4 -35 9 -72 10 -38 1 -90 3 -118 3 -27 1 -185
1 -350 -1z"/>
<path d="M9363 24463 c-29 -2 -53 -8 -53 -14 0 -10 18 -11 322 -13 163 -2 220
-5 232 -15 13 -11 22 -11 45 -1 16 6 82 13 146 15 110 2 136 7 122 21 -4 5
-606 7 -712 3 -5 0 -19 1 -30 4 -11 2 -44 2 -72 0z"/>
<path d="M10208 24459 c-29 -18 17 -25 184 -28 233 -4 183 -4 641 8 21 1 36 5
33 9 -5 8 -83 14 -171 14 -110 -1 -425 0 -543 1 -74 1 -139 -1 -144 -4z"/>
<path d="M11351 24460 c-7 -4 -44 -6 -82 -4 -61 3 -98 -7 -66 -18 26 -10 180
-3 184 8 5 15 -20 24 -36 14z"/>
<path d="M17603 24463 c-7 -3 -13 -9 -13 -14 0 -12 37 -12 44 0 7 11 -14 20
-31 14z"/>
<path d="M17755 24460 c-8 -13 15 -24 27 -12 6 6 4 11 -6 15 -8 3 -18 2 -21
-3z"/>
<path d="M18825 24460 c-22 -9 -21 -10 15 -15 32 -3 46 5 29 16 -16 10 -18 10
-44 -1z"/>
<path d="M18937 24462 c-20 -2 -35 -7 -32 -13 7 -11 52 -11 79 0 27 10 2 17
-47 13z"/>
<path d="M19017 24464 c-9 -10 2 -24 19 -24 8 0 14 7 14 15 0 15 -21 21 -33 9z"/>
<path d="M19087 24463 c-14 -13 -6 -23 18 -23 16 0 25 6 25 15 0 15 -31 21
-43 8z"/>
<path d="M19152 24459 c2 -7 10 -15 17 -17 8 -3 12 1 9 9 -2 7 -10 15 -17 17
-8 3 -12 -1 -9 -9z"/>
<path d="M19485 24463 c-52 -8 -49 -21 4 -20 29 0 50 5 48 11 -4 12 -14 14
-52 9z"/>
<path d="M20356 24461 c-3 -5 15 -11 40 -13 44 -3 61 2 47 16 -10 9 -81 7 -87
-3z"/>
<path d="M21000 24461 c0 -12 41 -24 65 -19 33 6 19 23 -22 26 -25 2 -43 -1
-43 -7z"/>
<path d="M21400 24460 c20 -13 43 -13 35 0 -3 6 -16 10 -28 10 -18 0 -19 -2
-7 -10z"/>
<path d="M21510 24455 c0 -9 5 -15 11 -13 6 2 11 8 11 13 0 5 -5 11 -11 13 -6
2 -11 -4 -11 -13z"/>
<path d="M21735 24460 c-19 -8 -19 -9 2 -9 12 -1 25 4 28 9 7 12 -2 12 -30 0z"/>
<path d="M22090 24459 c0 -5 5 -7 10 -4 6 3 10 8 10 11 0 2 -4 4 -10 4 -5 0
-10 -5 -10 -11z"/>
<path d="M22390 24460 c0 -5 4 -10 9 -10 6 0 13 5 16 10 3 6 -1 10 -9 10 -9 0
-16 -4 -16 -10z"/>
<path d="M23135 24460 c3 -5 12 -7 20 -3 21 7 19 13 -6 13 -11 0 -18 -4 -14
-10z"/>
<path d="M23955 24460 c3 -5 8 -10 11 -10 2 0 4 5 4 10 0 6 -5 10 -11 10 -5 0
-7 -4 -4 -10z"/>
<path d="M24040 24460 c0 -5 7 -10 16 -10 8 0 12 5 9 10 -3 6 -10 10 -16 10
-5 0 -9 -4 -9 -10z"/>
<path d="M1265 24450 c3 -5 8 -10 11 -10 2 0 4 5 4 10 0 6 -5 10 -11 10 -5 0
-7 -4 -4 -10z"/>
<path d="M1337 24449 c8 -8 16 -8 30 0 16 9 14 10 -11 11 -22 0 -27 -3 -19
-11z"/>
<path d="M2005 24451 c7 -12 83 -12 91 0 3 5 -18 9 -46 9 -29 0 -49 -4 -45 -9z"/>
<path d="M2186 24451 c-14 -5 -16 -10 -7 -15 15 -9 41 -1 41 14 0 11 -7 12
-34 1z"/>
<path d="M2250 24444 c0 -11 5 -14 16 -10 9 3 22 6 30 6 9 0 12 5 9 10 -10 17
-55 12 -55 -6z"/>
<path d="M2466 24451 c-7 -11 22 -23 35 -15 5 3 9 9 9 15 0 12 -37 12 -44 0z"/>
<path d="M2621 24451 c-21 -14 1 -19 44 -11 22 4 30 8 18 9 -12 0 -27 3 -35 6
-7 3 -19 1 -27 -4z"/>
<path d="M2835 24450 c-8 -13 20 -24 41 -16 20 8 9 26 -16 26 -10 0 -22 -5
-25 -10z"/>
<path d="M2920 24445 c0 -17 12 -18 61 -8 28 5 30 7 14 14 -35 13 -75 10 -75
-6z"/>
<path d="M3077 24454 c-11 -12 3 -24 28 -24 13 0 26 4 29 9 10 15 -43 29 -57
15z"/>
<path d="M3185 24451 c-6 -11 33 -26 43 -16 4 3 0 10 -8 15 -19 12 -27 12 -35
1z"/>
<path d="M3295 24450 l-40 -6 45 -8 c59 -10 157 -4 150 9 -6 11 -97 15 -155 5z"/>
<path d="M3590 24450 c-33 -5 -34 -6 -10 -13 35 -10 70 -9 70 2 0 14 -21 18
-60 11z"/>
<path d="M5076 24453 c-4 -4 -41 -8 -82 -8 -41 0 -74 -4 -74 -10 0 -14 502
-13 507 1 3 8 -39 11 -140 11 -79 1 -157 4 -173 7 -17 4 -33 3 -38 -1z"/>
<path d="M6486 24452 c-14 -13 10 -22 62 -22 33 0 52 4 47 9 -11 10 -102 21
-109 13z"/>
<path d="M6773 24453 c-35 -13 -5 -23 68 -23 60 0 80 3 77 13 -5 12 -118 20
-145 10z"/>
<path d="M6968 24453 c-10 -3 -18 -8 -18 -12 0 -15 133 -22 394 -20 143 2 286
2 317 1 40 -1 60 3 69 13 7 8 11 15 9 16 -14 3 -757 5 -771 2z"/>
<path d="M7775 24451 c-53 -11 -13 -18 105 -20 120 -1 180 5 180 20 0 9 -239
9 -285 0z"/>
<path d="M8114 24449 c-5 -9 120 -19 176 -14 25 2 65 4 90 5 32 0 41 3 29 10
-17 10 -288 9 -295 -1z"/>
<path d="M11105 24450 c-27 -7 -25 -8 18 -9 30 -1 46 3 42 9 -7 11 -16 11 -60
0z"/>
<path d="M11412 24453 c-20 -8 -3 -23 28 -23 33 0 48 15 24 24 -18 7 -33 7
-52 -1z"/>
<path d="M11505 24450 c-6 -10 8 -18 35 -19 8 0 281 -4 605 -8 600 -7 628 -7
865 -2 74 1 295 1 490 -1 651 -5 1353 4 1358 18 3 10 -36 12 -180 12 -100 -1
-854 1 -1675 4 -953 3 -1494 2 -1498 -4z"/>
<path d="M15753 24453 c-20 -7 -15 -23 7 -23 11 0 20 4 20 9 0 13 -12 19 -27
14z"/>
<path d="M16478 24453 c7 -3 16 -2 19 1 4 3 -2 6 -13 5 -11 0 -14 -3 -6 -6z"/>
<path d="M16595 24450 c-4 -7 5 -11 27 -11 18 0 63 -1 101 -3 48 -3 67 -1 67
8 0 16 -185 22 -195 6z"/>
<path d="M17150 24450 c0 -5 9 -10 21 -10 11 0 17 5 14 10 -3 6 -13 10 -21 10
-8 0 -14 -4 -14 -10z"/>
<path d="M17245 24450 c-4 -6 6 -10 22 -10 22 0 25 2 13 10 -19 12 -27 12 -35
0z"/>
<path d="M17315 24449 c-10 -15 1 -23 20 -15 9 3 13 10 10 16 -8 13 -22 13
-30 -1z"/>
<path d="M17400 24450 c0 -5 12 -10 26 -10 14 0 23 4 19 10 -3 6 -15 10 -26
10 -10 0 -19 -4 -19 -10z"/>
<path d="M17510 24450 c0 -5 7 -10 16 -10 8 0 12 5 9 10 -3 6 -10 10 -16 10
-5 0 -9 -4 -9 -10z"/>
<path d="M17810 24450 c0 -5 7 -10 15 -10 8 0 15 5 15 10 0 6 -7 10 -15 10 -8
0 -15 -4 -15 -10z"/>
<path d="M18440 24450 c0 -5 7 -10 15 -10 8 0 15 5 15 10 0 6 -7 10 -15 10 -8
0 -15 -4 -15 -10z"/>
<path d="M18490 24456 c0 -2 7 -6 15 -10 8 -3 15 -1 15 4 0 6 -7 10 -15 10 -8
0 -15 -2 -15 -4z"/>
<path d="M19310 24450 c0 -5 4 -10 9 -10 6 0 13 5 16 10 3 6 -1 10 -9 10 -9 0
-16 -4 -16 -10z"/>
<path d="M2428 24443 c7 -3 16 -2 19 1 4 3 -2 6 -13 5 -11 0 -14 -3 -6 -6z"/>
<path d="M2538 24443 c7 -3 16 -2 19 1 4 3 -2 6 -13 5 -11 0 -14 -3 -6 -6z"/>
<path d="M2746 24440 c6 -6 21 -6 39 -1 30 9 30 9 -9 10 -26 1 -37 -2 -30 -9z"/>
<path d="M3670 24440 c0 -5 9 -10 21 -10 11 0 17 5 14 10 -3 6 -13 10 -21 10
-8 0 -14 -4 -14 -10z"/>
<path d="M3815 24440 c-3 -5 1 -10 10 -10 9 0 13 5 10 10 -3 6 -8 10 -10 10
-2 0 -7 -4 -10 -10z"/>
<path d="M3872 24443 c-6 -2 -10 -9 -7 -13 7 -11 35 -2 35 11 0 10 -8 10 -28
2z"/>
<path d="M4052 24441 c-10 -6 -8 -9 10 -13 29 -5 50 1 42 13 -7 11 -35 11 -52
0z"/>
<path d="M4214 24439 c-9 -15 15 -18 171 -19 88 -1 209 -2 269 -3 68 -1 115 2
124 9 14 10 13 12 -4 17 -28 8 -554 4 -560 -4z"/>
<path d="M4817 24443 c-24 -6 -11 -23 18 -23 32 0 56 10 49 21 -5 9 -36 10
-67 2z"/>
<path d="M5454 24438 c-6 -9 6 -10 299 -12 198 -2 258 3 210 18 -28 8 -504 3
-509 -6z"/>
<path d="M6000 24440 c0 -5 14 -10 31 -10 17 0 28 4 24 10 -3 6 -17 10 -31 10
-13 0 -24 -4 -24 -10z"/>
<path d="M6093 24436 c6 -19 227 -14 227 6 0 5 -52 8 -115 7 -78 -1 -115 -5
-112 -13z"/>
<path d="M6350 24440 c0 -5 16 -10 36 -10 21 0 33 4 29 10 -3 6 -19 10 -36 10
-16 0 -29 -4 -29 -10z"/>
<path d="M6435 24440 c3 -5 8 -10 11 -10 2 0 4 5 4 10 0 6 -5 10 -11 10 -5 0
-7 -4 -4 -10z"/>
<path d="M6620 24440 c0 -6 28 -10 65 -10 37 0 65 4 65 10 0 6 -28 10 -65 10
-37 0 -65 -4 -65 -10z"/>
<path d="M15000 24440 c0 -6 39 -10 103 -9 116 1 97 15 -25 18 -48 1 -78 -3
-78 -9z"/>
<path d="M15220 24440 c0 -6 28 -10 65 -10 37 0 65 4 65 10 0 6 -28 10 -65 10
-37 0 -65 -4 -65 -10z"/>
<path d="M15400 24440 c0 -5 5 -10 10 -10 6 0 10 5 10 10 0 6 -4 10 -10 10 -5
0 -10 -4 -10 -10z"/>
<path d="M15490 24440 c0 -5 7 -10 15 -10 8 0 15 5 15 10 0 6 -7 10 -15 10 -8
0 -15 -4 -15 -10z"/>
<path d="M15570 24440 c0 -5 6 -10 14 -10 8 0 18 5 21 10 3 6 -3 10 -14 10
-12 0 -21 -4 -21 -10z"/>
<path d="M15620 24440 c0 -5 20 -10 45 -10 25 0 45 5 45 10 0 6 -20 10 -45 10
-25 0 -45 -4 -45 -10z"/>
<path d="M15820 24440 c0 -5 6 -10 14 -10 8 0 18 5 21 10 3 6 -3 10 -14 10
-12 0 -21 -4 -21 -10z"/>
<path d="M15963 24443 c9 -2 23 -2 30 0 6 3 -1 5 -18 5 -16 0 -22 -2 -12 -5z"/>
<path d="M16085 24440 c-3 -5 1 -10 9 -10 9 0 16 5 16 10 0 6 -4 10 -9 10 -6
0 -13 -4 -16 -10z"/>
<path d="M16188 24443 c7 -3 16 -2 19 1 4 3 -2 6 -13 5 -11 0 -14 -3 -6 -6z"/>
<path d="M16315 24440 c-3 -5 1 -10 9 -10 9 0 16 5 16 10 0 6 -4 10 -9 10 -6
0 -13 -4 -16 -10z"/>
<path d="M16395 24440 c4 -6 11 -8 16 -5 14 9 11 15 -7 15 -8 0 -12 -5 -9 -10z"/>
<path d="M16855 24440 c3 -5 10 -10 16 -10 5 0 9 5 9 10 0 6 -7 10 -16 10 -8
0 -12 -4 -9 -10z"/>
<path d="M3950 24430 c0 -5 5 -10 10 -10 6 0 10 5 10 10 0 6 -4 10 -10 10 -5
0 -10 -4 -10 -10z"/>
<path d="M4125 24430 c3 -5 12 -10 20 -10 8 0 17 5 20 10 4 6 -5 10 -20 10
-15 0 -24 -4 -20 -10z"/>
<path d="M15458 24433 c7 -3 16 -2 19 1 4 3 -2 6 -13 5 -11 0 -14 -3 -6 -6z"/>
<path d="M17870 23901 c0 -6 5 -13 10 -16 6 -3 10 1 10 9 0 9 -4 16 -10 16 -5
0 -10 -4 -10 -9z"/>
<path d="M13560 22762 c-124 -7 -359 -36 -387 -47 -37 -16 -39 -24 -17 -67 15
-30 17 -30 67 -23 29 3 106 13 172 20 66 7 136 18 155 24 45 14 206 14 305 0
81 -11 274 -64 289 -80 23 -22 56 -3 56 31 0 27 -91 66 -240 104 -118 30 -278
45 -400 38z"/>
<path d="M14767 22546 c-3 -7 6 -99 20 -202 29 -216 36 -451 15 -524 -57 -199
-105 -306 -292 -655 -123 -230 -143 -285 -101 -285 14 0 28 16 45 50 14 28 43
81 65 118 42 73 157 291 232 443 127 255 153 457 104 804 -29 201 -44 265 -65
265 -10 0 -20 -6 -23 -14z"/>
<path d="M6813 22240 c-24 -10 -43 -24 -43 -29 0 -17 33 -29 55 -20 27 10 47
11 43 1 -1 -5 -44 -43 -94 -84 -92 -77 -205 -203 -280 -313 -57 -83 -156 -266
-189 -350 -75 -187 -66 -373 25 -492 62 -81 181 -124 248 -89 54 28 42 46 -31
45 -83 -1 -137 25 -172 84 -86 147 -73 316 41 539 133 260 313 483 479 595 76
51 87 65 83 100 -3 27 -5 28 -63 31 -43 1 -72 -4 -102 -18z"/>
<path d="M28306 22238 c-9 -12 -16 -32 -16 -44 0 -32 33 -69 54 -61 14 6 16
18 14 64 -3 65 -24 81 -52 41z"/>
<path d="M5207 22224 c-15 -16 -6 -44 22 -63 22 -16 39 -49 78 -158 93 -255
98 -378 29 -758 -26 -141 -55 -247 -77 -283 -13 -21 -6 -52 11 -52 29 0 58 50
83 145 38 145 84 401 91 510 5 76 -10 258 -25 310 -33 112 -57 175 -98 259
-42 82 -49 91 -76 94 -17 2 -34 0 -38 -4z"/>
<path d="M26978 22197 c-114 -87 -196 -244 -206 -394 -6 -108 11 -158 70 -196
35 -22 53 -27 108 -27 120 0 239 78 299 198 28 55 61 183 61 234 0 55 -70 118
-131 118 -10 0 -25 13 -34 30 -40 78 -97 91 -167 37z m82 -36 c0 -13 -41 -41
-59 -41 -10 0 -8 7 9 25 24 25 50 33 50 16z m-78 -77 c12 -12 21 -14 30 -7 20
16 120 24 160 12 21 -5 47 -22 59 -37 19 -24 21 -36 16 -99 -11 -150 -96 -263
-225 -303 -35 -10 -69 -17 -75 -15 -7 2 -24 6 -38 9 -15 3 -37 22 -53 44 -56
82 -24 253 71 380 28 37 30 38 55 16z"/>
<path d="M29319 22132 c-52 -57 -91 -109 -192 -260 -50 -76 -72 -142 -46 -142
14 0 69 61 69 76 0 4 19 33 43 63 23 31 55 75 70 97 15 23 44 59 63 80 54 59
87 112 80 129 -10 27 -33 16 -87 -43z"/>
<path d="M13803 22163 c-7 -2 -13 -9 -13 -15 0 -5 -24 -47 -54 -91 -68 -103
-157 -271 -191 -362 -32 -84 -65 -218 -65 -262 0 -44 -12 -48 -55 -18 -48 32
-96 45 -166 45 -97 0 -235 -59 -305 -131 -31 -32 -39 -47 -39 -78 0 -55 21
-87 72 -112 106 -51 407 -4 600 94 57 29 70 44 55 59 -7 7 -25 5 -57 -6 -26
-8 -51 -13 -55 -11 -16 10 14 219 47 320 36 114 130 303 207 419 67 102 75
123 54 144 -13 13 -16 13 -35 5z m-440 -772 c14 -5 41 -24 61 -41 29 -26 36
-39 36 -70 0 -37 0 -37 -60 -54 -64 -18 -251 -45 -313 -46 -75 0 -130 48 -101
88 61 87 282 159 377 123z"/>
<path d="M31866 22157 c-17 -12 -21 -35 -18 -94 2 -28 6 -33 26 -33 30 0 38
20 30 81 -7 56 -14 64 -38 46z"/>
<path d="M27771 22096 c-19 -20 -21 -28 -12 -45 18 -34 48 -26 70 18 11 21 17
41 14 45 -14 14 -51 5 -72 -18z"/>
<path d="M9304 22082 c-14 -9 -150 -208 -201 -292 -51 -86 -76 -167 -71 -238
l3 -56 -64 -2 c-108 -4 -246 -47 -322 -100 -45 -31 -52 -46 -37 -78 17 -38 58
-50 147 -42 124 10 490 89 544 118 9 5 17 18 17 28 0 26 -29 26 -140 -1 -242
-57 -470 -90 -470 -69 0 20 111 62 205 78 88 15 95 15 133 -2 22 -10 45 -15
51 -12 14 9 14 43 1 51 -5 3 -10 32 -10 63 0 121 33 192 200 435 34 48 60 96
58 105 -4 18 -27 26 -44 14z"/>
<path d="M10157 22058 c-23 -18 -113 -213 -152 -328 l-32 -95 -76 -12 c-139
-24 -239 -76 -223 -118 10 -28 36 -28 91 -1 63 31 170 60 191 52 10 -4 14 -25
14 -83 1 -105 20 -203 43 -217 26 -16 36 7 25 62 -5 26 -10 92 -11 147 l-2
100 153 7 c145 7 192 17 192 39 0 20 -56 29 -186 29 l-134 0 0 25 c0 30 68
201 132 332 28 57 15 90 -25 61z"/>
<path d="M23520 22038 c-11 -18 -20 -37 -20 -41 0 -4 -15 -40 -34 -80 -18 -40
-43 -95 -56 -124 -20 -46 -27 -54 -75 -73 -63 -26 -79 -41 -70 -70 8 -26 19
-25 55 2 16 12 33 19 36 15 3 -3 -1 -41 -10 -85 -9 -43 -16 -90 -16 -104 0
-29 20 -50 37 -40 10 7 35 95 48 174 3 21 16 50 28 64 21 24 29 26 120 28 56
1 102 7 108 13 24 24 -3 33 -102 33 -54 0 -99 2 -99 5 0 3 17 40 38 83 22 42
47 100 57 128 31 88 -3 141 -45 72z"/>
<path d="M30713 22041 c-63 -46 -94 -91 -187 -271 -36 -71 -69 -142 -186 -405
-51 -113 -45 -176 13 -132 23 17 77 124 77 152 0 24 75 222 128 340 39 88 102
189 145 235 41 42 72 53 63 23 -3 -10 -15 -55 -27 -101 -12 -46 -41 -116 -63
-155 -34 -59 -46 -73 -69 -75 -24 -3 -28 -7 -25 -29 8 -66 70 -44 129 47 27
42 35 48 58 44 18 -4 50 7 106 37 44 23 87 48 96 55 30 26 38 17 32 -38 -4
-44 -2 -58 17 -80 26 -33 47 -35 119 -7 91 34 112 57 145 157 11 31 28 59 42
68 13 9 22 19 19 23 -2 4 -36 13 -74 20 l-70 13 -72 -36 c-39 -20 -78 -36 -85
-36 -15 0 -85 -37 -138 -74 -45 -30 -95 -50 -104 -42 -11 12 -2 127 14 174 15
46 18 81 8 106 -10 26 -66 20 -111 -13z m498 -191 c32 0 24 -47 -14 -85 -24
-24 -46 -35 -81 -40 -53 -8 -58 -6 -58 30 0 55 69 112 120 98 8 -1 22 -3 33
-3z"/>
<path d="M28038 22022 c-70 -40 -183 -152 -213 -213 -15 -28 -29 -76 -32 -106
-5 -49 -3 -56 22 -83 16 -17 39 -30 51 -30 32 0 84 47 105 96 18 39 49 77 49
58 0 -5 -4 -47 -9 -94 -6 -47 -12 -125 -16 -175 -12 -193 -29 -263 -83 -347
-15 -25 -16 -29 -1 -44 66 -65 149 144 149 374 0 31 5 74 11 95 9 33 13 36 34
31 20 -5 25 -2 31 23 15 69 45 155 84 241 41 93 47 127 21 127 -20 0 -48 -41
-72 -105 -11 -30 -34 -92 -51 -138 -17 -45 -34 -80 -37 -76 -3 3 -6 61 -6 127
0 114 -1 122 -19 122 -15 0 -30 -22 -62 -95 -53 -117 -94 -170 -121 -154 -23
14 -27 50 -13 105 15 53 90 134 182 195 54 35 69 50 66 66 -4 30 -17 30 -70 0z"/>
<path d="M19250 22004 c-6 -14 -10 -34 -10 -45 0 -11 -11 -68 -24 -127 -13
-59 -27 -131 -31 -160 -9 -65 -21 -78 -82 -87 -90 -13 -214 -48 -238 -67 -50
-39 -21 -83 39 -59 50 20 188 59 221 63 l30 3 0 -92 c0 -95 9 -121 39 -110 13
5 16 24 16 95 0 55 5 94 13 104 8 11 47 19 134 28 94 10 126 17 139 31 9 10
13 23 9 28 -7 13 -82 13 -185 1 -41 -5 -78 -5 -82 -1 -4 3 8 72 27 151 44 184
51 235 35 255 -19 22 -39 18 -50 -11z"/>
<path d="M27600 21991 c-71 -15 -137 -64 -201 -148 -24 -32 -56 -73 -72 -91
-30 -36 -35 -87 -8 -87 8 0 36 29 63 65 99 131 130 162 186 187 67 30 119 24
128 -14 10 -40 -5 -132 -32 -197 -35 -82 -50 -134 -41 -143 27 -26 94 93 122
216 21 91 16 164 -11 192 -22 21 -84 31 -134 20z"/>
<path d="M28895 21983 c-35 -8 -95 -74 -95 -104 0 -30 42 -71 64 -63 8 3 29
-16 49 -45 24 -33 42 -49 51 -45 23 9 27 33 10 60 -13 18 -15 38 -11 79 3 30
1 70 -4 90 -10 35 -18 39 -64 28z"/>
<path d="M30379 21898 c-91 -93 -92 -93 -101 -66 -7 20 -4 36 11 65 22 45 14
76 -16 57 -50 -31 -81 -127 -49 -153 24 -20 20 -41 -22 -96 -78 -103 -84 -115
-78 -140 11 -43 34 -28 89 58 64 98 81 114 101 97 18 -14 58 -10 63 7 2 6 -5
14 -16 18 -36 11 -23 43 42 108 67 66 97 105 97 125 0 29 -36 6 -121 -80z"/>
<path d="M15684 21968 c-16 -25 -120 -327 -160 -465 -14 -48 -29 -92 -34 -97
-5 -5 -49 -15 -97 -22 -136 -19 -204 -57 -159 -89 14 -10 26 -9 68 7 28 10 80
22 116 25 59 6 65 5 59 -11 -36 -92 -54 -293 -29 -318 18 -18 32 5 32 52 0 56
48 272 61 281 7 4 47 10 89 14 306 24 319 27 306 61 -7 18 -2 18 -288 -2 -73
-6 -88 -4 -88 8 0 21 135 428 160 483 12 26 20 54 18 63 -4 21 -43 28 -54 10z"/>
<path d="M28628 21960 c-25 -7 -78 -42 -141 -92 -23 -19 -31 -20 -47 -10 -17
10 -23 9 -40 -8 -29 -29 -62 -98 -58 -123 6 -45 42 -32 115 40 37 38 83 79
101 91 l32 23 0 -29 c0 -38 24 -60 45 -42 8 7 15 21 15 32 0 10 7 33 16 49 16
32 16 71 -1 75 -5 1 -22 -1 -37 -6z"/>
<path d="M31611 21948 c-12 -4 -52 -10 -90 -13 -87 -6 -100 -11 -108 -43 -5
-20 3 -45 31 -98 32 -60 36 -75 27 -93 -18 -33 -67 -54 -101 -43 -34 12 -40 8
-40 -29 0 -37 9 -41 81 -33 50 6 66 12 90 38 16 17 32 41 36 54 6 26 -14 72
-32 72 -7 0 -13 12 -13 28 -1 15 -2 40 -4 56 -3 27 1 31 38 42 23 7 84 15 135
18 52 4 103 8 114 9 15 1 21 -5 23 -27 3 -23 -6 -38 -41 -75 -24 -25 -51 -57
-61 -71 -18 -28 -21 -66 -5 -75 12 -8 59 32 59 50 0 6 15 29 33 51 43 50 87
120 87 137 0 28 -52 41 -201 51 -20 1 -46 -1 -58 -6z"/>
<path d="M29800 21927 c-62 -31 -115 -107 -113 -165 2 -49 28 -96 75 -133 49
-38 151 -48 206 -20 66 34 61 41 -31 41 -105 0 -141 12 -158 52 -16 40 -5 57
51 77 73 26 146 114 124 149 -17 27 -99 26 -154 -1z m90 -40 c0 -27 -100 -91
-116 -74 -13 12 20 50 59 68 50 22 57 23 57 6z"/>
<path d="M31974 21895 c-10 -25 4 -34 36 -22 25 9 33 9 46 -5 16 -15 15 -20
-9 -60 -18 -32 -40 -51 -79 -71 -106 -54 -130 -22 -53 69 25 28 45 55 45 58 0
20 -45 0 -83 -37 -68 -67 -79 -88 -66 -125 16 -47 46 -51 153 -24 42 11 99 60
122 105 17 32 11 82 -14 110 -19 22 -90 24 -98 2z"/>
<path d="M2329 21798 c-131 -130 -219 -223 -219 -232 0 -4 -8 -19 -18 -34 -61
-89 -77 -120 -102 -194 -16 -46 -31 -104 -35 -128 -8 -52 9 -160 32 -203 28
-55 92 -114 156 -143 55 -25 73 -28 162 -28 118 0 188 17 183 42 -3 15 -19 17
-133 17 -114 1 -136 4 -180 23 -96 44 -141 102 -156 205 -19 129 21 252 134
406 79 109 243 269 312 306 53 29 55 59 4 63 -35 3 -43 -3 -140 -100z"/>
<path d="M32218 21858 c-26 -40 -30 -66 -14 -96 23 -44 63 -55 116 -31 57 26
63 24 55 -12 -9 -38 12 -91 34 -87 10 2 18 19 23 45 4 23 12 51 17 62 6 11 11
36 11 56 0 51 -21 55 -94 15 -81 -43 -100 -39 -104 23 -3 52 -20 62 -44 25z"/>
<path d="M24052 21825 c-125 -24 -215 -74 -250 -140 -69 -134 3 -244 188 -284
40 -9 47 -8 67 11 31 29 14 48 -43 48 -53 0 -123 26 -146 54 -21 26 -23 97 -4
134 24 47 85 82 182 107 80 19 152 19 174 0 21 -19 50 -10 50 15 0 24 -56 58
-105 64 -22 3 -73 -1 -113 -9z"/>
<path d="M3952 21818 c-10 -13 -71 -250 -93 -365 l-11 -62 -48 -16 c-74 -25
-76 -75 -4 -75 39 0 41 -8 23 -105 -9 -48 -8 -60 4 -73 24 -23 35 -6 42 66 14
148 10 141 79 172 104 47 264 97 404 126 26 5 29 29 5 38 -31 12 -179 -15
-293 -55 -150 -52 -160 -54 -160 -38 0 7 15 63 34 124 61 197 68 224 64 247
-3 26 -30 35 -46 16z"/>
<path d="M22589 21790 c-130 -22 -229 -119 -229 -225 0 -69 21 -99 93 -135 96
-47 110 -38 188 113 25 51 50 92 54 92 4 0 16 -25 28 -55 23 -64 115 -161 185
-197 37 -19 44 -20 49 -7 3 10 -21 41 -72 92 -92 91 -104 113 -117 206 -12 90
-20 103 -66 116 -41 11 -47 11 -113 0z m91 -49 c0 -15 -130 -244 -150 -265
-26 -26 -63 -14 -90 28 -19 31 -20 40 -10 78 21 78 137 165 223 167 15 1 27
-3 27 -8z"/>
<path d="M20045 21691 c-75 -36 -137 -90 -171 -147 -22 -37 -26 -54 -22 -95 7
-66 31 -97 109 -136 87 -43 153 -56 289 -57 122 -1 160 9 160 43 0 16 -13 19
-138 24 -194 7 -319 46 -353 108 -36 67 84 195 205 219 22 5 50 4 62 0 28 -11
60 10 51 34 -17 43 -109 47 -192 7z"/>
<path d="M21170 21679 c-91 -5 -174 -9 -185 -9 -27 -1 -65 -27 -65 -45 0 -28
33 -32 145 -19 61 7 177 16 260 19 113 4 153 9 164 20 10 9 12 18 6 24 -16 15
-150 19 -325 10z"/>
<path d="M11313 21639 c-70 -27 -155 -106 -189 -175 -36 -74 -44 -176 -16
-220 45 -71 170 -85 286 -31 72 33 188 125 224 178 15 21 32 38 37 39 6 0 16
-24 23 -52 31 -132 94 -205 187 -216 64 -7 60 18 -7 52 -32 15 -63 40 -77 61
-28 42 -56 136 -66 225 -4 36 -12 71 -17 78 -22 26 -44 12 -71 -47 -35 -77
-84 -134 -167 -197 -80 -61 -182 -100 -235 -90 -51 10 -78 50 -71 105 17 125
152 251 269 251 50 0 68 -17 65 -58 -3 -33 -1 -37 21 -37 20 0 27 7 34 34 25
99 -95 152 -230 100z"/>
<path d="M5843 21613 c-26 -10 -14 -53 20 -73 52 -32 97 -22 97 22 0 30 -82
66 -117 51z"/>
<path d="M16794 21580 c-100 -50 -226 -187 -264 -288 -25 -66 -25 -76 1 -129
26 -54 48 -66 120 -65 95 1 199 67 254 161 17 28 33 51 37 51 3 0 16 -16 28
-35 30 -49 101 -105 134 -105 42 0 31 24 -35 82 -77 67 -89 91 -92 183 -1 41
-8 80 -14 86 -16 16 -42 4 -47 -23 -2 -13 -9 -50 -15 -83 -14 -77 -67 -155
-142 -208 -62 -43 -136 -60 -164 -37 -50 42 28 196 154 304 62 52 81 57 81 21
0 -20 5 -25 25 -25 40 0 61 66 33 102 -21 27 -51 29 -94 8z"/>
<path d="M21365 21559 c-93 -17 -217 -36 -274 -44 -112 -14 -145 -31 -121 -59
17 -21 62 -20 176 5 53 11 163 31 245 44 146 23 205 43 196 68 -6 19 -43 17
-222 -14z"/>
<path d="M18093 21551 c-45 -15 -93 -35 -107 -44 -35 -23 -75 -78 -82 -113 -7
-38 25 -114 61 -143 57 -44 200 -67 240 -37 31 23 12 42 -48 49 -58 6 -139 36
-169 64 -48 43 10 124 116 162 46 16 77 21 101 17 28 -6 36 -3 45 14 8 14 8
26 0 40 -15 28 -57 25 -157 -9z"/>
<path d="M7478 21531 c-152 -49 -348 -242 -348 -344 0 -61 95 -77 171 -28 58
38 96 78 144 158 22 37 45 68 51 70 7 2 14 -16 18 -44 13 -96 47 -202 74 -229
63 -63 124 -81 156 -45 24 27 12 41 -34 41 -72 0 -108 70 -149 286 -16 86 -15
94 12 94 13 0 32 6 42 14 16 12 17 16 6 30 -18 21 -71 20 -143 -3z m-18 -79
c0 -14 -69 -124 -104 -167 -37 -45 -129 -100 -152 -91 -12 5 -12 11 5 44 23
45 145 173 193 202 34 21 58 26 58 12z"/>
<path d="M3166 21490 c-35 -32 -51 -40 -82 -40 -63 -1 -123 -18 -219 -64 -101
-49 -158 -98 -204 -179 -55 -97 -35 -167 49 -167 47 0 102 25 180 83 64 46
171 156 205 208 34 52 103 121 115 114 5 -3 10 -30 10 -59 0 -77 26 -214 50
-264 12 -24 35 -52 53 -62 33 -21 92 -26 116 -11 23 15 5 41 -28 41 -42 0 -77
18 -89 45 -13 29 -27 106 -47 255 -11 84 -20 118 -32 128 -24 18 -29 16 -77
-28z m-86 -99 c0 -17 -185 -196 -240 -232 -67 -45 -129 -64 -147 -46 -32 32
61 147 172 215 90 55 215 91 215 63z"/>
<path d="M4648 21515 c-119 -30 -192 -83 -223 -163 -15 -36 -16 -49 -5 -86 22
-80 95 -126 199 -126 69 0 189 34 198 56 12 31 -13 36 -91 19 -137 -31 -249 7
-249 84 0 99 122 161 319 161 79 0 104 3 114 16 11 12 10 18 -3 32 -23 22
-181 27 -259 7z"/>
<path d="M8083 21485 c-37 -16 -42 -34 -15 -58 26 -24 65 -21 91 7 47 50 -3
84 -76 51z"/>
<path d="M12603 21464 c-17 -12 -16 -15 12 -44 32 -33 61 -36 79 -7 24 38 -51
81 -91 51z"/>
<path d="M17555 21440 c-8 -26 11 -60 35 -60 24 0 38 44 20 65 -18 21 -48 19
-55 -5z"/>
<path d="M24187 21174 c-3 -4 -46 -10 -94 -15 -256 -25 -484 -49 -603 -65 -63
-9 -149 -20 -190 -25 -41 -5 -102 -13 -135 -18 -74 -12 -368 -46 -529 -61
-105 -10 -384 -50 -459 -66 -49 -10 -76 -55 -41 -68 9 -3 44 1 77 10 34 9 89
20 122 25 33 4 89 13 125 18 36 6 160 20 275 31 116 11 305 34 420 50 196 27
276 37 595 75 69 8 193 19 275 25 175 13 188 15 209 36 12 12 13 20 6 35 -10
18 -40 26 -53 13z"/>
<path d="M20177 21064 c-3 -3 -3 -12 -1 -19 3 -7 -6 -15 -23 -18 -43 -10 -60
-24 -46 -38 17 -17 62 -2 75 26 13 29 26 32 42 9 10 -13 18 -13 59 -2 54 14
61 33 16 42 -40 8 -114 8 -122 0z"/>
<path d="M20066 21052 c-14 -14 -3 -21 31 -19 48 4 56 25 9 25 -19 0 -37 -3
-40 -6z"/>
<path d="M19900 21034 c-36 -8 -74 -18 -85 -23 -11 -5 -40 -14 -65 -21 -25 -6
-52 -16 -60 -21 -8 -5 -25 -13 -37 -19 -25 -11 -43 -40 -43 -70 0 -18 5 -15
38 20 43 45 61 50 69 19 5 -18 11 -20 41 -14 43 8 94 45 88 62 -3 8 2 13 13
13 10 0 22 -7 25 -16 9 -24 70 -15 74 11 1 11 16 28 32 37 65 37 26 47 -90 22z"/>
<path d="M19986 20990 c16 -16 66 -17 71 -2 3 8 -8 12 -38 12 -30 0 -40 -3
-33 -10z"/>
<path d="M18203 20916 c-29 -7 -81 -14 -116 -14 -35 -1 -86 -6 -113 -13 -27
-6 -94 -14 -149 -18 -90 -5 -100 -8 -100 -26 0 -13 9 -21 31 -25 65 -14 73
-42 19 -64 -36 -15 -52 -37 -41 -55 4 -6 17 -4 34 5 15 7 34 14 42 14 8 0 27
6 42 14 15 8 40 17 56 21 18 4 32 14 35 27 5 19 3 20 -49 13 -45 -5 -54 -4
-54 9 0 21 43 41 105 51 83 12 129 5 106 -18 -16 -16 -13 -37 4 -37 9 0 20 11
25 25 11 28 26 31 66 13 22 -10 28 -10 38 4 7 10 35 22 61 28 54 12 75 25 75
46 0 17 -45 17 -117 0z"/>
<path d="M16885 20869 c-68 -23 -166 -37 -310 -44 -54 -3 -103 -9 -109 -15 -5
-5 -4 -26 3 -52 25 -86 25 -82 -14 -101 -74 -35 -16 -52 110 -32 28 4 91 27
142 51 105 50 219 82 313 90 114 9 113 8 107 60 -5 58 -14 66 -60 53 -25 -7
-43 -7 -56 1 -28 14 -57 12 -126 -11z"/>
<path d="M17987 20813 c-10 -9 -9 -23 2 -23 5 0 11 7 15 15 5 15 -5 20 -17 8z"/>
<path d="M17509 20598 c-1 -7 -2 -56 -3 -108 l-1 -95 -45 -14 c-120 -36 -171
-79 -140 -116 18 -22 36 -19 58 10 19 24 42 36 93 48 l26 7 8 -110 c7 -116 20
-145 51 -120 13 11 14 30 9 114 -5 77 -4 105 7 118 15 20 138 38 256 38 70 0
73 1 70 22 -5 38 -107 46 -280 22 l-48 -7 0 76 c0 90 -12 127 -40 127 -11 0
-21 -6 -21 -12z"/>
<path d="M13937 20533 c-15 -14 -5 -30 26 -41 31 -12 62 -52 99 -127 45 -89
74 -312 65 -495 -13 -259 -106 -471 -278 -636 -56 -53 -123 -101 -276 -198
-45 -28 -53 -43 -28 -52 16 -6 178 77 243 123 155 114 273 263 329 417 42 117
54 193 60 371 5 154 2 197 -15 300 -25 144 -62 234 -124 299 -42 43 -82 59
-101 39z"/>
<path d="M19460 20513 c-110 -38 -181 -146 -137 -207 22 -30 87 -12 177 49
l79 53 10 -29 c11 -33 58 -101 96 -142 15 -16 25 -30 24 -31 -2 -2 -79 -11
-172 -21 -174 -18 -236 -16 -288 11 -17 8 -37 13 -45 10 -21 -8 -54 -68 -54
-98 0 -37 25 -36 45 1 19 39 32 46 52 29 24 -19 218 -17 323 5 72 14 133 23
188 26 23 2 12 29 -14 35 -24 6 -25 8 -10 25 9 10 16 21 16 24 0 4 -17 35 -38
69 -50 84 -62 113 -62 151 0 18 -5 38 -12 45 -17 17 -124 14 -178 -5z m71 -77
c-16 -20 -110 -66 -133 -66 -50 0 12 68 77 85 53 14 76 6 56 -19z"/>
<path d="M18612 20480 c-143 -48 -239 -131 -252 -218 -10 -60 3 -69 104 -77
142 -12 317 -3 349 18 27 17 44 43 35 52 -2 3 -87 6 -189 8 -185 4 -219 9
-219 32 0 30 157 105 219 105 36 0 80 72 60 96 -14 17 -7 18 -107 -16z"/>
<path d="M19116 20471 c-16 -17 -16 -21 0 -60 11 -27 22 -41 35 -41 26 0 50
51 43 89 -5 26 -11 31 -34 31 -15 0 -35 -8 -44 -19z"/>
<path d="M6773 20458 c2 -7 10 -13 17 -13 7 0 15 6 18 13 2 7 -5 12 -18 12
-13 0 -20 -5 -17 -12z"/>
<path d="M5252 20438 c-17 -17 -15 -32 9 -54 53 -48 169 -256 202 -364 60
-196 32 -425 -75 -615 -72 -127 -176 -245 -217 -245 -34 0 -51 -12 -51 -36 0
-37 40 -42 93 -11 56 33 115 98 181 200 136 208 179 391 146 622 -14 97 -24
124 -87 253 -65 132 -124 224 -155 246 -27 19 -31 19 -46 4z"/>
<path d="M6784 20412 c-124 -80 -224 -188 -337 -365 -75 -116 -108 -183 -145
-292 -63 -190 -66 -296 -12 -433 38 -93 122 -202 157 -202 23 0 13 34 -27 90
-86 120 -117 221 -106 352 22 265 289 673 527 806 47 26 59 50 35 68 -26 19
-25 19 -92 -24z"/>
<path d="M16817 20399 c-113 -27 -187 -102 -187 -191 0 -56 19 -82 75 -103
115 -44 404 20 348 76 -9 9 -29 7 -85 -9 -89 -27 -212 -30 -246 -6 -58 41 4
148 101 172 25 7 64 12 87 12 44 0 61 19 40 45 -14 17 -72 18 -133 4z"/>
<path d="M12566 20299 c-85 -9 -126 -28 -126 -60 0 -31 24 -33 127 -14 107 20
224 18 533 -12 178 -16 230 -14 230 11 0 19 -23 27 -110 37 -41 4 -133 15
-205 23 -174 19 -353 26 -449 15z"/>
<path d="M4023 20168 c-6 -7 -13 -51 -17 -98 -9 -116 -28 -201 -46 -211 -8 -4
-46 -15 -85 -23 -82 -19 -102 -34 -86 -65 15 -27 39 -27 101 0 54 23 84 20 77
-8 -3 -10 -11 -56 -17 -103 -7 -47 -16 -107 -21 -134 -10 -52 -2 -73 24 -63
14 5 23 51 33 157 2 25 9 76 16 113 13 80 16 82 129 92 97 9 149 23 149 39 0
22 -35 25 -137 15 -53 -6 -99 -6 -104 -2 -4 4 1 40 11 78 29 115 35 189 15
208 -20 20 -29 21 -42 5z"/>
<path d="M2422 20122 c-129 -104 -250 -263 -333 -440 -30 -63 -38 -215 -15
-272 25 -64 60 -104 118 -136 50 -27 60 -29 168 -29 96 0 121 3 144 19 44 28
13 40 -66 26 -70 -13 -138 -7 -195 16 -52 22 -71 40 -100 98 -22 43 -24 60
-21 130 3 71 8 92 46 170 23 49 68 123 99 165 72 94 212 237 247 251 16 6 26
17 26 30 0 37 -51 25 -118 -28z"/>
<path d="M13162 20138 c-5 -7 -14 -29 -20 -48 -9 -33 -121 -290 -212 -487 -24
-51 -47 -93 -51 -93 -5 0 -15 12 -23 28 -21 40 -56 69 -105 87 -55 19 -94 19
-159 0 -164 -49 -195 -229 -52 -303 41 -21 54 -23 145 -19 108 6 151 18 259
75 63 33 99 72 82 89 -4 4 -31 -6 -61 -22 -29 -16 -57 -26 -61 -22 -6 6 162
350 280 570 50 95 49 157 -4 157 -4 0 -12 -6 -18 -12z m-430 -578 c47 -13 107
-80 110 -120 0 -17 1 -35 2 -42 2 -19 -71 -36 -152 -37 -156 -2 -225 69 -151
153 41 48 118 66 191 46z"/>
<path d="M26655 20071 c-16 -10 -47 -36 -67 -57 -46 -49 -181 -254 -273 -415
-38 -67 -91 -149 -117 -182 -27 -33 -48 -64 -48 -70 0 -8 -160 -210 -215 -272
-11 -12 -46 -41 -77 -65 -58 -42 -74 -75 -43 -86 8 -4 27 2 42 11 44 29 157
150 235 252 40 52 80 103 88 113 9 12 28 18 50 18 56 0 160 23 233 53 46 19
69 24 72 16 2 -7 6 -59 10 -117 10 -173 30 -250 65 -250 31 0 32 17 10 104
-23 91 -37 255 -24 279 6 9 34 33 64 52 41 26 50 35 33 35 -12 0 -25 -4 -28
-10 -3 -5 -20 -10 -37 -10 l-30 0 7 53 c4 28 29 153 56 277 62 279 61 313 -6
271z m-34 -172 c-29 -125 -71 -364 -71 -402 0 -61 -25 -78 -176 -116 -49 -13
-121 -14 -128 -3 -4 7 16 44 110 199 23 37 73 122 112 188 64 108 158 232 168
222 3 -2 -4 -42 -15 -88z"/>
<path d="M8768 20063 c-18 -21 -92 -290 -137 -498 -34 -156 -36 -158 -85 -86
-74 110 -227 143 -313 68 l-35 -31 4 -77 c3 -69 6 -81 34 -116 50 -62 106 -94
176 -100 122 -12 328 28 415 80 55 32 24 38 -63 12 -121 -35 -223 -48 -323
-43 -105 6 -129 20 -166 92 -48 95 -27 154 58 163 90 10 178 -42 220 -131 15
-31 27 -64 27 -72 0 -9 5 -14 12 -12 10 4 26 50 109 318 21 67 44 142 59 195
14 50 39 115 60 156 23 44 25 70 8 87 -17 17 -42 15 -60 -5z"/>
<path d="M15341 20011 c-10 -10 -26 -39 -36 -65 -17 -44 -17 -48 -2 -63 15
-15 18 -15 35 1 19 16 20 16 26 -6 3 -13 6 -78 6 -145 l0 -123 -149 0 c-123 0
-152 -3 -165 -16 -22 -21 -20 -41 4 -54 13 -7 46 -7 107 0 48 5 115 10 147 10
l59 0 -7 -112 c-4 -62 -16 -187 -28 -278 -28 -214 -28 -214 -2 -218 13 -2 24
4 29 15 12 31 45 302 54 447 6 99 12 141 22 147 8 5 113 9 234 9 217 0 265 4
265 21 0 24 -53 31 -273 32 l-232 2 -6 165 c-7 188 -19 250 -49 250 -11 0 -28
-8 -39 -19z"/>
<path d="M27402 19968 c-34 -43 -101 -232 -127 -358 -47 -227 -61 -284 -120
-494 -20 -73 -12 -84 65 -87 154 -7 344 104 427 251 41 71 48 103 33 140 -10
25 -19 30 -66 36 -84 10 -144 -10 -233 -76 -42 -32 -86 -72 -99 -89 -24 -34
-49 -43 -37 -13 4 9 13 40 20 67 92 357 122 462 152 532 19 45 32 87 28 92 -8
15 -30 14 -43 -1z m215 -565 c9 -22 -13 -100 -38 -135 -64 -90 -210 -181 -311
-195 -36 -5 -38 -4 -38 21 0 45 69 163 127 218 55 52 164 108 211 108 30 0 44
-5 49 -17z"/>
<path d="M4755 19935 c-120 -48 -205 -188 -205 -336 0 -95 17 -130 78 -158 41
-19 54 -20 106 -11 79 13 132 48 94 63 -7 2 -43 0 -79 -6 -36 -5 -77 -7 -91
-4 -89 23 -47 275 60 354 49 36 89 53 146 59 45 5 56 10 56 25 0 44 -75 51
-165 14z"/>
<path d="M30228 19949 c-10 -5 -22 -28 -28 -50 -15 -55 -155 -338 -182 -366
-12 -12 -31 -26 -42 -29 -39 -12 -50 -58 -17 -69 10 -3 22 -16 25 -28 6 -21 9
-19 49 26 53 59 112 78 257 81 51 1 65 4 65 16 0 13 -20 15 -127 13 -71 -2
-128 0 -128 3 0 4 22 45 48 93 102 182 138 273 120 305 -10 18 -16 19 -40 5z"/>
<path d="M9842 19937 c-20 -23 -31 -66 -42 -154 -16 -130 -17 -132 -66 -154
-29 -12 -44 -24 -44 -37 0 -25 19 -42 47 -42 28 0 27 5 4 -111 -32 -160 -32
-159 -15 -166 8 -3 18 -3 21 1 4 3 19 68 35 143 15 75 32 141 37 146 10 10
145 32 283 47 148 15 168 19 168 35 0 35 -91 44 -235 25 -38 -6 -99 -13 -134
-17 l-64 -6 7 43 c4 25 21 86 38 137 17 51 28 99 24 108 -7 18 -49 20 -64 2z"/>
<path d="M23136 19922 c-9 -11 -23 -43 -31 -73 -37 -132 -66 -258 -71 -312 -3
-31 -12 -63 -19 -71 -8 -8 -47 -19 -87 -26 -88 -14 -102 -21 -106 -49 -5 -33
19 -35 109 -7 45 14 84 24 86 22 2 -2 -6 -58 -18 -125 -11 -67 -18 -128 -15
-136 7 -20 33 -19 44 3 10 20 28 110 38 194 4 35 13 63 24 73 11 10 58 21 131
30 304 37 446 96 169 70 -74 -7 -170 -19 -213 -26 -42 -6 -80 -9 -84 -6 -10
10 35 229 68 333 28 89 30 124 4 124 -6 0 -19 -8 -29 -18z"/>
<path d="M3071 19893 c-30 -16 -73 -50 -97 -76 -84 -93 -165 -304 -147 -378
13 -49 71 -77 122 -59 66 23 92 57 187 245 33 66 66 120 73 120 10 0 15 -22
18 -80 8 -167 34 -240 96 -272 65 -33 178 -6 185 45 4 26 -4 27 -51 7 -79 -33
-133 -9 -156 69 -8 28 -14 104 -15 188 l-2 141 -45 38 c-55 48 -93 50 -168 12z
m134 -45 c-6 -20 -69 -138 -100 -189 -5 -9 -27 -46 -48 -82 -51 -89 -112 -149
-146 -145 -46 5 -38 75 25 215 41 90 74 134 139 184 40 31 59 39 93 39 40 0
43 -2 37 -22z"/>
<path d="M18315 19913 c-58 -4 -185 -35 -185 -46 0 -5 12 -6 28 -1 15 4 41 8
57 9 56 2 145 17 150 25 8 12 -5 16 -50 13z"/>
<path d="M18395 19910 c-4 -6 5 -10 19 -10 14 0 26 5 26 10 0 6 -9 10 -19 10
-11 0 -23 -4 -26 -10z"/>
<path d="M16825 19900 c-38 -5 -91 -13 -116 -18 -26 -5 -60 -7 -76 -5 -40 6
-64 -21 -40 -44 15 -15 25 -15 129 5 120 23 200 35 233 36 11 1 20 8 20 16 0
18 -49 21 -150 10z"/>
<path d="M17004 19901 c-14 -14 4 -19 74 -20 70 0 75 1 57 14 -17 14 -118 18
-131 6z"/>
<path d="M6061 19836 c-9 -10 -7 -19 8 -37 16 -20 23 -22 38 -13 10 6 19 23
21 38 3 23 0 26 -26 26 -16 0 -35 -6 -41 -14z"/>
<path d="M6935 19810 c-93 -23 -221 -133 -270 -233 -32 -66 -58 -191 -50 -237
14 -77 89 -150 154 -150 37 0 144 54 175 89 11 12 25 21 32 21 20 0 72 69 111
150 36 75 52 96 64 82 3 -4 14 -36 24 -72 21 -75 58 -147 89 -173 35 -29 97
-59 112 -53 25 9 15 24 -38 57 -29 17 -58 39 -65 48 -49 64 -80 214 -70 337
l7 74 -70 35 c-72 36 -132 44 -205 25z m180 -64 l29 -24 -13 -52 c-7 -29 -20
-64 -27 -79 -8 -14 -14 -32 -14 -39 0 -37 -95 -172 -160 -229 -128 -110 -212
-109 -246 5 -31 108 -3 215 82 304 113 121 275 173 349 114z"/>
<path d="M30485 19796 c-21 -15 -23 -57 -5 -111 16 -47 34 -60 55 -39 13 14
16 28 11 62 -3 25 -6 58 -6 73 0 33 -23 39 -55 15z"/>
<path d="M11049 19733 c-108 -55 -202 -142 -243 -224 -80 -162 43 -262 245
-199 114 35 281 154 402 286 27 30 54 53 60 51 5 -1 20 -41 32 -87 38 -146 44
-164 65 -197 35 -58 65 -30 37 35 -9 20 -28 90 -42 156 -30 138 -45 166 -87
166 -24 0 -45 -17 -115 -90 -102 -106 -162 -154 -263 -211 -161 -89 -300 -93
-300 -8 0 96 165 254 302 291 38 9 55 10 82 0 36 -13 61 -9 70 14 10 25 -5 43
-42 54 -69 19 -107 12 -203 -37z"/>
<path d="M29177 19745 c-21 -14 -39 -25 -41 -25 -8 0 -177 -110 -243 -158 -92
-67 -141 -124 -183 -209 -24 -48 -35 -86 -38 -129 -4 -57 -2 -63 18 -69 15 -5
29 0 45 15 21 19 23 29 18 70 -5 40 0 58 27 114 37 75 99 137 213 213 39 27
86 58 102 70 17 11 59 39 95 63 36 23 65 47 65 53 0 22 -41 18 -78 -8z"/>
<path d="M30696 19624 c-125 -137 -159 -229 -117 -312 31 -62 61 -77 146 -75
81 1 116 17 141 64 13 26 12 34 -6 86 -11 32 -20 58 -20 60 0 1 -25 19 -56 39
-31 20 -58 44 -61 51 -3 8 8 29 24 46 17 18 37 43 46 57 21 30 22 80 4 80 -8
0 -53 -43 -101 -96z m29 -134 c19 0 71 -78 78 -118 6 -28 2 -38 -22 -63 -34
-33 -69 -37 -112 -12 -19 11 -31 28 -35 49 -11 59 32 162 63 150 8 -3 21 -6
28 -6z"/>
<path d="M28147 19675 c-61 -23 -177 -84 -214 -113 -18 -15 -48 -49 -65 -75
-25 -40 -30 -55 -25 -88 6 -45 43 -106 69 -115 27 -8 78 -63 78 -84 0 -26 -60
-60 -106 -60 -52 0 -115 37 -136 80 -24 47 -54 48 -50 2 8 -104 139 -153 274
-102 48 18 88 57 88 86 0 4 -36 43 -81 85 -79 76 -80 78 -73 116 10 56 39 108
75 134 17 12 77 45 132 73 93 47 118 68 85 73 -7 1 -30 -5 -51 -12z"/>
<path d="M31152 19618 c-27 -35 -73 -83 -101 -107 -38 -31 -51 -49 -49 -65 5
-36 55 -32 134 10 112 59 204 104 215 104 5 0 20 6 32 14 12 8 47 17 78 21 50
6 59 4 85 -18 26 -22 29 -31 28 -79 -1 -29 -9 -75 -18 -102 -18 -52 -16 -76 7
-76 55 0 93 192 53 269 -24 45 -73 64 -156 59 -53 -3 -83 -13 -163 -52 -54
-26 -101 -45 -104 -42 -3 3 6 23 21 44 31 46 35 82 7 82 -12 0 -39 -25 -69
-62z"/>
<path d="M22170 19645 c-188 -48 -360 -204 -360 -327 0 -138 144 -210 288
-143 86 40 230 144 280 203 26 30 59 68 73 85 l26 31 7 -70 c19 -188 43 -256
106 -298 45 -30 85 -33 118 -10 38 26 28 45 -18 38 -48 -8 -74 10 -98 66 -22
54 -42 225 -35 307 5 64 4 73 -12 79 -13 6 -32 -8 -72 -52 -187 -202 -249
-255 -371 -318 -46 -24 -124 -32 -161 -16 -86 35 -79 167 13 248 101 88 205
126 333 121 73 -3 87 -1 97 13 29 47 -99 72 -214 43z"/>
<path d="M7802 19637 c-6 -7 -9 -23 -5 -36 8 -32 57 -26 61 8 5 36 -34 55 -56
28z"/>
<path d="M23875 19625 c-134 -39 -190 -64 -233 -101 -80 -68 -115 -159 -93
-241 22 -80 74 -121 216 -170 118 -41 325 -42 325 -2 0 12 -26 17 -139 29
-226 22 -341 90 -341 200 0 36 23 90 55 128 32 38 160 90 264 106 76 12 100
28 88 60 -9 22 -46 20 -142 -9z"/>
<path d="M12142 19621 c-18 -11 -11 -61 11 -75 22 -14 51 3 55 33 6 40 -32 64
-66 42z"/>
<path d="M16785 19609 c-33 -10 -66 -19 -74 -19 -7 0 -55 -20 -105 -44 -184
-87 -248 -205 -182 -334 22 -43 109 -122 135 -122 6 0 28 -9 48 -20 21 -11 77
-26 123 -35 93 -16 267 -20 289 -6 25 16 0 31 -54 31 -61 0 -186 15 -260 32
-94 21 -212 96 -239 152 -25 54 -21 122 10 159 15 17 34 36 44 42 113 66 217
103 318 112 58 5 76 10 87 26 33 48 -33 60 -140 26z"/>
<path d="M20308 19610 c-10 -6 -18 -21 -18 -34 0 -41 22 -49 113 -42 45 3 168
7 272 8 105 1 222 4 262 7 69 6 106 22 89 38 -4 5 -148 11 -319 14 -172 4
-328 9 -347 13 -20 4 -43 2 -52 -4z"/>
<path d="M29655 19560 c-95 -14 -224 -91 -322 -192 -133 -138 -269 -437 -237
-522 9 -25 48 -19 76 12 63 66 169 334 127 320 -11 -4 -32 -41 -75 -136 -44
-99 -75 -113 -33 -16 50 118 73 163 112 222 44 65 61 78 51 37 -7 -29 27 -91
56 -100 76 -24 169 11 269 102 128 116 162 240 75 273 -28 11 -26 11 -99 0z
m74 -44 c47 -56 -127 -254 -252 -287 -64 -18 -76 -6 -75 75 0 62 1 64 42 99
23 19 60 44 81 56 22 12 47 25 55 30 69 40 129 51 149 27z"/>
<path d="M28370 19550 c-57 -5 -124 -42 -117 -64 6 -19 31 -18 82 5 67 30 121
30 168 2 31 -20 37 -28 37 -59 0 -71 -50 -128 -146 -164 -43 -16 -59 -18 -70
-9 -19 15 -18 61 3 120 18 50 15 66 -12 55 -18 -7 -75 -122 -75 -152 0 -31 35
-71 67 -77 36 -7 175 51 227 94 85 71 88 185 5 230 -31 16 -108 25 -169 19z"/>
<path d="M30422 19528 c-6 -6 -12 -17 -12 -24 0 -7 -36 -60 -79 -118 -44 -59
-83 -111 -86 -116 -8 -14 4 -50 17 -50 14 0 90 83 133 145 20 28 45 62 56 76
29 36 31 93 4 97 -11 1 -26 -3 -33 -10z"/>
<path d="M20406 19412 c-27 -30 -7 -57 51 -71 100 -24 436 8 472 44 26 26 2
36 -62 25 -131 -21 -269 -23 -337 -5 -104 28 -104 28 -124 7z"/>
<path d="M12442 18794 c-16 -11 -22 -24 -20 -42 3 -25 6 -27 41 -24 29 2 47
-3 73 -23 74 -57 253 -375 306 -545 20 -64 23 -96 23 -220 0 -127 -3 -154 -24
-215 -45 -131 -112 -237 -199 -314 -15 -13 -70 -62 -122 -110 -52 -47 -114
-104 -138 -125 -48 -44 -97 -120 -87 -136 12 -20 40 -10 67 24 15 19 94 94
175 167 81 73 174 160 205 193 201 215 252 524 136 828 -35 92 -136 290 -181
357 -50 74 -128 155 -171 178 -50 27 -55 27 -84 7z"/>
<path d="M5007 18783 c-12 -11 -8 -48 7 -69 26 -37 76 -208 92 -314 23 -151
10 -283 -44 -440 -28 -80 -55 -129 -112 -205 -50 -65 -57 -95 -25 -95 42 0
155 150 188 250 5 14 12 34 17 45 28 65 43 152 48 275 4 112 1 155 -18 250
-21 109 -64 238 -96 288 -14 21 -43 29 -57 15z"/>
<path d="M2301 18750 c-108 -60 -244 -181 -316 -280 -61 -84 -124 -219 -136
-290 -13 -83 -11 -120 12 -194 51 -163 230 -267 459 -265 104 0 163 15 168 41
3 15 -8 16 -110 11 -87 -4 -128 -2 -178 11 -188 49 -275 136 -287 292 -7 83
16 171 68 269 84 158 279 339 396 369 41 10 48 16 48 37 0 37 -55 37 -124 -1z"/>
<path d="M6390 18688 c-79 -39 -207 -179 -279 -306 -69 -122 -133 -293 -150
-401 -19 -121 8 -277 71 -409 35 -74 133 -182 165 -182 41 0 35 22 -19 78 -85
89 -115 145 -143 275 -32 147 -6 310 78 488 105 224 237 374 355 404 53 14 73
35 53 59 -19 23 -78 20 -131 -6z"/>
<path d="M13319 18644 c-17 -20 -1 -85 72 -306 100 -303 109 -405 47 -575 -57
-159 -125 -266 -353 -553 -143 -180 -165 -214 -148 -231 19 -19 8 -31 293 323
65 81 136 173 158 205 78 115 131 243 153 368 20 115 -14 286 -101 510 -22 55
-43 118 -49 140 -25 104 -32 123 -45 128 -8 3 -20 -1 -27 -9z"/>
<path d="M8763 18614 c-76 -20 -122 -46 -188 -106 -172 -157 -296 -356 -329
-528 -35 -181 57 -411 199 -501 65 -42 99 -53 121 -41 14 8 7 16 -43 50 -90
61 -122 98 -167 192 -40 85 -40 85 -40 205 0 109 3 127 30 200 43 111 129 241
227 340 98 99 150 127 252 135 63 4 70 7 73 28 2 12 -3 24 -10 26 -39 12 -79
12 -125 0z"/>
<path d="M3726 18508 c-14 -34 -31 -118 -41 -201 -5 -39 -11 -50 -35 -62 -55
-29 -58 -75 -4 -75 28 0 34 -17 34 -103 0 -121 27 -237 55 -237 26 0 28 24 11
172 -9 79 -13 160 -10 181 6 35 9 38 70 57 35 10 111 26 170 35 118 17 124 19
124 41 0 25 -164 14 -322 -22 -36 -8 -36 7 -2 128 14 50 23 97 20 104 -3 8
-17 14 -31 14 -20 0 -29 -8 -39 -32z"/>
<path d="M11425 18533 c-11 -2 -30 -6 -42 -9 -27 -5 -45 -36 -36 -59 6 -19 34
-17 138 5 52 12 236 8 510 -10 231 -15 375 -13 375 4 0 8 -4 17 -9 20 -5 3
-173 17 -374 31 -339 23 -513 29 -562 18z"/>
<path d="M9726 18427 c-61 -63 -131 -168 -165 -244 -30 -71 -61 -176 -61 -211
0 -31 -11 -33 -79 -12 -75 24 -130 25 -198 5 -109 -32 -183 -122 -168 -203 10
-51 75 -114 149 -141 85 -32 260 -40 341 -16 77 22 135 52 135 69 0 25 -25 24
-96 -2 -94 -34 -237 -35 -334 -2 -72 24 -102 47 -120 91 -10 24 -9 33 7 61 10
18 38 46 62 63 36 25 54 30 116 33 63 4 80 1 110 -18 43 -27 56 -49 64 -114 6
-49 7 -51 36 -51 l30 0 -4 91 c-4 113 23 230 84 359 39 84 116 193 157 223 22
16 23 48 2 56 -24 9 -25 9 -68 -37z"/>
<path d="M10697 18347 c-24 -19 -76 -188 -98 -321 -11 -67 -23 -124 -27 -128
-4 -3 -70 -14 -147 -23 -150 -18 -188 -32 -183 -68 4 -32 48 -33 189 -1 75 16
124 23 130 17 6 -6 -6 -83 -32 -204 -49 -231 -49 -232 -25 -237 35 -7 31 -20
101 328 14 68 25 125 25 126 0 2 101 15 160 20 162 13 250 30 250 49 0 7 -8
15 -17 17 -19 5 -188 -5 -305 -18 l-68 -7 0 32 c0 38 20 121 66 282 19 63 34
118 34 122 0 16 -38 26 -53 14z"/>
<path d="M2900 18307 c-109 -37 -171 -90 -219 -186 -59 -118 -87 -239 -70
-307 16 -63 50 -87 112 -81 66 6 95 42 152 192 71 182 83 210 92 208 4 -1 24
-43 43 -95 48 -125 83 -182 124 -202 58 -27 156 -15 156 19 0 12 -13 15 -58
15 -48 0 -62 4 -79 23 -29 31 -56 89 -87 187 -39 121 -57 154 -85 158 -13 2
-28 -1 -33 -6 -10 -10 -109 -237 -142 -324 -21 -56 -71 -128 -90 -128 -7 0
-21 9 -31 20 -24 26 -15 118 21 215 59 161 137 238 255 252 50 6 80 26 63 43
-20 19 -62 18 -124 -3z"/>
<path d="M4263 18304 c-63 -23 -79 -87 -48 -192 20 -65 53 -104 113 -134 40
-19 62 -23 148 -22 83 1 109 5 148 23 44 22 58 43 36 56 -6 4 -36 -1 -68 -10
-69 -21 -173 -23 -225 -6 -64 21 -114 136 -87 200 13 33 33 41 103 41 51 0 70
18 47 45 -16 20 -110 19 -167 -1z"/>
<path d="M11967 18272 c-32 -35 -223 -449 -257 -557 -17 -54 -26 -62 -40 -34
-20 39 -83 99 -120 116 -51 23 -157 20 -206 -5 -128 -66 -154 -205 -54 -290
72 -61 225 -75 360 -33 108 33 204 87 250 139 69 78 45 98 -39 32 -94 -74
-141 -96 -141 -65 0 53 244 583 297 647 36 42 -13 91 -50 50z m-399 -552 c57
-41 101 -116 102 -172 0 -24 -57 -39 -171 -45 -78 -4 -102 -2 -129 12 -85 44
-103 108 -48 171 42 47 79 63 149 64 47 0 63 -5 97 -30z"/>
<path d="M26219 18270 c-119 -36 -275 -245 -348 -465 -76 -232 -112 -538 -79
-675 6 -25 10 -71 9 -102 -2 -50 1 -59 23 -73 56 -37 135 20 269 193 106 139
144 187 183 232 111 129 163 225 179 332 13 83 -32 395 -70 484 -23 55 -58 84
-102 83 -21 0 -50 -4 -64 -9z m92 -71 c40 -76 86 -364 75 -477 -8 -89 -39
-151 -137 -271 -96 -117 -150 -187 -250 -318 -69 -92 -126 -146 -141 -137 -13
8 -9 53 8 79 12 18 13 28 4 44 -20 38 -23 237 -6 386 35 309 129 523 290 664
52 44 65 51 102 51 34 0 46 -5 55 -21z"/>
<path d="M14433 18233 c-7 -2 -13 -19 -13 -36 0 -48 -75 -396 -88 -409 -4 -4
-82 -17 -173 -28 -199 -25 -199 -25 -199 -56 0 -46 39 -49 175 -16 132 33 195
45 195 38 0 -2 -7 -40 -16 -83 -23 -116 -42 -256 -37 -270 7 -17 38 -17 51 0
5 6 20 75 32 152 29 190 36 214 63 220 12 2 74 11 137 20 228 32 359 53 369
60 18 10 13 22 -11 28 -24 7 -329 -26 -400 -43 -49 -11 -108 -13 -108 -4 0 4
18 75 40 158 22 84 40 173 41 199 3 62 -18 87 -58 70z"/>
<path d="M5698 18199 c-40 -23 -11 -73 39 -67 34 4 45 44 17 65 -21 15 -33 16
-56 2z"/>
<path d="M28917 18155 c-8 -7 -17 -37 -21 -65 -8 -57 -91 -306 -141 -420 -18
-41 -56 -115 -84 -164 -28 -49 -51 -95 -51 -102 0 -7 13 -20 29 -28 16 -9 31
-22 34 -31 4 -8 15 -15 26 -15 11 0 21 -5 23 -11 6 -17 80 -19 138 -3 132 38
220 129 236 248 6 40 4 45 -25 65 -17 12 -46 25 -65 28 -46 7 -131 -22 -186
-64 -24 -19 -46 -30 -48 -24 -2 5 16 47 38 93 72 144 159 432 145 477 -8 26
-31 33 -48 16z m122 -561 c26 -24 -5 -88 -69 -148 -71 -65 -118 -88 -186 -90
-97 -2 -97 35 -2 135 35 37 86 81 113 98 42 26 56 30 90 25 22 -3 46 -12 54
-20z"/>
<path d="M6840 18146 c-90 -24 -192 -113 -232 -201 -29 -65 -32 -202 -4 -253
25 -48 72 -66 142 -53 106 20 193 94 269 229 22 39 45 72 52 72 6 0 15 -15 18
-32 25 -114 152 -295 219 -312 55 -14 52 10 -11 74 -33 33 -75 87 -92 120 -38
71 -81 193 -81 230 0 31 -25 70 -46 70 -8 0 -19 11 -24 24 -15 40 -121 57
-210 32z m150 -58 c46 -15 48 -22 21 -101 -37 -105 -142 -238 -216 -273 -62
-29 -99 -30 -126 -3 -19 19 -21 30 -17 103 5 96 35 164 94 216 75 65 157 85
244 58z"/>
<path d="M22888 18049 c-28 -16 -84 -229 -103 -392 -8 -74 -24 -81 -152 -72
-87 6 -91 6 -98 -15 -15 -48 34 -60 165 -40 30 4 58 5 62 1 3 -3 0 -58 -7
-121 -21 -172 -20 -302 3 -330 32 -40 46 -17 39 65 -7 75 15 322 32 367 13 33
19 35 168 48 126 11 264 33 284 46 18 11 -12 24 -55 24 -36 0 -131 -10 -281
-30 -33 -4 -70 -4 -81 0 -26 10 -25 16 34 267 43 180 41 212 -10 182z"/>
<path d="M30111 18018 c-6 -13 -15 -47 -21 -76 -13 -70 -48 -150 -70 -162 -9
-5 -40 -9 -69 -8 -59 0 -101 -22 -101 -53 0 -22 14 -23 108 -3 44 9 42 -8 -13
-87 -43 -61 -53 -88 -39 -102 18 -18 64 34 140 159 27 44 29 46 61 50 38 4
185 -36 214 -59 52 -40 48 -112 -11 -210 -22 -36 -40 -71 -40 -76 0 -6 12 -11
26 -11 33 0 80 51 98 110 20 60 21 77 13 130 -13 75 -54 110 -160 134 -36 8
-81 12 -102 9 l-37 -6 5 39 c2 21 16 67 31 101 21 49 25 69 18 100 -9 45 -37
56 -51 21z"/>
<path d="M7913 18024 c-15 -6 -18 -54 -4 -54 5 0 11 -12 13 -27 5 -44 40 -42
83 4 33 36 34 39 17 54 -18 18 -88 32 -109 23z"/>
<path d="M30491 17989 c-42 -42 -56 -72 -49 -106 5 -28 40 -21 63 13 30 44 51
112 38 125 -7 7 -23 -4 -52 -32z"/>
<path d="M15698 17985 c-148 -37 -327 -158 -341 -230 -8 -46 10 -124 38 -161
49 -64 241 -153 425 -197 118 -28 298 -51 324 -41 39 15 2 30 -124 50 -160 27
-223 44 -355 95 -160 63 -235 130 -235 212 0 98 209 222 385 228 84 3 139 -15
192 -64 36 -33 48 -39 61 -30 46 28 6 84 -88 126 -59 26 -202 32 -282 12z"/>
<path d="M28381 17974 c-14 -18 -21 -41 -21 -70 0 -40 2 -44 24 -44 35 0 47
22 44 81 -3 61 -17 71 -47 33z"/>
<path d="M27473 17955 c-114 -31 -242 -112 -350 -221 -74 -75 -97 -116 -88
-153 3 -14 33 -53 65 -86 74 -76 110 -130 110 -165 0 -71 -152 -147 -214 -107
-27 18 -38 71 -25 127 11 45 3 70 -21 70 -33 0 -50 -39 -50 -112 0 -37 5 -78
11 -92 46 -99 306 -49 355 70 12 29 12 39 -2 81 -18 54 -70 125 -120 166 -51
42 -47 80 14 154 84 100 223 194 336 226 92 26 116 3 116 -111 0 -79 -7 -89
-80 -118 -104 -41 -145 -68 -148 -96 -3 -24 0 -28 22 -28 14 0 40 13 58 28 48
41 90 68 117 77 24 7 24 7 17 -44 -4 -28 -18 -95 -32 -148 -37 -143 -37 -141
-31 -158 9 -21 35 -8 52 25 27 52 54 145 70 240 9 52 22 101 30 109 7 7 33 17
58 22 47 8 94 -8 140 -48 49 -44 60 -136 30 -249 -13 -49 -14 -67 -5 -76 19
-19 57 8 133 98 97 115 188 184 240 184 20 0 3 -53 -57 -176 -31 -65 -59 -135
-62 -157 -5 -38 -4 -39 19 -32 13 4 28 11 32 15 16 14 146 301 153 335 5 28 2
36 -18 49 -20 13 -34 14 -76 6 -60 -11 -115 -43 -197 -117 -68 -60 -90 -67
-82 -25 6 30 -18 125 -40 159 -8 13 -31 33 -51 45 -31 19 -49 22 -128 20 l-92
-1 -4 90 c-3 85 -5 92 -31 115 -33 28 -91 31 -174 9z"/>
<path d="M26703 17863 c-13 -8 -23 -24 -23 -35 0 -10 -12 -30 -26 -45 -25 -25
-25 -27 -28 -207 -2 -128 -8 -208 -21 -274 -18 -87 -18 -93 -2 -109 15 -15 19
-16 32 -2 8 8 22 48 31 89 16 77 43 358 44 448 0 38 6 61 21 81 35 48 16 85
-28 54z"/>
<path d="M31141 17798 c-69 -26 -145 -99 -160 -153 -27 -99 -3 -157 98 -233
30 -23 144 -72 165 -72 6 0 43 -9 81 -21 135 -41 148 -43 223 -44 51 0 76 4
79 12 7 18 -26 28 -172 53 -71 13 -134 26 -140 30 -5 4 -48 20 -95 35 -89 30
-166 76 -175 105 -13 41 2 48 103 52 114 4 182 31 219 87 33 50 30 81 -14 123
-51 48 -130 58 -212 26z m170 -38 c13 -7 19 -21 19 -45 0 -48 -50 -87 -151
-115 l-80 -23 -24 23 c-14 13 -25 31 -25 40 0 52 116 130 193 130 27 0 57 -5
68 -10z"/>
<path d="M21800 17764 c-134 -29 -275 -125 -319 -219 -25 -53 -28 -133 -6
-175 23 -45 53 -60 118 -60 103 0 157 44 246 198 23 40 46 70 51 67 4 -3 11
-24 15 -48 20 -126 54 -204 117 -265 37 -36 53 -43 96 -49 44 -5 52 -3 52 10
0 10 -20 26 -47 39 -57 27 -95 79 -122 164 -23 71 -55 269 -47 283 4 6 17 6
37 -1 25 -9 34 -8 47 6 54 53 -87 83 -238 50z m80 -51 c-1 -76 -178 -324 -250
-351 -41 -16 -85 8 -100 53 -17 51 1 103 58 166 86 96 293 189 292 132z"/>
<path d="M23830 17690 c-65 -16 -80 -24 -112 -59 -52 -59 -59 -119 -23 -198
21 -47 36 -66 77 -92 118 -77 351 -147 373 -111 8 12 -36 34 -110 53 -105 28
-150 47 -200 85 -59 44 -95 95 -95 131 1 49 36 108 77 130 54 27 149 37 211
20 56 -14 82 -4 82 31 0 34 -157 40 -280 10z"/>
<path d="M30522 17693 c-5 -10 -17 -59 -27 -110 -25 -132 -4 -175 78 -158 47
11 182 95 262 165 110 96 115 102 110 110 -9 14 -105 -39 -200 -110 -91 -67
-142 -96 -180 -102 -17 -3 -19 2 -17 32 2 19 10 57 18 84 8 27 14 62 14 78 0
23 -4 28 -25 28 -13 0 -28 -8 -33 -17z"/>
<path d="M20085 17681 c-154 -4 -286 -10 -292 -14 -17 -11 -16 -54 1 -60 8 -3
45 -2 83 3 37 5 171 14 296 20 126 5 237 15 248 20 24 13 25 30 2 30 -10 0
-27 2 -38 4 -11 1 -146 0 -300 -3z"/>
<path d="M29226 17632 c-15 -25 -56 -172 -56 -203 0 -39 11 -57 52 -82 52 -32
169 9 281 99 84 68 156 174 118 174 -5 0 -45 -33 -89 -72 -119 -108 -244 -178
-286 -162 -20 8 -21 55 -2 92 25 50 47 124 41 143 -6 19 -49 27 -59 11z"/>
<path d="M19931 17486 c-20 -23 -9 -49 24 -58 37 -10 380 -12 421 -2 16 4 41
13 57 21 54 27 31 34 -100 27 -114 -5 -215 1 -354 22 -25 4 -39 1 -48 -10z"/>
<path d="M2291 17244 c-89 -41 -242 -173 -352 -304 -55 -66 -179 -239 -179
-251 0 -4 -13 -30 -29 -57 -26 -44 -70 -155 -100 -252 -35 -114 -17 -316 39
-433 72 -152 225 -257 380 -260 61 -2 75 1 75 13 0 11 -30 23 -103 41 -162 42
-248 111 -312 252 -66 145 -59 327 21 526 98 245 311 505 528 641 44 28 67 35
125 39 58 5 71 9 74 24 10 52 -77 64 -167 21z"/>
<path d="M4842 17168 c-17 -17 -15 -26 14 -60 35 -42 69 -114 83 -173 50 -223
44 -492 -18 -708 -65 -228 -167 -416 -283 -521 -37 -34 -48 -50 -40 -58 50
-50 222 150 317 370 41 95 88 266 107 387 19 127 16 370 -5 468 -22 104 -70
215 -113 266 -39 45 -44 47 -62 29z"/>
<path d="M3704 16994 c-14 -21 -17 -49 -16 -165 l1 -140 -87 -42 c-88 -43
-106 -64 -82 -92 19 -23 41 -18 94 20 73 52 86 46 86 -41 0 -75 51 -314 66
-314 8 0 14 8 14 18 0 28 -30 325 -35 352 -11 51 8 60 169 75 81 8 156 17 167
20 28 9 23 34 -7 41 -28 7 -221 -1 -286 -12 l-38 -7 1 54 c0 30 4 94 7 142 4
48 4 95 -1 103 -12 22 -35 17 -53 -12z"/>
<path d="M6265 16923 c-127 -66 -325 -246 -442 -402 -34 -44 -84 -127 -112
-184 -131 -266 -131 -489 -2 -706 78 -132 179 -208 346 -261 81 -25 238 -39
249 -21 10 15 -22 26 -134 46 -162 28 -308 116 -392 235 -80 112 -121 322 -93
465 40 206 152 386 359 582 143 135 216 185 284 192 61 7 85 28 66 59 -17 27
-72 25 -129 -5z"/>
<path d="M8439 16882 c-79 -53 -163 -135 -223 -219 -77 -108 -136 -278 -136
-392 0 -231 171 -566 367 -718 67 -52 173 -104 262 -128 76 -20 216 -24 234
-6 19 19 -4 27 -91 34 -140 12 -294 76 -392 164 -152 136 -305 435 -318 619
-17 249 211 588 411 613 52 6 52 6 52 41 0 34 -1 35 -46 38 -40 3 -54 -3 -120
-46z"/>
<path d="M12726 16884 c-28 -27 -13 -53 35 -63 112 -22 181 -333 134 -604 -52
-296 -171 -524 -446 -855 -209 -250 -298 -314 -529 -380 -14 -4 -26 -15 -28
-24 -9 -46 127 -24 249 39 120 62 266 204 461 450 246 309 361 611 359 943 -2
220 -44 369 -131 464 -45 49 -77 58 -104 30z"/>
<path d="M3127 16853 c-3 -4 -15 -48 -27 -98 -41 -169 -104 -305 -227 -493
-103 -157 -204 -180 -283 -65 -33 48 -52 121 -45 173 20 135 146 302 279 368
51 26 86 28 131 6 45 -21 69 -15 73 18 3 23 -3 30 -39 49 -113 57 -285 -38
-422 -236 -53 -76 -77 -150 -77 -234 0 -148 79 -262 190 -276 66 -9 133 33
204 128 58 77 128 195 141 237 14 47 66 150 76 150 5 0 9 -17 10 -37 0 -37 14
-115 42 -243 30 -132 136 -390 180 -437 45 -50 73 -13 34 45 -62 94 -140 315
-182 517 -23 108 -25 176 -12 390 2 34 -1 40 -20 43 -11 2 -23 0 -26 -5z"/>
<path d="M4400 16703 c-223 -81 -286 -176 -228 -341 38 -109 159 -221 238
-222 51 0 100 20 100 41 0 18 -6 20 -37 18 -75 -4 -91 1 -140 45 -94 84 -141
225 -97 291 26 40 167 105 227 105 60 0 77 8 77 35 0 13 -7 26 -16 29 -19 7
-103 7 -124 -1z"/>
<path d="M10501 16696 c-7 -8 -22 -52 -33 -98 -19 -74 -21 -113 -22 -358 -1
-151 1 -366 4 -477 3 -110 2 -205 -3 -209 -4 -4 -14 2 -23 14 -38 54 -60 4
-24 -55 26 -43 65 -53 93 -24 25 24 25 21 16 631 -4 300 -3 320 19 427 13 61
22 122 20 135 -4 27 -30 35 -47 14z"/>
<path d="M12067 16664 c-13 -14 -7 -41 23 -102 48 -94 63 -184 63 -362 -1
-354 -91 -605 -298 -829 -138 -148 -287 -233 -532 -302 -140 -39 -61 -69 86
-33 196 48 420 201 566 388 156 201 228 420 242 736 8 199 -19 357 -80 465
-21 37 -53 55 -70 39z"/>
<path d="M14139 16604 c-20 -24 -25 -166 -15 -385 5 -107 9 -216 10 -244 l1
-50 -117 -21 c-168 -30 -202 -48 -178 -95 14 -26 41 -24 118 7 79 31 171 56
182 49 5 -3 6 -78 3 -168 -3 -89 -6 -171 -6 -182 -1 -51 4 -76 19 -82 38 -14
44 14 45 230 1 114 4 209 8 211 6 4 204 27 353 41 66 6 110 26 95 42 -11 11
-175 6 -302 -9 -166 -19 -149 -26 -157 72 -12 133 -11 501 1 539 8 25 7 38 0
48 -15 18 -44 16 -60 -3z"/>
<path d="M7005 16463 c-154 -22 -313 -114 -447 -257 -134 -143 -170 -268 -112
-385 88 -177 329 -138 599 96 39 34 91 87 117 119 26 33 68 85 93 117 25 31
52 57 59 57 7 0 21 -27 31 -62 62 -221 100 -308 141 -327 27 -12 54 -5 54 13
0 7 -11 23 -25 36 -14 13 -25 31 -25 40 0 9 -4 20 -9 26 -5 5 -26 68 -47 139
-47 165 -66 205 -99 205 -16 0 -25 6 -25 15 0 45 -70 134 -120 153 -32 12
-144 21 -185 15z m160 -75 c29 -15 65 -50 65 -63 0 -6 9 -28 20 -49 l19 -38
-47 -55 c-167 -196 -248 -271 -364 -338 -86 -50 -135 -64 -225 -65 -58 0 -65
2 -97 35 -62 62 -73 151 -27 230 133 226 373 375 576 358 33 -3 69 -10 80 -15z"/>
<path d="M25903 16425 c-216 -59 -502 -319 -591 -538 -47 -117 -17 -231 88
-338 40 -40 72 -62 115 -78 113 -43 286 -25 335 34 14 17 13 18 -30 11 -25 -4
-82 -9 -126 -13 -139 -10 -233 35 -302 144 -39 63 -45 92 -32 161 19 103 90
221 198 325 125 122 254 209 357 242 53 16 60 16 116 0 47 -13 63 -14 75 -4
61 51 -77 88 -203 54z"/>
<path d="M5270 16345 c-15 -19 0 -62 25 -71 19 -8 55 23 55 46 0 37 -55 55
-80 25z"/>
<path d="M22339 16244 c-11 -14 -9 -33 15 -123 15 -58 28 -112 29 -120 2 -16
-6 -21 -100 -62 -78 -34 -97 -59 -69 -88 15 -15 19 -15 44 1 64 40 141 77 146
70 2 -4 14 -50 25 -102 32 -143 51 -201 68 -207 18 -7 33 13 33 45 0 13 -14
80 -31 149 -19 77 -28 128 -22 134 12 12 97 25 258 39 123 11 162 21 149 41
-9 15 -246 10 -333 -6 -45 -9 -85 -13 -90 -11 -5 3 -21 56 -36 118 -15 62 -32
119 -37 126 -14 17 -33 15 -49 -4z"/>
<path d="M7980 16209 c-10 -18 -9 -26 7 -47 30 -40 50 -49 68 -31 13 13 14 21
3 55 -10 31 -19 40 -40 42 -19 2 -30 -3 -38 -19z"/>
<path d="M29054 16088 c-4 -7 -11 -30 -15 -53 -35 -189 -57 -270 -99 -360 -31
-68 -43 -112 -36 -130 6 -17 8 -17 28 1 29 26 68 114 123 278 49 147 61 209
51 250 -7 28 -39 36 -52 14z"/>
<path d="M26531 16070 c-30 -5 -65 -14 -78 -21 -18 -10 -26 -10 -35 -1 -34 34
-125 -10 -192 -92 -138 -169 -73 -339 136 -354 108 -8 195 23 281 98 60 54 88
108 94 185 5 55 3 64 -28 110 -48 70 -89 87 -178 75z m107 -72 c35 -35 49 -93
37 -155 -9 -52 -103 -144 -170 -166 -102 -35 -228 -14 -269 45 -22 31 -20 101
3 146 18 35 102 122 117 122 3 0 4 -12 1 -27 -3 -15 -3 -33 0 -40 8 -20 33
-15 33 6 0 40 108 100 181 101 28 0 44 -7 67 -32z"/>
<path d="M15405 16051 c-142 -41 -261 -136 -314 -251 -54 -118 -34 -217 63
-308 68 -64 113 -87 217 -108 104 -21 302 -16 363 10 22 9 36 20 32 24 -4 4
-85 7 -179 7 -137 1 -184 4 -230 19 -94 29 -145 63 -185 124 -31 47 -37 63
-36 111 0 110 77 221 194 281 107 54 241 66 317 28 l45 -23 19 23 c10 13 16
29 13 37 -17 44 -203 60 -319 26z"/>
<path d="M21455 16011 c-232 -84 -395 -253 -427 -443 -14 -82 1 -143 46 -186
74 -71 175 -60 287 34 90 75 200 218 267 349 34 66 77 123 86 114 3 -3 15 -52
26 -110 49 -245 85 -355 131 -393 41 -35 68 -41 87 -22 15 15 13 19 -20 46
-49 40 -69 97 -124 349 -25 113 -50 211 -56 218 -31 38 -67 0 -179 -184 -159
-264 -278 -382 -386 -383 -45 0 -60 8 -83 45 -81 131 59 367 280 472 64 30 84
35 146 35 74 0 91 9 78 43 -12 30 -96 39 -159 16z"/>
<path d="M23615 16008 c-168 -58 -266 -112 -285 -157 -26 -63 38 -171 134
-226 100 -57 466 -145 536 -130 42 9 37 22 -12 35 -24 6 -59 16 -78 21 -19 5
-82 20 -140 34 -121 29 -142 37 -227 78 -84 41 -135 94 -137 143 -1 32 4 41
32 60 41 28 157 73 208 81 56 8 74 20 74 48 0 22 -4 25 -37 24 -21 0 -51 -5
-68 -11z"/>
<path d="M19317 15966 c-13 -13 -14 -22 -7 -36 13 -25 21 -26 108 -18 42 3
259 7 482 7 374 1 452 6 421 26 -22 13 -247 25 -616 31 -343 7 -372 6 -388
-10z"/>
<path d="M32110 15938 c-5 -13 -16 -49 -25 -80 -8 -31 -21 -60 -28 -65 -6 -4
-62 -13 -124 -19 -120 -13 -173 -35 -240 -97 l-32 -30 -6 37 c-4 21 -18 45
-32 56 -43 34 -105 4 -301 -147 -95 -74 -150 -108 -159 -99 -11 11 18 78 64
149 25 37 42 74 39 82 -8 22 -44 18 -70 -8 -27 -27 -116 -201 -116 -226 0 -28
37 -55 74 -54 41 1 101 35 221 123 157 116 197 142 206 133 17 -17 11 -119
-11 -200 -19 -67 -21 -85 -10 -98 18 -22 39 -19 50 8 5 12 19 64 30 116 11 52
22 96 24 98 2 3 14 -1 27 -7 20 -11 26 -8 56 24 19 20 51 43 71 52 81 35 202
56 202 36 0 -14 -53 -86 -99 -135 -44 -46 -59 -86 -35 -94 17 -6 100 77 151
152 57 83 86 101 140 86 60 -17 143 -14 143 4 0 22 -29 29 -140 34 -50 2 -54
13 -26 79 31 74 32 88 7 102 -29 15 -40 12 -51 -12z"/>
<path d="M26943 15934 c-3 -9 -1 -25 5 -35 16 -25 15 -87 -4 -220 -16 -121
-15 -139 14 -139 18 0 52 29 52 43 0 4 25 46 54 94 59 95 127 169 145 159 7
-5 11 -48 11 -115 0 -92 3 -110 18 -124 22 -20 45 -21 75 -5 33 17 142 108
227 187 41 39 80 71 86 71 19 0 46 -125 46 -212 -1 -45 4 -88 10 -95 18 -22
47 -15 54 13 10 38 -3 199 -20 263 -25 91 -59 110 -125 70 -35 -21 -54 -38
-160 -135 -58 -53 -127 -104 -142 -104 -5 0 -9 51 -9 113 0 122 -6 137 -51
137 -47 0 -109 -55 -196 -175 -12 -16 -24 -28 -26 -25 -3 3 1 41 9 85 10 60
11 88 3 113 -15 46 -63 69 -76 36z"/>
<path d="M19130 15845 c-16 -20 -3 -54 23 -59 62 -13 287 -26 454 -27 103 0
242 -4 308 -10 199 -15 508 -21 525 -10 8 5 11 13 7 17 -12 12 -539 49 -917
64 -159 6 -264 15 -300 25 -69 19 -84 19 -100 0z"/>
<path d="M29435 15833 c-129 -13 -245 -86 -286 -179 -15 -36 -25 -45 -59 -55
-52 -16 -52 -44 0 -45 31 0 35 -3 43 -37 13 -55 63 -90 136 -95 44 -3 60 0 70
12 19 22 12 26 -48 30 -32 3 -60 11 -72 22 -22 19 -25 63 -6 86 6 9 75 34 151
57 186 55 230 96 176 164 -23 29 -62 44 -105 40z m60 -71 c11 -28 -36 -57
-152 -96 -59 -20 -111 -36 -116 -36 -15 0 -6 30 19 60 34 39 73 60 154 80 71
18 85 17 95 -8z"/>
<path d="M30615 15813 c-65 -33 -91 -72 -111 -168 -9 -43 -10 -73 -3 -105 21
-92 21 -98 8 -106 -8 -4 -31 -9 -52 -10 -53 -3 -61 17 -42 106 8 39 15 87 15
106 0 33 -1 34 -38 34 -37 0 -94 -26 -263 -118 -98 -54 -107 -54 -107 1 0 23
0 57 -1 75 -2 64 -56 55 -141 -23 -54 -50 -125 -95 -150 -95 -17 0 -12 43 15
125 14 43 24 84 21 92 -3 7 -17 13 -31 13 -19 0 -28 -8 -38 -32 -22 -55 -49
-182 -45 -219 3 -32 6 -34 41 -37 45 -4 112 28 200 94 31 24 59 44 62 44 3 0
5 -24 5 -54 0 -45 4 -58 22 -70 12 -9 33 -16 45 -16 25 0 111 41 238 114 44
25 84 46 89 46 8 0 6 -29 -10 -126 -5 -34 -2 -45 17 -68 30 -34 112 -46 175
-24 32 11 58 13 119 5 83 -9 160 -3 171 14 10 17 -3 22 -73 24 -38 1 -70 3
-73 4 -2 0 16 20 40 44 25 24 55 64 68 89 27 55 32 139 11 183 -25 53 -130 86
-184 58z m123 -55 c17 -17 15 -111 -3 -154 -20 -49 -71 -112 -106 -129 -26
-14 -30 -14 -49 7 -46 49 -11 215 57 268 28 22 82 27 101 8z"/>
<path d="M28393 15771 c-44 -11 -102 -40 -135 -65 -58 -45 -84 -61 -108 -66
-20 -4 -29 -17 -46 -65 -12 -33 -49 -112 -82 -175 -89 -170 -135 -325 -102
-345 36 -22 85 51 125 190 28 98 92 246 132 303 83 122 236 205 344 188 89
-14 100 -39 42 -93 -60 -56 -116 -76 -205 -76 -43 0 -78 -3 -78 -8 0 -19 67
-41 125 -43 50 -1 72 5 127 32 72 35 128 90 128 125 0 30 -25 64 -60 82 -35
18 -162 28 -207 16z"/>
<path d="M2640 15137 c-59 -24 -142 -66 -150 -76 -3 -3 -32 -24 -65 -45 -55
-36 -315 -287 -375 -362 -167 -208 -238 -419 -197 -581 34 -132 117 -206 274
-247 119 -31 370 -14 427 29 33 25 11 28 -90 15 -366 -49 -610 107 -564 359
15 83 61 198 106 265 21 33 44 67 49 76 36 59 201 233 305 323 74 63 212 150
269 169 30 10 75 18 101 18 49 0 70 13 70 42 0 42 -74 49 -160 15z"/>
<path d="M5497 15123 c-17 -16 -3 -42 44 -88 104 -102 198 -265 266 -464 34
-101 36 -112 36 -241 1 -105 -4 -156 -21 -228 -42 -178 -92 -294 -158 -370
-36 -42 -39 -44 -80 -37 -64 9 -72 -24 -13 -59 84 -50 193 74 274 314 52 153
68 256 62 395 -3 66 -12 140 -20 165 -56 173 -155 389 -215 470 -14 19 -51 61
-81 93 -50 53 -77 67 -94 50z"/>
<path d="M4240 14824 c-11 -33 -10 -178 2 -268 2 -14 -5 -21 -22 -26 -26 -6
-39 -35 -22 -52 6 -6 25 -13 43 -17 31 -6 33 -9 55 -96 33 -132 71 -256 83
-268 7 -7 15 -6 27 3 23 20 11 85 -46 245 -10 28 -21 69 -25 92 l-7 42 44 5
c24 3 79 8 123 11 112 7 256 34 283 51 40 26 16 37 -67 29 -210 -20 -364 -29
-380 -23 -26 9 -34 66 -30 197 l4 106 -27 3 c-22 3 -28 -2 -38 -34z"/>
<path d="M3380 14639 c-109 -73 -189 -175 -241 -306 -57 -143 -77 -328 -44
-393 21 -41 90 -78 157 -86 50 -6 65 -3 112 20 121 59 188 185 257 481 22 94
34 125 48 125 5 0 24 -35 42 -77 68 -155 133 -266 196 -331 l61 -65 48 6 c33
3 54 12 66 27 25 31 14 40 -36 34 -40 -6 -47 -3 -84 30 -49 45 -115 154 -188
313 -69 153 -81 173 -103 173 -32 0 -35 -7 -116 -300 -34 -123 -49 -161 -88
-235 -54 -101 -101 -137 -184 -143 -49 -3 -64 0 -93 20 -19 13 -40 35 -47 48
-34 68 11 292 83 416 34 58 124 156 169 184 19 11 53 24 76 28 74 13 83 72 10
72 -29 0 -54 -10 -101 -41z"/>
<path d="M5100 14511 c-200 -64 -302 -197 -255 -331 17 -48 63 -103 105 -125
46 -24 139 -36 184 -24 61 16 106 40 106 55 0 17 -19 17 -93 3 -31 -7 -76 -8
-103 -4 -87 13 -156 111 -140 200 15 80 136 161 254 171 83 7 99 12 106 30 17
45 -64 58 -164 25z"/>
<path d="M7383 14520 c-58 -12 -101 -36 -141 -79 -45 -47 -58 -74 -72 -148
-15 -73 -1 -146 37 -205 87 -132 312 -64 409 124 8 15 18 28 23 28 4 0 16 -28
26 -62 28 -95 78 -199 115 -242 35 -39 116 -86 149 -86 31 0 34 17 6 37 -113
80 -117 84 -163 182 -50 107 -83 201 -76 213 3 4 12 8 19 8 19 0 29 41 21 85
-10 51 -58 101 -119 123 -62 23 -176 34 -234 22z m202 -74 l40 -12 -4 -54 c-8
-127 -123 -255 -252 -281 -93 -19 -136 14 -146 114 -8 80 3 123 45 169 53 59
101 78 197 77 44 0 98 -6 120 -13z"/>
<path d="M6301 14446 c-16 -19 6 -66 31 -66 21 0 44 41 35 64 -8 20 -51 21
-66 2z"/>
<path d="M26272 14275 c-6 -14 -16 -55 -23 -92 -6 -38 -26 -131 -45 -208 -53
-220 -63 -391 -44 -724 15 -245 20 -276 45 -276 19 0 19 10 16 360 -2 396 9
527 63 703 27 89 51 236 41 252 -12 19 -42 10 -53 -15z"/>
<path d="M11672 14278 c-19 -24 -42 -159 -49 -288 -3 -69 -10 -130 -14 -136
-6 -8 -24 -9 -57 -3 -86 16 -395 47 -409 42 -39 -15 -32 -83 9 -83 32 0 298
-18 384 -26 l71 -6 5 -175 c4 -142 8 -177 21 -190 13 -13 19 -14 31 -4 13 11
14 38 9 182 l-6 169 29 0 c16 0 101 -9 189 -20 169 -21 475 -28 475 -11 0 6
-4 12 -8 15 -5 3 -156 23 -337 46 -181 23 -333 44 -337 46 -4 3 -6 22 -3 42 3
20 10 84 15 142 5 58 16 130 24 162 10 43 11 61 2 79 -14 28 -30 34 -44 17z"/>
<path d="M22509 14199 c-21 -21 -22 -28 -16 -181 6 -183 13 -169 -97 -183 -84
-10 -106 -20 -106 -49 0 -45 24 -52 99 -28 37 12 79 22 93 22 31 0 29 5 54
-187 17 -134 30 -167 54 -138 10 12 10 39 0 138 -8 67 -14 140 -14 162 l-1 40
282 0 c197 0 285 3 293 11 9 9 9 14 0 19 -27 17 -246 38 -410 40 l-175 2 0
164 c0 194 -7 217 -56 168z"/>
<path d="M27903 14188 c-36 -61 -171 -334 -198 -399 -32 -77 -80 -224 -90
-270 -9 -45 -26 -89 -35 -89 -10 0 -33 29 -50 63 -53 105 -213 172 -350 146
-126 -24 -241 -86 -308 -166 -53 -65 -73 -106 -79 -167 -10 -95 36 -155 144
-190 88 -29 414 -20 533 14 19 5 48 10 65 10 16 0 49 7 73 17 32 12 41 20 37
32 -9 21 -18 99 -17 136 5 113 127 440 264 704 70 136 80 162 69 175 -20 24
-37 19 -58 -16z m-543 -628 c66 -24 137 -91 174 -164 20 -40 26 -66 26 -116 0
-36 -4 -71 -9 -79 -11 -17 -236 -40 -392 -41 -271 -1 -358 67 -279 220 80 155
311 242 480 180z"/>
<path d="M21614 13968 c-26 -40 -52 -76 -58 -80 -6 -4 -22 3 -36 16 -37 35
-99 70 -146 84 -95 28 -246 9 -332 -40 -198 -115 -308 -296 -272 -447 31 -132
159 -159 336 -72 178 89 371 256 479 416 48 71 82 109 88 99 3 -5 12 -47 22
-94 20 -103 77 -301 112 -390 80 -202 133 -274 201 -268 30 2 38 8 40 26 3 18
-1 22 -26 22 -17 0 -37 9 -49 23 -55 59 -136 278 -192 517 -54 230 -63 255
-94 258 -23 3 -32 -6 -73 -70z m-222 -54 c59 -33 108 -75 108 -93 0 -9 -21
-37 -47 -62 -188 -179 -424 -319 -538 -319 -101 0 -124 147 -43 272 41 65 139
152 205 184 97 45 249 54 315 18z"/>
<path d="M13031 14005 c-169 -44 -302 -127 -337 -210 -21 -50 -18 -131 6 -181
24 -48 86 -109 151 -147 68 -40 244 -94 371 -114 134 -21 523 -25 571 -5 59
25 27 32 -145 32 -418 1 -773 97 -869 237 -28 40 -31 51 -27 102 3 43 11 66
32 94 37 48 142 100 271 133 108 27 165 27 245 -1 39 -14 46 -14 67 0 27 18
30 51 6 59 -110 32 -221 32 -342 1z"/>
<path d="M19235 13952 c-172 -6 -466 -34 -549 -53 -171 -37 -319 -85 -334
-108 -12 -17 -12 -24 -2 -36 7 -8 18 -15 25 -15 7 0 79 22 161 50 258 86 539
116 996 106 207 -4 299 -3 303 5 4 5 4 13 1 16 -21 21 -392 43 -601 35z"/>
<path d="M23740 13889 c-112 -16 -238 -93 -292 -178 -74 -118 0 -273 182 -382
198 -118 430 -145 716 -83 84 18 147 51 122 65 -9 5 -47 0 -99 -13 -71 -18
-114 -21 -274 -22 -182 0 -193 1 -264 27 -214 78 -341 199 -341 324 0 44 4 50
56 101 68 66 104 82 218 96 92 12 116 26 103 60 -7 18 -35 19 -127 5z"/>
<path d="M18365 13630 c-151 -5 -160 -6 -163 -25 -1 -11 3 -29 11 -39 11 -16
26 -18 92 -17 43 1 82 4 88 8 6 4 256 6 557 5 300 -1 558 1 574 6 33 9 44 27
22 35 -14 6 -606 25 -886 30 -74 1 -207 0 -295 -3z"/>
<path d="M5971 12758 c-5 -13 -12 -43 -16 -68 -4 -25 -18 -100 -31 -167 -18
-94 -44 -295 -44 -344 0 -3 -62 -9 -137 -12 -217 -9 -277 -30 -239 -83 12 -16
21 -16 142 0 139 17 220 20 228 8 8 -13 10 -426 2 -460 -10 -43 18 -57 47 -21
18 23 19 37 16 254 l-4 230 50 0 c28 -1 125 -6 217 -13 91 -7 178 -10 192 -6
29 7 35 29 10 38 -30 11 -217 37 -343 46 -68 6 -126 12 -129 14 -5 6 42 341
59 421 6 28 17 71 26 97 8 26 12 57 8 68 -9 27 -43 26 -54 -2z"/>
<path d="M2240 12660 c-71 -9 -119 -25 -203 -68 -238 -120 -507 -423 -507
-571 0 -48 40 -95 88 -105 113 -24 318 78 470 234 108 109 163 200 215 353 12
34 35 18 51 -37 9 -30 16 -61 16 -69 0 -8 8 -36 19 -63 26 -69 50 -141 68
-199 52 -175 119 -295 165 -295 22 0 24 33 2 50 -31 26 -64 98 -113 245 -92
278 -141 438 -136 443 3 3 13 -2 23 -11 10 -10 28 -17 40 -17 33 0 28 34 -10
65 -52 44 -101 56 -188 45z m70 -61 c0 -6 -17 -41 -37 -77 -98 -178 -140 -240
-214 -312 -100 -98 -131 -121 -230 -174 -107 -57 -154 -70 -199 -59 -30 8 -35
14 -38 41 -7 70 105 243 235 363 92 85 297 202 383 220 55 11 100 10 100 -2z"/>
<path d="M32576 12424 c-6 -24 -2 -44 8 -33 9 11 15 59 7 59 -5 0 -12 -12 -15
-26z"/>
<path d="M3870 12411 c-70 -27 -123 -64 -176 -124 -166 -187 -164 -417 4 -417
114 0 283 142 371 311 70 135 79 138 111 26 113 -397 168 -527 221 -527 25 0
24 24 -1 60 -21 29 -80 170 -80 191 0 14 -16 72 -65 234 -19 61 -42 137 -52
170 -17 56 -20 60 -53 66 -19 3 -45 11 -57 17 -33 18 -170 14 -223 -7z m208
-64 c15 -16 15 -19 -2 -50 -86 -149 -158 -242 -234 -299 -99 -75 -173 -87
-208 -32 -16 23 -16 29 0 87 25 91 62 151 131 216 46 43 78 63 126 79 75 26
160 25 187 -1z"/>
<path d="M3045 12336 c-17 -12 -18 -17 -7 -40 14 -32 37 -42 57 -26 20 17 19
66 -1 74 -22 9 -28 8 -49 -8z"/>
<path d="M7370 12221 c-117 -38 -242 -113 -308 -185 -124 -135 -139 -320 -31
-396 120 -86 333 -57 501 68 73 55 98 84 153 180 26 46 51 80 55 75 3 -4 12
-39 20 -78 23 -128 92 -285 125 -285 27 0 27 22 2 69 -28 50 -75 218 -98 340
-7 41 -20 82 -28 91 -9 8 -24 27 -33 42 -10 14 -50 42 -89 62 -63 32 -81 36
-143 35 -40 0 -95 -8 -126 -18z m242 -83 c33 -18 69 -37 79 -43 25 -13 24 -29
-5 -90 -67 -144 -154 -239 -271 -295 -97 -47 -170 -64 -245 -57 -107 9 -154
53 -154 141 0 172 253 374 472 375 52 1 73 -4 124 -31z"/>
<path d="M11146 12135 c-28 -29 -69 -183 -93 -355 l-8 -55 -189 -2 c-104 -1
-193 -6 -198 -11 -5 -5 -8 -22 -6 -38 l3 -29 194 4 193 4 -6 -29 c-13 -63 -37
-266 -47 -398 -9 -110 -8 -140 2 -146 27 -17 39 1 39 62 0 33 11 126 24 207
14 80 28 179 31 219 4 43 12 72 19 73 32 3 105 -4 231 -21 264 -35 333 -36
291 -1 -14 12 -242 57 -421 83 l-90 14 -3 33 c-4 41 31 217 58 291 11 30 20
64 20 76 0 27 -25 38 -44 19z"/>
<path d="M9060 12116 c-209 -58 -317 -222 -237 -358 82 -140 387 -283 687
-322 143 -19 200 -9 200 35 0 26 -8 29 -122 33 -170 6 -310 43 -483 126 -155
74 -235 146 -251 226 -5 24 1 37 35 75 99 113 305 162 403 95 18 -12 41 -25
51 -29 24 -9 57 9 57 31 0 24 -46 67 -92 86 -45 19 -182 20 -248 2z"/>
<path d="M26395 12040 c-237 -27 -459 -161 -578 -350 -129 -206 -173 -372
-164 -630 4 -137 9 -167 37 -260 37 -122 72 -190 100 -190 10 0 22 5 25 10 9
14 25 12 25 -2 0 -29 51 -119 89 -157 117 -117 307 -77 500 105 136 128 251
285 333 455 56 115 69 151 103 304 24 107 27 133 22 240 -6 128 -26 214 -70
300 -70 140 -213 199 -422 175z m258 -89 c24 -12 61 -36 81 -54 95 -83 128
-367 72 -609 -20 -85 -106 -288 -149 -353 -152 -231 -299 -381 -441 -450 -73
-35 -159 -44 -203 -21 -51 26 -111 108 -134 180 -21 67 -37 82 -46 46 -7 -27
-19 -17 -48 39 -82 162 -94 452 -28 686 78 281 291 487 569 549 100 23 267 16
327 -13z"/>
<path d="M32550 11941 c0 -11 5 -23 10 -26 6 -4 10 5 10 19 0 14 -4 26 -10 26
-5 0 -10 -9 -10 -19z"/>
<path d="M8448 11913 c-19 -3 -30 -12 -34 -28 -17 -68 37 -89 80 -32 27 35 33
57 17 57 -5 0 -15 2 -23 3 -7 2 -25 2 -40 0z"/>
<path d="M12230 11910 c-41 -5 -95 -15 -120 -23 -25 -8 -58 -18 -75 -22 -46
-10 -130 -62 -164 -100 -82 -93 -38 -207 132 -338 210 -163 378 -240 692 -318
188 -46 242 -52 259 -26 20 31 -4 51 -70 59 -170 20 -402 86 -550 157 -177 85
-380 236 -420 312 -18 36 -18 79 1 105 19 28 144 88 230 109 75 20 279 27 347
12 20 -4 64 -30 98 -57 35 -28 65 -50 67 -50 17 0 43 24 43 40 0 24 -115 107
-173 125 -58 17 -207 25 -297 15z"/>
<path d="M17350 11775 c-97 -15 -214 -41 -247 -55 -27 -11 -31 -51 -8 -70 12
-10 33 -6 112 19 54 17 130 36 168 42 107 18 365 14 624 -11 224 -21 281 -21
281 0 0 18 -36 28 -150 44 -318 43 -619 55 -780 31z"/>
<path d="M22559 11733 c-10 -11 -15 -54 -17 -139 -3 -103 -6 -124 -20 -130 -9
-4 -55 -10 -101 -13 -65 -5 -86 -10 -95 -23 -13 -22 2 -51 30 -57 10 -2 56 2
102 9 45 7 84 11 86 9 4 -4 8 -63 21 -294 8 -142 11 -155 35 -155 10 0 21 4
25 9 3 5 0 105 -6 222 -9 180 -8 214 4 226 20 20 198 33 392 27 152 -4 241
-11 400 -34 88 -12 222 -13 229 -1 16 26 -191 68 -477 96 -153 15 -300 15
-489 -1 l-78 -7 -2 29 c-3 48 1 96 13 156 9 45 9 61 -1 73 -16 20 -34 19 -51
-2z"/>
<path d="M30245 11607 c-117 -94 -170 -201 -135 -268 20 -37 46 -23 65 34 22
68 54 117 121 182 38 36 52 57 48 69 -10 26 -55 18 -99 -17z"/>
<path d="M21434 11401 c-67 -70 -124 -121 -135 -121 -11 0 -40 15 -66 33 -87
61 -126 72 -243 71 -231 -2 -470 -120 -515 -254 -57 -173 137 -241 425 -148
189 60 353 164 525 330 91 89 115 108 115 93 0 -3 9 -60 20 -128 48 -301 146
-507 240 -507 42 0 37 20 -11 50 -45 27 -66 62 -98 158 -20 63 -67 286 -91
434 -8 50 -19 83 -31 94 -17 16 -24 10 -135 -105z m-361 -82 c40 -11 140 -70
153 -90 9 -16 -23 -39 -136 -98 -115 -60 -178 -84 -290 -111 -136 -32 -235
-23 -266 26 -22 32 -6 71 51 125 77 74 151 109 295 139 100 22 141 24 193 9z"/>
<path d="M30660 11455 c-10 -12 -11 -24 -1 -56 31 -104 35 -417 7 -564 -48
-256 -46 -250 -92 -306 -52 -64 -68 -100 -60 -135 6 -22 11 -25 34 -19 15 4
31 10 37 15 12 10 38 60 59 113 12 28 26 42 58 57 24 11 56 20 72 20 47 0 148
-30 204 -61 80 -45 161 -142 162 -195 0 -34 -53 -98 -99 -118 -37 -17 -48 -18
-111 -7 -71 13 -90 10 -90 -14 0 -34 118 -63 179 -44 118 38 176 109 162 201
-12 75 -70 147 -180 223 -71 49 -140 69 -211 61 -99 -12 -115 -12 -112 2 75
365 74 358 69 532 -7 191 -22 276 -53 297 -18 12 -23 11 -34 -2z"/>
<path d="M27225 11390 c-32 -12 -47 -36 -43 -67 4 -32 31 -42 56 -20 27 23
100 26 172 5 74 -20 106 -23 115 -8 31 49 -218 124 -300 90z"/>
<path d="M23780 11351 c-62 -12 -193 -58 -261 -92 -95 -47 -130 -108 -115
-202 21 -135 227 -277 486 -336 153 -35 163 -37 198 -31 51 8 34 23 -48 43
-136 32 -284 78 -340 107 -75 38 -168 116 -205 170 -43 65 -41 113 7 154 19
17 71 45 114 63 163 66 220 74 366 51 92 -14 128 -4 128 36 0 15 -7 27 -17 30
-35 9 -269 15 -313 7z"/>
<path d="M28767 11353 c-4 -3 -7 -24 -7 -45 0 -28 5 -41 21 -50 27 -16 69
-108 69 -151 0 -53 -9 -58 -104 -63 -91 -5 -207 -42 -268 -85 -31 -22 -38 -66
-13 -75 8 -3 57 15 109 41 65 32 115 50 165 57 85 13 101 8 101 -31 0 -34 -45
-212 -65 -256 -36 -80 -55 -128 -55 -141 0 -24 37 -16 55 12 31 47 93 231 105
311 7 43 16 83 22 90 7 8 49 12 138 11 70 0 133 3 139 6 6 4 11 15 11 25 0 23
-32 30 -160 32 -123 2 -130 6 -130 70 0 68 -28 188 -52 222 -19 26 -64 38 -81
20z"/>
<path d="M16630 11330 c-8 -14 -8 -26 0 -40 10 -18 21 -20 119 -20 147 0 443
-32 791 -85 150 -23 359 -45 375 -38 22 8 18 22 -7 32 -23 8 -347 63 -708 120
-184 29 -406 51 -512 51 -37 0 -50 -4 -58 -20z"/>
<path d="M28145 11089 c-16 -5 -59 -14 -95 -20 -87 -15 -254 -62 -312 -89 -53
-23 -68 -43 -68 -89 0 -43 43 -72 196 -132 71 -28 156 -63 189 -79 33 -15 81
-38 107 -50 26 -11 66 -38 89 -58 33 -30 40 -42 35 -59 -20 -62 -217 -119
-286 -83 -14 7 -41 28 -62 47 -37 36 -58 37 -58 2 0 -61 88 -119 190 -127 58
-4 78 0 140 24 74 29 124 73 136 119 9 35 -12 87 -49 123 -40 38 -219 132
-352 184 -193 75 -205 82 -203 102 6 36 141 72 390 102 56 6 80 26 76 63 -3
29 -19 34 -63 20z"/>
<path d="M32505 11077 c-4 -10 -5 -21 -1 -24 10 -10 18 4 13 24 -4 17 -4 17
-12 0z"/>
<path d="M27195 11068 c-2 -7 -6 -33 -8 -58 -9 -92 -30 -218 -53 -316 -24
-101 -24 -134 2 -134 27 0 44 48 80 225 46 223 49 248 35 274 -13 23 -49 29
-56 9z"/>
<path d="M29596 10909 c-43 -12 -97 -54 -136 -104 -19 -25 -61 -78 -92 -117
-61 -76 -128 -200 -128 -235 0 -11 7 -26 15 -33 23 -19 47 8 103 110 107 197
189 303 244 314 17 3 46 1 65 -6 28 -10 36 -10 49 4 45 44 -39 91 -120 67z"/>
<path d="M32496 10881 c-4 -7 -5 -15 -2 -18 9 -9 19 4 14 18 -4 11 -6 11 -12
0z"/>
<path d="M30081 10730 c-9 -5 -17 -41 -22 -96 -4 -49 -11 -112 -15 -139 -5
-41 -3 -53 10 -64 25 -21 48 7 57 71 4 29 12 76 17 105 5 28 7 65 4 82 -5 34
-30 54 -51 41z"/>
<path d="M6431 10661 c-28 -18 -44 -113 -48 -298 l-5 -182 -61 -6 c-34 -3
-126 -5 -205 -2 -167 4 -188 -2 -158 -48 l18 -28 107 7 c58 4 149 9 202 13
l97 6 6 -79 c7 -92 11 -430 5 -459 -3 -14 2 -21 18 -23 41 -6 45 21 37 297 -4
150 -3 260 2 263 5 3 124 9 264 12 142 4 259 11 264 16 28 28 -16 34 -271 34
l-258 1 -3 100 c-3 99 6 185 32 300 17 74 1 104 -43 76z"/>
<path d="M3748 10561 c-175 -57 -280 -190 -282 -353 -1 -63 1 -70 31 -100 27
-27 41 -32 90 -36 115 -8 257 72 421 236 56 56 107 100 111 97 5 -2 19 -41 30
-85 25 -92 62 -193 92 -251 21 -43 70 -79 106 -79 39 0 35 19 -15 68 -43 42
-52 59 -86 162 -21 63 -44 140 -52 170 -23 86 -38 103 -84 95 -33 -6 -41 -3
-54 17 -44 66 -197 96 -308 59z m222 -63 c18 -13 42 -35 53 -50 l20 -27 -38
-43 c-125 -140 -293 -248 -385 -248 -69 0 -96 24 -93 85 2 66 30 147 65 189
54 66 168 114 274 115 58 1 77 -3 104 -21z"/>
<path d="M32475 10400 c-3 -5 -1 -10 4 -10 6 0 11 5 11 10 0 6 -2 10 -4 10 -3
0 -8 -4 -11 -10z"/>
<path d="M11828 10263 c-19 -23 -59 -117 -93 -218 -15 -44 -28 -81 -29 -82 -2
-2 -42 -10 -90 -18 -88 -15 -217 -48 -236 -60 -5 -3 -10 -17 -10 -29 0 -47 18
-47 155 0 114 38 165 51 165 41 0 -2 -9 -45 -20 -96 -22 -98 -19 -134 8 -129
17 3 28 32 52 138 7 30 17 66 22 79 l8 24 264 -8 c181 -5 266 -4 270 4 4 5 -1
14 -11 19 -21 11 -194 29 -375 38 -71 4 -128 10 -128 13 0 3 29 65 64 137 47
97 61 135 54 147 -12 22 -51 22 -70 0z"/>
<path d="M7907 10224 c-93 -30 -217 -111 -258 -169 -63 -87 -88 -229 -53 -298
52 -103 151 -141 294 -113 158 30 299 127 401 275 66 95 76 107 85 99 3 -4 23
-54 44 -113 44 -120 68 -164 119 -217 24 -26 44 -38 63 -38 35 0 36 16 3 42
-55 43 -122 194 -174 394 -11 42 -29 58 -55 48 -8 -3 -36 -45 -63 -92 -68
-123 -195 -250 -295 -297 -141 -65 -257 -69 -324 -11 -34 30 -38 38 -42 93 -3
42 1 80 13 117 34 106 174 207 335 241 86 18 122 14 212 -26 76 -34 108 -32
108 6 0 32 -29 50 -113 69 -101 24 -207 20 -300 -10z"/>
<path d="M31306 10235 c-16 -43 3 -71 62 -89 27 -9 62 16 62 44 0 43 -109 83
-124 45z"/>
<path d="M9757 10105 c-77 -27 -117 -84 -117 -168 0 -64 12 -102 57 -179 82
-140 191 -218 371 -264 207 -54 565 -36 527 25 -5 9 -23 11 -59 7 -149 -17
-226 -18 -333 -2 -188 28 -291 73 -379 169 -98 106 -139 230 -99 303 23 44 64
56 166 52 70 -3 83 0 93 15 9 15 7 22 -13 38 -19 15 -38 19 -100 19 -42 -1
-93 -7 -114 -15z"/>
<path d="M32457 10113 c-13 -12 -8 -73 6 -73 10 0 13 11 12 35 -3 38 -8 49
-18 38z"/>
<path d="M12634 9995 c-23 -58 48 -152 179 -238 228 -150 618 -352 742 -383
19 -5 25 -2 25 10 0 11 -56 44 -168 100 -193 97 -492 273 -610 359 -52 39 -88
82 -74 91 16 9 122 -21 160 -46 56 -38 76 -41 103 -19 18 15 22 24 14 36 -12
20 -121 60 -235 85 -103 24 -129 25 -136 5z"/>
<path d="M21144 9915 c-4 -8 -4 -28 -1 -43 36 -186 48 -265 43 -278 -5 -12
-17 -14 -65 -8 -52 6 -60 4 -70 -13 -7 -15 -6 -25 6 -43 14 -20 22 -22 79 -17
48 3 64 1 68 -9 3 -8 10 -85 16 -171 11 -149 20 -193 39 -193 23 0 27 32 20
141 -4 64 -9 144 -11 179 l-3 63 35 10 c21 6 180 7 391 4 199 -2 363 -1 370 4
24 16 -8 26 -100 33 -47 4 -122 12 -166 17 -44 6 -183 9 -310 8 l-230 -4 -8
105 c-7 101 -27 191 -49 218 -14 17 -47 15 -54 -3z"/>
<path d="M9047 9913 c-13 -12 -7 -50 9 -63 13 -11 23 -10 60 8 63 31 58 56
-12 60 -28 1 -53 -1 -57 -5z"/>
<path d="M16698 9885 c-48 -8 -106 -19 -128 -25 -22 -5 -58 -15 -80 -20 -41
-11 -64 -38 -54 -64 11 -27 35 -26 138 8 148 49 243 57 614 55 177 -1 325 1
329 5 29 29 -132 46 -467 51 -198 3 -287 1 -352 -10z"/>
<path d="M25960 9775 c-7 -8 -11 -35 -8 -67 l3 -53 -55 -7 c-30 -4 -113 -8
-185 -8 -155 -2 -165 -4 -165 -36 0 -41 35 -49 148 -35 53 7 119 17 145 22 26
5 66 9 87 9 35 0 40 -3 46 -27 18 -80 47 -172 94 -303 56 -158 65 -185 85
-274 18 -79 35 -116 51 -116 39 0 -8 205 -127 562 -21 65 -39 128 -39 142 0
21 5 24 53 29 28 3 99 6 157 7 118 1 186 8 214 22 18 10 18 11 2 20 -17 9
-381 3 -409 -7 -23 -9 -37 11 -43 61 -9 69 -28 90 -54 59z"/>
<path d="M19522 9720 c-175 -37 -300 -168 -310 -324 -5 -92 17 -128 103 -171
56 -28 67 -30 175 -30 96 0 126 4 180 23 125 46 251 131 399 271 48 46 67 58
77 50 7 -6 25 -47 40 -92 42 -127 101 -275 128 -322 33 -55 90 -105 121 -105
36 0 31 13 -22 67 -53 54 -70 93 -147 334 -49 156 -70 189 -116 189 -31 0 -43
-9 -163 -123 -85 -82 -216 -170 -299 -203 -125 -49 -258 -54 -344 -13 -48 23
-69 61 -67 121 2 50 66 170 108 202 48 37 149 68 242 73 88 6 119 -5 172 -61
30 -32 56 -33 72 -5 16 30 -13 67 -77 98 -39 20 -68 25 -139 27 -49 2 -109 -1
-133 -6z"/>
<path d="M22795 9693 c-48 -6 -167 -51 -210 -81 -124 -85 -94 -269 72 -438
126 -128 288 -217 451 -249 177 -34 352 -37 352 -5 0 13 -27 18 -135 25 -110
6 -128 9 -230 32 -192 44 -412 213 -485 374 -38 84 -19 197 38 228 38 20 138
51 177 53 22 2 84 -1 138 -6 73 -6 101 -5 112 4 15 13 21 59 8 61 -37 3 -265
5 -288 2z"/>
<path d="M27304 9625 c-66 -66 -104 -228 -104 -441 0 -119 -2 -134 -17 -134
-9 0 -24 6 -32 13 -55 47 -252 93 -335 79 -55 -10 -63 -28 -40 -88 27 -72 121
-162 217 -207 133 -63 350 -74 524 -27 l81 23 29 -21 c113 -80 333 -117 399
-67 32 24 -1 35 -111 35 -137 0 -253 37 -238 76 3 8 35 29 70 47 111 53 183
139 183 215 0 59 -20 93 -72 122 -35 20 -55 24 -109 23 -187 -4 -271 -130
-207 -311 27 -76 21 -84 -66 -101 -103 -19 -122 -16 -151 27 -82 124 -73 524
15 665 35 57 37 73 10 87 -17 9 -25 6 -46 -15z m524 -425 c68 -42 59 -102 -28
-186 -54 -53 -134 -104 -162 -104 -36 0 -57 171 -29 238 28 66 148 95 219 52z
m-799 -137 c74 -21 106 -36 144 -67 60 -50 108 -129 90 -147 -18 -18 -160 13
-241 53 -76 36 -172 128 -172 164 0 22 4 24 42 24 23 0 85 -12 137 -27z"/>
<path d="M32427 9544 c-11 -11 -8 -44 3 -44 15 0 24 30 13 41 -5 5 -12 6 -16
3z"/>
<path d="M16371 9521 c-32 -59 52 -90 369 -132 122 -16 292 -18 297 -3 5 16
-12 21 -109 34 -165 22 -364 62 -428 87 -96 37 -116 39 -129 14z"/>
<path d="M29282 9059 c-35 -14 -66 -40 -182 -153 -164 -162 -264 -237 -292
-220 -7 5 -9 47 -4 128 8 159 -7 190 -82 171 -29 -7 -70 -49 -152 -156 -126
-164 -250 -252 -289 -205 -18 22 3 117 45 206 45 95 54 154 27 169 -29 15 -49
-4 -63 -59 -6 -25 -18 -55 -26 -67 -38 -60 -71 -222 -54 -267 10 -28 57 -56
93 -56 76 0 245 134 321 255 40 64 94 125 109 125 5 0 8 -51 7 -117 -4 -162
-4 -160 30 -178 65 -33 160 26 357 219 104 102 176 156 209 156 23 0 68 -59
87 -113 11 -29 32 -99 48 -156 34 -117 64 -184 82 -178 18 6 13 50 -17 162
-48 181 -78 254 -122 301 -43 46 -78 55 -132 33z"/>
<path d="M26570 8884 c-63 -19 -128 -39 -145 -44 -16 -5 -100 -17 -185 -26
-203 -23 -371 -11 -456 32 -50 25 -56 26 -70 12 -22 -21 -10 -54 25 -73 83
-42 401 -54 581 -22 214 39 424 120 393 151 -9 9 -17 7 -143 -30z"/>
<path d="M11086 8615 c-9 -9 -18 -26 -21 -38 -17 -80 -49 -279 -59 -367 l-11
-105 -145 -2 c-80 -2 -155 -5 -167 -8 -27 -6 -45 -37 -36 -61 7 -18 18 -18
268 2 l80 6 0 -236 c1 -199 3 -239 16 -252 30 -29 37 4 40 186 1 96 5 204 7
239 l5 64 86 -6 c125 -8 419 -36 445 -42 49 -12 255 -35 309 -35 71 0 74 18 6
37 -106 29 -654 103 -765 103 l-74 0 0 39 c0 22 14 122 32 223 37 214 40 261
17 266 -9 2 -24 -4 -33 -13z"/>
<path d="M30072 8538 c-7 -7 -12 -31 -12 -53 0 -33 6 -47 30 -70 25 -24 34
-27 48 -19 27 18 26 67 -3 113 -26 42 -42 50 -63 29z"/>
<path d="M7990 8493 c-197 -31 -398 -124 -485 -225 -60 -70 -80 -123 -80 -209
0 -97 24 -136 108 -179 189 -95 458 -50 710 118 77 51 216 193 307 312 33 44
65 80 70 80 5 0 20 -39 35 -87 109 -374 169 -519 255 -622 66 -79 151 -124
226 -119 54 3 70 24 27 34 -122 27 -172 56 -232 137 -53 72 -89 166 -166 432
-75 261 -91 299 -127 303 -20 2 -33 -8 -68 -52 -23 -31 -44 -56 -46 -56 -2 0
-25 15 -51 34 -111 79 -206 107 -356 105 -56 -1 -113 -3 -127 -6z m340 -81
c70 -27 130 -76 130 -106 0 -23 -43 -69 -93 -100 -19 -12 -26 -23 -22 -35 13
-40 -184 -172 -338 -225 -253 -87 -527 -37 -527 98 0 46 24 121 53 165 50 75
207 160 368 200 123 30 124 30 254 27 94 -2 132 -8 175 -24z"/>
<path d="M32372 8390 c0 -14 2 -19 5 -12 2 6 2 18 0 25 -3 6 -5 1 -5 -13z"/>
<path d="M32362 8279 c2 -6 8 -10 13 -10 5 0 11 4 13 10 2 6 -4 11 -13 11 -9
0 -15 -5 -13 -11z"/>
<path d="M12412 8135 c-122 -27 -156 -63 -148 -158 6 -79 40 -133 155 -247 72
-71 145 -128 291 -226 187 -126 419 -264 468 -278 12 -3 31 -9 42 -12 42 -12
17 18 -52 63 -383 244 -634 426 -723 525 -102 113 -131 206 -79 247 58 46 196
49 359 9 107 -26 188 -71 257 -140 58 -58 91 -72 102 -42 8 22 -5 43 -62 96
-83 78 -215 135 -372 163 -102 18 -154 18 -238 0z"/>
<path d="M32357 8043 c-10 -9 -9 -53 1 -53 4 0 13 9 19 19 10 15 9 22 -1 30
-7 6 -16 8 -19 4z"/>
<path d="M20332 7895 c-26 -33 -40 -93 -55 -245 l-12 -125 -60 1 c-33 0 -98 2
-144 5 -71 3 -85 1 -94 -13 -9 -14 -8 -21 6 -35 14 -15 41 -19 150 -23 l132
-5 -4 -227 c-3 -198 -2 -228 11 -228 30 0 35 26 42 190 4 91 11 185 14 210 l7
45 50 0 c28 -1 127 -9 220 -18 189 -20 442 -34 511 -29 28 3 44 9 44 17 0 15
-21 19 -195 35 -244 23 -314 30 -385 40 -41 5 -101 10 -132 10 -31 0 -69 4
-83 10 -25 9 -26 13 -20 57 13 97 36 214 52 264 12 37 14 56 6 67 -16 26 -39
25 -61 -3z"/>
<path d="M32346 7881 c-4 -7 -5 -15 -2 -18 9 -9 19 4 14 18 -4 11 -6 11 -12 0z"/>
<path d="M16147 7855 c-10 -10 -17 -25 -15 -34 3 -14 17 -15 113 -11 241 11
466 3 720 -26 153 -17 350 -30 383 -26 42 6 22 18 -50 30 -309 50 -552 73
-853 79 -259 5 -282 4 -298 -12z"/>
<path d="M18845 7802 c-145 -52 -259 -123 -332 -206 -117 -133 -158 -364 -81
-462 69 -87 268 -86 426 3 130 73 199 138 338 321 48 62 90 110 94 105 8 -9
44 -128 55 -183 9 -46 78 -228 111 -294 77 -153 115 -192 180 -184 41 4 46 38
7 38 -44 0 -70 25 -110 103 -48 97 -76 179 -129 387 -47 185 -70 229 -110 216
-11 -4 -60 -59 -111 -124 -163 -207 -283 -310 -425 -364 -77 -29 -177 -35
-233 -14 -64 25 -79 57 -73 157 11 190 157 356 391 444 81 30 144 32 215 5 63
-24 105 -26 123 -4 32 39 -34 67 -179 79 -68 5 -86 3 -157 -23z"/>
<path d="M25920 7811 c-52 -12 -109 -53 -202 -143 -143 -139 -321 -396 -574
-825 -104 -177 -332 -449 -385 -460 -39 -8 -53 -26 -39 -52 17 -34 65 -27 117
15 57 47 198 215 267 319 29 44 100 161 156 260 200 349 224 390 245 415 12
14 49 63 82 110 34 47 111 133 171 193 125 121 150 131 195 78 32 -39 45 -113
53 -323 l7 -167 -34 -5 c-51 -7 -345 -23 -413 -22 -46 1 -61 -3 -70 -16 -8
-14 -7 -22 7 -35 15 -16 35 -18 142 -16 74 1 171 11 240 23 63 12 120 18 125
15 6 -3 10 -39 10 -79 0 -220 29 -440 92 -696 32 -130 45 -157 73 -146 18 7
15 59 -10 151 -46 169 -68 320 -86 599 -9 143 -8 171 4 183 9 9 51 18 114 23
145 13 335 40 356 52 20 10 18 45 -2 40 -7 -1 -54 -7 -105 -12 -155 -17 -256
-30 -304 -41 -35 -7 -48 -7 -58 3 -8 9 -14 69 -18 179 -6 174 -9 202 -32 285
-20 72 -67 108 -124 95z"/>
<path d="M32330 7755 c0 -8 5 -15 10 -15 6 0 10 7 10 15 0 8 -4 15 -10 15 -5
0 -10 -7 -10 -15z"/>
<path d="M15930 7576 c-21 -26 -8 -60 30 -78 157 -77 934 -200 999 -159 8 5
11 15 8 23 -4 11 -39 18 -129 27 -256 26 -650 108 -799 167 -100 39 -93 38
-109 20z"/>
<path d="M21620 7576 c-166 -38 -294 -126 -356 -246 -28 -54 -24 -155 9 -222
102 -206 382 -400 648 -448 73 -13 327 -6 343 10 7 7 5 10 -4 11 -8 0 -64 2
-123 4 -303 12 -481 85 -675 278 -168 166 -190 300 -69 421 73 72 218 136 313
137 28 1 89 -2 136 -6 47 -4 95 -4 107 0 23 7 28 37 9 52 -21 17 -275 24 -338
9z"/>
<path d="M27001 7454 c-62 -83 -108 -170 -190 -359 -41 -93 -109 -244 -153
-335 -43 -90 -77 -174 -76 -185 3 -17 9 -20 45 -17 23 1 72 16 109 33 109 48
216 72 298 66 133 -10 279 -75 312 -140 15 -27 14 -31 -10 -67 -39 -59 -157
-134 -259 -165 -26 -8 -84 -17 -130 -21 -97 -8 -175 11 -218 52 -43 41 -77 16
-49 -36 32 -60 169 -92 307 -71 78 12 200 50 265 82 41 21 111 86 146 136 48
69 11 150 -95 206 -115 60 -186 79 -291 79 -97 -1 -117 -5 -244 -53 -43 -16
-80 -29 -83 -29 -14 0 0 38 51 142 79 161 89 183 130 278 106 249 125 286 186
363 41 52 45 66 26 85 -21 21 -34 13 -77 -44z"/>
<path d="M32315 7370 c-7 -12 2 -30 16 -30 5 0 9 9 9 20 0 21 -15 27 -25 10z"/>
<path d="M32310 7261 c0 -6 5 -13 10 -16 6 -3 10 1 10 9 0 9 -4 16 -10 16 -5
0 -10 -4 -10 -9z"/>
<path d="M29888 7209 c-25 -14 -22 -38 7 -69 31 -32 46 -110 39 -202 -13 -194
-63 -493 -140 -833 -15 -66 -28 -136 -28 -155 -1 -32 2 -35 31 -38 26 -3 37 4
69 43 21 25 54 76 74 113 118 224 212 348 282 371 46 15 166 -10 194 -40 9
-10 23 -19 30 -19 24 0 55 -66 55 -122 2 -142 -140 -359 -282 -430 -126 -64
-293 -56 -412 19 -50 31 -69 18 -37 -25 49 -67 234 -116 349 -93 127 25 238
103 337 236 157 209 154 399 -6 480 -80 40 -155 57 -210 47 -94 -17 -149 -71
-264 -257 -130 -209 -131 -210 -134 -192 -4 18 50 283 69 345 6 18 17 67 25
110 8 42 23 127 34 187 12 61 23 173 27 251 7 159 -7 227 -54 264 -29 23 -32
23 -55 9z"/>
<path d="M27812 6760 c-93 -13 -127 -27 -162 -66 -22 -26 -30 -44 -30 -74 0
-52 57 -170 116 -240 46 -56 104 -161 104 -191 0 -20 -17 -34 -50 -42 -17 -5
-53 5 -114 31 -71 30 -98 47 -136 90 -49 52 -78 64 -99 38 -32 -39 58 -127
181 -176 83 -32 175 -48 220 -37 64 16 85 78 53 155 -19 45 -71 128 -100 162
-13 14 -41 56 -64 94 -70 118 -53 172 64 196 50 10 255 7 273 -4 5 -3 14 -1
22 4 23 14 -1 43 -41 52 -63 13 -174 16 -237 8z"/>
<path d="M28289 6639 c-15 -28 -4 -37 91 -78 99 -42 162 -90 205 -154 43 -65
52 -105 31 -145 -31 -60 -164 -63 -263 -6 -47 27 -79 75 -66 99 5 8 30 28 56
45 48 30 63 65 33 76 -22 9 -114 -36 -141 -68 -71 -84 12 -201 169 -238 115
-28 244 1 277 61 20 38 13 126 -14 171 -41 70 -96 128 -146 153 -25 13 -82 42
-126 64 -44 22 -83 41 -87 41 -4 0 -12 -10 -19 -21z"/>
<path d="M32275 6579 c-10 -15 3 -25 16 -12 7 7 7 13 1 17 -6 3 -14 1 -17 -5z"/>
<path d="M29220 6540 c-138 -24 -228 -83 -348 -227 -101 -122 -129 -222 -63
-231 30 -5 50 23 51 68 0 45 33 95 124 188 84 86 112 105 197 133 73 24 177
21 243 -6 41 -17 56 -13 56 16 0 43 -155 78 -260 59z"/>
<path d="M32272 6466 c1 -10 8 -17 13 -17 15 1 12 24 -3 29 -9 3 -13 -2 -10
-12z"/>
<path d="M32270 6310 c0 -5 5 -10 10 -10 6 0 10 5 10 10 0 6 -4 10 -10 10 -5
0 -10 -4 -10 -10z"/>
<path d="M32260 6205 c0 -8 5 -15 10 -15 6 0 10 7 10 15 0 8 -4 15 -10 15 -5
0 -10 -7 -10 -15z"/>
<path d="M32256 6123 c-12 -12 -6 -33 9 -33 8 0 15 6 15 14 0 17 -14 28 -24
19z"/>
<path d="M32245 6000 c-3 -5 -1 -10 4 -10 6 0 11 5 11 10 0 6 -2 10 -4 10 -3
0 -8 -4 -11 -10z"/>
<path d="M32240 5875 c0 -8 5 -15 10 -15 6 0 10 7 10 15 0 8 -4 15 -10 15 -5
0 -10 -7 -10 -15z"/>
<path d="M32236 5804 c-7 -19 2 -37 15 -29 12 8 12 45 0 45 -5 0 -12 -7 -15
-16z"/>
<path d="M32236 5741 c-3 -4 -2 -28 3 -52 l9 -44 1 37 c1 20 4 43 7 52 6 17
-11 23 -20 7z"/>
<path d="M32231 5590 c-9 -14 -7 -100 1 -92 5 5 8 29 5 53 -2 24 -5 42 -6 39z"/>
<path d="M32204 5159 c-3 -6 -1 -16 5 -22 8 -8 11 -5 11 11 0 24 -5 28 -16 11z"/>
<path d="M32195 4941 c-6 -20 0 -69 10 -79 10 -10 17 7 10 25 -4 10 -7 30 -6
46 3 31 -5 36 -14 8z"/>
<path d="M32632 4820 c0 -19 2 -27 5 -17 2 9 2 25 0 35 -3 9 -5 1 -5 -18z"/>
<path d="M32190 4766 c0 -27 15 -42 25 -26 8 13 -3 50 -16 50 -5 0 -9 -11 -9
-24z"/>
<path d="M32629 4713 c-1 -74 -8 -240 -14 -353 -9 -173 -16 -342 -19 -470 -2
-63 -5 -117 -6 -120 -2 -3 -5 -59 -6 -125 -1 -66 -7 -203 -13 -305 -5 -102
-13 -239 -16 -305 -4 -66 -9 -147 -11 -180 -2 -33 -6 -114 -9 -180 -2 -66 -6
-151 -10 -190 -3 -38 -7 -124 -10 -190 -2 -66 -7 -142 -10 -170 -2 -27 -7 -99
-10 -160 -23 -498 -36 -761 -41 -820 -3 -38 -6 -81 -6 -95 -1 -14 -5 -74 -9
-135 -4 -60 -10 -164 -14 -230 -14 -275 -25 -392 -38 -424 l-14 -34 -24 32
c-12 17 -27 31 -32 31 -6 0 -3 -8 5 -17 9 -10 19 -27 22 -38 14 -43 46 -69 94
-74 92 -12 87 -22 89 167 2 203 10 416 19 497 7 64 10 110 18 270 2 55 7 143
10 195 3 52 8 149 11 215 3 66 8 145 11 175 6 59 7 71 5 110 -1 14 1 70 3 125
9 173 16 507 14 590 -5 174 1 448 11 458 7 7 7 16 0 29 -6 11 -7 27 -3 36 9
22 5 74 -7 89 -7 7 -5 16 4 25 12 11 12 15 -2 25 -15 12 -15 14 2 27 22 17 22
22 -3 29 -19 5 -19 7 -5 40 8 21 12 48 9 65 -3 16 -2 32 4 36 10 6 18 1386 7
1386 -3 0 -5 -17 -6 -37z"/>
<path d="M32184 4646 c-8 -32 6 -58 17 -30 11 28 11 54 -1 54 -5 0 -12 -11
-16 -24z"/>
<path d="M32185 4480 c-7 -23 2 -43 16 -35 12 8 12 42 0 50 -5 3 -12 -4 -16
-15z"/>
<path d="M28454 4417 c-6 -26 10 -67 26 -67 19 0 41 34 38 59 -2 20 -9 27 -30
29 -22 3 -29 -2 -34 -21z"/>
<path d="M32170 4391 c0 -26 16 -35 24 -15 10 25 7 34 -9 34 -8 0 -15 -9 -15
-19z"/>
<path d="M32200 4271 c0 -6 5 -13 10 -16 6 -3 10 1 10 9 0 9 -4 16 -10 16 -5
0 -10 -4 -10 -9z"/>
<path d="M32185 4110 c3 -5 8 -10 11 -10 2 0 4 5 4 10 0 6 -5 10 -11 10 -5 0
-7 -4 -4 -10z"/>
<path d="M32157 3873 c-13 -12 -7 -33 8 -33 8 0 15 9 15 20 0 20 -11 26 -23
13z"/>
<path d="M32150 3710 c0 -5 5 -10 10 -10 6 0 10 5 10 10 0 6 -4 10 -10 10 -5
0 -10 -4 -10 -10z"/>
<path d="M32160 3670 c0 -5 5 -10 10 -10 6 0 10 5 10 10 0 6 -4 10 -10 10 -5
0 -10 -4 -10 -10z"/>
<path d="M32145 3630 c-8 -13 3 -30 21 -30 18 0 18 14 0 29 -10 8 -16 9 -21 1z"/>
<path d="M32130 3435 c0 -9 5 -15 11 -13 6 2 11 8 11 13 0 5 -5 11 -11 13 -6
2 -11 -4 -11 -13z"/>
<path d="M32145 3380 c3 -5 11 -10 16 -10 6 0 7 5 4 10 -3 6 -11 10 -16 10 -6
0 -7 -4 -4 -10z"/>
<path d="M32120 3345 c0 -8 5 -15 10 -15 6 0 10 7 10 15 0 8 -4 15 -10 15 -5
0 -10 -7 -10 -15z"/>
<path d="M32125 3287 c-4 -8 -5 -26 -3 -38 3 -22 3 -22 17 4 11 21 12 30 3 39
-9 9 -13 7 -17 -5z"/>
<path d="M32120 3125 c0 -19 0 -38 -1 -42 0 -4 4 -9 10 -11 7 -2 11 14 11 42
0 25 -4 46 -10 46 -5 0 -10 -16 -10 -35z"/>
<path d="M32116 3025 c-9 -24 -7 -45 3 -45 12 0 22 43 12 53 -5 5 -11 1 -15
-8z"/>
<path d="M32100 2760 c0 -16 5 -30 10 -30 6 0 10 14 10 30 0 17 -4 30 -10 30
-5 0 -10 -13 -10 -30z"/>
<path d="M32103 2683 c-12 -4 -19 -43 -8 -43 3 0 14 9 25 20 11 11 20 22 20
25 0 6 -21 5 -37 -2z"/>
<path d="M32090 2560 c0 -5 5 -10 10 -10 6 0 10 5 10 10 0 6 -4 10 -10 10 -5
0 -10 -4 -10 -10z"/>
<path d="M32090 2510 c0 -13 5 -20 13 -17 6 2 12 10 12 17 0 7 -6 15 -12 18
-8 2 -13 -5 -13 -18z"/>
<path d="M32086 2375 c-3 -9 0 -15 9 -15 8 0 15 7 15 15 0 8 -4 15 -9 15 -5 0
-11 -7 -15 -15z"/>
<path d="M32080 2239 c0 -5 5 -7 10 -4 6 3 10 8 10 11 0 2 -4 4 -10 4 -5 0
-10 -5 -10 -11z"/>
<path d="M32080 2185 c0 -8 7 -15 15 -15 8 0 15 7 15 15 0 8 -7 15 -15 15 -8
0 -15 -7 -15 -15z"/>
<path d="M32081 2106 c-8 -10 -9 -16 -1 -21 5 -3 13 1 16 10 9 22 -1 29 -15
11z"/>
<path d="M32087 2013 c-13 -12 -7 -23 13 -23 11 0 20 7 20 15 0 15 -21 21 -33
8z"/>
<path d="M32060 1935 c0 -14 5 -25 10 -25 6 0 10 11 10 25 0 14 -4 25 -10 25
-5 0 -10 -11 -10 -25z"/>
<path d="M32068 1838 c-6 -71 -2 -84 18 -67 10 8 11 16 4 29 -7 13 -6 27 2 45
9 21 9 29 -4 41 -14 14 -16 10 -20 -48z"/>
<path d="M32070 1720 c0 -5 5 -10 10 -10 6 0 10 5 10 10 0 6 -4 10 -10 10 -5
0 -10 -4 -10 -10z"/>
<path d="M32044 1649 c-9 -15 15 -39 32 -32 8 3 14 11 14 18 0 16 -38 27 -46
14z"/>
<path d="M32090 1596 c0 -9 5 -16 10 -16 6 0 10 4 10 9 0 6 -4 13 -10 16 -5 3
-10 -1 -10 -9z"/>
<path d="M32047 1593 c-13 -20 -12 -92 1 -105 19 -19 24 -3 15 58 -5 35 -12
54 -16 47z"/>
<path d="M32042 1414 c4 -21 22 -23 26 -1 2 10 -3 17 -13 17 -10 0 -15 -6 -13
-16z"/>
<path d="M32060 1311 c0 -11 5 -23 10 -26 6 -3 10 -2 10 4 0 5 3 16 6 25 4 11
1 16 -10 16 -9 0 -16 -8 -16 -19z"/>
<path d="M32016 1055 c-3 -10 -2 -23 4 -29 15 -15 24 1 13 26 -9 20 -10 20
-17 3z"/>
<path d="M32010 980 c0 -5 5 -10 10 -10 6 0 10 5 10 10 0 6 -4 10 -10 10 -5 0
-10 -4 -10 -10z"/>
<path d="M32010 915 c0 -15 4 -24 10 -20 6 3 10 12 10 20 0 8 -4 17 -10 20 -6
4 -10 -5 -10 -20z"/>
<path d="M32007 794 c-10 -11 -8 -64 2 -64 13 0 24 51 13 62 -4 4 -11 5 -15 2z"/>
<path d="M31999 615 c-14 -23 -19 -64 -8 -71 17 -10 26 8 20 46 -4 19 -9 31
-12 25z"/>
<path d="M30147 523 c-14 -14 -6 -40 21 -71 45 -51 86 -39 58 16 -8 16 -26 36
-40 46 -29 18 -30 19 -39 9z"/>
<path d="M28447 503 c-4 -3 -7 -11 -7 -17 0 -6 5 -5 12 2 6 6 9 14 7 17 -3 3
-9 2 -12 -2z"/>
<path d="M30726 488 c-9 -36 -7 -48 8 -48 8 0 24 -13 36 -30 21 -29 60 -41 60
-19 0 6 -15 35 -32 65 -35 57 -62 69 -72 32z"/>
<path d="M28410 435 c0 -8 5 -15 10 -15 6 0 10 7 10 15 0 8 -4 15 -10 15 -5 0
-10 -7 -10 -15z"/>
<path d="M32190 405 c0 -9 11 -20 24 -25 14 -5 30 -18 36 -30 10 -19 30 -28
30 -12 0 11 -70 82 -81 82 -5 0 -9 -7 -9 -15z"/>
<path d="M28380 119 c0 -5 5 -7 10 -4 6 3 10 8 10 11 0 2 -4 4 -10 4 -5 0 -10
-5 -10 -11z"/>
<path d="M32618 99 c-24 -13 -23 -25 2 -32 16 -4 20 0 20 19 0 27 1 27 -22 13z"/>
<path d="M840 80 c0 -5 5 -10 11 -10 5 0 7 5 4 10 -3 6 -8 10 -11 10 -2 0 -4
-4 -4 -10z"/>
<path d="M1280 75 c0 -8 4 -15 9 -15 5 0 11 7 15 15 3 9 0 15 -9 15 -8 0 -15
-7 -15 -15z"/>
<path d="M1322 78 c6 -18 28 -21 28 -4 0 9 -7 16 -16 16 -9 0 -14 -5 -12 -12z"/>
<path d="M1822 71 c4 -13 18 -16 19 -4 0 4 -5 9 -11 12 -7 2 -11 -2 -8 -8z"/>
<path d="M1888 69 c-10 -5 -14 -18 -10 -34 5 -30 22 -33 29 -5 8 30 31 25 25
-5 -6 -35 14 -31 27 5 8 23 7 32 -2 35 -35 10 -56 12 -69 4z"/>
<path d="M1987 73 c-11 -11 -8 -21 9 -27 19 -7 47 12 38 25 -6 11 -38 12 -47
2z"/>
<path d="M1390 60 c0 -5 5 -10 11 -10 5 0 7 5 4 10 -3 6 -8 10 -11 10 -2 0 -4
-4 -4 -10z"/>
<path d="M1510 60 c0 -5 11 -10 25 -10 14 0 25 5 25 10 0 6 -11 10 -25 10 -14
0 -25 -4 -25 -10z"/>
<path d="M2760 60 c-12 -7 -12 -12 -3 -21 10 -10 14 -9 19 5 8 22 2 27 -16 16z"/>
<path d="M2522 48 c7 -20 48 -23 48 -4 0 11 -9 16 -26 16 -16 0 -24 -5 -22
-12z"/>
<path d="M2816 41 c-9 -14 4 -41 20 -41 15 0 17 10 8 34 -7 18 -20 21 -28 7z"/>
<path d="M3248 43 c-29 -7 -21 -25 10 -21 15 2 26 7 25 13 -2 12 -12 14 -35 8z"/>
<path d="M3121 31 c-16 -10 -6 -31 14 -31 14 0 27 24 18 34 -8 8 -15 7 -32 -3z"/>
<path d="M2640 14 c0 -8 5 -12 10 -9 6 3 10 10 10 16 0 5 -4 9 -10 9 -5 0 -10
-7 -10 -16z"/>
<path d="M3740 20 c0 -5 5 -10 11 -10 5 0 7 5 4 10 -3 6 -8 10 -11 10 -2 0 -4
-4 -4 -10z"/>
<path d="M3335 10 c-4 -6 5 -10 20 -10 15 0 24 4 20 10 -8 13 -32 13 -40 0z"/>
<path d="M2068 3 c6 -2 18 -2 25 0 6 3 1 5 -13 5 -14 0 -19 -2 -12 -5z"/>
</g>
</svg>
