<?xml version="1.0" standalone="no"?>
<!DOCTYPE svg PUBLIC "-//W3C//DTD SVG 20010904//EN"
 "http://www.w3.org/TR/2001/REC-SVG-20010904/DTD/svg10.dtd">
<svg version="1.0" xmlns="http://www.w3.org/2000/svg"
 width="2448.000000pt" height="3264.000000pt" viewBox="0 0 2448.000000 3264.000000"
 preserveAspectRatio="xMidYMid meet">
<metadata>
Created by potrace 1.12, written by Peter Selinger 2001-2015
</metadata>
<g transform="translate(0.000000,3264.000000) scale(0.100000,-0.100000)"
fill="#000000" stroke="none">
<path d="M19365 30674 c-11 -2 -45 -9 -75 -16 -214 -45 -434 -236 -553 -480
-108 -223 -139 -540 -88 -903 22 -150 59 -302 92 -371 10 -22 19 -45 19 -51 0
-27 -100 -19 -161 12 -16 9 -42 15 -57 13 -21 -2 -28 -10 -34 -38 -11 -54 15
-71 167 -109 150 -38 192 -55 218 -88 25 -31 69 -31 94 1 16 21 28 25 108 30
219 15 481 103 700 234 109 66 139 89 219 167 136 134 163 187 136 271 -19 59
-54 100 -133 152 -69 46 -203 115 -257 132 -14 5 -56 20 -93 34 -37 14 -105
35 -150 47 -85 23 -113 37 -100 50 4 4 32 19 60 34 60 30 125 89 208 190 88
108 110 144 140 228 80 225 -40 426 -274 456 -71 9 -154 12 -186 5z m190 -129
c115 -37 181 -111 191 -212 6 -58 4 -68 -29 -135 -20 -40 -62 -104 -94 -142
-78 -94 -287 -266 -351 -289 -45 -16 -78 -42 -96 -74 -10 -18 15 -63 38 -68
12 -2 59 -6 106 -9 141 -9 408 -97 574 -190 80 -45 122 -80 141 -116 13 -26
12 -30 -14 -68 -108 -148 -518 -371 -776 -422 -33 -6 -77 -15 -97 -20 -48 -10
-240 -12 -253 -3 -17 14 -55 102 -61 146 -4 23 -11 49 -15 59 -8 16 -46 184
-76 343 -9 44 -18 136 -20 205 -10 284 43 521 155 694 29 45 172 196 186 196
3 0 25 14 48 30 123 86 310 118 443 75z"/>
<path d="M15078 30277 c-44 -31 -67 -54 -115 -123 -38 -54 -111 -208 -125
-260 -6 -27 -17 -56 -23 -64 -32 -44 -65 -129 -180 -475 -56 -168 -105 -348
-105 -387 0 -13 -13 -75 -29 -138 -16 -63 -34 -133 -40 -155 -29 -118 -44
-271 -36 -389 4 -67 8 -145 9 -173 2 -68 33 -103 97 -110 55 -6 76 14 81 77 3
43 1 45 -34 62 -34 16 -37 22 -45 75 -12 88 -10 299 6 517 1 5 22 6 47 2 39
-5 48 -3 67 18 82 90 111 118 149 144 24 16 83 59 131 95 76 57 114 81 238
153 10 6 27 18 36 27 10 8 45 27 78 42 33 14 69 34 80 45 11 10 32 22 47 25
23 6 31 1 57 -36 17 -23 31 -47 31 -53 0 -6 60 -132 134 -281 167 -335 176
-359 176 -446 0 -58 3 -70 21 -83 29 -20 44 -12 73 38 20 34 24 51 19 87 -9
69 -128 369 -190 479 -14 25 -46 83 -71 130 -25 47 -62 112 -83 144 -22 33
-39 65 -39 72 0 18 20 30 95 54 39 13 104 38 145 55 41 18 120 47 175 64 55
17 109 36 120 41 11 5 37 14 58 20 29 9 37 17 37 35 0 42 -22 50 -103 33 -39
-9 -97 -25 -127 -37 -30 -12 -116 -43 -190 -68 -74 -25 -154 -59 -178 -74 -24
-16 -52 -29 -63 -29 -21 0 -21 0 -69 130 -18 46 -40 100 -51 120 -44 84 -110
265 -139 383 -51 208 -58 227 -86 237 -33 13 -32 13 -86 -23z m19 -89 c30 -34
39 -55 61 -148 31 -126 71 -244 142 -415 62 -148 78 -174 116 -197 18 -11 34
-23 34 -27 0 -4 -26 -17 -57 -30 -136 -53 -210 -85 -243 -106 -19 -12 -79 -48
-133 -80 -54 -31 -114 -70 -135 -86 -20 -16 -53 -40 -73 -53 -20 -14 -71 -57
-113 -96 -46 -42 -84 -70 -94 -68 -25 5 -26 49 -4 100 23 50 54 150 72 228 7
30 28 100 46 155 18 55 37 116 42 135 28 95 124 364 145 407 14 26 39 84 56
128 36 88 66 143 89 163 21 16 25 16 49 -10z"/>
<path d="M7865 26698 c-11 -6 -28 -21 -38 -32 -17 -20 -18 -39 -11 -296 10
-405 11 -430 28 -566 9 -68 23 -181 32 -251 9 -71 22 -159 29 -198 7 -38 16
-104 19 -145 3 -41 12 -122 20 -180 15 -100 31 -278 42 -455 5 -88 22 -332 29
-410 2 -27 11 -144 19 -260 8 -115 17 -217 20 -225 2 -8 7 -67 10 -130 13
-245 39 -546 57 -668 15 -99 10 -109 -47 -93 -22 6 -115 11 -209 11 -212 0
-452 15 -643 40 -140 18 -503 66 -567 75 -131 18 -191 25 -265 30 -133 9 -202
15 -240 20 -19 2 -87 7 -150 10 -63 4 -266 17 -450 31 -335 25 -484 36 -765
54 -185 11 -548 43 -755 65 -14 2 -77 8 -140 14 -157 16 -200 20 -235 25 -16
3 -75 9 -130 15 -55 6 -136 16 -180 21 -44 5 -125 9 -180 9 -67 0 -128 6 -186
20 -172 40 -693 47 -994 12 -49 -6 -131 -11 -182 -11 -108 0 -123 -4 -123 -36
0 -31 42 -58 89 -58 34 0 264 20 341 30 19 2 83 6 141 9 58 2 125 11 148 20
24 8 48 12 55 8 6 -4 19 -6 29 -5 9 2 17 -1 17 -7 0 -12 91 -13 110 -1 8 5 21
5 30 0 17 -9 63 -14 231 -26 90 -6 99 -5 120 15 12 11 27 21 32 21 18 0 47
-21 47 -35 0 -8 7 -15 15 -15 8 0 15 5 15 10 0 6 9 10 20 10 13 0 20 -7 20
-19 0 -28 13 -33 98 -36 43 -2 98 -8 124 -14 26 -6 54 -8 63 -5 8 4 23 0 32
-7 9 -8 39 -14 67 -15 28 0 101 -6 161 -13 61 -6 124 -13 140 -15 17 -2 64 -7
105 -11 41 -3 113 -11 160 -16 47 -5 175 -16 285 -24 110 -8 218 -17 240 -20
22 -3 87 -7 145 -10 58 -3 152 -10 210 -16 58 -6 161 -14 230 -19 127 -9 292
-22 525 -40 72 -6 189 -15 260 -20 72 -5 146 -12 165 -15 19 -3 85 -7 145 -10
183 -10 454 -43 735 -90 233 -39 459 -57 775 -62 176 -2 324 -8 329 -13 5 -5
10 -57 11 -117 2 -59 11 -164 19 -233 9 -69 23 -180 31 -248 8 -68 17 -133 20
-145 5 -22 45 -384 64 -577 14 -134 39 -614 46 -880 14 -486 43 -1034 61
-1140 3 -19 10 -73 14 -120 9 -92 41 -350 65 -525 22 -168 44 -334 50 -390 10
-95 24 -220 44 -385 32 -263 80 -701 97 -875 8 -88 16 -167 19 -175 4 -13 20
-166 30 -280 20 -232 47 -532 55 -600 5 -47 12 -141 15 -210 3 -69 8 -132 10
-140 3 -8 7 -55 9 -105 8 -149 26 -398 31 -431 3 -17 10 -102 15 -190 9 -146
23 -311 50 -614 6 -63 13 -144 15 -180 10 -144 16 -229 25 -315 11 -102 27
-347 35 -510 3 -60 8 -144 10 -185 3 -41 9 -150 15 -241 5 -91 12 -238 15
-325 3 -87 7 -193 10 -234 7 -102 23 -408 30 -555 3 -66 8 -163 11 -215 11
-221 14 -303 24 -655 14 -504 17 -562 45 -726 14 -78 25 -152 25 -164 0 -28
34 -59 56 -51 19 7 18 14 -10 256 -9 69 -20 242 -25 385 -17 425 -25 658 -24
690 0 17 -4 109 -8 205 -4 96 -11 245 -14 330 -3 85 -8 164 -10 175 -2 11 -7
103 -10 205 -3 102 -7 217 -10 255 -5 67 -10 180 -20 405 -7 150 -16 337 -20
395 -2 28 -8 140 -14 250 -7 110 -16 245 -21 300 -12 124 -31 362 -35 435 -2
30 -8 114 -14 185 -6 72 -20 243 -31 380 -11 138 -25 306 -30 375 -6 69 -17
233 -25 365 -8 133 -24 346 -35 475 -11 129 -22 269 -25 310 -3 41 -10 116
-16 165 -10 86 -57 544 -79 765 -6 58 -17 159 -26 225 -8 66 -21 190 -29 275
-8 85 -19 188 -25 229 -5 40 -19 153 -31 250 -11 97 -24 205 -29 241 -4 36
-16 126 -25 200 -91 755 -104 885 -125 1315 -9 188 -12 276 -25 715 -11 355
-31 684 -54 857 -6 43 -15 123 -21 178 -6 55 -15 132 -20 170 -32 236 -51 386
-65 505 -9 74 -23 164 -32 199 -12 50 -12 69 -3 92 12 29 33 38 45 19 8 -13
91 -13 153 1 39 8 51 15 55 32 2 12 8 30 11 39 5 11 1 20 -15 29 -24 12 -121
1 -202 -23 -57 -17 -66 2 -66 132 1 58 -6 195 -15 305 -9 110 -23 304 -31 430
-18 290 -33 498 -40 550 -3 22 -7 85 -10 140 -16 296 -39 527 -100 985 -16
116 -57 463 -61 503 -2 26 -6 52 -9 57 -4 6 -8 133 -11 283 -4 214 -1 294 11
375 15 100 11 142 -15 142 -4 0 -14 2 -22 5 -7 2 -22 -1 -33 -7z"/>
<path d="M5530 26333 c-45 -7 -124 -36 -170 -61 -79 -43 -170 -145 -200 -222
-7 -19 -23 -57 -36 -85 -43 -97 -84 -266 -84 -351 0 -24 -4 -53 -8 -66 -18
-48 14 -429 52 -613 29 -144 59 -271 71 -300 7 -16 22 -58 35 -93 30 -84 67
-132 123 -162 l45 -24 94 18 c110 20 141 39 136 82 -4 38 -36 42 -109 15 -30
-12 -64 -21 -75 -21 -29 0 -116 88 -132 134 -8 21 -12 39 -10 41 2 2 21 0 43
-5 27 -6 44 -5 53 2 10 9 21 7 44 -6 44 -27 122 -29 171 -6 23 11 50 20 61 21
12 0 41 14 66 29 25 16 58 36 73 45 32 18 90 62 203 154 90 73 226 230 271
314 122 224 158 420 113 599 -47 189 -152 308 -392 446 -164 95 -318 135 -438
115z m220 -139 c154 -57 315 -156 391 -242 59 -67 85 -116 110 -207 38 -139
13 -328 -63 -480 -61 -120 -212 -303 -318 -383 -194 -146 -322 -208 -409 -196
-65 8 -101 -1 -101 -26 0 -32 -37 -25 -56 11 l-16 32 29 -7 c23 -5 26 -4 13 6
-9 7 -29 31 -45 53 -16 22 -42 54 -58 72 -25 26 -32 47 -43 115 -7 46 -25 153
-39 238 -24 136 -26 174 -22 310 7 224 58 413 152 565 52 83 71 101 156 144
62 32 67 33 154 28 64 -4 112 -13 165 -33z"/>
<path d="M2852 26270 c-165 -36 -338 -136 -497 -290 -80 -77 -128 -134 -303
-360 -16 -21 -36 -55 -81 -140 -4 -8 -16 -28 -25 -45 -65 -115 -78 -200 -52
-339 10 -49 24 -102 32 -117 62 -121 170 -223 302 -286 146 -70 194 -84 342
-105 122 -17 647 -16 743 1 37 6 116 18 175 26 202 28 232 38 266 90 15 23 15
25 -5 36 -16 8 -32 8 -58 1 -37 -11 -296 -50 -341 -51 -14 0 -158 -1 -320 -1
-275 -1 -304 1 -430 24 -266 50 -379 102 -504 231 -85 87 -116 162 -116 274 0
49 5 103 12 122 16 47 146 262 211 351 59 80 216 244 287 300 63 49 144 93
220 118 77 26 238 58 277 55 82 -6 150 -20 256 -56 65 -21 127 -39 138 -39 14
0 25 13 39 45 11 25 17 51 14 59 -10 25 -61 54 -145 81 -116 38 -301 44 -437
15z"/>
<path d="M13052 24958 c-61 -33 -187 -135 -241 -194 -87 -96 -222 -348 -274
-509 -114 -355 -63 -703 115 -788 90 -42 238 -46 338 -8 80 30 192 129 326
286 118 139 178 290 190 475 5 81 3 106 -16 170 -41 139 -74 213 -110 250 -63
62 -119 110 -130 110 -6 0 -29 9 -52 20 -23 11 -64 22 -92 26 -105 12 -133 39
-72 68 56 27 91 29 161 11 84 -21 97 -16 93 32 -3 32 -9 41 -38 55 -52 26
-146 24 -198 -4z m23 -234 c17 -9 54 -25 83 -36 87 -33 149 -90 187 -172 46
-98 59 -177 52 -294 -10 -143 -55 -268 -137 -372 -111 -143 -210 -238 -300
-286 -51 -27 -181 -26 -235 3 -82 43 -121 111 -137 242 -15 123 1 281 42 421
35 118 162 383 194 405 11 8 33 15 48 15 16 0 35 8 44 19 56 65 64 71 96 71
18 0 47 -7 63 -16z"/>
<path d="M16430 24920 c-11 -7 -15 -34 -17 -112 -1 -57 -6 -130 -12 -163 -18
-109 -22 -243 -11 -398 10 -149 19 -237 60 -624 12 -106 22 -220 24 -255 6
-122 21 -156 72 -172 39 -12 47 14 35 106 -5 46 -13 130 -16 188 -12 211 -25
416 -30 445 -27 166 -32 561 -10 745 18 152 19 222 3 238 -14 14 -77 16 -98 2z"/>
<path d="M20256 24797 c-17 -12 -17 -23 -7 -178 29 -439 36 -617 36 -889 0
-304 -5 -356 -47 -534 l-21 -89 27 -24 c32 -28 62 -30 75 -5 5 10 12 47 16 82
3 36 12 94 20 130 51 245 62 551 35 950 -6 80 -12 230 -15 335 -5 162 -8 192
-23 207 -25 23 -74 31 -96 15z"/>
<path d="M19273 24750 c-9 -9 -8 -22 3 -54 36 -100 17 -273 -91 -836 -20 -104
-44 -256 -70 -450 -11 -81 -45 -384 -56 -503 -12 -125 -11 -129 9 -149 23 -24
79 -29 91 -9 5 7 11 72 14 144 4 73 18 211 32 307 14 96 28 191 31 210 11 83
76 498 100 635 49 289 56 351 61 505 4 141 3 158 -14 178 -21 27 -91 41 -110
22z"/>
<path d="M10804 24679 c-17 -5 -68 -29 -114 -53 -241 -127 -402 -344 -450
-606 -21 -110 -5 -319 34 -445 55 -176 191 -272 418 -296 164 -17 301 4 431
67 87 41 156 95 264 204 137 137 223 287 254 440 6 30 15 73 20 95 11 55 11
157 -2 235 -14 87 -48 159 -104 219 -64 68 -113 86 -240 86 -93 0 -104 -2
-164 -32 -35 -18 -72 -33 -81 -33 -10 0 -24 16 -35 41 -30 67 -66 89 -138 88
-34 0 -76 -5 -93 -10z m125 -105 c17 -14 47 -30 66 -35 29 -8 35 -15 35 -36 0
-67 70 -84 118 -29 45 51 81 66 149 62 71 -4 150 -37 191 -79 51 -52 65 -99
70 -229 4 -105 2 -126 -24 -217 -46 -166 -121 -287 -258 -419 -325 -312 -777
-302 -899 18 -50 129 -58 327 -21 475 19 75 83 203 137 273 72 95 207 195 307
228 59 20 96 16 129 -12z"/>
<path d="M21783 24589 c-6 -8 -13 -50 -16 -94 -3 -44 -12 -125 -20 -180 -30
-195 -36 -241 -42 -310 -3 -38 -12 -128 -19 -200 -8 -71 -14 -137 -14 -145 -1
-29 -32 -356 -57 -600 -33 -310 -33 -310 -10 -326 51 -38 79 1 88 121 4 44 18
170 31 280 14 110 33 263 41 340 9 77 20 167 25 200 5 33 12 92 15 130 21 281
45 485 76 648 19 96 20 111 7 124 -21 21 -91 29 -105 12z"/>
<path d="M15145 24493 c-68 -21 -133 -71 -173 -135 -19 -29 -49 -78 -69 -108
-19 -30 -45 -77 -58 -105 -14 -27 -34 -62 -46 -76 -41 -52 -82 -282 -73 -414
10 -157 63 -327 128 -416 40 -54 121 -110 191 -131 28 -9 69 -21 92 -28 98
-30 268 18 416 117 139 93 223 187 300 338 70 137 97 240 97 371 0 199 -38
276 -180 371 -56 38 -197 89 -271 98 -89 11 -261 -20 -341 -61 -33 -18 -78
-18 -78 -1 0 15 55 69 87 86 26 13 86 14 128 3 17 -5 36 -7 43 -5 19 7 14 58
-9 87 -18 23 -27 26 -77 25 -31 0 -79 -7 -107 -16z m325 -207 c179 -45 306
-123 348 -214 23 -50 26 -70 26 -157 0 -112 -16 -176 -78 -305 -53 -110 -95
-164 -191 -246 -131 -113 -284 -177 -420 -177 -152 0 -251 123 -296 372 -26
142 -24 236 5 346 35 127 61 181 91 189 13 3 38 26 55 50 42 62 69 81 158 110
128 43 219 52 302 32z"/>
<path d="M22495 24480 c-52 -21 -120 -142 -134 -239 -6 -40 -10 -46 -58 -71
-104 -56 -174 -102 -190 -127 -15 -22 -15 -26 0 -40 27 -28 74 -20 115 18 33
32 56 48 156 115 84 55 240 101 256 74 4 -7 13 -9 21 -5 12 8 24 10 119 19 25
2 95 10 155 16 134 15 385 7 470 -15 33 -9 89 -22 124 -30 35 -8 72 -21 81
-30 9 -8 20 -15 25 -15 19 0 114 -73 146 -113 19 -23 50 -76 69 -117 31 -65
35 -85 34 -150 0 -67 -5 -84 -42 -160 -26 -55 -52 -94 -74 -110 -18 -14 -47
-39 -64 -57 -17 -18 -35 -33 -41 -33 -6 0 -22 -9 -36 -20 -38 -30 -140 -86
-221 -122 -178 -78 -392 -108 -531 -74 -84 21 -216 83 -268 126 -50 43 -109
132 -136 205 -46 130 -64 341 -41 483 18 106 -1 123 -87 81 -33 -16 -43 -26
-38 -38 4 -9 8 -101 9 -206 3 -176 5 -196 31 -275 38 -119 75 -188 136 -254
97 -107 215 -170 402 -217 166 -41 461 5 642 100 225 118 324 211 420 397 59
114 69 193 36 298 -57 183 -201 315 -444 406 -264 99 -711 88 -995 -25 -68
-27 -97 -32 -71 -12 9 7 19 22 23 34 4 12 30 43 59 69 71 63 73 69 41 99 -27
25 -62 31 -99 15z"/>
<path d="M3755 22800 c-44 -21 -135 -105 -178 -166 -81 -115 -148 -231 -167
-289 -7 -22 -16 -44 -20 -50 -20 -26 -60 -181 -71 -270 -31 -276 48 -522 203
-627 78 -53 159 -73 303 -73 129 0 141 2 280 47 67 21 236 114 305 166 56 43
149 137 175 177 10 17 29 38 42 48 43 34 143 166 178 235 90 176 109 417 41
507 -13 17 -26 40 -30 52 -4 11 -13 24 -21 27 -8 3 -15 12 -15 19 0 8 -7 20
-15 27 -21 17 -19 30 6 30 60 0 -36 89 -124 115 -158 47 -451 15 -609 -66 -31
-16 -63 -29 -69 -29 -7 0 -22 -8 -33 -19 -12 -10 -41 -29 -66 -42 -79 -42
-217 -155 -232 -190 -9 -22 18 -59 42 -59 13 0 28 16 44 48 38 74 165 164 311
220 98 37 121 45 200 63 114 27 334 25 351 -2 3 -5 16 -9 29 -9 13 0 29 -8 34
-18 5 -10 21 -24 36 -32 32 -17 72 -83 98 -160 59 -171 -10 -440 -160 -630
-67 -85 -201 -209 -283 -263 -30 -20 -67 -45 -81 -56 -34 -26 -176 -91 -201
-91 -7 0 -32 -7 -56 -15 -28 -10 -84 -16 -155 -16 -93 -1 -122 3 -172 21 -189
72 -266 210 -266 480 0 63 6 149 15 190 22 113 85 283 135 365 14 22 33 56 44
75 24 45 139 163 196 201 30 19 57 29 83 29 43 0 48 12 16 34 -29 21 -93 19
-143 -4z"/>
<path d="M8650 22693 c-103 -16 -213 -59 -263 -103 -30 -26 -35 -35 -27 -50
19 -35 73 -36 137 -2 99 50 146 57 388 56 121 0 272 -6 335 -13 63 -6 234 -23
380 -36 146 -14 303 -30 350 -35 47 -5 146 -14 220 -20 74 -6 178 -15 230 -20
94 -10 174 -15 695 -44 149 -9 347 -20 440 -25 94 -6 229 -13 300 -17 72 -3
157 -7 190 -9 33 -2 150 -6 260 -9 110 -4 250 -8 310 -11 373 -18 1330 -22
2355 -10 245 3 672 7 950 9 278 3 726 7 995 10 270 3 591 6 715 6 223 0 304
-1 950 -15 294 -7 692 -9 803 -4 28 1 37 5 37 19 0 49 -58 58 -420 65 -173 3
-412 8 -530 10 -349 8 -1937 6 -2725 -2 -1133 -12 -2867 -10 -3175 5 -146 6
-413 19 -595 27 -181 8 -359 17 -395 19 -36 3 -157 10 -270 16 -113 5 -218 12
-235 15 -16 2 -113 7 -215 10 -102 3 -248 12 -325 20 -77 8 -207 19 -290 25
-82 6 -179 15 -215 20 -36 5 -146 16 -245 25 -99 9 -211 20 -250 25 -38 5
-106 12 -150 16 -44 4 -94 8 -111 10 -220 22 -518 31 -604 17z"/>
<path d="M19553 22412 c-8 -5 -2 -19 20 -46 l32 -38 290 -9 c515 -15 644 -18
995 -24 190 -3 447 -10 571 -16 124 -6 230 -9 235 -8 10 3 571 -11 664 -16 30
-2 154 -6 275 -9 121 -4 267 -11 325 -16 58 -5 143 -12 190 -14 464 -26 1072
-86 1240 -121 39 -8 76 -15 81 -15 5 0 9 24 9 54 l0 54 -47 11 c-70 16 -234
41 -343 52 -267 26 -517 47 -680 54 -63 3 -232 12 -375 20 -143 8 -330 17
-415 20 -388 14 -729 24 -890 26 -96 1 -204 3 -240 4 -413 11 -1159 21 -1220
15 -19 -1 -69 2 -110 8 -94 13 -591 25 -607 14z"/>
<path d="M6314 22276 c-136 -27 -298 -131 -391 -252 -61 -80 -109 -195 -142
-344 -18 -78 -13 -228 10 -321 60 -238 163 -352 384 -422 83 -26 286 -54 305
-42 6 4 41 7 77 6 59 -1 122 13 178 39 11 5 54 23 96 40 89 36 128 62 253 172
17 15 35 28 40 28 10 0 36 23 64 55 9 11 39 41 65 67 57 55 89 112 128 227 42
124 36 253 -17 358 -48 94 -184 213 -244 213 -9 0 -21 5 -27 11 -6 6 -26 15
-45 19 l-33 8 34 1 c37 1 200 -72 214 -95 8 -14 37 -20 37 -8 0 11 -73 78
-115 106 -67 45 -183 71 -310 70 -144 -1 -294 -35 -370 -83 -22 -13 -60 -34
-85 -44 -102 -44 -231 -128 -307 -199 -48 -45 -60 -70 -43 -91 23 -27 55 -16
105 36 71 74 120 111 224 168 51 28 95 51 97 51 2 0 27 11 55 25 74 35 296 79
324 64 6 -3 30 -11 55 -17 25 -6 56 -14 70 -17 14 -3 39 -8 55 -11 34 -6 143
-99 192 -163 89 -116 95 -361 12 -484 -16 -23 -29 -47 -29 -53 0 -7 -46 -59
-103 -116 -107 -108 -170 -151 -315 -215 -201 -88 -441 -106 -612 -45 -190 68
-272 177 -316 417 -19 106 -18 171 5 281 60 289 269 475 563 500 111 10 116
41 10 63 -62 13 -68 13 -148 -3z"/>
<path d="M12195 21943 c-61 -8 -172 -46 -250 -85 -98 -48 -188 -137 -210 -207
-4 -13 -31 -59 -61 -103 -71 -103 -108 -179 -144 -289 -154 -470 107 -738 572
-585 198 65 367 174 541 351 164 167 226 266 247 400 8 51 8 82 -1 124 -15 66
-50 152 -78 187 -28 35 -108 97 -160 123 -127 65 -328 102 -456 84z m156 -107
c96 -17 288 -109 341 -163 49 -51 88 -154 88 -235 0 -78 -36 -154 -129 -269
-202 -250 -457 -407 -693 -426 -172 -13 -306 47 -353 160 -28 67 -30 180 -6
282 45 187 197 443 324 543 39 31 46 33 93 27 56 -7 84 8 84 44 0 28 21 39 80
44 30 2 64 4 75 5 11 1 54 -4 96 -12z"/>
<path d="M22328 21567 c-60 -14 -88 -31 -88 -53 0 -20 27 -24 245 -33 223 -10
290 -25 434 -98 104 -53 225 -173 269 -267 43 -92 62 -200 50 -294 -22 -183
-201 -372 -415 -438 -69 -22 -97 -26 -162 -22 -85 5 -133 24 -203 81 -73 59
-123 200 -134 372 -6 82 -3 98 25 188 21 63 43 110 63 132 29 34 33 35 100 35
72 0 97 8 136 43 29 27 28 53 -3 73 -23 15 -34 15 -103 4 -150 -25 -203 -62
-260 -183 -65 -137 -84 -264 -61 -406 24 -155 63 -242 138 -320 78 -80 188
-121 326 -121 90 0 269 60 360 120 22 15 52 34 67 44 30 18 148 151 182 206
50 79 61 128 60 260 -1 109 -4 135 -28 205 -15 44 -35 89 -45 100 -10 11 -28
37 -40 57 -30 51 -125 136 -223 201 -64 42 -109 62 -193 87 -101 30 -123 33
-275 36 -108 2 -184 -1 -222 -9z"/>
<path d="M15990 21528 c-132 -10 -362 -86 -400 -132 -13 -16 -12 -20 5 -32 23
-17 42 -14 180 29 89 27 115 31 240 33 148 2 264 -17 415 -67 65 -22 82 -30
154 -78 53 -35 96 -128 96 -207 0 -65 -18 -102 -106 -220 -115 -153 -250 -264
-368 -304 -84 -29 -204 -24 -280 10 -142 64 -229 255 -212 468 9 116 32 167
88 191 56 24 80 52 76 88 -3 24 -7 28 -33 27 -44 -2 -151 -69 -179 -112 -82
-127 -75 -405 16 -589 38 -78 128 -164 197 -188 64 -23 218 -31 278 -15 214
58 493 295 597 505 71 145 70 242 -6 356 -69 103 -172 163 -356 209 -127 31
-253 40 -402 28z"/>
<path d="M19378 21521 c-155 -34 -258 -77 -258 -107 0 -24 23 -26 104 -11 122
23 122 22 66 -91 -64 -130 -74 -181 -67 -334 15 -334 113 -527 299 -586 141
-46 244 -37 397 34 103 48 165 91 242 171 72 75 114 135 162 233 29 60 32 73
31 165 0 161 -47 276 -153 378 -51 49 -85 71 -146 97 -128 53 -172 61 -390 65
-169 4 -213 2 -287 -14z m372 -96 c210 -32 354 -94 402 -174 12 -20 29 -45 39
-56 25 -30 53 -178 45 -248 -14 -140 -181 -344 -352 -432 -65 -34 -86 -39
-158 -43 -147 -8 -248 43 -308 154 -74 137 -110 422 -73 576 35 149 66 191
126 175 28 -7 61 6 92 37 31 31 52 32 187 11z"/>
<path d="M16315 19830 c-276 -15 -492 -62 -729 -157 -223 -89 -354 -216 -489
-473 -114 -216 -200 -472 -341 -1010 -45 -172 -112 -593 -131 -825 -2 -22 -8
-78 -15 -125 -6 -47 -17 -141 -25 -210 -8 -69 -19 -152 -25 -185 -5 -33 -16
-121 -25 -195 -8 -74 -20 -169 -25 -210 -18 -136 -39 -452 -45 -665 -9 -338
-6 -1008 5 -1163 18 -257 41 -362 110 -508 80 -173 275 -320 546 -413 153 -52
297 -76 609 -101 72 -6 200 -19 285 -30 279 -34 500 -49 835 -55 692 -12 969
-32 1740 -125 509 -62 892 -89 1335 -96 435 -7 579 7 742 75 74 31 136 83 187
158 40 59 94 261 106 398 8 98 15 197 20 290 3 55 10 147 15 205 6 58 10 132
11 165 1 33 5 110 10 170 19 236 40 552 54 820 9 154 17 316 20 360 2 44 7
141 10 215 3 74 10 205 15 290 5 85 12 214 15 285 3 72 10 244 15 384 6 140
13 258 16 263 11 17 5 1325 -6 1474 -16 211 -50 334 -122 447 -34 53 -54 65
-198 122 -219 86 -387 132 -690 190 -74 14 -154 30 -178 36 -148 34 -428 82
-552 94 -194 19 -282 24 -560 30 -224 6 -349 12 -720 34 -209 13 -333 19 -540
26 -91 4 -194 8 -230 10 -141 9 -923 13 -1055 5z m1215 -110 c401 -16 495 -20
710 -35 113 -8 266 -17 340 -20 273 -10 409 -15 560 -20 284 -11 421 -32 965
-150 66 -15 172 -37 235 -50 63 -13 162 -40 220 -60 58 -20 142 -48 187 -63
71 -22 84 -30 92 -54 9 -26 13 -28 70 -28 56 0 62 -2 85 -33 34 -45 72 -195
87 -342 7 -76 11 -344 12 -735 0 -591 -5 -771 -43 -1470 -5 -102 -12 -230 -15
-285 -5 -88 -15 -283 -30 -530 -2 -44 -9 -163 -15 -265 -15 -261 -28 -467 -40
-590 -5 -58 -17 -211 -25 -341 -8 -130 -17 -256 -20 -280 -2 -24 -9 -125 -15
-224 -16 -264 -34 -385 -76 -496 -50 -133 -120 -191 -290 -236 -98 -26 -103
-26 -528 -31 -466 -5 -640 4 -986 48 -71 10 -328 38 -415 46 -22 2 -76 9 -120
14 -44 6 -143 17 -220 25 -77 9 -151 17 -165 20 -92 18 -638 55 -870 60 -477
10 -846 25 -973 40 -67 8 -162 19 -212 25 -145 17 -295 32 -435 44 -365 32
-702 168 -866 350 -109 121 -160 264 -185 526 -14 146 -18 992 -6 1245 4 77
10 190 13 250 3 61 9 148 15 195 5 47 14 137 19 200 6 63 17 156 25 205 14 90
34 236 55 395 10 80 20 168 55 470 26 224 82 538 120 675 8 28 26 95 41 150
61 233 155 517 224 673 114 262 243 427 390 502 187 95 492 169 775 189 149
11 892 6 1255 -9z"/>
<path d="M15890 19250 c-19 -19 -20 -29 -15 -153 7 -138 25 -321 49 -492 29
-203 38 -393 30 -692 l-7 -291 26 -26 c29 -29 54 -33 81 -13 18 13 18 17 2 79
-15 59 -15 90 -5 276 11 211 2 502 -21 647 -34 218 -44 326 -46 488 -1 191 -2
197 -51 197 -13 0 -32 -9 -43 -20z"/>
<path d="M19767 19229 c-31 -24 -43 -64 -52 -174 -4 -44 -9 -98 -11 -120 -9
-94 -4 -396 11 -595 19 -271 22 -463 7 -610 -11 -107 -10 -116 7 -133 21 -21
66 -15 80 12 23 45 32 503 15 796 -24 436 -15 685 27 769 12 25 19 52 16 60
-9 23 -69 20 -100 -5z"/>
<path d="M19905 16056 c-18 -18 -25 -39 -30 -92 -8 -66 0 -601 10 -756 27
-412 34 -660 24 -851 -4 -65 -2 -70 24 -93 32 -27 50 -30 66 -10 12 14 9 796
-4 1368 -5 202 -4 245 11 295 26 92 28 127 9 146 -25 25 -81 22 -110 -7z"/>
<path d="M15588 15741 l-33 -29 0 -114 c0 -62 8 -180 18 -263 33 -272 25 -534
-25 -784 -27 -140 -16 -211 33 -211 28 0 39 30 65 193 67 409 74 502 54 697
-31 305 -34 375 -17 425 21 62 21 67 -3 93 -28 30 -53 28 -92 -7z"/>
<path d="M4740 19614 c-104 -15 -169 -28 -190 -39 -40 -21 -115 -106 -144
-163 -29 -56 -25 -81 14 -102 47 -25 80 1 80 64 0 37 6 47 48 87 64 62 83 68
167 57 178 -22 331 -123 397 -260 41 -86 52 -130 52 -218 0 -156 -70 -286
-246 -455 -178 -171 -349 -290 -568 -395 -36 -18 -81 -40 -100 -50 -51 -26
-192 -59 -296 -69 -196 -20 -366 30 -464 135 -100 108 -144 205 -162 354 -13
107 -9 135 39 299 78 266 332 539 578 622 111 37 156 40 268 18 51 -10 105
-19 121 -19 27 0 28 1 21 37 -4 21 -12 41 -18 46 -57 37 -231 48 -334 22 -68
-17 -212 -87 -300 -145 -63 -41 -201 -176 -267 -260 -58 -74 -135 -225 -173
-338 -28 -87 -45 -274 -30 -352 27 -145 84 -261 176 -362 126 -138 370 -194
622 -143 88 18 290 89 349 123 19 11 73 41 120 68 102 57 219 134 280 184 25
20 52 41 62 46 45 25 292 274 321 324 88 152 109 258 82 403 -23 126 -56 194
-126 263 -41 40 -55 60 -46 66 8 5 2 16 -23 37 -35 30 -79 43 -64 19 5 -8 2
-9 -10 -5 -10 4 -20 7 -22 7 -2 0 -4 7 -4 16 0 12 -7 14 -27 10 -16 -3 -35 -2
-43 4 -12 8 -10 10 10 10 35 0 14 14 -50 35 -70 23 -70 23 -100 19z"/>
<path d="M6961 19497 c-6 -9 -10 -56 -10 -123 1 -86 -5 -139 -30 -254 -62
-291 -75 -558 -46 -930 9 -107 17 -202 20 -210 2 -8 9 -105 15 -215 21 -396
57 -547 140 -590 83 -43 93 -4 33 123 -47 102 -70 234 -83 482 -32 647 -34
703 -22 899 11 181 17 233 58 441 21 108 43 269 44 313 0 48 -28 77 -74 77
-18 0 -39 -6 -45 -13z"/>
<path d="M12350 19296 c-154 -46 -280 -127 -280 -178 0 -10 2 -18 5 -18 2 0
43 20 90 45 98 52 288 105 374 105 120 0 302 -65 379 -134 47 -43 82 -131 82
-207 0 -250 -491 -757 -924 -954 -326 -148 -553 -134 -613 38 -35 100 -17 369
33 495 8 20 18 46 23 57 53 139 164 305 238 359 63 46 102 53 183 32 83 -21
97 -20 110 3 30 57 3 92 -92 116 -74 20 -125 7 -218 -56 -253 -171 -449 -702
-375 -1017 35 -147 99 -209 244 -234 214 -37 616 134 911 388 122 104 265 237
304 283 17 20 41 45 52 56 29 27 146 202 174 259 44 93 63 207 45 275 -46 175
-121 236 -349 282 -178 36 -289 38 -396 5z"/>
<path d="M22740 19213 c-62 -3 -270 -30 -344 -44 -54 -10 -90 -35 -81 -57 3
-8 -20 -42 -56 -80 -132 -146 -210 -395 -212 -682 -2 -157 17 -265 60 -355 52
-108 83 -146 158 -197 127 -86 259 -97 450 -40 295 88 608 392 694 672 5 19
15 51 21 70 21 65 24 238 7 329 -36 185 -162 315 -358 367 -62 16 -213 24
-339 17z m296 -128 c218 -50 318 -192 301 -428 -7 -106 -22 -165 -63 -255 -19
-40 -34 -75 -34 -78 0 -18 -96 -138 -168 -210 -97 -96 -167 -153 -257 -206
-106 -62 -146 -73 -280 -73 -111 0 -124 2 -177 28 -47 23 -128 99 -128 121 0
3 -11 29 -24 58 -45 97 -60 195 -53 352 13 289 109 540 247 641 69 51 112 55
169 17 51 -35 75 -32 102 12 11 19 29 33 46 36 48 9 257 -1 319 -15z"/>
<path d="M7211 16404 c-22 -16 -23 -20 -15 -108 4 -50 8 -323 9 -606 2 -542
14 -737 71 -1165 3 -22 7 -121 9 -220 3 -170 5 -181 25 -197 27 -22 33 -22 59
0 22 17 22 18 7 142 -8 69 -14 150 -14 180 -1 46 -13 220 -26 380 -21 238 -27
769 -15 1318 5 257 5 264 -15 278 -27 19 -66 18 -95 -2z"/>
<path d="M11847 16129 c-60 -14 -108 -43 -168 -100 -60 -58 -158 -209 -182
-280 -9 -24 -27 -69 -40 -100 -84 -187 -121 -499 -81 -688 17 -86 45 -174 67
-218 51 -98 158 -190 253 -219 174 -52 365 16 619 219 88 71 302 295 360 377
120 170 201 339 221 460 10 61 6 177 -7 220 -13 39 -67 101 -117 132 -69 43
-193 60 -277 37 -183 -48 -535 -291 -535 -368 0 -28 40 -28 65 -1 10 11 22 20
28 20 5 0 53 34 106 76 151 120 282 170 418 162 62 -4 82 -11 130 -41 65 -40
103 -97 103 -155 0 -64 -50 -234 -96 -324 -85 -167 -260 -371 -454 -527 -113
-91 -177 -129 -280 -166 -188 -67 -373 -3 -462 160 -142 259 -81 720 139 1052
100 152 163 184 309 157 91 -17 122 -19 131 -10 11 10 6 86 -6 100 -26 31
-161 44 -244 25z"/>
<path d="M4634 15620 c-28 -11 -59 -78 -75 -162 -10 -54 -10 -112 -1 -295 7
-126 15 -271 18 -323 8 -163 24 -369 40 -525 8 -82 21 -237 28 -344 13 -192
13 -195 40 -218 29 -24 51 -29 61 -13 5 8 -5 242 -20 445 -27 373 -65 1045
-65 1156 0 92 2 101 35 165 19 37 35 74 35 83 0 37 -46 52 -96 31z"/>
<path d="M22585 15500 c-135 -36 -200 -57 -232 -73 -32 -17 -47 -44 -38 -68 2
-8 -20 -44 -49 -81 -66 -80 -75 -97 -114 -214 -54 -159 -53 -279 6 -475 27
-90 43 -118 107 -187 87 -94 225 -156 376 -169 79 -7 235 11 294 34 22 8 49
19 60 22 51 18 165 80 214 116 29 22 70 51 90 64 63 41 120 103 185 201 84
125 111 205 103 303 -15 167 -75 262 -231 366 -131 86 -244 125 -416 141 -63
6 -128 15 -145 20 -67 19 -140 19 -210 0z m445 -150 c64 -15 95 -27 209 -83
299 -149 318 -414 49 -675 -154 -150 -340 -233 -553 -248 -104 -7 -194 10
-285 56 -137 69 -190 152 -237 365 -9 43 -1 192 16 267 22 99 131 271 189 298
23 10 175 31 302 42 59 5 252 -9 310 -22z"/>
<path d="M23710 14574 c-52 -8 -107 -20 -123 -27 -27 -13 -25 -14 50 -30 51
-11 177 -20 367 -28 158 -6 330 -14 382 -18 l94 -6 0 53 c0 44 -3 53 -15 48
-8 -3 -61 -1 -118 4 -183 17 -532 19 -637 4z"/>
<path d="M11975 12766 c-27 -13 -73 -41 -102 -63 -61 -46 -179 -187 -245 -294
-48 -77 -126 -251 -148 -329 -7 -25 -19 -63 -26 -85 -23 -68 -45 -259 -43
-372 6 -418 161 -662 439 -692 101 -11 165 -3 280 34 108 35 303 130 400 194
241 160 526 439 655 640 157 247 199 351 198 491 -1 179 -95 293 -293 355
-100 31 -144 38 -240 39 -80 0 -110 -5 -193 -32 -121 -39 -166 -63 -195 -106
-26 -38 -21 -63 16 -73 18 -4 45 4 96 29 92 46 132 58 202 62 219 11 415 -59
481 -171 24 -42 28 -58 27 -123 -1 -119 -38 -218 -144 -390 -40 -65 -174 -234
-239 -304 -69 -72 -386 -336 -405 -336 -4 0 -34 -18 -67 -40 -33 -22 -64 -40
-67 -40 -4 0 -23 -9 -43 -19 -55 -30 -197 -77 -273 -91 -132 -25 -303 5 -374
65 -46 38 -111 143 -133 214 -40 130 -55 356 -34 511 8 60 45 211 68 275 26
72 100 219 141 280 60 88 161 191 222 226 68 39 138 47 220 25 80 -21 100 -20
124 4 24 24 27 82 6 100 -18 14 -154 39 -216 40 -27 0 -65 -10 -95 -24z"/>
<path d="M4666 12605 c-13 -10 -26 -49 -43 -137 -24 -117 -24 -134 -18 -358 4
-129 8 -345 10 -480 11 -651 16 -730 106 -1547 19 -173 36 -370 44 -508 10
-159 31 -234 70 -249 40 -15 41 -8 16 244 -13 130 -29 334 -36 460 -3 58 -15
202 -26 320 -33 362 -58 799 -64 1145 -4 182 -8 357 -10 390 -21 412 -18 470
27 624 16 53 19 78 11 90 -13 21 -63 25 -87 6z"/>
<path d="M7088 12530 c-62 -104 -69 -108 -236 -144 -62 -13 -119 -30 -127 -36
-23 -19 -18 -38 17 -56 38 -20 86 -14 127 15 16 12 36 21 45 21 9 0 27 6 39
14 19 12 110 43 224 77 17 5 67 14 110 19 43 5 96 14 118 20 72 17 246 23 310
10 65 -13 134 -34 169 -51 47 -24 139 -147 183 -247 52 -118 67 -195 66 -352
0 -132 -3 -155 -31 -250 -78 -269 -247 -485 -456 -584 -103 -49 -153 -60 -254
-54 -165 10 -300 86 -393 222 -66 98 -112 273 -104 396 2 25 6 83 10 130 8
113 86 410 135 515 6 11 17 40 25 65 15 43 15 46 -6 62 -35 30 -99 6 -99 -37
0 -12 -15 -60 -34 -107 -39 -97 -92 -265 -101 -323 -4 -22 -13 -72 -21 -112
-26 -131 -16 -336 24 -484 17 -64 91 -193 140 -245 107 -113 237 -173 392
-181 255 -14 517 136 683 389 154 235 200 388 198 649 -2 198 -42 334 -147
494 -83 128 -208 197 -391 217 -117 14 -246 1 -342 -34 -31 -11 -72 -21 -91
-22 -33 -1 -35 1 -38 34 -5 46 -18 60 -58 60 -31 0 -36 -6 -86 -90z"/>
<path d="M19319 12469 c-166 -24 -354 -154 -507 -348 -181 -229 -262 -433
-262 -657 0 -123 27 -230 86 -346 26 -51 115 -149 167 -183 189 -124 612 -108
958 38 105 44 290 142 339 179 144 109 242 195 331 292 93 100 111 125 139
196 30 75 32 87 28 173 -5 119 -34 186 -117 266 -70 69 -148 118 -256 162 -66
27 -97 33 -181 37 -86 4 -110 1 -165 -18 -71 -25 -170 -72 -211 -101 -14 -10
-31 -19 -36 -19 -14 0 -102 -99 -102 -115 0 -14 26 -45 38 -45 4 0 31 17 61
38 110 77 158 102 240 128 97 30 153 29 275 -7 110 -32 170 -65 239 -133 113
-111 135 -229 68 -371 -56 -121 -293 -341 -489 -454 -215 -125 -400 -186 -637
-212 -198 -21 -375 2 -478 62 -48 29 -106 83 -107 102 0 4 -11 24 -23 45 -48
75 -72 177 -71 297 1 206 78 403 226 585 92 112 143 158 246 217 89 50 126 62
232 72 85 9 136 36 147 79 12 48 -45 61 -178 41z"/>
<path d="M15763 12289 c-82 -16 -149 -68 -231 -177 -21 -29 -60 -67 -85 -85
-54 -39 -163 -160 -214 -237 -19 -30 -43 -66 -53 -80 -32 -47 -101 -178 -126
-241 -91 -228 -99 -366 -26 -488 66 -111 163 -159 342 -168 143 -7 253 22 445
117 177 89 289 172 392 292 148 172 195 263 228 443 27 145 -1 263 -90 380
-106 139 -240 220 -400 241 -112 15 -122 15 -182 3z m57 -63 c0 -3 -4 -8 -10
-11 -5 -3 -10 -1 -10 4 0 6 5 11 10 11 6 0 10 -2 10 -4z m150 -63 c30 -14 72
-31 92 -38 86 -32 216 -153 258 -242 84 -175 -13 -455 -229 -662 -137 -131
-366 -251 -536 -281 -110 -19 -287 -10 -353 19 -85 38 -142 121 -142 208 0 46
29 170 55 238 88 224 291 512 373 528 18 4 33 14 37 26 3 11 27 30 53 43 53
26 152 30 294 14 l77 -9 11 29 c14 37 0 71 -37 85 -16 6 -69 12 -120 14 -115
4 -133 13 -96 50 25 25 188 11 263 -22z"/>
<path d="M22685 11968 c-49 -4 -112 -12 -140 -18 -27 -6 -91 -16 -142 -22 -82
-10 -98 -10 -147 7 -48 17 -58 17 -81 5 -57 -31 -56 -74 3 -108 60 -33 136
-34 326 -2 287 49 480 26 691 -82 139 -71 263 -210 306 -343 21 -63 22 -73 11
-150 -16 -111 -27 -134 -118 -260 -192 -263 -521 -449 -835 -472 -215 -15
-333 52 -432 246 -61 119 -83 250 -64 380 12 81 29 105 117 166 80 57 130 106
130 129 0 7 -8 20 -18 29 -35 32 -65 21 -163 -61 -52 -44 -100 -86 -106 -94
-31 -37 -65 -155 -70 -245 -12 -199 55 -378 197 -524 119 -121 188 -145 392
-136 214 9 385 70 601 212 87 56 268 227 311 291 14 22 45 66 69 99 68 95 101
193 98 295 -4 151 -59 275 -171 390 -190 194 -466 291 -765 268z"/>
<path d="M24471 9464 c0 -11 3 -14 6 -6 3 7 2 16 -1 19 -3 4 -6 -2 -5 -13z"/>
<path d="M24472 9155 c0 -16 2 -22 5 -12 2 9 2 23 0 30 -3 6 -5 -1 -5 -18z"/>
<path d="M24471 9024 c0 -11 3 -14 6 -6 3 7 2 16 -1 19 -3 4 -6 -2 -5 -13z"/>
<path d="M24472 8960 c0 -14 2 -19 5 -12 2 6 2 18 0 25 -3 6 -5 1 -5 -13z"/>
<path d="M24464 8879 c-3 -6 -1 -16 5 -22 8 -8 11 -5 11 11 0 24 -5 28 -16 11z"/>
<path d="M24467 8807 c-3 -8 -1 -20 4 -28 6 -10 9 -7 9 14 0 29 -5 35 -13 14z"/>
<path d="M24468 8633 c-3 -159 -4 -207 -13 -623 -5 -184 -8 -346 -8 -360 0
-14 0 -38 0 -55 1 -48 -5 -229 -7 -235 -1 -3 -4 -72 -6 -155 -3 -82 -9 -186
-13 -230 -5 -44 -5 -102 -1 -130 4 -27 6 -54 3 -59 -3 -5 -7 -63 -9 -130 -2
-66 -6 -155 -9 -196 -13 -170 -14 -404 -2 -419 9 -11 9 -15 0 -18 -8 -3 -13
-23 -13 -53 0 -27 -5 -50 -11 -52 -9 -3 -9 -13 0 -41 8 -23 10 -49 5 -70 -5
-17 -9 -70 -10 -117 -2 -47 -5 -119 -8 -160 -10 -132 -12 -192 -5 -195 6 -5 4
-65 -5 -110 -8 -39 -8 -294 0 -307 4 -5 1 -28 -5 -51 -15 -59 -28 -342 -21
-456 2 -21 0 -44 -4 -50 -7 -11 -13 -146 -21 -451 -2 -85 -6 -204 -9 -265 -7
-148 -18 -509 -21 -675 -2 -74 -4 -135 -5 -135 -1 0 -4 -53 -5 -117 -2 -65 -6
-122 -10 -128 -4 -6 -2 -16 4 -23 10 -13 9 -105 -1 -123 -4 -5 -4 -45 -2 -88
2 -44 0 -84 -5 -90 -10 -12 -9 -162 2 -172 3 -4 0 -18 -8 -33 -10 -20 -11 -39
-4 -74 7 -37 6 -161 -1 -187 -4 -16 -11 -326 -10 -475 1 -55 -4 -122 -11 -150
-6 -27 -11 -63 -10 -80 5 -147 -1 -525 -9 -530 -5 -3 -6 -44 -4 -93 2 -48 4
-91 4 -97 1 -5 -3 -30 -9 -54 -5 -25 -7 -50 -4 -58 3 -7 0 -60 -7 -117 -15
-131 -11 -146 39 -146 47 0 65 18 52 51 -8 22 -7 103 3 314 2 44 6 163 10 265
3 102 11 198 17 213 8 18 9 36 3 50 -10 24 -11 227 -2 243 9 13 10 160 2 212
-4 25 -2 48 5 56 6 7 9 31 7 53 -2 23 0 60 3 84 4 24 4 55 1 69 -3 14 -2 50 2
80 5 30 11 168 13 305 3 138 8 288 11 335 7 122 7 115 4 240 -1 63 1 180 5
260 4 80 9 204 11 275 2 72 6 182 8 245 3 63 7 201 9 305 6 270 17 527 24 549
12 41 8 167 -5 179 -11 8 -10 12 3 20 11 6 15 17 11 30 -3 12 -1 74 4 137 5
63 12 221 15 350 4 129 7 266 9 303 1 38 -2 71 -7 74 -4 3 -1 13 7 22 11 12
16 40 16 92 4 272 6 328 12 334 8 9 11 3015 3 3015 -3 0 -6 -57 -7 -127z"/>
<path d="M14275 8092 c-108 -32 -204 -95 -291 -192 -55 -61 -136 -176 -159
-225 -10 -22 -29 -57 -41 -77 -13 -21 -42 -86 -65 -145 -22 -59 -44 -112 -49
-118 -7 -10 -27 -84 -35 -134 -2 -13 -8 -35 -14 -50 -14 -36 -41 -174 -41
-211 0 -16 -10 -58 -22 -92 -22 -60 -23 -76 -22 -353 1 -331 7 -412 36 -545
22 -103 38 -151 71 -217 18 -36 24 -41 35 -29 8 8 17 29 21 47 5 27 12 35 34
37 30 4 32 12 42 147 3 44 8 89 11 100 5 21 -20 65 -30 54 -4 -3 -8 -28 -10
-55 -5 -69 -24 -134 -42 -141 -8 -3 -25 2 -38 10 -27 18 -37 75 -37 203 1 44
-4 124 -11 179 -9 79 -8 147 2 310 7 116 13 230 14 255 1 25 7 63 13 85 7 22
19 77 28 123 23 120 97 338 156 459 79 162 159 273 262 364 81 71 98 82 173
105 147 46 252 17 369 -102 105 -108 216 -331 200 -404 -11 -51 -96 -142 -195
-208 -52 -35 -96 -67 -98 -72 -6 -15 77 8 125 35 103 60 225 177 249 241 16
41 16 49 1 109 -31 123 -148 324 -244 417 -72 70 -149 102 -253 105 -58 2
-104 -3 -145 -15z"/>
<path d="M10505 7676 c-52 -16 -112 -55 -151 -97 -44 -48 -123 -167 -131 -198
-3 -14 -16 -46 -29 -71 -24 -48 -85 -226 -103 -300 -72 -291 -112 -757 -91
-1050 28 -387 142 -761 218 -714 35 22 37 58 8 117 -32 66 -58 147 -80 247 -9
41 -21 95 -26 120 -52 238 -41 810 21 1115 33 161 60 264 84 320 12 28 25 62
28 76 4 14 27 63 52 108 25 44 45 85 45 90 0 5 21 31 48 59 54 57 134 92 209
92 124 0 324 -117 454 -266 52 -59 109 -132 109 -138 0 -4 19 -36 42 -73 43
-69 78 -155 102 -258 17 -69 27 -260 15 -290 -4 -11 -17 -56 -29 -100 -30
-111 -78 -219 -149 -335 -11 -19 -26 -46 -33 -60 -6 -14 -32 -50 -58 -80 -25
-30 -54 -68 -64 -83 -27 -43 -246 -257 -313 -306 -32 -24 -76 -67 -97 -97 -22
-30 -50 -61 -63 -69 -13 -9 -23 -22 -23 -30 0 -9 -13 -18 -30 -21 -16 -4 -30
-10 -30 -15 0 -4 -9 -11 -20 -14 -11 -3 -20 -13 -20 -20 0 -22 -121 -140 -160
-155 -19 -8 -70 -39 -113 -68 -76 -53 -80 -54 -128 -48 -27 4 -55 9 -62 12 -7
2 -21 -2 -31 -9 -17 -12 -17 -18 -7 -50 14 -41 44 -67 77 -67 43 0 152 59 203
110 28 28 51 55 51 61 0 5 24 9 53 8 63 -2 98 8 95 27 -2 8 8 20 22 27 21 11
25 19 22 51 -4 50 39 116 75 116 13 0 26 6 29 14 3 8 30 27 60 43 30 15 54 31
54 35 0 4 28 28 63 55 34 26 71 57 82 69 11 11 47 42 80 69 33 27 78 69 101
94 79 90 189 228 212 267 13 21 41 70 64 107 47 82 127 282 154 387 28 111 26
336 -4 443 -34 119 -57 173 -114 266 -154 254 -316 403 -507 468 -75 26 -200
30 -266 9z"/>
<path d="M14265 7160 c-11 -4 -30 -22 -43 -39 -17 -24 -20 -35 -13 -50 13 -24
24 -28 123 -41 193 -25 348 -76 460 -152 120 -82 207 -163 249 -233 20 -34 24
-53 23 -120 0 -106 -29 -164 -133 -264 -68 -66 -193 -159 -246 -182 -11 -5
-33 -18 -50 -29 -16 -11 -41 -25 -55 -31 -14 -6 -52 -24 -86 -40 -34 -16 -67
-29 -75 -29 -8 0 -30 -10 -49 -21 -35 -22 -113 -48 -222 -75 -32 -7 -66 -18
-75 -24 -10 -5 -52 -19 -94 -32 -47 -13 -81 -30 -89 -41 -11 -18 -9 -19 37
-14 26 3 61 8 76 12 25 7 28 5 25 -11 -2 -10 -14 -24 -28 -31 -25 -13 -25 -13
11 -13 20 0 39 3 42 7 14 13 112 43 128 38 9 -3 22 1 29 10 7 8 21 15 31 15
10 0 20 4 24 9 3 5 19 12 35 16 34 7 34 9 20 36 -9 16 -7 21 15 29 33 12 45
13 26 1 -12 -8 -12 -12 -2 -25 18 -22 61 -20 91 4 14 11 34 20 45 20 25 1 106
60 82 60 -9 0 -17 7 -17 15 0 18 72 54 106 55 12 0 24 6 27 13 3 7 36 34 73
59 38 24 95 62 127 84 33 21 71 45 85 53 15 7 46 29 68 47 33 26 43 42 48 76
4 23 10 47 15 53 4 5 18 43 31 83 44 142 5 257 -134 390 -138 132 -304 223
-491 271 -44 11 -100 27 -124 36 -47 16 -94 19 -126 5z m271 -1249 c-4 -6 -16
-11 -26 -11 -10 0 -23 -6 -27 -14 -10 -17 -69 -31 -77 -17 -9 14 40 44 60 37
11 -4 25 2 37 15 19 21 47 13 33 -10z m-342 -97 c26 -10 19 -34 -9 -34 -15 0
-40 -7 -56 -16 -31 -16 -59 -13 -59 5 0 13 58 44 68 37 4 -3 14 -1 22 5 18 11
15 10 34 3z"/>
<path d="M12600 6765 c-6 -8 -14 -31 -17 -52 -6 -47 19 -74 71 -76 44 -1 55 9
63 56 4 29 1 40 -20 61 -29 29 -77 35 -97 11z"/>
<path d="M10227 6263 c-4 -3 -7 -27 -7 -52 0 -34 11 -67 40 -126 39 -78 41
-84 56 -255 20 -238 42 -400 55 -417 15 -17 53 -17 69 2 9 10 9 27 1 67 -6 29
-18 150 -27 268 -21 277 -53 398 -129 489 -26 30 -45 38 -58 24z"/>
<path d="M13815 5730 c-3 -5 1 -10 9 -10 9 0 16 5 16 10 0 6 -4 10 -9 10 -6 0
-13 -4 -16 -10z"/>
<path d="M13920 5694 c-14 -7 -33 -14 -42 -14 -9 0 -20 -4 -23 -10 -3 -5 -19
-10 -35 -10 -27 0 -48 -15 -37 -26 6 -6 87 16 102 27 6 4 27 10 48 14 21 4 37
13 37 21 0 17 -17 16 -50 -2z"/>
<path d="M13541 5666 c-9 -10 -27 -13 -71 -9 -88 8 -123 -30 -58 -63 27 -14
50 -16 132 -11 55 4 104 11 110 17 5 5 26 10 46 10 38 1 79 24 61 35 -6 3 -38
3 -70 -1 -68 -7 -169 4 -137 16 12 4 15 9 9 13 -6 4 -16 1 -22 -7z"/>
<path d="M13598 5673 c7 -3 16 -2 19 1 4 3 -2 6 -13 5 -11 0 -14 -3 -6 -6z"/>
</g>
</svg>
