<?xml version="1.0" standalone="no"?>
<!DOCTYPE svg PUBLIC "-//W3C//DTD SVG 20010904//EN"
 "http://www.w3.org/TR/2001/REC-SVG-20010904/DTD/svg10.dtd">
<svg version="1.0" xmlns="http://www.w3.org/2000/svg"
 width="3264.000000pt" height="2448.000000pt" viewBox="0 0 3264.000000 2448.000000"
 preserveAspectRatio="xMidYMid meet">
<metadata>
Created by potrace 1.12, written by Peter Selinger 2001-2015
</metadata>
<g transform="translate(0.000000,2448.000000) scale(0.100000,-0.100000)"
fill="#000000" stroke="none">
<path d="M13528 22423 c-56 -60 -90 -152 -143 -383 -45 -198 -41 -188 -67
-160 -11 12 -44 33 -72 46 -137 64 -255 -4 -264 -150 -4 -59 -2 -65 28 -99 43
-49 114 -70 219 -65 62 3 90 10 153 40 71 33 168 109 168 129 0 20 -49 6 -120
-32 -41 -23 -97 -48 -125 -55 -114 -31 -245 -6 -259 49 -8 34 19 102 52 127
64 51 167 5 224 -99 31 -57 56 -39 78 59 34 156 95 383 117 440 14 36 38 82
54 102 33 41 36 63 13 72 -24 9 -29 8 -56 -21z"/>
<path d="M8151 22413 c-12 -23 -24 -597 -13 -643 6 -25 13 -35 27 -35 19 0 21
10 27 130 3 72 11 222 17 334 12 214 9 231 -30 231 -10 0 -22 -8 -28 -17z"/>
<path d="M9325 22354 c-46 -25 -94 -74 -123 -126 -14 -26 -36 -51 -48 -56 -27
-13 -41 -65 -59 -217 -7 -66 -21 -182 -31 -257 -10 -75 -15 -140 -12 -144 4
-3 18 -4 32 0 34 8 42 40 57 213 l12 150 65 -48 c35 -27 101 -62 145 -80 126
-48 247 -50 247 -4 0 16 -20 22 -98 28 -76 6 -282 113 -282 146 0 4 39 16 88
25 172 33 222 79 222 201 0 78 -16 129 -50 160 -29 26 -124 31 -165 9z m112
-49 c26 -18 43 -72 43 -138 0 -37 -5 -53 -24 -72 -24 -24 -39 -29 -176 -63
-41 -10 -84 -23 -94 -27 -17 -8 -19 -5 -14 32 3 22 19 69 36 104 66 139 165
209 229 164z"/>
<path d="M10867 22335 c-8 -8 -20 -47 -27 -87 -6 -40 -24 -138 -40 -218 -45
-229 -53 -291 -41 -322 11 -30 18 -33 40 -19 9 6 15 32 18 74 1 35 21 139 43
231 50 205 68 335 48 347 -18 12 -24 11 -41 -6z"/>
<path d="M15787 22263 c-4 -3 -7 -35 -7 -70 0 -86 -22 -188 -71 -324 -22 -62
-39 -124 -37 -138 5 -39 33 -38 48 1 7 18 32 79 56 134 65 150 92 306 64 378
-9 25 -38 35 -53 19z"/>
<path d="M14582 22238 c-7 -7 -12 -35 -13 -62 0 -28 -6 -82 -12 -121 -11 -65
-16 -74 -71 -132 -102 -109 -230 -173 -304 -153 -57 15 -85 46 -79 86 8 49 32
78 88 109 39 21 66 28 113 29 54 1 61 4 64 22 6 41 -75 56 -162 30 -72 -22
-122 -61 -151 -119 -29 -59 -31 -93 -10 -144 8 -20 14 -38 12 -40 -2 -1 -52
-8 -110 -14 -83 -9 -117 -9 -151 1 -56 15 -95 48 -102 85 l-5 30 80 0 c44 0
83 -4 87 -8 12 -11 62 -8 70 5 4 7 1 16 -8 22 -14 8 -12 15 18 51 42 52 44 86
7 115 -24 19 -37 22 -98 18 -102 -7 -172 -49 -206 -123 -49 -107 7 -216 134
-259 82 -28 209 -17 293 25 37 19 48 20 88 10 25 -6 57 -11 73 -11 43 1 108
34 161 84 53 49 69 58 52 27 -28 -53 7 -94 43 -50 27 32 87 163 87 188 0 12 9
30 19 40 41 41 65 203 37 246 -18 28 -27 30 -44 13z m-682 -256 c0 -18 -32
-51 -64 -66 -36 -17 -111 -22 -120 -8 -7 12 42 58 74 71 30 12 110 14 110 3z"/>
<path d="M9885 22136 c-123 -40 -184 -118 -185 -236 0 -162 77 -241 235 -241
40 0 91 5 112 10 73 21 150 77 131 97 -4 4 -38 -6 -75 -22 -56 -24 -82 -29
-148 -29 -67 0 -85 4 -112 23 -27 19 -82 108 -72 116 2 2 31 15 64 30 150 68
236 147 216 199 -20 53 -95 77 -166 53z m79 -62 c9 -3 16 -15 16 -25 0 -33
-135 -118 -187 -119 -52 0 -8 100 57 132 35 18 85 23 114 12z"/>
<path d="M10525 22101 c-44 -20 -117 -94 -155 -156 -13 -22 -32 -46 -42 -53
-11 -8 -18 -26 -18 -45 0 -18 -21 -93 -45 -167 -56 -166 -65 -217 -40 -226 48
-19 77 41 129 270 7 27 8 28 26 11 18 -17 22 -17 62 -2 85 33 211 174 238 268
28 96 -52 148 -155 100z m83 -79 c4 -42 -36 -106 -112 -181 -46 -45 -57 -52
-70 -42 -8 7 -24 10 -36 6 -19 -6 -20 -4 -14 22 7 30 76 155 103 187 22 25 70
46 101 43 20 -2 26 -8 28 -35z"/>
<path d="M11110 22032 c-77 -78 -128 -169 -137 -243 -7 -60 6 -79 56 -79 41 0
67 15 127 72 l41 39 6 -67 c8 -78 28 -117 60 -112 18 2 21 8 18 33 -1 17 -2
92 -1 167 1 127 0 137 -19 147 -32 17 -49 3 -66 -55 -17 -59 -69 -125 -116
-150 -37 -18 -42 -7 -24 54 16 54 71 131 126 176 19 15 42 34 52 42 26 21 16
38 -23 42 -29 3 -40 -4 -100 -66z"/>
<path d="M11592 22035 c-68 -74 -102 -145 -102 -211 0 -47 3 -55 35 -83 41
-36 104 -55 162 -48 23 2 78 22 123 43 67 31 85 36 98 26 51 -37 89 -47 177
-47 88 1 130 10 208 42 38 16 49 39 23 49 -8 3 -44 -4 -81 -15 -109 -34 -265
-21 -265 21 0 7 28 33 61 58 73 54 159 147 159 172 0 43 -86 51 -158 14 -47
-24 -112 -82 -139 -122 -7 -12 -17 -41 -21 -65 -6 -39 -12 -46 -52 -66 -25
-12 -67 -30 -95 -39 -43 -13 -55 -14 -89 -2 -22 7 -48 25 -59 40 -20 27 -20
29 -3 85 15 45 31 70 78 116 64 62 69 87 19 87 -22 0 -40 -12 -79 -55z m518
-23 c0 -21 -152 -147 -163 -136 -9 10 17 56 50 85 45 43 113 73 113 51z"/>
<path d="M14851 21983 c-17 -21 -47 -68 -66 -105 -20 -37 -39 -68 -42 -68 -3
0 -3 16 0 36 7 44 -6 74 -33 74 -28 0 -32 -13 -40 -129 -7 -95 -6 -108 11
-125 17 -18 19 -18 43 -3 15 10 43 54 67 103 23 47 43 84 45 82 2 -2 -3 -26
-11 -53 -22 -71 -19 -102 10 -121 37 -24 82 -4 170 78 l75 70 0 -36 c0 -62 71
-111 108 -74 18 18 15 26 -18 43 -22 11 -30 23 -30 42 l0 26 23 -21 c42 -39
115 -23 185 41 l22 20 0 -22 c0 -25 17 -62 34 -73 21 -14 63 -8 81 12 22 24
13 50 -18 50 -23 0 -25 5 -31 73 -4 39 -9 80 -12 90 -8 25 -43 21 -56 -8 l-11
-24 -27 29 c-47 50 -113 31 -148 -42 l-20 -43 -11 28 c-7 17 -18 27 -31 27
-11 0 -20 -4 -20 -8 0 -18 -135 -154 -176 -178 -25 -15 -47 -25 -49 -22 -2 2
11 45 30 96 37 97 43 140 23 160 -21 21 -46 13 -77 -25z m448 -63 c9 -26 7
-32 -12 -44 -12 -8 -35 -18 -51 -22 -25 -6 -28 -5 -23 10 4 10 7 21 7 25 0 12
48 61 59 61 5 0 14 -14 20 -30z"/>
<path d="M8452 21938 c-17 -17 -15 -64 4 -83 14 -14 19 -14 38 -2 26 18 32 59
11 81 -19 19 -37 20 -53 4z"/>
<path d="M10263 21264 c-3 -9 4 -72 17 -139 13 -67 20 -130 17 -139 -4 -9 -22
-24 -42 -33 -41 -20 -54 -48 -31 -71 15 -15 19 -15 51 2 19 11 37 17 39 15 3
-2 12 -48 20 -101 20 -122 46 -203 66 -203 19 0 19 40 -3 170 -9 55 -18 119
-20 142 l-5 42 85 66 c117 91 152 112 163 94 10 -15 17 -84 25 -249 3 -64 9
-129 13 -145 18 -65 81 -58 121 14 29 52 34 49 89 -64 43 -87 72 -121 97 -112
18 8 20 41 2 55 -7 6 -33 57 -58 112 -51 116 -87 167 -113 157 -9 -4 -31 -30
-49 -59 l-32 -51 -6 164 c-6 182 -19 232 -64 249 -35 13 -70 -4 -173 -85 -46
-36 -89 -65 -96 -65 -8 0 -17 39 -28 110 -9 61 -22 117 -28 125 -17 20 -49 19
-57 -1z"/>
<path d="M10042 21228 c-17 -17 -15 -45 4 -52 19 -7 54 10 54 27 0 16 -20 37
-35 37 -6 0 -16 -5 -23 -12z"/>
<path d="M12046 21114 c-13 -13 -16 -42 -16 -157 0 -78 -5 -191 -12 -252 -6
-60 -12 -132 -12 -159 -2 -102 63 -76 119 47 83 182 117 248 127 245 23 -8 68
-185 68 -271 0 -60 10 -87 30 -87 14 0 18 12 23 63 13 140 -38 348 -93 377
-49 26 -93 -24 -160 -177 -23 -54 -47 -102 -53 -108 -7 -7 -8 -4 -4 7 9 27 35
240 42 354 6 86 5 103 -10 117 -20 21 -29 21 -49 1z"/>
<path d="M10001 21030 c-10 -6 -9 -18 4 -55 9 -27 20 -108 24 -188 5 -76 14
-144 19 -149 18 -18 41 0 48 37 9 49 -10 283 -26 316 -14 30 -51 51 -69 39z"/>
<path d="M13195 20981 c-3 -12 -4 -25 -1 -29 9 -14 46 -194 46 -222 0 -20 -13
-32 -67 -65 -37 -22 -84 -55 -104 -75 -27 -26 -41 -33 -52 -26 -10 7 -28 0
-63 -22 -53 -36 -70 -38 -118 -18 -30 12 -116 105 -116 125 0 4 19 21 43 38
43 30 77 83 77 121 0 28 -42 85 -74 101 -25 12 -33 11 -62 -3 -48 -22 -74 -69
-74 -133 0 -44 -3 -53 -18 -53 -25 0 -42 -19 -42 -47 0 -25 26 -43 62 -43 17
0 29 -10 43 -36 10 -19 45 -60 77 -89 90 -83 155 -86 236 -9 25 24 46 44 48
44 1 0 4 -9 7 -20 9 -35 44 -22 129 45 46 36 87 64 92 62 5 -2 14 -16 19 -33
14 -42 55 -104 74 -111 9 -4 21 1 29 12 12 16 12 22 -1 39 -8 12 -27 44 -42
73 -25 50 -26 53 -10 71 10 11 41 32 70 47 28 15 79 48 112 73 79 61 89 75 59
86 -21 8 -63 -11 -173 -78 -52 -30 -97 -54 -101 -51 -4 2 -10 41 -13 86 -4 45
-14 98 -24 118 -21 42 -58 54 -68 22z m-425 -179 c0 -23 -40 -62 -63 -62 -17
0 -19 5 -13 33 8 41 43 72 62 56 8 -6 14 -18 14 -27z"/>
<path d="M9869 20933 c-6 -15 -16 -58 -23 -94 -14 -76 -88 -215 -119 -225 -25
-8 -32 4 -58 91 -28 98 -40 120 -68 120 -19 0 -31 -17 -75 -105 -28 -58 -55
-103 -61 -100 -10 5 -13 83 -5 160 5 42 4 45 -20 45 -35 0 -50 -37 -50 -127 0
-92 11 -125 46 -138 43 -17 83 14 123 96 l34 69 17 -51 c37 -107 60 -134 119
-134 44 0 92 47 136 135 37 73 39 80 39 177 1 72 -3 102 -11 105 -7 3 -18 -8
-24 -24z"/>
<path d="M7855 20246 c-73 -23 -129 -58 -197 -123 -75 -73 -85 -96 -57 -124
25 -25 38 -17 81 46 66 99 183 151 320 143 93 -5 106 -19 90 -95 -6 -31 -52
-138 -101 -239 -108 -221 -126 -272 -109 -325 15 -53 40 -76 88 -84 33 -6 51
-2 87 17 54 27 87 66 77 91 -9 23 -28 21 -72 -8 -55 -36 -97 -42 -111 -16 -16
29 10 101 112 308 90 184 116 268 97 319 -16 42 -59 83 -99 94 -49 14 -157 11
-206 -4z"/>
<path d="M8893 20250 c-40 -16 -121 -111 -158 -184 -58 -116 -77 -208 -79
-376 -1 -183 17 -243 68 -224 23 9 28 32 34 142 2 56 7 102 9 102 3 0 25 -17
48 -38 66 -58 128 -76 268 -77 l117 -1 30 -47 c16 -25 44 -54 62 -63 65 -34
192 -14 265 42 57 43 34 81 -32 50 -143 -68 -224 -59 -261 30 -23 55 -20 59
37 56 27 -2 64 2 82 9 83 32 187 141 187 195 0 32 -44 81 -86 94 -60 20 -166
-9 -232 -65 -50 -42 -72 -93 -72 -169 0 -61 -1 -64 -27 -71 -53 -13 -212 13
-275 45 -77 40 -102 110 -53 148 14 11 58 30 98 42 102 30 147 48 190 76 46
30 49 64 11 144 -55 119 -146 174 -231 140z m94 -60 c31 -19 103 -114 103
-136 0 -19 -70 -59 -145 -84 -158 -51 -224 -105 -210 -171 6 -27 -7 -41 -19
-20 -12 19 27 179 61 251 40 83 124 180 157 180 12 0 35 -9 53 -20z m487 -300
c34 -12 33 -22 -6 -66 -53 -60 -114 -94 -170 -94 -42 0 -48 3 -48 20 0 87 138
173 224 140z"/>
<path d="M10320 20108 c-5 -13 -25 -112 -45 -222 -20 -109 -45 -232 -56 -272
-23 -83 -23 -169 0 -169 10 0 20 27 32 85 9 47 29 121 43 165 27 87 68 245 87
342 10 50 10 64 0 77 -19 23 -50 20 -61 -6z"/>
<path d="M11005 19876 c-91 -40 -186 -175 -186 -263 -1 -69 14 -99 60 -123 51
-25 79 -25 166 4 l70 23 70 -24 c38 -13 90 -25 115 -26 42 -2 45 0 48 24 4 36
-22 59 -66 59 -20 0 -47 3 -60 6 -21 6 -20 9 27 54 48 46 91 114 91 144 0 102
-166 118 -259 26 -38 -38 -46 -80 -28 -148 l14 -53 -26 -11 c-14 -6 -51 -13
-81 -15 -44 -4 -59 -1 -69 11 -19 22 -2 77 42 138 40 57 73 84 123 100 42 14
52 34 32 60 -19 24 -49 29 -83 14z m258 -122 c18 -18 -95 -144 -130 -144 -20
0 -35 48 -25 79 12 36 67 71 112 71 20 0 39 -3 43 -6z"/>
<path d="M13267 19866 c-113 -26 -152 -50 -152 -92 0 -31 3 -33 135 -92 71
-32 130 -76 130 -98 0 -44 -121 -131 -229 -165 -41 -12 -56 -22 -56 -35 0 -25
50 -36 100 -23 98 26 237 117 256 167 27 71 -48 149 -203 212 -32 13 -58 27
-58 31 0 10 61 27 160 45 91 16 144 17 190 4 26 -7 38 -7 48 3 11 11 10 18 -7
38 -18 22 -27 24 -118 26 -73 2 -122 -3 -196 -21z"/>
<path d="M9905 19861 c-43 -19 -94 -71 -120 -121 -19 -37 -56 -165 -80 -275
-9 -44 -23 -105 -31 -135 -18 -70 -18 -105 1 -124 31 -31 55 3 70 99 4 22 13
72 22 112 l15 72 23 -15 c78 -51 323 99 355 216 19 72 -14 150 -75 176 -47 19
-132 17 -180 -5z m165 -61 c33 -18 42 -46 27 -83 -31 -73 -215 -197 -271 -183
-26 6 -28 9 -22 44 11 64 77 185 115 210 37 24 117 30 151 12z"/>
<path d="M12000 19848 c-11 -27 -50 -271 -50 -314 0 -17 7 -54 16 -83 11 -39
23 -57 47 -71 46 -28 59 -25 115 25 59 53 110 133 171 265 24 52 57 109 73
125 33 37 35 51 8 60 -43 14 -79 -24 -144 -150 -95 -185 -164 -280 -186 -259
-25 25 -23 119 5 258 22 110 25 139 15 151 -19 23 -59 19 -70 -7z"/>
<path d="M13022 19834 c-57 -28 -91 -65 -176 -193 -67 -101 -77 -129 -50 -148
35 -25 55 -11 94 63 58 112 110 184 154 216 74 53 79 58 66 74 -17 19 -28 18
-88 -12z"/>
<path d="M10526 19825 c-114 -47 -186 -131 -194 -228 -10 -126 104 -143 226
-33 21 20 42 36 45 36 2 0 8 -20 11 -44 9 -55 27 -82 51 -72 14 5 16 12 10 39
-5 17 -7 70 -6 117 2 75 0 88 -18 104 -25 23 -34 17 -63 -40 -12 -25 -39 -60
-59 -78 -36 -33 -124 -74 -135 -63 -14 14 12 74 49 114 53 57 107 85 182 92
51 5 60 9 63 27 8 56 -65 69 -162 29z"/>
<path d="M8300 19775 c-16 -20 -5 -62 21 -75 11 -6 33 -8 50 -5 40 9 40 46 0
74 -34 25 -54 26 -71 6z"/>
<path d="M12552 19778 c-74 -25 -168 -135 -191 -225 -16 -57 -2 -86 48 -107
36 -14 46 -14 74 -2 19 7 50 28 71 46 20 18 38 31 40 29 1 -2 7 -24 12 -49 8
-39 12 -45 34 -45 l25 0 1 115 c1 135 -1 147 -26 160 -30 16 -49 1 -61 -46
-14 -56 -68 -127 -109 -144 -17 -7 -33 -10 -37 -7 -12 12 8 76 37 115 50 69
94 96 166 100 53 4 64 7 64 22 0 10 -7 23 -15 30 -21 17 -93 21 -133 8z"/>
<path d="M9602 19001 c-8 -5 -12 -17 -10 -27 2 -14 12 -19 38 -19 26 0 36 5
38 19 4 20 -13 36 -38 36 -8 0 -21 -4 -28 -9z"/>
<path d="M10210 18963 c-8 -3 -24 -14 -35 -24 -25 -22 -244 -111 -256 -103 -5
3 -9 21 -9 40 0 51 -15 74 -50 74 -37 0 -46 -28 -32 -97 9 -40 8 -51 -6 -66
-16 -18 -15 -20 10 -41 20 -15 31 -36 37 -71 6 -28 15 -66 21 -85 5 -19 10
-50 10 -67 0 -26 4 -33 20 -33 38 0 39 19 15 212 l-8 56 39 20 c22 11 50 23
64 27 14 4 56 28 94 53 54 36 70 42 77 31 5 -8 9 -80 9 -161 0 -135 2 -150 20
-168 42 -42 73 -28 175 75 52 52 101 95 108 95 21 0 49 -35 82 -103 22 -45 36
-63 53 -65 35 -5 37 23 8 92 -28 67 -88 134 -121 137 -52 5 -69 -5 -154 -86
-48 -47 -91 -85 -94 -85 -3 0 -3 67 0 149 l6 149 -26 26 c-27 27 -31 28 -57
19z"/>
<path d="M12313 18936 c-23 -20 -26 -28 -17 -43 16 -26 41 -28 80 -7 43 23 49
40 21 59 -30 21 -51 19 -84 -9z"/>
<path d="M12790 18930 c-70 -12 -128 -39 -155 -72 -29 -35 -24 -51 30 -92 53
-41 95 -103 95 -141 0 -73 -80 -119 -196 -113 -68 3 -69 3 -69 -22 0 -36 55
-63 117 -56 74 8 162 58 193 109 45 78 27 151 -57 228 l-50 47 24 16 c34 23
152 50 182 42 34 -8 46 -33 53 -110 8 -88 0 -111 -47 -137 -22 -13 -40 -30
-40 -40 0 -22 26 -43 44 -36 24 9 24 -1 4 -81 -19 -73 -19 -77 -2 -89 38 -28
51 -10 77 108 21 92 26 105 50 117 15 7 39 14 54 15 24 2 28 -2 34 -41 11 -61
38 -100 84 -122 54 -26 85 -26 85 -1 0 12 -14 26 -37 38 -48 23 -65 55 -60
116 3 40 10 54 41 81 41 38 42 43 20 74 -18 26 -65 30 -89 6 -8 -9 -22 -29
-31 -46 -8 -16 -31 -36 -49 -44 -62 -25 -65 -22 -65 62 0 47 -6 88 -15 107
-32 67 -120 97 -225 77z"/>
<path d="M9319 18863 c-8 -10 -37 -62 -64 -116 -53 -107 -104 -175 -123 -163
-24 14 -43 68 -49 134 -7 81 -17 102 -47 102 -31 0 -38 -10 -70 -112 -30 -94
-79 -171 -105 -166 -22 4 -41 85 -43 186 -2 100 -13 122 -53 104 l-28 -13 7
-99 c8 -109 26 -186 54 -220 14 -17 29 -23 62 -23 38 0 48 5 76 36 17 20 39
57 50 82 21 52 33 53 49 6 15 -46 58 -81 100 -81 61 0 118 65 199 228 53 104
57 132 23 132 -13 0 -30 -8 -38 -17z"/>
<path d="M11510 18834 c-19 -8 -43 -22 -53 -31 -15 -15 -22 -15 -53 -4 -32 12
-40 11 -82 -11 -39 -19 -60 -43 -119 -128 -39 -58 -71 -108 -72 -112 -2 -14
32 -38 55 -38 19 0 29 11 50 53 66 130 131 204 156 179 6 -6 12 -39 13 -74 3
-85 19 -131 59 -166 52 -45 162 -55 154 -13 -2 9 -10 17 -18 18 -80 10 -88 14
-104 47 -9 19 -16 52 -16 74 l0 39 49 -5 c60 -5 112 11 157 50 73 65 27 138
-87 138 -30 -1 -70 -8 -89 -16z m140 -53 c0 -18 -61 -60 -95 -67 -62 -11 -76
23 -22 56 33 20 117 28 117 11z"/>
<path d="M9609 18824 c-15 -18 -15 -85 -3 -237 7 -83 16 -97 53 -77 20 10 21
19 21 158 0 152 -5 172 -41 172 -9 0 -23 -7 -30 -16z"/>
<path d="M13925 18756 c-112 -28 -171 -75 -162 -131 3 -16 15 -57 27 -89 21
-58 21 -60 3 -85 -10 -14 -49 -41 -86 -59 -71 -35 -81 -51 -45 -76 30 -21 51
-20 97 4 55 28 99 75 113 122 10 35 9 48 -12 110 l-24 71 31 28 c22 18 52 32
92 40 76 15 100 31 85 56 -14 22 -54 26 -119 9z"/>
<path d="M11925 18744 c-49 -18 -163 -93 -170 -113 -3 -8 1 -21 8 -29 27 -26
87 -25 185 3 52 15 96 24 100 20 9 -9 -24 -165 -50 -233 -20 -54 -76 -123
-107 -134 -22 -7 -5 -38 20 -38 36 0 94 40 123 83 47 73 105 290 91 344 -3 13
-17 29 -30 35 -16 7 -25 19 -25 34 0 44 -67 56 -145 28z m65 -68 c-20 -8 -51
-16 -70 -20 l-35 -7 35 20 c19 11 51 20 70 20 l35 0 -35 -13z"/>
<path d="M12356 18698 c-8 -13 -21 -47 -30 -76 -8 -30 -25 -69 -37 -89 -26
-42 -16 -58 31 -48 29 6 37 17 77 101 36 77 42 97 33 114 -15 27 -56 26 -74
-2z"/>
<path d="M13540 18639 c-112 -94 -169 -148 -186 -181 -17 -33 -17 -33 2 -52
26 -26 58 -20 79 17 10 17 68 79 127 137 73 72 108 113 108 128 0 40 -41 25
-130 -49z"/>
<path d="M3208 18373 c-54 -58 -152 -254 -197 -393 -17 -52 -42 -152 -55 -221
-14 -69 -35 -165 -46 -213 -23 -99 -26 -160 -8 -154 13 5 17 17 43 123 43 179
55 227 79 320 54 213 152 423 233 501 47 45 54 77 17 82 -14 2 -35 -13 -66
-45z"/>
<path d="M3805 18273 c11 -100 7 -193 -15 -328 -37 -232 -84 -310 -225 -377
-75 -35 -121 -36 -169 -3 -43 29 -64 32 -73 8 -4 -11 7 -28 35 -55 36 -34 47
-38 92 -38 121 0 270 101 328 223 62 130 86 257 87 453 0 160 -6 184 -47 184
-19 0 -20 -4 -13 -67z"/>
<path d="M1526 18220 c-94 -47 -264 -200 -314 -283 -23 -38 -35 -73 -39 -111
-5 -49 -2 -64 25 -119 91 -185 317 -293 462 -220 17 8 30 21 30 29 0 11 -14
13 -72 8 -126 -11 -229 35 -329 144 -57 63 -69 87 -69 141 0 85 111 225 259
326 64 44 79 50 124 50 55 0 73 18 41 42 -25 18 -72 16 -118 -7z"/>
<path d="M2479 18214 c-9 -11 -14 -50 -17 -118 -4 -142 -3 -140 -61 -155 -27
-7 -57 -21 -67 -32 -16 -18 -16 -21 -1 -36 14 -14 22 -15 55 -5 66 20 66 21
58 -70 -3 -46 -9 -93 -12 -105 -4 -16 -1 -25 10 -29 9 -4 20 -4 23 0 4 3 12
54 19 113 8 59 15 112 18 119 2 6 28 14 58 18 80 10 162 28 173 38 7 6 4 14
-7 22 -12 9 -36 10 -85 5 -37 -5 -83 -8 -102 -8 l-33 -1 8 98 c12 145 11 156
-7 160 -9 1 -22 -5 -30 -14z"/>
<path d="M2100 18161 c-5 -11 -10 -72 -10 -136 0 -98 -2 -117 -16 -122 -9 -3
-54 -1 -99 5 -94 12 -122 8 -131 -20 -11 -34 12 -43 127 -46 88 -3 112 -7 116
-20 6 -13 -1 -66 -24 -199 -4 -28 -2 -33 15 -33 24 0 37 50 48 179 7 80 7 81
43 98 43 22 43 36 -1 43 -28 4 -33 9 -32 30 1 14 5 73 9 133 7 104 7 107 -13
107 -12 0 -26 -9 -32 -19z"/>
<path d="M26207 17923 c-51 -70 -175 -290 -242 -428 -31 -66 -88 -184 -126
-262 -70 -144 -76 -173 -35 -173 28 0 54 46 121 210 88 217 285 594 301 577 3
-3 -5 -69 -18 -148 -30 -191 -33 -498 -6 -526 26 -25 65 -7 108 49 19 26 83
132 142 235 109 191 160 264 174 250 12 -11 23 -193 24 -387 0 -176 6 -208 33
-197 31 12 30 596 -2 655 -37 68 -129 -26 -276 -283 -68 -120 -144 -234 -156
-235 -27 -1 -15 221 26 489 30 192 29 213 -12 219 -15 2 -31 -11 -56 -45z"/>
<path d="M4041 17908 c-106 -109 -147 -311 -68 -332 43 -11 109 63 148 167 12
31 25 57 29 57 4 0 13 -30 20 -67 22 -121 52 -172 80 -137 9 10 10 21 1 41 -6
16 -18 71 -26 124 -20 126 -31 157 -66 174 -47 25 -73 19 -118 -27z m68 -83
c-15 -81 -86 -194 -112 -178 -12 7 -1 95 17 138 17 40 85 110 96 98 5 -4 4
-30 -1 -58z"/>
<path d="M4755 17908 c-11 -18 -35 -66 -53 -107 -58 -130 -134 -221 -184 -221
-45 0 -52 26 -45 182 l5 138 -24 0 c-37 0 -44 -29 -44 -170 0 -144 11 -187 54
-215 79 -52 201 66 290 280 20 49 44 97 53 107 8 9 12 22 8 27 -12 21 -41 11
-60 -21z"/>
<path d="M5103 17847 c-68 -51 -115 -106 -144 -171 -23 -53 -18 -82 16 -98 36
-16 103 28 177 117 35 41 68 75 74 75 7 0 24 -21 39 -46 35 -60 119 -141 170
-165 55 -25 115 -26 115 0 0 13 -15 25 -53 40 -70 29 -154 116 -202 211 -45
90 -104 101 -192 37z m61 -68 c-49 -71 -154 -153 -154 -121 0 16 55 89 85 114
34 28 88 58 94 52 2 -2 -9 -22 -25 -45z"/>
<path d="M11412 17789 c-29 -11 -28 -44 2 -64 13 -9 79 -27 147 -41 132 -27
294 -93 287 -116 -12 -35 -271 -52 -773 -51 -697 2 -840 9 -1365 64 -254 27
-295 29 -380 19 -114 -13 -164 -34 -168 -71 -4 -38 19 -42 101 -18 62 20 85
21 201 16 72 -4 237 -18 366 -31 543 -57 1568 -71 1905 -26 147 20 195 44 195
100 0 19 4 21 28 15 36 -9 141 -55 169 -75 12 -8 23 -21 23 -27 0 -25 -111
-86 -237 -129 -70 -24 -146 -52 -168 -61 -84 -35 -136 -93 -84 -93 39 0 374
112 434 145 82 45 125 95 125 144 0 34 -56 86 -127 119 -85 39 -436 140 -643
186 -9 1 -26 -1 -38 -5z"/>
<path d="M14878 17789 c-23 -13 -133 -155 -190 -244 -129 -203 -335 -602 -325
-629 9 -23 40 -20 63 7 11 12 40 69 64 127 84 202 161 353 235 466 79 119 168
224 180 212 7 -7 54 -303 55 -344 0 -19 -7 -21 -98 -27 -113 -8 -212 -24 -229
-39 -18 -15 -16 -55 3 -62 9 -3 39 1 67 9 44 12 236 45 267 45 5 0 10 -11 10
-24 0 -33 37 -211 56 -268 11 -35 21 -48 34 -48 35 0 38 27 14 128 -13 54 -26
125 -30 160 l-6 63 127 -3 c89 -2 129 0 132 8 7 21 -58 34 -163 34 -99 0 -104
1 -109 23 -2 12 -14 78 -25 147 -40 242 -68 297 -132 259z"/>
<path d="M18421 17748 c-5 -13 -26 -75 -46 -138 -20 -63 -59 -176 -87 -250
-27 -74 -52 -150 -55 -167 -10 -61 30 -113 86 -113 26 0 108 46 161 89 54 45
87 67 118 76 32 9 28 -9 -12 -48 -63 -64 -241 -147 -314 -147 -22 0 -45 -6
-51 -14 -13 -16 -6 -42 15 -50 37 -14 208 40 300 95 80 48 154 131 154 173 0
41 -16 56 -60 56 -39 0 -93 -30 -200 -112 -46 -36 -71 -48 -96 -48 -32 0 -34
2 -34 36 0 19 19 83 43 142 73 180 142 402 130 421 -16 25 -42 25 -52 -1z"/>
<path d="M28395 17727 c-36 -87 -95 -392 -95 -493 0 -40 5 -55 24 -73 36 -34
68 -19 165 74 110 104 150 133 161 114 14 -21 22 -125 18 -229 -3 -89 -2 -95
17 -95 17 0 22 11 33 70 18 91 10 276 -13 311 -36 56 -122 14 -260 -125 -60
-62 -95 -77 -95 -42 0 52 63 332 95 424 27 76 24 97 -12 97 -18 0 -28 -8 -38
-33z"/>
<path d="M18966 17738 c-2 -7 -9 -49 -15 -93 -13 -101 -52 -237 -97 -337 -18
-43 -50 -114 -70 -159 -30 -68 -35 -86 -27 -112 14 -49 40 -47 53 5 6 24 40
104 75 178 92 190 160 473 125 515 -15 18 -39 20 -44 3z"/>
<path d="M27282 17608 c-7 -7 -12 -19 -12 -27 0 -9 -4 -22 -9 -30 -8 -12 -12
-12 -25 -2 -24 20 -70 -3 -136 -69 -124 -126 -187 -297 -137 -373 14 -21 25
-27 55 -27 98 0 189 122 253 338 21 73 24 69 74 -145 15 -62 31 -116 36 -119
17 -10 41 18 35 40 -11 37 -55 259 -66 331 -14 89 -36 115 -68 83z m-42 -126
c0 -18 -38 -120 -65 -172 -52 -103 -123 -171 -162 -156 -36 14 23 166 98 250
57 65 129 108 129 78z"/>
<path d="M29010 17548 c-11 -18 -20 -43 -20 -54 0 -29 27 -51 47 -38 18 11 45
92 38 112 -9 24 -45 13 -65 -20z"/>
<path d="M27769 17490 c-81 -43 -113 -114 -107 -240 7 -154 93 -255 217 -254
79 0 171 52 171 96 0 22 -12 23 -49 3 -159 -82 -295 14 -278 197 9 103 69 163
141 141 59 -18 86 17 46 57 -26 26 -92 26 -141 0z"/>
<path d="M23750 17415 c-11 -13 -8 -21 20 -50 35 -36 58 -43 77 -24 22 22 205
-31 251 -73 27 -26 28 -59 3 -113 -34 -76 -119 -137 -350 -255 -106 -54 -181
-114 -181 -144 0 -30 29 -29 64 2 18 16 69 48 112 72 44 23 121 65 172 93 114
62 211 149 246 219 70 140 -5 210 -291 268 -114 24 -107 24 -123 5z"/>
<path d="M29981 17374 c-28 -36 -35 -65 -27 -124 6 -42 3 -52 -18 -77 -33 -39
-157 -96 -222 -101 -87 -7 -113 22 -140 151 -19 92 -35 117 -75 117 -48 0 -67
-14 -190 -143 -65 -67 -120 -119 -124 -115 -5 4 -2 40 4 80 18 101 13 133 -19
133 -23 0 -26 -5 -37 -80 -18 -124 -16 -189 5 -208 10 -10 27 -17 36 -17 21 0
136 108 198 186 49 62 104 102 119 87 6 -6 19 -48 30 -94 24 -97 44 -130 95
-154 74 -35 219 1 316 77 38 31 53 38 56 27 9 -28 101 -111 119 -107 32 6 26
37 -14 81 -59 64 -68 95 -53 175 16 88 11 126 -16 130 -14 2 -29 -7 -43 -24z"/>
<path d="M31969 17293 c-40 -54 -97 -131 -127 -172 l-55 -74 -33 40 c-59 71
-113 64 -155 -19 -30 -58 -23 -127 17 -170 51 -54 101 -70 217 -67 l102 2 90
-55 c172 -105 225 -125 225 -82 0 15 -37 53 -51 54 -15 0 -169 92 -169 100 0
5 19 14 43 20 92 25 177 96 177 148 -1 38 -19 58 -76 84 -41 18 -67 22 -156
23 -60 0 -108 1 -108 2 0 1 28 35 63 74 97 111 116 139 110 157 -7 17 -22 32
-35 32 -4 0 -39 -44 -79 -97z m-242 -262 c14 -21 23 -49 23 -72 0 -51 23 -52
36 -2 13 54 35 53 62 -2 12 -26 20 -51 17 -56 -10 -16 -108 -9 -151 10 -69 31
-93 89 -58 139 21 30 43 25 71 -17z m403 18 c19 -6 41 -17 48 -24 30 -28 -79
-92 -186 -110 -48 -8 -72 6 -99 59 -21 40 -10 73 30 85 38 12 158 6 207 -10z"/>
<path d="M16500 17363 c-99 -16 -216 -65 -225 -94 -10 -31 11 -54 121 -130
190 -130 252 -201 208 -234 -23 -18 -207 -79 -286 -95 -49 -10 -60 -9 -82 5
-23 15 -26 15 -46 -5 -19 -19 -20 -24 -7 -43 19 -29 78 -33 176 -12 235 50
356 123 337 201 -10 39 -125 149 -238 227 -54 38 -98 72 -98 76 0 25 214 57
271 40 48 -15 69 -7 69 26 0 18 -7 28 -26 35 -25 10 -124 11 -174 3z"/>
<path d="M15681 17330 c-79 -21 -141 -53 -196 -102 -41 -35 -44 -56 -12 -86
34 -32 82 -49 197 -66 58 -10 131 -21 162 -26 67 -10 130 -38 125 -54 -6 -17
-73 -58 -175 -105 -83 -39 -96 -42 -120 -32 -23 11 -29 10 -44 -9 -35 -44 -11
-76 50 -67 97 14 320 133 351 188 42 75 -31 118 -271 159 -167 29 -221 45
-215 64 7 20 112 66 190 83 65 14 88 15 134 5 61 -13 83 -5 83 28 0 43 -132
53 -259 20z"/>
<path d="M28941 17288 c-12 -32 -33 -117 -39 -156 -4 -31 -2 -33 19 -30 36 5
81 98 77 158 -3 38 -7 46 -25 48 -16 2 -25 -3 -32 -20z"/>
<path d="M30985 17298 c-79 -29 -156 -105 -192 -188 -23 -55 -21 -141 6 -179
33 -46 110 -80 140 -62 21 13 6 40 -32 56 -70 29 -90 83 -59 156 54 126 184
194 272 143 58 -35 83 18 28 59 -32 24 -118 32 -163 15z"/>
<path d="M17169 17280 c-49 -26 -116 -101 -145 -163 -13 -29 -24 -57 -24 -63
0 -14 -33 -24 -80 -24 -44 0 -63 -12 -58 -36 3 -16 14 -20 61 -22 l57 -3 0
-36 c0 -50 36 -120 71 -138 52 -27 156 -13 200 28 33 31 11 40 -64 26 -58 -11
-69 -10 -92 5 -30 20 -45 53 -45 100 0 37 17 56 69 76 133 53 259 224 192 260
-30 16 -102 11 -142 -10z m95 -49 c17 -26 -159 -179 -181 -158 -10 11 27 83
56 110 49 46 112 70 125 48z"/>
<path d="M19435 17270 c-11 -4 -30 -20 -43 -35 -33 -38 -159 -95 -225 -102
-54 -6 -56 -5 -96 36 -42 43 -59 49 -79 29 -22 -22 -13 -45 33 -87 42 -39 48
-41 105 -41 35 0 81 8 112 20 57 21 70 19 46 -7 -33 -37 -128 -233 -172 -353
-57 -159 -97 -256 -124 -300 -12 -19 -22 -43 -22 -52 0 -24 32 -23 53 0 21 22
90 172 116 250 27 80 129 291 181 377 23 39 71 107 106 153 35 45 64 87 64 92
0 16 -34 28 -55 20z"/>
<path d="M22355 17259 c-390 -5 -502 -10 -655 -28 -117 -14 -228 -21 -302 -19
-126 2 -153 -6 -132 -40 23 -35 118 -40 324 -16 74 8 176 19 225 25 152 16
1101 23 1405 10 493 -20 659 -21 676 -3 14 13 14 16 0 30 -12 13 -70 17 -338
23 -178 4 -399 13 -493 18 -93 6 -186 10 -205 9 -19 -1 -246 -5 -505 -9z"/>
<path d="M17551 17203 c-10 -21 -39 -88 -65 -150 -67 -163 -60 -221 22 -177
36 19 82 76 147 182 35 57 66 85 51 45 -4 -9 -10 -58 -13 -109 l-6 -93 27 -7
c35 -8 59 9 142 102 38 42 84 93 101 113 l33 36 -1 -80 c-1 -94 5 -113 37
-121 41 -11 74 34 39 54 -13 7 -14 18 -4 83 14 85 8 124 -20 139 -31 16 -64
-3 -117 -67 -27 -31 -75 -85 -107 -118 l-58 -60 8 65 c4 36 8 90 8 120 0 53
-1 55 -27 58 -33 4 -64 -26 -110 -106 -31 -55 -118 -160 -118 -144 0 10 69
169 94 217 18 35 11 55 -20 55 -17 0 -29 -10 -43 -37z"/>
<path d="M633 17169 c-7 -7 -13 -18 -13 -24 0 -19 45 -55 69 -55 27 0 78 28
85 47 11 27 -119 55 -141 32z"/>
<path d="M31300 17157 c-39 -20 -83 -100 -88 -162 -4 -52 -3 -56 32 -91 36
-36 38 -37 96 -31 80 7 126 36 140 87 16 58 -4 121 -57 181 -29 32 -78 39
-123 16z m81 -67 c42 -23 63 -106 34 -130 -26 -22 -109 -25 -128 -5 -27 26
-21 70 14 110 33 37 48 42 80 25z"/>
<path d="M1774 17087 c-2 -7 2 -42 11 -78 23 -98 21 -107 -20 -115 -49 -9 -68
-29 -54 -55 9 -17 17 -19 50 -14 36 6 39 5 40 -17 1 -25 0 -68 -4 -108 -1 -16
3 -25 13 -25 20 0 37 40 47 110 l8 60 75 8 c161 16 232 25 237 31 3 3 3 12 -1
21 -5 14 -23 15 -160 9 -175 -8 -163 -14 -166 86 0 30 -8 65 -16 78 -16 24
-52 30 -60 9z"/>
<path d="M5553 17004 c-109 -23 -201 -82 -186 -119 9 -26 35 -24 71 4 52 40
122 61 227 68 135 8 172 -13 140 -80 -25 -53 -79 -112 -161 -173 -82 -62 -94
-90 -50 -119 38 -25 158 -30 254 -11 157 32 213 59 184 88 -8 8 -40 5 -114
-10 -130 -26 -218 -35 -247 -24 -21 7 -19 10 26 42 67 48 139 124 163 170 25
49 26 111 2 133 -52 47 -178 60 -309 31z"/>
<path d="M606 16995 c-31 -31 -40 -172 -17 -253 26 -90 114 -149 208 -140 58
6 114 31 131 58 18 29 -10 38 -54 16 -42 -20 -116 -21 -152 -2 -67 35 -105
140 -78 217 19 53 20 91 4 107 -16 16 -23 15 -42 -3z"/>
<path d="M11765 16991 c-119 -21 -251 -161 -271 -287 -16 -107 77 -213 188
-214 94 0 232 87 282 179 21 40 28 67 28 105 -1 103 -66 216 -125 216 -12 0
-31 2 -42 4 -11 2 -38 1 -60 -3z m130 -95 c23 -34 36 -131 25 -180 -16 -76
-130 -155 -223 -156 -42 0 -53 5 -88 38 -71 66 -64 155 19 245 38 39 50 47 70
42 16 -4 31 0 43 11 16 14 20 14 40 1 25 -18 49 -12 49 12 0 10 3 21 6 24 10
10 42 -11 59 -37z"/>
<path d="M1376 16969 c-15 -12 -42 -51 -61 -88 -18 -36 -48 -82 -65 -101 l-31
-35 5 35 c3 19 9 47 12 62 5 21 2 27 -17 33 -17 6 -27 2 -41 -15 -25 -31 -22
-167 3 -183 32 -20 68 1 106 61 77 122 104 162 113 162 15 0 23 -89 16 -190
-5 -77 -4 -99 7 -109 8 -6 21 -9 30 -5 12 4 17 33 22 139 6 112 5 141 -10 184
-14 43 -37 71 -58 71 -2 0 -16 -9 -31 -21z"/>
<path d="M6336 16948 c-3 -7 -7 -56 -10 -108 -4 -52 -13 -126 -22 -165 -9 -38
-18 -89 -21 -112 -5 -41 -4 -43 19 -43 23 0 27 8 47 75 46 153 65 321 41 350
-15 18 -49 20 -54 3z"/>
<path d="M9510 16929 c-122 -51 -192 -257 -169 -497 13 -133 24 -172 50 -172
19 0 59 52 59 77 0 7 -10 21 -22 33 -29 27 -41 120 -27 223 16 121 55 215 109
261 37 31 108 35 168 11 41 -17 162 -96 162 -106 0 -4 -21 -12 -47 -19 -117
-30 -241 -75 -271 -97 -28 -21 -33 -30 -27 -52 11 -44 45 -72 150 -122 139
-66 218 -90 295 -92 74 -1 134 22 128 51 -3 14 -20 18 -103 23 -77 5 -119 13
-182 37 -94 36 -199 87 -208 102 -9 15 47 36 188 72 140 35 170 50 165 81 -4
27 -118 115 -207 159 -69 35 -164 47 -211 27z"/>
<path d="M10426 16903 c-11 -35 -26 -202 -35 -393 -9 -172 -8 -196 5 -207 19
-14 40 -8 49 15 4 9 11 107 15 218 5 111 14 235 21 276 7 41 9 82 6 91 -9 23
-54 22 -61 0z"/>
<path d="M12773 16912 c-7 -4 -15 -41 -18 -82 -4 -41 -13 -115 -20 -163 -19
-116 -29 -278 -21 -312 5 -20 12 -26 29 -23 20 3 23 11 33 113 6 61 22 183 35
273 17 121 21 167 13 180 -13 20 -34 25 -51 14z"/>
<path d="M3638 16880 c-44 -26 -46 -140 -2 -216 28 -49 84 -101 131 -120 18
-8 33 -17 33 -19 0 -3 -11 -28 -25 -56 -14 -27 -37 -82 -51 -122 -14 -40 -29
-81 -33 -92 -21 -50 -32 -108 -22 -118 16 -16 39 0 50 35 23 79 102 282 122
314 14 23 38 43 65 55 46 19 55 35 28 46 -25 9 89 120 154 149 38 17 52 29 52
44 0 50 -82 32 -150 -33 -25 -23 -71 -71 -102 -106 -56 -63 -58 -63 -88 -51
-38 16 -95 78 -115 126 -21 50 -19 86 6 118 17 21 19 29 9 41 -14 17 -37 19
-62 5z"/>
<path d="M12073 16843 c-7 -2 -13 -13 -13 -22 0 -25 47 -160 65 -187 23 -36
18 -49 -24 -68 -45 -21 -91 -61 -91 -80 0 -8 7 -19 15 -26 12 -10 26 -5 80 30
35 23 68 40 74 38 5 -1 24 -21 42 -43 53 -63 127 -127 139 -120 26 16 8 57
-56 126 -75 83 -75 83 26 123 100 41 190 90 190 104 0 34 -34 25 -228 -64 -29
-13 -60 -24 -70 -24 -19 0 -37 33 -72 135 -28 81 -40 93 -77 78z"/>
<path d="M13102 16830 c-18 -4 -44 -18 -58 -31 -49 -46 -23 -109 78 -184 163
-123 195 -181 151 -272 -31 -66 -153 -119 -190 -82 -14 14 -55 8 -60 -8 -3 -7
8 -24 24 -39 25 -23 35 -26 83 -22 130 9 240 115 240 230 0 63 -59 142 -150
202 -64 43 -130 107 -130 128 0 22 13 23 43 3 18 -11 31 -12 57 -5 55 16 95
12 115 -10 22 -24 42 -25 66 -4 17 15 26 15 124 -5 95 -19 144 -33 197 -56 27
-11 35 22 12 45 -20 19 -141 60 -234 79 -190 38 -298 48 -368 31z"/>
<path d="M4965 16803 c-22 -2 -110 -7 -195 -11 -149 -7 -155 -8 -158 -29 -6
-41 26 -47 182 -33 202 17 279 29 295 45 13 12 11 16 -13 25 -15 5 -37 9 -49
8 -12 -1 -40 -3 -62 -5z"/>
<path d="M6666 16798 c-31 -17 -13 -68 25 -68 10 0 25 7 33 16 30 30 -19 74
-58 52z"/>
<path d="M10980 16735 c-188 -14 -230 -23 -230 -54 0 -35 23 -43 92 -31 34 6
128 17 207 25 79 7 148 18 153 23 18 18 4 47 -22 48 -14 1 -104 -4 -200 -11z"/>
<path d="M4492 16708 c-22 -22 -12 -39 35 -60 61 -27 237 -57 335 -58 85 0
108 5 108 26 0 16 -20 21 -125 29 -116 8 -192 23 -257 51 -65 27 -79 29 -96
12z"/>
<path d="M15411 16627 c-35 -17 -95 -134 -158 -310 -69 -190 -71 -202 -44
-216 43 -24 66 7 91 124 29 138 103 329 124 322 6 -2 14 -26 18 -53 11 -83 28
-306 28 -366 0 -45 5 -63 20 -78 25 -25 72 -26 94 -2 9 11 53 97 97 193 44 96
91 192 104 214 30 52 71 90 80 75 3 -6 11 -85 16 -177 10 -175 20 -216 56
-221 l22 -3 -5 163 c-7 275 -13 300 -60 312 -73 19 -140 -63 -262 -314 -74
-153 -85 -172 -92 -150 -5 14 -13 111 -19 215 -12 206 -22 259 -51 275 -24 13
-30 12 -59 -3z"/>
<path d="M17584 16606 c-72 -33 -135 -111 -199 -241 -62 -128 -86 -217 -88
-329 -2 -72 0 -81 17 -84 32 -7 46 25 46 103 0 91 30 208 79 311 77 161 201
244 305 204 32 -12 106 -78 106 -95 0 -8 -33 -19 -90 -29 -110 -20 -185 -47
-239 -86 -98 -71 -32 -132 267 -241 104 -39 145 -49 181 -47 38 2 46 6 46 23
0 16 -11 22 -57 32 -103 23 -386 145 -404 174 -18 30 74 65 246 95 52 9 101
20 108 26 24 21 13 64 -30 113 -81 91 -192 119 -294 71z"/>
<path d="M11030 16603 c-19 -2 -86 -7 -149 -11 -92 -6 -116 -10 -125 -24 -8
-13 -7 -21 5 -33 13 -13 35 -14 169 -5 206 14 247 26 233 68 -5 12 -51 14
-133 5z"/>
<path d="M16886 16594 c-9 -8 -23 -41 -32 -72 -110 -391 -168 -528 -217 -509
-20 8 -36 81 -44 200 -6 108 7 217 33 269 19 37 18 47 -8 57 -29 11 -56 -3
-68 -35 -23 -59 -33 -215 -21 -323 21 -186 44 -231 119 -231 89 0 138 83 221
370 17 58 42 141 56 185 25 75 25 80 9 92 -23 17 -29 16 -48 -3z"/>
<path d="M6666 16582 c-2 -4 -19 -53 -36 -108 -18 -54 -43 -125 -58 -157 -27
-61 -22 -80 17 -70 23 6 37 32 101 182 39 93 50 128 43 140 -11 18 -58 27 -67
13z"/>
<path d="M18180 16565 c-10 -12 -10 -31 0 -92 7 -48 10 -111 5 -167 -11 -156
-9 -274 5 -291 23 -28 43 6 47 77 2 35 8 117 13 183 11 124 0 266 -22 293 -14
16 -33 15 -48 -3z"/>
<path d="M16248 16529 c-69 -20 -116 -88 -89 -130 9 -15 7 -34 -9 -90 -27
-100 -35 -182 -20 -218 11 -26 25 -36 84 -55 52 -17 186 98 234 201 51 111 29
238 -49 278 -38 20 -106 26 -151 14z m131 -68 c71 -71 31 -218 -87 -322 -47
-41 -88 -51 -99 -22 -11 29 27 195 60 256 25 47 29 62 19 77 -15 24 -6 30 45
30 29 0 49 -6 62 -19z"/>
<path d="M19341 16507 c-6 -8 -28 -19 -49 -25 -91 -28 -214 -154 -248 -256
-50 -148 45 -276 206 -276 106 0 228 64 275 144 42 71 52 140 32 222 -9 38
-15 78 -12 89 7 28 -1 38 -70 79 -62 37 -114 46 -134 23z m107 -94 c32 -46 55
-124 56 -194 1 -57 -3 -70 -27 -102 -32 -42 -131 -94 -198 -103 -89 -12 -168
45 -185 133 -17 91 122 255 239 283 66 16 95 12 115 -17z"/>
<path d="M503 16465 c-24 -10 -33 -21 -33 -37 0 -51 43 -65 65 -21 6 11 17 28
24 36 14 17 7 37 -12 37 -7 -1 -27 -7 -44 -15z"/>
<path d="M20278 16443 c-20 -24 -24 -40 -47 -238 -33 -279 -33 -288 -17 -310
22 -30 43 -4 50 63 15 123 57 400 66 431 16 57 -18 93 -52 54z"/>
<path d="M20687 16446 c-52 -19 -67 -34 -67 -67 0 -23 11 -36 63 -73 93 -67
157 -160 157 -227 0 -127 -190 -250 -305 -197 -21 9 -29 9 -42 -5 -20 -19 -7
-39 41 -64 57 -30 200 11 283 81 39 33 93 138 93 181 0 84 -64 182 -170 260
-28 20 -50 41 -50 46 0 29 250 -20 462 -92 98 -32 185 -59 194 -59 28 0 10 34
-31 57 -104 58 -473 174 -554 173 -20 -1 -53 -7 -74 -14z"/>
<path d="M1723 16383 c-16 -6 -16 -42 -1 -166 8 -68 9 -100 1 -108 -6 -6 -45
-13 -87 -16 -85 -7 -111 -22 -83 -51 15 -14 26 -15 94 -5 59 9 80 8 86 0 4 -7
7 -83 6 -170 -1 -87 1 -160 4 -164 4 -3 13 -1 21 6 10 8 15 54 21 176 6 142
10 167 24 175 20 10 288 40 362 40 49 0 73 15 48 31 -20 13 -168 10 -299 -6
-63 -7 -118 -11 -121 -9 -3 2 -8 57 -11 123 -6 139 -17 164 -65 144z"/>
<path d="M19637 16323 c-13 -13 -7 -42 23 -105 16 -34 30 -67 30 -73 0 -5 -17
-21 -37 -35 -19 -14 -54 -41 -76 -61 -31 -28 -38 -40 -33 -57 12 -38 47 -27
106 33 30 30 60 55 66 55 7 0 30 -22 53 -48 45 -55 152 -132 181 -132 14 0 20
7 20 23 0 16 -20 37 -70 75 -38 30 -83 71 -100 92 l-30 38 27 22 c16 12 70 48
121 80 50 33 92 64 92 70 0 30 -39 18 -140 -44 -60 -36 -113 -66 -117 -66 -4
0 -22 32 -40 70 -23 51 -37 70 -51 70 -10 0 -22 -3 -25 -7z"/>
<path d="M538 16273 c-18 -21 -23 -61 -39 -338 -14 -225 -9 -281 26 -319 27
-29 75 -35 94 -12 10 11 5 18 -26 32 -44 22 -52 45 -47 135 5 111 34 454 40
487 6 27 4 32 -13 32 -11 0 -27 -8 -35 -17z"/>
<path d="M5090 16203 c-105 -75 -142 -148 -110 -221 35 -78 164 -134 319 -139
51 -1 95 -4 98 -6 2 -3 -16 -47 -40 -98 -57 -121 -72 -168 -59 -181 20 -20 46
-3 62 42 27 77 166 346 229 443 33 51 76 108 95 126 41 40 43 46 17 61 -25 13
-62 -3 -88 -39 -52 -69 -124 -182 -152 -238 -30 -60 -32 -62 -77 -69 -53 -8
-182 16 -249 45 -54 24 -95 67 -95 100 0 37 39 87 105 133 56 40 67 61 39 72
-28 11 -40 7 -94 -31z"/>
<path d="M1195 16203 c-35 -9 -81 -51 -119 -107 -33 -50 -57 -106 -129 -300
-35 -94 -47 -85 -47 36 1 57 5 123 9 147 12 58 -1 94 -32 89 -19 -3 -23 -11
-31 -68 -11 -83 2 -353 18 -375 8 -12 20 -14 38 -10 28 7 39 31 93 195 26 78
109 245 146 291 43 54 66 65 90 43 29 -26 41 -83 85 -386 15 -112 17 -118 39
-118 32 0 35 8 25 60 -5 25 -11 83 -15 130 -15 208 -39 322 -73 353 -20 19
-66 28 -97 20z"/>
<path d="M5887 16175 c-109 -30 -195 -96 -167 -130 18 -22 49 -18 71 8 43 56
224 103 304 79 27 -8 30 -13 29 -46 -2 -47 -44 -109 -160 -236 -104 -114 -120
-145 -100 -194 22 -53 63 -69 160 -64 60 3 97 11 143 32 65 30 109 68 98 85
-10 17 -31 13 -93 -18 -68 -34 -166 -57 -205 -47 -52 13 -40 84 24 142 49 43
172 200 197 251 25 50 26 56 12 81 -26 47 -92 72 -185 71 -44 0 -101 -7 -128
-14z"/>
<path d="M3197 16163 c-16 -15 -4 -80 29 -160 30 -73 33 -88 21 -100 -17 -17
-88 -67 -199 -141 -92 -60 -106 -76 -87 -98 28 -34 77 -6 258 149 30 26 58 47
61 47 4 0 28 -33 55 -72 77 -117 157 -208 183 -208 31 0 28 22 -9 61 -75 80
-176 240 -163 260 3 6 58 35 120 65 108 52 126 65 105 79 -12 7 -132 -38 -188
-70 -23 -14 -48 -25 -57 -25 -14 0 -38 65 -61 165 -4 16 -11 36 -17 42 -11 14
-40 17 -51 6z"/>
<path d="M4155 16030 c-27 -4 -97 -13 -155 -20 -58 -6 -119 -16 -137 -21 -62
-19 -48 -74 16 -66 20 2 92 16 160 31 69 15 183 33 255 39 105 10 131 15 131
27 0 12 -20 15 -110 16 -60 1 -132 -2 -160 -6z"/>
<path d="M6617 15994 c-15 -16 -6 -45 18 -56 21 -10 29 -9 43 5 13 13 14 21 6
35 -11 18 -55 28 -67 16z"/>
<path d="M18652 15968 c-5 -7 -44 -79 -85 -159 -41 -81 -86 -167 -101 -191
-26 -45 -23 -77 7 -65 20 7 93 121 175 271 51 92 63 122 55 135 -13 21 -37 25
-51 9z"/>
<path d="M9683 15939 c-138 -43 -216 -145 -269 -348 -16 -64 -19 -258 -4 -313
12 -43 44 -59 68 -34 14 13 14 20 1 58 -9 27 -14 83 -13 153 1 278 127 438
346 439 41 1 62 -4 75 -16 16 -16 16 -19 -3 -39 -10 -12 -71 -52 -136 -90
-124 -74 -178 -124 -178 -165 0 -67 68 -137 187 -191 77 -36 197 -43 289 -18
61 16 114 47 114 65 0 15 -30 20 -57 9 -46 -17 -155 -27 -215 -19 -77 11 -153
47 -213 103 l-50 47 32 28 c17 15 75 52 128 82 54 30 115 70 136 88 34 30 39
39 39 78 0 48 -20 77 -66 94 -41 16 -144 10 -211 -11z"/>
<path d="M3733 15864 c-17 -8 -16 -39 1 -53 10 -9 40 -10 102 -5 49 4 172 8
274 8 157 1 185 3 185 16 0 11 -16 17 -60 22 -85 9 -487 19 -502 12z"/>
<path d="M11631 15825 c-18 -8 -47 -15 -65 -15 -42 0 -122 -48 -175 -105 -67
-73 -103 -161 -108 -270 -4 -80 -2 -95 19 -135 13 -26 41 -58 66 -75 40 -28
50 -30 131 -30 77 0 93 3 152 32 77 38 215 162 254 229 40 68 45 146 13 215
-32 70 -71 115 -120 140 -53 27 -124 33 -167 14z m115 -65 c28 -14 55 -39 80
-75 72 -105 55 -195 -58 -306 -142 -140 -331 -166 -398 -56 -28 45 -27 157 1
232 22 58 115 170 154 185 26 10 55 -6 55 -31 0 -25 22 -34 49 -19 16 8 21 20
21 50 0 37 2 40 27 40 15 0 46 -9 69 -20z"/>
<path d="M10255 15811 c-102 -29 -147 -73 -111 -110 15 -15 19 -15 49 3 77 44
193 69 241 50 27 -11 18 -42 -54 -185 -75 -147 -85 -193 -54 -238 36 -51 135
-64 265 -37 114 25 239 100 211 128 -8 8 -28 4 -74 -15 -113 -45 -274 -62
-328 -34 -35 18 -30 49 20 138 96 169 114 254 65 297 -22 19 -37 22 -98 21
-40 0 -99 -8 -132 -18z"/>
<path d="M12845 15789 c-92 -13 -187 -45 -233 -79 -44 -32 -51 -50 -27 -70 12
-10 24 -7 62 16 69 41 92 50 174 67 159 33 192 30 169 -14 -16 -30 -116 -158
-209 -268 -115 -137 -138 -210 -78 -255 24 -18 42 -21 115 -20 70 1 110 8 204
37 l118 37 34 -38 c34 -37 35 -37 113 -37 66 1 88 5 143 32 94 44 142 91 176
168 16 36 31 65 34 65 5 0 103 -178 141 -254 20 -42 86 -109 98 -101 17 10 13
40 -10 69 -11 14 -61 115 -111 224 -50 108 -95 203 -100 210 -6 6 -21 12 -34
12 -25 0 -24 2 -42 -106 -21 -124 -88 -210 -188 -240 -78 -23 -174 -15 -174
16 0 5 12 15 27 22 33 16 31 34 -3 31 -34 -3 -31 22 9 62 36 36 116 65 178 65
21 0 47 8 60 19 20 16 21 21 10 35 -17 20 -68 21 -138 2 -119 -32 -196 -91
-209 -160 -3 -20 -11 -39 -18 -44 -17 -13 -211 -54 -283 -60 -72 -6 -115 13
-106 47 3 11 44 68 91 127 189 235 232 297 232 337 0 51 -78 67 -225 46z"/>
<path d="M6523 15708 c-12 -13 -49 -68 -83 -123 -70 -113 -111 -167 -183 -242
-49 -51 -58 -83 -22 -83 22 0 156 143 218 232 28 40 72 99 99 131 50 62 56 75
36 95 -18 18 -42 14 -65 -10z"/>
<path d="M15479 15710 c-20 -12 -161 -193 -226 -290 -73 -111 -193 -317 -193
-332 0 -19 21 -38 42 -38 12 0 37 38 84 132 90 176 290 475 308 458 2 -3 0
-66 -5 -140 -16 -207 -2 -288 52 -310 62 -26 138 22 255 159 37 44 71 78 76
75 4 -3 8 -59 8 -125 0 -99 3 -121 16 -126 8 -3 19 -2 24 3 5 5 12 80 16 166
6 138 5 160 -10 183 -28 43 -50 32 -114 -57 -86 -118 -169 -192 -232 -204
l-33 -7 7 184 c10 234 10 238 -10 260 -19 21 -40 24 -65 9z"/>
<path d="M17792 15679 c-143 -28 -289 -194 -337 -384 -27 -108 -13 -185 35
-185 29 0 33 15 35 124 1 88 5 108 29 159 70 146 250 270 323 222 13 -9 23
-25 23 -39 0 -34 -48 -61 -165 -91 -126 -33 -135 -38 -135 -78 0 -107 184
-296 288 -297 40 0 84 29 80 53 -3 20 -8 22 -50 19 -56 -4 -86 10 -156 73 -57
51 -110 132 -96 144 5 4 45 16 89 26 109 24 151 42 180 77 49 58 24 143 -51
174 -19 8 -37 14 -41 13 -4 -1 -27 -5 -51 -10z"/>
<path d="M10854 15667 c-8 -4 -14 -19 -14 -33 0 -42 34 -47 224 -36 149 10
172 13 190 31 38 38 12 44 -194 45 -105 1 -198 -3 -206 -7z"/>
<path d="M16293 15625 c-40 -17 -58 -48 -38 -65 12 -10 8 -19 -22 -61 -44 -62
-72 -134 -79 -208 -11 -105 34 -148 145 -138 101 9 191 61 229 132 17 34 19
138 3 193 -38 128 -139 191 -238 147z m115 -51 c61 -43 94 -206 54 -270 -36
-56 -163 -99 -225 -75 -25 10 -27 13 -21 53 12 86 97 228 135 228 6 0 9 12 7
28 -2 20 -9 28 -27 30 -19 3 -21 6 -10 13 22 14 62 11 87 -7z"/>
<path d="M17093 15583 c-7 -2 -39 -59 -71 -126 -45 -92 -73 -135 -113 -176
-96 -96 -189 -140 -201 -93 -8 29 9 156 31 230 26 87 27 128 2 141 -32 17 -48
-16 -75 -157 -29 -150 -32 -208 -12 -257 41 -97 158 -66 292 78 71 76 117 154
154 263 28 80 26 109 -7 97z"/>
<path d="M19363 15560 c-12 -5 -32 -23 -45 -40 -13 -18 -39 -40 -59 -51 -48
-24 -85 -70 -123 -149 -106 -225 39 -368 305 -301 130 33 197 93 214 193 9 53
-22 186 -57 248 -51 89 -153 133 -235 100z m127 -67 c53 -37 79 -88 100 -202
12 -65 0 -118 -33 -150 -38 -35 -124 -63 -212 -68 -92 -6 -143 9 -171 51 -34
53 7 183 81 256 47 46 68 51 143 35 28 -6 32 -5 32 14 0 12 -12 28 -27 38 -16
9 -30 19 -33 21 -2 1 2 7 10 12 24 15 84 11 110 -7z"/>
<path d="M10910 15550 c-80 -3 -151 -9 -157 -13 -19 -12 -16 -57 3 -64 10 -3
105 -1 213 6 179 11 198 14 214 33 10 12 14 25 10 29 -12 11 -123 15 -283 9z"/>
<path d="M12081 15532 c-12 -23 5 -59 60 -124 l39 -47 -72 -50 c-40 -27 -90
-65 -111 -84 -33 -31 -37 -39 -27 -56 22 -42 45 -30 179 91 35 32 70 58 77 58
7 0 36 -20 66 -46 67 -57 135 -97 154 -90 23 9 16 44 -13 63 -51 32 -138 105
-138 116 0 6 27 27 61 46 87 52 124 80 124 97 0 23 -44 16 -86 -14 -59 -43
-129 -82 -146 -82 -9 0 -34 29 -57 64 -23 35 -49 67 -57 70 -27 10 -43 7 -53
-12z"/>
<path d="M18152 15533 c-97 -23 -162 -96 -105 -118 9 -3 32 5 52 19 61 42 297
77 316 46 8 -13 -71 -97 -185 -196 -92 -80 -117 -116 -106 -159 13 -50 52 -58
235 -51 91 4 178 9 194 12 34 7 51 35 34 57 -10 13 -33 14 -172 6 -177 -10
-227 -7 -219 16 4 8 48 49 99 91 179 144 227 237 145 279 -38 20 -202 19 -288
-2z"/>
<path d="M20470 15529 c-41 -10 -108 -35 -147 -54 -63 -29 -73 -38 -73 -60 0
-41 26 -40 118 3 129 61 236 85 272 62 12 -8 -9 -33 -106 -127 -130 -126 -174
-181 -174 -219 0 -35 49 -84 94 -94 40 -9 164 1 241 20 54 13 55 13 55 -10 0
-30 42 -68 84 -75 52 -10 124 11 212 61 43 24 78 44 79 44 2 0 5 -19 9 -42 10
-62 58 -144 129 -221 46 -49 68 -66 80 -61 28 10 20 31 -44 112 -84 107 -101
143 -107 231 -4 62 -2 76 12 87 10 7 16 21 14 30 -14 73 -235 48 -376 -43 -43
-27 -75 -38 -141 -49 -152 -25 -271 -16 -271 19 0 7 65 77 145 157 128 128
145 149 145 178 0 29 -5 35 -42 52 -54 25 -112 24 -208 -1z m640 -348 c0 -47
-152 -131 -237 -131 -59 0 -68 13 -30 47 46 42 169 92 230 93 20 0 37 -4 37
-9z"/>
<path d="M19826 15285 c-14 -14 -13 -21 4 -66 l20 -50 -77 -36 c-101 -46 -145
-79 -141 -105 4 -30 34 -46 56 -31 47 34 168 103 180 103 7 0 19 -15 27 -32
30 -73 121 -163 151 -151 24 9 16 30 -31 83 -47 52 -75 99 -75 123 0 8 28 27
63 42 87 40 157 84 157 101 0 25 -49 16 -141 -26 -49 -22 -94 -40 -99 -40 -6
0 -17 18 -26 40 -20 50 -46 67 -68 45z"/>
<path d="M18758 15118 c-9 -7 -23 -37 -33 -66 -10 -33 -48 -94 -101 -165 -79
-106 -104 -150 -91 -164 13 -12 38 9 122 103 120 135 179 256 143 292 -15 15
-20 15 -40 0z"/>
<path d="M2615 15060 c-26 -51 -45 -152 -45 -246 l0 -91 -164 -5 c-168 -6
-210 -15 -204 -46 4 -24 55 -26 218 -8 103 11 138 12 146 3 8 -8 9 -42 3 -107
-10 -133 -18 -167 -46 -201 -46 -54 -1 -69 52 -16 40 40 55 102 55 226 0 63 4
92 14 100 9 8 39 8 107 1 123 -13 129 -13 129 5 0 20 -32 35 -78 35 -21 0 -66
3 -99 6 l-60 7 -7 71 c-6 66 -3 89 31 269 4 22 2 27 -16 27 -13 0 -26 -11 -36
-30z"/>
<path d="M633 14994 c-6 -16 67 -178 130 -287 15 -26 27 -53 27 -60 0 -7 -27
-39 -60 -72 -59 -59 -120 -141 -120 -163 0 -17 39 -25 57 -11 8 8 37 45 63 84
26 38 57 78 68 88 22 20 15 27 99 -91 33 -46 123 -128 184 -169 31 -20 41 -23
58 -13 32 17 26 32 -26 65 -88 55 -243 229 -243 271 0 24 195 164 312 224 63
33 88 60 53 60 -40 0 -208 -93 -318 -176 -31 -24 -64 -44 -72 -44 -10 0 -28
28 -48 72 -76 171 -111 233 -135 236 -14 2 -25 -3 -29 -14z"/>
<path d="M4935 14993 c-195 -8 -459 -45 -484 -68 -22 -21 -6 -45 30 -45 17 0
74 9 127 20 177 35 583 55 609 29 17 -17 2 -49 -76 -164 -62 -90 -201 -312
-201 -320 0 -1 -35 -63 -77 -136 -103 -177 -107 -185 -100 -203 15 -37 35 -10
205 279 52 88 136 223 187 300 113 171 125 195 125 239 0 54 -24 63 -165 67
-66 2 -147 3 -180 2z"/>
<path d="M3218 14773 c-22 -6 -31 -32 -17 -50 10 -11 42 -13 183 -7 109 4 206
2 266 -5 208 -25 200 -25 200 -8 0 22 -13 28 -83 38 -34 4 -91 13 -127 19 -67
10 -392 21 -422 13z"/>
<path d="M5497 14663 c-15 -14 -6 -53 14 -63 32 -17 49 -5 49 35 0 32 -3 35
-28 35 -16 0 -32 -3 -35 -7z"/>
<path d="M9775 14654 c-84 -21 -196 -94 -270 -177 -32 -35 -74 -97 -96 -142
-60 -122 -73 -204 -74 -440 0 -110 3 -216 8 -237 9 -44 33 -56 60 -29 18 18
19 23 6 73 -10 36 -14 116 -14 253 0 179 2 207 22 270 47 149 159 282 289 346
124 61 257 38 356 -62 102 -101 85 -120 -192 -224 -221 -83 -311 -127 -344
-166 -67 -79 1 -201 155 -279 141 -72 365 -109 406 -67 16 15 16 19 3 27 -8 5
-38 10 -66 10 -61 0 -198 38 -287 79 -75 35 -139 88 -161 136 -32 67 -2 88
259 185 268 99 335 143 335 217 0 70 -89 166 -189 203 -55 21 -166 34 -206 24z"/>
<path d="M3043 14604 c-14 -10 -16 -17 -7 -31 9 -14 30 -19 100 -25 49 -4 148
-14 219 -22 142 -17 291 -24 301 -13 4 3 4 12 1 20 -4 10 -31 16 -89 20 -45 4
-157 18 -248 31 -232 34 -257 36 -277 20z"/>
<path d="M10572 14549 c-68 -8 -174 -40 -233 -70 -58 -29 -140 -109 -137 -133
5 -38 35 -28 102 33 53 47 81 64 144 86 42 14 107 29 145 32 66 6 67 5 67 -18
0 -28 -22 -63 -139 -217 -155 -204 -190 -257 -197 -290 -16 -81 48 -121 190
-122 117 0 293 41 370 86 27 16 14 48 -17 40 -240 -65 -323 -76 -405 -56 -59
14 -77 30 -67 61 4 12 55 85 114 163 59 77 133 180 164 228 99 151 72 198
-101 177z"/>
<path d="M11172 14508 c-5 -7 -15 -78 -22 -158 -7 -86 -16 -148 -23 -153 -7
-4 -46 -6 -88 -3 -83 6 -114 -6 -107 -40 3 -17 14 -19 101 -22 95 -3 98 -3 91
-24 -3 -12 -8 -51 -10 -87 -2 -36 -4 -77 -6 -91 -3 -21 1 -25 22 -22 47 5 55
24 52 126 l-3 94 48 6 c26 3 87 8 134 11 l86 7 -5 -31 c-4 -26 0 -31 22 -37
49 -12 316 22 338 44 26 26 -5 31 -165 25 -149 -6 -161 -5 -149 10 29 35 5 40
-144 33 -78 -4 -145 -3 -148 2 -2 4 -1 26 4 48 25 106 40 246 29 260 -14 17
-43 18 -57 2z"/>
<path d="M12230 14480 c-65 -36 -100 -74 -141 -154 -57 -109 -74 -263 -44
-394 18 -77 27 -91 75 -121 115 -70 308 35 371 201 20 54 24 80 23 178 0 135
-21 201 -82 271 -34 38 -43 42 -92 46 -47 3 -63 -1 -110 -27z m170 -77 c40
-63 50 -102 50 -199 0 -117 -27 -198 -88 -262 -76 -82 -179 -115 -221 -73 -26
26 -45 138 -37 224 20 222 103 335 259 356 4 1 21 -20 37 -46z"/>
<path d="M13325 14460 c-219 -38 -264 -59 -219 -104 19 -20 27 -20 65 0 33 16
311 74 360 74 51 0 35 -54 -47 -161 -51 -67 -87 -127 -167 -279 -33 -63 -75
-141 -94 -173 -34 -56 -34 -59 -18 -78 10 -10 24 -19 30 -19 13 0 82 111 180
290 32 58 90 152 129 210 83 122 104 176 84 217 -29 60 -70 64 -303 23z"/>
<path d="M11494 14256 c-11 -30 4 -46 43 -47 114 -3 310 4 330 12 13 5 23 15
23 24 0 13 -20 15 -127 15 -71 0 -158 3 -195 6 -57 6 -69 4 -74 -10z"/>
<path d="M12647 14213 c-12 -11 -8 -46 8 -62 17 -20 95 -160 95 -172 0 -5 -45
-39 -100 -75 -100 -67 -116 -88 -85 -114 23 -19 58 -5 137 60 40 33 76 60 80
60 4 0 16 -17 27 -37 31 -62 99 -133 127 -133 34 0 30 23 -9 67 -48 54 -87
115 -87 135 0 10 31 44 70 75 39 32 70 63 70 70 0 29 -64 14 -115 -27 -27 -22
-54 -40 -58 -40 -5 0 -24 34 -42 75 -45 99 -92 145 -118 118z"/>
<path d="M5393 14088 c-5 -7 -17 -58 -26 -114 -9 -55 -26 -122 -38 -148 -37
-86 3 -101 45 -17 13 25 37 89 55 143 25 76 29 102 21 122 -10 28 -41 35 -57
14z"/>
<path d="M3422 13547 c-10 -11 -18 -91 -36 -351 -2 -32 -8 -62 -13 -67 -11
-11 -154 6 -237 27 -52 14 -61 14 -74 0 -20 -19 -9 -44 25 -57 15 -6 84 -16
153 -22 l125 -12 -3 -70 -2 -70 20 24 c11 13 20 37 20 53 0 51 16 68 63 68 51
0 91 24 67 40 -8 5 -33 10 -56 10 -22 0 -43 2 -46 5 -3 3 -1 27 4 53 22 116
46 357 36 370 -13 16 -33 15 -46 -1z"/>
<path d="M2479 13533 c-11 -12 -14 -53 -13 -169 l2 -153 -102 -3 c-95 -3 -101
-4 -104 -25 -5 -35 30 -47 125 -40 46 3 85 2 88 -3 3 -5 10 -64 14 -131 9
-126 18 -152 46 -129 16 13 15 57 -5 197 -10 73 -3 79 98 88 180 17 298 44
289 68 -5 15 -61 13 -247 -7 -74 -8 -138 -12 -142 -9 -13 7 -9 234 4 269 9 26
9 36 -1 48 -17 21 -35 20 -52 -1z"/>
<path d="M784 13495 c-9 -22 101 -222 159 -289 l51 -59 -81 -76 c-89 -83 -118
-123 -109 -146 12 -31 52 -17 91 33 52 64 127 142 138 142 5 0 49 -37 96 -82
87 -82 185 -146 284 -183 34 -13 51 -15 59 -7 16 16 2 30 -69 63 -36 17 -95
51 -131 76 -74 51 -76 53 -147 116 -49 45 -49 45 -31 66 23 25 310 168 416
206 78 29 100 41 100 56 0 44 -282 -60 -492 -182 -36 -22 -73 -39 -81 -39 -22
0 -124 143 -169 238 -30 61 -45 82 -59 82 -11 0 -22 -7 -25 -15z"/>
<path d="M3962 13268 c-35 -35 1 -62 68 -53 57 8 75 29 45 51 -23 17 -97 18
-113 2z"/>
<path d="M3985 13016 c-9 -13 -25 -66 -35 -117 -24 -118 -33 -148 -61 -204
-27 -53 -17 -76 24 -58 24 11 25 13 107 253 33 99 36 121 14 137 -25 18 -31
17 -49 -11z"/>
<path d="M9725 12910 c-167 -20 -269 -123 -317 -320 -25 -103 -44 -349 -32
-424 10 -65 31 -89 62 -70 12 8 16 21 13 45 -2 19 -4 115 -4 214 -1 148 2 191
17 240 38 123 88 195 167 237 37 19 59 23 134 23 81 0 94 -3 131 -27 47 -30
89 -82 79 -98 -13 -21 -85 -49 -254 -100 -188 -55 -204 -62 -238 -93 -35 -31
-28 -56 29 -110 65 -60 266 -162 353 -178 91 -17 205 3 205 37 0 18 -23 23
-65 14 -78 -18 -200 20 -345 106 -44 26 -92 60 -107 76 l-26 28 36 15 c19 8
71 24 114 35 281 75 363 115 363 178 0 64 -97 153 -185 167 -22 4 -47 8 -55 9
-8 2 -42 0 -75 -4z"/>
<path d="M10379 12876 c-117 -34 -212 -91 -249 -152 -20 -32 -21 -37 -7 -51
19 -19 39 -9 91 47 71 77 210 126 333 118 73 -5 99 -22 88 -59 -4 -13 -65 -82
-135 -154 -136 -139 -166 -177 -180 -226 -19 -66 33 -99 157 -99 146 0 382 59
370 93 -5 16 -44 14 -142 -7 -107 -22 -253 -31 -287 -17 -18 6 -28 18 -28 30
0 12 57 80 143 169 189 198 215 256 130 298 -49 23 -217 29 -284 10z"/>
<path d="M11928 12798 c-20 -16 -38 -108 -38 -194 l0 -63 -143 6 c-123 5 -144
4 -155 -10 -8 -9 -12 -24 -10 -34 3 -16 16 -18 113 -20 202 -2 185 0 185 -30
-1 -16 -9 -53 -20 -83 -24 -69 -24 -70 0 -70 26 0 47 35 68 112 l18 63 47 -3
c37 -2 49 1 54 13 7 19 -12 35 -43 35 -11 0 -27 6 -36 13 -15 11 -15 20 -3 97
7 47 16 99 20 116 5 22 2 35 -10 47 -20 20 -26 21 -47 5z"/>
<path d="M11295 12776 c-16 -12 -18 -23 -12 -106 l6 -93 -107 7 c-59 3 -113 2
-120 -3 -8 -4 -12 -19 -10 -32 3 -24 5 -24 127 -27 l124 -3 -6 -99 c-5 -91 -4
-100 13 -100 32 0 45 30 50 114 l5 81 85 11 c102 13 130 21 130 39 0 19 -10
21 -112 14 -61 -4 -98 -2 -107 5 -10 8 -12 29 -8 93 5 66 3 86 -9 98 -19 18
-25 19 -49 1z"/>
<path d="M764 11935 c-9 -22 74 -142 155 -225 56 -57 61 -66 46 -75 -51 -30
-175 -127 -207 -163 -31 -34 -36 -46 -29 -64 14 -40 40 -34 88 21 48 55 138
128 191 155 31 16 35 16 52 1 10 -9 36 -28 58 -43 23 -15 93 -64 156 -109 63
-46 122 -83 131 -83 24 0 17 39 -12 66 -16 15 -48 38 -73 52 -41 24 -203 135
-224 153 -10 9 117 71 241 119 79 31 113 53 100 67 -19 19 -292 -67 -362 -114
-11 -7 -27 -13 -36 -13 -28 0 -96 71 -162 170 -64 96 -99 122 -113 85z"/>
<path d="M3931 11834 c-37 -47 -81 -215 -81 -315 0 -77 -8 -82 -108 -67 -87
13 -112 5 -112 -33 0 -27 31 -39 97 -39 109 0 106 3 98 -115 -4 -56 -7 -110
-8 -121 -2 -22 32 -32 44 -12 5 7 8 58 7 113 -1 56 2 106 6 113 5 8 35 12 85
12 84 0 125 16 99 38 -8 6 -48 16 -89 22 -40 6 -77 14 -81 18 -8 8 32 192 57
262 8 24 22 51 29 60 24 27 36 58 30 74 -9 25 -50 19 -73 -10z"/>
<path d="M1990 11833 c-14 -2 -60 -13 -103 -25 -82 -22 -110 -45 -86 -74 15
-19 35 -18 100 4 82 29 171 42 319 50 110 6 135 10 135 22 0 9 -15 17 -40 22
-42 7 -283 8 -325 1z"/>
<path d="M2801 11752 c-18 -34 40 -137 126 -220 41 -40 74 -74 72 -76 -2 -2
-53 -24 -114 -50 -164 -69 -190 -86 -190 -121 0 -43 30 -43 102 -1 74 44 238
116 262 116 10 0 60 -30 111 -66 86 -60 94 -64 109 -49 15 15 13 19 -25 53
-23 20 -58 46 -79 57 -21 11 -40 25 -42 31 -2 6 18 19 44 29 85 32 243 108
243 116 0 24 -94 4 -253 -55 -72 -26 -104 -33 -116 -26 -43 22 -135 137 -166
207 -26 56 -39 73 -54 73 -11 0 -25 -8 -30 -18z"/>
<path d="M1813 11623 c-39 -5 -61 -36 -43 -59 9 -10 41 -14 134 -13 66 0 166
-7 220 -16 55 -8 115 -15 133 -15 30 0 34 3 31 22 -2 16 -14 27 -40 35 -90 30
-356 58 -435 46z"/>
<path d="M4407 11470 c-31 -44 16 -181 110 -323 76 -114 144 -180 251 -244 53
-33 107 -65 118 -73 25 -15 54 -8 54 14 0 20 -94 91 -189 142 -62 33 -85 53
-129 110 -28 38 -75 113 -102 167 -41 81 -50 107 -50 150 0 73 -32 101 -63 57z"/>
<path d="M5635 11397 c-35 -27 0 -84 43 -69 7 2 18 15 23 29 17 45 -25 70 -66
40z"/>
<path d="M5313 11305 c-15 -21 -49 -60 -75 -88 -53 -58 -110 -158 -230 -403
-113 -232 -135 -282 -143 -329 -4 -22 -16 -58 -26 -79 -11 -22 -19 -46 -19
-53 0 -8 -12 -25 -26 -38 -30 -28 -29 -62 1 -57 30 5 40 24 81 145 59 179 174
418 214 447 15 10 33 40 44 72 23 65 48 109 96 168 20 25 50 65 65 90 16 25
45 62 64 83 29 30 34 41 25 55 -19 29 -41 25 -71 -13z"/>
<path d="M9678 11225 c-138 -38 -263 -165 -331 -336 -51 -128 -69 -315 -47
-472 13 -86 24 -117 44 -117 43 0 60 69 30 116 -24 36 -24 281 0 379 65 265
256 423 468 386 66 -11 170 -57 176 -78 5 -17 -57 -53 -173 -101 -179 -73
-236 -102 -281 -144 -102 -94 -75 -208 71 -294 100 -58 279 -83 346 -48 52 26
30 38 -82 46 -137 8 -205 34 -276 102 -55 54 -65 84 -42 127 16 31 102 81 229
134 150 62 219 98 253 130 44 42 33 79 -39 121 -102 60 -238 79 -346 49z"/>
<path d="M11914 11122 c-52 -25 -109 -84 -140 -144 -51 -100 -84 -281 -84
-459 0 -91 12 -124 45 -118 18 4 19 16 21 164 4 246 38 370 127 459 49 48 103
65 169 51 51 -11 116 -52 133 -85 14 -28 14 -30 -7 -44 -13 -8 -81 -31 -153
-51 -254 -71 -270 -127 -65 -230 47 -24 109 -59 139 -79 62 -42 81 -45 81 -13
0 38 -67 92 -182 147 -59 28 -110 55 -113 60 -3 5 11 13 32 19 187 48 239 64
283 86 43 22 50 30 50 55 0 65 -50 133 -125 172 -58 30 -158 34 -211 10z"/>
<path d="M10234 11060 c-108 -28 -144 -46 -144 -70 0 -33 22 -33 126 0 158 50
305 43 320 -17 9 -35 -12 -72 -108 -193 -116 -146 -138 -180 -138 -217 0 -55
72 -92 218 -113 131 -18 373 15 380 52 4 23 -17 27 -79 16 -65 -12 -319 -4
-371 11 -20 6 -46 20 -59 29 -19 16 -20 21 -9 43 7 13 33 49 59 79 117 139
181 241 181 290 0 32 -40 73 -92 94 -52 22 -194 20 -284 -4z"/>
<path d="M12331 10966 c-31 -11 -61 -39 -61 -57 0 -4 7 -15 16 -24 15 -14 19
-14 49 5 62 38 226 20 233 -27 5 -33 -23 -68 -112 -139 -123 -99 -155 -158
-121 -223 21 -41 62 -54 153 -49 118 7 332 89 340 129 6 31 -29 28 -146 -12
-167 -57 -292 -65 -292 -19 0 21 40 64 139 148 63 55 101 113 101 155 0 43
-41 89 -95 108 -57 21 -154 23 -204 5z"/>
<path d="M5502 10941 c-10 -6 -15 -38 -16 -112 -1 -74 -7 -114 -19 -138 -17
-34 -15 -51 7 -51 30 0 48 30 71 120 30 114 31 151 7 173 -21 19 -31 21 -50 8z"/>
<path d="M13555 10911 c-81 -20 -134 -82 -203 -239 -95 -217 -108 -273 -71
-292 26 -15 49 3 49 37 0 28 39 163 47 163 3 0 31 -28 63 -62 60 -66 143 -116
233 -140 41 -11 49 -10 64 4 22 23 4 44 -50 59 -109 29 -257 139 -257 189 0
22 1 22 160 15 139 -7 163 -5 185 9 72 47 -13 225 -122 255 -42 12 -54 12 -98
2z m115 -79 c37 -18 87 -99 72 -114 -10 -10 -50 -13 -189 -10 -94 2 -113 5
-113 17 0 19 78 105 105 116 34 13 88 10 125 -9z"/>
<path d="M13030 10895 c-7 -8 -18 -61 -26 -118 -7 -56 -13 -103 -13 -104 -1
-2 -10 -3 -21 -3 -38 0 -90 -28 -90 -48 0 -29 22 -42 66 -39 l39 2 5 -50 c4
-35 10 -51 21 -53 19 -3 29 24 29 80 0 40 -5 38 130 53 78 9 90 14 90 35 0 27
-36 34 -126 26 -89 -7 -92 -4 -70 84 19 74 20 122 4 138 -16 16 -23 15 -38 -3z"/>
<path d="M11020 10842 c-31 -25 -21 -48 27 -62 22 -7 134 -14 260 -17 203 -5
223 -4 229 11 4 10 2 22 -3 27 -5 5 -91 14 -190 19 -162 8 -240 18 -285 35 -8
3 -25 -3 -38 -13z"/>
<path d="M14030 10790 c-12 -22 -25 -230 -24 -370 0 -110 29 -230 54 -230 26
0 32 29 20 86 -16 71 -15 190 5 348 12 103 14 145 6 162 -13 29 -46 31 -61 4z"/>
<path d="M10971 10663 c-26 -21 -20 -50 13 -58 11 -3 91 -7 176 -8 122 -2 161
1 185 13 49 25 39 45 -20 43 -52 -3 -273 13 -310 23 -13 3 -30 -2 -44 -13z"/>
<path d="M32631 6204 c0 -11 3 -14 6 -6 3 7 2 16 -1 19 -3 4 -6 -2 -5 -13z"/>
<path d="M32632 6045 c0 -16 2 -22 5 -12 2 9 2 23 0 30 -3 6 -5 -1 -5 -18z"/>
<path d="M32631 5914 c0 -11 3 -14 6 -6 3 7 2 16 -1 19 -3 4 -6 -2 -5 -13z"/>
<path d="M32631 5874 c0 -11 3 -14 6 -6 3 7 2 16 -1 19 -3 4 -6 -2 -5 -13z"/>
<path d="M32633 5790 c0 -25 2 -35 4 -22 2 12 2 32 0 45 -2 12 -4 2 -4 -23z"/>
<path d="M32631 5694 c0 -11 3 -14 6 -6 3 7 2 16 -1 19 -3 4 -6 -2 -5 -13z"/>
<path d="M32631 5594 c0 -11 3 -14 6 -6 3 7 2 16 -1 19 -3 4 -6 -2 -5 -13z"/>
<path d="M32628 5463 c-3 -101 -3 -124 4 -141 4 -9 7 29 7 86 1 102 -7 144
-11 55z"/>
<path d="M32633 5225 c0 -33 2 -45 4 -27 2 18 2 45 0 60 -2 15 -4 0 -4 -33z"/>
<path d="M32618 5148 c-8 -21 2 -112 12 -122 7 -7 10 15 10 62 0 65 -11 93
-22 60z"/>
<path d="M32614 4999 c-3 -6 1 -18 10 -27 15 -15 16 -14 16 11 0 27 -13 36
-26 16z"/>
<path d="M32618 4918 c0 -13 0 -30 1 -38 6 -55 5 -118 -2 -133 -4 -9 -5 -23
-1 -29 14 -22 23 25 23 125 1 58 -3 97 -9 97 -5 0 -11 -10 -12 -22z"/>
<path d="M32614 4666 c-6 -26 1 -46 17 -46 5 0 9 16 9 35 0 40 -17 47 -26 11z"/>
<path d="M32625 4561 c-3 -5 -1 -12 5 -16 5 -3 10 1 10 9 0 18 -6 21 -15 7z"/>
<path d="M32613 4488 c-11 -18 -12 -98 -2 -125 16 -43 26 -23 26 52 1 73 -7
98 -24 73z"/>
<path d="M32606 4293 c4 -21 8 -49 9 -63 3 -46 5 -51 15 -45 10 6 6 117 -5
134 -15 25 -26 9 -19 -26z"/>
<path d="M32600 4130 c0 -5 5 -10 10 -10 6 0 10 5 10 10 0 6 -4 10 -10 10 -5
0 -10 -4 -10 -10z"/>
<path d="M32611 4090 c-10 -5 -12 -21 -8 -51 4 -24 3 -82 -2 -129 -8 -84 -2
-115 19 -94 12 12 23 271 12 278 -5 3 -14 1 -21 -4z"/>
<path d="M32600 3781 c-12 -23 -14 -101 -2 -101 16 0 31 52 21 72 -6 11 -8 26
-5 34 8 21 -2 17 -14 -5z"/>
<path d="M32600 3645 c-13 -16 -17 -135 -5 -155 5 -8 12 -6 24 7 16 16 16 21
4 39 -10 16 -12 37 -7 73 7 54 4 60 -16 36z"/>
<path d="M32590 3386 c0 -15 18 -31 26 -23 7 7 -7 37 -17 37 -5 0 -9 -6 -9
-14z"/>
<path d="M32590 3305 c0 -8 5 -15 10 -15 6 0 10 7 10 15 0 8 -4 15 -10 15 -5
0 -10 -7 -10 -15z"/>
<path d="M32600 3181 c0 -12 5 -21 10 -21 6 0 10 6 10 14 0 8 -4 18 -10 21 -5
3 -10 -3 -10 -14z"/>
<path d="M32582 2994 c1 -9 9 -19 16 -22 9 -3 13 2 10 14 -1 9 -9 19 -16 22
-9 3 -13 -2 -10 -14z"/>
<path d="M32570 2930 c0 -5 7 -10 15 -10 8 0 15 5 15 10 0 6 -7 10 -15 10 -8
0 -15 -4 -15 -10z"/>
<path d="M32580 2631 c0 -6 5 -13 10 -16 6 -3 10 1 10 9 0 9 -4 16 -10 16 -5
0 -10 -4 -10 -9z"/>
<path d="M32554 2349 c-3 -6 -1 -16 5 -22 8 -8 11 -5 11 11 0 24 -5 28 -16 11z"/>
<path d="M32560 2070 c0 -5 5 -10 10 -10 6 0 10 5 10 10 0 6 -4 10 -10 10 -5
0 -10 -4 -10 -10z"/>
<path d="M32551 1884 c0 -11 3 -14 6 -6 3 7 2 16 -1 19 -3 4 -6 -2 -5 -13z"/>
<path d="M32540 1500 c0 -5 5 -10 10 -10 6 0 10 5 10 10 0 6 -4 10 -10 10 -5
0 -10 -4 -10 -10z"/>
<path d="M32530 1469 c0 -5 5 -7 10 -4 6 3 10 8 10 11 0 2 -4 4 -10 4 -5 0
-10 -5 -10 -11z"/>
<path d="M32540 1425 c0 -9 5 -15 11 -13 6 2 11 8 11 13 0 5 -5 11 -11 13 -6
2 -11 -4 -11 -13z"/>
<path d="M32517 944 c-4 -4 -7 -20 -7 -35 0 -20 7 -30 28 -38 15 -6 44 -22 65
-36 l37 -25 0 55 c0 46 -3 55 -18 55 -10 0 -22 4 -27 9 -14 13 -70 23 -78 15z"/>
<path d="M30676 848 c21 -34 91 -98 106 -98 31 0 20 27 -29 69 -45 38 -94 57
-77 29z"/>
<path d="M31264 845 c-7 -18 53 -94 84 -106 56 -22 56 -1 0 60 -48 53 -76 68
-84 46z"/>
<path d="M29370 82 c-26 -4 -42 -20 -34 -34 10 -15 23 -8 17 8 -5 14 -2 16 19
11 15 -4 33 -10 42 -13 10 -4 16 -1 16 9 0 17 -24 24 -60 19z"/>
</g>
</svg>
