<?xml version="1.0" standalone="no"?>
<!DOCTYPE svg PUBLIC "-//W3C//DTD SVG 20010904//EN"
 "http://www.w3.org/TR/2001/REC-SVG-20010904/DTD/svg10.dtd">
<svg version="1.0" xmlns="http://www.w3.org/2000/svg"
 width="3264.000000pt" height="2448.000000pt" viewBox="0 0 3264.000000 2448.000000"
 preserveAspectRatio="xMidYMid meet">
<metadata>
Created by potrace 1.12, written by Peter Selinger 2001-2015
</metadata>
<g transform="translate(0.000000,2448.000000) scale(0.100000,-0.100000)"
fill="#000000" stroke="none">
<path d="M19128 24467 c10 -12 19 -384 12 -527 -1 -30 -2 -68 -1 -85 6 -173
11 -398 14 -572 1 -117 6 -215 10 -219 4 -4 7 26 8 67 1 157 10 1022 12 1182
l2 167 -34 0 c-26 0 -31 -3 -23 -13z"/>
<path d="M19577 24408 c-4 -40 -7 -510 -7 -1045 0 -534 -2 -977 -4 -985 -3 -7
-7 -488 -11 -1068 -3 -580 -8 -1129 -10 -1220 -2 -91 -7 -545 -10 -1010 -3
-465 -7 -1000 -10 -1190 -3 -190 -7 -682 -10 -1095 -3 -412 -7 -984 -10 -1270
-3 -286 -8 -1098 -11 -1805 -4 -707 -10 -1802 -13 -2435 -7 -1230 -5 -6156 3
-7630 3 -490 8 -1279 11 -1755 3 -476 5 -948 3 -1050 -1 -102 -1 -252 1 -334
1 -90 -1 -157 -8 -170 -5 -12 -17 -39 -26 -61 l-17 -40 -16 24 c-9 14 -35 36
-58 51 -102 64 -184 165 -184 226 0 8 -7 17 -16 21 -9 3 -14 13 -11 24 3 11
-4 24 -18 33 -30 20 -37 61 -14 82 13 12 19 31 19 63 -1 122 7 278 15 295 5
11 4 26 -4 38 -7 11 -8 25 -3 36 5 9 7 141 6 292 -2 151 -3 282 -2 290 5 71 2
659 -4 672 -5 9 -4 20 2 23 10 6 13 92 12 290 -1 55 -1 154 -1 220 1 395 0
1634 -2 1990 -1 334 -5 424 -15 440 -19 27 -17 49 5 69 17 15 19 27 15 75 -3
31 -4 110 -3 176 1 113 0 260 -7 1080 -5 515 -4 579 5 613 6 19 6 57 1 94 -5
34 -6 66 -3 71 3 5 5 28 4 50 0 23 -2 117 -3 208 -2 115 -7 171 -16 181 -13
16 -7 73 10 94 4 7 8 153 8 325 -1 173 0 368 0 434 1 147 -1 289 -8 475 -1 14
-1 46 -1 71 1 26 -4 56 -11 68 -13 26 -4 65 15 57 16 -6 28 21 18 37 -5 7 -9
237 -11 512 -2 499 -6 760 -13 930 -2 50 -1 140 3 200 4 61 10 216 14 345 3
129 8 251 10 270 6 41 16 530 14 610 -1 30 -4 78 -5 105 -2 28 -6 133 -9 235
-5 196 -12 268 -27 286 -6 7 -4 42 5 92 10 61 11 92 3 127 -8 34 -8 58 1 92
10 34 10 49 1 59 -9 11 -10 55 -4 162 5 117 9 388 7 517 -1 43 6 174 13 260 4
50 7 99 7 110 0 11 -1 82 -3 157 -1 102 -5 141 -15 149 -18 15 -18 44 1 72 10
16 12 38 8 80 -3 31 -9 57 -12 57 -11 0 -3 132 9 164 5 15 7 32 4 38 -11 18
-8 226 3 240 13 15 9 108 -6 177 -15 64 -20 340 -9 425 5 39 14 103 19 141 13
95 14 116 4 300 -11 228 -12 438 -2 452 5 7 4 21 -3 34 -7 12 -9 35 -5 53 11
53 14 186 4 186 -5 0 -19 -11 -31 -25 -12 -14 -28 -25 -35 -25 -14 0 -16 -9
-18 -80 -3 -81 -15 -1468 -20 -2280 -2 -437 -7 -948 -11 -1135 -3 -187 -5
-394 -4 -460 4 -223 3 -816 -4 -1740 -11 -1494 -15 -2170 -15 -2345 1 -91 1
-203 1 -250 -1 -97 -1 -3344 0 -3375 0 -11 0 -240 0 -510 0 -269 1 -1323 1
-2341 2 -1798 3 -1853 21 -1873 16 -18 17 -24 6 -51 -7 -16 -9 -37 -6 -46 3
-9 -3 -28 -14 -44 -11 -15 -20 -34 -20 -42 0 -8 29 -43 65 -78 56 -56 68 -75
89 -140 13 -41 27 -87 30 -102 l6 -26 119 -4 c103 -3 123 -6 148 -24 24 -18
28 -29 29 -70 1 -109 -2 -104 53 -104 59 0 63 8 51 87 -30 200 -32 273 -35
1261 -4 1148 -13 3173 -21 4457 -6 1123 -6 11947 1 12350 2 171 7 731 10 1245
3 514 8 1077 10 1250 2 173 7 873 10 1555 3 682 8 1473 11 1758 6 510 6 517
-14 517 -17 0 -20 -9 -25 -72z"/>
<path d="M20010 24063 c-1 -230 -3 -578 -5 -773 -2 -195 -7 -758 -10 -1250 -6
-963 -11 -1224 -26 -1252 -6 -10 -7 -34 -3 -53 5 -29 2 -38 -22 -60 l-29 -27
28 -22 c28 -23 28 -23 13 -61 -9 -21 -14 -46 -11 -56 3 -10 2 -26 -4 -36 -19
-35 -27 -79 -26 -138 1 -33 -3 -63 -8 -66 -5 -4 -4 -16 3 -29 7 -12 9 -35 6
-51 -3 -16 -1 -52 4 -80 7 -35 7 -65 -1 -92 -6 -22 -13 -90 -15 -151 -3 -61
-8 -136 -11 -166 -5 -50 -2 -59 21 -87 14 -16 30 -43 36 -59 10 -25 8 -31 -9
-45 -16 -13 -19 -26 -16 -71 1 -30 -1 -61 -6 -69 -5 -9 -1 -22 14 -38 l22 -24
-29 7 c-27 7 -28 6 -21 -21 11 -43 13 -134 4 -167 -5 -16 -5 -34 -1 -40 5 -6
9 -65 10 -130 1 -67 7 -125 13 -132 7 -9 6 -21 -5 -43 -18 -33 -21 -98 -6
-121 6 -10 3 -24 -10 -45 -17 -27 -18 -39 -9 -102 11 -77 7 -205 -7 -238 -7
-17 -9 -154 -4 -260 2 -40 -8 -227 -15 -289 -3 -28 0 -65 5 -82 9 -27 8 -40
-7 -71 -16 -33 -17 -46 -8 -91 6 -30 8 -87 4 -130 -3 -42 -2 -90 2 -106 5 -17
5 -34 -1 -41 -5 -6 -6 -42 -3 -80 3 -39 5 -81 3 -95 -1 -14 -2 -36 -2 -50 0
-14 1 -83 2 -155 0 -71 0 -143 -1 -160 0 -16 0 -127 1 -245 3 -191 3 -563 0
-630 -2 -75 1 -419 6 -505 3 -55 5 -109 5 -120 -1 -35 -18 -240 -21 -250 -1
-5 -1 -12 0 -15 3 -6 12 -743 10 -795 -2 -50 -2 -32 0 -405 2 -173 7 -320 11
-326 6 -7 3 -29 -6 -55 -12 -32 -13 -50 -5 -69 5 -14 9 -43 9 -65 -1 -22 -1
-96 0 -165 1 -69 -3 -140 -8 -158 -8 -26 -13 -240 -12 -472 0 -14 0 -155 -1
-315 -1 -159 0 -302 1 -317 2 -27 3 -94 3 -308 0 -52 0 -246 0 -430 0 -184 0
-598 -1 -920 -1 -322 -2 -684 -2 -805 0 -121 0 -233 -1 -250 0 -16 3 -246 7
-510 3 -264 8 -853 10 -1309 2 -456 6 -850 10 -876 4 -31 2 -56 -5 -71 -14
-25 -20 -339 -7 -339 7 0 9 -28 7 -110 -2 -136 -4 -327 -2 -425 0 -66 1 -205
1 -310 0 -104 5 -221 12 -259 7 -45 8 -76 1 -90 -5 -11 -8 -95 -6 -186 3 -200
4 -383 2 -525 -1 -38 -1 -83 0 -100 0 -16 3 -201 6 -410 2 -209 5 -391 6 -405
1 -14 1 -139 1 -278 -1 -152 3 -261 9 -272 6 -10 6 -21 2 -24 -5 -3 -7 -299
-5 -658 2 -359 4 -675 3 -703 -2 -151 -1 -197 2 -270 2 -44 1 -123 -3 -175 -3
-52 -3 -97 2 -100 5 -3 5 -62 0 -130 -5 -74 -5 -132 0 -142 8 -14 5 -278 -3
-343 -3 -18 4 -20 55 -23 l57 -3 1 43 c3 108 -1 1908 -6 2673 -9 1545 -15
2462 -20 3130 -14 1797 -17 3070 -20 7155 -1 2439 -6 4443 -10 4453 -4 9 -13
17 -20 17 -18 0 -24 56 -8 72 31 32 45 175 49 543 3 198 5 374 5 390 0 17 1
98 0 180 0 83 2 305 4 495 2 190 7 631 10 980 3 349 8 763 10 920 3 157 7 519
10 805 3 286 7 646 10 800 11 655 18 965 22 1045 2 47 5 231 7 410 1 179 6
335 10 348 7 20 4 22 -28 22 l-36 0 0 -417z"/>
<path d="M18645 23890 c-3 -5 -1 -10 4 -10 6 0 11 5 11 10 0 6 -2 10 -4 10 -3
0 -8 -4 -11 -10z"/>
<path d="M19153 23024 c-3 -8 -1 -29 5 -47 10 -32 10 -31 11 16 1 48 -5 60
-16 31z"/>
<path d="M19158 22913 c-10 -20 -9 -121 1 -127 8 -5 11 15 11 63 0 66 -3 83
-12 64z"/>
<path d="M19161 22724 c0 -11 3 -14 6 -6 3 7 2 16 -1 19 -3 4 -6 -2 -5 -13z"/>
<path d="M19158 22644 c-5 -4 -8 -30 -8 -58 0 -35 3 -47 11 -39 5 5 9 32 7 58
-2 26 -6 43 -10 39z"/>
<path d="M16542 22573 c4 -31 23 -42 30 -16 7 25 -1 43 -18 43 -11 0 -14 -8
-12 -27z"/>
<path d="M19157 22404 c-4 -4 -7 -14 -7 -23 0 -11 3 -12 11 -4 6 6 10 16 7 23
-2 6 -7 8 -11 4z"/>
<path d="M19140 21444 c0 -8 5 -12 10 -9 6 3 10 10 10 16 0 5 -4 9 -10 9 -5 0
-10 -7 -10 -16z"/>
<path d="M19135 20824 c-5 -44 -4 -69 4 -77 8 -8 11 9 11 66 0 42 -2 77 -4 77
-3 0 -8 -30 -11 -66z"/>
<path d="M8212 20838 c-8 -8 -10 -40 -6 -107 3 -61 0 -140 -10 -216 -9 -66
-27 -228 -41 -360 -14 -132 -30 -276 -36 -320 -5 -44 -14 -120 -19 -170 -5
-49 -16 -153 -25 -230 -34 -307 -67 -674 -71 -770 0 -27 -6 -111 -12 -185 -34
-406 -48 -2917 -17 -2970 1 -3 6 -79 9 -170 4 -91 9 -201 11 -245 2 -44 7
-156 10 -250 4 -93 8 -190 10 -215 1 -25 6 -108 9 -185 4 -77 9 -167 11 -200
2 -33 9 -168 15 -300 6 -132 15 -289 21 -350 6 -60 13 -132 15 -160 10 -123
25 -310 34 -420 6 -66 13 -178 15 -250 3 -71 10 -182 15 -245 5 -63 12 -158
15 -210 3 -52 8 -106 10 -120 5 -24 43 -449 43 -480 0 -8 2 -42 6 -75 6 -63
16 -180 41 -458 8 -92 17 -189 20 -215 3 -26 10 -112 15 -192 5 -80 12 -158
14 -175 8 -48 16 -143 21 -243 3 -52 7 -98 10 -103 8 -12 26 -204 31 -319 2
-52 8 -124 14 -160 17 -103 41 -303 40 -330 0 -14 5 -50 11 -80 7 -30 13 -62
14 -70 1 -8 5 -44 9 -80 4 -36 14 -105 22 -155 29 -188 31 -208 39 -330 8
-109 17 -156 30 -155 13 1 8 214 -6 258 -6 18 -12 58 -14 90 -7 114 -15 188
-25 222 -6 19 -10 54 -10 78 0 24 -4 52 -10 62 -5 10 -10 33 -11 51 -1 19 -8
83 -16 142 -8 60 -12 118 -9 130 3 11 1 28 -4 37 -8 15 -17 94 -25 221 -1 26
-5 51 -9 57 -3 5 -8 54 -11 108 -8 144 -13 207 -25 324 -14 127 -28 290 -35
385 -2 39 -9 113 -15 165 -5 52 -12 138 -15 190 -2 52 -14 187 -25 300 -11
113 -30 315 -41 450 -11 135 -25 290 -30 345 -19 180 -25 265 -39 555 -10 220
-24 403 -40 545 -9 75 -20 232 -25 335 -1 25 -5 77 -9 115 -4 39 -9 115 -11
170 -2 55 -6 129 -9 165 -3 36 -8 155 -12 265 -3 110 -8 216 -10 235 -2 19
-11 206 -19 415 -19 476 -22 540 -35 700 -10 126 -7 1180 5 1715 3 129 7 359
10 510 7 375 16 572 26 593 6 9 17 17 26 17 14 0 13 4 -5 20 -12 12 -22 24
-22 28 0 7 29 314 50 527 11 116 60 542 95 830 13 110 29 252 35 315 6 63 17
169 25 235 21 166 24 337 6 358 -16 20 -32 22 -49 5z"/>
<path d="M6244 20706 c-7 -20 2 -46 16 -46 13 0 13 47 0 55 -6 3 -13 -1 -16
-9z"/>
<path d="M19141 20704 c0 -11 3 -14 6 -6 3 7 2 16 -1 19 -3 4 -6 -2 -5 -13z"/>
<path d="M19142 20630 c0 -14 2 -19 5 -12 2 6 2 18 0 25 -3 6 -5 1 -5 -13z"/>
<path d="M19142 20530 c0 -19 2 -27 5 -17 2 9 2 25 0 35 -3 9 -5 1 -5 -18z"/>
<path d="M19129 20473 c-6 -44 -5 -204 2 -214 15 -24 24 21 24 120 0 67 -4 96
-12 98 -7 3 -14 1 -14 -4z"/>
<path d="M19130 20210 c0 -18 4 -29 10 -25 6 3 10 15 10 25 0 10 -4 22 -10 25
-6 4 -10 -7 -10 -25z"/>
<path d="M2649 20078 c-13 -25 -7 -119 18 -275 15 -95 15 -104 -1 -127 -22
-34 -20 -43 9 -70 20 -19 25 -35 29 -88 4 -68 24 -124 41 -117 6 2 9 46 7 111
-3 127 -3 128 117 134 42 2 99 8 126 14 28 5 82 13 120 17 66 8 70 9 70 33 0
22 -4 25 -35 24 -59 -2 -323 -23 -362 -30 -35 -5 -39 -3 -48 22 -6 16 -13 100
-16 188 -3 92 -10 166 -16 173 -16 20 -46 15 -59 -9z"/>
<path d="M16195 20053 c-76 -28 -110 -45 -165 -80 -111 -72 -146 -123 -116
-169 25 -37 48 -26 69 31 29 79 124 152 239 183 48 13 73 6 87 -24 27 -60 1
-149 -105 -357 -49 -95 -55 -142 -19 -142 21 0 38 29 111 190 69 153 86 208
88 273 1 58 -1 66 -27 88 -33 28 -98 31 -162 7z"/>
<path d="M114 19955 c-4 -18 -1 -32 11 -45 23 -26 46 -25 74 1 20 19 21 23 8
42 -9 14 -27 23 -50 25 -32 3 -37 0 -43 -23z"/>
<path d="M4680 19938 c-36 -16 -81 -36 -100 -43 -176 -64 -344 -195 -325 -254
3 -12 26 -32 49 -46 40 -24 54 -26 207 -29 302 -8 412 -52 394 -156 -15 -88
-152 -242 -232 -261 -31 -7 -43 -5 -66 12 -34 25 -57 19 -57 -16 0 -58 68 -83
125 -45 17 11 35 20 42 20 23 0 101 60 157 121 92 99 125 186 95 251 -33 73
-210 126 -449 135 -127 4 -156 8 -167 22 -18 24 -16 45 10 68 58 55 315 161
416 172 68 8 89 32 52 62 -32 26 -75 23 -151 -13z"/>
<path d="M5191 19946 c-9 -11 -11 -59 -8 -173 3 -87 8 -167 11 -178 3 -11 7
-67 9 -124 4 -74 9 -107 20 -118 13 -14 16 -13 27 7 9 16 10 55 5 136 -8 138
-15 132 164 145 69 4 150 13 180 18 29 6 57 8 62 5 16 -9 10 -40 -16 -78 -14
-20 -31 -49 -40 -64 -8 -15 -30 -44 -49 -65 -48 -52 -53 -73 -25 -103 33 -36
63 -30 118 21 51 48 76 91 69 122 -4 15 -13 10 -50 -29 -25 -27 -48 -48 -52
-48 -23 0 35 104 134 237 13 19 20 38 16 48 -5 15 -22 16 -169 10 -89 -4 -200
-11 -247 -15 -47 -5 -89 -5 -93 -1 -15 15 -17 75 -6 144 14 85 7 117 -25 117
-13 0 -29 -6 -35 -14z"/>
<path d="M6230 19941 c-15 -29 -12 -138 5 -206 19 -70 14 -89 -19 -81 -24 6
-56 -14 -56 -34 0 -16 31 -40 53 -40 46 -1 60 -25 61 -97 1 -53 4 -68 16 -68
12 0 15 15 17 69 1 38 5 72 10 76 4 5 59 6 122 3 l113 -6 14 -36 c38 -98 79
-149 153 -196 74 -46 140 -63 222 -59 79 4 173 20 202 35 21 12 22 52 2 69
-12 10 -22 8 -53 -13 -79 -54 -200 -63 -283 -22 -98 50 -178 147 -165 201 5
19 13 24 41 24 51 0 52 18 0 25 -34 6 -45 12 -45 25 0 38 20 69 65 100 88 61
155 60 155 -2 -1 -37 -27 -72 -82 -108 -48 -32 -34 -47 26 -30 84 23 152 127
126 191 -16 37 -46 59 -82 59 -34 0 -175 -54 -200 -77 -30 -26 -78 -99 -78
-117 0 -23 -29 -34 -69 -25 -20 4 -68 13 -108 19 -40 7 -78 18 -85 27 -9 11
-13 58 -14 153 -1 76 -5 143 -8 149 -11 18 -44 13 -56 -8z"/>
<path d="M10719 19894 c-27 -32 -24 -169 5 -278 31 -118 32 -133 6 -141 -29
-9 -43 -40 -30 -66 10 -17 17 -20 51 -14 34 6 39 4 39 -12 0 -26 72 -286 83
-301 12 -15 37 2 37 26 0 8 -18 68 -40 133 -63 188 -57 206 80 223 30 4 64 11
75 16 39 16 141 33 209 34 53 1 71 5 80 18 8 14 7 21 -5 33 -14 15 -20 15 -60
1 -24 -9 -62 -16 -84 -16 -22 0 -89 -9 -150 -21 -168 -31 -189 -33 -201 -18
-18 23 -46 238 -42 319 3 70 2 75 -18 78 -11 2 -27 -5 -35 -14z"/>
<path d="M2406 19871 c-9 -16 -32 -73 -52 -127 -55 -147 -111 -271 -145 -320
-62 -91 -129 -60 -163 75 -9 39 -15 46 -38 49 -53 6 -59 -53 -13 -133 58 -100
140 -137 205 -93 64 43 116 137 175 313 18 55 45 127 60 159 22 48 25 63 16
82 -14 32 -27 30 -45 -5z"/>
<path d="M22065 19881 c-104 -22 -271 -101 -286 -134 -8 -18 -8 -30 0 -46 17
-31 46 -26 71 14 24 38 121 98 205 126 58 19 75 15 75 -16 0 -21 -25 -59 -174
-261 -30 -41 -54 -64 -73 -68 -15 -4 -68 -26 -118 -50 -124 -59 -163 -72 -175
-60 -6 6 -13 59 -15 117 -6 136 -21 170 -60 131 -18 -18 -17 -27 16 -158 18
-72 18 -80 4 -102 -10 -16 -25 -24 -43 -24 -15 0 -44 -5 -65 -11 -33 -9 -38
-14 -35 -37 4 -34 36 -40 90 -16 21 9 42 14 46 10 4 -5 7 -33 7 -64 0 -45 3
-57 17 -60 19 -4 28 19 37 92 3 28 12 52 21 57 80 42 237 109 247 105 7 -3 13
-18 13 -34 0 -40 46 -80 120 -103 74 -23 94 -24 109 -5 18 21 -4 60 -27 51 -9
-4 -35 -9 -58 -12 -36 -5 -43 -2 -63 23 -18 23 -21 37 -17 66 8 50 33 90 71
115 23 16 35 34 43 66 9 33 35 73 97 147 47 56 85 108 85 115 0 38 -63 48
-165 26z"/>
<path d="M15542 19828 c-16 -16 -15 -60 4 -138 14 -61 25 -109 44 -204 7 -34
5 -42 -16 -61 -41 -38 -28 -75 27 -75 11 0 20 -9 23 -22 3 -13 10 -51 17 -85
14 -73 29 -99 53 -90 23 9 20 46 -10 135 -14 42 -23 85 -20 96 5 21 86 66 117
66 8 0 37 14 63 30 37 24 47 35 44 53 -5 36 -33 31 -109 -18 -40 -26 -87 -49
-105 -52 -29 -5 -34 -2 -38 18 -9 38 -27 178 -33 259 -7 93 -27 122 -61 88z"/>
<path d="M28690 19796 c-39 -14 -67 -54 -57 -80 12 -31 36 -29 76 7 37 33 87
53 123 48 34 -4 27 18 -9 28 -48 14 -89 13 -133 -3z"/>
<path d="M5828 19758 c-15 -12 -48 -109 -48 -141 0 -8 8 -17 18 -19 16 -5 20
-20 26 -109 4 -57 8 -111 8 -119 0 -91 79 -177 122 -134 20 19 17 48 -4 50 -8
1 -20 2 -26 3 -7 0 -15 12 -18 26 -12 46 -26 228 -27 330 -1 116 -13 143 -51
113z"/>
<path d="M28900 19741 c0 -35 -43 -91 -125 -162 -91 -79 -161 -160 -183 -211
-21 -49 -26 -122 -9 -136 19 -16 47 9 47 42 0 69 95 204 207 297 110 91 143
125 143 147 0 25 -31 52 -58 52 -18 0 -22 -6 -22 -29z"/>
<path d="M1605 19745 c-44 -17 -90 -57 -109 -95 -7 -14 -19 -60 -26 -104 -13
-77 -13 -78 -24 -45 -9 27 -16 34 -36 34 -23 0 -25 -4 -28 -49 -3 -50 21 -224
40 -285 6 -18 13 -94 17 -168 5 -116 9 -138 24 -147 14 -9 21 -7 32 7 17 24
28 152 21 247 -4 41 -8 110 -11 153 l-5 78 22 -16 c47 -33 109 -14 193 59 67
58 105 127 105 191 0 42 -5 52 -48 96 -54 58 -99 69 -167 44z m101 -81 c41
-42 45 -94 14 -152 -47 -89 -89 -116 -164 -107 l-56 7 0 49 c0 103 67 222 129
232 14 2 30 5 35 6 5 0 24 -15 42 -35z"/>
<path d="M25015 19751 c-6 -5 -30 -11 -55 -14 -124 -13 -235 -70 -235 -121 0
-17 7 -33 18 -40 15 -9 22 -6 40 14 64 72 173 120 274 120 43 0 53 -3 58 -20
10 -30 -4 -81 -31 -117 -13 -17 -28 -43 -34 -58 -9 -25 -61 -99 -141 -203 -43
-57 -55 -95 -34 -112 21 -17 34 -5 96 93 29 45 64 98 79 117 45 57 98 161 113
220 17 64 8 94 -32 114 -32 16 -103 20 -116 7z"/>
<path d="M32128 19733 c-6 -7 -23 -13 -39 -13 -33 0 -62 -36 -57 -71 5 -34 20
-33 69 6 44 35 133 69 177 68 14 0 20 3 14 9 -15 15 -151 16 -164 1z"/>
<path d="M320 19725 c-16 -20 -7 -132 19 -235 24 -96 108 -344 131 -390 21
-42 44 -145 36 -166 -3 -8 -1 -26 4 -39 8 -22 13 -24 30 -15 13 7 20 21 20 38
0 38 -35 168 -53 195 -8 12 -17 40 -21 62 -4 22 -18 78 -32 125 -13 47 -31
108 -39 136 -11 37 -45 250 -45 281 0 1 -9 7 -19 12 -14 8 -22 7 -31 -4z"/>
<path d="M32390 19700 c0 -5 5 -10 10 -10 6 0 10 5 10 10 0 6 -4 10 -10 10 -5
0 -10 -4 -10 -10z"/>
<path d="M739 19692 c-20 -9 -79 -76 -79 -91 0 -6 -16 -11 -35 -11 -49 0 -59
-24 -50 -119 9 -103 32 -220 46 -237 17 -20 42 -17 57 7 11 17 12 52 7 159 -8
144 -5 161 38 207 19 21 21 22 47 6 33 -19 75 -82 148 -222 86 -164 129 -210
187 -195 46 11 99 91 88 133 -8 32 -30 25 -58 -19 -51 -80 -67 -69 -160 115
-119 236 -171 295 -236 267z"/>
<path d="M32442 19683 c-5 -10 -12 -29 -15 -43 -4 -14 -46 -66 -94 -116 -99
-102 -93 -96 -151 -183 -45 -68 -58 -101 -48 -127 9 -25 29 -12 51 33 11 23
29 52 41 65 11 13 32 41 46 63 27 41 111 130 186 198 48 45 53 73 18 106 -23
22 -25 22 -34 4z"/>
<path d="M19130 19640 c0 -22 5 -40 10 -40 6 0 10 18 10 40 0 22 -4 40 -10 40
-5 0 -10 -18 -10 -40z"/>
<path d="M14310 19605 c-15 -18 -8 -87 20 -194 21 -81 18 -98 -16 -112 -15 -5
-24 -17 -24 -30 0 -19 4 -21 33 -16 19 3 38 2 43 -1 5 -4 27 -50 48 -102 48
-122 62 -142 89 -138 32 4 33 40 3 85 -14 21 -39 72 -57 113 l-31 74 27 22
c16 12 55 31 89 42 68 22 87 42 67 66 -17 20 -38 15 -112 -30 -64 -38 -85 -42
-93 -16 -14 48 -28 157 -22 183 11 56 -32 92 -64 54z"/>
<path d="M9573 19588 c-39 -10 -114 -83 -139 -135 -10 -21 -20 -63 -22 -94 -3
-45 -8 -57 -26 -65 -34 -15 -26 -46 18 -69 21 -11 43 -30 47 -43 14 -37 86
-138 119 -165 41 -35 89 -47 183 -47 108 0 161 31 141 84 -8 21 -16 20 -49 -6
-43 -33 -130 -37 -190 -8 -120 58 -219 280 -170 383 21 44 98 117 123 117 56
0 101 -95 72 -150 -16 -30 -100 -90 -125 -90 -32 0 -49 -23 -36 -49 10 -18 14
-19 39 -6 15 8 39 17 53 19 70 14 139 98 139 169 0 49 -20 87 -64 120 -48 37
-75 45 -113 35z"/>
<path d="M23569 19588 c-21 -17 -46 -59 -63 -105 -67 -180 -96 -252 -110 -278
-21 -40 -20 -58 4 -80 19 -17 21 -17 58 9 22 15 66 55 98 90 32 34 74 71 91
81 31 18 34 18 50 2 12 -12 17 -36 19 -89 1 -40 5 -100 10 -133 4 -33 7 -68 5
-77 -3 -24 15 -55 44 -74 29 -19 65 -4 65 26 0 15 -7 20 -29 20 -40 0 -44 15
-46 203 -1 141 -4 160 -22 185 -11 15 -28 28 -37 30 -9 2 -45 -23 -84 -60 -91
-86 -132 -108 -132 -70 1 43 60 176 112 248 17 23 28 50 26 60 -4 23 -37 29
-59 12z"/>
<path d="M19151 19576 c-9 -11 -8 -15 6 -21 16 -6 16 -8 -5 -25 -19 -16 -23
-27 -20 -67 2 -39 6 -48 22 -48 10 0 22 7 26 15 31 61 31 65 16 95 -9 17 -16
35 -16 42 0 19 -17 24 -29 9z"/>
<path d="M5751 19562 c-7 -13 -11 -26 -8 -28 8 -8 29 25 25 38 -3 8 -9 4 -17
-10z"/>
<path d="M10462 19515 c-58 -61 -50 -70 28 -29 58 30 64 37 55 64 -10 31 -25
24 -83 -35z"/>
<path d="M26395 19560 c-4 -6 -11 -35 -15 -63 -4 -29 -15 -92 -22 -142 -9 -56
-14 -158 -14 -270 1 -172 2 -180 21 -180 36 0 47 41 41 155 -7 130 5 258 35
379 16 68 20 98 12 109 -12 20 -48 28 -58 12z"/>
<path d="M8939 19503 c-20 -26 -40 -59 -44 -72 -7 -23 -7 -23 -26 8 -21 35
-31 38 -49 16 -11 -13 -11 -35 -1 -113 9 -70 9 -112 2 -151 -17 -83 -14 -170
5 -178 25 -9 32 7 44 112 21 189 47 295 87 360 13 20 13 20 32 -2 19 -23 86
-224 130 -388 12 -45 65 -135 80 -135 6 0 15 9 21 20 8 16 5 34 -18 88 -32 73
-44 108 -92 283 -41 147 -65 193 -105 197 -26 2 -36 -4 -66 -45z"/>
<path d="M9967 19543 c-24 -23 5 -94 74 -185 24 -31 49 -64 54 -74 9 -14 15
-15 33 -5 12 6 22 17 22 24 0 7 -22 48 -50 92 -27 43 -53 88 -56 100 -13 42
-56 70 -77 48z"/>
<path d="M15463 19498 c-5 -7 -15 -51 -22 -98 -13 -88 -35 -142 -69 -174 -21
-18 -21 -18 -37 19 -27 66 -45 125 -45 148 0 33 -23 60 -46 55 -16 -3 -19 -11
-17 -47 2 -49 35 -154 70 -223 28 -57 54 -62 99 -19 36 35 94 150 94 186 0 14
5 45 11 68 15 63 -10 121 -38 85z"/>
<path d="M10380 19449 c0 -5 5 -7 10 -4 6 3 10 8 10 11 0 2 -4 4 -10 4 -5 0
-10 -5 -10 -11z"/>
<path d="M20635 19431 c-33 -16 -73 -42 -90 -56 -16 -15 -50 -41 -75 -57 -58
-40 -167 -145 -186 -180 -25 -48 -18 -78 30 -124 43 -41 125 -76 154 -66 18 6
15 20 -7 27 -35 11 -102 66 -112 92 -15 41 6 85 70 144 126 117 244 181 325
177 37 -1 50 2 58 16 15 26 -11 47 -63 53 -34 3 -57 -3 -104 -26z"/>
<path d="M31031 19441 c-12 -12 -20 -40 -24 -82 -9 -93 -23 -126 -56 -132 -37
-8 -76 -40 -67 -56 6 -8 21 -10 47 -6 47 8 49 -2 19 -88 -24 -69 -26 -107 -4
-107 17 0 37 43 59 125 22 88 36 108 75 117 55 12 141 21 185 19 48 -1 70 11
61 34 -5 14 -15 15 -63 9 -32 -3 -62 -10 -68 -14 -5 -4 -38 -11 -72 -15 -62
-7 -63 -7 -73 21 -6 15 -8 35 -4 43 22 50 41 116 37 127 -8 22 -33 24 -52 5z"/>
<path d="M14989 19430 c-47 -25 -88 -72 -119 -138 -14 -28 -30 -52 -36 -52 -6
0 -17 20 -23 44 -13 55 -42 92 -64 83 -25 -9 -21 -45 12 -125 39 -94 46 -146
31 -230 -15 -80 -2 -137 31 -147 40 -13 49 18 48 165 0 131 14 220 39 252 82
102 125 130 166 108 56 -30 61 -107 11 -173 -44 -57 -91 -87 -127 -80 -23 4
-28 2 -28 -15 0 -23 25 -32 81 -28 51 4 103 45 141 114 49 87 39 175 -25 220
-40 27 -89 28 -138 2z"/>
<path d="M24341 19436 c-9 -10 -9 -31 -2 -77 6 -35 8 -80 4 -101 -5 -34 -11
-41 -52 -59 -71 -31 -117 -81 -105 -113 10 -27 38 -18 83 29 24 25 48 45 53
45 20 0 18 -30 -6 -84 -29 -65 -25 -102 10 -78 12 9 29 51 44 112 18 72 31
100 49 100 10 0 26 7 37 15 10 8 33 15 50 15 18 0 62 9 98 20 53 17 66 25 66
41 0 18 -4 20 -32 14 -18 -4 -75 -23 -127 -41 -116 -42 -122 -39 -114 56 5 55
2 74 -11 95 -19 28 -29 31 -45 11z"/>
<path d="M10315 19421 c-74 -42 -104 -63 -109 -76 -8 -23 17 -18 55 10 19 13
44 29 57 35 21 9 40 36 31 44 -2 2 -17 -4 -34 -13z"/>
<path d="M14197 19393 c-3 -5 -13 -37 -22 -73 -25 -90 -97 -240 -130 -270
l-27 -25 -31 37 c-18 20 -56 81 -85 136 -29 55 -59 105 -67 112 -19 16 -45 6
-45 -18 0 -21 35 -98 49 -106 5 -3 28 -44 52 -92 47 -94 86 -134 128 -134 34
0 76 31 98 73 52 96 123 280 123 317 0 35 -30 64 -43 43z"/>
<path d="M21132 19387 c-41 -13 -227 -181 -259 -234 -13 -22 -23 -54 -23 -76
0 -39 2 -37 -75 -67 -23 -9 -132 -27 -222 -36 -61 -6 -76 -15 -52 -30 17 -10
166 -5 197 8 15 5 58 19 97 30 38 10 74 23 80 28 6 5 31 12 55 16 54 9 109 62
182 176 73 112 90 112 127 -2 22 -67 63 -120 92 -120 17 0 69 53 69 70 0 40
-33 53 -50 20 -30 -56 -79 26 -89 150 l-6 75 -45 2 c-25 1 -60 -3 -78 -10z
m-2 -84 c0 -24 -7 -33 -78 -111 -33 -37 -74 -75 -91 -85 -29 -17 -32 -17 -37
-2 -6 15 2 36 40 105 5 9 23 26 40 38 17 13 46 34 65 47 40 29 61 32 61 8z"/>
<path d="M29855 19393 c-132 -31 -231 -106 -276 -207 -41 -93 -7 -217 72 -265
32 -19 136 -38 147 -26 10 9 -20 25 -49 25 -14 0 -34 9 -44 20 -10 11 -24 20
-30 20 -19 0 -48 69 -53 127 -4 42 1 60 23 101 60 111 152 166 277 167 58 0
69 -3 87 -24 25 -29 26 -59 5 -109 -22 -54 -56 -85 -161 -149 -52 -31 -96 -60
-98 -64 -3 -4 -2 -15 1 -24 9 -22 44 -13 102 26 23 16 46 29 50 29 15 0 116
82 143 117 35 43 51 99 43 142 -8 41 -72 86 -123 87 -20 0 -49 3 -66 6 -16 3
-39 4 -50 1z"/>
<path d="M28224 19340 c-79 -38 -99 -56 -89 -82 6 -15 113 -81 201 -123 42
-20 67 -40 79 -61 44 -81 -40 -164 -166 -164 -43 0 -54 4 -71 25 -25 32 -46
32 -54 -2 -6 -22 -1 -32 31 -61 36 -33 40 -34 96 -29 118 10 239 92 239 161 0
66 -50 125 -120 143 -14 3 -27 9 -30 12 -3 3 -22 15 -43 25 -103 53 -101 81 5
116 64 21 77 29 78 46 0 47 -51 44 -156 -6z"/>
<path d="M31570 19338 c-14 -11 -37 -25 -51 -30 -24 -8 -49 -44 -49 -68 0 -22
83 -61 136 -66 30 -2 54 -1 54 4 0 16 -25 32 -51 32 -15 0 -37 8 -49 18 l-23
19 20 20 c20 20 99 43 148 43 29 0 41 16 26 34 -8 9 -35 14 -74 14 -49 1 -67
-3 -87 -20z"/>
<path d="M13530 19310 c-23 -13 -46 -17 -66 -14 -27 5 -35 1 -56 -28 -82 -110
-91 -346 -18 -420 54 -54 161 -29 243 56 51 52 126 193 134 252 6 48 -30 130
-68 153 -38 23 -128 23 -169 1z m145 -22 c29 -13 50 -74 42 -123 -8 -47 -85
-173 -139 -226 -71 -70 -114 -77 -152 -26 -18 25 -21 42 -21 130 0 80 5 110
19 137 29 55 36 61 57 50 14 -8 23 -6 39 10 11 11 20 24 20 28 0 27 91 40 135
20z"/>
<path d="M16244 19295 c-37 -16 -48 -39 -34 -66 12 -22 57 -26 84 -6 12 9 17
23 14 47 -3 40 -18 45 -64 25z"/>
<path d="M10164 19275 c-17 -43 30 -96 174 -195 45 -31 66 -40 74 -32 21 21 0
59 -46 82 -25 12 -77 52 -116 91 -39 38 -73 69 -76 69 -2 0 -7 -7 -10 -15z"/>
<path d="M23986 19249 c-14 -17 -26 -37 -26 -44 0 -8 -20 -51 -44 -97 -58
-111 -62 -125 -40 -149 30 -33 66 -24 116 29 25 27 51 58 57 70 6 12 23 25 36
28 20 5 25 12 25 40 0 28 -4 35 -26 40 -30 8 -38 1 -53 -48 -12 -35 -70 -98
-92 -98 -5 0 11 41 37 90 25 50 50 90 55 90 5 0 16 11 25 25 13 20 14 28 4 40
-19 23 -46 18 -74 -16z"/>
<path d="M10049 19247 c-42 -19 -120 -87 -130 -114 -11 -30 4 -63 30 -63 10 0
39 30 72 76 30 42 60 85 68 95 16 23 2 25 -40 6z"/>
<path d="M19129 19243 c-1 -10 0 -40 1 -68 2 -59 2 -34 -5 -308 -5 -190 -4
-220 10 -234 14 -14 14 -16 0 -27 -14 -10 -17 -55 -21 -361 -3 -193 -6 -414
-7 -493 -2 -78 0 -147 3 -152 3 -4 24 14 48 42 46 55 47 72 11 135 -10 19 -14
35 -8 38 5 4 9 15 9 26 0 11 9 23 21 27 20 8 20 8 0 26 -11 10 -17 24 -14 32
3 8 -3 21 -13 29 -16 12 -17 14 -3 15 13 0 18 15 23 62 4 34 12 70 17 80 7 14
4 29 -12 58 -21 37 -21 40 -5 65 10 14 15 32 13 38 -2 7 -1 19 4 28 12 23 -20
102 -38 95 -18 -7 -16 4 3 26 14 14 14 20 4 33 -8 10 -10 29 -6 54 3 21 3 41
-1 45 -12 12 -5 142 10 178 13 32 13 39 1 57 -9 12 -12 26 -8 32 15 25 22 134
9 154 -20 34 -26 73 -13 94 9 15 9 23 -2 36 -10 12 -10 19 -2 27 15 15 15 39
0 88 -13 42 -27 52 -29 23z"/>
<path d="M27681 19208 c-51 -27 -115 -89 -184 -177 -49 -63 -71 -71 -61 -22
10 48 -13 109 -47 127 -39 19 -46 13 -90 -73 -36 -71 -145 -193 -173 -193 -8
0 -19 12 -22 26 -6 24 -1 137 9 179 17 76 18 103 2 119 -40 40 -53 11 -65
-149 -6 -76 -9 -150 -5 -164 9 -37 54 -81 83 -81 29 0 123 78 154 129 12 20
26 41 31 46 4 6 16 26 26 45 10 19 25 36 34 38 22 4 31 -31 32 -123 0 -44 4
-86 8 -92 11 -17 52 -16 66 1 12 15 108 20 116 6 9 -14 144 -3 170 14 13 9 33
16 44 16 11 0 22 4 26 9 3 5 20 13 38 17 55 12 157 65 174 90 12 19 13 27 4
38 -13 16 -40 3 -118 -56 -19 -16 -44 -28 -54 -28 -10 0 -24 -6 -31 -13 -16
-15 -107 -43 -170 -52 -67 -9 -63 10 14 66 123 88 191 176 169 217 -31 59
-110 76 -180 40z m109 -43 c27 -32 -60 -153 -102 -142 -19 5 -61 -23 -91 -60
-17 -22 -84 -50 -94 -40 -12 12 30 108 55 127 15 11 34 26 42 33 8 8 30 25 48
38 27 19 35 21 42 10 4 -8 6 -20 3 -28 -3 -7 -2 -13 2 -13 14 0 34 34 35 57 0
32 38 44 60 18z"/>
<path d="M22058 19175 c-39 -35 -47 -62 -26 -83 25 -25 47 -13 73 39 21 40 24
54 14 65 -16 19 -19 18 -61 -21z"/>
<path d="M26830 19182 c-19 -9 -62 -44 -94 -77 l-59 -60 6 41 c5 32 3 47 -11
63 -15 20 -19 20 -37 7 -18 -13 -21 -32 -29 -185 -8 -155 -8 -174 9 -210 22
-49 63 -68 103 -47 37 19 128 117 183 196 51 73 69 124 69 198 0 43 -4 54 -26
71 -32 25 -67 26 -114 3z m78 -54 c19 -19 13 -79 -11 -125 -12 -23 -57 -82
-100 -132 -73 -84 -109 -112 -125 -96 -4 4 -7 52 -7 108 l0 102 28 3 c15 2 27
7 27 11 0 19 88 106 125 122 48 22 48 22 63 7z"/>
<path d="M30487 19193 c-4 -3 -7 -17 -7 -30 0 -14 -5 -33 -10 -44 -13 -22 -67
-52 -80 -44 -19 12 -10 53 15 69 29 19 33 46 7 46 -9 0 -34 -11 -54 -25 -34
-23 -37 -29 -40 -82 -3 -56 -3 -56 -43 -70 -22 -7 -50 -18 -62 -25 -13 -6 -26
-8 -30 -5 -3 4 -16 1 -27 -7 -12 -7 -42 -17 -66 -21 -25 -4 -54 -12 -65 -18
-11 -6 -23 -11 -26 -10 -3 1 -28 -5 -54 -13 -27 -7 -63 -14 -82 -14 -20 0 -32
-4 -28 -10 3 -5 44 -9 90 -9 64 0 103 7 171 30 48 16 91 29 96 29 5 0 33 11
61 23 94 43 131 56 180 62 35 5 70 20 122 56 40 27 77 49 82 49 5 0 23 -29 41
-65 36 -73 77 -104 113 -85 26 14 21 44 -8 48 -29 4 -43 23 -74 101 -31 78
-56 89 -107 47 -37 -32 -39 -32 -64 -1 -19 25 -38 31 -51 18z"/>
<path d="M31705 19160 c3 -5 12 -10 20 -10 8 0 18 -6 22 -14 4 -7 17 -18 28
-24 24 -12 30 -56 15 -110 -18 -69 -143 -172 -189 -157 -12 3 -22 21 -27 48
-10 48 -32 55 -50 18 -18 -35 1 -80 40 -96 39 -17 115 -4 156 25 15 11 32 20
37 20 9 0 44 43 76 93 37 60 6 171 -57 201 -38 18 -81 21 -71 6z"/>
<path d="M24108 19075 c-11 -18 20 -148 37 -161 24 -18 60 1 85 43 40 68 16
99 -31 41 -23 -28 -29 -30 -43 -19 -9 7 -16 21 -16 30 -1 25 -26 76 -32 66z"/>
<path d="M24936 19004 c-11 -30 -6 -63 12 -72 27 -14 42 -3 42 32 0 48 -40 77
-54 40z"/>
<path d="M28602 18988 c-18 -18 -15 -34 14 -57 37 -29 72 -27 84 4 9 24 4 55
-9 55 -3 1 -22 3 -41 6 -21 3 -40 0 -48 -8z"/>
<path d="M32121 18982 c-8 -15 -7 -23 2 -30 21 -16 54 -23 82 -16 21 5 26 11
23 33 -3 23 -8 26 -50 29 -38 2 -49 -1 -57 -16z"/>
<path d="M19190 18699 c0 -5 5 -7 10 -4 6 3 10 8 10 11 0 2 -4 4 -10 4 -5 0
-10 -5 -10 -11z"/>
<path d="M15210 18664 c-8 -21 -8 -31 4 -42 8 -8 19 -11 25 -8 16 10 13 51 -4
66 -12 10 -16 7 -25 -16z"/>
<path d="M3719 18649 c-42 -4 -182 -10 -310 -14 -129 -4 -236 -8 -239 -10 -3
-1 -151 -6 -330 -10 -514 -10 -534 -11 -975 -41 -121 -8 -245 -19 -277 -24
-31 -6 -103 -13 -159 -15 -57 -3 -110 -7 -119 -9 -8 -3 -53 -7 -100 -10 -47
-3 -123 -8 -170 -11 -416 -27 -901 -27 -1017 0 -21 5 -23 2 -23 -34 l0 -39 87
-8 c99 -9 551 -9 718 0 104 6 287 21 385 31 489 53 831 83 1035 90 66 3 172 7
235 10 63 3 223 7 355 10 221 5 525 18 670 31 224 18 695 18 1080 -1 44 -2
300 -6 569 -9 269 -4 492 -9 496 -11 4 -3 79 -7 166 -10 88 -3 169 -8 182 -11
30 -6 316 -13 827 -18 368 -5 598 -10 908 -21 117 -4 177 1 177 15 0 18 -93
29 -280 30 -113 1 -232 4 -265 5 -33 2 -211 7 -395 10 -184 3 -416 8 -515 10
-169 3 -454 12 -625 20 -99 5 -339 14 -520 20 -79 2 -217 4 -305 4 -88 0 -171
0 -185 1 -312 16 -975 27 -1081 19z"/>
<path d="M29553 18569 c-19 -20 -16 -26 15 -26 15 -1 34 -2 42 -3 31 -6 90 0
90 9 0 5 -19 11 -42 14 -24 3 -54 8 -68 12 -15 4 -30 1 -37 -6z"/>
<path d="M29805 18571 c-2 -2 -23 -3 -45 -3 -26 1 -40 -3 -38 -10 3 -7 41 -13
95 -14 71 -3 93 -1 103 11 14 17 14 17 -63 19 -27 0 -50 -1 -52 -3z"/>
<path d="M29950 18570 c-12 -8 -12 -10 3 -16 22 -8 50 3 42 16 -8 12 -25 13
-45 0z"/>
<path d="M30082 18568 c3 -7 23 -12 46 -13 45 -1 56 9 20 19 -38 10 -70 7 -66
-6z"/>
<path d="M30210 18570 c0 -5 16 -10 35 -10 19 0 35 5 35 10 0 6 -16 10 -35 10
-19 0 -35 -4 -35 -10z"/>
<path d="M30325 18570 c-3 -5 -2 -10 4 -10 5 0 13 5 16 10 3 6 2 10 -4 10 -5
0 -13 -4 -16 -10z"/>
<path d="M30620 18570 c0 -5 5 -10 10 -10 6 0 10 5 10 10 0 6 -4 10 -10 10 -5
0 -10 -4 -10 -10z"/>
<path d="M31336 18573 c-11 -11 -6 -23 9 -23 8 0 15 4 15 9 0 13 -16 22 -24
14z"/>
<path d="M29275 18560 c-3 -5 -18 -10 -31 -10 -16 0 -24 -5 -21 -12 2 -7 11
-13 20 -12 10 0 56 1 105 2 88 2 129 14 104 30 -7 5 -36 5 -65 1 -28 -3 -60
-3 -69 2 -22 12 -35 11 -43 -1z"/>
<path d="M30795 18560 c-8 -12 20 -24 35 -15 6 3 8 11 5 16 -8 12 -32 12 -40
-1z"/>
<path d="M31133 18563 c-20 -8 -15 -23 7 -23 11 0 20 7 20 15 0 15 -6 17 -27
8z"/>
<path d="M31392 18558 c5 -14 48 -31 48 -18 0 6 -7 10 -15 10 -8 0 -15 5 -15
10 0 6 -5 10 -11 10 -6 0 -9 -5 -7 -12z"/>
<path d="M31475 18560 c-4 -6 -3 -16 3 -22 6 -6 12 -6 17 2 4 6 3 16 -3 22 -6
6 -12 6 -17 -2z"/>
<path d="M17410 18548 c-466 -22 -650 -35 -940 -68 -185 -21 -443 -37 -725
-45 -104 -3 -210 -8 -235 -10 -25 -3 -106 -1 -180 5 -74 6 -175 13 -224 16
-49 3 -93 7 -98 10 -18 11 -565 4 -818 -10 -146 -9 -326 -18 -400 -22 -181 -9
-1668 -11 -1850 -2 -187 8 -564 53 -660 78 -91 24 -133 26 -230 11 -52 -8
-103 -8 -165 -2 -49 5 -389 9 -755 9 -366 -1 -789 2 -940 6 -497 12 -1009 16
-1014 7 -16 -25 32 -31 275 -36 326 -6 668 -14 989 -22 245 -6 358 -7 970 -3
344 2 507 -6 536 -25 17 -11 35 -12 75 -6 29 5 66 5 83 0 23 -7 34 -5 48 8 18
16 23 15 86 -4 37 -12 96 -24 132 -28 36 -3 139 -16 230 -28 157 -21 200 -22
860 -21 901 0 1378 9 1750 33 258 16 660 10 755 -12 39 -9 86 -13 106 -10 20
3 108 0 194 -7 120 -9 222 -9 419 -1 312 14 552 28 661 41 44 5 139 16 210 25
132 15 322 32 475 41 47 2 139 9 205 13 308 22 632 20 765 -6 130 -25 693 -24
870 2 63 9 133 17 155 18 36 2 40 5 40 27 0 29 15 28 -189 10 -76 -7 -283 -13
-460 -14 -273 -1 -336 2 -421 17 -104 20 -253 21 -585 5z"/>
<path d="M20240 18551 c-64 -7 -80 -15 -80 -40 0 -35 22 -42 99 -31 82 11 431
5 566 -10 50 -5 178 -17 285 -25 107 -9 245 -20 305 -25 162 -14 443 -29 665
-36 107 -3 213 -7 235 -10 64 -6 778 -7 1025 0 124 3 297 8 385 10 88 3 228
10 310 15 83 6 195 14 250 16 55 3 154 10 220 15 66 4 143 8 170 8 50 0 87 2
400 21 94 6 235 13 315 16 80 3 186 7 235 10 139 7 990 4 990 -4 0 -1 70 -3
155 -6 236 -8 324 -12 460 -24 68 -6 126 -8 129 -6 2 3 14 -3 25 -14 59 -54
243 -67 498 -37 26 4 59 11 73 16 15 6 30 8 34 6 4 -3 58 2 121 10 107 13 189
21 315 30 129 9 193 15 225 20 19 3 60 7 90 9 62 5 83 11 76 23 -5 8 -63 8
-211 -3 -55 -5 -109 -8 -120 -7 -33 1 -294 -19 -385 -30 -47 -5 -117 -11 -156
-12 -38 -2 -86 -8 -105 -14 -18 -6 -88 -13 -154 -14 l-119 -3 -6 28 c-5 27
-42 57 -89 72 -17 5 -30 0 -52 -20 -27 -27 -30 -28 -86 -17 -32 7 -128 14
-213 16 -85 2 -186 6 -223 9 -38 3 -81 2 -96 -3 -15 -4 -35 -4 -43 1 -9 5
-141 11 -295 13 -153 3 -280 6 -283 6 -10 3 -330 -2 -445 -6 -66 -2 -229 -6
-363 -8 -133 -3 -246 -7 -250 -9 -4 -3 -68 -8 -142 -11 -145 -7 -241 -12 -415
-21 -60 -3 -148 -8 -195 -10 -47 -3 -132 -9 -190 -15 -58 -5 -152 -12 -210
-15 -158 -8 -422 -17 -447 -16 -13 1 -33 1 -45 2 -13 0 -90 -2 -173 -6 -82 -3
-159 -6 -170 -7 -244 -1 -615 4 -770 12 -110 5 -256 12 -324 15 -68 3 -127 8
-131 10 -3 2 -55 5 -115 6 -113 2 -510 33 -555 43 -14 3 -54 8 -90 10 -36 3
-159 14 -275 25 -229 22 -548 33 -635 22z"/>
<path d="M29473 18548 c2 -7 12 -13 22 -13 10 0 20 6 23 13 2 7 -6 12 -23 12
-17 0 -25 -5 -22 -12z"/>
<path d="M31546 18553 c-11 -11 -6 -23 9 -23 8 0 15 4 15 9 0 13 -16 22 -24
14z"/>
<path d="M29038 18535 c-32 -6 -59 -10 -62 -8 -8 9 -87 10 -92 2 -3 -5 -17
-10 -32 -10 -21 -1 -18 -3 13 -9 22 -5 65 -6 95 -3 30 3 75 5 100 4 49 -1 76
10 66 28 -8 13 -13 13 -88 -4z"/>
<path d="M29171 18541 c-8 -5 -9 -11 -3 -15 14 -8 43 4 36 15 -7 11 -15 11
-33 0z"/>
<path d="M31965 18541 c-3 -5 -1 -12 5 -16 5 -3 10 1 10 9 0 18 -6 21 -15 7z"/>
<path d="M32490 18540 c-25 -5 -92 -9 -150 -9 -135 -2 -126 -2 -192 5 -40 5
-58 3 -58 -5 0 -10 32 -16 73 -13 9 1 17 -3 17 -9 0 -6 24 -9 63 -8 34 1 108
-4 165 -10 114 -14 146 -10 162 19 21 39 6 44 -80 30z"/>
<path d="M31820 18530 c0 -5 7 -10 15 -10 8 0 15 5 15 10 0 6 -7 10 -15 10 -8
0 -15 -4 -15 -10z"/>
<path d="M32035 18520 c-3 -5 1 -10 9 -10 9 0 16 5 16 10 0 6 -4 10 -9 10 -6
0 -13 -4 -16 -10z"/>
<path d="M30365 18138 c-35 -13 -173 -85 -194 -102 -8 -6 -24 -15 -37 -21 -38
-17 -205 -165 -223 -198 -9 -17 -30 -46 -47 -66 -17 -20 -44 -67 -60 -106 -23
-58 -28 -85 -28 -155 -1 -100 7 -115 99 -202 47 -46 67 -58 93 -58 42 0 41 11
-5 32 -82 37 -124 107 -131 214 -5 82 23 196 61 247 48 65 144 159 193 192 29
20 56 39 59 44 3 5 42 28 87 51 102 53 225 75 418 74 112 0 163 -12 220 -50
63 -42 75 -74 73 -199 0 -96 -4 -121 -30 -191 -30 -81 -117 -214 -140 -214 -7
0 -16 -6 -20 -13 -10 -16 -86 -67 -99 -67 -6 0 -19 -9 -29 -20 -9 -10 -34 -25
-54 -31 -47 -15 -65 -29 -52 -42 21 -21 152 44 265 133 121 95 187 214 210
374 15 113 13 152 -14 212 -26 58 -70 98 -148 135 -61 29 -77 32 -172 34 -58
1 -116 -2 -129 -7 -15 -5 -28 -5 -35 2 -13 13 -92 12 -131 -2z"/>
<path d="M9730 18070 c-55 -7 -70 -15 -70 -41 0 -56 51 -80 72 -34 11 26 18
27 102 27 87 -1 175 -32 222 -79 92 -91 154 -203 154 -277 -1 -95 -81 -209
-210 -295 -50 -34 -99 -61 -109 -61 -9 0 -26 -6 -36 -14 -27 -20 -181 -11
-238 13 -53 23 -112 87 -145 160 -22 46 -26 71 -27 141 0 75 3 90 26 125 53
80 120 122 181 112 18 -3 42 -7 53 -9 30 -5 32 36 3 56 -58 41 -182 -2 -261
-90 -54 -60 -69 -103 -69 -206 -1 -81 2 -93 33 -155 74 -149 176 -208 354
-207 105 1 156 18 270 89 86 53 160 132 201 213 38 75 45 179 17 243 -19 42
-117 170 -136 178 -5 2 -17 11 -26 20 -25 25 -68 51 -114 68 -48 19 -180 31
-247 23z"/>
<path d="M11071 18045 c-76 -22 -86 -22 -107 -8 -34 22 -75 9 -132 -42 -68
-62 -100 -131 -113 -246 -14 -118 -7 -193 20 -248 77 -151 203 -186 416 -117
190 61 347 190 375 307 16 67 8 145 -23 205 -29 58 -110 136 -162 158 -55 23
-173 19 -274 -9z m274 -40 c86 -54 124 -114 132 -214 13 -156 -58 -245 -265
-335 -162 -70 -301 -70 -374 1 -20 20 -44 57 -53 81 -32 96 -9 302 42 363 14
16 48 41 76 55 43 22 53 24 73 13 13 -7 25 -10 27 -8 2 2 11 16 20 31 20 32
45 37 187 34 83 -2 111 -6 135 -21z"/>
<path d="M5190 18041 c-36 -10 -79 -25 -97 -34 -84 -44 -257 -259 -282 -352
-28 -104 2 -200 90 -279 194 -176 521 -178 749 -4 83 63 117 113 126 185 28
224 -65 360 -278 407 -15 3 -41 21 -57 38 -21 23 -46 36 -83 45 -69 16 -90 15
-168 -6z m230 -87 c100 -30 134 -45 190 -82 77 -52 115 -128 114 -227 -1 -96
-18 -140 -78 -203 -174 -185 -506 -197 -703 -28 -54 47 -85 125 -76 193 10 79
72 193 145 269 38 39 53 42 68 13 16 -29 41 -20 55 21 17 54 62 73 155 66 41
-3 100 -13 130 -22z"/>
<path d="M21175 18026 c-13 -20 -16 -71 -18 -327 -3 -381 15 -529 62 -529 27
0 32 23 16 75 -17 58 -19 309 -5 569 9 165 8 192 -5 213 -20 29 -31 29 -50 -1z"/>
<path d="M23746 17999 c-73 -11 -142 -52 -220 -133 -152 -158 -193 -297 -141
-477 20 -71 42 -107 100 -163 124 -122 295 -113 500 25 74 50 150 130 181 189
21 43 28 73 32 135 3 71 0 89 -27 158 -37 98 -67 137 -139 185 -110 73 -187
95 -286 81z m173 -82 c104 -38 185 -147 210 -282 17 -93 -14 -178 -97 -268
-49 -52 -79 -74 -190 -135 -63 -35 -72 -37 -152 -37 -93 1 -110 7 -171 62 -56
50 -93 169 -87 280 3 67 9 90 46 165 47 96 91 148 128 148 13 0 29 9 36 21 15
24 67 57 106 69 37 10 105 1 171 -23z"/>
<path d="M26720 17973 c-52 -7 -119 -23 -148 -35 -105 -42 -286 -199 -350
-303 -36 -59 -37 -62 -36 -160 0 -78 5 -111 21 -151 57 -137 146 -213 269
-232 103 -16 230 -1 296 35 18 10 42 18 53 19 31 4 129 50 144 68 7 9 24 16
36 16 12 0 28 7 35 15 7 8 19 15 27 15 19 0 159 135 178 172 8 15 22 41 30 56
37 70 40 197 7 277 -44 107 -137 171 -292 201 -108 21 -152 22 -270 7z m280
-58 c66 -10 148 -52 184 -96 38 -45 57 -95 63 -170 11 -130 -58 -247 -218
-367 -31 -23 -60 -42 -65 -42 -5 0 -40 -15 -79 -34 -38 -18 -97 -41 -130 -50
-33 -10 -72 -22 -87 -28 -49 -18 -175 -8 -243 20 -129 53 -201 216 -171 389
18 101 228 311 305 305 14 -1 34 7 45 17 28 27 90 52 151 62 45 7 182 4 245
-6z"/>
<path d="M14658 17958 c-21 -37 -15 -325 11 -500 11 -82 21 -177 21 -212 0
-45 5 -69 16 -80 48 -49 82 29 54 124 -9 30 -23 115 -35 210 -11 81 -15 334
-8 381 5 31 6 66 2 78 -11 28 -45 27 -61 -1z"/>
<path d="M3947 17952 c-31 -13 -175 -183 -204 -241 -26 -51 -28 -63 -27 -170
1 -137 17 -201 70 -272 40 -55 73 -73 151 -82 81 -9 138 12 198 75 112 117
177 200 207 263 28 61 30 73 25 140 -3 40 -13 87 -21 104 -23 44 -123 140
-155 148 -14 3 -39 13 -56 21 -33 16 -159 26 -188 14z m143 -30 c64 -13 158
-95 203 -175 34 -63 16 -176 -43 -263 -52 -76 -171 -194 -217 -215 -57 -26
-132 -25 -167 2 -34 27 -69 97 -90 180 -34 138 19 288 126 355 23 15 40 35 44
52 9 35 32 62 55 62 10 0 21 5 24 11 4 6 14 7 24 3 9 -3 27 -9 41 -12z"/>
<path d="M1660 17919 c-115 -22 -209 -89 -255 -180 -10 -19 -26 -43 -36 -54
-54 -59 -104 -240 -103 -370 0 -77 4 -98 27 -141 31 -61 67 -80 146 -77 71 3
140 38 218 110 34 32 73 66 87 76 38 26 129 153 154 214 36 84 52 163 52 246
0 95 -15 127 -73 162 -35 20 -56 25 -108 24 -35 -1 -84 -5 -109 -10z m188 -55
c59 -39 68 -146 22 -259 -4 -11 -17 -44 -28 -72 -32 -80 -86 -155 -168 -232
-89 -83 -161 -127 -225 -136 -42 -6 -50 -4 -78 22 -47 42 -61 129 -38 246 9
47 26 107 37 133 27 62 100 171 143 212 30 29 37 32 62 22 39 -15 53 -7 57 32
3 28 8 34 43 45 48 15 141 8 173 -13z"/>
<path d="M30402 17247 c-12 -6 -22 -14 -22 -18 0 -12 73 -5 77 8 5 15 -28 22
-55 10z"/>
<path d="M30306 17243 c-4 -5 -17 -9 -29 -11 -98 -12 -131 -12 -182 -3 -63 12
-88 3 -66 -22 12 -15 88 -20 96 -7 3 5 21 3 40 -3 27 -8 41 -7 59 2 13 8 29
10 34 7 6 -4 29 -4 51 0 36 6 39 8 28 25 -13 21 -20 23 -31 12z"/>
<path d="M5373 16948 c-13 -17 -22 -490 -14 -721 5 -162 8 -180 26 -193 16
-12 21 -12 33 0 12 11 12 38 4 157 -10 157 -9 513 3 651 6 65 5 91 -5 103 -15
18 -34 19 -47 3z"/>
<path d="M14724 16809 c-4 -6 -11 -95 -15 -198 -5 -102 -13 -266 -19 -363 -5
-97 -8 -183 -6 -190 2 -7 10 -53 16 -103 14 -99 30 -135 61 -135 29 0 34 24
19 109 -7 42 -16 101 -20 131 -9 60 5 466 20 623 11 106 4 137 -30 137 -10 0
-22 -5 -26 -11z"/>
<path d="M1710 16777 c-113 -55 -192 -136 -237 -243 -29 -67 -44 -194 -33
-270 22 -152 45 -218 87 -256 29 -26 88 -48 130 -48 73 0 111 18 267 122 51
35 266 242 266 257 0 13 53 105 62 109 4 2 8 11 8 21 0 9 5 22 11 28 21 21 24
155 5 191 -28 55 -85 77 -196 77 -85 0 -102 -3 -162 -32 -37 -17 -69 -29 -72
-25 -3 3 -6 18 -6 33 0 31 -32 59 -65 58 -11 0 -40 -10 -65 -22z m88 -83 c14
-39 14 -42 -7 -71 -26 -34 -25 -76 1 -81 11 -2 26 13 46 47 30 54 91 109 129
116 12 3 33 7 46 10 13 2 46 7 74 11 103 12 157 -46 158 -170 0 -55 -4 -66
-37 -113 -21 -29 -38 -57 -38 -63 0 -5 -12 -22 -27 -38 -16 -16 -39 -44 -53
-62 -40 -51 -35 -47 -130 -115 -19 -13 -46 -30 -60 -37 -14 -7 -41 -24 -60
-39 -38 -29 -145 -69 -186 -69 -70 0 -127 73 -150 193 -34 178 3 327 109 438
40 41 130 91 156 87 8 -2 21 -21 29 -44z"/>
<path d="M9714 16786 c-3 -9 -4 -26 0 -39 4 -19 -3 -30 -42 -59 -103 -79 -233
-234 -298 -355 -87 -162 -83 -405 9 -524 53 -70 76 -82 167 -87 88 -5 206 17
250 47 14 10 45 28 70 40 49 25 164 114 220 171 66 66 155 206 186 291 53 147
23 318 -71 396 -33 29 -145 83 -171 83 -9 0 -29 9 -45 21 -22 16 -42 20 -86
18 -32 -1 -86 1 -120 6 -53 6 -64 5 -69 -9z m281 -80 c17 -9 36 -16 43 -16 22
0 106 -47 129 -72 12 -12 34 -50 49 -83 46 -100 37 -202 -32 -338 -29 -56
-163 -237 -176 -237 -4 0 -25 -15 -45 -33 -173 -153 -426 -199 -519 -95 -43
47 -72 214 -57 328 25 192 207 425 418 534 77 40 130 43 190 12z"/>
<path d="M23648 16778 c-26 -21 -29 -73 -13 -272 23 -300 35 -606 25 -656 -5
-25 -9 -48 -10 -52 0 -3 -12 -20 -26 -37 -30 -36 -26 -61 11 -61 73 0 90 49
81 240 -3 74 -8 223 -11 330 -3 107 -8 241 -11 297 -4 67 -2 114 6 138 22 66
-8 108 -52 73z"/>
<path d="M4007 16739 c-9 -6 -36 -47 -58 -92 -23 -44 -62 -115 -86 -156 -67
-110 -118 -227 -133 -303 -15 -82 -6 -180 21 -225 28 -46 91 -99 135 -114 54
-19 178 -16 239 6 112 39 233 145 300 260 50 86 64 138 65 241 1 218 -106 349
-285 349 -38 0 -80 -4 -92 -8 -18 -7 -25 -3 -38 22 -16 32 -37 38 -68 20z
m216 -74 c21 -3 55 -15 75 -27 72 -39 103 -97 126 -233 12 -73 12 -85 -7 -150
-27 -95 -65 -159 -139 -232 -84 -83 -176 -127 -268 -127 -83 -1 -112 7 -154
45 -37 32 -76 119 -76 169 0 58 43 186 94 285 64 122 103 185 115 185 5 0 33
20 61 44 29 25 62 47 74 49 21 4 30 3 99 -8z"/>
<path d="M29772 16723 c-26 -5 -45 -35 -36 -57 4 -10 -16 -37 -58 -78 -79 -78
-116 -126 -156 -204 -56 -111 -102 -275 -102 -367 0 -44 35 -131 74 -182 13
-16 25 -35 27 -41 6 -16 116 -104 131 -104 6 0 19 -6 27 -13 71 -60 299 -54
492 14 30 10 63 19 73 19 10 0 36 15 59 33 23 18 59 40 80 50 20 9 37 22 37
29 0 8 10 18 22 23 26 12 68 69 104 145 24 49 26 62 21 135 -9 118 -45 202
-115 269 -41 38 -58 30 -29 -13 114 -175 123 -203 105 -306 -13 -76 -43 -140
-80 -173 -15 -14 -28 -31 -28 -37 0 -6 -12 -17 -27 -24 -16 -8 -37 -18 -48
-24 -101 -54 -149 -76 -200 -91 -33 -10 -75 -22 -93 -28 -52 -15 -288 -23
-296 -9 -4 6 -18 11 -31 11 -66 0 -165 83 -211 176 -25 51 -29 73 -32 166 -4
115 4 155 59 276 43 94 101 173 171 234 100 87 130 100 212 97 39 -1 81 1 93
5 23 7 57 -6 156 -61 26 -14 51 -22 55 -18 4 4 2 10 -5 12 -6 2 -27 17 -45 33
-18 16 -46 35 -63 41 -16 6 -48 19 -70 29 -78 35 -191 49 -273 33z"/>
<path d="M26637 16708 c-14 -9 -89 -33 -130 -42 -19 -5 -33 -17 -41 -37 -7
-17 -58 -70 -112 -118 -143 -126 -237 -261 -276 -396 -18 -63 -15 -174 7 -231
46 -120 196 -168 391 -124 114 25 284 88 291 108 9 23 -7 27 -38 9 -17 -9 -43
-17 -58 -17 -14 0 -35 -6 -46 -14 -58 -40 -286 -71 -357 -47 -88 29 -136 91
-145 186 -7 76 5 129 53 233 93 198 265 346 514 441 31 12 64 21 74 21 10 0
51 -18 91 -40 81 -45 105 -49 105 -21 0 21 -25 51 -42 51 -5 0 -17 9 -26 21
-15 18 -29 20 -131 22 -62 1 -118 -1 -124 -5z"/>
<path d="M21075 16630 c-18 -19 -17 -20 1 -20 11 0 25 -5 31 -11 18 -18 43 -2
43 26 0 21 -5 25 -28 25 -16 0 -37 -9 -47 -20z"/>
<path d="M11002 16604 c-73 -16 -223 -79 -251 -106 -24 -22 -45 -92 -37 -123
3 -12 15 -26 26 -31 20 -9 20 -9 -3 -44 -76 -115 -97 -232 -56 -313 52 -101
103 -139 236 -175 74 -20 202 -21 276 -1 116 30 178 63 257 139 108 103 135
162 134 283 -1 76 -5 95 -33 152 -58 118 -205 207 -359 220 -48 3 -96 8 -107
10 -11 1 -48 -3 -83 -11z m251 -49 c78 -23 168 -76 198 -118 59 -82 88 -228
60 -299 -5 -13 -12 -35 -15 -50 -6 -27 -119 -148 -139 -148 -6 0 -18 -6 -26
-13 -9 -8 -47 -26 -86 -42 -100 -40 -240 -46 -342 -16 -61 18 -78 29 -117 72
-53 59 -70 105 -63 168 14 117 109 262 181 275 19 4 37 14 40 23 8 20 -11 43
-35 43 -25 0 -90 -38 -107 -61 -21 -30 -32 -22 -32 22 0 33 6 47 33 73 80 81
296 115 450 71z"/>
<path d="M27130 16614 c0 -6 64 -148 80 -176 12 -22 13 -131 1 -143 -4 -6 -16
-32 -26 -58 -10 -26 -31 -59 -47 -72 -15 -13 -28 -28 -28 -32 0 -5 -15 -20
-32 -33 -18 -13 -41 -34 -51 -46 -9 -12 -36 -32 -60 -43 -53 -26 -104 -67 -95
-76 8 -8 74 20 83 35 3 6 14 10 24 10 9 0 34 16 55 35 21 19 42 35 47 35 5 0
15 13 24 29 8 16 23 32 34 36 10 3 22 17 25 30 4 14 12 25 20 25 16 0 63 69
80 118 10 29 10 54 1 112 -11 79 -40 135 -89 177 -14 13 -26 27 -26 33 0 5 -4
10 -10 10 -5 0 -10 -3 -10 -6z"/>
<path d="M20975 16578 c-93 -66 -104 -78 -111 -116 -4 -20 -18 -55 -32 -76
-74 -119 -107 -230 -107 -367 0 -104 0 -106 43 -193 50 -100 76 -121 161 -132
108 -15 145 -8 239 42 50 26 114 71 148 103 82 77 224 235 224 249 0 26 -28 9
-63 -37 -149 -194 -337 -317 -483 -313 -65 2 -101 15 -142 55 -67 65 -91 183
-67 332 18 115 82 259 123 278 15 7 26 25 34 55 6 24 26 64 45 89 19 25 33 48
31 52 -2 5 -21 -5 -43 -21z"/>
<path d="M30262 16539 c2 -13 12 -28 23 -34 11 -5 32 -22 47 -37 28 -29 48
-36 48 -17 0 13 -74 85 -103 100 -16 9 -18 7 -15 -12z"/>
<path d="M21615 16440 c-3 -10 1 -32 9 -49 9 -17 12 -32 7 -36 -5 -3 -15 -31
-22 -63 -7 -31 -18 -64 -24 -72 -7 -8 -15 -25 -19 -37 -3 -13 -9 -33 -12 -45
-7 -23 -6 -23 14 -4 12 10 24 34 28 52 3 18 15 40 25 50 10 9 19 27 19 39 0
12 3 25 7 29 19 19 4 156 -17 156 -5 0 -11 -9 -15 -20z"/>
<path d="M26799 15911 c-22 -18 -23 -20 -6 -27 23 -9 56 21 41 36 -8 8 -18 5
-35 -9z"/>
<path d="M14899 15564 c-16 -19 -18 -393 -5 -716 9 -205 15 -228 52 -214 16 6
16 25 8 224 -13 303 -11 514 5 603 10 58 11 81 2 97 -14 26 -43 28 -62 6z"/>
<path d="M4144 15536 c-17 -13 -19 -27 -18 -173 0 -145 3 -172 36 -318 20 -88
39 -187 41 -220 3 -33 8 -68 12 -78 11 -27 37 -16 47 18 9 33 5 55 -42 260
-39 171 -49 340 -27 424 23 83 0 123 -49 87z"/>
<path d="M1969 15470 c-103 -12 -173 -53 -228 -135 -22 -33 -48 -78 -57 -100
-9 -22 -20 -42 -25 -45 -4 -3 -35 -43 -68 -89 -75 -104 -94 -157 -94 -275 0
-76 4 -100 25 -146 26 -59 73 -106 115 -116 67 -17 282 41 306 82 4 8 14 14
22 14 8 0 29 14 47 30 18 17 56 44 83 59 45 26 145 121 145 138 0 4 9 16 19
27 11 12 31 43 45 70 14 27 30 54 34 60 30 39 55 166 33 166 -17 0 -29 -26
-39 -80 -6 -30 -15 -56 -21 -58 -6 -2 -11 -8 -11 -14 0 -26 -80 -139 -142
-200 -37 -38 -70 -68 -72 -68 -3 0 -31 -18 -64 -39 -134 -89 -240 -131 -331
-131 -45 0 -57 4 -80 29 -14 15 -34 53 -44 83 -44 141 2 286 137 426 54 57 93
82 124 82 11 0 22 6 25 14 7 17 -11 36 -34 36 -24 0 -49 10 -49 20 0 4 19 27
43 51 36 37 54 46 108 58 271 58 415 5 443 -163 7 -40 14 -43 26 -12 41 109
-61 208 -225 221 -22 2 -58 5 -80 8 -22 3 -74 1 -116 -3z"/>
<path d="M5399 15471 c-135 -27 -300 -239 -344 -444 -27 -123 -4 -214 73 -292
116 -118 285 -98 415 49 66 73 97 112 97 120 0 3 17 33 38 68 37 63 37 63 37
173 -1 105 -2 113 -37 188 -37 77 -37 77 -110 112 -72 35 -100 39 -169 26z
m137 -59 c55 -40 94 -95 110 -155 16 -60 19 -183 4 -192 -5 -3 -10 -16 -10
-28 0 -25 -60 -117 -125 -194 -133 -154 -276 -168 -367 -35 -27 39 -33 58 -36
112 -10 183 101 386 252 462 34 17 63 34 66 38 3 5 16 10 30 13 14 2 28 5 31
6 3 0 24 -12 45 -27z"/>
<path d="M9837 15439 c-21 -13 -22 -58 -1 -66 10 -4 24 4 38 22 19 23 28 27
59 23 40 -4 52 9 15 16 -58 12 -95 13 -111 5z"/>
<path d="M26776 15421 c-17 -28 -6 -204 25 -376 27 -153 33 -178 63 -280 39
-129 56 -232 46 -283 -4 -24 -5 -53 -3 -63 8 -29 45 -20 61 14 16 34 1 132
-48 312 -62 225 -84 358 -84 515 -1 80 -5 151 -9 158 -9 14 -43 16 -51 3z"/>
<path d="M10000 15405 c7 -8 22 -15 34 -15 20 1 20 2 -4 15 -33 19 -46 19 -30
0z"/>
<path d="M11144 15346 c-78 -15 -110 -37 -119 -78 -4 -18 -22 -49 -40 -68 -18
-19 -53 -71 -79 -115 -43 -75 -46 -84 -46 -152 0 -95 30 -155 103 -211 76 -57
107 -71 187 -82 167 -24 362 56 448 184 52 78 44 158 -33 314 -42 85 -96 148
-149 172 -111 52 -159 58 -272 36z m232 -54 c85 -62 172 -223 189 -350 6 -47
4 -57 -19 -93 -35 -52 -132 -114 -219 -141 -215 -65 -421 60 -404 245 9 98
117 257 213 313 39 23 46 24 83 13 47 -14 71 -7 71 21 0 29 39 26 86 -8z"/>
<path d="M20753 15325 c-51 -13 -106 -33 -122 -44 -51 -36 -140 -142 -168
-198 -23 -48 -25 -62 -20 -128 16 -212 234 -419 469 -447 367 -43 703 116 732
347 12 94 -35 216 -111 287 -40 37 -136 70 -198 67 -27 -1 -61 1 -74 6 -25 8
-101 -12 -101 -26 0 -4 37 -7 83 -6 156 3 241 -42 298 -158 26 -54 32 -77 33
-139 1 -69 -1 -77 -34 -122 -58 -82 -132 -135 -250 -180 -71 -27 -83 -28 -235
-29 -144 0 -166 2 -225 24 -151 55 -220 113 -281 235 -76 153 -62 251 52 367
70 71 109 89 197 89 75 0 98 13 85 46 -6 19 -23 35 -33 33 -3 -1 -47 -12 -97
-24z"/>
<path d="M9733 15300 c-152 -73 -313 -339 -313 -518 0 -60 28 -129 67 -167 15
-15 57 -41 91 -57 61 -30 68 -31 160 -25 253 15 551 160 652 316 41 65 57 165
37 231 -16 53 -81 143 -134 185 -65 51 -133 80 -133 55 0 -5 4 -10 9 -10 16 0
105 -79 143 -127 28 -36 42 -67 54 -120 15 -70 15 -74 -5 -136 -27 -79 -53
-115 -128 -175 -102 -82 -337 -166 -473 -171 -181 -5 -273 59 -287 201 -5 54
-1 76 25 151 36 102 125 242 186 292 49 39 138 85 166 85 11 0 20 4 20 9 0 19
-82 8 -137 -19z"/>
<path d="M9910 15320 c0 -6 8 -13 18 -17 9 -3 36 -24 59 -45 51 -46 93 -52 93
-14 0 19 -10 29 -42 44 -95 44 -128 52 -128 32z"/>
<path d="M23660 15281 c-88 -31 -197 -100 -256 -162 -55 -60 -128 -155 -153
-203 -76 -145 -33 -358 92 -457 79 -63 128 -81 233 -87 115 -6 166 6 318 75
200 90 309 178 349 281 10 26 26 63 35 82 22 45 21 170 -1 221 -22 50 -84 103
-153 129 -53 20 -78 23 -249 24 -177 1 -190 0 -190 -17 0 -16 14 -18 175 -21
171 -2 176 -3 241 -33 90 -42 131 -105 131 -207 0 -97 -59 -218 -135 -279
-201 -161 -449 -239 -603 -192 -80 25 -181 124 -207 204 -29 92 -19 189 31
287 31 60 147 180 222 229 94 61 157 81 216 66 35 -9 49 -9 60 0 18 15 18 33
0 48 -17 15 -124 23 -156 12z"/>
<path d="M30062 15268 c-7 -7 -41 -13 -75 -14 -145 -6 -368 -121 -473 -244
-64 -76 -94 -134 -134 -266 -19 -64 -9 -179 21 -244 25 -53 153 -200 174 -200
6 0 23 -10 38 -22 90 -73 426 -109 616 -67 64 14 194 66 236 94 20 14 40 25
45 25 6 0 27 16 49 35 21 19 43 35 49 35 6 0 17 10 23 23 7 12 25 38 41 58 76
95 61 224 -40 359 -37 49 -149 157 -195 188 -20 13 -54 40 -74 59 -64 61 -166
138 -219 166 -58 31 -65 32 -82 15z m144 -93 c30 -12 49 -27 137 -110 24 -22
76 -69 116 -105 94 -83 178 -190 191 -243 6 -23 16 -56 21 -73 18 -60 -55
-197 -133 -246 -111 -71 -256 -130 -358 -146 -86 -13 -358 -6 -386 10 -5 3
-25 9 -44 13 -19 4 -73 26 -119 48 -141 71 -204 173 -202 332 1 103 33 201 93
283 92 126 268 231 423 251 71 9 224 1 261 -14z"/>
<path d="M21056 15181 c-35 -10 -65 -26 -73 -38 -13 -19 -12 -23 9 -42 30 -28
62 -24 66 9 5 31 28 58 53 62 20 3 28 21 12 24 -4 1 -35 -5 -67 -15z"/>
<path d="M11380 14390 c-47 -10 -83 -19 -80 -19 3 -1 59 -3 125 -4 151 -3 183
-18 246 -116 36 -56 43 -75 47 -131 5 -77 -11 -117 -84 -207 -83 -102 -254
-225 -337 -243 -23 -5 -71 -16 -106 -25 -70 -18 -153 -11 -221 18 -85 37 -170
148 -170 224 0 111 129 306 240 363 47 24 66 25 74 5 8 -21 70 -49 91 -41 15
5 14 9 -4 35 -29 40 -26 53 16 76 90 49 28 61 -87 16 -119 -46 -161 -71 -225
-136 -139 -139 -199 -318 -142 -422 99 -187 333 -245 566 -141 145 64 179 87
291 188 85 77 160 214 160 292 0 54 -58 168 -113 219 -36 33 -94 55 -172 64
-16 2 -68 -5 -115 -15z"/>
<path d="M14882 14329 c-24 -10 -63 -33 -87 -50 -30 -21 -59 -33 -92 -36 -96
-9 -122 -33 -101 -94 9 -27 7 -33 -35 -78 -54 -57 -109 -134 -142 -194 -36
-68 -75 -184 -75 -223 0 -117 150 -215 329 -215 115 0 253 27 336 66 39 18 78
35 88 38 36 13 184 117 224 159 23 24 58 73 78 110 32 59 36 76 37 140 1 56
-4 86 -22 128 -29 68 -52 94 -104 120 -23 10 -48 28 -57 38 -29 34 -120 56
-204 49 -74 -5 -75 -5 -75 18 0 22 -26 46 -47 44 -4 0 -27 -9 -51 -20z m293
-90 c96 -22 134 -53 182 -149 23 -46 28 -68 28 -135 0 -67 -5 -89 -28 -136
-36 -74 -161 -191 -241 -224 -19 -8 -37 -19 -41 -25 -3 -5 -32 -17 -63 -25
-31 -9 -66 -20 -77 -25 -47 -20 -147 -33 -235 -31 -116 3 -192 32 -246 94 -29
35 -34 48 -34 93 0 66 21 131 68 209 57 95 141 202 163 208 11 3 23 15 26 26
3 11 16 27 30 36 19 13 23 22 19 41 -4 13 -5 24 -4 25 2 0 50 9 108 19 113 20
252 19 345 -1z m-495 -43 c0 -3 -4 -8 -10 -11 -5 -3 -10 -1 -10 4 0 6 5 11 10
11 6 0 10 -2 10 -4z"/>
<path d="M9728 14302 c-63 -8 -161 -127 -224 -274 -59 -138 -84 -233 -84 -326
0 -115 35 -178 125 -224 35 -18 51 -20 135 -15 52 3 114 13 137 21 123 45 273
168 403 332 135 169 142 247 33 358 -81 82 -183 104 -330 70 -96 -22 -147 -40
-151 -54 -3 -8 2 -10 14 -6 59 18 215 37 273 33 120 -8 184 -52 211 -144 11
-37 11 -49 -5 -90 -39 -106 -208 -300 -331 -383 -89 -59 -159 -81 -257 -83
-89 -2 -123 15 -169 81 -31 44 -33 51 -31 127 1 67 8 99 46 201 60 162 107
244 107 184 0 -21 27 -40 48 -33 6 3 12 18 12 34 0 24 8 34 37 51 20 12 31 24
24 26 -7 2 -18 -1 -24 -7 -6 -6 -27 -11 -46 -11 l-36 1 44 40 c29 26 57 41 82
45 41 7 48 15 27 31 -19 15 -40 19 -70 15z"/>
<path d="M5385 14287 c-31 -24 -55 -190 -56 -399 -1 -97 2 -181 5 -187 7 -11
19 -83 39 -244 12 -94 25 -122 51 -114 29 9 30 39 2 179 -51 251 -50 499 0
657 20 61 24 88 17 100 -14 22 -34 24 -58 8z"/>
<path d="M4202 14263 c-23 -44 -31 -636 -11 -748 17 -96 28 -133 45 -150 43
-43 53 14 24 143 -17 79 -20 128 -20 349 -1 235 1 264 20 326 12 38 19 75 16
83 -8 20 -63 18 -74 -3z"/>
<path d="M21080 14220 c-56 -8 -153 -42 -179 -63 -7 -7 -41 -26 -74 -43 -34
-17 -70 -43 -81 -58 -20 -26 -20 -28 -3 -58 l18 -32 -70 -65 c-175 -164 -245
-333 -178 -432 59 -88 224 -122 387 -80 46 12 95 28 109 36 14 7 35 17 46 21
42 16 -25 16 -73 1 -77 -25 -193 -37 -255 -27 -176 28 -218 118 -136 287 37
75 109 158 175 203 38 25 51 29 88 24 38 -6 44 -4 48 14 4 15 15 21 39 24 39
4 51 31 20 47 -15 8 -35 6 -81 -8 -53 -17 -62 -17 -75 -4 -19 18 -19 28 1 59
34 50 132 91 288 119 75 14 84 14 150 -6 112 -34 215 -129 250 -233 14 -42 15
-57 5 -105 -7 -31 -23 -68 -35 -84 -13 -15 -21 -34 -18 -41 3 -9 -3 -17 -15
-21 -21 -6 -29 -25 -11 -25 19 0 71 64 97 119 47 98 27 183 -69 293 -99 115
-213 157 -368 138z"/>
<path d="M1860 14135 c-60 -16 -128 -52 -165 -85 -16 -16 -39 -31 -51 -34 -26
-8 -68 -66 -128 -177 -43 -81 -47 -94 -56 -189 -5 -62 -5 -112 1 -127 5 -13 9
-37 9 -52 0 -42 43 -159 81 -219 23 -38 46 -60 79 -77 109 -55 194 -42 296 43
60 50 96 90 199 219 14 17 39 64 55 104 54 131 65 282 30 412 -38 143 -88 186
-227 191 -43 2 -98 -2 -123 -9z m290 -131 c23 -45 25 -59 24 -179 -1 -195 -39
-312 -138 -428 -53 -62 -176 -160 -232 -183 -48 -20 -111 -17 -150 6 -75 47
-143 220 -144 364 0 141 65 309 122 318 14 2 29 18 42 43 17 33 28 41 56 45
30 4 35 9 38 35 2 17 8 36 14 43 14 16 108 43 178 51 52 6 58 5 110 -30 39
-26 62 -51 80 -85z"/>
<path d="M27028 14078 c-51 -13 -48 -30 3 -22 44 7 138 -9 181 -32 14 -8 32
-14 40 -14 15 0 89 -75 107 -108 17 -31 24 -124 13 -164 -14 -50 -91 -145
-121 -150 -25 -3 -50 -32 -39 -44 9 -9 84 36 129 78 20 18 49 55 64 81 25 43
27 56 23 116 -4 57 -10 74 -41 116 -57 80 -135 125 -243 140 -27 4 -56 8 -64
10 -8 1 -32 -2 -52 -7z"/>
<path d="M23835 14059 c-50 -7 -131 -34 -149 -51 -6 -4 -19 -8 -31 -8 -12 0
-26 -5 -33 -12 -7 -7 -42 -28 -80 -48 -50 -26 -68 -41 -70 -59 -9 -64 33 -101
116 -101 63 0 74 14 25 30 -56 18 -83 38 -83 62 0 24 55 78 79 78 9 0 30 8 46
18 51 31 237 65 312 57 141 -15 225 -81 269 -212 23 -67 21 -122 -6 -176 -13
-26 -20 -50 -17 -54 13 -12 77 61 88 100 28 103 -61 276 -174 341 -64 36 -179
50 -292 35z"/>
<path d="M26565 14036 c-79 -14 -173 -59 -227 -108 -20 -18 -53 -61 -73 -95
-29 -51 -36 -74 -37 -120 -3 -109 49 -216 144 -296 70 -58 185 -90 298 -82 87
7 214 38 225 55 3 6 15 10 26 10 10 0 19 4 19 9 0 10 -87 2 -110 -10 -9 -4
-54 -13 -100 -19 -148 -20 -254 8 -337 90 -76 76 -107 140 -107 221 0 61 3 71
47 141 66 106 169 168 278 168 50 0 109 -22 109 -40 0 -6 14 -10 30 -10 20 0
33 -6 37 -17 16 -47 76 -73 89 -39 8 20 -12 53 -36 61 -28 9 -25 32 8 49 18
10 21 15 10 16 -9 0 -29 -7 -45 -17 -29 -16 -31 -15 -93 15 -35 18 -68 32 -74
31 -6 -1 -42 -7 -81 -13z"/>
<path d="M26915 14040 c-3 -5 -1 -10 4 -10 6 0 11 5 11 10 0 6 -2 10 -4 10 -3
0 -8 -4 -11 -10z"/>
<path d="M23313 14001 c-76 -30 -163 -135 -163 -196 0 -72 158 -243 297 -322
43 -24 208 -61 273 -61 64 0 90 6 90 19 0 5 -20 9 -45 9 -100 0 -232 37 -325
90 -48 27 -165 146 -195 197 -33 55 -32 91 4 140 48 66 87 85 173 81 69 -3 73
-2 76 19 3 17 -3 26 -23 33 -38 15 -114 10 -162 -9z"/>
<path d="M26675 13910 c-3 -5 -1 -10 4 -10 6 0 11 5 11 10 0 6 -2 10 -4 10 -3
0 -8 -4 -11 -10z"/>
<path d="M26610 13860 c-45 -48 -89 -120 -96 -156 -15 -81 22 -115 133 -122
104 -7 97 26 -9 43 -21 3 -50 16 -64 29 -25 21 -26 24 -14 61 15 47 65 126 85
138 17 9 20 37 4 37 -6 0 -24 -14 -39 -30z"/>
<path d="M29539 13863 c-17 -7 -38 -13 -46 -13 -21 0 -124 -68 -156 -103 -15
-17 -39 -53 -53 -80 -58 -116 -38 -194 67 -261 34 -22 70 -40 82 -40 30 -1 32
22 3 34 -33 12 -82 56 -106 96 -24 38 -25 73 -5 142 12 40 26 60 70 97 66 57
133 83 228 91 62 6 79 3 120 -16 29 -14 54 -34 63 -51 19 -38 64 -41 64 -5 0
34 -33 71 -86 96 -55 27 -195 34 -245 13z"/>
<path d="M23660 13790 c0 -5 7 -10 15 -10 8 0 15 5 15 10 0 6 -7 10 -15 10 -8
0 -15 -4 -15 -10z"/>
<path d="M29885 13649 c-22 -4 -64 -8 -92 -8 -41 -1 -53 -5 -53 -16 0 -24 23
-28 92 -15 133 24 287 1 375 -56 28 -19 56 -34 62 -34 11 0 46 -70 52 -104 5
-27 22 -30 49 -8 42 34 21 67 -84 129 -11 7 -25 18 -31 25 -16 20 -68 54 -95
63 -14 4 -30 12 -37 17 -15 12 -185 17 -238 7z"/>
<path d="M27154 13531 c-45 -27 -53 -43 -17 -35 33 8 57 27 52 43 -3 7 -16 4
-35 -8z"/>
<path d="M24070 13520 c0 -5 5 -10 11 -10 5 0 7 5 4 10 -3 6 -8 10 -11 10 -2
0 -4 -4 -4 -10z"/>
<path d="M21135 13490 c3 -5 8 -10 11 -10 2 0 4 5 4 10 0 6 -5 10 -11 10 -5 0
-7 -4 -4 -10z"/>
<path d="M23965 13471 c-3 -5 -1 -12 4 -15 12 -8 41 3 41 15 0 12 -37 12 -45
0z"/>
<path d="M27008 13458 c-43 -18 -63 -38 -39 -38 17 0 99 38 105 49 11 17 -14
13 -66 -11z"/>
<path d="M23900 13450 c0 -5 7 -10 15 -10 8 0 15 5 15 10 0 6 -7 10 -15 10 -8
0 -15 -4 -15 -10z"/>
<path d="M23825 13440 c-3 -5 1 -10 9 -10 9 0 16 5 16 10 0 6 -4 10 -9 10 -6
0 -13 -4 -16 -10z"/>
<path d="M30290 13389 c0 -5 5 -7 10 -4 6 3 10 8 10 11 0 2 -4 4 -10 4 -5 0
-10 -5 -10 -11z"/>
<path d="M29480 13361 c0 -9 24 -21 42 -21 6 0 6 6 -2 15 -14 16 -40 20 -40 6z"/>
<path d="M30090 13350 c-13 -9 -13 -10 0 -9 8 0 24 4 35 9 l20 9 -20 0 c-11 0
-27 -4 -35 -9z"/>
<path d="M30015 13330 c-3 -5 3 -10 14 -10 12 0 21 5 21 10 0 6 -6 10 -14 10
-8 0 -18 -4 -21 -10z"/>
<path d="M29650 13320 c0 -5 5 -10 11 -10 5 0 7 5 4 10 -3 6 -8 10 -11 10 -2
0 -4 -4 -4 -10z"/>
<path d="M10275 12813 c-35 -9 -84 -52 -112 -100 -20 -35 -27 -61 -29 -112 -1
-36 -7 -82 -13 -101 -16 -52 -13 -99 8 -128 10 -15 21 -47 25 -72 14 -92 47
-172 92 -221 37 -39 44 -52 44 -87 0 -31 5 -44 21 -52 27 -15 52 5 46 37 -4
24 -3 24 48 18 83 -11 160 10 210 56 154 142 233 425 170 607 -23 65 -43 91
-99 123 -60 34 -119 38 -210 14 -51 -14 -61 -14 -75 -1 -18 16 -94 27 -126 19z
m344 -54 c98 -21 139 -111 128 -284 -6 -91 -16 -138 -43 -187 -8 -14 -14 -32
-14 -40 0 -7 -20 -40 -45 -73 -51 -68 -142 -125 -201 -125 -51 0 -102 25 -109
52 -12 54 -25 254 -25 394 0 100 -4 154 -12 162 -8 8 -8 15 2 27 19 23 48 19
52 -7 2 -15 11 -24 25 -26 19 -3 23 3 29 38 7 46 25 60 89 71 61 10 70 10 124
-2z m-274 -8 c3 -5 -5 -11 -17 -13 -15 -2 -24 -11 -26 -26 -2 -12 -13 -29 -25
-37 -21 -13 -22 -21 -20 -147 1 -73 4 -189 7 -258 6 -114 5 -123 -9 -105 -26
33 -55 145 -65 249 -6 55 -12 107 -15 116 -3 10 10 36 30 63 33 43 34 47 14
44 -31 -3 -33 14 -7 54 34 49 116 87 133 60z"/>
<path d="M14676 12752 c-3 -5 -30 -14 -61 -21 -47 -11 -59 -18 -79 -49 -13
-20 -45 -57 -71 -82 -94 -91 -146 -211 -165 -378 -13 -116 -4 -187 37 -282 29
-69 38 -83 84 -124 83 -75 214 -101 359 -72 93 19 125 34 238 107 94 61 171
149 209 238 25 61 28 76 28 196 -1 128 -1 131 -37 206 -21 45 -53 94 -78 118
-45 44 -169 111 -204 111 -12 0 -54 9 -94 20 -74 21 -157 26 -166 12z m139
-82 c19 -37 32 -38 45 -5 5 14 12 25 15 25 16 0 128 -42 153 -58 107 -67 136
-108 162 -232 39 -186 -4 -328 -135 -447 -151 -139 -359 -192 -518 -133 -187
70 -247 378 -120 621 24 46 61 93 125 155 50 49 98 92 107 96 9 4 46 7 83 7
65 1 68 0 83 -29z"/>
<path d="M11243 12685 c-3 -10 -3 -76 1 -149 8 -172 38 -322 92 -466 7 -19 16
-46 20 -60 9 -35 23 -50 47 -50 17 0 19 5 14 36 -3 20 -13 44 -20 53 -44 49
-89 297 -91 496 l-1 150 -28 3 c-18 2 -29 -2 -34 -13z"/>
<path d="M21320 12661 c-14 -5 -50 -14 -80 -21 -30 -7 -79 -24 -107 -37 -31
-14 -61 -22 -72 -18 -24 7 -96 -14 -164 -48 -55 -27 -173 -139 -217 -206 -64
-96 -101 -233 -101 -369 0 -123 14 -174 61 -222 96 -100 291 -107 492 -17 65
29 278 165 278 178 0 4 29 37 65 72 36 35 65 72 65 81 0 9 4 16 9 16 15 0 23
33 11 44 -8 8 -15 5 -25 -9 -8 -11 -24 -35 -37 -54 -45 -65 -203 -202 -251
-217 -12 -4 -38 -19 -59 -34 -20 -15 -77 -40 -125 -56 -123 -39 -255 -41 -328
-4 -39 21 -55 37 -77 79 -24 46 -28 65 -28 135 0 138 53 307 125 402 28 36 89
95 139 135 37 29 55 11 21 -21 -30 -28 -33 -70 -5 -95 36 -33 64 0 39 46 -8
16 -7 26 5 45 19 29 112 84 142 84 12 0 49 -25 83 -55 60 -53 84 -65 95 -46
11 18 -7 41 -60 76 -58 39 -64 49 -36 64 97 51 283 70 345 33 42 -24 107 -119
107 -156 0 -16 5 -46 12 -68 10 -34 9 -44 -6 -73 -21 -38 -18 -78 6 -83 25 -5
42 61 40 156 -3 135 -58 222 -161 253 -49 14 -170 21 -201 10z"/>
<path d="M5219 12571 c-54 -11 -106 -38 -184 -97 -157 -119 -262 -280 -273
-417 -5 -65 -3 -72 39 -154 51 -99 106 -154 201 -200 116 -58 297 -79 410 -49
190 50 366 167 495 329 72 89 88 143 68 221 -21 80 -47 126 -98 173 -56 52
-121 81 -222 99 -44 8 -108 28 -142 45 -116 56 -195 69 -294 50z m194 -56 c21
-9 35 -19 33 -24 -3 -5 -28 -11 -56 -15 -68 -9 -80 -15 -80 -37 0 -22 29 -25
61 -8 12 6 50 13 86 16 62 4 67 3 88 -22 16 -21 31 -28 61 -29 33 -1 39 2 42
22 4 28 23 28 76 0 125 -68 188 -157 189 -267 1 -59 -3 -71 -32 -114 -42 -60
-156 -177 -174 -177 -8 0 -22 -9 -33 -21 -29 -32 -130 -84 -224 -115 -145 -47
-278 -34 -440 44 -65 32 -130 93 -162 154 -32 61 -33 194 -2 253 12 22 32 60
45 85 54 103 241 253 339 272 51 9 140 1 183 -17z"/>
<path d="M23251 12535 c-113 -54 -200 -160 -231 -280 -23 -89 -25 -131 -9
-207 37 -186 110 -308 220 -363 103 -53 257 -70 402 -46 73 13 263 78 299 103
14 10 31 18 36 18 6 0 61 34 124 75 141 93 189 151 208 248 6 36 9 80 5 98
-17 76 -68 153 -128 192 -63 41 -257 98 -257 77 0 -9 74 -40 96 -40 52 0 181
-108 222 -186 29 -55 8 -178 -42 -247 -44 -61 -244 -183 -386 -236 -230 -86
-439 -85 -576 2 -121 76 -196 271 -173 447 14 101 40 153 118 230 91 90 135
103 264 76 79 -17 97 -13 97 19 0 28 -13 32 -140 40 -88 6 -99 4 -149 -20z"/>
<path d="M23708 12460 c-83 -10 -66 -21 28 -19 51 1 97 -1 103 -5 12 -8 56 12
47 21 -8 8 -119 10 -178 3z"/>
<path d="M3942 12435 c-46 -20 -194 -156 -231 -212 -51 -77 -70 -234 -42 -348
29 -117 122 -240 218 -286 108 -52 235 -59 328 -18 127 56 269 196 300 296 26
83 17 182 -22 231 -49 62 -106 82 -247 89 -137 6 -239 -10 -308 -49 -55 -31
-68 -52 -45 -75 16 -16 19 -15 49 14 46 43 91 61 175 72 95 12 190 6 241 -15
104 -41 137 -156 82 -282 -25 -56 -152 -181 -214 -210 -147 -70 -284 -46 -403
71 -91 89 -136 225 -114 348 11 63 57 165 91 201 11 12 20 25 20 30 0 10 112
85 147 99 37 14 71 4 85 -25 18 -42 68 -42 68 0 0 17 -13 33 -42 54 -46 33
-84 37 -136 15z"/>
<path d="M23495 12442 c-21 -5 -30 -13 -30 -27 0 -17 8 -20 62 -23 55 -3 62
-1 68 18 4 12 5 23 3 25 -8 8 -76 13 -103 7z"/>
<path d="M1846 12334 c-18 -18 -18 -25 15 -179 10 -49 19 -107 19 -130 0 -22
5 -56 11 -75 9 -31 12 -156 6 -278 -2 -51 5 -67 27 -59 14 5 15 28 11 178 -3
95 -9 209 -15 253 -6 45 -12 125 -13 180 -2 88 -4 100 -23 113 -19 12 -24 12
-38 -3z"/>
<path d="M29863 12294 c-17 -12 -16 -13 7 -13 14 0 34 4 45 8 17 7 17 8 -8 13
-15 3 -35 -1 -44 -8z"/>
<path d="M30000 12300 c0 -17 53 -23 90 -10 9 3 -44 18 -67 19 -13 1 -23 -3
-23 -9z"/>
<path d="M30122 12289 c4 -13 42 -24 109 -33 14 -1 30 -5 35 -8 22 -13 115
-39 125 -36 22 7 -47 42 -121 61 -110 28 -153 32 -148 16z"/>
<path d="M29755 12279 c-4 -6 -4 -13 -1 -16 8 -8 36 5 36 17 0 13 -27 13 -35
-1z"/>
<path d="M29631 12251 c-46 -17 -63 -37 -39 -46 12 -5 108 40 108 50 0 11 -32
9 -69 -4z"/>
<path d="M29944 12246 c-39 -8 -86 -20 -105 -28 -19 -9 -54 -24 -79 -34 -50
-20 -89 -46 -129 -85 -14 -14 -35 -31 -47 -37 -30 -16 -127 -138 -156 -197
-37 -73 -72 -227 -64 -278 11 -70 47 -160 80 -195 37 -40 191 -116 266 -131
114 -23 168 -29 256 -26 119 4 272 24 306 41 15 8 37 14 48 14 33 0 120 41
120 57 0 10 -5 11 -17 5 -10 -6 -52 -15 -93 -22 -41 -6 -100 -19 -130 -27 -41
-12 -104 -16 -240 -17 -163 0 -195 2 -269 22 -150 41 -201 76 -253 175 -33 60
-32 204 2 297 13 36 28 72 35 80 6 8 17 28 25 44 23 45 192 212 223 220 15 3
63 23 105 43 70 34 84 37 159 37 58 -1 95 -6 123 -19 44 -20 68 -11 56 20 -15
40 -121 59 -222 41z"/>
<path d="M26448 12226 c-66 -12 -194 -69 -233 -104 -79 -71 -136 -192 -150
-321 -5 -53 -2 -75 20 -140 15 -42 33 -89 40 -106 38 -83 142 -160 255 -186
130 -30 403 -3 528 52 24 11 62 27 85 36 23 9 71 35 107 57 35 23 74 46 85 51
11 6 24 20 30 32 5 12 20 24 32 28 13 3 23 9 23 14 0 4 16 25 35 45 55 59 77
119 77 207 0 65 -4 82 -26 115 -14 22 -42 52 -61 67 -41 32 -170 77 -222 77
-54 0 -28 -18 36 -26 66 -7 129 -47 185 -117 29 -36 31 -44 31 -120 0 -65 -5
-92 -22 -128 -13 -25 -23 -50 -23 -56 0 -6 -16 -24 -36 -39 -20 -16 -44 -36
-53 -44 -9 -8 -27 -21 -41 -28 -14 -7 -38 -21 -55 -32 -138 -92 -372 -158
-575 -162 -102 -3 -107 -2 -181 33 -91 44 -136 86 -172 163 -56 117 -60 238
-14 353 35 86 80 136 162 180 132 69 243 75 329 16 52 -36 61 -39 71 -22 14
21 -5 56 -42 76 -29 16 -153 49 -157 42 -1 -1 -31 -7 -68 -13z"/>
<path d="M30450 12185 c0 -8 16 -21 35 -29 19 -8 54 -30 77 -48 55 -44 168
-159 168 -171 0 -6 6 -18 14 -26 40 -44 73 -200 46 -216 -5 -3 -10 -17 -10
-30 0 -13 -12 -39 -27 -57 -42 -50 -56 -78 -40 -78 38 0 112 119 118 190 6 73
-29 195 -67 231 -13 12 -24 27 -25 33 0 10 -25 35 -130 126 -25 22 -54 40 -63
40 -9 0 -16 4 -16 10 0 10 -52 40 -70 40 -5 0 -10 -7 -10 -15z"/>
<path d="M26914 12151 c-12 -12 -1 -22 23 -19 35 4 42 26 8 24 -15 0 -29 -3
-31 -5z"/>
<path d="M26480 12012 c-19 -9 -35 -23 -35 -31 0 -22 58 -33 107 -20 24 6 57
13 75 16 18 3 37 11 43 18 17 21 -5 28 -46 15 -29 -10 -39 -9 -59 4 -31 20
-42 20 -85 -2z"/>
<path d="M30656 11501 c-10 -11 -42 -35 -72 -53 -29 -18 -52 -37 -51 -42 7
-22 29 -15 69 22 24 21 53 44 66 51 12 6 22 18 22 26 0 21 -14 19 -34 -4z"/>
<path d="M11515 11471 c-51 -13 -100 -44 -161 -100 -48 -44 -58 -58 -56 -82 2
-30 -16 -62 -78 -135 -19 -23 -52 -75 -72 -116 -108 -217 -118 -389 -28 -521
98 -146 276 -169 428 -56 29 22 64 59 79 82 15 23 34 51 43 62 16 19 65 140
88 215 35 112 43 287 22 440 -15 103 -42 160 -90 187 -42 25 -128 36 -175 24z
m145 -67 c45 -38 60 -74 71 -172 14 -116 13 -180 -6 -293 -31 -199 -69 -284
-170 -384 -86 -86 -144 -111 -237 -102 -76 7 -121 40 -162 121 -23 44 -30 74
-34 134 -6 106 15 180 95 332 80 155 130 215 200 246 54 24 66 46 36 62 -44
25 41 81 124 82 41 0 58 -5 83 -26z"/>
<path d="M10404 11402 c-6 -4 -14 -51 -18 -105 -4 -54 -12 -124 -17 -155 -15
-83 -11 -327 7 -488 8 -76 19 -183 22 -236 4 -53 12 -102 19 -109 16 -16 63
-3 63 19 0 9 -4 33 -10 52 -5 19 -17 77 -27 130 -24 133 -24 574 0 743 9 65
17 120 17 122 0 6 -31 35 -38 35 -4 0 -12 -4 -18 -8z"/>
<path d="M5427 11329 c-15 -9 -17 -19 -13 -47 4 -21 9 -89 12 -152 7 -170 11
-201 27 -256 26 -86 36 -167 30 -234 -4 -54 -2 -68 12 -80 51 -42 59 92 19
300 -24 123 -26 149 -21 296 6 165 3 184 -32 184 -9 0 -24 -5 -34 -11z"/>
<path d="M4053 11180 c-105 -42 -244 -204 -288 -333 -29 -87 -31 -135 -11
-241 45 -232 127 -333 300 -368 146 -29 309 45 474 216 87 90 113 134 147 245
19 65 21 86 14 136 -18 117 -71 206 -153 254 -34 21 -54 25 -123 25 -76 1 -87
-2 -159 -39 -86 -44 -174 -122 -174 -155 0 -39 31 -25 84 38 20 24 53 55 73
69 47 32 173 59 226 49 48 -9 109 -63 137 -122 29 -59 41 -192 22 -242 -7 -20
-16 -46 -19 -57 -10 -35 -70 -118 -120 -167 -71 -69 -84 -80 -138 -119 -91
-65 -120 -74 -230 -74 -92 0 -104 2 -148 28 -119 70 -189 249 -166 427 13 109
51 188 126 267 82 85 139 116 211 114 60 -1 77 10 61 41 -8 14 -22 18 -67 17
-31 0 -67 -4 -79 -9z"/>
<path d="M23850 11170 c0 -7 7 -10 16 -6 20 8 124 -29 147 -53 19 -18 19 -19
-9 -32 -22 -11 -30 -22 -32 -46 -5 -47 29 -76 104 -92 95 -20 103 -11 27 34
-47 28 -69 47 -71 63 -3 16 2 22 17 22 11 0 22 -4 26 -9 3 -6 24 -9 46 -9 34
0 45 -5 70 -33 108 -123 106 -304 -4 -446 -24 -30 -51 -53 -66 -57 -33 -7 -78
-42 -68 -53 11 -10 108 42 159 86 80 68 124 175 115 280 -9 105 -33 156 -100
212 -32 27 -75 53 -96 59 -21 5 -46 19 -56 30 -29 32 -73 48 -152 55 -54 5
-73 4 -73 -5z"/>
<path d="M23740 11151 c-69 -28 -142 -69 -173 -99 -15 -14 -38 -31 -51 -37
-35 -15 -152 -168 -195 -254 -51 -102 -78 -228 -61 -290 10 -39 71 -91 142
-123 59 -27 193 -42 263 -30 135 24 165 31 185 42 12 6 28 9 35 6 7 -2 21 1
31 9 10 7 23 11 30 8 11 -4 89 56 82 63 -3 3 -83 -25 -133 -46 -16 -7 -41 -14
-55 -15 -14 -2 -59 -8 -100 -15 -178 -29 -400 29 -429 112 -12 33 2 139 26
198 42 104 126 227 198 291 17 15 42 38 57 52 14 13 74 48 132 76 58 29 106
56 106 61 0 15 -40 11 -90 -9z"/>
<path d="M14761 11128 c-13 -4 -32 -6 -42 -3 -9 3 -20 1 -24 -5 -3 -5 -15 -10
-27 -10 -11 0 -32 -6 -46 -14 -15 -7 -63 -31 -106 -52 -147 -70 -260 -212
-302 -375 -24 -92 -15 -216 19 -291 35 -75 79 -109 169 -133 263 -71 546 66
711 343 60 100 78 149 84 233 10 119 -37 201 -133 239 -33 12 -79 33 -104 45
-50 25 -161 38 -199 23z m30 -51 c-22 -22 -10 -25 69 -20 78 6 82 5 110 -22
21 -21 35 -26 53 -21 61 15 117 -79 117 -195 0 -64 -6 -85 -38 -155 -55 -122
-182 -253 -309 -322 -55 -30 -184 -62 -247 -62 -164 1 -266 75 -287 211 -25
164 90 415 235 507 106 67 219 105 284 93 17 -2 20 -7 13 -14z"/>
<path d="M14598 10969 c-11 -6 -18 -22 -18 -39 0 -23 5 -31 24 -36 14 -3 30
-3 35 1 14 8 14 42 0 50 -6 4 -8 13 -5 21 6 16 -11 18 -36 3z"/>
<path d="M21062 11089 c-75 -13 -249 -98 -231 -113 2 -2 42 15 89 38 79 38 91
41 170 41 68 0 95 -5 132 -22 57 -28 64 -28 78 -4 7 15 6 23 -5 35 -25 25
-151 38 -233 25z"/>
<path d="M21530 11013 c-67 -20 -88 -50 -59 -87 15 -19 30 -26 55 -26 39 0 45
17 14 45 -43 39 17 48 87 14 41 -20 73 -56 112 -127 7 -14 18 -61 24 -105 20
-157 -25 -317 -118 -415 -64 -69 -220 -142 -390 -184 -225 -55 -420 -61 -537
-16 -69 26 -150 93 -177 147 -39 76 -47 186 -20 284 13 47 55 133 96 193 15
23 40 59 54 80 15 22 47 55 72 74 45 34 63 57 52 68 -19 20 -200 -147 -242
-223 -54 -95 -83 -164 -93 -214 -41 -219 54 -385 265 -462 50 -18 82 -22 190
-23 73 0 154 5 185 13 30 7 92 21 138 32 45 11 99 27 120 35 20 9 51 22 67 29
17 6 55 23 85 37 30 14 72 34 93 43 49 23 141 125 178 196 55 110 59 319 8
422 -34 67 -85 123 -131 145 -45 21 -103 32 -128 25z"/>
<path d="M26736 10911 c-4 -6 -15 -11 -24 -11 -26 0 -173 -88 -208 -125 -18
-18 -39 -37 -47 -41 -34 -19 -123 -163 -156 -250 -22 -59 -22 -63 -6 -118 38
-129 154 -218 350 -268 92 -23 244 -27 340 -9 33 7 86 16 119 21 32 5 66 16
75 24 9 8 42 23 73 33 31 11 63 24 70 30 7 6 29 18 48 26 56 24 143 110 189
186 56 92 72 175 48 249 -9 28 -17 56 -17 62 0 22 -64 90 -109 117 -86 51
-120 63 -171 63 -76 0 -135 -38 -160 -104 -9 -24 -7 -36 10 -71 32 -66 82 -92
196 -101 87 -8 87 10 1 30 -91 22 -144 57 -153 101 -14 74 57 117 159 96 30
-7 61 -19 67 -27 7 -7 18 -14 24 -14 27 -1 75 -58 93 -110 49 -140 -14 -297
-177 -442 -20 -18 -180 -98 -195 -98 -7 0 -48 -12 -91 -26 -76 -25 -85 -26
-243 -20 -90 3 -169 10 -175 15 -6 4 -24 11 -40 15 -86 21 -202 99 -248 168
-52 76 -50 128 9 245 68 136 267 298 406 330 l58 14 40 -33 41 -33 -6 -78 c-4
-63 -3 -79 9 -84 29 -10 43 17 50 93 8 82 0 101 -58 130 -36 19 -182 31 -191
15z"/>
<path d="M1830 10785 c-7 -8 -9 -22 -5 -32 4 -10 9 -164 10 -343 2 -285 4
-326 18 -334 11 -7 20 -7 26 -1 9 10 14 168 12 400 -1 61 3 153 8 204 11 103
6 121 -34 121 -12 0 -28 -7 -35 -15z"/>
<path d="M29757 10768 c-17 -10 11 -17 58 -14 55 4 57 5 50 15 -6 11 -91 10
-108 -1z"/>
<path d="M29690 10750 c0 -5 5 -10 10 -10 6 0 10 5 10 10 0 6 -4 10 -10 10 -5
0 -10 -4 -10 -10z"/>
<path d="M29930 10750 c0 -5 11 -10 24 -10 14 0 28 -4 31 -10 3 -5 14 -10 23
-10 25 0 90 -49 112 -85 25 -41 25 -60 0 -95 -26 -37 -30 -73 -8 -78 19 -4 77
80 78 111 0 32 -50 105 -88 128 -39 23 -136 59 -159 59 -7 0 -13 -4 -13 -10z"/>
<path d="M29515 10719 c-27 -11 -77 -29 -110 -40 -142 -48 -292 -141 -377
-233 -61 -65 -67 -97 -37 -181 19 -54 35 -77 90 -130 37 -36 76 -65 86 -65 11
0 28 -9 38 -20 10 -11 25 -20 34 -20 9 0 31 -9 49 -20 79 -48 303 -70 381 -37
112 47 172 196 122 306 -17 39 -74 101 -93 101 -14 0 -9 -18 10 -37 99 -96 47
-282 -96 -338 -66 -27 -205 -10 -303 37 -41 20 -84 39 -96 42 -13 4 -54 38
-92 76 -70 69 -91 109 -91 173 0 66 84 159 195 218 39 20 90 48 115 62 25 14
90 42 144 61 104 37 153 67 106 65 -14 0 -47 -10 -75 -20z"/>
<path d="M27770 10630 c0 -5 5 -10 10 -10 6 0 10 5 10 10 0 6 -4 10 -10 10 -5
0 -10 -4 -10 -10z"/>
<path d="M29430 10455 c0 -16 12 -18 48 -8 18 4 20 8 10 14 -22 14 -58 10 -58
-6z"/>
<path d="M29578 10443 c7 -3 16 -2 19 1 4 3 -2 6 -13 5 -11 0 -14 -3 -6 -6z"/>
<path d="M14851 10007 c-6 -8 -16 -52 -22 -98 -5 -46 -19 -122 -29 -169 -37
-163 -47 -280 -54 -658 -2 -124 -8 -198 -15 -205 -14 -14 -14 -72 -1 -98 13
-23 52 -25 70 -4 7 8 10 27 7 42 -6 30 8 552 18 669 6 73 17 143 40 264 32
167 39 231 29 247 -14 23 -29 26 -43 10z"/>
<path d="M23639 10009 c-8 -5 -33 -9 -56 -9 -56 0 -205 -37 -268 -65 -27 -13
-60 -26 -72 -30 -13 -3 -23 -13 -23 -21 0 -19 6 -18 81 12 114 46 323 94 407
94 70 0 184 -20 234 -41 76 -31 168 -98 168 -121 0 -8 6 -20 13 -27 16 -16 15
-232 -2 -321 -17 -86 -52 -154 -147 -280 -103 -136 -216 -234 -339 -295 -86
-43 -103 -48 -183 -52 -86 -5 -87 -5 -127 27 -51 40 -70 70 -96 149 -19 58
-21 72 -11 150 13 115 22 144 72 242 77 154 248 352 339 392 55 25 142 25 237
1 65 -16 84 -13 84 11 0 17 -15 22 -122 35 -164 22 -262 -21 -408 -178 -90
-97 -135 -162 -189 -271 -52 -106 -66 -166 -66 -291 0 -107 2 -119 29 -173 37
-72 101 -132 157 -147 72 -20 174 -8 260 29 63 27 193 113 234 155 87 89 170
187 210 247 66 99 70 106 100 201 43 140 32 344 -21 401 -13 15 -24 32 -24 40
0 38 -123 112 -224 133 -74 15 -225 17 -247 3z"/>
<path d="M5504 9836 c-44 -20 -77 -67 -117 -171 -63 -161 -80 -251 -81 -420
-1 -135 1 -155 22 -199 12 -27 22 -54 22 -60 0 -30 72 -156 111 -194 51 -52
136 -97 199 -106 59 -8 150 8 207 36 93 47 233 217 275 336 32 93 21 332 -21
433 -5 13 -17 50 -26 81 -8 31 -27 71 -41 88 -46 54 -77 65 -194 65 -113 0
-229 -27 -353 -82 -47 -21 -57 -30 -55 -47 5 -32 34 -30 77 4 47 38 178 71
308 77 100 5 149 -15 190 -79 28 -46 34 -65 63 -208 50 -241 13 -377 -145
-536 -85 -86 -138 -109 -245 -108 -94 1 -119 10 -186 68 -64 55 -126 187 -148
318 -11 60 -8 232 4 300 29 162 107 319 173 349 33 15 40 34 21 54 -18 18 -20
18 -60 1z"/>
<path d="M21123 9829 c-81 -14 -143 -57 -187 -133 -21 -35 -45 -67 -53 -71 -9
-3 -32 0 -50 6 -39 13 -60 1 -49 -26 5 -14 13 -16 44 -9 20 4 57 10 81 13 38
5 46 10 52 35 24 87 107 143 219 145 69 2 86 10 77 35 -7 18 -48 19 -134 5z"/>
<path d="M11596 9759 c-84 -20 -185 -78 -242 -138 -92 -97 -126 -158 -105
-190 15 -24 38 -5 72 59 32 60 102 137 157 171 52 33 183 70 225 63 131 -19
227 -95 297 -235 84 -164 62 -289 -73 -422 -69 -68 -143 -121 -229 -164 -42
-21 -67 -26 -128 -27 -92 -1 -118 13 -151 81 -21 42 -24 62 -24 173 0 137 13
196 67 305 37 75 70 110 129 140 26 13 49 30 51 37 8 20 -2 38 -19 38 -26 0
-121 -59 -141 -88 -36 -50 -87 -157 -106 -217 -10 -33 -22 -73 -27 -89 -14
-47 -10 -199 7 -267 33 -130 96 -178 214 -165 68 8 103 18 175 51 120 56 273
197 326 302 31 61 34 75 34 154 0 83 -2 90 -45 175 -55 108 -136 194 -218 232
-63 29 -177 39 -246 21z"/>
<path d="M10525 9721 c-16 -4 -40 -13 -51 -19 -29 -16 -104 -101 -104 -119 0
-8 -19 -35 -43 -61 -127 -139 -181 -228 -217 -357 -39 -141 -13 -335 52 -390
44 -37 100 -48 218 -43 90 4 119 10 203 42 121 45 160 65 265 134 98 65 166
136 207 218 26 51 30 70 30 139 0 123 -37 207 -135 306 -51 51 -98 87 -147
112 -62 33 -82 38 -160 42 -48 2 -101 1 -118 -4z m295 -96 c133 -87 196 -183
215 -330 15 -118 -76 -258 -234 -360 -38 -25 -82 -50 -98 -55 -15 -6 -44 -22
-63 -35 -47 -32 -196 -67 -295 -68 -65 -1 -88 3 -122 21 -53 28 -71 61 -85
161 -10 68 -9 89 6 152 23 96 55 186 72 200 8 6 14 16 14 21 0 29 120 155 153
160 13 2 24 18 34 47 23 68 41 92 67 85 12 -3 43 4 70 15 60 26 81 26 113 1
35 -27 43 -25 43 11 0 27 3 30 23 23 12 -3 51 -26 87 -49z"/>
<path d="M26605 9724 c-104 -21 -137 -30 -187 -51 -41 -18 -58 -31 -58 -44 0
-25 34 -25 81 0 59 32 170 60 257 65 167 11 345 -56 451 -169 66 -72 124 -184
142 -273 13 -68 7 -235 -9 -255 -5 -7 -12 -25 -16 -41 -14 -58 -147 -226 -179
-226 -5 0 -26 -13 -46 -29 -20 -15 -67 -40 -104 -55 -292 -116 -589 2 -589
234 0 91 36 209 92 301 94 154 205 283 256 295 16 4 34 10 39 14 6 5 29 14 53
21 42 12 69 40 57 59 -11 19 -39 13 -125 -23 -36 -15 -140 -96 -174 -135 -41
-47 -96 -120 -96 -127 0 -4 -8 -19 -19 -33 -31 -46 -99 -176 -115 -222 -21
-59 -32 -166 -19 -182 6 -7 13 -30 16 -51 15 -97 89 -177 203 -218 79 -29 269
-31 359 -5 190 56 349 182 420 333 40 84 60 204 52 302 -5 66 -47 191 -74 222
-7 8 -13 19 -13 22 0 18 -73 105 -110 132 -23 17 -48 36 -55 43 -27 25 -135
72 -197 87 -57 13 -241 19 -293 9z"/>
<path d="M21080 9620 c0 -5 7 -10 15 -10 8 0 15 5 15 10 0 6 -7 10 -15 10 -8
0 -15 -4 -15 -10z"/>
<path d="M21140 9622 c-22 -7 -23 -9 -7 -15 10 -4 36 -7 58 -7 63 0 230 -41
290 -71 160 -80 225 -235 170 -402 -38 -114 -79 -176 -186 -282 -133 -132
-217 -180 -320 -180 -48 0 -82 6 -107 18 -77 39 -156 181 -173 312 -13 103 -6
298 16 413 28 144 28 147 5 147 -28 0 -53 -106 -66 -275 -20 -284 20 -466 127
-583 59 -64 94 -80 188 -85 77 -4 83 -3 160 37 304 154 507 518 405 726 -48
98 -186 207 -294 232 -72 17 -230 25 -266 15z"/>
<path d="M4253 9575 c-18 -12 -22 -30 -29 -117 -5 -57 -7 -110 -6 -118 1 -8 4
-60 7 -115 7 -132 29 -332 37 -340 28 -28 32 75 12 285 -7 71 -3 173 6 190 6
10 10 37 10 59 0 22 5 63 11 91 8 39 8 54 -1 65 -15 19 -20 19 -47 0z"/>
<path d="M29633 9512 c-30 -19 24 -467 62 -512 16 -18 35 -107 35 -160 0 -21
5 -42 10 -45 6 -4 8 -15 5 -26 -7 -20 9 -57 18 -42 3 5 7 36 8 68 3 65 -12
160 -43 268 -17 59 -42 229 -37 253 1 5 1 46 0 91 -1 60 -5 86 -17 97 -17 18
-24 19 -41 8z"/>
<path d="M1987 9269 c-13 -18 -13 -28 3 -84 13 -44 20 -118 25 -247 4 -100 12
-189 17 -195 14 -17 35 -16 41 1 6 16 0 206 -8 242 -2 11 -5 77 -6 147 -1 98
-4 131 -16 142 -20 21 -39 19 -56 -6z"/>
<path d="M29751 8662 c-10 -24 -11 -36 -3 -44 15 -15 25 10 20 49 l-3 28 -14
-33z"/>
<path d="M29739 8567 c-37 -28 -29 -94 8 -71 19 12 30 61 16 75 -4 4 -15 2
-24 -4z"/>
<path d="M8552 8517 c-13 -16 10 -142 26 -142 16 0 16 0 8 77 -8 70 -16 87
-34 65z"/>
<path d="M5842 8481 c-6 -3 -16 -36 -21 -71 -6 -36 -15 -79 -20 -97 -5 -17 -7
-34 -4 -37 3 -2 5 -65 4 -139 -1 -86 4 -161 14 -207 8 -39 13 -76 10 -80 -3
-5 -8 -94 -10 -197 -10 -409 -15 -495 -40 -620 -18 -89 -22 -130 -15 -148 11
-28 22 -31 43 -11 10 10 16 54 21 148 8 147 12 183 19 195 18 29 24 636 9 847
-9 118 -5 159 29 306 18 79 -2 134 -39 111z"/>
<path d="M14770 8401 c-25 -4 -54 -12 -65 -19 -17 -11 -14 -12 25 -7 142 18
215 17 279 -5 43 -14 67 -18 74 -11 7 7 1 14 -19 21 -73 28 -188 36 -294 21z"/>
<path d="M14570 8323 c-67 -50 -102 -96 -98 -128 5 -34 41 -25 54 14 15 47 59
98 104 121 49 25 59 40 27 40 -14 0 -52 -21 -87 -47z"/>
<path d="M15100 8339 c0 -5 15 -16 34 -24 19 -8 37 -19 41 -25 7 -12 35 -14
35 -2 -1 8 -87 62 -101 62 -5 0 -9 -5 -9 -11z"/>
<path d="M8573 8244 c4 -49 9 -118 12 -154 10 -133 15 -174 24 -183 23 -23 27
9 15 125 -7 68 -16 161 -21 207 -5 58 -12 86 -22 89 -12 4 -13 -10 -8 -84z"/>
<path d="M15220 8256 c0 -2 18 -30 39 -62 81 -123 100 -308 44 -438 -36 -84
-64 -121 -145 -193 -172 -151 -380 -237 -603 -250 -86 -5 -113 -3 -171 15 -73
22 -125 64 -139 112 -31 100 27 261 141 394 60 71 163 166 179 166 5 0 16 6
24 14 9 8 45 29 80 46 68 35 127 41 224 25 47 -8 49 -7 45 16 -4 29 -50 48
-120 48 -201 3 -549 -313 -613 -555 -15 -58 -12 -163 7 -201 19 -40 92 -91
156 -110 72 -21 238 -20 342 1 167 35 392 160 494 275 17 19 45 48 63 65 77
75 121 210 110 339 -8 99 -40 173 -115 268 -20 25 -42 38 -42 25z"/>
<path d="M20990 8113 c-8 -2 -29 -11 -47 -19 -17 -8 -36 -14 -42 -14 -20 0
-160 -146 -176 -183 -8 -20 -19 -38 -25 -42 -5 -3 -10 -15 -10 -25 0 -11 -9
-37 -20 -59 -28 -52 -37 -168 -19 -224 7 -23 23 -58 35 -77 31 -50 123 -133
164 -149 19 -7 67 -26 107 -42 39 -16 81 -29 93 -29 12 0 31 -5 43 -12 12 -6
51 -14 87 -18 76 -9 340 8 357 22 6 5 25 11 42 13 60 8 177 47 221 75 103 65
149 103 161 133 6 18 17 46 24 62 36 92 37 127 5 236 -15 53 -129 182 -180
205 -14 6 -45 20 -70 32 -68 31 -190 55 -220 44 l-25 -10 25 -6 c14 -3 52 -10
85 -17 33 -6 65 -14 70 -18 6 -4 28 -13 50 -20 69 -24 172 -97 194 -140 26
-47 51 -138 51 -184 0 -58 -42 -155 -91 -210 -35 -39 -163 -117 -194 -117 -9
0 -44 -11 -78 -25 -79 -31 -142 -39 -297 -39 -242 0 -470 88 -574 222 -50 63
-61 127 -41 228 32 152 118 268 250 336 17 9 59 19 95 22 81 9 122 -10 163
-72 24 -35 34 -43 55 -40 18 2 28 10 30 23 9 46 32 58 110 53 40 -3 75 -2 77
3 9 14 -28 19 -133 17 -91 -1 -105 1 -125 20 -35 33 -92 52 -154 51 -32 0 -65
-3 -73 -6z"/>
<path d="M4275 8081 c-24 -39 -27 -328 -4 -389 5 -13 9 -42 9 -65 0 -23 5 -60
10 -82 5 -21 12 -91 16 -155 4 -63 11 -126 17 -140 22 -55 27 69 10 280 -17
210 -20 384 -8 478 5 36 3 57 -5 67 -14 17 -36 20 -45 6z"/>
<path d="M10615 8010 c-73 -18 -144 -61 -194 -117 -28 -32 -50 -65 -49 -73 2
-9 -14 -36 -34 -60 -40 -50 -85 -149 -96 -213 -4 -23 -7 -78 -6 -122 0 -140
63 -226 194 -266 83 -25 180 -21 290 13 173 54 347 183 406 303 23 48 26 64
22 118 -5 62 -18 97 -61 173 -43 77 -114 143 -137 129 -10 -6 -4 -15 58 -94
75 -97 99 -239 52 -316 -32 -54 -65 -90 -125 -135 -151 -112 -358 -170 -481
-134 -112 32 -155 84 -162 198 -14 228 97 389 313 451 66 20 143 15 199 -11
45 -22 89 -12 84 19 -10 73 -255 83 -375 16 -29 -16 -57 -29 -63 -29 -21 0 -9
29 23 54 17 15 42 35 55 46 12 10 47 24 77 31 30 7 55 16 55 21 0 9 -3 9 -45
-2z"/>
<path d="M11952 7961 c-11 -7 -11 -9 2 -14 20 -8 48 2 40 14 -7 11 -25 11 -42
0z"/>
<path d="M12080 7960 c20 -13 50 -13 50 0 0 6 -15 10 -32 10 -25 0 -29 -3 -18
-10z"/>
<path d="M2081 7951 c-10 -7 -12 -34 -6 -137 13 -255 21 -314 43 -322 15 -5
27 24 15 41 -9 13 -10 90 0 263 7 133 -9 182 -52 155z"/>
<path d="M11861 7942 c-17 -12 -54 -19 -121 -23 -138 -8 -191 -29 -271 -109
-58 -59 -139 -175 -139 -201 0 -5 -9 -28 -20 -52 -26 -57 -51 -212 -49 -305 4
-160 64 -224 209 -225 159 -2 367 75 550 201 256 178 410 369 384 479 -22 94
-37 125 -82 159 -73 56 -95 44 -39 -22 56 -65 72 -148 46 -235 -15 -47 -110
-153 -227 -252 -146 -123 -235 -172 -420 -234 -87 -28 -124 -35 -197 -36 -138
-3 -172 30 -180 171 -4 85 23 235 56 308 11 22 19 45 19 50 0 21 81 133 120
167 49 42 140 87 175 87 32 0 41 -17 20 -40 -20 -22 -16 -54 8 -58 12 -2 22 7
31 30 14 33 42 54 81 60 11 2 21 12 23 24 3 20 23 34 65 48 9 3 17 10 17 16 0
15 -32 11 -59 -8z"/>
<path d="M12202 7921 c4 -13 18 -16 19 -4 0 4 -5 9 -11 12 -7 2 -11 -2 -8 -8z"/>
<path d="M23932 7912 c-40 -19 -51 -55 -27 -82 22 -24 55 -10 55 23 0 50 45
60 110 27 42 -22 60 -25 60 -12 0 10 -128 62 -150 61 -8 0 -30 -8 -48 -17z"/>
<path d="M24140 7847 c0 -17 38 -53 46 -44 7 7 -25 57 -37 57 -5 0 -9 -6 -9
-13z"/>
<path d="M29220 7844 c-103 -17 -301 -101 -338 -143 -60 -69 -73 -96 -76 -168
-3 -74 17 -162 41 -176 7 -4 13 -14 13 -22 0 -25 23 -65 37 -65 18 0 16 9 -19
70 -4 8 -11 22 -14 30 -3 8 -11 26 -18 40 -19 35 -19 114 -1 156 8 20 15 44
15 53 1 18 75 78 130 106 19 9 44 25 55 35 11 10 38 21 60 24 22 3 65 10 95
15 30 5 95 10 145 10 76 1 87 3 75 15 -15 14 -152 28 -200 20z"/>
<path d="M29482 7809 c7 -22 79 -68 118 -75 19 -4 43 -13 52 -21 10 -9 25 -13
35 -9 16 7 15 9 -7 27 -34 26 -77 48 -125 64 -22 7 -48 16 -59 20 -14 6 -18 4
-14 -6z"/>
<path d="M8614 7786 c-3 -9 -2 -40 3 -70 6 -31 6 -59 1 -64 -10 -10 1 -122 13
-122 20 0 28 39 19 96 -5 33 -8 83 -7 113 1 36 -2 55 -10 58 -7 3 -16 -2 -19
-11z"/>
<path d="M24210 7772 c0 -4 5 -13 11 -19 23 -23 68 -114 93 -188 23 -67 21
-172 -4 -213 -11 -18 -20 -40 -20 -48 0 -9 -11 -29 -25 -46 -14 -16 -25 -35
-25 -41 0 -36 -158 -135 -251 -157 -95 -22 -193 -38 -218 -34 -14 2 -55 8 -91
13 -36 5 -112 25 -170 44 -166 54 -323 173 -351 265 -19 64 11 158 69 217 119
121 433 191 597 134 33 -11 69 -29 80 -38 30 -27 93 -53 118 -49 33 5 26 31
-13 50 -186 91 -208 99 -290 103 -52 3 -229 -20 -280 -37 -76 -24 -186 -82
-225 -119 -22 -21 -44 -39 -48 -39 -11 0 -43 -78 -57 -141 -11 -51 -10 -59 10
-104 23 -51 115 -165 133 -165 6 0 18 -6 26 -14 28 -23 117 -66 216 -104 160
-62 379 -70 520 -20 124 43 253 131 285 195 8 15 26 44 38 63 18 27 23 45 19
75 -2 22 -1 65 3 95 4 30 4 59 -1 65 -5 5 -9 19 -9 31 0 39 -58 166 -92 200
-33 33 -48 41 -48 26z"/>
<path d="M26890 7684 c-11 -12 -10 -18 6 -33 36 -35 126 -91 145 -91 24 0 25
27 2 34 -10 3 -31 17 -48 30 -25 20 -27 26 -16 39 7 9 10 21 6 27 -10 16 -81
12 -95 -6z"/>
<path d="M27023 7663 c9 -9 19 -14 23 -11 10 10 -6 28 -24 28 -15 0 -15 -1 1
-17z"/>
<path d="M29746 7672 c-3 -6 1 -15 9 -22 9 -7 27 -39 42 -71 28 -62 43 -74 42
-36 0 12 1 29 3 37 4 18 -88 105 -96 92z"/>
<path d="M26400 7627 c-47 -12 -121 -41 -165 -63 -134 -69 -168 -135 -131
-256 14 -49 61 -118 79 -118 6 0 32 -18 58 -40 26 -22 57 -40 68 -40 11 0 24
-6 28 -13 9 -15 35 -27 77 -34 38 -6 26 13 -22 32 -100 42 -208 141 -244 224
-31 72 -16 116 59 178 106 86 136 95 368 111 125 9 197 2 268 -24 23 -9 53
-18 67 -21 25 -6 25 -6 6 16 -11 11 -29 21 -41 21 -11 0 -25 4 -31 10 -18 18
-108 32 -234 35 -103 3 -140 0 -210 -18z"/>
<path d="M27080 7631 c0 -11 39 -41 53 -41 13 0 -12 29 -35 41 -12 6 -18 6
-18 0z"/>
<path d="M26942 7539 c2 -7 10 -15 17 -17 8 -3 12 1 9 9 -2 7 -10 15 -17 17
-8 3 -12 -1 -9 -9z"/>
<path d="M27192 7528 c2 -6 10 -14 16 -16 7 -2 10 2 6 12 -7 18 -28 22 -22 4z"/>
<path d="M26980 7511 c0 -4 13 -26 28 -47 60 -83 64 -144 15 -215 -36 -53 -51
-65 -78 -71 -12 -2 -20 -11 -20 -23 0 -28 74 -34 97 -8 36 40 71 126 75 187 4
58 2 64 -34 115 -34 48 -83 84 -83 62z"/>
<path d="M8638 7465 c-3 -14 -1 -28 3 -31 5 -3 9 9 9 25 0 38 -6 40 -12 6z"/>
<path d="M2110 7463 c0 -22 17 -49 25 -41 8 8 -5 58 -16 58 -5 0 -9 -8 -9 -17z"/>
<path d="M29816 7439 c-3 -22 -22 -64 -42 -94 -38 -57 -38 -75 1 -75 30 0 35
8 46 78 6 31 12 71 15 88 3 18 2 34 -4 38 -5 3 -12 -12 -16 -35z"/>
<path d="M27260 7421 c0 -11 6 -24 13 -28 19 -12 45 -82 51 -138 6 -64 -18
-151 -53 -188 -32 -35 -96 -74 -136 -82 -16 -4 -66 -8 -110 -10 -44 -3 -81 -8
-83 -13 -6 -20 152 -24 243 -7 64 13 155 81 155 116 0 10 4 20 10 24 13 8 11
173 -3 210 -6 17 -18 41 -28 55 -9 14 -19 36 -20 50 -5 31 -39 41 -39 11z"/>
<path d="M8640 7365 c0 -8 5 -15 10 -15 6 0 10 7 10 15 0 8 -4 15 -10 15 -5 0
-10 -7 -10 -15z"/>
<path d="M2130 7338 c0 -13 7 -41 15 -63 14 -40 14 -40 15 -9 0 44 -11 94 -21
94 -5 0 -9 -10 -9 -22z"/>
<path d="M30030 7336 c0 -9 5 -16 10 -16 6 0 10 4 10 9 0 6 -4 13 -10 16 -5 3
-10 -1 -10 -9z"/>
<path d="M8644 7268 c6 -62 7 -66 16 -38 14 43 11 80 -5 80 -11 0 -14 -10 -11
-42z"/>
<path d="M30055 7213 c8 -56 13 -66 26 -57 9 5 6 38 -7 87 -3 9 -10 17 -16 17
-7 0 -8 -17 -3 -47z"/>
<path d="M28956 7191 c-6 -10 18 -33 54 -51 14 -7 31 -21 38 -32 14 -19 52
-25 52 -8 0 6 -4 10 -9 10 -4 0 -28 17 -52 38 -48 42 -75 56 -83 43z"/>
<path d="M8640 7178 c0 -22 17 -41 29 -34 17 11 13 24 -9 36 -15 8 -20 8 -20
-2z"/>
<path d="M4321 7146 c-9 -11 -9 -20 -2 -34 6 -11 8 -22 5 -25 -3 -2 -8 -27
-10 -53 -3 -27 -12 -61 -21 -77 -19 -38 -14 -71 14 -75 47 -7 66 81 48 221 -8
59 -14 67 -34 43z"/>
<path d="M30060 7126 c0 -9 7 -16 16 -16 17 0 14 22 -4 28 -7 2 -12 -3 -12
-12z"/>
<path d="M8647 7108 c-8 -29 13 -56 25 -33 10 17 2 55 -12 55 -4 0 -10 -10
-13 -22z"/>
<path d="M29140 7060 c0 -5 5 -10 10 -10 6 0 10 5 10 10 0 6 -4 10 -10 10 -5
0 -10 -4 -10 -10z"/>
<path d="M30053 7054 c-19 -51 -100 -144 -125 -144 -8 0 -18 -4 -23 -9 -36
-32 -285 -38 -345 -7 -48 24 -62 20 -41 -12 12 -19 209 -56 235 -44 12 5 36 7
53 5 51 -8 95 5 132 37 18 17 39 30 46 30 21 0 53 44 70 98 10 29 15 55 12 59
-4 3 -10 -3 -14 -13z"/>
<path d="M26474 7049 c-9 -15 6 -29 31 -29 13 0 27 -4 30 -10 3 -5 19 -10 35
-10 16 0 41 -5 56 -10 39 -15 144 -28 150 -19 7 12 -30 29 -62 29 -15 0 -41 4
-58 9 -17 5 -51 15 -76 21 -25 6 -57 15 -72 20 -16 5 -30 4 -34 -1z"/>
<path d="M29182 7028 c5 -15 37 -18 41 -3 1 6 -9 12 -22 13 -16 3 -22 -1 -19
-10z"/>
<path d="M8657 7023 c-11 -10 -8 -51 3 -58 6 -4 10 8 10 29 0 37 -2 41 -13 29z"/>
<path d="M29260 7002 c0 -15 24 -32 45 -32 19 1 19 1 -4 20 -24 21 -41 26 -41
12z"/>
<path d="M26825 6970 c-4 -6 3 -10 14 -10 25 0 27 6 6 13 -8 4 -17 2 -20 -3z"/>
<path d="M29339 6953 c10 -19 68 -39 80 -28 10 10 -24 35 -58 41 -31 7 -33 6
-22 -13z"/>
<path d="M2147 6954 c-4 -4 -7 -27 -7 -51 0 -32 4 -43 15 -43 10 0 15 11 17
35 0 19 1 40 2 47 1 13 -17 21 -27 12z"/>
<path d="M8645 6930 c-6 -9 11 -50 20 -50 3 0 5 14 5 30 0 29 -13 40 -25 20z"/>
<path d="M29470 6906 c0 -9 5 -16 10 -16 6 0 10 4 10 9 0 6 -4 13 -10 16 -5 3
-10 -1 -10 -9z"/>
<path d="M8656 6811 c-4 -7 -5 -15 -2 -18 9 -9 19 4 14 18 -4 11 -6 11 -12 0z"/>
<path d="M8638 6738 c-7 -19 5 -59 17 -59 14 1 13 63 -1 68 -6 2 -14 -2 -16
-9z"/>
<path d="M8646 6621 c-4 -7 -5 -15 -2 -18 9 -9 19 4 14 18 -4 11 -6 11 -12 0z"/>
<path d="M8641 6558 c-1 -15 -6 -30 -11 -33 -12 -7 -10 -165 1 -165 18 0 33
146 21 190 -9 32 -10 33 -11 8z"/>
<path d="M8618 6320 c-3 -8 -9 -40 -12 -70 -4 -30 -7 -62 -9 -70 -1 -8 3 -16
8 -17 6 -2 10 5 11 15 0 9 4 29 8 43 9 30 3 121 -6 99z"/>
<path d="M8592 6073 c-1 -17 -6 -35 -12 -38 -12 -8 -13 -65 -1 -84 13 -20 23
40 18 104 -2 30 -4 37 -5 18z"/>
<path d="M8561 5908 c0 -9 -4 -25 -7 -35 -5 -14 -4 -15 5 -7 7 7 11 22 8 35
-2 13 -5 16 -6 7z"/>
<path d="M8546 5824 c-9 -23 -7 -54 3 -54 17 0 33 29 26 50 -8 24 -21 26 -29
4z"/>
<path d="M8539 5748 c-5 -16 -10 -52 -14 -92 -3 -28 -8 -58 -11 -69 -5 -14 -2
-18 12 -15 16 3 19 14 20 76 1 41 5 76 8 79 9 10 7 23 -4 23 -5 0 -10 -1 -11
-2z"/>
<path d="M18881 741 c-17 -11 -297 -16 -671 -12 -263 3 -297 2 -309 -13 -11
-13 -11 -19 -1 -31 10 -12 86 -15 478 -19 257 -2 485 -6 506 -8 35 -3 42 1 55
25 15 27 15 29 -8 48 -26 21 -30 22 -50 10z"/>
<path d="M16688 644 c-2 -1 -32 -4 -68 -7 -69 -6 -124 -22 -116 -35 2 -4 44
-6 93 -5 48 2 126 4 172 5 53 2 86 7 88 15 2 6 -4 14 -15 17 -19 6 -150 15
-154 10z"/>
<path d="M17117 636 c-27 -21 -9 -26 100 -31 113 -5 162 2 170 22 9 22 -5 28
-32 13 -21 -11 -37 -12 -84 -2 -75 16 -132 15 -154 -2z"/>
<path d="M15895 620 c-4 -6 5 -10 20 -10 15 0 24 4 20 10 -3 6 -12 10 -20 10
-8 0 -17 -4 -20 -10z"/>
<path d="M16925 620 c-3 -5 3 -10 14 -10 12 0 21 5 21 10 0 6 -6 10 -14 10 -8
0 -18 -4 -21 -10z"/>
<path d="M17430 620 c0 -5 4 -10 9 -10 6 0 13 5 16 10 3 6 -1 10 -9 10 -9 0
-16 -4 -16 -10z"/>
<path d="M16165 610 c-3 -5 1 -10 9 -10 8 0 18 5 21 10 3 6 -1 10 -9 10 -8 0
-18 -4 -21 -10z"/>
<path d="M17830 609 c0 -5 5 -7 10 -4 6 3 10 8 10 11 0 2 -4 4 -10 4 -5 0 -10
-5 -10 -11z"/>
<path d="M17710 530 c0 -5 20 -10 45 -10 25 0 45 5 45 10 0 6 -20 10 -45 10
-25 0 -45 -4 -45 -10z"/>
<path d="M17815 530 c-4 -6 28 -10 84 -10 50 0 91 4 91 9 0 13 -167 13 -175 1z"/>
<path d="M18055 530 c3 -5 15 -10 26 -10 10 0 19 5 19 10 0 6 -12 10 -26 10
-14 0 -23 -4 -19 -10z"/>
<path d="M18180 530 c0 -5 7 -10 16 -10 8 0 12 5 9 10 -3 6 -10 10 -16 10 -5
0 -9 -4 -9 -10z"/>
<path d="M18270 530 c0 -5 5 -10 10 -10 6 0 10 5 10 10 0 6 -4 10 -10 10 -5 0
-10 -4 -10 -10z"/>
<path d="M18490 530 c0 -5 12 -10 26 -10 14 0 23 4 19 10 -3 6 -15 10 -26 10
-10 0 -19 -4 -19 -10z"/>
<path d="M17550 500 c-6 -11 -10 -44 -8 -73 3 -49 5 -52 31 -55 45 -5 59 13
51 67 -4 25 -11 54 -16 64 -12 23 -45 22 -58 -3z"/>
<path d="M16930 495 c-8 -10 -10 -28 -6 -52 13 -69 15 -73 50 -73 47 0 58 17
44 66 -20 68 -59 94 -88 59z"/>
<path d="M17233 462 c-90 -1 -163 -7 -163 -11 0 -14 43 -18 215 -20 138 -1
202 7 185 22 -11 9 -83 12 -237 9z"/>
<path d="M15200 376 c0 -13 20 -26 41 -26 15 0 10 27 -7 34 -24 9 -34 7 -34
-8z"/>
<path d="M15190 164 c0 -12 6 -15 23 -10 12 3 29 6 37 7 10 0 8 3 -5 9 -32 14
-55 11 -55 -6z"/>
<path d="M19270 136 c0 -14 28 -42 35 -34 2 2 2 14 -2 26 -6 24 -33 31 -33 8z"/>
<path d="M16126 92 c-4 -7 -18 -12 -31 -12 -33 0 -55 -10 -55 -25 0 -6 -10
-17 -22 -23 -21 -11 -20 -12 9 -6 23 4 34 1 41 -12 8 -15 11 -15 36 1 25 16
27 16 52 0 38 -24 108 -14 140 21 30 32 30 36 0 28 -13 -3 -27 -1 -30 4 -4 7
-18 7 -38 1 -37 -10 -68 -3 -84 19 -8 11 -13 12 -18 4z"/>
<path d="M16433 82 c-23 -3 -39 -34 -28 -52 10 -16 48 -11 73 8 l24 18 -24 15
c-12 8 -33 13 -45 11z"/>
<path d="M17880 75 c-14 -17 -7 -45 13 -45 7 0 13 11 12 24 0 32 -9 40 -25 21z"/>
<path d="M17946 82 c-3 -6 1 -15 8 -21 8 -7 17 -8 20 -3 3 6 -1 15 -8 21 -8 7
-17 8 -20 3z"/>
<path d="M18127 78 c-9 -7 -20 -28 -23 -45 -6 -33 -6 -33 35 -33 36 0 41 3 47
27 12 46 -23 77 -59 51z"/>
<path d="M15625 70 c-4 -6 -14 -8 -24 -5 -11 3 -20 -3 -26 -18 -6 -12 -20 -23
-32 -25 -13 -2 -23 -8 -23 -13 0 -12 126 -12 150 1 12 6 21 7 25 0 7 -12 76
-5 105 10 12 6 20 19 18 28 -3 14 -16 17 -70 17 -37 0 -70 3 -74 8 -11 10 -42
9 -49 -3z"/>
<path d="M16350 62 c0 -5 7 -15 15 -22 8 -7 15 -8 15 -2 0 5 -7 15 -15 22 -8
7 -15 8 -15 2z"/>
<path d="M16526 45 c4 -15 2 -25 -5 -25 -6 0 -11 -4 -11 -10 0 -13 37 -13 45
0 4 6 11 8 16 4 10 -6 39 13 39 25 0 9 -51 31 -72 31 -15 0 -17 -5 -12 -25z"/>
<path d="M16736 55 c-43 -13 -60 -35 -27 -35 12 0 30 -5 40 -12 28 -17 81 7
81 37 0 25 -29 29 -94 10z"/>
<path d="M17059 54 c-28 -33 35 -62 108 -51 41 7 79 39 68 56 -9 15 -163 10
-176 -5z"/>
<path d="M17307 61 c-18 -6 -18 -7 0 -22 32 -29 113 -34 113 -8 0 5 -15 9 -34
9 -21 0 -36 6 -40 15 -6 16 -12 17 -39 6z"/>
<path d="M17563 58 c-27 -7 -32 -13 -31 -33 3 -30 16 -31 57 -8 52 30 35 58
-26 41z"/>
<path d="M17697 63 c-13 -13 -7 -53 8 -53 10 0 15 10 15 30 0 29 -9 38 -23 23z"/>
<path d="M17757 64 c-11 -11 3 -24 18 -18 8 4 12 10 9 15 -6 11 -18 12 -27 3z"/>
<path d="M18031 61 c-11 -7 -10 -11 7 -20 11 -6 25 -11 31 -11 17 0 13 27 -5
34 -19 7 -16 8 -33 -3z"/>
<path d="M18380 62 c0 -21 32 -43 54 -36 23 7 42 21 35 28 -11 10 -89 17 -89
8z"/>
<path d="M18867 63 c-15 -14 -6 -33 15 -33 12 0 29 -7 39 -16 12 -11 33 -14
75 -12 l58 3 -40 27 c-31 22 -47 26 -75 22 -22 -4 -39 -2 -43 5 -8 12 -19 14
-29 4z"/>
<path d="M19254 55 c-15 -38 0 -50 62 -53 62 -3 119 11 110 27 -3 4 -34 14
-68 20 -35 7 -71 14 -81 16 -10 2 -21 -3 -23 -10z"/>
<path d="M16962 48 c-7 -7 -12 -16 -12 -20 0 -12 28 -10 36 3 10 17 -10 31
-24 17z"/>
<path d="M17806 53 c-11 -11 -6 -23 9 -23 8 0 15 4 15 9 0 13 -16 22 -24 14z"/>
<path d="M18557 53 c-9 -9 12 -33 29 -33 8 0 14 9 14 20 0 19 -28 28 -43 13z"/>
<path d="M18794 49 c-3 -6 -1 -16 4 -21 13 -13 45 8 36 23 -7 12 -31 11 -40
-2z"/>
<path d="M15277 28 c-8 -28 -5 -30 28 -26 l27 3 -25 23 -24 23 -6 -23z"/>
<path d="M18310 39 c0 -5 5 -7 10 -4 6 3 10 8 10 11 0 2 -4 4 -10 4 -5 0 -10
-5 -10 -11z"/>
</g>
</svg>
