<?xml version="1.0" standalone="no"?>
<!DOCTYPE svg PUBLIC "-//W3C//DTD SVG 20010904//EN"
 "http://www.w3.org/TR/2001/REC-SVG-20010904/DTD/svg10.dtd">
<svg version="1.0" xmlns="http://www.w3.org/2000/svg"
 width="2448.000000pt" height="3264.000000pt" viewBox="0 0 2448.000000 3264.000000"
 preserveAspectRatio="xMidYMid meet">
<metadata>
Created by potrace 1.12, written by Peter Selinger 2001-2015
</metadata>
<g transform="translate(0.000000,3264.000000) scale(0.100000,-0.100000)"
fill="#000000" stroke="none">
<path d="M9028 32633 c7 -3 16 -2 19 1 4 3 -2 6 -13 5 -11 0 -14 -3 -6 -6z"/>
<path d="M9303 32629 c14 -8 22 -8 30 0 8 8 3 11 -18 11 -26 -1 -28 -2 -12
-11z"/>
<path d="M9458 32628 c23 -8 39 -8 55 0 19 9 13 11 -33 10 -53 0 -54 -1 -22
-10z"/>
<path d="M9615 32630 c3 -5 17 -10 30 -10 13 0 27 5 30 10 4 6 -8 10 -30 10
-22 0 -34 -4 -30 -10z"/>
<path d="M9714 32633 c11 -11 234 -14 241 -3 4 7 -37 10 -121 10 -70 0 -124
-3 -120 -7z"/>
<path d="M9999 32631 c19 -12 322 -13 341 -1 10 6 -49 10 -170 10 -110 0 -179
-4 -171 -9z"/>
<path d="M10367 32629 c8 -8 43 -11 100 -10 48 1 97 2 108 2 11 0 265 -2 565
-5 300 -3 730 -8 955 -12 483 -8 446 -8 515 -5 58 2 344 -4 725 -14 127 -3
372 -8 545 -10 173 -2 322 -6 331 -10 9 -3 65 -2 125 3 60 6 114 7 119 3 10
-6 103 -10 195 -9 25 1 54 1 65 0 101 -6 1053 -24 1145 -21 185 4 493 -7 554
-21 40 -9 53 -8 73 5 13 9 27 13 32 11 5 -3 105 -6 222 -6 118 0 230 -1 249
-1 183 -7 374 -3 377 8 5 15 -13 20 -147 38 -150 19 -209 20 -216 0 -4 -8 -10
-15 -16 -15 -5 0 -16 7 -24 15 -17 17 -70 20 -79 5 -4 -6 -13 -7 -24 -1 -10 6
-35 10 -57 10 -21 0 -93 2 -159 3 -66 2 -149 2 -185 1 -36 -1 -110 1 -165 4
-134 7 -181 8 -305 4 -58 -2 -121 0 -140 3 -19 3 -93 8 -165 10 -71 2 -146 7
-165 11 -19 3 -48 1 -64 -4 -19 -8 -53 -8 -114 -1 -56 7 -121 7 -182 1 -64 -6
-103 -5 -120 2 -35 15 -169 18 -207 4 -23 -7 -35 -7 -45 0 -20 16 -4437 18
-4421 2z"/>
<path d="M3640 32574 c-20 -23 -1 -89 25 -89 14 0 21 10 27 39 12 56 -21 88
-52 50z"/>
<path d="M4654 32565 c-4 -9 -3 -36 2 -59 10 -40 4 -72 -19 -123 -22 -47 20
-41 54 8 24 34 13 182 -14 187 -9 2 -20 -4 -23 -13z"/>
<path d="M17433 32573 c-31 -6 -29 -31 3 -43 45 -17 202 -19 216 -3 18 22 -2
33 -77 38 -39 2 -81 6 -95 9 -14 2 -35 2 -47 -1z"/>
<path d="M17795 32570 c-11 -5 -31 -9 -45 -9 -14 -1 -32 -6 -40 -11 -34 -21
10 -32 161 -37 164 -7 168 -7 242 3 52 7 52 7 36 36 -9 17 -17 20 -57 14 -26
-3 -78 -1 -116 4 -47 6 -76 5 -93 -3 -18 -8 -29 -8 -44 1 -10 7 -20 12 -21 11
-2 0 -12 -4 -23 -9z"/>
<path d="M18202 32558 c-14 -18 -4 -34 31 -47 38 -15 120 -14 135 1 9 9 21 8
52 -2 22 -7 48 -12 58 -11 60 7 238 4 244 -4 5 -6 15 -6 28 3 16 10 30 10 62
2 22 -7 52 -8 67 -4 14 4 33 6 42 5 19 -2 43 24 35 37 -7 11 -120 16 -266 12
-136 -4 -193 -3 -260 4 -30 3 -61 6 -67 6 -31 -1 -51 1 -99 6 -36 4 -53 2 -62
-8z"/>
<path d="M3440 32550 c0 -5 5 -10 10 -10 6 0 10 5 10 10 0 6 -4 10 -10 10 -5
0 -10 -4 -10 -10z"/>
<path d="M3534 32545 c-7 -18 3 -35 21 -35 15 0 24 19 18 38 -6 17 -32 15 -39
-3z"/>
<path d="M18985 32537 c-13 -10 -15 -16 -6 -21 12 -8 41 10 41 25 0 13 -13 11
-35 -4z"/>
<path d="M19073 32540 c-13 -5 -23 -13 -23 -18 0 -11 68 -32 102 -32 32 0 54
23 36 37 -19 15 -90 23 -115 13z"/>
<path d="M19290 32535 c-7 -8 -23 -15 -36 -15 -43 0 -25 -17 25 -24 40 -5 58
-2 90 15 23 11 41 24 41 28 0 15 -108 11 -120 -4z"/>
<path d="M19490 32532 c0 -12 59 -34 75 -28 8 3 15 12 15 21 0 11 -11 15 -45
15 -25 0 -45 -3 -45 -8z"/>
<path d="M19772 32528 c3 -7 15 -15 27 -16 16 -3 22 1 19 10 -3 7 -15 15 -27
16 -16 3 -22 -1 -19 -10z"/>
<path d="M20196 32531 c-4 -5 -2 -12 3 -15 5 -4 12 -2 15 3 4 5 2 12 -3 15 -5
4 -12 2 -15 -3z"/>
<path d="M19840 32516 c0 -9 8 -16 18 -16 10 0 23 -5 30 -12 8 -8 15 -8 27 2
20 17 10 27 -37 35 -31 6 -38 4 -38 -9z"/>
<path d="M19947 32524 c-8 -8 3 -34 14 -34 11 0 12 27 0 34 -4 3 -11 3 -14 0z"/>
<path d="M20330 32520 c0 -5 7 -10 15 -10 8 0 15 5 15 10 0 6 -7 10 -15 10 -8
0 -15 -4 -15 -10z"/>
<path d="M19640 32510 c0 -5 5 -10 10 -10 6 0 10 5 10 10 0 6 -4 10 -10 10 -5
0 -10 -4 -10 -10z"/>
<path d="M20054 32509 c-3 -6 -1 -16 4 -21 13 -13 45 8 36 23 -7 12 -31 11
-40 -2z"/>
<path d="M3436 32465 c-8 -21 1 -35 20 -35 10 0 14 8 12 22 -4 27 -23 34 -32
13z"/>
<path d="M12 32362 c-13 -4 -17 -68 -4 -76 5 -3 161 -7 348 -10 451 -7 797
-15 974 -21 80 -3 303 -10 495 -15 193 -6 409 -12 480 -15 198 -7 671 -22 950
-30 94 -3 233 -7 310 -10 77 -3 223 -7 325 -10 102 -3 255 -7 340 -10 85 -2
279 -7 430 -10 151 -3 291 -8 310 -10 19 -2 199 -7 400 -10 201 -3 390 -7 420
-10 30 -2 215 -7 410 -10 195 -3 382 -8 415 -10 56 -5 369 -10 2040 -35 1257
-18 1390 -20 1490 -25 55 -3 285 -7 510 -10 226 -3 478 -8 560 -10 83 -3 425
-9 760 -15 336 -5 855 -14 1155 -20 300 -5 712 -12 915 -15 204 -3 413 -7 465
-10 52 -3 300 -7 550 -10 250 -3 700 -10 1000 -15 300 -5 878 -14 1285 -20
407 -5 803 -12 880 -15 77 -3 604 -10 1170 -15 567 -5 1230 -12 1475 -15 245
-3 1005 -7 1690 -10 685 -3 1397 -7 1583 -10 l337 -4 0 45 0 44 -102 0 c-57 0
-134 2 -173 4 -38 2 -648 7 -1355 10 -1933 9 -4245 30 -4520 41 -58 2 -366 7
-685 10 -319 3 -764 10 -990 15 -225 5 -608 12 -850 15 -242 3 -658 10 -925
15 -267 5 -658 12 -870 15 -212 3 -488 8 -615 10 -228 5 -1031 20 -1655 30
-179 3 -440 7 -580 10 -140 3 -406 7 -590 10 -184 3 -405 8 -490 10 -190 6
-632 13 -1170 20 -1013 13 -2232 36 -2980 55 -206 5 -487 12 -625 15 -503 11
-1091 27 -1475 40 -74 2 -236 7 -360 10 -124 3 -274 7 -335 10 -122 6 -314 11
-690 21 -137 3 -263 8 -280 10 -16 2 -127 6 -245 9 -118 3 -271 8 -340 12 -69
3 -190 6 -270 7 -80 2 -343 6 -585 10 -242 4 -499 9 -570 10 -72 1 -136 1
-143 -2z"/>
<path d="M1119 31580 c-63 -67 -106 -141 -160 -275 -81 -200 -140 -338 -209
-485 -91 -197 -119 -271 -275 -735 -108 -323 -177 -513 -321 -881 -40 -105
-102 -295 -129 -397 -23 -88 -25 -115 -24 -275 1 -97 3 -166 5 -152 18 121 43
209 173 605 43 131 90 257 171 460 97 241 146 378 209 575 151 471 167 513
366 955 35 77 91 211 126 298 49 125 71 167 104 202 36 39 47 45 82 45 48 0
68 19 59 55 -10 38 -45 65 -85 65 -31 0 -44 -9 -92 -60z"/>
<path d="M23 29938 c-20 -9 -23 -19 -23 -66 0 -44 3 -53 15 -48 8 3 22 9 30
12 25 10 18 -37 -15 -111 -22 -50 -30 -82 -30 -126 0 -56 1 -59 24 -59 38 0
70 52 111 175 39 117 41 164 11 210 -13 20 -24 25 -59 24 -23 0 -52 -5 -64
-11z"/>
<path d="M4156 29660 c-14 -17 -30 -50 -36 -73 -6 -23 -22 -82 -35 -132 -33
-124 -63 -282 -75 -394 -5 -52 -13 -98 -17 -102 -5 -5 -47 -16 -93 -24 -148
-27 -319 -95 -340 -135 -16 -31 -2 -60 37 -76 32 -14 38 -13 91 11 79 36 232
93 262 97 23 3 25 0 24 -32 -2 -60 -43 -292 -65 -362 -12 -37 -19 -74 -15 -83
15 -39 75 -26 100 22 14 28 56 261 73 408 10 88 16 91 201 112 180 19 238 45
202 88 -16 19 -157 20 -277 3 -45 -7 -86 -9 -90 -5 -4 4 -2 29 4 55 6 26 25
112 42 192 48 220 70 298 97 351 28 57 30 72 8 93 -26 26 -69 20 -98 -14z"/>
<path d="M6986 29529 c-25 -20 -26 -23 -26 -140 0 -122 -16 -251 -50 -394 -10
-44 -33 -141 -50 -215 -18 -74 -34 -169 -37 -210 -5 -69 -3 -78 21 -113 14
-21 33 -52 42 -70 29 -57 75 -107 113 -124 97 -42 220 -52 344 -29 167 32 260
121 282 267 14 93 -53 253 -148 356 -58 63 -153 107 -231 107 -67 -1 -106 -16
-147 -61 -26 -27 -113 -179 -137 -238 -7 -16 -21 -41 -32 -55 -33 -42 -27 -11
45 245 23 84 48 185 75 315 6 30 14 118 17 196 6 135 5 142 -16 163 -26 26
-32 26 -65 0z m360 -698 c65 -38 109 -89 148 -171 64 -136 33 -244 -88 -304
-68 -35 -184 -48 -280 -34 -66 10 -98 24 -138 61 -50 46 -47 63 31 219 85 167
125 226 166 244 50 22 105 17 161 -15z"/>
<path d="M2500 29386 c-230 -48 -562 -238 -791 -454 -188 -176 -320 -391 -321
-522 0 -101 75 -195 202 -251 59 -26 75 -28 180 -29 63 0 153 7 200 14 367 59
565 107 675 164 43 23 87 42 96 42 25 0 45 28 30 43 -9 9 -16 9 -32 -1 -12 -8
-62 -18 -113 -23 -50 -5 -140 -20 -201 -33 -176 -39 -521 -86 -631 -86 -102 0
-200 19 -242 46 -40 26 -47 57 -34 137 29 169 207 409 411 553 92 66 247 158
345 205 176 86 238 103 371 104 127 0 184 -17 226 -68 24 -28 29 -30 53 -19
35 16 44 57 19 90 -26 35 -76 69 -122 83 -58 17 -248 20 -321 5z"/>
<path d="M5295 29153 c-221 -48 -442 -197 -540 -364 -74 -126 -97 -283 -52
-350 27 -40 76 -75 126 -89 190 -53 547 135 716 377 33 48 65 87 70 87 6 1 15
-70 23 -169 15 -193 31 -262 74 -311 36 -41 71 -45 94 -9 16 24 15 27 -15 73
-29 45 -32 61 -48 208 -9 87 -17 221 -17 297 -1 125 -3 140 -20 153 -11 8 -33
14 -48 14 -18 0 -45 12 -67 31 -21 16 -60 37 -86 45 -45 13 -164 17 -210 7z
m216 -113 c38 -11 79 -57 79 -88 0 -28 -68 -125 -148 -212 -106 -115 -305
-241 -432 -275 -72 -19 -154 -19 -192 1 -30 16 -31 17 -25 79 13 164 144 328
341 427 135 69 280 95 377 68z"/>
<path d="M6298 28899 c-23 -13 -24 -66 -2 -97 18 -26 65 -30 88 -6 22 22 20
70 -4 94 -22 22 -55 25 -82 9z"/>
<path d="M22156 26947 c-32 -23 -10 -44 55 -51 93 -9 132 21 64 50 -43 17 -95
18 -119 1z"/>
<path d="M4001 26120 c-14 -23 -19 -59 -24 -148 -12 -249 -54 -513 -92 -572
-88 -138 -115 -221 -80 -250 21 -17 303 -53 347 -44 80 17 128 31 253 72 124
41 145 51 187 92 43 41 48 51 48 89 0 56 -26 98 -93 150 -88 67 -158 93 -255
93 -77 0 -90 -3 -169 -41 -55 -27 -90 -38 -96 -32 -9 9 -7 26 28 176 13 57 21
107 47 318 9 79 9 90 -7 107 -28 31 -72 26 -94 -10z m444 -661 c31 -19 63 -46
71 -61 13 -25 13 -29 -7 -49 -30 -30 -60 -41 -333 -125 -73 -23 -216 -30 -240
-12 -17 14 -18 19 -6 66 33 140 182 226 376 219 73 -3 88 -7 139 -38z"/>
<path d="M2293 25855 c-105 -29 -219 -100 -315 -196 -162 -162 -241 -351 -241
-574 0 -135 12 -183 58 -224 86 -75 223 -65 381 30 124 75 266 245 333 401 33
77 64 118 75 100 3 -5 12 -52 21 -103 21 -128 39 -192 65 -228 23 -34 50 -40
71 -15 10 13 8 33 -14 122 -48 198 -50 217 -43 403 6 171 6 176 -16 209 -13
19 -45 45 -73 59 -42 21 -66 26 -150 28 -65 2 -118 -2 -152 -12z m258 -101
c16 -8 37 -30 46 -49 16 -34 16 -36 -18 -115 -25 -56 -55 -102 -98 -151 -58
-64 -63 -73 -57 -104 14 -75 -193 -319 -328 -385 -81 -40 -166 -50 -212 -25
-49 26 -57 57 -52 193 4 95 10 131 33 192 82 225 233 375 450 447 56 19 83 22
138 18 38 -3 82 -12 98 -21z"/>
<path d="M3268 25593 c-28 -33 -29 -53 -3 -79 26 -26 82 -33 103 -12 18 18 14
73 -6 91 -24 22 -75 22 -94 0z"/>
<path d="M8425 24445 c-44 -8 -152 -28 -240 -45 -239 -45 -589 -84 -675 -76
-57 6 -72 7 -680 31 -206 8 -487 20 -625 26 -470 20 -1571 8 -1890 -20 -60 -6
-297 -13 -525 -16 -743 -10 -1158 -30 -1430 -70 -58 -9 -112 -18 -120 -20 -31
-9 -352 -54 -499 -70 -123 -14 -169 -15 -225 -6 -39 5 -136 13 -216 15 -262 9
-651 26 -858 37 -207 11 -407 5 -429 -13 -9 -7 -13 -46 -13 -129 l0 -119 29 0
c46 0 57 22 42 81 -9 35 -10 54 -3 61 11 11 1168 -5 1180 -16 3 -4 0 -11 -8
-16 -11 -7 -12 -12 -3 -21 13 -13 144 -2 328 26 98 15 184 14 255 -3 25 -6 97
-12 160 -13 239 -3 182 -24 -155 -59 -104 -11 -274 -28 -376 -39 -102 -11
-269 -23 -370 -26 l-184 -5 65 23 c41 14 65 28 65 37 0 12 -13 14 -65 12 -76
-3 -362 -47 -435 -67 -27 -8 -73 -17 -102 -20 -36 -5 -58 -14 -74 -31 l-23
-25 14 -117 c7 -64 15 -223 17 -352 4 -228 0 -320 -32 -710 -47 -575 -58 -918
-30 -1023 22 -86 50 -133 100 -169 25 -18 76 -56 113 -84 74 -55 132 -81 267
-116 86 -22 104 -23 455 -23 334 1 607 12 1460 60 52 3 300 9 550 15 250 5
669 15 930 22 633 17 777 16 955 -4 83 -9 260 -24 395 -33 135 -8 295 -20 355
-25 61 -6 241 -22 400 -36 498 -43 1091 -123 1454 -194 552 -108 732 -97 805
48 40 81 79 217 146 507 6 27 29 133 50 235 21 102 57 273 80 380 43 208 67
293 80 285 17 -11 50 -691 50 -1034 0 -198 4 -327 15 -421 17 -142 28 -170 70
-170 50 0 66 54 44 150 -6 25 -14 236 -19 470 -8 397 -24 650 -60 960 -5 47
-10 155 -9 240 0 151 1 160 45 325 176 673 176 674 177 770 1 63 -3 88 -20
121 -46 86 -144 144 -247 144 -23 0 -57 3 -77 6 l-36 6 -6 72 c-6 88 -23 131
-73 186 -78 86 -172 111 -319 85z m196 -101 c15 -7 37 -26 51 -42 28 -33 74
-162 66 -183 -5 -13 -55 -15 -359 -13 -332 2 -571 8 -819 19 -58 3 -224 10
-370 15 -322 12 -343 15 -335 41 5 16 1 19 -27 21 -48 2 -100 0 -218 -10 -66
-5 -200 -3 -360 4 -140 7 -361 18 -490 24 -129 6 -262 15 -295 20 -33 6 -136
17 -230 25 -93 8 -197 18 -230 22 l-60 7 55 7 c141 18 1528 -18 1995 -51 234
-17 485 -28 925 -41 375 -11 411 -11 480 5 125 29 178 65 154 104 -15 23 -63
20 -139 -8 -70 -26 -188 -36 -300 -25 -85 8 -85 19 0 30 27 4 91 13 140 22
194 33 311 35 366 7z m-5292 -88 c-16 -16 -403 -89 -569 -107 -41 -4 -111 -13
-155 -19 -59 -9 -138 -9 -305 0 -239 12 -270 15 -270 29 0 17 57 24 305 41 83
5 222 17 310 25 303 28 700 46 684 31z m1351 -23 c504 -23 419 -17 796 -54 61
-5 133 -16 160 -23 l49 -13 -55 -7 c-267 -31 -667 -41 -1660 -45 -663 -2
-1020 5 -1020 20 0 16 128 44 295 64 236 27 371 46 445 60 41 8 91 16 110 17
73 7 559 -4 880 -19z m1860 -143 c118 -6 265 -14 325 -20 61 -5 205 -14 320
-20 116 -5 307 -15 425 -21 118 -6 421 -13 674 -15 252 -2 460 -5 462 -7 2 -2
8 -62 13 -133 6 -72 19 -184 30 -250 40 -236 71 -461 81 -592 5 -74 12 -137
14 -141 5 -7 -24 -130 -71 -306 -8 -33 -26 -89 -39 -125 -33 -91 -85 -301
-144 -578 -69 -329 -72 -341 -84 -351 -6 -5 -36 -5 -71 1 -55 9 -1614 3 -1785
-7 -36 -2 -245 -6 -465 -10 -220 -3 -465 -10 -545 -15 -174 -11 -968 -25
-1345 -24 -148 0 -349 5 -445 11 -189 13 -1564 8 -2010 -6 -135 -4 -454 -6
-710 -5 -417 2 -475 4 -558 21 -50 11 -101 28 -112 38 -10 9 -27 38 -36 64 -8
25 -20 54 -25 63 -26 51 -29 422 -5 758 43 602 50 823 35 1070 -17 287 -17
326 -3 340 7 7 116 13 320 16 408 7 860 43 1094 89 87 17 230 40 345 55 149
19 299 40 413 57 111 17 113 17 127 -3 13 -20 32 -21 342 -34 314 -12 1568 -9
1883 6 127 5 560 43 570 49 4 2 84 9 180 15 95 6 192 16 214 20 43 10 221 6
586 -10z m2444 -108 c106 -36 122 -57 120 -160 -1 -48 -14 -127 -33 -206 -17
-72 -45 -201 -61 -288 -16 -87 -32 -163 -36 -169 -14 -23 -23 19 -39 167 -17
168 -35 292 -71 506 -13 80 -21 153 -18 162 9 23 47 20 138 -12z m-458 -2554
c-9 -66 -81 -257 -106 -283 -13 -14 -39 -30 -58 -36 -54 -18 -239 -5 -447 31
-587 101 -758 127 -1095 164 -351 39 -521 52 -1115 87 -99 6 -184 14 -188 18
-8 8 101 13 618 30 121 5 684 9 1250 10 567 1 1046 6 1065 10 19 5 46 9 59 10
22 1 23 -1 17 -41z m-5926 -17 c-8 -5 -134 -14 -280 -21 -146 -6 -272 -13
-280 -15 -8 -2 -105 -7 -215 -10 -110 -4 -256 -10 -325 -14 -220 -13 -598 2
-685 28 -19 6 51 7 185 4 118 -3 366 0 550 6 184 6 477 14 650 17 173 4 317 8
319 10 2 2 25 4 50 4 31 -1 41 -3 31 -9z m118 2 c-15 -2 -42 -2 -60 0 -18 2
-6 4 27 4 33 0 48 -2 33 -4z"/>
<path d="M3282 23750 c-71 -66 -137 -242 -158 -422 l-6 -57 -47 -17 c-149 -54
-307 -148 -317 -190 -8 -33 20 -64 58 -64 19 0 42 13 71 39 64 58 179 132 202
129 18 -3 20 -10 18 -68 -2 -96 -31 -367 -45 -429 -12 -51 -11 -54 11 -72 25
-21 53 -13 70 20 15 27 50 383 48 483 -2 71 1 90 15 105 12 11 75 28 195 50
146 28 211 35 363 39 216 6 230 8 230 33 0 25 -16 36 -74 50 -125 31 -401 9
-606 -48 -121 -34 -124 -16 -30 201 25 59 54 106 84 138 25 27 46 54 46 59 0
17 -43 41 -75 41 -17 0 -41 -9 -53 -20z"/>
<path d="M2155 23693 c-147 -24 -345 -111 -437 -193 -107 -95 -167 -272 -141
-415 18 -94 32 -144 50 -173 91 -143 221 -220 438 -258 196 -35 503 1 573 67
28 25 28 35 -3 55 -22 15 -30 14 -115 -10 -207 -60 -482 -37 -661 55 -67 33
-134 107 -158 172 -37 102 -26 260 27 363 73 143 325 254 573 254 99 0 142
-13 194 -59 42 -36 68 -45 95 -31 32 17 26 66 -12 102 -61 57 -108 70 -258 73
-74 2 -148 1 -165 -2z"/>
<path d="M6383 23642 c-23 -15 -33 -64 -33 -165 0 -113 -29 -297 -61 -395 -12
-35 -37 -84 -56 -109 -91 -119 -109 -233 -38 -233 35 0 62 27 84 87 45 116 48
120 111 157 205 121 440 62 440 -110 0 -52 -38 -97 -113 -133 -148 -73 -422
-126 -553 -106 -43 6 -56 14 -101 63 -51 55 -52 55 -76 39 -41 -26 -43 -54
-10 -101 19 -26 49 -51 88 -71 57 -29 63 -30 199 -30 149 0 235 13 379 59 196
62 281 149 281 286 0 80 -24 131 -90 188 -99 88 -233 106 -370 52 -42 -17 -79
-29 -81 -26 -3 3 9 51 27 108 31 101 49 228 50 354 0 47 -4 65 -18 77 -20 18
-40 21 -59 9z"/>
<path d="M4844 23301 c-213 -38 -394 -292 -394 -554 0 -161 46 -210 217 -232
54 -7 143 10 218 42 123 52 307 209 354 302 46 89 105 129 115 79 3 -13 8 -54
11 -93 9 -100 43 -221 73 -256 19 -23 32 -29 55 -27 51 5 55 28 20 96 -35 66
-58 171 -73 326 -11 110 -27 146 -65 146 -20 0 -32 -11 -53 -46 -81 -139 -92
-143 -92 -37 -1 127 -43 191 -157 236 -53 21 -165 30 -229 18z m215 -114 c68
-34 86 -66 85 -145 -1 -46 -8 -81 -22 -112 -12 -25 -22 -61 -24 -80 -3 -30
-12 -42 -73 -88 -137 -103 -294 -164 -379 -148 -47 9 -106 65 -106 100 0 62
33 186 70 261 97 200 292 292 449 212z"/>
<path d="M5816 22988 c-46 -66 20 -147 82 -101 37 27 40 66 8 98 -31 31 -70
32 -90 3z"/>
<path d="M17355 23980 c-624 -21 -1064 -50 -1465 -95 -118 -13 -289 -29 -380
-36 -196 -13 -230 -20 -268 -59 -79 -79 -92 -170 -85 -580 7 -332 -9 -540 -66
-855 -23 -127 -112 -658 -122 -725 -59 -396 -96 -571 -200 -931 -107 -372
-115 -457 -48 -513 35 -30 78 -33 191 -14 54 9 78 9 104 -1 27 -10 41 -9 79 3
54 19 111 20 510 6 165 -5 480 -15 700 -20 220 -6 470 -15 555 -20 85 -6 229
-14 320 -20 269 -16 817 -49 925 -55 55 -3 183 -10 285 -15 342 -19 753 -40
985 -50 127 -5 266 -12 310 -15 44 -3 240 -12 435 -20 195 -8 447 -20 560 -25
298 -15 597 -29 740 -35 69 -3 247 -12 395 -20 149 -8 371 -19 495 -25 124 -6
272 -12 330 -15 58 -3 168 -7 245 -10 310 -11 648 -27 999 -45 203 -11 420
-20 483 -20 l113 0 0 50 0 50 -147 0 c-82 0 -285 7 -453 15 -168 8 -492 19
-720 25 -721 17 -980 27 -1565 65 -326 21 -1084 61 -1495 80 -167 7 -548 26
-625 30 -38 2 -164 9 -280 15 -237 12 -477 26 -705 40 -85 5 -270 16 -410 25
-140 8 -316 19 -390 25 -709 52 -1351 80 -1837 80 -200 0 -363 4 -363 9 0 8
186 39 360 60 126 15 321 30 661 50 288 18 359 28 359 50 0 30 -47 36 -260 35
-352 -2 -759 -39 -1036 -93 -152 -30 -247 -45 -344 -57 -30 -3 -127 -19 -214
-35 -88 -17 -178 -29 -200 -27 l-41 3 1 60 c1 42 23 136 74 315 40 140 79 279
86 309 22 84 91 442 114 596 12 77 30 187 40 245 10 58 24 141 30 185 7 44 18
112 26 150 26 122 72 395 89 520 21 160 31 352 34 690 1 154 6 296 11 316 19
69 80 98 205 99 33 0 155 11 270 25 637 74 1000 98 1755 114 669 14 1173 2
2030 -48 91 -6 269 -15 395 -21 127 -6 277 -13 335 -16 352 -16 1136 -83 1420
-120 63 -8 156 -19 205 -25 50 -5 115 -13 145 -18 30 -5 91 -13 135 -16 44 -4
154 -18 245 -31 91 -14 242 -36 335 -49 94 -13 215 -30 270 -38 155 -23 579
-95 685 -117 52 -10 145 -29 205 -40 95 -18 404 -90 516 -120 20 -6 39 -10 43
-10 3 0 6 22 6 48 l0 49 -92 22 c-51 12 -120 29 -153 37 -165 40 -600 125
-790 154 -66 11 -194 31 -285 45 -179 28 -659 96 -835 120 -379 49 -542 69
-745 90 -80 8 -159 17 -175 20 -41 7 -473 43 -745 61 -232 16 -332 21 -825 48
-159 8 -348 20 -420 26 -71 5 -233 14 -360 20 -126 6 -264 13 -305 15 -154 9
-1173 13 -1395 5z"/>
<path d="M17640 22612 c-102 -3 -497 -30 -695 -47 -414 -35 -570 -45 -755 -50
-212 -6 -261 -14 -285 -48 -20 -28 -19 -50 3 -77 l19 -23 104 16 c57 9 158 19
224 22 66 4 278 19 470 36 577 48 731 59 935 67 120 5 204 13 218 20 29 16 29
57 0 73 -22 12 -116 16 -238 11z"/>
<path d="M19131 22503 c-16 -14 -28 -47 -46 -138 -43 -208 -65 -362 -72 -501
-4 -89 -10 -138 -19 -145 -7 -5 -66 -12 -131 -14 -187 -7 -233 -14 -260 -41
-29 -30 -29 -55 1 -83 l24 -23 103 16 c57 9 126 21 152 26 63 13 104 13 113
-1 3 -6 -1 -47 -9 -92 -9 -45 -21 -129 -27 -186 -11 -109 -22 -140 -46 -120
-7 6 -23 9 -36 7 -21 -3 -23 -8 -23 -53 1 -66 33 -115 75 -115 35 0 63 33 84
98 24 74 56 287 56 371 0 42 4 82 8 89 12 18 68 32 127 32 63 0 212 31 288 60
60 22 86 53 74 84 -8 21 -33 20 -142 -3 -145 -31 -261 -51 -301 -51 l-36 0 5
53 c12 124 60 412 87 525 35 144 37 183 12 205 -23 21 -35 21 -61 0z"/>
<path d="M15706 22274 c-10 -14 -24 -58 -33 -99 -15 -69 -15 -75 1 -100 13
-19 24 -25 43 -23 25 3 28 -2 63 -104 21 -59 55 -145 78 -192 90 -187 256
-421 396 -557 50 -49 86 -92 82 -98 -4 -6 -59 -35 -122 -65 -128 -61 -243
-134 -274 -173 -25 -32 -26 -65 -2 -86 29 -26 55 -20 103 21 66 57 95 75 225
143 65 34 123 65 128 70 23 21 54 6 111 -52 101 -103 416 -299 479 -299 9 0
28 11 42 25 21 21 23 28 14 45 -6 12 -26 27 -43 35 -161 69 -201 91 -414 233
-84 55 -77 65 117 138 113 42 280 109 565 226 164 67 320 145 353 176 35 33
43 78 16 89 -9 3 -71 -22 -147 -60 -73 -35 -186 -86 -252 -112 -66 -25 -147
-57 -180 -70 -33 -13 -148 -58 -255 -99 -107 -41 -230 -90 -273 -110 -43 -20
-87 -36 -97 -36 -10 0 -40 25 -67 58 -26 31 -73 86 -104 122 -133 154 -290
410 -360 589 -50 128 -67 184 -78 274 -5 37 -16 79 -25 92 -23 34 -68 34 -90
-1z"/>
<path d="M22013 22035 c-26 -19 -32 -75 -9 -94 9 -8 103 -13 297 -15 389 -5
622 -30 717 -78 60 -29 65 -57 23 -115 -36 -50 -74 -77 -306 -215 -338 -201
-451 -281 -502 -359 -21 -31 -25 -47 -20 -80 13 -95 107 -133 392 -159 147
-13 672 -25 708 -16 15 3 33 19 42 36 18 36 19 35 -1 54 -13 14 -49 16 -237
16 -322 0 -680 30 -759 63 -61 25 -51 46 57 124 77 55 263 171 452 282 139 81
231 154 270 212 34 52 38 150 7 191 -78 104 -319 150 -874 164 -209 5 -237 4
-257 -11z"/>
<path d="M19972 22004 c-35 -24 -29 -69 21 -144 24 -36 60 -94 79 -130 40 -71
147 -209 212 -273 79 -77 192 -111 283 -87 26 8 93 16 148 19 98 6 100 6 100
31 0 19 -10 30 -40 46 -26 13 -41 28 -43 43 -5 35 -28 36 -80 2 -37 -24 -64
-32 -117 -37 -79 -7 -115 4 -179 55 -79 63 -219 264 -281 404 -20 47 -55 87
-75 87 -3 0 -16 -7 -28 -16z"/>
<path d="M21062 21950 c-10 -11 -24 -50 -31 -86 -8 -37 -25 -96 -38 -133 -13
-36 -56 -156 -95 -266 -149 -423 -258 -653 -435 -922 -76 -115 -85 -145 -51
-167 39 -24 69 3 141 129 201 348 260 462 330 640 19 50 61 155 92 235 88 223
164 445 171 499 5 41 3 52 -15 70 -26 26 -45 27 -69 1z"/>
<path d="M21590 21710 c-43 -43 -11 -120 48 -120 53 0 88 69 58 115 -21 32
-77 34 -106 5z"/>
<path d="M149 20915 c-33 -18 -42 -40 -28 -66 14 -28 50 -39 123 -39 35 0 152
-11 260 -25 183 -23 463 -48 841 -77 215 -16 800 -16 1470 0 834 19 3282 17
3775 -3 129 -6 601 -21 955 -30 400 -11 754 -45 1240 -120 55 -8 106 -17 112
-20 7 -2 99 -20 205 -40 106 -20 247 -49 313 -65 84 -21 129 -27 149 -22 81
22 47 112 -42 112 -27 0 -122 17 -437 78 -535 104 -964 153 -1510 172 -1083
37 -4293 55 -5180 29 -383 -12 -845 -7 -1030 11 -55 5 -163 14 -240 19 -311
23 -414 33 -500 46 -49 8 -153 21 -229 30 -77 9 -158 18 -180 21 -26 3 -51 -1
-67 -11z"/>
<path d="M5218 20000 c-15 -11 -30 -39 -38 -67 -7 -26 -27 -97 -46 -158 -51
-168 -55 -191 -62 -320 l-7 -119 -111 -22 c-61 -12 -122 -27 -135 -34 -62 -32
-76 -67 -37 -94 32 -22 57 -20 140 13 40 15 90 31 111 34 43 7 39 18 42 -128
1 -62 10 -132 23 -185 12 -47 25 -114 28 -150 8 -79 18 -100 47 -100 53 0 58
42 28 204 -35 185 -53 311 -49 346 4 41 20 47 123 49 39 1 111 6 160 11 50 6
137 15 195 20 154 14 226 29 246 51 30 34 3 49 -86 49 -96 0 -425 -25 -538
-41 -62 -9 -86 -9 -94 -1 -24 24 55 374 116 514 37 84 39 105 16 128 -25 25
-41 25 -72 0z"/>
<path d="M9146 19968 c-21 -32 -92 -280 -105 -363 -6 -38 -18 -131 -27 -205
-32 -260 -30 -290 14 -276 41 13 54 62 102 397 22 154 30 185 79 317 33 90 38
121 19 140 -20 20 -66 14 -82 -10z"/>
<path d="M2901 19972 c-37 -11 -49 -37 -27 -60 17 -20 25 -22 147 -40 36 -5
85 -20 108 -33 41 -24 42 -24 56 -5 8 11 15 25 15 32 0 19 -49 73 -83 91 -34
17 -176 27 -216 15z"/>
<path d="M3400 19919 c-14 -11 -51 -33 -82 -49 -31 -16 -60 -34 -63 -40 -4 -6
-24 -18 -45 -26 -60 -24 -63 -55 -8 -79 l30 -12 -63 -49 c-35 -26 -95 -75
-134 -109 -86 -74 -219 -170 -302 -219 -185 -108 -400 -127 -457 -41 -23 35
-20 52 25 146 32 68 56 100 122 165 46 45 102 91 124 103 73 37 102 83 69 110
-22 18 -105 -10 -169 -57 -76 -56 -191 -184 -240 -267 -38 -63 -42 -76 -42
-136 0 -56 5 -73 30 -115 19 -30 49 -60 79 -78 42 -27 59 -31 141 -34 109 -5
151 6 298 80 207 102 508 364 579 503 18 34 89 95 111 95 24 0 37 -24 47 -84
29 -178 136 -461 204 -537 51 -58 106 -72 106 -27 0 10 -20 54 -44 96 -45 79
-103 238 -151 417 -44 162 -64 217 -87 242 -26 28 -45 29 -78 2z"/>
<path d="M6342 19873 c-38 -15 -62 -147 -88 -483 -15 -202 -36 -591 -35 -654
0 -36 17 -56 47 -56 16 0 39 19 76 63 164 192 290 267 453 267 172 0 179 -113
17 -261 -93 -85 -201 -140 -308 -158 -77 -12 -125 -2 -175 39 -33 26 -42 29
-60 19 -17 -8 -20 -17 -15 -40 9 -48 35 -77 92 -105 49 -24 63 -26 127 -21 81
6 173 34 262 81 83 43 224 184 259 258 52 112 27 210 -67 260 -37 20 -57 23
-157 23 -109 0 -119 -2 -195 -34 -70 -30 -92 -46 -171 -128 -51 -51 -95 -93
-98 -93 -10 0 -7 85 9 197 8 59 21 187 30 283 28 316 36 372 61 439 30 79 23
112 -23 110 -16 0 -34 -3 -41 -6z"/>
<path d="M3056 19808 c-21 -30 -4 -60 31 -56 38 4 52 32 29 57 -24 27 -41 26
-60 -1z"/>
<path d="M8001 19270 c-124 -49 -189 -130 -199 -246 -12 -159 72 -277 253
-353 146 -61 359 -82 478 -47 93 28 173 120 121 140 -8 3 -43 -6 -77 -21 -56
-25 -74 -27 -182 -28 -259 0 -474 102 -492 235 -14 101 20 170 102 209 78 37
130 44 193 26 62 -18 106 -8 117 26 19 58 -36 89 -157 89 -68 -1 -97 -6 -157
-30z"/>
<path d="M7314 19073 c-37 -39 -52 -99 -33 -132 17 -30 63 -40 92 -19 23 17
42 130 27 158 -15 28 -56 25 -86 -7z"/>
<path d="M17064 18985 c-209 -45 -412 -236 -544 -510 -62 -131 -110 -311 -110
-418 0 -29 -6 -61 -13 -71 -12 -16 -19 -17 -63 -8 -55 12 -94 -3 -94 -37 0
-30 29 -46 94 -51 l61 -5 7 -180 c5 -158 32 -388 58 -510 5 -22 12 -74 15
-115 4 -41 14 -85 21 -97 17 -27 56 -30 79 -6 21 20 18 60 -19 268 -28 159
-54 404 -58 545 l-3 95 95 6 c188 12 478 73 660 139 235 85 407 214 476 358
53 108 43 271 -23 375 -114 181 -389 276 -639 222z m274 -91 c98 -20 222 -83
262 -133 125 -159 78 -358 -120 -506 -126 -95 -415 -191 -715 -240 -55 -9
-120 -20 -145 -25 -25 -5 -62 -12 -82 -15 l-38 -6 0 53 c1 152 93 424 196 579
100 150 185 223 324 276 100 38 192 43 318 17z"/>
<path d="M4491 17954 c-13 -9 -58 -70 -102 -136 -114 -173 -169 -299 -189
-435 -6 -37 -14 -86 -20 -108 -19 -80 -4 -134 34 -119 24 9 48 67 81 195 56
219 157 409 258 487 68 52 77 75 46 108 -27 28 -73 32 -108 8z"/>
<path d="M21345 17926 c-16 -12 -18 -29 -19 -153 -1 -100 -5 -144 -14 -156 -7
-8 -51 -35 -98 -58 -83 -42 -154 -103 -154 -133 0 -25 12 -46 31 -56 23 -13
66 6 75 33 9 28 72 96 106 113 l28 15 0 -48 c0 -27 -5 -66 -10 -88 -5 -22 -14
-87 -20 -144 -6 -58 -17 -116 -25 -131 -34 -65 -30 -215 6 -251 24 -24 34 -24
59 1 17 17 20 33 20 100 0 50 11 131 29 217 16 76 36 192 45 259 8 66 18 127
21 136 8 19 37 33 116 53 33 9 86 27 116 40 107 48 117 31 77 -141 -14 -66
-30 -138 -35 -160 -4 -23 -17 -78 -28 -122 -26 -100 -26 -113 0 -146 15 -19
30 -26 53 -26 37 0 51 9 174 117 90 78 168 133 188 133 8 0 29 -24 48 -54 19
-29 55 -71 81 -92 31 -26 57 -60 76 -101 43 -90 112 -140 224 -163 106 -22
229 2 282 55 29 29 33 39 33 87 0 63 -24 139 -76 243 -45 91 -43 108 16 117
47 7 129 1 149 -11 9 -6 6 -21 -9 -57 -29 -66 -35 -131 -20 -195 17 -73 34
-103 89 -162 63 -67 118 -103 214 -140 77 -30 90 -31 217 -31 116 0 141 3 180
21 83 39 110 78 110 162 0 60 -17 109 -80 233 -45 86 -50 103 -50 160 0 71 13
93 70 127 30 18 51 21 146 21 95 0 113 3 128 19 58 64 -119 106 -264 62 -58
-18 -81 -32 -125 -74 -64 -63 -76 -98 -63 -187 7 -46 27 -99 69 -181 81 -160
80 -212 -4 -250 -104 -47 -331 -1 -446 90 -57 45 -91 121 -91 204 0 72 19 133
45 143 9 4 42 -5 74 -20 32 -14 74 -26 93 -26 43 0 110 46 133 91 21 40 7 77
-42 115 -30 23 -46 27 -96 27 -48 -1 -73 -8 -133 -38 l-73 -37 -88 16 c-163
30 -237 19 -274 -40 -25 -42 -25 -43 46 -224 30 -76 55 -146 55 -155 0 -29
-44 -62 -92 -69 -57 -9 -165 9 -206 34 -34 21 -65 71 -56 93 3 8 28 25 57 38
91 43 136 96 152 182 6 33 4 40 -28 72 -38 38 -70 44 -138 24 -53 -16 -97 -66
-124 -140 -12 -35 -28 -65 -34 -67 -6 -2 -24 25 -40 61 -36 81 -68 107 -130
107 -65 -1 -108 -24 -202 -110 -45 -41 -88 -79 -95 -83 -22 -12 -18 18 21 170
73 288 65 373 -37 390 -44 7 -176 -30 -247 -69 -30 -16 -63 -28 -75 -26 -19 3
-20 9 -17 104 2 100 2 102 -25 123 -31 25 -43 26 -69 7z m1881 -467 c12 -20
-37 -50 -71 -44 -43 8 -54 23 -31 41 24 17 92 19 102 3z m-746 -106 c0 -18
-13 -40 -37 -65 -35 -36 -73 -50 -73 -27 0 23 33 80 58 99 35 28 52 25 52 -7z"/>
<path d="M18495 17650 c-102 -21 -182 -66 -248 -139 -54 -60 -79 -117 -85
-191 -4 -60 -2 -68 23 -98 111 -132 318 -76 456 123 28 42 57 74 63 72 6 -2
20 -39 32 -83 22 -86 36 -117 82 -180 36 -49 96 -82 118 -64 22 19 18 35 -34
123 -53 89 -72 140 -98 257 -19 89 -36 120 -67 120 -13 0 -38 11 -57 25 -56
42 -106 51 -185 35z m165 -106 c21 -21 -17 -82 -102 -167 -85 -85 -154 -127
-207 -127 -43 0 -60 9 -77 41 -41 80 51 204 186 253 51 18 182 18 200 0z"/>
<path d="M19834 17640 c-38 -13 -78 -35 -107 -60 -25 -22 -50 -40 -57 -40 -6
0 -30 15 -51 34 -57 48 -127 58 -224 32 -74 -19 -132 -52 -192 -109 -73 -69
-106 -139 -106 -225 1 -37 6 -80 12 -95 6 -16 11 -45 11 -66 0 -45 20 -66 54
-57 60 15 77 66 47 136 -24 57 -28 138 -7 178 54 103 241 194 321 156 51 -24
88 -64 80 -88 -3 -11 -8 -53 -12 -92 -7 -90 21 -195 64 -236 88 -83 245 -82
414 3 56 28 69 43 69 79 0 31 -35 33 -97 6 -98 -43 -169 -59 -229 -51 -79 10
-106 51 -121 187 -7 71 3 77 78 47 96 -38 183 -13 272 78 32 34 50 61 53 85 6
31 2 38 -35 70 -63 53 -130 61 -237 28z m154 -97 c8 -53 -115 -107 -196 -87
-50 12 -52 36 -6 64 56 35 104 50 154 47 38 -2 45 -5 48 -24z"/>
<path d="M20377 17569 c-9 -6 -30 -36 -46 -67 -52 -103 -80 -209 -83 -306 -1
-42 3 -53 26 -73 18 -15 40 -23 64 -23 33 0 44 8 105 73 37 39 93 109 124 155
92 134 103 134 103 -4 0 -109 16 -274 31 -322 11 -34 51 -62 89 -62 33 0 70
44 135 158 65 115 78 174 39 180 -28 4 -66 -42 -105 -124 -32 -67 -54 -93 -69
-78 -4 5 -10 101 -12 214 -3 228 -10 252 -67 265 -57 12 -113 -38 -254 -231
-63 -87 -91 -113 -101 -96 -11 19 19 126 60 208 49 101 50 106 28 128 -18 18
-41 20 -67 5z"/>
<path d="M3339 17311 c-205 -55 -421 -216 -499 -371 -95 -189 -64 -324 101
-446 140 -103 451 -132 681 -64 183 54 246 97 205 138 -14 14 -26 12 -119 -21
-57 -20 -130 -41 -162 -47 -151 -26 -403 2 -511 57 -106 54 -149 120 -143 218
9 146 128 288 317 380 110 54 175 69 291 70 132 0 176 -16 245 -91 52 -55 87
-68 113 -42 55 55 -65 176 -223 223 -68 20 -213 18 -296 -4z"/>
<path d="M2 17075 c-1 -121 3 -251 8 -290 4 -38 16 -139 24 -224 9 -85 18
-157 21 -161 8 -13 75 -497 85 -615 5 -66 19 -320 30 -565 11 -245 22 -465 25
-490 3 -25 8 -97 11 -160 2 -63 9 -144 14 -180 13 -91 19 -343 26 -1090 3
-355 9 -670 15 -699 39 -231 56 -872 52 -1996 -1 -225 0 -437 2 -470 12 -236
16 -307 20 -355 3 -30 10 -138 15 -240 6 -102 13 -212 15 -245 2 -33 9 -148
15 -255 6 -107 16 -240 22 -295 30 -261 1 -1261 -52 -1785 -16 -159 -29 -338
-35 -480 -3 -74 -9 -166 -15 -205 -40 -286 -91 -1213 -91 -1645 0 -140 -22
-413 -36 -450 -3 -8 -9 -46 -13 -85 -5 -38 -13 -97 -19 -130 -29 -172 -44
-381 -29 -402 6 -7 5 -20 -2 -32 -6 -12 -12 -51 -13 -88 -2 -59 0 -68 17 -71
10 -2 23 1 29 7 13 13 19 131 7 146 -7 8 -6 29 0 61 6 27 17 92 25 144 8 52
21 136 30 185 44 262 56 360 70 575 8 129 17 303 19 385 5 198 33 738 46 890
6 66 15 174 20 241 5 66 11 127 14 135 5 14 28 316 45 589 5 80 19 244 30 366
11 121 25 353 31 515 6 162 13 348 17 414 13 238 6 703 -12 805 -2 14 -9 117
-15 230 -6 113 -22 367 -36 565 -18 267 -26 477 -29 815 -3 250 -7 494 -10
541 -4 63 -2 89 7 96 9 7 212 11 588 11 531 1 863 -8 1480 -37 118 -6 339 -16
490 -21 151 -6 365 -17 475 -26 110 -8 254 -17 320 -20 67 -3 149 -14 185 -24
36 -10 103 -24 150 -30 47 -7 114 -19 149 -26 55 -11 68 -11 92 2 48 24 134
27 374 10 232 -16 463 -27 960 -46 379 -15 740 -45 1020 -86 132 -19 247 -37
255 -39 8 -2 123 -20 255 -40 132 -19 267 -39 300 -45 93 -14 333 -48 400 -55
242 -26 817 -126 915 -159 8 -2 76 -21 150 -41 74 -20 155 -44 180 -52 86 -28
211 -63 296 -82 47 -11 88 -22 91 -25 28 -28 -159 -161 -307 -219 -83 -33
-240 -81 -355 -108 -167 -41 -442 -27 -805 41 -85 15 -173 31 -195 34 -22 3
-80 15 -130 27 -49 11 -101 22 -115 23 -14 2 -72 14 -130 28 -58 14 -141 33
-185 43 -44 9 -95 23 -113 31 -18 8 -42 14 -53 14 -12 0 -42 7 -68 15 -25 8
-80 21 -121 28 -41 8 -88 19 -105 25 -16 6 -50 16 -75 22 -25 7 -53 16 -62 21
-10 5 -29 9 -43 9 -14 0 -37 7 -50 16 -16 10 -34 14 -54 9 -20 -4 -42 0 -69
14 -22 11 -48 17 -61 14 -11 -3 -28 0 -36 7 -8 6 -29 14 -47 16 -18 2 -43 6
-55 10 -41 12 -24 -11 25 -33 59 -26 176 -63 202 -63 10 0 29 -4 42 -9 13 -5
50 -16 83 -26 33 -9 89 -25 125 -35 36 -11 99 -24 140 -30 41 -6 84 -15 95
-20 55 -23 147 -50 205 -61 36 -6 83 -18 105 -27 41 -15 182 -48 270 -62 28
-4 64 -14 80 -20 17 -7 50 -16 75 -21 59 -10 118 -25 155 -38 17 -5 80 -19
140 -31 411 -76 662 -97 808 -65 119 25 350 98 437 137 134 60 162 79 252 167
49 47 90 87 92 89 2 1 58 -3 124 -9 135 -13 176 -5 192 37 9 23 5 40 -67 271
-23 73 -32 120 -27 135 3 12 42 96 85 186 44 90 79 166 79 169 0 12 224 457
281 558 158 278 219 366 374 535 85 94 125 164 125 224 0 57 -35 121 -84 155
-104 72 -521 237 -710 281 -43 10 -83 23 -88 28 -6 6 -2 24 11 48 37 72 111
264 111 288 0 13 -8 34 -19 47 -18 22 -29 23 -367 46 -660 43 -880 53 -1193
53 -300 0 -345 3 -526 36 -166 29 -287 49 -370 60 -16 2 -93 8 -170 14 -77 5
-183 14 -235 20 -77 8 -270 14 -375 10 -11 0 -38 2 -60 5 -47 7 -80 -9 -55
-25 8 -6 38 -10 65 -9 28 0 93 -6 145 -15 52 -9 112 -16 132 -16 20 0 101 -9
180 -19 224 -31 389 -50 570 -66 91 -9 179 -20 195 -25 15 -5 87 -21 158 -35
137 -26 394 -40 487 -25 27 4 148 -1 280 -12 128 -10 350 -27 493 -38 143 -12
322 -24 397 -27 75 -3 142 -9 149 -14 10 -6 9 -16 -3 -46 -9 -21 -32 -76 -52
-123 -42 -102 -56 -107 -150 -62 -33 16 -85 35 -114 42 -30 7 -95 27 -146 45
-148 53 -552 155 -614 155 -13 0 -31 4 -40 9 -20 10 -66 -4 -57 -19 11 -17
107 -58 200 -83 203 -57 364 -105 580 -172 61 -19 147 -43 193 -54 46 -10 86
-21 89 -25 3 -3 -1 -23 -10 -43 -27 -64 -45 -141 -71 -303 -76 -479 -105
-1028 -71 -1345 18 -175 52 -323 91 -399 l24 -49 -42 -81 c-23 -44 -57 -111
-76 -148 -19 -37 -42 -70 -52 -73 -10 -3 -65 10 -122 29 -174 58 -586 174
-728 205 -275 59 -416 82 -795 132 -76 10 -483 68 -760 109 -71 11 -152 24
-180 29 -27 5 -53 7 -56 5 -4 -2 -20 1 -35 6 -36 12 -451 67 -604 80 -174 15
-584 38 -780 45 -241 8 -375 14 -795 35 -187 9 -500 27 -625 35 -151 9 -230
18 -275 30 -48 13 -220 46 -315 60 -25 4 -72 15 -105 25 -33 10 -105 28 -160
40 -55 12 -154 35 -220 51 -162 39 -604 131 -930 194 -256 49 -443 86 -505
100 -36 8 -98 20 -138 25 -39 5 -92 14 -116 20 -24 5 -83 16 -132 25 -86 14
-127 22 -299 60 -44 9 -136 35 -203 57 -151 50 -158 58 -123 152 23 63 77 241
112 371 67 250 205 679 284 880 15 39 34 90 43 115 8 25 19 54 23 65 80 199
101 292 71 302 -18 7 -79 -64 -96 -111 -9 -23 -61 -162 -116 -311 -148 -395
-165 -446 -270 -805 -32 -108 -98 -382 -105 -435 -9 -66 -21 -85 -50 -85 -51
0 -85 117 -86 300 -1 151 31 334 76 435 7 17 28 68 45 115 52 137 78 200 124
290 147 290 235 430 411 650 51 63 118 158 149 210 31 52 71 108 88 124 36 33
13 33 373 -3 110 -11 288 -25 395 -31 210 -12 444 -31 660 -55 74 -9 176 -20
225 -25 50 -6 122 -14 160 -20 39 -5 135 -17 215 -25 367 -41 895 -116 1115
-159 61 -12 302 -57 375 -70 14 -2 68 -14 120 -25 287 -65 659 -137 1005 -195
398 -67 458 -76 509 -76 l51 1 -23 19 c-29 24 -112 45 -422 104 -102 20 -228
45 -280 55 -52 11 -156 31 -230 46 -74 14 -173 34 -220 44 -47 11 -125 28
-175 39 -49 12 -164 35 -255 52 -91 17 -185 35 -210 40 -25 5 -85 16 -135 24
-49 9 -144 25 -210 37 -66 12 -163 27 -215 35 -52 7 -174 24 -270 38 -263 39
-297 43 -525 71 -378 46 -448 54 -590 70 -77 8 -180 19 -230 25 -49 5 -162 14
-250 20 -317 19 -472 31 -610 46 -331 36 -350 36 -417 -12 -42 -30 -76 -81
-97 -147 -17 -51 -148 -248 -248 -372 -129 -161 -325 -489 -385 -647 -52 -138
-89 -247 -99 -288 -13 -57 -39 -112 -51 -108 -7 3 -11 286 -13 773 -2 424 -6
813 -9 865 -4 52 -11 174 -16 270 -6 96 -15 216 -20 265 -13 121 -23 310 -45
895 -5 139 -28 399 -45 505 -5 33 -19 125 -30 205 -22 148 -47 300 -82 495
-10 61 -21 128 -24 149 -3 22 -10 48 -15 59 -6 10 -11 50 -11 88 0 38 -4 71
-9 75 -5 3 -10 29 -10 57 -1 29 -5 66 -9 82 -4 17 -8 -68 -8 -190z m9992
-4390 c37 -19 74 -35 81 -35 14 0 233 -80 290 -105 17 -8 59 -26 95 -41 108
-44 193 -90 223 -120 23 -23 27 -34 23 -59 -8 -40 -63 -118 -164 -234 -139
-159 -288 -403 -493 -811 -76 -151 -145 -304 -169 -375 -23 -66 -48 -127 -56
-135 -14 -13 -17 -13 -28 3 -7 9 -16 43 -20 75 -47 380 -54 571 -32 892 16
239 48 551 67 650 27 147 63 306 72 318 15 19 39 14 111 -23z m-9545 -890 c22
-24 41 -53 41 -62 0 -21 -40 -158 -67 -228 -10 -27 -26 -51 -34 -53 -16 -3
-21 70 -23 313 -1 87 22 96 83 30z m184 -144 c37 -25 96 -47 212 -81 37 -10
185 -39 460 -89 198 -36 566 -106 640 -122 50 -10 142 -28 205 -39 63 -11 133
-25 155 -29 67 -15 142 -29 305 -56 161 -27 543 -98 618 -115 23 -6 53 -10 67
-10 42 0 36 -18 -8 -24 -46 -7 -189 -2 -382 15 -66 5 -203 16 -305 24 -187 14
-269 19 -635 39 -55 3 -210 8 -345 11 -779 16 -910 16 -1029 5 -68 -6 -135 -9
-148 -5 -29 7 -30 34 -3 118 42 132 79 264 85 307 14 89 38 100 108 51z m9167
-1203 c21 -59 31 -140 19 -155 -17 -20 -128 -18 -136 3 -7 19 77 184 93 184 7
0 17 -15 24 -32z"/>
<path d="M16505 16148 c-92 -50 -294 -349 -436 -643 -122 -254 -175 -386 -300
-754 -27 -79 -63 -168 -80 -197 -48 -85 -29 -152 38 -128 47 16 83 100 208
484 93 285 259 666 370 850 127 209 185 290 210 290 20 0 25 -52 25 -264 0
-301 29 -513 91 -651 29 -66 110 -150 165 -171 98 -37 230 3 335 102 95 91
169 214 248 411 54 134 125 275 210 417 71 119 82 151 59 174 -48 48 -96 -24
-327 -493 -152 -307 -216 -405 -310 -473 -75 -54 -173 -53 -240 3 -43 37 -86
150 -105 280 -10 67 -20 224 -25 400 -8 314 -13 339 -66 363 -32 15 -44 15
-70 0z"/>
<path d="M2994 15486 c-17 -13 -19 -28 -20 -148 -1 -73 -9 -205 -19 -293 -9
-88 -18 -239 -20 -335 -2 -193 -6 -229 -37 -342 -21 -75 -21 -78 -3 -98 10
-11 26 -20 35 -20 22 0 57 34 65 62 4 13 25 60 47 106 92 187 255 273 523 276
104 1 126 -2 167 -21 54 -25 82 -68 72 -110 -33 -131 -233 -308 -402 -355
-103 -28 -154 -24 -222 17 -62 38 -79 42 -98 23 -38 -38 21 -114 111 -144 66
-22 190 -14 272 16 196 73 401 272 434 421 35 154 -147 272 -391 255 -190 -14
-340 -76 -431 -178 -46 -51 -59 -60 -67 -48 -5 8 -8 22 -5 30 2 8 13 110 25
225 11 116 25 235 31 265 5 30 12 125 16 211 6 151 5 157 -15 177 -26 26 -41
27 -68 8z"/>
<path d="M19632 15464 l-30 -36 -140 17 c-78 10 -152 15 -167 11 -50 -13 -60
-97 -13 -112 12 -4 54 -6 93 -5 38 1 98 -1 133 -5 72 -7 73 -9 42 -100 -21
-60 -47 -199 -75 -404 -9 -63 -23 -148 -31 -187 -17 -83 -9 -113 31 -113 32 0
52 22 65 71 11 39 63 352 96 569 20 129 25 140 69 140 44 0 298 -43 444 -76
104 -23 115 -23 137 -9 57 37 16 74 -126 114 -107 29 -312 71 -353 71 -19 0
-49 3 -66 6 -25 5 -31 11 -31 33 0 29 -16 51 -36 51 -7 0 -26 -16 -42 -36z"/>
<path d="M18615 15474 c-38 -7 -86 -18 -105 -23 -19 -6 -47 -11 -62 -11 -15 0
-73 -24 -130 -52 -75 -39 -119 -69 -163 -113 -106 -106 -160 -259 -135 -382
40 -194 197 -298 398 -264 220 38 475 178 582 320 112 148 128 379 34 462 -79
70 -251 96 -419 63z m282 -110 c23 -8 56 -31 73 -50 25 -29 30 -43 30 -87 0
-92 -41 -192 -108 -264 -57 -61 -231 -159 -347 -196 -145 -46 -256 -46 -333
-1 -92 54 -126 214 -70 336 32 70 85 129 140 156 127 61 301 113 418 125 63 6
154 -3 197 -19z"/>
<path d="M6174 15172 c-33 -26 -51 -60 -79 -147 -15 -44 -56 -153 -91 -243
-36 -90 -63 -170 -60 -178 9 -24 35 -28 57 -8 25 23 84 136 151 294 27 63 62
136 79 161 33 52 37 98 11 122 -23 21 -41 21 -68 -1z"/>
<path d="M5195 14694 c-11 -2 -45 -9 -75 -15 -204 -39 -359 -131 -417 -247
-43 -88 -5 -210 97 -312 86 -86 228 -154 440 -212 181 -49 348 -43 366 14 10
33 -11 42 -111 44 -114 3 -174 15 -327 64 -218 71 -323 147 -367 265 -16 43
-18 60 -10 82 32 85 149 149 350 193 102 22 147 23 299 4 37 -5 49 -2 64 14
55 62 -51 114 -224 111 -36 -1 -74 -3 -85 -5z"/>
<path d="M4321 14574 c-12 -15 -21 -32 -21 -39 0 -20 35 -45 64 -45 46 0 66
17 66 55 0 58 -71 77 -109 29z"/>
<path d="M16593 14210 c-62 -31 -236 -180 -329 -282 -82 -90 -290 -411 -314
-483 -22 -70 -49 -114 -73 -120 -12 -3 -55 1 -95 10 -94 19 -115 19 -135 -3
-22 -24 -21 -44 1 -72 15 -18 31 -23 100 -27 61 -4 82 -9 82 -20 0 -8 -20 -44
-43 -81 -24 -37 -66 -107 -92 -157 -65 -121 -197 -344 -255 -430 -72 -108 -74
-112 -55 -141 20 -31 64 -32 92 -1 11 12 45 65 76 117 30 52 81 140 114 195
51 85 158 291 236 455 l22 45 150 -3 c169 -3 401 -25 519 -48 49 -9 98 -13
127 -9 86 12 85 13 93 -202 3 -103 9 -260 12 -348 l6 -160 -31 -29 c-35 -34
-39 -56 -13 -79 37 -34 95 -15 117 36 24 58 26 160 10 442 -9 154 -20 386 -25
516 -17 411 -43 690 -75 806 -30 104 -108 130 -222 73z m115 -82 c16 -35 48
-265 61 -453 38 -533 44 -487 -52 -448 -110 45 -382 83 -595 83 -109 0 -134 3
-138 15 -4 9 16 52 48 103 30 48 76 125 102 172 76 134 187 279 283 371 97 92
237 192 262 187 9 -2 22 -15 29 -30z"/>
<path d="M1211 13741 c-51 -39 -7 -72 144 -111 276 -71 796 -134 1360 -165
154 -9 384 -22 510 -30 127 -8 271 -15 322 -15 91 0 115 -8 95 -33 -22 -27
-51 -224 -51 -342 1 -85 -5 -88 -164 -79 -114 6 -129 5 -147 -11 -28 -25 -25
-60 8 -85 25 -21 33 -22 127 -15 55 4 113 7 129 8 l30 2 3 -279 c3 -298 6
-316 51 -302 39 13 44 51 41 310 -4 215 -2 247 12 261 14 14 53 17 250 21 300
6 378 14 393 36 8 14 7 22 -7 35 -14 15 -49 18 -244 25 -144 5 -253 4 -295 -2
-102 -15 -117 -3 -92 80 21 72 44 215 44 281 0 77 9 82 101 65 41 -8 137 -20
214 -26 77 -6 203 -17 280 -25 77 -9 212 -22 300 -30 88 -9 196 -20 240 -25
44 -6 110 -10 147 -10 37 0 69 -4 73 -9 4 -8 -28 -184 -74 -401 -6 -25 -13
-70 -16 -100 -13 -119 -47 -223 -111 -346 -48 -93 -64 -133 -65 -168 -2 -44 0
-48 69 -114 60 -59 81 -72 142 -92 59 -19 83 -22 143 -16 187 17 397 140 471
276 90 166 -29 335 -273 385 -83 18 -170 9 -250 -25 -28 -13 -55 -20 -58 -16
-4 4 1 37 11 74 57 205 96 383 96 436 0 56 17 96 41 96 10 0 40 -4 66 -9 26
-5 98 -14 158 -20 173 -17 399 -39 530 -50 144 -13 407 -37 565 -51 63 -6 214
-19 335 -30 415 -38 580 -50 692 -50 62 0 113 -2 113 -4 0 -2 -16 -30 -35 -61
-33 -56 -56 -120 -74 -208 -5 -23 -20 -94 -34 -157 -22 -102 -32 -180 -28
-217 0 -7 9 -13 19 -13 40 0 67 60 108 230 50 213 109 377 148 409 12 10 47
10 178 -1 225 -18 663 -14 712 6 24 10 36 21 36 35 0 29 -34 33 -250 29 -294
-4 -410 0 -410 15 0 7 -6 22 -14 33 -14 18 -29 19 -293 19 -228 0 -310 4 -453
22 -240 31 -298 40 -350 53 -24 6 -52 9 -62 7 -9 -3 -43 1 -75 9 -64 15 -143
18 -143 6 0 -4 43 -15 96 -24 87 -15 126 -29 113 -42 -3 -3 -59 -1 -124 5 -66
5 -172 14 -235 19 -180 15 -415 37 -525 49 -55 6 -192 20 -305 31 -380 36
-433 41 -835 86 -456 50 -776 80 -990 94 -93 5 -186 12 -205 15 -19 3 -64 7
-100 10 -36 2 -85 7 -110 10 -44 5 -130 10 -650 40 -494 29 -627 40 -900 81
-288 42 -406 65 -573 109 -71 18 -67 19 -96 -4z m4246 -1165 c29 -9 68 -32 89
-51 36 -34 37 -36 32 -93 -3 -33 -15 -73 -27 -92 -29 -49 -132 -124 -221 -162
-70 -30 -83 -33 -190 -33 -103 0 -119 2 -157 24 -23 13 -44 30 -47 37 -8 20
71 235 103 281 32 45 88 86 142 102 47 14 213 6 276 -13z"/>
<path d="M18073 13490 c-38 -16 -147 -199 -197 -333 -42 -112 -94 -296 -115
-407 -33 -170 -80 -479 -87 -568 -6 -75 -10 -87 -45 -134 -45 -60 -49 -91 -15
-113 22 -15 28 -15 53 -2 15 8 37 28 49 44 46 62 57 97 65 200 19 269 99 687
182 961 27 90 76 194 92 199 7 2 15 -83 23 -244 22 -452 91 -777 192 -905 49
-63 138 -93 225 -77 64 12 116 47 156 105 80 117 102 249 119 734 6 146 13
286 16 311 5 35 2 49 -11 63 -16 15 -19 16 -35 1 -18 -16 -29 -84 -50 -305
-33 -354 -52 -531 -65 -594 -33 -157 -99 -231 -198 -223 -58 5 -86 29 -120
101 -79 169 -121 419 -137 831 -11 266 -22 340 -50 355 -21 11 -18 11 -47 0z"/>
<path d="M19512 13410 c-94 -31 -160 -102 -227 -244 -123 -262 -154 -459 -155
-968 0 -255 1 -269 20 -288 24 -24 39 -25 65 -6 18 13 19 34 19 407 1 341 3
403 19 462 9 37 24 97 33 135 19 81 76 232 109 287 33 56 73 92 124 110 140
49 267 -21 461 -252 122 -147 190 -304 190 -443 0 -197 -189 -416 -591 -685
-140 -93 -325 -186 -385 -193 -42 -4 -48 -2 -78 32 -19 20 -40 36 -49 36 -43
0 -55 -84 -18 -124 53 -56 150 -58 277 -5 94 39 348 198 499 313 210 159 367
335 416 465 60 161 17 371 -117 572 -57 85 -211 259 -274 308 -116 92 -224
118 -338 81z"/>
<path d="M6500 13291 c0 -12 23 -19 72 -23 47 -3 59 8 24 22 -34 13 -96 13
-96 1z"/>
<path d="M2400 13031 c-103 -33 -163 -71 -251 -160 -97 -98 -138 -171 -147
-264 -4 -54 -3 -60 24 -88 53 -55 185 -67 287 -25 107 44 292 172 409 282 86
82 102 73 113 -66 20 -244 122 -490 204 -490 34 0 80 22 86 41 9 27 0 37 -46
49 -36 10 -44 18 -64 63 -42 91 -68 229 -69 361 l-1 118 -46 42 c-73 65 -164
124 -220 140 -71 22 -209 20 -279 -3z m302 -92 c69 -18 65 -22 -132 -161 -156
-110 -233 -156 -309 -185 -75 -28 -147 -28 -165 0 -17 27 37 118 119 203 135
137 311 189 487 143z"/>
<path d="M6540 12546 c-113 -24 -216 -112 -244 -207 -51 -171 31 -336 212
-428 69 -35 225 -64 306 -57 110 10 195 57 166 91 -11 13 -32 14 -130 9 -131
-8 -188 2 -285 46 -140 64 -191 131 -183 241 6 81 43 134 122 173 84 43 178
43 257 2 63 -33 103 -31 120 8 16 34 -2 61 -59 90 -88 44 -179 55 -282 32z"/>
<path d="M6021 12464 c-28 -35 -26 -69 4 -99 29 -30 68 -32 95 -5 29 29 25 57
-14 96 -41 41 -58 42 -85 8z"/>
<path d="M0 11522 c0 -26 4 -41 10 -37 13 8 13 45 0 65 -7 11 -10 3 -10 -28z"/>
<path d="M0 11375 c0 -42 4 -64 10 -60 13 8 13 112 0 120 -6 4 -10 -18 -10
-60z"/>
<path d="M3 11033 c4 -137 9 -257 12 -268 3 -11 17 -130 30 -265 14 -135 35
-310 46 -390 11 -80 23 -179 26 -221 5 -73 4 -78 -18 -92 -13 -9 -41 -19 -61
-22 -37 -7 -38 -9 -38 -50 l0 -42 42 7 c112 18 158 45 171 99 3 14 -1 79 -9
145 -13 108 -38 312 -79 656 -7 63 -30 223 -49 355 -20 132 -36 254 -36 272 0
42 -9 63 -28 63 -13 0 -14 -29 -9 -247z"/>
<path d="M16180 10990 c-203 -14 -420 -92 -613 -221 -138 -93 -333 -321 -417
-488 -97 -195 -131 -441 -85 -625 50 -200 222 -412 438 -538 298 -174 610
-199 966 -79 153 52 372 174 478 264 68 59 174 183 213 251 161 282 162 622 3
941 -87 173 -238 329 -408 418 -110 58 -200 80 -335 83 -69 1 -177 -2 -240 -6z
m432 -124 c124 -42 191 -83 294 -179 216 -203 326 -543 268 -825 -37 -178
-145 -371 -265 -473 -171 -145 -424 -261 -674 -310 -281 -55 -568 20 -814 215
-116 91 -224 246 -258 370 -24 89 -28 240 -9 335 48 234 224 509 425 662 131
99 335 182 532 216 96 17 102 17 147 -1 84 -32 99 -32 129 3 26 29 31 31 78
25 27 -4 93 -21 147 -38z"/>
<path d="M4735 10790 c-12 -19 10 -32 72 -46 32 -7 83 -22 113 -33 30 -12 64
-21 76 -21 11 0 36 -8 55 -17 30 -15 57 -22 144 -36 11 -2 30 -9 42 -15 12 -7
35 -12 52 -12 17 0 48 -9 69 -20 21 -11 58 -24 82 -29 25 -6 83 -21 130 -34
47 -14 108 -30 135 -37 28 -6 63 -18 78 -26 16 -8 46 -14 68 -14 22 0 67 -12
101 -26 36 -15 72 -24 87 -21 16 3 38 -2 56 -13 41 -25 125 -37 125 -18 0 18
-70 49 -120 53 -22 1 -46 7 -53 12 -14 12 -112 34 -144 34 -12 -1 -34 11 -48
25 -17 17 -32 23 -45 19 -10 -3 -32 0 -47 8 -15 8 -52 17 -82 20 -29 4 -58 10
-65 15 -11 9 -58 25 -181 60 -38 11 -108 33 -155 47 -157 50 -355 103 -410
111 -64 8 -85 12 -106 19 -13 4 -25 2 -29 -5z"/>
<path d="M18572 10384 c-74 -25 -190 -86 -292 -155 -119 -79 -286 -281 -368
-444 -47 -95 -122 -326 -147 -455 -39 -199 -42 -550 -7 -622 22 -43 65 -46 94
-7 18 24 18 30 6 70 -9 31 -13 103 -12 239 2 315 45 516 159 739 68 134 125
216 207 298 136 139 376 263 506 263 78 0 130 -106 103 -210 -39 -146 -235
-343 -496 -497 -141 -84 -219 -108 -268 -81 -41 22 -85 26 -106 11 -48 -33 -3
-101 81 -124 44 -11 54 -20 483 -439 291 -284 475 -459 550 -523 39 -33 145
-133 238 -221 92 -89 172 -163 179 -165 6 -2 17 4 24 14 21 28 -1 56 -173 221
-87 83 -216 207 -288 275 -71 68 -231 228 -355 354 -275 282 -340 346 -430
426 -71 63 -84 85 -52 95 185 60 441 239 582 406 89 106 132 196 138 285 6 98
-11 155 -62 208 -32 33 -53 45 -94 54 -78 16 -119 13 -200 -15z"/>
<path d="M0 9975 c0 -36 15 -46 38 -23 16 16 15 23 -4 42 -24 25 -34 19 -34
-19z"/>
<path d="M10580 5770 c0 -13 5 -20 13 -17 6 2 12 10 12 17 0 7 -6 15 -12 18
-8 2 -13 -5 -13 -18z"/>
<path d="M10505 5129 c-10 -15 1 -23 20 -15 9 3 13 10 10 16 -8 13 -22 13 -30
-1z"/>
<path d="M10473 4978 c-37 -46 -39 -98 -4 -98 29 0 53 34 49 71 -3 36 -27 50
-45 27z"/>
<path d="M23367 3433 c-4 -3 -7 -15 -7 -25 0 -28 34 -19 38 10 3 21 -16 31
-31 15z"/>
<path d="M23740 2710 c0 -5 5 -10 10 -10 6 0 10 5 10 10 0 6 -4 10 -10 10 -5
0 -10 -4 -10 -10z"/>
<path d="M23349 2100 l-24 -20 24 -20 c28 -24 59 -23 75 3 9 15 6 21 -14 37
-31 24 -33 24 -61 0z"/>
<path d="M22287 2013 c-4 -3 -7 -12 -7 -20 0 -15 26 -18 34 -4 7 11 -18 33
-27 24z"/>
<path d="M14023 1997 c-8 -5 -30 -6 -49 -2 -67 12 -123 -4 -167 -49 -69 -69
-82 -75 -156 -70 -65 5 -152 -13 -158 -32 -9 -29 19 -38 142 -46 l127 -8 36
27 c49 37 99 61 142 67 66 9 95 19 116 38 18 16 32 18 75 14 30 -2 63 -7 74
-11 31 -9 100 19 100 41 0 16 -8 19 -50 21 -27 2 -87 6 -133 10 -46 5 -90 4
-99 0z"/>
<path d="M20134 2001 c-2 -2 -45 -5 -96 -6 -142 -3 -145 -4 -152 -22 -9 -23 9
-39 27 -25 11 9 23 9 51 -3 23 -10 43 -12 54 -7 18 10 123 8 179 -3 21 -4 40
-2 49 6 9 7 30 9 59 6 25 -4 47 -2 50 3 4 6 17 7 30 4 30 -8 41 12 19 37 -19
21 -59 26 -70 8 -4 -7 -21 -9 -43 -5 -46 8 -151 12 -157 7z"/>
<path d="M22656 2001 c-4 -5 -2 -12 3 -15 5 -4 12 -2 15 3 4 5 2 12 -3 15 -5
4 -12 2 -15 -3z"/>
<path d="M14383 1993 c-20 -8 -15 -41 8 -53 11 -6 32 -10 47 -9 15 1 35 -2 45
-6 19 -8 47 10 47 29 0 29 -105 56 -147 39z"/>
<path d="M20456 1983 c-4 -9 -2 -21 3 -26 15 -15 41 0 41 23 0 25 -35 28 -44
3z"/>
<path d="M22030 1990 c0 -5 5 -10 10 -10 6 0 10 5 10 10 0 6 -4 10 -10 10 -5
0 -10 -4 -10 -10z"/>
<path d="M14643 1974 c-9 -25 26 -49 98 -67 63 -16 69 -16 120 2 30 10 55 25
57 33 4 21 -70 39 -181 44 -73 3 -89 1 -94 -12z"/>
<path d="M21060 1976 c0 -17 27 -29 35 -16 4 6 3 15 0 20 -9 15 -35 12 -35 -4z"/>
<path d="M15068 1951 l-23 -19 21 -29 c16 -20 29 -27 47 -25 30 3 114 39 121
51 11 17 -22 31 -82 36 -49 4 -65 1 -84 -14z"/>
<path d="M14945 1950 c-4 -7 -3 -16 3 -22 14 -14 45 -2 40 15 -6 16 -34 21
-43 7z"/>
<path d="M15353 1950 c-45 -18 -16 -40 55 -40 35 0 40 10 16 34 -17 18 -38 19
-71 6z"/>
<path d="M15607 1952 c-43 -4 -107 -32 -71 -32 11 0 29 -9 38 -19 26 -29 105
-44 133 -25 14 9 33 12 48 8 18 -4 32 -1 45 11 19 17 21 17 55 -1 30 -16 38
-17 56 -6 18 12 24 11 43 -7 19 -18 25 -19 40 -8 10 7 16 22 14 33 -3 20 -14
22 -123 28 -27 1 -58 6 -68 10 -19 9 -143 13 -210 8z"/>
<path d="M15265 1939 c-10 -15 1 -23 20 -15 9 3 13 10 10 16 -8 13 -22 13 -30
-1z"/>
<path d="M16345 1939 c-247 -7 -299 -12 -311 -31 -8 -13 45 -57 70 -58 10 0
31 -11 47 -24 28 -24 31 -24 71 -10 23 8 47 19 54 25 8 6 69 9 166 7 84 -2
165 0 180 5 22 6 33 2 61 -22 18 -16 45 -33 60 -36 15 -4 40 -23 57 -41 29
-34 30 -38 31 -142 3 -192 6 -226 19 -269 12 -35 12 -53 1 -107 -7 -36 -10
-69 -6 -75 9 -16 35 -214 42 -321 5 -86 8 -98 34 -128 16 -18 29 -44 29 -57 0
-33 16 -40 46 -20 22 14 25 22 20 48 -8 43 -8 41 -1 132 5 52 3 106 -6 155 -7
41 -12 120 -11 175 2 58 -2 115 -9 135 -7 19 -15 78 -19 130 -4 52 -19 148
-34 214 -14 65 -26 135 -26 156 0 35 -40 106 -69 124 -10 6 -246 48 -246 44 0
-1 -112 -5 -250 -9z"/>
<path d="M8300 1902 c-16 -6 -24 -71 -10 -88 11 -12 27 -14 84 -8 83 8 139 40
134 77 -3 21 -8 22 -100 22 -54 0 -102 -1 -108 -3z"/>
<path d="M4054 1709 c-3 -6 -2 -15 2 -19 12 -12 38 5 30 19 -9 14 -23 14 -32
0z"/>
<path d="M1450 1645 c0 -8 9 -19 20 -25 21 -11 25 -4 14 24 -8 20 -34 21 -34
1z"/>
<path d="M23939 1644 c-10 -13 -10 -17 2 -25 8 -5 24 -9 37 -9 27 0 29 25 3
40 -25 13 -26 13 -42 -6z"/>
<path d="M24356 1643 c-9 -23 8 -37 38 -29 23 6 25 9 16 26 -13 24 -45 26 -54
3z"/>
<path d="M1764 1635 c-4 -9 -2 -21 4 -27 15 -15 44 -1 40 19 -4 23 -36 29 -44
8z"/>
<path d="M22980 1640 c-47 -3 -96 -11 -109 -16 -17 -8 -33 -8 -53 0 -20 7 -31
7 -39 -1 -16 -16 -3 -45 18 -42 10 1 31 -3 48 -10 31 -13 186 -10 238 4 25 7
34 2 72 -35 43 -42 43 -42 81 -29 22 7 43 16 47 20 13 10 -1 46 -21 53 -9 4
-30 14 -47 23 -16 9 -48 20 -70 24 -22 4 -49 9 -60 12 -11 2 -58 1 -105 -3z"/>
<path d="M24100 1640 c0 -5 5 -10 10 -10 6 0 10 5 10 10 0 6 -4 10 -10 10 -5
0 -10 -4 -10 -10z"/>
<path d="M24155 1640 c-11 -17 5 -30 36 -30 18 0 29 5 29 14 0 23 -53 36 -65
16z"/>
<path d="M24436 1641 c-3 -5 5 -16 19 -25 24 -16 25 -15 25 3 0 10 -7 22 -16
25 -20 8 -22 8 -28 -3z"/>
<path d="M1210 1625 c0 -8 5 -15 10 -15 6 0 10 7 10 15 0 8 -4 15 -10 15 -5 0
-10 -7 -10 -15z"/>
<path d="M1040 1615 c0 -8 7 -15 15 -15 8 0 15 7 15 15 0 8 -7 15 -15 15 -8 0
-15 -7 -15 -15z"/>
<path d="M22713 1623 c-13 -2 -23 -9 -23 -14 0 -11 54 -6 58 6 4 11 -6 14 -35
8z"/>
<path d="M22358 1612 c-17 -3 -26 -31 -10 -33 4 0 16 -3 27 -6 11 -3 39 -7 63
-10 37 -4 42 -3 42 16 0 13 -8 22 -22 25 -40 8 -82 12 -100 8z"/>
<path d="M22226 1588 c-21 -29 -12 -38 32 -31 49 7 62 21 38 39 -28 20 -52 17
-70 -8z"/>
<path d="M22160 1585 c0 -9 5 -15 11 -13 6 2 11 8 11 13 0 5 -5 11 -11 13 -6
2 -11 -4 -11 -13z"/>
<path d="M19836 1583 c-5 -5 -749 -16 -816 -12 -54 3 -95 3 -135 0 -11 0 -29
0 -40 0 -21 1 -453 -6 -1155 -17 -228 -4 -450 -6 -493 -5 -86 3 -117 -11 -117
-54 0 -46 11 -47 307 -41 153 4 422 9 598 12 176 3 406 7 510 9 365 6 1232 18
1450 19 143 1 236 6 265 14 25 7 60 16 78 20 41 9 45 23 10 40 -19 9 -93 13
-243 15 -119 2 -217 1 -219 0z"/>
<path d="M20825 1579 c-10 -15 1 -23 20 -15 9 3 13 10 10 16 -8 13 -22 13 -30
-1z"/>
<path d="M20996 1580 c-16 -5 -41 -7 -55 -4 -18 4 -32 0 -40 -10 -16 -19 -13
-20 79 -36 107 -19 197 -21 211 -4 15 18 35 18 42 0 8 -19 135 -10 160 12 17
15 17 17 -1 35 -17 17 -25 17 -80 7 -47 -8 -72 -8 -102 1 -31 9 -43 9 -55 -1
-8 -7 -22 -9 -32 -6 -30 12 -97 15 -127 6z"/>
<path d="M21442 1577 c-19 -22 4 -34 66 -34 44 -1 52 2 52 18 0 11 -7 19 -17
19 -10 0 -34 3 -53 6 -25 4 -40 2 -48 -9z"/>
<path d="M21805 1581 c-11 -19 3 -27 44 -23 44 4 57 22 17 22 -13 0 -31 3 -39
6 -8 3 -18 1 -22 -5z"/>
<path d="M22082 1573 c2 -10 10 -18 18 -18 8 0 16 8 18 18 2 12 -3 17 -18 17
-15 0 -20 -5 -18 -17z"/>
<path d="M13584 1500 c-21 -20 -98 -39 -117 -28 -21 11 -301 12 -630 2 -106
-3 -291 -7 -412 -9 -283 -4 -901 -17 -1030 -20 -137 -4 -740 -17 -960 -20 -99
-2 -279 -6 -400 -9 -121 -3 -305 -8 -410 -11 -104 -2 -271 -8 -370 -11 -99 -4
-272 -8 -385 -9 -256 -3 -947 -23 -1105 -31 -27 -2 -150 -4 -273 -5 -123 -1
-225 -6 -227 -10 -3 -4 -51 -6 -107 -4 -61 2 -116 -1 -136 -8 -26 -9 -37 -8
-53 1 -21 14 -123 8 -144 -8 -12 -9 -69 -7 -107 4 -16 5 -50 2 -89 -8 -50 -13
-69 -14 -97 -5 -25 8 -62 8 -145 0 -62 -6 -162 -10 -224 -9 -101 3 -114 1
-132 -17 -33 -32 -14 -46 49 -36 30 4 186 7 345 5 246 -2 294 0 314 13 17 11
26 12 30 4 5 -8 59 -10 179 -8 94 2 177 0 184 -4 7 -5 23 -2 36 7 19 12 33 13
83 4 33 -6 73 -9 87 -6 15 3 167 8 337 11 171 3 454 8 630 11 176 3 388 7 470
9 181 5 680 14 1170 20 198 2 425 7 505 10 80 3 285 7 455 10 171 3 409 7 530
10 773 16 926 19 1575 30 184 4 362 11 395 17 33 6 99 10 147 9 78 -2 88 -1
97 18 6 11 11 26 11 34 0 19 -65 58 -76 47z"/>
<path d="M13713 1500 c-27 -11 -28 -18 -9 -39 29 -32 41 -106 29 -177 -14 -80
-25 -94 -52 -70 -18 17 -21 16 -60 -8 -23 -15 -41 -32 -41 -40 0 -23 36 -46
73 -46 19 0 43 -7 51 -16 20 -20 21 -88 1 -104 -8 -7 -15 -22 -16 -34 0 -20
-1 -19 -10 3 -13 32 -26 17 -31 -34 -2 -33 1 -41 21 -51 14 -7 31 -24 38 -38
17 -32 52 -34 78 -6 15 17 17 32 11 132 -6 95 -4 125 12 188 44 167 39 233
-24 315 -28 37 -35 39 -71 25z"/>
<path d="M22655 1464 c-22 -8 -69 -17 -105 -20 -36 -3 -72 -10 -82 -15 -9 -5
-30 -9 -46 -9 -16 0 -36 -8 -45 -18 -15 -16 -15 -22 0 -72 8 -30 18 -58 22
-62 7 -8 62 11 157 52 58 26 92 22 124 -12 11 -12 20 -33 20 -48 0 -14 7 -53
16 -85 29 -105 29 -102 -4 -119 -25 -13 -96 -15 -488 -16 -538 -1 -643 -4
-744 -17 -85 -11 -120 -3 -120 27 0 24 34 40 85 40 40 0 53 15 32 38 -8 9 -18
27 -21 39 -12 40 -26 43 -122 32 -49 -6 -95 -16 -103 -22 -10 -9 -12 -29 -8
-82 9 -106 0 -115 -113 -115 -116 0 -125 8 -117 101 4 50 0 88 -17 155 -27
107 -49 152 -80 164 -13 5 -75 8 -139 8 -63 0 -124 5 -134 10 -11 6 -42 6 -83
0 -52 -7 -81 -6 -143 8 l-77 17 -25 -23 c-14 -13 -28 -39 -31 -59 -8 -43 -21
-61 -44 -61 -45 0 -63 -67 -36 -132 7 -18 20 -53 27 -78 14 -43 16 -45 52 -44
33 1 38 -1 35 -20 -2 -13 -11 -21 -23 -22 -38 -1 -95 -26 -106 -46 -13 -24 -7
-30 50 -48 35 -12 140 -14 520 -13 442 0 1391 10 1856 18 110 2 326 6 480 9
154 2 298 9 319 15 24 6 46 6 57 1 10 -6 30 -5 50 1 24 6 41 6 56 -2 15 -8 27
-9 35 -2 14 10 114 11 125 0 9 -9 43 -9 43 1 0 4 4 13 9 21 8 12 12 12 26 -2
12 -12 34 -17 75 -17 64 0 77 9 60 41 -7 11 -9 23 -6 27 11 10 29 -16 29 -42
0 -37 12 -40 43 -11 28 26 61 26 77 -1 6 -10 41 -13 160 -10 128 3 159 6 200
24 35 16 47 27 47 43 0 20 -1 21 -18 6 -21 -19 -102 -12 -115 9 -4 8 -12 14
-17 14 -15 0 -12 -38 3 -43 6 -2 9 -7 6 -11 -3 -3 -16 3 -29 14 -13 12 -34 20
-46 18 -12 -1 -27 2 -35 8 -8 6 -31 15 -53 18 -33 6 -38 5 -33 -8 7 -18 -18
-23 -28 -6 -3 6 -19 10 -34 10 -20 0 -31 -7 -39 -25 -15 -32 -27 -32 -48 1
-13 19 -23 25 -43 21 -31 -6 -51 1 -51 19 0 17 -12 18 -28 2 -8 -8 -15 -8 -27
2 -13 10 -18 10 -33 -2 -23 -20 -88 -32 -97 -18 -4 6 -17 10 -30 8 -12 -1 -29
3 -38 10 -13 11 -20 10 -42 -4 -27 -17 -27 -17 -23 7 2 17 -1 23 -12 20 -8 -3
-37 -7 -65 -9 -27 -2 -55 -8 -61 -13 -7 -6 -21 -5 -37 2 -18 8 -30 8 -45 0
-18 -9 -23 -8 -32 9 -15 27 -39 25 -50 -4 -13 -35 -35 -44 -88 -35 -76 13
-193 10 -252 -6 -30 -8 -68 -15 -84 -15 l-28 0 8 48 c11 58 8 208 -5 242 -5
14 -17 51 -26 83 -26 95 -62 114 -150 81z m-1945 -170 c115 -21 127 -30 136
-101 3 -32 15 -75 25 -95 25 -49 24 -55 -10 -73 -22 -11 -75 -16 -206 -19
l-176 -5 -37 35 c-31 29 -43 34 -85 34 l-48 0 6 33 c4 20 1 43 -9 62 -9 17
-16 38 -16 47 0 24 38 48 76 48 23 0 34 6 42 24 6 14 21 26 34 28 44 7 183 -3
268 -18z"/>
<path d="M21954 1440 c-33 -13 -38 -28 -19 -57 28 -42 5 -147 -26 -116 -7 7
-8 22 0 49 8 30 8 43 -4 61 -19 28 -36 29 -60 3 -10 -11 -22 -20 -27 -20 -5 0
-28 18 -52 40 l-43 40 -90 0 c-114 0 -126 -11 -146 -125 -19 -108 -13 -119 61
-110 90 11 117 34 67 57 -14 6 -25 15 -25 19 0 11 46 34 84 43 17 4 35 14 41
23 10 14 14 13 34 -8 30 -31 24 -89 -14 -147 -20 -30 -26 -48 -21 -67 4 -15
12 -25 19 -22 7 2 35 32 64 68 45 56 57 64 87 66 20 0 39 -3 42 -8 11 -18 54
-9 69 15 9 14 37 31 65 40 64 21 68 20 76 -9 8 -31 38 -50 52 -32 5 6 13 31
17 53 8 51 50 97 66 74 12 -18 4 -72 -18 -123 -26 -59 -4 -68 47 -21 68 64 72
132 12 190 -34 33 -41 36 -82 31 -35 -4 -51 -12 -72 -38 -26 -30 -29 -31 -45
-17 -20 19 -108 58 -126 57 -7 0 -22 -4 -33 -9z m-267 -56 c-3 -3 -12 -4 -19
-1 -8 3 -5 6 6 6 11 1 17 -2 13 -5z m363 -29 c0 -8 -4 -15 -10 -15 -5 0 -7 7
-4 15 4 8 8 15 10 15 2 0 4 -7 4 -15z"/>
<path d="M23255 1411 c-8 -13 13 -140 28 -171 16 -31 50 -31 108 0 48 24 57
25 81 3 15 -14 22 -14 42 -4 17 9 40 11 77 6 85 -12 112 -13 135 -3 15 7 30 5
53 -6 29 -16 35 -15 79 0 53 19 160 21 192 4 22 -12 152 -5 175 8 18 11 96 7
107 -5 10 -12 48 -9 73 6 5 3 17 6 25 6 47 4 50 6 50 31 0 26 -1 27 -52 20
-89 -13 -251 -16 -263 -6 -11 9 -104 13 -217 10 -31 -1 -66 4 -78 10 -16 8
-52 10 -121 5 -70 -5 -103 -4 -113 4 -11 9 -31 9 -83 1 -88 -14 -117 -14 -121
0 -5 15 -78 61 -122 77 -42 15 -47 16 -55 4z"/>
<path d="M19736 1333 c-1 -1 -308 -5 -681 -8 -374 -3 -779 -7 -900 -10 -121
-2 -402 -7 -625 -10 -446 -8 -430 -5 -430 -70 0 -44 31 -70 83 -69 61 1 828
14 1132 19 296 5 757 13 1280 22 198 3 379 5 402 4 56 -2 99 33 89 72 -3 15
-14 31 -24 36 -15 8 -319 21 -326 14z"/>
<path d="M5868 1303 c-20 -5 -32 -34 -18 -43 6 -4 40 -8 76 -8 50 -1 64 2 64
14 0 21 -82 46 -122 37z"/>
<path d="M5337 1292 c-10 -2 -29 -9 -42 -16 l-25 -13 26 -13 c17 -10 32 -11
52 -4 47 16 37 57 -11 46z"/>
<path d="M5736 1291 c-4 -6 -20 -8 -35 -5 -16 4 -37 2 -47 -4 -42 -23 75 -53
139 -35 12 3 17 12 15 26 -2 17 -11 23 -35 25 -17 2 -34 -1 -37 -7z"/>
<path d="M5515 1281 c-26 -4 -40 -11 -40 -21 0 -19 108 -35 136 -19 26 13 24
35 -3 43 -25 6 -34 6 -93 -3z"/>
<path d="M4970 1265 c0 -8 9 -15 20 -15 11 0 20 7 20 15 0 8 -9 15 -20 15 -11
0 -20 -7 -20 -15z"/>
<path d="M5405 1260 c-3 -6 1 -13 10 -16 19 -8 30 0 20 15 -8 14 -22 14 -30 1z"/>
<path d="M4720 1240 c0 -5 5 -10 10 -10 6 0 10 5 10 10 0 6 -4 10 -10 10 -5 0
-10 -4 -10 -10z"/>
<path d="M13069 1226 c-2 -2 -215 -7 -474 -11 -258 -4 -517 -9 -575 -10 -58
-2 -278 -6 -490 -9 -212 -3 -439 -8 -505 -11 -66 -3 -288 -8 -492 -10 -205 -2
-388 -6 -405 -9 -18 -3 -199 -8 -403 -11 -203 -4 -440 -9 -525 -12 -85 -3
-167 -5 -182 -4 -16 0 -36 0 -45 1 -21 0 -236 -7 -403 -14 -63 -3 -124 -5
-135 -4 -138 2 -770 -14 -784 -21 -13 -6 -105 -6 -231 0 -8 1 -96 -3 -195 -9
-99 -5 -185 -6 -190 -1 -6 4 -31 3 -55 -2 -50 -12 -171 -16 -186 -6 -6 3 -43
1 -84 -4 -54 -6 -83 -6 -103 2 -25 11 -31 9 -57 -16 -27 -26 -28 -26 -34 -7
-9 27 -34 35 -60 19 -14 -9 -49 -13 -101 -11 -44 1 -87 -2 -96 -7 -10 -5 -29
-3 -47 3 -26 10 -37 9 -67 -5 -45 -21 -79 -22 -110 -1 -27 18 -89 12 -138 -12
-21 -11 -32 -12 -48 -4 -11 7 -28 9 -37 5 -9 -4 -33 -9 -52 -11 -19 -2 -47 -9
-62 -15 -23 -9 -33 -8 -55 7 -34 22 -137 29 -152 10 -9 -11 -65 -13 -260 -10
-236 4 -249 3 -266 -16 -9 -10 -33 -24 -51 -30 -23 -8 -34 -18 -34 -30 0 -28
19 -34 40 -15 12 10 24 14 32 9 23 -15 72 -13 91 4 15 13 22 14 37 4 24 -15
62 -16 77 -1 6 6 57 10 129 10 124 -1 148 -3 250 -16 44 -5 68 -4 85 6 27 14
109 13 123 -2 15 -14 60 -11 92 5 15 8 35 12 43 8 9 -4 39 -7 66 -6 28 1 133
5 235 8 172 6 490 9 535 6 11 -1 75 1 142 4 78 5 129 3 142 -3 14 -8 33 -6 70
5 29 8 60 13 69 10 25 -8 118 -8 372 -1 124 3 329 7 455 9 127 1 399 6 605 10
206 4 479 9 605 11 127 2 356 7 510 10 154 3 426 8 605 10 179 3 426 7 550 10
124 2 387 7 585 10 436 7 762 13 1035 20 113 2 378 7 590 10 220 3 399 10 417
16 62 20 50 78 -23 109 -39 17 -69 20 -208 20 -90 0 -165 -2 -167 -4z"/>
<path d="M22350 1195 c-10 -12 -10 -19 -2 -27 16 -16 42 -2 42 22 0 24 -22 26
-40 5z"/>
<path d="M22040 1185 c-21 -26 -8 -49 33 -56 47 -7 65 10 49 46 -13 29 -61 35
-82 10z"/>
<path d="M21850 1155 c-10 -12 -9 -16 3 -21 17 -6 37 2 37 16 0 15 -29 19 -40
5z"/>
<path d="M21533 1148 c-25 -33 -24 -39 12 -54 30 -12 40 -13 63 -2 30 15 41
46 20 59 -20 13 -84 11 -95 -3z"/>
<path d="M24330 1065 c0 -8 5 -15 10 -15 6 0 10 7 10 15 0 8 -4 15 -10 15 -5
0 -10 -7 -10 -15z"/>
<path d="M19055 1059 c-11 -4 -81 -8 -155 -8 -310 -3 -948 -12 -1125 -16 -104
-3 -215 -4 -245 -3 -46 1 -184 0 -328 -2 -41 0 -82 -38 -82 -75 0 -16 12 -38
28 -54 l28 -28 214 3 c807 11 1769 29 1945 36 22 0 105 1 185 0 132 -1 327 -2
390 -1 14 0 48 2 75 3 28 2 64 4 80 5 50 2 60 14 45 51 -7 18 -27 46 -44 64
l-31 32 -430 -3 c-236 -1 -439 -5 -451 -7 -11 -3 -34 -2 -50 3 -16 4 -38 5
-49 0z"/>
<path d="M4490 1000 c-10 -19 -9 -21 12 -18 13 2 23 9 23 17 0 23 -23 24 -35
1z"/>
<path d="M4792 998 c2 -15 10 -23 23 -23 11 0 26 -4 34 -9 12 -8 30 7 31 26 0
12 -37 28 -65 28 -22 0 -26 -4 -23 -22z"/>
<path d="M4670 992 c0 -10 18 -27 44 -42 37 -20 47 -22 60 -11 14 11 13 16 -6
42 -17 23 -29 29 -60 29 -30 0 -38 -4 -38 -18z"/>
<path d="M4262 969 c-26 -10 -21 -29 7 -29 18 0 41 18 41 32 0 10 -19 9 -48
-3z"/>
<path d="M4068 953 c-29 -15 -38 -43 -14 -43 16 0 66 38 66 51 0 12 -20 10
-52 -8z"/>
<path d="M13317 954 c-1 -1 -171 -5 -377 -8 -638 -11 -875 -15 -1160 -21 -151
-3 -399 -8 -550 -10 -279 -5 -675 -13 -1010 -21 -102 -2 -279 -6 -395 -9 -115
-3 -329 -7 -475 -11 -146 -3 -341 -7 -435 -10 -93 -2 -269 -6 -390 -9 -121 -2
-274 -7 -340 -11 -66 -4 -135 -7 -152 -6 -18 1 -42 1 -53 2 -11 0 -26 0 -32
-1 -7 0 -37 2 -65 5 -40 5 -59 2 -77 -9 -18 -12 -30 -14 -43 -7 -10 6 -56 8
-103 5 -47 -3 -125 -6 -175 -7 -49 -1 -95 -5 -102 -9 -6 -4 -33 -3 -58 3 -31
7 -66 7 -108 0 -89 -14 -265 -18 -276 -7 -7 7 -15 7 -23 0 -14 -11 -53 -10
-81 2 -11 4 -28 2 -42 -5 -13 -7 -27 -10 -32 -7 -4 3 -28 1 -53 -3 -26 -5 -71
-5 -106 1 -49 7 -67 6 -90 -6 -34 -18 -93 -19 -127 -4 -18 8 -30 8 -45 0 -15
-8 -23 -8 -28 0 -4 7 -21 8 -48 4 -22 -4 -75 -8 -116 -8 -55 0 -78 -4 -86 -15
-8 -11 -22 -13 -60 -8 -27 3 -64 2 -82 -3 -28 -8 -34 -7 -45 10 -17 27 -86 26
-110 -1 -21 -24 -102 -27 -131 -5 -29 22 -48 19 -96 -16 l-43 -31 -17 22 c-12
15 -29 24 -51 24 -19 1 -43 7 -53 13 -15 8 -28 7 -55 -5 -71 -32 -88 -64 -56
-106 13 -17 18 -18 40 -6 19 10 30 11 50 2 33 -15 32 -16 38 8 7 27 41 26 92
-5 l42 -24 38 19 c29 15 42 17 52 9 9 -8 20 -8 41 0 32 14 64 10 86 -8 14 -12
19 -11 34 3 20 17 67 22 76 7 11 -17 77 -20 123 -4 35 12 50 13 64 5 13 -8 40
-9 90 -2 48 6 79 5 92 -2 13 -7 32 -6 61 2 23 6 65 9 96 5 93 -10 148 -9 165
5 11 9 19 9 28 2 8 -7 36 -9 73 -6 32 4 68 5 79 4 38 -3 310 2 350 7 48 5 116
7 210 4 39 -2 84 -2 100 -1 17 0 80 1 140 1 61 -1 136 4 168 10 38 7 63 7 70
0 7 -5 53 -7 107 -5 52 3 223 6 380 9 564 8 1077 17 1170 20 85 3 211 5 265 4
11 0 115 2 230 5 116 3 332 8 480 10 149 3 385 8 525 11 265 6 904 17 930 16
26 -1 160 1 295 4 72 1 330 5 575 9 682 10 767 13 802 34 25 14 29 21 24 47
-8 39 -43 74 -80 79 -40 6 -145 13 -149 10z"/>
<path d="M3952 933 c2 -10 10 -18 18 -18 8 0 16 8 18 18 2 12 -3 17 -18 17
-15 0 -20 -5 -18 -17z"/>
<path d="M3280 915 c0 -8 5 -15 10 -15 6 0 10 7 10 15 0 8 -4 15 -10 15 -5 0
-10 -7 -10 -15z"/>
<path d="M3610 920 c0 -5 5 -10 11 -10 5 0 7 5 4 10 -3 6 -8 10 -11 10 -2 0
-4 -4 -4 -10z"/>
<path d="M24186 802 c-3 -6 -1 -14 5 -17 15 -10 25 3 12 16 -7 7 -13 7 -17 1z"/>
<path d="M24402 799 c2 -6 8 -10 13 -10 5 0 11 4 13 10 2 6 -4 11 -13 11 -9 0
-15 -5 -13 -11z"/>
<path d="M20430 789 c-36 -5 -94 -11 -130 -13 -50 -3 -66 -7 -68 -20 -2 -9 0
-16 5 -17 211 -15 550 -16 673 -2 55 7 65 11 65 28 0 12 -9 22 -25 26 -36 10
-442 8 -520 -2z"/>
<path d="M21265 789 c-79 -5 -115 -14 -115 -29 0 -11 109 -21 225 -21 143 -1
158 0 175 11 51 32 -99 53 -285 39z"/>
<path d="M21591 790 c-7 -4 -11 -16 -9 -25 2 -16 16 -19 83 -23 152 -8 190 -4
190 23 0 17 -8 20 -59 23 -32 2 -72 -1 -87 -7 -21 -7 -40 -6 -68 4 -21 7 -44
10 -50 5z"/>
<path d="M21996 787 c-10 -8 -29 -12 -42 -9 -17 3 -24 0 -24 -11 0 -10 16 -16
51 -21 58 -8 81 3 63 31 -14 23 -27 26 -48 10z"/>
<path d="M22235 790 c-7 -12 2 -30 16 -30 12 0 12 27 0 35 -5 3 -12 1 -16 -5z"/>
<path d="M22101 780 c-21 -12 -5 -42 21 -38 12 2 23 8 25 15 6 16 -30 34 -46
23z"/>
<path d="M22300 770 c0 -5 9 -10 20 -10 11 0 20 5 20 10 0 6 -9 10 -20 10 -11
0 -20 -4 -20 -10z"/>
<path d="M13679 753 c-33 -42 -59 -83 -59 -96 0 -28 59 -41 172 -39 60 1 118
7 129 12 11 6 40 8 68 4 34 -4 51 -3 56 6 13 22 -24 40 -65 34 -23 -4 -40 -2
-44 5 -4 6 -23 11 -42 11 -26 0 -45 9 -78 40 -35 33 -50 40 -83 40 -26 0 -45
-6 -54 -17z"/>
<path d="M18754 749 c-10 -17 13 -36 27 -22 12 12 4 33 -11 33 -5 0 -12 -5
-16 -11z"/>
<path d="M18890 750 c0 -5 12 -10 26 -10 14 0 23 4 19 10 -3 6 -15 10 -26 10
-10 0 -19 -4 -19 -10z"/>
<path d="M19500 750 c0 -12 17 -12 45 0 17 7 15 9 -12 9 -18 1 -33 -3 -33 -9z"/>
<path d="M4815 740 c-4 -7 -3 -16 2 -21 12 -12 45 0 40 15 -5 15 -34 19 -42 6z"/>
<path d="M5047 743 c-28 -3 -40 -10 -47 -27 -7 -20 -28 -36 -46 -36 -3 0 -9
12 -15 28 -10 26 -11 26 -25 8 -8 -11 -14 -30 -14 -43 0 -19 5 -23 34 -23 18
0 39 7 46 15 7 8 23 15 35 15 18 0 22 -4 18 -20 -6 -23 5 -25 55 -10 23 6 39
6 52 -2 19 -12 50 -5 50 12 0 6 -11 15 -24 20 -17 6 -26 18 -28 37 -3 30 -16
34 -91 26z"/>
<path d="M17785 739 c-10 -15 1 -23 20 -15 9 3 13 10 10 16 -8 13 -22 13 -30
-1z"/>
<path d="M18345 740 c-3 -5 1 -10 10 -10 9 0 13 5 10 10 -3 6 -8 10 -10 10 -2
0 -7 -4 -10 -10z"/>
<path d="M18610 739 c0 -5 5 -7 10 -4 6 3 10 8 10 11 0 2 -4 4 -10 4 -5 0 -10
-5 -10 -11z"/>
<path d="M19010 740 c0 -5 7 -10 15 -10 8 0 15 5 15 10 0 6 -7 10 -15 10 -8 0
-15 -4 -15 -10z"/>
<path d="M17356 732 c-3 -6 -1 -14 5 -17 15 -10 25 3 12 16 -7 7 -13 7 -17 1z"/>
<path d="M18170 730 c0 -5 7 -10 15 -10 8 0 15 5 15 10 0 6 -7 10 -15 10 -8 0
-15 -4 -15 -10z"/>
<path d="M3894 718 c-4 -6 1 -17 11 -24 10 -7 15 -20 12 -29 -9 -21 -24 -19
-30 5 -6 25 -23 26 -36 2 -8 -16 -4 -21 30 -36 48 -21 62 -17 82 23 14 28 14
31 -1 31 -10 0 -23 9 -30 20 -14 23 -27 26 -38 8z"/>
<path d="M17220 720 c0 -5 14 -10 30 -10 17 0 30 5 30 10 0 6 -13 10 -30 10
-16 0 -30 -4 -30 -10z"/>
<path d="M4024 688 c9 -46 30 -65 51 -48 13 11 13 15 2 29 -8 9 -17 24 -20 34
-4 9 -14 17 -23 17 -13 0 -15 -6 -10 -32z"/>
<path d="M4547 713 c-4 -3 -7 -17 -7 -30 0 -18 -5 -24 -20 -21 -40 6 -23 -14
27 -31 59 -20 85 -13 66 17 -8 14 -8 23 -1 30 18 18 1 42 -30 42 -16 0 -32 -3
-35 -7z"/>
<path d="M4715 700 c-11 -17 15 -50 40 -50 32 0 41 17 19 41 -18 20 -49 25
-59 9z"/>
<path d="M3125 690 c-8 -14 3 -30 21 -30 8 0 14 9 14 20 0 21 -24 28 -35 10z"/>
<path d="M4195 681 c-6 -11 9 -23 19 -14 9 9 7 23 -3 23 -6 0 -12 -4 -16 -9z"/>
<path d="M4330 681 c0 -6 5 -13 10 -16 6 -3 10 1 10 9 0 9 -4 16 -10 16 -5 0
-10 -4 -10 -9z"/>
<path d="M4411 681 c-20 -13 -6 -27 26 -26 18 0 28 5 28 15 0 17 -34 24 -54
11z"/>
<path d="M23085 673 c-53 -13 -38 -43 21 -43 47 0 61 -23 28 -45 -22 -14 -30
-15 -50 -5 -12 7 -29 10 -36 7 -10 -3 -18 9 -27 39 -13 44 -34 57 -45 29 -3
-8 -16 -15 -30 -15 -13 0 -26 7 -30 15 -7 19 -55 20 -62 1 -3 -8 -1 -24 6 -35
8 -15 8 -27 0 -41 -13 -24 -20 -25 -44 -7 -16 12 -17 16 -5 36 17 27 6 36 -59
46 -60 9 -77 -8 -39 -39 34 -28 38 -62 5 -51 -13 3 -42 6 -65 5 -23 0 -58 6
-79 15 -36 15 -38 15 -63 -9 -19 -17 -32 -22 -46 -16 -23 8 -221 5 -280 -5
-22 -4 -47 -6 -55 -6 -8 1 -57 3 -108 5 -51 1 -95 6 -99 9 -3 4 -18 -1 -34
-10 -22 -13 -33 -15 -51 -5 -13 6 -38 14 -55 17 -18 4 -34 12 -35 18 0 7 -2
18 -2 26 -1 8 -7 16 -15 19 -10 3 -12 -1 -8 -17 6 -25 -14 -28 -37 -5 -24 23
-55 9 -53 -24 2 -24 -2 -27 -47 -36 -35 -6 -59 -5 -82 3 -24 9 -39 9 -53 1
-11 -5 -35 -10 -53 -9 -18 0 -71 -3 -118 -6 -85 -7 -142 -8 -320 -4 -52 1
-105 -1 -116 -5 -15 -5 -24 -2 -28 9 -5 13 -17 15 -62 12 -66 -5 -85 -23 -53
-49 24 -20 70 -23 100 -7 14 7 24 7 33 0 9 -7 223 -9 692 -5 373 3 736 4 806
4 80 -1 135 3 149 11 25 13 220 17 257 5 16 -5 29 -3 40 7 11 10 28 13 44 10
19 -4 30 -1 34 10 6 17 40 12 47 -7 4 -9 67 -11 253 -9 283 3 291 3 359 2 28
0 84 2 125 5 76 6 107 7 170 4 19 -1 52 2 73 6 29 5 37 11 37 29 0 37 -14 50
-48 42 -18 -3 -40 -1 -52 5 -16 9 -25 8 -35 0 -12 -10 -95 -15 -192 -10 -18 1
-46 -6 -61 -16 -24 -14 -35 -15 -62 -6 -22 8 -38 8 -51 2 -14 -8 -27 -6 -49 5
-37 19 -31 40 6 23 22 -11 28 -9 40 7 12 16 12 21 -1 35 -18 18 -109 17 -131
-1 -14 -11 -97 -5 -119 9 -5 4 -14 7 -20 8 -5 1 -17 4 -25 7 -8 2 -24 2 -35 0z
m115 -63 c0 -5 -4 -10 -9 -10 -6 0 -13 5 -16 10 -3 6 1 10 9 10 9 0 16 -4 16
-10z m103 -10 c16 0 26 -4 22 -10 -3 -5 -26 -10 -51 -10 -34 0 -44 4 -44 16 0
12 6 15 23 10 12 -3 35 -6 50 -6z m-333 -8 c0 -12 -51 -34 -59 -27 -7 8 28 35
46 35 7 0 13 -4 13 -8z"/>
<path d="M23855 670 c-3 -6 1 -13 10 -16 19 -8 30 0 20 15 -8 14 -22 14 -30 1z"/>
<path d="M4826 661 c-4 -7 -5 -15 -2 -18 9 -9 19 4 14 18 -4 11 -6 11 -12 0z"/>
<path d="M13056 663 c-3 -3 -38 -7 -78 -8 -40 -2 -76 -4 -80 -4 -13 -2 -9 -31
5 -32 34 -4 113 4 121 11 5 5 16 5 25 1 38 -21 156 -11 148 12 -2 6 -28 13
-58 14 -30 2 -59 5 -66 8 -6 2 -14 1 -17 -2z"/>
<path d="M13406 654 c-13 -33 24 -46 65 -23 16 8 18 13 8 25 -16 19 -65 18
-73 -2z"/>
<path d="M14085 659 c-10 -15 1 -23 20 -15 9 3 13 10 10 16 -8 13 -22 13 -30
-1z"/>
<path d="M22522 654 c4 -21 22 -23 26 -1 2 10 -3 17 -13 17 -10 0 -15 -6 -13
-16z"/>
<path d="M23713 663 c-18 -7 -16 -43 2 -43 9 0 15 9 15 25 0 14 -1 25 -2 24
-2 0 -9 -3 -15 -6z"/>
<path d="M12467 642 c-13 -13 -21 -14 -39 -4 -25 13 -79 4 -85 -15 -2 -6 6
-13 19 -16 31 -8 148 15 148 29 0 20 -26 23 -43 6z"/>
<path d="M12694 651 c-3 -3 -20 -6 -37 -6 -43 0 -41 -19 3 -23 108 -10 216 5
195 27 -8 8 -153 10 -161 2z"/>
<path d="M13247 653 c-14 -13 -6 -33 12 -33 21 0 45 23 34 33 -8 9 -38 9 -46
0z"/>
<path d="M13340 651 c0 -5 11 -11 25 -13 28 -6 34 6 9 16 -22 8 -34 7 -34 -3z"/>
<path d="M20006 653 c-1 -2 -162 -5 -357 -8 -661 -10 -1254 -17 -1279 -17 -49
1 -399 -5 -505 -9 -16 0 -97 -1 -180 -1 -486 1 -525 -3 -525 -49 0 -14 7 -19
30 -19 17 0 30 -4 30 -10 0 -5 -9 -10 -21 -10 -11 0 -28 -4 -38 -10 -10 -5
-56 -16 -102 -24 -117 -20 -180 -40 -194 -59 -7 -9 -17 -17 -22 -17 -5 0 -17
-8 -26 -18 -20 -21 -9 -42 24 -47 13 -1 31 -6 39 -9 10 -4 30 7 56 32 61 56
93 62 325 62 112 -1 211 -1 219 -1 8 0 159 3 335 7 176 4 336 7 355 6 147 -3
264 -1 278 6 9 5 76 5 147 -1 79 -5 142 -5 160 0 18 6 63 6 108 1 43 -4 86 -4
95 0 9 5 57 5 107 1 49 -4 135 -4 190 0 55 4 152 6 215 5 63 -2 129 2 146 7
21 6 53 6 93 0 46 -8 69 -7 94 3 24 10 51 11 112 4 44 -5 118 -9 165 -8 47 1
96 2 110 2 88 -3 361 3 375 8 6 2 23 0 38 -5 23 -6 33 -3 50 13 18 18 19 23 6
38 -12 15 -33 16 -234 8 -121 -4 -240 -6 -265 -4 -57 4 -100 3 -176 -5 -46 -5
-68 -3 -90 8 -18 9 -36 12 -44 7 -7 -4 -56 -5 -109 -2 -111 6 -148 6 -251 -2
-108 -8 -147 -6 -167 7 -26 16 -13 30 22 24 25 -4 37 -1 43 9 6 11 14 13 33 6
14 -6 34 -6 47 -1 13 5 28 6 34 3 5 -3 47 -7 94 -9 46 -2 91 -8 98 -15 11 -8
19 -8 34 1 15 9 27 9 52 0 27 -9 38 -8 55 3 23 15 105 16 139 1 13 -6 21 -5
24 3 2 7 26 12 62 12 32 0 62 5 65 10 4 6 16 8 27 4 11 -3 31 0 44 7 19 10 27
10 36 1 18 -18 36 -15 48 8 9 17 6 21 -26 35 -29 12 -49 13 -97 5 -38 -6 -65
-6 -72 0 -10 8 -71 10 -79 3z m-981 -103 c-6 -10 -75 -14 -75 -5 0 3 5 14 12
24 11 18 14 18 40 5 16 -8 26 -19 23 -24z m253 16 c10 -10 6 -16 -26 -30 -37
-17 -41 -17 -65 -1 -15 9 -40 15 -59 13 -43 -4 -46 24 -3 34 42 9 137 0 153
-16z m-378 -1 c19 -23 7 -29 -65 -33 -110 -7 -73 35 41 47 6 0 17 -6 24 -14z
m-845 -16 c11 -17 -12 -17 -35 1 l-24 18 27 -5 c15 -3 30 -9 32 -14z m222 4
c6 -17 -30 -34 -48 -22 -12 8 -11 12 6 24 21 16 37 15 42 -2z m93 -13 c0 -6
-13 -10 -30 -10 -32 0 -37 9 -18 28 12 12 48 -1 48 -18z m-412 3 c5 -17 -26
-29 -40 -15 -6 6 -7 15 -3 22 9 14 37 9 43 -7z m711 11 c44 -9 39 -24 -8 -24
-46 0 -73 9 -65 21 6 11 29 11 73 3z m-1029 -12 c0 -14 -11 -21 -26 -15 -8 3
-11 9 -8 14 7 11 34 12 34 1z m560 -1 c0 -16 -19 -23 -40 -16 -30 10 -24 25
10 25 17 0 30 -4 30 -9z m240 -7 c0 -9 -7 -14 -17 -12 -25 5 -28 28 -4 28 12
0 21 -6 21 -16z m90 6 c0 -5 -9 -10 -20 -10 -11 0 -20 5 -20 10 0 6 9 10 20
10 11 0 20 -4 20 -10z"/>
<path d="M21157 644 c-18 -10 -33 -12 -45 -6 -9 5 -61 10 -115 11 -79 1 -98
-1 -103 -13 -4 -11 -11 -13 -23 -7 -26 14 -49 -4 -35 -26 15 -24 48 -28 83
-10 19 9 33 11 39 5 5 -5 66 -11 136 -12 120 -3 127 -2 151 20 32 30 32 44 -2
42 -16 -1 -35 2 -43 5 -8 3 -27 0 -43 -9z"/>
<path d="M21327 648 c-32 -25 -24 -41 21 -44 46 -2 55 12 26 40 -19 19 -25 20
-47 4z"/>
<path d="M22430 650 c0 -5 5 -10 10 -10 6 0 10 5 10 10 0 6 -4 10 -10 10 -5 0
-10 -4 -10 -10z"/>
<path d="M12178 644 c-4 -3 -38 -6 -77 -5 -40 0 -73 -4 -76 -10 -11 -17 1 -21
67 -20 107 2 123 5 123 21 0 15 -26 25 -37 14z"/>
<path d="M12261 641 c-19 -12 -6 -41 17 -41 11 0 25 7 33 16 10 13 10 17 -2
25 -18 11 -30 11 -48 0z"/>
<path d="M12545 640 c-4 -7 -3 -16 3 -22 14 -14 47 -6 47 12 0 18 -40 26 -50
10z"/>
<path d="M20383 643 c-19 -7 -16 -50 4 -57 22 -9 35 6 31 35 -3 24 -15 31 -35
22z"/>
<path d="M21881 641 c-21 -14 -5 -41 24 -41 29 0 45 27 24 41 -8 5 -18 9 -24
9 -5 0 -16 -4 -24 -9z"/>
<path d="M21955 641 c-7 -12 12 -24 25 -16 11 7 4 25 -10 25 -5 0 -11 -4 -15
-9z"/>
<path d="M22060 640 c-13 -9 -13 -11 0 -20 21 -14 44 -8 48 13 4 19 -23 23
-48 7z"/>
<path d="M22280 640 c0 -5 5 -10 10 -10 6 0 10 5 10 10 0 6 -4 10 -10 10 -5 0
-10 -4 -10 -10z"/>
<path d="M23920 639 c0 -5 5 -7 10 -4 6 3 10 8 10 11 0 2 -4 4 -10 4 -5 0 -10
-5 -10 -11z"/>
<path d="M24150 625 c-8 -22 -14 -24 -37 -19 -16 4 -35 13 -44 21 -14 12 -18
11 -32 -9 -15 -22 -16 -22 -30 -4 -19 26 -34 14 -42 -35 -5 -30 -3 -44 6 -50
15 -9 57 -2 76 13 6 5 58 5 125 0 88 -6 124 -5 162 6 39 11 53 12 71 2 13 -7
35 -10 49 -6 23 6 26 12 26 48 0 39 -1 40 -19 24 -24 -22 -115 -33 -135 -17
-10 8 -30 10 -59 6 -34 -5 -48 -3 -60 10 -10 9 -17 21 -17 26 0 20 -31 8 -40
-16z"/>
<path d="M11702 632 c-10 -7 -8 -12 6 -25 22 -20 54 -12 50 12 -4 18 -36 26
-56 13z"/>
<path d="M11803 625 c-26 -19 0 -26 72 -19 41 4 64 11 62 18 -5 15 -113 16
-134 1z"/>
<path d="M20313 633 c-15 -5 -18 -43 -4 -43 9 0 26 39 19 44 -1 2 -9 1 -15 -1z"/>
<path d="M20466 631 c-9 -14 4 -41 20 -41 8 0 14 6 14 14 0 18 -26 40 -34 27z"/>
<path d="M20650 625 c0 -31 117 -39 127 -8 7 20 -36 26 -62 9 -22 -15 -25 -15
-25 -1 0 8 -9 15 -20 15 -11 0 -20 -7 -20 -15z"/>
<path d="M21430 630 c0 -5 5 -10 11 -10 5 0 7 5 4 10 -3 6 -8 10 -11 10 -2 0
-4 -4 -4 -10z"/>
<path d="M21472 628 c5 -15 35 -34 43 -27 3 4 3 14 -1 23 -7 18 -48 23 -42 4z"/>
<path d="M22220 626 c0 -9 7 -16 16 -16 9 0 14 5 12 12 -6 18 -28 21 -28 4z"/>
<path d="M3380 615 c0 -9 5 -15 11 -13 6 2 11 8 11 13 0 5 -5 11 -11 13 -6 2
-11 -4 -11 -13z"/>
<path d="M11333 617 c-11 -18 13 -22 140 -23 119 0 197 10 197 26 0 9 -331 7
-337 -3z"/>
<path d="M11085 610 c-3 -5 1 -10 10 -10 9 0 13 5 10 10 -3 6 -8 10 -10 10 -2
0 -7 -4 -10 -10z"/>
<path d="M10560 595 c0 -17 2 -18 24 -9 18 7 12 24 -10 24 -8 0 -14 -7 -14
-15z"/>
<path d="M10699 596 c7 -8 22 -11 38 -8 25 5 25 6 8 13 -11 4 -28 8 -39 8 -14
1 -16 -2 -7 -13z"/>
<path d="M10840 600 c0 -5 5 -10 10 -10 6 0 10 5 10 10 0 6 -4 10 -10 10 -5 0
-10 -4 -10 -10z"/>
<path d="M10155 590 c-3 -5 1 -10 10 -10 9 0 13 5 10 10 -3 6 -8 10 -10 10 -2
0 -7 -4 -10 -10z"/>
<path d="M13336 543 c-1 -1 -116 -4 -256 -7 -140 -2 -365 -7 -500 -10 -135 -3
-387 -8 -560 -11 -173 -4 -351 -8 -395 -10 -44 -1 -269 -5 -500 -9 -231 -4
-469 -9 -530 -11 -60 -3 -288 -7 -505 -10 -390 -5 -714 -12 -900 -21 -123 -6
-148 -6 -190 -3 -19 2 -143 0 -275 -5 -132 -4 -348 -9 -480 -12 -505 -11 -643
-14 -725 -20 -47 -3 -101 -4 -120 -3 -105 9 -623 -7 -647 -19 -13 -7 -31 -9
-45 -4 -13 4 -63 7 -113 5 -161 -4 -180 -7 -180 -23 0 -19 47 -35 71 -25 41
17 74 0 74 -39 0 -17 -7 -18 -97 -12 -54 3 -101 5 -105 6 -16 0 -7 18 11 23
17 4 34 50 23 62 -12 12 -111 5 -119 -9 -4 -8 -17 -16 -28 -18 -15 -3 -19 -10
-17 -30 2 -19 -4 -30 -19 -38 -26 -15 -152 -14 -179 0 -26 14 -26 47 0 55 26
8 25 22 -2 31 -29 10 -127 5 -149 -7 -11 -6 -20 -5 -24 1 -7 12 -52 14 -58 2
-3 -4 -8 -22 -12 -39 -8 -41 8 -43 47 -6 27 25 29 26 41 9 11 -16 22 -18 59
-12 38 6 47 4 52 -10 4 -10 1 -21 -6 -25 -22 -14 -135 -22 -202 -14 -44 4 -72
3 -88 -6 -12 -7 -63 -13 -113 -15 -135 -4 -157 -7 -169 -26 -13 -21 -4 -30 26
-29 77 5 186 10 201 10 9 0 50 -1 90 -1 39 -1 108 2 152 7 44 4 88 7 98 7 9
-1 67 -1 127 -1 113 0 137 0 168 -2 9 -1 109 2 222 6 113 4 261 9 330 11 69 2
139 4 155 5 17 1 47 -2 69 -5 24 -4 44 -2 52 5 10 8 39 10 87 6 40 -3 80 -1
89 4 11 6 41 6 80 0 42 -7 123 -7 243 -1 157 9 284 13 350 11 44 -1 536 8 775
14 140 4 343 8 450 10 107 1 305 6 440 11 135 4 257 7 273 6 83 -5 668 7 937
20 14 1 68 1 120 0 52 -1 147 0 210 2 63 2 239 6 390 9 568 11 716 16 755 23
22 4 51 6 65 5 14 -1 63 -1 110 0 47 1 99 1 115 1 99 -4 346 1 440 9 61 5 119
9 130 9 82 1 214 -1 235 -3 14 -1 102 -1 195 0 94 0 229 1 300 1 190 1 199 2
214 17 12 11 12 17 1 30 -9 11 -33 15 -99 15 -109 1 -121 1 -206 -3 -43 -2
-80 1 -96 9 -16 8 -41 11 -63 7 -40 -6 -76 16 -76 47 0 26 -48 41 -140 43 -45
1 -83 1 -84 0z m-536 -92 c0 -12 -28 -22 -34 -12 -3 5 -3 11 1 15 9 9 33 7 33
-3z m407 -6 c-5 -15 -77 -17 -77 -2 0 8 15 12 40 12 23 0 39 -4 37 -10z m181
-2 c-5 -26 -38 -29 -38 -4 0 15 6 21 21 21 14 0 19 -5 17 -17z m-1183 -13 c-3
-5 -10 -10 -16 -10 -5 0 -9 5 -9 10 0 6 7 10 16 10 8 0 12 -4 9 -10z m105 0
c0 -5 -5 -10 -11 -10 -5 0 -7 5 -4 10 3 6 8 10 11 10 2 0 4 -4 4 -10z m310 6
c0 -3 -4 -8 -10 -11 -5 -3 -10 -1 -10 4 0 6 5 11 10 11 6 0 10 -2 10 -4z
m-1250 -16 c0 -3 -16 -13 -34 -22 -28 -14 -37 -14 -52 -4 -9 7 -15 17 -11 22
5 9 97 13 97 4z m470 0 c0 -5 -4 -10 -10 -10 -5 0 -10 5 -10 10 0 6 5 10 10
10 6 0 10 -4 10 -10z m-1310 -8 c0 -14 -11 -21 -26 -15 -8 3 -11 9 -8 14 7 11
34 12 34 1z m110 -1 c0 -12 -39 -25 -48 -16 -7 7 17 25 36 25 6 0 12 -4 12 -9z
m94 3 c22 -8 10 -24 -19 -24 -25 0 -39 12 -28 24 8 8 27 8 47 0z m56 -4 c0 -5
-8 -10 -17 -10 -15 0 -16 2 -3 10 19 12 20 12 20 0z m110 0 c0 -5 -5 -10 -11
-10 -5 0 -7 5 -4 10 3 6 8 10 11 10 2 0 4 -4 4 -10z m-970 -15 c11 -13 8 -15
-13 -15 -26 0 -42 12 -30 24 11 11 30 7 43 -9z m380 6 c0 -15 -16 -22 -35 -15
-13 5 -14 8 -3 15 18 12 38 11 38 0z m50 -1 c0 -5 -4 -10 -10 -10 -5 0 -10 5
-10 10 0 6 5 10 10 10 6 0 10 -4 10 -10z m110 0 c0 -5 -4 -10 -10 -10 -5 0
-10 5 -10 10 0 6 5 10 10 10 6 0 10 -4 10 -10z m530 6 c0 -3 -4 -8 -10 -11 -5
-3 -10 -1 -10 4 0 6 5 11 10 11 6 0 10 -2 10 -4z m-1442 -19 c19 -12 4 -27
-27 -27 -25 0 -51 15 -51 30 0 9 62 6 78 -3z m511 -2 c-22 -12 -76 -8 -85 6
-3 5 19 8 50 7 47 -2 53 -4 35 -13z m-1335 -5 c37 -14 32 -30 -9 -30 -33 0
-46 16 -28 33 8 9 7 9 37 -3z m229 -2 c35 1 35 -10 -2 -26 -26 -12 -69 -10
-140 4 -54 11 19 36 79 27 19 -3 47 -5 63 -5z m322 3 c52 -11 0 -23 -69 -15
-48 6 -56 9 -36 15 31 9 65 9 105 0z m405 5 c0 -11 -19 -15 -25 -6 -3 5 1 10
9 10 9 0 16 -2 16 -4z m-2129 -17 c20 -10 20 -11 -4 -35 -13 -13 -35 -24 -48
-23 -23 0 -119 4 -186 7 -21 1 -33 7 -33 16 0 18 57 26 90 14 26 -10 126 7
136 24 7 11 21 10 45 -3z m1016 -6 c3 -8 -5 -13 -21 -13 -13 0 -28 -4 -31 -10
-8 -13 -76 -13 -111 0 -18 7 -44 7 -83 -1 -31 -6 -122 -12 -202 -13 -143 -1
-147 0 -145 20 1 20 5 21 173 18 95 -2 174 0 177 4 2 4 57 7 122 7 85 0 118
-3 121 -12z m513 7 c0 -5 -9 -10 -20 -10 -11 0 -20 5 -20 10 0 6 9 10 20 10
11 0 20 -4 20 -10z m-1420 -25 c0 -9 -7 -18 -16 -22 -18 -7 -39 11 -30 26 11
17 46 13 46 -4z m150 1 c9 -3 25 -5 35 -4 11 2 22 0 25 -5 6 -9 -169 -19 -183
-10 -30 19 84 36 123 19z m-1115 -5 c17 -4 57 -5 90 0 38 5 64 4 72 -2 7 -6
18 -7 25 -3 6 4 90 8 185 8 139 1 174 -2 178 -13 3 -8 4 -15 2 -17 -9 -10
-173 -11 -184 -2 -7 6 -21 7 -30 3 -32 -14 -264 -17 -280 -4 -10 9 -17 9 -25
1 -14 -14 -77 -16 -97 -3 -12 8 -12 12 -2 25 15 18 25 19 66 7z m-386 -30 c12
-8 9 -11 -11 -16 -29 -8 -52 1 -43 16 8 12 36 11 54 0z"/>
<path d="M13580 515 c0 -12 7 -14 28 -11 15 2 30 5 35 5 4 1 7 6 7 11 0 6 -16
10 -35 10 -25 0 -35 -4 -35 -15z"/>
<path d="M14952 443 c-87 -9 -150 -10 -246 -2 -121 9 -132 9 -155 -9 -15 -11
-25 -23 -24 -28 5 -23 194 -32 238 -12 21 9 43 9 103 -2 57 -11 183 -15 477
-17 220 -1 408 -3 418 -3 9 0 27 0 40 1 12 0 132 -1 265 -4 203 -3 245 -1 249
10 11 29 -23 45 -104 49 -43 2 -145 8 -228 14 -217 16 -889 18 -1033 3z"/>
<path d="M14136 424 c-13 -12 -14 -19 -6 -29 15 -18 62 2 58 24 -4 22 -33 25
-52 5z"/>
<path d="M14240 410 c0 -5 9 -10 20 -10 11 0 20 5 20 10 0 6 -9 10 -20 10 -11
0 -20 -4 -20 -10z"/>
<path d="M16445 399 c-4 -6 -2 -15 5 -19 17 -10 42 -1 37 14 -5 16 -34 19 -42
5z"/>
<path d="M6069 366 c-7 -14 -9 -29 -6 -33 4 -3 37 -2 74 3 50 7 68 13 68 24 0
10 -11 16 -35 17 -19 1 -47 5 -62 8 -23 6 -29 3 -39 -19z"/>
<path d="M16550 381 c0 -5 7 -14 15 -21 12 -10 21 -10 42 -1 14 6 22 15 19 19
-10 10 -76 12 -76 3z"/>
<path d="M5711 371 c-7 -5 -93 -7 -191 -4 -119 2 -181 0 -185 -7 -4 -6 -20 -8
-40 -4 -19 3 -35 1 -39 -5 -4 -7 -21 -6 -51 3 -36 11 -55 11 -105 1 -73 -15
-93 -30 -67 -49 13 -10 43 -12 110 -9 50 2 108 4 127 4 19 0 40 4 46 10 7 6
21 6 39 -1 19 -7 39 -7 66 0 22 6 50 8 62 4 26 -9 71 -6 105 7 15 6 29 6 34 1
11 -11 130 15 140 31 15 24 -21 37 -51 18z"/>
<path d="M4848 356 c-25 -13 -116 -15 -135 -3 -7 4 -22 -4 -37 -20 -21 -22
-27 -25 -41 -13 -26 21 -96 30 -131 15 -21 -9 -45 -10 -75 -5 -24 5 -48 6 -53
2 -6 -3 -29 -5 -53 -3 -23 1 -52 -3 -64 -9 -15 -9 -28 -9 -49 0 -22 9 -37 8
-75 -5 -26 -8 -56 -13 -66 -10 -26 8 -24 -10 3 -29 13 -9 27 -12 37 -7 9 4 93
7 186 7 95 -1 177 3 187 8 11 7 25 6 43 -2 32 -15 161 -16 170 -2 4 7 24 8 50
4 28 -4 63 0 99 10 55 16 57 16 85 -5 16 -11 37 -19 47 -17 22 4 32 38 11 38
-8 0 -21 9 -28 21 -18 26 -80 41 -111 25z"/>
<path d="M3845 313 c-14 -8 -24 -20 -22 -26 5 -15 88 -26 117 -15 19 7 29 47
13 49 -46 6 -86 3 -108 -8z"/>
<path d="M3724 305 c-8 -19 13 -45 35 -45 10 0 26 7 37 15 19 15 19 15 0 30
-25 19 -65 19 -72 0z"/>
<path d="M3250 295 c-13 -16 -75 -21 -84 -7 -17 29 -126 -1 -126 -34 0 -12 19
-13 98 -10 118 6 175 20 170 44 -4 22 -41 27 -58 7z"/>
<path d="M3416 291 c-26 -28 -13 -39 39 -33 25 2 51 0 58 -6 18 -15 135 2 156
22 25 26 1 41 -44 26 -25 -8 -44 -9 -63 -2 -15 6 -50 11 -78 11 -38 2 -54 -3
-68 -18z"/>
<path d="M3995 301 c-7 -12 12 -24 25 -16 11 7 4 25 -10 25 -5 0 -11 -4 -15
-9z"/>
<path d="M2692 288 c-15 -15 -3 -38 19 -38 12 0 19 7 19 19 0 22 -23 34 -38
19z"/>
<path d="M3337 293 c-14 -13 -6 -33 12 -33 19 0 35 23 24 34 -8 8 -28 8 -36
-1z"/>
<path d="M2444 275 c-8 -21 -4 -24 37 -27 28 -3 34 0 34 17 0 26 -62 35 -71
10z"/>
<path d="M2578 279 c-33 -19 -16 -49 28 -49 11 0 14 8 12 27 -3 30 -15 37 -40
22z"/>
<path d="M2295 261 c6 -5 23 -13 39 -17 22 -5 28 -4 24 7 -2 8 -20 15 -39 17
-23 2 -31 0 -24 -7z"/>
<path d="M2964 259 c-8 -14 11 -33 25 -25 6 4 11 11 11 16 0 13 -29 20 -36 9z"/>
<path d="M5122 246 c-41 -15 -58 -31 -43 -41 10 -5 143 -9 226 -6 11 1 34 0
50 -1 24 -2 30 1 30 17 0 15 -8 21 -30 23 -16 1 -40 8 -52 14 -18 9 -29 8 -47
-1 -17 -10 -29 -10 -44 -2 -25 13 -46 12 -90 -3z"/>
<path d="M2215 239 c-10 -15 3 -25 16 -12 7 7 7 13 1 17 -6 3 -14 1 -17 -5z"/>
<path d="M4935 242 c-3 -4 -30 -9 -58 -12 -37 -4 -52 -9 -52 -20 0 -12 13 -15
65 -13 74 3 110 10 110 21 0 10 -57 31 -65 24z"/>
<path d="M22065 241 c-3 -5 -1 -12 5 -16 5 -3 10 1 10 9 0 18 -6 21 -15 7z"/>
<path d="M1190 225 c0 -8 7 -15 15 -15 8 0 15 7 15 15 0 8 -7 15 -15 15 -8 0
-15 -7 -15 -15z"/>
<path d="M1985 230 c3 -5 8 -10 11 -10 2 0 4 5 4 10 0 6 -5 10 -11 10 -5 0 -7
-4 -4 -10z"/>
<path d="M3942 224 c-7 -8 -28 -14 -45 -14 -18 1 -49 -3 -71 -9 -25 -6 -44 -6
-55 0 -19 12 -147 -12 -143 -26 5 -19 59 -25 157 -19 103 8 144 8 230 5 28 -1
104 2 170 8 136 12 266 15 340 7 47 -5 125 17 125 35 0 13 -105 20 -155 11
-27 -5 -95 -7 -150 -4 -114 5 -241 4 -301 -4 -29 -4 -44 -2 -53 10 -17 20 -32
20 -49 0z"/>
<path d="M4723 233 c-15 -5 -17 -39 -4 -47 16 -10 41 5 41 24 0 19 -17 30 -37
23z"/>
<path d="M200 215 c0 -8 7 -15 15 -15 8 0 15 7 15 15 0 8 -7 15 -15 15 -8 0
-15 -7 -15 -15z"/>
<path d="M20100 222 c0 -5 11 -12 25 -14 14 -3 25 -1 25 3 0 5 -4 9 -9 9 -5 0
-16 3 -25 6 -9 3 -16 2 -16 -4z"/>
<path d="M5040 210 c0 -5 5 -10 10 -10 6 0 10 5 10 10 0 6 -4 10 -10 10 -5 0
-10 -4 -10 -10z"/>
<path d="M19600 205 c0 -8 7 -15 15 -15 8 0 15 7 15 15 0 8 -7 15 -15 15 -8 0
-15 -7 -15 -15z"/>
<path d="M2910 201 c-23 -13 -124 -25 -250 -28 -176 -4 -302 -11 -338 -19 -23
-4 -38 -2 -50 8 -13 11 -38 14 -102 12 -47 -2 -123 -5 -170 -7 -47 -2 -96 -9
-109 -16 -22 -12 -22 -14 -7 -29 18 -18 23 -18 241 -8 72 4 144 7 160 6 134
-4 696 7 757 15 27 4 51 11 54 16 3 6 11 5 20 -2 9 -7 32 -10 63 -6 30 4 53 1
59 -5 8 -8 18 -8 37 0 14 7 40 12 58 12 36 0 65 15 53 27 -4 4 -37 13 -74 19
-51 9 -73 9 -96 -1 -17 -7 -43 -11 -59 -8 -15 3 -33 0 -41 -6 -10 -9 -16 -8
-26 4 -8 10 -27 14 -54 13 -22 -1 -57 1 -76 5 -19 4 -42 3 -50 -2z"/>
<path d="M3462 199 c-23 -9 -39 -35 -29 -46 8 -7 102 -5 140 3 27 6 37 31 15
39 -30 9 -105 11 -126 4z"/>
<path d="M17340 190 c0 -5 7 -10 15 -10 8 0 15 5 15 10 0 6 -7 10 -15 10 -8 0
-15 -4 -15 -10z"/>
<path d="M1507 148 c-10 -5 -87 -11 -171 -12 -84 -2 -158 -6 -165 -10 -18 -12
-13 -23 19 -36 24 -10 46 -10 98 -2 39 6 121 8 197 5 72 -3 139 -5 150 -4 11
2 50 3 87 4 46 1 72 7 83 18 14 14 14 17 1 28 -19 16 -274 24 -299 9z"/>
<path d="M546 143 c-6 -6 -33 -9 -139 -13 -22 -1 -34 -29 -17 -40 7 -4 105 -8
217 -9 113 -1 209 -3 214 -7 5 -3 16 -1 24 3 9 5 41 6 73 2 31 -3 64 -3 71 1
8 5 25 4 37 0 22 -9 101 6 118 21 5 5 4 15 -4 24 -11 13 -24 15 -59 11 -77
-10 -474 -3 -512 9 -8 3 -19 2 -23 -2z"/>
<path d="M13792 139 c2 -7 10 -15 17 -17 8 -3 12 1 9 9 -2 7 -10 15 -17 17 -8
3 -12 -1 -9 -9z"/>
<path d="M13435 130 c-4 -7 -3 -16 3 -22 14 -14 45 -2 40 15 -6 16 -34 21 -43
7z"/>
<path d="M149 110 c-13 -10 -22 -20 -19 -20 3 -1 39 -3 80 -5 87 -4 120 2 120
20 0 31 -145 36 -181 5z"/>
<path d="M12890 116 c0 -8 4 -17 9 -20 11 -7 33 18 24 27 -12 12 -33 7 -33 -7z"/>
<path d="M12995 120 c-3 -5 3 -10 15 -10 12 0 18 5 15 10 -3 6 -10 10 -15 10
-5 0 -12 -4 -15 -10z"/>
<path d="M13240 117 c0 -8 22 -13 57 -14 42 -2 54 0 46 8 -16 16 -103 21 -103
6z"/>
<path d="M13685 120 c3 -5 8 -10 11 -10 2 0 4 5 4 10 0 6 -5 10 -11 10 -5 0
-7 -4 -4 -10z"/>
<path d="M12160 105 c-16 -19 -4 -35 26 -35 28 0 44 28 23 41 -20 13 -35 11
-49 -6z"/>
<path d="M12435 104 c-14 -15 -15 -19 -2 -31 19 -19 60 0 55 25 -4 23 -32 26
-53 6z"/>
<path d="M12765 111 c-3 -5 -1 -12 5 -16 12 -7 30 2 30 16 0 12 -27 12 -35 0z"/>
<path d="M76 101 c-4 -5 -2 -12 3 -15 5 -4 12 -2 15 3 4 5 2 12 -3 15 -5 4
-12 2 -15 -3z"/>
<path d="M12260 101 c0 -6 5 -13 10 -16 6 -3 10 1 10 9 0 9 -4 16 -10 16 -5 0
-10 -4 -10 -9z"/>
<path d="M12370 95 c0 -9 5 -15 11 -13 6 2 11 8 11 13 0 5 -5 11 -11 13 -6 2
-11 -4 -11 -13z"/>
<path d="M12575 100 c-3 -6 1 -12 9 -15 9 -3 23 -7 32 -10 24 -8 37 4 23 21
-13 16 -55 19 -64 4z"/>
<path d="M12000 90 c0 -5 7 -10 15 -10 8 0 15 5 15 10 0 6 -7 10 -15 10 -8 0
-15 -4 -15 -10z"/>
<path d="M12088 93 c-10 -2 -18 -9 -18 -15 0 -5 7 -7 16 -4 9 3 22 6 30 6 8 0
14 5 14 10 0 10 -12 11 -42 3z"/>
<path d="M11447 83 c-3 -5 -2 -15 3 -22 10 -17 43 -6 38 12 -6 15 -34 22 -41
10z"/>
<path d="M10096 73 c-3 -3 -6 -15 -6 -26 0 -13 5 -17 16 -13 9 3 20 6 25 6 5
0 9 4 9 10 0 12 -35 31 -44 23z"/>
<path d="M10327 74 c-16 -16 -6 -35 16 -32 12 2 22 10 22 18 0 16 -26 25 -38
14z"/>
<path d="M10454 66 c-8 -22 3 -33 18 -18 9 9 9 15 0 24 -9 9 -13 7 -18 -6z"/>
<path d="M9885 60 c-3 -5 1 -10 9 -10 9 0 16 5 16 10 0 6 -4 10 -9 10 -6 0
-13 -4 -16 -10z"/>
<path d="M8642 39 c-13 -5 -22 -15 -20 -21 6 -18 120 -18 126 0 2 8 -7 12 -27
12 -16 0 -33 5 -36 10 -7 12 -12 12 -43 -1z"/>
<path d="M8902 38 c-22 -22 -14 -40 16 -36 19 2 27 9 27 23 0 23 -25 31 -43
13z"/>
<path d="M8347 33 c-16 -15 -6 -33 18 -33 18 0 25 5 25 20 0 20 -28 28 -43 13z"/>
<path d="M8460 21 c0 -16 6 -21 26 -21 33 0 30 33 -4 38 -17 3 -22 -2 -22 -17z"/>
<path d="M9122 23 c2 -10 13 -19 26 -21 17 -3 22 2 22 17 0 16 -6 21 -26 21
-19 0 -25 -5 -22 -17z"/>
<path d="M9323 28 c2 -7 10 -13 17 -13 7 0 15 6 18 13 2 7 -5 12 -18 12 -13 0
-20 -5 -17 -12z"/>
<path d="M8139 14 c-9 -11 -6 -14 20 -14 34 0 42 15 11 23 -10 3 -24 -1 -31
-9z"/>
<path d="M6545 10 c-3 -5 3 -10 15 -10 12 0 18 5 15 10 -3 6 -10 10 -15 10 -5
0 -12 -4 -15 -10z"/>
<path d="M7100 10 c0 -5 12 -10 26 -10 14 0 23 4 19 10 -3 6 -15 10 -26 10
-10 0 -19 -4 -19 -10z"/>
<path d="M7325 10 c-4 -6 5 -10 20 -10 15 0 24 4 20 10 -3 5 -12 10 -20 10 -8
0 -17 -4 -20 -10z"/>
<path d="M7395 10 c-4 -6 7 -10 24 -10 17 0 31 5 31 10 0 6 -11 10 -24 10 -14
0 -28 -4 -31 -10z"/>
<path d="M7955 10 c-4 -6 5 -10 20 -10 15 0 24 4 20 10 -3 5 -12 10 -20 10 -8
0 -17 -4 -20 -10z"/>
<path d="M6323 3 c9 -2 23 -2 30 0 6 3 -1 5 -18 5 -16 0 -22 -2 -12 -5z"/>
<path d="M6728 3 c7 -3 16 -2 19 1 4 3 -2 6 -13 5 -11 0 -14 -3 -6 -6z"/>
<path d="M7608 3 c7 -3 16 -2 19 1 4 3 -2 6 -13 5 -11 0 -14 -3 -6 -6z"/>
<path d="M7818 3 c7 -3 16 -2 19 1 4 3 -2 6 -13 5 -11 0 -14 -3 -6 -6z"/>
</g>
</svg>
