<?xml version="1.0" standalone="no"?>
<!DOCTYPE svg PUBLIC "-//W3C//DTD SVG 20010904//EN"
 "http://www.w3.org/TR/2001/REC-SVG-20010904/DTD/svg10.dtd">
<svg version="1.0" xmlns="http://www.w3.org/2000/svg"
 width="3264.000000pt" height="2448.000000pt" viewBox="0 0 3264.000000 2448.000000"
 preserveAspectRatio="xMidYMid meet">
<metadata>
Created by potrace 1.12, written by Peter Selinger 2001-2015
</metadata>
<g transform="translate(0.000000,2448.000000) scale(0.100000,-0.100000)"
fill="#000000" stroke="none">
<path d="M5076 23354 c-9 -8 -19 -27 -22 -41 -8 -29 3 -144 16 -176 5 -12 20
-67 35 -122 14 -55 36 -120 48 -145 26 -52 65 -77 97 -60 28 15 25 37 -9 55
-17 9 -34 28 -40 47 -38 115 -71 290 -71 374 0 52 -3 65 -19 74 -15 7 -23 6
-35 -6z"/>
<path d="M5243 23358 c-23 -29 -22 -69 2 -155 14 -48 38 -153 55 -233 17 -83
37 -155 48 -169 48 -65 84 -51 52 21 -20 45 -24 69 -60 328 -28 196 -35 220
-64 220 -13 0 -28 -6 -33 -12z"/>
<path d="M11187 23311 c-14 -17 -30 -54 -37 -83 -7 -29 -40 -105 -74 -168 -72
-135 -90 -184 -75 -211 14 -27 27 -23 42 14 8 17 45 82 82 142 75 120 145 262
145 292 0 48 -47 56 -83 14z"/>
<path d="M10963 23310 c-62 -25 -223 -242 -223 -300 0 -32 31 -38 49 -10 84
127 199 260 225 260 19 0 26 21 14 43 -9 18 -30 21 -65 7z"/>
<path d="M5762 23107 c-11 -12 -43 -91 -68 -163 -17 -52 -60 -235 -68 -294
-16 -116 -36 -364 -36 -446 0 -51 6 -112 15 -141 17 -56 49 -103 71 -103 8 0
63 33 122 73 59 40 142 90 184 111 86 43 119 79 96 102 -11 11 -26 7 -93 -24
-113 -53 -172 -87 -234 -132 -60 -44 -76 -48 -86 -22 -23 58 -13 332 21 560
16 111 58 262 106 384 17 42 28 84 25 93 -8 18 -40 20 -55 2z"/>
<path d="M8236 23028 c-27 -43 -45 -134 -61 -298 -9 -91 -29 -245 -45 -343
-17 -98 -30 -195 -30 -215 0 -46 19 -76 46 -70 17 3 19 11 16 68 -2 42 6 107
22 185 14 66 32 174 41 240 32 237 45 316 63 370 20 58 14 85 -18 85 -11 0
-26 -10 -34 -22z"/>
<path d="M25152 22963 c-5 -10 -12 -38 -16 -63 -3 -25 -13 -83 -21 -129 -19
-105 -25 -735 -7 -753 41 -41 55 47 53 346 -2 218 10 359 39 492 20 94 15 124
-20 124 -11 0 -23 -8 -28 -17z"/>
<path d="M10100 22882 l-28 -28 0 -205 c-1 -232 -15 -337 -62 -453 -16 -41
-32 -96 -35 -123 -7 -54 10 -120 36 -136 24 -15 64 -1 77 29 16 33 6 47 -25
39 -25 -6 -25 -5 -21 47 3 29 19 93 37 142 44 122 69 251 86 446 19 208 19
235 -1 254 -22 22 -31 20 -64 -12z"/>
<path d="M24565 22834 c-6 -2 -10 -108 -9 -291 1 -250 -1 -289 -14 -299 -25
-18 0 -90 41 -114 71 -44 215 -15 300 61 51 44 103 137 112 203 9 56 -19 151
-53 183 -86 80 -202 30 -274 -119 -14 -29 -28 -61 -32 -70 -16 -50 -21 3 -18
202 4 244 -1 266 -53 244z m340 -309 c21 -20 25 -33 25 -87 0 -110 -61 -202
-164 -249 -49 -22 -125 -24 -152 -4 -19 14 -18 15 8 37 18 15 44 63 73 133 35
88 54 119 89 153 52 49 85 54 121 17z"/>
<path d="M32435 22788 c-88 -5 -306 -7 -484 -5 -307 4 -324 4 -342 -14 -17
-17 -18 -23 -6 -51 7 -17 20 -36 29 -41 22 -14 48 -2 48 23 0 17 6 20 38 20
178 -2 846 10 880 16 38 6 42 9 42 35 0 24 -4 29 -22 28 -13 -1 -95 -6 -183
-11z"/>
<path d="M21859 22763 c-9 -10 -21 -31 -27 -48 -14 -38 -55 -211 -78 -334
l-17 -93 -61 -50 c-65 -54 -79 -76 -64 -95 16 -20 35 -15 74 20 37 31 37 31
31 7 -4 -14 -10 -86 -13 -160 -6 -130 -6 -136 15 -155 30 -26 57 -10 53 31
-11 92 -12 211 -3 275 9 68 13 77 48 106 47 40 130 86 142 79 7 -5 40 -102
110 -326 16 -50 20 -55 47 -55 25 0 29 4 32 32 2 17 -6 53 -16 80 -79 194
-111 288 -101 299 11 14 104 50 204 81 42 13 61 24 63 37 4 17 -1 19 -54 14
-33 -3 -101 -22 -151 -41 -70 -26 -95 -32 -102 -23 -12 14 -37 114 -60 241
-14 76 -20 90 -37 93 -11 2 -27 -5 -35 -15z m36 -199 c9 -40 23 -89 30 -110
16 -48 12 -54 -66 -93 -47 -23 -59 -26 -59 -14 0 17 47 256 56 287 9 28 20 8
39 -70z"/>
<path d="M2431 22726 c-18 -22 25 -63 89 -85 30 -11 116 -29 190 -40 245 -39
490 -101 490 -124 0 -48 -310 -300 -527 -428 -98 -58 -133 -86 -133 -106 0
-24 52 -14 119 24 192 107 381 245 528 388 151 147 137 167 -174 244 -87 22
-194 45 -238 51 -140 20 -224 40 -274 65 -57 29 -55 29 -70 11z"/>
<path d="M19365 22711 c-34 -5 -40 -10 -43 -33 -2 -18 3 -30 15 -36 10 -5 131
-12 268 -15 248 -6 321 -15 332 -44 8 -20 -44 -100 -69 -106 -64 -16 -447 -64
-778 -97 -113 -11 -241 -25 -285 -30 -44 -5 -165 -17 -270 -25 -279 -23 -397
-41 -412 -61 -15 -21 -16 -25 -4 -43 7 -11 35 -10 172 7 90 12 207 24 259 27
52 3 194 17 315 30 121 13 292 31 380 40 140 14 396 47 463 60 12 3 33 7 47
10 14 3 25 1 25 -4 0 -5 -43 -46 -95 -90 -103 -88 -346 -328 -370 -365 -9 -13
-13 -31 -9 -40 16 -41 51 -16 230 159 99 96 236 223 306 282 105 90 132 118
158 170 37 71 35 91 -16 129 -52 40 -136 53 -332 54 -130 0 -181 4 -209 15
-19 8 -36 14 -37 14 0 -1 -19 -5 -41 -8z"/>
<path d="M11945 22680 c-216 -37 -328 -81 -409 -163 -114 -115 -93 -237 49
-282 64 -20 239 -25 369 -12 54 6 76 6 72 -2 -4 -5 -44 -34 -89 -64 -211 -139
-376 -204 -415 -165 -9 9 -15 9 -23 1 -18 -18 -6 -56 23 -72 23 -13 36 -14 85
-3 126 26 455 218 496 289 22 39 15 69 -19 77 -13 4 -109 4 -212 0 -253 -9
-342 14 -342 88 0 114 142 193 428 238 131 20 155 30 150 64 -4 28 -28 29
-163 6z"/>
<path d="M8587 22616 c-82 -30 -145 -101 -178 -199 -12 -36 -25 -56 -43 -65
-31 -15 -34 -47 -7 -62 12 -6 23 -29 30 -60 15 -68 34 -95 82 -114 93 -38 181
-6 292 105 38 38 70 69 72 69 1 0 6 -26 9 -57 17 -140 57 -222 121 -243 100
-33 207 64 241 218 9 42 25 113 36 156 19 81 15 105 -17 92 -22 -8 -49 -74
-75 -181 -24 -98 -52 -154 -98 -198 -83 -79 -141 34 -142 274 0 86 -3 108 -15
113 -21 8 -55 -28 -55 -57 0 -29 -50 -106 -95 -146 -19 -16 -68 -46 -109 -66
-60 -30 -82 -36 -109 -31 -47 9 -70 37 -71 88 -1 41 1 43 54 74 112 65 146 91
178 138 71 106 13 194 -101 152z m73 -73 c0 -4 -12 -24 -26 -45 -26 -37 -125
-108 -151 -108 -43 0 40 118 102 146 32 14 75 18 75 7z"/>
<path d="M22484 22581 c-80 -47 -142 -129 -158 -210 -13 -68 42 -127 149 -161
73 -23 134 -52 139 -67 8 -20 -18 -66 -61 -108 -44 -43 -68 -44 -88 -5 -9 17
-22 30 -31 30 -30 0 -54 -21 -54 -46 0 -31 59 -94 88 -94 66 0 150 67 192 154
58 118 27 156 -178 217 -45 13 -92 58 -92 88 0 37 62 111 131 157 39 25 68 51
66 58 -7 22 -52 16 -103 -13z"/>
<path d="M7393 22578 c-13 -17 -46 -120 -73 -227 -26 -105 -49 -151 -107 -212
-52 -56 -102 -77 -145 -60 -36 13 -52 48 -72 151 -31 162 -48 220 -66 230 -27
14 -53 -11 -105 -101 -49 -85 -109 -159 -129 -159 -8 0 -16 41 -24 123 -13
138 -24 185 -51 218 -16 20 -21 21 -35 10 -21 -17 -20 -32 4 -110 11 -35 24
-110 29 -166 11 -126 25 -159 67 -163 27 -3 38 5 86 60 30 35 69 89 87 121 18
31 36 57 41 57 4 0 17 -50 28 -111 24 -128 45 -175 92 -206 40 -27 115 -31
164 -8 47 22 131 112 159 170 27 55 102 369 92 385 -9 14 -31 13 -42 -2z"/>
<path d="M6217 22533 c-4 -3 -7 -16 -7 -27 0 -12 -7 -32 -17 -45 -21 -30 -29
-151 -14 -207 13 -50 46 -100 84 -128 41 -30 141 -34 200 -8 134 59 105 187
-74 336 -87 73 -150 102 -172 79z m161 -149 c90 -94 117 -137 102 -163 -26
-49 -142 -69 -186 -33 -71 56 -84 220 -21 250 35 17 39 15 105 -54z"/>
<path d="M9565 22521 c-48 -21 -86 -64 -122 -135 -32 -63 -30 -61 -48 -46 -40
33 -63 -35 -25 -75 13 -14 22 -42 26 -83 11 -104 59 -156 143 -156 60 1 121
32 188 99 85 86 64 118 -29 44 -69 -54 -120 -79 -162 -79 -42 0 -65 28 -73 89
-5 38 -4 40 23 46 48 10 150 62 189 97 70 61 85 140 36 189 -35 35 -84 38
-146 10z m103 -80 c5 -29 -35 -73 -103 -112 -66 -38 -89 -38 -80 -1 22 92 173
186 183 113z"/>
<path d="M25666 22443 c-67 -101 -155 -198 -187 -208 -33 -11 -57 12 -68 65
-6 28 -11 63 -11 79 0 39 -21 64 -51 59 -23 -3 -24 -6 -21 -62 4 -75 36 -160
69 -186 64 -50 136 -14 257 130 37 44 37 45 33 15 -2 -16 -14 -73 -25 -125
-12 -52 -28 -140 -37 -195 -21 -140 -43 -237 -55 -249 -13 -13 -13 -46 -1 -46
49 0 63 37 111 297 42 225 66 331 100 427 24 72 19 96 -20 96 -25 0 -37 -12
-94 -97z"/>
<path d="M22912 22500 c-54 -24 -148 -113 -174 -163 -58 -114 -23 -205 101
-262 158 -73 166 -78 169 -117 2 -20 -4 -52 -12 -72 -13 -31 -19 -36 -40 -30
-53 13 -88 -42 -50 -80 23 -24 77 -20 101 7 42 45 76 129 77 189 1 51 -2 61
-29 88 -19 19 -62 42 -112 60 -130 46 -162 72 -163 131 0 63 82 159 178 208
28 14 42 28 42 41 0 26 -31 26 -88 0z"/>
<path d="M24283 22498 c-26 -29 -46 -68 -68 -138 -25 -78 -74 -172 -85 -165
-6 3 -10 43 -11 88 0 45 -3 100 -7 122 -6 34 -11 40 -34 43 -34 4 -47 -15 -88
-130 -18 -49 -36 -88 -41 -88 -18 0 -8 63 21 138 31 77 33 102 5 102 -15 0
-75 -78 -125 -160 -40 -67 -188 -203 -254 -234 -58 -27 -137 -39 -153 -22 -4
4 0 13 11 20 97 59 201 179 236 273 27 71 19 108 -29 140 -66 45 -169 21 -257
-60 -92 -83 -127 -182 -105 -288 11 -48 10 -54 -11 -76 -19 -21 -20 -25 -7
-39 11 -10 22 -12 39 -6 18 7 38 3 78 -16 113 -52 243 -4 384 139 47 49 89 89
92 89 3 0 2 -22 -1 -48 -7 -63 9 -94 44 -90 33 4 56 35 91 123 38 92 52 95 52
11 0 -37 7 -82 14 -101 12 -29 20 -35 45 -35 16 0 37 8 47 17 19 20 66 119
108 231 40 103 50 96 59 -40 7 -106 54 -152 93 -93 18 28 12 95 -10 95 -8 0
-16 29 -23 84 -5 47 -18 96 -27 110 -21 32 -56 34 -83 4z m-665 -60 c19 -19
14 -69 -9 -108 -42 -70 -133 -172 -170 -191 -66 -33 -79 -24 -79 58 0 96 42
170 129 224 48 31 108 38 129 17z"/>
<path d="M1377 22473 c-15 -14 -6 -43 18 -59 51 -33 133 -44 350 -44 184 -1
374 7 620 26 39 3 198 9 355 13 294 8 335 14 328 49 -3 15 -26 17 -253 14
-138 -1 -412 -12 -610 -23 -418 -25 -640 -21 -737 12 -65 22 -62 21 -71 12z"/>
<path d="M13580 22421 c-168 -10 -225 -28 -280 -87 -48 -52 -116 -191 -150
-304 -30 -102 -30 -111 2 -129 40 -23 52 -6 83 114 26 101 77 219 116 269 43
55 129 81 311 93 60 3 98 2 98 -3 0 -6 -32 -38 -70 -73 -82 -73 -130 -148
-130 -204 0 -50 59 -115 127 -140 49 -18 208 -36 316 -37 54 0 62 -3 105 -41
102 -90 248 -147 397 -156 80 -5 93 -3 114 14 16 13 22 26 18 36 -5 14 -22 17
-96 17 -90 0 -221 30 -294 66 -32 16 -87 63 -87 74 0 3 21 12 48 19 36 11 63
29 114 81 56 57 69 77 87 133 25 82 16 121 -39 170 -47 43 -107 61 -169 52
-39 -6 -55 -16 -102 -64 -90 -92 -109 -160 -87 -316 2 -16 -2 -20 -22 -19
-202 10 -242 14 -279 34 -50 25 -75 61 -67 94 9 36 73 108 150 169 38 31 73
63 78 71 12 21 2 52 -20 61 -29 11 -141 13 -272 6z m708 -126 c40 -34 47 -76
21 -134 -24 -55 -59 -94 -118 -132 -50 -32 -86 -37 -95 -13 -14 36 -5 120 18
169 31 68 95 130 138 134 3 1 20 -10 36 -24z"/>
<path d="M12649 22389 c-7 -14 -10 -72 -7 -173 3 -139 5 -155 28 -196 20 -35
35 -48 67 -59 37 -13 45 -13 88 3 89 34 143 111 196 281 35 112 37 148 8 143
-26 -4 -39 -27 -90 -163 -33 -85 -52 -120 -87 -158 -38 -40 -51 -47 -76 -45
-53 5 -66 47 -66 215 0 78 -3 148 -6 157 -9 23 -41 20 -55 -5z"/>
<path d="M12230 22380 c-116 -13 -158 -45 -107 -82 21 -15 25 -24 20 -51 -17
-106 75 -197 200 -197 54 0 161 37 190 66 50 50 42 136 -18 196 -32 32 -148
79 -190 77 -17 -1 -59 -5 -95 -9z m191 -86 c44 -18 89 -66 89 -94 0 -28 -45
-58 -107 -70 -137 -29 -214 22 -198 128 5 31 12 46 28 53 29 12 139 2 188 -17z"/>
<path d="M0 22306 c0 -31 3 -34 39 -40 38 -6 101 -48 101 -67 0 -16 -45 -53
-94 -77 -41 -21 -46 -27 -46 -58 l0 -34 43 17 c89 35 122 58 140 95 15 31 17
44 8 71 -16 46 -67 92 -124 111 -65 22 -67 21 -67 -18z"/>
<path d="M0 21971 c0 -27 4 -31 38 -38 20 -4 94 -8 164 -8 139 1 167 10 135
43 -15 14 -38 17 -130 19 -62 1 -133 4 -159 8 -48 6 -48 6 -48 -24z"/>
<path d="M27512 21443 c-5 -10 -12 -43 -16 -73 -11 -81 -63 -335 -103 -499
-27 -114 -33 -149 -24 -168 13 -29 39 -30 45 0 18 82 37 161 54 219 35 117 96
421 97 478 0 49 -2 55 -22 58 -13 2 -25 -4 -31 -15z"/>
<path d="M25133 21319 c-12 -4 -24 -16 -27 -26 -11 -35 -9 -268 3 -332 12 -60
11 -65 -8 -85 -15 -14 -32 -20 -58 -18 -35 1 -310 75 -320 86 -12 12 12 45 61
84 101 78 163 174 150 230 -10 39 -23 52 -53 52 -69 0 -131 -80 -176 -227 -14
-44 -39 -98 -55 -118 -26 -33 -31 -65 -9 -65 4 0 8 -42 7 -93 -1 -106 6 -137
31 -137 33 0 46 27 33 64 -13 35 -16 95 -6 120 9 22 34 20 159 -15 105 -29
167 -34 249 -18 16 3 21 -5 30 -53 13 -63 29 -88 58 -88 26 0 33 24 14 52 -37
57 -64 385 -43 529 9 62 1 73 -40 58z m-267 -84 c11 -29 -7 -68 -58 -121 -28
-30 -53 -52 -55 -50 -8 8 37 120 62 152 28 37 42 42 51 19z"/>
<path d="M26962 21309 c-20 -6 -40 -22 -50 -39 -10 -18 -33 -35 -59 -45 -60
-23 -205 -116 -274 -176 -35 -30 -65 -49 -73 -46 -8 3 -31 40 -51 81 -27 56
-41 76 -56 76 -46 0 -35 -77 21 -152 l40 -52 -50 -51 c-51 -51 -62 -83 -36
-104 9 -8 21 -8 40 -1 20 7 26 16 26 39 0 20 9 36 27 51 28 21 28 21 43 2 8
-11 31 -47 50 -78 45 -75 78 -114 96 -114 33 0 23 34 -40 135 -36 59 -66 110
-66 115 0 16 89 87 225 179 74 50 135 90 135 88 0 -2 -9 -22 -20 -45 -30 -61
-46 -223 -32 -314 9 -61 16 -77 42 -100 62 -56 151 -30 239 69 148 165 169
376 47 467 -22 17 -44 21 -109 23 -45 1 -97 -2 -115 -8z m170 -56 c66 -33 87
-151 44 -254 -29 -73 -109 -176 -151 -196 -40 -19 -80 -11 -97 20 -15 27 -13
240 2 297 7 25 23 50 45 67 41 32 44 50 13 62 -23 9 -23 10 22 24 22 7 91 -4
122 -20z"/>
<path d="M25988 21288 c-43 -11 -88 -59 -88 -92 0 -12 -18 -46 -40 -76 -63
-84 -82 -148 -78 -256 2 -77 7 -96 28 -127 31 -45 75 -61 146 -54 73 7 145 49
210 121 73 80 114 164 114 230 -2 169 -146 295 -292 254z m123 -71 c18 -12 51
-47 71 -76 51 -72 52 -131 7 -210 -71 -124 -187 -202 -274 -185 -54 10 -75 50
-75 140 0 117 47 213 126 259 45 26 58 55 26 55 -26 0 -34 11 -21 27 19 22
101 16 140 -10z"/>
<path d="M23922 21273 c-9 -16 -62 -301 -77 -413 -14 -99 -38 -206 -51 -227
-16 -26 -47 -21 -68 12 -28 43 -60 222 -60 342 -1 125 -10 149 -45 114 -24
-24 -25 -31 -10 -177 18 -184 61 -323 111 -358 43 -31 97 -16 122 33 18 33 49
181 71 336 9 61 25 156 35 213 11 57 20 112 20 123 0 24 -36 26 -48 2z"/>
<path d="M23244 21221 c-47 -21 -74 -54 -74 -89 0 -32 31 -26 48 10 17 36 70
53 117 38 108 -36 166 -217 115 -364 -45 -133 -122 -216 -198 -216 -53 0 -92
57 -92 134 0 81 73 261 135 334 35 40 41 72 14 72 -20 0 -89 -82 -120 -142
-91 -181 -104 -343 -33 -427 93 -111 284 20 348 238 44 149 0 333 -96 404 -38
28 -113 32 -164 8z"/>
<path d="M13776 21179 c-35 -28 -71 -81 -156 -234 -142 -255 -259 -412 -326
-440 -36 -15 -40 -25 -24 -56 20 -37 62 -24 122 39 72 75 119 147 213 322 99
184 148 264 195 319 53 61 36 97 -24 50z"/>
<path d="M22651 21164 c-39 -50 -77 -213 -86 -374 -4 -58 -9 -112 -12 -120
-12 -33 -56 215 -68 385 -8 106 -12 125 -29 125 -29 0 -47 -44 -100 -245 -59
-225 -81 -330 -71 -345 20 -33 65 15 65 70 0 38 30 189 56 288 17 62 34 82 34
40 0 -42 59 -376 71 -402 16 -35 35 -39 64 -13 25 21 27 29 40 207 13 170 34
293 54 313 16 16 78 -176 130 -408 36 -155 57 -208 85 -213 29 -6 37 19 17 53
-10 16 -24 62 -31 100 -25 142 -131 526 -152 553 -17 20 -45 14 -67 -14z"/>
<path d="M13402 21142 c-15 -15 -74 -99 -132 -186 -58 -86 -167 -248 -242
-359 -77 -113 -138 -212 -138 -225 0 -12 8 -26 17 -29 25 -10 61 38 230 308
84 134 170 269 192 299 108 151 133 191 127 205 -8 22 -24 18 -54 -13z"/>
<path d="M5987 21009 c-63 -9 -132 -49 -165 -97 -91 -129 -141 -324 -143 -562
-1 -132 8 -159 49 -146 18 6 20 18 24 209 5 195 6 205 37 297 34 101 85 187
129 217 41 28 180 26 219 -3 17 -13 28 -31 28 -44 0 -20 -20 -34 -128 -89
-204 -105 -269 -172 -246 -254 25 -91 169 -154 442 -192 116 -16 209 -11 233
12 34 35 12 46 -96 49 -163 5 -374 55 -460 109 -106 67 -82 99 164 221 65 32
132 71 149 87 26 24 29 32 24 64 -16 98 -112 143 -260 122z"/>
<path d="M8619 20996 c-77 -22 -196 -84 -257 -135 -69 -58 -161 -175 -196
-251 -61 -132 -12 -239 127 -276 207 -55 595 56 667 192 25 45 17 139 -16 209
-29 62 -136 178 -174 190 -15 5 -19 12 -14 29 3 13 0 27 -8 33 -22 19 -81 23
-129 9z m47 -97 c103 -39 228 -187 234 -279 4 -48 0 -60 -35 -99 -41 -45 -98
-71 -232 -108 -109 -29 -248 -36 -318 -15 -59 17 -105 65 -105 109 0 92 169
307 285 362 28 13 61 29 75 36 34 18 32 18 96 -6z"/>
<path d="M17322 20985 c-11 -14 -26 -49 -32 -78 -12 -50 -57 -203 -100 -335
-23 -74 -25 -121 -7 -146 22 -30 50 -16 64 33 7 24 26 69 42 100 16 31 48 115
71 186 24 72 54 152 66 179 30 65 20 86 -41 86 -35 0 -48 -5 -63 -25z"/>
<path d="M6834 20990 c-27 -10 -48 -61 -85 -205 -17 -66 -44 -172 -60 -235
-16 -63 -32 -151 -36 -195 -5 -76 -4 -81 20 -107 49 -53 98 -26 56 31 l-22 30
23 93 c31 124 125 462 144 516 22 61 6 89 -40 72z"/>
<path d="M10715 20935 c-23 -23 -26 -31 -20 -63 4 -20 8 -129 10 -242 2 -113
8 -216 13 -230 13 -34 38 -54 58 -46 13 5 15 16 10 59 -4 28 -2 84 4 122 18
121 25 393 10 410 -19 22 -54 18 -85 -10z"/>
<path d="M15569 20913 c-1 -5 -2 -58 -3 -119 -1 -73 -5 -116 -14 -126 -7 -9
-33 -21 -58 -28 -55 -16 -120 -61 -129 -91 -6 -19 -9 -18 -25 19 -20 44 -77
88 -168 129 l-57 26 60 14 c57 14 133 13 203 -2 30 -7 32 -5 32 19 0 61 -110
78 -275 41 -86 -19 -124 -34 -145 -60 -19 -23 0 -38 85 -65 97 -32 137 -53
173 -95 36 -40 38 -52 18 -99 -10 -23 -27 -40 -58 -55 -51 -24 -70 -26 -99 -8
-17 10 -22 9 -35 -7 -18 -25 -18 -29 5 -57 61 -75 271 37 271 144 0 28 1 29
18 14 17 -16 20 -15 53 19 27 29 86 64 105 64 12 0 0 -39 -32 -101 -19 -39
-33 -77 -30 -85 8 -22 34 -16 52 11 l16 25 30 -25 c18 -15 42 -25 61 -25 39 0
125 39 151 69 22 24 36 27 36 7 0 -20 39 -46 67 -46 35 0 59 55 26 62 -12 2
-17 17 -19 62 -5 86 -35 112 -71 60 -37 -54 -105 -122 -132 -134 -16 -6 -40
-10 -53 -8 -21 4 -18 9 38 65 62 62 132 105 192 118 41 9 58 37 36 60 -10 9
-26 14 -38 12 -80 -19 -207 -39 -212 -34 -3 3 -1 31 5 63 16 84 14 118 -10
148 -19 24 -67 37 -70 19z m111 -291 c0 -13 -79 -86 -86 -79 -12 11 18 68 40
77 27 11 46 12 46 2z"/>
<path d="M3534 20886 c-166 -38 -314 -177 -314 -297 0 -89 84 -185 201 -228
191 -71 535 -45 655 49 105 82 111 213 15 322 -35 40 -103 73 -173 83 -26 4
-53 14 -60 22 -6 8 -30 24 -52 36 -52 26 -184 33 -272 13z m219 -51 c47 -8 48
-22 0 -31 -81 -15 -208 -82 -190 -100 4 -5 29 0 55 9 131 50 192 57 222 27 11
-11 29 -20 41 -20 12 0 23 8 26 20 8 30 43 25 99 -12 57 -39 84 -87 84 -148 0
-105 -67 -158 -231 -185 -168 -27 -352 -14 -441 30 -49 25 -106 84 -119 123
-40 122 107 267 297 290 68 9 84 8 157 -3z"/>
<path d="M10084 20875 c-4 -18 -24 -35 -67 -57 -45 -24 -72 -48 -105 -93 -127
-172 -124 -266 10 -326 49 -22 66 -24 213 -24 148 0 164 2 220 25 75 31 101
74 90 146 -9 64 -86 211 -137 263 -51 52 -128 91 -180 91 -32 0 -39 -4 -44
-25z m105 -69 c65 -34 163 -186 177 -278 12 -71 -47 -93 -241 -93 -115 1 -165
12 -209 46 -36 29 -33 61 14 140 45 75 91 120 157 151 24 11 47 27 50 35 7 17
17 16 52 -1z"/>
<path d="M16565 20864 c-37 -19 -45 -31 -45 -71 0 -28 -5 -34 -53 -56 -40 -18
-57 -33 -67 -57 -16 -38 -5 -63 29 -68 26 -4 26 -6 0 -58 -16 -34 -18 -47 -9
-63 6 -12 16 -21 22 -21 20 0 77 70 121 148 l43 77 154 0 c135 0 155 2 158 16
4 24 -18 29 -159 41 l-126 11 5 45 c4 36 1 48 -13 59 -23 16 -24 16 -60 -3z"/>
<path d="M9094 20782 c-6 -4 -16 -17 -23 -30 -11 -21 -7 -31 46 -104 32 -45
79 -104 106 -131 26 -28 47 -51 47 -53 0 -1 -29 -23 -65 -48 -99 -72 -197
-174 -193 -204 2 -14 11 -30 20 -35 14 -9 36 9 130 104 125 126 159 150 186
131 37 -27 158 -82 179 -82 16 0 23 6 23 18 0 23 -19 40 -93 81 -32 18 -56 38
-54 45 2 6 65 49 139 96 147 91 178 115 178 137 0 37 -115 -15 -281 -128 -47
-33 -93 -59 -101 -59 -18 0 -72 63 -119 140 -43 72 -90 130 -103 130 -6 0 -16
-4 -22 -8z"/>
<path d="M13799 20777 c-61 -23 -97 -55 -125 -112 -47 -97 -24 -197 57 -237
47 -25 125 -23 167 2 51 31 36 45 -49 45 -88 1 -113 13 -129 60 -20 62 9 128
70 160 37 19 111 19 156 0 44 -18 66 -10 62 24 -6 51 -132 86 -209 58z"/>
<path d="M25546 20769 c-56 -44 -121 -220 -109 -295 3 -19 8 -34 12 -34 9 1
51 70 51 85 0 41 45 150 76 184 37 42 43 65 18 75 -21 8 -18 9 -48 -15z"/>
<path d="M7521 20728 c-140 -10 -191 -26 -191 -58 0 -38 118 -60 143 -27 11
16 48 20 271 33 262 15 308 23 285 50 -9 11 -47 14 -198 13 -102 -1 -242 -6
-310 -11z"/>
<path d="M14118 20700 c-74 -40 -126 -142 -102 -205 9 -23 77 -55 118 -55 52
0 161 39 187 66 12 12 22 34 22 48 0 35 -38 91 -78 116 -18 11 -36 27 -39 35
-8 21 -63 18 -108 -5z m117 -97 c19 -20 35 -40 35 -44 0 -25 -117 -57 -165
-45 -33 8 -33 45 0 85 23 26 40 35 82 40 7 0 28 -15 48 -36z"/>
<path d="M14686 20695 c-56 -30 -52 -30 -59 -5 -3 12 -14 20 -26 20 -17 0 -29
-16 -55 -72 -18 -40 -40 -79 -49 -87 -23 -18 -21 -58 3 -71 17 -9 31 0 101 62
93 84 118 103 124 96 3 -2 7 -27 11 -54 9 -83 13 -91 45 -104 26 -11 33 -11
46 3 15 14 15 18 0 41 -12 17 -17 47 -17 94 0 104 -34 125 -124 77z"/>
<path d="M16143 20625 l-42 -35 -3 27 c-2 21 -9 29 -27 31 -30 5 -38 -4 -68
-75 -39 -91 -39 -101 -8 -113 41 -15 49 -13 101 30 27 22 52 40 56 40 4 0 8
-15 10 -32 2 -25 10 -36 32 -47 47 -22 59 -7 62 81 4 128 -35 160 -113 93z"/>
<path d="M7282 20551 c-8 -4 -12 -19 -10 -32 3 -21 10 -25 58 -31 95 -11 458
-9 506 3 45 12 69 35 56 56 -5 8 -59 9 -190 3 -108 -5 -226 -5 -285 0 -126 11
-119 11 -135 1z"/>
<path d="M24125 20443 c-54 -8 -54 -24 0 -19 28 3 56 5 63 5 6 1 12 6 12 11 0
10 -19 11 -75 3z"/>
<path d="M23995 20423 c-22 -13 -26 -18 -13 -21 22 -4 78 11 81 23 4 17 -36
16 -68 -2z"/>
<path d="M23928 20403 c7 -3 16 -2 19 1 4 3 -2 6 -13 5 -11 0 -14 -3 -6 -6z"/>
<path d="M23840 20390 c-12 -8 -9 -10 12 -10 15 0 30 5 33 10 8 13 -25 13 -45
0z"/>
<path d="M23755 20370 c-3 -5 3 -10 14 -10 11 0 23 5 26 10 3 6 -3 10 -14 10
-11 0 -23 -4 -26 -10z"/>
<path d="M23630 20360 c-8 -5 -11 -12 -8 -16 10 -9 78 5 78 16 0 13 -50 13
-70 0z"/>
<path d="M22725 20334 c-121 -15 -284 -46 -328 -63 -19 -7 -27 -17 -25 -29 4
-22 86 -36 108 -17 40 34 205 55 500 65 336 12 490 27 490 51 0 14 -616 9
-745 -7z"/>
<path d="M28456 20336 c-48 -18 -71 -40 -63 -60 6 -14 11 -14 48 -1 81 29 159
13 256 -53 117 -80 168 -191 138 -305 -26 -101 -123 -161 -265 -161 -95 -1
-149 19 -190 71 -38 48 -14 152 48 211 35 32 119 84 157 97 23 8 30 16 30 35
0 39 -39 37 -114 -7 -131 -78 -188 -149 -198 -247 -7 -72 0 -99 42 -145 134
-148 444 -100 537 82 11 23 23 69 26 102 6 87 -16 156 -75 230 -41 50 -64 68
-144 109 -108 54 -169 65 -233 42z"/>
<path d="M28013 20285 c-183 -50 -312 -165 -313 -279 0 -32 7 -45 40 -79 l40
-40 -20 -54 c-26 -70 -27 -183 -2 -233 14 -28 24 -36 51 -38 43 -4 151 14 202
35 48 19 84 78 74 123 -9 40 -77 114 -141 152 -30 18 -54 38 -54 44 0 6 10 19
21 30 12 10 57 58 100 106 78 86 97 128 61 128 -27 0 -57 -25 -113 -93 -28
-34 -65 -79 -82 -99 -38 -47 -66 -49 -101 -7 -14 17 -26 34 -26 38 0 17 60
100 86 118 57 40 130 71 209 88 91 20 116 35 95 59 -15 19 -58 19 -127 1z
m-103 -462 c68 -49 119 -117 104 -141 -15 -23 -99 -51 -156 -52 l-48 0 -1 58
c-1 31 0 73 1 92 2 35 23 80 39 80 4 0 31 -17 61 -37z"/>
<path d="M26844 20151 c-187 -51 -392 -207 -424 -323 -29 -104 108 -176 255
-133 115 33 286 134 362 214 54 56 63 95 34 154 -12 24 -21 50 -21 59 0 44
-99 58 -206 29z m112 -67 c36 -17 64 -58 64 -92 0 -39 -118 -124 -275 -199
-100 -47 -182 -55 -232 -24 -39 25 -41 43 -8 91 59 85 217 188 345 225 60 18
67 18 106 -1z"/>
<path d="M25775 20133 c-210 -46 -364 -103 -385 -143 -24 -45 27 -54 80 -15
63 46 261 105 355 105 42 0 45 -2 45 -28 0 -44 -77 -173 -256 -426 -47 -66
-45 -92 5 -107 106 -32 522 123 486 180 -11 19 -41 12 -122 -25 -141 -64 -324
-106 -310 -71 2 6 34 51 69 98 75 99 171 265 189 326 17 61 7 90 -39 102 -37
11 -80 12 -117 4z"/>
<path d="M27208 20116 c-9 -22 -5 -32 36 -90 25 -35 46 -69 46 -74 0 -6 -30
-27 -67 -47 -37 -20 -93 -57 -125 -82 -49 -37 -59 -49 -56 -72 5 -41 37 -38
89 7 77 68 188 135 213 128 12 -3 47 -34 77 -68 84 -98 110 -121 121 -110 24
24 -3 84 -63 144 -32 33 -59 65 -59 71 1 7 41 32 91 57 95 47 115 62 104 80
-9 14 -43 5 -155 -41 -52 -22 -99 -38 -105 -35 -6 2 -24 29 -40 61 -51 96 -85
119 -107 71z"/>
<path d="M24192 20050 c-87 -68 -160 -197 -188 -329 -11 -57 -32 -259 -34
-328 0 -6 -17 -13 -37 -15 -65 -5 -47 -68 19 -68 96 0 375 229 434 356 52 111
56 250 11 340 -49 96 -120 112 -205 44z m127 -46 c33 -41 44 -91 39 -174 -3
-52 -12 -92 -28 -126 -26 -55 -192 -227 -252 -262 l-38 -21 0 52 c0 137 33
302 80 397 31 62 128 160 159 160 11 0 29 -12 40 -26z"/>
<path d="M25069 20060 c-111 -58 -180 -214 -178 -399 1 -157 26 -233 65 -201
14 13 15 30 9 152 -4 78 -3 138 2 138 4 0 15 -11 23 -24 48 -78 148 -157 268
-210 73 -32 111 -31 128 3 18 36 7 54 -30 47 -59 -11 -270 115 -316 189 -43
70 -7 101 172 141 88 19 111 37 106 85 -2 26 -13 39 -52 66 -41 28 -57 33
-105 33 -35 -1 -69 -8 -92 -20z m136 -44 c48 -20 45 -43 -7 -56 -74 -18 -162
-52 -190 -72 -16 -11 -28 -14 -28 -8 0 21 71 105 108 127 43 27 70 28 117 9z"/>
<path d="M23653 19974 c-18 -8 -57 -89 -93 -197 -27 -79 -38 -101 -62 -114
-29 -18 -37 -50 -17 -70 8 -8 3 -33 -20 -93 -24 -63 -29 -86 -21 -101 24 -44
46 -17 88 107 l37 108 55 27 c88 43 93 42 102 -16 5 -27 18 -92 30 -144 27
-114 53 -148 78 -101 9 17 3 52 -25 165 -20 79 -34 149 -30 155 3 6 29 22 56
36 53 26 69 48 50 67 -11 11 -30 6 -112 -27 -13 -6 -19 6 -33 60 -18 74 -45
137 -61 140 -5 1 -15 0 -22 -2z m32 -177 c11 -37 11 -48 1 -56 -19 -16 -83
-41 -89 -35 -6 6 24 98 43 134 15 28 27 17 45 -43z"/>
<path d="M13415 19925 c-189 -129 -663 -610 -653 -663 3 -18 46 -27 63 -15 6
5 44 51 84 103 156 204 312 363 505 515 42 33 76 65 76 72 0 21 -34 15 -75
-12z"/>
<path d="M13020 19891 c-66 -49 -160 -144 -237 -236 -23 -27 -43 -48 -46 -45
-2 3 8 48 24 100 49 168 35 221 -58 219 -27 0 -91 -8 -143 -17 -89 -16 -95
-19 -98 -42 -5 -56 32 -65 147 -35 90 23 101 21 101 -17 0 -18 -11 -64 -25
-103 -15 -42 -25 -92 -25 -126 0 -71 -14 -84 -149 -144 -57 -25 -106 -45 -108
-45 -2 0 18 26 44 57 60 74 96 154 95 210 -1 101 -110 187 -154 121 -13 -19
-18 -21 -31 -10 -23 19 -58 -4 -132 -89 -62 -71 -77 -78 -110 -56 -11 8 -42
22 -68 32 -26 10 -46 23 -44 28 2 6 32 23 68 37 116 48 139 61 139 81 0 29
-55 25 -166 -12 -74 -25 -101 -39 -124 -66 l-30 -34 -76 12 c-96 17 -104 11
-110 -65 -3 -48 1 -70 21 -114 l25 -55 -23 -36 c-37 -56 -67 -118 -67 -139 0
-10 9 -27 20 -37 26 -23 46 -8 61 48 13 48 37 87 53 87 7 0 29 -18 50 -39 49
-50 90 -69 111 -51 23 19 19 28 -40 82 -30 27 -55 58 -55 68 0 10 29 43 64 74
l64 56 57 -12 c64 -13 77 -29 48 -61 -43 -49 -94 -135 -99 -168 -5 -28 -1 -41
21 -67 50 -60 130 -37 185 53 24 39 28 41 56 21 22 -16 15 -28 -18 -31 -37 -4
-38 -4 -38 -20 0 -8 10 -21 23 -30 30 -19 65 -9 228 66 120 55 149 66 149 54
0 -5 -63 -107 -91 -147 -29 -41 -25 -68 10 -68 37 0 41 6 112 147 129 256 227
377 452 557 26 21 47 42 47 47 0 23 -51 4 -110 -40z m-552 -194 c18 -38 6 -87
-38 -155 -50 -77 -100 -122 -136 -125 -28 -2 -29 -1 -27 46 1 30 10 62 26 90
36 60 138 178 151 174 6 -2 17 -15 24 -30z m-569 -77 c28 0 32 -2 21 -14 -22
-27 -109 -78 -121 -71 -12 8 -39 67 -39 86 0 8 15 10 53 5 28 -3 67 -6 86 -6z
m341 -39 c-19 -38 -40 -47 -40 -18 0 12 51 69 57 63 3 -2 -5 -23 -17 -45z
m-58 -96 c16 -35 -4 -94 -44 -134 -30 -29 -78 -42 -78 -22 0 31 85 181 103
181 4 0 13 -11 19 -25z"/>
<path d="M22442 19917 c-6 -6 -13 -26 -17 -42 -19 -81 -52 -183 -101 -307 -30
-76 -65 -177 -79 -224 -62 -213 -19 -261 222 -251 146 6 209 23 299 83 59 40
114 104 114 136 0 28 -16 22 -90 -36 -88 -69 -136 -91 -235 -112 -90 -19 -197
-14 -246 11 -25 13 -29 21 -29 55 0 45 61 237 119 374 45 106 91 247 91 280 0
21 -17 46 -31 46 -4 0 -11 -6 -17 -13z"/>
<path d="M10630 19882 l-43 -15 7 -56 c29 -240 25 -362 -19 -602 -28 -147 -25
-174 17 -203 49 -35 154 -9 287 70 98 58 171 120 171 145 0 10 -5 19 -11 19
-6 0 -59 -29 -118 -64 -126 -76 -191 -105 -248 -113 -42 -6 -43 -5 -43 24 0
16 9 72 19 124 42 202 50 381 25 558 l-6 44 199 -6 c149 -5 202 -4 211 5 18
18 15 56 -5 67 -10 5 -104 11 -209 13 -147 3 -202 0 -234 -10z"/>
<path d="M8839 19836 c-129 -46 -257 -201 -294 -357 -43 -184 14 -459 96 -459
31 0 41 32 18 66 -28 42 -55 138 -64 220 -12 129 40 265 141 367 67 67 106 87
173 87 104 0 77 -50 -151 -288 -54 -56 -98 -105 -98 -110 0 -4 9 -21 20 -39
22 -37 51 -47 182 -64 62 -8 109 -21 159 -45 39 -19 82 -34 95 -34 61 0 -5 84
-106 135 -27 14 -91 35 -140 46 l-91 21 109 112 c118 122 152 177 152 248 0
40 -5 50 -35 77 -29 26 -44 31 -83 31 -26 -1 -63 -7 -83 -14z"/>
<path d="M23067 19839 c-48 -11 -83 -37 -98 -71 -24 -57 12 -78 49 -29 41 55
174 66 268 21 57 -28 93 -95 74 -140 -18 -43 -83 -98 -157 -133 -113 -52 -213
-37 -213 32 0 40 40 102 87 136 33 23 42 36 40 55 -4 45 -40 37 -101 -22 -56
-55 -86 -122 -86 -193 0 -149 285 -136 429 20 49 53 61 81 61 140 0 87 -40
142 -127 175 -57 21 -157 25 -226 9z"/>
<path d="M26203 19797 c-59 -67 -134 -226 -163 -349 -7 -29 -21 -71 -31 -93
-23 -50 -24 -91 -3 -99 33 -13 51 24 122 244 17 55 51 130 81 179 55 91 61
115 32 130 -14 8 -23 5 -38 -12z"/>
<path d="M3616 19794 c-9 -8 -16 -16 -16 -17 0 -1 -7 -40 -15 -87 -21 -117
-19 -326 5 -512 11 -84 20 -174 20 -199 0 -57 21 -89 47 -73 16 10 18 24 16
104 -2 50 -8 119 -13 153 -19 108 -25 398 -10 467 12 56 15 61 36 57 54 -10
57 34 5 91 -33 36 -52 40 -75 16z"/>
<path d="M9408 19788 c-9 -7 -26 -52 -37 -99 -24 -104 -67 -232 -132 -394 -57
-143 -63 -167 -55 -201 9 -35 57 -31 68 6 29 97 72 231 79 241 5 9 15 4 32
-17 24 -27 27 -28 49 -15 13 8 47 28 76 44 68 37 74 32 103 -88 12 -49 26
-107 31 -127 11 -46 42 -52 60 -13 9 21 7 45 -16 133 -43 163 -42 150 -10 158
106 26 93 90 -15 77 l-51 -6 -33 74 c-19 41 -46 106 -61 144 -25 62 -47 95
-66 95 -3 0 -13 -6 -22 -12z m72 -228 c39 -84 40 -110 3 -110 -7 0 -40 -14
-73 -30 -33 -17 -60 -27 -60 -23 0 5 16 57 35 117 19 60 35 116 35 124 0 31
23 2 60 -78z"/>
<path d="M10033 19736 c-44 -55 -147 -252 -187 -358 -85 -228 -86 -348 -4
-336 22 3 23 6 20 75 -3 50 3 95 17 146 34 124 140 357 162 357 5 0 9 -44 9
-97 1 -122 32 -334 54 -368 12 -18 25 -25 49 -25 56 0 78 33 161 241 28 69 56
128 61 130 6 2 17 -64 27 -168 19 -181 28 -220 54 -230 31 -12 35 11 24 158
-16 208 -47 401 -67 417 -33 25 -45 12 -83 -88 -94 -251 -136 -346 -163 -368
-12 -11 -16 -7 -21 21 -11 58 -26 278 -26 389 0 58 -3 113 -6 122 -11 28 -51
18 -81 -18z"/>
<path d="M11421 19760 c-78 -12 -177 -66 -243 -133 -65 -66 -104 -138 -119
-223 -33 -174 109 -295 259 -222 46 22 176 144 246 230 74 92 96 205 54 279
-38 67 -90 86 -197 69z m134 -105 c59 -58 21 -147 -127 -297 -89 -92 -147
-128 -202 -128 -124 0 -132 192 -13 326 37 43 130 106 155 105 48 -3 60 -2 92
7 55 16 69 14 95 -13z"/>
<path d="M14222 19745 c-65 -30 -225 -124 -303 -176 -66 -44 -64 -45 -121 56
-35 62 -64 79 -87 51 -14 -17 1 -53 55 -127 40 -55 41 -62 11 -82 -85 -55
-257 -234 -257 -267 0 -13 9 -22 26 -26 34 -9 74 10 74 35 0 23 110 153 176
206 l45 37 62 -59 c66 -60 161 -122 234 -149 76 -29 104 9 31 42 -93 41 -268
175 -268 203 0 17 240 163 395 241 17 8 29 20 28 25 -4 19 -49 15 -101 -10z"/>
<path d="M5992 19729 c-57 -11 -139 -51 -178 -86 -72 -64 -153 -221 -190 -368
-25 -102 -26 -340 -1 -379 13 -18 25 -26 40 -24 19 3 22 8 19 43 -18 223 1
385 58 512 54 118 121 178 235 208 64 16 125 20 125 7 0 -9 -66 -60 -145 -112
-85 -56 -157 -122 -171 -156 -12 -29 -11 -40 6 -96 22 -73 51 -104 151 -167
104 -65 176 -92 256 -98 85 -7 166 16 161 46 -3 13 -20 17 -93 21 -68 4 -104
12 -146 32 -105 48 -279 177 -279 206 0 24 100 108 265 223 77 54 104 86 105
126 0 49 -38 73 -114 72 -33 -1 -80 -5 -104 -10z"/>
<path d="M6766 19659 c-69 -10 -182 -41 -222 -61 -24 -11 -29 -20 -27 -46 2
-59 14 -63 106 -31 92 31 186 49 265 49 67 0 92 -13 92 -48 0 -38 -76 -202
-142 -308 -31 -49 -62 -106 -69 -126 -12 -34 -11 -41 7 -65 38 -50 105 -52
308 -7 60 13 153 31 208 40 160 25 244 62 212 94 -10 10 -68 2 -417 -56 -158
-26 -232 -30 -242 -14 -7 11 10 46 60 120 83 123 145 274 145 353 0 29 -7 45
-28 67 -48 47 -121 59 -256 39z"/>
<path d="M7753 19529 c-115 -13 -133 -21 -133 -61 0 -61 8 -64 107 -49 139 21
239 30 363 31 141 2 204 16 208 47 2 14 -3 23 -15 27 -35 10 -449 15 -530 5z"/>
<path d="M25664 19336 c-9 -37 -1 -61 22 -64 26 -4 33 12 27 56 -6 40 -39 45
-49 8z"/>
<path d="M28324 19348 c-4 -6 -11 -122 -16 -257 -5 -135 -13 -274 -19 -309 -9
-48 -8 -66 1 -77 16 -19 56 -19 63 -1 3 8 9 113 12 233 3 120 11 258 16 306 6
48 8 94 5 102 -6 18 -52 20 -62 3z"/>
<path d="M7970 19340 c-91 -4 -216 -11 -278 -15 -109 -7 -114 -9 -123 -33 -11
-30 -4 -58 17 -66 9 -3 44 -2 77 4 34 5 151 18 260 30 209 21 271 37 265 67
-4 22 -8 22 -218 13z"/>
<path d="M27643 19305 c-40 -32 -46 -80 -12 -90 14 -5 18 -12 13 -23 -28 -67
-22 -189 12 -272 34 -80 107 -121 182 -101 73 20 190 167 213 267 14 64 -4
109 -65 159 -60 49 -124 72 -226 79 -81 7 -86 6 -117 -19z m178 -35 c199 -75
213 -190 43 -350 -47 -44 -59 -51 -82 -45 -54 13 -84 86 -86 211 -1 68 1 76
27 99 31 30 33 38 12 55 -12 10 -21 10 -40 2 -30 -14 -34 1 -8 30 21 24 69 23
134 -2z"/>
<path d="M25502 19218 c-64 -29 -131 -68 -157 -90 -87 -77 -123 -178 -66 -186
27 -4 41 12 41 49 0 36 51 97 113 137 70 44 86 41 47 -8 -19 -24 -34 -57 -37
-80 -5 -37 -2 -44 35 -79 41 -39 251 -151 284 -151 63 0 -53 -98 -179 -150
-61 -25 -86 -31 -119 -26 -34 4 -45 1 -60 -15 -25 -28 -8 -53 40 -57 85 -7
271 75 355 158 45 43 52 55 49 82 -2 26 -10 36 -38 49 -19 9 -71 33 -115 54
-98 45 -183 102 -191 127 -8 26 17 62 93 134 67 63 79 97 38 101 -11 1 -71
-21 -133 -49z"/>
<path d="M25033 19201 c-82 -56 -136 -132 -173 -247 -26 -81 -30 -109 -30
-204 0 -93 3 -116 22 -155 22 -46 51 -64 83 -51 21 8 19 43 -4 56 -32 16 -58
141 -45 208 l6 31 32 -24 c50 -38 154 -81 228 -95 68 -12 88 -9 88 14 0 23
-26 37 -106 57 -99 25 -169 63 -185 101 -19 47 6 85 122 179 57 47 110 97 119
112 14 26 14 29 -4 43 -36 26 -89 17 -153 -25z m87 -15 c0 -10 -151 -138 -156
-133 -11 10 41 70 91 103 46 31 65 40 65 30z"/>
<path d="M26650 19223 c-197 -71 -328 -258 -291 -415 26 -113 106 -161 226
-136 100 21 194 117 203 207 8 87 -71 210 -154 242 -56 21 -88 -18 -36 -45 63
-33 122 -121 122 -182 0 -95 -130 -189 -226 -163 -95 27 -105 192 -19 309 76
104 180 147 308 126 61 -10 83 -2 72 26 -11 29 -152 50 -205 31z"/>
<path d="M24171 19206 c-18 -21 -65 -158 -126 -362 -60 -201 -101 -299 -125
-299 -42 0 -145 284 -159 440 -6 67 -7 70 -34 73 -19 2 -29 -2 -34 -14 -10
-26 13 -141 53 -267 85 -265 160 -353 237 -278 24 24 91 191 122 310 15 53 46
162 71 243 24 80 44 151 44 157 0 16 -35 14 -49 -3z"/>
<path d="M27300 19078 c-30 -17 -90 -60 -133 -95 -44 -34 -85 -63 -91 -63 -7
0 -39 38 -70 84 -31 46 -65 86 -75 89 -22 5 -51 -9 -51 -27 0 -7 32 -52 71
-101 l71 -88 -56 -53 c-89 -85 -119 -164 -72 -186 39 -17 56 -4 56 41 0 33 8
48 51 95 28 31 55 56 61 56 5 0 28 -13 51 -29 60 -41 143 -81 167 -81 16 0 21
5 18 21 -2 15 -24 33 -68 56 -90 49 -110 62 -110 72 0 5 61 55 135 111 127 96
158 130 118 130 -10 0 -43 -14 -73 -32z"/>
<path d="M12472 19005 c-16 -20 -68 -111 -117 -203 -174 -331 -207 -387 -233
-409 -56 -46 -61 -53 -56 -68 10 -26 60 -18 100 17 27 24 61 82 134 232 129
266 130 269 178 359 42 77 51 107 33 107 -5 0 -23 -16 -39 -35z"/>
<path d="M22596 19008 c-8 -13 -26 -52 -40 -88 -13 -36 -36 -92 -51 -125 -21
-45 -126 -341 -176 -493 -2 -8 4 -19 13 -25 29 -19 53 17 88 133 67 220 80
261 115 351 20 52 40 98 45 102 4 5 11 -20 14 -55 12 -118 28 -203 53 -280 21
-70 26 -78 49 -78 33 0 39 17 64 200 24 173 40 250 51 250 9 0 11 -7 38 -125
34 -150 82 -277 114 -303 19 -16 50 -4 43 17 -3 9 -21 61 -41 116 -20 55 -50
160 -66 234 -35 157 -41 171 -74 171 -41 0 -60 -47 -95 -229 -17 -91 -34 -173
-37 -181 -15 -42 -41 118 -46 286 -3 67 -7 127 -11 133 -11 18 -34 13 -50 -11z"/>
<path d="M23255 19002 c-39 -21 -56 -38 -74 -76 -19 -39 -22 -52 -13 -67 9
-14 7 -27 -8 -62 -54 -122 -60 -224 -19 -311 81 -173 321 -33 410 238 20 61
21 75 12 133 -20 113 -90 173 -203 173 -41 0 -68 -7 -105 -28z m159 -45 c64
-36 81 -68 80 -145 -1 -76 -34 -158 -102 -246 -44 -58 -75 -82 -120 -91 -28
-6 -37 -2 -62 25 -28 29 -30 38 -30 104 0 75 15 138 48 202 21 41 63 86 78 83
38 -7 48 33 13 51 -16 9 -27 7 -55 -9 -36 -22 -46 -15 -16 12 45 41 110 47
166 14z"/>
<path d="M13560 18946 c-188 -65 -313 -172 -392 -333 -39 -80 -42 -95 -42
-163 0 -85 15 -138 47 -168 48 -45 112 -34 69 11 -33 34 -52 91 -52 151 l0 54
143 7 c78 3 178 10 221 16 44 5 82 7 84 4 3 -2 -12 -23 -32 -45 -61 -68 -42
-116 44 -114 62 1 121 36 194 114 34 38 58 56 60 48 3 -7 14 -46 25 -87 26
-95 41 -111 101 -111 28 0 52 6 59 13 14 17 4 27 -26 27 -38 0 -61 33 -79 118
-9 43 -22 86 -29 95 -6 9 -33 22 -59 29 -42 11 -54 10 -109 -9 -60 -21 -171
-32 -453 -47 -121 -6 -127 -1 -89 71 87 168 270 286 445 287 63 1 75 4 78 18
8 42 -106 50 -208 14z m251 -425 c-35 -45 -115 -101 -143 -101 -68 0 86 138
155 140 16 0 14 -6 -12 -39z"/>
<path d="M12860 18932 c-83 -41 -229 -203 -387 -432 -48 -69 -102 -142 -120
-163 -38 -43 -40 -70 -4 -75 39 -6 95 62 190 233 78 139 223 313 325 390 36
27 66 53 66 57 0 13 -33 9 -70 -10z"/>
<path d="M16435 18880 c-8 -16 -15 -43 -15 -60 0 -18 -9 -75 -19 -128 -30
-151 -33 -189 -21 -312 14 -153 18 -170 40 -170 10 0 21 7 24 16 3 8 3 81 0
162 -5 137 -4 158 25 305 17 88 33 163 36 168 10 15 -15 49 -35 49 -11 0 -26
-12 -35 -30z"/>
<path d="M11355 18860 c-3 -5 -34 -92 -69 -192 -35 -101 -84 -240 -109 -310
-41 -113 -44 -128 -30 -140 13 -10 19 -8 37 15 29 36 101 221 165 424 44 139
50 165 40 187 -13 27 -24 33 -34 16z"/>
<path d="M14836 18787 c-35 -37 -58 -72 -137 -201 -53 -86 -56 -90 -129 -125
-67 -32 -83 -36 -158 -36 -79 0 -85 2 -108 28 -34 39 -48 100 -32 135 17 34
38 38 71 12 32 -25 34 -50 7 -75 -27 -24 -25 -45 4 -45 29 0 73 40 82 75 18
74 -125 148 -194 99 -29 -20 -52 -65 -52 -102 0 -45 50 -134 88 -156 44 -25
154 -32 223 -16 30 8 71 12 91 11 30 -1 45 5 75 32 42 38 105 61 203 76 101
15 180 22 180 15 0 -4 -20 -24 -44 -45 -57 -50 -66 -84 -32 -117 55 -55 230
-21 265 52 29 62 -32 153 -121 177 -35 9 -52 8 -93 -4 -27 -9 -77 -19 -110
-22 -33 -3 -84 -11 -113 -16 -30 -6 -55 -9 -58 -7 -7 7 86 151 133 206 27 31
43 58 39 67 -9 25 -47 17 -80 -18z m323 -290 c6 -8 14 -28 17 -45 5 -25 2 -33
-21 -48 -33 -21 -119 -31 -130 -14 -4 7 12 28 41 55 27 24 54 48 59 54 14 14
21 13 34 -2z"/>
<path d="M15695 18796 c-26 -26 -57 -118 -48 -141 3 -8 16 -15 29 -15 26 0 46
31 59 88 4 18 13 36 21 39 20 7 17 31 -5 43 -27 14 -29 13 -56 -14z"/>
<path d="M25932 18786 c-42 -49 -55 -101 -56 -232 -1 -122 9 -153 45 -133 17
9 19 22 19 117 0 125 10 170 46 201 18 15 24 30 22 49 -5 41 -39 40 -76 -2z"/>
<path d="M10575 18800 c-16 -5 -55 -13 -85 -19 -72 -15 -147 -50 -195 -92 -44
-39 -95 -139 -95 -187 0 -145 180 -232 481 -232 159 0 231 31 277 121 53 100
6 264 -98 343 -81 62 -199 89 -285 66z m134 -116 c18 -8 48 -14 67 -14 66 0
144 -102 144 -188 0 -51 -28 -103 -70 -126 -64 -37 -288 -32 -429 10 -27 8
-68 31 -95 55 -43 38 -46 44 -46 90 0 42 5 54 37 90 43 47 117 88 182 99 58
11 166 2 210 -16z"/>
<path d="M8871 18750 c-58 -9 -74 -23 -66 -58 5 -19 -1 -25 -29 -37 -142 -60
-313 -247 -324 -353 -8 -83 34 -137 134 -174 104 -39 351 -28 524 23 101 29
164 71 207 135 32 48 38 66 41 124 4 58 0 75 -24 125 -71 144 -279 241 -463
215z m273 -137 c45 -23 127 -104 142 -140 40 -93 -15 -192 -136 -247 -131 -60
-470 -76 -557 -26 -49 27 -77 71 -68 108 13 62 135 185 246 249 33 19 137 56
184 66 48 10 162 4 189 -10z"/>
<path d="M10170 18713 c-25 -15 -115 -68 -201 -120 -86 -51 -164 -95 -172 -99
-9 -3 -74 19 -147 50 -71 31 -145 57 -162 58 -30 3 -33 0 -36 -26 -8 -63 1
-72 105 -106 54 -18 101 -36 106 -39 4 -4 -31 -27 -77 -51 -125 -64 -181 -109
-181 -145 0 -47 34 -45 102 7 32 25 87 62 123 83 36 21 79 46 96 56 l31 19 97
-49 c53 -28 108 -58 124 -69 128 -90 202 -62 85 33 -31 26 -90 65 -130 87 -40
22 -71 44 -68 48 3 5 35 25 73 45 104 58 286 181 300 205 13 22 9 40 -11 40
-7 -1 -32 -13 -57 -27z"/>
<path d="M3518 18701 c-79 -26 -140 -64 -182 -113 -44 -51 -47 -88 -9 -118 42
-33 58 -23 58 35 0 47 2 50 49 86 61 47 120 64 217 64 90 0 109 -11 109 -64 0
-56 -72 -166 -266 -406 -90 -112 -144 -200 -144 -236 0 -21 9 -33 38 -51 33
-20 48 -23 142 -22 58 1 163 11 234 23 70 12 160 26 198 31 79 9 98 21 78 45
-17 20 -43 19 -281 -11 -200 -25 -310 -27 -332 -5 -14 14 15 59 116 183 130
160 238 308 263 363 29 61 32 135 7 157 -63 55 -195 72 -295 39z"/>
<path d="M5750 18691 c-84 -26 -140 -77 -179 -166 -52 -116 -77 -306 -66 -498
7 -134 17 -167 51 -167 36 0 44 27 28 90 -17 61 -31 230 -20 230 4 0 22 -11
39 -24 41 -31 117 -68 187 -92 82 -28 328 -28 385 1 27 13 40 27 40 40 0 16
-5 19 -25 16 -14 -2 -88 -4 -165 -5 l-140 -1 -90 38 c-96 41 -171 85 -200 117
-17 19 -17 21 0 40 40 44 164 87 387 134 127 27 171 45 188 77 18 32 -7 59
-101 107 -127 65 -240 87 -319 63z m225 -102 c65 -21 92 -35 84 -43 -3 -3 -61
-17 -129 -31 -118 -25 -262 -69 -310 -95 -31 -17 -35 -7 -16 42 58 144 187
188 371 127z"/>
<path d="M6648 18685 c-54 -7 -102 -16 -108 -20 -14 -9 -12 -48 4 -70 14 -19
21 -19 176 5 132 20 257 5 290 -36 34 -40 -38 -105 -212 -190 -62 -30 -120
-59 -128 -63 -19 -10 -25 -48 -10 -67 10 -11 49 -14 204 -14 246 0 446 -31
454 -71 7 -36 -248 -158 -377 -180 -72 -12 -75 -12 -89 9 -16 24 -42 28 -60
10 -20 -20 -14 -45 16 -68 24 -20 36 -22 97 -17 104 8 187 32 312 92 116 57
193 117 193 152 0 80 -167 138 -440 151 l-135 7 80 44 c143 78 175 112 175
190 0 48 -33 92 -94 123 -53 27 -208 33 -348 13z"/>
<path d="M15517 18639 c-25 -13 -61 -51 -103 -108 -35 -49 -73 -91 -84 -94
-20 -5 -40 -43 -40 -78 0 -14 7 -19 26 -19 42 0 58 15 124 112 70 103 117 158
137 158 18 0 33 -33 33 -73 0 -106 20 -149 58 -128 12 7 22 5 33 -5 9 -8 39
-17 66 -21 63 -7 161 24 233 73 43 30 50 32 50 16 0 -50 103 -72 150 -34 35
28 18 42 -42 35 l-51 -6 6 62 c7 60 6 64 -24 93 -30 31 -31 31 -110 25 -118
-9 -217 -62 -274 -145 l-22 -32 -6 52 c-7 72 -24 104 -62 123 -42 19 -52 19
-98 -6z m523 -53 c0 -7 -24 -36 -53 -63 -52 -49 -104 -73 -189 -87 -112 -19 5
116 131 150 63 17 111 17 111 0z"/>
<path d="M8070 18579 c-156 -7 -372 -42 -390 -64 -6 -8 -10 -26 -8 -42 3 -26
6 -28 48 -28 25 1 79 8 120 17 41 10 153 24 249 33 209 19 261 30 261 56 0 31
-63 37 -280 28z"/>
<path d="M8255 18409 c-22 -5 -150 -11 -284 -13 -260 -5 -268 -7 -250 -53 12
-32 57 -37 258 -29 244 9 358 37 349 84 -4 20 -20 23 -73 11z"/>
<path d="M29822 18316 c-20 -26 -20 -27 -110 -276 -95 -263 -124 -357 -125
-408 -2 -40 1 -47 17 -47 16 0 31 35 91 210 39 116 76 219 82 230 6 11 23 56
38 100 16 44 39 102 51 129 17 36 20 54 13 68 -13 25 -34 23 -57 -6z"/>
<path d="M23980 18323 c-63 -4 -342 -33 -605 -63 -99 -11 -331 -43 -515 -70
-184 -27 -378 -54 -430 -60 -197 -23 -322 -56 -335 -88 -9 -23 18 -46 41 -34
31 16 190 49 339 72 77 11 154 23 170 25 20 4 10 -4 -32 -24 -33 -16 -68 -40
-77 -53 -20 -31 -9 -75 28 -102 25 -19 41 -21 209 -21 173 -1 184 -2 232 -25
91 -45 85 -97 -25 -209 -107 -111 -251 -190 -347 -191 -43 0 -53 3 -58 20 -7
23 -28 26 -45 5 -19 -22 -8 -46 30 -66 100 -54 298 22 453 174 87 85 122 149
114 209 -14 103 -121 148 -353 148 -123 0 -145 2 -164 18 -30 24 -21 36 46 61
74 28 160 28 219 -1 40 -20 47 -20 60 -7 14 14 14 17 -4 34 -12 10 -49 26 -83
35 l-63 18 45 6 c25 3 108 15 185 25 77 11 199 27 270 35 72 9 206 25 300 36
93 11 242 25 330 31 183 12 227 19 233 37 5 15 -40 33 -81 30 -18 -1 -57 -3
-87 -5z"/>
<path d="M24217 18280 c-87 -17 -176 -114 -216 -237 -27 -80 -53 -351 -49
-494 3 -87 5 -94 24 -97 13 -2 24 4 29 15 3 10 9 98 12 196 5 157 8 177 22
172 9 -3 61 -13 116 -22 153 -24 326 -62 341 -74 23 -19 16 -43 -23 -89 -89
-104 -318 -240 -419 -248 -44 -4 -55 -1 -70 17 -10 11 -26 21 -36 21 -28 0
-22 -38 12 -72 30 -29 33 -30 108 -26 67 3 89 10 164 48 130 65 292 191 324
252 30 57 11 130 -41 156 -37 18 -179 51 -293 66 -62 9 -115 16 -117 16 -22 0
10 27 88 75 151 94 197 142 197 207 0 25 -8 46 -27 69 -24 28 -80 61 -100 58
-4 -1 -25 -5 -46 -9z m83 -79 c38 -27 36 -51 -7 -93 -39 -38 -242 -187 -255
-188 -12 0 -10 21 8 81 23 76 57 139 96 176 58 56 104 63 158 24z"/>
<path d="M29301 18271 c-110 -45 -200 -149 -300 -347 -54 -109 -105 -259 -99
-295 3 -27 32 -37 53 -19 8 7 15 28 15 47 0 42 55 185 117 305 77 149 207 268
294 268 34 0 59 -32 59 -77 0 -71 -128 -165 -264 -194 -89 -19 -87 -44 9 -99
66 -38 237 -100 274 -100 33 0 49 27 29 45 -7 7 -57 27 -111 45 -143 49 -145
52 -65 88 147 67 223 195 173 292 -30 58 -102 74 -184 41z"/>
<path d="M27230 18264 c-102 -68 -205 -218 -266 -387 -138 -383 -156 -474 -91
-465 16 2 23 11 25 33 6 48 60 247 71 258 6 6 39 -3 94 -27 96 -41 180 -72
249 -91 37 -10 51 -10 64 -1 33 25 12 47 -66 71 -130 40 -260 90 -259 100 0 6
39 39 86 75 101 77 184 166 215 229 13 26 24 71 26 106 3 50 0 65 -18 88 -17
22 -30 27 -64 27 -23 0 -53 -7 -66 -16z m78 -46 c17 -17 14 -77 -7 -123 -10
-22 -42 -66 -71 -98 -69 -76 -230 -212 -230 -195 0 22 39 118 78 193 43 81
117 177 164 211 36 27 49 29 66 12z"/>
<path d="M27920 18203 c-154 -13 -240 -54 -240 -112 0 -41 29 -50 56 -16 26
33 86 51 220 66 114 13 129 9 119 -33 -11 -45 -132 -195 -212 -263 -87 -74
-107 -102 -97 -140 18 -73 127 -73 374 -1 133 38 202 67 228 93 21 22 23 27
10 39 -12 13 -28 10 -119 -22 -57 -21 -142 -48 -189 -60 -94 -26 -245 -43
-239 -27 2 5 39 41 81 79 122 110 228 262 228 329 0 56 -19 69 -102 71 -40 1
-93 0 -118 -3z"/>
<path d="M23716 18121 c-8 -22 -20 -100 -26 -173 -17 -222 -60 -354 -142 -439
-37 -38 -42 -40 -91 -37 -49 3 -53 5 -75 45 -34 63 -55 175 -47 258 10 106 35
205 56 223 32 28 18 72 -23 72 -61 0 -113 -331 -74 -475 25 -97 71 -162 127
-183 14 -6 47 -7 74 -4 43 4 56 12 100 56 95 96 131 202 150 448 7 95 18 186
24 201 13 33 7 47 -19 47 -12 0 -23 -14 -34 -39z"/>
<path d="M26062 18102 c-19 -19 -56 -128 -67 -197 -9 -55 -81 -125 -128 -125
-18 0 -43 7 -56 16 -20 14 -23 23 -18 61 2 24 12 52 21 62 38 42 5 101 -37 64
-43 -39 -62 -149 -35 -207 24 -53 97 -77 166 -53 42 14 42 14 42 -9 0 -13 -11
-67 -24 -121 -14 -54 -28 -119 -31 -144 -8 -57 7 -92 38 -87 19 3 22 10 23 58
1 60 102 503 134 588 24 63 25 98 5 106 -9 3 -24 -3 -33 -12z"/>
<path d="M25365 18043 c-47 -24 -95 -74 -120 -123 -19 -38 -47 -152 -85 -340
-26 -132 -17 -197 26 -188 15 2 20 13 22 53 6 99 41 322 62 387 27 87 99 171
148 171 34 0 115 -49 109 -67 -2 -6 -46 -29 -98 -52 -55 -23 -110 -55 -133
-77 -37 -35 -39 -38 -33 -86 8 -68 32 -110 71 -126 49 -21 293 -68 311 -61 10
3 15 15 13 28 -4 27 -56 45 -202 71 -113 21 -136 35 -136 86 0 23 7 44 18 54
9 8 67 34 127 57 120 45 145 62 145 95 0 29 -66 104 -107 121 -43 18 -101 17
-138 -3z"/>
<path d="M28518 17853 c-17 -18 -75 -117 -250 -423 -56 -96 -110 -188 -120
-203 -21 -29 -18 -57 5 -57 15 0 32 26 161 240 147 243 200 326 234 365 23 26
32 45 30 63 -4 33 -37 41 -60 15z"/>
<path d="M13885 17699 c-205 -181 -359 -376 -533 -676 -23 -39 -58 -92 -77
-117 -19 -26 -35 -55 -35 -66 0 -25 44 -38 65 -20 9 7 72 108 142 224 180 302
237 379 405 551 81 84 148 158 148 164 0 27 -42 6 -115 -60z"/>
<path d="M12592 17738 c-6 -6 -12 -22 -12 -34 0 -29 -35 -213 -62 -324 -32
-135 -36 -176 -26 -271 7 -74 5 -105 -11 -186 -21 -102 -18 -123 20 -123 24 0
33 19 53 110 14 60 16 101 11 205 -6 118 -4 140 18 235 70 296 81 392 42 398
-11 1 -26 -3 -33 -10z"/>
<path d="M11833 17715 c-150 -46 -253 -177 -288 -365 -8 -47 -19 -98 -24 -115
-4 -16 -9 -130 -10 -253 -2 -200 -1 -226 15 -243 20 -22 47 -25 63 -6 7 10 8
31 1 73 -10 60 -14 274 -5 274 2 0 35 -20 72 -44 136 -87 244 -132 347 -142
76 -7 141 11 141 41 0 19 -6 20 -85 17 -99 -4 -168 17 -308 96 -162 91 -203
156 -125 202 48 28 163 65 298 96 192 43 234 63 248 122 9 40 -20 116 -65 167
-74 84 -172 113 -275 80z m182 -69 c43 -33 82 -90 91 -132 8 -39 -19 -67 -79
-82 -23 -6 -89 -23 -147 -37 -58 -14 -143 -41 -190 -60 -46 -19 -86 -32 -89
-30 -2 3 1 30 8 60 40 176 187 321 318 312 37 -3 62 -11 88 -31z"/>
<path d="M14414 17674 c-78 -47 -106 -69 -184 -145 -93 -92 -188 -201 -333
-385 -115 -147 -174 -210 -238 -256 -20 -13 -22 -20 -13 -35 6 -10 24 -19 40
-21 42 -4 95 45 197 181 46 61 129 173 184 247 119 160 239 285 345 360 73 52
90 72 69 84 -4 3 -35 -11 -67 -30z"/>
<path d="M16374 17678 c-4 -6 -8 -93 -9 -192 -1 -115 -8 -219 -19 -283 -17
-107 -25 -322 -12 -360 7 -23 35 -38 47 -26 4 4 10 71 13 148 3 77 13 181 21
230 21 122 35 348 26 414 -9 64 -46 103 -67 69z"/>
<path d="M9115 17656 c-112 -36 -178 -97 -239 -223 -65 -133 -105 -340 -91
-471 8 -79 31 -107 78 -97 45 10 64 29 47 49 -7 9 -18 16 -25 16 -7 0 -16 8
-19 17 -10 26 -20 213 -12 213 4 0 22 -11 39 -24 106 -78 327 -168 445 -181
86 -10 192 16 192 46 0 5 -45 9 -101 9 -58 0 -128 7 -163 15 -73 19 -294 128
-337 167 -68 63 -26 91 231 158 176 45 208 58 240 92 56 61 -25 177 -149 212
-67 19 -82 19 -136 2z m157 -67 c41 -21 78 -67 78 -98 0 -29 -54 -54 -197 -90
-66 -17 -152 -44 -191 -60 -40 -16 -72 -24 -72 -18 0 6 19 49 41 96 86 178
207 238 341 170z"/>
<path d="M26375 17647 c-8 -13 -51 -133 -95 -266 -45 -134 -94 -275 -110 -313
-17 -39 -30 -74 -30 -79 0 -20 31 -7 53 24 41 54 58 93 133 307 39 113 82 231
94 262 12 31 20 64 17 73 -9 23 -44 18 -62 -8z"/>
<path d="M9788 17545 c-66 -16 -184 -68 -210 -92 -25 -22 -23 -53 2 -53 12 0
53 18 93 39 96 53 182 74 280 69 67 -3 82 -7 97 -26 11 -14 16 -30 12 -44 -8
-31 -85 -106 -227 -220 -66 -52 -150 -127 -187 -165 -97 -101 -100 -141 -15
-164 54 -14 289 10 500 52 26 5 79 9 117 9 37 0 75 3 84 6 22 8 20 41 -3 54
-30 16 -73 12 -272 -21 -203 -34 -409 -49 -409 -30 0 21 74 93 219 210 159
129 255 224 265 266 10 38 -13 77 -59 100 -51 26 -204 31 -287 10z"/>
<path d="M5950 17521 c-115 -35 -196 -126 -240 -266 -40 -133 -49 -459 -14
-543 11 -28 18 -33 41 -30 33 4 33 10 10 133 -18 95 -14 304 8 397 22 97 79
166 166 202 43 18 169 32 169 19 0 -6 -40 -35 -89 -67 -163 -104 -216 -184
-192 -290 33 -148 169 -216 436 -218 98 -1 161 12 196 41 40 32 17 43 -80 36
-61 -5 -121 -2 -201 10 -166 24 -229 56 -271 137 -29 57 -25 91 16 127 42 36
194 138 248 166 38 20 107 87 107 104 0 16 -25 29 -78 40 -59 12 -194 13 -232
2z"/>
<path d="M3718 17490 c-144 -14 -238 -49 -225 -84 11 -28 49 -36 72 -16 42 37
93 45 281 45 186 0 220 -7 207 -41 -7 -18 -82 -72 -153 -111 -128 -70 -167
-94 -194 -122 -56 -58 -17 -86 188 -132 168 -38 280 -75 314 -104 l27 -23 -30
-32 c-38 -39 -84 -66 -220 -126 -155 -68 -415 -198 -448 -224 -30 -24 -35 -48
-12 -56 8 -3 72 24 143 60 71 36 197 95 280 131 246 106 352 173 352 223 0 34
-59 92 -119 119 -74 32 -197 68 -309 88 -145 27 -143 37 27 130 233 126 273
172 199 228 -55 42 -219 62 -380 47z"/>
<path d="M7328 17473 c-26 -30 -46 -76 -77 -182 -33 -111 -37 -121 -51 -121
-6 0 -39 -20 -75 -44 -96 -66 -180 -72 -230 -16 -47 52 4 212 92 290 48 42 54
67 19 76 -34 8 -60 -8 -107 -68 -74 -94 -93 -143 -94 -233 0 -67 4 -85 22
-111 29 -41 84 -66 143 -66 57 0 169 50 200 89 11 14 22 24 25 22 2 -3 -21
-101 -51 -218 -30 -117 -54 -223 -52 -235 4 -27 44 -35 51 -9 81 289 200 676
233 757 18 45 21 62 13 73 -16 18 -43 16 -61 -4z"/>
<path d="M8110 17399 c-110 -13 -410 -100 -446 -130 -18 -15 -18 -34 1 -49 12
-10 30 -7 98 18 122 46 249 80 344 93 81 12 118 29 110 52 -6 18 -40 23 -107
16z"/>
<path d="M14686 17274 c-29 -29 9 -97 99 -174 28 -23 52 -44 54 -46 2 -2 -17
-16 -41 -31 -24 -15 -94 -66 -156 -113 -87 -65 -112 -89 -110 -105 3 -22 27
-30 62 -21 12 3 56 36 97 74 42 38 106 90 142 116 l66 47 73 -35 c99 -47 225
-81 244 -65 24 20 -9 45 -80 63 -87 21 -159 53 -154 68 3 7 55 35 116 63 125
57 145 71 122 85 -19 12 -30 9 -180 -56 -69 -30 -133 -54 -143 -54 -25 0 -89
68 -129 136 -37 63 -56 75 -82 48z"/>
<path d="M10633 17204 c-3 -8 -2 -19 3 -24 7 -7 389 -13 622 -10 26 0 33 4 30
17 -2 10 -16 21 -33 24 -17 4 -162 7 -323 8 -257 1 -293 -1 -299 -15z"/>
<path d="M15671 17165 c-79 -7 -152 -10 -161 -8 -23 6 -60 -14 -60 -32 0 -34
83 -45 205 -25 33 5 141 14 240 20 99 6 190 13 203 15 32 8 27 32 -9 39 -48 9
-257 5 -418 -9z"/>
<path d="M8040 17129 c-61 -15 -233 -38 -295 -40 -84 -3 -95 -7 -95 -34 0 -41
26 -46 156 -30 229 27 344 58 344 94 0 18 -6 21 -37 20 -21 -1 -54 -5 -73 -10z"/>
<path d="M26194 16915 c-122 -29 -248 -126 -306 -232 -42 -79 -68 -178 -74
-287 -7 -115 11 -344 30 -390 18 -42 50 -68 78 -64 34 5 37 45 4 72 -23 19
-27 34 -41 139 -21 163 -19 221 10 321 56 193 133 285 282 335 66 22 213 39
213 24 0 -10 -48 -47 -207 -157 -129 -90 -257 -217 -268 -265 -11 -50 36 -138
84 -158 81 -35 353 -21 444 22 65 30 60 91 -5 64 -24 -10 -79 -14 -198 -14
-136 0 -173 3 -212 18 -27 10 -48 24 -48 31 0 36 139 152 385 318 131 89 159
184 66 222 -49 19 -161 20 -237 1z"/>
<path d="M24960 16894 c-84 -11 -498 -99 -506 -107 -15 -14 -54 -81 -54 -91 0
-29 -54 -143 -82 -172 -18 -19 -28 -39 -26 -50 3 -11 -13 -55 -35 -98 -76
-153 -84 -219 -37 -284 30 -41 74 -62 130 -62 50 1 187 30 299 64 64 19 150
44 191 56 83 24 121 54 97 77 -11 12 -25 11 -88 -2 -381 -79 -510 -96 -562
-76 -23 9 -27 15 -21 38 11 47 84 209 104 231 12 13 105 49 256 98 241 79 294
105 281 138 -5 12 -13 16 -25 11 -9 -4 -66 -17 -127 -31 -60 -13 -148 -35
-194 -49 -102 -30 -126 -32 -116 -7 3 9 11 36 18 59 14 52 -8 44 380 139 291
70 347 90 347 119 0 19 -93 19 -230 -1z"/>
<path d="M30285 16895 c-82 -18 -124 -36 -162 -73 -39 -36 -42 -66 -10 -112
20 -31 143 -133 171 -143 7 -3 3 -15 -11 -33 -112 -144 -131 -221 -80 -320 21
-41 53 -61 129 -80 146 -38 332 15 354 100 18 73 -58 175 -200 266 -47 30 -85
60 -86 67 0 13 103 89 159 118 19 9 62 20 95 22 104 9 116 25 65 86 -69 83
-280 134 -424 102z m190 -45 c117 -17 224 -80 137 -80 -15 0 -49 -11 -77 -24
-54 -25 -165 -104 -165 -117 0 -5 -9 -13 -20 -19 -27 -14 -58 3 -137 75 -66
59 -75 81 -45 107 64 57 172 77 307 58z m-23 -394 c91 -69 134 -113 154 -161
11 -27 10 -32 -9 -53 -68 -72 -339 -65 -363 10 -11 37 -6 85 14 131 27 62 83
136 103 137 9 0 54 -29 101 -64z"/>
<path d="M23002 16878 c-19 -19 -15 -78 18 -273 50 -296 50 -482 0 -599 -41
-97 -165 -195 -290 -229 -95 -26 -155 -31 -173 -13 -18 18 -43 21 -52 6 -10
-16 22 -60 52 -71 53 -20 250 28 347 85 52 31 138 121 163 172 39 77 48 133
48 294 0 118 -7 198 -28 335 -15 99 -28 203 -29 230 -2 68 -25 94 -56 63z"/>
<path d="M26943 16836 c-16 -13 -39 -45 -52 -71 -25 -50 -61 -174 -61 -212 0
-12 -9 -27 -19 -33 -29 -15 -146 -12 -186 4 -53 22 -60 46 -35 114 12 31 32
74 46 94 42 66 25 127 -26 91 -29 -20 -90 -154 -97 -213 -7 -59 10 -120 43
-151 24 -22 33 -24 137 -24 l112 0 -3 -35 c-2 -19 -17 -111 -33 -203 -35 -195
-35 -230 0 -235 28 -4 41 12 41 55 0 17 9 78 20 135 12 57 27 149 34 206 l14
103 61 59 c77 74 121 162 121 245 0 42 -5 60 -20 75 -27 27 -62 25 -97 -4z
m67 -79 c0 -42 -31 -114 -66 -156 -20 -23 -40 -39 -44 -36 -13 8 36 143 65
181 30 40 45 43 45 11z"/>
<path d="M28570 16803 c-19 -2 -64 -10 -100 -18 -36 -8 -87 -19 -114 -25 -74
-17 -146 -56 -237 -128 -101 -81 -180 -175 -226 -270 -68 -141 -53 -242 51
-340 71 -68 125 -86 229 -80 259 17 584 230 666 438 16 40 29 60 39 58 8 -2
34 -26 58 -54 l44 -51 -88 -71 c-96 -76 -192 -175 -192 -197 0 -8 7 -21 16
-29 21 -21 126 -22 144 -1 20 24 4 45 -35 45 l-36 0 28 35 c36 45 179 165 197
165 8 0 35 -18 61 -39 63 -52 129 -87 200 -106 80 -20 105 -20 105 4 0 20 -12
26 -122 61 -97 31 -205 107 -182 129 19 19 223 126 339 178 66 30 124 58 128
63 17 16 -9 18 -53 4 -25 -8 -61 -19 -80 -25 -19 -6 -44 -14 -55 -19 -113 -50
-183 -84 -243 -119 -39 -22 -76 -41 -84 -41 -23 1 -158 156 -158 182 0 50 -32
130 -67 169 -56 62 -135 90 -233 82z m121 -58 c79 -28 115 -78 125 -172 13
-119 -26 -218 -128 -324 -51 -55 -122 -101 -248 -164 -109 -55 -219 -85 -310
-85 -60 0 -74 4 -116 33 -70 46 -108 121 -99 197 10 94 66 192 164 290 83 83
196 161 252 175 22 6 27 3 33 -19 9 -35 32 -33 51 4 19 37 54 47 96 26 18 -9
38 -16 45 -16 22 0 27 20 10 39 -9 10 -16 21 -16 24 0 13 98 7 141 -8z"/>
<path d="M23585 16755 c-96 -21 -230 -74 -255 -100 -42 -45 -1 -88 44 -46 33
31 210 81 307 88 98 7 149 -6 178 -43 16 -21 18 -30 9 -61 -21 -78 -92 -184
-265 -401 -102 -129 -160 -221 -169 -270 -8 -40 18 -83 57 -93 84 -24 282 1
536 67 157 40 227 68 221 86 -7 21 -43 21 -128 -1 -287 -75 -555 -111 -608
-82 -21 11 -21 13 -7 47 18 43 81 131 204 284 255 319 288 440 138 515 -42 21
-64 25 -126 24 -42 -1 -103 -7 -136 -14z"/>
<path d="M29735 16707 c-78 -42 -141 -105 -211 -212 -65 -100 -98 -184 -89
-226 17 -78 104 -126 206 -115 221 25 459 185 459 309 0 92 -94 203 -196 233
-33 9 -68 23 -79 30 -24 17 -19 19 -90 -19z m180 -71 c88 -41 141 -119 124
-183 -26 -93 -283 -233 -431 -233 -60 0 -97 17 -105 48 -21 85 142 330 250
377 48 21 106 18 162 -9z"/>
<path d="M18738 16540 c-178 -37 -290 -112 -303 -203 -9 -60 8 -94 65 -129 46
-29 361 -168 379 -168 27 0 17 -26 -36 -89 -143 -169 -145 -288 -8 -369 89
-53 242 -67 393 -36 93 19 120 32 161 79 55 63 39 144 -46 236 -49 53 -75 70
-190 126 l-132 64 95 112 c52 61 109 133 126 159 17 26 37 48 45 48 18 0 53
-59 53 -88 0 -19 5 -23 23 -20 26 4 35 45 17 88 -28 68 -178 166 -300 194 -86
21 -235 19 -342 -4z m329 -59 c28 -6 76 -21 108 -35 l57 -26 -17 -27 c-27 -41
-162 -208 -216 -267 l-46 -50 -179 77 c-285 123 -305 138 -269 193 33 51 175
117 295 137 49 8 218 7 267 -2z m51 -552 c137 -71 172 -97 212 -157 42 -64 40
-96 -7 -121 -71 -35 -217 -52 -336 -39 -84 9 -126 25 -169 66 -50 46 -31 106
76 240 57 70 70 82 89 77 12 -4 73 -33 135 -66z"/>
<path d="M13470 16510 c-25 -25 -25 -45 0 -63 24 -17 121 -147 172 -232 46
-76 109 -220 133 -305 13 -43 19 -98 20 -165 0 -97 -2 -104 -37 -176 -46 -92
-127 -183 -217 -243 -80 -52 -106 -83 -89 -103 17 -21 34 -16 111 29 99 58
233 194 275 278 60 122 60 277 1 447 -76 216 -283 553 -340 553 -5 0 -18 -9
-29 -20z"/>
<path d="M8267 16449 c-109 -41 -178 -88 -283 -193 -152 -152 -206 -294 -183
-480 20 -168 86 -354 166 -472 46 -68 128 -147 146 -141 25 8 16 34 -32 91
-119 141 -191 364 -191 595 0 161 42 260 162 379 67 68 190 137 263 149 70 11
134 80 89 97 -27 10 -57 5 -137 -25z"/>
<path d="M9881 16411 c-11 -11 -30 -39 -41 -61 -21 -40 -86 -282 -110 -407
l-13 -63 -36 0 c-45 0 -73 22 -102 78 -19 37 -21 54 -16 120 6 97 39 185 78
214 36 27 38 55 5 64 -36 9 -58 -2 -83 -40 -39 -61 -65 -155 -66 -237 -1 -128
61 -225 160 -252 l45 -12 -7 -40 c-46 -285 -55 -409 -31 -418 26 -10 35 16 51
148 9 72 23 170 32 219 14 78 20 92 49 119 39 35 43 56 13 64 -25 7 -24 14 32
220 44 160 58 194 97 236 21 22 24 31 16 45 -16 25 -50 26 -73 3z"/>
<path d="M8935 16335 c-168 -32 -333 -115 -448 -228 -99 -96 -118 -144 -125
-320 -5 -136 9 -266 34 -304 16 -26 59 -31 68 -8 3 8 -2 31 -10 50 -8 20 -22
82 -30 138 -17 117 -8 227 25 302 52 118 223 242 408 296 88 26 257 36 317 19
73 -20 75 -31 19 -91 -86 -93 -203 -160 -470 -270 -178 -73 -261 -116 -274
-142 -13 -23 2 -66 34 -95 38 -35 120 -70 218 -93 127 -31 422 -34 511 -6 60
18 88 39 88 64 0 17 -12 16 -135 -11 -93 -20 -311 -21 -407 -1 -103 21 -212
62 -238 90 l-22 23 26 17 c13 9 92 44 173 77 308 124 446 202 546 307 65 68
71 94 29 134 -59 57 -196 78 -337 52z"/>
<path d="M16587 16293 c-2 -5 -12 -33 -22 -63 -10 -30 -31 -81 -46 -112 l-29
-57 -127 -3 -128 -3 0 -30 0 -30 105 -1 c58 -1 108 -2 112 -3 10 -1 -21 -71
-86 -190 -40 -73 -54 -107 -47 -114 24 -24 66 29 135 166 l69 137 51 0 c101 0
407 -45 405 -59 0 -3 -19 -20 -42 -36 -53 -38 -90 -107 -83 -154 12 -76 100
-121 235 -121 244 0 381 79 381 220 0 152 -178 235 -317 149 -37 -23 -25 -24
-229 22 -73 16 -178 34 -235 39 -57 6 -110 13 -117 15 -9 3 -1 28 28 85 41 82
49 117 28 138 -14 14 -35 16 -41 5z m745 -342 c13 -5 35 -21 51 -36 22 -23 27
-36 27 -79 0 -44 -4 -56 -28 -79 -46 -44 -104 -59 -242 -64 -116 -4 -128 -3
-169 19 -58 30 -69 49 -51 84 20 36 74 71 135 85 28 6 72 22 98 36 81 42 133
52 179 34z"/>
<path d="M6861 16269 c-72 -14 -168 -65 -226 -120 -61 -57 -104 -136 -133
-239 l-19 -65 -69 -19 c-77 -20 -94 -30 -94 -56 0 -36 25 -43 84 -24 31 10 58
15 61 13 2 -3 1 -49 -4 -103 -17 -204 20 -347 83 -323 15 6 15 9 -1 39 -15 28
-18 58 -18 193 0 88 4 172 8 186 8 33 26 36 247 45 173 7 210 14 210 38 0 27
-102 39 -272 32 -87 -4 -158 -5 -158 -4 1 20 35 108 55 142 53 90 159 156 251
156 54 0 104 25 131 66 12 19 12 24 -2 38 -18 17 -63 19 -134 5z"/>
<path d="M12710 16269 c-194 -55 -294 -111 -406 -224 -119 -120 -154 -246 -99
-354 122 -242 710 -323 991 -136 65 43 115 103 155 188 27 59 31 76 27 130 -7
113 -71 207 -196 288 -116 76 -217 111 -337 115 -55 2 -116 -1 -135 -7z m291
-90 c98 -38 193 -102 246 -167 93 -114 83 -230 -29 -348 -92 -97 -188 -133
-383 -141 -143 -6 -270 10 -368 47 -81 30 -170 92 -198 136 -96 154 106 388
412 478 119 35 219 33 320 -5z"/>
<path d="M3923 16203 c-18 -7 -23 -45 -36 -258 l-12 -190 -45 3 c-56 5 -212
54 -264 84 -22 13 -48 35 -59 50 -17 23 -18 31 -8 57 13 29 84 102 170 172 31
25 42 41 38 53 -14 35 -55 17 -140 -58 -98 -87 -137 -140 -144 -196 -5 -36 -2
-45 23 -71 60 -63 165 -107 320 -134 49 -8 92 -19 96 -23 4 -4 -3 -71 -17
-147 -48 -275 -55 -425 -21 -438 25 -10 33 9 39 98 6 83 71 494 79 499 1 1 20
9 41 19 48 22 47 37 -4 37 l-40 0 5 43 c4 23 11 107 16 186 6 79 13 155 16
168 10 37 -18 61 -53 46z"/>
<path d="M5957 16180 c-32 -25 -42 -73 -28 -127 18 -67 54 -79 81 -27 10 18
11 32 2 60 -9 32 -8 40 10 64 11 16 17 33 14 39 -11 18 -51 13 -79 -9z"/>
<path d="M11620 16064 c-134 -8 -267 -27 -287 -40 -26 -17 -30 -52 -7 -61 8
-3 52 2 97 12 62 14 144 19 340 22 242 5 257 6 257 24 0 13 -11 21 -37 28 -42
11 -277 21 -363 15z"/>
<path d="M10814 16050 c-142 -10 -304 -34 -344 -53 -35 -17 -38 -54 -6 -68 21
-10 30 -9 52 6 48 31 178 48 434 54 217 5 245 8 248 23 7 36 -156 52 -384 38z"/>
<path d="M15918 16049 c-10 -5 -18 -19 -18 -29 0 -16 -7 -20 -37 -20 -43 0
-129 -37 -155 -66 -59 -68 -84 -183 -53 -247 21 -44 95 -84 173 -94 69 -8 196
13 253 43 141 71 156 232 34 357 -57 59 -148 85 -197 56z m124 -67 c53 -35 98
-113 98 -172 0 -50 -25 -86 -77 -111 -43 -21 -62 -24 -175 -24 -113 0 -129 2
-155 21 -75 56 -7 203 110 235 35 10 49 9 87 -6 65 -24 84 -24 88 2 2 16 -7
27 -40 47 l-43 26 40 0 c22 0 52 -8 67 -18z"/>
<path d="M27428 15993 c-30 -34 -65 -119 -133 -313 -37 -107 -73 -203 -81
-214 -18 -26 -1 -50 27 -36 29 16 64 84 123 239 30 78 70 168 89 199 19 32 37
68 40 81 13 51 -32 81 -65 44z"/>
<path d="M15158 15954 c-113 -27 -219 -95 -280 -178 -49 -68 -31 -133 49 -172
29 -14 60 -18 128 -17 99 0 177 21 274 74 30 16 56 27 58 26 6 -7 -58 -153
-118 -267 -123 -233 -220 -331 -327 -332 -18 0 -41 7 -51 16 -45 40 -72 -6
-32 -55 28 -35 117 -33 186 3 130 68 281 301 415 638 23 58 53 126 67 151 29
54 28 102 -1 107 -11 3 -26 -5 -35 -17 l-16 -21 -41 19 c-41 20 -146 42 -194
40 -14 0 -51 -7 -82 -15z m240 -70 c55 -15 64 -32 42 -75 -52 -97 -435 -203
-510 -141 l-25 20 20 37 c56 106 242 193 380 178 22 -3 64 -11 93 -19z"/>
<path d="M11535 15914 c-55 -8 -134 -22 -175 -32 -73 -17 -75 -18 -75 -47 0
-41 26 -43 150 -10 54 14 155 30 224 36 69 5 136 12 149 15 26 5 30 39 6 48
-26 10 -172 5 -279 -10z"/>
<path d="M6075 15884 c-37 -88 -40 -241 -10 -459 8 -60 16 -125 17 -144 3 -37
26 -58 52 -48 20 8 21 75 2 232 -15 120 -12 287 5 351 17 64 9 98 -23 102 -23
3 -30 -2 -43 -34z"/>
<path d="M10870 15913 c-99 -7 -348 -34 -399 -42 -62 -10 -82 -29 -62 -60 8
-13 24 -13 123 2 156 24 263 35 403 42 162 8 177 12 173 38 -3 21 -9 22 -98
23 -52 0 -115 -1 -140 -3z"/>
<path d="M0 15505 c0 -14 5 -25 10 -25 6 0 10 11 10 25 0 14 -4 25 -10 25 -5
0 -10 -11 -10 -25z"/>
<path d="M30425 15264 c-118 -43 -222 -122 -286 -216 -114 -168 -166 -449
-125 -679 17 -95 29 -119 62 -119 32 0 40 22 21 63 -54 114 -47 399 13 556 38
98 68 146 124 201 120 117 264 174 379 151 85 -18 79 -29 -53 -99 -125 -66
-273 -157 -316 -195 -48 -42 -94 -126 -94 -172 0 -48 27 -117 62 -159 64 -78
220 -124 262 -77 10 11 15 24 12 29 -3 5 -36 14 -74 21 -168 30 -238 143 -162
263 39 62 90 98 273 194 194 102 227 126 227 163 0 58 -72 90 -200 90 -49 0
-102 -7 -125 -15z"/>
<path d="M30980 15226 c-129 -45 -184 -85 -178 -128 5 -34 33 -33 79 3 48 38
187 89 244 89 22 0 54 -9 73 -20 69 -42 32 -115 -183 -355 -108 -122 -186
-230 -204 -288 -38 -114 100 -127 425 -42 98 26 185 49 192 51 8 2 12 16 10
36 -4 43 -25 46 -115 18 -221 -70 -422 -108 -446 -84 -3 4 5 28 18 55 24 46
64 96 265 329 103 119 130 167 130 232 0 36 -6 52 -28 76 -52 56 -169 68 -282
28z"/>
<path d="M28171 15154 c-84 -22 -150 -63 -227 -139 -103 -102 -130 -186 -140
-433 -12 -278 44 -532 119 -540 33 -4 46 21 25 46 -36 43 -104 290 -84 309 4
4 19 -1 34 -10 104 -67 236 -118 370 -143 95 -18 132 -13 132 16 0 21 1 21
-130 51 -123 28 -276 84 -318 115 -45 35 -64 76 -56 122 9 49 105 143 286 279
148 112 228 192 228 229 0 33 -55 92 -98 104 -48 13 -75 12 -141 -6z m134 -56
c14 -6 25 -18 25 -27 0 -27 -68 -94 -205 -200 -39 -30 -114 -92 -167 -138 -70
-60 -98 -79 -98 -66 1 43 31 157 55 206 77 153 284 273 390 225z"/>
<path d="M28920 15129 c-73 -12 -267 -76 -307 -101 -22 -13 -33 -27 -33 -43 0
-34 29 -36 96 -5 32 15 108 42 168 59 159 45 226 40 226 -17 -1 -31 -28 -69
-118 -168 -95 -103 -124 -171 -83 -194 11 -5 84 -10 165 -10 l146 0 36 -33
c48 -43 43 -57 -55 -160 -84 -89 -172 -151 -226 -161 -40 -8 -54 -28 -34 -52
21 -25 91 -11 157 33 79 51 204 179 230 234 32 65 29 98 -13 147 -46 53 -79
62 -228 62 -138 0 -137 -5 -32 105 74 79 125 158 125 195 0 30 -32 85 -57 98
-29 16 -104 21 -163 11z"/>
<path d="M26142 15090 c-12 -5 -59 -37 -102 -70 -230 -175 -395 -502 -361
-716 17 -113 88 -202 127 -162 15 15 13 22 -16 81 -40 82 -48 162 -26 267 19
91 86 231 154 320 54 71 171 184 221 213 30 18 31 18 31 -1 0 -21 -71 -120
-155 -217 -87 -101 -174 -222 -196 -271 -26 -62 -18 -121 25 -177 66 -87 163
-127 312 -128 83 -1 124 11 124 36 0 24 -22 30 -145 36 -139 6 -171 18 -213
81 -21 32 -27 53 -27 92 0 64 28 108 195 306 177 211 213 282 155 308 -30 14
-71 14 -103 2z"/>
<path d="M26655 15011 c-111 -38 -149 -56 -190 -87 -48 -36 -45 -68 5 -72 28
-2 45 5 80 32 62 48 210 103 210 78 0 -5 -42 -56 -93 -113 -118 -132 -137
-160 -137 -198 0 -41 19 -49 137 -61 156 -15 269 -56 292 -107 10 -21 7 -34
-13 -78 -31 -67 -148 -192 -237 -251 -38 -25 -69 -49 -69 -53 0 -15 25 -31 51
-31 40 0 138 71 222 160 121 128 153 219 104 291 -48 72 -153 117 -294 126
-51 3 -96 10 -99 15 -8 13 30 62 149 194 58 66 97 117 97 130 0 30 -41 54 -92
53 -24 0 -79 -13 -123 -28z"/>
<path d="M24574 15005 c-3 -8 0 -38 6 -66 16 -64 9 -154 -24 -349 -37 -219
-59 -415 -52 -454 17 -88 82 -78 419 64 212 89 248 113 214 148 -20 20 18 33
-475 -163 -70 -28 -92 -31 -92 -12 0 22 38 267 64 422 36 211 41 264 26 326
-18 77 -70 127 -86 84z"/>
<path d="M6499 14996 c-73 -26 -132 -82 -204 -194 -91 -143 -130 -334 -123
-607 5 -149 5 -150 45 -245 102 -238 127 -277 163 -255 17 11 11 33 -29 113
-21 42 -55 116 -75 165 l-36 87 0 195 c0 112 4 196 10 200 5 3 38 -7 73 -23
53 -25 70 -39 110 -94 58 -83 107 -132 232 -240 55 -48 155 -143 222 -211 99
-101 132 -128 170 -141 57 -20 87 -20 102 -2 14 17 -10 46 -37 46 -44 1 -107
48 -269 205 -263 255 -343 335 -397 399 -27 32 -66 66 -85 75 -35 15 -23 16
264 22 311 6 410 17 464 50 123 74 25 277 -183 379 -93 46 -255 90 -330 90
-28 -1 -67 -7 -87 -14z m216 -62 c212 -44 375 -162 375 -272 0 -64 -62 -89
-250 -103 -151 -11 -573 -27 -579 -22 -8 6 31 117 64 183 55 109 131 190 204
216 49 18 94 17 186 -2z"/>
<path d="M22724 14930 c-65 -26 -122 -163 -209 -504 -35 -138 -69 -266 -74
-285 -13 -43 1 -71 34 -71 43 0 59 29 84 150 47 227 122 525 146 577 41 90 48
76 65 -128 9 -113 26 -223 76 -504 23 -130 50 -161 103 -117 26 21 59 142 96
356 15 81 39 189 56 238 33 101 92 208 115 208 32 0 61 -122 89 -370 20 -184
51 -342 75 -390 25 -48 66 -62 92 -30 20 24 15 47 -12 55 -11 3 -21 14 -24 23
-16 56 -36 180 -41 262 -11 168 -45 402 -65 446 -20 46 -60 74 -106 74 -20 0
-41 -14 -78 -53 -88 -91 -136 -215 -176 -452 -25 -149 -49 -235 -60 -215 -11
21 -37 231 -55 450 -9 102 -18 197 -21 211 -10 49 -68 86 -110 69z"/>
<path d="M7494 14921 c-45 -11 -54 -19 -54 -47 0 -59 51 -89 70 -40 11 29 45
34 167 25 133 -11 277 -37 378 -70 95 -30 195 -82 195 -100 0 -20 -60 -68
-123 -99 -34 -16 -143 -59 -242 -95 -213 -77 -231 -88 -229 -141 3 -74 27 -86
411 -198 132 -39 273 -96 341 -140 32 -20 42 -32 40 -49 -6 -43 -110 -91 -283
-132 -110 -25 -428 -77 -485 -78 -44 -2 -55 -5 -58 -20 -5 -27 27 -57 60 -57
54 0 494 80 606 111 125 33 209 88 226 146 10 30 -18 86 -57 116 -84 64 -272
140 -490 198 -171 46 -247 75 -247 95 0 17 34 32 228 100 228 79 303 120 348
189 35 54 -16 124 -125 172 -117 52 -253 84 -459 108 -137 16 -170 17 -218 6z"/>
<path d="M10123 14901 c-185 -63 -313 -281 -313 -529 1 -141 48 -411 97 -547
28 -76 73 -149 98 -159 28 -11 53 -7 59 10 9 22 9 20 -29 63 -19 21 -46 63
-59 93 -22 50 -67 213 -82 301 -7 39 4 48 26 22 18 -22 156 -71 250 -89 185
-34 394 -66 439 -66 52 0 91 21 91 51 0 20 -6 22 -56 19 -52 -2 -455 77 -589
116 -134 39 -174 77 -122 115 12 9 63 38 112 64 261 138 427 249 486 325 71
90 40 151 -101 200 -103 36 -223 40 -307 11z m307 -78 c75 -26 75 -42 3 -112
-71 -68 -158 -127 -323 -216 -69 -37 -151 -85 -182 -107 l-58 -39 0 28 c0 49
27 156 54 217 52 118 137 204 236 239 59 22 194 17 270 -10z"/>
<path d="M3457 14889 c-36 -21 -81 -152 -107 -319 -14 -90 -5 -135 33 -164 24
-17 49 -21 175 -28 81 -4 173 -14 205 -23 165 -44 460 -225 482 -296 10 -30
-52 -90 -131 -129 -194 -95 -419 -132 -544 -89 -68 24 -65 -38 3 -67 51 -21
224 -24 308 -5 174 40 312 102 386 174 96 93 58 177 -142 309 -213 142 -338
186 -540 191 -148 3 -175 12 -175 58 0 40 44 234 65 287 16 40 20 42 57 42 22
0 108 -16 191 -35 84 -18 195 -39 247 -45 52 -6 146 -18 209 -26 104 -14 116
-14 130 1 15 15 14 18 -6 35 -23 18 -62 25 -321 56 -74 8 -166 24 -205 35
-169 46 -283 60 -320 38z"/>
<path d="M24413 14868 c-5 -7 -22 -63 -36 -125 -34 -141 -110 -370 -149 -448
-54 -106 -85 -134 -149 -135 -64 0 -123 82 -171 240 -15 48 -21 106 -25 224
-5 137 -8 161 -24 177 -51 51 -74 8 -65 -120 16 -213 42 -333 98 -446 35 -72
60 -100 113 -128 74 -38 158 -23 217 40 88 93 263 634 229 709 -12 27 -24 30
-38 12z"/>
<path d="M15639 14831 c-55 -35 -145 -130 -269 -285 -154 -191 -338 -407 -401
-471 -66 -66 -80 -98 -56 -123 15 -15 19 -14 43 9 78 72 320 373 453 564 71
102 161 201 233 257 93 73 92 110 -3 49z"/>
<path d="M10903 14810 c-28 -11 -29 -40 -5 -70 17 -21 26 -22 212 -25 190 -3
270 -15 273 -40 1 -17 -70 -51 -198 -96 -148 -52 -223 -86 -235 -109 -12 -23
9 -76 42 -107 28 -27 58 -37 253 -93 159 -45 235 -76 235 -96 0 -25 -91 -92
-158 -117 -80 -30 -246 -67 -299 -67 -46 0 -68 -13 -60 -34 12 -31 56 -39 147
-26 199 27 330 77 397 154 112 127 43 192 -305 286 -79 21 -146 41 -150 44
-13 13 21 29 159 75 224 74 249 93 249 180 0 66 -66 107 -212 131 -94 15 -319
22 -345 10z"/>
<path d="M13020 14791 c-132 -28 -235 -127 -265 -253 -23 -96 -30 -298 -16
-496 15 -228 21 -266 43 -270 36 -7 42 38 29 181 -8 72 -16 163 -18 201 l-5
68 58 -48 c81 -66 142 -103 257 -158 76 -37 113 -48 165 -53 59 -4 71 -2 102
19 42 29 48 65 10 60 -14 -2 -53 -4 -87 -5 -58 -2 -70 2 -205 70 -147 74 -261
156 -271 193 -8 32 27 57 122 86 147 44 324 106 363 125 88 45 96 103 24 177
-75 78 -209 123 -306 103z m180 -82 c43 -19 120 -84 120 -102 0 -14 -115 -61
-295 -121 -93 -31 -185 -65 -202 -76 l-33 -20 0 34 c0 66 38 161 85 214 88 98
205 124 325 71z"/>
<path d="M15955 14761 c-27 -22 -136 -131 -240 -242 -170 -181 -265 -272 -364
-347 -34 -26 -40 -52 -15 -73 40 -33 151 71 457 429 114 133 212 242 217 242
6 0 10 7 10 15 0 22 -10 19 -65 -24z"/>
<path d="M19326 14744 c-3 -9 -6 -24 -6 -35 0 -11 -16 -65 -35 -120 -32 -92
-35 -110 -37 -234 -2 -100 0 -137 10 -147 11 -11 16 -10 28 6 10 15 14 51 14
135 0 110 2 122 42 238 36 104 40 126 30 148 -13 28 -37 33 -46 9z"/>
<path d="M16573 14726 c-73 -24 -130 -64 -204 -145 l-72 -78 -67 -7 c-38 -3
-76 -9 -84 -12 -22 -9 -37 -39 -29 -59 6 -18 10 -18 112 1 l34 7 -33 -61 c-56
-106 -11 -130 49 -26 61 104 47 98 196 90 71 -3 140 -9 152 -12 21 -6 20 -8
-17 -43 -103 -98 -60 -210 84 -219 73 -5 140 13 225 60 l53 29 22 -20 c44 -41
172 -36 164 7 -2 12 -19 20 -60 27 -31 6 -60 13 -63 17 -4 3 -1 23 6 42 11 32
11 38 -4 53 -16 16 -19 14 -61 -29 -52 -54 -98 -80 -183 -102 -72 -19 -109
-20 -152 -5 -100 35 48 149 195 149 60 0 82 17 64 49 -9 18 -20 21 -68 21 -31
0 -95 7 -142 15 -47 9 -133 18 -192 22 -63 3 -108 10 -108 16 0 22 96 101 159
131 60 28 75 31 162 31 106 0 129 -9 121 -50 -3 -17 1 -27 12 -31 52 -20 63
83 13 120 -24 18 -45 21 -135 23 -69 2 -122 -2 -149 -11z"/>
<path d="M19710 14683 l-73 -56 -18 24 c-10 13 -21 31 -24 41 -7 21 -35 32
-49 18 -7 -7 -3 -23 13 -50 24 -43 25 -95 2 -95 -7 0 -21 18 -30 40 -22 56
-29 65 -52 65 -24 0 -24 -11 1 -62 11 -23 20 -45 20 -49 0 -5 -30 -9 -67 -11
-38 -2 -68 -8 -70 -14 -7 -21 28 -44 65 -44 l37 -1 -38 -20 c-32 -17 -36 -22
-27 -39 15 -28 38 -25 93 10 26 17 49 30 52 30 2 0 3 -28 2 -62 -2 -52 1 -63
15 -66 12 -2 21 5 27 21 7 19 15 24 30 20 24 -6 26 6 9 53 -9 27 -9 36 3 50 8
9 14 29 14 43 0 22 17 38 108 99 95 65 106 75 97 93 -19 35 -62 24 -140 -38z"/>
<path d="M12133 14683 c-23 -9 -14 -42 17 -58 37 -19 46 -62 31 -147 -21 -120
-29 -138 -59 -138 -27 0 -29 3 -60 128 -33 133 -54 175 -91 180 -32 5 -37 -24
-11 -70 18 -32 69 -199 70 -230 0 -4 -12 -8 -26 -10 -15 -2 -32 -11 -38 -21
-16 -26 18 -50 62 -43 28 4 34 1 48 -26 8 -16 13 -35 11 -42 -4 -11 -262 -312
-304 -354 -7 -7 -13 -22 -13 -33 0 -24 31 -25 66 -2 19 12 144 160 221 262 12
16 9 -15 -8 -84 -25 -104 -26 -243 -3 -252 25 -9 44 24 44 77 0 76 43 280 59
280 3 0 44 -60 91 -132 94 -145 165 -218 211 -218 40 0 39 32 -3 62 -40 27
-49 38 -152 186 -100 142 -126 185 -126 204 0 7 12 29 28 47 27 33 28 33 140
40 84 4 115 10 122 21 18 28 3 35 -78 35 -45 0 -82 3 -82 6 0 9 64 63 137 114
34 24 70 56 79 70 16 24 16 28 1 42 -29 29 -66 6 -186 -112 -63 -63 -116 -113
-117 -112 -2 1 6 34 17 72 36 131 18 231 -47 255 -27 11 -32 11 -51 3z"/>
<path d="M18673 14672 c-15 -10 -63 -130 -63 -159 0 -16 6 -23 20 -23 16 0 28
16 50 66 17 36 30 74 30 84 0 22 -22 41 -37 32z"/>
<path d="M13756 14660 c-71 -13 -102 -28 -115 -57 -22 -49 10 -82 48 -49 23
20 111 36 202 36 125 0 299 -42 299 -71 0 -18 -152 -164 -272 -260 -131 -106
-203 -174 -229 -215 -51 -83 -11 -143 107 -163 104 -18 471 -19 511 -2 37 15
52 47 32 67 -12 11 -23 11 -69 -3 -48 -14 -81 -15 -265 -6 -217 10 -275 23
-275 58 0 20 70 87 215 203 150 122 302 270 310 305 17 67 -11 92 -151 132
-99 29 -263 41 -348 25z"/>
<path d="M19806 14587 c-11 -8 -17 -23 -14 -38 3 -22 7 -24 58 -24 80 -1 141
-13 267 -51 126 -38 148 -41 157 -19 9 25 -27 51 -105 75 -41 12 -94 28 -119
35 -119 36 -214 44 -244 22z"/>
<path d="M17949 14533 c-25 -27 -51 -57 -59 -69 -8 -11 -41 -29 -73 -39 -67
-21 -105 -53 -114 -95 -8 -42 -28 -50 -130 -50 -101 0 -150 11 -181 40 -29 27
-28 55 3 85 33 34 108 35 142 3 21 -20 25 -20 39 -6 38 38 -34 102 -115 102
-89 -1 -141 -51 -141 -136 0 -98 78 -152 220 -153 47 0 97 4 111 8 24 8 27 6
32 -23 4 -17 14 -33 23 -37 18 -7 32 9 126 135 34 46 72 88 86 93 23 9 92 13
92 5 0 -2 -16 -20 -35 -39 -74 -74 -23 -157 97 -157 32 0 47 7 74 34 52 52 48
93 -13 157 -45 46 -52 50 -110 56 -35 3 -63 9 -63 14 0 4 18 18 40 30 45 25
54 42 40 70 -17 31 -44 22 -91 -28z m-149 -198 c-7 -8 -20 -15 -29 -15 -12 1
-11 5 8 21 26 22 41 18 21 -6z m310 1 c27 -30 21 -53 -16 -62 -31 -8 -95 6
-96 21 -1 9 69 64 83 65 3 0 16 -11 29 -24z m-380 -91 c-7 -9 -15 -13 -17 -11
-7 7 7 26 19 26 6 0 6 -6 -2 -15z"/>
<path d="M20840 14532 c0 -17 21 -63 50 -111 28 -45 50 -85 50 -89 -1 -12
-212 -149 -282 -183 -37 -17 -77 -42 -89 -56 -20 -20 -21 -25 -8 -37 12 -13
28 -8 117 34 57 27 124 65 150 84 26 18 71 50 101 70 l55 35 42 -34 c55 -45
87 -59 119 -51 28 7 31 34 5 46 -57 25 -114 58 -117 66 -4 13 153 103 239 138
37 14 80 26 96 26 17 0 37 3 46 6 24 9 19 42 -10 61 -23 14 -32 15 -73 4 -66
-17 -156 -61 -249 -120 -43 -28 -86 -51 -95 -51 -11 0 -33 33 -63 95 -34 70
-51 95 -65 95 -14 0 -19 -7 -19 -28z"/>
<path d="M18895 14490 c-16 -16 -34 -30 -39 -30 -26 0 -135 -60 -154 -85 -28
-36 -28 -51 2 -71 23 -14 28 -14 68 4 24 11 64 38 89 60 47 42 59 44 59 10 0
-30 48 -116 74 -134 33 -21 70 -15 74 13 2 16 -5 26 -25 36 -51 27 -66 53 -74
128 -7 65 -21 99 -38 99 -4 0 -20 -13 -36 -30z"/>
<path d="M8712 14498 c-16 -16 -15 -43 1 -56 6 -5 48 -15 92 -21 116 -15 456
-70 481 -77 20 -5 54 17 54 35 0 31 -31 41 -210 66 -102 15 -232 35 -289 46
-124 23 -114 22 -129 7z"/>
<path d="M18425 14445 c-27 -14 -60 -25 -72 -25 -12 0 -27 -9 -34 -21 -6 -12
-26 -34 -44 -50 -18 -16 -38 -43 -45 -60 -11 -26 -11 -33 3 -46 14 -14 19 -14
51 7 20 12 48 36 61 54 27 36 101 80 152 91 31 6 32 5 35 -32 4 -53 29 -50 48
5 13 38 13 46 0 70 -22 38 -86 41 -155 7z"/>
<path d="M19742 14388 c-18 -18 -15 -56 6 -62 9 -2 80 -7 157 -11 113 -5 144
-4 159 8 33 24 13 45 -51 52 -32 4 -82 11 -112 16 -75 13 -145 11 -159 -3z"/>
<path d="M8762 14358 c-7 -7 -12 -22 -12 -35 0 -28 9 -30 175 -37 72 -3 172
-15 224 -26 115 -25 169 -26 178 -4 3 8 -1 22 -8 29 -19 19 -249 64 -389 75
-148 12 -154 12 -168 -2z"/>
<path d="M29668 14343 c-18 -31 -79 -234 -96 -323 -24 -121 -25 -140 -8 -146
27 -10 43 13 55 79 16 81 89 315 108 343 22 34 13 68 -17 72 -19 2 -29 -4 -42
-25z"/>
<path d="M27190 14168 c-10 -17 -23 -52 -29 -77 -17 -75 -53 -371 -47 -387 7
-19 42 -18 50 2 8 20 42 192 51 254 9 62 26 121 42 145 16 24 17 67 1 83 -21
21 -48 13 -68 -20z"/>
<path d="M30670 13924 c-243 -65 -409 -386 -436 -844 -10 -165 17 -266 70
-258 42 6 55 59 52 202 l-3 131 -32 3 c-30 3 -31 4 -25 45 25 172 68 325 121
431 50 99 157 190 261 221 56 18 122 19 122 4 0 -6 -33 -41 -72 -78 -249 -227
-298 -285 -298 -353 0 -31 8 -47 41 -83 56 -61 175 -129 260 -150 87 -21 218
-17 267 9 56 29 35 41 -65 38 -169 -7 -277 31 -384 134 -38 37 -69 74 -69 81
0 8 50 62 112 121 244 234 288 280 288 306 0 52 -96 71 -210 40z m-367 -931
c2 -21 1 -44 -3 -52 -5 -9 -9 6 -11 37 -5 60 6 71 14 15z"/>
<path d="M31405 13920 c-160 -24 -375 -116 -375 -160 0 -24 43 -18 108 15 38
19 83 38 100 41 l31 6 -54 -107 c-65 -130 -85 -208 -92 -345 -7 -143 12 -220
67 -272 25 -24 50 -38 67 -39 103 -4 163 20 273 108 155 124 263 279 305 439
31 120 13 193 -63 251 -83 63 -215 86 -367 63z m187 -59 c84 -14 149 -46 177
-86 20 -30 23 -43 19 -93 -12 -132 -99 -283 -240 -418 -182 -173 -324 -194
-358 -53 -20 81 -8 257 23 349 52 155 110 260 144 260 9 0 25 8 35 17 16 15
63 26 128 32 8 0 40 -3 72 -8z"/>
<path d="M28595 13891 c-54 -24 -158 -121 -207 -194 -81 -120 -130 -254 -162
-447 -37 -226 -30 -391 20 -445 12 -14 27 -25 32 -25 4 0 23 15 41 34 43 45
37 71 -14 63 -31 -5 -36 -3 -42 21 -12 40 -8 234 6 335 14 102 61 271 86 313
64 102 91 137 144 187 71 65 118 85 162 67 34 -15 37 -37 10 -95 -36 -79 -92
-155 -205 -276 -94 -101 -116 -130 -116 -154 0 -16 4 -36 9 -44 5 -7 64 -28
132 -47 100 -27 143 -34 225 -35 106 0 184 19 184 47 0 8 -3 14 -7 14 -5 1
-60 2 -123 4 -84 3 -134 10 -185 26 -60 19 -140 54 -154 66 -2 2 34 43 81 92
152 158 228 293 228 407 0 95 -55 127 -145 86z"/>
<path d="M24703 13840 c-241 -123 -420 -547 -464 -1100 -13 -155 -13 -167 -2
-230 11 -69 18 -80 48 -80 26 0 38 20 24 41 -5 8 -9 32 -9 54 l0 40 95 54
c152 86 368 268 471 397 46 58 111 170 135 233 62 160 8 460 -102 567 -34 33
-45 38 -96 41 -45 3 -68 -1 -100 -17z m162 -92 c65 -66 99 -176 99 -328 1
-113 0 -116 -37 -194 -21 -44 -57 -107 -81 -141 -56 -78 -217 -235 -326 -319
-47 -36 -98 -76 -115 -89 -35 -28 -89 -57 -106 -57 -29 0 11 364 61 560 67
261 187 488 297 562 63 42 76 47 122 48 38 0 49 -5 86 -42z"/>
<path d="M26832 13769 c-162 -28 -362 -146 -362 -214 0 -30 10 -55 22 -55 5 0
21 14 35 30 28 34 158 100 247 125 66 19 163 16 176 -5 11 -19 -5 -58 -63
-152 -212 -346 -236 -392 -244 -473 -7 -71 3 -122 32 -151 42 -42 117 -31 405
56 144 43 181 60 178 79 -6 27 -117 18 -238 -19 -132 -40 -277 -52 -303 -26
-34 35 -32 62 16 161 25 51 79 147 120 212 173 273 201 368 125 417 -32 20
-84 26 -146 15z"/>
<path d="M29470 13750 c-17 -18 -44 -75 -70 -147 -23 -65 -45 -128 -50 -139
-10 -26 -85 -64 -124 -64 -36 0 -87 24 -116 55 -44 47 -16 162 56 236 39 40
42 72 7 77 -27 4 -72 -54 -114 -145 -55 -119 -34 -245 46 -279 48 -19 140 -18
176 3 15 9 30 15 33 12 2 -2 -2 -31 -10 -64 -21 -92 -44 -268 -44 -343 0 -69
10 -92 40 -92 13 0 16 14 16 88 -1 185 62 466 119 534 56 66 123 237 110 279
-9 28 -43 23 -75 -11z"/>
<path d="M23827 13715 c-21 -7 -57 -28 -81 -46 -194 -153 -296 -476 -309 -986
-3 -125 -1 -153 10 -157 26 -10 53 13 53 44 0 28 1 29 25 18 38 -17 117 21
250 122 217 163 365 397 365 575 0 82 -26 200 -61 276 -35 75 -100 145 -143
154 -14 3 -36 7 -48 9 -13 3 -40 -1 -61 -9z m96 -69 c91 -37 163 -212 155
-371 -8 -142 -75 -270 -213 -410 -81 -82 -206 -183 -262 -214 -32 -17 -57 -14
-71 9 -7 11 -19 20 -28 20 -14 0 -15 15 -10 133 18 354 99 624 229 762 71 76
134 99 200 71z"/>
<path d="M26034 13710 c-79 -35 -208 -190 -269 -321 -33 -74 -92 -283 -105
-375 -13 -98 -13 -220 1 -285 15 -68 61 -120 107 -121 61 -2 71 57 12 76 -51
16 -73 62 -78 160 -7 140 59 432 128 566 67 127 172 220 250 220 78 0 40 -80
-129 -265 -84 -93 -111 -134 -111 -172 0 -44 34 -76 98 -92 59 -15 133 -35
247 -68 107 -30 188 -35 211 -11 22 22 11 36 -34 43 -68 12 -166 46 -287 102
-66 30 -124 59 -129 64 -5 4 21 41 61 86 127 142 158 199 170 314 5 49 3 59
-16 78 -26 26 -71 26 -127 1z"/>
<path d="M22876 13569 c-114 -90 -257 -423 -361 -842 -50 -201 -52 -215 -29
-224 26 -10 35 10 64 139 74 323 69 307 98 310 22 2 28 9 32 35 4 24 20 45 65
83 91 77 224 165 234 154 4 -5 31 -126 60 -269 28 -143 58 -270 67 -282 17
-26 32 -29 40 -9 5 13 -45 265 -91 466 -9 36 -16 83 -18 105 -2 40 -2 40 68
77 39 20 108 54 155 74 102 45 114 54 101 67 -17 17 -116 -13 -229 -70 -77
-39 -108 -50 -113 -41 -4 6 -11 46 -14 88 -4 41 -15 94 -25 118 -16 36 -23 42
-48 42 -16 0 -41 -9 -56 -21z m71 -124 c6 -38 14 -88 17 -111 l7 -41 -83 -51
c-46 -28 -114 -78 -153 -111 -38 -33 -71 -59 -73 -57 -6 7 68 178 120 278 63
120 103 170 132 166 18 -3 23 -14 33 -73z"/>
<path d="M10990 13521 c-39 -41 -74 -131 -105 -273 -19 -88 -23 -91 -108 -62
-60 20 -97 63 -97 112 0 43 38 129 69 156 27 24 27 52 0 67 -32 16 -67 -14
-106 -91 -74 -142 -14 -260 155 -306 61 -17 62 -18 58 -48 -3 -17 -8 -67 -11
-111 -4 -44 -15 -151 -26 -238 -21 -164 -19 -200 9 -195 32 6 56 124 87 418
15 143 15 145 47 171 31 26 32 49 2 49 -19 0 -18 30 7 119 28 99 66 179 96
198 31 20 30 51 -3 63 -35 14 -33 15 -74 -29z"/>
<path d="M6630 13493 c-49 -9 -166 -73 -216 -117 -92 -81 -155 -237 -170 -418
-15 -194 57 -498 128 -542 25 -15 50 3 61 45 5 19 13 40 19 47 16 19 -9 42
-44 39 -27 -2 -31 2 -49 48 -22 55 -49 173 -49 210 0 22 2 22 64 -20 72 -48
137 -75 253 -104 185 -47 390 -55 432 -17 35 32 12 44 -72 38 -142 -9 -426 56
-541 123 -50 29 -110 92 -121 125 -15 47 70 99 327 200 265 104 375 198 323
276 -30 46 -97 68 -215 70 -58 1 -116 0 -130 -3z m220 -83 c62 -18 68 -25 40
-55 -32 -34 -129 -83 -288 -146 -69 -27 -158 -67 -198 -89 -83 -44 -87 -41
-57 40 29 78 95 161 161 202 82 51 250 74 342 48z"/>
<path d="M9905 13452 c-152 -52 -266 -179 -311 -343 -8 -30 -19 -135 -24 -234
-5 -99 -15 -220 -21 -268 -12 -101 -8 -133 22 -142 43 -14 47 5 63 300 9 161
21 302 30 331 32 120 110 222 208 274 54 29 75 35 148 38 133 6 231 -32 238
-92 8 -65 -35 -96 -233 -169 -213 -79 -335 -145 -335 -182 0 -7 21 -32 46 -54
51 -45 116 -69 364 -135 74 -20 176 -48 225 -61 96 -27 155 -31 186 -15 18 10
27 49 12 51 -5 0 -42 2 -83 3 -58 2 -128 18 -310 70 -280 80 -354 107 -358
127 -3 19 126 82 283 138 227 81 275 113 275 186 0 138 -244 240 -425 177z"/>
<path d="M3993 13425 c-85 -23 -134 -53 -208 -129 -162 -166 -223 -347 -179
-533 18 -75 21 -80 94 -153 86 -87 139 -118 265 -156 80 -24 107 -27 245 -28
139 -1 163 2 229 23 119 39 171 97 171 191 0 96 -62 175 -165 211 -158 55
-512 27 -713 -57 -34 -15 -66 -24 -69 -20 -13 13 -15 121 -3 175 7 31 28 87
46 125 96 195 233 301 378 294 60 -3 61 -2 64 24 3 23 -2 28 -35 37 -47 13
-55 13 -120 -4z m334 -616 c99 -13 157 -41 194 -92 54 -75 31 -140 -66 -187
-209 -101 -588 -31 -734 136 -18 19 -29 39 -26 44 16 27 240 83 390 99 117 12
155 12 242 0z"/>
<path d="M7357 13400 c-154 -15 -233 -50 -225 -102 2 -19 9 -23 33 -22 17 1
49 9 71 17 64 24 208 39 309 32 153 -11 234 -39 257 -90 25 -55 -85 -173 -346
-370 -87 -65 -165 -129 -173 -142 -31 -47 14 -89 105 -99 50 -6 520 31 586 46
21 5 46 16 55 25 38 38 -36 40 -424 11 -154 -12 -245 -11 -245 3 0 3 32 29 70
56 260 186 377 293 423 385 45 90 31 149 -46 194 -88 52 -265 74 -450 56z"/>
<path d="M12898 13331 c-71 -28 -112 -57 -167 -117 -81 -88 -169 -268 -202
-413 -40 -173 -52 -388 -23 -412 14 -11 19 -10 34 8 14 18 16 35 12 91 -6 85
12 247 39 344 27 99 119 282 172 343 58 66 131 105 208 112 97 9 179 -33 179
-93 0 -30 -58 -79 -160 -138 -287 -165 -351 -211 -365 -269 -21 -81 125 -228
312 -313 98 -46 280 -37 345 15 38 32 13 42 -62 26 -36 -8 -90 -14 -120 -14
-99 -1 -225 67 -347 185 -50 49 -63 68 -63 92 0 39 44 71 250 184 170 92 262
168 275 226 18 84 -80 162 -204 162 -39 -1 -85 -8 -113 -19z"/>
<path d="M11935 13274 c-42 -45 -56 -112 -56 -280 l0 -152 -112 -4 c-62 -2
-122 -10 -133 -16 -29 -16 -38 -42 -20 -60 13 -13 22 -13 54 -4 22 7 80 12
130 12 l92 0 -6 -47 c-3 -27 -10 -67 -15 -91 -10 -47 -6 -64 15 -56 21 8 37
54 43 125 l6 66 123 7 c181 9 325 40 309 66 -3 5 -99 6 -220 3 l-215 -6 0 84
c0 46 5 126 10 178 7 80 12 97 34 120 31 33 33 57 6 71 -17 9 -24 6 -45 -16z"/>
<path d="M13840 13220 c-64 -11 -160 -47 -192 -70 -21 -15 -36 -18 -75 -13
-113 13 -220 -96 -259 -264 -41 -175 22 -324 166 -392 46 -22 69 -26 140 -26
105 0 166 20 264 85 162 109 267 270 283 435 7 81 -10 138 -55 183 -55 55
-170 81 -272 62z m185 -86 c26 -13 49 -36 64 -64 23 -42 24 -47 13 -114 -18
-107 -63 -188 -151 -277 -57 -57 -96 -86 -155 -115 -75 -37 -85 -39 -170 -39
-100 0 -146 17 -198 72 -85 89 -83 281 3 408 37 54 119 89 119 51 0 -27 21
-28 48 -3 43 39 77 58 155 83 93 30 212 30 272 -2z"/>
<path d="M27759 13143 c-21 -24 -125 -210 -167 -298 -48 -98 -68 -151 -97
-256 -30 -107 -30 -143 2 -147 23 -3 27 5 38 76 9 56 58 200 96 279 16 34 64
122 105 194 41 71 74 138 72 147 -5 24 -31 26 -49 5z"/>
<path d="M8491 13132 c-33 -10 -49 -37 -35 -59 8 -13 27 -19 70 -21 56 -2 385
-41 524 -62 90 -13 123 -12 146 4 45 34 -25 54 -396 110 -200 30 -277 37 -309
28z"/>
<path d="M29775 13003 c-33 -36 -38 -59 -70 -283 -37 -268 -41 -332 -21 -349
32 -27 44 -7 49 86 3 48 10 115 16 148 6 33 17 110 25 170 14 114 31 170 59
194 21 17 22 47 1 55 -25 10 -32 7 -59 -21z"/>
<path d="M8337 12943 c-17 -16 -6 -54 18 -63 37 -14 697 -24 715 -11 23 17 -9
37 -73 44 -180 21 -648 42 -660 30z"/>
<path d="M31451 12414 c-36 -7 -94 -22 -130 -33 -36 -10 -94 -27 -128 -36 -68
-19 -104 -48 -86 -66 16 -16 69 -6 238 44 170 50 225 62 225 48 0 -11 -88 -86
-190 -163 -109 -81 -238 -204 -261 -250 -38 -75 -12 -93 147 -103 168 -10 340
-34 409 -57 75 -24 135 -70 135 -102 0 -29 -36 -82 -86 -130 -127 -120 -521
-355 -679 -406 -97 -32 -140 -80 -70 -80 181 0 840 407 894 553 41 109 -48
202 -229 241 -80 17 -275 36 -375 36 -87 0 -96 10 -55 57 45 51 190 175 326
279 61 46 117 96 125 110 13 24 12 28 -14 50 -33 28 -93 31 -196 8z"/>
<path d="M22866 12244 c-21 -20 -20 -37 3 -82 23 -45 61 -247 68 -362 11 -176
-48 -342 -160 -446 -76 -71 -206 -147 -302 -175 -70 -21 -141 -22 -257 -3 -34
6 -38 4 -38 -15 0 -30 71 -61 158 -68 152 -13 380 91 514 234 114 123 172 332
148 531 -24 186 -60 356 -82 379 -25 27 -32 28 -52 7z"/>
<path d="M30625 12168 c-61 -8 -189 -64 -189 -83 0 -19 36 -17 86 5 27 12 52
20 54 18 2 -3 -19 -21 -46 -42 -116 -89 -260 -279 -314 -416 -67 -170 -24
-324 96 -337 71 -8 150 13 220 60 80 53 252 224 302 301 176 268 65 530 -209
494z m121 -57 c74 -34 111 -127 92 -231 -33 -182 -251 -420 -449 -490 -28 -9
-59 -15 -69 -13 -31 8 -43 56 -37 141 7 99 37 174 116 290 78 115 153 191 218
221 62 29 71 46 42 78 l-22 23 34 0 c19 0 52 -9 75 -19z"/>
<path d="M26150 12161 c-192 -26 -385 -235 -479 -518 -36 -108 -51 -217 -51
-364 0 -91 3 -110 19 -130 16 -20 23 -22 38 -13 11 7 17 21 15 35 -7 59 -14
299 -8 299 4 0 42 -20 84 -45 73 -43 242 -103 337 -120 111 -20 280 5 353 53
38 25 11 35 -57 21 -88 -17 -285 -6 -386 21 -98 26 -201 66 -237 92 -87 60 28
172 416 407 128 79 206 144 206 175 0 32 -26 63 -63 75 -49 15 -126 20 -187
12z m157 -68 c7 -3 13 -8 13 -12 0 -16 -72 -72 -170 -131 -143 -87 -262 -167
-339 -229 -35 -28 -66 -49 -68 -47 -8 8 59 131 114 208 81 116 168 183 275
213 49 13 137 12 175 -2z"/>
<path d="M23490 12154 c-86 -15 -232 -48 -286 -65 -68 -21 -95 -48 -69 -69 19
-16 76 -9 196 23 156 42 368 62 384 37 21 -34 -33 -108 -247 -331 -86 -91
-182 -195 -212 -233 -93 -117 -134 -212 -108 -253 14 -22 96 -53 142 -53 129
0 433 109 640 230 37 22 70 40 72 40 3 0 4 -42 4 -94 -1 -87 1 -96 24 -121 41
-45 79 -58 177 -63 165 -8 411 44 528 112 51 30 112 96 121 131 14 58 -28 77
-51 23 -29 -69 -105 -117 -237 -148 -188 -43 -419 -52 -472 -16 -22 14 -26 24
-26 68 0 28 7 78 17 111 16 59 17 59 80 88 35 16 116 42 181 59 166 44 436
127 510 157 63 26 82 45 82 82 0 27 -8 26 -61 -3 -24 -13 -129 -45 -234 -71
-104 -26 -255 -65 -334 -87 -79 -21 -145 -37 -148 -34 -2 2 4 28 14 57 16 47
23 54 68 74 183 81 435 147 630 166 145 13 223 27 231 40 3 5 0 16 -6 24 -10
12 -41 15 -149 15 -222 -1 -437 -38 -641 -112 -47 -17 -100 -33 -118 -35 -44
-7 -83 -54 -76 -92 5 -26 -21 -122 -47 -172 -4 -9 -31 -26 -58 -38 -56 -24
-75 -47 -59 -75 5 -9 8 -19 6 -20 -6 -5 -249 -96 -349 -131 -205 -72 -379
-101 -387 -64 -7 38 177 272 348 439 215 210 259 296 191 372 l-29 33 -109 2
c-59 0 -119 -1 -133 -3z"/>
<path d="M10045 12108 c-71 -4 -136 -10 -142 -13 -19 -6 -16 -51 4 -70 12 -13
26 -15 52 -11 115 19 315 28 402 17 51 -6 96 -14 101 -19 14 -14 -33 -50 -169
-131 -69 -42 -136 -88 -147 -104 -19 -26 -19 -30 -6 -69 19 -54 50 -75 198
-132 65 -25 149 -63 187 -83 77 -40 165 -121 165 -151 0 -39 -95 -106 -229
-162 -92 -37 -301 -90 -392 -97 -81 -7 -110 -22 -90 -47 20 -23 113 -21 261 8
150 29 228 54 337 108 94 47 168 112 178 156 25 117 -111 239 -383 342 -113
42 -165 70 -164 85 0 6 50 38 112 71 141 78 192 116 220 166 41 72 -2 108
-158 134 -95 15 -141 16 -337 2z"/>
<path d="M30074 12015 c-89 -46 -248 -153 -316 -211 -82 -70 -82 -70 -115 -22
-30 45 -67 70 -89 61 -21 -8 -17 -46 10 -86 54 -79 57 -69 -43 -172 -104 -108
-191 -233 -191 -276 0 -18 5 -29 14 -29 36 0 78 14 83 29 29 82 98 192 171
274 40 43 48 45 58 15 10 -33 77 -128 115 -165 70 -66 232 -128 269 -104 25
17 0 41 -68 66 -116 42 -179 96 -234 202 -26 49 -31 67 -22 80 15 25 265 215
349 265 94 56 118 78 104 95 -16 18 -19 17 -95 -22z"/>
<path d="M28928 12006 c-107 -38 -262 -197 -333 -341 -66 -131 -86 -221 -92
-400 -4 -131 -2 -154 14 -185 73 -140 306 -93 506 104 111 109 167 198 217
348 37 111 49 229 30 308 -15 62 -63 121 -123 152 -50 25 -166 32 -219 14z
m198 -78 c84 -74 98 -187 45 -357 -68 -213 -213 -387 -395 -472 -93 -43 -129
-47 -159 -17 -43 43 -47 149 -11 347 28 156 112 338 191 413 42 41 143 100
183 108 77 16 107 12 146 -22z"/>
<path d="M3785 11946 c-16 -12 -18 -18 -9 -33 22 -36 123 -52 494 -78 227 -16
373 -39 444 -69 37 -15 38 -17 24 -38 -8 -13 -60 -62 -114 -110 -54 -47 -190
-179 -302 -292 -206 -207 -227 -237 -174 -244 19 -3 59 32 204 178 99 99 231
225 293 280 160 140 184 173 171 226 -15 59 -203 108 -496 129 -336 25 -412
34 -495 60 -11 3 -29 -1 -40 -9z"/>
<path d="M8245 11867 c-8 -13 -24 -52 -36 -88 -29 -89 -33 -94 -79 -108 -34
-10 -41 -16 -38 -34 2 -14 11 -23 26 -25 27 -4 27 -4 -13 -102 -15 -36 -37
-73 -49 -82 -17 -14 -19 -21 -10 -34 6 -10 15 -19 21 -21 23 -8 65 46 113 145
l50 102 69 0 c71 0 266 -17 289 -25 9 -3 -5 -20 -37 -45 -79 -63 -92 -107 -43
-152 37 -37 73 -48 145 -48 158 1 279 68 288 160 6 72 -1 92 -48 140 -51 51
-97 70 -171 70 -46 0 -105 -21 -134 -47 -15 -14 -27 -14 -90 -4 -40 6 -108 12
-151 13 -43 1 -80 5 -82 9 -3 4 11 41 30 83 29 61 34 80 25 96 -15 28 -56 26
-75 -3z m580 -240 c54 -54 58 -115 11 -162 -31 -31 -85 -45 -177 -45 -129 0
-144 41 -38 105 66 41 87 68 68 91 -6 8 -18 14 -25 14 -20 0 -17 18 4 23 9 3
41 5 71 6 48 1 56 -2 86 -32z"/>
<path d="M26752 11871 c-109 -28 -224 -118 -263 -206 -42 -95 -33 -235 18
-296 120 -142 493 -125 728 33 118 79 138 225 45 318 -57 57 -124 87 -244 108
-58 11 -112 25 -121 32 -18 15 -119 22 -163 11z m53 -61 c-11 -5 -29 -9 -40
-9 l-20 0 20 9 c11 5 29 9 40 9 l20 0 -20 -9z m-129 -62 c-1 -29 29 -29 139 1
44 12 85 19 92 16 35 -13 -2 -103 -66 -159 -26 -24 -27 -46 -2 -46 46 0 117
93 131 170 6 35 6 35 57 34 59 -2 153 -41 196 -82 67 -63 77 -139 25 -197 -94
-108 -388 -175 -563 -129 -121 31 -159 71 -157 166 1 83 31 151 89 205 52 49
60 52 59 21z"/>
<path d="M6771 11714 c-103 -28 -225 -114 -261 -185 -47 -90 -10 -135 105
-127 76 5 131 31 290 138 70 47 128 79 140 78 45 -6 67 -172 41 -307 -39 -208
-237 -484 -326 -456 -18 6 -40 52 -40 86 0 27 -21 34 -37 13 -15 -20 -10 -92
8 -126 12 -22 61 -48 91 -48 43 0 125 58 182 128 128 158 202 345 211 536 3
58 9 82 20 88 28 16 15 46 -43 100 -54 49 -67 56 -148 76 -103 25 -157 27
-233 6z m189 -53 c23 -6 22 -9 -30 -40 -30 -17 -91 -54 -135 -82 -123 -76
-225 -101 -233 -57 -8 43 144 153 244 177 46 11 119 12 154 2z"/>
<path d="M7662 11669 c-29 -11 -27 -53 3 -57 17 -2 13 -11 -32 -57 -51 -52
-93 -120 -93 -149 0 -36 26 -67 77 -92 47 -23 62 -26 117 -21 73 7 171 41 204
71 54 48 63 96 32 164 -49 108 -209 181 -308 141z m134 -58 c51 -23 110 -92
119 -139 6 -31 3 -40 -19 -59 -33 -28 -116 -53 -177 -53 -118 0 -132 44 -44
138 56 61 67 88 40 98 -20 8 -19 21 3 27 30 8 36 7 78 -12z"/>
<path d="M27955 11336 c-36 -16 -92 -75 -169 -179 -50 -68 -325 -558 -341
-607 -4 -13 1 -22 14 -30 37 -19 81 39 207 270 162 298 247 417 363 507 19 15
21 21 10 30 -25 19 -53 22 -84 9z"/>
<path d="M32631 5484 c0 -11 3 -14 6 -6 3 7 2 16 -1 19 -3 4 -6 -2 -5 -13z"/>
<path d="M32632 5360 c0 -19 2 -27 5 -17 2 9 2 25 0 35 -3 9 -5 1 -5 -18z"/>
<path d="M32631 5244 c0 -11 3 -14 6 -6 3 7 2 16 -1 19 -3 4 -6 -2 -5 -13z"/>
<path d="M32633 5050 c0 -41 2 -58 4 -37 2 20 2 54 0 75 -2 20 -4 3 -4 -38z"/>
<path d="M32628 4808 c-2 -68 0 -145 3 -173 4 -28 7 26 8 123 0 94 -1 172 -3
172 -3 0 -6 -55 -8 -122z"/>
<path d="M32631 4360 c-1 -124 -4 -378 -6 -565 -3 -187 -7 -545 -10 -795 -9
-725 -14 -1054 -20 -1220 -3 -85 -8 -243 -10 -350 -12 -597 -21 -898 -32
-1155 -3 -82 -7 -178 -7 -212 -1 -61 0 -63 25 -63 26 0 26 1 33 92 3 51 8 190
12 308 3 118 7 249 10 290 7 95 18 3824 12 3865 -3 17 -6 -71 -7 -195z"/>
</g>
</svg>
