<?xml version="1.0" standalone="no"?>
<!DOCTYPE svg PUBLIC "-//W3C//DTD SVG 20010904//EN"
 "http://www.w3.org/TR/2001/REC-SVG-20010904/DTD/svg10.dtd">
<svg version="1.0" xmlns="http://www.w3.org/2000/svg"
 width="2448.000000pt" height="3264.000000pt" viewBox="0 0 2448.000000 3264.000000"
 preserveAspectRatio="xMidYMid meet">
<metadata>
Created by potrace 1.12, written by Peter Selinger 2001-2015
</metadata>
<g transform="translate(0.000000,3264.000000) scale(0.100000,-0.100000)"
fill="#000000" stroke="none">
<path d="M2200 32631 c0 -16 28 -20 40 -5 10 12 8 14 -14 14 -14 0 -26 -4 -26
-9z"/>
<path d="M7655 32630 c3 -5 19 -10 36 -10 16 0 29 5 29 10 0 6 -16 10 -36 10
-21 0 -33 -4 -29 -10z"/>
<path d="M7857 32629 c11 -11 34 -13 174 -9 152 4 124 20 -35 20 -109 0 -147
-3 -139 -11z"/>
<path d="M8190 32630 c20 -13 127 -13 135 0 4 6 -22 10 -72 10 -54 0 -73 -3
-63 -10z"/>
<path d="M8357 32629 c10 -10 75 -13 270 -15 142 -1 307 -7 366 -12 60 -6 155
-12 210 -12 56 0 145 -2 197 -6 179 -10 225 -12 445 -23 121 -6 344 -15 495
-21 151 -6 388 -14 525 -20 138 -5 358 -12 490 -16 132 -3 242 -8 245 -9 3 -2
129 -6 280 -10 151 -3 288 -8 304 -12 15 -3 103 -5 195 -5 120 0 175 -4 200
-14 40 -17 77 -18 87 -3 5 8 28 9 73 5 36 -4 93 -6 126 -5 33 2 76 2 95 0 19
-1 103 -3 185 -6 204 -5 502 -14 665 -21 74 -3 218 -7 320 -9 293 -5 616 -15
721 -21 114 -6 282 -11 629 -20 256 -6 395 -11 525 -18 40 -3 75 0 82 6 7 6
21 7 30 2 17 -7 158 -12 433 -13 69 -1 132 -1 140 -1 8 1 42 -2 76 -6 39 -4
68 -2 82 5 17 9 23 8 31 -6 8 -15 13 -15 36 -5 14 7 31 9 37 6 5 -3 64 -8 131
-10 67 -3 158 -6 202 -8 44 -2 89 2 100 7 25 14 71 9 108 -9 25 -13 31 -13 57
3 29 17 31 17 60 -1 19 -11 41 -15 58 -12 63 14 111 14 123 0 16 -19 35 -18
51 4 20 28 37 35 54 21 8 -7 27 -13 42 -15 15 -1 59 -7 97 -12 57 -9 74 -8 93
4 26 17 28 36 7 54 -12 10 -20 9 -41 -4 -20 -14 -28 -15 -40 -6 -8 8 -27 10
-48 6 -23 -5 -37 -2 -46 9 -11 13 -15 13 -42 -1 -20 -11 -33 -12 -42 -5 -7 6
-61 10 -127 9 -63 -1 -119 1 -124 4 -19 12 -110 6 -133 -9 -22 -13 -26 -13
-44 7 -15 16 -27 20 -47 15 -47 -12 -205 -14 -246 -3 -22 6 -110 12 -196 13
-85 1 -164 7 -175 13 -11 6 -26 7 -35 2 -21 -12 -105 -12 -239 -1 -63 5 -144
8 -180 6 -49 -2 -69 1 -83 13 -15 14 -24 14 -67 3 -40 -10 -61 -10 -100 -1
-39 9 -54 9 -65 0 -8 -6 -19 -9 -24 -6 -13 8 -119 14 -386 21 -115 4 -234 10
-264 15 -35 6 -60 6 -73 -1 -13 -7 -60 -7 -151 1 -73 6 -170 11 -217 11 -168
0 -457 7 -540 13 -47 4 -179 9 -295 11 -115 3 -286 9 -380 15 -93 5 -201 9
-240 9 -38 0 -113 2 -165 5 -52 2 -198 7 -325 11 -126 4 -264 8 -305 10 -41 1
-219 8 -395 14 -176 6 -383 13 -460 16 -77 4 -207 8 -290 10 -82 2 -211 7
-285 10 -74 3 -247 8 -385 11 -137 3 -272 8 -300 9 -27 2 -531 7 -1120 11
-876 5 -1068 4 -1058 -7z"/>
<path d="M2382 32593 c5 -25 28 -28 28 -4 0 12 -6 21 -16 21 -9 0 -14 -7 -12
-17z"/>
<path d="M2342 32558 c-8 -8 -9 -15 -1 -25 15 -17 39 -17 39 1 0 22 -24 38
-38 24z"/>
<path d="M1720 32551 c0 -14 28 -33 39 -27 16 10 1 36 -20 36 -10 0 -19 -4
-19 -9z"/>
<path d="M2460 32505 c0 -8 15 -21 34 -29 28 -12 33 -18 29 -40 -4 -18 0 -28
12 -32 32 -13 38 12 13 54 -29 52 -88 83 -88 47z"/>
<path d="M2285 32481 c-8 -15 3 -31 21 -31 9 0 14 7 12 17 -4 20 -24 28 -33
14z"/>
<path d="M1760 32430 c0 -5 5 -10 10 -10 6 0 10 5 10 10 0 6 -4 10 -10 10 -5
0 -10 -4 -10 -10z"/>
<path d="M2570 32371 c0 -12 6 -21 16 -21 9 0 14 7 12 17 -5 25 -28 28 -28 4z"/>
<path d="M18248 32350 c-11 -18 -14 -18 -30 -3 -14 12 -21 14 -30 5 -18 -18
-1 -42 29 -42 16 0 35 0 43 -1 8 -1 34 1 57 5 35 6 44 5 49 -8 5 -13 18 -15
63 -12 31 3 74 0 95 -6 30 -7 45 -6 64 4 20 10 26 10 29 1 3 -7 9 -13 15 -13
10 0 47 40 48 52 0 4 -31 6 -70 4 -62 -4 -115 6 -146 26 -5 4 -41 2 -78 -5
-52 -9 -71 -8 -86 1 -27 17 -38 15 -52 -8z"/>
<path d="M1795 32351 c-8 -14 11 -48 35 -61 28 -15 31 -12 19 13 -7 12 -15 28
-19 36 -8 19 -26 25 -35 12z"/>
<path d="M18795 32340 c-3 -5 -1 -15 5 -22 6 -7 17 -22 24 -32 12 -18 15 -18
46 -2 19 9 42 14 52 10 11 -3 18 0 18 8 0 24 -132 59 -145 38z"/>
<path d="M19163 32335 c-7 -20 24 -55 49 -55 24 0 24 32 0 53 -23 21 -41 22
-49 2z"/>
<path d="M2463 32314 c-9 -23 25 -48 43 -33 10 8 11 16 3 30 -12 23 -37 25
-46 3z"/>
<path d="M19100 32305 c-20 -21 -21 -25 -7 -31 29 -11 52 0 52 25 0 34 -17 36
-45 6z"/>
<path d="M19256 32321 c-4 -5 -2 -12 3 -15 5 -4 12 -2 15 3 4 5 2 12 -3 15 -5
4 -12 2 -15 -3z"/>
<path d="M19297 32324 c-4 -4 -7 -15 -7 -24 0 -22 53 -34 81 -20 27 15 24 27
-8 32 -16 3 -35 8 -44 12 -8 4 -18 3 -22 0z"/>
<path d="M19463 32313 c-15 -6 -17 -49 -3 -58 6 -3 24 3 40 15 25 18 28 25 19
36 -11 14 -33 17 -56 7z"/>
<path d="M19723 32304 c-4 -10 -2 -19 5 -22 7 -2 19 -10 26 -18 21 -21 54 -17
61 7 9 27 -1 36 -47 44 -31 6 -39 4 -45 -11z"/>
<path d="M19647 32293 c-12 -11 -8 -23 8 -23 8 0 15 7 15 15 0 16 -12 20 -23
8z"/>
<path d="M19840 32289 c0 -5 5 -7 10 -4 6 3 10 8 10 11 0 2 -4 4 -10 4 -5 0
-10 -5 -10 -11z"/>
<path d="M20170 32282 c0 -14 39 -46 47 -38 4 4 2 15 -3 24 -12 19 -44 29 -44
14z"/>
<path d="M20306 32283 c-11 -11 -6 -23 9 -23 8 0 15 4 15 9 0 13 -16 22 -24
14z"/>
<path d="M20511 32281 c-14 -9 -9 -41 6 -41 19 1 35 19 30 34 -7 18 -16 20
-36 7z"/>
<path d="M20620 32277 c-41 -14 -55 -47 -17 -40 14 3 29 -2 36 -11 8 -9 20
-16 29 -16 22 0 82 40 82 55 0 27 -68 33 -130 12z"/>
<path d="M2084 32265 c-9 -21 14 -45 42 -45 30 0 33 34 5 50 -27 14 -41 13
-47 -5z"/>
<path d="M21012 32268 c-15 -15 -15 -35 -2 -43 15 -9 40 14 40 36 0 21 -20 25
-38 7z"/>
<path d="M20110 32261 c0 -6 5 -13 10 -16 6 -3 10 1 10 9 0 9 -4 16 -10 16 -5
0 -10 -4 -10 -9z"/>
<path d="M21255 32257 c-24 -18 -11 -37 26 -37 30 0 38 17 17 38 -15 15 -20
15 -43 -1z"/>
<path d="M1940 32247 c0 -16 80 -78 92 -71 4 3 6 9 3 14 -3 5 -1 19 5 30 12
23 9 25 -57 34 -32 5 -43 3 -43 -7z"/>
<path d="M21487 32254 c-9 -9 15 -54 29 -54 16 0 25 13 16 25 -13 18 -39 35
-45 29z"/>
<path d="M22162 32244 c1 -9 9 -19 16 -22 9 -3 13 2 10 14 -1 9 -9 19 -16 22
-9 3 -13 -2 -10 -14z"/>
<path d="M21197 32244 c-8 -8 1 -24 14 -24 5 0 9 7 9 15 0 15 -12 20 -23 9z"/>
<path d="M21360 32230 c0 -5 5 -10 10 -10 6 0 10 5 10 10 0 6 -4 10 -10 10 -5
0 -10 -4 -10 -10z"/>
<path d="M24033 32204 c-3 -8 -1 -20 4 -25 14 -14 43 0 43 22 0 24 -38 26 -47
3z"/>
<path d="M22600 32200 c0 -5 7 -10 16 -10 8 0 12 5 9 10 -3 6 -10 10 -16 10
-5 0 -9 -4 -9 -10z"/>
<path d="M23497 32193 c-3 -5 -2 -15 3 -23 10 -16 40 -5 43 15 2 12 -39 19
-46 8z"/>
<path d="M23570 32190 c0 -5 5 -10 10 -10 6 0 10 5 10 10 0 6 -4 10 -10 10 -5
0 -10 -4 -10 -10z"/>
<path d="M23670 32184 c-11 -12 -11 -18 2 -31 14 -14 19 -13 47 8 17 12 31 26
31 31 0 15 -67 8 -80 -8z"/>
<path d="M24465 32187 c-4 -10 -5 -21 -1 -24 10 -10 18 4 13 24 -4 17 -4 17
-12 0z"/>
<path d="M23936 32181 c-3 -5 1 -14 8 -20 16 -13 32 2 21 19 -8 12 -22 13 -29
1z"/>
<path d="M24112 32178 c-19 -19 -14 -28 13 -28 27 0 28 1 19 24 -7 19 -16 20
-32 4z"/>
<path d="M24246 32183 c-11 -11 -6 -23 9 -23 8 0 15 4 15 9 0 13 -16 22 -24
14z"/>
<path d="M24360 32161 c0 -15 6 -21 21 -21 14 0 19 5 17 17 -5 26 -38 29 -38
4z"/>
<path d="M2661 32086 c-14 -17 -2 -54 25 -77 20 -17 110 -34 117 -21 10 16
-13 49 -49 74 -52 35 -78 42 -93 24z"/>
<path d="M2853 31883 c24 -117 31 -132 63 -133 18 0 23 61 9 96 -12 30 -49 64
-68 64 -5 0 -7 -12 -4 -27z"/>
<path d="M13734 31725 c-9 -21 3 -45 21 -45 21 0 30 27 15 45 -16 19 -29 19
-36 0z"/>
<path d="M7060 31690 c0 -5 5 -10 10 -10 6 0 10 5 10 10 0 6 -4 10 -10 10 -5
0 -10 -4 -10 -10z"/>
<path d="M2937 31664 c-16 -16 -5 -36 26 -49 17 -7 43 -25 56 -39 27 -29 61
-35 61 -11 0 21 -37 56 -52 50 -16 -6 -29 4 -44 30 -12 21 -35 30 -47 19z"/>
<path d="M3070 31505 c0 -9 5 -15 11 -13 6 2 11 8 11 13 0 5 -5 11 -11 13 -6
2 -11 -4 -11 -13z"/>
<path d="M3141 31291 c-17 -11 -7 -41 14 -41 9 0 15 9 15 25 0 27 -6 30 -29
16z"/>
<path d="M11424 31235 c-7 -18 13 -45 33 -45 19 0 28 27 13 45 -16 19 -39 19
-46 0z"/>
<path d="M9451 28911 c-27 -27 -27 -53 2 -87 l23 -26 189 -3 c105 -2 260 -6
345 -9 85 -3 268 -8 405 -11 456 -10 785 -32 907 -62 78 -19 98 -11 98 42 0
82 -64 94 -690 124 -113 6 -344 13 -515 16 -284 5 -444 12 -661 31 -75 6 -83
5 -103 -15z"/>
<path d="M5600 28700 c-15 -15 -20 -33 -20 -72 0 -55 -24 -278 -59 -553 -12
-88 -21 -197 -21 -242 0 -100 -8 -108 -115 -118 -68 -7 -259 -57 -360 -94 -27
-11 -75 -27 -105 -36 -96 -29 -126 -80 -75 -130 31 -32 39 -31 104 10 49 31
153 68 392 139 48 14 96 26 107 26 26 0 46 -25 37 -47 -4 -10 -11 -131 -15
-269 -5 -143 -13 -267 -20 -291 -10 -33 -10 -46 1 -69 18 -38 63 -54 86 -32
26 27 32 97 32 419 1 257 3 309 16 319 8 6 54 16 102 20 48 5 162 17 253 28
91 11 217 23 280 27 63 4 125 11 138 16 30 12 28 45 -5 66 -24 15 -48 18 -173
16 -148 -3 -387 -26 -450 -44 -119 -35 -140 -31 -140 29 0 20 4 52 9 70 14 47
68 444 81 587 6 66 13 136 16 155 4 27 1 42 -16 63 -25 32 -52 35 -80 7z"/>
<path d="M9806 28541 c-9 -10 -21 -42 -25 -72 -15 -93 -41 -179 -93 -314 -71
-184 -205 -592 -233 -710 -25 -104 -49 -174 -91 -262 -29 -62 -31 -104 -6
-126 40 -36 71 -21 129 62 26 36 116 134 200 217 137 134 164 156 246 198 93
48 155 64 201 52 52 -13 103 -117 142 -290 46 -199 -56 -340 -314 -433 -67
-24 -92 -27 -192 -28 -192 0 -365 54 -552 175 -72 47 -101 49 -106 7 -5 -45
55 -92 219 -174 161 -80 259 -108 419 -119 109 -7 173 6 300 64 256 116 363
275 330 487 -14 88 -55 225 -86 286 -32 64 -94 115 -154 128 -40 9 -63 7 -124
-9 -152 -39 -304 -156 -419 -325 -21 -30 -41 -50 -53 -50 -36 0 -28 55 31 216
85 233 100 274 145 404 23 66 66 183 95 260 87 230 100 326 52 360 -28 20 -40
19 -61 -4z"/>
<path d="M4240 28343 c-125 -12 -393 -77 -498 -119 -83 -34 -171 -80 -238
-126 -133 -89 -291 -297 -340 -446 -12 -39 -15 -72 -11 -125 20 -269 240 -408
750 -472 243 -31 283 -35 367 -35 78 1 111 4 267 28 53 8 93 34 93 58 0 8 -11
21 -25 30 -23 15 -34 15 -98 5 -130 -22 -273 -24 -432 -7 -260 29 -472 78
-600 139 -89 43 -129 77 -177 151 -34 54 -38 65 -38 126 0 37 7 87 15 111 47
132 211 319 346 396 221 126 645 217 805 174 61 -17 84 -10 84 23 0 40 -10 56
-51 76 -37 20 -113 24 -219 13z"/>
<path d="M7787 27912 c-9 -10 -21 -42 -27 -70 -25 -131 -50 -191 -105 -245
-28 -29 -66 -72 -83 -97 -73 -107 -185 -200 -304 -255 -48 -22 -73 -26 -157
-28 -117 -2 -141 9 -180 87 -22 45 -23 51 -12 117 23 143 88 225 231 297 86
42 200 72 283 72 23 0 81 -10 130 -22 95 -25 119 -21 125 21 5 30 -47 76 -100
89 -78 19 -190 24 -258 12 -314 -57 -521 -261 -520 -514 0 -85 21 -137 78
-194 90 -90 270 -104 428 -31 182 83 320 232 393 422 24 62 71 37 71 -37 0
-55 25 -157 50 -206 27 -53 124 -156 176 -186 54 -32 107 -30 112 3 2 16 -13
34 -60 73 -81 66 -104 94 -134 155 -39 84 -56 186 -59 360 -1 88 -3 163 -3
166 -2 5 -48 29 -56 29 -2 0 -10 -8 -19 -18z"/>
<path d="M8881 27724 c-25 -31 -26 -55 -6 -93 25 -49 72 -55 104 -15 29 37 26
70 -8 105 -36 36 -63 37 -90 3z"/>
<path d="M5172 25354 c-12 -8 -22 -26 -22 -39 0 -30 56 -79 79 -69 35 16 127
15 360 -5 417 -37 470 -39 1186 -56 127 -3 283 -11 348 -17 108 -10 119 -9
137 7 45 41 12 81 -76 95 -33 4 -180 11 -329 14 -148 4 -378 9 -510 12 -261 6
-536 23 -843 54 -240 24 -300 25 -330 4z"/>
<path d="M5617 25130 c-32 -37 -26 -5 -87 -460 -12 -85 -34 -227 -50 -315 -58
-327 -78 -504 -81 -717 -2 -107 1 -152 11 -163 20 -24 -1 -18 -74 21 -82 43
-129 44 -134 3 -4 -33 22 -53 134 -104 286 -132 521 -189 774 -188 143 0 161
2 235 28 100 35 166 77 231 147 137 145 163 344 65 493 -66 100 -228 162 -396
152 -216 -13 -412 -118 -616 -329 -108 -112 -132 -121 -137 -54 -5 62 40 449
69 586 17 86 68 405 80 500 6 52 24 160 40 239 29 147 28 172 -7 185 -25 10
-31 8 -57 -24z m814 -1225 c59 -20 121 -73 144 -121 42 -88 10 -241 -67 -329
-43 -48 -131 -97 -218 -120 -85 -23 -310 -20 -445 6 -186 35 -395 92 -395 107
1 4 36 31 80 60 44 30 121 92 172 138 183 167 308 240 469 274 62 13 205 5
260 -15z"/>
<path d="M5912 22634 c-26 -18 -27 -34 -7 -74 19 -36 47 -44 105 -31 84 19
594 -12 891 -54 277 -39 625 -129 761 -196 32 -16 66 -29 76 -29 20 0 52 29
52 47 0 18 -41 63 -71 78 -40 21 -355 118 -465 143 -205 48 -521 86 -934 112
-359 24 -380 24 -408 4z"/>
<path d="M6292 22284 c-19 -13 -22 -24 -22 -82 0 -200 -29 -375 -96 -592 -48
-154 -56 -176 -98 -246 -39 -65 -47 -121 -20 -148 23 -24 35 -20 97 28 88 68
271 132 452 157 187 26 365 -29 365 -112 0 -46 -93 -132 -193 -179 -248 -116
-484 -104 -716 36 -102 61 -143 68 -149 26 -9 -64 200 -197 374 -238 146 -34
368 -2 529 76 164 80 236 162 242 274 6 107 -46 167 -180 208 -62 18 -86 20
-211 15 -163 -7 -258 -28 -365 -81 -39 -20 -77 -36 -86 -36 -26 0 -17 42 33
156 52 115 94 273 112 414 6 47 18 122 27 167 18 96 9 134 -38 158 -34 18 -30
18 -57 -1z"/>
<path d="M3920 21746 c-128 -30 -220 -73 -322 -148 -179 -133 -338 -399 -338
-564 0 -70 10 -102 46 -156 57 -81 176 -84 324 -7 41 22 104 63 140 92 112 91
338 358 413 487 35 61 45 118 22 126 -27 11 -51 -17 -240 -265 -166 -220 -348
-365 -485 -387 -45 -7 -96 9 -110 37 -28 51 1 166 76 301 137 248 309 364 593
399 109 14 143 9 175 -26 13 -14 35 -25 49 -25 36 0 57 -34 57 -95 0 -34 7
-60 20 -80 12 -16 42 -70 67 -119 100 -191 303 -331 376 -258 31 31 16 49 -77
94 -105 51 -172 119 -226 231 -34 71 -43 102 -49 171 -8 88 -20 113 -79 169
l-29 28 -174 4 c-121 3 -191 0 -229 -9z"/>
<path d="M5007 21425 c-21 -20 -21 -47 -2 -84 19 -38 59 -53 109 -42 54 13 72
33 60 68 -16 49 -135 90 -167 58z"/>
<path d="M8935 20649 c-88 -5 -212 -16 -275 -25 -63 -9 -128 -17 -145 -19 -16
-1 -48 -9 -70 -17 -74 -28 -184 -38 -438 -38 -138 -1 -385 -5 -547 -10 -383
-12 -1114 -38 -1255 -45 -60 -3 -229 -10 -375 -15 -146 -5 -337 -14 -425 -20
-88 -5 -248 -15 -355 -20 -107 -5 -285 -17 -395 -25 -110 -8 -303 -22 -430
-30 -126 -8 -273 -20 -325 -25 -52 -5 -176 -14 -275 -20 -99 -6 -205 -12 -235
-15 -30 -2 -217 -7 -415 -11 -380 -7 -540 1 -658 32 -53 14 -71 15 -91 6 -37
-17 -33 -51 10 -93 20 -18 43 -48 50 -66 26 -60 13 -224 -31 -388 -19 -68 -50
-186 -70 -260 -22 -84 -146 -466 -166 -512 -10 -24 -25 -67 -33 -96 -8 -28
-40 -122 -71 -207 -32 -85 -64 -175 -71 -200 -7 -25 -27 -85 -44 -135 -66
-194 -100 -355 -100 -478 0 -72 27 -165 57 -200 28 -32 135 -76 215 -88 80
-13 380 -7 528 10 504 58 1056 85 1565 76 630 -11 992 -30 2090 -110 105 -8
262 -19 350 -24 380 -25 798 -56 1080 -82 337 -31 524 -48 710 -64 94 -8 211
-20 260 -25 88 -11 808 -83 995 -100 52 -5 136 -14 185 -19 50 -5 162 -17 250
-26 88 -8 196 -20 239 -26 44 -6 158 -19 255 -29 97 -11 284 -33 416 -50 132
-17 274 -35 315 -40 41 -5 129 -19 195 -30 162 -27 487 -78 610 -96 91 -13
265 -40 405 -64 112 -19 305 -30 368 -21 80 12 120 35 146 86 23 45 25 127 16
785 -5 385 2 475 70 820 64 324 170 697 261 915 12 28 24 64 28 80 5 17 13 40
19 51 20 38 52 182 52 236 -1 70 -27 124 -85 176 -63 55 -162 92 -365 136
-146 31 -622 103 -890 135 -222 26 -343 40 -480 56 -260 29 -394 46 -450 55
-30 6 -107 16 -170 25 -63 8 -158 21 -210 29 -52 8 -171 26 -265 40 -93 14
-183 28 -200 31 -70 13 -420 54 -535 64 -292 25 -581 32 -795 20z m534 -73
c118 -9 311 -30 430 -46 119 -16 252 -35 296 -41 44 -6 145 -21 225 -34 80
-13 181 -29 225 -34 44 -6 124 -18 179 -26 190 -30 514 -71 976 -125 360 -43
501 -62 745 -101 628 -100 745 -147 745 -297 0 -55 -21 -130 -99 -357 -119
-347 -140 -413 -193 -615 -125 -481 -142 -647 -143 -1341 0 -503 -1 -517 -20
-539 -20 -22 -24 -22 -180 -17 -173 6 -230 13 -675 82 -162 26 -322 50 -355
55 -33 5 -121 19 -195 30 -74 11 -187 27 -250 36 -335 44 -426 56 -545 69 -71
7 -211 23 -310 34 -99 11 -227 25 -285 30 -193 19 -414 41 -505 51 -49 5 -189
19 -310 30 -121 12 -321 32 -445 45 -124 13 -369 38 -545 55 -176 16 -356 34
-400 40 -44 5 -118 12 -165 15 -47 3 -116 10 -155 15 -38 5 -104 12 -145 14
-41 3 -165 12 -275 20 -110 9 -270 21 -355 26 -85 5 -211 14 -280 20 -69 5
-195 14 -280 20 -85 5 -209 15 -275 20 -261 21 -661 48 -885 61 -1040 58
-1729 49 -2510 -32 -241 -25 -450 -26 -551 -3 -57 13 -81 24 -111 53 -36 33
-40 42 -45 98 -14 155 30 319 267 993 130 370 260 776 302 945 32 132 40 222
28 360 -5 55 -3 60 15 58 11 -1 67 -7 125 -14 164 -18 736 -1 1195 36 221 17
401 30 700 50 127 9 320 22 430 30 110 8 250 17 310 20 61 3 238 12 395 20
157 8 357 17 445 20 88 3 279 10 425 15 146 5 420 14 610 20 190 5 413 12 495
15 204 7 1131 7 1280 0 528 -25 686 -42 751 -80 41 -24 47 -25 140 -18 76 6
99 12 108 26 16 25 -3 50 -50 64 -45 13 -267 48 -399 63 -49 5 -259 15 -465
21 -206 6 -379 15 -384 20 -6 5 0 9 15 10 13 0 87 6 164 12 226 19 529 20 764
3z"/>
<path d="M9565 19736 c-5 -3 -27 -7 -48 -11 -70 -11 -98 -65 -55 -105 29 -27
86 -26 139 1 40 21 45 22 172 10 211 -20 600 -82 937 -151 523 -106 581 -114
588 -76 10 50 -31 78 -133 90 -27 3 -165 28 -305 56 -347 67 -601 111 -905
155 -162 23 -368 39 -390 31z"/>
<path d="M5352 19695 c-11 -14 -24 -56 -31 -102 -7 -43 -19 -105 -27 -138 -8
-33 -18 -137 -21 -233 -6 -165 -7 -173 -27 -177 -12 -3 -154 -6 -316 -7 -264
-3 -299 -5 -323 -21 -33 -22 -34 -47 -3 -76 29 -27 69 -30 179 -13 43 7 133
12 200 13 67 0 147 4 178 8 30 3 66 4 79 1 l24 -6 2 -212 3 -212 -30 -56 c-16
-31 -29 -58 -29 -60 0 -10 46 -44 61 -44 10 0 30 11 46 24 53 45 65 168 41
434 -9 106 -9 135 1 141 7 5 117 11 244 14 256 7 290 12 295 45 3 18 -4 26
-32 37 -43 18 -213 20 -371 4 -101 -10 -109 -10 -127 9 -19 18 -19 22 -4 103
8 46 22 133 31 192 16 104 44 200 72 242 50 75 -59 161 -115 90z"/>
<path d="M10016 19517 c-15 -11 -17 -21 -12 -53 25 -139 12 -268 -49 -484 -19
-69 -48 -175 -64 -236 -32 -122 -99 -265 -155 -333 -20 -24 -36 -53 -36 -66 0
-27 34 -55 65 -55 13 0 28 -12 39 -31 37 -62 169 -122 296 -135 221 -22 606
103 674 218 21 35 20 114 -3 163 -64 138 -203 205 -425 205 -117 0 -208 -20
-302 -65 -71 -34 -104 -39 -104 -16 0 6 14 45 31 88 56 139 127 394 148 530
21 140 13 214 -31 261 -24 25 -46 28 -72 9z m498 -912 c70 -18 108 -44 147
-98 37 -50 39 -104 7 -134 -97 -89 -430 -167 -605 -142 -67 10 -234 78 -241
99 -6 17 58 118 94 148 46 38 228 110 318 127 98 18 211 18 280 0z"/>
<path d="M3542 19439 c-110 -18 -264 -82 -381 -156 -150 -96 -282 -287 -316
-458 -9 -45 10 -154 36 -210 104 -225 521 -367 1019 -349 227 9 334 45 274 95
-13 10 -49 10 -202 0 -382 -25 -712 41 -899 180 -75 56 -119 148 -116 241 3
82 30 155 92 250 66 101 160 177 302 242 129 60 217 79 359 80 172 1 242 -20
334 -104 58 -52 72 -60 107 -60 47 0 57 16 39 61 -28 67 -159 145 -301 179
-90 21 -247 25 -347 9z"/>
<path d="M7789 19070 c-9 -5 -22 -23 -29 -40 -15 -37 -22 -37 -96 -4 -74 33
-229 44 -326 24 -144 -30 -293 -117 -425 -248 -177 -174 -191 -320 -37 -368
45 -15 66 -16 131 -7 114 15 229 69 432 203 165 109 204 143 274 234 30 39 61
47 75 19 5 -10 15 -49 21 -88 31 -176 187 -343 365 -389 53 -14 62 -14 83 -1
13 9 23 19 23 24 0 21 -40 51 -94 70 -82 30 -169 94 -210 155 -48 70 -75 152
-87 270 -11 106 -19 130 -49 146 -23 12 -30 12 -51 0z m-156 -130 c43 -21 34
-45 -33 -87 -34 -21 -102 -67 -153 -102 -194 -135 -369 -218 -478 -228 -48 -5
-60 -2 -78 16 -28 28 -27 39 10 94 95 144 283 276 443 313 74 16 249 13 289
-6z"/>
<path d="M8685 18870 c-17 -19 -18 -22 -2 -55 13 -28 26 -37 68 -49 67 -20 72
-20 100 3 l24 19 -21 29 c-26 35 -90 73 -125 73 -14 0 -34 -9 -44 -20z"/>
<path d="M22195 15768 c-15 -22 -14 -24 6 -40 26 -22 33 -22 48 -4 10 12 9 20
-4 40 -21 32 -29 32 -50 4z"/>
<path d="M22300 15751 c0 -19 48 -42 82 -39 25 2 33 8 33 23 0 17 -8 20 -57
23 -35 2 -58 -1 -58 -7z"/>
<path d="M16269 15657 c-45 -39 -79 -92 -105 -168 -27 -81 -66 -327 -84 -539
-6 -74 -15 -173 -21 -220 -19 -174 -76 -1138 -82 -1395 l-2 -100 -35 3 c-19 1
-62 9 -95 17 -33 8 -153 26 -265 40 -113 14 -241 30 -285 36 -44 6 -197 26
-340 45 -338 45 -526 71 -600 84 -53 9 -408 61 -820 120 -77 11 -230 31 -340
46 -110 14 -231 30 -270 35 -38 5 -92 12 -120 15 -27 3 -133 17 -235 30 -102
13 -223 28 -270 34 -47 6 -119 15 -160 20 -41 6 -183 21 -315 35 -321 33
-1024 113 -1102 125 -35 6 -240 30 -456 55 -557 63 -711 83 -801 100 -92 18
-129 8 -134 -36 -5 -39 38 -69 97 -69 25 0 145 -11 266 -25 121 -14 346 -39
500 -55 154 -17 334 -37 400 -46 164 -21 243 -30 510 -59 127 -14 284 -32 350
-40 66 -8 192 -22 280 -30 170 -16 258 -26 645 -76 135 -17 295 -37 355 -44
207 -26 866 -116 1020 -140 215 -33 618 -91 975 -140 528 -72 639 -87 785
-105 88 -11 187 -25 221 -30 33 -6 95 -10 137 -10 71 0 78 -2 93 -25 13 -21
15 -38 10 -88 -4 -34 -11 -498 -16 -1032 -5 -533 -13 -1118 -17 -1300 -10
-433 -10 -1456 0 -1910 8 -380 10 -1208 2 -1410 -2 -66 -9 -331 -15 -590 -6
-258 -12 -535 -15 -615 -2 -80 -7 -247 -11 -371 l-6 -225 31 -32 c17 -17 38
-29 45 -26 15 6 30 49 22 62 -2 4 -1 129 4 277 5 149 11 385 14 525 8 349 17
661 21 745 10 179 13 1291 5 1555 -9 291 -14 1765 -6 1778 7 13 21 864 32
2037 3 341 7 621 9 623 2 2 43 -6 91 -18 73 -17 379 -60 789 -110 39 -5 122
-16 185 -24 173 -24 905 -113 1065 -130 77 -8 165 -19 195 -25 100 -17 401
-60 675 -96 291 -38 418 -57 735 -111 536 -92 641 -105 681 -84 23 13 25 57 3
88 -15 21 -21 22 -87 17 -70 -6 -223 13 -487 60 -47 9 -130 23 -185 31 -55 9
-140 22 -190 30 -86 14 -413 61 -580 84 -44 6 -168 22 -275 35 -107 13 -265
33 -350 45 -85 11 -195 25 -245 30 -49 6 -117 15 -150 20 -33 5 -159 21 -280
35 -121 14 -339 42 -485 61 -146 19 -317 41 -380 49 -63 8 -205 26 -315 41
-110 15 -240 28 -290 30 -131 6 -130 4 -116 185 5 79 13 203 16 274 12 282 17
362 40 685 25 340 43 528 71 745 38 295 66 411 119 480 41 53 42 58 13 85 -27
25 -37 25 -69 -3z"/>
<path d="M13772 15383 c-20 -8 -41 -56 -62 -149 -22 -94 -68 -216 -179 -472
-39 -90 -96 -245 -126 -345 -31 -100 -69 -212 -86 -250 -34 -80 -36 -117 -11
-140 42 -38 70 -13 131 116 93 195 323 357 616 435 91 24 117 26 285 27 162 0
195 -3 263 -23 280 -80 261 -233 -48 -382 -186 -89 -257 -114 -495 -176 -186
-48 -421 -77 -639 -78 -176 -1 -195 -3 -205 -19 -9 -15 -6 -22 16 -42 35 -30
132 -40 333 -32 176 7 298 24 550 78 135 28 352 108 505 185 149 75 238 153
280 245 24 53 25 97 5 147 -22 51 -50 78 -121 118 -190 106 -504 123 -779 42
-192 -56 -307 -119 -423 -232 -60 -58 -85 -77 -93 -69 -15 15 -1 55 92 258
161 352 269 634 269 701 0 45 -38 73 -78 57z"/>
<path d="M19529 15214 c-24 -25 -24 -28 -21 -190 5 -239 -20 -588 -54 -749 -8
-38 -31 -121 -51 -183 -30 -94 -34 -116 -25 -137 16 -34 42 -32 115 9 88 49
290 140 365 165 86 28 243 37 357 21 254 -36 389 -137 267 -199 -109 -55 -311
-74 -737 -69 -331 4 -343 5 -438 31 -53 15 -108 27 -121 27 -63 0 -50 -75 17
-97 78 -26 411 -63 616 -70 408 -12 711 42 787 142 36 48 34 128 -5 182 -75
103 -380 187 -594 163 -172 -20 -268 -52 -399 -133 -111 -70 -122 -64 -84 51
14 42 30 98 35 123 19 87 71 715 71 861 0 30 -38 78 -63 78 -7 0 -24 -12 -38
-26z"/>
<path d="M10643 15186 c-141 -27 -226 -60 -341 -133 -118 -75 -228 -193 -280
-301 -32 -67 -34 -79 -30 -141 9 -119 79 -215 198 -268 81 -37 149 -45 260
-32 148 17 291 79 440 191 90 67 197 185 206 227 3 14 10 36 16 48 6 13 8 26
5 30 -15 15 -65 -24 -157 -120 -153 -160 -321 -252 -511 -280 -150 -21 -256
15 -324 112 -42 60 -42 141 0 226 36 74 147 185 235 237 128 75 327 125 455
113 100 -9 159 -30 194 -71 35 -39 38 -40 83 -17 18 9 40 19 48 23 60 28 -30
113 -152 146 -79 21 -260 26 -345 10z"/>
<path d="M11228 15050 c-9 -6 -20 -25 -23 -43 -4 -17 -18 -53 -31 -79 -29 -57
-30 -71 -5 -106 11 -16 24 -60 30 -107 16 -115 81 -244 158 -316 95 -86 198
-121 217 -73 7 18 -38 64 -123 127 -79 58 -130 174 -151 343 -7 56 -7 104 -1
145 15 92 -17 141 -71 109z"/>
<path d="M17404 14579 c-68 -11 -200 -69 -276 -120 -148 -99 -277 -281 -293
-412 -21 -167 104 -301 293 -314 199 -14 388 77 541 261 77 92 111 152 141
248 12 38 26 70 31 73 4 3 19 -11 31 -31 182 -293 338 -463 500 -545 66 -33
80 -35 98 -14 23 28 -5 61 -110 130 -130 86 -209 177 -372 435 -50 78 -64 108
-77 167 -7 28 -21 59 -32 69 -17 15 -24 16 -57 5 -34 -12 -42 -11 -75 9 -78
46 -211 61 -343 39z m211 -94 c87 -12 165 -65 165 -112 0 -32 -101 -216 -164
-299 -65 -86 -197 -183 -293 -215 -93 -31 -219 -32 -284 -2 -56 25 -99 79
-106 131 -12 87 83 265 188 352 58 49 164 107 229 127 55 16 171 32 200 27 8
-1 37 -5 65 -9z"/>
<path d="M18971 14344 c-27 -34 -27 -64 -1 -92 42 -45 120 -13 106 43 -8 31
-49 75 -70 75 -8 0 -24 -12 -35 -26z"/>
<path d="M10935 13150 c-44 -11 -107 -19 -140 -19 -69 -1 -105 -20 -105 -55 0
-13 9 -31 21 -42 18 -16 37 -19 129 -19 94 0 111 3 130 20 20 18 36 20 184 19
158 0 162 -1 244 -33 142 -57 223 -139 235 -238 10 -84 -41 -275 -103 -388
-150 -271 -401 -485 -632 -540 -83 -19 -235 -19 -306 1 -128 35 -235 113 -281
203 -65 126 -73 309 -22 479 39 132 59 176 115 253 54 74 59 112 14 117 -69 8
-192 -176 -240 -358 -18 -68 -22 -112 -22 -220 0 -124 2 -142 30 -220 38 -107
90 -187 157 -241 114 -91 246 -135 397 -132 248 4 425 87 635 298 66 66 137
144 157 172 132 183 215 439 190 589 -15 91 -46 149 -116 219 -110 110 -246
156 -460 154 -89 0 -156 -7 -211 -19z"/>
<path d="M13915 13144 c-89 -27 -165 -74 -209 -130 -16 -20 -50 -78 -77 -128
-120 -230 -123 -390 -11 -592 50 -90 90 -134 166 -183 158 -103 418 -135 614
-76 265 80 397 261 379 519 -20 289 -167 480 -423 552 -35 10 -103 17 -169 18
-94 2 -115 6 -145 24 -19 12 -37 22 -40 21 -3 0 -41 -11 -85 -25z m377 -134
c80 -12 198 -69 250 -122 171 -172 184 -509 26 -657 -81 -76 -236 -125 -388
-125 -276 2 -451 119 -522 347 -26 86 -21 172 15 275 34 95 98 212 128 234 26
19 136 46 239 58 68 7 155 4 252 -10z"/>
<path d="M17905 12712 c-156 -54 -219 -83 -317 -149 -61 -41 -162 -144 -199
-203 -37 -59 -61 -145 -63 -225 -1 -73 2 -87 37 -159 53 -111 140 -195 272
-263 180 -92 341 -121 532 -96 136 17 220 49 338 128 131 87 226 228 285 423
18 60 21 90 18 160 -11 195 -113 320 -309 378 -72 22 -242 46 -354 50 -98 4
-103 3 -240 -44z m390 -81 c259 -19 370 -92 406 -268 11 -53 10 -73 -5 -145
-32 -149 -126 -310 -222 -379 -177 -127 -432 -162 -665 -92 -180 55 -281 129
-341 251 -29 59 -33 76 -33 147 1 64 6 91 26 135 58 125 187 224 382 297 176
65 222 70 452 54z"/>
<path d="M14166 11728 c-12 -16 -16 -47 -16 -108 0 -47 -4 -121 -10 -165 -15
-124 -40 -469 -43 -581 -2 -88 1 -105 17 -123 45 -50 72 -17 80 101 3 51 11
138 17 193 36 350 57 638 49 660 -17 46 -69 58 -94 23z"/>
<path d="M11221 11579 c-226 -52 -533 -211 -570 -296 -7 -15 -34 -46 -61 -68
-57 -48 -77 -86 -89 -169 -21 -147 42 -257 184 -326 86 -41 165 -53 297 -48
91 4 131 12 206 37 221 74 440 224 538 368 68 101 84 148 84 248 0 61 -4 77
-28 116 -47 73 -107 112 -217 140 -92 24 -233 23 -344 -2z m354 -105 c26 -10
67 -35 91 -59 40 -38 44 -46 44 -91 0 -72 -15 -113 -69 -196 -70 -105 -133
-159 -296 -251 -216 -121 -452 -149 -609 -70 -183 92 -181 312 3 395 36 17 69
35 74 42 4 6 5 26 2 44 -6 32 -5 33 62 63 122 55 323 121 418 139 68 12 222 3
280 -16z"/>
<path d="M18126 11235 c-79 -14 -96 -19 -231 -78 -70 -30 -125 -71 -125 -93 0
-6 7 -17 16 -25 13 -11 29 -6 103 34 76 41 181 72 181 54 0 -3 -33 -27 -72
-54 -158 -104 -251 -227 -278 -371 -49 -250 104 -432 390 -464 95 -10 115 -9
210 10 315 64 538 292 540 554 0 56 -28 151 -63 211 -55 94 -187 179 -328 211
-97 23 -250 28 -343 11z m299 -114 c157 -32 250 -94 297 -196 19 -41 23 -67
23 -145 0 -85 -3 -101 -29 -152 -65 -129 -237 -246 -411 -279 -27 -5 -91 -10
-140 -11 -151 -1 -257 42 -309 125 -26 42 -30 60 -34 135 -4 105 16 174 82
272 61 91 84 109 173 139 65 22 79 31 87 53 8 23 6 32 -12 51 -12 13 -19 27
-15 31 12 12 186 -2 288 -23z"/>
<path d="M11332 10339 c-33 -12 -36 -33 -18 -107 24 -93 31 -335 18 -572 -52
-909 -52 -872 4 -886 44 -11 54 14 54 130 0 56 9 211 19 346 39 492 46 677 33
853 -13 171 -28 224 -67 237 -11 4 -30 4 -43 -1z"/>
<path d="M14236 9900 c-42 -8 -66 -31 -66 -65 0 -13 -23 -40 -64 -75 -36 -30
-79 -78 -96 -106 -73 -122 -112 -296 -90 -407 29 -151 122 -238 284 -268 90
-17 166 -2 281 55 148 73 261 193 317 336 32 81 31 198 -2 265 -51 106 -158
183 -337 244 -94 31 -148 36 -227 21z m210 -124 c133 -45 197 -88 246 -165 50
-79 37 -191 -35 -303 -45 -71 -88 -113 -171 -167 -188 -121 -391 -85 -450 80
-34 93 -2 278 67 385 56 87 187 192 243 193 17 1 62 -10 100 -23z"/>
<path d="M18125 9796 c-136 -39 -167 -56 -263 -150 -73 -71 -101 -107 -130
-165 -35 -72 -37 -80 -37 -176 0 -94 2 -105 34 -169 51 -104 134 -183 251
-239 145 -69 246 -91 389 -84 174 8 317 59 429 155 119 100 160 220 127 367
-46 210 -192 355 -440 440 -98 34 -277 44 -360 21z m357 -129 c107 -38 207
-103 252 -161 15 -20 41 -66 59 -104 28 -59 32 -77 32 -152 0 -140 -43 -200
-198 -274 -106 -52 -173 -66 -306 -66 -177 0 -350 66 -441 168 -90 101 -114
225 -64 338 52 118 105 168 204 194 45 12 100 53 100 76 0 21 21 24 145 20
106 -4 131 -8 217 -39z"/>
<path d="M14258 8029 c-24 -13 -23 -38 7 -270 27 -209 32 -382 14 -488 -37
-216 -72 -397 -93 -471 -45 -160 -44 -200 5 -200 37 0 52 25 74 125 10 44 22
87 26 96 14 29 87 412 99 527 13 114 12 141 -14 393 -8 74 -12 147 -9 162 18
91 -45 163 -109 126z"/>
<path d="M18289 7814 c-9 -11 -16 -57 -21 -128 -3 -61 -13 -140 -22 -176 -11
-45 -15 -116 -16 -231 0 -229 -30 -577 -61 -717 -5 -24 -7 -47 -4 -51 2 -5 0
-33 -5 -62 -5 -30 -17 -97 -25 -149 -9 -52 -24 -128 -32 -168 -17 -72 -17 -73
6 -95 l22 -22 20 24 c10 13 19 34 19 47 0 13 9 52 20 86 51 159 140 782 140
981 0 164 19 369 40 442 11 38 20 96 20 128 0 48 -4 62 -25 82 -28 29 -57 32
-76 9z"/>
<path d="M11260 7780 c-25 -25 -25 -61 -4 -171 25 -127 23 -348 -6 -589 -40
-332 -49 -514 -29 -551 24 -46 61 -3 73 86 4 28 18 138 32 245 13 107 31 247
39 310 16 124 19 273 8 498 -6 130 -8 145 -29 167 -28 30 -57 32 -84 5z"/>
<path d="M23887 4733 c-4 -3 -7 -17 -7 -29 0 -13 -4 -25 -8 -28 -5 -3 -9 -37
-10 -76 -1 -55 2 -72 14 -77 24 -9 37 12 46 79 4 34 13 67 18 72 15 15 12 36
-4 36 -8 0 -16 7 -20 15 -6 16 -18 19 -29 8z"/>
</g>
</svg>
