<?xml version="1.0" standalone="no"?>
<!DOCTYPE svg PUBLIC "-//W3C//DTD SVG 20010904//EN"
 "http://www.w3.org/TR/2001/REC-SVG-20010904/DTD/svg10.dtd">
<svg version="1.0" xmlns="http://www.w3.org/2000/svg"
 width="2448.000000pt" height="3264.000000pt" viewBox="0 0 2448.000000 3264.000000"
 preserveAspectRatio="xMidYMid meet">
<metadata>
Created by potrace 1.12, written by Peter Selinger 2001-2015
</metadata>
<g transform="translate(0.000000,3264.000000) scale(0.100000,-0.100000)"
fill="#000000" stroke="none">
<path d="M24461 31955 c-7 -16 -45 -97 -86 -180 -247 -505 -313 -656 -425
-980 -104 -303 -256 -710 -352 -943 -260 -635 -378 -1006 -443 -1392 -34 -205
-38 -237 -65 -505 -16 -151 -33 -275 -74 -520 -8 -49 -22 -142 -30 -205 -9
-63 -27 -189 -41 -280 -14 -91 -36 -253 -50 -360 -53 -424 -54 -455 -57 -1795
-2 -1322 -3 -1288 48 -1890 33 -382 42 -890 24 -1285 -8 -155 -14 -604 -16
-1029 -1 -415 -5 -802 -8 -860 -7 -109 -45 -505 -71 -736 -38 -338 -47 -731
-25 -1090 12 -213 12 -652 0 -850 -5 -82 -12 -264 -16 -402 -7 -231 -13 -283
-31 -237 -12 31 -102 64 -175 64 l-68 0 0 223 c0 122 7 452 15 732 8 281 19
746 25 1035 12 604 13 621 48 915 29 246 36 520 14 591 -15 51 -53 90 -112
117 -44 19 -64 20 -715 18 -368 0 -740 -6 -825 -11 -336 -23 -607 -55 -742
-89 -59 -14 -74 -15 -76 -4 -6 23 -52 26 -226 14 -488 -34 -609 -43 -816 -61
-251 -22 -392 -36 -525 -50 -49 -5 -153 -16 -230 -25 -77 -8 -214 -22 -305
-30 -91 -8 -250 -24 -355 -35 -231 -25 -675 -66 -805 -75 -52 -3 -239 -18
-415 -32 -552 -45 -1015 -34 -1153 27 -49 22 -111 20 -131 -3 -30 -37 -119
-697 -141 -1042 -5 -88 -15 -236 -21 -330 -5 -93 -15 -219 -20 -280 -6 -60
-14 -306 -20 -545 -5 -239 -12 -508 -15 -596 l-7 -161 -86 3 c-47 2 -502 6
-1011 9 -961 5 -1201 9 -1755 25 -181 5 -500 13 -707 17 l-378 6 5 186 c3 102
7 344 10 536 3 193 12 442 20 555 8 113 19 273 25 355 44 619 97 1192 156
1675 32 263 49 405 88 740 18 151 52 482 66 640 9 108 18 189 55 543 104 974
155 1710 155 2253 l0 171 43 -8 c66 -14 206 -27 407 -39 194 -11 563 -42 1080
-90 91 -8 353 -31 805 -70 66 -6 163 -15 215 -20 52 -5 163 -14 245 -20 83 -6
231 -17 330 -25 99 -8 302 -19 450 -25 149 -6 311 -15 360 -20 50 -5 216 -17
370 -25 154 -8 359 -20 455 -25 441 -25 833 -40 1150 -45 455 -6 578 -14 875
-55 131 -19 416 -40 443 -34 15 4 37 13 50 20 31 20 30 77 -3 109 -28 29 -47
31 -85 8 -31 -18 -80 -15 -560 32 -80 8 -326 16 -550 20 -407 5 -722 16 -1055
35 -99 6 -304 17 -455 25 -151 9 -381 22 -510 30 -129 8 -343 19 -475 25 -132
6 -323 17 -425 25 -102 8 -252 19 -335 25 -162 11 -551 45 -975 85 -146 14
-346 32 -445 40 -99 8 -198 17 -220 20 -22 3 -166 14 -320 25 -154 11 -365 27
-470 35 -104 8 -235 15 -290 15 l-100 0 -1 408 c-1 388 -6 516 -39 912 -29
345 -36 607 -38 1430 -1 624 1 858 11 926 9 67 9 99 1 123 -13 36 -52 52 -75
29 -36 -36 -54 -421 -54 -1153 0 -712 11 -1062 46 -1474 20 -230 28 -406 33
-711 3 -223 4 -422 2 -443 l-3 -39 -42 5 c-121 16 -304 29 -886 62 -41 3 -187
11 -325 19 -909 54 -1198 61 -2400 61 -897 0 -1447 -11 -1689 -35 -54 -6 -112
-10 -130 -9 l-31 1 28 10 c17 6 29 20 33 36 4 15 15 43 24 62 10 19 39 91 65
160 27 69 68 168 93 220 80 171 143 313 208 470 167 399 185 439 246 524 31
44 36 77 12 100 -16 16 -59 21 -89 10 -36 -14 -230 -447 -311 -693 -18 -55
-23 -59 -57 -36 -20 13 -28 13 -72 -1 -62 -19 -120 -13 -205 21 -78 32 -148
77 -220 142 -103 92 -166 291 -141 441 8 47 9 78 3 84 -5 5 -29 8 -53 6 -39
-3 -46 -7 -62 -38 -15 -29 -17 -49 -12 -120 17 -249 99 -407 272 -523 184
-123 326 -158 438 -108 26 12 49 21 51 21 14 0 -3 -45 -47 -129 -88 -168 -203
-457 -229 -573 -10 -44 -10 -61 -1 -71 9 -12 3 -15 -35 -21 -26 -3 -79 -6
-118 -6 -78 0 -302 -13 -591 -35 -104 -8 -260 -19 -345 -25 -230 -16 -632 -48
-825 -65 -93 -9 -226 -20 -295 -25 -210 -16 -732 -64 -865 -80 -348 -42 -656
-67 -1040 -85 -183 -9 -266 -20 -303 -39 -55 -29 -68 -78 -29 -114 29 -27 42
-27 91 -3 45 24 82 28 331 41 358 19 738 53 1010 90 39 5 144 17 235 25 91 9
210 20 265 25 55 6 350 33 655 60 305 28 598 54 650 59 52 5 124 10 160 10 36
1 151 8 255 16 105 8 258 20 340 26 83 5 206 17 275 24 69 8 231 17 360 20
250 5 496 13 595 20 128 9 1796 13 2095 5 519 -14 1121 -41 1535 -70 77 -5
230 -14 340 -20 110 -6 281 -16 380 -22 99 -6 231 -10 294 -9 l114 1 -7 -263
c-12 -438 -37 -973 -56 -1182 -5 -60 -15 -166 -21 -235 -11 -127 -80 -817 -99
-990 -6 -52 -22 -221 -35 -375 -33 -366 -62 -634 -99 -910 -71 -526 -111 -923
-186 -1825 -45 -554 -61 -875 -67 -1385 l-5 -490 -47 1 c-71 1 -818 23 -976
29 -832 28 -3148 32 -3740 6 -1308 -57 -3290 -62 -3735 -10 -180 22 -287 23
-315 5 -27 -18 -33 -54 -13 -74 7 -7 39 -12 73 -12 33 0 92 -7 132 -15 40 -8
136 -17 215 -20 79 -2 229 -9 333 -14 445 -24 1774 -7 3155 39 504 17 805 20
1953 20 747 1 1361 -1 1365 -3 4 -3 156 -8 337 -13 182 -4 355 -9 385 -9 30
-1 240 -6 465 -10 l410 -8 1 -726 c1 -399 6 -829 13 -956 11 -242 33 -775 51
-1280 17 -476 49 -885 85 -1108 l5 -29 -143 7 c-78 3 -378 12 -667 20 -289 8
-640 19 -780 25 -349 13 -589 19 -1185 30 -280 6 -631 15 -780 20 -148 5 -425
15 -615 20 -535 16 -866 34 -1495 81 -359 26 -497 34 -1195 69 -244 13 -300
16 -580 35 -257 18 -842 20 -889 4 -54 -19 -70 -81 -27 -101 18 -8 50 -8 118
0 121 15 595 8 883 -12 121 -9 328 -20 460 -26 132 -5 272 -12 310 -15 39 -2
115 -7 170 -10 175 -9 422 -25 925 -60 539 -36 970 -57 1530 -75 190 -6 480
-15 645 -20 165 -6 539 -15 830 -20 292 -5 645 -14 785 -20 448 -17 1359 -42
1538 -41 l172 0 0 -55 c0 -31 9 -147 20 -257 11 -111 26 -292 35 -402 18 -240
24 -297 76 -755 23 -195 43 -376 46 -402 6 -53 8 -52 -65 -38 -62 11 -491 57
-657 70 -66 5 -140 12 -165 15 -45 5 -290 21 -765 50 -272 17 -489 34 -520 40
-11 3 -175 18 -365 35 -651 57 -1107 101 -1245 120 -107 15 -326 38 -465 50
-69 6 -179 17 -245 25 -247 29 -313 36 -455 50 -80 8 -251 25 -380 39 -341 36
-504 51 -1130 101 -156 12 -675 36 -820 38 -258 3 -584 24 -795 52 -60 8 -164
22 -230 30 -66 8 -139 18 -162 21 -55 8 -98 -10 -113 -47 -17 -41 0 -59 56
-59 45 0 338 -32 464 -51 151 -23 339 -37 520 -38 101 -1 186 -4 188 -6 2 -2
-2 -37 -9 -77 -9 -54 -12 -237 -11 -693 1 -341 3 -636 5 -655 3 -19 8 -92 12
-162 8 -134 19 -163 53 -142 14 9 16 54 17 385 1 206 7 581 14 834 10 380 15
464 28 484 15 23 17 23 127 17 61 -3 208 -10 326 -16 118 -6 352 -22 520 -35
168 -14 339 -27 380 -31 41 -3 181 -16 310 -30 129 -13 390 -40 580 -59 190
-20 404 -42 475 -50 407 -44 537 -58 690 -76 180 -21 394 -43 585 -59 155 -14
410 -37 545 -50 61 -6 225 -21 365 -35 282 -26 448 -39 710 -56 403 -24 750
-51 1045 -79 382 -36 530 -50 565 -53 34 -2 35 -3 37 -47 2 -25 7 -85 13 -135
27 -244 61 -548 70 -620 107 -872 126 -1127 135 -1850 3 -258 8 -496 11 -527
l5 -58 -28 0 c-15 0 -44 4 -63 10 -69 18 -347 50 -835 95 -148 14 -342 32
-430 40 -150 14 -273 24 -910 75 -484 39 -823 60 -1120 70 -528 18 -599 19
-1215 30 -596 11 -1007 27 -1390 55 -107 8 -289 19 -405 25 -115 5 -302 15
-415 20 -113 6 -338 22 -500 36 -162 13 -347 29 -410 34 -274 23 -632 66 -925
111 -307 47 -411 81 -461 151 -38 54 -71 88 -84 88 -23 0 -50 -41 -50 -75 0
-29 9 -46 48 -87 76 -82 191 -125 447 -167 339 -55 553 -80 1070 -125 165 -15
374 -33 465 -41 154 -14 246 -19 820 -45 124 -6 342 -19 485 -30 434 -32 618
-40 885 -40 140 0 397 -5 570 -10 173 -5 414 -12 535 -15 426 -11 1040 -37
1185 -50 25 -2 137 -11 250 -19 113 -9 252 -20 310 -26 58 -5 204 -17 325 -25
121 -9 263 -20 315 -26 52 -5 268 -25 479 -45 347 -31 481 -45 736 -75 44 -5
123 -11 175 -15 52 -3 104 -7 115 -9 21 -4 21 -8 24 -667 2 -628 -6 -950 -29
-1223 -21 -235 -61 -714 -85 -1010 -13 -165 -31 -376 -39 -470 -9 -93 -20
-251 -26 -350 -15 -247 -37 -515 -61 -735 -28 -263 -31 -283 -109 -665 -21
-106 -78 -319 -112 -421 -21 -63 -20 -94 5 -94 24 0 33 19 96 205 82 240 92
271 101 330 4 28 15 77 23 110 58 221 110 621 152 1155 8 107 22 260 30 340 8
80 24 258 35 395 23 288 35 435 55 660 30 333 56 676 64 845 11 240 13 1280 2
1417 -5 61 -6 123 -3 138 4 25 8 27 41 21 57 -10 359 -43 546 -61 189 -17 594
-56 840 -81 255 -25 331 -28 362 -15 24 10 40 8 98 -13 52 -18 110 -27 225
-35 85 -7 265 -23 400 -37 339 -34 685 -64 747 -64 42 0 55 -4 67 -22 15 -20
16 -21 34 -5 17 15 36 16 177 10 l158 -8 24 -90 c33 -126 115 -286 178 -350
57 -57 115 -80 230 -90 109 -9 243 -25 320 -36 100 -15 571 -114 760 -159 88
-20 221 -52 295 -69 74 -17 223 -54 330 -81 292 -74 593 -149 700 -175 52 -13
158 -39 235 -59 285 -71 542 -125 795 -166 101 -16 553 -79 725 -100 94 -12
202 -26 240 -30 39 -5 104 -14 145 -19 503 -69 909 -81 1490 -45 129 8 316 19
415 24 333 18 562 51 661 95 89 40 98 91 69 385 -8 80 -24 276 -35 435 -11
160 -24 344 -30 410 -49 584 -68 1248 -69 2495 -1 437 -4 854 -6 925 -3 72
-15 400 -25 730 -11 330 -22 629 -25 665 -2 36 -7 128 -10 205 -11 268 -56
1193 -75 1535 -6 102 -17 343 -25 535 -8 193 -19 413 -25 490 -10 134 -19 319
-40 805 -5 124 -12 371 -15 550 -4 179 -10 395 -16 480 -13 228 -20 204 51
196 33 -4 82 -13 108 -21 26 -8 59 -15 73 -15 l26 0 6 -197 c7 -224 26 -466
63 -788 40 -359 53 -479 74 -700 11 -115 24 -248 30 -295 5 -47 14 -128 19
-180 6 -52 17 -147 25 -210 52 -399 66 -517 76 -615 17 -189 29 -462 35 -797
8 -435 23 -908 36 -1163 13 -235 7 -1123 -12 -1720 -12 -391 -7 -819 12 -906
l12 -54 18 43 c32 75 41 216 64 1042 10 364 14 1507 6 1620 -13 160 -30 722
-36 1180 -7 533 -20 708 -81 1170 -48 358 -70 554 -120 1075 -13 143 -31 317
-39 386 -57 489 -98 1053 -90 1249 3 63 12 291 21 505 11 269 14 482 10 685
-21 1023 -25 915 55 1670 31 293 31 300 35 940 4 688 6 818 24 1310 13 337 8
994 -9 1190 -46 525 -59 785 -62 1190 -3 398 9 1987 16 2155 13 278 57 637
150 1200 60 365 70 438 105 745 17 146 37 306 46 355 63 374 180 752 391 1263
114 276 223 553 253 642 10 30 53 154 95 275 42 121 83 243 92 270 28 93 132
354 164 415 11 19 19 38 19 42 0 4 23 54 51 110 27 57 73 157 102 223 43 101
52 132 55 195 2 42 2 87 0 100 -4 25 -5 25 -17 -5z m-2938 -11942 c-7 -2 -19
-2 -25 0 -7 3 -2 5 12 5 14 0 19 -2 13 -5z m580 -23 c435 -15 407 -4 407 -167
0 -110 -12 -245 -46 -518 -13 -112 -24 -438 -39 -1255 -3 -168 -10 -447 -15
-620 -12 -365 -14 -730 -4 -880 6 -95 5 -103 -9 -85 -14 18 -35 21 -259 32
-133 6 -335 19 -448 27 -113 9 -338 17 -500 18 -451 4 -2343 -9 -2361 -16 -8
-4 -46 5 -83 19 -352 133 -1156 219 -1434 154 -210 -49 -485 -48 -826 1 -417
60 -612 76 -971 80 -82 0 -179 5 -215 10 -40 6 -81 5 -105 0 -22 -5 -62 -10
-89 -10 l-48 0 6 63 c18 177 25 336 31 672 3 204 15 489 25 635 11 146 27 373
35 505 9 132 29 341 46 465 31 233 74 488 84 498 3 3 27 0 53 -7 115 -33 146
-35 472 -35 240 0 388 5 520 18 102 9 293 26 425 36 296 24 406 34 705 66 441
47 505 54 920 93 527 51 932 86 1225 106 127 9 237 18 246 21 11 3 18 -3 22
-16 7 -28 39 -27 364 19 367 53 519 66 540 49 11 -9 90 -15 287 -20 292 -8
460 -21 498 -38 13 -6 29 -24 36 -40 37 -82 120 -21 92 67 -7 21 -20 47 -29
57 -16 18 -14 19 72 12 48 -3 215 -11 370 -16z m-10313 -3261 c772 -21 1247
-27 2175 -25 733 1 945 4 962 14 l22 12 0 -212 c0 -295 17 -768 36 -983 8 -99
33 -288 55 -420 40 -243 93 -643 105 -790 8 -105 31 -312 55 -510 11 -88 26
-306 35 -485 8 -179 24 -421 35 -539 11 -118 18 -216 16 -218 -2 -2 -70 1
-152 7 -82 6 -234 14 -337 18 l-189 7 0 140 c0 218 -46 401 -177 709 -99 229
-139 348 -153 451 -17 126 -25 150 -53 163 -38 17 -63 15 -75 -7 -41 -78 58
-422 200 -691 79 -150 182 -513 208 -734 l4 -38 -148 6 c-82 3 -295 8 -474 11
-179 3 -453 10 -610 15 -410 13 -879 22 -1575 29 l-610 6 -2 90 c-1 50 -10
189 -22 310 -24 268 -36 482 -61 1175 -11 294 -25 634 -31 755 -5 121 -12 566
-15 988 l-5 768 193 -5 c106 -4 371 -11 588 -17z m3346 -24 c27 -8 72 -13 99
-12 28 1 122 -4 210 -11 88 -7 221 -12 297 -12 136 0 517 -36 681 -64 223 -39
367 -49 607 -43 172 5 251 11 295 23 42 11 110 17 228 19 108 2 172 7 181 14
17 14 224 -1 331 -24 39 -9 114 -24 167 -35 249 -50 360 -77 443 -106 143 -52
168 -57 190 -43 16 10 204 14 930 19 1492 8 1683 7 1985 -17 146 -12 336 -25
422 -28 l157 -7 25 26 26 25 0 -127 c0 -400 27 -1349 50 -1732 11 -191 33
-622 55 -1065 8 -170 20 -389 25 -485 5 -96 12 -231 15 -300 3 -69 12 -233 20
-365 8 -132 17 -316 20 -410 3 -93 8 -190 10 -215 8 -81 40 -984 55 -1540 5
-190 9 -667 9 -1060 1 -1086 19 -1775 61 -2310 6 -74 22 -299 35 -500 14 -201
30 -426 36 -500 12 -159 8 -193 -26 -208 -13 -6 -86 -18 -162 -27 -76 -8 -163
-20 -193 -25 -30 -5 -100 -11 -155 -15 -55 -3 -230 -15 -390 -26 -533 -37
-1065 -37 -1345 1 -36 5 -105 13 -155 19 -49 6 -180 23 -290 37 -110 14 -234
29 -275 34 -41 5 -120 16 -175 25 -55 8 -136 20 -180 25 -119 16 -564 89 -605
100 -19 5 -78 19 -130 30 -186 42 -680 164 -1360 336 -157 40 -269 67 -510
124 -559 132 -846 186 -1100 205 -115 9 -158 29 -210 100 -39 53 -140 276
-140 309 0 19 14 19 130 6 47 -5 201 -14 343 -20 142 -5 311 -14 375 -20 64
-5 191 -14 282 -20 208 -14 584 -46 714 -61 98 -11 100 -11 118 11 24 29 23
67 -1 80 -11 5 -46 10 -78 10 -32 0 -132 7 -223 15 -91 8 -255 22 -365 30
-110 9 -207 18 -215 20 -8 2 -107 7 -220 10 -112 4 -208 9 -212 11 -5 3 13 22
39 43 27 21 62 54 79 72 61 68 205 251 270 344 36 52 70 95 74 95 5 0 31 -23
57 -51 57 -61 140 -119 228 -161 123 -57 280 -45 280 22 0 23 -5 26 -51 31
-70 9 -148 35 -220 75 -72 40 -224 160 -224 177 0 14 196 235 290 326 79 77
186 154 246 177 39 15 53 16 114 5 89 -16 112 -6 108 47 -4 47 -48 78 -122 87
-65 8 -122 -6 -203 -51 -120 -67 -376 -320 -460 -456 -20 -32 -39 -58 -42 -58
-9 0 -70 111 -108 198 -18 40 -58 158 -88 263 -73 251 -118 319 -211 319 -45
0 -74 -24 -74 -61 0 -28 49 -79 76 -79 31 0 53 -43 94 -190 67 -236 122 -368
199 -470 23 -30 40 -59 37 -65 -2 -6 -32 -48 -67 -95 -35 -47 -108 -145 -162
-218 -54 -72 -130 -163 -168 -201 -70 -71 -79 -87 -57 -109 15 -15 -15 -16
-132 -2 -47 6 -173 13 -280 16 -107 3 -196 7 -198 9 -2 1 -7 31 -12 66 -5 35
-17 116 -27 179 -14 94 -17 178 -17 455 0 390 6 453 100 1020 29 182 60 382
68 445 22 168 46 487 46 604 0 57 3 105 6 108 3 3 31 0 62 -7 98 -23 841 -134
1202 -180 628 -79 753 -94 1395 -160 77 -8 156 -17 175 -20 38 -5 258 -27 515
-50 145 -13 161 -16 176 -37 16 -20 19 -21 44 -8 22 12 41 12 118 2 137 -18
227 -29 492 -57 132 -14 276 -30 320 -35 44 -6 127 -15 185 -20 200 -18 415
-40 495 -50 44 -6 143 -17 220 -25 77 -8 174 -19 215 -25 253 -33 311 -40 360
-46 109 -12 238 -35 368 -66 138 -34 163 -33 170 6 9 42 -7 64 -61 84 -122 46
-504 101 -1152 167 -123 13 -392 41 -695 74 -52 6 -162 18 -245 26 -82 9 -208
23 -280 31 -71 8 -195 20 -275 25 -80 6 -148 14 -153 18 -4 4 11 63 32 132 22
68 67 239 101 379 95 392 143 551 199 655 26 49 46 97 43 105 -8 25 -44 60
-62 60 -9 0 -24 -8 -33 -18 -23 -25 -90 -173 -119 -262 -29 -87 -119 -464
-224 -937 -7 -35 -19 -72 -26 -84 -14 -22 -34 -23 -163 0 -33 6 -103 15 -155
20 -552 58 -730 78 -1077 116 -528 59 -848 100 -1483 189 -289 41 -558 77
-599 80 -41 4 -77 9 -80 12 -3 3 -5 29 -3 57 9 189 -40 1376 -68 1632 -21 198
-66 852 -59 860 3 2 36 -2 74 -10 39 -9 228 -24 420 -35 193 -11 418 -24 500
-30 83 -5 236 -15 340 -20 272 -15 724 -54 1227 -106 515 -53 815 -76 851 -66
16 4 46 6 67 4 34 -3 41 -8 50 -36 5 -17 11 -49 13 -71 l2 -40 -75 3 c-157 6
-381 -33 -431 -75 -33 -29 -38 -67 -11 -99 28 -34 48 -35 126 -4 73 29 291 70
375 70 l36 0 1 -122 c1 -278 8 -494 15 -509 11 -21 54 -32 78 -20 42 23 45 58
32 315 -7 132 -15 262 -18 289 -5 46 -5 47 24 47 15 0 44 -5 63 -10 19 -6 96
-19 170 -30 229 -33 331 -50 435 -69 55 -11 141 -27 191 -37 101 -19 127 -15
122 17 -12 79 -498 201 -897 225 -131 8 -136 12 -125 100 6 51 8 55 28 50 97
-28 139 -35 243 -41 65 -3 145 -10 178 -15 67 -11 258 -23 380 -24 44 -1 88
-5 97 -10 10 -4 39 -6 65 -4 27 3 79 1 117 -4 39 -4 84 -4 102 1 17 5 52 5 75
1 24 -5 123 -11 219 -14 270 -10 469 -32 502 -56 22 -16 43 -20 106 -20 85 0
102 8 102 50 0 41 -22 64 -61 62 -39 -1 -262 13 -534 33 -104 8 -210 14 -235
14 -49 -2 -681 34 -925 52 -82 6 -220 13 -305 15 l-155 3 -25 48 c-48 92 -112
97 -118 9 -3 -39 -6 -46 -20 -42 -36 11 -165 27 -377 46 -256 23 -383 35 -515
50 -118 12 -458 45 -690 65 -367 33 -1464 103 -1732 112 l-187 6 -5 51 c-17
175 -38 502 -46 723 -11 286 -12 296 -46 573 -13 107 -30 272 -39 365 -26 281
-54 505 -100 800 -74 467 -75 478 -85 940 -5 237 -12 487 -15 557 -6 120 -4
148 14 148 4 0 30 -7 57 -15z m-2236 -4166 c300 -5 579 -11 620 -14 41 -2 309
-7 595 -10 286 -3 631 -10 768 -16 136 -5 283 -6 327 -3 93 8 85 19 94 -141
19 -334 30 -471 56 -735 35 -361 89 -1633 70 -1654 -5 -5 -45 -2 -97 8 -85 16
-431 68 -583 87 -41 5 -78 11 -83 12 -4 1 -10 65 -12 142 -6 173 -33 376 -85
645 -22 112 -40 226 -40 252 0 90 -57 157 -109 128 -32 -17 -27 -97 18 -322
74 -359 91 -457 106 -605 9 -82 18 -165 22 -185 6 -43 3 -44 -62 -27 -142 36
-1178 241 -1685 333 -47 9 -182 34 -300 55 -326 60 -768 120 -1045 142 -71 5
-131 12 -134 14 -2 3 -3 42 -2 87 2 82 -10 210 -48 548 -26 221 -44 416 -76
795 -14 165 -32 333 -40 374 -8 40 -15 82 -15 93 0 19 11 19 598 13 328 -3
842 -10 1142 -16z m-1255 -2029 c94 -11 208 -25 255 -31 47 -5 110 -14 140
-19 30 -5 102 -17 160 -25 58 -9 128 -20 155 -26 173 -33 380 -69 440 -78 133
-19 742 -136 1290 -247 113 -23 335 -65 405 -76 91 -14 97 -19 105 -83 14
-108 55 -114 55 -8 0 54 3 64 15 59 8 -3 117 -21 243 -40 207 -32 295 -44 466
-62 l59 -6 -7 -116 c-22 -385 -48 -629 -103 -957 -24 -148 -51 -310 -59 -360
-17 -101 -26 -195 -50 -500 -24 -309 -6 -678 42 -875 9 -39 14 -73 11 -76 -3
-3 -92 1 -199 10 -106 9 -254 21 -328 27 -159 12 -642 55 -785 69 -264 26
-636 62 -880 85 -382 36 -664 63 -775 75 -162 17 -438 41 -582 50 -75 5 -145
13 -155 19 -16 10 -17 10 -1 11 33 0 38 35 38 247 -1 547 -29 1185 -70 1572
-28 264 -52 471 -70 611 -23 184 -35 285 -55 480 -8 80 -22 173 -31 208 -9 34
-13 70 -10 79 7 18 6 18 281 -17z"/>
<path d="M15905 18759 c-88 -4 -198 -13 -245 -18 -122 -14 -305 -59 -335 -82
-44 -36 -27 -119 25 -119 11 0 54 11 98 25 181 57 333 72 845 82 223 4 399 2
547 -7 228 -13 264 -11 274 17 14 37 -69 74 -209 94 -103 14 -791 20 -1000 8z"/>
<path d="M15492 18368 c-28 -36 -21 -90 15 -111 19 -11 67 -98 130 -236 29
-64 69 -141 88 -173 19 -31 35 -58 35 -61 0 -3 -42 -21 -92 -41 -120 -46 -244
-121 -363 -220 -159 -132 -208 -212 -153 -250 46 -33 85 -16 150 65 75 92 198
184 348 259 46 23 100 53 121 67 44 29 54 25 75 -25 24 -59 137 -222 204 -295
107 -116 226 -196 360 -241 110 -37 149 -41 188 -17 27 18 32 26 32 60 0 22
-6 43 -12 48 -7 4 -44 8 -83 8 -64 0 -77 4 -160 48 -115 62 -184 115 -255 198
-70 81 -200 262 -200 278 0 6 8 14 18 18 64 22 652 288 766 346 159 83 179
103 132 144 -32 28 -45 26 -126 -21 -83 -48 -251 -124 -485 -221 -115 -47
-241 -102 -278 -121 -38 -19 -74 -34 -81 -34 -7 0 -61 104 -122 232 -119 253
-157 308 -211 308 -17 0 -35 -6 -41 -12z"/>
<path d="M18884 18362 c-32 -26 -78 -99 -112 -177 -84 -195 -167 -413 -197
-518 -17 -58 -17 -58 -48 -52 -55 12 -189 80 -252 128 -33 25 -130 121 -215
213 -155 168 -268 268 -330 294 -28 12 -36 11 -59 -1 -23 -13 -26 -21 -26 -64
l0 -50 65 -34 c53 -27 102 -71 275 -246 265 -269 321 -309 474 -335 29 -5 56
-12 59 -15 3 -2 -7 -33 -21 -67 -14 -35 -45 -115 -68 -178 -51 -141 -108 -266
-148 -326 -35 -51 -36 -57 -17 -73 20 -17 87 18 119 61 48 67 139 283 204 487
24 74 31 85 59 97 21 9 36 24 43 45 10 28 8 35 -9 54 l-21 22 74 164 c40 90
80 180 87 199 37 97 106 217 146 257 49 47 54 68 23 107 -24 31 -73 35 -105 8z"/>
<path d="M20145 18316 c-95 -19 -125 -43 -125 -100 0 -53 70 -71 151 -39 38
16 80 18 309 18 263 -1 356 -9 467 -41 165 -46 75 -165 -259 -344 -288 -154
-425 -249 -442 -307 -9 -29 20 -58 76 -75 91 -27 414 -11 523 27 112 38 141
67 116 121 -12 28 -34 30 -84 9 -79 -33 -415 -65 -427 -40 -3 6 82 54 188 107
348 175 459 269 502 426 36 135 -98 213 -415 242 -148 13 -505 11 -580 -4z"/>
<path d="M19495 18124 c-49 -53 -22 -110 57 -120 36 -5 54 -2 73 10 45 30 29
97 -30 122 -49 20 -73 17 -100 -12z"/>
<path d="M17182 17867 c-21 -10 -23 -15 -17 -61 8 -58 19 -76 48 -76 24 0 87
64 87 89 0 25 -42 61 -71 60 -13 0 -34 -5 -47 -12z"/>
<path d="M17234 17306 c-8 -21 13 -46 32 -39 20 8 13 47 -9 51 -9 2 -20 -4
-23 -12z"/>
<path d="M14180 16203 c-81 -7 -151 -28 -245 -73 -55 -26 -140 -67 -190 -90
-227 -105 -411 -278 -494 -465 -47 -103 -45 -248 3 -344 31 -60 124 -148 207
-194 241 -135 593 -158 924 -63 260 76 418 201 492 393 21 55 27 91 31 184 4
110 3 121 -26 207 -17 49 -43 114 -58 143 -34 68 -122 160 -194 204 -76 46
-199 85 -290 91 -41 3 -86 6 -100 7 -14 2 -41 2 -60 0z m329 -134 c158 -74
213 -134 265 -287 40 -118 51 -214 32 -295 -51 -219 -187 -336 -481 -413 -448
-117 -963 24 -1001 273 -12 84 54 243 156 372 119 150 435 310 671 339 136 17
164 1 130 -79 -25 -61 -26 -87 -5 -117 37 -54 80 -12 110 108 23 94 21 121
-10 143 -28 19 57 -9 133 -44z"/>
<path d="M18886 16308 c-13 -20 -13 -30 -1 -76 10 -39 14 -107 12 -250 l-3
-196 -25 -7 c-13 -4 -51 -7 -85 -8 -104 -2 -434 -70 -499 -103 -58 -30 -73
-80 -34 -119 26 -26 62 -23 181 19 71 25 274 68 427 90 l34 4 -7 -93 c-5 -62
-2 -142 8 -234 32 -284 34 -311 31 -360 -1 -27 -5 -66 -9 -87 -7 -30 -4 -40
14 -58 29 -29 80 -24 97 10 15 30 17 222 3 325 -15 107 -42 496 -36 503 7 6
112 15 536 42 389 24 414 27 442 50 l22 18 -36 36 -36 36 -129 -5 c-451 -19
-599 -27 -685 -37 -54 -7 -100 -9 -104 -6 -3 4 0 54 6 113 15 119 8 320 -10
357 -29 56 -89 75 -114 36z"/>
<path d="M16184 14004 c-23 -35 -9 -73 36 -99 40 -23 270 -252 270 -269 0 -6
-14 -18 -32 -25 -38 -17 -233 -145 -265 -174 -29 -26 -29 -66 -2 -101 31 -39
61 -33 137 27 113 90 240 177 258 177 7 0 45 -34 85 -76 165 -169 445 -352
705 -460 86 -35 87 -36 107 -16 33 33 12 70 -59 106 -162 83 -308 165 -394
222 -122 80 -332 252 -327 267 4 13 311 112 490 158 160 41 244 98 170 115
-16 3 -35 8 -44 10 -53 14 -481 -85 -634 -147 -38 -16 -77 -29 -86 -29 -9 0
-58 49 -107 109 -166 198 -203 231 -259 231 -24 0 -37 -7 -49 -26z"/>
<path d="M20978 13974 c-53 -28 -47 -99 12 -129 27 -14 33 -14 61 0 26 14 46
15 142 6 114 -11 414 -26 722 -36 156 -6 174 -8 214 -31 70 -39 117 -31 153
26 21 32 9 63 -29 78 -44 18 -459 52 -756 62 -175 6 -293 15 -332 25 -77 18
-152 18 -187 -1z"/>
<path d="M18550 13717 c-29 -15 -37 -55 -20 -98 15 -34 14 -34 193 -49 227
-18 864 -124 940 -157 85 -37 82 -38 -553 -264 -137 -49 -304 -130 -354 -171
-51 -42 -49 -77 7 -133 38 -38 50 -44 117 -55 91 -15 389 -8 650 15 169 15
212 22 275 43 17 6 44 14 60 19 22 6 31 15 33 35 3 22 -2 29 -21 33 -14 4
-139 0 -279 -9 -335 -21 -682 -25 -699 -8 -9 8 -10 15 -3 22 5 5 140 54 299
109 447 153 540 194 601 265 47 54 46 93 -3 147 -44 48 -75 62 -218 99 -151
38 -707 136 -880 155 -33 3 -73 8 -90 11 -16 2 -41 -1 -55 -9z"/>
<path d="M21042 13545 c-32 -23 -29 -92 6 -193 56 -157 167 -306 332 -443 122
-102 177 -126 238 -105 32 11 29 -15 -13 -101 -19 -40 -35 -77 -35 -83 0 -5
-20 -61 -44 -122 -83 -214 -104 -273 -137 -383 -17 -60 -42 -126 -54 -145 -46
-74 -54 -140 -19 -154 46 -17 93 48 138 190 50 158 87 261 154 424 30 74 74
182 97 240 106 261 202 459 265 548 44 61 48 81 24 117 -24 37 -67 34 -97 -7
-45 -60 -135 -231 -177 -338 -23 -57 -44 -108 -46 -112 -2 -4 -17 -1 -32 6
-15 7 -49 24 -77 37 -63 30 -274 237 -336 329 -52 78 -88 163 -89 208 0 35
-25 92 -39 92 -5 0 -15 2 -23 5 -7 3 -23 -2 -36 -10z"/>
<path d="M17970 13512 c-29 -14 -36 -23 -38 -53 -7 -78 66 -115 127 -63 38 31
41 71 9 101 -34 31 -59 35 -98 15z"/>
<path d="M20520 13167 c-35 -18 -41 -96 -9 -128 41 -41 119 -1 119 61 0 56
-60 93 -110 67z"/>
<path d="M16010 11479 c-15 -27 -4 -75 31 -129 16 -25 55 -106 87 -180 72
-165 170 -359 211 -420 34 -49 38 -75 17 -105 -7 -11 -48 -82 -90 -158 -136
-246 -230 -371 -297 -396 -76 -29 -79 -31 -79 -54 0 -35 19 -47 76 -47 45 0
59 5 101 38 62 49 159 187 268 379 48 83 92 159 99 168 10 14 20 5 76 -66 106
-134 285 -270 402 -304 65 -19 98 -9 98 28 0 33 -11 44 -65 68 -101 43 -213
129 -336 256 -66 69 -118 131 -116 138 3 6 61 97 130 201 141 214 197 274 277
298 65 20 90 41 90 77 0 55 -83 68 -167 26 -96 -49 -248 -237 -342 -425 -25
-50 -46 -80 -53 -76 -20 12 -250 521 -263 581 -10 48 -80 123 -115 123 -19 0
-33 -7 -40 -21z"/>
<path d="M18197 11158 c-24 -19 -37 -63 -28 -95 29 -95 92 -225 166 -343 85
-136 313 -365 505 -507 139 -103 263 -133 316 -76 37 40 28 55 -41 69 -33 6
-69 15 -80 19 -117 48 -470 367 -570 516 -69 103 -153 271 -161 326 -10 70
-68 120 -107 91z"/>
<path d="M20620 10862 c-65 -65 -25 -112 97 -112 230 -1 500 -71 834 -216 66
-29 98 -37 149 -38 l65 -1 0 30 c0 28 -7 33 -95 77 -360 178 -639 264 -917
283 l-102 8 -31 -31z"/>
<path d="M17612 10754 c-17 -8 -42 -58 -42 -87 0 -33 18 -47 63 -47 50 0 71
12 87 50 11 28 11 34 -7 58 -20 26 -69 39 -101 26z"/>
<path d="M20620 10644 c-92 -14 -134 -48 -128 -102 5 -40 41 -48 137 -33 143
23 339 -16 884 -177 55 -16 106 -37 115 -46 14 -14 11 -17 -39 -39 -30 -14
-70 -28 -89 -32 -114 -24 -479 -154 -578 -204 -92 -47 -149 -125 -136 -184 9
-42 95 -125 170 -165 124 -65 435 -151 616 -171 116 -13 213 22 206 73 -3 18
-13 22 -83 29 -147 14 -289 38 -395 69 -58 16 -109 33 -115 38 -5 4 -28 13
-50 20 -102 33 -225 112 -225 147 0 27 218 116 491 198 178 54 278 99 333 149
36 34 38 39 33 79 -4 29 -14 50 -35 68 -58 52 -705 248 -917 279 -69 9 -145
11 -195 4z"/>
<path d="M20029 10399 c-29 -11 -49 -46 -49 -85 0 -18 9 -29 35 -41 30 -14 40
-15 77 -4 56 17 68 28 68 61 0 58 -67 94 -131 69z"/>
<path d="M18896 9368 c-11 -19 -12 -53 -5 -197 5 -96 7 -176 4 -179 -3 -3 -47
2 -98 11 -106 19 -371 41 -436 35 -34 -2 -49 -9 -64 -30 -18 -24 -18 -30 -7
-58 20 -49 53 -60 187 -60 213 -1 416 -17 429 -34 6 -9 14 -46 17 -83 6 -59
22 -129 68 -301 10 -38 48 -82 70 -82 4 0 15 7 24 17 22 22 17 81 -24 251 -28
123 -38 192 -26 192 2 0 46 -9 97 -19 51 -11 181 -36 288 -56 107 -20 274 -52
370 -71 192 -37 257 -42 266 -20 8 20 -10 50 -38 63 -79 39 -764 197 -906 210
-37 3 -74 9 -82 14 -12 6 -15 37 -15 183 l0 175 -29 30 c-35 37 -70 40 -90 9z"/>
<path d="M18302 8214 c-29 -20 -28 -55 2 -107 13 -23 41 -87 61 -142 80 -218
214 -440 361 -603 177 -196 323 -270 477 -242 45 8 72 9 79 2 6 -6 -6 -43 -37
-108 -26 -55 -74 -159 -106 -233 -32 -74 -68 -144 -80 -157 -22 -24 -23 -24
-43 -5 -40 38 -88 45 -926 146 -413 49 -438 51 -457 32 -13 -13 -15 -23 -7
-44 13 -39 53 -49 274 -68 102 -9 214 -21 250 -26 171 -25 675 -85 793 -94 42
-4 77 -10 77 -14 0 -4 -11 -22 -25 -41 -30 -40 -32 -71 -7 -93 41 -37 80 -17
121 63 34 66 22 65 266 21 94 -17 213 -38 265 -47 386 -66 1063 -197 1330
-259 85 -19 216 -51 290 -70 74 -19 203 -51 285 -71 83 -19 213 -50 290 -69
250 -61 389 -93 460 -109 39 -8 133 -29 210 -45 168 -37 200 -39 215 -10 7 11
9 27 6 34 -6 18 -70 50 -116 60 -19 3 -82 17 -140 30 -58 13 -132 28 -165 35
-111 22 -498 111 -745 171 -135 33 -317 78 -405 99 -209 51 -300 71 -595 131
-377 76 -436 87 -560 109 -222 38 -345 60 -360 65 -44 13 -311 45 -375 45 -70
0 -75 2 -75 21 0 12 12 44 26 73 14 28 53 112 86 186 126 284 160 356 183 386
13 17 28 49 34 71 16 58 112 260 176 368 49 83 101 141 169 188 65 45 -2 139
-73 102 -40 -20 -145 -137 -199 -220 -47 -72 -131 -249 -197 -415 -55 -136
-53 -135 -183 -135 -100 0 -112 2 -174 32 -48 22 -94 57 -159 120 -185 177
-313 389 -410 676 -39 115 -61 152 -101 166 -39 14 -39 14 -66 -5z"/>
<path d="M17300 7850 c-25 -25 -28 -101 -4 -124 24 -25 77 -20 103 8 30 32 22
86 -16 116 -32 25 -58 25 -83 0z"/>
<path d="M20925 7823 c-34 -9 -45 -24 -45 -64 0 -56 18 -68 98 -67 81 1 201
-30 409 -105 171 -63 233 -92 233 -111 0 -20 -54 -91 -92 -119 -52 -40 -152
-98 -293 -172 -250 -130 -353 -187 -374 -206 -23 -22 -28 -68 -10 -101 30 -55
224 -95 871 -179 87 -11 99 -11 123 5 31 21 39 38 31 70 -8 33 -43 44 -176 56
-63 6 -173 19 -245 30 -130 19 -214 31 -354 49 -126 17 -121 38 24 95 103 42
366 181 440 234 147 105 206 214 161 301 -31 58 -150 117 -451 220 -142 49
-195 63 -255 66 -41 2 -84 1 -95 -2z"/>
<path d="M20115 7533 c-16 -9 -34 -21 -38 -27 -11 -15 -2 -83 13 -101 25 -30
102 -9 134 37 50 71 -26 135 -109 91z"/>
<path d="M14740 8800 c-26 -26 -26 -97 0 -223 86 -421 114 -649 155 -1277 14
-214 19 -250 36 -250 5 0 13 8 16 18 4 9 15 28 25 41 16 21 18 46 18 245 0
362 -20 588 -86 991 -19 116 -39 253 -45 304 -11 101 -27 144 -58 161 -28 14
-38 13 -61 -10z"/>
<path d="M9097 30878 c-9 -7 -21 -26 -27 -43 -14 -37 -52 -227 -80 -405 -26
-162 -84 -440 -111 -530 -44 -148 -62 -313 -37 -338 20 -20 65 -14 98 14 l31
26 56 -17 c104 -33 260 -6 422 72 159 76 247 180 258 303 7 71 -9 121 -54 171
-59 65 -95 81 -174 81 -60 -1 -79 -6 -140 -38 -121 -64 -213 -161 -333 -353
-19 -30 -31 -40 -38 -33 -11 11 -3 50 42 207 23 80 104 459 177 828 10 51 -48
86 -90 55z m448 -802 c30 -30 48 -95 39 -141 -9 -48 -52 -110 -98 -141 -101
-69 -280 -124 -401 -124 -93 0 -91 11 30 166 141 180 255 264 357 264 38 0 54
-5 73 -24z"/>
<path d="M3356 30779 c-14 -11 -26 -31 -26 -43 0 -36 -29 -54 -115 -71 -44 -9
-82 -18 -86 -20 -3 -2 -68 -20 -144 -40 -170 -45 -349 -103 -435 -142 -115
-53 -175 -147 -118 -187 36 -25 67 -19 115 23 27 24 76 52 126 71 102 39 400
136 447 146 19 3 59 17 89 30 29 13 62 24 73 24 23 0 23 3 -5 -155 -31 -175
-51 -812 -36 -1150 4 -99 5 -199 2 -221 -4 -36 -9 -43 -34 -48 -40 -8 -48 -45
-19 -86 44 -61 108 -49 143 28 22 46 22 54 19 432 -1 212 2 473 8 580 36 643
34 619 55 639 43 43 440 78 674 60 145 -11 167 -8 183 27 16 34 -3 51 -78 72
-87 24 -510 23 -644 -2 -90 -16 -96 -16 -105 0 -14 25 -44 54 -54 54 -4 0 -20
-9 -35 -21z"/>
<path d="M22439 30718 c-28 -30 -59 -96 -59 -129 0 -32 35 -79 59 -79 23 0 43
23 75 87 30 60 32 89 10 121 -20 28 -57 28 -85 0z"/>
<path d="M5633 30715 c-27 -12 -32 -21 -37 -57 -2 -24 -12 -115 -21 -203 -10
-88 -21 -191 -25 -230 -5 -38 -14 -140 -21 -225 l-13 -155 -58 -62 c-32 -34
-58 -68 -58 -76 0 -7 7 -23 16 -36 13 -17 23 -22 46 -19 29 5 29 4 23 -36 -3
-23 -11 -63 -17 -91 -18 -80 -16 -181 4 -201 20 -20 63 -12 72 13 4 10 13 76
21 148 8 71 19 166 25 210 l11 80 77 74 c227 218 278 269 341 344 121 145 373
387 404 387 26 0 -4 -179 -83 -495 -69 -275 -83 -349 -84 -434 0 -57 3 -66 28
-87 18 -16 40 -24 65 -24 31 0 46 8 92 53 30 28 90 94 132 145 43 50 82 92 88
92 17 0 6 -84 -26 -190 -37 -124 -43 -195 -19 -221 22 -25 65 -24 93 2 18 17
21 27 16 62 -4 27 0 64 11 102 29 104 63 278 64 326 0 88 -62 103 -144 35 -67
-55 -129 -117 -186 -186 -87 -105 -100 -111 -100 -47 0 42 15 108 65 292 61
223 76 285 95 394 23 129 26 254 7 291 -17 34 -61 37 -109 8 -146 -89 -207
-146 -627 -587 -84 -88 -159 -161 -167 -161 -15 0 -12 44 12 160 25 124 69
580 57 598 -13 22 -31 24 -70 7z"/>
<path d="M14387 30670 c-68 -54 -238 -361 -330 -595 -109 -280 -136 -351 -153
-417 -17 -64 -17 -68 1 -108 10 -23 26 -45 36 -51 32 -17 79 -10 104 15 29 29
24 53 -12 67 -31 12 -30 18 43 209 164 427 282 667 386 788 37 43 38 89 2 102
-36 14 -48 13 -77 -10z"/>
<path d="M10060 30569 c-13 -6 -28 -15 -32 -22 -17 -27 -60 -190 -82 -312 -29
-160 -82 -310 -181 -510 -52 -104 -96 -202 -99 -216 -7 -34 26 -79 58 -79 28
0 56 29 56 59 0 31 35 125 58 158 26 37 124 232 155 310 14 35 42 129 61 210
20 82 45 182 55 223 31 118 32 129 20 153 -20 37 -30 41 -69 26z"/>
<path d="M7949 30522 c-29 -26 -32 -34 -49 -168 -11 -77 -24 -209 -30 -294 -6
-84 -13 -157 -16 -162 -3 -4 -22 -17 -42 -27 -78 -40 -115 -106 -82 -146 17
-21 43 -19 74 6 l26 20 0 -23 c0 -13 -6 -57 -14 -98 -7 -41 -17 -123 -20 -181
-6 -98 -5 -108 15 -132 25 -33 43 -34 73 -4 21 21 23 34 29 172 11 252 31 362
71 388 32 21 99 38 109 28 5 -5 -1 -28 -13 -52 -57 -111 -77 -240 -45 -283 67
-88 200 -71 329 42 33 29 62 52 66 52 5 0 39 38 76 85 38 47 75 85 83 85 11 0
12 -20 7 -102 -3 -57 -8 -122 -12 -146 -5 -33 -2 -47 11 -62 25 -28 69 -34 99
-15 46 30 77 158 41 171 -12 5 -15 29 -15 125 0 123 -11 170 -43 198 -27 22
-59 6 -132 -70 -109 -111 -286 -268 -333 -296 -78 -46 -90 4 -34 147 49 124
105 195 184 230 222 99 247 116 233 160 -9 29 -42 43 -84 35 -44 -8 -169 -66
-225 -104 -47 -32 -272 -141 -292 -141 -7 0 -15 3 -17 8 -3 4 11 111 30 237
47 311 47 313 33 330 -19 23 -57 18 -91 -13z"/>
<path d="M22652 30526 c-79 -26 -100 -61 -61 -102 l21 -22 -22 -93 c-12 -50
-32 -121 -46 -157 -33 -87 -32 -141 3 -182 23 -28 31 -31 62 -27 118 16 216
86 264 188 74 157 49 331 -54 381 -50 25 -116 30 -167 14z m134 -131 c23 -23
25 -30 18 -83 -10 -88 -42 -162 -89 -209 -43 -44 -75 -55 -75 -27 0 9 14 50
32 92 25 62 32 94 34 162 2 47 4 86 4 88 0 1 11 2 25 2 14 0 37 -11 51 -25z"/>
<path d="M21759 30481 c-57 -30 -221 -200 -241 -250 -6 -14 -12 -85 -13 -156
-2 -136 -15 -185 -50 -199 -26 -9 -116 -7 -157 4 -84 24 -138 101 -138 199 0
78 6 91 41 91 41 0 129 20 164 37 61 31 135 122 135 167 0 8 -14 26 -32 41
-27 23 -38 26 -74 20 -94 -14 -224 -79 -263 -133 l-19 -26 -92 43 c-81 38 -99
42 -138 37 -70 -10 -126 -43 -206 -125 -146 -151 -191 -257 -131 -316 13 -14
29 -25 35 -25 6 0 31 19 55 41 40 37 45 47 45 84 0 50 28 93 113 173 64 59 81
63 160 31 29 -11 61 -24 73 -29 19 -7 20 -14 16 -98 -4 -80 -2 -96 20 -144 29
-61 83 -120 137 -147 54 -28 154 -44 225 -36 165 19 211 84 208 299 -1 76 3
117 13 136 8 15 62 75 120 134 60 61 105 115 105 126 0 17 -34 50 -51 50 -3 0
-30 -13 -60 -29z m-439 -186 c-7 -8 -21 -15 -32 -15 -17 0 -18 3 -8 15 7 8 21
15 32 15 17 0 18 -3 8 -15z"/>
<path d="M16471 30467 c-62 -31 -89 -122 -51 -169 16 -21 30 -28 55 -28 38 0
47 11 71 88 19 65 18 88 -8 106 -27 19 -36 19 -67 3z"/>
<path d="M22260 30470 c-73 -9 -195 -67 -246 -117 -23 -22 -58 -73 -78 -113
-47 -96 -48 -139 -1 -236 19 -40 35 -79 35 -88 0 -20 -50 -46 -89 -46 -24 0
-33 7 -48 38 -14 29 -24 38 -50 40 -35 4 -63 -25 -63 -66 0 -30 27 -83 54
-104 56 -45 252 7 305 81 30 41 26 77 -14 151 -19 36 -35 79 -35 97 0 46 68
173 108 200 39 26 126 53 171 53 46 0 55 -26 36 -105 -19 -84 -63 -169 -114
-223 -44 -45 -51 -71 -25 -96 39 -39 108 -2 171 91 59 88 84 162 90 264 10
154 -42 198 -207 179z"/>
<path d="M23137 30425 c-8 -7 -18 -36 -22 -62 -9 -64 -26 -101 -90 -203 -56
-89 -65 -121 -41 -152 39 -52 136 13 268 180 51 64 74 82 104 82 13 0 15 -6
10 -30 -9 -48 -76 -197 -107 -240 -16 -22 -29 -46 -29 -54 0 -25 30 -46 64
-46 56 0 94 54 156 225 50 137 42 232 -23 263 -39 19 -84 2 -159 -61 -52 -43
-60 -47 -54 -26 18 63 19 99 1 119 -21 23 -58 26 -78 5z"/>
<path d="M19990 30401 c-96 -32 -174 -105 -253 -239 -26 -44 -62 -119 -80
-166 -17 -47 -37 -86 -43 -86 -14 0 -128 87 -133 101 -1 6 23 38 55 72 65 69
194 221 207 243 13 23 -11 54 -41 54 -21 0 -46 -19 -108 -82 -44 -46 -102
-109 -128 -141 -26 -31 -52 -54 -57 -51 -6 3 -30 48 -54 99 -30 64 -50 95 -65
100 -30 10 -79 -13 -86 -40 -7 -26 30 -104 87 -184 21 -29 37 -57 34 -61 -2
-4 -62 -49 -132 -100 -197 -143 -215 -165 -177 -218 23 -33 58 -28 107 16 23
21 78 66 122 99 44 33 89 70 100 83 39 44 50 44 103 -3 27 -24 74 -54 104 -67
l55 -23 -4 -86 c-8 -138 44 -294 109 -327 26 -13 33 -13 72 5 44 19 66 45 66
75 0 24 -37 56 -65 56 -33 0 -42 21 -55 123 -13 108 0 198 45 317 74 193 137
286 212 311 50 16 169 8 190 -14 48 -48 -8 -171 -99 -218 -21 -10 -41 -19 -47
-19 -5 0 -15 19 -23 43 -10 34 -18 43 -40 45 -17 2 -34 -4 -49 -19 -18 -18
-21 -30 -17 -77 4 -45 10 -60 33 -80 24 -20 36 -23 77 -20 60 6 163 56 209
103 53 53 90 134 90 201 1 46 -4 64 -28 98 -39 57 -87 78 -186 82 -45 2 -93 0
-107 -5z"/>
<path d="M12595 30354 c-11 -1 -94 -8 -185 -15 -158 -11 -196 -19 -212 -43
-15 -21 -8 -53 17 -76 22 -20 30 -22 82 -16 266 31 393 34 470 11 56 -17 83
-39 66 -56 -25 -25 -790 -117 -1125 -136 -120 -6 -142 -18 -136 -70 2 -21 12
-32 38 -45 32 -16 44 -16 145 -2 61 8 182 21 270 30 411 39 734 90 829 132 47
21 96 83 96 122 0 27 25 26 44 -2 24 -33 20 -97 -9 -154 -67 -134 -293 -330
-453 -391 -39 -15 -44 -15 -61 1 -48 44 -117 -10 -92 -71 51 -124 329 -13 570
226 136 135 184 219 183 322 0 108 -67 178 -197 208 -107 24 -268 36 -340 25z"/>
<path d="M18575 30345 c-5 -1 -43 -13 -82 -25 -113 -33 -237 -126 -264 -197
-30 -79 16 -177 113 -239 105 -67 289 -101 459 -85 59 6 126 17 150 26 24 9
60 21 79 27 46 13 72 37 68 62 -4 29 -41 31 -136 10 -101 -23 -292 -24 -383
-1 -87 21 -172 59 -204 91 -60 60 -4 137 132 179 98 31 197 43 236 28 22 -9
27 -17 27 -44 0 -44 -21 -62 -101 -87 -102 -33 -116 -40 -127 -65 -10 -21 -8
-29 11 -51 l23 -27 104 34 c84 28 111 42 146 75 43 42 64 91 64 150 0 41 -52
112 -95 130 -30 12 -188 19 -220 9z"/>
<path d="M16995 30290 c-159 -42 -332 -124 -411 -193 -55 -49 -104 -121 -104
-154 0 -36 36 -99 72 -126 89 -66 168 -82 413 -82 221 0 300 15 311 60 13 53
2 59 -94 49 -212 -21 -486 10 -544 63 -43 39 -1 96 114 154 96 48 273 109 317
109 34 0 71 15 83 34 4 6 8 28 8 48 0 62 -41 71 -165 38z"/>
<path d="M10683 30170 c-154 -55 -281 -151 -366 -279 -56 -82 -83 -143 -92
-204 -24 -161 139 -240 387 -187 133 28 212 65 216 101 4 36 -21 55 -53 41
-48 -22 -181 -51 -262 -58 -119 -10 -163 13 -163 83 0 42 9 50 75 63 71 13
180 53 239 86 113 63 226 208 226 291 0 54 -36 83 -102 82 -29 0 -76 -9 -105
-19z m77 -105 c0 -57 -77 -127 -213 -196 -95 -47 -137 -59 -137 -40 0 22 85
114 141 152 126 85 209 118 209 84z"/>
<path d="M15588 30120 c-113 -14 -191 -46 -258 -107 -53 -47 -54 -82 -4 -129
50 -47 93 -49 273 -8 62 14 137 37 165 50 93 43 121 27 105 -61 -26 -140 -155
-559 -196 -639 l-15 -30 -14 33 c-17 41 -41 38 -67 -7 -23 -40 -24 -114 -2
-148 24 -37 59 -41 104 -10 52 36 141 218 215 440 73 218 99 344 94 458 -4
121 -8 124 -179 149 -74 10 -138 18 -144 18 -5 -1 -40 -5 -77 -9z m99 -121
c-9 -5 -47 -17 -85 -24 -124 -27 -196 -12 -94 19 55 17 208 22 179 5z"/>
<path d="M16255 30096 c-25 -25 -27 -33 -44 -183 -7 -60 -22 -116 -42 -164
l-31 -72 20 -26 c24 -32 46 -37 77 -17 49 32 87 132 111 291 20 130 18 161 -8
179 -31 22 -55 20 -83 -8z"/>
<path d="M14898 30047 c-27 -19 -54 -25 -128 -31 -139 -10 -190 -41 -160 -96
14 -26 49 -34 111 -26 57 8 59 3 29 -63 -11 -24 -20 -64 -20 -90 0 -40 6 -54
35 -88 48 -56 80 -67 175 -60 65 4 87 10 122 34 53 36 88 86 88 128 0 74 -52
166 -116 208 -22 14 -34 30 -34 45 0 24 -32 62 -54 62 -7 0 -29 -11 -48 -23z
m66 -168 c47 -37 72 -119 48 -155 -12 -19 -49 -34 -84 -34 -41 0 -54 8 -67 42
-19 50 26 168 64 168 7 0 24 -9 39 -21z"/>
<path d="M4720 30004 c-153 -101 -288 -255 -363 -414 -41 -86 -63 -120 -79
-120 -13 0 -10 52 7 106 27 88 37 162 25 184 -15 28 -54 25 -79 -5 -38 -49
-50 -143 -47 -365 2 -113 7 -213 11 -223 10 -25 54 -33 84 -16 21 12 35 40 71
149 50 147 70 189 138 295 56 87 181 243 234 291 71 63 71 42 8 -226 -51 -217
-61 -330 -35 -380 48 -92 147 -80 259 32 119 120 248 337 315 528 16 47 37
106 47 131 15 39 16 50 5 63 -24 29 -81 -18 -124 -104 -13 -25 -28 -54 -35
-65 -6 -11 -36 -71 -66 -132 -70 -142 -154 -271 -228 -348 -62 -64 -77 -65
-79 -5 -2 38 2 57 56 260 60 229 70 322 41 379 -30 57 -61 55 -166 -15z"/>
<path d="M13159 26571 c-67 -56 -151 -200 -264 -452 -70 -155 -168 -364 -256
-545 -85 -173 -94 -212 -57 -238 24 -17 66 -21 84 -8 18 12 42 62 83 172 21
58 72 182 114 275 110 251 183 427 227 548 59 163 88 204 110 155 8 -16 9 -94
3 -253 -9 -243 -1 -582 16 -727 12 -101 29 -142 71 -163 44 -23 81 -3 167 89
139 149 264 328 346 499 44 90 56 124 51 145 -6 23 -4 25 7 14 25 -23 15 -174
-21 -340 -25 -114 -31 -160 -26 -196 18 -119 116 -112 116 9 0 30 13 114 30
187 37 169 58 413 38 455 -11 23 -20 29 -56 31 -52 4 -66 -6 -99 -71 -25 -50
-103 -173 -216 -342 -57 -85 -236 -305 -271 -334 -9 -8 -20 -11 -24 -7 -13 14
-17 346 -8 667 5 173 6 336 2 361 -14 96 -94 129 -167 69z"/>
<path d="M2337 26392 c-28 -31 -19 -62 47 -161 36 -53 86 -135 113 -183 95
-173 129 -224 190 -287 35 -36 62 -66 60 -67 -1 -1 -31 -23 -67 -49 -80 -59
-289 -270 -350 -353 -25 -35 -62 -94 -82 -133 -60 -112 -49 -199 24 -199 34 0
47 18 64 89 26 112 106 210 480 585 22 23 63 50 90 60 27 11 68 35 92 54 65
53 549 370 633 414 78 42 169 108 169 124 0 8 -7 17 -15 20 -27 11 -295 -107
-420 -183 -27 -17 -102 -61 -165 -99 -63 -37 -146 -90 -185 -116 -136 -95
-209 -139 -221 -134 -7 3 -21 20 -30 38 -9 18 -37 65 -62 103 -44 67 -91 148
-154 265 -17 30 -52 94 -80 143 -46 82 -52 87 -82 87 -19 0 -40 -8 -49 -18z"/>
<path d="M17353 26379 c-11 -4 -32 -23 -46 -41 -54 -70 -58 -128 -10 -128 14
0 31 -7 38 -17 17 -23 39 -11 70 35 35 52 43 106 21 131 -22 24 -46 30 -73 20z"/>
<path d="M8850 26343 c-14 -2 -86 -13 -160 -24 -163 -25 -189 -31 -691 -154
-103 -25 -204 -45 -225 -45 -76 0 -106 -49 -63 -104 14 -18 30 -26 52 -26 28
0 246 52 422 100 311 86 846 170 924 145 35 -11 24 -34 -51 -107 -131 -126
-245 -212 -477 -363 -374 -242 -449 -297 -589 -431 -86 -84 -102 -104 -102
-130 0 -37 32 -70 81 -84 39 -11 258 9 441 40 62 11 178 29 258 41 312 44 394
59 414 79 21 21 17 58 -11 85 -22 22 -8 24 -708 -79 -251 -37 -291 -40 -300
-26 -10 15 38 64 84 86 20 9 77 47 126 84 50 37 142 101 205 142 437 285 451
295 575 402 79 68 174 175 201 228 31 59 10 107 -59 136 -26 11 -285 15 -347
5z"/>
<path d="M15525 26206 c-29 -29 -42 -73 -28 -94 5 -9 28 -22 51 -31 39 -14 43
-14 69 6 37 27 66 78 59 101 -15 45 -112 57 -151 18z"/>
<path d="M17628 26083 c-21 -22 -32 -76 -48 -213 -17 -154 -11 -147 -122 -152
-105 -4 -163 -26 -188 -70 -11 -20 -12 -34 -4 -55 15 -44 50 -50 133 -23 39
13 74 21 77 17 3 -3 -6 -22 -22 -42 -23 -30 -26 -41 -18 -63 7 -19 17 -28 38
-30 33 -4 72 28 114 95 15 24 38 47 52 52 33 12 209 35 235 30 28 -6 30 -45 6
-108 -29 -73 -28 -114 5 -140 31 -24 80 -27 109 -7 54 37 478 246 500 246 22
0 25 -4 25 -32 0 -43 -34 -107 -156 -303 -55 -88 -129 -209 -164 -270 -173
-302 -444 -675 -490 -675 -4 0 -10 20 -12 45 -6 50 -31 95 -53 95 -26 0 -46
-46 -52 -119 -4 -47 -2 -80 7 -101 13 -31 15 -32 59 -25 81 12 164 81 299 248
84 103 285 392 357 512 26 44 93 149 147 233 123 189 176 299 183 379 5 52 3
62 -23 98 -19 27 -37 41 -55 43 -31 4 -158 -36 -256 -80 -119 -53 -136 -62
-208 -105 -59 -35 -103 -53 -103 -40 0 1 7 27 15 57 22 83 20 98 -25 143 l-40
40 -98 -7 c-53 -3 -112 -9 -129 -12 -40 -8 -42 6 -15 87 10 30 25 89 32 132
12 74 12 80 -7 105 -25 34 -81 42 -105 15z"/>
<path d="M21710 25981 c-194 -53 -293 -172 -249 -300 18 -51 67 -66 115 -34
24 15 25 20 19 77 -3 34 -2 66 2 72 26 37 168 76 279 78 94 1 124 -15 124 -66
0 -77 -82 -173 -260 -301 -191 -137 -208 -158 -154 -193 36 -24 68 -11 204 82
191 131 337 291 356 389 8 44 -21 126 -55 159 -59 55 -248 73 -381 37z"/>
<path d="M15542 25968 c-19 -19 -14 -64 17 -162 46 -143 56 -256 37 -402 -35
-265 -73 -409 -152 -567 -81 -160 -149 -244 -245 -303 -72 -43 -135 -53 -202
-30 -63 21 -99 7 -95 -38 2 -25 11 -35 48 -53 74 -38 201 -25 298 30 114 64
200 165 295 347 103 195 145 366 154 623 6 161 12 192 35 169 8 -8 7 -33 -1
-86 -12 -71 -11 -78 9 -114 12 -20 37 -48 56 -61 30 -21 42 -23 111 -19 65 4
91 11 151 42 83 42 154 102 172 146 8 19 10 47 5 75 -8 57 -50 101 -132 141
-52 26 -68 29 -158 29 -93 0 -105 -2 -166 -32 -37 -18 -69 -33 -71 -33 -3 0
-9 28 -12 63 -14 122 -40 197 -80 229 -25 20 -57 23 -74 6z m489 -368 c19 -6
46 -21 59 -35 33 -35 21 -51 -65 -95 -54 -27 -81 -35 -124 -35 l-56 0 3 75 c1
41 4 81 7 88 5 15 123 16 176 2z"/>
<path d="M19590 25878 c-11 -18 -25 -49 -31 -68 -24 -75 -83 -235 -90 -244 -4
-5 -38 -19 -75 -32 -154 -54 -344 -187 -344 -241 0 -54 70 -71 111 -27 26 28
195 144 210 144 5 0 9 -5 9 -11 0 -24 -126 -163 -193 -213 -71 -54 -57 -111
24 -96 32 6 55 22 106 71 77 76 151 173 193 250 18 34 40 60 57 68 42 19 117
25 143 11 20 -11 22 -17 16 -57 -9 -69 -54 -158 -128 -257 -38 -49 -68 -97
-68 -107 0 -26 26 -47 65 -55 39 -7 38 -7 208 107 216 147 340 219 353 206 4
-3 -10 -31 -30 -61 -57 -86 -76 -135 -76 -197 0 -71 23 -103 87 -122 62 -18
116 -7 222 43 71 34 99 56 180 138 53 53 142 158 199 232 86 113 102 140 102
171 0 23 -7 42 -20 54 -18 17 -21 17 -45 1 -14 -9 -47 -47 -73 -83 -136 -193
-301 -361 -402 -411 -75 -38 -130 -43 -130 -12 0 42 58 140 148 250 26 33 42
62 42 79 0 30 -36 71 -62 71 -26 0 -228 -70 -289 -100 -31 -15 -93 -53 -138
-85 -45 -32 -85 -55 -88 -51 -3 3 9 35 27 71 24 48 34 82 38 134 l5 69 -40 42
c-39 42 -41 43 -116 48 -42 2 -77 8 -77 13 0 4 23 54 50 110 28 56 50 108 50
114 0 7 -9 24 -21 39 -31 40 -83 37 -109 -6z"/>
<path d="M14486 25870 c-16 -5 -76 -37 -134 -72 -79 -48 -125 -84 -188 -151
-101 -106 -125 -150 -132 -237 -4 -60 -2 -68 22 -97 34 -41 112 -68 172 -59
118 16 264 144 369 323 28 49 57 88 64 88 7 0 22 -23 32 -51 11 -28 28 -59 38
-68 39 -36 175 -32 212 5 16 16 18 23 8 42 -16 30 -28 37 -67 37 -55 0 -69 14
-93 95 -24 83 -52 115 -99 115 -24 0 -43 -20 -140 -152 -125 -168 -173 -220
-251 -272 -63 -41 -107 -53 -139 -36 -18 10 -21 18 -16 41 7 34 52 103 96 147
65 65 254 182 294 182 8 0 30 13 47 28 38 34 34 64 -11 87 -32 17 -42 17 -84
5z"/>
<path d="M16920 25836 c-136 -48 -246 -124 -312 -217 -24 -33 -58 -81 -77
-107 -41 -56 -93 -191 -95 -247 -1 -32 3 -42 25 -54 39 -22 75 -8 99 39 11 21
20 46 20 53 0 34 121 258 159 295 40 39 212 132 244 132 26 0 22 -68 -9 -143
-26 -63 -179 -287 -196 -287 -17 0 -58 -49 -58 -70 0 -52 85 -80 128 -42 24
21 134 165 184 243 83 126 131 308 98 370 -14 25 -82 59 -117 59 -15 0 -57
-11 -93 -24z"/>
<path d="M2852 25638 c-27 -27 -12 -57 74 -147 93 -98 284 -248 490 -384 164
-108 258 -157 305 -157 43 0 74 28 64 58 -6 20 -51 42 -84 42 -31 0 -189 100
-324 205 -29 22 -68 51 -87 65 -50 34 -204 163 -275 230 -99 94 -137 114 -163
88z"/>
<path d="M21198 25426 c-78 -28 -128 -56 -181 -104 -38 -33 -41 -33 -97 -27
-63 7 -92 -2 -110 -35 -14 -26 1 -55 40 -75 28 -15 28 -15 23 -90 l-6 -76 49
-47 c55 -53 117 -79 209 -88 65 -7 157 12 201 40 25 17 33 59 12 72 -6 4 -68
8 -137 8 -125 1 -150 7 -185 42 -25 24 -20 78 10 113 20 24 46 37 112 57 168
49 187 57 220 90 39 39 40 64 5 104 -38 42 -81 47 -165 16z"/>
<path d="M21721 25014 c-39 -32 -40 -64 -3 -104 39 -44 92 -51 126 -17 43 43
29 108 -29 132 -47 20 -59 19 -94 -11z"/>
<path d="M5880 24528 c-25 -42 -44 -131 -36 -177 6 -39 45 -81 76 -81 29 0 52
28 43 54 -4 11 -6 53 -4 91 8 147 10 140 -26 143 -28 3 -36 -2 -53 -30z"/>
<path d="M5845 24073 c-39 -8 -80 -27 -130 -58 -27 -17 -76 -42 -109 -55 -74
-32 -129 -80 -124 -112 3 -20 8 -23 41 -20 20 2 37 0 37 -3 0 -3 -10 -36 -21
-72 -30 -91 -23 -225 15 -306 33 -68 139 -171 216 -208 230 -111 574 -34 788
174 86 85 104 115 105 185 2 90 -38 166 -133 255 -59 55 -95 80 -155 105 -105
45 -215 72 -293 72 -41 0 -71 5 -81 14 -34 29 -101 41 -156 29z m149 -138 c25
-27 35 -50 58 -125 15 -50 53 -74 86 -54 26 17 26 49 -2 110 -31 68 -32 84 -6
84 35 0 141 -40 210 -78 117 -65 220 -190 220 -268 0 -63 -108 -162 -255 -234
-114 -55 -154 -64 -300 -64 -127 -1 -132 0 -196 31 -90 45 -153 113 -168 182
-29 136 2 280 79 370 27 31 39 36 122 52 124 23 125 23 152 -6z"/>
<path d="M8764 23985 c-18 -8 -75 -23 -129 -34 -75 -15 -125 -34 -228 -86 -73
-36 -147 -81 -165 -98 -47 -46 -94 -121 -86 -141 11 -29 43 -17 132 48 96 70
131 90 139 82 4 -3 -16 -29 -43 -58 -151 -160 -247 -348 -274 -536 -22 -147
15 -272 108 -370 92 -97 243 -118 372 -53 123 63 282 202 352 310 77 118 99
203 105 403 9 280 -17 387 -109 455 -26 19 -48 40 -48 47 0 41 -67 57 -126 31z
m103 -161 c56 -35 78 -150 70 -364 -8 -242 -47 -340 -189 -476 -138 -132 -239
-184 -332 -170 -85 13 -144 67 -176 162 -50 145 7 361 153 579 62 92 201 224
277 263 58 30 71 33 120 27 30 -4 65 -13 77 -21z"/>
<path d="M3133 23919 c-207 -34 -372 -190 -428 -407 -26 -98 -14 -187 38 -285
47 -89 110 -150 197 -191 229 -107 494 -78 714 79 135 96 216 241 216 387 0
75 -84 193 -167 233 -50 24 -182 48 -230 41 -47 -6 -55 -1 -97 64 -41 66 -135
96 -243 79z m155 -123 c23 -23 7 -43 -40 -50 -80 -12 -167 -44 -223 -81 -58
-38 -63 -46 -41 -64 18 -15 89 -3 211 34 118 36 142 40 160 25 8 -7 15 -24 15
-38 0 -27 35 -72 56 -72 24 0 44 31 44 68 0 59 9 65 73 53 142 -26 211 -96
212 -216 0 -80 -40 -152 -120 -217 -139 -113 -305 -165 -469 -148 -146 15
-222 50 -287 133 -55 69 -70 110 -71 192 -1 60 4 81 35 147 60 130 154 211
282 244 59 16 143 10 163 -10z"/>
<path d="M828 23880 c-125 -15 -290 -72 -380 -132 -108 -72 -163 -171 -125
-223 15 -19 19 -17 99 66 125 130 242 180 458 195 263 18 470 -118 470 -310 0
-146 -203 -379 -395 -452 -74 -28 -234 -26 -292 4 -62 32 -83 68 -83 141 0 52
7 76 46 159 28 58 71 128 110 175 58 71 62 80 53 105 -20 51 -62 56 -111 13
-39 -34 -112 -155 -159 -261 -29 -68 -32 -85 -33 -175 -1 -87 2 -106 23 -147
41 -80 114 -125 239 -148 107 -19 263 22 375 98 87 61 225 201 265 271 57 99
65 130 60 230 -7 112 -31 164 -118 252 -123 125 -269 166 -502 139z"/>
<path d="M14625 23640 c-59 -13 -97 -29 -122 -52 -41 -39 -21 -108 27 -95 39
10 19 -13 -44 -53 -168 -106 -332 -367 -344 -546 -4 -61 -1 -80 21 -126 42
-93 104 -126 253 -135 97 -6 205 6 343 39 108 25 146 40 254 102 159 90 244
209 254 355 13 184 -76 329 -267 434 -124 68 -275 99 -375 77z m275 -147 c113
-53 168 -104 214 -197 62 -126 52 -200 -50 -344 -72 -103 -356 -188 -599 -180
-98 3 -127 8 -155 24 -32 18 -35 25 -38 71 -9 153 163 424 324 510 104 55 233
67 284 25 20 -16 21 -21 10 -62 -6 -25 -22 -62 -36 -82 -28 -44 -33 -105 -8
-115 35 -13 118 89 146 180 17 55 1 77 -80 120 -77 40 -183 67 -270 67 -54 1
-56 2 -37 16 16 13 39 15 115 12 86 -4 104 -9 180 -45z"/>
<path d="M23203 23476 c-17 -8 -34 -23 -37 -33 -7 -23 -7 -205 1 -246 9 -52
87 -56 113 -6 10 17 8 34 -5 82 -13 46 -14 61 -5 67 19 12 319 23 397 15 88
-8 623 -14 731 -7 l82 5 0 53 0 53 -42 5 c-43 5 -432 14 -938 22 -210 3 -272
1 -297 -10z"/>
<path d="M24215 23224 c-137 -30 -304 -66 -370 -81 -66 -14 -140 -29 -164 -33
-32 -5 -53 -16 -73 -39 -33 -37 -34 -55 -13 -223 26 -210 28 -340 11 -608 -9
-140 -19 -266 -21 -280 -5 -25 -27 -228 -45 -410 -5 -52 -16 -167 -25 -255
-15 -153 -19 -200 -46 -485 -6 -69 -9 -199 -7 -290 4 -137 8 -175 26 -225 30
-82 68 -134 125 -170 26 -16 73 -51 103 -77 80 -67 213 -123 351 -147 78 -14
274 -31 351 -31 l62 0 0 49 0 48 -139 7 c-144 7 -317 29 -329 41 -4 4 81 6
188 5 107 -2 214 -2 238 -1 l42 1 0 50 0 50 -202 0 c-219 0 -348 10 -471 36
-82 18 -101 33 -128 100 -62 157 -63 506 -3 1089 50 492 75 1113 57 1445 -4
85 -7 167 -5 183 5 44 32 51 197 52 83 0 241 2 353 3 l202 2 0 53 0 54 -127
-4 c-145 -4 -141 3 20 37 l107 23 0 44 c0 24 -3 42 -7 42 -5 -1 -120 -26 -258
-55z"/>
<path d="M8516 22241 c-43 -47 -99 -372 -126 -726 -6 -82 -15 -192 -21 -242
-5 -51 -12 -152 -15 -225 -6 -119 -5 -135 10 -148 23 -18 47 -4 58 36 13 45
77 486 88 609 21 216 57 430 105 604 13 47 13 57 -1 82 -11 23 -21 29 -48 29
-20 0 -40 -8 -50 -19z"/>
<path d="M817 22215 c-10 -9 -18 -48 -24 -102 -11 -117 -6 -494 8 -663 7 -74
12 -236 13 -359 1 -200 3 -225 19 -235 13 -8 21 -6 37 10 34 33 43 133 36 369
-17 578 -18 623 -7 715 22 178 25 248 11 265 -16 19 -74 19 -93 0z"/>
<path d="M5990 22056 c-89 -19 -155 -62 -244 -159 -148 -160 -202 -280 -200
-442 3 -167 67 -330 180 -453 109 -120 217 -169 387 -179 117 -6 291 19 437
63 222 68 476 242 536 369 29 60 32 154 9 233 -35 116 -237 319 -386 386 -83
38 -244 76 -320 76 -64 0 -68 1 -93 34 -32 43 -80 60 -226 81 -14 2 -50 -2
-80 -9z m151 -111 c24 -9 53 -24 64 -34 14 -13 49 -22 120 -30 137 -16 213
-35 298 -74 167 -78 354 -275 381 -404 16 -74 -37 -166 -138 -237 -181 -128
-366 -196 -623 -227 -89 -11 -114 -11 -198 4 -108 19 -130 29 -201 85 -38 30
-60 60 -100 138 -63 121 -78 180 -79 304 0 111 7 133 81 245 66 100 142 175
218 214 65 35 111 39 177 16z"/>
<path d="M14415 21944 c-89 -12 -154 -28 -195 -50 -54 -28 -220 -185 -220
-207 0 -10 -18 -21 -52 -31 -77 -23 -225 -109 -281 -164 -116 -114 -142 -267
-59 -356 83 -88 237 -159 426 -193 134 -24 536 -24 661 0 257 51 369 122 406
260 26 95 7 242 -43 342 -107 211 -243 335 -414 378 -64 17 -181 27 -229 21z
m192 -110 c133 -27 196 -69 272 -179 82 -119 124 -229 125 -335 2 -124 -43
-177 -184 -223 -99 -32 -164 -45 -285 -55 -288 -24 -687 37 -798 122 -60 46
-64 56 -44 119 40 126 120 189 373 293 62 26 81 29 181 29 61 0 115 -3 119 -8
4 -4 -11 -27 -34 -50 -61 -62 -55 -117 11 -117 23 0 44 14 93 65 68 69 70 74
53 124 -20 57 -98 82 -264 82 -136 0 -138 7 -22 65 152 77 268 96 404 68z"/>
<path d="M3030 21903 c-64 -23 -155 -119 -208 -219 -97 -187 -96 -361 5 -590
39 -91 57 -118 107 -167 108 -107 243 -139 419 -102 108 23 179 67 297 185
170 169 229 282 237 450 7 138 -10 180 -110 278 -97 93 -154 116 -297 116 -89
1 -118 -3 -191 -27 -101 -33 -146 -58 -159 -90 -6 -12 -16 -30 -22 -40 -11
-14 -10 -19 2 -27 17 -11 36 -6 105 26 63 29 179 54 254 54 203 0 351 -165
313 -348 -33 -156 -200 -365 -359 -447 -85 -45 -219 -55 -324 -25 -88 25 -166
133 -204 285 -35 136 -39 198 -21 285 40 187 144 300 277 300 28 0 41 5 49 19
16 30 12 59 -10 81 -25 25 -94 26 -160 3z"/>
<path d="M8205 20488 c-154 -21 -259 -83 -341 -200 -22 -31 -24 -40 -14 -53
21 -26 51 -17 138 42 113 75 190 103 292 103 43 0 91 -5 107 -11 64 -24 120
-105 186 -267 106 -261 59 -489 -142 -693 -89 -89 -137 -122 -216 -144 -100
-29 -192 1 -222 73 -20 49 -12 220 15 312 65 220 204 432 330 502 66 38 82 66
58 103 -33 50 -105 23 -217 -82 -152 -144 -263 -355 -305 -583 -18 -102 -16
-239 6 -281 29 -55 73 -98 132 -129 54 -30 73 -34 134 -34 62 0 81 4 145 36
147 72 317 248 386 396 95 203 82 407 -39 647 -113 224 -225 292 -433 263z"/>
<path d="M14187 20214 c-85 -20 -231 -99 -296 -159 -47 -45 -54 -55 -43 -68
11 -13 5 -21 -47 -56 -89 -61 -174 -143 -204 -200 -85 -155 -60 -338 55 -422
95 -68 289 -102 541 -94 339 12 529 44 668 113 123 62 166 141 156 282 -7 93
-57 197 -151 316 -136 173 -272 256 -480 293 -77 14 -127 13 -199 -5z m205
-89 c114 -24 225 -83 311 -168 134 -132 201 -259 202 -384 0 -68 -2 -74 -34
-107 -96 -99 -343 -143 -741 -133 -234 6 -325 19 -397 55 -53 28 -66 56 -61
134 10 152 128 292 334 396 87 44 172 63 261 60 97 -4 107 -15 75 -89 -24 -59
-18 -85 24 -95 43 -11 70 10 89 66 42 125 -19 191 -197 216 -50 6 -168 -10
-232 -32 -65 -23 -52 -8 28 31 129 64 211 76 338 50z"/>
<path d="M845 20123 c-184 -28 -419 -128 -512 -218 -57 -55 -65 -83 -37 -123
23 -34 68 -29 105 10 16 18 29 35 29 39 0 12 126 89 186 113 118 48 221 69
350 70 127 1 159 -8 147 -42 -14 -40 -203 -313 -304 -439 -168 -210 -199 -269
-199 -384 0 -62 3 -72 30 -103 51 -57 103 -71 270 -71 154 0 285 19 486 71
127 32 188 62 192 92 3 18 -4 26 -34 38 -36 15 -43 15 -119 -6 -81 -23 -215
-51 -335 -71 -101 -17 -313 -13 -349 6 -54 27 -57 47 -16 127 45 87 55 102
181 258 105 130 201 267 259 370 45 79 58 179 29 212 -34 37 -80 49 -208 53
-66 2 -134 1 -151 -2z"/>
<path d="M6181 20096 c-9 -10 -9 -74 -1 -257 6 -134 15 -332 19 -439 6 -162
10 -202 27 -235 10 -22 27 -41 36 -43 40 -8 43 22 40 497 -2 405 -4 457 -19
473 -19 22 -85 24 -102 4z"/>
<path d="M3110 20064 c-112 -30 -227 -120 -276 -215 -42 -82 -54 -117 -64
-201 -16 -138 13 -302 89 -491 69 -172 107 -224 200 -270 62 -30 72 -32 171
-31 98 1 109 3 170 34 81 41 182 141 273 272 89 128 116 188 127 289 15 131
-17 207 -127 298 -140 117 -339 141 -510 62 -68 -32 -98 -68 -89 -105 8 -32
29 -38 74 -22 20 8 64 24 97 36 92 34 185 31 266 -7 85 -40 153 -102 175 -158
45 -119 -27 -294 -195 -468 -117 -123 -228 -161 -357 -122 -84 25 -128 85
-186 255 -53 155 -63 210 -63 355 1 120 3 134 28 190 32 69 54 95 116 138 53
36 132 57 221 57 75 0 110 18 110 56 0 47 -31 64 -117 63 -43 0 -103 -7 -133
-15z"/>
<path d="M23250 19401 c-60 -59 -7 -101 127 -101 43 0 177 -11 298 -25 199
-22 440 -43 708 -61 l97 -6 0 60 0 60 -62 6 c-35 3 -151 10 -258 16 -107 7
-262 20 -344 31 -218 28 -423 49 -484 49 -46 0 -58 -4 -82 -29z"/>
<path d="M8305 18858 c-31 -18 -43 -39 -50 -83 -22 -148 -37 -408 -45 -785 -9
-416 -20 -594 -40 -670 -6 -19 -10 -56 -10 -81 0 -54 17 -68 50 -41 39 32 79
297 100 662 25 444 32 543 51 704 12 94 23 192 26 217 4 39 2 50 -16 68 -24
24 -37 26 -66 9z"/>
<path d="M14132 18738 c-18 -18 -15 -35 18 -105 63 -133 91 -309 92 -567 0
-204 -16 -358 -68 -684 -33 -203 -35 -225 -21 -239 14 -15 18 -15 41 0 28 19
29 21 51 142 28 152 56 297 70 365 43 207 53 542 22 725 -36 205 -82 337 -128
360 -34 18 -61 19 -77 3z"/>
<path d="M6102 18728 c-35 -17 -58 -72 -82 -194 -26 -137 -36 -340 -21 -459 6
-49 16 -133 22 -186 14 -131 39 -213 65 -217 12 -2 27 4 34 13 17 20 16 74 -5
347 l-18 226 22 133 c15 87 33 155 52 197 16 36 29 74 29 86 -1 47 -53 76 -98
54z"/>
<path d="M3495 18581 c-33 -9 -82 -32 -108 -50 -75 -52 -176 -161 -187 -203
-6 -20 -28 -59 -49 -86 -83 -105 -126 -231 -137 -407 -14 -219 54 -478 155
-589 39 -42 130 -108 171 -122 19 -7 74 -13 122 -14 143 0 241 45 383 178 231
217 312 381 302 612 -4 106 -21 174 -67 270 -68 143 -220 337 -296 378 -45 24
-147 52 -186 51 -24 0 -70 -8 -103 -18z m218 -108 c77 -31 222 -221 284 -374
107 -262 57 -457 -179 -701 -183 -189 -401 -235 -545 -114 -43 36 -76 96 -106
192 -40 127 -50 225 -37 376 14 162 39 235 115 328 73 91 110 113 205 120 l75
5 3 35 c4 42 -14 57 -80 66 -26 4 -48 10 -48 14 0 13 129 63 190 73 32 6 75
-2 123 -20z"/>
<path d="M840 18345 c-351 -31 -450 -62 -450 -139 0 -50 57 -60 152 -27 107
37 533 72 735 60 132 -7 223 -36 223 -69 0 -26 -77 -79 -219 -149 -220 -111
-270 -155 -239 -217 16 -34 65 -59 248 -130 159 -61 276 -119 330 -164 34 -28
35 -30 20 -57 -52 -94 -428 -265 -674 -307 -97 -17 -116 -27 -116 -62 0 -41
27 -57 84 -49 106 13 206 38 351 87 324 108 466 220 465 364 0 27 -6 56 -13
65 -23 30 -145 108 -243 157 -93 45 -141 63 -259 94 -29 8 -51 20 -53 29 -3
17 0 19 189 107 222 104 282 192 209 310 -22 36 -78 65 -170 89 -78 20 -380
25 -570 8z"/>
<path d="M695 16306 c-103 -45 -185 -246 -172 -421 14 -194 195 -349 440 -379
37 -5 60 -13 64 -22 3 -9 -2 -48 -11 -87 -9 -40 -21 -137 -26 -217 -5 -80 -12
-159 -15 -176 -5 -22 -2 -36 10 -47 22 -23 42 -21 69 6 21 21 24 36 31 172 5
83 9 188 10 236 1 47 5 90 8 96 10 15 60 30 130 38 70 8 171 57 201 98 l21 29
-24 19 c-32 26 -51 24 -136 -16 -41 -20 -98 -39 -125 -42 -48 -6 -50 -5 -50
18 0 13 11 48 25 77 13 29 33 81 44 115 31 98 110 269 139 301 15 15 56 42 92
60 58 27 65 35 68 63 9 91 -147 81 -229 -15 -94 -110 -207 -430 -209 -593 0
-14 -58 -30 -86 -23 -16 4 -79 31 -141 61 -102 48 -116 58 -152 108 -56 80
-63 145 -26 263 29 89 44 110 144 193 36 31 39 51 11 79 -23 23 -61 25 -105 6z"/>
<path d="M8347 16285 c-215 -45 -435 -142 -601 -264 -334 -247 -381 -468 -152
-709 74 -77 112 -102 251 -163 89 -38 353 -51 509 -24 196 34 405 123 490 209
95 95 127 250 92 446 -27 146 -80 242 -163 296 -46 29 -54 40 -68 87 -15 54
-47 93 -94 117 -36 19 -185 21 -264 5z m227 -81 c22 -8 20 -31 -3 -39 -11 -3
-50 -1 -86 6 -61 10 -129 8 -195 -7 -22 -5 -23 -4 -7 6 42 27 248 51 291 34z
m-422 -106 c3 -26 20 -27 107 -9 68 14 235 14 301 0 43 -9 50 -14 50 -35 0
-14 10 -30 25 -40 22 -14 30 -15 53 -5 24 12 29 10 50 -16 66 -82 105 -214
106 -359 0 -92 -2 -106 -29 -160 -36 -70 -95 -119 -200 -163 -267 -112 -630
-120 -829 -19 -105 54 -217 212 -218 310 -2 103 129 263 312 383 45 29 249
134 262 135 4 0 8 -10 10 -22z"/>
<path d="M3214 16245 c-17 -18 -23 -32 -19 -43 4 -9 11 -80 16 -157 5 -77 18
-230 29 -340 11 -110 25 -292 31 -405 6 -113 14 -218 18 -234 10 -41 36 -56
58 -33 16 16 18 42 17 295 -1 163 -9 347 -18 448 -9 94 -16 233 -16 308 0 132
-1 138 -25 161 -31 32 -59 32 -91 0z"/>
<path d="M5853 16235 c-105 -32 -250 -134 -374 -262 -99 -102 -138 -156 -180
-250 -70 -156 -90 -315 -53 -425 23 -70 39 -94 99 -149 62 -57 108 -85 210
-130 78 -33 83 -34 215 -34 127 0 142 2 239 34 121 40 365 160 455 225 122 88
156 142 156 250 0 68 -29 163 -72 235 -66 112 -203 206 -354 242 -164 39 -360
16 -418 -50 -24 -28 -28 -58 -10 -76 20 -19 72 -14 138 15 89 39 242 34 347
-11 119 -51 188 -127 235 -255 58 -161 18 -216 -261 -357 -373 -189 -613 -193
-801 -15 -86 81 -104 172 -63 331 35 138 88 226 211 349 117 118 181 164 292
208 86 35 102 36 167 13 48 -17 49 -17 70 4 20 20 21 24 9 54 -26 61 -150 88
-257 54z"/>
<path d="M8410 14590 c-12 -12 -20 -33 -20 -55 0 -20 -11 -66 -24 -104 -44
-125 -55 -201 -70 -496 -9 -159 -24 -371 -33 -470 -9 -99 -17 -256 -18 -350 0
-145 3 -175 18 -202 10 -20 25 -33 37 -33 42 0 48 32 53 280 3 129 16 357 30
505 14 149 30 334 36 413 11 137 24 195 75 327 23 61 21 156 -4 183 -26 27
-54 28 -80 2z"/>
<path d="M1420 14474 c-19 -2 -73 -13 -120 -24 -47 -11 -119 -26 -161 -34 -41
-8 -114 -26 -161 -40 -137 -42 -189 -88 -190 -168 -1 -65 49 -121 142 -158 19
-7 63 -26 98 -42 34 -15 64 -28 67 -28 2 0 43 -19 92 -42 202 -96 403 -264
482 -402 53 -93 61 -140 31 -179 -35 -44 -110 -77 -176 -77 -57 0 -218 43
-229 61 -9 13 -69 11 -83 -3 -20 -20 -14 -56 11 -73 40 -26 149 -67 219 -81
79 -17 186 -6 247 25 52 27 108 92 121 143 37 136 -73 318 -305 507 -70 57
-192 136 -256 165 -19 9 -41 20 -49 25 -24 16 -110 52 -175 73 -90 30 -137 56
-133 76 10 51 206 110 385 115 101 3 116 5 145 27 32 24 37 25 198 23 148 -2
345 -21 552 -54 56 -9 71 -8 97 6 36 18 39 33 11 68 -21 26 -38 30 -240 57
-47 6 -114 16 -150 21 -69 11 -411 20 -470 13z"/>
<path d="M3748 14448 c-50 -90 -59 -136 -31 -159 15 -13 16 -48 9 -409 -4
-217 -9 -411 -11 -430 -2 -19 -6 -78 -10 -131 -5 -84 -4 -98 13 -119 38 -47
69 11 77 144 3 54 7 102 10 106 12 19 35 423 35 605 0 110 5 239 11 285 l10
85 -26 22 c-34 30 -71 30 -87 1z"/>
<path d="M5719 14286 c-105 -36 -167 -76 -260 -164 -97 -91 -146 -174 -173
-292 -44 -186 4 -446 105 -562 167 -196 541 -197 906 -3 140 74 276 193 321
281 57 112 66 263 22 379 -31 82 -164 215 -264 264 -121 59 -202 81 -316 88
-57 3 -122 12 -143 19 -56 20 -122 16 -198 -10z m201 -111 c31 -18 72 -19 88
-3 15 15 65 12 157 -9 88 -19 143 -44 221 -99 119 -83 169 -177 169 -314 0
-73 -4 -93 -28 -142 -50 -102 -151 -184 -334 -270 -164 -77 -270 -102 -438
-103 -127 0 -145 2 -193 24 -74 33 -117 87 -148 186 -54 168 -41 348 34 475
102 173 366 316 472 255z"/>
<path d="M3681 12746 c-18 -21 -26 -266 -26 -767 0 -416 1 -438 19 -458 24
-26 52 -27 66 -2 6 12 10 126 10 299 0 153 4 337 10 408 31 424 33 494 14 515
-20 23 -76 26 -93 5z"/>
<path d="M756 12634 c-113 -103 -150 -151 -214 -279 -84 -168 -107 -326 -62
-419 39 -82 146 -153 295 -197 101 -29 331 -38 441 -15 248 50 445 151 500
258 21 41 18 91 -8 115 -72 66 -191 96 -379 94 -203 -1 -376 -25 -546 -77 -94
-28 -118 -50 -105 -99 11 -40 32 -41 123 -11 281 93 773 106 805 21 21 -53
-180 -152 -395 -195 -137 -27 -287 -24 -415 9 -174 44 -236 100 -236 211 0
153 120 370 271 491 94 75 122 113 117 157 -3 24 -8 27 -45 30 -40 3 -45 0
-147 -94z"/>
<path d="M5904 12654 c-27 -41 -35 -198 -29 -574 12 -699 13 -718 42 -741 11
-10 17 -9 29 2 31 32 37 129 40 639 1 406 5 520 17 580 13 65 14 78 1 98 -21
33 -78 31 -100 -4z"/>
<path d="M8425 12447 c-130 -44 -183 -79 -264 -177 -42 -51 -47 -60 -43 -98 6
-58 28 -55 89 10 63 68 116 118 126 118 4 0 -25 -39 -64 -87 -93 -115 -208
-345 -244 -487 -55 -219 -19 -393 113 -537 171 -186 495 -234 740 -110 171 87
279 215 344 407 19 58 23 89 23 199 -1 155 -13 205 -88 349 -90 172 -233 313
-397 390 -64 30 -89 36 -170 41 -82 5 -104 2 -165 -18z m256 -93 c169 -50 354
-254 426 -469 23 -69 27 -97 28 -205 0 -139 -10 -183 -72 -302 -58 -112 -152
-186 -306 -239 -97 -34 -205 -38 -314 -13 -217 50 -323 188 -323 420 0 126 27
221 109 391 96 196 135 251 216 302 45 29 75 57 93 86 31 51 53 56 143 29z"/>
<path d="M672 11345 c-24 -31 -29 -67 -9 -82 6 -6 102 -13 212 -16 206 -7 637
-46 782 -71 95 -17 143 -39 143 -65 0 -72 -231 -250 -550 -423 -36 -20 -121
-66 -190 -103 -211 -114 -237 -139 -190 -177 33 -27 55 -23 139 26 42 24 156
87 254 140 449 243 581 346 638 496 27 71 24 88 -19 129 -42 39 -130 72 -242
91 -176 28 -606 70 -801 77 l-146 5 -21 -27z"/>
<path d="M2699 11014 c-19 -23 -59 -125 -59 -151 0 -33 47 -83 78 -83 35 0 49
10 61 43 15 39 13 88 -4 111 -8 11 -13 28 -10 37 4 11 -2 26 -14 38 -25 25
-34 26 -52 5z"/>
<path d="M24423 10970 c-75 -18 -141 -83 -182 -183 -47 -113 -141 -257 -296
-452 -215 -271 -396 -571 -550 -915 -58 -130 -193 -532 -210 -630 -3 -19 -10
-44 -15 -55 -23 -56 -33 -167 -23 -267 6 -57 14 -111 18 -120 5 -13 3 -18 -8
-18 -8 0 -18 -8 -22 -17 -5 -10 -10 -220 -12 -468 -2 -259 -12 -614 -24 -835
-29 -562 -34 -723 -34 -1145 0 -503 15 -1765 21 -1790 8 -31 -14 -442 -31
-595 -20 -175 -32 -319 -50 -614 -9 -133 -36 -405 -60 -606 -25 -201 -50 -401
-55 -445 -12 -95 -23 -202 -50 -460 -11 -104 -30 -255 -41 -335 -38 -262 -51
-364 -54 -422 -2 -31 -6 -65 -9 -75 -3 -10 -14 -119 -26 -243 -11 -124 -22
-237 -25 -252 -4 -27 -3 -28 44 -28 l48 0 11 93 c6 50 14 124 17 162 10 121
55 517 66 580 17 100 58 420 74 580 8 83 20 193 25 245 9 84 55 456 96 775 14
112 36 378 54 655 6 85 19 241 30 345 26 243 38 494 34 665 -2 74 -6 353 -9
620 -3 267 -8 654 -11 860 -6 343 12 1027 31 1235 4 33 6 144 7 247 l0 187 47
-7 c25 -4 66 -6 91 -5 25 2 291 5 593 9 l547 6 0 48 0 48 -87 4 c-201 9 -877
8 -991 -2 -128 -10 -162 -5 -162 26 0 8 33 115 74 237 41 122 80 256 87 297 6
41 15 78 18 82 3 4 38 -11 76 -34 89 -51 145 -73 265 -104 101 -25 359 -77
565 -114 66 -11 128 -23 138 -26 15 -5 17 2 17 54 l0 60 -47 7 c-89 13 -457
85 -563 110 -137 33 -217 60 -315 105 -114 52 -113 51 -72 157 20 48 40 108
47 133 15 58 40 148 51 180 5 14 29 95 53 180 87 296 218 678 349 1010 25 63
65 167 90 230 24 63 68 176 97 250 56 145 70 203 50 215 -15 9 -62 -35 -100
-96 -32 -49 -63 -126 -254 -624 -168 -438 -261 -714 -399 -1190 -20 -66 -45
-165 -57 -220 -11 -54 -23 -101 -26 -104 -8 -8 -56 43 -73 79 -48 96 -66 226
-51 379 19 198 63 358 187 676 40 104 203 437 263 540 67 114 243 372 334 490
177 227 200 260 268 374 80 133 112 171 145 171 21 0 23 4 23 50 0 53 -1 54
-57 40z m-1131 -2850 l64 -75 -17 -40 c-10 -22 -32 -94 -49 -160 -42 -158 -60
-215 -71 -215 -5 0 -9 129 -9 292 0 163 4 288 9 283 4 -6 37 -44 73 -85z"/>
<path d="M24301 10551 c-27 -37 -26 -57 2 -75 24 -15 93 -40 145 -51 l32 -7 0
60 0 60 -62 21 c-81 27 -93 27 -117 -8z"/>
<path d="M6057 10432 c-9 -9 -28 -62 -43 -117 l-26 -100 -8 -750 c-4 -412 -11
-771 -15 -796 -7 -50 5 -70 29 -50 13 11 27 58 31 103 1 9 5 25 10 35 4 10 9
53 11 97 2 43 9 98 14 122 12 55 30 478 30 734 0 277 15 462 45 578 30 115 30
124 7 145 -24 22 -65 22 -85 -1z"/>
<path d="M8860 10318 c-16 -17 -20 -35 -20 -84 0 -39 -9 -93 -24 -141 -56
-179 -62 -230 -76 -683 -5 -184 -12 -357 -15 -385 -7 -70 -33 -395 -44 -545
-6 -69 -13 -187 -16 -262 -6 -131 -5 -138 13 -138 17 0 49 28 65 56 10 17 34
207 52 399 8 94 21 240 29 325 14 149 24 316 46 785 11 224 21 288 66 430 34
103 38 213 10 244 -25 27 -60 27 -86 -1z"/>
<path d="M8647 7863 c-11 -18 -28 -130 -25 -163 8 -89 71 1 72 104 1 55 -1 61
-21 64 -11 2 -23 0 -26 -5z"/>
<path d="M1 7034 c0 -11 3 -14 6 -6 3 7 2 16 -1 19 -3 4 -6 -2 -5 -13z"/>
<path d="M14940 6810 c0 -5 5 -10 10 -10 6 0 10 5 10 10 0 6 -4 10 -10 10 -5
0 -10 -4 -10 -10z"/>
<path d="M6722 6723 c-19 -37 12 -59 38 -28 10 12 10 18 0 30 -16 20 -27 19
-38 -2z"/>
<path d="M2 6640 c0 -14 2 -19 5 -12 2 6 2 18 0 25 -3 6 -5 1 -5 -13z"/>
<path d="M1 6474 c0 -11 3 -14 6 -6 3 7 2 16 -1 19 -3 4 -6 -2 -5 -13z"/>
<path d="M0 6305 c0 -15 4 -24 10 -20 13 8 13 32 0 40 -6 4 -10 -5 -10 -20z"/>
<path d="M0 6100 l0 -65 20 33 c20 32 20 32 0 65 l-20 32 0 -65z"/>
<path d="M0 5840 c0 -18 4 -29 10 -25 13 8 13 42 0 50 -6 4 -10 -7 -10 -25z"/>
<path d="M0 5674 c0 -54 3 -95 6 -92 10 11 14 177 4 183 -6 4 -10 -30 -10 -91z"/>
<path d="M0 5420 c0 -73 11 -112 27 -97 4 5 2 12 -5 16 -9 6 -9 15 4 40 16 32
16 35 -5 75 l-21 41 0 -75z"/>
<path d="M0 5226 c0 -25 4 -46 9 -46 17 0 23 20 12 34 -6 7 -9 20 -5 29 3 8 1
18 -5 22 -7 4 -11 -10 -11 -39z"/>
<path d="M0 5069 c0 -45 2 -50 15 -39 15 13 20 47 9 74 -12 32 -24 15 -24 -35z"/>
<path d="M0 4914 c0 -29 4 -44 9 -38 15 15 18 76 4 81 -9 3 -13 -9 -13 -43z"/>
<path d="M0 4755 c0 -47 2 -85 4 -85 8 0 27 132 21 151 -14 43 -25 14 -25 -66z"/>
<path d="M0 4575 c0 -49 2 -55 21 -55 15 0 19 4 15 16 -3 9 -6 33 -6 55 0 28
-4 39 -15 39 -12 0 -15 -13 -15 -55z"/>
<path d="M0 4480 c0 -22 7 -25 29 -11 16 10 6 31 -15 31 -8 0 -14 -9 -14 -20z"/>
<path d="M1 4320 c1 -70 3 -81 17 -78 26 5 25 151 0 156 -16 3 -18 -6 -17 -78z"/>
<path d="M0 4071 c0 -37 4 -53 15 -58 24 -8 27 0 18 52 -11 68 -33 71 -33 6z"/>
<path d="M0 3790 c0 -63 2 -71 18 -68 11 2 16 11 14 23 -4 23 -4 50 0 85 2 17
-2 25 -14 28 -16 3 -18 -5 -18 -68z"/>
<path d="M1 3575 c2 -90 11 -109 35 -79 15 20 11 80 -7 99 -5 5 -9 22 -9 37 0
15 -5 28 -10 28 -7 0 -10 -32 -9 -85z"/>
<path d="M0 3356 c0 -24 6 -55 13 -68 l13 -25 17 24 c18 23 18 25 -3 68 -12
25 -26 45 -31 45 -5 0 -9 -20 -9 -44z"/>
<path d="M0 3144 c0 -47 3 -55 18 -52 35 7 32 108 -3 108 -11 0 -15 -13 -15
-56z"/>
<path d="M40 3015 c0 -8 5 -15 10 -15 6 0 10 7 10 15 0 8 -4 15 -10 15 -5 0
-10 -7 -10 -15z"/>
<path d="M0 2936 c0 -58 14 -73 40 -41 17 20 0 89 -23 93 -14 3 -17 -5 -17
-52z"/>
<path d="M16 2799 c-23 -33 -21 -96 3 -108 27 -15 38 4 35 62 -2 61 -16 77
-38 46z"/>
<path d="M13 2583 c-15 -6 -18 -73 -3 -73 15 0 43 48 36 65 -6 15 -12 17 -33
8z"/>
<path d="M25 2490 c-3 -5 1 -10 10 -10 9 0 13 5 10 10 -3 6 -8 10 -10 10 -2 0
-7 -4 -10 -10z"/>
<path d="M0 2436 c0 -25 4 -47 9 -51 6 -3 9 -13 9 -23 0 -9 3 -25 7 -34 5 -12
2 -20 -9 -24 -9 -3 -16 -14 -16 -23 0 -14 7 -17 31 -13 37 5 46 24 25 54 -12
16 -14 35 -10 73 6 47 4 52 -20 68 l-26 17 0 -44z"/>
<path d="M10 2221 c-16 -30 -12 -66 9 -85 18 -16 20 -16 29 0 5 9 8 24 6 33
-15 78 -24 89 -44 52z"/>
<path d="M12 2058 c-18 -18 -15 -113 4 -132 17 -18 24 -19 39 -8 12 8 12 78 1
107 -4 11 -10 26 -12 33 -4 15 -17 15 -32 0z"/>
<path d="M10 1838 c0 -16 19 -38 33 -38 4 0 7 10 5 22 -3 25 -38 39 -38 16z"/>
<path d="M12 1735 c-15 -33 -15 -50 0 -75 10 -16 10 -24 0 -40 -14 -23 -16
-126 -3 -135 8 -4 13 -105 12 -254 0 -19 -5 -39 -10 -44 -14 -14 -14 -37 0
-37 6 0 17 -7 26 -15 23 -24 33 -9 29 48 -2 29 3 79 11 112 15 57 15 60 -6 76
-23 19 -27 55 -10 93 8 17 8 33 1 54 -7 22 -7 33 1 42 9 8 8 14 -5 21 -23 13
-23 35 -1 48 17 9 17 10 0 29 -12 13 -15 22 -8 27 15 8 14 48 -1 63 -17 17
-23 15 -36 -13z"/>
<path d="M26 1073 c-11 -11 -6 -23 9 -23 8 0 15 4 15 9 0 13 -16 22 -24 14z"/>
<path d="M6 978 c12 -117 25 -146 57 -120 19 16 10 139 -11 145 -9 3 -25 8
-34 12 -14 6 -16 1 -12 -37z"/>
<path d="M28 798 c-10 -63 -5 -90 20 -99 20 -8 23 -6 21 14 -1 12 1 30 5 39
10 23 -7 72 -26 76 -10 2 -17 -7 -20 -30z"/>
<path d="M47 654 c-8 -8 1 -24 14 -24 5 0 9 7 9 15 0 15 -12 20 -23 9z"/>
<path d="M36 564 c-7 -18 11 -130 24 -154 7 -13 10 -12 15 5 4 11 11 29 17 41
7 15 5 35 -7 72 -17 52 -37 66 -49 36z"/>
<path d="M34 316 c-8 -35 4 -66 27 -66 27 0 45 41 30 69 -16 29 -49 27 -57 -3z"/>
<path d="M39 238 c-6 -24 -5 -77 2 -95 9 -24 43 -31 54 -12 10 16 -4 76 -21
94 -13 13 -33 20 -35 13z"/>
</g>
</svg>
