<?xml version="1.0" standalone="no"?>
<!DOCTYPE svg PUBLIC "-//W3C//DTD SVG 20010904//EN"
 "http://www.w3.org/TR/2001/REC-SVG-20010904/DTD/svg10.dtd">
<svg version="1.0" xmlns="http://www.w3.org/2000/svg"
 width="2448.000000pt" height="3264.000000pt" viewBox="0 0 2448.000000 3264.000000"
 preserveAspectRatio="xMidYMid meet">
<metadata>
Created by potrace 1.12, written by Peter Selinger 2001-2015
</metadata>
<g transform="translate(0.000000,3264.000000) scale(0.100000,-0.100000)"
fill="#000000" stroke="none">
<path d="M10985 27786 c-18 -28 -12 -70 15 -101 28 -31 33 -116 17 -290 -12
-123 -15 -311 -15 -820 1 -739 8 -977 38 -1242 40 -359 49 -617 54 -1598 3
-526 1 -1059 -5 -1210 -5 -148 -9 -441 -8 -650 1 -209 1 -387 1 -395 0 -8 -5
-224 -11 -480 -6 -256 -11 -652 -9 -880 1 -228 0 -509 -3 -625 -9 -457 -4
-835 13 -985 27 -227 37 -344 58 -649 12 -169 24 -289 31 -297 12 -15 65 -19
72 -6 4 6 -1 84 -33 517 -6 83 -23 258 -37 390 -21 192 -26 290 -26 490 -1
397 21 1880 32 2212 6 166 10 506 11 755 0 249 3 476 6 503 9 89 12 2224 3
2405 -5 96 -21 294 -36 440 l-28 265 3 783 c1 451 7 839 13 915 19 227 22 414
9 461 -26 94 -127 150 -165 92z"/>
<path d="M1365 27580 c-15 -7 -16 -9 -4 -9 9 -1 22 -8 29 -16 14 -17 66 -20
75 -5 19 31 -50 51 -100 30z"/>
<path d="M2601 27477 c-13 -6 -25 -20 -27 -29 -3 -21 -46 -78 -99 -133 -22
-23 -52 -66 -67 -96 -14 -30 -44 -90 -66 -134 -52 -107 -106 -259 -133 -375
-17 -73 -32 -87 -104 -97 -58 -8 -59 -9 -68 -46 -12 -49 -1 -62 44 -50 52 14
70 7 63 -25 -4 -15 -14 -38 -24 -52 -9 -14 -34 -65 -55 -115 -20 -49 -46 -102
-57 -117 -20 -30 -71 -48 -130 -48 -37 0 -78 -27 -78 -51 0 -14 21 -52 34 -62
21 -15 199 3 232 24 55 33 126 196 169 384 10 44 23 85 29 91 14 15 97 40 156
49 52 7 83 16 198 57 45 16 87 28 93 26 6 -2 13 -33 15 -68 4 -59 49 -323 76
-445 13 -63 23 -75 59 -75 48 0 56 33 36 149 -79 455 -78 444 -63 459 9 10 35
14 77 13 76 -1 162 24 157 46 -5 26 -77 44 -167 41 -83 -3 -85 -2 -92 22 -4
14 -7 66 -8 115 -2 152 -34 397 -63 477 -24 66 -82 93 -137 65z m29 -137 c13
-23 23 -101 51 -373 11 -109 17 -201 15 -206 -3 -4 -32 -11 -64 -14 -32 -4
-111 -22 -175 -42 -134 -40 -157 -43 -157 -17 0 24 79 257 124 364 46 110 88
189 138 256 43 57 52 62 68 32z"/>
<path d="M6207 27193 c-4 -3 -7 -19 -7 -34 0 -38 -15 -74 -49 -117 -44 -55
-169 -270 -241 -412 -34 -69 -73 -143 -85 -165 -12 -22 -37 -82 -55 -133 -18
-52 -39 -100 -47 -107 -38 -39 -67 -181 -40 -203 6 -6 28 -13 48 -17 44 -8 52
1 71 80 l15 60 64 1 c59 1 190 34 304 77 66 24 155 46 244 57 227 31 309 102
133 117 -52 4 -88 1 -132 -11 -81 -23 -90 -15 -90 75 0 37 -7 148 -16 245 -8
97 -13 218 -11 268 6 120 -5 195 -28 212 -20 15 -67 19 -78 7z m-16 -240 c6
-16 13 -71 14 -123 2 -52 10 -162 17 -245 7 -82 13 -170 13 -195 l0 -45 -60
-13 c-33 -8 -113 -29 -177 -48 -64 -19 -122 -34 -127 -34 -17 0 -13 37 8 78
10 20 26 62 36 92 23 72 71 182 155 355 37 77 73 155 80 173 15 39 27 41 41 5z
m149 -642 c0 -11 -50 -21 -99 -21 l-36 1 30 14 c34 15 105 20 105 6z"/>
<path d="M8887 27133 c-4 -3 -7 -19 -7 -35 0 -19 -5 -28 -16 -28 -45 0 -102
-68 -171 -205 -46 -90 -143 -294 -143 -300 0 -3 -22 -42 -48 -87 -27 -46 -66
-117 -87 -158 -21 -41 -48 -93 -61 -115 -42 -74 -114 -275 -114 -320 0 -44 9
-58 47 -69 27 -9 58 19 72 66 5 18 19 58 31 88 11 30 41 111 66 180 25 69 73
181 106 250 33 69 68 145 78 170 18 45 83 173 155 305 21 39 51 85 68 103 28
29 32 30 41 15 5 -9 13 -141 17 -292 4 -152 11 -322 15 -378 6 -97 5 -103 -13
-103 -47 0 -251 33 -282 46 -18 8 -49 14 -68 14 -33 0 -34 -1 -28 -29 3 -17 2
-32 -4 -36 -20 -12 -11 -23 41 -45 88 -38 140 -50 223 -51 376 -5 503 -3 543
9 44 13 56 37 25 49 -10 4 -29 15 -42 25 -22 17 -37 18 -155 12 -106 -6 -133
-4 -143 7 -8 10 -9 61 -4 174 3 88 4 264 1 390 -5 216 -7 233 -29 279 -17 34
-33 52 -57 62 -37 16 -48 17 -57 7z m-8 -974 c-15 -9 -32 -2 -24 11 3 5 13 6
21 3 12 -4 13 -8 3 -14z m81 -3 c0 -11 -19 -15 -25 -6 -3 5 1 10 9 10 9 0 16
-2 16 -4z"/>
<path d="M6300 26231 c-31 -9 -36 -42 -20 -125 19 -96 65 -143 100 -101 17 21
14 74 -8 160 -19 73 -26 79 -72 66z"/>
<path d="M7146 26204 c-13 -12 -16 -38 -16 -119 0 -57 -7 -157 -16 -222 -17
-125 -24 -479 -11 -525 8 -30 51 -48 69 -30 11 11 12 20 23 207 3 61 15 180
26 265 45 340 46 385 12 422 -20 22 -66 23 -87 2z"/>
<path d="M4035 26149 c-84 -14 -302 -132 -481 -262 -51 -36 -108 -72 -127 -81
-34 -14 -36 -16 -30 -53 7 -45 26 -63 69 -63 34 0 73 23 162 97 31 27 98 75
147 107 50 33 102 67 116 77 47 31 147 78 153 72 12 -13 4 -35 -69 -187 -85
-175 -100 -230 -90 -320 13 -121 71 -165 229 -174 82 -4 100 -1 182 26 204 68
339 127 435 189 78 50 90 83 31 83 -32 0 -171 -48 -262 -91 -197 -93 -390
-124 -461 -76 -33 23 -34 25 -34 93 1 73 5 83 152 391 40 85 47 148 18 169
-21 15 -63 16 -140 3z"/>
<path d="M12690 26140 c-84 -9 -171 -37 -239 -77 -109 -63 -229 -198 -275
-308 -10 -22 -26 -57 -37 -77 -10 -20 -19 -56 -19 -79 0 -57 52 -162 109 -219
83 -83 239 -140 383 -140 137 0 323 81 323 140 0 22 -4 25 -35 22 -19 -2 -67
-17 -107 -33 -162 -64 -357 -25 -494 98 -45 40 -74 109 -66 155 15 93 49 151
141 244 97 98 152 132 253 158 113 29 277 14 313 -29 18 -22 4 -47 -63 -117
-120 -125 -251 -178 -442 -178 -133 0 -151 -8 -141 -63 10 -54 31 -61 160 -54
131 7 254 43 382 113 214 115 299 305 177 392 -66 47 -189 67 -323 52z"/>
<path d="M8966 26077 c-15 -11 -18 -27 -18 -98 -1 -106 12 -142 49 -137 23 2
29 10 35 41 4 21 5 75 0 120 -6 72 -10 82 -27 85 -11 1 -28 -3 -39 -11z"/>
<path d="M9751 26020 c-30 -4 -60 -6 -68 -3 -7 3 -39 -4 -71 -16 -63 -24 -62
-23 -122 -175 -40 -98 -63 -207 -57 -267 19 -216 253 -272 535 -130 103 52
163 97 219 162 79 93 102 175 69 254 -47 111 -315 204 -505 175z m221 -131
c67 -14 142 -52 162 -81 9 -12 16 -36 16 -54 0 -37 -54 -122 -85 -134 -11 -4
-34 -19 -51 -32 -57 -47 -170 -92 -270 -107 -86 -14 -149 -5 -178 25 -55 54
-11 230 86 347 l40 47 113 0 c63 0 138 -5 167 -11z"/>
<path d="M14122 25944 c-20 -20 -46 -40 -59 -45 -12 -4 -34 -27 -49 -50 -40
-64 -203 -266 -271 -336 -58 -61 -94 -83 -133 -83 -27 0 -78 47 -102 94 -18
36 -20 52 -15 134 6 83 5 94 -13 112 -42 42 -103 11 -116 -59 -11 -55 12 -165
49 -239 26 -51 45 -74 88 -104 53 -38 55 -39 123 -33 98 8 152 40 251 151 81
92 230 284 277 359 14 22 31 57 39 78 12 33 11 39 -1 47 -23 15 -30 12 -68
-26z"/>
<path d="M14613 25966 c-70 -17 -191 -88 -247 -145 -64 -65 -89 -137 -90 -261
-1 -147 43 -244 134 -290 82 -42 209 -34 276 16 69 53 31 94 -65 69 -75 -19
-115 -19 -157 1 -40 19 -62 55 -70 117 -9 62 6 83 68 97 170 40 358 188 358
283 0 50 -27 97 -64 112 -42 18 -73 18 -143 1z m95 -114 c8 -24 -90 -105 -185
-154 -50 -27 -96 -48 -102 -48 -35 0 16 100 72 141 90 67 202 99 215 61z"/>
<path d="M15328 25870 c-31 -27 -87 -94 -126 -147 -79 -111 -191 -243 -205
-243 -5 0 -18 11 -29 25 -26 33 -53 32 -89 -4 -24 -25 -29 -38 -29 -80 0 -27
4 -52 9 -56 5 -3 12 -19 16 -35 7 -33 25 -37 83 -20 73 20 228 183 352 368 36
53 72 97 80 97 22 0 25 -107 6 -228 -32 -200 -10 -353 47 -331 21 8 21 7 57
219 53 305 51 394 -8 458 -20 21 -35 27 -67 27 -35 0 -49 -7 -97 -50z m-288
-415 c-18 -19 -35 -33 -37 -31 -6 5 50 66 61 66 6 0 -5 -16 -24 -35z"/>
<path d="M1409 24796 c-2 -2 -94 -6 -204 -10 -210 -7 -222 -8 -350 -33 -89
-16 -254 -69 -271 -87 -7 -6 -15 -25 -19 -43 -5 -26 -2 -34 14 -43 17 -8 31
-5 73 16 29 15 68 31 86 36 17 4 49 12 70 18 65 17 262 39 407 45 77 4 165 8
195 10 68 5 750 5 805 0 38 -3 353 -7 1760 -22 735 -7 793 -9 1085 -21 124 -5
236 -9 250 -9 14 0 102 -4 195 -8 259 -13 348 -12 352 3 3 7 -4 12 -16 12 -11
0 -23 5 -26 10 -3 6 0 10 7 10 9 0 9 3 -2 10 -23 15 -43 12 -36 -5 3 -10 -1
-15 -13 -15 -10 0 -24 7 -31 15 -7 8 -22 15 -33 15 -20 0 -21 0 -1 -15 21 -16
47 -16 -451 -1 -99 3 -261 10 -360 16 -99 6 -218 13 -265 15 -47 3 -105 6
-130 8 -25 2 -50 -1 -56 -5 -17 -12 -44 1 -37 18 3 9 -2 14 -16 14 -13 0 -21
-6 -21 -16 0 -14 -7 -15 -37 -10 -21 3 -90 6 -153 7 -63 0 -108 3 -100 6 8 2
21 7 29 9 10 3 11 8 4 15 -15 15 -83 1 -76 -16 4 -11 -31 -14 -189 -15 -106 0
-208 -3 -227 -6 -25 -4 -41 0 -62 15 -30 23 -55 27 -61 11 -2 -6 -32 -13 -68
-16 -53 -5 -68 -3 -79 10 -16 19 -42 21 -39 4 2 -8 -11 -14 -34 -16 -28 -2
-37 1 -41 15 -4 17 -5 17 -6 1 -1 -13 -9 -18 -28 -17 l-28 1 25 8 c45 13 -3
23 -51 10 -42 -11 -56 -11 -52 0 1 3 -34 6 -78 7 -46 1 -79 -2 -79 -8 0 -17
-123 -8 -136 10 -9 12 -15 13 -26 3 -8 -6 -18 -8 -22 -4 -4 4 -29 8 -54 9 -78
3 -251 11 -352 18 -105 6 -935 16 -941 11z"/>
<path d="M3715 24760 c-4 -6 5 -10 20 -10 15 0 24 4 20 10 -3 6 -12 10 -20 10
-8 0 -17 -4 -20 -10z"/>
<path d="M3410 24750 c0 -5 4 -10 9 -10 6 0 13 5 16 10 3 6 -1 10 -9 10 -9 0
-16 -4 -16 -10z"/>
<path d="M3798 24753 c7 -3 16 -2 19 1 4 3 -2 6 -13 5 -11 0 -14 -3 -6 -6z"/>
<path d="M3890 24756 c0 -8 61 -12 66 -4 3 4 -11 8 -30 8 -20 0 -36 -2 -36 -4z"/>
<path d="M5570 24700 c0 -5 6 -10 14 -10 8 0 18 5 21 10 3 6 -3 10 -14 10 -12
0 -21 -4 -21 -10z"/>
<path d="M5861 24661 c16 -22 32 -30 67 -35 26 -3 60 -9 75 -12 24 -6 28 -4
25 12 -4 22 -58 36 -106 27 -28 -5 -34 -2 -39 16 -3 12 -13 21 -24 21 -19 0
-19 -1 2 -29z"/>
<path d="M5915 24681 c3 -5 39 -9 81 -10 41 0 79 -3 83 -6 15 -8 371 -14 366
-5 -9 15 -74 20 -308 25 -133 3 -226 1 -222 -4z"/>
<path d="M6460 24660 c0 -5 12 -10 26 -10 14 0 23 4 19 10 -3 6 -15 10 -26 10
-10 0 -19 -4 -19 -10z"/>
<path d="M8285 24630 c-3 -5 -1 -10 4 -10 6 0 11 5 11 10 0 6 -2 10 -4 10 -3
0 -8 -4 -11 -10z"/>
<path d="M6055 24620 c3 -5 13 -10 21 -10 8 0 14 5 14 10 0 6 -9 10 -21 10
-11 0 -17 -4 -14 -10z"/>
<path d="M6120 24620 c0 -5 14 -10 30 -10 17 0 30 5 30 10 0 6 -13 10 -30 10
-16 0 -30 -4 -30 -10z"/>
<path d="M8448 24623 c7 -3 16 -2 19 1 4 3 -2 6 -13 5 -11 0 -14 -3 -6 -6z"/>
<path d="M8488 24623 c6 -2 18 -2 25 0 6 3 1 5 -13 5 -14 0 -19 -2 -12 -5z"/>
<path d="M6300 24611 c0 -4 28 -11 61 -15 92 -9 121 -8 117 6 -5 14 -178 23
-178 9z"/>
<path d="M6578 24612 c-92 -5 -67 -22 35 -24 124 -2 250 -6 510 -13 155 -5
217 -4 217 4 0 6 -3 11 -7 11 -5 0 -71 2 -148 5 -77 3 -225 7 -330 10 -104 3
-197 7 -205 8 -8 2 -41 1 -72 -1z"/>
<path d="M9303 24603 c9 -2 23 -2 30 0 6 3 -1 5 -18 5 -16 0 -22 -2 -12 -5z"/>
<path d="M7405 24590 c-4 -6 -5 -13 -4 -15 9 -8 198 -12 210 -4 17 10 15 11
-36 14 -22 1 -68 5 -101 9 -43 5 -64 4 -69 -4z"/>
<path d="M10238 24593 c7 -3 16 -2 19 1 4 3 -2 6 -13 5 -11 0 -14 -3 -6 -6z"/>
<path d="M10288 24593 c6 -2 18 -2 25 0 6 3 1 5 -13 5 -14 0 -19 -2 -12 -5z"/>
<path d="M10360 24590 c0 -5 5 -10 10 -10 6 0 10 5 10 10 0 6 -4 10 -10 10 -5
0 -10 -4 -10 -10z"/>
<path d="M10455 24590 c3 -5 8 -10 11 -10 2 0 4 5 4 10 0 6 -5 10 -11 10 -5 0
-7 -4 -4 -10z"/>
<path d="M7355 24580 c-3 -5 3 -10 15 -10 12 0 18 5 15 10 -3 6 -10 10 -15 10
-5 0 -12 -4 -15 -10z"/>
<path d="M7630 24579 c0 -4 4 -10 9 -13 7 -5 245 -8 311 -5 8 1 107 -2 220 -5
638 -18 1580 -28 1580 -18 0 11 -88 19 -235 21 -60 1 -159 4 -220 6 -113 5
-645 13 -1297 19 -203 1 -368 -1 -368 -5z"/>
<path d="M9760 24541 c0 -6 3 -12 8 -12 23 -4 257 -9 442 -9 403 -1 486 0 470
10 -24 14 -920 25 -920 11z"/>
<path d="M10760 24543 c-117 -12 -57 -30 92 -27 106 2 140 6 127 18 -7 5 -181
13 -219 9z"/>
<path d="M11330 24541 c-8 -5 -11 -13 -7 -17 4 -4 118 -8 254 -10 1121 -13
2356 -33 2448 -39 44 -3 215 -10 380 -15 412 -14 669 -27 1010 -51 357 -26
487 -28 509 -10 20 17 21 74 1 91 -8 7 -25 12 -37 11 -128 -5 -415 4 -667 19
-115 7 -158 7 -168 -2 -11 -9 -23 -8 -50 1 -31 12 -37 11 -45 -3 -13 -24 -41
-21 -33 4 5 16 2 20 -14 20 -12 0 -21 -7 -21 -15 0 -19 0 -19 -39 1 -26 13
-38 14 -57 5 -33 -15 -64 -14 -64 2 0 8 -3 9 -8 1 -10 -15 -83 -26 -162 -25
-36 0 -265 3 -510 6 -425 4 -634 8 -1035 20 -396 11 -1670 16 -1685 6z"/>
<path d="M14523 24543 c9 -2 23 -2 30 0 6 3 -1 5 -18 5 -16 0 -22 -2 -12 -5z"/>
<path d="M14625 24540 c3 -5 11 -10 16 -10 6 0 7 5 4 10 -3 6 -11 10 -16 10
-6 0 -7 -4 -4 -10z"/>
<path d="M20045 24486 c-121 -17 -155 -38 -155 -96 0 -33 60 -54 119 -41 25 6
104 18 175 27 108 14 152 14 266 5 173 -14 233 -14 265 1 29 13 33 33 8 47
-18 9 -117 32 -248 57 -86 16 -309 16 -430 0z"/>
<path d="M18545 24386 c-90 -15 -193 -41 -230 -58 -26 -12 -50 -60 -41 -83 3
-8 17 -20 31 -27 28 -12 25 -13 190 35 54 15 118 22 285 28 242 9 285 16 285
43 0 25 -15 31 -125 51 -129 23 -297 27 -395 11z"/>
<path d="M22191 24362 c-11 -20 -39 -309 -43 -437 l-3 -80 -120 -7 c-119 -7
-136 -9 -249 -43 -98 -29 -133 -86 -83 -133 30 -28 32 -28 144 8 92 29 286 60
299 47 4 -3 1 -41 -5 -84 -6 -43 -15 -126 -21 -185 -5 -59 -17 -137 -27 -174
-17 -64 -17 -66 2 -80 10 -8 22 -14 26 -14 17 0 63 47 76 78 16 38 42 266 44
380 1 42 6 75 13 79 6 4 90 10 186 14 186 7 241 18 220 44 -7 8 -20 15 -29 15
-9 0 -32 9 -52 19 -38 21 -157 41 -238 41 -26 0 -55 6 -65 13 -15 11 -16 19
-7 53 10 37 23 159 38 335 6 74 5 76 -23 102 -33 31 -69 35 -83 9z"/>
<path d="M16725 24251 c-76 -8 -250 -33 -343 -51 -56 -10 -82 -34 -82 -77 0
-57 30 -61 190 -23 101 24 175 34 295 41 232 13 438 34 463 48 31 17 28 47 -5
55 -45 10 -430 15 -518 7z"/>
<path d="M20183 24168 c-16 -18 -47 -62 -67 -98 -20 -36 -58 -94 -83 -130 -45
-62 -189 -295 -371 -595 -46 -77 -100 -159 -118 -182 -41 -50 -58 -91 -45
-107 5 -6 30 -12 55 -14 l46 -2 32 63 c18 34 42 82 53 107 11 25 48 98 83 163
68 125 77 133 132 103 21 -12 30 -12 60 1 100 43 260 77 200 43 -49 -28 -52
-34 -63 -146 -9 -95 -8 -116 5 -150 15 -38 17 -39 64 -39 l49 0 -3 35 c-2 19
-5 89 -8 156 l-6 121 32 26 c19 17 44 27 63 27 l30 0 -21 -23 c-32 -34 -27
-44 27 -56 40 -8 57 -8 85 4 47 20 95 19 103 -1 3 -9 -11 -48 -35 -92 -72
-137 -122 -302 -122 -406 0 -44 27 -99 57 -114 55 -28 156 -20 335 28 94 26
209 187 222 311 9 83 -8 179 -39 230 -31 48 -100 101 -167 127 -96 38 -260 63
-405 63 -150 0 -144 -5 -123 84 5 22 16 94 25 160 9 66 21 152 26 190 11 81 1
116 -37 134 -35 15 -36 15 -71 -21z m-37 -235 c-3 -65 -9 -166 -12 -224 l-6
-106 -62 -6 c-33 -3 -87 -9 -120 -13 l-58 -7 7 34 c12 57 94 197 95 162 0 -6
-4 -15 -10 -18 -5 -3 -10 -14 -10 -23 0 -15 1 -15 17 1 10 10 17 31 16 54 -1
27 12 61 49 127 100 179 103 179 94 19z m605 -495 c78 -53 97 -84 105 -176 9
-92 -14 -177 -60 -221 -32 -30 -153 -84 -216 -96 -52 -9 -88 8 -98 47 -13 50
19 173 78 303 40 87 66 148 73 168 10 28 51 20 118 -25z"/>
<path d="M3282 24143 c-29 -15 -71 -43 -93 -64 -38 -35 -45 -37 -103 -37 -147
1 -286 -135 -331 -324 -19 -80 -19 -129 0 -220 31 -148 129 -288 234 -334 73
-33 170 -34 265 -4 93 29 127 52 239 163 78 77 103 110 131 169 18 40 43 80
54 89 27 23 46 135 40 234 -4 65 -11 89 -49 162 -53 103 -106 156 -180 177
-78 24 -145 20 -207 -11z m238 -90 c39 -18 99 -90 120 -143 7 -19 18 -41 23
-48 7 -9 6 -17 -1 -24 -8 -8 -13 -6 -17 8 -15 48 -59 124 -90 154 -19 19 -35
29 -35 22 0 -7 3 -12 8 -12 8 0 41 -61 62 -114 18 -47 24 -186 11 -244 -16
-66 -85 -168 -174 -260 -56 -57 -91 -83 -153 -113 -100 -48 -155 -51 -232 -13
-93 46 -149 135 -178 281 -27 139 2 246 92 335 67 67 124 74 98 13 -20 -49
-17 -72 12 -91 19 -13 28 -14 36 -6 14 14 49 123 42 133 -8 14 39 80 69 96 97
50 229 61 307 26z m154 -268 c3 -8 1 -15 -4 -15 -6 0 -10 7 -10 15 0 8 2 15 4
15 2 0 6 -7 10 -15z"/>
<path d="M3197 23977 c-31 -41 -34 -57 -9 -57 9 0 26 -7 36 -15 11 -8 26 -15
33 -15 7 0 52 -31 100 -70 48 -38 97 -70 108 -70 29 0 45 19 45 52 0 22 -13
38 -67 81 -106 84 -155 116 -189 123 -26 5 -34 1 -57 -29z"/>
<path d="M9484 24099 c-17 -5 -39 -18 -49 -29 -16 -17 -17 -25 -7 -40 18 -30
-12 -85 -64 -115 -141 -83 -273 -356 -274 -566 0 -247 149 -401 361 -370 166
24 313 121 438 291 93 125 129 218 138 355 9 141 -32 240 -138 341 -111 104
-295 165 -405 133z m208 -127 c169 -79 252 -232 219 -401 -13 -67 -54 -165
-82 -196 -10 -11 -38 -45 -63 -76 -58 -73 -176 -167 -245 -196 -72 -29 -133
-29 -196 1 -96 45 -120 95 -119 246 1 129 24 207 93 313 50 76 107 131 179
174 31 18 42 31 42 49 0 14 -7 27 -15 30 -23 9 -18 33 15 66 27 27 36 30 70
25 22 -3 68 -18 102 -35z"/>
<path d="M13464 24090 c-36 -14 -66 -61 -59 -90 4 -14 6 -99 6 -189 -1 -139
-6 -187 -30 -310 -20 -97 -28 -166 -26 -206 3 -33 4 -63 5 -67 0 -5 7 -8 15
-8 27 0 129 241 161 380 20 85 33 308 23 390 -6 52 -13 69 -34 87 -29 25 -30
26 -61 13z"/>
<path d="M18313 24058 c-12 -13 -37 -50 -56 -83 -19 -33 -75 -132 -125 -220
-126 -223 -190 -329 -287 -480 -97 -149 -103 -174 -43 -189 56 -14 53 -16 138
175 33 74 35 76 79 86 56 13 123 37 176 62 56 27 185 65 192 57 4 -4 -8 -19
-27 -34 -33 -28 -33 -29 -27 -92 4 -35 10 -67 15 -71 4 -4 25 -4 47 0 l40 7 0
92 c0 91 0 92 33 123 17 16 32 35 32 40 0 6 -16 17 -36 25 l-35 15 6 132 c6
145 -10 319 -32 355 -9 14 -23 22 -41 22 -17 0 -37 -10 -49 -22z m0 -170 c3
-13 7 -99 8 -192 l2 -170 -59 -12 c-33 -7 -89 -16 -126 -19 -84 -9 -86 -3 -22
92 26 37 64 106 86 153 22 47 49 104 60 128 22 46 43 54 51 20z"/>
<path d="M16644 23963 c-19 -43 -46 -100 -61 -128 -36 -68 -77 -149 -108 -217
-21 -45 -32 -59 -53 -63 -73 -15 -88 -22 -102 -48 -11 -20 -12 -31 -4 -44 9
-15 31 -19 120 -24 211 -12 266 -20 259 -37 -12 -31 -48 -198 -53 -241 l-4
-44 32 7 c18 3 39 6 46 6 24 0 44 58 58 163 14 97 13 103 -5 116 -25 17 -24
31 1 31 10 0 24 -9 30 -20 13 -24 42 -26 60 -5 7 8 20 15 29 15 37 0 57 52 25
64 -9 3 -32 6 -52 6 -54 0 -66 11 -58 54 11 60 8 309 -5 362 -13 55 -36 105
-53 116 -6 4 -24 8 -39 8 -26 0 -32 -7 -63 -77z m44 -169 c13 -50 13 -256 0
-269 -8 -8 -157 15 -163 25 -3 4 24 69 60 143 36 75 65 141 65 147 0 7 6 10
13 8 6 -3 18 -27 25 -54z"/>
<path d="M6357 24004 c-1 -2 -54 -5 -117 -8 -106 -6 -121 -9 -190 -42 -59 -29
-95 -57 -175 -138 -148 -147 -185 -210 -185 -311 0 -110 74 -280 153 -351 95
-85 187 -117 381 -129 78 -6 116 -3 166 9 209 54 473 232 539 365 55 109 63
204 25 281 -88 179 -283 301 -507 319 -48 4 -89 6 -90 5z m260 -149 c71 -33
107 -59 154 -106 92 -93 105 -139 78 -276 -10 -48 -17 -63 -30 -63 -9 0 -24
-10 -32 -23 -48 -73 -320 -237 -427 -257 -121 -23 -246 -8 -346 41 -138 68
-194 151 -202 301 -4 84 -3 89 28 145 41 71 81 123 97 123 7 0 17 -9 23 -20 6
-11 16 -20 23 -20 17 0 57 62 57 87 0 29 10 53 22 53 6 0 21 11 33 24 24 26
105 43 147 31 54 -15 105 -41 134 -67 25 -24 39 -29 70 -26 36 3 39 5 38 33
-1 17 -5 41 -9 54 -8 22 -6 24 21 17 16 -4 71 -27 121 -51z"/>
<path d="M15090 23732 c-48 -24 -52 -60 -10 -96 34 -28 85 -35 121 -16 23 13
25 50 4 89 -23 45 -58 52 -115 23z"/>
<path d="M18918 23420 c-14 -11 -38 -20 -53 -20 -21 0 -30 -8 -45 -42 -10 -24
-22 -60 -25 -80 -7 -34 -5 -38 14 -38 24 0 27 -24 11 -80 -21 -69 -108 -426
-120 -492 -6 -37 -9 -72 -5 -77 3 -6 25 -11 48 -11 l42 0 16 83 c21 109 153
572 186 651 23 57 24 66 12 92 -18 36 -47 41 -81 14z"/>
<path d="M16358 23413 c-37 -44 -168 -263 -168 -283 0 -26 17 -60 31 -60 15 0
65 57 105 118 19 29 34 54 34 56 0 2 16 39 36 81 20 42 33 83 30 91 -8 20 -50
18 -68 -3z"/>
<path d="M17230 23330 c-127 -45 -311 -140 -331 -171 -18 -28 -9 -57 23 -77
38 -24 53 -19 106 40 21 23 69 56 114 79 126 63 136 53 54 -55 -30 -39 -65
-93 -79 -121 -30 -62 -51 -155 -42 -195 8 -35 48 -70 82 -70 62 0 259 99 433
217 52 36 114 108 105 123 -14 22 -15 22 -266 -116 -167 -92 -204 -107 -229
-94 -11 6 -20 17 -20 24 0 31 118 215 203 315 38 45 49 75 37 106 -8 22 -15
25 -57 25 -27 0 -85 -13 -133 -30z"/>
<path d="M16485 22660 c-88 -4 -236 -19 -330 -34 -93 -14 -200 -26 -237 -26
-69 0 -73 -2 -69 -42 1 -10 -3 -18 -8 -18 -6 0 -11 -11 -11 -24 0 -18 8 -27
31 -35 53 -18 134 -13 354 24 116 19 280 39 365 44 160 9 210 22 210 52 0 26
-52 59 -102 63 -23 2 -115 0 -203 -4z"/>
<path d="M18365 22594 c-120 -31 -278 -54 -371 -54 l-75 0 -15 -35 c-22 -53
-18 -72 18 -91 75 -39 496 35 614 107 40 24 49 54 23 80 -25 25 -77 23 -194
-7z"/>
<path d="M19726 22478 c-25 -38 -162 -356 -200 -463 -19 -55 -55 -149 -81
-209 -25 -60 -55 -142 -67 -182 -18 -63 -19 -77 -8 -104 10 -23 19 -30 41 -30
40 0 52 24 85 168 15 68 33 131 40 140 11 15 13 14 23 -10 16 -43 38 -48 95
-22 56 25 240 68 260 61 7 -3 18 -34 25 -69 7 -34 21 -94 32 -133 10 -38 19
-85 19 -103 0 -38 40 -85 67 -80 43 8 47 141 9 282 -15 54 -25 100 -22 103 3
3 49 14 103 25 128 25 149 36 146 73 -1 15 -7 33 -13 39 -7 7 -59 11 -135 11
-69 0 -128 4 -134 10 -5 6 -16 42 -24 81 -17 81 -50 163 -114 284 -80 149
-114 179 -147 128z m27 -185 c12 -14 93 -210 130 -315 4 -10 13 -18 22 -18 8
0 15 -4 15 -8 0 -5 -33 -7 -74 -4 -87 5 -196 -23 -244 -63 -56 -47 -56 -31 2
101 24 55 61 151 81 212 20 62 40 112 44 112 4 0 15 -8 24 -17z"/>
<path d="M9390 22472 c-20 -16 -25 -38 -42 -178 -40 -319 -18 -993 33 -1025
47 -30 51 -1 54 430 4 399 9 477 45 629 25 107 25 127 -2 146 -30 21 -61 20
-88 -2z"/>
<path d="M21862 22438 c-50 -64 -80 -239 -60 -363 6 -38 11 -83 12 -100 l1
-29 -68 -1 c-63 0 -71 -3 -93 -28 -27 -32 -32 -82 -10 -112 11 -16 21 -17 72
-10 32 4 73 8 89 9 l30 1 5 -102 c4 -83 9 -107 26 -130 26 -35 56 -37 65 -3 4
14 7 69 8 123 1 70 4 97 14 98 6 0 89 2 182 3 94 1 178 6 187 10 27 13 48 62
34 81 -12 17 -141 40 -306 55 -66 6 -98 13 -106 24 -16 22 -25 252 -13 351 11
99 2 135 -35 135 -13 0 -28 -6 -34 -12z"/>
<path d="M3395 22385 c-218 -35 -360 -98 -432 -193 -18 -23 -35 -59 -38 -80
-3 -20 -13 -62 -22 -92 -25 -81 -29 -241 -9 -321 48 -189 152 -288 317 -304
121 -11 243 22 320 88 60 51 96 77 107 77 5 0 22 17 38 38 52 69 132 167 166
202 38 41 78 97 78 110 0 5 10 29 22 52 47 89 15 217 -75 301 -115 106 -289
151 -472 122z m223 -105 c98 -13 162 -43 217 -101 45 -48 63 -85 28 -58 -10 8
-21 18 -25 24 -18 25 -16 -7 3 -53 15 -35 19 -62 15 -84 -17 -90 -205 -333
-324 -419 -204 -147 -423 -125 -498 50 -69 159 -58 343 28 469 40 58 111 92
193 92 63 0 85 11 85 41 0 12 -9 19 -27 21 -28 4 -28 4 7 15 44 14 201 15 298
3z m302 -253 c0 -18 -2 -19 -10 -7 -13 20 -13 43 0 35 6 -3 10 -16 10 -28z"/>
<path d="M6635 22383 c-38 -5 -131 -37 -213 -74 -41 -19 -80 -47 -110 -79 -25
-28 -53 -50 -62 -50 -8 0 -40 -9 -70 -20 -42 -15 -70 -35 -117 -84 -70 -73
-96 -119 -118 -203 -37 -143 0 -297 97 -408 57 -64 114 -93 231 -116 87 -18
112 -19 171 -9 151 24 296 110 447 267 138 141 193 255 193 399 0 112 -38 205
-123 297 -62 69 -184 98 -326 80z m166 -98 c143 -51 196 -169 181 -406 -1 -15
-11 -37 -21 -50 l-19 -24 5 30 5 30 -22 -25 c-11 -14 -36 -47 -54 -75 -45 -68
-197 -213 -274 -263 -78 -50 -144 -66 -255 -60 -72 4 -95 10 -153 39 -57 29
-72 43 -103 93 -33 54 -36 65 -39 155 -3 78 0 107 17 155 27 76 63 123 102
131 17 4 48 25 69 46 21 21 47 39 58 39 42 0 72 22 72 52 0 23 9 34 48 59 26
16 83 41 127 54 125 38 191 43 256 20z"/>
<path d="M6957 21893 c-4 -3 -7 -11 -7 -17 0 -6 5 -5 12 2 6 6 9 14 7 17 -3 3
-9 2 -12 -2z"/>
<path d="M13345 22373 c-50 -5 -130 -30 -170 -55 -23 -13 -41 -16 -75 -12 -53
7 -199 -18 -271 -46 -75 -30 -123 -66 -173 -129 -69 -89 -81 -127 -81 -261 0
-110 1 -118 32 -176 58 -111 198 -209 338 -235 80 -15 216 -6 307 21 110 33
277 123 349 188 34 31 78 81 97 112 20 30 41 60 49 65 7 6 22 37 34 70 53 150
-22 340 -162 411 -50 25 -173 55 -212 52 -12 -1 -40 -3 -62 -5z m129 -112
c159 -44 225 -141 196 -291 -27 -143 -115 -246 -281 -328 -155 -77 -280 -97
-420 -68 -173 37 -269 145 -269 302 0 162 93 281 234 300 54 8 58 -1 17 -40
-31 -30 -45 -62 -30 -71 19 -13 108 28 154 72 56 52 83 65 108 51 13 -7 15
-13 7 -28 -18 -33 -12 -60 17 -71 34 -13 71 0 123 43 46 38 54 82 20 113 -43
39 13 46 124 16z"/>
<path d="M18424 22350 c-19 -7 -51 -53 -228 -315 -34 -50 -87 -140 -118 -201
-32 -61 -66 -119 -78 -129 -11 -10 -20 -24 -20 -30 0 -10 -97 -190 -146 -272
-7 -11 -30 -26 -51 -33 -21 -6 -72 -24 -113 -40 -113 -44 -341 -106 -470 -130
-108 -19 -173 -19 -186 1 -14 23 123 192 234 288 83 73 92 116 27 141 -38 15
-311 -63 -425 -120 -30 -15 -75 -33 -98 -39 -55 -15 -78 -47 -60 -87 7 -16 17
-32 23 -36 26 -19 75 -6 155 42 85 52 158 90 172 90 21 0 2 -37 -58 -112 -124
-154 -133 -209 -46 -268 32 -21 51 -25 134 -28 79 -3 116 1 205 23 197 48 394
117 463 160 49 31 54 31 74 0 9 -14 23 -25 30 -25 28 0 66 43 100 113 20 39
54 106 76 147 22 41 40 84 40 96 0 19 7 22 88 27 71 6 174 25 311 59 9 2 17
-8 21 -27 21 -93 96 -155 138 -113 18 18 14 39 -18 91 -27 41 -34 47 -65 47
-19 0 -35 5 -35 10 0 6 31 10 72 10 55 0 83 6 124 25 66 31 74 43 43 68 -21
17 -34 19 -111 13 -53 -4 -89 -3 -92 3 -4 6 -13 83 -22 173 -13 149 -13 203 2
310 9 59 -35 91 -92 68z m-60 -177 c-4 -21 -8 -40 -10 -42 -2 -2 3 -15 10 -30
7 -14 16 -60 19 -101 3 -41 15 -110 27 -153 12 -43 20 -80 18 -82 -2 -2 -48
-9 -103 -14 -55 -6 -117 -14 -137 -17 -50 -9 -50 11 -3 77 41 58 125 220 125
243 0 9 -4 16 -10 16 -5 0 -10 5 -10 11 0 12 46 112 57 122 16 17 23 4 17 -30z"/>
<path d="M16224 22320 c-43 -17 -121 -142 -173 -280 -46 -119 -181 -576 -181
-610 0 -29 36 -60 68 -60 43 0 70 37 87 116 8 38 15 85 15 105 l0 36 93 11
c50 7 133 26 182 43 50 17 106 33 125 36 31 5 33 4 21 -11 -7 -9 -20 -16 -28
-16 -23 0 -23 -19 -5 -145 17 -115 18 -120 42 -123 14 -2 31 -9 38 -15 10 -8
19 -5 34 11 21 21 22 24 9 113 -7 51 -21 116 -30 145 -18 52 -18 53 3 58 12 3
33 6 47 6 29 0 141 53 159 75 10 12 10 18 -1 31 -11 14 -26 15 -85 10 -39 -4
-86 -11 -104 -16 -42 -12 -56 -1 -65 48 -20 117 -80 302 -115 363 -45 76 -78
93 -136 69z m32 -175 c8 -13 29 -70 46 -127 16 -57 40 -129 52 -160 13 -32 21
-60 18 -63 -3 -3 -21 -5 -39 -5 -19 0 -66 -6 -106 -14 -127 -26 -132 -26 -131
9 1 17 29 109 63 205 33 96 61 176 61 178 0 11 23 -3 36 -23z"/>
<path d="M14713 22070 c-47 -19 -56 -78 -17 -109 29 -23 68 -27 108 -11 30 11
34 45 11 89 -20 40 -54 50 -102 31z"/>
<path d="M20540 21801 c-25 -10 -53 -30 -63 -43 -18 -23 -18 -28 -3 -55 19
-39 40 -46 84 -32 51 17 185 6 255 -21 67 -25 113 -61 105 -81 -9 -23 -231
-92 -301 -93 -63 -1 -81 11 -52 36 70 56 83 88 44 109 -71 38 -189 -82 -189
-191 0 -32 54 -86 96 -96 74 -19 222 18 368 91 71 36 84 47 108 90 15 28 28
61 28 76 0 14 5 30 11 36 22 22 -28 87 -101 131 -97 58 -298 80 -390 43z"/>
<path d="M18737 21529 c-31 -18 -96 -116 -107 -161 -18 -78 -12 -133 17 -183
16 -26 35 -45 45 -45 10 0 29 18 42 39 19 30 24 47 19 75 -8 49 13 116 48 157
37 43 38 81 3 108 -30 23 -41 25 -67 10z"/>
<path d="M15826 20994 c-56 -20 -76 -42 -76 -80 0 -49 24 -58 107 -39 76 18
91 16 275 -26 70 -15 189 -34 265 -40 250 -21 583 3 651 47 32 21 28 50 -10
70 -29 15 -45 15 -138 5 -131 -14 -360 -14 -488 -1 -53 6 -174 26 -268 45
-183 38 -256 42 -318 19z"/>
<path d="M13127 20942 c-18 -19 -32 -50 -42 -93 -8 -35 -28 -122 -45 -194 -42
-183 -55 -387 -35 -581 15 -145 25 -184 49 -184 43 0 57 67 71 341 10 207 22
274 86 502 22 76 39 153 39 171 0 67 -74 90 -123 38z"/>
<path d="M6550 20941 c-6 -12 -7 -29 -1 -43 16 -42 57 -340 77 -553 23 -253
27 -277 46 -289 29 -18 47 12 58 94 14 108 12 239 -5 365 -8 61 -20 155 -25
210 -12 119 -28 205 -42 223 -6 6 -30 12 -54 12 -33 0 -46 -5 -54 -19z"/>
<path d="M20680 20874 c-43 -8 -176 -16 -310 -19 -300 -6 -324 -9 -417 -46
-151 -59 -190 -96 -159 -144 25 -37 49 -39 114 -6 87 44 166 61 283 61 165 1
384 17 509 39 63 10 157 22 209 25 130 8 149 26 79 76 -39 29 -45 30 -137 29
-53 -1 -130 -7 -171 -15z"/>
<path d="M3384 20825 c-169 -37 -307 -143 -378 -289 -54 -111 -81 -320 -56
-438 24 -112 96 -242 165 -296 53 -42 134 -55 248 -41 101 13 163 46 288 155
111 97 173 166 216 244 54 97 66 150 61 270 -4 97 -8 115 -37 175 -40 81 -76
123 -144 168 -97 65 -222 82 -363 52z m312 -115 c97 -48 176 -156 190 -263 9
-64 -9 -60 -25 6 -17 67 -42 116 -76 147 l-26 25 11 -30 c6 -16 15 -34 19 -40
11 -14 29 -89 35 -149 7 -61 -14 -156 -50 -221 -15 -27 -70 -93 -123 -146
-146 -145 -288 -209 -398 -178 -85 23 -136 87 -182 228 -38 115 -24 266 34
381 26 51 56 78 109 95 29 9 31 14 31 57 0 55 4 59 69 83 66 24 135 33 242 30
72 -1 101 -7 140 -25z"/>
<path d="M22001 20809 c-10 -16 -22 -57 -25 -91 -4 -33 -11 -70 -16 -82 -9
-24 -16 -191 -9 -216 3 -11 -9 -13 -69 -11 -95 4 -264 -26 -306 -54 -41 -28
-44 -78 -5 -108 l27 -19 108 26 c60 14 136 27 169 28 l60 3 -3 -45 c-2 -25
-19 -91 -38 -147 -40 -119 -41 -130 -14 -138 27 -9 76 27 99 74 29 56 54 161
48 203 -7 55 13 68 104 68 112 1 310 27 326 43 12 12 9 18 -22 45 l-36 32
-162 0 c-89 0 -168 4 -176 9 -16 11 -14 30 29 208 l32 132 -28 35 c-37 46 -67
47 -93 5z"/>
<path d="M16299 20720 c-70 -46 -123 -130 -190 -297 -95 -240 -207 -649 -225
-827 -8 -77 2 -96 52 -96 51 0 64 29 84 193 28 229 119 541 223 769 46 100 76
143 126 180 38 28 43 29 64 15 35 -23 80 -118 131 -275 25 -79 46 -149 46
-156 0 -9 -21 -16 -62 -20 -64 -8 -274 -53 -292 -63 -55 -30 -75 -92 -37 -113
34 -18 83 -11 221 32 124 38 200 56 200 47 0 -2 7 -59 14 -127 17 -154 39
-185 86 -124 19 23 21 37 18 94 -2 45 -9 73 -21 85 -24 28 -32 76 -14 91 8 7
48 19 88 28 80 17 99 27 99 55 0 28 -29 37 -107 32 -91 -6 -113 5 -113 55 0
93 -90 349 -138 394 -68 65 -180 77 -253 28z"/>
<path d="M9490 20713 c-63 -20 -295 -126 -315 -143 -11 -9 -37 -27 -57 -39
-53 -32 -84 -101 -57 -128 7 -7 6 -26 -6 -64 -9 -30 -19 -92 -22 -139 -5 -77
-2 -95 27 -183 38 -118 76 -163 178 -209 125 -57 235 -46 389 37 243 132 326
227 342 392 14 144 -34 286 -130 384 -71 74 -138 99 -252 98 -45 0 -89 -3 -97
-6z m185 -97 c66 -28 104 -66 143 -144 32 -66 37 -87 41 -159 2 -69 -1 -91
-18 -128 -12 -25 -21 -48 -21 -53 0 -14 -104 -108 -160 -144 -80 -51 -168 -94
-234 -113 -78 -23 -142 -8 -202 47 -62 57 -79 109 -79 243 0 98 3 116 26 165
37 76 77 116 155 152 50 23 86 32 148 37 79 6 81 7 84 33 2 18 -4 33 -17 45
-12 9 -21 21 -21 25 0 14 119 9 155 -6z"/>
<path d="M20434 20641 c-77 -30 -148 -90 -345 -288 -203 -204 -305 -321 -315
-361 -8 -30 21 -62 57 -62 31 0 77 41 116 104 36 58 117 149 273 310 165 169
234 220 254 187 3 -4 10 -48 16 -97 6 -49 14 -108 17 -131 l6 -43 -83 0 c-45
0 -105 -7 -134 -15 -52 -15 -126 -71 -126 -94 0 -7 12 -23 26 -38 28 -28 24
-29 174 12 55 14 107 23 123 19 l28 -6 -7 -91 c-4 -58 -13 -107 -25 -133 -23
-49 -24 -70 -3 -78 27 -10 44 -7 61 14 14 15 25 18 60 13 37 -5 57 1 141 39
133 62 224 81 359 76 134 -4 181 -24 201 -84 33 -97 -14 -170 -145 -224 -110
-46 -172 -57 -218 -39 -74 28 -69 68 18 165 l46 51 -17 36 c-9 20 -23 36 -30
37 -24 0 -118 -99 -147 -156 -21 -41 -29 -72 -30 -111 0 -51 3 -57 41 -93 30
-27 56 -41 96 -50 53 -12 61 -11 157 20 125 40 252 117 295 177 57 82 43 226
-29 311 -29 33 -50 46 -102 62 -77 24 -121 25 -228 5 -152 -27 -301 -81 -380
-135 -45 -31 -72 -39 -58 -18 4 7 8 53 9 102 1 48 7 93 12 98 6 6 47 14 91 18
98 10 117 16 125 37 15 37 -35 64 -123 67 -37 1 -72 6 -79 10 -7 4 -12 31 -12
64 0 31 -5 99 -10 151 -9 92 -9 95 -51 137 -48 49 -47 49 -105 25z"/>
<path d="M18711 20578 c-68 -45 -162 -142 -247 -253 -29 -38 -106 -137 -169
-220 -115 -149 -225 -306 -238 -337 -8 -23 29 -68 58 -68 27 0 85 60 116 122
33 66 171 258 185 258 7 0 16 -4 19 -10 8 -12 77 -13 129 0 22 5 98 10 170 11
l131 2 1 -127 c0 -135 6 -153 47 -142 40 10 55 64 49 179 -3 71 -1 106 9 123
10 20 11 31 1 57 -7 18 -19 87 -27 155 -21 175 -30 204 -78 251 -53 52 -77 52
-156 -1z m105 -133 c27 -120 46 -247 38 -255 -5 -5 -31 -4 -59 1 -27 5 -102 9
-167 8 -64 -1 -121 2 -127 5 -14 9 90 136 185 225 94 88 114 90 130 16z"/>
<path d="M14554 20416 c-22 -16 -36 -59 -27 -83 8 -20 57 -43 93 -43 39 0 73
33 65 63 -19 66 -83 97 -131 63z"/>
<path d="M17305 19880 c-171 -44 -338 -101 -375 -128 -35 -26 -39 -75 -8 -96
33 -23 47 -21 166 28 138 57 291 108 302 101 10 -6 -9 -55 -20 -55 -4 0 -29
-32 -55 -71 -75 -111 -94 -202 -54 -253 28 -35 90 -66 133 -66 85 0 264 98
429 234 72 61 86 95 47 116 -23 12 -22 13 -111 -52 -37 -26 -69 -48 -73 -48
-3 0 -31 -16 -62 -36 -115 -74 -246 -108 -261 -68 -11 29 41 118 162 279 36
47 65 90 65 96 0 5 -11 14 -24 18 -13 5 -26 17 -29 25 -10 25 -66 19 -232 -24z"/>
<path d="M19250 19839 c-26 -48 -70 -252 -82 -377 -10 -115 -10 -137 2 -159
23 -40 56 -48 85 -19 21 22 23 28 14 61 -16 58 7 203 56 357 14 44 16 63 8 80
-6 13 -15 35 -22 51 -13 33 -45 36 -61 6z"/>
<path d="M16555 19374 c-146 -32 -325 -46 -515 -42 -149 3 -155 2 -156 -17 0
-11 -5 -29 -11 -41 -26 -47 22 -64 185 -64 70 0 156 5 192 10 41 6 68 6 74 0
7 -7 5 -10 -4 -10 -40 0 -133 -108 -235 -275 -105 -172 -313 -577 -346 -675
-12 -36 -28 -74 -35 -85 -25 -40 -26 -80 -4 -108 12 -15 30 -27 40 -27 28 0
64 51 84 116 9 33 24 84 33 114 50 174 49 172 94 165 22 -4 61 0 96 9 32 9
116 30 187 47 137 32 146 31 146 -18 0 -38 30 -154 52 -199 18 -40 69 -94 86
-94 31 1 50 78 28 114 -7 11 -26 65 -41 119 -35 121 -34 123 91 141 131 18
205 61 178 104 -10 15 -29 17 -168 15 -179 -2 -158 -15 -176 112 -6 39 -17
104 -25 145 -8 41 -14 102 -15 136 0 33 -5 65 -10 70 -6 6 -11 28 -13 49 -2
45 -14 41 172 69 142 22 231 63 231 107 0 45 -55 48 -215 13z m-239 -594 c26
-146 31 -134 -56 -142 -41 -4 -91 -12 -110 -17 -19 -5 -61 -13 -92 -16 -69 -9
-72 -1 -28 69 38 60 85 151 148 286 27 58 62 125 78 150 l29 45 7 -140 c4 -77
15 -183 24 -235z"/>
<path d="M9576 19281 c-16 -18 -39 -123 -68 -311 -6 -41 -11 -194 -12 -340 -2
-404 18 -651 54 -670 13 -7 22 -5 31 7 11 13 13 66 11 257 -6 482 21 808 79
960 24 65 24 81 -3 100 -30 22 -71 20 -92 -3z"/>
<path d="M13375 19210 c-38 -5 -84 -13 -101 -18 -22 -7 -48 -5 -89 5 -151 39
-353 -59 -432 -208 -74 -143 -90 -227 -68 -371 28 -189 98 -300 221 -349 49
-20 76 -24 164 -24 90 0 116 5 184 29 126 45 176 70 266 134 147 105 161 116
207 167 24 28 53 59 63 70 26 29 44 127 36 204 -26 251 -199 390 -451 361z
m182 -118 c13 -4 42 -25 66 -48 33 -31 47 -55 62 -105 23 -72 25 -189 7 -255
-22 -75 -127 -161 -308 -252 -137 -69 -215 -94 -295 -94 -172 0 -276 115 -293
323 -13 169 51 327 158 384 52 28 57 9 8 -31 -58 -49 -56 -65 9 -59 36 3 68
15 112 42 53 33 175 82 242 96 31 7 207 6 232 -1z m194 -125 c30 -57 44 -217
18 -202 -5 4 -9 28 -9 55 0 72 -19 140 -52 182 -15 20 -28 40 -28 44 0 16 53
-43 71 -79z"/>
<path d="M20091 19158 c-5 -13 -19 -50 -31 -83 -13 -33 -42 -91 -64 -128 -23
-38 -59 -99 -81 -136 -22 -37 -74 -117 -116 -177 -42 -60 -116 -176 -164 -259
-48 -82 -96 -160 -107 -172 -28 -30 -36 -104 -13 -126 40 -40 91 -7 140 93 15
30 68 130 117 222 79 148 94 169 122 177 17 6 56 19 86 30 68 25 135 27 144 5
3 -9 6 -38 6 -66 0 -61 46 -274 66 -305 29 -46 90 -15 81 41 -3 17 -17 85 -31
151 -43 197 -39 211 55 196 90 -15 114 -14 140 8 l24 20 -20 20 c-20 20 -99
41 -159 41 -17 0 -42 6 -56 13 l-25 13 -5 201 c-5 222 -6 225 -67 238 -28 6
-34 3 -42 -17z m13 -250 c19 -177 19 -188 5 -189 -78 -6 -146 -8 -156 -5 -8 3
7 43 45 118 70 138 70 138 86 138 9 0 16 -21 20 -62z"/>
<path d="M6737 19129 c-13 -18 -13 -26 0 -67 9 -28 21 -143 30 -277 24 -380
25 -390 48 -390 14 0 23 11 31 35 35 105 48 535 20 638 -8 30 -23 60 -33 68
-28 21 -79 18 -96 -7z"/>
<path d="M21996 19081 c-8 -13 8 -132 29 -211 8 -30 11 -57 7 -61 -4 -3 -41
-12 -82 -18 -110 -19 -202 -42 -227 -57 -30 -19 -40 -70 -17 -95 24 -27 59
-24 175 16 108 37 150 43 167 23 11 -14 -9 -241 -28 -317 -8 -32 -8 -47 1 -58
17 -20 49 -12 71 17 34 46 50 240 27 324 -19 68 -9 71 214 71 106 0 198 4 205
8 27 18 13 48 -33 68 -36 16 -76 21 -211 26 -209 8 -204 4 -204 136 0 59 -5
99 -12 110 -16 21 -73 33 -82 18z"/>
<path d="M3274 19070 c-74 -15 -186 -78 -247 -138 -129 -125 -197 -270 -197
-417 0 -149 99 -393 202 -495 82 -82 131 -103 249 -108 89 -4 100 -2 171 27
42 18 85 40 97 49 11 9 38 30 61 46 22 16 42 37 46 45 3 9 29 36 58 61 29 25
70 74 92 109 21 35 48 74 60 86 11 12 26 37 34 54 8 21 18 30 27 27 7 -3 17 2
20 12 4 9 18 33 31 52 22 32 24 43 19 112 -4 64 -11 87 -42 142 -97 174 -249
266 -437 266 -41 0 -50 3 -57 23 -5 13 -16 29 -24 36 -20 16 -110 22 -163 11z
m50 -114 c-3 -7 -23 -23 -44 -35 -50 -28 -148 -137 -156 -174 -7 -34 -8 -33
38 -41 35 -6 38 -5 54 26 42 83 70 117 120 144 49 25 56 26 155 22 113 -6 151
-18 236 -74 62 -41 78 -60 123 -148 55 -109 44 -208 -37 -318 -49 -68 -194
-212 -266 -265 -80 -60 -174 -96 -248 -96 -122 0 -203 62 -280 215 -81 161
-103 312 -66 440 42 142 177 280 317 324 37 11 62 2 54 -20z m499 -154 c17
-15 24 -42 10 -42 -13 0 -28 14 -46 42 -16 26 -16 27 0 21 10 -3 26 -13 36
-21z m137 -244 c0 -10 -4 -18 -10 -18 -12 0 -31 70 -23 84 7 11 32 -39 33 -66z"/>
<path d="M18414 18942 c-17 -26 -48 -76 -69 -112 -85 -144 -202 -328 -253
-394 -68 -91 -162 -278 -169 -338 -4 -37 -1 -50 16 -67 11 -11 25 -21 30 -21
26 0 61 52 85 125 34 102 95 210 122 211 162 11 329 26 336 30 4 3 17 0 28 -6
18 -10 20 -21 20 -121 0 -121 8 -149 45 -149 39 0 48 30 44 159 l-4 116 75 5
c87 6 100 12 100 46 0 31 -27 42 -108 42 -35 0 -69 5 -76 11 -7 6 -16 42 -20
79 -8 80 -42 279 -57 336 -13 48 -35 76 -60 76 -10 0 -21 5 -24 10 -12 20 -31
9 -61 -38z m73 -168 c7 -38 20 -107 29 -154 9 -47 18 -100 21 -117 l5 -33
-120 0 c-66 0 -134 -3 -151 -6 -45 -9 -41 18 15 97 25 35 68 109 96 164 28 55
55 106 61 113 19 24 32 6 44 -64z"/>
<path d="M14535 18559 c-22 -18 -26 -27 -21 -52 3 -17 11 -36 17 -43 17 -21
77 -28 120 -15 34 10 39 16 39 40 0 21 -10 38 -35 60 -42 37 -81 40 -120 10z"/>
<path d="M20687 18484 c-64 -15 -101 -33 -166 -77 -41 -28 -43 -31 -37 -67 5
-30 2 -41 -15 -56 -68 -61 -114 -179 -107 -271 4 -44 11 -60 38 -88 109 -113
306 -88 552 71 118 76 172 179 149 284 -13 63 -51 137 -84 169 -51 47 -211 64
-330 35z m229 -100 c40 -19 72 -70 84 -132 15 -84 -21 -132 -150 -197 -109
-54 -181 -75 -264 -75 -70 0 -107 15 -127 52 -16 29 32 123 96 188 47 48 54
61 57 100 l3 45 70 17 c91 22 187 23 231 2z"/>
<path d="M17165 18393 c-114 -31 -246 -87 -303 -130 -28 -21 -33 -30 -27 -52
8 -32 31 -52 53 -44 10 4 36 20 60 36 98 66 272 129 272 98 0 -20 -48 -108
-110 -200 -33 -48 -60 -92 -60 -96 0 -4 -9 -18 -20 -32 -29 -37 -25 -64 14
-102 34 -33 37 -34 91 -27 125 14 408 161 522 270 49 46 60 62 52 73 -19 23
-41 15 -159 -55 -63 -37 -144 -82 -180 -99 -65 -31 -208 -83 -229 -83 -23 0
-8 31 60 126 85 117 151 238 147 267 -2 12 -15 27 -29 34 -29 14 -125 24 -154
16z"/>
<path d="M19086 18273 c-15 -37 -27 -272 -21 -388 8 -162 14 -188 47 -199 53
-19 57 -3 51 182 -5 152 -2 207 23 357 6 40 -3 51 -52 59 -35 6 -43 4 -48 -11z"/>
<path d="M7375 17605 c-24 -18 -61 -19 -69 -2 -3 6 -4 1 -3 -13 2 -20 8 -26
33 -28 19 -2 36 3 44 12 7 9 19 16 27 16 8 0 13 5 11 12 -6 18 -22 20 -43 3z"/>
<path d="M7483 17613 c-13 -2 -23 -10 -23 -17 0 -18 11 -27 23 -19 17 11 81
13 87 3 8 -14 151 -19 175 -7 11 6 35 11 54 11 20 1 36 7 39 15 4 11 -24 13
-149 10 -85 -1 -161 0 -169 3 -8 3 -25 3 -37 1z"/>
<path d="M7903 17613 c-24 -2 -43 -7 -43 -12 0 -16 76 -26 127 -16 66 13 78
25 25 25 -22 0 -46 1 -54 3 -7 2 -32 2 -55 0z"/>
<path d="M8230 17610 l-25 -6 22 -12 c28 -15 35 -15 58 2 17 12 17 13 -6 18
-13 2 -35 1 -49 -2z"/>
<path d="M7145 17599 c-10 -15 3 -25 16 -12 7 7 7 13 1 17 -6 3 -14 1 -17 -5z"/>
<path d="M7180 17599 c0 -5 5 -7 10 -4 6 3 10 8 10 11 0 2 -4 4 -10 4 -5 0
-10 -5 -10 -11z"/>
<path d="M8125 17600 c3 -5 13 -10 21 -10 8 0 14 5 14 10 0 6 -9 10 -21 10
-11 0 -17 -4 -14 -10z"/>
<path d="M8320 17601 c0 -9 117 -21 138 -13 33 12 4 22 -63 22 -41 0 -75 -4
-75 -9z"/>
<path d="M8928 17604 c-13 -12 3 -24 32 -24 16 0 32 5 35 10 3 6 0 10 -7 10
-7 0 -22 3 -33 6 -11 3 -24 2 -27 -2z"/>
<path d="M7070 17585 c0 -18 24 -30 40 -20 7 4 5 11 -4 21 -19 18 -36 18 -36
-1z"/>
<path d="M9070 17590 c0 -5 9 -10 20 -10 11 0 20 5 20 10 0 6 -9 10 -20 10
-11 0 -20 -4 -20 -10z"/>
<path d="M9240 17590 l-45 -7 45 -2 c25 -2 65 -4 89 -6 24 -2 53 1 65 5 19 8
18 9 -9 9 -16 1 -46 3 -65 5 -19 2 -55 1 -80 -4z"/>
<path d="M7003 17568 c2 -7 10 -13 17 -13 7 0 15 6 18 13 2 7 -5 12 -18 12
-13 0 -20 -5 -17 -12z"/>
<path d="M7250 17570 c0 -5 7 -10 15 -10 8 0 15 5 15 10 0 6 -7 10 -15 10 -8
0 -15 -4 -15 -10z"/>
<path d="M9933 17573 c9 -2 23 -2 30 0 6 3 -1 5 -18 5 -16 0 -22 -2 -12 -5z"/>
<path d="M10056 17570 c7 -7 19 -7 35 -1 23 9 22 10 -10 10 -24 1 -32 -2 -25
-9z"/>
<path d="M10140 17570 c0 -5 19 -10 43 -9 32 0 37 2 22 9 -28 12 -65 12 -65 0z"/>
<path d="M6622 17558 c7 -19 38 -22 38 -4 0 10 -9 16 -21 16 -12 0 -19 -5 -17
-12z"/>
<path d="M6855 17560 c4 -6 11 -8 16 -5 14 9 11 15 -7 15 -8 0 -12 -5 -9 -10z"/>
<path d="M10353 17563 c9 -2 25 -2 35 0 9 3 1 5 -18 5 -19 0 -27 -2 -17 -5z"/>
<path d="M10579 17559 c-36 -9 101 -16 158 -8 38 5 42 7 18 9 -59 6 -152 5
-176 -1z"/>
<path d="M10808 17553 c7 -3 16 -2 19 1 4 3 -2 6 -13 5 -11 0 -14 -3 -6 -6z"/>
<path d="M5775 17530 c-47 -16 -48 -18 -24 -25 31 -8 110 6 110 20 1 19 -38
22 -86 5z"/>
<path d="M5891 17536 c-8 -10 -7 -17 4 -26 13 -11 19 -11 32 2 14 15 13 17 -5
27 -15 8 -23 7 -31 -3z"/>
<path d="M6077 17543 c-15 -14 -5 -21 28 -21 19 0 38 4 41 9 3 6 15 7 26 3 14
-4 18 -2 14 5 -8 12 -98 15 -109 4z"/>
<path d="M10883 17543 c9 -2 23 -2 30 0 6 3 -1 5 -18 5 -16 0 -22 -2 -12 -5z"/>
<path d="M11358 17543 c-37 -6 -36 -23 1 -23 31 0 49 -14 31 -25 -23 -14 5
-26 58 -24 32 1 100 -1 152 -4 88 -6 214 -9 855 -22 346 -7 585 -14 705 -20
104 -5 315 -13 500 -20 130 -5 313 -14 510 -25 374 -22 577 -29 605 -22 l30 8
-35 8 c-19 5 -57 10 -85 12 -27 1 -72 5 -100 8 -27 3 -117 7 -200 9 -82 3
-161 9 -175 14 -14 6 -119 14 -235 18 -115 3 -232 9 -260 11 -75 7 -325 7
-332 1 -3 -3 -17 -1 -32 5 -16 7 -114 12 -261 13 -373 3 -971 15 -1012 21 -44
7 -51 24 -10 25 l27 1 -25 8 c-14 4 -38 5 -54 2 -15 -3 -78 0 -140 6 -113 12
-468 22 -518 15z m287 -43 c-3 -5 -15 -10 -26 -10 -10 0 -19 5 -19 10 0 6 12
10 26 10 14 0 23 -4 19 -10z m371 -2 c8 -8 5 -9 -61 -15 -65 -5 -75 -5 -183 3
-56 4 -104 10 -107 13 -5 10 342 8 351 -1z"/>
<path d="M5585 17532 c-7 -7 -77 -15 -110 -13 -11 0 -47 3 -80 5 -33 2 -80 0
-105 -4 -25 -5 -106 -11 -180 -15 -74 -3 -148 -7 -165 -9 -16 -2 -95 -7 -175
-11 -80 -3 -172 -10 -205 -15 -33 -5 -123 -12 -200 -15 -77 -4 -176 -11 -220
-16 -44 -6 -119 -11 -166 -13 -47 -2 -90 -6 -95 -9 -5 -3 -122 -13 -259 -21
-138 -9 -340 -23 -450 -30 -377 -27 -695 -40 -1295 -51 -521 -10 -778 6 -1261
75 -231 34 -262 35 -277 18 -14 -18 -3 -67 18 -78 9 -5 75 -14 146 -20 70 -6
191 -20 267 -30 77 -11 210 -25 296 -30 198 -14 744 -14 1051 -1 420 19 482
22 670 36 102 8 239 17 305 20 66 3 174 10 240 16 210 17 1006 78 1108 84 54
3 144 10 200 15 56 6 178 15 271 20 92 6 207 15 255 20 47 5 130 12 185 15 54
3 103 8 109 12 6 4 40 7 76 8 107 3 173 15 161 30 -11 13 -104 18 -115 7z"/>
<path d="M10264 17519 c-2 -4 28 -9 67 -11 39 -2 73 0 76 5 2 4 -6 8 -19 8
-77 5 -120 4 -124 -2z"/>
<path d="M10507 17509 c11 -10 299 -16 309 -6 4 4 -26 7 -67 7 -41 1 -114 2
-162 4 -48 2 -84 0 -80 -5z"/>
<path d="M12390 17510 c0 -5 5 -10 10 -10 6 0 10 5 10 10 0 6 -4 10 -10 10 -5
0 -10 -4 -10 -10z"/>
<path d="M10836 17502 c-7 -12 183 -22 199 -10 5 5 -7 8 -25 8 -19 0 -65 3
-101 6 -43 4 -69 3 -73 -4z"/>
<path d="M11165 17449 c-4 -6 -4 -25 -1 -42 3 -18 15 -129 26 -247 33 -341 64
-603 100 -830 12 -74 26 -162 30 -195 33 -223 121 -684 184 -960 68 -299 102
-487 141 -780 23 -173 84 -535 107 -640 11 -49 24 -111 28 -136 5 -25 15 -75
24 -110 36 -151 58 -338 76 -634 21 -357 31 -482 45 -580 30 -197 45 -429 60
-930 8 -280 17 -562 20 -625 3 -63 7 -180 10 -260 25 -683 49 -970 81 -970 38
0 39 38 19 495 -14 319 -27 673 -40 1050 -3 94 -7 217 -10 275 -3 58 -7 195
-10 305 -7 228 -20 413 -40 565 -22 166 -43 393 -50 540 -18 399 -46 619 -130
1015 -18 88 -38 183 -44 210 -9 48 -66 403 -76 475 -36 267 -86 554 -130 740
-39 164 -148 717 -175 892 -85 542 -78 483 -125 978 -21 212 -39 391 -41 398
-4 15 -70 16 -79 1z"/>
<path d="M14847 17365 c-25 -18 -10 -25 52 -25 44 1 52 3 38 11 -36 21 -73 27
-90 14z"/>
<path d="M15005 17350 c-55 -7 -30 -20 31 -16 27 2 74 -3 104 -10 30 -7 123
-21 205 -29 83 -9 171 -19 197 -22 46 -5 84 9 73 27 -2 4 -34 17 -70 29 -47
16 -73 20 -91 14 -14 -5 -65 -5 -112 -1 -112 11 -286 15 -337 8z"/>
<path d="M6884 17227 c-134 -52 -208 -117 -269 -237 -49 -98 -69 -189 -62
-285 7 -85 13 -108 59 -222 33 -78 73 -119 153 -154 52 -23 211 -40 263 -28
56 12 175 59 193 75 8 8 20 14 25 14 13 0 65 38 113 83 21 19 46 37 57 39 11
2 19 12 19 23 0 12 9 21 24 25 27 6 95 112 112 175 15 53 5 188 -18 250 -12
34 -39 71 -83 116 -74 75 -140 106 -236 110 -33 2 -69 9 -81 17 -13 8 -61 15
-115 18 -80 4 -101 1 -154 -19z m86 -69 c0 -7 -19 -25 -43 -41 -73 -48 -111
-85 -114 -114 -1 -16 -6 -40 -9 -55 -11 -46 18 -34 76 33 29 33 70 71 91 85
34 21 134 64 151 64 3 0 25 -16 48 -35 23 -19 46 -35 50 -35 16 0 41 33 36 46
-18 48 70 4 137 -68 54 -60 66 -92 74 -203 5 -74 3 -86 -22 -140 -37 -77 -158
-200 -240 -242 -108 -56 -187 -76 -277 -70 -185 12 -278 122 -278 326 0 91 18
164 62 250 58 114 93 149 187 188 65 26 71 27 71 11z"/>
<path d="M3410 17090 c-25 -25 -25 -45 -1 -96 10 -21 24 -68 30 -104 20 -117
34 -411 28 -621 l-5 -206 36 2 c66 4 67 11 67 420 0 380 -7 458 -46 553 -16
39 -28 53 -52 61 -38 14 -34 14 -57 -9z"/>
<path d="M20358 17036 c-92 -17 -135 -60 -104 -102 11 -14 33 -16 177 -15 90
1 173 4 185 7 12 3 95 -1 185 -10 200 -18 593 -40 633 -35 35 5 51 27 42 62
-7 31 -11 32 -161 52 -334 44 -829 65 -957 41z"/>
<path d="M19310 17017 c-58 -4 -294 -10 -524 -11 l-420 -4 -18 -22 c-28 -34
-19 -62 27 -85 35 -17 60 -20 195 -20 217 0 476 11 670 30 91 8 248 19 349 24
145 7 187 13 199 25 25 25 3 38 -95 53 -112 17 -249 21 -383 10z"/>
<path d="M9307 16955 c-67 -23 -199 -108 -257 -164 -30 -30 -65 -60 -76 -68
-36 -23 -85 -128 -91 -193 -8 -84 10 -145 67 -222 42 -58 59 -72 124 -103 165
-79 373 -95 562 -41 321 91 452 178 490 325 28 112 -9 240 -96 330 -86 89
-256 136 -376 104 -51 -13 -58 -13 -74 2 -47 43 -194 59 -273 30z m179 -122
c-1 -21 -8 -49 -15 -62 -11 -20 -10 -26 3 -39 14 -14 19 -14 52 1 24 12 47 15
70 11 44 -8 66 9 62 49 -2 25 1 32 22 38 115 33 266 -35 322 -144 47 -92 24
-248 -40 -276 -32 -15 -43 -31 -20 -31 6 0 1 -11 -12 -25 -26 -27 -46 -32 -53
-12 -3 8 -23 3 -73 -19 -89 -41 -184 -69 -307 -90 -85 -15 -111 -16 -189 -5
-148 19 -232 64 -289 153 -65 100 -37 209 82 325 70 68 96 85 197 129 57 25
91 34 134 34 l56 0 -2 -37z"/>
<path d="M9895 16370 c-3 -5 -2 -10 4 -10 5 0 13 5 16 10 3 6 2 10 -4 10 -5 0
-13 -4 -16 -10z"/>
<path d="M22251 16839 c-18 -17 -22 -28 -17 -53 4 -17 11 -125 15 -241 5 -115
12 -222 15 -237 3 -16 8 -39 11 -53 l5 -25 -87 0 c-136 -1 -321 -25 -344 -46
-25 -22 -24 -66 1 -89 21 -19 41 -18 220 3 238 29 227 35 201 -108 -10 -58
-24 -118 -30 -133 -15 -39 -14 -64 4 -71 49 -18 86 67 94 219 l6 110 90 7
c127 10 298 30 312 35 16 6 17 33 2 33 -6 0 -9 9 -6 20 9 35 -12 38 -165 27
-93 -7 -162 -7 -185 -1 -37 9 -38 10 -33 49 3 22 5 141 5 265 l0 225 -28 43
c-31 47 -52 52 -86 21z"/>
<path d="M12998 16824 c-39 -21 -43 -39 -79 -363 -14 -125 -1 -289 31 -372 33
-89 117 -153 149 -115 11 13 9 24 -13 66 -33 62 -50 185 -42 290 3 41 19 155
35 253 32 195 30 230 -16 248 -31 11 -32 11 -65 -7z"/>
<path d="M16299 16678 c-12 -24 -30 -53 -41 -65 -15 -16 -19 -29 -14 -48 8
-31 -2 -54 -15 -34 -15 25 -132 -102 -246 -266 -108 -154 -175 -259 -209 -327
-21 -40 -57 -105 -81 -145 -24 -39 -43 -78 -43 -87 0 -22 40 -56 67 -56 28 0
51 35 151 233 42 81 82 152 91 156 9 5 63 19 121 31 58 13 129 31 159 42 30
10 58 15 61 11 4 -5 14 -52 23 -105 8 -54 23 -112 31 -130 9 -17 16 -36 16
-43 0 -7 9 -20 19 -29 28 -25 72 -17 90 16 14 25 14 31 -7 73 -26 53 -52 167
-52 226 0 28 6 42 20 51 29 18 26 56 -5 64 -35 9 -39 35 -30 208 14 250 14
251 -12 248 -12 -2 -24 2 -28 8 -15 24 -45 9 -66 -32z m-9 -280 c0 -68 3 -133
6 -145 7 -27 -2 -29 -133 -38 -67 -5 -93 -3 -93 5 0 6 20 37 43 68 24 31 69
96 100 145 31 48 61 87 67 87 6 0 10 -46 10 -122z"/>
<path d="M18745 16643 c-137 -71 -607 -472 -742 -633 -43 -51 -46 -66 -19 -96
34 -41 63 -27 139 63 88 106 179 192 390 369 202 168 247 203 264 204 14 0 19
-26 33 -175 8 -92 13 -112 30 -124 29 -19 27 -46 -2 -36 -47 16 -150 16 -268
1 -67 -9 -126 -16 -130 -16 -5 0 -25 -15 -45 -33 -45 -41 -45 -75 -1 -96 25
-12 39 -11 105 3 70 15 220 42 298 53 41 6 41 6 50 -132 l8 -110 32 -3 c25 -3
35 2 48 22 16 24 16 31 1 93 -9 38 -17 86 -18 108 -3 38 -2 39 55 67 31 15 57
34 57 43 0 19 -41 46 -83 54 l-32 7 -6 149 c-5 142 -16 195 -39 195 -6 0 -20
11 -32 25 -26 31 -31 31 -93 -2z"/>
<path d="M20641 16647 c-45 -22 -212 -175 -344 -315 -39 -42 -104 -105 -143
-140 -121 -107 -284 -313 -284 -359 0 -22 33 -53 56 -53 23 0 73 51 105 108
36 63 90 133 157 204 l45 47 28 -30 c32 -34 34 -35 134 -9 86 22 259 38 268
24 3 -5 -6 -54 -20 -109 -17 -70 -34 -111 -54 -137 -34 -43 -36 -54 -9 -68 46
-24 104 20 116 89 20 116 37 189 50 209 13 20 22 22 103 22 100 0 154 14 149
39 -4 24 -66 50 -136 57 -34 4 -70 13 -79 19 -16 12 -16 18 -4 62 44 159 34
268 -32 341 -26 28 -50 28 -106 -1z m61 -247 c-2 -85 -6 -158 -10 -162 -4 -3
-43 -3 -87 2 -89 9 -180 -1 -238 -27 -29 -12 -40 -14 -49 -5 -9 9 26 48 146
164 169 162 202 190 226 185 13 -2 15 -26 12 -157z"/>
<path d="M14445 16478 c-27 -15 -35 -28 -35 -59 0 -40 37 -67 100 -74 71 -8
105 9 105 50 0 24 -9 34 -55 62 -58 35 -83 39 -115 21z"/>
<path d="M17180 16071 c-105 -29 -212 -78 -311 -143 -159 -105 -208 -169 -161
-211 36 -32 69 -21 142 46 79 72 167 124 297 172 114 43 180 54 188 32 7 -18
-24 -80 -99 -197 -154 -241 -164 -263 -140 -319 30 -72 123 -75 261 -10 152
71 528 313 528 339 0 8 -12 21 -26 29 -23 13 -30 12 -80 -12 -30 -14 -76 -39
-104 -55 -323 -190 -465 -254 -465 -209 0 9 5 19 10 22 6 4 21 21 33 39 12 19
47 69 76 112 65 93 131 235 131 282 0 22 -6 35 -17 39 -10 4 -30 19 -45 35
-23 25 -32 28 -90 27 -34 0 -92 -8 -128 -18z"/>
<path d="M21041 15939 c-162 -95 -208 -150 -218 -261 -11 -117 34 -190 152
-245 54 -25 70 -28 170 -28 165 0 287 43 380 133 55 52 71 104 55 171 -37 155
-165 210 -380 165 -125 -26 -130 -27 -130 -18 0 5 20 20 45 33 41 22 45 27 45
62 0 52 -13 50 -119 -12z m392 -182 c52 -23 76 -76 54 -123 -37 -78 -144 -118
-307 -118 -122 1 -190 23 -240 81 -35 39 -35 38 -14 110 14 49 18 54 37 48 49
-15 75 -15 147 5 92 24 262 23 323 -3z"/>
<path d="M19315 15950 c-20 -32 -85 -261 -96 -337 -11 -78 -10 -97 2 -129 28
-73 105 -48 96 31 -5 48 15 157 47 257 16 49 21 78 15 90 -5 9 -9 30 -9 45 0
42 -37 71 -55 43z"/>
<path d="M7240 15760 c-14 -4 -58 -8 -98 -9 -98 -1 -180 -42 -288 -144 -94
-89 -125 -137 -106 -167 6 -11 16 -51 22 -88 21 -150 62 -236 159 -333 42 -41
76 -63 133 -87 42 -18 86 -32 97 -32 11 0 31 -4 45 -10 14 -5 28 -5 30 -1 3 5
25 7 48 4 66 -7 211 32 317 85 170 85 237 190 235 367 -1 56 -8 99 -24 145
-68 193 -210 281 -446 279 -55 -1 -110 -5 -124 -9z m213 -80 c81 -13 143 -47
192 -105 66 -78 76 -103 78 -213 2 -83 -1 -104 -21 -146 -38 -82 -84 -129
-170 -175 -106 -55 -194 -75 -299 -68 -197 14 -320 147 -344 373 -18 169 3
207 147 269 76 32 91 36 140 29 45 -5 55 -4 60 11 4 9 16 21 28 25 29 12 119
12 189 0z m317 -348 c0 -49 -16 -30 -18 20 -1 31 1 39 8 28 5 -8 10 -30 10
-48z m-20 -172 c-19 -35 -24 -14 -9 37 14 46 14 47 17 16 2 -18 -2 -42 -8 -53z"/>
<path d="M3474 15695 c-16 -24 -15 -30 4 -98 35 -121 50 -230 72 -507 16 -205
18 -215 43 -261 57 -100 67 -61 56 211 -16 426 -48 636 -103 672 -23 16 -56 7
-72 -17z"/>
<path d="M9509 15685 c-38 -20 -54 -62 -84 -215 -23 -113 -27 -163 -28 -310
-1 -296 46 -625 94 -650 28 -16 50 14 44 58 -11 82 -25 287 -31 453 -9 239 17
419 77 541 34 68 36 91 9 118 -23 23 -45 25 -81 5z"/>
<path d="M13312 15495 c-34 -8 -71 -19 -81 -25 -11 -5 -48 -10 -82 -10 -63 0
-158 -27 -209 -59 -79 -49 -122 -95 -161 -176 -34 -72 -40 -92 -40 -154 -2
-163 89 -250 311 -297 132 -28 330 -8 468 47 41 16 79 29 85 29 7 0 39 13 73
29 67 31 128 86 151 135 8 17 22 45 31 61 12 21 17 53 17 105 -1 63 -5 83 -30
130 -39 72 -130 141 -223 170 -87 28 -226 34 -310 15z m293 -118 c89 -37 131
-77 150 -140 28 -94 4 -189 -62 -247 -82 -72 -226 -120 -408 -135 -91 -8 -230
13 -305 46 -120 53 -161 159 -107 281 36 81 104 152 95 101 -2 -12 2 -17 12
-14 8 2 31 7 51 11 20 4 52 17 70 28 83 53 95 55 152 28 105 -51 140 -41 98
27 -12 19 -21 38 -21 42 0 4 48 5 108 3 85 -4 119 -10 167 -31z"/>
<path d="M1920 15270 c0 -5 5 -10 10 -10 6 0 10 5 10 10 0 6 -4 10 -10 10 -5
0 -10 -4 -10 -10z"/>
<path d="M18411 15205 c-26 -44 -27 -61 -3 -73 45 -24 181 -44 361 -52 108 -6
266 -14 351 -20 408 -26 475 -23 475 24 0 38 -68 63 -195 70 -63 4 -191 13
-285 21 -93 8 -251 19 -350 25 -166 10 -240 18 -306 35 -22 6 -29 1 -48 -30z"/>
<path d="M16191 15156 c-7 -8 -25 -18 -41 -21 -68 -15 -170 -172 -226 -347
-20 -62 -42 -129 -49 -148 -17 -46 -119 -387 -141 -469 l-17 -64 22 -19 c27
-21 74 -24 90 -4 7 8 21 56 31 108 11 51 30 138 42 193 23 98 24 100 50 97 35
-4 177 34 254 68 77 35 127 46 295 65 74 9 148 19 165 24 41 11 42 36 3 57
-27 13 -48 15 -119 10 -47 -4 -102 -11 -123 -15 -26 -6 -39 -5 -47 4 -6 7 -17
70 -25 141 -30 253 -45 307 -90 324 -37 14 -61 12 -74 -4z m28 -116 c6 -19 18
-84 26 -145 8 -60 21 -136 29 -168 7 -31 10 -59 6 -62 -3 -2 -37 -9 -74 -15
-37 -6 -95 -21 -129 -34 -87 -34 -114 -39 -120 -22 -7 17 76 234 133 351 41
82 97 153 110 138 4 -4 13 -24 19 -43z"/>
<path d="M22340 15051 c-5 -11 -10 -84 -10 -165 l0 -145 -32 5 c-18 3 -49 10
-68 15 -55 14 -142 10 -180 -9 -45 -22 -50 -53 -15 -88 26 -25 26 -25 175 -23
82 2 152 0 156 -4 4 -4 0 -7 -9 -7 -9 0 -18 -6 -18 -12 -1 -7 -3 -20 -3 -28
-1 -8 -5 -35 -9 -60 -4 -25 -12 -76 -18 -115 -6 -38 -18 -100 -27 -138 -15
-61 -15 -69 0 -83 54 -55 110 84 127 318 4 60 11 111 14 114 11 11 313 -63
421 -103 45 -16 76 -9 76 17 0 25 -54 57 -134 80 -35 10 -77 25 -93 34 -75 41
-119 58 -184 71 -101 19 -104 24 -90 132 14 115 14 186 -1 201 -19 19 -66 15
-78 -7z"/>
<path d="M14693 14950 c-52 -21 -50 -94 3 -119 33 -15 97 -14 112 1 21 21 13
64 -17 97 -30 32 -57 37 -98 21z"/>
<path d="M18928 14950 c-72 -9 -94 -24 -165 -109 -116 -138 -240 -279 -348
-396 -134 -146 -208 -232 -224 -263 -27 -50 44 -101 95 -68 14 10 44 42 67 73
23 30 76 95 118 143 42 48 81 96 87 106 10 18 12 18 57 -6 40 -22 57 -25 148
-25 56 1 147 5 201 9 77 7 97 7 92 -3 -21 -33 6 -273 34 -306 18 -22 67 -19
75 4 3 10 -1 42 -9 72 -7 30 -17 95 -21 146 -8 103 -13 96 80 109 28 3 56 11
62 16 30 24 -38 75 -117 88 l-34 5 -12 95 c-13 98 -35 205 -53 252 -11 30 -49
69 -65 67 -6 -1 -37 -5 -68 -9z m48 -117 c9 -20 20 -61 25 -92 9 -50 18 -97
36 -183 l5 -28 -118 -2 c-163 -4 -276 0 -286 10 -4 4 15 32 43 62 29 30 70 80
92 110 22 30 63 79 91 108 62 64 90 68 112 15z m128 -338 c0 -5 -11 -14 -25
-18 -28 -10 -83 8 -74 23 8 14 100 9 99 -5z"/>
<path d="M20585 14871 c-3 -6 -27 -16 -52 -23 -34 -8 -59 -24 -92 -58 -54 -56
-185 -216 -229 -281 -23 -34 -41 -48 -71 -57 -50 -16 -73 -45 -61 -78 8 -21 1
-35 -57 -107 -36 -45 -97 -114 -134 -153 -73 -76 -82 -101 -49 -134 26 -26 64
-25 102 2 34 24 184 221 218 286 l22 42 177 2 c97 1 196 1 221 0 25 -1 119 -4
209 -6 149 -4 165 -6 182 -25 24 -26 26 -26 67 -1 18 11 66 25 106 31 119 16
287 -28 317 -82 30 -57 -11 -134 -96 -185 -38 -22 -193 -63 -293 -78 -50 -7
-121 9 -129 29 -9 25 51 87 128 130 79 45 115 89 104 125 -10 30 -49 25 -124
-16 -102 -56 -153 -112 -186 -206 -41 -121 61 -201 226 -178 218 31 395 116
446 214 48 91 34 195 -37 267 -58 60 -118 79 -250 79 -80 0 -109 -5 -166 -26
-102 -38 -107 -39 -171 -9 -45 22 -79 29 -155 34 -54 4 -100 10 -104 13 -3 4
-1 58 5 120 17 179 -6 319 -56 335 -6 2 -14 -1 -18 -6z m-19 -276 c1 -82 -1
-156 -4 -163 -4 -11 -22 -13 -91 -7 -47 4 -104 7 -127 6 -26 -1 -45 4 -54 14
-10 13 -5 24 36 70 27 31 68 82 91 113 62 83 105 123 128 120 19 -3 20 -11 21
-153z"/>
<path d="M16346 14574 c-28 -16 -28 -17 -22 -76 4 -33 12 -72 17 -86 15 -40
39 -159 39 -196 0 -58 55 -86 84 -44 26 37 20 83 -42 293 -11 39 -23 82 -26
98 -7 31 -11 32 -50 11z"/>
<path d="M17160 14383 c-124 -19 -271 -46 -295 -53 -16 -4 -42 -11 -57 -14
-16 -4 -28 -13 -28 -21 0 -8 -9 -19 -20 -25 -27 -15 -25 -35 7 -60 33 -26 53
-24 198 13 131 33 242 56 316 64 l59 6 0 -36 c0 -25 -10 -49 -33 -79 -55 -73
-96 -158 -108 -227 l-12 -64 34 -28 c44 -36 81 -43 193 -36 130 9 333 65 499
139 76 34 140 65 142 69 8 12 -5 37 -22 43 -8 4 -41 -2 -72 -12 -133 -45 -162
-53 -171 -47 -5 3 -67 -10 -137 -29 -71 -20 -157 -40 -193 -46 -75 -13 -162
-10 -167 5 -2 6 22 48 52 94 65 97 110 183 120 229 16 75 -60 122 -195 120
-47 0 -96 -3 -110 -5z"/>
<path d="M19315 14342 c-54 -39 -108 -239 -120 -437 -6 -107 -5 -111 17 -131
34 -31 55 -35 78 -16 20 16 20 20 9 64 -17 64 10 263 47 345 36 79 45 122 32
147 -12 23 -27 36 -43 36 -5 0 -14 -4 -20 -8z"/>
<path d="M20546 14288 c-22 -70 -39 -297 -24 -315 13 -16 64 -17 74 -2 6 10
14 132 18 274 1 49 1 50 -32 53 -20 2 -34 -2 -36 -10z"/>
<path d="M3715 14045 c-29 -28 -30 -38 -10 -95 23 -64 34 -148 45 -325 6 -88
14 -185 19 -215 6 -30 13 -83 16 -117 7 -66 27 -105 43 -88 13 13 22 173 23
420 1 264 -18 388 -63 428 -27 23 -44 22 -73 -8z"/>
<path d="M9493 13988 c-4 -7 -8 -19 -9 -26 -5 -29 -36 -62 -90 -93 -101 -57
-192 -168 -215 -262 -15 -61 -7 -207 15 -267 20 -55 65 -103 128 -137 26 -14
49 -32 52 -39 4 -10 23 -14 60 -14 30 0 58 -4 61 -10 10 -16 148 -12 228 6
115 26 287 93 347 135 30 21 70 61 89 89 33 48 34 52 22 93 -18 61 -89 163
-181 261 -44 47 -80 93 -80 102 0 10 -19 36 -43 58 -34 33 -62 47 -142 73
-113 36 -229 51 -242 31z m333 -224 c46 -47 84 -89 84 -94 0 -4 19 -32 43 -62
68 -84 88 -115 108 -171 19 -51 19 -51 -3 -74 -25 -27 -40 -30 -31 -7 3 9 2
15 -3 13 -5 -2 -34 -16 -65 -31 -90 -42 -277 -97 -366 -107 -218 -23 -317 53
-316 246 1 65 6 93 26 137 60 129 227 233 380 235 l59 1 84 -86z m164 -452 c0
-12 -68 -48 -75 -40 -3 3 11 15 32 26 46 25 43 24 43 14z"/>
<path d="M7403 13918 c-20 -22 -21 -34 -24 -343 -1 -176 1 -364 4 -417 7 -95
-1 -144 -25 -159 -13 -8 19 -86 39 -93 17 -7 18 -2 33 104 33 242 39 295 49
415 6 72 14 164 18 205 4 41 8 118 8 171 0 81 -3 100 -19 118 -25 27 -57 27
-83 -1z"/>
<path d="M13285 13909 c-15 -16 -20 -42 -24 -127 -14 -291 11 -825 39 -842 9
-6 11 -26 7 -70 -10 -116 30 -245 81 -256 15 -3 32 -7 39 -9 20 -6 49 22 38
38 -5 8 -19 26 -29 41 -29 41 -45 117 -57 266 -13 151 -7 485 12 715 7 83 9
167 5 188 -13 70 -72 100 -111 56z"/>
<path d="M20172 13543 c-7 -3 -19 -18 -28 -34 -21 -42 -5 -65 70 -100 101 -47
137 -51 530 -55 317 -3 388 -7 493 -24 189 -32 244 -21 212 46 -10 21 -24 31
-49 35 -19 4 -84 17 -145 29 -92 18 -166 23 -445 30 -352 9 -477 23 -551 61
-38 19 -62 22 -87 12z"/>
<path d="M16389 13527 c-9 -7 -23 -25 -32 -42 -8 -16 -45 -61 -81 -100 -36
-38 -66 -70 -66 -72 0 -1 -21 -24 -48 -50 -26 -26 -76 -94 -111 -151 -66 -108
-65 -107 -156 -115 -36 -4 -54 -11 -68 -28 -27 -33 -19 -71 20 -89 18 -8 33
-19 33 -24 0 -4 -15 -34 -34 -65 -19 -31 -60 -103 -91 -161 -31 -57 -66 -115
-76 -129 -36 -46 -12 -111 41 -111 27 0 88 95 187 289 52 102 98 189 102 193
4 4 40 16 81 27 41 11 143 38 225 61 83 24 163 43 180 44 28 1 30 -1 38 -54 4
-30 16 -109 27 -175 10 -66 18 -140 17 -165 -2 -44 -1 -45 29 -48 25 -2 37 3
53 24 23 30 26 65 11 145 -10 53 -40 264 -40 284 0 6 14 18 30 27 39 22 38 34
-7 55 -30 14 -40 26 -45 53 -4 19 -17 85 -28 145 -27 138 -59 215 -92 215 -13
0 -32 7 -42 15 -24 18 -36 18 -57 2z m47 -122 c8 -20 23 -77 34 -128 28 -131
39 -167 56 -174 22 -8 17 -32 -8 -38 -13 -3 -57 -4 -98 -3 -41 2 -124 -3 -185
-10 -60 -6 -113 -8 -117 -4 -6 6 63 106 241 350 18 23 38 42 47 42 8 0 22 -16
30 -35z"/>
<path d="M14785 13355 c-50 -49 -13 -115 66 -115 49 0 73 23 65 64 -15 71 -84
99 -131 51z"/>
<path d="M19064 13291 c-80 -19 -146 -65 -257 -176 -331 -333 -607 -658 -607
-715 0 -35 21 -52 57 -48 28 3 42 19 163 190 64 91 159 206 175 212 8 3 29 0
47 -6 66 -21 243 -12 387 21 73 17 138 28 144 24 6 -4 7 -44 2 -112 -12 -177
-13 -166 16 -169 19 -2 33 4 48 24 20 25 21 35 15 143 -8 134 -13 124 94 165
97 37 96 58 -3 69 -39 5 -74 12 -78 17 -5 4 -10 61 -12 126 -3 136 -10 159
-62 208 -39 37 -65 42 -129 27z m87 -118 c5 -14 14 -74 20 -132 6 -58 16 -112
21 -118 6 -7 22 -13 37 -13 24 -1 24 -2 7 -12 -10 -6 -57 -10 -103 -9 -47 0
-130 -6 -184 -14 -151 -23 -239 -19 -239 9 0 14 173 185 235 233 60 46 134 83
167 83 22 0 31 -6 39 -27z"/>
<path d="M20875 13191 c-112 -27 -224 -141 -406 -409 -120 -177 -228 -329
-289 -408 -26 -33 -49 -67 -53 -77 -11 -30 10 -57 45 -57 52 0 102 64 284 365
171 282 284 415 402 474 76 39 95 19 118 -122 8 -51 18 -105 23 -122 5 -16 12
-42 15 -57 4 -18 16 -29 38 -37 50 -18 22 -32 -42 -22 -122 20 -421 -11 -463
-48 -33 -28 -40 -50 -23 -75 20 -31 54 -36 129 -20 171 37 369 65 382 54 8 -6
18 -34 24 -62 10 -44 58 -177 80 -218 5 -8 21 -15 37 -15 28 0 29 2 28 46 -1
31 -15 74 -42 130 -22 46 -42 93 -44 103 -4 26 25 34 128 35 57 1 85 5 93 15
18 22 -2 29 -164 56 -36 7 -66 18 -76 29 -11 13 -19 61 -28 162 -14 157 -23
186 -80 248 -39 42 -55 46 -116 32z"/>
<path d="M3821 13124 c0 -11 3 -14 6 -6 3 7 2 16 -1 19 -3 4 -6 -2 -5 -13z"/>
<path d="M3804 13075 c-3 -8 -3 -19 1 -25 11 -18 25 -11 25 15 0 27 -17 34
-26 10z"/>
<path d="M22794 13058 c-42 -19 -47 -51 -49 -281 -1 -119 -5 -218 -9 -218 -13
-3 -182 12 -263 23 -64 8 -89 8 -113 -2 -61 -25 -44 -100 27 -119 29 -8 267
-21 371 -21 5 0 12 -64 16 -142 4 -79 10 -177 14 -218 7 -70 8 -75 31 -75 14
0 31 10 42 25 19 27 16 81 -16 299 -8 51 -12 98 -9 102 3 5 51 9 107 9 133 1
347 31 347 49 0 4 -45 12 -100 19 -55 6 -110 17 -121 23 -11 6 -63 12 -115 14
-59 2 -101 8 -111 16 -13 12 -14 32 -8 153 3 77 8 143 10 146 2 4 5 43 6 89 2
70 0 84 -17 100 -15 15 -24 17 -40 9z"/>
<path d="M17345 12735 c-93 -24 -268 -81 -413 -134 -46 -17 -92 -31 -102 -31
-24 0 -60 -46 -60 -75 0 -62 74 -63 220 -5 111 44 402 143 458 155 48 10 50
-13 6 -92 -110 -200 -157 -310 -169 -403 -10 -73 24 -127 104 -167 53 -27 75
-33 130 -33 120 0 250 47 410 147 47 29 89 53 93 53 12 0 9 35 -4 48 -20 20
-43 14 -141 -32 -155 -73 -228 -99 -299 -104 -120 -8 -178 17 -178 77 0 45 44
157 131 334 82 166 95 215 59 224 -10 3 -22 14 -26 25 -13 43 -85 48 -219 13z
m181 -162 c-10 -10 -19 5 -10 18 6 11 8 11 12 0 2 -7 1 -15 -2 -18z"/>
<path d="M19690 12536 c-5 -14 -17 -54 -26 -88 -8 -35 -33 -103 -54 -153 -52
-123 -110 -303 -110 -340 0 -37 25 -75 49 -75 34 0 51 33 51 96 0 38 9 83 26
129 14 39 32 90 40 114 7 24 26 69 41 100 23 48 27 69 28 146 0 77 -2 90 -17
93 -12 2 -21 -6 -28 -22z"/>
<path d="M9680 12465 c-15 -18 -19 -207 -20 -1030 -1 -473 1 -601 13 -645 14
-58 38 -76 55 -43 5 10 12 158 16 328 4 171 11 409 16 530 5 121 12 355 16
520 7 299 6 300 -15 328 -25 30 -61 36 -81 12z"/>
<path d="M21590 12313 c-71 -18 -99 -22 -110 -14 -58 42 -105 33 -204 -38 -46
-33 -82 -70 -108 -110 -37 -56 -39 -61 -29 -99 31 -113 157 -167 343 -145 218
26 417 119 464 219 23 47 4 115 -40 149 -91 70 -163 78 -316 38z m221 -108
c70 -37 63 -68 -22 -111 -87 -44 -163 -64 -274 -75 -109 -11 -178 -4 -228 24
-58 33 -59 59 -2 110 71 62 91 71 117 52 26 -18 88 -20 138 -4 97 30 217 31
271 4z"/>
<path d="M7521 12231 c-18 -18 -19 -32 -15 -208 3 -103 9 -233 14 -288 20
-213 23 -495 6 -755 -25 -397 -25 -444 -2 -469 11 -12 29 -21 40 -19 22 3 21
-26 17 398 -1 107 3 209 8 226 5 17 7 42 4 55 -2 14 0 56 5 94 5 39 6 79 2 90
-4 11 -1 33 5 50 9 20 13 93 14 220 0 105 4 274 7 377 l7 187 -31 30 c-35 36
-54 39 -81 12z"/>
<path d="M3692 12108 c-20 -25 -23 -64 -7 -128 11 -45 19 -156 25 -360 15
-447 16 -465 25 -480 7 -12 13 -147 18 -463 2 -84 3 -89 29 -104 21 -13 30
-14 41 -5 12 11 12 23 0 95 -16 91 -33 593 -21 618 4 9 10 151 14 315 9 420
-6 514 -83 522 -16 2 -35 -3 -41 -10z"/>
<path d="M13430 11801 c-14 -5 -50 -9 -81 -10 -82 -1 -115 -16 -123 -53 -4
-21 -26 -49 -65 -84 -113 -103 -216 -263 -257 -399 -28 -93 -26 -262 5 -338
79 -198 363 -393 646 -443 103 -18 291 -18 380 1 161 34 335 157 396 281 35
71 42 97 69 251 28 168 13 245 -77 370 -72 101 -148 162 -285 231 -68 33 -153
71 -190 84 -50 17 -68 28 -70 43 -2 13 -21 29 -53 44 -42 20 -68 25 -160 27
-60 2 -121 -1 -135 -5z m116 -121 c93 -12 225 -44 284 -69 25 -10 65 -27 90
-37 25 -10 59 -29 76 -41 17 -13 42 -23 56 -23 27 0 64 -33 54 -49 -4 -5 14
-27 38 -47 87 -72 152 -187 162 -283 8 -76 -11 -210 -42 -285 -51 -126 -137
-207 -279 -263 -67 -26 -77 -28 -240 -27 -155 0 -178 3 -258 27 -291 89 -493
275 -513 472 -18 180 134 451 321 570 90 58 129 76 153 70 13 -3 56 -10 98
-15z m622 -234 c50 -26 132 -124 167 -199 37 -80 52 -141 37 -151 -5 -3 -15
20 -21 52 -21 108 -85 204 -191 285 -38 29 -35 35 8 13z"/>
<path d="M16733 11512 c-60 -54 -117 -137 -205 -296 -34 -61 -96 -172 -138
-246 -127 -222 -207 -388 -249 -519 -23 -69 -41 -133 -41 -143 0 -23 55 -51
85 -44 13 3 26 14 29 24 37 132 99 318 140 420 l53 127 101 2 c112 2 248 26
273 49 17 16 55 19 63 5 3 -5 -8 -14 -25 -21 -17 -7 -34 -23 -38 -34 -5 -12
-16 -91 -25 -176 -10 -85 -24 -182 -32 -214 -15 -68 -8 -86 35 -86 31 0 45 8
58 35 20 38 41 193 52 374 7 117 3 111 96 132 47 11 61 18 63 35 5 33 -32 57
-96 62 l-57 4 0 247 c0 217 -2 250 -18 279 -26 47 -59 43 -124 -16z m47 -303
c3 -116 2 -216 -1 -221 -6 -10 -85 -22 -231 -34 -71 -6 -78 -5 -78 11 0 10 10
32 23 49 22 30 87 141 157 271 75 139 95 164 114 145 6 -6 13 -96 16 -221z
m48 -277 c3 -9 -3 -13 -19 -10 -12 1 -24 9 -27 16 -3 9 3 13 19 10 12 -1 24
-9 27 -16z"/>
<path d="M19124 11390 c-6 -26 -11 -30 -39 -30 -42 0 -79 -36 -123 -117 -17
-33 -60 -98 -95 -145 -35 -47 -82 -119 -105 -160 -22 -41 -48 -80 -56 -87 -9
-8 -16 -18 -16 -24 0 -6 -33 -60 -73 -121 -41 -61 -90 -141 -111 -178 -21 -37
-57 -93 -82 -124 -60 -79 -59 -119 4 -139 19 -6 31 1 65 37 39 41 154 232 206
340 34 71 40 74 119 52 88 -25 338 -26 422 -2 31 9 93 16 143 16 118 1 174 35
110 67 -12 6 -28 16 -36 23 -11 9 -34 11 -79 6 -74 -7 -72 -9 -83 82 -10 88
-63 393 -76 438 -11 39 -57 96 -78 96 -7 0 -14 -13 -17 -30z m13 -135 c6 -28
21 -106 33 -175 12 -69 30 -163 40 -210 10 -47 17 -86 16 -88 -2 -1 -35 2 -74
8 -39 5 -106 9 -149 8 -98 -1 -179 10 -193 27 -9 10 -1 32 32 90 24 43 61 110
83 150 138 253 186 296 212 190z"/>
<path d="M20906 11284 c-4 -14 -4 -34 -1 -44 3 -10 2 -21 -4 -24 -5 -3 -12 5
-15 19 -15 60 -66 14 -187 -170 -43 -65 -79 -125 -79 -132 0 -7 -13 -27 -28
-45 -16 -18 -45 -60 -64 -93 -19 -33 -54 -91 -78 -129 -54 -88 -180 -332 -191
-369 -11 -38 19 -69 64 -65 36 3 56 33 108 158 17 41 39 93 49 115 10 22 32
70 48 106 l30 67 201 0 c183 0 220 -5 191 -23 -16 -10 -11 -124 10 -220 43
-196 57 -223 103 -211 39 9 41 37 9 138 -17 51 -33 125 -37 163 -4 39 -11 85
-15 103 -11 43 -2 46 91 33 219 -33 319 -36 319 -11 0 4 -21 19 -47 31 -27 13
-55 31 -63 40 -16 18 -87 34 -190 45 -114 12 -105 -6 -118 221 -13 223 -21
265 -53 299 -29 31 -45 30 -53 -2z m16 -304 c5 -100 8 -183 6 -186 -3 -2 -69
-1 -147 3 -96 4 -144 10 -147 18 -3 7 19 48 48 91 62 93 69 103 103 169 15 28
43 65 63 82 57 51 63 38 74 -177z m-107 -230 c3 -6 -5 -10 -19 -10 -14 0 -28
5 -31 10 -3 6 5 10 19 10 14 0 28 -4 31 -10z"/>
<path d="M15080 10900 c-64 -64 37 -174 119 -130 10 5 21 16 24 25 8 20 -19
97 -40 113 -26 19 -80 15 -103 -8z"/>
<path d="M19253 10663 c-4 -9 -2 -50 4 -91 8 -52 8 -82 1 -98 -6 -12 -8 -34
-4 -48 5 -22 12 -26 46 -26 83 0 92 82 28 253 -8 21 -17 27 -40 27 -18 0 -31
-6 -35 -17z"/>
<path d="M19813 10598 c-15 -20 -40 -97 -52 -158 -20 -98 -42 -342 -45 -483
-3 -139 -3 -139 21 -148 33 -12 39 -12 58 7 13 13 16 34 14 98 -3 96 36 458
55 513 26 74 27 128 5 157 -22 28 -41 33 -56 14z"/>
<path d="M17440 10490 c-41 -5 -91 -14 -110 -19 -61 -17 -155 -31 -211 -32
-71 -1 -89 -7 -89 -29 0 -10 -4 -22 -10 -25 -17 -11 -11 -43 12 -59 12 -9 41
-16 65 -16 44 0 55 2 310 56 89 19 169 34 177 34 32 0 14 -34 -59 -112 -41
-44 -93 -111 -116 -148 -35 -59 -40 -75 -37 -117 3 -47 4 -49 53 -73 85 -43
186 -31 392 46 203 75 368 172 348 204 -13 22 -116 4 -233 -41 -177 -67 -233
-85 -323 -103 -81 -16 -119 -14 -119 5 0 9 60 81 161 191 108 118 129 178 77
224 -15 15 -39 19 -116 20 -53 2 -131 -1 -172 -6z"/>
<path d="M21551 10439 c-50 -10 -126 -51 -135 -74 -3 -9 -18 -15 -38 -15 -25
0 -42 -10 -78 -48 -65 -68 -85 -100 -98 -154 -25 -100 -11 -140 68 -201 75
-57 136 -72 285 -71 158 0 221 15 363 87 156 78 187 132 145 251 -24 67 -90
138 -158 170 -64 30 -217 67 -272 65 -21 -1 -58 -5 -82 -10z m147 -119 c120
-15 181 -41 236 -100 50 -54 60 -95 29 -122 -28 -24 -131 -68 -233 -99 -115
-35 -354 0 -421 62 -42 39 -38 69 16 120 25 24 55 58 66 76 19 30 24 33 55 27
24 -4 42 -1 62 12 15 10 45 21 67 25 22 3 40 7 40 8 0 0 38 -4 83 -9z"/>
<path d="M16680 7719 c-96 -4 -205 -7 -242 -8 -56 -1 -71 -5 -97 -27 -39 -32
-41 -67 -5 -91 23 -15 39 -15 172 -5 436 35 662 40 1042 22 745 -34 1233 -99
1443 -191 65 -29 70 -30 93 -14 35 23 27 45 -31 82 -47 31 -88 46 -211 79
-124 32 -454 76 -784 104 -69 6 -152 13 -185 15 -33 3 -202 13 -375 22 -346
18 -554 21 -820 12z"/>
<path d="M17440 7131 c-13 -10 -28 -46 -40 -91 -10 -41 -37 -142 -59 -225 -22
-82 -43 -161 -47 -175 -8 -32 -93 -307 -104 -340 -5 -14 -12 -47 -16 -75 -7
-55 -27 -85 -56 -85 -27 0 -68 -44 -68 -73 0 -13 11 -34 24 -46 l23 -22 -38
-112 c-21 -62 -52 -159 -70 -217 -17 -58 -40 -125 -50 -150 -10 -25 -36 -92
-59 -150 -65 -165 -108 -238 -189 -322 -63 -66 -72 -81 -67 -103 9 -36 48 -52
82 -35 33 18 119 117 178 204 48 73 131 275 159 386 8 36 33 133 54 215 23 94
38 174 38 213 l0 64 45 15 c36 13 76 15 210 10 168 -6 402 -31 429 -46 8 -5
29 -60 47 -122 41 -147 96 -283 189 -474 81 -166 102 -189 136 -146 19 24 13
59 -16 91 -15 16 -118 219 -155 305 -27 61 -110 299 -110 314 0 16 32 14 148
-10 74 -15 107 -18 114 -11 19 19 -8 38 -94 65 -46 15 -94 29 -108 32 -14 2
-45 21 -68 42 -35 32 -44 49 -57 103 -43 183 -109 441 -124 490 -10 30 -28 89
-40 130 -35 115 -69 209 -104 279 -29 58 -36 66 -75 77 -36 10 -45 10 -62 -5z
m73 -188 c20 -48 162 -481 192 -588 39 -139 78 -249 93 -268 8 -9 13 -19 10
-22 -3 -3 -56 8 -119 23 -190 48 -210 52 -309 57 -134 8 -200 15 -200 23 0 18
32 51 44 46 10 -4 19 11 31 48 9 29 22 65 30 79 8 14 17 46 21 70 4 24 16 64
27 89 30 69 95 284 112 374 9 45 18 87 20 94 8 24 32 11 48 -25z"/>
<path d="M18227 5833 c-14 -14 -6 -40 21 -65 15 -14 83 -62 152 -107 175 -113
290 -203 381 -299 102 -108 141 -184 146 -290 2 -43 -1 -84 -6 -92 -15 -22
-163 -19 -216 4 -143 64 -207 119 -260 221 -32 63 -40 89 -39 129 1 61 29 122
73 154 35 26 41 58 11 67 -11 3 -20 11 -20 16 0 5 -10 9 -23 9 -30 0 -106 -73
-132 -125 -61 -126 -3 -315 132 -435 117 -104 248 -160 382 -163 96 -2 119 7
178 69 39 41 47 86 33 182 -20 141 -117 280 -307 441 -77 65 -320 224 -420
275 -33 16 -75 21 -86 9z"/>
</g>
</svg>
