<?xml version="1.0" standalone="no"?>
<!DOCTYPE svg PUBLIC "-//W3C//DTD SVG 20010904//EN"
 "http://www.w3.org/TR/2001/REC-SVG-20010904/DTD/svg10.dtd">
<svg version="1.0" xmlns="http://www.w3.org/2000/svg"
 width="3264.000000pt" height="2448.000000pt" viewBox="0 0 3264.000000 2448.000000"
 preserveAspectRatio="xMidYMid meet">
<metadata>
Created by potrace 1.12, written by Peter Selinger 2001-2015
</metadata>
<g transform="translate(0.000000,2448.000000) scale(0.100000,-0.100000)"
fill="#000000" stroke="none">
<path d="M5271 22479 c-89 -29 -141 -83 -167 -176 -46 -162 -10 -606 68 -853
54 -171 177 -336 267 -360 57 -15 104 -6 144 29 42 37 61 46 127 61 72 16 164
57 275 120 200 115 334 243 360 345 8 31 15 75 15 97 0 38 -6 47 -57 98 -56
53 -127 94 -243 140 -65 26 -233 38 -293 22 -55 -15 -67 -7 -67 44 0 151 -117
371 -230 429 -50 26 -125 27 -199 4z m128 -187 c79 -81 117 -158 130 -260 6
-45 8 -95 5 -110 -3 -17 3 -39 15 -59 25 -40 60 -43 139 -13 101 39 227 24
377 -45 128 -58 145 -86 104 -166 -40 -79 -208 -213 -349 -278 -90 -41 -218
-73 -282 -69 l-53 3 -32 60 c-61 114 -95 229 -163 540 -12 55 -27 118 -33 140
-15 50 -13 266 3 294 8 15 20 21 46 21 31 0 45 -9 93 -58z"/>
<path d="M4519 21910 c-39 -21 -195 -181 -265 -272 -65 -84 -144 -225 -164
-293 -30 -100 -33 -151 -10 -201 30 -69 57 -76 295 -85 217 -7 304 -22 367
-64 20 -13 39 -33 43 -44 10 -33 -65 -334 -87 -348 -19 -11 -36 27 -43 95 -4
37 -16 100 -26 141 -35 130 -113 198 -164 141 -19 -21 -19 -27 14 -165 12 -49
31 -144 41 -211 10 -67 26 -146 35 -177 12 -42 14 -61 5 -77 -14 -27 -63 -26
-115 1 -74 40 -271 255 -371 408 -87 132 -196 322 -219 380 -28 74 -56 111
-83 111 -29 -1 -154 -73 -175 -101 -28 -39 -35 -191 -12 -305 19 -96 78 -272
125 -370 25 -53 32 -61 52 -57 18 3 27 -3 42 -31 10 -19 15 -39 11 -46 -4 -6
0 -19 9 -29 25 -28 66 -167 73 -248 5 -62 3 -73 -11 -79 -9 -3 -23 -1 -31 6
-24 20 -95 155 -95 181 0 27 -22 74 -31 68 -4 -2 -17 5 -29 16 -15 13 -19 26
-15 42 6 25 -10 63 -31 76 -8 4 -14 16 -14 26 0 10 -12 36 -28 57 -15 21 -35
56 -45 77 -38 83 -86 145 -136 178 -34 21 -53 42 -57 58 -16 75 -58 152 -109
200 -30 28 -61 51 -70 51 -22 0 -93 -37 -137 -72 -42 -33 -72 -101 -88 -202
-17 -108 -14 -582 5 -726 20 -150 61 -320 115 -467 21 -59 47 -130 56 -158 30
-90 58 -146 75 -156 44 -23 79 -2 135 81 13 19 31 45 40 58 17 23 16 24 -30
71 -68 69 -127 235 -180 506 -20 99 -40 202 -46 228 -5 27 -10 81 -10 120 0
40 -4 99 -9 132 -12 76 -19 381 -8 391 18 19 61 -24 93 -93 29 -64 58 -112
154 -253 14 -20 46 -61 71 -91 41 -49 123 -166 189 -269 14 -21 52 -76 85
-122 33 -46 76 -109 95 -141 50 -83 100 -130 132 -122 41 11 105 84 119 137
12 44 10 59 -25 205 -44 184 -110 387 -137 422 -11 13 -19 30 -19 37 0 8 -7
14 -15 14 -8 0 -20 10 -26 23 -7 12 -18 26 -26 30 -17 10 -65 106 -87 174 -25
75 -29 199 -8 232 35 55 52 49 77 -24 10 -31 24 -60 32 -66 7 -6 13 -19 13
-28 0 -9 19 -37 43 -61 23 -25 50 -57 59 -71 21 -33 26 -92 9 -113 -11 -13
-11 -20 -3 -28 7 -7 12 -22 12 -34 0 -12 12 -37 28 -57 15 -20 38 -55 52 -77
36 -60 176 -190 240 -224 161 -85 284 -88 371 -9 50 46 65 74 72 143 5 41 12
60 29 73 25 19 70 97 141 242 61 125 80 188 81 271 0 62 -3 77 -29 119 -45 72
-105 109 -211 128 -124 23 -259 38 -362 42 -48 1 -89 3 -92 4 -11 2 8 147 26
191 30 77 168 265 276 376 43 44 49 56 46 85 -3 30 -7 34 -33 36 -16 2 -46 -6
-66 -17z"/>
<path d="M11534 21822 c-85 -26 -187 -85 -223 -131 -82 -104 -121 -259 -121
-486 0 -247 28 -476 82 -675 44 -163 88 -196 161 -122 26 27 40 52 47 87 6 28
13 63 16 78 7 31 -17 67 -46 67 -48 0 -66 58 -89 290 -6 58 -16 138 -23 178
-9 56 -9 105 0 220 13 160 38 261 74 300 64 69 286 118 346 76 35 -24 30 -88
-13 -179 -31 -66 -56 -101 -157 -229 -36 -46 -68 -106 -68 -128 0 -32 29 -77
53 -82 12 -3 76 -7 142 -11 165 -8 443 -72 487 -112 55 -49 -35 -181 -237
-347 -163 -134 -399 -291 -525 -348 -65 -30 -213 -81 -325 -113 -72 -20 -85
-30 -85 -61 0 -18 9 -29 34 -41 32 -15 41 -15 123 1 184 37 317 92 531 219
234 139 510 376 600 515 44 68 67 139 58 176 -8 33 -51 83 -95 110 -93 59
-315 116 -478 123 -139 7 -141 12 -47 109 69 73 133 170 159 243 8 24 15 74
15 111 0 81 -17 108 -93 146 -69 35 -213 43 -303 16z"/>
<path d="M10574 21501 c-28 -17 -84 -65 -123 -108 -160 -174 -204 -309 -142
-438 49 -102 141 -178 351 -289 160 -85 190 -110 190 -160 0 -34 -62 -170
-102 -222 -44 -58 -104 -101 -152 -108 -56 -9 -96 -39 -96 -72 0 -37 15 -60
50 -74 48 -20 107 2 190 72 142 120 240 269 262 400 10 59 10 71 -7 108 -26
57 -76 97 -208 165 -285 148 -377 249 -348 381 17 74 59 133 169 240 83 80 95
96 86 111 -18 29 -64 26 -120 -6z"/>
<path d="M9429 20919 c-45 -17 -54 -56 -41 -173 7 -55 21 -209 32 -340 24
-282 41 -401 79 -534 42 -146 68 -189 144 -237 61 -39 212 -12 342 60 135 75
298 226 447 413 59 75 70 109 43 132 -12 10 -21 10 -44 0 -29 -12 -51 -33
-207 -199 -145 -154 -335 -275 -433 -275 -77 0 -99 10 -122 56 -66 130 -123
435 -135 728 -9 221 -19 349 -29 358 -17 16 -49 21 -76 11z"/>
<path d="M8717 19026 c-42 -44 -108 -155 -139 -231 -9 -22 -32 -78 -51 -125
-67 -160 -179 -541 -193 -653 -6 -57 -6 -57 -55 -79 -55 -23 -99 -68 -99 -101
0 -12 16 -42 36 -67 39 -49 39 -50 10 -156 -9 -34 -27 -126 -41 -204 -27 -163
-23 -187 40 -217 31 -15 36 -15 59 1 28 18 66 84 66 114 0 11 -9 31 -21 45
-22 30 -23 20 18 232 27 143 46 176 122 211 20 9 52 29 71 44 19 14 60 37 90
49 29 13 70 33 90 46 19 12 45 25 58 29 52 17 168 79 184 99 20 26 23 68 6 85
-17 17 -62 15 -169 -7 -147 -31 -243 -69 -276 -109 -11 -14 -15 -13 -33 3 -28
25 -25 56 9 118 16 28 37 77 47 107 9 30 27 80 39 110 61 145 124 310 139 359
18 63 31 81 57 81 22 0 28 -14 59 -125 28 -101 97 -295 160 -450 27 -66 62
-158 78 -205 17 -47 42 -114 56 -150 162 -421 199 -545 166 -565 -20 -12 -11
-65 16 -90 35 -32 78 -33 99 -1 47 71 23 217 -75 461 -121 300 -280 748 -350
985 -27 91 -104 283 -132 328 -28 45 -58 72 -81 72 -10 0 -38 -20 -60 -44z"/>
<path d="M3186 19003 c-4 -5 -14 -21 -22 -38 -7 -16 -32 -55 -54 -85 -22 -30
-56 -78 -75 -106 -18 -29 -38 -55 -45 -59 -6 -4 -22 -32 -35 -62 -14 -30 -37
-69 -51 -86 -29 -35 -98 -174 -148 -302 -51 -130 -91 -198 -135 -233 -42 -34
-50 -58 -29 -91 9 -15 3 -39 -32 -132 -24 -63 -49 -132 -57 -154 -36 -102 -86
-233 -100 -258 -8 -16 -30 -38 -50 -49 -39 -24 -73 -89 -73 -142 0 -33 30 -69
97 -114 63 -44 115 -17 149 76 9 26 49 133 89 237 39 105 87 237 105 295 18
58 38 111 45 119 7 7 55 21 106 31 52 10 121 25 154 34 130 34 194 48 280 61
50 7 111 21 138 30 64 23 86 8 111 -71 10 -33 38 -108 63 -169 25 -60 47 -132
50 -160 5 -46 2 -52 -26 -79 -42 -41 -41 -73 4 -92 44 -18 69 -18 105 1 70 36
61 190 -23 415 -23 62 -58 131 -79 157 -21 26 1 39 99 57 83 15 106 24 138 50
30 26 36 36 31 54 -4 12 -18 25 -32 28 -21 5 -185 -9 -254 -22 -14 -3 -33 1
-42 8 -14 11 -48 113 -91 273 -3 11 -15 45 -27 75 -11 30 -44 123 -71 205 -55
161 -78 209 -133 268 -33 35 -63 46 -80 30z m21 -225 c5 -7 24 -60 42 -118 45
-146 112 -317 170 -433 29 -57 45 -100 39 -103 -5 -4 -49 -3 -97 0 -116 9
-339 -9 -409 -34 l-56 -20 -25 24 -24 25 37 61 c20 35 53 106 72 159 37 98
146 332 190 409 25 43 44 52 61 30z m-336 -738 c41 -23 6 -77 -74 -113 -52
-24 -57 -22 -57 19 0 47 14 71 53 88 40 18 53 19 78 6z"/>
<path d="M24114 18450 c-12 -5 -34 -25 -49 -44 -25 -33 -29 -50 -41 -174 -29
-304 -27 -719 6 -997 5 -44 14 -136 20 -205 17 -191 53 -469 86 -665 8 -49 20
-119 26 -155 12 -72 30 -100 64 -100 25 0 54 24 54 45 0 7 -9 64 -19 127 -44
257 -75 482 -90 658 -6 69 -16 188 -23 265 -17 190 -17 785 0 950 14 136 22
179 43 233 22 54 -18 87 -77 62z"/>
<path d="M20345 18351 c-77 -46 -180 -192 -282 -396 -133 -265 -357 -817 -397
-978 -23 -95 -37 -112 -104 -133 -97 -29 -138 -53 -157 -88 -14 -26 -15 -37
-6 -54 17 -32 53 -28 112 13 28 19 55 35 60 35 17 0 9 -40 -25 -122 -47 -115
-110 -310 -145 -453 -17 -66 -42 -153 -56 -194 -14 -41 -25 -85 -25 -97 0 -30
33 -48 75 -40 55 11 72 33 90 121 33 162 88 372 140 535 13 41 31 102 40 135
34 118 46 154 58 164 16 13 281 72 477 106 85 14 186 33 224 41 38 8 79 14 92
14 26 0 27 -2 44 -120 19 -131 69 -306 158 -552 66 -185 70 -190 135 -186 51
3 52 4 55 35 2 21 -6 48 -21 75 -48 83 -132 332 -211 627 -20 74 -34 136 -32
139 3 2 38 8 78 12 41 5 86 12 101 15 51 13 59 69 11 81 -13 3 -62 0 -109 -7
-52 -7 -89 -9 -95 -3 -5 5 -13 50 -19 99 -5 50 -19 162 -30 250 -28 218 -51
470 -51 558 0 95 -18 283 -31 324 -6 18 -20 40 -32 48 -29 20 -86 19 -122 -4z
m51 -323 c25 -374 66 -702 115 -916 6 -29 9 -55 6 -59 -4 -3 -48 -9 -99 -14
-121 -10 -387 -54 -486 -81 -139 -37 -162 -41 -169 -34 -4 3 4 30 16 59 13 28
54 138 91 242 70 198 168 446 224 570 37 80 208 395 239 438 17 26 21 27 35
14 11 -11 18 -65 28 -219z"/>
<path d="M31070 18143 c-97 -4 -222 -24 -339 -54 -192 -50 -358 -139 -468
-251 -115 -119 -140 -182 -88 -233 30 -31 91 -34 111 -7 16 21 18 66 3 93 -14
28 5 56 86 123 159 130 415 209 686 210 132 1 137 0 177 -27 36 -23 42 -33 42
-61 0 -45 -22 -95 -81 -183 -44 -64 -226 -298 -338 -433 -89 -107 -247 -317
-357 -475 -66 -94 -94 -147 -125 -239 -23 -69 -23 -69 -3 -105 10 -19 30 -41
44 -49 34 -18 155 -8 319 25 69 14 146 29 171 33 25 4 72 13 105 19 33 7 103
18 155 26 245 37 301 51 333 83 34 34 33 56 -6 113 -38 56 -96 48 -123 -17 -8
-19 -20 -36 -27 -38 -7 -2 -82 -14 -167 -26 -85 -12 -237 -37 -337 -56 -100
-19 -209 -37 -242 -40 -74 -8 -121 8 -121 40 0 54 245 397 530 741 158 191
300 387 336 463 79 167 48 266 -96 305 -67 18 -108 23 -180 20z"/>
<path d="M4455 18077 c-25 -25 -35 -44 -36 -68 -7 -275 34 -912 71 -1108 5
-30 10 -67 10 -84 0 -41 37 -115 61 -122 11 -4 27 -1 36 7 15 12 15 61 -2 233
-20 210 -27 369 -29 620 -1 276 0 302 17 327 16 23 18 38 12 103 -8 86 -24
112 -72 121 -28 6 -38 1 -68 -29z"/>
<path d="M25340 18074 c-63 -13 -135 -31 -159 -39 -25 -8 -65 -15 -90 -15 -34
0 -51 -6 -71 -25 -14 -13 -62 -44 -107 -67 -111 -59 -167 -99 -203 -150 -34
-46 -36 -84 -7 -102 26 -16 88 20 109 64 21 43 94 110 119 110 24 0 25 -44 4
-145 -39 -182 -23 -674 29 -926 54 -261 124 -426 202 -478 126 -83 356 -23
541 142 98 87 262 286 328 399 141 240 200 464 193 731 -3 133 -3 135 -41 209
-80 157 -233 268 -416 302 -124 24 -292 20 -431 -10z m357 -85 c163 -22 314
-125 376 -257 29 -62 30 -71 30 -196 1 -207 -44 -390 -139 -580 -57 -112 -88
-158 -196 -289 -251 -304 -496 -385 -586 -194 -54 115 -102 301 -124 482 -19
162 -16 648 5 775 28 166 35 187 65 199 27 10 252 57 307 64 64 8 187 7 262
-4z"/>
<path d="M22845 18010 c-33 -10 -101 -23 -151 -29 -51 -5 -106 -17 -124 -26
-26 -14 -31 -21 -28 -47 4 -43 27 -55 75 -39 78 26 83 13 22 -59 -159 -188
-306 -448 -370 -655 -27 -86 -51 -248 -50 -340 1 -267 110 -384 293 -315 117
44 345 269 484 477 54 82 144 262 144 291 0 18 30 15 37 -5 10 -27 -14 -189
-39 -258 -25 -70 -17 -95 27 -95 21 0 39 17 140 133 28 33 35 35 110 41 44 3
96 4 115 2 19 -3 47 -5 61 -5 15 -1 37 -9 49 -19 19 -16 20 -20 9 -45 -23 -51
-195 -177 -344 -254 -55 -27 -77 -45 -82 -62 -9 -38 9 -56 55 -55 71 1 321
152 426 258 167 166 117 266 -146 295 -84 9 -164 0 -221 -25 -23 -11 -41 -14
-47 -8 -9 10 3 223 20 337 6 37 19 86 30 107 25 50 25 76 -1 90 -32 18 -62 8
-84 -27 -26 -43 -41 -41 -49 5 -13 69 -55 139 -120 199 -35 32 -71 75 -79 95
-12 29 -23 39 -54 47 -46 13 -35 14 -108 -9z m78 -151 c21 -11 41 -28 44 -37
4 -9 26 -39 50 -67 23 -27 49 -69 57 -92 8 -24 24 -55 35 -69 16 -21 19 -35
15 -72 -8 -58 -66 -211 -103 -272 -16 -25 -43 -72 -62 -105 -18 -33 -46 -78
-61 -100 -16 -22 -47 -66 -69 -98 -49 -70 -141 -178 -196 -231 -56 -53 -152
-116 -176 -116 -39 0 -85 39 -104 88 -29 75 -24 257 10 396 50 200 117 336
291 586 151 218 154 222 196 214 19 -3 51 -14 73 -25z"/>
<path d="M10390 17974 c-66 -12 -150 -39 -201 -64 -70 -36 -181 -124 -235
-188 -73 -85 -174 -235 -174 -258 0 -44 47 -67 90 -44 11 6 47 50 80 100 136
197 293 299 494 318 242 23 358 -63 412 -308 15 -64 15 -85 5 -150 -40 -242
-265 -472 -546 -559 -72 -22 -115 -21 -167 6 -50 25 -78 91 -97 234 -12 86 -4
127 34 183 30 45 32 79 5 106 -30 30 -76 26 -111 -11 -57 -61 -75 -205 -44
-363 37 -198 126 -286 287 -286 225 0 502 175 663 418 81 124 115 222 115 337
0 222 -152 454 -336 511 -48 15 -225 27 -274 18z"/>
<path d="M28570 17740 c-316 -20 -623 -84 -875 -183 -77 -30 -183 -69 -235
-86 -177 -60 -198 -79 -185 -178 12 -97 77 -125 138 -59 46 50 92 64 517 157
80 17 168 40 195 49 28 10 105 30 172 44 67 13 133 32 146 40 13 9 61 21 108
27 46 6 96 18 111 25 15 8 46 14 70 14 24 1 95 11 157 24 96 20 119 28 138 50
28 33 28 41 3 66 -19 19 -32 20 -182 18 -90 -1 -215 -5 -278 -8z"/>
<path d="M21495 17653 c-27 -2 -108 -10 -180 -19 -262 -31 -425 -92 -425 -159
0 -50 40 -57 123 -20 80 35 159 53 330 77 198 26 580 29 803 5 160 -17 216
-12 228 20 17 42 -60 65 -293 88 -137 13 -440 18 -586 8z"/>
<path d="M28572 17281 c-8 -5 -12 -21 -10 -40 2 -28 -2 -36 -41 -62 -75 -50
-182 -67 -444 -74 -109 -2 -180 -8 -217 -19 -30 -9 -98 -25 -150 -35 -169 -34
-304 -71 -329 -89 -32 -23 -43 -64 -36 -125 9 -72 23 -97 56 -97 15 0 31 4 34
10 12 20 92 59 150 75 33 8 135 22 227 30 91 8 177 19 190 23 12 5 52 12 88
16 36 4 70 12 77 17 6 6 38 14 70 19 89 15 161 37 243 76 146 69 180 107 180
202 0 41 -4 54 -22 66 -25 18 -46 20 -66 7z"/>
<path d="M21905 17020 c-106 -22 -413 -47 -715 -58 -233 -9 -262 -15 -290 -64
-11 -21 -12 -32 -4 -45 14 -22 39 -22 374 0 467 32 597 48 725 89 74 25 97 47
79 76 -15 23 -61 24 -169 2z"/>
<path d="M3684 16605 c-14 -21 -16 -41 -11 -108 7 -93 48 -400 71 -527 65
-358 80 -776 40 -1120 -13 -113 -28 -232 -33 -265 -6 -33 -14 -110 -17 -171
-8 -132 0 -157 49 -152 38 4 40 12 57 183 6 66 15 149 21 185 42 297 52 419
52 660 1 271 -13 424 -75 810 -30 187 -41 288 -42 379 -2 108 -4 125 -21 137
-31 23 -72 17 -91 -11z"/>
<path d="M9317 16589 c-145 -21 -250 -88 -304 -193 -13 -27 -59 -88 -101 -137
-92 -104 -134 -172 -178 -282 -52 -133 -67 -221 -67 -402 0 -177 13 -256 62
-380 76 -189 188 -303 392 -399 249 -118 440 -149 633 -105 113 26 206 74 285
146 95 85 116 129 162 338 18 80 23 131 23 255 0 175 -12 237 -89 462 -67 196
-155 357 -241 443 -26 26 -41 50 -38 58 7 18 -82 107 -128 129 -63 30 -83 38
-141 53 -75 18 -196 25 -270 14z m181 -153 c69 -19 96 -37 127 -87 37 -58 55
-60 118 -17 16 11 23 8 53 -27 129 -148 265 -452 305 -683 23 -136 24 -227 4
-342 -35 -195 -67 -271 -147 -347 -170 -160 -430 -183 -726 -62 -229 93 -353
210 -417 392 -29 84 -34 113 -45 236 -20 244 32 453 158 638 41 59 195 217
235 240 46 27 194 72 237 72 25 1 69 -6 98 -13z"/>
<path d="M16404 15845 c-7 -18 3 -35 21 -35 21 0 28 19 15 35 -16 19 -29 19
-36 0z"/>
<path d="M30615 13608 c-204 -10 -238 -21 -243 -80 -3 -34 0 -39 37 -58 50
-25 89 -26 115 -1 42 38 315 52 596 31 186 -15 240 -32 225 -72 -9 -24 -294
-279 -449 -403 -360 -287 -419 -339 -472 -416 -61 -90 -66 -136 -17 -179 36
-32 59 -36 280 -45 409 -16 827 -132 971 -271 61 -58 66 -89 31 -170 -31 -70
-71 -117 -169 -198 -227 -189 -478 -315 -913 -457 -65 -21 -229 -65 -365 -99
-136 -34 -266 -66 -289 -72 -141 -35 -133 -115 10 -91 428 72 932 231 1262
400 313 160 575 398 601 546 17 99 -1 151 -80 225 -160 152 -576 274 -1042
306 -239 16 -264 31 -176 105 70 60 240 199 308 253 372 298 475 388 542 477
73 97 92 127 92 150 0 30 -38 70 -78 81 -131 38 -452 53 -777 38z"/>
<path d="M24922 13435 c-34 -15 -49 -53 -73 -185 -19 -108 2 -496 60 -1120 5
-58 15 -172 20 -255 70 -984 70 -982 109 -1028 11 -12 27 -17 46 -15 36 3 36
9 17 122 -12 69 -25 261 -36 516 -3 74 -10 189 -15 255 -5 66 -12 170 -15 230
-3 61 -10 157 -15 215 -38 427 -44 528 -44 780 -1 233 2 285 17 338 20 75 22
112 5 134 -20 23 -41 27 -76 13z"/>
<path d="M20255 13384 c-218 -54 -395 -157 -561 -326 -118 -119 -190 -222
-263 -372 -132 -274 -181 -493 -181 -817 0 -180 36 -517 71 -664 21 -91 49
-186 78 -269 17 -48 31 -104 31 -125 0 -110 71 -196 193 -233 85 -25 160 -20
232 16 28 14 60 26 71 26 38 0 224 86 302 139 15 10 52 34 82 54 129 84 261
210 360 341 19 25 43 56 53 69 11 12 30 41 44 65 23 39 25 49 18 110 -9 81
-29 122 -94 194 -96 105 -302 222 -486 276 -135 40 -328 73 -472 81 -157 8
-174 14 -155 56 17 37 15 75 -5 98 -17 18 -17 20 17 49 19 17 60 46 90 66 30
19 87 62 126 96 40 34 98 79 129 101 32 22 72 52 89 66 17 14 45 33 63 42 17
9 48 33 70 53 21 21 57 51 79 69 310 240 434 395 434 543 0 61 -2 65 -44 110
-60 64 -114 84 -246 88 -58 1 -114 1 -125 -2z m199 -175 c45 -12 82 -46 92
-84 8 -31 -38 -103 -124 -196 -64 -69 -295 -260 -572 -471 -113 -86 -232 -181
-265 -211 -33 -30 -75 -62 -92 -71 -55 -28 -57 -93 -3 -83 l27 6 -41 -84 c-23
-46 -47 -84 -53 -85 -17 0 -63 92 -63 126 0 106 102 458 180 620 42 86 135
219 191 270 55 50 168 133 212 156 23 11 52 29 65 39 33 26 125 59 207 74 72
14 170 11 239 -6z m-1029 -1383 c12 -18 15 -37 10 -68 -3 -24 5 -155 19 -297
35 -341 34 -443 -5 -404 -20 20 -84 471 -96 681 l-6 112 31 0 c22 0 36 -7 47
-24z m448 -26 c202 -23 217 -26 367 -76 254 -86 457 -245 434 -341 -17 -70
-164 -266 -270 -359 -98 -87 -275 -208 -369 -254 -182 -87 -376 -105 -480 -43
-19 11 -19 12 -2 31 26 29 43 346 28 530 -6 75 -16 191 -21 257 -5 66 -15 150
-21 187 -6 37 -8 72 -4 78 10 16 138 12 338 -10z"/>
<path d="M26243 13314 c-39 -16 -64 -105 -64 -234 -1 -86 27 -469 46 -645 49
-448 59 -729 41 -1155 -9 -234 -2 -285 39 -296 47 -12 52 3 59 194 4 97 10
213 13 257 3 44 6 231 6 415 0 272 -4 371 -21 525 -41 373 -52 722 -27 858 12
65 -33 104 -92 81z"/>
<path d="M8225 13260 c-190 -39 -466 -252 -593 -460 -79 -128 -157 -349 -187
-530 -26 -152 -31 -449 -11 -610 32 -254 56 -371 99 -478 13 -33 17 -56 11
-62 -9 -9 -161 -42 -256 -55 -52 -7 -71 -23 -66 -57 8 -59 115 -59 334 -2 15
4 34 -6 68 -35 63 -55 112 -57 162 -7 19 19 34 39 34 45 0 20 -42 49 -81 55
-39 6 -55 26 -21 26 79 1 462 175 702 320 229 137 421 303 468 403 25 54 28
116 7 156 -21 42 -101 109 -175 146 -130 65 -242 97 -414 119 -49 6 -91 16
-93 21 -1 6 29 32 67 58 85 59 185 173 229 262 45 91 74 245 68 355 -11 165
-63 268 -157 312 -43 19 -142 29 -195 18z m162 -116 c55 -42 68 -85 68 -234
-1 -153 -13 -210 -73 -325 -56 -106 -197 -248 -302 -304 -45 -24 -84 -49 -87
-56 -7 -21 14 -53 47 -70 19 -10 58 -15 118 -15 201 0 537 -105 603 -188 36
-47 17 -104 -64 -190 -45 -48 -218 -179 -307 -233 -184 -112 -682 -362 -712
-357 -20 3 -25 14 -40 88 -10 47 -24 103 -32 125 -29 83 -75 389 -80 530 -4
109 9 316 25 405 25 137 108 345 189 469 98 152 304 314 465 367 56 19 149 13
182 -12z"/>
<path d="M2615 13060 c-218 -33 -427 -256 -529 -565 -36 -108 -68 -256 -88
-400 -13 -100 -17 -616 -5 -682 6 -38 4 -45 -18 -65 -37 -32 -34 -78 8 -125
40 -45 46 -60 58 -138 13 -92 27 -155 45 -211 20 -61 16 -79 -23 -89 -55 -14
-67 -41 -33 -75 64 -64 359 37 598 204 26 18 79 54 117 81 39 26 84 58 100 69
17 12 50 37 75 56 25 19 61 46 80 59 199 140 390 374 390 479 0 35 -45 107
-92 148 -100 88 -387 215 -648 288 -30 8 -64 22 -75 31 -19 15 -19 17 30 58
147 124 318 323 374 436 51 101 59 168 31 243 -29 77 -52 103 -124 141 -110
57 -176 71 -271 57z m153 -132 c127 -61 152 -148 83 -287 -39 -76 -100 -149
-288 -345 -134 -139 -153 -162 -153 -191 0 -43 49 -87 116 -104 345 -92 724
-263 724 -327 0 -55 -137 -239 -232 -311 -477 -365 -730 -533 -780 -518 -31
10 -38 23 -38 69 0 21 -13 104 -29 185 -54 267 -55 283 -55 681 1 312 4 390
18 465 43 222 108 385 211 525 67 92 158 158 249 181 45 11 124 1 174 -23z"/>
<path d="M28205 12793 c-180 -10 -456 -64 -600 -118 -103 -39 -276 -116 -310
-138 -96 -64 -113 -121 -47 -156 31 -16 59 -6 77 29 10 20 41 41 108 73 255
124 460 174 847 207 74 6 171 15 214 18 59 5 82 11 90 24 15 25 -11 48 -66 59
-41 8 -187 9 -313 2z"/>
<path d="M21795 12650 c-60 -4 -134 -8 -162 -9 -43 -1 -58 -6 -82 -28 -17 -16
-33 -40 -37 -55 -12 -55 60 -87 124 -54 32 16 180 33 352 42 128 6 774 -19
935 -36 50 -5 113 -10 140 -10 84 -1 87 -9 28 -93 -63 -89 -133 -224 -157
-300 -24 -76 -30 -80 -112 -68 -199 29 -803 35 -872 10 -48 -18 -47 -102 2
-129 19 -9 43 -10 117 0 114 15 765 6 786 -11 10 -9 7 -24 -11 -73 -33 -88
-50 -194 -49 -321 0 -151 18 -257 55 -333 40 -84 72 -105 154 -99 82 6 136 32
255 123 172 132 244 250 289 472 50 247 -7 504 -130 592 -45 32 -157 39 -229
15 -29 -9 -55 -14 -58 -11 -9 8 20 68 69 144 l41 64 61 -9 c34 -4 89 -8 124
-8 57 1 62 -1 62 -21 0 -12 16 -55 35 -96 21 -44 46 -124 62 -194 31 -145 35
-335 14 -687 -14 -243 -12 -257 33 -257 31 1 89 56 143 136 126 186 345 319
423 256 23 -19 23 -20 8 -45 -18 -26 -54 -58 -183 -159 -208 -165 -379 -269
-534 -326 -80 -29 -103 -51 -85 -79 25 -41 131 -22 254 45 246 134 493 303
596 407 44 45 94 117 103 152 23 81 -51 130 -190 126 -141 -4 -265 -72 -365
-200 -66 -85 -101 -103 -97 -48 10 124 11 552 2 615 -36 255 -57 334 -101 381
-22 25 -34 29 -76 29 -28 0 -54 5 -58 11 -3 6 -20 17 -37 24 -24 10 -31 19
-32 41 0 53 -91 69 -154 27 -27 -17 -38 -17 -311 16 -285 33 -857 49 -1145 31z
m1518 -477 c44 -26 104 -108 122 -168 9 -27 18 -90 22 -140 5 -74 2 -106 -17
-179 -44 -178 -112 -290 -237 -394 -124 -103 -177 -119 -226 -64 -52 57 -71
288 -43 502 21 157 32 194 55 184 31 -13 177 -17 199 -5 51 27 8 82 -79 100
-27 6 -63 11 -79 11 -17 0 -30 5 -30 10 0 11 58 130 63 130 2 0 27 9 57 20 65
24 144 21 193 -7z"/>
<path d="M28165 12159 c-49 -16 -133 -34 -185 -41 -85 -10 -112 -8 -260 13
-105 15 -211 24 -291 24 -120 0 -127 -1 -167 -27 -58 -39 -74 -67 -75 -136 0
-78 19 -116 60 -120 47 -5 62 29 44 100 -11 42 -11 52 0 59 21 13 87 11 283
-11 327 -36 466 -21 654 74 90 45 104 60 80 84 -18 18 -43 14 -143 -19z"/>
<path d="M9770 11382 c-80 -23 -150 -54 -211 -93 -58 -37 -74 -36 -106 1 -24
29 -55 38 -80 22 -16 -10 -58 -73 -88 -131 -42 -83 -54 -164 -61 -408 l-7
-229 32 -97 c27 -79 41 -105 79 -146 63 -67 124 -93 216 -92 121 1 224 36 385
133 235 141 382 305 425 474 22 86 20 196 -4 275 -24 75 -100 183 -159 223
-99 69 -302 101 -421 68z m271 -137 c91 -30 137 -69 172 -142 25 -54 31 -80
31 -133 0 -80 -35 -198 -77 -259 -90 -132 -299 -281 -475 -340 -107 -36 -238
-25 -294 26 -32 29 -51 119 -51 253 -1 179 16 372 35 402 17 26 248 153 340
188 107 40 208 41 319 5z"/>
<path d="M3724 11373 c-14 -15 -16 -30 -10 -113 20 -280 19 -422 -3 -555 -12
-71 -26 -146 -31 -165 -5 -19 -19 -80 -31 -135 -12 -55 -34 -142 -50 -194 -16
-51 -29 -99 -29 -107 0 -22 30 -44 59 -44 44 0 60 26 113 180 3 8 15 56 27
105 97 411 112 510 110 715 -1 69 2 154 6 190 6 64 6 65 -28 103 -29 31 -41
37 -75 37 -25 0 -47 -7 -58 -17z"/>
<path d="M3705 9310 c-43 -17 -66 -56 -76 -125 -5 -37 -15 -88 -23 -113 -34
-113 -55 -263 -70 -507 -21 -335 -8 -680 44 -1130 5 -44 16 -165 25 -270 21
-244 31 -272 93 -242 34 16 38 42 23 172 -50 429 -70 678 -76 955 -11 477 30
876 116 1144 23 73 24 90 3 110 -17 18 -29 19 -59 6z"/>
<path d="M8606 9001 c-28 -31 -33 -71 -19 -139 12 -61 20 -137 44 -447 11
-144 6 -516 -11 -850 -5 -99 -12 -250 -15 -335 -3 -85 -10 -196 -16 -247 -11
-101 -5 -127 33 -139 37 -11 65 33 73 113 3 37 10 106 15 153 5 47 14 159 20
250 6 91 16 233 22 315 15 215 15 773 -1 920 -7 66 -13 180 -13 254 0 117 -2
135 -19 152 -26 26 -90 26 -113 0z"/>
</g>
</svg>
