<?xml version="1.0" standalone="no"?>
<!DOCTYPE svg PUBLIC "-//W3C//DTD SVG 20010904//EN"
 "http://www.w3.org/TR/2001/REC-SVG-20010904/DTD/svg10.dtd">
<svg version="1.0" xmlns="http://www.w3.org/2000/svg"
 width="2448.000000pt" height="3264.000000pt" viewBox="0 0 2448.000000 3264.000000"
 preserveAspectRatio="xMidYMid meet">
<metadata>
Created by potrace 1.12, written by Peter Selinger 2001-2015
</metadata>
<g transform="translate(0.000000,3264.000000) scale(0.100000,-0.100000)"
fill="#000000" stroke="none">
<path d="M220 32625 c0 -8 9 -15 20 -15 11 0 20 7 20 15 0 8 -9 15 -20 15 -11
0 -20 -7 -20 -15z"/>
<path d="M402 32630 c4 -14 85 -22 94 -9 3 5 4 9 2 10 -2 0 -25 3 -52 6 -35 4
-47 2 -44 -7z"/>
<path d="M795 32629 c-4 -6 -4 -13 -1 -16 8 -8 36 5 36 17 0 13 -27 13 -35 -1z"/>
<path d="M905 32630 c4 -6 11 -8 16 -5 14 9 11 15 -7 15 -8 0 -12 -5 -9 -10z"/>
<path d="M960 32630 c0 -5 4 -10 9 -10 6 0 13 5 16 10 3 6 -1 10 -9 10 -9 0
-16 -4 -16 -10z"/>
<path d="M1412 32628 c6 -18 58 -22 58 -3 0 10 -10 15 -31 15 -19 0 -29 -4
-27 -12z"/>
<path d="M1621 32624 c0 -11 3 -14 6 -6 3 7 2 16 -1 19 -3 4 -6 -2 -5 -13z"/>
<path d="M1698 32633 c6 -2 12 -11 12 -19 0 -8 10 -14 25 -14 15 0 25 6 25 14
0 16 -22 26 -53 25 -12 0 -16 -3 -9 -6z"/>
<path d="M1828 32620 c-18 -20 -12 -36 8 -19 9 7 19 7 33 0 27 -15 41 7 16 26
-24 17 -36 16 -57 -7z"/>
<path d="M2040 32629 c0 -5 5 -7 10 -4 6 3 10 8 10 11 0 2 -4 4 -10 4 -5 0
-10 -5 -10 -11z"/>
<path d="M2360 32630 c0 -6 11 -16 25 -22 21 -10 27 -8 39 8 9 12 11 20 4 23
-6 2 -14 -2 -18 -9 -5 -9 -9 -9 -14 -1 -9 14 -36 14 -36 1z"/>
<path d="M2640 32623 c0 -13 5 -23 10 -23 13 0 13 11 0 30 -8 12 -10 11 -10
-7z"/>
<path d="M3418 32633 c7 -3 16 -2 19 1 4 3 -2 6 -13 5 -11 0 -14 -3 -6 -6z"/>
<path d="M1036 32621 c-3 -5 7 -11 22 -14 31 -6 37 -3 27 12 -8 13 -42 14 -49
2z"/>
<path d="M1214 32619 c-10 -17 13 -36 27 -22 12 12 4 33 -11 33 -5 0 -12 -5
-16 -11z"/>
<path d="M100 32610 c0 -5 5 -10 10 -10 6 0 10 5 10 10 0 6 -4 10 -10 10 -5 0
-10 -4 -10 -10z"/>
<path d="M1125 32609 c-4 -6 -5 -13 -2 -16 7 -7 27 6 27 18 0 12 -17 12 -25
-2z"/>
<path d="M1360 32610 c0 -5 7 -10 16 -10 8 0 12 5 9 10 -3 6 -10 10 -16 10 -5
0 -9 -4 -9 -10z"/>
<path d="M1516 32611 c-3 -5 0 -11 8 -14 15 -6 26 1 26 15 0 11 -27 10 -34 -1z"/>
<path d="M2904 32609 c-3 -6 -15 -8 -26 -6 -12 3 -18 1 -15 -6 6 -19 75 -31
92 -17 13 11 12 15 -11 26 -32 17 -31 17 -40 3z"/>
<path d="M4367 32613 c-4 -3 -7 -17 -7 -29 0 -26 34 -40 69 -29 30 9 26 28 -5
22 -20 -3 -27 1 -34 19 -10 26 -13 28 -23 17z"/>
<path d="M2170 32600 c0 -5 5 -10 10 -10 6 0 10 5 10 10 0 6 -4 10 -10 10 -5
0 -10 -4 -10 -10z"/>
<path d="M3840 32601 c0 -6 5 -13 10 -16 6 -3 10 1 10 9 0 9 -4 16 -10 16 -5
0 -10 -4 -10 -9z"/>
<path d="M2767 32594 c-9 -10 2 -24 19 -24 8 0 14 7 14 15 0 15 -21 21 -33 9z"/>
<path d="M4590 32581 c0 -11 5 -23 11 -27 14 -8 29 14 22 33 -8 20 -33 16 -33
-6z"/>
<path d="M5021 32581 c-15 -27 -10 -33 26 -37 15 -2 22 0 16 4 -7 4 -16 19
-21 32 l-9 24 -12 -23z"/>
<path d="M3240 32580 c0 -5 5 -10 10 -10 6 0 10 5 10 10 0 6 -4 10 -10 10 -5
0 -10 -4 -10 -10z"/>
<path d="M4730 32575 c0 -8 5 -15 10 -15 6 0 10 7 10 15 0 8 -4 15 -10 15 -5
0 -10 -7 -10 -15z"/>
<path d="M3570 32570 c0 -5 4 -10 9 -10 6 0 13 5 16 10 3 6 -1 10 -9 10 -9 0
-16 -4 -16 -10z"/>
<path d="M4536 32572 c-3 -6 -1 -14 5 -17 15 -10 25 3 12 16 -7 7 -13 7 -17 1z"/>
<path d="M5350 32570 c0 -5 -6 -7 -12 -5 -17 6 -42 -10 -34 -23 3 -5 20 -12
36 -14 23 -3 34 0 41 13 14 27 11 39 -11 39 -11 0 -20 -4 -20 -10z"/>
<path d="M4028 32563 c6 -2 18 -2 25 0 6 3 1 5 -13 5 -14 0 -19 -2 -12 -5z"/>
<path d="M4955 32560 c3 -5 10 -10 16 -10 5 0 9 5 9 10 0 6 -7 10 -16 10 -8 0
-12 -4 -9 -10z"/>
<path d="M5604 32555 c-8 -21 -3 -25 24 -18 13 3 21 11 19 17 -6 18 -37 19
-43 1z"/>
<path d="M5717 32550 c-6 -24 18 -28 27 -4 8 22 8 24 -8 24 -7 0 -16 -9 -19
-20z"/>
<path d="M5162 32551 c-11 -7 -10 -10 3 -15 19 -7 35 0 35 15 0 11 -20 12 -38
0z"/>
<path d="M4808 32543 c7 -3 16 -2 19 1 4 3 -2 6 -13 5 -11 0 -14 -3 -6 -6z"/>
<path d="M5400 32540 c0 -5 7 -10 15 -10 8 0 15 5 15 10 0 6 -7 10 -15 10 -8
0 -15 -4 -15 -10z"/>
<path d="M5900 32540 c0 -5 7 -10 16 -10 8 0 12 5 9 10 -3 6 -10 10 -16 10 -5
0 -9 -4 -9 -10z"/>
<path d="M6050 32540 c0 -5 5 -10 11 -10 5 0 7 5 4 10 -3 6 -8 10 -11 10 -2 0
-4 -4 -4 -10z"/>
<path d="M7212 32538 c3 -7 13 -15 22 -16 12 -3 17 1 14 10 -3 7 -13 15 -22
16 -12 3 -17 -1 -14 -10z"/>
<path d="M7425 32530 c-3 -5 1 -10 9 -10 9 0 16 5 16 10 0 6 -4 10 -9 10 -6 0
-13 -4 -16 -10z"/>
<path d="M7587 32533 c-17 -4 -21 -25 -4 -24 4 1 16 1 28 1 11 0 19 5 17 12
-5 14 -17 17 -41 11z"/>
<path d="M10400 32530 c0 -5 5 -10 10 -10 6 0 10 5 10 10 0 6 -4 10 -10 10 -5
0 -10 -4 -10 -10z"/>
<path d="M6935 32520 c-3 -5 1 -10 9 -10 9 0 16 5 16 10 0 6 -4 10 -9 10 -6 0
-13 -4 -16 -10z"/>
<path d="M7685 32516 c11 -8 23 -12 28 -9 13 8 -3 23 -26 23 -20 0 -20 0 -2
-14z"/>
<path d="M7980 32520 c0 -5 4 -10 9 -10 6 0 13 5 16 10 3 6 -1 10 -9 10 -9 0
-16 -4 -16 -10z"/>
<path d="M8525 32519 c-10 -15 1 -23 20 -15 9 3 13 10 10 16 -8 13 -22 13 -30
-1z"/>
<path d="M8615 32520 c-7 -12 2 -30 16 -30 12 0 12 27 0 35 -5 3 -12 1 -16 -5z"/>
<path d="M8720 32520 c0 -5 7 -10 15 -10 8 0 15 5 15 10 0 6 -7 10 -15 10 -8
0 -15 -4 -15 -10z"/>
<path d="M7330 32510 c0 -5 4 -10 9 -10 6 0 13 5 16 10 3 6 -1 10 -9 10 -9 0
-16 -4 -16 -10z"/>
<path d="M8320 32510 c0 -5 5 -10 11 -10 5 0 7 5 4 10 -3 6 -8 10 -11 10 -2 0
-4 -4 -4 -10z"/>
<path d="M10060 32489 c0 -5 5 -7 10 -4 6 3 10 8 10 11 0 2 -4 4 -10 4 -5 0
-10 -5 -10 -11z"/>
<path d="M12215 32470 c-3 -5 1 -10 9 -10 9 0 16 5 16 10 0 6 -4 10 -9 10 -6
0 -13 -4 -16 -10z"/>
<path d="M13330 32465 c0 -9 5 -15 11 -13 6 2 11 8 11 13 0 5 -5 11 -11 13 -6
2 -11 -4 -11 -13z"/>
<path d="M14860 32465 c0 -8 7 -15 15 -15 8 0 15 7 15 15 0 8 -7 15 -15 15 -8
0 -15 -7 -15 -15z"/>
<path d="M13060 32460 c0 -5 6 -10 14 -10 8 0 18 5 21 10 3 6 -3 10 -14 10
-12 0 -21 -4 -21 -10z"/>
<path d="M14200 32461 c0 -6 5 -13 10 -16 6 -3 10 1 10 9 0 9 -4 16 -10 16 -5
0 -10 -4 -10 -9z"/>
<path d="M14340 32440 c0 -5 7 -10 15 -10 8 0 15 5 15 10 0 6 -7 10 -15 10 -8
0 -15 -4 -15 -10z"/>
<path d="M15120 32441 c-14 -4 -20 -10 -14 -13 13 -9 54 1 54 13 0 10 -4 10
-40 0z"/>
<path d="M15480 32440 c0 -5 5 -10 10 -10 6 0 10 5 10 10 0 6 -4 10 -10 10 -5
0 -10 -4 -10 -10z"/>
<path d="M15428 32433 c7 -3 16 -2 19 1 4 3 -2 6 -13 5 -11 0 -14 -3 -6 -6z"/>
<path d="M15590 32430 c19 -13 30 -13 30 0 0 6 -10 10 -22 10 -19 0 -20 -2 -8
-10z"/>
<path d="M15832 32429 c2 -6 8 -10 13 -10 5 0 11 4 13 10 2 6 -4 11 -13 11 -9
0 -15 -5 -13 -11z"/>
<path d="M17390 32420 c0 -5 5 -10 11 -10 5 0 7 5 4 10 -3 6 -8 10 -11 10 -2
0 -4 -4 -4 -10z"/>
<path d="M17690 32420 c0 -5 7 -10 16 -10 8 0 12 5 9 10 -3 6 -10 10 -16 10
-5 0 -9 -4 -9 -10z"/>
<path d="M16990 32409 c0 -5 5 -7 10 -4 6 3 10 8 10 11 0 2 -4 4 -10 4 -5 0
-10 -5 -10 -11z"/>
<path d="M17770 32410 c0 -5 7 -10 16 -10 8 0 12 5 9 10 -3 6 -10 10 -16 10
-5 0 -9 -4 -9 -10z"/>
<path d="M18255 32409 c-4 -6 -5 -13 -2 -16 7 -7 27 6 27 18 0 12 -17 12 -25
-2z"/>
<path d="M19355 32390 c-3 -5 -1 -10 4 -10 6 0 11 5 11 10 0 6 -2 10 -4 10 -3
0 -8 -4 -11 -10z"/>
<path d="M22790 32390 c0 -5 5 -10 11 -10 5 0 7 5 4 10 -3 6 -8 10 -11 10 -2
0 -4 -4 -4 -10z"/>
<path d="M38 32272 c-37 -3 -38 -4 -38 -43 0 -30 4 -39 18 -40 9 -1 73 -3 142
-5 69 -1 136 -4 150 -4 14 -1 66 -2 115 -1 50 0 104 0 120 0 17 0 99 0 184 1
84 1 156 -1 159 -4 8 -9 50 -7 56 2 2 4 56 6 118 4 62 -2 194 -5 293 -7 99 -2
180 -5 180 -5 0 -1 54 -3 120 -5 66 -2 129 -4 140 -5 11 0 46 0 78 0 36 -1 74
-8 100 -20 23 -11 58 -18 77 -17 19 1 61 -2 93 -7 53 -7 59 -6 63 12 4 14 20
21 60 29 30 5 57 7 59 3 7 -11 66 -21 78 -13 7 4 49 6 95 4 56 -2 88 1 98 10
12 10 15 10 12 0 -3 -13 44 -15 207 -12 33 0 69 0 80 0 11 0 29 0 40 1 11 1
54 -1 95 -3 42 -3 80 0 88 5 8 7 17 6 28 -3 12 -10 66 -14 213 -16 372 -4 670
-11 679 -16 4 -3 48 -2 97 3 54 5 95 4 101 -1 7 -6 53 -7 107 -3 52 4 103 3
114 -1 24 -10 123 -13 123 -4 0 3 28 5 63 3 57 -4 413 -15 447 -14 175 4 262
4 265 2 3 -3 424 -13 475 -12 119 5 240 4 266 -1 16 -3 65 -3 108 0 42 4 79 5
81 2 3 -2 148 -6 322 -8 175 -2 338 -4 363 -5 25 -1 101 -1 170 0 69 1 148 1
175 1 28 0 61 0 75 1 14 0 169 -1 345 -4 450 -6 778 -9 790 -6 6 1 12 1 15 0
3 -1 140 -3 305 -6 165 -2 307 -5 315 -6 8 0 56 0 105 0 50 0 106 0 125 0 19
-1 58 -1 85 0 28 2 250 0 495 -3 245 -3 477 -6 515 -5 39 0 77 0 85 0 8 0 143
-3 300 -5 157 -3 292 -5 300 -6 8 -1 47 -1 85 0 39 1 144 0 235 -2 91 -1 173
1 182 5 9 5 19 4 23 -2 3 -6 36 -9 73 -8 37 1 94 1 127 0 33 -1 92 -2 130 -1
68 0 688 -7 1425 -16 195 -2 618 -7 940 -11 707 -8 987 -12 1225 -15 99 -2
186 0 193 5 6 4 16 5 21 2 9 -6 275 -20 341 -18 102 2 585 -5 665 -10 11 -1
49 -1 85 0 36 0 132 1 213 1 82 0 153 3 158 6 5 4 15 3 22 -2 6 -4 167 -9 357
-10 740 -6 1150 -12 1159 -17 5 -3 23 -1 40 5 18 7 37 7 44 2 6 -4 48 -7 92
-6 44 1 114 2 155 2 149 -1 366 -2 415 -2 60 1 254 2 275 3 8 0 33 -3 55 -6
22 -3 96 -4 165 -3 69 2 148 3 175 4 28 0 58 5 69 9 12 6 26 5 38 -3 10 -6 36
-12 56 -12 101 1 148 -2 157 -9 6 -5 48 -4 94 1 46 5 105 9 130 8 25 -1 80 0
121 2 42 1 81 -1 88 -5 6 -4 28 -2 48 3 21 6 41 8 46 5 5 -3 79 -7 166 -9 150
-3 158 -2 174 18 16 21 17 21 38 2 28 -25 103 -29 149 -8 27 12 35 13 41 2 10
-15 103 -19 178 -6 35 6 62 6 75 -1 29 -13 77 -14 77 -2 0 6 7 10 15 10 8 0
15 -7 15 -15 0 -18 5 -18 33 -4 39 20 61 49 48 62 -14 14 -123 16 -132 4 -3
-5 -22 -4 -42 1 -20 6 -54 8 -77 5 -24 -3 -46 -1 -54 6 -20 17 -175 11 -185
-7 -7 -12 -13 -11 -39 2 -32 16 -72 10 -87 -14 -5 -8 -13 -6 -26 6 -24 22
-129 31 -140 12 -6 -10 -22 -10 -71 -1 -35 6 -72 14 -82 19 -16 6 -18 4 -13
-9 5 -13 0 -17 -21 -17 -16 0 -33 5 -38 10 -7 7 -20 6 -40 -5 -26 -13 -29 -13
-32 0 -4 16 -37 21 -46 7 -3 -5 -35 -5 -73 -1 -39 4 -76 3 -86 -3 -10 -5 -26
-6 -37 -3 -10 3 -68 8 -127 11 -59 2 -126 6 -148 7 -23 2 -47 -2 -55 -9 -13
-11 -27 -11 -75 0 -33 7 -89 11 -125 9 -110 -7 -233 -4 -274 8 -19 6 -34 5
-43 -2 -8 -7 -36 -10 -68 -7 -41 3 -55 1 -55 -8 0 -11 -6 -11 -27 -3 -29 12
-152 21 -166 12 -12 -7 -171 -11 -182 -4 -5 3 -48 7 -95 9 -47 1 -102 5 -122
8 -25 4 -38 2 -38 -5 0 -8 -29 -10 -102 -5 -57 4 -112 7 -123 6 -105 -4 -204
-4 -335 1 -85 4 -184 6 -220 5 -89 -3 -149 -2 -257 2 -63 3 -96 0 -107 -9 -12
-10 -20 -10 -43 2 -19 9 -43 11 -73 7 -24 -4 -59 -4 -76 0 -18 4 -37 3 -42 -2
-6 -6 -33 -6 -73 2 -35 6 -89 10 -119 9 -65 -3 -99 -4 -205 -1 -44 1 -92 1
-107 1 -54 -1 -288 -1 -315 1 -24 1 -290 8 -428 12 -22 0 -62 0 -90 -1 -82 -4
-249 4 -263 13 -7 4 -21 5 -31 1 -26 -8 -317 -6 -1311 11 -173 3 -333 4 -355
3 -61 -3 -90 -3 -360 4 -137 4 -541 9 -897 12 -659 5 -1308 13 -1633 19 -107
3 -187 0 -198 -6 -13 -6 -28 -6 -47 2 -16 7 -80 11 -156 10 -71 0 -138 -1
-149 -1 -11 0 -256 3 -545 6 -289 3 -741 8 -1005 10 -264 3 -558 6 -653 8 -96
1 -176 0 -178 -2 -2 -3 -23 -3 -47 -2 -86 6 -644 6 -689 1 -25 -4 -57 -2 -70
3 -12 5 -210 11 -438 13 -228 2 -593 6 -810 9 -370 5 -534 6 -690 1 -36 -1
-72 1 -80 4 -8 4 -60 4 -115 0 -55 -3 -104 -3 -110 1 -5 3 -161 8 -345 9 -184
1 -360 4 -390 6 -30 2 -242 6 -470 8 -589 7 -1136 15 -1490 21 -168 4 -433 7
-590 9 -157 2 -348 6 -425 9 -77 4 -273 9 -435 12 -162 3 -304 6 -315 7 -11 1
-56 1 -100 0 -77 -1 -725 6 -910 11 -50 1 -107 1 -127 -1z"/>
<path d="M22267 32003 c-13 -14 -22 -15 -52 -6 -52 16 -76 7 -69 -26 10 -38 8
-37 66 -34 29 2 62 4 73 5 11 0 54 0 95 -1 41 -1 86 -2 100 -2 14 0 59 -1 100
-2 81 -3 125 11 133 42 7 28 -7 45 -22 27 -10 -12 -18 -13 -32 -6 -14 8 -20 6
-29 -10 -6 -10 -17 -17 -24 -14 -8 3 -17 1 -21 -5 -4 -7 -14 -4 -27 9 -16 14
-36 20 -71 20 -26 0 -57 5 -68 11 -15 7 -24 7 -34 -1 -8 -6 -22 -9 -32 -7 -57
16 -70 16 -86 0z"/>
<path d="M23105 32010 c-3 -5 -35 -10 -69 -10 -63 0 -96 -16 -82 -39 3 -5 -3
-7 -14 -4 -11 3 -23 9 -26 14 -3 5 -19 9 -36 9 -17 0 -39 7 -48 15 -26 24 -77
9 -95 -28 -8 -16 -15 -31 -15 -31 0 -1 27 -1 61 -1 40 0 63 5 69 15 7 11 13
11 34 -4 15 -9 39 -17 54 -16 126 4 159 6 170 13 6 5 18 5 25 0 16 -10 176
-13 182 -2 3 4 24 5 46 2 l41 -6 -17 26 c-23 35 -53 44 -70 20 -13 -17 -14
-17 -28 1 -13 18 -15 18 -41 0 -26 -16 -29 -16 -37 -1 -5 9 -26 21 -47 27 -46
12 -49 12 -57 0z"/>
<path d="M23665 31999 c6 -19 4 -20 -23 -14 -17 3 -47 8 -69 10 -21 2 -42 5
-48 6 -5 2 -31 0 -56 -4 -36 -6 -48 -13 -52 -29 -4 -12 -4 -25 -1 -29 8 -13
153 -6 158 8 7 17 66 17 91 -1 15 -9 36 -11 80 -6 47 6 64 4 78 -8 26 -23 49
2 35 38 -9 24 -10 24 -23 7 -13 -18 -14 -17 -20 2 -8 27 -35 27 -42 1 -3 -11
-10 -20 -15 -20 -5 0 -6 5 -3 10 4 6 -6 10 -24 10 -20 0 -34 7 -41 20 -14 27
-33 26 -25 -1z m-210 -39 c3 -5 1 -10 -4 -10 -6 0 -11 5 -11 10 0 6 2 10 4 10
3 0 8 -4 11 -10z"/>
<path d="M24135 31995 c-3 -8 -7 -22 -10 -31 -3 -9 1 -24 9 -33 17 -18 17 -34
10 -341 -3 -113 -7 -376 -10 -585 -7 -487 -9 -541 -19 -592 -4 -26 -4 -48 2
-55 6 -8 9 -74 7 -163 -1 -82 -6 -406 -9 -720 -4 -313 -9 -622 -11 -685 -2
-63 -3 -126 -3 -140 1 -141 -3 -244 -11 -264 -5 -14 -6 -55 -1 -94 4 -39 3
-81 -2 -94 -5 -14 -4 -36 3 -58 9 -27 10 -764 7 -2960 -3 -1609 -8 -3051 -11
-3205 -3 -154 -8 -606 -11 -1005 -7 -1030 -23 -2910 -26 -2980 0 -14 -1 -83
-1 -155 0 -71 -1 -168 -3 -215 -1 -47 -2 -94 -2 -105 2 -38 0 -1480 -2 -1505
-2 -29 -4 -691 -2 -1035 0 -132 1 -386 0 -565 0 -179 0 -577 0 -885 1 -696 1
-793 -1 -1295 -1 -223 -1 -522 1 -665 1 -206 -7 -1879 -11 -2025 0 -19 0 -305
0 -635 0 -330 -2 -640 -5 -690 -5 -102 -5 -89 -4 -255 1 -69 -1 -222 -4 -340
-2 -118 -4 -226 -4 -240 1 -141 0 -1085 -2 -1115 -1 -22 -2 -308 -2 -635 0
-327 -1 -851 -3 -1165 -2 -313 -4 -586 -4 -605 1 -19 3 -201 6 -405 12 -929
15 -1378 16 -2685 0 -30 0 -143 0 -250 -1 -107 -1 -213 -1 -235 0 -22 0 -95 1
-162 l0 -123 44 0 c41 0 44 2 44 28 5 280 1 1857 -6 2362 -5 371 -8 1345 -8
2165 0 1345 3 2045 21 4750 6 966 6 840 4 1540 0 308 0 610 1 670 1 61 -1 294
-4 520 -5 355 -4 414 9 448 13 32 14 44 3 77 -7 21 -12 51 -12 67 2 60 0 260
-2 308 -2 28 1 113 5 190 4 77 4 144 0 150 -4 5 -6 138 -4 295 2 157 2 299 1
315 -4 81 1 557 6 610 4 33 6 66 6 73 -1 6 -1 28 -1 47 1 19 1 47 1 63 0 15
-4 92 -9 172 -13 198 -3 721 14 738 2 3 -1 14 -7 25 -13 26 -12 890 2 916 5
11 5 44 -1 87 -12 76 -10 555 16 4329 3 369 7 859 11 1090 3 231 7 906 8 1500
6 2587 7 3007 6 3300 0 171 4 324 9 342 6 22 5 46 -3 75 -13 47 -15 970 -1
1278 3 91 7 316 7 500 0 263 3 341 14 362 9 18 11 29 4 33 -10 6 -8 450 5
1300 8 473 8 1099 1 1122 -5 15 2 39 20 74 l28 52 -23 18 c-28 23 -90 25 -96
4z"/>
<path d="M24290 31999 c0 -5 5 -7 10 -4 6 3 10 8 10 11 0 2 -4 4 -10 4 -5 0
-10 -5 -10 -11z"/>
<path d="M23894 31975 c-6 -15 2 -35 15 -35 5 0 11 11 13 25 6 28 -18 36 -28
10z"/>
<path d="M24422 31964 c-12 -22 14 -53 39 -47 20 6 27 23 9 23 -5 0 -10 9 -10
20 0 24 -25 26 -38 4z"/>
<path d="M2212 31913 c4 -22 43 -25 43 -3 0 8 -11 16 -23 18 -19 3 -23 0 -20
-15z"/>
<path d="M11537 31783 c-14 -13 -6 -33 13 -33 13 0 20 7 20 20 0 19 -20 27
-33 13z"/>
<path d="M10610 31259 c-6 -10 -6 -55 0 -116 12 -119 -6 -551 -24 -570 -6 -7
-45 -23 -86 -37 -251 -83 -280 -97 -348 -165 -53 -53 -67 -92 -48 -131 10 -21
18 -25 51 -24 33 1 46 9 80 47 42 46 84 77 198 143 102 59 138 77 143 72 2 -3
-7 -81 -21 -174 -13 -93 -30 -224 -37 -292 -10 -106 -10 -125 2 -132 50 -32
68 10 101 227 10 73 21 138 24 145 2 7 9 64 15 127 6 63 15 122 21 132 5 11
29 29 52 41 37 18 59 21 182 22 127 1 144 -1 182 -21 55 -30 90 -78 115 -155
30 -97 35 -196 12 -271 -17 -56 -28 -72 -121 -165 -88 -88 -103 -107 -103
-135 0 -34 5 -44 31 -65 27 -21 79 10 201 118 111 97 191 180 285 295 26 33
55 67 64 76 9 9 18 22 21 30 2 7 11 10 20 7 10 -4 17 -27 22 -72 11 -111 52
-176 144 -226 52 -29 62 -31 121 -25 86 8 117 23 175 84 27 29 54 50 60 48 6
-2 13 -37 16 -79 6 -80 22 -116 64 -143 21 -14 31 -14 66 -4 67 20 75 57 20
94 -17 11 -33 28 -36 37 -3 10 -7 141 -8 293 -3 234 -6 279 -20 300 -18 27
-31 31 -42 14 -4 -8 -13 -4 -25 12 -17 23 -19 23 -36 6 -15 -15 -18 -35 -18
-130 0 -97 -4 -123 -28 -194 -52 -150 -119 -219 -209 -216 -60 1 -92 21 -118
73 -27 54 -25 100 10 199 37 102 60 134 151 207 70 57 91 93 72 123 -6 9 -23
16 -39 15 -16 0 -33 6 -39 13 -14 19 -101 -42 -146 -102 -46 -63 -129 -158
-149 -170 -38 -24 -159 -144 -225 -222 -15 -18 -35 -33 -45 -33 -17 0 -19 8
-19 78 0 135 -31 226 -106 310 -61 68 -119 87 -260 87 -75 -1 -127 -6 -164
-18 -115 -36 -132 -21 -107 96 22 104 49 392 43 461 -3 32 -11 62 -18 67 -7 4
-35 7 -62 7 -35 -1 -51 -6 -57 -19z"/>
<path d="M4615 31241 c-107 -23 -203 -56 -300 -101 -227 -108 -415 -283 -415
-388 0 -51 89 -140 194 -191 126 -63 225 -84 541 -116 392 -40 617 -101 670
-182 25 -38 14 -95 -31 -159 -53 -78 -239 -266 -309 -313 -285 -194 -335 -222
-405 -229 -60 -5 -71 9 -75 94 -6 108 -37 113 -85 13 -30 -65 -32 -99 -6 -154
32 -67 75 -82 173 -61 94 20 183 62 320 152 166 110 297 219 410 340 155 165
175 215 132 328 -23 64 -61 98 -159 143 -102 48 -263 79 -595 113 -379 39
-521 83 -623 194 -23 25 -42 55 -42 67 0 53 116 155 271 238 179 96 387 147
533 131 82 -9 106 -29 133 -110 15 -46 22 -55 42 -55 18 0 29 10 44 38 42 81
-6 171 -111 209 -62 22 -202 21 -307 -1z"/>
<path d="M7593 31233 c-39 -8 -44 -24 -33 -109 16 -133 21 -241 21 -434 0
-102 4 -202 8 -222 7 -28 4 -43 -9 -66 -17 -27 -27 -31 -112 -47 -107 -19
-172 -45 -187 -73 -16 -30 -13 -108 5 -145 25 -50 45 -67 75 -67 63 0 72 20
39 85 -23 45 -17 58 38 81 39 16 122 19 122 4 0 -5 -9 -37 -21 -70 -15 -44
-19 -72 -14 -103 10 -67 15 -77 36 -77 29 0 40 40 46 164 6 101 8 112 32 134
24 22 26 22 38 5 8 -9 11 -23 9 -29 -6 -15 30 -137 54 -185 24 -46 76 -85 148
-110 49 -18 74 -20 187 -16 110 4 144 10 220 35 129 43 248 91 265 108 22 21
-2 38 -50 36 -24 -2 -40 2 -40 8 0 13 -24 8 -90 -20 -67 -27 -263 -53 -367
-48 -124 6 -177 37 -204 118 -17 48 -59 110 -75 110 -17 0 -28 40 -22 81 4 25
2 30 -13 26 -10 -3 -25 3 -34 13 -15 16 -15 23 -1 71 30 108 38 222 31 424 -6
185 -16 293 -30 315 -6 10 -31 11 -72 3z"/>
<path d="M5732 31182 l-33 -17 6 -100 c19 -318 48 -592 66 -637 15 -37 -1 -62
-66 -99 -64 -36 -115 -90 -115 -122 0 -13 14 -45 31 -71 28 -45 32 -48 61 -42
35 7 68 32 68 51 0 7 -7 18 -15 25 -20 17 -19 64 3 82 25 20 72 39 83 33 14
-10 11 -51 -11 -114 -14 -44 -20 -90 -21 -192 -2 -134 7 -196 35 -234 14 -19
15 -19 50 -2 20 9 39 24 42 32 4 9 -1 44 -10 80 -11 45 -16 111 -16 217 -1 84
-5 173 -10 198 -9 45 6 90 30 90 8 0 140 59 315 140 19 9 136 50 142 50 9 0 0
-33 -16 -62 -47 -81 -90 -225 -97 -320 -9 -124 9 -191 65 -241 116 -105 284
-24 474 227 39 53 60 95 103 206 32 84 38 94 55 98 12 2 15 -28 17 -175 2
-189 16 -321 38 -365 17 -33 51 -58 81 -58 51 0 159 138 151 193 -4 26 -21 32
-39 14 -19 -18 -109 -61 -115 -54 -3 3 -8 99 -10 214 -2 114 -6 240 -9 278 -3
39 -10 153 -15 254 -14 271 -16 276 -91 251 l-39 -13 0 -64 0 -63 -33 0 c-84
0 -256 -81 -368 -174 -31 -25 -62 -46 -69 -46 -19 0 -118 -29 -170 -51 -25
-10 -70 -25 -100 -35 -30 -9 -106 -41 -169 -70 -62 -30 -120 -54 -127 -54 -17
0 -21 19 -29 135 -4 50 -8 106 -10 125 -1 19 -6 127 -9 240 -4 125 -12 214
-19 230 -15 31 -41 34 -85 12z m1198 -338 c0 -8 -5 -12 -10 -9 -6 4 -8 11 -5
16 9 14 15 11 15 -7z m1 -101 c7 -37 -72 -287 -121 -377 -44 -83 -160 -235
-222 -291 -67 -60 -101 -77 -146 -73 -84 7 -105 118 -57 298 30 110 81 220
127 271 21 23 56 45 98 61 36 14 104 40 153 58 49 19 99 46 115 62 33 33 44
31 53 -9z"/>
<path d="M14020 30888 c-56 -12 -80 -33 -80 -68 0 -36 35 -80 64 -80 12 0 37
15 55 34 18 18 50 38 72 45 39 12 60 45 44 70 -8 13 -93 12 -155 -1z"/>
<path d="M8255 30871 c-120 -36 -281 -123 -364 -196 -65 -57 -70 -64 -76 -112
-4 -26 -13 -67 -21 -91 -29 -90 -10 -157 34 -120 9 8 53 25 97 37 153 44 272
91 477 190 71 33 131 61 134 61 16 0 114 78 124 98 46 102 -218 189 -405 133z
m226 -108 c17 -17 -25 -73 -56 -73 -23 0 -143 -47 -230 -90 -22 -11 -44 -20
-49 -20 -5 0 -46 -18 -90 -39 -45 -22 -102 -49 -129 -61 -88 -41 -102 -3 -31
83 80 98 210 165 409 211 37 9 164 1 176 -11z"/>
<path d="M18460 30843 c-14 -3 -28 -8 -32 -12 -4 -3 -17 -54 -28 -111 -11 -58
-26 -123 -31 -145 -6 -22 -19 -100 -29 -173 -10 -74 -22 -138 -26 -142 -5 -5
-44 -11 -87 -14 -117 -9 -159 -33 -181 -103 -5 -17 -1 -29 18 -48 24 -23 26
-24 64 -11 21 8 57 23 80 35 23 12 50 21 62 21 17 0 19 -4 14 -27 -3 -16 -9
-37 -14 -48 -35 -80 -76 -205 -95 -289 -3 -17 -15 -42 -26 -57 -25 -35 -27
-124 -3 -133 51 -20 76 4 99 94 16 64 50 175 65 215 40 103 50 137 55 185 9
84 33 101 175 124 63 10 140 24 170 31 91 22 213 36 223 26 6 -6 23 -7 38 -4
34 6 36 -3 10 -31 -10 -12 -29 -39 -41 -61 -20 -35 -22 -49 -16 -121 6 -70 4
-82 -11 -96 -50 -46 -113 -41 -113 8 0 19 -4 25 -15 20 -21 -8 -19 10 3 26 10
7 24 28 31 46 7 17 19 32 26 32 7 0 15 7 19 15 6 18 -11 19 -50 4 -26 -9 -44
-25 -146 -126 -20 -20 -38 -50 -41 -67 -3 -17 -9 -44 -13 -59 -9 -39 27 -77
73 -77 36 0 126 42 146 69 21 28 87 81 101 81 11 0 16 -23 21 -87 9 -131 22
-179 60 -218 35 -38 82 -47 108 -21 20 21 10 67 -20 92 -35 30 -42 77 -42 266
1 191 8 235 43 263 14 11 37 29 52 40 21 17 24 25 19 48 -14 56 -38 61 -208
48 -183 -14 -284 -27 -398 -48 -108 -20 -139 -14 -139 27 0 16 10 55 21 86 12
31 27 82 34 113 8 31 24 92 36 136 12 44 23 103 23 130 1 49 0 50 -29 51 -16
1 -41 0 -55 -3z"/>
<path d="M14860 30826 c-8 -11 -10 -49 -6 -138 13 -247 14 -315 8 -324 -4 -5
-23 -21 -43 -36 -36 -27 -74 -77 -156 -205 -78 -123 -123 -287 -93 -344 27
-50 101 5 118 88 14 63 76 207 109 251 39 53 51 27 25 -55 -12 -37 -33 -119
-47 -182 -24 -104 -25 -115 -10 -137 20 -31 50 -31 71 1 20 31 84 267 84 311
0 17 7 48 15 67 8 20 15 53 15 74 0 75 26 146 67 180 49 42 144 80 219 88 112
12 148 -39 178 -255 26 -182 32 -297 23 -435 -10 -147 -6 -171 29 -187 22 -10
28 -8 51 15 23 22 28 38 34 109 26 305 -34 688 -121 773 -30 29 -46 36 -109
46 -96 14 -138 9 -235 -30 -44 -17 -85 -30 -92 -27 -8 3 -13 48 -16 151 l-3
146 -40 34 c-45 38 -57 42 -75 21z"/>
<path d="M19722 30803 c-5 -10 -12 -39 -16 -64 -7 -45 -40 -150 -110 -343 -37
-102 -81 -191 -128 -262 -30 -45 -35 -73 -17 -91 9 -9 8 -21 -5 -46 -27 -58
-22 -160 13 -233 24 -51 36 -65 73 -83 58 -27 116 -26 202 4 178 62 356 246
356 366 0 66 -20 142 -46 177 -34 44 -82 64 -159 66 -52 1 -72 -5 -137 -36
-80 -40 -98 -45 -98 -27 0 6 22 57 49 113 43 88 109 272 139 387 12 46 0 69
-38 69 -16 0 -32 5 -35 10 -10 16 -33 12 -43 -7z m244 -633 c25 -10 26 -13 21
-60 -8 -64 -40 -113 -123 -188 -83 -75 -176 -124 -248 -130 l-53 -4 -16 41
c-20 48 -21 81 -7 133 8 28 23 44 63 70 206 134 289 166 363 138z"/>
<path d="M15453 30720 c-23 -5 -51 -14 -62 -20 -26 -13 -37 -54 -23 -85 12
-26 58 -43 77 -29 6 5 37 26 68 47 60 40 72 68 38 87 -22 11 -38 11 -98 0z"/>
<path d="M13780 30684 c-69 -11 -140 -28 -180 -45 -25 -10 -70 -25 -101 -34
-101 -28 -168 -118 -169 -224 0 -77 24 -109 133 -177 99 -62 237 -187 237
-214 0 -55 -203 -132 -347 -132 -93 1 -140 22 -167 76 -17 34 -19 62 -18 260
0 229 -6 266 -43 266 -8 0 -19 9 -25 20 -6 11 -17 20 -24 20 -15 0 -157 -146
-245 -253 -36 -44 -71 -77 -79 -75 -29 6 -37 34 -24 83 16 61 15 168 -2 210
-12 27 -23 36 -56 45 -36 10 -45 9 -61 -6 -23 -20 -23 -36 -4 -91 16 -46 21
-155 15 -302 l-4 -94 32 -28 c18 -16 39 -29 47 -29 25 0 155 120 239 221 44
52 87 95 96 97 15 3 18 -15 23 -155 6 -186 21 -244 78 -303 57 -59 107 -80
202 -86 63 -4 98 -1 152 14 218 60 345 145 345 229 0 76 -157 248 -285 311
-82 41 -101 68 -85 117 16 50 68 96 153 138 91 44 177 61 270 54 130 -9 185
-48 226 -160 50 -136 71 -263 71 -427 0 -124 -15 -209 -46 -267 -31 -59 -29
-103 5 -120 78 -38 128 100 138 383 6 191 -10 325 -52 419 -12 28 -28 66 -36
85 -14 37 -80 115 -112 131 -50 27 -229 53 -297 43z"/>
<path d="M20650 30640 c-15 -15 -20 -33 -20 -77 -1 -176 -82 -459 -197 -680
-23 -47 -43 -97 -43 -113 0 -38 24 -56 57 -44 20 7 40 35 80 113 29 57 62 115
72 130 36 51 72 156 111 326 12 50 25 104 30 120 4 17 11 61 15 98 6 64 5 71
-20 108 -31 43 -55 49 -85 19z"/>
<path d="M9138 30469 c-12 -7 -18 -22 -18 -49 0 -53 41 -84 133 -100 90 -16
187 -2 382 55 104 30 120 86 26 86 -25 -1 -59 0 -76 1 -16 1 -59 -4 -95 -10
-102 -18 -211 -15 -272 8 -61 23 -58 23 -80 9z"/>
<path d="M15880 30400 c-74 -10 -159 -36 -182 -57 -21 -19 -24 -60 -4 -82 11
-13 12 -32 5 -101 -15 -145 12 -251 86 -341 49 -59 90 -79 163 -79 93 0 237
92 297 189 37 60 47 140 28 227 -25 121 -26 119 36 122 118 7 137 -20 127
-178 -7 -116 -21 -178 -60 -260 -30 -64 -32 -87 -10 -118 18 -26 35 -27 77 -7
32 16 69 65 162 218 45 75 68 98 82 83 4 -4 10 -64 14 -135 8 -142 21 -181 69
-206 89 -46 150 29 78 97 -31 28 -31 32 -35 131 -2 56 -10 134 -18 172 -12 58
-21 76 -50 103 -19 17 -39 32 -44 32 -18 0 -70 -51 -96 -95 -41 -71 -89 -54
-64 23 6 19 8 52 5 73 -19 117 -74 166 -174 155 -173 -19 -188 -19 -215 -1
-60 39 -156 51 -277 35z m265 -182 c34 -94 23 -197 -27 -254 -37 -42 -135 -94
-178 -94 -34 0 -79 20 -98 43 -14 16 -43 231 -35 256 20 63 26 72 47 67 25 -6
155 8 206 22 61 17 65 15 85 -40z m472 -174 c8 -21 -13 -64 -32 -64 -17 0 -20
32 -5 61 13 23 28 25 37 3z"/>
<path d="M21480 30250 c-75 -12 -186 -55 -251 -99 -65 -44 -79 -47 -110 -30
-26 14 -64 -10 -73 -46 -9 -35 18 -85 47 -85 33 0 41 -9 77 -83 59 -120 181
-188 360 -201 47 -4 92 -7 100 -8 8 -1 65 0 126 0 78 2 116 6 130 16 15 12 17
17 7 27 -7 7 -13 23 -13 35 0 31 -61 44 -202 44 -190 0 -334 31 -393 85 -40
37 -38 64 5 95 34 24 39 24 60 5 14 -12 23 -13 49 -4 27 10 34 9 45 -6 28 -39
186 8 220 65 22 38 20 67 -6 116 -39 74 -78 90 -178 74z m-25 -50 c-3 -5 -10
-10 -16 -10 -5 0 -9 5 -9 10 0 6 7 10 16 10 8 0 12 -4 9 -10z m-70 -30 c-3 -5
-10 -10 -16 -10 -5 0 -9 5 -9 10 0 6 7 10 16 10 8 0 12 -4 9 -10z m133 -62
c-2 -19 -9 -23 -42 -23 -23 0 -41 5 -44 13 -4 13 31 30 66 31 19 1 23 -4 20
-21z m-128 -84 c0 -17 -22 -14 -28 4 -2 7 3 12 12 12 9 0 16 -7 16 -16z"/>
<path d="M11616 29213 c-4 -4 -152 -8 -329 -10 -350 -3 -878 -11 -1077 -17
-310 -10 -578 -18 -730 -22 -91 -2 -217 -6 -280 -8 -63 -3 -213 -7 -333 -10
-120 -3 -221 -8 -226 -10 -4 -3 -91 -8 -192 -12 -198 -7 -209 -7 -344 -18 -49
-3 -142 -9 -205 -11 -63 -3 -155 -8 -205 -10 -49 -3 -99 -6 -110 -6 -11 1 -63
-4 -115 -10 -52 -7 -120 -11 -151 -10 -31 1 -126 -5 -210 -13 -85 -8 -190 -17
-234 -20 -44 -3 -98 -7 -120 -10 -22 -2 -89 -7 -150 -11 -60 -3 -150 -10 -200
-15 -78 -9 -605 -42 -880 -56 -49 -2 -135 -9 -190 -15 -261 -27 -377 -27 -504
0 l-54 11 -34 -37 c-40 -44 -40 -72 2 -93 41 -21 358 -18 560 5 83 9 169 18
192 20 23 2 75 6 115 10 40 3 118 10 173 15 55 5 177 14 270 20 161 10 320 24
590 51 66 7 138 13 160 14 43 2 247 19 410 35 105 10 255 22 315 25 19 1 60 5
90 9 48 5 271 20 480 31 70 4 160 10 395 25 83 6 197 12 255 15 58 3 148 7
200 10 52 2 165 7 250 10 141 5 763 30 985 40 50 2 207 7 350 10 209 5 387 11
500 16 6 0 46 0 90 0 192 -2 777 8 782 13 3 3 1 12 -5 19 -9 10 -35 13 -96 11
-47 -1 -90 -5 -96 -9 -6 -4 -16 -2 -23 3 -17 13 -63 23 -71 15z"/>
<path d="M11953 29196 c-23 -11 -30 -25 -15 -27 4 -1 128 -3 275 -4 147 -2
279 -6 292 -9 13 -3 36 -2 50 4 16 6 33 7 43 1 10 -5 25 -5 39 2 17 7 30 7 46
-1 12 -6 65 -11 117 -11 129 1 585 -9 690 -15 201 -11 383 -11 387 0 5 15 -56
27 -72 14 -7 -5 -15 -6 -21 -1 -16 16 -427 33 -450 19 -6 -4 -23 -1 -38 7 -19
10 -38 12 -64 7 -20 -5 -54 -4 -75 1 -27 7 -41 6 -52 -3 -12 -10 -18 -10 -30
0 -10 8 -32 11 -60 8 -25 -3 -47 -2 -50 1 -2 4 -198 7 -435 7 -238 -1 -433 1
-435 4 -7 11 -120 8 -142 -4z"/>
<path d="M13917 29147 c-20 -7 -20 -9 -5 -18 9 -5 43 -12 75 -15 47 -5 61 -3
72 10 11 13 11 17 0 20 -27 9 -121 11 -142 3z"/>
<path d="M14330 29130 c-14 -11 -23 -20 -20 -20 68 -7 130 -7 130 0 0 9 -63
40 -79 40 -3 0 -17 -9 -31 -20z"/>
<path d="M14120 29130 c-17 -11 -18 -11 73 -16 76 -4 91 10 21 20 -62 8 -76 8
-94 -4z"/>
<path d="M14542 29132 c-68 -14 -13 -47 63 -38 22 3 50 5 63 5 36 1 26 27 -10
28 -18 0 -44 3 -58 6 -14 3 -40 2 -58 -1z"/>
<path d="M14970 29120 c-8 -6 -27 -7 -42 -4 -14 3 -29 0 -33 -5 -4 -7 -12 -8
-24 -2 -25 14 -143 9 -148 -6 -6 -16 32 -26 54 -15 11 6 46 6 88 1 39 -5 108
-9 155 -9 47 1 106 -2 133 -6 62 -8 97 5 47 18 -19 5 -60 11 -90 14 -30 2 -68
9 -84 14 -35 12 -37 12 -56 0z"/>
<path d="M15263 29098 c-27 -13 -30 -27 -5 -30 53 -4 200 -6 215 -1 9 2 17 9
17 15 0 7 -16 9 -44 5 -24 -4 -47 -3 -51 1 -3 4 -16 8 -28 8 -12 1 -35 4 -52
8 -16 3 -40 0 -52 -6z"/>
<path d="M15673 29084 c-13 -14 -23 -28 -23 -30 0 -2 20 -4 45 -4 49 0 55 9
28 40 -22 25 -23 25 -50 -6z"/>
<path d="M15596 29086 c-18 -8 -24 -16 -17 -20 16 -10 51 3 51 20 0 8 -1 14
-2 13 -2 0 -16 -6 -32 -13z"/>
<path d="M15885 29080 c-3 -5 -19 -10 -36 -10 -16 0 -29 -5 -29 -10 0 -6 15
-10 33 -10 17 0 47 -2 65 -6 26 -5 32 -3 32 10 0 9 -12 21 -26 26 -31 12 -31
12 -39 0z"/>
<path d="M15756 29061 c-7 -11 14 -20 32 -14 6 3 12 9 12 14 0 12 -37 12 -44
0z"/>
<path d="M15990 29060 c0 -5 5 -10 11 -10 5 0 7 5 4 10 -3 6 -8 10 -11 10 -2
0 -4 -4 -4 -10z"/>
<path d="M16056 29057 c7 -19 38 -25 99 -18 63 8 49 17 -38 26 -58 6 -66 5
-61 -8z"/>
<path d="M16257 29053 c-23 -23 15 -37 60 -22 21 7 38 7 46 2 19 -15 99 -14
94 0 -2 7 -17 11 -35 9 -16 -2 -33 2 -37 7 -7 12 -117 15 -128 4z"/>
<path d="M16620 29024 c0 -13 7 -15 31 -10 17 3 37 6 43 6 24 0 -21 20 -46 20
-19 0 -28 -5 -28 -16z"/>
<path d="M16811 29023 c-14 -10 -14 -12 -1 -17 8 -3 26 -6 40 -6 37 -1 188 -9
240 -12 35 -2 45 0 45 12 0 8 -6 14 -13 12 -7 -1 -38 2 -69 7 -39 6 -63 5 -74
-2 -14 -9 -22 -7 -37 6 -22 20 -104 20 -131 0z"/>
<path d="M16568 29018 c9 -9 15 -9 24 0 9 9 7 12 -12 12 -19 0 -21 -3 -12 -12z"/>
<path d="M17164 29006 c-9 -24 -5 -25 70 -31 51 -4 67 -2 64 7 -3 7 -20 16
-39 21 -79 19 -89 20 -95 3z"/>
<path d="M17401 28990 c-13 -11 -22 -20 -20 -21 2 0 36 -2 75 -3 40 -2 76 -6
82 -10 14 -8 42 3 42 18 0 6 -12 12 -27 13 -16 1 -39 4 -53 7 -70 16 -76 16
-99 -4z"/>
<path d="M17633 28993 c-15 -5 -18 -43 -4 -43 23 0 41 14 41 31 0 19 -12 23
-37 12z"/>
<path d="M17710 28985 c-24 -29 -6 -37 95 -43 175 -8 259 -2 238 19 -6 6 -64
11 -134 11 -86 0 -132 5 -151 14 -33 17 -33 17 -48 -1z"/>
<path d="M18077 28963 c-6 -33 7 -53 24 -36 13 13 4 63 -10 63 -5 0 -11 -12
-14 -27z"/>
<path d="M18137 28944 c6 -17 18 -19 88 -19 47 0 60 3 60 15 0 12 -15 15 -76
16 -57 0 -76 -3 -72 -12z"/>
<path d="M18373 28951 c-60 -6 -83 -15 -70 -27 9 -9 70 -15 182 -17 86 -2 100
0 103 15 3 14 -6 16 -53 16 -31 0 -61 4 -68 11 -6 6 -16 10 -21 9 -6 0 -39 -4
-73 -7z"/>
<path d="M18824 28943 c-35 -3 -57 -10 -69 -24 -10 -10 -16 -22 -13 -25 3 -3
46 -7 94 -9 49 -2 138 -8 198 -15 59 -6 118 -9 130 -6 11 3 62 1 111 -4 91 -9
402 -27 620 -35 66 -3 147 -7 180 -10 91 -9 482 -9 549 0 97 13 125 62 56 98
-28 15 -48 17 -100 12 -115 -11 -231 -17 -395 -18 -88 -1 -164 -5 -170 -8 -17
-10 -208 -2 -238 10 -16 6 -34 8 -40 4 -7 -4 -43 -6 -81 -5 -38 2 -122 5 -185
6 -64 2 -131 5 -149 8 -18 3 -35 1 -39 -5 -7 -12 -257 4 -270 17 -3 3 -15 -1
-26 -9 -14 -10 -25 -11 -39 -4 -10 5 -22 7 -27 4 -5 -3 -16 2 -24 10 -9 8 -17
14 -19 13 -2 -1 -26 -3 -54 -5z"/>
<path d="M18616 28923 c-10 -25 7 -35 55 -31 37 2 45 7 47 26 3 20 0 22 -46
22 -37 0 -51 -4 -56 -17z"/>
<path d="M14577 28687 c-19 -30 -118 -261 -152 -357 -93 -261 -107 -350 -145
-890 -23 -328 -28 -697 -29 -2250 -1 -883 -6 -1729 -11 -1880 -5 -151 -10
-320 -10 -375 0 -55 -4 -106 -9 -114 -8 -12 -22 -13 -93 -3 -45 7 -252 14
-458 17 -378 5 -579 10 -855 19 -82 3 -319 10 -525 16 -206 6 -490 14 -630 19
-140 5 -277 10 -305 10 -50 1 -432 19 -535 26 -30 1 -138 6 -240 9 -102 4
-286 14 -410 22 -124 8 -272 17 -330 20 -58 2 -154 9 -215 15 -60 5 -123 9
-140 8 -16 0 -147 6 -290 15 -143 9 -307 19 -365 22 -58 2 -193 11 -300 19
-189 14 -300 22 -425 29 -101 6 -587 42 -955 71 -215 17 -480 40 -630 55 -144
14 -491 47 -690 65 -91 8 -232 22 -315 30 -82 8 -197 19 -255 25 -335 30 -543
51 -600 60 -36 5 -114 15 -175 21 -60 6 -171 17 -245 25 -74 8 -274 17 -445
21 -280 5 -327 3 -480 -16 -191 -25 -384 -57 -432 -72 -37 -12 -63 -43 -63
-75 0 -34 25 -36 113 -9 82 24 226 50 449 80 150 20 515 20 763 0 237 -19 462
-42 472 -48 4 -3 44 -8 88 -11 77 -5 252 -22 345 -33 25 -2 77 -6 115 -8 39
-1 124 -8 190 -14 66 -7 165 -16 220 -20 55 -5 181 -16 280 -24 99 -9 215 -19
258 -22 44 -3 82 -7 87 -10 4 -2 62 -7 130 -10 67 -3 125 -7 129 -9 4 -3 52
-7 106 -10 55 -3 115 -11 133 -17 18 -6 39 -9 45 -6 7 3 51 1 98 -4 46 -6 118
-12 159 -14 122 -7 346 -24 480 -37 69 -7 163 -13 210 -14 47 -1 135 -7 195
-13 61 -5 205 -15 320 -21 116 -6 237 -15 270 -20 33 -5 173 -14 310 -20 138
-6 304 -15 370 -20 114 -10 243 -18 650 -41 99 -5 331 -18 515 -29 184 -11
396 -22 470 -25 74 -3 205 -10 290 -15 85 -5 270 -12 410 -15 140 -4 293 -8
340 -10 47 -2 200 -7 340 -10 140 -3 293 -8 340 -10 120 -6 403 -14 920 -25
596 -13 613 -13 706 -5 56 5 83 4 88 -4 4 -6 2 -95 -3 -198 -24 -432 -33 -876
-33 -1491 1 -358 3 -655 5 -660 3 -4 8 -203 12 -442 7 -468 10 -577 16 -600 5
-19 -62 -19 -296 -2 -88 6 -241 14 -340 17 -99 3 -241 10 -315 15 -74 5 -200
12 -280 15 -80 3 -186 8 -236 11 -50 3 -156 7 -235 10 -79 2 -165 6 -190 9
-26 3 -136 7 -245 10 -193 4 -378 10 -614 20 -114 5 -253 9 -610 20 -102 3
-331 12 -510 20 -179 8 -383 16 -455 19 -71 3 -209 10 -305 16 -262 15 -744
39 -1010 50 -129 5 -282 12 -340 15 -58 2 -199 7 -315 10 -115 2 -277 7 -360
10 -205 7 -703 14 -1430 20 -335 3 -691 8 -790 10 -99 3 -259 7 -355 10 -96 3
-312 7 -480 10 -511 10 -1106 34 -1270 51 -163 17 -311 15 -367 -6 -40 -15
-52 -46 -27 -70 17 -16 27 -17 84 -8 66 10 261 6 550 -12 204 -12 455 -19 965
-26 231 -3 542 -9 690 -13 149 -4 441 -9 650 -10 950 -5 1625 -16 2030 -31
149 -5 353 -12 455 -15 178 -5 715 -29 1115 -50 44 -3 170 -9 280 -15 110 -5
243 -12 295 -15 52 -3 147 -8 210 -11 196 -7 331 -13 435 -18 55 -3 222 -8
370 -11 149 -3 302 -7 340 -10 39 -3 151 -7 250 -10 461 -14 977 -33 1190 -45
234 -12 414 -20 565 -25 63 -2 149 -6 190 -9 108 -8 520 -19 620 -17 47 1 99
2 115 3 17 0 68 -4 115 -10 76 -10 409 -25 800 -37 74 -2 189 -6 255 -9 66 -3
190 -8 275 -11 85 -4 265 -13 400 -22 135 -8 286 -17 335 -20 50 -2 110 -6
135 -7 25 -2 131 -8 235 -14 105 -7 242 -16 305 -21 63 -5 129 -9 145 -9 54 1
537 -32 635 -42 52 -6 124 -10 160 -10 36 0 106 -5 155 -10 50 -5 134 -12 187
-15 54 -3 162 -10 240 -16 79 -5 175 -12 213 -15 116 -7 358 -26 390 -30 17
-2 75 -6 130 -8 126 -6 354 -24 465 -36 92 -11 300 -30 365 -35 54 -4 327 -42
397 -56 97 -19 124 -1 98 65 -9 24 -14 26 -72 26 -35 0 -135 9 -223 20 -88 11
-270 29 -405 40 -135 10 -333 26 -440 35 -107 8 -226 17 -265 19 -38 2 -209
14 -380 25 -170 11 -380 25 -465 31 -85 6 -218 12 -295 15 -77 3 -180 10 -230
15 -49 5 -99 9 -110 9 -62 1 -231 11 -380 22 -93 6 -197 13 -230 14 -33 1 -94
5 -135 9 -41 4 -106 8 -145 10 -38 3 -104 7 -145 10 -125 10 -867 51 -1100 61
-69 3 -168 7 -220 10 -52 2 -171 7 -265 10 -93 3 -206 8 -250 10 -44 2 -216 7
-383 11 l-303 7 22 23 22 24 -8 407 c-4 225 -9 428 -10 453 -9 133 -12 1426
-5 1605 5 116 16 424 25 685 9 261 18 500 20 530 8 108 15 905 20 2295 6 1547
8 1635 30 1970 26 385 35 467 65 611 34 164 128 436 201 580 51 100 51 101 35
132 -20 39 -56 43 -79 9z"/>
<path d="M5033 27018 c-12 -13 -40 -59 -63 -103 -24 -44 -46 -84 -51 -90 -36
-48 -152 -310 -188 -426 -17 -51 -42 -89 -60 -89 -38 0 -53 -35 -68 -160 -18
-136 -12 -165 33 -176 39 -10 58 18 83 121 12 49 38 121 58 160 32 63 44 95
83 205 27 78 139 307 194 399 49 81 62 124 48 156 -14 31 -42 32 -69 3z"/>
<path d="M3182 27000 c-42 -22 -84 -55 -136 -111 -277 -294 -361 -533 -258
-735 72 -140 206 -208 412 -209 110 0 165 10 290 52 104 35 134 52 217 122 40
34 80 61 88 61 8 0 26 -17 39 -37 73 -115 205 -168 314 -128 79 30 106 57 184
192 91 159 126 252 180 473 59 247 61 330 8 330 -24 0 -34 -18 -53 -100 -9
-36 -33 -135 -53 -220 -23 -96 -53 -193 -81 -255 -47 -108 -143 -256 -184
-287 -41 -31 -101 -34 -150 -9 -50 27 -74 52 -100 109 -19 40 -19 45 -5 61 9
10 16 23 16 29 0 6 23 59 51 118 46 96 55 134 31 134 -15 0 -39 -33 -62 -87
-22 -52 -45 -68 -56 -39 -3 8 0 24 6 36 6 12 18 46 26 76 24 95 70 167 164
260 l45 44 -32 31 c-41 42 -71 34 -120 -30 -137 -178 -201 -354 -189 -516 6
-76 5 -82 -16 -102 -27 -25 -208 -133 -223 -133 -6 0 -26 -8 -45 -19 -44 -23
-152 -47 -252 -56 -229 -20 -382 92 -381 280 1 134 54 256 176 405 149 182
197 208 337 180 35 -6 51 -5 72 8 42 25 35 47 -24 76 -75 38 -155 36 -236 -4z"/>
<path d="M7566 27015 c-9 -9 -20 -33 -25 -53 -20 -82 -30 -119 -45 -172 -15
-50 -59 -224 -71 -277 -3 -15 -28 -33 -80 -58 -91 -45 -147 -104 -165 -172
-10 -42 -9 -49 6 -60 29 -21 54 -16 54 10 0 37 102 127 144 127 13 0 13 -4 0
-29 -8 -16 -30 -93 -50 -171 -32 -126 -34 -144 -21 -157 19 -19 33 -11 56 35
22 44 84 308 76 322 -23 37 55 79 190 102 33 5 76 18 95 28 42 20 110 33 110
19 0 -5 13 -9 30 -9 39 0 67 38 50 69 -15 29 -47 27 -215 -9 -158 -34 -181
-36 -188 -16 -3 8 23 99 58 202 68 200 75 253 34 274 -23 13 -25 13 -43 -5z"/>
<path d="M19801 26969 c-58 -96 -151 -468 -167 -670 -4 -46 -10 -91 -15 -99
-4 -9 -38 -26 -76 -39 -178 -62 -288 -145 -318 -243 -21 -66 -14 -104 20 -120
36 -16 71 3 91 49 50 115 57 125 128 170 70 46 131 72 142 60 4 -3 1 -34 -6
-69 -46 -241 -55 -305 -41 -322 42 -51 81 81 95 327 3 43 10 84 16 92 15 18
88 44 175 61 273 56 299 63 318 85 19 24 20 28 8 48 -13 20 -146 2 -303 -39
-62 -16 -122 -32 -133 -35 -11 -3 -27 -1 -35 4 -12 8 -12 19 4 78 9 37 21 88
25 113 40 219 64 298 127 420 37 72 38 105 6 143 -22 25 -40 21 -61 -14z"/>
<path d="M5967 26840 c-72 -21 -134 -50 -178 -82 l-27 -20 -44 45 c-53 53 -88
62 -143 38 -107 -47 -172 -139 -346 -485 -125 -249 -141 -286 -134 -315 15
-68 92 -64 121 7 42 100 82 191 100 224 8 14 14 32 14 39 0 26 120 257 154
298 19 22 43 56 55 74 11 18 32 39 45 47 22 11 29 11 50 -3 39 -26 42 -70 10
-147 -39 -95 -56 -217 -44 -312 15 -122 52 -191 133 -246 57 -39 99 -52 182
-54 82 -2 147 18 211 64 40 29 74 81 60 95 -8 9 -84 -15 -126 -39 -50 -29
-132 -38 -190 -21 -104 30 -159 121 -166 273 -8 161 23 191 93 91 54 -76 100
-96 206 -89 60 4 85 11 130 37 69 39 111 80 139 134 21 43 21 51 -8 217 -20
113 -154 171 -297 130z m147 -105 c67 -28 94 -112 62 -189 -29 -69 -171 -133
-235 -106 -16 6 -42 26 -59 43 -33 34 -102 134 -102 147 0 17 144 92 203 105
82 18 88 18 131 0z"/>
<path d="M13430 26745 c-22 -26 -76 -273 -128 -590 l-17 -100 -72 -25 c-91
-32 -105 -44 -101 -89 l3 -36 73 1 c39 1 72 1 72 0 0 -1 -9 -27 -20 -59 -24
-67 -25 -103 -5 -111 27 -10 65 72 65 140 0 57 21 70 175 113 219 60 245 74
245 128 0 44 -49 42 -212 -8 -54 -17 -110 -31 -125 -32 -25 -2 -28 1 -25 28 1
17 9 46 17 65 8 19 33 109 55 200 22 91 47 190 55 220 30 105 -8 211 -55 155z"/>
<path d="M10734 26740 c-27 -11 -79 -71 -104 -120 -28 -55 -28 -135 1 -150 33
-18 92 26 108 81 7 24 26 56 42 71 36 33 37 65 4 101 -14 15 -27 27 -28 26 -1
0 -11 -4 -23 -9z"/>
<path d="M6838 26658 c-9 -7 -51 -78 -93 -158 -42 -80 -87 -158 -99 -175 -13
-16 -30 -43 -39 -60 -20 -38 -91 -115 -106 -115 -39 0 20 203 99 340 15 26 20
49 18 90 -3 51 -5 55 -29 58 -15 2 -31 -4 -41 -15 -23 -27 -115 -275 -137
-373 -34 -146 -35 -169 -9 -220 21 -41 26 -45 64 -48 41 -3 43 -1 101 70 54
67 95 132 123 198 14 31 28 56 59 98 39 55 45 29 26 -112 -22 -155 -11 -253
32 -298 41 -43 91 -33 108 23 5 16 -2 29 -30 55 l-38 34 6 83 c8 114 34 323
47 377 16 66 -3 160 -33 160 -7 0 -20 -6 -29 -12z"/>
<path d="M13198 26373 c-9 -10 -33 -49 -55 -88 -45 -79 -112 -193 -199 -340
-34 -57 -88 -129 -127 -170 l-68 -70 -19 23 c-26 32 -40 107 -49 274 -4 78
-13 153 -20 166 -16 30 -45 28 -70 -4 -18 -23 -21 -41 -21 -128 0 -120 12
-202 45 -312 31 -103 55 -134 101 -134 73 0 97 20 214 172 11 14 51 82 88 150
37 68 79 141 93 163 60 94 140 259 137 284 -4 31 -29 38 -50 14z"/>
<path d="M11226 26315 c-35 -46 -67 -119 -127 -290 -144 -416 -141 -404 -106
-439 27 -27 65 -25 93 5 27 29 96 302 101 399 3 47 9 89 14 95 5 5 9 20 9 32
0 29 28 73 46 73 34 0 45 -64 52 -311 6 -194 9 -219 26 -238 46 -51 82 2 78
114 -1 33 -4 119 -6 190 -4 129 -27 294 -48 348 -25 65 -91 76 -132 22z"/>
<path d="M17753 26241 c-100 -35 -209 -124 -247 -204 -30 -61 -56 -171 -56
-241 0 -108 49 -230 114 -279 65 -50 198 -87 312 -87 177 0 414 97 414 169 0
33 -22 35 -102 6 -158 -59 -204 -67 -333 -62 -131 5 -180 19 -228 65 -33 31
-67 92 -67 120 0 36 21 41 180 40 135 -1 164 1 223 21 159 52 277 146 277 221
0 63 -92 163 -196 214 -78 38 -210 46 -291 17z m235 -102 c45 -13 132 -95 132
-124 0 -34 -80 -85 -175 -112 -27 -8 -116 -18 -197 -21 -125 -6 -149 -10 -168
-27 -27 -25 -41 -7 -30 39 8 36 115 174 160 206 61 44 172 74 215 59 11 -4 39
-13 63 -20z"/>
<path d="M11910 26217 c-90 -22 -129 -44 -194 -110 -112 -115 -161 -257 -207
-607 -27 -213 -23 -380 14 -485 64 -184 136 -267 179 -206 7 10 23 21 35 25
16 5 26 22 38 64 9 31 25 71 36 88 24 40 25 96 1 117 -40 37 -66 16 -98 -77
-23 -68 -41 -77 -63 -31 -30 63 -41 147 -35 285 3 74 4 167 3 205 -4 157 12
285 42 352 10 24 19 47 19 52 0 20 45 88 88 133 93 97 272 132 346 69 35 -30
46 -75 46 -191 0 -173 -50 -363 -124 -473 -60 -90 -95 -88 -153 10 -14 24 -31
43 -38 43 -41 0 -50 -81 -16 -148 72 -141 209 -95 314 106 91 173 132 451 92
621 -28 116 -80 160 -197 167 -41 2 -98 -2 -128 -9z"/>
<path d="M10747 26182 c-33 -37 -48 -131 -57 -367 -5 -129 -14 -249 -22 -273
-11 -37 -10 -44 4 -58 56 -56 117 114 118 323 0 104 17 232 35 259 9 14 12 36
8 60 -10 67 -52 94 -86 56z"/>
<path d="M18489 26178 c-18 -20 -20 -31 -15 -83 11 -111 66 -266 132 -376 19
-31 34 -63 34 -71 0 -8 -28 -39 -62 -69 -130 -112 -182 -178 -193 -246 -6 -35
-3 -43 14 -52 28 -16 63 -14 89 5 26 18 81 123 75 142 -6 16 181 203 262 262
89 65 171 146 233 230 30 41 81 104 112 140 69 78 86 108 71 123 -18 18 -53
-9 -141 -109 -108 -123 -366 -368 -382 -361 -33 12 -125 247 -135 347 -7 67
-37 140 -57 140 -8 0 -25 -10 -37 -22z"/>
<path d="M16858 26123 c-31 -32 -75 -83 -98 -113 -241 -317 -286 -383 -350
-510 -17 -33 -37 -60 -45 -60 -24 0 -24 5 -41 403 -5 126 -3 151 10 172 9 14
25 25 35 25 28 0 54 35 47 64 -8 31 -31 44 -89 52 -41 6 -46 4 -69 -27 -40
-53 -58 -123 -58 -219 0 -91 21 -282 40 -365 6 -27 14 -115 16 -195 4 -126 7
-147 23 -164 19 -19 20 -18 63 7 33 19 50 38 68 79 13 29 29 60 36 68 7 8 25
40 41 70 26 49 101 183 128 228 6 10 20 32 33 49 12 17 22 38 22 47 0 9 6 16
13 16 13 1 47 50 117 171 45 78 81 116 100 104 6 -3 10 -35 10 -70 0 -35 4
-119 10 -187 5 -68 11 -188 14 -268 5 -168 27 -248 81 -305 27 -30 39 -35 76
-35 73 0 114 17 158 65 67 73 48 104 -43 66 -68 -28 -111 -28 -130 2 -18 27
-33 147 -35 288 -1 56 -4 106 -6 109 -3 4 -7 97 -10 206 -3 110 -8 209 -11
221 -4 20 -67 63 -91 63 -5 0 -34 -26 -65 -57z"/>
<path d="M18752 25585 c-38 -27 -29 -66 34 -140 66 -77 177 -165 210 -165 28
0 48 33 40 64 -3 12 -41 47 -86 80 -44 32 -80 62 -80 65 -1 3 -22 30 -48 59
-45 50 -48 52 -70 37z"/>
<path d="M4453 25305 c-19 -40 -19 -39 42 -195 37 -96 35 -91 81 -220 19 -52
34 -102 34 -110 0 -9 -25 -40 -55 -70 -35 -35 -55 -63 -55 -78 0 -21 3 -22 38
-17 20 4 47 11 60 18 32 15 40 2 47 -73 8 -90 14 -117 31 -131 22 -18 40 4 48
57 6 50 -9 185 -23 194 -16 9 1 60 27 80 13 11 35 20 48 20 12 0 24 4 26 9 2
5 26 20 53 35 28 15 65 38 84 51 34 25 85 33 96 15 8 -13 -9 -44 -62 -113 -64
-83 -85 -142 -91 -262 -4 -98 -4 -101 23 -133 25 -30 31 -32 91 -32 74 0 109
15 148 61 34 40 66 102 66 128 0 26 32 81 47 81 17 0 28 -24 47 -100 26 -102
106 -166 136 -110 9 17 5 33 -20 86 -65 138 -85 242 -81 420 l3 101 -30 22
c-64 45 -77 28 -86 -118 -9 -163 -28 -234 -86 -327 -62 -101 -104 -143 -128
-127 -36 23 -4 189 52 268 11 16 28 43 37 60 9 16 26 46 37 65 48 79 53 93 48
116 -4 13 -18 31 -32 40 -24 16 -29 16 -82 -1 -64 -20 -208 -90 -294 -142 -32
-20 -64 -33 -72 -30 -8 3 -19 23 -25 44 -73 287 -110 405 -138 431 -37 34 -70
29 -90 -13z"/>
<path d="M5741 25196 c-23 -27 -32 -148 -26 -307 9 -198 7 -209 -50 -237 -50
-24 -65 -57 -46 -98 6 -14 11 -38 11 -53 0 -15 14 -47 30 -69 17 -23 30 -49
30 -58 0 -27 20 -54 40 -54 34 0 43 35 35 132 -6 77 -4 92 11 109 9 10 25 19
34 19 9 0 37 7 63 16 52 18 87 7 87 -26 0 -11 4 -28 9 -38 5 -9 17 -37 27 -61
34 -82 201 -223 314 -264 25 -9 72 -17 104 -17 50 0 61 4 87 29 33 33 36 58
14 101 -19 36 -53 40 -96 9 -38 -27 -78 -16 -162 44 -103 74 -179 168 -188
237 -4 27 14 40 91 61 69 19 157 66 203 108 23 21 49 40 57 43 21 8 71 108 76
155 9 67 -52 134 -136 150 -49 9 -145 -13 -213 -50 -113 -60 -168 -148 -186
-300 -4 -33 -14 -62 -22 -67 -7 -5 -38 -12 -68 -16 -66 -8 -86 9 -76 66 4 19
9 98 12 175 2 77 9 145 14 151 10 13 3 67 -14 102 -12 25 -48 30 -66 8z m619
-204 c28 -23 23 -55 -15 -101 -46 -54 -199 -139 -260 -144 -47 -4 -23 104 38
170 76 83 185 117 237 75z m-630 -532 c0 -5 -5 -10 -11 -10 -5 0 -7 5 -4 10 3
6 8 10 11 10 2 0 4 -4 4 -10z"/>
<path d="M3870 25093 c-150 -24 -531 -213 -546 -271 -15 -55 53 -96 208 -126
46 -8 117 -23 158 -32 96 -20 370 -99 418 -120 183 -79 201 -95 182 -174 -24
-101 -160 -254 -278 -314 -104 -53 -157 -53 -233 0 -52 36 -83 30 -87 -16 -2
-29 5 -42 39 -78 22 -24 52 -47 66 -53 63 -24 181 2 293 64 53 30 230 198 230
218 0 6 13 27 28 47 35 45 72 134 72 174 0 42 -24 92 -56 117 -96 76 -353 168
-642 231 -276 60 -267 56 -237 90 20 22 254 112 349 134 103 24 142 23 171 -4
13 -12 35 -22 48 -22 31 0 87 40 87 63 0 25 -37 57 -79 69 -35 10 -141 11
-191 3z"/>
<path d="M16840 24770 c-40 -40 -12 -97 40 -85 33 7 55 -12 88 -79 49 -97 113
-305 127 -412 l6 -50 -43 -19 c-24 -10 -81 -35 -126 -57 -91 -41 -113 -45
-131 -24 -35 42 -146 73 -386 106 -152 22 -225 41 -225 59 0 25 102 78 205
106 96 26 243 42 298 32 40 -8 52 -7 65 7 15 15 15 19 -2 51 -11 21 -30 39
-45 43 -49 13 -146 4 -281 -28 -153 -36 -255 -81 -317 -138 -50 -47 -55 -81
-20 -133 30 -45 105 -71 279 -99 348 -55 373 -65 373 -143 0 -38 2 -42 28 -45
33 -4 35 -28 6 -91 -111 -247 -624 -467 -689 -296 -5 12 -18 29 -29 37 -11 8
-25 26 -32 41 -15 33 -36 35 -50 3 -15 -31 12 -126 49 -174 36 -46 117 -82
186 -82 135 0 419 124 518 227 167 172 173 183 173 328 l0 110 80 39 c44 21
92 42 107 46 l27 8 -5 -51 c-12 -114 -36 -232 -60 -295 -37 -96 -39 -111 -20
-118 36 -14 94 75 122 188 8 35 19 116 23 181 6 79 13 123 22 131 18 17 176
72 184 64 3 -3 -2 -44 -11 -90 -15 -73 -16 -92 -5 -128 23 -78 88 -113 206
-111 80 1 168 46 245 123 31 32 64 58 72 58 16 0 28 -63 28 -153 0 -27 5 -58
11 -70 20 -38 62 -77 84 -77 26 0 59 34 75 74 16 43 6 60 -30 53 -43 -9 -52
16 -55 147 -3 108 6 190 24 231 36 82 42 132 16 141 -8 4 -15 12 -15 19 0 7
-7 18 -15 25 -21 18 -62 -2 -75 -35 -12 -30 -14 -31 -41 -4 -19 19 -29 21 -83
16 -72 -7 -152 -33 -244 -80 -37 -19 -85 -37 -107 -40 -22 -4 -87 -22 -145
-42 -58 -19 -114 -35 -126 -35 -28 0 -44 38 -44 103 -1 116 -86 402 -138 460
-41 46 -138 61 -172 27z m1080 -517 c0 -62 -20 -102 -73 -146 -153 -131 -270
-186 -333 -156 -58 28 -37 141 37 203 74 62 228 118 342 125 23 1 27 -3 27
-26z"/>
<path d="M18669 24660 c-18 -10 -35 -85 -44 -192 -4 -37 -12 -72 -19 -78 -10
-7 -34 -6 -85 5 -162 34 -251 6 -251 -80 0 -38 34 -50 99 -36 65 14 218 14
226 1 3 -6 -19 -70 -51 -143 -56 -130 -71 -196 -46 -204 40 -15 126 168 123
262 -1 27 -4 58 -7 68 -4 13 0 17 20 17 18 0 26 -5 26 -17 0 -10 7 -27 15 -37
8 -11 15 -36 15 -57 0 -113 133 -254 318 -336 78 -34 250 -60 290 -44 35 15
57 59 46 93 -14 45 -94 138 -118 138 -32 0 -54 -28 -58 -75 -3 -37 -5 -40 -31
-38 -69 5 -228 101 -296 179 -40 45 -74 116 -69 146 5 37 29 43 120 28 99 -16
313 -15 383 2 28 6 59 19 70 29 11 9 34 23 50 30 42 20 43 48 2 90 -34 35 -59
46 -182 80 -77 21 -221 25 -293 9 -60 -14 -128 -48 -160 -79 -15 -15 -35 -30
-44 -34 -10 -3 -18 -13 -18 -22 0 -8 -3 -15 -7 -15 -17 0 -10 62 14 126 18 48
25 86 24 124 -3 65 -21 84 -62 60z m204 -242 c-25 -12 -31 -28 -10 -28 6 0 40
9 75 19 67 21 169 21 245 0 31 -8 38 -14 35 -32 -3 -20 -10 -22 -90 -27 -149
-9 -288 -1 -288 16 0 24 -18 15 -40 -21 -34 -56 -55 -43 -25 15 15 29 76 69
105 69 9 0 6 -5 -7 -11z"/>
<path d="M14385 22812 c-16 -4 -31 -14 -33 -23 -4 -24 104 -34 488 -44 124 -3
275 -7 335 -10 61 -2 232 -7 380 -10 257 -5 334 -7 715 -20 315 -11 585 -25
1020 -55 80 -6 177 -13 215 -15 39 -3 131 -10 205 -15 74 -6 284 -22 465 -36
182 -14 350 -27 375 -29 25 -2 90 -7 145 -10 202 -12 409 -28 890 -71 99 -9
203 -17 230 -19 28 -2 129 -13 225 -25 96 -11 236 -27 310 -35 194 -21 359
-44 401 -57 26 -7 40 -19 50 -42 11 -24 21 -32 47 -34 64 -6 103 46 70 91 -42
54 -219 96 -488 117 -74 6 -220 19 -325 30 -104 11 -251 25 -325 30 -75 6
-145 12 -155 14 -11 2 -65 7 -120 10 -55 4 -147 11 -205 16 -168 16 -520 41
-713 50 -97 5 -181 11 -185 14 -5 3 -71 7 -148 11 -76 3 -152 8 -169 10 -26 4
-140 13 -375 30 -36 3 -128 9 -205 15 -196 14 -407 28 -635 40 -107 6 -224 13
-260 15 -36 2 -245 9 -465 15 -220 6 -454 12 -520 15 -130 4 -478 13 -775 20
-102 3 -241 7 -310 9 -69 3 -138 2 -155 -2z"/>
<path d="M11437 22416 c-38 -14 -54 -26 -108 -78 -15 -16 -34 -28 -43 -28 -22
0 -126 -63 -198 -121 -72 -57 -140 -135 -170 -193 -28 -56 -23 -158 12 -210
87 -129 325 -169 573 -95 104 30 303 130 364 181 57 47 113 126 113 158 0 11
5 40 12 65 11 39 10 53 -7 102 -17 53 -73 123 -97 123 -4 0 -37 20 -72 44 -39
26 -85 48 -116 55 -70 15 -217 13 -263 -3z m248 -62 c22 -8 49 -18 60 -21 46
-13 100 -83 126 -163 39 -124 2 -206 -129 -281 -97 -55 -248 -112 -346 -129
-80 -15 -212 -7 -277 15 -137 49 -140 174 -7 301 79 76 123 106 232 163 80 42
108 51 140 49 41 -3 65 -28 26 -28 -21 0 -22 -3 -15 -57 14 -117 23 -125 80
-70 l35 34 -16 54 c-8 30 -15 67 -14 83 1 36 -15 47 -57 40 -38 -7 -44 2 -10
16 35 14 128 11 172 -6z"/>
<path d="M15831 22401 c-27 -27 -35 -129 -21 -301 6 -80 13 -152 15 -160 3 -8
12 -80 20 -160 34 -322 43 -361 77 -347 23 8 32 144 19 274 -28 261 -32 313
-35 392 -3 61 1 102 15 150 23 78 25 131 6 131 -8 0 -22 9 -32 20 -23 25 -40
25 -64 1z"/>
<path d="M5165 22363 c-240 -43 -540 -207 -500 -273 9 -15 45 -3 75 25 61 56
217 130 375 178 97 29 237 38 260 16 12 -12 72 -12 80 1 10 16 185 -1 185 -19
0 -7 58 -38 121 -65 20 -9 62 -43 92 -76 44 -47 61 -75 78 -130 21 -64 22 -77
12 -156 -20 -166 -139 -351 -298 -465 -97 -70 -253 -150 -359 -184 -302 -97
-714 -28 -871 146 -67 75 -80 116 -80 264 0 111 3 139 22 188 73 185 170 314
288 381 130 74 159 93 163 105 4 11 -6 13 -49 8 -89 -9 -226 -94 -331 -205
-132 -141 -206 -371 -178 -559 24 -158 111 -285 246 -355 159 -82 322 -115
522 -105 145 8 220 24 353 76 289 113 496 302 590 538 59 150 62 327 6 408
-56 80 -112 135 -159 155 -27 11 -46 25 -43 30 4 6 -2 13 -12 16 -10 3 -36 15
-57 26 -21 12 -71 27 -110 34 -91 18 -317 16 -421 -3z"/>
<path d="M4915 22180 c3 -5 13 -10 21 -10 8 0 14 5 14 10 0 6 -9 10 -21 10
-11 0 -17 -4 -14 -10z"/>
<path d="M15989 21184 c-24 -25 -24 -28 -24 -217 0 -177 15 -334 44 -462 10
-41 35 -43 72 -5 35 34 35 27 9 205 -18 130 -12 291 15 420 5 24 1 36 -19 58
-32 34 -65 34 -97 1z"/>
<path d="M11277 20732 c-33 -37 -45 -92 -63 -288 -20 -227 -13 -440 17 -469
20 -21 44 -10 68 28 15 27 19 53 19 162 1 147 34 421 57 465 8 16 15 41 15 55
0 53 -78 85 -113 47z"/>
<path d="M14223 19248 c-10 -16 -12 -855 -2 -1128 3 -107 16 -332 27 -500 11
-168 24 -366 27 -440 4 -74 9 -157 11 -185 15 -189 1 -848 -26 -1280 -15 -235
-19 -470 -8 -489 5 -9 13 -16 18 -16 24 0 32 56 40 293 5 139 14 340 20 447
26 473 28 943 6 1305 -4 55 -8 138 -11 185 -5 81 -28 464 -41 675 -4 55 -7
334 -8 620 l-1 520 -22 3 c-11 2 -25 -3 -30 -10z"/>
<path d="M11354 18985 c-159 -47 -228 -88 -283 -169 -71 -103 -82 -252 -26
-336 69 -102 174 -149 350 -158 120 -5 234 14 373 64 206 74 280 136 289 243
12 128 -61 266 -170 322 -123 64 -378 80 -533 34z m452 -92 c22 -10 39 -24 37
-30 -3 -7 10 -30 27 -51 35 -44 70 -129 70 -171 0 -40 -29 -73 -97 -108 -123
-65 -281 -103 -423 -103 -193 0 -290 63 -290 188 0 81 83 202 169 247 33 17
34 16 31 -31 -3 -61 35 -57 125 11 33 24 78 52 100 60 54 20 195 14 251 -12z"/>
<path d="M16070 18989 c-195 -32 -451 -104 -562 -160 -84 -42 -160 -104 -184
-150 -17 -35 -17 -34 2 -53 27 -27 57 -19 104 30 25 25 67 57 94 71 160 82
715 209 765 175 49 -34 -206 -292 -489 -494 -79 -56 -165 -143 -179 -180 -14
-38 0 -71 41 -96 67 -41 290 -35 628 18 36 5 97 10 135 10 91 1 137 17 149 51
5 15 6 35 2 44 -6 16 -18 17 -134 11 -70 -3 -212 -15 -317 -26 -104 -11 -221
-23 -260 -26 -124 -9 -123 21 2 106 175 121 266 196 382 315 176 183 214 260
154 317 -16 15 -41 32 -56 37 -33 13 -198 13 -277 0z"/>
<path d="M5441 18877 c-15 -19 -55 -175 -90 -352 -35 -177 -45 -251 -66 -485
-8 -96 -17 -197 -20 -225 -10 -106 -13 -1114 -4 -1214 7 -78 6 -116 -3 -155
-15 -59 -13 -82 8 -90 36 -14 88 49 75 89 -4 11 -7 38 -6 60 1 22 -2 110 -7
195 -13 245 -10 694 7 950 21 331 34 489 45 535 6 22 12 63 14 90 5 52 50 258
62 276 3 6 14 43 24 82 10 40 25 95 34 122 22 68 20 82 -10 110 -30 28 -47 31
-63 12z"/>
<path d="M0 17736 c0 -42 1 -43 38 -49 20 -3 123 -22 227 -42 105 -19 294 -53
420 -75 127 -22 295 -51 375 -65 172 -30 228 -32 237 -9 7 19 -43 62 -97 83
-19 7 -118 26 -220 41 -246 38 -508 81 -864 144 -121 22 -116 23 -116 -28z"/>
<path d="M11369 17620 c-29 -17 -67 -121 -78 -210 -5 -47 -12 -204 -16 -350
-7 -315 -18 -421 -55 -555 -53 -193 -63 -234 -57 -249 11 -27 41 -18 81 23 32
33 43 56 68 143 16 56 33 126 39 153 11 55 34 341 49 611 11 194 22 260 49
313 31 58 33 83 9 108 -22 24 -61 29 -89 13z"/>
<path d="M1375 17238 c-34 -188 -45 -249 -54 -283 -28 -116 -61 -246 -74 -295
-8 -30 -25 -104 -36 -165 -12 -60 -26 -135 -32 -165 -6 -30 -31 -136 -55 -235
-87 -349 -104 -446 -154 -895 -11 -96 -24 -209 -30 -250 -19 -141 -39 -415
-50 -670 -16 -385 -36 -637 -89 -1080 -5 -41 -15 -156 -21 -255 -6 -99 -22
-265 -35 -370 -31 -245 -34 -296 -40 -750 -3 -272 -9 -410 -21 -485 -22 -147
-22 -147 -41 -154 -9 -4 -158 -7 -330 -7 l-313 1 0 -49 0 -49 76 -7 c98 -10
600 0 639 12 17 5 36 21 43 36 26 54 41 277 52 772 5 275 14 527 19 560 19
129 32 250 52 505 11 146 24 299 29 340 38 324 47 436 65 850 14 309 42 671
65 850 4 36 20 166 34 290 15 124 33 261 40 305 24 135 44 237 60 300 8 33 30
123 50 200 19 77 49 214 66 305 17 91 45 217 62 280 17 63 32 122 34 130 50
212 64 275 70 327 6 58 5 65 -20 98 -34 44 -53 45 -61 3z"/>
<path d="M16100 17207 c-3 -4 -111 -7 -239 -8 -231 -2 -234 -3 -262 -27 -17
-14 -29 -34 -29 -48 0 -42 29 -47 208 -40 268 11 344 15 409 22 91 8 173 -4
173 -26 0 -26 -23 -42 -160 -110 -251 -125 -321 -184 -324 -271 -1 -37 4 -46
43 -79 50 -43 150 -78 311 -110 197 -39 297 -78 366 -145 39 -37 44 -47 44
-86 0 -54 -14 -76 -88 -132 -152 -116 -367 -197 -578 -218 -108 -11 -114 -11
-147 10 -46 28 -63 27 -98 -8 -35 -35 -38 -74 -7 -95 30 -21 256 -22 360 -2
65 13 200 53 253 76 11 5 53 23 93 39 145 60 272 157 308 236 31 65 30 109 -2
173 -65 130 -217 206 -544 273 -173 35 -222 67 -172 112 10 9 96 57 192 108
239 125 300 173 300 235 0 26 -75 92 -118 103 -43 12 -284 26 -292 18z"/>
<path d="M11342 15405 c-94 -30 -220 -106 -266 -160 -19 -24 -52 -74 -73 -111
-37 -68 -38 -71 -38 -174 0 -124 12 -170 62 -238 62 -83 180 -149 310 -173
192 -36 561 58 672 171 24 25 51 61 59 80 19 44 18 160 -1 222 -14 46 -77 150
-97 163 -6 3 -10 23 -10 44 0 38 -1 39 -52 56 -29 9 -69 27 -88 39 -128 84
-195 106 -314 105 -66 0 -111 -7 -164 -24z m332 -79 c14 -9 30 -25 36 -36 6
-11 32 -31 58 -44 52 -26 75 -48 102 -98 60 -107 89 -191 92 -262 2 -40 -2
-50 -32 -82 -43 -44 -118 -83 -230 -119 -123 -40 -307 -47 -408 -16 -92 28
-149 72 -185 141 -27 51 -28 61 -24 145 5 111 34 174 112 250 65 62 129 95
184 95 26 0 60 10 89 25 40 22 57 25 114 22 39 -3 78 -11 92 -21z"/>
<path d="M3119 15415 c-2 -2 -146 -6 -319 -9 -326 -5 -376 -10 -523 -56 -74
-23 -104 -53 -93 -94 8 -33 36 -37 87 -14 24 10 82 33 129 51 l85 32 1040 -3
c881 -1 1623 -2 1700 -1 11 0 301 0 645 0 344 0 639 0 655 0 53 1 606 -11 740
-17 72 -2 155 -4 185 -3 30 1 64 2 75 2 11 0 146 -3 300 -7 251 -5 487 -10
1255 -23 322 -5 320 -5 335 7 9 7 21 7 41 0 16 -6 60 -11 99 -10 38 1 122 -1
185 -4 63 -2 354 -6 645 -8 402 -2 537 0 558 9 72 33 5 44 -303 50 -124 3
-236 5 -250 6 -14 0 -45 -1 -70 -2 -25 -1 -173 0 -330 4 -157 3 -303 5 -325 4
-22 -1 -47 -1 -55 -1 -8 1 -143 3 -300 6 -793 11 -1053 17 -1425 32 -280 11
-684 15 -1955 19 -712 2 -1385 7 -1495 9 -110 3 -438 8 -730 11 -291 3 -542 8
-556 10 -15 2 -28 2 -30 0z"/>
<path d="M12124 15291 c-40 -10 -54 -19 -54 -35 0 -23 139 -37 417 -42 147 -2
344 -9 438 -14 161 -10 170 -9 189 9 19 19 18 20 -38 36 -32 9 -74 15 -94 12
-21 -2 -100 2 -177 9 -77 6 -243 11 -369 10 -169 -1 -233 2 -245 11 -18 14
-23 14 -67 4z"/>
<path d="M13170 15226 c0 -14 4 -27 9 -31 12 -7 208 -11 215 -4 3 3 38 1 78
-4 123 -15 152 -14 156 4 5 25 -21 30 -164 30 -97 0 -140 3 -161 14 -15 8 -52
15 -80 15 -50 0 -53 -2 -53 -24z"/>
<path d="M13710 15213 c-44 -7 -54 -13 -43 -24 15 -15 233 -24 233 -10 0 6 -7
8 -15 5 -8 -4 -17 1 -21 9 -4 10 -19 15 -47 15 -23 -1 -51 1 -62 4 -11 3 -31
3 -45 1z"/>
<path d="M13945 15190 c-15 -24 15 -35 86 -35 77 0 103 16 54 35 -35 13 -132
13 -140 0z"/>
<path d="M14483 15157 c2 -6 12 -12 23 -13 11 -1 30 -7 43 -13 12 -7 37 -11
54 -10 18 1 40 -2 50 -6 23 -10 67 10 67 30 0 18 -23 19 -50 3 -16 -10 -24
-10 -39 -1 -29 18 -154 26 -148 10z"/>
<path d="M14835 15137 c-17 -13 -16 -15 13 -25 36 -12 61 5 40 26 -16 16 -30
15 -53 -1z"/>
<path d="M15005 15121 c-3 -6 -3 -11 2 -12 4 0 20 -3 35 -5 14 -2 29 0 33 6 3
5 -3 10 -14 10 -10 0 -26 3 -34 6 -8 3 -18 1 -22 -5z"/>
<path d="M14250 15085 c-10 -12 -11 -110 -5 -458 4 -243 10 -525 14 -627 4
-102 6 -405 4 -675 -9 -1170 -6 -1744 10 -1954 8 -112 20 -208 26 -214 8 -8
16 -6 28 5 15 16 15 46 3 395 -7 208 -12 383 -13 388 0 6 4 420 8 920 4 598 3
1034 -4 1270 -6 198 -14 488 -17 645 -7 310 -14 353 -54 305z"/>
<path d="M15283 15088 c2 -7 10 -13 17 -13 7 0 15 6 18 13 2 7 -5 12 -18 12
-13 0 -20 -5 -17 -12z"/>
<path d="M15440 15091 c0 -11 26 -22 34 -14 3 3 3 10 0 14 -7 12 -34 11 -34 0z"/>
<path d="M15340 15070 c0 -5 5 -10 10 -10 6 0 10 5 10 10 0 6 -4 10 -10 10 -5
0 -10 -4 -10 -10z"/>
<path d="M15510 15070 c0 -5 5 -10 11 -10 5 0 7 5 4 10 -3 6 -8 10 -11 10 -2
0 -4 -4 -4 -10z"/>
<path d="M16060 15040 c0 -27 27 -37 47 -17 20 19 9 37 -23 37 -17 0 -24 -5
-24 -20z"/>
<path d="M15784 14998 c-69 -52 -248 -226 -269 -263 -37 -63 -41 -107 -15
-159 59 -123 257 -213 448 -204 57 3 85 1 88 -7 3 -6 -9 -63 -25 -126 -28
-110 -49 -225 -56 -320 -3 -25 -15 -101 -29 -168 -32 -156 -24 -183 34 -121
52 56 63 92 96 330 18 135 48 266 65 286 6 7 9 20 6 28 -3 8 6 37 21 65 18 37
33 53 51 57 63 13 188 55 209 69 12 9 22 23 22 30 0 8 9 29 20 47 24 39 26 68
5 68 -9 0 -39 -17 -68 -39 -129 -96 -235 -123 -184 -46 7 11 20 36 27 55 27
66 123 215 172 266 32 33 65 56 91 64 39 12 77 42 77 60 0 5 -16 18 -36 30
-44 28 -105 22 -164 -15 -96 -60 -215 -252 -263 -423 -13 -45 -29 -88 -35 -94
-9 -9 -37 -9 -119 1 -177 22 -292 71 -328 140 -24 47 11 99 148 219 64 57 117
111 117 120 0 21 -46 72 -63 72 -7 0 -27 -10 -43 -22z"/>
<path d="M16655 14990 c-3 -5 3 -10 14 -10 12 0 21 5 21 10 0 6 -6 10 -14 10
-8 0 -18 -4 -21 -10z"/>
<path d="M16705 14980 c3 -5 20 -10 36 -10 18 0 28 4 24 10 -3 6 -20 10 -36
10 -18 0 -28 -4 -24 -10z"/>
<path d="M16828 14982 c-58 -12 20 -38 162 -55 14 -1 33 1 42 5 10 5 51 1 95
-8 43 -9 93 -13 112 -10 19 3 42 1 53 -5 11 -6 54 -12 97 -14 43 -2 95 -11
116 -19 28 -12 46 -14 72 -7 18 5 46 6 62 1 15 -4 40 -6 53 -3 14 3 35 0 46
-6 11 -6 55 -13 96 -16 42 -2 105 -9 139 -15 65 -11 194 -21 312 -25 39 -1 86
-8 105 -14 19 -6 53 -11 75 -11 22 0 54 -4 71 -9 18 -5 94 -12 170 -16 76 -4
145 -10 154 -15 8 -4 71 -11 138 -14 68 -3 140 -10 160 -15 21 -5 91 -12 157
-16 66 -3 152 -10 190 -15 96 -13 280 -30 400 -36 55 -3 117 -9 138 -14 22 -4
46 -6 53 -3 8 3 35 0 61 -6 27 -6 100 -16 163 -21 197 -17 354 -31 390 -35 59
-7 209 -25 330 -40 63 -8 153 -19 200 -25 47 -6 123 -17 170 -25 47 -8 148
-24 225 -36 77 -11 157 -25 178 -31 46 -11 63 -1 72 43 10 45 -10 62 -62 55
-25 -3 -111 5 -210 20 -93 14 -186 28 -208 30 -22 2 -74 8 -115 14 -41 5 -127
14 -190 20 -63 6 -144 15 -180 20 -114 17 -142 20 -285 30 -172 12 -219 17
-315 30 -41 6 -102 13 -135 16 -156 13 -427 34 -585 45 -96 6 -205 17 -242 23
-43 8 -72 9 -84 3 -11 -6 -31 -5 -58 3 -22 7 -90 14 -151 17 -60 2 -121 8
-135 13 -14 4 -32 8 -40 8 -8 1 -53 4 -100 7 -47 4 -105 8 -130 10 -25 1 -94
10 -155 18 -60 9 -168 19 -240 23 -71 3 -138 11 -149 16 -10 6 -50 9 -90 7
-42 -2 -87 2 -110 10 -21 7 -56 11 -79 8 -23 -3 -49 -1 -59 4 -21 11 -153 18
-168 9 -10 -6 -97 7 -161 24 -19 6 -28 3 -32 -9 -6 -13 -11 -14 -28 -4 -28 14
-67 19 -200 24 -59 3 -119 9 -134 15 -15 6 -35 8 -44 5 -9 -2 -50 1 -91 8 -41
7 -83 11 -92 9z"/>
<path d="M3902 14250 c-314 -50 -770 -199 -937 -306 -78 -49 -145 -116 -145
-143 0 -31 18 -61 37 -61 8 0 44 27 79 60 90 84 308 188 544 260 58 17 119 36
135 41 85 26 321 70 406 75 143 10 285 -23 346 -79 33 -29 57 -110 50 -168 -7
-54 -59 -175 -107 -244 -82 -119 -262 -311 -516 -550 -492 -463 -645 -649
-648 -785 -2 -112 55 -167 199 -191 136 -22 541 -8 940 31 55 6 125 12 155 15
176 14 402 36 445 44 28 5 99 13 159 16 115 7 143 13 169 40 20 19 22 51 4 58
-7 2 -55 -1 -107 -9 -52 -7 -156 -16 -230 -19 -74 -3 -209 -13 -300 -21 -704
-62 -947 -76 -1077 -65 -128 12 -174 22 -220 51 -48 29 -52 61 -16 134 77 154
294 394 722 797 283 267 374 370 401 457 7 23 19 42 26 42 20 0 75 118 80 173
3 27 6 53 8 56 8 12 -25 156 -40 179 -71 108 -300 154 -562 112z"/>
<path d="M11371 13793 c-31 -27 -71 -137 -81 -228 -33 -296 -50 -957 -25
-1017 12 -29 42 -20 67 20 22 36 23 45 24 257 0 121 6 247 12 280 6 33 16 146
22 250 11 197 23 257 66 331 29 50 30 78 4 104 -25 25 -61 26 -89 3z"/>
<path d="M15429 13450 c-49 -26 -144 -132 -174 -195 -129 -262 46 -543 405
-651 75 -22 96 -24 176 -18 88 6 92 5 99 -15 3 -12 4 -34 1 -49 -4 -15 -11
-85 -16 -157 -6 -71 -13 -146 -16 -166 -7 -46 11 -114 38 -139 30 -28 83 -27
102 3 11 17 12 34 6 72 -19 110 -6 395 23 505 73 280 128 417 198 502 45 53
48 74 17 113 -18 24 -26 27 -60 22 -50 -7 -61 -17 -108 -96 -53 -89 -95 -210
-144 -420 -9 -36 -20 -69 -26 -75 -18 -18 -197 -12 -265 8 -141 43 -263 134
-313 236 -69 140 -9 333 130 415 67 40 78 57 58 93 -20 35 -78 41 -131 12z"/>
<path d="M7917 11433 c-1 0 -155 -4 -342 -8 -187 -3 -401 -9 -475 -12 -74 -3
-151 -6 -170 -6 -19 0 -100 -3 -180 -8 -80 -4 -208 -11 -285 -14 -77 -4 -142
-8 -145 -10 -3 -1 -81 -6 -175 -9 -93 -4 -188 -9 -210 -11 -22 -3 -83 -7 -135
-10 -52 -3 -156 -9 -230 -14 -74 -6 -205 -15 -290 -21 -85 -5 -299 -22 -475
-36 -176 -14 -378 -29 -450 -34 -71 -5 -202 -16 -290 -24 -88 -9 -214 -20
-280 -26 -66 -6 -194 -19 -285 -30 -91 -11 -219 -24 -285 -30 -66 -6 -212 -22
-325 -35 -113 -14 -225 -26 -250 -29 -84 -8 -335 -36 -410 -47 -153 -21 -684
-64 -885 -73 -150 -6 -175 -17 -175 -81 0 -46 11 -47 286 -16 142 16 320 34
394 40 171 14 322 29 475 47 66 8 158 19 205 24 47 6 121 14 165 20 44 6 121
14 170 19 130 13 359 39 438 51 37 5 84 10 105 10 20 0 96 9 167 19 72 11 171
22 220 26 50 3 108 8 129 12 22 3 67 7 100 8 34 2 95 9 136 15 41 6 134 15
205 20 149 10 448 34 610 50 61 6 214 18 340 27 127 8 273 19 325 24 90 7 472
31 515 31 11 0 103 7 205 15 102 8 219 13 260 12 41 -1 129 3 195 9 66 6 174
11 240 10 66 0 158 3 205 6 47 4 254 10 460 12 206 3 386 5 400 6 19 0 280 -6
565 -13 6 0 62 1 125 1 63 1 201 -1 305 -4 105 -2 298 -8 430 -11 132 -3 296
-8 365 -10 69 -2 220 -7 335 -10 365 -11 465 -15 655 -25 177 -11 286 -14 340
-12 41 2 174 -5 350 -18 91 -7 215 -14 275 -16 61 -2 139 -6 175 -9 36 -2 109
-5 164 -5 54 0 106 -5 117 -10 10 -6 80 -12 156 -15 127 -4 531 -30 613 -39
19 -2 87 -7 150 -11 63 -4 148 -11 189 -15 41 -4 80 -6 86 -3 7 2 80 -2 161
-10 82 -8 163 -15 179 -14 17 0 68 -2 115 -6 238 -19 250 -18 209 19 -17 16
-45 20 -163 27 -154 8 -174 10 -226 20 -42 8 -344 29 -455 31 -44 1 -88 5 -98
10 -10 5 -40 6 -67 3 -27 -3 -64 -2 -81 3 -18 6 -71 12 -118 15 -48 4 -140 11
-206 17 -66 7 -157 11 -203 9 -46 -1 -109 3 -140 9 -51 10 -259 24 -517 36
-49 2 -139 8 -200 13 -60 6 -198 12 -305 16 -107 3 -238 8 -290 11 -97 6 -253
12 -465 18 -66 1 -163 6 -215 10 -52 3 -212 9 -355 12 -143 3 -307 7 -365 9
-304 12 -789 26 -910 27 -19 1 -51 -1 -70 -2 -19 -2 -150 0 -290 4 -257 8
-520 12 -523 9z"/>
<path d="M14325 11110 c-3 -5 -1 -10 4 -10 6 0 11 5 11 10 0 6 -2 10 -4 10 -3
0 -8 -4 -11 -10z"/>
<path d="M14473 11113 c-26 -3 -43 -9 -43 -17 0 -14 113 -42 129 -32 6 4 29 2
52 -4 22 -6 84 -13 137 -15 53 -2 117 -6 141 -9 24 -3 103 -8 175 -10 72 -3
140 -8 151 -12 11 -5 36 -8 55 -7 19 0 68 -6 108 -13 41 -8 89 -12 107 -8 18
3 41 1 51 -4 20 -10 271 -26 364 -23 32 1 71 -5 93 -14 33 -14 70 -17 162 -15
33 1 175 -15 270 -30 109 -17 403 -32 422 -21 31 17 -30 33 -137 37 -52 2
-141 11 -197 19 -55 8 -108 12 -116 9 -8 -3 -28 1 -44 9 -17 8 -62 15 -113 16
-92 1 -272 18 -305 28 -24 7 -141 15 -208 13 -26 0 -98 7 -160 16 -62 9 -151
18 -198 19 -48 1 -91 5 -96 8 -6 4 -27 2 -47 -4 -24 -7 -42 -7 -49 -1 -24 19
-87 28 -272 36 -49 2 -98 7 -107 11 -9 4 -21 5 -25 2 -4 -2 -57 1 -118 9 -60
7 -117 12 -125 12 -8 -1 -34 -3 -57 -5z"/>
<path d="M14304 11019 c-3 -6 -3 -100 1 -208 4 -108 9 -223 10 -256 1 -33 5
-285 8 -560 13 -991 17 -1354 22 -1600 3 -137 8 -464 11 -725 3 -261 8 -478
11 -482 9 -16 43 -7 54 14 9 16 10 147 5 512 -4 270 -9 509 -11 531 -5 38 -7
199 -20 1310 -9 828 -16 1134 -30 1315 -2 30 -4 72 -5 92 0 49 -37 87 -56 57z"/>
<path d="M16913 10893 c-34 -3 -43 -8 -43 -24 0 -14 7 -19 28 -21 15 0 54 -2
87 -4 33 -2 78 -5 100 -7 22 -3 103 -12 180 -21 77 -9 154 -18 171 -21 24 -4
33 -1 38 12 5 11 10 14 14 6 7 -10 179 -41 272 -49 25 -2 64 -7 88 -12 24 -5
59 -6 79 -2 19 5 45 5 57 0 11 -5 73 -14 136 -20 182 -17 342 -37 385 -49 24
-6 54 -7 75 -2 48 11 116 7 134 -8 9 -7 22 -11 29 -8 7 2 55 1 107 -4 166 -16
269 -19 275 -9 12 19 -59 38 -142 39 -45 1 -94 6 -108 11 -14 5 -85 12 -158
15 -72 3 -147 10 -165 16 -19 6 -53 8 -77 4 -29 -4 -62 -1 -96 9 -29 9 -87 16
-128 16 -42 0 -121 7 -176 16 -101 17 -224 26 -325 24 -49 -1 -69 4 -122 31
-24 12 -105 11 -153 -2 -29 -8 -40 -8 -43 0 -2 6 -22 11 -45 11 -23 0 -60 5
-82 10 -22 6 -62 13 -90 16 -77 8 -207 23 -235 27 -14 2 -44 2 -67 0z"/>
<path d="M11511 10849 c-143 -28 -241 -87 -241 -145 0 -25 74 -16 157 18 74
31 85 33 203 33 175 0 272 -34 383 -134 75 -67 110 -119 127 -187 17 -66 4
-100 -54 -150 -61 -53 -227 -130 -345 -160 -90 -23 -118 -26 -216 -22 -130 5
-194 29 -233 88 -52 77 -5 230 87 290 75 47 128 62 194 55 69 -7 107 10 107
50 0 80 -237 72 -370 -13 -97 -61 -154 -166 -154 -282 -1 -84 20 -138 77 -199
153 -162 590 -113 904 102 73 50 124 112 137 170 10 43 -21 144 -64 207 -71
104 -203 206 -317 245 -118 41 -277 55 -382 34z"/>
<path d="M19157 10661 c-16 -6 -17 -9 -5 -18 14 -12 306 -38 316 -29 3 3 10 1
17 -4 6 -5 51 -12 99 -15 48 -2 91 -7 97 -10 5 -4 44 -8 87 -9 42 -2 104 -6
137 -10 33 -3 133 -12 221 -20 89 -7 170 -18 180 -24 11 -5 57 -10 104 -10 47
0 114 -5 150 -12 67 -12 100 -16 260 -26 188 -12 295 -22 310 -28 8 -3 56 -8
105 -10 50 -3 171 -9 270 -15 205 -13 426 -9 470 9 24 9 31 9 41 -4 13 -19 48
-21 61 -3 6 6 13 29 17 49 6 31 3 39 -14 48 -16 9 -30 6 -68 -11 -42 -19 -68
-21 -232 -24 -192 -3 -598 16 -755 34 -49 6 -97 10 -105 9 -8 -2 -69 1 -135 5
-166 12 -190 14 -270 26 -38 6 -117 13 -175 16 -58 3 -134 10 -170 15 -36 5
-137 14 -225 20 -200 14 -221 16 -266 25 -42 8 -205 16 -296 15 -34 -1 -64 4
-68 10 -7 11 -130 13 -158 1z"/>
<path d="M15520 10585 c-90 -20 -228 -91 -251 -129 -29 -47 -22 -70 24 -74 23
-2 48 3 62 12 110 72 206 99 355 100 91 1 131 -4 193 -22 150 -43 221 -92 263
-179 22 -48 26 -66 22 -128 -6 -134 -109 -296 -245 -387 -120 -81 -196 -109
-296 -109 -119 0 -187 53 -187 144 0 93 80 284 149 354 53 54 55 87 7 110 -32
15 -36 15 -68 -5 -54 -34 -84 -72 -131 -167 -83 -169 -97 -288 -47 -390 29
-57 90 -108 153 -127 23 -7 83 -12 132 -12 81 1 98 5 165 36 41 19 91 41 110
48 63 24 141 80 211 152 112 114 158 214 160 346 1 42 -4 97 -12 122 -37 128
-171 239 -350 291 -98 28 -324 35 -419 14z"/>
<path d="M4200 10123 c-274 -6 -556 -37 -675 -74 -60 -18 -95 -46 -95 -75 0
-21 50 -65 68 -60 10 4 30 -6 52 -24 51 -44 70 -41 25 4 -14 14 -25 32 -25 40
0 50 263 88 711 101 354 10 564 13 597 8 l33 -6 -23 -25 c-24 -26 -118 -72
-196 -96 -154 -47 -519 -190 -667 -261 -222 -106 -302 -170 -290 -229 9 -39
59 -93 105 -113 37 -16 241 -77 398 -119 306 -82 595 -207 705 -305 67 -59 70
-76 26 -142 -30 -45 -144 -157 -160 -157 -4 0 -27 -13 -51 -28 -60 -40 -215
-116 -288 -142 -19 -7 -98 -35 -175 -62 -77 -28 -158 -54 -180 -59 -22 -5 -74
-21 -116 -34 -41 -13 -97 -29 -125 -35 -46 -10 -89 -21 -210 -56 -60 -17 -86
-40 -63 -55 26 -18 219 8 359 49 453 132 760 247 890 334 19 13 61 39 92 57
31 19 80 62 110 95 53 60 53 61 53 126 0 89 -21 124 -109 189 -70 52 -209 129
-296 165 -25 10 -61 26 -80 34 -19 8 -48 19 -65 23 -16 4 -106 33 -200 64
-160 53 -217 71 -392 125 -81 25 -113 51 -97 78 33 52 345 197 684 319 205 73
356 141 400 179 9 7 41 23 72 35 54 20 98 51 98 68 0 19 -40 42 -91 52 -50 10
-554 17 -809 12z"/>
<path d="M11580 9295 c-42 -51 -58 -224 -37 -408 8 -70 13 -144 12 -165 -11
-122 -17 -620 -7 -626 21 -12 45 8 68 58 21 46 24 65 24 185 0 82 6 168 16
220 14 71 15 112 8 231 -13 224 -10 306 15 382 25 76 21 115 -16 129 -35 13
-69 11 -83 -6z"/>
<path d="M15288 9273 c-54 -60 -2 -106 116 -104 40 1 169 -7 287 -18 118 -11
251 -23 296 -26 90 -8 111 -20 88 -52 -14 -20 -47 -33 -230 -92 -55 -18 -109
-36 -120 -41 -11 -5 -31 -12 -45 -15 -40 -11 -68 -33 -86 -66 -16 -31 -16 -32
18 -65 46 -46 118 -85 438 -237 183 -86 300 -177 300 -231 0 -42 -42 -89 -107
-122 -56 -27 -222 -86 -298 -105 -16 -4 -66 -17 -109 -28 -127 -34 -247 -47
-306 -33 -57 13 -95 4 -105 -27 -24 -77 100 -100 295 -54 36 9 76 17 90 18 47
5 219 51 339 90 74 25 266 123 290 149 25 27 37 87 27 138 -4 21 -26 57 -57
91 -85 96 -192 158 -571 330 -117 54 -109 68 62 117 133 38 273 99 312 137 63
60 14 138 -104 167 -29 7 -82 19 -118 25 -36 7 -85 16 -110 21 -45 9 -198 23
-485 45 -81 6 -92 5 -107 -12z"/>
<path d="M987 7302 c-10 -10 -17 -33 -17 -51 0 -29 5 -34 46 -53 50 -22 157
-42 299 -58 50 -5 131 -14 180 -20 273 -32 363 -35 960 -33 493 2 803 6 1015
15 8 0 31 0 50 -1 19 -2 555 0 1190 4 635 4 1169 6 1185 4 38 -3 28 -3 555 4
245 4 479 6 520 5 41 0 118 -1 170 0 52 1 492 3 978 6 485 2 900 7 921 11 25
4 46 2 59 -6 14 -9 32 -10 72 -2 32 7 65 7 88 1 65 -16 86 -16 113 -2 19 9 36
11 57 4 17 -4 71 -9 119 -10 137 -2 526 -3 648 -1 61 0 142 -1 180 -4 39 -3
76 -4 83 -4 33 2 111 2 142 -1 42 -4 209 8 221 16 5 3 17 0 28 -6 11 -6 22 -6
25 -1 8 13 -19 32 -37 25 -8 -3 -18 -1 -22 5 -8 13 -82 15 -89 2 -3 -5 -24 -2
-47 5 -31 11 -50 12 -79 4 -26 -7 -47 -7 -65 0 -19 7 -38 7 -66 -2 -31 -9 -44
-9 -63 1 -15 9 -67 13 -152 12 -71 0 -174 0 -229 0 -55 -1 -183 1 -285 3 -277
7 -420 6 -465 -3 -28 -5 -49 -3 -69 7 -30 15 -99 10 -122 -9 -7 -6 -23 -4 -47
6 -25 10 -73 15 -159 15 -206 1 -239 1 -343 2 -55 1 -377 1 -715 0 -338 0
-687 -1 -775 -1 -88 0 -169 0 -180 0 -11 0 -884 -3 -1940 -6 -1056 -4 -1969
-7 -2030 -9 -319 -7 -821 -5 -970 4 -157 10 -311 26 -619 66 -113 15 -219 44
-231 65 -11 16 -71 10 -88 -9z"/>
<path d="M12604 7159 c-4 -8 -25 -10 -61 -6 -42 4 -55 2 -60 -9 -10 -26 14
-42 55 -35 42 8 94 6 135 -4 24 -6 27 -5 27 19 0 20 -6 27 -27 32 -16 3 -35 8
-45 10 -9 3 -20 0 -24 -7z"/>
<path d="M12819 7160 c-8 -4 -31 -10 -51 -14 -21 -4 -38 -11 -38 -16 0 -10 69
-32 80 -25 3 2 44 6 90 9 45 3 85 8 87 10 13 12 -13 27 -45 26 -20 -1 -53 3
-73 8 -20 5 -43 6 -50 2z"/>
<path d="M10907 7140 c-8 -32 8 -45 40 -32 42 16 121 23 128 12 4 -6 19 -9 33
-8 15 1 33 -1 39 -5 6 -4 23 -3 38 3 20 8 24 14 17 26 -7 13 -34 16 -149 19
-129 3 -142 1 -146 -15z"/>
<path d="M11310 7151 c-22 -4 -35 -12 -35 -21 0 -12 18 -15 95 -16 52 -1 97
-2 100 -3 3 -1 51 -4 107 -7 84 -5 105 -3 118 9 33 33 -56 46 -255 36 -25 -2
-56 0 -70 3 -14 3 -41 2 -60 -1z"/>
<path d="M11736 7147 c-10 -8 -16 -19 -13 -24 9 -14 85 -26 100 -16 7 4 49 6
95 4 67 -2 82 0 82 12 0 31 -26 39 -102 30 -80 -8 -81 -8 -118 1 -15 4 -32 1
-44 -7z"/>
<path d="M12030 7150 c-12 -7 -11 -10 5 -15 11 -4 37 -13 57 -21 41 -15 50
-10 37 24 -7 17 -16 22 -46 22 -21 0 -45 -4 -53 -10z"/>
<path d="M12183 7148 c-13 -6 -23 -20 -23 -31 0 -17 5 -18 38 -13 20 3 52 6
70 6 22 -1 32 4 32 14 0 32 -71 46 -117 24z"/>
<path d="M13174 7149 c-3 -5 -34 -9 -69 -9 -63 0 -91 -13 -64 -32 8 -5 39 -6
69 -3 30 4 75 6 98 6 52 -1 122 16 122 29 0 12 -5 12 -88 15 -34 2 -65 -1 -68
-6z"/>
<path d="M13407 7152 c-30 -2 -37 -7 -33 -18 3 -9 6 -19 6 -23 0 -4 31 -8 68
-9 58 -2 72 1 87 18 10 11 16 22 14 24 -7 6 -103 12 -142 8z"/>
<path d="M13645 7146 c-18 -13 -18 -16 -5 -29 39 -38 119 -21 94 20 -14 23
-63 28 -89 9z"/>
<path d="M13823 7140 c-52 -22 -15 -40 82 -40 69 0 97 12 77 32 -15 15 -129
21 -159 8z"/>
<path d="M14042 7130 c-31 -17 -32 -19 -15 -28 20 -11 129 -2 152 12 10 7 0
13 -35 22 -62 17 -62 17 -102 -6z"/>
<path d="M14216 7131 c-3 -5 1 -14 8 -20 16 -13 32 2 21 19 -8 12 -22 13 -29
1z"/>
<path d="M14650 7131 c-43 -9 -62 -19 -55 -31 7 -12 131 -11 163 1 26 10 26
11 8 25 -21 15 -57 16 -116 5z"/>
<path d="M12330 7120 c0 -5 11 -10 24 -10 14 0 28 5 31 10 4 6 -7 10 -24 10
-17 0 -31 -4 -31 -10z"/>
<path d="M14790 7110 c0 -16 19 -21 98 -27 42 -2 91 -5 107 -7 40 -2 66 11 58
30 -5 13 -19 15 -82 10 -42 -3 -85 -7 -96 -8 -11 -1 -35 1 -52 5 -19 3 -33 2
-33 -3z"/>
<path d="M15150 7100 c0 -23 4 -24 31 -10 27 15 24 30 -6 30 -18 0 -25 -5 -25
-20z"/>
<path d="M15383 7105 c-7 -21 -6 -22 57 -29 64 -7 91 4 71 28 -19 22 -119 22
-128 1z"/>
<path d="M15220 7100 c0 -5 10 -10 23 -10 18 0 19 2 7 10 -19 13 -30 13 -30 0z"/>
<path d="M15290 7090 c-11 -20 -9 -21 17 -18 17 2 28 9 28 18 0 23 -32 23 -45
0z"/>
<path d="M15592 7101 c-11 -7 -10 -10 3 -15 20 -7 38 1 30 15 -7 11 -16 11
-33 0z"/>
<path d="M16025 7100 c-3 -5 -16 -10 -28 -10 -16 0 -18 -3 -9 -12 14 -14 121
-13 136 2 11 11 0 15 -56 25 -21 3 -39 1 -43 -5z"/>
<path d="M16215 7099 c-10 -15 1 -23 20 -15 9 3 13 10 10 16 -8 13 -22 13 -30
-1z"/>
<path d="M15650 7089 c0 -15 41 -30 73 -27 20 2 32 8 32 18 0 11 -13 15 -52
16 -29 0 -53 -3 -53 -7z"/>
<path d="M15858 7092 c-26 -5 -22 -21 6 -28 25 -6 46 1 46 15 0 11 -30 18 -52
13z"/>
<path d="M16286 7087 c-18 -13 -18 -14 -1 -21 19 -7 48 11 39 25 -7 12 -17 11
-38 -4z"/>
<path d="M16610 7070 c0 -5 5 -10 10 -10 6 0 10 5 10 10 0 6 -4 10 -10 10 -5
0 -10 -4 -10 -10z"/>
<path d="M16830 7070 c0 -5 7 -10 15 -10 8 0 15 5 15 10 0 6 -7 10 -15 10 -8
0 -15 -4 -15 -10z"/>
<path d="M17200 7070 c0 -5 5 -10 10 -10 6 0 10 5 10 10 0 6 -4 10 -10 10 -5
0 -10 -4 -10 -10z"/>
<path d="M17536 7073 c-17 -17 -4 -33 28 -33 33 0 55 14 39 23 -17 10 -60 16
-67 10z"/>
<path d="M17166 7061 c-4 -7 -5 -15 -2 -18 9 -9 19 4 14 18 -4 11 -6 11 -12 0z"/>
<path d="M14380 7036 c-8 -23 -5 -360 5 -541 7 -110 7 -1068 0 -1365 -11 -500
-47 -1411 -65 -1635 -5 -66 -14 -190 -20 -275 -12 -165 -33 -400 -50 -540 -24
-198 -69 -519 -75 -540 -3 -8 -9 -44 -14 -80 -14 -90 -27 -160 -51 -264 -11
-50 -20 -105 -20 -124 0 -18 -4 -41 -9 -51 -11 -20 -51 -204 -104 -476 -9 -44
-28 -132 -42 -195 -69 -306 -88 -417 -116 -683 -10 -104 -8 -117 20 -117 39 0
58 40 65 135 13 174 28 282 62 450 19 94 50 247 69 340 19 94 43 204 54 245
10 41 27 116 36 165 9 50 23 119 31 155 8 36 21 102 28 147 8 45 19 99 25 120
5 21 14 74 21 118 6 44 15 94 20 110 6 17 14 68 19 115 6 47 17 135 26 195 9
61 18 135 20 165 2 30 8 84 14 120 6 36 16 133 22 215 6 83 14 200 19 260 5
61 13 171 19 245 14 177 20 302 26 545 3 110 8 236 11 280 4 44 8 130 9 190 1
61 5 182 9 270 14 335 22 1501 11 1695 -2 36 -6 186 -9 334 -4 177 -10 273
-17 282 -17 21 -38 17 -49 -10z"/>
<path d="M17900 7051 c0 -11 59 -26 67 -18 3 3 2 10 -2 16 -8 13 -65 15 -65 2z"/>
<path d="M18054 7049 c-11 -19 18 -30 61 -23 46 7 49 9 40 23 -8 14 -92 14
-101 0z"/>
<path d="M17980 7040 c0 -5 5 -10 10 -10 6 0 10 5 10 10 0 6 -4 10 -10 10 -5
0 -10 -4 -10 -10z"/>
<path d="M18232 7033 c2 -12 12 -18 28 -18 36 0 33 29 -3 33 -23 3 -28 0 -25
-15z"/>
<path d="M18460 7030 c-21 -13 -7 -22 46 -28 32 -3 49 -1 54 8 7 11 12 11 23
2 8 -7 50 -14 93 -17 43 -2 103 -9 133 -15 29 -5 58 -7 64 -3 15 9 67 7 167
-6 47 -7 102 -12 124 -11 21 1 63 -5 92 -11 40 -9 58 -9 66 -1 7 7 17 8 28 2
16 -9 55 -12 270 -25 41 -2 102 -6 135 -9 199 -16 266 -19 438 -21 106 -2 216
-6 244 -10 67 -9 83 2 83 60 0 30 -5 45 -16 49 -29 11 -85 6 -117 -11 -27 -14
-65 -17 -237 -17 -308 -1 -739 16 -761 29 -4 3 -94 7 -201 10 -207 6 -273 11
-301 27 -13 6 -23 6 -33 -3 -11 -9 -32 -9 -91 0 -65 10 -79 9 -93 -4 -10 -9
-20 -11 -26 -5 -13 13 -166 21 -184 10z"/>
<path d="M15691 6603 c-45 -42 -146 -248 -161 -328 -41 -218 76 -393 309 -466
93 -28 166 -27 261 7 44 15 83 25 86 22 3 -4 -6 -64 -20 -135 -31 -159 -44
-248 -51 -338 -2 -38 -8 -109 -11 -157 -7 -86 -7 -88 15 -88 28 0 56 61 66
140 11 94 86 471 111 560 34 122 76 218 148 339 46 79 69 106 117 137 48 30
58 68 28 100 -28 30 -52 30 -98 2 -85 -53 -190 -221 -240 -383 -12 -38 -28
-79 -35 -90 -18 -28 -119 -49 -231 -50 -82 0 -96 3 -157 33 -81 39 -162 123
-179 185 -9 31 -9 62 -1 120 12 83 39 145 111 256 46 72 52 110 19 141 -29 27
-52 25 -87 -7z"/>
<path d="M11808 6336 c-38 -13 -93 -38 -123 -55 -53 -30 -59 -31 -158 -29 -85
3 -107 0 -130 -15 -39 -25 -33 -58 13 -73 19 -6 36 -16 38 -22 2 -6 -32 -46
-76 -89 -98 -98 -148 -165 -217 -296 -74 -139 -97 -207 -97 -287 -1 -86 39
-186 91 -233 142 -129 446 -154 659 -56 35 16 65 29 67 29 3 0 42 24 87 54
175 113 303 272 328 407 24 127 4 223 -68 320 -68 90 -163 148 -302 184 -98
26 -114 46 -56 70 19 8 46 15 59 15 53 0 62 71 11 90 -36 14 -51 12 -126 -14z
m7 -212 c157 -50 284 -135 325 -215 31 -60 44 -155 31 -221 -37 -174 -169
-315 -395 -422 -102 -48 -288 -65 -394 -36 -158 42 -212 102 -213 237 -1 67 3
88 29 148 89 202 166 301 372 479 l65 56 65 -5 c36 -2 88 -12 115 -21z m411
-560 c-4 -9 -9 -15 -11 -12 -3 3 -3 13 1 22 4 9 9 15 11 12 3 -3 3 -13 -1 -22z"/>
<path d="M4607 6289 c-74 -17 -122 -57 -180 -150 -41 -67 -131 -313 -200 -549
-121 -414 -152 -560 -143 -670 4 -41 11 -91 16 -110 19 -71 112 -130 204 -130
88 1 221 47 320 111 33 22 63 39 68 39 24 0 20 -77 -13 -240 -16 -81 -52 -446
-64 -650 -10 -165 -16 -236 -31 -374 -15 -138 -13 -186 7 -186 5 0 23 7 39 15
28 15 30 19 30 78 0 34 4 89 9 122 6 33 12 96 15 140 13 170 16 203 26 310 30
300 72 582 110 742 11 45 20 97 20 116 0 73 100 334 202 527 95 180 185 293
261 325 98 41 110 52 87 80 -33 40 -162 2 -258 -76 -139 -115 -300 -426 -363
-704 -11 -49 -25 -102 -30 -116 -10 -26 -58 -52 -189 -104 -25 -9 -56 -22 -70
-27 -14 -6 -61 -12 -105 -15 -94 -5 -136 12 -167 68 -16 29 -18 47 -13 114 6
79 35 231 59 315 8 25 21 70 29 100 37 129 81 269 103 325 137 356 181 441
246 477 29 16 33 16 80 -2 73 -27 107 -54 166 -131 55 -72 83 -85 102 -49 8
16 4 31 -21 77 -58 105 -81 134 -131 159 -39 20 -160 56 -178 53 -3 -1 -22 -5
-43 -10z"/>
<path d="M5007 5115 c-65 -54 -95 -91 -82 -103 3 -4 19 1 35 10 20 11 30 13
33 5 2 -7 21 -1 49 16 49 29 94 88 84 112 -11 29 -52 15 -119 -40z"/>
<path d="M11724 3938 c-9 -18 -21 -64 -25 -103 -12 -100 -24 -166 -48 -278
-11 -53 -25 -146 -31 -205 -14 -134 -21 -1016 -10 -1177 15 -210 19 -259 30
-307 5 -27 15 -69 20 -95 14 -64 24 -72 56 -42 18 17 24 31 20 49 -6 32 -25
106 -38 148 -6 22 -6 43 2 68 9 27 9 38 -1 50 -8 10 -10 37 -5 95 4 47 2 96
-4 119 -13 48 -16 187 -6 290 7 66 12 212 15 390 1 30 -2 79 -5 108 -4 31 -2
63 4 75 13 28 32 204 32 300 0 40 7 97 15 127 8 30 20 82 26 115 5 33 21 91
35 128 31 87 31 127 1 155 -34 32 -63 28 -83 -10z"/>
<path d="M15927 3740 c-32 -25 -33 -29 -52 -165 -8 -60 -21 -146 -30 -190 -13
-73 -24 -201 -40 -500 -3 -60 -10 -137 -15 -170 -15 -97 -41 -452 -41 -550 1
-133 3 -149 25 -153 16 -3 18 0 12 25 -12 49 -14 88 -5 99 5 6 9 24 9 40 1 47
6 118 10 129 2 6 4 21 6 35 1 14 7 50 13 80 6 30 15 93 21 140 5 47 15 123 21
170 6 47 12 126 14 175 3 77 10 153 29 325 6 59 65 333 81 375 19 53 19 105
-1 133 -19 27 -25 27 -57 2z"/>
</g>
</svg>
