<?xml version="1.0" standalone="no"?>
<!DOCTYPE svg PUBLIC "-//W3C//DTD SVG 20010904//EN"
 "http://www.w3.org/TR/2001/REC-SVG-20010904/DTD/svg10.dtd">
<svg version="1.0" xmlns="http://www.w3.org/2000/svg"
 width="2448.000000pt" height="3264.000000pt" viewBox="0 0 2448.000000 3264.000000"
 preserveAspectRatio="xMidYMid meet">
<metadata>
Created by potrace 1.12, written by Peter Selinger 2001-2015
</metadata>
<g transform="translate(0.000000,3264.000000) scale(0.100000,-0.100000)"
fill="#000000" stroke="none">
<path d="M7318 32413 c7 -3 16 -2 19 1 4 3 -2 6 -13 5 -11 0 -14 -3 -6 -6z"/>
<path d="M5631 31614 c6 -8 19 -14 29 -14 10 0 23 6 29 14 9 11 4 13 -29 13
-33 0 -38 -2 -29 -13z"/>
<path d="M9755 29068 c-2 -7 -10 -48 -19 -90 -17 -87 -53 -209 -102 -345 -19
-51 -34 -97 -34 -102 0 -6 -6 -25 -14 -43 -8 -18 -25 -60 -37 -93 -12 -33 -28
-73 -35 -90 -20 -49 -44 -150 -44 -189 0 -49 32 -109 72 -138 53 -37 158 -37
276 1 83 26 245 60 498 105 127 22 178 53 150 91 -11 15 -22 15 -156 -5 -126
-19 -232 -39 -370 -70 -19 -4 -80 -20 -135 -35 -55 -15 -126 -28 -158 -29 -50
-1 -61 2 -78 23 -38 47 -31 82 101 451 69 193 139 413 151 474 7 39 6 54 -6
73 -16 25 -53 31 -60 11z"/>
<path d="M15930 28950 c-37 -37 -21 -100 25 -100 31 0 45 19 45 60 0 58 -33
77 -70 40z"/>
<path d="M17256 28928 c-15 -24 -59 -178 -96 -338 -13 -52 -38 -159 -57 -238
-36 -152 -36 -190 3 -233 45 -50 199 11 349 139 27 23 56 42 63 42 22 0 61
-103 71 -190 18 -138 41 -194 72 -174 20 12 4 235 -22 314 -30 91 -65 157 -88
165 -14 4 -43 -11 -103 -55 -155 -113 -215 -151 -251 -157 -28 -4 -38 -2 -43
10 -3 9 10 74 30 144 20 70 45 169 57 218 12 50 37 137 55 195 39 122 41 141
16 163 -25 23 -39 21 -56 -5z"/>
<path d="M10990 28874 c-20 -23 -1 -66 33 -75 57 -15 75 16 36 65 -23 29 -50
34 -69 10z"/>
<path d="M12286 28838 c-15 -23 -36 -97 -56 -198 -6 -30 -22 -111 -35 -179
-14 -69 -43 -185 -66 -259 l-42 -134 20 -26 c10 -14 24 -27 30 -29 21 -7 86
77 154 201 71 128 115 183 134 165 17 -17 9 -180 -14 -288 -20 -96 -21 -105
-6 -128 9 -13 22 -23 28 -20 19 6 67 162 78 253 12 96 -1 235 -25 283 -20 39
-51 48 -78 24 -12 -10 -50 -63 -86 -118 -84 -129 -86 -130 -79 -73 13 95 89
393 113 440 19 37 17 72 -4 91 -26 23 -49 21 -66 -5z"/>
<path d="M12969 28833 c-11 -12 -15 -69 -19 -227 l-5 -211 -67 -11 c-75 -12
-98 -26 -98 -59 0 -35 33 -59 72 -51 82 17 83 16 79 -39 -8 -109 -6 -168 7
-172 18 -7 38 50 52 149 6 48 17 92 24 97 15 12 79 19 188 20 89 1 124 15 112
45 -10 26 -56 36 -169 36 -102 0 -115 2 -116 18 -3 40 3 164 12 271 8 101 7
116 -7 133 -21 22 -47 23 -65 1z"/>
<path d="M16294 28835 c-21 -15 -31 -109 -33 -301 -1 -68 -5 -105 -13 -112 -7
-5 -40 -15 -73 -21 -75 -15 -108 -27 -168 -64 -50 -31 -66 -62 -48 -95 21 -40
46 -36 127 17 69 45 146 72 161 57 3 -3 1 -43 -5 -88 -17 -117 -16 -208 2
-208 21 0 34 42 59 185 l22 130 48 24 c67 33 62 71 -9 71 -23 0 -24 3 -23 68
0 37 6 113 12 169 7 56 9 115 4 132 -10 39 -37 55 -63 36z"/>
<path d="M10732 28648 c-12 -16 -25 -538 -13 -557 16 -25 39 -3 50 47 15 72
29 208 36 358 6 114 4 133 -10 147 -20 20 -49 22 -63 5z"/>
<path d="M11476 28630 c-63 -41 -184 -172 -224 -243 -78 -135 -99 -236 -68
-312 31 -74 99 -86 196 -34 67 35 122 92 177 181 20 32 39 58 43 58 15 0 20
-48 20 -196 0 -186 -21 -348 -61 -479 -37 -119 -55 -156 -105 -213 -36 -42
-39 -44 -81 -37 -39 6 -43 4 -43 -15 0 -27 43 -70 70 -70 76 0 171 124 228
295 51 153 65 264 66 505 1 288 -10 426 -37 451 -24 22 -56 25 -61 7 -2 -7
-12 -47 -21 -88 -22 -94 -60 -170 -121 -239 -91 -103 -183 -140 -205 -84 -21
57 55 220 158 339 47 54 72 72 163 114 19 9 25 47 10 66 -17 20 -70 17 -104
-6z"/>
<path d="M14538 28553 c-154 -31 -327 -120 -375 -192 -18 -26 -23 -48 -23 -98
0 -35 4 -72 9 -82 6 -10 36 -37 68 -61 84 -64 123 -102 123 -121 0 -27 -65
-75 -159 -116 -74 -32 -95 -37 -156 -36 -97 2 -119 -23 -73 -82 20 -25 26 -27
78 -23 42 3 82 16 151 50 188 92 234 140 226 233 -4 44 -10 54 -52 92 -26 24
-65 55 -88 71 -79 52 -73 105 18 172 59 43 118 71 222 106 156 52 233 30 233
-68 0 -60 -23 -206 -56 -363 -36 -167 -40 -219 -20 -250 23 -35 49 -31 88 14
36 43 113 177 144 253 10 27 22 48 27 48 11 0 8 -31 -13 -135 -25 -122 -25
-176 -1 -224 53 -103 201 -70 351 78 71 71 150 182 173 246 8 22 32 81 52 132
36 87 41 128 13 118 -7 -3 -40 -56 -72 -118 -105 -199 -190 -308 -301 -383
-41 -28 -103 -45 -135 -37 -30 8 -30 39 1 187 16 77 32 177 35 221 6 71 4 83
-14 105 -30 36 -46 21 -93 -85 -55 -126 -58 -132 -105 -206 -73 -115 -83 -108
-49 32 29 122 55 285 55 349 0 136 -117 207 -282 173z"/>
<path d="M15700 28429 c-6 -11 -18 -83 -25 -159 -8 -76 -24 -195 -35 -264 -22
-133 -20 -166 10 -166 29 0 49 77 110 421 23 135 24 161 8 177 -19 19 -56 14
-68 -9z"/>
<path d="M16725 28441 c-76 -19 -163 -95 -197 -171 -43 -98 -3 -313 72 -385
26 -25 34 -27 87 -23 65 4 120 29 195 86 89 67 90 141 1 84 -124 -80 -133 -85
-180 -84 -58 2 -79 20 -99 91 -43 147 29 280 161 297 28 4 56 11 63 17 15 12
16 69 0 85 -13 13 -56 14 -103 3z"/>
<path d="M9722 27099 c-57 -4 -113 -11 -125 -17 -12 -6 -44 -18 -72 -27 -66
-22 -101 -44 -157 -102 -117 -122 -168 -237 -191 -438 l-13 -110 -29 0 c-17 1
-71 4 -122 8 -76 6 -95 4 -107 -9 -18 -17 -20 -42 -6 -64 7 -12 42 -15 187
-16 98 -1 201 -7 228 -14 71 -16 138 -27 235 -40 47 -5 128 -17 180 -25 52 -9
141 -17 197 -18 84 -2 105 1 119 15 25 25 11 48 -29 48 -40 0 -283 32 -407 54
-47 8 -145 22 -218 31 -74 8 -138 18 -143 21 -36 22 29 313 102 457 32 63 38
68 61 56 17 -9 26 -5 57 24 61 59 103 74 242 87 147 13 186 7 266 -45 38 -25
57 -47 72 -80 14 -32 26 -45 40 -45 13 0 27 -12 36 -31 12 -22 22 -29 38 -27
31 4 34 51 8 104 -25 50 -141 146 -215 179 -63 28 -104 32 -234 24z"/>
<path d="M10745 27076 c-14 -14 -25 -36 -25 -49 0 -13 -15 -79 -34 -148 -18
-68 -43 -173 -54 -234 -12 -60 -33 -168 -46 -240 -14 -71 -34 -157 -44 -190
-11 -33 -28 -92 -38 -131 -17 -68 -17 -73 0 -98 23 -36 48 -30 59 14 5 19 25
88 44 153 19 64 54 220 79 345 24 125 63 303 86 395 32 125 40 172 32 184 -17
27 -32 26 -59 -1z"/>
<path d="M11189 26771 c-20 -16 -22 -23 -13 -38 6 -10 23 -19 37 -21 21 -3 28
2 33 22 6 25 -9 56 -26 56 -4 0 -18 -9 -31 -19z"/>
<path d="M11735 26522 c-53 -22 -77 -39 -103 -73 -89 -116 -127 -296 -151
-719 -6 -97 -7 -105 -26 -103 -347 34 -812 26 -1485 -28 -201 -15 -570 -64
-800 -104 -106 -19 -338 -75 -490 -120 -63 -18 -131 -36 -150 -40 -65 -13
-244 -77 -390 -140 -174 -74 -238 -106 -308 -153 -64 -42 -70 -40 -143 45
-160 183 -394 324 -676 407 -259 76 -436 105 -683 111 -91 3 -196 10 -235 17
-44 8 -151 13 -290 12 -240 -2 -397 -20 -590 -70 -177 -46 -371 -152 -480
-263 -27 -28 -53 -51 -58 -51 -5 0 -30 19 -55 41 -30 26 -115 74 -232 131
-102 49 -244 126 -317 170 -93 56 -138 78 -152 73 -28 -9 -35 -36 -14 -56 30
-29 232 -143 432 -244 182 -91 281 -159 281 -192 0 -43 -99 -122 -153 -123
-10 0 -42 20 -70 45 -81 71 -204 114 -623 219 -367 92 -556 123 -1134 186
-208 23 -255 30 -565 95 -121 25 -231 44 -245 43 -34 -4 -39 -41 -8 -62 27
-17 64 -27 248 -62 74 -14 155 -30 180 -35 112 -24 230 -42 425 -64 316 -37
366 -43 545 -71 169 -27 461 -89 579 -123 36 -11 102 -29 146 -41 249 -65 411
-126 403 -152 -4 -12 -10 -14 -113 -43 -108 -31 -369 -116 -432 -142 -45 -18
-63 -30 -63 -43 0 -18 25 -50 39 -50 4 0 79 25 167 56 289 101 488 164 517
164 26 0 29 -3 24 -27 -3 -16 -17 -62 -32 -103 -24 -66 -28 -90 -28 -195 -1
-104 3 -131 26 -200 71 -215 236 -380 503 -506 174 -82 377 -130 729 -171 245
-28 600 -30 780 -5 299 42 699 149 872 234 40 19 79 33 86 30 7 -2 19 -29 26
-58 16 -64 124 -344 183 -478 48 -108 72 -141 99 -141 32 0 23 42 -50 223
-136 338 -184 488 -160 503 4 2 61 -6 126 -20 126 -25 237 -39 477 -57 81 -6
162 -15 180 -20 62 -18 95 -5 77 29 -17 32 -65 41 -301 57 -118 8 -246 19
-285 25 -38 5 -100 12 -138 16 -37 3 -69 10 -72 14 -2 4 33 39 80 78 134 114
200 246 212 425 6 93 -11 183 -48 259 -32 63 -28 70 74 120 119 60 384 175
467 203 36 12 144 44 240 70 96 26 204 55 240 65 180 51 310 76 690 130 288
40 259 37 570 60 863 62 1210 53 1890 -50 365 -55 757 -161 990 -267 103 -47
229 -122 240 -143 13 -24 39 -33 56 -19 27 22 15 55 -35 102 -114 107 -508
259 -881 341 -171 37 -530 95 -687 109 -111 11 -137 16 -134 28 11 39 21 142
30 319 13 223 33 324 86 430 43 85 56 92 180 92 81 0 98 -3 174 -36 83 -35
141 -77 141 -103 0 -29 -138 -77 -315 -108 -112 -20 -135 -29 -135 -55 0 -30
34 -38 127 -29 103 10 226 41 321 81 116 48 121 81 25 174 -93 91 -208 148
-307 152 -59 2 -82 -2 -141 -26z m-5889 -951 c-3 -4 -40 -14 -83 -21 -92 -15
-153 -37 -153 -56 0 -21 37 -26 115 -15 39 6 120 17 182 25 158 22 442 29 582
16 274 -28 558 -104 766 -205 152 -74 347 -224 409 -314 27 -39 28 -42 12 -59
-20 -23 -21 -61 0 -69 8 -3 26 0 40 7 13 8 27 11 30 7 3 -3 17 -35 30 -72 44
-121 29 -267 -40 -402 -97 -188 -328 -331 -721 -446 -451 -132 -805 -168
-1235 -126 -401 39 -632 90 -810 178 -375 186 -529 458 -450 789 32 132 93
235 151 254 9 3 12 19 11 48 -3 43 -1 46 74 118 77 74 193 157 291 206 128 64
345 116 583 139 76 8 221 7 216 -2z"/>
<path d="M6385 25186 c-60 -23 -91 -45 -146 -103 -67 -70 -83 -99 -124 -218
l-30 -89 -69 -11 c-77 -13 -103 -33 -85 -67 9 -16 17 -19 47 -14 21 4 48 8 62
9 28 2 28 7 15 -164 -8 -102 3 -162 32 -173 33 -13 43 13 43 109 0 50 3 126 6
168 l7 77 167 0 c168 0 230 10 230 36 0 26 -40 34 -184 34 -79 0 -151 3 -160
6 -61 23 80 264 188 322 45 24 150 22 201 -4 22 -12 46 -19 53 -17 18 7 14 48
-7 67 -45 40 -179 58 -246 32z"/>
<path d="M7035 25042 c-119 -41 -207 -155 -284 -369 l-28 -78 -109 0 c-60 0
-115 -4 -121 -8 -16 -10 -17 -49 -1 -65 8 -8 45 -12 100 -12 69 0 90 -3 94
-15 3 -8 -4 -47 -16 -88 -24 -81 -24 -115 2 -131 29 -18 46 11 57 98 6 43 17
90 24 105 l12 26 165 6 c200 8 249 23 203 60 -12 11 -49 13 -160 11 -155 -4
-179 3 -167 41 13 41 127 243 153 270 14 16 45 40 68 54 35 20 53 24 105 22
73 -4 88 3 88 36 0 51 -91 69 -185 37z"/>
<path d="M5485 24973 c-148 -20 -341 -148 -399 -265 -59 -119 -11 -232 123
-290 62 -27 128 -32 240 -19 172 19 305 90 378 201 24 35 46 78 49 95 16 86
-62 198 -158 228 -95 30 -190 57 -197 56 -3 -1 -19 -4 -36 -6z m170 -108 c71
-19 116 -51 140 -101 24 -51 8 -99 -53 -161 -190 -194 -603 -182 -602 17 1 44
15 69 70 127 74 75 128 107 185 109 27 1 66 6 85 12 52 15 109 14 175 -3z"/>
<path d="M9165 26290 c-6 -10 -24 -218 -28 -329 -2 -41 2 -56 15 -64 40 -26
56 31 65 246 l6 157 -26 0 c-14 0 -29 -5 -32 -10z"/>
<path d="M11027 26275 c-11 -10 -17 -48 -21 -132 -3 -65 -13 -159 -23 -210
-18 -101 -11 -127 31 -121 17 2 25 19 43 88 12 47 22 108 23 135 0 28 7 86 15
130 12 70 12 83 -1 102 -17 26 -46 30 -67 8z"/>
<path d="M13006 25488 c-34 -19 -9 -68 42 -81 50 -12 547 -318 547 -337 0 -20
-43 -29 -230 -45 -165 -14 -245 -23 -410 -45 -44 -6 -118 -15 -165 -21 -125
-14 -151 -20 -157 -35 -17 -46 68 -56 251 -29 108 15 470 60 574 70 34 3 62 2
62 -2 0 -4 -51 -35 -112 -68 -281 -150 -478 -314 -665 -555 -100 -129 -172
-289 -194 -432 -33 -209 59 -463 220 -610 168 -153 361 -251 662 -333 74 -20
138 -41 143 -46 12 -11 -207 -116 -340 -162 -146 -51 -308 -75 -659 -98 -446
-29 -1333 12 -1735 81 -30 5 -100 17 -155 26 -202 32 -473 91 -770 168 -93 24
-277 71 -409 105 -131 33 -277 72 -325 86 -47 14 -111 33 -141 41 -244 68
-675 236 -900 352 -216 111 -317 194 -394 320 -39 64 -84 97 -122 88 -30 -8
-31 -27 -3 -52 12 -10 33 -37 47 -59 40 -65 121 -153 181 -199 131 -101 365
-219 653 -330 388 -149 570 -203 1463 -431 616 -157 1068 -225 1670 -250 77
-4 146 -8 154 -11 28 -9 623 -5 749 6 70 5 186 15 257 21 72 6 171 17 220 25
166 28 384 112 540 210 85 52 69 52 264 10 311 -66 459 -79 881 -80 373 0 523
10 715 50 345 71 729 246 906 411 169 158 268 392 269 634 0 297 -107 565
-297 739 -273 251 -691 412 -1228 474 -71 9 -155 22 -185 31 -121 32 -357 46
-580 34 -211 -12 -379 -42 -504 -90 -64 -24 -69 -24 -81 3 -12 26 -232 177
-375 257 -58 33 -127 75 -155 93 -91 63 -148 84 -179 66z m1629 -389 c89 -9
114 -15 136 -33 22 -19 43 -24 118 -29 82 -5 103 -11 201 -56 130 -59 152 -75
197 -141 36 -54 65 -64 83 -30 22 41 -44 129 -132 177 l-33 18 29 3 c34 4 157
-22 246 -53 36 -12 110 -37 165 -55 155 -50 366 -157 483 -245 142 -107 221
-197 282 -320 165 -338 137 -710 -74 -976 -135 -170 -495 -353 -856 -434 -325
-73 -837 -94 -1245 -50 -240 25 -483 74 -506 101 -6 8 -21 11 -38 8 -16 -4
-82 10 -166 35 -373 108 -543 196 -711 365 -109 110 -153 192 -179 331 -28
146 -11 250 66 412 66 143 136 239 264 368 101 102 171 157 391 307 170 117
311 178 549 237 261 64 498 83 730 60z"/>
<path d="M13743 24306 c-91 -34 -166 -83 -243 -156 -118 -113 -190 -258 -176
-353 25 -163 226 -246 454 -189 295 75 471 236 489 448 7 91 -6 132 -61 182
-64 59 -129 79 -277 86 -115 6 -129 4 -186 -18z m362 -100 c69 -41 87 -76 82
-157 -8 -122 -85 -227 -216 -294 -25 -12 -84 -36 -131 -51 -73 -25 -100 -29
-190 -29 -123 1 -173 20 -215 84 -43 64 -42 95 5 188 49 99 126 180 226 241
74 44 93 49 123 30 14 -9 30 -8 72 5 81 25 184 18 244 -17z"/>
<path d="M15065 24202 c-87 -30 -165 -91 -350 -274 -98 -98 -185 -178 -192
-178 -10 0 -11 8 -7 28 9 38 37 124 68 210 20 56 24 77 16 92 -12 23 -52 27
-68 7 -10 -11 -84 -257 -106 -350 -10 -41 0 -63 33 -77 47 -19 89 9 255 170
187 181 252 234 341 276 78 38 106 42 130 17 31 -30 38 -67 37 -186 -1 -133
-20 -244 -63 -360 -33 -89 -36 -112 -14 -121 27 -10 44 5 74 68 64 136 98 315
88 471 -9 155 -55 225 -145 225 -26 -1 -69 -8 -97 -18z"/>
<path d="M9154 22386 c-38 -7 -80 -19 -91 -26 -58 -37 -131 -210 -144 -345 -5
-49 -9 -91 -9 -92 -1 -11 -49 2 -111 28 -146 61 -180 62 -187 6 -4 -35 35 -59
136 -81 42 -10 95 -23 117 -29 l39 -12 14 -95 c15 -110 29 -144 59 -148 37 -5
46 28 28 103 -8 37 -15 78 -15 93 l0 27 273 1 c265 1 374 11 404 35 8 8 10 16
5 21 -5 5 -151 10 -328 11 -176 1 -327 6 -336 10 -9 5 -19 15 -22 24 -9 22 11
137 41 237 36 119 64 149 154 165 141 24 308 4 408 -49 33 -18 87 -57 120 -86
32 -30 65 -54 73 -54 21 0 38 21 38 47 0 43 -215 171 -333 198 -94 22 -249 27
-333 11z"/>
<path d="M10444 22320 c-30 -12 -55 -96 -159 -542 -39 -166 -41 -211 -13 -216
32 -6 56 59 119 313 33 137 73 286 88 330 15 44 26 86 24 93 -7 20 -36 30 -59
22z"/>
<path d="M10767 22243 c-17 -17 -3 -83 17 -83 13 0 56 41 56 52 0 25 -56 48
-73 31z"/>
<path d="M11356 22104 c-57 -18 -89 -36 -134 -78 -69 -63 -145 -228 -172 -371
-15 -81 -51 -396 -53 -465 -2 -54 -2 -55 29 -58 58 -6 67 17 75 205 11 228 30
371 61 446 13 33 20 33 113 -6 69 -29 239 -57 346 -57 82 0 150 24 168 58 26
49 -15 138 -98 215 -109 100 -235 142 -335 111z m155 -66 c99 -33 232 -159
215 -203 -2 -7 -30 -18 -60 -25 -99 -20 -398 19 -446 58 -19 17 -19 18 14 71
58 93 174 134 277 99z"/>
<path d="M10642 21883 c-6 -12 -5 -46 4 -93 7 -41 13 -99 14 -128 0 -62 13
-92 40 -92 30 0 50 50 49 122 -1 110 -14 179 -34 194 -26 19 -63 17 -73 -3z"/>
<path d="M6140 20400 c-183 -33 -416 -225 -519 -427 -30 -59 -27 -101 9 -150
48 -65 85 -78 220 -78 99 0 127 4 205 29 50 16 108 37 130 46 22 10 56 24 75
31 130 48 320 193 320 244 0 13 -29 49 -75 94 -41 40 -75 77 -75 81 0 4 7 10
15 14 23 8 18 44 -9 61 -71 47 -205 72 -296 55z m76 -61 c3 -6 27 -24 53 -40
64 -41 126 -103 172 -172 31 -47 37 -62 29 -77 -20 -37 -109 -88 -305 -175
-128 -57 -324 -83 -398 -51 -36 15 -97 79 -97 102 0 24 39 94 86 155 57 75
172 172 245 210 95 47 200 71 215 48z"/>
<path d="M10029 20153 c-81 -87 -125 -178 -168 -345 -54 -211 -64 -349 -28
-385 26 -26 37 -5 37 68 0 107 70 368 131 491 16 31 51 79 79 107 52 52 59 68
38 89 -22 22 -53 13 -89 -25z"/>
<path d="M1175 19990 c-3 -6 -4 -19 0 -29 6 -21 131 -117 254 -196 98 -64 472
-264 691 -372 575 -281 735 -371 910 -513 75 -61 122 -85 144 -77 27 11 18 45
-18 69 -19 13 -72 53 -118 90 -144 114 -282 194 -618 360 -179 87 -332 163
-340 167 -8 4 -58 30 -110 56 -317 160 -514 275 -621 361 -109 87 -158 111
-174 84z"/>
<path d="M9275 19931 c-77 -22 -147 -57 -194 -98 -150 -128 -80 -418 124 -514
49 -24 73 -29 133 -29 69 0 142 19 142 37 0 23 -29 33 -95 33 -141 0 -228 49
-284 162 -94 187 42 338 304 338 88 0 112 11 101 48 -14 44 -122 55 -231 23z"/>
<path d="M12143 19944 c-21 -9 -94 -112 -142 -201 -26 -48 -69 -128 -96 -178
-26 -49 -56 -102 -67 -117 -30 -44 -56 -109 -51 -129 7 -27 35 -24 64 7 26 28
166 114 185 114 6 0 17 -14 24 -30 35 -84 195 -162 382 -185 67 -8 98 0 98 25
0 26 -18 34 -151 70 -63 17 -141 44 -174 60 -67 32 -114 75 -99 89 29 27 289
102 406 116 52 7 74 30 63 65 -9 27 -36 33 -118 25 -176 -17 -330 -65 -381
-120 -22 -24 -145 -79 -155 -70 -3 3 3 18 12 33 9 15 45 73 80 130 34 57 88
135 120 173 31 39 57 74 57 78 0 11 -30 51 -38 50 -4 0 -12 -3 -19 -5z"/>
<path d="M10495 19795 c-30 -29 -32 -56 -6 -79 18 -16 20 -16 34 5 14 19 22
21 62 17 49 -6 116 -44 139 -80 29 -44 41 -112 27 -147 -17 -39 -51 -59 -174
-105 -164 -61 -286 -49 -295 28 -7 58 42 130 169 249 23 21 24 40 3 61 -26 26
-48 18 -103 -37 -69 -69 -108 -128 -126 -190 -59 -200 80 -283 335 -198 125
41 187 76 227 129 28 36 33 52 33 96 0 116 -68 215 -174 255 -76 28 -120 27
-151 -4z"/>
<path d="M11164 19650 c-45 -15 -71 -31 -98 -60 -32 -35 -36 -46 -36 -93 0
-29 9 -70 19 -92 20 -44 81 -104 133 -131 42 -22 164 -30 212 -14 75 25 26 70
-78 70 -61 0 -114 20 -161 62 -58 51 -71 88 -43 124 29 36 76 54 141 54 42 0
58 5 73 21 17 19 17 23 3 47 -12 22 -22 27 -59 29 -25 1 -73 -7 -106 -17z"/>
<path d="M3050 19447 c0 -40 48 -91 255 -271 258 -223 415 -376 415 -402 0
-23 -31 -54 -75 -77 -44 -22 -163 -51 -390 -97 -422 -86 -678 -151 -732 -186
-26 -16 -30 -55 -9 -73 11 -10 22 -9 47 5 40 20 126 45 289 84 120 28 167 38
477 100 287 58 388 92 437 150 34 41 34 84 -2 141 -35 54 -266 279 -417 404
-129 108 -142 122 -147 155 -2 17 -19 36 -52 58 -59 39 -96 43 -96 9z"/>
<path d="M17402 19293 c-45 -37 -53 -333 -17 -603 19 -139 28 -170 50 -170 24
0 27 39 16 193 -14 187 -14 372 0 477 10 76 10 84 -8 102 -19 18 -20 18 -41 1z"/>
<path d="M5290 19259 c-347 -21 -630 -99 -972 -270 -244 -122 -402 -244 -527
-409 -72 -95 -93 -131 -121 -211 -39 -111 -50 -170 -56 -299 -15 -311 106
-623 328 -837 155 -150 457 -322 708 -403 123 -40 444 -122 610 -156 47 -9 91
-23 99 -30 12 -11 10 -15 -15 -25 -18 -7 -24 -13 -16 -16 8 -3 19 0 25 6 18
18 56 12 71 -11 15 -25 40 -114 51 -188 11 -76 14 -81 43 -78 26 3 27 5 25 64
-2 34 -11 98 -22 143 -10 45 -16 83 -12 85 3 2 29 0 56 -5 198 -33 874 -52
1071 -29 282 32 395 51 597 101 396 100 710 244 957 441 162 129 249 245 297
394 58 184 32 446 -63 611 -13 23 -24 44 -24 47 0 11 119 37 310 66 113 17
241 37 285 45 190 34 598 79 870 95 94 6 213 15 265 20 117 11 1091 3 1330
-10 692 -41 1103 -111 1697 -291 141 -43 316 -106 448 -163 17 -8 82 -35 145
-61 63 -26 144 -63 180 -83 76 -42 75 -41 68 -47 -4 -5 -273 -27 -688 -56 -85
-6 -159 -15 -165 -20 -6 -6 -3 -16 8 -27 15 -14 40 -18 145 -21 123 -3 368 10
542 29 47 6 159 14 250 20 227 14 310 31 358 73 49 44 17 112 -91 193 -67 51
-107 74 -312 186 -60 34 -139 81 -174 105 -69 48 -104 53 -109 15 -2 -13 2
-29 8 -37 15 -18 163 -105 302 -179 188 -98 318 -189 318 -222 0 -18 -56 -34
-157 -44 -134 -15 -140 -14 -155 17 -8 16 -24 30 -38 33 -14 3 -58 24 -97 48
-214 127 -714 308 -1148 416 -132 32 -483 101 -615 120 -317 46 -777 74 -1351
82 -401 5 -515 3 -839 -15 -483 -27 -659 -45 -1030 -106 -80 -13 -215 -33
-300 -45 -85 -12 -185 -33 -221 -46 -37 -13 -68 -24 -71 -24 -2 0 -32 36 -67
79 -195 247 -526 489 -891 649 -168 74 -489 180 -605 201 -124 22 -261 41
-287 41 -31 0 -47 -18 -27 -31 22 -13 -5 -11 -143 11 -354 57 -740 79 -1058
59z m693 -79 c232 -22 333 -37 557 -81 256 -50 417 -107 491 -173 43 -40 41
-39 63 -30 45 17 -13 83 -118 133 -97 47 -202 81 -351 116 -201 48 -134 44
106 -6 284 -58 721 -231 978 -387 227 -137 457 -340 578 -509 25 -35 51 -63
60 -63 8 0 13 -8 12 -17 -2 -10 9 -49 24 -88 47 -123 58 -168 64 -267 10 -171
-19 -286 -110 -425 -43 -68 -152 -193 -167 -193 -5 0 -33 20 -63 45 -68 55
-94 57 -167 11 -35 -22 -59 -31 -64 -25 -14 13 -52 11 -65 -4 -18 -22 -24 -73
-12 -96 21 -38 64 -27 127 30 50 45 61 51 90 46 39 -7 84 -34 84 -53 0 -32
-299 -193 -495 -266 -159 -60 -401 -126 -585 -161 -282 -54 -378 -62 -770 -62
-538 0 -726 20 -1155 125 -268 66 -580 160 -655 198 -22 12 -33 24 -30 33 2 8
6 100 8 205 3 167 1 193 -13 208 -21 20 -59 21 -75 1 -11 -13 -11 -47 -1 -178
7 -89 17 -175 22 -191 5 -16 7 -31 5 -33 -5 -5 -91 46 -178 104 -92 61 -240
203 -291 277 -190 277 -244 579 -160 891 77 285 338 517 808 717 219 93 451
153 690 177 161 17 539 12 758 -9z"/>
<path d="M4762 18635 c-76 -17 -128 -46 -205 -115 -100 -90 -165 -186 -201
-297 -24 -73 -31 -77 -123 -65 -83 11 -113 4 -113 -26 0 -33 22 -42 97 -42 53
0 75 -4 79 -14 3 -7 -2 -42 -11 -76 -16 -63 -23 -189 -11 -209 4 -6 18 -11 30
-11 29 0 33 14 46 145 5 56 14 113 19 129 l11 27 93 -6 c50 -3 177 -13 281
-21 196 -15 228 -11 194 22 -27 27 -209 52 -488 67 -64 3 -64 26 2 144 62 113
173 233 242 264 64 28 174 39 274 28 95 -11 141 -27 194 -69 37 -30 81 -39 93
-19 25 39 -41 94 -158 131 -83 26 -259 33 -345 13z"/>
<path d="M6019 18369 c-20 -20 -21 -29 -18 -232 l3 -212 -59 -16 c-61 -16 -83
-35 -72 -63 6 -14 19 -17 72 -15 36 1 67 0 68 -2 2 -2 9 -42 15 -88 12 -88 23
-111 53 -111 27 0 29 11 14 76 -17 69 -19 150 -5 159 5 3 89 17 187 30 233 32
281 46 242 71 -20 12 -228 4 -328 -12 -56 -9 -98 -11 -103 -6 -6 6 -5 89 2
208 l12 198 -22 18 c-28 23 -35 23 -61 -3z"/>
<path d="M7206 18285 c-26 -27 -80 -230 -91 -346 -13 -132 32 -184 160 -183
78 0 135 17 265 76 50 23 93 37 105 34 42 -11 135 -171 135 -233 0 -41 26 -69
47 -51 12 10 14 27 10 83 -8 86 -62 201 -116 246 -51 42 -84 39 -206 -16 -115
-52 -174 -69 -231 -70 -78 0 -94 13 -94 74 0 49 45 234 76 313 17 46 17 48 -1
68 -22 24 -38 25 -59 5z"/>
<path d="M5550 18190 c-45 -8 -89 -32 -116 -62 -27 -29 -65 -104 -74 -143 l-6
-30 -115 0 c-116 0 -139 -5 -139 -30 0 -32 49 -49 148 -49 109 -1 98 9 122
-116 14 -76 51 -149 89 -178 44 -32 119 -54 165 -47 50 8 81 29 73 50 -5 12
-23 15 -83 15 -71 0 -78 2 -103 29 -31 34 -81 172 -81 224 0 44 10 51 90 66
88 17 201 65 235 101 33 35 30 63 -16 114 -41 47 -118 70 -189 56z m103 -71
c49 -26 49 -59 0 -84 -58 -28 -183 -65 -199 -58 -18 7 -18 17 0 51 40 76 140
122 199 91z"/>
<path d="M6788 18026 c-120 -43 -178 -91 -199 -169 -27 -99 13 -191 100 -230
89 -40 259 -19 249 31 -3 15 -17 17 -105 17 -87 0 -104 3 -123 20 -77 69 -62
170 32 224 42 24 88 38 186 57 28 6 30 49 3 64 -30 16 -70 12 -143 -14z"/>
<path d="M4256 17727 c-34 -25 -16 -49 44 -62 30 -6 65 -16 77 -23 30 -17 83
-16 83 2 0 45 -165 111 -204 83z"/>
<path d="M5325 17484 c-132 -13 -146 -16 -175 -41 -45 -38 -40 -66 18 -99 53
-31 264 -187 284 -211 29 -35 -67 -61 -181 -48 -127 15 -136 13 -139 -18 -5
-41 46 -59 168 -59 159 1 251 56 220 132 -16 38 -99 113 -207 187 -46 31 -83
60 -83 65 0 29 187 48 296 29 43 -8 81 -21 100 -36 34 -26 80 -108 69 -124 -3
-6 -30 -27 -60 -46 -82 -55 -103 -140 -33 -133 23 2 36 11 48 32 18 33 45 54
56 43 4 -4 9 -35 11 -69 2 -45 8 -68 22 -82 17 -16 22 -17 36 -6 13 11 14 29
9 115 l-7 101 31 13 c37 16 77 8 88 -16 4 -10 11 -61 14 -113 l5 -95 37 -3
c30 -3 39 2 55 24 10 14 33 43 51 63 31 35 33 35 47 17 8 -11 15 -28 15 -38 0
-37 29 -87 59 -102 37 -20 123 -21 159 -2 36 19 65 52 90 101 25 51 46 155 33
168 -12 12 -40 2 -45 -15 -38 -121 -100 -198 -160 -198 -45 0 -59 20 -67 96
-13 124 -56 145 -135 65 -52 -53 -74 -56 -74 -10 0 87 -61 136 -155 124 l-53
-6 -31 58 c-35 64 -75 97 -146 119 -50 14 -201 25 -270 18z"/>
<path d="M4740 17467 c-13 -7 -38 -36 -54 -65 -17 -29 -35 -51 -40 -49 -6 2
-14 17 -18 35 -13 50 -72 55 -84 6 -3 -13 -4 -62 -3 -109 4 -94 12 -107 64
-103 25 3 38 15 77 73 26 39 47 75 47 81 1 19 49 57 65 51 15 -6 33 -62 56
-170 12 -61 32 -90 59 -85 13 3 16 16 14 68 -6 155 -37 240 -98 266 -42 17
-53 17 -85 1z"/>
<path d="M7063 17408 c-6 -7 -16 -44 -21 -81 -11 -69 -24 -97 -47 -97 -21 0
-65 -52 -65 -76 0 -22 4 -24 44 -24 l45 0 6 -47 c13 -93 19 -108 46 -108 24 0
24 0 20 93 -2 63 1 97 9 107 15 17 60 19 112 4 43 -11 47 -20 50 -119 3 -65 3
-65 33 -65 35 0 43 19 44 116 1 60 -1 68 -28 93 -25 24 -42 29 -112 37 -46 5
-85 12 -88 14 -2 3 4 32 14 66 14 44 16 65 8 77 -13 21 -56 27 -70 10z"/>
<path d="M7308 17335 c-16 -35 7 -59 46 -49 35 9 43 29 21 54 -25 27 -53 25
-67 -5z"/>
<path d="M6655 17229 c-82 -34 -113 -62 -120 -114 -16 -104 59 -164 216 -173
72 -4 93 -1 132 16 73 32 61 83 -15 61 -78 -22 -201 -4 -238 36 -45 47 -5 93
95 110 64 11 82 37 49 69 -21 21 -58 19 -119 -5z"/>
<path d="M7570 17221 c-5 -11 -15 -51 -22 -91 -11 -61 -10 -75 3 -98 12 -22
22 -27 52 -26 43 2 71 23 98 76 37 72 21 120 -47 144 -53 19 -71 17 -84 -5z
m82 -116 c-6 -14 -16 -25 -22 -25 -13 0 -13 26 1 52 17 31 36 7 21 -27z"/>
<path d="M9909 19073 c-18 -42 -33 -92 -34 -111 0 -33 -3 -36 -49 -52 -60 -20
-74 -38 -58 -74 14 -32 35 -33 89 -4 27 15 46 19 52 13 5 -6 4 -44 -5 -100
-17 -114 -17 -120 1 -139 37 -36 58 21 71 187 6 78 9 88 28 91 11 3 86 11 166
19 110 11 154 11 180 3 34 -11 36 -14 56 -97 32 -134 73 -203 106 -183 11 7
10 14 -22 147 -27 115 -52 165 -93 182 -54 22 -161 27 -278 14 -65 -7 -114 -8
-119 -3 -5 5 -5 36 0 74 7 52 6 69 -6 87 -27 43 -49 29 -85 -54z"/>
<path d="M10571 19101 c-57 -15 -88 -126 -42 -151 27 -14 50 -3 57 29 10 39
23 51 56 51 36 0 48 25 22 50 -23 21 -60 30 -93 21z"/>
<path d="M11896 19055 c-23 -25 -57 -71 -75 -102 -19 -32 -53 -87 -77 -123
-81 -124 -88 -154 -42 -184 13 -8 27 0 67 37 28 26 54 47 59 47 5 0 26 -13 46
-29 48 -39 123 -63 347 -113 230 -51 233 -51 237 -16 6 51 -18 61 -248 106
-205 41 -300 70 -300 91 0 20 218 61 323 61 70 0 97 12 97 45 0 47 -25 58
-114 50 -130 -11 -237 -34 -300 -66 -105 -52 -95 -14 31 123 54 59 59 78 25
106 -24 19 -32 15 -76 -33z"/>
<path d="M11023 18941 c-72 -34 -94 -121 -53 -206 29 -60 69 -94 144 -121 108
-39 275 -27 284 20 7 34 -15 40 -116 38 -115 -4 -180 14 -229 61 -41 38 -43
78 -8 113 21 21 33 25 78 23 60 -3 77 4 77 30 0 52 -103 77 -177 42z"/>
<path d="M15245 17954 c-141 -19 -195 -29 -296 -54 -171 -43 -313 -95 -414
-152 -139 -78 -308 -203 -422 -312 -158 -150 -203 -249 -203 -443 0 -116 17
-190 67 -288 115 -227 363 -445 793 -697 524 -307 1278 -533 2110 -633 621
-74 1110 -86 1755 -41 419 30 762 85 1087 176 l77 21 105 -80 c306 -237 508
-552 671 -1045 92 -276 122 -453 131 -756 9 -294 -20 -499 -104 -725 -71 -190
-135 -301 -293 -512 -62 -81 -127 -170 -146 -198 -74 -108 -168 -214 -195
-220 -52 -12 -60 -115 -8 -115 20 0 185 185 253 285 22 33 66 92 97 130 152
190 227 303 299 456 131 274 189 563 177 889 -12 349 -55 574 -172 897 -155
427 -362 741 -638 962 -43 35 -74 66 -70 71 5 4 34 15 64 25 185 59 395 221
438 337 79 211 -9 457 -237 669 -260 241 -711 488 -1256 689 -197 72 -728 227
-1000 291 -592 141 -866 178 -1355 186 l-325 5 -100 33 c-156 51 -390 113
-495 130 -93 16 -336 27 -395 19z m226 -74 c146 -10 276 -33 458 -80 63 -17
116 -30 117 -30 2 0 4 -4 4 -9 0 -5 -38 -12 -84 -16 -87 -7 -134 -26 -107 -44
8 -5 90 -7 192 -4 182 6 202 3 294 -37 11 -5 67 -27 125 -48 127 -47 218 -92
244 -121 27 -30 66 -28 66 3 0 57 -61 98 -245 161 -158 54 -164 66 -34 59 608
-28 1060 -99 1629 -254 460 -125 774 -226 1040 -335 112 -46 380 -179 495
-245 434 -250 639 -460 690 -709 19 -88 7 -187 -30 -243 -83 -125 -309 -269
-516 -327 -463 -130 -874 -190 -1506 -220 -340 -17 -961 1 -1202 34 -20 3 -94
12 -166 21 -146 17 -461 66 -575 89 -41 8 -100 20 -130 26 -152 29 -447 108
-630 169 -439 145 -698 267 -1024 482 -447 296 -621 550 -586 854 18 159 73
241 283 417 145 122 201 161 317 218 191 94 465 168 735 198 6 0 71 -4 146 -9z"/>
<path d="M14982 17630 c-92 -22 -133 -67 -161 -178 l-17 -67 -105 -11 c-104
-12 -136 -17 -196 -36 -28 -8 -33 -14 -33 -39 0 -42 33 -56 91 -36 24 8 81 23
127 33 65 14 85 15 95 5 9 -9 11 -54 9 -164 -3 -162 5 -193 45 -185 16 3 19
20 26 158 11 217 7 204 73 196 183 -21 166 -22 162 5 -4 29 -66 55 -151 64
l-58 7 6 31 c10 50 57 119 95 142 47 27 206 28 294 1 73 -22 121 -65 112 -101
-5 -18 0 -31 14 -45 41 -41 78 -9 66 55 -15 76 -111 139 -250 166 -57 11 -197
10 -244 -1z"/>
<path d="M15975 17451 c-10 -13 -24 -59 -34 -123 -16 -96 -19 -103 -42 -106
-58 -7 -69 -12 -69 -36 0 -28 15 -41 57 -50 l31 -7 -5 -97 c-5 -84 -3 -99 12
-112 27 -22 42 7 50 98 9 102 14 120 33 126 10 2 66 8 126 11 l108 7 -26 -44
c-51 -88 -27 -191 54 -233 69 -36 205 -6 205 45 0 22 -4 25 -30 23 -81 -6
-149 -2 -161 8 -20 17 -17 73 6 112 24 40 91 74 167 84 64 8 83 19 83 48 0 39
-37 57 -96 46 -27 -5 -136 -13 -241 -17 l-193 -7 0 24 c1 13 9 49 20 79 24 67
25 104 4 124 -21 21 -37 20 -59 -3z"/>
<path d="M16801 17413 c-29 -20 -83 -135 -111 -237 -26 -95 -18 -127 43 -175
60 -47 108 -41 251 29 83 40 113 51 125 43 22 -14 63 -75 108 -162 40 -77 76
-112 95 -93 23 23 -67 212 -140 293 -44 50 -47 51 -91 47 -27 -3 -91 -26 -154
-56 -153 -73 -187 -70 -166 14 14 58 73 190 96 216 21 23 20 68 -3 85 -23 17
-25 16 -53 -4z"/>
<path d="M15505 17386 c-80 -37 -145 -124 -145 -193 0 -7 -8 -13 -18 -13 -21
0 -53 21 -109 72 -66 59 -98 30 -48 -44 17 -26 47 -48 99 -73 66 -33 76 -42
91 -80 18 -49 81 -111 121 -121 58 -15 185 19 198 53 8 20 -4 43 -23 43 -9 0
-38 -7 -66 -15 -63 -19 -130 -11 -150 18 -31 44 -21 51 86 68 121 20 204 58
232 107 17 29 18 39 8 71 -34 115 -157 163 -276 107z m179 -77 c44 -34 35 -63
-28 -93 -61 -29 -182 -60 -202 -52 -21 8 -17 49 9 87 46 70 166 102 221 58z"/>
<path d="M15625 16606 c-17 -12 -17 -18 -7 -71 12 -60 16 -205 6 -205 -3 0
-29 20 -57 44 -103 87 -184 111 -260 78 -67 -30 -102 -87 -102 -168 0 -78 20
-108 100 -149 96 -49 245 -47 245 4 0 16 -12 19 -82 26 -91 8 -154 28 -168 56
-28 52 5 140 62 163 75 32 202 -57 238 -166 13 -40 23 -55 44 -62 16 -6 30 -6
35 0 15 14 31 166 31 287 0 112 -12 158 -45 171 -21 8 -18 8 -40 -8z"/>
<path d="M16667 16502 c-13 -14 -14 -25 -7 -57 12 -53 6 -70 -32 -86 -44 -18
-88 -58 -88 -80 0 -38 71 -53 92 -19 7 11 19 20 25 20 10 0 13 -33 11 -142 -3
-127 -1 -143 14 -146 35 -7 51 42 58 180 4 71 13 135 19 141 13 13 313 21 396
10 l59 -8 -68 -40 c-74 -43 -139 -107 -134 -133 6 -29 86 -82 125 -82 66 0
150 70 202 168 24 44 34 35 173 -155 29 -40 61 -84 71 -98 21 -29 73 -59 87
-50 17 10 11 41 -11 61 -11 10 -59 76 -105 147 -46 70 -108 152 -137 181 -51
53 -52 54 -102 49 -27 -3 -120 5 -205 17 -102 14 -189 21 -255 18 l-100 -3 -5
46 c-9 74 -47 101 -83 61z m593 -275 c0 -32 -83 -87 -131 -87 -32 0 -22 17 38
59 57 41 93 52 93 28z"/>
<path d="M16192 16478 c-7 -7 -12 -23 -12 -37 -1 -85 -57 -205 -110 -233 -37
-19 -115 -25 -125 -8 -8 12 27 91 47 107 8 7 41 19 74 26 52 12 59 17 62 40 4
36 -26 51 -88 42 -101 -14 -180 -97 -180 -189 0 -52 15 -75 63 -97 96 -43 213
-2 263 94 8 15 19 27 23 27 10 0 11 -5 32 -125 14 -78 48 -125 93 -125 37 0
41 17 12 51 -14 17 -26 34 -26 37 -1 55 -51 376 -60 387 -15 18 -51 20 -68 3z"/>
<path d="M5240 16572 c-199 -93 -302 -157 -325 -203 -16 -30 -5 -49 30 -49 22
0 165 47 263 86 34 14 67 22 72 19 18 -11 11 -68 -29 -235 -32 -134 -45 -216
-66 -435 -14 -148 -31 -306 -38 -350 -17 -119 -11 -1071 9 -1230 26 -216 95
-540 159 -756 23 -77 157 -404 201 -491 13 -26 24 -49 24 -52 0 -10 -75 -16
-213 -17 -308 -2 -875 -91 -1157 -180 -113 -36 -263 -90 -310 -112 -362 -165
-630 -347 -880 -597 -163 -163 -251 -279 -336 -444 -57 -112 -67 -139 -103
-261 -43 -149 -52 -364 -22 -495 43 -185 56 -234 82 -300 54 -136 115 -231
257 -400 195 -233 386 -390 682 -562 397 -230 797 -404 1190 -518 41 -12 95
-28 120 -36 338 -106 784 -207 1370 -309 158 -27 514 -74 655 -86 185 -16 771
-16 1015 -1 524 34 1324 171 1676 288 177 59 414 173 579 279 129 83 175 123
175 151 0 16 10 28 33 38 l32 16 365 -359 c200 -197 383 -369 406 -382 75 -40
104 6 37 57 -21 16 -135 125 -253 243 -118 117 -273 268 -343 335 -143 134
-155 149 -135 173 11 14 39 15 223 10 115 -3 285 -11 376 -18 175 -13 223 -9
243 24 20 31 -4 52 -60 51 -27 -1 -159 5 -294 13 -134 8 -285 13 -335 11 -105
-4 -101 -11 -64 122 50 178 23 532 -58 750 -83 223 -251 513 -424 730 -370
463 -1022 935 -1669 1207 -344 145 -726 270 -1085 354 -71 17 -159 37 -195 46
-36 8 -103 21 -150 29 -47 7 -134 22 -195 34 -253 47 -778 100 -1035 103
l-135 2 -5 35 c-4 19 -13 46 -22 60 -9 14 -31 61 -48 105 -17 44 -39 98 -50
120 -10 22 -35 83 -55 135 -20 52 -40 105 -46 118 -16 40 -97 383 -124 527
-41 221 -47 302 -50 785 -2 261 0 525 5 585 41 483 68 694 110 870 22 94 43
275 35 298 -12 30 -37 27 -96 -12 -60 -40 -149 -76 -171 -69 -7 3 35 37 93 78
57 40 108 77 114 81 15 15 -17 9 -55 -9z m575 -3767 c281 -16 631 -48 790 -74
33 -6 94 -15 135 -21 397 -59 915 -188 1240 -310 41 -15 93 -34 115 -41 74
-23 415 -169 538 -230 477 -239 902 -544 1222 -878 200 -208 337 -410 503
-736 101 -200 154 -428 155 -665 0 -266 -69 -437 -203 -500 -33 -16 -52 -31
-56 -46 -14 -55 -441 -297 -671 -380 -128 -46 -497 -135 -718 -173 -99 -17
-216 -38 -260 -46 -83 -15 -387 -54 -605 -77 -172 -18 -1007 -18 -1185 0 -352
36 -1091 159 -1355 227 -30 8 -95 23 -145 35 -111 26 -364 94 -465 125 -41 13
-113 36 -160 50 -104 32 -334 112 -375 131 -16 7 -52 22 -80 33 -105 40 -388
176 -495 236 -30 17 -98 56 -150 85 -98 56 -292 184 -345 228 -212 176 -431
427 -521 597 -115 216 -178 588 -135 800 53 257 186 502 392 719 157 165 326
303 521 426 57 36 308 164 398 204 146 63 457 153 625 181 22 4 63 13 90 21
28 7 95 18 150 24 55 6 156 18 225 26 285 35 551 44 825 29z"/>
<path d="M5856 11965 c-55 -20 -94 -60 -80 -83 19 -30 43 -25 100 19 77 60 66
95 -20 64z"/>
<path d="M6250 11836 c-9 -11 -9 -33 -1 -88 6 -40 12 -127 13 -193 l3 -120
-61 -5 c-54 -4 -94 -21 -94 -39 1 -23 24 -35 74 -36 31 -1 60 -5 63 -9 4 -4 2
-38 -5 -77 -7 -38 -12 -92 -12 -119 0 -43 3 -50 20 -50 30 0 48 38 58 129 6
46 15 88 21 94 7 7 27 5 68 -7 61 -18 144 -41 204 -57 28 -7 43 -20 67 -59 61
-98 234 -180 451 -215 67 -10 98 -11 107 -4 21 17 4 38 -40 49 -257 67 -397
126 -426 180 -10 19 -7 20 72 20 131 1 193 38 186 113 -4 38 -24 42 -41 8 -23
-46 -60 -64 -145 -69 -47 -3 -87 0 -99 7 -25 13 -37 68 -24 104 21 54 114 85
152 51 11 -10 44 -21 77 -25 31 -4 81 -10 110 -14 51 -7 52 -7 52 18 0 30 -31
43 -126 53 -52 5 -66 11 -79 30 -19 30 -51 31 -137 4 -87 -27 -129 -70 -133
-136 -2 -27 -8 -50 -14 -52 -6 -2 -50 10 -98 27 -49 17 -107 35 -130 41 -24 6
-43 14 -43 18 -1 4 -2 93 -4 199 -2 159 -6 196 -20 217 -18 29 -47 34 -66 12z"/>
<path d="M5094 11634 c-21 -14 -82 -69 -134 -123 -142 -146 -226 -177 -249
-93 -6 20 -11 52 -11 70 0 44 -16 72 -42 72 -11 0 -48 -20 -82 -44 -33 -24
-76 -47 -94 -51 -69 -15 -132 43 -132 122 0 58 -31 81 -64 47 -32 -32 -11
-139 37 -192 34 -37 71 -52 127 -52 41 0 60 6 103 35 28 19 56 35 62 35 6 0
16 -28 22 -62 9 -44 19 -67 35 -79 68 -51 178 -19 278 81 84 83 210 229 210
244 0 23 -21 20 -66 -10z"/>
<path d="M5675 11531 c-83 -24 -112 -41 -170 -100 -27 -28 -53 -51 -57 -51 -5
0 -8 22 -8 49 0 32 -6 55 -16 65 -20 21 -30 20 -53 -3 -17 -17 -19 -30 -14
-143 7 -145 13 -168 47 -168 29 0 52 29 66 81 29 108 162 213 280 221 55 4 70
-35 71 -192 1 -145 7 -174 35 -178 38 -5 46 20 45 148 0 177 -8 229 -42 262
-23 23 -36 28 -76 27 -26 0 -75 -8 -108 -18z"/>
<path d="M4885 10821 c-65 -16 -135 -66 -171 -122 -13 -21 -28 -39 -34 -39 -5
0 -23 20 -39 44 -38 54 -77 72 -124 57 -93 -31 -143 -152 -149 -366 -3 -84 -2
-90 18 -93 40 -6 57 30 65 140 4 57 11 121 15 143 8 51 40 115 58 115 7 0 41
-29 74 -64 61 -63 62 -66 62 -119 0 -110 74 -200 186 -227 93 -23 209 3 209
45 0 19 -7 20 -96 20 -89 0 -99 2 -145 30 -37 23 -52 40 -63 71 -21 60 -12 75
36 62 50 -14 150 -5 192 16 53 28 110 85 120 121 32 118 -74 200 -214 166z
m123 -87 c69 -78 -45 -166 -196 -151 -30 3 -59 10 -65 16 -32 32 51 130 131
155 60 19 101 13 130 -20z"/>
<path d="M5533 10742 c-92 -37 -113 -84 -73 -161 28 -56 61 -92 161 -177 88
-75 136 -140 125 -170 -3 -8 -27 -25 -53 -37 -40 -17 -66 -21 -148 -21 -101 1
-134 10 -198 51 -29 19 -50 13 -71 -20 -16 -25 2 -48 60 -77 44 -23 61 -25
174 -25 149 0 205 14 262 64 37 33 41 42 41 82 0 62 -32 117 -100 174 -127
106 -193 181 -193 219 0 40 106 59 215 40 70 -12 84 -18 112 -48 25 -27 32
-45 37 -92 30 -300 77 -375 237 -383 66 -3 86 1 132 22 85 39 177 146 177 206
0 31 -21 37 -42 10 -92 -118 -134 -150 -214 -163 -129 -19 -175 42 -205 274
-14 108 -35 158 -82 194 -68 52 -267 73 -354 38z"/>
<path d="M6612 10708 c-16 -16 -15 -58 2 -154 8 -44 20 -146 26 -229 7 -82 16
-167 21 -187 18 -73 87 -123 117 -85 11 13 6 29 -22 69 -14 22 -21 64 -32 185
-14 171 -31 317 -42 373 -6 28 -12 36 -32 38 -14 2 -31 -3 -38 -10z"/>
<path d="M7111 10648 c-4 -13 -11 -81 -14 -152 -6 -111 -10 -133 -27 -151 -25
-27 -25 -37 0 -60 18 -16 20 -31 20 -120 0 -125 20 -198 54 -193 20 3 21 7 21
165 0 117 3 165 13 175 16 16 133 14 277 -7 107 -15 110 -16 145 -54 19 -22
58 -54 87 -73 28 -18 92 -59 142 -91 232 -149 280 -312 116 -392 -54 -27 -60
-28 -163 -21 -112 6 -136 1 -130 -30 2 -15 19 -22 73 -32 200 -38 376 41 392
177 5 44 1 60 -26 115 -55 112 -100 153 -343 310 -78 51 -73 58 40 51 53 -4
123 -13 155 -21 66 -17 97 -11 97 16 0 28 -42 56 -115 75 -54 15 -90 17 -209
12 -121 -5 -155 -3 -227 14 -66 16 -210 29 -312 29 -10 0 -7 45 12 185 11 79
4 95 -40 95 -21 0 -32 -6 -38 -22z"/>
<path d="M1454 16296 c-26 -19 -40 -83 -76 -351 -19 -145 -16 -386 5 -478 15
-64 23 -80 43 -89 41 -19 47 -1 30 92 -32 165 -10 516 45 721 12 42 19 85 17
95 -4 24 -37 29 -64 10z"/>
<path d="M529 16116 c-113 -30 -208 -147 -217 -267 -4 -57 -1 -75 22 -124 40
-87 92 -152 170 -210 146 -108 258 -147 421 -149 107 -1 169 12 247 50 83 42
76 72 -12 48 -30 -8 -93 -19 -139 -25 -197 -23 -413 59 -542 206 -88 101 -116
192 -80 262 62 122 170 175 286 140 62 -18 98 -8 93 25 -7 52 -137 75 -249 44z"/>
<path d="M2150 15809 c-30 -11 -81 -30 -113 -41 -77 -27 -173 -93 -209 -143
-15 -22 -33 -66 -40 -97 -16 -76 0 -126 57 -183 60 -60 126 -79 254 -72 116 6
190 31 254 87 67 59 91 117 92 215 0 202 -121 298 -295 234z m157 -66 c82 -38
99 -211 31 -304 -49 -66 -176 -103 -305 -89 -75 8 -114 28 -153 77 -39 50 -18
146 44 199 42 36 64 42 84 22 10 -10 18 -7 40 15 15 16 52 44 82 63 62 39 119
45 177 17z"/>
<path d="M3416 15782 c-72 -63 -239 -264 -267 -320 -20 -40 -20 -44 -4 -68 32
-49 63 -51 163 -12 55 21 82 15 82 -20 0 -26 49 -81 103 -117 76 -50 354 -136
393 -121 46 18 -19 61 -161 105 -158 50 -255 115 -255 170 0 43 -7 41 295 106
66 14 132 30 147 36 50 20 44 79 -8 79 -48 0 -321 -62 -379 -86 -129 -54 -286
-106 -301 -100 -14 5 -14 9 3 35 25 39 177 196 241 250 46 37 53 47 50 75 -5
49 -36 46 -102 -12z"/>
<path d="M2795 15733 c-38 -10 -125 -65 -154 -99 -52 -58 -51 -138 0 -239 51
-100 115 -143 240 -165 103 -18 289 14 289 49 0 17 -32 21 -153 20 -142 -1
-211 18 -264 73 -48 50 -81 155 -63 203 10 25 67 58 122 70 38 7 63 47 48 74
-10 21 -25 24 -65 14z"/>
<path d="M1327 15012 c-13 -15 -17 -39 -17 -114 l0 -96 -77 -7 c-180 -15 -280
-55 -254 -103 16 -30 43 -32 117 -6 92 33 192 48 210 33 10 -8 13 -35 13 -98
-2 -138 12 -303 28 -334 9 -18 21 -27 31 -25 15 3 17 25 17 223 0 121 4 226 8
233 13 19 73 14 164 -13 134 -41 175 -89 213 -251 40 -171 49 -193 76 -200 39
-10 59 15 46 57 -6 19 -22 86 -37 150 -49 219 -140 297 -387 332 l-83 12 0 65
c0 36 3 77 8 92 6 21 3 32 -13 48 -25 25 -42 25 -63 2z"/>
<path d="M2902 14963 c-5 -10 -13 -108 -16 -218 -6 -169 -10 -206 -27 -238
-10 -21 -19 -52 -19 -70 0 -25 -9 -42 -39 -71 -47 -46 -82 -114 -89 -172 -4
-39 -1 -47 31 -79 34 -34 58 -42 91 -29 25 9 19 33 -14 61 -25 20 -30 32 -30
67 0 23 8 53 17 66 38 56 56 47 51 -28 -4 -69 13 -79 30 -17 6 25 16 45 21 45
5 0 33 -16 62 -36 72 -49 165 -91 334 -152 199 -72 254 -87 268 -72 20 20 -42
61 -155 104 -167 63 -268 108 -345 151 -72 40 -143 97 -143 115 0 29 147 81
355 125 128 28 157 43 139 73 -17 25 -203 21 -353 -7 -73 -14 -117 -19 -123
-13 -7 7 -6 28 1 60 14 68 35 317 28 336 -9 22 -64 21 -75 -1z"/>
<path d="M1806 14931 c-17 -18 -17 -20 4 -41 19 -19 28 -20 78 -14 60 7 82 18
82 40 0 36 -134 48 -164 15z"/>
<path d="M16989 14755 c-31 -17 -80 -108 -102 -190 -40 -152 -66 -471 -47
-590 12 -74 28 -102 54 -92 13 5 15 20 10 94 -12 158 28 490 72 612 9 25 30
63 46 83 15 20 28 46 28 57 0 30 -30 42 -61 26z"/>
<path d="M2283 14666 c-207 -152 -285 -289 -220 -387 48 -73 177 -101 293 -63
65 20 124 68 107 85 -10 10 -29 9 -91 -6 -105 -23 -192 -18 -227 15 -29 27
-33 75 -11 118 20 39 98 109 189 170 60 41 77 58 77 76 0 23 -16 36 -45 36 -7
0 -39 -20 -72 -44z"/>
<path d="M16204 14411 c-113 -24 -162 -48 -236 -119 -104 -99 -153 -235 -117
-329 23 -63 98 -115 214 -149 82 -24 241 -23 315 1 67 21 77 30 61 49 -10 12
-34 14 -136 9 -186 -9 -306 23 -369 97 -21 25 -26 42 -26 85 0 44 6 62 36 106
45 69 95 114 163 146 44 21 73 26 160 30 60 3 122 1 143 -5 32 -9 41 -7 60 7
13 11 19 24 15 34 -20 51 -140 67 -283 38z"/>
<path d="M18652 14413 c-19 -7 -106 -188 -179 -373 -36 -91 -83 -195 -104
-232 -41 -70 -49 -112 -23 -122 9 -3 62 22 133 64 65 39 125 70 134 70 8 0 27
-20 41 -43 28 -50 76 -89 141 -118 70 -31 265 -79 323 -79 49 0 52 2 52 25 0
28 -18 40 -79 50 -120 20 -315 100 -360 148 -32 35 -22 53 41 70 29 9 87 25
128 37 41 11 109 30 150 41 41 11 90 27 110 37 45 22 51 54 15 78 -22 14 -43
16 -138 11 -177 -9 -342 -72 -385 -147 -13 -22 -35 -36 -97 -60 -45 -16 -84
-30 -88 -30 -4 0 3 21 17 48 13 26 49 108 81 182 31 74 76 169 101 211 49 84
52 99 26 122 -20 18 -20 18 -40 10z"/>
<path d="M17365 14219 c-16 -7 -37 -18 -46 -25 -13 -11 -18 -11 -32 6 -23 27
-34 25 -70 -12 -68 -74 -114 -225 -105 -350 3 -47 10 -64 33 -88 68 -71 189
-78 329 -20 110 46 192 134 217 234 33 132 -74 253 -233 262 -35 2 -76 -1 -93
-7z m147 -81 c43 -13 104 -73 114 -114 18 -70 -50 -166 -151 -214 -108 -52
-207 -53 -266 -3 -31 26 -31 27 -24 92 8 77 29 144 57 184 25 35 33 34 44 -5
17 -57 64 -47 64 14 0 52 73 73 162 46z"/>
<path d="M17990 14096 c-107 -32 -168 -79 -196 -152 -37 -96 0 -256 75 -328
26 -25 40 -30 103 -33 85 -5 148 14 148 46 0 25 -14 29 -76 23 -104 -10 -162
35 -184 140 -26 128 38 203 189 223 32 4 61 15 73 27 17 17 18 22 5 41 -17 27
-71 32 -137 13z"/>
<path d="M16762 13527 c-6 -7 -12 -53 -14 -102 l-3 -88 -30 -10 c-45 -14 -66
-37 -63 -66 3 -23 7 -26 38 -25 19 1 44 3 55 5 16 3 21 -4 28 -36 4 -22 20
-92 35 -155 24 -99 31 -115 49 -118 41 -6 41 54 2 210 -10 42 -19 88 -19 102
l0 26 133 -1 c141 0 188 -9 226 -43 29 -26 38 -49 58 -150 16 -84 35 -115 60
-95 17 15 17 81 -2 171 -17 80 -35 112 -85 145 -52 36 -96 45 -255 52 l-150 6
0 80 c0 44 -4 86 -8 93 -11 16 -42 16 -55 -1z"/>
<path d="M17311 13504 c-33 -23 -55 -79 -41 -104 14 -27 44 -25 67 3 10 12 32
27 48 32 38 13 45 47 13 69 -29 20 -57 20 -87 0z"/>
<path d="M18215 13406 c-17 -19 -68 -106 -113 -194 -45 -87 -87 -164 -94 -169
-21 -17 -174 -54 -246 -60 -37 -3 -92 0 -121 6 -61 13 -139 64 -147 97 -15 59
83 145 214 188 63 21 81 46 57 83 -21 31 -45 28 -138 -17 -143 -70 -207 -145
-207 -243 0 -58 17 -94 64 -135 50 -44 104 -57 226 -56 83 0 118 5 165 23 33
12 67 24 76 27 12 4 20 -3 27 -25 6 -17 17 -31 25 -31 8 0 58 23 110 50 52 28
98 50 101 50 3 0 12 -15 20 -32 7 -18 24 -43 37 -54 27 -24 160 -69 337 -113
172 -44 186 -45 205 -26 32 31 15 75 -28 75 -27 0 -318 73 -402 101 -68 22
-78 39 -40 64 26 17 145 48 289 75 54 11 106 24 116 29 25 14 33 46 17 68 -13
17 -18 17 -132 -6 -182 -36 -298 -67 -426 -112 -65 -23 -121 -39 -124 -36 -3
3 8 25 24 49 16 24 51 83 78 131 27 49 64 106 82 127 35 40 41 68 21 88 -20
20 -39 14 -73 -22z"/>
<path d="M19819 12418 c-14 -12 -78 -127 -176 -318 -22 -41 -36 -87 -40 -123
-3 -31 -10 -57 -14 -57 -5 0 -46 15 -92 34 -100 42 -411 137 -557 172 -58 13
-123 29 -145 34 -202 50 -632 111 -940 135 -38 3 -239 8 -445 11 -300 5 -418
3 -590 -10 -485 -37 -833 -99 -1139 -203 -312 -105 -549 -248 -731 -440 -138
-145 -190 -265 -198 -451 -4 -121 5 -195 40 -297 104 -305 491 -745 968 -1099
195 -146 479 -325 648 -410 50 -25 92 -50 92 -56 0 -5 -21 -23 -47 -41 -54
-36 -183 -137 -198 -155 -5 -6 -50 -44 -98 -83 -80 -65 -140 -106 -357 -246
-159 -104 -365 -188 -590 -243 -371 -91 -473 -104 -790 -103 -440 1 -756 26
-1080 86 -610 113 -1005 225 -1680 479 -550 206 -606 229 -637 258 -29 27 -53
17 -53 -22 0 -49 46 -82 189 -135 69 -26 185 -69 256 -95 72 -27 148 -56 170
-63 22 -8 133 -49 247 -90 487 -178 859 -284 1283 -367 116 -22 219 -43 230
-45 51 -13 327 -47 485 -60 256 -22 728 -31 875 -16 329 33 729 137 949 248
173 87 433 262 601 404 66 56 150 121 187 145 37 24 80 60 96 80 l29 35 144
-69 c139 -67 409 -186 574 -252 44 -17 118 -49 165 -70 47 -21 117 -49 155
-63 39 -14 122 -45 185 -70 226 -88 878 -293 1115 -351 33 -8 150 -37 260 -64
110 -28 270 -67 355 -87 85 -20 196 -47 245 -60 50 -13 133 -33 185 -45 52
-12 122 -27 155 -35 284 -63 395 -87 490 -104 575 -103 1130 -138 1454 -91
440 64 682 222 831 545 137 296 107 625 -91 980 -205 367 -455 647 -873 975
-88 69 -101 78 -286 203 -275 185 -535 322 -859 452 -187 75 -281 101 -281 77
0 -17 70 -54 255 -135 537 -235 919 -469 1310 -803 447 -382 750 -833 826
-1232 7 -38 10 -113 7 -195 -6 -145 -25 -221 -94 -362 -83 -171 -244 -303
-449 -370 -221 -72 -602 -103 -930 -75 -401 33 -600 57 -870 104 -151 27 -162
29 -520 113 -179 41 -516 123 -575 138 -30 8 -104 26 -165 40 -60 14 -146 35
-190 46 -44 12 -100 25 -125 30 -25 5 -81 20 -125 33 -44 14 -125 36 -180 51
-396 103 -1043 341 -1580 580 -16 7 -86 38 -155 68 -207 92 -351 160 -425 203
-38 23 -124 72 -190 109 -143 81 -406 255 -541 356 -249 188 -530 455 -663
629 -124 163 -227 340 -265 456 -22 67 -34 206 -25 297 22 226 218 451 549
629 78 42 264 120 350 147 653 200 1693 255 2560 135 716 -99 1277 -281 1791
-579 464 -270 550 -324 656 -413 29 -24 61 -42 70 -40 25 5 44 47 32 70 -24
45 -387 273 -699 439 -80 43 -154 84 -165 93 -19 14 -17 15 27 16 128 1 246
28 423 97 174 67 244 115 210 143 -12 10 -34 4 -112 -30 -269 -115 -381 -144
-568 -144 -155 -1 -180 6 -229 64 -43 52 -37 114 23 236 27 54 70 135 95 179
26 44 45 89 44 100 -4 24 -37 31 -59 13z"/>
<path d="M16488 11476 c-13 -10 -32 -11 -70 -5 -41 7 -57 5 -76 -7 -50 -32 -7
-84 71 -84 20 0 37 -4 37 -8 0 -4 -41 -73 -90 -152 -150 -239 -181 -324 -150
-400 25 -60 142 -140 259 -176 140 -44 226 -56 443 -61 119 -3 237 -2 262 1
56 9 90 34 80 60 -7 17 -14 18 -98 11 -129 -12 -274 -14 -321 -5 -22 5 -67 11
-100 15 -146 15 -369 101 -433 168 -38 40 -35 93 10 183 41 80 16 74 251 54
290 -24 525 -3 515 47 -3 16 -25 19 -248 24 -237 6 -405 22 -416 40 -4 8 59
114 109 183 14 20 16 20 198 2 101 -10 220 -24 264 -32 186 -33 275 -28 234
11 -34 32 -303 83 -551 104 -69 6 -115 15 -130 25 -27 19 -28 19 -50 2z"/>
<path d="M17350 11095 c-7 -19 -6 -35 4 -58 24 -59 98 -171 153 -234 30 -34
52 -66 49 -72 -3 -5 -33 -7 -66 -4 -67 6 -100 -11 -100 -52 0 -48 28 -53 209
-42 33 2 37 -1 79 -73 24 -41 60 -95 79 -118 50 -61 132 -124 157 -120 40 6
29 37 -41 116 -72 81 -150 182 -159 207 -7 18 16 29 176 80 180 58 250 85 260
105 5 9 6 20 3 24 -22 21 -233 -24 -386 -84 -43 -16 -86 -30 -96 -30 -30 0
-168 196 -220 313 -28 62 -33 67 -61 67 -23 0 -33 -6 -40 -25z"/>
<path d="M18418 10771 c-98 -21 -196 -67 -247 -114 -97 -92 -96 -257 2 -373
35 -42 176 -111 263 -129 81 -17 277 -20 323 -4 37 13 43 46 9 53 -13 3 -88 7
-168 9 l-145 4 -80 42 c-86 45 -170 119 -180 159 -3 13 -4 26 -2 29 3 2 33 -3
68 -13 47 -12 89 -15 159 -11 114 6 193 26 279 70 80 40 121 89 128 151 5 43
3 49 -29 79 -45 42 -92 57 -203 62 -65 4 -114 0 -177 -14z m294 -83 c114 -48
46 -116 -169 -168 -110 -27 -218 -25 -273 4 -19 10 -45 24 -57 30 -13 6 -21
16 -20 21 13 41 185 117 302 135 71 10 162 1 217 -22z"/>
<path d="M12573 10547 c-98 -107 -231 -350 -284 -522 -26 -83 -26 -188 1 -215
41 -41 88 -14 56 32 -38 54 -7 182 86 358 73 136 155 256 199 291 40 32 50 64
27 87 -21 21 -45 13 -85 -31z"/>
<path d="M19025 10563 c-97 -51 -175 -148 -175 -217 0 -126 150 -270 318 -305
76 -16 200 -14 263 5 83 25 128 52 186 110 l52 54 48 -48 c58 -58 111 -76 233
-76 82 -1 91 1 172 42 68 33 99 56 148 109 79 87 144 183 131 196 -19 19 -59
-4 -97 -54 -47 -61 -163 -158 -224 -187 -65 -30 -110 -36 -187 -22 -123 21
-156 76 -114 195 33 93 26 124 -24 111 -31 -8 -63 -76 -71 -154 l-7 -62 -54
-32 c-127 -76 -151 -88 -207 -108 -71 -24 -122 -25 -199 -5 -163 42 -277 147
-277 256 0 30 34 65 103 104 99 57 82 141 -18 88z"/>
<path d="M20580 10515 c-10 -12 -11 -50 -6 -159 5 -95 4 -146 -3 -150 -5 -4
-42 1 -81 10 -65 14 -73 14 -95 0 -31 -20 -32 -51 -2 -70 12 -7 58 -17 102
-20 44 -4 85 -12 92 -18 8 -7 13 -36 13 -82 0 -79 22 -139 54 -144 18 -4 18 2
11 112 -4 66 -3 116 2 116 12 0 176 -54 248 -82 63 -25 70 -33 119 -148 51
-122 214 -263 410 -356 91 -43 169 -52 174 -19 2 17 -12 27 -79 58 -160 73
-363 233 -409 321 -14 25 -22 48 -19 51 3 3 26 -4 50 -15 90 -40 213 -10 259
64 32 53 33 130 1 175 -91 128 -379 91 -406 -52 -4 -20 -11 -37 -16 -37 -5 0
-38 14 -72 31 -34 18 -106 45 -160 60 -54 16 -103 31 -108 34 -5 4 -9 73 -9
155 0 81 -3 155 -6 164 -8 20 -48 21 -64 1z m766 -389 c24 -27 32 -79 16 -102
-15 -24 -79 -54 -114 -54 -20 0 -66 13 -102 30 -60 26 -66 32 -66 58 0 65 72
104 179 99 55 -3 67 -7 87 -31z"/>
<path d="M11810 10395 c-77 -22 -98 -33 -139 -74 -49 -49 -65 -103 -56 -180
13 -105 71 -200 152 -248 84 -49 204 -63 234 -27 17 21 -7 44 -47 44 -96 0
-197 71 -249 174 -41 81 -32 138 30 188 51 43 76 51 170 56 102 5 187 -12 271
-54 60 -30 98 -29 102 3 5 31 -30 58 -112 88 -129 46 -261 57 -356 30z"/>
<path d="M17210 10110 c-11 -11 -20 -23 -20 -27 1 -30 52 -56 93 -48 40 9 57
22 57 46 0 45 -93 66 -130 29z"/>
<path d="M12905 10103 c-10 -3 -29 -12 -41 -19 -14 -10 -35 -13 -60 -9 -33 5
-48 1 -94 -27 -71 -43 -93 -83 -87 -160 9 -111 79 -162 222 -163 69 0 86 4
126 27 77 45 129 142 129 240 0 43 -4 54 -34 84 -31 31 -39 34 -87 33 -30 -1
-63 -4 -74 -6z m123 -89 c31 -22 28 -63 -10 -120 -52 -76 -76 -89 -167 -89
-70 0 -81 3 -115 29 -45 34 -64 70 -50 94 19 29 87 63 116 58 17 -3 48 4 80
19 61 28 114 32 146 9z"/>
<path d="M13247 10046 c-81 -29 -106 -81 -89 -190 14 -89 43 -147 97 -191 59
-48 96 -62 186 -70 81 -8 139 9 139 40 0 17 -20 22 -117 29 -83 6 -136 29
-181 81 -42 47 -59 81 -67 135 -9 62 10 79 104 89 82 8 107 25 97 65 -6 25
-10 26 -69 26 -34 -1 -79 -7 -100 -14z"/>
<path d="M18192 9999 c-63 -11 -125 -41 -146 -71 -9 -12 -16 -39 -16 -58 0
-43 44 -89 163 -170 79 -54 192 -157 223 -204 9 -14 14 -33 10 -41 -6 -18 -65
-45 -95 -45 -34 0 -128 40 -183 76 -64 43 -92 42 -96 -5 -5 -46 24 -73 114
-111 129 -54 271 -38 315 34 57 93 -7 187 -246 365 -113 85 -131 103 -119 122
18 29 82 42 234 47 298 8 360 -22 368 -181 4 -80 3 -85 -22 -110 -22 -22 -25
-30 -16 -47 6 -11 15 -20 20 -20 6 0 10 -36 10 -83 0 -85 15 -127 45 -127 23
0 30 21 35 118 4 66 10 96 20 102 20 13 126 13 169 0 19 -5 45 -20 59 -32 34
-32 72 -115 72 -160 0 -20 3 -43 6 -52 8 -21 46 -20 75 2 36 28 60 34 76 20 8
-7 32 -49 52 -93 44 -94 95 -144 178 -175 72 -27 136 -26 198 4 68 32 104 69
154 154 80 138 92 182 50 182 -19 0 -38 -25 -99 -130 -41 -70 -109 -139 -150
-151 -30 -9 -48 -8 -94 5 -79 23 -134 79 -170 173 -15 38 -38 80 -51 93 -22
20 -31 22 -89 18 l-65 -6 -16 55 c-12 41 -29 68 -65 104 -63 63 -84 71 -200
78 l-95 6 -5 90 c-7 118 -29 154 -114 189 -98 40 -353 58 -494 35z"/>
<path d="M22991 9994 c-25 -18 -27 -46 -5 -68 12 -13 39 -16 122 -16 129 0
202 -11 347 -52 296 -83 584 -229 631 -320 14 -28 14 -30 -15 -57 -33 -31 -28
-29 -221 -97 -213 -76 -259 -106 -281 -187 -34 -126 52 -290 237 -452 197
-172 402 -289 428 -246 8 12 -26 38 -147 115 -95 61 -241 193 -316 286 -19 24
-54 81 -78 128 -38 73 -44 92 -41 136 3 48 5 52 45 74 24 13 112 49 195 81
187 71 228 91 262 131 41 50 31 114 -26 168 -90 83 -347 208 -608 294 -146 49
-197 62 -305 77 -139 20 -201 21 -224 5z"/>
<path d="M14035 9952 c-27 -15 -90 -55 -140 -89 -84 -57 -113 -71 -240 -120
-55 -21 -69 -50 -42 -87 14 -19 19 -19 104 -8 101 13 193 15 209 4 6 -4 14
-33 17 -65 3 -35 16 -75 31 -102 41 -70 259 -255 301 -255 36 0 27 31 -21 72
-72 60 -224 219 -240 250 -8 15 -11 34 -8 42 8 20 82 30 152 20 32 -4 80 -8
107 -8 l50 -1 0 35 c0 32 -4 36 -40 49 -22 7 -94 15 -160 17 -66 2 -154 7
-195 11 -115 12 -107 26 69 113 83 42 153 83 156 92 9 25 -12 58 -38 58 -12 0
-44 -13 -72 -28z"/>
<path d="M17730 9809 c-14 -6 -44 -29 -67 -51 -40 -39 -43 -41 -61 -25 -25 23
-39 21 -58 -8 -12 -18 -15 -39 -12 -76 10 -102 62 -104 133 -5 48 68 72 92 81
83 3 -3 10 -38 15 -78 13 -108 60 -180 106 -162 30 12 33 39 6 76 -20 29 -26
52 -32 119 -9 124 -37 156 -111 127z"/>
<path d="M17087 9787 c-25 -17 -45 -125 -48 -249 -3 -123 3 -148 36 -148 35 0
45 28 45 127 0 48 7 115 15 148 19 78 18 100 -1 119 -19 19 -25 20 -47 3z"/>
<path d="M12590 9478 c-12 -13 -27 -37 -35 -54 -9 -22 -22 -33 -43 -37 -36 -7
-46 -30 -31 -74 8 -24 8 -42 0 -65 -16 -46 -14 -164 4 -198 34 -66 84 -19 59
54 -18 50 -18 100 1 136 l15 29 43 -15 c24 -8 76 -31 117 -52 92 -45 110 -74
110 -174 0 -75 6 -98 26 -98 27 0 36 41 32 139 -3 69 -9 103 -21 122 -25 38
-92 82 -179 119 -85 35 -93 48 -58 93 22 28 26 67 8 85 -17 17 -24 15 -48 -10z"/>
<path d="M12968 9390 c-22 -13 -24 -63 -4 -79 14 -11 33 -10 119 5 20 4 27 11
27 29 0 14 -8 29 -17 34 -30 15 -107 22 -125 11z"/>
<path d="M20651 9357 c-19 -24 -41 -98 -41 -141 0 -22 -3 -64 -6 -92 -6 -45
-10 -53 -38 -65 -53 -23 -43 -79 14 -79 34 0 50 -32 50 -104 0 -42 5 -57 23
-74 28 -26 40 -27 57 -6 11 12 10 24 -3 67 -20 65 -32 137 -22 137 24 0 187
-56 223 -77 47 -27 81 -84 82 -136 0 -33 43 -80 68 -75 28 6 21 102 -12 169
-51 101 -93 128 -256 170 l-105 26 2 84 c1 60 7 97 21 128 15 32 18 50 11 63
-11 21 -52 24 -68 5z"/>
<path d="M20065 9293 c-68 -9 -103 -24 -120 -50 -38 -58 -10 -145 72 -225 81
-78 221 -121 325 -99 59 13 78 26 78 52 0 16 -9 18 -84 18 -108 -1 -167 18
-235 78 -48 42 -96 117 -86 134 3 3 31 9 64 13 66 8 97 31 86 65 -7 21 -26 24
-100 14z"/>
<path d="M13130 9274 c-110 -31 -154 -89 -141 -185 15 -112 91 -165 243 -171
64 -2 72 0 90 22 26 32 12 42 -64 47 -86 5 -118 17 -167 62 -79 73 -44 133 86
147 80 9 95 18 91 57 -3 30 -6 32 -43 34 -22 1 -65 -5 -95 -13z"/>
<path d="M13663 9243 c-26 -20 -71 -57 -99 -83 -28 -25 -83 -63 -123 -84 -64
-33 -71 -40 -71 -67 0 -45 28 -48 135 -14 16 5 24 -3 43 -38 27 -51 105 -122
217 -197 44 -30 108 -75 142 -102 66 -51 87 -58 97 -32 18 47 17 48 -203 192
-52 35 -118 85 -145 113 -80 82 -49 86 178 25 97 -26 129 -23 141 15 15 46
-51 69 -254 90 -64 6 -122 13 -130 16 -21 6 14 38 96 88 70 43 87 71 63 101
-19 21 -34 17 -87 -23z"/>
<path d="M21015 9166 c-22 -22 -24 -29 -14 -47 9 -18 17 -21 56 -16 60 6 72
20 53 55 -22 38 -62 41 -95 8z"/>
<path d="M21260 9017 c-35 -18 -48 -59 -31 -100 8 -18 13 -45 13 -61 -3 -74
91 -176 163 -176 31 0 73 21 98 48 41 45 30 150 -23 214 -51 61 -169 102 -220
75z m134 -96 c10 -9 28 -36 38 -59 17 -37 18 -48 8 -73 -22 -52 -65 -35 -116
45 -17 28 -17 29 1 42 16 12 17 17 5 41 -8 16 -16 31 -18 35 -6 12 61 -13 82
-31z"/>
<path d="M21704 8862 c-15 -8 -24 -21 -24 -36 0 -37 23 -49 83 -42 28 3 85 9
125 12 39 4 72 11 72 15 0 20 42 7 75 -23 74 -65 165 -235 165 -310 0 -28 10
-45 29 -50 8 -2 18 15 26 47 13 48 13 52 -18 120 -60 133 -121 211 -197 251
-46 24 -297 36 -336 16z"/>
<path d="M6290 7805 c-14 -17 -5 -52 18 -64 9 -5 64 -25 122 -46 301 -107 573
-235 578 -271 5 -34 -65 -55 -238 -70 -276 -24 -448 -50 -472 -72 -41 -35 -15
-78 176 -283 215 -231 325 -377 356 -472 25 -78 -19 -182 -98 -231 -159 -98
-405 -111 -739 -40 -48 10 -44 -21 5 -42 106 -46 191 -59 382 -59 164 0 192 2
250 22 161 54 248 129 270 233 15 72 10 102 -35 196 -43 90 -229 320 -412 513
-43 45 -73 85 -73 97 0 19 9 23 73 32 79 12 235 28 367 37 47 4 101 10 120 15
19 4 47 11 62 14 14 3 40 18 57 32 44 37 43 88 -1 131 -66 61 -190 125 -398
207 -80 32 -190 75 -245 97 -55 21 -103 39 -106 39 -4 0 -12 -7 -19 -15z"/>
<path d="M9431 5439 c-154 -23 -200 -36 -208 -55 -9 -25 12 -58 58 -89 239
-163 302 -220 442 -404 84 -109 136 -207 144 -269 11 -84 -80 -135 -372 -207
-104 -26 -217 -56 -250 -66 -127 -39 -243 -51 -352 -35 -49 7 -53 6 -53 -13 0
-48 93 -70 227 -51 108 15 560 122 663 157 90 31 146 66 178 113 21 30 23 44
20 105 -6 113 -58 203 -229 401 -100 114 -193 197 -276 245 -66 38 -119 87
-107 99 14 14 201 30 345 30 183 0 272 -21 351 -83 38 -30 63 -31 75 -2 19 50
-66 104 -205 131 -101 19 -301 16 -451 -7z"/>
<path d="M10462 5373 c-21 -8 -44 -64 -52 -127 -14 -104 -52 -311 -59 -318 -3
-3 -22 -10 -41 -15 -28 -7 -35 -14 -35 -34 0 -19 6 -25 30 -29 21 -4 31 -12
33 -26 2 -12 -4 -97 -12 -189 -11 -121 -13 -173 -5 -187 11 -20 11 -20 30 -1
23 23 34 87 48 272 7 90 14 137 23 142 7 5 38 11 68 14 30 3 96 12 145 21 50
9 126 23 169 31 96 17 117 12 90 -18 -11 -12 -48 -43 -83 -70 -73 -54 -131
-130 -124 -159 9 -32 41 -53 91 -58 42 -4 53 0 92 30 28 21 62 63 92 113 58
100 111 154 132 136 17 -15 23 -45 40 -218 7 -76 19 -139 26 -148 8 -9 25 -15
39 -13 30 3 30 0 8 178 -28 216 -32 233 -86 300 -19 24 -21 24 -78 13 -32 -7
-112 -17 -178 -23 -151 -13 -272 -29 -355 -46 -95 -20 -97 -16 -61 131 64 267
65 273 51 290 -13 16 -17 17 -38 8z m508 -496 c0 -22 -109 -156 -140 -172 -33
-17 -60 -11 -60 15 0 20 80 101 140 141 48 32 60 35 60 16z"/>
<path d="M13669 5329 c-18 -18 -20 -27 -12 -72 4 -29 8 -110 8 -182 l0 -130
-93 3 c-101 4 -132 -8 -132 -50 0 -32 40 -42 125 -29 42 6 82 11 89 11 11 0
15 -56 20 -277 8 -313 10 -333 36 -333 42 0 45 18 45 324 l0 291 175 5 c153 4
175 7 178 22 6 33 -36 43 -191 44 -81 0 -151 5 -156 10 -5 5 -11 84 -13 175
-3 147 -5 169 -22 188 -24 26 -31 26 -57 0z"/>
<path d="M16285 5328 c-16 -6 -45 -22 -63 -35 -38 -28 -40 -57 -5 -80 19 -13
24 -12 55 14 43 37 73 53 97 53 24 0 45 25 37 45 -6 18 -74 19 -121 3z"/>
<path d="M11482 5207 c-25 -29 -35 -79 -41 -202 l-6 -130 -31 3 c-21 2 -36 -4
-50 -19 -19 -21 -19 -21 5 -40 13 -10 29 -19 37 -19 25 0 32 -33 22 -114 -10
-85 -1 -126 27 -126 22 0 35 41 35 108 0 92 6 102 54 102 67 0 71 -7 71 -112
0 -83 3 -98 28 -140 32 -54 91 -105 162 -138 81 -37 195 -40 195 -5 0 18 -24
28 -105 46 -133 29 -234 169 -211 293 6 31 11 36 44 41 152 24 220 56 279 133
27 36 33 53 33 92 0 69 -29 101 -97 107 -101 10 -203 -62 -271 -192 l-37 -70
-48 2 c-70 2 -81 15 -72 88 4 33 9 90 11 128 2 37 8 85 14 106 5 21 7 46 4 55
-7 19 -37 21 -52 3z m456 -194 c49 -42 26 -97 -62 -147 -53 -31 -152 -54 -168
-38 -29 29 85 171 156 191 45 13 52 13 74 -6z"/>
<path d="M16590 5175 c-11 -13 -10 -30 4 -93 47 -207 66 -316 58 -324 -5 -5
-43 -14 -83 -19 -43 -6 -85 -18 -100 -29 -31 -22 -39 -17 -39 20 0 56 -14 91
-51 133 -60 69 -159 97 -344 97 -269 0 -399 -84 -324 -210 33 -54 65 -85 199
-190 155 -122 264 -223 258 -241 -9 -29 -116 -33 -250 -10 -69 12 -132 19
-142 15 -27 -10 -20 -50 12 -62 84 -32 337 -46 384 -22 52 28 88 62 88 84 0
44 -77 117 -344 325 -113 88 -164 162 -136 196 21 25 111 44 245 51 105 5 140
3 184 -10 70 -21 116 -57 132 -103 14 -45 7 -302 -12 -410 -10 -58 -10 -76 -1
-85 45 -45 102 112 102 281 0 27 3 62 6 79 5 26 9 29 24 20 13 -8 37 -8 88 0
104 17 121 16 127 -10 3 -13 11 -95 19 -184 7 -88 16 -166 20 -172 11 -18 31
-14 51 8 22 24 22 83 0 236 -21 152 -23 144 31 144 81 0 226 -53 266 -96 37
-42 60 -117 65 -214 7 -127 25 -157 66 -112 35 38 16 217 -33 311 -45 89 -176
157 -324 168 -45 3 -86 10 -93 15 -6 5 -15 39 -18 76 -9 83 -52 287 -67 316
-20 38 -47 46 -68 21z"/>
<path d="M17116 5025 c-58 -16 -69 -25 -64 -56 2 -20 9 -24 38 -23 35 0 161
30 190 44 8 4 15 16 15 26 0 17 -9 19 -65 21 -36 1 -87 -4 -114 -12z"/>
<path d="M14818 4973 c-9 -11 -18 -47 -22 -89 -13 -152 -95 -337 -163 -369
-33 -16 -40 -16 -62 -4 -38 21 -47 76 -27 157 20 80 51 130 123 195 94 86 64
104 -80 47 -123 -48 -231 -116 -312 -196 -33 -33 -76 -72 -96 -87 -46 -34
-133 -162 -125 -183 4 -10 15 -14 33 -12 20 2 46 27 105 99 43 53 111 128 151
165 71 68 159 128 177 122 6 -2 -7 -34 -27 -73 -35 -64 -38 -77 -38 -152 0
-97 18 -129 83 -153 37 -12 47 -12 96 3 64 20 94 51 139 144 17 35 34 63 37
63 4 0 14 -35 24 -77 22 -94 48 -147 81 -169 45 -30 71 1 41 49 -8 12 -25 51
-37 87 -19 55 -23 94 -28 255 l-6 190 -26 3 c-15 2 -31 -4 -41 -15z"/>
<path d="M15403 4870 c-74 -17 -141 -88 -209 -222 -47 -92 -59 -89 -50 15 3
45 9 91 12 102 3 11 -2 29 -10 40 -18 25 -44 13 -66 -31 -21 -42 -21 -267 0
-288 51 -48 93 -18 169 120 30 55 67 115 82 135 32 41 89 75 112 66 29 -11 58
-86 73 -195 28 -189 67 -276 130 -288 52 -10 63 8 29 47 -37 44 -42 62 -65
203 -32 200 -60 264 -127 292 -35 15 -34 15 -80 4z"/>
<path d="M12274 4715 c-16 -24 -15 -27 0 -44 36 -40 289 -77 456 -68 111 7
184 27 194 53 6 15 -31 36 -47 27 -16 -10 -297 -3 -370 8 -40 6 -94 20 -122
30 -67 25 -91 24 -111 -6z"/>
<path d="M17317 4698 c-46 -73 -49 -220 -6 -299 52 -94 177 -140 284 -104 60
21 85 41 85 70 0 32 -93 216 -126 248 -41 41 -80 59 -122 55 -42 -3 -50 -26
-17 -43 60 -30 87 -60 126 -140 51 -106 50 -129 -9 -133 -32 -2 -54 3 -88 23
-69 40 -79 68 -79 215 0 109 -2 125 -17 128 -9 2 -23 -7 -31 -20z"/>
<path d="M17931 4526 c-18 -19 -28 -36 -23 -40 6 -3 24 -30 41 -60 52 -94 102
-96 251 -10 95 54 164 71 234 55 78 -17 182 -81 273 -166 81 -75 114 -90 121
-54 8 45 -150 186 -286 255 -144 72 -270 54 -434 -61 -36 -24 -64 -19 -78 15
-7 16 -10 39 -7 50 6 23 -16 50 -42 50 -9 0 -32 -15 -50 -34z"/>
<path d="M12082 3618 c-7 -7 -12 -44 -12 -97 0 -48 -11 -162 -26 -256 -14 -93
-27 -185 -30 -202 -3 -18 -8 -33 -12 -33 -4 0 -27 39 -52 87 -67 130 -101 159
-208 182 -81 17 -107 14 -185 -22 -139 -65 -192 -159 -192 -342 1 -158 37
-230 142 -280 50 -24 71 -28 153 -29 83 -1 102 2 152 26 54 25 85 58 73 77 -3
5 -31 0 -63 -11 -35 -13 -90 -23 -142 -25 -78 -4 -90 -1 -140 24 -40 21 -62
41 -85 77 -28 46 -30 56 -29 145 0 74 5 106 21 142 45 101 127 158 231 160
132 3 209 -82 287 -318 35 -106 56 -143 81 -143 27 0 35 37 23 98 -11 51 -9
82 10 223 12 90 29 198 36 239 19 100 29 231 21 264 -7 28 -33 35 -54 14z"/>
<path d="M12628 3569 c-27 -15 -23 -57 6 -71 35 -15 56 -4 56 30 0 45 -26 62
-62 41z"/>
<path d="M15176 3421 c-10 -11 -43 -22 -87 -30 -166 -27 -457 -169 -587 -286
-81 -73 -132 -191 -132 -307 0 -67 12 -98 38 -98 34 0 42 22 42 108 0 122 20
174 94 247 130 128 592 363 574 292 -2 -7 -37 -42 -78 -78 -129 -113 -180
-202 -180 -319 0 -49 4 -64 27 -90 25 -31 30 -32 77 -27 44 5 56 12 92 51 37
41 97 170 119 259 12 45 22 31 40 -50 29 -130 65 -244 86 -275 37 -51 79 -25
49 31 -16 31 -88 330 -100 417 -6 45 -10 97 -8 116 1 18 -2 39 -6 46 -11 18
-41 15 -60 -7z m-34 -177 c-9 -91 -109 -306 -155 -333 -27 -15 -29 -15 -43 3
-21 30 -17 104 10 161 21 45 115 161 155 192 24 18 36 9 33 -23z"/>
<path d="M13794 3340 c-45 -10 -101 -28 -123 -40 -79 -40 -140 -156 -141 -268
0 -113 34 -156 140 -173 81 -13 193 10 275 55 34 20 68 42 75 51 23 27 41 18
36 -17 -3 -18 -8 -68 -11 -111 -5 -62 -11 -79 -26 -87 -22 -13 -25 -36 -5 -43
9 -4 17 -26 20 -54 4 -26 11 -84 17 -127 9 -72 9 -81 -8 -97 -36 -36 -245
-104 -342 -111 -45 -4 -64 -33 -36 -54 29 -22 119 -12 241 27 177 56 241 102
230 164 -2 16 -12 98 -22 180 -16 141 -16 160 -1 287 10 77 26 159 37 189 26
66 23 103 -8 107 -32 5 -48 -12 -61 -64 -33 -129 -254 -256 -391 -225 -109 24
-131 142 -47 253 41 54 87 76 183 88 95 12 116 23 112 58 -4 35 -34 37 -144
12z"/>
<path d="M15560 3339 c-17 -31 -14 -93 9 -189 11 -47 25 -121 31 -164 15 -99
23 -121 53 -141 29 -19 70 -7 87 25 6 12 16 62 21 112 26 255 82 261 212 26
44 -79 82 -110 147 -116 62 -6 100 15 150 82 22 30 44 57 49 60 22 14 94 -117
161 -292 33 -85 58 -113 80 -87 37 45 -108 406 -179 444 -11 6 -37 11 -59 11
-37 0 -43 -4 -93 -70 -85 -112 -116 -106 -203 44 -72 122 -120 166 -181 166
-68 0 -100 -34 -125 -134 -11 -44 -20 -91 -20 -105 0 -14 -4 -33 -9 -40 -8
-12 -11 -10 -15 10 -6 26 -35 229 -43 294 -9 77 -12 85 -38 85 -14 0 -29 -8
-35 -21z"/>
<path d="M12950 3295 c-124 -56 -184 -109 -205 -178 -18 -60 -8 -130 24 -184
26 -42 94 -68 156 -59 60 9 101 46 145 130 35 66 50 81 50 48 0 -50 83 -255
122 -302 44 -53 118 -80 118 -44 0 10 -20 38 -44 64 -70 75 -100 148 -151 368
-13 58 -28 109 -34 115 -26 26 -61 -23 -61 -85 0 -46 -55 -151 -101 -193 -35
-31 -46 -36 -73 -31 -60 12 -108 95 -92 161 10 40 61 78 167 125 103 45 130
69 108 96 -16 20 -22 18 -129 -31z"/>
<path d="M12475 3257 c-21 -33 -43 -176 -57 -370 -12 -171 -6 -207 32 -207 25
0 27 12 35 165 3 66 16 174 27 240 29 161 29 189 1 193 -14 2 -27 -5 -38 -21z"/>
</g>
</svg>
