<?xml version="1.0" standalone="no"?>
<!DOCTYPE svg PUBLIC "-//W3C//DTD SVG 20010904//EN"
 "http://www.w3.org/TR/2001/REC-SVG-20010904/DTD/svg10.dtd">
<svg version="1.0" xmlns="http://www.w3.org/2000/svg"
 width="3264.000000pt" height="2448.000000pt" viewBox="0 0 3264.000000 2448.000000"
 preserveAspectRatio="xMidYMid meet">
<metadata>
Created by potrace 1.12, written by Peter Selinger 2001-2015
</metadata>
<g transform="translate(0.000000,2448.000000) scale(0.100000,-0.100000)"
fill="#000000" stroke="none">
<path d="M8160 24150 c0 -5 12 -10 26 -10 14 0 23 4 19 10 -3 6 -15 10 -26 10
-10 0 -19 -4 -19 -10z"/>
<path d="M0 24027 c0 -25 1 -25 103 -31 56 -3 286 -13 512 -21 226 -9 439 -17
475 -20 36 -2 171 -9 300 -15 129 -6 523 -24 875 -40 352 -16 759 -34 905 -40
146 -5 330 -15 410 -20 118 -9 566 -26 925 -35 304 -8 603 -17 845 -25 157 -6
652 -21 1100 -35 448 -14 1009 -32 1245 -40 237 -8 502 -17 590 -20 167 -5
515 -17 1035 -35 168 -6 535 -20 815 -30 281 -11 751 -29 1045 -40 294 -11
814 -31 1155 -45 631 -25 1210 -47 1705 -65 151 -5 329 -12 395 -15 66 -3 246
-10 400 -15 154 -5 339 -12 410 -15 72 -2 218 -7 325 -10 107 -3 254 -8 325
-10 157 -7 573 -19 1535 -45 399 -11 811 -22 915 -25 435 -13 1892 -48 2455
-60 146 -3 328 -8 405 -10 77 -3 437 -12 800 -20 363 -8 743 -17 845 -20 102
-3 356 -10 565 -15 209 -5 439 -12 510 -15 72 -2 247 -7 390 -10 143 -3 303
-8 355 -10 52 -3 205 -7 340 -10 135 -3 270 -8 300 -10 30 -3 191 -7 358 -11
220 -5 302 -3 302 5 0 6 -6 12 -12 12 -7 1 -24 3 -38 5 -14 1 -99 5 -190 8
-206 8 -377 14 -545 21 -71 3 -195 7 -275 10 -80 3 -181 8 -225 12 -44 3 -116
7 -160 8 -188 6 -664 22 -700 24 -11 1 -51 1 -90 1 -38 1 -155 5 -260 11 -178
9 -384 15 -905 24 -118 3 -251 7 -295 11 -44 3 -240 7 -435 9 -385 5 -798 13
-980 20 -63 2 -275 7 -470 10 -195 3 -429 7 -520 10 -91 3 -340 10 -555 15
-2108 54 -4075 117 -5965 190 -283 11 -744 29 -1025 40 -280 11 -627 24 -770
30 -1801 71 -3200 121 -4790 170 -1390 43 -2517 81 -3005 100 -685 27 -1246
52 -1350 61 -121 9 -124 10 -210 9 -67 0 -460 17 -705 30 -154 8 -723 32
-1327 56 l-168 6 0 -25z"/>
<path d="M14935 23900 c-3 -5 -2 -10 4 -10 5 0 13 5 16 10 3 6 2 10 -4 10 -5
0 -13 -4 -16 -10z"/>
<path d="M15002 23893 c2 -12 12 -18 28 -18 36 0 33 29 -3 33 -23 3 -28 0 -25
-15z"/>
<path d="M25986 23152 c-11 -18 16 -20 427 -32 347 -11 411 -10 396 4 -5 5
-213 16 -414 22 -77 2 -199 7 -271 10 -91 5 -133 3 -138 -4z"/>
<path d="M26830 23120 c0 -6 19 -10 43 -11 41 -1 129 -4 217 -9 63 -3 72 -1
65 10 -3 5 -23 9 -43 8 -20 -1 -92 2 -159 5 -77 4 -123 3 -123 -3z"/>
<path d="M27178 23103 c7 -3 16 -2 19 1 4 3 -2 6 -13 5 -11 0 -14 -3 -6 -6z"/>
<path d="M27235 23100 c3 -5 36 -10 73 -10 47 0 63 3 52 10 -20 13 -133 13
-125 0z"/>
<path d="M27400 23101 c-11 -8 1 -11 45 -12 33 -1 75 -2 93 -4 17 -1 32 1 32
6 0 5 -15 9 -34 9 -18 0 -53 2 -77 5 -24 3 -51 1 -59 -4z"/>
<path d="M27778 23083 c12 -2 32 -2 45 0 12 2 2 4 -23 4 -25 0 -35 -2 -22 -4z"/>
<path d="M27955 23080 c-3 -5 3 -10 14 -10 12 0 21 5 21 10 0 6 -6 10 -14 10
-8 0 -18 -4 -21 -10z"/>
<path d="M28098 23073 c7 -3 16 -2 19 1 4 3 -2 6 -13 5 -11 0 -14 -3 -6 -6z"/>
<path d="M28295 23070 c-3 -5 1 -10 10 -10 9 0 13 5 10 10 -3 6 -8 10 -10 10
-2 0 -7 -4 -10 -10z"/>
<path d="M28510 23060 c-11 -7 -7 -10 18 -10 17 0 32 5 32 10 0 13 -30 13 -50
0z"/>
<path d="M32575 22960 c-3 -5 1 -10 9 -10 9 0 16 5 16 10 0 6 -4 10 -9 10 -6
0 -13 -4 -16 -10z"/>
<path d="M3284 22395 c-4 -9 -4 -44 -2 -80 l4 -64 -46 -17 c-181 -67 -350
-196 -366 -279 -10 -53 5 -90 36 -90 23 0 25 5 30 51 6 61 37 105 109 158 61
45 275 149 297 144 14 -2 31 -58 81 -253 34 -137 70 -299 79 -360 31 -210 8
-255 -143 -281 -48 -8 -142 -26 -208 -39 -66 -13 -192 -38 -280 -55 -88 -17
-214 -47 -280 -65 -209 -59 -478 -164 -483 -190 -6 -27 43 -17 210 45 224 84
398 130 723 194 154 31 309 62 345 71 76 17 197 35 475 70 110 14 232 30 270
35 182 24 424 45 765 65 140 8 327 20 415 26 366 25 1075 12 1700 -31 77 -5
262 -10 411 -11 335 -1 777 -15 904 -28 52 -5 169 -15 260 -21 309 -21 584
-50 1005 -105 642 -83 620 -78 751 -149 38 -19 66 -12 62 17 -4 29 -115 83
-208 102 -41 9 -137 22 -214 30 -76 8 -166 19 -200 25 -81 13 -517 67 -686 85
-74 8 -261 24 -415 35 -154 11 -332 25 -395 31 -63 6 -369 14 -680 19 -441 7
-623 13 -830 31 -443 37 -1464 31 -1915 -12 -55 -5 -176 -13 -270 -19 -93 -5
-208 -15 -255 -20 -47 -6 -121 -15 -165 -20 -185 -21 -347 -43 -459 -61 -65
-10 -129 -19 -142 -19 -21 0 -23 3 -14 26 18 46 11 188 -15 316 -14 68 -49
215 -79 328 -30 113 -50 209 -46 214 11 11 252 84 305 93 66 10 96 33 60 47
-22 8 -163 -20 -277 -54 -53 -17 -101 -30 -106 -30 -5 0 -13 11 -16 24 -15 60
-88 110 -102 71z"/>
<path d="M5309 22299 c-10 -32 -10 -72 0 -187 7 -81 13 -158 14 -172 2 -24 -1
-25 -113 -42 -63 -9 -118 -17 -121 -17 -14 -2 -19 -33 -9 -52 14 -25 44 -24
157 5 51 13 94 21 98 18 3 -3 5 -43 5 -89 0 -64 3 -83 14 -83 21 0 26 23 26
110 0 50 4 81 13 87 6 5 46 22 87 39 78 30 255 132 312 178 60 50 158 106 158
92 0 -8 -9 -58 -20 -111 -38 -185 -19 -335 44 -351 39 -10 62 0 171 71 55 36
105 65 111 65 23 0 60 -39 83 -86 32 -65 49 -84 78 -84 35 0 40 27 11 58 -14
15 -38 51 -54 80 -34 65 -76 102 -113 102 -28 0 -49 -12 -167 -96 -99 -71
-129 -57 -127 60 2 95 26 226 56 307 26 68 23 99 -9 99 -9 0 -60 -37 -113 -82
-81 -69 -128 -99 -282 -176 -101 -52 -197 -94 -214 -95 l-30 -2 -8 100 c-4 60
-3 133 3 183 12 90 5 112 -31 112 -13 0 -22 -12 -30 -41z"/>
<path d="M5020 22218 c-11 -18 -20 -36 -20 -41 0 -15 -73 -194 -111 -272 -43
-89 -127 -190 -182 -220 -35 -19 -37 -19 -57 0 -32 29 -42 88 -46 260 -4 242
-10 242 -236 -9 -84 -93 -164 -176 -177 -185 l-24 -15 7 36 c12 65 -43 86 -74
28 -23 -44 -2 -116 37 -126 60 -16 113 29 292 244 52 62 99 111 104 109 6 -2
12 -53 14 -123 5 -208 43 -304 119 -304 69 0 224 159 280 287 23 51 124 343
124 357 0 19 -33 1 -50 -26z"/>
<path d="M7381 22206 c-13 -15 7 -110 54 -265 14 -47 25 -98 25 -113 0 -16 5
-38 11 -50 6 -11 15 -61 19 -110 9 -92 18 -116 40 -103 13 8 10 88 -6 177 -6
36 -6 37 32 47 72 19 346 72 350 68 2 -2 -21 -21 -51 -41 -66 -46 -122 -106
-131 -141 -8 -32 17 -72 54 -86 35 -13 98 4 158 43 26 18 70 65 105 114 34 46
65 82 69 79 4 -2 10 -36 13 -76 3 -39 11 -77 18 -85 16 -19 49 -14 63 9 9 14
7 21 -12 35 -19 15 -24 30 -28 92 -3 41 -10 90 -16 108 -9 29 -13 32 -49 32
-22 0 -70 -7 -107 -15 -70 -15 -419 -68 -461 -69 -31 -1 -41 29 -71 212 -12
70 -26 133 -32 140 -14 16 -33 15 -47 -2z m660 -390 c-27 -44 -112 -126 -153
-148 -42 -23 -87 -23 -95 -1 -5 12 9 31 49 67 59 54 211 142 216 126 2 -6 -6
-25 -17 -44z"/>
<path d="M8462 22157 c-7 -8 -10 -70 -9 -167 1 -142 0 -160 -22 -215 -30 -75
-33 -118 -8 -123 11 -2 23 8 35 27 19 34 33 39 52 17 6 -8 34 -22 62 -32 105
-35 245 1 296 77 33 47 27 118 -14 160 -76 79 -215 69 -320 -24 l-37 -32 6 35
c13 75 12 257 -2 274 -16 19 -25 20 -39 3z m308 -272 c33 -9 70 -44 70 -65 0
-24 -44 -69 -85 -86 -70 -29 -216 -10 -231 30 -7 18 35 72 76 99 29 18 104 37
130 32 8 -2 26 -7 40 -10z"/>
<path d="M9099 22023 c-5 -14 -14 -89 -20 -167 -15 -206 -15 -211 -4 -216 23
-11 42 62 76 298 9 65 9 85 -1 97 -19 23 -39 18 -51 -12z"/>
<path d="M9411 21919 c-92 -26 -150 -65 -178 -118 -64 -121 3 -219 196 -287
39 -14 89 -24 123 -24 53 0 58 2 64 24 9 39 -3 49 -51 42 -49 -8 -140 19 -214
62 -52 30 -51 31 84 56 112 21 184 55 230 109 30 35 35 48 33 82 -3 34 -8 42
-38 57 -47 24 -165 22 -249 -3z m202 -50 c20 -5 37 -15 37 -20 0 -21 -62 -68
-118 -90 -99 -37 -272 -62 -272 -39 0 6 7 24 15 40 44 85 220 142 338 109z"/>
<path d="M12726 21871 c-10 -16 5 -39 32 -49 41 -15 166 -40 279 -57 57 -8
118 -22 135 -31 46 -23 88 -64 88 -86 0 -22 -21 -23 -150 -3 -159 24 -992 31
-1375 11 -417 -22 -636 -35 -780 -46 -66 -5 -138 -10 -159 -10 -65 0 -30 15
47 20 55 4 72 9 72 20 0 8 -12 19 -27 24 -34 12 -196 -22 -220 -46 -10 -10
-29 -18 -42 -18 -29 0 -50 -24 -42 -46 6 -15 23 -16 169 -10 89 4 234 13 322
21 88 7 225 16 305 20 80 3 255 13 390 21 286 17 501 18 990 3 424 -12 490
-17 490 -32 0 -17 -21 -45 -151 -208 -127 -158 -146 -186 -132 -200 18 -18 38
2 159 154 178 226 187 238 192 300 4 49 2 57 -28 91 -54 61 -87 74 -273 106
-62 11 -140 29 -172 40 -65 21 -110 25 -119 11z"/>
<path d="M14477 21864 c-4 -4 -7 -16 -7 -26 0 -10 -16 -55 -35 -102 -20 -50
-42 -129 -54 -197 -32 -186 -35 -222 -17 -256 40 -79 145 -128 272 -128 60 0
76 4 113 28 74 49 67 92 -9 55 -101 -50 -268 -11 -318 74 -14 24 -15 39 -3
130 17 140 39 234 68 292 29 58 36 129 13 133 -9 2 -19 1 -23 -3z"/>
<path d="M19620 21649 c-15 -27 -9 -63 12 -67 18 -3 45 59 33 78 -10 17 -34
11 -45 -11z"/>
<path d="M15931 21636 c-17 -20 -2 -48 23 -44 29 4 37 58 8 58 -11 0 -25 -6
-31 -14z"/>
<path d="M19852 21568 c-5 -7 -13 -28 -17 -46 -4 -22 -16 -37 -36 -47 -30 -16
-38 -40 -16 -48 9 -3 9 -11 -1 -38 -7 -19 -15 -61 -18 -94 -5 -52 -3 -64 17
-89 12 -16 38 -35 56 -43 30 -12 41 -12 88 1 73 22 115 70 115 132 0 82 -62
165 -133 178 -34 6 -35 7 -25 40 16 51 -4 86 -30 54z m75 -150 c26 -21 53 -86
53 -127 0 -45 -22 -67 -76 -77 -86 -16 -113 71 -64 201 9 24 14 27 42 21 17
-3 37 -11 45 -18z"/>
<path d="M16250 21488 c-68 -70 -97 -123 -105 -188 -14 -111 76 -153 244 -114
73 16 119 48 88 60 -9 3 -39 1 -67 -5 -132 -28 -205 -6 -203 61 1 51 28 94 96
159 52 50 59 60 47 73 -21 26 -36 19 -100 -46z"/>
<path d="M15870 21515 c-9 -11 -10 -26 -2 -62 19 -88 22 -130 11 -187 -8 -43
-7 -61 2 -72 18 -22 35 -1 49 58 15 61 8 242 -10 263 -16 19 -34 19 -50 0z"/>
<path d="M15545 21507 c-93 -37 -152 -96 -185 -185 -26 -68 -23 -99 12 -125
56 -42 112 -9 233 138 59 70 69 59 63 -74 -4 -83 -12 -127 -38 -206 -53 -165
-79 -201 -108 -155 -21 34 -44 25 -40 -17 2 -26 11 -42 31 -57 26 -19 30 -19
55 -5 37 20 65 75 106 205 73 233 72 424 -3 424 -8 0 -58 -45 -111 -100 -82
-86 -100 -100 -128 -100 -29 0 -32 3 -32 30 0 44 22 82 76 128 46 41 67 48
169 54 35 3 40 6 40 28 0 23 -4 25 -55 27 -30 1 -68 -3 -85 -10z"/>
<path d="M18905 21496 c-16 -7 -41 -25 -54 -40 -14 -14 -33 -26 -43 -26 -32 0
-123 -48 -172 -91 l-46 -41 0 51 c0 52 -12 70 -34 52 -10 -8 -19 -2 -37 26
-13 21 -35 42 -49 46 -67 24 -188 -58 -230 -155 -44 -104 -81 -358 -62 -438 6
-25 14 -36 30 -38 33 -5 44 36 36 127 -6 79 8 240 28 301 25 80 102 160 154
160 49 0 72 -86 40 -149 -23 -44 -83 -91 -116 -91 -31 0 -42 -16 -28 -42 5
-11 20 -18 39 -18 35 0 119 73 149 130 l19 35 1 -57 c0 -51 2 -58 20 -58 10 0
27 12 37 26 57 83 136 149 201 169 20 6 22 3 22 -30 0 -109 96 -192 235 -202
168 -13 214 53 97 138 -125 91 -124 130 6 173 39 13 52 23 52 37 0 28 -37 24
-106 -11 -69 -35 -64 -34 -64 -16 0 21 -39 46 -70 46 -14 -1 -38 -7 -55 -14z
m63 -68 c4 -32 -22 -43 -61 -29 -32 13 -27 36 11 50 37 13 46 9 50 -21z m42
-99 c7 -16 37 -49 66 -72 30 -23 54 -45 54 -49 0 -5 -29 -8 -63 -8 -47 0 -75
6 -108 23 -46 25 -89 77 -89 109 0 16 5 19 28 13 16 -3 39 -1 53 4 38 15 46
13 59 -20z"/>
<path d="M19513 21485 c-80 -22 -132 -59 -155 -111 -13 -30 -17 -55 -13 -74 7
-31 56 -81 117 -118 61 -38 58 -57 -15 -87 -52 -22 -84 -19 -109 10 -26 30
-54 32 -63 5 -13 -40 42 -90 99 -90 66 0 188 69 199 111 6 23 -5 36 -127 145
-57 51 -61 82 -13 118 44 34 83 47 139 48 32 1 54 -4 67 -16 27 -24 41 -91 41
-190 0 -66 3 -86 14 -86 31 0 41 32 40 134 0 113 -16 164 -58 191 -36 24 -101
28 -163 10z"/>
<path d="M15003 21476 c-85 -28 -143 -79 -143 -126 0 -29 22 -25 45 10 27 41
37 38 19 -5 -28 -69 7 -126 95 -152 94 -27 201 1 277 72 41 39 44 74 12 122
-51 73 -203 113 -305 79z m184 -60 c54 -26 87 -63 81 -93 -2 -10 -27 -30 -57
-45 -108 -55 -241 -23 -241 57 0 9 16 31 35 48 19 17 35 37 35 44 0 22 89 16
147 -11z"/>
<path d="M17285 21452 c-60 -29 -112 -77 -139 -131 -9 -16 -22 -31 -31 -34
-17 -7 -19 -29 -6 -55 6 -9 12 -29 15 -43 8 -40 41 -75 94 -100 40 -20 62 -24
148 -23 114 0 198 23 192 53 -2 9 -12 15 -23 13 -62 -10 -181 -14 -229 -8 -44
6 -64 14 -91 40 -19 19 -35 38 -35 43 0 6 32 21 71 33 85 28 155 72 186 119
29 43 29 72 0 99 -32 30 -79 28 -152 -6z m112 -48 c13 -34 -83 -99 -174 -119
-44 -9 -44 12 -1 60 56 64 159 99 175 59z"/>
<path d="M20127 21466 c-3 -8 0 -22 7 -32 11 -14 10 -30 -5 -88 -23 -87 -23
-110 -3 -130 24 -24 37 -20 126 40 80 55 163 93 175 80 3 -3 6 -37 7 -75 1
-75 14 -103 39 -83 18 15 31 166 16 193 -7 14 -21 19 -50 19 -49 0 -86 -15
-185 -75 -42 -26 -78 -44 -81 -41 -3 3 3 41 14 85 18 70 19 83 6 101 -16 23
-58 27 -66 6z"/>
<path d="M17982 21426 c-16 -18 -46 -61 -67 -95 -21 -33 -43 -61 -50 -61 -19
0 -52 41 -70 88 -14 34 -22 42 -39 40 -48 -7 -15 -118 50 -166 l27 -19 -45
-64 c-51 -72 -60 -92 -52 -114 14 -34 43 -15 74 49 18 36 40 72 51 82 17 15
20 15 54 -6 67 -41 90 -2 28 48 l-37 30 62 94 c34 52 62 99 62 105 0 26 -20
21 -48 -11z"/>
<path d="M6979 20884 c-11 -13 -9 -42 9 -173 15 -101 26 -253 32 -431 12 -304
19 -386 55 -600 51 -305 95 -650 95 -748 l0 -25 -132 7 c-354 18 -544 23
-1558 46 -436 10 -1731 9 -2193 -1 -331 -7 -527 -13 -932 -29 -238 -10 -925
-24 -1660 -35 -371 -6 -646 -18 -679 -31 -10 -4 -16 -18 -16 -35 0 -32 -1 -32
55 -20 72 16 413 31 845 36 234 2 457 7 495 10 39 2 221 7 405 10 184 3 430 9
545 15 1014 46 2800 48 4120 5 77 -2 259 -7 405 -11 146 -4 274 -10 286 -15
18 -6 22 -19 28 -86 4 -43 22 -211 41 -373 42 -369 42 -365 60 -660 17 -261
43 -556 74 -810 12 -102 15 -157 8 -161 -25 -16 -1051 -14 -1507 3 -397 15
-1209 14 -1380 -2 -198 -17 -900 -24 -1200 -11 -146 7 -555 14 -910 17 -355 3
-751 11 -880 18 -205 11 -281 10 -595 -6 -198 -10 -431 -19 -518 -21 -144 -2
-160 -4 -173 -22 -8 -10 -14 -26 -14 -35 0 -36 51 -55 67 -25 7 11 42 16 168
20 88 3 219 9 290 15 293 22 570 30 705 20 74 -6 481 -15 905 -20 424 -4 876
-14 1005 -20 281 -15 868 -7 1175 15 271 19 711 19 1240 -1 290 -11 607 -14
1025 -12 l604 3 7 -30 c4 -16 12 -116 19 -221 6 -105 20 -276 31 -380 50 -476
58 -561 68 -739 6 -104 16 -323 21 -485 6 -162 19 -430 29 -595 19 -284 23
-403 37 -930 3 -121 5 -571 5 -1000 -1 -677 8 -1114 25 -1192 6 -29 40 -30 49
-2 4 12 4 40 1 62 -19 135 -26 420 -27 1242 -2 1154 -7 1360 -49 1965 -5 74
-14 284 -20 465 -12 367 -30 645 -60 906 -18 159 -35 337 -75 769 -7 85 -11
158 -7 162 4 3 189 9 412 13 223 3 479 10 570 16 282 17 944 32 1425 34 651 2
992 19 1255 61 119 20 491 23 1005 9 309 -8 748 7 772 27 17 13 17 44 1 50 -7
3 -51 0 -98 -5 -88 -10 -725 -15 -1265 -8 -292 3 -320 2 -475 -22 -215 -33
-574 -48 -1263 -52 -620 -4 -949 -11 -1187 -24 -269 -16 -424 -21 -812 -27
l-358 -5 -1 53 c0 29 -2 68 -4 86 -1 19 -6 68 -10 110 -3 42 -10 104 -15 137
-10 63 -42 454 -60 740 -6 94 -25 287 -41 430 -50 441 -59 528 -53 537 3 5 13
7 22 4 43 -12 310 -19 1267 -32 253 -3 507 -7 564 -9 57 -2 374 -6 705 -10
442 -5 612 -4 644 4 23 7 40 16 37 21 -9 15 -133 19 -685 25 -294 3 -645 8
-780 10 -135 3 -375 7 -535 10 -159 3 -463 8 -675 12 -212 4 -427 7 -477 7
l-93 -1 -4 31 c-2 17 -9 99 -15 181 -7 83 -23 222 -36 310 -72 460 -75 491
-90 810 -8 176 -22 382 -30 458 -9 76 -14 146 -10 156 3 11 -1 26 -10 35 -21
20 -29 20 -46 0z"/>
<path d="M20370 20779 c-1065 -85 -1538 -99 -3500 -101 -1390 -1 -1670 -5
-2120 -28 -124 -7 -362 -14 -530 -16 -168 -2 -308 -3 -312 -4 -18 -1 -6 -39
15 -47 27 -10 345 -6 632 7 352 16 458 22 510 26 73 6 1058 13 2390 18 1588 7
2221 28 2860 96 50 5 120 10 156 10 66 0 99 15 84 40 -7 11 -42 11 -185 -1z"/>
<path d="M4245 20663 c-188 -77 -357 -289 -451 -565 -46 -137 -58 -225 -51
-376 6 -146 26 -222 67 -264 31 -30 37 -32 59 -19 12 8 10 16 -11 48 -37 54
-48 101 -55 233 -10 200 25 365 115 545 105 212 288 364 437 365 65 0 139 -35
188 -88 62 -70 51 -116 -55 -218 -95 -92 -312 -259 -445 -343 -91 -57 -67 -88
93 -122 109 -23 174 -43 374 -116 194 -71 262 -110 281 -160 20 -54 -29 -130
-106 -163 -79 -34 -294 -79 -500 -104 -262 -32 -386 -55 -392 -72 -7 -20 50
-23 162 -8 61 8 148 19 195 25 325 37 440 59 538 104 113 52 180 132 169 203
-13 78 -85 129 -307 215 -155 60 -247 92 -359 121 -90 24 -109 32 -100 40 2 2
69 50 149 107 320 228 422 342 396 445 -11 41 -93 121 -159 154 -49 25 -72 30
-126 29 -37 0 -84 -7 -106 -16z"/>
<path d="M1198 20480 c-51 -40 -98 -157 -173 -435 -19 -71 -49 -157 -65 -189
-17 -32 -30 -66 -30 -75 0 -23 -59 -160 -82 -191 -20 -27 -17 -55 8 -64 35
-13 56 18 108 162 14 41 31 82 36 93 19 35 84 60 350 133 53 14 102 26 111 26
8 0 36 -43 68 -107 82 -166 236 -435 265 -462 54 -51 78 7 25 62 -17 17 -42
48 -54 67 -33 51 -245 441 -245 452 0 5 12 13 26 18 35 14 25 34 -19 38 -35 3
-39 7 -67 69 -17 36 -46 109 -65 162 -77 215 -104 261 -150 261 -12 0 -34 -9
-47 -20z m67 -71 c9 -16 32 -71 51 -122 19 -51 55 -136 80 -189 45 -97 48
-118 16 -118 -26 0 -287 -68 -329 -85 -20 -9 -40 -12 -44 -8 -5 5 5 49 21 98
16 50 36 119 46 155 45 174 99 300 129 300 8 0 22 -14 30 -31z"/>
<path d="M11720 20393 c-39 -8 -144 -58 -193 -92 -138 -95 -215 -329 -187
-566 6 -52 22 -136 36 -187 31 -116 106 -274 134 -283 44 -14 69 44 29 65 -58
32 -137 285 -146 470 -14 293 96 476 322 536 140 38 310 -17 330 -106 22 -100
-82 -198 -354 -335 -84 -42 -92 -48 -89 -72 5 -39 45 -62 138 -79 272 -49 414
-101 498 -181 54 -51 54 -75 1 -124 -51 -47 -116 -78 -249 -117 -253 -75 -458
-92 -588 -48 -39 14 -74 21 -77 16 -11 -18 9 -39 67 -70 l61 -33 146 6 c151 6
273 29 443 82 172 54 298 146 298 215 0 119 -192 235 -486 295 -151 31 -164
34 -164 43 0 4 35 25 78 46 170 84 275 164 313 238 11 21 19 58 19 86 0 116
-105 194 -270 198 -47 1 -96 0 -110 -3z"/>
<path d="M8795 20272 c-88 -18 -277 -359 -403 -727 -54 -160 -65 -250 -33
-279 33 -30 48 -8 54 82 15 226 307 872 394 872 8 0 21 -16 29 -36 25 -60 107
-382 101 -398 -4 -9 -29 -16 -69 -21 -82 -9 -259 -54 -277 -70 -15 -15 -7 -50
13 -58 7 -3 42 5 77 18 82 29 254 69 272 62 13 -5 60 -229 75 -357 6 -46 10
-55 29 -58 14 -2 23 3 27 16 7 20 -25 218 -50 316 -23 91 -20 97 61 115 51 12
71 21 73 34 3 16 -4 18 -83 15 l-87 -3 -33 141 c-71 304 -95 351 -170 336z"/>
<path d="M10591 20197 c-4 -4 -54 -21 -110 -36 -55 -16 -118 -40 -139 -53 -20
-14 -64 -40 -96 -59 -84 -49 -219 -179 -250 -241 -33 -66 -35 -146 -5 -215 62
-147 221 -211 453 -183 135 16 202 39 330 112 206 117 312 251 324 406 6 93
-8 131 -70 187 -69 62 -144 83 -306 87 -68 2 -127 -1 -131 -5z m296 -68 c42
-13 76 -33 110 -63 l48 -44 -1 -75 c0 -102 -40 -182 -133 -270 -127 -119 -271
-187 -437 -206 -191 -22 -342 15 -403 99 -33 46 -55 127 -45 168 24 100 131
208 277 281 123 62 173 71 240 42 40 -17 47 -24 47 -48 0 -15 3 -50 6 -78 l6
-50 -123 -1 c-146 -2 -242 -25 -247 -60 -6 -42 22 -49 96 -25 44 15 104 25
173 28 97 5 106 4 114 -13 4 -10 10 -71 12 -136 3 -64 9 -122 13 -128 12 -20
29 -3 40 41 10 37 9 75 -6 197 l-5 42 35 0 c46 0 86 16 86 34 0 11 -15 16 -62
18 -61 3 -63 4 -69 33 -13 58 -10 233 4 239 22 9 161 -6 224 -25z m-307 1 c0
-5 -6 -10 -14 -10 -8 0 -18 5 -21 10 -3 6 3 10 14 10 12 0 21 -4 21 -10z"/>
<path d="M10893 18860 c-220 -4 -305 -8 -314 -17 -23 -23 1 -28 114 -27 84 1
104 -1 79 -8 -36 -10 -50 -31 -33 -51 8 -11 55 -13 208 -11 229 2 345 11 369
29 40 29 5 34 -194 29 -108 -3 -224 -1 -257 4 -46 7 14 10 247 11 298 1 307 0
313 -19 12 -37 43 -38 215 -5 76 15 166 16 835 10 780 -7 1033 -15 1123 -36
45 -11 55 -11 62 2 14 21 -12 52 -56 67 -22 7 -111 15 -214 18 -245 7 -2131
10 -2497 4z"/>
<path d="M10951 18695 c-16 -19 -35 -54 -42 -77 -6 -24 -22 -64 -35 -90 -13
-26 -33 -93 -44 -148 -11 -56 -31 -147 -46 -202 -27 -110 -26 -148 6 -148 16
0 20 -7 20 -35 0 -24 5 -35 14 -35 8 0 17 3 20 8 2 4 15 78 27 164 22 151 24
156 43 146 16 -9 22 -7 31 8 24 44 136 127 143 106 19 -57 156 -202 191 -202
27 0 28 36 1 45 -21 7 -80 70 -124 134 -23 33 -26 44 -16 55 15 18 5 36 -19
36 -14 0 -29 25 -60 103 -23 56 -41 111 -41 123 0 20 -17 44 -31 44 -4 0 -21
-16 -38 -35z m49 -62 c0 -10 12 -58 27 -107 21 -69 24 -91 14 -94 -7 -2 -42
-24 -78 -48 -36 -24 -66 -44 -67 -44 -1 0 1 28 5 63 3 36 17 85 32 117 15 30
27 60 27 67 0 22 19 63 30 63 5 0 10 -8 10 -17z"/>
<path d="M1406 18699 c-60 -14 -154 -69 -213 -122 -101 -93 -161 -241 -149
-370 9 -102 48 -188 110 -244 80 -72 122 -87 246 -87 126 -1 175 16 307 103
164 108 233 208 241 347 4 67 1 87 -16 120 -46 89 -138 144 -284 169 -23 3
-39 12 -43 24 -6 21 -82 61 -127 66 -18 2 -50 0 -72 -6z m124 -54 c17 -9 30
-19 30 -24 0 -5 -24 -20 -53 -35 -66 -32 -106 -71 -89 -88 9 -9 23 -4 58 21
86 63 182 76 279 40 80 -30 112 -61 131 -126 19 -65 13 -141 -18 -210 -43 -97
-237 -248 -362 -280 -28 -7 -84 -13 -126 -13 -93 0 -162 29 -207 87 -54 67
-68 116 -68 233 0 99 2 110 33 172 77 157 288 277 392 223z"/>
<path d="M11553 18689 c-42 -12 -97 -78 -114 -137 -8 -26 -14 -89 -13 -142 0
-78 7 -119 37 -229 21 -74 36 -135 34 -137 -2 -2 -18 1 -36 7 -41 15 -65 -2
-39 -27 28 -29 99 -29 160 -2 61 28 212 140 233 172 7 11 17 49 21 83 6 61 6
63 -25 92 -18 17 -48 33 -67 37 -46 9 -50 19 -19 55 39 47 56 86 57 130 1 51
-21 75 -85 94 -56 17 -96 18 -144 4z m147 -64 c55 -28 36 -94 -48 -173 l-57
-54 24 -19 c14 -11 39 -19 62 -19 150 0 159 -123 17 -228 -51 -38 -138 -87
-142 -80 -6 11 -38 115 -56 183 -40 150 -22 326 38 382 20 18 36 23 79 23 30
0 67 -7 83 -15z"/>
<path d="M9450 18650 c-25 -5 -70 -18 -100 -29 -182 -66 -270 -120 -365 -223
-112 -121 -125 -211 -44 -302 61 -70 185 -110 334 -109 106 1 160 19 268 87
194 122 283 272 243 410 -31 106 -111 167 -226 172 -36 2 -85 -1 -110 -6z
m205 -56 c83 -42 111 -168 59 -271 -33 -67 -143 -171 -236 -222 -115 -64 -232
-73 -393 -30 -186 50 -177 217 20 365 39 30 77 54 84 54 7 0 38 16 69 35 51
30 61 33 95 26 48 -11 84 -35 92 -61 7 -22 44 -28 46 -7 4 38 -15 67 -65 98
l-29 17 44 11 c68 15 168 9 214 -15z"/>
<path d="M4920 18634 c-117 -23 -230 -94 -230 -145 0 -18 22 -9 61 24 52 45
134 85 189 93 l45 6 -50 -30 c-68 -41 -151 -130 -182 -198 -22 -48 -25 -66
-21 -128 9 -131 76 -238 190 -298 58 -30 182 -32 248 -3 123 54 272 205 300
304 32 117 -4 227 -97 292 -84 58 -168 81 -308 85 -66 1 -131 0 -145 -2z m347
-64 c107 -47 153 -110 155 -213 2 -90 -27 -149 -117 -236 -97 -94 -173 -131
-271 -131 -60 0 -77 4 -116 29 -55 35 -83 73 -108 147 -25 72 -25 156 -1 209
27 60 97 133 154 162 43 21 60 24 105 20 64 -7 82 -1 82 25 0 18 4 19 38 13
20 -3 56 -15 79 -25z"/>
<path d="M12216 18498 c-8 -29 -16 -64 -18 -78 -3 -22 -9 -25 -46 -28 -75 -5
-62 -62 14 -62 l31 0 5 -69 c6 -75 32 -134 62 -139 15 -3 18 1 13 25 -22 117
-27 156 -22 161 3 3 48 0 100 -7 103 -15 125 -11 125 18 0 22 -3 23 -120 46
-47 10 -90 21 -97 27 -8 6 -10 33 -6 84 5 64 4 74 -10 74 -11 0 -21 -17 -31
-52z"/>
<path d="M10330 18395 c-16 -19 -6 -45 19 -45 23 0 35 28 20 46 -15 18 -24 18
-39 -1z"/>
<path d="M30421 18226 c-13 -16 4 -26 45 -26 29 0 31 15 5 30 -26 13 -36 13
-50 -4z"/>
<path d="M11110 17849 c-74 -5 -171 -13 -216 -19 -44 -5 -98 -10 -121 -10 -51
0 -71 -20 -46 -45 15 -15 30 -17 113 -12 132 9 447 44 459 52 6 3 11 15 11 26
0 21 15 21 -200 8z"/>
<path d="M11666 17740 c-40 -35 -69 -93 -85 -170 -18 -86 -28 -267 -20 -354 7
-73 6 -81 -12 -94 -22 -16 -17 -32 12 -32 12 0 28 -14 40 -35 22 -36 55 -47
65 -21 3 8 -2 25 -11 39 l-16 25 65 30 c88 41 180 105 212 147 37 49 44 120
15 157 -21 26 -80 50 -153 63 -21 3 -38 9 -38 12 0 3 11 37 26 76 51 143 -8
237 -100 157z m71 -91 c-4 -29 -19 -73 -37 -105 -17 -29 -30 -64 -28 -76 3
-21 11 -24 93 -34 106 -13 124 -19 135 -50 21 -54 -61 -145 -188 -209 -68 -34
-88 -33 -96 6 -18 90 1 359 30 428 18 42 62 91 82 91 12 0 14 -10 9 -51z"/>
<path d="M9283 17745 c-13 -34 16 -671 32 -708 4 -10 15 -17 24 -15 19 4 20
103 5 493 -9 238 -9 240 -32 243 -14 2 -25 -3 -29 -13z"/>
<path d="M12216 17705 c-9 -24 -7 -76 3 -132 5 -26 12 -65 16 -86 l6 -37 -85
6 c-63 5 -90 3 -101 -6 -17 -14 -18 -20 -5 -40 7 -11 35 -16 102 -20 l93 -5
17 -98 c17 -103 28 -127 59 -127 23 0 24 20 5 75 -7 22 -16 63 -20 92 l-7 52
83 3 c75 3 83 5 83 23 0 18 -9 21 -79 27 -44 4 -83 11 -88 16 -5 5 -12 67 -16
138 l-7 129 -26 3 c-17 2 -29 -3 -33 -13z"/>
<path d="M11012 17678 c-26 -29 -35 -53 -82 -213 -20 -71 -47 -145 -58 -164
-12 -19 -18 -39 -15 -44 3 -5 6 -71 7 -147 1 -147 9 -174 50 -168 23 3 22 0 8
103 -5 33 -6 95 -3 139 l6 79 63 56 c70 62 182 129 182 108 0 -8 19 -60 43
-118 34 -83 47 -105 65 -107 31 -5 29 9 -23 134 -25 59 -45 111 -45 115 0 4
17 14 38 22 21 8 44 22 51 31 19 23 -10 32 -58 17 -21 -6 -41 -11 -45 -11 -3
0 -22 33 -42 73 -41 84 -69 117 -99 117 -12 0 -31 -10 -43 -22z m91 -117 c22
-40 37 -74 35 -75 -1 -1 -42 -24 -90 -49 -55 -29 -88 -42 -88 -34 0 25 52 192
66 215 9 13 21 22 27 20 7 -2 29 -37 50 -77z"/>
<path d="M1494 17639 c-91 -9 -135 -30 -187 -90 -23 -27 -50 -49 -60 -49 -28
0 -152 -125 -176 -176 -53 -112 4 -271 118 -328 181 -92 466 -21 665 165 120
112 163 224 120 315 -56 117 -253 184 -480 163z m278 -69 c188 -59 211 -202
55 -354 -78 -76 -166 -129 -282 -169 -76 -26 -105 -31 -190 -31 -113 -1 -141
9 -193 68 -48 55 -69 166 -40 219 21 40 70 96 107 122 32 21 44 24 84 19 39
-6 48 -4 53 11 7 17 -9 36 -40 49 -26 11 74 71 144 87 61 14 229 2 302 -21z"/>
<path d="M4860 17620 c-8 -15 -7 -27 3 -47 8 -16 18 -64 22 -108 9 -105 71
-423 86 -441 36 -44 36 30 -2 277 -11 74 -24 171 -29 216 -5 45 -14 91 -20
102 -14 27 -46 27 -60 1z"/>
<path d="M20349 17626 c-13 -13 -326 -47 -564 -61 -217 -13 -292 -45 -270
-115 9 -27 39 -25 59 4 29 45 96 56 461 76 99 5 219 15 268 21 80 11 88 14 94
37 3 15 1 27 -8 33 -15 9 -33 12 -40 5z"/>
<path d="M10335 17546 c-21 -32 -5 -66 30 -66 31 0 36 9 28 53 -7 44 -34 50
-58 13z"/>
<path d="M18153 17494 c-3 -9 6 -57 20 -108 32 -115 50 -203 43 -215 -3 -5
-41 -12 -83 -15 -225 -20 -303 -39 -303 -76 0 -30 23 -34 88 -17 31 9 93 21
137 26 44 6 101 13 126 17 l46 6 5 -112 c6 -117 15 -143 44 -119 14 11 16 30
13 123 l-4 109 78 17 c84 18 109 32 89 52 -8 8 -28 8 -81 0 -103 -18 -98 -20
-110 56 -17 99 -53 245 -64 260 -13 17 -36 15 -44 -4z"/>
<path d="M19734 17431 c-108 -66 -135 -199 -98 -483 17 -134 33 -170 60 -133
8 11 12 26 8 35 -15 38 -36 254 -32 335 3 76 8 98 31 137 55 94 170 106 245
25 43 -46 13 -81 -135 -160 -64 -35 -79 -47 -81 -69 -4 -34 25 -54 96 -68 29
-5 86 -19 127 -31 65 -19 75 -25 75 -45 0 -38 -93 -129 -172 -169 -101 -50
-169 -45 -254 20 -18 14 -40 25 -48 25 -45 0 15 -79 86 -114 75 -37 119 -34
218 15 131 66 242 190 226 255 -8 30 -37 45 -161 79 -55 15 -104 31 -108 35
-5 4 23 25 61 45 142 74 175 137 110 210 -17 20 -48 45 -69 56 -51 26 -143 26
-185 0z"/>
<path d="M16449 17406 c-2 -2 -66 -14 -142 -25 -147 -22 -226 -49 -257 -88
-20 -25 -17 -53 5 -53 7 0 38 15 69 34 39 24 80 38 129 46 194 32 259 53 243
78 -7 12 -38 16 -47 8z"/>
<path d="M18937 17399 c-25 -15 -59 -88 -103 -223 -21 -65 -43 -119 -49 -121
-58 -14 -70 -22 -70 -45 0 -18 6 -26 23 -28 12 -2 22 -7 22 -11 0 -13 -56
-143 -75 -177 -22 -37 -14 -67 17 -62 26 4 56 59 94 173 32 95 36 102 77 111
18 4 71 22 119 40 48 19 94 34 101 34 15 0 47 -106 47 -155 0 -32 28 -45 45
-21 14 19 11 35 -37 206 -64 229 -135 323 -211 279z m66 -67 c22 -24 77 -147
77 -171 0 -17 -19 -26 -107 -55 -76 -24 -109 -31 -111 -23 -4 18 76 228 95
249 20 22 26 22 46 0z"/>
<path d="M17044 17365 c-54 -27 -97 -83 -115 -150 -7 -23 -9 -89 -7 -160 6
-130 37 -255 80 -311 12 -16 15 -23 8 -16 -18 16 -47 15 -53 -2 -3 -7 0 -24 7
-37 11 -22 18 -24 88 -24 67 1 85 5 152 38 83 42 171 120 182 162 4 17 1 40
-10 61 -17 37 -66 64 -196 105 -38 13 -70 26 -70 31 0 4 23 19 52 34 28 14 75
50 105 79 46 47 53 59 53 94 0 33 -6 44 -36 69 -68 57 -160 67 -240 27z m187
-58 c19 -12 35 -31 37 -41 5 -24 -68 -92 -158 -147 -123 -75 -120 -94 25 -132
120 -32 189 -66 193 -94 8 -52 -155 -169 -224 -161 -66 7 -118 131 -131 313
-8 121 9 190 62 243 40 40 45 42 102 42 46 0 68 -5 94 -23z"/>
<path d="M14688 17364 c-14 -14 -8 -33 15 -49 13 -8 69 -20 127 -26 161 -17
396 -105 472 -177 61 -57 42 -130 -73 -282 -82 -108 -212 -297 -238 -345 -21
-40 -18 -65 8 -65 10 1 34 33 62 84 26 45 99 155 162 243 133 185 154 221 163
278 12 80 -31 128 -185 204 -126 63 -203 89 -336 112 -60 11 -123 22 -140 25
-16 3 -33 2 -37 -2z"/>
<path d="M16193 17225 c-35 -24 -63 -134 -79 -302 l-7 -72 -46 -7 c-70 -10
-91 -21 -91 -45 0 -21 3 -21 72 -15 l71 8 -7 -105 c-5 -87 -4 -106 9 -117 12
-10 18 -10 30 0 11 9 15 40 17 123 l3 112 55 6 c30 4 78 10 105 14 50 7 50 7
63 -27 21 -58 50 -98 67 -92 19 8 20 48 1 63 -8 6 -20 25 -26 42 -12 29 -11
32 15 53 37 30 30 61 -10 46 -15 -6 -30 -10 -34 -10 -5 0 -34 62 -66 138 -52
126 -95 202 -113 202 -4 0 -17 -7 -29 -15z m96 -204 c34 -74 59 -137 56 -139
-8 -8 -96 -21 -143 -21 l-43 -1 6 58 c9 85 35 233 41 244 10 16 21 -2 83 -141z"/>
<path d="M19464 17176 c-3 -8 -4 -25 -2 -38 2 -17 9 -23 28 -23 31 0 39 34 15
59 -20 20 -34 20 -41 2z"/>
<path d="M14180 17015 c-8 -10 -10 -19 -4 -25 20 -20 216 -70 310 -79 161 -15
451 24 485 66 20 23 -18 27 -100 10 -227 -49 -383 -45 -564 13 -109 35 -110
35 -127 15z"/>
<path d="M16660 16996 c0 -28 35 -45 53 -27 16 16 -3 45 -32 49 -17 3 -21 -2
-21 -22z"/>
<path d="M11890 16779 c-88 -31 -185 -42 -312 -36 -124 6 -182 -3 -193 -30 -8
-21 23 -46 45 -37 8 4 85 8 170 10 207 3 396 48 388 91 -4 24 -32 25 -98 2z"/>
<path d="M14865 16734 c-44 -7 -179 -18 -300 -24 -355 -18 -397 -25 -382 -64
7 -18 52 -21 112 -6 22 6 121 15 220 20 247 15 436 37 453 54 16 15 8 37 -11
35 -7 -1 -48 -8 -92 -15z"/>
<path d="M1522 16652 c-40 -40 -36 -155 3 -122 7 6 15 7 18 3 3 -5 7 -134 9
-288 3 -304 7 -275 -47 -352 -7 -10 -5 -18 9 -29 27 -19 33 -18 61 12 45 49
48 83 35 424 -7 189 -17 325 -24 340 -14 32 -40 36 -64 12z"/>
<path d="M11679 16571 c-54 -36 -102 -113 -126 -201 -14 -50 -18 -101 -17
-225 0 -150 2 -165 29 -245 16 -47 28 -95 27 -106 -2 -17 8 -27 40 -44 l42
-22 21 26 c11 14 27 26 35 26 26 0 142 64 216 118 105 76 144 144 144 253 0
61 -30 103 -99 142 -63 35 -119 39 -191 14 -24 -9 -46 -14 -48 -12 -2 2 12 36
32 76 44 87 49 160 15 203 -27 35 -64 34 -120 -3z m89 -76 c6 -68 -25 -141
-95 -228 -13 -16 -23 -37 -23 -47 0 -34 36 -32 111 5 94 48 159 55 217 26 112
-57 105 -185 -17 -289 -96 -83 -227 -152 -285 -152 -17 0 -27 12 -44 53 -34
85 -42 126 -49 247 -10 191 28 325 112 399 48 42 69 38 73 -14z"/>
<path d="M12318 16559 c-23 -13 -23 -60 -3 -166 8 -43 15 -79 15 -80 0 -1 -34
-1 -75 0 -81 1 -114 -14 -101 -49 5 -14 16 -16 69 -12 34 3 75 2 91 -1 28 -6
30 -10 53 -111 30 -137 41 -167 59 -174 41 -16 43 11 9 117 -14 42 -28 95 -31
117 l-7 40 45 0 c24 0 49 5 56 12 19 19 -6 38 -52 38 -22 0 -47 4 -54 8 -8 6
-15 48 -19 128 -7 138 -15 157 -55 133z"/>
<path d="M9232 16537 c-11 -13 8 -176 42 -342 24 -124 36 -276 29 -375 -5 -80
-4 -90 11 -90 9 0 22 12 28 28 17 41 14 310 -5 417 -9 50 -23 145 -31 213 -10
88 -19 129 -31 143 -21 22 -29 24 -43 6z"/>
<path d="M11037 16507 c-44 -67 -103 -260 -158 -511 -32 -151 -23 -224 28
-214 15 3 19 18 25 111 7 124 16 143 103 225 59 54 129 97 145 87 13 -8 60
-161 67 -218 6 -49 25 -69 45 -49 11 11 6 36 -48 202 -13 41 -24 80 -24 87 0
6 31 31 70 55 38 24 70 49 70 56 0 18 -13 15 -87 -18 -36 -16 -69 -30 -73 -30
-4 0 -24 44 -45 98 -21 53 -44 107 -52 120 -18 29 -47 28 -66 -1z m78 -141
c19 -41 35 -81 37 -90 2 -11 -25 -32 -82 -65 -46 -27 -86 -48 -88 -47 -13 13
73 276 90 276 5 0 24 -33 43 -74z"/>
<path d="M5040 16427 c-60 -14 -90 -28 -109 -51 -21 -25 5 -27 55 -4 63 29
194 31 269 4 103 -36 189 -108 226 -190 43 -94 12 -183 -102 -290 -124 -117
-231 -155 -376 -135 -96 14 -147 50 -190 132 -50 99 -22 208 80 304 70 67 127
95 180 91 37 -3 42 0 45 19 4 27 -28 43 -86 43 -74 0 -210 -116 -272 -231 -29
-53 -34 -74 -34 -124 1 -109 81 -217 200 -272 87 -40 252 -33 339 15 56 31
142 100 191 155 69 76 98 138 99 212 0 74 -22 123 -85 185 -116 114 -289 169
-430 137z"/>
<path d="M10361 16251 c-14 -25 -14 -27 5 -45 23 -24 56 -3 52 32 -4 34 -41
43 -57 13z"/>
<path d="M1592 15408 c-17 -17 -15 -144 3 -270 34 -238 47 -679 24 -803 -9
-49 -8 -60 5 -74 28 -27 44 4 57 114 18 149 6 560 -21 750 -13 88 -20 176 -17
212 4 60 -3 83 -28 83 -6 0 -16 -5 -23 -12z"/>
<path d="M5049 15383 c-18 -21 -19 -149 -3 -373 32 -442 54 -697 60 -713 7
-20 23 -23 25 -4 5 53 -5 384 -16 577 -17 271 -19 412 -6 457 16 54 -28 95
-60 56z"/>
<path d="M11825 15184 c-116 -60 -173 -207 -182 -469 -5 -142 -3 -170 16 -244
27 -109 70 -186 103 -187 13 0 34 -10 47 -23 46 -46 164 -11 261 76 48 43 95
114 84 126 -3 3 -35 -24 -70 -60 -73 -72 -158 -119 -202 -110 -96 20 -108 29
-146 112 -37 81 -50 172 -43 319 6 141 23 220 63 300 34 68 60 94 102 102 44
8 52 -4 52 -78 0 -79 -31 -154 -91 -223 -51 -59 -55 -71 -26 -89 12 -7 21 -6
34 6 39 35 116 68 160 68 82 0 160 -60 184 -140 10 -32 9 -55 -3 -117 -14 -71
-14 -75 1 -53 50 74 55 174 12 241 -47 75 -172 139 -242 124 -16 -4 -29 -5
-29 -2 0 3 12 36 26 73 22 59 25 79 21 139 -5 62 -10 73 -37 98 -35 31 -53 33
-95 11z"/>
<path d="M11136 15097 c-38 -49 -79 -157 -109 -284 -15 -61 -27 -118 -27 -126
0 -9 -12 -30 -26 -47 -24 -27 -25 -34 -14 -55 10 -19 10 -39 -3 -112 -15 -79
-21 -146 -18 -196 1 -14 8 -18 29 -15 26 3 27 5 34 83 8 89 27 222 35 241 8
22 235 144 267 144 15 0 18 -10 41 -135 16 -88 37 -117 64 -90 13 13 13 16 -1
32 -17 21 -30 54 -52 135 -22 78 -21 83 24 103 38 17 51 37 31 49 -5 3 -28 -1
-50 -9 -32 -11 -43 -12 -46 -2 -2 7 -16 59 -30 116 -35 140 -62 195 -97 199
-20 2 -32 -5 -52 -31z m114 -176 c22 -62 40 -118 40 -125 0 -11 -197 -106
-222 -106 -31 0 56 297 105 358 18 22 35 -6 77 -127z"/>
<path d="M9127 15042 c-96 -2 -119 -6 -124 -18 -8 -21 14 -34 55 -34 17 0 32
-2 32 -4 0 -3 -33 -38 -72 -80 -113 -116 -188 -260 -188 -362 0 -53 31 -150
65 -204 88 -140 310 -161 514 -48 214 118 326 256 339 415 13 161 -86 250
-329 298 -46 9 -104 22 -129 28 -26 7 -94 11 -163 9z m296 -97 c63 -14 133
-38 169 -57 81 -43 103 -79 103 -168 0 -118 -78 -235 -220 -329 -123 -82 -217
-115 -321 -114 -134 1 -227 67 -254 177 -15 64 -9 153 16 211 27 66 101 171
157 222 96 87 170 99 350 58z"/>
<path d="M10440 14670 c-6 -11 -10 -33 -8 -48 2 -21 8 -27 28 -27 23 0 25 4
25 45 0 34 -4 46 -17 48 -9 2 -22 -6 -28 -18z"/>
<path d="M13000 14385 c-20 -24 -2 -68 54 -136 65 -80 138 -139 391 -319 366
-262 654 -481 839 -640 49 -41 181 -150 294 -242 311 -251 507 -366 520 -305
2 10 -4 19 -15 23 -111 33 -345 204 -732 534 -172 146 -380 312 -491 390 -43
30 -129 94 -191 141 -63 47 -186 137 -274 199 -222 157 -335 269 -335 329 0
11 -9 25 -19 31 -25 13 -26 13 -41 -5z"/>
<path d="M18075 13739 c-287 -53 -360 -73 -485 -134 -185 -89 -268 -189 -234
-279 9 -23 34 -20 34 4 0 57 98 180 143 180 18 0 18 -1 -2 -26 -19 -24 -21
-40 -21 -144 0 -65 9 -184 20 -264 10 -81 22 -193 25 -249 8 -133 23 -207 40
-207 24 0 25 15 9 126 -16 113 -29 305 -40 579 l-6 160 48 41 c27 22 60 48 74
57 67 43 383 107 529 107 67 0 83 3 88 16 11 29 -25 44 -101 43 -39 -1 -93 -5
-121 -10z"/>
<path d="M24280 13664 c-8 -9 -18 -76 -25 -164 -10 -117 -20 -173 -45 -254
-32 -102 -34 -141 -7 -130 13 5 79 178 91 239 3 17 11 82 16 145 6 63 13 125
16 137 8 29 -28 50 -46 27z"/>
<path d="M23639 13624 c-10 -12 -15 -72 -20 -218 -5 -159 -11 -217 -28 -276
-25 -91 -26 -108 -5 -159 22 -56 66 -75 158 -69 119 8 250 89 295 182 28 56
28 125 1 154 -79 84 -193 62 -329 -65 -42 -38 -71 -59 -71 -50 0 9 6 44 14 79
8 35 17 126 20 202 3 77 9 155 12 173 4 20 2 39 -6 48 -16 19 -24 19 -41 -1z
m346 -409 c44 -43 29 -98 -47 -172 -58 -57 -139 -93 -206 -93 -58 0 -112 22
-112 46 0 8 40 55 89 104 133 133 222 170 276 115z"/>
<path d="M22679 13531 c-9 -31 -10 -80 -3 -194 6 -106 5 -194 -3 -292 -17
-197 -16 -245 2 -245 8 0 17 10 19 23 11 48 26 193 27 251 2 98 10 119 49 138
38 18 248 49 256 37 2 -4 -9 -17 -25 -29 -17 -11 -53 -54 -80 -96 -94 -141
-95 -234 0 -234 29 0 45 12 120 88 75 76 92 101 140 200 30 61 57 112 60 112
7 0 19 -129 19 -205 0 -58 18 -92 44 -82 15 6 17 15 11 57 -4 27 -10 107 -14
179 -7 131 -18 165 -47 154 -8 -3 -21 -18 -29 -33 -14 -27 -17 -28 -172 -44
-87 -10 -194 -24 -237 -32 -44 -7 -81 -12 -84 -10 -4 5 -4 204 0 256 3 30 0
35 -19 38 -18 3 -24 -4 -34 -37z m501 -275 c0 -20 -91 -154 -145 -214 -57 -63
-112 -99 -128 -83 -8 8 0 31 27 85 49 96 93 147 164 190 63 38 82 43 82 22z"/>
<path d="M20574 13515 c-17 -26 -33 -127 -34 -212 l0 -52 -74 -35 c-74 -36
-90 -53 -80 -81 7 -17 40 -20 49 -5 10 15 83 51 88 42 6 -11 -13 -191 -27
-257 -15 -64 -12 -85 11 -85 26 0 44 69 53 205 6 73 12 140 16 148 8 21 73 31
122 18 83 -23 132 -113 132 -245 0 -40 4 -55 16 -60 31 -12 37 5 32 104 -4 83
-9 105 -31 143 -49 83 -110 117 -211 117 l-49 0 6 73 c4 40 14 96 23 124 9 29
14 59 11 67 -9 24 -34 19 -53 -9z"/>
<path d="M24870 13523 c-88 -15 -258 -93 -329 -150 -55 -46 -78 -84 -92 -155
-11 -54 -13 -57 -48 -65 -26 -6 -36 -14 -36 -28 0 -16 8 -21 41 -23 36 -3 45
-9 75 -49 44 -63 83 -96 151 -133 77 -42 156 -68 257 -85 104 -19 153 -12 149
19 -3 18 -9 21 -48 18 -143 -10 -386 89 -449 182 -40 61 -39 62 109 112 161
54 260 101 331 160 87 71 109 134 64 179 -21 22 -33 25 -87 24 -35 -1 -74 -4
-88 -6z m139 -57 c10 -11 9 -21 -3 -44 -22 -42 -67 -77 -160 -124 -82 -41
-295 -118 -328 -118 -49 0 4 120 75 168 75 52 197 106 282 125 47 11 123 7
134 -7z"/>
<path d="M20801 13491 c-26 -26 -27 -53 -1 -76 22 -20 50 -14 50 10 0 9 16 23
36 31 52 22 43 48 -18 52 -37 2 -51 -1 -67 -17z"/>
<path d="M15021 13314 c-49 -62 -11 -310 85 -556 37 -96 42 -133 18 -142 -67
-26 -399 49 -601 135 -163 69 -220 82 -243 54 -19 -23 2 -40 67 -54 32 -7 99
-29 148 -48 208 -81 441 -136 588 -137 150 -1 150 -3 72 204 -62 166 -87 268
-93 381 -4 77 -1 104 12 129 12 25 13 36 5 46 -17 21 -35 17 -58 -12z"/>
<path d="M18315 13254 c-75 -157 -83 -321 -23 -441 47 -94 142 -120 229 -65
54 35 121 107 177 189 60 89 162 274 162 295 0 47 -34 5 -161 -195 -105 -167
-205 -267 -267 -267 -68 0 -107 56 -124 173 -11 83 -1 150 37 248 30 76 32 99
6 99 -12 0 -25 -13 -36 -36z"/>
<path d="M21646 13203 c-4 -43 -17 -113 -28 -155 -11 -42 -18 -84 -15 -92 14
-36 52 -16 136 68 98 98 177 145 216 128 37 -17 56 -54 86 -172 32 -127 44
-153 67 -148 20 4 20 1 -12 150 -37 178 -74 228 -166 228 -54 0 -91 -20 -174
-96 -39 -35 -71 -62 -73 -60 -2 2 1 33 7 68 6 35 10 84 8 108 -2 37 -7 46 -24
48 -20 3 -22 -3 -28 -75z"/>
<path d="M21212 13263 c-37 -15 -58 -137 -27 -163 20 -17 38 -2 31 26 -7 26
17 94 32 94 41 0 42 -142 2 -225 -27 -56 -93 -129 -112 -123 -25 9 -38 54 -38
136 0 52 6 96 15 119 13 31 13 39 2 50 -20 20 -44 6 -59 -35 -20 -56 -17 -229
5 -269 30 -56 92 -71 140 -33 41 33 100 130 114 189 24 106 12 210 -27 231
-20 10 -56 12 -78 3z"/>
<path d="M19265 13212 c-43 -27 -118 -113 -161 -185 -63 -105 -125 -188 -136
-181 -5 4 -7 20 -4 39 5 23 2 36 -10 46 -14 12 -19 10 -36 -11 -36 -45 -1
-141 54 -148 33 -4 59 27 140 166 106 180 215 274 248 213 6 -12 10 -98 10
-210 0 -205 7 -244 44 -239 13 2 19 9 16 18 -3 8 -5 110 -5 225 0 194 -2 213
-20 245 -18 31 -26 35 -65 38 -30 2 -55 -4 -75 -16z"/>
<path d="M19821 13198 c-25 -12 -73 -49 -107 -83 -74 -72 -91 -116 -74 -192
17 -75 50 -117 122 -152 142 -70 332 -46 448 57 35 32 42 43 33 53 -10 10 -19
7 -45 -13 -73 -56 -169 -88 -262 -88 -145 0 -268 109 -242 215 15 60 130 152
205 164 24 4 37 12 39 25 8 40 -50 47 -117 14z"/>
<path d="M18010 13155 c-119 -32 -281 -86 -362 -122 -39 -16 -48 -39 -26 -61
19 -19 44 -15 106 17 56 28 137 57 325 117 86 27 133 56 122 75 -9 13 -26 10
-165 -26z"/>
<path d="M18470 12389 c-366 -3 -696 -9 -735 -12 -38 -4 -149 -9 -245 -12
-259 -8 -388 -15 -559 -31 -85 -8 -191 -14 -236 -14 -58 0 -86 -4 -94 -14 -17
-20 -3 -45 28 -52 67 -13 112 -28 179 -60 78 -36 112 -43 112 -20 0 19 -18 31
-80 50 -79 25 -90 33 -60 40 14 2 57 7 95 10 39 3 117 10 175 15 468 46 2369
73 3120 46 657 -24 1370 -41 2130 -50 463 -6 796 -13 945 -21 61 -3 193 -7
295 -9 401 -7 991 -26 1240 -41 344 -20 441 -25 640 -35 124 -5 237 -14 252
-19 33 -10 64 9 55 34 -10 26 -55 38 -93 26 -22 -7 -96 -9 -216 -6 -247 8
-418 16 -448 21 -14 2 -95 7 -180 10 -85 4 -238 10 -340 15 -102 4 -293 9
-425 11 -334 4 -359 5 -635 13 -446 13 -513 15 -815 25 -165 6 -417 13 -560
16 -634 13 -1353 34 -1776 50 -481 18 -912 22 -1769 14z"/>
<path d="M19930 12045 c-13 -16 -8 -62 40 -335 30 -169 58 -451 70 -719 6
-130 15 -294 19 -366 4 -71 5 -133 2 -137 -4 -4 -92 -12 -196 -18 -105 -5
-239 -14 -300 -20 -60 -6 -240 -22 -400 -35 -621 -54 -934 -88 -1225 -134 -69
-11 -183 -25 -253 -30 -147 -13 -211 -35 -205 -74 3 -25 41 -35 62 -18 7 6 66
18 132 26 65 9 202 29 304 46 295 47 529 76 845 104 33 3 103 10 155 15 52 5
156 14 230 20 74 6 182 15 240 21 58 5 195 16 305 24 110 8 225 17 256 21 l56
6 6 -164 c4 -90 11 -273 17 -408 6 -135 17 -432 25 -660 17 -473 31 -644 90
-1095 14 -99 50 -447 91 -865 19 -186 16 -552 -4 -572 -17 -17 -15 -47 4 -55
31 -12 44 20 55 132 12 124 6 339 -17 580 -36 388 -67 683 -90 855 -56 424
-69 618 -100 1487 -8 249 -19 519 -23 600 -5 82 -5 151 -1 156 3 4 60 9 126
12 65 3 184 10 264 15 80 6 219 15 310 20 91 5 215 14 275 19 93 9 258 21 670
46 39 3 115 7 170 10 55 3 165 9 245 15 432 31 609 41 695 41 80 0 119 14 58
21 -21 2 -74 3 -118 1 -44 -1 -134 -4 -200 -7 -66 -2 -167 -6 -225 -9 -175
-10 -295 -16 -525 -27 -121 -6 -247 -12 -280 -15 -33 -2 -105 -6 -160 -10
-146 -8 -893 -53 -1080 -65 -88 -5 -177 -10 -197 -10 l-36 0 -7 168 c-22 559
-46 840 -96 1144 -16 98 -29 191 -29 206 0 26 -15 52 -31 52 -4 0 -12 -7 -19
-15z"/>
<path d="M22810 11971 c-79 -16 -143 -63 -232 -168 -135 -161 -216 -345 -244
-557 -14 -111 -9 -193 18 -250 18 -41 74 -57 205 -57 140 -1 241 24 389 96
118 57 214 145 214 197 0 47 -30 73 -121 105 -68 25 -87 27 -251 28 -98 1
-181 4 -185 8 -12 12 14 53 89 139 40 47 100 116 132 154 93 109 136 218 106
274 -8 16 -62 42 -79 39 -3 -1 -22 -4 -41 -8z m74 -73 c15 -43 -38 -136 -155
-268 -134 -153 -189 -227 -189 -255 0 -36 26 -55 78 -56 26 -1 110 -2 187 -4
141 -2 205 -14 273 -49 17 -9 32 -24 32 -33 0 -27 -83 -98 -152 -131 -228
-108 -269 -120 -438 -124 -95 -2 -95 -2 -92 22 3 15 -4 29 -19 40 -19 15 -23
29 -27 96 -7 135 29 297 100 439 103 206 259 360 358 353 27 -2 37 -9 44 -30z"/>
<path d="M21713 11613 c-21 -21 -64 -56 -96 -77 -60 -40 -136 -114 -168 -163
-11 -15 -26 -50 -36 -78 -9 -27 -26 -58 -39 -67 -36 -29 -46 -75 -34 -152 20
-124 56 -183 137 -222 46 -23 62 -26 110 -21 70 7 163 53 222 108 134 129 231
339 231 506 0 82 -10 117 -47 155 -28 30 -44 34 -165 43 l-77 6 -38 -38z m226
-28 c43 -22 55 -62 48 -163 -21 -336 -344 -651 -518 -505 -46 39 -72 98 -77
178 -4 65 -2 72 22 94 14 14 26 30 26 38 0 7 10 19 23 27 32 22 214 86 221 79
3 -4 6 -59 6 -123 0 -93 3 -120 15 -130 9 -7 18 -10 21 -7 3 3 5 64 5 136 -2
150 -13 134 116 171 69 20 92 34 79 48 -4 3 -35 0 -69 -8 -34 -7 -75 -15 -91
-18 l-29 -5 7 79 c4 44 12 84 17 89 32 32 132 44 178 20z m-249 -130 l0 -74
-42 -11 c-24 -6 -69 -18 -100 -27 -31 -8 -62 -13 -68 -11 -25 8 169 198 202
198 4 0 8 -34 8 -75z"/>
<path d="M20829 11579 c-49 -52 -80 -121 -156 -344 -48 -140 -113 -392 -113
-436 0 -32 21 -43 55 -27 26 12 34 45 15 64 -9 9 19 168 39 224 6 14 13 41 16
60 7 36 15 47 82 115 34 34 155 112 203 130 12 4 32 -32 88 -159 40 -91 81
-198 91 -238 19 -73 34 -89 55 -56 16 26 -23 143 -104 311 -38 80 -70 152 -70
161 0 8 10 18 23 22 53 16 127 57 127 70 0 20 -23 17 -90 -11 -33 -14 -65 -25
-72 -25 -7 0 -21 22 -30 48 -43 121 -101 153 -159 91z m98 -84 c40 -74 41 -89
3 -105 -16 -7 -64 -32 -107 -56 -42 -24 -80 -43 -84 -42 -11 4 65 183 97 229
16 23 34 39 43 37 9 -2 30 -30 48 -63z"/>
<path d="M18388 11433 c-26 -30 -48 -92 -76 -215 l-27 -116 -50 -34 c-37 -24
-51 -40 -53 -61 -5 -40 23 -47 55 -13 14 15 27 26 29 23 3 -3 -14 -148 -37
-304 -11 -75 -8 -93 15 -93 29 0 39 35 52 178 13 150 21 212 31 245 5 20 60
47 180 90 l73 27 14 -23 c29 -44 148 -312 160 -361 14 -55 37 -71 55 -37 14
25 -12 96 -106 292 l-66 140 21 15 c32 22 27 34 -13 34 -34 0 -36 2 -73 83
-49 105 -88 147 -134 147 -21 0 -41 -7 -50 -17z m85 -65 c36 -48 91 -158 83
-166 -9 -8 -209 -72 -213 -68 -12 11 45 200 73 244 19 30 29 28 57 -10z"/>
<path d="M26624 10875 c-8 -20 2 -32 33 -40 149 -37 551 -300 843 -550 152
-131 239 -193 338 -242 50 -25 92 -49 92 -53 0 -4 -18 -93 -39 -199 -68 -326
-121 -760 -121 -985 0 -135 -3 -141 -84 -187 -209 -119 -493 -331 -790 -587
-48 -43 -95 -81 -105 -86 -25 -15 -118 -94 -210 -179 -91 -85 -128 -113 -138
-104 -3 4 4 80 16 169 31 239 42 416 42 665 -1 212 0 222 19 228 26 8 26 31
-1 45 -15 9 -19 18 -15 38 3 15 13 101 21 192 8 91 20 208 25 260 5 52 16 187
25 300 8 113 20 233 26 268 6 35 13 84 14 110 5 79 17 136 33 155 13 14 14 22
5 36 -8 13 -9 38 -3 82 29 212 35 549 10 589 -4 7 -15 10 -24 7 -15 -6 -16
-22 -10 -143 8 -154 -13 -509 -30 -523 -12 -8 -117 -24 -274 -41 -133 -15
-586 -29 -717 -24 -118 6 -382 21 -504 30 -65 5 -173 -4 -263 -22 -23 -5 -28
-2 -28 14 0 12 -7 28 -16 36 -26 26 -68 19 -114 -19 -23 -19 -52 -35 -63 -35
-12 0 -76 -7 -142 -15 -280 -35 -752 -59 -1185 -60 -478 -2 -615 -13 -615 -50
0 -28 37 -30 133 -10 103 23 338 30 552 16 112 -6 220 -7 300 -1 69 5 179 11
245 15 323 16 471 27 585 44 135 20 150 18 150 -28 0 -15 6 -36 14 -47 11 -15
14 -61 13 -201 0 -157 -2 -183 -16 -189 -9 -3 -81 -8 -161 -11 -80 -2 -158 -9
-173 -15 -21 -8 -34 -8 -53 2 -17 10 -27 11 -35 3 -16 -16 4 -48 55 -82 68
-47 125 -123 197 -262 l66 -128 -24 -23 c-32 -30 -93 -154 -93 -189 0 -49 30
-107 66 -130 l35 -21 -3 -97 -3 -96 36 -18 c33 -16 49 -16 200 -5 90 6 252 12
359 13 229 2 510 19 560 34 19 6 48 11 63 11 16 0 61 13 101 29 40 16 106 34
147 40 41 6 115 23 164 38 73 21 111 26 200 27 l110 0 -3 -214 c-2 -118 -8
-262 -12 -320 -23 -275 -42 -431 -61 -500 -32 -118 -32 -117 -15 -123 9 -4 21
1 28 10 29 38 219 219 312 296 90 75 209 176 369 315 90 77 91 76 83 -80 -4
-73 -7 -266 -7 -428 1 -340 -13 -752 -34 -990 -8 -91 -18 -224 -21 -297 l-7
-131 -61 -8 c-34 -4 -74 -9 -91 -10 -135 -16 -453 -22 -1050 -19 -422 2 -742
-1 -805 -7 -58 -6 -133 -10 -167 -10 -66 1 -85 -10 -60 -35 19 -19 28 -19 243
1 156 15 215 16 420 7 222 -10 1065 -7 1269 4 141 8 308 26 327 36 20 11 25
51 33 264 4 83 11 184 16 225 17 132 30 532 34 1020 3 261 8 497 12 525 8 48
11 52 88 108 68 49 151 105 345 233 19 13 65 36 101 52 l66 30 6 198 c5 166
25 452 32 462 1 1 15 -5 32 -13 42 -21 324 -35 738 -36 352 -1 617 11 784 36
53 8 131 15 173 15 75 0 106 12 77 31 -22 14 -184 10 -289 -6 -183 -29 -528
-38 -966 -26 -365 9 -514 20 -536 40 -10 9 49 371 81 499 5 20 15 74 22 120
15 98 16 96 -86 138 -76 31 -209 115 -301 191 -188 156 -262 213 -439 337
-170 120 -262 177 -333 207 -40 16 -88 39 -105 50 -38 23 -75 25 -83 4z
m-1864 -775 c0 -5 -7 -10 -15 -10 -8 0 -15 5 -15 10 0 6 7 10 15 10 8 0 15 -4
15 -10z m1830 -42 c0 -13 -7 -61 -15 -108 -8 -47 -21 -166 -30 -265 -8 -99
-24 -282 -36 -407 -11 -124 -23 -289 -27 -365 l-7 -138 -75 -7 c-271 -26 -665
-84 -688 -101 -9 -7 -10 -13 -2 -21 19 -19 10 -24 -62 -31 -118 -11 -171 -24
-195 -46 -21 -21 -33 -22 -290 -25 -147 -1 -297 -7 -333 -13 -36 -6 -106 -11
-156 -11 -114 0 -119 4 -104 92 16 91 16 91 56 113 73 39 143 153 151 244 6
67 -7 89 -57 100 -29 6 -35 11 -32 32 1 13 43 105 92 205 92 185 103 218 73
212 -29 -5 -138 -203 -193 -350 -28 -76 -36 -88 -56 -88 -18 0 -28 12 -49 58
-76 162 -99 203 -155 272 l-60 75 138 6 c99 5 165 14 239 33 56 14 120 26 143
26 42 0 63 21 42 42 -10 10 -135 -2 -175 -18 -15 -6 -17 10 -17 170 l0 176 25
12 c22 10 85 90 85 107 0 3 26 6 58 7 31 0 89 1 127 2 39 2 183 -2 320 -7 498
-20 916 -11 1120 23 124 21 145 20 145 -6z m-1836 -62 c-7 -19 -34 -29 -34
-12 0 16 10 26 26 26 8 0 11 -6 8 -14z m-30 -981 c30 -30 -8 -137 -74 -208
-31 -35 -51 -47 -83 -52 -36 -7 -43 -5 -64 19 -14 17 -23 40 -23 60 0 38 29
109 61 150 l21 27 25 -23 25 -23 25 33 c28 35 62 42 87 17z m1736 -300 c7 -9
9 -19 5 -23 -4 -4 -10 -1 -12 6 -3 6 -12 12 -21 12 -9 0 -24 5 -32 10 -11 7
-8 10 16 10 17 0 37 -7 44 -15z m-320 -24 c0 -12 -85 -31 -167 -38 -107 -10
-72 13 45 29 59 9 110 16 115 17 4 0 7 -3 7 -8z"/>
<path d="M23187 10648 c-7 -4 -25 -5 -42 -2 -19 3 -37 -1 -50 -10 -18 -14 -8
-15 113 -16 74 0 211 -5 304 -11 152 -10 172 -9 186 5 10 10 13 19 7 25 -12
11 -502 19 -518 9z"/>
<path d="M22987 10644 c-12 -12 4 -24 34 -24 31 0 39 14 13 24 -20 8 -39 8
-47 0z"/>
<path d="M21773 10346 c-28 -13 -60 -33 -71 -43 -11 -10 -32 -26 -46 -36 -14
-10 -26 -24 -26 -31 0 -8 -6 -16 -14 -19 -8 -3 -30 -34 -49 -69 -33 -58 -41
-79 -68 -178 -6 -19 -14 -96 -19 -169 -9 -137 -3 -175 24 -165 17 7 30 -26 16
-40 -8 -8 -14 -7 -21 4 -16 23 -2 -151 17 -207 9 -27 23 -56 32 -65 18 -22 67
-23 114 -4 18 8 83 24 143 36 162 31 344 78 392 101 174 84 71 214 -299 380
-65 29 -118 55 -118 59 0 4 19 13 43 20 23 8 69 27 102 43 144 71 206 147 185
226 -15 57 -112 144 -184 165 -72 21 -92 20 -153 -8z m165 -35 c21 -11 57 -40
81 -66 40 -43 43 -51 38 -87 -10 -75 -127 -160 -285 -207 -69 -21 -87 -44 -53
-72 13 -10 35 -22 50 -25 30 -7 279 -130 343 -170 114 -71 137 -125 70 -169
-47 -31 -103 -48 -305 -90 -89 -19 -187 -40 -218 -46 -31 -7 -63 -10 -71 -7
-20 8 -32 117 -23 198 8 66 -4 97 -37 102 -21 3 -23 8 -22 65 3 180 21 276 73
395 24 56 88 129 134 153 18 9 43 23 57 31 36 20 124 18 168 -5z"/>
<path d="M26933 10281 c-65 -71 -123 -182 -123 -235 0 -41 18 -79 48 -103 21
-17 85 -16 125 1 85 39 168 163 187 279 6 43 4 52 -15 74 -18 22 -32 26 -98
31 l-77 5 -47 -52z m197 -17 c31 -36 -55 -197 -139 -261 -49 -38 -92 -42 -121
-13 -24 24 -27 82 -6 131 15 34 103 127 141 147 31 17 110 15 125 -4z"/>
<path d="M18925 10256 c-125 -27 -283 -123 -285 -173 0 -23 23 -14 60 21 19
19 70 53 112 76 64 34 90 42 150 47 111 8 191 -22 241 -89 68 -92 -10 -334
-157 -483 -109 -111 -308 -191 -414 -165 -80 19 -122 76 -122 166 0 57 19 103
70 167 102 130 231 207 356 215 76 5 101 18 90 47 -5 13 -17 14 -73 9 -38 -4
-93 -15 -123 -25 -124 -43 -286 -188 -342 -307 -72 -151 -13 -293 133 -324 75
-15 184 10 301 70 136 69 238 181 310 340 69 153 69 271 -1 341 -63 63 -193
92 -306 67z"/>
<path d="M31133 9882 c-6 -4 -19 -61 -28 -127 -15 -107 -19 -122 -42 -141 -28
-22 -27 -54 2 -54 12 0 15 -17 16 -92 1 -106 9 -143 29 -143 13 0 14 21 12
125 -3 93 0 129 10 141 15 18 106 56 158 65 40 8 62 22 54 35 -9 15 -79 10
-143 -10 l-61 -19 0 23 c0 13 7 58 16 100 13 65 14 80 2 91 -7 7 -18 10 -25 6z"/>
<path d="M30255 9585 c-81 -22 -229 -97 -233 -119 -3 -16 0 -18 22 -12 14 3
26 5 26 2 0 -2 -14 -34 -31 -70 -26 -57 -30 -73 -24 -115 14 -105 66 -145 179
-139 109 6 221 72 295 176 24 34 41 41 41 17 0 -44 43 -85 90 -85 46 0 130 43
190 98 62 55 140 161 140 189 0 25 -25 12 -58 -30 -106 -134 -192 -197 -269
-197 -38 0 -42 3 -53 35 -15 44 -6 103 27 174 26 59 27 84 1 89 -12 2 -20 -8
-28 -40 -23 -83 -25 -84 -79 -29 -38 39 -57 51 -100 60 -63 13 -73 13 -136 -4z
m175 -56 c43 -27 57 -45 65 -87 18 -95 -174 -262 -301 -262 -69 0 -100 13
-119 49 -46 90 7 197 139 283 52 33 66 38 120 38 45 0 70 -6 96 -21z"/>
<path d="M9433 9538 c-15 -17 -33 -206 -33 -332 0 -106 15 -157 52 -180 28
-17 31 -1 12 72 -17 65 -17 81 -4 219 19 199 19 227 -1 231 -9 1 -21 -3 -26
-10z"/>
<path d="M9690 9419 c-69 -9 -126 -18 -127 -18 -2 -1 -3 -10 -3 -21 0 -25 16
-25 157 -4 58 8 112 13 121 9 24 -9 10 -82 -53 -269 -66 -196 -66 -220 -6
-287 27 -31 42 -41 55 -36 21 8 14 38 -20 83 -32 42 -30 83 7 179 39 102 76
221 84 278 6 37 3 48 -17 69 -32 36 -54 37 -198 17z"/>
<path d="M8884 9396 c-3 -8 -2 -94 3 -191 6 -126 5 -179 -3 -186 -6 -5 -40
-11 -75 -15 -35 -3 -79 -7 -97 -10 -65 -10 -93 -74 -33 -74 15 0 67 9 116 20
50 10 93 16 97 12 4 -4 10 -67 14 -140 4 -73 11 -135 16 -138 5 -3 16 0 24 7
13 11 15 36 12 148 l-3 135 88 17 c91 18 141 41 134 62 -5 16 -57 14 -146 -6
-41 -9 -78 -14 -83 -11 -4 3 -8 85 -8 183 0 178 -4 201 -37 201 -8 0 -16 -6
-19 -14z"/>
<path d="M9984 9355 c-4 -8 -3 -23 2 -32 4 -10 10 -131 13 -270 6 -235 7 -253
27 -280 21 -28 74 -45 74 -23 0 7 -8 24 -19 38 -16 24 -19 54 -23 285 -5 229
-7 260 -23 277 -21 24 -43 26 -51 5z"/>
<path d="M8101 9338 c-5 -13 -14 -140 -21 -283 -6 -143 -18 -291 -25 -330 -33
-172 -103 -253 -183 -211 -63 33 -132 148 -132 222 0 47 -29 85 -47 62 -6 -7
-13 -77 -15 -155 -3 -133 -5 -143 -27 -167 -28 -30 -75 -34 -108 -11 -52 36
-71 227 -55 533 8 137 14 189 26 207 9 13 16 27 16 30 0 11 -48 4 -59 -9 -22
-26 -33 -188 -29 -430 5 -269 14 -320 68 -371 26 -25 39 -30 78 -29 27 0 59 8
74 18 33 21 58 82 58 141 0 53 9 57 34 14 97 -164 229 -166 305 -6 16 34 34
87 41 117 12 57 51 659 43 673 -9 15 -34 6 -42 -15z"/>
<path d="M10291 9271 c-61 -21 -107 -61 -98 -85 9 -24 47 -19 72 8 25 27 95
52 119 43 27 -11 18 -59 -31 -168 -33 -74 -47 -118 -47 -151 -1 -46 1 -49 66
-110 70 -66 84 -96 74 -151 -7 -37 -1 -48 19 -40 22 8 38 70 30 121 -6 41 -15
55 -71 108 -46 44 -64 68 -64 87 0 14 23 72 50 128 58 119 64 166 25 204 -29
30 -69 32 -144 6z"/>
<path d="M22105 9253 c-121 -15 -275 -53 -453 -112 -114 -37 -250 -79 -302
-91 -72 -18 -102 -30 -123 -52 -47 -46 -14 -78 40 -39 15 11 71 32 123 45 52
14 182 54 288 90 282 95 360 110 569 111 94 0 174 3 177 6 30 30 -190 59 -319
42z"/>
<path d="M26962 9207 c-8 -9 -10 -31 -6 -59 4 -25 1 -86 -6 -134 -25 -170 -10
-332 17 -196 45 219 54 394 22 400 -9 1 -21 -3 -27 -11z"/>
<path d="M31614 9010 c-34 -14 -100 -87 -133 -149 -42 -79 -60 -134 -77 -226
-26 -150 -12 -257 35 -263 21 -3 23 -1 16 25 -31 125 -4 335 60 461 29 57 86
109 128 117 50 10 67 1 67 -33 0 -31 -20 -62 -81 -127 -48 -51 -109 -144 -109
-167 0 -38 42 -66 125 -83 126 -24 194 -86 150 -135 -51 -56 -204 -90 -406
-90 -119 0 -141 -2 -146 -16 -3 -9 0 -20 8 -25 8 -5 86 -9 175 -9 128 0 177 4
239 20 206 53 253 151 119 250 -35 25 -95 46 -187 65 -55 11 -44 38 63 155 53
58 91 119 97 155 10 65 -67 106 -143 75z"/>
<path d="M29902 8939 c-72 -36 -190 -145 -220 -204 -79 -156 -64 -335 36 -438
49 -51 102 -77 169 -84 50 -5 55 -4 51 13 -2 13 -15 21 -45 26 -92 15 -166 81
-198 177 -24 74 -17 197 15 266 49 104 216 235 299 235 33 0 42 7 34 26 -9 24
-75 16 -141 -17z"/>
<path d="M8213 8934 c-6 -17 13 -350 23 -404 9 -43 39 -70 80 -70 67 0 123 48
160 136 l16 39 35 -40 c19 -22 46 -61 59 -87 24 -47 37 -57 48 -39 12 19 -26
110 -74 175 -28 38 -53 80 -55 93 -3 12 -7 34 -10 48 -6 28 -39 35 -49 9 -3
-9 -6 -47 -6 -86 0 -80 -17 -126 -62 -163 -37 -32 -75 -33 -88 -2 -6 12 -16
107 -22 212 -12 167 -15 190 -31 193 -9 2 -20 -4 -24 -14z"/>
<path d="M21750 8929 c-150 -44 -263 -363 -232 -656 14 -131 47 -286 72 -333
24 -49 73 -80 125 -80 102 0 190 49 331 183 156 148 200 237 156 317 -39 71
-168 130 -282 130 -33 0 -62 4 -65 10 -3 5 12 29 34 52 89 96 111 138 111 212
0 48 -4 60 -32 91 -55 64 -146 94 -218 74z m138 -71 c69 -42 80 -98 35 -186
-37 -73 -133 -175 -196 -209 -36 -19 -52 -34 -52 -48 0 -29 32 -31 79 -4 35
20 54 24 131 24 106 -1 156 -14 221 -58 66 -44 76 -74 44 -134 -31 -58 -205
-236 -282 -288 -59 -39 -128 -55 -181 -41 -32 8 -37 22 -26 79 4 26 6 54 3 62
-9 22 -34 18 -34 -5 0 -30 -19 -24 -26 8 -3 15 -8 33 -10 41 -12 38 -34 234
-34 302 0 169 65 376 139 443 28 26 91 45 126 39 17 -3 45 -14 63 -25z"/>
<path d="M30438 8923 c-14 -16 -63 -116 -127 -258 -10 -22 -42 -107 -71 -190
-86 -245 -103 -289 -118 -307 -18 -21 -12 -52 10 -56 25 -5 52 45 89 162 17
56 37 122 45 147 13 41 21 50 72 77 31 16 76 33 100 37 l42 7 0 -145 c0 -116
3 -146 14 -150 31 -12 38 19 34 165 l-3 143 64 16 c96 24 98 55 3 40 -33 -5
-55 -4 -62 3 -6 6 -10 65 -10 146 0 106 -3 140 -16 158 -18 26 -45 28 -66 5z
m36 -49 c3 -9 6 -76 6 -150 0 -99 -3 -136 -12 -138 -7 -2 -43 -13 -79 -25 -36
-12 -68 -21 -72 -21 -27 0 60 244 115 323 22 31 33 34 42 11z"/>
<path d="M18824 8906 c-3 -7 2 -38 10 -67 38 -132 62 -549 51 -887 -12 -392
-12 -377 5 -377 22 0 38 140 46 411 11 352 -21 877 -56 919 -16 19 -49 19 -56
1z"/>
<path d="M31055 8840 c-22 -5 -53 -13 -68 -19 -41 -16 -113 -77 -137 -116 -14
-23 -30 -35 -55 -39 -71 -14 -113 -124 -102 -270 9 -127 54 -176 158 -176 155
0 357 178 415 368 30 95 30 126 1 176 -36 64 -123 95 -212 76z m145 -59 c39
-28 52 -60 45 -115 -10 -83 -66 -189 -137 -260 -65 -65 -115 -102 -124 -94 -2
3 3 53 12 112 16 101 18 107 43 113 39 9 81 32 81 44 0 7 -20 10 -52 7 l-53
-3 -11 70 c-6 39 -14 82 -18 96 -8 27 -2 30 99 53 33 7 88 -4 115 -23z m-233
-156 l5 -51 -78 -21 c-44 -12 -83 -18 -88 -13 -13 13 41 111 88 160 l40 43 14
-34 c8 -18 16 -56 19 -84z m-187 -85 c0 -34 5 -52 14 -56 7 -3 46 4 84 16 39
12 76 18 83 14 11 -7 10 -45 -9 -179 l-7 -50 -55 -14 c-68 -17 -103 -5 -134
49 -35 59 -23 270 15 270 5 0 9 -23 9 -50z"/>
<path d="M9427 8663 c-4 -3 -7 -17 -7 -30 0 -12 -4 -23 -9 -23 -15 0 -21 -29
-11 -54 12 -31 38 -40 66 -21 30 19 31 58 4 103 -20 32 -30 38 -43 25z"/>
<path d="M10110 8628 c-26 -28 -21 -43 16 -43 24 0 30 5 32 26 4 36 -22 45
-48 17z"/>
<path d="M10145 8524 c-207 -10 -604 -48 -785 -74 -376 -55 -652 -106 -990
-181 -379 -84 -1352 -341 -1510 -398 -69 -25 -211 -84 -227 -94 -16 -10 -17
-57 -1 -57 6 0 61 25 122 55 93 46 170 72 481 161 584 166 1257 330 1660 403
263 48 740 110 900 117 55 2 127 9 160 14 33 5 165 13 293 17 228 6 233 6 247
-14 14 -20 55 -22 55 -3 0 18 39 18 241 5 116 -8 215 -12 220 -9 27 16 -21 26
-236 49 -56 6 -546 13 -630 9z"/>
<path d="M9301 8200 c-208 -53 -356 -108 -996 -370 -335 -137 -428 -180 -530
-249 -75 -51 -92 -81 -55 -101 18 -10 27 -4 78 46 31 31 75 66 97 77 53 28
219 104 275 127 25 9 171 68 325 130 387 155 602 233 790 288 120 36 161 52
163 65 5 23 -11 22 -147 -13z"/>
<path d="M8750 7584 c-30 -8 -113 -32 -185 -54 -71 -21 -149 -43 -172 -49 -36
-10 -43 -16 -43 -36 0 -36 28 -33 167 19 99 37 244 77 366 101 15 3 27 12 27
20 0 20 -84 19 -160 -1z"/>
<path d="M8677 7186 c-55 -20 -77 -44 -77 -81 0 -53 35 -57 73 -8 27 34 70 53
119 53 51 0 73 12 65 34 -8 21 -124 22 -180 2z"/>
<path d="M24114 6533 c-32 -23 -80 -171 -87 -265 -5 -70 7 -86 16 -21 12 101
41 204 63 228 13 14 27 25 31 25 23 0 77 -45 103 -86 26 -42 78 -173 93 -235
l7 -26 -155 4 c-140 3 -158 2 -195 -17 -44 -23 -54 -54 -19 -63 27 -7 25 -29
-25 -267 -19 -96 -36 -181 -36 -187 0 -24 28 -13 38 15 11 27 36 183 52 322
15 142 13 138 84 144 33 3 108 4 166 3 l105 -2 17 -90 c10 -49 20 -127 24
-172 7 -85 18 -109 44 -93 32 20 -45 407 -116 588 -29 72 -67 133 -107 170
-25 24 -84 38 -103 25z"/>
<path d="M28163 5885 c-14 -10 -29 -39 -39 -76 -15 -54 -22 -63 -51 -76 -41
-16 -42 -48 -3 -48 24 0 25 -4 35 -92 11 -94 25 -127 46 -106 8 8 8 22 0 49
-15 53 -14 136 2 157 10 14 36 18 142 23 146 6 222 17 278 41 63 27 41 44 -31
23 -58 -16 -362 -34 -374 -22 -13 13 3 59 33 93 14 17 16 25 8 36 -14 17 -20
16 -46 -2z"/>
<path d="M27360 5843 c-38 -67 -41 -74 -71 -165 -16 -49 -35 -126 -41 -171
-14 -104 -6 -239 16 -272 23 -34 41 -33 30 3 -17 54 -9 281 13 362 27 98 57
173 88 218 30 44 32 62 6 62 -12 0 -28 -15 -41 -37z"/>
<path d="M26699 5831 c-111 -64 -219 -154 -219 -183 0 -26 25 -35 123 -42 141
-10 207 -48 207 -117 0 -64 -41 -137 -124 -226 -98 -105 -134 -127 -186 -119
-42 7 -59 -6 -41 -28 32 -38 98 -14 202 73 121 101 191 211 192 303 1 92 -50
129 -208 150 -58 8 -100 18 -100 25 0 21 98 92 171 124 54 23 74 37 74 50 0
27 -35 23 -91 -10z"/>
<path d="M27075 5730 c-51 -21 -122 -137 -151 -245 -9 -34 -16 -107 -17 -170
-2 -99 0 -114 22 -151 28 -49 59 -69 110 -68 41 0 98 25 91 39 -3 6 -26 8 -52
7 -26 -2 -56 -1 -68 3 -32 10 -59 74 -66 161 -8 105 2 129 56 137 61 8 115 50
144 112 41 85 36 158 -11 176 -28 11 -31 11 -58 -1z m56 -66 c26 -71 -67 -184
-151 -184 -43 0 -10 93 60 168 46 49 76 54 91 16z"/>
<path d="M27880 5693 c-33 -12 -102 -77 -120 -113 -27 -53 -25 -93 7 -152 31
-56 64 -78 121 -78 48 0 115 26 109 43 -4 12 -13 12 -88 1 -46 -7 -91 28 -114
90 -15 39 -15 46 -2 73 19 37 82 81 139 97 25 8 44 20 46 30 3 13 -5 16 -40
15 -24 0 -50 -3 -58 -6z"/>
<path d="M27614 5665 c-17 -8 -54 -39 -82 -70 -93 -101 -103 -207 -27 -274 27
-24 45 -31 76 -31 33 0 40 3 37 18 -2 9 -14 18 -28 20 -23 3 -90 57 -90 73 0
4 17 16 38 26 38 18 127 126 158 191 26 56 -11 78 -82 47z m36 -49 c0 -27
-114 -156 -137 -156 -37 0 23 103 85 145 42 28 52 31 52 11z"/>
<path d="M31445 599 c-110 -4 -366 -12 -570 -18 -203 -6 -496 -18 -650 -26
-276 -15 -280 -15 -302 -40 -20 -20 -27 -23 -49 -15 -34 13 -44 13 -44 -3 0
-23 21 -36 45 -27 26 10 76 -5 120 -36 17 -12 41 -25 55 -29 l24 -8 -18 28
c-13 19 -15 30 -7 38 11 11 244 22 651 32 107 3 249 8 315 11 66 4 137 6 158
5 21 0 69 4 105 9 46 6 70 6 79 -2 10 -8 18 -7 31 5 20 18 52 23 229 32 l122
7 54 -51 c30 -28 56 -51 58 -51 5 0 8 24 9 63 1 11 -10 33 -22 49 -23 30 -27
31 -109 32 -46 1 -174 -2 -284 -5z"/>
<path d="M29579 526 c-2 -2 -94 -7 -204 -11 -258 -9 -302 -12 -316 -20 -16
-11 9 -25 45 -25 16 0 34 -8 41 -17 11 -15 13 -15 24 5 12 23 49 30 67 12 5
-5 24 -6 49 0 26 6 44 5 52 -2 10 -8 17 -6 27 7 12 16 17 17 57 5 70 -20 137
-24 162 -8 16 9 45 12 103 8 45 -3 88 -4 97 -2 16 3 30 39 19 46 -9 5 -217 7
-223 2z"/>
<path d="M28960 490 c-11 -7 -3 -10 28 -10 26 0 41 4 37 10 -8 13 -45 13 -65
0z"/>
<path d="M29568 424 c-11 -23 -10 -28 7 -40 11 -8 26 -12 33 -9 8 3 22 5 33 5
31 0 36 30 8 51 -35 27 -67 24 -81 -7z"/>
<path d="M32360 383 c-49 -12 -60 -17 -45 -23 11 -4 38 -6 60 -5 57 4 58 4 75
15 13 9 13 11 0 20 -8 5 -17 9 -20 9 -3 0 -34 -8 -70 -16z"/>
<path d="M31874 378 c-12 -19 14 -30 56 -23 49 8 48 11 -8 23 -27 7 -44 6 -48
0z"/>
<path d="M32535 380 c-3 -5 1 -10 10 -10 9 0 13 5 10 10 -3 6 -8 10 -10 10 -2
0 -7 -4 -10 -10z"/>
<path d="M32570 380 c0 -5 5 -10 10 -10 6 0 10 5 10 10 0 6 -4 10 -10 10 -5 0
-10 -4 -10 -10z"/>
<path d="M31465 362 c-33 -9 -60 -22 -60 -27 0 -11 127 -19 163 -10 17 4 22
12 20 28 -4 29 -43 32 -123 9z"/>
<path d="M32210 370 c0 -5 5 -10 11 -10 5 0 7 5 4 10 -3 6 -8 10 -11 10 -2 0
-4 -4 -4 -10z"/>
<path d="M32010 366 c0 -13 53 -27 64 -16 7 7 3 10 -11 10 -12 0 -28 3 -37 6
-9 3 -16 3 -16 0z"/>
<path d="M32148 353 c7 -3 16 -2 19 1 4 3 -2 6 -13 5 -11 0 -14 -3 -6 -6z"/>
<path d="M30968 338 c-60 -21 -18 -53 55 -41 45 7 48 27 6 42 -18 6 -32 11
-33 10 -1 0 -13 -5 -28 -11z"/>
<path d="M31167 338 c-37 -13 -25 -28 24 -28 27 0 39 4 39 14 0 11 -24 29 -33
25 -1 0 -14 -5 -30 -11z"/>
<path d="M30050 333 c-43 -5 -80 -22 -80 -38 0 -7 14 -18 30 -25 17 -7 36 -20
43 -30 8 -11 40 -21 100 -29 57 -9 90 -18 96 -28 10 -18 111 -32 111 -15 0 5
-13 24 -29 41 -26 28 -35 31 -88 31 -32 0 -63 4 -69 8 -5 4 -17 25 -25 47 -16
42 -23 46 -89 38z"/>
<path d="M30682 330 c-41 -10 -46 -15 -38 -36 6 -14 17 -16 83 -11 83 6 104
17 83 42 -13 16 -71 19 -128 5z"/>
<path d="M29182 288 c5 -32 28 -35 28 -4 0 17 -5 26 -16 26 -10 0 -14 -7 -12
-22z"/>
<path d="M29240 300 c0 -5 5 -10 10 -10 6 0 10 5 10 10 0 6 -4 10 -10 10 -5 0
-10 -4 -10 -10z"/>
<path d="M29330 300 c0 -5 5 -10 10 -10 6 0 10 5 10 10 0 6 -4 10 -10 10 -5 0
-10 -4 -10 -10z"/>
<path d="M31350 293 c-667 -30 -793 -38 -797 -48 -2 -6 9 -24 25 -41 24 -26
32 -29 70 -26 34 3 45 9 52 27 16 42 107 47 161 9 30 -21 44 -24 73 -18 21 3
41 15 47 26 9 16 18 19 52 15 23 -2 56 -10 73 -17 28 -12 33 -11 52 8 27 27
41 27 91 1 44 -23 62 -19 54 10 -6 25 26 30 232 33 154 3 161 2 183 -19 41
-42 66 -20 32 27 -18 26 -27 30 -63 29 -23 -1 -175 -8 -337 -16z"/>
<path d="M32569 280 c-19 -12 6 -20 40 -14 39 8 40 21 1 21 -16 0 -34 -4 -41
-7z"/>
<path d="M32445 275 c-5 -2 -67 -7 -137 -10 -71 -4 -128 -11 -128 -16 0 -5 24
-7 53 -5 28 3 107 8 175 11 67 4 125 11 128 16 5 8 -69 12 -91 4z"/>
<path d="M29520 256 c0 -18 17 -29 30 -21 8 5 7 11 -1 21 -15 18 -29 18 -29 0z"/>
<path d="M32138 243 c7 -3 16 -2 19 1 4 3 -2 6 -13 5 -11 0 -14 -3 -6 -6z"/>
<path d="M28785 230 c-13 -21 9 -29 65 -21 l55 7 -42 7 c-23 4 -48 10 -56 13
-8 3 -18 0 -22 -6z"/>
<path d="M29633 233 c-24 -5 -35 -25 -27 -48 8 -19 19 -19 38 1 13 12 24 58
14 53 -2 -1 -13 -4 -25 -6z"/>
<path d="M28575 222 c-17 -17 3 -23 65 -20 39 1 70 6 70 10 0 4 -8 8 -17 9
-10 0 -39 2 -65 4 -26 1 -50 0 -53 -3z"/>
<path d="M28940 220 c0 -5 5 -10 10 -10 6 0 10 5 10 10 0 6 -4 10 -10 10 -5 0
-10 -4 -10 -10z"/>
<path d="M29028 223 c7 -3 16 -2 19 1 4 3 -2 6 -13 5 -11 0 -14 -3 -6 -6z"/>
<path d="M28425 213 c-58 -9 -50 -23 12 -23 67 0 96 7 87 21 -5 9 -43 10 -99
2z"/>
<path d="M29862 208 c3 -7 15 -14 29 -16 24 -4 24 -3 4 12 -24 19 -38 20 -33
4z"/>
<path d="M28323 193 c9 -2 23 -2 30 0 6 3 -1 5 -18 5 -16 0 -22 -2 -12 -5z"/>
<path d="M31740 189 c-14 -6 -117 -12 -230 -15 l-205 -4 -3 -35 c-3 -29 0 -35
16 -35 23 0 37 -29 22 -44 -8 -8 -16 -4 -29 13 -12 16 -21 20 -25 12 -4 -6
-21 -18 -38 -27 -36 -19 -78 -6 -102 31 -14 22 -17 22 -53 10 -22 -8 -40 -21
-42 -32 -6 -29 -23 -33 -57 -12 -17 10 -35 19 -41 19 -9 0 -43 -52 -43 -65 0
-4 69 -4 153 -1 174 7 198 9 212 17 6 4 32 10 58 13 38 6 50 12 57 32 13 33
53 47 120 41 30 -3 95 -7 144 -10 63 -4 93 -10 105 -21 15 -15 14 -17 -7 -22
-24 -7 -30 -24 -8 -24 8 0 16 -7 20 -15 3 -8 16 -15 30 -15 22 0 26 6 31 44 8
50 0 100 -21 134 -16 24 -26 26 -64 11z"/>
<path d="M28020 180 c0 -12 17 -12 45 0 17 7 15 9 -12 9 -18 1 -33 -3 -33 -9z"/>
<path d="M28258 183 c7 -3 16 -2 19 1 4 3 -2 6 -13 5 -11 0 -14 -3 -6 -6z"/>
<path d="M27700 170 c-13 -8 -12 -10 3 -10 9 0 17 5 17 10 0 12 -1 12 -20 0z"/>
<path d="M27750 170 c0 -5 7 -10 16 -10 8 0 12 5 9 10 -3 6 -10 10 -16 10 -5
0 -9 -4 -9 -10z"/>
<path d="M27888 173 c12 -2 30 -2 40 0 9 3 -1 5 -23 4 -22 0 -30 -2 -17 -4z"/>
<path d="M31195 150 c-10 -32 12 -51 31 -25 17 23 14 39 -8 43 -10 2 -19 -6
-23 -18z"/>
<path d="M26926 143 c-3 -3 -3 -10 0 -14 7 -12 34 -11 34 0 0 11 -26 22 -34
14z"/>
<path d="M27208 143 c6 -2 18 -2 25 0 6 3 1 5 -13 5 -14 0 -19 -2 -12 -5z"/>
<path d="M30616 141 c-3 -5 -2 -21 4 -36 5 -14 10 -44 10 -66 l0 -39 99 0 c91
0 101 2 115 22 8 12 13 24 11 28 -2 3 -30 3 -62 -1 -110 -14 -105 -16 -101 44
l3 52 -37 3 c-20 2 -39 -1 -42 -7z"/>
<path d="M30835 138 c-59 -21 -60 -22 -28 -26 19 -2 39 -12 48 -25 16 -22 16
-22 30 -3 18 24 19 38 3 54 -14 14 -12 14 -53 0z"/>
<path d="M30990 135 c0 -8 5 -15 10 -15 6 0 10 7 10 15 0 8 -4 15 -10 15 -5 0
-10 -7 -10 -15z"/>
<path d="M32613 143 c-20 -8 -15 -23 7 -23 11 0 20 7 20 15 0 15 -6 17 -27 8z"/>
<path d="M29015 129 c-261 -9 -565 -23 -995 -45 -173 -8 -328 -15 -345 -15
-29 0 -473 -22 -687 -35 -60 -4 -108 -10 -108 -14 0 -9 404 5 755 25 106 6
501 22 855 35 447 16 543 20 724 31 92 5 171 7 175 4 3 -4 6 -16 6 -28 0 -17
11 -25 60 -40 l60 -18 30 34 c17 19 41 37 54 39 14 1 26 8 28 13 2 6 -32 10
-89 10 -51 0 -140 3 -198 6 -58 3 -204 2 -325 -2z"/>
<path d="M32375 127 c-77 -4 -147 -8 -155 -8 -8 0 -28 -3 -45 -6 -29 -6 -29
-6 -7 -14 40 -15 412 13 412 31 0 9 0 9 -205 -3z"/>
<path d="M30268 123 c-32 -5 -33 -6 -13 -41 8 -15 19 -39 25 -54 9 -26 13 -28
70 -28 l61 0 -7 38 c-4 20 -13 49 -21 65 -14 28 -36 32 -115 20z"/>
<path d="M25865 81 c-3 -5 0 -13 5 -16 16 -10 62 4 55 15 -8 13 -52 13 -60 1z"/>
<path d="M25517 68 c-23 -14 4 -21 79 -20 85 1 168 11 160 20 -8 8 -226 8
-239 0z"/>
<path d="M25795 70 c3 -5 12 -7 20 -3 21 7 19 13 -6 13 -11 0 -18 -4 -14 -10z"/>
<path d="M31490 70 c0 -5 7 -10 15 -10 8 0 15 5 15 10 0 6 -7 10 -15 10 -8 0
-15 -4 -15 -10z"/>
<path d="M32076 67 c-27 -20 -18 -61 14 -65 20 -2 28 3 36 26 9 25 8 31 -7 40
-23 15 -21 15 -43 -1z"/>
<path d="M25449 49 c16 -6 28 -6 35 1 7 7 -1 10 -24 9 -33 0 -34 -1 -11 -10z"/>
<path d="M28780 50 c0 -5 14 -10 32 -10 36 0 35 4 -4 14 -17 4 -28 2 -28 -4z"/>
<path d="M25160 40 c-10 -6 -2 -7 25 -3 49 7 58 13 19 13 -16 0 -36 -5 -44
-10z"/>
<path d="M25285 40 c8 -13 32 -13 40 0 4 6 -5 10 -20 10 -15 0 -24 -4 -20 -10z"/>
<path d="M28570 40 c-11 -7 -7 -10 18 -10 17 0 32 5 32 10 0 13 -30 13 -50 0z"/>
<path d="M28630 40 c0 -13 47 -13 55 0 4 6 -7 10 -24 10 -17 0 -31 -4 -31 -10z"/>
</g>
</svg>
