<?xml version="1.0" standalone="no"?>
<!DOCTYPE svg PUBLIC "-//W3C//DTD SVG 20010904//EN"
 "http://www.w3.org/TR/2001/REC-SVG-20010904/DTD/svg10.dtd">
<svg version="1.0" xmlns="http://www.w3.org/2000/svg"
 width="3264.000000pt" height="2448.000000pt" viewBox="0 0 3264.000000 2448.000000"
 preserveAspectRatio="xMidYMid meet">
<metadata>
Created by potrace 1.12, written by Peter Selinger 2001-2015
</metadata>
<g transform="translate(0.000000,2448.000000) scale(0.100000,-0.100000)"
fill="#000000" stroke="none">
<path d="M21000 24470 c0 -6 13 -37 29 -68 17 -31 41 -83 55 -114 15 -36 31
-58 41 -58 35 0 28 28 -51 207 -16 35 -24 43 -46 43 -16 0 -28 -5 -28 -10z"/>
<path d="M28810 24467 c0 -18 38 -88 64 -115 104 -115 332 -123 493 -19 44 29
153 130 153 142 0 3 -20 5 -44 5 -35 0 -50 -6 -75 -29 -69 -64 -192 -113 -291
-115 -75 -1 -163 42 -205 101 -24 34 -36 42 -62 42 -20 1 -33 -4 -33 -12z"/>
<path d="M31250 24470 c20 -13 60 -13 60 0 0 6 -17 10 -37 10 -28 0 -34 -3
-23 -10z"/>
<path d="M6635 23240 c-27 -4 -66 -14 -86 -23 -72 -30 -158 -127 -180 -201
-44 -148 -71 -297 -67 -381 8 -235 31 -370 77 -469 16 -34 33 -73 40 -89 16
-40 52 -50 166 -44 84 4 118 11 215 45 358 126 544 220 585 296 23 43 7 99
-33 115 -80 32 -285 58 -463 58 -136 1 -169 6 -169 29 0 12 98 84 114 84 10 0
94 61 161 117 39 32 85 81 103 108 31 45 34 55 30 108 -4 53 -8 61 -53 107
-99 101 -295 163 -440 140z m174 -76 c120 -30 233 -92 246 -134 15 -47 -107
-172 -300 -311 -66 -47 -145 -98 -175 -113 -64 -32 -90 -59 -90 -92 0 -49 19
-51 394 -59 192 -4 355 -9 362 -12 24 -9 15 -41 -18 -67 -76 -57 -526 -233
-645 -252 -40 -6 -46 -4 -85 31 -90 80 -113 173 -112 440 1 173 4 199 28 288
40 149 76 208 150 252 75 44 149 53 245 29z"/>
<path d="M4794 23010 c-57 -23 -176 -219 -224 -369 -10 -33 -24 -69 -30 -80
-5 -11 -33 -109 -61 -218 -54 -210 -81 -276 -115 -281 -26 -4 -30 10 -43 135
-6 48 -17 142 -25 208 -8 66 -19 169 -26 228 -20 191 -60 277 -129 277 -61 0
-132 -68 -177 -167 -55 -122 -123 -317 -152 -438 -18 -71 -41 -160 -52 -196
-25 -83 -25 -111 0 -134 20 -18 21 -18 48 2 23 17 29 33 43 109 50 279 181
656 253 723 39 37 61 22 74 -53 7 -35 12 -80 12 -100 0 -35 9 -111 46 -376 23
-158 61 -310 87 -337 39 -43 99 -18 136 55 20 38 62 175 101 322 86 325 206
603 253 587 13 -4 25 -47 56 -192 26 -123 107 -433 129 -492 13 -34 24 -49 39
-51 37 -5 44 26 21 103 -31 109 -72 274 -112 455 -62 276 -80 309 -152 280z"/>
<path d="M5530 22969 c-169 -45 -280 -130 -280 -214 1 -36 15 -57 55 -78 35
-18 158 -35 225 -32 367 18 364 18 425 1 76 -22 122 -51 146 -90 26 -43 24
-71 -12 -146 -60 -127 -255 -288 -370 -306 -58 -9 -79 -21 -79 -44 0 -29 46
-54 100 -54 92 0 241 95 343 219 114 137 137 240 81 352 -32 64 -64 90 -152
124 -63 25 -181 29 -488 19 -119 -4 -154 -2 -167 9 -57 47 54 132 230 177 63
16 80 17 133 6 66 -14 80 -11 80 19 0 57 -129 75 -270 38z"/>
<path d="M11391 22703 c-16 -32 -40 -74 -53 -93 -13 -19 -44 -64 -68 -99 -24
-35 -90 -123 -147 -195 -179 -225 -207 -298 -147 -373 17 -21 48 -48 70 -60
52 -30 181 -69 271 -82 193 -29 453 6 453 60 0 29 -19 32 -110 15 -202 -39
-494 1 -578 79 -33 30 -37 38 -35 79 2 51 39 118 119 216 62 76 117 150 199
269 125 181 129 189 116 217 -7 16 -19 24 -36 24 -20 0 -30 -11 -54 -57z"/>
<path d="M13445 22700 c-73 -11 -164 -41 -221 -75 -140 -82 -242 -311 -280
-630 -25 -214 -18 -265 36 -265 42 0 50 23 50 137 0 92 18 218 54 393 36 171
146 321 259 355 142 43 309 38 433 -11 79 -32 149 -77 165 -105 29 -55 -24
-84 -246 -134 -318 -72 -378 -93 -383 -136 -5 -44 33 -74 205 -162 217 -110
260 -135 425 -246 180 -120 193 -145 90 -171 -102 -26 -685 -33 -787 -10 -85
20 -147 6 -126 -29 20 -32 214 -52 505 -52 255 0 419 16 517 48 47 16 54 22
57 46 4 36 -8 50 -131 149 -159 127 -353 245 -537 327 -78 34 -120 65 -120 88
0 20 50 38 160 58 153 28 403 94 430 114 37 26 37 64 1 120 -52 81 -160 150
-281 179 -66 16 -206 22 -275 12z"/>
<path d="M12615 22690 c-194 -30 -405 -145 -405 -221 0 -43 61 -104 197 -195
184 -124 313 -265 313 -343 0 -33 -50 -83 -100 -100 -18 -6 -76 -16 -128 -22
-128 -14 -187 -1 -252 58 -50 45 -88 55 -109 29 -10 -11 -9 -21 3 -44 36 -70
143 -111 289 -112 155 0 308 46 356 106 26 33 29 120 5 167 -49 97 -184 226
-334 321 -89 57 -140 103 -140 127 0 28 48 78 99 103 51 25 181 62 252 71 53
7 90 28 74 43 -16 15 -66 20 -120 12z"/>
<path d="M14824 21190 c-30 -12 -33 -23 -56 -220 -22 -192 -21 -402 3 -755 17
-244 17 -1000 1 -1240 -13 -183 -27 -335 -56 -610 -8 -71 -20 -188 -26 -260
-6 -71 -16 -174 -21 -229 -5 -54 -9 -133 -9 -176 0 -109 -9 -130 -57 -130 -21
0 -54 4 -73 10 -19 5 -107 14 -195 21 -88 6 -176 13 -195 14 -184 15 -339 27
-525 40 -121 9 -272 20 -335 25 -63 5 -198 14 -300 20 -102 6 -239 15 -305 20
-66 5 -199 14 -295 20 -366 22 -929 61 -1025 70 -55 6 -172 14 -261 20 -88 5
-174 14 -190 21 -51 19 -216 38 -436 49 -117 5 -262 14 -323 20 -60 5 -414 10
-785 11 -731 1 -1090 16 -1490 59 -47 5 -150 14 -230 20 -80 5 -233 19 -340
30 -107 11 -283 27 -390 35 -107 9 -244 20 -305 25 -239 21 -390 30 -615 35
-327 7 -705 24 -830 37 -190 19 -458 25 -925 21 -552 -5 -701 -13 -827 -47
-119 -32 -127 -35 -138 -57 -13 -23 -13 -25 6 -43 21 -22 57 -20 104 4 90 46
202 55 837 66 l352 6 23 -25 23 -25 285 10 c324 12 623 2 1272 -43 86 -6 160
-9 165 -6 4 3 64 -1 133 -8 69 -8 247 -21 395 -30 382 -22 725 -52 1100 -94
94 -11 242 -23 330 -27 88 -3 176 -8 195 -9 110 -9 488 -16 1030 -20 338 -2
658 -8 710 -13 52 -6 165 -13 250 -17 85 -3 202 -13 260 -21 58 -8 164 -19
235 -24 72 -5 186 -14 255 -20 69 -6 190 -15 270 -20 80 -5 179 -12 220 -15
165 -11 387 -26 620 -40 135 -8 340 -22 455 -30 116 -8 343 -24 505 -35 162
-11 468 -33 680 -50 346 -27 523 -39 617 -40 50 0 57 -23 44 -143 -10 -104
-12 -140 -33 -772 -12 -363 -17 -1720 -8 -2025 l5 -165 -46 1 c-25 0 -70 5
-100 12 -30 7 -108 19 -174 28 -229 30 -581 88 -915 150 -74 14 -184 34 -245
44 -60 11 -186 33 -280 50 -93 16 -289 50 -435 75 -146 25 -312 54 -370 65
-58 11 -150 26 -205 35 -55 9 -136 22 -180 30 -44 8 -217 35 -385 60 -168 25
-348 52 -400 60 -52 8 -133 19 -180 24 -47 6 -193 24 -325 41 -132 16 -288 34
-347 40 -58 6 -126 12 -150 15 -118 12 -522 46 -668 55 -303 20 -459 30 -612
40 -84 6 -236 15 -338 20 -454 22 -604 32 -735 45 -77 8 -180 17 -230 20 -49
3 -110 7 -135 10 -25 3 -126 10 -225 15 -99 6 -209 13 -245 15 -36 2 -150 9
-255 15 -512 28 -731 41 -850 50 -71 6 -159 13 -195 15 -36 3 -117 9 -180 15
-63 6 -234 19 -380 31 -454 34 -489 37 -740 64 -565 59 -943 71 -1267 39 -181
-18 -221 -31 -202 -65 11 -22 26 -23 121 -9 91 13 597 19 783 10 83 -5 224
-16 315 -25 91 -9 183 -18 205 -20 64 -5 381 -34 490 -45 55 -6 172 -15 260
-20 88 -6 214 -14 280 -20 66 -5 188 -12 270 -15 196 -8 413 -22 605 -40 85
-8 270 -21 410 -30 140 -9 395 -25 565 -36 171 -11 398 -22 505 -25 107 -3
254 -11 325 -19 200 -22 349 -35 475 -40 63 -3 176 -10 250 -15 74 -5 180 -12
235 -15 151 -8 542 -34 610 -40 33 -3 143 -12 245 -20 699 -56 1731 -197 2585
-355 116 -21 255 -46 310 -55 55 -9 129 -23 165 -31 36 -8 76 -14 90 -14 14 0
90 -13 170 -29 80 -16 190 -36 245 -46 55 -9 154 -27 220 -40 66 -12 149 -28
185 -34 36 -6 115 -19 175 -30 61 -11 142 -24 180 -30 39 -6 153 -25 255 -41
102 -16 232 -34 290 -40 160 -17 178 -24 186 -65 3 -19 4 -54 2 -77 -4 -39 1
-192 17 -503 11 -216 45 -799 50 -865 12 -146 35 -652 35 -775 0 -72 5 -168
11 -214 14 -119 16 -118 -153 -97 -73 10 -160 22 -194 27 -33 5 -86 9 -118 9
-32 0 -73 7 -94 17 -28 13 -70 17 -182 18 -80 1 -242 9 -360 18 -118 9 -303
21 -410 27 -279 15 -581 37 -680 49 -114 14 -251 28 -450 46 -252 23 -370 35
-550 57 -171 20 -877 121 -965 137 -27 6 -75 13 -105 16 -52 6 -214 31 -505
76 -71 11 -164 24 -205 29 -41 5 -127 16 -190 25 -63 9 -275 36 -470 61 -413
52 -523 66 -720 94 -80 11 -179 25 -220 31 -188 25 -217 29 -245 34 -25 4
-218 27 -870 105 -129 15 -319 41 -370 50 -27 5 -169 25 -315 45 -146 20 -362
49 -480 65 -118 15 -280 36 -360 45 -80 9 -262 33 -405 52 -143 19 -309 41
-370 48 -60 8 -121 16 -135 18 -14 2 -74 11 -135 21 -60 9 -137 21 -170 26
-110 18 -234 32 -630 70 -142 14 -483 30 -635 30 -137 0 -180 -10 -180 -42 0
-27 43 -39 114 -32 63 6 435 -9 631 -26 262 -23 664 -72 995 -121 30 -4 107
-15 170 -23 63 -8 139 -20 168 -25 29 -6 117 -18 195 -27 196 -22 249 -29 432
-53 88 -11 248 -30 355 -41 107 -11 201 -23 208 -25 15 -5 246 -41 387 -59 22
-3 141 -19 265 -36 124 -16 299 -39 390 -51 91 -11 307 -38 480 -60 173 -22
347 -44 385 -49 39 -4 178 -24 310 -43 336 -50 459 -67 545 -78 41 -5 107 -13
145 -19 39 -5 162 -21 275 -35 199 -25 607 -81 800 -111 52 -8 217 -32 365
-54 149 -23 349 -54 445 -70 176 -30 338 -54 440 -65 30 -3 78 -10 105 -15 56
-11 435 -53 625 -70 69 -6 247 -25 395 -41 289 -31 397 -40 820 -64 149 -8
356 -22 460 -30 105 -8 249 -15 320 -15 72 0 171 -5 220 -10 50 -5 162 -17
249 -25 88 -8 164 -19 169 -24 5 -5 11 -159 12 -342 2 -183 7 -355 10 -383 7
-68 32 -487 45 -756 5 -118 13 -260 16 -316 6 -99 6 -101 -17 -107 -12 -3 -63
2 -113 13 -50 10 -167 30 -261 45 -93 14 -192 31 -220 36 -27 6 -97 16 -155
24 -58 7 -145 20 -195 29 -49 8 -178 29 -285 46 -107 18 -212 36 -232 41 -20
5 -67 13 -105 18 -37 5 -129 18 -203 30 -160 24 -640 91 -865 120 -88 12 -241
32 -340 46 -99 13 -252 34 -340 45 -88 11 -189 25 -225 30 -36 6 -130 19 -210
30 -80 11 -176 24 -215 30 -325 46 -806 111 -857 115 -26 3 -121 14 -210 25
-90 11 -235 29 -323 40 -88 11 -191 24 -230 30 -38 5 -142 19 -230 30 -88 11
-193 25 -233 31 -40 6 -143 19 -230 30 -86 10 -186 23 -222 28 -36 5 -126 16
-200 25 -74 9 -187 24 -250 32 -185 26 -600 73 -773 89 -109 10 -358 36 -447
45 -52 6 -138 15 -190 20 -52 5 -135 13 -185 19 -104 11 -311 28 -440 36 -49
3 -128 10 -175 15 -212 25 -269 30 -485 45 -126 8 -255 17 -285 20 -98 8 -487
24 -815 35 -532 16 -716 25 -885 40 -58 5 -161 15 -230 20 -69 6 -159 15 -200
20 -41 5 -151 14 -245 20 -93 6 -198 13 -231 15 -133 10 -601 7 -653 -4 -124
-25 -82 -34 212 -43 439 -12 802 -34 907 -53 14 -3 55 -7 91 -10 37 -2 107 -9
155 -14 49 -5 138 -13 199 -16 60 -4 112 -8 115 -10 5 -3 129 -7 580 -20 400
-12 518 -17 775 -30 292 -16 356 -20 540 -35 66 -5 185 -14 265 -20 80 -6 159
-13 175 -15 17 -2 71 -6 120 -10 50 -3 153 -13 230 -21 77 -8 190 -18 250 -23
181 -16 928 -92 1080 -111 44 -5 143 -17 220 -25 77 -9 190 -22 250 -30 61 -8
171 -22 245 -31 74 -8 212 -26 305 -40 94 -13 283 -37 420 -54 138 -17 291
-37 340 -44 50 -8 117 -17 150 -21 33 -3 123 -15 200 -25 77 -10 199 -26 270
-35 72 -8 166 -20 210 -25 155 -19 391 -50 500 -66 252 -35 394 -55 465 -64
41 -6 253 -35 470 -65 217 -30 591 -81 830 -114 490 -68 576 -80 845 -122 105
-16 278 -43 385 -59 107 -17 245 -39 305 -50 61 -11 137 -24 170 -29 33 -6
193 -32 355 -60 162 -27 338 -54 390 -61 52 -6 114 -13 136 -16 35 -4 44 -10
54 -34 6 -16 9 -41 6 -57 -3 -15 -8 -84 -11 -153 -3 -69 -14 -334 -25 -590
-22 -529 -41 -1044 -46 -1235 -1 -71 -3 -133 -3 -137 -3 -23 -42 -25 -137 -8
-110 20 -322 44 -534 61 -82 6 -205 25 -315 49 -330 71 -701 135 -880 150
-505 45 -744 59 -1690 95 -220 8 -528 22 -685 30 -157 8 -420 22 -585 30 -165
8 -399 20 -520 26 -121 6 -249 13 -285 15 -115 5 -252 14 -390 25 -74 5 -169
12 -210 14 -85 6 -439 40 -575 55 -49 6 -171 19 -270 30 -280 31 -351 39 -475
55 -63 9 -151 20 -195 25 -44 5 -141 17 -215 25 -159 19 -175 21 -625 88 -93
14 -197 28 -230 32 -33 3 -76 10 -95 15 -19 5 -78 14 -130 20 -52 6 -133 17
-180 25 -47 8 -173 26 -280 40 -107 14 -242 32 -300 40 -58 7 -134 16 -170 20
-36 3 -119 12 -185 20 -173 21 -505 56 -615 66 -52 4 -162 14 -245 23 -128 13
-282 25 -650 51 -310 22 -490 27 -890 27 -402 -1 -540 -5 -834 -28 -35 -3 -88
-11 -117 -19 -29 -7 -61 -11 -72 -8 -11 2 -23 0 -26 -6 -4 -6 -22 -11 -40 -11
-41 0 -68 -25 -37 -35 11 -3 29 -2 39 4 12 6 31 7 50 2 17 -5 33 -7 36 -4 3 3
36 7 73 8 74 4 238 14 318 21 28 2 242 7 477 10 388 5 552 2 968 -22 200 -11
642 -44 725 -54 50 -6 110 -13 135 -14 25 -2 95 -9 155 -15 61 -7 196 -21 300
-32 105 -11 233 -25 285 -31 52 -6 106 -12 120 -13 87 -9 225 -27 230 -30 3
-2 50 -8 105 -14 131 -15 360 -47 510 -71 66 -11 154 -24 195 -30 93 -14 263
-39 530 -80 113 -17 239 -35 280 -40 41 -6 120 -17 175 -24 371 -53 511 -70
835 -106 47 -5 139 -16 205 -24 264 -33 890 -85 1270 -106 110 -6 229 -13 265
-15 36 -3 214 -11 395 -19 182 -9 355 -18 385 -21 30 -2 123 -7 205 -10 83 -3
175 -7 205 -10 30 -2 195 -9 365 -15 171 -5 353 -12 405 -15 225 -12 288 -15
520 -25 229 -10 337 -16 680 -40 406 -29 470 -37 1071 -139 265 -45 333 -60
425 -98 l64 -27 24 23 23 22 240 -31 c132 -16 267 -30 300 -30 92 0 94 -6 74
-230 -18 -198 -11 -1570 8 -1723 11 -80 5 -83 -117 -68 -164 20 -377 42 -444
46 -34 2 -160 11 -278 19 -331 25 -523 34 -790 41 -318 8 -746 23 -985 35
-296 14 -767 21 -1850 25 -1512 6 -2238 19 -2595 45 -74 6 -229 17 -345 25
-191 14 -362 29 -655 56 -58 5 -163 14 -235 19 -71 5 -168 14 -215 20 -47 5
-137 14 -200 20 -63 6 -164 17 -225 25 -112 15 -341 41 -450 50 -33 3 -98 10
-145 15 -47 6 -141 15 -210 20 -69 5 -188 17 -265 25 -302 33 -704 69 -885 80
-52 3 -113 7 -135 10 -22 2 -101 7 -175 10 -74 3 -148 8 -165 10 -16 2 -82 7
-145 10 -63 3 -146 10 -185 15 -38 5 -128 14 -200 20 -223 17 -374 32 -535 50
-52 6 -130 12 -174 13 -65 2 -80 -1 -90 -15 -17 -27 22 -60 76 -64 23 -2 79
-9 123 -15 44 -6 100 -12 125 -14 135 -10 405 -34 685 -59 88 -8 212 -17 275
-20 417 -22 606 -35 930 -66 276 -27 513 -49 640 -60 260 -23 665 -66 750 -80
30 -5 89 -12 130 -15 41 -3 82 -8 90 -10 8 -3 83 -11 165 -19 83 -9 193 -20
245 -25 52 -6 129 -12 170 -15 41 -3 127 -11 190 -16 63 -6 214 -20 335 -31
121 -11 283 -24 360 -29 77 -5 192 -14 255 -19 220 -20 507 -31 925 -36 231
-3 521 -8 645 -12 124 -3 788 -7 1475 -8 688 -1 1266 -4 1285 -8 43 -8 407
-23 1060 -42 272 -9 533 -18 580 -20 181 -11 517 -35 550 -40 58 -9 377 -35
500 -42 63 -3 120 -10 126 -14 7 -6 11 -63 12 -162 0 -83 5 -219 11 -302 7
-82 16 -229 21 -325 9 -166 12 -264 25 -690 7 -230 13 -356 21 -441 7 -86 -4
-98 -79 -81 -45 10 -501 74 -639 89 -31 4 -53 1 -63 -7 -42 -35 6 -56 175 -75
80 -9 186 -22 235 -30 50 -8 146 -19 214 -25 69 -6 133 -16 143 -21 16 -9 17
-29 13 -292 -7 -399 -17 -708 -30 -897 -12 -158 -16 -400 -8 -435 9 -42 33
-56 58 -35 11 9 14 45 15 168 0 87 2 182 4 212 3 30 8 120 11 200 3 80 8 152
10 160 6 25 17 400 19 652 1 141 5 241 11 247 6 6 27 6 55 0 100 -20 378 -57
550 -73 173 -16 322 -23 710 -32 146 -3 268 -8 272 -10 8 -5 890 -5 973 0 262
16 1453 24 1935 13 190 -4 471 -9 625 -12 154 -3 458 -14 675 -26 217 -11 402
-21 410 -21 24 0 294 -27 450 -44 237 -28 290 -23 290 26 0 14 -22 19 -157 34
-87 10 -192 22 -233 27 -98 11 -479 37 -645 44 -71 3 -164 8 -205 11 -161 10
-610 21 -920 23 -179 1 -422 6 -540 11 -118 5 -287 7 -375 5 -88 -2 -396 -7
-685 -11 -289 -4 -550 -8 -580 -10 -30 -2 -244 -4 -475 -5 -385 -1 -550 1
-1055 17 -208 6 -501 28 -660 49 -63 9 -180 22 -259 30 -79 8 -149 19 -156 25
-8 7 -14 90 -20 277 -4 148 -9 291 -10 318 -1 28 -3 142 -4 255 -2 113 -11
329 -21 480 -10 151 -21 320 -24 375 -4 55 -11 142 -18 193 -15 129 -16 127
136 107 64 -8 157 -15 206 -15 116 0 137 -8 145 -57 27 -170 67 -286 101 -297
11 -3 61 -12 112 -20 51 -8 99 -19 105 -24 26 -21 378 -193 472 -230 219 -87
518 -173 940 -271 751 -175 997 -215 1320 -215 172 0 194 2 237 22 28 12 52
30 57 44 14 35 53 511 50 616 -3 108 2 116 68 107 23 -3 246 -8 494 -10 399
-4 733 -16 824 -30 17 -2 71 -7 120 -10 50 -4 124 -10 165 -15 41 -5 228 -19
415 -30 356 -22 587 -47 668 -75 56 -19 85 -13 98 22 15 39 -3 57 -69 71 -101
21 -396 50 -617 62 -279 15 -300 16 -660 52 -290 28 -344 30 -840 35 -311 3
-554 1 -588 -5 -44 -7 -61 -6 -71 3 -34 35 -52 1691 -30 2840 9 487 11 1116 5
1525 -2 124 -1 329 2 455 16 613 19 773 23 1203 2 256 8 488 14 520 25 143
-27 2111 -60 2233 -13 46 -29 292 -23 340 3 19 0 94 -7 165 -6 71 -15 181 -20
244 -5 63 -19 198 -30 300 -21 199 -43 419 -60 595 -6 61 -15 151 -20 200 -5
50 -12 126 -15 170 -8 119 -51 410 -87 580 -23 111 -103 389 -155 538 -35 99
-52 162 -46 168 6 6 47 0 108 -16 118 -30 146 -31 175 -7 25 21 19 50 -14 56
-17 4 -181 21 -281 29 -13 1 -30 21 -50 60 -40 76 -107 152 -154 176 -20 11
-73 31 -117 45 -280 89 -581 142 -1004 176 -156 13 -372 35 -480 50 -71 10
-125 17 -320 41 -139 17 -287 15 -347 -5 -59 -20 -86 -47 -128 -131 -37 -73
-57 -87 -110 -75 -114 26 -571 65 -650 56 -27 -4 -57 -2 -65 4 -19 12 -18 29
9 325 36 399 41 449 46 475 14 71 52 530 66 802 13 268 7 778 -13 1068 -18
265 -15 617 6 755 31 192 31 192 10 203 -11 5 -28 6 -40 2z m1406 -3581 c140
-17 289 -35 330 -39 41 -5 158 -16 260 -25 387 -33 617 -71 910 -151 211 -57
300 -109 300 -176 0 -29 -2 -30 -32 -25 -287 51 -504 90 -548 97 -30 4 -100
15 -155 24 -224 35 -626 82 -1005 116 -63 6 -122 13 -130 15 -8 2 -53 7 -100
10 -47 4 -123 10 -170 16 -47 5 -125 9 -173 9 -104 0 -113 9 -78 76 30 56 53
76 97 83 65 11 236 0 494 -30z m-1400 -107 c65 -13 451 -44 564 -46 104 -1
108 -8 74 -118 -62 -197 -102 -621 -114 -1203 -5 -268 -3 -342 15 -550 29
-329 29 -332 46 -490 8 -77 23 -246 35 -375 11 -129 25 -265 30 -302 6 -37 10
-85 10 -107 0 -48 -1 -48 -125 -26 -197 34 -531 85 -564 85 -54 0 -109 18
-121 40 -10 19 -6 2053 4 2230 10 166 28 607 29 728 2 110 4 125 22 138 11 8
24 13 30 10 6 -2 35 -8 65 -14z m850 -67 c30 -9 123 -22 205 -30 83 -8 191
-19 240 -24 50 -5 140 -15 200 -21 550 -53 802 -86 1245 -161 162 -27 338 -52
390 -56 64 -4 101 -11 113 -21 9 -9 29 -54 44 -101 14 -47 38 -124 53 -171 69
-208 140 -477 169 -640 38 -208 57 -373 101 -890 11 -124 30 -328 44 -455 14
-126 32 -322 41 -435 9 -113 23 -243 31 -290 19 -113 18 -119 -13 -131 -49
-20 -568 -4 -988 30 -209 17 -447 36 -530 42 -82 6 -211 19 -285 30 -74 11
-209 29 -300 40 -91 11 -273 33 -405 51 -278 36 -412 45 -428 29 -18 -18 20
-49 76 -61 98 -21 673 -90 882 -105 115 -9 214 -20 219 -25 20 -20 -12 -30
-137 -44 -136 -15 -171 -30 -165 -69 5 -36 31 -42 105 -28 236 45 340 50 507
24 143 -21 198 -41 210 -75 12 -35 -17 -70 -190 -223 -226 -199 -261 -245
-236 -300 33 -71 191 -53 652 75 41 11 88 23 103 27 16 3 35 16 43 29 13 19
14 27 2 50 -22 45 -40 50 -91 25 -49 -24 -77 -33 -182 -61 -38 -10 -126 -35
-194 -54 -170 -49 -241 -47 -194 6 10 11 70 63 135 114 185 149 245 225 235
297 -7 50 -29 73 -104 106 -124 55 -77 61 194 27 328 -42 542 -57 806 -57 136
0 253 3 258 7 5 3 16 0 24 -6 11 -9 14 -47 14 -172 0 -88 3 -186 6 -217 3 -31
9 -204 15 -386 5 -181 13 -395 16 -475 3 -80 7 -378 9 -663 2 -414 0 -520 -10
-531 -10 -9 -27 -11 -67 -5 -75 12 -507 46 -738 59 -268 14 -622 38 -760 50
-308 27 -806 68 -1102 90 -140 11 -188 5 -188 -24 0 -7 6 -18 13 -24 12 -10
139 -27 282 -36 44 -3 161 -13 260 -21 99 -9 239 -20 310 -26 72 -5 184 -14
250 -19 411 -34 544 -43 985 -70 96 -6 225 -15 285 -20 61 -6 189 -15 284 -20
118 -7 178 -14 183 -23 5 -6 6 -75 3 -152 -3 -77 -7 -214 -10 -305 -3 -91 -8
-235 -10 -320 -3 -85 -8 -351 -10 -590 -3 -243 -9 -438 -14 -443 -6 -6 -52 -3
-118 6 -266 40 -581 44 -1163 17 -118 -5 -223 -7 -233 -4 -15 5 -18 13 -14 37
11 74 126 634 136 659 6 15 8 35 4 43 -8 24 -53 14 -74 -15 -19 -26 -58 -200
-79 -352 -13 -95 -30 -127 -82 -154 -61 -32 -172 17 -260 114 -95 105 -157
211 -158 268 0 34 13 53 52 77 31 19 46 56 28 67 -24 15 -75 -10 -122 -59 -52
-54 -59 -85 -37 -150 26 -75 122 -214 189 -274 115 -103 177 -129 265 -108 86
20 80 24 79 -57 -1 -44 -7 -79 -15 -89 -12 -14 -45 -15 -334 -9 -402 8 -514
13 -747 32 -202 17 -238 15 -238 -16 0 -35 119 -57 420 -76 157 -10 970 -12
1255 -2 408 13 789 10 1025 -8 118 -9 219 -20 223 -24 8 -7 10 -1269 2 -1425
-2 -38 -4 -224 -6 -413 -2 -296 -5 -344 -18 -356 -13 -12 -91 -14 -451 -12
-239 2 -520 8 -625 14 -104 7 -236 14 -291 16 -87 3 -144 16 -144 30 0 3 39
25 88 51 135 74 197 125 231 192 11 23 21 55 21 71 0 70 -119 166 -290 234
-81 32 -250 78 -288 78 -81 0 -212 44 -212 71 0 4 39 29 88 55 48 27 133 79
189 116 146 99 168 143 83 165 -70 18 -147 15 -281 -11 -68 -14 -140 -27 -160
-30 -47 -8 -77 -39 -59 -61 18 -22 57 -19 183 14 62 17 138 33 169 37 50 5 59
4 65 -12 9 -24 -42 -67 -159 -134 -235 -132 -262 -157 -223 -200 23 -26 49
-33 260 -75 206 -41 322 -78 415 -130 121 -68 151 -115 116 -183 -24 -47 -117
-117 -221 -169 -27 -14 -61 -31 -75 -38 -14 -7 -49 -20 -78 -30 -63 -20 -197
-18 -497 9 -223 19 -703 46 -831 46 -52 0 -104 -5 -115 -10 -16 -9 -21 -7 -29
16 -6 15 -8 34 -6 43 3 9 12 97 21 196 8 99 22 261 31 360 36 421 43 496 48
513 10 35 71 718 91 1037 4 50 13 142 20 205 35 284 82 1166 99 1850 2 69 9
208 15 310 12 166 9 698 -3 795 -2 17 -7 77 -10 135 -7 99 -48 465 -81 700 -7
58 -21 177 -30 265 -9 88 -25 206 -35 261 -11 56 -24 184 -29 285 -6 101 -20
281 -31 399 -44 455 -49 510 -64 665 -15 160 -24 289 -30 440 -6 140 12 704
29 885 30 338 83 629 121 671 21 23 24 23 94 4z m-872 -3134 c43 -11 158 -31
257 -46 99 -14 202 -30 228 -36 26 -5 79 -9 117 -9 89 0 96 -9 104 -150 3 -58
13 -157 21 -220 58 -436 110 -885 125 -1075 11 -145 14 -1016 3 -1062 -3 -12
-10 -23 -16 -26 -7 -2 -57 2 -112 9 -55 7 -183 18 -285 24 -382 24 -433 29
-444 40 -8 8 -10 73 -8 218 3 199 -8 516 -28 802 -20 292 -47 756 -60 1055
-11 240 -12 258 -25 392 -8 76 1 103 32 103 8 0 49 -9 91 -19z m212 -2651 c91
-9 303 -25 530 -39 l105 -6 -1 -65 c-1 -77 -19 -514 -34 -825 -6 -121 -20
-355 -31 -520 -11 -165 -23 -349 -25 -410 -3 -72 -10 -115 -18 -123 -11 -12
-38 -10 -162 12 -161 27 -272 43 -403 56 -46 5 -88 13 -94 19 -6 6 -11 91 -13
213 -2 112 -10 309 -19 438 -24 363 -35 579 -44 905 -5 165 -12 307 -16 316
-3 10 1 24 11 34 14 14 28 16 68 11 28 -3 94 -10 146 -16z m-4 -1991 c24 -8
338 -54 447 -64 82 -8 91 -19 78 -97 -6 -29 -17 -129 -25 -223 -23 -247 -55
-576 -66 -680 -14 -126 -48 -495 -60 -645 -6 -69 -15 -169 -20 -223 -6 -54
-10 -140 -10 -191 0 -123 0 -123 -128 -107 -53 7 -163 16 -243 20 -81 5 -157
14 -169 21 -21 11 -22 17 -16 74 7 73 22 419 36 836 5 168 17 460 25 650 9
190 15 406 13 481 -3 164 1 173 71 163 25 -4 56 -10 67 -15z m-31 -2278 c44
-5 140 -12 214 -15 93 -4 137 -9 143 -18 10 -17 10 -53 -1 -119 -6 -30 -15
-128 -21 -219 -6 -91 -13 -192 -15 -225 -2 -33 -7 -107 -10 -165 -2 -58 -8
-159 -11 -225 -10 -183 -11 -223 -19 -450 -12 -368 -12 -419 -3 -490 4 -38 5
-77 2 -87 -8 -27 -43 -31 -118 -14 -37 9 -125 18 -196 20 -71 3 -136 8 -144
13 -13 7 -16 110 -21 813 -5 766 1 1159 19 1189 9 14 17 14 181 -8z m690 -47
c77 -2 208 -8 290 -14 263 -17 370 -21 509 -21 144 1 166 -3 166 -25 0 -21
-35 -32 -122 -39 -70 -6 -78 -9 -78 -27 0 -20 4 -20 83 -14 l82 6 -47 -42
c-55 -50 -78 -98 -78 -166 0 -109 119 -202 260 -205 49 -2 76 4 111 21 25 12
48 22 52 22 14 0 6 -45 -24 -139 -52 -161 -55 -241 -10 -241 27 0 40 21 47 76
14 122 60 286 141 503 22 59 32 102 29 117 -13 52 -66 14 -89 -64 -30 -98 -84
-175 -149 -208 -54 -28 -177 -2 -235 49 -90 79 -80 181 20 208 77 20 86 26 92
63 6 30 13 38 54 53 54 21 256 23 406 5 144 -19 174 -21 388 -33 165 -8 544
-11 917 -5 l65 1 -3 -705 c-4 -699 8 -1263 29 -1374 17 -94 -3 -120 -82 -106
-25 5 -140 13 -255 19 -375 19 -597 32 -734 42 -74 5 -169 12 -210 14 -280 19
-485 36 -601 50 -178 21 -422 54 -484 65 -27 5 -84 14 -125 20 -41 6 -113 18
-160 26 -190 32 -311 47 -433 53 -113 5 -130 8 -143 26 -13 17 -14 65 -9 330
8 431 41 1165 60 1320 2 22 7 110 11 195 3 85 10 160 15 166 7 9 22 8 57 -3
27 -8 107 -16 187 -19z m-214 -2084 c30 -6 115 -19 189 -30 74 -11 207 -31
295 -45 238 -38 552 -82 705 -100 413 -47 1366 -108 1830 -118 l105 -2 3 -54
c2 -30 -4 -140 -14 -245 -9 -105 -20 -231 -24 -281 -9 -108 -14 -123 -48 -132
-14 -3 -116 -3 -226 0 -198 7 -344 24 -571 68 -60 11 -130 25 -155 29 -25 5
-164 37 -310 70 -146 34 -281 66 -300 70 -103 23 -410 105 -510 137 -110 34
-416 144 -490 175 -40 17 -65 42 -56 57 4 5 58 9 121 9 143 0 260 30 231 60
-4 3 -98 7 -209 7 -146 1 -224 6 -282 18 -44 10 -125 25 -180 36 -151 27 -147
24 -185 172 -28 111 -22 118 81 99z"/>
<path d="M16936 16914 c-20 -20 -20 -41 0 -95 13 -34 18 -103 24 -299 10 -295
19 -360 54 -360 33 0 35 23 25 304 -8 264 -20 390 -40 428 -16 30 -45 40 -63
22z"/>
<path d="M17123 15748 c-16 -21 2 -557 22 -653 14 -69 14 -97 4 -208 -9 -100
-9 -148 1 -223 8 -59 10 -130 6 -189 -7 -86 -6 -95 13 -114 26 -26 34 -26 53
-3 12 14 14 44 11 152 -4 159 -6 337 -4 470 1 61 -4 117 -14 155 -13 48 -16
114 -16 320 -1 209 -3 264 -15 283 -16 24 -46 29 -61 10z"/>
<path d="M17060 12890 c-36 -5 -128 -21 -205 -36 -77 -14 -164 -30 -193 -36
-60 -11 -92 -36 -92 -71 0 -56 41 -59 214 -17 250 60 525 96 541 70 16 -26
-35 -66 -169 -135 -213 -109 -252 -154 -211 -245 24 -53 59 -83 135 -118 79
-36 110 -46 220 -68 181 -36 153 -65 -236 -239 -225 -101 -339 -132 -374 -100
-30 27 -55 16 -58 -27 -2 -27 3 -43 19 -59 19 -19 29 -21 88 -17 96 7 286 75
496 178 192 94 257 140 275 195 27 83 -21 114 -290 186 -164 43 -224 83 -189
125 6 8 57 40 113 71 171 96 219 126 263 166 79 73 64 144 -36 166 -70 15
-238 21 -311 11z"/>
<path d="M16708 11366 c-80 -43 -123 -73 -156 -110 -36 -42 -37 -45 -19 -89
43 -102 231 -191 400 -188 56 0 71 -3 88 -20 18 -18 21 -29 15 -73 -3 -28 -10
-125 -16 -216 -6 -91 -14 -190 -19 -221 -4 -31 -4 -66 1 -78 9 -26 44 -28 56
-3 18 34 42 211 53 392 6 102 15 192 20 201 5 10 30 24 55 33 55 19 84 42 84
67 0 25 -42 35 -80 19 -58 -24 -72 4 -49 94 6 23 21 56 34 71 21 27 25 28 49
17 38 -17 56 -15 56 7 0 30 -63 73 -114 78 -38 5 -48 2 -69 -19 -29 -29 -47
-102 -47 -192 0 -84 -12 -100 -76 -93 -135 12 -292 53 -326 84 -56 51 24 138
167 180 35 10 44 37 19 64 -23 26 -71 24 -126 -5z"/>
<path d="M16576 9420 c-78 -25 -179 -138 -238 -267 -92 -203 -74 -356 55 -488
97 -98 209 -117 373 -62 187 64 301 166 345 311 30 95 23 221 -15 300 -72 147
-168 202 -371 210 -66 3 -133 1 -149 -4z m34 -45 c0 -3 -13 -32 -30 -64 -16
-33 -37 -87 -46 -121 -16 -54 -16 -62 -3 -76 33 -32 59 5 74 106 10 64 30 96
76 127 l40 26 31 -29 c47 -42 57 -57 58 -79 0 -11 4 -26 9 -34 13 -20 54 8 71
48 20 48 45 40 90 -31 47 -71 62 -120 63 -203 4 -189 -76 -295 -274 -365 -90
-31 -185 -37 -233 -15 -53 25 -120 96 -152 160 -24 49 -26 64 -22 128 9 129
77 285 164 375 27 28 58 52 67 52 9 0 17 -2 17 -5z"/>
<path d="M16645 6353 c-13 -12 -15 -26 -11 -57 3 -23 13 -115 21 -206 8 -91
21 -208 29 -260 7 -52 20 -155 27 -228 13 -139 23 -168 52 -156 42 16 42 15
-8 449 -9 77 -21 206 -25 287 -5 82 -11 157 -15 168 -8 25 -47 27 -70 3z"/>
<path d="M5426 20794 c-19 -19 -19 -15 -51 -250 -14 -106 -28 -244 -30 -309
-2 -64 -9 -122 -15 -129 -5 -8 -30 -16 -55 -18 -51 -6 -75 -22 -75 -49 0 -33
30 -52 75 -46 71 10 74 3 60 -175 -9 -129 -4 -158 30 -158 15 0 31 10 41 25
15 23 16 39 6 142 -5 64 -9 121 -7 127 2 6 6 23 9 38 7 31 57 48 81 28 19 -16
19 -54 0 -70 -21 -17 -19 -92 3 -119 25 -31 103 -38 177 -16 109 31 253 115
405 235 47 37 90 70 97 73 21 13 42 -22 73 -121 43 -132 75 -164 128 -126 26
18 29 46 6 65 -21 17 -58 92 -77 154 -24 81 -54 142 -72 149 -36 13 -65 6 -86
-24 -31 -41 -41 -42 -104 -15 -92 41 -208 29 -336 -35 -111 -56 -268 -79 -288
-42 -10 19 25 296 58 456 26 123 27 178 4 198 -31 26 -41 29 -57 12z m539
-723 c0 -31 -66 -72 -216 -136 -113 -48 -158 -55 -183 -29 -22 22 -21 25 22
66 62 59 119 86 232 107 130 24 145 23 145 -8z"/>
<path d="M6691 20596 c-8 -10 -9 -66 -5 -199 8 -215 7 -217 -65 -217 -49 0
-71 -13 -71 -41 0 -27 26 -41 81 -44 62 -4 72 -12 71 -62 0 -42 -19 -229 -29
-280 -4 -25 -1 -34 12 -39 26 -10 43 15 69 103 20 67 24 95 19 155 -5 71 -5
74 20 87 23 12 34 12 84 -2 32 -9 103 -21 158 -27 99 -11 100 -11 141 -53 58
-59 148 -127 224 -169 149 -80 353 -158 418 -158 27 0 32 4 32 24 0 21 -10 28
-72 51 -108 40 -304 132 -383 181 -55 33 -70 47 -70 65 0 20 7 25 40 31 22 4
61 7 87 7 102 2 238 83 238 143 0 74 -125 172 -279 219 -65 19 -81 21 -132 11
-79 -14 -125 -38 -157 -80 -22 -29 -27 -46 -28 -101 0 -36 -1 -71 -2 -77 -3
-21 -34 -25 -86 -10 -28 8 -85 20 -126 26 -113 18 -109 10 -108 224 1 132 -2
188 -12 206 -22 41 -48 51 -69 26z m760 -342 c62 -19 126 -60 135 -88 9 -28
-33 -62 -93 -74 -73 -16 -207 -25 -247 -18 -41 8 -66 45 -66 98 0 43 8 54 56
78 49 24 140 26 215 4z"/>
<path d="M4419 20561 c-43 -9 -135 -66 -149 -92 -19 -35 -10 -87 26 -156 55
-103 69 -119 145 -165 39 -24 82 -51 97 -60 42 -26 188 -106 292 -160 120 -62
144 -87 137 -142 -21 -175 -173 -320 -432 -411 -123 -43 -310 -85 -378 -85
-52 0 -67 -4 -83 -21 -38 -42 21 -83 106 -73 210 24 381 66 507 124 203 95
305 209 348 392 17 69 17 77 1 131 -27 93 -78 141 -236 222 -65 33 -194 105
-347 191 -60 34 -103 73 -103 93 0 21 43 63 89 86 46 23 174 24 218 2 47 -25
81 -22 95 8 30 67 -53 117 -201 121 -53 2 -112 -1 -132 -5z"/>
<path d="M9058 20217 c-46 -13 -339 -202 -408 -263 -70 -63 -69 -63 -146 29
-37 45 -88 111 -111 146 -48 71 -69 90 -98 91 -26 0 -65 -27 -65 -45 0 -14
183 -221 233 -263 46 -40 36 -58 -90 -167 -229 -199 -382 -403 -452 -603 -24
-67 -21 -96 10 -112 27 -15 35 -8 59 58 12 31 31 73 43 92 13 19 28 47 34 61
22 51 163 226 255 316 143 141 248 233 264 233 7 0 56 -35 107 -78 51 -43 145
-115 208 -160 63 -45 169 -124 236 -175 143 -109 245 -164 323 -173 48 -5 57
-3 74 15 12 13 16 28 12 44 -5 23 -11 25 -79 28 -90 5 -119 22 -353 199 -90
69 -216 163 -280 210 -150 110 -174 129 -174 144 0 7 57 50 128 97 171 113
206 135 280 171 57 27 69 30 122 24 52 -6 60 -5 69 13 23 42 -15 71 -98 77
-31 2 -77 -2 -103 -9z"/>
<path d="M10640 20120 c-10 -10 -28 -36 -38 -57 -41 -80 19 -116 77 -45 l30
37 40 -21 c81 -44 79 19 -3 75 -52 36 -78 39 -106 11z"/>
<path d="M13617 19762 c-24 -26 -21 -40 13 -72 27 -25 30 -34 30 -87 0 -65
-19 -387 -26 -419 -3 -15 -20 -27 -64 -43 -83 -31 -141 -110 -94 -128 14 -5
35 0 100 24 6 2 18 -3 26 -11 14 -13 13 -24 -8 -95 -24 -82 -23 -111 2 -111
26 0 44 47 51 129 3 45 11 88 18 97 17 23 99 34 270 34 163 1 316 18 322 37
11 33 -52 40 -381 48 -199 4 -206 8 -186 77 17 61 39 241 39 323 0 161 -56
259 -112 197z"/>
<path d="M11334 19750 c-35 -23 -92 -100 -149 -204 -51 -91 -160 -206 -197
-206 -38 0 -45 33 -24 115 25 101 20 155 -15 155 -29 0 -37 -28 -55 -179 -16
-131 -16 -142 0 -166 25 -39 60 -49 102 -29 63 30 185 163 251 275 67 113 115
169 144 169 11 0 28 -14 39 -32 20 -33 22 -48 40 -273 12 -146 22 -190 46
-199 22 -8 57 32 50 57 -3 12 -11 65 -16 117 -30 278 -42 330 -95 385 -38 41
-74 45 -121 15z"/>
<path d="M10480 19688 c-14 -35 -50 -312 -51 -404 -2 -88 3 -104 31 -104 24 0
36 41 44 145 4 44 16 137 28 206 24 143 20 179 -17 179 -17 0 -29 -8 -35 -22z"/>
<path d="M12292 19570 c-71 -11 -148 -50 -205 -104 -112 -108 -259 -511 -261
-716 -1 -74 1 -85 17 -88 25 -5 64 33 94 93 14 28 53 97 86 155 33 57 70 131
82 165 30 88 30 88 84 80 85 -12 230 35 319 103 18 14 45 45 59 69 21 36 25
53 20 90 -6 59 -32 92 -98 125 -62 31 -121 40 -197 28z m161 -84 c77 -32 91
-92 34 -141 -46 -39 -154 -82 -242 -95 -139 -21 -168 -43 -204 -155 -32 -101
-108 -255 -126 -255 -31 0 -9 113 54 283 87 234 171 334 308 366 58 14 140 12
176 -3z"/>
<path d="M12764 19295 c-14 -22 -15 -34 -5 -82 6 -31 11 -73 11 -93 0 -80 93
-155 180 -147 61 5 107 29 168 85 85 79 70 89 -65 42 -106 -38 -134 -38 -174
-2 -29 26 -32 34 -37 108 -2 43 -9 87 -14 97 -13 25 -45 21 -64 -8z"/>
<path d="M19125 19238 c-2 -7 -9 -38 -14 -69 -11 -61 -105 -291 -126 -309 -9
-7 -27 -7 -61 0 -54 13 -315 40 -380 40 -46 0 -94 -30 -94 -59 0 -9 6 -26 14
-37 13 -18 28 -19 219 -19 270 0 274 -3 185 -141 -29 -44 -69 -105 -88 -135
-19 -30 -67 -92 -107 -139 -77 -90 -90 -120 -49 -120 46 0 241 251 322 414 37
76 59 91 116 78 56 -12 424 -127 471 -147 44 -18 97 -20 97 -2 -1 24 -93 90
-168 119 -78 31 -335 108 -357 108 -6 0 -20 9 -31 21 -18 20 -18 21 15 82 96
179 119 245 101 292 -12 32 -57 47 -65 23z"/>
<path d="M17810 19164 c-25 -65 -4 -236 41 -328 10 -22 19 -47 19 -55 0 -9
-35 -56 -76 -106 -42 -49 -110 -141 -152 -203 -70 -105 -78 -113 -101 -107
-15 3 -57 8 -94 10 -153 8 -347 84 -347 135 0 5 23 35 51 66 61 68 79 107 79
174 0 117 -79 205 -195 217 -111 12 -133 -16 -142 -173 -6 -88 -4 -95 26 -159
32 -70 38 -99 21 -110 -15 -9 -149 -43 -201 -50 -61 -9 -124 21 -144 68 -8 21
-15 106 -19 242 -4 116 -8 224 -11 240 -13 93 -18 107 -43 130 -15 14 -35 25
-46 25 -42 0 -98 -25 -144 -64 -54 -46 -175 -181 -244 -271 -97 -128 -163
-175 -197 -141 -13 14 -13 21 -2 53 25 69 94 218 120 257 30 46 33 102 6 122
-15 11 -22 12 -37 1 -23 -14 -132 -256 -153 -337 -22 -83 -20 -182 3 -203 25
-23 84 -21 130 2 56 29 179 155 234 241 28 45 210 230 241 246 28 15 31 15 51
-5 20 -20 21 -35 28 -274 6 -260 13 -312 45 -356 37 -48 70 -65 138 -69 71 -5
121 6 233 50 40 15 79 28 86 28 8 0 38 -20 68 -45 103 -85 240 -131 363 -122
130 9 180 25 191 61 11 35 218 304 240 313 21 8 45 -21 74 -87 52 -118 129
-223 210 -285 110 -84 195 -100 214 -38 8 26 -17 46 -80 62 -78 21 -150 82
-231 198 -13 18 -23 34 -23 37 0 2 -20 40 -45 84 -25 44 -45 89 -45 100 0 22
44 61 125 110 178 110 243 139 390 173 103 23 158 22 254 -5 60 -17 81 -10 81
29 0 31 -30 54 -91 71 -203 53 -526 -47 -706 -219 -37 -35 -68 -57 -79 -55
-31 6 -47 74 -48 206 -1 98 -4 125 -16 132 -25 16 -40 11 -50 -16z m-721 -304
c50 -25 81 -65 81 -102 0 -18 -19 -56 -51 -104 -47 -70 -53 -75 -82 -72 -30 3
-34 8 -56 73 -33 96 -34 165 -2 199 29 31 59 33 110 6z"/>
<path d="M5170 18031 c-90 -21 -159 -78 -200 -166 -44 -96 -53 -135 -53 -215
0 -64 4 -84 30 -135 42 -83 120 -154 224 -203 101 -48 184 -65 302 -63 132 3
213 30 352 121 153 100 234 213 221 310 -18 138 -151 245 -360 290 -27 6 -96
13 -153 15 -85 3 -110 7 -140 26 -40 25 -157 35 -223 20z m115 -51 c4 -6 -12
-27 -34 -47 -26 -23 -41 -45 -41 -60 0 -28 13 -29 54 -4 17 10 53 26 81 36 46
15 52 15 86 0 34 -16 38 -16 63 0 46 30 215 5 321 -47 114 -57 156 -158 107
-255 -31 -61 -141 -154 -239 -202 -134 -66 -256 -84 -381 -55 -265 61 -357
239 -243 469 43 86 110 159 154 168 41 8 66 7 72 -3z"/>
<path d="M7200 17840 c-116 -25 -169 -50 -211 -97 -30 -35 -31 -39 -27 -112 9
-151 106 -291 252 -361 97 -47 157 -60 281 -60 238 0 457 89 521 212 25 48 29
128 10 186 -40 121 -167 198 -373 227 -186 27 -343 28 -453 5z m233 -53 c18
-8 38 -21 46 -30 21 -26 52 -20 80 13 l26 31 80 -21 c204 -54 288 -124 289
-242 1 -78 -36 -131 -124 -175 -171 -85 -447 -96 -592 -22 -130 66 -232 246
-187 330 5 11 34 35 63 54 99 63 246 92 319 62z"/>
<path d="M9560 17683 c-46 -8 -154 -45 -212 -74 -139 -68 -189 -125 -180 -206
4 -31 17 -50 71 -104 102 -102 221 -152 401 -170 229 -22 636 62 716 148 45
49 22 117 -62 187 -49 40 -195 104 -267 116 -43 8 -83 23 -118 45 -81 53 -232
78 -349 58z m0 -86 c0 -7 -7 -23 -16 -36 -24 -33 -5 -50 39 -32 89 36 117 40
192 31 40 -5 100 -18 132 -28 32 -11 74 -22 93 -25 19 -3 75 -20 124 -38 100
-36 169 -88 164 -123 -3 -23 -52 -54 -106 -67 -391 -98 -616 -97 -802 3 -62
33 -130 110 -130 146 0 34 48 75 138 118 129 62 172 75 172 51z"/>
<path d="M12795 17423 c-16 -2 -54 -11 -82 -19 l-53 -14 -46 -97 c-80 -164
-71 -287 25 -383 57 -57 129 -80 248 -80 69 0 103 7 225 46 216 69 361 154
383 223 35 113 -157 264 -400 316 -64 13 -226 18 -300 8z m299 -132 c97 -28
117 -36 183 -78 100 -63 127 -129 67 -167 -34 -23 -197 -82 -309 -112 -103
-27 -227 -32 -278 -10 -39 16 -82 61 -96 99 -29 77 1 211 60 263 33 29 33 29
172 28 95 0 139 -5 201 -23z"/>
<path d="M5465 16888 c-55 -9 -125 -26 -155 -36 -212 -75 -273 -106 -342 -178
-67 -70 -75 -134 -29 -229 36 -75 68 -105 156 -147 68 -32 74 -33 195 -33 99
0 143 5 210 23 148 40 348 136 465 222 71 53 87 73 92 123 14 118 -125 232
-325 267 -75 13 -134 11 -267 -12z m327 -82 c74 -18 131 -51 152 -88 34 -56
-3 -111 -118 -181 -234 -142 -459 -210 -618 -186 -136 20 -198 70 -200 161 -1
74 30 117 127 175 98 58 212 82 274 57 59 -23 76 -17 76 31 0 38 2 40 35 47
49 9 204 0 272 -16z"/>
<path d="M7459 16846 c-71 -30 -183 -103 -231 -151 -90 -90 -121 -282 -65
-392 30 -57 69 -92 137 -120 135 -55 489 17 629 127 84 67 97 141 46 263 -41
99 -187 196 -295 197 -30 0 -50 17 -50 42 0 22 -56 58 -90 58 -14 -1 -50 -11
-81 -24z m206 -140 c77 -16 180 -70 211 -111 36 -48 56 -104 50 -140 -7 -34
-54 -88 -95 -110 -86 -44 -260 -85 -384 -92 -86 -4 -103 -2 -142 17 -81 39
-107 110 -79 216 27 103 102 204 167 223 47 14 203 12 272 -3z"/>
<path d="M9750 16681 c-76 -25 -176 -76 -230 -119 -120 -95 -159 -170 -167
-323 -9 -155 35 -269 138 -363 166 -150 485 -210 797 -150 245 47 371 115 428
230 24 49 26 63 21 124 -22 258 -307 475 -665 507 -68 6 -75 8 -99 39 -56 74
-118 89 -223 55z m138 -73 c4 -18 -2 -22 -91 -53 -48 -17 -71 -42 -58 -63 5
-9 20 -7 58 8 74 28 137 33 243 21 302 -36 499 -146 585 -325 65 -135 42 -227
-75 -297 -39 -24 -167 -68 -245 -84 -105 -22 -317 -30 -416 -16 -143 21 -286
76 -359 138 -68 57 -118 227 -100 339 14 89 72 180 150 237 38 28 169 95 209
108 43 13 95 6 99 -13z"/>
<path d="M13095 15985 l-50 -45 28 -22 c26 -22 27 -24 17 -83 -8 -52 -26 -301
-47 -646 -5 -90 -4 -98 15 -108 30 -16 46 10 53 93 30 336 68 689 79 724 8 30
4 107 -6 124 -11 18 -42 5 -89 -37z"/>
<path d="M5352 15264 c-52 -14 -122 -78 -187 -174 -77 -113 -95 -247 -50 -374
13 -37 31 -76 39 -85 9 -10 16 -22 16 -28 0 -6 31 -40 70 -76 159 -147 336
-144 645 11 224 112 316 272 260 455 -56 185 -243 273 -597 279 -89 2 -170 -2
-196 -8z m288 -69 c107 -7 246 -37 299 -65 67 -33 121 -136 121 -227 0 -57
-38 -136 -89 -189 -22 -22 -82 -63 -133 -91 -166 -90 -296 -122 -417 -102
-106 18 -145 47 -197 149 -27 50 -29 64 -29 160 0 95 3 110 28 162 64 131 192
222 297 212 19 -2 73 -6 120 -9z"/>
<path d="M7570 15154 c-108 -18 -199 -65 -225 -114 -8 -15 -19 -55 -24 -88
-12 -73 1 -136 48 -233 45 -95 91 -150 152 -184 49 -27 62 -29 149 -29 103 1
151 14 285 79 253 123 318 251 186 367 -56 49 -219 118 -282 118 -14 0 -34 9
-44 20 -35 39 -176 75 -245 64z m200 -144 c141 -23 305 -91 344 -143 19 -26
19 -30 6 -55 -37 -64 -217 -164 -365 -202 -84 -22 -173 -15 -228 17 -56 33
-128 178 -131 265 -3 100 159 151 374 118z"/>
<path d="M10240 14830 c-9 -16 -3 -47 24 -143 50 -179 76 -283 76 -311 0 -13
8 -34 19 -47 17 -21 21 -22 36 -9 41 34 40 55 -10 235 -14 50 -35 128 -46 175
-11 47 -28 93 -36 103 -21 23 -50 22 -63 -3z"/>
<path d="M13180 14334 c-157 -27 -209 -43 -310 -94 -71 -36 -168 -128 -200
-189 -55 -110 34 -251 188 -298 142 -43 523 16 657 102 161 102 148 282 -26
375 -32 17 -71 41 -86 54 -16 13 -38 28 -51 35 -24 13 -131 22 -172 15z m-57
-134 c50 23 189 19 261 -8 103 -38 158 -93 158 -158 0 -49 -27 -84 -92 -116
-135 -69 -459 -110 -570 -73 -101 33 -161 125 -127 191 31 60 118 124 225 164
43 16 49 16 79 2 30 -14 38 -14 66 -2z"/>
<path d="M19415 14122 c-38 -34 -281 -75 -599 -101 -71 -6 -135 -16 -143 -22
-16 -14 -17 -51 -1 -67 16 -16 100 -15 278 3 349 35 503 62 548 98 31 25 -3
97 -47 97 -15 0 -31 -4 -36 -8z"/>
<path d="M5576 13854 c-88 -24 -163 -50 -168 -56 -4 -7 -8 -27 -8 -44 0 -20
-13 -50 -35 -80 -138 -190 -130 -399 20 -549 96 -96 200 -123 335 -87 164 45
304 134 461 294 75 76 89 96 107 153 12 36 22 83 22 104 0 57 -34 123 -91 178
-97 93 -215 133 -389 132 -81 0 -119 -7 -254 -45z m467 -65 c83 -25 140 -75
158 -141 10 -36 9 -54 -5 -106 -21 -84 -55 -133 -146 -210 -202 -170 -363
-238 -503 -211 -54 10 -68 18 -109 60 -144 147 -76 430 128 530 40 20 69 41
74 55 12 31 25 37 100 45 95 11 225 1 303 -22z"/>
<path d="M7630 13718 c-90 -51 -167 -125 -200 -193 -22 -43 -25 -64 -25 -150
0 -133 21 -190 95 -266 51 -52 60 -56 128 -69 127 -23 244 4 469 111 213 100
335 184 372 256 18 35 13 87 -12 124 -73 109 -370 214 -637 225 l-115 5 -75
-43z m313 -59 c164 -33 247 -58 332 -99 93 -44 130 -78 120 -109 -15 -48 -162
-139 -380 -235 -175 -78 -332 -104 -413 -71 -84 36 -121 101 -122 213 0 40 6
87 14 105 33 77 154 176 218 178 13 0 43 8 68 19 58 23 46 23 163 -1z"/>
<path d="M10484 13475 c-4 -9 -3 -55 2 -103 4 -48 7 -249 6 -447 0 -198 2
-378 6 -400 8 -46 37 -58 65 -27 15 16 17 61 18 448 0 236 -2 446 -6 467 -11
56 -77 101 -91 62z"/>
<path d="M13305 12980 c-15 -16 -16 -29 -10 -87 4 -37 8 -244 9 -459 1 -419 2
-424 52 -424 12 0 26 5 30 11 3 6 6 219 5 473 -2 387 -4 465 -17 484 -18 27
-45 28 -69 2z"/>
<path d="M20755 12766 c-18 -26 -11 -52 16 -67 10 -5 67 -14 126 -19 177 -16
249 -29 433 -76 244 -63 240 -61 240 -89 0 -30 -13 -39 -95 -65 -80 -26 -253
-31 -385 -11 -41 6 -127 15 -190 21 -63 6 -155 15 -205 20 -49 5 -142 14 -205
20 -63 5 -178 17 -255 25 -226 24 -623 46 -720 40 -115 -7 -205 -23 -227 -39
-25 -18 -38 -58 -27 -79 13 -21 45 -21 123 0 49 14 103 17 276 16 219 0 360
-9 715 -44 358 -35 547 -49 665 -49 64 0 120 -3 123 -6 22 -22 -56 -73 -133
-88 -76 -14 -120 -62 -88 -94 21 -21 57 -13 176 42 252 116 293 128 437 136
72 3 140 12 152 18 25 14 37 44 28 72 -5 15 3 32 29 60 20 22 36 44 36 50 0 5
-14 25 -30 44 -32 36 -32 35 -220 76 -48 10 -341 52 -530 76 -63 8 -133 18
-155 24 -66 16 -93 12 -110 -14z m909 -166 c32 -12 36 -55 6 -65 -34 -11 -88
31 -76 60 6 17 33 19 70 5z"/>
<path d="M22694 12682 c-129 -45 -275 -158 -323 -249 -6 -13 -21 -27 -32 -33
-17 -9 -24 -6 -51 24 -37 42 -54 45 -70 12 -9 -20 -7 -31 10 -58 48 -74 48
-77 23 -122 -109 -195 -176 -382 -231 -651 -22 -106 -26 -210 -9 -220 5 -4 21
-4 35 -1 33 9 54 59 54 132 0 95 32 242 94 434 21 67 101 256 120 285 21 31
39 31 102 1 97 -47 127 -51 354 -51 205 1 219 2 303 28 137 42 197 92 197 163
0 51 -34 136 -72 179 -126 143 -318 191 -504 127z m316 -79 c94 -41 198 -158
186 -208 -25 -100 -404 -155 -686 -98 -84 16 -120 35 -120 62 0 17 117 129
194 185 128 93 296 116 426 59z"/>
<path d="M5815 12581 c-117 -34 -165 -73 -165 -137 0 -23 -7 -58 -15 -77 -22
-54 -19 -75 31 -236 52 -165 79 -224 121 -263 97 -92 287 -91 353 2 34 48 86
169 105 245 22 88 22 234 1 293 -20 55 -66 114 -112 142 -80 50 -210 63 -319
31z m237 -87 c51 -36 83 -89 99 -164 24 -116 -31 -326 -109 -416 -20 -24 -73
-54 -94 -54 -26 0 -86 50 -103 86 -37 78 -71 501 -43 537 21 28 87 48 151 44
44 -3 67 -10 99 -33z"/>
<path d="M7884 12303 c-8 -9 -12 -23 -9 -32 4 -9 9 -92 11 -186 7 -248 35
-405 73 -405 14 0 42 37 43 56 0 11 -5 59 -11 107 -7 49 -10 162 -9 252 3 159
2 164 -20 188 -30 32 -58 39 -78 20z"/>
<path d="M28615 12205 c-40 -10 -61 -25 -103 -70 -87 -94 -130 -198 -157 -383
-12 -84 -23 -122 -41 -149 -29 -44 -30 -71 -3 -151 20 -60 21 -71 11 -290 -11
-243 -8 -300 15 -309 8 -3 24 4 36 16 21 21 22 29 19 209 -1 103 2 193 7 201
7 10 26 -1 87 -54 155 -132 377 -234 414 -190 22 27 -9 55 -117 105 -272 129
-394 261 -384 418 1 16 11 27 34 37 47 20 206 35 364 35 165 0 291 13 332 35
17 8 38 30 47 47 52 100 -68 335 -224 438 -95 63 -227 85 -337 55z m227 -95
c76 -23 111 -48 174 -122 51 -61 107 -176 102 -211 -5 -39 -43 -47 -259 -52
-247 -7 -297 -11 -372 -32 -38 -10 -61 -13 -68 -6 -19 19 41 242 85 317 34 57
100 114 140 119 76 10 138 6 198 -13z"/>
<path d="M10549 11926 c-100 -28 -210 -121 -250 -211 -36 -81 -7 -190 68 -255
89 -79 229 -115 407 -105 236 12 362 51 420 128 28 37 33 59 22 104 -9 40
-105 131 -170 162 -48 22 -147 51 -176 51 -9 0 -24 6 -34 13 -16 12 -17 16 -5
34 17 28 2 47 -57 73 -50 23 -152 26 -225 6z m198 -69 c11 -11 14 -20 7 -27
-10 -10 -209 -21 -231 -12 -22 7 -14 31 15 47 38 22 185 16 209 -8z m112 -123
c135 -35 250 -98 273 -149 25 -54 -28 -100 -147 -126 -80 -17 -386 -18 -441
-2 -54 17 -117 60 -150 103 -22 30 -25 43 -21 88 5 63 19 80 84 98 65 19 314
12 402 -12z"/>
<path d="M23205 11839 c-27 -5 -72 -12 -99 -15 -61 -8 -192 -75 -228 -117 -30
-33 -36 -65 -16 -85 20 -20 42 -14 114 33 81 53 167 81 280 91 79 6 190 -5
262 -28 32 -10 32 -10 31 -71 0 -34 4 -76 9 -93 6 -17 7 -49 2 -71 -15 -86 15
-139 104 -185 81 -42 288 -18 421 49 102 52 162 141 151 227 -18 157 -134 244
-346 261 -85 6 -148 -6 -247 -46 -28 -11 -40 -10 -110 13 -43 15 -91 29 -108
32 -59 11 -171 13 -220 5z m815 -124 c61 -19 125 -75 135 -118 21 -81 -35
-150 -154 -194 -65 -24 -91 -28 -181 -28 -113 0 -146 12 -169 63 -17 35 -14
51 24 145 19 48 35 97 35 110 0 44 16 49 140 44 70 -2 136 -11 170 -22z"/>
<path d="M25790 11821 c-287 -67 -443 -144 -567 -281 -97 -106 -125 -169 -88
-200 25 -21 48 -6 96 64 93 136 167 197 322 262 85 36 248 94 264 94 17 0 17
-46 1 -60 -7 -6 -42 -33 -78 -61 -36 -28 -80 -65 -98 -83 -49 -45 -101 -137
-108 -188 -5 -38 -2 -48 20 -75 37 -44 75 -50 132 -23 84 41 130 93 194 218
50 98 49 98 70 -89 14 -134 38 -182 107 -218 55 -28 133 -2 133 45 0 22 -4 24
-43 24 -34 0 -49 6 -70 28 -53 55 -60 90 -66 312 -8 288 -2 282 -221 231z
m101 -159 c15 -39 -100 -225 -174 -282 -79 -61 -127 -17 -71 66 39 57 216 245
227 241 6 -2 14 -13 18 -25z"/>
<path d="M24384 11771 c-71 -43 -82 -95 -31 -146 58 -58 169 -74 315 -46 64
13 75 13 83 0 10 -16 4 -70 -17 -144 -8 -28 -20 -82 -28 -120 -22 -113 -94
-382 -108 -404 -7 -12 -19 -21 -26 -21 -20 0 -29 37 -36 145 -9 122 -13 140
-31 125 -21 -17 -35 -93 -35 -189 0 -134 28 -191 93 -191 55 0 108 105 174
345 13 50 33 122 44 160 10 39 28 120 39 182 18 102 18 115 4 156 -19 57 -35
71 -112 96 -35 12 -71 25 -80 30 -94 47 -193 56 -248 22z m189 -73 c11 -6 17
-18 15 -31 -3 -19 -10 -22 -50 -25 -46 -3 -108 18 -108 38 0 5 10 16 22 24 23
16 84 13 121 -6z"/>
<path d="M29557 11772 c-30 -33 -22 -60 21 -71 20 -6 44 -11 52 -11 28 0 115
-58 157 -103 79 -86 154 -274 139 -349 -15 -72 -82 -118 -173 -118 -149 1
-310 78 -359 171 -18 36 -18 112 0 147 23 44 59 57 149 55 87 -3 107 5 107 43
0 46 -26 57 -116 51 -127 -9 -177 -42 -223 -144 -63 -137 25 -292 206 -361 96
-37 201 -56 263 -47 55 8 127 39 159 68 150 138 5 534 -240 655 -75 36 -118
41 -142 14z"/>
<path d="M5877 11689 c-63 -10 -85 -26 -153 -107 -128 -152 -183 -385 -110
-461 36 -38 138 -66 204 -57 231 33 451 237 452 422 0 46 -4 56 -40 96 -45 52
-113 85 -204 99 -33 5 -70 11 -81 13 -11 2 -42 0 -68 -5z m180 -90 c49 -15
103 -81 103 -126 0 -81 -103 -215 -206 -269 -215 -112 -307 -75 -259 104 63
233 196 341 362 291z"/>
<path d="M26445 11661 c-25 -41 -105 -467 -105 -559 0 -75 44 -103 101 -64 53
35 134 152 205 292 91 181 109 187 109 35 0 -85 2 -96 24 -119 39 -41 84 -36
172 22 76 50 181 134 255 205 55 52 99 56 126 11 10 -17 33 -102 50 -189 35
-169 50 -197 85 -163 15 16 15 24 -6 135 -44 238 -67 310 -105 343 -22 18 -99
6 -139 -22 -18 -12 -68 -55 -111 -96 -44 -41 -91 -81 -105 -90 -14 -9 -46 -31
-70 -49 -24 -18 -54 -33 -66 -33 -41 0 -48 21 -41 132 6 88 4 108 -11 138 -41
79 -95 23 -247 -255 -81 -148 -123 -202 -150 -192 -19 8 -18 14 42 260 37 155
44 194 36 225 -9 36 -35 54 -49 33z"/>
<path d="M30580 11577 c-19 -17 -71 -90 -115 -160 -179 -287 -234 -375 -274
-444 -24 -40 -49 -77 -56 -83 -19 -16 -38 -76 -30 -99 9 -30 32 -32 63 -6 35
29 53 59 238 385 80 140 151 262 159 270 13 12 15 11 15 -11 0 -13 -13 -85
-30 -159 -36 -164 -39 -261 -10 -290 28 -28 74 -25 145 9 72 34 135 82 275
211 175 161 218 181 246 113 12 -29 17 -100 22 -324 l7 -288 29 -30 c34 -35
52 -39 60 -13 3 9 7 148 8 307 2 217 0 305 -11 350 -30 133 -72 157 -202 114
-79 -26 -99 -42 -222 -163 -177 -175 -293 -245 -311 -188 -8 24 30 240 55 316
30 94 23 216 -14 216 -7 0 -28 -15 -47 -33z"/>
<path d="M13478 11589 c-122 -18 -271 -100 -384 -213 -92 -92 -128 -164 -122
-241 8 -99 91 -184 221 -226 61 -19 81 -21 180 -15 212 12 437 83 503 158 18
20 40 57 50 83 15 40 16 54 6 92 -15 55 -43 93 -96 130 -88 63 -194 87 -448
102 -51 3 11 46 82 57 34 6 47 3 72 -16 38 -28 61 -18 66 27 5 54 -39 75 -130
62z m-127 -170 c11 -16 34 -23 104 -34 283 -43 395 -101 395 -205 0 -67 -41
-101 -173 -145 -168 -55 -311 -68 -437 -39 -117 26 -176 81 -174 162 1 82 56
157 179 246 57 41 87 45 106 15z"/>
<path d="M18731 11431 c-7 -5 -11 -17 -9 -27 4 -24 51 -37 225 -63 77 -12 231
-40 344 -62 112 -23 247 -49 299 -59 52 -10 134 -27 181 -39 102 -25 132 -26
149 -6 9 11 7 19 -14 40 -14 14 -37 25 -51 25 -14 0 -63 9 -108 20 -45 10
-127 28 -182 39 -55 11 -154 31 -220 45 -336 71 -583 106 -614 87z"/>
<path d="M7935 11318 c-3 -13 -1 -101 3 -195 10 -183 21 -223 62 -223 36 0 41
32 38 219 -3 159 -5 181 -22 200 -26 29 -74 28 -81 -1z"/>
<path d="M10610 11140 c-19 -4 -52 -11 -72 -14 -47 -9 -90 -51 -131 -130 -28
-53 -32 -71 -32 -141 0 -69 4 -86 27 -126 53 -91 129 -129 273 -136 191 -10
394 54 464 147 30 40 32 49 27 89 -10 70 -48 125 -117 168 -34 21 -83 57 -109
79 -39 34 -60 43 -111 52 -89 16 -178 20 -219 12z m181 -115 c174 -37 318
-152 288 -232 -19 -53 -124 -93 -295 -115 -145 -19 -228 8 -297 94 -22 28 -30
47 -29 74 3 64 32 145 63 177 30 30 31 30 114 23 46 -3 116 -13 156 -21z"/>
<path d="M6157 10644 c-5 -5 -75 -9 -155 -10 -215 0 -316 -31 -405 -121 -55
-57 -80 -135 -68 -217 16 -113 81 -191 205 -245 169 -74 342 -64 533 29 64 32
95 55 150 114 78 84 103 142 103 245 0 97 -35 150 -125 190 -35 16 -226 27
-238 15z m226 -114 c24 -27 27 -38 27 -101 0 -85 -21 -130 -89 -199 -90 -90
-277 -157 -411 -148 -81 6 -189 55 -228 104 -29 37 -52 103 -52 152 0 73 53
141 145 187 62 30 86 31 109 6 28 -31 60 -33 128 -8 56 21 160 42 243 50 53 4
99 -11 128 -43z"/>
<path d="M13454 10599 c-26 -9 -37 -67 -24 -124 5 -22 12 -114 16 -205 8 -187
14 -213 46 -208 46 6 50 39 38 284 -6 124 -13 231 -16 239 -7 17 -35 24 -60
14z"/>
<path d="M8045 10496 c-18 -13 -18 -16 -1 -85 14 -57 17 -106 14 -251 -3 -155
-1 -181 13 -196 11 -10 24 -14 37 -10 38 12 45 57 46 270 1 174 -1 205 -17
233 -16 30 -44 53 -64 53 -5 0 -18 -6 -28 -14z"/>
<path d="M10933 10093 c-4 -9 1 -91 11 -182 18 -171 22 -220 25 -282 0 -20 10
-47 20 -60 19 -23 20 -23 39 -6 30 28 33 69 17 237 -8 85 -15 182 -15 216 0
46 -4 65 -18 77 -24 22 -71 22 -79 0z"/>
<path d="M13391 9704 c-135 -29 -247 -109 -300 -214 -60 -121 -48 -212 38
-293 89 -83 209 -132 356 -143 138 -11 429 31 535 77 180 79 155 259 -50 360
-43 21 -86 54 -126 95 -67 69 -110 92 -221 118 -86 19 -145 19 -232 0z m298
-77 c41 -20 26 -32 -48 -37 -80 -6 -115 -27 -91 -54 7 -9 28 -16 49 -16 91 0
237 -41 290 -82 13 -10 33 -18 45 -18 41 -1 126 -96 126 -141 0 -22 -9 -34
-39 -55 -53 -34 -132 -51 -326 -69 -202 -19 -327 -5 -425 45 -70 36 -130 122
-130 185 0 61 82 160 167 204 38 19 127 45 188 54 47 8 165 -2 194 -16z"/>
<path d="M5944 9652 c-6 -4 -15 -18 -19 -31 -4 -13 -34 -48 -66 -78 -86 -80
-104 -124 -104 -253 0 -122 16 -164 86 -223 51 -44 119 -61 215 -55 57 4 86
13 164 51 164 81 312 202 353 290 30 64 31 101 3 134 -45 53 -198 105 -371
124 -49 6 -123 19 -162 30 -81 21 -84 22 -99 11z m171 -102 c22 -5 95 -19 163
-30 132 -22 173 -37 197 -73 58 -89 -191 -305 -412 -357 -63 -14 -103 -7 -145
28 -43 37 -58 80 -59 172 -1 73 2 85 31 132 38 61 58 79 125 113 58 28 50 27
100 15z"/>
<path d="M8015 9550 c-16 -18 -17 -28 -6 -112 6 -51 12 -193 12 -315 1 -172 5
-225 15 -234 56 -46 87 137 77 460 -4 150 -14 190 -52 211 -26 13 -25 13 -46
-10z"/>
<path d="M18685 9523 c-16 -15 -16 -18 -1 -28 20 -15 129 -36 416 -80 129 -19
249 -38 265 -40 188 -29 780 -60 818 -42 13 6 17 17 15 39 l-3 30 -235 3
c-248 2 -445 20 -760 70 -207 32 -445 65 -476 65 -12 0 -30 -8 -39 -17z"/>
<path d="M10998 9163 c-20 -23 -45 -491 -28 -523 15 -28 46 -25 66 6 23 35 53
496 34 519 -17 20 -53 19 -72 -2z"/>
<path d="M13627 8662 c-17 -19 -18 -26 -37 -312 -6 -85 -17 -199 -26 -253 -16
-105 -10 -137 26 -137 32 0 49 40 65 158 15 104 35 373 39 502 1 52 0 55 -25
58 -15 2 -32 -5 -42 -16z"/>
<path d="M6164 7980 c-12 -5 -25 -13 -28 -19 -6 -9 -20 -362 -17 -420 2 -50
31 -62 81 -36 l30 16 0 122 c0 67 5 163 11 212 l10 90 -26 23 c-29 24 -30 25
-61 12z"/>
<path d="M8000 7749 c-25 -17 -57 -33 -72 -36 -42 -8 -103 -66 -116 -110 -23
-78 14 -191 82 -251 131 -114 318 -121 533 -20 114 54 224 187 207 252 -7 30
-58 78 -112 104 -75 38 -330 92 -432 92 -34 0 -56 -8 -90 -31z m246 -111 l94
-21 25 23 c23 21 28 22 64 11 22 -6 54 -23 71 -37 45 -38 41 -73 -16 -134 -85
-91 -218 -136 -371 -127 -150 9 -213 59 -213 169 0 120 133 165 346 116z"/>
<path d="M10917 7635 c-69 -18 -117 -49 -117 -76 0 -25 29 -25 110 1 72 23
154 27 148 8 -3 -7 -29 -25 -59 -41 -154 -79 -229 -164 -229 -257 0 -65 117
-131 284 -161 197 -34 426 44 521 179 27 40 30 51 30 120 0 64 -4 82 -23 109
-30 42 -97 81 -181 106 -90 26 -397 34 -484 12z m492 -105 c23 -11 61 -34 82
-51 36 -28 39 -35 39 -78 0 -41 -6 -55 -37 -94 -92 -114 -309 -156 -500 -98
-132 40 -152 82 -83 170 74 93 157 131 290 131 63 0 82 4 101 20 30 25 53 25
108 0z"/>
<path d="M13593 7445 c-176 -26 -284 -89 -299 -173 -3 -21 -17 -53 -31 -74
-40 -59 -73 -149 -73 -200 0 -39 6 -54 31 -83 42 -47 74 -63 153 -74 79 -11
156 -2 316 38 139 35 250 78 296 115 139 111 74 328 -126 423 -78 38 -150 45
-267 28z m295 -112 c45 -48 92 -151 92 -202 0 -73 -77 -117 -291 -166 -221
-51 -317 -51 -379 1 -46 40 -48 74 -6 159 70 142 170 210 306 209 93 -1 128
-18 177 -85 29 -41 40 -50 62 -47 39 4 39 44 1 96 -54 75 -25 102 38 35z"/>
<path d="M18785 7291 c-79 -7 -125 -22 -125 -42 0 -5 10 -13 23 -18 12 -5 279
-11 592 -14 416 -4 604 -10 695 -21 188 -23 289 -34 352 -41 31 -3 76 -12 99
-20 38 -14 45 -14 66 0 27 18 26 16 13 49 -11 31 -60 46 -146 46 -34 0 -126 9
-205 19 -79 11 -198 25 -264 31 -136 12 -978 21 -1100 11z"/>
<path d="M6225 6940 c-14 -16 -16 -30 -11 -82 15 -149 18 -365 6 -465 -14
-118 -9 -133 46 -133 42 0 50 14 59 115 11 126 8 504 -5 535 -10 24 -46 50
-69 50 -4 0 -16 -9 -26 -20z"/>
<path d="M8218 6953 c-22 -5 -22 -12 -2 -34 24 -26 13 -42 -43 -61 -76 -27
-113 -58 -149 -123 -69 -128 -88 -390 -37 -512 33 -81 138 -149 246 -160 102
-10 264 54 370 147 104 92 160 223 137 324 -29 129 -153 288 -276 353 -75 40
-208 75 -246 66z m157 -93 c25 -12 77 -54 120 -98 137 -139 181 -271 127 -386
-44 -93 -170 -190 -287 -221 -143 -37 -232 1 -269 116 -31 94 -12 308 36 404
32 63 104 115 159 115 32 0 59 28 59 62 0 33 -1 33 55 8z"/>
<path d="M11090 6726 c-117 -27 -199 -80 -231 -151 -21 -46 -25 -131 -7 -172
38 -89 133 -174 238 -214 28 -11 95 -25 149 -31 85 -10 107 -9 165 6 163 41
265 130 266 231 0 100 -153 183 -417 225 -39 6 -79 17 -88 24 -16 11 -14 15
19 34 78 46 22 74 -94 48z m-44 -130 c27 -8 133 -38 237 -66 150 -42 198 -60
240 -89 38 -27 53 -44 55 -64 7 -55 -46 -99 -157 -133 -92 -28 -227 -12 -326
38 -80 40 -102 62 -136 133 -40 82 -37 125 9 178 18 21 16 20 78 3z"/>
<path d="M13539 6634 c-16 -20 -16 -57 4 -165 20 -109 36 -272 40 -416 4 -119
12 -143 53 -143 42 0 46 25 34 232 -5 105 -12 193 -14 197 -2 3 -7 35 -10 71
-8 83 -31 214 -40 229 -10 16 -52 13 -67 -5z"/>
</g>
</svg>
