<?xml version="1.0" standalone="no"?>
<!DOCTYPE svg PUBLIC "-//W3C//DTD SVG 20010904//EN"
 "http://www.w3.org/TR/2001/REC-SVG-20010904/DTD/svg10.dtd">
<svg version="1.0" xmlns="http://www.w3.org/2000/svg"
 width="3264.000000pt" height="2448.000000pt" viewBox="0 0 3264.000000 2448.000000"
 preserveAspectRatio="xMidYMid meet">
<metadata>
Created by potrace 1.12, written by Peter Selinger 2001-2015
</metadata>
<g transform="translate(0.000000,2448.000000) scale(0.100000,-0.100000)"
fill="#000000" stroke="none">
<path d="M7655 23851 c-8 -16 -24 -90 -35 -163 -54 -347 -132 -702 -201 -910
-51 -153 -60 -216 -34 -238 23 -19 35 -2 45 66 4 32 27 113 49 179 65 188 110
364 196 770 18 88 41 190 51 226 15 56 16 70 5 83 -22 26 -59 20 -76 -13z"/>
<path d="M5920 23850 c-11 -11 -20 -32 -20 -47 0 -33 -46 -134 -92 -201 -47
-69 -119 -153 -243 -282 -209 -218 -256 -301 -209 -368 35 -51 65 -57 259 -56
114 1 212 8 269 18 90 16 106 15 106 -8 0 -6 -27 -95 -60 -196 -75 -230 -77
-239 -52 -270 27 -34 52 -21 52 27 0 21 22 108 49 193 27 85 57 182 67 215 9
33 20 63 24 68 3 4 49 18 101 31 52 13 102 27 111 31 25 10 32 38 13 51 -13
10 -30 7 -86 -12 -68 -24 -100 -29 -111 -18 -4 3 3 38 14 77 11 40 44 162 74
272 66 242 88 300 128 343 25 26 28 36 20 50 -18 27 -50 26 -83 -5 -45 -40
-67 -107 -177 -543 -30 -118 -58 -218 -62 -222 -14 -13 -178 -29 -367 -35
-214 -7 -225 -3 -225 62 0 41 50 109 192 260 228 244 346 413 364 523 5 34 3
42 -15 51 -17 9 -24 8 -41 -9z"/>
<path d="M9052 23611 c-66 -64 -236 -420 -316 -661 -79 -240 -120 -393 -112
-424 7 -28 33 -41 51 -26 7 6 16 31 20 56 11 77 101 373 171 566 65 181 153
370 193 418 19 23 20 23 20 5 0 -11 -8 -54 -19 -95 -44 -166 -90 -499 -90
-656 0 -87 3 -105 21 -128 40 -50 85 -25 164 94 45 67 78 130 145 280 102 228
113 249 120 245 4 -3 4 -26 -1 -52 -18 -105 -49 -413 -49 -494 0 -93 12 -142
42 -176 29 -32 55 -35 85 -9 30 26 24 46 -13 46 -19 0 -29 8 -41 37 -35 86 -3
422 68 713 27 107 30 132 19 144 -20 25 -47 19 -74 -16 -24 -32 -216 -411
-283 -558 -50 -109 -116 -205 -134 -194 -14 8 -10 160 6 280 20 146 71 395
100 497 29 97 30 111 9 131 -26 26 -59 19 -102 -23z"/>
<path d="M10690 23565 c-10 -12 -6 -39 24 -143 21 -70 53 -173 72 -229 19 -57
34 -109 34 -117 0 -7 -30 -33 -67 -57 -76 -49 -136 -94 -203 -153 -68 -61 -83
-83 -76 -111 11 -43 42 -30 125 53 74 74 227 192 249 192 6 0 20 -21 32 -46
18 -42 82 -153 147 -257 27 -42 46 -44 51 -4 4 30 -8 54 -94 197 -94 158 -96
145 38 225 133 80 238 162 238 186 0 39 -35 24 -193 -81 -91 -61 -171 -110
-179 -110 -18 0 -40 64 -78 225 -41 173 -58 223 -80 235 -24 13 -25 13 -40 -5z"/>
<path d="M10449 23373 c-36 -38 -59 -86 -120 -249 -98 -265 -179 -407 -268
-469 -40 -27 -45 -28 -68 -15 -76 44 -90 137 -48 325 30 136 57 218 92 288 29
59 24 90 -15 85 -34 -4 -64 -57 -97 -170 -69 -238 -88 -436 -51 -511 23 -47
80 -87 124 -87 124 0 268 191 367 485 20 61 55 156 77 212 45 118 47 150 7
106z"/>
<path d="M6728 23194 c-15 -15 -8 -53 12 -64 23 -12 425 -19 458 -7 24 9 30
44 9 53 -7 2 -81 6 -163 8 -82 2 -185 7 -229 11 -44 4 -83 4 -87 -1z"/>
<path d="M9261 20006 c-20 -24 4 -76 34 -76 17 0 32 -16 61 -66 66 -112 809
-866 1021 -1036 21 -17 97 -70 168 -119 72 -49 160 -117 198 -152 l67 -62 15
-120 c13 -113 48 -495 60 -670 3 -44 12 -255 20 -470 9 -214 20 -430 25 -480
15 -144 12 -434 -6 -548 -17 -109 -11 -147 25 -147 30 0 46 29 47 89 1 31 6
106 12 166 13 125 8 317 -14 549 -8 87 -12 161 -9 164 3 4 191 7 418 8 227 1
795 5 1262 9 468 4 967 7 1110 8 231 2 260 4 263 18 2 9 -5 24 -14 34 -17 16
-87 17 -1213 11 -658 -4 -1317 -9 -1466 -11 -148 -3 -291 -2 -317 1 l-46 6 -6
157 c-12 294 -36 696 -50 836 -8 77 -20 196 -26 265 -13 134 -28 186 -57 197
-10 3 -44 30 -76 60 -32 29 -124 98 -205 152 -114 77 -196 145 -364 300 -119
110 -220 207 -225 215 -4 8 -123 131 -263 275 -206 210 -263 274 -295 332 -22
40 -51 80 -65 90 -38 27 -74 33 -89 15z"/>
<path d="M3426 19914 c-21 -20 -20 -26 5 -58 24 -31 40 -33 62 -8 45 49 -20
113 -67 66z"/>
<path d="M5490 19890 c-7 -12 -10 -95 -9 -221 1 -132 -2 -204 -9 -211 -6 -6
-36 -13 -66 -16 -68 -5 -73 3 -57 89 10 47 10 64 0 75 -18 22 -34 2 -54 -73
-38 -139 -81 -225 -163 -320 -34 -41 -51 -53 -73 -53 -42 0 -57 32 -84 176
-13 69 -28 131 -33 136 -5 5 -20 8 -33 6 -34 -4 -35 -39 -4 -171 45 -190 76
-236 153 -224 49 8 153 115 203 210 l36 69 59 5 c32 3 73 6 89 6 l30 2 3 -83
c2 -64 6 -84 18 -89 26 -10 34 17 34 109 l0 86 54 30 c55 32 70 50 56 71 -5
10 -16 10 -46 2 -21 -6 -41 -7 -45 -3 -8 9 5 344 15 360 4 6 2 21 -4 32 -14
26 -56 26 -70 0z"/>
<path d="M9185 19880 c-24 -46 -52 -252 -66 -480 -8 -117 -13 -413 -14 -690 0
-267 -4 -493 -9 -503 -7 -16 -16 -18 -50 -13 -144 22 -237 27 -541 32 -187 2
-439 11 -560 20 -275 19 -413 16 -429 -8 -7 -12 -8 -23 -1 -34 8 -13 41 -16
190 -19 99 -2 227 -9 285 -14 58 -6 224 -10 370 -11 315 0 710 -23 722 -42 4
-7 6 -19 3 -27 -3 -7 -5 -120 -5 -250 0 -188 5 -280 25 -451 47 -398 55 -699
25 -875 -6 -33 -21 -184 -35 -335 -28 -312 -34 -356 -75 -559 -31 -156 -50
-313 -50 -418 l0 -65 -32 5 c-18 4 -134 11 -258 17 -124 5 -317 15 -430 21
-419 22 -502 23 -543 5 -33 -13 -38 -19 -35 -43 l3 -28 110 3 c61 2 178 -1
260 -7 83 -6 268 -13 412 -16 267 -6 483 -18 501 -28 10 -7 26 -260 22 -347
-6 -123 -6 -124 13 -128 12 -2 40 19 80 58 34 34 87 79 117 100 94 64 184 142
393 341 137 130 256 232 372 319 205 153 253 185 262 176 4 -3 8 -145 10 -314
2 -169 8 -361 13 -427 27 -310 33 -928 23 -2360 -3 -352 -5 -723 -6 -825 -1
-181 19 -477 48 -710 38 -293 43 -422 32 -730 -6 -159 -5 -225 6 -295 8 -49
14 -91 13 -92 -1 -1 -26 4 -56 12 -49 14 -329 74 -515 111 -38 8 -155 28 -260
45 -201 32 -589 99 -895 154 -433 78 -872 137 -1128 151 l-124 7 4 -24 c3 -27
3 -27 243 -49 287 -27 581 -70 1155 -172 217 -38 523 -91 680 -118 411 -70
848 -163 890 -189 69 -42 137 -16 90 34 -29 30 -37 143 -12 161 15 11 15 16 3
56 -11 33 -15 122 -15 398 -1 195 -4 364 -8 375 -4 11 -14 89 -23 173 -8 85
-17 157 -20 161 -9 16 -35 380 -36 511 -1 198 7 1075 16 1700 7 536 -4 1252
-24 1510 -5 63 -11 272 -13 465 l-3 349 147 91 c81 49 222 131 313 180 92 50
170 96 172 103 7 16 -21 48 -47 55 -23 6 -37 -3 -41 -28 -2 -10 -15 -25 -29
-32 -421 -217 -970 -590 -1224 -833 -249 -238 -302 -285 -411 -372 -60 -49
-115 -88 -122 -88 -8 0 -12 12 -12 33 1 17 -2 91 -6 163 -7 116 -6 133 10 157
16 26 16 29 1 46 -31 34 -13 263 40 531 33 166 40 222 65 505 5 66 20 201 32
300 33 268 29 534 -13 895 -30 258 -32 290 -27 520 3 135 13 304 22 375 13
107 15 208 13 565 -4 584 22 980 68 1031 19 21 18 36 -5 49 -32 17 -50 12 -66
-20z"/>
<path d="M6209 19797 c-43 -37 -52 -54 -86 -151 -44 -126 -42 -371 3 -458 63
-122 268 -70 379 96 55 84 68 129 69 241 1 88 -2 107 -25 156 -44 93 -134 148
-244 148 -53 0 -64 -3 -96 -32z m186 -56 c104 -46 148 -169 110 -314 -18 -70
-49 -120 -107 -174 -79 -72 -139 -90 -187 -57 -94 67 -67 416 42 541 27 31 34
34 66 28 20 -4 54 -14 76 -24z"/>
<path d="M3435 19610 c-17 -19 -17 -26 18 -202 20 -101 40 -203 43 -228 8 -52
19 -70 45 -70 25 0 25 53 -1 230 -12 74 -25 163 -30 198 -12 90 -37 114 -75
72z"/>
<path d="M3886 19598 c-9 -12 -18 -47 -22 -79 -6 -56 -7 -57 -31 -46 -79 36
-74 -156 6 -241 17 -17 26 -20 41 -12 23 13 30 45 38 191 4 63 11 114 16 114
5 0 23 -50 41 -111 38 -128 60 -180 82 -188 38 -15 41 13 13 98 -11 32 -29 97
-40 143 -21 89 -30 112 -56 137 -23 23 -70 20 -88 -6z"/>
<path d="M4500 19549 c-63 -25 -127 -119 -166 -244 -17 -53 -19 -91 -18 -328
2 -231 4 -271 19 -293 9 -14 24 -24 33 -22 32 6 43 76 52 308 l8 225 -23 24
c-23 24 -23 24 -5 75 63 184 147 249 195 151 44 -91 14 -251 -53 -276 -24 -9
-30 -7 -49 18 -21 26 -24 27 -39 11 -14 -14 -14 -19 -3 -44 31 -64 100 -67
162 -6 46 45 67 109 67 206 0 149 -80 235 -180 195z"/>
<path d="M7777 19503 c-4 -3 -7 -17 -7 -29 0 -18 7 -25 28 -29 15 -4 46 -11
70 -16 68 -15 301 -31 369 -24 35 3 192 6 350 6 222 0 307 -4 373 -16 125 -24
135 -24 135 0 0 30 -80 64 -178 76 -48 6 -259 9 -512 8 -378 -3 -438 -1 -498
14 -71 18 -119 22 -130 10z"/>
<path d="M21250 18630 c0 -5 5 -10 10 -10 6 0 10 5 10 10 0 6 -4 10 -10 10 -5
0 -10 -4 -10 -10z"/>
<path d="M6423 18622 c-7 -4 -22 -46 -34 -92 -24 -96 -28 -247 -10 -405 6 -49
11 -145 11 -213 0 -102 3 -124 16 -129 36 -14 39 9 39 340 0 301 1 327 22 394
19 63 20 73 7 92 -16 22 -31 26 -51 13z"/>
<path d="M3649 18504 c-21 -26 -16 -101 9 -126 41 -42 73 2 63 87 -5 44 -9 50
-32 53 -15 2 -32 -4 -40 -14z"/>
<path d="M5618 18458 c-8 -16 -11 -75 -10 -200 l3 -177 -36 -32 c-50 -46 -44
-104 8 -77 9 5 17 7 18 6 0 -2 3 -43 5 -93 4 -95 13 -116 38 -96 12 10 16 40
18 123 l3 111 90 36 c147 59 194 96 162 129 -13 12 -29 7 -123 -37 -63 -29
-112 -47 -117 -42 -12 12 -9 232 4 293 8 37 8 52 -1 63 -18 22 -48 18 -62 -7z"/>
<path d="M4764 18241 c-70 -32 -115 -112 -130 -232 -3 -30 -13 -59 -21 -66
-28 -22 -34 -87 -19 -189 11 -71 13 -142 9 -265 -5 -129 -3 -172 7 -184 16
-20 46 -19 54 1 3 9 6 106 7 217 1 212 8 311 22 290 26 -41 163 14 239 94 53
57 74 94 87 152 13 57 -1 99 -46 143 -63 61 -132 74 -209 39z m162 -85 c37
-37 41 -59 20 -111 -23 -54 -62 -100 -120 -140 -53 -37 -124 -61 -138 -47 -12
12 12 182 34 240 24 64 62 92 127 92 36 0 49 -6 77 -34z"/>
<path d="M5481 18222 c-5 -10 -24 -53 -40 -95 -43 -108 -96 -212 -144 -279
-70 -101 -85 -73 -67 122 6 71 9 134 5 140 -11 18 -54 11 -65 -11 -7 -13 -10
-78 -8 -184 3 -144 5 -165 22 -184 51 -56 118 -4 218 169 41 71 119 280 116
308 -4 32 -23 39 -37 14z"/>
<path d="M4082 18174 c-17 -20 -44 -64 -61 -98 -17 -33 -31 -59 -32 -56 -1 3
-7 39 -13 80 -10 67 -14 75 -34 78 -56 8 -63 -30 -31 -163 13 -55 18 -101 14
-124 -5 -29 -2 -43 13 -62 19 -23 21 -23 40 -6 11 10 34 62 52 115 44 131 78
197 96 180 2 -2 13 -51 24 -109 23 -118 53 -189 81 -189 23 0 24 30 4 115 -8
33 -20 101 -26 150 -12 99 -27 125 -70 125 -20 0 -36 -10 -57 -36z"/>
<path d="M3661 18158 c-13 -37 -41 -268 -41 -341 0 -58 14 -87 40 -87 23 0 25
6 39 163 6 65 19 151 28 192 19 87 14 105 -26 105 -24 0 -31 -6 -40 -32z"/>
<path d="M16308 17778 c-20 -20 -21 -27 -14 -167 4 -80 8 -159 9 -175 2 -26
-2 -30 -48 -43 -78 -23 -107 -62 -70 -93 13 -11 25 -8 71 14 32 16 60 24 65
19 5 -5 16 -47 25 -93 29 -154 90 -281 129 -267 19 8 20 4 -24 128 -16 48 -35
115 -41 150 -6 35 -14 74 -17 86 -4 18 1 23 34 32 21 6 103 16 183 22 80 6
161 14 180 18 46 9 52 36 9 45 -59 11 -231 6 -321 -10 -62 -12 -92 -14 -100
-6 -6 6 -12 83 -16 181 -5 183 -12 201 -54 159z"/>
<path d="M15997 17278 c-19 -24 -74 -99 -123 -168 -117 -165 -228 -277 -315
-318 -86 -41 -133 -42 -152 -4 -33 64 -28 241 12 411 21 91 19 111 -10 111
-26 0 -34 -19 -60 -145 -18 -85 -24 -142 -24 -250 0 -160 11 -194 71 -222 92
-44 279 58 415 227 54 68 204 292 233 348 16 31 15 52 -4 52 -5 0 -24 -19 -43
-42z"/>
<path d="M14608 17285 c-40 -22 -132 -139 -172 -219 -83 -166 -86 -295 -10
-385 76 -88 215 -106 346 -44 85 40 151 106 191 191 27 57 31 78 31 142 -1 89
-23 146 -80 209 -50 56 -87 73 -154 75 -43 1 -60 6 -78 24 -26 26 -37 27 -74
7z m200 -119 c64 -33 111 -109 119 -191 12 -112 -56 -220 -174 -276 -58 -27
-73 -31 -134 -27 -58 3 -74 8 -105 34 -67 54 -79 78 -79 152 1 79 26 149 86
243 38 59 42 62 55 44 13 -18 15 -18 66 8 60 30 124 35 166 13z"/>
<path d="M3618 17119 c-10 -5 -18 -20 -18 -33 0 -28 34 -61 54 -53 20 8 49 65
42 83 -6 16 -53 18 -78 3z"/>
<path d="M6530 17089 c-25 -6 -90 -13 -145 -17 -92 -6 -100 -9 -103 -28 -2
-12 5 -29 14 -39 15 -14 29 -16 93 -10 42 4 110 13 151 21 147 27 187 15 178
-53 -8 -54 -56 -127 -164 -247 -126 -139 -183 -213 -210 -271 -40 -85 -27
-193 29 -229 13 -9 53 -19 88 -22 152 -14 517 98 567 173 13 20 12 23 -3 30
-10 3 -30 1 -44 -5 -14 -5 -53 -22 -86 -36 -116 -48 -236 -78 -335 -83 -104
-4 -129 3 -163 48 -17 23 -18 31 -8 62 20 60 83 146 210 287 189 209 233 320
157 396 -33 33 -37 34 -107 33 -41 -1 -94 -5 -119 -10z"/>
<path d="M5849 17053 c-11 -13 -13 -61 -11 -235 l3 -220 -55 7 c-39 5 -61 4
-71 -5 -38 -31 1 -80 65 -80 63 0 64 -1 56 -169 -7 -147 -7 -151 13 -151 11 0
23 5 27 12 4 6 10 77 13 157 l6 145 90 14 c96 14 134 35 121 67 -5 15 -14 16
-64 9 -31 -4 -75 -8 -97 -8 l-40 -1 4 195 c2 107 8 205 12 218 19 49 -39 85
-72 45z"/>
<path d="M4213 16840 c-18 -10 -43 -36 -56 -57 -24 -39 -77 -163 -77 -182 0
-31 -53 -172 -63 -168 -15 5 -43 96 -52 170 -5 41 -2 79 10 132 20 83 13 105
-31 105 -29 0 -39 -18 -53 -103 -15 -87 -8 -135 40 -270 22 -60 39 -117 39
-126 0 -24 33 -53 52 -46 24 10 46 56 104 231 60 181 91 249 114 249 18 0 25
-33 45 -215 17 -149 32 -194 63 -188 19 4 19 -5 3 208 -14 186 -26 246 -54
265 -28 20 -45 19 -84 -5z"/>
<path d="M7580 16831 c-29 -8 -38 -42 -16 -63 12 -12 25 -13 68 -6 69 11 451
1 639 -18 195 -19 585 -41 695 -39 111 2 136 10 132 38 -4 29 -34 33 -354 46
-143 6 -296 15 -340 21 -212 26 -756 40 -824 21z"/>
<path d="M4875 16821 c-60 -17 -87 -32 -136 -78 -74 -69 -116 -163 -140 -308
-21 -135 -10 -550 17 -638 9 -28 40 -40 58 -21 20 19 20 82 1 189 -18 98 -19
167 -3 267 10 69 10 80 -5 96 -21 23 -21 37 -2 126 48 225 205 368 306 278 66
-59 45 -188 -43 -253 -70 -51 -145 -81 -188 -74 -48 8 -67 -11 -43 -44 36 -52
199 -2 294 90 62 61 82 106 81 187 -1 130 -89 212 -197 183z"/>
<path d="M3630 16790 c-39 -39 -16 -205 61 -431 23 -68 44 -151 48 -184 5 -52
9 -60 28 -63 46 -7 43 54 -11 252 -46 164 -58 234 -58 338 -1 75 -4 90 -19 98
-24 13 -26 13 -49 -10z"/>
<path d="M5625 16708 c-28 -80 -78 -204 -94 -237 -28 -54 -133 -165 -176 -185
-47 -22 -70 -9 -101 57 -26 56 -31 106 -13 139 6 11 8 31 5 45 -5 19 -12 24
-34 21 -22 -2 -30 -12 -45 -53 -23 -61 -18 -108 19 -193 40 -93 98 -121 180
-87 52 21 161 131 204 205 43 74 106 259 97 284 -7 19 -36 22 -42 4z"/>
<path d="M26094 15918 c-27 -18 -50 -41 -52 -51 -6 -29 23 -63 72 -87 31 -14
46 -28 46 -41 0 -10 -23 -58 -50 -106 -100 -174 -103 -233 -14 -318 30 -29 54
-60 54 -68 0 -9 -18 -50 -40 -92 -76 -145 -46 -216 154 -364 72 -53 102 -62
113 -35 4 12 -18 40 -80 98 -47 44 -95 99 -105 121 -37 76 -36 93 8 183 22 46
40 93 40 104 0 11 -21 41 -48 67 -34 33 -52 61 -61 93 -16 58 -9 82 65 211 65
114 67 140 14 174 -80 51 -78 47 -34 69 30 15 39 25 39 44 0 21 -5 25 -36 28
-27 2 -47 -5 -85 -30z"/>
<path d="M25042 15828 c-7 -7 -12 -18 -12 -25 0 -7 33 -68 74 -136 126 -209
255 -483 292 -617 21 -78 24 -258 6 -339 -20 -85 -69 -177 -131 -243 -59 -63
-78 -70 -143 -53 -37 10 -57 -25 -34 -59 24 -37 60 -40 124 -11 86 39 163 121
225 237 43 81 52 133 52 298 0 148 -2 159 -32 245 -48 139 -142 339 -223 476
-41 68 -84 143 -95 166 -12 23 -28 49 -35 58 -15 18 -51 20 -68 3z"/>
<path d="M21800 15760 c-71 -38 -188 -177 -244 -289 -118 -235 -138 -519 -50
-693 73 -143 318 -281 427 -239 17 6 27 18 27 30 0 20 -32 37 -50 26 -17 -11
-123 26 -184 63 -73 45 -136 120 -167 199 -27 71 -37 246 -19 350 16 98 62
229 106 303 53 91 138 175 191 189 44 12 69 41 59 67 -7 19 -54 17 -96 -6z"/>
<path d="M23403 15730 c-13 -11 -26 -43 -33 -77 -7 -32 -21 -94 -32 -138 -30
-125 -34 -315 -9 -520 21 -180 38 -245 73 -282 42 -44 71 -21 39 31 -40 64
-53 164 -54 416 -2 250 9 332 64 501 11 34 18 68 15 75 -8 20 -39 17 -63 -6z"/>
<path d="M3677 15622 c-23 -25 -21 -53 3 -80 17 -18 25 -20 41 -11 11 5 23 17
26 25 3 9 17 20 30 25 18 6 23 15 21 32 -3 19 -10 22 -54 25 -39 2 -54 -1 -67
-16z"/>
<path d="M24701 15561 c-25 -25 -36 -153 -28 -312 l7 -116 -78 -33 c-90 -37
-114 -56 -110 -84 5 -38 53 -32 120 14 33 24 63 39 68 34 5 -5 10 -42 12 -83
2 -66 1 -75 -17 -81 -11 -5 -36 -25 -55 -45 -48 -50 -145 -102 -205 -110 -27
-4 -79 -2 -114 5 -166 30 -257 131 -206 229 22 43 91 98 146 116 50 17 67 38
48 61 -22 26 -66 15 -141 -35 -101 -68 -148 -135 -148 -211 0 -45 17 -85 49
-114 12 -11 21 -22 21 -26 0 -3 -30 -17 -67 -30 -124 -45 -300 -24 -415 49
-27 17 -48 35 -48 39 0 5 33 12 73 14 89 6 138 30 211 102 61 62 73 93 51 136
-29 57 -105 77 -201 55 -138 -32 -228 -102 -254 -197 -38 -139 219 -301 455
-286 68 5 160 38 216 79 13 10 25 8 61 -8 69 -33 121 -44 214 -44 78 0 94 3
151 31 35 17 89 56 119 86 31 30 57 54 59 54 1 0 5 -19 8 -41 7 -50 31 -79 49
-61 9 9 11 60 9 187 l-3 175 66 31 c96 45 85 79 -14 44 -23 -8 -45 -13 -49
-11 -14 9 -12 184 4 283 9 57 14 107 10 113 -10 17 -54 11 -74 -9z m-928 -492
c45 -24 46 -38 7 -83 -44 -50 -122 -86 -186 -86 -36 0 -58 -5 -69 -17 -24 -23
-37 0 -32 55 6 53 24 74 90 103 90 39 152 48 190 28z"/>
<path d="M6712 15528 c-7 -7 -12 -21 -12 -33 0 -32 20 -45 70 -45 53 0 257
-25 319 -39 93 -21 77 -44 -93 -132 -143 -75 -156 -85 -156 -130 0 -21 8 -47
19 -61 11 -13 99 -66 196 -118 196 -105 288 -171 293 -211 12 -99 -347 -329
-513 -329 -15 0 -42 7 -61 16 -41 20 -67 12 -62 -18 5 -39 61 -60 143 -54 124
9 263 68 409 174 82 60 121 105 142 164 22 64 12 99 -45 150 -39 35 -247 167
-336 214 -11 5 -42 23 -68 39 -58 34 -58 35 68 99 159 82 215 135 201 191 -13
52 -93 79 -335 115 -156 23 -163 24 -179 8z"/>
<path d="M18032 15529 c-149 -25 -320 -111 -432 -215 -111 -105 -163 -196
-145 -253 9 -30 112 -78 205 -96 233 -44 276 -62 294 -122 12 -37 -60 -105
-152 -144 -95 -39 -162 -43 -192 -11 -26 27 -56 28 -70 3 -16 -30 -12 -59 11
-82 19 -19 30 -21 108 -17 74 3 98 9 163 40 161 76 234 193 179 284 -27 45
-86 69 -247 102 -135 29 -207 55 -232 85 -24 29 78 148 196 229 102 70 291
138 385 138 51 0 70 18 50 49 -12 19 -49 22 -121 10z"/>
<path d="M6185 15476 c-44 -67 -58 -129 -64 -280 l-6 -149 -28 -10 c-46 -15
-52 2 -27 78 16 47 19 70 12 77 -16 16 -37 -5 -51 -53 -7 -22 -35 -88 -63
-147 -45 -95 -60 -117 -139 -195 -122 -121 -213 -163 -258 -118 -34 34 -47
219 -19 263 27 42 28 58 8 78 -16 16 -25 18 -40 10 -33 -18 -60 -83 -60 -145
0 -68 17 -190 32 -228 29 -75 114 -88 218 -34 86 44 220 172 266 253 30 53 41
65 72 74 76 21 75 23 68 -97 -4 -60 -9 -143 -12 -185 -6 -74 -5 -78 15 -78 34
0 43 35 50 210 3 93 9 171 12 175 3 3 59 20 123 39 126 36 170 62 147 90 -15
18 -37 15 -155 -21 -93 -27 -102 -28 -109 -9 -7 17 18 205 34 261 6 21 22 55
35 74 13 20 24 43 24 51 0 43 -60 54 -85 16z"/>
<path d="M20627 15486 c-9 -9 -26 -42 -38 -73 -21 -52 -23 -74 -23 -208 1
-160 16 -256 55 -360 24 -65 75 -125 106 -125 30 0 106 53 142 98 18 23 37 42
42 42 5 0 23 -16 40 -35 17 -19 39 -35 49 -35 24 0 43 25 35 49 -10 31 -90
111 -111 111 -20 0 -58 -32 -128 -108 -21 -24 -46 -42 -55 -40 -43 8 -89 180
-98 368 -6 119 4 194 33 256 9 18 14 41 12 51 -4 23 -41 29 -61 9z"/>
<path d="M19380 15464 c-13 -34 -13 -57 3 -78 17 -23 55 -18 73 9 12 18 11 25
-12 58 -29 43 -51 47 -64 11z"/>
<path d="M19830 15370 c-11 -11 -20 -29 -20 -39 0 -23 45 -292 62 -368 10 -46
9 -55 -11 -86 -11 -19 -21 -41 -21 -50 0 -20 29 -30 46 -16 11 9 16 5 24 -16
5 -14 10 -32 10 -38 0 -22 39 -77 55 -77 20 0 19 35 -2 110 -9 33 -13 63 -9
67 10 11 180 51 189 46 5 -3 0 -15 -11 -27 -56 -61 -69 -157 -29 -217 53 -78
192 -108 287 -62 55 27 110 76 110 98 0 30 -29 27 -87 -8 -54 -33 -89 -42
-155 -38 -43 2 -88 49 -95 97 -8 60 14 93 84 129 47 25 58 35 58 55 0 21 -5
25 -30 25 -16 0 -48 4 -70 8 -29 6 -67 2 -133 -12 -128 -29 -138 -28 -146 12
-15 81 -36 267 -36 319 0 99 -26 132 -70 88z"/>
<path d="M19211 15307 c-26 -33 -65 -142 -107 -305 -66 -258 -83 -311 -116
-374 -57 -107 -96 -118 -164 -46 -35 37 -48 63 -73 144 -17 55 -39 149 -50
211 -11 62 -22 117 -26 123 -7 12 -52 13 -59 2 -3 -5 -19 -60 -36 -123 -37
-135 -65 -190 -102 -203 -23 -8 -32 -6 -54 15 -45 42 -65 97 -98 268 -28 147
-34 166 -51 166 -41 0 -45 -39 -18 -189 31 -176 54 -239 108 -293 35 -35 49
-43 79 -43 73 0 126 52 160 156 9 27 19 56 22 64 4 8 19 -37 35 -100 34 -138
77 -229 127 -270 76 -63 145 -64 203 -2 78 81 106 156 177 462 28 118 60 239
72 269 11 30 19 60 16 68 -7 17 -30 17 -45 0z"/>
<path d="M4962 15225 c-45 -20 -132 -109 -169 -175 -74 -130 -91 -225 -99
-560 -7 -307 -7 -334 9 -395 9 -39 17 -51 34 -53 38 -6 41 20 31 218 -14 266
-6 485 21 585 54 199 148 325 245 325 40 0 100 -46 135 -103 31 -52 45 -134
31 -187 -22 -84 -159 -188 -271 -206 -32 -5 -46 -3 -69 15 -55 40 -86 17 -54
-39 28 -47 79 -58 162 -37 132 35 256 133 287 228 24 72 16 162 -21 235 -28
55 -92 126 -136 151 -30 16 -95 16 -136 -2z"/>
<path d="M22847 15210 c-49 -19 -88 -45 -140 -94 l-29 -26 -30 25 c-38 32 -66
39 -142 33 -135 -11 -316 -143 -316 -231 0 -52 40 -82 162 -123 104 -34 168
-72 168 -98 0 -20 -58 -73 -104 -96 -24 -11 -67 -23 -95 -27 l-51 -6 0 35 c0
27 -5 37 -19 41 -49 12 -89 -69 -58 -117 44 -67 233 -21 336 82 82 82 81 133
-2 186 -28 18 -81 43 -117 55 -94 33 -140 61 -140 86 0 38 91 109 174 135 118
38 201 -15 176 -111 -21 -78 10 -177 80 -253 56 -61 97 -85 183 -107 124 -33
201 -24 285 33 73 50 43 90 -36 47 -106 -56 -267 -29 -363 61 -53 49 -66 87
-27 77 56 -15 188 36 258 99 46 42 90 125 90 171 0 46 -22 96 -55 121 -35 28
-120 29 -188 2z m135 -70 c27 -27 30 -36 25 -71 -8 -59 -48 -112 -112 -149
-106 -60 -163 -50 -186 32 -21 78 19 134 131 187 81 39 104 39 142 1z"/>
<path d="M3703 15198 c-32 -41 -42 -306 -18 -488 21 -161 31 -192 58 -188 30
4 32 32 12 135 -24 122 -22 315 4 427 25 104 24 91 5 110 -19 19 -48 21 -61 4z"/>
<path d="M3978 15153 c-26 -64 -22 -146 12 -257 24 -80 31 -119 29 -168 -4
-73 3 -88 37 -88 21 0 29 10 51 63 85 199 193 377 229 377 32 0 56 -75 79
-254 22 -166 47 -217 85 -171 9 10 9 23 1 47 -6 18 -17 92 -25 163 -25 212
-57 285 -126 285 -74 0 -134 -66 -214 -234 -27 -59 -50 -96 -56 -90 -10 11
-40 152 -40 193 0 16 5 52 12 80 13 58 2 81 -38 81 -17 0 -28 -8 -36 -27z"/>
<path d="M19472 14908 c-19 -19 -14 -48 24 -143 19 -50 43 -110 53 -135 19
-49 48 -63 71 -36 10 13 4 40 -35 158 -26 79 -52 149 -57 156 -13 15 -40 16
-56 0z"/>
<path d="M21109 13760 c-43 -23 -153 -139 -203 -214 -52 -79 -77 -150 -83
-240 -14 -213 78 -389 225 -432 77 -23 189 -15 262 19 233 106 369 347 300
532 -30 81 -113 163 -196 195 -116 44 -265 34 -272 -18 -2 -12 0 -22 5 -23 4
0 46 -1 93 -2 69 -2 96 -7 142 -29 115 -54 176 -152 165 -268 -11 -122 -114
-261 -237 -319 -46 -22 -69 -26 -140 -26 -92 0 -143 19 -186 67 -58 63 -90
190 -82 331 4 73 10 96 41 159 44 89 136 192 197 222 31 14 45 27 45 41 0 27
-31 29 -76 5z"/>
<path d="M29575 13688 c-2 -7 -14 -64 -26 -127 -17 -93 -20 -141 -17 -255 4
-146 12 -180 48 -191 11 -3 29 -24 41 -45 58 -102 223 -80 280 37 34 69 33
191 -1 252 -30 53 -61 67 -118 52 -55 -15 -88 -45 -119 -104 -36 -73 -63 -108
-75 -101 -14 9 -3 197 19 306 9 46 16 106 17 133 1 45 -1 50 -22 53 -12 2 -24
-3 -27 -10z m273 -370 c18 -38 17 -126 -1 -171 -21 -49 -70 -79 -120 -73 -39
4 -87 39 -87 62 0 13 62 134 86 169 36 50 101 57 122 13z"/>
<path d="M27611 13681 c-11 -7 -14 -46 -15 -182 l-1 -174 -34 -16 c-60 -28
-64 -72 -7 -87 l31 -8 3 -134 c2 -107 6 -138 19 -152 20 -23 40 -23 51 0 5 9
6 79 1 161 -5 90 -4 151 2 163 13 25 55 45 153 73 119 34 196 70 196 91 0 25
-79 14 -219 -31 -76 -24 -117 -33 -124 -26 -6 6 -6 45 2 118 16 152 15 199 -5
207 -21 8 -36 7 -53 -3z"/>
<path d="M28170 13651 c-89 -8 -122 -23 -118 -54 4 -26 41 -35 64 -16 9 8 18
9 24 3 6 -6 -12 -43 -50 -100 -75 -114 -87 -159 -73 -253 14 -92 40 -140 89
-169 124 -72 334 71 396 271 58 186 -15 285 -237 321 -11 2 -54 0 -95 -3z
m208 -90 c11 -6 32 -25 47 -43 25 -30 27 -38 22 -94 -9 -115 -91 -234 -199
-288 -94 -47 -135 -27 -159 78 -16 74 -5 133 39 205 95 156 157 192 250 142z"/>
<path d="M24590 13600 c-24 -24 -26 -87 -9 -206 l12 -78 -37 -30 c-25 -22 -36
-39 -36 -58 0 -39 39 -74 55 -48 19 30 28 6 40 -103 4 -39 13 -65 27 -79 34
-34 40 -10 27 109 -7 60 -10 116 -7 125 4 10 49 26 134 46 130 32 162 48 151
76 -8 21 -44 20 -173 -5 -59 -11 -110 -17 -115 -12 -6 6 -19 175 -19 259 0 22
-30 24 -50 4z"/>
<path d="M25841 13606 c-20 -24 -9 -77 20 -99 55 -40 93 13 52 73 -29 43 -52
51 -72 26z"/>
<path d="M31307 13508 c-16 -35 -27 -93 -53 -285 -20 -142 -14 -173 34 -173
34 0 44 8 112 88 29 34 57 62 61 62 5 0 9 -18 9 -40 0 -84 45 -130 126 -130
53 0 84 19 84 53 0 14 -11 17 -65 17 -70 0 -85 11 -85 65 0 38 72 110 146 146
66 31 80 53 49 79 -12 10 -28 7 -82 -15 -101 -40 -149 -70 -239 -152 -45 -40
-84 -73 -88 -73 -16 0 4 152 39 292 10 37 15 74 11 83 -10 27 -43 17 -59 -17z"/>
<path d="M28855 13504 c-52 -29 -65 -45 -65 -85 0 -30 6 -42 25 -55 28 -19 49
-9 61 29 4 12 18 35 31 51 46 55 12 94 -52 60z"/>
<path d="M23568 13474 c-9 -8 10 -34 25 -34 6 0 18 -7 28 -16 20 -18 49 -12
49 9 0 8 -6 20 -14 26 -18 15 -78 25 -88 15z"/>
<path d="M25232 13465 c-29 -13 -33 -19 -30 -46 4 -45 28 -57 75 -39 27 11 79
15 183 15 141 0 145 1 148 22 4 28 -16 38 -105 52 -100 15 -231 13 -271 -4z"/>
<path d="M27503 13453 c-7 -2 -57 -64 -112 -138 -97 -129 -170 -199 -201 -193
-22 5 -40 48 -40 100 0 35 -5 50 -17 56 -24 13 -60 -2 -68 -28 -15 -48 25
-157 68 -184 70 -46 131 -24 218 78 62 73 179 263 179 290 0 18 -10 25 -27 19z"/>
<path d="M23313 13405 c-44 -19 -125 -96 -163 -155 -64 -100 -61 -162 13 -226
39 -33 45 -35 92 -30 81 10 161 56 262 150 101 95 136 152 131 212 -4 52 -23
53 -48 3 -12 -23 -58 -78 -103 -123 -91 -90 -171 -136 -249 -144 -83 -8 -100
31 -48 110 17 25 51 64 75 87 45 41 57 45 138 41 34 -1 37 1 37 24 0 58 -66
82 -137 51z"/>
<path d="M24359 13356 c-177 -141 -377 -226 -439 -186 -10 7 -15 27 -15 66 0
42 -4 59 -17 67 -31 20 -48 -8 -48 -82 0 -72 19 -114 62 -137 34 -20 58 -17
162 16 176 57 403 237 352 279 -11 9 -24 4 -57 -23z"/>
<path d="M26308 13352 c-24 -22 -60 -47 -80 -55 -29 -12 -38 -22 -43 -49 -8
-44 23 -128 51 -138 31 -12 43 0 58 61 20 74 34 109 45 109 5 0 19 -25 31 -55
27 -66 62 -97 104 -93 42 4 42 21 2 59 -25 24 -43 56 -59 103 -14 41 -32 75
-45 84 -19 12 -24 10 -64 -26z"/>
<path d="M21781 13361 c-16 -16 -21 -34 -21 -75 0 -30 5 -58 10 -61 18 -11 55
21 81 69 19 36 22 50 13 63 -16 26 -59 28 -83 4z"/>
<path d="M20005 13344 c-62 -23 -93 -59 -107 -126 -7 -32 -16 -58 -21 -58 -5
0 -21 8 -35 18 -52 36 -90 45 -166 40 -52 -3 -86 -12 -117 -29 -86 -48 -86
-114 1 -211 27 -31 50 -61 50 -66 0 -14 -26 -22 -70 -22 -107 0 -226 101 -239
202 -4 39 -12 56 -32 70 -31 24 -153 43 -214 33 -52 -7 -109 -51 -119 -90 -11
-43 45 -145 80 -145 7 0 19 -9 27 -21 14 -20 16 -20 73 -4 33 10 73 25 91 35
l32 19 68 -68 c77 -77 131 -101 223 -101 45 0 65 6 102 29 84 54 87 82 14 159
-95 101 -94 130 2 140 60 5 108 -9 186 -57 48 -29 63 -45 82 -86 28 -64 73
-107 149 -142 55 -26 70 -28 175 -28 125 0 205 18 254 56 23 18 25 24 14 35
-12 12 -23 11 -72 -6 -118 -42 -229 -37 -343 17 -47 22 -93 63 -93 84 0 4 15
12 33 18 93 31 152 171 113 266 -10 24 -23 36 -43 41 -15 3 -35 7 -43 9 -8 2
-33 -3 -55 -11z m56 -75 c18 -18 21 -30 17 -80 -5 -65 -27 -99 -64 -99 -40 0
-54 25 -54 100 0 60 3 71 22 84 30 22 54 20 79 -5z m-864 -155 c32 -20 29 -47
-8 -78 -57 -49 -137 -28 -175 46 -9 17 -12 34 -7 38 24 23 152 19 190 -6z"/>
<path d="M32078 13319 c-22 -12 -23 -52 -2 -73 20 -20 27 -20 47 2 20 22 22
53 5 70 -14 14 -27 15 -50 1z"/>
<path d="M18723 13280 c-135 -67 -223 -172 -223 -264 0 -94 90 -145 270 -153
116 -6 210 8 249 34 26 18 23 18 -117 25 -207 10 -277 28 -321 84 -35 45 -28
72 38 135 71 69 123 97 198 107 58 7 81 26 70 56 -11 29 -77 20 -164 -24z"/>
<path d="M28721 13301 c-27 -27 -35 -95 -28 -223 5 -79 2 -132 -10 -200 -23
-128 -23 -152 2 -156 12 -2 26 6 34 20 28 46 50 179 51 308 1 82 6 139 15 165
18 49 19 77 3 93 -18 18 -45 15 -67 -7z"/>
<path d="M30590 13313 c-28 -10 -57 -44 -80 -93 -13 -28 -28 -50 -34 -50 -6 0
-38 30 -72 67 -55 59 -66 66 -98 65 -78 -3 -142 -47 -198 -137 -18 -27 -42
-59 -54 -70 -35 -30 -40 -69 -14 -95 27 -27 35 -21 86 72 46 86 109 153 153
163 29 6 36 1 116 -80 47 -47 85 -94 85 -104 0 -22 25 -45 40 -36 5 3 10 17
10 31 0 22 4 24 49 24 77 0 161 73 161 139 0 73 -81 129 -150 104z m85 -83
c16 -18 17 -23 4 -46 -23 -44 -92 -68 -128 -45 -17 11 -9 48 20 84 26 34 77
37 104 7z"/>
<path d="M26847 13264 c-35 -23 -127 -137 -127 -156 0 -5 -10 -22 -21 -38 -15
-20 -20 -36 -15 -54 3 -14 0 -58 -9 -98 -28 -137 -15 -198 43 -198 35 0 46 36
48 150 0 58 2 110 2 116 1 6 30 30 65 52 121 78 180 171 147 231 -16 31 -84
29 -133 -5z m63 -56 c0 -21 -80 -108 -100 -108 -26 0 11 66 59 107 33 29 41
29 41 1z"/>
<path d="M30839 13270 c-9 -5 -28 -27 -43 -48 -48 -70 -46 -215 4 -242 35 -19
95 11 132 65 12 19 27 35 33 35 5 0 25 -15 45 -34 42 -41 78 -52 104 -33 26
19 15 43 -22 52 -40 8 -59 31 -80 96 -26 81 -48 78 -88 -10 -32 -71 -71 -108
-100 -97 -13 5 -16 16 -12 56 6 60 37 100 79 100 36 0 54 22 39 49 -12 23 -61
28 -91 11z"/>
<path d="M25816 13195 c-22 -22 -20 -35 12 -71 33 -38 65 -56 86 -48 22 8 20
32 -6 84 -26 50 -63 64 -92 35z"/>
<path d="M25255 13169 c-22 -4 -68 -8 -102 -8 -68 -1 -93 -16 -93 -55 0 -48
21 -51 140 -21 117 29 158 51 147 78 -7 18 -28 20 -92 6z"/>
<path d="M21890 13125 c-17 -21 -9 -47 22 -64 57 -32 119 26 66 63 -28 20 -72
21 -88 1z"/>
<path d="M31933 13083 c-10 -15 -25 -46 -32 -68 -8 -22 -22 -58 -32 -79 -26
-54 -25 -76 4 -76 31 0 53 26 81 92 12 29 30 65 40 80 25 38 18 72 -15 76 -20
2 -32 -4 -46 -25z"/>
<path d="M4874 12769 c-9 -19 -43 -63 -74 -99 -82 -93 -164 -218 -185 -281
-37 -111 -22 -174 55 -227 67 -45 121 -54 357 -59 241 -6 273 -3 273 26 0 26
-26 31 -165 31 -251 0 -424 31 -460 83 -36 51 -2 163 81 273 86 111 188 223
207 226 48 7 25 47 -31 55 -38 5 -41 3 -58 -28z"/>
<path d="M28282 12608 c-23 -23 -10 -195 24 -328 8 -30 19 -111 25 -180 6 -69
15 -133 20 -142 11 -21 45 -24 51 -5 9 28 -11 280 -31 375 -12 57 -21 140 -21
186 0 83 -9 106 -40 106 -9 0 -21 -5 -28 -12z"/>
<path d="M5788 12559 c-37 -11 -88 -59 -88 -82 0 -23 36 -65 105 -122 108 -90
185 -166 216 -214 33 -51 36 -75 12 -87 -10 -4 -123 -9 -251 -9 -144 -1 -236
-5 -242 -11 -18 -18 0 -43 38 -54 69 -19 367 -5 465 21 47 12 77 41 77 73 0
63 -101 190 -225 284 -74 56 -115 93 -115 104 0 5 17 16 38 25 44 19 159 20
251 3 42 -7 67 -8 73 -2 16 16 1 29 -59 52 -67 25 -236 36 -295 19z"/>
<path d="M21373 12558 c-4 -7 -8 -44 -9 -83 0 -38 -6 -191 -14 -338 -13 -271
-10 -325 22 -364 14 -18 43 -16 58 2 11 13 10 21 -1 42 -16 31 -16 269 1 418
17 146 17 299 1 319 -16 19 -47 21 -58 4z"/>
<path d="M6545 12531 c-65 -27 -168 -193 -253 -406 -58 -148 -63 -193 -22
-215 27 -14 50 -2 50 26 0 32 22 40 68 25 79 -25 342 -80 437 -91 170 -20 255
12 255 97 0 25 -10 44 -41 78 -85 92 -243 151 -456 170 -110 10 -112 16 -46
105 85 115 100 163 63 200 -22 22 -26 23 -55 11z m-26 -133 c-10 -19 -64 -103
-76 -117 -1 -2 -5 -2 -8 1 -9 8 10 49 44 96 33 45 60 59 40 20z m-81 -197 c32
-33 66 -43 202 -61 174 -23 292 -65 351 -126 31 -32 32 -35 16 -51 -34 -34
-227 -24 -433 23 -33 7 -100 17 -148 20 -54 4 -90 12 -92 19 -5 11 64 205 72
205 1 0 16 -13 32 -29z"/>
<path d="M27779 12508 c-8 -15 -10 -57 -6 -134 l6 -113 -36 -18 c-46 -23 -62
-47 -47 -70 8 -13 23 -17 48 -16 l36 2 0 -98 c0 -82 3 -103 19 -122 17 -21 21
-22 36 -9 15 13 17 28 11 130 -4 63 -3 120 1 126 9 12 136 44 176 44 34 0 54
25 37 45 -16 19 -50 19 -124 0 -42 -11 -62 -12 -77 -4 -19 10 -20 17 -14 120
6 81 4 113 -5 124 -18 22 -47 18 -61 -7z"/>
<path d="M29499 12503 c-6 -15 -8 -44 -5 -63 3 -20 8 -105 11 -190 10 -245 22
-338 50 -386 46 -78 136 -80 214 -6 44 42 60 85 67 187 6 79 -5 111 -49 135
-25 14 -30 13 -73 -9 -46 -25 -114 -94 -114 -117 0 -6 -7 -17 -15 -24 -13 -11
-15 -1 -16 81 -1 52 -4 166 -8 254 -6 156 -7 160 -28 163 -17 3 -26 -4 -34
-25z m271 -398 c21 -25 5 -131 -26 -178 -31 -47 -82 -71 -119 -57 -30 11 -30
12 -6 81 31 92 58 135 93 152 41 20 43 20 58 2z"/>
<path d="M31226 12482 c-8 -13 -94 -458 -107 -555 -10 -76 -10 -90 3 -103 24
-24 42 -8 66 61 57 164 113 254 189 304 70 47 85 39 32 -16 -91 -95 -102 -139
-47 -193 30 -31 35 -32 93 -28 105 9 219 78 201 123 -4 13 -14 11 -63 -11
-102 -47 -148 -57 -180 -42 -15 7 -29 21 -31 32 -5 23 46 78 113 121 72 47 97
77 93 111 -3 28 -5 29 -51 27 -99 -6 -226 -89 -293 -195 -24 -38 -44 -49 -44
-25 0 6 20 91 44 187 45 181 46 210 6 210 -10 0 -21 -4 -24 -8z"/>
<path d="M28635 12462 c-31 -6 -45 -22 -45 -52 0 -49 53 -77 81 -43 8 9 29 22
47 30 72 30 6 82 -83 65z"/>
<path d="M25983 12430 c-23 -14 -33 -27 -33 -44 0 -28 35 -66 61 -66 46 0 67
80 31 113 -23 21 -20 21 -59 -3z"/>
<path d="M25590 12375 c-8 -2 -49 -8 -90 -15 -107 -17 -232 -50 -252 -68 -26
-22 -22 -59 6 -78 23 -15 27 -14 68 9 50 29 154 62 224 72 145 19 182 36 153
71 -10 13 -67 17 -109 9z"/>
<path d="M24294 12314 c-8 -19 -19 -72 -25 -117 -11 -89 -20 -107 -43 -88 -12
10 -34 -12 -134 -132 -71 -85 -139 -156 -167 -175 -82 -54 -150 -54 -201 -1
-28 30 -29 34 -29 132 0 93 -2 102 -19 105 -33 7 -46 -25 -46 -112 1 -120 36
-184 122 -221 50 -20 104 -19 156 5 60 27 165 136 241 250 35 52 66 96 70 97
10 4 41 -56 41 -79 0 -51 24 -150 41 -171 27 -32 37 -10 28 60 -4 32 -8 82 -8
110 -1 52 0 53 36 68 21 9 67 20 103 26 36 5 97 14 137 20 78 12 104 29 83 54
-11 13 -29 14 -104 10 -50 -4 -124 -13 -165 -22 -50 -10 -76 -12 -84 -4 -7 7
-3 37 13 99 25 96 23 122 -10 122 -15 0 -26 -11 -36 -36z"/>
<path d="M21924 12266 c-24 -20 -27 -28 -18 -43 26 -43 100 -13 92 39 -4 32
-39 35 -74 4z"/>
<path d="M30856 12278 c-34 -111 -76 -220 -101 -259 -46 -73 -123 -149 -151
-149 -26 0 -44 26 -44 62 1 67 101 191 164 203 60 12 66 16 66 41 0 52 -72 43
-157 -20 -75 -55 -114 -127 -120 -224 -5 -61 -3 -69 20 -94 74 -79 176 -25
259 138 24 46 47 82 53 81 5 -2 13 -27 17 -56 10 -65 31 -108 59 -116 29 -10
47 10 31 33 -28 40 -35 75 -41 217 -6 146 -7 150 -29 153 -12 2 -24 -3 -26
-10z"/>
<path d="M31917 12233 c-12 -12 -7 -50 8 -63 35 -29 74 20 45 56 -13 15 -42
19 -53 7z"/>
<path d="M25991 12201 c-19 -34 -12 -91 28 -239 40 -145 59 -182 93 -182 25 0
23 24 -13 165 -18 66 -34 154 -38 195 -6 72 -7 75 -33 78 -18 2 -30 -3 -37
-17z"/>
<path d="M27035 12204 c-45 -23 -109 -90 -134 -140 -69 -136 -99 -413 -61
-555 19 -68 88 -112 120 -75 7 9 16 84 22 193 5 98 13 181 17 184 3 3 32 13
65 23 38 12 73 31 102 58 l43 39 21 -40 c37 -73 115 -99 186 -63 65 34 161
146 215 253 36 72 37 89 5 89 -19 0 -40 -23 -104 -113 -82 -117 -140 -177
-170 -177 -10 0 -28 7 -40 16 -20 14 -22 21 -16 65 7 50 7 50 -36 53 -10 1
-17 17 -21 51 -12 101 -61 155 -138 155 -25 0 -59 -7 -76 -16z m105 -61 c36
-33 54 -92 39 -132 -12 -32 -75 -98 -111 -117 -15 -8 -39 -14 -54 -14 -25 0
-26 2 -22 43 4 30 -1 53 -15 79 l-20 36 23 37 c24 38 93 95 116 95 8 0 27 -12
44 -27z m-204 -392 c-3 -36 -6 -99 -6 -138 0 -57 -3 -73 -15 -73 -19 0 -29 55
-30 170 0 116 6 136 36 119 20 -10 21 -17 15 -78z"/>
<path d="M23230 12164 c-64 -60 -106 -127 -121 -191 -24 -102 31 -223 116
-258 100 -43 265 13 324 109 68 109 11 302 -93 322 -22 4 -36 13 -39 25 -6 23
-46 39 -98 39 -34 0 -48 -7 -89 -46z m105 -34 c-10 -16 -86 -52 -93 -45 -12
11 48 55 74 55 15 0 23 -4 19 -10z m158 -92 c28 -38 35 -122 12 -164 -44 -82
-208 -133 -275 -87 -36 25 -48 43 -60 94 -13 52 -3 106 26 148 l17 24 8 -21
c11 -29 33 -27 99 8 73 39 143 38 173 -2z"/>
<path d="M26470 12188 c-40 -21 -94 -81 -147 -164 -12 -18 -13 -18 -33 9 -25
31 -50 35 -73 9 -23 -26 -21 -46 9 -103 46 -84 86 -79 138 21 43 81 111 170
130 170 14 0 46 -67 46 -98 0 -70 55 -142 85 -111 11 12 9 29 -11 108 -29 118
-41 148 -68 166 -26 19 -24 19 -76 -7z"/>
<path d="M30310 12160 c-8 -5 -42 -7 -77 -4 -55 6 -67 4 -107 -20 -24 -14 -59
-43 -78 -65 -44 -52 -108 -168 -108 -197 0 -24 26 -57 42 -52 5 2 22 34 38 71
55 131 121 207 177 207 18 0 21 -8 25 -74 9 -135 74 -206 178 -192 45 6 86 38
74 57 -3 5 -27 7 -54 3 -60 -8 -102 14 -127 66 -16 35 -22 85 -10 96 3 3 22 1
42 -6 40 -13 98 -8 121 11 22 18 17 57 -11 84 -18 19 -35 25 -67 25 -24 0 -50
-5 -58 -10z"/>
<path d="M19013 12126 c-60 -19 -103 -49 -157 -106 -114 -122 -115 -245 -2
-348 94 -87 222 -126 390 -120 103 3 116 6 186 39 82 40 197 140 224 197 9 17
18 32 20 32 2 0 15 -19 29 -43 52 -89 167 -168 263 -183 85 -12 144 54 144
161 0 44 -8 70 -35 125 -19 38 -35 76 -35 85 0 32 48 12 163 -65 21 -14 40
-36 43 -50 2 -14 15 -45 27 -70 18 -36 33 -50 81 -75 54 -27 69 -30 155 -30
63 0 115 6 151 17 77 24 180 87 180 110 0 24 -19 23 -87 -8 -112 -51 -223 -65
-308 -40 -75 23 -119 76 -63 76 33 0 85 46 98 86 7 20 10 56 7 81 -11 97 -92
124 -167 57 -22 -20 -40 -42 -40 -48 0 -7 -6 -21 -14 -32 -14 -19 -15 -18 -43
8 -43 40 -121 78 -163 78 -50 0 -100 -44 -100 -88 0 -16 16 -65 37 -107 54
-115 56 -205 4 -205 -31 0 -138 58 -174 94 -60 60 -88 118 -98 203 -10 92 -27
120 -75 129 -87 16 -205 -59 -224 -142 -18 -77 22 -160 94 -199 20 -11 36 -23
36 -27 0 -12 -122 -76 -170 -88 -140 -38 -400 12 -490 93 -55 49 -70 78 -70
132 0 46 5 58 39 102 66 82 152 130 210 117 14 -4 50 -19 78 -35 29 -16 55
-29 57 -29 3 0 10 9 16 20 33 62 -116 128 -217 96z m647 -131 c20 -12 -24
-170 -55 -195 -21 -18 -89 52 -106 108 -11 40 -11 44 11 67 38 40 103 49 150
20z m748 -20 c18 -56 9 -85 -28 -85 -38 0 -61 32 -53 74 13 70 60 76 81 11z"/>
<path d="M28641 12091 c-11 -11 -22 -35 -25 -53 -2 -18 -12 -85 -21 -148 -25
-170 -25 -174 6 -178 22 -3 28 3 42 40 14 37 34 150 54 302 4 26 1 41 -8 47
-20 13 -27 11 -48 -10z"/>
<path d="M8278 12085 c-60 -22 -125 -72 -167 -128 -155 -207 -121 -352 97
-421 119 -37 195 -48 337 -49 160 0 232 18 283 69 33 33 34 37 30 92 -6 79
-52 173 -123 250 -65 70 -108 98 -210 137 -193 74 -186 72 -247 50z m51 -49
c-12 -10 -60 -16 -54 -6 3 5 18 10 32 10 15 0 24 -2 22 -4z m-85 -51 c9 -11
19 -12 51 -5 60 14 132 12 166 -5 16 -9 44 -15 62 -13 66 4 174 -92 230 -207
86 -173 53 -205 -209 -205 -209 0 -366 43 -439 120 -40 41 -40 94 -2 172 25
50 109 158 124 158 3 0 11 -7 17 -15z"/>
<path d="M31892 12073 c-29 -11 -54 -91 -82 -258 -16 -95 -30 -177 -31 -182
-4 -22 3 -33 20 -33 10 0 23 6 29 13 10 12 62 232 62 264 0 37 21 91 45 117
47 51 18 104 -43 79z"/>
<path d="M25026 12034 c-8 -20 9 -51 34 -64 25 -13 182 -11 245 3 40 10 51 17
53 35 2 12 -3 24 -10 26 -7 2 -81 7 -165 10 -130 4 -152 3 -157 -10z"/>
<path d="M21927 11852 c-24 -26 -21 -49 8 -68 32 -21 69 -12 92 22 16 26 16
27 -6 45 -30 24 -73 24 -94 1z"/>
<path d="M4185 11518 c-99 -79 -255 -279 -394 -505 -66 -108 -73 -138 -31
-138 21 0 32 13 72 89 76 143 204 321 307 425 l65 66 4 -33 c2 -19 -7 -100
-19 -180 -42 -280 -42 -293 1 -307 41 -13 108 35 280 202 94 90 174 161 180
158 6 -4 9 -64 7 -155 -1 -109 1 -152 11 -161 29 -30 40 11 52 203 17 270 5
281 -148 136 -53 -51 -148 -141 -209 -200 -62 -60 -120 -108 -129 -108 -19 0
-19 0 20 260 14 91 26 185 26 211 0 76 -31 88 -95 37z"/>
<path d="M29809 11423 c-11 -12 -15 -83 -19 -324 -5 -286 -6 -309 -24 -322
-43 -32 24 -97 100 -97 50 0 129 39 166 83 60 70 74 205 33 303 -50 120 -126
110 -181 -23 -15 -38 -32 -72 -37 -78 -12 -14 1 361 15 407 6 20 8 44 5 52 -8
21 -41 20 -58 -1z m195 -368 c9 -14 22 -47 28 -75 16 -70 -7 -144 -61 -193
-40 -36 -96 -56 -112 -40 -10 10 53 258 77 304 18 36 46 37 68 4z"/>
<path d="M5032 11365 c-93 -18 -144 -44 -157 -80 -9 -25 -6 -31 28 -60 20 -18
65 -47 100 -65 173 -92 273 -173 316 -259 41 -79 21 -114 -76 -137 -80 -19
-221 -18 -279 2 -43 14 -48 14 -63 0 -79 -79 288 -118 430 -45 73 37 91 126
41 211 -56 96 -147 174 -297 254 -150 79 -154 94 -33 114 109 19 206 9 276
-27 61 -32 82 -33 82 -2 0 76 -198 126 -368 94z"/>
<path d="M5723 11361 c-24 -11 -55 -38 -72 -62 -51 -69 -66 -139 -91 -404 -15
-158 -35 -248 -67 -313 -21 -41 -25 -57 -16 -70 17 -28 48 -26 72 4 26 33 38
76 55 199 7 52 15 97 17 100 7 6 364 -176 414 -212 46 -33 65 -74 48 -102 -43
-72 -302 -96 -575 -52 -71 12 -98 7 -98 -16 0 -22 56 -40 178 -57 164 -23 343
-21 426 4 79 25 132 71 142 126 14 76 -41 134 -211 224 -55 29 -104 56 -109
61 -11 10 18 16 109 23 207 16 277 92 225 245 -68 203 -310 366 -447 302z
m176 -78 c147 -72 272 -293 203 -356 -37 -34 -310 -72 -430 -60 -51 5 -53 7
-48 32 3 14 8 55 11 91 17 173 48 261 107 299 44 28 93 26 157 -6z"/>
<path d="M31222 11288 c-6 -7 -13 -58 -17 -113 -11 -170 -23 -234 -61 -310
-42 -85 -45 -148 -7 -153 18 -3 26 5 42 40 10 24 25 61 31 83 7 22 23 59 36
82 24 41 91 113 107 113 4 0 7 -19 7 -43 0 -98 88 -140 214 -102 63 19 113 51
121 77 13 38 -9 40 -88 8 -88 -35 -155 -40 -180 -12 -34 37 -14 65 95 136 69
45 80 58 76 88 -2 19 -9 23 -36 21 -46 -2 -145 -53 -212 -108 -50 -41 -87 -62
-95 -53 -1 1 2 44 7 93 17 148 16 160 -8 163 -11 2 -26 -3 -32 -10z"/>
<path d="M8166 11277 c-10 -7 -17 -22 -15 -33 3 -15 14 -20 49 -22 75 -4 588
-69 880 -112 470 -67 588 -89 823 -147 214 -54 228 -56 244 -40 30 29 0 43
-197 90 -241 59 -651 127 -1170 197 -85 11 -249 34 -364 50 -242 35 -227 34
-250 17z"/>
<path d="M26273 11230 c-40 -24 -43 -57 -9 -89 16 -15 33 -21 52 -19 24 2 29
9 36 42 6 29 4 45 -7 63 -19 28 -31 29 -72 3z"/>
<path d="M28715 11189 c-22 -5 -78 -17 -124 -27 -94 -19 -122 -41 -87 -68 27
-19 51 -18 149 11 158 45 217 46 217 0 0 -40 -17 -71 -89 -168 -119 -159 -151
-225 -137 -281 12 -48 113 -73 183 -45 117 47 203 102 203 131 0 30 -46 22
-134 -26 -96 -52 -134 -62 -160 -43 -19 14 -19 15 -1 65 10 28 52 95 92 149
96 127 113 160 113 223 0 46 -3 52 -32 70 -36 22 -119 25 -193 9z"/>
<path d="M28049 11173 c-10 -12 -14 -52 -14 -153 0 -117 -3 -141 -17 -157 -22
-24 -23 -42 -2 -72 13 -19 16 -40 11 -107 -5 -90 5 -119 39 -112 17 3 19 14
22 116 3 130 3 130 111 158 35 9 80 24 100 34 20 11 48 24 64 29 31 12 38 50
10 52 -41 3 -71 -4 -122 -27 -61 -28 -120 -39 -139 -26 -10 7 -10 35 -3 133
10 129 6 149 -29 149 -10 0 -24 -7 -31 -17z"/>
<path d="M6725 11160 c-17 -18 -17 -37 -11 -252 13 -408 32 -603 63 -634 29
-28 36 -1 23 88 -7 47 -14 238 -17 438 -5 387 -9 414 -58 360z"/>
<path d="M31970 11165 c-7 -8 -10 -25 -6 -40 12 -46 90 -45 102 1 8 33 -12 54
-51 54 -18 0 -38 -7 -45 -15z"/>
<path d="M29178 11158 c-36 -13 -39 -59 -6 -82 29 -21 31 -20 67 10 35 29 40
59 12 74 -23 12 -37 12 -73 -2z"/>
<path d="M21605 11130 c-67 -27 -159 -100 -163 -129 -2 -12 2 -29 8 -37 22
-25 49 -16 75 26 32 50 79 80 126 80 84 0 80 -46 -22 -251 -95 -191 -124 -272
-141 -384 -10 -73 -10 -87 8 -140 28 -87 72 -118 169 -123 145 -8 254 46 401
196 54 55 67 82 40 82 -7 0 -53 -32 -102 -72 -113 -91 -194 -129 -282 -135
-78 -5 -106 7 -140 57 -22 32 -23 43 -20 125 6 113 26 173 128 380 103 207
118 277 71 319 -29 26 -99 29 -156 6z"/>
<path d="M30274 11131 c-43 -27 -70 -68 -121 -185 -36 -82 -42 -105 -34 -123
21 -46 62 -16 76 57 10 49 62 154 90 180 13 12 31 20 41 18 10 -1 39 -32 65
-68 47 -64 48 -66 42 -126 -7 -75 8 -125 48 -159 42 -35 91 -33 163 6 44 24
64 30 89 25 50 -10 68 -8 86 8 25 23 39 20 56 -13 33 -65 114 -91 130 -41 9
28 -2 40 -36 40 -26 0 -33 6 -49 43 -29 62 -26 98 10 132 25 24 30 37 28 65
-4 41 -40 67 -80 57 -52 -13 -125 -112 -154 -207 -8 -28 -20 -40 -60 -59 -58
-28 -126 -33 -149 -10 -19 19 -30 78 -21 113 5 22 12 26 42 26 97 0 153 81
104 150 -38 54 -89 48 -146 -17 l-31 -36 -19 27 c-71 101 -80 111 -109 114
-17 1 -44 -6 -61 -17z m321 -126 c0 -25 -49 -45 -68 -26 -10 10 -7 16 12 32
29 24 56 21 56 -6z m245 -98 c0 -25 -17 -47 -37 -47 -18 0 -16 21 3 48 20 28
34 28 34 -1z"/>
<path d="M24311 11064 c-28 -36 -34 -78 -21 -158 6 -37 11 -71 12 -75 2 -21
-5 -30 -32 -36 -17 -4 -38 -18 -46 -31 -15 -22 -15 -26 0 -49 19 -29 37 -31
70 -10 22 15 25 14 45 -12 17 -24 22 -26 31 -13 6 8 8 25 5 36 -8 34 16 45
137 61 134 18 170 30 166 52 -4 21 -111 26 -222 12 -47 -7 -84 -7 -89 -2 -5 5
-11 36 -14 69 -5 51 -2 65 16 90 24 34 27 62 9 80 -19 19 -45 14 -67 -14z"/>
<path d="M26226 11001 c-16 -17 -17 -42 -14 -235 l3 -216 27 -27 c40 -40 51
-23 39 58 -7 41 -7 127 -1 239 8 174 5 200 -25 200 -6 0 -20 -9 -29 -19z"/>
<path d="M31918 10988 c-8 -13 -25 -68 -38 -123 -13 -55 -29 -118 -37 -140
-28 -78 -64 -229 -61 -254 2 -18 10 -27 24 -29 23 -3 16 -21 109 298 20 69 46
149 57 179 15 39 18 58 11 70 -16 25 -48 25 -65 -1z"/>
<path d="M25373 10980 c-67 -10 -131 -23 -141 -29 -26 -14 -33 -45 -15 -70 18
-26 53 -27 103 -1 23 12 98 30 174 42 152 24 166 29 150 55 -16 25 -118 26
-271 3z"/>
<path d="M27375 10953 c-84 -23 -179 -148 -223 -293 -19 -63 -52 -268 -52
-324 0 -48 3 -58 25 -72 55 -36 74 3 83 171 l7 120 50 6 c28 4 62 12 78 18 43
17 120 95 146 147 22 44 25 46 38 28 7 -10 18 -37 24 -59 31 -117 102 -153
195 -99 84 49 238 242 219 274 -14 22 -37 6 -120 -84 -103 -113 -159 -155
-183 -140 -30 19 -55 85 -54 146 1 62 -7 73 -50 70 -23 -2 -30 4 -42 32 -8 19
-23 39 -33 44 -25 14 -83 22 -108 15z m78 -85 c32 -43 17 -88 -56 -162 -67
-68 -116 -99 -150 -94 -53 7 -2 150 85 240 55 57 88 61 121 16z"/>
<path d="M26746 10900 c-19 -17 -46 -50 -60 -74 -35 -59 -49 -70 -74 -55 -17
10 -25 10 -46 -4 -39 -26 -44 -63 -15 -116 20 -38 29 -47 56 -49 31 -3 33 -1
79 90 52 105 89 158 109 158 12 0 36 -52 59 -127 14 -43 84 -80 101 -53 3 5
-5 29 -19 53 -15 24 -26 49 -26 55 0 21 -41 122 -56 137 -25 25 -70 18 -108
-15z"/>
<path d="M20431 10855 c-56 -18 -121 -79 -121 -116 0 -38 28 -69 130 -143 134
-99 164 -151 126 -225 -22 -41 -101 -110 -159 -137 -60 -27 -141 -32 -171 -9
-28 21 -53 19 -66 -6 -27 -50 51 -96 146 -86 148 15 334 194 334 322 0 55 -37
111 -107 161 -177 125 -187 143 -96 170 39 11 80 15 135 12 82 -5 104 4 92 35
-14 37 -155 49 -243 22z"/>
<path d="M22185 10840 c-32 -12 -66 -55 -59 -73 9 -25 95 -23 117 1 10 10 17
26 17 34 0 28 -43 50 -75 38z"/>
<path d="M23395 10841 c-16 -5 -47 -9 -68 -10 -57 -2 -104 -31 -188 -118 -90
-93 -101 -110 -103 -174 -1 -56 22 -94 75 -122 74 -39 258 3 365 83 71 53 124
136 130 203 6 58 -7 90 -47 119 -28 21 -117 31 -164 19z m143 -87 c30 -34 24
-61 -29 -132 -48 -62 -110 -105 -198 -132 -88 -28 -162 -27 -197 3 -23 20 -26
28 -20 59 8 44 89 138 118 138 11 0 46 16 78 35 32 19 71 35 88 35 16 0 36 7
43 16 20 25 88 12 117 -22z"/>
<path d="M29177 10812 c-9 -10 -25 -43 -36 -73 -10 -30 -31 -79 -46 -109 -72
-143 -138 -319 -129 -344 8 -21 36 -29 50 -14 6 7 26 51 44 97 17 47 58 139
91 205 111 224 108 218 98 238 -12 23 -51 23 -72 0z"/>
<path d="M20970 10783 c-88 -38 -141 -107 -166 -215 -8 -35 -19 -74 -24 -87
-8 -18 -5 -40 16 -100 51 -147 95 -204 193 -250 103 -48 269 -30 302 32 16 29
-6 38 -50 20 -53 -22 -167 -13 -217 17 -59 35 -93 70 -120 122 -36 70 -33 79
38 112 147 68 267 266 201 331 -37 37 -111 45 -173 18z m85 -67 c40 -17 44
-39 19 -87 -39 -76 -132 -149 -189 -149 -22 0 -25 4 -25 39 0 66 11 99 48 142
31 36 79 67 105 69 4 0 23 -7 42 -14z"/>
<path d="M23676 10768 c-23 -33 -21 -129 4 -177 25 -50 94 -109 137 -117 94
-18 194 18 281 100 60 56 85 97 76 120 -10 25 -21 20 -81 -40 -111 -109 -243
-146 -313 -88 -60 51 -74 106 -39 153 17 23 19 32 10 50 -15 28 -55 27 -75 -1z"/>
<path d="M25070 10765 c-16 -20 -3 -54 23 -59 12 -3 88 -8 168 -11 116 -5 148
-4 157 7 24 29 -5 41 -140 59 -166 22 -193 23 -208 4z"/>
<path d="M19275 10758 c-109 -33 -166 -54 -207 -74 -68 -34 -173 -136 -203
-197 -22 -46 -24 -57 -14 -92 21 -74 96 -163 172 -201 57 -30 173 -46 237 -34
52 10 174 63 185 80 17 28 -14 31 -96 10 -170 -44 -308 -10 -396 98 -62 76
-59 102 15 174 76 74 126 104 219 129 92 25 128 42 137 64 16 43 -1 58 -49 43z"/>
<path d="M19748 10710 c-69 -35 -162 -102 -206 -150 -60 -65 -71 -155 -28
-227 65 -106 218 -51 326 118 18 27 35 48 37 45 2 -2 11 -34 18 -71 26 -120
95 -204 141 -170 14 10 16 18 9 28 -83 115 -100 170 -97 324 2 95 0 103 -20
118 -36 25 -114 19 -180 -15z m126 -53 c17 -13 17 -16 -12 -73 -62 -122 -152
-217 -219 -230 -37 -7 -78 24 -93 72 -11 32 -9 38 15 70 52 68 217 174 271
174 11 0 28 -6 38 -13z"/>
<path d="M22303 10430 c-21 -9 -43 -38 -43 -59 0 -20 53 -71 74 -71 45 0 64
97 24 124 -25 18 -25 18 -55 6z"/>
<path d="M29767 9933 c-2 -4 -1 -82 3 -173 4 -91 8 -258 8 -372 0 -114 3 -212
7 -218 3 -5 14 -10 24 -10 10 0 32 -7 47 -15 70 -36 154 -6 249 89 77 77 105
137 105 223 0 96 -72 164 -156 149 -43 -9 -138 -96 -179 -165 -16 -28 -33 -51
-37 -51 -5 0 -8 105 -9 233 0 270 -5 311 -36 315 -11 2 -23 0 -26 -5z m358
-408 c19 -19 25 -35 25 -71 0 -80 -51 -157 -148 -223 -73 -49 -111 -58 -142
-33 l-24 19 28 79 c46 129 76 172 160 228 48 32 70 33 101 1z"/>
<path d="M29295 9749 c-11 -6 -35 -30 -53 -54 -25 -33 -33 -52 -30 -77 3 -30
6 -33 38 -33 33 0 36 3 68 70 23 48 31 74 25 84 -12 19 -24 22 -48 10z"/>
<path d="M31455 9748 c-2 -7 -6 -42 -10 -76 -9 -93 -52 -225 -116 -357 -25
-52 -24 -82 1 -90 28 -9 35 -2 72 66 17 34 38 63 45 66 7 3 26 -6 43 -20 55
-47 157 -47 260 -1 79 35 85 39 88 58 5 22 -30 21 -110 -4 -124 -39 -207 -34
-216 14 -5 24 46 68 133 112 124 64 148 92 110 124 -24 20 -94 -12 -192 -86
-105 -79 -117 -82 -92 -17 36 93 49 189 27 211 -16 16 -38 15 -43 0z"/>
<path d="M28747 9739 c-51 -12 -137 -56 -144 -75 -7 -20 15 -44 42 -44 12 0
30 10 41 21 19 22 89 58 112 59 6 0 12 -8 12 -19 0 -18 -43 -61 -148 -149 -58
-48 -74 -84 -48 -110 14 -15 37 -17 156 -14 129 3 141 1 160 -18 25 -25 25
-46 1 -102 -27 -64 -104 -161 -210 -265 -90 -90 -108 -123 -66 -123 43 0 157
97 251 213 86 107 117 169 117 228 -1 98 -38 119 -207 119 -63 0 -117 4 -120
9 -6 9 57 71 133 131 40 33 71 75 71 100 0 5 -9 19 -20 30 -22 22 -66 25 -133
9z"/>
<path d="M24487 9712 c-29 -32 -39 -76 -45 -206 l-7 -130 -50 -11 c-28 -6 -56
-15 -63 -19 -18 -11 -14 -41 8 -61 18 -16 40 -17 90 -4 11 3 17 -10 23 -56 15
-114 28 -163 47 -180 19 -17 20 -17 26 0 4 9 2 47 -4 83 -16 92 -18 170 -4
184 6 6 51 14 99 17 80 5 88 8 91 27 4 28 -24 35 -113 27 -90 -7 -94 -3 -85
102 9 97 25 158 45 175 21 17 19 47 -4 60 -27 14 -35 13 -54 -8z"/>
<path d="M26422 9650 c-48 -34 -50 -42 -22 -70 41 -41 86 -14 92 55 4 51 -15
55 -70 15z"/>
<path d="M30634 9598 c-24 -19 -41 -23 -99 -23 -61 0 -76 -4 -113 -29 -23 -16
-51 -43 -62 -62 -33 -52 -70 -170 -70 -219 0 -38 4 -47 24 -57 36 -16 50 -6
79 56 33 68 33 81 6 100 -30 21 -18 59 36 114 38 38 48 43 81 40 l38 -3 2 -63
c4 -108 69 -212 133 -212 30 0 27 34 -5 55 -33 21 -74 109 -74 158 0 42 10 46
67 22 53 -22 139 -30 158 -15 30 25 14 57 -68 128 -46 39 -91 42 -133 10z
m108 -55 c24 -21 23 -33 -2 -33 -29 0 -82 29 -75 40 10 16 57 11 77 -7z"/>
<path d="M21807 9595 c-90 -13 -127 -32 -127 -65 0 -10 7 -24 16 -31 14 -11
21 -10 45 4 72 41 347 45 372 6 16 -25 -24 -68 -118 -130 -100 -66 -125 -88
-125 -111 0 -29 24 -32 113 -13 75 16 86 16 119 2 24 -10 39 -24 43 -40 10
-37 -30 -120 -104 -217 -108 -141 -141 -192 -141 -217 0 -35 40 -30 68 10 12
17 59 81 103 141 91 123 121 178 139 254 22 93 -10 132 -118 147 l-53 7 64 62
c109 104 111 173 7 195 -65 14 -191 12 -303 -4z"/>
<path d="M32263 9590 c-18 -4 -40 -13 -48 -20 -22 -19 -19 -67 5 -80 33 -18
110 38 110 79 0 18 -34 28 -67 21z"/>
<path d="M22420 9530 c-28 -28 -26 -58 6 -70 55 -21 93 -2 94 47 0 42 -66 57
-100 23z"/>
<path d="M25485 9521 c-162 -36 -185 -46 -185 -81 0 -52 43 -65 102 -31 18 11
85 34 148 51 134 37 165 50 165 70 0 25 -89 21 -230 -9z"/>
<path d="M31039 9512 c-54 -35 -107 -99 -125 -153 -12 -34 -12 -44 1 -69 15
-30 48 -45 81 -38 10 2 32 22 49 45 16 23 33 42 37 42 4 1 17 -17 28 -38 33
-65 83 -95 120 -71 12 8 9 16 -22 42 -38 33 -77 106 -78 144 0 11 7 29 15 40
22 29 18 42 -17 64 -18 11 -35 20 -39 20 -3 0 -25 -13 -50 -28z m5 -81 c15
-23 -42 -111 -71 -111 -22 0 -15 35 17 78 30 42 44 50 54 33z"/>
<path d="M28044 9524 c-6 -3 -35 -44 -65 -92 -54 -87 -241 -292 -265 -292 -7
0 -16 17 -19 38 -9 57 -27 87 -57 90 -21 3 -27 10 -31 38 -9 54 -22 64 -85 64
-75 0 -129 -28 -214 -109 -56 -53 -68 -71 -68 -96 0 -36 -27 -171 -65 -320
-30 -121 -31 -147 -5 -170 30 -27 66 -7 79 42 5 21 23 90 40 154 17 64 31 137
31 162 0 44 2 48 33 61 17 8 57 24 87 37 30 13 78 46 107 72 l52 49 15 -31
c10 -18 15 -50 14 -82 -3 -59 14 -79 67 -79 64 0 177 110 280 273 9 15 24 27
31 27 20 0 18 -55 -3 -91 -14 -24 -15 -34 -5 -62 7 -18 12 -61 12 -95 0 -58 2
-62 25 -68 14 -4 29 -3 33 0 3 4 5 36 4 72 -2 36 -1 77 3 92 7 34 57 64 185
113 153 58 152 58 148 77 -7 37 -76 22 -246 -54 -40 -17 -66 -24 -72 -18 -6 6
-5 38 4 89 18 101 4 131 -50 109z m-516 -226 c2 -19 -7 -36 -36 -64 -67 -68
-172 -117 -172 -82 0 24 56 104 92 131 68 52 111 58 116 15z"/>
<path d="M10481 9482 c-54 -105 -69 -472 -24 -573 11 -26 25 -49 29 -52 5 -3
55 -8 110 -11 89 -4 107 -8 152 -35 113 -66 214 -82 357 -57 l89 16 45 -51
c31 -36 66 -62 115 -85 61 -29 81 -34 147 -34 111 0 213 38 290 107 37 33 51
63 30 63 -5 0 -31 -13 -58 -30 -151 -93 -334 -105 -436 -27 -45 34 -87 116
-94 182 -18 169 143 278 300 205 21 -11 30 -11 40 -1 31 31 -65 91 -148 91
-210 0 -312 -150 -249 -367 6 -23 6 -23 -113 -23 -66 0 -146 5 -178 11 -94 17
-143 50 -97 66 68 23 186 87 221 118 70 64 88 119 55 175 -61 102 -273 86
-377 -29 -46 -51 -62 -107 -48 -169 8 -39 7 -49 -5 -58 -23 -18 -103 -27 -119
-14 -23 19 -28 144 -11 280 22 172 34 221 62 248 29 28 30 46 4 72 -33 33 -67
26 -89 -18z m513 -318 c33 -32 10 -83 -53 -123 -64 -41 -182 -100 -206 -103
-17 -3 -21 4 -23 36 -5 53 3 79 34 116 57 67 210 113 248 74z"/>
<path d="M26883 9484 c-51 -25 -115 -109 -172 -223 -55 -111 -63 -157 -33
-184 39 -36 66 -17 76 53 10 67 47 181 69 215 30 44 69 85 83 85 20 0 24 -71
9 -178 -17 -120 -9 -155 36 -160 26 -3 26 -3 33 90 20 288 20 274 -3 297 -25
25 -54 26 -98 5z"/>
<path d="M9140 9433 c-60 -24 -64 -72 -13 -174 28 -56 63 -101 155 -196 122
-127 198 -230 198 -268 0 -34 -50 -50 -150 -49 -47 0 -110 8 -142 17 -60 18
-118 59 -118 83 0 20 -40 34 -62 22 -24 -12 -23 -43 2 -83 64 -104 442 -154
526 -69 33 32 30 67 -10 151 -28 57 -60 98 -153 195 -123 127 -173 192 -200
255 -14 36 -14 38 8 56 29 23 57 17 181 -39 106 -48 131 -53 126 -27 -4 19
-116 85 -188 109 -50 18 -137 27 -160 17z"/>
<path d="M23285 9382 c-108 -19 -158 -50 -213 -136 -24 -36 -27 -51 -27 -122
0 -71 3 -85 27 -122 52 -78 157 -115 284 -100 132 15 214 76 279 207 25 50 39
92 42 130 5 66 -8 96 -55 128 -31 20 -44 22 -175 20 -78 -1 -151 -3 -162 -5z
m315 -77 c33 -35 24 -92 -30 -180 -68 -112 -95 -135 -195 -161 -102 -28 -171
-12 -232 52 -38 40 -43 50 -43 92 0 64 34 129 87 166 38 26 52 30 131 32 48 2
99 8 113 13 13 5 51 10 85 10 52 1 64 -3 84 -24z"/>
<path d="M26412 9374 c-28 -19 -30 -89 -6 -172 13 -44 16 -82 11 -174 -5 -111
-4 -119 15 -129 32 -17 45 6 56 101 8 67 7 103 -4 170 -9 47 -13 105 -10 130
4 33 2 52 -10 68 -18 26 -23 27 -52 6z"/>
<path d="M32050 9348 c-10 -24 -36 -86 -56 -138 -20 -52 -59 -141 -86 -199
-27 -57 -48 -114 -46 -125 4 -30 45 -28 64 4 27 47 111 235 144 320 18 47 39
97 46 113 11 20 12 32 4 47 -18 34 -48 25 -70 -22z"/>
<path d="M9835 9367 c-110 -37 -153 -84 -165 -179 -6 -52 -3 -77 17 -147 36
-128 83 -220 135 -267 57 -52 104 -69 195 -68 60 1 84 6 136 32 65 32 157 113
157 138 0 23 -30 16 -70 -16 -81 -64 -210 -107 -286 -95 -79 11 -154 105 -179
222 l-6 31 78 -5 c63 -4 89 -1 137 15 114 41 162 98 154 184 -6 57 -28 91 -87
133 -35 24 -53 30 -109 32 -37 1 -85 -3 -107 -10z m203 -82 c52 -56 44 -109
-22 -154 -86 -58 -202 -78 -247 -42 -19 15 -23 28 -22 69 1 82 45 129 145 157
71 19 106 12 146 -30z"/>
<path d="M23764 9319 c-16 -18 -19 -36 -18 -115 2 -124 23 -183 89 -250 37
-37 62 -53 97 -62 52 -13 127 -3 180 24 49 26 156 137 178 186 39 87 14 121
-35 47 -15 -23 -57 -72 -94 -108 -53 -54 -77 -70 -124 -85 -94 -29 -147 -4
-196 96 -25 50 -31 73 -31 128 0 43 5 73 15 86 20 27 19 51 -4 64 -28 14 -35
13 -57 -11z"/>
<path d="M25107 9303 c-13 -13 -7 -40 13 -58 15 -14 50 -22 128 -31 59 -7 118
-15 132 -18 14 -4 32 -2 40 4 24 15 -1 43 -46 53 -21 5 -77 20 -124 33 -85 24
-131 30 -143 17z"/>
<path d="M11977 9252 c-28 -30 -47 -89 -62 -188 -8 -52 -17 -99 -20 -104 -3
-5 -23 -3 -47 6 -68 24 -108 14 -108 -26 0 -28 32 -48 88 -56 29 -3 54 -10 57
-13 2 -4 -3 -59 -12 -122 -17 -121 -12 -186 14 -196 22 -8 33 15 33 70 0 27 5
91 12 143 11 94 11 94 40 94 34 0 239 -34 368 -60 105 -22 130 -24 130 -11 0
36 -252 117 -428 136 -39 4 -65 12 -69 21 -6 16 22 143 43 193 8 20 24 46 36
58 18 19 20 27 10 48 -14 30 -60 34 -85 7z"/>
<path d="M21083 9148 c-18 -13 -41 -40 -53 -60 l-21 -37 -52 18 c-29 10 -76
33 -104 50 -64 39 -109 43 -135 11 -10 -12 -18 -28 -18 -35 0 -8 20 -68 45
-134 51 -137 57 -196 25 -248 -23 -38 -50 -42 -104 -17 -44 22 -68 13 -64 -23
4 -35 55 -66 109 -66 71 0 137 87 146 193 5 48 0 69 -31 147 -20 50 -36 96
-36 102 0 7 14 4 38 -8 20 -10 63 -27 96 -37 32 -10 59 -23 61 -29 1 -5 7 -35
13 -67 6 -31 21 -72 34 -92 30 -47 108 -86 185 -93 91 -8 241 36 267 79 21 34
-6 37 -84 11 -90 -30 -196 -29 -250 3 -63 36 -123 137 -89 148 8 3 41 8 73 11
50 6 66 13 93 40 43 43 44 81 4 119 -41 40 -104 46 -148 14z m72 -60 c40 -18
28 -42 -24 -46 -54 -4 -71 10 -46 38 21 23 34 25 70 8z"/>
<path d="M19363 9149 c-74 -9 -135 -42 -192 -105 -54 -59 -91 -141 -91 -203 0
-62 47 -140 110 -184 87 -60 172 -82 320 -81 105 0 132 3 170 20 55 26 78 50
62 66 -8 8 -31 6 -87 -7 -166 -39 -416 22 -490 120 -51 66 -25 168 63 247 45
40 61 48 119 58 108 18 224 -6 238 -50 10 -32 49 -23 53 12 7 62 -44 98 -153
107 -38 3 -93 3 -122 0z"/>
<path d="M22501 9114 c-29 -37 -26 -61 14 -101 59 -59 102 -24 80 63 -17 69
-57 85 -94 38z"/>
<path d="M29150 9100 c-6 -12 -10 -68 -9 -133 1 -92 -3 -123 -20 -171 -19 -53
-19 -62 -7 -75 24 -23 61 9 84 71 24 66 39 292 21 314 -17 21 -57 17 -69 -6z"/>
<path d="M20236 9024 c-9 -8 -21 -34 -27 -57 -22 -83 -28 -97 -60 -146 -60
-91 -190 -134 -261 -87 -79 52 33 152 191 173 25 3 52 10 59 16 17 13 15 64
-3 70 -16 7 -95 -12 -176 -42 -113 -43 -190 -174 -148 -253 13 -23 83 -57 120
-58 75 0 199 63 232 119 10 17 21 31 25 31 4 0 15 -23 25 -51 21 -57 78 -126
112 -135 29 -7 66 12 59 30 -3 7 -16 18 -29 24 -38 17 -74 75 -92 146 -15 63
-15 71 0 120 21 65 22 102 2 110 -8 3 -21 -2 -29 -10z"/>
<path d="M17816 6949 c-2 -8 -7 -27 -11 -44 -8 -35 -20 -45 -58 -45 -24 0 -28
-4 -25 -22 3 -23 4 -23 139 -19 143 4 179 -1 179 -25 0 -8 -45 -59 -99 -114
-108 -109 -145 -168 -135 -217 4 -20 -1 -43 -14 -69 -63 -127 -54 -158 63
-213 131 -63 144 -92 104 -244 -18 -65 -21 -104 -19 -192 7 -237 0 -278 -90
-534 -49 -142 -58 -185 -41 -195 18 -12 44 37 97 190 87 249 95 294 92 497 -2
141 1 184 16 237 23 85 23 158 0 206 -16 33 -33 46 -107 83 -107 55 -113 67
-67 154 25 48 31 68 26 98 -7 45 1 57 136 195 105 108 115 131 79 175 -18 23
-26 24 -128 24 l-108 0 3 31 c3 33 -24 69 -32 43z"/>
</g>
</svg>
