<?xml version="1.0" standalone="no"?>
<!DOCTYPE svg PUBLIC "-//W3C//DTD SVG 20010904//EN"
 "http://www.w3.org/TR/2001/REC-SVG-20010904/DTD/svg10.dtd">
<svg version="1.0" xmlns="http://www.w3.org/2000/svg"
 width="3264.000000pt" height="2448.000000pt" viewBox="0 0 3264.000000 2448.000000"
 preserveAspectRatio="xMidYMid meet">
<metadata>
Created by potrace 1.12, written by Peter Selinger 2001-2015
</metadata>
<g transform="translate(0.000000,2448.000000) scale(0.100000,-0.100000)"
fill="#000000" stroke="none">
<path d="M6687 24223 c-12 -12 -7 -50 8 -63 30 -25 61 30 33 58 -13 13 -31 16
-41 5z"/>
<path d="M27837 19249 c-162 -13 -321 -38 -547 -85 -744 -155 -919 -185 -1109
-190 -152 -4 -181 -11 -181 -40 0 -14 15 -19 92 -29 107 -14 409 35 983 160
443 96 654 127 860 128 151 1 190 -8 204 -45 29 -77 19 -250 -34 -573 -18
-115 -43 -289 -55 -385 -53 -444 -73 -603 -91 -700 -24 -133 -25 -188 -3 -197
29 -11 49 11 51 54 0 22 8 83 17 134 22 133 42 282 81 604 19 154 50 377 70
495 42 257 59 425 50 500 -15 131 -40 157 -172 170 -49 5 -95 9 -103 8 -8 0
-59 -4 -113 -9z"/>
<path d="M15631 19049 c-216 -21 -447 -249 -537 -529 -36 -113 -45 -339 -19
-481 63 -343 201 -579 278 -474 26 36 34 117 13 134 -19 16 -46 -1 -46 -29 0
-10 -8 -28 -19 -41 l-18 -23 -27 41 c-32 48 -85 194 -115 313 -42 169 -44 369
-6 515 21 81 83 207 137 281 147 198 429 283 589 177 44 -29 79 -79 79 -113 0
-70 -49 -124 -379 -420 -169 -151 -273 -250 -281 -270 -26 -64 23 -151 111
-195 130 -66 466 -118 670 -105 105 8 119 12 119 39 0 16 -15 19 -157 24 -196
7 -476 56 -589 103 -49 20 -94 62 -94 87 0 24 82 105 320 316 293 260 340 317
340 407 -1 84 -70 173 -170 217 -68 31 -105 35 -199 26z"/>
<path d="M30220 18979 c-255 -33 -488 -120 -566 -211 -112 -134 -76 -272 120
-459 l60 -56 -57 -126 c-77 -170 -107 -264 -119 -372 -20 -167 22 -299 107
-339 119 -57 327 57 402 220 20 44 26 75 28 141 l3 85 -50 87 c-61 106 -115
178 -190 256 -32 32 -58 62 -58 66 0 3 17 44 39 90 71 154 142 356 144 412 2
49 1 52 -23 52 -18 0 -26 -7 -31 -25 -31 -120 -161 -472 -177 -478 -12 -4 -99
93 -149 166 -27 39 -37 65 -41 105 -8 98 38 165 151 220 121 59 216 83 509
128 38 6 71 15 74 21 17 27 -49 33 -176 17z m-259 -869 c89 -107 161 -249 167
-332 7 -89 -18 -148 -97 -228 -50 -52 -77 -71 -111 -80 -128 -34 -200 48 -200
229 0 96 27 208 80 336 23 55 48 115 56 133 7 19 18 32 24 30 6 -2 42 -41 81
-88z"/>
<path d="M29058 18963 c-15 -18 -24 -90 -63 -508 -20 -208 -54 -407 -111 -647
-29 -121 -29 -153 1 -153 27 0 39 30 74 190 69 309 90 441 122 770 32 326 33
334 19 350 -16 19 -24 19 -42 -2z"/>
<path d="M16726 18938 c-43 -70 -83 -534 -74 -858 4 -127 8 -163 25 -200 23
-52 45 -73 70 -68 28 5 28 46 0 72 -35 32 -42 110 -34 371 11 332 38 570 72
622 18 27 19 55 3 71 -19 19 -46 14 -62 -10z"/>
<path d="M31137 18879 c-46 -11 -109 -42 -126 -63 -8 -9 -22 -16 -32 -16 -10
0 -42 -24 -72 -52 -155 -154 -268 -561 -224 -811 29 -164 105 -280 221 -337
129 -64 252 -63 391 3 264 126 450 344 544 641 70 219 45 380 -75 485 -52 46
-190 108 -299 136 -103 26 -249 33 -328 14z m338 -78 c158 -42 278 -120 316
-206 40 -90 35 -185 -18 -350 -93 -290 -313 -535 -553 -615 -161 -54 -349 22
-426 173 -45 87 -57 159 -51 297 10 225 61 392 172 563 84 130 172 169 365
163 73 -3 144 -12 195 -25z"/>
<path d="M22145 18824 c-149 -23 -335 -132 -335 -196 0 -25 15 -22 63 11 123
84 222 116 362 116 96 0 120 -4 191 -29 144 -51 237 -141 275 -268 39 -128 12
-239 -72 -290 -150 -92 -490 -96 -603 -7 -97 76 -61 201 107 372 75 76 85 109
36 115 -21 2 -37 -8 -78 -55 -85 -94 -168 -224 -180 -284 -28 -130 31 -214
183 -262 59 -18 93 -21 201 -21 266 2 436 83 476 227 18 63 15 164 -6 227 -57
171 -173 276 -360 325 -62 16 -207 27 -260 19z"/>
<path d="M7548 18801 c-1 -4 -66 -74 -144 -154 l-140 -146 -91 18 c-99 21
-133 37 -133 64 0 23 76 71 137 87 127 33 173 51 173 71 0 16 -7 19 -53 19
-167 0 -360 -115 -331 -198 11 -34 111 -86 195 -103 32 -6 59 -16 59 -22 0 -6
-20 -36 -44 -66 -198 -253 -406 -650 -406 -774 0 -53 26 -84 105 -122 125 -61
360 -34 534 62 152 84 321 233 374 331 39 72 61 165 53 234 -17 168 -178 316
-396 365 -44 10 -80 21 -80 24 0 14 125 141 185 189 67 53 87 89 65 115 -13
16 -56 21 -62 6z m-133 -387 c178 -51 282 -121 331 -220 37 -75 32 -170 -15
-269 -67 -145 -308 -332 -500 -389 -89 -26 -215 -38 -279 -26 -110 20 -130 59
-91 178 32 100 118 276 181 372 144 219 261 380 277 380 4 0 47 -12 96 -26z"/>
<path d="M19276 18798 c-36 -8 -102 -44 -195 -107 -187 -128 -347 -402 -328
-561 16 -132 112 -209 317 -252 190 -40 461 -7 637 78 136 65 217 173 244 326
22 121 -13 255 -95 367 -39 52 -133 113 -212 136 -55 17 -309 25 -368 13z
m407 -96 c116 -57 182 -155 209 -307 20 -112 -22 -235 -107 -314 -153 -141
-545 -195 -797 -110 -163 54 -207 134 -157 282 61 183 214 356 393 447 72 36
86 37 86 6 0 -37 18 -41 45 -12 13 15 35 26 49 26 14 0 28 5 32 11 4 8 36 10
94 7 73 -3 98 -9 153 -36z"/>
<path d="M21305 18729 c-205 -16 -391 -69 -450 -128 -69 -68 -55 -121 52 -191
60 -39 213 -109 240 -110 28 0 23 -25 -14 -63 -147 -154 -176 -330 -64 -386
119 -60 387 -61 494 -4 83 46 106 106 68 182 -30 57 -167 180 -260 232 l-82
46 83 74 c46 41 100 87 121 102 61 46 44 109 -21 76 -15 -8 -75 -61 -135 -118
l-107 -104 -88 33 c-191 72 -279 130 -256 168 34 55 206 108 461 141 89 12
169 24 179 28 16 6 16 7 -2 20 -19 14 -62 15 -219 2z m29 -523 c95 -63 206
-162 236 -211 17 -27 19 -38 10 -55 -49 -91 -460 -83 -510 10 -17 33 -5 80 40
149 37 57 126 161 138 161 3 0 41 -24 86 -54z"/>
<path d="M3667 18686 c-144 -40 -414 -309 -492 -491 -78 -183 -105 -426 -69
-628 26 -153 59 -217 108 -217 9 0 37 32 63 71 37 56 45 74 36 87 -19 32 -51
26 -74 -13 -12 -20 -27 -34 -33 -32 -19 6 -36 76 -47 187 -24 243 24 452 147
637 129 195 372 376 459 343 30 -12 55 -58 55 -105 0 -82 -55 -148 -275 -333
-143 -119 -240 -220 -266 -276 -74 -163 77 -336 350 -401 63 -15 85 -16 154
-6 82 11 131 33 124 54 -2 7 -19 11 -38 10 -175 -9 -205 -8 -278 16 -97 32
-187 93 -228 155 -40 59 -42 102 -8 161 31 52 164 181 301 292 106 86 185 167
211 217 23 45 29 143 10 187 -19 47 -76 90 -124 95 -21 2 -59 -2 -86 -10z"/>
<path d="M8229 18675 c-125 -43 -180 -84 -134 -101 11 -4 4 -18 -27 -57 -98
-123 -130 -262 -90 -394 53 -174 184 -258 402 -257 130 0 203 18 335 83 180
89 236 157 243 299 8 144 -24 239 -104 318 -96 93 -240 136 -444 132 -89 -1
-132 -7 -181 -23z m375 -56 c181 -32 275 -138 284 -321 4 -80 2 -93 -23 -144
-32 -65 -75 -100 -192 -155 -110 -53 -212 -73 -333 -66 -124 7 -179 27 -229
84 -91 102 -100 262 -24 393 32 55 147 176 186 197 31 16 168 31 232 26 22 -2
67 -9 99 -14z"/>
<path d="M4455 18641 c-12 -20 -6 -306 10 -471 9 -91 22 -279 30 -419 14 -265
20 -293 60 -277 13 5 16 14 11 39 -3 17 -6 100 -7 182 0 83 -5 193 -9 245 -14
151 -22 300 -29 510 l-6 195 -27 3 c-14 2 -29 -2 -33 -7z"/>
<path d="M17770 18534 c-274 -19 -550 -64 -582 -96 -21 -21 -23 -42 -5 -55 25
-20 46 -21 69 -4 52 40 224 65 668 96 118 8 218 19 223 24 21 21 -40 33 -177
36 -77 1 -166 1 -196 -1z"/>
<path d="M20140 18515 c-15 -18 -11 -29 43 -113 24 -37 52 -83 62 -102 10 -19
35 -61 56 -93 22 -32 39 -61 39 -65 0 -4 -33 -22 -73 -41 -91 -43 -278 -167
-334 -221 -44 -42 -52 -67 -31 -88 21 -21 43 -13 88 34 25 25 74 67 110 93 83
62 271 170 285 164 5 -2 33 -34 60 -70 54 -70 88 -99 105 -88 19 12 10 32 -45
108 -30 41 -55 77 -55 80 0 3 50 31 112 62 106 53 127 68 128 89 0 16 -74 -5
-180 -50 -123 -53 -102 -65 -200 117 -61 114 -124 199 -147 199 -6 0 -16 -7
-23 -15z"/>
<path d="M5565 18290 c-202 -8 -405 -28 -422 -42 -7 -6 -13 -19 -13 -29 0 -34
42 -40 153 -25 56 8 165 17 242 20 77 4 173 9 213 13 91 7 91 6 19 -142 -30
-61 -59 -125 -67 -142 -7 -18 -18 -33 -24 -34 -105 -6 -312 16 -471 51 -111
24 -144 25 -152 3 -12 -31 32 -49 203 -83 136 -28 189 -34 274 -32 58 1 110
-2 117 -6 9 -5 8 -22 -3 -67 -19 -78 -20 -179 -4 -233 19 -60 69 -102 121
-102 73 0 125 34 210 139 l36 44 -1 -44 c-1 -41 1 -44 26 -47 23 -3 30 2 39
25 30 78 76 159 116 203 25 28 49 50 54 50 5 0 30 -13 56 -29 90 -54 233 -115
244 -104 22 22 -11 49 -124 105 -63 31 -119 62 -123 69 -8 13 9 29 194 194 61
55 112 105 112 112 0 56 -122 -20 -297 -188 -34 -32 -69 -59 -77 -59 -22 0
-61 56 -107 156 -23 49 -46 92 -52 96 -6 4 -33 24 -59 45 -37 29 -44 39 -33
46 31 17 15 34 -37 41 -58 6 -109 6 -363 -4z m373 -104 c39 -20 68 -78 87
-175 22 -108 15 -166 -30 -258 -40 -81 -165 -222 -215 -243 -83 -34 -119 63
-89 239 15 87 23 101 60 101 42 0 129 39 129 58 0 12 -11 13 -71 8 -71 -7 -71
-7 -64 16 4 13 33 78 66 146 63 131 70 137 127 108z m229 -337 c-40 -55 -97
-119 -97 -109 0 7 7 40 16 74 9 33 14 75 11 93 -8 47 2 47 44 0 31 -35 35 -45
26 -58z"/>
<path d="M17146 18264 c-27 -27 -3 -51 77 -76 69 -22 87 -23 390 -23 305 0
319 1 333 20 8 10 13 24 11 30 -3 6 -96 10 -273 11 -284 1 -327 4 -439 35 -84
23 -80 23 -99 3z"/>
<path d="M16835 17310 c-106 -11 -201 -38 -290 -81 -149 -72 -196 -137 -164
-228 9 -24 16 -31 33 -29 16 2 22 12 27 43 5 29 17 48 45 72 88 74 256 135
434 157 50 6 196 -12 253 -30 113 -37 98 -92 -99 -354 -56 -74 -173 -223 -261
-330 -186 -228 -221 -277 -257 -347 -33 -67 -33 -79 4 -113 67 -62 162 -62
486 1 88 16 197 37 244 45 125 21 128 22 141 45 14 26 4 69 -17 69 -8 0 -25
-6 -37 -14 -12 -8 -96 -29 -187 -46 -370 -72 -519 -85 -560 -52 l-22 18 22 45
c29 58 99 151 240 324 183 224 369 475 401 541 35 75 39 139 9 177 -49 62
-268 105 -445 87z"/>
<path d="M19445 17221 c-34 -16 -81 -50 -107 -77 -94 -97 -183 -291 -213 -462
-37 -205 -36 -531 1 -693 24 -108 94 -174 124 -119 9 16 7 26 -9 46 -28 36
-48 103 -66 221 -17 115 -20 203 -6 203 5 0 15 -7 22 -16 20 -24 195 -147 274
-192 106 -61 187 -82 314 -82 132 0 150 8 167 75 11 42 82 197 174 380 24 48
27 50 100 72 41 13 96 26 121 29 l46 6 5 -93 c6 -93 33 -322 46 -388 4 -20 18
-43 35 -55 27 -20 29 -20 41 -4 10 14 8 34 -10 106 -23 89 -60 424 -50 441 3
5 37 12 76 16 109 11 107 45 -3 45 -43 0 -59 4 -64 15 -3 9 0 57 6 108 7 51
15 146 18 212 5 102 3 122 -10 133 -29 25 -60 10 -98 -48 -52 -78 -168 -278
-231 -395 -52 -97 -54 -99 -108 -120 -31 -12 -56 -28 -58 -37 -4 -20 30 -40
52 -32 17 7 21 -6 7 -21 -18 -20 -143 -268 -165 -327 l-24 -63 -61 -3 c-133
-6 -236 32 -411 156 -124 88 -180 142 -180 173 0 21 12 31 68 59 212 107 392
217 475 290 57 50 107 146 107 205 0 104 -85 226 -176 253 -73 21 -161 15
-229 -17z m239 -49 c53 -37 89 -107 89 -175 0 -99 -55 -166 -231 -281 -106
-70 -350 -206 -369 -206 -21 0 14 190 58 318 76 215 168 331 299 373 42 14
112 1 154 -29z m714 -362 l-13 -135 -52 -11 c-28 -6 -73 -15 -99 -19 -43 -6
-46 -5 -40 12 8 21 98 183 165 297 l46 78 3 -43 c1 -24 -3 -105 -10 -179z"/>
<path d="M15470 17159 c-126 -21 -268 -126 -333 -247 -89 -164 -142 -448 -119
-634 20 -163 84 -311 147 -340 19 -8 28 -8 40 2 21 18 19 25 -20 69 -61 67
-115 222 -115 328 l0 45 35 -28 c19 -16 50 -41 69 -57 56 -45 174 -94 286
-117 58 -12 152 -40 210 -62 140 -54 187 -66 302 -80 119 -14 161 -5 166 34 3
27 3 27 -45 22 -78 -9 -235 28 -400 94 -81 33 -184 70 -228 82 -276 77 -304
90 -274 126 21 25 117 96 243 178 138 90 174 118 269 206 82 77 107 121 107
188 0 124 -168 219 -340 191z m195 -76 c46 -24 80 -58 89 -90 9 -29 -18 -90
-57 -132 -67 -70 -270 -212 -536 -375 l-94 -58 7 63 c4 34 20 113 36 175 60
240 182 393 344 435 54 14 167 4 211 -18z"/>
<path d="M21102 17090 c-11 -12 -27 -40 -37 -63 -10 -23 -41 -91 -70 -152 -29
-60 -93 -218 -143 -350 -111 -294 -132 -341 -177 -400 -19 -26 -35 -55 -35
-65 0 -26 26 -43 55 -36 51 13 104 129 245 541 79 231 163 436 175 424 5 -6
-39 -299 -75 -499 -17 -96 -34 -203 -37 -237 -5 -59 -5 -63 20 -74 99 -45 228
97 413 454 52 100 101 189 109 197 13 12 15 7 15 -46 0 -57 -22 -249 -55 -474
-22 -153 -22 -235 0 -260 24 -27 61 -25 90 5 43 42 27 92 -20 61 -13 -9 -27
-16 -30 -16 -11 0 -4 83 15 177 61 294 90 480 90 581 0 43 -5 58 -25 77 -44
45 -75 27 -132 -81 -21 -39 -61 -109 -90 -155 -28 -46 -80 -131 -115 -187 -70
-116 -151 -218 -192 -246 l-28 -18 7 69 c4 37 16 111 26 163 36 173 77 404 90
499 12 93 12 94 -10 113 -30 24 -56 23 -79 -2z"/>
<path d="M21988 17088 c-3 -7 11 -45 29 -85 89 -186 76 -372 -48 -698 -27 -71
-69 -164 -93 -205 -23 -41 -71 -124 -105 -183 -35 -62 -61 -118 -59 -130 4
-27 47 -52 121 -71 114 -30 581 -24 734 9 43 10 58 28 38 45 -13 11 -33 11
-104 2 -157 -21 -618 -12 -685 14 -9 3 -16 11 -16 18 0 6 32 67 71 136 91 158
136 255 192 411 94 259 110 445 53 609 -14 41 -26 77 -26 79 0 10 373 -10 439
-23 40 -9 103 -30 139 -47 66 -33 97 -32 97 2 0 20 -118 75 -200 93 -145 33
-569 50 -577 24z"/>
<path d="M28695 17034 c-140 -22 -237 -49 -329 -94 -88 -42 -111 -69 -84 -96
12 -12 27 -7 103 32 73 37 117 51 235 75 319 64 454 46 420 -56 -16 -48 -117
-205 -256 -395 -193 -264 -218 -301 -287 -416 -80 -136 -124 -234 -144 -327
-28 -134 2 -213 98 -261 122 -60 314 -19 562 120 206 116 198 148 -11 46 -194
-95 -247 -112 -363 -119 -82 -5 -101 -3 -142 15 -83 37 -105 108 -72 237 27
106 125 290 233 440 24 33 100 139 169 235 176 245 232 327 259 385 44 93 24
160 -54 183 -52 16 -224 14 -337 -4z"/>
<path d="M30020 17034 c-266 -48 -521 -170 -597 -286 -36 -54 -42 -126 -15
-170 35 -56 136 -124 257 -173 39 -16 72 -30 73 -31 2 -2 -9 -22 -26 -46 -95
-139 -186 -317 -221 -432 -63 -204 23 -331 224 -329 166 1 374 102 519 253
112 116 132 196 76 307 -49 98 -162 171 -374 243 -53 18 -96 38 -96 45 0 18
240 249 295 284 27 17 61 31 75 31 27 0 60 27 60 48 0 22 -39 34 -75 22 -79
-26 -281 -203 -379 -333 -26 -34 -33 -37 -60 -31 -54 11 -209 98 -253 141 -38
37 -43 48 -43 87 0 67 58 120 214 197 100 49 154 68 301 104 183 46 212 58
185 75 -19 12 -47 11 -140 -6z m-76 -729 c150 -58 181 -74 239 -125 138 -122
114 -258 -69 -395 -203 -153 -437 -197 -533 -100 -31 31 -35 41 -39 99 -6 98
38 218 161 431 56 98 85 135 107 135 10 0 70 -20 134 -45z"/>
<path d="M31453 16880 c-44 -18 -27 -38 40 -45 81 -8 144 -29 242 -78 151 -75
253 -159 324 -266 35 -53 36 -57 36 -150 0 -112 -22 -187 -90 -317 -57 -109
-113 -182 -183 -236 -191 -151 -432 -181 -640 -81 -85 41 -181 142 -212 223
-52 135 -25 331 67 490 62 107 231 260 343 311 83 37 95 45 95 58 0 8 -7 18
-16 24 -24 15 -144 -45 -246 -122 -187 -142 -283 -286 -325 -489 -20 -93 -21
-112 -10 -185 30 -207 178 -354 410 -408 121 -28 221 -23 348 18 237 77 400
253 496 535 26 75 32 109 33 178 0 75 -4 92 -30 144 -105 209 -532 456 -682
396z"/>
<path d="M9970 16851 c-181 -71 -299 -248 -300 -449 0 -47 -4 -57 -31 -81 -39
-36 -38 -74 4 -79 24 -3 27 -8 28 -40 1 -56 22 -107 45 -107 18 0 19 7 16 92
-4 107 -19 96 158 118 194 24 192 24 263 -40 75 -67 307 -188 500 -261 128
-48 153 -50 164 -17 6 16 -37 53 -67 59 -95 21 -460 192 -524 247 l-40 34 125
6 c151 7 213 25 258 71 61 63 33 138 -67 184 -48 22 -64 24 -133 19 -148 -10
-299 -108 -299 -194 0 -19 -7 -22 -67 -27 -69 -7 -195 -23 -245 -33 -26 -5
-28 -3 -28 28 0 48 28 155 60 224 47 104 188 205 287 205 51 0 64 17 33 42
-28 23 -81 23 -140 -1z m485 -312 c78 -21 98 -65 43 -99 -39 -23 -134 -39
-258 -43 -83 -2 -95 0 -98 15 -7 38 91 99 198 124 70 16 68 16 115 3z"/>
<path d="M3755 16842 c-215 -74 -361 -290 -471 -692 -26 -96 -26 -303 0 -347
21 -35 58 -56 81 -46 16 5 85 105 85 122 0 17 -30 33 -52 28 -13 -4 -32 -20
-42 -38 -17 -29 -19 -30 -30 -13 -18 30 -11 199 12 294 62 257 192 485 327
575 88 58 163 80 233 69 102 -16 84 -54 -94 -191 -132 -103 -264 -247 -315
-345 -22 -43 -25 -105 -6 -151 35 -83 165 -170 311 -207 142 -36 337 -21 344
26 3 21 0 21 -115 16 -127 -5 -196 4 -284 37 -116 44 -193 116 -205 192 -4 27
3 47 33 99 48 82 194 229 298 302 93 64 138 111 155 163 11 33 10 40 -7 64
-45 60 -154 79 -258 43z"/>
<path d="M25154 16799 c-14 -15 -16 -24 -7 -37 9 -14 24 -16 90 -14 61 3 123
-5 270 -34 105 -20 197 -41 205 -45 21 -13 1 -37 -92 -108 -92 -72 -167 -165
-201 -251 -32 -83 -37 -221 -11 -330 11 -47 19 -88 16 -91 -10 -17 -95 -17
-254 1 -210 24 -260 25 -305 6 -67 -28 -31 -57 60 -49 39 3 116 -4 221 -21
156 -25 273 -31 323 -17 43 12 47 32 21 117 -18 60 -23 104 -24 184 0 97 2
111 32 179 44 102 75 140 188 234 114 96 122 106 109 143 -18 49 -52 63 -270
109 -243 52 -340 58 -371 24z"/>
<path d="M17853 16804 c-20 -9 -15 -44 11 -79 l25 -32 253 4 c141 3 302 1 363
-5 60 -6 111 -9 113 -7 2 2 6 21 9 44 5 36 3 40 -18 45 -71 14 -733 41 -756
30z"/>
<path d="M4525 16704 c-129 -19 -225 -58 -225 -93 0 -33 27 -47 63 -32 103 43
141 51 259 57 155 7 221 -7 226 -47 4 -33 -70 -177 -160 -314 -96 -147 -130
-219 -135 -290 -4 -51 -2 -65 19 -94 40 -59 79 -73 188 -68 83 4 110 10 215
51 113 44 225 107 225 128 0 22 -36 17 -117 -16 -167 -68 -235 -88 -325 -93
-72 -5 -92 -3 -114 12 -24 15 -26 22 -22 69 5 60 37 126 142 294 111 178 146
252 146 311 0 43 -4 53 -30 75 -17 14 -47 30 -68 36 -39 12 -236 21 -287 14z"/>
<path d="M23033 16651 c-63 -22 -134 -75 -229 -173 -180 -184 -276 -338 -276
-440 0 -67 22 -95 107 -137 62 -31 81 -35 171 -39 76 -3 115 0 160 13 141 40
255 131 312 247 32 66 62 168 62 212 0 14 4 26 8 26 18 0 115 -113 180 -210
39 -58 80 -114 91 -124 12 -11 21 -23 21 -29 0 -5 -25 -36 -55 -68 -30 -33
-66 -80 -81 -105 -22 -38 -25 -49 -16 -70 8 -16 20 -24 37 -24 20 0 33 12 64
63 51 80 103 147 116 147 5 -1 44 -30 85 -65 77 -67 110 -80 110 -45 0 12 -27
40 -75 77 -41 32 -75 63 -75 69 0 14 166 122 285 184 132 69 157 92 117 104
-17 6 -153 -44 -237 -86 -22 -12 -79 -47 -126 -79 -47 -33 -92 -59 -100 -59
-8 0 -56 62 -106 138 -110 167 -165 225 -204 220 -26 -4 -27 -2 -33 53 -10 81
-54 145 -126 181 -73 37 -123 42 -187 19z m168 -62 c16 -11 39 -39 51 -62 42
-80 23 -246 -44 -380 -57 -116 -167 -192 -310 -218 -116 -21 -278 15 -295 65
-27 82 59 234 235 413 110 112 169 156 245 183 68 24 83 24 118 -1z"/>
<path d="M6546 16589 c-88 -104 -149 -232 -197 -416 -43 -170 -46 -210 -17
-253 35 -52 114 -82 195 -76 76 6 194 52 281 108 76 49 172 152 203 216 30 63
36 146 15 210 -38 113 -115 177 -227 188 -35 4 -71 13 -79 20 -23 20 -86 44
-114 44 -16 0 -36 -14 -60 -41z m104 -28 c0 -9 -41 -23 -48 -16 -2 2 -1 8 3
14 8 13 45 15 45 2z m197 -66 c52 -22 72 -42 99 -100 49 -103 24 -192 -84
-300 -102 -102 -245 -174 -364 -183 -61 -4 -68 -3 -92 21 -33 33 -33 65 -1
193 33 133 84 269 115 305 19 23 45 37 105 54 94 28 171 31 222 10z"/>
<path d="M24114 16581 c-45 -21 -74 -54 -74 -86 1 -41 42 -109 109 -179 l70
-71 -33 -50 c-108 -164 -80 -286 84 -364 46 -22 69 -26 140 -26 57 0 95 5 115
15 27 14 30 20 29 61 0 64 -65 168 -166 271 l-79 79 30 37 c16 20 43 51 61 67
44 41 53 61 40 85 -17 32 -56 25 -83 -15 -13 -19 -41 -54 -62 -77 l-39 -41
-51 56 c-56 62 -91 127 -81 152 12 33 72 46 212 46 111 -1 134 2 134 14 0 43
-274 63 -356 26z m254 -493 c144 -187 147 -217 21 -218 -60 0 -126 24 -161 57
-24 23 -28 34 -28 85 0 40 7 72 21 101 23 45 47 77 60 77 4 0 43 -46 87 -102z"/>
<path d="M17693 16569 c-7 -7 -13 -21 -13 -31 0 -34 40 -46 188 -58 135 -10
362 -34 427 -45 44 -8 89 8 93 31 3 19 -11 23 -185 52 -307 51 -492 70 -510
51z"/>
<path d="M27365 16546 c-300 -70 -707 -382 -821 -631 -32 -70 -42 -165 -24
-232 11 -38 29 -63 85 -119 79 -78 160 -119 297 -151 108 -24 413 -24 528 0
135 29 298 90 315 118 15 23 -9 22 -88 -4 -144 -46 -218 -59 -368 -64 -302
-11 -506 36 -631 146 -65 57 -91 116 -86 190 5 68 29 119 106 220 151 198 494
422 706 461 85 16 223 8 288 -17 44 -16 49 -16 64 -1 25 24 9 54 -39 73 -58
23 -251 30 -332 11z"/>
<path d="M5545 16519 c-138 -21 -164 -33 -144 -70 15 -29 48 -32 160 -14 57 9
118 18 136 21 21 3 38 15 52 36 11 18 17 36 15 40 -8 12 -75 8 -219 -13z"/>
<path d="M24710 16500 c0 -12 16 -30 40 -46 22 -15 40 -28 40 -30 0 -3 -20
-29 -44 -59 -86 -105 -87 -196 -3 -291 117 -132 410 -185 462 -83 19 36 19 67
-1 126 -36 106 -108 193 -221 268 -24 15 -43 35 -43 44 0 29 -22 41 -76 41
-38 0 -61 6 -88 25 -44 30 -66 32 -66 5z m239 -159 c101 -69 183 -183 198
-275 9 -55 -16 -69 -107 -64 -87 5 -199 50 -245 98 -33 34 -43 100 -25 155 14
43 85 125 107 125 8 0 40 -18 72 -39z"/>
<path d="M8355 16472 c-148 -52 -313 -219 -359 -365 -14 -46 -15 -62 -6 -97
26 -95 164 -193 318 -225 170 -36 464 39 590 149 39 35 8 39 -54 8 -147 -74
-379 -122 -496 -103 -156 26 -288 121 -288 207 0 43 53 143 107 204 56 62 156
135 213 155 24 8 77 15 121 15 l79 0 0 29 c0 17 -6 31 -16 35 -32 12 -160 5
-209 -12z"/>
<path d="M7152 16468 c-37 -37 28 -245 112 -357 l25 -33 -80 -90 c-83 -94 -96
-128 -59 -148 25 -13 54 0 71 33 22 40 104 136 118 136 7 1 35 -19 63 -44 62
-55 145 -97 207 -103 79 -7 80 40 1 53 -66 11 -220 116 -220 150 0 12 196 183
271 237 50 35 99 89 99 107 0 21 -46 11 -95 -20 -48 -30 -181 -137 -277 -220
-26 -23 -51 -38 -58 -34 -33 20 -100 199 -100 267 0 22 -5 48 -10 59 -12 21
-50 25 -68 7z"/>
<path d="M9040 16440 c-6 -11 -28 -29 -50 -40 -96 -49 -220 -203 -220 -274 0
-49 60 -86 118 -71 39 9 126 103 147 158 10 26 20 47 24 47 3 0 24 -35 46 -77
49 -95 132 -186 199 -220 39 -20 70 -27 131 -31 72 -3 85 -1 128 22 67 36 117
76 117 92 0 19 -1 18 -67 -16 -120 -63 -220 -62 -305 3 -64 49 -172 216 -193
300 -9 34 8 36 23 2 12 -26 47 -34 55 -12 8 24 -15 66 -49 86 -19 11 -37 27
-40 36 -9 22 -51 19 -64 -5z m-30 -122 c0 -45 -136 -208 -160 -193 -20 12 40
114 99 168 43 38 61 46 61 25z"/>
<path d="M5263 16304 c-9 -25 8 -46 63 -76 63 -34 153 -58 221 -58 41 0 58 5
80 25 24 21 26 26 13 35 -8 5 -33 10 -55 10 -62 1 -174 27 -231 55 -59 29 -82
31 -91 9z"/>
<path d="M31330 15258 c-14 -35 -38 -255 -65 -604 -57 -711 -66 -836 -75 -999
-5 -93 -13 -212 -16 -262 l-7 -93 25 0 c48 0 51 16 68 335 5 105 14 246 20
315 5 69 17 220 25 335 25 347 44 569 66 774 11 106 18 199 15 207 -9 22 -45
17 -56 -8z"/>
<path d="M30107 15129 c-340 -36 -543 -207 -457 -384 20 -41 99 -123 189 -195
l44 -36 -26 -169 c-82 -529 -75 -708 28 -805 22 -21 36 -25 83 -25 78 1 147
39 243 135 135 135 186 283 145 422 -31 107 -146 250 -311 383 -95 77 -95 78
-89 114 12 64 91 335 123 417 29 76 34 82 70 92 21 7 50 12 65 12 35 0 66 17
66 35 0 17 -43 18 -173 4z m-67 -72 c0 -2 -18 -52 -41 -111 -35 -93 -74 -229
-94 -328 -3 -16 -10 -28 -16 -28 -18 0 -147 137 -168 178 -49 96 -13 166 119
233 57 28 200 69 200 56z m43 -719 c177 -176 226 -268 214 -400 -7 -84 -55
-175 -131 -253 -105 -107 -191 -133 -246 -75 -70 75 -72 211 -9 675 23 168 24
175 39 175 6 0 66 -55 133 -122z"/>
<path d="M4555 15080 c-188 -25 -414 -68 -492 -93 -60 -20 -68 -25 -71 -50 -5
-41 17 -43 125 -8 146 45 643 126 643 104 0 -6 -49 -49 -109 -97 -197 -156
-232 -206 -197 -275 22 -41 82 -84 236 -167 255 -138 339 -213 324 -288 -9
-52 -76 -150 -126 -187 -60 -44 -145 -82 -170 -76 -26 7 -58 -9 -58 -29 0 -23
44 -37 93 -30 55 8 156 68 215 126 53 52 112 169 112 220 0 96 -120 198 -415
355 -127 68 -171 105 -156 132 15 28 68 76 217 197 152 123 164 137 148 164
-16 24 -151 25 -319 2z"/>
<path d="M3487 15055 c-26 -7 -60 -21 -75 -31 -71 -46 -159 -169 -193 -272
-46 -136 -22 -388 57 -594 27 -70 69 -118 105 -118 23 0 69 42 69 63 0 23 -29
42 -42 29 -41 -41 -86 30 -126 202 -33 143 -37 321 -8 406 56 164 176 279 292
280 50 0 58 -13 44 -76 -13 -57 -45 -119 -114 -226 -29 -46 -73 -121 -97 -168
-42 -82 -44 -88 -44 -177 0 -85 2 -94 30 -134 78 -109 268 -145 403 -75 31 16
42 39 23 50 -4 3 -42 -1 -82 -10 -120 -25 -221 -4 -286 58 -30 29 -33 37 -33
92 0 80 38 166 153 351 120 191 146 287 92 340 -28 29 -87 32 -168 10z"/>
<path d="M9075 15050 c-3 -5 -7 -73 -9 -152 -2 -79 -9 -204 -16 -278 -15 -175
-4 -594 16 -611 19 -15 32 -3 38 34 3 18 8 138 10 267 3 129 12 303 20 385 9
83 16 189 16 238 0 74 -3 90 -20 107 -21 21 -45 26 -55 10z"/>
<path d="M15289 14987 c-123 -45 -234 -142 -318 -279 -100 -161 -142 -365
-121 -586 12 -136 45 -321 65 -369 13 -31 17 -33 64 -33 44 0 51 3 51 20 0 10
-8 24 -18 29 -11 6 -26 29 -35 53 -17 43 -58 218 -52 218 2 0 41 -28 87 -63
100 -76 290 -174 408 -212 134 -43 310 -36 310 11 0 17 -3 17 -106 14 -67 -2
-96 3 -175 30 -152 50 -385 185 -454 262 -46 51 -65 95 -65 153 0 116 104 217
452 440 166 105 258 186 258 223 0 58 -83 102 -205 109 -67 3 -91 0 -146 -20z
m226 -52 c20 -8 38 -21 41 -30 9 -24 -37 -69 -136 -133 -255 -164 -323 -215
-433 -321 -63 -61 -68 -64 -62 -36 44 195 144 365 273 462 31 24 77 50 102 57
60 19 172 20 215 1z"/>
<path d="M28383 14935 c-25 -17 -31 -54 -10 -56 6 0 171 0 365 1 233 1 352 -2
352 -9 0 -13 -61 -61 -185 -146 -238 -164 -299 -261 -227 -361 38 -52 76 -84
217 -185 219 -156 265 -211 265 -317 0 -155 -168 -344 -353 -397 -55 -16 -73
-16 -154 1 -65 13 -51 -57 15 -77 81 -24 243 34 356 127 117 96 216 263 216
363 0 98 -63 175 -270 330 -208 156 -250 199 -250 255 0 25 13 43 63 91 35 33
99 84 143 114 103 71 221 167 234 191 18 34 12 60 -17 71 -15 6 -179 12 -382
16 -321 4 -358 3 -378 -12z"/>
<path d="M21835 14918 c-7 -21 -25 -164 -36 -293 -16 -179 0 -457 42 -730 19
-126 42 -175 81 -175 29 0 31 23 9 117 -11 48 -30 176 -42 283 -25 233 -23
503 7 662 16 91 16 98 0 122 -17 27 -53 35 -61 14z"/>
<path d="M8315 14861 c-146 -42 -275 -128 -275 -183 0 -34 93 -115 213 -186
59 -35 107 -67 107 -72 0 -5 -23 -45 -51 -91 -56 -90 -99 -194 -99 -238 0 -71
79 -128 167 -118 135 14 279 165 259 271 -8 42 -87 133 -140 161 -20 11 -36
24 -36 28 0 5 28 48 63 96 34 47 75 105 90 129 15 24 44 61 64 83 29 32 33 42
23 54 -19 23 -58 18 -85 -11 -13 -14 -67 -90 -121 -170 -62 -93 -102 -143
-110 -140 -36 14 -218 143 -245 174 l-32 36 42 37 c22 20 71 49 109 64 138 57
173 75 167 85 -9 14 -40 12 -110 -9z m231 -593 c38 -73 -8 -151 -128 -213 -55
-29 -84 -31 -110 -8 -32 29 -23 79 37 197 30 59 62 117 71 128 17 18 19 17 67
-29 27 -26 55 -60 63 -75z"/>
<path d="M19180 14821 c-75 -23 -130 -64 -130 -97 0 -35 14 -36 55 -4 37 29
91 50 130 50 13 0 1 -11 -32 -29 -128 -71 -231 -169 -319 -306 -131 -203 -191
-414 -154 -547 17 -59 69 -119 133 -152 51 -26 68 -29 145 -29 100 0 173 18
276 70 157 78 255 168 312 287 43 89 57 161 52 258 -4 66 -2 78 11 78 35 0
121 -51 172 -101 60 -60 169 -183 169 -192 0 -3 -24 -18 -52 -35 -101 -57
-208 -162 -208 -204 0 -11 13 -32 28 -48 44 -44 151 -53 166 -15 8 22 -19 42
-64 50 -22 4 -40 10 -40 15 0 14 128 128 175 156 l46 26 93 -93 c92 -93 346
-279 380 -279 10 0 16 9 16 24 0 19 -15 36 -67 72 -141 99 -211 153 -288 227
l-80 75 100 48 c343 161 385 183 385 199 0 13 -6 15 -31 10 -41 -9 -223 -78
-334 -127 -49 -21 -108 -46 -129 -55 l-39 -16 -41 49 c-70 85 -169 185 -211
214 -22 15 -69 39 -105 53 l-65 26 -25 74 c-14 41 -38 92 -52 113 -43 65 -119
132 -167 149 -46 16 -167 19 -211 6z m259 -117 c102 -94 134 -188 135 -399 1
-118 0 -121 -35 -195 -20 -41 -53 -94 -73 -117 -69 -80 -247 -178 -367 -204
-77 -17 -203 -7 -236 17 -60 45 -68 67 -67 177 0 89 5 113 32 185 106 281 311
510 485 541 35 6 42 11 41 29 -1 35 20 26 85 -34z"/>
<path d="M5465 14800 c-58 -10 -85 -27 -85 -57 0 -21 39 -31 89 -21 64 12 309
11 478 -3 171 -14 334 -9 357 10 19 16 21 51 4 52 -7 0 -69 0 -138 0 -69 -1
-162 3 -208 8 -123 15 -429 21 -497 11z"/>
<path d="M15901 14790 c-78 -10 -101 -22 -101 -50 0 -28 25 -31 117 -15 101
18 224 19 400 4 126 -10 260 -32 272 -45 9 -9 -74 -80 -173 -147 -128 -86
-176 -132 -176 -170 0 -43 71 -109 185 -171 130 -72 225 -138 299 -207 107
-100 119 -168 48 -287 -37 -64 -128 -153 -181 -177 l-44 -19 -22 28 c-30 37
-55 29 -55 -17 0 -72 72 -87 178 -37 83 39 159 116 204 207 72 144 63 201 -50
313 -86 86 -157 138 -317 235 -121 73 -165 109 -165 136 0 11 54 56 148 123
172 124 225 170 220 194 -4 24 -137 67 -268 86 -131 19 -421 28 -519 16z"/>
<path d="M6860 14783 c-23 -8 -98 -83 -130 -128 -55 -80 -128 -239 -144 -315
-28 -137 -5 -233 73 -303 161 -145 472 -18 607 249 33 66 38 85 42 163 4 74 1
95 -18 139 -29 68 -93 126 -161 146 -29 9 -61 25 -71 36 -16 17 -31 20 -101
19 -45 0 -89 -3 -97 -6z m214 -84 c90 -23 166 -123 166 -220 0 -50 -22 -135
-50 -189 -10 -20 -48 -67 -84 -106 -159 -172 -362 -202 -433 -65 -28 54 -31
156 -8 246 21 78 112 253 137 261 11 3 35 19 53 36 54 47 129 60 219 37z"/>
<path d="M27405 14774 c-27 -2 -117 -11 -200 -19 -195 -20 -444 -35 -571 -35
-86 0 -105 -3 -125 -19 -35 -29 -16 -55 42 -60 58 -4 333 15 589 41 356 37
520 28 625 -33 78 -47 58 -120 -120 -429 -213 -371 -360 -697 -367 -814 -3
-35 0 -41 17 -41 16 0 26 18 52 95 80 233 186 455 372 778 163 283 185 347
143 417 -22 36 -98 79 -173 98 -59 16 -206 26 -284 21z"/>
<path d="M21244 14613 c-135 -132 -172 -185 -205 -297 -7 -26 -19 -46 -27 -46
-19 0 -201 104 -234 134 -16 14 -28 31 -28 39 0 15 38 52 87 86 18 12 94 48
170 80 189 80 213 93 213 109 0 11 -10 13 -47 7 -53 -8 -268 -91 -356 -137
-71 -38 -137 -107 -137 -145 0 -43 87 -119 214 -184 l109 -57 1 -118 c1 -108
3 -124 28 -170 55 -104 151 -164 267 -165 104 -2 146 40 123 119 -17 57 -106
185 -164 237 -49 44 -72 61 -150 109 l-28 16 25 66 c49 131 112 210 284 354
49 42 53 47 42 68 -23 43 -50 28 -187 -105z m-112 -484 c63 -41 181 -169 208
-226 33 -70 27 -78 -55 -77 -128 1 -194 61 -216 195 -9 59 -5 139 9 139 3 0
27 -14 54 -31z"/>
<path d="M7895 14628 c-49 -23 -134 -70 -187 -105 -53 -35 -99 -63 -102 -63
-3 0 -17 23 -31 50 -20 39 -31 50 -49 50 -48 0 -51 -24 -11 -91 l38 -61 -70
-71 c-80 -82 -171 -200 -179 -233 -10 -39 -1 -59 26 -59 21 0 30 10 53 60 31
63 101 156 162 215 l36 35 47 -54 c60 -70 222 -204 279 -232 44 -21 73 -20 73
3 0 7 -29 32 -65 56 -62 42 -233 204 -263 251 -15 22 -14 25 19 52 19 15 105
69 192 120 144 85 175 111 136 116 -8 1 -54 -17 -104 -39z"/>
<path d="M5239 14601 c-20 -16 -22 -23 -13 -38 9 -15 31 -19 135 -25 68 -4
189 -19 269 -32 198 -33 278 -40 327 -27 39 11 59 33 47 52 -3 5 -36 9 -75 9
-38 0 -175 18 -304 40 -268 46 -351 50 -386 21z"/>
<path d="M17266 14324 c-20 -19 -20 -28 -1 -44 11 -9 79 -13 248 -15 127 -1
292 -6 365 -10 118 -7 132 -6 132 8 0 24 -26 34 -115 46 -106 14 -385 31 -512
31 -79 0 -105 -3 -117 -16z"/>
<path d="M17139 14164 c-9 -11 -10 -20 -3 -31 9 -14 159 -62 383 -123 106 -29
191 -26 191 6 0 20 -28 31 -97 37 -63 7 -241 60 -345 103 -67 28 -110 31 -129
8z"/>
<path d="M28175 13233 c-3 -15 -21 -76 -41 -134 -19 -59 -43 -146 -54 -195
-20 -94 -64 -475 -76 -657 -4 -59 -10 -109 -14 -112 -4 -2 -17 22 -30 53 -40
99 -109 227 -145 270 -55 64 -113 87 -215 86 -110 -1 -213 -29 -355 -99 -178
-86 -341 -220 -391 -322 -28 -56 -26 -172 4 -237 73 -160 191 -215 440 -203
145 7 256 30 419 86 124 43 163 63 163 86 0 21 -19 19 -123 -14 -144 -47 -252
-70 -380 -82 -318 -31 -480 60 -479 267 0 68 26 115 104 190 120 116 238 186
408 244 172 58 297 42 369 -49 42 -53 123 -220 161 -331 18 -52 39 -101 46
-109 20 -22 44 -6 44 29 0 48 48 485 75 690 28 210 44 278 92 404 40 103 42
159 6 164 -18 3 -24 -3 -28 -25z"/>
<path d="M28796 13229 c-145 -15 -253 -58 -286 -112 -33 -54 -22 -107 22 -107
17 0 24 16 30 69 4 33 68 64 178 87 69 14 116 16 255 11 93 -3 200 -13 236
-21 77 -17 147 -50 156 -73 9 -23 -49 -72 -224 -188 -202 -133 -277 -195 -313
-258 -16 -29 -30 -60 -30 -70 0 -9 15 -33 33 -52 24 -27 67 -49 177 -94 189
-76 221 -93 274 -144 60 -57 68 -98 32 -172 -62 -126 -474 -455 -596 -475 -30
-4 -35 -9 -38 -36 -6 -63 54 -51 194 41 225 146 421 317 482 418 45 75 53 148
23 211 -39 80 -105 124 -313 207 -163 66 -198 86 -198 113 0 38 104 126 310
261 203 134 250 177 250 228 0 89 -108 138 -332 152 -194 11 -245 12 -322 4z"/>
<path d="M15073 13160 c-47 -11 -122 -58 -181 -113 -173 -164 -285 -516 -286
-902 -1 -193 14 -250 96 -360 56 -73 91 -92 117 -61 11 13 7 23 -26 60 -52 59
-98 147 -112 214 -16 75 -14 259 4 377 31 207 87 386 157 502 43 71 156 184
214 212 53 27 118 30 159 9 28 -15 27 -15 -41 -11 -62 5 -76 2 -122 -21 -61
-31 -132 -92 -132 -113 0 -20 19 -12 83 36 69 52 119 66 193 55 80 -11 79 -11
78 8 -2 16 1 16 26 3 47 -24 137 -113 179 -176 148 -221 64 -329 -364 -474
-270 -92 -407 -154 -413 -188 -2 -10 15 -42 38 -71 63 -83 218 -154 496 -230
73 -19 156 -44 185 -56 69 -26 73 -25 87 6 18 38 0 64 -43 64 -36 0 -313 78
-445 126 -132 47 -240 111 -240 143 0 14 123 62 346 137 110 36 232 82 272
102 129 64 222 168 222 249 0 37 -32 133 -61 182 -72 119 -217 255 -307 286
-48 16 -125 18 -179 5z"/>
<path d="M3733 13075 c-182 -56 -306 -228 -350 -483 -33 -196 -14 -590 38
-767 25 -84 33 -95 69 -95 36 0 49 17 59 79 4 28 11 54 14 58 4 3 37 -8 74
-25 179 -82 377 -100 526 -49 85 30 192 80 220 105 9 8 17 22 17 30 0 20 -35
10 -135 -37 -137 -65 -180 -76 -280 -75 -102 2 -226 34 -335 87 -59 29 -65 35
-70 67 -5 33 -7 35 -44 35 -34 0 -40 4 -48 27 -14 41 15 95 138 253 167 214
251 333 291 413 31 63 37 85 41 158 7 128 -25 195 -107 223 -42 14 -65 13
-118 -4z m116 -70 c44 -51 57 -102 43 -176 -20 -106 -80 -209 -265 -456 -97
-127 -178 -241 -182 -252 -3 -12 -11 -21 -17 -21 -7 0 -9 75 -5 233 4 194 8
246 26 317 45 174 126 291 251 359 75 41 110 40 149 -4z m-365 -1064 c24 -25
27 -34 19 -57 -14 -42 -28 -39 -42 8 -7 24 -15 51 -17 61 -8 25 9 21 40 -12z"/>
<path d="M18913 13001 c-109 -51 -213 -221 -267 -436 -19 -76 -79 -360 -103
-485 -22 -118 -26 -450 -5 -517 20 -67 54 -90 86 -58 13 13 12 21 -7 72 -19
51 -21 78 -21 238 0 153 26 470 39 483 2 2 13 -14 24 -35 61 -120 448 -369
688 -443 69 -21 183 -27 183 -10 0 13 -17 20 -145 60 -156 48 -456 224 -597
350 -72 64 -95 122 -60 151 12 9 64 27 115 39 50 12 151 35 222 51 304 71 385
118 385 221 0 98 -112 233 -249 301 -57 28 -77 32 -156 35 -73 2 -98 -1 -132
-17z m251 -81 c76 -32 134 -80 177 -143 51 -77 51 -108 2 -141 -61 -40 -92
-49 -507 -148 -48 -11 -108 -31 -132 -43 -24 -12 -44 -19 -44 -14 0 4 18 61
41 126 79 226 161 347 257 378 59 19 142 13 206 -15z"/>
<path d="M31505 12996 c-106 -18 -153 -30 -255 -68 -103 -39 -174 -80 -147
-86 10 -2 32 2 48 8 40 17 46 7 11 -19 -41 -29 -135 -146 -165 -206 -85 -171
-77 -363 20 -457 62 -61 121 -81 249 -86 96 -4 125 -1 220 23 206 51 397 147
485 243 70 77 118 180 126 270 15 184 -81 319 -262 367 -84 22 -234 27 -330
11z m339 -85 c124 -56 159 -96 186 -209 24 -104 -10 -219 -92 -308 -118 -129
-412 -245 -623 -247 -122 -1 -196 21 -251 77 -52 52 -68 104 -62 208 6 105 52
198 149 302 56 60 79 78 117 89 45 13 47 15 46 49 l-1 35 96 17 c53 10 103 19
111 21 8 2 69 3 135 1 110 -3 126 -6 189 -35z"/>
<path d="M29906 12960 c-71 -12 -152 -41 -206 -75 -66 -42 -77 -85 -32 -128
32 -31 100 -57 148 -57 19 0 34 -3 34 -6 0 -3 -20 -29 -45 -56 -89 -99 -145
-252 -147 -403 -1 -97 19 -164 65 -213 76 -82 231 -80 401 5 215 107 335 247
370 430 44 231 -80 428 -307 489 -69 19 -207 25 -281 14z m225 -60 c156 -30
269 -134 306 -284 41 -169 -41 -347 -218 -467 -168 -114 -339 -148 -430 -86
-52 36 -69 79 -69 178 0 99 17 166 67 261 42 81 92 133 146 151 81 27 72 77
-13 77 -61 0 -169 33 -198 61 -28 25 -19 40 40 70 89 46 246 62 369 39z"/>
<path d="M16184 12935 c-4 -9 0 -28 7 -42 8 -14 13 -34 11 -45 -4 -24 19 -32
74 -23 39 6 44 8 32 22 -11 14 1 15 117 8 140 -7 292 -27 394 -51 125 -28 181
-67 166 -114 -12 -39 -148 -151 -331 -272 -191 -128 -258 -182 -270 -221 -13
-40 47 -78 205 -132 164 -56 201 -81 201 -139 0 -20 -10 -56 -21 -79 -58 -115
-203 -259 -269 -269 -51 -7 -31 -68 21 -68 80 0 265 181 329 321 26 57 26 125
0 167 -30 49 -98 86 -241 133 -71 23 -132 46 -136 52 -8 14 27 42 197 155 248
164 336 236 371 304 25 48 24 74 -3 115 -45 65 -154 104 -408 147 -80 14 -183
27 -230 31 -47 3 -113 8 -148 11 -52 5 -63 3 -68 -11z"/>
<path d="M22264 12939 c-105 -12 -124 -22 -124 -61 0 -18 14 -103 30 -188 36
-182 41 -310 15 -415 -9 -38 -45 -159 -81 -268 -35 -108 -67 -216 -70 -240
-14 -98 58 -166 186 -175 125 -9 481 40 566 77 31 14 44 26 44 40 0 25 -9 25
-92 7 -97 -22 -456 -59 -515 -53 -28 3 -65 12 -80 19 -45 22 -38 87 35 303
123 364 127 431 54 818 -5 26 -6 49 -2 52 19 12 245 26 320 20 105 -8 255 -38
336 -67 34 -11 69 -18 78 -15 23 9 20 43 -5 66 -22 20 -174 60 -309 81 -75 11
-283 11 -386 -1z"/>
<path d="M4795 12915 c-89 -13 -126 -20 -255 -52 -71 -17 -297 -99 -317 -115
-18 -15 -16 -36 5 -47 14 -7 40 0 106 29 117 52 154 64 336 106 98 22 193 37
260 41 l105 5 -25 -25 c-14 -15 -83 -70 -155 -124 -153 -116 -195 -165 -195
-228 0 -69 35 -100 209 -189 281 -142 330 -173 371 -233 60 -88 13 -264 -109
-410 -47 -57 -73 -74 -134 -88 -44 -9 -32 -39 17 -43 58 -5 82 4 133 51 126
116 216 323 192 439 -20 94 -97 155 -376 299 -178 93 -220 120 -234 156 -19
50 24 95 256 269 130 97 163 130 148 145 -30 30 -180 36 -338 14z"/>
<path d="M7054 12915 c-128 -35 -281 -163 -388 -324 -65 -97 -130 -240 -156
-341 -43 -172 -37 -403 15 -552 32 -91 67 -136 131 -168 43 -22 61 -25 154
-25 120 1 184 21 287 91 74 52 193 181 231 252 171 320 84 745 -171 840 -79
30 -159 39 -175 19 -18 -21 0 -32 78 -46 137 -26 207 -86 261 -225 41 -105 51
-243 24 -360 -31 -142 -123 -288 -245 -390 -60 -50 -172 -103 -240 -114 -77
-12 -173 -1 -207 24 -107 77 -147 415 -78 664 97 355 379 642 590 600 63 -12
70 -17 116 -86 37 -54 48 -64 69 -62 14 2 26 10 28 18 4 24 -100 153 -139 171
-51 25 -126 30 -185 14z"/>
<path d="M24871 12919 c-72 -14 -98 -51 -67 -94 14 -19 15 -19 50 -2 46 21
132 22 269 2 241 -36 457 -88 457 -110 0 -7 -9 -19 -19 -26 -157 -114 -294
-245 -353 -339 -94 -148 -89 -268 20 -426 23 -32 37 -63 33 -67 -4 -4 -104
-15 -222 -23 -118 -8 -230 -18 -249 -22 -53 -13 -82 -31 -78 -50 4 -20 18 -20
328 -5 237 12 312 29 318 70 2 12 -20 57 -56 110 -32 50 -64 111 -71 136 -18
63 -10 152 19 209 34 69 135 174 268 281 64 52 123 101 131 110 31 39 8 92
-53 124 -65 34 -276 81 -498 112 -161 23 -162 23 -227 10z"/>
<path d="M8542 12908 c-35 -45 -63 -336 -77 -819 -6 -194 -5 -231 8 -260 9
-19 17 -47 19 -64 3 -28 6 -30 41 -29 25 1 50 11 75 30 20 16 49 37 64 47 94
60 362 296 409 360 34 47 36 60 10 86 -16 16 -26 17 -63 11 -96 -18 -255 -108
-339 -192 -25 -25 -69 -76 -99 -112 -58 -71 -85 -85 -76 -38 3 15 8 110 11
212 12 341 33 638 51 695 9 29 14 60 11 69 -8 19 -31 21 -45 4z m468 -716 c0
-27 -425 -382 -458 -382 -12 0 26 50 137 178 59 69 137 127 231 174 78 39 90
43 90 30z"/>
<path d="M9860 12870 c-10 -6 -12 -41 -6 -177 3 -92 9 -284 13 -426 4 -185 9
-260 18 -267 24 -20 64 12 116 91 86 131 180 212 225 195 22 -9 14 -57 -29
-168 -58 -147 -112 -222 -201 -282 -53 -36 -117 -36 -136 -1 -20 37 -40 32
-40 -10 0 -52 38 -85 100 -85 58 0 146 49 208 118 42 45 124 198 138 255 3 16
13 31 21 34 7 3 47 -8 89 -23 54 -21 76 -35 79 -49 28 -143 59 -198 144 -257
104 -72 340 -128 480 -114 142 15 230 50 231 92 0 22 -26 22 -106 3 -101 -24
-224 -24 -336 1 -94 21 -228 78 -266 113 -31 29 -68 94 -77 135 l-7 32 47 0
c110 0 270 83 311 162 31 59 7 142 -51 178 -100 62 -251 -25 -327 -187 -17
-35 -35 -63 -41 -63 -7 1 -43 13 -82 28 l-70 27 -6 49 c-17 147 -174 98 -315
-98 -21 -30 -42 -55 -45 -56 -5 0 -18 337 -24 625 -1 44 -3 88 -3 97 -2 22
-34 39 -52 28z m920 -505 c58 -30 64 -74 18 -117 -51 -47 -125 -80 -195 -86
-58 -4 -63 -3 -63 15 0 29 56 109 105 149 36 29 56 40 103 53 2 1 16 -6 32
-14z"/>
<path d="M23395 12870 c-106 -12 -200 -65 -253 -143 -66 -95 -95 -234 -112
-540 -6 -106 -18 -230 -25 -276 -10 -62 -11 -88 -3 -98 21 -26 48 -14 79 35
25 39 29 53 23 82 -11 51 -7 329 6 443 14 123 44 240 76 294 50 87 150 133
288 133 129 0 196 -26 196 -77 0 -59 -55 -100 -279 -213 -179 -89 -225 -126
-236 -189 -11 -66 27 -160 92 -225 90 -90 211 -130 403 -130 96 -1 121 2 144
17 46 31 20 44 -88 45 -166 2 -299 33 -381 90 -68 46 -113 160 -85 212 5 10
91 60 189 111 190 97 268 154 301 220 25 48 25 76 0 116 -43 70 -185 110 -335
93z"/>
<path d="M24060 12813 c-35 -5 -70 -28 -70 -46 0 -6 7 -18 15 -27 13 -15 30
-17 103 -13 73 4 103 1 187 -21 160 -43 236 -69 232 -80 -1 -6 -45 -32 -96
-58 -109 -55 -131 -73 -131 -104 0 -39 48 -81 173 -153 184 -105 247 -163 247
-228 0 -57 -97 -120 -276 -182 -100 -34 -236 -52 -248 -32 -4 6 -16 11 -27 11
-25 0 -26 -51 -1 -72 26 -23 54 -27 136 -18 173 20 416 132 473 219 54 81 10
185 -117 274 -24 18 -94 61 -154 97 -60 36 -111 70 -113 76 -2 6 30 26 71 44
105 45 156 84 156 119 0 57 -66 91 -311 160 -111 31 -191 42 -249 34z"/>
<path d="M20252 12763 c-22 -32 -174 -277 -251 -405 -28 -48 -66 -97 -84 -109
-43 -30 -110 -89 -120 -106 -5 -9 -3 -23 7 -38 15 -22 13 -27 -47 -112 -94
-131 -182 -246 -206 -267 -26 -24 -27 -42 -1 -56 49 -26 77 6 282 315 120 180
146 213 181 231 51 27 288 87 298 77 3 -5 14 -51 23 -103 9 -52 33 -144 53
-205 19 -60 37 -116 39 -123 2 -7 14 -12 26 -10 34 5 34 43 0 150 -34 106 -65
257 -60 290 2 15 13 24 38 31 77 20 75 54 -3 59 l-52 3 -7 40 c-3 22 -12 103
-19 180 -7 82 -17 149 -26 163 -18 30 -48 28 -71 -5z m43 -338 l7 -60 -122
-23 c-68 -12 -125 -21 -127 -18 -4 4 78 138 166 271 l46 69 11 -89 c6 -50 14
-117 19 -150z"/>
<path d="M21163 12668 c-42 -45 -64 -82 -188 -323 -189 -366 -256 -489 -279
-515 -51 -55 -56 -102 -13 -116 16 -5 28 1 52 31 31 36 156 279 323 625 44 91
92 181 107 200 l27 35 -5 -55 c-4 -30 -18 -131 -31 -225 -32 -211 -44 -412
-27 -443 17 -33 56 -45 97 -32 41 14 134 113 203 218 28 42 95 162 149 266
l97 190 6 -275 c3 -151 9 -288 14 -306 9 -41 37 -66 67 -61 26 3 39 38 14 38
-36 0 -39 38 -28 352 13 363 10 388 -43 388 -17 0 -29 -14 -53 -57 -16 -32
-42 -80 -57 -108 -145 -274 -290 -498 -358 -550 -70 -53 -71 -39 -17 338 23
155 42 305 43 333 3 87 -43 111 -100 52z"/>
<path d="M17690 12479 c-279 -8 -351 -16 -377 -42 -15 -14 -15 -18 1 -42 16
-24 22 -26 59 -21 23 3 191 11 372 17 182 6 337 14 345 18 22 12 25 53 4 68
-11 8 -42 12 -78 11 -34 -1 -180 -5 -326 -9z"/>
<path d="M5512 12472 c-22 -15 -9 -45 23 -56 17 -5 168 -10 355 -10 179 -1
369 -5 424 -10 83 -8 98 -7 94 5 -14 44 -243 71 -562 67 -132 -2 -259 1 -281
5 -22 4 -46 4 -53 -1z"/>
<path d="M7460 12445 c-10 -12 -7 -24 15 -62 33 -58 232 -257 297 -298 27 -17
48 -33 48 -36 0 -3 -33 -40 -73 -81 -41 -42 -104 -121 -141 -177 -74 -111 -82
-144 -33 -149 22 -3 31 3 45 28 56 103 233 340 254 340 4 0 27 -14 52 -31 73
-48 250 -137 290 -145 40 -7 60 4 51 27 -3 8 -69 47 -148 87 -78 40 -153 81
-167 92 l-25 21 96 92 c110 105 169 172 169 193 0 26 -47 -7 -180 -126 -69
-61 -131 -114 -137 -117 -27 -11 -343 272 -343 307 0 12 -37 50 -49 50 -5 0
-14 -7 -21 -15z"/>
<path d="M5483 12345 c-8 -24 25 -42 87 -50 30 -4 82 -13 115 -20 33 -7 114
-25 180 -40 145 -32 297 -37 324 -11 25 26 -1 36 -99 36 -81 0 -137 10 -435
74 -138 30 -163 32 -172 11z"/>
<path d="M9286 12320 c-51 -10 -85 -51 -132 -160 -60 -143 -79 -283 -43 -326
13 -16 62 -18 89 -4 41 22 105 169 131 301 6 33 15 62 19 64 4 3 24 -37 45
-88 81 -196 111 -240 165 -240 41 0 73 33 99 100 26 67 26 83 4 83 -11 0 -30
-21 -48 -53 -31 -53 -62 -70 -82 -45 -6 7 -41 87 -78 178 -37 91 -74 173 -82
183 -17 18 -26 19 -87 7z m10 -115 c-18 -116 -103 -305 -138 -305 -22 0 16
179 54 255 22 43 66 95 81 95 5 0 6 -19 3 -45z"/>
<path d="M17147 12313 c-14 -14 -6 -40 21 -65 54 -52 375 -159 666 -224 126
-28 198 -31 216 -9 22 27 4 42 -57 48 -134 14 -594 153 -738 223 -70 34 -95
40 -108 27z"/>
<path d="M11465 2344 c-9 -9 -14 -23 -11 -31 3 -8 6 -17 6 -19 0 -2 11 -4 24
-4 18 0 25 7 29 27 3 16 3 31 0 35 -7 13 -31 9 -48 -8z"/>
</g>
</svg>
