<?xml version="1.0" standalone="no"?>
<!DOCTYPE svg PUBLIC "-//W3C//DTD SVG 20010904//EN"
 "http://www.w3.org/TR/2001/REC-SVG-20010904/DTD/svg10.dtd">
<svg version="1.0" xmlns="http://www.w3.org/2000/svg"
 width="3264.000000pt" height="2448.000000pt" viewBox="0 0 3264.000000 2448.000000"
 preserveAspectRatio="xMidYMid meet">
<metadata>
Created by potrace 1.12, written by Peter Selinger 2001-2015
</metadata>
<g transform="translate(0.000000,2448.000000) scale(0.100000,-0.100000)"
fill="#000000" stroke="none">
<path d="M16296 19978 c-18 -25 -21 -83 -6 -93 5 -3 8 -33 5 -68 -9 -134 -12
-671 -4 -827 7 -151 10 -166 30 -182 12 -10 30 -18 41 -18 19 0 20 4 14 43 -8
49 -18 390 -18 587 2 401 1 547 -4 563 -7 24 -40 21 -58 -5z"/>
<path d="M29390 18410 c-58 -5 -136 -14 -175 -19 -90 -13 -360 -28 -640 -36
-121 -3 -267 -8 -325 -11 -58 -4 -447 -7 -865 -9 -418 -1 -774 -5 -791 -9 -16
-4 -79 -2 -140 5 -60 6 -116 11 -124 10 -8 -1 -170 -3 -360 -5 -190 -2 -466
-9 -615 -15 -148 -6 -310 -11 -360 -12 -49 0 -128 -4 -175 -9 -149 -15 -286
-21 -645 -25 -418 -6 -583 -12 -688 -26 -43 -5 -155 -12 -250 -14 -95 -2 -219
-8 -277 -14 -58 -6 -215 -13 -350 -16 -135 -4 -292 -8 -350 -11 -102 -5 -575
-13 -775 -14 -109 -1 -727 -19 -865 -26 -47 -2 -116 -8 -155 -14 -38 -5 -115
-9 -170 -9 -55 1 -128 -4 -161 -10 -34 -6 -115 -13 -180 -15 -66 -2 -202 -9
-304 -15 -280 -17 -752 -29 -1630 -42 -79 -1 -314 -2 -505 -2 -260 0 -1300 13
-1355 17 -170 10 -368 18 -460 17 -58 0 -334 -3 -615 -6 -280 -3 -694 -5 -920
-5 -485 1 -410 2 -580 -4 -77 -3 -156 -5 -175 -4 -152 4 -459 -8 -540 -21 -30
-5 -58 -7 -62 -5 -3 2 -77 -1 -165 -7 -87 -6 -196 -12 -243 -14 -280 -13 -421
-22 -725 -45 -82 -7 -202 -13 -265 -16 -63 -2 -144 -6 -180 -9 -36 -4 -243 -8
-460 -11 -767 -9 -1038 -16 -1140 -31 -25 -3 -94 -7 -155 -8 -60 -2 -237 -9
-392 -17 -278 -15 -320 -15 -658 10 -66 5 -169 5 -230 1 -60 -4 -181 -8 -268
-8 -180 -1 -184 -3 -148 -75 11 -24 21 -54 21 -68 0 -14 16 -55 35 -92 19 -37
35 -76 35 -87 0 -11 13 -55 29 -97 15 -42 34 -93 40 -112 13 -37 85 -322 120
-475 11 -49 32 -130 46 -180 51 -179 78 -281 92 -350 8 -38 23 -106 34 -150
20 -78 25 -139 65 -746 15 -226 14 -316 -2 -529 -8 -111 -1 -838 10 -1115 3
-71 6 -173 7 -225 0 -110 9 -183 39 -335 12 -60 23 -139 25 -175 2 -36 13
-112 24 -170 12 -63 22 -168 26 -265 4 -135 8 -162 22 -172 27 -20 145 -16
214 7 33 11 81 23 107 26 26 3 58 10 72 14 14 5 59 11 101 14 42 3 83 8 93 12
9 3 32 3 52 -1 35 -6 36 -7 29 -43 -12 -65 -15 -395 -5 -462 22 -136 38 -300
45 -437 l7 -143 -49 6 c-65 8 -281 65 -356 93 -29 11 -240 1 -447 -20 -58 -7
-132 -10 -165 -9 -33 2 -105 4 -160 5 -55 0 -124 6 -154 13 -75 17 -266 15
-327 -2 -27 -8 -71 -18 -99 -21 -27 -4 -71 -13 -98 -22 -29 -9 -62 -12 -85 -8
-24 4 -55 0 -83 -9 -79 -27 -226 -40 -287 -25 -45 10 -65 10 -138 -4 -47 -9
-90 -14 -96 -11 -5 3 -75 8 -156 11 -81 2 -169 5 -197 6 -44 2 -51 -1 -64 -25
-14 -24 -14 -29 -1 -42 12 -12 55 -15 235 -16 322 -1 540 6 625 20 41 7 109
14 150 16 41 1 87 7 102 13 15 6 58 13 95 17 38 4 80 13 94 20 34 17 193 20
299 6 140 -19 458 -26 509 -12 26 7 131 13 243 15 157 3 207 1 240 -11 78 -27
198 -54 246 -56 69 -1 120 -16 132 -38 15 -28 58 -26 69 3 5 12 7 26 4 30 -6
11 -21 178 -28 329 -4 68 -13 177 -21 243 -27 211 -31 287 -25 410 l6 120 185
1 c102 0 201 -3 221 -8 21 -5 125 -10 234 -12 108 -2 199 -6 202 -10 6 -6 5
-445 -1 -455 -5 -7 -8 -336 -7 -751 0 -157 -2 -321 -4 -365 -4 -81 -13 -400
-20 -705 -3 -91 -7 -197 -10 -235 -6 -77 -5 -523 1 -595 2 -25 8 -101 13 -170
5 -69 14 -143 20 -165 7 -22 14 -85 17 -140 3 -55 7 -105 9 -112 3 -9 83 -11
327 -8 178 3 334 7 348 10 36 8 289 19 400 18 123 -1 809 -14 965 -17 66 -2
174 -8 240 -14 66 -6 152 -14 190 -17 39 -3 88 -8 110 -11 22 -3 105 -7 185
-9 80 -3 190 -9 245 -15 185 -19 418 -32 652 -35 128 -2 237 -6 242 -9 18 -11
608 -16 741 -6 74 6 189 15 255 20 207 16 276 20 425 25 80 3 181 7 225 10
142 9 455 9 635 0 96 -4 198 -9 225 -10 67 -3 264 12 345 26 36 7 119 13 185
15 66 1 163 10 215 20 121 22 242 27 353 17 123 -12 240 5 372 56 44 17 91 31
104 31 39 0 131 103 131 146 0 18 5 36 10 39 6 3 10 19 10 35 0 16 5 41 10 55
13 35 14 230 0 274 -8 28 -7 38 6 52 8 9 15 25 14 35 -2 62 2 114 11 147 7 27
7 48 0 69 -8 23 -7 42 5 80 11 32 14 64 10 94 -3 27 -1 54 5 66 9 16 8 35 -1
75 -9 40 -9 57 0 68 21 26 63 505 46 533 -3 5 -1 24 4 43 9 33 17 179 26 494
2 82 9 176 14 209 5 32 6 66 2 75 -4 9 -6 50 -4 91 1 41 2 83 2 93 -2 29 -1
88 2 180 4 116 13 122 153 92 52 -11 80 -12 115 -4 25 6 63 8 85 5 47 -6 165
5 360 32 230 33 729 47 1025 30 76 -4 172 -3 220 2 47 5 141 12 210 16 69 3
135 10 148 15 13 5 47 9 76 9 29 0 147 9 262 20 115 10 284 24 374 30 91 5
255 16 365 24 233 16 291 18 845 20 412 2 437 1 615 -34 81 -16 89 -24 81 -80
-4 -25 -11 -79 -16 -120 -4 -41 -13 -103 -19 -137 -16 -91 -17 -768 -2 -933 6
-58 13 -141 16 -185 3 -44 8 -103 11 -132 3 -30 1 -61 -6 -72 -8 -16 -8 -27 1
-42 6 -12 15 -105 20 -207 10 -192 7 -212 -31 -212 -21 0 -50 -31 -50 -53 0
-21 34 -31 60 -17 12 7 24 10 26 7 2 -2 9 -64 14 -137 6 -73 13 -137 16 -141
8 -14 52 -11 82 5 27 14 76 24 242 50 47 7 103 19 125 25 58 16 513 81 710
101 44 4 168 17 275 28 107 11 281 26 385 32 105 7 193 14 197 16 3 2 80 9
170 14 456 28 623 38 718 46 25 2 191 6 370 9 697 10 983 15 989 19 3 2 92 7
196 10 105 3 231 9 280 11 50 3 160 -1 245 -8 85 -8 161 -11 169 -9 18 7 8 77
-15 103 -15 16 -17 44 -20 191 -1 114 -10 221 -24 312 -11 77 -23 142 -24 145
-2 3 -9 155 -15 336 -13 354 -14 373 -35 540 -8 61 -17 155 -20 210 -10 145
-31 306 -56 425 -6 25 -12 97 -15 160 -3 63 -8 135 -10 160 -4 43 -10 154 -20
415 -8 187 -33 419 -64 585 -36 196 -44 285 -36 419 5 75 9 168 10 206 1 75
16 131 46 182 18 28 18 32 4 47 -14 14 -67 22 -115 18 -8 -1 -195 4 -415 10
-380 11 -789 13 -804 3 -4 -2 -59 -5 -122 -6 -63 0 -132 -7 -154 -14 -22 -7
-71 -15 -110 -19 -38 -3 -137 -15 -220 -26 -82 -11 -195 -25 -250 -30 -55 -5
-129 -14 -165 -19 -36 -6 -112 -15 -170 -21 -58 -6 -123 -15 -145 -20 -22 -5
-85 -14 -140 -20 -55 -6 -115 -13 -132 -15 -179 -23 -668 -65 -833 -71 -63 -2
-203 -8 -310 -14 -107 -6 -251 -12 -320 -14 -76 -2 -141 -10 -165 -19 -22 -8
-53 -18 -68 -23 -25 -8 -32 -20 -58 -99 -16 -49 -29 -97 -29 -106 0 -9 -6 -39
-14 -65 -55 -191 -59 -253 -45 -746 6 -210 4 -235 -36 -465 -8 -45 -15 -96
-15 -113 0 -17 -6 -46 -14 -65 -8 -19 -18 -90 -22 -165 -4 -72 -11 -133 -17
-137 -5 -3 -42 1 -81 10 -136 31 -202 37 -356 36 -85 -1 -257 -1 -382 1 -125
1 -231 -1 -235 -3 -4 -3 -115 -8 -247 -11 -131 -3 -241 -8 -245 -10 -8 -5
-145 -15 -301 -22 -63 -3 -131 -7 -150 -9 -19 -3 -93 -9 -164 -14 -71 -6 -141
-12 -155 -15 -14 -3 -71 -8 -126 -11 -55 -3 -136 -10 -180 -15 -230 -29 -390
-34 -775 -25 -243 6 -574 -8 -830 -36 -231 -24 -433 -37 -530 -32 -82 4 -91 4
-135 1 -30 -3 -30 -3 -28 47 9 253 16 356 24 390 6 22 12 90 15 150 9 220 11
271 18 340 3 39 7 103 8 143 1 40 5 75 10 78 4 3 8 45 8 94 0 48 7 152 15 231
9 79 18 239 20 354 9 377 18 510 40 544 6 11 18 375 15 493 -1 71 2 102 13
120 11 16 12 30 6 46 l-9 23 -167 -6 c-93 -3 -217 -10 -278 -16 -60 -5 -157
-14 -215 -19 -109 -10 -378 -18 -875 -25 -159 -2 -382 -9 -495 -14 -113 -6
-295 -11 -405 -11 -110 0 -256 -7 -325 -14 -69 -8 -190 -18 -270 -21 -223 -8
-582 -39 -602 -51 -4 -2 -73 -9 -155 -15 -81 -5 -209 -14 -283 -20 -221 -18
-624 -26 -670 -14 -14 3 -90 1 -170 -6 -226 -18 -807 -24 -904 -10 -33 6 -214
12 -401 16 -187 3 -401 8 -475 12 -74 4 -157 6 -185 6 -334 -6 -1092 4 -1290
17 -354 23 -444 24 -451 6 -8 -21 10 -42 44 -50 15 -4 92 -11 172 -16 80 -5
217 -14 305 -20 88 -6 387 -11 665 -11 278 0 629 -4 780 -9 151 -5 393 -12
536 -15 144 -3 299 -10 345 -16 96 -12 619 -5 764 11 50 6 209 9 355 8 261 -3
639 13 815 33 50 6 137 15 195 19 58 5 132 14 165 20 88 16 551 47 825 55 58
2 206 9 330 15 124 6 349 13 500 16 151 2 358 6 460 8 102 3 304 8 450 11 146
3 321 12 390 20 69 7 179 16 244 19 66 4 137 9 159 13 l40 6 -7 -259 c-4 -142
-14 -308 -21 -369 -14 -112 -22 -256 -30 -585 -3 -102 -9 -208 -14 -235 -5
-28 -12 -102 -16 -165 -3 -63 -10 -155 -15 -205 -5 -49 -12 -162 -15 -250 -5
-138 -20 -347 -42 -601 -3 -38 -7 -112 -8 -164 -2 -52 -10 -178 -18 -280 -9
-102 -18 -300 -21 -440 -3 -140 -10 -331 -16 -425 -5 -93 -12 -255 -14 -360
-4 -185 -17 -337 -36 -423 -6 -23 -10 -85 -10 -136 0 -52 -4 -128 -10 -168 -5
-40 -12 -107 -15 -148 -3 -41 -10 -129 -15 -195 -16 -198 -20 -264 -24 -391
-5 -170 -37 -227 -141 -254 -27 -7 -75 -21 -105 -32 -88 -31 -224 -48 -305
-38 -105 14 -238 12 -329 -5 -144 -26 -253 -38 -297 -32 -24 3 -75 0 -114 -8
-84 -16 -454 -40 -488 -31 -14 3 -82 8 -153 11 -71 3 -168 8 -215 10 -48 3
-98 1 -113 -5 -15 -5 -44 -6 -69 -1 -24 4 -107 4 -183 -1 -76 -5 -182 -11
-234 -13 -89 -4 -261 -14 -340 -21 -19 -1 -89 -5 -155 -9 -66 -4 -163 -10
-215 -15 -101 -8 -652 -6 -667 3 -4 3 -127 8 -273 12 -345 10 -404 12 -530 23
-122 11 -349 28 -570 42 -85 5 -227 16 -315 24 -295 26 -1281 41 -1495 23 -69
-6 -201 -12 -295 -14 -166 -2 -198 -2 -340 1 l-70 1 -7 100 c-3 55 -13 132
-21 170 -9 39 -15 95 -15 125 1 30 -5 115 -11 188 -12 124 -9 496 5 667 2 33
6 200 8 370 3 171 9 387 15 480 8 136 8 577 0 670 -1 11 2 112 5 225 13 386
16 505 18 640 2 197 -9 514 -21 600 -6 41 -11 100 -11 131 0 31 -4 69 -10 85
-5 16 -11 56 -14 89 -2 33 -9 89 -15 125 -22 129 -50 377 -56 490 -4 63 -11
131 -16 150 -7 29 -24 306 -22 360 5 117 13 220 18 238 5 15 3 22 -6 22 -32
-1 -42 -21 -55 -111 -13 -89 -19 -390 -9 -454 3 -16 10 -79 15 -140 8 -94 16
-163 35 -340 2 -16 11 -79 19 -139 9 -60 16 -132 16 -160 0 -28 5 -67 11 -86
13 -42 25 -155 38 -345 11 -165 21 -462 16 -467 -3 -2 -39 0 -82 4 -227 24
-376 32 -542 30 -183 -3 -184 -3 -221 23 -34 23 -44 25 -111 21 -41 -2 -112
-10 -159 -16 -47 -6 -92 -12 -100 -12 -39 -1 -118 -22 -146 -39 -21 -13 -50
-19 -87 -19 -74 0 -89 15 -86 89 3 88 -10 237 -30 351 -11 58 -24 146 -31 195
-6 50 -20 128 -30 175 -35 153 -51 919 -37 1720 4 242 2 356 -8 445 -7 66 -16
183 -19 260 -7 169 -22 332 -36 400 -6 28 -17 93 -25 145 -9 52 -22 112 -29
135 -8 22 -28 94 -46 160 -17 66 -40 152 -51 190 -11 39 -27 102 -36 140 -9
39 -27 113 -41 165 -13 52 -29 118 -35 145 -14 69 -69 232 -134 402 -30 78
-53 150 -51 160 3 15 13 18 58 17 30 -1 144 3 252 7 128 6 242 5 325 -2 150
-12 501 -15 658 -5 196 12 498 28 581 31 44 1 108 5 142 9 33 4 114 6 179 6
65 -1 127 -1 138 -1 11 1 193 3 405 5 413 5 816 20 970 36 53 5 105 7 116 4
12 -3 59 1 106 9 47 8 96 13 110 10 14 -3 130 2 259 11 129 9 288 18 354 21
66 3 134 7 150 10 17 3 75 7 130 10 55 3 179 10 275 16 282 16 2806 28 3010
14 93 -7 1233 -19 1640 -18 451 2 1121 10 1335 17 83 3 267 8 410 11 143 3
287 10 320 15 33 5 122 11 199 15 76 3 142 8 147 11 4 2 77 9 161 14 84 5 223
14 308 20 152 11 323 15 885 25 154 3 327 7 385 9 58 2 147 0 199 -4 56 -5
102 -5 111 0 10 5 109 12 221 14 283 7 503 15 574 21 33 3 128 7 210 11 83 3
173 10 202 15 28 6 73 10 100 10 26 0 118 4 203 9 85 5 236 9 335 10 99 0 261
2 360 5 169 4 240 8 410 20 39 3 192 10 340 15 149 6 351 14 449 20 99 5 183
7 187 5 6 -4 206 -5 1064 -3 28 0 232 -1 455 -1 437 -1 921 5 1145 15 77 4
221 7 320 9 215 2 406 13 456 26 46 12 292 32 379 32 245 -2 634 -18 747 -31
39 -4 80 -5 90 -2 10 4 74 6 143 6 l125 -1 0 -80 c0 -44 -4 -120 -8 -170 -12
-135 -22 -380 -18 -465 2 -41 3 -145 3 -230 0 -85 -1 -220 -2 -300 0 -108 5
-172 20 -250 54 -277 88 -742 70 -961 -30 -362 -32 -933 -5 -1479 5 -90 38
-466 50 -555 52 -401 64 -548 64 -767 0 -113 5 -247 11 -299 5 -52 12 -121 15
-154 3 -33 9 -75 14 -93 6 -18 6 -43 2 -54 l-8 -21 -699 -3 c-384 -2 -771 -8
-859 -13 -88 -6 -187 -12 -220 -14 -33 -2 -152 -11 -265 -20 -113 -9 -269 -21
-347 -27 -169 -13 -228 -27 -228 -55 0 -28 64 -43 110 -26 20 7 105 15 193 17
86 3 164 8 172 11 8 3 69 9 135 14 66 4 170 13 230 20 151 16 204 17 1080 23
424 3 773 5 778 6 12 0 8 39 -7 63 -11 18 -29 172 -28 247 0 8 -4 47 -10 85
-5 39 -11 191 -13 339 -2 148 -7 281 -10 295 -16 78 -66 543 -72 676 -3 66
-10 128 -15 139 -6 10 -12 116 -15 235 -2 119 -8 272 -12 341 -4 69 -6 215 -4
325 2 110 5 279 7 375 2 96 7 225 12 285 16 195 9 382 -31 870 -7 75 -22 160
-33 181 -9 19 -23 167 -23 259 0 96 13 410 17 417 3 4 -2 27 -10 51 -8 24 -13
57 -10 73 2 16 6 108 8 204 2 96 9 207 15 245 6 39 10 86 9 105 -5 81 2 117
33 164 38 57 29 77 -22 50 -30 -16 -61 -18 -254 -19 -121 0 -328 5 -460 12
-363 19 -539 22 -655 13z m-1600 -4047 c102 -2 194 -5 205 -6 11 -1 29 2 40 6
11 3 26 3 34 -2 11 -7 10 -20 -9 -72 -20 -59 -22 -83 -22 -309 -1 -221 2 -259
25 -390 14 -80 33 -217 42 -305 9 -88 20 -187 25 -220 4 -33 9 -114 9 -180 1
-66 5 -167 10 -225 6 -58 12 -144 16 -192 9 -136 15 -198 25 -263 18 -116 39
-301 50 -445 10 -133 17 -205 25 -285 5 -48 26 -418 31 -560 2 -71 16 -213 30
-313 14 -101 29 -261 33 -355 4 -95 11 -179 15 -188 11 -25 -40 -29 -143 -12
-89 15 -187 14 -531 -7 -252 -16 -329 -18 -885 -24 -291 -4 -541 -9 -555 -12
-14 -3 -74 -8 -135 -11 -60 -2 -144 -6 -185 -7 -41 -2 -145 -9 -230 -15 -85
-7 -202 -14 -260 -17 -58 -2 -134 -9 -170 -14 -36 -6 -128 -12 -205 -15 -77
-2 -178 -9 -225 -15 -47 -6 -132 -15 -190 -20 -220 -20 -296 -29 -340 -38 -25
-6 -81 -13 -125 -17 -116 -11 -111 -11 -225 -29 -58 -10 -136 -21 -173 -26
-38 -6 -72 -12 -77 -15 -5 -3 -42 -10 -82 -15 -142 -19 -203 -30 -241 -45 -20
-8 -39 -15 -41 -15 -5 0 -17 91 -22 172 -6 80 7 99 86 122 30 9 78 36 114 64
34 27 72 53 84 56 12 4 22 11 22 15 0 4 17 15 39 24 37 17 103 68 207 161 28
25 56 46 61 46 6 0 18 -11 27 -24 14 -22 20 -24 48 -16 32 10 48 25 48 48 0
23 -45 59 -84 66 -34 7 -84 35 -217 122 -19 13 -40 24 -46 24 -7 0 -55 36
-109 80 -53 45 -127 96 -164 115 -38 19 -71 39 -75 45 -10 16 -45 12 -52 -6
-8 -22 70 -99 132 -130 28 -13 84 -54 125 -89 41 -36 96 -76 121 -89 26 -13
79 -45 119 -71 71 -46 71 -47 53 -68 -29 -35 -57 -57 -74 -57 -8 0 -33 -15
-55 -33 -21 -18 -70 -52 -109 -76 -38 -24 -94 -60 -124 -80 -30 -20 -59 -39
-65 -42 -28 -16 -114 -59 -119 -59 -3 0 -6 53 -7 118 0 64 -2 153 -5 197 -13
231 -26 413 -31 437 -7 35 3 68 22 68 18 0 18 1 -12 57 l-25 48 5 365 c4 244
11 403 21 480 8 63 22 189 30 280 14 165 41 391 50 420 2 8 16 85 31 170 30
176 43 411 31 545 -16 174 -14 424 5 490 28 103 57 219 62 250 17 109 13 101
69 125 46 20 67 23 177 22 69 -1 163 3 210 8 74 9 210 17 400 25 230 9 498 29
605 45 33 5 107 12 165 15 58 4 121 11 140 16 19 5 53 9 75 9 22 0 78 7 125
15 47 9 110 20 141 25 30 6 86 10 125 10 38 0 94 7 124 15 30 8 79 15 108 15
51 0 140 11 247 30 66 12 256 30 435 41 80 5 172 14 205 19 57 8 526 5 935 -7z"/>
<path d="M25246 13555 c-9 -9 -19 -28 -22 -43 -7 -29 -78 -152 -124 -217 -16
-22 -38 -59 -50 -82 -12 -24 -25 -43 -29 -43 -13 0 -56 -70 -90 -148 -42 -96
-37 -120 33 -167 29 -19 68 -41 88 -49 40 -17 168 -28 343 -30 66 -1 126 -5
133 -10 15 -9 12 -53 -14 -186 -23 -119 -43 -343 -33 -362 5 -9 19 -20 31 -24
34 -10 48 19 49 105 0 42 4 108 9 146 36 267 41 294 51 301 4 2 28 -1 54 -7
36 -9 48 -9 61 2 15 12 14 15 -6 31 -12 10 -39 22 -61 28 -39 11 -39 11 -39
61 0 27 7 66 15 86 10 24 15 70 15 142 0 58 5 123 11 144 5 21 16 79 24 128 7
50 17 95 23 101 5 5 19 5 36 -2 21 -8 28 -7 32 5 14 36 -33 73 -78 61 -47 -12
-76 -48 -83 -101 -3 -27 -10 -79 -15 -115 -5 -36 -17 -135 -25 -220 -8 -85
-18 -177 -21 -204 l-7 -48 -61 6 c-34 3 -128 10 -211 16 -82 5 -166 14 -185
18 -52 14 -120 52 -120 69 0 22 68 155 95 183 12 14 32 43 43 65 11 22 29 49
41 59 23 21 91 147 91 169 0 7 9 30 21 51 32 61 14 120 -25 81z"/>
<path d="M20125 13708 c-60 -5 -115 -10 -121 -10 -7 -1 -45 -17 -85 -37 -86
-42 -96 -65 -39 -93 43 -21 56 -22 41 -4 -35 42 133 78 356 77 100 0 110 -2
179 -35 40 -19 77 -43 82 -53 14 -25 -12 -55 -69 -80 -24 -11 -60 -36 -80 -55
-39 -39 -70 -58 -94 -58 -9 0 -32 -12 -51 -26 -24 -19 -34 -34 -34 -54 0 -32
24 -43 115 -54 189 -24 312 -91 345 -190 10 -31 9 -45 -6 -89 -23 -64 -41 -90
-98 -134 -39 -30 -60 -38 -153 -54 -123 -21 -225 -24 -252 -7 -28 17 -53 3
-49 -29 6 -50 41 -58 213 -45 203 14 235 26 321 112 61 62 70 76 81 127 18 84
16 122 -10 174 -33 68 -57 93 -121 129 -55 31 -94 42 -205 59 -25 3 -46 12
-49 19 -2 6 2 12 8 12 6 0 26 15 44 33 18 19 59 44 91 58 43 18 68 37 97 72
42 54 45 65 24 105 -22 42 -56 68 -127 96 -58 23 -185 48 -229 44 -8 0 -64 -5
-125 -10z"/>
<path d="M13535 13080 c-63 -7 -141 -42 -230 -104 -27 -19 -67 -44 -88 -56
-69 -38 -121 -205 -71 -224 9 -4 23 -1 31 5 11 10 11 14 -2 29 -22 25 -18 47
13 67 15 9 61 46 102 81 81 69 127 93 232 123 109 31 204 22 245 -23 40 -43
31 -150 -21 -263 -13 -27 -27 -61 -31 -75 -4 -14 -19 -39 -32 -56 -13 -18 -28
-45 -32 -61 -11 -39 -199 -325 -287 -436 -108 -137 -164 -224 -164 -253 0 -29
29 -84 45 -84 9 0 26 -5 38 -12 30 -17 190 -18 257 -1 30 7 107 28 170 47 164
49 347 90 405 90 43 1 51 4 65 29 14 27 14 29 -9 48 -25 21 -57 24 -93 10 -13
-5 -43 -14 -68 -21 -25 -6 -58 -16 -75 -21 -16 -6 -58 -14 -92 -19 -34 -4 -77
-15 -95 -25 -59 -30 -220 -63 -334 -69 -103 -6 -112 -5 -129 15 -16 16 -17 23
-7 37 7 9 19 31 26 47 8 17 38 58 68 92 68 79 120 149 134 183 7 15 25 42 41
61 40 45 144 204 167 254 10 22 31 59 47 83 16 24 29 50 29 58 0 8 10 34 22
57 28 55 48 162 45 239 -3 58 -5 63 -44 98 -62 55 -132 67 -278 50z"/>
<path d="M4932 12534 c-26 -12 -32 -41 -16 -80 10 -24 19 -94 25 -198 9 -162
24 -300 35 -317 8 -13 41 -11 72 5 15 7 63 18 107 24 71 10 84 9 125 -9 44
-20 130 -111 130 -139 0 -7 14 -28 31 -48 30 -34 31 -37 26 -106 -7 -92 -20
-154 -38 -188 -112 -210 -144 -245 -260 -283 -30 -10 -66 -24 -81 -31 -15 -8
-66 -15 -114 -17 -71 -2 -89 -6 -98 -20 -19 -31 24 -57 95 -57 69 0 271 65
331 107 67 46 187 251 219 372 33 127 24 209 -28 274 -12 15 -29 43 -38 61 -8
17 -37 54 -63 82 -75 78 -162 99 -294 72 -40 -8 -61 -9 -68 -2 -6 6 -15 83
-20 171 -4 89 -13 170 -19 182 -6 11 -9 32 -5 47 5 21 11 24 28 19 11 -4 75
-11 141 -15 66 -5 156 -11 200 -14 44 -3 114 -1 155 4 41 5 113 12 160 15 104
7 127 13 134 31 10 25 -43 41 -124 38 -227 -10 -446 -11 -466 -4 -12 5 -62 11
-111 14 -48 3 -104 7 -123 10 -19 3 -41 3 -48 0z"/>
<path d="M21725 11000 c-3 -5 -1 -10 4 -10 6 0 11 5 11 10 0 6 -2 10 -4 10 -3
0 -8 -4 -11 -10z"/>
<path d="M22008 10452 c-33 -4 -42 -15 -56 -72 -26 -104 -35 -280 -22 -425 22
-245 25 -308 18 -410 -4 -63 0 -160 9 -260 8 -88 14 -210 14 -270 -1 -61 3
-133 9 -160 17 -80 38 -215 45 -280 12 -117 20 -440 13 -505 -10 -94 -10 -241
2 -382 16 -194 29 -393 50 -758 7 -129 17 -219 26 -244 8 -21 13 -41 10 -43
-2 -3 -53 -6 -113 -9 -59 -2 -171 -8 -248 -14 -77 -6 -221 -10 -320 -10 -99 1
-189 1 -200 1 -11 0 -137 3 -280 7 -248 6 -707 7 -920 2 -55 -2 -145 1 -200 6
-55 4 -134 8 -175 7 -711 -14 -779 -17 -809 -32 -11 -6 -33 -11 -50 -11 -27 0
-61 -21 -61 -39 0 -4 9 -16 19 -25 19 -17 23 -17 88 -1 77 20 335 28 753 25
256 -3 411 -3 820 -2 395 1 1010 -6 1070 -13 48 -6 99 -2 325 22 73 7 230 7
305 -2 71 -7 98 6 87 42 -3 10 -15 43 -25 73 -15 43 -21 97 -26 230 -4 96 -10
207 -13 245 -4 39 -6 93 -5 120 1 28 -3 86 -8 130 -5 44 -12 136 -15 205 -3
69 -10 158 -16 199 -6 50 -6 117 1 200 8 89 8 195 1 356 -12 264 -16 306 -36
395 -20 94 -34 222 -34 320 1 104 -7 226 -20 294 -5 29 -6 108 -1 186 7 120
-1 311 -15 380 -13 64 -15 226 -3 334 l12 119 81 -7 c176 -15 302 -27 335 -31
19 -3 89 -5 155 -4 66 1 163 2 215 3 313 3 335 5 358 26 12 12 22 27 22 36 0
13 -28 14 -212 9 -403 -9 -512 -9 -535 3 -12 7 -51 12 -86 12 -35 0 -102 7
-148 15 -78 13 -122 15 -191 7z"/>
<path d="M17565 7203 c-10 -15 -50 -66 -89 -113 -39 -47 -75 -92 -81 -101 -5
-9 -28 -42 -50 -73 -61 -88 -103 -163 -130 -230 -14 -34 -51 -114 -84 -178
-65 -129 -84 -185 -100 -298 -23 -161 -17 -208 34 -296 15 -25 24 -51 22 -58
-3 -8 31 -51 76 -98 69 -71 96 -92 168 -126 47 -23 105 -48 130 -58 55 -20
178 -35 201 -23 9 5 38 9 65 9 26 0 68 5 93 11 64 15 184 74 228 113 20 19 55
50 78 70 57 50 84 123 84 229 0 67 -4 87 -24 121 -53 90 -164 144 -343 165
-80 10 -85 9 -158 -20 -41 -16 -90 -38 -107 -48 -18 -10 -54 -24 -80 -31 -26
-7 -55 -21 -64 -31 -9 -11 -23 -19 -29 -19 -7 0 -31 -18 -53 -40 -23 -21 -60
-48 -84 -59 -24 -10 -61 -33 -82 -50 -21 -17 -43 -31 -48 -31 -18 0 -50 95
-51 150 -2 105 64 338 122 432 17 27 31 57 31 66 0 10 6 27 14 38 8 11 33 57
56 102 23 45 46 84 50 87 4 2 13 24 20 49 8 28 21 48 36 57 14 7 34 29 46 48
12 20 39 57 60 82 21 25 38 48 38 51 0 3 18 24 41 46 46 46 49 75 8 80 -19 2
-31 -4 -44 -25z m395 -1018 c53 -14 128 -61 159 -100 23 -31 36 -116 26 -176
-5 -29 -20 -55 -47 -85 -43 -47 -164 -131 -207 -144 -14 -4 -42 -15 -61 -23
-19 -8 -80 -20 -135 -27 -90 -11 -107 -11 -160 5 -33 9 -76 25 -95 35 -19 10
-60 28 -91 40 -59 22 -169 120 -169 149 1 28 25 50 96 87 38 19 80 46 94 59
34 31 136 95 152 95 14 0 124 54 144 71 7 6 25 14 41 19 41 13 198 10 253 -5z"/>
</g>
</svg>
