<?xml version="1.0" standalone="no"?>
<!DOCTYPE svg PUBLIC "-//W3C//DTD SVG 20010904//EN"
 "http://www.w3.org/TR/2001/REC-SVG-20010904/DTD/svg10.dtd">
<svg version="1.0" xmlns="http://www.w3.org/2000/svg"
 width="3264.000000pt" height="2448.000000pt" viewBox="0 0 3264.000000 2448.000000"
 preserveAspectRatio="xMidYMid meet">
<metadata>
Created by potrace 1.12, written by Peter Selinger 2001-2015
</metadata>
<g transform="translate(0.000000,2448.000000) scale(0.100000,-0.100000)"
fill="#000000" stroke="none">
<path d="M18175 24470 c3 -6 49 -10 103 -10 53 0 160 -5 237 -10 220 -15 652
-42 740 -45 133 -6 764 -34 1220 -55 237 -11 516 -25 620 -32 105 -6 210 -11
235 -12 55 0 1282 -52 1580 -66 118 -6 310 -15 425 -20 597 -27 878 -40 950
-45 44 -2 134 -7 200 -10 361 -16 586 -27 715 -35 80 -5 199 -12 265 -15 285
-13 933 -46 1079 -55 87 -5 162 -8 166 -5 4 2 70 0 146 -5 76 -5 200 -11 274
-14 74 -3 180 -8 235 -11 164 -9 539 -24 710 -30 88 -3 192 -8 230 -10 98 -8
577 -25 840 -31 121 -2 252 -7 290 -9 85 -6 265 -13 520 -20 105 -3 327 -10
495 -15 168 -5 379 -12 470 -15 91 -2 212 -7 270 -10 58 -3 190 -7 294 -10
103 -3 191 -7 195 -9 6 -4 194 -11 591 -21 80 -2 196 -7 258 -10 l112 -7 0 25
c0 35 -2 35 -485 52 -49 2 -128 6 -175 9 -154 10 -515 25 -750 32 -187 5 -348
11 -575 20 -93 4 -222 8 -285 9 -63 1 -180 5 -260 9 -80 4 -219 9 -310 12 -91
2 -232 6 -315 9 -82 3 -202 7 -265 9 -63 2 -230 9 -370 15 -140 6 -367 16
-505 22 -137 6 -284 12 -325 14 -41 2 -140 6 -220 9 -80 3 -181 8 -225 11 -44
3 -154 8 -245 11 -91 3 -168 8 -172 10 -4 3 -5 11 -2 19 3 7 -3 18 -14 24 -17
9 -26 6 -51 -15 l-30 -25 -213 11 c-117 6 -319 15 -448 20 -129 5 -260 12
-290 15 -30 3 -116 7 -190 10 -74 3 -211 10 -305 15 -93 6 -213 12 -265 15
-52 2 -232 11 -400 20 -599 30 -710 35 -1135 55 -562 26 -1392 65 -1775 85
-168 8 -579 29 -915 45 -1705 84 -1598 80 -2298 80 -436 0 -656 -3 -652 -10z"/>
<path d="M15440 24210 c0 -5 5 -10 10 -10 6 0 10 5 10 10 0 6 -4 10 -10 10 -5
0 -10 -4 -10 -10z"/>
<path d="M5999 23610 c-44 -44 -79 -86 -79 -93 0 -8 -7 -20 -16 -28 -25 -20
-86 -148 -82 -172 2 -16 10 -22 27 -22 25 0 36 14 121 150 41 65 102 120 174
155 82 40 73 90 -17 90 -49 0 -51 -1 -128 -80z"/>
<path d="M3575 23548 c-2 -7 -8 -26 -13 -43 -8 -28 -13 -31 -112 -52 -119 -26
-203 -68 -208 -104 -8 -48 66 -66 118 -29 39 28 115 50 173 50 26 0 62 7 79
16 23 12 82 19 222 26 140 8 198 14 215 26 l25 15 -21 17 c-28 23 -187 33
-306 21 -97 -11 -117 -8 -117 19 0 32 -12 50 -31 50 -11 0 -21 -6 -24 -12z"/>
<path d="M15097 23546 c-7 -19 18 -40 39 -32 8 3 14 14 12 23 -4 22 -43 29
-51 9z"/>
<path d="M15695 23521 c-42 -19 -183 -169 -212 -226 -9 -16 -35 -57 -58 -90
-23 -33 -52 -87 -65 -120 -13 -33 -29 -67 -36 -75 -7 -8 -22 -40 -34 -70 -12
-30 -29 -63 -37 -72 -10 -11 -13 -26 -9 -42 4 -16 -2 -38 -19 -68 -45 -78 -22
-140 28 -75 36 49 49 76 42 96 -3 11 3 25 15 36 11 10 20 26 20 35 0 10 7 23
15 30 9 7 15 20 13 29 -2 15 21 77 42 111 5 8 25 40 43 70 35 57 94 137 187
253 43 53 67 74 117 97 44 21 63 36 63 49 0 41 -58 58 -115 32z"/>
<path d="M10283 23378 c-12 -13 -25 -36 -29 -53 -12 -51 -54 -126 -129 -231
-89 -122 -125 -192 -125 -238 0 -45 24 -61 105 -71 150 -19 145 -17 174 -60
38 -56 81 -78 151 -78 62 0 125 27 125 54 0 11 -18 14 -86 14 -71 0 -91 3
-108 19 -12 11 -21 23 -21 27 0 4 37 25 83 47 107 51 157 103 157 166 0 61
-40 96 -110 96 -105 0 -179 -64 -201 -175 l-13 -67 -66 6 c-105 10 -113 14
-106 50 6 29 33 72 179 279 76 107 115 192 100 216 -16 25 -56 25 -80 -1z
m213 -402 c6 -17 -12 -55 -35 -74 -27 -21 -89 -52 -106 -52 -35 0 -7 93 37
124 28 20 97 21 104 2z"/>
<path d="M4138 23363 c-19 -23 -26 -46 -43 -163 -21 -136 -19 -171 12 -305 26
-113 31 -122 74 -167 42 -44 49 -48 93 -48 93 0 154 54 219 192 30 63 59 89
74 66 3 -6 9 -58 13 -115 5 -85 10 -107 26 -124 77 -77 264 27 338 186 18 40
39 96 45 126 11 50 19 72 66 186 10 23 28 52 41 64 25 23 31 53 14 64 -21 13
-62 -9 -85 -46 -22 -34 -84 -193 -115 -294 -26 -84 -107 -193 -167 -224 -36
-19 -71 -13 -89 14 -25 39 -38 169 -23 234 7 30 13 75 13 100 1 41 -2 46 -22
49 -13 2 -29 -2 -37 -8 -17 -14 -61 -90 -71 -123 -22 -74 -68 -147 -126 -203
-70 -68 -96 -81 -130 -63 -31 17 -45 36 -62 89 -40 119 -39 306 3 438 20 67
14 92 -23 92 -13 0 -30 -8 -38 -17z"/>
<path d="M3539 23274 c-22 -27 -11 -361 13 -391 5 -7 7 -17 3 -23 -3 -5 -3
-30 1 -55 5 -35 10 -45 25 -45 18 0 18 -2 4 -38 -11 -26 -14 -60 -12 -103 2
-35 0 -74 -4 -86 -5 -13 -5 -33 0 -45 7 -19 3 -30 -27 -61 -33 -34 -35 -38
-20 -53 37 -37 88 8 88 79 1 18 6 42 13 54 15 26 4 228 -13 248 -7 8 -7 21 -1
37 6 15 6 41 1 64 -5 22 -8 81 -9 131 0 51 -3 98 -7 105 -4 6 -6 47 -5 91 2
96 -17 131 -50 91z"/>
<path d="M19816 23201 c-16 -17 -16 -23 3 -89 10 -39 22 -115 26 -169 6 -88
12 -161 16 -188 5 -42 -14 -220 -32 -287 -38 -152 -75 -207 -174 -265 -57 -34
-68 -58 -32 -74 18 -8 32 -7 60 5 92 38 160 123 208 259 41 115 52 208 44 382
-11 272 -28 389 -62 428 -21 22 -36 22 -57 -2z"/>
<path d="M5940 23149 c-112 -53 -180 -108 -180 -146 0 -23 74 -88 194 -171 60
-41 59 -66 -4 -99 -35 -19 -57 -23 -104 -21 -59 3 -60 3 -86 48 -27 47 -59 62
-86 40 -39 -33 14 -138 81 -160 86 -28 225 11 298 84 68 67 45 112 -110 213
-45 30 -85 59 -89 65 -10 16 27 40 125 82 95 40 159 85 147 104 -15 25 -81 11
-186 -39z"/>
<path d="M12265 23190 c-30 -11 -40 -28 -58 -100 -9 -36 -22 -85 -28 -110 -27
-106 -38 -127 -71 -134 -17 -3 -43 -6 -59 -6 -62 0 -104 -39 -75 -69 18 -18
135 -18 286 -2 52 6 168 18 257 26 175 16 236 31 241 57 6 32 -27 36 -163 23
-71 -7 -185 -16 -252 -19 -121 -6 -123 -6 -123 15 0 12 18 58 39 103 47 96 74
174 67 192 -8 20 -39 32 -61 24z"/>
<path d="M5225 23156 c-86 -27 -140 -70 -128 -102 7 -19 22 -18 101 8 175 57
288 11 285 -117 -2 -80 -20 -131 -60 -170 -91 -88 -181 -38 -191 108 -6 86
-15 107 -46 107 -39 0 -49 -23 -44 -101 10 -134 82 -229 175 -229 60 0 104 20
162 75 74 69 99 171 72 289 -12 49 -80 119 -130 135 -50 14 -145 13 -196 -3z"/>
<path d="M7426 23155 c-32 -8 -89 -31 -127 -51 -87 -46 -130 -97 -137 -163 -4
-46 -2 -49 37 -83 55 -47 99 -58 263 -65 102 -4 178 -1 293 12 l155 19 28 -27
c24 -23 37 -27 88 -27 140 0 274 66 274 135 0 82 -203 178 -275 131 -49 -32
-27 -59 61 -71 52 -7 124 -41 131 -62 6 -17 -50 -43 -107 -50 -45 -5 -48 -4
-52 18 -3 24 -5 24 -96 22 -50 -2 -147 -10 -214 -18 -271 -33 -508 -1 -508 69
0 12 8 30 18 39 34 31 125 69 200 84 73 15 81 15 153 -4 79 -20 111 -17 123
12 8 23 -33 61 -80 74 -68 19 -165 22 -228 6z"/>
<path d="M8710 23096 c-20 -13 -41 -31 -49 -40 -7 -9 -25 -16 -40 -16 -41 0
-67 -25 -80 -75 -8 -32 -27 -62 -57 -95 -54 -57 -55 -83 -5 -88 28 -3 39 3 77
42 24 25 52 63 63 83 26 51 97 126 113 121 14 -5 15 -27 3 -139 -7 -70 -6 -78
14 -98 27 -27 85 -28 126 -2 17 10 56 42 88 70 46 40 63 50 82 45 44 -11 62 9
63 70 1 98 -48 99 -131 3 -78 -90 -107 -117 -134 -123 -39 -10 -46 6 -32 72
19 92 22 163 9 179 -18 22 -70 17 -110 -9z"/>
<path d="M9674 23100 c-109 -22 -203 -94 -258 -199 -20 -38 -36 -75 -36 -83 0
-7 -11 -34 -25 -60 -29 -55 -87 -230 -110 -336 -15 -67 -15 -75 -1 -97 21 -32
62 -42 95 -23 45 26 130 226 152 357 11 70 21 80 58 58 125 -74 351 98 351
266 0 64 -34 100 -108 116 -59 12 -60 12 -118 1z m121 -84 c31 -22 26 -86 -10
-137 -49 -69 -97 -102 -158 -107 -51 -4 -54 -3 -85 32 -18 20 -32 42 -32 48 0
6 -8 20 -17 30 -16 17 -15 20 18 54 34 35 90 70 139 85 42 13 125 10 145 -5z
m-355 -281 c0 -76 -76 -315 -100 -315 -17 0 -16 27 2 105 11 44 26 105 33 135
15 63 24 90 38 107 15 20 27 5 27 -32z"/>
<path d="M18631 23066 c-7 -9 -17 -32 -23 -53 -5 -21 -14 -56 -19 -78 -6 -22
-14 -62 -17 -90 -6 -45 -11 -52 -58 -84 -63 -43 -112 -114 -94 -136 17 -20 24
-19 60 11 17 15 33 24 36 22 2 -3 -3 -30 -13 -59 l-18 -54 -55 -2 c-30 -1 -65
3 -77 9 -12 6 -29 8 -37 5 -45 -17 22 -83 75 -75 25 4 32 0 40 -19 11 -29 34
-39 54 -23 20 16 49 82 75 168 20 68 40 102 60 102 4 0 22 -22 39 -50 31 -50
57 -63 67 -35 10 24 -16 85 -44 103 -14 9 -37 28 -50 41 -25 24 -24 29 7 81 5
8 23 55 41 104 35 97 33 119 -12 124 -14 2 -30 -4 -37 -12z"/>
<path d="M10916 23003 c-4 -5 -26 -8 -48 -8 -45 0 -36 11 -124 -154 -29 -55
-30 -75 -3 -102 27 -27 62 -19 106 23 29 28 35 30 77 24 38 -6 51 -3 75 13 34
24 71 28 71 7 0 -24 49 -74 84 -86 18 -6 46 -24 62 -41 51 -55 145 -77 189
-45 29 21 12 46 -31 46 -38 0 -104 26 -104 41 0 5 13 15 29 23 58 30 116 114
127 184 6 35 3 42 -19 57 -21 13 -32 14 -66 5 -72 -19 -122 -75 -136 -153 -8
-43 -14 -48 -43 -40 -19 5 -22 12 -22 64 0 53 -3 61 -22 68 -29 11 -44 5 -95
-36 -41 -33 -73 -43 -73 -22 0 6 8 33 17 58 9 26 14 55 10 64 -6 17 -47 23
-61 10z m424 -108 c0 -20 -53 -85 -70 -85 -11 0 -20 3 -20 6 0 14 24 51 44 66
20 17 46 24 46 13z"/>
<path d="M18728 22966 c-14 -32 -4 -56 22 -56 25 0 34 21 26 55 -8 32 -33 32
-48 1z"/>
<path d="M16561 22923 c-21 -17 -120 -260 -121 -295 0 -9 -14 -54 -30 -99 -36
-96 -36 -132 -2 -137 32 -5 51 14 77 73 26 57 143 235 183 278 34 36 99 82
131 92 l24 7 -6 -145 c-4 -88 -3 -156 3 -171 15 -42 50 -52 125 -37 63 13 65
13 94 -12 101 -85 388 -14 588 145 117 92 153 85 154 -32 1 -96 -8 -144 -32
-166 -10 -9 -19 -23 -19 -30 0 -11 -21 -57 -68 -152 -9 -19 -41 -60 -70 -93
-64 -70 -101 -79 -122 -29 -16 39 -35 53 -60 45 -33 -11 -26 -58 16 -105 89
-98 187 -43 305 170 27 49 49 97 49 108 0 11 9 31 21 46 12 15 19 35 16 46 -3
11 3 26 15 37 11 10 17 25 14 36 -2 10 0 45 6 76 10 51 9 63 -8 97 -10 21 -35
49 -54 62 -19 13 -39 34 -43 47 -11 31 -57 49 -104 40 -55 -10 -171 -68 -220
-110 -50 -42 -75 -104 -53 -130 19 -23 4 -33 -76 -50 -69 -15 -205 -20 -217
-9 -3 3 25 26 61 51 129 88 186 160 180 231 -2 28 -10 41 -37 59 -41 28 -82
29 -136 4 -93 -42 -150 -119 -161 -216 -7 -68 -22 -85 -72 -85 l-34 0 6 58 c3
31 9 100 12 153 6 89 5 98 -14 117 -26 26 -63 36 -96 28 -38 -9 -123 -82 -174
-148 -76 -98 -80 -103 -86 -98 -7 7 59 134 91 176 26 34 29 54 11 72 -17 17
-42 15 -67 -5z m689 -137 c0 -23 -48 -73 -114 -120 -75 -54 -106 -65 -106 -39
0 21 32 77 64 112 42 47 156 81 156 47z m330 -71 c0 -3 -27 -19 -61 -35 -34
-17 -58 -26 -54 -20 3 5 27 21 53 35 47 24 62 29 62 20z"/>
<path d="M11814 22883 c-57 -72 -65 -77 -78 -50 -7 12 -20 23 -29 25 -61 12
-120 -150 -66 -178 30 -17 58 -6 116 45 28 25 54 45 57 45 3 0 6 -14 6 -31 0
-40 16 -69 39 -69 25 0 41 22 35 47 -3 12 2 58 11 102 15 65 15 83 5 96 -24
29 -57 18 -96 -32z"/>
<path d="M18219 22846 c-14 -7 -39 -16 -55 -20 -16 -4 -57 -21 -90 -37 -105
-52 -192 -176 -132 -187 11 -2 39 19 73 52 30 31 59 56 64 56 4 0 25 14 46 30
30 24 47 30 86 30 l47 0 -91 -91 c-65 -63 -110 -99 -154 -120 -34 -16 -65 -34
-68 -40 -12 -18 17 -39 52 -39 67 0 161 66 218 154 22 34 55 35 55 2 0 -32 26
-53 48 -39 10 6 16 19 14 29 -2 11 -4 33 -6 49 -3 42 -23 84 -41 92 -14 5 -11
11 12 35 27 29 27 30 9 44 -25 18 -53 18 -87 0z"/>
<path d="M19319 22750 c-32 -33 -61 -60 -63 -60 -3 0 -6 12 -8 28 -2 19 -9 28
-26 30 -40 6 -51 -12 -45 -79 4 -40 0 -87 -12 -139 -20 -87 -16 -110 17 -110
37 0 43 9 92 118 55 125 75 155 120 176 54 26 75 21 92 -20 20 -48 23 -158 5
-211 -11 -34 -12 -45 -1 -58 19 -23 46 -18 70 13 20 25 22 36 18 137 -4 117
-16 154 -66 208 -22 23 -34 27 -80 27 -53 0 -55 -1 -113 -60z"/>
<path d="M18836 22748 c-9 -12 -16 -39 -16 -59 0 -20 -7 -42 -15 -49 -31 -26
-9 -69 43 -85 18 -5 27 -2 38 14 12 16 26 21 60 21 39 0 44 -2 44 -23 0 -34
-19 -47 -67 -47 -36 0 -43 -3 -43 -20 0 -32 36 -60 76 -60 45 0 90 42 99 93 6
30 2 43 -22 79 -25 38 -35 44 -80 52 l-52 9 -3 46 c-3 38 -7 47 -25 49 -13 2
-27 -5 -37 -20z"/>
<path d="M15192 22608 c-15 -15 -16 -92 -2 -119 13 -23 43 -25 60 -3 11 12 11
18 -2 30 -12 13 -13 22 -5 43 6 16 7 35 4 45 -7 19 -38 21 -55 4z"/>
<path d="M18700 22570 c-6 -12 -10 -42 -8 -68 3 -43 6 -47 30 -50 32 -4 43 22
33 76 -11 61 -35 79 -55 42z"/>
<path d="M15214 22446 c-3 -8 4 -32 15 -55 54 -105 258 -145 494 -95 78 16
104 33 93 60 -6 15 -16 16 -104 8 -53 -5 -147 -9 -208 -9 -100 1 -114 3 -155
27 -24 14 -55 38 -68 52 -27 28 -59 34 -67 12z"/>
<path d="M4572 21293 c-19 -9 -45 -32 -58 -52 -23 -34 -69 -168 -76 -221 -3
-22 -10 -26 -58 -33 -44 -7 -66 -5 -110 10 -108 36 -99 106 26 199 25 19 27
24 15 38 -17 21 -79 21 -109 1 -73 -52 -112 -180 -73 -242 34 -54 92 -77 194
-77 100 0 109 -8 82 -73 -49 -114 -66 -174 -54 -189 17 -21 53 -17 77 9 17 18
25 47 37 136 8 62 17 116 20 121 3 5 41 20 85 35 106 35 133 62 89 86 -17 8
-33 6 -80 -11 -33 -13 -62 -20 -65 -17 -23 23 74 192 130 225 40 24 46 46 17
62 -27 14 -50 12 -89 -7z"/>
<path d="M16388 21216 c-22 -22 -116 -377 -138 -521 -25 -170 -41 -416 -28
-432 14 -18 32 -16 51 5 11 12 19 53 27 137 23 253 31 305 74 479 35 141 50
184 70 205 20 21 26 37 26 72 0 25 -5 50 -12 57 -16 16 -53 15 -70 -2z"/>
<path d="M1391 21207 c-12 -15 -11 -18 34 -212 14 -60 31 -123 39 -140 7 -16
17 -47 20 -69 4 -21 11 -46 16 -55 14 -27 30 -131 34 -228 5 -103 8 -113 39
-113 46 0 51 13 37 79 -7 33 -14 86 -15 118 -3 60 -46 270 -64 314 -15 34 -50
259 -44 276 14 35 -69 61 -96 30z"/>
<path d="M3734 21138 c-46 -50 -69 -86 -98 -160 -41 -102 -58 -206 -44 -272
l11 -55 -47 -47 c-26 -25 -45 -51 -43 -57 8 -24 36 -31 70 -19 45 16 72 15 88
-4 58 -70 207 -54 329 35 69 50 88 101 54 149 -26 38 -67 52 -151 52 -61 0
-91 -6 -138 -26 -33 -15 -72 -28 -87 -31 -34 -6 -34 -1 -12 100 30 139 63 206
142 289 53 56 52 78 -6 78 -30 0 -44 -7 -68 -32z m243 -471 c16 -15 15 -18 -6
-41 -13 -13 -46 -34 -74 -46 -94 -41 -235 -11 -214 45 20 52 251 85 294 42z"/>
<path d="M12572 21123 c-21 -8 -50 -75 -73 -169 -12 -49 -28 -101 -36 -116
-14 -30 -78 -62 -156 -80 -90 -21 -89 13 7 154 88 130 100 156 85 174 -7 9
-25 14 -42 12 -26 -3 -37 -14 -75 -78 -74 -123 -132 -240 -132 -265 0 -13 10
-36 23 -50 32 -37 87 -43 162 -15 104 38 98 39 74 -16 -11 -27 -32 -64 -45
-82 -31 -40 -28 -66 8 -70 50 -6 106 95 188 341 23 70 53 142 66 160 42 57 48
75 34 92 -12 14 -61 19 -88 8z"/>
<path d="M1950 21096 c-80 -24 -160 -68 -160 -89 0 -18 21 -37 41 -37 9 0 47
14 83 31 36 17 97 36 135 42 60 9 73 8 95 -7 17 -10 26 -26 26 -42 0 -21 -131
-271 -163 -312 -22 -28 -87 -174 -87 -196 0 -12 -11 -46 -26 -75 -23 -49 -24
-55 -9 -77 21 -32 57 -54 106 -65 85 -20 270 34 432 125 72 40 92 59 83 81
-11 28 -63 16 -153 -35 -142 -81 -313 -122 -366 -87 -39 26 -42 70 -7 119 17
22 30 47 30 54 0 13 85 174 160 304 47 81 72 157 68 207 -7 82 -127 108 -288
59z"/>
<path d="M7024 21067 c-143 -30 -189 -58 -152 -95 17 -17 62 -14 148 9 79 21
217 36 245 26 29 -12 -9 -61 -115 -147 -92 -74 -150 -139 -150 -166 0 -6 12
-21 26 -35 22 -21 34 -24 92 -22 129 3 337 75 337 117 0 41 -29 43 -131 7
-108 -37 -220 -53 -212 -30 2 8 33 36 69 64 35 27 90 76 122 107 50 50 57 62
57 96 0 28 -7 45 -25 62 -37 35 -161 37 -311 7z"/>
<path d="M8754 21059 c-17 -19 -19 -42 -22 -249 -3 -200 -2 -229 13 -243 22
-22 62 -22 73 1 5 9 6 44 2 77 -9 79 5 290 23 352 10 33 12 55 5 66 -13 25
-70 22 -94 -4z"/>
<path d="M3065 21050 c-50 -31 -196 -202 -229 -267 -14 -28 -22 -33 -52 -33
-29 0 -43 9 -85 52 -27 28 -49 59 -49 70 0 46 71 77 227 99 93 13 124 28 105
52 -7 8 -25 17 -40 20 -35 7 -204 -19 -260 -40 -48 -18 -112 -83 -112 -113 0
-53 83 -156 169 -209 17 -11 6 -81 -13 -81 -23 0 -68 -81 -87 -155 -17 -65
-17 -73 -3 -111 21 -55 64 -79 127 -72 108 12 248 122 262 206 13 81 -34 151
-138 201 -26 13 -47 30 -47 38 0 8 25 39 55 68 30 30 55 58 55 63 0 17 72 82
146 132 40 28 74 56 74 63 0 39 -57 48 -105 17z m-183 -459 c26 -16 52 -39 58
-51 47 -88 -124 -243 -224 -204 -26 10 -21 96 9 152 14 26 25 58 25 71 0 33
27 61 60 61 14 0 47 -13 72 -29z"/>
<path d="M6356 21060 c-171 -15 -226 -33 -226 -70 0 -40 24 -45 138 -26 127
22 352 33 352 19 0 -16 -31 -39 -119 -90 -148 -85 -137 -107 57 -116 129 -6
224 -25 250 -50 22 -23 -8 -69 -75 -117 -94 -67 -174 -100 -262 -109 -104 -11
-121 -23 -86 -61 14 -16 -2 -17 -227 -26 -134 -4 -302 -8 -374 -9 -96 0 -135
-4 -147 -14 -19 -15 -20 -20 -8 -40 18 -27 118 -31 371 -15 200 14 347 15 798
11 345 -4 562 -3 578 3 33 13 28 41 -8 51 -15 4 -215 10 -444 14 l-417 8 62
23 c170 64 286 147 323 231 29 66 14 94 -65 127 -34 14 -91 30 -127 36 -100
16 -120 21 -120 28 0 4 20 20 45 35 51 32 108 94 102 110 -13 44 -174 64 -371
47z"/>
<path d="M9102 21054 c-29 -20 -66 -94 -87 -175 -13 -48 -16 -87 -12 -154 l6
-90 -52 -25 c-37 -18 -52 -31 -52 -45 0 -15 8 -21 33 -23 19 -2 47 1 63 7 27
9 32 7 60 -24 65 -71 156 -85 244 -39 73 38 154 103 172 137 14 28 14 31 -10
54 -19 19 -42 28 -100 36 -67 10 -84 8 -164 -12 -133 -35 -128 -36 -126 28 2
74 16 120 69 225 35 69 42 91 33 102 -15 19 -49 18 -77 -2z m275 -429 c1 -5
-20 -26 -48 -45 -41 -28 -62 -35 -112 -38 -52 -3 -66 0 -89 18 -35 27 -35 38
-1 51 67 25 243 35 250 14z"/>
<path d="M10655 21057 c-95 -25 -167 -73 -197 -131 l-20 -40 30 -27 c22 -20
56 -33 126 -49 64 -15 93 -26 89 -34 -4 -6 -21 -34 -39 -61 -35 -56 -54 -112
-54 -164 0 -51 58 -105 134 -122 180 -40 523 100 491 201 -24 74 -167 153
-347 190 -32 6 -58 16 -58 22 0 5 16 24 35 41 19 18 53 49 75 70 21 20 46 37
53 37 20 0 37 23 29 37 -15 24 -70 35 -182 39 -74 2 -133 -1 -165 -9z m185
-64 c0 -13 -81 -113 -101 -124 -16 -8 -38 -7 -93 6 -89 19 -116 36 -97 58 16
20 123 55 181 60 86 7 110 7 110 0z m90 -273 c126 -44 190 -81 190 -108 0 -67
-359 -142 -419 -88 -37 33 -28 103 25 194 32 54 52 55 204 2z"/>
<path d="M14210 21054 c-107 -16 -263 -59 -298 -82 -28 -18 -44 -46 -36 -65
10 -28 52 -25 121 8 37 18 104 41 148 50 93 20 353 31 375 16 21 -14 -6 -47
-111 -140 -201 -176 -299 -267 -310 -287 -16 -30 -3 -61 34 -81 77 -39 539 25
587 82 36 43 -25 57 -129 30 -134 -34 -401 -59 -401 -37 0 11 65 72 115 108
138 100 294 253 315 309 9 23 6 30 -18 54 -49 50 -202 63 -392 35z"/>
<path d="M875 20836 c-98 -29 -274 -100 -294 -120 -12 -12 -12 -18 -1 -30 22
-27 72 -18 171 32 87 44 134 58 299 91 26 5 35 12 35 26 0 31 -106 31 -210 1z"/>
<path d="M4471 20399 c-249 -10 -420 -24 -673 -55 -216 -26 -272 -26 -390 -2
-66 14 -108 2 -108 -32 0 -28 34 -46 111 -59 96 -16 164 -14 380 13 274 35
391 45 663 56 285 12 343 24 334 66 -4 23 -47 25 -317 13z"/>
<path d="M8204 20342 c-18 -18 -18 -27 3 -43 13 -12 140 -14 729 -14 666 0
714 1 731 18 16 16 16 18 1 33 -15 15 -84 17 -734 18 -591 1 -719 -1 -730 -12z"/>
<path d="M10363 20352 c-88 -6 -116 -11 -130 -25 -14 -13 -15 -21 -7 -35 10
-14 26 -17 110 -15 109 2 713 2 866 -1 105 -1 132 9 112 42 -7 11 -30 19 -65
24 -82 9 -758 17 -886 10z"/>
<path d="M11696 20328 c-33 -26 -16 -52 39 -60 62 -9 439 -24 958 -40 368 -11
399 -10 414 5 22 22 9 36 -44 47 -22 5 -179 14 -349 20 -170 6 -388 15 -484
20 -401 21 -514 23 -534 8z"/>
<path d="M14012 20299 c-223 -5 -343 -11 -363 -19 -33 -14 -39 -44 -11 -59 17
-9 1102 14 1170 25 40 6 53 31 27 50 -21 16 -235 16 -823 3z"/>
<path d="M2939 20266 c-23 -24 -692 -66 -1029 -66 -91 0 -289 -5 -442 -12
-253 -11 -287 -10 -402 7 -118 17 -127 17 -151 1 -15 -10 -25 -25 -23 -34 5
-27 49 -41 165 -53 106 -11 167 -10 588 11 105 5 316 12 470 15 311 7 501 18
680 41 192 24 245 43 215 79 -11 14 -61 21 -71 11z"/>
<path d="M15601 20260 c-18 -4 -40 -15 -49 -24 -15 -15 -15 -17 0 -33 14 -13
35 -16 115 -15 113 3 970 -32 1211 -49 90 -6 174 -8 188 -5 24 6 34 39 14 51
-17 10 -359 34 -735 50 -203 9 -435 20 -515 25 -165 11 -182 11 -229 0z"/>
<path d="M4078 20160 c-127 -20 -299 -110 -393 -207 -112 -115 -162 -265 -125
-379 14 -46 80 -118 131 -144 86 -45 153 -54 379 -54 189 0 224 2 292 21 104
30 225 90 271 136 52 52 86 132 86 204 0 73 -6 93 -29 93 -19 0 -34 -38 -24
-64 8 -20 -31 -123 -61 -161 -55 -72 -213 -137 -390 -161 -89 -12 -136 -13
-248 -4 -152 12 -210 26 -268 64 -42 28 -79 90 -79 132 0 51 33 159 59 194 99
135 177 192 335 245 77 26 199 36 217 18 6 -6 -20 -32 -68 -69 -88 -67 -107
-104 -54 -104 18 0 43 11 63 28 83 69 173 87 287 58 66 -17 89 -12 78 17 -9
23 -103 50 -192 56 -78 6 -80 7 -77 31 2 16 -4 29 -17 37 -27 17 -106 23 -173
13z"/>
<path d="M6698 20150 c-23 -14 -26 -33 -43 -315 -9 -137 -20 -290 -25 -338
-10 -98 -6 -119 22 -115 41 6 60 102 98 498 6 63 16 141 22 172 9 49 8 61 -6
83 -17 26 -40 31 -68 15z"/>
<path d="M15885 20020 c-67 -26 -121 -71 -112 -93 12 -31 36 -30 104 4 53 26
84 34 141 37 67 4 79 1 139 -28 37 -18 85 -52 109 -75 58 -59 120 -175 140
-263 15 -68 15 -79 0 -140 -9 -36 -25 -85 -37 -108 -49 -103 -199 -205 -349
-239 -115 -26 -264 -31 -332 -11 -162 47 -214 173 -138 331 52 107 149 185
297 236 84 29 114 64 81 97 -44 44 -258 -57 -367 -174 -144 -153 -171 -339
-67 -461 103 -120 337 -156 571 -88 188 55 310 147 378 287 73 150 70 261 -11
406 -62 112 -192 239 -278 272 -83 33 -201 37 -269 10z"/>
<path d="M2082 20001 c-104 -36 -219 -137 -258 -227 -9 -22 -21 -47 -26 -58
-15 -29 1 -135 29 -191 70 -143 207 -196 386 -149 110 28 256 116 326 196 33
38 65 114 57 135 -9 24 -37 14 -50 -18 -24 -57 -123 -145 -215 -192 -198 -101
-309 -98 -416 13 l-40 41 0 92 c0 90 1 94 38 149 59 90 152 151 250 163 l42 6
-38 -15 c-56 -21 -107 -59 -107 -78 0 -22 18 -23 47 -3 52 36 115 48 236 43
64 -3 117 -2 117 1 0 9 -65 51 -79 51 -7 0 -43 14 -81 30 -80 35 -139 38 -218
11z"/>
<path d="M13983 19995 c-15 -10 -23 -30 -28 -72 -7 -63 -38 -191 -90 -378 -42
-149 -67 -283 -63 -332 2 -29 8 -39 23 -41 37 -4 47 14 65 119 9 57 51 219 93
359 97 329 93 305 63 335 -29 29 -34 30 -63 10z"/>
<path d="M4560 19990 c0 -5 5 -10 10 -10 6 0 10 5 10 10 0 6 -4 10 -10 10 -5
0 -10 -4 -10 -10z"/>
<path d="M9106 19979 c-68 -16 -201 -89 -270 -149 -153 -132 -243 -297 -233
-430 13 -193 201 -326 434 -306 236 21 497 180 558 341 24 62 16 175 -18 248
-36 79 -121 161 -211 202 -41 19 -81 35 -89 35 -8 0 -17 9 -20 20 -5 21 -63
51 -94 49 -10 -1 -35 -5 -57 -10z m94 -110 c91 -14 178 -59 234 -119 65 -70
90 -128 90 -215 1 -125 -62 -203 -229 -285 -186 -91 -345 -104 -473 -39 -56
29 -72 43 -100 89 -32 52 -33 59 -29 132 7 140 93 274 242 377 106 74 138 81
265 60z"/>
<path d="M12282 19958 c-7 -7 -12 -30 -13 -52 0 -40 -5 -72 -47 -311 -51 -285
-63 -388 -49 -402 22 -22 63 -1 75 39 6 18 16 78 22 133 6 55 32 190 56 300
59 261 60 268 39 288 -19 20 -66 22 -83 5z"/>
<path d="M10820 19926 c-107 -28 -242 -142 -290 -243 -60 -126 -66 -237 -19
-333 112 -224 408 -323 703 -235 225 66 321 148 333 284 17 188 -130 373 -379
474 -159 65 -253 79 -348 53z m182 -77 c146 -29 273 -92 355 -177 116 -120
142 -292 58 -377 -101 -100 -391 -164 -554 -120 -207 55 -322 206 -286 377 16
79 30 108 83 172 49 59 93 89 168 115 68 23 101 25 176 10z"/>
<path d="M2576 19775 c4 -8 8 -15 10 -15 2 0 4 7 4 15 0 8 -4 15 -10 15 -5 0
-7 -7 -4 -15z"/>
<path d="M20011 19765 c-173 -38 -285 -94 -279 -139 4 -31 38 -31 96 -2 85 43
188 67 313 73 123 6 159 -2 159 -37 0 -28 -40 -70 -174 -185 -140 -119 -196
-177 -196 -204 0 -23 43 -59 79 -67 217 -46 349 -103 385 -164 79 -135 -102
-390 -276 -390 -62 0 -93 20 -117 76 -13 29 -26 44 -38 44 -40 0 -56 -47 -32
-93 39 -75 138 -126 221 -113 105 17 234 126 302 255 34 65 39 82 38 141 0 81
-24 134 -81 179 -57 46 -161 91 -274 120 -55 14 -102 31 -104 37 -2 6 43 47
101 92 167 133 262 247 254 308 -4 33 -41 62 -94 74 -57 14 -209 11 -283 -5z"/>
<path d="M20951 19674 c-84 -18 -198 -72 -249 -119 -55 -49 -92 -125 -92 -187
0 -44 4 -54 47 -99 26 -27 68 -64 95 -81 26 -17 48 -36 48 -41 0 -5 -9 -22
-20 -37 -11 -16 -32 -59 -47 -97 -22 -56 -27 -85 -27 -163 -1 -113 14 -148 87
-197 82 -55 235 -57 369 -5 133 52 203 130 184 208 -16 66 -204 210 -373 286
-40 18 -73 37 -73 41 0 23 266 256 390 341 50 35 55 36 114 30 65 -7 93 6 81
38 -12 30 -117 65 -240 82 -143 19 -208 19 -294 0z m274 -73 l50 -6 -69 -50
c-156 -113 -189 -140 -269 -226 -52 -56 -91 -89 -104 -89 -27 0 -109 64 -128
100 -42 82 4 161 133 229 79 42 253 61 387 42z m-222 -559 c147 -86 233 -153
255 -198 l17 -36 -32 -28 c-54 -48 -134 -72 -258 -77 -98 -4 -114 -2 -143 16
-18 12 -40 36 -49 55 -14 31 -15 45 -4 120 13 93 44 196 64 208 22 14 33 9
150 -60z"/>
<path d="M27099 19582 c-56 -9 -99 -36 -99 -62 0 -35 33 -42 115 -25 158 32
405 4 537 -62 55 -27 98 -70 98 -97 0 -46 -127 -127 -285 -181 -123 -42 -154
-61 -155 -92 0 -26 49 -42 168 -58 160 -20 265 -59 317 -116 33 -37 36 -45 30
-78 -3 -20 -17 -53 -30 -73 -46 -70 -238 -142 -412 -155 l-82 -6 -11 27 c-9
24 -15 27 -47 24 -36 -3 -38 -5 -38 -38 0 -28 6 -38 34 -57 49 -33 200 -33
332 1 231 58 334 148 334 291 0 73 -17 99 -95 152 -62 42 -134 68 -232 85 -38
7 -68 15 -68 18 0 3 35 20 78 38 97 40 180 89 205 123 52 72 24 186 -60 239
-57 36 -170 74 -268 89 -93 14 -308 22 -366 13z"/>
<path d="M28002 19380 c-59 -9 -94 -28 -118 -66 -15 -22 -15 -27 -2 -40 8 -8
31 -17 51 -21 30 -4 37 -2 37 10 0 35 39 42 234 42 168 0 190 2 200 17 15 24
0 36 -59 47 -74 14 -282 21 -343 11z"/>
<path d="M28499 19278 c-39 -35 -101 -89 -137 -121 -58 -51 -70 -58 -96 -53
-17 4 -39 15 -51 25 -26 25 -154 83 -166 75 -29 -18 9 -51 119 -103 45 -22 82
-44 82 -48 0 -5 -28 -40 -62 -78 -148 -168 -205 -316 -147 -389 57 -73 189
-106 326 -82 96 17 202 65 242 112 41 46 42 107 4 185 -34 69 -156 191 -187
187 -30 -4 -22 -35 23 -83 92 -97 128 -183 97 -230 -21 -31 -98 -71 -179 -91
-75 -20 -169 -14 -224 12 -36 18 -38 21 -37 64 1 57 38 133 115 236 66 89 96
109 145 99 37 -6 50 13 14 22 -52 14 -10 58 188 203 63 46 82 65 82 84 0 13
-7 27 -16 30 -39 15 -65 4 -135 -56z"/>
<path d="M13645 18650 c-296 -11 -376 -24 -396 -61 -8 -15 -7 -24 3 -36 14
-17 21 -16 268 7 128 13 898 18 946 6 23 -5 37 -2 53 11 28 23 20 48 -22 64
-39 14 -574 20 -852 9z"/>
<path d="M16010 18634 c-234 -6 -511 -12 -616 -13 -179 -1 -192 -2 -210 -22
-14 -15 -16 -24 -7 -37 9 -16 44 -17 419 -14 550 4 914 16 942 31 27 14 29 47
3 61 -11 5 -39 9 -63 8 -24 0 -234 -7 -468 -14z"/>
<path d="M4218 18523 c-14 -17 -40 -151 -53 -273 -12 -118 -37 -288 -50 -345
-41 -177 -82 -406 -95 -525 -14 -130 -34 -245 -51 -286 -17 -42 -7 -64 29 -64
52 0 69 29 77 127 8 106 43 392 51 413 4 8 9 40 14 70 4 30 19 107 33 170 35
158 54 264 72 402 8 64 24 157 36 207 12 49 19 96 16 105 -9 22 -60 21 -79 -1z"/>
<path d="M2164 18450 c-28 -11 -35 -24 -46 -74 -22 -113 -28 -313 -13 -497 9
-116 -7 -294 -36 -392 -11 -38 -24 -94 -29 -125 -5 -31 -21 -80 -36 -109 -14
-29 -24 -60 -22 -69 5 -29 32 -38 64 -23 30 15 39 36 62 144 26 117 54 232 65
265 8 25 12 135 12 375 1 324 2 343 24 415 21 70 21 75 5 87 -20 15 -21 15
-50 3z"/>
<path d="M8919 18343 c-1 -5 -2 -66 -4 -138 -2 -109 -9 -162 -44 -328 -55
-261 -99 -575 -104 -732 -2 -77 -1 -80 21 -83 13 -2 33 3 46 11 22 15 23 24
29 144 5 118 43 416 66 523 6 25 15 70 20 100 6 30 20 98 31 150 26 121 38
323 20 345 -13 15 -79 21 -81 8z"/>
<path d="M10798 18318 c-11 -9 -17 -37 -21 -93 -4 -57 -19 -120 -52 -220 -63
-192 -83 -290 -100 -490 -7 -77 -40 -287 -55 -350 -21 -87 0 -120 47 -73 34
35 61 148 88 383 32 279 52 369 130 602 14 40 30 104 36 143 11 63 10 72 -6
90 -21 23 -44 26 -67 8z"/>
<path d="M6424 18282 c-110 -39 -196 -92 -280 -176 -95 -95 -126 -157 -131
-261 -11 -200 116 -361 347 -444 174 -63 371 -86 493 -57 37 9 84 24 105 35
96 49 193 156 241 266 40 92 53 262 24 318 -9 18 -17 42 -18 55 -1 21 -19 41
-37 42 -11 0 -10 -54 1 -65 12 -14 -13 -240 -33 -300 -9 -27 -38 -81 -64 -119
-88 -129 -235 -188 -415 -167 -193 23 -360 85 -449 169 -83 78 -112 155 -106
283 4 77 8 92 37 137 84 132 282 241 410 226 48 -5 59 -3 74 14 21 23 14 45
-19 61 -40 18 -93 13 -180 -17z"/>
<path d="M6752 18295 c-15 -11 -22 -25 -20 -38 3 -21 10 -22 133 -29 72 -3
134 -2 139 3 15 13 -23 48 -63 58 -20 5 -65 12 -101 16 -52 5 -70 3 -88 -10z"/>
<path d="M12193 18225 c-166 -46 -330 -186 -443 -376 -80 -135 -87 -243 -23
-379 68 -145 275 -318 443 -371 202 -64 453 28 574 210 69 103 106 214 106
315 0 111 -40 236 -76 236 -24 0 -27 -25 -10 -84 45 -153 -14 -367 -135 -488
-91 -91 -273 -152 -387 -129 -74 15 -162 57 -243 117 -188 140 -269 327 -207
480 49 121 164 258 281 335 79 51 124 66 140 46 9 -11 39 -16 117 -19 97 -4
111 -7 183 -42 42 -20 84 -48 93 -61 22 -34 9 -92 -29 -133 -25 -26 -29 -36
-21 -50 20 -31 52 -26 90 15 20 21 45 47 55 58 29 31 24 49 -31 112 -101 117
-122 135 -206 175 -99 47 -184 58 -271 33z"/>
<path d="M27295 18206 c-33 -8 -108 -33 -168 -56 -119 -47 -166 -85 -147 -121
16 -29 46 -24 145 26 103 51 218 84 313 87 57 3 67 1 70 -15 6 -30 -66 -89
-171 -140 -57 -28 -103 -57 -113 -72 -16 -24 -16 -27 2 -46 27 -30 61 -46 140
-64 163 -37 314 -93 314 -116 0 -21 -73 -78 -150 -119 -86 -44 -173 -70 -236
-70 -26 0 -47 -6 -55 -16 -11 -14 -10 -19 10 -35 45 -37 173 -18 308 46 105
49 159 89 189 141 l27 45 -30 37 c-43 53 -153 108 -283 142 -61 15 -114 31
-117 33 -2 3 27 22 66 42 77 41 143 100 172 157 24 47 24 70 0 99 -17 21 -27
24 -122 26 -61 1 -129 -3 -164 -11z"/>
<path d="M28010 18200 c-70 -7 -95 -17 -124 -49 -20 -22 -16 -48 10 -58 9 -3
46 2 84 11 117 28 355 19 376 -15 21 -34 -60 -127 -211 -242 -104 -79 -175
-151 -175 -176 0 -30 47 -79 88 -91 54 -16 314 -24 406 -12 90 12 131 37 106
67 -12 15 -34 16 -190 9 -175 -7 -320 5 -320 27 0 5 43 41 97 81 123 91 227
190 260 246 90 153 -79 237 -407 202z"/>
<path d="M13966 18118 c-10 -14 -16 -44 -16 -80 0 -84 -27 -262 -56 -369 -44
-166 -82 -342 -94 -439 -6 -52 -15 -122 -19 -155 -5 -33 -6 -65 -4 -72 8 -21
43 -25 67 -9 21 13 24 25 31 123 9 145 25 233 85 469 58 233 100 514 80 539
-18 22 -57 18 -74 -7z"/>
<path d="M26325 18010 c-71 -3 -138 -9 -147 -14 -10 -4 -18 -18 -18 -31 0 -44
20 -49 168 -41 375 18 448 30 440 74 -3 15 -21 17 -158 18 -85 0 -213 -2 -285
-6z"/>
<path d="M19985 17969 c-100 -13 -149 -53 -103 -83 22 -14 32 -14 95 -1 140
29 358 20 397 -16 14 -13 -26 -51 -134 -128 -121 -87 -182 -152 -178 -189 5
-43 52 -65 214 -101 169 -37 239 -66 283 -117 26 -29 31 -43 31 -87 0 -55 -19
-98 -69 -151 -65 -70 -272 -185 -385 -213 -62 -15 -64 -15 -94 7 -24 18 -33
20 -51 11 -29 -16 -28 -61 2 -89 87 -82 481 95 617 277 78 104 89 191 35 272
-51 77 -161 130 -353 168 -110 22 -145 36 -139 54 2 6 52 46 113 89 140 100
195 160 192 208 -4 45 -46 74 -131 89 -73 13 -240 13 -342 0z"/>
<path d="M15931 17961 c-19 -5 -42 -18 -50 -29 -9 -10 -42 -36 -74 -57 -68
-44 -153 -135 -190 -203 -58 -107 -78 -291 -44 -400 43 -138 206 -266 402
-317 68 -17 199 -19 265 -4 75 17 209 87 256 134 86 87 162 235 171 335 11
124 -62 264 -195 371 -89 72 -102 79 -244 130 -120 42 -228 57 -297 40z m206
-97 c3 -8 -4 -25 -16 -38 -28 -29 -27 -44 4 -58 21 -10 30 -8 53 9 15 11 33
32 40 46 16 33 30 33 85 6 145 -74 249 -183 286 -300 27 -85 -30 -261 -118
-360 -45 -52 -124 -97 -224 -129 -205 -66 -503 47 -580 218 -29 65 -35 196
-13 282 38 147 149 267 297 320 68 24 177 27 186 4z"/>
<path d="M21152 17924 c-82 -22 -156 -61 -212 -111 -122 -109 -121 -215 1
-339 l60 -60 -50 -61 c-76 -95 -120 -203 -121 -293 -1 -177 169 -260 404 -200
143 36 249 110 266 185 20 89 -50 165 -272 296 -76 45 -138 84 -138 86 0 11
342 370 369 388 60 39 62 94 5 115 -38 15 -251 11 -312 -6z m238 -71 c3 -2
-40 -48 -95 -101 -55 -53 -129 -133 -164 -177 -83 -105 -95 -110 -137 -61 -75
87 -85 163 -29 224 43 48 132 96 205 111 30 6 64 13 75 15 23 5 137 -4 145
-11z m-305 -503 c3 -5 58 -44 123 -86 172 -112 236 -179 212 -224 -29 -54
-190 -110 -317 -110 -130 0 -193 42 -193 131 0 68 76 252 118 287 19 14 48 16
57 2z"/>
<path d="M28582 17929 c-12 -5 -22 -14 -22 -22 0 -34 56 -50 80 -22 26 31 -13
60 -58 44z"/>
<path d="M12732 17896 c1 -10 8 -17 13 -17 15 1 12 24 -3 29 -9 3 -13 -2 -10
-12z"/>
<path d="M19535 17438 c-33 -5 -171 -11 -306 -11 -192 -2 -250 -5 -262 -16
-23 -18 -21 -37 5 -55 52 -37 650 -7 731 36 11 6 17 18 15 31 -3 20 -9 22 -63
23 -33 1 -87 -3 -120 -8z"/>
<path d="M27500 17419 c-280 -20 -413 -31 -530 -45 -69 -9 -180 -21 -248 -29
-127 -13 -162 -27 -162 -65 0 -41 54 -51 165 -31 65 12 433 63 580 81 238 28
776 29 1075 1 97 -9 138 -3 154 22 8 12 7 20 -4 31 -34 34 -719 57 -1030 35z"/>
<path d="M27837 17283 c-8 -10 -29 -53 -46 -96 -16 -44 -55 -123 -85 -177 -35
-60 -64 -129 -78 -180 l-22 -83 -65 -29 c-79 -35 -101 -54 -101 -84 0 -37 38
-40 99 -9 35 19 59 25 77 21 19 -5 33 0 54 18 55 46 261 78 365 56 65 -13 115
-35 115 -50 0 -16 -72 -58 -139 -80 -99 -33 -183 -37 -258 -11 -84 28 -95 27
-91 -6 6 -52 95 -93 203 -93 113 0 299 69 346 128 57 73 -15 156 -166 188 -86
19 -153 17 -261 -8 -52 -12 -97 -18 -101 -14 -8 8 7 38 141 283 80 146 98 201
76 228 -17 20 -43 19 -63 -2z"/>
<path d="M3400 16790 c-124 -4 -367 -12 -540 -18 -173 -7 -632 -13 -1020 -16
-419 -3 -715 -8 -730 -14 -32 -12 -54 -38 -45 -52 5 -8 35 -10 99 -6 50 4 417
9 816 11 638 4 1058 13 1270 30 394 29 2301 1 2961 -45 294 -20 869 -45 1364
-60 187 -5 504 -15 704 -21 1150 -34 3207 -20 3846 27 333 24 498 29 549 14
40 -11 49 -10 71 4 64 42 0 76 -155 83 -65 3 -194 -3 -339 -16 -658 -59 -2650
-83 -4001 -47 -723 19 -1207 34 -1340 41 -52 3 -189 10 -305 15 -115 6 -322
17 -460 25 -137 8 -401 19 -585 25 -184 5 -391 12 -460 15 -244 9 -1479 13
-1700 5z"/>
<path d="M16255 16733 c-254 -23 -403 -35 -640 -49 -310 -18 -345 -26 -316
-73 7 -11 33 -14 111 -13 108 2 562 36 715 53 50 6 193 12 319 15 189 3 233 6
245 19 14 13 13 17 -2 33 -16 15 -41 17 -205 18 -103 1 -205 0 -227 -3z"/>
<path d="M13520 16720 c-72 -9 -100 -24 -100 -55 0 -33 26 -39 114 -25 41 6
234 12 430 14 364 3 386 6 386 42 0 8 -12 19 -26 24 -29 11 -718 11 -804 0z"/>
<path d="M16068 16523 c-8 -10 -32 -49 -53 -88 -59 -107 -126 -222 -183 -309
-55 -85 -59 -95 -40 -114 27 -27 56 -13 98 48 42 62 60 69 60 22 0 -56 63
-299 114 -441 24 -66 75 -150 102 -168 48 -31 101 8 69 51 -81 112 -88 128
-186 434 -64 204 -69 271 -25 345 15 26 32 47 37 47 9 0 44 -113 54 -177 8
-48 24 -66 57 -61 36 5 35 58 -2 159 -22 57 -34 110 -37 164 -7 102 -28 130
-65 88z"/>
<path d="M13797 16477 c-29 -30 -87 -112 -129 -184 -96 -161 -251 -471 -244
-489 3 -8 19 -14 36 -14 24 0 40 10 69 43 21 23 73 80 115 127 43 47 89 105
103 130 47 82 73 120 83 120 6 0 10 -24 10 -53 0 -78 17 -160 57 -267 142
-388 156 -418 261 -580 103 -158 232 -290 422 -433 52 -39 138 -115 190 -169
102 -105 129 -118 165 -78 23 26 14 45 -32 69 -21 11 -67 49 -103 86 -36 37
-126 114 -201 171 -173 131 -273 232 -354 353 -121 184 -163 276 -277 611 -57
169 -70 220 -75 290 -6 98 -15 120 -47 120 -31 0 -56 -30 -112 -130 -48 -87
-132 -205 -141 -196 -6 6 108 229 156 304 52 80 109 142 131 142 13 0 45 -45
105 -145 91 -153 163 -238 227 -268 41 -19 78 -10 78 18 0 16 -4 20 -72 70
-46 35 -136 160 -208 290 -50 90 -76 115 -123 115 -34 0 -45 -7 -90 -53z"/>
<path d="M27405 16286 c-50 -22 -212 -186 -220 -223 -20 -98 103 -157 322
-156 l112 1 -90 -176 c-49 -97 -87 -182 -85 -189 7 -17 46 -16 69 1 18 14 91
164 131 270 38 101 49 111 163 167 78 37 118 64 154 101 52 54 58 68 35 87
-11 9 -25 2 -67 -35 -57 -49 -143 -98 -162 -91 -6 2 19 33 54 69 52 53 73 68
105 73 59 10 64 13 64 34 0 27 -29 41 -86 41 -45 0 -51 -3 -104 -58 -31 -32
-73 -88 -94 -124 -20 -36 -44 -69 -54 -73 -67 -28 -283 -20 -345 12 -60 30
-58 39 38 111 128 96 158 139 116 162 -23 12 -19 12 -56 -4z"/>
<path d="M11262 16163 c-44 -21 -76 -65 -157 -213 -162 -296 -296 -606 -281
-646 7 -18 70 -18 84 -1 5 6 22 56 36 110 28 103 87 239 206 475 74 147 122
212 157 212 66 0 167 -63 392 -243 174 -140 218 -166 255 -149 14 6 26 18 26
26 0 9 -35 39 -77 67 -43 29 -116 84 -163 123 -282 236 -382 286 -478 239z"/>
<path d="M25759 15962 c-53 -44 8 -77 167 -92 123 -11 661 -13 772 -1 80 8
115 28 93 55 -10 12 -79 15 -444 18 -367 4 -441 7 -490 21 -72 21 -70 21 -98
-1z"/>
<path d="M11368 15913 c-37 -9 -30 -41 25 -125 73 -112 214 -357 266 -463 25
-52 132 -227 190 -310 30 -44 81 -119 112 -166 32 -47 67 -94 79 -104 11 -10
20 -22 20 -27 0 -11 26 -46 130 -178 42 -52 85 -107 95 -121 11 -14 74 -92
140 -173 66 -81 136 -169 156 -194 64 -83 370 -385 494 -488 246 -205 547
-422 855 -616 403 -254 576 -327 1172 -499 194 -55 386 -116 427 -135 41 -19
86 -34 102 -34 27 0 59 22 59 40 0 31 -183 96 -570 204 -607 169 -795 252
-1275 564 -467 303 -847 605 -1083 859 -140 151 -281 314 -307 353 -12 19 -30
42 -40 50 -10 8 -42 46 -71 85 -30 38 -71 91 -91 117 -101 126 -245 322 -314
428 -89 135 -113 174 -198 328 -50 90 -91 164 -91 166 0 1 -34 65 -76 142 -42
76 -94 173 -115 215 -31 62 -60 97 -72 88 -1 -1 -10 -3 -19 -6z"/>
<path d="M21611 15480 c-129 -62 -277 -189 -333 -287 -31 -53 -53 -165 -43
-220 9 -58 55 -134 102 -169 83 -63 214 -94 244 -58 21 26 -1 45 -71 63 -91
23 -158 64 -178 109 -26 61 -20 152 17 226 53 108 194 227 320 272 62 21 73
27 85 47 14 22 -1 36 -45 43 -25 4 -51 -3 -98 -26z"/>
<path d="M24202 15459 c-33 -13 -37 -34 -13 -73 29 -47 36 -117 22 -218 -34
-232 -114 -394 -285 -575 -85 -90 -95 -121 -34 -109 39 8 98 63 182 171 105
134 176 281 195 405 19 123 24 302 9 344 -16 47 -44 68 -76 55z"/>
<path d="M22380 15440 c-53 -28 -91 -68 -148 -152 -46 -69 -56 -78 -89 -83
-112 -17 -177 -60 -171 -112 4 -38 39 -42 81 -10 39 29 77 43 77 27 0 -6 -13
-40 -30 -77 -32 -69 -37 -98 -20 -108 17 -11 59 23 66 53 9 38 44 113 62 135
18 20 102 23 181 6 54 -11 91 -1 91 26 0 25 -42 43 -123 53 -43 6 -81 13 -84
16 -11 11 48 83 95 117 37 27 59 35 107 39 55 5 60 7 63 30 6 53 -89 77 -158
40z"/>
<path d="M26382 15431 c-127 -5 -145 -8 -158 -25 -8 -11 -14 -26 -14 -33 0
-30 37 -33 307 -22 280 12 647 7 843 -11 63 -6 234 -20 380 -32 146 -11 285
-22 310 -25 37 -4 49 -1 64 16 15 17 16 23 6 36 -21 25 -75 33 -325 50 -132 9
-321 23 -420 31 -195 17 -762 25 -993 15z"/>
<path d="M5064 15400 c-64 -26 -97 -394 -92 -1030 l4 -395 21 -3 c12 -2 31 2
42 8 19 10 20 17 14 138 -10 213 -7 630 6 768 6 71 16 181 22 244 5 63 19 145
31 182 16 55 18 71 8 83 -14 17 -25 18 -56 5z"/>
<path d="M16552 15340 c-111 -30 -249 -100 -302 -152 -61 -61 -94 -129 -94
-196 -1 -49 2 -56 36 -87 76 -70 205 -73 370 -9 45 17 49 17 84 0 149 -71 384
29 384 164 0 45 -31 95 -71 116 -43 22 -167 15 -224 -12 -54 -25 -132 -102
-141 -139 -4 -16 -11 -36 -17 -42 -18 -24 -136 -53 -212 -53 -124 0 -157 51
-92 146 43 64 96 103 203 149 98 41 203 57 242 36 30 -16 62 2 62 34 0 57
-106 78 -228 45z m388 -250 c26 -26 25 -45 -1 -71 -41 -41 -123 -70 -186 -67
-53 3 -59 6 -72 32 -14 29 -13 31 25 63 58 48 93 63 157 63 44 0 62 -5 77 -20z"/>
<path d="M21797 15342 c-22 -24 -22 -71 -1 -79 23 -9 135 29 148 50 17 27 -17
47 -79 47 -38 0 -56 -5 -68 -18z"/>
<path d="M18065 15318 c-11 -6 -57 -47 -103 -90 -82 -78 -145 -117 -190 -118
-32 0 -45 40 -37 115 6 50 4 65 -10 78 -19 20 -29 21 -56 7 -16 -9 -19 -22
-19 -91 0 -126 28 -171 116 -185 57 -9 114 18 193 92 42 38 62 52 59 39 -3
-11 -27 -78 -53 -150 -25 -71 -55 -156 -65 -188 -30 -89 -96 -224 -152 -309
-42 -65 -48 -81 -38 -93 7 -8 16 -15 20 -15 51 0 210 299 305 575 35 99 75
209 90 243 25 61 26 65 9 83 -19 21 -40 24 -69 7z"/>
<path d="M18743 15300 c-65 -13 -105 -38 -101 -62 5 -36 31 -44 95 -29 32 8
105 16 161 18 102 5 104 5 93 -16 -6 -11 -55 -55 -109 -97 -53 -42 -105 -86
-114 -98 -40 -49 -6 -118 66 -132 20 -3 92 -4 159 -1 111 4 148 11 292 52 16
5 23 -2 37 -34 9 -24 30 -49 50 -61 66 -42 213 -10 213 46 0 20 -16 21 -128
12 -32 -2 -43 2 -63 25 -13 16 -24 38 -24 50 0 57 95 197 134 197 27 0 19 -14
-35 -63 -56 -51 -62 -80 -17 -85 22 -3 40 8 82 48 63 60 85 109 66 146 -16 29
-70 48 -115 40 -45 -9 -108 -80 -147 -164 -17 -37 -33 -69 -34 -71 -11 -13
-227 -52 -320 -57 -164 -10 -167 -3 -53 88 103 82 163 143 174 178 9 30 -20
59 -71 70 -48 11 -233 11 -291 0z"/>
<path d="M17344 15252 c-158 -55 -252 -165 -324 -381 -45 -134 -38 -191 22
-191 55 0 166 132 143 169 -11 19 -48 12 -77 -16 -35 -34 -36 -18 -3 66 52
134 114 205 230 262 50 24 72 30 116 27 43 -2 55 -7 57 -21 6 -33 -8 -67 -45
-108 -44 -49 -85 -71 -130 -71 -18 0 -43 -8 -56 -18 -21 -18 -22 -18 -3 -39
28 -30 98 -28 164 5 82 41 135 117 148 212 6 49 5 53 -29 87 -33 33 -39 35
-98 35 -35 -1 -87 -9 -115 -18z"/>
<path d="M19985 15239 c-138 -51 -257 -114 -302 -161 -78 -80 -85 -141 -22
-177 58 -32 112 16 63 56 l-28 22 42 41 c25 23 86 61 145 89 89 43 176 75 183
68 1 -1 -22 -35 -52 -76 -63 -86 -71 -131 -30 -170 51 -48 180 -20 257 55 45
43 68 41 85 -8 20 -58 41 -83 96 -113 73 -40 185 -47 245 -16 85 43 94 97 33
187 -22 33 -40 64 -40 70 0 24 64 39 160 37 55 -1 100 3 107 9 22 18 15 48
-14 59 -133 50 -267 24 -313 -62 -12 -21 4 -81 38 -146 26 -50 26 -53 9 -70
-14 -14 -34 -18 -96 -18 -66 0 -83 4 -114 25 -20 14 -37 30 -37 35 0 6 16 17
36 24 20 7 61 37 90 65 51 50 54 55 54 103 0 43 -4 53 -25 67 -13 9 -45 16
-70 16 -38 0 -51 -6 -87 -37 -22 -21 -52 -62 -64 -90 -13 -29 -28 -53 -34 -53
-5 0 -10 21 -10 46 0 39 -5 51 -32 78 -34 34 -131 77 -171 75 -12 0 -58 -14
-102 -30z m535 -82 c0 -19 -37 -51 -88 -76 -56 -28 -67 -24 -42 17 33 54 130
98 130 59z m-304 -15 c49 -40 29 -83 -58 -126 -67 -33 -118 -35 -118 -4 0 24
118 148 141 148 8 0 23 -8 35 -18z"/>
<path d="M5630 15213 c-110 -12 -221 -37 -300 -69 -98 -39 -133 -71 -110 -99
19 -23 57 -18 134 19 39 19 109 42 156 51 177 35 467 29 527 -10 35 -23 30
-68 -18 -150 -49 -84 -74 -115 -227 -282 -146 -160 -198 -227 -223 -292 -37
-98 -16 -151 76 -196 110 -54 305 -32 594 67 62 21 144 54 182 74 38 19 69 32
69 29 0 -3 -7 -20 -16 -38 -11 -19 -17 -58 -18 -103 -1 -70 0 -74 33 -108 48
-50 109 -71 201 -70 145 1 286 69 331 160 53 108 21 227 -93 350 -32 34 -58
66 -58 72 0 11 174 126 215 142 14 5 36 10 49 10 23 0 66 33 66 51 0 5 -11 15
-25 21 -14 6 -34 26 -45 45 -35 59 -168 104 -363 122 -124 12 -189 3 -253 -34
-70 -41 -68 -56 22 -147 44 -44 111 -102 151 -129 39 -27 74 -53 77 -58 4 -5
-15 -27 -41 -48 -26 -21 -84 -72 -128 -114 -72 -69 -83 -76 -112 -72 -22 4
-55 -4 -105 -25 -177 -74 -450 -142 -573 -145 -120 -2 -172 31 -162 102 7 57
57 126 223 306 80 88 167 188 192 223 52 74 91 163 92 210 0 43 -42 85 -108
106 -86 28 -287 42 -412 29z m1131 -283 c168 -17 299 -53 299 -81 0 -5 -44
-37 -99 -73 -54 -35 -102 -69 -105 -75 -18 -29 -59 -9 -159 78 -129 112 -142
127 -125 137 7 4 28 11 48 15 19 4 36 7 36 8 1 0 48 -4 105 -9z m141 -477 c45
-87 58 -123 58 -157 0 -85 -65 -142 -198 -172 -98 -22 -155 -13 -199 31 -49
49 -45 103 15 196 38 60 220 221 245 217 16 -2 36 -31 79 -115z"/>
<path d="M21777 15202 c-21 -24 -40 -80 -57 -169 -14 -79 -10 -103 18 -103 29
0 42 21 67 107 13 43 29 93 36 111 10 24 11 37 3 50 -15 24 -47 26 -67 4z"/>
<path d="M22755 15161 c-100 -45 -136 -142 -75 -203 29 -29 33 -30 103 -26 69
3 91 11 164 54 37 22 43 19 49 -32 5 -42 32 -87 56 -92 8 -2 26 6 39 17 l24
21 -42 36 c-46 38 -54 66 -28 100 8 10 15 27 15 36 0 23 -72 83 -119 96 -56
17 -140 14 -186 -7z m188 -70 c11 -11 -56 -58 -104 -71 -45 -13 -106 -13 -115
1 -9 16 36 58 82 75 40 15 120 12 137 -5z"/>
<path d="M26974 15155 c-38 -38 -20 -51 86 -59 97 -7 352 -49 393 -65 35 -13
42 -29 23 -50 -18 -20 -35 -29 -186 -99 -65 -30 -117 -62 -136 -83 -87 -95
-32 -136 244 -181 97 -15 224 -37 282 -48 58 -11 121 -20 141 -20 43 0 68 23
52 48 -11 20 -81 35 -388 87 -218 37 -275 50 -275 66 0 11 34 28 150 74 121
49 163 76 190 128 21 40 21 44 7 79 -8 20 -26 44 -40 53 -49 31 -366 95 -476
95 -32 0 -48 -6 -67 -25z"/>
<path d="M23412 15090 c-35 -17 -67 -30 -71 -30 -3 0 -11 10 -16 23 -15 34
-53 28 -87 -13 -42 -53 -52 -96 -27 -121 28 -28 49 -24 149 26 49 25 95 45
101 45 8 0 10 -13 6 -38 -6 -50 7 -72 43 -72 29 0 70 30 70 50 0 6 -11 16 -25
22 -18 8 -24 16 -19 27 14 32 16 82 4 96 -19 23 -58 18 -128 -15z"/>
<path d="M23663 15083 c-18 -7 -16 -49 3 -68 23 -23 88 -54 131 -63 47 -10 46
-21 -10 -117 -57 -97 -112 -169 -153 -200 -66 -51 -19 -100 52 -56 55 34 219
291 238 372 9 41 -26 79 -72 79 -39 0 -115 30 -126 49 -7 11 -41 14 -63 4z"/>
<path d="M4499 14836 c-8 -9 -376 -66 -496 -77 -95 -10 -151 -10 -247 0 -130
12 -168 7 -181 -28 -24 -63 233 -80 550 -36 214 30 391 70 430 99 16 12 17 16
6 30 -12 15 -52 22 -62 12z"/>
<path d="M25745 14736 c-26 -19 -10 -37 55 -60 57 -21 105 -16 141 13 l23 19
-46 21 c-54 24 -144 28 -173 7z"/>
<path d="M19193 14480 c-12 -5 -25 -21 -28 -35 -3 -14 -7 -37 -10 -52 -3 -16
-35 -95 -71 -177 -72 -164 -124 -310 -124 -349 0 -35 24 -53 54 -39 18 8 27
26 40 80 17 70 59 176 123 312 49 105 83 196 83 225 0 14 -8 29 -19 35 -22 11
-19 11 -48 0z"/>
<path d="M15825 14466 c-181 -45 -253 -197 -147 -309 56 -59 227 -135 387
-172 61 -14 69 -14 91 0 33 21 21 41 -34 55 -188 47 -338 113 -379 167 -50 65
-31 138 47 178 36 19 131 28 196 20 40 -5 64 -14 88 -36 40 -34 59 -36 86 -9
16 16 18 25 10 40 -15 29 -75 56 -151 69 -81 14 -129 13 -194 -3z"/>
<path d="M26835 14468 c-25 -14 -35 -28 -35 -50 0 -23 46 -35 155 -42 141 -8
337 -50 414 -89 115 -57 62 -129 -187 -248 -128 -61 -232 -142 -232 -180 0
-27 44 -73 87 -92 138 -60 625 -113 694 -77 21 12 26 49 7 54 -7 2 -86 9 -175
15 -168 12 -397 49 -471 78 -29 11 -42 21 -40 32 2 9 69 49 160 96 86 44 177
95 202 113 57 41 101 126 92 175 -6 33 -51 84 -92 105 -65 34 -456 123 -533
122 -15 0 -35 -6 -46 -12z"/>
<path d="M16451 14381 c-11 -11 -21 -26 -21 -32 0 -6 -14 -30 -31 -55 -40 -59
-46 -100 -19 -142 30 -49 92 -73 193 -75 45 0 99 5 119 12 118 40 96 176 -41
263 -52 33 -78 43 -122 46 -48 4 -60 1 -78 -17z m181 -73 c46 -60 71 -118 58
-134 -29 -34 -127 -43 -190 -18 -73 29 -65 95 14 133 26 12 49 28 52 36 10 25
40 17 66 -17z"/>
<path d="M20494 14315 c-141 -31 -213 -82 -221 -158 -7 -59 9 -86 107 -182
158 -153 182 -199 118 -226 -100 -42 -273 9 -324 97 -22 37 -25 53 -22 107 3
59 2 62 -21 65 -14 2 -33 -6 -50 -22 -14 -13 -39 -30 -54 -35 -27 -10 -28 -10
-21 11 30 88 -41 168 -149 168 -64 0 -112 -22 -137 -62 -20 -32 -22 -58 -8
-133 3 -18 -5 -21 -72 -28 -41 -4 -102 -5 -136 -2 -58 6 -124 35 -124 54 0 11
42 25 124 41 57 12 106 44 106 70 0 25 -57 68 -98 75 -61 10 -96 -1 -149 -49
-27 -23 -60 -50 -75 -59 -34 -22 -36 -44 -4 -59 14 -6 30 -23 36 -38 15 -37
46 -65 95 -86 52 -23 231 -23 330 -1 44 9 97 13 145 10 51 -3 91 0 124 11 27
8 53 13 56 11 4 -3 10 -18 13 -33 8 -37 63 -110 107 -139 51 -35 153 -63 229
-63 74 0 161 33 180 69 35 64 -15 165 -135 271 -45 39 -91 85 -103 101 -20 27
-20 31 -7 57 8 16 26 36 39 45 31 20 117 44 189 53 123 14 134 -4 124 -217 -6
-131 -5 -150 9 -155 9 -4 26 2 38 14 12 11 41 22 67 25 25 3 79 15 120 27 41
12 86 25 100 29 18 5 25 13 25 31 0 24 -3 25 -66 28 -48 2 -86 -4 -141 -21
l-76 -24 5 117 c5 109 4 121 -16 153 -39 64 -138 82 -277 52z m-1004 -235 c-8
-5 -22 -9 -30 -9 -10 0 -8 3 5 9 27 12 43 12 25 0z m440 -25 c33 -17 34 -19
20 -45 -27 -50 -131 -78 -164 -44 -20 20 -20 34 0 62 29 42 92 54 144 27z"/>
<path d="M17140 14303 c-54 -19 -147 -109 -174 -168 -11 -22 -32 -55 -47 -73
-19 -21 -29 -44 -29 -65 0 -18 -8 -62 -17 -99 -14 -56 -15 -69 -3 -83 13 -16
54 -14 73 4 4 5 17 50 28 101 26 127 86 251 140 290 55 40 179 66 179 37 0
-18 -31 -35 -123 -67 -44 -16 -87 -36 -96 -45 -14 -13 -14 -17 2 -32 16 -17
21 -17 84 0 142 37 238 100 231 151 -2 11 -18 31 -37 43 -27 19 -47 23 -100
22 -36 0 -86 -8 -111 -16z"/>
<path d="M25742 14288 c-18 -18 -14 -52 7 -65 27 -17 157 -49 271 -68 110 -17
273 -20 318 -4 32 11 49 36 34 51 -5 5 -62 11 -128 13 -126 4 -283 32 -374 65
-62 23 -110 26 -128 8z"/>
<path d="M17476 14261 c-15 -16 -15 -25 -5 -64 23 -92 100 -141 225 -141 74 0
88 3 167 41 l86 41 -19 -41 c-10 -23 -48 -112 -85 -197 -37 -85 -94 -204 -128
-263 -53 -96 -58 -110 -45 -123 11 -11 21 -12 40 -5 40 15 140 197 228 416 18
44 54 126 82 182 56 117 59 146 12 151 -24 2 -50 -9 -109 -47 -91 -60 -155
-81 -241 -81 -58 0 -64 2 -93 35 -19 22 -31 47 -31 63 0 51 -50 71 -84 33z"/>
<path d="M22138 14144 c-37 -19 -53 -51 -37 -70 15 -18 40 -18 107 3 63 20 75
38 43 65 -28 22 -76 23 -113 2z"/>
<path d="M23522 14145 c-12 -9 -29 -30 -38 -47 -14 -27 -14 -32 -1 -45 34 -34
135 33 125 84 -4 24 -56 29 -86 8z"/>
<path d="M23902 14099 c-27 -14 -59 -43 -85 -78 -52 -69 -54 -71 -100 -71 -69
0 -147 -50 -133 -85 9 -25 36 -29 85 -11 61 22 64 21 46 -14 -17 -33 -20 -66
-5 -75 17 -11 47 13 74 60 26 44 28 45 76 45 104 0 156 -44 148 -125 -4 -52
21 -69 55 -37 l24 23 21 -35 c15 -25 31 -38 60 -46 49 -13 92 1 92 29 0 25 -9
30 -61 39 l-42 7 24 28 c15 18 43 33 78 42 50 13 91 38 91 56 0 20 -35 39 -71
39 -70 0 -164 -67 -185 -132 -6 -19 -10 -13 -28 41 -27 82 -68 117 -155 134
-33 6 -61 14 -61 17 0 14 59 60 104 82 62 29 79 53 52 74 -27 19 -54 18 -104
-7z"/>
<path d="M21622 14064 c-51 -26 -56 -87 -9 -116 12 -8 57 -29 101 -47 135 -56
216 -119 216 -170 0 -61 -107 -115 -173 -87 -19 8 -38 19 -41 25 -11 17 -56
13 -63 -5 -18 -49 61 -104 150 -104 63 0 147 37 176 79 26 37 35 93 21 135
-20 63 -73 100 -267 187 -29 13 -53 27 -53 31 0 5 25 8 57 8 43 0 67 -6 101
-26 37 -22 48 -24 69 -15 17 8 23 18 21 34 -8 59 -228 111 -306 71z"/>
<path d="M24032 14040 c-36 -22 -58 -60 -49 -84 7 -17 62 -22 71 -7 3 5 26 18
51 30 25 12 48 28 52 36 16 44 -67 60 -125 25z"/>
<path d="M22926 14028 c-23 -33 -23 -260 0 -278 23 -20 57 -2 96 49 40 54 112
92 176 94 l47 2 3 -39 c2 -28 -4 -53 -22 -86 -40 -73 -32 -97 27 -77 51 17 99
147 78 210 -17 51 -54 71 -127 72 -51 0 -73 -6 -138 -39 -42 -21 -78 -37 -80
-35 -2 2 3 28 10 57 10 38 11 59 4 73 -14 26 -55 24 -74 -3z"/>
<path d="M22182 13987 c-6 -7 -16 -42 -21 -77 -6 -36 -18 -85 -27 -111 -22
-59 -14 -84 24 -74 35 8 58 38 77 102 24 81 30 140 15 158 -15 18 -54 20 -68
2z"/>
<path d="M22543 13920 c-87 -18 -159 -73 -151 -117 9 -47 135 -68 233 -38 27
8 50 13 52 11 5 -4 -127 -277 -149 -308 -15 -21 -28 -28 -52 -28 -46 0 -60
-20 -49 -66 10 -45 30 -59 68 -50 57 14 104 92 249 412 53 116 57 149 21 166
-21 9 -29 7 -61 -17 -32 -25 -36 -26 -30 -7 5 14 0 25 -16 36 -24 17 -50 18
-115 6z m117 -65 c0 -12 -76 -35 -114 -34 -37 0 -38 1 -17 10 14 5 47 14 75
18 28 5 52 9 54 10 1 0 2 -1 2 -4z"/>
<path d="M23495 13895 c-14 -13 -25 -33 -25 -43 0 -11 -9 -31 -21 -46 -26 -33
-21 -60 12 -64 38 -4 84 38 99 93 11 41 11 48 -5 65 -23 26 -31 25 -60 -5z"/>
<path d="M25237 13879 c-24 -31 -25 -32 -70 -20 -93 23 -167 6 -167 -39 0 -29
18 -35 107 -35 45 0 85 -3 89 -7 8 -9 -33 -74 -83 -128 -38 -43 -39 -70 0 -70
34 0 55 19 106 96 46 68 47 69 98 74 61 6 83 21 64 44 -7 8 -25 18 -41 21 -26
6 -29 10 -27 48 2 38 0 42 -24 45 -20 2 -33 -5 -52 -29z"/>
<path d="M24422 13877 c-27 -28 -28 -67 -3 -98 14 -18 31 -23 82 -27 35 -2 68
-8 74 -13 14 -13 52 -11 58 4 2 6 4 32 3 55 -1 42 -3 45 -56 73 -70 37 -127
39 -158 6z"/>
<path d="M24831 13811 c-26 -26 -71 -114 -71 -139 0 -52 62 -55 171 -7 48 21
93 34 112 32 27 -2 33 2 35 21 8 51 -52 67 -138 37 -50 -18 -56 -15 -38 14 28
45 -33 80 -71 42z"/>
<path d="M5745 13748 c-22 -11 -81 -62 -131 -112 -192 -193 -308 -490 -259
-668 24 -89 68 -146 141 -183 55 -28 66 -30 174 -30 134 0 199 17 289 75 100
65 191 180 191 241 0 29 -45 81 -92 105 -81 42 -246 40 -382 -5 -72 -24 -95
-43 -76 -65 17 -22 60 -20 160 5 139 35 281 12 297 -49 15 -59 -119 -173 -250
-214 -160 -49 -297 -17 -350 81 -15 27 -30 69 -33 94 -10 74 21 199 82 326 79
166 163 261 294 334 51 28 66 47 57 71 -9 23 -63 20 -112 -6z"/>
<path d="M25631 13671 c-24 -24 -27 -44 -8 -58 7 -6 131 -13 292 -16 305 -7
831 -47 1120 -87 39 -5 151 -19 250 -31 99 -11 268 -36 375 -55 148 -27 200
-33 217 -25 13 6 23 14 23 19 0 17 -35 39 -70 45 -19 3 -96 17 -170 31 -231
43 -478 77 -835 116 -44 5 -123 14 -175 19 -252 29 -576 53 -776 58 -217 6
-221 6 -243 -16z"/>
<path d="M4241 13656 c-7 -9 -15 -67 -18 -143 -3 -70 -10 -136 -15 -145 -10
-21 -92 -24 -281 -8 -100 8 -123 8 -148 -5 -34 -18 -40 -58 -10 -75 12 -6 103
-10 227 -10 l207 0 -8 -72 c-11 -106 -11 -281 -1 -295 13 -20 54 -15 66 7 7
12 10 82 9 181 -1 96 2 164 8 170 6 6 76 11 159 13 151 2 194 11 194 41 0 28
-39 35 -195 35 l-157 0 4 38 c3 20 15 85 28 144 12 59 20 114 17 122 -8 20
-70 21 -86 2z"/>
<path d="M6636 13574 c-56 -20 -104 -59 -137 -112 -37 -59 -41 -146 -8 -198
37 -61 142 -126 263 -163 77 -24 209 -28 263 -9 18 6 35 9 39 5 4 -3 -7 -48
-24 -99 -38 -115 -66 -238 -66 -298 -1 -41 1 -45 24 -45 31 0 70 56 70 101 0
18 22 120 49 227 44 175 53 200 89 248 45 61 87 143 122 237 26 72 19 92 -35
92 -58 0 -96 -59 -155 -239 l-37 -116 -49 -25 c-119 -61 -372 -4 -457 103 -25
32 -32 51 -32 83 0 68 24 93 144 148 38 18 50 44 27 62 -24 17 -39 17 -90 -2z"/>
<path d="M18820 13495 c-11 -13 -11 -26 -2 -66 32 -138 3 -399 -64 -571 -17
-43 -17 -49 -3 -64 13 -12 20 -13 42 -3 67 31 127 284 127 539 0 107 -3 140
-16 158 -18 26 -65 30 -84 7z"/>
<path d="M27365 13346 c-23 -17 -14 -46 18 -54 45 -11 209 -103 281 -156 92
-70 141 -124 171 -188 30 -65 22 -86 -40 -118 -42 -20 -63 -24 -135 -24 -245
2 -480 147 -480 297 0 51 11 75 69 140 57 65 62 82 27 98 -36 17 -77 -11 -124
-81 -112 -167 -61 -311 154 -438 89 -53 138 -70 253 -87 254 -39 416 68 360
236 -34 99 -210 250 -403 345 -95 47 -121 52 -151 30z"/>
<path d="M16838 12605 c-134 -49 -271 -219 -313 -387 -10 -37 -23 -72 -30 -78
-9 -7 -52 -4 -145 9 -98 15 -138 17 -155 9 -33 -15 -39 -38 -17 -60 14 -15 46
-21 160 -30 157 -13 149 -7 132 -88 -6 -25 -18 -91 -29 -147 -13 -66 -27 -112
-42 -132 -18 -25 -20 -33 -9 -46 18 -22 57 -18 84 8 27 27 43 104 56 259 4 53
11 102 15 108 8 13 15 13 295 -10 188 -15 329 -10 344 12 21 33 -7 41 -177 49
-147 8 -426 35 -434 43 -5 5 22 76 64 166 81 172 228 283 334 251 33 -10 39
-17 52 -59 9 -26 18 -59 21 -74 10 -47 72 -50 99 -6 8 11 0 36 -29 94 -34 68
-45 82 -84 102 -51 26 -133 29 -192 7z"/>
<path d="M17538 12530 c-82 -48 -150 -334 -181 -758 -5 -58 9 -86 38 -80 28 5
45 45 45 106 0 125 38 354 83 506 23 80 31 97 70 147 32 42 34 64 8 79 -24 12
-41 12 -63 0z"/>
<path d="M3860 12448 c-14 -8 -26 -23 -28 -34 -7 -50 -27 -49 827 -46 752 3
1131 -4 1436 -28 429 -32 785 -73 1150 -131 105 -17 222 -35 260 -40 39 -5 98
-14 131 -19 100 -16 168 -13 195 9 39 32 10 50 -98 61 -50 5 -229 30 -399 55
-170 26 -345 51 -389 56 -820 97 -1183 116 -2340 118 -341 0 -642 3 -670 6
-32 4 -59 1 -75 -7z"/>
<path d="M24355 12173 c-160 -167 -190 -202 -210 -239 l-15 -29 -217 -1 c-120
-1 -265 -6 -323 -11 -57 -4 -151 -5 -208 0 -87 7 -108 6 -128 -8 -26 -17 -31
-47 -11 -62 25 -21 267 -25 433 -7 114 12 198 14 297 10 141 -6 162 -12 217
-56 29 -23 177 -76 265 -94 58 -12 60 -13 57 -42 -2 -16 -11 -51 -21 -79 -20
-53 -69 -280 -72 -330 -4 -61 1 -93 19 -115 15 -19 22 -21 38 -12 16 9 19 23
20 99 1 60 10 122 28 193 15 58 31 129 36 159 14 83 30 101 93 101 72 1 126
15 151 39 19 20 19 22 4 38 -15 14 -25 15 -87 5 -38 -7 -77 -12 -85 -12 -22 0
-20 29 5 92 11 29 38 101 59 160 43 117 57 143 108 201 35 41 39 72 11 90 -28
18 -75 -10 -113 -67 -37 -57 -117 -268 -136 -361 -15 -74 -26 -95 -48 -95 -10
0 -69 17 -132 38 -97 33 -117 43 -130 68 -9 16 -26 30 -38 32 -12 2 -22 8 -22
14 0 6 79 90 175 186 96 97 175 183 175 192 0 22 -20 40 -43 40 -12 0 -71 -54
-152 -137z"/>
<path d="M17817 12289 c-21 -12 -47 -61 -47 -88 0 -30 35 -45 70 -31 35 14 68
94 49 117 -13 15 -47 17 -72 2z"/>
<path d="M210 12166 c-12 -34 -12 -36 0 -36 16 0 33 41 21 53 -7 7 -13 2 -21
-17z"/>
<path d="M20283 12107 c-77 -34 -138 -80 -170 -128 -26 -40 -28 -50 -26 -133
1 -80 6 -102 38 -181 66 -160 75 -186 70 -196 -10 -15 -156 -10 -230 10 -93
24 -141 48 -165 81 -11 16 -20 31 -20 34 0 3 36 3 80 -1 75 -6 81 -5 115 21
39 30 65 73 65 108 0 38 -43 102 -80 120 -43 22 -111 23 -149 3 -16 -8 -42
-31 -59 -52 l-30 -38 -60 58 c-58 54 -63 57 -112 57 -108 0 -185 -75 -240
-235 -34 -100 -21 -155 34 -141 26 6 38 32 54 118 24 129 91 203 166 184 40
-10 135 -115 142 -156 3 -19 8 -48 11 -64 8 -42 80 -115 138 -141 127 -57 298
-71 375 -32 73 36 72 49 -3 225 -36 83 -69 167 -72 185 -20 107 76 215 219
247 54 12 72 6 91 -30 13 -25 41 -218 33 -225 -2 -1 -25 -14 -53 -28 -66 -33
-97 -63 -93 -90 4 -31 49 -34 94 -7 19 12 38 20 41 16 3 -3 -2 -33 -11 -66
-17 -61 -15 -80 8 -80 26 0 50 43 61 108 9 56 15 69 36 79 41 20 174 33 328
33 122 0 151 3 161 16 11 12 10 18 -4 32 -14 15 -41 17 -204 17 -103 0 -212
-4 -244 -9 l-56 -8 5 81 c7 98 -8 159 -49 198 -26 25 -37 28 -106 31 -63 2
-87 -2 -129 -21z m-339 -338 c42 -33 33 -68 -27 -98 -47 -23 -49 -23 -92 -6
-25 9 -45 21 -45 27 0 22 36 68 64 82 42 21 69 20 100 -5z"/>
<path d="M18190 12041 c-125 -38 -193 -154 -236 -401 -11 -65 -17 -160 -18
-298 -1 -203 -1 -204 23 -223 62 -51 141 62 81 116 -28 26 -34 90 -21 248 22
255 54 368 125 443 39 40 47 44 92 44 68 0 147 -53 175 -116 20 -43 20 -44 1
-88 -34 -76 -137 -133 -161 -88 -24 45 -81 33 -81 -17 0 -21 10 -37 32 -56 28
-24 38 -27 80 -22 65 8 145 53 180 101 76 105 54 216 -60 300 -79 58 -148 76
-212 57z"/>
<path d="M26385 12030 c-131 -21 -388 -113 -437 -157 -21 -18 -24 -53 -6 -71
20 -20 52 -14 94 18 57 41 182 89 294 112 73 15 123 19 217 16 117 -4 124 -5
165 -34 24 -17 44 -40 46 -52 5 -34 -49 -102 -165 -208 -150 -137 -310 -301
-344 -353 -58 -89 -27 -174 78 -219 130 -56 244 -61 596 -27 172 17 229 30
253 56 16 18 16 21 2 36 -15 14 -26 14 -105 3 -229 -33 -517 -40 -629 -16 -86
18 -138 46 -142 74 -6 40 58 121 199 253 256 238 316 302 329 346 27 89 -19
162 -127 203 -67 25 -220 35 -318 20z"/>
<path d="M5875 12005 c-55 -21 -204 -135 -299 -229 -88 -88 -180 -223 -228
-336 -29 -66 -33 -86 -33 -165 0 -76 4 -98 26 -145 37 -80 104 -142 192 -179
105 -43 157 -53 282 -53 211 -1 417 76 496 185 41 57 39 100 -7 144 -47 44
-79 60 -158 78 -76 18 -251 21 -317 6 -138 -31 -271 -106 -256 -144 12 -32 38
-31 111 6 89 44 122 54 219 67 129 16 275 -10 330 -60 39 -35 33 -50 -37 -97
-75 -51 -222 -94 -342 -100 -156 -9 -268 18 -371 89 -203 139 -33 559 322 797
41 27 91 52 113 56 37 6 82 36 82 54 0 31 -70 46 -125 26z"/>
<path d="M6805 11938 c-32 -17 -76 -61 -91 -90 -16 -31 -18 -105 -4 -142 13
-36 109 -108 225 -171 119 -64 199 -92 306 -107 l79 -11 0 -32 c0 -18 -7 -92
-15 -166 -10 -85 -15 -198 -13 -309 l3 -175 26 -3 c37 -4 49 35 49 167 0 117
24 416 39 481 5 23 17 50 27 61 15 16 15 23 4 43 -11 21 -9 39 10 118 12 51
32 111 44 133 18 34 28 41 68 50 26 5 55 18 65 28 17 16 16 18 -3 38 -14 13
-39 22 -75 26 -49 5 -58 3 -86 -21 -63 -53 -99 -143 -120 -301 l-8 -60 -45 2
c-99 5 -333 103 -428 179 -66 52 -91 124 -54 156 9 9 38 25 65 36 34 15 47 27
47 41 0 37 -70 54 -115 29z"/>
<path d="M28137 11878 c-13 -14 -32 -49 -42 -79 -10 -30 -44 -106 -75 -169
-74 -147 -163 -371 -191 -480 -19 -72 -22 -110 -21 -245 1 -88 5 -176 9 -195
10 -38 32 -49 55 -26 12 12 14 41 10 163 -8 246 20 338 245 803 101 209 109
243 61 248 -19 2 -35 -4 -51 -20z"/>
<path d="M16794 11866 c-7 -29 1 -46 22 -46 11 0 14 9 12 32 -4 39 -25 48 -34
14z"/>
<path d="M17714 11803 c-15 -15 -16 -31 -10 -136 4 -65 10 -125 13 -133 12
-31 73 -25 86 9 3 8 1 34 -5 58 -5 24 -7 77 -3 117 7 80 -1 102 -41 102 -12 0
-30 -8 -40 -17z"/>
<path d="M4030 11525 c-21 -25 -2 -47 61 -69 48 -17 89 -19 364 -21 171 -1
333 -5 360 -9 43 -7 54 -5 75 12 20 16 23 23 13 33 -22 23 -182 38 -408 39
-121 0 -251 5 -290 11 -38 5 -90 12 -115 15 -36 5 -49 2 -60 -11z"/>
<path d="M225 11370 c-4 -6 -3 -16 3 -22 6 -6 12 -6 17 2 4 6 3 16 -3 22 -6 6
-12 6 -17 -2z"/>
<path d="M16280 11335 c-16 -19 -6 -45 18 -45 23 0 56 35 47 49 -9 16 -51 13
-65 -4z"/>
<path d="M23362 11028 c-16 -16 -15 -43 1 -57 26 -21 102 -42 272 -77 294 -59
426 -76 1090 -134 193 -17 433 -39 535 -50 207 -22 542 -56 944 -95 248 -24
472 -50 766 -89 196 -26 553 -65 840 -91 512 -47 726 -75 1030 -134 256 -50
327 -65 415 -91 82 -24 95 -24 119 -7 24 17 14 50 -18 65 -47 21 -376 94 -616
136 -198 34 -510 71 -850 101 -157 14 -325 29 -375 34 -49 6 -117 13 -150 16
-62 6 -438 51 -510 60 -22 3 -71 10 -110 16 -106 15 -293 35 -695 74 -201 20
-464 46 -585 60 -121 13 -398 40 -615 60 -538 48 -772 72 -920 95 -182 28
-418 79 -469 101 -50 22 -82 24 -99 7z"/>
<path d="M214 10986 c-9 -23 0 -51 16 -51 10 0 15 10 15 29 0 32 -21 47 -31
22z"/>
<path d="M214 10856 c-6 -26 1 -46 17 -46 5 0 9 16 9 35 0 40 -17 47 -26 11z"/>
<path d="M16445 10767 c-20 -31 -10 -57 22 -57 22 0 24 4 21 37 -4 44 -21 53
-43 20z"/>
<path d="M4207 10638 c-14 -11 -17 -43 -21 -233 -6 -265 -9 -285 -45 -285 -38
0 -162 28 -274 62 -80 25 -103 29 -123 19 -40 -18 -27 -70 23 -89 52 -21 187
-51 277 -62 49 -6 93 -13 98 -16 13 -8 10 -37 -11 -116 -11 -40 -27 -142 -35
-227 -9 -85 -21 -170 -28 -188 -10 -28 -10 -36 3 -49 17 -16 60 -7 75 18 8 11
22 126 52 429 5 47 12 91 16 98 15 24 101 9 431 -76 167 -43 188 -49 375 -108
150 -48 190 -51 190 -14 0 24 -30 38 -240 107 -316 104 -406 129 -585 162 -66
12 -126 24 -132 26 -17 5 -16 39 2 100 19 66 38 294 29 362 -4 33 -14 62 -25
73 -22 22 -30 23 -52 7z"/>
<path d="M224 10626 c-8 -22 3 -33 18 -18 9 9 9 15 0 24 -9 9 -13 7 -18 -6z"/>
<path d="M5974 10592 c-19 -13 -31 -45 -48 -132 -9 -47 -30 -132 -46 -190 -27
-96 -61 -241 -95 -395 -7 -33 -25 -129 -40 -212 -29 -161 -27 -183 15 -183 32
0 52 36 60 113 5 41 16 112 25 158 19 101 157 658 187 751 17 55 18 71 8 83
-13 16 -47 20 -66 7z"/>
<path d="M24680 10559 c-30 -5 -82 -22 -115 -38 -33 -16 -88 -40 -123 -54
-199 -79 -342 -225 -342 -350 0 -198 263 -324 503 -243 96 33 226 104 293 161
100 86 172 249 155 353 -10 63 -60 123 -128 153 -50 23 -167 32 -243 18z m203
-93 c57 -24 90 -69 95 -130 4 -47 0 -62 -28 -115 -19 -35 -58 -85 -91 -115
-66 -61 -210 -137 -309 -162 -162 -41 -321 19 -360 135 -28 85 18 164 143 248
99 66 179 93 271 93 92 -1 144 -27 189 -94 39 -60 60 -75 85 -60 9 6 19 21 20
34 5 29 -73 111 -145 152 -29 16 -53 32 -53 35 0 11 150 -7 183 -21z"/>
<path d="M215 10421 c-6 -11 16 -101 26 -101 13 0 20 82 8 96 -13 16 -25 18
-34 5z"/>
<path d="M26782 10281 c-114 -43 -187 -110 -195 -181 -2 -25 -11 -67 -19 -95
-17 -60 -10 -125 18 -163 12 -15 45 -40 75 -57 45 -24 65 -29 124 -29 135 0
247 70 305 188 57 115 53 191 -13 263 -75 82 -193 111 -295 74z m121 -91 c35
-30 70 -39 82 -20 3 6 17 10 29 10 51 0 58 -92 15 -190 -37 -83 -101 -132
-201 -150 -68 -13 -113 -4 -154 32 -31 27 -34 35 -34 82 0 85 76 214 148 252
42 22 78 17 115 -16z"/>
<path d="M7040 10244 c-116 -77 -213 -197 -314 -385 -31 -58 -72 -120 -92
-138 -38 -35 -40 -51 -7 -65 15 -7 22 -22 26 -57 14 -115 103 -202 272 -264
134 -50 282 -41 424 25 183 86 196 197 45 376 -46 54 -126 102 -207 124 -67
18 -201 7 -311 -25 -49 -14 -91 -24 -93 -21 -7 7 56 100 126 189 61 76 81 94
186 160 60 38 81 81 50 103 -28 21 -45 17 -105 -22z m184 -484 c66 -25 136
-97 173 -176 30 -65 25 -86 -30 -128 -85 -65 -277 -95 -392 -61 -78 22 -127
48 -176 92 -48 44 -64 73 -72 132 -7 59 2 74 64 100 135 59 335 77 433 41z"/>
<path d="M28000 10239 c-98 -15 -208 -87 -237 -156 -48 -117 37 -255 212 -344
102 -51 198 -67 293 -50 80 15 110 30 151 76 28 33 31 42 31 104 0 148 -87
260 -258 332 -94 39 -133 47 -192 38z m130 -108 c19 -10 52 -21 73 -25 74 -14
158 -119 172 -217 6 -40 4 -49 -20 -77 -90 -108 -400 -36 -495 115 -49 76 -39
134 31 184 59 42 180 52 239 20z"/>
<path d="M30815 10092 c-60 -16 -129 -38 -151 -50 -103 -53 -218 -196 -231
-288 -12 -87 49 -180 134 -203 144 -40 455 50 571 166 75 75 104 132 103 200
-1 78 -31 122 -114 163 -92 45 -170 48 -312 12z m237 -67 c53 -8 108 -62 108
-106 0 -80 -76 -170 -184 -219 -79 -36 -255 -80 -319 -80 -65 0 -131 31 -146
69 -10 23 -8 37 8 82 23 59 74 129 96 129 8 0 53 20 99 45 58 30 98 45 123 45
21 0 52 9 69 19 33 20 69 30 94 25 8 -1 32 -5 52 -9z"/>
<path d="M217 10076 c-3 -8 0 -22 7 -31 11 -15 13 -15 25 -1 11 13 11 19 1 31
-16 19 -26 19 -33 1z"/>
<path d="M228 9944 c-9 -8 6 -57 19 -61 12 -4 24 33 16 53 -5 14 -25 19 -35 8z"/>
<path d="M225 9691 c-6 -11 9 -23 19 -14 9 9 7 23 -3 23 -6 0 -12 -4 -16 -9z"/>
<path d="M226 9542 c-8 -13 11 -35 23 -28 16 10 14 36 -3 36 -8 0 -17 -4 -20
-8z"/>
<path d="M28106 9447 c-20 -14 -20 -16 3 -163 12 -82 24 -167 27 -189 3 -22 5
-178 4 -346 0 -267 2 -308 15 -319 29 -24 47 9 51 92 16 381 16 466 0 671 -10
116 -20 223 -24 237 -9 30 -47 38 -76 17z"/>
<path d="M230 9405 c0 -24 5 -35 15 -35 16 0 18 12 9 48 -10 34 -24 26 -24
-13z"/>
<path d="M24358 9396 c-102 -37 -197 -124 -253 -233 -28 -54 -30 -66 -30 -163
0 -101 1 -107 35 -170 47 -87 117 -152 215 -200 109 -54 179 -71 320 -77 137
-6 203 4 291 46 141 66 204 174 204 347 0 112 -30 195 -94 259 -68 69 -139 96
-266 102 -88 5 -98 8 -141 39 -26 19 -66 41 -89 49 -52 18 -142 19 -192 1z
m186 -81 c20 -8 36 -19 36 -24 0 -5 -33 -26 -74 -46 -82 -40 -122 -76 -113
-99 10 -24 48 -19 98 13 61 38 106 52 165 50 27 -1 59 3 71 9 50 27 170 4 240
-47 80 -58 112 -193 78 -332 -15 -60 -25 -80 -59 -114 -135 -135 -533 -122
-713 24 -74 60 -112 128 -120 215 -12 128 41 240 150 318 62 44 176 60 241 33z"/>
<path d="M26900 9347 c-85 -31 -120 -49 -208 -110 -95 -66 -165 -144 -209
-236 -30 -63 -36 -85 -36 -142 0 -176 70 -254 267 -296 133 -28 304 2 417 72
73 46 163 146 200 221 29 59 34 79 34 141 -1 65 -4 76 -31 110 -73 90 -153
118 -344 118 -114 0 -140 -3 -164 -18 -52 -34 -29 -42 110 -39 246 7 354 -47
354 -176 0 -195 -264 -383 -499 -357 -134 15 -215 52 -250 116 -21 36 -22 48
-16 116 9 99 30 146 100 221 108 117 264 202 370 202 46 0 59 -5 88 -30 38
-33 68 -38 87 -15 19 23 -14 64 -73 94 -69 34 -120 36 -197 8z"/>
<path d="M234 9306 c-9 -25 0 -61 16 -61 10 0 16 12 18 38 2 28 0 37 -13 37
-8 0 -18 -6 -21 -14z"/>
<path d="M30697 9223 c-9 -19 12 -710 22 -736 9 -23 16 -28 39 -25 l27 3 3
210 c8 559 10 500 -17 529 -23 24 -65 35 -74 19z"/>
<path d="M3950 9195 c-32 -39 20 -77 135 -99 141 -26 580 -68 1075 -101 52 -4
185 -15 295 -26 110 -11 245 -24 300 -29 900 -84 1242 -124 1591 -185 344 -60
635 -99 670 -91 13 4 29 16 35 28 10 18 8 24 -11 40 -17 14 -40 18 -104 18
-71 0 -197 18 -671 96 -49 8 -157 23 -240 34 -82 11 -161 22 -175 25 -22 4
-184 20 -555 55 -310 28 -751 72 -975 95 -74 8 -223 21 -330 30 -479 38 -817
77 -912 105 -79 24 -111 25 -128 5z"/>
<path d="M230 9049 c-9 -15 -9 -28 0 -48 11 -27 10 -137 -2 -156 -5 -9 -3
-120 2 -135 2 -3 1 -9 0 -15 -6 -23 2 -101 11 -110 6 -6 15 -4 25 6 13 14 13
20 0 60 -10 30 -13 55 -7 80 5 20 5 57 1 82 -4 25 -4 51 0 58 6 9 7 158 1 192
-2 14 -21 7 -31 -14z"/>
<path d="M5824 8692 c-5 -4 -34 -42 -63 -85 -30 -42 -70 -96 -91 -120 -64 -73
-123 -168 -136 -219 -17 -64 -4 -138 34 -192 60 -87 214 -178 322 -191 93 -11
93 -3 6 -208 -52 -124 -76 -221 -59 -238 6 -6 23 -9 36 -5 21 5 29 19 52 93
15 49 46 144 69 213 l42 125 44 13 c107 32 180 77 180 112 0 29 -21 29 -95 -1
-38 -16 -73 -29 -77 -29 -18 0 -9 22 102 255 69 144 96 177 174 214 70 33 85
60 47 81 -56 30 -135 0 -194 -74 -43 -55 -149 -267 -167 -338 -30 -112 -42
-138 -67 -144 -67 -17 -237 50 -310 122 -111 112 -87 187 151 468 47 55 76 98
76 112 0 33 -48 56 -76 36z"/>
<path d="M6771 8604 c-67 -18 -114 -46 -142 -85 -28 -39 -23 -114 12 -184 29
-60 210 -244 326 -332 43 -33 84 -67 90 -75 10 -12 -2 -28 -64 -89 -181 -176
-247 -328 -198 -455 20 -53 16 -58 -45 -68 -39 -6 -97 -40 -114 -68 -14 -22
17 -116 92 -283 30 -66 62 -142 72 -170 48 -131 90 -236 119 -298 18 -37 31
-71 29 -76 -2 -4 -35 -36 -74 -69 -119 -102 -200 -228 -212 -327 -13 -117 61
-225 201 -294 103 -50 187 -72 292 -74 69 -2 86 1 104 17 27 25 27 41 -5 112
-15 33 -41 100 -60 149 -79 213 -106 283 -140 353 -19 40 -33 79 -31 86 6 14
386 213 470 246 33 13 65 34 74 47 14 22 14 25 -2 43 -10 11 -26 20 -36 20
-24 0 -291 -135 -414 -209 -110 -66 -135 -74 -135 -38 0 27 -21 93 -71 223
-21 56 -39 104 -39 108 0 8 -60 145 -107 246 -20 40 -38 91 -41 112 -4 37 -3
38 39 58 68 31 114 25 158 -19 10 -10 49 -33 87 -51 55 -26 87 -34 159 -39
110 -9 143 -25 253 -124 48 -43 85 -47 90 -11 2 17 -12 33 -56 68 -33 25 -71
51 -86 57 -14 7 -26 16 -26 20 0 5 22 20 49 33 72 37 117 94 125 160 8 72 0
106 -45 201 -46 97 -148 233 -235 314 -35 33 -64 65 -64 70 0 6 21 25 48 42
121 83 232 185 232 214 0 26 -18 45 -42 45 -10 0 -69 -48 -131 -106 -169 -159
-143 -157 -300 -18 -323 288 -359 360 -214 425 46 21 67 24 182 23 207 0 444
-62 538 -140 32 -27 59 -31 76 -10 50 60 -194 178 -454 221 -113 19 -263 18
-334 -1z m412 -799 c200 -261 243 -337 254 -448 l6 -63 -42 -36 c-42 -36 -98
-58 -147 -58 -16 0 -67 15 -114 33 -47 19 -123 46 -168 61 -97 33 -122 60
-122 137 0 100 44 187 167 331 100 117 107 119 166 43z m-171 -1577 c25 -98
106 -327 130 -372 7 -12 20 -43 29 -71 25 -72 9 -78 -124 -46 -269 66 -368
211 -265 391 35 62 166 200 189 200 11 0 23 -29 41 -102z"/>
<path d="M240 8525 c0 -8 5 -15 10 -15 6 0 10 7 10 15 0 8 -4 15 -10 15 -5 0
-10 -7 -10 -15z"/>
<path d="M231 8456 c-16 -30 -7 -46 25 -46 27 0 29 5 12 43 -16 33 -21 34 -37
3z"/>
<path d="M241 8387 c-12 -16 -1 -98 13 -98 6 0 15 18 22 41 10 34 10 43 -3 55
-18 18 -18 18 -32 2z"/>
<path d="M4058 8309 c-22 -12 -23 -52 -4 -68 28 -23 323 -79 631 -121 127 -17
280 -38 340 -46 61 -9 161 -18 222 -21 100 -5 113 -4 119 11 15 39 -14 47
-332 86 -458 57 -697 98 -880 150 -79 23 -74 22 -96 9z"/>
<path d="M24616 8249 c-61 -15 -171 -77 -235 -133 -121 -106 -172 -207 -174
-346 -3 -172 82 -281 272 -350 319 -117 707 -6 816 233 91 200 16 387 -198
492 -77 37 -105 46 -172 51 -53 5 -96 15 -126 30 -55 27 -129 37 -183 23z m4
-109 c-80 -43 -147 -101 -136 -119 12 -19 39 -12 96 25 71 45 134 62 245 68
105 5 169 -6 244 -43 169 -81 224 -239 142 -405 -35 -71 -72 -105 -164 -153
-127 -64 -320 -81 -478 -42 -192 49 -267 119 -283 264 -18 175 121 365 313
426 92 29 101 21 21 -21z"/>
<path d="M234 8239 c-9 -16 6 -158 18 -165 16 -10 29 18 24 54 -3 18 0 44 6
58 9 19 8 28 -7 44 -20 23 -31 25 -41 9z"/>
<path d="M26756 8187 c-15 -11 -17 -21 -11 -48 15 -74 16 -266 1 -441 -31
-359 -29 -448 9 -448 33 0 42 42 54 240 6 107 15 221 21 253 14 90 24 297 16
361 -11 81 -47 115 -90 83z"/>
<path d="M30797 8076 c-26 -8 -86 -33 -135 -57 -136 -68 -296 -232 -276 -284
10 -26 81 -56 122 -53 44 4 53 27 22 58 -19 19 -20 25 -9 52 26 64 239 185
334 190 48 3 50 2 53 -26 3 -27 -37 -121 -79 -186 -99 -153 -163 -254 -188
-300 -97 -175 -101 -193 -46 -216 19 -7 47 -14 63 -14 29 0 43 6 212 99 52 28
124 66 159 83 72 37 101 69 81 93 -7 8 -22 15 -34 15 -11 0 -96 -36 -189 -81
-92 -44 -177 -79 -188 -77 -20 3 -20 4 4 49 14 26 54 87 89 135 90 126 173
269 194 337 17 55 17 58 -2 104 -33 79 -93 105 -187 79z"/>
<path d="M246 8053 c-3 -3 -6 -24 -6 -45 0 -27 4 -38 15 -38 11 0 15 11 15 39
0 38 -10 57 -24 44z"/>
<path d="M28155 8000 c-4 -6 0 -21 9 -34 15 -23 15 -24 -34 -28 -59 -6 -104
-35 -145 -92 -26 -35 -30 -52 -34 -119 -3 -67 0 -84 23 -130 35 -72 76 -111
161 -153 125 -62 247 -58 351 11 123 81 123 225 1 353 -53 55 -274 202 -303
202 -13 0 -26 -5 -29 -10z m55 -154 c24 -10 43 -11 66 -4 43 11 73 -4 136 -69
47 -49 88 -126 88 -167 0 -64 -95 -136 -180 -136 -102 0 -232 67 -265 137 -24
49 -31 144 -15 183 27 65 96 87 170 56z"/>
<path d="M246 7911 c-5 -8 -8 -63 -6 -121 0 -8 -3 -46 -9 -85 -7 -54 -6 -73 4
-84 20 -20 38 -3 31 30 -3 15 -2 30 2 33 13 8 9 229 -5 233 -6 2 -14 0 -17 -6z"/>
<path d="M230 7518 c0 -48 13 -98 25 -98 17 0 26 37 18 83 -4 27 -10 37 -24
37 -13 0 -19 -7 -19 -22z"/>
<path d="M237 7319 c-7 -56 9 -139 25 -139 6 0 8 12 5 28 -4 19 1 38 13 57 14
22 16 32 8 49 -6 12 -14 27 -18 35 -14 32 -27 19 -33 -30z"/>
<path d="M4535 7250 c-17 -19 -26 -68 -70 -405 -9 -71 -20 -134 -24 -138 -5
-4 -17 -8 -27 -9 -30 -1 -355 70 -420 92 -67 23 -120 28 -135 13 -17 -17 -6
-54 21 -74 31 -23 254 -73 420 -94 68 -9 127 -18 129 -21 2 -2 -8 -59 -22
-126 -14 -68 -28 -150 -31 -183 -3 -33 -13 -84 -22 -112 -14 -43 -15 -55 -4
-68 17 -20 43 -19 63 3 24 26 57 208 57 314 0 70 16 125 41 138 15 9 48 4 142
-19 234 -57 448 -95 478 -86 28 9 21 47 -11 56 -14 4 -65 16 -115 27 -49 12
-146 34 -215 50 -69 17 -156 36 -193 43 -37 7 -72 18 -77 25 -7 7 -4 33 9 75
23 76 36 142 51 264 6 50 18 108 26 130 21 55 21 95 -1 111 -26 19 -49 17 -70
-6z"/>
<path d="M250 7150 c0 -11 5 -20 10 -20 6 0 10 9 10 20 0 11 -4 20 -10 20 -5
0 -10 -9 -10 -20z"/>
<path d="M24690 7089 c-121 -31 -238 -100 -281 -165 -13 -21 -15 -32 -7 -41
17 -20 28 -16 91 33 91 72 189 106 317 112 219 9 408 -78 482 -223 26 -50 34
-152 18 -228 -40 -195 -325 -390 -570 -390 -153 0 -246 41 -286 126 -29 64
-31 123 -4 209 26 84 85 165 156 214 54 37 60 39 149 42 75 3 97 8 110 22 13
15 14 23 6 39 -15 27 -48 35 -129 29 -88 -6 -169 -45 -236 -112 -97 -97 -150
-219 -148 -341 1 -58 7 -81 34 -134 57 -111 166 -165 334 -164 194 1 378 78
520 218 119 118 172 255 153 393 -12 82 -45 145 -111 213 -140 142 -387 204
-598 148z"/>
<path d="M248 7063 c-1 -16 -3 -46 -5 -68 -2 -22 -3 -50 -3 -62 1 -13 1 -47 1
-75 0 -29 0 -111 0 -183 0 -71 0 -140 0 -152 -3 -171 4 -353 14 -376 5 -12 1
-24 -10 -37 -17 -19 -17 -22 0 -60 16 -36 17 -46 5 -98 -8 -31 -13 -102 -12
-157 1 -125 11 -306 17 -322 2 -7 0 -15 -5 -18 -5 -3 -7 -98 -4 -218 5 -253 5
-567 0 -576 -2 -3 0 -28 5 -55 7 -36 5 -60 -7 -97 -11 -34 -13 -53 -6 -62 6
-8 9 -98 6 -252 -2 -132 -3 -253 -3 -270 6 -174 2 -755 -4 -771 -5 -12 -4 -38
4 -65 7 -24 12 -51 11 -59 -2 -8 -5 -94 -7 -190 -3 -96 -7 -180 -10 -187 -2
-7 0 -24 6 -36 7 -16 7 -44 0 -92 -13 -80 -13 -75 -5 -133 7 -50 26 -62 55
-36 17 15 19 26 15 59 -6 43 -6 115 -1 500 2 138 -1 267 -6 287 -6 25 -6 45 3
63 9 21 9 31 0 46 -9 14 -10 25 -1 40 8 15 8 28 -1 49 -7 17 -9 38 -4 52 4 13
9 86 10 163 1 77 3 149 4 160 1 11 -2 99 -5 195 -7 205 -6 273 4 338 4 26 3
61 -1 77 -5 17 -8 73 -8 125 1 52 1 131 0 175 0 44 -1 103 0 130 0 28 -1 79
-2 115 -1 36 0 75 1 88 3 41 3 75 -3 377 -7 420 -8 670 0 699 3 13 1 27 -4 30
-6 4 -8 28 -5 59 4 28 6 66 5 82 -1 17 -2 46 -1 65 2 55 1 72 -6 125 -4 28 -5
59 -4 70 1 11 1 81 0 155 -3 289 -2 340 3 349 8 13 -11 61 -24 61 -5 0 -11
-12 -12 -27z"/>
<path d="M26846 7027 c-16 -11 -17 -27 -14 -132 4 -112 -2 -336 -17 -671 -5
-120 -4 -142 9 -153 30 -25 44 -6 51 66 3 37 12 131 21 208 8 77 18 255 23
395 6 209 5 259 -6 278 -15 25 -40 28 -67 9z"/>
<path d="M30625 6955 c-38 -7 -108 -20 -154 -28 -92 -17 -104 -24 -99 -58 2
-18 13 -27 43 -37 36 -12 51 -11 150 14 127 31 299 43 334 24 18 -9 21 -17 16
-38 -14 -57 -75 -138 -183 -243 -88 -84 -113 -114 -110 -131 4 -33 45 -48 136
-52 106 -5 202 -37 254 -86 36 -35 39 -42 33 -72 -10 -47 -29 -80 -76 -135
-94 -109 -225 -169 -394 -180 -109 -7 -136 -22 -96 -54 18 -15 40 -19 102 -19
168 0 302 55 422 174 127 126 157 225 93 309 -53 69 -166 124 -278 134 -32 3
-58 10 -58 15 0 4 39 48 86 96 97 99 154 190 154 245 0 48 -53 109 -108 125
-51 15 -178 14 -267 -3z"/>
<path d="M28262 6823 c-18 -16 -22 -36 -31 -177 -15 -213 -14 -339 3 -471 19
-148 34 -190 66 -190 21 0 26 5 28 35 2 19 -4 72 -13 117 -23 108 -17 418 11
570 15 84 16 104 5 117 -18 21 -44 20 -69 -1z"/>
<path d="M24815 5870 c-16 -18 -17 -34 -6 -242 6 -123 12 -263 14 -311 3 -66
8 -92 20 -105 14 -13 21 -14 35 -6 15 10 17 39 18 333 0 314 0 323 -20 337
-27 19 -40 18 -61 -6z"/>
<path d="M3319 5801 c-116 -6 -149 -16 -149 -47 0 -7 11 -21 25 -30 23 -15 47
-16 198 -10 211 8 1060 10 1177 2 47 -3 139 -8 205 -11 238 -9 513 -26 665
-40 85 -7 247 -19 360 -25 113 -6 225 -13 250 -15 46 -5 339 -30 535 -45 230
-18 453 -41 535 -55 47 -8 166 -26 265 -40 213 -30 291 -42 365 -55 30 -6 98
-17 150 -25 52 -8 120 -19 150 -25 393 -75 639 -125 704 -141 105 -25 150 -25
176 3 11 12 20 25 20 29 0 18 -34 30 -111 39 -76 10 -347 57 -539 95 -92 18
-248 45 -525 90 -342 56 -396 64 -485 70 -47 3 -114 10 -150 15 -257 38 -593
73 -1000 105 -107 8 -244 20 -305 25 -60 5 -177 14 -260 20 -82 6 -231 17
-330 25 -227 18 -522 34 -785 44 -255 9 -985 10 -1141 2z"/>
<path d="M27080 5684 c-34 -10 -73 -13 -103 -9 -61 7 -117 -8 -186 -52 -105
-66 -201 -174 -267 -302 -33 -63 -38 -80 -38 -144 -1 -66 2 -77 28 -111 36
-47 109 -83 191 -91 239 -26 599 299 621 561 8 84 -6 114 -67 145 -45 23 -103
23 -179 3z m164 -97 c18 -25 19 -31 7 -75 -61 -232 -318 -455 -521 -455 -74 0
-114 17 -154 63 -31 37 -32 63 -8 128 28 74 88 159 170 242 69 69 75 73 83 54
13 -36 25 -36 85 -4 61 32 98 37 138 18 22 -9 29 -8 46 7 12 10 19 24 16 31
-8 20 6 25 63 22 46 -3 57 -7 75 -31z"/>
<path d="M30684 5628 c-49 -23 -181 -260 -169 -305 10 -41 81 -108 145 -137
91 -41 155 -45 224 -13 30 14 58 23 60 19 2 -4 0 -27 -4 -52 -14 -70 -12 -100
6 -107 20 -7 47 24 39 45 -2 7 2 29 10 48 8 19 21 64 30 99 8 36 22 93 30 128
20 86 33 213 23 232 -11 18 -64 20 -75 3 -4 -7 -13 -75 -19 -151 -7 -75 -17
-144 -24 -152 -16 -19 -113 -55 -150 -55 -75 0 -203 73 -216 124 -8 34 8 64
85 156 39 46 71 90 71 97 0 7 -9 17 -19 23 -23 12 -20 12 -47 -2z"/>
<path d="M28454 5616 c-3 -8 8 -34 24 -58 43 -63 98 -175 122 -252 36 -110 11
-171 -84 -211 -125 -52 -321 112 -328 274 -2 37 3 55 17 71 53 59 138 65 212
16 45 -30 70 -31 87 -3 16 25 0 45 -64 81 -128 72 -303 12 -331 -114 -21 -92
35 -219 135 -307 68 -60 129 -87 207 -91 57 -4 73 0 125 26 84 42 117 88 122
168 3 46 -1 77 -17 119 -30 80 -111 230 -143 265 -29 32 -75 40 -84 16z"/>
<path d="M5276 5319 c-115 -38 -260 -108 -311 -149 -101 -80 -108 -136 -26
-217 84 -84 301 -177 498 -212 57 -10 107 -21 110 -25 3 -3 -6 -45 -22 -93
-59 -189 -95 -336 -95 -387 0 -27 6 -51 16 -60 18 -18 60 -21 69 -6 4 6 8 50
10 98 2 61 12 117 33 187 17 55 36 127 42 161 7 34 15 66 19 73 5 8 55 12 157
14 120 2 155 6 182 20 34 19 40 38 18 56 -11 9 -29 10 -72 2 -69 -13 -254 -15
-254 -2 0 35 118 282 153 319 12 13 43 35 68 48 53 27 65 46 42 70 -24 23 -94
13 -137 -20 -58 -44 -144 -205 -181 -339 -9 -32 -23 -61 -32 -64 -8 -3 -39 0
-67 7 -321 80 -525 178 -526 252 0 49 204 154 384 198 44 11 83 25 88 32 19
30 3 52 -47 62 -20 4 -59 -4 -119 -25z"/>
<path d="M29913 5215 c-18 -8 -33 -20 -33 -27 1 -42 49 -58 181 -58 187 0 303
40 255 88 -12 12 -27 13 -102 2 -79 -11 -192 -9 -249 5 -11 3 -35 -2 -52 -10z"/>
<path d="M4575 4974 c-144 -34 -426 -90 -522 -104 -122 -18 -341 -8 -423 19
-77 25 -120 16 -120 -25 0 -56 126 -89 335 -89 187 1 315 21 675 110 234 58
256 67 243 102 -7 19 -71 15 -188 -13z"/>
<path d="M24820 4910 c-6 -11 -24 -106 -40 -212 -16 -106 -41 -267 -55 -357
-28 -179 -29 -218 -3 -235 31 -19 46 12 63 129 8 61 19 130 24 155 6 25 24
124 42 220 17 96 35 185 40 198 13 33 11 96 -3 110 -19 19 -56 14 -68 -8z"/>
<path d="M6569 4842 c-110 -70 -179 -217 -159 -338 12 -75 44 -130 119 -205
112 -111 258 -169 431 -169 159 0 294 49 400 147 122 112 169 289 104 391 -44
69 -168 144 -284 173 -81 21 -339 18 -410 -3 -30 -9 -65 -20 -77 -24 -18 -5
-23 -2 -23 13 0 23 -18 43 -40 43 -9 0 -36 -13 -61 -28z m631 -90 c88 -26 138
-53 180 -97 32 -33 35 -41 35 -98 0 -112 -79 -228 -195 -287 -235 -119 -540
-64 -676 121 -68 93 -66 234 5 319 29 34 30 34 50 16 23 -21 36 -19 123 13 88
32 151 40 288 36 86 -2 145 -9 190 -23z"/>
<path d="M26954 4790 c-131 -30 -215 -82 -276 -171 -119 -173 -120 -391 -1
-514 84 -89 242 -134 365 -105 82 20 182 82 234 148 60 76 75 112 81 203 5 62
2 86 -15 132 -62 166 -143 278 -224 312 -46 19 -62 18 -164 -5z m162 -82 c41
-32 59 -55 94 -120 78 -144 91 -256 40 -344 -61 -107 -174 -176 -289 -176
-244 -2 -372 209 -265 436 54 114 114 160 259 199 115 31 126 32 161 5z"/>
<path d="M30790 4778 c-14 -8 -26 -22 -28 -33 -7 -32 26 -45 108 -45 85 0 143
-15 138 -36 -5 -23 -109 -145 -196 -230 -57 -56 -83 -88 -80 -100 4 -25 41
-29 89 -10 63 26 113 21 152 -14 19 -16 40 -43 47 -59 11 -27 8 -38 -38 -133
-45 -93 -137 -232 -164 -249 -6 -4 -42 -7 -79 -7 -37 0 -78 -4 -91 -8 -37 -11
-76 -45 -89 -75 -23 -58 11 -76 75 -38 25 15 40 18 53 11 12 -6 36 -6 70 1 45
9 55 8 71 -6 44 -40 77 -6 47 49 l-18 33 60 68 c33 37 66 80 74 94 8 15 27 50
43 79 24 45 29 69 33 149 5 95 4 96 -25 131 -31 38 -78 65 -126 75 l-28 6 64
67 c68 70 101 121 96 150 -1 9 3 27 10 40 16 29 2 56 -39 78 -42 21 -196 30
-229 12z"/>
<path d="M28427 4728 c-12 -10 -18 -36 -22 -103 -3 -49 -10 -112 -16 -139 -5
-27 -16 -142 -24 -255 -8 -113 -16 -228 -18 -254 -3 -36 0 -54 14 -70 17 -21
19 -21 35 -5 13 13 20 51 30 170 19 220 34 332 80 606 3 19 0 40 -7 48 -14 17
-50 18 -72 2z"/>
<path d="M30535 4439 c-112 -34 -461 -101 -543 -104 -55 -2 -99 -8 -108 -16
-21 -18 -13 -51 16 -66 51 -26 114 -17 490 72 217 52 265 70 265 100 0 17 -7
20 -45 22 -25 1 -58 -2 -75 -8z"/>
<path d="M24830 3995 c-9 -11 -10 -47 -5 -142 4 -72 2 -183 -4 -253 -10 -119
-23 -383 -25 -499 -1 -41 3 -56 16 -65 35 -21 46 10 52 145 3 70 8 139 11 155
3 16 12 114 20 219 18 234 20 426 3 443 -17 17 -53 15 -68 -3z"/>
<path d="M4116 3943 c-4 -4 -4 -43 0 -88 8 -99 -13 -191 -86 -391 -29 -76 -67
-181 -85 -232 -40 -111 -50 -125 -84 -117 -36 9 -360 167 -430 209 -78 48
-131 46 -131 -5 0 -24 36 -48 196 -127 119 -59 194 -91 337 -144 15 -6 27 -17
27 -24 0 -8 -15 -44 -34 -81 -39 -77 -90 -238 -81 -253 9 -15 51 -12 67 4 8 7
34 77 58 156 25 82 50 145 59 148 16 6 55 -4 146 -38 106 -39 331 -90 555
-124 27 -4 60 9 60 24 0 11 -96 41 -205 65 -44 9 -125 30 -180 46 -55 16 -122
36 -150 43 -155 45 -195 59 -195 71 0 7 27 68 60 136 33 68 64 138 69 154 6
17 26 75 47 130 60 164 75 224 77 316 2 73 -1 90 -17 108 -18 20 -65 28 -80
14z"/>
<path d="M6782 3719 c-82 -10 -226 -51 -260 -74 -29 -21 -28 -53 2 -66 20 -9
38 -7 98 14 128 44 174 50 334 45 133 -5 158 -9 237 -36 151 -53 222 -106 198
-150 -17 -31 -103 -90 -178 -121 -400 -166 -586 -270 -628 -352 -21 -40 -19
-55 17 -105 85 -118 238 -197 807 -414 173 -66 186 -69 208 -55 25 17 30 47
11 62 -7 5 -67 29 -133 52 -424 152 -705 281 -787 363 -27 26 -48 56 -48 67 0
35 174 139 352 210 135 54 341 151 375 177 19 14 45 43 60 65 30 46 28 100 -5
146 -50 70 -255 153 -424 172 -108 12 -131 12 -236 0z"/>
<path d="M26950 3650 c-14 -14 -20 -33 -20 -63 0 -47 -27 -252 -36 -277 -3 -8
-9 -89 -14 -180 -9 -152 -8 -166 9 -183 21 -21 47 -14 55 16 3 12 6 51 6 87 1
74 13 187 30 275 6 33 15 85 20 115 5 30 14 88 21 129 13 69 12 74 -6 87 -26
19 -41 18 -65 -6z"/>
<path d="M30829 3639 c-18 -19 -47 -56 -66 -84 -76 -112 -130 -186 -157 -214
-34 -35 -32 -66 7 -95 27 -20 43 -21 271 -24 214 -3 244 -1 256 13 11 14 10
19 -7 36 -17 17 -40 22 -159 30 -76 5 -173 10 -214 11 -58 2 -75 6 -78 18 -1
9 26 47 61 86 70 78 137 181 137 210 0 11 -4 25 -9 33 -8 12 -16 8 -42 -20z"/>
<path d="M30322 3514 c-127 -43 -265 -65 -324 -52 -89 19 -99 20 -113 8 -21
-18 -18 -54 6 -76 18 -16 37 -19 138 -18 111 0 121 2 246 45 135 47 219 91
212 112 -7 23 -62 17 -165 -19z"/>
<path d="M28265 3508 c-92 -81 -63 -400 48 -516 45 -48 78 -62 142 -62 131 0
187 87 151 231 -29 113 -132 249 -189 249 -26 0 -67 -38 -67 -61 0 -8 -5 -20
-12 -27 -9 -9 -9 -15 1 -24 10 -11 16 -9 28 10 9 12 24 22 35 22 44 0 120
-131 126 -220 4 -49 1 -60 -23 -88 -90 -107 -223 79 -214 297 3 64 8 85 27
108 52 65 55 72 42 88 -18 22 -65 18 -95 -7z"/>
<path d="M30666 2912 c-23 -27 -76 -296 -68 -350 4 -33 27 -40 27 -10 0 9 8
24 16 35 9 10 19 34 22 53 14 85 38 167 62 212 21 39 24 52 15 63 -17 21 -54
19 -74 -3z"/>
<path d="M28335 2586 c-31 -47 -73 -193 -89 -308 -18 -137 -41 -491 -32 -513
7 -21 42 -19 52 3 4 9 8 37 9 62 3 82 26 294 41 380 28 152 44 211 79 281 40
79 42 94 16 109 -32 17 -60 12 -76 -14z"/>
<path d="M24837 2512 c-14 -16 -17 -43 -17 -173 0 -85 -5 -250 -11 -367 -11
-192 -10 -215 4 -230 15 -14 18 -13 31 20 21 49 55 375 56 528 0 52 5 114 10
138 18 75 -31 131 -73 84z"/>
<path d="M30030 2424 c-131 -29 -184 -30 -233 -4 -45 24 -73 25 -85 3 -28 -49
55 -103 157 -103 66 0 109 8 237 46 93 28 120 44 111 68 -9 22 -56 19 -187
-10z"/>
<path d="M248 2313 c-26 -31 -29 -42 -18 -64 17 -31 21 -194 8 -268 -11 -56
-10 -67 5 -93 12 -21 14 -34 7 -43 -5 -7 -9 -41 -8 -76 1 -35 -1 -79 -6 -96
-6 -27 -5 -33 8 -33 12 0 14 -5 6 -25 -5 -13 -7 -46 -3 -73 3 -29 1 -58 -6
-70 -9 -16 -9 -27 -1 -43 7 -12 8 -25 3 -32 -8 -11 -8 -156 0 -344 3 -82 18
-109 38 -72 17 30 16 187 -1 228 -9 22 -9 38 -1 63 6 18 13 111 16 206 5 168
5 172 -15 172 -11 0 -20 7 -20 15 0 8 4 15 10 15 17 0 40 58 40 100 0 23 -8
55 -17 71 -14 24 -15 36 -6 76 6 26 12 80 12 118 1 39 4 77 7 86 2 9 -4 27
-14 39 -18 23 -18 24 0 62 18 37 18 40 1 68 -20 35 -25 36 -45 13z"/>
<path d="M6745 2284 c-181 -6 -691 -26 -735 -30 -25 -2 -400 -8 -835 -14 -434
-5 -907 -13 -1050 -16 -257 -6 -453 2 -658 28 -85 11 -97 10 -121 -5 -30 -20
-33 -38 -8 -60 13 -12 72 -19 256 -33 228 -17 261 -17 725 -1 277 10 704 17
991 17 278 0 591 4 695 10 615 30 902 33 1255 16 307 -15 547 -33 650 -50 19
-3 80 -13 135 -21 55 -9 134 -25 177 -36 42 -10 90 -19 106 -19 53 0 66 45 19
68 -63 32 -424 90 -692 112 -280 22 -723 39 -910 34z"/>
<path d="M26943 2188 c-6 -7 -13 -67 -17 -133 -12 -224 -27 -341 -59 -452 -13
-45 -13 -54 0 -72 16 -24 36 -27 51 -8 16 19 59 236 78 397 27 228 28 245 9
263 -20 20 -49 22 -62 5z"/>
<path d="M4925 1760 c-90 -8 -111 -15 -125 -40 -13 -24 -3 -48 22 -56 11 -3
66 0 124 7 127 15 327 7 404 -16 71 -21 155 -72 169 -101 12 -27 -4 -72 -41
-115 -24 -28 -160 -119 -266 -179 -97 -55 -154 -93 -166 -112 -28 -46 57 -95
323 -188 299 -105 390 -155 421 -230 28 -67 -58 -168 -210 -249 -151 -80 -359
-141 -479 -141 -74 0 -99 -21 -62 -51 88 -71 523 57 706 208 85 70 117 119
123 189 6 70 -9 104 -68 157 -68 61 -139 96 -350 171 -240 86 -290 106 -290
117 0 10 21 24 125 79 118 63 183 108 247 171 94 93 99 174 16 256 -110 107
-322 149 -623 123z"/>
<path d="M14704 1685 c-4 -9 -2 -21 4 -27 15 -15 44 -1 40 19 -4 23 -36 29
-44 8z"/>
<path d="M6355 1524 c-16 -9 -41 -26 -53 -38 -21 -19 -23 -27 -17 -71 10 -79
42 -160 112 -289 71 -130 174 -304 204 -348 11 -14 19 -31 19 -38 0 -7 -19
-37 -43 -68 -83 -111 -112 -180 -127 -301 -16 -125 15 -236 93 -333 28 -36 34
-38 85 -38 l55 0 -55 53 c-62 60 -85 103 -100 188 -15 87 4 193 53 294 46 95
64 119 81 112 13 -5 132 -331 143 -392 3 -16 6 -64 7 -106 1 -62 -3 -83 -20
-113 l-21 -36 49 0 c45 0 51 3 66 32 16 31 21 167 8 227 -8 38 -54 180 -71
221 -27 65 -88 181 -100 192 -7 6 -13 21 -13 34 0 47 144 111 224 101 39 -6
74 5 88 27 12 17 10 24 -12 46 -16 16 -33 20 -80 20 -67 0 -131 -21 -203 -68
-27 -17 -54 -29 -61 -26 -7 3 -27 35 -45 72 -18 37 -68 128 -111 203 -98 172
-140 266 -140 317 0 35 3 41 30 50 72 25 234 -51 523 -247 143 -96 169 -111
200 -111 41 0 46 26 11 60 -69 66 -424 291 -550 348 -89 40 -183 51 -229 26z"/>
<path d="M18356 1297 c-22 -16 -18 -65 7 -81 43 -27 75 52 31 80 -17 12 -23
12 -38 1z"/>
<path d="M11817 1176 c-4 -10 2 -21 16 -30 33 -22 145 -39 208 -32 44 5 68 2
113 -15 57 -22 58 -22 132 -5 54 13 92 16 134 11 56 -6 60 -6 60 13 0 50 -93
66 -214 38 -44 -11 -66 -11 -85 -3 -14 5 -82 14 -151 18 -69 4 -143 11 -166
14 -33 6 -42 4 -47 -9z"/>
<path d="M3397 1092 c-26 -28 -21 -59 11 -76 25 -13 143 -41 272 -65 102 -20
349 -41 469 -41 103 0 122 3 142 19 22 18 23 21 8 36 -12 12 -48 18 -150 25
-272 18 -439 43 -607 91 -121 34 -124 34 -145 11z"/>
<path d="M242 908 c-9 -26 -8 -135 2 -188 4 -19 9 -50 12 -67 3 -20 11 -33 20
-33 37 0 45 137 9 164 -18 13 -17 14 3 44 27 37 28 64 4 85 -25 23 -41 21 -50
-5z"/>
<path d="M248 538 c-4 -43 -1 -69 8 -83 18 -25 18 -35 -1 -35 -18 0 -18 -4 -5
-49 5 -19 6 -39 1 -45 -12 -15 -20 -155 -10 -162 13 -8 11 -68 -2 -81 -15 -15
10 -73 32 -73 25 0 52 36 44 59 -3 12 -11 21 -16 21 -15 0 -10 32 7 51 14 15
14 20 1 41 -16 24 -21 84 -8 92 4 3 7 68 7 144 -1 123 -3 143 -20 161 -11 12
-22 21 -26 21 -4 0 -10 -28 -12 -62z"/>
<path d="M31045 109 c-22 -5 -85 -11 -141 -12 -67 -1 -106 -7 -117 -15 -9 -8
-21 -11 -26 -7 -20 12 -204 13 -277 1 -84 -13 -94 -31 -18 -31 69 0 77 -11 14
-19 -95 -13 -101 -25 -13 -25 71 -1 82 1 87 17 5 16 18 19 81 20 65 2 75 0 85
-18 9 -17 21 -20 84 -20 76 0 93 10 80 45 -10 24 32 18 56 -8 16 -16 33 -22
68 -23 26 0 144 -4 262 -8 235 -8 235 -8 143 45 -94 55 -113 60 -222 64 -58 3
-124 0 -146 -6z"/>
<path d="M32515 89 c-22 -4 -63 -8 -92 -8 -57 -1 -75 -14 -43 -31 14 -8 26 -8
41 0 14 8 24 8 33 1 13 -11 88 -13 149 -5 31 5 37 10 37 30 0 22 -4 24 -42 23
-24 -1 -61 -5 -83 -10z"/>
<path d="M32233 73 c-7 -3 -13 -11 -13 -19 0 -24 114 -15 118 9 3 15 -3 17
-45 16 -26 -1 -54 -4 -60 -6z"/>
<path d="M32085 63 c-27 -3 -57 -11 -66 -19 -11 -9 -18 -11 -26 -3 -9 9 -42
12 -95 9 -10 0 -34 0 -54 1 -40 1 -69 -17 -41 -26 9 -3 25 -8 35 -12 9 -3 58
-7 107 -8 67 -2 94 2 107 13 15 12 20 12 33 2 12 -10 21 -10 42 -1 18 8 29 9
37 1 17 -17 46 -12 46 10 0 21 -29 41 -57 38 -10 -1 -40 -3 -68 -5z"/>
<path d="M30247 49 c-11 -6 -32 -9 -48 -7 -34 5 -46 -6 -29 -27 17 -20 204
-22 198 -2 -3 6 -18 14 -34 15 -16 2 -33 10 -37 18 -9 17 -25 17 -50 3z"/>
<path d="M29968 45 c-9 -9 -202 -16 -393 -13 -16 0 -79 -2 -140 -5 -60 -4
-174 -7 -253 -8 -78 -1 -145 -5 -148 -10 -3 -5 228 -9 550 -9 499 0 556 2 556
16 0 10 -8 15 -22 13 -13 -1 -30 1 -38 4 -21 8 -107 17 -112 12z"/>
<path d="M31607 33 c-4 -3 -7 -12 -7 -20 0 -15 48 -17 70 -3 13 9 13 11 0 20
-17 11 -54 13 -63 3z"/>
<path d="M31721 31 c-33 -9 -39 -31 -9 -31 24 0 48 16 48 32 0 9 -5 9 -39 -1z"/>
<path d="M30575 10 c-4 -6 8 -10 29 -10 20 0 36 5 36 10 0 6 -13 10 -29 10
-17 0 -33 -4 -36 -10z"/>
</g>
</svg>
