<?xml version="1.0" standalone="no"?>
<!DOCTYPE svg PUBLIC "-//W3C//DTD SVG 20010904//EN"
 "http://www.w3.org/TR/2001/REC-SVG-20010904/DTD/svg10.dtd">
<svg version="1.0" xmlns="http://www.w3.org/2000/svg"
 width="3152.000000pt" height="1852.000000pt" viewBox="0 0 3152.000000 1852.000000"
 preserveAspectRatio="xMidYMid meet">
<metadata>
Created by potrace 1.12, written by Peter Selinger 2001-2015
</metadata>
<g transform="translate(0.000000,1852.000000) scale(0.100000,-0.100000)"
fill="#000000" stroke="none">
<path d="M5647 18163 c-3 -5 -8 -44 -11 -88 -4 -44 -9 -99 -13 -122 l-5 -43
-52 0 c-36 0 -68 -8 -101 -25 -49 -24 -49 -24 -67 -5 -25 26 -46 25 -58 -2 -6
-13 -14 -30 -20 -38 -5 -8 -19 -41 -31 -73 -20 -55 -22 -57 -39 -42 -20 18
-46 11 -60 -16 -16 -28 -12 -122 6 -147 34 -48 72 -18 114 93 40 107 39 103
39 74 1 -35 33 -74 54 -66 8 3 17 18 19 34 3 24 7 28 30 25 72 -9 264 46 313
89 42 37 46 74 14 126 -24 39 -18 54 34 73 66 25 97 45 97 62 0 14 -8 18 -37
18 -39 0 -142 -45 -150 -67 -13 -34 -19 -7 -11 53 7 47 6 70 -3 80 -12 15 -55
19 -62 7z m86 -298 c-5 -15 -53 -38 -61 -30 -3 3 -1 26 6 50 7 25 12 55 12 68
0 15 7 7 24 -27 13 -27 22 -55 19 -61z m-133 -19 c0 -2 2 -11 6 -19 5 -15 -48
-34 -111 -39 -41 -4 -46 25 -8 46 25 13 113 23 113 12z"/>
<path d="M6797 18077 c-132 -69 -164 -99 -137 -132 12 -15 27 -17 100 -12 47
3 93 2 103 -2 18 -7 18 -8 2 -21 -25 -21 -80 -53 -142 -84 -47 -24 -83 -58
-83 -78 0 -25 88 7 203 74 86 50 109 74 105 113 -4 40 -42 57 -124 57 -70 -1
-73 4 -22 29 83 42 116 52 163 53 39 1 50 5 53 19 6 29 -17 47 -59 47 -29 0
-73 -17 -162 -63z"/>
<path d="M6486 17971 c-9 -16 -18 -65 -22 -110 l-7 -81 -51 0 c-66 -1 -130
-30 -156 -72 -27 -45 -26 -54 14 -94 39 -39 72 -43 130 -19 56 24 46 49 -22
53 -62 4 -79 24 -43 54 32 25 101 24 135 -3 43 -34 62 -22 58 36 -2 28 5 91
14 142 9 50 14 98 11 107 -10 26 -45 19 -61 -13z"/>
<path d="M6029 17685 c-30 -16 -79 -83 -79 -108 0 -9 -7 -17 -15 -17 -43 0
-145 -136 -145 -193 0 -43 54 -63 64 -25 23 88 58 148 86 148 9 0 27 -11 40
-25 40 -43 134 -27 116 20 -3 8 -17 15 -31 15 -35 0 -31 16 8 36 31 17 42 27
73 71 20 29 10 59 -26 78 -36 18 -57 18 -91 0z m38 -80 c-42 -37 -65 -32 -30
7 9 10 26 18 37 18 19 -1 19 -2 -7 -25z"/>
<path d="M4889 17593 c-80 -41 -189 -138 -189 -168 0 -10 23 -41 51 -67 58
-54 58 -69 5 -95 -40 -18 -52 -39 -35 -59 37 -45 149 41 149 115 0 17 5 19 35
14 31 -5 39 -1 85 46 36 37 56 50 69 46 26 -8 49 21 33 43 -7 10 -28 50 -47
90 -42 87 -50 89 -156 35z m91 -97 c0 -36 -32 -86 -56 -86 -27 0 -13 60 24
103 23 26 32 21 32 -17z m-116 -3 c-4 -16 -11 -33 -16 -40 -5 -6 -6 -28 -2
-47 l6 -36 -41 27 c-22 14 -41 30 -41 34 0 6 90 89 98 89 1 0 -1 -12 -4 -27z"/>
<path d="M5599 17544 c-10 -13 -11 -29 -1 -83 6 -37 14 -75 17 -83 5 -13 -4
-15 -62 -11 -121 9 -173 -31 -157 -122 9 -57 69 -115 117 -115 33 0 47 12 47
41 0 6 -16 17 -36 25 -37 16 -71 72 -59 101 10 29 97 11 160 -32 51 -35 57
-37 71 -23 15 14 14 23 -4 99 -11 46 -24 110 -27 142 -5 41 -13 60 -26 67 -23
13 -24 13 -40 -6z"/>
<path d="M4649 17373 c-8 -10 -24 -39 -37 -64 -13 -26 -41 -66 -63 -89 -38
-41 -41 -42 -66 -29 -23 12 -27 11 -44 -10 -24 -29 -24 -63 -1 -84 38 -34 87
-13 153 65 41 48 55 71 106 171 24 45 -17 78 -48 40z"/>
<path d="M6393 17340 c-48 -11 -119 -56 -144 -92 -20 -28 -21 -33 -8 -57 15
-26 30 -35 107 -67 84 -34 81 -43 -34 -123 -73 -51 -89 -83 -46 -89 35 -5 177
91 201 135 30 56 4 95 -92 137 -31 14 -57 30 -57 34 0 14 34 41 81 65 29 14
44 29 44 41 0 23 -10 26 -52 16z"/>
<path d="M8796 17268 c-16 -24 -64 -181 -97 -313 -11 -44 -31 -108 -45 -143
-15 -38 -24 -78 -22 -100 3 -32 6 -37 28 -37 22 0 26 6 34 50 5 28 22 88 38
135 94 267 127 361 133 370 4 6 4 22 1 36 -8 32 -50 33 -70 2z"/>
<path d="M5131 17262 c-5 -9 -12 -34 -15 -55 -3 -20 -9 -54 -12 -74 l-6 -36
-22 28 c-15 19 -28 26 -40 22 -23 -9 -31 -36 -17 -59 6 -10 21 -44 33 -76 25
-68 35 -82 59 -82 28 0 37 28 44 124 6 97 13 136 25 136 4 0 20 -24 35 -52 36
-69 53 -88 82 -88 29 0 40 25 21 48 -9 9 -30 44 -47 77 -18 33 -42 70 -54 83
-25 27 -72 29 -86 4z"/>
<path d="M10976 17208 c-23 -89 -55 -179 -88 -252 -40 -87 -40 -89 -25 -122
19 -39 60 -55 83 -32 13 13 12 18 -5 40 l-20 25 40 77 c59 115 93 224 80 253
-11 25 -59 33 -65 11z"/>
<path d="M3821 17161 c-17 -11 -51 -97 -51 -128 0 -13 -4 -23 -9 -23 -5 0 -41
-33 -80 -72 -43 -45 -74 -69 -79 -63 -5 6 -14 42 -22 80 -14 77 -23 95 -51 95
-35 0 -37 -78 -4 -173 18 -52 19 -83 3 -94 -27 -17 -136 -150 -157 -190 -26
-52 -26 -68 -1 -93 29 -29 60 -11 60 33 0 46 94 187 124 187 6 0 22 -43 36
-95 24 -99 36 -119 67 -113 28 5 27 47 -6 161 -17 58 -31 111 -31 118 0 7 15
27 33 44 17 18 49 53 70 79 21 25 43 46 48 46 5 0 9 -19 10 -42 0 -63 24 -185
39 -203 35 -42 91 -1 146 108 l32 62 9 -34 c12 -47 53 -77 82 -62 27 15 27 29
-1 58 -19 20 -22 35 -23 119 -1 91 -8 113 -36 114 -14 0 -34 -35 -69 -123 -21
-51 -48 -109 -60 -130 -37 -63 -45 -37 -45 153 0 169 -6 198 -34 181z"/>
<path d="M8473 17130 c-53 -18 -143 -84 -143 -102 0 -6 -16 -28 -36 -50 -48
-53 -118 -206 -137 -298 -29 -139 -29 -135 -9 -160 32 -40 55 -21 88 75 24 72
27 88 16 105 -9 16 -10 30 -2 60 12 44 25 57 43 42 16 -14 98 2 156 30 55 26
143 113 171 168 25 50 26 111 2 133 -24 22 -84 21 -149 -3z m93 -45 c25 -63
-132 -212 -263 -250 -32 -9 -29 5 13 86 28 52 51 81 98 118 34 26 68 50 76 54
29 11 71 7 76 -8z"/>
<path d="M6066 17111 c-10 -11 -28 -43 -40 -73 -48 -112 -61 -138 -70 -138 -5
0 -6 22 -3 49 6 53 -3 71 -40 71 -34 0 -45 -33 -41 -120 3 -82 22 -120 58
-120 27 0 71 40 87 79 40 100 59 141 66 141 4 0 10 -13 13 -30 6 -30 45 -80
62 -80 5 0 15 7 22 15 10 12 9 22 -3 52 -8 21 -17 59 -21 84 -7 46 -36 89 -60
89 -7 0 -21 -9 -30 -19z"/>
<path d="M4203 17109 c-18 -5 -39 -19 -48 -31 -22 -32 -19 -91 5 -113 28 -26
135 -7 168 30 28 33 30 90 3 104 -29 16 -93 21 -128 10z"/>
<path d="M7302 17100 c-69 -29 -132 -93 -132 -136 0 -12 20 -48 45 -80 25 -32
44 -62 42 -68 -2 -5 -21 -19 -43 -30 -51 -27 -189 -35 -219 -13 -18 14 -17 17
34 68 53 55 71 84 71 120 0 24 -40 44 -74 35 -55 -14 -136 -112 -136 -165 0
-22 -43 -56 -83 -66 -24 -6 -28 -3 -43 34 -31 78 -77 73 -133 -12 -17 -26 -28
-34 -35 -27 -17 17 -45 11 -60 -12 -8 -14 -17 -65 -21 -123 -8 -112 1 -133 49
-121 20 5 29 18 45 69 17 55 67 176 77 186 2 2 15 -11 29 -28 33 -39 83 -42
150 -9 l45 22 41 -23 c37 -21 50 -23 147 -19 120 5 187 29 225 80 20 27 20 29
3 65 -10 21 -32 55 -49 76 -36 47 -33 57 39 104 67 45 76 53 71 66 -5 15 -55
19 -85 7z"/>
<path d="M4892 17063 c-5 -10 -12 -58 -15 -107 -6 -80 -9 -93 -33 -115 -14
-14 -28 -21 -30 -16 -2 6 -13 25 -24 43 -40 65 -96 23 -66 -50 20 -46 50 -68
97 -68 30 0 43 7 65 33 43 51 57 95 57 177 0 42 -3 86 -7 98 -9 26 -32 29 -44
5z"/>
<path d="M9015 17033 c-29 -8 -122 -82 -182 -146 -63 -66 -74 -100 -45 -130
30 -30 80 -25 147 12 30 17 56 31 57 31 2 0 2 -19 0 -43 -3 -31 1 -47 13 -57
22 -18 35 -2 60 70 10 30 31 73 47 94 33 47 35 62 9 76 -27 14 -26 14 -64 -20
-45 -39 -167 -110 -190 -110 -53 0 90 123 170 146 63 18 76 39 44 66 -24 18
-31 20 -66 11z"/>
<path d="M10383 17003 c-16 -21 -48 -68 -72 -105 -56 -88 -71 -100 -71 -60 0
73 -64 62 -76 -13 -7 -52 10 -88 52 -107 35 -16 67 10 129 104 115 174 130
210 89 216 -15 2 -30 -8 -51 -35z"/>
<path d="M10604 17008 c-91 -98 -113 -161 -74 -203 32 -34 48 -32 97 17 42 41
43 42 43 16 0 -14 7 -31 16 -38 26 -22 42 7 55 102 13 94 5 124 -31 113 -11
-3 -20 1 -24 10 -9 26 -50 17 -82 -17z"/>
<path d="M11122 16997 c-6 -7 -14 -51 -18 -98 -6 -82 -5 -87 17 -108 36 -33
87 -26 116 18 27 40 31 99 6 108 -16 6 -31 -7 -60 -53 -9 -15 -11 -6 -6 47 4
53 2 68 -11 82 -21 20 -30 21 -44 4z"/>
<path d="M11464 17000 c-32 -13 -82 -77 -89 -114 -11 -57 3 -92 52 -136 51
-45 94 -60 170 -60 45 0 58 5 88 32 34 29 36 35 32 77 -3 25 -8 59 -12 74 -11
43 16 67 76 67 96 0 68 52 -29 54 -51 1 -64 -3 -86 -23 -33 -31 -40 -68 -21
-121 18 -51 13 -73 -20 -88 -33 -15 -114 -1 -154 27 -37 27 -40 41 -7 41 31 0
72 48 86 101 10 35 9 44 -6 60 -18 20 -45 23 -80 9z"/>
<path d="M9394 16923 c-75 -70 -113 -159 -86 -199 27 -41 137 -57 198 -28 32
15 35 15 67 -5 22 -14 59 -22 113 -27 69 -6 87 -4 128 15 67 29 56 46 -30 47
-191 3 -196 5 -133 71 61 64 79 92 79 125 0 50 -65 64 -129 27 -48 -27 -82
-78 -89 -135 -4 -41 -9 -48 -38 -60 -43 -18 -78 -18 -93 0 -18 21 11 71 73
128 43 40 49 51 40 65 -20 32 -47 26 -100 -24z m225 -72 c-22 -30 -39 -40 -39
-23 0 11 51 64 57 58 3 -2 -5 -18 -18 -35z"/>
<path d="M5685 16928 c-62 -31 -114 -87 -127 -135 -9 -38 -15 -44 -47 -51 -20
-5 -57 -14 -84 -20 -26 -7 -53 -12 -61 -12 -7 0 -23 27 -35 60 -17 46 -28 61
-46 66 -50 12 -57 -18 -26 -108 l19 -55 -21 -22 c-17 -17 -19 -25 -11 -39 6
-9 21 -17 32 -17 29 -1 32 -6 40 -61 8 -52 29 -68 58 -43 13 11 15 26 9 86 -8
84 -12 79 105 106 64 14 65 14 91 -10 36 -33 89 -46 138 -33 66 18 112 66 80
85 -5 4 -32 -3 -60 -14 -38 -17 -54 -19 -69 -11 -31 16 -24 33 23 54 54 26
137 110 137 140 0 55 -70 71 -145 34z m27 -88 c-58 -54 -91 -67 -71 -27 17 35
71 76 99 76 23 0 21 -4 -28 -49z"/>
<path d="M4262 16888 c-18 -18 -15 -35 29 -180 22 -73 43 -144 47 -158 5 -15
16 -26 29 -28 26 -4 40 19 84 145 44 121 53 129 79 67 41 -100 66 -128 94
-105 24 20 20 37 -29 139 -38 79 -48 92 -69 92 -32 0 -80 -61 -110 -137 -12
-32 -26 -58 -31 -58 -10 0 -64 150 -64 181 -1 11 -9 28 -19 37 -22 20 -25 20
-40 5z"/>
<path d="M6175 16623 c-11 -3 -35 -16 -53 -30 -28 -21 -32 -30 -31 -66 0 -23
-3 -69 -6 -102 -6 -52 -4 -63 15 -87 47 -61 177 -23 270 79 55 60 63 94 33
140 -35 52 -148 85 -228 66z m128 -78 c54 -37 50 -62 -20 -124 -63 -56 -104
-67 -123 -31 -16 31 7 95 52 141 21 21 41 39 46 39 4 0 24 -11 45 -25z"/>
<path d="M4808 16133 c-25 -31 -58 -90 -58 -106 0 -9 10 -23 21 -31 l21 -15
-41 -108 c-44 -117 -63 -185 -86 -315 -9 -45 -22 -112 -31 -148 -33 -144 -64
-331 -64 -384 0 -48 3 -58 25 -72 28 -18 54 -16 69 8 8 13 5 22 -13 42 l-24
26 16 77 c9 43 32 155 52 248 20 94 40 195 46 225 15 78 34 146 59 215 12 33
30 85 41 115 10 30 23 63 29 72 16 28 12 134 -6 152 -20 21 -37 20 -56 -1z"/>
<path d="M3850 16085 c-112 -25 -271 -99 -290 -134 -14 -26 -3 -50 26 -57 18
-5 40 4 86 35 35 24 98 53 144 67 70 22 97 25 178 22 130 -4 138 -14 66 -81
-31 -29 -116 -90 -189 -137 -131 -84 -171 -118 -171 -148 0 -8 9 -30 21 -49
21 -34 65 -61 129 -81 311 -94 327 -100 384 -155 67 -63 71 -89 25 -162 -117
-184 -384 -357 -593 -384 -56 -7 -78 -29 -56 -56 31 -37 222 14 374 99 199
112 368 301 368 414 0 49 -28 111 -67 144 -58 50 -185 103 -370 155 -71 19
-135 49 -135 63 0 12 83 74 129 96 60 29 201 135 236 179 56 68 45 123 -32
157 -60 26 -178 32 -263 13z"/>
<path d="M5311 16025 c-135 -31 -242 -99 -262 -165 -20 -65 13 -97 203 -199
54 -29 100 -57 104 -62 3 -5 -38 -55 -90 -112 -130 -139 -233 -280 -256 -351
-17 -53 -15 -114 6 -137 9 -10 37 -26 61 -35 40 -16 54 -16 119 -5 82 14 166
45 243 91 29 16 55 30 58 30 3 0 29 19 58 43 52 41 88 96 101 150 15 63 -43
191 -120 267 -25 24 -46 50 -46 56 0 20 240 195 353 258 45 26 69 45 73 61 8
32 -2 45 -34 45 -36 0 -333 -202 -406 -276 -47 -47 -52 -47 -181 26 -137 77
-158 100 -130 144 21 32 86 76 112 76 10 0 31 7 48 16 41 21 223 31 264 14 25
-10 34 -10 46 0 22 18 18 47 -7 61 -35 19 -242 21 -317 4z m178 -530 c48 -55
93 -151 94 -202 0 -37 -5 -50 -34 -80 -101 -106 -365 -208 -448 -173 -17 7
-31 18 -31 25 0 57 117 229 267 392 94 103 94 103 152 38z"/>
<path d="M2922 15900 c-81 -21 -213 -95 -262 -145 -38 -39 -52 -84 -36 -116
23 -46 76 -26 76 30 0 66 165 169 288 179 81 6 106 -12 99 -74 -5 -52 -43
-136 -90 -199 -20 -28 -48 -66 -62 -85 -24 -32 -84 -105 -190 -230 -22 -26
-52 -63 -67 -81 -14 -19 -47 -60 -73 -91 -25 -32 -62 -89 -81 -128 -42 -85
-45 -136 -10 -177 23 -27 29 -28 108 -28 73 0 182 19 318 55 19 5 67 17 105
26 39 8 78 18 88 20 20 6 23 42 3 50 -8 3 -116 -15 -240 -40 -124 -25 -241
-46 -260 -46 -40 0 -66 22 -66 55 0 29 53 130 100 191 109 140 140 181 155
198 179 198 241 279 293 381 71 137 63 225 -23 261 -45 18 -84 17 -173 -6z"/>
<path d="M8774 15901 c-26 -12 -51 -35 -72 -66 -37 -55 -40 -80 -13 -94 15 -9
31 1 95 57 62 54 76 72 74 92 -4 32 -30 36 -84 11z"/>
<path d="M8923 15828 c-6 -7 -13 -52 -14 -100 l-4 -87 -43 -36 c-47 -41 -85
-105 -80 -137 2 -12 12 -26 23 -32 11 -6 22 -12 24 -13 2 -1 -2 -16 -9 -33
-15 -37 -3 -56 29 -45 26 8 43 39 80 152 34 100 47 113 127 113 65 0 86 20 58
51 -16 18 -27 21 -76 16 l-57 -5 -3 81 c-3 74 -5 82 -24 85 -11 2 -26 -3 -31
-10z"/>
<path d="M7766 15768 c-3 -13 -7 -45 -10 -71 -3 -27 -17 -94 -30 -150 -13 -56
-30 -128 -37 -159 -8 -32 -16 -58 -19 -58 -4 0 -19 14 -36 31 -16 17 -51 49
-77 70 -41 33 -56 39 -96 39 -56 0 -84 -18 -112 -72 -18 -36 -19 -45 -9 -89
25 -104 83 -135 242 -126 69 3 121 12 158 26 30 12 56 21 58 21 2 0 2 10 0 23
-2 17 -10 22 -33 22 -27 1 -30 4 -27 30 2 17 22 100 44 185 64 245 67 300 13
300 -18 0 -26 -6 -29 -22z m-253 -404 c34 -17 117 -93 117 -106 0 -12 -116 -9
-147 4 -42 18 -73 49 -73 73 0 45 45 58 103 29z"/>
<path d="M8058 15738 c-9 -26 8 -139 22 -148 41 -26 62 6 53 81 -7 63 -17 79
-48 79 -13 0 -25 -6 -27 -12z"/>
<path d="M8682 15708 c-7 -7 -9 -31 -5 -68 5 -49 2 -66 -21 -116 -15 -32 -38
-73 -52 -91 -51 -68 -1 -101 56 -37 79 91 120 254 76 303 -22 24 -37 26 -54 9z"/>
<path d="M9336 15680 c-76 -38 -86 -47 -108 -98 -17 -37 -18 -48 -7 -100 19
-88 17 -152 -3 -166 -25 -15 -48 1 -62 43 -23 69 -76 63 -76 -8 1 -82 98 -128
180 -86 57 29 72 91 45 181 -18 61 -19 105 -2 128 7 10 44 34 83 55 50 26 69
41 69 56 0 31 -50 29 -119 -5z"/>
<path d="M8325 15565 c-33 -6 -79 -21 -102 -33 -23 -12 -55 -22 -71 -22 -17 0
-36 -9 -48 -22 -52 -60 -91 -138 -79 -157 8 -14 42 -14 50 -1 3 5 33 7 68 4
53 -5 69 -2 110 19 26 13 47 22 47 18 0 -6 -41 -120 -64 -176 -21 -55 -37 -76
-62 -85 -16 -7 -24 -17 -24 -34 0 -32 32 -51 60 -36 26 14 69 71 80 106 5 16
32 90 60 164 28 74 54 145 57 158 4 16 13 22 32 22 31 0 71 25 71 44 0 42 -71
54 -185 31z m-5 -98 c0 -2 -20 -18 -44 -35 -42 -30 -116 -45 -116 -24 0 8 61
41 100 55 17 6 60 9 60 4z"/>
<path d="M25798 14826 c-62 -25 -160 -92 -225 -154 -46 -43 -117 -148 -127
-186 -6 -24 -8 -25 -71 -19 -54 5 -66 3 -71 -11 -10 -25 13 -44 63 -52 40 -6
44 -9 38 -28 -11 -37 -17 -219 -8 -261 8 -36 12 -40 38 -40 29 0 30 1 27 45
-6 116 -6 228 1 253 6 23 12 27 46 27 53 0 180 26 271 56 90 29 178 95 217
162 22 38 28 59 28 110 0 59 -2 66 -33 93 -27 24 -41 29 -85 29 -31 0 -75 -10
-109 -24z m150 -58 c23 -23 14 -82 -18 -127 -30 -41 -107 -97 -165 -119 -57
-22 -189 -52 -227 -52 l-39 0 17 32 c56 109 286 277 380 278 22 0 45 -5 52
-12z"/>
<path d="M5285 14733 c-244 -19 -329 -34 -339 -59 -10 -27 14 -47 48 -39 48 9
298 33 434 41 128 7 149 16 122 49 -10 12 -35 15 -119 13 -58 -1 -124 -3 -146
-5z"/>
<path d="M4625 14721 c-182 -29 -255 -60 -255 -106 0 -35 30 -39 81 -11 53 29
201 56 310 56 57 0 80 4 89 16 11 12 10 18 -3 31 -19 19 -142 26 -222 14z"/>
<path d="M3760 14624 c-123 -32 -184 -62 -188 -92 -6 -37 25 -37 139 2 64 22
143 41 196 47 110 12 115 14 111 41 -3 21 -8 23 -83 25 -59 2 -105 -5 -175
-23z"/>
<path d="M2635 14595 c-248 -20 -295 -33 -295 -81 0 -28 37 -42 67 -25 29 15
422 53 544 52 85 -1 109 2 119 14 11 13 11 19 -3 32 -15 15 -37 17 -172 13
-16 -1 -43 1 -60 3 -16 3 -106 -1 -200 -8z"/>
<path d="M29522 14428 c-26 -29 -80 -142 -88 -186 -4 -22 -14 -36 -28 -42 -26
-10 -96 -92 -96 -113 0 -22 26 -39 49 -32 15 4 20 1 23 -17 6 -42 35 -33 57
18 12 25 21 52 21 60 0 19 9 22 108 35 95 12 131 31 118 64 -5 13 -20 15 -96
10 -83 -5 -90 -4 -90 13 0 26 54 108 84 127 14 9 28 26 31 36 15 47 -55 67
-93 27z"/>
<path d="M30355 14392 c-128 -45 -211 -140 -160 -182 21 -17 51 -4 72 33 11
18 43 45 73 61 47 26 67 30 155 34 102 4 155 -6 155 -31 0 -27 -59 -68 -230
-157 -96 -50 -183 -99 -193 -108 -25 -22 -18 -70 13 -94 30 -22 88 -32 325
-58 99 -11 205 -23 235 -26 66 -8 91 9 73 49 -10 21 -23 25 -154 40 -79 9
-180 19 -224 22 -84 6 -175 24 -175 35 0 3 62 37 138 75 111 57 150 82 205
135 79 77 86 108 38 154 -29 28 -33 29 -163 32 -109 3 -142 1 -183 -14z"/>
<path d="M26081 14365 c-44 -15 -91 -50 -91 -68 0 -5 -13 -25 -30 -44 -38 -43
-40 -84 -4 -120 25 -24 29 -25 122 -20 106 5 186 31 248 81 58 46 39 122 -38
159 -49 23 -154 29 -207 12z m151 -65 c21 -6 42 -19 48 -30 8 -15 5 -22 -19
-39 -60 -43 -251 -71 -251 -36 0 16 90 88 130 104 33 13 48 13 92 1z"/>
<path d="M27360 14369 c-33 -13 -90 -68 -101 -97 -5 -13 -18 -26 -29 -29 -31
-8 -34 -39 -8 -73 81 -107 109 -127 205 -150 102 -24 163 6 163 78 0 64 46
127 106 146 30 9 57 42 51 61 -16 40 -123 -2 -176 -68 -17 -22 -35 -62 -42
-93 -11 -50 -14 -54 -40 -54 -49 0 -128 21 -151 40 -23 19 -23 19 -3 34 11 8
34 18 50 22 40 9 105 41 133 67 37 34 26 88 -25 115 -26 14 -98 15 -133 1z
m98 -71 c-5 -16 -63 -46 -107 -54 -46 -9 -38 13 15 43 43 25 98 31 92 11z"/>
<path d="M7122 14329 c-106 -18 -398 -141 -459 -193 -34 -29 -41 -54 -21 -74
18 -18 32 -15 74 19 85 69 374 187 466 190 54 2 68 -5 68 -36 0 -27 -52 -86
-272 -307 -184 -184 -290 -306 -286 -327 2 -8 18 -24 37 -35 31 -18 39 -18
115 -6 44 7 97 19 116 26 19 7 105 29 190 49 176 41 184 44 188 73 2 16 -3 23
-22 28 -25 6 -178 -21 -288 -51 -92 -25 -209 -48 -215 -41 -9 8 57 78 257 271
206 200 253 259 254 321 2 83 -70 117 -202 93z"/>
<path d="M26501 14316 c-18 -21 -3 -116 22 -143 27 -30 68 -29 135 2 63 29 62
29 62 11 0 -7 9 -25 21 -40 35 -44 107 -36 237 28 70 34 157 107 150 127 -11
34 -35 32 -94 -9 -87 -58 -151 -86 -203 -86 -42 -1 -46 1 -44 22 4 32 -14 62
-36 62 -11 0 -46 -13 -79 -30 -78 -39 -102 -39 -102 -2 0 32 -25 72 -44 72 -8
0 -19 -6 -25 -14z"/>
<path d="M16125 14266 c-32 -49 -78 -207 -125 -432 -27 -128 -67 -287 -89
-354 -45 -134 -51 -184 -24 -194 22 -9 35 6 49 57 7 23 30 101 52 172 22 72
47 168 57 215 50 242 78 353 111 432 37 92 38 128 4 128 -11 0 -27 -11 -35
-24z"/>
<path d="M28065 14279 c-74 -11 -175 -59 -209 -100 -39 -46 -35 -86 14 -134
39 -38 40 -40 19 -45 -52 -13 -49 -72 4 -78 26 -3 78 18 110 46 37 33 12 83
-67 131 l-39 24 26 22 c27 24 126 57 222 74 66 12 78 20 73 47 -4 23 -59 27
-153 13z"/>
<path d="M28863 14258 c-25 -27 -29 -48 -11 -66 9 -9 8 -16 -6 -31 -9 -10 -20
-35 -23 -55 -5 -31 -1 -42 23 -67 35 -36 78 -49 170 -49 103 0 167 22 195 66
41 67 5 145 -90 191 -44 22 -73 28 -145 31 -86 4 -92 3 -113 -20z m242 -88
c36 -22 69 -65 61 -79 -27 -43 -276 -26 -276 19 0 12 58 40 84 40 12 0 35 9
51 19 38 25 41 25 80 1z"/>
<path d="M9115 14263 c-11 -3 -42 -27 -68 -54 -26 -27 -52 -49 -56 -49 -5 0
-25 -24 -44 -52 -54 -80 -107 -259 -107 -362 0 -74 88 -124 198 -113 115 12
274 141 314 254 47 134 -14 302 -135 370 -22 12 -66 15 -102 6z m124 -107 c53
-56 79 -209 46 -266 -8 -14 -19 -35 -24 -46 -5 -12 -48 -48 -96 -79 -76 -51
-93 -58 -148 -62 -56 -5 -66 -3 -92 19 l-28 25 16 80 c9 45 26 105 37 134 36
89 99 169 135 169 12 0 30 9 39 19 16 17 29 22 82 30 6 0 20 -10 33 -23z"/>
<path d="M8212 14248 c-19 -25 -71 -275 -82 -398 -6 -69 -15 -143 -20 -165
-14 -60 -12 -95 6 -102 31 -12 43 23 74 207 17 102 44 235 61 296 34 130 35
150 10 164 -26 13 -36 13 -49 -2z"/>
<path d="M8577 14236 c-26 -7 -58 -23 -70 -34 -13 -12 -37 -27 -55 -33 -25 -8
-39 -25 -65 -78 -63 -126 -70 -300 -15 -389 52 -85 186 -95 324 -24 84 43 134
134 137 244 2 96 -19 210 -46 250 -42 62 -123 87 -210 64z m130 -79 c53 -47
78 -221 46 -317 -15 -46 -26 -60 -66 -87 -84 -56 -191 -71 -240 -33 -39 31
-53 105 -37 194 17 96 24 112 57 128 15 7 29 22 32 33 5 28 38 73 64 87 56 30
108 28 144 -5z"/>
<path d="M11640 14219 c-56 -13 -70 -25 -70 -56 0 -34 24 -39 99 -20 36 10 88
17 115 17 60 0 242 -27 275 -41 23 -9 23 -10 6 -29 -23 -26 -89 -64 -155 -90
-139 -55 -220 -107 -220 -141 0 -25 49 -62 101 -78 170 -50 269 -91 269 -110
0 -14 -73 -69 -113 -86 -55 -23 -177 -48 -207 -42 -46 10 -71 -41 -31 -63 27
-14 59 -13 149 6 142 29 282 114 282 171 0 61 -52 95 -237 157 -149 50 -151
42 34 121 63 27 137 68 168 92 50 39 56 48 53 76 -4 44 -49 71 -156 96 -104
24 -299 34 -362 20z"/>
<path d="M12968 14208 c-9 -8 -22 -51 -32 -103 -24 -128 -72 -306 -108 -398
-32 -85 -31 -107 6 -107 26 0 28 5 99 200 37 99 107 345 107 373 0 14 -35 47
-50 47 -4 0 -13 -6 -22 -12z"/>
<path d="M17246 14168 c-8 -13 -21 -61 -30 -108 -34 -181 -144 -621 -172 -688
-18 -44 -18 -66 0 -81 24 -20 52 18 80 106 22 71 35 119 96 348 10 39 28 117
40 175 12 58 31 135 42 172 17 55 18 71 8 83 -18 22 -47 18 -64 -7z"/>
<path d="M10796 14158 c-8 -13 -17 -62 -21 -110 l-7 -87 -49 -10 c-28 -6 -55
-11 -60 -11 -20 0 -164 -61 -181 -77 -24 -22 -23 -50 3 -63 17 -10 35 -4 107
33 48 25 106 48 130 52 41 7 42 6 42 -22 0 -37 -24 -160 -55 -284 -14 -56 -25
-118 -23 -138 3 -31 7 -36 28 -36 22 0 26 5 31 45 5 38 28 132 68 290 5 19 13
66 17 103 l7 69 173 -3 c186 -4 217 2 181 39 -15 14 -42 18 -178 21 -158 3
-161 3 -155 25 2 11 8 49 12 84 6 52 4 66 -11 82 -24 26 -41 25 -59 -2z"/>
<path d="M13290 14148 c-63 -18 -89 -60 -55 -88 12 -10 21 -8 48 9 52 32 53
26 5 -31 -70 -84 -97 -124 -123 -180 -45 -97 -25 -197 47 -234 39 -20 122 -22
178 -5 96 31 143 78 192 188 43 97 31 228 -24 282 -61 59 -177 85 -268 59z
m212 -97 c28 -25 32 -35 36 -92 7 -114 -56 -228 -147 -267 -54 -22 -135 -21
-161 3 -18 17 -21 28 -18 67 8 79 110 227 180 262 13 6 27 21 33 34 13 30 38
28 77 -7z"/>
<path d="M13840 14141 c-20 -11 -46 -38 -59 -63 -14 -23 -38 -63 -54 -87 -40
-59 -77 -171 -77 -235 0 -66 32 -116 96 -146 42 -21 56 -22 163 -18 106 5 122
8 165 33 91 53 134 148 123 269 -10 109 -66 199 -150 242 -50 26 -164 29 -207
5z m180 -64 c31 -16 52 -38 74 -77 28 -49 31 -64 31 -136 0 -72 -3 -86 -28
-123 -40 -61 -90 -81 -200 -81 -99 0 -147 15 -172 54 -14 21 -15 33 -6 76 22
104 108 230 157 230 32 0 51 27 36 51 -7 10 -12 21 -12 24 0 14 82 2 120 -18z"/>
<path d="M9615 14133 c-78 -17 -117 -37 -154 -80 -55 -62 -78 -114 -92 -211
-14 -103 -5 -202 23 -237 35 -45 94 -68 157 -62 143 13 254 102 309 250 76
202 -53 383 -243 340z m144 -92 c63 -63 68 -161 16 -266 -57 -112 -176 -180
-280 -161 -53 10 -69 49 -62 152 8 112 30 183 72 228 29 32 37 36 54 27 26
-15 23 -16 64 24 50 48 85 47 136 -4z"/>
<path d="M18532 14098 c-5 -7 -15 -44 -22 -83 -7 -38 -20 -92 -29 -120 l-16
-49 -80 -14 c-86 -15 -105 -25 -105 -52 0 -35 23 -42 86 -25 32 8 61 15 65 15
15 0 -73 -244 -107 -295 -23 -35 -15 -70 15 -70 32 0 73 74 131 239 l45 126
45 0 c25 0 99 -7 163 -15 65 -9 122 -13 127 -10 14 9 12 41 -3 53 -7 6 -74 18
-148 27 -73 9 -139 18 -145 20 -8 2 -5 24 11 69 39 110 49 164 35 181 -15 18
-54 20 -68 3z"/>
<path d="M14938 14063 c-13 -16 -19 -39 -43 -160 -6 -28 -12 -33 -43 -38 -160
-26 -202 -54 -151 -101 20 -18 22 -18 82 5 100 37 97 37 97 6 0 -29 -28 -132
-62 -226 -25 -71 -22 -104 10 -104 19 0 28 10 46 55 20 49 54 175 72 269 l6
33 92 -6 c50 -3 133 -9 184 -12 102 -7 130 2 100 33 -17 16 -232 51 -321 53
-38 0 -39 0 -32 33 4 17 14 47 21 66 18 44 18 76 -2 95 -20 21 -37 20 -56 -1z"/>
<path d="M19333 14030 c-95 -48 -94 -55 22 -206 34 -44 64 -84 67 -89 4 -6
-38 -56 -91 -112 -99 -102 -161 -198 -161 -249 0 -37 54 -90 105 -104 78 -22
221 7 295 60 31 22 70 86 70 115 0 32 -40 128 -79 190 -23 36 -41 68 -41 73 0
5 21 23 48 40 87 58 209 137 256 164 69 41 56 91 -19 72 -17 -4 -32 -1 -43 9
-33 29 -153 59 -262 64 -103 5 -106 4 -167 -27z m248 -46 c97 -18 159 -35 159
-43 0 -7 -239 -164 -256 -169 -15 -4 -144 158 -144 181 0 9 1 17 3 17 1 0 20
7 42 15 52 18 94 18 196 -1z m-36 -481 c14 -35 23 -69 19 -76 -20 -36 -54 -59
-112 -77 -136 -42 -220 -11 -198 73 7 27 132 184 177 221 l32 27 28 -52 c16
-28 40 -80 54 -116z"/>
<path d="M17714 14005 c-32 -14 -74 -59 -74 -78 0 -5 -15 -35 -34 -66 -93
-153 -136 -263 -136 -350 0 -97 56 -151 159 -151 54 0 102 19 176 70 155 107
235 291 191 442 -22 77 -46 103 -118 127 -70 24 -119 26 -164 6z m165 -67 c65
-34 71 -50 61 -156 -10 -109 -39 -171 -115 -247 -65 -65 -171 -120 -214 -110
-105 23 -92 156 37 370 98 164 142 191 231 143z"/>
<path d="M7697 13934 c-4 -4 -7 -18 -7 -30 0 -17 7 -25 25 -30 39 -10 57 2 53
33 -2 23 -9 29 -33 31 -17 2 -34 0 -38 -4z"/>
<path d="M20781 13917 c-7 -9 -8 -37 -5 -78 6 -56 2 -77 -29 -169 -19 -58 -54
-148 -77 -200 -75 -171 -141 -342 -151 -393 -14 -75 -11 -133 7 -148 28 -23
48 2 56 68 9 82 32 157 85 277 25 55 62 140 83 188 73 163 102 257 107 349 5
71 3 88 -11 102 -21 20 -49 22 -65 4z"/>
<path d="M12399 13854 c-19 -23 8 -69 41 -69 20 0 26 6 28 28 6 50 -39 77 -69
41z"/>
<path d="M16536 13744 c-9 -8 -16 -22 -16 -29 0 -13 26 -45 36 -45 18 0 44 24
44 40 0 49 -32 66 -64 34z"/>
<path d="M20091 13606 c-20 -23 -10 -60 17 -64 32 -5 54 16 50 47 -2 20 -9 27
-29 29 -14 2 -31 -4 -38 -12z"/>
<path d="M4252 13428 c-17 -21 -19 -107 -6 -218 7 -58 16 -170 20 -248 7 -150
15 -170 51 -141 14 13 15 36 7 229 -4 118 -8 249 -9 290 0 81 -6 100 -34 100
-10 0 -23 -6 -29 -12z"/>
<path d="M6994 13395 c-4 -9 3 -46 15 -84 21 -66 21 -71 6 -177 -8 -60 -21
-145 -29 -189 -16 -84 -11 -105 25 -105 21 0 21 -1 53 161 32 157 36 315 8
369 -19 39 -67 55 -78 25z"/>
<path d="M3424 13389 c-133 -15 -230 -68 -222 -120 4 -34 33 -35 79 -3 49 34
125 54 203 54 l59 0 -19 -21 c-10 -12 -36 -30 -56 -40 -21 -11 -38 -23 -38
-27 0 -4 -16 -18 -36 -31 -45 -31 -94 -102 -94 -135 0 -44 32 -55 155 -54 107
0 165 -11 165 -32 0 -13 -74 -85 -174 -170 -77 -66 -90 -92 -48 -98 27 -4 111
57 186 136 54 56 63 60 80 36 17 -23 79 -33 201 -34 73 0 115 4 123 12 16 16
15 23 -4 42 -12 12 -38 16 -107 17 -95 0 -157 14 -165 37 -4 14 48 67 201 207
94 87 107 114 66 151 -18 16 -36 19 -128 18 -91 0 -113 -4 -156 -25 -77 -37
-113 -129 -51 -129 18 0 30 9 40 29 12 22 28 32 74 45 66 18 120 20 142 6 12
-8 7 -17 -30 -52 -25 -23 -75 -69 -111 -104 l-66 -62 -49 23 c-39 19 -66 25
-134 26 -47 0 -96 4 -110 8 -26 7 -24 10 159 155 34 27 64 59 67 73 14 55 -60
78 -202 62z"/>
<path d="M6441 13289 c-83 -16 -185 -53 -230 -83 -38 -25 -46 -36 -46 -61 0
-41 37 -47 74 -12 14 14 44 34 65 46 60 31 276 72 276 52 0 -10 -64 -66 -174
-149 -163 -126 -200 -219 -103 -262 56 -26 237 -29 258 -4 9 11 10 20 3 32 -8
13 -30 16 -105 17 -179 3 -180 29 -2 172 171 138 204 172 201 207 -2 21 -11
35 -28 43 -28 14 -122 15 -189 2z"/>
<path d="M4510 13219 c-31 -44 -42 -74 -66 -179 -37 -170 6 -270 109 -255 21
3 56 17 78 30 45 29 108 110 109 141 0 35 -36 59 -85 57 -57 -2 -96 -23 -130
-72 -15 -23 -29 -41 -30 -41 -1 0 4 39 10 88 13 90 42 167 76 198 22 20 25 44
7 62 -22 22 -48 12 -78 -29z m150 -287 c0 -11 -50 -57 -77 -71 -51 -26 -56 -7
-12 44 22 25 39 35 60 35 16 0 29 -4 29 -8z"/>
<path d="M5682 13248 c-7 -7 -12 -16 -12 -22 0 -5 -19 -41 -43 -80 -98 -162
-108 -203 -61 -247 23 -21 34 -24 110 -24 71 0 84 -2 80 -15 -2 -8 -14 -48
-27 -88 -17 -56 -20 -75 -10 -85 22 -22 45 8 82 109 71 197 120 294 182 360
37 40 31 74 -13 74 -45 0 -96 -65 -145 -185 -42 -104 -46 -106 -129 -103 -63
3 -71 5 -74 23 -3 23 27 80 88 165 55 77 53 130 -4 130 -7 0 -17 -5 -24 -12z"/>
<path d="M5055 13209 c-127 -31 -234 -127 -195 -174 6 -8 40 -31 75 -51 61
-36 63 -38 69 -87 7 -60 50 -111 106 -127 51 -14 125 -12 165 5 79 32 51 78
-85 143 -66 31 -100 53 -100 63 0 25 74 95 131 124 28 15 54 35 56 46 4 15 13
18 51 16 39 -2 47 1 50 17 7 36 -24 46 -137 45 -69 0 -134 -7 -186 -20z m125
-46 c0 -5 -19 -21 -41 -38 -22 -16 -57 -51 -76 -77 l-36 -47 -36 15 c-20 8
-44 23 -54 33 -18 18 -18 19 17 46 42 32 98 54 141 55 17 0 37 5 45 10 18 12
40 13 40 3z m-17 -301 l42 -27 -32 -3 c-42 -4 -84 17 -95 47 -7 21 -6 23 18
17 14 -4 44 -19 67 -34z"/>
<path d="M24584 13185 c-17 -27 -17 -35 6 -186 8 -58 14 -486 7 -609 -2 -41 0
-45 22 -45 42 0 51 52 64 349 11 275 1 472 -25 503 -18 22 -56 15 -74 -12z"/>
<path d="M29239 13004 c-19 -23 -105 -206 -144 -305 -72 -186 -103 -371 -73
-429 16 -30 50 -37 68 -16 10 13 9 22 -4 51 -22 45 -15 93 31 235 43 132 94
252 150 349 23 42 43 79 43 84 0 10 -38 47 -49 47 -5 0 -14 -7 -22 -16z"/>
<path d="M1542 12995 c-28 -21 -20 -35 21 -35 51 0 128 -42 177 -97 51 -57 84
-131 101 -227 11 -58 10 -72 -7 -123 -15 -47 -32 -72 -89 -128 -115 -114 -273
-188 -431 -201 -69 -6 -87 -4 -128 14 -97 44 -132 120 -112 247 17 102 114
253 219 339 46 38 130 86 150 86 6 0 28 -16 48 -36 32 -31 40 -34 58 -25 29
16 26 46 -9 83 -16 17 -30 41 -30 54 0 33 -20 41 -41 16 -9 -12 -26 -22 -38
-22 -11 0 -23 -4 -26 -10 -3 -5 -14 -10 -23 -10 -26 0 -111 -61 -180 -130 -79
-79 -135 -160 -172 -254 -25 -62 -30 -88 -30 -158 0 -102 23 -156 88 -205 95
-72 215 -79 393 -23 52 17 178 76 189 90 3 3 16 14 30 23 43 29 180 171 180
187 0 8 7 24 15 34 18 23 20 138 4 206 -15 64 -66 163 -109 213 -69 78 -200
126 -248 92z"/>
<path d="M2273 12902 c-6 -4 -17 -21 -23 -37 -16 -40 -95 -400 -109 -495 -11
-71 -15 -88 -42 -175 -8 -27 -8 -40 1 -50 22 -26 55 -16 115 36 33 28 77 59
98 70 20 10 56 29 79 40 23 12 47 27 54 34 15 15 164 18 217 4 51 -13 51 -46
0 -88 -33 -27 -170 -100 -248 -131 -59 -24 -173 -39 -211 -27 -40 12 -60 0
-50 -31 21 -65 205 -48 385 36 65 30 152 87 197 130 40 36 52 84 30 117 -27
42 -53 49 -182 49 -99 1 -125 -2 -140 -15 -11 -9 -38 -19 -60 -23 -37 -5 -153
-62 -179 -87 -15 -15 -28 -10 -21 7 3 9 11 48 17 87 5 40 19 104 29 142 11 39
31 117 45 175 14 58 33 121 41 141 21 48 15 93 -11 97 -11 1 -25 -1 -32 -6z"/>
<path d="M29541 12880 c-17 -18 -44 -56 -59 -84 -22 -42 -27 -64 -26 -126 0
-106 25 -150 113 -193 60 -29 74 -32 156 -31 113 1 170 17 212 59 29 29 33 40
33 85 0 96 -80 242 -158 287 -40 24 -60 28 -142 31 l-96 4 -33 -32z m182 -41
c52 -14 108 -67 144 -136 69 -132 52 -169 -89 -189 -91 -12 -231 40 -244 92
-4 13 -4 52 -2 85 4 53 9 64 44 100 57 59 80 67 147 48z"/>
<path d="M30218 12840 c-112 -14 -201 -75 -168 -115 18 -22 54 -18 93 8 46 31
219 55 350 49 50 -3 45 -11 -73 -112 -170 -147 -257 -253 -275 -338 -10 -50
23 -82 84 -82 89 0 148 21 419 146 41 19 80 34 88 34 22 0 29 30 10 48 -15 15
-26 12 -143 -37 -192 -79 -288 -111 -338 -111 -57 0 -58 12 -6 77 42 53 202
205 291 276 62 50 78 108 39 143 -18 16 -39 19 -162 21 -78 1 -172 -2 -209 -7z"/>
<path d="M30935 12779 c-43 -22 -82 -73 -91 -117 -7 -40 33 -112 81 -143 53
-35 128 -59 182 -59 42 0 43 -1 37 -27 -4 -16 -12 -41 -20 -58 -22 -50 -82
-237 -94 -295 -6 -30 -10 -75 -8 -100 3 -40 6 -45 28 -45 24 0 25 4 31 70 12
132 178 562 260 672 22 29 42 59 45 67 6 15 -20 46 -38 46 -28 0 -95 -89 -129
-170 l-35 -85 -66 1 c-76 2 -156 38 -191 86 -18 25 -19 29 -5 50 14 21 56 45
111 62 20 6 23 36 5 54 -18 18 -58 14 -103 -9z"/>
<path d="M5144 12702 c-30 -19 -37 -61 -40 -222 -4 -153 -11 -341 -17 -400 -1
-19 3 -25 18 -25 13 0 20 7 21 20 0 11 3 27 6 35 16 44 29 130 38 260 6 80 17
182 26 227 14 67 14 86 4 98 -13 16 -38 19 -56 7z"/>
<path d="M3405 12661 c-11 -18 -46 -200 -69 -356 -8 -55 -17 -177 -20 -271 -5
-143 -3 -174 10 -192 12 -17 19 -20 34 -12 17 9 19 27 23 193 3 102 11 219 20
267 35 187 48 247 63 288 15 39 15 45 0 67 -16 25 -50 33 -61 16z"/>
<path d="M4249 12651 c-35 -28 -16 -40 71 -43 l75 -3 -32 -18 c-55 -30 -172
-133 -223 -197 -58 -72 -110 -177 -110 -221 0 -39 22 -80 60 -113 27 -22 41
-26 98 -26 58 0 77 5 157 45 133 65 233 165 260 259 14 47 14 60 1 115 -34
148 -124 221 -271 221 -47 0 -69 -5 -86 -19z m250 -124 c16 -24 35 -70 42
-104 12 -58 11 -64 -12 -110 -42 -81 -214 -199 -307 -210 -57 -6 -107 14 -124
52 -9 20 -6 34 17 80 56 115 223 285 281 285 13 0 31 11 41 25 10 13 21 25 25
25 4 0 20 -19 37 -43z"/>
<path d="M5601 12624 c-12 -15 -21 -40 -21 -57 0 -32 -62 -396 -81 -477 -13
-56 -24 -308 -15 -343 6 -25 29 -36 39 -19 3 4 8 57 12 117 8 132 23 236 60
400 9 39 20 95 26 125 6 30 22 99 36 153 19 77 22 101 13 113 -19 22 -46 17
-69 -12z"/>
<path d="M4151 12589 c-29 -29 -41 -51 -41 -71 0 -44 56 -88 75 -59 3 5 0 30
-7 56 -12 45 -12 46 16 68 24 20 26 24 13 35 -12 11 -22 6 -56 -29z"/>
<path d="M6307 12610 c-46 -36 -25 -86 25 -59 11 6 36 8 57 4 126 -23 281
-206 281 -332 0 -123 -193 -276 -350 -277 -112 -2 -180 46 -180 125 0 68 43
167 98 224 65 66 94 83 147 87 56 3 70 25 39 59 -70 77 -289 -102 -332 -273
-16 -63 -15 -153 2 -186 63 -121 261 -143 423 -48 139 81 212 174 220 280 7
76 -6 121 -56 196 -53 81 -114 136 -195 175 -97 47 -143 53 -179 25z"/>
<path d="M7030 12610 c-27 -27 -25 -43 11 -147 65 -188 94 -319 134 -593 30
-203 39 -245 57 -248 46 -9 18 308 -66 742 -13 66 -27 147 -31 179 -3 31 -13
64 -21 72 -21 21 -60 19 -84 -5z"/>
<path d="M11715 12240 c-111 -16 -146 -36 -132 -74 11 -28 35 -29 112 -7 67
20 89 22 206 16 73 -3 164 -12 203 -19 80 -16 156 -44 156 -57 0 -22 -82 -93
-184 -161 -128 -86 -155 -116 -138 -152 17 -39 54 -56 154 -76 51 -10 116 -26
144 -34 53 -17 140 -61 150 -77 11 -18 -64 -72 -181 -129 -156 -75 -200 -91
-255 -87 -39 2 -45 -1 -48 -19 -9 -62 69 -69 196 -20 189 74 336 162 367 220
17 32 18 36 2 60 -33 50 -187 122 -323 151 -109 22 -129 32 -114 50 7 8 40 30
73 49 145 81 227 165 227 232 0 26 -7 38 -32 57 -78 57 -412 101 -583 77z"/>
<path d="M24745 12243 c-146 -20 -402 -91 -425 -118 -6 -8 -10 -22 -8 -32 5
-29 56 -27 138 7 68 28 317 87 326 77 4 -4 -31 -31 -223 -171 -124 -90 -175
-148 -171 -195 4 -46 49 -77 126 -87 32 -4 164 0 302 10 214 15 247 19 264 36
17 16 18 21 5 36 -15 18 -32 18 -334 -6 -154 -13 -257 -7 -276 16 -10 12 -5
22 27 55 21 23 64 59 94 80 30 22 82 60 115 84 65 49 183 123 228 142 29 13
36 40 15 61 -12 12 -132 14 -203 5z"/>
<path d="M10640 12131 c-32 -60 6 -76 410 -171 52 -12 102 -26 110 -31 11 -8
10 -9 -6 -4 -11 3 -74 9 -140 15 -65 5 -243 20 -394 34 -354 32 -657 48 -944
50 -208 1 -230 -1 -240 -17 -8 -12 -8 -22 0 -34 10 -16 42 -19 340 -24 181 -3
379 -9 439 -13 177 -11 611 -45 720 -56 328 -33 335 -33 360 -20 19 10 31 11
50 2 14 -6 25 -16 25 -21 0 -19 -7 -22 -270 -121 -217 -82 -250 -100 -236
-136 8 -20 53 -13 111 16 22 11 45 20 51 20 32 0 364 133 409 164 80 54 56 98
-87 155 -45 19 -110 49 -143 67 -136 73 -328 132 -461 141 -88 6 -92 5 -104
-16z"/>
<path d="M28910 12041 c-8 -4 -49 -14 -90 -20 -104 -18 -164 -39 -219 -76 -58
-40 -81 -76 -62 -99 20 -24 47 -19 71 14 31 43 148 97 249 115 47 8 87 12 90
10 3 -3 -24 -31 -60 -63 -202 -179 -259 -248 -259 -313 0 -51 42 -92 112 -110
79 -21 321 -18 371 4 27 12 38 22 35 34 -3 17 -17 18 -164 14 -132 -3 -171 0
-212 13 -70 24 -81 39 -58 81 21 38 202 222 259 262 44 31 80 84 72 106 -12
30 -97 49 -135 28z"/>
<path d="M12570 11976 c-6 -8 -10 -25 -8 -38 3 -23 6 -23 158 -30 161 -7 229
-17 293 -45 71 -31 53 -53 -138 -166 -138 -81 -165 -105 -165 -144 0 -72 47
-92 235 -99 140 -6 180 4 180 41 0 19 -10 21 -134 27 -126 7 -191 20 -191 39
0 12 45 40 140 90 107 56 200 142 200 184 0 17 -6 37 -13 46 -18 23 -104 64
-162 77 -150 34 -373 43 -395 18z"/>
<path d="M14006 11948 c-10 -14 -16 -44 -16 -78 0 -30 -4 -61 -8 -67 -5 -7
-37 -16 -73 -19 -77 -7 -199 -33 -216 -47 -19 -14 -16 -57 4 -64 9 -4 55 3
102 15 47 12 105 25 129 28 l44 7 -6 -44 c-20 -166 -16 -199 24 -199 23 0 26
13 35 129 4 46 9 90 12 97 4 10 26 14 83 14 86 0 114 14 85 44 -12 12 -35 16
-86 16 l-70 0 6 38 c4 20 12 51 18 69 22 64 -31 112 -67 61z"/>
<path d="M29965 11931 c-69 -33 -116 -81 -118 -120 -2 -29 4 -38 32 -58 30
-20 46 -23 127 -23 51 0 104 4 118 10 14 5 26 6 26 2 0 -4 -24 -37 -54 -72
-86 -105 -105 -159 -70 -208 19 -28 94 -31 115 -6 11 14 10 19 -10 35 -13 11
-29 19 -37 19 -48 0 30 109 228 316 37 40 68 76 68 81 0 15 -23 33 -41 33 -10
0 -40 -22 -68 -49 -70 -69 -140 -95 -253 -96 -108 0 -124 11 -69 50 23 15 55
30 72 34 40 8 58 33 40 55 -18 21 -57 20 -106 -3z"/>
<path d="M29349 11844 c-61 -32 -69 -39 -93 -93 -45 -101 -29 -157 58 -197
102 -46 216 -56 290 -24 81 34 107 110 66 191 -22 41 -104 129 -138 148 -40
22 -113 11 -183 -25z m179 -73 c57 -29 84 -64 89 -115 5 -45 5 -46 -30 -61
-69 -29 -191 -12 -257 35 -37 26 -38 49 -4 99 47 72 116 86 202 42z"/>
<path d="M30582 11848 c-22 -22 -13 -43 38 -93 28 -27 50 -53 50 -58 0 -4 -17
-16 -38 -25 -73 -33 -128 -75 -166 -126 -32 -42 -37 -57 -32 -85 10 -64 59
-99 177 -129 83 -21 242 -22 294 -2 112 43 98 148 -38 283 -37 38 -67 70 -65
71 2 2 39 14 83 27 64 20 81 29 83 46 4 28 -27 45 -67 37 -21 -4 -39 -1 -57
11 -69 45 -233 72 -262 43z m217 -88 c10 -5 3 -11 -23 -20 -36 -11 -39 -11
-67 16 -16 15 -29 31 -29 35 0 8 93 -16 119 -31z m13 -190 c122 -135 126 -168
22 -184 -102 -16 -282 28 -323 78 -12 15 -12 20 6 44 29 39 180 141 210 142 6
0 45 -36 85 -80z"/>
<path d="M14600 11840 c-57 -12 -88 -28 -105 -54 -21 -32 -12 -50 68 -134 l60
-62 -20 -38 c-60 -108 -22 -192 111 -247 42 -18 87 -13 111 12 33 32 11 111
-56 199 -27 36 -49 69 -49 74 0 15 84 70 125 81 75 20 83 43 32 101 -25 30
-44 41 -92 52 -81 19 -143 25 -185 16z m181 -89 c18 -6 13 -13 -42 -59 l-62
-53 -39 38 c-84 81 -76 98 39 89 46 -4 93 -10 104 -15z m-62 -283 c36 -55 53
-108 35 -108 -12 0 -51 24 -76 48 -22 20 -28 35 -28 67 0 75 16 73 69 -7z"/>
<path d="M842 11798 c-21 -21 -13 -47 19 -63 50 -26 231 -37 674 -40 391 -2
854 -13 865 -20 3 -2 39 -6 80 -10 74 -6 204 -30 220 -40 5 -3 20 -1 34 5 30
11 35 45 8 59 -21 11 -230 38 -362 46 -52 4 -117 8 -145 10 -27 3 -257 7 -510
10 -551 6 -740 18 -855 51 -9 2 -21 -1 -28 -8z"/>
<path d="M15493 11788 c-5 -7 -17 -56 -27 -108 -9 -52 -19 -107 -22 -121 -5
-25 -6 -26 -54 -17 -28 5 -83 8 -122 6 -68 -3 -73 -5 -76 -26 -6 -44 13 -52
119 -52 54 0 100 -4 103 -9 8 -12 -21 -107 -51 -165 -27 -52 -25 -76 6 -76 30
0 67 57 92 143 16 51 27 76 36 73 35 -14 132 -29 147 -23 11 4 16 15 14 28 -2
17 -18 26 -73 43 l-70 22 2 47 c2 25 12 73 24 106 11 33 19 77 17 98 -3 32 -7
38 -29 41 -14 2 -30 -3 -36 -10z"/>
<path d="M16355 11693 c-19 -21 -58 -79 -86 -130 -28 -51 -54 -93 -58 -93 -15
0 -138 136 -165 182 -29 50 -58 67 -81 48 -40 -33 -5 -96 118 -211 l92 -87
-37 -73 c-20 -41 -40 -93 -44 -116 -5 -36 -3 -43 16 -53 31 -16 43 -2 68 85
29 95 40 109 76 95 49 -18 75 20 36 55 -11 10 -20 22 -20 27 0 22 84 139 135
187 55 53 68 84 43 109 -23 23 -58 13 -93 -25z"/>
<path d="M3408 11664 c-4 -3 -42 -7 -85 -9 -43 -2 -86 -6 -95 -10 -25 -10 -33
-44 -14 -63 13 -13 21 -14 53 -4 21 7 92 16 157 22 66 5 124 14 129 19 5 5 7
17 5 27 -3 16 -14 19 -74 22 -38 1 -73 0 -76 -4z"/>
<path d="M4030 11635 c-10 -12 -11 -21 -3 -33 9 -15 32 -17 169 -17 155 0 159
0 162 22 4 28 -6 30 -173 39 -125 6 -142 4 -155 -11z"/>
<path d="M5318 11630 c-21 -13 -24 -45 -5 -57 6 -4 37 -8 67 -9 30 0 90 -4
132 -9 69 -7 78 -6 84 9 4 10 0 24 -8 32 -27 27 -239 54 -270 34z"/>
<path d="M17695 11628 c-3 -7 -16 -53 -29 -103 -13 -49 -32 -112 -44 -140 -39
-96 -90 -211 -141 -317 -28 -59 -51 -114 -51 -123 0 -22 29 -31 45 -14 24 26
134 251 232 474 20 44 40 85 45 91 16 21 22 112 8 129 -15 18 -59 20 -65 3z"/>
<path d="M4833 11619 c-7 -7 -13 -18 -13 -25 0 -25 31 -32 165 -35 139 -4 140
-4 143 18 5 33 -28 42 -167 49 -89 5 -119 3 -128 -7z"/>
<path d="M6023 11620 c-26 -11 -31 -51 -9 -69 11 -9 25 -9 55 -1 23 6 45 9 50
6 14 -9 308 -25 346 -19 122 20 -83 68 -375 89 -25 2 -55 -1 -67 -6z"/>
<path d="M16874 11585 c-9 -14 -27 -51 -40 -82 l-23 -58 -104 -5 c-117 -7
-161 -24 -155 -63 4 -29 45 -34 104 -11 38 14 51 15 85 5 39 -12 40 -14 33
-44 -8 -40 -32 -87 -43 -87 -15 0 -22 -32 -10 -46 31 -37 85 9 114 96 9 27 22
50 28 50 7 0 37 -10 67 -21 76 -30 138 -36 146 -14 10 25 -8 37 -104 70 -81
29 -87 33 -85 58 1 14 15 47 32 71 33 48 38 75 19 94 -19 19 -46 14 -64 -13z"/>
<path d="M6966 11557 c-66 -25 -87 -47 -70 -74 15 -25 56 -28 95 -7 18 9 44
20 59 24 23 7 275 -9 426 -26 53 -6 62 -4 68 12 12 31 -16 44 -115 55 -52 6
-143 17 -204 25 -145 19 -188 17 -259 -9z"/>
<path d="M24394 11512 c-24 -15 -144 -228 -144 -255 0 -97 142 -166 343 -167
69 0 68 5 26 -142 -35 -125 -35 -153 0 -153 26 0 26 -2 90 202 23 73 46 135
52 138 5 4 9 16 9 28 1 36 47 158 70 182 24 26 24 63 -1 78 -41 26 -96 -52
-137 -193 l-19 -65 -69 -3 c-82 -4 -161 11 -226 44 -68 35 -76 56 -41 107 111
162 115 171 91 195 -14 14 -28 15 -44 4z"/>
<path d="M18536 11364 c-8 -22 61 -91 100 -99 16 -4 123 -38 238 -76 114 -38
215 -69 222 -69 21 0 94 -39 94 -50 0 -28 -134 -25 -385 10 -349 47 -710 65
-735 35 -9 -11 -10 -22 -3 -37 9 -20 16 -21 229 -24 133 -1 268 -9 344 -19
233 -30 375 -45 455 -45 91 0 92 1 -39 -69 -187 -101 -241 -148 -222 -196 8
-21 40 -19 61 5 31 34 171 119 307 187 148 73 168 95 127 139 -13 14 -37 33
-54 41 -16 9 -59 39 -95 68 -71 57 -98 73 -180 108 -200 86 -447 134 -464 91z"/>
<path d="M4115 11365 c-81 -23 -96 -31 -130 -71 -39 -44 -55 -78 -81 -169 -26
-87 -14 -399 16 -455 12 -22 48 -27 55 -7 10 26 21 417 15 514 -4 64 67 123
149 123 49 0 106 -45 116 -92 9 -38 -11 -60 -92 -104 -101 -54 -96 -73 32
-135 88 -43 113 -61 140 -102 15 -24 16 -33 6 -70 -19 -65 -93 -178 -141 -216
-40 -30 -49 -32 -91 -27 -33 5 -49 2 -58 -8 -15 -18 -5 -41 25 -55 78 -35 188
24 263 143 57 90 71 130 71 199 0 58 -2 62 -43 101 -23 23 -70 56 -105 74 -34
18 -62 35 -62 37 0 2 16 13 36 26 62 38 84 69 84 117 0 82 -57 156 -129 168
-20 3 -43 7 -51 9 -8 2 -19 2 -25 0z"/>
<path d="M19875 11245 c-22 -14 -66 -39 -97 -56 -72 -40 -92 -61 -84 -92 14
-58 69 -86 296 -153 52 -15 99 -31 105 -36 5 -4 17 -8 27 -8 10 0 18 -4 18 -9
0 -16 -60 -205 -82 -258 -23 -57 -19 -83 12 -83 16 0 28 15 49 63 15 34 33 80
39 102 48 169 48 170 75 173 35 4 53 27 37 47 -7 8 -19 15 -26 15 -19 0 -19
-2 24 92 25 54 51 93 73 111 19 15 40 32 47 38 16 13 15 44 -3 59 -47 39 -134
-43 -184 -172 -17 -46 -35 -91 -39 -100 -6 -15 -28 -10 -191 45 -101 34 -186
67 -188 73 -2 6 42 32 98 59 103 49 120 65 102 94 -15 25 -63 23 -108 -4z"/>
<path d="M4598 11158 c-21 -17 -27 -39 -16 -60 13 -26 45 -22 65 8 27 42 -11
82 -49 52z"/>
<path d="M20854 11095 c-130 -18 -195 -39 -228 -74 l-29 -31 17 -38 c18 -40
62 -78 183 -159 95 -64 147 -126 139 -167 -13 -62 -80 -121 -160 -140 -16 -4
-51 -1 -78 5 -54 14 -74 5 -64 -28 9 -29 49 -43 122 -43 137 0 244 93 244 213
0 92 -60 161 -223 258 -32 19 -68 44 -79 56 l-21 23 39 17 c29 13 67 18 151
18 61 0 115 4 119 8 24 24 196 -11 429 -88 77 -25 145 -43 152 -41 7 3 13 14
13 25 0 25 -39 46 -175 94 -286 100 -384 116 -551 92z"/>
<path d="M28845 11040 c-35 -14 -80 -75 -130 -175 -20 -39 -22 -40 -85 -48
-127 -15 -254 10 -304 60 -35 35 -33 57 9 89 50 38 45 68 -11 72 -38 3 -43 0
-69 -37 -23 -34 -27 -48 -23 -86 8 -64 28 -89 104 -126 63 -31 75 -34 196 -37
70 -3 128 -6 128 -9 0 -2 -21 -52 -46 -111 -81 -188 -111 -315 -80 -341 25
-21 43 -6 51 41 17 105 41 170 137 378 17 36 41 75 55 87 17 16 22 29 18 46
-9 33 50 113 70 97 27 -22 45 -4 45 44 0 35 -5 48 -19 56 -22 11 -20 11 -46 0z"/>
<path d="M4541 10972 c-6 -12 -4 -36 6 -72 10 -38 13 -79 9 -130 -5 -58 -3
-81 8 -95 12 -16 19 -18 32 -9 28 17 37 70 31 184 -5 92 -9 107 -28 123 -27
22 -46 22 -58 -1z"/>
<path d="M30023 10970 c-42 -10 -60 -25 -95 -79 -34 -54 -37 -111 -8 -158 27
-45 55 -56 143 -57 42 -1 77 -2 77 -4 0 -6 -32 -62 -57 -100 -28 -42 -46 -104
-37 -126 18 -47 80 -38 68 10 -8 29 56 151 121 230 49 61 53 75 29 95 -13 10
-21 10 -47 0 -89 -36 -134 -44 -181 -31 -82 23 -96 73 -34 125 42 35 73 32
112 -11 60 -65 105 -19 51 52 -36 48 -87 67 -142 54z"/>
<path d="M4925 10928 c-11 -6 -36 -26 -56 -45 -32 -30 -37 -32 -49 -18 -34 41
-72 1 -85 -92 -15 -111 27 -127 96 -35 93 124 137 155 169 117 7 -8 16 -49 21
-92 9 -82 16 -97 45 -91 16 3 19 14 22 73 4 81 -16 144 -55 175 -28 22 -77 26
-108 8z"/>
<path d="M5362 10920 c-39 -9 -86 -50 -102 -91 -25 -58 8 -124 73 -148 40 -15
71 -14 111 5 l34 17 30 -34 c28 -31 32 -33 47 -18 14 14 14 20 1 60 -7 24 -17
62 -20 84 -12 75 -35 114 -75 125 -41 11 -52 11 -99 0z m86 -102 c4 -45 -24
-78 -66 -78 -35 0 -52 16 -52 50 0 44 35 72 85 67 27 -2 30 -6 33 -39z"/>
<path d="M30804 10808 c-78 -74 -234 -321 -234 -372 0 -8 -24 -27 -52 -43 -37
-19 -53 -34 -53 -48 0 -16 6 -20 30 -19 17 0 38 4 48 8 14 7 20 0 33 -30 23
-55 60 -101 97 -120 42 -22 195 -31 239 -14 117 45 188 96 188 135 0 56 -21
85 -84 117 -55 29 -71 32 -176 36 -67 2 -132 0 -154 -7 -22 -6 -42 -9 -44 -7
-5 6 39 94 54 107 8 6 14 16 14 21 0 22 92 139 145 183 55 47 66 70 43 93 -21
21 -38 14 -94 -40z m136 -440 c51 -19 90 -46 90 -64 0 -24 -96 -61 -178 -69
-64 -5 -79 -3 -126 18 -36 17 -60 36 -75 61 -41 66 -17 77 154 70 55 -2 116
-9 135 -16z"/>
<path d="M5875 10815 c-79 -35 -134 -129 -134 -231 -1 -70 14 -98 50 -92 23 3
24 7 29 88 6 92 13 111 58 153 46 44 86 36 137 -31 62 -80 75 -87 181 -87 82
0 96 3 152 32 34 17 62 29 62 26 0 -4 -13 -40 -29 -82 -16 -42 -41 -116 -56
-166 -14 -49 -30 -100 -35 -113 -6 -12 -13 -47 -16 -77 -6 -50 -5 -55 13 -55
35 0 53 35 115 222 33 100 73 216 89 257 32 81 35 101 17 119 -20 20 -51 14
-104 -20 -94 -61 -116 -70 -179 -76 -91 -7 -109 1 -155 64 -23 30 -51 59 -63
63 -45 17 -102 20 -132 6z"/>
<path d="M29389 10792 c-112 -58 -188 -132 -239 -232 -18 -36 -21 -52 -15 -98
12 -97 84 -140 215 -129 62 5 95 15 195 55 94 38 152 113 162 209 5 43 1 62
-21 106 -22 45 -34 58 -78 80 -29 15 -78 29 -108 32 -48 5 -63 2 -111 -23z
m168 -63 c47 -18 71 -48 83 -105 9 -43 8 -58 -4 -82 -25 -48 -69 -77 -160
-107 -72 -23 -97 -27 -161 -23 -85 6 -115 24 -115 69 0 43 14 70 64 126 96
107 209 154 293 122z"/>
<path d="M24360 10753 c-35 -13 -70 -57 -70 -88 0 -33 54 -121 112 -181 l29
-31 -30 -49 c-25 -38 -31 -59 -31 -101 0 -30 7 -67 15 -82 36 -71 214 -83 282
-19 16 15 23 33 23 61 0 35 -7 46 -81 118 l-82 80 24 26 c13 14 53 46 89 71
78 55 89 67 83 92 -14 53 -80 23 -182 -82 -31 -32 -60 -58 -66 -58 -13 0 -75
81 -98 126 -12 23 -13 34 -4 43 15 15 22 14 98 -10 69 -23 99 -21 99 5 0 21
-39 45 -107 68 -57 18 -77 21 -103 11z m195 -416 c30 -29 55 -61 55 -70 0 -21
-38 -37 -89 -37 -41 0 -91 36 -91 65 0 27 40 95 55 95 9 0 40 -24 70 -53z"/>
<path d="M12155 10740 c-22 -6 -53 -12 -69 -14 -16 -3 -41 -16 -55 -30 -15
-15 -34 -26 -43 -26 -29 0 -162 -125 -203 -191 -65 -103 -125 -357 -125 -531
0 -84 12 -105 55 -94 14 3 33 1 44 -6 23 -14 90 14 224 91 180 104 368 278
421 390 28 60 31 75 31 161 0 72 -4 104 -18 132 -49 97 -151 143 -262 118z
m102 -65 c50 -21 72 -42 94 -90 37 -81 19 -190 -49 -292 -39 -60 -206 -204
-319 -276 -81 -52 -192 -112 -197 -106 -2 2 16 38 41 79 83 138 110 203 225
549 38 111 45 125 72 137 41 18 89 17 133 -1z m-257 -62 c0 -24 -120 -364
-159 -453 -49 -110 -99 -196 -108 -186 -7 7 14 180 33 276 22 109 92 248 159
315 50 51 75 66 75 48z"/>
<path d="M10180 10725 c-7 -8 -10 -25 -6 -40 8 -32 78 -67 246 -124 214 -73
209 -71 226 -103 24 -47 9 -53 -114 -51 -141 2 -251 16 -767 98 -192 31 -479
57 -691 62 -208 5 -223 4 -267 -15 -38 -17 -47 -26 -47 -46 0 -40 33 -52 75
-26 31 19 48 21 189 21 215 -1 680 -44 861 -81 202 -40 528 -80 660 -80 140 0
178 15 183 73 2 20 4 37 6 37 15 0 125 -44 156 -63 38 -23 39 -24 22 -40 -27
-24 -134 -71 -242 -105 -235 -74 -398 -121 -507 -149 -42 -10 -39 -63 4 -63
13 0 86 18 161 40 75 22 160 47 187 55 216 61 333 104 431 158 129 72 80 137
-168 221 -87 30 -129 51 -183 91 -81 61 -144 94 -234 124 -76 25 -163 28 -181
6z"/>
<path d="M12402 10220 c-63 -45 -75 -70 -70 -143 7 -116 90 -232 200 -282 57
-26 74 -29 170 -30 87 0 110 3 124 17 9 9 14 24 11 32 -5 13 -24 16 -97 16
-50 0 -110 5 -133 11 -57 14 -116 56 -148 104 -34 53 -62 145 -53 180 9 35 59
65 109 64 46 0 126 -28 132 -46 6 -16 -55 -59 -123 -87 -48 -20 -59 -28 -59
-48 0 -38 46 -36 130 6 77 38 135 93 135 127 0 62 -92 109 -214 109 -65 0 -77
-3 -114 -30z"/>
<path d="M13332 10224 c-17 -12 -22 -24 -20 -47 4 -45 42 -48 86 -7 35 34 38
40 20 58 -17 17 -59 15 -86 -4z"/>
<path d="M24156 10174 c-25 -37 -61 -148 -86 -262 -24 -110 -60 -331 -60 -371
0 -35 18 -53 40 -41 13 7 21 33 30 92 30 208 86 432 130 517 27 54 24 85 -11
89 -19 2 -31 -4 -43 -24z"/>
<path d="M14675 10176 c-28 -20 -36 -118 -24 -306 13 -217 17 -246 34 -260 12
-10 18 -10 30 0 11 10 14 49 12 223 -1 154 2 227 12 266 13 53 13 55 -9 73
-27 22 -31 22 -55 4z"/>
<path d="M12952 10094 c-85 -43 -118 -126 -85 -216 42 -117 174 -168 302 -115
61 25 83 49 63 69 -10 10 -26 9 -80 -5 -83 -21 -102 -21 -147 0 -24 11 -42 31
-57 61 -20 42 -20 48 -7 84 8 22 26 47 41 56 25 15 30 14 68 -3 47 -21 73 -13
78 23 7 47 -113 78 -176 46z"/>
<path d="M28563 9987 c-47 -40 -58 -45 -120 -50 -85 -8 -133 -22 -167 -48 -33
-26 -33 -49 -1 -87 14 -17 25 -33 25 -36 0 -4 -18 -30 -41 -58 -52 -67 -69
-108 -69 -174 0 -152 128 -267 311 -281 57 -5 73 -2 108 18 80 45 103 128 60
217 -26 53 -116 152 -204 223 l-63 51 42 37 c70 64 85 71 154 71 72 0 92 19
53 51 l-22 18 26 17 c38 25 32 68 -10 72 -23 2 -42 -8 -82 -41z m-143 -125 c0
-15 -61 -54 -76 -48 -37 14 3 49 64 55 6 0 12 -3 12 -7z m46 -234 c89 -86 164
-188 164 -225 0 -28 -51 -70 -95 -79 -20 -3 -56 -1 -82 5 -173 44 -247 181
-162 302 38 55 62 79 76 79 7 0 52 -37 99 -82z"/>
<path d="M29083 10008 c-5 -7 -15 -51 -21 -98 -9 -77 -24 -133 -92 -367 -13
-44 -22 -106 -23 -160 -2 -83 -1 -88 20 -91 24 -4 26 3 43 128 6 41 28 126 49
190 58 174 71 221 78 306 5 68 4 79 -12 90 -23 17 -30 17 -42 2z"/>
<path d="M29713 9971 c-23 -11 -49 -31 -59 -46 -23 -36 -34 -156 -17 -203 16
-49 71 -98 125 -113 51 -14 246 -6 277 11 39 20 30 -6 -69 -215 -58 -121 -68
-170 -35 -170 21 0 46 39 114 180 83 172 122 266 119 281 -5 28 -33 40 -60 26
-32 -17 -110 -43 -115 -39 -2 2 3 17 12 33 18 35 18 48 1 97 -48 134 -184 207
-293 158z m125 -66 c47 -20 79 -50 103 -98 l20 -38 -26 -31 c-17 -20 -25 -39
-21 -51 4 -18 1 -19 -62 -15 -78 6 -135 31 -151 65 -27 58 -4 140 47 167 35
19 45 19 90 1z"/>
<path d="M24405 9933 c-80 -105 -131 -254 -123 -362 8 -109 86 -175 208 -175
84 0 142 30 188 98 59 88 38 177 -52 220 -49 23 -159 21 -215 -4 -24 -11 -46
-18 -49 -16 -11 11 61 140 103 185 56 60 59 94 8 99 -27 3 -36 -3 -68 -45z
m204 -299 c51 -43 40 -96 -31 -140 -58 -37 -120 -37 -174 -1 -42 28 -67 67
-59 90 14 34 111 77 176 77 47 0 63 -5 88 -26z"/>
<path d="M13333 9963 c-7 -2 -22 -37 -33 -76 -12 -40 -28 -91 -37 -114 -18
-48 -12 -73 15 -73 26 0 47 26 65 80 8 25 25 69 36 98 29 72 9 108 -46 85z"/>
<path d="M13659 9899 c-22 -22 -41 -39 -42 -37 -16 32 -28 44 -45 46 -28 4
-48 -28 -63 -105 -16 -79 -4 -113 40 -113 24 0 38 11 82 68 29 37 57 72 62 77
5 6 6 -13 2 -46 -6 -50 -4 -60 15 -79 30 -30 66 -20 159 42 41 27 80 47 88 44
15 -6 15 -6 37 -87 17 -60 39 -80 63 -56 12 12 12 25 -1 86 -17 81 -45 128
-82 137 -31 8 -60 -4 -128 -56 -57 -43 -80 -50 -72 -22 15 53 16 83 5 104 -27
52 -66 51 -120 -3z"/>
<path d="M14247 9880 c-59 -6 -72 -11 -103 -41 -30 -29 -34 -39 -32 -73 2 -31
10 -45 40 -69 34 -27 39 -28 72 -17 19 6 46 25 60 41 14 16 27 29 29 29 3 0 8
-17 11 -37 22 -125 51 -172 95 -158 28 9 32 31 12 57 -10 13 -21 43 -25 68
-14 95 -63 214 -85 209 -3 -1 -37 -5 -74 -9z m3 -79 c0 -5 -8 -19 -18 -32 -21
-25 -56 -21 -45 6 8 23 63 45 63 26z"/>
<path d="M3846 9766 c-67 -21 -115 -71 -158 -165 -61 -131 -76 -219 -83 -497
-3 -131 -10 -274 -16 -317 -11 -84 -4 -107 31 -107 41 0 44 19 51 353 7 305 8
327 33 417 53 191 96 240 212 240 55 0 68 -4 120 -39 62 -42 125 -123 165
-215 30 -69 24 -196 -14 -280 -91 -200 -489 -607 -581 -594 -14 2 -22 11 -24
30 -8 66 -62 55 -62 -12 0 -52 8 -68 39 -85 29 -15 76 -9 121 15 81 42 255
204 393 365 119 139 131 155 169 230 86 168 61 361 -69 527 -94 119 -214 169
-327 134z"/>
<path d="M30442 9770 c-67 -16 -103 -78 -66 -114 20 -21 23 -20 55 10 22 21
39 26 102 31 140 11 340 -28 378 -73 17 -20 -32 -59 -190 -152 -158 -94 -246
-155 -267 -187 -51 -78 -9 -149 109 -186 39 -13 81 -28 92 -35 11 -7 45 -20
76 -28 31 -8 86 -26 122 -41 79 -31 101 -30 105 7 4 34 -20 51 -124 82 -166
51 -314 113 -329 136 -14 23 30 56 245 179 189 109 230 149 230 222 0 91 -190
159 -440 157 -36 0 -80 -4 -98 -8z"/>
<path d="M23780 9285 c-10 -12 -10 -21 -1 -42 11 -24 14 -25 70 -19 84 10 241
8 276 -3 l30 -9 -45 -18 c-93 -38 -165 -79 -168 -97 -6 -30 16 -45 103 -73 61
-19 92 -36 116 -60 31 -32 32 -35 19 -60 -27 -50 -179 -135 -283 -158 -55 -12
-70 -33 -46 -62 36 -43 289 61 367 151 80 91 34 200 -104 245 -34 12 -44 28
-21 34 101 29 167 73 167 110 0 56 -80 76 -305 76 -134 0 -165 -3 -175 -15z"/>
<path d="M27833 9227 c-33 -54 -119 -239 -133 -282 -7 -22 -18 -51 -26 -65
-60 -116 -87 -216 -60 -226 24 -9 42 11 56 64 6 26 18 54 25 62 7 8 29 56 49
105 20 50 66 144 102 209 47 87 64 126 59 143 -9 36 -49 31 -72 -10z"/>
<path d="M10370 9195 c-16 -19 -5 -47 17 -43 11 2 18 12 18 27 0 29 -17 37
-35 16z"/>
<path d="M24472 9201 c-54 -9 -92 -43 -76 -69 15 -24 48 -26 97 -7 29 12 55
15 91 10 67 -9 165 -35 172 -47 10 -16 -26 -46 -110 -94 -120 -69 -257 -167
-299 -213 -63 -70 -44 -146 46 -190 82 -40 311 -97 341 -85 34 13 28 61 -8 69
-215 47 -305 80 -333 122 -16 24 -23 16 77 95 30 24 104 73 164 108 198 118
240 174 177 234 -53 50 -231 86 -339 67z"/>
<path d="M10761 9166 c-6 -7 -11 -27 -11 -42 0 -16 -3 -52 -6 -80 -5 -42 -3
-52 11 -58 30 -11 42 12 48 91 7 91 -10 127 -42 89z"/>
<path d="M28289 9152 c-28 -18 -93 -89 -145 -157 -85 -111 -109 -234 -58 -295
44 -52 77 -63 168 -57 226 15 346 192 199 292 -29 19 -50 25 -91 25 -63 0
-101 -15 -165 -64 -26 -20 -49 -36 -52 -36 -7 0 18 53 40 84 37 53 95 113 134
141 45 30 56 51 40 71 -15 19 -39 17 -70 -4z m119 -272 c85 -52 38 -125 -107
-165 -70 -20 -123 -12 -156 25 -18 20 -18 21 16 56 42 44 88 73 142 90 57 17
67 17 105 -6z"/>
<path d="M28758 9109 c-14 -8 -26 -56 -15 -60 1 0 52 -3 112 -5 123 -5 305
-30 320 -45 5 -5 0 -9 -15 -9 -53 0 -195 -41 -227 -66 -60 -45 -40 -67 115
-129 119 -47 216 -107 209 -128 -6 -21 -101 -72 -178 -96 -99 -32 -104 -35
-104 -62 0 -35 53 -36 140 -4 126 47 235 128 235 174 0 60 -68 110 -248 181
-96 38 -94 44 22 61 85 11 137 30 166 59 17 17 18 24 8 45 -14 30 -37 37 -238
70 -157 26 -273 31 -302 14z"/>
<path d="M29650 9033 c-84 -11 -80 -48 11 -110 128 -87 126 -74 23 -122 -97
-45 -164 -102 -164 -137 0 -51 90 -84 228 -84 101 1 148 12 183 46 38 36 39
86 4 138 -14 21 -23 41 -20 46 6 10 130 38 185 42 28 2 36 8 38 25 2 17 -4 26
-23 35 -22 10 -41 8 -113 -11 -152 -40 -159 -40 -222 19 l-55 51 85 -5 c47 -3
165 -16 262 -28 137 -17 181 -19 190 -10 18 18 -15 48 -60 55 -290 44 -474 60
-552 50z m208 -280 c54 -78 29 -103 -103 -102 -182 2 -188 35 -16 105 74 31
95 30 119 -3z"/>
<path d="M30466 8995 c-22 -8 -62 -36 -90 -64 -40 -40 -50 -57 -50 -84 0 -77
82 -127 208 -127 87 0 90 -4 57 -74 -64 -138 -101 -230 -103 -258 -3 -28 0
-33 19 -33 19 0 38 31 125 205 57 113 118 238 136 278 18 40 39 75 47 79 20 7
19 39 -1 47 -33 13 -88 -27 -131 -94 -24 -36 -43 -73 -43 -83 0 -15 -6 -18
-27 -13 -16 2 -54 8 -85 11 -63 7 -108 35 -108 67 0 11 16 36 36 55 31 29 41
33 70 27 38 -7 64 8 64 37 0 38 -56 49 -124 24z"/>
<path d="M4513 8985 c-29 -8 -70 -23 -91 -34 -43 -22 -136 -117 -146 -149 -4
-12 -15 -22 -25 -22 -10 0 -24 -7 -32 -16 -10 -13 -10 -20 4 -44 10 -16 17
-49 17 -78 0 -92 54 -177 137 -218 40 -19 172 -31 218 -20 18 5 25 13 25 31 0
14 -3 26 -7 26 -5 1 -37 3 -73 4 -160 7 -230 60 -230 173 l0 49 43 6 c205 29
344 89 390 169 l22 37 -21 27 c-11 15 -31 36 -45 46 -34 26 -121 32 -186 13z
m141 -75 c70 -26 -3 -74 -177 -116 -97 -24 -137 -29 -137 -19 0 31 93 108 160
131 42 16 119 18 154 4z"/>
<path d="M5320 8935 c-22 -26 -8 -50 35 -56 22 -3 50 -9 61 -13 15 -4 27 -1
38 9 21 21 20 31 -4 55 -25 25 -111 28 -130 5z"/>
<path d="M4830 8768 c-61 -32 -83 -66 -88 -137 -8 -109 49 -210 144 -257 48
-24 63 -26 130 -22 84 6 118 24 98 56 -9 14 -23 16 -77 14 -86 -5 -129 10
-172 61 -42 49 -60 105 -48 156 7 30 16 40 56 60 45 22 52 23 105 11 84 -17
116 -12 120 23 3 23 -2 30 -32 42 -57 24 -182 20 -236 -7z"/>
<path d="M6770 8725 c-24 -29 -45 -485 -26 -562 7 -32 36 -51 56 -38 6 3 10
48 10 101 0 90 18 277 40 412 13 76 3 102 -39 102 -16 0 -34 -7 -41 -15z"/>
<path d="M5332 8672 c-19 -19 -72 -172 -92 -269 -13 -61 -1 -96 32 -91 16 2
26 23 52 108 18 58 45 133 60 167 15 33 26 69 24 80 -5 26 -52 29 -76 5z"/>
<path d="M5641 8631 c-20 -21 -46 -52 -58 -67 -21 -27 -22 -27 -23 -8 0 30
-27 51 -47 38 -21 -13 -51 -103 -59 -174 -7 -64 8 -87 51 -76 24 6 87 89 112
146 6 14 23 40 38 59 36 42 48 25 34 -50 -21 -117 -22 -148 -5 -174 43 -65
111 -32 230 110 32 37 41 27 51 -59 11 -98 16 -115 45 -146 31 -34 79 -40 100
-14 11 13 8 20 -22 49 -34 33 -36 38 -43 127 -8 104 -23 151 -55 168 -33 18
-51 6 -139 -90 -45 -50 -89 -90 -97 -90 -8 0 -14 1 -14 3 0 1 7 34 15 72 21
102 20 170 -5 195 -32 32 -67 25 -109 -19z"/>
<path d="M10362 8648 c4 -30 43 -33 43 -3 0 13 -8 21 -23 23 -20 3 -23 0 -20
-20z"/>
<path d="M6451 8506 c-6 -7 -34 -17 -62 -20 -78 -11 -125 -34 -169 -83 -58
-66 -64 -123 -19 -171 41 -45 162 -16 218 51 21 26 31 10 31 -51 0 -47 4 -60
27 -84 29 -30 49 -34 74 -15 26 20 52 66 45 82 -6 17 -42 20 -51 5 -19 -30
-25 3 -25 133 0 147 -5 167 -41 167 -9 0 -22 -6 -28 -14z m-65 -149 c-25 -43
-74 -76 -113 -77 -62 -1 13 107 83 120 21 3 42 5 47 3 4 -3 -4 -23 -17 -46z"/>
<path d="M27611 8461 c-45 -12 -65 -33 -56 -61 6 -19 12 -21 43 -16 117 20
383 14 446 -10 16 -6 15 -9 -5 -30 -23 -24 -89 -53 -179 -77 -168 -46 -180
-50 -186 -70 -11 -35 18 -48 132 -62 60 -7 141 -22 179 -33 76 -23 145 -72
145 -102 0 -41 -149 -154 -273 -207 -40 -17 -89 -28 -137 -32 -67 -5 -75 -8
-78 -28 -2 -16 5 -26 29 -39 29 -14 42 -15 95 -5 154 28 369 168 410 267 25
59 18 90 -28 137 -46 45 -137 82 -240 97 -29 4 -45 8 -35 9 9 0 25 5 35 10 9
5 49 22 87 37 117 46 161 109 117 164 -14 18 -38 26 -98 36 -101 17 -359 26
-403 15z"/>
<path d="M24434 8391 c-27 -12 -73 -67 -91 -108 -20 -48 -16 -98 13 -158 20
-44 37 -62 84 -92 33 -21 60 -42 60 -48 0 -5 -23 -62 -50 -124 -52 -119 -61
-167 -35 -177 21 -9 38 8 54 53 7 21 32 79 56 128 40 83 106 230 151 334 10
24 38 64 63 88 50 50 48 76 -6 81 -57 6 -109 -63 -163 -218 -29 -81 -31 -83
-62 -71 -69 26 -118 134 -88 192 6 11 29 31 51 45 33 20 40 30 37 52 -2 21 -9
27 -28 29 -14 1 -34 -2 -46 -6z"/>
<path d="M23692 8350 c-72 -58 -142 -173 -142 -236 0 -36 34 -80 83 -107 38
-20 57 -22 177 -22 133 0 137 1 203 33 92 46 121 102 77 150 -50 53 -158 80
-249 61 -44 -9 -63 -20 -102 -59 -26 -26 -49 -58 -51 -70 -4 -32 -19 -34 -47
-9 -18 17 -22 28 -17 52 8 38 67 111 117 144 43 28 59 64 39 88 -19 23 -33 19
-88 -25z m295 -206 c24 -9 43 -22 43 -29 0 -29 -131 -65 -237 -65 -59 0 -66
11 -33 52 44 56 142 74 227 42z"/>
<path d="M28485 8354 c-177 -25 -315 -68 -315 -99 0 -29 29 -39 73 -27 140 40
343 72 366 58 21 -14 -22 -65 -197 -232 -157 -151 -173 -169 -170 -197 5 -52
43 -71 156 -75 131 -5 366 13 425 34 39 13 48 20 45 38 -3 20 -7 21 -98 16
-182 -10 -443 -6 -447 7 -2 6 40 49 95 96 175 151 271 263 272 318 0 9 -8 27
-18 39 -15 19 -30 23 -88 25 -38 2 -82 1 -99 -1z"/>
<path d="M7930 8335 c-24 -29 -2 -53 81 -84 45 -17 86 -31 93 -31 17 0 98 -54
122 -81 l19 -22 -70 6 c-38 4 -126 16 -195 27 -69 11 -172 27 -230 35 -58 8
-157 24 -220 35 -138 24 -252 26 -269 6 -14 -17 1 -55 22 -57 7 0 50 -4 97 -9
77 -7 151 -17 470 -66 58 -9 130 -20 160 -25 30 -4 105 -11 167 -15 96 -6 116
-4 138 10 14 9 25 25 25 36 0 11 4 20 8 20 14 0 102 -61 102 -71 0 -16 -45
-38 -157 -74 -116 -37 -141 -57 -112 -91 15 -18 36 -15 189 33 88 28 123 44
148 69 71 71 30 118 -201 223 -37 17 -69 31 -72 31 -3 0 -29 12 -58 26 -86 42
-196 84 -221 84 -13 0 -29 -7 -36 -15z"/>
<path d="M9043 8299 c-30 -12 -77 -43 -110 -72 -31 -29 -54 -45 -51 -37 8 22
-10 50 -31 50 -19 0 -51 -31 -70 -67 -23 -44 -101 -281 -101 -305 0 -33 23
-52 54 -44 26 6 56 50 130 188 56 107 108 176 150 203 l31 19 -37 -42 c-21
-23 -38 -46 -38 -50 0 -16 27 -40 97 -86 97 -63 152 -131 137 -169 -10 -27
-63 -47 -150 -57 -49 -5 -92 -10 -96 -10 -4 0 -8 10 -10 22 -7 48 -78 22 -78
-29 0 -38 31 -59 97 -67 129 -14 265 28 310 95 24 37 25 42 13 84 -16 58 -83
133 -161 181 -32 20 -59 40 -58 43 0 3 28 24 62 46 67 43 91 82 67 109 -18 22
-93 20 -157 -5z"/>
<path d="M9489 8245 c-71 -39 -78 -125 -11 -125 35 0 125 94 117 121 -8 23
-66 26 -106 4z"/>
<path d="M10497 8224 c-10 -11 -9 -62 2 -69 15 -9 42 25 39 49 -3 21 -28 33
-41 20z"/>
<path d="M29013 8220 c-24 -10 -29 -34 -14 -59 7 -10 21 -12 54 -8 79 11 447
-26 447 -45 0 -4 -4 -8 -9 -8 -26 0 -204 -134 -295 -223 -101 -98 -126 -137
-112 -172 8 -22 25 -18 49 12 64 81 270 261 338 297 91 48 149 93 149 117 0
31 -39 45 -175 64 -71 9 -154 21 -184 26 -69 11 -219 11 -248 -1z"/>
<path d="M30365 8169 c-55 -33 -47 -63 40 -154 41 -42 75 -80 75 -82 0 -3 -17
-26 -39 -52 -71 -86 -90 -124 -92 -187 -1 -35 4 -73 13 -94 52 -119 252 -233
353 -200 48 16 85 63 85 108 0 98 -57 221 -160 346 -58 71 -68 86 -51 86 12 0
38 9 58 20 24 13 57 20 89 20 39 0 55 5 70 21 21 23 11 51 -21 58 -10 2 -26
12 -34 22 -9 11 -56 35 -106 55 -72 30 -105 38 -175 41 -55 2 -92 0 -105 -8z
m248 -90 c59 -20 87 -39 56 -39 -6 0 -38 -16 -72 -36 l-62 -36 -38 43 c-22 24
-49 57 -60 73 l-21 29 65 -6 c35 -3 94 -16 132 -28z m-44 -241 c55 -74 112
-169 132 -220 21 -55 25 -128 7 -146 -36 -36 -145 13 -234 103 -69 70 -75 89
-53 168 17 62 74 136 105 137 7 0 26 -19 43 -42z"/>
<path d="M29908 8141 c-150 -59 -329 -203 -363 -293 -26 -70 -15 -106 49 -165
30 -27 74 -55 102 -65 66 -23 189 -41 238 -36 60 7 144 46 152 71 4 12 17 30
30 40 18 14 24 28 24 56 0 52 -28 84 -93 106 -52 17 -59 17 -136 2 -84 -17
-161 -58 -210 -111 -31 -34 -43 -33 -75 5 -30 35 -32 58 -11 98 36 71 233 202
325 216 25 4 51 12 58 17 15 13 16 50 0 66 -16 16 -34 15 -90 -7z m130 -371
c35 -16 42 -24 42 -47 0 -24 -8 -31 -53 -51 -58 -25 -116 -28 -217 -11 -78 12
-100 27 -73 47 28 21 124 64 163 72 59 13 93 10 138 -10z"/>
<path d="M9369 7961 c-17 -18 -29 -40 -29 -56 0 -32 -14 -61 -47 -96 -21 -23
-23 -30 -14 -48 27 -49 90 -7 145 98 38 73 44 99 24 119 -20 20 -48 14 -79
-17z"/>
<path d="M9636 7971 c-37 -40 -49 -168 -20 -209 28 -40 78 -30 163 35 73 55
101 39 101 -59 0 -58 20 -98 49 -98 33 0 41 21 41 118 0 90 -1 95 -29 123 -43
42 -102 41 -186 -6 l-63 -36 5 60 c8 83 -21 117 -61 72z"/>
<path d="M10127 7910 c-51 -10 -97 -55 -97 -95 0 -80 135 -120 208 -62 15 11
15 11 27 -27 13 -37 39 -55 61 -41 22 14 32 166 12 183 -37 30 -153 53 -211
42z m83 -80 c0 -14 -35 -30 -64 -30 -30 0 -34 14 -8 29 22 13 72 14 72 1z"/>
<path d="M10590 7893 c-116 -13 -196 -76 -226 -179 -17 -60 -14 -78 19 -98 27
-17 50 5 67 65 22 77 36 98 83 120 61 27 67 25 67 -21 0 -55 32 -114 82 -150
68 -50 163 -41 325 31 29 12 56 20 59 16 4 -4 -20 -41 -52 -82 -32 -42 -81
-107 -109 -145 -122 -167 -278 -352 -381 -453 -42 -41 -55 -60 -52 -78 1 -13
11 -25 20 -27 18 -4 214 180 282 264 23 28 81 98 129 156 150 179 266 339 273
377 6 29 3 38 -16 53 -15 12 -31 17 -44 13 -12 -4 -36 -6 -54 -6 -18 1 -69
-14 -113 -34 -45 -20 -106 -38 -138 -41 -51 -6 -60 -4 -89 21 -36 30 -40 56
-20 129 19 71 2 81 -112 69z"/>
<path d="M23226 7853 c-48 -52 -136 -331 -187 -596 -14 -75 -6 -109 24 -105
25 3 28 14 52 148 9 52 20 106 25 120 4 14 18 59 30 100 32 110 89 252 111
276 33 36 21 84 -21 84 -5 0 -21 -12 -34 -27z"/>
<path d="M3092 7790 c-75 -10 -173 -42 -219 -70 -34 -20 -42 -47 -21 -68 18
-18 42 -15 100 17 29 15 74 33 100 40 145 35 330 14 378 -44 11 -13 3 -25 -56
-83 -38 -37 -89 -84 -114 -104 -186 -148 -300 -267 -300 -313 0 -32 39 -62 91
-70 64 -9 530 33 548 50 22 22 6 43 -36 47 -39 3 -155 -4 -343 -21 -113 -10
-170 -6 -170 13 0 16 64 77 190 180 58 48 140 121 183 164 73 72 77 79 77 120
0 38 -5 50 -34 77 -59 55 -227 84 -374 65z"/>
<path d="M23561 7651 c-81 -7 -107 -24 -85 -58 9 -14 24 -18 75 -17 35 1 114
3 174 4 118 3 165 -8 165 -37 -1 -26 -12 -39 -188 -218 -94 -94 -161 -171
-165 -187 -10 -38 7 -75 45 -99 46 -28 152 -20 268 20 196 69 200 71 200 103
0 34 -31 31 -171 -16 -104 -34 -154 -46 -199 -46 -98 0 -94 11 82 188 167 169
208 221 208 265 0 36 -36 72 -86 87 -47 14 -222 20 -323 11z"/>
<path d="M3858 7600 c-20 -12 -24 -55 -7 -66 7 -4 36 -6 65 -5 73 2 299 -57
397 -105 67 -32 49 -40 -132 -50 -108 -6 -127 -10 -150 -30 -25 -21 -25 -23
-8 -42 10 -10 37 -27 60 -37 170 -73 297 -150 342 -210 13 -17 27 -49 30 -70
8 -51 -21 -97 -89 -139 -39 -25 -58 -30 -100 -28 -44 2 -56 7 -84 37 -37 39
-62 37 -62 -5 0 -38 33 -76 84 -95 80 -31 203 8 269 85 70 82 64 201 -15 280
-40 40 -180 133 -245 163 l-48 22 55 2 c118 6 160 14 190 40 17 13 30 33 30
42 0 43 -126 115 -293 166 -45 14 -95 30 -112 36 -46 16 -158 21 -177 9z"/>
<path d="M27770 7500 c-165 -53 -352 -191 -444 -327 -69 -103 -30 -192 109
-245 51 -20 78 -23 185 -23 111 0 129 3 161 22 68 43 79 116 26 185 -39 51
-94 75 -150 64 -49 -9 -129 -89 -125 -126 5 -38 35 -37 77 3 48 48 79 58 118
42 37 -16 51 -38 45 -72 -8 -41 -59 -56 -177 -51 -112 5 -191 32 -225 75 -18
24 -19 27 -3 57 36 69 152 181 246 239 81 49 199 97 238 97 40 0 55 24 35 55
-19 29 -39 30 -116 5z"/>
<path d="M28373 7479 c-31 -32 -1 -78 88 -135 73 -46 83 -59 94 -117 11 -59
-29 -130 -118 -207 -79 -69 -135 -99 -183 -100 -46 0 -61 -23 -34 -50 31 -31
99 -23 160 16 194 124 267 234 235 356 -7 27 -25 62 -41 79 -36 38 -23 54 38
45 23 -4 63 -8 88 -10 59 -4 132 -20 201 -45 31 -11 76 -22 100 -23 38 -3 44
0 44 17 0 35 -160 97 -338 130 -48 9 -104 23 -123 31 -51 21 -195 30 -211 13z"/>
<path d="M24242 7464 c-31 -22 -28 -43 17 -103 22 -29 55 -82 73 -117 l33 -64
-65 -63 c-78 -74 -103 -121 -107 -202 -3 -47 0 -67 16 -93 26 -40 77 -72 116
-72 94 0 160 153 137 316 -6 43 -8 82 -5 87 7 12 47 27 137 52 44 12 84 29 90
37 15 24 -10 48 -51 48 -38 0 -146 -34 -181 -57 -13 -8 -25 -13 -27 -11 -1 2
-12 21 -23 43 -12 22 -35 60 -51 85 -47 68 -51 67 91 44 74 -12 56 51 -21 74
-56 17 -152 15 -179 -4z m152 -386 c19 -74 -10 -212 -51 -244 -25 -19 -31 -18
-58 12 -30 32 -33 89 -9 137 16 32 92 117 105 117 4 0 9 -10 13 -22z"/>
<path d="M4950 7324 c-29 -12 -60 -48 -60 -69 0 -25 14 -45 112 -159 37 -43
68 -85 68 -93 0 -8 -18 -37 -40 -66 -79 -105 -93 -193 -41 -264 52 -71 113
-103 200 -103 48 0 63 4 84 24 44 40 45 68 9 196 -9 33 -79 155 -97 170 -23
19 -18 34 18 55 120 71 177 139 127 152 -11 3 -33 27 -50 54 -16 27 -35 49
-41 49 -7 0 -36 12 -65 26 -39 19 -73 27 -131 30 -43 2 -85 1 -93 -2z m165
-74 c22 -5 41 -14 43 -20 2 -6 20 -27 39 -46 19 -19 33 -42 31 -51 -3 -16 -81
-83 -97 -83 -7 0 -94 103 -138 163 -12 17 -20 34 -17 39 7 11 89 10 139 -2z
m56 -396 c43 -92 69 -158 69 -180 0 -27 -32 -46 -68 -39 -42 8 -104 46 -126
77 -22 31 -20 91 5 141 22 44 57 87 70 87 5 0 27 -39 50 -86z"/>
<path d="M4646 7284 c-13 -13 -15 -48 -13 -247 l2 -232 27 -3 c19 -2 28 2 33
17 3 10 8 116 10 235 3 182 1 218 -11 231 -19 19 -29 19 -48 -1z"/>
<path d="M29265 7264 c-106 -17 -139 -36 -143 -85 -5 -60 41 -110 237 -253 87
-64 134 -127 121 -161 -12 -31 -69 -80 -129 -111 -53 -27 -100 -33 -181 -22
-33 4 -39 -31 -9 -58 31 -28 136 -24 209 8 66 30 139 88 163 131 54 98 1 172
-261 365 -63 47 -89 79 -75 93 15 15 113 29 204 29 98 0 164 -11 255 -42 68
-24 97 -20 92 14 -11 76 -273 126 -483 92z"/>
<path d="M29787 7143 c-12 -12 -7 -50 7 -63 8 -6 39 -15 68 -20 29 -4 69 -14
88 -21 19 -7 64 -23 100 -36 125 -46 126 -47 23 -53 -104 -6 -133 -22 -133
-73 0 -24 18 -48 97 -128 101 -102 163 -188 163 -225 0 -65 -42 -129 -114
-173 -58 -34 -86 -33 -86 4 0 28 -22 47 -44 39 -24 -9 -22 -88 4 -114 26 -26
88 -26 138 -1 104 54 162 139 162 238 0 78 -33 133 -150 251 -50 52 -90 96
-87 98 3 3 61 6 129 7 99 2 129 6 151 20 67 44 19 75 -317 207 -120 46 -183
60 -199 43z"/>
<path d="M11211 7075 c-30 -9 -77 -28 -105 -43 -43 -23 -51 -31 -51 -56 0 -36
27 -56 53 -38 9 7 46 27 82 45 60 29 73 32 160 32 101 0 180 -17 180 -39 0 -7
-44 -37 -97 -66 -258 -139 -332 -218 -282 -299 21 -34 100 -76 172 -90 185
-38 213 -41 324 -39 110 3 118 4 118 23 0 16 -11 22 -50 31 -27 7 -77 13 -110
13 -80 1 -282 45 -342 73 -27 13 -49 31 -51 40 -4 23 86 89 224 164 130 71
174 109 174 151 0 37 -23 58 -91 85 -72 28 -231 34 -308 13z"/>
<path d="M30808 6920 c-88 -37 -144 -76 -208 -147 -128 -140 -135 -265 -22
-419 60 -83 163 -120 283 -102 125 19 225 104 236 200 4 37 1 49 -20 74 -68
81 -317 86 -499 9 -15 -6 -18 -2 -18 31 2 104 145 239 300 283 64 18 75 25 78
50 4 28 -15 51 -42 50 -11 0 -51 -13 -88 -29z m152 -420 c19 -6 46 -19 59 -29
23 -17 23 -21 11 -50 -25 -61 -127 -112 -225 -113 -45 -1 -65 5 -111 33 -49
30 -114 101 -114 126 0 30 302 55 380 33z"/>
<path d="M11921 6836 c-24 -29 -9 -51 39 -56 47 -5 46 -12 -3 -24 -83 -20
-150 -99 -131 -153 36 -105 329 -150 407 -63 34 38 35 75 3 139 -44 85 -144
153 -247 166 -43 5 -58 4 -68 -9z m228 -151 c41 -47 50 -84 25 -102 -29 -22
-177 -14 -229 12 -53 27 -53 53 0 79 21 11 63 22 92 24 30 3 56 8 59 13 9 16
21 10 53 -26z"/>
<path d="M22754 6817 c-3 -9 -4 -24 -2 -34 3 -15 20 -20 108 -29 136 -14 266
-43 293 -64 l21 -17 -29 -27 c-16 -15 -54 -40 -84 -57 -31 -16 -104 -64 -164
-105 -81 -57 -116 -88 -144 -130 -34 -52 -36 -56 -24 -94 9 -31 22 -45 57 -66
43 -26 50 -27 147 -21 122 6 190 28 185 61 -3 24 -32 26 -183 12 -71 -7 -84
-5 -113 13 -27 17 -31 24 -22 39 29 49 103 109 253 202 160 99 195 137 185
201 -8 59 -159 108 -390 125 -75 6 -88 5 -94 -9z"/>
<path d="M12364 6790 c-35 -14 -64 -59 -64 -98 0 -29 8 -43 45 -78 25 -23 59
-47 75 -54 17 -7 30 -19 30 -26 0 -8 -12 -48 -26 -90 -23 -66 -25 -78 -12 -90
22 -23 45 -7 64 44 40 108 42 112 67 112 34 0 52 23 37 49 -6 12 -18 21 -26
21 -11 0 -14 6 -8 23 11 36 31 72 49 87 41 34 38 90 -6 90 -36 0 -73 -55 -105
-158 -8 -27 -114 47 -114 80 0 4 14 11 32 16 39 10 57 35 42 60 -13 19 -49 25
-80 12z"/>
<path d="M12731 6711 c-27 -27 -27 -45 4 -97 l25 -42 -55 -31 c-55 -31 -105
-96 -105 -138 0 -69 138 -152 253 -153 48 0 62 4 82 25 37 36 33 79 -19 180
l-44 85 30 0 c42 0 68 17 68 44 0 40 -19 47 -84 30 -56 -15 -57 -15 -76 8 -26
31 -25 41 3 32 12 -5 36 -8 52 -9 23 0 30 4 30 19 0 28 -46 57 -98 63 -36 4
-49 1 -66 -16z m103 -245 c28 -48 54 -132 44 -142 -12 -12 -130 25 -164 51
-51 39 -46 64 21 108 56 36 69 34 99 -17z"/>
<path d="M26874 6632 c-30 -19 -115 -191 -143 -287 -47 -165 -59 -239 -42
-249 20 -13 40 8 46 47 4 23 13 52 21 64 8 12 14 31 14 41 0 17 28 95 61 167
7 17 33 59 56 94 44 65 52 98 31 119 -14 14 -28 15 -44 4z"/>
<path d="M9024 6617 c-63 -18 -172 -86 -227 -142 -186 -190 -192 -404 -15
-532 119 -86 202 -115 336 -114 66 0 93 5 136 24 124 57 240 217 261 359 8 55
-13 138 -54 210 -29 51 -94 107 -123 108 -10 0 -35 16 -57 35 -21 19 -55 42
-74 50 -42 17 -124 18 -183 2z m172 -72 c19 -14 18 -15 -6 -34 -21 -17 -23
-23 -14 -38 8 -12 21 -17 40 -15 69 6 120 0 144 -17 14 -10 38 -44 55 -77 61
-121 29 -260 -86 -369 -93 -89 -176 -114 -299 -88 -100 20 -174 57 -236 118
-85 84 -93 176 -27 294 52 90 155 178 260 220 58 24 141 27 169 6z"/>
<path d="M13773 6608 c-4 -7 -9 -71 -10 -143 -1 -90 -10 -175 -28 -275 -38
-210 -41 -255 -21 -263 27 -11 45 3 52 41 3 21 15 82 25 137 51 262 61 474 24
501 -23 17 -32 18 -42 2z"/>
<path d="M3123 6541 c-61 -10 -188 -57 -208 -78 -20 -19 -19 -62 1 -70 9 -3
50 10 93 30 42 21 107 42 145 48 66 11 206 7 228 -7 17 -11 -41 -61 -176 -151
-143 -96 -251 -194 -262 -237 -15 -62 113 -144 268 -171 156 -28 341 -16 390
25 21 17 22 20 7 35 -15 15 -26 16 -100 6 -116 -16 -173 -14 -281 8 -99 21
-174 53 -192 84 -9 16 -4 25 34 59 25 22 104 80 176 130 246 166 290 244 160
277 -59 15 -221 21 -283 12z"/>
<path d="M2192 6528 c-18 -18 -15 -56 6 -66 9 -5 56 -12 104 -16 48 -4 113
-14 143 -22 71 -18 89 -18 105 2 11 13 9 19 -12 40 -20 21 -48 30 -154 49
-148 28 -175 30 -192 13z"/>
<path d="M9662 6528 c-6 -7 -21 -42 -35 -78 -13 -36 -42 -112 -64 -170 -58
-152 -63 -171 -63 -233 0 -44 5 -62 23 -82 33 -39 104 -54 197 -42 41 5 108
10 148 10 66 0 76 -3 109 -29 51 -42 59 -57 48 -91 -21 -61 -192 -112 -278
-84 -52 17 -113 65 -142 111 -27 43 -48 50 -64 23 -14 -26 30 -104 81 -146 64
-52 109 -67 201 -67 235 0 356 155 220 281 -63 60 -83 64 -275 64 -122 0 -181
4 -189 12 -33 32 18 208 116 403 19 38 35 80 35 94 0 33 -46 50 -68 24z"/>
<path d="M23582 6530 c-27 -12 -45 -55 -38 -93 3 -16 41 -88 85 -160 99 -167
111 -190 111 -222 0 -80 -169 -135 -275 -91 -33 14 -41 15 -53 2 -23 -22 -5
-53 44 -77 100 -48 281 -1 332 86 19 33 22 50 19 96 -5 62 -25 107 -101 224
-63 97 -89 152 -80 166 11 18 76 0 116 -32 41 -32 75 -38 85 -13 7 19 52 13
166 -23 87 -27 150 -28 155 -1 5 25 -35 46 -139 74 -52 13 -119 34 -149 45
-61 23 -238 35 -278 19z"/>
<path d="M27335 6420 c-18 -3 -31 -12 -33 -23 -7 -34 15 -45 91 -45 70 1 274
-41 307 -62 13 -9 11 -13 -10 -30 -35 -28 -74 -47 -112 -55 -56 -12 -128 -54
-128 -73 0 -34 26 -52 138 -96 142 -56 239 -113 290 -171 43 -49 55 -85 41
-124 -11 -28 -129 -145 -174 -173 -58 -35 -101 -19 -122 47 -13 39 -56 43 -61
5 -11 -76 45 -140 124 -140 50 0 139 54 220 135 61 60 84 106 84 162 -1 54
-18 86 -79 148 -55 56 -188 132 -298 171 -51 17 -69 34 -38 34 24 0 182 80
210 106 45 42 29 80 -45 107 -164 60 -326 91 -405 77z"/>
<path d="M14034 6386 c-3 -9 -4 -23 -1 -31 4 -8 -9 -37 -28 -65 -66 -98 -70
-171 -12 -237 43 -49 99 -73 172 -73 149 0 184 110 92 292 -28 55 -39 66 -88
91 -72 36 -126 46 -135 23z m159 -128 c79 -138 47 -238 -66 -207 -44 12 -107
67 -107 93 0 50 89 156 130 156 12 0 28 -16 43 -42z"/>
<path d="M24435 6343 c-39 -21 -153 -112 -186 -149 -45 -50 -104 -137 -133
-198 -25 -50 -28 -67 -24 -120 6 -75 33 -130 88 -180 57 -51 122 -78 206 -83
61 -5 78 -2 111 16 100 57 98 190 -3 275 -55 45 -152 85 -226 92 -37 4 -68 10
-68 14 0 19 86 119 146 171 60 53 107 81 177 108 23 9 28 16 25 39 -3 24 -8
27 -43 29 -23 2 -53 -4 -70 -14z m-53 -460 c108 -57 145 -127 93 -178 -63 -64
-248 4 -295 108 -20 42 -26 88 -13 100 3 4 38 7 76 7 60 0 78 -5 139 -37z"/>
<path d="M4412 6304 c-47 -33 -16 -99 79 -166 60 -42 64 -46 60 -79 -10 -92
-6 -152 11 -163 26 -16 38 2 42 60 6 77 20 104 55 104 31 0 57 22 46 40 -4 6
-18 15 -31 20 -24 9 -24 11 -10 39 9 16 34 43 56 61 52 41 52 73 2 78 -42 4
-94 -34 -122 -89 -11 -21 -26 -39 -34 -39 -7 0 -30 16 -50 36 -30 29 -36 41
-31 61 11 47 -29 68 -73 37z"/>
<path d="M14380 6314 c-27 -12 -60 -47 -60 -66 0 -10 11 -23 25 -30 20 -9 29
-7 52 8 47 30 239 12 231 -23 -2 -7 -46 -39 -98 -70 -112 -68 -126 -92 -90
-143 37 -52 146 -97 250 -105 106 -8 145 2 145 36 0 23 -3 24 -90 30 -131 10
-235 42 -235 73 0 7 38 34 84 60 108 61 126 78 126 121 0 41 -17 54 -110 85
-64 22 -201 36 -230 24z"/>
<path d="M3945 6282 c-32 -7 -143 -82 -160 -108 -37 -56 -1 -158 72 -205 73
-48 141 -69 220 -69 140 0 212 43 228 136 9 58 -19 138 -59 168 -89 67 -212
99 -301 78z m191 -96 c65 -30 94 -67 94 -118 0 -78 -70 -111 -192 -90 -100 17
-198 85 -198 136 0 21 46 54 94 67 22 6 50 15 61 19 36 15 89 10 141 -14z"/>
<path d="M4973 6235 c-44 -19 -42 -42 10 -105 73 -90 72 -87 21 -142 -80 -86
-94 -158 -46 -235 17 -29 47 -56 82 -77 113 -66 206 -67 237 -1 15 31 15 38
-1 93 -9 33 -39 97 -66 143 -28 46 -50 87 -50 91 0 4 16 14 35 23 19 9 39 23
46 31 6 8 19 14 29 14 23 0 42 24 34 44 -8 22 -90 80 -155 111 -61 28 -126 32
-176 10z m181 -86 c20 -12 36 -23 36 -25 0 -11 -56 -53 -70 -53 -12 0 -62 65
-79 103 -6 15 76 -3 113 -25z m-4 -283 c60 -123 67 -160 30 -164 -56 -6 -160
67 -174 123 -8 33 17 87 56 120 16 14 31 25 34 25 2 0 27 -47 54 -104z"/>
<path d="M14928 6214 c-45 -19 -78 -82 -78 -151 0 -43 4 -51 48 -92 l48 -46
-22 -55 c-26 -63 -39 -139 -29 -169 10 -33 53 -28 60 7 16 80 28 120 55 171
16 31 38 74 48 97 11 23 45 63 76 90 56 48 69 77 44 102 -7 7 -19 12 -26 12
-26 0 -96 -66 -132 -124 -37 -59 -56 -68 -83 -38 -31 34 -21 71 28 116 49 45
56 69 26 86 -23 12 -17 13 -63 -6z"/>
<path d="M28380 6175 c-5 -14 -10 -36 -10 -48 0 -21 -29 -168 -72 -362 -43
-195 -46 -216 -38 -252 19 -81 78 -63 67 20 -4 26 1 71 12 117 10 41 28 120
41 175 12 55 33 142 46 193 14 52 24 112 22 135 -3 37 -6 42 -30 45 -22 3 -30
-2 -38 -23z"/>
<path d="M12031 6136 c-38 -45 -38 -277 -1 -511 28 -180 25 -316 -10 -387 -20
-39 -21 -49 -10 -62 19 -24 47 -19 70 14 16 22 24 56 31 127 11 105 8 153 -22
361 -24 168 -25 307 -2 379 12 40 14 59 7 71 -14 22 -48 27 -63 8z"/>
<path d="M15767 6043 c-14 -14 -6 -50 16 -70 12 -12 39 -28 59 -36 49 -20 140
-89 161 -121 50 -75 -20 -200 -120 -213 -32 -4 -44 0 -77 26 -21 17 -47 31
-57 31 -47 0 -34 -59 23 -100 120 -87 318 26 318 183 0 55 -8 74 -57 135 -19
23 -30 42 -24 42 5 0 55 -16 111 -35 77 -26 107 -32 121 -24 20 10 24 26 11
47 -16 24 -185 76 -367 111 -22 4 -50 13 -62 19 -24 13 -46 15 -56 5z"/>
<path d="M29043 5921 c-65 -52 -78 -67 -108 -134 -31 -67 -28 -111 11 -189 31
-62 134 -147 242 -201 75 -37 92 -41 155 -41 113 -1 170 37 210 142 22 54 21
116 0 183 -31 98 -159 199 -252 199 -39 0 -56 -15 -42 -38 3 -6 31 -20 62 -31
169 -63 233 -237 130 -352 -35 -40 -39 -42 -95 -41 -111 1 -305 123 -356 223
-38 73 6 168 104 228 58 35 73 56 55 77 -21 25 -65 16 -116 -25z"/>
<path d="M2117 5902 c-59 -65 41 -129 328 -210 233 -66 319 -83 765 -158 102
-17 688 -135 910 -183 128 -28 290 -68 355 -89 17 -5 62 -19 100 -31 124 -37
269 -82 300 -92 120 -42 257 -93 355 -134 196 -80 212 -86 239 -83 20 2 27 9
29 29 3 28 -8 35 -138 83 -36 13 -121 46 -190 73 -243 98 -732 246 -1015 308
-181 40 -451 96 -550 116 -27 5 -97 19 -155 30 -117 23 -211 40 -345 62 -221
36 -316 56 -460 94 -289 78 -394 116 -448 164 -51 44 -58 46 -80 21z"/>
<path d="M16442 5875 c-13 -16 -28 -67 -41 -142 -12 -65 -29 -140 -37 -167
-19 -67 -19 -160 2 -176 24 -21 42 5 57 85 30 148 70 311 83 337 18 35 18 53
-2 72 -22 22 -40 20 -62 -9z"/>
<path d="M22652 5884 c-26 -18 -29 -55 -6 -90 9 -13 59 -61 111 -105 213 -182
310 -350 237 -408 -35 -27 -61 -26 -118 4 -53 28 -84 32 -92 11 -15 -40 56
-90 142 -101 40 -5 58 -2 94 17 53 27 75 65 72 126 -3 87 -87 218 -208 327
-37 33 -92 84 -123 113 l-56 54 55 -6 c67 -7 156 -42 199 -79 34 -28 56 -34
66 -17 11 18 51 10 150 -30 54 -22 108 -40 121 -40 23 0 37 21 28 43 -10 28
-189 102 -344 143 -47 12 -110 29 -140 38 -71 20 -159 21 -188 0z"/>
<path d="M29917 5833 c-12 -11 -8 -50 6 -62 7 -6 38 -10 68 -9 32 0 89 -10
139 -24 119 -36 188 -54 318 -84 61 -15 112 -30 112 -35 0 -9 -76 -71 -170
-137 -33 -24 -108 -89 -166 -145 -77 -74 -104 -106 -102 -121 6 -45 41 -29
150 72 59 54 135 118 169 143 94 67 202 158 218 184 31 49 22 53 -269 126 -91
22 -206 54 -256 70 -86 28 -200 39 -217 22z"/>
<path d="M16612 5778 c-16 -16 -15 -43 1 -55 6 -6 50 -13 97 -16 65 -4 100
-12 151 -35 37 -17 70 -35 74 -42 5 -8 -14 -31 -51 -64 -118 -103 -134 -123
-134 -166 0 -94 162 -169 274 -126 47 18 63 40 45 62 -8 10 -34 14 -93 12 -65
-2 -87 1 -113 17 -18 11 -33 27 -33 36 0 9 36 47 80 85 94 82 121 131 95 171
-25 37 -102 81 -191 108 -85 27 -182 33 -202 13z"/>
<path d="M17581 5691 c-73 -26 -89 -52 -51 -86 20 -18 22 -18 71 5 33 16 66
24 95 22 52 -2 143 -29 164 -49 13 -12 12 -16 -10 -34 -14 -11 -70 -45 -125
-75 -55 -31 -106 -64 -112 -72 -38 -47 8 -98 145 -164 69 -33 99 -42 142 -42
51 -1 55 1 55 23 0 20 -10 27 -75 50 -84 30 -166 69 -180 86 -7 8 16 26 73 57
45 26 101 63 125 84 99 84 74 131 -102 190 -83 29 -142 30 -215 5z"/>
<path d="M30709 5611 c-20 -16 -22 -23 -13 -38 9 -14 29 -19 90 -24 89 -6 148
-24 246 -76 163 -85 153 -116 -57 -178 -221 -64 -265 -84 -265 -119 0 -76 183
-193 439 -281 135 -47 195 -56 205 -30 6 16 -18 45 -38 45 -36 0 -186 58 -311
120 -151 76 -201 110 -192 132 3 9 60 30 136 51 73 21 154 48 181 62 93 47
115 121 54 182 -37 38 -189 117 -273 143 -112 35 -169 38 -202 11z"/>
<path d="M23614 5589 c-3 -6 -10 -81 -14 -167 -4 -87 -16 -209 -26 -274 -21
-137 -14 -183 26 -183 24 0 25 4 32 75 3 41 14 113 23 160 22 115 38 370 23
387 -13 16 -54 17 -64 2z"/>
<path d="M18144 5525 c-23 -35 -10 -96 32 -150 18 -25 79 -89 134 -143 131
-129 131 -147 -1 -122 -39 7 -66 21 -101 51 -27 22 -56 39 -66 37 -58 -11 15
-114 106 -149 78 -30 200 -33 231 -5 46 42 26 78 -143 255 -95 98 -126 137
-126 157 0 22 3 24 23 18 12 -4 36 -17 52 -29 17 -12 88 -57 159 -100 98 -60
132 -76 144 -68 9 5 17 14 19 20 5 15 -47 62 -121 108 -35 22 -70 51 -77 63
-18 31 -146 82 -204 82 -36 0 -48 -5 -61 -25z"/>
<path d="M14034 5396 c-109 -24 -213 -132 -255 -267 -28 -87 -23 -222 10 -292
32 -66 70 -90 149 -95 57 -4 70 -1 140 34 62 30 97 58 177 139 104 104 155
185 155 243 0 43 -46 125 -91 163 -99 83 -167 102 -285 75z m113 -96 c32 -11
70 -20 86 -20 50 0 114 -88 102 -141 -8 -37 -103 -158 -174 -221 -97 -87 -212
-127 -265 -93 -47 31 -61 70 -61 175 0 89 2 100 33 160 79 152 147 187 279
140z"/>
<path d="M23971 5387 c-17 -21 -5 -56 22 -61 12 -3 53 -7 90 -11 98 -8 417
-127 417 -155 0 -11 -46 -34 -165 -80 -241 -93 -276 -198 -119 -354 70 -70
218 -158 258 -154 23 2 31 8 31 22 0 14 -27 36 -93 76 -134 80 -212 164 -212
228 0 40 77 89 223 143 137 51 199 118 150 161 -43 38 -294 147 -393 171 -108
27 -193 32 -209 14z"/>
<path d="M26452 5318 c-20 -20 -14 -48 14 -58 14 -6 55 -10 92 -10 103 0 179
-16 260 -55 72 -34 144 -82 170 -114 39 -48 -3 -95 -178 -203 -229 -141 -250
-156 -250 -182 0 -43 112 -99 250 -125 111 -20 237 -30 315 -23 67 6 80 10 83
26 6 29 -16 36 -113 36 -130 1 -324 32 -403 66 l-37 16 32 26 c17 15 67 47
110 71 43 24 114 70 158 102 120 87 147 150 98 226 -17 26 -163 125 -224 152
-95 42 -351 75 -377 49z"/>
<path d="M18745 5299 c-92 -34 -135 -113 -116 -215 6 -30 15 -62 20 -72 7 -12
3 -24 -15 -45 -28 -34 -30 -52 -7 -66 12 -6 26 -5 45 5 27 14 31 13 89 -28 51
-36 68 -43 106 -42 39 1 51 6 75 33 15 17 28 42 28 55 0 47 -77 88 -180 95
l-75 6 -13 53 c-12 48 -11 57 5 90 16 33 25 39 80 53 61 16 93 33 93 50 0 18
-41 49 -62 48 -13 0 -45 -9 -73 -20z m98 -363 c15 -4 27 -10 27 -15 0 -12 -69
4 -84 19 -8 9 -6 11 9 7 11 -3 32 -8 48 -11z"/>
<path d="M19523 5218 c-37 -49 -89 -331 -76 -418 7 -50 11 -55 33 -55 24 0 25
4 36 95 6 52 24 140 39 195 16 55 29 120 29 145 1 41 -1 45 -25 48 -14 2 -30
-3 -36 -10z"/>
<path d="M3885 5214 c-11 -3 -56 -14 -99 -25 -94 -23 -113 -40 -80 -73 21 -22
45 -20 139 9 92 29 182 32 225 10 17 -9 30 -19 30 -24 0 -18 -80 -80 -159
-122 -99 -52 -161 -103 -161 -131 0 -33 36 -74 103 -116 117 -74 294 -135 374
-130 44 3 48 5 48 28 0 27 -9 31 -107 49 -116 20 -349 135 -332 162 2 4 51 36
107 69 122 74 197 142 197 181 0 33 -32 74 -73 95 -31 16 -172 28 -212 18z"/>
<path d="M19728 5143 c-24 -26 -23 -40 5 -58 18 -11 35 -13 77 -6 36 6 73 4
117 -5 99 -21 104 -27 47 -59 -81 -46 -154 -97 -170 -119 -20 -30 -17 -75 9
-113 42 -64 240 -134 276 -98 25 25 3 44 -84 73 -96 32 -135 56 -135 82 0 21
57 65 139 106 101 50 136 100 94 136 -10 8 -38 22 -63 32 -25 10 -56 23 -70
28 -14 6 -70 13 -125 16 -90 4 -102 2 -117 -15z"/>
<path d="M16450 5111 c-30 -11 -61 -28 -70 -38 -8 -10 -31 -25 -50 -33 -162
-66 -286 -205 -350 -397 -61 -180 -49 -339 31 -436 135 -163 481 -84 698 160
77 86 129 208 147 342 19 143 -81 338 -203 396 -55 27 -137 29 -203 6z m142
-55 c93 -33 166 -133 189 -258 24 -130 -34 -294 -144 -410 -160 -167 -396
-247 -519 -175 -53 30 -68 52 -93 126 -25 76 -16 180 24 290 39 107 68 156
138 232 105 112 194 144 267 94 42 -29 68 -32 86 -10 11 13 8 21 -15 45 -16
17 -34 30 -40 30 -6 0 -20 6 -30 14 -19 13 -18 15 15 24 48 14 79 13 122 -2z"/>
<path d="M4333 5069 c-29 -15 -37 -39 -19 -57 11 -11 44 -15 138 -16 114 -1
146 -7 227 -38 22 -8 19 -12 -52 -58 -73 -49 -141 -118 -226 -230 -44 -59 -50
-80 -27 -99 22 -18 49 0 98 67 88 118 157 180 258 230 75 37 96 52 98 71 5 30
-8 42 -61 57 -23 7 -82 27 -132 45 -72 26 -109 33 -185 35 -58 3 -104 0 -117
-7z"/>
<path d="M20356 4960 c-35 -11 -66 -38 -66 -58 0 -8 12 -36 26 -63 l27 -48
-37 -41 c-43 -48 -45 -77 -10 -120 46 -54 125 -81 163 -54 25 18 28 62 6 124
-20 57 -19 67 8 74 37 10 81 51 74 70 -11 28 -37 30 -83 7 -56 -27 -58 -26
-72 4 -16 35 -17 33 24 37 45 4 66 30 44 53 -20 19 -68 26 -104 15z m36 -280
c5 -34 4 -34 -23 -20 -22 12 -25 30 -7 48 16 16 25 7 30 -28z"/>
<path d="M27732 4935 c-59 -18 -108 -58 -148 -121 -51 -80 -68 -137 -68 -234
0 -73 4 -94 28 -148 46 -100 142 -172 231 -172 54 0 85 25 85 69 0 37 -28 71
-92 112 -44 29 -62 34 -113 35 l-60 1 -9 39 c-12 52 6 159 40 230 29 62 72 95
144 114 25 7 51 17 58 22 21 18 14 48 -14 58 -30 12 -28 12 -82 -5z m-12 -547
c67 -35 86 -81 24 -58 -37 14 -104 60 -104 71 0 16 35 10 80 -13z"/>
<path d="M4864 4845 c-8 -20 9 -40 46 -55 39 -16 38 -26 -3 -39 -46 -15 -84
-58 -107 -120 -27 -69 -25 -126 5 -187 56 -112 160 -175 328 -199 172 -25 249
150 142 320 -94 149 -386 347 -411 280z m200 -157 c34 -24 116 -112 152 -163
27 -38 45 -121 34 -151 -13 -34 -51 -64 -81 -64 -38 0 -129 24 -170 46 -100
50 -157 132 -145 206 12 76 44 120 101 137 49 15 74 12 109 -11z"/>
<path d="M21160 4747 c-109 -39 -169 -88 -214 -174 -24 -48 -20 -94 12 -135
15 -20 35 -41 46 -48 27 -17 121 -40 164 -40 44 0 98 30 107 61 10 30 -23 71
-71 87 -50 17 -154 9 -171 -14 -15 -20 -33 -10 -33 19 0 61 99 144 204 171 65
17 86 30 86 55 0 46 -37 51 -130 18z m7 -323 c-3 -3 -12 -4 -19 -1 -8 3 -5 6
6 6 11 1 17 -2 13 -5z"/>
<path d="M28065 4755 c-52 -18 -78 -50 -65 -76 13 -23 50 -25 92 -3 25 13 52
15 132 12 113 -6 189 -27 237 -67 41 -35 35 -47 -71 -131 -137 -109 -218 -189
-245 -243 -32 -65 -31 -79 5 -120 43 -50 126 -72 267 -72 120 1 147 10 127 43
-9 13 -32 18 -110 23 -145 9 -234 38 -234 78 0 25 61 92 148 163 158 129 212
189 212 237 0 33 -55 86 -118 114 -117 53 -292 72 -377 42z"/>
<path d="M2999 4674 c-9 -11 -10 -20 -3 -32 10 -15 32 -25 189 -87 39 -16 128
-57 199 -91 101 -49 133 -61 148 -53 32 17 23 32 -47 76 -57 36 -249 133 -262
133 -5 0 -35 16 -67 35 -65 39 -133 48 -157 19z"/>
<path d="M18273 4661 c-37 -44 -114 -313 -139 -489 -18 -126 -14 -152 20 -139
18 7 27 42 56 197 23 123 66 264 105 343 28 54 31 77 13 95 -17 17 -36 15 -55
-7z"/>
<path d="M21437 4552 c-15 -16 -27 -39 -27 -55 0 -32 52 -87 101 -107 19 -7
36 -15 37 -16 2 -1 -10 -23 -27 -48 -34 -49 -39 -77 -16 -96 23 -19 38 -7 98
78 32 46 75 92 99 109 31 21 43 36 43 53 0 21 -5 25 -37 28 -29 2 -43 -3 -72
-29 -29 -25 -41 -30 -64 -24 -56 13 -96 55 -54 55 11 0 27 9 38 21 27 30 8 53
-47 57 -38 2 -48 -1 -72 -26z"/>
<path d="M29075 4538 c-2 -7 -6 -30 -10 -52 -6 -34 -18 -79 -69 -261 -8 -27
-28 -99 -46 -160 -17 -60 -35 -118 -40 -127 -16 -28 -12 -124 5 -138 22 -18
45 5 45 46 0 18 4 43 9 56 5 13 26 77 46 143 20 66 49 161 64 210 42 134 71
241 71 263 0 30 -66 47 -75 20z"/>
<path d="M22383 4513 c-7 -2 -13 -15 -13 -28 0 -33 17 -42 95 -50 119 -12 215
-43 215 -71 0 -19 -49 -48 -118 -69 -65 -20 -82 -31 -82 -53 0 -28 29 -49 120
-87 98 -41 170 -95 170 -127 0 -47 -140 -144 -250 -173 -64 -17 -77 -10 -61
36 9 26 9 36 -2 46 -29 29 -77 -27 -77 -91 0 -53 31 -70 118 -64 107 8 252 87
313 171 62 86 26 159 -115 231 -42 21 -76 41 -76 46 0 4 18 15 41 25 42 19 83
61 94 95 17 52 -65 114 -190 144 -69 16 -164 26 -182 19z"/>
<path d="M3648 4491 c-40 -9 -70 -38 -66 -64 3 -19 8 -22 43 -19 117 8 160 3
233 -27 80 -33 172 -95 172 -115 0 -22 -28 -31 -235 -76 -22 -5 -65 -14 -95
-21 -54 -12 -90 -38 -90 -64 0 -15 74 -88 130 -129 50 -37 177 -96 206 -96 29
0 42 26 23 45 -8 7 -51 32 -97 55 -78 39 -152 92 -152 110 0 4 40 15 88 24
127 23 222 53 247 76 27 26 35 25 35 -3 0 -30 94 -135 187 -210 68 -55 73 -61
73 -98 0 -110 88 -178 136 -104 14 21 14 27 -4 62 -32 62 -98 136 -208 233
-57 50 -104 98 -104 107 0 12 9 14 53 8 83 -10 143 -35 207 -87 62 -51 80 -57
100 -34 13 17 30 12 86 -26 23 -15 45 -28 49 -28 3 0 21 -11 38 -23 68 -50
160 -86 172 -67 11 17 -4 44 -32 62 -16 9 -68 42 -118 74 -49 31 -157 91 -240
133 l-150 77 -102 -2 c-62 0 -108 -5 -116 -13 -12 -9 -16 -6 -21 21 -7 36 -76
105 -143 145 -94 55 -235 89 -305 74z"/>
<path d="M29385 4440 c-14 -15 -17 -32 -13 -77 9 -131 171 -302 304 -321 l47
-7 -2 -77 c-4 -135 30 -252 81 -279 14 -7 23 -7 34 2 19 15 18 31 -5 71 -28
48 -45 148 -38 225 6 57 11 70 33 88 29 23 28 55 0 55 -20 0 -11 91 14 140 14
30 22 35 51 35 41 0 59 10 59 34 0 43 -70 72 -118 47 -40 -21 -70 -85 -84
-184 l-12 -82 -37 0 c-104 0 -305 230 -244 280 8 7 15 23 15 35 0 38 -55 48
-85 15z"/>
<path d="M22893 4345 c-28 -20 -29 -37 -3 -60 17 -15 27 -16 70 -8 31 6 69 7
97 2 51 -10 113 -44 113 -63 0 -18 -38 -49 -100 -82 -83 -43 -152 -89 -178
-117 -30 -32 -20 -54 41 -96 51 -34 120 -56 242 -76 117 -19 189 -19 205 0 24
29 4 42 -87 55 -162 22 -323 66 -323 88 0 5 49 35 110 67 119 63 160 105 160
162 0 41 -27 73 -92 108 -45 25 -67 30 -143 33 -72 3 -95 0 -112 -13z"/>
<path d="M20032 4309 c-13 -5 -26 -17 -28 -27 -3 -9 -25 -26 -50 -36 -46 -19
-105 -80 -123 -129 -6 -16 -11 -49 -11 -74 0 -145 95 -231 265 -240 95 -6 165
17 229 74 118 105 128 204 31 311 -50 56 -119 98 -191 116 -70 18 -89 19 -122
5z m105 -84 c88 -26 193 -129 193 -189 0 -24 -47 -92 -79 -113 -64 -43 -104
-55 -166 -48 -108 11 -175 61 -191 141 -12 61 42 135 119 165 23 9 46 26 52
38 12 25 9 25 72 6z"/>
<path d="M30236 4264 c-9 -8 -16 -32 -16 -52 1 -91 87 -192 219 -257 l82 -40
-6 -35 c-4 -19 -13 -47 -21 -63 -25 -47 -75 -219 -77 -262 -2 -35 1 -40 21
-43 12 -2 24 3 26 10 25 88 80 260 90 283 7 17 17 43 22 60 5 16 20 35 33 41
40 20 46 31 32 58 -12 21 -11 30 8 69 30 62 65 97 96 97 55 0 86 45 53 78 -17
17 -85 15 -114 -5 -35 -22 -78 -88 -100 -152 -11 -29 -25 -56 -32 -58 -20 -8
-108 32 -161 74 -73 57 -94 93 -86 143 10 62 -30 94 -69 54z"/>
<path d="M23883 4208 c-5 -7 -18 -53 -27 -103 -15 -81 -39 -181 -67 -287 -16
-61 -14 -167 3 -184 28 -29 48 -7 48 55 1 58 3 67 70 321 46 176 47 204 9 208
-14 2 -30 -3 -36 -10z"/>
<path d="M2982 4178 c-23 -23 -14 -64 21 -90 33 -26 299 -158 317 -158 5 0 29
-9 52 -19 46 -21 164 -67 323 -126 55 -21 128 -49 162 -61 34 -13 66 -24 72
-24 6 0 39 -12 74 -26 34 -14 107 -42 162 -61 157 -56 162 -58 176 -69 8 -6
37 -16 64 -23 28 -6 64 -18 80 -25 42 -20 202 -81 315 -121 40 -14 175 -69
235 -95 22 -10 67 -28 100 -40 33 -13 65 -26 70 -30 25 -18 316 -110 347 -110
39 0 62 19 56 47 -2 13 -19 21 -63 29 -76 14 -176 43 -192 56 -7 5 -27 14 -45
18 -18 5 -71 24 -118 43 -168 68 -276 111 -335 132 -85 31 -94 35 -154 61 -29
13 -59 24 -67 24 -16 0 -217 75 -257 95 -16 8 -35 15 -43 15 -8 0 -22 4 -32 9
-9 6 -57 24 -107 42 -49 17 -128 46 -175 64 -47 18 -121 45 -165 60 -44 15
-95 36 -113 46 -18 10 -38 19 -43 19 -11 0 -218 80 -284 110 -223 100 -233
105 -300 144 -33 19 -66 44 -74 55 -15 23 -41 27 -59 9z"/>
<path d="M21137 4153 c-15 -15 -5 -44 21 -59 72 -45 105 -70 152 -118 103
-103 146 -250 102 -348 -29 -66 -58 -82 -135 -76 -183 15 -417 243 -371 363 4
9 25 25 47 37 34 17 51 19 109 13 74 -7 98 2 98 36 0 45 -145 67 -226 33 -202
-83 -115 -342 166 -496 239 -131 440 -29 416 210 -10 99 -63 199 -150 287 -90
90 -200 147 -229 118z"/>
<path d="M27056 4115 c-24 -18 -71 -19 -116 -3 -29 10 -35 9 -50 -9 -11 -14
-42 -26 -101 -37 -104 -21 -162 -46 -184 -79 -24 -38 -6 -63 100 -142 173
-129 225 -194 225 -280 0 -63 -21 -87 -70 -83 -46 4 -64 -26 -31 -53 35 -29
91 -25 123 9 39 42 48 66 48 129 0 114 -70 207 -251 334 -33 23 -58 47 -56 53
2 6 48 21 103 34 161 37 245 24 591 -91 87 -28 98 -35 98 -56 0 -37 26 -48 80
-33 25 7 73 12 107 12 77 0 220 -29 215 -44 -2 -6 -44 -33 -94 -61 -179 -98
-259 -151 -315 -207 -32 -31 -58 -65 -58 -76 0 -33 59 -102 103 -122 147 -65
342 -61 287 5 -8 10 -31 15 -64 15 -65 0 -182 35 -221 66 -24 19 -28 27 -19
41 14 24 170 128 320 213 118 68 144 93 144 139 0 53 -122 99 -285 107 -81 3
-115 10 -180 35 -93 36 -146 56 -272 100 -53 18 -93 37 -93 45 0 12 -46 54
-59 54 -3 0 -15 -7 -25 -15z"/>
<path d="M24162 4069 c-84 -62 -154 -177 -136 -223 4 -11 -2 -27 -17 -42 -19
-20 -21 -28 -12 -42 6 -9 20 -16 32 -15 14 2 36 -12 62 -38 50 -50 110 -78
168 -79 36 0 49 6 77 34 28 28 34 42 34 76 0 81 -90 135 -212 128 -48 -2 -58
0 -58 13 0 24 36 65 88 101 26 17 50 36 54 42 14 20 8 55 -11 66 -26 13 -21
14 -69 -21z m101 -293 c33 -13 38 -19 35 -43 -3 -25 -7 -28 -44 -31 -34 -2
-49 3 -84 30 -24 18 -45 38 -47 45 -9 26 76 26 140 -1z"/>
<path d="M24678 4054 c-19 -18 -3 -43 70 -111 72 -69 76 -74 57 -86 -11 -6
-37 -29 -59 -50 -37 -35 -38 -40 -33 -82 9 -60 37 -113 90 -168 84 -85 167
-110 212 -61 51 55 39 136 -38 251 l-49 74 22 24 c19 20 21 27 11 39 -10 12
-7 15 16 18 39 4 43 38 6 59 -94 55 -286 113 -305 93z m209 -126 c18 -7 33
-16 33 -20 0 -16 -47 -7 -65 12 -21 23 -14 25 32 8z m31 -210 c28 -46 53 -99
57 -119 21 -114 -128 -31 -181 100 l-17 44 31 29 c18 15 39 28 46 28 8 0 37
-37 64 -82z"/>
<path d="M5005 3973 c-86 -26 -128 -78 -140 -176 -6 -53 -4 -60 17 -81 13 -12
43 -47 68 -78 46 -57 104 -98 139 -98 24 0 71 54 71 82 0 39 -50 89 -123 124
-40 19 -77 34 -84 34 -21 0 -16 67 6 89 10 10 37 22 59 26 42 7 82 36 82 60 0
12 -31 37 -42 34 -2 0 -25 -7 -53 -16z m45 -324 c0 -4 -7 -6 -15 -3 -8 4 -15
10 -15 15 0 4 7 6 15 3 8 -4 15 -10 15 -15z"/>
<path d="M25218 3890 c-71 -38 -85 -86 -45 -161 27 -53 81 -105 146 -144 49
-29 51 -31 51 -76 0 -49 18 -76 45 -65 10 3 15 19 15 46 0 35 3 40 24 40 47 0
61 55 16 67 -25 7 -25 8 4 62 15 28 37 52 62 66 49 27 57 60 19 75 -20 8 -35
6 -60 -6 -43 -20 -50 -29 -79 -100 -13 -33 -31 -60 -39 -62 -9 -2 -45 26 -81
61 -79 78 -87 109 -31 127 39 13 56 50 35 75 -16 20 -37 18 -82 -5z"/>
<path d="M28271 3642 c-128 -78 -181 -128 -181 -173 0 -76 73 -142 203 -183
21 -7 22 -36 1 -106 -14 -47 -14 -54 -1 -68 26 -25 43 -7 66 74 13 44 30 87
39 97 9 10 17 34 19 52 4 61 44 124 96 150 44 22 28 75 -23 75 -52 0 -104 -65
-139 -172 -7 -21 -18 -38 -25 -38 -26 0 -137 63 -153 87 -15 23 -15 26 6 46
12 12 65 49 118 82 106 66 124 85 107 113 -6 9 -17 18 -25 19 -8 1 -56 -23
-108 -55z"/>
<path d="M25777 3673 c-12 -11 -7 -41 9 -57 10 -10 33 -16 64 -16 27 0 73 -5
102 -11 58 -12 158 -49 158 -59 0 -3 -24 -12 -52 -19 -96 -24 -148 -65 -148
-117 0 -31 40 -91 78 -116 44 -30 148 -54 187 -44 57 14 16 66 -52 66 -52 0
-154 74 -138 101 9 13 62 34 109 43 100 19 148 55 126 97 -14 25 -173 103
-255 124 -60 15 -176 20 -188 8z"/>
<path d="M22640 3595 c-10 -13 -11 -21 -3 -34 11 -17 5 -19 -60 -24 -170 -13
-257 -65 -257 -155 0 -100 69 -184 205 -247 111 -53 180 -69 256 -62 108 10
160 71 167 197 4 69 1 85 -22 136 -30 66 -102 146 -158 175 -55 28 -111 35
-128 14z m87 -157 c37 -18 47 -20 64 -10 18 11 21 9 36 -25 9 -21 18 -69 20
-108 4 -62 2 -74 -19 -105 -13 -19 -36 -39 -51 -44 -58 -21 -226 38 -313 109
-67 55 -82 133 -32 164 71 44 225 54 295 19z"/>
<path d="M26507 3523 c-17 -16 -4 -112 43 -323 6 -25 12 -67 15 -93 2 -26 9
-55 14 -65 5 -10 12 -46 14 -81 6 -69 16 -87 43 -77 17 7 17 27 -5 171 -5 33
-16 110 -24 171 -8 62 -17 116 -20 120 -3 5 -8 43 -11 83 -4 41 -12 81 -18 88
-11 14 -40 17 -51 6z"/>
<path d="M28970 3444 c-57 -7 -184 -35 -203 -46 -11 -6 -17 -18 -15 -31 3 -19
9 -22 48 -22 25 1 92 9 149 19 78 14 129 17 199 13 52 -4 97 -9 99 -11 6 -6
-29 -55 -39 -56 -10 0 -137 -87 -223 -152 -137 -104 -179 -196 -117 -258 38
-38 122 -62 187 -54 90 12 205 83 192 119 -9 22 -46 18 -95 -10 -53 -30 -99
-39 -156 -31 -43 7 -86 36 -86 59 0 21 122 129 241 213 125 90 189 148 189
174 0 22 -26 44 -70 60 -35 12 -236 22 -300 14z"/>
<path d="M4459 3344 c-7 -8 -29 -64 -50 -122 -20 -59 -62 -177 -93 -262 -61
-168 -67 -204 -37 -220 30 -16 50 -2 61 44 19 79 90 282 144 411 40 96 52 135
45 148 -12 21 -52 22 -70 1z"/>
<path d="M24090 3325 c-6 -8 -9 -23 -5 -34 6 -19 4 -19 -47 -5 -138 36 -330
-3 -377 -79 -44 -72 -18 -208 60 -307 79 -100 224 -191 335 -211 50 -9 68 -7
114 8 46 15 58 25 83 67 27 43 31 60 35 148 9 197 -47 366 -139 414 -35 18
-44 18 -59 -1z m4 -146 c32 -16 62 -26 67 -23 20 12 31 -55 27 -171 -3 -103
-7 -128 -28 -170 -21 -42 -31 -51 -62 -58 -30 -7 -47 -4 -90 16 -163 75 -259
174 -287 297 -20 88 20 127 143 139 104 11 164 3 230 -30z"/>
<path d="M29600 3313 c-30 -6 -60 -31 -60 -50 0 -8 23 -38 51 -68 48 -51 56
-75 23 -75 -27 0 -132 -116 -144 -159 -22 -84 34 -177 135 -227 50 -24 64 -26
136 -22 74 4 83 7 112 37 28 28 32 38 31 86 0 44 -8 71 -44 140 -24 47 -52 93
-62 102 -27 24 -22 33 17 33 51 0 105 25 105 48 0 38 -21 42 -109 24 l-83 -17
-28 35 c-16 19 -30 39 -30 44 0 5 31 6 73 1 125 -14 142 -13 142 10 0 32 -64
57 -158 60 -45 2 -93 1 -107 -2z m128 -287 c33 -46 67 -127 77 -188 6 -31 4
-38 -15 -48 -65 -35 -196 16 -232 91 -29 58 5 129 86 179 36 23 46 19 84 -34z"/>
<path d="M4713 3265 c-84 -36 -91 -153 -15 -267 31 -47 119 -107 160 -108 11
0 12 -10 7 -42 -4 -24 -11 -51 -16 -60 -5 -9 -18 -52 -28 -95 -11 -43 -30
-114 -41 -158 -30 -109 -30 -119 -2 -123 36 -5 48 12 66 95 9 43 21 92 27 108
19 54 39 128 77 277 26 101 45 155 60 171 29 30 31 106 4 130 -44 40 -76 7
-91 -93 -25 -161 -28 -166 -96 -123 -51 32 -105 110 -105 152 0 28 31 71 52
71 5 0 13 11 20 25 8 19 8 28 -2 40 -15 18 -35 19 -77 0z"/>
<path d="M25023 3178 c-63 -104 -107 -201 -137 -307 -37 -129 -43 -183 -22
-200 12 -10 20 -11 28 -3 10 10 38 80 59 152 33 107 76 194 131 264 40 51 46
74 26 94 -16 16 -75 15 -85 0z"/>
<path d="M25383 3168 c-5 -7 -10 -51 -11 -98 -3 -101 -22 -206 -56 -313 -15
-43 -26 -84 -26 -93 0 -8 -7 -26 -17 -40 -15 -23 -15 -27 0 -41 13 -13 19 -14
31 -4 16 14 66 115 66 135 0 8 6 27 14 43 42 84 80 357 57 401 -13 24 -43 29
-58 10z"/>
<path d="M30152 3064 c-29 -20 -28 -37 8 -89 17 -24 30 -47 30 -50 0 -4 -21
-30 -46 -58 -78 -87 -94 -138 -70 -219 31 -106 131 -180 245 -182 63 -1 99 16
127 60 14 21 15 32 6 67 -18 70 -40 122 -72 170 -16 25 -30 48 -30 51 0 4 -11
24 -25 44 -14 20 -25 40 -25 43 0 12 101 50 160 61 77 13 95 27 86 63 -7 27
-8 28 -66 22 -42 -5 -80 -1 -136 13 -93 24 -162 26 -192 4z m158 -71 c2 -2 -2
-8 -10 -14 -22 -14 -54 -6 -58 13 -3 15 2 17 30 11 18 -3 35 -8 38 -10z m-14
-239 c60 -118 88 -190 79 -204 -9 -15 -77 -12 -118 5 -48 20 -104 77 -112 114
-12 54 56 199 88 188 7 -2 35 -48 63 -103z"/>
<path d="M25926 2967 c-16 -12 -16 -20 -2 -139 19 -148 20 -274 5 -401 -11
-95 -2 -156 22 -142 6 4 8 13 5 21 -3 7 2 30 11 51 40 97 52 267 33 483 -8 88
-14 118 -27 128 -21 15 -25 15 -47 -1z"/>
<path d="M3136 2648 c-9 -13 -12 -27 -7 -36 9 -16 74 -42 106 -42 20 0 128
-25 345 -81 69 -17 143 -32 165 -33 36 -1 40 2 40 23 0 32 -41 45 -512 165
-123 31 -118 31 -137 4z"/>
<path d="M26532 2559 c-23 -15 -45 -47 -75 -108 -38 -78 -42 -93 -42 -161 0
-102 41 -184 135 -274 98 -93 184 -98 262 -14 52 56 71 102 76 185 8 119 -43
221 -150 302 -29 22 -64 51 -78 65 -32 32 -82 34 -128 5z m164 -133 c88 -88
118 -146 117 -226 -1 -76 -26 -133 -72 -164 -43 -30 -63 -32 -99 -10 -41 25
-112 113 -139 174 -32 70 -28 144 12 216 61 110 80 111 181 10z"/>
<path d="M4487 2292 c-25 -27 -16 -83 28 -177 39 -82 39 -83 -54 -130 -157
-80 -211 -134 -211 -211 0 -24 5 -46 10 -49 6 -4 17 -22 25 -41 22 -52 112
-149 167 -179 27 -15 72 -29 101 -32 48 -5 54 -3 82 27 28 30 30 37 35 133 4
91 -4 198 -25 324 l-7 42 43 11 c24 6 66 18 93 26 27 8 66 14 86 14 67 0 99
71 36 78 -19 2 -53 25 -95 63 -81 73 -148 106 -232 115 -57 5 -66 4 -82 -14z
m173 -83 c43 -15 120 -71 117 -83 -3 -9 -130 -55 -154 -56 -6 0 -15 10 -19 23
-3 12 -12 29 -19 37 -7 8 -15 36 -18 61 l-6 47 32 -8 c18 -4 48 -14 67 -21z
m-84 -266 c13 -31 17 -348 5 -372 -35 -64 -182 42 -238 172 -19 44 -16 60 20
94 29 27 182 122 198 123 4 0 10 -8 15 -17z"/>
<path d="M3558 1829 c-29 -16 -22 -58 15 -93 53 -49 307 -169 632 -298 28 -11
64 -26 80 -33 17 -7 104 -36 195 -65 91 -28 185 -58 209 -66 56 -18 82 -18
105 -1 18 13 17 15 -10 34 -16 12 -69 33 -119 48 -49 15 -99 31 -110 35 -11 5
-63 23 -115 41 -101 34 -228 83 -257 98 -10 5 -36 17 -58 26 -22 9 -49 20 -60
25 -91 40 -146 64 -180 80 -22 10 -74 34 -116 53 -41 19 -99 55 -127 81 -57
50 -58 50 -84 35z"/>
<path d="M4214 1261 c-87 -11 -142 -61 -205 -189 l-33 -65 11 -97 c14 -126 34
-160 118 -200 44 -22 127 -26 172 -9 51 19 104 62 130 106 24 42 25 44 9 78
-12 24 -32 43 -64 59 -57 28 -162 62 -220 71 -24 4 -46 13 -49 21 -8 21 43
100 81 123 18 12 50 21 70 21 71 0 118 44 84 78 -13 13 -22 13 -104 3z m-9
-344 c80 -23 135 -53 135 -72 0 -19 -46 -53 -87 -64 -44 -12 -125 8 -159 40
-27 26 -50 89 -40 114 7 19 40 15 151 -18z"/>
</g>
</svg>
