<?xml version="1.0" standalone="no"?>
<!DOCTYPE svg PUBLIC "-//W3C//DTD SVG 20010904//EN"
 "http://www.w3.org/TR/2001/REC-SVG-20010904/DTD/svg10.dtd">
<svg version="1.0" xmlns="http://www.w3.org/2000/svg"
 width="3264.000000pt" height="2448.000000pt" viewBox="0 0 3264.000000 2448.000000"
 preserveAspectRatio="xMidYMid meet">
<metadata>
Created by potrace 1.12, written by Peter Selinger 2001-2015
</metadata>
<g transform="translate(0.000000,2448.000000) scale(0.100000,-0.100000)"
fill="#000000" stroke="none">
<path d="M10527 23743 c-13 -12 -7 -42 17 -97 14 -30 36 -104 50 -163 64 -263
88 -355 122 -463 20 -63 40 -131 44 -150 3 -19 14 -49 23 -66 9 -17 25 -64 36
-105 33 -120 60 -200 80 -233 11 -17 26 -56 35 -86 37 -125 130 -285 210 -362
37 -36 39 -40 32 -84 -11 -86 -75 -171 -120 -160 -18 4 -28 0 -41 -20 -9 -14
-15 -27 -13 -29 57 -48 135 -24 191 58 45 65 47 70 117 312 32 110 64 214 71
231 6 17 9 42 5 57 -5 21 -12 27 -35 27 -38 0 -48 -14 -66 -96 -25 -111 -81
-298 -91 -301 -10 -3 -172 323 -217 437 -127 324 -194 551 -323 1100 -19 82
-48 155 -72 183 -15 17 -43 23 -55 10z"/>
<path d="M6350 23498 c-228 -4 -491 -12 -585 -18 -276 -17 -718 -77 -1137
-155 -491 -91 -1242 -365 -1650 -603 -192 -111 -236 -137 -306 -184 -44 -29
-110 -71 -147 -93 -37 -22 -86 -54 -109 -70 -22 -17 -88 -64 -146 -105 -278
-197 -582 -481 -743 -694 -21 -27 -55 -71 -76 -96 -44 -53 -72 -95 -87 -131
-7 -14 -22 -37 -33 -50 -42 -46 -130 -185 -177 -279 -26 -52 -57 -108 -69
-125 -20 -30 -60 -109 -148 -295 -46 -97 -77 -180 -77 -205 0 -7 -5 -15 -11
-17 -5 -2 -13 -24 -16 -48 -5 -41 -4 -43 10 -25 8 11 18 31 22 45 4 14 15 43
25 65 21 47 39 87 73 171 14 33 44 96 66 140 22 43 41 84 41 91 0 6 3 13 8 15
4 2 18 23 30 48 13 25 34 63 48 85 13 22 30 54 37 70 8 17 31 54 51 84 20 29
36 59 36 66 0 7 7 15 15 19 8 3 15 11 15 17 0 7 7 21 17 31 9 10 21 27 27 37
16 28 100 140 195 259 180 225 412 446 698 663 61 46 344 236 401 269 24 14
66 40 94 58 27 17 52 32 54 32 3 0 23 12 47 27 132 84 486 262 642 323 44 17
117 47 162 66 263 111 744 251 1058 308 50 9 113 21 140 27 66 13 439 67 540
79 298 33 394 40 680 47 403 10 921 10 1045 1 166 -13 532 -65 653 -92 37 -9
97 -23 135 -31 91 -21 207 -46 262 -56 25 -4 63 -12 85 -18 22 -5 62 -15 90
-21 123 -26 338 -100 515 -178 224 -98 424 -192 440 -207 8 -7 27 -18 42 -24
15 -5 57 -29 95 -52 142 -88 238 -141 336 -186 231 -106 292 -157 883 -738 39
-39 77 -81 84 -95 l13 -24 -29 19 c-54 35 -269 198 -301 228 -27 25 -35 28
-48 17 -55 -46 57 -217 210 -318 116 -77 222 -80 320 -10 41 29 62 53 76 85
10 25 19 47 19 49 0 2 -31 35 -69 73 -118 118 -242 314 -276 436 -23 80 -36
93 -69 71 -32 -20 -33 -47 -5 -121 39 -104 228 -367 329 -458 28 -25 50 -49
50 -54 -1 -11 -75 -63 -92 -63 -17 0 -54 39 -96 101 -42 62 -545 560 -657 650
-121 97 -174 130 -332 206 -74 35 -169 84 -211 109 -42 26 -102 61 -132 79
-216 129 -626 312 -883 396 -195 63 -666 166 -977 214 -426 65 -598 73 -1220
63z m4161 -1665 c26 -21 84 -64 129 -96 80 -59 102 -85 55 -67 -78 30 -282
200 -239 200 3 0 28 -17 55 -37z"/>
<path d="M32531 22313 c-38 -35 -60 -109 -43 -147 15 -33 56 -59 81 -51 31 10
36 43 11 77 -20 27 -21 33 -10 80 16 66 3 80 -39 41z"/>
<path d="M10930 21974 c-11 -13 -7 -21 32 -57 30 -28 50 -57 58 -84 11 -34 16
-41 27 -32 34 29 2 138 -51 170 -38 23 -50 24 -66 3z"/>
<path d="M32586 21818 c-9 -16 -16 -70 -20 -163 -6 -124 -4 -157 19 -285 14
-80 30 -179 36 -220 6 -41 12 -76 14 -78 2 -3 3 169 2 382 -2 358 -3 386 -19
386 -10 0 -24 -10 -32 -22z"/>
<path d="M9892 21697 c-9 -10 -7 -19 5 -36 13 -19 22 -22 52 -17 54 9 309 -12
364 -30 59 -19 60 -37 8 -88 -37 -36 -42 -38 -68 -28 -157 64 -795 80 -1280
33 -229 -23 -342 -34 -558 -56 -82 -8 -235 -20 -340 -25 -224 -12 -288 -16
-495 -36 -615 -57 -812 -79 -990 -110 -47 -8 -107 -19 -135 -24 -45 -8 -97
-18 -350 -65 -421 -79 -621 -124 -900 -204 -33 -10 -69 -22 -80 -28 -11 -6
-44 -16 -73 -23 -28 -6 -55 -16 -58 -21 -3 -5 -12 -9 -20 -9 -8 0 -33 -9 -57
-19 -23 -11 -71 -30 -107 -41 -76 -25 -291 -117 -305 -131 -5 -5 -16 -9 -25
-9 -8 0 -42 -13 -75 -30 -33 -16 -66 -30 -73 -30 -7 0 -43 -14 -80 -31 -37
-18 -98 -46 -137 -64 -201 -92 -515 -258 -565 -299 -8 -7 -26 -17 -40 -24 -14
-6 -56 -35 -95 -63 -38 -28 -86 -61 -105 -75 -242 -168 -542 -486 -662 -704
-14 -25 -42 -73 -62 -108 -21 -34 -42 -77 -48 -95 -6 -17 -14 -36 -19 -42 -28
-37 -140 -354 -173 -488 -111 -464 -122 -905 -36 -1557 51 -389 161 -900 260
-1200 16 -47 36 -110 45 -140 9 -30 43 -122 75 -205 234 -605 577 -1215 917
-1632 216 -266 594 -646 866 -869 51 -42 135 -111 187 -155 156 -129 305 -242
475 -357 146 -100 229 -152 530 -337 55 -33 116 -71 135 -83 35 -23 377 -194
486 -244 245 -113 743 -294 909 -333 33 -7 130 -31 215 -53 354 -92 778 -181
1245 -262 28 -5 91 -16 140 -25 50 -9 115 -21 145 -26 332 -57 889 -63 1180
-13 476 82 890 279 1146 546 95 99 151 179 204 291 49 102 68 172 82 307 13
129 3 184 -51 293 -22 42 -36 78 -33 81 4 2 34 11 66 22 109 33 298 139 413
230 133 106 281 288 336 415 32 71 67 223 67 288 0 195 -123 409 -343 600 -55
47 -133 117 -174 154 -53 50 -98 80 -161 109 -82 38 -86 41 -62 51 93 39 245
116 300 151 36 22 88 52 115 65 69 34 145 90 145 107 0 20 -43 17 -71 -5 -112
-87 -527 -301 -583 -301 -41 0 -166 28 -180 40 -10 10 22 135 104 409 33 112
60 216 58 230 -3 30 -38 41 -56 18 -15 -18 -71 -211 -157 -542 l-26 -100 -242
0 c-216 0 -253 -3 -347 -23 -233 -51 -497 -159 -678 -276 -40 -27 -75 -46 -77
-44 -2 2 -14 64 -25 138 -12 74 -25 153 -30 175 -5 22 -15 148 -21 280 -11
211 -10 264 5 440 9 110 21 229 27 265 21 134 40 237 54 295 7 33 28 123 45
200 67 297 142 546 241 796 68 173 119 312 173 474 21 61 88 238 150 395 62
157 135 341 161 410 26 69 73 175 104 235 82 161 168 347 211 454 11 29 54
123 96 208 42 86 88 191 104 233 44 119 84 202 130 271 l43 62 -21 17 c-19 16
-20 19 -6 39 9 12 34 33 57 48 38 24 41 24 53 8 20 -28 27 -137 14 -229 -13
-93 -8 -126 19 -126 20 0 34 23 55 90 22 73 27 126 16 195 -16 103 -31 138
-65 155 l-31 14 111 36 c60 20 120 42 133 49 26 14 30 51 5 51 -17 0 -182 -52
-241 -76 -41 -17 -215 -54 -267 -56 -22 -1 -128 -2 -235 -2 -166 1 -210 4
-295 23 -319 72 -511 238 -585 506 -19 68 -22 97 -18 195 8 190 76 361 220
555 187 252 381 394 640 469 132 37 176 42 192 21 12 -16 20 -17 90 -6 163 24
263 14 405 -41 62 -24 86 -17 86 26 -1 26 1 27 40 21 72 -12 198 -46 259 -71
128 -51 334 -199 439 -315 140 -153 182 -299 138 -481 -44 -187 -149 -326
-366 -487 -95 -71 -141 -98 -320 -191 -80 -42 -110 -62 -110 -76 0 -10 8 -20
18 -22 25 -5 314 148 426 225 54 38 144 115 206 177 92 93 118 126 156 201 59
115 74 170 74 273 0 69 2 81 15 76 105 -47 188 -56 318 -35 37 6 97 15 133 21
36 5 115 10 175 10 129 0 154 5 154 31 0 45 -126 51 -340 18 -159 -24 -344
-30 -377 -11 -29 16 -29 38 -2 45 18 5 21 11 15 38 -6 31 0 39 137 178 126
129 191 210 252 318 15 26 16 34 6 47 -8 9 -22 16 -32 16 -20 0 -33 -16 -85
-105 -50 -85 -98 -144 -220 -270 -58 -60 -117 -129 -131 -152 -14 -24 -28 -43
-33 -43 -4 0 -13 20 -20 44 -19 68 -82 156 -173 243 -227 213 -448 332 -683
365 -131 18 -603 14 -718 -6 -49 -8 -92 -13 -96 -11 -5 3 -40 -13 -79 -35 -39
-22 -82 -40 -97 -40 -44 0 -219 -95 -302 -164 -171 -142 -367 -415 -437 -611
-24 -65 -31 -72 -53 -52 -49 45 -129 68 -319 92 -228 29 -373 40 -402 30 -15
-5 -21 -13 -19 -28 3 -21 9 -22 153 -28 211 -9 457 -44 516 -74 69 -36 79 -91
28 -149 -31 -36 -149 -111 -254 -163 -33 -16 -89 -44 -125 -63 -36 -18 -83
-42 -105 -53 -22 -11 -47 -26 -56 -34 -9 -8 -39 -26 -67 -41 -64 -34 -198
-139 -241 -187 -24 -27 -30 -40 -21 -49 7 -7 15 -7 24 -1 208 148 349 232 574
346 95 49 203 108 240 133 l67 45 7 -77 c21 -212 133 -408 299 -523 183 -125
471 -188 772 -167 56 3 103 5 105 3 4 -4 -373 -504 -501 -665 -55 -69 -163
-196 -241 -283 -134 -152 -141 -158 -155 -138 -20 32 -47 27 -55 -10 -3 -17
-32 -67 -64 -112 -32 -45 -71 -101 -86 -125 -41 -60 -90 -102 -229 -194 -393
-260 -816 -366 -1309 -330 -395 29 -656 141 -838 359 -324 389 -428 913 -265
1329 42 106 100 214 145 268 53 64 65 86 48 87 -7 0 -3 4 10 9 12 5 22 15 22
22 0 12 101 98 115 98 3 0 34 24 70 53 86 71 206 135 345 184 356 125 628 170
1055 174 127 1 288 6 358 11 112 8 131 7 146 -7 10 -8 25 -13 35 -9 19 7 21
37 3 52 -19 16 -780 -3 -932 -23 -241 -32 -463 -81 -649 -145 -292 -99 -605
-334 -735 -550 -47 -79 -91 -171 -91 -190 0 -11 -9 -39 -19 -63 -11 -23 -19
-49 -19 -57 0 -8 -8 -51 -18 -95 -29 -135 -25 -296 15 -522 16 -88 57 -226 92
-304 16 -37 29 -70 29 -73 0 -15 122 -209 168 -268 87 -110 230 -226 343 -277
161 -73 332 -113 549 -128 136 -10 474 0 580 17 150 23 423 116 590 200 94 47
307 190 372 249 31 29 73 77 94 109 57 86 124 172 134 172 12 0 154 149 282
295 127 146 227 272 373 469 148 200 325 429 338 438 6 4 14 5 18 3 3 -3 37 4
75 15 38 11 71 20 73 20 3 0 -62 -66 -145 -147 -221 -218 -366 -379 -362 -400
6 -30 52 -28 81 4 55 60 110 128 132 162 26 41 92 107 100 100 3 -3 -11 -37
-30 -75 -19 -38 -49 -103 -66 -144 -17 -41 -49 -109 -71 -150 -71 -132 -104
-202 -158 -330 -29 -69 -104 -231 -167 -359 -63 -129 -142 -307 -175 -395 -79
-213 -98 -261 -153 -391 -26 -60 -85 -218 -130 -350 -46 -132 -104 -294 -130
-360 -118 -304 -209 -584 -253 -780 -6 -27 -28 -115 -48 -195 -19 -80 -39
-170 -44 -200 -5 -30 -18 -109 -29 -175 -11 -66 -27 -184 -35 -262 -27 -241
-17 -681 19 -866 8 -43 15 -101 15 -129 0 -59 11 -83 51 -107 l29 -18 -67 -51
c-88 -65 -243 -222 -300 -303 -171 -244 -272 -596 -229 -799 30 -140 86 -223
217 -320 144 -107 350 -188 633 -249 184 -40 444 -44 697 -11 149 19 416 79
491 110 26 11 53 20 60 20 7 0 29 -35 48 -78 29 -64 36 -91 39 -160 13 -311
-173 -626 -501 -844 -67 -45 -253 -142 -345 -181 -146 -62 -362 -119 -578
-154 -158 -25 -774 -25 -952 0 -414 58 -1181 207 -1561 301 -450 112 -617 164
-911 281 -469 186 -655 283 -1206 629 -244 153 -550 373 -724 520 -46 39 -101
85 -122 102 -207 169 -668 615 -846 819 -154 178 -384 505 -533 760 -29 50
-63 106 -76 125 -19 31 -204 403 -240 485 -130 295 -229 570 -304 845 -32 120
-87 349 -101 420 -6 36 -18 85 -25 109 -8 25 -14 58 -14 75 0 17 -5 47 -10 66
-6 19 -12 46 -15 60 -2 14 -10 75 -19 136 -8 61 -22 153 -30 205 -21 127 -45
422 -50 599 -6 213 26 620 53 693 5 14 7 27 5 30 -3 3 -1 22 5 44 6 21 20 76
31 123 25 99 91 300 126 379 14 31 33 74 42 95 66 153 184 343 301 485 195
237 371 383 751 627 108 69 674 354 703 354 4 0 49 20 102 45 52 24 129 56
172 71 43 15 84 32 92 38 14 11 54 27 141 56 30 10 78 28 105 40 28 12 68 28
90 35 22 7 66 23 98 34 32 12 81 28 110 36 29 7 86 23 127 34 90 26 220 55
355 80 55 11 132 26 170 35 39 8 122 24 185 36 63 11 156 29 205 40 206 43
504 91 650 105 209 19 494 46 575 54 165 17 209 21 471 36 141 8 299 19 350
25 91 10 517 50 729 70 273 25 391 27 860 15 254 -6 294 -12 298 -41 2 -17
-19 -36 -110 -97 -170 -114 -329 -252 -311 -271 16 -15 45 -1 153 76 63 45
185 128 270 186 170 114 207 145 221 180 18 47 -43 108 -126 126 -29 6 -368
46 -391 46 -6 0 -16 -6 -22 -13z m1382 -7133 c20 -19 21 -34 2 -34 -23 0 -66
-40 -66 -62 0 -17 4 -19 33 -14 184 34 261 26 415 -45 235 -108 515 -386 594
-591 29 -76 36 -216 13 -294 -82 -284 -301 -526 -621 -687 -181 -91 -357 -148
-624 -201 -206 -40 -305 -50 -520 -50 -173 -1 -222 3 -315 22 -290 58 -521
150 -661 261 -76 61 -148 166 -169 246 -39 153 2 372 115 610 169 357 578 657
1085 796 168 46 259 57 492 58 180 1 214 -1 227 -15z m126 -14 c11 -7 2 -10
-32 -10 -27 0 -48 5 -48 10 0 13 60 13 80 0z"/>
<path d="M10655 13953 c-49 -13 -192 -77 -213 -96 -26 -25 -26 -60 2 -65 10
-2 60 17 111 42 112 56 171 62 181 20 9 -37 -2 -120 -36 -257 -40 -162 -58
-307 -42 -341 28 -62 145 -17 321 124 136 109 189 147 279 199 67 39 86 61 62
76 -33 20 -166 -58 -424 -249 -107 -80 -163 -105 -173 -80 -10 26 4 113 42
274 23 96 38 182 39 227 1 66 -1 74 -28 102 -30 31 -65 38 -121 24z"/>
<path d="M14475 21430 c-49 -4 -173 -12 -275 -18 -224 -14 -342 -26 -520 -54
-173 -26 -448 -80 -585 -114 -58 -14 -113 -23 -122 -20 -23 9 -95 -37 -142
-90 -23 -26 -41 -51 -41 -55 0 -17 35 -8 85 20 28 15 70 39 95 53 26 15 104
39 185 57 77 18 167 38 200 46 134 30 168 36 350 65 105 16 252 34 327 40 76
6 143 12 150 15 7 2 121 12 253 20 418 27 906 14 1280 -34 128 -17 224 -29
305 -41 41 -5 110 -15 154 -20 43 -6 115 -20 160 -30 44 -11 113 -24 151 -29
84 -12 132 -21 288 -55 132 -29 137 -30 137 -17 0 9 -238 68 -315 77 -27 3
-68 10 -90 16 -59 14 -127 27 -240 43 -116 17 -187 29 -340 55 -60 10 -157 24
-215 30 -58 6 -136 15 -175 20 -192 27 -810 38 -1060 20z"/>
<path d="M16955 21150 c22 -11 49 -20 60 -20 11 0 49 -9 85 -20 36 -11 94 -27
130 -36 36 -8 74 -19 85 -24 11 -6 58 -22 105 -36 210 -64 314 -99 490 -167
36 -14 108 -41 160 -61 52 -20 120 -47 150 -60 235 -103 336 -150 480 -222 91
-46 176 -88 190 -94 14 -6 43 -21 65 -35 22 -13 47 -27 55 -31 8 -4 47 -26 85
-49 39 -23 97 -57 130 -75 33 -19 74 -44 91 -57 17 -13 34 -23 37 -23 10 0
203 -129 319 -214 31 -22 118 -86 194 -141 75 -55 169 -127 208 -160 39 -34
100 -83 136 -110 180 -137 591 -529 733 -700 32 -38 66 -77 75 -85 10 -8 31
-33 47 -55 16 -22 47 -60 70 -86 70 -78 243 -312 455 -614 68 -96 172 -269
290 -480 75 -134 410 -821 410 -841 0 -3 21 -51 90 -204 57 -124 169 -400 258
-635 39 -105 164 -476 196 -585 14 -47 43 -146 65 -220 71 -236 68 -224 146
-525 31 -120 61 -255 85 -390 10 -55 32 -172 48 -260 46 -248 66 -381 97 -637
52 -434 57 -1270 10 -1673 -58 -490 -191 -941 -372 -1259 -76 -135 -79 -140
-139 -232 -150 -232 -253 -359 -407 -501 -488 -453 -1170 -658 -1722 -518
-106 27 -257 95 -357 161 -84 56 -198 160 -198 181 0 8 -19 31 -42 51 -50 44
-49 44 -163 163 -114 119 -307 298 -555 516 -413 362 -1175 1168 -1557 1647
-300 376 -543 662 -631 742 -55 50 -56 51 -32 58 63 19 179 72 258 118 101 59
276 226 335 320 114 180 162 340 161 538 -1 191 -39 332 -135 505 -65 118
-138 206 -249 303 -255 219 -580 372 -848 398 -40 4 -76 12 -80 19 -4 7 -34
26 -67 43 -143 71 -331 97 -489 68 -48 -10 -90 -16 -92 -14 -1 2 12 33 29 68
31 62 32 70 31 180 0 125 -23 236 -51 258 -25 18 -61 15 -72 -7 -6 -10 -8 -20
-6 -23 19 -18 63 -268 51 -287 -4 -6 -29 7 -61 34 -30 24 -82 63 -117 86 -347
235 -815 654 -1174 1054 -84 94 -193 213 -241 266 -48 53 -111 123 -140 156
l-51 60 37 16 c20 9 52 22 71 28 55 19 132 74 194 138 62 66 116 167 141 268
14 56 15 72 2 146 -8 45 -25 107 -38 137 -58 135 -269 361 -409 437 -91 50
-220 88 -335 99 -38 4 -86 15 -106 25 -61 30 -154 42 -281 34 -128 -7 -134 -4
-98 42 11 14 20 33 20 41 0 9 11 27 24 41 32 35 45 77 62 206 8 61 18 133 23
160 5 28 5 57 0 66 -26 49 -79 15 -79 -52 0 -105 -48 -307 -95 -399 -71 -138
-228 -186 -380 -116 -84 38 -115 66 -221 202 -59 74 -108 127 -121 130 -60 16
-70 -32 -20 -93 175 -215 216 -253 330 -306 37 -18 67 -34 67 -38 0 -3 -28
-19 -62 -35 -135 -63 -294 -180 -383 -281 -166 -186 -252 -454 -215 -670 27
-162 147 -323 298 -401 87 -45 215 -86 244 -79 18 5 18 4 -2 -30 -43 -73 -259
-362 -558 -747 -124 -160 -288 -358 -461 -556 -167 -191 -311 -389 -311 -428
0 -16 6 -22 23 -22 28 0 47 20 113 119 49 74 102 139 308 376 222 256 273 319
684 849 89 116 187 252 249 349 34 53 48 67 61 62 40 -16 175 -26 272 -21 154
10 418 53 530 87 54 17 213 81 227 91 7 6 27 7 44 3 31 -7 32 -7 26 23 -5 26
-2 34 23 52 l28 20 54 -62 c29 -34 109 -120 178 -192 69 -72 179 -191 245
-265 205 -229 700 -692 900 -842 33 -25 125 -90 205 -145 79 -54 169 -122 199
-150 49 -45 53 -53 47 -79 -4 -16 -27 -49 -52 -73 l-44 -45 -78 6 c-114 9
-215 39 -348 102 -133 63 -169 68 -169 21 0 -27 7 -31 131 -87 72 -32 169 -68
215 -80 46 -12 91 -23 98 -26 9 -2 -14 -21 -55 -45 -94 -56 -174 -121 -265
-215 -91 -93 -153 -186 -225 -337 -102 -215 -147 -365 -165 -554 -19 -194 10
-343 104 -527 43 -85 66 -115 146 -196 101 -101 173 -153 284 -208 37 -19 67
-38 67 -43 0 -9 -12 -68 -95 -453 -19 -88 -48 -230 -65 -315 -55 -273 -107
-401 -264 -648 -92 -144 -130 -193 -342 -426 -274 -303 -627 -642 -896 -860
-74 -59 -383 -276 -468 -327 -36 -22 -126 -78 -200 -126 -172 -109 -307 -188
-625 -365 -99 -56 -205 -115 -235 -133 -88 -52 -487 -260 -600 -313 -142 -67
-382 -171 -510 -222 -58 -22 -121 -48 -140 -57 -123 -55 -357 -125 -680 -202
-336 -80 -389 -90 -867 -161 -622 -92 -1376 -105 -1983 -35 -206 24 -616 92
-825 136 -356 76 -763 215 -1150 392 -303 139 -536 267 -815 447 -21 14 -83
53 -137 88 -256 163 -705 461 -801 531 -79 57 -288 218 -322 247 -14 12 -56
47 -93 77 -184 150 -520 483 -653 647 -15 19 -48 58 -74 86 -56 65 -66 76
-115 139 -22 28 -62 76 -88 106 -26 31 -71 89 -100 131 -29 41 -92 129 -142
194 -49 66 -100 133 -112 149 -13 17 -30 44 -39 60 -16 28 -54 78 -89 116 -8
9 -15 22 -15 30 0 8 -10 25 -21 39 -30 38 -157 232 -232 355 -7 11 -24 39 -40
62 -15 23 -36 61 -47 85 -11 24 -36 72 -56 108 -20 36 -59 110 -88 165 -28 55
-57 109 -63 120 -6 11 -22 43 -36 70 -13 28 -43 82 -66 122 -22 40 -41 80 -41
90 0 10 -14 36 -30 57 -17 22 -30 47 -30 57 0 10 -4 21 -10 24 -5 3 -10 14
-10 24 0 10 -7 24 -15 31 -8 7 -15 20 -15 30 0 9 -11 34 -25 54 -14 20 -28 48
-31 62 -7 27 -80 173 -94 187 -18 19 -18 -12 0 -35 10 -14 22 -38 26 -54 6
-26 44 -115 80 -188 8 -16 14 -33 14 -38 0 -5 11 -24 24 -41 13 -18 23 -39 23
-47 0 -8 16 -43 36 -77 19 -34 41 -78 48 -97 7 -20 17 -36 21 -36 4 0 13 -20
19 -44 6 -25 20 -52 30 -62 10 -9 19 -23 19 -30 0 -7 23 -57 52 -111 28 -54
60 -116 71 -138 10 -22 28 -56 39 -75 10 -19 30 -57 42 -85 28 -60 118 -213
140 -237 9 -10 16 -22 16 -27 0 -5 10 -22 23 -38 12 -15 28 -39 35 -53 21 -44
64 -114 86 -141 12 -14 33 -46 48 -70 16 -24 51 -75 79 -114 28 -38 66 -93 84
-122 19 -28 51 -71 72 -96 21 -25 54 -68 73 -97 19 -28 54 -76 78 -105 23 -30
42 -58 42 -62 1 -5 21 -33 46 -63 24 -30 63 -80 86 -110 22 -30 46 -60 53 -65
7 -6 39 -44 72 -85 34 -41 74 -89 89 -106 16 -17 40 -44 54 -61 163 -198 479
-511 665 -658 28 -22 91 -74 142 -115 125 -103 323 -247 515 -377 187 -126
349 -233 353 -233 2 0 97 -62 212 -139 264 -176 534 -337 682 -408 520 -247
943 -403 1311 -483 248 -55 271 -59 420 -86 347 -61 766 -108 1075 -120 189
-7 652 8 935 32 250 20 667 72 775 95 28 6 77 15 110 19 239 35 618 124 890
211 122 38 494 182 609 234 28 13 110 49 181 80 164 73 438 211 669 337 98 54
180 98 182 98 3 0 23 12 45 26 22 14 86 50 142 81 153 83 481 278 647 383 21
14 60 38 87 54 340 205 706 499 1050 843 234 233 518 539 596 641 125 163 243
360 296 493 39 97 53 152 101 384 21 105 62 294 90 420 28 127 54 245 57 263
7 38 11 38 89 12 32 -12 115 -35 184 -51 360 -88 733 -101 1035 -37 152 32
136 38 250 -87 147 -161 394 -453 565 -665 73 -91 167 -199 529 -609 244 -276
862 -894 1131 -1129 268 -235 567 -531 654 -645 156 -209 458 -379 748 -423
125 -19 354 -21 463 -5 391 58 762 221 1068 470 115 93 237 212 318 308 145
172 351 504 460 741 119 258 234 712 284 1121 30 247 38 703 20 1166 -20 519
-131 1238 -275 1800 -132 510 -362 1224 -508 1578 -21 50 -49 119 -62 152 -13
33 -43 102 -66 154 -24 51 -44 96 -44 98 0 3 -16 42 -36 87 -384 856 -581
1210 -941 1696 -86 116 -134 177 -287 363 -220 269 -704 747 -916 906 -19 14
-76 60 -126 101 -93 76 -234 182 -289 216 -16 10 -52 36 -79 57 -27 21 -66 47
-87 57 -20 11 -43 26 -51 33 -15 15 -38 31 -203 138 -192 125 -441 269 -466
269 -6 0 -23 8 -37 19 -65 45 -640 321 -670 321 -7 0 -38 13 -70 29 -31 15
-84 36 -117 45 -33 10 -80 28 -105 40 -25 13 -79 33 -120 45 -109 31 -231 71
-265 86 -27 12 -71 25 -240 70 -27 7 -104 29 -170 48 -66 19 -142 37 -170 40
l-50 6 40 -19z m-3425 -3220 c0 -5 -4 -10 -10 -10 -22 0 -81 -63 -78 -84 5
-31 33 -31 75 2 113 88 308 78 540 -29 70 -32 213 -165 296 -275 110 -146 154
-281 127 -387 -31 -126 -101 -234 -198 -309 -66 -51 -195 -136 -220 -145 -9
-4 -30 -17 -45 -30 -16 -13 -41 -26 -55 -29 -15 -3 -76 -26 -137 -49 -266
-106 -580 -159 -827 -140 -95 7 -97 7 -95 32 1 14 -5 30 -15 36 -14 9 -24 6
-52 -22 -19 -18 -36 -28 -40 -23 -3 6 -21 14 -39 17 -17 4 -66 21 -107 38
-189 77 -297 189 -335 348 -62 265 72 594 321 785 217 166 391 240 654 278 59
8 240 5 240 -4z m2775 -3141 c57 -15 145 -51 145 -60 0 -4 -33 -10 -72 -14
-129 -13 -252 -62 -203 -81 9 -4 80 1 157 11 273 35 475 -1 733 -130 189 -95
309 -180 450 -320 125 -124 194 -227 240 -360 101 -292 62 -580 -113 -843
-129 -195 -371 -357 -630 -422 -392 -98 -828 -96 -1177 5 -27 8 -88 24 -135
35 -212 51 -463 227 -585 410 -200 300 -192 649 25 1095 104 214 235 370 413
495 111 77 288 149 432 175 87 16 266 18 320 4z"/>
<path d="M13723 17883 c-17 -6 -16 -28 2 -43 8 -7 20 -31 26 -54 14 -51 35
-76 66 -76 31 0 38 22 24 71 -20 65 -80 117 -118 102z"/>
<path d="M13077 17669 c-23 -32 5 -104 145 -381 44 -86 88 -183 98 -215 16
-53 20 -58 46 -58 25 0 29 4 32 32 4 37 -30 126 -103 273 -53 106 -112 244
-134 313 -19 56 -59 73 -84 36z"/>
<path d="M16030 14225 c-199 -33 -314 -66 -324 -92 -9 -23 12 -43 46 -43 16 0
56 9 89 20 152 52 449 78 497 44 28 -19 29 -67 4 -109 -10 -16 -57 -77 -103
-134 -119 -148 -138 -174 -139 -193 0 -36 35 -41 232 -34 141 6 188 4 188 -4
0 -53 -261 -252 -458 -349 -42 -21 -108 -49 -145 -62 -66 -23 -95 -48 -82 -69
19 -31 164 15 325 103 191 103 424 285 449 348 16 44 2 80 -38 96 -30 13 -64
14 -199 9 -189 -8 -183 -14 -85 94 119 132 163 204 163 267 0 46 -20 77 -63
100 -43 23 -242 27 -357 8z"/>
<path d="M32631 21034 c0 -11 3 -14 6 -6 3 7 2 16 -1 19 -3 4 -6 -2 -5 -13z"/>
<path d="M32631 20974 c0 -11 3 -14 6 -6 3 7 2 16 -1 19 -3 4 -6 -2 -5 -13z"/>
<path d="M11065 20888 c-63 -36 -90 -100 -90 -213 0 -105 14 -140 72 -180 85
-57 215 -10 287 105 37 59 86 179 86 210 0 45 -35 64 -93 51 -56 -13 -158 -56
-217 -93 -44 -27 -45 -27 -48 -7 -4 22 33 69 53 69 7 0 20 9 31 21 14 15 16
24 8 37 -16 25 -44 25 -89 0z m257 -134 c-8 -40 -56 -127 -92 -165 -30 -32
-44 -39 -74 -39 -21 0 -46 5 -57 10 -25 14 -49 62 -49 98 0 25 5 30 32 36 17
3 38 12 46 19 18 15 173 67 187 63 6 -2 8 -12 7 -22z"/>
<path d="M31893 20299 c-37 -38 3 -66 111 -78 49 -6 92 -8 96 -6 4 3 104 5
221 5 118 1 238 3 267 7 51 6 52 6 52 40 l0 34 -312 -3 c-172 -2 -338 1 -368
5 -41 7 -58 5 -67 -4z"/>
<path d="M798 20240 c-24 -54 -28 -69 -18 -75 10 -6 44 78 38 97 -3 7 -12 -2
-20 -22z"/>
<path d="M738 20070 c-48 -140 -89 -273 -92 -300 -1 -8 -7 -25 -13 -36 -18
-32 -28 -104 -14 -104 6 0 11 11 11 25 0 14 4 33 10 43 5 9 25 71 45 137 19
66 42 141 51 167 9 26 14 55 11 65 -3 15 -5 15 -9 3z"/>
<path d="M13234 20033 c-8 -21 -21 -51 -29 -68 -31 -70 -47 -116 -41 -122 10
-11 56 39 65 71 5 17 10 23 10 14 1 -9 -18 -88 -40 -175 -48 -185 -54 -255
-42 -505 9 -174 18 -217 43 -192 5 5 14 125 19 269 9 250 11 266 46 405 50
202 61 285 40 316 -24 36 -53 31 -71 -13z"/>
<path d="M11740 20010 c0 -19 44 -126 70 -170 71 -121 339 -507 416 -600 177
-216 386 -536 574 -881 109 -199 209 -339 244 -339 8 0 22 7 30 16 15 14 15
18 -1 45 -10 17 -36 52 -58 79 -22 27 -89 136 -150 242 -180 317 -409 664
-570 863 -54 66 -128 165 -165 220 -127 188 -289 420 -314 451 -13 17 -30 42
-37 57 -12 26 -39 38 -39 17z"/>
<path d="M590 19584 c0 -8 5 -12 10 -9 6 3 10 10 10 16 0 5 -4 9 -10 9 -5 0
-10 -7 -10 -16z"/>
<path d="M5096 19548 c-25 -15 -53 -47 -82 -93 -67 -108 -226 -390 -274 -485
-23 -47 -53 -103 -65 -125 -12 -22 -55 -103 -95 -180 -86 -165 -207 -384 -225
-405 -6 -8 -33 -50 -60 -93 -33 -54 -45 -81 -37 -89 16 -16 51 1 68 33 8 17
34 59 57 94 49 75 77 122 137 225 23 41 51 87 61 101 10 15 44 78 77 140 125
241 196 375 218 409 12 20 36 65 54 100 89 179 190 323 237 341 32 12 27 43
-7 47 -14 1 -42 -8 -64 -20z"/>
<path d="M570 19523 c0 -16 -3 -38 -6 -50 -4 -13 -2 -23 4 -23 5 0 12 12 15
28 3 15 8 37 12 50 6 16 3 22 -9 22 -11 0 -16 -9 -16 -27z"/>
<path d="M543 19390 c-32 -76 -42 -144 -13 -91 6 12 8 21 5 21 -3 0 2 14 10
31 9 17 14 38 12 47 -3 13 -6 12 -14 -8z"/>
<path d="M3954 19340 c-67 -43 -155 -199 -195 -347 -19 -68 -21 -92 -14 -192
11 -179 61 -295 152 -348 42 -24 58 -28 128 -28 69 0 89 5 149 33 133 62 213
151 297 328 61 128 71 202 40 284 -28 73 -96 149 -169 188 -51 27 -70 32 -131
32 -39 0 -71 4 -71 10 0 5 -17 21 -37 35 -46 31 -105 33 -149 5z m133 -51 c12
-11 8 -15 -27 -29 -50 -20 -110 -66 -110 -85 0 -19 39 -45 68 -45 26 0 40 26
23 43 -19 19 -13 26 41 42 73 21 192 19 245 -5 68 -31 178 -157 116 -133 -13
5 -15 2 -9 -18 5 -13 10 -54 13 -91 16 -208 -206 -479 -392 -478 -101 1 -186
69 -221 178 -26 80 -26 283 0 367 25 83 83 191 128 238 34 36 41 39 74 34 20
-3 42 -12 51 -18z"/>
<path d="M5289 19255 c-52 -28 -121 -200 -145 -360 -18 -114 -20 -307 -4 -365
9 -35 58 -90 80 -90 5 0 22 -13 38 -29 37 -37 76 -48 116 -31 17 6 49 15 71
19 54 10 74 22 124 76 44 48 86 127 97 183 6 33 24 45 24 15 0 -13 7 -10 30
12 35 34 39 71 10 108 -31 39 -80 50 -184 44 -106 -6 -185 -33 -235 -80 -32
-30 -91 -143 -91 -173 0 -8 -4 -14 -10 -14 -17 0 -11 182 10 313 26 165 61
264 117 331 18 22 21 31 12 42 -14 17 -27 17 -60 -1z m342 -495 c23 -13 25
-57 4 -87 -9 -12 -49 -49 -89 -83 -54 -44 -83 -60 -104 -60 -21 0 -37 -8 -50
-25 -34 -43 -102 -13 -102 45 0 5 17 10 37 12 47 4 54 25 14 39 -37 13 -37 13
-11 66 22 45 66 78 126 92 54 13 151 13 175 1z m-116 -280 c-11 -11 -36 -22
-55 -25 l-35 -6 45 25 c55 30 71 33 45 6z"/>
<path d="M490 19223 c-29 -94 -47 -209 -32 -199 6 4 14 28 18 54 4 26 13 59
20 73 7 15 16 45 20 68 8 53 -11 55 -26 4z"/>
<path d="M6397 18988 c-18 -24 -52 -76 -76 -116 -83 -142 -307 -449 -334 -458
-52 -17 -77 66 -77 251 0 123 0 125 -24 131 -13 3 -34 0 -46 -6 -22 -12 -23
-15 -17 -154 5 -148 22 -224 57 -269 56 -71 160 -25 266 118 41 55 137 211
162 265 28 59 102 175 141 221 37 45 39 59 7 59 -17 0 -35 -13 -59 -42z"/>
<path d="M6613 18981 c-63 -21 -154 -88 -192 -141 -61 -85 -68 -217 -14 -294
59 -84 194 -126 408 -126 185 0 287 28 269 74 -8 20 -25 19 -133 -9 -92 -23
-287 -7 -372 31 -33 15 -59 30 -59 34 0 4 29 26 64 49 123 80 245 229 246 299
0 54 -62 102 -132 102 -18 -1 -56 -9 -85 -19z m112 -53 c29 -13 31 -22 9 -74
-18 -43 -169 -203 -222 -236 -44 -27 -54 -16 -60 61 -7 98 39 170 142 223 22
12 55 25 71 29 17 4 31 7 32 8 1 1 14 -4 28 -11z"/>
<path d="M433 18979 c-13 -16 -30 -129 -20 -129 14 0 38 76 35 109 -3 29 -5
32 -15 20z"/>
<path d="M399 18838 c0 -2 -2 -24 -4 -50 -2 -27 -11 -63 -19 -80 -8 -18 -17
-58 -20 -88 -7 -76 -7 -76 -23 -160 -14 -73 -32 -210 -54 -413 -12 -111 -5
-154 15 -96 12 34 16 83 18 189 0 25 5 50 9 56 5 6 8 24 8 40 0 16 9 83 20
149 12 66 23 145 26 175 8 102 17 165 25 175 13 18 22 105 11 105 -6 0 -11 -1
-12 -2z"/>
<path d="M259 17847 c-10 -22 -10 -35 -1 -59 8 -22 8 -36 1 -50 -10 -19 -31
-351 -27 -439 1 -25 -2 -50 -6 -57 -8 -14 -9 -569 0 -583 16 -27 21 25 22 229
2 325 11 568 27 758 8 99 11 183 6 200 l-8 29 -14 -28z"/>
<path d="M15758 16718 c-10 -8 -18 -37 -22 -78 -4 -36 -21 -166 -39 -290 -43
-303 -40 -360 18 -360 29 0 25 -17 60 250 15 113 33 243 41 290 20 122 19 177
-5 190 -25 13 -34 13 -53 -2z"/>
<path d="M224 16608 c3 -13 6 -31 6 -41 0 -10 5 -15 10 -12 6 3 10 22 10 41 0
25 -4 34 -16 34 -12 0 -15 -6 -10 -22z"/>
<path d="M235 16460 c2 -36 4 -69 4 -73 1 -5 6 -5 11 -2 14 9 11 75 -5 110
-13 29 -14 27 -10 -35z"/>
<path d="M8762 16418 c-5 -7 -20 -33 -32 -58 -12 -24 -82 -115 -154 -202 -72
-87 -147 -180 -166 -208 -45 -63 -57 -74 -34 -30 9 19 23 72 30 118 11 70 10
91 -2 132 -29 98 -111 149 -217 135 -41 -6 -59 -16 -97 -51 -26 -24 -55 -44
-64 -44 -49 0 -183 -125 -292 -272 -84 -114 -139 -221 -152 -297 -23 -128 53
-224 194 -247 77 -12 210 36 308 111 27 20 50 34 53 32 8 -8 -24 -71 -46 -91
-11 -11 -21 -23 -21 -27 0 -5 -13 -31 -30 -59 -33 -55 -38 -80 -16 -80 17 0
27 12 64 80 26 47 162 245 266 387 17 23 56 77 86 119 30 42 89 117 130 166
41 50 82 100 90 112 8 11 35 44 60 71 53 57 104 130 114 161 12 39 -46 73 -72
42z m-483 -193 c41 -47 58 -81 66 -137 15 -98 -42 -238 -155 -382 -81 -104
-142 -156 -240 -204 -62 -31 -84 -37 -137 -37 -70 0 -101 17 -141 76 -19 28
-23 43 -19 84 8 100 122 289 254 425 76 77 85 83 97 68 19 -26 42 -22 67 12
20 27 24 28 43 15 27 -19 62 -19 70 0 6 16 -26 55 -46 55 -21 0 25 40 56 49
48 14 52 13 85 -24z"/>
<path d="M235 16340 c-3 -5 -1 -27 4 -47 6 -21 11 -77 11 -124 0 -60 4 -91 15
-105 14 -17 15 -11 11 66 -9 173 -22 240 -41 210z"/>
<path d="M10968 16303 c-141 -53 -353 -277 -394 -419 -23 -80 2 -150 79 -221
86 -80 180 -108 325 -100 133 8 225 42 357 130 130 88 262 245 286 341 23 93
-45 195 -155 233 -90 31 -259 12 -296 -33 -19 -21 -28 -17 -43 19 -8 17 -21
38 -30 45 -25 21 -79 23 -129 5z m115 -96 c15 -32 16 -44 5 -78 -10 -34 -9
-42 3 -49 10 -7 29 6 69 50 61 66 108 90 174 90 83 0 145 -19 182 -56 31 -31
34 -40 34 -92 0 -76 -39 -143 -140 -242 -123 -119 -239 -179 -390 -201 -74
-11 -95 -10 -161 5 -97 21 -149 58 -185 132 -22 45 -26 63 -20 101 10 77 92
192 206 288 88 75 126 95 170 92 30 -2 38 -8 53 -40z"/>
<path d="M275 16029 c-10 -15 3 -25 16 -12 7 7 7 13 1 17 -6 3 -14 1 -17 -5z"/>
<path d="M280 15908 c0 -37 5 -70 10 -73 12 -7 13 3 10 70 -3 77 -20 79 -20 3z"/>
<path d="M290 15786 c0 -14 5 -28 10 -31 6 -4 10 7 10 24 0 17 -4 31 -10 31
-5 0 -10 -11 -10 -24z"/>
<path d="M300 15690 c0 -25 28 -131 36 -139 8 -7 -3 121 -12 144 -9 21 -24 19
-24 -5z"/>
<path d="M344 15465 c2 -27 7 -63 11 -80 3 -16 10 -59 15 -95 4 -36 15 -87 23
-113 9 -26 18 -65 21 -86 4 -31 16 -79 41 -156 8 -23 3 53 -5 95 -15 70 -38
181 -50 230 -5 25 -17 86 -26 135 -19 105 -37 146 -30 70z"/>
<path d="M9275 15178 c-7 -18 -16 -55 -20 -83 -13 -101 -14 -103 -58 -123 -23
-11 -50 -22 -60 -26 -11 -3 -17 -13 -15 -23 4 -20 38 -22 101 -5 34 9 38 8 31
-6 -11 -27 -16 -196 -6 -211 25 -36 63 39 69 140 5 67 9 79 26 85 16 5 17 8 6
15 -10 6 -5 9 17 9 38 0 94 -18 94 -31 0 -5 15 -9 34 -9 18 0 50 -7 69 -15 20
-8 48 -15 62 -15 29 0 45 27 24 41 -32 20 -140 50 -224 62 -106 15 -108 17
-76 125 26 84 21 102 -26 102 -29 0 -36 -5 -48 -32z"/>
<path d="M7917 15104 c-43 -23 -32 -48 25 -54 26 -3 56 -14 67 -24 29 -26 56
-17 56 18 0 55 -91 92 -148 60z"/>
<path d="M8924 15005 c-117 -35 -224 -122 -224 -183 0 -43 38 -108 80 -137 83
-58 256 -60 307 -3 27 30 4 43 -51 29 -98 -24 -171 -8 -219 48 -51 61 -27 118
69 163 55 26 73 30 115 25 39 -5 51 -3 56 9 15 39 -67 69 -133 49z"/>
<path d="M7250 14984 c-118 -32 -214 -98 -278 -193 -23 -34 -45 -81 -48 -103
-5 -31 -10 -38 -23 -33 -9 4 -28 11 -43 15 -15 5 -49 20 -76 35 -57 31 -96 30
-100 -2 -4 -30 56 -67 150 -91 66 -18 73 -22 79 -48 13 -66 79 -143 153 -181
85 -43 228 -41 321 4 41 20 47 39 12 36 -189 -21 -259 -12 -331 42 -41 32 -85
109 -71 124 4 3 42 11 85 17 188 27 360 163 360 284 0 52 -8 68 -39 84 -43 22
-93 25 -151 10z m102 -61 c25 -22 23 -73 -5 -114 -47 -71 -185 -139 -309 -153
-58 -7 -61 4 -23 81 52 104 178 186 309 202 5 1 18 -6 28 -16z"/>
<path d="M8469 14961 c-55 -18 -140 -69 -156 -94 -4 -6 -10 -41 -14 -77 -7
-64 -7 -65 31 -110 70 -83 194 -129 322 -117 67 6 106 30 78 47 -8 5 -49 10
-91 10 -90 0 -156 20 -194 60 -16 17 -27 31 -24 33 2 2 37 16 78 31 87 34 167
102 158 136 -4 15 0 20 15 20 27 0 20 28 -14 53 -37 28 -118 31 -189 8z m151
-51 c0 -25 -88 -98 -144 -119 -76 -28 -91 -25 -89 18 2 43 24 66 87 90 54 21
146 28 146 11z"/>
<path d="M466 14882 c-3 -6 -2 -13 4 -17 5 -3 10 -15 10 -25 0 -10 5 -22 12
-26 8 -5 9 2 4 27 -7 38 -21 56 -30 41z"/>
<path d="M8012 14879 c-30 -11 -38 -36 -52 -149 -15 -120 -61 -304 -94 -376
-54 -117 -112 -164 -205 -164 -44 0 -51 -3 -51 -19 0 -26 59 -45 112 -37 112
18 213 150 268 350 21 77 80 351 80 373 0 19 -32 32 -58 22z"/>
<path d="M494 14755 c4 -27 15 -68 26 -90 11 -23 20 -46 20 -51 0 -5 5 -26 11
-46 11 -40 35 -54 26 -15 -3 12 -11 45 -17 72 -6 28 -15 59 -20 70 -5 11 -11
31 -14 45 -3 14 -12 34 -21 45 -16 19 -16 17 -11 -30z"/>
<path d="M570 14488 c1 -33 40 -151 55 -168 9 -10 14 -23 11 -28 -8 -13 13
-82 24 -82 16 0 11 48 -9 94 -11 23 -30 77 -42 119 -13 42 -27 77 -31 77 -4 0
-8 -6 -8 -12z"/>
<path d="M670 14151 c0 -5 12 -42 26 -83 14 -40 28 -84 31 -98 3 -14 14 -35
24 -48 17 -22 17 -22 12 20 -3 24 -17 66 -29 95 -13 28 -24 62 -24 75 0 24
-16 48 -32 48 -4 0 -8 -4 -8 -9z"/>
<path d="M780 13839 c0 -25 21 -82 36 -99 12 -12 14 -12 14 0 -1 21 -50 119
-50 99z"/>
<path d="M830 13693 c0 -11 5 -26 31 -88 44 -108 80 -198 93 -235 19 -53 33
-77 40 -69 9 8 -31 123 -43 127 -6 2 -11 10 -11 18 0 9 -9 36 -19 62 -10 26
-29 74 -41 107 -23 59 -50 102 -50 78z"/>
<path d="M5551 11711 c-12 -8 -11 -20 9 -78 30 -91 37 -229 19 -413 -8 -80
-14 -208 -14 -285 0 -159 11 -200 55 -200 25 0 25 1 22 70 -1 39 5 189 14 335
15 253 13 351 -7 450 -11 53 -39 120 -50 120 -4 0 -13 2 -21 5 -7 3 -19 1 -27
-4z"/>
<path d="M6400 11646 c-14 -8 -45 -47 -70 -86 -25 -40 -72 -109 -105 -155 -82
-112 -202 -288 -284 -415 -81 -127 -264 -485 -259 -508 5 -26 41 -20 55 8 15
29 112 210 156 290 16 30 42 74 58 97 16 23 29 45 29 49 0 6 164 252 352 528
50 74 93 126 114 138 68 40 23 91 -46 54z"/>
<path d="M6590 11120 c-101 -37 -183 -85 -242 -142 -64 -62 -88 -107 -88 -167
0 -49 26 -71 86 -71 57 0 163 71 268 180 43 45 82 78 86 73 4 -4 15 -39 24
-78 31 -125 87 -225 127 -225 29 0 34 25 11 63 -25 43 -58 145 -73 227 -6 36
-17 71 -23 79 -6 8 -11 23 -11 35 0 24 -38 46 -80 45 -16 0 -55 -9 -85 -19z
m101 -69 c-22 -40 -213 -192 -288 -229 -69 -34 -84 -23 -59 42 20 51 62 96
125 134 60 35 159 71 199 71 29 1 32 -1 23 -18z"/>
<path d="M8415 11120 c-24 -39 -94 -433 -82 -464 9 -22 34 -20 47 5 6 11 29
108 51 216 22 108 42 199 45 204 3 5 0 18 -6 29 -11 21 -44 27 -55 10z"/>
<path d="M7420 11070 c-62 -10 -170 -72 -218 -124 -60 -65 -92 -120 -130 -226
-33 -91 -35 -102 -39 -260 -5 -182 2 -213 48 -218 29 -3 42 12 78 96 19 46 20
56 9 80 -9 18 -22 28 -41 30 -22 3 -26 7 -23 25 3 12 7 58 10 103 7 93 31 184
49 184 7 0 21 -7 31 -15 56 -43 190 8 291 109 98 98 118 169 57 199 -40 21
-72 25 -122 17z m75 -60 c17 -27 -85 -131 -173 -178 -66 -35 -138 -44 -148
-17 -9 22 47 95 91 119 22 11 42 24 46 28 3 5 27 19 55 32 51 26 118 34 129
16z"/>
<path d="M7950 10966 c-92 -33 -126 -51 -198 -110 -53 -42 -70 -65 -103 -131
-59 -123 -73 -274 -37 -398 15 -49 38 -62 77 -43 57 30 85 102 122 319 18 102
20 132 10 153 -14 32 -43 28 -53 -6 -4 -14 -18 -87 -32 -163 -14 -75 -33 -154
-41 -174 -25 -59 -38 -29 -37 83 3 243 98 362 337 424 87 23 123 21 173 -10
69 -43 19 -122 -102 -159 -87 -27 -136 -27 -170 0 -25 20 -56 20 -56 0 0 -16
51 -71 81 -86 56 -29 178 -11 249 38 52 34 100 103 100 141 0 45 -36 95 -89
123 -59 31 -143 30 -231 -1z"/>
<path d="M8722 10935 c-72 -22 -165 -103 -203 -177 -12 -23 -29 -40 -44 -44
-34 -8 -34 -50 0 -66 14 -6 27 -23 30 -39 8 -37 79 -115 126 -139 59 -30 139
-59 196 -69 28 -6 72 -20 97 -31 58 -28 80 -24 84 16 4 42 -32 70 -101 79
-134 16 -215 42 -270 86 -30 23 -61 75 -53 88 3 5 34 14 68 21 146 28 288 107
288 160 0 43 -30 81 -83 106 -59 27 -75 28 -135 9z m126 -81 c19 -13 21 -19
11 -31 -39 -46 -269 -118 -269 -83 0 17 82 94 120 112 44 22 109 23 138 2z"/>
<path d="M22438 8818 c-9 -13 -28 -48 -43 -78 -43 -85 -174 -273 -279 -400
-225 -272 -318 -405 -407 -582 -50 -100 -58 -131 -37 -144 16 -10 53 37 120
154 73 129 127 204 314 439 220 276 404 544 404 590 0 44 -48 58 -72 21z"/>
<path d="M21296 8631 c-9 -14 22 -509 39 -623 8 -54 15 -100 15 -103 0 -3 9
-5 20 -5 25 0 34 35 26 103 -4 29 -10 169 -14 312 -9 277 -16 317 -59 323 -11
2 -24 -1 -27 -7z"/>
<path d="M23073 8505 c-74 -116 -203 -294 -226 -313 -12 -10 -19 -5 -39 26
-141 212 -319 256 -374 90 -44 -133 36 -301 170 -359 61 -26 161 -32 161 -9 0
16 -21 28 -109 62 -72 28 -148 98 -166 152 -17 51 1 134 35 166 22 21 28 22
63 12 50 -15 110 -68 158 -139 52 -78 74 -103 93 -103 24 0 309 386 335 453
11 28 2 57 -21 64 -6 2 -42 -44 -80 -102z"/>
<path d="M24196 8493 c-46 -45 -49 -46 -80 -35 -86 31 -174 5 -251 -74 -55
-56 -71 -101 -55 -149 18 -55 66 -70 135 -41 36 15 139 105 130 114 -2 3 -11
-1 -20 -8 -9 -7 -18 -11 -21 -8 -3 3 30 42 73 87 84 87 117 102 129 56 3 -14
3 -32 0 -41 -5 -14 -9 -13 -25 7 -16 20 -21 21 -35 10 -23 -19 -20 -47 9 -69
14 -11 25 -28 25 -37 0 -28 -49 -182 -97 -305 -25 -63 -56 -142 -68 -175 -27
-69 -20 -66 -200 -85 -60 -6 -162 -20 -225 -31 -355 -62 -485 -77 -735 -89
-111 -5 -253 -18 -320 -29 -143 -25 -205 -26 -271 -6 -69 21 -93 19 -103 -7
-13 -36 -3 -47 58 -65 76 -22 201 -20 341 6 72 13 192 25 320 31 205 9 297 20
700 85 370 59 375 60 362 27 -11 -31 -104 -156 -149 -203 -25 -26 -65 -55 -89
-65 -47 -19 -57 -34 -24 -34 74 0 184 102 263 243 l47 86 56 7 c31 3 102 3
159 0 117 -8 152 -2 161 26 11 37 -10 43 -168 45 -83 1 -152 4 -155 6 -2 3 14
38 35 78 94 175 201 496 202 601 0 99 -40 114 -114 41z m-122 -102 c3 -5 -22
-32 -57 -60 -57 -47 -108 -69 -138 -59 -17 6 56 85 100 108 38 20 86 26 95 11z"/>
<path d="M23178 8400 c-22 -13 -32 -63 -18 -89 14 -27 36 -27 43 -1 14 55 137
-2 184 -85 32 -57 32 -133 -1 -164 -22 -21 -33 -23 -88 -19 -69 4 -141 34
-146 61 -3 14 5 17 37 17 34 0 43 4 53 25 9 21 8 28 -7 45 -53 59 -183 -20
-146 -88 6 -12 11 -30 11 -40 0 -26 51 -69 98 -81 58 -16 163 -17 199 -2 44
18 65 67 66 155 1 55 -4 82 -21 118 -32 65 -98 123 -163 142 -60 18 -77 19
-101 6z"/>
<path d="M6586 7948 c-29 -26 -73 -112 -187 -370 -81 -184 -110 -241 -191
-378 -89 -149 -306 -479 -340 -517 -11 -12 -21 -36 -21 -55 -2 -29 1 -33 26
-36 31 -4 62 18 72 49 8 24 95 166 236 383 51 79 149 244 149 252 0 2 23 50
51 107 28 56 78 163 111 237 75 170 121 256 160 297 17 17 27 36 24 42 -12 19
-64 12 -90 -11z"/>
<path d="M5485 7631 c-89 -25 -161 -68 -240 -143 -86 -81 -125 -154 -133 -244
-6 -76 9 -121 54 -168 80 -82 190 -112 358 -96 263 25 473 128 556 274 41 71
40 125 -2 196 -49 81 -142 136 -271 159 -28 6 -77 17 -107 25 -69 20 -139 19
-215 -3z m37 -73 c3 -26 8 -26 118 -3 77 16 134 12 127 -8 -2 -7 2 -27 9 -46
8 -19 14 -69 14 -118 l0 -84 27 3 c19 2 32 12 41 31 13 28 7 75 -24 195 -8 29
10 29 79 -2 76 -33 108 -78 114 -159 6 -76 -6 -105 -70 -164 -84 -77 -238
-134 -421 -153 -180 -20 -306 23 -342 116 -48 125 46 288 217 373 94 47 106
49 111 19z"/>
<path d="M20746 7404 c-25 -25 -20 -81 8 -100 39 -25 190 -30 322 -10 186 27
276 56 282 90 6 29 -16 35 -72 20 -89 -25 -237 -44 -336 -44 -94 0 -96 1 -122
30 -29 33 -58 38 -82 14z"/>
<path d="M7963 7314 c-3 -9 -3 -46 0 -83 3 -37 2 -72 -2 -79 -4 -6 -38 -16
-75 -21 -75 -11 -90 -19 -84 -47 3 -16 13 -19 53 -19 28 0 64 4 82 8 l31 8 7
-97 c4 -54 5 -136 1 -184 -6 -74 -4 -89 10 -101 14 -11 19 -10 34 8 17 22 37
143 26 161 -2 4 -6 57 -7 118 l-2 109 104 36 c57 20 130 48 162 62 73 34 91
35 83 5 -3 -13 -20 -88 -38 -167 -29 -132 -31 -145 -17 -170 22 -37 73 -34
142 9 102 65 122 74 150 66 33 -8 80 -77 126 -186 49 -113 53 -123 75 -147 20
-24 50 -30 61 -13 4 6 -14 52 -38 103 -25 50 -62 127 -82 171 -45 92 -100 156
-137 156 -31 0 -98 -30 -158 -70 -48 -32 -70 -38 -70 -17 0 6 18 82 39 167 26
104 35 161 29 172 -16 32 -52 31 -128 -2 -109 -48 -258 -100 -285 -100 -24 0
-25 3 -25 68 0 40 -5 73 -12 80 -17 17 -48 15 -55 -4z"/>
<path d="M6606 7108 c-9 -14 -26 -107 -41 -227 -22 -167 -24 -205 -13 -213 17
-11 58 -1 81 20 26 23 82 118 107 181 29 75 90 165 103 152 5 -5 13 -52 18
-103 7 -77 12 -96 30 -110 12 -10 28 -18 36 -18 28 0 113 53 139 87 14 18 32
33 40 33 7 0 14 -2 14 -4 0 -17 44 -174 52 -183 17 -21 112 -27 165 -9 74 24
148 101 173 179 12 40 26 48 33 20 3 -10 10 -40 17 -66 13 -50 48 -87 81 -87
45 0 109 55 94 80 -8 13 -42 13 -50 0 -3 -5 -17 -10 -29 -10 -28 0 -41 41 -55
180 -6 49 -12 94 -15 99 -3 4 -52 9 -108 9 -92 2 -109 -1 -156 -24 -59 -29
-83 -60 -109 -141 -9 -29 -20 -53 -23 -53 -4 0 -12 18 -19 40 -12 39 -34 60
-66 60 -9 0 -45 -29 -79 -65 -34 -36 -68 -65 -74 -65 -13 0 -19 32 -26 139 -5
79 -23 111 -61 111 -24 0 -75 -50 -98 -96 -15 -28 -87 -142 -121 -189 -26 -37
-26 -9 0 116 41 199 41 179 5 179 -21 0 -35 -7 -45 -22z m894 -46 c0 -17 -44
-138 -58 -162 -41 -67 -85 -110 -122 -121 -68 -21 -88 23 -54 120 42 121 95
167 202 170 17 1 32 -3 32 -7z"/>
<path d="M23576 6118 c-9 -12 -16 -35 -16 -49 0 -30 -50 -168 -99 -271 -54
-113 -186 -338 -325 -552 -32 -49 -69 -109 -83 -135 -14 -25 -48 -79 -74 -119
-27 -41 -49 -76 -49 -78 0 -3 -19 -37 -41 -77 -162 -281 -363 -699 -357 -740
5 -35 37 -33 49 2 12 35 190 392 244 491 56 102 183 318 228 390 61 97 226
351 248 382 10 15 19 30 19 33 0 4 13 25 29 48 89 129 176 296 244 464 50 124
65 196 46 219 -17 21 -46 17 -63 -8z"/>
<path d="M28180 6080 c-6 -11 -15 -57 -21 -102 -5 -46 -16 -108 -24 -138 -8
-30 -18 -98 -24 -150 -11 -97 -22 -120 -61 -120 -9 0 -53 -18 -97 -39 -85 -41
-109 -70 -81 -98 13 -12 26 -9 98 27 121 58 124 57 113 -37 -10 -96 -6 -254 7
-267 7 -7 15 -5 25 4 10 11 16 57 21 178 5 113 11 168 20 177 15 14 53 21 203
35 112 11 133 19 115 48 -9 14 -26 17 -95 17 -46 -1 -114 -5 -151 -9 l-68 -9
0 26 c0 24 7 60 45 222 8 33 21 98 30 145 16 80 16 85 -1 97 -25 18 -42 16
-54 -7z"/>
<path d="M25932 5893 c-15 -14 -25 -49 -42 -148 -13 -71 -26 -167 -29 -212 -4
-45 -9 -84 -12 -86 -2 -2 -33 -9 -68 -16 -36 -7 -82 -21 -102 -32 -43 -21 -81
-66 -77 -88 5 -27 48 -25 78 4 27 26 103 55 144 55 20 0 21 -5 22 -143 1 -157
16 -222 50 -222 22 0 22 -10 4 204 -9 118 -9 146 2 156 7 7 66 18 133 24 116
10 331 51 387 73 41 16 53 34 30 47 -14 7 -54 4 -148 -13 -155 -29 -328 -49
-369 -45 -27 4 -30 7 -27 34 4 36 46 244 70 338 15 60 15 69 2 77 -21 13 -25
13 -48 -7z"/>
<path d="M21835 5836 c-17 -12 -18 -24 -12 -157 7 -139 21 -244 51 -379 8 -36
11 -68 8 -71 -4 -3 -28 -13 -53 -23 -105 -38 -167 -97 -139 -131 19 -23 43
-18 90 16 62 45 105 62 119 46 5 -7 17 -53 26 -102 24 -137 48 -215 67 -215
13 0 9 97 -8 185 -30 160 -30 163 2 170 135 31 324 82 441 120 77 25 145 45
150 45 19 0 37 30 25 42 -7 7 -54 0 -164 -26 -84 -20 -193 -45 -243 -55 -49
-11 -123 -26 -164 -35 -41 -9 -77 -14 -80 -10 -12 12 -41 265 -47 414 -7 179
-18 204 -69 166z"/>
<path d="M27817 5622 c-19 -27 -39 -58 -45 -69 -6 -11 -26 -38 -44 -60 -18
-22 -59 -77 -91 -121 -66 -92 -166 -189 -203 -198 -17 -4 -31 -1 -40 8 -18 17
-64 150 -64 182 0 45 -60 74 -79 38 -21 -39 43 -239 90 -284 69 -66 173 -13
309 156 36 45 79 101 96 126 49 71 144 239 144 255 0 32 -39 14 -73 -33z"/>
<path d="M26932 5592 c-231 -91 -474 -521 -501 -887 l-6 -80 -155 -17 c-182
-20 -833 -126 -1035 -169 -453 -97 -791 -139 -1111 -139 -149 0 -199 9 -337
61 -127 47 -151 48 -155 2 l-3 -32 113 -36 c219 -71 299 -77 661 -50 292 22
287 22 1152 190 69 14 142 26 385 65 477 77 493 78 516 56 22 -23 51 -20 77 7
21 23 32 24 182 32 88 4 178 8 200 10 168 11 697 14 845 5 213 -13 280 -22
435 -60 123 -31 152 -29 129 8 -25 39 -205 83 -444 107 -190 19 -663 19 -975
0 -132 -8 -252 -17 -267 -21 -15 -3 -32 -3 -37 0 -5 3 4 45 20 93 19 58 35
136 45 226 15 128 15 140 0 155 -32 32 -37 13 -66 -232 -11 -90 -25 -146 -49
-201 -5 -11 -12 -28 -15 -37 -7 -24 -33 -23 -41 1 -3 11 1 74 10 141 41 312
202 603 408 733 42 27 121 34 152 13 78 -51 -26 -181 -230 -286 -71 -37 -89
-42 -123 -36 -30 4 -43 2 -53 -10 -11 -14 -10 -19 11 -36 54 -44 201 6 346
116 76 57 128 125 145 189 14 54 3 85 -40 114 -42 28 -125 30 -189 5z"/>
<path d="M25588 5522 c-10 -9 -90 -91 -180 -182 -313 -317 -351 -350 -411
-350 -30 0 -72 32 -92 70 -19 36 -19 125 0 210 7 36 11 84 8 108 -5 38 -8 42
-33 42 -15 0 -32 -6 -37 -12 -6 -7 -13 -87 -17 -177 -7 -162 -6 -165 18 -215
29 -59 77 -95 134 -103 85 -11 192 77 447 367 78 89 205 245 205 252 0 13 -24
7 -42 -10z"/>
<path d="M24363 5489 c-17 -5 -62 -29 -99 -54 -60 -41 -72 -45 -126 -45 -50 0
-67 -5 -111 -33 -103 -66 -189 -188 -222 -314 -17 -67 -20 -179 -4 -220 39
-104 186 -134 329 -66 156 74 370 314 436 490 44 115 12 219 -74 243 -44 12
-85 12 -129 -1z m117 -76 c60 -54 45 -142 -47 -279 -152 -228 -312 -354 -447
-354 -45 0 -58 5 -92 34 -37 32 -39 36 -42 107 -8 146 77 310 202 393 37 24
86 35 86 19 0 -5 -16 -28 -35 -52 -19 -24 -35 -50 -35 -57 0 -22 36 -16 53 9
8 12 31 39 50 59 31 34 37 37 64 29 33 -10 73 4 81 27 2 8 -7 12 -28 12 -45 0
-34 20 31 52 71 36 119 36 159 1z"/>
<path d="M21611 5286 c-22 -35 -61 -104 -87 -152 -105 -201 -200 -336 -267
-385 -51 -37 -113 -40 -144 -6 -40 44 -47 69 -48 177 l0 105 -27 3 c-42 5 -52
-25 -45 -135 6 -107 35 -174 96 -221 30 -23 46 -27 97 -27 54 0 68 5 118 38
81 54 142 143 253 366 89 181 129 282 115 295 -12 13 -22 3 -61 -58z"/>
<path d="M19084 5165 c-8 -33 12 -57 45 -53 50 6 36 78 -15 78 -17 0 -25 -7
-30 -25z"/>
<path d="M20660 5147 c-74 -23 -161 -145 -225 -312 -83 -220 -114 -609 -73
-909 3 -15 -16 -25 -107 -58 -207 -73 -334 -107 -517 -138 -101 -17 -255 -45
-343 -62 -233 -46 -257 -45 -385 19 -164 81 -246 90 -238 25 3 -24 9 -27 67
-39 35 -7 107 -34 160 -59 112 -53 164 -61 271 -41 41 8 203 38 360 66 322 58
390 75 627 162 92 33 205 74 249 89 126 44 329 80 489 86 124 5 149 3 215 -16
120 -34 122 -35 136 -15 42 57 -99 108 -296 107 -161 -2 -384 -39 -516 -86
-39 -14 -74 -26 -78 -26 -3 0 -6 61 -6 135 0 98 -4 146 -15 172 -32 75 -14
347 30 473 8 24 15 49 15 58 0 8 23 61 50 118 58 117 119 184 169 184 87 0 78
-134 -20 -315 -28 -49 -65 -108 -84 -130 -35 -40 -41 -40 -59 0 -7 16 -36 -26
-36 -53 0 -37 18 -62 46 -62 40 0 58 15 118 95 183 243 224 452 103 525 -35
22 -55 23 -107 7z"/>
<path d="M19639 4986 c-8 -18 -7 -42 7 -102 13 -59 18 -126 19 -267 1 -157 3
-190 17 -203 9 -9 24 -14 35 -10 15 5 22 26 36 112 26 152 70 291 103 325 15
16 31 29 35 29 17 0 49 -45 96 -133 67 -128 120 -185 157 -171 22 9 20 25 -9
64 -13 18 -47 79 -75 135 -55 111 -107 171 -158 181 -30 6 -37 2 -76 -40 -24
-25 -51 -67 -61 -93 -10 -27 -21 -51 -24 -55 -4 -4 -15 43 -25 105 -10 61 -20
120 -23 130 -7 25 -42 21 -54 -7z"/>
<path d="M19246 4861 l-28 -29 7 -264 c3 -144 9 -301 13 -348 7 -82 8 -85 32
-85 l25 0 0 342 c0 323 1 343 19 356 15 11 17 17 7 35 -16 30 -42 27 -75 -7z"/>
</g>
</svg>
