<?xml version="1.0" standalone="no"?>
<!DOCTYPE svg PUBLIC "-//W3C//DTD SVG 20010904//EN"
 "http://www.w3.org/TR/2001/REC-SVG-20010904/DTD/svg10.dtd">
<svg version="1.0" xmlns="http://www.w3.org/2000/svg"
 width="3264.000000pt" height="2448.000000pt" viewBox="0 0 3264.000000 2448.000000"
 preserveAspectRatio="xMidYMid meet">
<metadata>
Created by potrace 1.12, written by Peter Selinger 2001-2015
</metadata>
<g transform="translate(0.000000,2448.000000) scale(0.100000,-0.100000)"
fill="#000000" stroke="none">
<path d="M25910 24478 c3 -3 165 -9 360 -13 195 -3 371 -8 390 -10 19 -1 134
-5 255 -9 121 -3 265 -8 320 -11 223 -10 1260 -31 1985 -40 2023 -24 2656 -35
3118 -55 324 -14 302 -16 302 20 l0 30 -102 1 c-57 1 -125 2 -153 4 -27 1
-158 5 -290 9 -132 4 -307 9 -390 11 -166 5 -593 12 -1290 20 -253 3 -554 8
-670 10 -115 2 -433 7 -705 11 -272 4 -511 8 -530 10 -62 5 -2605 17 -2600 12z"/>
<path d="M3286 19782 c-15 -25 -26 -207 -25 -414 0 -253 0 -263 -37 -412 -31
-129 -31 -146 1 -146 19 0 26 6 30 28 6 26 15 63 35 140 28 107 33 170 32 381
-1 149 3 255 13 319 8 53 12 99 9 104 -7 10 -51 10 -58 0z"/>
<path d="M5134 19505 c-7 -19 -14 -60 -15 -92 0 -32 -3 -75 -7 -96 -7 -37 -10
-40 -85 -69 -82 -31 -100 -49 -75 -75 14 -13 21 -11 65 13 28 16 56 25 65 21
21 -8 17 -35 -28 -216 -38 -151 -40 -161 -20 -161 37 0 78 117 104 292 l17
113 89 5 c59 3 91 9 94 17 6 19 -41 33 -108 33 -34 0 -60 5 -62 11 -3 10 4 57
29 188 4 23 2 36 -8 42 -26 16 -40 9 -55 -26z"/>
<path d="M7001 19501 c-30 -32 -87 -144 -117 -230 -17 -49 -23 -55 -71 -76
-58 -26 -94 -68 -74 -88 9 -9 19 -8 43 6 17 10 35 14 40 9 7 -7 -36 -126 -90
-244 -24 -52 -27 -74 -11 -83 19 -12 55 34 83 107 15 40 31 82 36 93 9 23 22
62 40 123 8 23 20 48 28 55 24 19 222 22 247 4 39 -30 16 -219 -37 -305 -18
-30 -19 -35 -5 -49 39 -40 85 21 111 150 22 107 21 182 -4 223 -29 46 -73 58
-187 51 -51 -3 -95 -1 -98 3 -11 18 90 190 137 234 20 19 20 20 2 33 -27 20
-43 16 -73 -16z"/>
<path d="M4640 19346 c-101 -36 -162 -70 -224 -127 -62 -56 -74 -85 -56 -128
15 -37 45 -50 141 -62 91 -11 141 -27 198 -63 33 -21 41 -32 41 -55 0 -23 -10
-37 -49 -65 -66 -49 -173 -98 -228 -104 -51 -5 -67 -27 -37 -49 29 -22 86 -9
191 43 115 57 183 124 183 180 0 76 -111 143 -277 168 -82 13 -113 27 -113 51
0 22 77 81 153 118 93 45 140 58 191 51 32 -5 45 -2 56 11 13 15 12 19 -9 36
-30 25 -80 23 -161 -5z"/>
<path d="M3826 19308 c-40 -41 -63 -81 -106 -178 -76 -170 -84 -168 -90 30 -5
150 -6 155 -27 158 -13 2 -25 -4 -30 -15 -7 -14 8 -443 16 -461 0 -2 13 -2 27
0 30 4 39 19 90 147 45 115 127 271 154 296 41 37 65 -1 98 -161 12 -54 25
-128 28 -163 8 -72 38 -119 69 -108 14 6 16 14 11 40 -4 17 -14 70 -22 117
-21 124 -62 280 -80 307 -14 22 -51 43 -77 43 -6 0 -34 -24 -61 -52z"/>
<path d="M7173 19334 c-9 -23 21 -42 60 -38 18 1 38 3 45 3 19 1 14 29 -7 41
-31 16 -91 13 -98 -6z"/>
<path d="M6101 19250 c-17 -17 -60 -76 -97 -132 -84 -129 -145 -190 -182 -186
-52 6 -55 41 -26 250 6 44 5 48 -18 59 -38 17 -94 -17 -173 -106 -73 -81 -95
-92 -95 -47 0 37 -21 65 -46 60 -17 -3 -19 -13 -21 -83 -2 -44 -8 -99 -14
-122 -14 -52 -6 -75 23 -71 16 2 38 28 75 88 58 96 153 200 182 200 17 0 18
-7 13 -94 -6 -111 1 -155 29 -184 55 -60 186 16 282 165 15 24 27 45 27 48 0
2 24 42 54 87 30 46 52 86 49 90 -9 16 -32 7 -62 -22z"/>
<path d="M6351 19240 c-79 -44 -107 -97 -98 -185 6 -60 33 -119 72 -155 38
-36 128 -34 210 4 71 32 125 72 125 92 0 23 -43 16 -111 -18 -35 -17 -85 -33
-111 -36 -44 -4 -50 -2 -83 31 -34 34 -41 57 -36 122 4 57 12 67 76 96 69 31
77 42 46 59 -28 14 -51 12 -90 -10z"/>
<path d="M7512 19163 c-46 -23 -75 -65 -106 -155 -34 -98 -36 -193 -5 -232 16
-21 29 -26 64 -26 38 0 52 7 102 48 94 79 133 148 133 237 0 49 -31 120 -58
134 -30 16 -92 13 -130 -6z m88 -53 c28 -15 43 -81 31 -127 -13 -45 -75 -129
-112 -151 -16 -9 -36 -12 -53 -8 -24 6 -26 11 -26 57 0 35 6 58 21 78 12 16
19 33 16 38 -9 14 41 107 61 115 25 10 41 9 62 -2z"/>
<path d="M8120 19093 c-25 -8 -70 -33 -100 -54 -63 -44 -70 -46 -70 -21 0 23
-19 42 -42 42 -17 0 -22 -12 -44 -102 -3 -16 -3 -39 0 -53 10 -40 46 -32 111
24 32 26 81 63 111 81 85 51 117 32 143 -90 22 -96 25 -105 48 -108 35 -5 40
51 13 140 -27 89 -51 131 -85 146 -32 15 -30 15 -85 -5z"/>
<path d="M7225 18158 c-214 -4 -1189 -6 -2165 -6 -976 1 -1878 -2 -2005 -6
-758 -22 -1025 -27 -1510 -30 -548 -3 -605 -7 -605 -41 0 -17 -23 -25 -75 -25
-41 0 -109 -21 -118 -37 -3 -5 -8 -66 -12 -138 -6 -118 -30 -263 -71 -435 -24
-99 -52 -244 -74 -380 -7 -41 -19 -100 -26 -130 -8 -30 -24 -95 -34 -145 -11
-49 -27 -121 -36 -160 -21 -89 -20 -82 -39 -380 -9 -137 -20 -302 -25 -365
-25 -299 -4 -379 105 -409 83 -23 358 -30 1134 -30 441 0 804 -2 808 -4 5 -3
211 -8 458 -11 248 -4 538 -11 645 -16 107 -6 256 -10 330 -10 74 0 141 -4
149 -9 10 -7 12 -21 7 -59 -5 -39 -3 -54 9 -66 20 -19 45 -21 46 -3 0 6 1 37
2 67 l2 55 145 -1 c310 -1 986 -15 1410 -29 186 -6 837 -22 1230 -30 325 -7
642 -15 1500 -39 294 -8 749 -20 1010 -26 1591 -37 2522 -82 3505 -170 399
-36 499 -46 680 -65 77 -8 196 -18 265 -21 117 -6 127 -5 151 15 15 11 29 33
32 48 3 16 0 103 -6 196 -17 259 18 915 67 1256 8 53 19 143 26 201 6 58 22
159 35 225 14 66 29 176 35 245 6 69 18 197 26 285 8 88 14 230 14 316 0 197
2 194 -149 202 -56 4 -109 12 -117 18 -19 15 -126 17 -1544 23 -852 3 -1220 9
-1440 20 -162 9 -479 23 -705 31 -378 14 -764 30 -1320 55 -510 24 -1095 30
-1750 18z m1420 -73 c44 -3 202 -10 350 -15 437 -17 727 -32 862 -45 18 -2 37
-6 43 -10 7 -4 68 -7 136 -7 68 0 124 -3 124 -6 0 -4 44 -7 98 -8 186 -2 798
-25 922 -35 69 -5 676 -12 1350 -15 705 -4 1314 -11 1435 -18 l210 -11 3 -110
c2 -60 -4 -186 -13 -280 -8 -93 -19 -231 -25 -305 -5 -74 -19 -180 -30 -235
-11 -55 -27 -161 -36 -235 -8 -74 -21 -184 -29 -245 -57 -421 -85 -1102 -54
-1333 7 -56 8 -87 1 -94 -10 -10 -184 0 -447 27 -301 31 -981 88 -1305 110
-814 54 -1545 81 -3275 120 -456 10 -998 25 -1125 30 -142 6 -361 11 -1085 25
-280 6 -638 15 -795 20 -157 5 -627 17 -1045 25 -551 12 -763 20 -772 28 -9 9
-10 29 -2 82 5 39 7 87 3 108 -3 21 -1 133 5 250 6 117 13 275 15 352 5 141
15 206 79 515 19 91 40 199 47 240 11 64 27 130 80 325 5 17 16 55 24 85 20
69 43 203 51 300 4 41 13 118 21 170 8 52 17 116 21 142 l6 47 1266 1 c1060 1
1465 0 1651 -1 88 -1 292 10 298 15 7 8 793 0 937 -9z m-4216 -5 c11 -6 10
-20 -2 -71 -26 -109 -36 -170 -47 -289 -15 -166 -26 -227 -64 -353 -48 -156
-72 -259 -101 -429 -14 -81 -34 -184 -44 -230 -48 -205 -61 -307 -67 -499 -3
-107 -8 -268 -12 -359 -4 -90 -5 -196 -2 -234 3 -38 3 -90 0 -115 -5 -44 -7
-46 -35 -45 -148 5 -428 15 -505 20 -216 11 -1117 25 -1895 30 -819 4 -1046
12 -1112 39 -56 24 -62 102 -33 485 9 126 15 211 25 395 3 55 12 129 20 165 8
36 26 119 40 185 28 133 42 192 56 245 5 19 14 64 20 100 24 152 29 179 44
249 9 41 18 78 21 82 18 30 56 263 61 377 7 152 3 146 103 157 36 4 95 13 132
22 78 17 95 18 383 14 121 -1 281 2 355 8 213 17 571 30 1160 41 837 17 1482
21 1499 10z"/>
<path d="M9834 16872 c-34 -22 -86 -185 -120 -372 -9 -52 -21 -99 -25 -104 -5
-6 -29 12 -57 41 -61 63 -117 93 -176 93 -57 0 -76 -19 -76 -74 0 -92 112
-207 237 -246 93 -28 250 -26 240 4 -2 6 -26 15 -53 19 -69 12 -80 19 -76 53
4 34 65 293 88 374 9 30 30 85 46 122 25 56 29 70 18 83 -14 16 -29 19 -46 7z
m-338 -402 c43 -17 105 -71 136 -119 31 -50 37 -91 13 -91 -39 0 -141 74 -177
128 -18 27 -24 73 -11 85 8 9 7 9 39 -3z"/>
<path d="M6040 16861 c-50 -11 -100 -34 -135 -63 -16 -13 -50 -35 -75 -47 -62
-31 -127 -97 -146 -148 -41 -107 41 -212 166 -213 61 0 155 25 210 57 68 39
166 121 179 149 34 74 -11 213 -79 246 -47 23 -78 28 -120 19z m101 -80 c32
-39 52 -103 44 -141 -14 -63 -175 -175 -277 -194 -84 -15 -170 39 -170 107 0
19 7 48 16 64 19 38 71 83 96 83 10 0 32 11 48 25 25 21 36 24 75 19 52 -7 68
7 41 37 -16 17 -16 22 -4 30 8 5 35 8 60 5 35 -3 50 -11 71 -35z"/>
<path d="M6705 16791 c-153 -40 -246 -136 -307 -314 -29 -86 -32 -103 -35
-257 -4 -179 3 -212 46 -218 34 -5 41 7 56 92 16 89 12 110 -22 125 -24 11
-25 13 -18 89 9 99 56 242 100 302 68 92 154 139 255 140 68 0 110 -17 110
-45 0 -20 -64 -77 -129 -116 -31 -18 -78 -47 -106 -64 -27 -18 -76 -44 -108
-59 -64 -29 -68 -52 -8 -43 92 12 373 183 406 248 20 38 5 74 -43 102 -37 22
-146 32 -197 18z"/>
<path d="M7336 16789 c-84 -20 -123 -60 -166 -169 -47 -119 -18 -305 55 -350
43 -27 92 -35 128 -21 36 14 28 27 -24 35 -78 12 -119 81 -119 197 l0 56 67 6
c92 9 158 35 204 79 53 51 52 84 -1 132 -22 20 -49 36 -59 36 -11 0 -25 2 -33
4 -7 2 -31 0 -52 -5z m92 -65 c60 -38 -20 -114 -136 -130 -67 -9 -76 9 -35 74
46 75 107 95 171 56z"/>
<path d="M8065 16684 c-165 -25 -290 -73 -364 -139 -49 -45 -63 -79 -59 -146
3 -48 6 -54 26 -57 37 -6 54 16 47 59 -14 82 56 149 207 199 88 29 215 56 224
47 3 -3 -32 -50 -78 -105 -83 -99 -132 -182 -144 -240 -5 -25 -1 -36 21 -58
23 -23 32 -26 71 -20 96 13 166 78 234 216 30 62 49 90 60 88 19 -4 35 -54 61
-183 11 -55 25 -105 31 -112 14 -17 58 -17 58 0 0 29 -79 329 -96 364 -16 31
-24 38 -48 38 -27 0 -32 -6 -57 -67 -29 -72 -93 -173 -143 -226 -57 -61 -126
-83 -126 -39 1 53 64 148 197 295 68 75 68 85 3 94 -19 3 -75 -1 -125 -8z"/>
<path d="M8972 16637 c-40 -30 -124 -118 -212 -222 -83 -98 -105 -119 -120
-110 -14 9 -8 47 22 153 23 80 18 99 -25 88 -29 -7 -33 -20 -53 -156 -19 -133
-18 -163 7 -185 19 -18 21 -18 52 -2 18 10 45 37 62 60 60 85 266 307 284 307
26 0 47 -64 61 -187 16 -139 28 -204 41 -219 16 -19 79 -17 109 2 28 19 50 44
50 56 0 14 -39 9 -65 -8 -42 -27 -52 -14 -60 78 -15 191 -53 324 -101 355 -18
11 -24 10 -52 -10z"/>
<path d="M10492 16630 c-157 -22 -302 -89 -302 -140 0 -29 37 -66 87 -88 26
-11 125 -39 218 -62 185 -44 245 -66 245 -86 0 -40 -136 -89 -311 -114 -103
-14 -119 -21 -99 -46 13 -14 28 -16 115 -11 165 9 310 62 348 125 17 29 17 33
2 62 -23 45 -62 64 -198 100 -67 17 -156 40 -198 51 -42 11 -91 29 -109 40
-31 19 -32 21 -15 39 54 60 340 104 416 64 36 -18 59 -12 59 15 0 46 -123 70
-258 51z"/>
<path d="M3447 16943 c-8 -15 -29 -89 -47 -163 -17 -74 -34 -143 -37 -152 -3
-13 -14 -18 -37 -18 -47 0 -67 -40 -68 -133 -1 -107 22 -138 118 -156 59 -11
139 3 222 40 43 19 56 21 70 11 41 -29 91 -44 149 -46 104 -2 113 45 11 58
-54 8 -108 30 -108 46 0 5 17 21 38 34 20 13 57 42 82 64 39 34 45 44 45 80 0
104 -123 122 -199 29 -36 -45 -61 -116 -52 -151 3 -12 2 -26 -2 -31 -35 -51
-209 -93 -262 -65 -22 12 -19 44 10 120 10 25 32 92 50 150 18 58 43 137 57
175 14 39 26 84 27 100 1 26 -3 30 -26 33 -21 3 -30 -3 -41 -25z m368 -327
c18 -13 18 -14 -3 -43 -30 -43 -88 -84 -106 -77 -34 13 -4 93 46 120 30 17 40
17 63 0z"/>
<path d="M2069 16866 c-20 -7 -52 -22 -70 -34 -140 -90 -186 -219 -190 -536
-1 -96 1 -111 17 -123 10 -7 23 -12 29 -10 15 5 30 216 16 251 -16 45 4 169
40 243 62 128 208 201 283 142 14 -11 26 -26 26 -33 0 -20 -57 -69 -194 -168
-71 -51 -131 -98 -133 -104 -7 -20 27 -24 60 -8 72 37 235 152 280 197 52 53
57 77 31 132 -28 59 -112 81 -195 51z"/>
<path d="M1304 16799 c-26 -7 -94 -75 -94 -94 0 -3 -10 -26 -21 -51 -18 -36
-21 -57 -17 -109 12 -144 105 -213 237 -175 37 10 112 64 132 96 8 12 29 43
47 69 53 80 40 163 -34 220 -64 49 -170 67 -250 44z m164 -75 c47 -19 102 -72
102 -97 0 -23 -57 -111 -95 -146 -36 -33 -94 -61 -128 -61 -40 0 -85 26 -107
63 -24 39 -25 67 -4 136 12 43 21 54 45 63 17 6 29 17 29 27 0 10 3 21 7 24
12 13 114 7 151 -9z"/>
<path d="M2460 16714 c-49 -45 -110 -165 -110 -219 0 -29 7 -44 34 -71 32 -32
39 -34 98 -34 49 0 77 6 123 28 60 29 93 57 82 69 -4 3 -35 -2 -69 -11 -183
-51 -243 -18 -182 101 19 38 45 68 77 91 35 25 47 40 45 56 -5 37 -51 33 -98
-10z"/>
<path d="M2818 16621 c-74 -65 -114 -182 -78 -226 19 -23 72 -36 106 -26 44
12 112 57 150 100 57 61 43 147 -28 175 -65 27 -100 21 -150 -23z m136 -51
c14 -5 26 -16 26 -24 0 -23 -45 -69 -93 -95 -47 -26 -93 -24 -104 4 -9 25 17
73 45 85 15 6 38 17 52 25 30 17 40 18 74 5z"/>
<path d="M23795 16954 c-274 -61 -440 -199 -495 -414 l-16 -65 -75 0 c-72 0
-74 -1 -77 -26 -4 -31 11 -40 83 -48 l50 -6 0 -120 c0 -100 3 -127 20 -160 15
-30 27 -41 48 -43 35 -4 46 21 21 49 -16 18 -19 38 -19 143 l0 121 140 12 c77
7 183 21 235 32 160 32 160 32 167 15 3 -9 -4 -47 -15 -83 -29 -88 -28 -113 5
-145 22 -22 33 -26 57 -22 40 8 98 49 160 113 63 65 177 276 158 295 -21 21
-58 -18 -114 -118 -37 -68 -69 -111 -108 -146 -52 -46 -94 -68 -107 -55 -3 3
4 37 16 76 26 85 27 123 3 144 -31 29 -73 29 -192 3 -140 -30 -367 -53 -382
-38 -15 15 6 94 44 165 58 108 188 200 343 242 33 9 110 19 170 22 100 5 115
3 163 -17 37 -16 56 -20 63 -13 21 21 4 48 -46 73 -63 31 -193 37 -300 14z"/>
<path d="M21006 16833 c-54 -58 -216 -395 -216 -450 0 -10 -5 -25 -10 -33 -8
-12 -16 -8 -47 22 -74 72 -173 89 -261 44 -138 -71 -163 -215 -50 -299 55 -41
100 -50 222 -45 94 4 128 11 219 42 l108 37 47 -18 c80 -29 421 -13 469 22 40
29 3 34 -202 28 -152 -5 -205 -3 -205 5 0 7 6 12 14 12 29 0 156 73 177 101
76 106 -131 235 -279 173 -105 -43 -148 -141 -101 -228 11 -21 17 -42 12 -46
-4 -4 -51 -18 -103 -31 -122 -29 -289 -33 -336 -7 -135 74 25 260 180 208 22
-7 56 -34 89 -71 76 -83 88 -80 102 26 4 27 20 83 37 125 37 93 150 300 179
326 33 29 42 53 28 70 -18 22 -46 17 -73 -13z m189 -433 c19 -12 35 -28 35
-35 0 -25 -51 -63 -127 -95 -101 -42 -129 -47 -153 -25 -59 53 -17 144 79 176
42 14 128 2 166 -21z"/>
<path d="M25591 16732 c-11 -22 -30 -73 -41 -113 -11 -41 -27 -79 -35 -85 -9
-7 -35 -15 -59 -18 -45 -7 -86 -36 -86 -61 0 -26 31 -33 77 -18 24 9 47 13 50
9 3 -3 -2 -29 -11 -58 -9 -29 -20 -75 -23 -103 -3 -27 -10 -58 -14 -67 -13
-25 0 -48 27 -48 32 0 44 27 44 98 0 33 9 90 20 126 l21 66 39 0 c45 0 86 -16
95 -37 3 -8 -7 -42 -22 -75 -26 -59 -25 -86 4 -95 33 -11 88 108 77 165 -9 43
-56 88 -111 104 -25 7 -48 19 -50 25 -3 7 12 48 32 91 40 87 43 125 8 130 -17
3 -27 -6 -42 -36z"/>
<path d="M25837 16693 c-12 -12 -7 -63 9 -94 8 -17 32 -48 52 -71 30 -33 36
-46 33 -77 -2 -29 4 -45 24 -69 23 -27 24 -35 16 -72 -12 -55 2 -102 41 -135
27 -23 38 -26 71 -21 88 14 188 94 207 167 23 86 -34 201 -117 236 -43 18
-125 17 -170 -2 -46 -20 -87 -6 -109 36 -13 26 -13 32 2 54 13 20 14 28 4 40
-13 15 -51 20 -63 8z m316 -194 c143 -39 112 -219 -46 -261 -90 -23 -105 21
-42 123 41 67 44 91 10 117 -13 11 -21 22 -18 26 9 9 53 7 96 -5z m-128 -59
c8 -13 -13 -40 -30 -40 -15 0 -28 27 -19 41 7 12 41 11 49 -1z"/>
<path d="M22358 16644 c-53 -18 -166 -64 -250 -102 -134 -60 -153 -71 -153
-91 0 -52 26 -49 172 22 168 81 322 137 385 140 45 2 49 0 116 -65 69 -67 82
-73 147 -69 92 6 211 97 165 126 -6 3 -41 -6 -78 -21 -37 -15 -88 -28 -114
-28 -42 -1 -52 3 -90 40 -105 99 -140 105 -300 48z"/>
<path d="M24950 16543 c-27 -10 -65 -37 -98 -70 -29 -29 -55 -53 -58 -53 -2 0
-4 20 -4 44 0 36 -5 48 -26 65 -15 12 -40 21 -56 21 -44 0 -122 -45 -180 -104
-29 -29 -65 -56 -80 -60 -19 -4 -34 -19 -49 -49 -12 -23 -28 -50 -36 -59 -19
-21 -13 -58 11 -72 15 -9 25 -3 65 44 143 169 217 230 277 230 l27 0 -6 -70
c-8 -96 3 -122 71 -165 65 -40 118 -45 215 -20 106 27 247 114 247 151 0 22
-21 17 -111 -25 -131 -61 -244 -85 -289 -61 -10 5 -21 24 -25 40 -9 42 28 90
97 124 59 29 109 33 152 11 36 -19 52 -19 60 0 8 22 -41 73 -82 85 -48 13 -67
12 -122 -7z"/>
<path d="M18351 16528 c-65 -32 -139 -112 -175 -187 -54 -117 -40 -248 36
-318 33 -31 90 -53 137 -53 71 0 219 95 316 202 52 58 69 91 80 155 9 59 -8
104 -60 152 -50 46 -86 57 -205 65 -74 5 -91 3 -129 -16z m254 -50 c103 -52
110 -155 19 -257 -90 -100 -224 -180 -302 -181 -79 0 -120 68 -110 184 6 67
52 166 78 166 10 0 28 12 40 28 32 41 59 52 107 46 35 -5 43 -3 53 16 10 19
17 21 53 15 23 -4 51 -12 62 -17z"/>
<path d="M19635 16426 c-101 -42 -201 -103 -243 -148 -53 -58 -32 -134 54
-200 85 -66 161 -81 247 -52 56 19 73 36 53 53 -10 9 -30 9 -74 2 -91 -15
-165 9 -216 69 -36 43 -33 72 9 109 46 40 108 71 220 110 98 34 120 52 104 82
-14 27 -40 22 -154 -25z"/>
<path d="M26728 16442 c-25 -15 -80 -51 -122 -79 -103 -73 -117 -72 -66 4 34
50 35 76 4 81 -26 4 -42 -16 -93 -112 -43 -84 -48 -105 -29 -124 30 -30 73 -9
242 112 45 32 89 56 103 56 24 0 25 -1 18 -52 -4 -29 -13 -77 -20 -106 -15
-58 -11 -82 11 -82 28 0 53 68 70 192 7 55 -9 114 -36 128 -26 14 -29 13 -82
-18z"/>
<path d="M19025 16439 c-61 -32 -114 -88 -145 -151 -14 -31 -34 -63 -43 -72
-9 -9 -14 -23 -11 -30 3 -7 -4 -58 -16 -112 -14 -66 -23 -155 -27 -266 -5
-146 -4 -170 11 -193 19 -28 25 -30 49 -12 22 16 33 77 48 272 16 202 15 205
-11 225 -32 24 -18 42 21 28 63 -22 178 24 267 107 97 89 112 132 65 177 -55
52 -139 63 -208 27z m157 -45 c49 -30 -131 -191 -232 -208 -51 -9 -66 4 -51
44 13 38 73 114 107 137 57 37 139 49 176 27z"/>
<path d="M22233 16446 c-58 -19 -104 -49 -152 -101 -45 -49 -52 -79 -21 -95
16 -9 23 -6 37 12 44 57 102 104 140 116 65 19 87 15 139 -28 72 -60 120 -80
190 -80 79 0 127 15 170 52 63 56 30 101 -40 54 -73 -49 -182 -46 -261 7 -68
46 -127 77 -145 76 -8 0 -34 -6 -57 -13z"/>
<path d="M19953 16370 c-32 -19 -47 -51 -42 -86 2 -11 -3 -36 -10 -57 -11 -33
-11 -45 4 -83 38 -100 150 -126 280 -65 84 39 125 82 125 133 0 32 -8 46 -47
87 -82 84 -233 118 -310 71z m271 -109 c24 -24 37 -45 33 -54 -3 -8 -36 -30
-73 -48 -55 -27 -80 -34 -131 -34 -71 0 -95 16 -95 61 0 32 30 59 85 76 49 15
65 33 49 59 -12 19 -11 18 40 -1 29 -11 70 -37 92 -59z"/>
<path d="M28440 14971 c-53 -28 -73 -66 -114 -217 -21 -77 -41 -146 -45 -154
-6 -10 -29 -17 -70 -20 -39 -3 -65 -10 -71 -20 -14 -23 8 -40 56 -40 23 0 45
-4 49 -9 7 -13 -14 -99 -27 -107 -5 -3 -16 0 -25 7 -24 21 -44 -13 -32 -54 5
-18 9 -33 9 -34 0 -1 11 -10 24 -18 19 -13 29 -14 44 -6 20 11 30 35 68 154 9
32 20 60 23 62 3 1 37 6 74 10 l68 7 -6 -63 c-5 -51 -2 -71 12 -99 24 -45 101
-93 151 -93 49 0 102 28 102 53 0 18 -6 20 -70 18 -78 -2 -102 11 -127 70 -12
29 -11 37 8 82 19 44 26 51 63 60 88 23 128 42 147 74 26 42 24 62 -8 92 -55
51 -155 12 -211 -81 -20 -34 -33 -44 -61 -49 -55 -9 -111 -7 -111 4 0 5 12 35
26 67 14 32 32 74 39 94 7 20 32 69 54 109 46 81 49 95 22 110 -25 13 -20 13
-61 -9z m250 -310 c0 -11 -61 -33 -69 -25 -9 8 30 34 51 34 10 0 18 -4 18 -9z"/>
<path d="M565 14909 c-4 -5 -4 -37 0 -70 14 -121 131 -300 228 -350 44 -23 88
-20 191 13 37 12 105 22 171 25 128 6 235 -15 342 -69 95 -47 135 -86 172
-170 35 -78 35 -79 74 -178 20 -53 29 -66 49 -68 20 -2 29 7 57 57 73 128 248
262 416 318 55 18 109 27 175 30 103 5 121 2 361 -65 210 -59 356 -78 481 -64
120 14 235 57 316 117 52 38 198 202 246 277 23 35 18 82 -9 85 -15 2 -29 -11
-53 -50 -120 -190 -229 -294 -345 -328 -194 -58 -342 -46 -657 51 -201 63
-294 72 -441 44 -94 -17 -228 -78 -326 -147 -33 -23 -93 -79 -134 -124 -40
-46 -76 -83 -80 -83 -12 0 -26 24 -39 65 -51 158 -125 254 -246 317 -159 83
-321 106 -479 68 -164 -39 -186 -42 -231 -25 -75 28 -164 148 -164 221 0 67
-53 140 -75 103z"/>
<path d="M4302 14893 c-45 -88 -5 -250 94 -383 53 -70 97 -107 180 -148 90
-45 150 -59 354 -83 171 -19 203 -20 420 -10 129 6 323 13 430 16 107 3 247
12 310 20 163 22 523 29 805 16 450 -20 582 -62 847 -269 128 -101 162 -136
214 -220 54 -90 70 -91 139 -14 108 119 315 253 476 307 40 14 131 37 203 52
122 26 147 28 356 27 325 -1 627 -43 1090 -154 376 -90 569 -124 1185 -209
321 -45 430 -54 680 -53 246 0 399 12 536 42 319 71 654 271 788 470 126 187
168 317 121 368 -23 24 -41 27 -71 12 -31 -17 -24 -49 12 -57 27 -5 30 -9 24
-32 -11 -47 -85 -193 -129 -255 -150 -210 -484 -397 -814 -457 -307 -55 -698
-48 -1167 21 -747 111 -823 125 -1156 205 -535 129 -1017 187 -1289 156 -125
-15 -315 -54 -395 -81 -151 -52 -357 -179 -493 -304 l-33 -31 -17 21 c-9 12
-33 43 -52 68 -42 55 -251 220 -363 288 -93 56 -228 102 -360 123 -202 32
-774 46 -987 25 -337 -34 -418 -40 -530 -40 -69 0 -228 -5 -355 -11 -213 -11
-244 -10 -420 10 -198 22 -253 35 -345 81 -148 74 -265 284 -239 427 8 40 7
50 -8 61 -23 16 -31 15 -41 -5z"/>
<path d="M21797 14879 c-8 -5 -18 -24 -22 -42 -11 -59 -119 -387 -128 -387 -4
0 -36 19 -70 42 -34 24 -64 44 -66 46 -3 1 7 15 21 30 45 48 62 82 50 94 -9 9
-28 -5 -76 -55 -36 -37 -73 -67 -83 -67 -51 -1 -90 -77 -73 -143 19 -70 56
-114 127 -149 57 -28 77 -32 171 -36 166 -7 354 36 381 87 23 42 8 96 -46 168
-20 26 -23 35 -13 53 12 22 102 70 131 70 30 0 79 22 79 35 0 29 -81 34 -154
9 -27 -10 -68 -35 -92 -59 -59 -56 -59 -90 -2 -175 39 -59 40 -64 23 -76 -34
-25 -130 -39 -265 -39 -130 0 -137 1 -186 28 -78 44 -120 110 -89 141 9 9 24
16 33 16 27 0 98 -39 146 -81 54 -48 84 -49 105 -4 28 57 150 387 157 420 11
60 -18 96 -59 74z"/>
<path d="M26505 14856 c-89 -25 -143 -50 -225 -106 -143 -99 -224 -240 -154
-272 37 -17 59 0 59 45 0 73 114 185 252 248 103 47 115 39 55 -38 -89 -113
-103 -165 -56 -202 43 -34 81 -27 125 20 21 23 42 38 47 35 4 -3 15 -23 22
-46 25 -74 116 -129 169 -101 39 21 14 61 -37 61 -11 0 -33 15 -50 34 -32 37
-52 118 -52 217 0 30 -5 71 -11 92 -12 45 -26 46 -144 13z m78 -158 c-13 -68
-79 -136 -106 -109 -19 19 65 141 97 141 12 0 14 -7 9 -32z"/>
<path d="M27475 14810 c-11 -4 -69 -54 -129 -111 -115 -111 -131 -123 -145
-115 -5 3 0 46 11 96 16 72 18 94 8 105 -28 34 -64 10 -113 -76 -30 -51 -73
-96 -84 -86 -3 4 0 38 7 76 14 77 10 101 -19 101 -23 0 -41 -28 -41 -63 0 -14
-9 -73 -21 -131 -16 -84 -18 -110 -9 -121 29 -35 79 -2 143 94 15 23 33 41 40
38 7 -2 13 -23 15 -48 4 -55 16 -69 58 -69 30 0 48 13 134 96 55 52 104 92
110 89 5 -3 10 -44 10 -90 0 -46 5 -96 12 -110 15 -34 62 -61 121 -69 26 -4
73 -19 105 -34 79 -37 180 -37 271 1 69 29 101 52 101 74 0 19 -36 16 -118
-12 -73 -25 -192 -35 -192 -16 0 4 20 14 45 21 50 14 127 76 150 121 64 124
-80 214 -223 140 -75 -39 -118 -115 -110 -194 3 -27 -1 -33 -20 -35 -13 -2
-34 4 -48 12 -20 14 -24 24 -24 69 0 28 5 85 10 125 13 101 -5 141 -55 122z
m395 -165 c33 -40 -28 -115 -114 -140 -71 -21 -91 -10 -82 43 6 39 27 66 71
93 36 23 108 25 125 4z"/>
<path d="M29059 14801 c-110 -43 -159 -94 -240 -250 -61 -117 -58 -187 6 -179
14 2 21 14 27 44 9 58 78 190 127 246 49 55 124 94 201 103 65 8 86 21 69 41
-17 20 -133 17 -190 -5z"/>
<path d="M25804 14771 c-40 -48 -85 -89 -137 -129 -60 -44 -97 -93 -97 -128 0
-48 71 -71 118 -38 12 8 34 37 47 64 31 61 50 57 59 -12 12 -88 74 -158 139
-158 28 0 52 23 44 44 -3 8 -19 17 -35 21 -61 13 -91 74 -92 183 0 36 4 54 14
58 25 10 27 35 6 69 -26 42 -46 50 -66 26z m-124 -221 c-6 -11 -17 -20 -25
-20 -19 0 -19 5 1 24 22 23 37 20 24 -4z"/>
<path d="M25179 14769 c-106 -16 -209 -100 -247 -201 -77 -205 -78 -581 -2
-706 11 -18 28 -32 39 -32 27 0 51 37 51 77 0 25 -6 35 -27 45 -40 19 -54 84
-55 248 0 151 18 280 52 358 24 56 83 116 136 138 101 42 289 -25 271 -98 -15
-58 -190 -188 -254 -188 -18 0 -33 5 -33 10 0 22 -40 10 -46 -14 -13 -53 32
-85 100 -72 87 16 254 135 291 207 21 39 19 96 -5 134 -38 62 -172 109 -271
94z"/>
<path d="M29378 14749 c-70 -10 -163 -53 -184 -84 -40 -61 73 -143 278 -200
147 -41 146 -117 -4 -230 -35 -26 -97 -65 -139 -86 -81 -40 -109 -62 -109 -84
0 -40 91 -17 244 63 75 39 169 119 191 163 8 15 15 48 15 73 0 82 -55 123
-241 179 -91 28 -152 62 -157 89 -2 11 12 21 50 34 52 18 66 19 308 11 50 -2
55 0 58 20 4 31 -18 40 -130 52 -107 12 -99 12 -180 0z"/>
<path d="M19762 14720 c-41 -30 -102 -135 -102 -178 0 -57 -20 -63 -100 -32
-28 11 -60 20 -71 20 -23 0 -36 -26 -23 -47 12 -20 101 -53 141 -53 38 0 48
-14 57 -83 7 -61 32 -103 68 -118 59 -24 206 8 289 64 33 22 39 35 54 130 12
77 102 145 257 196 97 32 104 27 62 -39 -68 -105 -86 -149 -87 -213 -2 -67 11
-85 56 -73 30 7 92 67 114 109 8 16 19 27 24 25 6 -2 27 -35 47 -73 42 -79 77
-105 118 -86 33 15 30 28 -10 52 -27 16 -42 38 -70 104 -20 46 -36 94 -36 107
0 43 -12 68 -35 74 -21 5 -22 8 -12 35 9 22 9 34 0 47 -32 50 -314 -35 -412
-123 -51 -46 -65 -72 -81 -150 -7 -33 -21 -67 -31 -76 -9 -9 -49 -26 -88 -39
-119 -38 -163 -16 -176 85 l-6 50 59 27 c72 33 148 104 160 150 11 43 -1 87
-33 116 -37 31 -83 29 -133 -8z m86 -56 c26 -18 28 -41 6 -73 -18 -26 -101
-81 -121 -81 -33 0 8 113 54 150 31 24 33 24 61 4z m613 -182 c-23 -45 -69
-102 -82 -102 -27 0 13 109 65 175 l31 39 3 -36 c2 -22 -5 -52 -17 -76z"/>
<path d="M24230 14700 c-54 -10 -93 -35 -143 -90 -25 -27 -50 -50 -55 -50 -5
0 -29 9 -53 20 -66 30 -143 26 -239 -11 -120 -46 -165 -75 -200 -127 -36 -54
-43 -76 -38 -123 3 -30 6 -34 33 -34 28 0 30 3 36 46 4 26 12 56 18 67 25 47
117 98 227 127 56 15 62 14 129 -7 83 -26 95 -34 95 -62 0 -38 43 -98 84 -120
65 -33 237 -34 282 -2 15 12 16 16 5 30 -11 13 -34 16 -113 16 -128 0 -174 18
-192 75 -5 19 1 22 64 32 88 13 180 58 198 95 10 22 10 33 -2 62 -21 50 -68
70 -136 56z m63 -84 c11 -28 -67 -66 -134 -66 l-42 0 19 21 c47 53 144 80 157
45z"/>
<path d="M18405 14689 c-129 -17 -195 -47 -195 -90 0 -30 28 -34 70 -10 69 39
79 23 26 -42 -86 -107 -117 -231 -78 -319 27 -62 90 -94 164 -84 169 23 362
239 328 366 -12 43 -93 125 -135 136 -15 4 -30 17 -35 30 -11 27 -24 28 -145
13z m140 -108 c22 -10 57 -37 79 -61 45 -50 44 -75 -3 -143 -65 -95 -168 -166
-241 -167 -147 -1 -141 178 11 344 57 63 67 65 154 27z"/>
<path d="M19231 14664 c-93 -25 -189 -93 -236 -166 -11 -17 -26 -28 -40 -28
-27 0 -35 -16 -35 -78 -1 -26 -5 -65 -10 -87 -43 -201 -52 -263 -57 -415 -5
-149 -4 -167 11 -180 47 -38 71 34 80 237 17 391 15 368 57 452 44 89 91 138
173 180 62 33 94 38 129 20 55 -29 50 -67 -17 -137 -80 -84 -156 -127 -226
-128 -47 0 -55 -3 -58 -21 -4 -28 23 -53 59 -53 87 0 261 112 320 207 34 54
40 90 23 133 -27 67 -84 88 -173 64z"/>
<path d="M21128 14612 c-19 -21 -54 -65 -78 -98 -52 -72 -90 -114 -103 -114
-6 0 -7 30 -2 78 13 140 13 137 -17 140 -38 5 -48 -26 -50 -154 -2 -114 13
-154 55 -154 35 0 60 23 121 107 90 128 94 131 110 111 7 -10 21 -55 31 -100
9 -46 22 -89 27 -95 24 -30 98 -1 98 38 0 13 -7 19 -24 19 -27 0 -26 -2 -47
130 -21 138 -56 164 -121 92z"/>
<path d="M22983 14599 c-109 -42 -213 -170 -199 -244 20 -106 182 -81 308 47
32 32 62 58 67 58 6 0 22 -24 36 -52 44 -89 97 -138 150 -138 53 0 50 24 -11
75 -45 39 -94 106 -94 130 0 3 11 10 25 15 52 20 21 82 -57 115 -53 21 -161
19 -225 -6z m161 -48 c9 -14 -47 -79 -104 -119 -78 -55 -114 -72 -155 -72 -34
0 -40 6 -35 40 2 21 78 98 115 117 66 36 167 55 179 34z"/>
<path d="M1483 13702 c-20 -13 -43 -71 -62 -157 -10 -47 -22 -90 -26 -93 -4
-4 -58 -6 -121 -6 -136 2 -164 14 -164 69 0 28 9 46 41 80 42 46 47 75 11 75
-24 0 -77 -56 -96 -102 -23 -54 -20 -100 7 -126 36 -34 76 -44 201 -50 l119
-5 -9 -61 c-9 -67 -8 -147 1 -183 3 -15 13 -23 28 -23 22 0 22 4 24 103 2 97
23 269 38 312 4 11 16 38 26 60 30 68 33 92 12 103 -11 6 -24 8 -30 4z"/>
<path d="M19115 13672 c-40 -25 -135 -129 -186 -204 -120 -177 -152 -331 -110
-533 32 -154 79 -233 174 -299 73 -50 166 -76 303 -83 123 -6 184 1 184 22 0
15 -28 20 -165 30 -201 15 -316 70 -382 182 -68 116 -90 300 -54 442 29 117
98 236 192 333 70 72 79 78 116 78 45 0 70 19 51 38 -18 18 -89 14 -123 -6z"/>
<path d="M2508 13629 c-42 -16 -50 -69 -10 -69 30 0 102 32 102 46 0 15 -31
34 -52 33 -7 0 -25 -5 -40 -10z"/>
<path d="M19580 13618 c-1 -2 -3 -73 -6 -158 -2 -85 -8 -158 -12 -161 -4 -4
-45 -12 -92 -18 -93 -11 -205 -44 -232 -68 -21 -19 -13 -43 14 -43 11 0 53 12
92 26 79 28 195 46 212 33 6 -5 14 -65 18 -142 15 -266 18 -292 43 -295 41 -6
47 30 29 170 -9 68 -16 157 -16 197 l0 74 98 -8 c142 -13 205 -12 209 2 7 21
-34 33 -169 49 -73 8 -134 17 -137 20 -3 2 1 66 7 141 10 119 10 140 -3 160
-9 13 -24 23 -35 23 -11 0 -20 -1 -20 -2z"/>
<path d="M1896 13578 c-2 -13 -9 -63 -15 -113 -7 -49 -21 -137 -32 -195 -31
-153 -31 -164 6 -168 17 -2 38 -11 47 -19 37 -33 196 2 238 52 21 25 14 75
-15 104 -23 23 -32 26 -93 24 -37 -1 -80 -3 -97 -5 -29 -3 -30 -2 -27 32 2 19
10 59 19 88 8 29 15 90 16 135 2 78 1 82 -20 85 -17 2 -23 -3 -27 -20z m186
-379 c27 -15 22 -27 -21 -49 -51 -26 -109 -34 -144 -21 l-28 11 21 30 c33 46
114 60 172 29z"/>
<path d="M28425 13549 c-4 -5 22 -38 57 -72 68 -66 108 -128 177 -272 75 -158
101 -259 101 -402 0 -165 -53 -284 -219 -492 -79 -99 -90 -116 -78 -129 11
-10 20 -11 34 -4 37 20 173 190 234 293 152 258 118 541 -113 931 -67 113
-167 189 -193 147z"/>
<path d="M22891 13478 c-10 -28 -48 -329 -57 -454 -8 -114 7 -190 42 -206 51
-23 84 22 41 56 -23 19 -27 29 -27 77 0 63 33 339 53 447 12 63 12 75 0 88
-21 21 -42 17 -52 -8z"/>
<path d="M2762 13457 c-6 -7 -12 -25 -14 -41 -2 -23 -10 -32 -37 -41 -44 -14
-60 -37 -42 -59 9 -10 21 -14 33 -10 44 14 53 -35 28 -156 -6 -30 -13 -79 -17
-108 -5 -52 -5 -54 17 -50 33 5 50 62 57 196 4 66 11 116 18 122 7 6 44 5 104
-2 80 -10 94 -9 108 4 14 15 13 17 -9 32 -13 9 -65 22 -114 29 l-89 12 -3 37
c-3 38 -23 55 -40 35z"/>
<path d="M23193 13448 c-6 -7 -13 -31 -16 -53 -3 -22 -17 -119 -31 -215 -28
-189 -34 -348 -14 -368 7 -7 19 -12 29 -12 14 0 17 18 22 133 3 75 19 211 37
317 30 175 30 185 14 197 -22 16 -29 16 -41 1z"/>
<path d="M2356 13441 c-4 -5 -2 -41 5 -78 13 -84 4 -217 -19 -260 -15 -30 -15
-34 0 -49 25 -25 44 -11 64 48 23 70 26 269 4 313 -16 31 -43 44 -54 26z"/>
<path d="M21547 13413 c-12 -11 -7 -53 6 -53 6 -1 33 -3 59 -5 58 -5 71 10 34
42 -26 22 -84 32 -99 16z"/>
<path d="M3300 13350 c-137 -26 -202 -132 -130 -213 29 -34 43 -41 185 -96
101 -40 134 -63 117 -84 -34 -40 -195 -82 -351 -91 -46 -3 -88 -9 -93 -14 -5
-5 1 -17 13 -28 18 -16 36 -19 118 -19 102 1 197 21 288 60 95 43 116 88 67
152 -27 36 -88 71 -194 110 -146 55 -162 86 -70 135 46 25 62 28 95 23 79 -14
100 -12 100 9 0 40 -76 69 -145 56z"/>
<path d="M9187 13305 c-13 -32 10 -55 57 -55 88 0 82 57 -6 67 -36 4 -46 2
-51 -12z"/>
<path d="M20496 13281 c-18 -19 -40 -65 -61 -128 -31 -95 -34 -99 -76 -120
-122 -61 -222 7 -253 174 -12 66 -13 68 -42 68 -29 0 -29 0 -27 -54 2 -36 13
-77 33 -120 36 -77 63 -108 107 -127 39 -17 133 -18 168 -2 14 6 27 9 30 6 3
-2 0 -27 -5 -54 -6 -27 -15 -148 -19 -269 -7 -187 -12 -229 -30 -280 -35 -96
-36 -102 -11 -110 30 -10 44 7 70 85 18 54 23 101 30 275 5 116 14 237 20 270
18 95 87 296 120 344 22 34 26 48 18 58 -17 21 -42 15 -72 -16z"/>
<path d="M26963 13298 c-5 -7 -22 -49 -38 -93 -29 -84 -104 -247 -127 -278
-12 -17 -16 -16 -53 12 -49 36 -119 64 -200 81 -33 7 -64 16 -68 20 -19 17 99
33 200 27 111 -6 125 0 82 39 -43 39 -297 24 -367 -22 -67 -44 -26 -82 127
-117 110 -26 196 -61 220 -91 10 -12 11 -26 2 -63 -6 -27 -13 -61 -16 -76 -7
-33 -98 -131 -117 -125 -7 3 -14 20 -16 39 -2 19 -8 39 -13 44 -17 16 -39 -24
-39 -70 0 -48 31 -85 70 -85 75 0 200 167 200 268 0 12 16 55 36 94 l36 71
125 -6 c69 -3 127 -7 129 -9 1 -2 -2 -34 -9 -71 l-11 -67 39 -40 c63 -65 216
-101 282 -67 34 18 67 66 77 112 15 71 73 210 101 241 17 18 52 42 80 52 56
22 65 36 35 52 -31 17 -107 -4 -143 -38 -35 -33 -76 -113 -107 -207 -29 -90
-55 -141 -75 -149 -45 -17 -164 6 -202 38 -31 27 -33 69 -6 123 15 29 28 39
78 55 66 22 125 70 125 103 0 12 -11 32 -24 44 -45 42 -98 19 -178 -77 -25
-31 -29 -32 -100 -31 -40 1 -96 4 -125 7 l-51 7 34 75 c19 41 43 93 53 116 13
28 16 45 9 57 -11 20 -41 22 -55 5z"/>
<path d="M7235 13264 c-179 -32 -257 -70 -239 -118 8 -20 53 -21 60 -2 9 23
73 44 200 66 132 23 173 24 227 9 78 -21 64 -60 -77 -208 -167 -175 -190 -240
-99 -278 63 -26 124 -15 470 82 94 27 138 46 138 60 0 23 -73 13 -280 -40
-224 -56 -301 -67 -311 -41 -9 24 15 56 131 176 125 128 135 143 135 195 0 98
-141 137 -355 99z"/>
<path d="M26272 13248 c-17 -17 -15 -45 4 -52 9 -3 36 -6 60 -6 50 0 58 16 22
50 -24 22 -68 26 -86 8z"/>
<path d="M8501 13226 c-31 -33 -91 -302 -82 -371 3 -25 37 -55 62 -55 10 0 40
14 66 30 55 35 131 60 182 60 51 0 113 -19 108 -33 -8 -24 -114 -77 -184 -93
-62 -14 -80 -14 -123 -3 -80 21 -84 -13 -5 -51 40 -19 57 -22 112 -17 71 7
188 57 236 101 61 57 15 126 -98 147 -75 14 -135 5 -207 -32 -61 -31 -98 -37
-98 -16 0 36 71 263 90 289 17 23 20 35 13 47 -16 25 -47 24 -72 -3z"/>
<path d="M6863 12993 c6 -267 20 -333 69 -333 18 0 19 5 14 43 -3 23 -9 139
-11 257 -3 118 -8 225 -11 238 -3 17 -11 22 -35 22 l-32 0 6 -227z"/>
<path d="M21945 13196 c-73 -19 -95 -30 -142 -70 -61 -53 -93 -124 -93 -207 0
-58 4 -72 26 -98 45 -54 157 -67 267 -30 65 22 97 43 97 66 0 18 -35 17 -101
-4 -30 -9 -87 -17 -127 -17 -87 -1 -102 11 -102 83 1 92 77 186 173 212 39 11
119 14 192 7 22 -2 30 2 33 15 3 12 -9 23 -40 37 -49 22 -110 24 -183 6z"/>
<path d="M9576 13175 c-3 -9 -6 -32 -6 -51 0 -33 -1 -34 -43 -34 -23 0 -53 -7
-65 -16 -18 -13 -20 -19 -11 -36 9 -17 18 -19 50 -15 54 7 60 -5 39 -93 -33
-139 -41 -213 -24 -230 25 -25 48 0 56 61 20 141 42 241 57 247 8 3 46 -3 85
-13 91 -23 206 -32 206 -16 0 15 -30 26 -162 61 -59 15 -112 31 -118 35 -6 4
-9 29 -8 58 3 49 2 52 -23 55 -17 2 -29 -3 -33 -13z"/>
<path d="M21072 13169 c-51 -16 -75 -32 -120 -77 -47 -47 -63 -57 -91 -57 -42
0 -42 -3 -70 -195 -49 -339 -49 -345 -19 -363 24 -16 48 8 48 49 0 53 30 256
41 276 7 13 17 17 29 13 32 -10 131 13 208 50 86 41 166 117 183 175 16 54 -4
106 -51 131 -44 24 -78 23 -158 -2z m143 -55 c9 -9 14 -23 11 -31 -3 -8 -6
-19 -6 -23 0 -16 -62 -80 -107 -112 -81 -55 -211 -95 -227 -70 -10 16 45 117
87 160 60 62 116 89 189 91 21 1 43 -6 53 -15z"/>
<path d="M21467 13178 c-2 -7 0 -24 5 -38 5 -14 8 -79 7 -145 -5 -275 -7 -250
21 -250 24 0 25 3 38 105 16 133 8 296 -15 322 -19 21 -49 24 -56 6z"/>
<path d="M27970 13183 c-59 -5 -124 -24 -142 -40 -57 -51 13 -104 167 -128
190 -30 245 -44 245 -64 0 -19 -58 -67 -172 -142 -149 -97 -189 -116 -278
-135 -91 -19 -120 -30 -120 -49 0 -39 142 -30 239 15 98 46 316 186 350 226
38 43 40 82 6 122 -34 40 -84 59 -225 81 -158 26 -173 35 -84 51 87 15 193 3
281 -32 62 -25 91 -23 80 6 -20 51 -213 100 -347 89z"/>
<path d="M25135 13164 c-16 -8 -39 -24 -51 -35 -26 -24 -36 -24 -59 1 -25 27
-77 35 -133 19 -54 -15 -133 -88 -168 -154 -12 -22 -37 -69 -57 -105 -19 -36
-43 -91 -52 -123 -16 -55 -16 -59 1 -78 23 -25 28 -24 59 8 18 20 25 39 25 68
0 41 67 186 116 252 31 41 80 71 129 78 34 6 43 3 64 -19 22 -23 23 -28 12
-70 -18 -73 -14 -176 9 -213 38 -63 150 -99 259 -83 70 10 97 25 81 45 -7 8
-48 14 -113 17 -151 6 -197 36 -197 128 0 38 9 42 39 20 62 -43 132 -37 190
16 48 42 65 83 57 128 -18 93 -126 145 -211 100z m137 -71 c50 -45 -17 -133
-102 -133 -33 0 -80 37 -80 63 0 23 41 68 74 83 36 16 82 11 108 -13z"/>
<path d="M22332 13153 c-72 -35 -138 -144 -157 -255 -4 -29 -1 -42 15 -58 57
-57 152 9 210 145 11 26 24 43 30 40 6 -4 23 -34 39 -68 15 -34 34 -67 42 -73
36 -28 99 -22 99 11 0 7 -17 22 -37 32 -50 25 -96 111 -88 167 8 54 -14 76
-74 76 -25 0 -61 -8 -79 -17z m53 -75 c-22 -71 -101 -178 -131 -178 -32 0 5
108 56 161 42 45 86 54 75 17z"/>
<path d="M26152 13128 c-6 -7 -15 -40 -21 -73 -6 -33 -25 -106 -42 -162 -34
-108 -33 -136 3 -131 19 2 28 18 50 83 26 74 48 156 63 231 9 45 -28 81 -53
52z"/>
<path d="M25621 13103 c-75 -39 -128 -88 -156 -144 -42 -81 -31 -139 30 -165
69 -28 154 -9 265 61 32 19 57 29 59 23 2 -6 -19 -81 -47 -167 -28 -86 -65
-203 -82 -259 -30 -99 -32 -104 -55 -98 -28 7 -39 -8 -49 -70 -8 -45 12 -78
42 -72 39 8 100 146 177 403 25 82 60 190 79 240 46 121 49 140 30 159 -23 24
-31 21 -93 -36 -73 -67 -187 -121 -258 -122 -70 -1 -80 11 -54 62 38 74 171
156 237 145 41 -7 56 17 29 47 -26 29 -89 26 -154 -7z"/>
<path d="M9078 13063 c0 -5 -2 -51 -3 -103 0 -56 -8 -117 -18 -148 -9 -29 -14
-59 -10 -67 7 -19 37 -19 53 0 19 23 39 132 40 216 0 61 -4 79 -18 92 -19 18
-41 22 -44 10z"/>
<path d="M23419 13043 c-14 -35 -24 -173 -15 -207 8 -32 52 -56 103 -56 45 0
103 31 178 95 29 25 55 42 58 38 3 -4 -6 -42 -19 -83 -44 -138 -84 -284 -127
-460 -42 -175 -42 -175 -72 -180 -28 -5 -30 -8 -30 -49 0 -50 22 -74 52 -55
30 19 54 80 98 251 24 93 73 265 109 385 73 243 84 301 66 323 -22 26 -46 16
-84 -32 -46 -59 -118 -120 -171 -144 -49 -23 -101 -25 -109 -4 -6 17 7 95 24
139 15 39 4 66 -26 66 -17 0 -28 -8 -35 -27z"/>
<path d="M10037 12955 c-129 -26 -188 -70 -173 -128 9 -39 65 -67 260 -132 99
-33 181 -65 183 -71 6 -18 -104 -70 -209 -99 -109 -31 -134 -48 -103 -72 26
-19 83 -11 202 28 105 34 152 63 171 102 34 70 -35 113 -317 196 -115 34 -137
46 -121 67 26 30 104 46 245 49 116 3 142 6 150 20 8 12 4 21 -14 36 -19 16
-38 19 -115 18 -50 0 -122 -7 -159 -14z"/>
<path d="M5122 11740 c-171 -45 -279 -128 -316 -246 -37 -117 -35 -322 4 -370
16 -18 44 -18 59 0 9 11 7 29 -9 80 -20 59 -21 74 -11 166 15 158 59 226 179
281 142 66 299 78 334 25 16 -24 7 -63 -19 -88 -34 -32 -137 -84 -285 -144
-62 -25 -120 -52 -128 -60 -13 -12 -12 -16 5 -34 36 -35 456 -169 491 -156 26
10 15 33 -23 49 -21 9 -111 39 -201 68 -91 30 -161 57 -159 63 2 6 39 25 83
42 43 18 98 40 121 49 75 30 163 93 177 126 17 40 6 92 -25 125 -44 47 -152
57 -277 24z"/>
<path d="M5862 11708 c-13 -16 -33 -201 -30 -275 1 -29 -1 -55 -5 -59 -4 -4
-29 -2 -56 5 -85 21 -162 -16 -190 -92 -23 -59 31 -103 112 -93 128 16 183 32
230 64 57 40 64 67 14 59 -56 -9 -57 -5 -40 148 8 77 16 165 16 195 2 49 0 55
-19 58 -11 2 -26 -3 -32 -10z m-76 -402 c28 -21 12 -30 -61 -34 -71 -5 -84 7
-37 32 35 19 73 20 98 2z"/>
<path d="M7390 11701 c-104 -32 -165 -112 -189 -248 -14 -78 -34 -419 -26
-444 5 -16 14 -19 38 -17 l32 3 -4 141 c-2 109 0 143 10 149 8 6 17 2 23 -11
23 -41 124 -131 182 -161 74 -39 241 -96 260 -89 24 9 16 35 -16 51 -16 8 -62
27 -102 41 -120 43 -262 134 -270 173 -2 10 25 18 106 32 119 21 217 59 247
97 42 54 8 155 -80 234 -62 56 -134 72 -211 49z m162 -75 c20 -15 49 -51 64
-80 24 -46 26 -58 17 -79 -15 -33 -84 -65 -180 -83 -43 -8 -104 -21 -136 -28
-72 -16 -75 -11 -58 81 27 150 100 227 207 220 36 -2 61 -11 86 -31z"/>
<path d="M10770 11536 c-156 -45 -236 -135 -265 -301 -5 -30 -8 -279 -5 -463
0 -9 11 -12 31 -10 28 3 34 8 46 48 8 26 14 90 15 150 0 88 -3 111 -20 145
-20 38 -21 43 -7 108 30 142 79 209 179 243 62 21 107 12 157 -33 41 -38 73
-97 65 -120 -9 -22 -56 -35 -163 -43 -119 -9 -165 -28 -196 -81 -19 -32 -20
-41 -9 -76 25 -83 141 -222 219 -262 50 -25 115 -28 134 -5 11 14 10 18 -6 30
-10 8 -28 14 -38 14 -34 0 -84 38 -162 123 -74 81 -101 135 -78 158 5 5 59 14
119 19 172 15 254 54 254 122 0 77 -65 190 -129 222 -42 21 -93 26 -141 12z"/>
<path d="M11276 11511 c-22 -25 -34 -67 -41 -154 -11 -130 -37 -322 -46 -331
-5 -6 -9 -23 -9 -39 0 -59 136 -152 266 -183 173 -40 364 30 364 135 0 67 -28
128 -78 171 -117 101 -275 86 -402 -39 -29 -29 -57 -48 -61 -44 -5 5 3 65 16
133 62 319 64 333 54 352 -13 23 -41 23 -63 -1z m350 -445 c64 -29 98 -75 89
-121 -10 -52 -26 -60 -128 -60 -74 0 -109 6 -180 29 -49 16 -91 34 -93 41 -8
20 68 96 121 122 60 29 111 26 191 -11z"/>
<path d="M18320 11478 c-49 -53 7 -105 68 -62 12 8 22 21 22 28 0 17 -38 56
-55 56 -8 0 -23 -10 -35 -22z"/>
<path d="M25528 11401 c-73 -29 -111 -56 -178 -128 -72 -76 -122 -174 -141
-273 -7 -36 -21 -76 -31 -89 -25 -33 -23 -66 6 -84 14 -9 26 -30 30 -50 7 -39
47 -87 71 -87 28 0 29 32 2 79 -14 26 -27 64 -29 86 -3 34 0 41 24 52 32 16
150 31 277 35 l94 3 22 -73 c13 -39 34 -87 48 -105 53 -70 212 -128 291 -106
58 16 45 59 -18 59 -43 0 -141 31 -172 55 -58 44 -108 152 -80 173 6 5 37 12
70 16 114 13 147 58 90 125 -34 41 -89 57 -137 42 -37 -13 -97 -71 -97 -96 0
-24 -19 -28 -133 -31 -60 -2 -134 -8 -165 -14 -31 -5 -67 -10 -80 -10 -21 0
-23 3 -18 28 38 156 212 329 349 348 32 5 58 0 109 -21 76 -30 113 -30 113 0
0 14 -18 29 -63 52 -55 29 -73 33 -135 33 -45 -1 -90 -8 -119 -19z m316 -350
c21 -24 12 -30 -54 -38 -55 -6 -64 5 -33 39 21 23 65 23 87 -1z"/>
<path d="M8112 11385 c-94 -26 -143 -70 -189 -171 -73 -161 2 -222 152 -124
35 23 78 60 97 83 113 140 112 140 233 12 50 -53 104 -104 120 -115 35 -23 75
-26 75 -6 0 19 -244 265 -296 300 -51 33 -120 41 -192 21z m118 -52 c0 -17
-142 -163 -187 -192 -57 -38 -83 -40 -83 -7 0 66 69 159 140 190 36 16 130 22
130 9z"/>
<path d="M21345 11368 c-48 -38 -105 -176 -120 -295 -4 -29 -10 -55 -15 -58
-4 -3 -24 15 -44 39 -40 49 -106 86 -153 86 -43 0 -94 -38 -120 -90 -32 -61
-31 -140 2 -227 42 -111 110 -163 197 -149 69 11 182 65 206 99 21 31 21 31 2
52 -40 42 -42 68 -15 186 32 141 48 189 91 267 19 34 34 71 34 81 0 27 -36 32
-65 9z m-259 -330 c69 -47 115 -133 112 -208 -3 -52 -5 -56 -38 -72 -43 -21
-119 -23 -146 -3 -36 24 -67 112 -68 190 -2 125 45 157 140 93z"/>
<path d="M30613 11350 c-28 -12 -70 -84 -88 -154 -20 -76 -41 -115 -68 -125
-12 -5 -31 -18 -41 -30 -18 -20 -18 -22 -3 -39 10 -10 17 -25 17 -33 -1 -23
-26 -49 -47 -49 -10 0 -29 -13 -40 -29 -35 -46 -156 -65 -180 -28 -5 7 -10 54
-13 106 -4 70 -9 96 -20 101 -8 4 -43 21 -76 39 -146 75 -312 11 -342 -133
-14 -67 0 -100 52 -131 74 -43 171 -32 242 28 43 37 56 34 79 -15 32 -68 100
-92 187 -66 31 9 44 9 60 -1 10 -6 28 -9 38 -6 22 7 88 92 144 188 47 80 68
91 151 83 54 -6 195 -54 195 -67 0 -4 -24 -15 -53 -23 -60 -17 -107 -55 -107
-85 0 -10 14 -31 32 -46 46 -39 107 -32 188 23 34 22 67 39 75 36 15 -6 25
-36 25 -81 0 -46 38 -204 56 -230 15 -23 48 -31 59 -14 3 5 -1 65 -9 133 -8
68 -18 161 -22 208 -3 47 -10 93 -15 103 -12 21 -58 23 -85 2 -10 -8 -25 -15
-33 -15 -8 0 -66 25 -129 56 -92 45 -127 58 -178 62 -40 3 -64 9 -64 17 0 6
23 49 50 95 28 46 50 87 50 91 0 14 -31 39 -48 38 -9 0 -27 -4 -39 -9z m-595
-300 c17 -11 32 -23 32 -28 0 -25 -56 -83 -102 -106 -130 -65 -231 3 -147 99
49 56 154 73 217 35z m832 -160 c-8 -5 -24 -10 -35 -10 -17 0 -17 2 -5 10 8 5
24 10 35 10 17 0 17 -2 5 -10z"/>
<path d="M22588 11323 c-39 -42 -60 -90 -77 -177 -16 -76 -17 -79 -51 -90 -46
-15 -50 -40 -10 -61 21 -11 29 -21 26 -33 -3 -9 -15 -63 -27 -120 -21 -95 -22
-103 -7 -119 28 -27 43 -2 68 109 12 57 26 107 30 111 5 6 114 -8 227 -29 14
-3 30 -19 42 -42 23 -45 85 -103 138 -130 70 -36 207 -73 293 -79 74 -5 87 -3
100 12 13 15 12 19 -3 30 -10 7 -41 15 -70 19 -145 19 -288 73 -349 133 -21
21 -38 40 -38 44 0 4 54 8 120 11 101 3 124 7 147 25 79 58 7 179 -121 205
-113 22 -219 -27 -250 -117 -12 -37 -16 -40 -47 -37 -57 4 -135 22 -153 35
-15 11 -15 18 8 89 13 42 38 104 55 138 36 71 35 64 15 84 -22 23 -37 20 -66
-11z m461 -257 c35 -19 67 -64 53 -78 -12 -12 -190 -23 -226 -14 -21 5 -26 12
-26 36 0 23 7 35 33 50 39 24 125 27 166 6z"/>
<path d="M29810 11329 c-13 -6 -33 -18 -43 -27 -31 -27 -195 -284 -248 -387
-19 -36 -38 -63 -44 -62 -5 2 -30 39 -55 82 -60 106 -107 140 -193 140 -49 0
-69 -5 -96 -24 -89 -64 -77 -188 28 -276 58 -47 83 -60 172 -85 115 -32 289
-26 289 10 0 14 -69 30 -130 30 -152 1 -309 77 -347 169 -18 43 -3 84 38 101
61 26 134 -16 189 -109 48 -80 91 -124 116 -119 11 2 27 20 37 41 26 55 116
193 196 300 61 81 113 134 157 160 22 13 16 43 -11 55 -14 7 -27 12 -28 11 -1
0 -13 -5 -27 -10z"/>
<path d="M27813 11304 c-20 -14 -23 -25 -23 -80 0 -34 -4 -74 -10 -88 -8 -23
-15 -26 -54 -26 -54 0 -81 -24 -51 -46 10 -8 31 -14 46 -14 15 0 30 -4 33 -8
3 -5 -2 -33 -10 -63 -27 -93 -37 -155 -30 -183 5 -22 12 -27 34 -24 25 3 28 7
34 64 5 33 18 94 31 135 l24 74 54 3 c60 4 208 -15 230 -28 11 -8 12 -13 1
-27 -62 -87 -72 -124 -48 -175 40 -83 185 -121 315 -82 73 21 101 51 101 106
0 24 -9 61 -19 84 -47 104 -206 169 -206 83 0 -19 7 -25 37 -32 61 -14 132
-107 115 -151 -6 -15 -80 -36 -130 -36 -18 0 -57 7 -85 15 -84 25 -93 68 -32
146 22 28 40 57 40 65 0 45 -96 82 -237 91 -50 3 -97 9 -103 13 -9 5 -6 26 10
79 27 93 24 115 -15 118 -16 1 -40 -5 -52 -13z"/>
<path d="M21609 11291 c-21 -18 -22 -21 -9 -34 24 -24 113 -67 137 -67 49 0
36 36 -32 90 -44 35 -64 37 -96 11z"/>
<path d="M26555 11201 c-57 -27 -127 -103 -214 -233 -67 -99 -80 -113 -111
-119 -44 -9 -62 -34 -58 -84 3 -38 4 -40 41 -43 49 -4 71 19 176 186 94 150
178 247 233 269 21 8 37 21 35 27 -6 19 -60 17 -102 -3z"/>
<path d="M21985 11186 c-15 -15 -25 -37 -25 -54 0 -23 -9 -34 -48 -60 -68 -44
-128 -112 -163 -185 -57 -120 -30 -179 66 -143 55 22 96 69 131 155 15 36 31
70 35 75 16 18 35 -14 64 -109 18 -58 41 -110 59 -131 26 -32 32 -35 75 -32
60 4 69 31 18 53 -18 7 -39 20 -45 27 -16 20 -71 221 -83 303 -12 91 -17 103
-40 115 -15 9 -24 6 -44 -14z m-45 -202 c0 -30 -26 -71 -84 -131 -38 -41 -66
-55 -66 -33 0 40 110 190 138 190 7 0 12 -12 12 -26z"/>
<path d="M26791 11155 c-58 -13 -132 -52 -148 -78 -12 -20 49 -56 149 -87 181
-56 278 -116 278 -173 0 -31 -89 -111 -145 -131 -68 -23 -93 -21 -97 6 -4 29
-37 36 -55 12 -19 -27 -16 -68 8 -90 53 -48 230 7 324 100 42 43 45 49 45 100
0 48 -4 60 -32 91 -38 44 -102 78 -233 122 -55 18 -107 36 -115 39 -12 4 -11
8 5 17 13 8 79 12 188 13 94 1 173 6 178 11 14 14 -1 43 -28 54 -36 14 -249 9
-322 -6z"/>
<path d="M18966 11147 c-11 -8 -23 -45 -36 -107 -38 -196 -73 -319 -101 -349
-37 -39 -43 -30 -79 111 -12 45 -25 117 -30 161 -5 43 -15 85 -21 93 -15 18
-43 18 -59 -1 -16 -20 0 -113 47 -260 39 -125 61 -174 84 -188 38 -24 106 22
135 92 8 18 26 96 41 173 14 76 31 137 36 135 6 -2 29 -61 52 -131 23 -70 48
-132 56 -137 48 -30 101 20 174 166 55 110 78 135 89 98 9 -32 25 -137 36
-243 13 -120 21 -140 55 -140 31 0 39 15 26 48 -5 15 -15 86 -21 157 -20 240
-40 305 -95 305 -31 0 -53 -29 -124 -169 -63 -124 -96 -166 -111 -142 -7 12
-31 97 -71 252 -9 36 -44 89 -58 89 -4 0 -15 -6 -25 -13z"/>
<path d="M20459 11127 c-72 -37 -122 -94 -140 -160 -16 -60 -5 -201 20 -261
50 -115 102 -150 226 -150 73 -1 86 3 151 36 90 46 184 131 167 149 -9 9 -26
3 -80 -29 -127 -77 -177 -95 -249 -90 -102 6 -152 60 -175 188 -22 126 17 216
114 265 79 39 148 32 189 -19 27 -33 22 -68 -14 -103 -73 -69 -162 -92 -204
-52 -25 24 -44 18 -44 -12 0 -47 45 -79 109 -79 42 0 145 55 189 101 60 62 68
134 20 194 -32 41 -70 55 -147 55 -59 0 -79 -5 -132 -33z"/>
<path d="M19679 11109 c-7 -15 -10 -87 -7 -229 3 -221 7 -240 53 -240 35 0 62
42 91 139 47 159 57 166 68 44 12 -137 35 -170 97 -138 27 14 42 41 103 179
36 82 49 65 57 -75 7 -115 20 -148 53 -136 12 5 14 21 11 94 -16 306 -19 327
-58 339 -30 9 -52 -22 -81 -114 -26 -83 -61 -160 -90 -197 -26 -34 -36 -1 -36
128 0 132 -15 187 -49 187 -29 0 -45 -31 -76 -155 -28 -113 -58 -185 -75 -185
-10 0 -4 296 6 328 6 21 -15 52 -36 52 -11 0 -24 -10 -31 -21z"/>
<path d="M24403 11106 c-57 -48 -138 -246 -162 -396 -21 -128 -10 -177 36
-168 15 3 19 18 26 98 13 159 97 410 138 410 10 0 35 -21 56 -47 20 -27 54
-67 75 -90 30 -34 38 -51 38 -81 0 -135 86 -232 233 -262 109 -22 262 21 205
57 -7 4 -58 8 -113 8 -86 0 -107 3 -150 25 -50 25 -90 71 -101 117 -9 36 1 38
64 18 125 -40 240 -5 267 83 10 36 -14 129 -43 164 -51 61 -160 86 -235 55
-31 -14 -100 -81 -109 -107 -8 -24 -37 -2 -73 54 -57 90 -99 107 -152 62z
m482 -85 c79 -45 72 -156 -11 -177 -63 -16 -194 37 -194 78 0 39 38 88 83 109
45 21 73 18 122 -10z"/>
<path d="M21555 11054 c-26 -28 -39 -63 -81 -214 -36 -131 -36 -154 -3 -158
25 -3 29 2 53 70 52 145 84 234 97 265 10 26 10 34 0 47 -19 23 -38 20 -66
-10z"/>
<path d="M18462 11042 c-13 -13 -19 -35 -20 -69 -2 -51 32 -310 48 -373 5 -19
17 -64 25 -100 19 -77 38 -110 66 -110 30 0 34 27 12 68 -34 61 -65 258 -68
424 -3 173 -16 207 -63 160z"/>
<path d="M431 10882 c-25 -49 -36 -93 -65 -253 -31 -172 -38 -246 -51 -584 -3
-71 -9 -184 -15 -250 -16 -215 -21 -325 -25 -643 -2 -172 -6 -316 -9 -320 -2
-4 -7 -112 -10 -240 -8 -276 -9 -274 80 -292 60 -13 123 -10 319 15 171 22
474 43 770 55 149 6 351 15 450 20 278 15 869 39 1190 49 162 6 1044 8 1995 5
1686 -4 1705 -5 1719 -24 17 -25 64 -26 82 -2 13 17 37 18 464 10 1101 -18
1773 -59 2639 -158 144 -17 324 -37 401 -46 77 -8 298 -38 490 -65 193 -28
382 -54 420 -59 39 -4 144 -17 235 -29 188 -23 292 -34 615 -61 127 -11 284
-24 350 -30 66 -6 176 -15 245 -20 69 -5 143 -12 165 -15 85 -10 797 -56 1090
-70 123 -6 357 -27 455 -41 38 -5 48 -3 64 15 18 20 18 22 -3 73 -23 58 -53
184 -70 293 -18 120 -46 564 -56 895 -10 339 -22 466 -80 870 -8 58 -26 200
-40 315 -43 349 -43 351 -220 349 -87 -1 -143 -9 -270 -37 -88 -20 -219 -43
-290 -52 -72 -8 -155 -19 -185 -25 -35 -7 -255 -10 -595 -9 -297 1 -682 1
-856 0 -174 -1 -467 2 -650 8 -184 6 -471 13 -639 16 -278 6 -454 12 -913 31
l-159 7 -32 35 c-38 39 -69 38 -89 -5 l-11 -25 -131 6 c-71 4 -267 11 -435 16
-438 15 -1199 57 -1800 100 -151 10 -307 21 -347 22 -58 3 -77 8 -96 26 -29
27 -41 28 -68 1 -17 -17 -29 -20 -62 -15 -65 9 -381 27 -638 35 -361 12 -2154
1 -2307 -15 -21 -2 -291 -4 -602 -4 -525 0 -753 5 -1328 30 -122 6 -277 10
-345 10 -167 0 -224 8 -230 31 -6 22 -6 22 -232 49 -99 12 -190 26 -203 31
-43 17 -61 10 -81 -29z m184 -52 c50 -5 102 -10 118 -10 15 0 27 -4 27 -9 0
-4 -40 -10 -88 -13 -97 -6 -132 -19 -132 -48 0 -31 29 -38 110 -30 106 11 605
1 1495 -30 337 -12 1174 -7 1671 11 198 7 369 9 379 6 16 -7 17 -15 10 -95 -4
-48 -10 -373 -13 -722 -7 -1013 -7 -1060 6 -1135 7 -38 14 -99 17 -135 3 -61
5 -65 29 -68 16 -2 26 2 27 10 2 30 -3 102 -18 263 -12 131 -14 217 -8 375 4
113 9 496 10 852 1 356 4 650 7 653 12 13 1258 17 1533 6 154 -6 354 -14 445
-17 91 -3 175 -7 187 -10 43 -8 49 -25 122 -317 17 -64 32 -121 35 -126 8 -12
55 -290 71 -418 8 -62 19 -208 25 -325 33 -669 35 -693 71 -882 11 -59 17
-111 12 -115 -4 -3 -327 -4 -718 -1 -1999 16 -3088 4 -4090 -45 -170 -9 -422
-20 -560 -25 -336 -13 -535 -26 -750 -51 -99 -11 -211 -19 -250 -17 l-70 3 1
160 c1 148 7 428 19 870 5 168 10 261 20 395 3 30 9 152 15 270 13 261 25 411
45 550 33 219 42 246 79 235 12 -3 62 -10 111 -15z m6057 -160 c128 -16 755
-57 1253 -80 121 -6 283 -15 360 -20 77 -5 347 -14 600 -21 433 -10 461 -12
477 -30 40 -46 78 -323 92 -673 9 -193 13 -218 96 -591 10 -44 24 -93 30 -110
20 -52 50 -208 50 -263 0 -30 11 -86 24 -125 13 -40 29 -112 35 -162 7 -49 21
-110 32 -134 21 -47 24 -78 10 -100 -7 -11 -29 -11 -142 3 -523 63 -1224 102
-2084 117 -462 8 -643 14 -651 22 -29 31 -71 443 -84 822 -10 302 -22 491 -39
610 -34 234 -77 435 -132 622 -28 96 -30 123 -9 123 5 0 42 -4 82 -10z m7460
-130 c10 -21 25 -105 37 -205 12 -93 30 -233 41 -310 68 -482 76 -572 90 -960
6 -148 14 -328 20 -400 6 -71 15 -202 20 -290 11 -177 19 -225 57 -367 15 -54
24 -101 20 -104 -3 -3 -41 -1 -85 5 -43 5 -171 15 -283 21 -740 37 -915 49
-1804 125 -619 53 -811 75 -1559 185 -138 20 -601 73 -746 85 -111 9 -120 12
-119 38 0 12 -4 40 -10 62 -5 22 -17 91 -26 154 -9 62 -20 123 -25 135 -22 60
-30 100 -39 198 -7 66 -29 181 -60 300 -62 245 -100 429 -106 521 -3 40 -10
158 -15 262 -12 209 -22 305 -46 439 -18 95 -13 112 31 102 11 -3 58 -8 105
-11 47 -3 105 -8 130 -10 68 -5 679 -23 1175 -35 685 -16 2290 -23 2354 -11
29 6 106 16 170 22 64 5 152 19 196 29 85 20 214 47 255 54 14 2 66 3 115 2
l90 -1 17 -35z"/>
<path d="M5788 10052 c-24 -5 -23 -24 2 -45 16 -14 20 -29 20 -87 0 -80 -22
-229 -51 -342 -25 -101 -25 -135 2 -143 11 -4 24 -4 27 0 4 4 15 41 25 83 62
271 79 471 44 510 -20 22 -43 30 -69 24z"/>
<path d="M3586 10021 c-21 -23 -39 -86 -71 -256 -36 -182 -51 -212 -75 -140
-31 94 -135 85 -164 -15 -18 -59 -11 -124 18 -165 28 -41 42 -52 106 -81 64
-30 170 -36 262 -14 51 11 60 11 75 -2 49 -43 163 -78 192 -59 23 15 -1 35
-68 60 -93 34 -94 41 -4 98 54 34 84 61 98 87 l20 37 -28 25 c-55 47 -185 20
-227 -48 -12 -21 -20 -51 -20 -80 0 -46 -1 -47 -37 -57 -112 -31 -265 0 -322
65 -50 56 -37 154 20 154 23 0 28 -5 34 -32 21 -110 30 -139 42 -150 34 -28
64 41 133 307 17 66 40 150 52 187 17 55 19 70 8 83 -16 20 -23 19 -44 -4z
m299 -478 c0 -18 -88 -83 -112 -83 -41 0 -24 58 25 85 31 17 87 16 87 -2z"/>
<path d="M1973 9890 c-60 -21 -108 -52 -140 -89 -79 -90 -125 -342 -103 -556
16 -155 51 -203 113 -155 35 27 34 46 -2 64 -20 11 -32 27 -40 58 -15 56 -22
315 -10 364 6 22 14 55 18 74 33 153 190 240 357 197 152 -39 176 -98 67 -164
-83 -50 -154 -74 -235 -80 -67 -5 -80 -3 -113 17 -25 15 -40 19 -47 12 -20
-20 4 -54 56 -78 45 -20 58 -22 111 -15 174 26 355 140 355 224 0 41 -60 98
-133 125 -74 28 -181 29 -254 2z"/>
<path d="M1345 9890 c-11 -5 -36 -9 -56 -9 -56 -1 -119 -48 -151 -112 -45 -89
-58 -128 -64 -199 -7 -74 10 -129 63 -195 57 -71 174 -83 275 -28 62 34 152
114 183 163 94 149 52 318 -93 374 -45 17 -124 20 -157 6z m162 -76 c54 -40
73 -81 73 -154 0 -79 -26 -128 -108 -201 -67 -61 -109 -80 -182 -82 -71 -2
-102 17 -138 82 -41 72 -26 221 25 244 13 5 23 16 23 23 0 26 53 74 103 93 68
27 164 24 204 -5z"/>
<path d="M4874 9876 c-84 -26 -178 -111 -201 -181 -21 -66 -1 -123 61 -169 23
-18 41 -21 109 -20 91 1 146 21 246 87 30 20 57 34 61 32 4 -2 -1 -35 -11 -72
-21 -80 -24 -260 -6 -312 15 -43 40 -60 65 -45 25 16 51 74 52 116 0 34 -2 37
-32 40 l-33 3 2 92 c3 163 47 266 135 317 65 37 123 42 178 14 38 -20 45 -28
48 -57 3 -29 -3 -40 -52 -87 -62 -60 -91 -68 -106 -28 -12 31 -32 27 -44 -9
-13 -36 15 -77 53 -77 74 0 189 91 212 168 10 36 9 45 -8 74 -66 114 -263 111
-372 -6 -14 -14 -28 -26 -32 -26 -5 0 -13 18 -19 40 -14 54 -51 94 -98 108
-51 15 -156 14 -208 -2z m189 -62 c62 -10 84 -63 52 -124 -32 -62 -172 -130
-267 -130 -80 0 -117 29 -118 92 0 67 104 175 160 163 14 -3 32 0 40 5 14 10
37 9 133 -6z"/>
<path d="M2522 9794 c-63 -28 -142 -138 -142 -200 0 -37 36 -86 81 -109 53
-28 244 -8 244 25 0 12 -20 16 -100 20 -109 5 -146 20 -167 65 -8 19 -7 29 5
49 22 32 100 96 119 96 9 0 26 9 39 20 24 20 24 20 5 35 -24 18 -41 18 -84 -1z"/>
<path d="M3041 9723 c-29 -10 -70 -41 -118 -88 -67 -66 -73 -76 -73 -113 0
-53 38 -87 89 -78 64 10 157 62 219 124 52 50 62 65 62 94 0 22 -7 42 -20 53
-27 24 -104 28 -159 8z m119 -58 c28 -34 -144 -155 -219 -155 -39 0 -39 15 -2
68 53 72 189 126 221 87z"/>
<path d="M8483 9858 c-24 -29 3 -40 123 -53 132 -14 180 -28 194 -55 14 -26
-19 -63 -165 -183 -116 -97 -165 -148 -165 -173 0 -7 11 -26 24 -41 l24 -28
134 0 c171 1 395 40 385 68 -5 15 -118 11 -279 -9 -123 -15 -196 -11 -205 13
-8 19 28 55 123 124 102 74 194 171 194 205 0 36 -15 59 -53 82 -69 40 -312
77 -334 50z"/>
<path d="M8044 9665 c-28 -14 -60 -35 -72 -48 -33 -35 -60 -117 -81 -244 -30
-184 -32 -208 -22 -236 11 -28 47 -45 63 -29 5 5 11 65 13 133 3 133 25 252
57 309 45 83 160 114 247 68 24 -13 50 -33 58 -45 12 -18 11 -24 -13 -52 -27
-32 -95 -71 -167 -97 -36 -13 -42 -12 -58 2 -22 20 -49 12 -49 -14 0 -63 93
-67 212 -9 153 75 183 140 100 220 -50 48 -98 67 -175 67 -47 0 -76 -6 -113
-25z"/>
<path d="M7521 9605 c-18 -8 -48 -15 -65 -15 -41 0 -115 -38 -140 -72 -11 -16
-21 -49 -24 -81 -6 -75 13 -108 83 -142 51 -25 62 -27 148 -23 141 7 253 60
291 137 17 35 -4 108 -42 146 -59 61 -174 83 -251 50z m131 -39 c56 -12 126
-96 113 -136 -20 -64 -272 -128 -348 -89 -68 35 -82 79 -47 137 43 71 147 78
206 14 27 -30 34 -33 53 -23 28 15 27 24 -9 64 -28 33 -31 50 -7 42 7 -2 24
-6 39 -9z"/>
<path d="M11838 9680 c-27 -16 -22 -35 18 -69 39 -35 54 -36 69 -3 8 18 15 21
45 16 119 -19 228 -48 256 -68 16 -12 5 -17 -89 -46 -62 -19 -118 -43 -132
-56 -54 -50 -22 -119 116 -247 51 -48 79 -81 76 -90 -10 -27 -129 -40 -294
-34 -142 6 -154 5 -151 -11 8 -41 134 -67 289 -58 170 10 251 44 233 98 -4 12
-58 75 -120 140 -63 64 -114 123 -114 131 0 26 35 45 145 77 119 35 135 43
135 71 0 21 -65 68 -129 93 -110 43 -321 76 -353 56z"/>
<path d="M10485 9487 c-129 -34 -164 -51 -178 -87 -14 -37 -27 -38 -55 -5 -18
21 -26 24 -42 15 -40 -21 -14 -81 43 -98 67 -21 130 -22 317 -7 206 16 230 20
273 42 59 30 15 106 -81 137 -84 28 -176 29 -277 3z m274 -61 c18 -10 31 -22
28 -29 -6 -20 -60 -27 -241 -29 -137 -2 -180 0 -183 10 -6 16 51 40 137 58 83
17 215 12 259 -10z"/>
<path d="M11277 9442 c-64 -23 -112 -63 -154 -131 -20 -31 -58 -89 -85 -129
-51 -76 -55 -91 -36 -110 32 -32 71 6 130 123 57 115 89 143 102 92 8 -35 64
-86 102 -93 80 -15 194 44 224 115 17 42 -12 97 -66 125 -52 28 -153 31 -217
8z m164 -43 c48 -16 63 -33 55 -63 -7 -28 -73 -72 -122 -82 -36 -7 -84 28
-104 76 -16 39 -8 48 57 66 61 16 73 16 114 3z"/>
<path d="M19745 10147 c-33 -79 -53 -448 -32 -592 14 -95 14 -101 -4 -118 -11
-10 -19 -25 -19 -33 0 -21 28 -74 54 -102 121 -134 441 -55 553 135 14 24 28
43 33 43 4 0 10 -21 14 -47 18 -132 98 -192 199 -150 30 13 88 71 113 113 16
25 23 16 65 -81 52 -123 132 -194 169 -150 15 18 8 29 -29 44 -22 10 -37 30
-64 89 -50 109 -84 216 -94 296 -9 79 -29 102 -61 73 -17 -16 -21 -16 -50 -2
-28 14 -35 14 -87 -4 -68 -24 -119 -61 -140 -102 -21 -39 -31 -37 -39 11 -5
31 -19 54 -59 95 -45 46 -59 54 -102 61 -102 15 -209 -30 -265 -112 -14 -20
-41 -66 -60 -102 -19 -36 -39 -65 -45 -64 -15 2 -27 162 -22 292 3 63 15 181
27 262 13 81 20 154 17 162 -4 9 -18 16 -32 16 -20 0 -29 -8 -40 -33z m445
-519 c54 -28 87 -80 76 -122 -16 -66 -133 -156 -241 -185 -58 -16 -167 -14
-191 3 -18 14 -18 17 24 101 55 111 115 193 155 211 50 21 126 17 177 -8z
m444 -69 c15 -93 -64 -219 -136 -219 -43 0 -72 23 -87 69 -32 99 11 162 124
182 87 15 92 13 99 -32z"/>
<path d="M22699 9993 c-40 -34 -70 -101 -97 -218 -24 -100 -52 -296 -52 -362
0 -23 -5 -45 -11 -48 -6 -4 -41 23 -79 59 -69 66 -102 80 -128 54 -35 -35 10
-98 142 -200 103 -80 168 -113 242 -123 67 -9 134 9 134 35 0 16 -10 19 -67
25 -97 9 -115 13 -151 35 -29 18 -32 24 -32 69 0 60 21 183 62 361 36 159 60
230 94 269 28 34 29 35 8 55 -21 21 -27 20 -65 -11z"/>
<path d="M21182 9948 c-33 -42 -53 -107 -67 -215 -8 -65 -25 -193 -37 -284
-12 -91 -18 -173 -15 -182 8 -21 40 -22 57 -2 6 8 23 56 36 106 26 102 67 183
107 213 37 28 44 14 13 -27 -49 -64 -69 -157 -45 -210 6 -14 29 -35 51 -47 36
-20 50 -22 137 -17 101 5 213 34 251 65 20 16 21 19 6 31 -14 12 -31 11 -114
-7 -124 -28 -206 -29 -249 -2 -28 17 -33 26 -33 58 0 80 96 161 252 211 74 25
87 42 57 72 -19 19 -29 21 -83 15 -139 -15 -219 -54 -298 -146 -24 -28 -47
-50 -52 -50 -5 0 -6 15 -3 33 33 188 51 265 67 298 23 44 25 70 8 87 -15 15
-33 15 -46 0z"/>
<path d="M23625 9895 c-36 -19 -55 -42 -55 -67 0 -22 33 -24 70 -5 14 7 46 21
73 31 26 10 47 21 47 25 0 32 -84 42 -135 16z"/>
<path d="M28467 9896 c-48 -17 -67 -34 -82 -70 -18 -42 -9 -56 34 -56 42 0 68
16 73 44 2 12 17 24 37 31 39 13 48 27 29 42 -24 19 -53 22 -91 9z"/>
<path d="M26282 9847 c-21 -22 -31 -77 -47 -270 -7 -76 -8 -79 -41 -99 -41
-24 -43 -42 -6 -61 15 -7 26 -18 26 -23 -1 -5 -9 -57 -19 -116 -14 -84 -16
-113 -7 -133 11 -24 45 -34 56 -17 3 5 16 70 30 146 14 76 30 144 36 151 7 8
45 16 98 20 127 9 300 41 329 60 23 15 24 19 10 32 -13 14 -27 14 -126 -1 -61
-9 -152 -19 -203 -23 l-91 -6 7 54 c25 198 35 293 30 300 -10 17 -61 9 -82
-14z"/>
<path d="M24798 9773 c-27 -32 -27 -39 -8 -102 11 -35 20 -82 20 -105 l0 -42
-55 -18 c-66 -20 -84 -45 -60 -82 20 -31 42 -31 57 1 9 20 18 25 37 23 l26 -3
-3 -110 c-3 -136 1 -155 32 -155 19 0 26 8 34 43 6 23 11 80 11 126 0 52 4 87
11 91 15 9 107 -8 142 -26 33 -17 35 -41 12 -105 -31 -88 9 -153 94 -152 94 1
214 99 227 185 19 126 -71 227 -204 228 -50 0 -57 -3 -92 -40 l-38 -40 -66 14
c-36 8 -69 16 -72 20 -3 3 -5 37 -4 75 3 110 -26 191 -69 191 -9 0 -24 -8 -32
-17z m430 -313 c45 -32 59 -52 62 -90 4 -42 1 -49 -35 -89 -46 -51 -87 -66
-114 -43 -18 15 -19 22 -11 57 13 53 12 112 0 136 -15 26 4 59 34 59 13 0 41
-13 64 -30z"/>
<path d="M21904 9716 c-40 -18 -102 -72 -119 -106 -27 -52 -34 -137 -18 -214
32 -156 99 -216 238 -216 81 0 198 43 239 89 17 19 18 21 1 27 -9 4 -53 -6
-98 -22 -103 -36 -192 -39 -233 -8 -44 32 -66 69 -68 110 -1 36 1 38 37 46 80
17 171 80 203 140 25 48 18 86 -25 129 -33 34 -45 39 -82 39 -24 -1 -58 -7
-75 -14z m80 -76 c14 -5 30 -18 36 -29 9 -17 5 -27 -25 -60 -38 -42 -107 -81
-143 -81 -18 0 -22 6 -22 30 0 69 57 150 107 150 12 0 33 -4 47 -10z"/>
<path d="M29947 9698 c-30 -11 -33 -20 -43 -133 -6 -79 -7 -81 -53 -127 -53
-53 -76 -90 -68 -111 3 -9 28 -17 64 -21 67 -8 70 -6 114 98 21 51 31 63 60
73 43 15 124 16 151 2 29 -16 48 -70 48 -138 0 -49 4 -62 21 -74 25 -18 51
-12 80 19 35 38 61 31 87 -21 23 -47 53 -68 115 -79 53 -10 125 31 177 101 23
29 46 53 52 53 6 0 34 -18 62 -39 28 -22 74 -49 101 -62 64 -27 182 -37 209
-16 29 21 13 33 -66 51 -75 17 -148 53 -207 103 -27 23 -34 36 -35 68 l-1 40
85 5 c78 5 85 7 88 27 9 64 -208 69 -258 6 -14 -18 -20 -41 -20 -74 0 -47 -3
-52 -69 -119 -55 -56 -74 -70 -98 -70 -36 0 -54 19 -68 69 -14 47 -46 63 -111
57 -59 -7 -68 0 -78 58 -16 85 -58 111 -181 111 -47 0 -80 4 -80 10 1 6 4 34
9 63 12 77 -13 97 -87 70z"/>
<path d="M26932 9684 c-17 -8 -45 -63 -38 -79 6 -17 -29 -220 -48 -274 -29
-81 -19 -111 37 -111 28 0 96 34 129 65 15 14 34 25 41 25 8 0 24 -22 36 -50
49 -113 134 -166 256 -158 49 4 85 13 122 31 29 15 55 27 58 27 3 0 26 -21 52
-47 65 -64 139 -96 233 -100 128 -7 136 25 13 51 -86 18 -122 35 -179 88 -54
49 -70 94 -54 144 14 42 9 127 -10 149 -17 21 -49 19 -87 -5 -28 -17 -33 -25
-33 -59 0 -21 7 -55 15 -74 8 -20 15 -47 15 -61 0 -52 -102 -89 -195 -72 -57
11 -119 78 -140 151 -20 74 -40 105 -64 105 -10 0 -45 -25 -77 -55 -56 -52
-94 -70 -94 -42 1 6 19 64 42 127 28 78 41 133 42 170 1 54 1 55 -29 57 -16 1
-36 -1 -43 -3z"/>
<path d="M23705 9657 c-12 -18 -16 -65 -20 -203 -2 -98 -9 -206 -14 -238 -12
-67 -4 -86 34 -86 30 0 36 28 66 297 21 190 21 203 5 227 -21 32 -51 33 -71 3z"/>
<path d="M31373 9660 c-36 -22 -57 -56 -73 -122 -10 -41 -16 -47 -61 -65 -57
-25 -64 -49 -18 -66 27 -11 30 -15 24 -42 -3 -16 -8 -62 -12 -100 -5 -59 -3
-73 12 -85 28 -23 49 0 58 61 4 30 17 80 28 112 21 55 23 57 58 57 47 0 133
-42 166 -82 29 -34 31 -65 11 -150 -15 -62 -12 -93 12 -120 32 -37 90 -11 78
35 -3 12 1 47 9 77 36 134 4 211 -110 268 -31 15 -134 42 -162 42 -21 0 33
108 70 139 9 7 17 21 17 31 0 35 -58 40 -107 10z"/>
<path d="M24263 9605 c-12 -8 -43 -50 -69 -93 -152 -249 -176 -268 -146 -114
12 63 13 87 4 107 -12 27 -43 33 -60 12 -6 -7 -16 -77 -22 -155 -13 -161 -10
-172 46 -172 41 0 78 42 164 188 33 56 65 102 70 102 14 0 26 -28 49 -119 28
-113 56 -141 112 -111 26 14 24 34 -4 47 -21 10 -25 24 -42 138 -15 104 -23
133 -43 156 -28 34 -30 34 -59 14z"/>
<path d="M29410 9593 c-26 -10 -50 -35 -50 -54 0 -10 28 -34 74 -63 169 -106
259 -274 203 -383 -17 -31 -81 -93 -97 -93 -5 0 -16 14 -25 30 -20 38 -52 40
-66 3 -33 -88 85 -136 184 -73 81 51 123 141 115 249 -6 73 -28 125 -82 190
-20 24 -36 45 -36 47 0 3 11 9 25 14 83 32 -62 141 -184 139 -25 0 -53 -3 -61
-6z"/>
<path d="M28475 9566 c-40 -17 -49 -40 -79 -193 -46 -240 -44 -293 9 -293 26
0 30 8 40 85 8 62 71 289 91 326 19 38 18 66 -5 79 -23 12 -19 12 -56 -4z"/>
<path d="M28720 9552 c-18 -15 -23 -31 -26 -83 -2 -35 -6 -101 -9 -147 -6 -94
3 -122 41 -122 30 0 57 28 135 140 79 114 94 130 117 130 21 0 48 -60 76 -172
18 -69 30 -92 58 -112 25 -18 64 -21 73 -6 3 5 -1 22 -8 37 -8 15 -24 73 -37
128 -47 211 -60 232 -137 221 -51 -7 -59 -13 -160 -139 -25 -32 -51 -56 -57
-54 -7 3 -10 33 -7 86 4 105 -12 131 -59 93z"/>
<path d="M31788 9559 c-41 -23 -7 -59 56 -59 47 0 66 9 66 31 0 34 -80 53
-122 28z"/>
<path d="M31931 9438 c-13 -7 -33 -25 -43 -39 -24 -32 -47 -138 -49 -224 -3
-121 72 -221 164 -219 80 3 112 76 105 244 -5 114 -25 176 -70 217 -30 29 -76
37 -107 21z m74 -148 c18 -35 31 -171 21 -224 -6 -30 -11 -36 -32 -36 -40 0
-64 51 -64 139 0 133 37 194 75 121z"/>
<path d="M32244 9205 c-12 -8 -27 -35 -34 -61 -8 -26 -26 -70 -42 -98 -38 -70
-37 -103 5 -121 43 -18 100 -7 227 45 63 26 107 39 120 35 30 -10 89 -92 95
-134 18 -118 23 -113 24 27 l1 142 -32 20 c-58 35 -147 25 -264 -30 -55 -25
-91 -34 -97 -23 -3 5 10 40 29 78 38 79 41 97 18 119 -19 20 -24 20 -50 1z"/>
<path d="M6955 8226 c-18 -13 -18 -19 -7 -73 6 -32 27 -113 46 -179 22 -79 38
-164 46 -249 7 -72 18 -169 24 -217 11 -77 10 -88 -5 -107 -30 -37 -64 -24
-150 56 -96 89 -133 114 -169 111 -60 -5 -49 -30 37 -91 43 -31 90 -65 104
-76 14 -11 48 -32 75 -46 95 -51 82 -55 -101 -30 -60 9 -199 26 -308 40 -108
13 -224 30 -256 36 -48 10 -62 10 -75 0 -41 -34 3 -67 106 -81 198 -27 544
-60 621 -60 72 0 89 -3 94 -17 9 -24 -54 -78 -185 -157 -120 -72 -139 -98 -75
-104 38 -4 133 49 231 128 35 28 67 48 71 45 5 -2 12 -44 16 -92 8 -110 40
-276 62 -326 18 -42 43 -60 67 -51 21 8 20 11 -8 108 -13 44 -31 122 -41 171
-9 50 -23 122 -31 160 -18 90 -18 141 0 148 8 3 40 -7 72 -22 67 -31 284 -105
357 -121 63 -14 117 -4 117 20 0 19 -9 24 -70 35 -95 18 -374 110 -447 148
-32 16 -43 28 -43 45 0 20 17 31 114 78 62 29 116 60 119 69 6 15 -17 45 -34
45 -12 0 -95 -43 -134 -69 -36 -25 -61 -27 -69 -5 -3 9 -6 66 -6 128 0 113
-25 285 -55 376 -8 25 -21 85 -30 134 -18 105 -35 125 -80 92z"/>
<path d="M4385 8144 c-15 -15 -17 -29 -11 -94 3 -41 13 -113 21 -160 8 -47 21
-141 29 -210 9 -69 24 -159 34 -200 11 -41 20 -93 21 -114 1 -22 4 -43 6 -47
3 -4 10 -76 15 -161 6 -84 15 -169 21 -188 5 -19 16 -99 23 -177 7 -83 18
-148 26 -157 14 -18 46 -21 55 -6 12 20 -28 332 -84 648 -11 58 5 63 66 24 96
-61 237 -115 290 -110 30 2 38 7 38 23 0 15 -11 23 -45 33 -87 26 -234 87
-238 99 -3 10 60 13 292 13 179 0 304 3 315 9 25 14 32 36 18 54 -10 12 -51
13 -282 5 -289 -10 -359 -13 -390 -19 -12 -2 -20 1 -20 9 0 7 58 43 130 81 71
38 134 75 139 83 14 23 0 48 -29 48 -22 0 -210 -118 -268 -169 -17 -14 -20
-14 -33 4 -8 10 -14 42 -14 69 0 53 -18 217 -45 410 -8 61 -16 134 -18 161 -2
42 -5 50 -23 53 -12 2 -29 -5 -39 -14z"/>
<path d="M9878 8049 c-23 -13 -23 -27 2 -97 11 -31 34 -136 51 -232 16 -96 38
-208 49 -248 11 -40 20 -77 20 -82 0 -20 -48 -9 -119 25 -39 19 -74 35 -77 35
-4 0 -33 16 -65 36 -64 39 -111 43 -117 11 -6 -28 28 -49 187 -119 39 -16 43
-21 30 -33 -13 -13 -27 -12 -114 5 -55 10 -161 24 -235 30 -74 6 -182 15 -240
20 -159 15 -219 13 -227 -7 -4 -10 1 -22 15 -33 22 -18 45 -21 386 -45 114 -8
236 -19 270 -24 61 -10 118 -14 169 -12 22 1 27 6 27 25 0 14 4 27 9 31 16 9
121 -42 121 -60 0 -23 -48 -38 -102 -30 -43 5 -48 4 -48 -14 0 -32 38 -51 101
-51 l57 0 11 -72 c38 -248 54 -304 98 -350 45 -47 94 -26 61 25 -42 64 -106
372 -94 454 5 39 3 50 -14 68 -14 15 -25 49 -34 111 -8 49 -26 166 -40 259
-30 191 -71 366 -89 377 -16 10 -28 9 -49 -3z"/>
<path d="M7984 7958 c-148 -153 -176 -263 -100 -390 53 -89 171 -163 343 -214
74 -23 106 -27 198 -26 61 0 128 2 150 4 l40 3 6 -155 c9 -256 57 -351 189
-374 38 -7 72 7 55 22 -6 5 -27 15 -47 21 -74 24 -113 105 -127 261 -10 116
-3 270 13 295 10 15 10 24 2 37 -13 22 14 248 40 326 16 49 29 65 101 122 17
14 5 39 -23 46 -56 14 -156 -79 -182 -171 -17 -59 -32 -201 -29 -277 1 -44 -3
-72 -11 -80 -17 -17 -213 -24 -261 -9 -223 66 -253 80 -340 149 -52 42 -71 83
-71 152 0 69 28 119 117 212 82 83 90 111 38 116 -27 3 -40 -7 -101 -70z"/>
<path d="M278 7993 c-20 -23 -31 -184 -29 -441 1 -106 -2 -198 -6 -205 -4 -6
-8 -43 -9 -82 -1 -38 -12 -135 -24 -215 -31 -198 -31 -224 -3 -228 18 -3 24 4
33 35 12 44 36 221 46 338 3 44 8 83 11 88 17 28 90 -16 240 -145 160 -137
189 -159 228 -165 28 -4 35 -2 35 10 0 9 -12 23 -27 31 -16 8 -77 58 -138 111
-130 113 -219 179 -280 206 -50 22 -62 36 -47 51 8 8 16 7 27 -2 12 -10 82
-14 293 -16 227 -2 299 -6 397 -23 168 -30 336 -39 352 -19 10 12 10 18 -1 33
-11 15 -33 20 -117 26 -57 4 -151 15 -209 24 -124 20 -488 35 -545 22 -67 -14
-185 -20 -185 -9 0 17 69 66 170 122 52 29 100 56 105 60 6 4 47 27 92 50 86
45 130 81 118 99 -12 20 -48 11 -134 -35 -120 -65 -242 -139 -266 -161 -11
-11 -35 -28 -52 -38 -54 -32 -56 -21 -42 191 18 258 18 298 -2 302 -8 1 -22
-5 -31 -15z"/>
<path d="M5423 7944 c-41 -20 -110 -80 -125 -107 -37 -70 -22 -179 35 -244 69
-79 224 -154 365 -177 l67 -11 -1 -35 c-1 -19 -9 -98 -18 -175 -23 -183 -23
-338 -1 -371 21 -32 63 -48 95 -37 36 12 31 36 -8 44 -18 4 -36 10 -40 14 -12
12 -7 165 11 345 10 96 20 183 23 192 3 10 25 23 53 32 73 21 125 51 159 91
18 20 32 40 32 44 0 21 -31 18 -62 -6 -43 -33 -137 -75 -149 -67 -13 8 -5 46
33 164 45 140 70 184 125 221 55 37 63 47 56 65 -15 39 -98 11 -152 -52 -60
-67 -94 -161 -128 -354 l-9 -45 -46 2 c-57 1 -243 79 -311 129 -49 35 -74 78
-84 138 -7 45 30 93 105 134 64 35 76 54 43 72 -25 13 -30 13 -68 -6z"/>
<path d="M2335 7898 c-11 -6 -26 -19 -33 -27 -47 -57 -101 -244 -102 -352 0
-90 -8 -116 -39 -124 -14 -4 -63 -6 -108 -6 -137 1 -297 48 -348 100 -23 25
-27 35 -21 62 3 18 12 40 19 48 23 28 134 215 142 239 15 50 -47 73 -67 25
-18 -47 -59 -124 -110 -207 -51 -85 -59 -125 -34 -174 22 -42 56 -69 126 -100
101 -45 154 -55 295 -56 l130 -1 -1 -35 c-1 -19 -5 -80 -8 -135 -14 -203 -10
-236 27 -222 11 4 17 29 21 89 3 46 9 140 14 210 l8 127 49 46 c37 34 46 48
37 57 -9 9 -18 9 -38 -1 -38 -17 -45 -1 -28 68 7 31 13 69 14 85 1 75 59 200
105 227 41 24 43 32 13 53 -26 19 -36 19 -63 4z"/>
<path d="M11507 7850 c-32 -25 -35 -65 -10 -113 28 -56 134 -167 235 -248 184
-147 376 -236 532 -247 l78 -5 -5 -41 c-4 -23 -23 -79 -42 -126 -60 -139 -67
-180 -31 -180 17 0 90 143 139 275 33 89 35 90 85 114 60 28 72 57 19 47 -18
-3 -36 -4 -39 0 -11 11 104 333 128 359 17 18 33 25 62 25 24 0 45 6 53 16 11
14 10 20 -14 40 -19 16 -41 24 -64 24 -46 0 -116 -33 -137 -65 -27 -41 -69
-182 -121 -402 -5 -21 -12 -23 -61 -23 -169 0 -400 122 -607 319 -85 81 -121
136 -127 196 -4 41 -9 51 -26 53 -11 2 -32 -7 -47 -18z"/>
<path d="M10795 7612 c-77 -37 -132 -55 -280 -91 -231 -57 -317 -73 -360 -67
-34 6 -45 3 -59 -13 -18 -20 -18 -21 13 -38 18 -10 69 -54 114 -98 67 -66 103
-91 192 -137 192 -98 286 -129 325 -108 38 20 20 36 -82 74 -178 66 -388 180
-388 211 0 8 5 15 11 15 20 0 475 -108 564 -134 64 -19 92 -23 106 -15 22 12
24 32 5 48 -24 20 -212 69 -406 107 -184 35 -225 48 -179 58 13 2 74 14 134
26 120 24 294 78 365 113 35 17 45 27 45 47 0 37 -45 37 -120 2z"/>
<path d="M14380 7623 c-34 -12 -38 -31 -25 -106 40 -232 51 -282 86 -387 91
-279 119 -398 138 -575 21 -195 21 -196 47 -222 20 -20 27 -22 45 -12 21 11
22 15 15 156 -10 213 -29 306 -132 626 -62 195 -98 369 -91 440 6 69 -26 100
-83 80z"/>
<path d="M4016 7507 c-10 -7 -15 -19 -11 -28 7 -18 18 -24 137 -74 99 -42 127
-65 104 -84 -21 -18 -1168 -9 -1278 10 -81 13 -108 6 -108 -28 0 -51 232 -67
834 -59 423 6 565 15 623 37 69 26 71 -7 4 -49 -48 -30 -101 -96 -101 -127 0
-8 11 -20 25 -27 30 -14 55 3 55 38 0 17 17 37 60 70 67 53 79 75 56 109 -33
50 -223 182 -300 208 -59 20 -77 21 -100 4z"/>
<path d="M7276 7388 c-20 -16 -20 -17 -3 -35 16 -16 36 -18 222 -15 137 2 217
-1 244 -9 54 -16 91 -6 91 26 0 15 -10 31 -25 41 -21 14 -56 15 -267 12 -209
-3 -245 -5 -262 -20z"/>
<path d="M13774 7215 c-10 -24 3 -44 33 -50 100 -20 403 -140 410 -162 3 -7
-19 -24 -48 -39 -123 -62 -236 -175 -212 -213 22 -36 50 -24 125 51 57 58 92
83 161 116 89 43 108 62 90 90 -16 26 -198 118 -340 172 -138 52 -208 63 -219
35z"/>
<path d="M13163 7163 c-15 -40 61 -65 317 -103 74 -12 185 -30 245 -41 61 -11
153 -22 206 -26 89 -5 98 -4 118 16 11 11 21 26 21 31 0 18 -30 23 -65 13 -26
-8 -65 -5 -187 18 -84 16 -223 40 -308 54 -85 14 -180 32 -211 40 -77 20 -128
19 -136 -2z"/>
<path d="M5660 6474 c-97 -44 -191 -153 -233 -269 -23 -66 -38 -141 -67 -345
-15 -106 -12 -124 21 -128 45 -5 51 16 59 184 5 105 11 159 20 167 10 9 14 9
17 -1 9 -23 75 -116 107 -150 45 -48 182 -112 241 -112 64 0 59 27 -10 50 -72
25 -124 53 -184 100 -49 39 -92 102 -78 116 3 4 57 1 120 -6 103 -12 121 -11
188 5 61 15 81 25 112 57 47 49 48 82 6 183 -66 157 -182 211 -319 149z m174
-57 c48 -24 106 -123 106 -180 0 -73 -55 -89 -289 -85 -154 3 -181 5 -181 18
0 41 134 205 192 236 60 31 125 36 172 11z"/>
<path d="M6661 6431 c-12 -12 -21 -32 -21 -46 0 -13 -18 -79 -39 -147 -22 -68
-42 -141 -46 -163 -13 -77 -36 -145 -51 -145 -7 0 -22 17 -33 38 -43 84 -103
122 -193 122 -59 0 -106 -23 -134 -64 -26 -41 -16 -153 18 -199 39 -50 106
-79 194 -85 121 -8 274 34 274 74 0 14 -7 15 -40 10 -33 -5 -40 -3 -40 11 0 9
39 130 87 267 94 272 107 338 66 344 -12 2 -31 -6 -42 -17z m-320 -425 c46
-19 73 -51 104 -120 37 -83 32 -90 -63 -84 -98 7 -146 27 -167 69 -21 39 -14
117 12 137 22 16 73 15 114 -2z"/>
<path d="M9598 5515 c-2 -1 -183 -6 -403 -10 -220 -4 -429 -8 -465 -10 -36 -2
-148 -6 -250 -9 -102 -4 -270 -11 -375 -17 -217 -13 -318 -15 -858 -23 -352
-6 -518 -12 -1122 -46 -114 -7 -301 -8 -470 -4 -154 4 -388 8 -520 9 -132 2
-255 6 -273 10 -20 5 -37 3 -47 -5 -10 -8 -47 -10 -132 -6 -115 6 -327 11
-938 21 -281 5 -465 11 -630 20 -92 5 -457 25 -565 30 -47 2 -436 7 -865 11
-695 6 -797 5 -935 -11 l-155 -16 -21 27 c-25 31 -50 27 -59 -9 -4 -15 -17
-26 -38 -33 -55 -16 -44 -74 14 -74 38 0 38 -12 -7 -146 -37 -112 -43 -132
-70 -269 -9 -44 -20 -100 -25 -125 -10 -49 -13 -73 -35 -235 -8 -60 -17 -126
-20 -145 -20 -140 -27 -249 -27 -405 -1 -168 1 -189 32 -325 41 -181 72 -252
135 -307 83 -73 133 -86 336 -85 192 0 521 12 532 18 13 8 1535 4 1863 -6 187
-5 430 -12 540 -15 110 -3 247 -7 305 -10 58 -3 238 -8 400 -11 162 -3 297 -8
300 -9 3 -2 133 -6 290 -10 157 -4 287 -9 290 -10 3 -2 278 -7 610 -10 333 -4
630 -8 660 -10 30 -2 302 -6 603 -11 369 -5 550 -11 554 -18 4 -6 6 -51 5
-101 -2 -97 5 -119 34 -113 17 3 19 14 19 103 0 55 4 106 9 113 6 10 25 12 75
8 36 -3 140 -8 231 -11 262 -8 400 -15 635 -30 121 -8 330 -19 465 -25 135 -6
292 -13 350 -15 124 -5 382 -12 750 -20 146 -3 411 -13 590 -22 462 -24 2229
-23 2555 1 552 40 555 40 869 28 166 -7 373 -21 461 -32 183 -23 332 -28 363
-11 30 16 28 39 -17 177 -55 171 -88 407 -106 764 -20 398 -38 582 -71 755
-33 169 -67 303 -99 390 -18 49 -36 106 -40 125 -13 69 -26 89 -64 100 -20 5
-225 10 -461 11 -234 1 -504 6 -600 10 -96 4 -371 12 -610 19 -239 6 -511 15
-605 20 -93 5 -282 12 -420 15 -324 7 -668 17 -725 21 -53 4 -1747 13 -1752 9z
m1712 -58 c14 -3 129 -8 255 -11 127 -4 322 -9 435 -12 113 -3 293 -9 400 -15
231 -11 633 -26 925 -34 116 -3 313 -10 440 -16 126 -5 395 -9 596 -9 281 0
369 -3 376 -12 6 -7 16 -35 22 -63 7 -27 29 -97 50 -155 34 -92 76 -267 111
-465 16 -87 38 -332 50 -550 14 -263 18 -313 36 -445 25 -186 61 -356 90 -430
15 -38 24 -76 21 -84 -9 -22 -37 -21 -305 10 -207 24 -263 27 -637 28 -268 1
-448 -3 -520 -11 -209 -24 -513 -33 -1205 -36 -718 -4 -1217 3 -1590 22 -118
5 -327 13 -465 16 -562 12 -684 15 -780 20 -55 3 -167 7 -250 10 -82 3 -181 8
-220 10 -38 2 -160 9 -270 15 -110 6 -258 15 -330 20 -71 6 -264 13 -428 17
-216 4 -300 10 -307 19 -7 7 -12 135 -15 330 -3 176 -7 344 -10 374 -3 30 -12
111 -20 180 -17 153 -33 377 -40 570 -3 80 -8 190 -10 245 -8 173 -7 387 2
396 9 9 65 13 453 29 524 23 806 30 1345 36 308 4 562 8 565 11 6 5 1200 -4
1230 -10z m-8450 -61 c228 -15 1016 -33 1665 -40 155 -1 286 -5 292 -9 37 -23
50 -421 24 -732 -6 -77 -16 -318 -22 -535 -6 -217 -12 -413 -13 -435 -1 -38 0
-40 29 -40 l30 0 7 85 c4 47 9 209 13 360 3 151 13 392 23 535 20 305 21 614
3 699 -15 66 -7 80 39 71 14 -2 255 -7 535 -10 409 -6 558 -4 755 9 389 25
658 35 1045 38 l360 3 7 -270 c9 -339 34 -784 53 -935 22 -176 34 -375 36
-590 1 -107 2 -222 3 -255 l1 -60 -305 3 c-290 3 -437 6 -755 17 -77 3 -363 7
-635 10 -491 5 -804 11 -1035 20 -66 3 -203 7 -305 10 -102 3 -228 7 -280 10
-52 2 -212 7 -355 10 -143 3 -309 8 -370 10 -60 2 -218 7 -350 10 -132 3 -339
8 -460 11 -392 10 -1412 6 -1734 -6 -392 -16 -530 -11 -588 18 -83 43 -120 99
-159 241 -30 108 -43 180 -49 263 -2 35 -5 69 -6 74 -5 18 12 281 26 399 8 66
19 163 25 215 18 163 63 382 111 540 15 52 34 124 40 160 7 36 16 70 20 76 5
6 55 14 111 18 57 5 139 11 183 16 151 14 1716 3 1985 -14z"/>
<path d="M9478 5166 c-25 -18 -38 -58 -27 -79 18 -30 112 -16 126 19 4 12 -4
26 -25 46 -36 31 -49 34 -74 14z"/>
<path d="M13487 4840 c-33 -39 -57 -113 -66 -206 -6 -67 -10 -79 -34 -96 -30
-22 -35 -43 -12 -52 20 -7 19 -66 0 -130 -8 -27 -15 -62 -15 -78 0 -51 56 -49
71 3 4 13 15 52 25 87 10 34 22 62 27 62 4 0 51 -14 103 -31 93 -31 94 -32
115 -78 11 -25 33 -67 50 -92 62 -97 271 -232 363 -233 50 -1 56 21 11 43
-135 69 -271 175 -316 247 -33 54 -23 61 80 65 100 4 139 23 152 73 15 54 -34
126 -99 147 -83 28 -226 -29 -253 -100 -8 -20 -15 -23 -42 -18 -17 3 -58 16
-89 30 -47 21 -58 30 -58 49 1 20 33 173 57 268 5 19 7 43 5 53 -6 27 -47 21
-75 -13z m421 -360 c73 -45 46 -83 -58 -78 -60 3 -65 5 -68 26 -5 31 34 72 67
72 14 0 41 -9 59 -20z"/>
<path d="M12606 4829 c-47 -37 -32 -66 59 -111 59 -30 114 -41 135 -28 11 7 4
20 -39 67 -96 104 -108 109 -155 72z"/>
<path d="M12242 4796 c-40 -43 -53 -75 -70 -166 -7 -37 -12 -44 -28 -42 -10 2
-48 6 -84 9 -61 5 -68 3 -115 -29 -27 -18 -59 -47 -71 -65 -25 -38 -36 -126
-22 -179 5 -22 12 -49 15 -61 13 -54 -153 -82 -262 -43 -53 18 -145 89 -145
111 0 3 37 9 83 11 131 9 187 47 201 139 5 35 2 61 -13 105 -37 103 -120 166
-223 168 -47 1 -63 -4 -99 -29 -54 -38 -84 -82 -93 -134 -9 -57 12 -187 39
-241 31 -62 106 -130 190 -171 63 -31 78 -34 156 -34 76 0 92 3 146 31 l60 31
44 -24 c66 -35 164 -33 244 6 33 15 71 40 84 54 21 23 22 27 7 33 -9 3 -41 -6
-73 -21 -103 -48 -200 -46 -253 6 -28 28 -30 36 -30 100 0 77 14 115 56 148
33 26 90 27 124 4 35 -24 40 -33 40 -78 0 -70 52 -113 89 -76 16 16 17 26 9
76 -13 74 11 205 53 293 34 70 35 105 3 110 -14 2 -34 -11 -62 -42z m-682
-137 c80 -35 128 -130 100 -200 -19 -45 -30 -48 -214 -72 -30 -3 -46 39 -46
121 0 106 33 172 86 172 14 0 47 -9 74 -21z"/>
<path d="M9392 4808 c-36 -39 -47 -153 -33 -333 23 -287 37 -345 86 -345 27 0
41 29 27 57 -31 58 -51 383 -31 498 19 112 17 140 -6 143 -12 2 -30 -7 -43
-20z"/>
<path d="M9957 4792 c-9 -10 -30 -76 -47 -147 -17 -72 -40 -159 -52 -195 -35
-109 -49 -108 -59 6 -7 84 -26 117 -53 94 -21 -17 -22 -144 -1 -194 32 -76 86
-98 123 -51 11 14 32 73 46 133 40 157 50 168 64 64 20 -143 116 -150 223 -16
28 35 56 64 63 64 14 0 46 -129 46 -186 0 -76 45 -132 96 -120 29 8 31 30 5
48 -13 9 -20 32 -25 83 -18 170 -49 275 -88 296 -29 15 -59 -9 -111 -88 -53
-82 -98 -126 -124 -121 -16 3 -18 18 -23 159 -5 161 -13 189 -50 189 -9 0 -24
-8 -33 -18z"/>
<path d="M10646 4688 c-24 -37 -29 -110 -16 -225 14 -133 25 -169 56 -189 41
-27 72 -11 100 51 31 67 39 72 59 41 22 -34 47 -40 88 -22 26 11 46 33 83 95
67 112 86 107 99 -28 9 -86 40 -133 89 -133 41 0 51 22 20 47 -21 17 -26 34
-39 128 -17 133 -39 181 -83 185 -35 4 -38 0 -133 -150 -67 -108 -79 -105 -79
25 0 110 -13 152 -45 152 -24 0 -55 -57 -55 -101 0 -38 -38 -184 -52 -202 -25
-30 -33 10 -33 166 0 86 -4 163 -8 170 -13 19 -35 14 -51 -10z"/>
<path d="M12832 4619 c-115 -45 -165 -130 -124 -214 46 -96 195 -102 305 -13
17 14 31 18 36 12 5 -5 14 -42 20 -82 5 -40 17 -84 25 -97 19 -28 74 -42 105
-26 27 15 27 29 -2 40 -48 18 -52 34 -53 196 -1 154 -5 175 -28 175 -15 0 -76
-59 -76 -73 0 -6 -18 -34 -40 -63 -43 -57 -109 -91 -153 -80 -35 8 -77 45 -77
67 0 11 15 36 33 56 30 32 41 37 101 44 82 10 121 28 121 54 0 18 -8 20 -70
22 -51 2 -84 -3 -123 -18z"/>
<path d="M12575 4535 c-22 -21 -25 -33 -25 -93 0 -38 -4 -92 -10 -121 -12 -64
-6 -81 31 -81 42 0 49 19 68 194 14 123 -8 158 -64 101z"/>
<path d="M6917 5156 c-11 -12 -15 -85 -21 -383 -3 -202 -11 -390 -17 -418 -6
-27 -13 -70 -16 -93 -5 -39 -3 -43 13 -40 11 1 29 24 43 51 25 51 21 -2 46
678 8 204 -3 250 -48 205z"/>
<path d="M4199 4938 c-1 -2 -2 -23 -3 -48 -1 -36 -21 -82 -96 -225 -56 -106
-101 -180 -109 -180 -8 0 -24 18 -35 40 -19 36 -25 40 -65 43 -59 4 -81 -17
-81 -76 0 -88 57 -154 167 -193 72 -26 214 -28 288 -5 69 22 84 20 157 -14 72
-34 178 -43 178 -15 0 8 -12 17 -27 21 -45 9 -133 46 -140 57 -4 6 2 16 12 21
47 27 96 80 93 100 -8 55 -156 74 -216 29 -24 -19 -27 -26 -25 -77 l2 -56 -42
-11 c-54 -14 -204 -15 -239 0 -16 6 -28 17 -28 26 0 8 20 40 44 70 79 97 218
348 231 417 9 46 -8 78 -40 78 -14 0 -26 -1 -26 -2z m-271 -471 c28 -58 -14
-73 -43 -16 -21 39 -19 51 7 47 13 -2 29 -15 36 -31z m530 -35 c6 -18 -58 -43
-80 -31 -21 11 -24 35 -5 43 22 9 80 1 85 -12z"/>
<path d="M3075 4764 c-144 -97 -262 -230 -286 -324 -25 -95 37 -156 171 -167
53 -4 83 -1 138 16 92 28 100 27 140 -11 32 -32 36 -33 115 -33 99 0 157 24
228 95 60 60 86 126 70 179 -23 78 -76 118 -185 141 -54 11 -61 11 -73 -6 -21
-29 5 -58 62 -66 57 -8 119 -49 135 -89 45 -109 -218 -256 -303 -170 l-21 20
50 51 c48 49 84 68 172 90 36 9 43 15 40 33 -3 20 -9 22 -63 22 -79 0 -161
-40 -210 -103 -19 -25 -35 -48 -35 -52 0 -23 -197 -66 -260 -57 -60 8 -110 43
-110 77 0 58 117 187 253 278 58 39 68 49 65 71 -4 37 -43 39 -93 5z"/>
<path d="M1705 4751 c-56 -9 -131 -33 -177 -57 -48 -25 -150 -109 -181 -149
-47 -60 -88 -161 -85 -208 3 -43 15 -53 148 -119 68 -34 199 -31 295 6 233 91
379 281 322 417 -35 84 -178 133 -322 110z m215 -97 c19 -11 43 -34 53 -52 19
-31 18 -32 -7 -87 -57 -125 -245 -249 -397 -261 -99 -8 -149 6 -188 54 -27 31
-31 45 -31 92 1 49 5 59 38 96 76 84 160 136 272 170 68 20 217 14 260 -12z"/>
<path d="M5507 4739 c-85 -45 -233 -222 -257 -307 -5 -20 -10 -57 -10 -80 0
-36 6 -49 31 -73 33 -31 84 -49 139 -49 70 0 215 53 327 121 106 64 189 165
181 221 -4 33 -76 76 -160 97 -59 15 -74 23 -76 40 -4 27 -22 27 -56 0 -17
-14 -26 -29 -24 -42 3 -22 8 -24 149 -62 75 -20 104 -43 94 -76 -19 -59 -173
-161 -312 -208 -96 -32 -199 -26 -225 13 -45 67 103 293 232 355 39 19 56 33
58 49 3 18 -1 22 -25 22 -15 -1 -45 -10 -66 -21z"/>
<path d="M2440 4687 c-168 -48 -265 -167 -328 -402 -20 -73 -62 -429 -54 -452
6 -17 47 -17 60 0 6 7 27 72 46 143 19 71 54 185 78 253 l43 124 63 17 c138
38 225 91 276 169 47 70 47 99 0 130 -43 29 -118 37 -184 18z m133 -76 c36
-36 -171 -173 -283 -188 -42 -6 -55 6 -46 42 12 47 112 123 199 151 42 14 114
11 130 -5z m-349 -250 c3 -4 -11 -56 -30 -115 -58 -172 -87 -120 -31 57 15 49
25 67 38 67 10 0 20 -4 23 -9z"/>
<path d="M6183 4589 c-101 -49 -191 -170 -228 -309 -26 -94 -30 -263 -11 -373
26 -144 64 -165 115 -63 19 38 22 52 13 70 -8 18 -16 22 -35 19 -34 -7 -38 11
-39 150 0 230 63 381 190 450 104 57 199 41 256 -41 38 -56 39 -108 2 -157
-36 -46 -67 -66 -107 -67 -45 -1 -61 24 -84 135 -7 33 -30 36 -39 5 -18 -70
12 -162 63 -191 42 -24 95 -16 156 25 101 67 124 182 56 282 -67 96 -190 123
-308 65z"/>
</g>
</svg>
