<?xml version="1.0" standalone="no"?>
<!DOCTYPE svg PUBLIC "-//W3C//DTD SVG 20010904//EN"
 "http://www.w3.org/TR/2001/REC-SVG-20010904/DTD/svg10.dtd">
<svg version="1.0" xmlns="http://www.w3.org/2000/svg"
 width="2448.000000pt" height="3264.000000pt" viewBox="0 0 2448.000000 3264.000000"
 preserveAspectRatio="xMidYMid meet">
<metadata>
Created by potrace 1.12, written by Peter Selinger 2001-2015
</metadata>
<g transform="translate(0.000000,3264.000000) scale(0.100000,-0.100000)"
fill="#000000" stroke="none">
<path d="M7881 32372 c-6 -12 -7 -72 -1 -168 5 -82 10 -173 10 -202 0 -52 0
-53 -47 -80 -25 -15 -67 -41 -93 -58 l-47 -30 -54 50 c-61 56 -129 86 -198 86
-132 0 -341 -105 -341 -172 0 -27 17 -48 38 -48 8 0 34 18 59 39 87 77 259
109 348 66 82 -41 111 -143 62 -216 -33 -49 -97 -90 -148 -96 -90 -9 -132 51
-127 181 2 73 -11 99 -51 94 -33 -4 -51 -39 -51 -104 0 -187 143 -304 301
-245 101 38 177 128 194 228 5 33 16 51 46 76 42 36 106 74 112 67 3 -3 0 -85
-5 -183 -10 -188 -7 -207 34 -207 10 0 20 6 23 13 4 14 15 253 15 350 l0 68
68 31 c201 91 212 97 212 116 0 54 -62 53 -183 -3 -41 -19 -78 -35 -81 -35 -4
0 -6 81 -5 179 0 114 -3 187 -11 200 -14 27 -65 29 -79 3z"/>
<path d="M6450 32373 c-22 -8 -97 -82 -135 -133 -49 -67 -144 -254 -223 -440
-164 -386 -155 -359 -137 -387 12 -18 24 -23 43 -21 30 3 18 -21 147 313 99
255 204 464 268 533 17 17 34 32 38 32 12 0 18 -40 29 -200 32 -473 55 -577
135 -615 57 -26 98 -14 162 51 91 91 138 223 168 474 9 74 23 168 32 208 15
67 15 74 0 89 -14 15 -18 15 -40 1 -30 -20 -51 -92 -78 -268 -36 -232 -81
-368 -146 -437 -40 -42 -68 -42 -89 -1 -17 33 -38 191 -49 383 -10 162 -32
348 -46 377 -9 20 -51 52 -62 47 -1 0 -9 -3 -17 -6z"/>
<path d="M8627 31432 c-47 -52 -67 -178 -67 -422 0 -187 12 -240 55 -240 34 0
38 17 36 166 -3 194 14 364 39 417 11 22 20 48 20 57 0 39 -54 54 -83 22z"/>
<path d="M9020 31353 c-36 -7 -50 -22 -50 -54 0 -50 44 -74 85 -45 11 7 32 16
48 20 20 5 27 12 27 32 0 19 -8 28 -35 40 -19 7 -38 13 -42 13 -4 -1 -19 -4
-33 -6z"/>
<path d="M9709 31206 c-67 -14 -103 -36 -130 -79 -19 -31 -21 -54 -7 -141 2
-14 -5 -23 -24 -30 -58 -21 -108 36 -108 122 0 45 -14 62 -52 62 -20 0 -34
-10 -57 -42 -38 -54 -67 -88 -75 -88 -3 0 -6 31 -6 69 0 93 -11 121 -49 121
-17 0 -31 -6 -35 -16 -3 -9 -6 -63 -6 -121 0 -90 3 -109 21 -134 15 -22 28
-29 54 -29 27 0 41 9 78 50 25 28 48 50 51 50 3 0 12 -15 21 -33 9 -19 30 -45
48 -58 29 -22 42 -24 132 -24 80 -1 111 -5 153 -23 94 -39 302 -25 302 21 0
33 -27 40 -123 32 -89 -6 -177 5 -177 23 0 4 25 21 56 37 60 32 113 85 115
113 4 63 -14 97 -63 116 -44 18 -44 18 -119 2z m96 -76 c21 -35 -109 -142
-152 -126 -32 13 -1 96 45 120 31 17 98 21 107 6z"/>
<path d="M11117 31083 c-15 -14 -7 -43 12 -43 26 0 36 17 21 35 -14 16 -23 19
-33 8z"/>
<path d="M8876 31064 c-10 -9 -17 -36 -18 -67 -3 -90 0 -109 21 -130 16 -17
24 -19 43 -10 20 9 25 23 36 97 15 101 7 126 -38 126 -16 0 -36 -7 -44 -16z"/>
<path d="M8895 30595 c-28 -31 -147 -306 -180 -416 -33 -108 -45 -207 -45
-359 0 -92 -4 -136 -14 -156 -15 -27 -9 -55 14 -69 17 -11 47 4 66 33 16 23
20 57 25 212 7 213 22 286 94 460 57 140 66 157 109 209 39 47 44 71 20 95
-23 24 -62 19 -89 -9z"/>
<path d="M6881 30146 c-6 -7 -21 -114 -32 -237 -15 -168 -24 -227 -35 -235 -8
-7 -44 -19 -80 -28 -107 -27 -142 -62 -110 -111 20 -30 35 -31 79 -5 20 12 50
25 67 30 l33 9 -7 -42 c-21 -129 -21 -127 7 -127 28 0 23 -9 69 150 l13 44
107 26 c107 26 138 41 138 66 0 34 -73 43 -154 19 -27 -8 -54 -15 -59 -15 -10
0 -8 34 17 240 9 69 16 142 16 162 0 55 -41 87 -69 54z"/>
<path d="M4563 30095 c-33 -15 -60 -36 -72 -56 -24 -39 -37 -139 -22 -167 14
-26 45 -33 71 -15 18 12 21 24 20 67 -1 28 -1 57 -1 64 1 7 30 27 66 43 69 31
85 50 65 74 -18 22 -68 18 -127 -10z"/>
<path d="M9108 30003 c-20 -24 -45 -72 -118 -227 -80 -170 -180 -309 -261
-363 -49 -32 -56 -27 -113 86 -76 152 -158 306 -168 319 -23 28 -78 7 -78 -30
0 -22 59 -131 123 -227 27 -40 54 -90 59 -110 38 -138 108 -182 208 -131 37
19 132 117 184 190 58 82 183 327 222 433 22 63 -19 105 -58 60z"/>
<path d="M11726 29958 c-8 -13 -24 -81 -36 -153 -30 -185 -26 -176 -97 -210
-82 -40 -95 -52 -91 -88 5 -47 29 -56 77 -28 l41 22 0 -21 c0 -11 -7 -37 -15
-57 -11 -27 -12 -39 -4 -49 28 -34 59 -3 85 87 23 80 35 92 123 135 76 36 101
60 86 84 -9 15 -56 12 -105 -5 -24 -8 -45 -13 -47 -11 -2 2 13 62 33 134 36
125 36 132 20 156 -20 32 -51 33 -70 4z"/>
<path d="M13470 29901 c-5 -11 -10 -50 -10 -88 0 -37 -9 -104 -19 -148 -20
-83 -43 -115 -85 -115 -40 0 -165 -38 -201 -60 -47 -29 -67 -61 -63 -102 4
-47 28 -47 88 1 47 37 182 92 195 79 7 -6 -20 -66 -58 -130 -37 -62 -89 -198
-83 -215 9 -22 34 -14 60 20 23 31 147 280 160 324 4 12 22 31 41 42 37 22 46
54 20 68 -14 8 -14 14 0 58 44 145 50 215 23 268 -12 23 -55 22 -68 -2z"/>
<path d="M7587 29839 c-59 -39 -118 -107 -154 -178 -40 -80 -40 -170 1 -229
38 -55 30 -72 -32 -72 -54 0 -72 12 -72 50 0 36 -35 68 -58 54 -23 -15 -28
-94 -8 -133 34 -64 100 -85 189 -60 85 23 114 111 62 194 -50 82 -24 155 96
272 78 76 90 98 67 121 -19 19 -41 14 -91 -19z"/>
<path d="M6586 29768 c-8 -13 -22 -40 -31 -61 -28 -67 -120 -200 -169 -245
-63 -58 -128 -87 -157 -71 -21 11 -21 16 -16 100 6 72 4 91 -9 103 -21 22 -37
20 -60 -5 -15 -17 -19 -36 -18 -93 2 -200 67 -258 206 -184 116 62 215 189
285 365 19 47 32 92 29 99 -8 22 -44 16 -60 -8z"/>
<path d="M4911 29737 c-25 -31 -42 -502 -19 -551 13 -30 40 -41 66 -27 25 13
77 95 205 322 51 91 83 73 93 -51 8 -96 16 -120 44 -120 29 0 40 31 40 117 0
142 -35 203 -116 203 -61 0 -91 -30 -158 -157 -31 -60 -65 -119 -76 -133 l-20
-25 0 65 c0 36 7 110 15 165 19 135 19 168 -3 188 -22 20 -55 22 -71 4z"/>
<path d="M5852 29732 c-125 -50 -212 -201 -277 -482 -53 -229 -53 -310 -1
-310 29 0 44 17 52 61 4 19 15 51 25 71 21 42 24 80 8 109 -7 14 -7 36 1 74
11 54 12 55 45 55 62 0 237 80 293 133 19 18 45 53 58 79 41 80 28 147 -36
202 -38 31 -101 34 -168 8z m129 -82 c27 -15 25 -68 -4 -101 -39 -45 -106 -91
-184 -125 -42 -18 -80 -31 -84 -28 -17 10 32 125 78 182 57 69 140 100 194 72z"/>
<path d="M4510 29721 c-7 -14 -5 -75 10 -213 10 -106 25 -262 31 -347 13 -159
20 -178 58 -154 28 18 30 99 11 407 -16 263 -20 301 -36 313 -26 19 -62 16
-74 -6z"/>
<path d="M10554 29716 c-97 -45 -227 -166 -244 -226 -27 -95 -3 -180 62 -219
73 -45 167 -35 304 34 111 56 198 124 242 190 29 42 33 57 29 92 -6 55 -27 86
-79 117 -37 21 -60 25 -154 30 -100 4 -115 3 -160 -18z m271 -83 c21 -10 38
-27 41 -40 13 -52 -78 -136 -222 -205 -71 -34 -102 -43 -157 -46 -55 -4 -72
-1 -87 13 -50 45 -2 144 107 225 37 27 82 54 98 59 53 16 181 13 220 -6z"/>
<path d="M13078 29670 c-15 -11 -54 -73 -88 -138 -116 -219 -196 -322 -247
-322 -18 0 -17 62 2 133 20 78 19 120 -4 141 -17 15 -19 15 -40 -1 -18 -15
-23 -39 -38 -165 -16 -138 -15 -148 1 -173 29 -45 57 -51 111 -24 90 45 150
124 259 342 87 175 97 200 84 213 -13 13 -17 12 -40 -6z"/>
<path d="M11071 29641 c-6 -10 -11 -88 -12 -173 -1 -169 6 -199 57 -232 50
-33 141 1 231 87 104 98 159 198 119 213 -12 5 -40 -17 -100 -77 -89 -88 -153
-129 -200 -129 l-28 0 7 144 c5 101 4 150 -4 165 -15 26 -57 28 -70 2z"/>
<path d="M12343 29596 c-120 -38 -205 -135 -287 -328 -38 -87 -76 -245 -76
-314 0 -47 26 -79 55 -68 17 7 75 116 75 142 0 7 -7 26 -15 41 -12 25 -13 36
-1 80 16 63 21 69 46 53 65 -41 288 33 383 126 55 54 92 138 82 188 -3 19 -20
45 -41 63 -32 29 -40 31 -107 30 -40 0 -91 -6 -114 -13z m186 -90 c15 -18 -38
-98 -89 -135 -86 -62 -267 -121 -284 -92 -14 22 17 82 69 136 81 82 157 114
250 107 24 -2 49 -10 54 -16z"/>
<path d="M14189 29570 c-105 -22 -211 -70 -239 -109 -38 -55 -18 -150 50 -236
56 -71 66 -91 51 -109 -21 -25 -83 -48 -205 -78 -151 -36 -204 -37 -236 -3
-13 14 -31 25 -40 25 -23 0 -50 -32 -50 -59 0 -31 53 -79 97 -87 39 -7 118 0
166 15 18 6 84 27 147 46 133 41 186 72 206 120 19 47 4 90 -69 186 -31 42
-57 83 -57 91 0 23 47 66 88 79 20 7 80 22 134 34 103 23 141 45 136 79 -4 28
-65 30 -179 6z"/>
<path d="M6960 28909 c-96 -4 -253 -12 -350 -18 -96 -6 -285 -18 -420 -27
-227 -14 -329 -22 -780 -59 -575 -48 -783 -63 -1020 -75 -113 -6 -241 -13
-285 -15 -44 -2 -235 -5 -424 -5 -345 -1 -420 -7 -453 -37 -29 -26 -39 -77
-54 -273 -22 -299 -61 -721 -68 -755 -3 -11 -10 -78 -16 -150 -14 -169 -65
-632 -89 -810 -52 -375 -70 -622 -61 -802 7 -130 16 -163 45 -163 28 0 34 32
40 220 7 226 13 302 60 690 19 157 42 341 50 410 18 151 71 713 85 900 5 74
15 198 21 275 5 77 14 193 18 258 6 90 12 122 25 135 15 15 59 18 409 24 216
3 419 9 452 12 33 3 155 11 272 16 190 9 492 31 1028 75 321 26 827 59 1145
75 107 5 221 12 253 15 99 10 575 7 692 -4 125 -13 247 -37 287 -57 49 -25 50
-34 27 -197 -9 -65 -19 -160 -54 -512 -66 -657 -107 -829 -358 -1510 -53 -143
-107 -298 -120 -345 -68 -238 -111 -380 -117 -391 -15 -23 -651 -29 -1180 -11
-321 11 -881 17 -1710 17 -359 0 -391 -2 -476 -22 -89 -21 -220 -76 -277 -115
-35 -25 -34 -66 4 -87 24 -13 28 -12 75 24 66 51 114 71 231 98 96 22 109 22
693 20 987 -4 1974 -14 2160 -21 l175 -7 -230 -8 c-126 -4 -351 -14 -500 -22
-148 -8 -403 -21 -565 -30 -446 -23 -712 -48 -861 -80 -41 -9 -99 -20 -129
-26 -81 -14 -100 -25 -100 -53 0 -28 33 -56 66 -56 11 0 47 9 80 20 105 37
403 73 779 95 143 9 393 24 555 35 558 38 1000 58 1400 62 l285 3 3 -26 c2
-21 -42 -285 -94 -554 -7 -38 -18 -149 -24 -245 -21 -354 -30 -448 -59 -590
-43 -213 -59 -367 -66 -630 -8 -303 -18 -415 -66 -690 -21 -124 -50 -314 -64
-424 -14 -109 -27 -201 -29 -205 -3 -4 -14 -52 -25 -106 -11 -55 -32 -149 -45
-210 -14 -60 -30 -135 -36 -165 -7 -30 -15 -73 -20 -95 -5 -22 -18 -98 -30
-168 -20 -118 -20 -130 -5 -153 35 -53 59 -16 84 131 27 150 57 296 114 545
51 224 61 280 82 445 9 66 31 215 50 330 53 323 65 438 75 735 11 338 21 425
75 685 21 102 33 232 45 470 10 200 17 257 79 600 11 61 25 154 31 209 6 54
13 102 16 107 3 5 61 9 130 9 145 0 136 13 104 -141 -10 -53 -24 -131 -30
-175 -6 -43 -20 -128 -31 -189 -11 -60 -24 -137 -28 -170 -5 -33 -22 -132 -40
-220 -17 -88 -37 -196 -46 -240 -8 -44 -28 -150 -45 -235 -28 -144 -51 -283
-101 -605 -32 -205 -42 -288 -99 -800 -11 -99 -25 -225 -31 -280 -41 -366
-110 -793 -161 -1003 -23 -93 -17 -112 33 -112 37 0 41 10 73 165 55 262 122
751 181 1309 35 337 77 662 114 881 48 289 74 435 116 655 72 372 74 383 115
620 42 244 68 419 72 490 l3 45 250 -3 c634 -8 1278 -24 1630 -43 680 -34
1051 -66 1465 -124 253 -36 441 -73 545 -107 91 -30 109 -32 124 -14 18 21 6
62 -22 80 -29 19 -452 104 -627 126 -480 62 -1054 110 -1500 125 -85 3 -281
10 -435 15 -154 5 -533 13 -843 17 -562 6 -562 6 -568 27 -3 12 0 42 6 66 7
25 15 72 20 105 24 193 109 737 140 894 10 53 23 125 29 161 6 36 35 162 65
280 30 118 59 242 66 275 6 33 17 89 25 125 13 59 19 94 45 245 11 60 36 237
50 355 17 139 18 489 1 528 -14 34 -54 53 -73 34 -7 -7 -12 -103 -13 -279 -2
-264 -7 -320 -50 -590 -34 -211 -88 -472 -134 -648 -75 -286 -152 -719 -201
-1125 -5 -41 -14 -100 -19 -130 -6 -30 -15 -108 -21 -173 -5 -66 -14 -125 -21
-133 -9 -11 -40 -14 -130 -14 -134 0 -132 -1 -109 80 28 96 82 402 131 740 20
136 47 263 89 409 23 80 59 231 80 337 21 105 62 275 90 375 60 217 80 336 80
480 0 66 9 160 25 255 31 178 35 375 10 424 -20 39 -60 41 -77 5 -8 -19 -8
-38 2 -80 15 -63 9 -191 -15 -305 -9 -41 -20 -160 -25 -265 -10 -211 -15 -242
-60 -400 -52 -183 -78 -292 -110 -460 -17 -88 -42 -200 -56 -250 -70 -244 -91
-347 -139 -685 -9 -63 -30 -187 -47 -275 -16 -88 -38 -205 -47 -260 -9 -55
-20 -106 -25 -113 -6 -9 -36 -12 -114 -10 -59 2 -222 0 -362 -3 -140 -4 -196
-4 -124 0 95 4 136 10 149 21 22 18 66 116 84 185 63 238 113 399 206 650 130
350 178 501 229 715 39 164 73 410 121 870 14 135 32 299 40 365 20 166 19
203 -8 250 -67 118 -367 160 -957 134z"/>
<path d="M9353 28716 c-10 -13 -27 -43 -37 -67 -10 -24 -36 -84 -57 -134 -21
-49 -56 -133 -77 -185 -22 -52 -54 -126 -71 -163 -17 -37 -31 -69 -31 -71 0
-7 -129 -276 -163 -341 -17 -33 -52 -100 -78 -150 -25 -49 -77 -148 -114 -220
-38 -71 -86 -170 -108 -220 -21 -49 -45 -103 -52 -120 -88 -197 -164 -407
-190 -528 -21 -95 -15 -150 22 -219 65 -119 244 -163 768 -188 121 -6 229 -13
241 -15 12 -3 291 -7 620 -11 l599 -6 52 -24 c63 -29 75 -30 99 -3 21 24 -19
24 554 -7 578 -31 846 -63 1465 -179 491 -92 651 -73 729 84 49 97 115 388
141 617 42 371 126 832 210 1144 27 102 46 223 52 326 8 135 -8 183 -71 213
-23 12 -49 21 -57 21 -8 0 -56 13 -107 29 -52 16 -125 35 -163 42 -65 12 -69
14 -80 47 -8 24 -21 38 -44 48 -100 42 -449 114 -765 158 -354 50 -396 55
-535 66 -77 6 -178 16 -225 22 -53 6 -443 12 -1035 13 -990 4 -1138 7 -1319
31 -144 18 -151 18 -173 -10z m242 -88 c54 -7 407 -12 1080 -13 1036 -2 995
-1 1490 -46 66 -6 176 -19 245 -29 69 -11 184 -26 255 -35 249 -30 585 -91
618 -112 26 -16 -19 -19 -98 -7 -115 16 -552 17 -615 1 -34 -9 -45 -17 -45
-31 0 -32 47 -37 284 -25 339 15 458 -3 999 -157 l52 -15 0 -54 c0 -107 -24
-239 -110 -600 -21 -88 -45 -203 -54 -255 -9 -52 -23 -131 -31 -175 -8 -44
-31 -192 -50 -330 -53 -373 -117 -678 -156 -757 -59 -116 -225 -123 -709 -33
-135 25 -274 50 -310 55 -36 5 -114 16 -175 24 -367 52 -752 83 -1528 122
l-129 6 -76 48 c-98 61 -228 150 -317 218 -38 29 -115 87 -170 128 -55 42
-101 79 -103 84 -2 5 6 14 18 20 28 15 249 89 445 150 255 79 366 118 385 135
10 9 24 30 31 46 10 26 10 33 -4 46 -15 15 -22 14 -84 -15 -38 -17 -156 -59
-263 -93 -271 -85 -411 -132 -513 -173 -48 -19 -94 -33 -102 -30 -7 3 -21 16
-29 30 -9 13 -47 58 -84 101 -124 143 -171 219 -213 342 -35 103 -53 131 -82
131 -26 0 -47 -17 -47 -38 0 -7 18 -58 39 -113 55 -139 134 -254 259 -377 60
-59 101 -107 96 -112 -5 -4 -38 -20 -74 -35 -248 -103 -454 -238 -578 -378
-30 -34 -58 -65 -61 -70 -11 -11 -333 21 -429 44 -205 47 -238 106 -177 312
64 215 258 665 415 962 105 199 208 406 240 483 17 40 51 115 75 167 25 52 45
97 45 100 0 4 92 215 133 305 32 70 35 73 87 66 25 -4 81 -12 125 -18z m362
-2079 c96 -99 310 -260 423 -317 14 -7 41 -27 60 -43 l35 -30 -190 5 c-104 3
-372 9 -595 12 -223 4 -426 10 -453 13 -47 6 -47 6 -32 28 26 37 156 136 255
195 125 74 390 208 412 208 9 0 48 -32 85 -71z"/>
<path d="M9310 27543 c-208 -14 -378 -41 -406 -63 -21 -18 -17 -44 11 -70 l25
-24 73 17 c232 56 594 60 1612 16 190 -8 254 -14 266 -25 18 -16 124 -19 163
-4 14 5 30 19 36 31 15 28 -4 67 -40 81 -14 5 -223 14 -465 19 -242 5 -501 13
-575 19 -122 9 -587 11 -700 3z"/>
<path d="M5126 27684 c-20 -19 -20 -26 -1 -97 40 -152 161 -316 437 -589 65
-64 118 -123 118 -130 0 -7 -26 -38 -59 -68 -62 -59 -194 -206 -276 -309 -27
-35 -62 -77 -76 -95 -76 -93 -87 -134 -44 -162 35 -23 56 -11 89 47 44 80 154
220 273 348 59 65 120 132 136 149 15 18 31 32 35 32 5 0 31 -22 58 -49 47
-47 263 -211 340 -259 53 -33 161 -72 199 -72 37 0 85 33 85 60 0 30 -25 42
-72 35 -36 -5 -54 0 -113 28 -119 59 -420 282 -420 312 0 20 99 100 280 227
118 83 300 176 414 213 45 15 94 37 108 49 22 19 24 25 14 44 -8 16 -21 22
-45 22 -71 0 -351 -120 -486 -208 -112 -74 -237 -167 -299 -224 -35 -32 -70
-58 -77 -58 -14 0 -210 206 -329 345 -108 127 -151 197 -181 295 -16 56 -34
93 -50 108 -30 26 -37 27 -58 6z"/>
<path d="M14835 25475 c-131 -40 -433 -163 -600 -245 -133 -65 -192 -110 -231
-176 -32 -54 -27 -79 21 -133 62 -68 194 -114 420 -146 66 -9 161 -23 211 -31
120 -18 198 -18 214 1 15 18 6 33 -27 46 -14 5 -134 25 -267 44 -132 19 -281
46 -330 59 -96 26 -169 69 -174 102 -4 28 85 109 167 153 l63 33 392 -6 c215
-4 490 -11 611 -16 518 -22 743 -31 947 -39 l217 -8 36 -31 c29 -26 39 -30 55
-22 48 26 3 109 -65 124 -16 3 -142 10 -280 16 -137 5 -358 14 -490 19 -208 9
-417 15 -830 25 -55 2 -172 0 -260 -4 -88 -3 -168 -4 -179 0 -26 9 101 62 309
130 129 42 174 53 233 54 74 1 91 10 92 47 0 51 -98 52 -255 4z"/>
<path d="M17042 25294 c-20 -13 -22 -24 -22 -97 -1 -134 -14 -174 -140 -414
-35 -68 -34 -93 3 -93 30 0 42 14 104 125 78 137 103 206 121 330 15 106 15
114 -1 139 -20 30 -34 32 -65 10z"/>
<path d="M17393 25280 c-29 -12 -55 -53 -51 -82 2 -18 10 -24 35 -26 27 -3 39
3 63 30 32 35 37 57 18 76 -14 14 -34 14 -65 2z"/>
<path d="M5900 25196 c-30 -7 -78 -24 -106 -39 -85 -43 -156 -139 -125 -170 8
-8 27 4 74 51 76 75 119 92 252 99 180 9 331 -41 429 -140 65 -67 88 -132 88
-246 -1 -140 -32 -223 -116 -306 -87 -87 -237 -156 -421 -196 -209 -44 -339
-7 -416 118 -33 54 -24 131 29 235 39 77 208 324 266 389 29 33 35 34 70 17
22 -9 29 -8 46 7 26 23 25 31 -5 60 -36 37 -94 34 -140 -7 -77 -67 -308 -398
-346 -496 -64 -162 -1 -311 165 -392 145 -72 373 -43 613 77 150 75 253 173
295 279 75 189 47 395 -71 513 -131 130 -376 192 -581 147z"/>
<path d="M9523 25008 c-4 -7 -8 -65 -9 -128 -1 -68 -10 -158 -23 -220 -83
-421 -99 -587 -72 -732 16 -82 32 -108 58 -92 12 8 17 22 16 45 -11 171 -2
302 33 504 56 330 65 394 67 496 2 83 -1 100 -17 118 -22 24 -41 27 -53 9z"/>
<path d="M18072 24987 c-18 -5 -47 -26 -63 -45 -29 -33 -31 -39 -25 -90 4 -30
11 -63 16 -73 8 -14 6 -23 -10 -39 -22 -22 -42 -25 -71 -10 -16 9 -19 22 -19
75 0 81 -5 92 -46 105 -44 15 -108 -5 -193 -60 l-60 -39 -13 27 c-17 35 -54
36 -80 1 -24 -32 -36 -132 -18 -154 22 -27 62 -16 130 35 65 50 168 110 189
110 5 0 15 -19 22 -42 16 -60 46 -116 68 -128 11 -5 48 -10 83 -10 68 0 118
-16 118 -38 0 -27 64 -91 120 -121 63 -34 96 -38 125 -17 30 22 10 45 -72 82
-43 19 -85 39 -93 44 -8 6 -27 15 -42 21 -16 6 -28 14 -28 18 0 15 36 38 135
87 103 51 175 110 175 144 0 62 -56 102 -167 119 -86 13 -136 13 -181 -2z
m214 -78 c75 -19 55 -44 -103 -125 -101 -51 -130 -55 -139 -19 -14 57 12 111
71 143 26 15 114 15 171 1z"/>
<path d="M17247 24842 c-10 -10 -17 -31 -17 -46 0 -15 -11 -47 -24 -73 -36
-67 -17 -96 45 -65 71 36 104 137 59 182 -25 25 -42 25 -63 2z"/>
<path d="M5898 23493 c-12 -13 -16 -43 -17 -111 -2 -199 -36 -510 -91 -847
-29 -177 -40 -275 -47 -425 -5 -118 -4 -137 10 -149 32 -26 45 -6 52 76 9 105
32 275 55 403 49 271 82 516 100 740 24 300 24 286 0 310 -25 25 -42 25 -62 3z"/>
<path d="M9273 23150 c-143 -29 -333 -138 -453 -260 -158 -161 -259 -443 -221
-619 46 -213 237 -381 486 -426 171 -31 327 -3 531 95 294 141 462 296 520
480 19 62 17 117 -6 185 -75 217 -342 351 -708 354 -84 1 -112 -10 -112 -43 0
-31 16 -36 103 -36 95 0 294 -33 384 -64 132 -45 218 -116 264 -220 23 -52 20
-106 -11 -188 -74 -197 -454 -434 -765 -478 -245 -35 -505 90 -575 277 -49
131 -34 292 45 458 54 115 104 177 207 258 93 72 131 93 262 145 85 33 98 35
199 34 117 -1 131 8 66 40 -37 19 -142 22 -216 8z"/>
<path d="M9534 23099 c-9 -15 70 -94 85 -85 17 11 13 23 -20 61 -32 36 -53 44
-65 24z"/>
<path d="M2802 21485 c-162 -42 -287 -119 -432 -266 -164 -165 -203 -306 -126
-456 48 -95 167 -177 303 -209 99 -23 288 -20 388 7 79 20 125 42 125 58 0 5
-7 14 -15 21 -13 11 -33 10 -108 -3 -296 -53 -548 20 -619 180 -56 128 -2 246
190 409 140 120 304 179 505 184 18 0 57 34 57 50 0 6 -9 19 -20 30 -28 28
-128 26 -248 -5z"/>
<path d="M5265 21413 c-183 -42 -291 -117 -321 -221 -20 -68 -13 -121 27 -201
35 -70 83 -115 193 -179 87 -51 136 -92 136 -115 0 -38 -120 -89 -238 -103
-73 -8 -198 17 -237 47 -53 42 -59 70 -65 262 -5 173 -6 179 -29 198 -47 38
-114 16 -226 -74 -38 -31 -73 -57 -77 -57 -5 0 -8 20 -8 44 0 48 -19 76 -49
76 -29 0 -38 -20 -44 -103 -4 -62 -13 -95 -43 -158 -43 -92 -40 -114 17 -114
28 0 38 7 66 45 19 25 51 68 72 96 40 53 183 157 208 152 11 -2 15 -30 17
-123 7 -232 50 -305 216 -361 74 -25 224 -26 301 -1 85 27 159 76 182 120 40
78 -6 150 -164 252 -111 73 -152 120 -170 200 -15 68 -2 103 50 139 89 62 240
100 291 74 30 -16 36 -40 48 -198 l10 -124 -49 -46 c-42 -39 -49 -52 -49 -83
0 -24 7 -44 21 -58 30 -30 53 -21 59 25 8 62 30 58 30 -6 1 -86 17 -190 33
-205 9 -9 23 -13 36 -8 18 5 21 14 21 65 0 32 -4 70 -10 84 -5 14 -10 53 -12
88 l-3 63 48 12 c26 6 85 15 129 19 l81 7 -30 -44 c-75 -109 -89 -166 -52
-213 30 -38 71 -56 126 -56 75 0 138 36 216 121 l67 73 0 -50 c0 -60 17 -87
51 -82 l24 3 0 150 0 150 -47 48 c-54 54 -67 56 -160 27 -34 -11 -121 -27
-193 -35 -71 -9 -154 -20 -184 -25 -30 -6 -58 -10 -62 -10 -3 0 -9 62 -12 138
-5 143 -16 191 -51 231 -39 43 -116 61 -191 44z m805 -433 c0 -25 -55 -116
-97 -161 -73 -78 -182 -121 -213 -84 -15 18 2 76 36 121 26 35 109 93 169 117
46 18 105 22 105 7z"/>
<path d="M3585 21225 c-102 -54 -145 -86 -208 -154 -152 -164 -135 -336 40
-423 58 -28 79 -33 163 -36 107 -5 166 8 277 58 85 39 177 129 193 190 26 96
-13 210 -100 300 -64 65 -128 94 -220 98 -71 4 -79 2 -145 -33z m242 -87 c71
-33 134 -120 147 -203 9 -57 -18 -101 -93 -152 -77 -53 -143 -74 -254 -80
-103 -6 -160 7 -211 48 -67 56 -66 129 1 224 47 66 97 105 133 105 15 0 35 9
45 20 10 11 32 22 50 26 18 3 45 14 61 24 32 21 55 19 121 -12z"/>
<path d="M7281 21102 c-5 -10 -17 -58 -26 -107 -28 -147 -33 -154 -105 -155
-56 -1 -123 -30 -145 -64 -24 -37 -16 -78 18 -90 24 -9 31 -6 60 22 20 20 48
35 70 39 33 5 37 3 37 -16 0 -11 -9 -44 -20 -73 -24 -63 -26 -114 -5 -122 37
-14 52 9 84 133 11 40 23 77 28 82 4 4 44 12 88 18 72 9 83 8 105 -8 49 -36
126 -68 260 -110 289 -92 380 -128 380 -151 0 -16 -76 -50 -173 -75 -100 -26
-292 -68 -372 -82 -41 -7 -51 -12 -53 -30 -5 -36 30 -47 134 -40 174 12 381
64 479 121 55 33 88 89 79 136 -14 67 -88 103 -433 207 -179 54 -221 70 -221
85 0 3 23 14 51 23 80 27 262 23 346 -6 73 -26 116 -20 121 19 8 53 -63 88
-208 103 -164 16 -292 -9 -365 -73 -41 -36 -46 -38 -114 -38 -84 0 -86 5 -45
97 31 72 41 137 24 158 -17 21 -67 19 -79 -3z"/>
<path d="M6812 20955 c-18 -8 -95 -55 -172 -105 -76 -49 -144 -90 -150 -90 -9
0 -11 11 -6 38 20 108 20 109 -7 127 -20 13 -30 14 -46 5 -22 -11 -26 -21 -41
-120 -14 -93 -13 -117 10 -140 43 -43 91 -24 301 123 52 36 79 46 79 29 0 -5
-16 -58 -35 -118 -47 -144 -51 -176 -30 -197 20 -21 68 -22 85 -2 7 8 9 26 5
43 -3 16 1 48 9 73 34 104 77 279 74 299 -5 37 -37 51 -76 35z"/>
<path d="M5250 20305 c-25 -7 -65 -20 -89 -29 -24 -9 -58 -16 -75 -16 -109 -1
-305 -86 -404 -176 -121 -109 -212 -289 -212 -418 0 -218 103 -358 320 -432
45 -16 84 -19 215 -19 177 0 234 12 381 80 98 45 259 154 321 217 112 115 177
271 177 428 0 83 -3 103 -28 157 -34 75 -95 135 -171 168 -112 50 -332 70
-435 40z m318 -80 c121 -28 195 -88 227 -184 41 -126 -29 -349 -150 -473 -87
-91 -258 -192 -410 -243 -196 -66 -448 -35 -573 70 -91 77 -126 235 -84 386
60 217 282 389 524 406 64 5 87 2 137 -16 47 -18 63 -20 80 -12 26 15 27 36 1
58 -15 13 -17 19 -7 26 16 11 176 0 255 -18z"/>
<path d="M7884 20075 c-26 -39 -6 -75 40 -75 53 0 84 51 50 84 -25 25 -71 20
-90 -9z"/>
<path d="M10770 20081 c-71 -23 -148 -62 -235 -121 -38 -25 -98 -63 -132 -84
-76 -45 -115 -89 -111 -125 2 -20 8 -26 28 -26 l25 0 -30 -77 c-18 -47 -37
-80 -48 -84 -9 -3 -50 -1 -90 5 -39 6 -106 12 -148 13 -86 3 -109 -8 -109 -52
0 -49 20 -55 171 -55 75 0 141 -3 145 -7 3 -4 -8 -48 -26 -98 -18 -50 -36
-108 -40 -128 -4 -20 -20 -90 -34 -154 -31 -142 -32 -169 -5 -194 35 -32 51
-9 75 112 21 109 100 420 110 436 9 14 59 9 192 -17 70 -13 144 -27 164 -30
l37 -6 -39 -61 c-34 -52 -40 -69 -40 -115 0 -68 28 -124 81 -163 124 -89 287
-47 433 112 39 43 74 78 79 78 4 0 7 -20 7 -44 0 -57 25 -178 47 -223 17 -37
75 -73 116 -73 14 0 35 8 47 18 28 23 18 52 -19 52 -62 0 -82 36 -101 185 -6
50 -13 101 -15 114 -1 14 4 39 12 57 18 37 13 69 -18 108 -17 22 -26 26 -52
21 -18 -3 -54 1 -82 10 -81 26 -232 31 -298 10 -31 -10 -72 -15 -94 -13 -89
11 -413 82 -413 91 0 15 118 238 145 273 27 36 191 137 260 161 42 14 57 14
106 4 63 -13 104 -2 114 29 22 69 -92 101 -215 61z m329 -692 c36 -6 74 -16
84 -21 17 -9 16 -11 -5 -50 -27 -47 -135 -142 -208 -182 -60 -33 -146 -44
-190 -26 -38 16 -70 59 -70 96 0 64 95 164 157 164 11 0 36 7 54 15 41 17 91
19 178 4z"/>
<path d="M11912 19963 c-46 -39 -68 -112 -105 -343 -42 -262 -63 -425 -72
-565 -6 -93 -5 -102 15 -128 36 -45 107 -27 81 22 -30 54 4 359 68 626 11 44
25 113 31 153 5 39 21 102 35 138 29 78 29 78 9 98 -20 21 -37 20 -62 -1z"/>
<path d="M8334 19736 c-109 -25 -184 -75 -184 -123 0 -82 100 -158 413 -314
159 -80 193 -103 213 -141 13 -24 13 -32 0 -57 -34 -64 -117 -116 -236 -147
-75 -19 -135 -12 -168 19 -27 25 -55 15 -60 -22 -10 -63 76 -107 191 -98 89 7
164 34 242 90 81 58 125 117 125 169 0 105 -56 155 -337 297 -122 62 -237 128
-259 147 l-39 36 23 18 c52 43 308 52 399 15 40 -17 44 -17 68 -1 46 30 26 66
-52 97 -74 28 -247 36 -339 15z"/>
<path d="M7840 19677 c-26 -58 -58 -256 -66 -408 -5 -110 -4 -127 11 -142 41
-42 59 -10 74 129 16 157 39 290 61 366 23 73 15 98 -31 98 -26 0 -33 -6 -49
-43z"/>
<path d="M15900 19610 c-82 -15 -315 -156 -452 -273 -129 -111 -306 -343 -392
-515 -86 -171 -145 -415 -131 -540 15 -136 72 -251 169 -348 83 -81 152 -119
247 -134 103 -16 193 10 187 53 -3 21 -10 22 -108 27 -125 7 -189 32 -260 102
-155 154 -180 359 -78 646 58 164 134 296 270 464 147 182 376 353 591 442 81
33 48 92 -43 76z"/>
<path d="M12420 19330 c-111 -14 -149 -45 -135 -110 7 -32 118 -142 240 -238
100 -79 211 -198 240 -256 36 -72 33 -101 -15 -147 -92 -88 -247 -91 -446 -9
-58 24 -85 -9 -41 -51 58 -56 226 -104 335 -96 78 6 195 61 241 112 101 116
40 245 -234 490 -49 44 -108 94 -130 109 -115 83 -115 106 -4 106 74 0 149
-23 195 -59 33 -26 55 -27 84 -3 88 71 -141 175 -330 152z"/>
<path d="M16811 19066 c-7 -8 -14 -34 -15 -58 -2 -29 -28 -97 -79 -204 -43
-89 -77 -165 -77 -168 0 -3 -13 -34 -29 -68 -15 -35 -38 -94 -51 -133 -55
-168 -82 -197 -94 -101 -10 77 -53 141 -114 169 -63 28 -194 30 -271 3 -72
-25 -145 -95 -161 -156 -32 -119 42 -238 161 -258 72 -12 178 3 258 37 40 17
78 31 83 31 7 0 8 -21 4 -57 -14 -114 -13 -128 10 -131 11 -2 32 6 46 17 21
17 26 31 31 85 9 96 148 431 323 777 76 150 86 186 58 213 -19 20 -68 21 -83
2z m-481 -644 c45 -22 91 -92 98 -147 l4 -44 -53 -16 c-72 -21 -246 -40 -293
-31 -48 9 -86 46 -86 83 0 112 215 213 330 155z"/>
<path d="M13460 19040 c-165 -23 -303 -99 -352 -194 -66 -129 10 -281 225
-449 91 -71 289 -199 352 -228 50 -23 94 -24 102 -3 7 19 -8 34 -67 66 -133
73 -328 212 -430 305 -61 56 -120 157 -120 205 0 107 155 200 356 215 132 9
296 -29 381 -90 65 -46 68 -81 9 -110 -57 -27 -142 -36 -369 -41 -234 -5 -250
-9 -245 -55 3 -22 10 -27 52 -35 64 -13 463 8 535 28 210 58 213 225 6 321
-116 54 -307 83 -435 65z"/>
<path d="M18112 18803 c-23 -9 -62 -101 -72 -170 -5 -37 -23 -108 -41 -158
-17 -49 -47 -148 -66 -220 -19 -71 -38 -134 -44 -139 -5 -6 -9 -16 -9 -24 0
-7 -12 -38 -26 -69 -30 -63 -24 -90 17 -85 24 2 40 18 112 105 47 59 70 60 86
8 7 -26 29 -55 62 -85 68 -61 131 -80 254 -74 99 4 145 22 145 57 0 17 -11 19
-127 23 -147 5 -211 26 -263 85 -38 43 -38 65 3 99 32 27 184 104 207 104 27
0 157 44 183 62 57 40 25 84 -56 75 -119 -12 -294 -96 -415 -197 -46 -39 -88
-70 -93 -70 -20 0 -6 43 74 227 50 115 66 164 77 240 5 36 21 90 36 120 22 42
26 58 17 71 -10 18 -39 25 -61 15z"/>
<path d="M21988 18619 c-24 -13 -23 -47 3 -106 23 -52 25 -83 34 -388 8 -289
-8 -375 -106 -570 -59 -116 -75 -141 -152 -233 -46 -54 -102 -106 -161 -148
-94 -67 -112 -86 -100 -105 30 -49 250 111 360 262 49 66 134 211 134 228 0 6
7 22 15 34 8 12 28 67 45 122 31 100 31 100 31 337 0 131 -2 242 -6 247 -7 13
-19 173 -16 232 3 86 -28 120 -81 88z"/>
<path d="M17621 18559 c-43 -17 -145 -95 -210 -160 -79 -80 -142 -167 -182
-253 -34 -72 -30 -96 15 -96 32 0 42 10 69 72 55 123 148 231 273 316 66 44
117 98 111 116 -5 15 -46 18 -76 5z"/>
<path d="M16848 18529 c-12 -6 -18 -22 -18 -45 0 -31 -4 -37 -35 -50 -20 -8
-44 -29 -55 -46 -25 -42 -60 -174 -60 -229 0 -73 47 -121 99 -99 35 14 57 52
75 130 8 35 21 67 28 71 19 12 38 11 38 -2 0 -6 14 -40 31 -75 52 -109 168
-178 203 -121 9 15 6 22 -18 40 -66 50 -153 145 -175 192 -13 28 -32 90 -42
139 -20 101 -33 118 -71 95z m-28 -260 c-25 -76 -47 -112 -63 -106 -28 9 4
133 52 197 l26 35 3 -31 c2 -17 -7 -60 -18 -95z"/>
<path d="M20277 18329 c-20 -5 -61 -21 -90 -35 -37 -19 -76 -29 -136 -35 -97
-9 -176 -44 -293 -130 -71 -51 -86 -82 -53 -109 21 -17 55 -6 111 38 78 61
145 99 203 116 71 21 101 21 101 -1 0 -21 18 -79 37 -118 19 -40 98 -99 180
-136 37 -16 77 -34 88 -39 34 -15 96 -29 190 -40 85 -11 92 -13 142 -57 47
-39 61 -46 112 -50 83 -8 121 2 189 48 33 21 80 45 104 53 23 7 101 45 172 85
71 40 141 75 157 78 42 8 79 -4 79 -27 0 -10 5 -22 10 -25 7 -4 10 -55 9 -136
-1 -105 1 -133 15 -154 19 -29 36 -31 65 -7 20 17 20 19 7 117 -8 55 -19 112
-25 127 -6 16 -8 41 -5 57 4 20 0 38 -13 57 -10 16 -24 38 -29 49 -6 11 -27
24 -47 29 -51 13 -101 -5 -220 -76 -106 -65 -185 -103 -194 -94 -3 3 14 22 38
43 111 97 120 116 58 121 -27 2 -43 -4 -76 -32 -59 -51 -106 -125 -99 -157 6
-32 -11 -49 -72 -72 -67 -26 -192 -18 -192 12 0 5 22 17 49 26 64 21 131 91
131 135 0 17 5 41 11 52 9 16 8 35 -2 75 -11 47 -17 57 -50 74 -52 26 -103 24
-154 -5 -54 -32 -95 -117 -95 -199 0 -48 -3 -57 -26 -72 -25 -16 -31 -16 -113
0 -122 24 -122 24 -76 47 87 44 135 111 135 189 0 135 -158 219 -333 178z
m214 -99 c14 -6 33 -26 43 -44 17 -32 17 -35 -3 -74 -37 -72 -98 -102 -178
-87 -62 11 -152 119 -138 165 5 16 55 43 100 54 33 8 148 -1 176 -14z m426
-122 c28 -26 29 -57 4 -106 -26 -50 -58 -78 -108 -92 -56 -17 -73 -9 -73 34 0
64 52 149 105 172 41 18 45 17 72 -8z"/>
<path d="M19290 18316 c-99 -21 -156 -70 -206 -180 -65 -142 -10 -246 136
-254 58 -4 77 0 122 21 29 14 72 40 95 58 24 18 45 30 48 28 2 -3 0 -19 -5
-35 -50 -162 -84 -275 -105 -359 -14 -55 -36 -131 -50 -170 -22 -60 -31 -73
-65 -93 -60 -34 -50 -82 16 -82 82 0 112 75 260 647 26 102 60 204 80 245 20
38 18 94 -2 102 -26 10 -64 -21 -85 -69 -64 -146 -269 -253 -363 -191 -26 16
-28 22 -23 62 6 54 47 117 99 152 52 34 110 43 172 27 44 -12 54 -12 74 1 12
8 22 21 22 29 0 22 -47 53 -101 64 -57 13 -48 13 -119 -3z"/>
<path d="M5316 18188 c-11 -55 -62 -353 -116 -673 -78 -464 -100 -659 -96
-863 2 -95 5 -116 23 -140 16 -21 28 -27 59 -27 46 0 57 24 26 58 -28 31 -31
71 -21 245 12 197 31 356 73 590 19 103 39 223 45 267 11 73 23 150 51 310 6
33 17 82 25 109 18 59 19 118 3 134 -7 7 -25 12 -40 12 -21 0 -29 -6 -32 -22z"/>
<path d="M7646 17184 c-19 -18 -20 -28 -6 -55 15 -28 147 -28 181 0 22 18 23
21 7 37 -31 32 -156 44 -182 18z"/>
<path d="M10444 17112 c-6 -4 -16 -16 -22 -27 -18 -35 -34 -186 -27 -256 6
-63 5 -68 -17 -82 -12 -9 -48 -23 -78 -33 -86 -27 -119 -67 -84 -105 24 -27
43 -24 119 16 36 20 70 33 76 30 5 -4 9 -21 9 -38 0 -45 25 -147 62 -252 18
-49 43 -123 57 -165 25 -71 28 -75 56 -75 28 0 30 3 33 40 2 27 -11 79 -39
160 -60 176 -99 310 -99 344 0 24 6 31 33 41 45 17 298 25 371 11 87 -16 100
-31 92 -111 -3 -36 -15 -94 -26 -128 -25 -80 -25 -114 0 -137 40 -37 93 -25
263 58 85 41 163 77 173 79 16 3 18 -3 14 -42 -9 -93 -5 -119 25 -161 55 -77
179 -129 312 -129 l72 0 11 -37 c5 -21 11 -51 12 -67 4 -36 31 -56 56 -40 19
13 20 39 1 103 -11 40 -10 45 6 57 10 8 33 14 49 14 27 -1 37 -9 71 -61 49
-73 169 -159 375 -267 151 -79 224 -102 249 -78 13 14 13 18 -4 36 -10 11 -22
20 -26 20 -4 0 -47 19 -96 41 -215 101 -442 261 -468 332 -4 9 25 37 88 85
156 117 177 159 115 219 -122 117 -280 24 -296 -175 -5 -67 -11 -74 -69 -86
-29 -7 -32 -5 -38 22 -3 17 1 64 10 106 18 89 10 116 -33 116 -55 0 -93 -55
-62 -86 12 -12 30 -153 21 -158 -38 -22 -188 2 -246 40 -53 35 -66 91 -40 177
11 38 12 54 3 70 -16 31 -27 37 -75 37 -55 0 -113 -20 -252 -86 -62 -30 -120
-54 -127 -54 -19 0 -17 27 6 95 11 32 20 82 20 112 0 48 -4 58 -37 94 -34 35
-47 41 -133 60 -79 17 -117 20 -220 15 -69 -3 -144 -8 -167 -12 -33 -5 -44 -3
-48 8 -7 17 18 169 37 235 11 37 10 44 -7 63 -19 21 -42 25 -61 12z m1752
-653 c9 -16 -45 -79 -100 -116 -27 -18 -52 -33 -57 -33 -26 0 15 96 58 136 27
25 86 33 99 13z"/>
<path d="M8545 17036 c-75 -19 -117 -40 -152 -75 -39 -39 -50 -86 -34 -155 14
-62 49 -115 167 -256 108 -129 175 -228 172 -255 -7 -50 -128 -65 -318 -41
-142 19 -215 47 -249 95 -22 30 -49 39 -85 25 -23 -9 -20 -66 3 -96 24 -31
114 -72 218 -99 108 -30 365 -33 434 -6 152 58 115 179 -142 468 -71 80 -109
150 -109 201 0 50 12 71 52 96 44 27 111 35 308 36 146 1 165 3 168 18 5 24
-24 36 -119 47 -109 14 -251 13 -314 -3z"/>
<path d="M7530 16629 c-7 -12 -9 -40 -5 -68 4 -28 0 -83 -9 -137 -29 -162 -18
-234 33 -234 31 0 41 22 41 90 0 36 7 92 15 123 17 66 20 199 5 228 -15 27
-66 26 -80 -2z"/>
<path d="M15523 16572 c-127 -45 -299 -172 -415 -306 -114 -131 -211 -339
-244 -516 -17 -97 -17 -304 0 -400 39 -210 148 -401 270 -470 86 -50 196 -37
225 27 15 33 -6 39 -73 23 -47 -11 -56 -10 -92 8 -37 19 -77 58 -130 129 -38
50 -71 126 -95 218 -32 122 -35 401 -5 509 58 215 183 415 338 539 123 100
221 153 313 172 89 18 116 35 99 63 -16 25 -123 27 -191 4z"/>
<path d="M16256 16004 c-9 -8 -17 -18 -17 -22 -1 -4 -3 -122 -5 -262 -1 -140
-9 -367 -17 -505 -10 -171 -12 -254 -5 -262 13 -16 43 -17 70 -2 18 10 19 17
14 72 -4 34 -2 132 3 217 6 85 13 218 15 295 3 77 8 211 12 298 6 166 1 187
-37 187 -9 0 -25 -7 -33 -16z"/>
<path d="M16666 15754 c-4 -9 0 -38 9 -63 11 -33 14 -75 11 -151 -2 -58 -4
-149 -5 -203 l-1 -99 -31 7 c-22 5 -36 2 -49 -10 -16 -15 -18 -30 -15 -126 2
-80 7 -116 19 -134 35 -54 101 -14 117 72 37 195 46 525 18 653 -13 58 -18 65
-41 68 -17 2 -28 -3 -32 -14z"/>
<path d="M17622 15659 c-17 -17 -19 -31 -15 -107 4 -67 -2 -129 -25 -272 -48
-291 -49 -301 -17 -338 47 -56 101 -42 219 60 37 32 73 57 80 55 16 -5 25 -89
19 -173 -7 -82 5 -114 42 -114 35 0 69 36 60 63 -8 25 -21 121 -30 220 -11
115 -57 137 -142 67 -26 -22 -70 -58 -96 -80 -27 -22 -57 -40 -68 -40 -27 0
-25 57 6 208 25 121 55 345 55 412 0 20 -5 41 -12 48 -18 18 -55 14 -76 -9z"/>
<path d="M4005 15486 c-25 -25 -69 -151 -114 -331 -17 -67 -48 -175 -70 -240
-23 -66 -41 -127 -41 -136 0 -9 9 -24 19 -33 39 -35 72 -4 156 147 45 82 91
133 129 143 15 3 29 4 32 2 2 -3 11 -58 20 -123 30 -234 82 -315 202 -315 53
0 101 25 185 98 77 67 78 67 135 22 105 -84 214 -109 312 -71 64 24 63 24 55
11 -9 -14 20 -57 43 -64 11 -4 61 12 123 40 57 25 111 48 120 51 12 3 24 -15
49 -79 51 -128 103 -203 163 -235 22 -11 32 -12 43 -2 23 19 17 35 -31 89 -52
58 -138 222 -133 253 3 17 34 31 201 88 109 37 205 73 213 80 19 16 18 48 -2
56 -24 9 -150 -23 -308 -78 -76 -27 -143 -46 -147 -43 -12 7 -31 80 -39 157
-8 74 -21 97 -54 97 -57 0 -60 -54 -10 -187 20 -52 32 -99 27 -103 -7 -7 -216
-80 -228 -80 -3 0 -5 9 -5 20 0 30 -24 35 -73 15 -78 -32 -213 -15 -277 35
-21 17 -23 21 -10 30 8 5 32 10 53 10 97 0 197 102 197 200 0 58 -21 101 -69
142 -67 57 -169 74 -228 38 -62 -38 -97 -154 -81 -270 4 -34 10 -65 13 -69 7
-13 -15 -34 -94 -90 -120 -87 -162 -98 -204 -55 -28 28 -39 70 -62 229 -16
114 -25 143 -51 166 -57 50 -114 31 -190 -62 -31 -38 -58 -68 -60 -66 -6 6
112 356 141 420 30 65 28 101 -6 110 -14 4 -29 -2 -44 -17z m816 -377 c30 -21
48 -68 41 -106 -9 -50 -93 -106 -175 -118 l-47 -7 0 71 c0 39 6 86 14 105 30
71 108 97 167 55z"/>
<path d="M21903 15406 l-28 -24 26 -29 c39 -41 51 -69 60 -142 5 -36 13 -91
19 -121 13 -71 14 -335 1 -423 -19 -126 -53 -231 -113 -347 -79 -152 -103
-182 -211 -273 -31 -27 -57 -55 -57 -63 0 -50 100 -5 186 83 40 41 78 94 105
146 23 45 50 93 61 106 10 13 18 33 18 45 0 12 4 26 10 32 19 19 52 210 56
319 12 418 -3 648 -46 700 -18 22 -55 18 -87 -9z"/>
<path d="M18237 15329 c-28 -16 -47 -71 -47 -133 0 -51 -2 -56 -24 -62 -32 -8
-60 -39 -52 -59 3 -9 20 -21 37 -27 30 -10 31 -12 24 -57 -4 -25 -14 -65 -22
-89 -8 -24 -13 -58 -11 -75 2 -26 8 -33 29 -35 42 -5 60 26 66 117 9 120 0
115 189 102 170 -12 244 -5 273 24 31 31 -6 42 -177 49 -187 8 -235 14 -259
31 -16 12 -16 18 15 91 35 86 38 104 20 122 -15 15 -37 15 -61 1z"/>
<path d="M17124 15290 c-126 -64 -193 -131 -164 -165 18 -22 65 -19 152 12 43
14 81 23 85 20 6 -6 -7 -179 -22 -292 -18 -138 -63 -275 -90 -275 -9 0 -26 23
-41 58 l-25 57 -25 -28 c-20 -24 -23 -35 -18 -70 12 -76 39 -107 93 -107 91 0
164 154 197 417 10 81 12 154 8 231 l-7 113 -37 29 c-21 17 -40 30 -42 30 -3
0 -31 -14 -64 -30z"/>
<path d="M19439 15100 c-90 -11 -143 -42 -184 -108 -80 -129 -22 -207 135
-180 64 12 92 24 182 85 36 25 71 44 76 42 6 -2 -9 -51 -32 -109 -150 -369
-192 -443 -273 -482 -38 -18 -48 -28 -48 -47 0 -18 8 -27 28 -34 38 -12 93 17
138 77 79 104 182 320 224 471 13 44 32 100 43 125 32 76 36 104 13 124 -27
24 -50 15 -123 -50 -87 -77 -253 -150 -302 -131 -27 10 -18 48 19 82 43 41
115 60 195 51 51 -6 62 -4 80 14 34 34 21 54 -45 65 -22 4 -47 8 -55 9 -8 2
-40 0 -71 -4z"/>
<path d="M20275 15056 c-16 -7 -39 -23 -49 -35 -24 -26 -36 -26 -81 0 -55 33
-147 37 -229 9 -75 -25 -98 -43 -94 -74 4 -30 54 -33 124 -7 64 24 133 27 172
7 26 -13 76 -60 187 -177 69 -72 171 -120 268 -127 83 -5 104 -14 117 -47 5
-13 25 -36 46 -51 30 -23 49 -29 103 -32 77 -4 136 19 136 53 0 19 -6 20 -85
17 -72 -3 -90 0 -118 18 -29 18 -32 23 -21 36 7 9 37 26 65 39 69 30 105 84
115 168 12 101 -33 166 -120 175 -45 4 -52 1 -85 -29 -33 -30 -39 -43 -51
-114 -8 -44 -14 -97 -15 -118 0 -57 -28 -66 -122 -37 -83 25 -148 56 -148 70
0 5 15 16 34 24 41 17 73 61 81 112 5 34 2 44 -25 76 -45 55 -137 74 -205 44z
m128 -75 c59 -23 38 -82 -36 -102 -60 -16 -87 -1 -87 50 0 28 5 43 18 50 22
13 73 14 105 2z m456 -67 c16 -37 13 -64 -12 -109 -21 -37 -85 -84 -116 -85
-36 0 27 214 66 222 30 7 50 -2 62 -28z"/>
<path d="M7972 15003 c-20 -8 -29 -33 -56 -153 -45 -209 -49 -234 -50 -332 -1
-83 2 -100 20 -125 23 -31 66 -42 90 -22 21 17 17 36 -12 61 -24 21 -25 27
-19 83 9 87 42 246 72 352 24 87 25 94 9 118 -16 24 -28 29 -54 18z"/>
<path d="M6671 14934 c-43 -55 -67 -194 -53 -312 14 -113 45 -194 96 -250 74
-81 158 -94 264 -41 85 42 149 103 223 211 35 51 92 124 127 161 68 73 76 100
29 105 -24 3 -39 -7 -90 -60 -34 -35 -90 -103 -125 -150 -92 -127 -174 -185
-278 -195 -52 -6 -55 -5 -93 33 -48 48 -65 116 -65 254 -1 89 2 99 32 152 37
67 39 79 14 101 -27 24 -58 21 -81 -9z"/>
<path d="M21395 14891 c-27 -10 -79 -34 -115 -54 -36 -20 -83 -43 -104 -52
l-39 -17 17 27 c23 34 14 55 -23 55 -60 0 -118 -80 -92 -128 6 -11 23 -25 39
-31 42 -18 94 -1 238 75 143 75 178 81 188 32 4 -18 1 -66 -5 -105 -10 -63
-10 -76 5 -98 18 -27 36 -31 66 -15 18 10 19 20 15 153 -4 131 -6 143 -26 159
-28 23 -98 22 -164 -1z"/>
<path d="M7472 14773 c-6 -10 -13 -38 -17 -63 -6 -38 -17 -55 -70 -106 -62
-61 -105 -141 -105 -195 0 -34 29 -78 55 -85 48 -12 92 37 124 139 22 66 31
50 45 -77 3 -26 18 -71 33 -98 46 -84 96 -108 144 -70 28 24 20 48 -19 57 -31
6 -51 24 -70 61 -19 37 -41 206 -40 317 0 71 -4 112 -12 122 -17 20 -57 19
-68 -2z m-73 -295 c-7 -13 -14 -18 -16 -11 -3 7 1 22 8 35 7 13 14 18 16 11 3
-7 -1 -22 -8 -35z"/>
<path d="M8124 14585 c-19 -48 44 -180 101 -212 73 -41 133 -27 220 52 l49 44
28 -49 c15 -27 32 -51 38 -55 5 -3 10 -18 10 -33 0 -85 52 -159 219 -315 108
-101 183 -147 238 -147 46 0 98 23 117 52 25 38 29 124 11 218 -28 137 -29
167 -10 196 27 42 78 57 165 50 88 -8 121 5 102 41 -17 31 -83 53 -163 53 -90
0 -138 -23 -174 -85 -38 -64 -37 -111 5 -310 11 -52 3 -92 -23 -110 -52 -37
-102 -9 -262 144 -139 134 -175 186 -109 161 46 -18 126 -11 169 13 48 27 91
96 101 159 6 45 4 50 -28 82 -73 73 -190 70 -266 -7 -22 -23 -45 -54 -51 -69
-14 -37 -27 -35 -47 5 -9 17 -23 36 -31 40 -8 5 -11 16 -8 26 3 10 -1 24 -10
31 -16 13 -22 11 -135 -67 -94 -65 -132 -56 -165 37 -8 24 -20 49 -26 57 -15
18 -58 17 -65 -2z m754 -123 c5 -30 -53 -87 -101 -100 -45 -12 -107 -5 -114
14 -7 18 33 72 71 95 23 14 46 19 86 17 49 -3 55 -6 58 -26z"/>
<path d="M10612 14410 c-67 -10 -165 -58 -224 -109 -52 -46 -138 -167 -173
-244 -46 -100 -45 -191 2 -247 83 -99 242 -91 362 18 28 26 75 80 104 121 29
41 57 76 62 78 6 2 10 -46 10 -130 1 -139 8 -170 53 -210 23 -21 60 -19 75 4
7 11 2 27 -19 58 -35 54 -42 127 -24 293 14 137 10 165 -26 174 -33 8 -50 -8
-112 -109 -58 -96 -188 -227 -253 -257 -59 -26 -108 -25 -150 3 -31 21 -34 28
-33 69 0 70 63 187 144 269 84 86 131 109 229 115 98 7 116 11 135 30 20 20
20 48 0 68 -17 17 -70 19 -162 6z"/>
<path d="M11490 14353 c-8 -3 -39 -15 -69 -26 -29 -10 -72 -36 -94 -56 -55
-49 -277 -348 -277 -373 0 -36 19 -58 51 -58 25 0 34 8 57 46 51 86 160 249
189 280 15 18 46 44 68 58 45 28 147 66 180 66 36 0 72 -49 84 -112 6 -32 17
-71 25 -87 23 -43 100 -106 161 -131 30 -12 55 -26 55 -30 0 -4 32 -33 70 -65
123 -99 248 -139 300 -97 23 19 24 22 9 37 -9 9 -48 24 -86 34 -79 20 -155 55
-179 82 -15 17 -14 18 12 24 133 30 203 104 206 218 2 64 -22 102 -85 138 -56
31 -145 32 -203 2 -79 -42 -131 -126 -122 -199 3 -30 1 -34 -18 -34 -32 0 -61
42 -75 108 -21 104 -29 122 -71 153 -36 25 -49 29 -107 28 -36 0 -73 -3 -81
-6z m668 -139 c33 -23 29 -66 -10 -110 -43 -49 -99 -74 -170 -74 -57 0 -57 0
-63 34 -7 37 13 92 43 119 52 47 155 63 200 31z"/>
<path d="M14549 14309 c-13 -13 -19 -28 -15 -42 3 -11 -4 -64 -14 -116 -18
-89 -29 -137 -81 -346 -25 -102 -36 -273 -20 -303 12 -22 45 -29 67 -14 7 4
13 52 16 117 5 90 16 152 62 335 62 247 81 357 64 377 -16 20 -55 16 -79 -8z"/>
<path d="M2078 14300 c-22 -13 -53 -97 -69 -190 -19 -110 -16 -409 4 -484 25
-94 83 -136 185 -136 49 0 137 32 173 63 58 49 117 160 186 347 19 52 52 137
74 188 21 51 39 100 39 107 0 20 -17 28 -45 21 -32 -8 -65 -65 -115 -201 -43
-116 -136 -307 -172 -356 -63 -85 -196 -100 -235 -26 -15 27 -17 64 -18 242 0
241 12 304 65 344 31 23 39 58 18 79 -14 14 -66 15 -90 2z"/>
<path d="M3733 14280 c-62 -37 -92 -122 -58 -160 34 -37 66 -23 79 35 4 17 20
49 37 72 47 66 13 97 -58 53z"/>
<path d="M13096 14188 c-9 -12 -16 -34 -16 -48 0 -36 -29 -197 -45 -250 -73
-241 -76 -252 -64 -266 16 -19 53 -18 72 4 8 9 27 58 42 107 35 116 79 213
112 247 57 60 66 26 34 -138 -34 -174 -33 -168 -10 -197 43 -56 76 -36 192
118 114 150 169 215 183 215 8 0 6 -27 -7 -87 -30 -144 -24 -203 22 -203 29 0
41 28 45 102 3 40 11 96 19 125 8 28 18 78 21 111 6 56 5 61 -18 76 -19 12
-32 14 -50 7 -31 -12 -144 -128 -220 -227 -67 -88 -118 -147 -123 -142 -2 2 7
62 21 133 29 159 29 175 3 209 -31 40 -73 33 -131 -22 -15 -14 -30 -23 -33
-20 -3 3 2 34 12 70 9 35 14 72 10 81 -9 24 -53 21 -71 -5z"/>
<path d="M4703 14148 c-19 -24 -22 -64 -12 -129 9 -56 11 -187 6 -353 -4 -94
55 -90 134 10 66 83 131 117 221 117 74 -1 102 -22 95 -69 -8 -45 -69 -173
-101 -211 -41 -49 -119 -83 -188 -83 -54 0 -58 -2 -64 -27 -13 -50 67 -76 158
-49 122 35 193 112 243 261 62 182 18 255 -154 255 -93 0 -134 -14 -198 -66
-24 -20 -46 -35 -48 -32 -2 2 -5 84 -6 182 -3 191 -7 206 -53 206 -13 0 -28
-6 -33 -12z"/>
<path d="M14152 14064 c-13 -9 -40 -42 -59 -73 -79 -125 -154 -177 -212 -147
-50 26 -101 -7 -86 -55 7 -21 81 -59 116 -59 42 0 124 46 163 91 61 71 157
220 154 238 -4 22 -48 25 -76 5z"/>
<path d="M3625 14051 c-76 -27 -150 -67 -190 -103 -45 -38 -70 -87 -107 -203
-32 -102 -37 -170 -12 -179 55 -21 88 16 97 108 8 90 34 170 65 207 38 46 176
111 227 107 58 -4 68 -31 75 -206 4 -127 7 -145 24 -158 24 -17 28 -17 49 -1
14 10 17 31 18 117 3 183 -19 277 -73 314 -30 21 -110 20 -173 -3z"/>
<path d="M4193 14023 c-32 -35 -144 -214 -188 -302 -56 -111 -57 -159 -5 -186
44 -23 98 -18 166 14 75 35 123 89 176 199 22 45 44 82 49 82 5 0 9 -1 9 -2 0
-2 9 -48 19 -102 21 -107 44 -149 83 -154 42 -5 50 17 29 79 -28 77 -57 195
-66 259 -14 101 -50 136 -93 90 -10 -11 -29 -57 -41 -102 -17 -66 -32 -95 -77
-154 -73 -95 -157 -152 -194 -129 -20 12 68 164 195 334 29 39 32 63 9 85 -22
23 -42 20 -71 -11z"/>
<path d="M15320 13890 c-25 -25 -25 -42 -2 -63 26 -24 183 -24 203 -1 47 56
-147 118 -201 64z"/>
<path d="M14875 13875 c-19 -18 -25 -35 -25 -66 l0 -42 -41 7 c-45 7 -69 -5
-69 -34 0 -17 31 -49 73 -75 14 -9 13 -18 -9 -85 -13 -42 -23 -93 -22 -115 3
-35 6 -40 29 -43 39 -4 55 19 63 88 14 118 18 121 142 98 55 -10 66 -9 88 6
55 35 14 68 -101 81 -85 10 -89 14 -74 66 21 72 24 108 11 124 -18 21 -37 19
-65 -10z"/>
<path d="M5280 13861 c-17 -33 -12 -237 9 -323 22 -95 38 -119 104 -163 75
-49 185 -83 313 -95 140 -13 214 -1 214 36 0 22 -62 44 -127 44 -113 1 -303
38 -303 60 0 6 13 10 29 10 90 0 221 85 221 143 0 63 -95 127 -200 135 -58 4
-72 1 -120 -24 -30 -16 -58 -30 -62 -32 -12 -6 -9 83 4 132 10 38 9 48 -5 70
-21 31 -62 35 -77 7z m330 -251 c51 -26 45 -41 -33 -80 -89 -44 -197 -40 -197
8 0 19 39 61 75 80 33 18 112 14 155 -8z"/>
<path d="M2936 13855 c-16 -16 -29 -58 -42 -130 -10 -57 -79 -191 -109 -211
-71 -47 -97 56 -43 173 23 48 35 60 91 88 50 25 66 47 48 69 -19 23 -54 20
-110 -9 -56 -28 -84 -63 -117 -144 -28 -67 -32 -176 -9 -221 33 -63 116 -76
188 -29 41 28 63 61 91 142 12 33 25 60 30 61 4 0 19 -28 32 -64 27 -74 62
-110 104 -110 27 0 60 22 60 40 0 5 -18 22 -39 39 -45 36 -77 116 -91 227 -5
36 -14 71 -20 79 -16 19 -45 19 -64 0z"/>
<path d="M16302 13707 c-6 -7 -16 -35 -23 -62 -6 -28 -29 -103 -51 -168 -21
-65 -41 -144 -44 -175 -6 -54 -4 -59 25 -86 27 -26 35 -28 81 -23 43 5 50 4
50 -11 0 -30 37 -78 73 -95 19 -9 55 -17 79 -17 54 0 152 46 195 91 82 88 52
195 -62 219 -69 14 -123 1 -231 -55 -47 -25 -96 -45 -110 -45 -24 0 -25 3 -19
33 4 17 31 93 60 167 61 156 73 204 55 225 -15 18 -64 20 -78 2z m321 -408
c20 -5 37 -14 37 -19 0 -19 -60 -76 -103 -98 -76 -38 -157 -24 -157 27 0 26
30 49 97 77 66 27 74 28 126 13z"/>
<path d="M17028 13661 c-41 -9 -86 -35 -95 -57 -3 -8 -2 -25 1 -39 12 -49 83
-40 154 19 39 34 42 63 6 76 -14 6 -26 9 -27 9 -1 -1 -18 -5 -39 -8z"/>
<path d="M15335 13614 c-12 -12 -14 -27 -9 -59 3 -25 1 -59 -6 -80 -14 -44 0
-68 39 -63 46 5 92 102 77 162 -13 52 -67 74 -101 40z"/>
<path d="M15720 13590 c-15 -15 -18 -25 -11 -39 16 -29 31 -37 116 -64 44 -14
119 -39 167 -56 69 -25 92 -29 112 -21 60 22 19 67 -99 110 -33 12 -80 31
-105 42 -116 53 -150 58 -180 28z"/>
<path d="M6215 13574 c-11 -2 -45 -9 -75 -15 -102 -21 -180 -77 -180 -131 0
-22 14 -38 78 -85 97 -73 192 -165 192 -186 0 -21 -39 -46 -82 -54 -57 -9
-144 15 -193 53 -63 47 -105 42 -105 -12 0 -65 110 -121 257 -131 71 -5 87 -3
128 17 62 30 88 71 81 129 -3 24 -16 59 -27 78 -21 34 -132 133 -149 133 -18
0 -69 51 -64 65 8 20 77 43 178 60 97 15 128 33 110 63 -8 13 -26 17 -70 19
-32 0 -68 -1 -79 -3z"/>
<path d="M16872 13398 c-5 -7 -15 -38 -21 -68 -6 -30 -25 -83 -41 -117 -33
-68 -36 -83 -18 -101 20 -20 45 -13 76 22 55 63 100 227 72 261 -15 18 -54 20
-68 3z"/>
<path d="M20428 13381 c-17 -14 -28 -37 -37 -78 -50 -242 -55 -253 -118 -253
-35 0 -73 -25 -73 -49 0 -26 20 -41 57 -41 38 0 41 -11 18 -75 -25 -68 -15
-105 27 -105 25 0 44 36 52 94 9 70 28 88 90 84 45 -3 51 -5 47 -23 -2 -11 -5
-49 -8 -85 -5 -78 14 -123 66 -157 40 -27 121 -31 161 -8 14 8 48 14 76 15 54
0 64 8 64 52 0 11 17 52 37 90 40 73 39 100 -5 106 -33 5 -82 -25 -82 -51 0
-41 -36 -84 -94 -111 -71 -34 -108 -34 -135 0 -28 36 -26 65 7 96 42 41 73 49
136 36 43 -9 58 -9 70 1 23 19 5 45 -51 72 -40 19 -62 23 -128 22 -82 -2 -183
11 -197 25 -8 8 62 188 98 254 21 38 18 74 -8 92 -29 21 -40 20 -70 -3z"/>
<path d="M18087 13334 c-63 -20 -141 -94 -157 -150 -10 -34 -10 -50 4 -96 26
-92 157 -218 224 -218 88 0 83 35 -15 102 -92 63 -123 104 -123 164 0 97 131
155 237 103 24 -11 56 -37 72 -56 31 -38 65 -42 85 -11 17 28 -5 69 -58 109
-78 59 -185 80 -269 53z"/>
<path d="M17176 13314 c-9 -8 -16 -19 -16 -24 0 -17 -39 -21 -104 -10 -74 12
-106 3 -106 -30 0 -36 37 -57 111 -64 71 -7 71 -7 64 -34 -3 -15 -20 -55 -36
-88 -19 -37 -29 -73 -27 -90 3 -26 7 -29 38 -29 30 0 37 5 57 40 12 22 25 56
29 75 16 99 41 113 132 80 53 -19 63 -20 89 -8 63 30 19 74 -99 98 -56 11 -58
12 -58 44 0 52 -40 74 -74 40z"/>
<path d="M19005 13190 c-23 -11 -61 -40 -84 -64 -49 -50 -57 -92 -24 -128 22
-24 73 -22 253 11 110 20 200 27 200 16 0 -3 -14 -34 -32 -68 -56 -110 -39
-210 43 -253 46 -23 196 -54 270 -54 79 0 125 17 180 67 63 57 106 158 95 224
-5 28 -2 38 10 43 27 10 78 6 104 -9 33 -19 94 -19 110 0 18 22 -17 58 -73 75
-23 8 -47 17 -53 21 -6 5 -35 11 -65 14 -44 5 -60 2 -86 -14 -39 -25 -52 -64
-29 -90 21 -23 20 -43 -5 -94 -60 -116 -116 -150 -248 -150 -65 0 -97 5 -133
20 -84 38 -86 77 -13 195 25 40 45 80 45 90 0 27 -34 56 -78 68 -46 12 -203
-1 -320 -26 -41 -9 -76 -13 -79 -11 -3 3 12 14 34 25 21 11 49 32 63 47 l25
27 -24 19 c-29 24 -36 24 -86 -1z"/>
<path d="M18493 13139 c-29 -11 -53 -48 -53 -84 0 -39 49 -123 94 -163 44 -39
134 -67 183 -57 20 3 49 20 66 36 26 26 29 35 23 70 -11 67 -38 112 -87 145
-26 17 -64 34 -85 37 -22 4 -57 10 -80 15 -22 5 -50 5 -61 1z m172 -111 c77
-39 72 -108 -8 -108 -49 0 -136 81 -123 115 5 14 15 16 59 10 28 -4 61 -12 72
-17z"/>
<path d="M21128 13130 c-21 -13 -43 -81 -63 -198 -17 -102 -14 -128 16 -137
14 -5 18 -12 13 -30 -7 -27 18 -45 61 -45 38 0 160 53 230 100 33 22 63 40 66
40 4 0 9 -19 13 -42 4 -23 12 -48 17 -55 26 -31 85 44 73 92 -8 34 -75 85
-110 85 -17 0 -65 -21 -114 -50 -78 -46 -188 -95 -196 -87 -8 8 28 143 55 205
34 76 38 101 19 120 -14 14 -56 15 -80 2z"/>
<path d="M21600 13010 c-26 -26 -23 -47 10 -71 22 -15 33 -16 88 -6 52 9 65 8
77 -4 14 -13 12 -22 -16 -78 -24 -48 -29 -65 -20 -74 9 -9 24 1 64 45 40 44
61 59 90 64 41 7 43 10 22 38 -8 11 -15 32 -15 48 0 35 -24 48 -91 47 -30 0
-84 3 -121 6 -59 6 -69 4 -88 -15z"/>
<path d="M22058 12914 c-38 -20 -36 -55 5 -100 32 -35 33 -36 73 -24 46 14 69
5 178 -69 47 -31 63 -38 78 -30 53 28 -15 97 -176 179 -65 33 -121 60 -125 60
-3 -1 -18 -8 -33 -16z"/>
<path d="M4797 12913 c-15 -14 -6 -41 23 -68 26 -25 33 -27 41 -15 10 16 3 58
-13 77 -11 14 -40 17 -51 6z"/>
<path d="M22160 12657 c0 -7 13 -28 30 -47 16 -19 29 -47 30 -61 0 -14 9 -34
20 -44 13 -12 20 -31 20 -57 0 -24 5 -41 14 -44 8 -3 17 -13 20 -21 8 -19 -38
-99 -64 -113 -28 -15 -95 -12 -138 6 -41 17 -93 12 -112 -11 -17 -21 2 -42 65
-71 60 -29 178 -33 224 -9 49 25 93 150 61 170 -5 3 -7 18 -4 33 6 30 -18 107
-41 131 -8 9 -23 26 -35 39 -11 12 -20 30 -20 41 0 10 -9 30 -21 45 -22 27
-49 35 -49 13z"/>
<path d="M5092 12572 c-20 -14 -157 -210 -227 -327 -132 -222 -124 -279 49
-364 46 -22 113 -48 149 -56 103 -24 100 -22 94 -74 -3 -25 -10 -75 -16 -111
-5 -36 -11 -103 -13 -150 l-3 -85 30 0 c29 0 31 3 42 60 7 33 16 105 21 160 5
55 14 112 21 128 10 26 13 27 88 27 92 0 162 27 206 80 51 60 16 76 -76 35
-78 -36 -183 -46 -193 -20 -7 17 34 201 77 347 12 40 35 88 60 120 50 67 50
101 1 106 -45 5 -101 -52 -131 -133 -33 -87 -68 -228 -81 -325 -6 -46 -14 -88
-17 -93 -19 -31 -290 84 -308 131 -12 32 134 286 222 387 54 62 81 128 63 150
-14 16 -38 19 -58 7z"/>
<path d="M5036 12287 c-28 -20 -17 -52 18 -52 39 0 58 31 32 51 -24 17 -28 17
-50 1z"/>
<path d="M6394 12276 c-50 -36 -90 -184 -119 -436 -9 -80 -21 -167 -26 -194
-12 -65 4 -100 48 -104 42 -4 73 17 134 95 28 35 56 62 62 60 7 -2 17 -45 23
-106 15 -129 35 -176 81 -192 26 -8 41 -8 63 1 49 20 46 48 -7 64 -30 9 -50
76 -62 204 -11 118 -26 152 -70 152 -23 0 -42 -16 -100 -80 -69 -76 -93 -91
-86 -52 2 9 16 85 30 167 46 267 53 291 91 336 47 56 44 93 -6 97 -19 1 -44
-4 -56 -12z"/>
<path d="M6005 12040 c-200 -21 -337 -94 -394 -213 -73 -151 -2 -429 122 -476
63 -24 172 0 165 36 -2 14 -17 19 -66 24 -81 8 -113 36 -137 122 -21 75 -22
200 -2 248 40 95 154 150 339 164 130 9 147 14 164 41 16 23 15 26 -1 44 -20
22 -56 24 -190 10z"/>
<path d="M7497 11973 c-4 -3 -7 -21 -7 -38 0 -35 -85 -166 -119 -184 -17 -9
-19 -4 -30 60 -19 117 -49 152 -116 135 -33 -8 -53 -49 -35 -71 7 -8 19 -15
26 -15 35 0 59 -88 73 -273 9 -115 20 -140 59 -135 41 5 47 27 33 118 l-14 81
55 49 c30 27 72 74 93 104 21 31 41 56 45 56 3 0 12 -116 19 -257 14 -277 21
-313 65 -313 43 0 48 18 36 136 -6 60 -17 200 -24 312 -16 238 -18 242 -101
242 -28 0 -55 -3 -58 -7z"/>
<path d="M8837 11968 c-29 -10 -43 -43 -32 -77 9 -28 55 -28 106 1 38 21 58
56 44 77 -8 14 -81 13 -118 -1z"/>
<path d="M6974 11928 c-4 -6 -7 -26 -6 -44 1 -27 -4 -37 -26 -48 -40 -21 -81
-68 -92 -106 -5 -18 -13 -73 -16 -121 -11 -143 23 -204 101 -185 32 8 62 57
71 113 3 24 10 45 14 48 4 2 15 -44 24 -103 20 -122 38 -168 69 -176 58 -15
89 60 43 103 -16 15 -30 47 -41 94 -9 40 -19 81 -22 92 -3 11 -9 61 -13 110
-12 123 -26 203 -40 221 -15 17 -56 19 -66 2z m-16 -272 c-9 -91 -21 -136 -38
-136 -19 0 -11 141 10 188 11 24 23 41 28 38 4 -2 4 -43 0 -90z"/>
<path d="M9302 11809 c-107 -18 -192 -71 -192 -120 0 -34 32 -113 102 -254 94
-187 118 -268 84 -281 -24 -9 -63 25 -80 70 -21 55 -48 80 -75 71 -81 -25 -12
-154 116 -216 37 -18 48 -19 78 -9 100 33 85 139 -61 440 l-75 155 25 22 c14
12 51 26 83 32 111 21 156 36 167 54 25 41 -48 57 -172 36z"/>
<path d="M8812 11688 c-16 -16 -15 -90 3 -185 8 -43 15 -116 15 -163 0 -92 15
-130 50 -130 47 0 61 78 40 220 -5 36 -10 103 -11 150 0 62 -5 90 -16 103 -18
20 -63 23 -81 5z"/>
<path d="M11256 11674 c-22 -21 -20 -33 14 -102 30 -60 39 -125 20 -137 -5 -3
-37 -1 -70 6 -47 9 -63 9 -75 -1 -39 -33 -3 -73 75 -85 85 -12 83 -10 76 -74
-15 -118 -14 -126 16 -129 38 -5 51 25 43 97 -9 82 -3 85 131 62 192 -34 198
-34 225 -12 21 17 22 21 9 34 -14 14 -156 46 -275 63 -78 10 -78 10 -82 120
-2 55 -9 112 -15 127 -18 45 -63 61 -92 31z"/>
<path d="M10108 11599 c-26 -14 -37 -68 -48 -234 -14 -198 -2 -245 61 -245 43
0 92 50 185 191 84 128 120 163 180 174 54 10 58 0 58 -152 l1 -138 26 -3 c46
-5 53 17 51 158 -2 192 -23 226 -132 218 -90 -6 -140 -42 -207 -146 -31 -48
-71 -111 -89 -139 -55 -86 -69 -67 -54 70 6 50 19 110 30 135 25 55 25 84 2
105 -21 19 -39 21 -64 6z"/>
<path d="M10812 11578 c-17 -17 -15 -35 9 -57 19 -18 20 -23 8 -58 -18 -54
-16 -160 5 -208 75 -174 296 -160 296 18 0 134 -72 227 -221 288 -81 33 -81
33 -97 17z m173 -140 c52 -41 82 -148 55 -198 -43 -81 -140 -6 -140 108 0 52
12 90 34 104 16 11 21 10 51 -14z"/>
<path d="M13673 11469 c-34 -10 -73 -51 -73 -78 0 -25 21 -41 53 -41 56 0 126
107 81 124 -18 7 -19 7 -61 -5z"/>
<path d="M14236 11441 c-15 -17 -16 -25 -7 -53 8 -24 8 -88 0 -228 -17 -300
-18 -274 10 -278 14 -2 33 6 50 21 36 34 92 67 114 67 22 0 17 -24 -20 -88
-31 -54 -64 -77 -92 -63 -28 16 -39 14 -51 -10 -14 -25 8 -64 40 -74 32 -10
86 13 118 50 33 37 79 129 89 175 13 67 -67 101 -154 65 -20 -8 -38 -13 -41
-10 -3 3 2 56 11 118 9 61 19 151 23 198 6 80 4 89 -15 108 -26 26 -53 27 -75
2z"/>
<path d="M12714 11360 c-25 -10 -64 -57 -64 -77 0 -8 -11 -39 -25 -69 -32 -71
-32 -94 4 -128 28 -27 34 -28 82 -22 64 9 92 23 160 81 29 25 56 45 59 45 3 0
12 -22 19 -50 21 -80 96 -127 164 -101 45 17 57 14 57 -17 0 -37 21 -65 46
-60 16 3 20 15 25 83 4 44 10 101 14 126 7 43 5 47 -15 54 -16 5 -29 0 -49
-19 -15 -14 -35 -26 -44 -26 -11 0 -20 -11 -24 -30 -6 -33 -35 -47 -78 -36
-21 5 -25 12 -25 41 0 39 13 49 80 60 80 12 115 51 69 76 -25 13 -131 3 -169
-16 -14 -7 -44 -16 -68 -20 -25 -4 -61 -21 -86 -40 -24 -18 -55 -41 -71 -51
l-27 -18 7 33 c6 30 9 53 18 156 1 24 -2 30 -18 32 -11 1 -30 -2 -41 -7z"/>
<path d="M12396 11311 c-9 -10 -20 -41 -25 -68 -14 -90 -59 -141 -137 -157
-35 -8 -68 14 -79 52 -5 18 0 25 26 40 50 27 89 62 89 81 0 22 -19 41 -42 41
-25 0 -140 -59 -155 -79 -31 -41 7 -148 67 -188 60 -42 152 -29 232 30 15 11
29 19 31 16 2 -2 11 -16 20 -31 12 -19 26 -28 43 -28 32 0 38 18 19 63 -10 24
-15 69 -15 131 0 84 -2 97 -19 106 -27 14 -35 13 -55 -9z"/>
<path d="M14622 11308 c-5 -7 -12 -56 -15 -108 -4 -82 -10 -107 -41 -177 -38
-85 -43 -119 -25 -174 21 -67 34 -82 94 -111 58 -28 64 -29 161 -23 70 5 109
3 124 -5 27 -15 35 -8 20 19 -9 18 -7 26 9 47 54 69 44 153 -24 191 -43 25
-122 31 -156 13 -27 -15 -24 -62 7 -99 29 -35 44 -39 44 -13 0 42 43 54 81 23
23 -19 23 -21 9 -47 -30 -54 -174 -83 -243 -48 -81 41 -86 76 -26 206 28 60
45 118 56 183 15 90 15 96 -2 115 -20 23 -57 26 -73 8z"/>
<path d="M13515 11228 c-117 -60 -214 -223 -159 -268 11 -10 23 -11 41 -4 20
7 29 20 38 59 11 41 24 60 71 103 88 80 125 81 151 6 11 -31 11 -52 2 -104
-18 -107 -18 -115 13 -118 51 -6 77 85 63 216 -6 57 -12 71 -40 99 -29 29 -39
33 -86 33 -34 -1 -69 -9 -94 -22z"/>
<path d="M13835 11089 c-36 -37 -65 -75 -65 -84 0 -64 61 -73 136 -20 27 19
52 35 56 35 4 0 7 -35 5 -77 -2 -75 -1 -78 21 -81 40 -6 53 14 46 73 -4 29 -1
83 5 120 16 88 6 100 -80 100 l-60 1 -64 -67z"/>
<path d="M5180 10881 c-94 -21 -166 -45 -187 -62 -22 -19 -15 -57 13 -76 25
-16 29 -16 118 15 148 52 239 60 399 35 20 -3 37 -11 37 -17 0 -6 -31 -33 -68
-60 -175 -129 -215 -162 -283 -234 -41 -42 -89 -106 -108 -142 -31 -57 -35
-74 -34 -133 1 -57 6 -77 30 -115 74 -121 257 -188 398 -147 76 22 117 50 113
79 -3 18 -9 21 -48 18 -25 -1 -92 -4 -150 -5 -120 -2 -161 12 -218 78 -27 30
-32 44 -32 86 0 109 92 220 326 395 209 156 224 178 158 232 -76 63 -305 89
-464 53z"/>
<path d="M14980 10683 c0 -2 9 -21 19 -41 23 -46 77 -78 114 -68 41 10 35 42
-12 66 -44 22 -121 50 -121 43z"/>
<path d="M9072 10478 c-34 -17 -40 -57 -12 -80 30 -24 49 -24 198 8 30 6 28
38 -4 63 -21 17 -40 21 -93 20 -36 0 -76 -5 -89 -11z"/>
<path d="M6825 10273 c-61 -13 -123 -38 -168 -68 l-52 -35 -64 26 c-133 54
-287 40 -385 -34 -95 -72 -89 -69 -83 -47 3 11 9 42 13 68 5 38 3 52 -11 67
-23 25 -37 25 -59 1 -14 -16 -19 -45 -23 -158 -4 -111 -9 -153 -29 -212 -34
-101 -57 -259 -52 -358 5 -87 17 -113 53 -113 44 0 41 -12 80 330 9 80 23 169
31 197 22 77 68 133 139 168 57 29 66 30 185 30 75 0 133 -5 144 -11 19 -11
18 -13 -6 -37 -17 -17 -41 -27 -79 -32 -72 -10 -186 -9 -226 4 -25 7 -35 6
-44 -6 -17 -19 -3 -42 42 -68 29 -17 52 -20 160 -20 l126 0 29 -31 c80 -85
193 -64 321 59 35 33 65 58 66 56 2 -2 8 -46 14 -96 12 -106 43 -179 87 -203
25 -14 28 -13 41 4 12 16 12 24 -6 57 -34 67 -49 148 -49 261 0 59 -4 110 -10
113 -5 3 -7 19 -3 35 9 48 -9 60 -91 59 -39 -1 -80 -3 -91 -6z m105 -93 c0
-20 -126 -138 -180 -168 -40 -23 -68 -32 -103 -32 -55 0 -73 22 -38 46 11 8
28 28 36 45 19 36 74 72 152 98 63 21 133 27 133 11z"/>
<path d="M7581 10224 c-86 -43 -121 -113 -122 -241 -2 -166 109 -317 296 -404
82 -39 173 -51 194 -26 24 30 9 49 -49 63 -140 36 -272 130 -324 232 -34 66
-37 172 -6 231 34 67 99 83 235 56 19 -4 37 -1 50 8 16 13 18 20 10 43 -23 64
-187 86 -284 38z"/>
<path d="M9133 10128 c-11 -18 -4 -615 8 -655 10 -33 44 -52 60 -36 6 6 11
147 13 319 4 342 0 377 -46 382 -14 2 -30 -3 -35 -10z"/>
<path d="M9630 9952 c-81 -27 -197 -90 -225 -124 -33 -39 -31 -69 8 -131 45
-73 93 -167 101 -199 5 -23 3 -28 -13 -28 -24 0 -48 36 -56 86 -11 64 -15 73
-36 79 -27 9 -59 -21 -59 -54 0 -60 23 -106 79 -163 59 -60 89 -70 131 -48 29
16 44 74 31 124 -12 51 -59 154 -96 213 l-25 42 22 21 c30 28 109 71 180 99
69 27 97 55 82 79 -15 23 -59 25 -124 4z"/>
<path d="M10536 9864 c-14 -13 -15 -31 -10 -111 5 -58 2 -138 -6 -208 -12
-103 -12 -116 4 -139 35 -54 86 -28 145 72 50 85 140 172 179 172 22 0 42 -65
42 -134 0 -76 11 -110 40 -126 16 -9 25 -8 37 2 13 10 15 29 10 103 -6 117
-23 178 -58 217 -27 28 -33 30 -82 26 -66 -5 -97 -27 -173 -125 -66 -84 -71
-81 -55 27 16 101 14 191 -5 218 -18 26 -46 28 -68 6z"/>
<path d="M11736 9818 c-11 -15 -16 -45 -16 -94 0 -49 -4 -74 -12 -77 -14 -5
-59 16 -99 45 -42 32 -89 -5 -70 -55 11 -29 41 -49 109 -71 32 -11 52 -23 52
-33 0 -8 -17 -64 -37 -124 -34 -102 -35 -111 -20 -126 28 -28 62 -4 86 62 12
31 21 65 21 76 0 37 28 89 48 89 10 0 51 -11 92 -25 40 -14 115 -32 166 -41
87 -16 95 -16 118 0 54 35 26 64 -76 77 -40 6 -102 19 -138 29 -36 10 -83 23
-105 29 -69 19 -69 17 -50 120 16 84 16 93 1 116 -20 31 -50 32 -70 3z"/>
<path d="M11207 9715 c-41 -40 -46 -180 -11 -265 40 -96 167 -166 235 -130 37
21 52 68 46 150 -11 145 -66 229 -165 249 -73 14 -88 14 -105 -4z m150 -98
c26 -26 51 -164 37 -201 -17 -45 -114 19 -128 84 -18 94 3 147 53 135 14 -3
31 -12 38 -18z"/>
<path d="M7306 8955 c-20 -20 -20 -33 -1 -79 12 -28 15 -68 13 -174 l-3 -137
-61 0 c-65 0 -94 -14 -94 -46 0 -26 39 -49 85 -49 22 0 45 -4 52 -8 15 -9 -19
-279 -47 -374 -26 -88 -26 -106 4 -114 35 -9 64 11 76 54 18 65 50 285 50 352
0 36 4 71 8 78 5 7 61 26 125 41 67 17 156 48 213 75 53 25 98 46 100 46 10 0
1 -32 -31 -118 -40 -106 -105 -344 -105 -384 0 -61 73 -88 135 -50 17 11 68
53 113 95 46 43 90 77 97 77 27 0 35 -39 35 -159 0 -127 8 -151 51 -151 28 0
62 38 53 58 -4 9 -10 71 -14 137 -6 121 -13 147 -47 176 -59 52 -111 37 -225
-66 -51 -47 -97 -85 -101 -85 -4 0 -5 17 -1 38 7 36 107 335 155 459 23 61 23
62 4 83 -26 28 -66 21 -160 -31 -76 -41 -327 -129 -371 -129 -22 0 -25 3 -21
23 34 135 31 284 -7 339 -25 38 -56 46 -80 23z"/>
<path d="M5379 8910 c-181 -31 -383 -270 -396 -470 -7 -90 4 -115 52 -136 91
-38 196 -2 355 121 140 109 204 155 212 155 4 0 5 -64 2 -143 l-7 -143 26 -29
c21 -25 29 -28 44 -19 16 10 18 29 20 160 2 82 0 196 -3 254 l-6 105 -54 53
c-80 78 -157 107 -245 92z m141 -120 c25 -16 57 -41 71 -56 l24 -26 -35 -28
c-105 -84 -333 -244 -386 -271 -44 -22 -72 -29 -100 -27 -37 3 -39 5 -42 40
-5 63 73 202 160 284 123 115 218 142 308 84z"/>
<path d="M5922 8788 c-27 -34 -35 -84 -42 -278 -9 -235 -6 -250 56 -250 41 0
68 25 115 109 40 70 161 194 186 189 22 -4 27 -36 43 -238 13 -174 26 -216 65
-226 40 -10 61 15 46 56 -6 18 -15 82 -21 143 -18 187 -39 310 -59 337 -26 36
-82 39 -130 7 -51 -35 -112 -99 -168 -178 -26 -37 -51 -68 -55 -69 -15 0 3
215 23 281 12 36 19 79 17 95 -2 24 -8 30 -34 32 -17 2 -36 -3 -42 -10z"/>
<path d="M8445 8745 c-83 -42 -87 -125 -6 -125 24 0 97 63 106 91 15 45 -41
63 -100 34z"/>
<path d="M7015 8578 c-32 -25 -79 -121 -126 -258 -37 -108 -48 -125 -96 -141
-45 -15 -83 1 -127 53 -40 46 -86 176 -93 263 -3 33 -10 68 -15 78 -12 23 -43
22 -69 -4 -27 -27 -23 -66 22 -205 62 -195 113 -250 241 -261 32 -3 58 -10 58
-15 0 -5 -11 -42 -24 -81 -39 -116 -87 -308 -84 -336 2 -20 9 -26 28 -26 33 0
49 34 99 215 66 238 90 301 133 357 40 53 120 236 133 306 6 29 3 42 -10 57
-23 26 -36 25 -70 -2z"/>
<path d="M10707 8497 c-12 -8 -24 -47 -38 -126 -11 -62 -33 -160 -49 -216 -53
-189 -129 -537 -130 -591 0 -49 52 -84 77 -51 6 6 16 48 22 92 13 84 80 374
112 485 35 124 89 344 89 365 0 24 -29 55 -51 55 -9 0 -23 -6 -32 -13z"/>
<path d="M8387 8322 c-10 -11 -17 -36 -17 -58 -1 -67 -20 -175 -35 -197 -8
-12 -15 -34 -15 -49 0 -57 87 -61 109 -6 11 28 41 221 41 264 0 54 -51 82 -83
46z"/>
<path d="M10055 8316 c-113 -52 -187 -193 -221 -421 -23 -153 -16 -265 20
-338 48 -100 141 -157 252 -157 58 0 86 19 67 48 -7 12 -29 19 -69 22 -70 6
-89 16 -136 68 -43 47 -58 107 -58 226 0 106 8 115 76 84 39 -18 67 -23 139
-23 80 0 95 3 136 27 134 79 191 258 119 371 -66 104 -211 146 -325 93z m213
-103 c18 -13 40 -35 48 -49 36 -55 -8 -158 -95 -219 -37 -26 -53 -30 -119 -33
-65 -3 -84 0 -122 20 -53 27 -54 36 -8 143 40 96 85 140 168 166 38 12 91 0
128 -28z"/>
<path d="M8794 8249 c-17 -5 -59 -33 -92 -61 -33 -29 -75 -62 -94 -73 -27 -16
-34 -27 -36 -59 -4 -46 19 -76 58 -76 30 0 54 23 95 90 25 42 61 79 77 80 3 0
10 -16 15 -36 18 -78 76 -63 89 22 9 65 -1 93 -41 110 -19 8 -36 14 -37 13 -2
0 -17 -5 -34 -10z"/>
<path d="M9209 8211 c-72 -22 -99 -63 -99 -150 0 -82 65 -141 154 -141 l46 0
-7 -32 c-11 -60 -111 -277 -166 -360 -69 -106 -91 -128 -125 -128 -32 0 -52
-16 -52 -42 0 -23 30 -38 79 -38 64 0 84 22 235 265 18 28 47 83 65 123 41 91
141 385 141 416 0 13 -8 30 -18 39 -41 37 -83 11 -119 -73 -25 -57 -76 -102
-112 -98 -22 3 -26 8 -29 41 -4 47 17 82 55 92 54 13 79 55 51 83 -13 13 -59
14 -99 3z"/>
<path d="M11087 8015 c-127 -35 -210 -103 -240 -196 -34 -103 -15 -200 68
-355 30 -56 52 -104 48 -108 -17 -16 -66 -2 -121 34 -46 31 -66 53 -88 95 -19
36 -37 58 -52 61 -46 12 -67 -38 -38 -94 16 -30 77 -90 116 -114 44 -26 188
-78 219 -78 40 0 79 19 87 42 6 19 0 33 -75 168 -97 178 -107 324 -25 387 53
39 172 82 232 83 28 0 52 -4 52 -8 0 -4 -18 -36 -41 -70 -54 -84 -80 -146 -86
-209 -5 -44 -3 -54 12 -59 13 -5 25 1 41 22 21 25 25 27 37 14 8 -8 20 -42 26
-75 7 -33 24 -82 37 -109 38 -76 134 -191 192 -230 51 -34 129 -55 151 -41 25
15 7 35 -76 88 -100 63 -151 109 -159 144 -8 31 -1 37 28 22 12 -7 48 -12 78
-13 66 0 122 26 168 79 97 110 93 224 -10 327 -64 64 -128 92 -213 92 -38 0
-80 -4 -92 -8 -21 -7 -23 -5 -23 21 0 86 -114 126 -253 88z m459 -210 c51 -25
114 -95 114 -126 0 -81 -110 -178 -201 -179 -43 0 -115 47 -129 86 -12 31 -2
140 17 177 19 37 69 67 114 67 19 0 57 -11 85 -25z"/>
<path d="M12745 7991 c-51 -21 -59 -86 -12 -95 66 -14 185 -14 203 -2 25 19 7
58 -38 78 -42 20 -126 30 -153 19z"/>
<path d="M12872 7805 c-12 -15 -22 -49 -26 -87 -11 -101 -36 -247 -56 -333
-58 -242 -59 -248 -34 -283 17 -24 56 -29 72 -9 6 7 16 51 22 99 5 47 17 108
25 134 19 62 75 382 75 428 0 23 -8 44 -20 56 -26 26 -34 25 -58 -5z"/>
<path d="M14307 7622 c-33 -37 -16 -67 44 -78 153 -30 329 -258 329 -427 0
-85 -63 -164 -141 -174 -98 -14 -209 120 -209 251 0 64 16 82 113 125 77 35
103 69 74 98 -49 50 -212 -19 -258 -109 -30 -58 -29 -177 2 -244 33 -72 151
-186 213 -207 91 -31 161 -15 212 47 14 17 32 39 39 48 12 15 19 16 40 6 20
-9 45 -9 109 0 45 7 124 12 174 12 106 0 104 2 117 -104 21 -173 180 -491 326
-651 51 -55 82 -68 107 -43 21 21 14 37 -63 131 -111 138 -199 304 -270 514
-23 70 -26 85 -14 99 17 21 46 14 155 -33 80 -35 87 -36 112 -22 18 10 27 23
27 39 0 36 -80 73 -251 116 -106 27 -170 37 -269 42 l-130 7 45 33 c25 18 98
70 163 116 65 46 125 93 133 105 18 26 15 60 -7 74 -38 24 -88 -11 -332 -235
-71 -65 -132 -118 -136 -118 -4 0 -5 37 -3 83 5 104 -7 147 -66 238 -52 79
-207 226 -274 260 -47 24 -90 24 -111 1z"/>
<path d="M13220 7575 c-26 -8 -57 -26 -70 -40 -24 -25 -24 -26 -12 -123 7 -53
21 -131 32 -172 35 -134 23 -212 -30 -195 -25 8 -50 -10 -50 -37 0 -11 13 -33
29 -49 51 -50 122 -35 157 34 22 42 13 168 -21 297 -44 166 -45 157 8 180 27
12 84 24 136 29 50 4 97 14 106 21 23 19 18 49 -11 60 -38 15 -222 11 -274 -5z"/>
<path d="M4436 7438 c-26 -22 -27 -27 -16 -47 11 -22 16 -23 75 -16 74 8 613
-9 945 -30 129 -8 309 -20 400 -25 560 -35 902 -73 1265 -140 61 -12 144 -27
185 -35 41 -7 140 -28 220 -45 80 -17 177 -37 215 -45 39 -8 97 -21 130 -29
109 -27 178 -15 162 28 -7 19 -31 25 -307 82 -730 150 -1150 214 -1600 244
-91 6 -293 19 -450 30 -372 26 -606 38 -930 46 l-266 7 -28 -25z"/>
<path d="M5236 6928 c-10 -14 -16 -44 -16 -83 0 -33 -5 -98 -10 -145 -43 -371
-41 -529 8 -607 7 -12 29 -29 49 -38 69 -33 153 3 258 109 85 86 129 169 209
401 31 87 74 189 96 226 43 72 49 103 24 113 -22 9 -47 -7 -77 -51 -30 -44
-58 -105 -157 -341 -93 -221 -165 -321 -267 -370 -40 -19 -60 -11 -83 34 -19
37 -17 204 5 360 39 289 48 384 35 399 -18 22 -57 18 -74 -7z"/>
<path d="M10285 6886 c-91 -23 -165 -66 -248 -145 -169 -162 -301 -416 -367
-706 -27 -117 -37 -366 -21 -490 41 -307 187 -504 396 -530 66 -8 149 22 143
52 -3 15 -13 18 -58 15 -30 -2 -77 2 -105 9 -202 46 -298 241 -297 604 0 258
40 438 145 657 99 204 220 349 342 409 61 30 80 34 176 39 86 4 112 9 128 24
25 23 28 61 5 70 -27 10 -186 5 -239 -8z"/>
<path d="M6065 6773 c-100 -13 -168 -60 -201 -138 -22 -52 -31 -209 -15 -258
24 -71 117 -120 186 -97 32 11 107 81 117 111 9 25 22 0 29 -59 14 -117 41
-177 78 -170 23 5 25 56 5 141 -12 53 -16 115 -16 237 1 159 0 166 -24 203
-23 35 -27 37 -77 36 -28 -1 -65 -4 -82 -6z m95 -96 c0 -30 -40 -168 -60 -209
-52 -102 -124 -139 -155 -78 -19 36 -19 141 -1 193 17 47 38 70 79 91 41 20
137 22 137 3z"/>
<path d="M6793 6576 c-185 -35 -294 -126 -416 -347 -44 -78 -46 -105 -12 -121
38 -17 67 9 129 119 70 126 111 172 184 211 88 47 185 65 313 57 87 -5 108 -3
118 9 17 21 6 35 -47 58 -58 26 -175 32 -269 14z"/>
<path d="M11155 6481 c-33 -14 -135 -125 -191 -209 -119 -177 -177 -307 -309
-690 -41 -117 -83 -228 -95 -247 -40 -64 -12 -121 48 -96 35 15 53 47 87 159
127 419 190 582 297 769 85 151 151 234 169 216 7 -7 4 -85 -10 -254 -40 -467
-30 -591 50 -663 36 -33 44 -36 102 -36 81 0 147 31 209 97 61 66 93 132 163
341 45 131 56 175 47 184 -19 19 -55 -5 -79 -53 -12 -24 -47 -107 -78 -184
-30 -76 -71 -163 -90 -193 -68 -101 -176 -142 -230 -87 -26 25 -27 33 -30 200
0 28 9 185 20 350 12 165 18 318 14 339 -10 57 -43 77 -94 57z"/>
<path d="M12481 6354 c-15 -19 -21 -42 -22 -78 -1 -28 -2 -71 -4 -96 -1 -25
-6 -113 -10 -197 -5 -83 -11 -157 -15 -164 -5 -6 -41 -18 -81 -25 -88 -17
-123 -39 -127 -82 -4 -34 31 -110 54 -119 28 -10 44 16 38 61 l-6 43 45 12
c25 6 50 11 55 11 23 0 20 -42 -14 -195 -40 -178 -40 -215 1 -215 40 0 56 38
66 157 5 60 6 116 3 126 -3 11 -3 39 1 63 10 67 27 74 191 79 194 7 256 19
268 52 13 34 -4 36 -221 30 -169 -5 -213 -4 -213 6 0 7 7 37 15 67 8 30 22
123 30 205 8 83 20 171 26 197 8 34 8 52 -1 67 -15 29 -54 27 -79 -5z"/>
<path d="M15180 6002 c-100 -37 -220 -200 -259 -354 -11 -40 -34 -119 -52
-174 -17 -56 -29 -109 -26 -118 8 -21 61 -21 81 0 9 8 19 27 22 42 13 61 94
350 109 392 22 59 50 88 129 129 75 39 101 63 93 86 -8 19 -40 18 -97 -3z"/>
<path d="M11880 5988 c-29 -15 -56 -40 -76 -70 -74 -110 -101 -368 -39 -368
22 0 32 28 38 105 10 112 33 174 82 222 39 40 46 43 97 43 48 0 59 -4 95 -35
49 -42 59 -87 43 -193 -23 -145 -85 -259 -176 -319 -47 -31 -63 -36 -117 -37
l-62 -1 -18 40 c-35 78 -43 90 -61 93 -9 2 -27 -4 -38 -14 -16 -15 -19 -26
-13 -58 7 -49 37 -98 73 -122 21 -15 46 -19 112 -19 74 0 92 4 139 28 65 34
129 99 171 172 36 62 69 203 70 290 0 77 -25 173 -52 202 -60 64 -184 83 -268
41z"/>
<path d="M15462 5984 c-33 -23 -32 -30 46 -170 21 -37 26 -148 12 -257 -14
-118 -79 -395 -120 -515 -24 -71 -26 -84 -14 -89 22 -8 44 17 64 74 9 26 25
71 35 98 10 28 21 59 25 70 22 58 30 84 36 120 4 22 18 85 32 140 36 147 38
256 6 375 -30 109 -46 145 -73 160 -25 13 -22 13 -49 -6z"/>
<path d="M14283 5898 c-17 -19 -42 -71 -83 -173 -123 -304 -222 -445 -315
-445 -101 0 -150 204 -89 373 35 97 38 115 24 132 -17 20 -46 19 -69 -4 -27
-27 -64 -190 -65 -290 -1 -75 3 -93 27 -144 32 -64 82 -119 128 -138 76 -31
197 35 274 151 69 104 217 454 219 518 1 44 -20 53 -51 20z"/>
<path d="M14625 5778 c-11 -6 -31 -21 -45 -34 -14 -13 -45 -30 -69 -39 -103
-36 -156 -113 -149 -214 9 -123 109 -184 213 -131 47 24 68 25 85 5 14 -17 36
-20 45 -5 4 6 -1 30 -10 53 -15 40 -15 49 -1 111 9 37 16 102 16 144 0 108
-27 142 -85 110z m-12 -195 c2 -40 0 -78 -7 -93 -15 -32 -72 -70 -107 -70 -33
0 -69 40 -69 77 0 51 55 116 120 142 52 21 57 16 63 -56z"/>
<path d="M4 2545 c3 -858 8 -1587 10 -1620 3 -33 7 -91 10 -130 3 -38 7 -124
10 -190 15 -400 18 -436 41 -464 18 -21 21 -31 13 -51 -6 -14 -14 -40 -18 -57
l-8 -33 58 0 58 0 -4 98 c-3 53 -11 191 -19 307 -8 116 -17 273 -20 350 -3 77
-12 282 -20 455 -18 389 -23 494 -30 685 -3 83 -8 193 -10 245 -17 360 -49
1376 -58 1817 -2 73 -7 136 -11 140 -4 4 -5 -694 -2 -1552z"/>
</g>
</svg>
