<?xml version="1.0" standalone="no"?>
<!DOCTYPE svg PUBLIC "-//W3C//DTD SVG 20010904//EN"
 "http://www.w3.org/TR/2001/REC-SVG-20010904/DTD/svg10.dtd">
<svg version="1.0" xmlns="http://www.w3.org/2000/svg"
 width="2448.000000pt" height="3264.000000pt" viewBox="0 0 2448.000000 3264.000000"
 preserveAspectRatio="xMidYMid meet">
<metadata>
Created by potrace 1.12, written by Peter Selinger 2001-2015
</metadata>
<g transform="translate(0.000000,3264.000000) scale(0.100000,-0.100000)"
fill="#000000" stroke="none">
<path d="M21970 32625 c0 -8 6 -15 14 -15 8 0 16 7 20 15 4 10 -1 15 -14 15
-11 0 -20 -7 -20 -15z"/>
<path d="M17310 32580 c0 -5 5 -10 10 -10 6 0 10 5 10 10 0 6 -4 10 -10 10 -5
0 -10 -4 -10 -10z"/>
<path d="M17201 32516 c-6 -7 -21 -12 -31 -9 -13 3 -22 -1 -26 -12 -9 -22 11
-42 28 -28 7 6 24 13 38 15 17 2 25 9 25 22 0 24 -18 31 -34 12z"/>
<path d="M19784 32485 c-15 -10 -16 -16 -7 -26 14 -15 43 -5 43 15 0 22 -15
27 -36 11z"/>
<path d="M22180 32455 c-10 -12 -9 -16 5 -21 23 -9 40 10 22 25 -11 9 -17 8
-27 -4z"/>
<path d="M15335 32442 c-176 -62 -435 -284 -573 -490 -34 -52 -92 -153 -128
-226 -58 -116 -67 -142 -71 -203 -3 -41 -1 -85 6 -105 17 -50 93 -125 159
-156 52 -24 68 -27 172 -27 165 1 309 41 529 147 119 57 154 79 202 128 75 74
75 90 6 158 -51 50 -57 53 -175 83 -111 29 -122 34 -122 55 0 73 321 173 689
214 166 18 194 0 174 -113 -12 -72 -131 -325 -175 -374 -26 -29 -50 -93 -44
-118 3 -12 19 -28 36 -35 57 -24 76 -9 336 260 114 118 182 176 234 197 19 8
42 20 50 27 8 6 47 22 87 35 57 19 78 32 103 62 17 22 28 44 24 50 -15 24
-144 -16 -144 -45 0 -8 -10 -11 -31 -8 -52 8 -228 -88 -308 -168 -102 -100
-141 -149 -141 -174 0 -16 -7 -26 -22 -30 -42 -10 -40 11 8 89 54 89 101 199
110 256 8 51 -18 121 -54 145 -79 52 -457 28 -729 -46 -195 -53 -353 -175
-353 -273 0 -28 38 -67 66 -67 31 0 214 -49 262 -70 73 -33 57 -53 -113 -137
-217 -109 -401 -153 -547 -133 -83 12 -124 33 -155 80 -57 84 -5 249 155 490
121 182 368 386 496 409 77 14 106 33 106 70 0 53 -50 70 -125 43z"/>
<path d="M17292 32428 c5 -14 65 -31 84 -24 8 3 14 12 14 21 0 11 -12 15 -51
15 -35 0 -49 -4 -47 -12z"/>
<path d="M19630 32425 c-10 -12 -10 -19 -1 -28 14 -14 46 2 46 24 0 20 -30 23
-45 4z"/>
<path d="M20967 32426 c-8 -8 -24 -64 -35 -123 -12 -59 -28 -126 -38 -148 -9
-22 -23 -62 -31 -90 -8 -27 -26 -80 -40 -116 l-25 -66 -77 1 c-64 1 -84 -4
-128 -27 -60 -31 -78 -55 -87 -112 -9 -63 5 -96 61 -141 73 -59 197 -89 331
-80 52 4 101 10 109 15 8 4 34 3 58 -2 50 -11 70 -37 29 -37 -36 0 -43 -29
-13 -54 14 -12 28 -29 32 -39 3 -9 18 -19 32 -23 14 -3 25 -10 25 -15 0 -5 5
-9 10 -9 6 0 10 7 10 15 0 8 6 15 14 15 7 0 20 7 27 16 11 14 10 19 -10 36
-64 51 -98 184 -68 258 21 48 95 120 124 120 14 0 36 9 50 20 14 11 33 20 42
20 9 0 39 9 67 19 63 24 145 22 174 -4 25 -23 27 -76 3 -97 -34 -29 -147 -83
-168 -80 -11 2 -46 -9 -78 -23 -32 -14 -66 -25 -77 -25 -27 0 -36 -21 -16 -35
9 -7 15 -19 14 -26 -4 -17 76 -25 106 -11 12 5 41 15 66 22 25 6 72 25 105 41
33 16 65 29 72 29 18 0 82 59 99 91 26 52 18 102 -26 158 -30 37 -47 51 -66
51 -14 0 -34 5 -45 11 -24 12 -173 -4 -258 -28 -92 -27 -199 -82 -245 -126
-43 -41 -66 -92 -66 -148 0 -14 -6 -34 -14 -44 -12 -17 -24 -18 -151 -11 -146
7 -185 18 -224 59 -33 36 -23 71 29 97 54 28 64 26 114 -20 70 -65 111 -48
111 45 0 29 7 62 16 76 22 34 125 321 144 399 20 86 19 123 -3 143 -23 21 -66
22 -85 3z"/>
<path d="M22307 32434 c-4 -4 -7 -14 -7 -23 0 -11 3 -12 11 -4 6 6 10 16 7 23
-2 6 -7 8 -11 4z"/>
<path d="M19697 32424 c-11 -11 3 -24 24 -24 12 0 19 5 17 13 -5 14 -31 21
-41 11z"/>
<path d="M22143 32364 c-7 -18 11 -39 26 -30 17 11 13 46 -4 46 -9 0 -18 -7
-22 -16z"/>
<path d="M17243 32358 c2 -7 12 -13 22 -13 10 0 20 6 23 13 2 7 -6 12 -23 12
-17 0 -25 -5 -22 -12z"/>
<path d="M19453 32322 c-20 -20 -16 -25 16 -19 15 3 33 1 39 -5 15 -15 44 -1
40 19 -4 22 -74 25 -95 5z"/>
<path d="M17265 32281 c-10 -17 12 -21 25 -6 10 12 10 15 -3 15 -9 0 -18 -4
-22 -9z"/>
<path d="M21968 32278 c-52 -11 -59 -21 -29 -38 28 -14 74 -13 96 4 16 12 17
16 6 30 -7 9 -16 15 -20 15 -3 -1 -27 -6 -53 -11z"/>
<path d="M24022 32279 c2 -6 8 -10 13 -10 5 0 11 4 13 10 2 6 -4 11 -13 11 -9
0 -15 -5 -13 -11z"/>
<path d="M11685 32147 c-24 -38 -43 -221 -55 -542 -15 -426 -35 -642 -110
-1195 -87 -638 -116 -878 -135 -1100 -22 -247 -10 -224 -108 -216 -98 8 -2129
9 -2337 2 -80 -3 -239 -8 -355 -11 -115 -3 -320 -10 -455 -15 -135 -5 -508
-15 -830 -20 -1202 -22 -1673 -47 -3180 -170 -69 -6 -181 -15 -250 -21 -184
-14 -510 -55 -710 -89 -96 -16 -224 -34 -285 -41 -60 -7 -120 -16 -133 -20
-49 -18 -48 -102 1 -114 14 -4 43 -1 66 5 23 6 99 20 169 30 70 11 199 31 287
45 300 47 465 65 975 105 140 11 273 22 295 25 68 8 664 54 1120 85 278 19
616 33 1075 45 118 3 292 7 385 10 94 3 301 7 460 10 160 3 407 10 550 15 676
24 1102 31 2124 33 l1103 2 -5 -50 c-8 -82 -67 -529 -72 -545 -4 -14 -30 -217
-56 -430 -5 -47 -14 -121 -19 -165 -11 -86 -34 -325 -80 -830 -16 -176 -39
-412 -50 -525 -11 -113 -24 -250 -30 -305 -5 -55 -19 -192 -30 -305 -11 -113
-29 -302 -40 -420 -11 -118 -25 -246 -30 -285 -13 -96 -41 -378 -49 -502 -4
-57 -11 -107 -16 -111 -6 -5 -39 -6 -75 -2 -95 10 -274 -7 -516 -50 -350 -62
-405 -69 -545 -70 -119 0 -138 -2 -152 -18 -22 -24 -21 -54 2 -83 16 -20 28
-24 78 -23 65 1 240 21 293 34 19 5 78 14 130 20 52 6 133 18 180 27 100 17
187 30 290 43 41 5 107 14 145 20 90 14 105 14 136 2 l25 -10 -12 -89 c-7 -48
-18 -135 -23 -193 -6 -58 -16 -168 -24 -245 -8 -77 -14 -153 -14 -170 1 -16
-5 -72 -11 -122 -7 -51 -15 -159 -17 -240 -3 -82 -7 -164 -10 -183 -3 -19 -7
-147 -11 -285 -3 -137 -7 -306 -9 -375 -2 -69 -6 -207 -9 -308 -3 -101 -8
-187 -11 -192 -3 -4 -1 -20 5 -34 7 -20 17 -26 39 -26 53 0 46 -68 71 745 17
543 29 739 75 1275 9 96 20 209 25 250 5 41 16 138 24 215 9 77 26 237 40 355
14 118 36 334 50 480 14 146 30 303 36 350 5 47 14 132 20 190 5 58 19 195 30
305 38 376 110 1100 130 1320 28 299 64 610 105 915 35 259 60 458 73 585 7
63 9 70 27 66 37 -8 4307 -6 4312 2 2 4 12 3 20 -2 22 -12 96 -1 106 16 7 11
15 10 43 -8 28 -17 44 -20 92 -15 72 6 69 6 117 1 59 -6 288 -16 465 -20 395
-8 638 -17 672 -25 49 -10 215 0 227 14 7 9 62 11 185 9 138 -2 177 1 186 12
6 7 7 15 3 18 -11 6 -161 15 -353 22 -85 3 -222 10 -305 15 -222 14 -569 20
-585 10 -8 -5 -15 -15 -15 -22 0 -7 -11 -14 -25 -16 -23 -2 -24 -2 -7 12 18
14 18 15 -3 26 -11 6 -51 11 -88 11 -37 0 -98 2 -135 5 -44 4 -73 2 -82 -6
-10 -8 -19 -9 -35 0 -11 6 -58 10 -103 10 -45 -1 -197 2 -338 6 -175 4 -258 3
-263 -4 -4 -7 -15 -6 -34 3 -39 19 -3985 17 -4019 -2 -18 -11 -24 -10 -37 3
-9 8 -16 17 -16 18 0 2 4 25 9 52 5 27 17 119 25 204 9 85 20 184 25 220 6 36
15 103 21 150 6 47 15 117 20 155 127 910 161 1217 180 1625 11 249 23 373 46
483 18 88 18 127 -2 155 -21 30 -69 30 -89 -1z"/>
<path d="M19378 32085 c-2 -3 -31 -10 -64 -16 -106 -19 -216 -80 -318 -178
-63 -60 -116 -155 -116 -206 0 -40 34 -93 67 -106 16 -6 36 -15 45 -20 26 -13
44 -11 58 6 11 14 17 13 49 -6 88 -52 331 3 255 58 -17 12 -83 9 -112 -6 -6
-4 -51 -3 -99 1 -63 5 -92 12 -107 27 -12 10 -31 22 -43 25 -13 4 -23 17 -25
31 -2 19 15 44 78 110 66 70 96 93 168 130 49 25 99 45 112 45 12 0 26 5 29
10 3 6 40 10 80 10 57 0 82 -5 107 -20 67 -41 143 -11 122 48 -14 40 -78 61
-190 61 -50 1 -93 -1 -96 -4z"/>
<path d="M16917 32013 c-4 -3 -7 -23 -7 -44 0 -26 -11 -52 -37 -90 -38 -56
-120 -158 -157 -195 -37 -38 -94 -157 -101 -210 -7 -49 -6 -53 31 -93 45 -50
81 -53 102 -8 7 15 17 27 23 27 16 0 10 25 -11 38 -17 10 -20 23 -20 75 0 70
13 91 123 198 31 31 57 63 57 72 0 9 25 45 55 81 62 73 72 113 33 140 -23 16
-79 22 -91 9z"/>
<path d="M17088 31880 c-29 -18 -51 -93 -46 -164 4 -60 2 -65 -17 -68 -13 -2
-21 -12 -23 -28 -2 -15 -12 -30 -25 -35 -12 -6 -23 -20 -25 -32 -2 -12 -15
-26 -32 -33 -45 -19 -67 -47 -53 -70 10 -16 8 -20 -20 -30 -71 -27 -77 -30
-77 -50 0 -16 6 -20 33 -20 40 0 109 38 122 68 5 12 19 22 30 22 29 0 45 19
45 55 0 24 7 33 33 45 19 9 34 25 37 39 9 38 23 35 79 -12 57 -49 105 -67 175
-67 86 0 133 19 196 76 32 30 60 54 64 54 3 0 6 -24 6 -54 0 -44 5 -60 27 -86
14 -17 37 -36 51 -41 33 -13 117 12 199 57 107 59 199 80 209 47 3 -10 9 -25
14 -34 9 -17 -43 -134 -87 -196 -13 -17 -23 -35 -23 -41 0 -21 -130 -176 -170
-203 -55 -37 -69 -36 -77 1 -12 61 -79 57 -103 -6 -37 -97 103 -154 211 -86
86 55 256 276 316 412 51 117 43 211 -23 255 -54 35 -224 2 -334 -66 -101 -62
-124 -16 -71 139 17 49 31 98 31 109 0 47 -80 72 -112 36 -9 -10 -21 -35 -28
-56 -15 -46 -104 -144 -169 -186 -36 -24 -59 -31 -96 -31 -61 0 -127 31 -162
76 -22 29 -25 41 -20 77 3 24 9 50 12 59 8 19 -40 78 -63 78 -10 0 -25 -5 -34
-10z"/>
<path d="M19905 31884 c-218 -29 -275 -46 -275 -82 0 -8 -18 -32 -40 -53 -36
-35 -40 -44 -40 -87 0 -41 5 -53 33 -80 46 -45 83 -53 178 -41 107 13 181 37
282 93 152 82 180 130 115 193 -18 18 -45 36 -61 42 -31 12 -146 21 -192 15z
m149 -110 c43 -17 1 -44 -146 -94 -139 -48 -196 -57 -223 -36 -16 12 -18 18
-9 33 16 25 148 101 186 106 40 6 169 0 192 -9z"/>
<path d="M21208 31629 c-23 -13 -23 -48 -2 -56 19 -7 46 23 42 46 -4 19 -19
23 -40 10z"/>
<path d="M801 31584 c-27 -34 -27 -35 10 -88 29 -44 60 -59 74 -36 3 6 15 10
25 10 27 0 32 15 21 56 -22 80 -89 110 -130 58z"/>
<path d="M21231 31351 l-34 -28 22 -32 c30 -42 95 -75 120 -62 15 9 20 7 24
-11 5 -16 12 -19 32 -16 14 3 28 1 31 -3 3 -5 24 -19 47 -31 33 -17 60 -22
123 -22 77 -1 95 3 164 39 55 29 45 99 -17 128 -23 10 -28 8 -53 -22 -20 -24
-39 -34 -68 -38 -41 -6 -176 21 -199 40 -7 5 -23 7 -35 4 -12 -4 -27 -2 -32 3
-6 4 -24 10 -41 12 -22 2 -30 9 -31 23 -1 11 -2 26 -3 33 -2 18 -12 15 -50
-17z"/>
<path d="M772 31304 c-12 -8 -22 -20 -22 -26 0 -6 -8 -20 -17 -30 -12 -14 -14
-21 -5 -30 9 -9 24 -5 64 17 67 35 82 49 75 69 -8 21 -65 21 -95 0z"/>
<path d="M10653 31251 c-9 -11 -33 -72 -54 -138 -21 -65 -43 -131 -48 -148
-21 -63 -161 -635 -179 -735 -11 -58 -25 -157 -31 -221 -6 -64 -14 -130 -17
-147 -5 -22 -1 -35 15 -51 27 -27 44 -26 76 2 24 21 26 29 35 162 12 178 38
328 101 585 65 267 80 317 146 487 57 146 61 174 27 207 -21 22 -51 20 -71 -3z"/>
<path d="M675 31201 c-3 -5 -1 -12 5 -16 12 -7 30 2 30 16 0 12 -27 12 -35 0z"/>
<path d="M6861 31116 c-6 -7 -33 -58 -60 -113 -47 -96 -144 -233 -308 -437
-78 -96 -158 -224 -180 -287 -19 -56 -7 -81 49 -110 58 -30 201 -29 285 2 32
11 76 25 98 31 22 6 72 26 110 44 39 19 77 34 86 34 14 0 17 -31 22 -267 5
-262 14 -348 43 -405 30 -57 70 -20 53 48 -6 21 -13 177 -16 345 l-5 306 28
20 c16 12 56 30 89 41 103 34 252 133 281 188 14 26 16 38 8 52 -19 29 -40 25
-88 -17 -26 -22 -68 -53 -94 -68 -26 -14 -76 -44 -111 -65 -102 -60 -105 -55
-70 90 28 118 44 165 84 247 46 96 87 142 136 155 43 12 79 41 79 64 0 8 -12
24 -27 36 -49 39 -122 12 -197 -71 -96 -107 -169 -307 -181 -496 -8 -125 -5
-121 -105 -149 -190 -54 -285 -75 -362 -81 -86 -6 -88 -6 -88 16 0 12 5 31 10
41 17 32 121 172 245 331 121 155 139 181 212 299 36 59 63 119 63 141 0 16
-40 49 -59 49 -10 0 -24 -6 -30 -14z"/>
<path d="M5170 30999 c-14 -6 -51 -17 -83 -25 -244 -59 -701 -384 -830 -590
-30 -48 -77 -186 -77 -225 0 -14 9 -34 20 -44 18 -16 32 -17 132 -12 62 4 155
16 207 27 95 20 181 26 181 13 0 -4 -27 -62 -59 -128 -200 -406 -242 -513
-240 -611 1 -74 20 -115 68 -149 39 -27 50 -30 119 -29 66 0 89 6 160 37 215
94 448 305 554 501 40 75 44 155 11 226 -52 114 -216 213 -388 235 -67 9 -85
14 -85 27 0 16 150 237 208 306 76 90 120 128 180 157 45 21 52 29 52 53 0 63
-72 82 -132 34 -53 -42 -194 -197 -241 -265 -23 -34 -67 -111 -97 -172 l-55
-110 -80 -8 c-68 -6 -208 -24 -347 -44 -29 -4 -39 -2 -44 11 -17 45 56 175
148 262 77 74 182 159 241 198 29 18 71 49 94 68 23 20 62 46 85 57 24 12 50
26 58 31 14 9 77 37 178 81 24 11 56 19 70 19 44 1 114 37 110 57 -4 22 -78
29 -118 12z m-195 -876 c148 -46 232 -99 266 -165 37 -73 27 -115 -56 -233
-152 -215 -485 -423 -623 -389 -36 9 -37 11 -40 56 -5 85 60 265 209 574 16
33 29 74 29 90 0 30 21 69 48 92 19 15 56 9 167 -25z"/>
<path d="M8965 30919 c-153 -14 -432 -71 -583 -120 -149 -49 -319 -126 -350
-159 -27 -29 -28 -71 -4 -93 25 -23 50 -21 86 7 115 87 385 178 686 230 287
50 491 57 548 20 20 -13 23 -22 19 -50 -14 -83 -141 -219 -398 -425 -221 -176
-378 -309 -424 -360 -50 -54 -83 -120 -91 -182 -6 -44 -4 -51 22 -79 97 -103
267 -103 739 -2 94 20 181 41 195 46 14 5 62 21 108 34 135 40 201 74 257 136
44 48 54 66 78 152 29 103 27 126 -14 126 -23 0 -47 -35 -93 -134 -37 -82 -48
-94 -106 -125 -119 -64 -729 -191 -914 -191 -76 0 -166 24 -166 43 0 39 176
228 294 317 155 115 410 336 477 413 93 105 129 174 129 249 0 64 -15 88 -75
123 -39 23 -55 26 -177 30 -73 2 -182 -1 -243 -6z"/>
<path d="M17144 30783 c-23 -24 -89 -166 -129 -280 -32 -91 -32 -92 -116 -162
-46 -38 -96 -81 -110 -95 -15 -14 -34 -26 -42 -26 -9 0 -20 -6 -24 -13 -11
-18 -110 -63 -178 -81 -36 -9 -77 -13 -107 -9 -42 5 -51 10 -60 32 -5 14 -16
39 -24 54 -9 19 -11 34 -4 45 5 9 12 34 15 55 3 21 51 126 106 234 54 108 99
202 99 208 0 40 -84 60 -112 28 -22 -25 -58 -99 -58 -119 0 -9 -9 -27 -20 -41
-11 -14 -20 -32 -20 -39 0 -7 -13 -33 -30 -57 -16 -25 -30 -48 -30 -52 0 -3
-11 -30 -24 -58 -25 -54 -34 -89 -43 -170 -6 -57 29 -141 72 -175 40 -32 120
-46 175 -32 25 7 61 12 80 12 43 -2 99 15 123 37 10 8 33 20 50 26 18 5 36 20
42 33 5 12 16 22 24 22 8 0 45 31 82 69 38 37 69 65 69 61 0 -7 -18 -69 -49
-175 -5 -16 -16 -64 -25 -105 -10 -41 -21 -91 -26 -110 -36 -147 -53 -325 -36
-377 14 -42 70 -40 87 4 5 13 9 50 9 82 0 53 14 132 55 304 8 37 14 74 13 80
-2 7 4 30 14 52 9 22 41 117 72 210 76 234 99 289 166 415 33 63 37 92 14 114
-21 21 -78 20 -100 -1z"/>
<path d="M20202 30687 c-6 -7 -29 -58 -50 -112 -22 -55 -63 -156 -92 -225 -29
-69 -56 -138 -61 -155 -4 -16 -37 -111 -73 -210 -36 -99 -66 -186 -66 -193 0
-7 -15 -65 -34 -130 -19 -64 -37 -140 -41 -169 -9 -67 10 -156 40 -190 21 -25
25 -26 50 -15 l28 13 -8 82 c-5 45 -7 89 -6 97 1 8 3 31 5 50 1 19 10 49 19
66 9 17 21 58 26 92 5 33 18 77 29 98 10 22 29 68 42 104 13 36 27 70 31 75 4
6 28 64 54 130 52 135 94 232 167 385 59 123 69 171 43 200 -21 23 -86 27
-103 7z"/>
<path d="M15405 30665 c-250 -34 -437 -80 -607 -152 -89 -37 -119 -56 -178
-110 -76 -70 -91 -100 -67 -136 19 -30 159 -74 452 -142 60 -15 111 -28 113
-30 3 -2 -11 -26 -30 -52 -94 -129 -280 -416 -307 -473 -35 -73 -39 -125 -15
-176 46 -96 169 -145 313 -124 101 15 157 33 271 89 171 84 326 218 375 323
47 100 30 165 -69 263 -83 82 -201 146 -309 169 -37 7 -70 16 -73 19 -3 3 16
30 43 59 26 30 70 80 96 112 27 31 67 65 90 76 49 23 64 44 73 98 12 79 -64
100 -123 35 -50 -57 -199 -239 -231 -284 -24 -35 -31 -39 -70 -39 -24 0 -76
11 -115 24 -40 13 -117 34 -172 47 -129 29 -188 53 -183 76 11 57 404 193 718
249 199 34 256 52 247 77 -5 17 -122 18 -242 2z m-91 -631 c98 -44 207 -107
259 -148 48 -38 66 -92 47 -144 -58 -162 -333 -343 -546 -359 -91 -7 -140 2
-170 32 -48 48 -20 159 74 298 26 40 86 128 132 197 83 125 109 160 118 160 2
0 41 -16 86 -36z"/>
<path d="M18670 30636 c-64 -18 -125 -38 -137 -44 -12 -7 -33 -12 -48 -12 -14
0 -84 -23 -156 -52 -106 -41 -133 -56 -140 -76 -12 -31 -3 -59 23 -73 23 -12
104 10 148 41 14 9 42 23 62 29 21 7 40 17 43 22 4 5 15 9 26 9 11 0 87 23
169 50 165 55 200 61 200 31 0 -46 -88 -198 -144 -250 -14 -14 -26 -31 -26
-38 0 -8 -7 -16 -15 -19 -8 -4 -15 -15 -15 -25 0 -12 -7 -19 -18 -19 -22 0
-52 -30 -52 -52 0 -9 -11 -19 -24 -22 -13 -3 -40 -24 -60 -46 -20 -22 -39 -40
-44 -40 -13 0 -95 -92 -135 -152 -46 -68 -54 -111 -34 -160 19 -45 86 -91 142
-96 144 -14 327 20 468 87 45 21 104 48 130 60 43 19 48 25 45 49 -4 37 -31
39 -119 7 -248 -89 -466 -127 -522 -90 -21 14 -27 25 -27 55 0 21 7 43 15 50
8 7 15 19 15 26 0 8 6 14 13 14 19 0 47 33 47 53 0 9 8 17 18 17 24 0 104 79
98 96 -3 9 2 14 13 14 20 0 51 30 51 48 0 7 9 12 20 12 32 0 37 30 9 51 -26
20 -10 26 20 7 10 -6 25 -9 33 -5 22 8 161 185 191 242 15 28 29 68 32 90 20
138 -87 176 -315 111z"/>
<path d="M18025 29001 c-8 -15 3 -31 21 -31 9 0 14 7 12 17 -4 20 -24 28 -33
14z"/>
<path d="M18159 28989 c-1 -8 -1 -19 0 -26 1 -6 -3 -14 -8 -18 -16 -9 -1 -35
20 -35 11 0 23 10 28 23 7 18 16 22 47 21 50 -1 95 -14 113 -31 11 -12 16 -12
30 1 17 15 71 11 71 -5 0 -14 28 -11 33 4 3 9 11 8 33 -5 73 -43 75 -44 94
-20 21 25 40 29 40 7 0 -20 59 -33 168 -34 77 -2 92 0 92 13 0 9 7 16 15 16 9
0 12 -6 9 -15 -5 -12 3 -15 40 -15 25 0 46 5 46 10 0 6 21 10 48 9 39 0 43 -2
24 -10 -14 -5 -20 -14 -16 -20 8 -14 87 -5 92 10 2 6 24 11 49 11 36 0 51 -5
69 -25 18 -20 33 -25 72 -25 55 0 67 7 49 28 -10 13 -8 14 22 9 18 -4 40 -7
47 -7 8 0 14 -6 14 -13 0 -21 67 -35 225 -46 83 -7 184 -16 225 -21 41 -6 158
-17 260 -25 102 -9 219 -20 260 -25 41 -5 136 -14 210 -20 74 -6 205 -18 290
-26 242 -22 413 -34 502 -36 77 -1 83 1 105 26 32 37 29 62 -11 102 -39 39
-74 44 -101 14 -14 -15 -31 -20 -74 -20 -64 0 -575 39 -1316 101 -71 5 -218
17 -325 24 -107 8 -316 24 -465 35 -148 11 -340 25 -425 30 -85 5 -216 13
-290 18 -74 5 -146 9 -160 9 -14 0 -76 3 -137 8 -93 6 -113 5 -114 -6z m851
-99 c0 -5 -6 -10 -14 -10 -8 0 -18 5 -21 10 -3 6 3 10 14 10 12 0 21 -4 21
-10z m777 -46 c-3 -3 -12 -4 -19 -1 -8 3 -5 6 6 6 11 1 17 -2 13 -5z"/>
<path d="M17991 28946 c-11 -13 -11 -17 2 -22 27 -10 72 0 72 16 0 21 -58 25
-74 6z"/>
<path d="M19408 28410 c-186 -21 -376 -90 -450 -164 -40 -39 -47 -66 -24 -86
12 -9 21 -8 43 4 121 67 224 110 306 127 119 26 313 35 401 20 66 -12 116 -29
116 -40 0 -3 -49 -18 -109 -32 -163 -40 -329 -124 -470 -238 -140 -113 -319
-371 -357 -516 -43 -161 22 -291 170 -338 84 -26 226 -27 343 -3 151 32 388
132 498 211 165 117 279 302 292 470 7 87 -17 220 -52 291 -31 63 -144 173
-215 209 -147 75 -319 104 -492 85z m607 -340 c90 -181 31 -453 -128 -583
-108 -89 -320 -187 -487 -227 -107 -25 -273 -27 -328 -4 -116 48 -142 185 -65
339 70 137 226 310 363 400 141 93 370 173 457 159 33 -5 42 -2 63 21 l25 27
39 -44 c21 -23 48 -63 61 -88z"/>
<path d="M6823 28280 c-61 -13 -93 -32 -144 -87 -54 -58 -105 -140 -163 -265
-68 -144 -81 -239 -48 -340 75 -226 263 -324 524 -274 243 47 489 263 488 428
-1 154 -175 378 -326 419 -20 6 -52 27 -72 46 -64 64 -165 93 -259 73z m119
-98 c8 -8 6 -13 -8 -17 -42 -13 -141 -66 -166 -90 -27 -25 -29 -55 -3 -55 8 0
44 17 82 37 65 36 72 37 159 37 108 -1 157 -21 230 -93 88 -87 134 -178 134
-266 0 -60 -55 -142 -138 -205 -160 -121 -312 -157 -464 -110 -95 29 -128 55
-168 134 -32 63 -35 76 -34 150 0 69 6 95 37 176 21 52 54 120 74 150 20 30
48 73 62 94 39 59 75 78 139 73 29 -2 58 -9 64 -15z"/>
<path d="M10208 28275 c-179 -36 -421 -142 -512 -226 -107 -98 -189 -328 -140
-397 34 -48 69 -17 79 70 4 35 15 83 25 108 10 25 21 56 24 70 6 24 39 51 160
127 133 85 386 160 503 149 79 -7 155 -39 193 -82 29 -33 33 -43 44 -111 27
-160 -224 -577 -398 -662 -93 -46 -172 -34 -220 32 -19 25 -21 43 -21 155 0
155 21 243 71 304 19 22 34 47 34 56 -1 25 -23 50 -55 62 -24 9 -33 8 -54 -8
-79 -58 -127 -368 -84 -539 43 -174 195 -244 356 -165 91 45 168 119 269 257
144 199 203 343 201 491 -2 156 -110 277 -281 313 -66 14 -108 13 -194 -4z"/>
<path d="M1242 28265 c-140 -39 -277 -147 -328 -259 -114 -249 -32 -484 211
-602 133 -65 258 -80 405 -49 116 24 312 113 440 199 97 65 171 170 186 265 9
57 -33 236 -74 318 -41 79 -158 133 -292 133 -96 0 -142 -10 -218 -48 -37 -19
-57 -24 -66 -17 -8 6 -30 23 -50 39 -44 35 -132 44 -214 21z m670 -108 c18 -8
49 -32 69 -54 44 -49 69 -141 69 -256 0 -66 -3 -79 -31 -121 -53 -80 -148
-144 -325 -219 -119 -51 -220 -71 -318 -63 -201 15 -327 95 -392 251 -37 90 1
286 72 365 104 115 321 148 360 54 8 -20 21 -34 31 -34 10 0 51 18 93 39 129
67 268 81 372 38z"/>
<path d="M8728 28256 c-258 -91 -524 -344 -617 -587 -48 -126 -62 -191 -68
-336 -10 -231 39 -394 156 -517 66 -69 113 -96 187 -108 56 -8 73 -7 127 11
137 46 478 348 589 521 64 101 128 240 128 280 0 16 4 31 9 34 16 10 34 134
26 184 -9 63 -22 84 -48 80 -28 -4 -35 -32 -36 -143 -1 -74 -5 -99 -26 -140
-13 -27 -38 -80 -54 -118 -40 -90 -125 -201 -241 -313 -105 -102 -258 -221
-334 -259 -158 -79 -328 44 -377 271 -18 88 -13 253 11 369 26 122 106 292
179 380 100 121 270 242 407 290 120 43 183 29 229 -48 14 -24 25 -48 25 -54
0 -6 -38 -12 -94 -15 -84 -3 -102 -8 -169 -41 -125 -62 -228 -171 -186 -198
23 -14 32 -11 102 41 91 65 161 91 267 97 47 2 91 0 97 -4 7 -5 17 -33 23 -63
12 -61 33 -100 56 -100 24 0 114 81 114 102 0 10 -24 44 -53 76 -39 42 -57 72
-66 106 -49 195 -179 267 -363 202z"/>
<path d="M14489 28220 c-57 -10 -124 -44 -133 -66 -4 -10 -1 -24 7 -31 12 -12
23 -12 74 1 109 28 115 20 22 -32 -188 -105 -305 -224 -376 -379 -23 -50 -25
-64 -21 -152 6 -118 29 -173 105 -249 59 -59 164 -114 252 -133 82 -17 316 -6
411 20 156 42 221 69 347 144 136 80 192 171 179 287 -7 56 -62 196 -102 261
-39 62 -138 168 -187 199 -42 26 -46 32 -41 58 9 44 -14 55 -135 64 -178 14
-353 17 -402 8z m376 -120 c3 -5 -6 -22 -21 -39 -18 -22 -24 -39 -22 -63 3
-29 7 -33 35 -36 29 -3 36 2 69 47 20 28 40 51 45 51 15 0 138 -132 177 -190
58 -87 85 -165 90 -253 6 -120 -14 -152 -146 -227 -150 -84 -362 -135 -536
-128 -235 10 -367 108 -383 285 -14 158 79 305 276 437 112 75 145 90 266 120
87 22 135 21 150 -4z"/>
<path d="M16215 28220 c-78 -19 -193 -86 -263 -154 -61 -58 -125 -149 -169
-242 -36 -74 -38 -85 -38 -174 0 -81 4 -102 24 -139 56 -107 192 -201 331
-230 69 -15 297 -15 387 -1 280 45 546 179 613 310 26 50 42 152 34 208 -16
114 -106 246 -194 285 -54 25 -175 26 -260 2 l-55 -14 -55 54 c-79 77 -144
105 -245 104 -44 -1 -93 -4 -110 -9z m253 -118 c64 -46 61 -56 -28 -103 -89
-48 -126 -80 -117 -103 10 -26 51 -18 137 26 l81 41 27 -26 c47 -45 92 -31 92
29 0 24 5 33 23 38 41 11 177 6 210 -8 78 -32 132 -139 131 -261 -1 -124 -47
-181 -211 -262 -126 -61 -241 -91 -398 -104 -117 -9 -140 -8 -234 10 -347 68
-432 277 -226 550 52 68 99 107 180 149 83 42 125 52 215 49 71 -2 91 -6 118
-25z"/>
<path d="M17935 28198 c-57 -20 -170 -101 -236 -167 -144 -147 -224 -315 -223
-471 0 -95 10 -132 62 -238 87 -177 246 -262 467 -249 108 6 183 32 277 94
113 74 187 175 241 331 28 80 31 98 31 222 l1 135 -42 86 c-32 66 -55 97 -93
129 -59 50 -177 99 -238 100 -23 0 -59 9 -79 20 -42 22 -118 26 -168 8z m203
-149 c31 -24 40 -24 69 3 l22 21 65 -32 c121 -59 162 -140 160 -316 -1 -81 -6
-116 -28 -185 -38 -115 -59 -154 -118 -217 -65 -68 -120 -99 -220 -125 -219
-55 -418 20 -479 181 -65 170 -14 374 137 539 47 52 61 62 80 58 18 -5 39 5
85 39 34 25 73 48 88 51 14 3 31 7 36 9 20 8 80 -7 103 -26z"/>
<path d="M4793 28024 c-114 -29 -188 -86 -270 -207 -57 -83 -78 -131 -88 -205
-27 -197 279 -377 547 -321 88 19 178 73 297 181 61 54 111 104 111 109 0 25
-27 55 -125 138 -89 76 -118 95 -190 122 -47 18 -85 36 -85 39 0 4 7 13 15 20
23 19 18 33 -22 72 -64 61 -110 73 -190 52z m90 -101 c29 -27 20 -32 -55 -35
-62 -3 -73 -6 -76 -22 -5 -24 14 -36 60 -36 47 0 139 -31 243 -81 85 -42 95
-49 164 -122 l45 -47 -30 -31 c-57 -60 -184 -148 -236 -164 -107 -32 -249 -10
-340 53 -56 38 -106 94 -114 128 -15 58 22 163 90 256 80 107 191 153 249 101z"/>
<path d="M1350 27100 c-11 -11 -20 -29 -20 -41 0 -65 50 -336 96 -514 3 -11
11 -62 18 -113 18 -120 40 -148 81 -102 21 23 24 104 7 172 -31 120 -71 332
-76 403 -12 146 -18 186 -33 201 -20 20 -49 18 -73 -6z"/>
<path d="M9970 26993 c-21 -26 -22 -35 -17 -148 6 -124 23 -256 57 -430 11
-55 25 -153 31 -218 13 -131 31 -172 66 -151 16 10 18 27 17 160 0 116 -7 184
-28 309 -26 144 -28 175 -23 313 5 142 4 155 -14 173 -27 27 -64 24 -89 -8z"/>
<path d="M19301 26824 c-12 -15 -26 -45 -31 -68 -6 -22 -37 -135 -69 -251 -33
-115 -77 -286 -100 -380 -23 -93 -48 -192 -56 -220 -26 -94 -56 -230 -62 -285
-6 -62 8 -84 49 -78 26 3 36 28 74 183 63 255 194 737 229 840 7 22 28 88 46
147 36 121 33 138 -26 138 -24 0 -39 -7 -54 -26z"/>
<path d="M4562 26770 c-125 -63 -178 -170 -170 -343 4 -86 7 -99 52 -191 87
-176 212 -278 395 -322 65 -15 85 -16 158 -5 47 6 103 19 126 28 108 42 258
174 311 272 25 46 28 61 23 108 -11 102 -76 178 -212 247 -114 57 -179 69
-335 63 -140 -5 -186 -15 -197 -43 -12 -31 16 -38 170 -45 159 -8 239 -25 331
-72 87 -45 146 -114 146 -173 0 -69 -120 -198 -237 -256 -56 -28 -79 -33 -157
-36 -103 -5 -178 15 -266 69 -164 101 -247 363 -170 538 29 66 64 84 142 75
45 -5 57 -3 81 16 15 12 27 31 27 44 0 64 -113 78 -218 26z"/>
<path d="M16033 26639 c-139 -44 -266 -167 -354 -343 -53 -107 -61 -153 -23
-149 20 2 20 1 -4 -70 -30 -88 -39 -214 -22 -285 16 -67 72 -132 142 -163 47
-21 68 -24 178 -24 101 0 138 5 192 22 131 43 257 119 389 234 179 157 170
327 -31 574 -128 157 -233 225 -345 224 -33 0 -88 -9 -122 -20z m185 -81 c38
-9 61 -25 118 -82 77 -77 174 -217 200 -287 9 -24 17 -71 18 -105 1 -57 -2
-64 -38 -109 -51 -62 -182 -159 -271 -201 -191 -90 -422 -79 -491 24 -60 89
-22 309 76 432 58 74 187 131 261 116 17 -3 64 -22 104 -41 41 -19 81 -32 90
-29 36 14 48 90 18 116 -44 37 -196 72 -270 63 -69 -8 -156 -53 -220 -114 -29
-27 -53 -45 -53 -41 0 15 89 127 130 163 94 86 220 122 328 95z"/>
<path d="M8561 26604 c-127 -38 -188 -71 -274 -153 -162 -155 -227 -374 -171
-577 34 -121 123 -186 258 -188 152 -2 277 62 433 219 70 72 100 111 130 171
36 75 38 82 38 179 0 89 -3 106 -27 150 -14 28 -41 65 -60 84 -33 34 -119 81
-149 81 -8 0 -28 14 -44 30 -16 17 -34 30 -39 29 -6 0 -49 -11 -95 -25z m206
-155 c57 -27 100 -81 120 -149 15 -51 15 -58 -1 -105 -37 -107 -160 -250 -275
-319 -125 -76 -282 -99 -347 -50 -54 40 -66 77 -61 199 3 97 7 118 35 178 39
85 91 148 166 204 48 35 66 43 105 44 25 1 57 5 71 9 51 16 142 11 187 -11z"/>
<path d="M6590 26535 c-137 -39 -276 -128 -360 -235 -80 -99 -103 -180 -52
-180 23 0 39 18 77 85 99 174 310 274 520 248 192 -23 305 -129 305 -286 0
-80 -33 -149 -127 -267 -120 -149 -225 -212 -354 -212 -80 0 -128 19 -161 63
-61 81 -80 241 -41 330 28 62 86 125 144 154 41 21 56 24 112 18 57 -5 67 -3
86 16 14 14 21 32 19 49 -9 80 -179 59 -313 -39 -51 -37 -119 -118 -149 -177
-44 -86 -36 -236 19 -348 66 -134 207 -198 356 -160 125 32 186 69 289 174
167 171 236 301 228 429 -6 90 -37 152 -114 230 -92 93 -147 115 -304 119 -90
3 -140 0 -180 -11z"/>
<path d="M17745 26528 c-38 -5 -104 -10 -145 -12 -120 -6 -181 -34 -270 -126
-124 -127 -178 -238 -187 -385 -17 -264 103 -450 337 -519 63 -19 250 -23 320
-7 111 25 223 95 331 208 91 95 133 166 159 269 44 169 8 323 -102 449 -85 97
-259 145 -443 123z m156 -107 c150 -16 259 -91 290 -199 8 -26 14 -90 14 -142
0 -85 -3 -102 -31 -160 -86 -180 -248 -313 -428 -350 -131 -27 -344 28 -417
107 -91 98 -111 287 -47 449 42 106 161 209 298 260 39 14 174 40 220 43 8 0
54 -3 101 -8z"/>
<path d="M14530 26366 c-69 -20 -110 -40 -165 -80 -27 -20 -59 -36 -71 -36
-11 0 -40 -13 -65 -28 -102 -65 -185 -200 -216 -348 -21 -101 -8 -207 37 -303
42 -89 72 -126 131 -160 122 -70 246 -61 424 29 104 52 263 159 350 234 137
119 161 274 68 442 -41 74 -170 199 -237 230 -69 31 -187 41 -256 20z m217
-114 c110 -57 208 -203 220 -326 10 -114 -41 -182 -237 -310 -259 -171 -403
-198 -519 -99 -61 52 -85 123 -85 253 0 116 17 187 60 255 36 54 75 95 92 95
8 0 27 10 44 21 25 18 39 21 85 16 72 -8 113 11 113 51 0 16 -5 33 -12 40 -9
9 -8 12 3 16 8 2 21 7 29 10 35 13 165 -1 207 -22z"/>
<path d="M10199 25945 c-3 -2 -50 -7 -104 -10 -55 -3 -185 -14 -290 -25 -246
-26 -244 -25 -200 -167 10 -32 -18 -42 -146 -48 -64 -3 -119 -11 -127 -17 -18
-15 -10 -105 11 -126 31 -30 120 -32 274 -4 53 9 111 51 99 70 -3 5 -42 7 -88
5 -96 -4 -116 0 -98 22 7 9 29 15 52 15 34 0 46 7 91 54 58 59 76 71 148 92
64 19 226 16 234 -4 3 -9 13 -12 29 -8 16 4 30 0 41 -11 16 -15 14 -18 -26
-34 -54 -22 -78 -23 -98 -5 -24 21 -109 -6 -121 -38 -5 -13 -14 -27 -19 -31
-6 -3 -11 -15 -11 -27 0 -16 4 -19 23 -13 12 3 38 10 57 14 19 4 71 20 115 35
115 39 139 46 158 46 9 0 22 9 29 19 9 15 17 17 34 11 13 -5 37 -5 56 1 18 5
58 9 88 9 77 0 120 27 120 74 0 22 -9 45 -23 62 -20 22 -34 27 -102 35 -89 9
-199 11 -206 4z"/>
<path d="M1223 25640 c-222 -33 -503 -195 -503 -291 0 -9 8 -27 18 -39 14 -18
25 -21 45 -16 14 3 28 14 32 25 20 64 165 154 325 201 108 32 368 40 420 13
29 -15 36 -24 38 -55 3 -34 -4 -43 -129 -175 -140 -147 -230 -251 -316 -367
-130 -176 -139 -253 -36 -317 35 -22 48 -24 183 -24 168 1 165 0 550 95 223
55 295 83 295 115 0 38 -97 29 -370 -35 -204 -48 -313 -64 -445 -64 -137 -1
-180 12 -180 55 0 42 180 272 378 483 131 139 172 198 172 248 0 67 -68 124
-178 147 -58 12 -218 13 -299 1z"/>
<path d="M19075 25520 c-126 -9 -342 -23 -480 -30 -270 -13 -319 -20 -335 -50
-20 -37 -12 -77 21 -104 34 -29 47 -31 99 -16 19 6 143 19 275 30 132 11 285
25 340 31 158 17 704 13 792 -6 62 -14 95 55 52 109 -34 44 -68 56 -122 44
-32 -7 -85 -6 -166 1 -147 14 -188 13 -476 -9z"/>
<path d="M4805 25501 c-212 -77 -323 -197 -355 -384 -21 -120 35 -328 128
-472 135 -210 294 -310 492 -310 168 1 243 73 325 310 25 72 27 89 22 180 -6
119 -27 185 -93 292 -54 85 -122 157 -198 206 -58 38 -146 77 -173 77 -10 0
-25 5 -33 10 -12 7 -12 12 -2 22 19 19 15 66 -7 78 -27 14 -48 12 -106 -9z
m133 -187 c81 -27 200 -110 255 -179 134 -167 162 -348 83 -538 -43 -105 -61
-132 -101 -149 -49 -21 -180 -15 -248 11 -83 33 -176 98 -219 156 -88 116
-158 312 -158 439 0 119 51 239 108 252 15 3 47 12 72 20 54 17 136 12 208
-12z"/>
<path d="M9877 25484 c-64 -21 -82 -31 -98 -57 -22 -37 -21 -65 2 -80 13 -8
32 -4 77 16 47 22 75 27 134 27 137 0 213 -40 300 -158 52 -71 78 -138 85
-224 6 -64 4 -73 -31 -143 -45 -92 -113 -160 -204 -208 -109 -56 -166 -71
-272 -72 -118 0 -160 18 -204 90 -55 90 -43 217 34 346 35 59 46 70 99 94 72
33 94 70 70 114 -23 40 -67 40 -131 -2 -66 -42 -100 -81 -142 -166 -57 -114
-69 -162 -64 -265 5 -111 35 -184 102 -243 87 -77 202 -94 370 -54 276 66 468
273 469 506 0 149 -38 237 -155 361 -75 79 -134 114 -226 133 -78 16 -128 13
-215 -15z"/>
<path d="M8506 25348 c-13 -18 -16 -51 -16 -152 0 -132 23 -382 40 -447 11
-41 35 -56 58 -37 13 11 14 37 8 178 -4 106 -2 203 5 270 15 129 14 156 -6
186 -20 32 -68 32 -89 2z"/>
<path d="M6509 25336 c-98 -40 -249 -174 -317 -280 -85 -135 -80 -342 13 -476
111 -161 366 -188 562 -60 79 52 258 239 305 320 69 118 62 199 -26 284 -91
89 -222 146 -338 146 -54 0 -58 2 -58 23 0 28 -39 67 -66 67 -10 0 -44 -11
-75 -24z m236 -171 c175 -46 274 -128 262 -217 -7 -50 -73 -149 -159 -239
-124 -128 -220 -174 -353 -167 -68 4 -90 9 -136 36 -46 26 -60 41 -83 87 -66
136 -38 360 53 406 14 8 55 33 91 55 36 23 74 44 85 47 44 11 184 6 240 -8z"/>
<path d="M19020 25262 c-20 -16 -28 -46 -56 -213 -18 -107 -38 -266 -44 -354
-6 -88 -22 -250 -36 -359 -22 -177 -23 -201 -10 -215 20 -20 60 -2 79 36 33
64 66 271 87 533 5 74 22 198 36 275 44 245 48 283 34 300 -17 21 -63 19 -90
-3z"/>
<path d="M23352 25178 c-14 -14 2 -48 24 -48 20 0 29 27 14 45 -15 18 -22 19
-38 3z"/>
<path d="M14110 25032 c-70 -27 -105 -49 -134 -83 -52 -62 -15 -101 52 -55 86
59 198 72 299 34 109 -40 252 -219 303 -379 20 -62 21 -75 10 -111 -23 -79
-239 -271 -380 -337 -147 -70 -309 -40 -360 65 -40 81 -36 277 8 389 26 66 70
123 119 152 39 23 61 27 148 32 82 5 107 10 124 25 28 26 26 50 -5 75 -35 27
-76 27 -196 -3 -153 -39 -217 -86 -278 -206 -43 -85 -60 -161 -60 -268 0 -187
49 -294 160 -350 159 -79 336 -40 553 124 119 89 216 187 252 254 24 45 30 67
30 120 0 58 -6 75 -47 155 -54 102 -155 235 -215 283 -22 17 -69 46 -104 63
-80 40 -206 50 -279 21z"/>
<path d="M15746 24876 c-144 -50 -246 -126 -246 -183 0 -13 -16 -42 -38 -66
-81 -89 -144 -240 -168 -402 -47 -306 74 -536 280 -535 124 1 222 58 383 221
135 137 185 204 243 324 59 122 85 237 77 340 -9 108 -32 161 -98 228 -78 77
-130 100 -244 104 -82 4 -99 1 -189 -31z m352 -141 c63 -57 84 -107 84 -205 1
-142 -39 -247 -153 -397 -101 -132 -232 -253 -324 -299 -67 -33 -80 -36 -131
-31 -78 8 -125 41 -161 114 -27 55 -28 64 -28 198 0 161 14 227 72 345 50 102
144 194 247 245 70 35 85 39 181 43 72 3 108 9 116 18 20 24 45 16 97 -31z"/>
<path d="M17383 24860 c-20 -21 -65 -210 -84 -352 -8 -53 -10 -173 -6 -333 5
-247 12 -301 43 -335 12 -12 16 -12 32 3 15 16 18 48 23 270 8 315 16 379 69
557 44 145 46 164 21 189 -27 27 -74 27 -98 1z"/>
<path d="M8580 24599 c-345 -27 -455 -42 -480 -64 -27 -24 -25 -61 5 -90 26
-27 55 -31 120 -15 95 23 277 45 460 55 55 3 132 9 170 14 39 6 107 10 152 10
45 0 91 5 103 11 31 17 24 46 -17 75 -35 24 -45 25 -158 24 -66 -1 -226 -10
-355 -20z"/>
<path d="M8391 24364 c-11 -14 -23 -46 -27 -71 -14 -93 18 -706 38 -730 14
-18 43 -16 58 2 14 17 18 154 12 445 -3 128 0 178 12 223 22 80 20 110 -7 135
-31 29 -61 28 -86 -4z"/>
<path d="M1625 24304 c-163 -26 -292 -62 -419 -120 -102 -45 -126 -61 -136
-84 -14 -33 -2 -63 31 -80 16 -9 27 -7 52 9 95 60 163 92 257 124 120 40 248
72 256 65 3 -3 -41 -44 -98 -90 -136 -112 -228 -211 -228 -244 0 -39 57 -90
121 -108 30 -8 122 -22 204 -31 238 -25 408 -77 421 -130 8 -32 -20 -114 -55
-162 -88 -121 -228 -223 -556 -405 -151 -84 -196 -118 -193 -142 6 -43 51 -32
212 50 356 181 576 350 660 505 37 67 48 175 22 214 -48 73 -222 137 -446 165
-209 26 -280 44 -280 70 0 9 210 196 303 269 62 49 97 86 97 103 0 3 -7 14
-16 22 -19 20 -83 19 -209 0z"/>
<path d="M9932 24223 c-7 -3 -24 -27 -37 -54 -33 -63 -40 -190 -24 -399 10
-124 9 -185 -1 -310 -18 -211 -18 -249 0 -260 32 -21 50 -3 66 66 29 121 37
216 38 479 2 259 3 272 25 320 48 105 13 190 -67 158z"/>
<path d="M6518 24175 c-107 -39 -263 -187 -319 -301 -89 -181 -23 -408 161
-555 77 -61 165 -89 279 -89 92 0 177 22 264 67 90 47 155 107 216 198 94 141
114 247 66 350 -39 82 -167 198 -286 257 -84 43 -103 48 -184 54 -49 4 -99 13
-110 20 -24 17 -39 17 -87 -1z m201 -111 c162 -40 327 -164 370 -277 24 -67
21 -97 -21 -182 -68 -136 -144 -205 -280 -252 -62 -21 -86 -24 -163 -21 -116
6 -179 32 -241 101 -55 62 -77 103 -99 188 -24 89 -16 152 28 242 45 91 103
147 183 176 32 12 68 26 79 31 30 13 72 12 144 -6z"/>
<path d="M5065 24120 c-81 -17 -237 -91 -265 -125 -16 -19 -6 -45 16 -45 12 0
-5 -23 -48 -68 -93 -96 -122 -157 -123 -252 0 -104 41 -187 139 -286 96 -96
152 -118 286 -112 119 5 187 35 278 122 191 183 267 369 219 536 -29 99 -118
174 -256 216 -58 18 -194 26 -246 14z m224 -116 c88 -25 158 -78 180 -137 6
-16 11 -53 11 -82 0 -142 -141 -355 -280 -423 -47 -23 -68 -27 -145 -27 -79 0
-95 3 -135 26 -90 53 -166 182 -164 279 2 89 40 148 129 200 57 33 85 61 85
83 0 25 -28 57 -49 57 -31 1 22 24 84 37 71 14 207 8 284 -13z"/>
<path d="M17827 23913 c-12 -11 -8 -23 8 -23 8 0 15 7 15 15 0 16 -12 20 -23
8z"/>
<path d="M16715 23832 c-103 -63 -114 -192 -18 -192 45 0 62 9 79 42 l15 29
77 -4 c42 -3 97 -9 122 -15 216 -48 307 -57 560 -57 175 0 199 2 235 20 30 15
41 27 43 47 5 45 -21 51 -267 60 -215 8 -388 28 -608 73 -102 21 -200 20 -238
-3z"/>
<path d="M13978 23510 c-190 -62 -309 -157 -376 -298 -35 -73 -37 -82 -37
-177 1 -208 82 -363 223 -428 39 -18 66 -22 162 -22 102 0 122 3 178 26 103
44 167 88 295 205 187 169 215 225 163 323 -74 142 -237 330 -321 371 -76 37
-177 37 -287 0z m250 -94 c15 -8 46 -34 68 -58 75 -78 204 -287 204 -329 0
-44 -230 -250 -353 -315 -70 -38 -74 -39 -177 -39 -97 0 -109 2 -152 28 -97
57 -133 139 -133 307 0 103 3 121 26 171 32 68 84 127 147 168 82 52 132 65
325 80 10 0 30 -5 45 -13z"/>
<path d="M19025 23530 c-38 -4 -78 -5 -88 -2 -10 2 -25 -2 -35 -10 -9 -9 -39
-18 -66 -21 -26 -2 -61 -14 -77 -26 -15 -12 -33 -21 -39 -21 -7 0 -35 -15 -63
-34 -29 -18 -92 -58 -140 -90 -96 -61 -240 -191 -301 -270 -48 -63 -108 -189
-131 -276 -9 -36 -19 -117 -22 -181 -5 -103 -3 -120 16 -156 27 -55 81 -97
148 -118 75 -24 238 -16 338 15 175 55 436 220 586 369 85 85 102 109 150 205
l54 109 4 117 c3 126 -14 224 -48 270 -26 36 -151 119 -186 124 -16 2 -61 1
-100 -4z m139 -154 c68 -58 78 -89 79 -231 1 -125 -23 -203 -94 -304 -52 -74
-107 -122 -249 -220 -273 -186 -517 -254 -657 -183 -63 33 -77 55 -81 132 -6
98 21 218 74 330 39 82 56 106 133 181 99 96 239 195 328 230 47 19 77 23 159
24 87 0 105 3 124 20 15 14 20 28 17 48 l-4 29 57 -4 c51 -4 63 -9 114 -52z"/>
<path d="M17210 23410 c-11 -11 -20 -32 -20 -47 -2 -117 -13 -304 -26 -438
-29 -292 -22 -395 26 -395 29 0 40 30 55 158 34 287 67 533 79 598 14 74 8
107 -22 130 -25 20 -69 17 -92 -6z"/>
<path d="M15525 23397 c-124 -71 -218 -143 -232 -176 -9 -20 -28 -55 -45 -78
-138 -201 -156 -455 -49 -703 71 -164 142 -245 253 -285 38 -13 70 -16 143
-13 88 4 99 7 187 51 167 83 275 182 348 318 98 184 72 396 -68 564 -70 84
-230 188 -320 209 -39 9 -85 16 -101 16 -35 0 -35 1 -19 46 10 29 9 36 -7 54
-23 26 -41 25 -90 -3z m184 -222 c228 -73 391 -258 391 -442 0 -113 -95 -281
-210 -370 -72 -56 -181 -109 -253 -123 -98 -20 -204 14 -266 85 -69 79 -133
245 -146 385 -14 145 61 348 174 469 l32 34 101 -7 c61 -4 130 -17 177 -31z"/>
<path d="M9324 23047 c-25 -22 -27 -28 -19 -53 6 -15 26 -37 45 -48 34 -20 49
-21 481 -21 412 0 448 -1 466 -17 48 -44 106 3 101 81 l-3 46 -50 4 c-70 5
-202 6 -485 2 -218 -3 -330 3 -471 25 -29 5 -41 1 -65 -19z"/>
<path d="M18865 22109 c-188 -7 -271 -14 -595 -45 -91 -9 -234 -17 -319 -19
-174 -3 -181 -6 -181 -77 0 -52 20 -61 128 -55 104 6 282 22 407 36 291 32
406 40 639 43 l259 3 12 -34 c20 -60 35 -61 112 -5 37 27 69 57 71 65 1 8 -12
31 -30 51 l-33 36 -140 4 c-77 2 -225 1 -330 -3z"/>
<path d="M10347 21984 c-2 -3 -152 -7 -333 -9 -181 -3 -453 -7 -604 -9 -151
-2 -340 -5 -420 -5 -185 -2 -716 -18 -1020 -30 -129 -6 -361 -15 -515 -21
-154 -6 -451 -21 -660 -32 -209 -12 -409 -22 -444 -24 -35 -1 -82 -5 -105 -8
-23 -3 -102 -8 -176 -12 -74 -3 -189 -10 -255 -15 -110 -8 -356 -24 -735 -47
-80 -5 -165 -10 -190 -10 -25 0 -81 -3 -125 -7 -44 -3 -156 -10 -250 -15 -93
-6 -282 -17 -420 -25 -634 -38 -1534 -60 -1885 -46 -170 6 -251 6 -265 -2 -51
-26 -59 -75 -18 -107 24 -19 35 -21 98 -15 38 4 232 8 430 11 198 2 392 5 430
8 39 2 185 7 325 10 253 7 690 28 970 46 80 6 222 15 315 20 94 6 203 16 243
22 51 8 75 9 83 1 13 -13 29 -81 23 -97 -2 -6 -29 -24 -58 -39 -105 -55 -166
-123 -166 -186 0 -64 59 -53 94 18 27 53 77 101 105 101 21 0 27 -58 40 -335
5 -135 10 -166 27 -195 14 -24 29 -36 47 -38 20 -3 35 -17 64 -63 66 -107 159
-138 240 -80 48 35 70 65 117 157 42 83 80 210 97 321 20 133 -11 246 -87 313
-52 45 -105 67 -194 79 -60 8 -88 7 -135 -4 -92 -22 -95 -21 -95 25 0 51 18
61 106 54 70 -6 435 8 664 25 69 5 278 19 465 30 711 42 1013 58 1235 66 96 3
204 7 240 10 36 3 128 7 205 11 77 3 160 7 185 9 25 2 104 4 175 5 72 1 150 6
175 10 47 9 423 20 830 23 169 2 241 6 258 15 18 11 42 11 122 1 87 -11 104
-10 142 4 46 18 82 20 253 14 61 -2 136 1 167 7 48 8 63 7 93 -7 29 -14 40
-15 58 -6 24 14 78 15 120 4 26 -7 100 9 166 36 19 8 21 13 12 22 -12 12 -253
22 -264 11z m-5101 -485 c28 -13 59 -39 72 -59 23 -33 24 -42 19 -150 -5 -132
-35 -248 -93 -368 -57 -118 -101 -129 -162 -40 -30 44 -72 155 -92 243 -18 81
-39 367 -28 389 9 17 20 18 122 14 94 -3 121 -8 162 -29z"/>
<path d="M10922 21978 c-38 -46 27 -50 983 -61 281 -3 578 -8 660 -11 83 -3
220 -8 305 -12 85 -3 214 -7 285 -9 72 -2 229 -9 350 -16 121 -7 261 -14 310
-15 337 -10 674 -27 910 -45 66 -5 165 -11 220 -13 228 -10 408 -26 423 -38
10 -9 78 -15 211 -20 250 -9 245 -9 701 -54 85 -9 220 -19 300 -23 80 -5 181
-14 225 -20 44 -6 112 -16 150 -22 39 -6 126 -14 195 -19 69 -5 146 -16 171
-24 43 -15 111 -24 315 -45 44 -4 87 -11 94 -16 7 -4 52 -9 99 -11 48 -2 99
-8 114 -13 15 -6 60 -11 100 -10 39 0 93 -4 118 -9 25 -5 66 -6 90 -3 60 9
299 -24 392 -52 26 -8 55 -13 66 -10 12 3 20 -2 23 -15 6 -21 7 -21 163 -40
44 -6 103 -16 130 -22 28 -7 79 -16 115 -21 36 -5 77 -11 92 -13 14 -2 32 -7
38 -11 6 -4 32 -7 58 -7 26 0 65 -8 87 -18 22 -10 99 -28 170 -39 72 -12 180
-34 240 -50 61 -16 153 -34 205 -41 52 -7 145 -25 205 -40 61 -16 144 -32 185
-36 41 -4 84 -10 96 -14 23 -9 50 3 40 18 -3 5 -24 19 -45 30 -38 20 -57 25
-216 57 -38 8 -92 21 -118 29 -27 9 -153 36 -280 61 -128 25 -272 55 -322 65
-49 11 -153 31 -230 45 -77 15 -183 35 -235 45 -221 44 -786 140 -950 162 -41
5 -106 14 -145 19 -38 5 -102 11 -141 13 -39 1 -76 6 -83 10 -6 4 -46 11 -89
16 -42 5 -138 17 -212 28 -74 11 -169 23 -210 27 -41 3 -95 10 -120 15 -25 4
-97 13 -160 19 -63 6 -151 16 -195 21 -44 5 -163 17 -265 25 -102 9 -228 20
-280 25 -313 32 -414 41 -580 50 -102 6 -252 15 -335 20 -82 5 -244 14 -360
20 -115 6 -282 15 -370 21 -88 5 -324 16 -525 24 -201 8 -464 19 -585 24 -121
6 -299 13 -395 16 -96 3 -314 10 -485 15 -386 13 -561 17 -1190 26 -439 6
-502 5 -513 -8z"/>
<path d="M10658 21963 c7 -3 16 -2 19 1 4 3 -2 6 -13 5 -11 0 -14 -3 -6 -6z"/>
<path d="M10728 21913 c-13 -15 -18 -67 -28 -273 -7 -140 -16 -311 -20 -380
-13 -204 -31 -605 -35 -745 -7 -283 -16 -861 -20 -1250 -2 -225 -7 -504 -10
-620 -7 -279 -29 -770 -45 -1035 -5 -80 -14 -257 -21 -395 -6 -137 -12 -251
-13 -251 0 -1 -255 -4 -566 -8 -651 -7 -1771 -34 -2140 -51 -90 -4 -588 -19
-1020 -30 -795 -20 -2037 -9 -2825 25 -126 6 -383 15 -570 20 -306 9 -589 27
-701 45 -70 12 -112 -29 -92 -87 6 -16 11 -28 11 -29 10 -7 511 -30 832 -39
226 -5 545 -15 710 -20 165 -5 329 -10 364 -10 56 0 62 -2 51 -15 -18 -21 -6
-193 20 -305 11 -47 48 -169 82 -273 38 -115 58 -191 52 -196 -10 -10 -66 -2
-199 28 -86 20 -132 26 -392 53 -112 12 -113 12 -138 -12 -19 -18 -25 -33 -25
-66 0 -23 6 -46 12 -52 8 -6 76 -10 165 -11 84 0 157 -3 163 -6 5 -3 79 -10
162 -15 159 -10 218 -17 353 -44 102 -20 153 -20 200 0 36 15 37 16 19 35 -19
21 -64 35 -158 50 -92 15 -99 18 -92 43 8 32 -11 185 -29 237 -37 104 -76 278
-86 387 -6 64 -15 128 -20 141 l-10 24 128 -7 c210 -11 1435 -9 1903 3 239 6
608 18 820 27 212 8 486 17 610 20 124 2 351 9 505 14 154 6 379 12 500 15
121 3 267 8 325 10 58 2 242 7 410 10 522 11 534 11 560 25 30 16 271 17 313
1 18 -7 103 -9 245 -6 260 6 1328 6 1707 0 655 -11 807 -15 910 -21 61 -4 169
-8 240 -9 72 -1 147 -5 168 -9 26 -6 46 -4 62 4 19 10 27 10 39 1 8 -7 41 -12
73 -12 109 1 304 -8 334 -14 17 -4 35 -2 43 4 10 8 23 7 48 -4 24 -9 45 -12
64 -6 16 4 43 4 59 -1 35 -11 290 -21 323 -13 30 7 28 23 -5 36 -45 18 -260
37 -309 28 -33 -6 -57 -4 -90 7 -42 14 -47 14 -64 -1 -10 -9 -24 -14 -30 -10
-28 18 -299 44 -525 51 -370 11 -480 14 -745 23 -643 22 -1838 33 -2335 21
-181 -4 -331 -7 -332 -6 -1 0 5 111 12 246 65 1154 71 1334 85 2445 10 834 16
1003 56 1723 14 254 24 481 22 505 -3 37 -6 42 -29 45 -15 2 -32 -4 -41 -15z"/>
<path d="M9379 21711 c-8 -2 -33 -17 -56 -32 -91 -62 -151 -220 -139 -364 8
-101 22 -139 71 -199 24 -30 41 -57 38 -60 -4 -3 -23 -6 -44 -6 -79 0 -142
-21 -181 -60 -44 -44 -47 -63 -13 -86 26 -17 77 -16 170 5 28 6 95 16 150 21
55 5 112 13 128 16 27 6 27 6 27 -46 0 -53 31 -190 73 -320 14 -41 32 -106 41
-145 30 -125 35 -135 62 -135 57 0 52 77 -23 370 -18 74 -37 168 -41 208 l-8
72 55 0 c31 0 73 6 96 14 26 10 118 18 265 24 236 11 280 19 280 51 0 15 -9
20 -42 25 -78 12 -220 5 -252 -11 -38 -20 -104 -23 -110 -6 -3 7 -19 13 -36
13 -16 0 -30 5 -30 10 0 6 18 10 40 10 55 0 85 17 152 88 63 66 72 89 66 166
-9 106 -70 192 -204 281 -126 85 -205 106 -385 103 -75 -1 -143 -4 -150 -7z
m399 -138 c41 -19 105 -62 143 -94 57 -50 71 -68 84 -111 8 -28 15 -58 15 -65
0 -24 -100 -122 -157 -154 -33 -19 -53 -37 -53 -48 0 -25 -42 -31 -226 -31
l-151 0 -44 35 c-71 54 -91 101 -97 214 -5 119 14 195 62 246 43 45 70 45 150
0 39 -21 77 -35 98 -35 45 0 73 29 64 65 -6 24 -5 26 16 20 13 -3 56 -22 96
-42z m-188 -576 c-11 -10 -39 -12 -105 -9 -108 6 -82 19 40 21 66 1 77 -1 65
-12z"/>
<path d="M8239 21699 c-126 -29 -239 -122 -316 -259 -57 -101 -83 -206 -83
-335 0 -160 26 -260 83 -322 11 -13 16 -23 11 -23 -198 -5 -446 -46 -494 -82
-52 -38 -53 -90 -3 -109 28 -11 98 -5 118 10 5 4 35 13 65 20 51 11 260 55
322 68 15 3 35 14 44 24 9 10 25 19 35 19 10 0 21 5 24 10 3 6 31 10 61 10 63
0 157 27 151 44 -4 13 -131 14 -189 1 -35 -7 -38 -6 -38 15 0 12 -11 31 -24
41 -33 26 -63 109 -71 195 -13 138 46 333 130 432 50 58 62 63 170 68 104 6
134 -3 178 -56 51 -60 63 -187 27 -284 -32 -84 -115 -203 -203 -289 -52 -51
-76 -82 -70 -88 6 -6 34 -7 69 -3 55 7 63 11 115 63 64 65 130 159 167 239 37
81 43 231 13 329 -22 75 -79 151 -132 179 -16 8 -29 23 -29 33 0 25 -42 61
-71 60 -13 -1 -40 -5 -60 -10z"/>
<path d="M1654 21668 c-89 -61 -151 -224 -138 -365 l7 -73 -35 0 c-41 0 -116
45 -146 88 -44 61 -22 140 50 183 69 42 88 60 88 84 0 61 -74 54 -154 -16 -66
-58 -97 -116 -103 -192 -4 -57 -2 -66 27 -110 44 -66 89 -97 184 -129 l81 -27
6 -103 c7 -108 30 -223 47 -240 15 -15 41 -2 52 26 9 24 0 171 -16 256 -4 25
-2 39 8 47 7 6 54 13 104 15 81 5 101 10 169 44 76 38 101 63 91 90 -8 21 -45
17 -115 -11 -46 -19 -89 -28 -162 -32 l-99 -6 0 48 c0 72 30 235 51 277 25 48
64 78 105 78 57 0 84 49 46 83 -31 28 -93 22 -148 -15z"/>
<path d="M13747 21660 c-76 -19 -137 -60 -137 -92 0 -23 31 -24 90 -3 133 47
264 -22 383 -201 25 -39 56 -97 69 -129 19 -51 20 -62 10 -102 -7 -24 -30 -70
-51 -101 -73 -107 -291 -301 -379 -338 -45 -18 -153 -18 -198 1 -26 11 -40 26
-57 62 -18 41 -21 66 -21 173 0 142 15 211 70 327 35 74 103 152 157 179 21
12 44 14 77 10 38 -5 52 -3 73 15 34 26 34 54 2 75 -36 23 -145 15 -205 -16
-117 -59 -228 -220 -272 -393 -33 -132 -15 -352 38 -444 47 -81 184 -122 299
-88 135 39 213 94 386 272 187 192 233 298 180 417 -57 129 -203 291 -313 347
-63 32 -142 43 -201 29z"/>
<path d="M15435 21546 c-36 -25 -163 -318 -202 -466 -21 -77 -27 -126 -30
-260 -8 -252 18 -371 80 -378 33 -4 42 25 28 88 -15 64 -13 279 3 385 26 168
53 249 146 435 39 77 70 148 70 159 0 44 -55 65 -95 37z"/>
<path d="M6471 21434 c-18 -23 -21 -42 -22 -128 -3 -219 11 -372 37 -413 16
-25 58 -31 71 -10 4 6 6 94 4 194 -2 109 2 211 9 256 7 42 10 87 6 101 -5 22
-12 26 -45 26 -31 0 -44 -6 -60 -26z"/>
<path d="M18195 21350 c-149 -27 -251 -81 -311 -166 -58 -81 -69 -173 -36
-281 67 -212 289 -359 596 -394 208 -23 409 30 530 141 l51 48 0 64 c0 55 -5
72 -35 122 -46 77 -179 210 -241 241 -40 21 -49 30 -49 52 0 43 -92 125 -171
152 -72 26 -248 36 -334 21z m316 -115 c24 -9 55 -24 68 -34 l23 -18 -68 -6
c-119 -10 -204 -53 -204 -103 0 -41 21 -46 91 -22 96 32 189 30 260 -5 96 -47
238 -212 239 -278 1 -54 -157 -122 -322 -139 -250 -25 -540 81 -616 225 -42
82 -53 197 -24 255 28 57 128 110 245 129 90 15 259 13 308 -4z"/>
<path d="M16875 21276 c-32 -32 -40 -110 -40 -396 1 -183 4 -254 18 -320 36
-179 56 -219 92 -184 19 19 19 53 -1 217 -20 157 -14 309 15 472 31 166 28
195 -20 220 -36 19 -36 19 -64 -9z"/>
<path d="M8606 20793 c-12 -12 -6 -33 9 -33 8 0 15 6 15 14 0 17 -14 28 -24
19z"/>
<path d="M6018 20735 c-48 -7 -99 -20 -113 -29 -36 -24 -49 -53 -36 -82 9 -21
17 -24 63 -23 29 0 91 5 138 10 86 11 286 26 440 34 82 4 234 5 410 2 89 -2
150 14 150 39 0 15 -17 24 -90 44 -66 19 -843 23 -962 5z"/>
<path d="M8450 20730 c-25 -5 -117 -18 -205 -30 -169 -23 -203 -36 -173 -66
14 -15 22 -14 93 1 108 24 263 17 328 -14 57 -28 71 -50 64 -108 -6 -54 -85
-183 -140 -227 -34 -27 -48 -31 -111 -34 -70 -4 -74 -3 -110 28 -48 43 -66 79
-66 134 0 65 19 80 89 72 71 -8 101 9 101 58 0 51 -19 68 -84 74 -69 6 -130
-15 -172 -59 -28 -29 -29 -34 -28 -117 1 -110 14 -157 60 -210 54 -64 113 -94
193 -100 114 -8 191 40 277 170 74 113 87 150 82 232 -6 84 -32 143 -81 180
-36 27 -45 29 -117 16z"/>
<path d="M6505 20488 c-11 -6 -23 -16 -27 -22 -24 -35 9 -369 48 -488 16 -49
28 -58 75 -58 38 0 47 34 26 108 -22 79 -28 142 -28 300 1 112 -2 139 -16 154
-18 20 -49 23 -78 6z"/>
<path d="M5026 20395 c-75 -19 -145 -55 -223 -113 -65 -49 -83 -76 -64 -95 8
-8 39 3 114 40 126 64 168 75 278 75 102 0 140 -16 170 -74 28 -55 26 -146 -5
-206 -66 -129 -120 -169 -245 -179 -94 -8 -157 15 -233 85 -63 59 -114 152
-124 227 -6 40 -4 46 35 88 42 45 50 74 29 95 -36 36 -111 -6 -148 -84 -18
-36 -21 -58 -18 -112 6 -90 43 -166 126 -253 150 -160 365 -191 535 -78 52 34
123 133 156 217 40 100 22 224 -42 290 -60 63 -111 85 -201 89 -48 1 -105 -4
-140 -12z"/>
<path d="M18292 20371 c-26 -43 -80 -333 -92 -494 -12 -155 -6 -306 16 -447
19 -115 30 -147 55 -155 51 -16 61 27 38 165 -18 103 -19 134 -10 300 11 196
28 311 62 407 44 125 50 202 19 233 -30 30 -67 26 -88 -9z"/>
<path d="M15835 20353 c-22 -2 -98 -11 -170 -20 -104 -14 -221 -17 -582 -17
-510 -1 -488 2 -488 -76 0 -75 -2 -75 318 -71 564 6 754 21 1117 85 62 11 90
21 102 36 29 36 13 47 -70 54 -150 12 -187 13 -227 9z"/>
<path d="M13521 20309 c-110 -22 -183 -56 -256 -120 -45 -40 -87 -111 -83
-141 6 -43 37 -33 98 31 40 42 79 71 127 94 63 30 75 32 173 32 98 0 109 -2
158 -30 113 -62 232 -235 232 -336 0 -69 -29 -121 -114 -204 -153 -151 -297
-238 -391 -237 -150 1 -205 80 -192 278 6 97 41 173 113 246 36 37 58 50 109
63 69 19 105 45 105 75 0 22 -22 46 -49 55 -21 6 -103 -23 -158 -58 -61 -39
-177 -169 -209 -233 -27 -55 -29 -67 -28 -169 0 -90 4 -120 23 -169 48 -122
125 -172 266 -170 151 1 310 89 484 270 107 110 142 172 148 264 5 60 2 71
-36 145 -68 135 -193 257 -303 295 -67 23 -160 31 -217 19z"/>
<path d="M1680 20283 c-203 -22 -360 -97 -432 -205 -37 -55 -39 -133 -4 -192
51 -87 135 -123 391 -171 159 -29 272 -66 309 -100 66 -61 -3 -184 -139 -253
-91 -45 -167 -63 -295 -69 -129 -6 -160 -13 -160 -38 0 -29 42 -40 150 -39
106 1 168 13 300 57 174 59 304 217 270 330 -29 99 -143 157 -411 211 -232 47
-276 61 -316 101 -37 37 -44 85 -18 122 21 30 189 109 276 130 59 14 112 18
254 17 191 -2 326 -18 560 -69 131 -28 182 -29 199 -3 16 26 -1 37 -96 65
-292 87 -626 129 -838 106z"/>
<path d="M16723 20233 c-16 -23 -18 -53 -17 -242 1 -232 8 -284 61 -444 23
-66 32 -83 50 -85 42 -6 45 25 17 170 -23 118 -26 149 -21 273 3 77 13 173 21
213 15 64 15 76 2 101 -26 50 -85 57 -113 14z"/>
<path d="M9385 20180 c-102 -3 -168 -10 -182 -18 -47 -26 -57 -82 -20 -107 28
-18 125 -22 297 -12 236 13 655 30 720 28 84 -3 105 11 93 59 l-9 35 -125 12
c-127 12 -486 13 -774 3z"/>
<path d="M15179 20099 c-45 -49 -117 -214 -148 -339 -57 -231 -41 -570 30
-641 23 -23 33 -24 54 -3 13 13 15 25 8 58 -4 22 -8 131 -8 241 1 175 4 210
24 285 29 111 73 215 122 290 46 72 49 101 13 129 -38 30 -52 27 -95 -20z"/>
<path d="M9471 19759 c-41 -29 -56 -51 -49 -71 5 -12 30 -15 125 -16 201 -3
370 -50 440 -122 36 -37 59 -112 50 -166 -18 -109 -199 -249 -355 -275 -184
-30 -350 73 -369 228 -10 89 3 138 53 194 49 55 54 79 24 109 -34 34 -85 21
-132 -35 -30 -34 -51 -124 -52 -220 0 -81 3 -97 31 -157 43 -91 98 -147 190
-194 75 -38 78 -39 182 -38 82 0 119 5 165 22 207 76 366 253 366 408 0 88
-28 158 -87 216 -91 88 -211 127 -413 135 -130 5 -136 4 -169 -18z"/>
<path d="M8278 19729 c-30 -17 -36 -40 -53 -219 -30 -301 -9 -558 46 -575 13
-4 27 -1 36 7 11 12 12 35 4 139 -13 158 -2 281 39 447 36 145 35 174 -10 197
-34 17 -39 18 -62 4z"/>
<path d="M4691 19669 c-75 -38 -144 -100 -139 -126 6 -33 44 -26 107 18 74 52
143 63 219 33 92 -35 264 -234 311 -360 28 -74 28 -176 0 -240 -29 -69 -123
-196 -181 -245 -78 -66 -121 -83 -208 -83 -126 0 -175 43 -226 201 -26 78 -29
103 -29 213 0 158 23 231 91 286 52 43 62 68 38 95 -54 60 -159 -28 -209 -176
-63 -187 -11 -497 107 -631 66 -74 190 -109 299 -84 125 29 233 116 346 281
78 113 97 166 97 274 1 82 -2 96 -32 160 -76 162 -259 345 -394 397 -71 27
-124 23 -197 -13z"/>
<path d="M6480 19660 c-33 -35 -38 -54 -46 -190 -6 -101 6 -248 26 -315 5 -16
16 -55 25 -85 23 -78 59 -130 90 -130 14 0 28 6 31 13 2 7 -7 58 -20 113 -52
202 -55 324 -15 483 24 94 24 118 0 131 -33 17 -62 11 -91 -20z"/>
<path d="M13424 19266 c-50 -13 -113 -35 -140 -49 -134 -69 -280 -207 -272
-258 6 -43 34 -32 117 44 91 83 182 134 301 166 167 46 281 17 350 -90 89
-137 105 -296 40 -402 -48 -80 -123 -161 -191 -206 -54 -36 -68 -41 -120 -41
-35 0 -91 -10 -139 -26 l-82 -25 -54 26 c-74 36 -105 83 -111 170 -11 132 44
226 167 287 84 41 101 64 76 103 -22 33 -49 32 -126 -6 -73 -37 -151 -112
-199 -193 -80 -135 -37 -330 91 -413 24 -15 45 -29 48 -30 2 -2 -22 -29 -54
-59 -46 -44 -57 -60 -54 -82 5 -45 36 -39 98 19 73 68 111 85 200 92 41 3 97
13 125 22 32 11 64 15 92 11 64 -9 185 -71 241 -125 82 -78 142 -237 128 -335
-15 -99 -133 -239 -288 -343 -114 -76 -194 -105 -294 -106 -87 -2 -157 29
-189 83 -30 53 -28 222 4 303 29 74 71 121 133 153 52 26 63 57 32 88 -24 24
-63 19 -122 -16 -111 -68 -204 -272 -189 -417 14 -131 56 -198 160 -250 60
-31 75 -34 150 -33 45 0 111 8 146 17 194 50 438 245 528 423 35 70 38 81 38
161 0 81 -2 91 -44 174 -60 121 -140 203 -251 256 -45 22 -84 42 -87 44 -2 2
30 32 72 66 86 72 155 156 192 238 60 130 14 323 -113 480 -79 97 -231 127
-410 79z"/>
<path d="M1605 19191 c-138 -66 -198 -155 -198 -296 -1 -165 99 -316 256 -387
106 -49 294 -45 454 9 194 64 231 106 154 176 -61 55 -137 79 -275 85 -152 6
-270 -10 -343 -49 -77 -40 -86 -38 -116 24 -32 68 -43 151 -27 215 23 97 118
171 204 158 39 -6 46 -4 60 16 20 29 20 34 -4 58 -29 29 -92 26 -165 -9z m440
-510 c91 -13 147 -31 142 -44 -2 -7 -39 -23 -83 -36 -105 -32 -332 -37 -406
-8 -65 25 -78 44 -42 58 81 30 279 46 389 30z"/>
<path d="M17893 19161 c-28 -5 -69 -17 -90 -27 -34 -17 -39 -25 -47 -67 -7
-42 -6 -53 11 -75 27 -36 46 -38 85 -8 22 16 56 29 98 35 93 15 1008 15 1088
0 54 -10 66 -9 87 5 34 22 33 54 -2 61 -16 3 -53 13 -83 21 -111 32 -138 36
-280 44 -223 13 -809 20 -867 11z"/>
<path d="M16383 19100 c-69 -14 -197 -87 -266 -150 -46 -42 -74 -80 -102 -134
-36 -72 -39 -83 -43 -185 -4 -91 -1 -121 17 -179 22 -75 84 -176 132 -216 16
-14 29 -27 29 -30 0 -3 -24 -6 -52 -6 -66 0 -102 -17 -106 -51 -3 -29 40 -79
69 -79 10 0 29 -5 43 -11 21 -10 35 -8 77 10 28 11 66 21 83 22 17 0 40 4 50
8 11 4 52 1 90 -7 105 -22 283 -5 363 34 l58 28 200 -3 c110 -1 218 -6 240
-11 22 -5 58 -10 81 -10 22 0 68 -11 102 -25 70 -28 100 -31 108 -11 9 23 -54
93 -98 111 -48 19 -206 42 -350 50 -60 4 -108 9 -108 12 0 3 22 29 49 59 70
77 94 144 89 254 -10 208 -114 321 -310 337 -38 3 -68 9 -68 14 0 4 -22 32
-50 62 -82 90 -210 132 -327 107z m164 -113 c54 -14 123 -55 123 -72 0 -6 -33
-19 -72 -29 -40 -10 -86 -25 -101 -33 -45 -23 -58 -83 -21 -97 9 -3 55 5 104
19 126 35 136 34 144 -16 4 -23 17 -51 32 -66 23 -23 27 -24 47 -10 23 16 29
56 14 111 -8 28 -8 28 30 22 21 -4 62 -19 92 -33 45 -22 57 -33 77 -77 64
-138 0 -314 -153 -415 -41 -28 -54 -31 -122 -31 -71 0 -307 -21 -411 -36 -40
-5 -51 -2 -95 28 -109 73 -160 191 -153 351 5 110 36 188 101 255 51 53 143
106 217 126 70 19 84 19 147 3z"/>
<path d="M14950 19035 c-20 -24 -31 -197 -33 -511 -2 -297 0 -314 44 -314 40
0 46 33 69 375 12 182 24 351 27 377 4 38 1 50 -16 67 -25 25 -73 28 -91 6z"/>
<path d="M18186 18891 c-22 -24 -33 -67 -44 -167 -12 -106 0 -229 32 -331 32
-98 67 -145 105 -141 35 4 37 26 7 101 -13 34 -30 100 -37 147 -11 78 -10 94
11 195 28 130 28 156 6 190 -20 30 -56 33 -80 6z"/>
<path d="M9305 18849 c-32 -19 -45 -40 -45 -76 0 -28 5 -35 38 -49 26 -11 53
-14 92 -9 94 11 302 9 375 -4 39 -6 124 -15 190 -20 66 -5 163 -15 215 -21
129 -16 184 -11 188 15 2 15 -11 30 -45 55 -42 29 -59 34 -129 40 -44 4 -84 9
-90 12 -5 3 -74 13 -154 22 -80 9 -178 21 -219 26 -124 17 -393 23 -416 9z"/>
<path d="M8360 18809 c-265 -9 -416 -41 -460 -97 -20 -25 -27 -86 -11 -96 5
-3 35 -7 67 -8 47 -2 65 1 89 18 28 20 61 29 185 54 25 5 209 12 410 16 219 4
370 11 378 17 21 17 -5 34 -64 42 -30 3 -76 17 -102 30 -41 21 -64 24 -177 27
-71 2 -213 0 -315 -3z"/>
<path d="M8162 18625 c-34 -25 -49 -102 -63 -323 -19 -315 1 -568 46 -586 19
-7 45 3 46 18 1 6 2 117 3 246 2 235 15 361 51 501 21 80 19 112 -8 137 -28
26 -45 27 -75 7z"/>
<path d="M6468 18569 c-30 -17 -37 -42 -54 -181 -13 -102 -15 -178 -11 -328 9
-280 39 -425 88 -425 12 0 14 44 14 255 1 257 5 305 47 532 21 114 21 118 3
138 -19 21 -59 26 -87 9z"/>
<path d="M4874 18460 c-141 -37 -304 -141 -390 -248 -155 -194 -171 -401 -45
-617 126 -217 337 -273 575 -153 68 34 218 174 309 288 153 191 193 388 107
523 -55 86 -188 148 -327 150 -77 2 -83 4 -83 23 0 26 -30 54 -56 53 -10 0
-51 -9 -90 -19z m92 -151 c120 3 151 0 219 -18 151 -41 191 -89 183 -221 -8
-130 -90 -272 -245 -421 -127 -122 -221 -169 -344 -169 -125 0 -212 59 -272
187 -53 112 -68 220 -44 311 10 37 32 91 50 120 44 74 148 170 232 214 69 36
70 37 75 15 6 -22 9 -22 146 -18z"/>
<path d="M9524 18392 c-41 -27 -54 -115 -43 -306 5 -89 13 -263 19 -388 10
-242 21 -298 58 -298 45 0 46 9 38 408 -6 323 -4 384 9 427 19 65 19 129 -1
149 -16 17 -61 21 -80 8z"/>
<path d="M2250 18113 c-8 -1 -130 -6 -270 -13 -425 -18 -521 -27 -544 -49 -24
-25 -15 -67 20 -83 19 -9 44 -8 112 6 83 17 139 21 584 45 185 10 243 8 254
-11 6 -10 -9 -41 -87 -185 -103 -190 -206 -330 -359 -491 -55 -58 -99 -110
-97 -116 2 -6 15 -12 30 -14 40 -5 103 44 215 167 127 140 224 276 304 426
121 229 125 269 33 303 -27 10 -157 20 -195 15z"/>
<path d="M15056 18087 c-26 -19 -40 -191 -31 -357 4 -69 10 -204 14 -300 l6
-175 32 -3 c25 -2 35 2 45 20 19 34 27 205 16 357 -9 125 -5 203 19 392 8 61
-54 100 -101 66z"/>
<path d="M18240 17983 c-168 -26 -309 -120 -433 -288 -237 -323 -178 -551 159
-605 109 -18 257 15 419 91 217 103 333 375 261 612 -33 111 -117 169 -268
186 -54 6 -101 10 -105 10 -4 -1 -19 -3 -33 -6z m248 -143 c55 -34 72 -73 72
-170 0 -104 -25 -199 -70 -270 -51 -79 -119 -122 -280 -176 -69 -23 -102 -29
-180 -29 -120 0 -181 17 -233 66 -38 37 -40 41 -34 86 17 145 160 362 295 446
35 23 45 25 66 16 20 -9 37 -7 95 16 61 23 80 26 130 20 39 -4 61 -3 65 4 11
17 37 13 74 -9z"/>
<path d="M16505 17966 c-87 -27 -205 -98 -251 -150 -53 -61 -128 -209 -143
-284 -34 -165 24 -330 144 -414 165 -115 447 -79 697 90 184 124 236 258 167
424 -38 91 -106 186 -153 213 -57 33 -178 74 -243 81 -36 5 -59 14 -74 30 -26
27 -77 31 -144 10z m186 -141 c104 -16 194 -49 261 -96 38 -28 85 -125 94
-195 5 -46 3 -62 -20 -109 -37 -74 -89 -116 -231 -185 -139 -68 -187 -80 -310
-82 -183 -2 -278 82 -279 247 -2 180 110 353 269 415 62 23 84 24 216 5z"/>
<path d="M9325 17351 c-145 -14 -175 -30 -175 -93 0 -51 41 -57 220 -34 119
15 417 12 490 -6 25 -5 83 -23 129 -39 46 -16 93 -29 105 -29 11 0 41 -14 65
-30 90 -61 127 -27 54 51 -109 117 -322 179 -633 184 -96 2 -211 0 -255 -4z"/>
<path d="M17737 17013 c-9 -11 -17 -41 -19 -78 l-3 -60 140 -6 c77 -4 210 -11
295 -18 434 -31 442 -31 475 -15 29 13 45 13 156 -1 135 -18 226 -13 236 11
12 33 -25 45 -202 68 -60 8 -173 20 -250 26 -77 6 -185 19 -240 30 -55 10
-156 22 -225 25 -69 4 -157 13 -197 21 -98 19 -146 18 -166 -3z"/>
<path d="M10563 16892 c-25 -16 -34 -71 -38 -222 -3 -85 -7 -186 -10 -225 -3
-38 -10 -313 -15 -610 -10 -535 -21 -948 -40 -1430 -5 -137 -12 -320 -15 -405
-3 -85 -12 -276 -20 -425 -8 -148 -19 -376 -25 -505 -6 -129 -13 -253 -15
-275 -4 -37 -9 -120 -35 -540 -5 -88 -19 -297 -29 -465 -11 -168 -23 -376 -27
-463 -4 -87 -11 -160 -16 -163 -4 -3 -108 -7 -231 -9 -122 -2 -343 -8 -492
-14 -500 -20 -1516 -33 -2035 -27 -489 5 -740 13 -1195 36 -110 5 -436 21
-725 35 -716 34 -1060 54 -1155 65 -44 5 -134 14 -200 20 -264 23 -553 63
-740 102 -127 26 -138 32 -130 67 4 20 0 32 -19 50 -23 22 -27 23 -78 11 -98
-23 -115 -67 -49 -130 52 -49 124 -73 335 -109 226 -39 279 -46 561 -76 508
-53 661 -63 1475 -100 317 -15 533 -26 585 -30 33 -3 155 -7 270 -10 116 -3
309 -10 430 -17 279 -14 1623 -13 2015 1 162 6 383 13 490 16 290 6 676 24
752 35 37 6 85 10 108 10 37 0 40 -2 36 -22 -9 -44 -16 -115 -21 -233 -4 -66
-10 -183 -16 -260 -5 -77 -16 -237 -24 -355 -20 -286 -43 -547 -61 -700 -8
-69 -19 -168 -24 -221 -5 -53 -19 -168 -30 -255 -53 -411 -74 -570 -110 -834
-22 -157 -44 -325 -50 -375 -6 -49 -20 -155 -31 -235 -44 -328 -49 -370 -64
-480 -34 -263 -107 -775 -111 -782 -2 -3 -13 -62 -23 -130 -25 -160 -62 -356
-112 -598 -40 -193 -79 -397 -79 -411 0 -8 -4 -9 -114 -39 -43 -11 -104 -34
-135 -50 -68 -35 -133 -62 -138 -57 -2 2 8 53 21 113 29 129 64 451 72 672 7
181 -9 517 -32 677 -8 61 -19 169 -22 241 -8 136 -17 164 -53 164 -9 0 -25 -8
-35 -17 -15 -15 -16 -33 -11 -153 4 -74 13 -178 21 -230 25 -160 39 -460 33
-670 -9 -268 -66 -792 -91 -825 -8 -12 -34 -19 -78 -24 -36 -4 -73 -13 -82
-20 -24 -20 -20 -64 9 -95 23 -25 30 -27 68 -20 23 4 55 7 72 6 19 -1 38 7 55
22 27 26 108 65 179 87 24 7 63 25 87 40 45 29 133 63 141 55 3 -3 -11 -60
-32 -128 -20 -68 -50 -175 -66 -238 -30 -117 -81 -305 -126 -460 -52 -182
-201 -774 -258 -1025 -14 -66 -47 -204 -71 -307 -48 -200 -54 -280 -22 -286
30 -6 66 96 124 348 29 129 67 291 83 360 46 200 128 519 187 730 138 493 215
785 249 952 l16 76 67 34 c83 42 87 62 15 66 -60 3 -62 9 -37 77 15 41 44 177
129 605 16 81 73 426 99 605 9 61 21 135 26 165 5 30 12 80 15 110 3 30 15
116 25 190 11 74 26 196 35 270 8 74 18 149 21 165 3 17 21 149 40 295 71 538
85 646 94 710 122 884 177 1395 225 2100 29 431 35 583 23 597 -18 22 -3 25
71 14 88 -14 205 -14 307 -1 50 7 102 8 143 2 53 -8 72 -6 114 10 38 15 56 17
71 9 12 -6 32 -10 46 -10 14 0 56 -3 94 -7 65 -6 70 -5 88 17 l18 24 19 -24
c16 -22 24 -23 66 -18 26 4 54 12 62 18 10 9 18 8 31 -5 24 -21 38 -20 55 4
12 17 24 20 88 18 41 -1 77 -6 80 -11 4 -5 23 -4 45 1 21 6 80 8 129 6 50 -3
225 -5 390 -5 195 -1 305 -5 316 -12 13 -8 26 -6 53 8 20 11 35 24 33 30 -2 5
-28 11 -58 13 -324 17 -600 22 -1089 17 -930 -10 -1042 -12 -1099 -24 -30 -6
-56 -10 -57 -8 -2 2 1 57 6 123 5 65 14 205 20 309 6 105 15 260 20 345 54
873 66 1101 94 1710 33 702 44 1014 56 1600 11 526 26 1042 40 1405 8 228 6
255 -24 255 -6 0 -16 -4 -23 -8z"/>
<path d="M15302 16844 c-24 -18 -7 -41 35 -48 56 -8 132 -6 139 5 7 12 74 12
74 -1 0 -16 41 -32 66 -26 15 4 24 14 24 26 0 11 5 20 10 20 6 0 10 -8 10 -18
0 -28 54 -39 250 -52 96 -6 222 -15 280 -20 58 -6 206 -17 330 -26 257 -19
406 -29 535 -38 50 -4 99 -9 110 -11 11 -2 26 0 34 4 9 6 26 4 45 -5 42 -19
285 -44 309 -32 13 7 24 5 35 -6 12 -10 57 -18 140 -25 67 -6 166 -18 218 -26
53 -9 131 -18 173 -21 42 -2 87 -6 101 -9 90 -15 243 -39 420 -65 113 -16 237
-35 277 -41 39 -6 86 -9 104 -7 18 3 53 -1 78 -9 25 -7 89 -20 141 -28 52 -8
142 -21 200 -30 58 -8 127 -19 155 -24 27 -5 58 -5 69 -2 11 5 33 0 54 -11 23
-11 58 -18 97 -18 33 0 112 -9 175 -20 95 -16 117 -17 128 -6 17 17 3 27 -68
49 -138 41 -573 123 -785 148 -44 5 -111 16 -150 23 -38 8 -99 17 -135 21 -36
3 -103 12 -150 20 -188 31 -228 37 -300 45 -171 21 -482 60 -585 74 -60 8
-227 27 -370 41 -143 14 -267 28 -275 30 -8 3 -130 14 -270 25 -140 11 -336
26 -435 35 -211 17 -262 21 -495 36 -330 21 -421 24 -436 16 -9 -5 -21 -3 -31
5 -21 17 -307 19 -331 2z"/>
<path d="M1955 16841 c-71 -18 -160 -84 -191 -143 -29 -55 -15 -119 43 -196
l25 -34 -35 -51 c-53 -79 -57 -90 -58 -164 -2 -112 42 -183 152 -248 147 -86
311 -87 487 -4 97 47 115 103 63 195 -54 93 -175 188 -345 270 -53 26 -94 50
-91 54 9 15 147 102 198 125 29 14 91 34 138 45 115 28 125 33 149 79 24 48
24 46 4 65 -25 26 -78 19 -160 -21 -69 -35 -76 -36 -85 -21 -23 41 -204 71
-294 49z m134 -170 c-41 -26 -91 -62 -113 -80 -45 -36 -69 -38 -113 -11 -39
23 -41 39 -10 67 59 54 101 65 271 71 l39 2 -74 -49z m-23 -276 c124 -64 257
-156 295 -204 46 -58 -2 -106 -133 -136 -140 -32 -262 -13 -339 53 -67 57 -85
125 -53 200 19 47 86 152 97 152 4 0 64 -29 133 -65z"/>
<path d="M7972 16719 c-182 -30 -348 -147 -403 -284 -21 -52 -24 -76 -24 -180
0 -115 1 -122 30 -174 44 -80 140 -148 265 -187 54 -17 189 -18 262 -3 137 29
278 107 360 198 65 72 90 131 96 222 4 67 1 84 -21 132 -45 99 -134 162 -262
186 -22 4 -61 24 -87 43 -40 31 -126 62 -156 57 -4 -1 -31 -5 -60 -10z m92
-85 c12 -5 10 -10 -12 -29 -22 -20 -25 -27 -16 -42 8 -12 21 -17 40 -16 16 2
61 6 100 9 177 16 294 -79 282 -229 -10 -119 -90 -216 -240 -291 -306 -152
-556 -70 -575 188 -15 197 98 338 319 396 85 22 82 22 102 14z"/>
<path d="M6287 16615 c-93 -24 -210 -90 -265 -150 -55 -60 -72 -106 -72 -195
0 -95 23 -157 85 -233 l55 -67 -58 0 c-71 0 -159 -25 -190 -53 -18 -17 -22
-30 -20 -62 3 -38 5 -40 43 -47 31 -5 52 -1 93 18 68 30 198 57 282 57 109 1
390 -21 475 -38 189 -36 225 -40 240 -24 27 26 -3 47 -105 73 -144 37 -141 34
-70 72 72 38 116 71 165 122 53 56 53 69 0 159 -94 154 -172 225 -365 326 -83
44 -104 50 -165 53 -40 2 -95 -3 -128 -11z m82 -109 c8 -10 23 -13 47 -9 22 4
49 -1 74 -12 21 -10 48 -15 60 -12 27 7 127 -60 205 -138 42 -42 68 -80 87
-124 l28 -64 -38 -37 c-20 -20 -77 -60 -126 -90 l-89 -53 -65 13 c-37 7 -128
12 -213 12 -118 -1 -149 2 -149 12 0 8 -16 26 -36 41 -21 16 -47 51 -63 84
-22 47 -26 70 -26 141 1 98 15 134 70 176 78 59 207 92 234 60z"/>
<path d="M14889 16564 c-16 -19 -18 -53 -22 -432 -4 -288 -3 -303 15 -313 10
-6 27 -7 37 -4 41 13 51 72 61 385 5 151 12 289 16 307 5 24 1 36 -15 52 -25
25 -73 28 -92 5z"/>
<path d="M9343 16500 c-54 -32 -173 -235 -204 -345 -7 -27 -14 -88 -14 -135 0
-72 4 -93 26 -137 l26 -53 -22 0 c-12 0 -60 10 -106 21 -46 12 -115 22 -152
23 -62 1 -71 -2 -88 -23 -13 -15 -19 -36 -17 -55 5 -50 43 -64 188 -71 228
-11 398 -31 570 -65 58 -12 130 -26 161 -32 67 -13 92 -7 87 24 -3 23 -6 25
-118 48 -75 15 -130 32 -160 48 -23 12 -20 13 34 9 57 -4 62 -2 133 46 150
100 235 254 219 394 -9 73 -27 113 -75 166 -70 76 -226 136 -353 137 -26 0
-50 5 -53 10 -10 16 -47 12 -82 -10z m245 -115 c78 -19 154 -56 180 -90 99
-125 13 -318 -198 -446 -48 -29 -74 -52 -74 -63 2 -20 8 -20 -78 4 -40 11
-102 21 -138 21 -36 1 -58 3 -48 6 24 6 30 31 13 63 -24 46 -28 127 -11 214
25 128 116 289 169 299 48 9 125 6 185 -8z"/>
<path d="M16230 16460 c-230 -50 -412 -165 -483 -306 -35 -70 -41 -118 -23
-202 42 -203 218 -365 466 -428 61 -15 109 -19 250 -18 194 0 269 14 415 75
189 78 254 166 255 342 0 145 -158 334 -343 409 -40 16 -83 40 -97 53 -34 33
-103 62 -189 80 -92 19 -145 18 -251 -5z m241 -67 c30 -6 25 -8 -46 -20 -123
-21 -252 -95 -243 -141 5 -27 49 -26 88 2 85 61 216 89 318 68 101 -21 156
-40 205 -73 200 -132 277 -368 160 -485 -44 -44 -155 -96 -261 -124 -314 -80
-620 -22 -755 143 -121 148 -141 314 -51 427 105 132 410 238 585 203z"/>
<path d="M18004 16412 c-214 -64 -369 -216 -382 -377 -13 -157 135 -356 340
-458 143 -71 229 -92 373 -91 304 1 502 138 561 390 19 81 14 226 -9 271 -19
35 -73 86 -113 107 -52 26 -175 56 -229 56 -37 0 -60 7 -87 25 -21 14 -73 40
-115 57 -100 40 -242 48 -339 20z m275 -98 c30 -6 44 -24 18 -24 -20 0 -151
-65 -165 -83 -8 -9 -12 -26 -10 -39 5 -34 42 -35 105 -2 120 60 452 37 547
-39 26 -21 30 -32 34 -86 9 -121 -37 -256 -114 -335 -57 -58 -224 -106 -371
-106 -257 0 -535 164 -584 343 -25 95 10 205 84 258 125 91 200 118 328 119
53 0 111 -3 128 -6z"/>
<path d="M13128 16353 c-23 -27 -26 -54 -39 -363 -7 -193 -8 -299 -1 -328 7
-32 7 -44 -1 -47 -10 -3 -270 -26 -447 -40 -30 -2 -83 -6 -117 -9 -90 -7 -107
-19 -100 -67 6 -44 41 -99 64 -99 8 0 36 11 62 24 27 15 72 27 111 31 100 9
208 23 285 35 39 6 237 16 440 21 204 5 433 13 510 19 182 13 231 13 282 5 61
-11 86 9 103 79 20 85 13 89 -142 87 -68 -1 -166 -7 -218 -12 -52 -5 -108 -9
-125 -9 -16 0 -73 -5 -125 -11 -52 -5 -116 -12 -142 -13 -171 -13 -221 -19
-286 -33 -40 -9 -74 -14 -76 -12 -8 10 31 547 46 641 15 84 3 118 -40 118 -16
0 -36 -8 -44 -17z"/>
<path d="M7426 15919 c-38 -30 -34 -86 9 -110 39 -22 309 -43 472 -37 77 3
130 1 153 -7 19 -7 58 -13 85 -13 28 -1 84 -6 125 -12 146 -18 228 -16 237 5
8 22 5 23 -73 44 -97 26 -128 31 -244 36 -56 3 -109 9 -119 14 -9 5 -54 12
-101 16 -47 4 -113 13 -148 21 -35 8 -76 14 -92 14 -29 0 -67 8 -181 36 -74
19 -92 18 -123 -7z"/>
<path d="M4585 15837 c-16 -13 -18 -25 -12 -133 5 -113 30 -256 61 -354 8 -25
22 -81 31 -125 9 -44 20 -90 25 -102 21 -51 70 -7 69 62 0 22 -6 72 -14 110
-45 232 -64 359 -65 426 0 62 -4 81 -21 103 -23 29 -46 33 -74 13z"/>
<path d="M1780 15773 c-119 -20 -247 -72 -289 -117 -22 -24 -23 -29 -13 -64
15 -48 49 -99 84 -125 60 -44 369 -19 587 49 62 19 120 33 128 30 10 -4 12
-15 8 -39 -5 -25 -2 -38 10 -50 39 -39 70 -8 62 62 -6 46 4 71 26 71 11 0 5
-64 -18 -175 -21 -104 -33 -462 -16 -493 14 -26 53 -29 71 -7 7 8 14 48 16 87
1 40 6 138 9 218 4 80 16 195 27 255 28 155 31 190 19 214 -16 29 -59 27 -121
-4 -67 -34 -90 -32 -166 16 -96 61 -165 79 -292 78 -59 -1 -118 -4 -132 -6z
m348 -118 c52 -16 64 -28 38 -38 -55 -21 -449 -70 -495 -61 -69 13 -73 15 -61
29 16 19 110 54 190 70 94 18 265 18 328 0z"/>
<path d="M7979 15679 c-77 -18 -140 -75 -126 -113 4 -9 16 -16 29 -16 22 0 21
0 -4 -27 -47 -50 -79 -128 -85 -207 -5 -69 -4 -77 28 -136 38 -71 92 -118 177
-152 48 -19 76 -22 172 -22 106 0 122 3 195 32 165 65 225 122 225 213 0 82
-41 159 -136 255 -143 145 -321 210 -475 173z m236 -93 c80 -42 208 -164 240
-230 54 -111 41 -143 -78 -200 -101 -49 -228 -73 -304 -57 -75 15 -125 49
-152 103 -48 100 -1 250 87 279 45 14 82 46 82 71 0 27 -44 51 -85 46 -48 -6
-29 10 26 21 63 13 115 4 184 -33z"/>
<path d="M6383 15666 c-180 -57 -345 -241 -383 -430 -38 -187 79 -361 272
-406 113 -26 223 -7 359 60 195 96 289 186 289 278 0 56 -31 133 -70 176 -78
85 -189 123 -305 104 -69 -11 -105 -30 -105 -58 0 -29 28 -38 90 -30 168 24
295 -72 273 -208 -9 -52 -67 -102 -196 -167 -143 -72 -214 -86 -312 -62 -38
10 -79 24 -91 32 -69 45 -113 166 -96 264 21 118 101 242 196 305 67 44 110
53 172 36 41 -12 48 -11 72 7 18 14 27 29 27 49 0 55 -96 80 -192 50z"/>
<path d="M9265 15597 c-57 -57 -67 -153 -40 -407 20 -187 43 -329 58 -359 19
-39 45 -50 64 -26 16 22 15 73 -8 300 -19 185 -16 298 9 372 28 79 28 104 -1
131 -31 29 -43 28 -82 -11z"/>
<path d="M14706 15504 c-19 -19 -20 -109 -6 -374 7 -120 6 -228 -1 -343 -12
-178 -9 -197 33 -197 30 0 46 55 64 217 14 127 15 169 4 298 -7 82 -11 197
-10 255 3 138 4 135 -25 148 -34 16 -40 15 -59 -4z"/>
<path d="M13109 15441 c-22 -17 -23 -25 -21 -132 1 -103 3 -116 22 -131 12
-10 19 -21 17 -26 -12 -18 -28 -183 -28 -281 0 -126 42 -409 62 -422 23 -15
38 -10 55 16 16 24 15 36 -5 188 -26 185 -23 266 15 415 27 107 22 137 -26
155 -29 11 -30 13 -24 59 4 26 3 72 -1 103 -8 67 -30 85 -66 56z"/>
<path d="M18314 15210 c-12 -5 -25 -21 -29 -37 -3 -15 -6 -194 -6 -398 0 -339
7 -469 27 -519 6 -17 3 -18 -47 -12 -30 4 -76 11 -104 16 -178 32 -602 43
-670 18 -22 -9 -65 -19 -95 -23 -30 -4 -73 -16 -95 -28 -39 -20 -40 -20 -15
-29 17 -7 43 -5 80 4 38 9 128 13 295 12 235 0 374 -11 770 -60 185 -23 393
-28 550 -15 152 14 175 23 175 71 0 50 -20 55 -118 34 -74 -16 -127 -19 -352
-18 -287 0 -327 4 -314 32 5 9 11 163 15 342 3 179 12 367 18 419 14 106 9
153 -20 182 -21 21 -33 22 -65 9z"/>
<path d="M16531 15180 c-384 -77 -669 -288 -743 -548 -48 -169 44 -379 206
-471 163 -91 425 -112 626 -49 298 92 430 224 430 426 -1 296 -209 476 -550
476 -146 0 -232 -23 -302 -82 -13 -11 -15 -19 -7 -33 13 -25 30 -24 88 6 72
36 165 48 264 35 198 -27 324 -111 378 -249 32 -79 33 -219 2 -276 -48 -92
-194 -183 -363 -226 -113 -30 -297 -32 -385 -5 -129 39 -205 99 -251 199 -25
54 -29 73 -29 157 0 91 2 100 38 172 79 162 278 303 512 364 139 37 303 40
356 7 45 -28 100 -30 123 -4 40 44 -16 89 -135 110 -88 15 -146 13 -258 -9z"/>
<path d="M977 14902 c-23 -25 -96 -418 -106 -570 -11 -168 8 -352 44 -422 19
-36 52 -48 73 -26 14 14 14 21 -2 72 -23 73 -32 279 -17 412 14 127 34 227 72
360 31 110 36 161 17 180 -18 18 -63 15 -81 -6z"/>
<path d="M1970 14854 c-79 -14 -152 -39 -175 -60 -29 -27 -31 -37 -9 -55 13
-10 31 -9 107 9 223 54 413 7 619 -151 52 -40 102 -120 94 -151 -7 -30 -94
-86 -186 -120 -208 -79 -366 -84 -425 -14 -21 24 -25 40 -25 89 0 69 16 114
55 149 39 36 49 67 30 96 -37 57 -135 -1 -164 -95 -98 -329 157 -483 544 -327
249 100 306 169 249 295 -75 168 -358 328 -594 336 -52 2 -106 2 -120 -1z"/>
<path d="M9080 14763 c-122 -9 -289 -36 -319 -51 -54 -27 -61 -47 -28 -79 l27
-28 293 -1 c175 0 328 -5 382 -13 50 -7 122 -16 160 -21 39 -5 97 -13 130 -19
33 -5 106 -13 161 -17 95 -6 103 -5 123 15 32 32 29 93 -6 121 -25 20 -35 21
-93 15 -83 -9 -68 -10 -190 15 -58 12 -127 26 -155 31 -27 6 -120 14 -206 18
-86 5 -173 11 -195 13 -21 3 -59 3 -84 1z"/>
<path d="M4730 14630 c-23 -23 -24 -40 -10 -90 6 -19 17 -93 25 -165 8 -71 25
-177 36 -235 12 -58 24 -168 28 -245 l6 -140 27 -3 c37 -4 54 32 62 133 7 83
1 144 -34 375 -11 74 -23 184 -27 244 -5 87 -10 113 -25 128 -24 24 -63 23
-88 -2z"/>
<path d="M6494 14355 c-167 -95 -247 -242 -246 -455 0 -82 4 -106 31 -175 42
-109 91 -177 162 -224 74 -50 125 -58 209 -37 144 37 283 142 335 253 70 146
37 372 -63 438 -107 70 -323 50 -419 -39 -36 -33 -40 -47 -19 -65 12 -10 30
-6 88 21 65 29 83 33 165 33 77 0 96 -3 120 -21 40 -30 56 -68 61 -150 6 -100
-4 -154 -38 -207 -52 -77 -218 -176 -298 -177 -75 0 -156 70 -192 167 -48 128
-47 250 2 379 30 80 115 168 178 184 55 14 80 35 80 66 0 53 -71 57 -156 9z"/>
<path d="M13166 14204 c-11 -10 -16 -33 -16 -67 0 -84 30 -382 52 -522 11 -71
24 -173 27 -225 6 -94 6 -95 33 -98 57 -7 64 63 33 318 -13 111 -28 288 -31
392 -8 202 -12 218 -59 218 -13 0 -31 -7 -39 -16z"/>
<path d="M14856 14081 c-25 -27 -32 -209 -17 -426 7 -93 16 -243 21 -333 5
-101 13 -168 20 -177 18 -22 47 -18 64 7 20 28 21 172 5 456 -9 154 -9 213 2
286 19 134 17 155 -15 183 -33 28 -57 29 -80 4z"/>
<path d="M7885 14030 c-17 -19 -17 -22 3 -85 23 -69 34 -134 83 -475 42 -300
56 -350 98 -350 45 0 47 16 20 255 -33 303 -70 545 -91 601 -25 70 -76 94
-113 54z"/>
<path d="M9181 14019 c-53 -10 -88 -40 -100 -86 -5 -18 -30 -69 -55 -112 -71
-124 -91 -195 -91 -331 0 -105 3 -122 29 -188 36 -89 86 -148 157 -187 44 -23
69 -30 135 -33 105 -6 163 13 254 82 215 163 308 421 231 641 -36 102 -133
177 -273 210 -68 16 -216 18 -287 4z m267 -115 c79 -18 132 -44 176 -90 47
-49 60 -91 53 -183 -11 -165 -127 -338 -282 -419 -66 -35 -169 -37 -232 -4
-82 43 -133 144 -133 265 1 92 13 145 55 232 57 116 94 165 153 195 57 30 89
31 210 4z"/>
<path d="M18435 13975 c-20 -19 -25 -34 -25 -75 0 -97 -31 -446 -51 -575 -12
-71 -26 -162 -32 -201 -13 -85 -2 -137 29 -142 29 -4 47 21 55 76 3 26 22 126
42 222 19 96 43 245 52 330 9 85 21 173 26 195 24 109 -3 195 -62 195 -6 0
-21 -11 -34 -25z"/>
<path d="M16567 13835 c-20 -20 -54 -123 -78 -237 -20 -97 -54 -555 -44 -596
l6 -23 -93 8 c-51 4 -192 8 -313 7 -184 0 -226 -3 -257 -17 -38 -17 -49 -40
-25 -50 7 -3 71 -5 143 -6 137 -1 456 -24 589 -41 44 -6 132 -17 195 -25 63
-8 165 -21 225 -29 187 -25 301 -30 335 -16 54 23 50 102 -6 113 -15 3 -71 3
-123 0 -53 -3 -139 0 -191 6 -52 7 -156 16 -230 21 -177 13 -204 18 -192 33
21 25 44 158 57 332 15 185 43 328 84 421 26 58 27 90 2 104 -28 14 -67 12
-84 -5z"/>
<path d="M1162 13573 c-27 -11 -52 -82 -61 -180 -10 -107 -5 -173 29 -368 12
-66 27 -169 35 -230 40 -305 54 -355 100 -355 42 0 47 21 26 101 -11 41 -25
117 -31 169 -6 52 -25 189 -41 304 -16 115 -29 232 -29 260 0 72 18 163 41
208 24 47 24 53 -1 78 -19 19 -42 24 -68 13z"/>
<path d="M21195 13500 c-4 -7 -10 -41 -13 -76 -4 -54 -2 -65 12 -70 29 -11 44
17 48 86 3 60 1 65 -19 68 -11 2 -24 -2 -28 -8z"/>
<path d="M2245 13480 c-17 -19 -17 -29 -6 -153 7 -72 24 -206 37 -297 16 -102
27 -234 31 -345 5 -183 14 -225 48 -225 27 0 36 40 42 178 4 110 1 170 -17
302 -35 254 -39 297 -39 417 -1 87 -4 115 -17 127 -21 22 -57 20 -79 -4z"/>
<path d="M21957 13434 c-3 -3 -3 -12 -1 -19 3 -7 -2 -28 -11 -45 -10 -19 -14
-42 -11 -56 4 -14 0 -34 -9 -48 -12 -18 -15 -45 -13 -107 3 -71 6 -84 21 -87
24 -5 48 54 59 148 5 41 11 96 14 121 8 57 -24 118 -49 93z"/>
<path d="M4862 13413 c-30 -12 -31 -50 -6 -120 17 -46 37 -150 61 -323 30
-211 37 -285 37 -430 1 -96 5 -181 9 -187 5 -7 15 -13 23 -13 57 0 83 137 66
352 -27 336 -51 530 -79 631 -21 77 -62 110 -111 90z"/>
<path d="M21177 13324 c-4 -4 -7 -27 -7 -51 0 -48 25 -62 36 -19 11 46 -7 91
-29 70z"/>
<path d="M7653 13081 c-54 -34 -67 -80 -37 -126 20 -31 54 -32 80 -4 21 23 22
23 194 -6 78 -13 113 -13 195 -4 55 6 199 9 321 7 228 -3 254 1 254 38 0 52
-153 76 -515 79 -166 2 -300 7 -330 14 -99 23 -128 23 -162 2z"/>
<path d="M9745 13034 c-249 -36 -469 -50 -540 -35 -188 39 -193 39 -215 24
-27 -19 -26 -64 3 -91 37 -35 143 -46 376 -38 196 7 395 31 436 53 11 6 41 14
68 18 72 11 125 62 81 79 -24 9 -98 5 -209 -10z"/>
<path d="M6667 13026 c-128 -47 -228 -178 -263 -346 -23 -110 -20 -316 5 -413
39 -148 111 -250 216 -305 71 -36 187 -42 269 -13 123 44 229 138 263 234 27
77 24 274 -5 382 -32 113 -80 203 -130 242 -92 70 -286 71 -382 2 -77 -56 -34
-87 68 -49 117 44 232 21 291 -60 36 -50 70 -185 78 -311 8 -126 -18 -209 -87
-273 -105 -99 -226 -123 -331 -68 -68 36 -112 93 -141 185 -20 62 -23 93 -23
227 1 172 14 239 68 343 57 109 154 167 224 133 45 -22 79 -20 104 5 26 26 22
46 -14 73 -36 26 -153 33 -210 12z"/>
<path d="M13292 12917 c-37 -39 -47 -115 -46 -352 0 -121 5 -294 10 -385 l9
-165 26 -3 c44 -5 49 30 49 345 0 295 9 395 41 470 21 50 17 88 -11 103 -30
16 -55 12 -78 -13z"/>
<path d="M9286 12858 c-52 -79 -61 -118 -61 -263 0 -314 56 -985 85 -1019 20
-25 49 -20 56 11 4 15 -1 157 -10 317 -9 160 -21 374 -27 475 -12 210 -7 276
27 343 13 26 24 63 24 83 0 64 -64 99 -94 53z"/>
<path d="M14925 12810 c-21 -24 -18 -99 15 -330 44 -310 50 -358 49 -440 0
-47 -4 -123 -8 -170 -11 -113 9 -150 54 -100 45 50 59 311 29 550 -25 211 -33
302 -34 385 0 94 -15 125 -59 125 -15 0 -36 -9 -46 -20z"/>
<path d="M7947 12685 c-33 -33 -40 -83 -34 -269 4 -118 13 -221 26 -295 12
-62 21 -126 21 -142 0 -35 18 -76 37 -83 8 -3 24 -1 35 5 20 11 21 17 15 128
-3 64 -11 159 -18 211 -11 92 -8 155 18 386 4 35 1 44 -18 58 -29 20 -63 21
-82 1z"/>
<path d="M21867 12634 c-14 -14 -7 -65 9 -71 20 -8 35 14 32 47 -3 24 -27 38
-41 24z"/>
<path d="M16494 12556 c-16 -12 -20 -29 -22 -110 -4 -105 9 -292 33 -481 25
-192 27 -200 52 -203 50 -7 54 32 39 518 -6 241 -8 256 -28 273 -25 21 -48 22
-74 3z"/>
<path d="M18400 12490 c-111 -19 -221 -81 -304 -171 -86 -92 -135 -214 -151
-372 -24 -229 143 -446 436 -564 103 -42 192 -56 309 -49 283 15 423 117 496
362 24 79 24 237 -1 319 -42 144 -128 258 -257 341 -76 50 -159 82 -309 118
-110 27 -142 29 -219 16z m300 -145 c25 -7 63 -21 85 -30 63 -27 201 -123 230
-161 95 -124 119 -317 62 -484 -29 -82 -62 -129 -120 -171 -138 -100 -421 -98
-623 4 -261 132 -349 320 -264 562 63 177 135 240 334 291 61 15 228 9 296
-11z"/>
<path d="M21120 12485 c-17 -21 2 -65 28 -65 29 0 59 37 46 58 -15 23 -58 27
-74 7z"/>
<path d="M21090 11975 c-19 -23 -8 -50 20 -50 16 0 26 6 28 18 4 18 -14 47
-28 47 -4 0 -13 -7 -20 -15z"/>
<path d="M21376 11805 c-9 -9 -16 -32 -16 -51 0 -20 -10 -57 -21 -84 -22 -52
-20 -76 7 -87 30 -11 54 32 54 97 0 32 5 71 10 86 8 21 8 31 -3 41 -12 12 -16
12 -31 -2z"/>
<path d="M8752 11658 c-15 -15 -15 -58 1 -79 13 -17 182 -129 307 -202 155
-91 352 -135 384 -85 16 26 0 36 -85 58 -102 25 -237 95 -371 192 -170 123
-179 128 -202 128 -12 0 -27 -5 -34 -12z"/>
<path d="M1287 11338 c-44 -34 -80 -200 -98 -448 -13 -186 -5 -670 12 -701 13
-25 45 -24 59 0 6 12 10 133 10 323 0 398 18 564 75 693 30 66 32 106 7 128
-22 20 -42 21 -65 5z"/>
<path d="M17861 11314 c-35 -29 -42 -73 -15 -95 9 -7 42 -14 73 -16 31 -1 121
-6 201 -12 79 -5 148 -7 152 -5 13 8 247 -23 518 -67 75 -13 309 -70 360 -89
233 -85 280 -96 280 -67 0 22 -78 67 -116 67 -19 0 -47 9 -62 20 -15 10 -49
24 -77 31 -27 6 -72 22 -100 34 -27 13 -68 27 -90 31 -22 3 -49 11 -60 17 -11
6 -40 14 -65 18 -142 23 -233 41 -299 58 -40 12 -177 34 -305 51 -127 16 -256
34 -287 40 -74 14 -73 14 -108 -16z"/>
<path d="M12788 11129 c-24 -26 -23 -29 12 -29 18 0 33 7 39 19 19 35 -22 43
-51 10z"/>
<path d="M13670 11122 c0 -4 5 -13 12 -20 9 -9 9 -12 -2 -12 -22 -1 19 -30 42
-30 19 0 46 45 34 57 -4 4 -16 2 -26 -5 -25 -16 -30 -15 -30 3 0 8 -7 15 -15
15 -8 0 -15 -4 -15 -8z"/>
<path d="M13924 11109 c-3 -6 -2 -15 4 -21 13 -13 32 -2 32 18 0 16 -26 19
-36 3z"/>
<path d="M13280 11100 c0 -5 9 -10 20 -10 11 0 20 5 20 10 0 6 -9 10 -20 10
-11 0 -20 -4 -20 -10z"/>
<path d="M14174 11096 c-15 -38 43 -60 82 -32 24 19 12 32 -38 41 -30 6 -39 4
-44 -9z"/>
<path d="M2408 11084 c-185 -33 -469 -148 -517 -210 -28 -35 -26 -50 5 -71 26
-16 28 -16 68 7 123 70 173 93 271 125 190 63 375 94 375 65 0 -23 -36 -80
-125 -195 -124 -162 -160 -219 -180 -292 -16 -59 -16 -63 1 -93 24 -41 93 -76
192 -97 60 -13 133 -17 328 -17 278 -1 308 4 302 53 -3 22 -9 27 -48 33 -25 3
-115 7 -200 7 -265 2 -470 33 -486 75 -8 21 38 106 113 203 138 180 163 217
189 269 30 61 27 92 -11 130 -22 22 -32 24 -112 23 -48 0 -122 -7 -165 -15z"/>
<path d="M13370 11090 c0 -5 5 -10 10 -10 6 0 10 5 10 10 0 6 -4 10 -10 10 -5
0 -10 -4 -10 -10z"/>
<path d="M13827 11094 c-13 -13 -7 -24 14 -24 11 0 19 5 17 12 -5 14 -22 21
-31 12z"/>
<path d="M14330 11076 c0 -8 9 -18 20 -21 11 -3 20 -10 20 -15 0 -16 31 -19
64 -5 20 8 51 15 71 15 19 0 35 4 35 9 0 16 -61 29 -137 30 -57 1 -73 -2 -73
-13z"/>
<path d="M14573 11069 c-23 -23 5 -39 68 -39 55 0 81 12 63 30 -17 16 -118 22
-131 9z"/>
<path d="M14766 11044 c-36 -35 -7 -64 33 -33 13 11 35 19 50 19 25 1 25 1 7
15 -26 20 -71 19 -90 -1z"/>
<path d="M14993 11034 c-9 -25 7 -32 107 -43 52 -5 176 -19 275 -30 99 -12
222 -23 273 -26 52 -3 97 -7 101 -10 4 -2 59 -9 122 -15 63 -6 150 -15 194
-20 44 -5 154 -16 245 -24 91 -9 190 -18 220 -20 61 -6 196 -27 335 -51 50 -8
162 -24 250 -35 88 -10 192 -24 230 -30 39 -7 84 -13 100 -16 17 -2 82 -10
145 -19 63 -8 156 -20 205 -25 50 -5 110 -14 135 -19 25 -6 79 -12 120 -16 41
-3 111 -12 155 -20 44 -8 125 -19 180 -25 192 -20 523 -69 759 -114 44 -8 116
-18 160 -21 45 -4 110 -15 146 -25 169 -50 278 -59 348 -29 31 14 43 24 40 36
-3 16 -19 19 -118 24 -63 3 -151 13 -195 22 -78 16 -160 27 -515 67 -97 11
-212 26 -255 35 -44 8 -152 24 -240 35 -88 12 -167 23 -175 25 -8 3 -49 9 -90
15 -41 5 -102 14 -135 20 -146 24 -255 39 -320 45 -38 3 -109 13 -157 21 -100
17 -201 31 -308 44 -41 5 -145 18 -230 29 -85 11 -193 23 -240 26 -47 4 -96
11 -110 16 -14 5 -68 11 -120 13 -52 3 -108 9 -125 15 -16 5 -93 17 -170 26
-166 19 -374 43 -430 50 -22 2 -78 7 -125 10 -47 3 -112 10 -145 15 -33 5
-134 14 -225 20 -91 6 -199 15 -240 20 -168 21 -170 21 -177 4z"/>
<path d="M14900 11030 c0 -5 11 -10 25 -10 14 0 25 5 25 10 0 6 -11 10 -25 10
-14 0 -25 -4 -25 -10z"/>
<path d="M6595 10970 c-16 -18 -17 -27 -7 -88 7 -38 16 -221 22 -408 13 -439
18 -504 37 -511 50 -19 62 86 63 548 0 331 -8 428 -37 462 -21 23 -56 22 -78
-3z"/>
<path d="M4845 10873 c-18 -18 -18 -14 4 -218 15 -144 31 -413 31 -538 0 -60
5 -117 10 -128 15 -27 47 -24 67 8 16 24 18 51 17 218 -3 306 -14 603 -24 630
-17 44 -74 59 -105 28z"/>
<path d="M13159 10798 c-16 -30 -6 -218 20 -368 32 -180 32 -184 42 -211 6
-14 16 -64 22 -110 l12 -84 30 0 c29 0 30 1 33 56 2 32 -9 126 -23 210 -17
102 -28 212 -32 324 -3 94 -10 178 -15 188 -13 26 -74 23 -89 -5z"/>
<path d="M7905 10740 c-28 -14 -59 -20 -111 -20 -125 0 -220 -63 -283 -188
-58 -115 -65 -254 -17 -329 13 -21 38 -51 55 -68 l32 -29 -33 -16 c-41 -19
-51 -67 -20 -98 17 -17 43 -19 305 -26 158 -4 292 -4 298 -1 5 4 14 17 19 29
5 15 23 26 60 35 76 19 199 84 255 133 52 46 84 105 85 154 0 84 -111 226
-247 317 -177 116 -310 152 -398 107z m150 -68 c71 -25 209 -109 271 -165 65
-59 114 -141 114 -190 0 -91 -132 -169 -380 -228 -76 -18 -95 -19 -205 -8
-139 13 -182 31 -231 101 -47 67 -57 101 -52 173 10 113 85 238 165 271 51 22
102 16 163 -16 59 -32 89 -37 108 -18 19 19 14 45 -13 66 -46 37 -22 42 60 14z"/>
<path d="M15015 10678 c-16 -6 -35 -15 -42 -20 -7 -5 -41 -16 -78 -23 -80 -17
-172 -65 -226 -117 -55 -54 -115 -179 -123 -260 -13 -130 40 -282 134 -378
103 -106 300 -169 485 -155 180 13 327 53 399 109 17 13 45 48 61 77 26 48 30
63 30 139 -1 205 -133 454 -299 562 -105 68 -254 97 -341 66z m176 -88 c125
-38 213 -114 278 -239 58 -113 85 -211 85 -306 -1 -95 -17 -134 -72 -170 -90
-59 -381 -94 -512 -61 -142 36 -231 102 -281 209 -113 245 16 507 250 509 36
1 80 -2 96 -6 24 -6 34 -3 50 14 16 17 17 24 7 40 -7 11 -12 22 -12 25 0 11
51 4 111 -15z"/>
<path d="M9520 10511 c-25 -17 -55 -31 -66 -31 -46 0 -213 -50 -297 -89 -172
-80 -307 -184 -351 -273 -20 -40 -26 -67 -26 -117 1 -138 69 -208 240 -245
101 -22 400 -18 427 6 10 9 58 32 106 51 195 79 362 211 427 337 21 40 16 129
-10 180 -53 106 -207 198 -345 207 -54 4 -65 1 -105 -26z m208 -168 c49 -40
74 -41 101 -7 l20 26 21 -34 c45 -74 36 -126 -37 -215 -68 -83 -290 -212 -401
-233 -29 -5 -63 -15 -75 -22 -33 -17 -182 -27 -265 -17 -100 12 -149 28 -183
60 -25 23 -29 34 -29 81 0 74 31 131 106 191 80 65 238 141 354 171 131 34
132 34 247 33 98 -2 102 -3 141 -34z"/>
<path d="M16542 10412 c-18 -18 -20 -40 -24 -323 -3 -167 -1 -314 3 -326 13
-36 47 -29 65 13 25 60 34 131 49 369 13 218 13 231 -4 255 -23 32 -64 37 -89
12z"/>
<path d="M18295 10284 c-11 -3 -54 -16 -95 -31 -137 -47 -233 -128 -289 -245
-39 -84 -44 -184 -10 -250 90 -177 422 -302 759 -285 293 14 445 109 496 309
32 123 -2 271 -80 351 -43 45 -127 92 -193 108 -102 26 -528 56 -588 43z
m-108 -147 c-39 -34 -48 -64 -21 -74 9 -3 43 8 78 25 98 50 183 73 281 79 74
4 96 1 125 -14 30 -16 36 -24 42 -66 8 -55 22 -77 51 -77 52 0 74 69 41 132
l-16 31 48 -8 c48 -7 125 -40 177 -77 50 -35 71 -92 71 -188 0 -201 -75 -284
-299 -326 -204 -38 -527 18 -669 115 -54 37 -104 94 -112 127 -17 69 34 209
99 272 29 27 121 83 136 82 3 -1 -11 -15 -32 -33z"/>
<path d="M1329 9996 c-44 -22 -47 -57 -10 -149 131 -334 145 -396 146 -667 1
-196 3 -215 19 -218 65 -13 93 165 66 413 -12 107 -20 143 -72 300 -22 66 -48
158 -60 205 -29 123 -42 140 -89 116z"/>
<path d="M2501 9880 c-55 -12 -81 -35 -81 -71 0 -48 28 -54 128 -29 71 18 102
21 172 16 92 -7 171 -28 191 -52 28 -34 -24 -81 -186 -169 -114 -63 -142 -107
-90 -141 14 -9 98 -35 188 -58 166 -43 233 -69 250 -97 16 -26 -21 -87 -82
-135 -31 -24 -118 -76 -193 -115 -143 -73 -173 -99 -145 -127 14 -13 24 -12
94 13 159 56 325 158 376 232 24 33 30 55 34 110 4 63 3 70 -23 97 -40 42
-118 74 -251 102 -64 14 -119 27 -121 29 -2 2 19 16 48 32 155 84 195 126 195
205 0 45 -4 53 -41 88 -61 56 -122 73 -284 76 -74 1 -155 -1 -179 -6z"/>
<path d="M4913 9800 c-12 -5 -25 -19 -27 -32 -10 -48 -16 -236 -18 -600 -3
-349 -1 -379 15 -395 26 -26 49 -6 64 53 7 28 17 182 23 354 10 278 22 466 36
545 10 52 -43 95 -93 75z"/>
<path d="M8707 9742 c-24 -27 -21 -55 11 -84 45 -41 109 -53 287 -52 l160 1
99 39 c54 21 97 44 95 49 -5 13 -85 11 -171 -3 -106 -18 -298 5 -395 48 -56
25 -66 25 -86 2z"/>
<path d="M14221 9684 c-26 -33 -26 -62 -1 -94 l19 -25 228 -1 c125 -1 324 -5
440 -9 196 -6 213 -5 220 10 4 12 -1 21 -13 29 -22 13 -157 42 -259 56 -38 6
-110 17 -160 26 -77 13 -319 33 -422 34 -22 0 -37 -8 -52 -26z"/>
<path d="M9392 9684 c-28 -19 -28 -39 3 -164 45 -190 54 -435 29 -791 -7 -91
-1 -106 35 -94 27 8 39 45 56 174 23 177 28 343 16 491 -12 133 -51 343 -71
381 -13 23 -38 24 -68 3z"/>
<path d="M13251 9664 c-15 -19 -21 -42 -22 -78 -9 -504 -16 -664 -34 -719 -14
-43 -16 -63 -8 -75 25 -41 70 -14 92 56 15 50 29 195 41 447 5 116 15 240 21
277 10 59 10 70 -5 93 -22 33 -58 33 -85 -1z"/>
<path d="M7838 9625 c-173 -44 -304 -174 -339 -337 -7 -30 -9 -95 -6 -153 4
-88 9 -111 39 -176 40 -87 91 -137 181 -180 97 -45 193 -63 316 -56 171 8 312
70 440 191 92 88 106 120 106 236 0 85 -3 102 -27 148 -61 118 -155 196 -282
233 -39 12 -83 33 -97 46 -55 51 -224 75 -331 48z m144 -80 c-39 -17 -50 -41
-29 -63 15 -14 25 -14 94 -3 88 14 152 2 243 -44 170 -86 236 -269 145 -407
-40 -61 -167 -146 -280 -187 -130 -48 -319 -35 -432 29 -95 54 -126 124 -127
285 0 102 2 115 30 175 17 36 45 82 62 101 55 63 202 127 292 128 l35 0 -33
-14z"/>
<path d="M6578 9573 c-20 -23 -33 -264 -32 -550 1 -210 6 -233 44 -233 10 0
23 6 29 13 6 8 15 95 21 208 11 213 26 382 41 472 8 49 7 63 -6 83 -19 29 -74
33 -97 7z"/>
<path d="M15203 9526 c5 -14 -2 -16 -54 -16 -47 0 -74 -7 -122 -31 -34 -16
-66 -34 -72 -39 -6 -5 -49 -23 -97 -40 -121 -44 -202 -104 -311 -233 -59 -70
-123 -192 -153 -292 -11 -37 -18 -94 -18 -150 -1 -79 2 -97 27 -147 105 -214
323 -287 648 -218 217 46 358 147 430 309 51 114 63 193 64 411 0 217 -6 259
-48 321 -12 19 -41 43 -65 53 -23 11 -42 25 -42 33 0 8 -12 13 -30 13 -16 0
-30 -4 -30 -10 0 -5 7 -10 16 -10 11 0 13 -6 9 -19 -4 -14 4 -31 28 -58 57
-63 70 -99 75 -200 9 -183 -33 -416 -95 -536 -48 -91 -111 -146 -220 -192 -97
-41 -241 -75 -318 -75 -73 0 -163 26 -217 63 -85 57 -149 168 -148 256 2 141
114 359 246 480 49 45 62 52 87 47 25 -5 38 2 89 44 67 56 84 59 168 30 91
-32 150 -24 150 21 0 25 -24 40 -93 59 -60 17 -61 18 -35 29 15 5 51 13 79 17
31 4 60 15 71 26 12 12 28 18 40 15 26 -7 48 2 48 18 0 19 -7 22 -64 30 -43 7
-48 6 -43 -9z"/>
<path d="M15574 9438 c-8 -13 -7 -13 53 -37 69 -27 105 -15 67 23 -18 18 -16
18 -71 21 -24 2 -46 -1 -49 -7z"/>
<path d="M15924 9356 c-10 -26 9 -38 64 -44 37 -3 50 -1 55 10 10 26 -10 41
-62 46 -41 4 -52 1 -57 -12z"/>
<path d="M16526 9348 c-34 -56 -41 -153 -41 -608 0 -417 1 -445 18 -448 12 -3
22 8 34 35 23 55 53 317 53 469 0 169 16 369 35 431 29 96 12 143 -53 143 -22
0 -36 -7 -46 -22z"/>
<path d="M18543 9249 c-16 -6 -22 -19 -27 -66 -18 -164 -18 -214 3 -393 12
-102 23 -264 25 -360 4 -180 7 -205 32 -214 24 -9 43 4 54 39 18 55 16 381 -4
568 -10 93 -16 192 -13 220 4 29 9 76 13 104 10 78 -27 123 -83 102z"/>
<path d="M2960 8624 c-60 -51 -105 -169 -123 -325 l-12 -104 -36 -3 c-31 -3
-45 4 -97 49 -74 63 -107 108 -128 179 -18 63 -30 80 -53 80 -26 0 -61 -38
-61 -65 0 -14 12 -54 27 -90 37 -90 140 -190 236 -228 37 -15 74 -27 83 -27
13 0 15 -8 11 -42 -25 -194 -30 -277 -18 -292 32 -39 64 -5 80 84 6 36 16 105
21 153 8 77 13 93 40 123 37 42 37 52 5 64 -14 5 -25 11 -25 13 0 2 9 48 21
103 24 116 43 163 93 228 40 53 44 71 20 104 -20 29 -46 28 -84 -4z"/>
<path d="M1514 8489 c-27 -29 -23 -135 12 -314 15 -77 30 -186 34 -242 4 -57
13 -109 20 -118 17 -20 57 -19 68 3 14 25 -2 225 -28 367 -17 91 -21 140 -16
200 5 64 3 85 -10 103 -19 28 -55 28 -80 1z"/>
<path d="M9595 8485 c-174 -28 -252 -49 -478 -125 -99 -33 -206 -67 -239 -76
-63 -18 -79 -34 -58 -59 27 -33 101 -20 485 84 158 43 323 73 470 87 81 7 115
24 115 59 0 62 -62 68 -295 30z"/>
<path d="M5033 8480 c-13 -5 -23 -13 -24 -17 0 -4 -1 -132 -3 -283 -1 -159 -8
-316 -16 -371 -14 -104 -10 -143 17 -153 26 -10 51 22 67 89 17 64 56 512 56
630 0 76 -4 86 -37 104 -25 13 -30 13 -60 1z"/>
<path d="M6691 8453 c-20 -18 -21 -27 -26 -428 -3 -225 -2 -423 3 -440 11 -39
45 -45 65 -13 15 25 32 273 44 658 5 186 4 207 -11 223 -22 22 -48 22 -75 0z"/>
<path d="M13183 8443 c-16 -25 -18 -69 -23 -493 -3 -256 -4 -470 -2 -477 7
-22 36 -25 53 -4 24 29 27 72 34 386 4 154 11 325 17 380 6 55 12 121 15 146
6 61 -9 89 -47 89 -21 0 -35 -8 -47 -27z"/>
<path d="M14783 8285 c-178 -41 -275 -100 -389 -233 -112 -131 -194 -336 -194
-484 0 -134 89 -257 225 -313 62 -25 85 -29 205 -32 271 -9 490 65 609 204 54
63 116 183 143 278 17 61 22 106 23 190 0 120 -14 167 -69 232 -33 40 -169
109 -231 119 -25 3 -45 12 -45 19 0 50 -111 58 -277 20z m255 -107 c96 -18
199 -73 237 -126 29 -42 30 -48 30 -145 -1 -116 -23 -202 -82 -326 -63 -132
-167 -213 -328 -256 -80 -22 -349 -32 -407 -16 -65 18 -129 70 -163 132 -27
48 -30 63 -29 134 3 194 146 439 321 549 51 31 49 31 56 6 7 -26 25 -25 100 6
132 57 160 61 265 42z"/>
<path d="M9118 8143 c-9 -10 -23 -32 -31 -49 -9 -17 -50 -65 -91 -106 -138
-139 -193 -251 -184 -380 9 -124 87 -220 227 -280 71 -31 83 -33 192 -33 l116
0 86 43 c166 82 260 211 259 353 0 55 -6 82 -27 124 -56 115 -225 241 -375
281 -40 10 -73 26 -85 40 -25 28 -66 31 -87 7z m225 -176 c212 -104 292 -242
221 -385 -70 -142 -250 -224 -423 -193 -83 15 -148 53 -191 112 -90 125 -53
248 129 426 92 91 97 94 134 90 20 -3 79 -25 130 -50z"/>
<path d="M8096 8045 c-37 -28 -45 -128 -25 -317 9 -91 19 -257 20 -369 l3
-204 -120 -8 c-138 -10 -161 -17 -170 -53 -5 -21 0 -32 24 -57 l31 -30 73 12
c40 7 84 17 98 22 14 5 120 13 237 17 187 6 214 9 232 26 27 24 26 32 -3 51
-17 11 -61 17 -171 20 -81 3 -149 6 -150 7 -1 2 2 39 7 83 5 44 9 162 8 263
-4 359 -4 398 4 453 8 53 7 57 -19 77 -32 26 -52 27 -79 7z"/>
<path d="M18260 8010 c-30 -3 -71 -14 -90 -26 -43 -25 -52 -61 -18 -68 13 -2
187 -9 388 -16 201 -6 397 -15 435 -20 111 -15 615 -12 645 3 36 18 39 65 5
97 -30 28 -23 27 -277 15 -108 -5 -247 -4 -395 4 -250 13 -607 19 -693 11z"/>
<path d="M16457 7954 c-219 -68 -423 -329 -443 -567 -16 -182 111 -363 320
-457 195 -88 456 -58 626 73 145 112 227 465 145 627 -30 59 -71 94 -160 137
-88 41 -199 58 -294 42 -91 -14 -149 -41 -157 -73 -13 -52 23 -60 102 -24 77
35 198 31 284 -9 136 -62 178 -127 166 -261 -12 -145 -57 -277 -117 -346 -67
-75 -221 -136 -349 -136 -129 0 -270 59 -361 149 -47 48 -61 69 -78 125 -12
38 -21 92 -21 121 0 118 79 293 175 390 124 125 270 166 390 111 68 -31 96
-33 118 -8 38 42 12 70 -92 102 -75 24 -184 25 -254 4z"/>
<path d="M18727 7603 c-35 -39 -41 -110 -28 -320 7 -109 17 -259 21 -333 5
-74 9 -198 10 -275 0 -77 5 -156 10 -177 22 -78 73 -49 86 49 8 70 0 425 -17
709 -11 177 -11 220 1 269 10 40 11 62 3 73 -15 25 -65 27 -86 5z"/>
<path d="M1513 7343 c-16 -24 -18 -55 -19 -258 -1 -126 -7 -279 -13 -340 -6
-60 -15 -200 -21 -310 -5 -110 -15 -245 -21 -300 -9 -90 -8 -106 8 -150 14
-38 24 -51 42 -53 13 -2 28 1 34 7 6 6 11 62 12 133 1 137 32 605 41 628 12
30 23 644 12 658 -18 21 -56 14 -75 -15z"/>
<path d="M13186 7338 c-23 -38 -28 -174 -10 -320 13 -111 14 -197 9 -525 -7
-363 -6 -393 10 -399 9 -4 21 -2 27 4 6 6 19 84 29 174 28 254 38 521 28 713
-5 94 -6 199 -2 235 9 80 7 99 -14 122 -22 25 -60 23 -77 -4z"/>
<path d="M8885 7304 c-17 -17 -14 -56 6 -80 17 -21 315 -134 402 -153 131 -29
317 -18 317 18 0 13 -49 29 -106 35 -61 6 -272 52 -334 73 -74 25 -143 60
-184 92 -43 35 -76 39 -101 15z"/>
<path d="M2853 7240 c-119 -31 -186 -76 -198 -131 -12 -54 55 -148 175 -243
89 -71 276 -255 308 -303 64 -97 43 -182 -66 -265 -45 -34 -87 -55 -148 -74
-90 -28 -117 -51 -93 -81 26 -31 186 8 274 68 109 73 160 164 153 277 -3 62
-7 74 -50 133 -46 64 -167 181 -344 331 -50 43 -97 89 -104 104 -13 24 -13 28
9 45 29 24 74 36 182 51 l87 11 46 -30 c57 -38 172 -68 367 -93 151 -21 333
-50 424 -70 72 -15 218 -31 233 -25 7 3 12 15 10 26 -2 17 -19 27 -78 46 -41
14 -115 33 -165 43 -151 31 -333 67 -479 94 -108 20 -142 30 -153 46 -20 28
-97 48 -215 54 -83 4 -117 2 -175 -14z"/>
<path d="M5130 6970 c-24 -24 -25 -41 -4 -117 20 -76 43 -485 44 -774 0 -268
15 -484 36 -516 16 -25 46 -30 61 -10 14 16 -2 1158 -17 1252 -21 138 -42 185
-82 185 -10 0 -27 -9 -38 -20z"/>
<path d="M14940 6761 c-104 -18 -181 -63 -289 -166 -98 -94 -152 -167 -215
-290 -74 -145 -84 -263 -31 -370 64 -132 228 -215 426 -215 180 0 325 63 459
200 122 124 184 264 182 414 0 69 -5 87 -36 151 -44 89 -113 155 -212 205 -38
19 -76 44 -85 55 -13 15 -31 20 -85 21 -38 1 -89 -1 -114 -5z m176 -115 c160
-58 254 -171 254 -305 0 -62 -34 -182 -73 -256 -41 -77 -145 -181 -222 -222
-116 -61 -268 -80 -398 -48 -276 65 -272 397 6 683 78 80 130 116 209 147 81
31 141 31 224 1z"/>
<path d="M16440 6650 c-147 -13 -186 -23 -215 -55 -15 -15 -23 -30 -20 -34 4
-3 147 -9 318 -13 303 -6 370 -10 756 -43 221 -18 280 -13 298 28 11 24 3 56
-18 74 -8 6 -89 13 -199 17 -102 3 -228 10 -280 15 -135 14 -528 21 -640 11z"/>
<path d="M6820 6420 c-11 -11 -22 -30 -24 -42 -7 -34 -25 -620 -26 -866 -1
-187 1 -213 15 -218 9 -4 20 -3 25 2 10 10 23 191 40 549 5 116 17 266 25 335
29 234 29 225 10 243 -22 22 -41 21 -65 -3z"/>
<path d="M8031 6421 c-11 -11 -22 -40 -25 -68 -4 -26 -15 -109 -26 -183 -17
-116 -20 -183 -19 -470 0 -238 -4 -381 -15 -495 -9 -88 -19 -241 -23 -340 -5
-158 -4 -182 10 -193 20 -17 33 -10 53 30 12 22 20 90 30 232 8 111 21 264 29
341 8 77 17 286 21 465 5 293 8 336 30 434 13 61 27 133 30 162 6 47 4 55 -19
78 -31 31 -50 33 -76 7z"/>
<path d="M16660 6345 c-14 -8 -56 -24 -95 -36 -112 -34 -184 -76 -255 -148
-120 -120 -222 -317 -266 -511 -32 -139 -33 -320 -4 -436 66 -261 245 -444
483 -496 75 -16 231 -5 299 21 118 45 204 161 215 291 15 166 -61 402 -194
603 -58 87 -238 275 -304 318 -52 33 -92 35 -97 5 -3 -13 24 -46 91 -110 178
-170 266 -292 331 -463 134 -352 61 -571 -199 -590 -206 -16 -382 91 -482 293
-121 242 -74 618 113 900 93 140 181 207 314 239 99 24 139 44 147 73 3 14 1
32 -4 41 -13 21 -62 24 -93 6z"/>
<path d="M18460 5969 c-74 -11 -219 -70 -297 -120 -35 -23 -94 -74 -131 -114
-167 -179 -197 -378 -91 -602 123 -260 426 -479 737 -533 101 -18 277 -15 352
5 146 38 305 147 397 271 71 96 99 153 118 239 21 94 9 182 -39 282 -91 186
-304 385 -516 481 -91 42 -244 81 -337 87 -43 3 -91 7 -108 9 -16 1 -55 -1
-85 -5z m152 -90 c29 -6 88 -27 130 -46 76 -35 86 -36 120 -11 14 10 33 4 113
-37 239 -123 407 -303 467 -498 46 -151 -10 -298 -167 -445 -135 -126 -264
-177 -445 -175 -210 2 -411 74 -579 209 -99 80 -158 151 -210 255 -55 110 -78
214 -63 285 24 119 108 250 205 324 90 68 278 147 354 149 12 1 46 -4 75 -10z"/>
<path d="M19585 4370 c-11 -4 -72 -10 -135 -14 -63 -3 -144 -11 -180 -16 -137
-21 -198 -30 -280 -40 -86 -11 -133 -17 -320 -46 -117 -18 -142 -23 -285 -53
-146 -31 -237 -60 -232 -74 2 -8 44 -13 133 -15 126 -4 230 5 424 34 126 20
134 21 215 29 39 4 142 18 230 32 88 13 226 28 307 32 136 6 149 8 172 30 36
34 35 76 -1 95 -17 8 -36 11 -48 6z"/>
</g>
</svg>
