<?xml version="1.0" standalone="no"?>
<!DOCTYPE svg PUBLIC "-//W3C//DTD SVG 20010904//EN"
 "http://www.w3.org/TR/2001/REC-SVG-20010904/DTD/svg10.dtd">
<svg version="1.0" xmlns="http://www.w3.org/2000/svg"
 width="3264.000000pt" height="2448.000000pt" viewBox="0 0 3264.000000 2448.000000"
 preserveAspectRatio="xMidYMid meet">
<metadata>
Created by potrace 1.12, written by Peter Selinger 2001-2015
</metadata>
<g transform="translate(0.000000,2448.000000) scale(0.100000,-0.100000)"
fill="#000000" stroke="none">
<path d="M11515 23139 c-44 -10 -97 -26 -118 -36 -35 -15 -39 -15 -73 3 -35
19 -36 19 -52 -2 -9 -12 -25 -36 -34 -52 -16 -31 -85 -72 -142 -86 -16 -4 -71
-36 -122 -72 -98 -68 -123 -105 -110 -160 10 -37 37 -29 81 26 67 82 219 186
262 178 17 -3 18 -19 20 -198 1 -171 19 -631 27 -700 4 -39 26 -68 48 -62 18
4 19 17 17 311 -1 168 -5 378 -10 466 -8 163 -2 226 24 252 30 30 216 75 337
82 97 5 115 9 118 23 9 48 -130 62 -273 27z"/>
<path d="M16975 23066 c-12 -8 -27 -59 -50 -162 -56 -254 -128 -502 -175 -610
-26 -58 -49 -177 -41 -215 3 -18 18 -41 33 -52 23 -17 29 -18 54 -6 32 16 108
119 96 131 -5 5 -25 1 -46 -7 -20 -9 -41 -13 -46 -10 -19 12 -10 61 26 145 51
121 70 176 98 282 14 51 35 127 46 168 25 87 51 214 57 282 4 38 2 48 -15 57
-14 7 -24 7 -37 -3z"/>
<path d="M15917 23038 c-8 -7 -34 -47 -57 -89 -70 -132 -128 -329 -140 -472
-9 -120 -25 -141 -108 -145 -67 -3 -94 -21 -72 -48 10 -11 28 -14 69 -12 85 4
85 4 78 -131 -6 -131 2 -204 27 -229 15 -15 17 -15 33 0 14 15 16 39 14 177
l-2 159 35 40 36 39 -21 19 c-19 17 -21 26 -16 94 3 41 18 116 33 165 14 50
34 119 44 155 19 70 44 124 90 197 35 54 35 56 14 77 -19 19 -35 20 -57 4z"/>
<path d="M13041 23011 c-11 -11 -23 -37 -26 -58 -4 -21 -13 -66 -21 -101 -8
-35 -14 -83 -14 -106 0 -87 -37 -153 -103 -184 -56 -26 -97 -74 -97 -113 0
-46 26 -36 90 33 49 54 59 61 73 50 12 -10 16 -34 16 -105 1 -154 25 -241 66
-235 18 3 20 10 19 88 0 47 -4 126 -9 176 -6 66 -4 101 5 130 15 46 49 94 65
94 7 0 20 9 31 21 10 11 42 32 70 46 61 30 114 75 114 97 0 34 -41 13 -111
-54 -39 -38 -77 -70 -84 -70 -7 0 -18 -7 -25 -15 -17 -21 -25 -19 -38 9 -14
30 -1 163 22 225 20 55 20 77 0 85 -22 8 -22 8 -43 -13z"/>
<path d="M13486 22978 c-7 -18 -19 -58 -25 -88 -6 -30 -17 -77 -25 -105 -79
-277 -87 -323 -88 -486 0 -150 12 -194 64 -232 34 -25 68 -17 107 26 39 43
130 171 165 232 31 55 62 84 88 85 26 0 29 -13 39 -132 9 -114 18 -138 50
-138 33 0 37 29 22 170 -14 137 -25 180 -50 206 -39 39 -113 -9 -157 -101 -14
-30 -45 -75 -68 -98 -24 -24 -58 -65 -76 -91 -38 -54 -75 -77 -95 -57 -30 30
1 364 47 511 8 25 16 56 19 70 3 14 16 64 30 113 28 98 25 140 -11 145 -16 3
-25 -5 -36 -30z"/>
<path d="M17698 22813 c-17 -20 -44 -72 -77 -148 -12 -27 -26 -57 -31 -66 -4
-8 -29 -58 -54 -110 -113 -228 -120 -239 -147 -239 -16 0 -19 8 -19 44 0 62
-14 92 -52 117 -44 27 -115 21 -188 -15 -62 -30 -214 -169 -225 -205 -7 -22
-5 -23 21 -17 16 4 45 23 64 42 74 74 186 134 250 134 90 0 97 -98 15 -206
-14 -18 -25 -37 -25 -43 0 -6 -15 -18 -32 -26 -18 -8 -71 -37 -118 -65 -132
-77 -168 -91 -245 -96 -38 -3 -80 -7 -93 -10 -12 -2 -45 5 -73 17 -57 25 -79
17 -59 -20 23 -44 68 -61 160 -61 77 0 97 4 205 45 135 51 169 74 225 151 23
30 47 54 54 54 7 0 21 9 31 20 45 49 47 -5 5 -109 -45 -111 -39 -205 16 -229
18 -9 27 -7 45 7 21 16 21 19 5 49 -9 17 -16 42 -16 56 0 80 82 277 170 406
44 65 160 291 160 311 0 8 18 51 40 97 43 89 46 102 28 120 -16 16 -22 15 -40
-5z"/>
<path d="M12219 22718 c-100 -107 -182 -204 -218 -257 -47 -68 -54 -75 -106
-91 -63 -20 -95 -55 -95 -107 0 -38 3 -45 26 -54 33 -12 61 4 100 58 15 21 49
58 75 83 40 39 129 168 129 189 0 14 78 83 90 79 8 -2 12 -57 14 -184 l2 -181
30 -49 c37 -61 85 -94 135 -94 32 0 47 8 96 54 32 30 65 67 73 83 8 15 19 35
26 43 6 8 17 33 24 55 7 22 27 69 45 105 18 36 36 81 39 100 4 19 12 48 18 63
11 28 1 46 -24 47 -9 0 -85 -160 -94 -198 -4 -15 -15 -36 -24 -47 -10 -11 -30
-44 -45 -73 -38 -77 -100 -142 -136 -142 -56 0 -82 74 -94 268 -4 64 -2 125 6
163 13 67 5 100 -31 119 -18 10 -26 6 -61 -32z"/>
<path d="M16324 22477 c-23 -7 -48 -17 -55 -22 -34 -26 -123 -56 -224 -76 -60
-12 -118 -26 -128 -31 -26 -13 -11 -28 28 -28 78 0 83 -22 22 -94 -66 -78 -84
-156 -53 -231 26 -62 73 -77 171 -56 89 20 212 121 203 168 -6 33 -37 25 -90
-24 -65 -59 -144 -91 -180 -72 -31 16 -38 28 -38 67 0 65 73 173 153 226 30
20 101 53 158 72 137 48 147 56 109 94 -22 22 -20 22 -76 7z"/>
<path d="M17970 22426 c-158 -30 -219 -109 -228 -296 -2 -58 -9 -111 -15 -118
-8 -10 -23 -12 -52 -7 -70 10 -96 -13 -56 -49 15 -13 34 -17 73 -15 90 4 107
0 145 -35 100 -89 256 -135 361 -107 54 14 65 22 57 42 -4 12 -27 16 -98 17
-71 2 -107 8 -158 28 -84 31 -104 52 -95 97 6 32 4 35 -26 43 -23 7 -38 20
-51 46 -17 34 -17 40 -2 106 20 85 60 146 107 161 67 21 155 32 181 22 67 -26
56 -98 -29 -190 -30 -33 -75 -72 -99 -88 -45 -28 -60 -47 -49 -64 8 -13 50 -1
126 37 90 45 134 100 153 190 19 92 19 111 -5 145 -35 48 -110 59 -240 35z"/>
<path d="M16424 22373 c-9 -20 -31 -60 -49 -88 -45 -71 -52 -95 -27 -95 30 0
45 -26 53 -92 10 -88 61 -134 103 -92 23 22 20 37 -15 74 -30 31 -31 35 -25
96 4 34 15 90 26 124 24 76 14 109 -33 110 -11 0 -24 -14 -33 -37z"/>
<path d="M27131 22251 c-6 -10 -18 -41 -27 -67 -9 -27 -58 -139 -109 -249
-117 -254 -142 -316 -165 -423 -23 -103 -25 -190 -6 -235 18 -42 61 -81 80
-74 20 8 20 30 0 69 -22 43 -20 156 5 249 24 84 77 219 141 354 111 235 127
273 133 308 11 68 -27 116 -52 68z"/>
<path d="M24300 22101 c0 -36 7 -41 110 -79 120 -44 138 -47 158 -29 38 34 72
39 201 27 68 -6 143 -18 165 -25 23 -8 51 -15 64 -15 51 0 112 -50 112 -91 0
-35 -42 -84 -114 -134 -68 -46 -99 -45 -106 5 -6 44 -33 51 -65 16 -24 -26
-27 -27 -122 -21 -54 3 -145 8 -203 11 -58 3 -139 9 -180 14 -41 5 -100 12
-130 15 -30 3 -118 18 -195 34 -192 40 -240 48 -393 66 -74 9 -152 23 -175 31
-77 27 -176 -10 -161 -60 7 -22 63 -86 75 -86 4 0 9 10 11 23 3 19 11 23 58
28 31 4 95 1 145 -7 306 -45 383 -58 410 -66 67 -20 318 -58 430 -64 177 -10
253 -7 369 16 64 12 106 7 106 -13 0 -21 -47 -54 -180 -127 -83 -45 -120 -85
-120 -129 0 -37 28 -37 68 2 20 20 71 55 112 78 41 23 89 54 107 69 17 15 71
47 119 71 171 82 248 194 203 293 -14 30 -70 70 -119 84 -150 45 -192 54 -282
60 -57 4 -141 3 -187 -2 -71 -7 -96 -6 -170 13 -115 28 -121 27 -121 -8z"/>
<path d="M28991 21942 c-54 -27 -73 -61 -81 -144 -5 -52 -16 -92 -37 -134 -82
-160 -102 -354 -37 -354 8 0 16 10 18 23 3 12 12 60 21 107 11 59 32 117 68
189 41 85 52 117 55 168 5 73 16 86 75 89 23 0 54 2 70 3 40 2 33 24 -17 49
-51 26 -89 27 -135 4z"/>
<path d="M24750 21861 c0 -12 29 -35 36 -28 11 10 -5 37 -21 37 -8 0 -15 -4
-15 -9z"/>
<path d="M30225 21822 c-16 -2 -34 -7 -40 -12 -5 -4 -28 -13 -50 -19 -22 -6
-54 -20 -72 -30 -37 -23 -110 -112 -129 -158 -30 -70 -8 -187 44 -243 33 -35
124 -90 176 -105 27 -8 89 -15 138 -15 48 0 88 -3 88 -8 0 -15 -59 -72 -74
-72 -21 0 -31 -43 -16 -69 16 -31 46 -27 53 7 5 21 20 34 69 59 35 18 74 35
88 39 14 4 59 26 101 50 42 24 82 44 90 44 8 0 34 -14 58 -30 24 -17 55 -31
68 -31 12 -1 28 -2 35 -3 27 -2 16 25 -21 49 -25 17 -45 41 -55 66 -12 30 -21
39 -40 39 -14 0 -33 11 -44 25 -30 38 -76 188 -69 224 12 58 -17 82 -47 39
-11 -15 -16 -45 -16 -87 0 -57 5 -73 46 -149 44 -82 45 -85 27 -104 -27 -30
-48 -38 -111 -43 -67 -6 -62 -6 -132 -1 -204 12 -267 27 -295 69 -15 24 -15
27 0 51 17 26 17 26 -11 32 -52 10 -94 58 -94 107 0 23 22 57 85 134 16 19 45
38 75 48 27 9 52 20 55 24 2 5 37 9 77 10 241 5 235 -127 -12 -255 -52 -27
-106 -51 -119 -54 -13 -3 -26 -11 -29 -17 -8 -26 89 -15 173 19 90 36 143 83
188 166 29 56 33 85 14 119 -17 30 -86 83 -111 85 -45 3 -132 3 -161 0z"/>
<path d="M27625 21712 c-50 -10 -194 -148 -226 -217 -25 -54 -25 -129 1 -165
52 -72 191 -79 328 -15 29 14 56 25 60 25 12 0 77 35 105 56 14 10 37 41 51
68 46 88 30 162 -50 222 -36 28 -42 29 -143 29 -58 0 -115 -1 -126 -3z m215
-95 c55 -27 65 -36 68 -61 2 -16 -2 -40 -10 -54 -13 -25 -122 -102 -144 -102
-6 0 -38 -12 -70 -26 -66 -29 -121 -36 -176 -23 -32 8 -39 15 -49 50 -12 37
-11 42 17 82 17 23 42 48 57 55 15 7 34 28 41 47 16 37 42 55 96 66 52 10 98
1 170 -34z"/>
<path d="M11235 21684 c-20 -20 -19 -26 5 -51 11 -13 43 -26 77 -33 32 -6 69
-15 83 -20 14 -5 45 -11 70 -14 64 -8 619 -8 985 0 483 10 803 11 885 3 41 -5
255 -8 475 -8 612 0 806 -1 1115 -8 354 -8 496 -8 630 1 108 7 1441 21 1765
19 699 -5 1386 -13 1528 -19 l169 -6 -4 23 c-2 17 -13 27 -39 36 -99 32 -1311
53 -2279 39 -1383 -20 -1312 -20 -2165 -11 -685 6 -885 6 -897 -1 -5 -3 -97
-1 -206 5 -236 14 -362 15 -847 5 -501 -10 -1072 -10 -1170 0 -48 5 -90 15
-105 25 -40 28 -58 31 -75 15z"/>
<path d="M28260 21690 c-100 -13 -190 -72 -206 -134 -14 -57 38 -149 91 -162
12 -3 45 1 72 9 28 8 56 11 63 7 34 -21 166 48 140 74 -10 10 -105 -12 -136
-32 -19 -11 -30 -10 -79 7 -79 28 -99 62 -63 108 17 22 94 53 129 53 19 0 48
4 66 9 19 6 48 5 75 0 137 -31 150 -45 86 -101 -42 -37 -42 -38 -17 -38 52 0
53 -69 3 -152 -87 -143 -203 -260 -309 -313 -44 -22 -58 -61 -31 -84 24 -20
54 -7 151 66 67 51 111 96 177 180 48 62 95 132 103 155 8 24 15 78 15 120 0
42 5 80 10 83 22 14 9 52 -27 81 -44 35 -58 41 -133 60 -60 14 -95 15 -180 4z"/>
<path d="M29237 21660 c-14 -11 -45 -28 -70 -39 -25 -11 -57 -35 -72 -55 -23
-31 -27 -42 -21 -76 8 -49 57 -132 92 -155 56 -37 134 -55 234 -55 83 0 99 3
118 20 42 40 30 47 -90 52 -144 7 -200 27 -245 86 -45 60 -43 84 10 115 23 13
60 31 81 38 48 17 74 52 56 74 -17 21 -63 19 -93 -5z"/>
<path d="M31360 21661 c-78 -11 -131 -46 -231 -149 -86 -90 -159 -188 -159
-216 0 -6 -15 -27 -34 -46 -18 -20 -39 -53 -46 -75 -7 -22 -21 -55 -31 -72
-10 -18 -21 -57 -25 -85 -4 -29 -20 -82 -36 -116 -33 -76 -36 -131 -8 -157 24
-21 44 -9 55 33 3 14 14 44 24 67 45 100 83 229 83 281 1 73 13 87 58 73 48
-15 154 -19 215 -7 77 15 125 30 133 42 9 14 58 36 79 36 19 0 83 66 121 125
72 113 35 240 -79 264 -27 6 -55 10 -62 10 -7 -1 -32 -5 -57 -8z m113 -72 c45
-20 60 -88 32 -142 -14 -28 -101 -135 -120 -149 -5 -4 -24 -8 -42 -8 -18 0
-57 -6 -87 -14 -88 -23 -216 -32 -227 -15 -16 26 19 89 85 154 17 17 43 44 57
61 14 17 36 37 50 44 13 7 32 20 42 29 45 39 163 62 210 40z"/>
<path d="M30970 21560 c0 -5 5 -10 10 -10 6 0 10 5 10 10 0 6 -4 10 -10 10 -5
0 -10 -4 -10 -10z"/>
<path d="M30868 21483 c-86 -65 -103 -93 -57 -93 22 0 32 7 44 30 9 17 22 30
30 30 17 0 75 60 75 78 0 21 -13 14 -92 -45z"/>
<path d="M31950 21421 c-25 -10 -67 -22 -95 -25 -71 -10 -137 -60 -155 -117
-18 -56 -19 -62 -26 -135 -5 -50 -2 -68 15 -101 32 -64 68 -84 159 -90 73 -4
80 -3 123 25 39 25 47 36 52 69 2 21 0 59 -5 84 -5 26 -8 72 -6 104 l3 58 47
14 c26 7 50 18 53 23 3 5 -12 21 -35 35 -22 14 -40 29 -40 34 0 11 -29 41 -38
40 -4 0 -27 -8 -52 -18z m-3 -194 c-4 -48 -1 -82 10 -117 21 -66 15 -77 -51
-85 -97 -12 -166 29 -166 101 0 77 63 188 113 198 12 3 31 7 42 9 12 2 28 -5
39 -17 15 -18 18 -32 13 -89z"/>
<path d="M32298 21342 c-16 -3 -34 -37 -40 -76 -2 -14 -19 -24 -62 -36 -80
-22 -97 -46 -104 -144 -3 -48 1 -98 11 -143 9 -37 18 -87 22 -111 5 -43 -7
-82 -26 -82 -22 0 -95 40 -118 64 -37 39 -61 30 -61 -23 0 -19 41 -62 77 -80
34 -17 104 -13 139 8 39 24 46 56 33 158 -22 177 -22 201 -4 250 32 87 67 95
120 26 33 -43 36 -52 31 -92 -7 -50 -70 -249 -96 -301 -10 -19 -21 -50 -25
-68 -7 -32 -6 -33 21 -30 39 4 94 86 94 139 0 22 13 68 29 102 15 35 34 94 41
131 12 67 12 68 -19 128 -41 80 -41 99 -1 92 27 -6 30 -4 30 19 0 41 -49 79
-92 69z"/>
<path d="M31580 21250 c0 -5 5 -10 10 -10 6 0 10 5 10 10 0 6 -4 10 -10 10 -5
0 -10 -4 -10 -10z"/>
<path d="M31456 21242 c-19 -19 3 -72 30 -72 13 0 49 49 41 56 -9 9 -66 22
-71 16z"/>
<path d="M16467 21064 c-11 -11 -8 -69 4 -101 6 -15 15 -50 19 -78 4 -27 24
-104 43 -170 86 -291 99 -339 131 -495 18 -91 39 -194 46 -230 23 -126 47
-389 55 -605 3 -82 10 -222 14 -310 8 -159 6 -858 -3 -880 -2 -6 0 -67 5 -136
10 -136 3 -174 -34 -180 -12 -2 -168 -2 -347 1 -179 3 -426 2 -550 -2 -361
-12 -1307 -15 -1364 -5 -67 12 -144 12 -231 0 -39 -5 -270 -8 -515 -6 -1379 9
-2728 8 -3525 -3 -723 -10 -1116 -10 -1295 -1 -85 5 -244 12 -352 17 -109 5
-208 12 -220 14 -13 3 -95 7 -183 10 -180 6 -292 12 -445 26 -249 23 -381 30
-640 35 -151 3 -320 10 -375 14 -55 5 -109 8 -120 8 -11 0 -60 2 -108 3 -76 2
-92 0 -108 -16 -16 -16 -17 -22 -6 -44 10 -20 20 -25 47 -23 121 6 223 4 275
-6 33 -6 175 -13 315 -16 446 -8 526 -13 755 -45 33 -5 121 -9 195 -10 74 -1
200 -5 280 -11 80 -5 224 -14 320 -19 642 -36 602 -35 1705 -20 391 6 910 9
1155 9 245 -1 933 -2 1530 -4 960 -1 1089 -3 1119 -17 32 -14 40 -14 85 0 44
13 153 16 781 17 402 1 951 5 1220 9 270 4 516 7 548 8 83 0 91 -9 83 -102 -5
-65 -13 -236 -31 -745 -5 -129 -20 -348 -35 -490 -6 -55 -15 -149 -20 -210 -4
-60 -11 -121 -14 -135 -4 -14 -13 -86 -21 -160 -18 -168 -49 -390 -69 -495 -8
-44 -20 -127 -26 -185 -6 -58 -18 -136 -25 -175 -7 -38 -19 -108 -25 -155 -6
-47 -15 -112 -20 -145 -6 -33 -19 -136 -30 -230 -11 -93 -24 -199 -30 -235
-14 -102 -28 -216 -40 -330 -6 -58 -20 -172 -30 -255 -11 -82 -24 -186 -30
-230 -5 -44 -17 -150 -26 -235 -8 -85 -22 -202 -30 -260 -7 -58 -18 -145 -24
-195 -9 -83 -25 -208 -49 -375 -5 -36 -21 -150 -35 -255 -14 -104 -28 -200
-31 -213 -3 -13 -10 -53 -15 -90 -20 -153 -61 -425 -65 -431 -2 -4 -13 -72
-24 -151 -12 -80 -26 -167 -31 -195 -15 -79 -58 -340 -74 -455 -8 -58 -29
-181 -46 -275 -17 -93 -35 -197 -40 -230 -10 -71 -66 -408 -79 -480 -6 -27
-17 -97 -26 -155 -9 -58 -28 -163 -42 -235 -14 -71 -29 -157 -33 -190 -11 -79
-54 -306 -80 -420 -12 -49 -25 -119 -30 -155 -9 -68 -25 -151 -41 -210 -6 -19
-14 -64 -19 -100 -5 -36 -21 -121 -35 -190 -44 -216 -58 -296 -95 -540 -12
-74 -27 -164 -35 -200 -8 -36 -15 -86 -15 -112 0 -26 -4 -58 -10 -73 -5 -14
-15 -70 -21 -123 -11 -105 -22 -190 -38 -292 -10 -68 -8 -80 13 -80 23 0 46
36 46 71 1 49 63 446 75 478 4 9 17 90 31 180 13 91 28 178 33 195 5 17 17 83
26 146 15 103 47 279 75 413 6 26 14 68 20 95 5 26 16 81 25 122 9 41 20 101
25 133 24 141 30 172 39 201 5 17 21 94 35 171 14 77 30 160 36 185 5 25 12
63 15 85 6 42 51 307 86 505 40 228 100 587 114 680 8 52 21 131 30 175 9 44
27 152 40 240 25 164 51 325 65 405 5 25 16 92 24 150 9 58 23 141 31 185 8
44 19 116 24 160 6 44 20 141 32 215 23 147 34 221 49 345 5 44 20 159 34 255
14 96 30 211 36 255 7 44 18 121 26 170 8 50 17 120 19 155 2 36 13 139 24
230 36 288 51 419 75 645 22 202 49 420 77 635 6 47 15 114 20 150 4 36 12 94
18 130 5 36 19 128 30 205 11 77 25 163 30 190 6 28 17 113 26 190 9 77 20
159 25 183 6 23 10 57 10 76 0 18 7 53 15 76 8 23 13 45 11 49 -3 4 -1 25 4
47 6 21 14 86 20 144 6 58 12 119 15 135 4 28 35 365 40 430 1 17 8 89 14 160
17 187 18 194 31 600 9 245 10 385 3 415 -11 51 2 104 29 124 16 12 355 21
743 20 77 0 271 0 430 0 160 0 709 0 1220 0 933 0 1228 -5 1340 -24 33 -5 85
-10 115 -10 30 0 118 -7 195 -15 77 -9 201 -23 275 -31 74 -8 162 -20 195 -26
85 -16 96 -15 109 5 14 22 -2 34 -54 42 -19 3 -51 10 -70 15 -35 9 -221 39
-375 61 -44 6 -125 15 -180 19 -55 5 -183 16 -285 24 -251 22 -588 27 -1475
26 -412 -1 -923 -1 -1135 -1 -212 1 -518 -3 -680 -9 -162 -6 -311 -10 -330
-10 -54 1 -63 21 -54 115 4 44 8 339 7 655 0 490 -3 619 -21 872 -12 163 -31
350 -43 415 -35 202 -47 266 -59 328 -16 76 -102 381 -130 458 -11 32 -27 82
-35 113 -12 48 -12 57 2 82 19 33 14 63 -20 113 -22 32 -63 50 -80 33z"/>
<path d="M26388 20959 c-10 -5 -18 -20 -18 -33 0 -18 9 -26 43 -37 23 -7 49
-13 57 -12 8 1 42 -5 75 -14 33 -8 75 -17 93 -18 17 -2 60 -10 95 -19 57 -14
219 -36 377 -51 36 -4 101 -13 145 -21 44 -7 114 -19 155 -25 41 -6 105 -17
142 -25 65 -15 171 -26 400 -43 64 -5 129 -12 145 -15 15 -3 75 -10 132 -16
57 -5 120 -14 140 -19 56 -15 207 -39 416 -67 105 -14 233 -36 285 -49 52 -14
104 -24 115 -24 25 1 143 -16 215 -31 84 -18 238 -47 310 -60 36 -6 85 -16
110 -22 25 -5 83 -16 130 -23 119 -19 277 -53 330 -72 25 -8 68 -19 95 -23
140 -23 285 -52 327 -66 64 -21 205 -54 230 -54 11 0 64 -13 117 -29 53 -17
114 -33 136 -37 40 -6 150 -37 260 -73 33 -11 110 -33 170 -51 61 -17 137 -40
170 -52 33 -12 96 -30 140 -41 44 -11 98 -27 120 -36 22 -10 69 -25 105 -35
36 -10 87 -24 114 -32 26 -8 55 -14 64 -14 9 0 41 -9 71 -20 31 -10 90 -28
131 -39 42 -11 83 -23 93 -27 14 -5 17 0 17 25 0 20 -5 31 -14 31 -8 0 -47 16
-87 35 -41 19 -83 35 -95 35 -12 0 -44 10 -71 21 -26 12 -75 28 -108 34 -66
14 -168 43 -290 82 -44 14 -111 34 -150 45 -38 11 -75 24 -82 30 -7 5 -43 18
-80 28 -37 9 -104 27 -148 38 -44 12 -107 31 -140 42 -62 22 -219 65 -290 80
-22 5 -65 15 -95 23 -30 8 -82 20 -115 26 -33 7 -73 17 -90 23 -54 18 -159 45
-230 57 -94 17 -147 27 -230 47 -190 44 -247 56 -330 70 -49 8 -117 21 -150
29 -33 8 -154 31 -270 50 -203 34 -488 87 -570 105 -50 11 -203 35 -315 51
-99 13 -122 17 -380 57 -107 16 -289 38 -405 47 -198 16 -296 29 -580 76 -66
11 -172 24 -235 29 -132 10 -304 33 -405 54 -38 8 -104 20 -145 27 -41 7 -86
19 -100 26 -30 15 -30 15 -52 2z"/>
<path d="M32400 20760 c-13 -9 -12 -13 6 -28 27 -21 48 -84 39 -114 -4 -13
-26 -42 -48 -65 -38 -40 -40 -44 -23 -56 17 -13 17 -16 3 -44 -9 -17 -23 -33
-32 -37 -23 -8 -38 -56 -26 -82 15 -34 46 -38 96 -14 52 25 55 37 20 70 -30
28 -31 41 -5 65 11 10 20 29 20 43 0 14 6 33 14 41 7 9 21 37 30 62 22 57 9
117 -31 148 -29 23 -41 25 -63 11z"/>
<path d="M32181 20589 c-15 -44 -14 -57 9 -89 27 -38 71 -47 121 -25 43 20 51
35 18 35 -33 0 -78 38 -87 73 -12 46 -46 49 -61 6z"/>
<path d="M32485 20359 c-5 -7 -2 -17 7 -23 57 -43 71 -59 78 -91 4 -19 4 -50
-1 -67 -42 -161 -44 -188 -14 -188 26 0 57 61 71 138 24 135 16 179 -40 216
-34 21 -92 31 -101 15z"/>
<path d="M27794 20322 c-15 -10 -74 -88 -103 -137 -13 -22 -36 -53 -51 -70
-78 -87 -160 -264 -160 -344 0 -52 18 -109 42 -133 18 -18 22 -19 35 -5 13 13
14 22 2 67 -12 45 -11 60 4 116 16 62 32 92 120 224 21 30 45 66 54 80 9 14
36 50 60 82 43 57 53 94 31 116 -14 14 -19 14 -34 4z"/>
<path d="M26865 20221 c-112 -40 -202 -109 -242 -185 -24 -45 -23 -132 3 -176
34 -60 76 -80 161 -80 72 0 140 22 158 50 3 5 18 10 32 10 l25 0 -7 -79 c-9
-98 13 -159 63 -180 67 -28 81 10 27 70 -19 22 -35 45 -35 52 0 33 25 94 61
149 44 69 47 86 20 119 l-20 24 -38 -36 c-85 -80 -173 -114 -278 -107 -59 4
-71 8 -91 32 -51 59 -17 159 73 217 58 36 150 71 172 65 9 -2 28 -7 42 -10 15
-3 42 -26 62 -52 l36 -47 11 27 c5 15 10 33 10 41 0 24 -53 77 -95 96 -50 23
-86 23 -150 0z"/>
<path d="M13750 20189 c-19 -5 -44 -14 -55 -19 -11 -5 -31 -14 -45 -20 -102
-43 -312 -231 -412 -368 -13 -17 -41 -53 -63 -81 -51 -64 -93 -124 -158 -228
-91 -145 -121 -197 -147 -254 -14 -31 -30 -63 -36 -70 -6 -8 -22 -45 -36 -84
-14 -38 -38 -102 -52 -141 -15 -39 -31 -100 -37 -134 -5 -35 -12 -66 -14 -69
-1 -3 -6 -63 -10 -133 -7 -139 -1 -163 52 -213 55 -50 77 -21 45 58 -34 88
-43 140 -32 193 6 27 14 74 19 105 20 125 103 347 198 529 71 136 91 170 119
200 12 14 56 77 98 140 115 177 155 224 307 363 143 130 288 184 397 146 63
-22 115 -144 101 -239 -26 -175 -127 -354 -242 -427 -110 -70 -114 -96 -24
-146 34 -18 98 -48 142 -66 220 -87 511 -265 624 -381 148 -153 134 -290 -43
-408 -44 -29 -104 -59 -135 -68 -31 -8 -64 -20 -75 -25 -27 -15 -303 -69 -356
-69 -25 0 -117 -11 -204 -25 -217 -34 -465 -39 -518 -11 -31 17 -39 18 -53 6
-23 -19 -15 -60 18 -84 25 -19 41 -21 140 -19 202 3 339 13 527 39 460 61 611
108 758 236 94 81 126 143 126 238 -1 68 1 63 -78 181 -24 36 -104 108 -186
167 -152 112 -198 140 -313 197 -70 35 -153 69 -185 76 -57 13 -115 47 -126
75 -8 22 1 37 39 63 85 58 133 124 191 263 48 115 62 217 41 302 -21 85 -70
155 -127 182 -54 26 -132 36 -180 23z"/>
<path d="M9281 20051 c-12 -16 -21 -34 -21 -40 0 -6 -38 -69 -85 -140 -47 -70
-85 -131 -85 -134 0 -10 -72 -131 -100 -167 -15 -19 -44 -69 -66 -110 -40 -78
-84 -146 -139 -215 -18 -22 -47 -66 -65 -99 -27 -49 -112 -170 -130 -186 -3
-3 -17 -21 -30 -40 -13 -19 -45 -60 -70 -90 -26 -30 -77 -100 -113 -155 -37
-55 -85 -122 -107 -148 -45 -53 -49 -78 -24 -150 16 -48 44 -67 79 -53 14 5
14 9 0 35 -20 40 -19 52 9 119 26 61 99 172 228 344 43 57 90 120 105 141 41
56 114 146 148 182 27 29 129 70 240 98 45 11 203 73 225 88 58 39 -42 53
-140 20 -59 -21 -136 -52 -187 -78 -36 -17 -63 -12 -63 13 0 19 52 117 83 155
56 69 109 149 144 219 10 19 29 51 43 70 24 33 70 120 70 133 0 16 64 97 74
94 34 -11 55 -115 67 -342 9 -161 8 -184 -7 -218 -17 -37 -17 -38 9 -65 23
-25 26 -36 31 -137 3 -61 7 -117 10 -125 3 -8 10 -63 15 -121 6 -58 18 -132
27 -165 8 -32 19 -73 23 -89 12 -48 30 -75 51 -75 27 0 32 27 15 90 -15 54
-38 212 -49 340 -13 141 -18 185 -23 192 -10 18 -4 110 9 130 12 18 12 26 -5
59 -15 30 -21 75 -28 201 -5 90 -11 172 -13 183 -3 11 -15 63 -27 115 -29 126
-42 150 -79 150 -20 0 -35 -8 -49 -29z"/>
<path d="M27816 19948 c-38 -51 -107 -204 -115 -258 -9 -56 6 -102 39 -120 41
-22 143 30 210 106 38 44 28 53 -27 26 -21 -10 -60 -24 -87 -31 -42 -10 -51
-10 -64 3 -14 14 -13 20 4 58 10 24 35 63 53 88 45 58 65 114 51 140 -15 29
-36 25 -64 -12z"/>
<path d="M28079 19800 c-47 -44 -51 -50 -29 -48 22 3 25 0 22 -26 -2 -16 -16
-55 -33 -87 -38 -76 -38 -126 -2 -169 26 -31 29 -32 80 -26 66 8 181 62 271
127 36 27 72 49 79 49 9 0 13 -19 12 -69 -1 -86 15 -122 60 -135 30 -8 36 -7
52 13 23 28 18 37 -22 46 -53 12 -52 53 6 128 19 25 35 49 35 54 0 15 -109 5
-182 -18 -40 -13 -100 -37 -133 -55 -70 -37 -140 -57 -181 -52 -55 6 -44 47
57 231 14 24 19 46 15 62 -10 40 -45 32 -107 -25z"/>
<path d="M19335 19721 c-8 -16 -43 -63 -77 -105 -35 -41 -74 -91 -88 -111 -14
-20 -52 -71 -86 -113 -33 -43 -69 -90 -79 -107 -11 -16 -39 -52 -62 -80 -24
-27 -43 -57 -43 -66 0 -9 -37 -52 -82 -95 -61 -59 -95 -83 -128 -93 -88 -26
-127 -49 -144 -86 -13 -26 -14 -40 -6 -54 21 -41 -1 -121 -34 -121 -12 0 -315
-294 -366 -355 -14 -16 -63 -64 -108 -106 -85 -79 -97 -104 -69 -143 21 -29
45 -9 120 103 37 55 76 102 85 106 26 8 333 313 370 368 23 32 40 47 59 49 23
2 33 15 61 70 18 38 43 73 55 79 12 6 31 20 42 30 37 34 179 99 215 99 29 0
128 19 300 59 45 10 100 33 100 42 0 12 -107 22 -157 14 -27 -3 -70 -12 -98
-20 -157 -43 -189 -45 -205 -15 -9 17 1 31 78 107 48 49 101 106 117 128 16
22 39 51 51 65 24 27 48 65 90 145 65 121 94 146 125 109 12 -15 36 -193 55
-407 7 -73 6 -79 -17 -104 -14 -15 -19 -27 -13 -30 6 -2 20 -10 30 -18 17 -12
19 -27 17 -147 -1 -73 -7 -213 -13 -311 -9 -139 -9 -181 0 -192 17 -21 23 -19
42 13 12 20 21 71 28 162 6 73 13 137 16 141 3 5 5 79 5 166 0 123 4 163 16
183 14 25 13 29 -11 65 -21 30 -26 49 -25 89 3 63 -20 272 -32 304 -5 13 -9
40 -9 61 0 112 -86 196 -125 122z"/>
<path d="M28800 19719 c-25 -14 -37 -28 -42 -52 -4 -18 -25 -64 -47 -102 -23
-38 -41 -80 -41 -93 0 -35 45 -117 76 -136 34 -23 104 -14 141 18 38 33 23 49
-39 44 -38 -4 -54 -1 -73 14 -47 37 -28 100 59 196 56 63 68 96 44 120 -16 16
-36 14 -78 -9z"/>
<path d="M22540 19622 c-8 -6 -37 -13 -65 -17 -51 -7 -79 -19 -159 -68 -61
-37 -190 -160 -210 -200 -9 -18 -37 -63 -61 -102 -68 -107 -154 -292 -200
-430 -30 -90 -117 -456 -111 -470 9 -25 44 -17 69 18 34 45 67 163 67 238 0
34 4 76 9 93 5 17 14 47 19 66 19 66 70 195 104 265 77 155 129 250 152 275
13 14 35 43 49 65 77 124 237 195 436 195 90 0 90 0 115 -32 59 -78 57 -177
-5 -274 -65 -102 -116 -146 -222 -192 -53 -23 -103 -42 -112 -42 -43 0 -114
-56 -115 -92 0 -23 44 -73 82 -92 18 -9 83 -47 143 -84 61 -37 121 -74 135
-82 54 -33 169 -120 205 -156 49 -52 68 -89 60 -123 -7 -32 -55 -80 -105 -106
-19 -10 -47 -24 -61 -31 -84 -43 -334 -67 -599 -59 -118 4 -242 9 -275 12 -33
3 -85 5 -115 5 -30 -1 -125 6 -210 15 -85 8 -190 17 -232 18 -42 2 -86 9 -98
15 -24 13 -137 -7 -122 -22 23 -23 245 -66 397 -77 88 -7 250 -19 360 -27 110
-9 235 -18 277 -21 94 -7 401 13 518 33 139 24 283 102 320 174 23 46 26 114
6 161 -8 19 -36 55 -63 80 -58 57 -220 178 -265 200 -224 109 -255 130 -244
167 7 21 30 32 117 57 116 32 243 144 303 267 35 71 38 82 34 146 -5 102 -46
179 -111 210 -52 25 -191 40 -217 24z"/>
<path d="M29126 19578 c-62 -68 -71 -119 -36 -188 19 -36 24 -40 60 -40 41 0
99 18 162 51 28 15 42 17 63 9 21 -8 25 -14 19 -33 -11 -35 -39 -66 -91 -100
-26 -17 -73 -51 -103 -76 -30 -26 -73 -59 -96 -74 -42 -29 -118 -114 -137
-155 -8 -18 -8 -25 4 -33 24 -15 32 -11 89 49 30 31 100 93 155 136 268 213
330 291 275 346 -17 17 -28 19 -58 14 -20 -4 -51 -15 -68 -25 -46 -26 -179
-45 -199 -29 -23 19 -18 48 16 101 21 33 28 55 24 69 -10 31 -36 24 -79 -22z"/>
<path d="M30025 19561 c-11 -5 -50 -21 -86 -36 -68 -28 -89 -51 -89 -98 0 -30
77 -154 119 -191 25 -23 27 -39 6 -56 -19 -16 -175 -15 -299 1 -83 11 -90 11
-102 -6 -8 -10 -14 -22 -14 -27 0 -18 62 -37 145 -43 50 -4 92 -8 95 -10 10
-6 216 16 247 26 76 24 47 83 -100 206 -48 41 -30 109 36 139 47 21 129 23
152 4 21 -17 45 -5 45 22 0 45 -105 91 -155 69z"/>
<path d="M20845 19506 c-156 -56 -230 -90 -269 -121 -17 -14 -51 -41 -76 -58
-84 -61 -143 -163 -164 -286 -9 -53 12 -160 46 -229 51 -103 185 -197 317
-222 96 -18 100 -24 98 -141 -2 -90 0 -102 18 -115 18 -14 22 -13 38 8 19 22
19 30 2 128 -11 60 13 72 142 74 85 1 129 7 206 29 161 45 272 96 334 151 60
54 79 86 99 161 18 65 17 100 -1 155 -8 25 -20 64 -25 87 -8 32 -30 62 -93
127 -88 91 -145 134 -247 185 -36 18 -80 43 -99 57 -40 28 -88 43 -156 49 -40
3 -73 -4 -170 -39z m241 -51 c22 -9 47 -20 56 -25 9 -5 42 -18 73 -29 109 -38
251 -159 323 -276 44 -70 44 -70 40 -150 -3 -50 -11 -93 -22 -115 -25 -48 -93
-118 -140 -142 -33 -17 -345 -100 -451 -121 -36 -7 -75 18 -77 48 -1 11 19 83
45 160 25 77 52 160 59 185 10 33 24 53 56 77 38 29 51 33 105 33 107 0 247
29 247 50 0 16 -59 21 -172 14 -167 -10 -178 5 -91 119 44 57 48 77 15 77 -20
0 -92 -81 -92 -103 0 -29 -64 -110 -99 -125 -34 -14 -127 -32 -263 -50 -60 -9
-98 -33 -98 -62 0 -22 40 -33 72 -21 36 15 190 59 225 65 25 4 35 1 43 -14 11
-21 9 -29 -32 -120 -16 -36 -41 -114 -55 -175 -14 -60 -30 -116 -36 -122 -15
-20 -57 -15 -92 12 -18 13 -52 32 -76 41 -118 46 -197 127 -224 230 -24 92 4
216 68 297 71 90 300 211 467 245 67 14 84 14 126 -3z"/>
<path d="M9667 19466 c-95 -25 -119 -38 -99 -58 14 -14 65 -12 161 6 75 14
114 37 95 56 -20 20 -71 18 -157 -4z"/>
<path d="M27021 19029 c-54 -10 -82 -28 -118 -76 -25 -33 -28 -44 -26 -110 1
-70 0 -73 -28 -94 -44 -31 -39 -52 14 -47 49 5 108 -13 153 -47 37 -29 120
-66 186 -84 59 -17 218 -11 242 8 27 23 1 41 -60 41 -70 0 -227 35 -284 63
-35 17 -46 29 -50 52 -3 20 -12 31 -25 33 -62 10 -95 41 -95 88 0 24 70 92
107 105 54 18 175 6 213 -21 16 -12 30 -29 30 -39 0 -19 -23 -55 -37 -57 -36
-5 -74 -19 -84 -30 -9 -11 -5 -14 22 -14 19 0 43 7 53 15 11 8 28 15 37 15 24
0 49 38 49 73 0 34 -29 78 -69 107 -33 23 -156 33 -230 19z"/>
<path d="M27757 18863 c-15 -15 -5 -81 18 -122 29 -51 32 -87 8 -99 -10 -5
-47 -20 -83 -32 -95 -33 -226 -98 -260 -130 -31 -29 -39 -67 -18 -88 8 -8 25
2 69 42 39 37 75 60 111 71 68 23 118 48 154 78 56 47 112 41 174 -17 47 -45
81 -66 103 -66 31 0 11 40 -44 88 -27 24 -49 52 -49 61 0 23 37 56 80 71 19 6
76 33 125 58 90 47 112 74 67 80 -25 4 -205 -78 -217 -98 -4 -7 -28 -20 -52
-31 -43 -18 -48 -18 -70 -3 -14 8 -34 37 -45 62 -29 67 -54 93 -71 75z"/>
<path d="M27080 18785 c0 -8 6 -15 14 -15 8 0 16 7 20 15 4 10 -1 15 -14 15
-11 0 -20 -7 -20 -15z"/>
<path d="M28476 18724 c-22 -8 -47 -20 -55 -28 -9 -7 -36 -24 -61 -36 -25 -13
-79 -52 -120 -87 -41 -35 -86 -66 -100 -70 -34 -8 -57 -29 -65 -61 -10 -40
-51 -99 -128 -179 -78 -83 -87 -116 -30 -121 28 -3 36 4 96 80 35 46 81 108
100 140 60 94 72 99 196 93 145 -8 220 5 306 52 87 47 115 91 96 153 -17 58
-55 80 -133 79 -34 0 -81 -7 -102 -15z m146 -64 c27 -34 22 -55 -24 -94 -33
-29 -50 -36 -83 -36 -23 0 -66 -4 -96 -10 -61 -11 -112 -1 -117 22 -6 30 71
92 149 120 87 31 145 31 171 -2z"/>
<path d="M29000 18631 c-77 -25 -116 -47 -183 -102 -32 -27 -66 -49 -75 -49
-8 0 -35 -9 -59 -21 -50 -24 -82 -72 -62 -95 21 -25 49 -15 103 36 29 27 73
58 97 69 25 11 58 32 74 46 38 33 109 65 144 65 34 0 91 -56 91 -89 0 -13 -10
-50 -21 -82 -12 -34 -19 -68 -15 -82 10 -40 83 -106 124 -112 21 -3 54 -11 74
-17 47 -14 262 -5 301 13 33 15 35 47 7 99 -38 70 -49 101 -43 116 7 20 78 60
131 74 32 8 42 15 40 28 -3 14 -14 17 -54 16 -65 -2 -118 -27 -144 -69 -24
-38 -26 -103 -5 -131 23 -30 19 -71 -7 -80 -33 -10 -248 -11 -281 0 -36 11
-77 71 -77 113 0 26 5 34 25 39 14 3 37 3 53 -1 63 -16 138 -22 157 -13 65 33
82 84 44 132 -25 32 -94 38 -101 9 -7 -25 1 -43 19 -43 29 0 9 -35 -23 -38
-24 -2 -33 2 -42 22 -6 14 -23 28 -37 31 -14 3 -36 7 -49 10 -13 3 -33 20 -45
38 -25 40 -60 73 -86 80 -11 3 -45 -2 -75 -12z"/>
<path d="M30475 18460 c-3 -5 -19 -10 -35 -10 -16 0 -32 -4 -35 -10 -3 -5 -14
-10 -24 -10 -10 0 -24 -7 -31 -15 -7 -8 -30 -20 -50 -26 -34 -10 -49 -8 -127
19 -119 41 -202 50 -242 26 -41 -24 -47 -47 -26 -101 22 -58 15 -121 -18 -172
-22 -32 -36 -42 -84 -56 -55 -16 -60 -16 -93 1 -23 13 -37 30 -44 52 -12 42
-23 41 -35 -3 -11 -40 -1 -88 25 -116 57 -63 244 -3 301 96 20 33 23 51 20
105 -2 36 -7 74 -11 86 -17 49 64 71 141 39 19 -8 46 -15 58 -15 36 0 48 -25
46 -90 -4 -125 50 -206 176 -260 83 -35 235 -65 261 -51 48 25 57 49 55 138
-3 83 -2 86 27 113 17 16 63 41 103 55 93 36 104 45 80 73 -17 21 -21 22 -82
11 -76 -14 -124 -51 -171 -134 -23 -41 -30 -65 -30 -107 0 -62 -10 -76 -57
-80 -32 -2 -77 14 -180 63 -89 44 -132 117 -109 186 10 31 36 37 163 34 l111
-2 36 32 c45 39 46 70 7 110 -24 23 -38 29 -75 29 -24 0 -48 -4 -51 -10z m42
-47 c31 -7 36 -30 13 -53 -35 -35 -120 -21 -120 20 0 25 40 52 65 45 11 -4 30
-9 42 -12z"/>
<path d="M27304 17759 c-32 -35 -73 -51 -146 -54 -78 -3 -115 -22 -131 -69 -7
-21 -6 -32 7 -44 14 -15 18 -14 43 10 56 51 103 63 103 25 0 -13 -4 -27 -8
-32 -44 -50 -66 -265 -31 -300 30 -30 45 2 52 112 8 121 28 183 73 222 42 37
70 44 259 65 83 9 183 21 223 26 76 11 112 3 112 -25 0 -25 -66 -117 -134
-187 -96 -101 -133 -149 -144 -190 -14 -50 -7 -71 29 -92 29 -17 30 -17 78 13
26 17 56 40 66 51 10 11 29 20 42 20 25 0 58 18 106 57 33 27 72 30 81 7 3 -9
6 -48 6 -87 0 -84 17 -123 69 -162 41 -29 111 -34 167 -10 33 14 38 13 63 -4
15 -11 33 -30 40 -43 22 -43 62 -59 125 -52 31 4 56 11 56 16 0 4 -10 6 -22 3
-32 -7 -106 59 -114 102 -6 28 -1 37 32 71 22 22 51 47 67 57 15 9 27 22 27
27 0 6 11 23 25 40 40 47 29 99 -24 111 -29 7 -63 -7 -124 -52 -49 -36 -47
-33 -85 -170 -4 -13 -19 -33 -34 -44 -25 -19 -33 -20 -89 -9 -70 13 -89 27
-108 77 -11 32 -10 44 9 103 17 53 20 73 11 95 -14 36 -61 37 -103 2 -16 -14
-42 -28 -56 -31 -51 -11 -77 -25 -117 -61 -34 -31 -46 -36 -80 -34 -22 1 -44
7 -49 11 -11 11 15 53 59 95 57 55 168 179 187 210 19 32 23 81 9 104 -14 22
-87 30 -226 25 -129 -5 -151 -6 -252 -20 -45 -5 -53 -4 -69 15 -23 27 -56 27
-80 0z m1156 -429 c0 -22 -53 -80 -73 -80 -24 0 -27 25 -5 61 27 47 48 62 65
48 7 -6 13 -19 13 -29z"/>
<path d="M13930 17643 c-88 -32 -342 -273 -435 -412 -103 -155 -138 -250 -149
-411 -12 -163 84 -346 232 -443 175 -115 346 -150 546 -111 98 19 118 26 221
77 108 53 131 72 228 185 109 126 121 145 147 222 32 94 41 190 25 285 -12 76
-70 241 -103 295 -104 169 -140 206 -254 264 -106 53 -164 58 -248 20 -47 -21
-74 -42 -110 -85 -27 -32 -51 -68 -55 -81 -4 -13 -18 -51 -31 -85 -27 -70 -28
-82 -13 -153 11 -52 34 -74 50 -49 5 8 9 49 9 91 0 100 28 176 88 240 50 54
87 68 176 68 75 0 147 -33 213 -97 51 -50 153 -213 171 -273 76 -252 74 -320
-14 -507 -13 -28 -24 -55 -24 -60 0 -4 -28 -30 -61 -58 -34 -27 -75 -62 -92
-76 -71 -59 -207 -125 -320 -155 -96 -25 -325 -4 -397 37 -19 10 -59 31 -88
45 -70 34 -173 159 -198 242 -25 79 -24 246 0 322 59 178 206 370 444 580 76
67 93 102 42 83z"/>
<path d="M9445 17620 c-12 -20 11 -32 45 -25 35 8 30 20 -11 30 -16 4 -30 2
-34 -5z"/>
<path d="M9314 17588 c-19 -21 -19 -21 6 -8 33 17 33 17 22 24 -5 3 -18 -4
-28 -16z"/>
<path d="M22820 17574 c-63 -8 -149 -21 -190 -30 -41 -9 -101 -20 -133 -25
-75 -11 -99 -24 -95 -52 5 -33 57 -44 121 -24 29 8 111 21 182 27 72 6 146 15
166 21 20 5 53 9 74 9 42 0 155 27 169 41 6 5 2 16 -9 29 -15 17 -30 20 -94
19 -42 -1 -128 -8 -191 -15z"/>
<path d="M9187 17560 c-26 -10 -54 -23 -61 -29 -7 -6 -32 -21 -55 -34 -59 -32
-178 -134 -211 -182 -15 -22 -42 -53 -59 -69 -17 -17 -31 -35 -31 -41 0 -6
-21 -44 -46 -85 -50 -81 -53 -88 -89 -230 -45 -170 -30 -326 41 -453 56 -99
61 -102 218 -169 123 -52 191 -63 391 -62 196 2 261 16 400 88 122 63 298 204
341 273 12 19 30 44 42 56 11 12 35 54 54 92 32 68 33 74 33 190 -1 110 -3
125 -28 175 -15 30 -35 66 -45 80 -9 14 -26 40 -37 58 -11 17 -22 32 -25 32
-3 0 -31 24 -62 54 -95 88 -208 147 -311 162 -23 3 -54 10 -69 16 -48 18 -111
15 -193 -10 -83 -25 -97 -31 -153 -62 -53 -29 -122 -97 -122 -119 0 -29 8 -26
44 12 52 56 112 97 142 97 16 0 45 10 64 21 29 18 42 20 85 14 27 -5 77 -7
110 -6 37 1 75 -4 100 -15 113 -46 143 -62 175 -90 19 -16 58 -44 86 -62 97
-61 146 -133 176 -257 18 -76 16 -138 -7 -213 -26 -81 -69 -144 -192 -275 -83
-90 -127 -117 -328 -203 -106 -45 -455 -48 -580 -5 -138 49 -210 94 -240 151
-33 63 -67 194 -67 254 1 114 45 283 90 346 10 14 24 41 32 60 49 128 226 304
385 385 46 23 80 46 80 55 0 21 -23 21 -78 0z"/>
<path d="M29406 17550 c-36 -11 -78 -51 -118 -110 -47 -69 -89 -110 -139 -135
-65 -34 -75 -49 -60 -90 11 -31 9 -40 -14 -90 -29 -61 -30 -100 -2 -100 13 0
33 28 68 95 27 52 63 108 78 124 38 38 114 51 173 30 55 -19 68 -31 68 -63 0
-29 -9 -46 -62 -125 -43 -62 -49 -105 -18 -136 11 -11 24 -20 29 -20 24 0 128
57 223 121 31 22 61 39 67 39 14 0 31 -42 31 -74 0 -35 40 -66 86 -66 45 0
176 63 231 110 18 17 38 30 44 30 5 0 29 9 51 20 23 11 54 20 69 20 14 0 32 7
39 15 16 19 49 19 56 0 8 -20 -22 -77 -113 -213 -44 -65 -73 -119 -69 -127 9
-25 44 -17 75 18 40 44 101 134 101 149 0 7 25 53 55 104 54 90 96 130 191
182 30 17 31 34 2 27 -13 -3 -29 -1 -37 4 -12 8 -10 19 13 70 33 73 33 136 1
136 -15 0 -24 -13 -38 -55 -41 -122 -50 -142 -74 -171 -29 -34 -114 -79 -150
-79 -13 0 -35 11 -48 24 -21 21 -29 23 -57 16 -17 -6 -34 -13 -37 -18 -5 -7
-154 -129 -187 -154 -21 -15 -108 -27 -126 -17 -29 15 -21 58 18 105 42 52 43
87 4 92 -18 2 -50 -16 -110 -61 -47 -34 -112 -80 -145 -100 -96 -59 -139 -46
-88 26 55 78 59 169 10 202 -13 8 -52 18 -88 21 -76 8 -99 18 -99 44 0 23 73
88 134 119 37 18 46 28 44 44 -3 25 -35 31 -82 17z"/>
<path d="M21935 17479 c-16 -6 -151 -12 -300 -15 -227 -3 -272 -6 -285 -20
-13 -14 -13 -17 7 -34 33 -27 104 -33 328 -32 205 1 287 7 318 24 24 12 21 54
-5 72 -25 18 -22 18 -63 5z"/>
<path d="M18965 17411 c-72 -33 -185 -141 -232 -222 -70 -117 -68 -250 3 -356
29 -44 138 -130 199 -159 102 -47 323 -57 426 -19 24 9 60 20 79 24 63 14 170
79 170 104 0 7 15 24 33 38 24 20 39 47 61 111 l29 85 -30 64 c-30 64 -48 88
-133 182 -79 87 -220 150 -349 156 -41 2 -86 7 -99 12 -40 16 -95 9 -157 -20z
m110 -69 c7 -17 15 -21 30 -17 67 20 95 18 136 -11 42 -29 52 -45 64 -98 5
-25 8 -27 20 -15 12 12 12 20 -1 58 -18 52 -13 71 19 71 36 0 98 -39 192 -118
95 -81 115 -116 115 -196 -1 -118 -21 -150 -138 -223 -81 -51 -147 -70 -287
-82 -74 -7 -105 -5 -173 10 -107 24 -153 49 -215 112 -76 79 -90 131 -66 237
14 62 84 174 133 214 109 89 151 103 171 58z"/>
<path d="M30793 17384 l-52 -25 5 -43 c6 -42 6 -43 -91 -146 -146 -157 -185
-223 -185 -314 1 -84 71 -119 184 -92 34 8 82 17 109 21 62 8 69 -8 32 -85
-19 -40 -26 -66 -21 -84 14 -57 70 -16 115 84 25 54 27 107 5 138 -18 26 -40
27 -131 6 -47 -11 -87 -14 -132 -9 -83 9 -91 13 -91 39 0 31 56 131 94 169 18
18 47 53 64 79 18 26 40 53 50 60 10 7 44 46 75 87 47 60 57 80 55 105 -4 40
-20 42 -85 10z"/>
<path d="M22540 17340 c-114 -35 -177 -86 -264 -213 -78 -115 -89 -140 -175
-397 -27 -80 -56 -158 -64 -174 -26 -49 11 -89 44 -48 27 33 61 104 74 155 18
70 71 219 94 265 10 20 35 70 55 110 66 130 168 217 296 253 73 20 74 20 99 1
42 -32 35 -87 -19 -156 -23 -31 -48 -56 -54 -56 -6 0 -44 -12 -84 -27 -86 -31
-108 -58 -76 -94 10 -11 34 -27 52 -35 60 -25 170 -105 196 -143 46 -66 34
-103 -53 -155 -71 -43 -125 -57 -251 -62 -118 -6 -140 -10 -140 -30 0 -48 209
-65 327 -26 59 20 141 61 172 86 8 6 23 31 34 55 35 79 1 178 -76 218 -44 22
-137 93 -137 104 0 16 54 66 80 74 68 21 117 96 127 191 5 49 3 55 -25 83 -30
30 -33 31 -119 30 -48 0 -99 -4 -113 -9z"/>
<path d="M23732 17327 c-6 -7 -14 -64 -18 -127 -6 -102 -10 -117 -31 -138 -18
-18 -31 -22 -49 -18 -33 9 -121 -30 -130 -57 -4 -13 -1 -25 10 -33 14 -10 30
-9 82 6 57 17 66 17 79 4 21 -22 19 -44 -16 -144 -35 -101 -35 -149 2 -129 30
16 85 143 93 214 7 67 22 85 71 85 53 0 197 -19 267 -36 37 -9 71 -13 76 -10
5 3 7 17 4 31 -9 50 -137 86 -292 83 -66 -1 -75 1 -92 22 -12 15 -17 32 -13
44 3 12 9 56 12 99 5 66 3 80 -12 97 -21 23 -29 25 -43 7z"/>
<path d="M21579 17209 c-27 -29 -49 -57 -49 -61 0 -5 -22 -36 -50 -69 -27 -33
-50 -64 -50 -69 0 -5 -18 -19 -39 -30 -30 -15 -56 -19 -103 -17 -52 2 -63 -1
-66 -15 -2 -11 10 -24 37 -38 53 -27 53 -46 -4 -115 -25 -31 -53 -72 -63 -93
-11 -20 -27 -51 -38 -68 -15 -27 -16 -34 -5 -48 7 -9 20 -16 27 -16 16 0 58
56 117 154 53 88 133 171 174 180 46 10 59 30 39 58 -26 37 -19 64 35 128 37
45 56 60 72 58 42 -6 46 -114 6 -191 -10 -21 -19 -57 -19 -80 0 -23 -5 -97
-12 -163 -11 -111 -10 -124 5 -148 10 -14 24 -26 31 -26 29 0 38 31 45 168 6
112 12 147 29 184 20 39 21 51 12 99 -6 29 -8 85 -5 124 7 92 -9 139 -49 143
-23 3 -37 -6 -77 -49z"/>
<path d="M22911 17081 c-12 -21 -5 -31 20 -31 22 0 31 13 23 34 -8 22 -31 20
-43 -3z"/>
<path d="M20414 17045 c-34 -15 -104 -88 -104 -108 0 -7 6 -22 14 -32 21 -29
76 -23 138 15 65 40 70 47 63 85 -9 53 -49 67 -111 40z"/>
<path d="M21799 16947 c-39 -26 -51 -74 -24 -101 24 -24 41 -20 84 20 41 37
43 51 13 87 -20 22 -32 22 -73 -6z"/>
<path d="M18348 16693 c-26 -7 -22 -19 13 -36 35 -16 68 -12 76 10 10 27 -36
40 -89 26z"/>
<path d="M14078 16013 c-9 -10 -23 -38 -31 -63 -8 -25 -33 -81 -56 -125 -22
-44 -41 -84 -41 -90 0 -5 -15 -41 -34 -80 -44 -91 -71 -157 -89 -225 -9 -30
-25 -86 -37 -125 -11 -38 -27 -106 -35 -150 -7 -44 -18 -100 -23 -125 -24
-109 -4 -435 35 -567 30 -107 49 -42 35 122 -13 157 -6 373 17 518 19 114 73
309 105 382 8 17 19 46 26 65 7 19 20 53 30 75 10 22 21 51 25 65 4 14 15 39
25 55 10 17 30 59 45 95 15 36 40 82 56 102 16 20 29 43 29 50 0 37 -56 51
-82 21z"/>
<path d="M20647 15952 c-24 -26 -21 -49 9 -69 31 -20 105 -27 487 -43 281 -13
297 -11 297 30 0 37 -27 44 -169 47 -180 4 -551 32 -573 44 -24 13 -33 11 -51
-9z"/>
<path d="M19081 15839 c-17 -23 -36 -58 -42 -78 -37 -126 -40 -151 -46 -423
-5 -244 -4 -278 9 -278 41 0 54 66 68 335 13 243 18 271 57 362 38 90 39 116
6 121 -16 2 -30 -8 -52 -39z"/>
<path d="M21948 15695 c-25 -19 -61 -55 -78 -80 -49 -71 -123 -229 -165 -350
-20 -60 -44 -122 -51 -137 -20 -39 -18 -75 6 -88 36 -20 50 1 103 160 101 298
152 396 230 437 32 16 64 12 136 -19 97 -43 141 -98 89 -111 -13 -4 -60 -9
-105 -13 -46 -4 -87 -12 -91 -18 -29 -37 -23 -48 73 -141 82 -80 95 -96 95
-125 0 -43 -64 -105 -156 -151 -35 -18 -71 -41 -81 -51 -15 -17 -15 -19 3 -39
14 -15 26 -19 47 -15 45 9 190 101 231 146 33 36 36 45 36 98 0 73 -23 111
-95 157 -93 60 -68 91 75 94 154 4 148 74 -16 176 -195 122 -210 126 -286 70z"/>
<path d="M23464 15652 c-29 -18 -48 -80 -53 -173 -8 -123 -13 -129 -105 -129
-120 -1 -165 -18 -166 -62 0 -40 45 -43 183 -9 67 16 86 -31 46 -109 -13 -24
-18 -45 -13 -50 17 -17 55 29 79 96 13 36 26 69 29 71 3 3 25 9 48 14 54 10
200 -31 239 -67 30 -29 46 -30 54 -5 9 30 -20 88 -52 104 -37 19 -114 34 -182
36 -99 4 -113 27 -80 136 30 98 33 123 19 140 -14 16 -29 19 -46 7z"/>
<path d="M9310 15629 c-30 -4 -80 -15 -110 -23 -30 -9 -73 -16 -94 -16 -21 0
-74 -12 -117 -26 -68 -23 -88 -35 -142 -88 -114 -113 -149 -178 -162 -298 -6
-58 -4 -70 19 -114 59 -114 128 -155 290 -176 135 -17 266 -2 361 42 285 132
379 196 471 323 38 53 44 67 44 112 0 68 -38 125 -108 166 -28 16 -57 29 -63
29 -7 0 -41 14 -76 30 -91 43 -197 56 -313 39z m141 -73 c183 -28 224 -40 274
-81 63 -52 88 -90 81 -120 -15 -61 -182 -223 -295 -286 -80 -45 -232 -96 -330
-110 -74 -10 -100 -10 -191 5 -115 20 -131 26 -173 65 -75 69 -79 166 -14 296
54 109 154 198 197 175 11 -6 20 -15 20 -21 0 -10 -34 -62 -58 -87 -7 -8 -10
-17 -7 -20 6 -7 74 69 75 84 0 17 87 46 155 51 48 4 66 11 93 34 38 33 46 34
173 15z"/>
<path d="M20898 15553 c-73 -101 -208 -242 -368 -384 -85 -76 -168 -149 -183
-163 -23 -21 -26 -29 -17 -46 16 -30 42 -25 81 16 18 20 54 50 79 67 25 17 61
46 80 64 46 43 118 90 205 133 76 38 90 60 50 78 -14 6 -25 18 -25 26 0 18 84
122 110 136 31 17 50 -12 50 -76 0 -31 -5 -64 -10 -75 -8 -14 -6 -27 7 -51 12
-22 20 -67 24 -138 7 -116 25 -183 51 -188 35 -7 41 31 28 178 -10 119 -10
142 3 166 15 28 14 30 -11 57 -23 24 -27 37 -32 126 -6 106 -17 131 -56 131
-17 0 -35 -16 -66 -57z"/>
<path d="M19775 15513 c-72 -16 -115 -68 -115 -140 0 -77 73 -111 126 -58 14
14 29 25 33 25 5 0 23 16 40 35 23 27 31 45 31 74 0 60 -38 81 -115 64z m29
-101 c3 -5 2 -18 -1 -30 -6 -26 -44 -30 -63 -7 -14 17 -15 17 20 32 31 14 38
15 44 5z"/>
<path d="M21395 15248 c-68 -37 -88 -100 -39 -118 40 -15 53 -12 85 19 33 34
37 70 11 94 -22 20 -30 20 -57 5z"/>
<path d="M8627 14713 c-12 -12 -7 -70 7 -82 7 -6 29 -11 47 -11 32 1 194 -18
339 -39 36 -6 106 -19 155 -30 58 -14 145 -23 245 -27 85 -3 207 -9 270 -13
119 -7 405 -5 570 4 203 11 649 2 694 -14 12 -5 44 -11 71 -15 28 -4 66 -13
85 -20 129 -50 405 -117 560 -137 64 -8 224 -14 410 -15 168 -1 367 -4 442 -7
103 -4 141 -2 155 8 16 12 12 14 -32 20 -28 3 -70 11 -94 16 -25 6 -83 10
-130 9 -362 -5 -577 2 -732 24 -58 9 -118 20 -132 25 -14 5 -27 8 -29 5 -6 -6
-121 16 -133 25 -5 5 -39 14 -75 21 -36 8 -81 20 -100 28 -44 18 -82 28 -190
48 -161 29 -286 37 -550 34 -325 -3 -840 -4 -936 -2 -119 3 -286 20 -346 36
-32 9 -81 18 -110 20 -29 3 -69 10 -88 16 -19 6 -57 11 -85 11 -66 1 -207 32
-236 53 -25 17 -42 20 -52 9z"/>
<path d="M13762 14371 c-26 -23 -81 -28 -362 -36 -107 -3 -253 -9 -325 -12
-156 -6 -140 -7 -249 5 -91 10 -126 7 -126 -10 0 -23 73 -38 182 -39 62 0 185
-1 273 -2 194 -2 320 2 400 14 87 12 439 13 516 1 36 -5 78 -8 93 -5 15 3 44
1 64 -5 77 -22 251 -45 357 -48 185 -4 263 -17 386 -61 49 -17 76 -13 86 12 8
23 -5 33 -68 50 -81 23 -150 33 -299 46 -74 6 -193 18 -265 26 -71 8 -168 17
-215 20 -47 3 -90 9 -96 14 -6 5 -64 9 -129 8 -105 -1 -120 1 -146 20 -34 26
-47 26 -77 2z"/>
<path d="M20616 14341 c-3 -5 -25 -6 -48 -4 -35 4 -47 1 -63 -17 -19 -21 -19
-23 -2 -35 11 -8 17 -26 17 -54 0 -70 -94 -155 -135 -121 -25 21 -17 44 35 95
32 31 50 58 50 73 0 20 -4 22 -22 16 -48 -14 -135 -64 -182 -103 -27 -23 -59
-41 -72 -41 -59 0 -134 -57 -134 -101 0 -10 14 -27 30 -39 17 -12 30 -27 30
-34 0 -17 33 -46 53 -46 8 0 23 7 32 16 15 15 15 18 -1 41 -13 20 -14 30 -5
50 15 33 43 26 55 -14 7 -27 15 -34 43 -39 19 -4 58 -3 86 1 29 4 75 9 102 10
28 1 73 11 100 20 28 10 63 17 79 16 23 -1 40 10 87 59 33 33 59 67 59 76 0
37 -25 97 -47 112 -13 10 -40 29 -60 45 -35 27 -77 35 -87 18z m118 -126 c8
-21 -2 -45 -32 -77 -28 -31 -63 -36 -81 -14 -16 19 -3 44 40 80 34 29 64 34
73 11z m-174 -49 c0 -3 -4 -8 -10 -11 -5 -3 -10 -1 -10 4 0 6 5 11 10 11 6 0
10 -2 10 -4z"/>
<path d="M22417 14314 c-3 -3 -83 -12 -179 -20 -95 -8 -209 -17 -253 -21 -44
-4 -166 -6 -271 -5 -156 1 -194 -1 -204 -13 -15 -18 -4 -52 22 -66 33 -18 629
-12 659 7 5 2 64 7 131 10 146 6 152 7 166 40 10 22 9 28 -13 49 -23 24 -45
31 -58 19z"/>
<path d="M18827 14196 c-23 -23 -36 -124 -42 -331 -3 -104 -9 -221 -15 -260
-44 -321 -48 -359 -30 -370 18 -11 38 14 45 58 4 23 18 101 31 172 24 124 53
484 54 651 0 79 -15 107 -43 80z"/>
<path d="M9195 14174 c-13 -13 -15 -50 -15 -227 0 -201 -2 -260 -15 -472 -10
-153 17 -318 46 -288 7 8 23 228 34 478 8 176 9 468 1 492 -9 28 -32 36 -51
17z"/>
<path d="M23048 13988 c-8 -13 -18 -35 -21 -49 -13 -51 -37 -255 -37 -311 0
-112 -20 -124 -193 -113 -117 8 -145 -2 -134 -47 11 -44 88 -57 203 -36 50 9
66 9 79 -2 21 -17 19 -53 -5 -102 -38 -80 -16 -133 29 -70 18 26 26 49 48 140
8 32 25 38 144 51 221 24 273 40 267 84 -4 30 -50 33 -164 12 -138 -26 -186
-29 -208 -12 -18 13 -18 19 -7 68 6 30 18 97 25 149 8 52 19 115 26 140 6 25
14 55 17 68 11 47 -43 71 -69 30z"/>
<path d="M21645 13933 c-86 -46 -162 -135 -219 -255 -87 -187 -101 -218 -127
-293 -16 -45 -45 -102 -67 -130 -55 -71 -65 -91 -53 -114 16 -28 35 -31 68
-10 23 15 34 33 48 81 10 35 32 88 49 118 18 30 38 71 45 90 63 161 147 321
195 373 50 53 121 89 179 91 31 1 44 -5 63 -27 26 -30 32 -79 12 -94 -7 -5
-44 -23 -81 -39 -83 -35 -112 -59 -131 -104 -22 -55 -1 -95 82 -150 50 -33 68
-51 69 -70 6 -54 -68 -105 -228 -156 -118 -39 -140 -54 -118 -80 27 -33 172
-5 299 59 143 71 175 226 58 281 -43 21 -98 71 -98 89 0 35 39 64 102 77 116
24 145 54 133 140 -6 42 -15 60 -49 96 l-43 44 -79 0 c-53 -1 -89 -6 -109 -17z"/>
<path d="M20365 13857 c-64 -47 -199 -198 -229 -255 -44 -85 -120 -183 -164
-211 -61 -38 -82 -58 -82 -75 0 -22 29 -46 54 -46 27 0 82 55 91 92 4 14 23
42 43 60 21 19 62 65 92 102 76 94 78 96 138 123 68 30 116 30 136 1 19 -27
20 -65 4 -159 -12 -77 -5 -96 31 -84 38 12 54 61 55 167 1 65 5 101 14 110 8
8 43 14 97 15 96 1 105 5 105 38 0 21 -6 25 -46 31 -34 5 -56 2 -80 -10 -41
-19 -107 -21 -121 -3 -6 6 -16 29 -22 49 -12 37 -52 79 -75 77 -6 0 -24 -10
-41 -22z m49 -53 c35 -35 12 -94 -37 -94 -60 0 -74 37 -32 83 29 31 47 34 69
11z"/>
<path d="M19362 13778 c-26 -26 -8 -118 22 -118 21 0 66 58 66 85 0 38 -61 60
-88 33z"/>
<path d="M13828 13724 c-166 -44 -235 -86 -302 -183 -21 -31 -62 -83 -91 -116
-70 -81 -84 -105 -100 -166 -42 -159 82 -266 313 -272 125 -3 217 20 340 83
119 62 139 78 242 182 95 97 120 146 120 236 0 85 -58 170 -136 199 -156 58
-266 69 -386 37z m292 -71 c25 -9 67 -32 94 -52 130 -93 93 -227 -103 -373
-96 -71 -119 -85 -206 -122 -49 -21 -96 -43 -102 -48 -17 -14 -228 -13 -278 1
-24 6 -55 26 -77 48 -56 59 -61 75 -47 140 10 49 19 64 68 112 31 30 64 66 73
80 70 104 227 206 338 221 102 13 192 11 240 -7z"/>
<path d="M20965 13646 c-19 -28 -21 -50 -12 -88 8 -32 49 -47 72 -28 23 19 29
74 11 109 -20 38 -49 40 -71 7z"/>
<path d="M12120 12989 c-47 -4 -195 -10 -330 -13 -135 -3 -278 -10 -317 -16
-40 -6 -76 -9 -81 -6 -5 3 -37 1 -73 -4 -35 -5 -107 -10 -159 -10 -95 -2 -134
-5 -370 -35 -125 -16 -210 -28 -285 -41 -22 -4 -49 -8 -60 -9 -11 -2 -67 -12
-125 -23 -58 -11 -145 -23 -195 -27 -49 -4 -115 -13 -146 -20 -36 -8 -98 -11
-175 -8 -234 9 -595 -5 -724 -27 -112 -20 -334 12 -498 71 -65 23 -142 26
-142 4 0 -20 63 -45 115 -45 26 0 59 -9 86 -24 104 -57 277 -70 584 -44 78 7
285 11 465 10 279 -2 339 1 425 17 55 10 116 19 135 20 19 1 78 10 130 21 164
34 418 70 605 86 238 20 370 31 540 46 77 7 212 12 300 13 88 0 241 1 340 2
222 3 364 -2 475 -17 94 -12 551 -41 560 -35 14 9 372 5 450 -4 47 -6 128 -15
180 -21 52 -5 106 -12 120 -15 14 -3 114 -7 222 -10 108 -2 245 -9 303 -15
113 -13 135 -7 135 31 0 30 -8 31 -305 44 -77 3 -230 8 -340 10 -334 8 -438
13 -485 25 -45 12 -79 13 -475 24 -121 4 -258 11 -305 16 -47 5 -105 12 -130
15 -25 3 -99 7 -165 10 -66 3 -138 7 -160 9 -22 1 -78 -1 -125 -5z"/>
<path d="M8291 12828 c-34 -35 -39 -59 -16 -78 22 -18 40 -7 63 41 16 32 19
46 10 56 -15 19 -22 17 -57 -19z"/>
<path d="M18527 12782 c-9 -10 -53 -38 -97 -62 -43 -24 -77 -47 -74 -50 3 -3
22 -5 42 -5 34 0 37 -2 35 -28 -1 -15 -15 -56 -31 -90 -16 -34 -37 -84 -46
-111 -9 -27 -24 -61 -32 -75 -16 -29 -57 -177 -80 -291 -8 -41 -19 -91 -24
-111 -6 -20 -10 -71 -10 -113 0 -49 -5 -88 -15 -106 -13 -26 -14 -34 -1 -64 8
-19 20 -60 26 -92 33 -160 149 -274 279 -274 77 0 196 57 281 135 19 17 51 38
70 45 19 8 46 20 59 29 22 14 22 15 5 28 -16 11 -16 16 -3 39 8 15 31 37 51
50 33 21 37 28 32 53 -4 20 -1 34 13 47 45 44 139 225 162 311 13 48 17 221 7
273 -4 19 -19 64 -34 100 -47 117 -91 168 -216 252 -93 63 -159 88 -236 88
-26 0 -63 9 -85 20 -48 25 -58 25 -78 2z m206 -104 c122 -30 258 -131 319
-236 76 -132 77 -339 3 -497 -12 -27 -39 -85 -59 -127 -20 -42 -50 -91 -68
-108 -17 -18 -41 -51 -53 -74 -13 -23 -48 -60 -81 -86 -33 -25 -71 -57 -85
-72 -36 -36 -119 -77 -183 -89 -46 -10 -57 -8 -100 12 -94 44 -154 165 -142
288 3 37 1 70 -4 76 -13 16 -14 48 -1 125 6 36 15 97 20 135 5 39 16 85 24
102 9 17 20 50 23 74 4 24 22 81 40 126 18 45 43 115 55 155 31 103 66 174 93
191 39 26 109 28 199 5z"/>
<path d="M18424 11775 c-4 -9 -3 -20 2 -25 8 -8 145 -26 274 -37 l55 -5 -20
21 c-16 16 -45 24 -135 36 -63 8 -127 17 -143 21 -20 4 -29 1 -33 -11z"/>
<path d="M21447 12395 c-124 -66 -181 -143 -301 -407 -14 -31 -26 -61 -26 -65
0 -27 -66 -162 -88 -181 -23 -19 -34 -22 -80 -16 -51 6 -112 -8 -112 -27 0
-17 66 -20 109 -4 36 12 46 13 53 3 13 -22 9 -43 -23 -112 -39 -83 -63 -184
-49 -201 17 -20 49 -24 65 -8 9 8 15 33 15 56 0 49 62 226 79 227 3 1 21 14
39 29 33 28 33 30 17 54 -16 25 -15 29 35 144 28 65 59 136 68 158 22 51 107
183 136 211 12 12 42 34 67 50 36 23 55 27 107 27 52 0 69 -5 105 -29 57 -39
76 -64 77 -98 0 -50 -51 -87 -181 -129 -167 -55 -219 -100 -191 -161 10 -23
173 -116 203 -116 10 0 34 -18 55 -40 21 -22 52 -44 69 -50 42 -14 78 -53 78
-84 0 -43 -50 -96 -119 -127 -35 -16 -72 -29 -82 -29 -10 0 -52 -11 -92 -25
-43 -14 -96 -25 -127 -25 -63 0 -93 -13 -93 -40 0 -49 85 -57 230 -20 276 70
360 135 360 279 l0 61 48 23 c47 22 66 55 27 48 -106 -19 -148 -12 -240 44
-22 14 -62 32 -90 41 -65 22 -125 62 -125 84 0 35 78 76 193 100 69 14 116 51
147 115 29 60 20 102 -33 152 -92 85 -113 94 -237 109 -36 4 -55 0 -93 -21z"/>
<path d="M9132 12353 c-32 -13 -79 -180 -80 -288 0 -16 -5 -52 -11 -80 -6 -27
-16 -97 -21 -155 -15 -163 -38 -347 -55 -435 -28 -149 -29 -159 -10 -175 29
-24 50 15 64 122 7 51 20 125 28 163 15 70 40 265 68 515 16 149 26 193 57
262 17 39 19 50 8 63 -13 15 -25 17 -48 8z"/>
<path d="M20236 12310 c-45 -41 -137 -213 -176 -326 -10 -29 -37 -83 -59 -120
-23 -37 -41 -73 -41 -79 0 -6 -12 -22 -26 -36 -28 -26 -64 -89 -64 -113 0 -8
-20 -29 -45 -46 -54 -37 -62 -77 -20 -104 40 -26 80 -20 114 17 17 17 31 35
31 39 0 4 -13 16 -30 28 -16 12 -30 28 -30 36 0 8 23 36 50 61 28 25 50 54 50
63 0 27 66 80 146 116 106 50 121 77 35 67 -67 -8 -79 10 -47 68 14 24 41 84
61 134 20 49 46 100 58 113 28 30 58 25 69 -13 12 -43 10 -227 -2 -261 -6 -15
-8 -45 -5 -65 3 -20 8 -87 10 -150 2 -86 0 -120 -12 -142 -13 -26 -13 -31 3
-48 22 -24 31 -24 71 4 37 25 39 32 18 75 -13 25 -14 39 -5 75 8 31 9 56 1 83
-6 25 -7 56 -1 84 5 25 9 101 9 170 0 281 -54 371 -163 270z"/>
<path d="M19552 12237 c-27 -24 -58 -50 -68 -58 -66 -49 -94 -128 -58 -164 22
-22 34 -15 64 35 16 27 51 62 90 90 71 50 90 77 82 115 -7 41 -52 33 -110 -18z"/>
<path d="M13760 12108 c-11 -18 -20 -37 -20 -43 0 -5 -5 -39 -11 -75 -6 -36
-14 -87 -19 -115 -4 -27 -15 -88 -24 -135 -9 -47 -23 -130 -32 -185 -8 -55
-22 -127 -29 -160 -8 -33 -17 -89 -20 -125 -4 -36 -16 -123 -26 -195 -17 -115
-18 -131 -4 -144 26 -26 44 6 55 95 5 43 16 113 25 154 9 41 22 113 30 160 8
47 18 110 24 140 10 52 61 336 81 445 5 28 15 79 24 114 10 44 12 70 5 83 -15
27 -37 22 -59 -14z"/>
<path d="M20656 11789 c-14 -17 -26 -34 -26 -39 0 -10 58 -60 70 -60 20 0 50
53 44 79 -15 59 -49 67 -88 20z"/>
<path d="M21251 11726 c-10 -12 -8 -18 14 -32 22 -14 33 -16 55 -7 16 6 49 8
73 6 28 -3 47 -1 52 7 12 19 -3 25 -67 27 -33 1 -72 4 -87 8 -18 4 -32 1 -40
-9z"/>
<path d="M21540 11710 c0 -5 5 -10 10 -10 6 0 10 5 10 10 0 6 -4 10 -10 10 -5
0 -10 -4 -10 -10z"/>
<path d="M19537 11659 c-9 -6 -21 -8 -26 -5 -12 8 -41 -4 -41 -16 0 -12 80 -2
93 11 13 13 -6 20 -26 10z"/>
<path d="M19095 11596 c-32 -23 -12 -46 42 -46 26 0 64 -4 83 -9 19 -5 54 -11
78 -14 54 -7 64 10 30 52 -23 29 -25 30 -119 30 -65 1 -101 -3 -114 -13z"/>
<path d="M24271 11574 c-11 -14 -21 -34 -21 -42 0 -8 -16 -44 -36 -79 -40 -73
-86 -197 -119 -328 -13 -49 -34 -130 -48 -180 -13 -49 -32 -126 -42 -170 -9
-44 -25 -109 -36 -145 -10 -36 -41 -148 -68 -250 -55 -206 -102 -345 -136
-405 -50 -87 -139 -412 -166 -600 -16 -116 -32 -145 -91 -159 -45 -10 -31 -46
18 -46 8 0 28 -10 44 -21 l28 -22 32 23 c29 20 35 21 94 11 34 -6 101 -11 148
-11 111 0 145 -12 157 -55 5 -19 8 -49 7 -67 -4 -45 18 -228 44 -373 12 -66
24 -138 26 -160 3 -22 11 -71 19 -110 24 -118 53 -333 65 -475 6 -74 16 -157
21 -183 13 -71 11 -123 -6 -137 -11 -9 -39 -11 -103 -6 -172 13 -701 8 -879
-8 -221 -20 -278 -22 -713 -17 -170 1 -287 -2 -325 -9 -75 -14 -627 -24 -980
-18 -16 0 -141 -2 -278 -4 -200 -4 -249 -2 -258 9 -8 8 -9 31 -5 64 7 50 12
216 21 674 6 331 25 613 47 723 14 63 3 82 -36 64 -48 -22 -67 -143 -82 -552
-11 -260 -11 -287 -13 -647 -2 -241 -6 -335 -15 -342 -6 -5 -95 -10 -211 -10
-110 0 -317 -1 -460 -1 -338 -1 -938 8 -1040 15 -44 3 -156 7 -250 10 -93 2
-188 8 -210 14 -22 6 -106 15 -187 21 -81 6 -196 19 -255 29 -62 11 -187 22
-293 26 -161 5 -366 24 -434 40 -30 7 -246 35 -272 35 -12 0 -32 -9 -45 -19
l-24 -20 22 -22 c20 -20 36 -24 135 -30 62 -3 120 -9 128 -13 43 -17 208 -37
395 -46 116 -6 255 -17 310 -25 55 -8 174 -21 265 -30 91 -8 190 -20 220 -26
81 -16 466 -30 875 -33 242 -1 385 -6 435 -15 44 -8 97 -11 130 -7 30 4 181 9
335 12 154 2 306 9 338 15 49 8 63 8 83 -5 l24 -16 -1 -228 c0 -216 9 -528 31
-1037 9 -209 6 -659 -5 -795 -3 -30 -9 -149 -14 -265 -6 -115 -15 -268 -20
-340 -6 -71 -15 -218 -21 -325 -6 -107 -16 -274 -22 -370 -10 -144 -18 -876
-18 -1483 0 -137 -10 -196 -41 -235 -25 -32 -24 -59 2 -73 45 -23 92 43 105
146 8 65 17 311 16 435 0 63 -1 163 0 223 0 59 0 126 0 150 -2 431 -1 680 3
687 4 7 7 49 21 335 12 248 14 280 24 402 6 67 12 170 15 227 2 58 6 124 9
148 3 24 8 113 11 198 3 85 8 196 10 245 12 208 14 539 5 660 -6 72 -12 218
-15 325 -15 568 -25 840 -31 906 -10 95 -16 93 259 93 127 1 248 2 267 2 19 1
163 1 320 1 157 -1 386 4 510 10 124 6 340 12 480 13 140 2 302 6 360 10 167
10 346 15 799 19 232 2 433 7 445 10 25 6 91 -15 111 -35 10 -11 14 -109 20
-469 9 -570 9 -588 -4 -795 -6 -93 -15 -271 -21 -395 -6 -124 -17 -322 -25
-440 -27 -398 -28 -436 -20 -1120 1 -129 -1 -257 -6 -285 -13 -75 -31 -261
-33 -335 -1 -36 -6 -155 -11 -265 -7 -179 -6 -206 10 -260 11 -37 18 -95 19
-154 1 -77 4 -96 18 -105 14 -8 22 -5 43 14 30 29 33 70 9 180 -34 154 -25
596 17 865 7 43 10 209 9 435 -4 603 2 882 24 1130 8 96 18 261 21 365 3 105
11 249 18 320 13 140 14 389 2 875 -4 168 -8 340 -8 384 -2 74 0 80 24 98 26
19 28 20 299 31 41 2 94 9 118 16 25 7 89 11 155 10 62 -2 151 1 199 6 l87 8
10 -27 c13 -34 31 -33 65 3 30 32 1 29 536 46 290 10 311 11 365 18 108 15
216 22 355 22 231 0 869 -14 937 -21 70 -7 113 10 113 46 0 40 -23 42 -526 44
-354 0 -485 4 -488 12 -5 12 106 59 204 88 77 21 120 69 99 108 -18 34 -98
120 -134 143 -17 11 -42 31 -56 44 -13 12 -39 35 -57 49 -25 19 -32 32 -30 51
3 23 13 29 100 58 109 35 184 81 199 121 14 35 3 88 -23 114 -19 19 -28 20
-116 14 -87 -7 -102 -11 -163 -47 -78 -45 -159 -126 -209 -208 -46 -74 -140
-352 -140 -412 0 -24 4 -29 24 -29 40 0 48 18 111 259 48 180 134 293 272 358
101 47 173 41 173 -16 0 -24 -68 -78 -109 -87 -66 -14 -153 -50 -173 -71 l-21
-23 27 -64 c24 -56 40 -75 120 -145 122 -106 122 -105 103 -134 -8 -13 -37
-32 -64 -42 -26 -10 -93 -35 -148 -55 -101 -38 -229 -74 -320 -90 -62 -11
-157 -17 -495 -29 -146 -6 -309 -13 -362 -17 -123 -8 -128 -5 -128 84 0 36 -5
92 -12 125 -11 54 -11 62 9 96 l22 38 -26 20 c-19 13 -30 35 -39 74 -30 139
-79 228 -125 229 -30 0 -67 -56 -133 -202 -36 -81 -66 -150 -66 -154 0 -3 -15
-24 -34 -45 -20 -21 -38 -54 -42 -74 -8 -45 -100 -212 -122 -224 -10 -5 -53
-12 -97 -16 -44 -4 -111 -15 -150 -25 -88 -22 -120 -14 -134 37 -6 20 -8 55
-4 78 3 24 0 87 -6 141 -6 55 -14 131 -16 169 -5 76 -14 142 -39 275 -8 47
-19 112 -24 145 -6 33 -17 98 -26 145 -9 47 -22 126 -30 175 -18 108 -34 201
-48 273 -17 88 10 97 191 66 67 -11 100 -13 121 -6 37 13 402 -16 432 -34 8
-5 124 -16 376 -34 73 -5 193 -10 265 -10 129 -1 271 -10 512 -30 240 -21 373
-32 500 -40 72 -5 177 -13 235 -19 58 -6 193 -16 300 -22 350 -20 434 -27 540
-43 58 -8 155 -16 217 -16 114 0 117 -1 147 -44 12 -18 14 -18 45 5 l33 24
262 -2 c249 -2 376 -12 631 -48 55 -8 174 -19 265 -25 91 -6 217 -17 280 -25
63 -8 147 -17 185 -20 39 -3 106 -12 151 -20 44 -8 94 -17 110 -20 73 -12 122
-22 154 -33 30 -10 229 -39 325 -47 113 -10 493 -28 605 -29 182 -1 185 1 193
121 3 50 13 105 22 128 33 74 51 150 90 360 13 72 31 150 40 175 9 25 21 74
25 110 5 36 21 149 35 252 14 102 25 206 25 230 0 24 7 83 15 132 11 66 15
194 16 505 1 409 2 417 25 488 43 127 33 143 -88 144 -40 0 -131 7 -203 14
-216 24 -637 53 -855 60 -266 8 -377 11 -1445 30 -99 2 -216 6 -260 9 -44 3
-145 8 -225 11 -80 3 -206 10 -280 16 -74 6 -234 12 -355 14 -338 5 -664 18
-905 36 -80 6 -156 11 -170 11 -38 0 -456 27 -530 34 -104 10 -145 12 -320 18
-189 7 -603 30 -899 52 -62 4 -130 14 -236 36 -27 5 -59 10 -70 10 -11 1 -63
8 -115 16 -52 8 -120 17 -151 19 -52 4 -58 2 -78 -23z m139 -44 c20 -10 166
-35 295 -50 39 -5 86 -13 105 -18 19 -6 118 -13 220 -16 102 -3 210 -10 240
-15 50 -9 270 -20 490 -25 207 -5 447 -18 470 -26 14 -5 77 -11 140 -14 208
-10 464 -26 520 -32 30 -4 168 -11 305 -15 138 -5 264 -10 280 -11 17 0 48 0
70 2 66 4 375 -10 443 -21 34 -5 67 -7 71 -5 5 3 91 1 192 -5 101 -6 245 -12
319 -15 241 -7 345 -12 426 -19 43 -3 250 -8 459 -11 792 -11 1107 -20 1195
-34 30 -5 138 -12 240 -16 102 -3 190 -11 197 -16 6 -5 80 -12 163 -15 116 -5
153 -9 157 -20 3 -8 -3 -46 -13 -86 -14 -56 -19 -119 -21 -282 -1 -115 -3
-226 -3 -245 -1 -19 -1 -78 -1 -130 1 -131 -7 -339 -13 -349 -3 -4 -10 -59
-16 -122 -19 -206 -51 -443 -66 -494 -16 -56 -31 -123 -73 -330 -15 -77 -35
-157 -44 -179 -10 -21 -17 -49 -17 -62 0 -13 -9 -46 -20 -74 -11 -28 -20 -68
-20 -89 0 -54 -31 -66 -146 -57 -47 4 -140 9 -207 11 -166 6 -419 24 -492 35
-33 4 -100 11 -150 15 -49 4 -121 15 -160 25 -38 10 -73 17 -77 14 -10 -7
-275 33 -294 44 -9 5 -36 7 -59 4 -25 -2 -52 1 -66 9 -13 7 -32 12 -41 10 -10
-1 -18 3 -18 9 0 8 22 10 73 6 86 -6 70 -6 238 -3 98 1 143 -2 161 -11 20 -11
40 -12 96 -3 39 6 95 11 124 11 30 0 59 5 66 12 19 19 14 46 -10 62 -20 13
-31 13 -85 0 -66 -15 -150 -15 -838 -1 -264 5 -372 11 -699 37 -60 5 -204 6
-320 4 -388 -10 -484 -6 -716 25 -100 13 -346 31 -495 36 -138 4 -422 22 -479
30 -21 3 -50 12 -65 19 -16 9 -95 18 -216 25 -104 6 -298 17 -430 25 -132 8
-330 17 -440 20 -171 5 -325 15 -450 30 -16 2 -68 11 -115 20 -169 31 -443 46
-481 25 -28 -15 -145 -10 -189 7 -25 10 -47 28 -56 45 -19 37 -35 37 -57 -2
-16 -28 -21 -31 -50 -24 -17 4 -94 10 -169 14 -79 4 -142 11 -149 18 -8 8 -4
35 14 104 14 52 28 118 31 147 4 30 15 77 26 105 10 29 26 86 35 127 9 41 20
86 25 100 4 14 14 45 21 70 7 25 24 62 37 84 22 36 44 92 77 196 38 124 66
223 79 286 8 38 26 101 39 139 25 71 35 110 43 177 3 20 11 60 20 90 8 29 30
112 49 183 62 239 136 434 179 478 19 19 67 22 96 7z m668 -3307 c5 -10 19
-57 31 -105 27 -109 23 -121 -56 -137 -123 -26 -146 -3 -94 95 17 31 31 61 31
66 0 4 9 28 21 53 23 48 51 59 67 28z m66 -326 c2 -18 9 -65 15 -105 21 -136
14 -145 -96 -139 -38 2 -102 0 -143 -4 -43 -4 -91 -3 -112 2 -57 15 -52 39 41
183 22 35 102 86 135 86 8 0 38 11 68 25 l53 25 17 -21 c10 -11 19 -35 22 -52z"/>
<path d="M24793 10870 c-40 -4 -94 -13 -120 -19 -27 -6 -70 -13 -96 -15 -61
-4 -91 -30 -82 -69 8 -32 33 -35 128 -13 124 29 206 36 430 38 236 3 253 6
245 45 -7 36 -45 43 -243 41 -104 0 -223 -4 -262 -8z"/>
<path d="M24809 10603 c0 -16 0 -60 1 -99 1 -46 -5 -85 -15 -110 -22 -53 -35
-114 -45 -213 -10 -90 -33 -131 -74 -131 -24 0 -100 -36 -116 -55 -7 -8 -10
-22 -6 -30 4 -13 10 -14 26 -5 12 6 41 17 66 25 44 13 46 13 56 -10 7 -17 6
-41 -6 -93 -20 -89 -20 -151 0 -180 19 -27 28 -28 54 -2 17 17 20 33 20 124 0
103 11 158 36 185 16 18 95 40 142 41 26 0 41 -8 64 -32 48 -51 76 -109 82
-165 5 -59 11 -73 31 -73 24 0 45 43 45 93 0 37 -9 65 -40 124 -23 42 -53 91
-69 108 -29 34 -46 75 -112 285 -58 187 -84 240 -115 240 -19 0 -24 -5 -25
-27z m79 -240 c32 -86 70 -225 65 -242 -7 -28 -74 -48 -111 -35 -23 8 -27 15
-26 44 1 38 24 227 30 248 6 22 31 13 42 -15z"/>
<path d="M29787 10585 c-20 -19 -22 -50 -4 -62 6 -4 48 -8 92 -9 44 0 118 -6
165 -13 47 -6 151 -18 232 -26 80 -8 166 -20 190 -26 24 -6 75 -17 113 -26
110 -23 194 -52 272 -94 39 -22 78 -36 87 -33 28 11 30 44 4 71 -54 59 -193
105 -483 164 -116 23 -365 51 -480 54 -44 1 -101 5 -126 10 -36 6 -49 4 -62
-10z"/>
<path d="M27315 10441 c-14 -24 -37 -134 -50 -244 -13 -108 -31 -167 -53 -167
-54 0 -129 -23 -154 -47 -27 -26 -40 -83 -19 -83 5 0 41 16 80 36 39 20 78 33
86 30 28 -10 23 -62 -20 -185 -56 -162 -85 -267 -85 -306 0 -32 3 -36 22 -33
16 2 27 17 41 53 10 28 23 59 27 70 36 85 100 308 100 347 0 15 11 40 24 55
l24 28 114 -3 c62 -2 150 -4 195 -6 94 -4 119 8 85 42 -22 22 -124 35 -297 36
l-110 1 1 30 c0 17 9 85 19 152 14 88 16 132 9 159 -9 38 -27 54 -39 35z"/>
<path d="M26475 10396 c-84 -33 -155 -79 -190 -122 -118 -147 -163 -228 -210
-379 -15 -50 -37 -111 -48 -137 -21 -50 -17 -81 10 -76 29 5 106 157 118 229
14 94 47 158 144 282 68 88 228 167 306 153 46 -9 87 -58 83 -100 -2 -25 -13
-37 -53 -63 -27 -18 -59 -33 -70 -33 -24 0 -180 -52 -223 -74 -73 -38 -81 -77
-24 -132 20 -20 69 -51 107 -69 78 -37 93 -50 124 -112 28 -56 27 -98 -5 -161
-29 -59 -62 -82 -196 -137 -96 -40 -151 -44 -207 -15 -47 23 -65 11 -55 -38
18 -90 212 -79 394 22 76 43 102 71 137 145 22 46 25 63 21 125 -8 114 -61
192 -146 216 -87 24 -146 78 -110 101 17 11 192 65 237 73 95 17 162 100 141
174 -16 57 -53 116 -82 130 -52 25 -138 24 -203 -2z"/>
<path d="M28808 10403 c-9 -10 -30 -47 -48 -82 -18 -36 -49 -88 -70 -116 -41
-56 -170 -263 -170 -274 0 -4 -22 -32 -49 -62 -26 -29 -58 -73 -69 -96 -12
-22 -57 -84 -100 -136 -143 -172 -155 -195 -117 -233 31 -31 48 -22 66 34 14
42 32 69 162 237 87 112 96 121 148 139 128 43 215 56 237 34 14 -14 16 -79 3
-145 -5 -26 -12 -103 -15 -170 -6 -117 -5 -123 14 -123 31 0 56 71 63 185 13
202 16 236 22 245 10 16 71 28 120 22 42 -4 47 -3 43 14 -3 14 -11 18 -33 16
-17 -1 -53 5 -82 14 -49 15 -70 35 -57 56 11 18 6 415 -6 437 -13 26 -42 27
-62 4z m4 -288 c-3 -169 -6 -183 -37 -195 -35 -13 -178 -21 -195 -10 -12 7 -8
18 22 62 19 29 57 89 83 133 74 126 97 156 114 153 14 -3 16 -22 13 -143z"/>
<path d="M30002 10279 c-83 -16 -159 -76 -227 -179 -124 -189 -229 -407 -281
-583 -15 -49 -35 -91 -54 -113 -50 -58 -54 -117 -8 -122 22 -3 30 3 43 29 9
17 18 45 21 62 2 16 17 55 33 86 16 31 45 98 65 148 58 152 134 301 211 418
102 153 148 185 267 185 121 0 158 -39 158 -164 0 -36 -8 -62 -31 -102 -27
-48 -36 -55 -82 -69 -29 -9 -97 -23 -151 -31 -106 -16 -136 -27 -136 -49 0
-19 39 -45 68 -45 64 0 138 -34 214 -97 143 -119 150 -200 25 -280 -82 -52
-108 -62 -205 -77 -112 -18 -175 -11 -224 24 -35 25 -37 25 -48 -5 -13 -33 -7
-45 36 -74 48 -33 207 -42 304 -16 68 18 179 77 234 125 48 42 73 127 56 184
-30 96 -84 153 -191 202 -27 13 -49 28 -49 34 0 5 20 19 45 30 25 11 65 29 90
40 28 12 53 33 69 57 41 63 56 216 26 273 -23 45 -83 100 -114 104 -74 11
-124 13 -164 5z"/>
<path d="M25733 10197 c-33 -19 -84 -89 -81 -111 2 -16 12 -22 36 -24 18 -2
36 -10 39 -18 9 -23 37 -16 71 19 43 44 43 86 1 121 -35 29 -36 30 -66 13z"/>
<path d="M29314 9861 c-56 -34 -89 -115 -65 -160 24 -44 81 -8 96 59 4 17 11
32 16 35 14 9 11 61 -4 73 -10 8 -21 6 -43 -7z"/>
<path d="M20018 11559 c-9 -6 -10 -11 -3 -18 7 -7 35 -7 85 0 41 5 85 9 98 9
12 0 22 5 22 10 0 11 -184 10 -202 -1z"/>
<path d="M19550 11548 c-21 -10 -22 -12 -7 -15 10 -3 30 -2 45 2 20 5 23 8 11
16 -17 11 -18 11 -49 -3z"/>
<path d="M19377 11544 c-4 -4 -7 -11 -7 -16 0 -13 50 -6 53 7 2 12 -36 19 -46
9z"/>
<path d="M23004 10793 c-21 -49 -6 -88 31 -79 14 3 37 9 51 12 36 9 145 -24
269 -81 39 -18 106 -47 150 -65 87 -37 137 -66 173 -99 35 -34 31 -103 -10
-166 -18 -28 -40 -63 -48 -79 -27 -53 -133 -152 -277 -257 -408 -300 -450
-332 -541 -410 -100 -85 -146 -179 -88 -179 17 0 35 14 62 50 20 27 43 51 49
54 7 2 76 53 155 113 158 120 212 159 297 218 200 138 349 277 426 398 136
214 101 294 -188 432 -204 98 -411 175 -468 175 -23 0 -31 -7 -43 -37z"/>
<path d="M22452 10480 c-53 -22 -30 -70 32 -70 17 0 67 -10 111 -21 44 -12
103 -25 130 -29 28 -4 86 -18 130 -30 44 -12 114 -27 155 -32 70 -8 76 -7 93
13 22 28 8 46 -42 54 -44 8 -210 45 -396 91 -146 36 -175 39 -213 24z"/>
<path d="M22158 10175 c-19 -42 7 -58 96 -61 40 -1 82 -5 92 -8 94 -29 637
-49 662 -24 15 15 16 55 1 64 -7 4 -107 8 -223 10 -151 2 -249 8 -346 23 -74
12 -165 21 -203 21 -63 0 -68 -2 -79 -25z"/>
<path d="M12016 9453 c-6 -6 -341 -16 -531 -15 -223 2 -1142 -1 -1255 -3 -599
-12 -777 -17 -790 -22 -8 -3 -134 -10 -280 -15 -370 -14 -381 -14 -515 -27
-209 -20 -326 -23 -900 -27 -308 -2 -569 -4 -580 -5 -11 -1 -33 -1 -50 1 -16
1 -91 -1 -165 -5 -81 -4 -165 -3 -210 4 -41 6 -111 13 -155 16 -44 3 -127 11
-185 19 -58 8 -114 14 -125 14 -89 0 -441 14 -446 18 -16 10 -513 13 -664 4
-88 -5 -266 -12 -395 -15 -129 -3 -242 -8 -250 -10 -8 -3 -55 0 -105 5 -277
30 -751 45 -987 31 -139 -8 -176 -8 -215 4 -75 23 -92 20 -109 -20 -7 -19 -14
-56 -14 -82 0 -25 -6 -74 -14 -107 -53 -224 -86 -445 -86 -581 0 -82 -25 -272
-50 -385 -39 -171 -45 -516 -19 -1155 7 -177 7 -320 1 -415 -9 -133 -2 -400
13 -489 17 -112 28 -627 15 -731 -5 -41 -12 -196 -14 -345 -3 -148 -11 -369
-19 -490 -8 -121 -14 -233 -14 -250 1 -71 -15 -274 -24 -321 -5 -28 -12 -101
-14 -161 -2 -60 -6 -124 -9 -143 -5 -34 -19 -379 -17 -432 1 -15 -6 -70 -14
-124 -10 -59 -17 -185 -20 -321 l-4 -223 27 -18 c21 -14 50 -17 157 -17 71 -1
162 3 200 7 39 3 151 9 250 13 99 3 236 10 305 15 69 5 176 9 238 9 62 0 116
2 121 5 23 15 999 22 2091 16 297 -1 505 2 574 10 60 6 132 8 160 5 28 -4 109
1 181 10 72 9 157 15 190 14 33 0 130 4 215 11 85 7 252 13 370 15 118 2 339
6 490 9 754 16 876 18 1020 18 85 0 202 -2 260 -5 58 -3 145 -2 195 2 49 4
116 3 150 -1 75 -9 508 -22 710 -20 458 3 855 21 1031 48 54 8 57 20 45 149
-6 63 -8 121 -6 128 2 6 6 95 9 197 4 102 10 230 15 285 5 54 8 102 6 106 -3
3 0 33 5 65 5 32 12 176 16 319 4 143 8 276 9 295 30 394 36 537 40 915 3 242
9 478 15 525 19 153 49 491 65 715 9 121 25 292 36 380 29 224 36 310 53 640
28 546 36 770 41 1155 3 212 8 469 10 572 5 185 5 187 -17 202 -24 17 -50 21
-62 9z m-591 -95 c110 -2 284 0 388 4 231 9 218 18 206 -152 -5 -63 -8 -180
-8 -260 0 -80 -2 -255 -5 -390 -2 -135 -5 -306 -6 -380 0 -74 -5 -178 -10
-230 -5 -52 -15 -228 -21 -390 -6 -162 -12 -311 -13 -330 -9 -104 -19 -195
-32 -275 -7 -49 -23 -209 -34 -355 -11 -146 -25 -321 -31 -390 -6 -69 -12
-143 -14 -165 -1 -22 -7 -80 -13 -130 -22 -173 -32 -372 -32 -595 0 -124 -2
-286 -5 -360 -10 -310 -16 -474 -20 -480 -2 -3 -6 -66 -9 -140 -4 -74 -11
-211 -17 -304 -5 -92 -10 -187 -9 -210 0 -22 -4 -102 -9 -176 -29 -438 -34
-610 -21 -679 15 -79 10 -99 -22 -105 -54 -10 -245 -27 -398 -36 -204 -11
-1144 -5 -1260 8 -119 13 -1047 6 -1785 -13 -121 -3 -350 -8 -509 -11 -159 -3
-292 -7 -295 -9 -4 -2 -67 -6 -141 -9 -74 -4 -169 -11 -210 -16 -176 -22 -835
-29 -1775 -19 -310 3 -880 -5 -1075 -16 -52 -2 -176 -7 -275 -11 -99 -3 -187
-7 -196 -10 -38 -11 -830 -37 -866 -29 -13 3 -29 18 -37 33 -12 24 -13 39 0
107 7 44 14 114 14 155 0 41 7 110 15 153 8 43 17 142 20 220 3 78 8 212 10
297 8 215 11 249 23 295 10 35 28 324 37 575 2 47 8 171 13 275 6 105 13 284
16 398 3 115 9 213 12 218 11 19 4 418 -12 634 -23 317 -27 494 -16 630 6 74
6 177 1 270 -9 157 -21 642 -21 855 0 166 13 289 71 630 10 63 20 158 20 210
2 133 42 398 72 477 5 13 9 45 10 71 0 26 6 70 13 97 l11 50 75 -4 c82 -5 72
-5 507 -3 167 1 336 -3 378 -9 41 -5 78 -8 83 -6 4 3 61 -1 127 -9 72 -9 164
-12 230 -9 61 3 200 8 310 11 272 8 377 12 533 20 80 4 196 2 295 -5 89 -7
268 -16 397 -21 204 -9 307 -17 570 -47 30 -3 152 -5 270 -4 118 1 481 3 805
6 629 4 701 6 865 25 58 6 150 13 205 16 55 2 156 6 225 10 69 3 177 7 240 9
63 2 165 8 226 14 76 7 136 8 189 1 42 -5 81 -8 85 -5 15 9 225 17 583 20 203
2 370 5 372 7 3 3 144 2 680 -4z"/>
<path d="M9690 8921 c-151 -49 -254 -117 -360 -238 -36 -40 -67 -79 -69 -86
-2 -6 -14 -28 -27 -48 -54 -87 -121 -285 -139 -412 -5 -39 -3 -53 11 -68 9
-10 23 -19 31 -19 16 0 33 40 33 80 0 59 66 274 113 370 33 68 122 176 185
226 167 131 442 198 442 108 0 -27 -64 -103 -102 -121 -13 -6 -54 -23 -93 -38
-38 -15 -90 -39 -115 -55 -25 -15 -58 -30 -73 -34 -65 -15 -56 -92 17 -148 22
-17 57 -46 76 -65 38 -35 112 -84 195 -129 84 -45 195 -124 195 -138 0 -43
-128 -76 -320 -83 -133 -5 -172 -2 -272 23 -44 10 -78 -3 -78 -29 0 -41 38
-64 120 -73 127 -15 332 -7 418 15 43 10 103 24 134 31 39 7 67 21 88 40 l31
29 -18 32 c-34 60 -124 132 -305 243 -71 44 -209 145 -220 161 -19 26 -5 43
60 75 37 18 83 38 102 45 117 42 191 100 229 179 20 40 21 49 9 73 -7 15 -28
38 -47 50 -29 19 -47 23 -115 22 -50 0 -102 -7 -136 -18z"/>
<path d="M5731 8708 c-11 -12 -26 -37 -32 -57 -6 -20 -21 -49 -34 -66 -30 -41
-91 -154 -100 -185 -10 -33 -66 -108 -86 -115 -9 -3 -20 -21 -23 -40 -8 -40
-103 -228 -146 -287 -32 -44 -37 -67 -18 -86 23 -23 47 -12 78 33 34 49 100
188 100 209 0 7 14 34 32 60 25 39 44 54 96 77 35 16 74 29 86 29 13 0 44 6
70 14 74 23 71 26 130 -159 14 -44 28 -100 32 -125 8 -55 19 -76 44 -90 34
-18 52 -2 47 44 -5 48 -46 188 -76 265 -25 63 -21 99 12 105 12 3 60 7 107 11
85 6 185 29 195 45 3 5 -2 15 -10 24 -19 18 -145 14 -232 -9 -108 -28 -120
-21 -134 82 -23 175 -23 175 -51 216 -24 33 -59 35 -87 5z m46 -110 c5 -7 18
-50 28 -96 28 -127 19 -139 -110 -161 -55 -10 -95 0 -95 24 0 8 13 34 30 56
16 23 39 67 50 98 12 31 29 64 37 74 19 20 47 22 60 5z"/>
<path d="M8957 7614 c-2 -3 -58 -5 -123 -5 -124 -1 -264 -16 -374 -42 -36 -8
-99 -23 -140 -32 -41 -10 -97 -26 -125 -37 -27 -11 -86 -31 -130 -45 -44 -14
-114 -43 -156 -64 -41 -22 -79 -39 -84 -39 -13 0 -167 -91 -214 -127 -52 -39
-114 -45 -165 -14 -17 11 -53 26 -81 34 -48 14 -274 127 -305 152 -45 36 -122
69 -219 94 -72 18 -126 39 -157 60 -47 31 -51 32 -124 25 -45 -3 -146 1 -255
11 -211 19 -419 16 -580 -9 -195 -30 -289 -47 -345 -63 -78 -23 -250 -92 -282
-115 -15 -10 -42 -25 -60 -34 -30 -14 -82 -44 -169 -101 -62 -40 -172 -127
-248 -197 -177 -162 -300 -323 -402 -528 -34 -68 -66 -132 -71 -143 -54 -102
-93 -188 -105 -230 -8 -27 -25 -92 -38 -143 -14 -51 -28 -100 -33 -110 -17
-31 -35 -274 -33 -447 0 -143 4 -186 25 -270 26 -109 56 -197 86 -261 11 -22
20 -45 20 -51 0 -27 48 -124 87 -175 29 -39 43 -66 43 -88 0 -44 26 -89 56
-96 18 -5 33 -23 54 -63 15 -31 56 -83 89 -116 34 -33 61 -66 61 -73 0 -8 -18
-37 -40 -64 -46 -58 -50 -84 -16 -99 32 -15 64 3 78 43 21 59 71 53 138 -17
19 -21 51 -48 70 -61 19 -13 53 -36 75 -52 41 -29 123 -74 206 -113 32 -14 51
-32 63 -55 15 -33 18 -34 66 -33 39 2 57 -3 88 -25 52 -36 276 -112 415 -142
39 -8 101 -23 137 -33 193 -55 760 -60 960 -8 30 8 89 20 130 27 91 15 289 79
350 114 43 25 68 37 155 76 137 62 215 102 250 130 22 17 54 42 70 55 17 13
48 38 69 55 54 42 83 48 126 23 175 -100 234 -128 351 -167 74 -24 154 -47
179 -51 25 -3 65 -12 90 -20 25 -8 108 -18 185 -24 192 -13 210 -13 279 0 34
6 77 13 96 14 19 2 69 6 110 10 41 4 118 18 170 32 52 14 114 29 138 34 59 12
315 127 412 186 44 26 90 53 102 60 52 28 308 274 308 295 0 10 78 126 90 133
15 9 119 172 158 247 21 40 58 106 81 147 101 175 151 308 206 552 20 88 25
139 25 238 0 144 -8 201 -54 396 -19 77 -37 158 -41 180 -21 121 -193 525
-253 595 -7 8 -34 49 -61 90 -74 115 -163 222 -212 255 -24 16 -46 32 -49 35
-30 30 -255 155 -313 174 -39 13 -87 23 -292 61 -149 27 -584 63 -598 49z
m-2712 -95 c172 -11 181 -12 201 -36 21 -24 21 -24 76 -9 74 22 94 19 306 -50
23 -8 48 -14 56 -14 16 0 125 -58 151 -80 11 -10 38 -23 60 -30 82 -26 239
-124 307 -192 29 -29 23 -90 -14 -156 -18 -31 -42 -65 -55 -75 -12 -10 -25
-27 -28 -38 -4 -11 -24 -36 -45 -55 -21 -19 -43 -47 -50 -63 -6 -16 -34 -43
-61 -61 -34 -22 -47 -36 -40 -43 6 -6 5 -17 -4 -31 -7 -11 -16 -37 -20 -56 -3
-19 -21 -66 -39 -105 -19 -38 -46 -111 -60 -161 -36 -123 -79 -234 -112 -286
-47 -73 -93 -185 -100 -240 -4 -29 -13 -66 -21 -81 -13 -25 -12 -37 2 -93 9
-35 15 -74 13 -86 -4 -35 13 -158 27 -203 7 -22 16 -56 20 -75 24 -124 108
-302 201 -425 67 -88 50 -70 200 -211 226 -211 338 -304 424 -350 91 -48 93
-69 13 -121 -32 -20 -67 -45 -78 -54 -22 -19 -119 -69 -290 -149 -60 -28 -117
-57 -125 -64 -17 -14 -154 -69 -215 -86 -22 -6 -74 -17 -115 -24 -41 -8 -129
-24 -195 -37 -103 -19 -155 -22 -365 -23 -270 -1 -404 11 -546 49 -49 14 -100
25 -112 25 -12 0 -39 6 -59 14 -21 7 -81 26 -133 41 -164 46 -270 96 -284 132
-5 13 65 94 90 104 5 2 40 38 78 79 38 41 99 107 135 145 36 39 94 107 128
150 34 44 87 107 118 140 58 61 68 72 209 230 161 178 486 511 606 621 77 70
160 170 160 192 0 34 -50 4 -148 -90 -196 -189 -437 -430 -452 -454 -9 -12
-74 -83 -146 -156 -155 -159 -290 -308 -437 -484 -109 -130 -208 -239 -224
-245 -12 -6 -98 -110 -112 -137 -49 -92 -98 -83 -316 57 -44 28 -93 59 -109
69 -15 9 -46 32 -68 50 -22 17 -44 32 -48 32 -4 0 -13 14 -19 32 -10 29 -9 34
16 60 14 15 34 30 43 33 9 3 41 36 71 73 30 37 79 95 109 129 30 34 73 84 95
110 22 26 58 63 80 82 22 20 58 56 80 80 22 24 73 70 113 103 39 33 72 64 72
69 0 5 44 51 97 102 53 51 113 110 132 131 20 21 42 44 50 50 7 6 49 46 93 89
44 43 113 104 153 137 39 32 99 85 131 118 32 32 81 74 109 93 27 19 59 45 71
59 12 14 68 61 124 105 57 44 135 108 174 141 39 34 86 71 104 82 19 11 59 43
90 71 83 74 124 106 152 121 48 25 147 110 183 156 20 26 53 58 72 71 38 26
51 62 16 43 -11 -5 -28 -21 -39 -35 -11 -14 -25 -25 -32 -25 -7 0 -60 -35
-117 -77 -58 -43 -125 -91 -148 -108 -46 -32 -87 -63 -176 -135 -31 -25 -78
-61 -104 -80 -26 -19 -59 -47 -74 -61 -31 -30 -203 -170 -310 -252 -42 -32
-89 -73 -106 -91 -25 -27 -135 -126 -237 -212 -14 -12 -27 -26 -29 -30 -2 -5
-31 -31 -64 -59 -33 -27 -164 -153 -291 -280 -127 -126 -268 -264 -313 -305
-77 -70 -167 -171 -236 -262 -27 -37 -110 -133 -171 -200 -43 -47 -63 -37
-147 73 -127 167 -131 181 -59 257 70 76 104 119 152 197 24 39 56 86 72 106
15 20 28 40 28 45 0 4 10 24 23 43 81 125 119 180 144 206 16 17 42 50 58 75
17 25 37 52 46 60 8 8 42 48 74 88 32 40 63 76 69 80 7 4 29 30 51 57 21 28
102 113 179 191 78 77 156 157 174 177 18 20 36 37 40 37 8 0 119 106 166 159
16 18 54 51 83 73 30 22 57 46 59 53 3 7 24 26 46 42 23 15 53 39 68 53 98 93
206 188 270 238 41 32 81 66 89 75 7 9 18 17 24 17 6 0 36 20 66 44 31 24 70
51 86 60 80 46 183 109 268 164 27 18 79 49 115 69 36 20 84 51 107 69 23 17
52 37 64 43 13 7 21 21 21 37 l0 24 -49 -25 c-27 -13 -52 -29 -56 -34 -3 -6
-38 -26 -78 -47 -39 -20 -83 -44 -97 -54 -14 -9 -47 -27 -75 -40 -27 -13 -57
-29 -65 -37 -25 -23 -180 -123 -204 -133 -13 -5 -48 -28 -77 -52 -30 -24 -70
-53 -89 -64 -19 -10 -58 -39 -85 -64 -78 -70 -171 -151 -270 -235 -49 -42 -97
-84 -105 -93 -8 -9 -31 -30 -50 -45 -154 -124 -643 -614 -779 -780 -152 -187
-209 -259 -231 -297 -11 -19 -43 -62 -71 -95 -28 -33 -59 -78 -70 -100 -10
-22 -71 -119 -136 -215 -105 -154 -122 -175 -146 -175 -24 0 -31 10 -71 95
-24 52 -56 129 -71 170 -14 41 -33 90 -41 108 -67 153 -89 405 -59 682 9 85
23 173 30 195 8 22 26 85 41 140 14 55 32 111 39 125 8 14 23 52 35 85 11 33
32 83 45 110 96 203 142 287 160 298 8 4 41 45 73 90 90 127 348 370 436 412
12 6 43 25 71 44 27 19 67 44 89 56 23 12 59 32 81 45 39 22 167 73 275 110
57 19 128 34 240 51 36 5 84 14 107 19 31 7 48 6 71 -5 32 -16 84 -10 167 20
22 8 49 13 60 10 11 -3 101 -10 200 -16z m2663 -2 c2 -11 -6 -30 -19 -43 -49
-52 3 -36 109 34 l53 35 182 -17 c396 -37 550 -71 731 -162 116 -58 266 -162
266 -184 0 -5 22 -32 49 -62 26 -29 72 -91 101 -138 29 -47 70 -111 91 -144
22 -32 39 -63 39 -69 0 -5 9 -28 19 -51 38 -81 51 -114 51 -128 0 -8 4 -18 9
-23 24 -26 85 -232 100 -342 5 -34 16 -83 24 -110 8 -26 21 -68 28 -93 19 -60
19 -375 1 -445 -7 -27 -17 -68 -21 -90 -15 -72 -43 -169 -56 -195 -26 -52
-125 -275 -125 -283 0 -4 -8 -20 -19 -35 -32 -47 -98 -155 -126 -207 -15 -27
-37 -61 -49 -75 -12 -14 -29 -35 -37 -47 -109 -165 -223 -300 -289 -342 -14
-9 -68 -46 -120 -82 -52 -37 -106 -70 -120 -74 -14 -4 -36 -16 -50 -25 -41
-29 -218 -104 -310 -133 -102 -31 -220 -53 -355 -68 -55 -5 -134 -14 -175 -19
-156 -19 -250 -10 -250 23 0 14 77 77 93 77 13 0 113 75 151 113 16 16 44 39
61 50 61 41 140 110 256 221 65 62 143 134 175 161 33 27 88 76 124 109 36 34
92 81 124 106 33 25 80 63 105 86 25 22 77 62 114 90 37 27 99 72 136 99 76
55 172 132 229 183 21 18 70 48 110 68 65 32 72 38 72 64 0 39 -26 52 -67 35
-30 -13 -76 -47 -208 -155 -73 -60 -100 -81 -232 -178 -243 -179 -602 -485
-713 -608 -41 -45 -132 -124 -205 -179 -27 -21 -61 -48 -75 -62 -28 -27 -136
-116 -186 -153 -19 -14 -36 -32 -39 -40 -3 -9 -35 -33 -71 -54 -58 -34 -71
-38 -112 -33 -47 6 -146 33 -294 81 -83 27 -282 119 -310 144 -18 15 -25 52
-10 52 29 0 283 267 367 387 17 24 42 60 57 80 40 55 122 228 143 301 16 55
27 71 85 125 45 42 82 68 118 80 28 10 71 34 95 55 25 20 84 69 132 107 49 39
120 97 159 130 39 33 91 73 116 89 25 16 65 46 90 66 25 20 63 48 85 61 22 13
68 46 101 74 34 27 92 73 128 100 37 28 85 65 108 83 22 17 44 32 48 32 5 0
40 27 77 60 37 34 86 73 108 88 22 15 67 49 100 75 180 145 196 156 233 162
76 13 123 55 103 93 -18 34 -41 34 -105 2 -63 -33 -132 -82 -258 -185 -195
-160 -577 -449 -716 -542 -53 -35 -132 -95 -176 -132 -45 -38 -121 -104 -171
-146 -49 -42 -110 -91 -135 -107 -25 -17 -49 -36 -55 -42 -5 -6 -30 -27 -55
-45 -25 -19 -55 -45 -68 -58 -25 -25 -61 -30 -80 -11 -17 17 -15 35 12 92 41
88 75 246 81 374 4 72 11 125 19 137 8 12 42 36 77 54 66 34 120 73 274 199
50 41 107 88 129 105 21 18 50 43 65 56 14 13 42 35 61 50 19 14 64 50 100 80
68 57 73 61 160 138 114 100 204 162 370 251 36 20 89 53 118 74 28 21 78 48
110 60 75 28 84 36 80 72 -5 49 -47 47 -127 -6 -35 -24 -85 -56 -110 -72 -25
-16 -69 -44 -98 -63 -28 -18 -54 -33 -57 -33 -4 0 -42 -24 -84 -53 -124 -85
-145 -100 -188 -137 -23 -19 -53 -44 -67 -55 -15 -11 -46 -37 -69 -58 -46 -41
-154 -132 -219 -184 -22 -18 -104 -86 -182 -151 -78 -65 -170 -139 -204 -165
-34 -26 -66 -53 -70 -60 -4 -7 -21 -19 -36 -27 -37 -18 -59 -5 -69 41 -4 19
-17 79 -28 134 -45 218 -71 286 -140 380 -21 27 -45 64 -53 80 -14 28 -42 62
-185 224 -67 75 -81 98 -82 128 0 21 -4 22 -42 17 -36 -5 -49 -1 -78 20 -76
57 -159 114 -242 166 -86 54 -116 85 -105 113 3 8 54 38 114 67 59 28 125 61
146 72 20 11 50 23 65 28 15 5 63 23 107 40 158 61 281 99 340 105 17 2 62 10
100 18 175 38 227 45 330 43 69 -1 80 -3 83 -19z m-1277 -469 c31 -29 92 -77
135 -106 43 -29 100 -67 127 -85 146 -98 193 -136 245 -197 181 -214 278 -370
306 -495 11 -44 25 -99 33 -123 35 -111 53 -225 52 -329 0 -114 -6 -152 -38
-273 -11 -41 -24 -104 -27 -140 -8 -80 -37 -172 -71 -225 -19 -28 -27 -54 -28
-91 -1 -31 -9 -64 -22 -85 -11 -19 -24 -45 -28 -59 -8 -28 -59 -114 -86 -145
-9 -11 -25 -34 -36 -51 -35 -61 -351 -415 -388 -436 -46 -27 -236 114 -553
411 -117 109 -149 149 -261 326 -53 83 -81 150 -97 235 -8 45 -19 92 -24 105
-5 14 -18 79 -29 146 -36 215 -11 339 107 539 21 36 48 97 61 135 12 39 31 97
42 130 10 33 19 69 19 80 1 11 9 38 20 60 11 22 19 44 20 48 0 15 40 96 50
102 5 3 17 21 26 40 17 37 71 95 88 95 22 0 46 35 46 67 0 38 81 218 102 225
7 3 27 -2 45 -10 57 -27 84 21 43 77 -17 22 -19 32 -11 54 9 22 17 27 44 27
26 0 44 -11 88 -52z"/>
<path d="M5665 7392 c-11 -11 -39 -24 -63 -31 -69 -19 -345 -159 -403 -203
-20 -16 -41 -28 -46 -28 -13 0 -109 -66 -143 -97 -14 -14 -38 -31 -55 -40 -29
-16 -74 -53 -248 -208 -49 -44 -104 -91 -121 -105 -49 -38 -262 -253 -268
-271 -3 -8 2 -26 12 -39 18 -24 18 -24 41 -5 12 11 36 40 53 65 17 26 81 91
141 145 61 55 124 116 140 137 17 20 49 48 71 63 23 14 54 40 70 56 16 16 40
35 54 42 14 7 72 51 130 98 111 90 189 142 230 154 14 4 44 25 67 46 24 22 52
39 63 39 28 0 189 84 226 118 17 16 35 27 40 25 6 -2 23 10 39 27 26 27 27 30
9 30 -11 0 -28 -8 -39 -18z"/>
<path d="M6279 7358 c-36 -24 -76 -49 -91 -57 -14 -7 -35 -26 -47 -42 -12 -16
-40 -38 -64 -50 -23 -12 -58 -36 -77 -55 -19 -18 -66 -50 -104 -70 -79 -41
-128 -77 -257 -184 -49 -41 -107 -88 -127 -103 -49 -37 -117 -97 -205 -178
-40 -37 -97 -86 -127 -110 -82 -65 -100 -80 -149 -129 -25 -25 -57 -52 -71
-61 -14 -9 -45 -43 -70 -74 -54 -68 -160 -184 -214 -234 -22 -20 -51 -49 -65
-65 -14 -16 -47 -54 -73 -83 -27 -29 -48 -57 -48 -61 0 -4 -15 -23 -33 -42
-17 -20 -44 -54 -58 -75 -26 -39 -96 -120 -211 -243 -47 -50 -59 -69 -56 -90
5 -46 44 -42 90 10 22 23 45 55 53 69 14 26 36 53 135 165 30 34 73 88 95 119
38 54 68 89 255 289 42 45 100 110 129 146 30 36 61 70 69 77 8 6 58 54 111
105 53 51 123 111 154 133 31 22 60 48 63 58 3 9 9 17 14 17 5 0 48 36 94 80
47 44 89 80 93 80 4 0 28 19 53 41 25 23 62 53 83 67 20 13 37 28 37 32 0 15
53 60 138 116 48 32 104 74 125 92 21 18 58 42 82 52 23 10 67 41 96 69 29 28
59 51 66 51 19 0 193 150 193 166 0 22 -12 17 -81 -28z"/>
<path d="M6732 4897 c-18 -18 -32 -37 -32 -41 0 -8 -24 -37 -108 -132 -31 -35
-173 -184 -429 -450 -335 -349 -331 -345 -313 -380 19 -34 48 -28 74 17 22 37
61 81 234 258 57 58 124 131 150 161 25 30 107 116 182 190 74 74 151 156 170
182 19 26 57 75 83 109 35 44 47 68 45 87 -4 37 -19 37 -56 -1z"/>
<path d="M7078 4483 c-9 -10 -28 -45 -44 -78 -28 -60 -80 -133 -165 -228 -25
-29 -48 -58 -50 -64 -2 -7 -37 -46 -78 -88 -64 -65 -74 -79 -75 -112 -1 -34 2
-38 25 -41 21 -2 32 6 62 50 48 69 113 155 157 206 60 71 90 110 90 116 0 3
20 32 44 63 57 76 63 90 67 142 4 49 -9 62 -33 34z"/>
<path d="M8815 7420 c-16 -10 -48 -33 -70 -50 -22 -16 -53 -38 -69 -48 -180
-110 -319 -210 -362 -260 -11 -14 -45 -39 -75 -56 -46 -28 -115 -103 -104
-115 9 -9 101 48 124 76 14 18 30 33 35 33 14 0 196 123 196 132 0 5 8 11 18
15 9 3 33 19 53 35 20 15 39 28 41 28 13 0 141 91 192 136 42 38 57 58 54 73
-3 21 -3 21 -33 1z"/>
<path d="M9583 7320 c-18 -11 -33 -24 -33 -29 0 -8 -124 -102 -281 -214 -37
-26 -84 -64 -105 -85 -22 -21 -91 -81 -154 -134 -63 -53 -135 -115 -160 -138
-25 -22 -74 -62 -109 -88 -76 -55 -141 -120 -141 -139 0 -43 59 -15 170 79 35
29 91 75 124 103 34 27 62 53 64 57 2 3 36 33 75 65 40 32 97 81 127 110 30
28 75 67 99 85 24 18 62 48 85 65 22 18 55 39 71 46 17 8 53 33 80 56 28 23
71 53 96 67 58 32 78 68 53 95 -21 23 -22 23 -61 -1z"/>
<path d="M10395 6026 c-22 -6 -59 -21 -82 -33 -73 -40 -277 -165 -308 -190
-49 -39 -183 -145 -244 -191 -31 -24 -80 -62 -110 -85 -29 -23 -75 -58 -101
-77 -88 -65 -258 -199 -265 -210 -3 -5 -36 -30 -73 -55 -37 -25 -92 -65 -122
-90 -30 -24 -69 -56 -86 -70 -18 -14 -35 -25 -38 -25 -7 0 -75 -47 -181 -122
-22 -16 -71 -50 -110 -75 -38 -26 -72 -50 -75 -54 -3 -4 -50 -41 -105 -82
-145 -109 -178 -138 -166 -150 18 -18 97 14 165 67 37 28 92 69 123 91 31 22
77 57 102 78 25 20 50 37 55 37 5 0 24 11 42 25 18 14 70 49 116 79 89 59 173
121 269 201 34 28 82 65 107 83 26 18 72 53 102 77 30 25 104 80 164 122 59
43 145 110 190 149 107 93 309 243 388 289 35 20 84 49 109 65 25 15 90 42
143 60 82 28 96 35 96 54 0 45 -30 54 -105 32z"/>
<path d="M10375 5118 c-11 -6 -85 -77 -165 -158 -140 -141 -241 -229 -325
-282 -59 -37 -315 -267 -390 -350 -17 -18 -79 -79 -138 -136 -59 -56 -107
-107 -107 -113 0 -16 30 -22 53 -11 28 13 130 105 328 294 169 161 197 185
344 292 55 40 169 142 254 225 85 84 163 157 173 162 23 13 34 55 18 74 -15
18 -19 18 -45 3z"/>
<path d="M17772 8755 c-17 -14 -44 -58 -65 -107 -56 -133 -107 -262 -107 -273
0 -18 -60 -85 -91 -100 -25 -13 -29 -21 -29 -58 0 -31 -10 -58 -36 -102 -50
-82 -114 -214 -114 -235 0 -23 36 -54 54 -47 9 4 18 18 22 31 3 14 30 81 60
148 44 103 59 127 88 146 25 15 36 30 36 46 0 41 44 67 157 91 34 8 83 25 110
39 58 31 67 32 91 6 14 -15 21 -42 25 -99 9 -112 34 -156 66 -117 8 10 8 39
-1 114 -9 78 -9 107 0 127 15 33 69 56 113 49 26 -5 39 -1 53 15 18 20 18 20
-7 26 -14 4 -35 1 -48 -5 -12 -7 -49 -13 -82 -14 -68 0 -87 15 -87 71 0 56
-59 193 -100 236 -44 43 -68 46 -108 12z m77 -94 c17 -17 60 -133 75 -202 7
-31 -22 -66 -62 -74 -15 -3 -53 -12 -84 -20 -67 -17 -124 -19 -133 -5 -3 5 5
25 18 42 27 38 71 127 86 178 16 50 48 100 66 100 8 0 23 -8 34 -19z"/>
<path d="M19300 8740 c-86 -22 -116 -39 -172 -97 -49 -50 -83 -116 -111 -218
-14 -52 -50 -183 -102 -372 -8 -29 -16 -72 -17 -95 -3 -40 -1 -43 22 -43 30 0
43 32 93 230 62 245 98 369 113 393 33 51 94 101 148 121 76 28 182 29 235 1
41 -20 81 -74 81 -106 0 -80 -64 -166 -140 -188 -68 -20 -90 -34 -90 -55 0
-26 14 -35 114 -70 105 -36 130 -51 157 -94 23 -37 20 -77 -10 -141 -31 -62
-67 -94 -182 -160 -88 -50 -112 -59 -166 -64 -78 -6 -99 -25 -63 -54 97 -79
440 112 494 274 25 77 19 168 -14 203 -13 14 -42 30 -64 36 -101 28 -141 69
-95 99 85 55 129 127 129 211 0 100 -83 182 -197 195 -27 3 -59 6 -73 8 -14 2
-54 -4 -90 -14z"/>
<path d="M23203 8591 c-112 -39 -165 -91 -241 -237 -62 -118 -89 -184 -153
-369 -23 -66 -52 -147 -65 -180 -14 -34 -24 -81 -24 -107 0 -41 3 -48 20 -48
23 0 45 38 53 93 3 21 15 57 25 80 11 23 22 51 25 62 3 11 19 58 36 105 17 47
30 91 31 99 0 8 23 62 52 120 28 58 61 125 72 149 35 72 104 133 166 150 127
33 249 24 296 -23 37 -38 31 -59 -37 -113 -46 -37 -78 -54 -137 -71 -42 -12
-99 -29 -126 -36 -95 -28 -99 -54 -17 -119 101 -79 190 -199 191 -258 0 -32
-49 -74 -138 -117 -102 -48 -183 -70 -260 -71 -40 0 -54 -4 -59 -17 -17 -45
102 -72 167 -38 16 8 60 22 97 31 70 16 180 69 221 107 92 85 53 227 -93 339
-79 62 -74 85 25 108 190 43 303 156 254 252 -43 86 -108 119 -239 124 -69 3
-102 0 -142 -15z"/>
<path d="M21641 8406 c-17 -29 -31 -56 -31 -60 0 -3 -18 -45 -41 -93 -49 -105
-69 -153 -104 -259 -14 -43 -32 -89 -40 -100 -28 -44 -70 -222 -61 -258 13
-53 48 -27 71 51 8 28 24 61 34 74 10 14 21 35 23 48 5 38 46 60 148 79 52 10
115 28 139 40 91 44 106 25 116 -143 4 -66 12 -130 19 -144 l13 -24 23 23 c23
23 23 26 17 175 -6 128 -4 155 8 165 25 21 17 36 -22 46 -38 9 -38 9 -63 104
-42 154 -71 217 -124 276 -64 72 -84 72 -125 0z m99 -88 c21 -35 100 -272 100
-300 0 -22 -30 -38 -69 -38 -17 0 -69 -9 -116 -20 -93 -22 -131 -25 -139 -12
-6 9 26 100 50 142 7 14 30 66 50 115 51 127 62 145 84 145 12 0 28 -13 40
-32z"/>
<path d="M25812 8417 c-15 -16 -28 -53 -42 -127 -11 -58 -26 -118 -32 -134
-13 -33 -62 -66 -97 -66 -31 0 -103 -34 -126 -60 -12 -13 -15 -27 -11 -45 8
-32 34 -32 65 1 13 14 42 34 63 45 33 17 42 18 55 7 13 -10 14 -29 9 -113 -7
-114 1 -140 33 -111 30 28 43 78 36 139 -13 106 40 157 166 157 61 0 79 4 93
19 9 10 14 25 10 35 -8 21 -81 22 -129 2 -40 -17 -88 -8 -93 17 -2 9 11 53 28
98 39 101 44 153 15 157 -12 2 -30 -7 -43 -21z"/>
<path d="M22371 8154 c-24 -31 -26 -44 -8 -68 20 -27 75 -18 100 16 17 23 19
31 9 53 -17 36 -72 35 -101 -1z"/>
<path d="M25369 7280 c-47 -12 -183 -103 -214 -144 -76 -100 -74 -234 5 -342
60 -80 109 -109 227 -133 164 -35 320 25 379 145 23 47 26 63 22 131 -4 68 -9
86 -42 143 -51 87 -99 136 -167 170 -62 32 -152 45 -210 30z m222 -118 c36
-25 67 -59 94 -102 37 -60 40 -70 39 -132 -2 -103 -40 -151 -144 -182 -76 -23
-177 -21 -244 5 -91 34 -166 140 -166 233 0 34 31 109 50 121 6 4 17 2 23 -4
17 -17 23 -14 46 24 33 57 73 75 167 75 77 0 83 -2 135 -38z"/>
<path d="M17605 7186 c-121 -51 -221 -211 -201 -321 9 -44 56 -99 110 -128 58
-30 192 -31 256 -1 74 34 186 140 220 209 37 73 37 106 5 162 -41 68 -104 96
-230 100 -88 3 -107 1 -160 -21z m214 -46 c68 -9 100 -31 128 -83 18 -36 4
-83 -43 -145 -57 -75 -129 -118 -217 -128 -99 -12 -166 17 -202 87 -14 25 -13
33 6 84 26 69 94 145 130 145 14 0 45 11 69 24 54 28 50 28 129 16z"/>
<path d="M21944 7041 c-98 -50 -137 -94 -168 -191 -31 -95 -5 -223 56 -275 53
-46 90 -65 163 -84 73 -19 82 -19 139 -4 78 20 105 34 194 100 86 64 126 122
140 202 17 97 -10 168 -81 214 -50 33 -107 41 -220 33 -79 -5 -92 -4 -114 14
-32 25 -45 24 -109 -9z m413 -116 c39 -41 43 -50 43 -96 0 -96 -57 -168 -193
-243 -63 -35 -166 -36 -247 -3 -62 25 -120 91 -120 135 0 38 37 132 63 160 32
35 111 72 154 73 21 0 47 4 58 9 11 5 60 9 109 9 l89 1 44 -45z"/>
<path d="M19253 7035 c-90 -25 -163 -78 -188 -138 -26 -63 -20 -145 18 -218
39 -77 69 -99 177 -128 210 -57 300 -51 460 29 41 20 86 40 100 43 34 8 80 81
80 127 0 49 -35 148 -63 178 -12 13 -58 41 -102 63 -89 43 -139 49 -198 24
-54 -22 -115 -19 -162 10 -46 28 -51 29 -122 10z m142 -90 c0 -27 3 -30 40
-35 36 -4 42 -10 61 -50 43 -92 78 -85 56 11 -19 82 1 100 98 88 78 -9 115
-37 151 -113 38 -79 37 -105 -3 -142 -47 -43 -81 -62 -151 -85 -114 -38 -240
-35 -377 7 -115 36 -178 161 -128 256 20 41 155 99 218 95 32 -2 35 -5 35 -32z"/>
<path d="M25366 6280 c-29 -35 -37 -85 -38 -240 -2 -143 13 -369 24 -377 15
-9 34 18 51 73 14 42 15 66 7 135 -14 116 -12 230 5 322 7 44 11 85 9 92 -10
26 -33 24 -58 -5z"/>
<path d="M21940 6001 c-50 -16 -87 -40 -160 -106 -126 -113 -142 -153 -99
-242 23 -47 101 -107 154 -118 17 -3 49 -11 73 -17 77 -20 235 25 316 89 69
55 91 99 91 185 0 59 -3 70 -31 104 -16 21 -41 46 -55 56 -46 34 -236 66 -289
49z m250 -109 c63 -56 75 -147 26 -201 -58 -64 -210 -109 -307 -91 -111 21
-141 41 -169 115 -10 26 -6 31 57 94 67 66 116 91 181 91 11 0 26 7 33 17 8 9
27 24 43 34 27 16 29 16 62 -3 18 -10 51 -36 74 -56z"/>
<path d="M17653 5955 c-18 -8 -53 -34 -78 -59 -26 -26 -59 -47 -78 -51 -63
-13 -143 -56 -160 -85 -20 -34 -22 -79 -3 -123 20 -49 222 -177 278 -177 38 1
218 48 236 62 95 73 132 183 90 264 -26 49 -99 115 -154 139 -28 13 -55 28
-58 34 -9 15 -34 13 -73 -4z m118 -57 c22 -18 71 -86 98 -136 44 -81 14 -142
-94 -193 -78 -37 -174 -40 -238 -8 -91 47 -154 117 -140 156 11 31 46 53 89
53 47 0 63 11 97 66 19 31 36 44 74 57 59 19 94 21 114 5z"/>
<path d="M19360 5878 c-11 -18 -20 -36 -20 -40 0 -4 -9 -71 -21 -150 -26 -175
-29 -393 -6 -416 34 -33 53 20 62 178 3 58 13 150 21 205 24 159 28 210 15
233 -16 30 -28 28 -51 -10z"/>
<path d="M25238 5208 c-10 -18 -12 -83 -10 -273 2 -137 5 -258 8 -267 9 -30
34 -20 52 20 14 31 17 74 17 252 1 118 5 223 9 232 21 47 -50 80 -76 36z"/>
<path d="M21838 5066 c-103 -24 -161 -57 -185 -107 -83 -173 -95 -203 -100
-252 -7 -66 13 -114 72 -172 56 -56 127 -80 211 -71 76 8 93 15 201 79 122 73
185 141 202 218 23 96 8 159 -52 223 -36 38 -56 50 -134 76 -50 16 -98 30
-105 29 -7 0 -57 -11 -110 -23z m190 -66 c72 -16 133 -80 143 -152 10 -79 -22
-140 -103 -201 -163 -121 -313 -140 -399 -51 -29 30 -32 39 -33 96 -1 79 23
131 105 224 46 53 70 72 102 81 54 15 123 16 185 3z"/>
<path d="M17557 5053 c-44 -49 -74 -369 -46 -493 13 -61 31 -82 50 -63 5 5 11
85 14 179 2 93 9 189 15 214 6 25 15 65 19 90 14 75 -14 114 -52 73z"/>
<path d="M19400 4943 c-8 -3 -26 -14 -39 -24 -13 -11 -34 -19 -47 -19 -37 0
-139 -102 -173 -174 -31 -65 -51 -145 -51 -203 0 -50 53 -138 101 -169 101
-64 281 1 416 150 72 81 103 168 88 255 -9 52 -71 129 -127 158 -46 24 -139
39 -168 26z m132 -89 c61 -30 98 -74 98 -115 0 -89 -85 -223 -175 -278 -118
-72 -186 -79 -243 -27 -37 34 -37 35 -37 113 0 113 26 169 121 262 l75 74 64
-6 c35 -3 79 -14 97 -23z"/>
<path d="M19392 4268 c-21 -27 -40 -76 -55 -143 -9 -38 -35 -149 -57 -245 -52
-219 -72 -361 -68 -481 3 -82 5 -94 22 -97 10 -2 22 0 28 6 10 10 38 204 38
269 0 47 16 132 65 338 67 283 74 320 69 343 -7 24 -26 29 -42 10z"/>
<path d="M21722 4124 c-36 -25 -50 -64 -63 -178 -9 -84 -9 -139 0 -252 16
-194 37 -325 52 -335 17 -10 46 6 54 31 7 21 -7 184 -26 318 -12 82 -5 206 18
302 16 70 15 121 -2 127 -6 2 -20 -4 -33 -13z"/>
<path d="M25161 4109 c-29 -31 -42 -111 -43 -252 -1 -144 13 -270 48 -427 34
-152 44 -169 78 -135 21 22 20 60 -4 148 -10 40 -22 104 -25 143 -3 38 -11
117 -17 176 -9 91 -8 124 7 221 10 63 15 122 12 131 -9 22 -32 20 -56 -5z"/>
<path d="M17571 3924 c-12 -15 -21 -37 -21 -49 0 -12 -13 -67 -29 -121 -63
-214 -72 -394 -25 -521 28 -78 83 -63 65 18 -20 92 -22 193 -7 289 20 121 41
218 66 299 24 76 24 76 4 95 -21 22 -29 20 -53 -10z"/>
<path d="M25539 2791 c-25 -16 -56 -44 -68 -64 -27 -44 -35 -47 -129 -47 -65
0 -153 -15 -344 -56 -26 -6 -27 -5 -21 30 4 29 2 36 -10 36 -44 0 -109 -108
-153 -250 -28 -89 -42 -121 -65 -141 -34 -30 -37 -49 -10 -73 11 -10 20 -35
23 -65 7 -74 43 -138 96 -172 42 -27 54 -29 139 -29 148 0 277 50 353 137 32
37 40 83 15 83 -9 0 -33 -16 -53 -36 -59 -57 -115 -80 -257 -104 -138 -24
-225 35 -225 153 0 62 26 83 115 91 39 4 104 16 145 27 41 10 103 26 137 34
89 20 173 62 173 86 0 23 -6 23 -73 5 -29 -8 -90 -22 -137 -31 -75 -16 -125
-28 -273 -68 -30 -8 -42 -7 -53 5 -21 21 8 109 52 158 36 39 121 80 167 80 12
0 54 7 92 16 129 29 232 53 246 59 8 3 36 -9 63 -26 44 -29 49 -31 64 -16 14
14 14 22 4 50 -18 49 -16 57 25 92 25 22 35 37 30 48 -9 23 -16 22 -68 -12z"/>
<path d="M21825 2779 c-4 -5 -4 -20 -1 -32 3 -12 6 -53 7 -90 2 -82 -8 -96
-92 -127 -33 -13 -76 -36 -96 -51 -34 -27 -41 -29 -133 -29 -105 0 -186 -20
-194 -48 -2 -9 -7 -58 -11 -108 l-6 -91 31 -27 c40 -34 67 -40 145 -33 80 6
138 38 183 100 36 51 40 80 15 132 -20 42 -25 35 86 112 52 36 54 36 68 18 8
-12 11 -30 7 -45 -3 -14 -10 -63 -15 -110 -4 -47 -11 -113 -15 -146 -7 -63 0
-79 29 -69 22 9 37 45 42 100 16 177 26 273 31 295 3 14 24 42 47 63 l42 37
-35 -5 c-19 -3 -41 -1 -48 3 -8 5 -17 39 -22 75 -4 36 -11 70 -15 76 -8 14
-42 14 -50 0z m-227 -409 c37 -23 40 -40 12 -85 -27 -43 -79 -67 -162 -73 -77
-5 -98 5 -98 47 0 36 24 68 78 102 56 35 121 39 170 9z"/>
<path d="M25782 2758 c-7 -7 -12 -37 -12 -67 0 -72 -14 -122 -44 -154 -33 -35
-68 -95 -64 -108 2 -6 14 -2 30 10 30 24 54 27 61 9 2 -7 2 -77 -1 -155 -5
-145 1 -173 34 -173 36 0 39 22 37 219 l-3 192 40 43 c25 27 53 46 73 50 17 4
44 9 58 12 54 12 55 -24 5 -231 -54 -223 -56 -255 -19 -269 31 -12 67 26 87
94 15 51 16 66 6 85 -15 28 -9 87 20 201 11 42 20 94 20 114 0 44 -32 90 -62
90 -11 0 -54 -20 -93 -44 -87 -52 -118 -61 -135 -41 -9 11 -9 22 1 48 21 59
-5 109 -39 75z"/>
<path d="M22181 2731 c-15 -10 -46 -96 -56 -160 -4 -24 -20 -75 -36 -113 -34
-82 -49 -159 -49 -245 0 -80 11 -103 50 -103 28 0 61 22 132 88 29 28 42 33
62 28 42 -10 61 -51 60 -123 -2 -54 1 -63 16 -63 48 0 79 124 46 187 -42 83
-104 93 -212 33 -40 -22 -78 -40 -84 -40 -18 0 -11 67 14 127 13 32 29 76 35
98 13 41 31 89 63 162 36 84 13 158 -41 124z"/>
<path d="M21105 2723 c-75 -16 -186 -123 -205 -196 -13 -48 -21 -72 -61 -182
-51 -136 -65 -259 -38 -312 26 -49 205 -71 313 -38 124 38 188 142 139 230 -9
17 -24 44 -33 61 -20 38 -71 84 -120 109 -40 21 -100 63 -116 82 -31 37 15 82
116 113 89 28 134 58 138 93 3 21 -2 29 -23 37 -26 10 -73 11 -110 3z m-15
-63 c0 -5 -5 -10 -11 -10 -5 0 -7 5 -4 10 3 6 8 10 11 10 2 0 4 -4 4 -10z
m-99 -261 c17 -17 61 -50 98 -73 65 -42 120 -95 122 -119 6 -63 -24 -101 -101
-128 -115 -40 -231 -34 -244 14 -23 85 41 337 85 337 5 0 23 -14 40 -31z"/>
<path d="M22000 2640 c0 -5 4 -10 9 -10 6 0 13 5 16 10 3 6 -1 10 -9 10 -9 0
-16 -4 -16 -10z"/>
<path d="M25562 2503 c-62 -140 -104 -368 -72 -388 6 -4 21 0 34 9 25 16 28
27 46 166 5 41 18 113 29 160 10 47 17 88 14 93 -11 19 -31 3 -51 -40z"/>
<path d="M26475 2513 c-29 -7 -61 -40 -76 -76 -7 -18 -27 -64 -46 -103 -18
-39 -33 -81 -33 -93 0 -45 -63 -36 -95 13 -9 14 -19 45 -22 68 -10 75 -50 99
-91 55 -28 -30 -28 -47 1 -47 28 0 47 -17 47 -42 0 -25 43 -109 68 -131 19
-18 107 -39 172 -41 31 -1 36 2 40 29 5 32 25 65 76 130 48 60 65 101 66 155
2 76 -31 101 -107 83z m39 -88 c39 -40 -35 -172 -106 -190 -34 -9 -36 3 -11
77 14 43 77 128 96 128 3 0 12 -7 21 -15z"/>
<path d="M27025 2495 c-33 -7 -80 -21 -104 -29 -98 -36 -257 -154 -296 -220
-38 -65 -31 -121 15 -114 17 2 26 14 35 46 16 52 26 65 90 112 85 63 216 120
310 135 66 11 105 26 115 44 22 41 -48 52 -165 26z"/>
<path d="M26148 1869 c-21 -12 -33 -54 -48 -174 -6 -49 -18 -120 -26 -157 -31
-146 -13 -169 86 -108 69 42 146 66 185 56 41 -10 33 -49 -19 -92 -54 -45
-124 -72 -261 -101 -34 -7 -40 -12 -40 -33 0 -23 4 -25 57 -28 81 -4 124 10
219 75 46 31 92 56 102 55 10 0 35 -16 56 -35 20 -18 61 -41 91 -51 46 -15 60
-16 97 -5 50 14 103 67 103 104 0 35 -15 39 -35 9 -19 -29 -71 -54 -113 -54
-34 0 -106 45 -123 76 -10 19 -8 28 8 56 21 37 65 57 128 57 35 1 43 -4 64
-34 29 -43 50 -44 89 -5 34 34 58 38 66 13 3 -10 5 -65 5 -122 -1 -111 6 -130
40 -112 19 11 21 20 21 127 0 130 8 154 66 202 l35 29 -40 -1 c-22 0 -43 3
-47 7 -4 4 -10 35 -12 68 -4 49 -8 59 -21 57 -12 -2 -18 -19 -22 -60 -9 -85
-25 -114 -73 -138 -55 -26 -72 -25 -112 5 -17 13 -50 27 -71 31 -34 5 -43 3
-59 -18 -22 -27 -85 -68 -105 -68 -8 0 -27 7 -42 15 -49 25 -93 28 -171 9 -42
-10 -78 -15 -82 -12 -3 4 2 39 10 80 28 125 44 252 34 271 -10 19 -16 20 -40
6z"/>
<path d="M27606 1835 c-14 -13 -26 -28 -26 -34 0 -15 35 -23 72 -16 39 7 113
-16 145 -47 56 -52 68 -178 45 -465 -17 -215 -26 -259 -63 -306 -17 -21 -28
-45 -25 -53 13 -34 82 0 111 55 39 77 64 277 65 531 1 155 -19 233 -78 302
-19 23 -97 48 -165 53 -48 3 -59 1 -81 -20z"/>
<path d="M22305 1764 c-38 -15 -81 -28 -95 -31 -43 -8 -124 -35 -137 -46 -7
-5 -13 -19 -13 -30 0 -18 5 -19 53 -14 28 3 75 16 102 30 49 25 105 43 105 35
0 -36 -29 -134 -56 -191 -41 -86 -45 -137 -11 -137 25 0 66 59 91 135 9 25 29
72 46 105 17 33 33 80 37 105 5 42 4 45 -21 55 -15 5 -28 10 -29 10 -1 -1 -33
-12 -72 -26z"/>
<path d="M27143 1738 c-29 -30 -53 -57 -53 -62 0 -4 16 -5 35 -2 32 6 35 5 35
-16 0 -13 -11 -46 -24 -73 -49 -105 -60 -171 -35 -201 19 -23 50 -16 109 25
40 27 69 40 105 43 66 8 141 -13 172 -46 19 -21 28 -24 43 -16 22 12 26 50 10
81 -14 25 -53 43 -126 59 -65 13 -79 11 -161 -26 -55 -25 -83 -30 -83 -14 0 5
21 59 46 120 54 133 56 173 9 178 -25 2 -39 -6 -82 -50z"/>
<path d="M24918 1676 c-78 -37 -137 -98 -182 -187 -49 -99 -55 -146 -23 -212
40 -84 69 -100 186 -98 95 1 201 45 175 71 -8 8 -19 8 -38 0 -15 -5 -62 -10
-104 -10 -87 0 -131 21 -157 77 -21 44 -19 60 19 132 60 116 127 175 231 206
58 18 58 42 0 47 -34 2 -60 -4 -107 -26z"/>
<path d="M20801 1676 c-7 -8 -15 -39 -18 -68 -7 -65 -14 -75 -66 -89 -38 -10
-117 -76 -117 -98 0 -43 39 -55 63 -18 19 29 80 62 100 54 13 -5 15 -31 16
-159 0 -178 8 -222 37 -226 45 -6 49 16 36 202 -7 96 -9 181 -6 190 9 24 46
36 110 36 45 0 59 -4 79 -24 34 -34 39 -65 21 -127 -21 -68 -21 -118 0 -126
28 -10 58 17 89 80 37 76 57 83 79 27 9 -22 16 -47 16 -56 0 -30 40 -102 71
-128 36 -30 93 -35 143 -11 47 23 99 126 134 270 6 22 16 59 23 83 14 50 2 75
-28 56 -22 -14 -26 -23 -62 -143 -45 -153 -98 -219 -156 -193 -31 14 -51 54
-75 147 -31 123 -53 142 -107 95 -19 -17 -40 -29 -46 -27 -7 2 -18 23 -25 48
-8 27 -25 53 -45 69 -28 23 -39 25 -119 23 -102 -3 -112 5 -102 81 6 42 5 46
-13 46 -11 0 -26 -6 -32 -14z"/>
<path d="M27025 1640 c-3 -5 -1 -10 4 -10 6 0 11 5 11 10 0 6 -2 10 -4 10 -3
0 -8 -4 -11 -10z"/>
<path d="M25710 1615 c-78 -25 -152 -76 -188 -130 -22 -32 -49 -58 -78 -73
-51 -26 -61 -43 -46 -78 23 -49 112 -9 112 50 0 21 15 36 85 81 46 30 118 71
160 90 59 26 76 39 73 52 -4 23 -58 27 -118 8z"/>
<path d="M21845 1580 c-51 -21 -94 -113 -95 -202 0 -32 -24 -48 -70 -48 -26 0
-31 -3 -28 -21 2 -17 14 -25 49 -33 33 -9 58 -25 90 -58 52 -55 98 -68 162
-47 46 15 97 59 97 83 0 21 -2 20 -77 -9 -59 -24 -65 -25 -93 -10 -25 13 -50
42 -50 58 0 2 27 32 60 66 54 56 60 66 60 105 0 98 -40 143 -105 116z m45 -95
c15 -18 -2 -74 -30 -100 -51 -46 -82 27 -35 84 29 34 46 39 65 16z"/>
<path d="M25150 1501 c-82 -10 -120 -34 -120 -78 0 -60 63 -113 134 -113 48 0
86 11 162 46 66 30 80 47 68 81 -7 21 -21 30 -66 42 -31 9 -60 19 -64 24 -8 8
-30 7 -114 -2z m178 -57 c12 -9 -14 -46 -44 -63 -47 -28 -113 -28 -148 0 -30
24 -32 36 -9 61 15 16 27 18 107 12 50 -4 93 -8 94 -10z"/>
<path d="M22258 1215 c-61 -42 -76 -87 -34 -106 33 -15 80 18 96 67 22 66 -1
80 -62 39z"/>
<path d="M26795 1025 c-33 -13 -70 -24 -82 -24 -23 -1 -165 -46 -195 -62 -10
-6 -18 -18 -18 -29 0 -29 44 -37 89 -15 61 29 180 65 217 65 l35 0 -16 -29
c-16 -32 -89 -123 -169 -211 -63 -70 -86 -108 -86 -142 0 -54 34 -32 144 95
126 144 215 272 216 308 0 62 -48 78 -135 44z"/>
<path d="M25088 933 c-15 -18 -16 -93 -4 -194 6 -44 5 -68 -2 -73 -6 -3 -37
-8 -69 -10 -32 -2 -71 -11 -88 -20 -16 -9 -35 -16 -41 -16 -6 0 -19 -9 -29
-20 -15 -17 -16 -24 -7 -45 13 -28 61 -35 81 -11 17 21 116 58 142 54 32 -4
46 -59 55 -208 7 -130 19 -163 51 -144 25 15 29 114 8 227 -16 88 -14 126 8
128 59 6 162 -26 187 -58 26 -33 25 -55 -2 -103 -21 -36 -22 -41 -7 -55 21
-22 63 -3 79 35 6 15 24 40 40 55 25 24 32 26 45 15 21 -17 51 -76 59 -115 4
-17 16 -45 26 -63 23 -38 104 -92 137 -92 33 0 90 55 117 114 38 81 72 167 91
226 10 30 21 64 25 75 45 125 49 176 11 156 -18 -10 -43 -68 -62 -146 -11 -46
-122 -273 -151 -310 -11 -14 -28 -25 -38 -25 -30 0 -76 52 -98 113 -38 99 -59
134 -91 145 -22 8 -36 7 -56 -4 -39 -20 -53 -18 -69 15 -19 35 -92 68 -172 77
-33 4 -71 13 -86 20 -27 14 -27 14 -24 111 2 75 -1 104 -13 125 -20 35 -36 41
-53 21z"/>
<path d="M26173 754 c-18 -9 -42 -32 -54 -50 -22 -37 -72 -211 -65 -229 2 -6
38 -38 80 -70 67 -51 84 -59 129 -63 42 -3 57 0 80 18 39 31 34 40 -25 40 -57
0 -95 15 -112 42 -13 21 11 72 57 125 24 28 29 42 30 92 1 50 -2 64 -22 85
-28 30 -53 32 -98 10z m57 -73 c25 -48 -9 -145 -56 -157 -33 -8 -44 7 -44 63
0 34 6 48 34 77 38 41 51 44 66 17z"/>
<path d="M26594 282 c-5 -4 -18 -18 -27 -32 -39 -56 -6 -107 62 -95 78 13 121
74 64 91 -16 4 -33 6 -40 5 -7 -1 -17 8 -23 19 -11 21 -19 24 -36 12z"/>
</g>
</svg>
