<?xml version="1.0" standalone="no"?>
<!DOCTYPE svg PUBLIC "-//W3C//DTD SVG 20010904//EN"
 "http://www.w3.org/TR/2001/REC-SVG-20010904/DTD/svg10.dtd">
<svg version="1.0" xmlns="http://www.w3.org/2000/svg"
 width="3264.000000pt" height="2448.000000pt" viewBox="0 0 3264.000000 2448.000000"
 preserveAspectRatio="xMidYMid meet">
<metadata>
Created by potrace 1.12, written by Peter Selinger 2001-2015
</metadata>
<g transform="translate(0.000000,2448.000000) scale(0.100000,-0.100000)"
fill="#000000" stroke="none">
<path d="M11930 21404 c0 -13 21 -44 30 -44 6 0 10 11 10 25 0 18 -5 25 -20
25 -11 0 -20 -3 -20 -6z"/>
<path d="M10254 21276 c-9 -22 1 -42 28 -59 19 -12 111 -16 511 -21 291 -3
487 -2 487 3 0 5 3 16 6 24 3 8 -1 21 -9 29 -12 12 -63 15 -274 17 -142 2
-343 4 -448 5 -104 1 -214 6 -242 10 -44 7 -54 6 -59 -8z"/>
<path d="M13090 21155 c-137 -39 -233 -102 -336 -223 -84 -98 -111 -145 -125
-214 -31 -151 81 -281 301 -350 65 -20 95 -23 225 -23 141 1 156 3 255 34 158
49 251 102 340 191 130 131 182 272 131 357 -33 53 -168 132 -317 186 -91 33
-152 41 -199 28 -30 -8 -42 -7 -61 6 -35 22 -147 26 -214 8z m158 -41 c13 -4
22 -14 22 -25 0 -27 23 -33 59 -15 68 35 163 16 335 -70 102 -51 152 -91 163
-132 17 -68 -66 -218 -165 -299 -250 -204 -712 -233 -889 -56 -83 83 -99 177
-48 273 42 76 194 227 271 268 95 49 193 71 252 56z"/>
<path d="M8570 21138 c-80 -23 -253 -177 -299 -265 -53 -105 -66 -249 -27
-308 22 -34 74 -65 107 -65 39 0 142 35 212 72 91 48 193 155 242 256 22 45
42 82 45 82 3 0 21 -62 39 -137 42 -176 70 -271 87 -305 26 -50 75 -98 100
-98 38 0 40 26 4 67 -42 48 -75 120 -95 208 -9 39 -29 122 -45 186 -17 64 -30
133 -30 155 0 52 -29 109 -55 109 -17 0 -21 -9 -27 -58 -13 -106 -120 -287
-213 -360 -79 -62 -220 -114 -277 -102 -84 19 -78 167 11 285 42 56 71 100 71
108 0 23 73 73 140 97 86 30 138 35 174 15 30 -16 40 -10 31 19 -14 45 -109
64 -195 39z"/>
<path d="M10449 21066 c-175 -47 -407 -306 -425 -474 -10 -89 54 -148 152
-140 71 6 145 52 258 160 75 71 102 105 151 192 33 58 62 106 65 106 3 0 14
-51 24 -112 52 -331 68 -388 110 -388 33 0 38 22 16 72 -18 43 -70 355 -76
456 -4 70 -23 98 -76 112 -24 6 -59 15 -78 21 -44 11 -64 11 -121 -5z m151
-76 c24 -13 18 -30 -42 -133 -87 -151 -204 -268 -320 -322 -64 -30 -74 -30
-115 -5 -48 29 -46 83 4 170 90 155 282 300 400 300 30 0 63 -5 73 -10z"/>
<path d="M9631 20912 c-13 -25 8 -55 49 -72 35 -14 45 -8 55 31 9 35 -16 59
-60 59 -23 0 -38 -6 -44 -18z"/>
<path d="M11654 20920 c-37 -12 -51 -38 -31 -57 11 -11 23 -11 63 -2 39 9 80
8 199 -5 197 -21 325 -22 325 -1 0 8 -4 15 -10 15 -5 0 -88 11 -182 25 -207
30 -322 38 -364 25z"/>
<path d="M21055 20808 c-47 -20 -67 -21 -335 -20 -246 0 -288 -2 -312 -16 -29
-17 -42 -38 -32 -53 7 -12 51 -12 56 0 5 16 54 21 273 26 116 2 248 8 295 11
99 8 184 34 188 57 5 25 -70 21 -133 -5z"/>
<path d="M11588 20704 c-5 -4 -8 -18 -8 -31 0 -12 3 -24 8 -24 4 -1 23 -3 42
-5 19 -2 94 -11 167 -19 135 -15 318 -18 363 -6 14 4 25 13 25 21 0 12 -29 16
-155 22 -85 3 -195 14 -245 23 -117 22 -188 29 -197 19z"/>
<path d="M20687 20558 c-9 -7 -23 -31 -31 -53 -14 -42 -13 -41 -79 -28 -38 7
-165 -22 -272 -64 -170 -65 -254 -135 -275 -229 -19 -81 46 -113 178 -87 63
13 106 31 214 92 54 30 125 97 114 108 -3 3 -43 -18 -90 -46 -191 -116 -289
-144 -341 -98 -22 19 -24 26 -16 53 27 95 248 211 454 239 38 5 47 3 47 -9 0
-8 10 -16 23 -18 17 -2 22 -10 22 -33 1 -16 4 -37 7 -45 4 -8 9 -56 11 -105 6
-107 27 -168 72 -212 35 -33 98 -52 122 -37 21 13 12 29 -17 28 -14 0 -38 12
-55 28 -16 15 -33 28 -37 28 -4 0 -17 18 -28 41 -23 44 -34 197 -17 233 6 13
5 21 -4 27 -12 8 -11 12 1 22 9 6 22 32 29 57 7 25 18 57 23 72 6 15 7 32 3
37 -8 15 -37 14 -58 -1z"/>
<path d="M18864 20519 c-251 -30 -457 -204 -479 -405 -6 -52 -4 -63 17 -93 12
-19 43 -46 68 -60 42 -24 54 -26 175 -26 126 0 132 1 196 32 71 35 164 124
198 191 25 49 41 110 34 128 -8 21 -23 7 -23 -22 0 -13 -5 -24 -10 -24 -6 0
-14 -8 -17 -17 -10 -27 -82 -133 -113 -164 -78 -82 -249 -111 -373 -63 -59 23
-67 30 -87 71 -35 76 -16 141 70 240 45 52 117 94 227 133 87 31 113 34 257
27 46 -2 57 15 24 37 -32 21 -82 25 -164 15z"/>
<path d="M19086 20424 c-10 -10 -16 -33 -16 -64 0 -44 2 -49 21 -47 24 2 25 0
102 -118 38 -58 69 -92 117 -126 36 -26 72 -48 81 -48 9 -1 19 -8 23 -16 8
-22 43 -18 56 5 9 17 7 22 -17 32 -15 7 -33 20 -40 29 -7 9 -38 29 -70 44 -69
34 -84 51 -77 85 3 19 -2 32 -21 50 -14 13 -25 31 -25 41 0 9 -11 27 -25 40
-13 13 -25 34 -25 46 0 20 -42 63 -61 63 -4 0 -15 -7 -23 -16z"/>
<path d="M19870 20331 c-16 -30 -12 -51 9 -51 29 0 63 32 56 53 -9 23 -52 22
-65 -2z"/>
<path d="M20700 20226 c0 -14 5 -26 10 -26 6 0 10 9 10 19 0 11 -4 23 -10 26
-6 4 -10 -5 -10 -19z"/>
<path d="M18911 19244 c-12 -15 -21 -41 -21 -60 0 -19 -2 -34 -4 -34 -2 0 -27
15 -55 34 -69 47 -139 60 -245 47 -194 -23 -325 -108 -372 -238 -18 -50 -17
-86 1 -130 36 -86 95 -117 220 -118 85 0 94 2 175 41 137 66 232 149 281 246
11 21 21 38 24 38 2 0 21 -33 41 -72 59 -113 216 -261 260 -244 21 8 17 34
-10 59 -13 12 -46 43 -74 69 -80 75 -132 178 -152 300 -9 57 -23 88 -40 88 -5
0 -18 -12 -29 -26z m-150 -112 c19 -11 45 -35 57 -52 l23 -31 -60 -62 c-165
-172 -423 -229 -486 -107 -31 60 -10 142 48 191 96 80 332 114 418 61z"/>
<path d="M19195 18369 c-38 -10 -114 -23 -167 -29 -53 -6 -123 -16 -155 -22
-32 -6 -74 -12 -93 -13 -162 -13 -278 -26 -331 -35 -141 -26 -203 -41 -216
-51 -15 -13 -18 -65 -3 -74 6 -3 45 7 88 24 89 35 166 55 272 71 41 6 93 15
115 20 22 5 117 14 210 20 317 20 386 32 399 66 6 15 -19 44 -37 43 -7 0 -43
-9 -82 -20z"/>
<path d="M800 18261 c-82 -26 -112 -44 -177 -109 -103 -102 -215 -306 -244
-448 -48 -237 207 -311 446 -129 88 68 247 314 270 420 10 44 26 85 35 85 4 0
24 -38 44 -84 87 -195 207 -376 249 -376 28 0 19 29 -26 83 -54 65 -70 91
-147 247 -46 91 -62 135 -62 163 1 48 -49 117 -85 117 -11 0 -45 11 -75 25
-64 30 -147 32 -228 6z m234 -62 c25 -13 47 -28 50 -35 9 -22 -34 -156 -79
-249 -104 -215 -256 -353 -413 -375 -102 -14 -152 16 -152 93 0 146 119 393
241 500 50 44 121 76 199 91 43 8 107 -3 154 -25z"/>
<path d="M3510 18144 c-6 -16 -20 -47 -30 -69 -10 -22 -22 -76 -27 -120 l-8
-80 -170 -6 c-93 -3 -217 -12 -274 -19 -82 -10 -111 -10 -141 0 -54 18 -74 11
-78 -28 -2 -22 2 -34 12 -38 23 -9 20 -24 -4 -24 -27 0 -45 -48 -53 -140 -4
-41 -11 -120 -17 -175 -5 -55 -9 -181 -10 -281 0 -183 -25 -386 -66 -533 -8
-31 -18 -104 -21 -162 l-6 -105 38 -18 c20 -10 64 -22 98 -27 34 -4 107 -17
162 -28 202 -39 408 -60 845 -86 445 -26 578 -36 745 -55 176 -21 400 -53 485
-70 77 -15 451 -50 533 -50 38 0 119 -11 180 -25 207 -47 362 -76 412 -76 61
-1 500 26 662 40 222 20 398 30 518 31 66 1 248 6 405 11 157 6 385 7 508 3
l222 -7 0 -25 c0 -14 -10 -91 -22 -171 -12 -80 -22 -159 -22 -176 -1 -34 -25
-30 284 -54 80 -7 183 -16 230 -22 47 -5 216 -12 375 -16 308 -6 411 1 694 48
260 43 429 98 669 218 164 82 269 155 380 264 129 126 199 242 216 361 7 46 8
47 26 31 10 -9 36 -21 57 -27 23 -6 335 -11 813 -13 448 -2 828 -8 900 -14 69
-6 253 -15 410 -21 157 -6 323 -15 370 -20 291 -34 452 -50 460 -45 19 11 10
43 -12 49 -13 3 -93 13 -178 21 -85 9 -182 20 -215 26 -33 5 -222 16 -420 24
-198 8 -414 19 -480 24 -66 5 -445 10 -842 10 -476 1 -739 5 -770 12 -26 6
-60 12 -75 13 l-28 1 0 77 c0 179 -79 379 -216 549 -63 79 -189 197 -300 280
-143 107 -539 288 -829 377 -118 37 -173 52 -345 98 -173 46 -485 88 -612 82
-98 -5 -132 -17 -121 -44 4 -11 30 -14 119 -14 476 0 1348 -266 1731 -529 109
-74 266 -220 332 -309 189 -252 234 -556 116 -781 -44 -83 -179 -225 -295
-311 -99 -73 -358 -203 -506 -254 -178 -61 -459 -113 -728 -134 -120 -10 -596
2 -716 18 -41 5 -139 14 -216 20 -149 11 -202 18 -209 29 -6 10 71 572 101
736 43 240 52 305 64 470 7 88 18 198 26 245 27 156 33 215 39 386 3 93 10
214 15 269 9 83 8 101 -5 114 -13 13 -17 13 -34 -3 -11 -10 -24 -15 -29 -12
-20 12 -389 46 -827 76 -82 6 -285 15 -450 20 -165 6 -311 12 -325 15 -14 3
-270 7 -570 10 -543 5 -911 16 -1136 35 -66 6 -198 13 -295 17 -146 5 -189 3
-253 -11 -85 -19 -140 -55 -119 -77 13 -13 13 -13 148 22 41 11 182 7 470 -12
351 -23 593 -31 1140 -35 319 -2 587 -7 595 -10 8 -3 155 -9 325 -14 171 -5
423 -18 561 -29 137 -11 313 -25 390 -31 76 -6 175 -15 219 -20 44 -6 95 -10
113 -10 32 0 33 -1 27 -32 -3 -18 -12 -142 -19 -276 -8 -134 -18 -248 -24
-254 -15 -15 -444 18 -504 39 -45 16 -48 16 -67 -1 -17 -16 -54 -19 -313 -27
-161 -5 -405 -18 -543 -29 -137 -11 -383 -23 -545 -27 -259 -5 -302 -4 -350
11 -40 13 -120 20 -295 26 -340 13 -642 63 -704 116 -23 20 -26 29 -25 86 1
34 4 92 8 128 7 58 6 67 -13 87 -12 12 -40 27 -64 34 -41 11 -63 11 -353 -7
-56 -4 -132 -3 -168 1 l-66 7 0 44 c0 38 -5 49 -38 82 -39 39 -95 62 -152 62
-25 0 -41 -9 -69 -40 -20 -22 -41 -40 -46 -40 -6 0 -37 20 -70 46 -86 65 -593
314 -656 321 -46 5 -49 5 -59 -23z m365 -164 c284 -141 380 -200 380 -235 0
-27 -46 -50 -181 -90 -65 -19 -180 -64 -254 -99 -385 -182 -397 -186 -385
-129 4 16 17 69 30 118 21 80 43 259 62 508 l6 78 31 -6 c17 -4 157 -69 311
-145z m-437 -198 c3 -47 -19 -179 -49 -287 -10 -38 -19 -89 -19 -112 0 -98 63
-83 460 109 113 55 335 138 367 138 8 0 13 -14 13 -40 0 -62 41 -102 112 -108
84 -7 123 11 201 91 l68 70 112 -13 c86 -9 137 -10 221 -1 131 13 256 14 275
2 12 -8 13 -20 2 -83 -7 -40 -15 -78 -16 -84 -7 -26 18 -101 43 -128 47 -50
118 -73 352 -115 139 -26 309 -41 453 -41 70 0 149 -7 195 -16 65 -14 126 -15
397 -11 176 3 397 13 490 21 284 26 514 36 804 36 233 0 669 -15 677 -23 1 -1
-4 -34 -11 -72 -8 -39 -21 -160 -30 -270 -10 -118 -31 -273 -50 -377 -19 -97
-39 -223 -46 -280 -6 -57 -13 -109 -15 -115 -3 -10 -53 -12 -226 -7 -286 7
-1112 -19 -1408 -46 -290 -26 -651 -44 -715 -35 -57 7 -247 44 -410 79 -64 14
-165 27 -240 30 -163 8 -391 32 -492 51 -199 37 -572 81 -803 94 -107 6 -271
16 -365 21 -93 6 -206 13 -250 15 -173 11 -246 17 -395 36 -85 10 -186 26
-225 34 -38 7 -103 19 -144 25 -41 6 -78 13 -82 16 -17 10 -9 105 20 252 60
299 64 328 66 552 2 197 18 410 34 451 5 13 40 46 119 110 6 5 12 19 12 29 0
12 8 21 23 24 41 9 261 21 367 21 l105 0 3 -43z m1090 -5 c8 -6 12 -25 10 -46
-2 -29 -8 -37 -26 -39 -20 -3 -22 -8 -17 -31 10 -48 -87 -121 -167 -124 -53
-3 -65 15 -52 80 8 41 14 50 42 63 29 13 32 18 27 47 -5 26 -2 34 17 44 49 27
135 30 166 6z"/>
<path d="M5960 16378 c-72 -49 -101 -133 -64 -187 15 -21 22 -23 88 -19 48 2
86 11 120 27 l48 24 22 -26 c26 -31 96 -67 131 -67 43 0 26 29 -40 69 -56 34
-60 40 -66 80 -9 65 -27 69 -74 15 -41 -46 -81 -63 -153 -64 -43 0 -50 20 -22
65 25 41 52 50 121 41 40 -5 49 -4 49 8 0 22 -42 47 -87 53 -29 4 -46 -1 -73
-19z"/>
<path d="M18657 18077 c-4 -12 -23 -14 -96 -9 -105 6 -143 -6 -236 -73 -114
-82 -155 -138 -155 -213 0 -69 62 -132 130 -132 37 0 143 41 191 73 51 35 153
147 172 189 21 48 36 43 116 -35 99 -96 172 -137 215 -121 34 13 17 43 -35 61
-38 14 -69 37 -124 93 -41 41 -89 97 -107 125 -34 51 -61 67 -71 42z m-54 -84
c36 -13 46 -21 41 -33 -4 -8 -9 -27 -12 -42 -3 -20 -20 -39 -61 -66 -31 -21
-76 -53 -101 -70 -60 -42 -168 -71 -204 -54 -29 13 -41 49 -31 90 9 38 109
132 174 165 65 32 124 35 194 10z"/>
<path d="M3055 18010 c-3 -5 1 -10 9 -10 9 0 16 5 16 10 0 6 -4 10 -9 10 -6 0
-13 -4 -16 -10z"/>
<path d="M1962 17988 c-32 -16 -22 -32 22 -36 34 -3 37 -1 34 20 -3 26 -23 32
-56 16z"/>
<path d="M2303 17982 c-30 -4 -29 -14 3 -29 18 -8 32 -9 45 -3 10 6 32 10 50
10 23 0 30 3 22 11 -11 11 -80 17 -120 11z"/>
<path d="M2440 17972 c0 -13 41 -43 51 -37 6 5 30 10 52 12 45 4 60 10 51 24
-5 8 -154 9 -154 1z"/>
<path d="M2370 17940 c0 -5 5 -10 10 -10 6 0 10 5 10 10 0 6 -4 10 -10 10 -5
0 -10 -4 -10 -10z"/>
<path d="M1974 17846 c-10 -8 -15 -18 -11 -22 13 -14 219 -14 214 0 -10 32
-166 49 -203 22z"/>
<path d="M6171 17796 c-22 -26 37 -53 138 -62 84 -7 457 2 636 14 80 6 90 9
90 26 0 32 -47 36 -265 25 -191 -10 -468 -7 -551 7 -25 4 -39 1 -48 -10z"/>
<path d="M2612 17723 c-7 -12 -12 -34 -11 -50 l1 -28 14 34 c18 41 15 78 -4
44z"/>
<path d="M6495 17635 c-16 -11 -29 -12 -64 -3 -32 8 -60 8 -109 -1 -82 -15
-134 -41 -166 -84 -66 -87 4 -190 113 -166 68 15 140 57 203 117 32 30 60 53
62 51 2 -2 16 -29 31 -59 15 -30 34 -63 43 -72 19 -22 52 -23 52 -3 0 27 -99
214 -119 225 -24 12 -21 12 -46 -5z m-36 -50 c2 -2 -6 -17 -18 -33 -35 -49
-159 -120 -213 -122 -10 0 -22 9 -28 21 -9 17 -7 27 11 54 13 18 37 41 54 51
53 32 173 50 194 29z"/>
<path d="M2590 17608 c0 -7 -3 -30 -6 -50 -5 -31 -4 -38 10 -38 12 0 16 10 16
40 0 22 0 43 1 47 0 4 -4 9 -10 11 -6 2 -11 -2 -11 -10z"/>
<path d="M2577 17494 c-4 -4 -7 -20 -7 -35 0 -16 -4 -38 -9 -51 -5 -13 -15
-57 -22 -98 -7 -41 -21 -97 -32 -125 -10 -27 -20 -61 -22 -75 -2 -14 -10 -50
-19 -80 -42 -157 -69 -260 -76 -300 -5 -25 -17 -70 -26 -100 -9 -30 -24 -89
-34 -131 -9 -42 -25 -96 -34 -121 -10 -24 -16 -48 -15 -54 1 -5 -3 -21 -9 -36
-6 -15 -8 -50 -5 -82 6 -55 17 -68 39 -46 8 8 15 6 23 -4 8 -10 23 -13 45 -9
20 3 36 1 40 -6 4 -6 16 -11 27 -11 11 0 19 -7 19 -16 0 -8 5 -12 11 -9 5 4
18 0 27 -8 23 -20 62 -31 62 -18 0 6 -7 11 -15 11 -8 0 -15 9 -15 20 0 11 4
20 10 20 5 0 14 -9 20 -20 15 -28 80 -29 80 0 0 14 -7 19 -27 19 -54 0 -110
14 -165 42 -10 5 -31 9 -47 9 -17 0 -32 4 -35 9 -3 5 -21 12 -41 15 -19 4 -37
11 -40 16 -7 11 23 106 43 137 8 12 16 37 18 55 8 62 13 83 33 138 12 30 21
67 21 82 0 15 4 29 9 33 6 3 10 13 10 23 0 31 22 127 32 137 5 5 9 19 9 32 0
12 4 32 9 45 5 13 19 66 31 118 11 52 26 103 31 114 6 10 15 41 20 70 11 54
11 57 23 151 4 33 12 73 17 89 9 28 -1 63 -14 50z"/>
<path d="M17864 16891 c-87 -53 -192 -249 -279 -521 -21 -63 -62 -169 -92
-235 -62 -136 -75 -203 -49 -252 16 -31 47 -50 65 -38 6 3 9 38 9 78 -2 65 2
81 41 167 24 52 67 166 97 252 29 86 67 187 84 225 39 86 110 200 145 233 26
24 27 25 41 6 35 -49 91 -220 170 -526 55 -210 71 -259 139 -415 51 -118 76
-148 90 -107 3 11 -7 56 -24 103 -16 46 -43 123 -60 170 -17 48 -44 142 -61
210 -106 438 -162 597 -227 649 -32 25 -50 25 -89 1z"/>
<path d="M11390 16727 c-24 -12 -36 -52 -15 -52 6 0 44 4 85 8 58 6 102 3 192
-12 65 -11 189 -25 275 -31 87 -5 205 -14 263 -19 164 -15 557 -26 755 -21 99
2 223 4 275 4 194 -1 795 -23 889 -33 183 -19 231 -20 247 -4 28 28 -1 40
-104 46 -53 3 -169 10 -257 16 -260 16 -579 24 -1105 26 -283 1 -546 7 -615
14 -66 6 -208 18 -315 26 -108 8 -225 21 -260 29 -81 19 -275 21 -310 3z"/>
<path d="M17862 16618 c-16 -21 -63 -195 -83 -311 -27 -161 -47 -414 -59 -757
-6 -168 -15 -411 -20 -540 -5 -129 -9 -457 -9 -728 -1 -465 -2 -493 -18 -488
-38 12 -272 24 -355 19 -89 -6 -116 -18 -105 -47 4 -11 43 -14 197 -14 155 0
195 -3 208 -15 10 -8 28 -17 42 -19 24 -3 25 -5 23 -73 -2 -38 -3 -374 -3
-745 0 -446 -6 -801 -16 -1045 -14 -320 -14 -538 -1 -750 l2 -40 -51 3 c-29 1
-92 11 -140 22 -264 60 -244 57 -260 36 -34 -47 -8 -72 106 -101 267 -67 471
-80 1205 -76 1548 8 1983 13 2016 22 20 5 42 16 49 24 32 38 48 576 24 809 -8
83 -21 250 -29 371 -8 121 -19 288 -25 370 -7 97 -9 337 -5 675 l5 525 23 1
c37 1 47 4 47 12 0 9 -9 11 -52 14 -30 2 -38 15 -38 61 l0 39 178 -8 c248 -11
599 -9 852 4 118 6 334 16 480 22 146 6 360 16 475 22 125 7 569 12 1095 13
750 1 910 4 1047 18 177 19 303 42 345 63 20 11 29 11 34 2 4 -6 11 -93 15
-192 4 -100 13 -237 20 -306 16 -168 5 -736 -20 -1070 -47 -604 -48 -611 -115
-965 -27 -140 -30 -201 -16 -310 5 -38 7 -72 4 -74 -2 -3 -105 -5 -227 -6
-122 -1 -249 -4 -282 -7 -218 -23 -748 -11 -985 21 -120 17 -150 15 -150 -9 0
-27 25 -36 135 -49 275 -33 904 -38 994 -8 64 22 658 10 841 -17 87 -13 377
-33 470 -33 14 0 196 -5 405 -12 709 -21 1057 -44 1500 -96 387 -46 645 -58
726 -34 58 18 74 43 103 165 24 103 26 128 26 345 1 129 -4 302 -9 384 -6 83
-15 323 -21 535 -6 212 -15 493 -21 625 -6 132 -15 350 -19 485 -5 135 -13
272 -19 305 -5 33 -6 63 -2 66 6 6 512 32 621 32 30 0 96 -7 145 -16 50 -9
108 -15 129 -14 38 2 40 0 48 -33 10 -43 11 -337 2 -352 -4 -6 -5 -135 -4
-287 4 -311 4 -286 -4 -666 -12 -541 -16 -701 -22 -785 -8 -121 -6 -333 5
-565 10 -211 16 -258 35 -274 6 -6 69 -18 138 -27 120 -17 136 -17 310 -1 195
19 641 24 869 11 96 -5 128 -4 134 6 4 6 1 18 -6 26 -35 34 -760 40 -999 9
-119 -16 -276 -23 -286 -12 -4 4 -22 7 -39 7 -18 0 -46 5 -62 11 l-31 10 -2
192 c-1 106 -2 271 -3 367 -1 96 5 344 12 550 7 206 15 607 18 890 2 283 6
587 7 675 4 160 -10 285 -34 309 -8 8 -20 5 -42 -7 -52 -30 -120 -33 -176 -9
-46 20 -63 21 -308 18 -142 -3 -308 -7 -369 -11 l-110 -7 -19 37 c-17 30 -18
38 -6 45 23 14 184 22 365 17 94 -2 420 -9 725 -15 305 -7 647 -17 760 -23
113 -6 351 -12 529 -13 304 -1 326 0 348 17 13 11 23 27 21 36 -4 18 -8 19
-298 18 -397 -1 -383 -2 -1505 35 -444 15 -848 17 -918 5 -66 -11 -87 -37 -87
-104 0 -48 -2 -53 -22 -53 -22 0 -122 20 -311 61 -64 15 -156 22 -340 29 -139
5 -277 14 -307 19 -30 6 -118 16 -195 22 -358 30 -600 25 -705 -13 -83 -30
-110 -32 -214 -14 -51 9 -134 19 -182 22 -83 6 -90 5 -109 -16 -17 -18 -19
-34 -17 -91 1 -38 7 -91 13 -117 17 -81 32 -564 36 -1187 2 -330 3 -618 4
-640 0 -22 -5 -152 -12 -290 -10 -225 -14 -260 -40 -350 -39 -134 -38 -195 1
-195 20 0 30 19 30 57 0 14 11 49 24 77 29 60 43 137 50 261 3 50 8 126 12
169 8 108 9 318 1 1021 -9 918 -11 960 -41 1104 -14 68 -22 129 -19 134 8 13
155 1 230 -18 77 -20 142 -19 205 4 29 11 80 25 112 30 126 23 587 6 806 -29
36 -6 171 -14 300 -19 198 -7 261 -13 400 -40 91 -17 200 -33 242 -37 76 -6
77 -6 87 -37 11 -36 24 -210 23 -307 -1 -36 5 -186 13 -335 8 -148 19 -475 25
-725 5 -250 14 -518 20 -595 29 -420 15 -713 -41 -854 l-10 -24 -177 7 c-97 3
-215 10 -262 16 -47 5 -166 18 -265 30 -99 11 -259 27 -355 35 -96 8 -229 19
-295 25 -115 10 -378 21 -843 36 -163 5 -222 4 -252 -6 -34 -11 -45 -11 -77 2
-58 24 -178 42 -283 44 -52 0 -140 4 -195 8 -55 4 -142 9 -194 12 -117 5 -151
22 -164 79 -15 67 0 231 37 415 75 372 136 1131 136 1690 0 324 -28 789 -50
830 -13 25 -23 25 -74 1 -55 -26 -170 -49 -345 -68 -119 -12 -310 -16 -1021
-18 -481 -1 -922 -5 -980 -8 -58 -4 -244 -11 -415 -17 -170 -6 -391 -15 -490
-21 -334 -18 -603 -28 -682 -23 -43 2 -179 9 -303 14 -124 6 -244 14 -267 19
-67 13 -76 0 -75 -97 l2 -82 -28 0 c-16 0 -37 -6 -47 -14 -27 -20 -5 -44 43
-48 l37 -3 0 -625 c0 -413 4 -676 12 -775 7 -82 18 -213 23 -290 6 -77 17
-217 24 -311 11 -132 13 -228 6 -420 -5 -137 -12 -257 -16 -267 -6 -17 -17
-18 -128 -12 -167 8 -415 9 -1411 3 -859 -6 -1248 2 -1272 26 -13 12 -6 316
21 931 10 212 13 464 10 745 -3 234 -1 551 3 705 l8 280 110 -2 c450 -9 1026
-10 1155 -2 108 7 221 7 375 -1 209 -12 228 -11 375 10 117 17 208 22 370 24
207 1 215 2 215 21 0 28 -44 34 -254 34 -118 1 -206 -4 -275 -16 -101 -17
-208 -20 -566 -16 -96 1 -339 -1 -540 -5 -201 -4 -457 -4 -570 0 -113 4 -247
8 -297 8 l-93 0 0 443 c0 243 7 595 15 782 8 187 19 462 25 610 18 459 46 684
112 887 27 81 30 99 19 112 -16 19 -55 21 -69 4z"/>
<path d="M2405 16100 c-3 -5 -1 -10 4 -10 6 0 11 5 11 10 0 6 -2 10 -4 10 -3
0 -8 -4 -11 -10z"/>
<path d="M2665 16100 c-8 -13 -1 -24 14 -19 6 3 7 10 2 18 -6 10 -10 10 -16 1z"/>
<path d="M2705 16100 c-11 -18 10 -32 39 -24 27 7 36 24 12 24 -8 0 -21 3 -29
6 -8 3 -18 0 -22 -6z"/>
<path d="M3297 16093 c-12 -11 -8 -23 8 -23 8 0 15 -4 15 -10 0 -17 27 -11 34
7 10 24 -37 46 -57 26z"/>
<path d="M2786 16075 c7 -18 77 -46 88 -35 6 6 24 9 41 9 20 -1 24 -3 10 -6
-34 -8 -39 -21 -13 -28 33 -8 145 42 130 57 -15 15 -261 17 -256 3z"/>
<path d="M3110 16082 c-41 -4 -52 -12 -41 -31 7 -11 13 -11 32 2 23 17 61 14
86 -5 13 -10 73 16 73 32 0 9 -68 10 -150 2z"/>
<path d="M3386 16081 c5 -5 23 -13 39 -16 29 -7 29 -7 10 8 -21 17 -66 24 -49
8z"/>
<path d="M3488 16072 c-15 -17 -8 -20 29 -15 43 7 53 33 12 30 -17 -1 -35 -8
-41 -15z"/>
<path d="M3565 16060 c-8 -13 14 -42 26 -34 5 3 9 14 9 25 0 20 -24 26 -35 9z"/>
<path d="M3721 16046 c-21 -23 -22 -24 -2 -29 21 -5 41 9 41 29 0 24 -17 23
-39 0z"/>
<path d="M3831 16060 c-22 -13 -3 -28 34 -27 33 1 46 22 14 22 -8 0 -19 3 -24
7 -6 4 -17 3 -24 -2z"/>
<path d="M2750 16035 c0 -9 5 -15 11 -13 6 2 11 8 11 13 0 5 -5 11 -11 13 -6
2 -11 -4 -11 -13z"/>
<path d="M3930 16035 c10 -9 24 -12 40 -8 22 6 22 7 4 14 -10 4 -28 8 -39 8
-17 1 -18 -1 -5 -14z"/>
<path d="M2810 16030 c0 -5 7 -10 16 -10 8 0 12 5 9 10 -3 6 -10 10 -16 10 -5
0 -9 -4 -9 -10z"/>
<path d="M4120 16026 c12 -12 28 -14 72 -9 32 3 56 9 54 12 -3 4 -35 8 -73 9
-61 3 -66 2 -53 -12z"/>
<path d="M4280 16011 c0 -21 26 -36 36 -20 6 11 -13 39 -27 39 -5 0 -9 -9 -9
-19z"/>
<path d="M4391 16020 c-42 -6 -46 -17 -21 -50 11 -14 20 -19 20 -13 0 7 14 19
30 28 50 26 34 46 -29 35z"/>
<path d="M4501 15986 l-22 -23 76 -1 c41 0 75 1 75 4 0 2 -8 13 -17 24 -25 29
-83 27 -112 -4z"/>
<path d="M4640 15990 c0 -5 6 -10 14 -10 8 0 16 -7 18 -16 3 -13 5 -13 23 0
20 15 20 15 -2 16 -12 0 -25 5 -28 10 -3 6 -10 10 -16 10 -5 0 -9 -4 -9 -10z"/>
<path d="M4738 15984 c-8 -8 21 -54 34 -54 16 0 4 55 -12 58 -9 1 -19 0 -22
-4z"/>
<path d="M5010 15950 c0 -5 5 -10 11 -10 5 0 7 5 4 10 -3 6 -8 10 -11 10 -2 0
-4 -4 -4 -10z"/>
<path d="M4850 15930 l-25 -6 24 -8 c13 -5 27 -4 33 2 14 14 -2 20 -32 12z"/>
<path d="M5140 15906 c0 -9 7 -16 16 -16 9 0 14 5 12 12 -6 18 -28 21 -28 4z"/>
<path d="M5260 15900 c0 -5 5 -10 10 -10 6 0 10 5 10 10 0 6 -4 10 -10 10 -5
0 -10 -4 -10 -10z"/>
<path d="M5490 15880 c-13 -8 -12 -10 3 -10 9 0 17 5 17 10 0 12 -1 12 -20 0z"/>
<path d="M6340 15861 c0 -9 41 -23 48 -16 2 2 1 8 -3 14 -8 13 -45 15 -45 2z"/>
<path d="M7070 15862 c-30 -1 -62 -5 -70 -9 -8 -3 -19 -5 -25 -4 -45 12 -80
10 -96 -5 -17 -15 -19 -15 -25 0 -7 17 -24 22 -24 6 0 -23 57 -37 142 -34 48
1 91 5 97 8 6 4 32 4 59 0 33 -4 52 -2 56 5 5 8 24 9 55 5 32 -4 51 -2 55 5 4
6 1 13 -6 15 -20 7 -157 12 -218 8z"/>
<path d="M7385 15860 c-3 -5 1 -10 9 -10 9 0 16 5 16 10 0 6 -4 10 -9 10 -6 0
-13 -4 -16 -10z"/>
<path d="M7505 15859 c-11 -16 1 -22 30 -15 14 4 23 11 20 16 -8 13 -42 13
-50 -1z"/>
<path d="M7625 15851 c-3 -5 6 -8 20 -7 35 4 44 16 12 16 -14 0 -28 -4 -32 -9z"/>
<path d="M7761 15856 c12 -10 99 -16 99 -7 0 7 -22 11 -52 11 -28 0 -49 -2
-47 -4z"/>
<path d="M7925 15850 c-4 -6 -16 -8 -28 -4 -20 6 -20 5 -8 -10 19 -22 75 -18
79 7 4 19 -32 25 -43 7z"/>
<path d="M8005 15850 c-8 -12 20 -24 35 -15 6 3 8 11 5 16 -8 12 -32 12 -40
-1z"/>
<path d="M8266 15818 c-43 -67 -23 -108 33 -67 36 26 39 39 11 39 -17 0 -19 5
-14 25 8 32 -10 33 -30 3z"/>
<path d="M6728 15825 c-3 -3 -26 -6 -52 -7 -25 0 -46 -4 -46 -9 0 -12 81 -11
100 1 8 5 12 11 9 14 -3 4 -8 4 -11 1z"/>
<path d="M7702 15818 c3 -7 15 -15 27 -16 16 -3 22 1 19 10 -3 7 -15 15 -27
16 -16 3 -22 -1 -19 -10z"/>
<path d="M6790 15809 c0 -5 5 -7 10 -4 6 3 10 8 10 11 0 2 -4 4 -10 4 -5 0
-10 -5 -10 -11z"/>
<path d="M23467 15765 c-9 -8 -22 -34 -30 -57 -7 -24 -26 -79 -42 -123 -32
-91 -38 -150 -16 -150 20 0 66 85 95 175 13 41 30 89 37 107 10 26 10 34 0 47
-17 20 -26 20 -44 1z"/>
<path d="M23735 15750 c-77 -7 -109 -20 -125 -51 -9 -15 -8 -24 1 -35 13 -16
45 -19 54 -3 9 13 56 31 64 24 3 -3 -38 -47 -90 -98 -101 -97 -124 -136 -95
-165 14 -14 21 -10 69 39 29 30 90 89 135 131 81 77 104 116 85 146 -12 20
-14 20 -98 12z"/>
<path d="M23088 15650 c-69 -12 -108 -56 -77 -87 7 -7 6 -34 -5 -93 -21 -111
-21 -162 0 -158 17 3 24 12 46 63 l13 30 96 2 c109 2 152 14 147 41 -3 15 -19
18 -113 22 l-110 5 3 45 c1 25 4 50 7 57 2 6 37 14 79 18 79 8 98 18 75 40
-16 15 -108 23 -161 15z"/>
<path d="M22759 15598 c-1 -7 -1 -16 0 -20 0 -4 -12 -16 -28 -27 -24 -18 -30
-19 -35 -6 -15 40 -57 -6 -98 -106 -13 -31 -31 -66 -40 -80 l-17 -24 0 31 c-1
34 -20 57 -37 46 -6 -4 -18 -21 -27 -38 -18 -34 -83 -84 -111 -84 -17 0 -18 8
-11 105 6 93 5 106 -10 111 -31 12 -40 -14 -43 -125 -4 -100 -2 -111 17 -130
28 -28 70 -27 111 4 30 22 35 23 50 10 9 -8 25 -15 36 -15 35 0 101 79 133
160 17 41 31 77 31 79 0 2 9 -4 20 -14 20 -18 21 -18 46 6 l27 24 -6 -30 c-30
-152 -32 -215 -8 -215 21 0 42 50 60 143 10 52 21 99 25 105 3 6 22 16 42 22
54 18 42 44 -21 48 -30 2 -53 9 -58 18 -10 17 -47 19 -48 2z"/>
<path d="M20848 15503 c-83 -31 -154 -90 -167 -140 -18 -66 25 -128 109 -156
57 -19 92 -12 132 24 28 27 30 33 24 79 l-7 49 68 -5 c71 -5 107 6 87 26 -7 7
-46 16 -87 22 -59 9 -83 8 -107 -2 -28 -12 -31 -17 -26 -44 19 -102 19 -104
-3 -111 -35 -11 -108 29 -128 70 -16 33 -16 38 -1 63 25 41 86 80 156 98 59
14 65 14 82 -1 24 -22 40 -12 40 26 0 28 -1 29 -52 28 -31 0 -81 -11 -120 -26z"/>
<path d="M21486 15514 c-9 -8 -19 -27 -22 -42 -4 -15 -16 -49 -27 -75 -16 -38
-26 -49 -48 -54 -49 -10 -65 -53 -20 -53 10 0 25 -10 33 -22 l15 -22 27 31
c15 17 41 33 57 35 25 4 35 -3 70 -45 49 -58 114 -89 173 -85 54 4 63 33 14
43 -45 10 -88 32 -120 63 -34 31 -35 39 -5 47 116 33 147 73 81 104 -68 31
-164 3 -178 -53 -5 -21 -38 -41 -49 -29 -3 2 9 36 25 74 16 39 27 77 24 85 -7
19 -31 18 -50 -2z m178 -113 c7 -10 -17 -21 -45 -21 -19 0 -25 11 -12 23 9 10
51 8 57 -2z"/>
<path d="M16266 15453 c-71 -21 -139 -92 -156 -163 -16 -66 -14 -130 4 -174
20 -47 82 -114 129 -137 43 -22 44 -12 -9 -93 -19 -30 -15 -65 8 -79 23 -15
43 4 79 74 26 52 33 59 66 64 123 18 185 48 310 149 141 114 303 300 303 348
0 33 -24 18 -75 -45 -101 -127 -301 -294 -427 -358 -67 -34 -124 -40 -113 -11
22 57 45 177 45 242 0 162 -50 218 -164 183z m78 -59 c12 -11 16 -36 16 -92 0
-107 -37 -272 -62 -272 -23 0 -79 56 -103 103 -49 99 -21 202 70 258 37 23 59
24 79 3z"/>
<path d="M21149 15366 c-111 -59 -125 -69 -145 -108 -33 -63 17 -97 83 -57 21
13 57 38 81 57 l43 35 -7 -39 c-4 -30 -2 -43 10 -54 13 -10 20 -10 29 -1 13
13 35 124 36 184 1 49 -9 47 -130 -17z m-21 -81 c-26 -25 -54 -45 -63 -45 -23
0 -8 23 40 59 61 46 76 37 23 -14z"/>
<path d="M23540 15358 c-32 -12 -41 -28 -29 -50 18 -34 89 -20 89 18 0 30 -27
45 -60 32z"/>
<path d="M23302 15318 c-28 -28 -1 -75 37 -63 11 3 23 15 26 26 12 38 -35 65
-63 37z"/>
<path d="M20896 15128 c-19 -31 -37 -124 -30 -153 8 -33 -7 -37 -52 -15 -52
27 -123 26 -158 -1 -34 -27 -33 -60 2 -100 24 -27 37 -33 86 -37 31 -2 91 1
132 7 70 12 76 11 100 -8 32 -25 83 -27 130 -5 52 25 43 40 -23 39 -63 0 -79
16 -35 34 38 16 89 69 97 101 19 78 -136 84 -189 8 -9 -12 -16 -42 -16 -65 0
-37 -4 -45 -26 -53 -14 -6 -58 -10 -97 -10 -75 0 -117 16 -117 46 0 21 38 17
98 -11 92 -43 122 -31 122 46 0 26 9 76 20 111 11 34 20 69 20 76 0 21 -49 14
-64 -10z m168 -124 c25 -10 19 -29 -19 -63 -20 -17 -38 -31 -40 -31 -12 0 -3
70 11 84 17 18 24 19 48 10z"/>
<path d="M21255 15106 c-17 -12 -21 -29 -23 -111 -5 -120 1 -147 31 -143 23 3
22 -7 40 233 2 34 -18 43 -48 21z"/>
<path d="M21727 15032 c-81 -74 -111 -87 -120 -52 -7 28 -37 37 -53 16 -16
-23 -9 -44 28 -78 28 -27 28 -28 28 -147 0 -67 -9 -183 -19 -258 -11 -76 -22
-183 -26 -238 -4 -55 -13 -129 -20 -165 -15 -72 -7 -97 25 -80 27 14 48 119
60 295 6 87 15 176 20 199 5 23 12 91 15 151 6 102 10 116 48 195 23 47 55
104 71 127 52 75 14 98 -57 35z m-57 -123 c-7 -11 -14 -18 -17 -15 -8 8 5 36
17 36 7 0 7 -6 0 -21z"/>
<path d="M21476 15012 c-3 -5 -25 -7 -49 -5 -36 4 -48 1 -75 -22 -37 -31 -44
-78 -14 -94 17 -9 65 2 107 26 17 10 23 8 41 -14 15 -20 25 -24 43 -18 18 5
21 12 16 28 -4 12 -10 40 -13 62 -5 31 -12 41 -29 43 -11 2 -24 -1 -27 -6z
m-71 -62 c-3 -5 -10 -10 -16 -10 -5 0 -9 5 -9 10 0 6 7 10 16 10 8 0 12 -4 9
-10z"/>
<path d="M21947 14938 c-2 -7 0 -22 6 -32 14 -28 9 -302 -9 -418 -18 -125 -18
-164 2 -246 19 -76 37 -103 56 -84 9 9 8 28 -6 85 -19 77 -22 106 -17 177 l3
45 8 -35 c5 -21 4 -42 -2 -54 -14 -26 15 -50 43 -35 16 8 19 24 21 112 5 210
-3 287 -27 287 -13 0 -14 13 -9 80 6 75 5 82 -16 105 -26 27 -46 32 -53 13z"/>
<path d="M23130 14907 c0 -18 -9 -95 -20 -172 -11 -77 -22 -210 -25 -295 -3
-85 -8 -192 -10 -237 -5 -78 -4 -83 15 -83 31 0 37 29 43 231 3 102 16 265 28
362 18 139 20 182 11 202 -17 37 -42 32 -42 -8z"/>
<path d="M22622 14917 c-27 -32 3 -41 185 -53 169 -10 223 -7 223 15 0 18 -16
21 -172 36 -188 18 -223 18 -236 2z"/>
<path d="M20571 14857 c-6 -6 -11 -36 -11 -66 0 -31 -7 -112 -17 -180 -14
-112 -19 -128 -45 -154 -30 -32 -36 -65 -15 -86 8 -8 12 -45 12 -109 0 -97 0
-97 25 -97 24 0 25 4 32 73 3 40 8 75 10 77 1 2 37 -3 78 -11 98 -19 255 -15
255 6 0 12 -25 17 -125 26 -69 6 -142 16 -162 23 -36 12 -38 14 -38 58 0 40 2
44 18 37 22 -11 518 -7 642 6 182 18 240 20 240 10 0 -5 -42 -31 -92 -56 -111
-56 -148 -80 -148 -100 0 -25 26 -16 164 57 185 96 188 111 33 174 -61 26
-105 51 -130 77 -39 39 -71 49 -80 24 -7 -17 65 -87 118 -114 22 -12 36 -21
30 -22 -191 -10 -730 -28 -734 -24 -3 3 2 10 12 16 46 25 122 96 125 116 6 38
-27 26 -87 -31 -31 -30 -67 -59 -80 -66 -22 -12 -23 -12 -18 12 28 110 36 321
13 330 -7 3 -19 0 -25 -6z"/>
<path d="M22247 14772 c-93 -27 -127 -76 -95 -135 18 -34 40 -46 85 -47 48 0
80 12 141 53 39 26 43 27 49 10 22 -62 34 -84 45 -81 32 11 18 117 -20 159
-15 16 -33 36 -40 44 -17 20 -90 18 -165 -3z m137 -38 c10 -26 7 -31 -36 -63
-64 -47 -158 -39 -158 13 0 45 178 91 194 50z"/>
<path d="M22710 14755 c-25 -8 -50 -22 -57 -32 -19 -24 -16 -67 5 -93 15 -19
25 -22 54 -16 20 4 52 17 72 31 34 23 35 23 41 4 12 -38 55 -14 55 31 0 14 -9
40 -20 58 -17 28 -25 32 -62 31 -24 0 -63 -7 -88 -14z m85 -34 c7 -12 -56 -61
-78 -61 -11 0 -17 8 -17 25 0 19 7 26 33 34 43 12 55 13 62 2z"/>
<path d="M16027 14753 c-11 -10 -8 -51 3 -58 21 -13 9 -34 -22 -40 -86 -19
-123 -76 -116 -179 12 -168 144 -305 240 -249 75 44 81 110 28 277 -16 50 -27
92 -24 95 6 7 378 -365 426 -426 41 -54 58 -59 58 -18 0 38 -75 126 -315 373
-219 224 -253 251 -278 225z m61 -205 c27 -93 36 -165 28 -222 -9 -60 -33 -61
-79 -3 -49 60 -68 101 -74 161 -8 81 22 122 98 135 3 1 16 -32 27 -71z"/>
<path d="M22582 14708 c-17 -21 3 -46 25 -32 10 6 18 17 18 25 0 19 -29 23
-43 7z"/>
<path d="M22373 14513 c-7 -2 -13 -13 -13 -24 0 -17 8 -19 86 -19 47 0 117 -5
155 -12 53 -8 73 -8 82 1 19 19 -13 39 -83 50 -66 11 -205 13 -227 4z"/>
<path d="M22365 14420 c-10 -16 3 -29 43 -40 74 -20 194 -9 169 17 -7 6 -153
33 -184 33 -12 0 -25 -4 -28 -10z"/>
<path d="M22442 14318 c-5 -7 -13 -48 -17 -90 -6 -68 -4 -79 10 -84 9 -4 23 0
31 8 20 19 36 135 23 160 -11 21 -32 24 -47 6z"/>
<path d="M15782 14077 c-19 -22 -32 -67 -42 -141 -13 -90 -18 -106 -34 -106
-7 0 -52 36 -99 81 -65 60 -92 80 -109 77 -15 -2 -24 -11 -26 -27 -5 -29 73
-105 155 -152 30 -17 57 -37 59 -43 3 -7 -2 -32 -11 -56 -22 -63 -30 -179 -15
-224 15 -45 53 -74 75 -56 23 19 27 46 10 85 -20 48 -21 178 -1 194 17 14 84
-36 168 -127 56 -61 77 -74 79 -49 3 27 -4 43 -27 68 -27 29 -30 46 -9 73 9
12 15 42 15 77 0 45 -7 71 -34 125 -19 38 -33 70 -31 72 2 2 43 -2 92 -9 111
-15 157 -7 200 36 18 18 33 38 33 44 0 22 -29 23 -55 3 -39 -31 -77 -35 -167
-17 -142 28 -158 34 -168 61 -10 26 -41 32 -58 11z m72 -153 c27 -26 33 -46
40 -121 8 -80 1 -90 -34 -45 -33 41 -50 89 -50 138 0 48 15 57 44 28z"/>
<path d="M21638 13845 c-3 -3 -47 -8 -99 -11 -51 -3 -96 -7 -100 -9 -3 -3 -45
0 -91 6 -75 9 -95 8 -166 -10 -97 -25 -210 -27 -269 -5 l-42 16 -36 -35 c-33
-32 -34 -35 -15 -40 11 -3 84 -3 162 0 108 3 154 9 188 23 42 17 59 18 180 9
78 -5 145 -6 160 -1 97 35 103 35 117 16 7 -10 13 -38 13 -62 0 -44 61 -487
80 -578 13 -64 38 -301 50 -478 6 -78 13 -361 16 -631 8 -832 13 -917 48 -963
7 -10 25 -12 70 -6 34 4 72 7 86 6 36 -2 53 12 45 37 -5 18 -12 21 -41 16 -19
-3 -49 -7 -66 -10 -18 -2 -39 -1 -47 4 -16 10 -15 -12 -25 941 -4 294 -11 587
-16 650 -21 238 -32 338 -51 450 -11 63 -26 167 -35 230 -17 136 -62 402 -70
424 -6 15 -35 22 -46 11z"/>
<path d="M23210 13778 c1 -29 5 -73 10 -98 40 -185 40 -231 0 -500 -32 -220
-39 -427 -21 -600 9 -82 21 -532 27 -1045 1 -137 7 -275 13 -305 20 -108 23
-120 31 -120 4 0 6 26 4 58 -14 186 -17 330 -12 495 2 70 3 129 1 131 -7 6
-18 403 -14 461 2 17 0 109 -3 205 -15 496 -10 626 30 798 22 93 19 282 -6
383 -11 45 -20 94 -20 110 0 35 -16 79 -30 79 -6 0 -10 -23 -10 -52z"/>
<path d="M20676 13783 c-10 -25 8 -36 45 -28 l33 7 -23 19 c-29 23 -47 24 -55
2z"/>
<path d="M29588 13715 c-5 -9 -4 -44 5 -160 2 -27 0 -99 -4 -160 -5 -60 -12
-180 -15 -265 -3 -85 -8 -175 -12 -200 -8 -61 -10 -499 -3 -583 4 -38 3 -105
-1 -150 -5 -45 -11 -226 -14 -402 -2 -176 -6 -372 -7 -437 -1 -64 2 -120 6
-124 15 -15 27 20 28 76 3 532 9 767 19 844 7 53 10 124 6 171 -9 121 -12 466
-4 585 21 312 27 484 23 612 -4 137 -15 213 -27 193z"/>
<path d="M21950 13685 c-11 -30 2 -336 20 -485 6 -41 12 -120 15 -175 3 -55 8
-107 11 -117 2 -9 7 -263 10 -565 6 -597 8 -685 18 -905 3 -81 6 -179 6 -218
0 -68 1 -70 25 -70 23 0 25 3 24 43 -1 23 -1 104 0 179 2 75 0 141 -3 147 -4
5 -9 117 -11 248 -3 130 -10 276 -15 324 -6 48 -7 163 -4 255 10 286 4 529
-20 754 -9 91 -21 224 -25 295 -5 72 -14 145 -21 163 -9 25 -10 43 -1 79 10
39 10 49 -3 61 -14 14 -16 12 -26 -13z"/>
<path d="M30699 13695 c-1 -6 0 -14 1 -20 2 -8 10 -115 12 -165 0 -8 4 -49 9
-90 4 -41 11 -169 14 -284 3 -114 7 -212 10 -216 3 -5 8 -48 10 -97 28 -479
47 -636 82 -664 21 -18 28 17 14 70 -6 25 -14 66 -17 91 -3 24 -10 50 -16 57
-6 7 -7 20 -4 29 3 9 1 76 -5 148 -7 72 -13 165 -15 206 -3 93 -13 217 -19
250 -3 14 -6 97 -6 185 0 88 -4 187 -9 220 -5 33 -14 105 -19 159 -7 65 -15
105 -25 115 -9 8 -17 11 -17 6z"/>
<path d="M20932 13603 c-43 -46 -55 -55 -62 -43 -5 8 -10 20 -10 27 0 6 -9 15
-21 18 -50 16 -169 -160 -169 -251 0 -43 19 -74 45 -74 7 0 38 27 68 60 31 33
58 60 60 60 4 0 23 -810 21 -945 -1 -121 -32 -574 -44 -655 -15 -96 -30 -701
-19 -722 11 -20 34 -24 44 -8 3 5 8 126 11 267 2 142 9 303 14 358 54 520 58
707 34 1560 l-7 220 48 57 c26 32 51 55 55 53 5 -3 23 -42 40 -88 37 -94 72
-147 101 -147 24 0 24 20 0 68 -10 20 -29 68 -42 105 -26 74 -71 137 -97 137
-9 0 -40 -26 -70 -57z m-92 -92 c0 -22 -14 -45 -56 -91 -31 -33 -59 -59 -61
-56 -9 9 48 120 74 149 34 35 43 34 43 -2z"/>
<path d="M15256 13421 c-28 -31 -6 -79 68 -149 110 -103 227 -172 396 -235
124 -46 207 -64 222 -49 19 19 -7 39 -80 63 -211 68 -502 253 -550 348 -21 43
-33 47 -56 22z"/>
<path d="M4080 13331 c-5 -11 -16 -57 -23 -103 l-13 -83 -65 2 c-35 1 -96 7
-136 14 -39 6 -79 9 -87 6 -19 -8 -21 -43 -3 -50 14 -5 173 -25 237 -30 l35
-2 1 -223 0 -224 -23 -9 c-42 -16 -21 -59 29 -59 48 0 52 23 53 265 0 121 4
226 8 233 6 8 39 12 105 12 191 1 362 27 362 55 0 22 -30 26 -131 15 -52 -5
-145 -10 -206 -10 -131 0 -125 -7 -97 110 9 38 14 75 11 84 -9 22 -44 20 -57
-3z"/>
<path d="M2711 13151 c-16 -10 -6 -31 14 -31 14 0 27 24 18 34 -8 8 -15 7 -32
-3z"/>
<path d="M2790 13150 c-29 -18 3 -28 80 -25 44 1 80 0 80 -4 0 -4 24 -7 54 -7
49 0 53 2 47 19 -7 18 -20 20 -128 22 -66 2 -126 0 -133 -5z"/>
<path d="M5286 13128 c-64 -148 -87 -188 -132 -231 -65 -62 -98 -76 -126 -51
-28 25 -55 88 -63 149 -9 60 -19 81 -46 95 -31 17 -57 3 -145 -79 -45 -42 -92
-83 -106 -93 -14 -9 -30 -35 -37 -59 -11 -38 -11 -44 4 -55 25 -18 36 -10 96
64 83 104 130 152 149 152 12 0 20 -14 29 -54 37 -167 124 -226 232 -158 53
34 111 97 137 149 48 95 64 191 35 200 -7 3 -19 -10 -27 -29z"/>
<path d="M2437 13142 c-36 -4 -30 -25 9 -27 38 -3 115 15 109 25 -5 8 -58 9
-118 2z"/>
<path d="M2615 13140 c-3 -5 3 -10 15 -10 12 0 18 5 15 10 -3 6 -10 10 -15 10
-5 0 -12 -4 -15 -10z"/>
<path d="M2265 13131 c-19 -31 91 -35 116 -5 10 12 2 14 -49 14 -34 0 -63 -4
-67 -9z"/>
<path d="M2004 13120 c-96 -7 -114 -13 -114 -36 0 -17 85 -20 95 -4 3 6 27 10
53 11 26 1 58 4 72 8 14 4 45 4 70 0 43 -6 66 3 54 23 -6 9 -94 8 -230 -2z"/>
<path d="M3110 13112 c0 -5 7 -13 16 -16 25 -10 74 -7 74 4 0 6 -6 10 -14 10
-7 0 -28 3 -45 6 -18 4 -31 2 -31 -4z"/>
<path d="M5540 13104 c-58 -25 -99 -63 -126 -116 -32 -63 -28 -122 11 -179 83
-118 386 -237 580 -227 46 2 61 7 63 20 3 13 -9 17 -65 23 -153 14 -330 67
-425 127 -53 33 -54 48 -5 48 103 1 260 149 242 230 -6 29 -34 59 -72 79 -31
16 -161 13 -203 -5z m198 -56 c27 -27 14 -70 -34 -116 -75 -71 -153 -97 -218
-72 -23 8 -26 15 -26 55 0 39 5 50 38 83 21 21 53 43 72 49 48 15 153 16 168
1z"/>
<path d="M3240 13090 c0 -6 5 -10 11 -10 7 0 17 -8 24 -17 11 -15 17 -15 40
-5 28 13 40 10 40 -11 0 -7 16 -12 39 -12 29 0 40 5 44 17 8 32 10 32 -135 42
-37 3 -63 1 -63 -4z"/>
<path d="M1785 13051 c-3 -5 -19 -12 -36 -16 -37 -8 -58 -50 -36 -72 12 -12
19 -11 48 6 19 12 42 21 53 21 12 0 16 5 13 15 -4 8 -2 17 3 20 6 4 10 13 10
21 0 16 -45 20 -55 5z"/>
<path d="M1878 13013 c7 -3 16 -2 19 1 4 3 -2 6 -13 5 -11 0 -14 -3 -6 -6z"/>
<path d="M15579 12867 c-37 -24 -89 -115 -89 -156 0 -13 -9 -35 -21 -47 l-20
-21 29 -61 c30 -62 100 -159 145 -200 14 -13 43 -26 66 -29 36 -5 44 -2 75 29
59 59 73 164 41 302 -41 170 -133 245 -226 183z m109 -75 c32 -58 52 -147 52
-237 0 -80 -13 -124 -38 -133 -16 -5 -102 82 -102 103 0 7 -9 29 -19 47 -42
72 -35 185 14 234 36 36 67 31 93 -14z"/>
<path d="M15217 12564 c-18 -19 29 -179 85 -292 23 -45 72 -121 109 -170 220
-282 216 -274 108 -229 -176 73 -316 174 -339 243 -10 29 -16 35 -37 32 -32
-4 -48 -27 -40 -59 9 -37 69 -109 126 -152 94 -72 316 -167 390 -167 43 0 56
11 64 55 9 54 -16 96 -153 255 -129 149 -209 281 -258 430 -18 51 -38 71 -55
54z"/>
<path d="M30840 12096 c0 -17 5 -26 16 -26 10 0 14 7 12 22 -5 32 -28 35 -28
4z"/>
<path d="M30843 12016 c0 -17 4 -36 9 -42 6 -9 15 -165 19 -379 0 -5 -3 -62
-7 -125 -7 -119 -7 -191 1 -199 20 -19 24 47 28 429 2 213 -7 304 -33 330 -16
16 -17 15 -17 -14z"/>
<path d="M4262 11740 c-99 -21 -192 -97 -267 -219 l-39 -63 -92 6 c-75 6 -93
4 -104 -9 -24 -29 5 -45 86 -45 40 0 75 -4 78 -9 4 -5 -3 -38 -15 -73 -26 -80
-36 -226 -19 -267 13 -32 45 -50 61 -34 6 6 5 22 -2 42 -21 60 10 285 44 318
13 14 30 14 124 4 59 -6 141 -11 181 -11 39 0 72 -2 72 -6 0 -3 -27 -30 -60
-61 -33 -30 -60 -61 -60 -68 0 -24 40 -48 91 -53 64 -6 162 31 234 88 69 55
94 67 104 51 5 -7 11 -51 15 -97 8 -101 28 -169 59 -208 19 -23 31 -29 65 -29
47 0 72 16 72 45 0 16 -4 19 -22 13 -49 -15 -62 -11 -79 25 -20 42 -53 290
-44 331 4 17 1 30 -7 35 -25 16 -171 15 -223 -3 -42 -14 -76 -15 -235 -9 -162
7 -212 9 -242 15 -31 5 34 106 103 161 27 21 74 48 104 59 79 30 137 27 213
-9 73 -34 85 -36 102 -15 44 53 -171 122 -298 95z m368 -346 c0 -3 -14 -17
-31 -32 -101 -84 -252 -147 -274 -113 -12 20 151 125 220 142 37 9 85 11 85 3z"/>
<path d="M5182 11657 c-20 -24 -31 -101 -43 -299 -10 -177 -10 -203 6 -266 16
-65 46 -114 62 -99 3 4 1 45 -7 93 -7 51 -10 116 -6 162 13 152 28 268 42 331
11 48 12 66 3 77 -14 18 -43 18 -57 1z"/>
<path d="M1524 11565 c-16 -25 -16 -27 3 -53 11 -15 30 -32 41 -38 12 -6 31
-19 42 -29 17 -15 22 -16 36 -4 11 9 51 14 123 15 97 2 541 -11 686 -21 146
-9 238 -18 350 -31 154 -18 224 -18 250 2 16 12 39 14 126 8 107 -6 155 2 127
22 -33 24 -166 54 -308 68 -85 9 -198 20 -250 26 -183 19 -344 26 -852 39
-185 5 -341 12 -347 15 -5 4 -18 -5 -27 -19z"/>
<path d="M5510 11335 c-147 -42 -184 -100 -84 -133 438 -143 452 -151 388
-243 -36 -53 -95 -88 -166 -101 -54 -9 -66 -8 -95 8 -30 15 -36 16 -44 3 -12
-20 -12 -24 12 -45 17 -15 36 -19 98 -19 99 0 174 34 231 106 72 91 74 150 7
197 -34 22 -57 31 -270 98 -64 20 -120 40 -123 45 -2 5 21 16 53 26 56 17 80
17 283 10 44 -2 55 1 58 14 5 27 -52 41 -178 45 -83 3 -131 0 -170 -11z"/>
<path d="M6310 11272 c-72 -24 -112 -46 -155 -83 -32 -29 -39 -30 -85 -24 -42
6 -51 4 -57 -11 -4 -12 -1 -21 11 -28 46 -28 47 -30 36 -63 -18 -52 3 -133 48
-182 46 -51 174 -128 290 -174 105 -42 145 -49 150 -26 2 11 -12 21 -45 34
-112 42 -255 119 -304 163 -81 73 -102 150 -54 197 21 22 33 25 90 25 124 0
278 43 318 88 24 26 19 50 -16 76 -39 29 -151 33 -227 8z m175 -51 c8 -15 -24
-29 -117 -51 -88 -21 -148 -26 -148 -11 0 8 98 55 135 64 37 9 124 7 130 -2z"/>
<path d="M29534 11205 c-8 -21 0 -352 9 -361 4 -4 10 -4 13 -1 9 9 18 319 10
351 -7 29 -23 34 -32 11z"/>
<path d="M30845 11198 c-5 -15 -16 -132 -18 -197 -3 -62 19 -64 27 -3 14 109
17 212 6 212 -6 0 -13 -6 -15 -12z"/>
<path d="M22400 11169 c-30 -5 -114 -12 -187 -15 -105 -5 -133 -10 -138 -22
-3 -8 -2 -19 2 -23 18 -18 151 -21 270 -5 176 23 223 22 473 -14 136 -20 413
-30 428 -16 10 9 10 15 -1 30 -11 15 -36 19 -168 26 -85 5 -212 18 -283 29
-134 22 -294 26 -396 10z"/>
<path d="M21966 11005 c-22 -22 -20 -35 4 -35 23 0 38 26 23 41 -7 7 -16 5
-27 -6z"/>
<path d="M21775 10990 c-18 -7 -18 -8 -2 -14 42 -15 50 -15 68 -5 15 7 24 7
34 -1 11 -9 16 -7 25 9 10 20 8 21 -47 20 -32 0 -67 -4 -78 -9z"/>
<path d="M21595 10978 c-138 -13 -169 -21 -173 -41 -5 -22 44 -24 69 -1 14 13
26 14 74 5 64 -12 136 1 169 31 19 18 19 18 -15 17 -19 -1 -74 -6 -124 -11z"/>
<path d="M24542 10939 c-55 -10 -69 -19 -50 -30 8 -5 39 -4 69 0 32 5 76 5
109 -1 54 -9 190 -11 199 -2 2 2 2 6 0 8 -5 5 -103 15 -184 20 -22 1 -53 5
-70 8 -16 3 -49 2 -73 -3z"/>
<path d="M17680 10926 c0 -9 5 -16 10 -16 6 0 10 4 10 9 0 6 -4 13 -10 16 -5
3 -10 -1 -10 -9z"/>
<path d="M21300 10933 c-19 -2 -90 -10 -156 -19 -102 -14 -140 -14 -238 -5
-65 6 -122 8 -128 5 -6 -4 -36 -10 -67 -13 -52 -6 -56 -8 -59 -34 -4 -35 15
-43 60 -24 45 19 193 33 202 19 12 -20 89 -23 146 -7 30 8 95 18 143 21 140 8
171 16 175 42 4 23 4 23 -78 15z"/>
<path d="M24168 10928 c-27 -17 16 -29 84 -23 43 4 75 2 89 -5 14 -8 41 -10
75 -5 58 7 76 28 22 25 -18 -1 -37 -1 -43 1 -41 10 -214 16 -227 7z"/>
<path d="M24935 10930 c-3 -5 -4 -14 -1 -18 9 -15 113 -35 147 -28 107 20 127
19 175 -9 43 -25 56 -28 147 -27 95 0 134 10 106 28 -7 4 -33 8 -58 10 -25 1
-64 7 -86 12 -136 34 -193 41 -258 32 -43 -6 -75 -6 -92 0 -34 13 -72 13 -80
0z"/>
<path d="M30817 10928 c-7 -19 4 -78 14 -78 5 0 9 20 9 45 0 42 -12 60 -23 33z"/>
<path d="M23254 10919 c-3 -5 0 -17 7 -25 14 -17 103 -15 208 5 39 7 60 7 75
-1 44 -24 425 -27 480 -4 20 8 36 18 36 21 0 3 -89 5 -197 4 -109 -1 -289 1
-400 4 -130 4 -205 2 -209 -4z"/>
<path d="M25616 10884 c-8 -20 -8 -19 27 -28 27 -6 32 0 21 28 -8 21 -40 21
-48 0z"/>
<path d="M17172 10878 c-18 -18 -14 -46 7 -57 12 -7 80 -8 192 -3 149 6 174 9
177 23 2 13 -10 19 -60 27 -102 18 -302 24 -316 10z"/>
<path d="M19545 10831 c-3 -2 -72 -3 -154 -3 -117 0 -153 -3 -162 -14 -13 -16
-49 -19 -49 -4 0 6 -89 10 -232 10 -128 1 -254 3 -280 6 -26 2 -67 0 -90 -5
-25 -6 -45 -6 -48 -1 -7 11 -70 8 -89 -5 -37 -22 106 -35 279 -25 8 1 47 -3
85 -9 39 -5 138 -8 220 -7 204 4 195 4 330 21 66 8 161 15 211 15 94 0 154 7
154 19 0 7 -169 9 -175 2z"/>
<path d="M17667 10823 c-4 -3 -7 -66 -7 -139 0 -85 -4 -135 -11 -140 -17 -10
-811 15 -1169 37 -278 17 -503 39 -677 65 -41 6 -43 6 -43 -19 0 -60 83 -77
480 -102 426 -28 561 -34 985 -46 231 -6 422 -13 424 -15 3 -3 -1 -66 -7 -142
-12 -142 -24 -426 -42 -1032 -6 -196 -13 -369 -15 -385 -9 -72 -17 -314 -11
-339 5 -22 11 -27 34 -24 l27 3 0 90 c1 50 6 158 13 240 6 83 16 337 22 565 8
339 22 759 33 985 l2 40 130 0 c72 0 299 -6 505 -14 413 -15 1252 -11 2015 9
475 13 2095 7 2712 -10 955 -27 2449 -99 3103 -150 492 -39 1438 -114 1635
-130 66 -6 280 -22 475 -35 1118 -79 1697 -144 2307 -261 140 -27 193 -33 234
-28 58 8 99 38 99 74 0 24 -20 26 -62 4 -19 -10 -43 -14 -62 -11 -17 3 -98 17
-181 32 -527 92 -842 133 -1330 175 -490 42 -632 53 -1395 106 -41 2 -129 9
-195 14 -66 6 -232 19 -370 30 -137 11 -331 27 -430 35 -99 8 -245 19 -325 25
-80 6 -167 13 -195 16 -229 20 -545 40 -1010 64 -110 6 -270 15 -355 20 -438
27 -1531 73 -2090 88 -386 10 -2650 9 -3030 -1 -423 -12 -1420 -10 -1625 2
-93 6 -243 11 -331 11 -89 0 -175 3 -193 6 l-31 6 1 134 c0 74 -3 139 -6 144
-7 11 -28 13 -38 3z"/>
<path d="M18298 10812 c7 -5 38 -9 70 -10 39 -1 52 2 42 8 -8 5 -40 10 -70 10
-32 0 -50 -4 -42 -8z"/>
<path d="M30842 10812 c-15 -5 -16 -28 -2 -37 6 -4 93 -11 193 -15 100 -5 252
-14 337 -19 85 -6 250 -11 365 -12 116 0 242 -1 280 -2 64 -2 70 0 70 18 0 17
-10 21 -75 29 -41 5 -145 9 -230 8 -85 -1 -281 5 -435 13 -345 18 -487 23
-503 17z"/>
<path d="M28888 10803 c-16 -2 -28 -8 -28 -12 0 -14 34 -39 64 -47 28 -7 45 5
46 32 0 10 -6 14 -45 27 -5 2 -22 2 -37 0z"/>
<path d="M28554 10755 c25 -19 31 -19 46 0 11 13 7 15 -26 15 -36 -1 -38 -2
-20 -15z"/>
<path d="M29373 10683 c9 -2 25 -2 35 0 9 3 1 5 -18 5 -19 0 -27 -2 -17 -5z"/>
<path d="M30802 10628 c2 -12 11 -24 21 -26 14 -3 18 1 15 20 -2 12 -11 24
-21 26 -14 3 -18 -1 -15 -20z"/>
<path d="M30834 10539 c-3 -6 1 -18 10 -27 18 -18 16 -18 266 -13 87 2 208 -2
276 -9 129 -15 165 -11 144 15 -9 11 -16 12 -25 5 -6 -5 -15 -6 -19 -2 -4 4
-29 8 -54 8 -26 1 -55 5 -65 9 -9 4 -29 5 -42 2 -14 -2 -47 0 -73 5 -53 10
-199 11 -308 2 -47 -4 -74 -2 -78 5 -9 14 -23 14 -32 0z"/>
<path d="M31604 10488 c-8 -13 14 -17 147 -22 125 -5 174 2 156 21 -10 9 -297
11 -303 1z"/>
<path d="M31932 10478 c3 -9 37 -15 99 -19 52 -4 153 -16 224 -28 72 -12 154
-24 183 -27 29 -2 84 -11 123 -19 83 -18 79 -17 79 -5 0 11 -52 25 -150 40
-41 6 -106 17 -145 25 -222 44 -422 60 -413 33z"/>
<path d="M30352 10308 c-46 -46 7 -78 408 -243 230 -94 337 -147 385 -188 l37
-32 -22 -27 c-29 -38 -439 -233 -620 -295 -24 -8 -67 -25 -95 -38 -68 -31
-170 -63 -230 -72 -59 -10 -75 -38 -29 -49 33 -8 167 17 245 47 30 11 83 31
119 44 196 71 486 196 574 247 62 36 93 64 112 100 22 43 17 65 -26 112 -49
54 -168 115 -450 231 -113 47 -224 99 -247 115 -75 54 -137 72 -161 48z"/>
<path d="M28219 9219 c-17 -32 -4 -317 21 -439 21 -107 19 -113 -45 -105 -22
2 -76 7 -120 10 -44 4 -109 13 -144 21 -79 18 -103 12 -99 -23 7 -59 96 -83
310 -83 70 0 129 -4 132 -9 8 -12 28 -184 30 -251 2 -64 20 -73 47 -25 18 33
15 78 -14 210 -9 38 -13 73 -9 77 4 4 73 12 152 18 80 6 201 17 270 24 141 16
177 13 186 -16 3 -11 3 -61 -1 -112 -6 -76 -4 -94 8 -105 11 -9 21 -10 35 -2
21 11 32 80 32 202 0 101 -4 104 -165 95 -71 -4 -146 -9 -165 -11 -19 -2 -110
-7 -202 -11 l-167 -7 -5 24 c-13 64 -30 288 -30 404 -1 126 -2 130 -23 133
-14 2 -26 -4 -34 -19z"/>
<path d="M17212 9088 c-17 -17 -15 -24 12 -50 24 -23 39 -79 66 -238 12 -70
62 -291 87 -380 20 -74 45 -100 98 -100 56 0 88 24 260 199 77 78 191 185 254
239 155 131 214 189 206 201 -14 24 -48 8 -132 -61 -49 -40 -111 -91 -138
-112 -28 -22 -121 -110 -207 -197 -159 -160 -233 -223 -250 -213 -26 16 -82
242 -113 459 -13 97 -30 186 -36 198 -31 59 -78 84 -107 55z"/>
<path d="M28994 8979 c-65 -20 -81 -38 -64 -70 17 -30 55 -33 120 -9 70 26 87
52 54 84 -20 20 -34 19 -110 -5z"/>
<path d="M29236 8668 c-16 -55 -26 -131 -26 -189 0 -107 34 -169 91 -169 39 0
138 92 180 166 16 28 41 61 55 75 l26 24 19 -24 c16 -20 26 -80 20 -115 -1 -5
3 -31 9 -58 13 -53 56 -98 94 -98 46 0 141 59 210 130 38 38 77 70 87 70 13 0
21 -12 29 -42 22 -85 31 -104 73 -151 33 -38 57 -53 110 -72 79 -29 131 -31
227 -9 l69 15 65 -46 c99 -71 330 -178 394 -183 47 -4 54 -2 50 13 -2 11 -25
25 -63 39 -122 45 -365 189 -365 217 0 4 27 34 59 67 46 45 63 71 75 112 37
126 -31 224 -141 204 -157 -28 -216 -164 -138 -317 15 -32 26 -60 22 -63 -3
-3 -35 -9 -71 -11 -53 -5 -78 -1 -128 17 -35 12 -75 31 -90 42 -38 26 -74 91
-87 158 -25 120 -79 120 -196 0 -79 -81 -132 -120 -165 -120 -45 0 -59 26 -64
120 -8 131 -28 170 -88 170 -40 0 -74 -32 -136 -126 -55 -84 -104 -134 -131
-134 -31 0 -38 95 -15 231 4 26 1 40 -11 52 -19 20 -44 22 -49 5z m1426 -125
c29 -34 29 -65 1 -121 -31 -61 -95 -124 -118 -116 -20 8 -50 59 -65 111 -16
53 -2 94 44 123 40 26 117 27 138 3z"/>
<path d="M23576 212 c-3 -5 -9 -55 -12 -111 -7 -96 -6 -101 13 -101 18 0 19 7
19 104 -1 99 -7 129 -20 108z"/>
</g>
</svg>
