<?xml version="1.0" standalone="no"?>
<!DOCTYPE svg PUBLIC "-//W3C//DTD SVG 20010904//EN"
 "http://www.w3.org/TR/2001/REC-SVG-20010904/DTD/svg10.dtd">
<svg version="1.0" xmlns="http://www.w3.org/2000/svg"
 width="2448.000000pt" height="3264.000000pt" viewBox="0 0 2448.000000 3264.000000"
 preserveAspectRatio="xMidYMid meet">
<metadata>
Created by potrace 1.12, written by Peter Selinger 2001-2015
</metadata>
<g transform="translate(0.000000,3264.000000) scale(0.100000,-0.100000)"
fill="#000000" stroke="none">
<path d="M19875 32380 c4 -6 11 -8 16 -5 14 9 11 15 -7 15 -8 0 -12 -5 -9 -10z"/>
<path d="M2640 32170 c0 -5 5 -10 10 -10 6 0 10 5 10 10 0 6 -4 10 -10 10 -5
0 -10 -4 -10 -10z"/>
<path d="M2655 32101 c-3 -5 -1 -12 5 -16 5 -3 10 1 10 9 0 18 -6 21 -15 7z"/>
<path d="M12068 25476 c-73 -30 -174 -102 -231 -166 -90 -100 -181 -255 -237
-404 l-32 -84 -61 -12 c-85 -16 -222 -67 -242 -90 -19 -21 -13 -40 12 -40 9 0
21 -8 28 -17 11 -15 17 -14 61 14 63 40 130 59 150 42 18 -14 11 -58 -15 -104
-10 -16 -30 -64 -46 -105 -29 -77 -80 -176 -96 -186 -5 -3 -9 -12 -9 -20 0
-24 35 -16 56 14 36 50 122 237 179 392 12 31 18 36 56 41 62 8 196 -7 225
-26 29 -19 29 -26 4 -107 -30 -90 -37 -196 -17 -235 36 -69 174 -96 289 -55
168 60 278 188 264 308 -7 57 -30 120 -54 148 -56 62 -194 76 -309 30 l-65
-26 -51 22 c-38 16 -81 23 -159 27 -69 4 -108 10 -108 17 0 6 24 54 54 106 29
52 66 118 81 145 45 80 208 235 287 274 58 29 73 32 116 26 39 -5 53 -3 66 10
23 23 20 40 -10 64 -37 29 -112 27 -186 -3z m154 -746 c23 -7 48 -24 64 -45
85 -112 -57 -268 -257 -282 -89 -7 -107 29 -74 148 42 149 46 157 73 168 56
21 139 26 194 11z"/>
<path d="M6193 25366 c-72 -79 -121 -157 -149 -239 -41 -119 -105 -377 -111
-449 -3 -38 -11 -72 -17 -77 -7 -6 -36 6 -84 36 -81 51 -148 65 -202 43 -43
-18 -124 -110 -138 -157 -28 -93 -3 -202 54 -240 24 -16 49 -18 189 -17 132 0
172 4 230 21 99 30 197 72 218 94 9 10 34 23 55 29 44 14 113 59 120 79 7 20
-29 11 -198 -48 -286 -100 -479 -117 -548 -47 -20 20 -26 35 -26 75 -1 63 27
105 72 109 44 4 166 -58 224 -115 43 -42 68 -49 68 -19 0 8 9 33 19 57 11 24
40 127 66 229 48 197 104 376 138 450 12 24 50 72 84 106 67 65 68 68 53 108
-7 20 -17 26 -39 26 -22 0 -40 -12 -78 -54z"/>
<path d="M8098 25273 c-8 -10 -24 -56 -35 -103 -12 -47 -43 -173 -71 -280 -28
-107 -57 -230 -64 -274 -7 -43 -18 -80 -24 -83 -7 -2 -45 11 -86 30 -79 37
-182 71 -265 86 -64 13 -111 0 -153 -39 l-32 -30 5 -103 c12 -267 129 -386
335 -342 94 20 195 52 269 86 35 16 68 29 73 29 5 0 34 12 64 27 38 18 58 36
70 60 9 18 16 36 16 39 0 8 -36 -4 -98 -32 -75 -34 -298 -100 -385 -114 -54
-9 -83 -9 -114 -1 -72 19 -92 52 -118 187 -19 101 -15 131 18 139 33 9 263
-70 337 -115 37 -22 76 -40 87 -40 23 0 61 41 68 74 3 12 35 140 71 286 113
448 121 500 85 520 -27 14 -36 13 -53 -7z"/>
<path d="M10166 25267 c-19 -19 -24 -38 -30 -113 -4 -49 -16 -163 -27 -254
-52 -437 -49 -672 9 -695 21 -8 25 23 8 65 -11 27 -14 55 -10 83 16 117 38
248 69 402 79 396 92 483 76 514 -16 29 -65 28 -95 -2z"/>
<path d="M4291 25245 c-34 -8 -151 -44 -259 -80 -230 -78 -267 -85 -311 -59
-30 18 -31 18 -57 -2 -16 -12 -33 -38 -41 -66 -11 -40 -20 -50 -66 -76 -28
-16 -67 -43 -85 -60 -78 -73 4 -143 85 -72 18 17 42 30 52 30 18 0 24 -76 35
-429 1 -42 0 -43 -43 -60 -55 -20 -86 -59 -77 -95 8 -31 40 -46 98 -46 l41 0
-7 -37 c-3 -21 -11 -89 -17 -152 -7 -78 -16 -126 -30 -154 -19 -36 -19 -41 -5
-56 15 -14 19 -14 44 -1 45 26 64 100 69 276 l5 151 147 72 c80 39 187 93 237
120 130 69 216 161 152 161 -29 0 -85 -22 -273 -105 -158 -70 -242 -102 -249
-94 -3 3 -7 118 -10 257 l-5 252 23 15 c12 8 47 23 77 34 29 11 95 36 144 56
50 20 124 50 165 67 41 16 98 41 125 55 28 14 71 36 98 49 26 13 47 28 47 34
0 8 -33 31 -42 29 -2 0 -32 -7 -67 -14z"/>
<path d="M4681 25054 c-26 -33 -26 -49 -1 -74 28 -28 64 -25 89 6 26 33 27 56
3 77 -28 25 -67 21 -91 -9z"/>
<path d="M14012 25040 c-111 -26 -274 -211 -383 -432 -51 -106 -109 -258 -109
-289 0 -22 8 -34 31 -48 18 -11 37 -17 44 -14 15 5 31 42 39 91 17 97 134 335
224 456 189 251 223 180 116 -241 -36 -142 -40 -201 -14 -213 74 -37 68 -37
134 -1 80 44 131 87 186 155 25 31 63 78 84 104 46 55 123 174 142 217 7 17
26 45 41 64 25 30 32 32 50 22 12 -6 25 -21 30 -33 4 -13 8 -156 8 -318 1
-164 6 -308 11 -324 6 -16 22 -39 37 -50 24 -18 29 -18 42 -6 11 12 12 29 5
84 -6 50 -3 121 11 260 21 204 18 330 -7 423 -16 60 -43 83 -94 83 -69 0 -140
-65 -252 -230 -165 -243 -277 -370 -327 -370 -11 0 -21 3 -21 8 0 8 12 50 59
214 34 119 55 273 46 331 -11 60 -50 77 -133 57z"/>
<path d="M13159 24992 c-78 -50 -294 -230 -361 -300 -55 -59 -168 -216 -206
-289 -25 -46 29 -99 75 -75 10 6 38 49 63 97 88 172 179 267 460 478 59 44 79
79 60 102 -18 22 -40 19 -91 -13z"/>
<path d="M9543 24780 c-26 -10 -157 -115 -226 -180 -89 -82 -208 -286 -222
-377 l-7 -43 35 0 c22 0 37 -6 41 -15 14 -37 66 5 66 53 0 14 16 40 38 62 58
61 113 132 127 168 17 38 3 42 -22 7 -72 -102 -124 -148 -139 -124 -16 27 128
213 188 244 78 39 102 3 117 -176 10 -122 31 -169 85 -187 34 -11 41 -10 57 4
20 18 26 64 10 64 -24 0 -41 34 -41 81 0 49 -12 137 -35 259 -11 55 -10 69 2
93 22 44 14 72 -22 74 -16 1 -40 -2 -52 -7z"/>
<path d="M5184 24686 c-28 -13 -64 -40 -80 -60 -35 -44 -54 -45 -76 -6 -28 50
-70 34 -96 -35 -6 -16 -13 -68 -17 -115 -3 -47 -8 -110 -12 -142 -5 -55 -5
-57 25 -72 17 -9 37 -13 46 -10 18 7 40 61 56 137 9 43 23 72 53 109 59 72 92
95 112 78 19 -16 19 -60 -1 -224 -19 -157 -14 -176 45 -176 31 0 41 4 46 20 3
11 4 24 0 30 -3 5 3 66 15 135 33 204 24 316 -28 344 -28 15 -29 14 -88 -13z"/>
<path d="M8542 24646 c-47 -40 -64 -95 -69 -226 -5 -144 5 -167 93 -200 75
-28 111 -21 194 36 36 24 88 60 115 79 78 53 235 218 235 246 -1 64 -24 56
-131 -46 -104 -98 -159 -140 -242 -185 -122 -67 -167 -50 -167 62 0 37 10 88
27 139 21 61 25 84 17 97 -17 26 -38 25 -72 -2z"/>
<path d="M4502 24557 c-24 -26 -29 -52 -42 -236 -10 -155 -6 -171 46 -171 45
0 51 17 60 157 3 60 12 135 20 167 13 52 13 62 -1 82 -20 30 -55 31 -83 1z"/>
<path d="M12005 22426 c-45 -21 -148 -113 -205 -185 -181 -226 -320 -525 -371
-796 -19 -100 -17 -364 3 -438 33 -117 99 -192 198 -221 78 -23 190 6 190 50
0 18 -25 23 -98 23 -151 -1 -215 94 -228 336 -15 269 86 585 278 871 86 130
210 259 258 269 45 9 60 22 60 50 0 22 -28 55 -46 55 -5 -1 -22 -7 -39 -14z"/>
<path d="M19570 22144 c-6 -14 -10 -47 -10 -74 0 -53 -32 -265 -55 -365 -56
-242 -84 -532 -53 -563 22 -22 74 -14 92 13 21 32 20 47 -5 78 -25 33 -21 81
28 322 81 403 103 517 103 541 0 30 -41 74 -70 74 -13 0 -24 -10 -30 -26z"/>
<path d="M3627 22150 c-233 -40 -491 -199 -610 -374 -88 -130 -156 -345 -166
-526 -7 -130 -4 -127 -108 -129 -87 -2 -107 -41 -46 -88 29 -22 48 -28 92 -30
31 -1 59 -2 64 -2 4 -1 7 -30 7 -67 0 -74 56 -314 96 -410 32 -78 73 -124 112
-124 31 0 45 12 56 47 5 15 -1 30 -22 55 -42 48 -57 81 -86 193 -29 114 -69
300 -70 330 -1 16 13 25 69 45 100 36 676 325 763 384 87 57 174 158 201 230
53 144 23 329 -66 408 -54 48 -186 75 -286 58z m175 -90 c108 -30 154 -221 85
-356 -54 -104 -140 -165 -452 -318 -104 -52 -257 -127 -340 -167 -82 -41 -154
-76 -159 -78 -4 -2 -5 21 -2 50 48 395 133 569 342 705 218 141 401 198 526
164z"/>
<path d="M21262 22023 c-5 -10 -12 -63 -16 -118 -9 -146 -13 -156 -66 -169
-36 -9 -49 -18 -66 -50 -12 -22 -20 -45 -17 -52 3 -7 24 -17 46 -22 28 -6 41
-13 39 -23 -6 -33 -75 -218 -99 -268 -20 -40 -24 -57 -16 -70 13 -21 50 -26
70 -9 31 26 110 232 128 333 3 22 13 50 21 63 14 22 21 23 106 21 115 -4 121
-9 116 -101 -3 -57 -11 -82 -51 -160 l-48 -93 21 -17 c12 -10 28 -18 35 -18
27 0 64 43 101 117 37 74 39 83 39 170 0 91 0 92 -35 128 -54 56 -92 75 -163
82 -93 8 -93 9 -73 87 22 89 21 137 -4 164 -25 26 -56 28 -68 5z"/>
<path d="M922 21993 c-7 -2 -17 -13 -23 -24 -8 -16 -2 -34 31 -94 36 -65 42
-84 46 -157 3 -46 -1 -209 -9 -363 -16 -286 -11 -538 12 -598 12 -31 36 -35
49 -9 6 9 17 125 26 257 9 132 23 317 31 412 30 345 15 455 -74 551 -28 30
-56 38 -89 25z"/>
<path d="M21591 21861 c-30 -23 -23 -44 21 -71 41 -25 70 -25 92 -1 21 23 11
49 -28 75 -32 21 -55 20 -85 -3z"/>
<path d="M7150 21787 c-17 -9 -27 -24 -32 -52 -14 -79 -38 -362 -38 -451 0
-65 -4 -95 -14 -103 -20 -17 -103 -40 -171 -47 -33 -4 -72 -13 -87 -21 -74
-37 9 -109 107 -93 28 5 63 13 78 19 16 6 42 11 58 11 23 0 29 -5 30 -22 5
-85 8 -110 13 -116 14 -13 28 20 40 97 8 46 20 89 27 96 8 7 41 28 74 45 143
77 285 218 285 285 0 25 -18 18 -88 -38 -181 -143 -272 -190 -259 -134 3 12
13 81 22 152 9 72 22 168 29 215 14 88 9 119 -21 152 -19 21 -21 21 -53 5z"/>
<path d="M20705 21746 c-20 -22 -56 -44 -108 -65 -43 -17 -97 -44 -120 -60
-85 -59 -165 -160 -185 -235 -12 -41 4 -104 35 -138 55 -61 255 48 319 174 22
43 29 49 52 46 26 -3 28 -7 39 -83 28 -187 85 -229 192 -144 54 43 72 79 51
104 -18 22 -39 19 -82 -12 -37 -25 -40 -25 -56 -9 -15 15 -17 42 -17 217 0
199 0 201 -24 220 -34 28 -63 24 -96 -15z m21 -200 l-7 -46 -48 0 c-44 0 -51
-4 -108 -57 -33 -32 -74 -68 -91 -80 -31 -24 -76 -30 -102 -13 -13 8 -13 12 0
34 33 53 95 109 191 173 153 102 142 97 158 64 9 -20 11 -44 7 -75z"/>
<path d="M7723 21744 c-7 -3 -29 -35 -49 -70 -27 -49 -35 -72 -31 -94 4 -16 0
-50 -8 -77 -21 -72 -115 -549 -122 -621 -7 -70 7 -96 57 -107 49 -11 94 17
160 102 185 235 184 235 238 138 56 -101 108 -142 163 -130 26 6 29 4 29 -20
0 -77 75 -154 183 -187 57 -17 85 -20 156 -15 142 9 225 54 281 150 27 46 30
58 24 107 -11 99 -42 198 -92 292 -2 4 6 11 16 17 28 15 105 -10 165 -53 26
-18 60 -39 76 -46 30 -12 30 -12 24 -78 -7 -87 8 -138 57 -200 57 -71 111 -95
227 -100 189 -9 398 67 478 172 46 60 70 191 55 296 -13 90 -6 95 143 103 75
3 125 11 145 21 71 37 49 59 -86 87 -134 28 -218 21 -265 -21 l-32 -29 0 -138
c0 -76 -1 -157 -3 -180 -4 -85 -93 -146 -265 -184 -150 -34 -278 -10 -329 61
-19 27 -30 122 -15 136 4 5 41 11 81 15 150 14 316 139 316 237 0 85 -53 142
-134 142 -111 0 -235 -78 -289 -182 -17 -32 -37 -58 -45 -58 -8 0 -43 20 -79
45 -91 64 -115 75 -180 81 -49 4 -64 1 -97 -18 -54 -31 -63 -68 -36 -147 35
-105 70 -252 70 -296 0 -55 -25 -86 -91 -114 -94 -41 -228 -26 -310 35 -61 45
-76 98 -33 114 14 6 52 30 84 55 131 101 167 301 64 356 -35 18 -106 6 -148
-26 -66 -50 -99 -128 -112 -262 -6 -67 -8 -73 -30 -73 -21 0 -84 62 -84 83 0
5 -12 33 -27 64 -33 66 -58 81 -110 65 -58 -18 -103 -61 -192 -187 -57 -80
-87 -115 -101 -115 -11 0 -20 6 -20 13 1 36 128 533 167 654 31 95 35 118 27
150 -7 30 -14 38 -34 40 -14 1 -31 -1 -37 -3z m1676 -403 c7 -5 11 -13 8 -18
-17 -27 -119 -93 -172 -110 -91 -30 -108 -15 -55 49 53 64 173 108 219 79z
m-1005 -97 c35 -13 8 -105 -47 -162 -33 -35 -85 -67 -94 -59 -5 6 18 86 41
138 8 20 29 48 46 63 35 29 33 28 54 20z"/>
<path d="M17497 21726 c-52 -19 -101 -58 -153 -124 -67 -85 -94 -144 -103
-226 -17 -158 42 -256 183 -304 75 -26 133 -27 198 -4 99 36 172 112 140 144
-13 13 -70 -2 -145 -39 -70 -35 -171 -41 -215 -14 -33 22 -74 78 -69 96 2 6
35 10 73 10 91 1 137 25 234 124 56 57 79 89 93 127 28 83 23 120 -21 164 -56
56 -137 74 -215 46z m141 -102 c63 -44 -6 -146 -159 -237 -53 -31 -72 -37
-109 -35 -56 4 -60 19 -27 90 62 135 222 233 295 182z"/>
<path d="M18934 21706 c-3 -7 -22 -16 -43 -20 -21 -3 -44 -13 -51 -22 -8 -8
-36 -30 -64 -49 -88 -59 -238 -246 -267 -333 -35 -108 49 -211 149 -183 88 26
193 125 255 242 44 83 67 89 97 23 11 -26 27 -71 36 -99 17 -62 48 -94 96
-101 77 -13 124 68 53 89 -16 5 -36 12 -44 16 -18 9 -99 238 -107 304 -9 76
-23 115 -47 132 -27 19 -56 19 -63 1z m4 -124 c7 -75 -132 -274 -243 -348 -51
-33 -107 -45 -120 -24 -9 15 40 110 86 165 53 64 251 245 264 241 6 -1 11 -17
13 -34z"/>
<path d="M21865 21698 c-22 -12 -47 -24 -55 -28 -20 -9 -52 -105 -52 -160 -1
-25 4 -79 10 -120 10 -66 16 -79 47 -107 42 -39 78 -42 138 -12 61 32 162 137
170 178 20 101 -7 181 -82 239 -52 39 -114 43 -176 10z m151 -113 c12 -18 15
-38 11 -66 -8 -59 -23 -72 -77 -66 -78 8 -100 22 -100 61 0 77 126 131 166 71z"/>
<path d="M18112 21697 c-11 -13 -39 -113 -67 -242 -10 -44 -18 -118 -19 -165
0 -106 27 -168 84 -186 19 -6 36 -19 38 -27 5 -26 56 -30 104 -9 71 32 130
106 206 259 38 76 78 154 90 173 27 43 29 80 5 80 -22 0 -54 -40 -117 -145
-27 -44 -63 -96 -80 -116 -17 -20 -44 -56 -61 -79 -34 -48 -94 -83 -133 -78
-21 2 -30 11 -39 38 -23 63 5 269 53 396 28 76 29 78 8 98 -19 19 -58 21 -72
3z"/>
<path d="M12593 21670 c-75 -25 -173 -96 -223 -163 -95 -125 -103 -300 -21
-473 52 -110 122 -169 229 -194 56 -13 140 -7 175 12 33 17 77 60 71 69 -3 5
-63 8 -134 7 -128 -3 -128 -3 -171 27 -35 24 -54 49 -89 120 -45 90 -45 90
-45 195 1 120 17 163 81 220 85 74 242 125 258 84 18 -46 -112 -176 -212 -214
-80 -31 -80 -100 0 -100 39 0 101 33 156 83 89 82 163 227 142 282 -22 59
-116 78 -217 45z"/>
<path d="M22773 21671 c-39 -18 -168 -113 -175 -129 -6 -13 -104 -92 -115 -92
-6 0 -16 7 -23 15 -10 12 -8 24 9 64 11 28 21 57 21 66 0 24 -46 66 -65 59
-15 -6 -65 -99 -65 -122 0 -7 -11 -50 -25 -98 -26 -91 -24 -113 15 -134 34
-18 66 -11 128 30 34 21 75 46 91 54 16 9 67 51 113 94 92 87 108 96 133 78
15 -11 15 -19 5 -76 -6 -36 -27 -116 -46 -179 -37 -123 -40 -151 -22 -169 37
-37 88 15 116 118 11 41 29 101 41 132 24 66 28 162 7 211 -12 30 -78 97 -94
97 -4 0 -26 -9 -49 -19z"/>
<path d="M19783 21663 c-10 -25 -8 -67 9 -233 16 -156 28 -191 78 -234 85 -71
244 19 342 194 17 30 55 90 85 133 56 83 64 107 35 107 -23 0 -78 -59 -121
-127 -18 -29 -36 -53 -40 -53 -3 0 -37 -30 -76 -67 -38 -36 -83 -74 -100 -85
-35 -21 -78 -24 -93 -5 -6 6 -13 83 -17 170 -7 148 -9 161 -32 188 -28 33 -60
38 -70 12z"/>
<path d="M15773 21603 c-40 -27 -118 -116 -142 -160 -16 -32 -42 -29 -93 12
-136 109 -169 121 -241 86 -89 -43 -152 -166 -169 -329 -12 -120 -8 -152 22
-182 23 -23 39 -25 64 -7 16 12 19 31 20 153 1 156 18 215 72 250 48 32 94 24
160 -27 33 -24 71 -53 87 -62 22 -15 27 -25 27 -60 1 -80 16 -120 62 -161 66
-59 96 -69 228 -68 153 1 296 40 288 80 -5 25 -39 30 -203 31 -253 2 -295 14
-295 85 0 40 8 47 84 70 42 13 73 31 108 64 57 53 73 80 83 139 8 50 -4 77
-45 98 -42 22 -72 19 -117 -12z m67 -106 c0 -28 -80 -83 -106 -73 -23 9 -16
23 28 55 44 33 78 40 78 18z"/>
<path d="M13292 21613 c-40 -16 -63 -125 -63 -293 0 -167 29 -250 87 -250 29
0 66 45 134 165 83 145 113 190 130 190 21 0 36 -58 49 -195 15 -150 27 -192
61 -225 21 -20 33 -25 54 -19 31 8 32 14 5 83 -13 35 -25 109 -35 210 -8 86
-22 177 -30 203 -15 45 -53 88 -78 88 -21 -1 -115 -117 -175 -217 -67 -111
-83 -128 -107 -119 -25 10 -14 197 17 285 l22 64 -23 19 c-23 19 -27 20 -48
11z"/>
<path d="M14052 21589 c-44 -22 -92 -83 -92 -116 0 -31 59 -123 113 -177 29
-28 84 -79 122 -112 60 -53 68 -65 59 -80 -20 -34 -92 -66 -159 -71 -55 -5
-66 -3 -95 18 l-32 24 -19 -24 c-27 -33 -24 -53 14 -88 45 -43 74 -56 125 -55
112 3 215 71 252 168 19 53 19 57 4 90 -9 20 -53 68 -98 107 -131 117 -188
176 -184 195 3 17 33 34 115 67 75 31 64 64 -23 71 -48 4 -67 1 -102 -17z"/>
<path d="M14892 21485 c-17 -19 -35 -50 -40 -68 -14 -50 -70 -132 -152 -222
-79 -86 -102 -104 -137 -105 -20 0 -23 5 -23 38 0 20 6 73 14 118 8 44 18 112
21 151 7 68 6 72 -17 87 -57 37 -72 -3 -89 -227 -14 -198 -9 -236 37 -276 41
-36 52 -38 104 -11 106 54 270 265 335 430 29 74 31 105 9 114 -26 10 -31 8
-62 -29z"/>
<path d="M5670 21476 c-124 -51 -189 -113 -247 -233 -20 -40 -39 -73 -45 -73
-20 0 -69 32 -125 81 -61 54 -123 88 -161 89 -47 0 -118 -45 -197 -124 -129
-130 -198 -288 -186 -428 4 -49 67 -63 106 -24 21 21 24 31 18 74 -14 123 49
250 171 342 83 63 99 62 184 -9 40 -34 74 -61 75 -61 2 0 27 -9 57 -19 l55
-19 12 -104 c6 -57 14 -116 19 -133 9 -39 59 -112 87 -127 62 -33 187 -24 276
21 42 22 101 84 101 106 0 22 -41 18 -102 -10 -42 -19 -69 -25 -129 -25 -101
0 -112 12 -133 140 -18 113 -12 129 55 149 120 36 220 115 269 214 51 102 35
163 -51 187 -44 13 -45 13 -109 -14z m100 -115 c0 -14 -58 -83 -93 -108 -48
-37 -146 -85 -158 -78 -15 10 0 46 35 84 34 37 120 96 151 104 33 8 65 7 65
-2z"/>
<path d="M23922 21453 c-12 -2 -27 -13 -33 -24 -17 -32 -2 -58 42 -69 76 -21
217 -220 281 -399 29 -81 36 -313 14 -446 -26 -150 -105 -338 -176 -420 -10
-11 -29 -36 -42 -56 -14 -20 -69 -76 -124 -124 -133 -117 -148 -133 -133 -151
16 -19 54 -18 87 3 61 39 184 136 235 186 120 119 231 315 264 469 14 62 18
126 17 253 0 193 -14 263 -85 411 -38 80 -152 248 -213 313 -28 31 -84 63
-103 60 -4 -1 -18 -4 -31 -6z"/>
<path d="M4246 21383 c-4 -4 -46 -7 -94 -8 -69 0 -96 -5 -132 -22 -74 -36
-137 -107 -185 -208 -56 -115 -69 -168 -63 -260 4 -61 10 -80 32 -109 30 -40
58 -51 131 -51 62 0 122 40 190 126 47 60 115 191 115 222 0 21 17 57 28 57
26 -1 55 -60 99 -205 42 -139 126 -228 171 -183 18 18 14 57 -10 97 -13 19
-48 105 -79 191 -79 217 -80 219 -102 278 -11 29 -29 59 -41 67 -22 16 -48 19
-60 8z m-34 -139 c-4 -33 -90 -202 -145 -286 -50 -75 -100 -118 -137 -118 -36
0 -43 12 -42 66 1 80 54 209 114 277 25 29 52 45 113 67 44 16 85 28 90 26 6
-1 8 -16 7 -32z"/>
<path d="M6259 21377 c-29 -23 -47 -62 -59 -132 -6 -38 -22 -124 -36 -190 -26
-131 -31 -224 -12 -243 7 -7 27 -12 45 -12 51 0 95 54 195 240 78 145 84 155
101 158 30 6 37 -43 39 -284 1 -187 4 -239 15 -250 19 -19 36 -18 63 4 22 18
23 26 28 217 5 213 -10 420 -34 467 -20 38 -56 46 -91 18 -34 -26 -65 -73
-145 -212 -45 -80 -66 -108 -80 -108 -18 0 -19 5 -13 43 4 23 20 86 36 140 24
80 27 102 18 120 -20 38 -42 46 -70 24z"/>
<path d="M1510 20843 c-73 -27 -66 -111 10 -134 32 -10 45 -10 65 1 33 17 37
33 20 74 -22 51 -57 73 -95 59z"/>
<path d="M22519 20830 c-14 -8 -16 -22 -12 -72 5 -65 -10 -127 -57 -235 l-21
-50 -60 -6 c-74 -8 -101 -24 -97 -57 2 -19 12 -28 38 -36 43 -14 47 -27 21
-60 -12 -15 -21 -35 -21 -44 0 -38 -25 -42 -66 -9 -44 35 -48 37 -203 93 -173
63 -174 91 -6 126 121 25 169 46 173 78 7 50 -42 66 -115 37 -21 -8 -67 -21
-102 -30 -80 -20 -155 -57 -175 -87 -9 -12 -16 -40 -16 -61 0 -33 6 -45 43
-78 26 -24 69 -49 112 -65 193 -70 210 -78 213 -104 2 -17 -6 -34 -25 -52 -31
-29 -214 -128 -238 -128 -8 0 -24 14 -37 30 -26 36 -57 39 -86 8 -36 -39 -37
-70 -4 -101 58 -55 164 -45 311 29 126 63 201 143 201 214 0 16 6 20 35 20 30
0 37 5 48 33 8 17 21 38 30 46 10 7 17 19 17 26 0 7 7 18 15 25 8 7 20 30 27
51 6 22 17 39 23 39 20 0 44 34 51 71 4 19 10 39 15 44 18 24 78 153 88 191
12 44 1 101 -21 116 -18 11 -79 10 -99 -2z"/>
<path d="M13962 20741 c-16 -10 -85 -232 -108 -346 -9 -44 -20 -98 -25 -120
-4 -22 -8 -43 -9 -47 -1 -19 -39 -5 -66 23 -73 77 -194 96 -294 47 -62 -31
-84 -61 -94 -131 -12 -80 8 -149 62 -208 46 -51 107 -88 147 -89 11 0 34 -7
50 -16 75 -39 204 -27 400 37 66 22 125 37 132 35 7 -3 24 -30 37 -60 18 -40
36 -62 67 -83 39 -26 50 -28 128 -27 99 2 213 38 314 100 l59 36 27 -26 c31
-29 81 -35 101 -11 8 10 10 29 6 54 -6 37 -3 43 51 106 88 103 266 237 433
326 30 16 45 31 45 44 0 17 -8 20 -62 23 -53 2 -71 -2 -125 -29 -97 -49 -225
-140 -309 -221 -59 -56 -86 -92 -117 -155 -23 -45 -45 -84 -50 -87 -5 -3 -47
-8 -93 -11 -46 -4 -128 -18 -182 -31 -161 -41 -211 -24 -224 74 l-6 42 59 26
c138 60 215 153 182 220 -37 79 -187 120 -258 71 -56 -37 -74 -79 -80 -187 -5
-89 -6 -95 -26 -92 -11 1 -74 -14 -140 -34 -206 -63 -346 -79 -419 -45 -94 42
-153 167 -109 230 34 48 114 64 182 35 67 -28 114 -89 136 -179 10 -40 24 -55
52 -55 16 0 25 7 28 23 3 12 12 63 21 112 29 156 94 437 121 518 14 43 22 86
19 97 -7 21 -39 26 -63 11z m422 -524 c26 -19 14 -47 -43 -107 -50 -52 -71
-62 -71 -34 0 9 -7 22 -16 28 -14 11 -14 16 1 54 27 66 84 92 129 59z m-249
-228 c10 -15 -1 -23 -20 -15 -9 3 -13 10 -10 16 8 13 22 13 30 -1z m-275 -99
c-8 -5 -19 -10 -25 -10 -5 0 -3 5 5 10 8 5 20 10 25 10 6 0 3 -5 -5 -10z m-50
-10 c-8 -5 -22 -9 -30 -9 -10 0 -8 3 5 9 27 12 43 12 25 0z"/>
<path d="M23762 20718 c-5 -7 -13 -24 -17 -37 -4 -13 -34 -74 -67 -137 -42
-80 -71 -122 -98 -144 -40 -32 -44 -54 -10 -65 17 -5 17 -9 5 -33 -21 -45 -34
-93 -28 -108 3 -9 20 -14 44 -14 44 0 52 10 79 104 l17 61 104 3 c194 4 269
29 269 87 0 36 -18 39 -97 19 -37 -9 -97 -18 -133 -18 -81 -1 -82 5 -11 113
63 95 74 141 40 165 -28 19 -82 21 -97 4z"/>
<path d="M22753 20656 c-52 -25 -94 -71 -134 -148 -12 -24 -32 -43 -54 -52
-35 -15 -48 -47 -25 -61 6 -4 7 -28 4 -60 -12 -97 41 -134 170 -120 56 6 72
12 101 39 51 48 47 60 -17 50 -118 -18 -158 -6 -158 48 0 42 45 84 101 93 53
9 124 43 162 78 34 33 39 103 7 132 -32 29 -97 30 -157 1z"/>
<path d="M21587 20653 c-22 -6 -43 -46 -52 -102 -7 -42 -6 -44 15 -38 12 3 28
3 36 0 22 -8 17 -53 -8 -78 -13 -12 -48 -65 -78 -118 -30 -53 -61 -97 -68 -97
-7 0 -33 13 -57 30 -78 53 -189 82 -406 105 -65 7 -101 27 -82 45 16 17 208
25 272 11 29 -6 65 -20 78 -31 31 -24 85 -26 103 -4 20 23 1 64 -45 96 -81 56
-275 58 -436 3 -105 -35 -123 -49 -116 -92 12 -72 72 -107 200 -117 161 -13
322 -52 353 -87 15 -17 15 -20 -3 -51 -25 -43 -164 -138 -202 -138 -16 0 -34
7 -41 15 -22 27 -50 28 -76 4 -30 -28 -31 -72 -3 -100 20 -20 29 -21 98 -16
88 6 130 22 224 84 61 40 127 114 127 142 0 6 11 11 24 11 43 0 187 167 243
280 32 66 37 155 11 213 -16 34 -20 37 -55 36 -21 -1 -46 -3 -56 -6z"/>
<path d="M16741 20636 c-17 -20 -51 -125 -51 -157 0 -15 -8 -47 -19 -71 -11
-27 -20 -78 -23 -138 -3 -52 -16 -148 -29 -212 -19 -97 -21 -119 -10 -132 16
-19 54 -21 69 -3 24 29 64 224 69 337 3 78 11 131 23 165 11 28 22 67 25 88 3
21 14 43 25 50 30 18 25 54 -10 72 -36 19 -54 19 -69 1z"/>
<path d="M23072 20533 c-8 -3 -22 -24 -32 -48 -10 -23 -34 -64 -54 -90 -42
-54 -45 -76 -14 -105 37 -34 70 -26 143 37 79 67 97 65 106 -12 6 -54 34 -85
78 -85 44 1 106 35 129 72 33 53 29 59 -29 42 -72 -22 -82 -16 -63 38 31 88
-7 130 -99 109 -66 -15 -77 -14 -77 7 0 35 -44 53 -88 35z"/>
<path d="M13302 20492 c-121 -73 -166 -138 -239 -341 -18 -52 -40 -105 -48
-117 -28 -44 4 -124 50 -124 33 0 44 19 66 112 31 131 78 263 108 305 16 22
60 68 100 102 72 65 83 84 55 95 -24 9 -24 9 -92 -32z"/>
<path d="M12505 20500 c-50 -12 -98 -36 -132 -64 -37 -31 -68 -104 -60 -143 3
-18 -3 -43 -19 -74 -80 -153 -27 -308 117 -340 165 -38 437 155 465 328 21
133 -144 305 -290 302 -28 -1 -64 -4 -81 -9z m143 -93 c60 -29 129 -106 137
-151 9 -47 -5 -79 -58 -137 -82 -90 -241 -171 -299 -154 -36 11 -77 55 -88 93
-12 45 14 124 76 233 24 43 44 88 44 99 0 29 53 52 105 45 22 -3 59 -16 83
-28z"/>
<path d="M18775 20445 c-107 -26 -224 -108 -278 -194 -19 -31 -22 -50 -22
-131 0 -105 10 -131 66 -188 86 -87 274 -127 394 -84 81 29 67 46 -45 53 -150
11 -263 66 -296 145 -18 43 -18 125 0 167 27 66 121 122 229 137 50 8 70 6
116 -11 83 -30 100 -33 116 -19 21 17 19 53 -5 83 -41 51 -163 70 -275 42z"/>
<path d="M20445 20423 c-16 -8 -70 -67 -120 -129 -114 -145 -130 -147 -110 -8
13 88 -33 125 -85 69 -19 -20 -23 -34 -21 -82 1 -45 -8 -84 -38 -171 -22 -62
-37 -120 -34 -128 8 -22 51 -29 82 -13 30 15 120 112 221 237 36 44 68 81 71
81 23 3 40 -32 50 -102 14 -95 38 -129 103 -146 25 -6 52 -8 60 -5 23 9 20 37
-8 63 -30 28 -43 73 -56 200 -15 133 -22 151 -57 150 -16 0 -41 -7 -58 -16z"/>
<path d="M17213 20390 c-88 -34 -192 -91 -217 -118 -10 -11 -20 -38 -23 -60
-5 -34 -2 -42 18 -55 13 -8 51 -18 84 -22 64 -7 321 -90 344 -111 18 -16 3
-24 -132 -64 -72 -21 -136 -33 -189 -35 -43 -2 -86 -9 -94 -16 -25 -21 -12
-52 31 -74 59 -30 162 -24 300 15 131 38 139 42 188 88 38 37 46 67 25 94 -42
52 -230 142 -353 168 -33 7 -64 17 -69 21 -13 11 61 45 161 74 91 26 127 52
116 83 -17 50 -84 54 -190 12z"/>
<path d="M19520 20339 c-36 -10 -94 -26 -129 -34 -74 -18 -166 -70 -208 -119
-43 -48 -59 -114 -44 -180 13 -57 23 -69 84 -104 31 -18 54 -22 122 -22 149 0
283 42 381 118 91 71 107 112 83 221 -13 63 -63 115 -125 130 -58 15 -87 13
-164 -10z m163 -110 c25 -30 31 -64 21 -112 -8 -36 -16 -46 -63 -74 -75 -45
-152 -66 -246 -67 -126 -2 -172 36 -145 118 28 87 151 139 246 104 44 -16 84
1 84 36 0 13 6 26 13 29 21 7 71 -12 90 -34z"/>
<path d="M6441 19233 c-40 -20 -155 -133 -185 -183 -32 -51 -85 -175 -106
-245 -40 -137 -59 -212 -65 -255 -4 -25 -18 -108 -32 -185 -31 -176 -35 -316
-10 -362 10 -18 21 -33 26 -33 5 0 14 -13 21 -30 19 -45 50 -60 127 -60 77 0
119 16 210 78 130 89 309 302 383 458 95 198 84 406 -32 624 -45 87 -114 165
-161 184 -57 24 -138 28 -176 9z m139 -89 c52 -35 125 -145 168 -254 43 -108
53 -208 28 -295 -69 -240 -398 -603 -563 -623 -35 -4 -46 0 -68 22 l-27 27 7
147 c22 519 130 863 304 973 57 36 99 37 151 3z"/>
<path d="M5834 19173 c-14 -32 -37 -89 -51 -128 -29 -84 -62 -173 -74 -200
-13 -28 -96 -257 -121 -329 -11 -33 -37 -98 -58 -145 -21 -47 -44 -108 -51
-136 -21 -85 -46 -135 -68 -135 -24 0 -64 51 -79 100 -53 170 -80 349 -88 580
-7 186 -15 227 -48 236 -28 7 -66 -11 -66 -31 0 -7 -12 -42 -26 -77 -14 -35
-33 -81 -41 -103 -8 -22 -21 -51 -28 -65 -12 -23 -54 -129 -75 -190 -13 -36
-74 -263 -95 -350 -68 -291 -75 -329 -61 -360 6 -14 15 -28 21 -32 17 -12 62
-9 74 5 6 7 15 72 20 143 10 124 52 363 86 489 9 33 26 94 37 135 23 86 55
187 69 212 13 25 38 22 43 -4 3 -13 7 -77 11 -143 3 -66 14 -174 25 -240 42
-247 79 -330 182 -401 36 -25 40 -26 82 -14 79 22 98 60 160 320 35 146 61
240 116 425 16 55 30 111 30 125 0 26 76 194 119 263 13 21 24 52 25 70 1 26
-3 33 -22 35 -19 3 -27 -6 -48 -55z"/>
<path d="M1385 19184 c-169 -19 -343 -67 -467 -130 -52 -27 -135 -98 -169
-146 -19 -26 -19 -31 -5 -84 24 -91 66 -118 114 -74 25 24 26 32 10 76 -16 45
0 74 73 128 158 119 584 188 671 109 24 -21 23 -34 -8 -96 -56 -109 -131 -194
-545 -618 -191 -196 -363 -381 -382 -411 -19 -29 -42 -78 -51 -108 l-16 -55
27 -39 c53 -74 70 -81 201 -80 87 1 139 7 202 23 127 33 328 100 385 128 128
63 133 72 33 71 -57 0 -103 -10 -213 -44 -206 -64 -269 -77 -380 -78 -149 -1
-172 21 -118 113 54 92 120 165 473 515 445 443 520 537 520 649 0 51 -3 60
-34 90 -23 23 -50 38 -83 46 -51 11 -189 20 -238 15z"/>
<path d="M4138 19163 c-9 -10 -20 -40 -24 -68 -6 -44 -37 -124 -64 -165 -20
-31 -184 -445 -196 -495 -16 -69 -76 -211 -95 -228 -17 -13 -20 -24 -15 -51 4
-19 0 -59 -9 -93 -13 -51 -48 -240 -85 -463 -9 -53 -8 -56 18 -77 28 -24 66
-30 77 -13 3 5 10 74 16 152 5 79 16 177 23 218 20 104 45 240 50 272 3 15 7
32 10 36 16 27 313 138 419 157 32 6 36 5 31 -10 -25 -65 159 -535 212 -543
27 -4 54 23 54 53 0 13 -22 68 -50 122 -52 103 -144 358 -136 378 2 7 25 18
51 26 95 28 82 66 -23 71 l-67 3 -7 40 c-32 185 -39 235 -48 345 -25 284 -41
343 -96 348 -19 2 -36 -3 -46 -15z m37 -343 c14 -108 27 -169 75 -350 5 -19 5
-39 1 -43 -4 -4 -51 -19 -104 -32 -53 -13 -134 -42 -181 -64 -79 -36 -86 -38
-86 -20 0 17 55 167 131 354 11 28 38 104 61 170 23 66 46 123 52 127 23 15
36 -21 51 -142z"/>
<path d="M11970 18940 c-88 -19 -270 -89 -324 -125 -116 -77 -171 -137 -230
-253 -51 -102 -71 -168 -90 -306 -16 -114 36 -272 96 -297 64 -27 91 37 40 96
-75 84 -66 293 20 475 73 154 230 281 403 325 77 19 222 19 321 -1 132 -26
274 -85 331 -137 45 -40 -3 -81 -172 -149 -72 -29 -120 -42 -300 -83 -261 -60
-331 -87 -341 -133 -3 -15 -8 -35 -10 -44 -3 -9 5 -40 17 -68 16 -38 36 -61
81 -95 33 -25 64 -45 69 -45 5 0 31 -15 57 -33 45 -31 135 -64 327 -122 96
-29 223 -92 266 -132 32 -29 77 -35 93 -10 9 14 7 25 -9 54 -28 51 -127 102
-305 158 -223 70 -258 84 -353 133 -129 67 -178 130 -138 174 17 19 163 60
346 97 252 52 346 81 413 126 92 63 95 126 10 212 -65 67 -126 102 -245 142
-131 45 -280 61 -373 41z"/>
<path d="M10678 18840 c-75 -12 -113 -29 -175 -79 -52 -41 -67 -73 -39 -84 7
-3 43 9 80 28 91 45 209 62 329 46 257 -34 331 -141 235 -342 -40 -84 -136
-201 -188 -230 -19 -11 -42 -23 -50 -28 -33 -18 -91 -40 -198 -75 -332 -109
-482 -84 -482 81 0 73 36 140 123 230 98 102 202 171 277 187 35 7 69 21 82
33 20 20 20 23 5 46 -33 50 -144 40 -212 -19 -16 -14 -62 -50 -101 -80 -67
-50 -170 -149 -213 -205 -21 -28 -51 -130 -51 -176 0 -89 76 -212 144 -231
148 -44 247 -38 433 27 201 70 330 150 422 261 76 91 124 200 138 311 14 120
-75 225 -234 278 -73 24 -237 35 -325 21z"/>
<path d="M8294 18727 c-70 -29 -187 -93 -384 -213 -90 -55 -166 -119 -183
-156 -13 -28 -14 -42 -6 -74 19 -71 48 -90 219 -144 202 -64 346 -87 437 -69
160 32 115 97 -57 83 -117 -10 -362 41 -472 97 -53 27 -51 59 4 112 42 40 169
127 185 127 4 0 0 -5 -9 -11 -10 -5 -18 -16 -18 -23 0 -29 85 -38 460 -45 560
-12 676 -4 738 53 18 16 22 28 18 48 -3 16 -2 28 2 28 12 0 262 -40 325 -52
35 -7 57 -16 57 -24 0 -49 -423 -194 -655 -224 -114 -15 -197 -31 -219 -42
-17 -9 -17 -11 -2 -26 22 -22 206 -29 331 -12 183 25 501 125 605 191 53 33
84 80 76 114 -16 62 -170 118 -445 160 -91 13 -222 38 -291 55 -68 16 -127 26
-130 22 -4 -4 -11 -19 -18 -34 -14 -34 -6 -41 73 -63 91 -26 180 -74 166 -88
-9 -9 -148 -12 -529 -13 -572 -2 -544 -6 -412 60 96 49 270 106 322 106 74 0
96 49 33 76 -57 23 -130 17 -221 -19z"/>
<path d="M1742 18034 c-34 -24 -29 -69 12 -110 39 -39 65 -43 91 -14 22 24 15
85 -12 111 -27 25 -66 31 -91 13z"/>
<path d="M5733 16890 c-132 -24 -317 -116 -394 -197 -50 -52 -106 -143 -131
-211 -29 -80 -36 -289 -14 -386 46 -196 177 -306 364 -306 94 0 162 19 260 71
160 84 254 184 344 362 75 150 110 264 115 377 5 95 5 95 -25 123 -29 27 -111
57 -162 57 -17 0 -32 11 -47 34 -44 68 -173 100 -310 76z m212 -100 c38 -14
30 -34 -27 -71 -54 -34 -71 -65 -46 -80 18 -12 75 -11 83 1 9 15 132 50 175
50 42 0 70 -26 70 -66 0 -87 -97 -343 -168 -446 -110 -157 -305 -270 -493
-285 -101 -8 -151 15 -202 90 -51 74 -61 121 -61 282 0 155 14 207 77 302 107
159 435 283 592 223z"/>
<path d="M1735 16714 c-31 -7 -461 -62 -659 -85 -107 -12 -293 -71 -303 -96
-8 -20 17 -72 37 -78 10 -3 56 10 102 28 45 19 108 38 138 41 30 4 149 22 264
41 115 19 212 35 217 35 18 0 8 -19 -15 -32 -102 -54 -260 -168 -276 -198 -17
-32 -11 -55 23 -86 47 -44 90 -61 207 -84 202 -39 295 -63 356 -90 92 -41 93
-68 10 -158 -68 -74 -217 -160 -401 -231 -60 -24 -120 -47 -132 -52 -29 -11
-29 -30 0 -57 31 -30 52 -28 165 14 354 132 551 281 552 418 0 34 -54 104
-103 134 -68 42 -253 95 -447 127 -52 9 -98 19 -102 21 -20 12 -4 35 40 60 26
15 90 55 142 89 52 34 130 82 173 106 80 46 98 70 78 107 -10 18 -44 32 -66
26z"/>
<path d="M24471 16674 c0 -11 3 -14 6 -6 3 7 2 16 -1 19 -3 4 -6 -2 -5 -13z"/>
<path d="M10970 16625 c-21 -26 -24 -290 -5 -440 30 -229 35 -333 26 -500 -10
-169 -8 -329 4 -357 11 -28 38 -31 57 -8 16 19 18 48 21 214 4 313 0 435 -16
546 -25 165 -30 299 -16 420 10 88 10 112 -1 124 -16 20 -54 21 -70 1z"/>
<path d="M7965 16535 c-281 -51 -711 -215 -779 -296 -39 -46 -31 -69 34 -102
77 -38 169 -63 362 -97 91 -16 244 -47 340 -70 363 -86 487 -105 503 -79 12
19 -25 46 -73 53 -26 3 -117 24 -202 45 -85 21 -200 49 -255 60 -55 12 -129
28 -165 36 -36 8 -146 30 -246 49 -200 39 -238 50 -232 69 7 19 72 52 218 111
255 102 579 178 662 155 47 -12 81 2 76 34 -6 42 -111 56 -243 32z"/>
<path d="M9151 16423 c-12 -11 -18 -23 -13 -30 7 -10 94 -63 183 -110 37 -19
79 -77 86 -116 10 -63 -50 -87 -222 -87 -124 0 -163 5 -500 60 -104 17 -246
40 -314 51 -148 24 -261 35 -513 50 -170 10 -189 9 -212 -6 -32 -21 -33 -38
-2 -58 32 -21 62 -25 296 -37 228 -12 362 -26 650 -71 296 -46 309 -48 400
-60 110 -15 321 -6 380 15 24 9 55 26 67 38 32 30 31 91 -2 140 -43 64 -43 64
137 -13 162 -69 220 -99 215 -112 -5 -16 -61 -32 -287 -86 -322 -76 -481 -102
-665 -110 -137 -5 -160 -8 -163 -23 -2 -12 11 -21 49 -33 86 -29 336 -16 554
29 94 19 232 46 308 61 302 57 367 110 256 209 -65 58 -127 91 -313 167 -83
33 -193 81 -243 105 -51 24 -97 44 -102 44 -5 0 -18 -8 -30 -17z"/>
<path d="M24473 16300 c0 -25 2 -35 4 -22 2 12 2 32 0 45 -2 12 -4 2 -4 -23z"/>
<path d="M24473 16195 c0 -27 2 -38 4 -22 2 15 2 37 0 50 -2 12 -4 0 -4 -28z"/>
<path d="M24474 15975 c0 -77 2 -107 3 -67 2 40 2 103 0 140 -2 37 -3 4 -3
-73z"/>
<path d="M2133 16019 c-13 -13 -7 -66 10 -87 18 -22 127 -70 148 -65 41 11 44
57 7 104 -37 46 -138 75 -165 48z"/>
<path d="M24471 15795 c-1 -22 -4 -209 -7 -415 -2 -206 -6 -521 -9 -700 -3
-179 -8 -431 -10 -560 -2 -129 -7 -437 -10 -685 -7 -495 -11 -739 -20 -1130
-3 -143 -8 -393 -12 -555 -3 -162 -7 -362 -9 -445 -3 -128 -5 -416 -2 -465 0
-8 -2 -87 -6 -175 -3 -88 -9 -317 -11 -510 -5 -315 -10 -579 -20 -975 -1 -74
-6 -277 -9 -450 -4 -173 -9 -385 -12 -470 -3 -85 -8 -288 -10 -450 -3 -162 -7
-347 -10 -410 -7 -186 -18 -742 -16 -795 0 -16 -1 -104 -4 -195 -6 -197 -6
-309 2 -332 2 -9 1 -19 -4 -22 -8 -4 -16 -125 -12 -163 3 -31 3 -91 -4 -283
-4 -113 -8 -408 -10 -657 -2 -248 -6 -456 -10 -461 -3 -5 -1 -23 3 -40 5 -17
6 -33 3 -37 -3 -3 -7 -76 -8 -163 -18 -1362 -23 -2509 -10 -2522 5 -5 5 -20
-2 -37 -9 -26 -16 -98 -13 -133 1 -8 3 -89 5 -180 1 -91 6 -182 10 -203 6 -24
4 -48 -4 -68 -10 -24 -10 -38 0 -70 7 -21 16 -39 20 -39 4 0 7 36 7 80 0 70 3
82 23 98 20 16 21 19 6 31 -11 9 -16 31 -17 65 0 28 -4 78 -8 111 -6 44 -5 64
5 75 13 16 16 53 16 190 -1 79 -2 373 -3 473 0 32 5 65 11 72 7 8 8 20 4 26
-11 18 -6 147 7 171 7 13 7 23 0 32 -11 13 -8 217 4 351 3 35 0 58 -10 72 -8
11 -12 22 -10 25 15 15 23 308 10 341 -4 10 -3 23 3 29 6 6 8 18 3 27 -4 9 -7
111 -6 226 1 116 -2 215 -7 222 -6 7 -5 41 1 85 14 101 20 228 10 234 -5 3 -6
31 -3 62 6 66 14 224 14 265 0 15 0 39 0 55 0 53 16 777 24 1062 3 116 1 179
-6 187 -7 9 -7 17 2 28 7 8 12 45 12 89 -1 53 4 78 14 87 11 9 12 15 2 27 -15
17 -22 207 -16 445 2 88 3 97 21 97 16 0 17 3 7 15 -6 8 -10 20 -7 27 2 7 0
23 -4 36 -6 14 -5 31 2 43 7 13 7 25 1 32 -6 8 -6 63 -1 152 5 77 6 156 3 175
-4 19 -7 38 -6 41 15 76 20 134 11 139 -10 7 2 297 21 484 6 62 6 94 -1 103
-8 8 -8 22 -2 40 6 16 6 41 2 57 -5 16 -5 34 -2 39 3 6 5 65 4 132 -1 68 3
134 8 148 5 14 7 28 4 31 -6 6 -6 22 4 231 11 247 16 456 12 535 -1 19 1 127
5 240 3 113 6 211 6 218 0 6 0 20 1 30 0 9 2 94 3 187 1 94 5 175 9 181 4 7 0
33 -8 60 -11 38 -12 57 -3 91 7 29 7 47 0 56 -5 6 -8 39 -5 72 2 33 5 89 6
125 2 52 5 65 19 68 16 3 16 6 -2 30 -17 22 -19 33 -11 57 9 28 21 123 25 190
1 17 -2 38 -6 47 -5 10 -3 18 4 20 8 3 7 16 -5 46 -13 33 -15 52 -7 92 17 89
21 172 8 187 -8 10 -8 17 0 25 15 15 15 53 1 79 -11 22 -12 151 -2 294 6 93
16 4332 10 4465 -1 41 -4 57 -6 35z"/>
<path d="M5141 14716 c-57 -60 -228 -562 -262 -766 -45 -276 -6 -376 169 -430
149 -46 379 1 485 98 57 54 23 66 -84 31 -169 -54 -249 -61 -352 -29 -122 38
-157 108 -139 275 16 143 114 456 213 675 44 99 52 145 28 161 -22 14 -34 11
-58 -15z"/>
<path d="M1205 14579 c-45 -25 -52 -33 -116 -142 -89 -149 -140 -367 -110
-460 16 -48 93 -133 145 -159 106 -54 262 -63 383 -23 42 14 82 24 90 21 17
-7 17 -46 -3 -158 -11 -66 -15 -137 -12 -243 3 -139 5 -153 27 -183 16 -23 30
-32 45 -30 20 3 21 9 23 120 1 112 23 351 43 474 5 32 20 82 32 111 20 49 24
53 35 37 13 -18 15 -18 49 1 44 24 164 128 184 160 8 13 11 27 7 31 -12 12
-133 -46 -193 -92 -88 -69 -90 -58 -27 156 34 114 55 158 97 205 53 60 45 125
-16 125 -34 0 -95 -57 -128 -121 -26 -50 -64 -193 -91 -339 -13 -74 -29 -132
-38 -141 -38 -39 -228 -72 -337 -59 -59 7 -149 42 -187 73 -44 36 -44 135 0
267 38 112 79 188 139 250 60 63 69 98 32 124 -28 20 -26 20 -73 -5z"/>
<path d="M10951 14514 c-19 -16 -33 -39 -37 -62 -4 -20 -20 -73 -36 -117 -31
-82 -59 -163 -121 -345 -98 -292 -180 -459 -238 -491 -31 -16 -70 4 -102 54
-66 102 -81 226 -74 620 4 267 3 310 -10 323 -19 19 -73 15 -84 -6 -60 -116
-152 -318 -203 -445 -35 -88 -83 -205 -105 -260 -85 -204 -117 -348 -86 -379
21 -21 81 -21 89 0 3 9 6 30 6 48 0 48 25 133 92 315 33 91 83 234 110 316 68
203 65 196 83 189 13 -5 15 -36 15 -209 0 -397 33 -532 157 -634 43 -35 125
-51 171 -32 37 16 97 88 123 148 27 62 87 250 140 433 22 80 45 154 49 165 4
11 16 49 25 85 10 35 39 109 67 164 27 55 47 105 44 112 -3 7 -14 17 -25 23
-16 9 -25 6 -50 -15z"/>
<path d="M11535 14486 c-55 -25 -86 -51 -128 -107 -37 -49 -50 -94 -32 -109
22 -18 49 -3 84 45 62 86 163 132 245 111 62 -16 130 -126 160 -262 24 -104
19 -272 -8 -323 -85 -160 -402 -294 -433 -183 -16 57 -8 224 15 298 25 81 88
161 152 194 53 27 65 45 52 75 -39 86 -182 4 -257 -149 -71 -143 -86 -366 -32
-459 32 -55 57 -71 137 -92 77 -20 133 -10 229 40 124 65 229 188 252 294 7
32 9 98 7 155 -8 162 -88 370 -169 442 -65 57 -188 71 -274 30z"/>
<path d="M12544 14466 c-11 -7 -71 -23 -134 -35 -151 -29 -148 -28 -165 -61
-11 -22 -12 -30 -2 -38 28 -22 58 -22 132 3 84 27 115 31 115 14 0 -6 -16 -47
-35 -92 -32 -77 -50 -140 -104 -377 -12 -52 -34 -128 -48 -168 -20 -58 -23
-75 -13 -87 16 -19 40 -19 67 0 25 18 57 114 122 365 43 170 83 295 112 353
l19 37 138 0 c75 0 192 -5 260 -12 103 -10 125 -10 132 2 12 19 3 35 -26 49
-47 21 -198 42 -344 47 -80 3 -159 7 -176 9 -18 2 -40 -2 -50 -9z"/>
<path d="M5928 14181 c-37 -10 -89 -28 -115 -41 -26 -12 -63 -29 -81 -37 -48
-23 -115 -102 -131 -157 -26 -90 -14 -169 48 -296 70 -147 215 -199 416 -151
144 35 218 99 109 94 -27 -1 -108 -4 -180 -5 -130 -3 -131 -3 -179 27 -57 35
-93 88 -76 109 6 7 29 16 51 20 66 10 143 44 237 102 109 68 168 125 190 182
15 40 15 46 0 77 -38 79 -162 112 -289 76z m182 -121 c11 -11 20 -27 20 -35 0
-20 -68 -63 -210 -133 -97 -48 -123 -57 -170 -57 l-55 0 0 52 c1 44 6 57 30
83 58 60 187 108 298 109 54 1 71 -3 87 -19z"/>
<path d="M17583 14158 c-17 -20 -32 -143 -40 -308 l-6 -150 -94 0 c-80 0 -96
-3 -113 -20 -44 -44 33 -88 130 -75 73 10 82 -5 75 -118 -9 -136 -14 -170 -33
-190 -33 -37 35 -78 71 -43 27 27 39 118 32 226 -9 117 -5 121 78 100 168 -43
259 -147 241 -277 -8 -60 11 -86 59 -81 27 3 32 8 40 43 16 78 -34 244 -92
305 -45 48 -146 97 -229 111 -91 16 -92 18 -77 124 7 50 22 139 34 199 17 90
18 114 8 135 -14 29 -66 41 -84 19z"/>
<path d="M6520 14140 c-13 -13 -20 -33 -20 -60 0 -31 -7 -48 -33 -77 -92 -105
-131 -201 -125 -311 3 -51 5 -57 27 -60 53 -8 91 8 121 50 34 47 37 73 13 100
-16 18 -17 18 -39 -9 -12 -15 -25 -25 -29 -21 -13 13 6 79 28 99 12 11 32 30
44 41 l22 22 10 -25 c5 -14 20 -33 33 -41 13 -9 31 -35 38 -59 22 -66 123
-212 170 -244 41 -29 42 -29 118 -18 68 10 80 15 104 44 32 39 37 79 10 79
-10 0 -35 -9 -57 -20 -60 -30 -89 -26 -140 21 -32 30 -60 72 -99 153 -30 61
-59 127 -65 146 -66 217 -82 239 -131 190z"/>
<path d="M7892 14121 c-66 -23 -110 -65 -151 -143 -42 -82 -43 -157 -2 -256
33 -82 55 -113 112 -154 81 -58 137 -72 304 -72 129 0 160 3 220 22 39 12 78
29 89 36 38 30 9 36 -162 30 -139 -5 -178 -4 -231 11 -82 21 -160 60 -188 94
-40 47 -36 50 72 71 80 16 125 41 168 90 81 95 41 231 -82 275 -56 19 -84 19
-149 -4z m158 -126 c13 -22 20 -47 18 -67 -3 -30 -10 -36 -71 -66 -92 -45
-129 -50 -156 -23 -64 64 29 191 140 191 43 0 49 -3 69 -35z"/>
<path d="M17923 13979 c-7 -7 -13 -25 -13 -39 0 -51 16 -58 134 -62 l109 -3
61 -68 c43 -48 81 -107 132 -205 l70 -137 48 -3 c37 -2 62 3 105 24 144 70
201 137 201 237 0 73 -10 91 -63 119 -58 30 -174 30 -274 0 -40 -13 -75 -27
-78 -32 -10 -16 -38 -11 -60 10 -47 47 -128 103 -191 131 -77 35 -162 48 -181
28z m730 -234 c19 -8 37 -21 40 -29 10 -26 -40 -73 -127 -117 -71 -37 -86 -41
-100 -30 -17 15 -76 127 -76 147 0 7 24 17 58 24 31 6 62 13 67 15 26 9 106 4
138 -10z"/>
<path d="M15438 13963 c-71 -18 -107 -41 -145 -91 -43 -57 -54 -98 -60 -219
-4 -85 -2 -114 16 -173 18 -59 27 -74 59 -94 54 -36 184 -59 337 -60 112 -1
139 2 198 22 39 14 66 29 64 35 -2 8 -63 14 -188 18 -187 6 -232 13 -327 51
-56 22 -82 54 -82 103 0 28 15 32 40 10 23 -21 124 -38 173 -29 105 17 187 65
219 128 17 33 19 51 14 104 -4 36 -13 77 -21 92 -14 27 -59 66 -104 90 -41 21
-135 28 -193 13z m172 -108 c32 -16 70 -72 70 -103 0 -29 -72 -89 -122 -102
-24 -6 -49 -13 -56 -15 -8 -3 -52 -2 -98 1 -77 6 -84 9 -84 28 0 59 81 172
140 195 38 15 117 13 150 -4z"/>
<path d="M14015 13949 c-203 -18 -333 -64 -399 -141 -47 -54 -56 -96 -26 -120
31 -25 57 -22 77 10 69 111 170 144 448 146 183 1 222 -6 275 -51 40 -33 38
-55 -10 -93 -53 -42 -130 -68 -256 -85 -126 -18 -179 -12 -216 26 -24 23 -28
36 -28 81 0 59 -12 78 -48 78 -17 0 -27 -9 -39 -37 -32 -77 11 -193 84 -229
32 -16 59 -19 158 -17 136 1 264 32 345 81 59 37 110 104 110 147 0 37 -24
101 -48 129 -56 62 -228 92 -427 75z"/>
<path d="M7473 13903 c-17 -26 -45 -77 -64 -112 -39 -74 -113 -161 -139 -161
-21 0 -45 71 -64 187 -17 108 -37 139 -72 115 -39 -25 -42 -84 -14 -203 49
-199 71 -221 186 -183 62 21 106 62 149 139 42 76 88 205 83 236 -5 41 -33 34
-65 -18z"/>
<path d="M14710 13894 c-133 -47 -243 -257 -301 -575 -18 -96 -20 -137 -16
-264 7 -164 30 -310 55 -337 20 -24 68 -23 81 1 8 13 4 45 -14 117 -34 137
-41 276 -21 455 14 137 22 179 33 179 2 0 27 -24 56 -53 66 -68 112 -82 262
-82 104 1 113 3 177 34 37 18 85 52 108 75 l42 41 -5 77 c-6 91 -42 163 -119
241 -90 90 -233 129 -338 91z m207 -110 c34 -16 74 -49 112 -91 80 -89 88
-105 67 -138 -24 -36 -90 -75 -176 -103 -63 -20 -87 -23 -145 -17 -72 7 -106
19 -187 70 -56 35 -59 52 -20 117 71 120 190 206 267 192 17 -3 54 -17 82 -30z"/>
<path d="M16523 13881 c-92 -25 -119 -40 -228 -121 -138 -104 -225 -205 -225
-260 0 -49 30 -73 96 -78 46 -3 63 0 73 12 18 21 6 63 -19 71 -31 10 -24 27
33 81 125 119 215 178 304 200 99 23 328 16 321 -11 -2 -6 -39 -41 -83 -76
-206 -166 -271 -358 -131 -385 20 -3 46 -4 59 0 59 14 201 138 248 215 28 47
79 37 79 -16 0 -48 41 -133 77 -161 73 -55 172 -27 219 62 46 87 9 119 -53 46
-51 -59 -96 -52 -134 21 -20 41 -42 140 -54 251 -6 51 -9 59 -31 64 -18 5 -32
0 -48 -15 -31 -29 -60 -28 -50 2 14 44 9 52 -48 80 -52 27 -67 29 -195 33
-115 4 -150 1 -210 -15z m468 -158 c14 -24 14 -33 3 -58 -12 -29 -189 -192
-246 -227 -65 -40 -77 -8 -23 60 44 56 173 182 186 182 6 0 9 9 7 20 -3 18 26
49 47 50 6 0 18 -12 26 -27z"/>
<path d="M19855 13883 c-61 -18 -113 -56 -127 -91 -5 -15 -12 -52 -15 -82 -7
-86 15 -103 228 -176 168 -57 210 -78 267 -129 l47 -43 -23 -25 c-35 -37 -123
-62 -222 -62 -77 0 -92 4 -165 37 -68 32 -82 35 -94 23 -21 -21 2 -67 56 -115
53 -46 87 -55 203 -54 104 1 178 22 257 73 95 61 115 125 64 202 -52 77 -172
144 -381 211 -111 35 -140 51 -140 78 0 26 35 34 113 26 75 -8 161 14 178 45
17 33 2 69 -36 85 -44 18 -146 17 -210 -3z"/>
<path d="M19253 13810 c-33 -17 -85 -52 -116 -80 -85 -73 -122 -100 -140 -100
-22 0 -21 12 3 52 28 47 27 106 -2 117 -35 13 -55 -4 -73 -61 -10 -29 -35 -90
-56 -136 -22 -45 -39 -89 -39 -97 0 -17 38 -45 61 -45 10 0 48 23 86 50 37 28
100 71 138 97 39 25 86 61 107 79 48 43 75 56 98 49 29 -9 32 -36 15 -137 -19
-104 -14 -192 12 -220 9 -11 30 -18 50 -18 73 0 97 42 43 73 -35 21 -35 26
-15 157 22 142 20 183 -11 219 -34 41 -80 41 -161 1z"/>
<path d="M2399 13686 c-18 -9 -25 -21 -27 -51 -4 -53 14 -75 66 -82 69 -9 92
30 55 96 -22 38 -61 54 -94 37z"/>
<path d="M7318 12914 c-56 -30 -57 -94 -2 -94 42 0 134 59 134 86 0 27 -87 33
-132 8z"/>
<path d="M10148 12800 c-21 -13 -86 -179 -126 -325 -40 -141 -96 -485 -87
-531 7 -39 28 -53 50 -34 10 8 15 31 15 67 0 136 104 520 185 685 25 50 45 98
45 107 0 36 -44 53 -82 31z"/>
<path d="M7365 12700 c-16 -18 -17 -24 -5 -63 8 -26 14 -109 16 -222 2 -99 5
-223 8 -275 6 -85 1 -159 -20 -302 -6 -40 -4 -49 11 -54 11 -5 25 2 41 18 21
20 26 39 34 114 12 115 12 687 0 739 -14 61 -52 82 -85 45z"/>
<path d="M7957 12631 c-59 -13 -93 -55 -166 -206 -48 -99 -75 -145 -87 -145
-14 0 -15 9 -9 63 4 34 13 89 22 122 24 98 -11 176 -55 120 -22 -28 -39 -144
-47 -329 -3 -66 -10 -137 -16 -159 -8 -31 -7 -43 6 -63 35 -53 106 -11 141 84
76 205 140 337 192 391 42 44 66 50 111 27 36 -19 54 -64 163 -391 38 -115 76
-159 107 -122 8 10 3 36 -18 103 -16 49 -46 143 -67 209 -47 152 -82 222 -133
268 -42 38 -73 44 -144 28z"/>
<path d="M11530 12539 c-118 -23 -272 -132 -320 -225 -21 -42 -25 -63 -25
-144 0 -90 2 -99 38 -170 50 -97 66 -114 143 -144 51 -21 81 -26 149 -26 121
0 235 43 235 88 0 12 -8 13 -47 6 -94 -17 -223 -10 -285 14 -69 28 -115 58
-142 95 -17 23 -21 42 -20 100 0 80 20 129 76 193 43 49 177 114 233 114 56 0
103 17 110 40 9 29 -11 57 -46 64 -36 7 -38 7 -99 -5z"/>
<path d="M12110 12502 c-195 -66 -258 -138 -248 -288 3 -50 11 -74 42 -125 57
-94 91 -126 188 -175 157 -79 286 -114 419 -114 103 0 130 9 113 36 -14 23
-73 43 -162 54 -102 13 -287 85 -442 170 -73 41 -66 53 52 90 210 65 339 144
352 216 9 44 -19 93 -71 125 -50 31 -167 36 -243 11z m195 -96 c54 -23 44 -43
-37 -81 -115 -53 -266 -105 -305 -105 -48 0 -16 98 43 137 82 53 230 77 299
49z"/>
<path d="M9455 12421 c-69 -33 -121 -82 -174 -161 -37 -54 -81 -141 -81 -159
0 -4 -9 -20 -21 -35 -17 -21 -21 -43 -23 -123 -2 -54 -9 -165 -16 -248 -12
-153 -8 -315 12 -392 12 -51 48 -87 77 -78 31 10 34 39 12 133 -32 138 -52
544 -28 568 2 3 28 -8 58 -23 46 -24 63 -28 134 -26 52 1 100 8 138 22 69 24
176 97 213 146 36 48 67 150 59 198 -15 98 -89 177 -182 196 -84 17 -112 14
-178 -18z m220 -75 c39 -26 56 -60 57 -115 1 -139 -156 -251 -355 -251 -82 0
-137 20 -137 50 0 43 111 230 167 283 17 16 50 35 74 43 55 17 160 12 194 -10z"/>
<path d="M10606 12384 c-136 -33 -268 -136 -301 -234 -18 -53 -17 -105 3 -199
12 -55 33 -71 89 -71 110 0 221 79 305 217 29 46 56 87 61 90 16 10 26 -11 43
-82 40 -180 100 -243 216 -230 38 5 67 14 79 26 35 35 21 50 -66 68 -91 19
-124 31 -134 49 -17 31 -40 165 -45 261 -3 51 -10 99 -17 107 -14 17 -45 18
-54 3 -6 -9 -48 -7 -105 6 -8 2 -41 -3 -74 -11z m134 -81 c0 -4 -18 -37 -41
-74 -43 -72 -196 -228 -226 -231 -104 -9 -113 -6 -113 36 0 49 24 98 72 148
49 50 155 107 202 109 17 1 42 5 56 9 33 11 50 12 50 3z m44 -69 c4 -9 4 -19
2 -21 -8 -8 -26 8 -26 23 0 19 16 18 24 -2z"/>
<path d="M24220 971 c0 -29 24 -45 40 -26 11 13 10 18 -6 30 -26 19 -34 19
-34 -4z"/>
<path d="M24240 820 c0 -22 5 -40 10 -40 6 0 10 18 10 40 0 22 -4 40 -10 40
-5 0 -10 -18 -10 -40z"/>
<path d="M24229 697 c-10 -13 -13 -28 -8 -37 4 -8 10 -23 13 -32 9 -30 37 -22
35 10 -1 15 -1 32 1 37 11 45 -15 59 -41 22z"/>
<path d="M24231 510 c0 -33 4 -60 8 -60 10 0 23 99 15 111 -14 23 -22 4 -23
-51z"/>
<path d="M24220 379 c0 -17 4 -28 10 -24 6 3 10 17 10 31 0 13 -4 24 -10 24
-5 0 -10 -14 -10 -31z"/>
</g>
</svg>
