<?xml version="1.0" standalone="no"?>
<!DOCTYPE svg PUBLIC "-//W3C//DTD SVG 20010904//EN"
 "http://www.w3.org/TR/2001/REC-SVG-20010904/DTD/svg10.dtd">
<svg version="1.0" xmlns="http://www.w3.org/2000/svg"
 width="3264.000000pt" height="2448.000000pt" viewBox="0 0 3264.000000 2448.000000"
 preserveAspectRatio="xMidYMid meet">
<metadata>
Created by potrace 1.12, written by Peter Selinger 2001-2015
</metadata>
<g transform="translate(0.000000,2448.000000) scale(0.100000,-0.100000)"
fill="#000000" stroke="none">
<path d="M10876 24414 c-24 -23 -20 -45 17 -94 31 -43 32 -47 35 -165 3 -95
-2 -155 -22 -276 -14 -85 -32 -206 -41 -269 -8 -63 -22 -155 -30 -205 -7 -49
-19 -133 -25 -185 -6 -52 -18 -142 -27 -200 -19 -135 -41 -289 -53 -365 -16
-114 -40 -291 -70 -520 -57 -449 -71 -551 -86 -645 -57 -375 -104 -804 -104
-957 0 -52 -5 -103 -10 -114 -12 -21 -56 -25 -125 -10 -22 5 -258 12 -525 15
-267 3 -573 9 -680 11 -107 3 -422 10 -700 16 -278 5 -707 14 -955 19 -247 6
-793 9 -1213 8 -419 -2 -762 -2 -762 -1 0 1 27 42 59 91 33 50 81 132 107 183
25 52 67 130 92 174 25 44 129 247 230 450 183 369 308 606 376 720 41 68 42
93 5 114 -22 12 -29 12 -55 0 -24 -12 -52 -61 -179 -314 -83 -165 -162 -324
-175 -354 -53 -116 -54 -115 -478 324 -196 204 -202 211 -247 295 -26 47 -35
55 -62 58 -23 2 -35 -3 -47 -20 -40 -57 -14 -94 240 -352 110 -111 234 -241
277 -289 90 -100 117 -117 199 -124 37 -4 58 -10 58 -18 0 -15 -172 -346 -212
-410 -14 -22 -53 -94 -87 -160 -89 -171 -182 -333 -209 -362 -17 -19 -29 -23
-48 -19 -46 12 -1310 -21 -2469 -64 -154 -6 -458 -12 -675 -15 -217 -2 -420
-9 -450 -14 -180 -32 -215 -46 -231 -88 -12 -33 -5 -53 20 -53 11 0 61 11 112
25 88 23 105 24 433 26 188 1 436 5 551 10 1054 40 1563 57 2045 68 234 6 485
13 558 16 111 5 133 4 138 -9 10 -25 36 -27 73 -4 l36 22 915 0 c845 1 1780
-9 1875 -19 22 -2 306 -7 630 -10 325 -4 622 -8 660 -10 247 -12 785 -16 829
-6 65 15 79 4 72 -58 -3 -25 -8 -165 -11 -311 -10 -479 -25 -970 -40 -1245
-60 -1096 -76 -1345 -115 -1810 -19 -220 -38 -553 -40 -695 -1 -74 -4 -151 -6
-170 -12 -117 -16 -1252 -4 -1580 17 -500 15 -990 -5 -1285 -28 -402 -30 -713
-6 -1085 38 -577 38 -1237 0 -1720 -27 -354 -45 -651 -64 -1100 -29 -675 -38
-815 -70 -1140 -8 -80 -19 -194 -25 -255 -24 -248 -31 -432 -40 -1085 -5 -377
-11 -714 -14 -750 -3 -36 -11 -128 -16 -205 -6 -77 -24 -246 -40 -375 -16
-129 -36 -296 -45 -370 -8 -74 -20 -169 -25 -210 -5 -41 -16 -149 -25 -240
-72 -729 -91 -859 -210 -1455 -86 -428 -135 -710 -135 -776 0 -55 18 -76 49
-59 34 18 36 25 76 260 28 168 65 368 100 535 76 365 98 478 125 660 23 156
56 424 70 585 6 58 17 168 25 245 9 77 22 205 30 285 8 80 24 231 35 335 11
105 27 260 36 345 14 148 22 191 26 139 0 -13 2 -35 4 -49 1 -14 7 -250 13
-525 19 -903 21 -979 32 -1110 6 -71 18 -260 27 -419 12 -206 21 -291 29 -293
7 -3 24 7 38 21 24 24 25 30 25 153 0 70 -9 270 -19 443 -11 173 -22 448 -26
610 -9 448 -34 982 -51 1100 -9 59 -11 922 -3 1155 15 432 30 792 39 940 5 83
12 224 15 315 2 91 9 219 14 285 6 66 15 199 21 295 27 441 63 876 95 1180 8
74 26 250 40 390 13 140 29 293 34 340 63 536 87 996 96 1810 5 485 20 906 45
1240 18 238 19 262 30 425 23 365 31 625 40 1285 11 865 21 1027 115 1955 69
679 88 946 129 1815 31 635 55 1092 62 1146 7 63 30 78 96 65 29 -5 148 -13
263 -16 245 -7 764 -23 980 -30 457 -17 1420 -85 1760 -125 44 -5 159 -16 255
-25 197 -17 501 -52 1070 -121 118 -14 257 -27 307 -28 51 -1 95 -5 98 -7 2
-3 -2 -43 -10 -90 -16 -94 -46 -337 -70 -564 -8 -82 -29 -276 -45 -430 -16
-154 -34 -327 -40 -385 -5 -58 -19 -193 -29 -300 -101 -996 -131 -1400 -171
-2350 -11 -261 -22 -509 -25 -550 -26 -362 -54 -1200 -55 -1615 -1 -352 -11
-794 -30 -1350 -27 -827 -15 -1572 40 -2410 15 -231 53 -629 100 -1055 61
-547 67 -660 130 -2295 27 -681 22 -1712 -10 -2285 -58 -1034 -109 -1460 -229
-1915 -54 -206 -80 -301 -96 -344 -19 -55 -19 -95 0 -111 45 -38 112 106 200
432 101 371 174 907 205 1503 5 105 12 219 15 255 3 36 12 238 20 450 29 739
17 1847 -30 2730 -2 47 -9 204 -15 350 -13 339 -37 750 -50 865 -114 1010
-145 1365 -177 2055 -22 478 -22 1356 0 2015 9 281 19 760 22 1065 5 571 10
734 45 1442 11 227 24 514 30 638 26 597 41 897 50 1025 19 272 31 422 46 585
8 91 22 237 30 325 52 572 136 1390 189 1841 14 116 30 257 35 313 5 56 15
111 21 122 12 24 29 23 159 -4 41 -9 154 -28 250 -42 96 -14 263 -41 370 -60
316 -54 347 -58 377 -49 15 4 246 9 513 9 304 1 599 8 790 18 168 9 467 21
665 27 463 13 677 19 845 25 74 3 218 7 320 10 358 11 665 25 694 31 l28 7 -5
-54 c-2 -30 -9 -94 -15 -144 -16 -124 -55 -820 -77 -1355 -3 -74 -8 -173 -11
-220 -22 -383 -36 -937 -44 -1745 -6 -522 -14 -1076 -19 -1230 -15 -430 -12
-1178 5 -1550 8 -181 19 -719 24 -1195 9 -842 14 -1018 45 -1475 43 -642 61
-1022 70 -1520 8 -423 40 -1118 60 -1295 3 -25 14 -169 25 -320 52 -734 68
-1353 51 -2050 -17 -736 -38 -1047 -112 -1693 -5 -49 -18 -170 -29 -270 -11
-100 -24 -220 -30 -267 -5 -47 -14 -121 -20 -165 -60 -501 -154 -1207 -180
-1360 -6 -33 -31 -172 -56 -310 -78 -425 -94 -516 -114 -645 -11 -69 -24 -154
-30 -190 -27 -169 -60 -515 -60 -631 0 -103 3 -131 16 -143 11 -12 20 -13 35
-6 24 13 26 28 33 170 5 106 19 233 60 540 27 202 53 357 125 740 74 395 144
858 201 1330 11 85 30 243 44 350 28 219 127 1110 150 1355 32 326 46 625 58
1205 10 522 9 659 -6 1115 -9 286 -21 574 -26 640 -9 119 -36 491 -45 635 -3
41 -12 170 -20 285 -19 275 -32 638 -45 1185 -5 245 -12 479 -15 520 -3 41
-12 188 -20 325 -8 138 -17 275 -20 305 -3 30 -15 215 -26 410 -15 268 -22
581 -29 1275 -5 506 -15 1001 -22 1100 -16 240 -16 1267 -1 1885 7 267 15 766
18 1110 5 572 16 903 60 1910 17 406 41 839 59 1105 7 105 11 210 9 235 -6 58
19 93 63 92 423 -13 946 -21 1584 -26 768 -6 1148 -12 1410 -21 69 -3 258 -9
420 -15 365 -12 524 -18 665 -26 61 -3 139 -7 175 -9 289 -13 363 -16 492 -27
129 -10 150 -9 171 5 27 18 52 70 44 92 -9 22 -55 30 -103 17 -31 -8 -114 -8
-335 3 -530 26 -721 34 -949 40 -124 3 -265 7 -315 10 -49 3 -166 8 -260 10
-93 3 -228 7 -300 10 -71 2 -418 7 -770 10 -352 3 -894 8 -1205 12 -652 8
-603 8 -703 -2 l-78 -8 7 44 c3 24 10 60 15 79 5 19 13 87 19 150 5 63 19 212
30 330 10 118 24 274 30 345 5 72 14 180 20 240 5 61 17 193 25 295 25 298 53
535 101 855 24 165 47 307 49 315 9 35 80 551 104 765 11 95 36 424 46 611 5
102 4 112 -15 137 -26 33 -40 34 -68 4 -20 -21 -22 -34 -22 -123 1 -54 -4
-166 -9 -249 -6 -82 -14 -190 -17 -240 -6 -94 -53 -481 -78 -645 -8 -52 -18
-115 -21 -140 -8 -57 -41 -270 -65 -420 -11 -63 -28 -187 -39 -275 -30 -243
-47 -422 -81 -835 -6 -69 -15 -174 -21 -235 -5 -60 -14 -164 -19 -230 -14
-179 -39 -459 -49 -550 -5 -44 -7 -94 -4 -111 5 -31 -19 -104 -34 -104 -4 0
-152 -2 -328 -5 -176 -2 -435 -9 -575 -14 -140 -6 -354 -13 -475 -16 -474 -11
-778 -23 -1165 -42 -219 -11 -488 -16 -824 -16 -275 1 -509 -3 -522 -7 -14 -6
-67 0 -150 15 -71 14 -185 33 -254 44 -69 11 -154 25 -190 31 -143 23 -369 49
-432 50 -67 0 -68 0 -68 28 0 15 5 45 10 67 20 81 95 648 135 1020 29 272 75
678 105 930 34 288 49 479 60 765 15 373 -1 1023 -30 1252 -5 40 -12 126 -16
191 -8 128 -15 144 -58 128 -44 -17 -44 -19 -10 -436 20 -257 24 -1109 6
-1360 -12 -155 -36 -388 -77 -725 -9 -69 -29 -251 -45 -405 -59 -546 -96 -858
-140 -1168 -11 -76 -20 -154 -20 -173 0 -20 -8 -49 -17 -65 -20 -33 -48 -37
-111 -15 -35 12 -147 27 -587 76 -44 5 -161 19 -260 30 -99 11 -223 25 -275
30 -52 5 -183 18 -290 29 -107 11 -249 25 -315 30 -66 6 -190 17 -275 25 -145
14 -384 32 -750 56 -402 26 -1192 52 -1643 54 l-319 1 5 50 c2 28 13 140 25
250 24 223 45 458 67 735 9 102 19 219 24 260 6 41 12 118 16 170 3 52 12 165
20 250 8 85 19 214 25 285 6 72 15 164 20 205 5 41 14 120 20 175 43 407 83
660 145 930 9 39 13 91 9 149 -2 49 0 103 6 120 5 18 11 86 13 151 2 98 -1
126 -15 154 -10 19 -18 44 -18 57 0 24 -33 54 -61 54 -9 0 -24 -9 -33 -19 -17
-19 -17 -23 5 -88 20 -60 23 -87 23 -238 0 -96 -6 -200 -13 -240 -8 -38 -31
-158 -52 -265 -47 -242 -67 -368 -79 -490 -5 -52 -18 -180 -29 -285 -11 -104
-27 -266 -36 -360 -8 -93 -20 -217 -25 -275 -6 -58 -26 -285 -45 -505 -58
-675 -65 -755 -80 -899 -8 -76 -15 -164 -16 -195 -1 -109 -34 -152 -99 -129
-14 6 -69 7 -122 3 l-98 -7 0 36 c0 19 4 79 10 133 5 54 16 175 25 268 9 94
34 298 56 455 22 157 49 350 59 430 11 80 28 210 39 290 11 80 27 208 36 285
8 77 20 167 25 200 11 60 32 204 75 500 13 88 26 192 29 230 4 39 11 95 16
125 5 30 14 102 20 160 7 58 20 157 31 221 49 292 63 479 42 574 -16 74 -31
98 -75 121 -35 18 -53 18 -72 -2z m-116 -4089 l95 0 -1 -45 c0 -25 -5 -97 -12
-160 -12 -121 -25 -352 -42 -765 -42 -975 -65 -1312 -165 -2330 -72 -734 -79
-885 -90 -1865 -5 -414 -28 -1074 -40 -1160 -3 -19 -14 -190 -24 -380 -11
-190 -22 -383 -26 -430 -3 -47 -9 -449 -14 -895 -9 -791 -18 -1018 -55 -1440
-36 -398 -60 -644 -64 -640 -2 2 1 86 7 187 34 537 38 1038 13 1533 -21 433
-20 927 2 1295 19 300 22 966 6 1345 -10 262 -5 1183 10 1570 12 329 36 739
50 865 14 123 47 642 85 1335 9 149 20 344 25 435 14 240 28 689 36 1135 4
215 11 398 16 408 8 16 16 17 51 10 23 -4 85 -8 137 -8z"/>
<path d="M32030 24190 c0 -5 7 -10 15 -10 8 0 15 5 15 10 0 6 -7 10 -15 10 -8
0 -15 -4 -15 -10z"/>
<path d="M28565 23410 c-3 -5 -1 -10 4 -10 6 0 11 5 11 10 0 6 -2 10 -4 10 -3
0 -8 -4 -11 -10z"/>
<path d="M14375 22984 c-539 -88 -613 -97 -1210 -144 -577 -46 -614 -50 -830
-96 -155 -33 -175 -46 -175 -112 0 -43 21 -50 73 -24 23 11 80 30 127 42 46
12 92 25 101 30 9 5 74 12 145 15 159 7 369 22 489 35 50 5 203 19 340 30 310
25 421 39 783 95 158 24 319 46 358 49 80 5 112 20 121 55 17 68 -36 72 -322
25z"/>
<path d="M2342 22733 c-26 -10 -42 -58 -31 -97 12 -44 81 -178 132 -259 39
-60 187 -235 251 -296 20 -19 36 -42 36 -51 0 -10 -34 -35 -87 -65 -132 -73
-350 -214 -461 -299 -116 -87 -311 -266 -330 -302 -20 -39 -12 -77 20 -88 40
-14 80 8 131 72 50 64 223 222 307 282 30 21 96 65 145 96 215 138 262 168
296 195 45 36 51 36 66 2 7 -16 53 -73 104 -128 96 -106 201 -255 314 -445 38
-63 78 -125 89 -137 32 -38 86 -25 86 20 0 17 -121 225 -219 377 -69 106 -150
206 -235 288 -47 45 -86 86 -86 90 0 8 274 161 512 287 140 73 170 98 153 125
-12 20 -69 9 -161 -30 -131 -56 -386 -187 -471 -243 -40 -26 -78 -47 -86 -47
-13 0 -43 35 -78 90 -9 14 -52 66 -96 115 -43 50 -94 112 -112 138 -46 67 -98
186 -106 241 -10 65 -37 88 -83 69z"/>
<path d="M14084 22300 c-27 -10 -87 -39 -134 -65 -47 -26 -132 -73 -190 -105
-58 -31 -121 -66 -140 -77 -19 -11 -89 -51 -155 -88 -172 -97 -555 -328 -658
-397 -49 -32 -92 -56 -97 -53 -14 9 -110 317 -125 402 -8 43 -14 113 -15 156
0 72 -2 78 -24 88 -34 16 -70 4 -84 -27 -13 -27 -4 -134 19 -254 20 -98 79
-262 121 -333 30 -52 38 -74 31 -86 -5 -9 -45 -40 -89 -70 -79 -53 -334 -255
-393 -310 -54 -51 -36 -141 28 -141 14 0 56 32 119 93 54 50 142 128 197 171
55 44 121 97 147 118 26 21 53 38 60 38 8 0 28 -28 44 -62 55 -118 285 -379
424 -483 79 -59 236 -135 279 -135 36 0 81 38 81 67 0 37 -17 48 -77 48 -131
0 -315 138 -508 380 -27 33 -77 95 -113 138 l-65 78 23 24 c20 22 150 105 470
303 69 43 145 89 170 103 264 150 606 349 652 380 62 42 89 74 81 94 -8 23
-27 24 -79 5z"/>
<path d="M22385 22260 c-140 -12 -229 -27 -375 -60 -74 -17 -155 -35 -180 -40
-73 -14 -157 -38 -179 -49 -45 -24 -55 -90 -19 -115 33 -24 71 -20 172 18 85
32 223 69 376 101 36 7 112 16 170 20 58 3 128 11 155 16 62 12 588 15 862 5
l202 -8 26 26 c42 42 31 61 -40 63 -33 2 -112 8 -175 14 -137 13 -867 20 -995
9z"/>
<path d="M16900 22220 c-25 -25 -25 -65 -1 -111 11 -19 24 -53 30 -75 14 -50
90 -356 102 -409 18 -78 92 -291 122 -350 93 -187 201 -327 278 -362 34 -15
49 -28 49 -41 0 -11 -31 -84 -69 -163 -81 -168 -122 -312 -124 -442 -2 -80 -1
-82 22 -82 35 0 61 42 77 125 22 116 61 224 134 375 38 77 78 156 89 175 52
89 196 435 260 625 39 116 90 260 112 320 52 139 58 182 29 213 -11 12 -25 22
-30 22 -5 0 -20 -10 -34 -22 -17 -16 -37 -62 -67 -153 -137 -429 -200 -600
-296 -805 -70 -148 -84 -155 -135 -71 -12 20 -49 72 -81 115 -68 92 -142 242
-185 372 -39 116 -133 483 -171 666 -9 41 -20 64 -38 78 -32 25 -48 25 -73 0z"/>
<path d="M8335 22163 c-149 -4 -388 -23 -423 -34 -57 -18 -67 -74 -17 -97 19
-9 43 -8 100 3 112 21 478 38 708 32 170 -4 214 -8 277 -27 94 -28 126 -44
145 -74 38 -57 -41 -140 -267 -280 -308 -191 -488 -340 -488 -405 0 -53 53
-109 143 -151 159 -75 263 -92 642 -110 127 -6 261 -15 299 -21 79 -11 111 1
122 48 16 62 -30 76 -256 75 -239 -2 -525 28 -674 68 -79 22 -156 64 -156 85
0 37 144 145 440 330 164 103 234 159 271 218 78 127 33 219 -142 287 -140 54
-295 65 -724 53z"/>
<path d="M24534 22118 c-33 -15 -41 -38 -80 -228 -56 -272 -63 -308 -74 -413
-7 -72 -15 -106 -31 -128 -19 -27 -24 -29 -92 -29 -81 -1 -215 -19 -357 -49
-52 -12 -105 -21 -117 -21 -11 0 -33 -14 -48 -31 -33 -40 -31 -79 7 -97 24
-11 38 -10 108 12 45 13 145 37 223 51 78 15 157 33 175 41 18 8 48 14 67 14
30 0 35 -3 35 -23 0 -13 -7 -46 -15 -73 -9 -27 -27 -104 -40 -172 -14 -67 -43
-171 -65 -231 -43 -117 -47 -136 -27 -144 36 -14 94 45 122 124 29 79 85 317
91 382 7 85 11 98 35 127 19 23 29 25 98 26 97 0 223 19 261 39 32 16 50 59
32 77 -11 11 -112 1 -278 -29 -112 -20 -126 -16 -113 29 5 18 23 98 40 178 17
80 51 223 75 319 49 194 52 221 26 244 -21 19 -28 20 -58 5z"/>
<path d="M19102 21929 c-146 -18 -332 -58 -612 -133 -100 -27 -130 -48 -130
-92 0 -16 8 -28 24 -35 20 -10 48 -5 158 29 158 48 291 82 448 113 98 20 147
23 332 24 205 0 218 -1 245 -21 41 -31 42 -79 3 -153 -60 -113 -185 -228 -360
-332 -41 -25 -135 -81 -209 -124 -167 -100 -221 -148 -221 -197 0 -59 36 -80
215 -124 168 -40 420 -51 610 -24 39 5 133 17 210 26 119 15 143 21 162 40 27
27 30 66 7 88 -18 18 -33 20 -68 6 -36 -13 -272 -46 -444 -61 -209 -18 -547
10 -559 47 -5 16 46 63 95 88 83 42 304 176 398 242 175 121 294 284 294 401
0 91 -46 148 -143 179 -62 20 -339 28 -455 13z"/>
<path d="M21879 21719 c-20 -20 -21 -29 -16 -143 3 -96 10 -137 31 -200 52
-154 143 -280 254 -352 54 -35 65 -61 36 -85 -9 -7 -59 -34 -112 -59 -120 -58
-569 -316 -623 -359 -15 -11 -30 -32 -33 -47 -9 -35 17 -74 48 -74 13 0 84 40
157 88 74 49 186 119 249 157 63 37 131 78 150 90 20 12 61 35 90 50 30 15 85
47 121 71 36 24 69 44 73 44 4 0 38 -28 75 -62 38 -35 82 -72 97 -83 37 -26
253 -155 259 -155 3 0 49 -25 103 -55 114 -63 150 -69 187 -29 14 15 25 30 25
35 0 26 -16 39 -58 45 -59 8 -150 46 -219 90 -29 19 -55 34 -58 34 -3 0 -28
15 -57 34 -29 18 -80 48 -113 66 -97 53 -145 84 -145 96 0 21 47 54 140 97 52
24 140 70 195 102 55 32 134 76 175 98 128 68 253 149 293 188 37 36 49 80 27
94 -11 7 -22 0 -140 -78 -39 -26 -120 -72 -178 -102 -59 -30 -136 -70 -171
-90 -35 -19 -129 -69 -210 -111 -80 -42 -164 -87 -186 -100 -22 -13 -46 -23
-52 -21 -23 4 -228 244 -256 298 -50 100 -68 182 -65 300 3 94 1 110 -16 128
-24 27 -50 27 -77 0z"/>
<path d="M25920 21490 c-56 -26 -288 -263 -330 -337 -35 -62 -87 -123 -105
-123 -7 0 -25 19 -41 42 -16 24 -57 82 -92 130 -61 85 -112 190 -112 233 0 25
-29 55 -52 55 -22 0 -66 -44 -74 -75 -4 -15 -1 -36 5 -48 60 -118 210 -312
267 -348 50 -30 64 -47 57 -67 -18 -47 -123 -190 -172 -231 -135 -113 -175
-170 -176 -251 0 -34 -8 -55 -33 -89 -39 -53 -43 -91 -9 -91 41 0 91 46 162
149 125 182 159 225 202 254 33 22 44 36 49 65 8 46 44 110 101 180 24 29 57
81 74 115 37 72 214 255 305 313 123 79 102 182 -26 124z"/>
<path d="M26190 21412 c-16 -17 -30 -39 -30 -50 0 -37 21 -43 141 -36 63 4
188 1 279 -6 91 -6 215 -15 275 -20 135 -10 149 -14 133 -43 -20 -38 -54 -75
-155 -163 -118 -104 -207 -165 -339 -234 -139 -73 -158 -86 -174 -116 -14 -25
-13 -28 20 -56 43 -36 84 -58 130 -70 156 -42 206 -49 350 -55 226 -8 323 21
372 113 49 92 -19 100 -126 15 -38 -31 -40 -31 -155 -31 -121 0 -310 19 -393
40 -81 21 -64 42 88 118 105 53 209 126 331 235 125 110 192 214 167 255 -14
22 -89 58 -139 67 -22 4 -47 11 -55 15 -13 7 -99 17 -310 36 -36 3 -136 8
-222 11 l-157 5 -31 -30z"/>
<path d="M3300 19949 c-97 -11 -198 -42 -280 -85 -60 -31 -72 -33 -150 -33
-94 1 -136 -11 -239 -67 -94 -52 -145 -98 -200 -180 -73 -108 -86 -155 -86
-304 0 -119 2 -128 32 -193 41 -86 143 -192 228 -235 202 -102 407 -109 635
-21 201 77 414 211 545 343 134 135 195 255 195 384 0 90 -14 135 -62 199
-107 146 -358 224 -618 192z m248 -114 c134 -15 234 -67 287 -150 39 -62 47
-100 35 -167 -36 -188 -208 -361 -518 -519 -241 -124 -429 -153 -608 -94 -143
48 -228 116 -277 223 -18 38 -22 66 -22 147 0 107 17 173 62 252 54 93 191
183 306 201 57 9 59 8 68 -15 7 -20 15 -24 42 -22 17 1 49 -1 70 -6 48 -10 77
13 77 61 0 23 6 37 19 44 34 18 153 42 246 49 89 8 109 7 213 -4z"/>
<path d="M6125 19829 c-204 -29 -515 -200 -630 -346 -76 -98 -108 -215 -85
-315 58 -254 272 -402 575 -399 222 2 379 55 595 200 181 121 249 194 271 292
14 59 -6 157 -44 221 -40 65 -152 161 -235 201 -38 17 -67 38 -72 51 -19 51
-79 80 -196 95 -99 12 -94 12 -179 0z m26 -106 c-47 -44 -59 -86 -25 -91 12
-2 34 8 50 21 74 62 164 77 252 42 39 -16 42 -20 42 -56 0 -22 7 -55 14 -74
12 -28 20 -35 44 -35 18 0 38 10 52 25 13 14 29 25 36 25 18 0 91 -118 114
-184 28 -82 26 -123 -9 -177 -47 -75 -280 -238 -414 -289 -191 -74 -416 -80
-573 -14 -21 9 -62 33 -91 52 -88 62 -154 218 -137 327 8 54 65 146 125 200
110 99 306 202 464 245 98 26 103 25 56 -17z"/>
<path d="M8980 19710 c-14 -4 -43 -8 -65 -9 -63 -2 -153 -28 -235 -68 -56 -28
-97 -59 -161 -123 -171 -170 -214 -339 -135 -527 119 -283 332 -430 591 -410
159 13 270 71 421 221 72 72 99 108 130 170 34 70 39 88 42 173 7 159 -43 288
-157 406 -124 129 -317 204 -431 167z m206 -111 c70 -34 174 -124 209 -179 67
-107 83 -279 34 -390 -68 -157 -279 -330 -438 -360 -71 -13 -185 5 -257 40
-85 41 -171 135 -225 244 -91 185 -56 338 119 511 54 54 152 122 140 99 -40
-83 -45 -124 -13 -124 15 0 125 90 125 102 0 20 95 68 134 69 23 0 50 4 61 9
33 14 47 11 111 -21z"/>
<path d="M13089 19479 c-17 -17 -20 -29 -16 -62 40 -337 33 -565 -33 -1004
-11 -72 -20 -183 -20 -245 0 -109 1 -116 30 -161 16 -26 32 -47 35 -47 18 0
44 23 54 49 11 24 10 34 -5 62 -26 49 -23 194 9 404 54 349 71 685 47 894 -14
122 -50 161 -101 110z"/>
<path d="M18060 19215 c-81 -15 -276 -84 -327 -115 -41 -25 -70 -67 -55 -82 7
-7 -3 -24 -37 -58 -87 -87 -120 -241 -88 -415 61 -333 459 -651 854 -682 232
-17 470 119 570 327 85 176 109 329 74 469 -32 129 -81 211 -185 314 -49 48
-93 87 -98 87 -5 0 -43 20 -86 45 -42 24 -126 61 -186 80 -96 33 -122 37 -235
41 -83 2 -151 -1 -201 -11z m324 -89 c180 -35 283 -87 407 -208 85 -82 100
-102 130 -173 31 -74 34 -88 34 -185 0 -125 -27 -217 -101 -346 -77 -135 -162
-202 -304 -239 -271 -71 -698 143 -837 420 -40 79 -57 156 -57 256 0 86 3 102
33 165 56 120 102 153 220 161 92 6 249 -25 431 -87 124 -42 139 -55 195 -164
27 -52 35 -81 35 -120 0 -64 20 -96 60 -96 34 0 70 40 70 79 -1 38 -41 131
-89 200 -35 51 -41 69 -41 111 0 43 -3 52 -24 61 -18 9 -31 7 -65 -10 l-41
-22 -43 25 c-65 38 -130 56 -277 78 -90 13 -164 18 -222 15 -96 -5 -103 3 -31
35 121 54 359 74 517 44z"/>
<path d="M23788 19014 c-36 -19 -53 -54 -83 -168 -30 -114 -91 -472 -100 -581
-4 -44 -16 -156 -26 -250 -11 -93 -25 -314 -31 -490 -18 -491 -17 -499 29
-493 55 6 61 34 67 339 6 293 13 399 46 679 52 436 89 624 164 825 31 84 32
109 6 135 -24 24 -36 24 -72 4z"/>
<path d="M3157 18420 c-47 -20 -50 -20 -97 -3 -95 34 -270 -12 -410 -107 -176
-119 -276 -271 -316 -480 -18 -90 -20 -371 -4 -462 14 -79 53 -176 99 -248 42
-64 150 -146 239 -182 82 -32 254 -32 362 1 278 85 631 282 787 438 153 153
253 349 253 493 0 61 -28 166 -58 220 -106 189 -394 334 -687 346 -105 4 -126
2 -168 -16z m291 -106 c175 -36 345 -116 417 -195 20 -23 49 -67 64 -98 22
-48 26 -68 24 -146 -1 -103 -19 -161 -84 -271 -51 -85 -100 -137 -207 -220
-255 -198 -643 -374 -823 -374 -204 0 -354 123 -397 327 -29 135 -22 400 13
537 49 188 182 333 377 409 105 42 138 44 186 13 55 -34 75 -33 120 10 l37 35
100 -6 c55 -3 133 -13 173 -21z"/>
<path d="M6267 18209 c-21 -5 -52 -16 -69 -25 -26 -14 -39 -14 -93 -4 -171 32
-349 -59 -522 -268 -165 -198 -222 -425 -154 -611 50 -138 121 -220 254 -299
229 -136 538 -159 811 -63 152 54 319 164 431 284 111 118 147 188 152 295 6
98 -16 164 -93 278 -71 106 -265 288 -351 329 -124 59 -226 80 -193 40 7 -8
27 -19 44 -23 32 -9 116 -71 227 -167 66 -58 181 -200 213 -265 54 -107 59
-216 16 -304 -74 -147 -338 -336 -557 -398 -105 -29 -321 -32 -433 -5 -111 27
-250 96 -313 156 -159 150 -178 390 -50 611 49 83 201 236 277 280 130 74 338
42 464 -72 30 -26 62 -48 73 -48 28 0 69 44 69 75 0 23 -12 31 -105 76 -58 27
-105 54 -105 59 0 15 31 27 88 35 60 8 67 20 16 29 -19 4 -41 9 -47 11 -7 1
-29 -1 -50 -6z"/>
<path d="M8736 18155 c-13 -13 -14 -35 -9 -128 3 -62 0 -152 -6 -202 -6 -49
-17 -211 -26 -360 -23 -427 -36 -646 -42 -695 -8 -83 41 -105 88 -39 27 38 34
100 54 494 8 165 22 370 30 455 30 306 34 375 28 412 -10 64 -79 101 -117 63z"/>
<path d="M13099 17574 c-22 -24 -24 -33 -21 -107 2 -74 -8 -198 -39 -477 -6
-52 -19 -133 -29 -180 -38 -167 -50 -283 -30 -295 13 -8 47 12 60 35 11 21 46
165 81 335 11 55 26 159 34 230 8 72 22 198 31 282 16 142 16 153 0 177 -21
33 -56 33 -87 0z"/>
<path d="M18153 17115 c-158 -25 -231 -64 -218 -117 5 -21 1 -29 -28 -47 -55
-34 -208 -201 -250 -272 -53 -90 -71 -157 -64 -244 14 -181 109 -291 313 -361
203 -70 574 -9 782 130 154 102 232 272 219 476 -8 126 -36 190 -116 271 -150
151 -367 206 -638 164z m377 -109 c127 -46 192 -96 233 -184 29 -61 32 -75 31
-162 -1 -167 -53 -290 -158 -372 -130 -102 -435 -170 -623 -139 -72 13 -174
54 -221 91 -73 58 -102 149 -82 256 29 152 225 380 408 473 63 33 203 66 288
70 17 0 73 -14 124 -33z"/>
<path d="M23569 16776 c-55 -37 -71 -91 -89 -295 -13 -156 -53 -445 -85 -621
-13 -74 -27 -162 -30 -195 -3 -33 -8 -81 -11 -107 -4 -42 -2 -49 20 -63 19
-13 29 -14 45 -5 36 19 50 53 65 160 8 58 35 218 61 355 25 138 59 327 75 422
17 94 39 200 50 235 23 72 25 109 8 126 -20 20 -71 14 -109 -12z"/>
<path d="M3144 16425 c-279 -50 -540 -208 -668 -404 -88 -134 -120 -251 -121
-431 0 -142 10 -193 67 -333 118 -295 317 -457 597 -488 199 -21 424 46 659
197 258 167 380 322 433 549 37 162 17 337 -52 454 -67 111 -230 229 -374 270
-22 6 -86 14 -142 18 -57 3 -103 8 -103 10 0 2 9 16 21 32 30 40 24 111 -11
128 -32 16 -212 15 -306 -2z m251 -105 c4 -6 0 -21 -9 -34 -11 -18 -28 -26
-68 -31 -247 -31 -400 -86 -494 -177 -59 -56 -82 -128 -41 -128 8 0 42 23 76
50 71 57 95 70 166 95 83 28 276 65 342 65 147 0 312 -38 423 -97 95 -51 128
-79 170 -144 84 -130 78 -340 -16 -539 -29 -61 -53 -92 -132 -170 -143 -141
-293 -232 -491 -300 -305 -104 -585 -13 -735 240 -55 93 -101 220 -118 325
-22 144 9 335 74 458 76 143 299 300 498 352 148 39 341 58 355 35z"/>
<path d="M6170 15862 c-21 -17 -21 -18 -27 -563 -5 -501 -4 -547 12 -562 19
-19 48 -10 63 21 5 9 12 107 16 217 3 110 11 350 18 532 11 317 10 334 -7 353
-22 25 -46 25 -75 2z"/>
<path d="M8495 15684 c-135 -35 -178 -62 -190 -116 -4 -18 -29 -55 -55 -82
-90 -96 -177 -255 -201 -366 -14 -65 -6 -167 17 -212 65 -129 162 -181 339
-179 185 1 361 77 575 246 90 71 163 154 196 220 23 47 26 65 21 113 -13 148
-138 286 -314 347 -56 20 -96 25 -218 29 -82 3 -159 3 -170 0z m388 -125 c45
-22 95 -53 110 -67 36 -34 72 -94 87 -148 11 -38 10 -47 -12 -96 -45 -97 -213
-251 -368 -335 -115 -64 -196 -87 -305 -87 -89 -1 -105 2 -144 24 -66 37 -85
69 -89 149 -5 82 13 151 64 246 72 137 161 234 260 284 86 43 123 41 178 -9
52 -48 87 -52 113 -14 17 27 17 27 -21 60 -33 29 -35 33 -20 42 21 12 34 7
147 -49z"/>
<path d="M12739 15227 c-21 -16 -39 -51 -39 -75 0 -10 16 -39 35 -64 19 -24
46 -72 60 -105 67 -166 117 -619 84 -763 -14 -63 -5 -92 28 -88 80 9 101 222
57 573 -21 169 -40 244 -92 373 -59 146 -91 182 -133 149z"/>
<path d="M18041 15220 c-151 -31 -185 -45 -235 -101 -25 -28 -79 -76 -119
-107 -117 -90 -224 -219 -280 -341 -27 -58 -31 -77 -31 -156 -1 -76 3 -97 24
-138 48 -96 149 -165 295 -203 180 -46 528 8 729 114 173 91 276 267 276 472
0 124 -39 259 -86 301 -25 22 -169 106 -214 125 -42 18 -205 54 -240 53 -14 0
-67 -9 -119 -19z m229 -103 c20 -7 46 -29 65 -54 16 -23 43 -47 58 -54 26 -11
31 -9 67 26 l38 37 27 -41 c104 -157 77 -434 -58 -587 -64 -73 -146 -110 -335
-154 -294 -67 -534 -27 -620 102 -104 158 102 485 420 666 102 59 259 86 338
59z"/>
<path d="M23279 15057 c-37 -25 -38 -28 -109 -255 -97 -310 -119 -474 -130
-947 -4 -209 -13 -398 -19 -420 -6 -22 -11 -64 -11 -93 0 -59 15 -73 55 -52
54 29 75 146 75 421 0 537 43 793 199 1194 35 91 39 135 13 158 -24 22 -33 21
-73 -6z"/>
<path d="M6286 14429 l-27 -21 6 -192 c4 -105 10 -267 15 -361 5 -93 7 -231 4
-305 -5 -168 1 -204 39 -208 23 -3 30 2 44 35 15 34 17 89 15 543 -1 465 -3
506 -19 517 -24 18 -46 16 -77 -8z"/>
<path d="M8622 14256 c-25 -33 -99 -334 -112 -461 -12 -106 -11 -125 21 -437
23 -220 22 -500 0 -622 -14 -75 -5 -116 25 -116 28 0 71 57 85 112 20 78 17
447 -5 693 -27 299 -12 432 79 692 28 81 33 107 25 123 -24 45 -88 54 -118 16z"/>
<path d="M3107 14245 c-105 -21 -244 -64 -323 -100 -87 -40 -145 -91 -175
-153 -13 -26 -38 -71 -57 -101 -115 -181 -154 -366 -127 -602 15 -130 20 -154
62 -284 54 -168 136 -281 251 -346 123 -69 304 -103 466 -88 125 12 325 90
504 195 94 56 287 211 367 295 203 213 280 366 278 549 -1 84 -5 105 -36 183
-55 134 -127 222 -250 300 -187 120 -393 168 -715 166 -105 0 -205 -6 -245
-14z m453 -115 c123 -12 236 -32 300 -54 70 -24 230 -119 264 -157 78 -86 115
-187 116 -320 1 -174 -151 -414 -373 -592 -196 -157 -348 -243 -540 -309 -84
-29 -103 -32 -217 -32 -106 0 -138 4 -211 26 -101 31 -122 40 -169 81 -73 63
-116 149 -167 332 -26 93 -28 113 -28 285 0 174 2 190 27 270 44 138 138 258
256 327 39 23 49 25 115 18 86 -8 104 2 141 75 l22 45 95 6 c166 9 251 9 369
-1z"/>
<path d="M12722 13417 c-31 -33 -27 -69 14 -126 65 -91 103 -219 130 -431 18
-147 18 -273 -1 -380 -19 -109 -19 -136 1 -144 23 -9 59 17 72 51 14 38 39
165 47 238 13 139 -38 475 -96 625 -65 169 -117 221 -167 167z"/>
<path d="M18290 13163 c-19 -25 -21 -35 -15 -113 3 -47 10 -231 15 -410 9
-320 46 -743 70 -797 12 -29 31 -29 56 -2 24 26 25 131 4 294 -10 78 -14 240
-16 558 l-1 448 -23 24 c-31 33 -63 32 -90 -2z"/>
<path d="M23316 12986 c-40 -41 -48 -82 -48 -249 1 -106 -17 -288 -39 -401
-25 -128 -39 -282 -44 -483 -4 -120 -13 -282 -21 -360 -19 -180 -20 -338 -4
-358 17 -20 33 -19 55 5 25 28 62 272 75 495 26 454 28 472 89 780 26 134 39
216 46 300 3 39 11 114 17 167 10 90 10 100 -7 118 -29 32 -78 26 -119 -14z"/>
<path d="M3304 12022 c-28 -18 -33 -49 -24 -148 9 -103 24 -831 21 -991 -2
-80 0 -93 14 -93 29 0 53 19 65 52 20 58 28 315 19 658 -9 376 -17 499 -31
518 -11 13 -47 16 -64 4z"/>
<path d="M6045 12014 c-90 -15 -195 -48 -265 -85 -96 -49 -159 -114 -203 -207
-26 -55 -32 -79 -31 -133 0 -60 6 -77 62 -190 85 -170 135 -229 267 -318 253
-171 517 -234 776 -185 143 27 337 132 407 221 73 94 100 208 71 310 -25 93
-124 228 -198 273 -23 14 -59 38 -79 54 -85 65 -304 157 -406 170 -28 3 -59
15 -70 25 -48 43 -102 61 -203 65 -54 2 -111 2 -128 0z m213 -102 c9 -7 5 -18
-17 -46 -33 -41 -32 -71 3 -62 12 3 42 10 68 17 45 12 48 11 98 -21 48 -31 54
-32 85 -21 28 10 43 9 87 -5 49 -16 158 -70 201 -100 50 -33 172 -154 194
-192 34 -57 42 -156 19 -234 -58 -202 -390 -321 -696 -249 -363 85 -624 345
-623 621 0 148 46 204 215 259 93 31 335 52 366 33z"/>
<path d="M8585 11800 c-152 -12 -265 -69 -265 -134 0 -49 56 -47 114 4 33 30
102 64 157 80 49 14 33 -15 -35 -65 -159 -116 -330 -328 -426 -526 -53 -111
-55 -169 -6 -275 99 -213 326 -323 565 -274 232 48 524 245 597 403 26 56 29
72 28 162 -1 186 -57 326 -183 457 -92 96 -147 130 -257 158 -79 20 -131 22
-289 10z m342 -115 c181 -117 271 -274 275 -480 2 -93 -17 -145 -83 -232 -74
-96 -266 -216 -414 -258 -163 -48 -333 -3 -429 112 -42 50 -79 150 -71 191 27
144 182 372 371 544 148 136 267 178 351 123z"/>
<path d="M12675 11481 c-46 -12 -108 -46 -185 -102 -72 -53 -100 -86 -100
-118 0 -11 -13 -48 -29 -83 -60 -132 -66 -162 -66 -323 0 -143 1 -153 29 -220
41 -98 94 -172 173 -244 110 -99 238 -155 385 -167 93 -8 207 19 328 78 214
104 351 342 353 613 1 194 -68 330 -217 427 -108 70 -329 121 -479 110 -53 -3
-72 -1 -86 12 -22 20 -67 27 -106 17z m315 -132 c238 -29 376 -103 439 -232
53 -109 58 -218 16 -376 -59 -227 -222 -371 -464 -413 -143 -24 -307 32 -432
149 -111 105 -178 269 -165 402 14 132 93 314 176 403 40 43 53 50 110 63 80
17 208 18 320 4z"/>
<path d="M18108 10920 c-241 -38 -471 -206 -583 -428 -81 -159 -65 -352 41
-490 116 -152 346 -272 585 -304 107 -14 289 0 416 33 88 23 201 73 269 119
168 116 313 516 250 692 -38 107 -178 224 -291 243 -22 4 -55 14 -74 22 -19 9
-68 20 -110 25 -42 5 -89 16 -104 25 -104 56 -273 82 -399 63z m230 -99 c23
-5 60 -21 81 -36 27 -18 46 -25 60 -20 22 7 150 -58 194 -99 22 -21 57 -107
57 -142 0 -21 51 -74 70 -74 24 0 50 37 50 70 0 30 -44 103 -84 139 -25 23
-36 77 -20 94 14 13 103 -46 151 -102 100 -114 113 -180 68 -349 -59 -222
-188 -403 -320 -449 -171 -60 -440 -76 -595 -35 -190 51 -378 175 -435 287
-24 49 -30 73 -33 149 -5 110 14 168 89 281 98 146 251 251 414 285 53 10 199
11 253 1z"/>
<path d="M23410 10559 c-110 -27 -220 -37 -296 -27 -305 39 -583 -84 -687
-303 -115 -243 -97 -524 48 -729 194 -274 517 -490 794 -530 313 -46 833 156
1071 417 173 190 247 409 191 568 -68 194 -266 388 -514 505 -122 57 -168 73
-269 94 -83 17 -277 20 -338 5z m275 -98 c146 -36 222 -65 340 -127 236 -125
398 -318 412 -490 10 -117 -64 -287 -178 -408 -117 -125 -365 -268 -556 -321
-32 -9 -85 -24 -118 -32 -89 -25 -339 -24 -420 0 -76 23 -198 84 -285 142 -86
57 -243 213 -309 307 -121 171 -135 383 -41 630 45 121 161 207 328 244 123
27 457 4 547 -38 132 -61 202 -110 244 -172 17 -24 37 -46 46 -50 35 -13 95
42 95 88 0 31 -148 124 -272 171 -58 21 -68 33 -57 63 7 19 16 22 56 22 27 0
102 -13 168 -29z"/>
<path d="M6515 10183 c-70 -8 -168 -36 -265 -76 -352 -143 -536 -365 -646
-776 -35 -130 -44 -336 -19 -430 23 -89 45 -129 119 -214 111 -127 271 -203
452 -214 106 -7 188 6 319 49 114 38 326 141 430 209 157 103 286 260 354 430
51 126 63 186 68 324 8 210 -29 322 -136 414 -104 89 -194 128 -316 139 l-80
7 3 32 c2 25 -2 35 -21 48 -59 38 -188 67 -262 58z m128 -102 c22 -22 -6 -45
-69 -57 -84 -15 -157 -41 -182 -65 -23 -20 -29 -63 -12 -74 5 -3 42 8 82 26
91 40 192 69 240 69 95 0 294 -61 376 -115 108 -73 147 -164 145 -345 -1 -135
-21 -223 -81 -352 -49 -106 -80 -152 -167 -245 -159 -173 -557 -353 -778 -353
-212 0 -412 114 -491 280 -30 63 -31 69 -31 200 1 192 34 326 130 525 95 195
220 324 400 413 84 42 210 88 279 102 54 11 143 7 159 -9z"/>
<path d="M3284 10014 c-10 -14 -21 -60 -26 -102 -12 -120 -27 -866 -17 -876
14 -16 57 10 75 46 15 28 19 77 25 305 8 280 10 316 35 490 15 107 10 145 -21
157 -32 12 -55 6 -71 -20z"/>
<path d="M8704 9881 c-83 -50 -124 -299 -124 -751 0 -332 -13 -630 -35 -806
-15 -120 -11 -164 13 -164 19 0 56 36 69 68 26 62 53 416 63 832 5 217 12 409
15 425 3 17 11 57 17 90 6 33 26 93 44 134 41 89 44 138 11 169 -28 27 -34 27
-73 3z"/>
<path d="M26060 9865 c-7 -8 -10 -25 -7 -37 4 -14 -5 -41 -27 -77 -18 -31 -35
-70 -39 -86 -4 -17 -9 -40 -13 -52 -4 -15 -2 -23 6 -23 6 0 20 10 31 23 20 23
79 141 79 157 0 5 7 25 17 44 13 29 14 38 3 51 -16 19 -34 19 -50 0z"/>
<path d="M26616 9835 c4 -8 15 -15 25 -15 10 0 19 7 19 15 0 9 -9 15 -25 15
-18 0 -23 -4 -19 -15z"/>
<path d="M27192 9748 c-14 -14 -16 -54 -3 -63 13 -8 51 35 51 57 0 21 -30 24
-48 6z"/>
<path d="M26914 9706 c-8 -22 3 -33 18 -18 9 9 9 15 0 24 -9 9 -13 7 -18 -6z"/>
<path d="M27020 9660 c0 -5 7 -10 15 -10 8 0 15 5 15 10 0 6 -7 10 -15 10 -8
0 -15 -4 -15 -10z"/>
<path d="M27327 9653 c-16 -15 -6 -34 15 -31 29 4 38 38 10 38 -10 0 -22 -3
-25 -7z"/>
<path d="M28463 9610 c-30 -12 -29 -26 1 -45 32 -21 69 -5 64 28 -3 25 -30 31
-65 17z"/>
<path d="M27581 9582 c-14 -25 -14 -42 -1 -42 16 0 33 41 22 52 -7 7 -14 3
-21 -10z"/>
<path d="M26127 9576 c-6 -16 2 -28 14 -20 12 7 11 34 0 34 -5 0 -11 -6 -14
-14z"/>
<path d="M26172 9548 c-17 -17 -15 -48 4 -55 19 -7 44 21 44 49 0 21 -30 24
-48 6z"/>
<path d="M26423 9535 c-34 -24 -28 -37 15 -33 29 2 37 7 37 23 0 25 -24 30
-52 10z"/>
<path d="M26792 9538 c-15 -15 -15 -35 -2 -43 15 -9 40 14 40 36 0 21 -20 25
-38 7z"/>
<path d="M26313 9533 c-7 -2 -13 -13 -13 -24 0 -10 6 -19 13 -19 22 0 40 18
34 34 -7 16 -13 18 -34 9z"/>
<path d="M26703 9533 c-18 -7 -16 -20 3 -27 19 -7 57 11 49 25 -6 10 -31 11
-52 2z"/>
<path d="M26073 9504 c-3 -8 -1 -20 6 -27 14 -14 47 15 37 32 -10 16 -36 13
-43 -5z"/>
<path d="M27462 9498 c-7 -7 -12 -20 -12 -31 0 -32 44 -18 48 16 4 29 -14 37
-36 15z"/>
<path d="M26830 9425 c0 -8 7 -15 15 -15 8 0 15 7 15 15 0 8 -7 15 -15 15 -8
0 -15 -7 -15 -15z"/>
<path d="M26445 9370 c-3 -5 3 -10 14 -10 12 0 21 5 21 10 0 6 -6 10 -14 10
-8 0 -18 -4 -21 -10z"/>
<path d="M26551 9361 c-12 -8 -13 -12 -1 -26 19 -23 54 -15 58 13 3 17 -1 22
-20 22 -13 0 -29 -4 -37 -9z"/>
<path d="M13090 9190 c-100 -14 -234 -48 -294 -74 -47 -21 -81 -50 -180 -152
-206 -214 -241 -285 -241 -489 0 -127 1 -131 33 -192 44 -84 147 -192 215
-226 64 -31 185 -72 243 -81 107 -18 408 52 541 125 74 42 167 136 216 220 97
166 129 416 73 575 -40 114 -91 171 -203 228 -128 64 -260 85 -403 66z m200
-104 c108 -23 142 -36 205 -80 73 -51 109 -112 125 -211 27 -165 -44 -411
-153 -531 -88 -97 -283 -170 -503 -189 -244 -21 -453 124 -494 342 -32 173 99
396 318 541 97 64 157 88 240 98 33 3 73 15 89 24 34 23 87 24 173 6z"/>
<path d="M18275 8976 c-201 -40 -396 -119 -527 -213 -208 -150 -285 -345 -248
-628 34 -266 212 -497 556 -726 169 -113 267 -164 389 -204 287 -94 496 -82
709 43 176 102 306 265 368 462 19 62 23 97 23 200 l0 125 -47 95 c-130 263
-507 526 -918 643 -167 48 -435 54 -471 11 -9 -11 -6 -14 15 -14 14 0 45 -4
68 -10 24 -5 102 -19 175 -30 161 -25 310 -73 468 -150 275 -135 475 -300 560
-462 34 -64 37 -75 36 -156 0 -101 -10 -161 -44 -254 -74 -205 -232 -377 -398
-435 -63 -21 -196 -35 -269 -28 -195 20 -352 78 -553 206 -405 257 -567 481
-567 782 0 174 47 293 160 407 36 36 98 85 138 109 67 39 75 41 86 26 20 -27
58 -15 78 24 21 43 25 45 124 71 100 28 305 38 407 21 40 -6 116 -26 169 -43
109 -36 142 -32 154 18 10 41 -20 62 -112 79 -43 8 -99 20 -124 26 -70 18
-323 21 -405 5z"/>
<path d="M23020 8573 c-196 -14 -322 -44 -455 -108 -102 -50 -169 -101 -250
-195 -127 -145 -182 -331 -173 -583 5 -115 9 -144 37 -226 39 -114 68 -174
130 -266 46 -68 214 -257 255 -285 11 -8 46 -35 77 -61 128 -105 350 -233 484
-277 33 -11 109 -30 170 -43 228 -46 499 -4 714 112 300 162 465 355 597 701
44 117 58 200 43 270 -18 84 -73 179 -152 260 -110 113 -356 266 -504 314 -46
14 -83 30 -83 35 0 6 9 28 21 51 16 31 18 46 11 62 -44 98 -186 164 -442 206
-113 19 -360 42 -409 38 -15 -1 -46 -3 -71 -5z m425 -127 c122 -18 295 -58
350 -80 37 -16 45 -39 24 -77 -21 -40 -51 -40 -175 -4 -133 39 -235 56 -337
54 -101 -2 -129 -10 -147 -41 -13 -25 -13 -29 2 -45 15 -14 35 -17 135 -15
120 2 309 -10 319 -21 4 -3 -5 -20 -20 -37 -30 -36 -33 -62 -10 -81 19 -16 60
-3 145 47 l58 34 178 -86 c98 -47 203 -102 233 -121 163 -106 195 -131 244
-184 99 -107 132 -215 101 -341 -46 -192 -198 -449 -337 -571 -322 -280 -700
-347 -1110 -196 -248 91 -566 338 -692 539 -141 223 -190 409 -161 617 18 128
90 298 161 381 109 128 317 215 584 245 74 8 350 -2 455 -17z"/>
<path d="M3285 8136 c-15 -23 -15 -34 0 -138 8 -62 20 -132 25 -154 37 -161
72 -523 76 -794 2 -129 4 -239 4 -243 0 -5 10 -7 23 -5 36 5 56 61 67 193 15
192 -17 621 -71 944 -5 30 -9 76 -9 102 0 52 -14 99 -33 111 -26 16 -66 8 -82
-16z"/>
<path d="M6462 7884 c-33 -23 -52 -67 -52 -121 0 -48 20 -220 60 -533 12 -91
25 -232 30 -315 8 -151 -2 -484 -19 -605 -10 -74 -1 -110 28 -110 60 0 87 142
97 500 5 223 1 315 -26 555 -33 297 -39 384 -33 494 5 102 4 119 -11 134 -22
21 -45 22 -74 1z"/>
<path d="M8455 7233 c-93 -21 -144 -62 -234 -187 -51 -72 -118 -208 -143 -291
-30 -102 -60 -275 -65 -376 -7 -137 5 -200 53 -279 36 -60 71 -91 154 -138
101 -57 143 -66 285 -66 113 0 142 4 220 28 116 35 174 62 264 121 145 96 241
216 291 365 28 82 31 254 6 344 -48 178 -128 313 -224 380 -90 62 -293 99
-417 76 -60 -11 -66 -11 -91 9 -25 20 -55 24 -99 14z m497 -141 c127 -61 208
-195 238 -390 40 -262 -71 -480 -312 -610 -154 -84 -351 -120 -489 -91 -117
25 -204 83 -243 160 -23 46 -26 65 -26 148 1 194 45 373 137 552 83 161 115
193 238 235 83 28 128 33 260 30 123 -2 133 -4 197 -34z"/>
<path d="M12985 7031 c-92 -44 -250 -204 -341 -347 -228 -357 -245 -706 -42
-875 146 -121 357 -179 578 -159 415 39 622 234 646 611 7 103 -3 173 -37 264
-17 47 -38 76 -95 133 -77 77 -144 115 -259 147 -83 22 -287 31 -356 15 -144
-32 -277 -94 -293 -135 -22 -58 5 -64 96 -21 143 68 344 82 521 37 162 -42
226 -86 282 -193 36 -67 39 -80 43 -173 8 -175 -36 -328 -120 -420 -102 -112
-282 -170 -518 -168 -252 2 -416 79 -496 235 -23 43 -28 70 -32 145 -4 80 -1
102 24 179 86 273 292 559 441 614 63 23 83 41 83 76 0 53 -55 68 -125 35z"/>
<path d="M18495 6415 c-96 -17 -155 -48 -155 -80 0 -31 16 -32 100 -5 169 54
384 -10 621 -186 170 -126 291 -262 368 -411 57 -113 72 -328 33 -473 -67
-244 -184 -429 -295 -466 -73 -24 -273 -25 -387 0 -261 54 -511 211 -643 402
-85 123 -137 271 -137 388 0 68 29 185 62 250 74 147 202 282 324 342 74 37
80 38 183 38 131 0 159 -11 249 -97 37 -35 75 -67 85 -70 23 -8 70 36 65 61
-4 21 -137 117 -224 161 l-67 34 -143 -6 -143 -5 -88 -43 c-182 -89 -362 -321
-404 -519 -14 -67 -7 -213 15 -295 20 -76 88 -212 142 -285 82 -111 246 -255
355 -311 35 -18 71 -38 80 -45 25 -22 217 -81 318 -98 177 -30 328 -18 435 34
80 39 141 102 205 209 166 277 196 596 78 841 -54 113 -192 281 -318 386 -124
103 -404 235 -529 249 -30 3 -68 8 -85 10 -16 2 -62 -3 -100 -10z"/>
<path d="M3483 5634 l-26 -26 6 -217 c4 -119 12 -268 17 -331 29 -328 38 -715
22 -922 -5 -59 -7 -122 -4 -139 4 -29 26 -49 39 -35 9 9 33 146 43 248 5 49
11 92 15 97 10 16 6 536 -5 736 -6 105 -11 276 -11 382 -1 166 -3 193 -17 206
-33 28 -52 28 -79 1z"/>
<path d="M23715 5639 c-250 -15 -380 -63 -582 -215 -136 -103 -199 -173 -252
-279 -131 -265 -78 -504 164 -734 214 -203 573 -368 906 -416 157 -22 270 -18
427 15 181 38 338 173 441 378 40 79 59 155 64 257 15 286 -72 526 -258 709
-160 158 -304 234 -527 280 -80 17 -178 18 -383 5z m351 -99 c66 -16 135 -36
154 -44 19 -8 57 -23 85 -33 63 -22 208 -119 256 -170 155 -164 218 -332 219
-583 0 -96 -5 -143 -21 -200 -62 -227 -234 -397 -435 -430 -135 -23 -375 -8
-519 32 -190 53 -458 174 -550 248 -155 124 -187 155 -229 217 -139 207 -137
391 5 604 81 121 270 237 463 286 86 21 118 24 212 21 139 -5 164 -18 217
-111 42 -73 64 -84 91 -45 28 39 20 75 -26 122 -24 23 -55 50 -70 59 -16 10
-28 26 -28 37 0 28 33 26 176 -10z"/>
<path d="M6353 5265 c-47 -33 -52 -131 -23 -405 5 -47 14 -185 21 -308 13
-238 5 -460 -27 -706 -14 -106 -14 -120 -1 -134 9 -8 22 -12 31 -9 47 18 77
145 102 442 16 181 16 231 4 535 -8 184 -15 383 -16 442 -2 144 -29 186 -91
143z"/>
<path d="M8552 5013 c-22 -9 -39 -56 -46 -126 -4 -38 -24 -124 -46 -192 -60
-190 -63 -216 -65 -585 -1 -184 -6 -492 -10 -685 -16 -764 -16 -761 12 -772
29 -11 54 31 63 108 11 90 30 661 40 1214 8 446 14 504 70 656 40 109 71 232
72 291 2 69 -40 111 -90 91z"/>
<path d="M13078 4378 c-36 -29 -94 -77 -128 -105 l-61 -53 -80 0 c-66 0 -82
-3 -99 -20 -38 -38 -18 -70 42 -70 21 0 38 -3 38 -7 0 -3 -25 -40 -56 -81
-228 -302 -298 -842 -161 -1233 45 -130 161 -287 256 -348 180 -116 452 -130
755 -39 142 42 272 125 407 260 256 256 413 587 412 868 0 109 -17 163 -83
259 -40 60 -151 165 -230 218 -221 148 -455 208 -812 207 -115 0 -208 4 -208
8 0 4 17 19 38 34 53 40 72 65 72 100 0 27 -15 54 -30 54 -4 0 -36 -24 -72
-52z m260 -243 c288 -21 387 -42 547 -113 210 -93 370 -240 418 -386 75 -222
-121 -671 -406 -932 -170 -155 -333 -222 -594 -243 -301 -24 -486 57 -587 257
-90 179 -116 295 -116 518 0 341 103 640 295 852 l57 62 89 0 c49 0 183 -7
297 -15z"/>
<path d="M18667 3648 c-40 -31 -50 -85 -55 -288 -4 -169 20 -807 33 -865 2
-11 5 -65 6 -120 1 -55 5 -131 10 -170 4 -38 13 -151 19 -250 11 -176 27 -320
55 -480 7 -44 17 -109 20 -144 8 -77 28 -121 55 -121 35 0 39 28 24 160 -50
446 -73 958 -79 1764 -3 410 -6 510 -17 517 -19 13 -52 11 -71 -3z"/>
<path d="M23425 2735 c-14 -13 -25 -33 -25 -44 0 -11 29 -64 64 -118 151 -232
239 -433 307 -708 38 -150 103 -497 119 -630 7 -55 23 -165 37 -245 13 -80 31
-203 39 -275 15 -127 33 -180 57 -172 18 6 29 187 17 287 -5 47 -15 139 -21
205 -24 271 -101 723 -150 890 -78 264 -117 359 -243 590 -51 93 -97 181 -101
195 -4 14 -12 31 -17 38 -17 20 -57 14 -83 -13z"/>
<path d="M24017 484 c-11 -11 -8 -92 3 -99 13 -8 19 10 23 59 2 36 -10 55 -26
40z"/>
</g>
</svg>
