<?xml version="1.0" standalone="no"?>
<!DOCTYPE svg PUBLIC "-//W3C//DTD SVG 20010904//EN"
 "http://www.w3.org/TR/2001/REC-SVG-20010904/DTD/svg10.dtd">
<svg version="1.0" xmlns="http://www.w3.org/2000/svg"
 width="3264.000000pt" height="2448.000000pt" viewBox="0 0 3264.000000 2448.000000"
 preserveAspectRatio="xMidYMid meet">
<metadata>
Created by potrace 1.12, written by Peter Selinger 2001-2015
</metadata>
<g transform="translate(0.000000,2448.000000) scale(0.100000,-0.100000)"
fill="#000000" stroke="none">
<path d="M2528 24468 c9 -9 15 -9 24 0 9 9 7 12 -12 12 -19 0 -21 -3 -12 -12z"/>
<path d="M31580 24470 c-12 -7 -12 -12 -2 -22 9 -9 15 -9 24 0 16 16 -2 34
-22 22z"/>
<path d="M32048 24473 c7 -3 16 -2 19 1 4 3 -2 6 -13 5 -11 0 -14 -3 -6 -6z"/>
<path d="M32302 24438 c5 -15 28 -18 29 -3 0 6 -7 12 -17 13 -10 3 -15 -1 -12
-10z"/>
<path d="M9750 24430 c0 -5 5 -10 10 -10 6 0 10 5 10 10 0 6 -4 10 -10 10 -5
0 -10 -4 -10 -10z"/>
<path d="M30636 24373 c-12 -12 -6 -33 9 -33 8 0 15 6 15 14 0 17 -14 28 -24
19z"/>
<path d="M30370 24350 c0 -5 7 -10 15 -10 8 0 15 5 15 10 0 6 -7 10 -15 10 -8
0 -15 -4 -15 -10z"/>
<path d="M31142 24333 c2 -10 10 -18 18 -18 8 0 16 8 18 18 2 12 -3 17 -18 17
-15 0 -20 -5 -18 -17z"/>
<path d="M24770 24310 c0 -5 5 -10 10 -10 6 0 10 5 10 10 0 6 -4 10 -10 10 -5
0 -10 -4 -10 -10z"/>
<path d="M31260 24295 c0 -10 7 -15 18 -13 21 4 19 22 -2 26 -10 2 -16 -3 -16
-13z"/>
<path d="M26590 24285 c-10 -12 -9 -16 5 -21 19 -8 40 9 31 25 -10 15 -21 14
-36 -4z"/>
<path d="M25665 24280 c3 -5 8 -10 11 -10 2 0 4 5 4 10 0 6 -5 10 -11 10 -5 0
-7 -4 -4 -10z"/>
<path d="M32620 24276 c0 -8 5 -18 10 -21 6 -3 10 3 10 14 0 12 -4 21 -10 21
-5 0 -10 -6 -10 -14z"/>
<path d="M28891 24266 c-9 -10 -8 -16 4 -26 19 -16 41 1 32 24 -8 20 -21 20
-36 2z"/>
<path d="M30327 24245 c-8 -18 11 -31 25 -17 11 11 3 32 -12 32 -4 0 -10 -7
-13 -15z"/>
<path d="M31612 24218 c2 -15 10 -23 23 -23 30 0 27 39 -3 43 -20 3 -23 0 -20
-20z"/>
<path d="M29402 24209 c2 -6 8 -10 13 -10 5 0 11 4 13 10 2 6 -4 11 -13 11 -9
0 -15 -5 -13 -11z"/>
<path d="M925 24160 c-11 -17 5 -32 21 -19 7 6 11 15 8 20 -7 12 -21 11 -29
-1z"/>
<path d="M31240 24140 c0 -5 7 -10 15 -10 8 0 15 5 15 10 0 6 -7 10 -15 10 -8
0 -15 -4 -15 -10z"/>
<path d="M31345 24141 c-9 -16 3 -31 26 -31 14 0 19 6 17 17 -4 20 -33 29 -43
14z"/>
<path d="M31924 24139 c-10 -17 13 -36 27 -22 12 12 4 33 -11 33 -5 0 -12 -5
-16 -11z"/>
<path d="M28900 24119 c0 -24 23 -21 28 4 2 10 -3 17 -12 17 -10 0 -16 -9 -16
-21z"/>
<path d="M30825 24131 c-7 -12 12 -24 25 -16 11 7 4 25 -10 25 -5 0 -11 -4
-15 -9z"/>
<path d="M30320 24085 c0 -8 7 -15 15 -15 8 0 15 7 15 15 0 8 -7 15 -15 15 -8
0 -15 -7 -15 -15z"/>
<path d="M684 24079 c-3 -6 -2 -15 2 -19 12 -12 38 5 30 19 -9 14 -23 14 -32
0z"/>
<path d="M32020 24050 c0 -5 5 -10 10 -10 6 0 10 5 10 10 0 6 -4 10 -10 10 -5
0 -10 -4 -10 -10z"/>
<path d="M3600 23985 c0 -8 7 -15 15 -15 8 0 15 7 15 15 0 8 -7 15 -15 15 -8
0 -15 -7 -15 -15z"/>
<path d="M30705 23990 c-3 -5 -1 -10 4 -10 6 0 11 5 11 10 0 6 -2 10 -4 10 -3
0 -8 -4 -11 -10z"/>
<path d="M531 23976 c-12 -14 -5 -26 16 -26 15 0 18 26 4 34 -5 3 -14 0 -20
-8z"/>
<path d="M30350 23980 c0 -5 5 -10 10 -10 6 0 10 5 10 10 0 6 -4 10 -10 10 -5
0 -10 -4 -10 -10z"/>
<path d="M24673 23938 c2 -7 10 -13 17 -13 7 0 15 6 18 13 2 7 -5 12 -18 12
-13 0 -20 -5 -17 -12z"/>
<path d="M27800 23900 c0 -5 5 -10 10 -10 6 0 10 5 10 10 0 6 -4 10 -10 10 -5
0 -10 -4 -10 -10z"/>
<path d="M30424 23859 c-9 -15 12 -33 30 -26 9 4 16 13 16 22 0 17 -35 21 -46
4z"/>
<path d="M26983 23844 c-8 -21 13 -42 28 -27 13 13 5 43 -11 43 -6 0 -13 -7
-17 -16z"/>
<path d="M30657 23834 c-9 -10 2 -24 19 -24 8 0 14 7 14 15 0 15 -21 21 -33 9z"/>
<path d="M4300 23820 c0 -5 5 -10 10 -10 6 0 10 5 10 10 0 6 -4 10 -10 10 -5
0 -10 -4 -10 -10z"/>
<path d="M29564 23789 c-8 -14 11 -33 25 -25 6 4 11 11 11 16 0 13 -29 20 -36
9z"/>
<path d="M394 23776 c-9 -24 12 -44 28 -28 9 10 8 16 -5 29 -15 15 -17 15 -23
-1z"/>
<path d="M30616 23781 c-4 -7 -5 -15 -2 -18 9 -9 19 4 14 18 -4 11 -6 11 -12
0z"/>
<path d="M29730 23760 c0 -5 5 -10 10 -10 6 0 10 5 10 10 0 6 -4 10 -10 10 -5
0 -10 -4 -10 -10z"/>
<path d="M26320 23745 c0 -8 7 -15 15 -15 8 0 15 7 15 15 0 8 -7 15 -15 15 -8
0 -15 -7 -15 -15z"/>
<path d="M1062 23733 c2 -10 10 -18 18 -18 8 0 16 8 18 18 2 12 -3 17 -18 17
-15 0 -20 -5 -18 -17z"/>
<path d="M31775 23730 c-8 -12 20 -24 35 -15 6 3 8 11 5 16 -8 12 -32 12 -40
-1z"/>
<path d="M31280 23695 c0 -9 5 -15 11 -13 6 2 11 8 11 13 0 5 -5 11 -11 13 -6
2 -11 -4 -11 -13z"/>
<path d="M32010 23695 c0 -9 5 -15 11 -13 6 2 11 8 11 13 0 5 -5 11 -11 13 -6
2 -11 -4 -11 -13z"/>
<path d="M3090 23690 c0 -5 5 -10 10 -10 6 0 10 5 10 10 0 6 -4 10 -10 10 -5
0 -10 -4 -10 -10z"/>
<path d="M30580 23635 c0 -8 7 -15 15 -15 8 0 15 7 15 15 0 8 -7 15 -15 15 -8
0 -15 -7 -15 -15z"/>
<path d="M29651 23591 c-12 -8 -13 -12 -1 -26 12 -14 15 -14 28 -1 8 8 11 19
8 25 -9 13 -16 14 -35 2z"/>
<path d="M32390 23590 c0 -5 5 -10 10 -10 6 0 10 5 10 10 0 6 -4 10 -10 10 -5
0 -10 -4 -10 -10z"/>
<path d="M690 23580 c0 -5 5 -10 11 -10 5 0 7 5 4 10 -3 6 -8 10 -11 10 -2 0
-4 -4 -4 -10z"/>
<path d="M27460 23579 c0 -5 5 -7 10 -4 6 3 10 8 10 11 0 2 -4 4 -10 4 -5 0
-10 -5 -10 -11z"/>
<path d="M961 23566 c-14 -17 -7 -36 14 -36 22 0 29 20 13 36 -13 13 -16 13
-27 0z"/>
<path d="M26975 23571 c-8 -15 3 -31 21 -31 9 0 14 7 12 17 -4 20 -24 28 -33
14z"/>
<path d="M30520 23565 c0 -9 5 -15 11 -13 6 2 11 8 11 13 0 5 -5 11 -11 13 -6
2 -11 -4 -11 -13z"/>
<path d="M305 23559 c-10 -15 3 -25 16 -12 7 7 7 13 1 17 -6 3 -14 1 -17 -5z"/>
<path d="M31942 23558 c-13 -13 2 -38 23 -38 18 0 26 25 12 39 -14 14 -20 14
-35 -1z"/>
<path d="M32609 23548 c-8 -28 -6 -48 6 -58 9 -7 18 -10 21 -7 9 8 -6 67 -17
67 -5 0 -9 -1 -10 -2z"/>
<path d="M30135 23481 c-6 -11 9 -23 19 -14 9 9 7 23 -3 23 -6 0 -12 -4 -16
-9z"/>
<path d="M28233 23464 c-8 -21 13 -42 28 -27 13 13 5 43 -11 43 -6 0 -13 -7
-17 -16z"/>
<path d="M31780 23460 c0 -5 5 -10 10 -10 6 0 10 5 10 10 0 6 -4 10 -10 10 -5
0 -10 -4 -10 -10z"/>
<path d="M30292 23449 c2 -6 8 -10 13 -10 5 0 11 4 13 10 2 6 -4 11 -13 11 -9
0 -15 -5 -13 -11z"/>
<path d="M816 23433 c-11 -11 -6 -23 9 -23 8 0 15 4 15 9 0 13 -16 22 -24 14z"/>
<path d="M31997 23414 c-8 -8 1 -24 14 -24 5 0 9 7 9 15 0 15 -12 20 -23 9z"/>
<path d="M23560 23380 c0 -5 5 -10 10 -10 6 0 10 5 10 10 0 6 -4 10 -10 10 -5
0 -10 -4 -10 -10z"/>
<path d="M28012 23328 c-18 -18 -14 -28 8 -28 11 0 20 6 20 14 0 21 -15 27
-28 14z"/>
<path d="M955 23311 c-8 -15 3 -31 21 -31 9 0 14 7 12 17 -4 20 -24 28 -33 14z"/>
<path d="M31040 23275 c0 -8 7 -15 15 -15 8 0 15 7 15 15 0 8 -7 15 -15 15 -8
0 -15 -7 -15 -15z"/>
<path d="M32275 23280 c-8 -13 3 -30 20 -30 14 0 27 24 18 34 -10 9 -31 7 -38
-4z"/>
<path d="M29252 23253 c4 -21 33 -25 33 -3 0 8 -8 16 -18 18 -14 3 -18 -1 -15
-15z"/>
<path d="M31130 23260 c0 -5 5 -10 11 -10 5 0 7 5 4 10 -3 6 -8 10 -11 10 -2
0 -4 -4 -4 -10z"/>
<path d="M29770 23245 c0 -8 5 -15 10 -15 6 0 10 7 10 15 0 8 -4 15 -10 15 -5
0 -10 -7 -10 -15z"/>
<path d="M32625 23208 c-4 -10 -4 -26 0 -35 8 -17 8 -17 12 0 3 9 3 25 0 35
-4 16 -4 16 -12 0z"/>
<path d="M26650 23182 c0 -26 11 -34 27 -21 10 9 10 15 2 25 -16 19 -29 17
-29 -4z"/>
<path d="M32207 23114 c-9 -10 2 -24 19 -24 8 0 14 7 14 15 0 15 -21 21 -33 9z"/>
<path d="M1580 23095 c0 -8 7 -15 15 -15 8 0 15 7 15 15 0 8 -7 15 -15 15 -8
0 -15 -7 -15 -15z"/>
<path d="M30380 23070 c0 -15 5 -20 18 -18 9 2 17 10 17 18 0 8 -8 16 -17 18
-13 2 -18 -3 -18 -18z"/>
<path d="M31042 23058 c5 -15 28 -18 29 -3 0 6 -7 12 -17 13 -10 3 -15 -1 -12
-10z"/>
<path d="M31616 23062 c-3 -6 -1 -14 5 -17 15 -10 25 3 12 16 -7 7 -13 7 -17
1z"/>
<path d="M30267 23044 c-14 -14 -7 -35 11 -32 9 2 17 10 17 17 0 16 -18 25
-28 15z"/>
<path d="M32626 23041 c-4 -7 -5 -15 -2 -18 9 -9 19 4 14 18 -4 11 -6 11 -12
0z"/>
<path d="M31635 23011 c-6 -11 9 -23 19 -14 9 9 7 23 -3 23 -6 0 -12 -4 -16
-9z"/>
<path d="M30656 22973 c-3 -3 -3 -10 0 -14 7 -12 34 -11 34 0 0 11 -26 22 -34
14z"/>
<path d="M30860 22959 c0 -5 5 -7 10 -4 6 3 10 8 10 11 0 2 -4 4 -10 4 -5 0
-10 -5 -10 -11z"/>
<path d="M31113 22954 c-7 -19 2 -28 22 -21 19 8 19 23 0 31 -9 3 -18 -1 -22
-10z"/>
<path d="M31950 22960 c0 -5 5 -10 11 -10 5 0 7 5 4 10 -3 6 -8 10 -11 10 -2
0 -4 -4 -4 -10z"/>
<path d="M29216 22943 c-11 -11 -6 -23 9 -23 8 0 15 4 15 9 0 13 -16 22 -24
14z"/>
<path d="M610 22885 c0 -8 7 -15 15 -15 8 0 15 7 15 15 0 8 -7 15 -15 15 -8 0
-15 -7 -15 -15z"/>
<path d="M30342 22889 c2 -6 8 -10 13 -10 5 0 11 4 13 10 2 6 -4 11 -13 11 -9
0 -15 -5 -13 -11z"/>
<path d="M31590 22859 c0 -5 5 -7 10 -4 6 3 10 8 10 11 0 2 -4 4 -10 4 -5 0
-10 -5 -10 -11z"/>
<path d="M28010 22830 c0 -5 5 -10 10 -10 6 0 10 5 10 10 0 6 -4 10 -10 10 -5
0 -10 -4 -10 -10z"/>
<path d="M390 22800 c0 -5 5 -10 10 -10 6 0 10 5 10 10 0 6 -4 10 -10 10 -5 0
-10 -4 -10 -10z"/>
<path d="M31090 22784 c0 -8 5 -12 10 -9 6 4 8 11 5 16 -9 14 -15 11 -15 -7z"/>
<path d="M29592 22773 c2 -10 10 -18 18 -18 8 0 16 8 18 18 2 12 -3 17 -18 17
-15 0 -20 -5 -18 -17z"/>
<path d="M206 22773 c-11 -11 -6 -23 9 -23 8 0 15 4 15 9 0 13 -16 22 -24 14z"/>
<path d="M32175 22730 c-4 -7 -3 -16 3 -22 14 -14 45 -2 40 15 -6 16 -34 21
-43 7z"/>
<path d="M31280 22720 c0 -5 5 -10 10 -10 6 0 10 5 10 10 0 6 -4 10 -10 10 -5
0 -10 -4 -10 -10z"/>
<path d="M830 22710 c0 -5 7 -10 15 -10 8 0 15 5 15 10 0 6 -7 10 -15 10 -8 0
-15 -4 -15 -10z"/>
<path d="M32080 22650 c0 -5 5 -10 10 -10 6 0 10 5 10 10 0 6 -4 10 -10 10 -5
0 -10 -4 -10 -10z"/>
<path d="M31786 22611 c-4 -5 -2 -12 3 -15 5 -4 12 -2 15 3 4 5 2 12 -3 15 -5
4 -12 2 -15 -3z"/>
<path d="M32052 22588 c5 -15 28 -18 29 -3 0 6 -7 12 -17 13 -10 3 -15 -1 -12
-10z"/>
<path d="M606 22551 c-4 -5 -2 -12 3 -15 5 -4 12 -2 15 3 4 5 2 12 -3 15 -5 4
-12 2 -15 -3z"/>
<path d="M2150 22540 c0 -5 5 -10 10 -10 6 0 10 5 10 10 0 6 -4 10 -10 10 -5
0 -10 -4 -10 -10z"/>
<path d="M31615 22439 c-10 -15 1 -23 20 -15 9 3 13 10 10 16 -8 13 -22 13
-30 -1z"/>
<path d="M32115 22360 c3 -5 8 -10 11 -10 2 0 4 5 4 10 0 6 -5 10 -11 10 -5 0
-7 -4 -4 -10z"/>
<path d="M31437 22325 c-8 -18 11 -31 25 -17 11 11 3 32 -12 32 -4 0 -10 -7
-13 -15z"/>
<path d="M31972 22258 c-25 -25 -9 -54 23 -42 9 4 15 15 13 27 -4 25 -19 32
-36 15z"/>
<path d="M30220 22209 c0 -5 5 -7 10 -4 6 3 10 8 10 11 0 2 -4 4 -10 4 -5 0
-10 -5 -10 -11z"/>
<path d="M28775 22200 c-4 -7 -3 -16 3 -22 14 -14 45 -2 40 15 -6 16 -34 21
-43 7z"/>
<path d="M31406 22181 c-4 -7 -5 -15 -2 -18 9 -9 19 4 14 18 -4 11 -6 11 -12
0z"/>
<path d="M1910 22170 c0 -5 7 -10 15 -10 8 0 15 5 15 10 0 6 -7 10 -15 10 -8
0 -15 -4 -15 -10z"/>
<path d="M645 22151 c-3 -5 -1 -12 5 -16 5 -3 10 1 10 9 0 18 -6 21 -15 7z"/>
<path d="M24260 22120 c0 -5 5 -10 10 -10 6 0 10 5 10 10 0 6 -4 10 -10 10 -5
0 -10 -4 -10 -10z"/>
<path d="M1077 22104 c-14 -14 -7 -35 11 -32 9 2 17 10 17 17 0 16 -18 25 -28
15z"/>
<path d="M32480 22100 c0 -5 5 -10 10 -10 6 0 10 5 10 10 0 6 -4 10 -10 10 -5
0 -10 -4 -10 -10z"/>
<path d="M3585 22020 c-4 -6 -3 -16 3 -22 6 -6 12 -6 17 2 4 6 3 16 -3 22 -6
6 -12 6 -17 -2z"/>
<path d="M450 22010 c0 -5 5 -10 10 -10 6 0 10 5 10 10 0 6 -4 10 -10 10 -5 0
-10 -4 -10 -10z"/>
<path d="M30537 21986 c-9 -22 18 -40 33 -22 6 9 9 20 5 26 -9 15 -32 12 -38
-4z"/>
<path d="M31470 21980 c0 -5 7 -10 16 -10 8 0 12 5 9 10 -3 6 -10 10 -16 10
-5 0 -9 -4 -9 -10z"/>
<path d="M30094 21935 c-7 -18 3 -35 21 -35 21 0 28 19 15 35 -16 19 -29 19
-36 0z"/>
<path d="M4976 21933 c-11 -11 -6 -23 9 -23 8 0 15 4 15 9 0 13 -16 22 -24 14z"/>
<path d="M31903 21904 c-9 -23 13 -40 32 -24 12 10 13 16 4 26 -15 18 -28 18
-36 -2z"/>
<path d="M32195 21900 c3 -5 10 -10 16 -10 5 0 9 5 9 10 0 6 -7 10 -16 10 -8
0 -12 -4 -9 -10z"/>
<path d="M32120 21785 c-15 -18 -6 -45 14 -45 18 0 40 36 31 50 -9 15 -31 12
-45 -5z"/>
<path d="M30646 21783 c-12 -12 -6 -43 9 -43 8 0 15 9 15 19 0 21 -13 34 -24
24z"/>
<path d="M28555 21740 c3 -5 10 -10 16 -10 5 0 9 5 9 10 0 6 -7 10 -16 10 -8
0 -12 -4 -9 -10z"/>
<path d="M32590 21730 c0 -5 5 -10 10 -10 6 0 10 5 10 10 0 6 -4 10 -10 10 -5
0 -10 -4 -10 -10z"/>
<path d="M30980 21675 c0 -8 5 -15 10 -15 6 0 10 7 10 15 0 8 -4 15 -10 15 -5
0 -10 -7 -10 -15z"/>
<path d="M30145 21600 c-3 -5 1 -10 9 -10 9 0 16 5 16 10 0 6 -4 10 -9 10 -6
0 -13 -4 -16 -10z"/>
<path d="M30580 21585 c-10 -11 -10 -19 -2 -27 15 -15 44 -2 40 19 -4 23 -22
27 -38 8z"/>
<path d="M7160 21539 c-16 -22 -22 -45 -22 -82 0 -29 -6 -63 -12 -77 -7 -14
-18 -51 -25 -82 -7 -32 -17 -60 -22 -63 -5 -4 -9 -17 -9 -29 0 -13 -6 -39 -14
-57 -13 -32 -32 -132 -57 -298 -16 -106 -14 -250 6 -371 10 -58 20 -134 22
-170 4 -53 13 -78 46 -133 46 -78 65 -91 161 -106 89 -13 128 -5 254 50 30 13
64 35 75 50 12 14 42 41 66 60 24 19 76 80 117 135 72 99 74 103 74 160 0 117
-86 186 -235 188 -139 2 -229 -35 -328 -136 -79 -80 -107 -95 -131 -69 -19 21
-20 61 -5 196 25 231 61 413 91 461 4 6 10 31 14 55 8 56 35 132 68 189 30 52
32 81 10 115 -15 23 -67 45 -106 45 -9 0 -26 -14 -38 -31z m512 -969 c10 -12
18 -32 18 -43 0 -29 -86 -154 -110 -162 -11 -4 -27 -20 -35 -36 -9 -16 -35
-41 -58 -55 -23 -15 -65 -42 -93 -60 -41 -27 -61 -34 -102 -34 -63 0 -99 16
-118 51 -20 39 -18 62 11 118 34 68 147 156 280 219 61 29 77 32 130 28 46 -3
64 -10 77 -26z"/>
<path d="M8780 21519 c-19 -5 -120 -13 -225 -19 -183 -9 -236 -16 -355 -40
-85 -17 -118 -39 -152 -98 -27 -49 -29 -56 -17 -79 27 -51 103 -87 229 -108
162 -28 190 -34 232 -56 99 -50 169 -125 198 -214 27 -82 -14 -214 -102 -330
-74 -97 -105 -116 -207 -129 -73 -10 -91 -20 -91 -56 0 -62 100 -87 202 -50
58 21 188 111 188 130 0 5 11 22 25 39 26 31 68 101 108 181 18 37 22 62 22
140 0 82 -4 100 -25 135 -50 83 -126 168 -190 210 -96 63 -118 72 -212 89
-101 17 -158 39 -158 60 0 26 35 36 122 36 77 0 347 16 428 25 19 2 85 6 145
9 61 4 125 9 142 12 54 8 70 64 30 102 -22 21 -33 22 -163 21 -76 -1 -155 -5
-174 -10z"/>
<path d="M31750 21500 c0 -5 5 -10 10 -10 6 0 10 5 10 10 0 6 -4 10 -10 10 -5
0 -10 -4 -10 -10z"/>
<path d="M29735 21451 c-8 -15 3 -31 21 -31 9 0 14 7 12 17 -4 20 -24 28 -33
14z"/>
<path d="M3207 21383 c-12 -11 -8 -23 8 -23 8 0 15 7 15 15 0 16 -12 20 -23 8z"/>
<path d="M5588 21350 c-7 -4 -55 -12 -107 -19 -54 -8 -113 -23 -140 -36 -25
-13 -77 -37 -116 -55 -92 -43 -159 -96 -180 -143 -9 -20 -27 -50 -39 -65 -13
-15 -34 -49 -46 -77 -12 -27 -26 -52 -30 -55 -12 -9 -70 -136 -70 -154 0 -9
-7 -31 -17 -49 -9 -18 -27 -66 -40 -107 -13 -41 -30 -88 -37 -105 -8 -16 -22
-59 -31 -95 -10 -36 -21 -76 -25 -90 -22 -71 -32 -144 -29 -216 4 -70 7 -84
32 -113 53 -63 112 -94 222 -116 127 -26 283 -5 384 51 24 13 48 24 53 24 5 0
55 27 111 60 89 53 124 82 265 224 89 90 162 167 162 171 0 4 20 33 45 66 24
32 52 75 60 96 9 20 23 45 31 54 25 27 70 148 89 238 16 74 17 93 6 159 -19
111 -51 170 -124 230 -34 27 -78 59 -98 71 -68 40 -286 73 -331 51z m272 -149
c49 -26 119 -109 125 -149 3 -20 10 -53 16 -72 13 -44 -4 -158 -31 -216 -11
-22 -20 -47 -20 -56 0 -15 -58 -133 -84 -170 -8 -11 -41 -48 -73 -82 -32 -35
-78 -88 -102 -119 -24 -31 -47 -57 -50 -57 -4 0 -29 -21 -57 -47 -53 -51 -157
-133 -167 -133 -4 0 -28 -13 -54 -29 -52 -32 -167 -73 -251 -90 -134 -28 -240
-1 -269 66 -27 65 -7 219 44 342 8 19 27 75 44 125 16 50 36 103 44 118 8 14
15 34 15 43 0 10 14 44 30 77 17 32 30 63 30 69 0 5 8 22 19 37 10 15 38 62
62 106 46 82 94 126 154 140 17 4 42 19 56 32 15 14 57 38 95 54 68 29 71 30
234 27 114 -2 173 -7 190 -16z"/>
<path d="M1370 21274 c0 -8 5 -12 10 -9 6 4 8 11 5 16 -9 14 -15 11 -15 -7z"/>
<path d="M32412 21258 c6 -18 28 -21 28 -4 0 9 -7 16 -16 16 -9 0 -14 -5 -12
-12z"/>
<path d="M32614 21205 c-3 -8 -3 -19 1 -25 11 -18 25 -11 25 15 0 27 -17 34
-26 10z"/>
<path d="M30944 21106 c-7 -19 3 -36 22 -36 10 0 14 8 12 22 -4 26 -26 36 -34
14z"/>
<path d="M29414 21099 c-10 -17 13 -36 27 -22 12 12 4 33 -11 33 -5 0 -12 -5
-16 -11z"/>
<path d="M1515 21080 c3 -5 8 -10 11 -10 2 0 4 5 4 10 0 6 -5 10 -11 10 -5 0
-7 -4 -4 -10z"/>
<path d="M32530 21040 c0 -5 5 -10 10 -10 6 0 10 5 10 10 0 6 -4 10 -10 10 -5
0 -10 -4 -10 -10z"/>
<path d="M30585 21030 c-3 -5 1 -10 9 -10 9 0 16 5 16 10 0 6 -4 10 -9 10 -6
0 -13 -4 -16 -10z"/>
<path d="M31263 20984 c-8 -20 8 -36 26 -25 15 10 8 41 -9 41 -6 0 -13 -7 -17
-16z"/>
<path d="M11966 20847 c-15 -11 -17 -21 -12 -49 4 -20 13 -41 20 -47 8 -7 58
-13 113 -15 54 -2 114 -9 133 -15 19 -6 64 -18 100 -27 115 -31 178 -56 202
-81 23 -24 23 -25 4 -39 -23 -16 -65 -17 -156 -4 -36 5 -202 16 -370 25 -470
23 -618 39 -722 76 -59 22 -77 19 -120 -19 -34 -29 -16 -84 52 -161 l39 -45
55 27 c32 16 65 25 78 23 74 -16 768 -47 1054 -48 123 0 135 2 185 27 30 15
64 39 76 54 23 27 30 75 13 86 -5 3 -10 17 -10 29 0 32 -22 48 -77 54 -25 3
-65 15 -87 28 -23 13 -50 24 -62 24 -11 0 -24 4 -30 9 -15 14 -178 51 -226 51
-24 0 -49 5 -55 11 -27 27 -171 46 -197 26z"/>
<path d="M14533 20760 c-38 -23 -41 -43 -13 -85 11 -16 20 -41 20 -54 0 -33
-41 -84 -108 -133 -31 -23 -83 -64 -114 -91 -31 -27 -70 -56 -87 -65 -140 -76
-161 -96 -161 -150 0 -49 28 -64 115 -63 42 0 80 3 85 6 19 12 377 -73 413
-97 20 -15 27 -28 27 -53 0 -32 -3 -35 -42 -45 -24 -7 -81 -24 -128 -40 -114
-38 -184 -51 -288 -55 -102 -3 -120 -9 -128 -40 -9 -37 3 -60 47 -84 34 -19
50 -22 92 -17 29 4 75 9 102 12 67 8 204 49 279 85 68 32 192 127 218 168 29
44 23 76 -24 121 -24 23 -59 50 -78 60 -48 25 -207 72 -255 77 -117 9 -144 15
-161 34 -17 18 -16 20 6 44 13 14 42 31 64 37 63 19 191 152 239 249 20 42 37
84 37 95 0 37 -37 82 -77 93 -48 14 -42 14 -80 -9z"/>
<path d="M31423 20744 c-8 -21 13 -42 28 -27 13 13 5 43 -11 43 -6 0 -13 -7
-17 -16z"/>
<path d="M14330 20725 c-13 -14 -39 -28 -59 -31 -20 -4 -55 -18 -78 -33 -23
-14 -70 -44 -104 -65 -34 -21 -64 -47 -66 -56 -3 -9 -24 -34 -49 -54 -46 -39
-115 -165 -128 -236 -8 -38 -12 -49 -82 -220 -54 -132 -64 -188 -40 -225 19
-29 47 -32 86 -9 27 17 60 71 60 99 0 9 18 69 39 134 22 66 43 137 47 158 7
44 85 214 115 252 30 37 169 151 185 151 7 0 21 11 30 25 10 15 26 25 40 25
26 0 84 51 84 74 0 15 -29 36 -48 36 -5 0 -19 -11 -32 -25z"/>
<path d="M12802 20669 l-24 -19 59 -61 c73 -76 92 -111 93 -174 0 -49 -2 -51
-65 -111 -57 -54 -154 -123 -287 -205 -24 -15 -74 -36 -111 -49 -54 -17 -73
-29 -88 -54 -25 -40 -24 -42 11 -78 26 -26 36 -30 67 -25 35 6 51 13 168 77
152 82 333 243 406 360 25 41 42 115 34 151 -12 53 -70 125 -133 162 -75 45
-101 51 -130 26z"/>
<path d="M32280 20665 c0 -8 5 -15 10 -15 6 0 10 7 10 15 0 8 -4 15 -10 15 -5
0 -10 -7 -10 -15z"/>
<path d="M15399 20552 c-59 -35 -149 -126 -149 -150 0 -46 56 -56 102 -17 16
14 40 25 54 25 29 0 103 28 127 48 26 22 21 60 -12 93 -36 36 -63 36 -122 1z"/>
<path d="M6427 20459 c-102 -54 -53 -168 67 -155 55 6 116 46 116 76 0 33 -85
100 -125 100 -11 -1 -37 -10 -58 -21z"/>
<path d="M20460 20394 c-30 -14 -71 -31 -90 -39 -19 -7 -64 -24 -100 -37 -89
-33 -208 -105 -320 -195 -116 -94 -201 -218 -244 -360 -19 -62 -22 -247 -6
-308 6 -22 14 -51 17 -65 3 -14 14 -43 24 -66 10 -22 19 -45 19 -51 0 -17 94
-98 136 -118 113 -53 294 -74 327 -37 22 24 21 32 -6 63 -17 20 -38 28 -98 38
-112 18 -140 27 -183 63 -56 46 -92 131 -107 255 -12 94 -11 110 8 201 23 109
57 173 105 198 15 8 28 20 28 27 0 14 63 77 125 124 82 63 293 162 374 177 85
15 111 27 126 56 13 24 13 35 4 53 -29 53 -60 58 -139 21z"/>
<path d="M21364 20304 c-49 -48 -106 -98 -126 -111 -21 -14 -50 -41 -64 -61
-23 -30 -59 -73 -127 -152 -8 -8 -24 -31 -37 -50 -13 -19 -37 -51 -54 -70 -17
-20 -42 -51 -56 -70 -14 -18 -34 -45 -46 -59 -43 -54 -156 -235 -165 -264 -22
-77 60 -105 125 -43 20 18 36 41 36 50 0 39 79 171 156 261 28 33 74 96 102
140 59 93 112 168 165 236 30 39 43 49 67 49 22 0 33 -6 41 -23 11 -24 3 -51
-57 -197 -26 -65 -46 -164 -56 -278 -11 -125 -7 -137 52 -162 24 -10 35 -8 72
9 113 55 222 150 313 272 175 235 186 245 219 198 15 -22 12 -83 -5 -105 -13
-16 -38 -144 -54 -269 l-13 -110 26 -27 c28 -30 81 -38 100 -15 5 6 12 57 15
112 3 55 15 152 27 215 12 63 26 144 30 180 4 36 15 82 24 102 20 47 21 141 2
157 -8 7 -30 14 -48 18 -33 5 -38 1 -111 -81 -41 -48 -93 -100 -114 -115 -60
-45 -246 -249 -306 -336 -22 -31 -79 -60 -101 -52 -9 4 -19 14 -23 23 -6 16
11 79 35 128 17 36 36 102 66 241 13 61 33 139 44 175 33 108 34 125 8 149
-41 38 -66 28 -162 -65z"/>
<path d="M23404 20349 c-41 -12 -53 -27 -64 -86 -19 -101 -30 -145 -44 -171
-27 -50 -56 -118 -56 -131 0 -6 -11 -33 -25 -59 -14 -26 -25 -53 -25 -60 0 -7
-11 -35 -25 -62 -13 -26 -27 -67 -31 -90 -7 -40 -17 -56 -52 -82 -36 -27 -82
-102 -82 -135 0 -26 6 -36 30 -48 38 -20 49 -16 135 40 37 25 76 45 86 45 10
0 44 -25 75 -55 73 -72 88 -79 216 -100 119 -19 161 -17 291 14 102 24 117 20
185 -40 48 -42 146 -93 198 -102 42 -8 103 7 127 32 17 17 18 22 7 36 -17 21
-75 45 -108 45 -36 0 -138 39 -157 60 -28 31 -4 54 99 93 78 30 103 45 138 83
48 51 66 91 67 145 1 31 -6 43 -42 76 -24 22 -59 45 -78 52 -54 17 -159 29
-195 21 -50 -12 -117 -52 -130 -80 -6 -14 -24 -51 -39 -84 l-28 -59 17 -53
c19 -60 13 -82 -29 -110 -21 -14 -50 -16 -193 -12 -146 4 -173 7 -217 27 -54
24 -95 57 -95 77 0 13 76 54 101 54 8 0 30 11 49 25 19 14 41 25 49 26 9 0 30
9 46 20 49 31 108 56 171 72 33 9 80 25 107 36 38 17 47 25 47 46 0 41 -33 65
-87 65 -101 0 -258 -48 -370 -112 -40 -23 -116 -96 -171 -166 -36 -46 -56 -51
-102 -27 -38 20 -38 34 3 66 17 15 41 44 52 65 11 22 52 98 92 170 40 73 73
137 73 143 0 7 16 46 36 88 70 150 49 231 -52 202z m826 -634 c11 -10 20 -28
20 -40 0 -43 -138 -145 -196 -145 -47 0 -58 26 -47 116 l8 69 45 12 c62 17
145 11 170 -12z"/>
<path d="M15183 20210 c-47 -29 -63 -67 -63 -155 0 -49 -8 -104 -21 -150 -21
-70 -21 -76 -5 -99 53 -82 141 -4 166 145 6 35 15 82 20 104 17 70 12 111 -16
144 -30 36 -38 37 -81 11z"/>
<path d="M17499 20195 c-3 -2 -48 -11 -101 -19 -53 -8 -107 -20 -119 -27 -72
-37 -201 -162 -225 -217 -13 -30 -13 -37 3 -70 10 -20 27 -39 38 -41 26 -5 80
26 92 52 48 110 57 121 123 154 129 64 200 27 155 -80 -19 -46 -19 -117 -1
-162 27 -64 140 -93 258 -66 45 11 112 65 133 109 28 58 -8 69 -88 27 -88 -47
-167 -32 -182 35 -9 39 12 145 36 183 24 41 24 68 -2 101 -17 22 -29 26 -68
26 -26 0 -50 -2 -52 -5z"/>
<path d="M15670 20163 c-18 -24 -20 -35 -14 -90 6 -58 -8 -153 -26 -178 -4 -5
-10 -22 -14 -37 -3 -14 -22 -47 -41 -72 -29 -38 -34 -51 -28 -78 20 -109 123
-89 168 32 10 25 26 63 36 85 22 47 116 145 139 145 9 0 32 8 52 19 44 22 149
44 171 35 9 -3 26 -22 38 -41 21 -34 21 -39 10 -146 -26 -234 -26 -242 -2
-266 15 -15 32 -21 53 -19 68 7 87 83 88 343 0 163 -8 194 -64 230 -39 26
-140 36 -210 21 -72 -15 -89 -23 -145 -71 -68 -56 -99 -43 -98 42 0 53 -16 73
-58 73 -25 0 -39 -7 -55 -27z"/>
<path d="M16779 20144 c-14 -7 -65 -18 -113 -23 -99 -12 -126 -26 -187 -104
-76 -96 -85 -163 -27 -212 41 -34 88 -33 150 5 26 17 52 30 56 30 5 0 26 -15
48 -33 52 -45 76 -57 114 -57 30 0 80 37 80 59 0 5 -16 28 -35 51 -19 23 -35
53 -35 66 0 13 14 50 30 82 17 33 30 73 30 89 0 55 -53 78 -111 47z m-98 -154
c25 -14 24 -34 -2 -77 -19 -30 -25 -33 -53 -28 -48 10 -76 32 -76 60 0 42 82
71 131 45z"/>
<path d="M30354 20149 c-8 -14 11 -33 25 -25 11 7 4 36 -9 36 -5 0 -12 -5 -16
-11z"/>
<path d="M17961 20010 c-22 -27 -42 -64 -46 -82 -6 -27 -3 -34 19 -51 44 -32
36 -81 -40 -264 -107 -256 -144 -338 -175 -384 -16 -24 -29 -50 -29 -57 0 -7
-17 -39 -38 -70 -22 -31 -47 -75 -58 -97 -10 -22 -43 -64 -73 -94 -65 -64 -96
-118 -79 -138 14 -18 65 -8 93 18 57 54 73 71 105 115 19 27 57 76 84 109 26
33 55 76 63 95 8 19 21 42 28 50 17 19 77 128 111 200 48 102 62 135 104 245
23 61 46 119 50 130 14 32 31 124 37 201 7 96 -10 124 -73 124 -40 0 -46 -4
-83 -50z"/>
<path d="M31160 20050 c0 -5 5 -10 10 -10 6 0 10 5 10 10 0 6 -4 10 -10 10 -5
0 -10 -4 -10 -10z"/>
<path d="M22555 19909 c-92 -22 -123 -34 -172 -66 -29 -19 -53 -38 -53 -43 0
-5 -11 -21 -23 -37 -37 -45 -81 -175 -73 -218 9 -49 56 -78 109 -70 55 8 153
60 197 105 23 24 45 37 56 35 11 -2 22 -4 25 -4 8 -1 36 -68 44 -106 9 -42 23
-55 57 -55 35 0 83 43 74 68 -3 9 -17 51 -32 92 -21 58 -28 95 -28 161 -1 87
-9 110 -45 128 -28 15 -95 20 -136 10z m39 -135 c9 -8 16 -23 16 -33 0 -29
-62 -78 -127 -100 -85 -28 -111 -28 -119 4 -9 35 35 83 105 117 65 31 103 34
125 12z"/>
<path d="M28440 19840 c0 -5 5 -10 10 -10 6 0 10 5 10 10 0 6 -4 10 -10 10 -5
0 -10 -4 -10 -10z"/>
<path d="M32190 19825 c0 -8 5 -15 10 -15 6 0 10 7 10 15 0 8 -4 15 -10 15 -5
0 -10 -7 -10 -15z"/>
<path d="M30495 19800 c-3 -5 1 -10 9 -10 9 0 16 5 16 10 0 6 -4 10 -9 10 -6
0 -13 -4 -16 -10z"/>
<path d="M30850 19759 c0 -5 5 -7 10 -4 6 3 10 8 10 11 0 2 -4 4 -10 4 -5 0
-10 -5 -10 -11z"/>
<path d="M32505 19720 c4 -6 11 -8 16 -5 14 9 11 15 -7 15 -8 0 -12 -5 -9 -10z"/>
<path d="M31552 19698 c7 -19 38 -22 38 -4 0 10 -9 16 -21 16 -12 0 -19 -5
-17 -12z"/>
<path d="M29664 19599 c-3 -6 -2 -15 2 -19 12 -12 38 5 30 19 -9 14 -23 14
-32 0z"/>
<path d="M31800 19595 c-10 -11 -10 -19 -2 -27 15 -15 44 -2 40 19 -4 23 -22
27 -38 8z"/>
<path d="M7532 19589 c-9 -3 -51 -9 -92 -13 -41 -3 -115 -19 -163 -33 -74 -23
-93 -33 -116 -63 -32 -40 -47 -110 -30 -141 15 -29 110 -117 133 -125 57 -19
273 -201 331 -279 123 -164 147 -257 93 -360 -33 -62 -82 -110 -177 -170 -8
-5 -38 -26 -66 -46 -27 -19 -66 -44 -85 -55 -19 -10 -46 -27 -59 -36 -13 -10
-60 -30 -105 -44 -69 -22 -92 -25 -156 -20 -41 3 -84 8 -96 12 -14 4 -31 -3
-50 -19 -25 -22 -27 -27 -17 -50 19 -41 77 -65 163 -68 41 -1 95 3 120 11 62
17 190 69 220 88 14 8 49 29 80 44 30 16 78 48 107 71 28 23 71 56 93 72 43
31 116 111 136 150 37 71 41 204 9 278 -7 18 -19 48 -26 67 -22 58 -159 230
-224 280 -18 14 -64 50 -102 81 -38 31 -92 68 -120 83 -81 41 -105 89 -59 120
27 17 101 22 187 11 37 -5 70 -3 95 5 21 7 78 12 127 11 54 -1 108 5 140 14
61 17 148 14 260 -11 40 -9 91 -20 114 -25 23 -4 59 -17 80 -27 21 -11 59 -22
85 -25 41 -6 49 -4 63 15 8 13 15 30 15 39 0 24 -53 66 -92 74 -18 4 -56 15
-84 25 -154 56 -215 64 -472 65 -134 0 -251 -3 -260 -6z"/>
<path d="M31477 19573 c-12 -11 -8 -23 8 -23 8 0 15 7 15 15 0 16 -12 20 -23
8z"/>
<path d="M31460 19385 c0 -9 5 -15 11 -13 6 2 11 8 11 13 0 5 -5 11 -11 13 -6
2 -11 -4 -11 -13z"/>
<path d="M26225 19331 c-36 -5 -40 -9 -43 -36 -2 -25 4 -38 32 -63 66 -59 80
-112 91 -340 3 -57 7 -107 9 -110 2 -4 0 -46 -5 -94 -5 -48 -11 -147 -13 -220
-6 -163 -38 -363 -67 -420 -5 -10 -9 -28 -9 -40 -1 -13 -10 -39 -20 -58 -11
-19 -26 -49 -34 -66 -8 -17 -22 -36 -30 -44 -9 -7 -16 -18 -16 -24 0 -16 -93
-95 -153 -130 -26 -15 -82 -39 -125 -54 -72 -26 -77 -30 -80 -59 -4 -36 10
-47 70 -56 25 -4 40 -1 49 9 6 8 17 14 23 14 7 0 52 20 102 44 78 38 101 56
177 137 48 51 87 96 87 102 0 5 9 20 20 34 11 14 20 36 20 49 0 12 9 39 21 58
19 32 30 65 60 176 26 98 39 274 43 585 2 172 -1 256 -10 295 -7 30 -13 78
-14 106 0 36 -6 59 -20 77 -11 14 -20 32 -20 39 0 22 -70 98 -88 97 -9 -1 -35
-5 -57 -8z"/>
<path d="M22616 19166 c-20 -23 -36 -48 -36 -54 0 -5 -18 -39 -40 -75 -21 -36
-49 -95 -60 -131 -12 -36 -26 -68 -31 -72 -5 -3 -9 -21 -9 -40 0 -19 -6 -47
-13 -62 -8 -15 -20 -54 -27 -87 -7 -33 -17 -65 -22 -71 -14 -19 4 -96 28 -121
13 -13 35 -23 51 -23 32 0 113 42 169 88 83 68 208 155 236 164 60 21 71 -24
42 -182 -19 -107 -10 -234 17 -261 37 -37 120 -37 153 0 24 27 17 72 -13 88
-38 18 -42 36 -32 125 6 46 10 115 10 154 -1 39 4 80 10 92 21 40 14 96 -17
125 -37 35 -81 34 -147 -3 -27 -16 -76 -42 -107 -59 -50 -27 -99 -65 -184
-142 -25 -22 -76 -25 -92 -6 -9 10 -6 25 9 58 12 24 24 53 28 64 4 11 19 45
33 75 72 157 106 219 141 255 31 32 57 85 57 117 0 9 -59 28 -91 28 -21 0 -37
-11 -63 -44z"/>
<path d="M32022 19189 c2 -6 8 -10 13 -10 5 0 11 4 13 10 2 6 -4 11 -13 11 -9
0 -15 -5 -13 -11z"/>
<path d="M3740 19143 c-118 -6 -240 -17 -270 -23 -30 -6 -77 -15 -105 -20 -27
-5 -74 -15 -103 -24 -29 -8 -81 -18 -115 -22 -130 -13 -187 -42 -187 -94 0
-64 63 -74 210 -32 142 39 268 63 490 92 113 15 345 20 499 11 171 -10 207 -6
228 26 22 33 7 56 -43 66 -149 30 -315 36 -604 20z"/>
<path d="M22158 19065 c-3 -3 -51 -19 -108 -35 -93 -27 -132 -42 -229 -88 -83
-41 -188 -163 -268 -315 -3 -4 -13 -38 -23 -75 -13 -51 -17 -91 -13 -166 4
-96 5 -100 40 -143 48 -59 79 -73 156 -73 60 0 94 9 242 64 175 64 262 139
219 187 -27 30 -54 23 -181 -42 -164 -84 -260 -106 -323 -74 -51 26 -52 112
-5 262 34 106 48 132 92 174 82 79 302 171 438 184 87 9 132 27 147 60 10 22
8 30 -9 53 -18 25 -27 27 -94 30 -41 1 -77 0 -81 -3z"/>
<path d="M28520 18990 c0 -5 7 -10 15 -10 8 0 15 5 15 10 0 6 -7 10 -15 10 -8
0 -15 -4 -15 -10z"/>
<path d="M32625 18961 c-3 -5 -1 -12 5 -16 5 -3 10 1 10 9 0 18 -6 21 -15 7z"/>
<path d="M29420 18825 c-10 -11 -10 -19 -2 -27 15 -15 44 -2 40 19 -4 23 -22
27 -38 8z"/>
<path d="M23418 18797 c-94 -37 -130 -74 -164 -164 -19 -54 -28 -96 -28 -135
1 -68 18 -92 76 -110 34 -10 45 -8 102 16 79 34 100 29 119 -27 13 -37 17 -42
43 -40 36 3 64 36 64 75 0 16 4 37 9 47 6 10 12 51 14 92 3 41 10 87 16 102
19 49 14 94 -16 127 -25 27 -35 31 -103 35 -62 4 -85 1 -132 -18z m110 -133
c33 -23 27 -56 -19 -108 -38 -43 -44 -46 -90 -46 -36 0 -54 5 -69 20 -25 25
-25 34 1 77 37 59 131 89 177 57z"/>
<path d="M25515 18802 c-76 -27 -156 -99 -182 -165 -12 -28 -14 -55 -9 -103 7
-64 6 -65 -29 -101 -28 -29 -35 -44 -33 -68 l3 -30 75 -1 c41 0 121 -4 177 -8
98 -8 102 -7 147 19 50 29 55 42 29 86 l-18 29 41 38 c51 46 69 76 77 125 9
58 -16 111 -72 150 -40 27 -55 32 -116 34 -38 1 -79 -1 -90 -5z m128 -153 c28
-34 22 -83 -15 -122 -81 -85 -198 -88 -198 -6 0 46 39 128 69 145 36 20 120
10 144 -17z"/>
<path d="M24365 18720 c-31 -7 -162 -70 -225 -108 -47 -29 -54 -28 -68 12 -15
40 -38 51 -75 37 -19 -8 -28 -20 -33 -48 -7 -41 -38 -108 -54 -118 -5 -3 -25
-30 -45 -59 -30 -46 -34 -57 -25 -80 11 -30 47 -47 81 -39 27 7 82 44 120 82
146 147 216 194 259 171 35 -19 31 -48 -16 -103 -120 -141 -138 -217 -49 -217
41 0 80 41 104 111 11 30 27 68 35 84 9 17 16 37 16 46 0 8 14 28 31 45 32 30
69 102 69 133 0 39 -61 64 -125 51z"/>
<path d="M24810 18658 c-19 -5 -46 -18 -61 -29 -15 -10 -31 -19 -36 -19 -6 0
-18 -9 -28 -20 -10 -11 -23 -20 -30 -20 -6 0 -30 -21 -54 -47 -23 -27 -60 -66
-82 -89 -30 -29 -42 -51 -46 -80 -5 -36 -2 -43 27 -67 42 -36 86 -35 136 2 47
34 76 67 91 103 14 32 9 38 -31 38 -72 1 -70 32 3 65 45 20 71 15 71 -14 0
-14 9 -21 35 -25 19 -4 39 -15 45 -26 16 -30 12 -82 -10 -125 -11 -22 -20 -44
-20 -51 0 -6 -7 -17 -15 -24 -8 -7 -18 -30 -21 -51 -4 -21 -13 -44 -20 -50 -8
-6 -14 -17 -14 -25 0 -21 -189 -388 -207 -401 -25 -19 -68 -16 -88 7 -44 48
-65 13 -65 -110 0 -77 18 -100 77 -100 37 0 50 5 73 30 15 16 31 42 34 56 4
15 23 44 43 65 38 40 89 120 144 224 17 33 42 72 56 86 13 15 23 33 21 40 -1
8 13 48 33 89 60 126 103 267 96 313 -2 16 3 52 11 80 33 117 30 131 -39 166
-43 23 -74 25 -129 9z"/>
<path d="M27740 18550 c0 -5 7 -10 16 -10 8 0 12 5 9 10 -3 6 -10 10 -16 10
-5 0 -9 -4 -9 -10z"/>
<path d="M5908 18380 c-13 -8 -18 -24 -18 -55 0 -36 5 -47 31 -69 33 -28 59
-32 108 -15 78 27 28 131 -70 145 -19 2 -42 0 -51 -6z"/>
<path d="M31007 18384 c-14 -15 -6 -34 14 -34 14 0 19 5 17 17 -3 18 -20 27
-31 17z"/>
<path d="M31786 18293 c-11 -11 -6 -23 9 -23 8 0 15 4 15 9 0 13 -16 22 -24
14z"/>
<path d="M32263 18094 c-8 -20 8 -36 26 -25 15 10 8 41 -9 41 -6 0 -13 -7 -17
-16z"/>
<path d="M32214 17936 c-8 -22 3 -33 18 -18 9 9 9 15 0 24 -9 9 -13 7 -18 -6z"/>
<path d="M32245 17900 c-10 -16 16 -43 28 -31 11 11 2 41 -12 41 -5 0 -13 -5
-16 -10z"/>
<path d="M31770 17734 c0 -17 22 -14 28 4 2 7 -3 12 -12 12 -9 0 -16 -7 -16
-16z"/>
<path d="M31024 17669 c-10 -17 13 -36 27 -22 12 12 4 33 -11 33 -5 0 -12 -5
-16 -11z"/>
<path d="M5325 17659 c-99 -4 -281 -10 -405 -14 -238 -8 -278 -9 -430 -19 -52
-3 -173 -8 -269 -11 -96 -3 -177 -8 -181 -10 -4 -2 -196 -7 -426 -10 -230 -3
-468 -10 -528 -16 -60 -5 -139 -9 -175 -9 -85 1 -122 -10 -141 -42 -12 -23
-12 -28 0 -44 31 -37 90 -52 163 -43 129 16 308 24 786 34 179 4 347 9 375 12
69 6 128 9 356 17 107 4 247 11 310 17 63 5 216 11 340 12 124 1 230 5 236 9
15 10 178 11 939 10 940 -2 1881 -20 1965 -37 14 -3 81 -7 150 -10 69 -2 195
-10 280 -16 85 -6 191 -12 235 -15 87 -3 206 -17 355 -39 52 -8 122 -17 155
-19 82 -7 187 -21 335 -46 217 -35 205 -35 229 -11 11 11 21 27 21 34 0 43
-124 87 -245 87 -37 0 -76 5 -88 12 -12 6 -60 15 -107 20 -47 4 -103 10 -125
12 -22 3 -87 10 -145 16 -58 6 -163 17 -235 24 -71 8 -133 12 -137 10 -5 -3
-23 -1 -41 5 -32 10 -144 16 -517 27 -107 3 -205 10 -217 16 -14 7 -58 9 -117
5 -52 -3 -127 -1 -166 4 -40 5 -239 11 -444 15 -204 3 -463 7 -576 10 -376 8
-1333 10 -1515 3z"/>
<path d="M32295 17460 c-3 -5 1 -10 10 -10 9 0 13 5 10 10 -3 6 -8 10 -10 10
-2 0 -7 -4 -10 -10z"/>
<path d="M7390 16987 c-33 -17 -51 -57 -60 -131 -4 -34 -26 -110 -48 -169 -62
-163 -77 -263 -76 -505 2 -219 12 -276 57 -307 29 -20 43 -19 67 5 23 23 27
88 9 122 -13 24 -16 259 -5 363 8 75 38 201 55 234 6 11 11 27 11 36 0 9 9 35
20 57 11 23 20 48 20 55 0 7 14 35 31 63 17 28 33 69 36 91 5 34 2 44 -22 70
-31 31 -56 36 -95 16z"/>
<path d="M8864 16889 c-83 -4 -160 -11 -170 -17 -11 -5 -55 -17 -99 -27 -102
-22 -200 -57 -297 -106 -42 -22 -87 -39 -100 -40 -35 -1 -110 -51 -132 -88
-42 -72 17 -168 128 -210 47 -17 321 -150 356 -171 8 -6 31 -19 50 -31 19 -11
51 -30 71 -42 20 -12 58 -35 85 -51 105 -63 163 -133 164 -195 0 -27 -8 -41
-42 -72 -85 -77 -232 -102 -390 -65 -175 41 -225 -20 -74 -90 40 -18 81 -33
92 -33 10 0 54 -3 97 -7 92 -8 159 4 267 48 114 47 170 117 170 212 0 108 -74
198 -245 302 -44 26 -92 57 -106 68 -14 12 -83 50 -155 85 -71 35 -140 70
-154 76 -14 7 -44 18 -68 24 -60 17 -107 60 -99 92 7 24 94 89 120 89 7 0 17
4 23 9 9 9 78 29 279 81 103 27 148 32 325 41 297 14 415 16 505 8 44 -4 125
-10 180 -13 55 -3 125 -10 155 -15 88 -15 139 4 126 46 -8 24 -88 67 -113 61
-11 -3 -51 -2 -89 3 -360 41 -510 46 -860 28z"/>
<path d="M5433 16120 c-12 -5 -25 -21 -29 -35 -16 -63 27 -105 106 -105 52 0
76 13 95 50 13 26 13 30 -1 45 -45 45 -121 65 -171 45z"/>
<path d="M31270 16006 c0 -9 5 -16 10 -16 6 0 10 4 10 9 0 6 -4 13 -10 16 -5
3 -10 -1 -10 -9z"/>
<path d="M31960 15770 c0 -5 5 -10 10 -10 6 0 10 5 10 10 0 6 -4 10 -10 10 -5
0 -10 -4 -10 -10z"/>
<path d="M32580 15750 c0 -5 7 -10 16 -10 8 0 12 5 9 10 -3 6 -10 10 -16 10
-5 0 -9 -4 -9 -10z"/>
<path d="M31400 15740 c0 -5 5 -10 10 -10 6 0 10 5 10 10 0 6 -4 10 -10 10 -5
0 -10 -4 -10 -10z"/>
<path d="M7515 15379 l-27 -22 7 -112 c5 -82 4 -123 -6 -151 -14 -45 -17 -233
-6 -434 4 -74 10 -211 13 -304 4 -149 7 -173 25 -198 24 -33 54 -36 69 -7 20
37 29 244 23 539 -6 301 -1 374 38 535 25 104 24 106 -12 143 -38 39 -83 42
-124 11z"/>
<path d="M3575 15299 c-44 -4 -114 -16 -155 -26 -41 -10 -86 -18 -100 -19 -53
-3 -191 -35 -234 -55 -39 -17 -46 -24 -46 -49 0 -16 7 -36 16 -45 25 -24 112
-17 214 17 79 27 152 41 355 68 168 23 370 12 585 -30 25 -5 72 -10 105 -12
55 -3 60 -1 75 24 14 26 13 29 -5 46 -61 57 -565 108 -810 81z"/>
<path d="M8430 15245 c-165 -25 -215 -49 -215 -101 0 -54 92 -90 140 -54 6 5
44 18 85 30 105 31 245 25 430 -19 180 -42 227 -57 277 -86 44 -26 59 -52 48
-84 -6 -19 -129 -131 -144 -131 -4 0 -44 -26 -89 -57 -44 -32 -114 -80 -154
-106 -256 -168 -374 -290 -370 -385 1 -34 11 -55 44 -98 57 -73 114 -98 313
-136 134 -25 569 -4 635 32 10 5 27 10 37 10 22 0 88 46 88 62 0 5 -17 17 -38
26 -33 13 -51 13 -120 3 -188 -26 -239 -30 -382 -27 -281 5 -455 63 -455 150
0 31 62 101 118 133 26 15 71 46 100 70 30 24 59 43 66 43 7 0 40 21 73 48 34
26 94 67 133 92 67 41 121 84 224 174 38 33 39 37 43 108 4 85 3 88 -86 148
-178 121 -553 194 -801 155z"/>
<path d="M32535 15210 c-3 -5 1 -10 9 -10 9 0 16 5 16 10 0 6 -4 10 -9 10 -6
0 -13 -4 -16 -10z"/>
<path d="M10855 15111 c-108 -31 -188 -41 -315 -40 -214 3 -226 2 -254 -23
-14 -13 -28 -36 -32 -51 -6 -24 1 -35 53 -85 33 -31 117 -104 189 -162 232
-189 264 -234 264 -375 0 -62 -5 -81 -39 -151 -41 -85 -77 -121 -168 -168 -28
-15 -79 -31 -113 -36 -34 -5 -68 -14 -76 -21 -20 -16 -18 -63 4 -82 34 -31 73
-30 169 1 176 57 296 175 344 335 48 160 2 296 -146 440 -75 73 -108 98 -250
187 -56 35 -69 62 -43 88 17 17 63 15 100 -4 28 -15 183 -43 236 -44 15 0 29
11 43 34 28 48 59 58 159 51 280 -18 453 -48 770 -131 66 -17 75 -20 145 -47
22 -9 58 -21 80 -28 22 -6 63 -25 92 -41 68 -38 126 -37 131 3 4 34 -30 75
-82 99 -121 55 -390 143 -536 174 -36 8 -85 19 -110 25 -169 41 -542 73 -615
52z"/>
<path d="M32454 14859 c-10 -17 13 -36 27 -22 12 12 4 33 -11 33 -5 0 -12 -5
-16 -11z"/>
<path d="M32621 14851 c-8 -14 -7 -22 4 -31 13 -11 15 -8 15 19 0 36 -5 39
-19 12z"/>
<path d="M28570 14799 c0 -5 5 -7 10 -4 6 3 10 8 10 11 0 2 -4 4 -10 4 -5 0
-10 -5 -10 -11z"/>
<path d="M5291 14486 c-37 -13 -71 -49 -71 -75 0 -10 14 -28 31 -40 26 -19 40
-23 86 -19 62 5 82 20 89 69 5 30 1 37 -29 57 -37 25 -56 26 -106 8z"/>
<path d="M31260 14250 c0 -5 5 -10 10 -10 6 0 10 5 10 10 0 6 -4 10 -10 10 -5
0 -10 -4 -10 -10z"/>
<path d="M31120 14086 c0 -9 7 -16 16 -16 17 0 14 22 -4 28 -7 2 -12 -3 -12
-12z"/>
<path d="M30545 13901 c-7 -12 12 -24 25 -16 11 7 4 25 -10 25 -5 0 -11 -4
-15 -9z"/>
<path d="M3863 13836 c-50 -17 -58 -30 -43 -66 20 -49 23 -50 285 -85 74 -10
236 -16 495 -19 212 -3 392 -7 400 -10 16 -6 307 -26 455 -32 112 -4 329 -20
454 -33 52 -6 98 -8 102 -5 4 2 56 -2 116 -11 98 -13 728 -75 978 -96 55 -4
157 -8 227 -8 101 -1 130 -4 142 -17 14 -14 13 -19 -9 -52 -37 -54 -42 -69
-53 -156 -10 -75 -9 -81 14 -115 32 -49 111 -106 197 -143 67 -29 80 -31 182
-30 150 1 256 22 349 68 98 48 126 76 126 123 -1 78 -71 171 -142 186 -18 4
-41 16 -51 26 -10 11 -26 19 -36 19 -10 0 -26 9 -36 20 -17 18 -17 20 -1 26
21 8 129 0 286 -22 188 -25 466 -39 529 -26 32 7 59 8 65 3 6 -5 21 -11 34
-13 l23 -3 -21 -22 c-11 -13 -33 -25 -48 -28 -51 -11 -140 -58 -145 -76 -3
-10 4 -30 15 -44 29 -38 66 -34 186 21 53 25 149 35 267 31 115 -5 152 -14
174 -41 29 -35 -23 -87 -147 -150 -49 -25 -84 -50 -205 -147 -55 -44 -46 -93
25 -148 25 -19 179 -59 256 -66 133 -13 345 -11 380 4 40 17 40 29 3 65 -29
28 -29 28 -252 41 -123 7 -238 18 -255 25 -46 16 -57 80 -14 80 10 0 23 6 29
14 6 7 33 21 59 31 26 10 69 35 96 57 27 21 52 38 56 38 4 0 20 18 35 40 22
31 28 52 27 88 -1 64 19 92 64 92 19 0 45 -5 56 -11 12 -6 51 -15 87 -21 430
-60 443 -61 536 -47 104 17 117 33 51 64 -32 16 -91 25 -271 45 -83 9 -134 16
-284 41 -30 5 -83 9 -118 9 -35 0 -154 9 -266 21 -122 13 -227 18 -264 15 -63
-7 -94 2 -119 33 -7 10 -21 12 -43 8 -20 -4 -40 -2 -54 7 -12 8 -47 19 -77 25
-102 21 -455 50 -675 56 -163 5 -262 12 -277 21 -5 4 -83 10 -172 14 -88 5
-215 13 -281 19 -264 24 -385 34 -480 41 -55 4 -143 12 -195 19 -52 6 -140 16
-195 22 -55 6 -136 14 -180 19 -44 6 -116 12 -160 16 -44 3 -125 9 -180 14
-55 5 -201 16 -325 25 -124 9 -250 18 -280 20 -302 22 -568 33 -940 40 -198 3
-362 19 -450 43 -66 19 -85 20 -117 8z m3902 -391 c85 -9 105 -19 105 -49 0
-31 37 -76 62 -76 31 0 100 -22 128 -40 14 -9 33 -20 42 -23 9 -3 29 -24 44
-47 26 -40 27 -41 8 -61 -40 -45 -181 -73 -359 -72 -148 0 -165 6 -233 75 -39
41 -42 48 -39 90 2 26 13 58 27 76 23 31 23 32 6 76 -10 25 -15 49 -12 54 6
10 113 8 221 -3z"/>
<path d="M27615 13640 c-4 -6 -3 -16 3 -22 6 -6 12 -6 17 2 4 6 3 16 -3 22 -6
6 -12 6 -17 -2z"/>
<path d="M5527 13377 c-37 -22 -54 -53 -44 -81 18 -46 121 -65 171 -32 35 23
33 55 -6 93 -43 42 -74 46 -121 20z"/>
<path d="M17216 13209 c-27 -32 -29 -46 -26 -199 2 -145 -30 -391 -74 -560
-29 -110 -37 -188 -25 -233 19 -72 69 -108 99 -72 16 19 39 127 40 185 0 42
23 163 51 265 31 115 46 240 54 461 5 122 4 132 -15 157 -30 38 -71 36 -104
-4z"/>
<path d="M21304 13186 c-26 -26 -44 -53 -44 -66 0 -13 -9 -53 -20 -89 -10 -36
-31 -142 -45 -236 -14 -93 -29 -190 -35 -215 -21 -103 -30 -152 -50 -280 -11
-74 -28 -179 -36 -234 l-17 -98 26 -25 25 -26 39 19 c35 17 39 23 45 69 3 28
12 91 18 140 7 50 19 117 27 150 8 33 19 80 23 105 5 25 21 97 35 160 14 63
30 149 36 190 11 79 50 261 75 344 19 66 18 99 -4 119 -29 26 -51 20 -98 -27z"/>
<path d="M28310 13195 c0 -8 7 -15 15 -15 8 0 15 7 15 15 0 8 -7 15 -15 15 -8
0 -15 -7 -15 -15z"/>
<path d="M10402 13190 c-13 -6 -56 -42 -95 -80 -65 -64 -80 -73 -154 -96 -91
-28 -104 -44 -78 -93 25 -49 176 -117 325 -146 101 -20 285 -72 338 -96 36
-16 42 -23 42 -49 0 -35 -26 -65 -78 -88 -30 -13 -65 -16 -173 -14 -113 2
-139 0 -149 -13 -17 -20 -1 -58 35 -81 34 -22 154 -34 230 -22 78 12 172 45
212 75 34 26 63 87 63 131 0 44 -52 104 -131 154 -60 38 -294 100 -460 123
-51 6 -96 43 -86 69 3 8 23 18 44 21 21 4 72 14 113 23 45 9 120 15 185 15 97
-1 114 1 158 24 46 23 53 24 116 13 36 -6 131 -22 211 -35 147 -25 203 -37
344 -73 55 -15 85 -18 102 -12 28 11 31 36 7 62 -9 10 -14 21 -10 24 3 3 68
-4 144 -15 76 -12 203 -28 283 -36 80 -9 204 -23 275 -32 255 -30 326 -28 342
13 12 32 -25 50 -157 75 -56 10 -67 12 -265 28 -60 5 -148 13 -195 19 -195 24
-292 32 -413 31 -70 0 -162 5 -205 11 -42 6 -131 20 -197 30 -222 35 -676 60
-723 40z"/>
<path d="M12652 13149 c-14 -14 -21 -39 -24 -83 -2 -42 -10 -69 -21 -80 -21
-21 -21 -19 1 -60 16 -30 17 -45 10 -103 -5 -37 -13 -81 -18 -98 -10 -34 -25
-294 -22 -398 1 -71 20 -119 54 -141 14 -8 24 -7 45 6 l28 17 7 191 c4 105 14
227 23 271 8 45 15 107 15 138 0 64 19 101 52 101 12 0 44 -11 72 -24 77 -35
110 -39 140 -15 33 26 33 52 -1 79 -26 21 -36 22 -119 17 -64 -5 -96 -3 -107
6 -23 17 -37 61 -37 112 0 35 -5 48 -26 64 -33 26 -48 26 -72 0z"/>
<path d="M24155 13151 c-7 -12 12 -24 25 -16 11 7 4 25 -10 25 -5 0 -11 -4
-15 -9z"/>
<path d="M32555 13110 c-3 -5 -1 -10 4 -10 6 0 11 5 11 10 0 6 -2 10 -4 10 -3
0 -8 -4 -11 -10z"/>
<path d="M32602 13103 c5 -26 38 -29 38 -4 0 15 -6 21 -21 21 -14 0 -19 -5
-17 -17z"/>
<path d="M3185 13076 c-114 -19 -252 -53 -310 -77 -104 -44 -161 -73 -197
-101 -20 -15 -51 -35 -70 -43 -55 -24 -112 -69 -127 -99 -17 -36 0 -55 56 -63
38 -5 43 -2 97 51 56 54 199 136 239 136 9 0 45 11 79 25 35 14 93 31 130 39
37 8 72 17 79 21 21 14 321 24 374 13 99 -19 127 -31 136 -56 19 -51 -16 -106
-171 -270 -20 -20 -44 -50 -54 -65 -10 -16 -31 -36 -46 -45 -16 -9 -38 -33
-49 -53 -11 -20 -54 -70 -96 -112 -41 -42 -75 -83 -75 -91 0 -8 -8 -17 -17
-21 -19 -6 -70 -81 -66 -96 2 -5 -6 -13 -17 -19 -11 -6 -20 -18 -20 -26 0 -8
-7 -28 -15 -45 -9 -16 -19 -58 -24 -94 -9 -75 2 -103 52 -134 63 -39 114 -50
250 -55 182 -6 254 4 467 66 19 5 60 16 90 23 115 27 176 44 215 59 22 8 54
15 72 16 17 0 35 5 38 10 3 6 17 10 31 10 21 0 36 5 80 29 45 24 94 64 94 75
0 20 -21 25 -45 13 -11 -6 -38 -12 -60 -13 -70 -3 -135 -14 -155 -24 -10 -5
-36 -10 -58 -10 -21 0 -42 -3 -46 -7 -11 -12 -119 -43 -149 -43 -16 0 -38 -5
-50 -12 -12 -6 -40 -15 -62 -19 -22 -4 -92 -17 -154 -28 -63 -12 -166 -26
-229 -31 -103 -9 -120 -8 -182 10 -136 41 -144 103 -29 225 21 22 45 57 54 77
9 22 27 44 45 53 17 9 30 19 30 24 0 11 32 48 136 154 50 51 94 102 98 114 4
12 16 25 26 28 28 9 101 95 107 128 3 15 13 33 22 40 9 7 28 29 44 49 23 31
27 47 27 99 0 60 -2 64 -40 100 -22 22 -53 41 -68 45 -15 3 -38 10 -52 16 -37
17 -340 19 -435 4z"/>
<path d="M32320 13011 c0 -19 23 -35 34 -24 14 15 5 43 -14 43 -13 0 -20 -7
-20 -19z"/>
<path d="M25472 12974 c-30 -21 -48 -58 -67 -140 -9 -38 -29 -95 -45 -128 -17
-33 -30 -64 -30 -69 0 -6 -6 -18 -13 -26 -14 -16 -44 -97 -53 -141 -3 -14 -10
-34 -15 -45 -5 -11 -15 -40 -23 -65 -8 -25 -21 -64 -30 -87 -15 -41 -48 -219
-47 -258 0 -33 -1 -171 -3 -315 -2 -113 1 -142 16 -177 16 -36 23 -43 48 -43
53 0 57 13 64 212 4 101 7 203 7 228 -3 155 82 497 140 565 9 11 20 36 24 55
10 52 36 133 48 148 11 14 63 154 79 215 9 33 8 41 -8 57 -28 26 -67 32 -92
14z"/>
<path d="M7453 12969 c-38 -11 -42 -21 -49 -125 -29 -431 -31 -538 -25 -1329
1 -228 1 -230 25 -260 24 -29 26 -29 53 -15 15 9 33 27 40 41 15 30 14 26 8
394 -9 588 -2 879 27 1095 14 106 14 160 -1 188 -13 24 -27 26 -78 11z"/>
<path d="M29465 12630 c-16 -17 -18 -34 -15 -103 2 -45 3 -95 2 -112 0 -16 2
-37 5 -45 8 -20 16 -89 14 -120 -7 -93 -5 -160 5 -194 7 -25 8 -58 2 -94 -7
-44 -6 -59 8 -79 10 -16 14 -36 10 -54 -3 -15 -1 -31 4 -34 6 -3 10 -23 10
-44 0 -21 3 -41 8 -45 4 -4 8 -20 9 -34 4 -57 17 -99 49 -159 18 -34 30 -70
28 -80 -3 -10 4 -43 15 -73 16 -46 24 -56 51 -63 44 -11 103 27 72 47 -5 3 -9
19 -10 37 0 17 -7 38 -15 48 -9 9 -20 34 -26 56 -6 22 -20 55 -32 74 -13 21
-18 42 -15 57 4 13 2 32 -3 41 -8 16 -26 86 -51 198 -16 73 -17 426 -1 468 7
17 6 48 0 89 -6 35 -8 76 -5 92 8 41 -25 111 -63 130 -37 20 -34 20 -56 -4z"/>
<path d="M1724 12429 c-10 -17 13 -36 27 -22 12 12 4 33 -11 33 -5 0 -12 -5
-16 -11z"/>
<path d="M31995 12420 c3 -5 8 -10 11 -10 2 0 4 5 4 10 0 6 -5 10 -11 10 -5 0
-7 -4 -4 -10z"/>
<path d="M13878 12316 c-20 -7 -59 -27 -85 -43 -26 -17 -88 -52 -138 -78 -49
-26 -148 -80 -220 -120 -71 -40 -168 -93 -215 -119 -47 -25 -96 -52 -110 -61
-42 -24 -267 -133 -369 -177 -53 -23 -136 -64 -186 -90 -167 -90 -380 -187
-476 -217 -57 -18 -79 -86 -37 -115 49 -34 89 -22 322 96 251 127 382 192 475
234 149 68 339 163 381 191 25 17 81 48 125 69 44 21 127 65 183 96 57 32 106
58 108 58 3 0 65 30 139 66 178 88 224 139 179 202 -17 25 -25 26 -76 8z"/>
<path d="M1200 12200 c0 -5 5 -10 10 -10 6 0 10 5 10 10 0 6 -4 10 -10 10 -5
0 -10 -4 -10 -10z"/>
<path d="M18305 12115 c-27 -7 -63 -18 -80 -24 -16 -5 -84 -24 -150 -41 -66
-18 -142 -38 -170 -45 -97 -25 -321 -103 -385 -134 -36 -17 -71 -31 -79 -31
-7 0 -34 -11 -60 -25 -25 -13 -68 -33 -96 -44 -27 -10 -108 -47 -179 -80 -70
-34 -132 -61 -137 -61 -4 0 -50 -20 -102 -45 -52 -25 -98 -45 -102 -45 -6 0
-71 -28 -150 -65 -64 -30 -152 -63 -185 -70 -85 -18 -140 -56 -140 -96 0 -30
40 -69 71 -69 10 0 71 23 136 51 65 28 138 59 163 69 25 10 59 25 75 34 17 9
35 16 42 16 7 0 43 16 81 35 38 19 89 41 115 50 26 9 82 35 124 58 43 23 92
47 108 53 17 7 107 45 200 86 94 41 195 82 225 92 30 10 68 24 83 32 16 8 38
14 50 14 12 0 34 6 48 14 15 7 116 37 225 65 110 29 219 58 244 66 25 9 54 15
66 15 11 0 41 13 67 30 58 36 64 71 17 95 -34 18 -58 18 -125 0z"/>
<path d="M22290 12055 c-14 -8 -32 -17 -40 -21 -8 -4 -107 -58 -220 -119 -113
-62 -216 -116 -230 -120 -14 -4 -31 -13 -39 -19 -8 -6 -68 -39 -135 -72 -266
-135 -339 -174 -360 -192 -11 -11 -41 -30 -66 -42 -25 -13 -70 -39 -100 -60
-30 -20 -107 -65 -170 -99 -63 -34 -158 -86 -210 -116 -52 -30 -129 -72 -170
-93 -41 -21 -104 -55 -140 -74 -36 -20 -105 -57 -155 -83 -49 -26 -97 -53
-105 -60 -8 -7 -33 -20 -55 -30 -22 -9 -47 -21 -55 -26 -8 -5 -31 -16 -50 -24
-68 -29 -85 -41 -99 -69 -12 -25 -11 -31 6 -55 36 -48 118 -38 189 23 22 19
83 57 134 86 52 28 116 64 141 80 25 15 57 31 70 35 13 4 35 16 48 26 13 11
32 19 42 19 10 0 20 4 24 9 3 6 40 29 83 52 42 23 95 55 117 70 22 16 69 40
105 55 36 14 74 34 85 44 11 10 38 27 60 38 66 33 208 121 231 143 11 10 56
37 100 59 43 22 106 55 139 74 33 20 80 45 105 56 25 12 83 40 130 62 165 77
477 239 530 275 19 13 40 23 46 23 16 0 111 50 123 64 5 6 12 25 15 42 6 26 3
32 -19 42 -35 16 -75 15 -105 -3z"/>
<path d="M1231 11876 c-31 -37 9 -103 47 -80 25 16 26 50 3 73 -25 25 -34 26
-50 7z"/>
<path d="M13540 11699 c-138 -11 -285 -50 -395 -105 -88 -44 -166 -110 -190
-160 -17 -36 -17 -39 0 -71 34 -63 86 -52 139 31 42 65 104 102 231 134 167
42 444 64 495 39 49 -25 29 -72 -50 -119 -153 -91 -363 -248 -400 -300 -38
-52 -40 -101 -5 -148 32 -44 54 -55 146 -76 63 -14 110 -16 319 -11 268 7 677
39 727 57 37 14 46 32 31 64 -19 43 -54 50 -206 38 -75 -6 -146 -10 -157 -10
-11 1 -89 -4 -173 -11 -85 -6 -231 -11 -325 -11 -144 0 -178 3 -207 18 -28 13
-35 23 -35 46 0 26 9 33 85 75 165 89 281 182 378 301 32 40 42 60 42 89 0 74
-41 103 -183 125 -103 17 -119 17 -267 5z"/>
<path d="M27060 11634 c-35 -18 -93 -42 -129 -54 -35 -11 -87 -32 -116 -45
-29 -14 -60 -25 -71 -26 -10 0 -46 -15 -79 -34 -33 -18 -116 -61 -185 -95 -69
-34 -134 -66 -145 -73 -11 -6 -45 -24 -75 -41 -30 -16 -66 -38 -79 -48 -13
-10 -32 -18 -41 -18 -10 0 -23 -7 -30 -15 -7 -8 -21 -15 -32 -15 -10 0 -36
-11 -56 -25 -20 -14 -41 -25 -46 -25 -5 0 -35 -18 -67 -40 -32 -22 -65 -40
-72 -40 -8 0 -29 -10 -48 -23 -19 -12 -50 -29 -69 -37 -19 -8 -63 -31 -98 -52
-34 -21 -65 -38 -67 -38 -3 0 -24 -12 -48 -27 -46 -30 -154 -83 -167 -83 -5 0
-38 -18 -72 -40 -35 -22 -71 -40 -80 -40 -9 0 -19 -4 -22 -9 -3 -5 -18 -12
-32 -15 -14 -4 -37 -14 -51 -23 -30 -20 -174 -83 -188 -83 -6 0 -28 -9 -50
-20 -22 -11 -47 -20 -56 -20 -9 0 -37 -11 -60 -25 -24 -14 -66 -32 -94 -41
-27 -9 -64 -22 -82 -30 -17 -8 -38 -14 -47 -14 -9 0 -36 -10 -59 -22 -23 -11
-55 -25 -72 -29 -36 -9 -189 -64 -204 -73 -18 -11 -13 -54 9 -76 30 -30 94
-26 181 11 41 17 94 36 119 44 50 14 74 23 140 53 25 11 61 25 80 32 19 7 53
20 75 30 79 34 141 59 200 81 33 13 116 51 185 85 69 33 172 84 230 113 58 28
143 73 190 101 47 27 93 50 102 50 9 0 19 4 23 9 11 18 96 71 114 71 10 0 26
9 36 20 10 11 22 20 27 20 17 0 103 42 153 75 28 19 76 45 107 58 31 14 74 37
95 51 20 14 45 26 54 26 9 0 28 9 42 20 14 11 32 20 41 20 8 0 31 14 49 30 19
17 39 30 45 30 19 0 118 48 131 64 7 9 21 16 30 16 9 0 33 9 54 20 20 11 42
20 48 20 7 0 34 14 61 30 26 17 57 30 67 30 10 0 53 16 95 35 42 20 81 33 87
30 5 -4 31 7 58 24 26 17 52 31 58 31 18 0 43 36 43 62 0 57 -54 66 -140 22z"/>
<path d="M1166 11633 c-11 -11 -6 -23 9 -23 8 0 15 4 15 9 0 13 -16 22 -24 14z"/>
<path d="M17469 11551 c-126 -79 -146 -270 -36 -348 86 -61 202 -107 326 -128
46 -8 90 -20 98 -26 26 -22 14 -59 -36 -110 -82 -83 -160 -272 -140 -341 20
-72 85 -94 114 -38 9 17 13 35 10 40 -10 16 28 143 55 185 14 22 36 65 49 95
58 135 64 143 128 180 64 37 93 74 93 120 0 40 58 86 141 110 81 24 131 57
143 93 13 37 -1 59 -48 74 -32 11 -44 10 -92 -8 -76 -29 -169 -103 -229 -182
-27 -36 -59 -73 -70 -81 -33 -25 -100 -18 -225 23 -125 42 -218 93 -246 136
-24 37 -5 79 46 99 21 8 48 29 60 46 20 28 21 33 7 54 -14 20 -53 36 -91 36
-7 0 -32 -13 -57 -29z"/>
<path d="M2010 11500 c0 -5 4 -10 9 -10 6 0 13 5 16 10 3 6 -1 10 -9 10 -9 0
-16 -4 -16 -10z"/>
<path d="M22105 11430 c-83 -11 -123 -37 -154 -97 -20 -39 31 -142 112 -227
42 -44 67 -79 67 -93 0 -26 -51 -64 -118 -87 -111 -39 -321 -234 -382 -355
-42 -81 -47 -126 -25 -207 15 -57 24 -70 74 -114 31 -27 70 -56 86 -64 105
-51 376 -68 529 -33 95 22 192 65 229 104 16 17 33 53 42 88 15 55 15 62 -5
124 -11 35 -20 70 -20 76 0 7 -16 42 -35 79 -19 37 -35 73 -35 80 0 7 -9 21
-20 31 -12 10 -29 38 -39 61 -11 23 -28 47 -39 53 -27 14 -84 105 -77 123 5
13 216 108 239 108 13 0 109 65 130 89 10 11 42 27 70 35 29 9 60 24 70 35 16
18 16 20 -9 49 -17 21 -38 32 -67 37 -22 4 -87 22 -143 41 -183 60 -351 82
-480 64z m320 -145 c82 -11 113 -19 122 -32 24 -32 11 -42 -127 -100 -36 -15
-77 -36 -91 -46 -14 -10 -44 -21 -66 -24 -37 -5 -43 -2 -79 36 -33 37 -68 87
-90 129 -3 6 1 24 11 38 17 26 17 26 113 19 53 -4 146 -13 207 -20z m-197
-407 c18 -21 65 -105 154 -283 17 -33 41 -90 55 -128 40 -111 13 -150 -132
-193 -46 -14 -97 -18 -215 -18 -143 0 -161 2 -228 26 -95 34 -135 66 -150 117
-22 73 4 122 138 262 53 56 184 159 201 159 5 0 26 15 46 34 60 52 97 59 131
24z"/>
<path d="M10180 11351 c-30 -16 -62 -37 -72 -47 -25 -29 -39 -95 -28 -133 21
-75 56 -98 161 -105 30 -2 92 -7 139 -11 75 -6 89 -4 116 13 27 17 33 29 42
84 31 180 27 184 -167 213 -132 19 -126 19 -191 -14z m195 -132 c11 -16 -3
-24 -45 -24 -21 0 -42 3 -45 7 -15 14 8 28 45 28 21 0 42 -5 45 -11z"/>
<path d="M900 11167 c-52 -26 -33 -58 43 -72 35 -7 37 -6 37 20 0 59 -29 78
-80 52z"/>
<path d="M3395 11168 c-27 -5 -212 -11 -410 -12 -447 -4 -633 -16 -707 -45
-24 -9 -28 -16 -28 -50 0 -62 41 -73 188 -51 37 6 117 15 177 20 61 5 126 12
145 14 34 4 340 13 710 22 102 2 194 4 205 5 11 0 38 0 60 0 22 0 87 0 145 1
58 0 159 -2 225 -5 453 -23 549 -29 620 -37 44 -6 153 -13 241 -16 160 -6 162
-6 169 15 9 29 -11 51 -45 51 -15 0 -43 7 -62 15 -40 16 -257 41 -433 50 -422
20 -523 23 -730 25 -126 1 -273 3 -325 4 -52 2 -117 -1 -145 -6z"/>
<path d="M30455 11170 c-22 -4 -44 -6 -48 -3 -4 2 -42 -2 -85 -11 -152 -30
-198 -38 -246 -42 -27 -2 -63 -8 -80 -13 -48 -15 -106 -29 -166 -41 -30 -6
-68 -16 -85 -22 -16 -6 -55 -16 -85 -23 -109 -24 -176 -50 -372 -144 -82 -39
-154 -71 -160 -71 -7 0 -33 -17 -57 -38 -51 -44 -50 -67 1 -103 28 -20 35 -21
76 -10 24 6 63 26 86 44 58 46 92 67 113 67 9 0 29 11 43 25 15 14 56 34 92
44 36 10 76 26 90 35 14 9 27 14 30 11 3 -3 40 6 83 20 43 15 103 31 132 35
30 5 68 16 85 25 17 8 41 15 52 15 12 0 53 7 91 15 39 9 94 18 124 21 30 2 62
9 73 15 11 6 44 17 75 25 43 11 59 12 70 3 11 -10 22 -8 52 9 21 12 45 22 54
22 25 0 67 40 67 65 0 35 -24 41 -105 25z"/>
<path d="M30603 11164 c-8 -21 13 -42 28 -27 13 13 5 43 -11 43 -6 0 -13 -7
-17 -16z"/>
<path d="M1350 11160 c0 -5 5 -10 10 -10 6 0 10 5 10 10 0 6 -4 10 -10 10 -5
0 -10 -4 -10 -10z"/>
<path d="M1022 11128 c5 -15 28 -18 29 -3 0 6 -7 12 -17 13 -10 3 -15 -1 -12
-10z"/>
<path d="M620 11088 c-48 -13 -65 -36 -43 -60 20 -22 80 -24 128 -4 43 19 44
31 3 56 -37 22 -38 22 -88 8z"/>
<path d="M845 11090 c-7 -12 12 -40 26 -40 5 0 9 11 9 25 0 25 -23 35 -35 15z"/>
<path d="M390 11071 c-39 -11 -36 -37 8 -81 51 -52 100 -56 131 -11 35 49 29
64 -39 88 -38 14 -62 15 -100 4z"/>
<path d="M58 11041 c-31 -25 -18 -51 26 -51 32 0 66 20 66 39 0 4 -16 12 -35
18 -29 9 -39 8 -57 -6z"/>
<path d="M26545 11013 c-38 -20 -41 -26 -49 -82 -4 -28 -18 -64 -34 -87 -30
-42 -55 -96 -97 -214 -15 -41 -30 -84 -35 -95 -5 -11 -14 -38 -21 -60 -18 -56
-59 -142 -74 -155 -7 -6 -16 -33 -20 -61 -4 -27 -11 -49 -16 -49 -5 0 -16 -11
-25 -25 -13 -21 -14 -30 -3 -62 6 -21 17 -41 22 -45 18 -11 86 35 98 67 6 17
17 42 25 58 9 15 12 27 8 27 -4 0 0 8 8 18 22 26 78 139 72 145 -4 3 10 39 30
81 20 41 36 81 36 89 0 24 42 130 60 152 27 33 50 73 50 88 0 8 13 31 30 52
38 48 46 89 25 138 -17 42 -40 47 -90 20z"/>
<path d="M0 11006 c0 -9 5 -16 10 -16 6 0 10 4 10 9 0 6 -4 13 -10 16 -5 3
-10 -1 -10 -9z"/>
<path d="M31365 10940 c-3 -5 1 -10 9 -10 9 0 16 5 16 10 0 6 -4 10 -9 10 -6
0 -13 -4 -16 -10z"/>
<path d="M30464 10909 c-10 -17 13 -36 27 -22 12 12 4 33 -11 33 -5 0 -12 -5
-16 -11z"/>
<path d="M6733 10900 c-38 -6 -83 -43 -83 -68 0 -11 9 -27 20 -37 22 -20 34
-20 240 -15 127 3 354 -5 585 -21 83 -6 195 -12 250 -14 55 -1 192 -10 305
-19 295 -23 322 -24 357 -10 37 15 60 48 41 61 -48 30 -121 44 -308 57 -169
11 -243 16 -400 26 -91 5 -275 17 -410 25 -257 16 -543 23 -597 15z"/>
<path d="M27304 10900 c-58 -13 -254 -189 -269 -240 -4 -14 -23 -38 -41 -53
-19 -16 -34 -36 -34 -46 0 -10 -11 -28 -25 -41 -17 -16 -25 -34 -25 -58 0 -21
-9 -47 -23 -66 -17 -22 -24 -45 -25 -82 0 -28 -2 -55 -3 -60 -3 -12 10 -63 25
-97 21 -45 122 -124 180 -141 163 -46 265 -54 393 -32 54 10 116 24 138 31 22
8 60 19 85 25 47 12 99 60 100 92 0 29 -121 143 -190 178 -78 39 -101 47 -205
64 -124 22 -224 10 -306 -36 l-66 -37 -34 30 c-31 26 -32 30 -16 39 9 6 17 17
17 24 0 23 25 65 45 76 11 6 31 29 45 52 14 22 37 49 53 60 15 11 27 25 27 31
0 16 75 87 125 120 22 14 60 31 84 37 151 40 97 167 -55 130z m-214 -637 c8
-3 67 -5 130 -4 123 3 227 -13 324 -49 62 -24 79 -40 74 -72 -4 -28 -32 -34
-200 -44 -203 -11 -366 25 -425 95 -26 31 -28 49 -8 71 14 16 68 17 105 3z"/>
<path d="M9865 10705 c-5 -2 -31 -6 -58 -10 -61 -8 -103 -42 -92 -74 12 -40
65 -53 230 -57 160 -4 329 -17 515 -39 271 -33 346 -30 371 17 26 49 -17 74
-166 92 -66 8 -190 24 -275 35 -221 28 -493 47 -525 36z"/>
<path d="M31360 10624 c0 -17 22 -14 28 4 2 7 -3 12 -12 12 -9 0 -16 -7 -16
-16z"/>
<path d="M12654 10591 c-102 -12 -151 -80 -92 -129 21 -17 90 -18 127 -2 36
14 374 9 546 -9 55 -6 168 -17 250 -26 197 -19 352 -40 450 -60 44 -9 110 -18
146 -22 59 -5 69 -3 88 16 29 29 23 60 -14 81 -28 15 -87 26 -430 80 -123 19
-217 30 -289 35 -23 1 -104 8 -181 15 -208 18 -217 19 -390 23 -88 2 -183 1
-211 -2z"/>
<path d="M29795 10495 c-35 -34 -31 -58 13 -91 35 -27 43 -29 142 -31 159 -3
248 -11 320 -27 36 -9 80 -15 97 -16 18 0 52 -5 75 -10 195 -46 255 -62 324
-85 43 -14 90 -37 105 -51 14 -13 32 -24 40 -24 8 -1 5 -6 -9 -13 -12 -7 -29
-22 -37 -34 -8 -12 -29 -25 -47 -28 -17 -4 -49 -20 -70 -36 -22 -15 -54 -31
-71 -35 -18 -3 -59 -20 -92 -36 -33 -16 -82 -36 -110 -43 -45 -12 -90 -30
-137 -56 -10 -5 -23 -9 -30 -9 -11 0 -75 -27 -126 -53 -13 -7 -31 -24 -40 -40
-15 -25 -15 -30 -2 -55 20 -35 76 -65 159 -87 36 -9 95 -27 131 -40 36 -13 99
-33 140 -45 119 -36 127 -40 188 -97 31 -30 74 -64 94 -74 49 -25 63 -51 40
-71 -25 -22 -79 -38 -127 -38 -40 0 -87 -11 -130 -31 -11 -5 -63 -19 -115 -30
-52 -12 -122 -27 -155 -35 -116 -27 -171 -34 -265 -34 -120 1 -155 -8 -155
-41 0 -19 11 -30 53 -52 55 -30 81 -33 172 -24 122 13 208 28 360 66 47 11
119 28 160 37 41 8 89 20 106 25 17 5 36 9 43 9 7 0 32 14 56 30 24 17 55 30
70 30 14 0 27 6 29 13 2 6 9 31 17 55 9 32 10 45 1 54 -19 19 -14 43 14 73 29
31 25 55 -9 55 -13 0 -34 11 -47 25 -13 14 -29 25 -36 25 -6 0 -17 6 -23 13
-6 8 -30 20 -53 28 -24 7 -57 21 -74 31 -45 26 -158 64 -304 102 -69 18 -136
38 -149 45 -23 13 -23 13 -4 33 13 12 64 30 142 48 67 17 152 44 189 61 61 28
77 35 122 53 8 4 29 15 45 26 17 10 47 24 68 30 26 7 45 22 61 48 23 36 25 49
18 150 -3 36 -81 112 -147 143 -33 16 -67 29 -75 29 -8 0 -53 14 -100 30 -46
17 -98 30 -115 30 -16 1 -82 12 -145 26 -97 22 -222 40 -305 46 -11 0 -74 7
-140 14 -66 8 -121 14 -123 14 -2 0 -14 -11 -27 -25z"/>
<path d="M443 10464 c-8 -21 13 -42 28 -27 13 13 5 43 -11 43 -6 0 -13 -7 -17
-16z"/>
<path d="M16460 10232 c-21 -17 -23 -24 -15 -47 17 -48 53 -65 166 -80 117
-16 122 -17 203 -64 l58 -33 26 19 c40 29 54 32 103 23 155 -29 593 -57 1024
-66 171 -3 378 -13 460 -21 83 -8 175 -16 205 -17 49 -1 55 1 70 26 19 34 8
56 -41 80 -42 21 -393 45 -779 53 -280 6 -492 18 -730 41 -85 8 -186 17 -225
20 -73 5 -246 35 -350 59 -115 27 -148 29 -175 7z"/>
<path d="M31330 10142 c-28 -9 -65 -65 -57 -87 14 -34 65 -46 215 -49 104 -3
169 -9 222 -23 41 -11 111 -28 155 -38 99 -22 196 -54 214 -71 12 -11 8 -16
-20 -33 -19 -12 -41 -21 -49 -21 -19 0 -199 -58 -214 -68 -6 -4 -29 -14 -51
-21 -22 -8 -59 -27 -83 -42 -24 -16 -52 -29 -62 -29 -10 0 -22 -5 -26 -11 -3
-6 -21 -17 -40 -25 -18 -8 -49 -25 -70 -39 -20 -14 -45 -25 -54 -25 -18 0 -70
-59 -70 -79 0 -6 -11 -18 -24 -26 -30 -20 -40 -54 -22 -75 8 -8 17 -26 21 -40
12 -39 46 -79 90 -104 84 -50 163 -86 187 -86 13 0 32 -6 43 -14 11 -7 38 -16
60 -19 22 -3 83 -15 135 -27 119 -26 282 -54 395 -67 28 -3 56 -10 63 -16 17
-14 194 -26 210 -14 20 16 14 33 -23 61 -42 32 -102 51 -208 65 -43 6 -86 15
-95 20 -9 4 -31 9 -49 9 -17 0 -41 6 -53 12 -12 6 -28 9 -35 6 -8 -3 -29 0
-47 5 -18 6 -44 12 -58 14 -197 26 -411 100 -486 169 -38 35 -39 37 -24 63 15
27 83 68 210 128 30 15 63 30 72 36 10 5 29 9 42 9 14 0 30 10 39 24 9 13 28
27 44 30 26 6 75 28 145 63 14 7 38 13 52 13 15 0 39 9 54 20 15 11 49 24 77
29 36 7 56 17 72 38 45 56 19 107 -74 143 -32 13 -63 29 -69 36 -16 20 -187
74 -359 113 -152 34 -350 56 -395 43z"/>
<path d="M7368 10104 c-60 -22 -97 -43 -193 -110 -128 -89 -372 -342 -420
-434 -9 -18 -32 -54 -51 -80 -19 -26 -34 -54 -34 -61 0 -8 -17 -43 -36 -79
-20 -36 -40 -81 -46 -100 -16 -60 -27 -213 -18 -250 30 -120 55 -198 71 -222
11 -14 19 -31 19 -38 0 -17 115 -134 163 -166 23 -15 58 -38 78 -51 51 -33
164 -71 294 -99 129 -27 348 -31 437 -7 29 7 85 18 123 24 39 6 75 15 80 19 6
5 27 11 47 15 21 4 63 22 94 41 31 19 65 34 76 34 35 0 172 81 243 143 103 90
190 179 205 207 7 14 30 48 51 76 22 28 39 56 39 62 0 11 10 36 54 132 41 92
17 311 -46 402 -10 14 -18 33 -18 41 0 20 -45 73 -85 100 -18 12 -57 41 -88
64 -97 74 -260 131 -582 202 -135 30 -246 17 -261 -32 -12 -37 26 -59 118 -68
45 -5 101 -13 123 -18 22 -6 69 -17 105 -25 36 -9 99 -25 140 -36 41 -12 89
-25 105 -29 71 -19 196 -89 265 -149 74 -64 125 -175 136 -297 8 -85 -7 -134
-86 -281 -79 -149 -236 -293 -421 -386 -53 -26 -102 -48 -109 -48 -7 0 -26 -6
-43 -14 -32 -13 -109 -33 -217 -55 -248 -51 -556 -14 -735 89 -49 28 -136 109
-159 147 -6 11 -21 35 -33 54 -13 19 -23 43 -23 54 0 11 -6 29 -14 40 -7 11
-16 61 -19 114 -8 120 2 162 77 331 74 170 403 513 574 600 20 10 66 21 101
25 72 8 111 36 111 79 0 50 -104 72 -192 40z"/>
<path d="M46 10081 c-11 -12 -16 -27 -12 -37 6 -15 9 -15 29 -1 23 15 30 48
11 54 -6 2 -19 -5 -28 -16z"/>
<path d="M19680 10017 c-32 -16 -37 -43 -13 -69 36 -40 27 -38 433 -79 135
-13 314 -26 540 -38 235 -13 414 -26 615 -47 83 -8 173 -17 200 -19 84 -7 207
-23 265 -35 30 -6 100 -17 155 -25 171 -24 233 -35 283 -46 26 -6 74 -15 107
-19 33 -4 97 -16 143 -25 l83 -18 26 25 c18 19 23 31 18 47 -10 32 -81 64
-160 73 -91 9 -238 33 -295 48 -25 6 -74 16 -110 20 -102 14 -128 17 -235 35
-55 9 -142 20 -193 25 -52 5 -101 11 -110 14 -24 7 -402 41 -567 51 -345 20
-726 52 -905 75 -180 23 -245 25 -280 7z"/>
<path d="M13085 10000 c-21 -24 -15 -58 22 -115 39 -59 44 -146 22 -333 -10
-85 -20 -161 -23 -170 -3 -10 -10 -55 -16 -102 -28 -221 -41 -341 -55 -530 -8
-113 -19 -236 -24 -273 -5 -38 -7 -75 -4 -83 3 -7 0 -36 -7 -63 -17 -71 -20
-267 -4 -288 11 -17 14 -17 48 -1 21 11 37 26 40 40 3 13 9 46 15 73 16 79 51
378 56 485 5 101 23 296 35 390 6 47 15 121 20 165 5 44 19 136 31 205 53 317
40 499 -44 588 -36 38 -84 43 -112 12z"/>
<path d="M23888 9751 c-20 -4 -44 -14 -53 -21 -26 -21 -14 -61 24 -84 29 -17
55 -20 180 -22 123 -2 309 -13 486 -29 22 -2 121 -9 220 -14 99 -6 261 -16
360 -23 99 -6 209 -12 245 -13 170 -4 737 -70 915 -106 55 -11 120 -24 145
-28 101 -18 218 -43 265 -56 142 -40 206 -57 285 -74 25 -5 72 -19 105 -30 33
-11 68 -21 78 -21 9 0 34 -9 54 -20 21 -11 46 -20 56 -20 10 0 37 -9 60 -20
23 -11 58 -23 79 -26 30 -5 41 -2 62 19 33 33 26 50 -29 76 -24 11 -46 25 -50
31 -3 5 -19 10 -36 10 -16 0 -37 5 -47 10 -9 6 -69 26 -132 46 -118 36 -139
42 -250 69 -71 18 -136 35 -219 60 -55 17 -134 33 -204 41 -20 3 -56 12 -78
20 -23 7 -54 14 -68 14 -15 0 -52 7 -82 16 -29 9 -74 18 -99 20 -115 10 -226
24 -356 43 -78 12 -247 28 -375 36 -129 8 -256 17 -284 20 -27 3 -95 7 -150
10 -55 3 -167 10 -250 16 -82 5 -179 11 -215 13 -36 3 -150 11 -255 20 -270
22 -345 25 -387 17z"/>
<path d="M17250 9526 c-153 -48 -237 -84 -325 -141 -200 -129 -373 -358 -420
-558 -8 -34 -19 -80 -24 -102 -12 -52 8 -185 42 -282 27 -78 89 -165 174 -244
47 -44 135 -109 148 -109 4 0 37 -17 73 -38 103 -60 309 -120 482 -142 155
-19 540 -2 596 28 10 5 44 15 74 22 61 14 171 69 210 105 14 12 34 26 45 29
26 8 79 61 157 158 93 115 103 129 122 178 10 25 28 56 40 70 12 14 30 52 40
85 10 33 24 74 31 90 49 115 40 223 -26 337 -21 36 -39 70 -39 75 0 11 -177
191 -223 226 -241 187 -500 257 -725 196 -158 -43 -143 -43 -179 -1 -32 37
-33 37 -115 39 -63 1 -101 -4 -158 -21z m273 -137 c39 -23 117 -25 175 -5 99
35 277 28 407 -16 136 -46 344 -201 417 -311 95 -142 100 -152 105 -237 5 -67
2 -90 -17 -142 -12 -35 -29 -72 -36 -83 -8 -11 -14 -25 -14 -31 0 -7 -16 -35
-35 -64 -19 -29 -35 -59 -35 -67 0 -9 -10 -26 -22 -39 -36 -37 -75 -85 -109
-131 -34 -47 -134 -126 -188 -149 -66 -28 -146 -54 -207 -69 -97 -22 -364 -33
-510 -20 -121 12 -321 60 -409 99 -157 70 -148 65 -265 158 -96 77 -149 185
-169 343 -9 72 -7 90 14 172 82 314 333 537 690 613 60 13 172 2 208 -21z"/>
<path d="M21245 9480 c-15 -16 -19 -39 -21 -98 -1 -42 -10 -147 -20 -232 -17
-135 -19 -215 -16 -620 3 -451 2 -471 -22 -650 l-25 -184 21 -23 c12 -13 27
-23 34 -23 9 0 70 60 75 73 0 1 4 36 9 77 5 41 15 127 24 190 19 146 19 149
12 545 -4 215 -2 368 6 440 6 61 12 139 13 175 1 59 8 96 36 187 5 17 7 43 4
57 -3 14 -7 37 -10 51 -6 26 -50 55 -83 55 -10 0 -27 -9 -37 -20z"/>
<path d="M24642 9310 c-13 -6 -27 -8 -32 -5 -4 3 -24 -2 -43 -10 -20 -8 -48
-12 -64 -9 -23 4 -33 -1 -57 -32 -28 -35 -28 -38 -11 -51 11 -7 26 -11 34 -9
40 12 335 18 374 8 23 -6 68 -16 100 -23 32 -7 60 -16 63 -21 3 -4 16 -8 29
-8 13 0 53 -20 89 -45 36 -24 81 -51 100 -59 20 -8 50 -28 68 -45 18 -17 67
-61 108 -98 86 -77 191 -191 226 -245 13 -20 33 -42 44 -48 11 -6 20 -17 20
-24 0 -8 11 -27 25 -42 33 -39 119 -177 149 -241 14 -28 30 -54 36 -58 6 -3 8
-10 5 -15 -3 -5 6 -35 21 -66 32 -68 64 -185 64 -236 0 -20 5 -40 10 -43 23
-14 5 -184 -29 -265 -47 -114 -62 -138 -99 -160 -17 -11 -35 -28 -41 -38 -14
-27 -131 -81 -216 -101 -87 -20 -333 -22 -420 -3 -73 16 -186 49 -240 69 -22
9 -60 23 -85 32 -51 19 -119 60 -139 85 -8 10 -35 29 -60 43 -50 29 -201 178
-266 263 -51 66 -94 140 -95 161 0 9 -7 22 -15 29 -8 7 -15 21 -15 31 0 10 -9
33 -20 51 -49 84 -73 332 -42 438 28 94 111 229 184 296 37 34 133 94 190 117
38 16 58 42 58 75 0 46 -81 71 -153 46 -57 -19 -178 -123 -249 -214 -116 -147
-186 -356 -173 -512 9 -109 36 -224 66 -280 5 -10 9 -24 9 -31 0 -19 109 -207
142 -245 15 -18 28 -36 28 -41 0 -11 172 -185 249 -251 162 -139 416 -246 691
-294 143 -25 376 -5 462 39 18 9 54 25 79 34 154 60 253 172 313 356 30 91 33
110 31 210 -1 69 -9 133 -20 170 -9 33 -20 76 -25 95 -14 67 -138 329 -172
365 -30 32 -82 107 -103 149 -11 21 -30 45 -42 53 -13 9 -23 21 -23 28 0 11
-180 207 -230 251 -8 7 -42 38 -75 67 -33 30 -71 60 -85 67 -14 7 -44 28 -66
47 -74 60 -313 166 -414 183 -83 14 -225 19 -248 10z"/>
<path d="M31890 8475 c0 -8 7 -15 15 -15 8 0 15 7 15 15 0 8 -7 15 -15 15 -8
0 -15 -7 -15 -15z"/>
<path d="M10580 8263 c-8 -3 -28 -15 -43 -25 -24 -17 -28 -26 -25 -60 3 -35 8
-44 37 -59 38 -20 71 -12 109 28 29 32 28 61 -5 95 -26 27 -43 32 -73 21z"/>
<path d="M32190 8220 c0 -5 5 -10 11 -10 5 0 7 5 4 10 -3 6 -8 10 -11 10 -2 0
-4 -4 -4 -10z"/>
<path d="M32150 8100 c0 -5 5 -10 10 -10 6 0 10 5 10 10 0 6 -4 10 -10 10 -5
0 -10 -4 -10 -10z"/>
<path d="M26470 7950 c0 -5 5 -10 10 -10 6 0 10 5 10 10 0 6 -4 10 -10 10 -5
0 -10 -4 -10 -10z"/>
<path d="M31467 7643 c-12 -11 -8 -23 8 -23 8 0 15 7 15 15 0 16 -12 20 -23 8z"/>
<path d="M32544 7515 c-8 -20 4 -35 26 -35 25 0 35 17 20 35 -16 19 -39 19
-46 0z"/>
<path d="M37 7373 c-14 -13 -6 -24 15 -21 27 4 36 28 11 28 -11 0 -23 -3 -26
-7z"/>
<path d="M31130 7310 c0 -5 5 -10 10 -10 6 0 10 5 10 10 0 6 -4 10 -10 10 -5
0 -10 -4 -10 -10z"/>
<path d="M32300 7200 c0 -5 5 -10 10 -10 6 0 10 5 10 10 0 6 -4 10 -10 10 -5
0 -10 -4 -10 -10z"/>
<path d="M32287 7063 c-15 -14 -7 -43 12 -43 23 0 54 28 46 41 -7 10 -48 12
-58 2z"/>
<path d="M30790 6930 c0 -5 7 -10 15 -10 8 0 15 5 15 10 0 6 -7 10 -15 10 -8
0 -15 -4 -15 -10z"/>
<path d="M320 6820 c0 -5 5 -10 10 -10 6 0 10 5 10 10 0 6 -4 10 -10 10 -5 0
-10 -4 -10 -10z"/>
<path d="M30946 6731 c-7 -11 18 -33 27 -24 4 3 7 12 7 20 0 15 -26 18 -34 4z"/>
<path d="M31880 6695 c0 -9 5 -15 11 -13 6 2 11 8 11 13 0 5 -5 11 -11 13 -6
2 -11 -4 -11 -13z"/>
<path d="M30382 6603 c2 -10 10 -18 18 -18 8 0 16 8 18 18 2 12 -3 17 -18 17
-15 0 -20 -5 -18 -17z"/>
<path d="M32145 6440 c3 -5 10 -10 16 -10 5 0 9 5 9 10 0 6 -7 10 -16 10 -8 0
-12 -4 -9 -10z"/>
<path d="M28644 6389 c-9 -15 23 -40 42 -32 8 3 14 13 12 22 -4 19 -43 27 -54
10z"/>
<path d="M31550 6231 c0 -10 7 -24 15 -31 21 -17 39 1 30 29 -8 27 -45 28 -45
2z"/>
<path d="M30074 6229 c-10 -17 13 -36 27 -22 12 12 4 33 -11 33 -5 0 -12 -5
-16 -11z"/>
<path d="M32165 6190 c-4 -6 -1 -17 5 -26 15 -18 42 0 33 22 -6 16 -29 19 -38
4z"/>
<path d="M28160 5934 c0 -17 22 -14 28 4 2 7 -3 12 -12 12 -9 0 -16 -7 -16
-16z"/>
<path d="M32623 5764 c-3 -8 -1 -20 6 -27 8 -8 11 -4 11 16 0 30 -7 35 -17 11z"/>
<path d="M26990 5755 c0 -9 5 -15 11 -13 6 2 11 8 11 13 0 5 -5 11 -11 13 -6
2 -11 -4 -11 -13z"/>
<path d="M32580 5720 c0 -5 5 -10 10 -10 6 0 10 5 10 10 0 6 -4 10 -10 10 -5
0 -10 -4 -10 -10z"/>
<path d="M29507 5674 c-8 -8 1 -24 14 -24 5 0 9 7 9 15 0 15 -12 20 -23 9z"/>
<path d="M32200 5540 c0 -5 5 -10 10 -10 6 0 10 5 10 10 0 6 -4 10 -10 10 -5
0 -10 -4 -10 -10z"/>
<path d="M28586 5521 c-4 -5 -2 -12 3 -15 5 -4 12 -2 15 3 4 5 2 12 -3 15 -5
4 -12 2 -15 -3z"/>
<path d="M30812 5487 c-15 -17 1 -42 23 -33 18 6 17 37 -1 43 -6 2 -16 -2 -22
-10z"/>
<path d="M32080 5329 c0 -5 5 -7 10 -4 6 3 10 8 10 11 0 2 -4 4 -10 4 -5 0
-10 -5 -10 -11z"/>
<path d="M31463 5194 c-3 -8 -1 -20 6 -27 14 -14 47 15 37 32 -10 16 -36 13
-43 -5z"/>
<path d="M31115 5051 c-7 -12 12 -24 25 -16 11 7 4 25 -10 25 -5 0 -11 -4 -15
-9z"/>
<path d="M31000 5016 c0 -21 21 -31 30 -15 5 7 6 17 4 21 -9 14 -34 9 -34 -6z"/>
<path d="M30490 4940 c0 -5 7 -10 16 -10 8 0 12 5 9 10 -3 6 -10 10 -16 10 -5
0 -9 -4 -9 -10z"/>
<path d="M28690 4880 c0 -5 5 -10 10 -10 6 0 10 5 10 10 0 6 -4 10 -10 10 -5
0 -10 -4 -10 -10z"/>
<path d="M30240 4880 c0 -5 5 -10 10 -10 6 0 10 5 10 10 0 6 -4 10 -10 10 -5
0 -10 -4 -10 -10z"/>
<path d="M31622 4869 c2 -6 8 -10 13 -10 5 0 11 4 13 10 2 6 -4 11 -13 11 -9
0 -15 -5 -13 -11z"/>
<path d="M2070 4790 c0 -5 5 -10 10 -10 6 0 10 5 10 10 0 6 -4 10 -10 10 -5 0
-10 -4 -10 -10z"/>
<path d="M32574 4586 c-8 -22 3 -33 18 -18 9 9 9 15 0 24 -9 9 -13 7 -18 -6z"/>
<path d="M30730 4530 c0 -5 7 -10 15 -10 8 0 15 5 15 10 0 6 -7 10 -15 10 -8
0 -15 -4 -15 -10z"/>
<path d="M31530 4525 c0 -8 7 -15 15 -15 8 0 15 7 15 15 0 8 -7 15 -15 15 -8
0 -15 -7 -15 -15z"/>
<path d="M31994 4449 c-9 -15 11 -33 30 -26 9 4 13 13 10 22 -7 17 -30 20 -40
4z"/>
<path d="M29330 4395 c0 -9 5 -15 11 -13 6 2 11 8 11 13 0 5 -5 11 -11 13 -6
2 -11 -4 -11 -13z"/>
<path d="M30990 4315 c0 -9 5 -15 11 -13 6 2 11 8 11 13 0 5 -5 11 -11 13 -6
2 -11 -4 -11 -13z"/>
<path d="M31731 4306 c-9 -10 -9 -16 -1 -21 17 -10 37 12 24 25 -8 8 -15 6
-23 -4z"/>
<path d="M25574 4269 c-10 -17 13 -36 27 -22 12 12 4 33 -11 33 -5 0 -12 -5
-16 -11z"/>
<path d="M32340 4247 c0 -13 6 -32 14 -43 21 -27 35 -7 24 34 -10 37 -38 44
-38 9z"/>
<path d="M31594 4249 c-10 -17 23 -46 37 -32 7 7 9 19 6 27 -7 18 -33 21 -43
5z"/>
<path d="M32155 4111 c-7 -12 12 -24 25 -16 11 7 4 25 -10 25 -5 0 -11 -4 -15
-9z"/>
<path d="M32470 4069 c0 -5 5 -7 10 -4 6 3 10 8 10 11 0 2 -4 4 -10 4 -5 0
-10 -5 -10 -11z"/>
<path d="M31685 4061 c-6 -11 9 -23 19 -14 9 9 7 23 -3 23 -6 0 -12 -4 -16 -9z"/>
<path d="M29820 4040 c0 -5 5 -10 10 -10 6 0 10 5 10 10 0 6 -4 10 -10 10 -5
0 -10 -4 -10 -10z"/>
<path d="M32570 4025 c-10 -12 -10 -19 -2 -27 15 -15 48 14 38 31 -10 15 -21
14 -36 -4z"/>
<path d="M30534 3879 c-10 -17 13 -36 27 -22 12 12 4 33 -11 33 -5 0 -12 -5
-16 -11z"/>
<path d="M31960 3860 c0 -5 5 -10 10 -10 6 0 10 5 10 10 0 6 -4 10 -10 10 -5
0 -10 -4 -10 -10z"/>
<path d="M31655 3850 c-10 -17 12 -37 25 -24 8 8 6 15 -4 23 -10 9 -16 9 -21
1z"/>
<path d="M32325 3740 c-7 -12 2 -30 16 -30 5 0 9 9 9 20 0 21 -15 27 -25 10z"/>
<path d="M31700 3585 c0 -9 5 -15 11 -13 6 2 11 8 11 13 0 5 -5 11 -11 13 -6
2 -11 -4 -11 -13z"/>
<path d="M32600 3560 c0 -13 7 -20 20 -20 13 0 20 7 20 20 0 13 -7 20 -20 20
-13 0 -20 -7 -20 -20z"/>
<path d="M1055 3510 c-4 -7 -3 -16 3 -22 14 -14 45 -2 40 15 -6 16 -34 21 -43
7z"/>
<path d="M32122 3463 c5 -26 38 -29 38 -4 0 15 -6 21 -21 21 -14 0 -19 -5 -17
-17z"/>
<path d="M30690 3340 c0 -5 5 -10 10 -10 6 0 10 5 10 10 0 6 -4 10 -10 10 -5
0 -10 -4 -10 -10z"/>
<path d="M32437 3254 c-16 -16 -6 -35 16 -32 12 2 22 10 22 18 0 16 -26 25
-38 14z"/>
<path d="M29032 3238 c5 -15 28 -18 29 -3 0 6 -7 12 -17 13 -10 3 -15 -1 -12
-10z"/>
<path d="M32540 3219 c0 -5 5 -7 10 -4 6 3 10 8 10 11 0 2 -4 4 -10 4 -5 0
-10 -5 -10 -11z"/>
<path d="M32396 3195 c-3 -9 1 -18 10 -22 19 -7 39 11 30 26 -10 16 -33 13
-40 -4z"/>
<path d="M32320 3160 c0 -5 5 -10 10 -10 6 0 10 5 10 10 0 6 -4 10 -10 10 -5
0 -10 -4 -10 -10z"/>
<path d="M22286 3143 c-11 -11 -6 -23 9 -23 8 0 15 4 15 9 0 13 -16 22 -24 14z"/>
<path d="M7860 3086 c0 -9 7 -16 16 -16 9 0 14 5 12 12 -6 18 -28 21 -28 4z"/>
<path d="M31007 3094 c-13 -13 -7 -24 14 -24 11 0 19 5 17 12 -5 14 -22 21
-31 12z"/>
<path d="M29632 3073 c5 -25 28 -28 28 -4 0 12 -6 21 -16 21 -9 0 -14 -7 -12
-17z"/>
<path d="M31834 3079 c-10 -17 13 -36 27 -22 12 12 4 33 -11 33 -5 0 -12 -5
-16 -11z"/>
<path d="M28880 3070 c0 -5 5 -10 10 -10 6 0 10 5 10 10 0 6 -4 10 -10 10 -5
0 -10 -4 -10 -10z"/>
<path d="M32025 2940 c-8 -13 3 -30 20 -30 23 0 27 18 6 30 -13 7 -22 7 -26 0z"/>
<path d="M27710 2895 c0 -8 5 -15 10 -15 6 0 10 7 10 15 0 8 -4 15 -10 15 -5
0 -10 -7 -10 -15z"/>
<path d="M31090 2871 c0 -6 5 -13 10 -16 6 -3 10 1 10 9 0 9 -4 16 -10 16 -5
0 -10 -4 -10 -9z"/>
<path d="M31750 2850 c0 -5 5 -10 10 -10 6 0 10 5 10 10 0 6 -4 10 -10 10 -5
0 -10 -4 -10 -10z"/>
<path d="M26896 2813 c-11 -11 -6 -23 9 -23 8 0 15 4 15 9 0 13 -16 22 -24 14z"/>
<path d="M32600 2770 c0 -5 5 -10 11 -10 5 0 7 5 4 10 -3 6 -8 10 -11 10 -2 0
-4 -4 -4 -10z"/>
<path d="M30120 2735 c0 -8 7 -15 15 -15 8 0 15 7 15 15 0 8 -7 15 -15 15 -8
0 -15 -7 -15 -15z"/>
<path d="M30845 2691 c-3 -5 -1 -12 5 -16 5 -3 10 1 10 9 0 18 -6 21 -15 7z"/>
<path d="M31574 2686 c-8 -22 3 -33 18 -18 9 9 9 15 0 24 -9 9 -13 7 -18 -6z"/>
<path d="M32052 2674 c4 -21 22 -23 26 -1 2 10 -3 17 -13 17 -10 0 -15 -6 -13
-16z"/>
<path d="M29925 2631 c-6 -11 21 -41 39 -41 18 0 35 21 29 36 -6 16 -59 19
-68 5z"/>
<path d="M31070 2530 c0 -5 5 -10 10 -10 6 0 10 5 10 10 0 6 -4 10 -10 10 -5
0 -10 -4 -10 -10z"/>
<path d="M31140 2485 c-15 -18 -5 -35 20 -35 10 0 22 5 25 10 7 11 -12 40 -25
40 -4 0 -13 -7 -20 -15z"/>
<path d="M31745 2491 c-8 -15 3 -31 21 -31 9 0 14 7 12 17 -4 20 -24 28 -33
14z"/>
<path d="M31640 2445 c0 -9 5 -15 11 -13 6 2 11 8 11 13 0 5 -5 11 -11 13 -6
2 -11 -4 -11 -13z"/>
<path d="M30965 2440 c-8 -13 4 -32 16 -25 12 8 12 35 0 35 -6 0 -13 -4 -16
-10z"/>
<path d="M30130 2429 c0 -5 5 -7 10 -4 6 3 10 8 10 11 0 2 -4 4 -10 4 -5 0
-10 -5 -10 -11z"/>
<path d="M32064 2429 c-9 -15 12 -33 30 -26 9 4 16 13 16 22 0 17 -35 21 -46
4z"/>
<path d="M32547 2434 c-14 -14 -7 -35 11 -32 9 2 17 10 17 17 0 16 -18 25 -28
15z"/>
<path d="M30694 2419 c-10 -17 13 -36 27 -22 12 12 4 33 -11 33 -5 0 -12 -5
-16 -11z"/>
<path d="M30505 2391 c-8 -15 3 -31 21 -31 9 0 14 7 12 17 -4 20 -24 28 -33
14z"/>
<path d="M31440 2340 c0 -5 7 -10 15 -10 8 0 15 5 15 10 0 6 -7 10 -15 10 -8
0 -15 -4 -15 -10z"/>
<path d="M1844 2329 c-10 -17 13 -36 27 -22 12 12 4 33 -11 33 -5 0 -12 -5
-16 -11z"/>
<path d="M30685 2321 c-6 -11 9 -23 19 -14 9 9 7 23 -3 23 -6 0 -12 -4 -16 -9z"/>
<path d="M32340 2280 c0 -5 5 -10 10 -10 6 0 10 5 10 10 0 6 -4 10 -10 10 -5
0 -10 -4 -10 -10z"/>
<path d="M1615 2240 c-4 -6 -3 -16 3 -22 6 -6 12 -6 17 2 4 6 3 16 -3 22 -6 6
-12 6 -17 -2z"/>
<path d="M3427 2244 c-14 -14 -7 -35 11 -32 9 2 17 10 17 17 0 16 -18 25 -28
15z"/>
<path d="M20390 2230 c0 -5 4 -10 9 -10 6 0 13 5 16 10 3 6 -1 10 -9 10 -9 0
-16 -4 -16 -10z"/>
<path d="M30245 2169 c-10 -15 3 -25 16 -12 7 7 7 13 1 17 -6 3 -14 1 -17 -5z"/>
<path d="M30767 2154 c-14 -14 -7 -35 11 -32 9 2 17 10 17 17 0 16 -18 25 -28
15z"/>
<path d="M28290 2090 c0 -11 7 -20 15 -20 8 0 15 9 15 20 0 11 -7 20 -15 20
-8 0 -15 -9 -15 -20z"/>
<path d="M29300 2030 c0 -5 5 -10 10 -10 6 0 10 5 10 10 0 6 -4 10 -10 10 -5
0 -10 -4 -10 -10z"/>
<path d="M32337 2034 c-8 -8 1 -24 14 -24 5 0 9 7 9 15 0 15 -12 20 -23 9z"/>
<path d="M24342 1999 c2 -6 8 -10 13 -10 5 0 11 4 13 10 2 6 -4 11 -13 11 -9
0 -15 -5 -13 -11z"/>
<path d="M31994 1999 c-9 -15 12 -33 30 -26 9 4 16 13 16 22 0 17 -35 21 -46
4z"/>
<path d="M31690 1960 c0 -25 4 -31 18 -28 11 2 17 12 17 28 0 16 -6 26 -17 28
-14 3 -18 -3 -18 -28z"/>
<path d="M32117 1974 c-8 -8 1 -24 14 -24 5 0 9 7 9 15 0 15 -12 20 -23 9z"/>
<path d="M26017 1904 c-9 -10 2 -24 19 -24 8 0 14 7 14 15 0 15 -21 21 -33 9z"/>
<path d="M1020 1875 c0 -8 5 -15 10 -15 6 0 10 7 10 15 0 8 -4 15 -10 15 -5 0
-10 -7 -10 -15z"/>
<path d="M30262 1879 c2 -6 8 -10 13 -10 5 0 11 4 13 10 2 6 -4 11 -13 11 -9
0 -15 -5 -13 -11z"/>
<path d="M31480 1830 c0 -5 5 -10 10 -10 6 0 10 5 10 10 0 6 -4 10 -10 10 -5
0 -10 -4 -10 -10z"/>
<path d="M31105 1790 c-10 -17 12 -37 25 -24 8 8 6 15 -4 23 -10 9 -16 9 -21
1z"/>
<path d="M29132 1778 c6 -18 28 -21 28 -4 0 9 -7 16 -16 16 -9 0 -14 -5 -12
-12z"/>
<path d="M31560 1760 c0 -5 5 -10 10 -10 6 0 10 5 10 10 0 6 -4 10 -10 10 -5
0 -10 -4 -10 -10z"/>
<path d="M29630 1750 c0 -5 5 -10 10 -10 6 0 10 5 10 10 0 6 -4 10 -10 10 -5
0 -10 -4 -10 -10z"/>
<path d="M28851 1741 c-17 -11 -7 -41 13 -41 22 0 30 20 15 36 -9 8 -19 10
-28 5z"/>
<path d="M29240 1730 c0 -5 7 -10 15 -10 8 0 15 5 15 10 0 6 -7 10 -15 10 -8
0 -15 -4 -15 -10z"/>
<path d="M29540 1710 c0 -5 5 -10 10 -10 6 0 10 5 10 10 0 6 -4 10 -10 10 -5
0 -10 -4 -10 -10z"/>
<path d="M32454 1679 c-9 -15 11 -33 30 -26 9 4 13 13 10 22 -7 17 -30 20 -40
4z"/>
<path d="M32550 1629 c0 -5 5 -7 10 -4 6 3 10 8 10 11 0 2 -4 4 -10 4 -5 0
-10 -5 -10 -11z"/>
<path d="M29895 1619 c-10 -15 3 -25 16 -12 7 7 7 13 1 17 -6 3 -14 1 -17 -5z"/>
<path d="M27000 1590 c0 -5 7 -10 15 -10 8 0 15 5 15 10 0 6 -7 10 -15 10 -8
0 -15 -4 -15 -10z"/>
<path d="M31050 1580 c0 -5 5 -10 10 -10 6 0 10 5 10 10 0 6 -4 10 -10 10 -5
0 -10 -4 -10 -10z"/>
<path d="M30460 1560 c0 -5 5 -10 10 -10 6 0 10 5 10 10 0 6 -4 10 -10 10 -5
0 -10 -4 -10 -10z"/>
<path d="M30715 1530 c-10 -16 16 -43 28 -31 11 11 2 41 -12 41 -5 0 -13 -5
-16 -10z"/>
<path d="M30897 1514 c-11 -11 13 -34 35 -34 13 0 18 6 16 18 -3 17 -38 29
-51 16z"/>
<path d="M1174 1449 c-10 -17 13 -36 27 -22 12 12 4 33 -11 33 -5 0 -12 -5
-16 -11z"/>
<path d="M25455 1440 c-4 -6 -3 -16 3 -22 6 -6 12 -6 17 2 4 6 3 16 -3 22 -6
6 -12 6 -17 -2z"/>
<path d="M585 1430 c4 -6 11 -8 16 -5 14 9 11 15 -7 15 -8 0 -12 -5 -9 -10z"/>
<path d="M26976 1433 c-11 -11 -6 -23 9 -23 8 0 15 4 15 9 0 13 -16 22 -24 14z"/>
<path d="M29580 1425 c0 -8 7 -15 15 -15 8 0 15 7 15 15 0 8 -7 15 -15 15 -8
0 -15 -7 -15 -15z"/>
<path d="M31211 1410 c-14 -8 -8 -40 7 -40 5 0 15 6 21 14 15 17 -8 39 -28 26z"/>
<path d="M32260 1370 c0 -5 7 -10 15 -10 8 0 15 5 15 10 0 6 -7 10 -15 10 -8
0 -15 -4 -15 -10z"/>
<path d="M29230 1355 c0 -8 5 -15 10 -15 6 0 10 7 10 15 0 8 -4 15 -10 15 -5
0 -10 -7 -10 -15z"/>
<path d="M260 1255 c0 -8 7 -15 15 -15 8 0 15 7 15 15 0 8 -7 15 -15 15 -8 0
-15 -7 -15 -15z"/>
<path d="M27160 1244 c0 -17 22 -14 28 4 2 7 -3 12 -12 12 -9 0 -16 -7 -16
-16z"/>
<path d="M32532 1249 c2 -6 8 -10 13 -10 5 0 11 4 13 10 2 6 -4 11 -13 11 -9
0 -15 -5 -13 -11z"/>
<path d="M31750 1240 c0 -5 5 -10 10 -10 6 0 10 5 10 10 0 6 -4 10 -10 10 -5
0 -10 -4 -10 -10z"/>
<path d="M29830 1230 c0 -5 5 -10 10 -10 6 0 10 5 10 10 0 6 -4 10 -10 10 -5
0 -10 -4 -10 -10z"/>
<path d="M26685 1220 c-3 -6 1 -13 10 -16 19 -8 30 0 20 15 -8 14 -22 14 -30
1z"/>
<path d="M32605 1191 c-3 -5 -1 -12 5 -16 5 -3 10 1 10 9 0 18 -6 21 -15 7z"/>
<path d="M18806 1183 c-13 -14 -5 -33 14 -33 11 0 20 6 20 14 0 15 -24 28 -34
19z"/>
<path d="M31740 1175 c0 -8 5 -15 10 -15 6 0 10 7 10 15 0 8 -4 15 -10 15 -5
0 -10 -7 -10 -15z"/>
<path d="M29340 1165 c-11 -13 -11 -19 3 -33 20 -19 41 -5 35 24 -4 24 -22 28
-38 9z"/>
<path d="M32025 1160 c-9 -15 4 -30 26 -30 12 0 19 7 19 20 0 21 -33 29 -45
10z"/>
<path d="M25520 1149 c0 -5 5 -7 10 -4 6 3 10 8 10 11 0 2 -4 4 -10 4 -5 0
-10 -5 -10 -11z"/>
<path d="M24500 1100 c0 -5 5 -10 10 -10 6 0 10 5 10 10 0 6 -4 10 -10 10 -5
0 -10 -4 -10 -10z"/>
<path d="M26106 1103 c-12 -12 -6 -33 9 -33 8 0 15 6 15 14 0 17 -14 28 -24
19z"/>
<path d="M30457 1064 c-14 -15 -6 -34 14 -34 14 0 19 5 17 17 -3 18 -20 27
-31 17z"/>
<path d="M27024 1026 c-7 -19 13 -56 31 -56 21 0 26 15 15 44 -10 28 -37 35
-46 12z"/>
<path d="M30244 1029 c-8 -14 11 -33 25 -25 16 10 13 36 -3 36 -8 0 -18 -5
-22 -11z"/>
<path d="M31945 1021 c-3 -5 -1 -12 5 -16 5 -3 10 1 10 9 0 18 -6 21 -15 7z"/>
<path d="M32125 960 c-7 -12 2 -30 16 -30 5 0 9 9 9 20 0 21 -15 27 -25 10z"/>
<path d="M32364 955 c-7 -18 13 -45 33 -45 19 0 28 27 13 45 -16 19 -39 19
-46 0z"/>
<path d="M29260 940 c0 -15 5 -20 18 -18 9 2 17 10 17 18 0 8 -8 16 -17 18
-13 2 -18 -3 -18 -18z"/>
<path d="M30390 940 c0 -5 5 -10 11 -10 5 0 7 5 4 10 -3 6 -8 10 -11 10 -2 0
-4 -4 -4 -10z"/>
<path d="M25125 931 c-8 -15 3 -31 21 -31 9 0 14 7 12 17 -4 20 -24 28 -33 14z"/>
<path d="M27913 898 c2 -7 10 -13 17 -13 7 0 15 6 18 13 2 7 -5 12 -18 12 -13
0 -20 -5 -17 -12z"/>
<path d="M31850 890 c0 -5 7 -10 16 -10 8 0 12 5 9 10 -3 6 -10 10 -16 10 -5
0 -9 -4 -9 -10z"/>
<path d="M31185 881 c-7 -12 12 -24 25 -16 11 7 4 25 -10 25 -5 0 -11 -4 -15
-9z"/>
<path d="M29933 868 c2 -7 10 -13 17 -13 7 0 15 6 18 13 2 7 -5 12 -18 12 -13
0 -20 -5 -17 -12z"/>
<path d="M30270 870 c0 -5 5 -10 10 -10 6 0 10 5 10 10 0 6 -4 10 -10 10 -5 0
-10 -4 -10 -10z"/>
<path d="M32206 863 c-11 -11 -6 -23 9 -23 8 0 15 4 15 9 0 13 -16 22 -24 14z"/>
<path d="M25850 831 c0 -12 6 -21 16 -21 9 0 14 7 12 17 -5 25 -28 28 -28 4z"/>
<path d="M28355 820 c-8 -13 4 -32 16 -25 12 8 12 35 0 35 -6 0 -13 -4 -16
-10z"/>
<path d="M29040 815 c0 -8 7 -15 15 -15 8 0 15 7 15 15 0 8 -7 15 -15 15 -8 0
-15 -7 -15 -15z"/>
<path d="M30723 803 c-27 -18 -30 -33 -5 -33 18 0 47 36 34 43 -4 3 -17 -2
-29 -10z"/>
<path d="M25815 801 c-3 -5 -1 -12 5 -16 5 -3 10 1 10 9 0 18 -6 21 -15 7z"/>
<path d="M31385 801 c-6 -11 9 -23 19 -14 9 9 7 23 -3 23 -6 0 -12 -4 -16 -9z"/>
<path d="M31642 798 c5 -15 28 -18 29 -3 0 6 -7 12 -17 13 -10 3 -15 -1 -12
-10z"/>
<path d="M26860 740 c0 -5 5 -10 10 -10 6 0 10 5 10 10 0 6 -4 10 -10 10 -5 0
-10 -4 -10 -10z"/>
<path d="M28325 731 c-3 -5 -1 -12 5 -16 5 -3 10 1 10 9 0 18 -6 21 -15 7z"/>
<path d="M32203 704 c-7 -19 11 -39 26 -30 16 10 13 33 -4 40 -9 3 -18 -1 -22
-10z"/>
<path d="M30830 665 c0 -8 5 -15 10 -15 6 0 10 7 10 15 0 8 -4 15 -10 15 -5 0
-10 -7 -10 -15z"/>
<path d="M31205 670 c-3 -5 1 -10 10 -10 9 0 13 5 10 10 -3 6 -8 10 -10 10 -2
0 -7 -4 -10 -10z"/>
<path d="M150 625 c0 -8 9 -15 20 -15 11 0 20 7 20 15 0 8 -9 15 -20 15 -11 0
-20 -7 -20 -15z"/>
<path d="M30334 629 c-10 -17 13 -36 27 -22 12 12 4 33 -11 33 -5 0 -12 -5
-16 -11z"/>
<path d="M32520 615 c0 -8 5 -15 10 -15 6 0 10 7 10 15 0 8 -4 15 -10 15 -5 0
-10 -7 -10 -15z"/>
<path d="M29710 610 c0 -5 4 -10 9 -10 6 0 13 5 16 10 3 6 -1 10 -9 10 -9 0
-16 -4 -16 -10z"/>
<path d="M31702 609 c2 -6 8 -10 13 -10 5 0 11 4 13 10 2 6 -4 11 -13 11 -9 0
-15 -5 -13 -11z"/>
<path d="M29896 585 c-3 -9 1 -18 10 -22 19 -7 39 11 30 26 -10 16 -33 13 -40
-4z"/>
<path d="M32300 534 c-9 -10 -10 -18 -2 -26 12 -12 32 -2 32 17 0 21 -16 26
-30 9z"/>
<path d="M32483 538 c2 -7 10 -13 17 -13 7 0 15 6 18 13 2 7 -5 12 -18 12 -13
0 -20 -5 -17 -12z"/>
<path d="M31167 534 c-14 -14 -7 -35 11 -32 9 2 17 10 17 17 0 16 -18 25 -28
15z"/>
<path d="M31957 514 c-12 -13 -7 -51 8 -64 24 -20 40 1 28 36 -10 29 -24 40
-36 28z"/>
<path d="M28501 466 c-9 -10 -9 -16 -1 -21 17 -10 37 12 24 25 -8 8 -15 6 -23
-4z"/>
<path d="M1960 460 c0 -5 5 -10 10 -10 6 0 10 5 10 10 0 6 -4 10 -10 10 -5 0
-10 -4 -10 -10z"/>
<path d="M30980 450 c0 -5 7 -10 15 -10 8 0 15 5 15 10 0 6 -7 10 -15 10 -8 0
-15 -4 -15 -10z"/>
<path d="M32195 450 c-3 -5 -1 -10 4 -10 6 0 11 5 11 10 0 6 -2 10 -4 10 -3 0
-8 -4 -11 -10z"/>
<path d="M30626 421 c-4 -5 -2 -12 3 -15 5 -4 12 -2 15 3 4 5 2 12 -3 15 -5 4
-12 2 -15 -3z"/>
<path d="M27562 393 c4 -22 43 -25 43 -3 0 8 -11 16 -23 18 -19 3 -23 0 -20
-15z"/>
<path d="M28171 401 c-8 -5 -10 -14 -7 -20 8 -13 46 -15 46 -2 0 16 -25 30
-39 22z"/>
<path d="M29547 393 c-4 -3 -7 -11 -7 -17 0 -6 5 -5 12 2 6 6 9 14 7 17 -3 3
-9 2 -12 -2z"/>
<path d="M32240 390 c0 -5 5 -10 10 -10 6 0 10 5 10 10 0 6 -4 10 -10 10 -5 0
-10 -4 -10 -10z"/>
<path d="M31194 379 c-8 -14 11 -33 25 -25 6 4 11 14 11 22 0 16 -26 19 -36 3z"/>
<path d="M32540 365 c0 -9 5 -15 11 -13 6 2 11 8 11 13 0 5 -5 11 -11 13 -6 2
-11 -4 -11 -13z"/>
<path d="M1420 360 c0 -5 5 -10 10 -10 6 0 10 5 10 10 0 6 -4 10 -10 10 -5 0
-10 -4 -10 -10z"/>
<path d="M24887 344 c-9 -10 2 -24 19 -24 8 0 14 7 14 15 0 15 -21 21 -33 9z"/>
<path d="M31274 339 c-10 -17 13 -36 27 -22 12 12 4 33 -11 33 -5 0 -12 -5
-16 -11z"/>
<path d="M29280 320 c0 -5 7 -10 15 -10 8 0 15 5 15 10 0 6 -7 10 -15 10 -8 0
-15 -4 -15 -10z"/>
<path d="M30920 305 c0 -9 5 -15 11 -13 6 2 11 8 11 13 0 5 -5 11 -11 13 -6 2
-11 -4 -11 -13z"/>
<path d="M32434 299 c-3 -6 -2 -15 2 -19 12 -12 38 5 30 19 -9 14 -23 14 -32
0z"/>
<path d="M27955 280 c-4 -6 -3 -16 3 -22 6 -6 12 -6 17 2 4 6 3 16 -3 22 -6 6
-12 6 -17 -2z"/>
<path d="M29320 275 c-11 -13 -11 -19 3 -33 20 -19 41 -5 35 24 -4 24 -22 28
-38 9z"/>
<path d="M29823 264 c-8 -21 13 -42 28 -27 13 13 5 43 -11 43 -6 0 -13 -7 -17
-16z"/>
<path d="M110 250 c0 -5 5 -10 10 -10 6 0 10 5 10 10 0 6 -4 10 -10 10 -5 0
-10 -4 -10 -10z"/>
<path d="M28000 235 c-10 -12 -9 -16 5 -21 19 -8 40 9 31 25 -10 15 -21 14
-36 -4z"/>
<path d="M5830 220 c0 -5 5 -10 10 -10 6 0 10 5 10 10 0 6 -4 10 -10 10 -5 0
-10 -4 -10 -10z"/>
<path d="M32167 213 c-13 -12 -7 -41 8 -47 18 -6 30 16 21 39 -6 16 -18 19
-29 8z"/>
<path d="M471 166 c-12 -14 -5 -26 16 -26 15 0 18 26 4 34 -5 3 -14 0 -20 -8z"/>
<path d="M740 115 c0 -9 5 -15 11 -13 6 2 11 8 11 13 0 5 -5 11 -11 13 -6 2
-11 -4 -11 -13z"/>
<path d="M31460 116 c0 -9 7 -16 16 -16 17 0 14 22 -4 28 -7 2 -12 -3 -12 -12z"/>
<path d="M25532 109 c2 -6 8 -10 13 -10 5 0 11 4 13 10 2 6 -4 11 -13 11 -9 0
-15 -5 -13 -11z"/>
<path d="M30826 101 c-7 -11 18 -33 27 -24 4 3 7 12 7 20 0 15 -26 18 -34 4z"/>
<path d="M27010 60 c0 -5 7 -10 16 -10 8 0 12 5 9 10 -3 6 -10 10 -16 10 -5 0
-9 -4 -9 -10z"/>
<path d="M30104 59 c-10 -17 13 -36 27 -22 12 12 4 33 -11 33 -5 0 -12 -5 -16
-11z"/>
<path d="M31994 45 c-4 -9 -2 -21 4 -27 15 -15 44 -1 40 19 -4 23 -36 29 -44
8z"/>
<path d="M2982 18 c3 -7 12 -14 21 -16 12 -2 15 1 11 12 -7 19 -38 22 -32 4z"/>
<path d="M29726 15 c4 -8 15 -15 25 -15 23 0 25 16 3 24 -25 10 -34 7 -28 -9z"/>
<path d="M2748 3 c7 -3 16 -2 19 1 4 3 -2 6 -13 5 -11 0 -14 -3 -6 -6z"/>
</g>
</svg>
