<?xml version="1.0" standalone="no"?>
<!DOCTYPE svg PUBLIC "-//W3C//DTD SVG 20010904//EN"
 "http://www.w3.org/TR/2001/REC-SVG-20010904/DTD/svg10.dtd">
<svg version="1.0" xmlns="http://www.w3.org/2000/svg"
 width="3264.000000pt" height="2448.000000pt" viewBox="0 0 3264.000000 2448.000000"
 preserveAspectRatio="xMidYMid meet">
<metadata>
Created by potrace 1.12, written by Peter Selinger 2001-2015
</metadata>
<g transform="translate(0.000000,2448.000000) scale(0.100000,-0.100000)"
fill="#000000" stroke="none">
<path d="M15010 23558 c-11 -26 -43 -152 -64 -255 -9 -39 -29 -187 -46 -329
-17 -143 -46 -380 -65 -529 -47 -374 -53 -424 -65 -555 -26 -294 -41 -562 -55
-1005 -8 -264 -20 -577 -26 -695 -6 -118 -12 -264 -15 -324 -2 -60 -5 -110 -6
-111 -2 -2 -394 -7 -873 -12 -712 -7 -873 -6 -886 4 -12 10 -38 12 -100 7 -46
-3 -185 -1 -309 5 -492 23 -1019 40 -1810 56 -135 3 -328 8 -430 10 -102 3
-359 7 -571 9 -213 2 -392 7 -398 11 -7 4 -9 20 -6 38 3 18 10 298 15 622 6
347 16 664 25 770 40 473 60 640 95 772 18 71 19 86 8 110 -22 46 -88 44 -106
-4 -23 -60 -63 -410 -102 -908 -6 -71 -13 -416 -17 -765 -3 -349 -9 -639 -13
-644 -5 -4 -61 -3 -127 3 -108 10 -459 9 -1103 -3 -509 -10 -3028 -26 -3226
-20 -227 6 -232 6 -253 -15 -28 -28 -27 -52 4 -81 l24 -23 498 6 c274 4 932
11 1463 16 531 6 1089 15 1240 20 151 6 549 13 884 17 l609 7 -8 -84 c-8 -97
-10 -144 -20 -479 -4 -135 -8 -247 -10 -250 -2 -4 -7 -114 -10 -246 -4 -131
-9 -242 -11 -245 -4 -7 -10 -382 -19 -1084 -3 -242 -8 -510 -11 -595 -8 -244
-49 -891 -59 -960 -4 -20 -13 -105 -21 -190 -8 -85 -20 -193 -25 -240 -5 -47
-11 -110 -14 -140 -3 -30 -9 -95 -15 -145 -9 -86 -14 -135 -40 -415 -6 -69
-15 -188 -20 -265 -5 -77 -16 -248 -24 -380 -9 -132 -16 -256 -17 -275 -2 -49
-18 -229 -30 -325 -5 -44 -16 -138 -25 -210 -8 -71 -17 -138 -20 -147 -3 -10
-13 -70 -24 -135 -10 -65 -32 -185 -49 -268 -17 -82 -43 -208 -57 -280 -14
-71 -30 -150 -35 -175 -12 -62 -46 -280 -58 -376 -10 -79 -55 -400 -67 -482
-7 -47 13 -82 47 -82 38 0 52 29 45 94 -7 76 36 427 89 726 14 75 35 199 65
370 5 30 16 80 24 110 8 30 19 87 26 125 6 39 16 90 21 115 5 25 20 119 34
210 14 91 30 194 36 230 6 36 13 85 15 109 3 24 16 143 29 264 13 121 22 223
20 227 -2 4 0 47 5 96 5 49 14 168 20 264 6 96 16 231 22 300 6 69 10 132 10
140 -1 8 3 51 9 95 5 44 14 127 19 185 6 58 14 143 19 190 66 589 92 875 106
1160 2 41 7 111 10 155 13 185 25 577 30 965 7 616 14 868 36 1360 10 245 22
563 26 708 3 144 9 264 12 266 6 4 665 -7 1111 -18 129 -4 415 -11 635 -16
765 -19 1424 -47 1441 -61 25 -21 673 -25 1274 -9 190 5 461 10 602 10 151 0
268 4 284 10 15 6 28 9 29 8 1 -2 -3 -57 -10 -123 -8 -66 -18 -217 -24 -335
-7 -118 -16 -296 -21 -395 -5 -99 -12 -281 -15 -405 -20 -838 -32 -1134 -60
-1565 -25 -377 -44 -609 -70 -860 -8 -77 -17 -174 -20 -215 -3 -41 -10 -111
-15 -155 -6 -44 -21 -204 -35 -355 -14 -151 -32 -329 -40 -395 -28 -216 -56
-409 -71 -485 -8 -41 -26 -136 -40 -210 -13 -74 -34 -171 -44 -215 -11 -44
-27 -114 -36 -155 -44 -215 -61 -287 -98 -425 -26 -96 -57 -241 -71 -335 -34
-220 -102 -504 -141 -579 -24 -48 -10 -85 33 -89 24 -2 35 2 46 20 38 59 125
481 187 908 7 47 16 94 20 105 6 17 8 15 14 -13 10 -45 63 -97 111 -111 72
-20 140 -12 342 39 323 82 428 99 728 122 210 15 891 14 1110 -1 449 -33 779
-79 1260 -177 204 -41 434 -85 512 -97 136 -20 144 -21 160 -4 17 16 16 22 -5
105 -13 48 -27 141 -33 207 -11 140 -4 336 36 995 8 129 19 316 25 415 26 445
47 699 75 910 8 61 26 196 40 300 14 105 30 217 35 250 28 175 80 582 104 820
54 521 98 838 152 1090 32 150 91 395 109 455 7 25 25 86 40 135 44 150 146
428 179 493 15 29 17 30 118 37 57 4 111 11 121 16 22 12 22 43 0 64 -17 17
-45 17 -155 -1 -30 -5 -38 -3 -38 9 0 23 -28 47 -56 47 -19 0 -28 -8 -39 -34
-12 -27 -22 -35 -52 -41 -70 -13 -876 -23 -1138 -14 -376 13 -780 37 -1010 60
-208 20 -758 87 -937 114 -110 17 -370 63 -374 68 -1 1 187 2 419 2 232 0
1032 1 1777 3 912 2 1450 -1 1645 -8 160 -7 296 -14 304 -16 11 -4 12 -17 7
-62 -11 -95 -24 -236 -41 -452 -19 -248 -50 -601 -70 -805 -8 -82 -24 -242
-35 -355 -11 -113 -27 -274 -35 -358 -16 -162 -118 -1071 -135 -1207 -18 -136
-80 -580 -110 -790 -44 -303 -90 -711 -115 -1020 -21 -257 -52 -583 -70 -735
-25 -212 -53 -567 -60 -745 -4 -108 -12 -189 -22 -222 -17 -58 -9 -83 28 -83
46 0 79 103 79 248 0 161 16 363 75 952 13 135 31 337 40 450 14 178 36 414
65 680 9 85 42 334 65 490 8 58 20 139 26 180 5 41 14 104 19 140 21 139 41
294 65 505 45 395 56 488 70 635 8 80 23 224 34 320 12 96 34 312 51 480 16
168 34 350 40 405 6 55 14 154 20 220 20 268 60 736 70 828 5 54 10 132 10
175 0 42 3 88 7 101 6 23 8 23 82 18 42 -4 355 -11 696 -17 1140 -18 1255 -25
2025 -119 91 -11 191 -23 223 -26 41 -5 57 -11 57 -21 0 -9 -4 -79 -10 -157
-5 -78 -14 -311 -20 -517 -41 -1486 -69 -2068 -125 -2660 -14 -140 -29 -307
-35 -370 -5 -63 -16 -185 -24 -270 -22 -238 -58 -735 -71 -990 -11 -228 -27
-410 -61 -719 -19 -173 -39 -378 -44 -457 -5 -78 -15 -155 -21 -170 -11 -31
-4 -111 13 -131 16 -20 55 -15 72 9 12 16 16 47 16 108 0 150 31 504 80 920 5
47 12 139 15 205 15 309 48 831 66 1035 43 492 80 900 84 925 8 53 34 421 50
705 14 266 22 460 46 1210 6 195 19 573 28 840 l16 485 254 -3 c172 -2 321 2
455 13 111 9 269 20 351 25 202 12 2068 1 2081 -13 2 -1 -1 -32 -6 -67 -10
-73 -33 -411 -90 -1350 -5 -91 -17 -275 -25 -410 -19 -295 -52 -879 -65 -1155
-28 -565 -97 -1443 -125 -1585 -8 -41 -37 -205 -65 -365 -27 -159 -63 -364
-80 -455 -16 -91 -39 -221 -50 -290 -22 -131 -44 -236 -86 -410 -35 -147 -99
-449 -129 -615 -14 -77 -35 -175 -46 -218 -32 -128 -78 -354 -95 -468 -17
-114 -11 -149 24 -149 37 0 48 23 61 125 6 55 20 145 31 200 11 55 26 139 32
187 12 87 23 104 47 74 6 -7 38 -19 72 -25 55 -11 68 -10 147 13 171 49 369
87 577 110 445 51 1363 39 1830 -25 128 -17 403 -59 490 -74 272 -47 487 -70
516 -55 38 21 36 45 -17 275 -24 100 -51 320 -63 515 -11 157 -5 740 9 950 17
252 37 476 70 750 5 41 16 140 24 220 9 80 21 179 26 220 5 41 19 156 30 255
31 285 50 445 61 510 5 33 14 94 19 135 4 41 17 134 28 205 11 72 23 157 27
190 3 33 19 137 35 230 16 94 32 195 35 225 7 57 42 267 76 450 11 58 23 128
28 155 11 68 64 351 105 565 42 215 69 368 96 525 28 165 25 158 68 150 37 -7
64 -16 153 -50 59 -23 81 -16 77 27 -4 41 -47 63 -158 83 -46 8 -87 18 -92 23
-4 4 1 41 12 82 10 41 22 101 25 133 7 59 27 92 52 83 7 -3 98 -10 201 -16
103 -6 259 -15 347 -20 263 -17 401 -15 431 4 18 13 24 24 22 43 l-3 26 -170
3 c-142 3 -303 10 -805 37 l-45 2 3 61 c3 47 0 65 -13 77 -9 10 -20 17 -24 17
-20 0 -36 -37 -41 -89 -6 -65 18 -60 -210 -42 -368 29 -737 37 -1922 44 -291
2 -298 2 -312 23 -21 30 -69 37 -114 18 -44 -19 -154 -21 -205 -5 -29 10 -41
9 -65 -3 -26 -13 -70 -14 -358 -5 -181 6 -329 11 -330 12 -1 1 2 29 7 62 10
70 31 281 109 1080 47 490 85 809 135 1155 14 91 31 228 38 305 8 78 19 151
26 162 39 74 -39 140 -83 70 -9 -13 -18 -79 -25 -167 -6 -80 -22 -221 -36
-315 -36 -237 -81 -611 -105 -865 -11 -118 -27 -285 -35 -370 -70 -723 -95
-1003 -95 -1046 0 -27 -4 -55 -8 -61 -6 -10 -53 -11 -218 -2 -115 5 -508 12
-874 16 -682 6 -963 -1 -1380 -33 -210 -17 -355 -14 -446 7 -42 10 -55 9 -82
-5 -18 -9 -55 -16 -88 -16 l-57 0 7 123 c3 67 11 241 16 387 30 776 62 1010
239 1740 56 231 72 322 101 565 11 94 27 230 36 303 16 131 16 134 -3 154 -23
22 -68 17 -82 -11 -5 -9 -11 -72 -15 -141 -7 -121 -25 -305 -47 -460 -16 -117
-37 -219 -89 -435 -161 -666 -197 -947 -220 -1720 -6 -203 -13 -399 -16 -434
l-6 -64 -46 6 c-930 121 -1070 130 -2217 147 -368 6 -703 13 -742 16 -67 6
-72 8 -68 28 5 25 20 171 41 396 61 673 127 1137 230 1610 14 63 36 165 49
225 43 198 75 412 77 517 3 127 -3 148 -42 148 -16 0 -32 -6 -37 -12 -4 -7 -9
-71 -9 -143 -2 -147 -19 -255 -113 -705 -95 -456 -113 -558 -165 -985 -36
-289 -81 -758 -92 -955 -3 -58 -8 -108 -12 -111 -4 -4 -61 -3 -127 2 -320 21
-781 27 -1855 23 -1388 -5 -3001 -6 -3007 -1 -2 2 1 46 7 98 14 138 28 410 45
889 28 812 56 1162 141 1770 8 58 30 226 49 375 41 307 54 371 97 481 37 92
41 153 14 183 -26 29 -74 28 -86 -1z m400 -3913 c12 -24 15 -70 14 -225 0
-196 -11 -301 -55 -545 -10 -60 -37 -213 -59 -340 -21 -126 -48 -282 -60 -345
-12 -63 -36 -198 -55 -300 -57 -312 -174 -859 -236 -1099 -90 -350 -112 -433
-134 -506 -13 -44 -30 -105 -38 -135 -8 -30 -49 -174 -91 -318 -42 -145 -107
-393 -146 -550 -134 -550 -160 -647 -155 -597 2 28 24 210 49 405 24 195 52
432 61 525 9 94 23 238 30 320 79 813 102 1198 130 2175 17 582 31 928 46
1140 5 80 12 207 16 282 l6 138 316 3 c174 1 323 2 331 2 8 0 22 -14 30 -30z
m204 -45 c170 -47 699 -125 1217 -180 518 -54 1559 -91 1960 -70 118 6 224 14
237 17 12 3 22 2 22 -1 0 -4 -20 -50 -44 -104 -117 -260 -285 -900 -340 -1302
-9 -63 -21 -142 -26 -175 -6 -33 -21 -168 -35 -300 -14 -132 -30 -280 -36
-330 -5 -49 -17 -148 -25 -220 -8 -71 -48 -368 -89 -660 -106 -752 -100 -699
-145 -1415 -11 -173 -24 -385 -30 -470 -5 -85 -15 -231 -21 -325 -18 -268 -16
-645 3 -730 9 -38 13 -74 9 -78 -5 -5 -30 -4 -57 1 -27 5 -220 44 -428 86
-436 89 -543 106 -866 140 -437 47 -649 59 -1095 60 -623 1 -851 -22 -1280
-131 -136 -34 -228 -44 -271 -30 -68 23 -57 155 54 617 22 91 43 181 47 200
22 109 131 573 174 740 133 519 252 966 271 1016 9 22 52 175 100 349 57 207
96 355 125 475 19 80 40 163 45 185 56 232 159 711 194 910 9 50 28 153 42
230 14 77 29 163 34 190 5 28 23 124 40 215 124 675 152 901 127 1058 -10 61
-13 60 87 32z m11001 -120 c187 -6 453 -17 590 -25 138 -8 313 -12 390 -9 239
9 1509 -13 1750 -31 302 -21 325 -24 325 -39 0 -7 -9 -48 -20 -91 -11 -43 -20
-91 -20 -107 0 -24 -12 -60 -25 -76 -1 -1 -36 4 -76 12 -97 20 -573 103 -669
117 -41 6 -102 15 -135 19 -171 25 -693 81 -874 95 -113 9 -280 22 -371 31
-91 8 -221 19 -290 25 -69 5 -253 21 -410 34 -157 13 -321 27 -365 30 -44 3
-90 8 -102 11 -13 4 -28 -1 -40 -13 -17 -17 -18 -28 -12 -84 4 -35 14 -93 21
-129 9 -47 13 -164 12 -425 0 -441 -12 -579 -104 -1185 -28 -187 -64 -469 -95
-750 -13 -116 -76 -633 -86 -695 -47 -318 -81 -519 -91 -535 -6 -10 -7 2 -4
35 11 94 26 290 41 525 25 385 34 508 45 650 5 74 14 207 20 295 5 88 19 297
30 465 11 168 27 415 35 550 19 310 42 647 60 911 8 113 15 246 15 296 0 49 3
93 7 96 9 9 55 9 448 -3z m285 -110 c389 -28 567 -44 650 -56 19 -2 116 -13
215 -24 464 -49 658 -71 750 -85 362 -55 523 -80 695 -111 107 -20 237 -41
287 -48 51 -7 96 -15 99 -19 3 -3 -2 -41 -11 -84 -9 -43 -23 -112 -30 -153 -8
-41 -30 -165 -50 -275 -20 -110 -43 -238 -51 -285 -7 -47 -23 -132 -33 -190
-26 -135 -31 -168 -91 -520 -27 -162 -54 -317 -59 -345 -16 -88 -52 -316 -71
-455 -10 -74 -28 -193 -39 -265 -11 -71 -25 -164 -31 -205 -18 -142 -60 -485
-71 -585 -5 -55 -14 -134 -19 -175 -5 -41 -14 -118 -20 -170 -12 -111 -25
-223 -40 -335 -6 -44 -17 -147 -26 -230 -8 -82 -19 -190 -24 -240 -37 -349
-52 -1004 -30 -1319 16 -243 48 -457 79 -539 6 -16 11 -44 11 -64 l0 -36 -62
6 c-68 6 -225 29 -523 77 -401 64 -644 85 -1155 101 -451 14 -855 2 -1125 -32
-106 -13 -468 -84 -539 -105 -27 -7 -62 -14 -78 -14 -26 0 -28 3 -28 41 0 23
5 69 10 103 6 33 24 142 40 241 16 99 47 277 69 395 22 118 45 244 51 280 5
36 24 142 40 235 17 94 55 314 85 490 49 282 88 505 155 875 11 58 35 204 55
325 68 422 86 531 100 615 8 47 34 252 60 455 83 674 115 929 130 1015 34 207
61 402 85 620 33 304 37 902 6 1038 -9 40 -14 78 -10 84 4 7 29 8 68 4 33 -3
248 -19 476 -36z m-12513 -4772 c-3 -7 -5 -2 -5 12 0 14 2 19 5 13 2 -7 2 -19
0 -25z"/>
<path d="M16152 19363 c-18 -16 -22 -39 -34 -208 -23 -333 -13 -767 24 -1000
13 -87 41 -145 69 -145 29 0 31 17 14 100 -18 84 -34 354 -35 562 0 129 18
371 40 536 6 40 10 89 10 107 0 58 -46 83 -88 48z"/>
<path d="M15930 17720 c-72 -15 -169 -68 -191 -103 -24 -40 -25 -95 -3 -104
24 -9 46 8 67 51 12 26 30 43 60 56 83 38 84 25 3 -61 -141 -146 -181 -284
-120 -407 28 -56 63 -90 128 -125 34 -18 57 -22 136 -22 84 0 105 4 176 33
132 53 200 127 245 266 13 39 19 87 19 147 0 83 -1 89 -33 130 -69 92 -179
138 -342 144 -55 2 -120 0 -145 -5z m327 -120 c95 -54 118 -118 89 -245 -20
-86 -68 -167 -117 -200 -105 -69 -245 -83 -332 -32 -116 68 -102 243 32 389
62 68 111 100 166 109 80 13 109 9 162 -21z"/>
<path d="M15890 16495 c-14 -8 -39 -14 -57 -15 -46 0 -169 -44 -209 -75 -61
-47 -91 -118 -60 -144 24 -20 52 -4 75 43 15 33 31 49 64 65 24 11 54 21 66
21 20 0 14 -10 -46 -74 -168 -176 -253 -345 -253 -501 0 -99 27 -149 101 -189
43 -24 69 -31 134 -34 71 -4 92 0 168 26 111 38 186 83 256 152 97 96 151 225
151 360 0 69 -4 85 -36 148 -21 43 -51 85 -76 107 -49 41 -133 85 -163 85 -12
0 -30 9 -40 20 -21 23 -41 25 -75 5z m135 -124 c163 -76 208 -258 112 -449
-83 -168 -369 -291 -513 -222 -43 22 -74 67 -74 110 0 32 28 137 53 195 33 78
127 212 217 308 95 101 108 105 205 58z"/>
<path d="M16037 15292 c-9 -10 -30 -50 -46 -90 -41 -100 -77 -148 -217 -294
-277 -289 -422 -495 -484 -691 -32 -99 -26 -200 15 -258 18 -26 50 -53 80 -68
42 -22 62 -26 135 -25 107 0 183 21 325 89 231 109 430 300 521 500 56 121 38
250 -50 371 -84 115 -176 178 -281 190 -30 4 -55 10 -55 14 0 4 16 28 36 54
50 65 96 162 92 194 -4 34 -46 42 -71 14z m52 -381 c112 -55 215 -209 214
-320 -1 -214 -293 -503 -608 -601 -88 -27 -222 -38 -265 -20 -48 20 -80 65
-80 112 0 126 108 345 258 525 103 122 284 319 305 330 32 17 113 5 176 -26z"/>
<path d="M27440 18801 c-5 -11 -10 -43 -10 -71 0 -28 -9 -111 -21 -183 -76
-484 -77 -498 -55 -532 21 -32 59 -33 80 -3 10 14 16 44 16 83 0 63 29 302 54
452 25 143 31 240 16 258 -18 22 -67 19 -80 -4z"/>
<path d="M27065 17176 c-168 -54 -371 -222 -437 -361 -30 -65 -33 -77 -32
-163 1 -82 5 -100 33 -157 57 -115 159 -175 356 -211 105 -19 267 -18 363 2
164 33 263 109 317 241 23 55 29 89 33 175 4 103 3 109 -26 172 -21 44 -51 85
-94 127 -147 143 -175 163 -254 184 -83 21 -176 18 -259 -9z m308 -121 c93
-46 105 -55 152 -108 60 -69 88 -129 93 -201 5 -62 -11 -153 -35 -199 -23 -45
-83 -107 -125 -128 -89 -46 -261 -67 -399 -49 -214 27 -306 68 -352 155 -31
57 -30 182 2 245 81 158 264 298 417 318 86 11 186 -2 247 -33z"/>
<path d="M26680 15646 c-72 -15 -133 -51 -203 -120 -120 -118 -207 -284 -223
-425 -14 -128 59 -251 183 -307 206 -92 452 -95 708 -8 162 55 220 110 250
236 28 122 15 227 -44 354 -56 119 -199 230 -347 269 -69 18 -244 19 -324 1z
m182 -81 c21 -3 58 -21 83 -40 63 -49 105 -44 105 12 0 21 2 23 23 12 52 -28
139 -105 173 -154 73 -107 97 -291 50 -390 -30 -64 -48 -80 -138 -116 -245
-101 -600 -92 -746 18 -40 30 -72 91 -72 139 0 96 57 233 146 351 77 100 140
145 239 169 49 11 60 11 137 -1z"/>
<path d="M26833 14355 c-56 -24 -125 -75 -204 -152 -42 -40 -84 -73 -92 -73
-9 0 -54 -37 -102 -81 -210 -200 -346 -512 -300 -691 17 -68 34 -97 89 -156
99 -105 298 -157 506 -132 218 27 373 96 512 228 177 169 283 384 263 537 -23
184 -270 464 -459 520 -62 19 -171 19 -213 0z m229 -89 c115 -51 234 -167 309
-301 74 -134 73 -215 -6 -373 -129 -256 -349 -402 -650 -431 -191 -19 -355 20
-438 102 -73 73 -85 203 -33 336 87 219 241 405 404 488 66 34 85 38 161 42
93 3 111 11 111 46 0 37 -23 47 -100 43 -38 -1 -70 0 -70 3 0 3 19 16 42 29
98 55 172 59 270 16z"/>
<path d="M7545 21694 c-12 -12 -15 -26 -11 -48 3 -17 17 -177 32 -356 31 -392
30 -571 -5 -665 -46 -123 -48 -135 -26 -151 36 -27 61 -17 107 42 48 64 98 94
204 124 142 41 375 65 412 42 7 -5 15 -25 19 -44 12 -78 -74 -187 -192 -244
-140 -67 -279 -69 -584 -9 -143 28 -190 34 -208 26 -29 -13 -30 -46 0 -65 35
-23 320 -83 459 -97 157 -16 251 -1 375 61 196 97 307 289 238 410 -37 63 -69
72 -240 66 -175 -5 -278 -27 -386 -81 l-71 -36 9 58 c12 83 10 267 -5 503 -23
372 -29 421 -50 449 -23 32 -54 38 -77 15z"/>
<path d="M17730 21564 c-678 -35 -628 -31 -1160 -99 -63 -8 -189 -24 -280 -36
-91 -12 -210 -27 -265 -35 -55 -8 -204 -27 -330 -43 -321 -41 -363 -52 -384
-98 -29 -64 31 -95 121 -63 51 18 212 44 793 130 794 117 1251 154 1872 148
265 -2 375 0 383 8 6 6 10 29 8 50 l-3 39 -110 6 c-167 10 -374 7 -645 -7z"/>
<path d="M13001 21403 c-19 -16 -23 -39 -41 -238 -24 -261 -57 -559 -70 -624
-5 -25 -19 -124 -31 -219 -25 -187 -23 -205 23 -210 33 -4 66 30 147 153 83
126 163 207 238 243 74 34 194 38 261 8 51 -23 53 -42 12 -89 -40 -46 -118
-79 -301 -128 -181 -49 -191 -53 -187 -82 4 -28 53 -33 158 -17 240 38 389
110 439 214 26 53 26 76 1 126 -26 51 -77 77 -179 92 -178 25 -320 -51 -450
-241 -34 -50 -66 -93 -71 -96 -17 -11 -11 56 20 221 27 148 48 294 86 619 8
72 19 148 24 170 14 59 12 73 -10 95 -25 25 -41 25 -69 3z"/>
<path d="M12086 21331 c-19 -21 -32 -135 -43 -392 l-6 -146 -130 -6 c-151 -7
-180 -19 -175 -69 2 -19 13 -38 28 -49 24 -18 29 -18 107 -3 45 8 102 14 125
12 39 -3 43 -5 42 -28 -17 -296 -17 -317 0 -323 51 -20 68 27 75 208 l6 150
153 8 c205 10 289 39 269 92 -6 15 -17 16 -90 10 -122 -9 -314 -11 -323 -3 -8
8 17 239 43 405 15 95 15 103 -1 127 -20 31 -56 34 -80 7z"/>
<path d="M17546 21284 c-20 -19 -21 -23 -46 -224 -40 -314 -76 -442 -161 -559
-43 -60 -45 -61 -83 -57 -22 3 -48 0 -58 -5 -26 -14 -23 -54 7 -73 14 -9 25
-24 25 -34 0 -42 42 -54 82 -23 22 18 32 19 89 11 85 -13 282 -12 394 0 169
20 276 60 338 129 43 48 56 98 33 133 -41 62 -230 128 -386 135 -93 4 -114 2
-185 -21 -43 -14 -80 -24 -82 -23 -1 2 7 32 18 68 35 113 100 494 90 522 -14
37 -49 47 -75 21z m379 -679 c79 -21 139 -55 143 -81 4 -27 -60 -59 -168 -86
-89 -21 -404 -44 -473 -34 l-48 7 23 41 c40 70 132 137 215 157 64 15 243 12
308 -4z"/>
<path d="M22134 21259 c-22 -22 -58 -25 -764 -64 -282 -16 -518 -43 -558 -64
-41 -22 -36 -82 7 -96 11 -3 50 1 87 10 175 40 387 58 1009 86 332 14 346 16
363 52 16 33 4 60 -38 82 -40 21 -82 19 -106 -6z"/>
<path d="M23760 21261 c-161 -30 -235 -86 -184 -142 22 -24 30 -24 77 1 101
55 201 60 792 47 361 -8 601 -21 688 -38 66 -12 73 -12 91 7 24 23 20 63 -6
74 -39 16 -214 31 -463 40 -376 14 -945 20 -995 11z"/>
<path d="M16780 21192 c-16 -13 -27 -42 -40 -107 -11 -50 -19 -106 -20 -126 0
-20 -3 -51 -6 -68 l-6 -31 -72 0 c-145 -1 -309 -54 -322 -106 -9 -34 4 -55 42
-70 25 -11 37 -9 89 16 53 24 175 50 237 50 18 0 20 -4 14 -37 -3 -21 -13 -96
-21 -168 -8 -71 -17 -149 -20 -172 -6 -51 15 -79 45 -63 24 13 40 96 76 393
l5 47 42 0 c23 0 90 -5 149 -11 59 -6 118 -9 132 -5 30 7 44 43 24 62 -15 15
-144 39 -260 50 -82 7 -81 2 -32 155 33 100 35 116 25 150 -7 21 -20 43 -31
49 -24 13 -24 13 -50 -8z"/>
<path d="M29656 21124 c-38 -37 -6 -104 49 -104 19 0 128 -14 244 -30 115 -17
292 -35 393 -40 161 -9 225 -16 354 -37 25 -4 35 0 48 18 9 13 16 33 16 45 0
45 -24 51 -225 63 -278 17 -376 27 -615 66 -249 40 -244 40 -264 19z"/>
<path d="M24070 21092 c-16 -13 -25 -38 -36 -102 -8 -47 -39 -166 -70 -265
-30 -99 -75 -265 -100 -370 -25 -104 -60 -225 -77 -267 -30 -76 -30 -78 -12
-98 28 -31 59 -25 104 22 l40 42 60 -57 c90 -86 221 -143 398 -173 302 -52
541 62 561 266 11 113 -100 220 -298 286 -84 29 -292 26 -378 -4 -111 -40
-185 -80 -270 -147 -46 -37 -86 -65 -88 -62 -6 6 81 333 120 451 19 56 55 162
80 236 53 153 62 223 32 246 -26 18 -39 18 -66 -4z m555 -802 c210 -54 277
-192 146 -301 -68 -56 -227 -87 -362 -71 -102 13 -253 61 -329 105 -30 18 -67
38 -82 46 -16 8 -28 19 -28 25 0 15 138 107 215 144 55 27 130 54 180 65 54
12 187 6 260 -13z"/>
<path d="M5421 21053 c-18 -12 -47 -17 -115 -17 -85 -1 -96 -4 -178 -43 -188
-90 -318 -292 -318 -495 0 -54 5 -72 33 -118 118 -196 408 -89 564 207 16 29
33 53 38 53 6 0 21 -26 34 -58 100 -240 285 -402 405 -356 25 9 20 53 -6 63
-90 35 -119 52 -168 101 -58 58 -122 166 -170 285 -40 100 -41 128 -7 163 27
28 28 30 14 68 -8 21 -20 58 -26 81 -6 23 -23 51 -38 62 -31 25 -32 25 -62 4z
m-43 -117 c2 -3 9 -44 15 -90 l11 -85 -33 -63 c-97 -185 -222 -301 -340 -315
-96 -11 -128 37 -106 157 24 132 81 249 147 306 42 35 123 75 183 90 46 12
110 12 123 0z"/>
<path d="M29738 20983 c-9 -10 -25 -56 -36 -103 -65 -269 -194 -628 -295 -821
-61 -117 -61 -117 -43 -144 15 -23 23 -26 48 -21 24 5 38 0 67 -23 69 -55 114
-71 194 -71 134 0 312 78 428 187 73 69 92 103 87 153 -4 44 -38 68 -113 80
-167 27 -276 2 -456 -106 -61 -36 -113 -64 -115 -61 -3 3 12 40 34 83 57 114
106 241 183 479 84 255 98 325 75 360 -19 29 -37 32 -58 8z m335 -860 c31 -19
-26 -76 -141 -141 -126 -72 -206 -96 -301 -90 -46 3 -90 12 -111 23 l-34 18
34 28 c39 33 211 119 287 144 76 25 142 34 203 28 30 -3 58 -7 63 -10z"/>
<path d="M10816 20869 c-110 -27 -262 -150 -334 -271 -73 -123 -102 -280 -67
-359 24 -52 84 -89 146 -89 115 0 305 142 444 333 27 37 52 67 55 67 3 0 11
-19 17 -43 37 -137 72 -187 108 -157 20 17 19 59 -4 128 -11 31 -25 93 -31
137 -13 84 -33 119 -61 112 -12 -3 -19 3 -24 22 -9 36 -50 88 -84 105 -38 20
-117 27 -165 15z m106 -109 c24 -7 43 -21 55 -40 9 -17 20 -30 23 -30 3 0 11
-4 19 -9 19 -12 -20 -80 -106 -183 -154 -186 -313 -283 -387 -235 -33 22 -39
58 -20 130 46 180 173 323 323 363 58 16 50 16 93 4z"/>
<path d="M28215 20859 c-268 -6 -468 -17 -730 -39 -198 -17 -399 -30 -447 -29
-92 3 -118 -7 -118 -43 0 -32 33 -78 59 -85 20 -5 282 22 546 57 161 22 544
40 889 42 341 2 371 3 388 20 21 21 24 58 6 76 -13 13 -21 13 -593 1z"/>
<path d="M21270 20803 c-54 -9 -158 -46 -208 -75 -160 -91 -244 -209 -272
-381 -43 -271 197 -374 476 -206 98 60 264 189 361 282 52 49 98 86 102 81 4
-5 14 -36 21 -69 25 -122 71 -218 110 -230 46 -15 69 44 36 91 -30 42 -57 147
-65 255 -10 122 -21 146 -64 135 -15 -3 -35 -23 -51 -50 -30 -52 -147 -161
-294 -276 -185 -143 -302 -200 -409 -200 -66 1 -96 14 -124 56 -23 35 -24 80
-4 157 47 182 180 302 381 343 80 17 155 14 180 -7 8 -6 16 -33 20 -60 8 -61
33 -87 68 -71 31 14 40 42 31 97 -13 89 -82 135 -200 133 -38 0 -81 -3 -95 -5z"/>
<path d="M15856 20758 c-7 -13 -17 -39 -20 -58 -3 -19 -11 -42 -16 -50 -9 -13
-14 -11 -31 13 -58 77 -183 94 -299 40 -157 -74 -275 -186 -343 -326 -48 -99
-56 -161 -25 -207 78 -117 298 -85 493 70 83 67 126 113 178 196 69 107 71
107 92 22 34 -142 92 -228 155 -228 58 0 60 39 5 90 -59 55 -95 171 -95 313 0
108 -16 146 -62 147 -10 0 -24 -10 -32 -22z m-158 -132 c15 -8 40 -28 56 -45
l29 -30 -29 -43 c-111 -162 -274 -273 -438 -300 -124 -20 -147 21 -75 133 89
138 184 220 314 274 69 28 105 31 143 11z"/>
<path d="M27478 20540 c-156 -27 -486 -235 -567 -356 -42 -65 -48 -103 -22
-156 53 -111 122 -157 231 -158 93 0 165 21 317 95 162 78 288 158 370 236 34
33 66 59 72 59 15 0 25 -28 56 -150 14 -54 25 -121 25 -148 0 -57 17 -80 48
-63 11 6 22 18 26 27 11 29 5 119 -13 184 -10 36 -30 108 -44 160 -34 125 -35
129 -63 136 -21 5 -38 -8 -117 -88 -102 -104 -211 -181 -362 -256 -208 -103
-389 -115 -449 -30 -28 40 -19 66 42 130 132 139 444 297 540 273 15 -3 41
-23 59 -43 26 -31 35 -35 50 -26 21 13 30 83 13 114 -25 46 -126 75 -212 60z"/>
<path d="M29026 20439 c-47 -37 -58 -72 -51 -155 7 -66 11 -77 37 -99 16 -14
36 -25 43 -25 49 0 135 67 135 105 0 12 -11 32 -24 44 -22 21 -24 29 -19 74 5
41 3 52 -12 63 -28 20 -79 17 -109 -7z"/>
<path d="M11645 19497 c-65 -17 -133 -55 -158 -88 -15 -22 -17 -30 -8 -48 15
-27 44 -26 101 1 37 18 69 22 185 26 136 4 143 3 240 -28 139 -44 227 -93 281
-154 84 -94 108 -188 80 -309 -38 -163 -127 -271 -286 -349 -197 -97 -378
-128 -529 -89 -131 33 -208 87 -254 180 -18 37 -22 63 -22 131 0 74 5 95 34
162 52 123 128 197 281 273 110 56 162 68 250 61 68 -6 78 -5 94 13 10 10 16
30 14 42 -14 102 -364 34 -548 -105 -111 -84 -172 -168 -209 -290 -41 -135
-22 -271 55 -383 59 -86 143 -137 286 -174 141 -37 311 -15 504 63 243 99 365
226 419 433 59 231 -52 434 -306 554 -46 22 -120 50 -164 61 -100 27 -270 35
-340 17z"/>
<path d="M7620 19454 c-96 -54 -170 -156 -239 -329 -70 -174 -84 -330 -45
-505 58 -260 276 -425 540 -408 66 4 89 12 172 54 165 83 291 233 378 448 153
378 -57 725 -425 704 -63 -4 -88 -11 -140 -38 -66 -36 -95 -67 -89 -97 5 -27
42 -27 119 -3 88 29 228 25 300 -7 66 -29 124 -86 156 -150 23 -49 27 -68 27
-152 0 -141 -48 -284 -148 -434 -83 -125 -240 -228 -362 -235 -117 -8 -271 59
-344 149 -135 168 -133 445 5 720 45 88 115 165 158 174 55 12 77 32 77 70 0
68 -60 85 -140 39z"/>
<path d="M5711 19249 c-66 -11 -175 -64 -202 -97 -25 -32 -24 -68 1 -82 17 -9
35 -4 98 24 101 46 199 62 282 48 85 -15 197 -73 238 -123 114 -137 89 -341
-62 -493 -263 -267 -640 -311 -851 -101 -76 77 -114 159 -122 266 -6 96 6 167
43 240 37 74 68 104 133 128 70 25 83 39 79 83 -2 23 -11 37 -29 47 -24 14
-31 12 -85 -14 -72 -35 -172 -133 -202 -198 -77 -165 -62 -370 37 -526 18 -28
61 -76 95 -109 125 -117 213 -148 396 -139 78 3 138 12 185 27 190 59 411 226
495 373 127 223 37 489 -202 602 -106 50 -208 63 -327 44z"/>
<path d="M20917 19236 c-8 -8 -17 -46 -20 -91 -4 -42 -18 -143 -32 -223 -13
-81 -28 -190 -34 -242 -11 -117 -3 -530 11 -547 13 -16 40 -17 56 -1 9 9 12
74 12 233 0 235 13 376 54 587 36 185 42 260 21 281 -20 21 -49 22 -68 3z"/>
<path d="M24187 19008 c-9 -7 -21 -36 -26 -65 -6 -28 -28 -115 -50 -192 -87
-306 -121 -504 -121 -706 0 -136 10 -177 44 -183 35 -7 40 14 42 165 2 208 36
394 133 723 61 207 65 224 51 249 -12 24 -47 27 -73 9z"/>
<path d="M11763 17958 c-6 -7 -13 -22 -17 -33 -11 -29 -8 -526 4 -658 13 -150
20 -171 52 -175 45 -5 48 14 36 269 -5 129 -8 313 -4 410 4 127 2 179 -6 187
-16 16 -53 15 -65 0z"/>
<path d="M5557 17875 c-108 -27 -214 -90 -308 -184 -105 -105 -133 -159 -133
-251 0 -117 71 -228 179 -279 212 -100 559 16 729 243 52 70 66 112 66 197 0
50 -6 78 -29 125 -38 81 -85 106 -193 103 -66 -2 -79 1 -118 26 -54 34 -112
40 -193 20z m125 -118 c-8 -47 41 -58 134 -31 46 13 60 13 101 2 60 -17 78
-48 77 -134 -1 -132 -101 -244 -294 -329 -55 -24 -81 -29 -176 -33 -121 -5
-163 4 -227 45 -46 29 -76 90 -77 151 0 117 147 270 317 329 82 28 150 28 145
0z"/>
<path d="M7858 17840 c-33 -26 -53 -99 -74 -280 -18 -154 -15 -361 6 -432 11
-39 36 -54 69 -43 28 9 32 28 20 113 -21 146 1 394 46 512 26 69 30 114 10
133 -22 22 -47 21 -77 -3z"/>
<path d="M20876 17552 c-31 -35 -86 -589 -89 -899 -2 -155 -1 -163 20 -184 19
-20 25 -21 49 -11 23 11 25 16 19 45 -11 49 -10 106 3 292 22 303 42 497 64
622 17 100 19 125 8 138 -17 20 -53 19 -74 -3z"/>
<path d="M23862 17135 c-117 -26 -207 -88 -200 -139 5 -32 36 -31 82 2 22 16
73 40 111 53 60 20 89 24 200 24 147 0 196 -12 328 -77 155 -77 197 -206 116
-358 -79 -148 -256 -224 -524 -224 -153 -1 -249 26 -307 84 -33 33 -38 44 -38
84 0 88 82 208 203 295 83 61 160 91 231 91 47 0 60 -5 96 -35 49 -41 53 -42
80 -15 29 29 25 48 -17 86 -49 45 -91 57 -179 52 -59 -4 -89 -12 -149 -42
-224 -111 -375 -318 -350 -483 14 -92 121 -168 281 -198 96 -19 185 -19 299 0
250 41 381 121 457 282 66 140 63 242 -11 339 -71 95 -186 156 -345 184 -83
14 -288 11 -364 -5z"/>
<path d="M5520 16770 c-12 -12 -20 -33 -20 -51 0 -141 94 -718 125 -765 12
-19 23 -24 43 -22 26 3 27 5 27 63 -1 33 -16 141 -34 240 -26 141 -34 216 -38
350 -4 133 -9 174 -21 188 -20 23 -57 22 -82 -3z"/>
<path d="M11648 16608 c-13 -11 -17 -44 -21 -198 -4 -153 -11 -221 -41 -390
-20 -113 -40 -222 -45 -243 -12 -49 -1 -91 26 -95 50 -7 69 49 124 375 34 202
39 255 39 388 0 142 -2 155 -19 165 -26 13 -44 13 -63 -2z"/>
<path d="M7864 16540 c-99 -15 -219 -95 -212 -141 2 -12 11 -27 20 -33 18 -11
43 -1 117 46 48 31 178 37 251 13 75 -25 143 -93 164 -164 20 -68 20 -111 1
-186 -33 -129 -116 -247 -228 -325 -87 -62 -121 -69 -182 -40 -51 25 -84 72
-109 159 -34 117 -7 215 79 286 53 43 59 75 20 101 -24 16 -28 16 -64 -1 -70
-31 -141 -154 -149 -255 -8 -116 51 -278 123 -338 70 -57 183 -69 270 -28 70
34 110 66 183 149 125 141 185 313 160 457 -35 200 -231 332 -444 300z"/>
<path d="M20730 16123 c-147 -22 -284 -103 -415 -245 -202 -218 -187 -416 40
-531 105 -52 181 -69 335 -74 170 -6 231 4 329 53 92 46 160 120 213 230 36
75 42 98 46 169 4 73 1 89 -23 142 -15 34 -41 74 -58 91 -29 28 -143 92 -163
92 -4 0 -24 11 -43 25 -61 42 -171 62 -261 48z m-60 -108 c0 -3 -7 -17 -16
-30 -13 -20 -14 -28 -4 -40 17 -21 27 -19 61 10 38 31 88 45 167 45 59 0 66
-3 93 -31 26 -27 33 -30 65 -24 29 5 44 1 74 -19 56 -37 85 -103 85 -191 -1
-61 -6 -80 -38 -143 -84 -163 -214 -232 -438 -232 -123 0 -228 23 -322 71
-104 52 -137 96 -137 182 0 105 165 290 335 376 60 31 75 36 75 26z"/>
<path d="M23953 15893 c-22 -22 -46 -229 -63 -533 -6 -96 -15 -234 -22 -307
-9 -100 -9 -138 0 -158 12 -27 43 -33 60 -12 14 16 39 251 52 492 10 186 15
231 41 408 14 96 9 119 -29 125 -11 2 -29 -5 -39 -15z"/>
<path d="M5607 15133 c-17 -20 -42 -89 -50 -143 -4 -19 -9 -123 -13 -230 -3
-107 -8 -198 -10 -202 -8 -12 -6 -351 1 -393 7 -37 30 -75 44 -75 31 1 34 21
37 202 2 100 8 233 13 293 6 61 11 148 11 195 0 113 16 212 40 260 23 44 26
80 8 98 -18 18 -63 15 -81 -5z"/>
<path d="M7846 15106 c-45 -49 -49 -97 -52 -654 -3 -558 1 -617 41 -617 24 0
30 43 39 305 3 96 9 213 12 260 3 47 6 189 7 315 2 212 4 233 23 270 32 62 37
94 19 121 -20 31 -59 31 -89 0z"/>
<path d="M11448 14859 c-14 -8 -18 -24 -18 -78 0 -53 -6 -82 -29 -132 -55
-123 -79 -281 -88 -569 -5 -180 -4 -209 11 -238 16 -32 55 -50 76 -37 8 5 10
32 5 90 -8 95 8 352 32 500 8 55 31 143 50 195 39 107 55 238 33 265 -14 17
-47 19 -72 4z"/>
<path d="M20380 14583 c-45 -7 -208 -94 -255 -135 -121 -107 -270 -413 -290
-596 -15 -135 37 -268 127 -329 26 -17 78 -41 115 -54 59 -19 80 -21 182 -16
343 18 634 190 765 450 73 145 84 270 33 379 -52 113 -143 185 -311 249 -132
50 -265 69 -366 52z m190 -87 c192 -42 327 -113 383 -201 78 -123 68 -245 -32
-397 -141 -214 -418 -353 -706 -353 -100 0 -115 2 -160 27 -45 23 -79 53 -113
99 -6 8 -17 50 -23 91 -10 67 -9 85 9 156 39 154 139 351 220 435 68 70 150
105 209 88 38 -11 70 3 91 39 19 34 30 35 122 16z"/>
<path d="M23795 14270 c-12 -4 -27 -15 -34 -24 -25 -30 2 -43 102 -48 105 -6
149 -24 254 -102 80 -60 199 -188 242 -259 90 -151 81 -251 -30 -351 -98 -89
-217 -126 -407 -126 -251 0 -388 76 -386 215 2 86 82 215 204 328 96 88 163
122 230 113 42 -6 53 -3 70 14 24 24 26 53 5 70 -8 6 -41 14 -74 17 -86 8
-160 -29 -273 -136 -163 -154 -248 -294 -248 -408 0 -225 257 -341 650 -293
112 14 229 68 301 140 103 103 136 247 84 364 -67 151 -242 342 -372 406 -26
13 -59 31 -73 40 -65 43 -188 64 -245 40z"/>
<path d="M7055 10906 c-113 -36 -441 -244 -585 -371 -126 -112 -277 -262 -321
-319 -24 -32 -65 -85 -91 -119 -56 -75 -128 -218 -154 -307 -26 -89 -27 -316
-1 -411 45 -172 137 -347 278 -536 95 -126 352 -397 396 -418 31 -15 36 -15
59 -1 34 23 30 39 -16 71 -45 31 -260 256 -328 342 -106 138 -207 308 -260
443 -53 136 -71 327 -43 450 28 116 112 268 228 412 113 139 385 368 611 515
128 83 204 116 274 119 33 2 66 8 74 15 17 14 19 100 2 117 -15 15 -71 14
-123 -2z"/>
<path d="M3838 10857 c-57 -53 -55 -147 6 -255 34 -61 54 -73 80 -47 24 24 20
82 -9 131 l-25 42 21 46 c11 26 19 59 17 74 -4 38 -53 43 -90 9z"/>
<path d="M19556 10814 c-10 -25 -7 -72 4 -79 6 -4 17 -1 25 5 25 20 17 90 -10
90 -7 0 -16 -7 -19 -16z"/>
<path d="M5485 10784 c-156 -22 -353 -88 -485 -161 -89 -50 -196 -130 -251
-189 -89 -96 -170 -243 -188 -339 -16 -87 -18 -88 -133 -80 -107 8 -128 1
-128 -41 0 -12 11 -35 24 -51 22 -26 28 -27 100 -26 91 2 95 -2 72 -82 -22
-74 -38 -252 -32 -356 8 -137 46 -375 66 -421 16 -35 60 -54 89 -38 26 14 27
43 1 78 -34 48 -62 176 -69 322 -9 178 13 469 37 489 23 18 580 9 919 -16 200
-14 244 -15 257 -4 23 19 20 40 -6 51 -30 12 -213 37 -368 50 -69 6 -161 15
-205 20 -44 5 -191 12 -328 16 -287 8 -267 -5 -189 127 63 108 177 233 290
320 130 98 152 110 311 164 l136 47 165 0 165 1 53 -32 c79 -49 107 -42 119
30 7 45 -14 67 -93 98 -48 18 -81 23 -179 25 -66 1 -133 0 -150 -2z"/>
<path d="M20204 10773 c-4 -10 -9 -38 -11 -63 -2 -25 -6 -74 -8 -110 -6 -74 4
-101 32 -84 24 15 42 80 36 125 -3 21 0 53 6 72 9 27 9 42 1 57 -13 25 -45 26
-56 3z"/>
<path d="M4193 10268 c-71 -34 -109 -427 -78 -797 25 -298 65 -453 121 -467
42 -11 49 7 26 73 -56 164 -73 320 -68 633 4 262 18 358 62 436 29 53 29 88
-2 118 -18 18 -30 19 -61 4z"/>
<path d="M15056 10168 c-26 -36 -19 -65 25 -113 47 -51 116 -175 268 -480 194
-390 250 -598 238 -885 -4 -103 -13 -162 -35 -250 -99 -386 -222 -590 -418
-694 -42 -22 -59 -37 -59 -51 0 -34 55 -31 126 6 166 89 286 262 399 579 21
58 59 221 69 293 28 206 9 392 -65 614 -63 191 -127 338 -271 627 -174 349
-231 420 -277 354z"/>
<path d="M7490 10100 c-11 -11 -20 -25 -20 -31 0 -42 183 -411 254 -513 34
-49 38 -60 26 -68 -8 -5 -70 -40 -137 -78 -66 -38 -172 -102 -235 -143 -62
-41 -132 -84 -154 -95 -55 -28 -74 -48 -74 -77 0 -32 41 -59 72 -50 13 4 66
38 118 75 186 132 445 292 466 288 9 -2 35 -39 58 -83 99 -190 341 -498 507
-645 83 -73 119 -91 144 -70 28 23 15 45 -60 108 -124 104 -293 307 -452 545
-40 60 -87 126 -104 148 -17 22 -30 41 -28 43 11 10 121 61 235 110 183 77
408 151 570 187 138 30 164 40 164 64 0 33 -27 37 -137 20 -247 -39 -618 -162
-799 -266 -28 -16 -59 -29 -67 -29 -21 0 -194 343 -233 460 -15 47 -34 93 -42
103 -20 23 -47 22 -72 -3z"/>
<path d="M20175 10060 c-3 -5 -2 -10 4 -10 5 0 13 5 16 10 3 6 2 10 -4 10 -5
0 -13 -4 -16 -10z"/>
<path d="M12017 10046 c-33 -34 -30 -180 9 -469 18 -131 15 -137 -65 -137 -61
0 -150 -19 -331 -69 -144 -40 -179 -72 -130 -121 29 -29 61 -25 205 26 130 46
312 90 323 79 4 -3 7 -99 8 -213 1 -183 4 -221 28 -331 33 -154 54 -194 86
-156 9 11 8 32 -5 97 -16 79 -39 565 -28 595 7 18 27 20 158 15 97 -3 124 -1
140 11 16 13 18 19 9 34 -16 25 -45 31 -166 32 -58 1 -113 4 -122 7 -13 5 -16
25 -16 118 0 61 -5 189 -10 285 -8 139 -13 178 -26 193 -20 22 -47 23 -67 4z"/>
<path d="M16510 9986 c-75 -20 -116 -51 -145 -111 -21 -41 -25 -62 -20 -86 11
-48 83 -119 250 -245 229 -172 330 -257 333 -281 4 -28 -34 -40 -158 -48 -116
-9 -241 -30 -277 -47 -35 -17 -73 -73 -73 -107 0 -42 35 -97 139 -221 128
-153 165 -205 202 -284 35 -75 36 -99 6 -271 -8 -49 -18 -132 -21 -183 -4 -82
-3 -95 14 -112 21 -21 56 -17 69 9 5 9 11 53 15 98 3 45 17 137 31 205 14 67
25 139 25 158 -1 81 -74 208 -244 418 -114 142 -136 176 -120 192 12 12 84 24
236 40 181 18 260 55 274 126 5 26 -2 41 -43 94 -50 68 -90 102 -337 291 -148
113 -220 186 -214 218 2 9 19 24 38 34 31 15 55 17 195 13 88 -2 179 -7 202
-11 37 -6 45 -4 67 19 38 37 35 73 -9 92 -44 18 -367 19 -435 0z"/>
<path d="M9340 9940 c-36 -5 -85 -14 -110 -20 -25 -7 -90 -20 -144 -31 -120
-23 -146 -37 -146 -83 0 -38 25 -66 59 -66 13 0 63 13 112 30 232 77 404 87
779 44 325 -37 325 -37 349 -25 79 43 -66 93 -394 137 -138 18 -419 26 -505
14z"/>
<path d="M19540 9935 c-18 -22 -8 -50 19 -50 28 0 47 25 38 49 -8 20 -40 21
-57 1z"/>
<path d="M10322 9748 c-25 -13 -37 -46 -27 -77 13 -41 38 -44 200 -31 281 24
605 -5 959 -86 60 -14 125 -24 145 -22 31 3 36 7 36 28 0 31 -38 46 -271 105
-287 73 -396 87 -729 91 -206 3 -297 0 -313 -8z"/>
<path d="M26218 9538 c-36 -28 -31 -53 25 -124 139 -178 274 -405 325 -547
114 -315 129 -605 47 -942 -74 -306 -184 -516 -287 -549 -26 -9 -33 -17 -33
-36 0 -21 5 -25 35 -28 45 -4 117 41 161 100 97 131 218 480 250 718 15 115
15 339 0 435 -25 153 -84 343 -143 458 -32 63 -133 230 -181 298 -24 35 -63
95 -87 134 -57 93 -78 109 -112 83z"/>
<path d="M9112 9511 c-127 -5 -145 -8 -158 -25 -14 -20 -11 -50 9 -75 22 -27
58 -32 165 -21 287 29 663 -4 1029 -92 76 -18 94 -19 107 -9 19 16 21 45 4 58
-28 20 -210 68 -413 108 -257 51 -478 67 -743 56z"/>
<path d="M28184 9461 c-22 -10 -51 -31 -63 -47 -20 -25 -22 -37 -18 -85 10
-115 99 -246 249 -365 105 -85 94 -101 -95 -135 -60 -11 -125 -26 -145 -35
-46 -19 -82 -52 -82 -75 0 -39 43 -113 105 -179 76 -81 81 -103 39 -203 -58
-140 -127 -429 -111 -470 9 -25 54 -21 72 6 8 13 22 61 30 107 21 110 35 155
80 265 26 64 39 111 42 161 7 87 -6 115 -88 192 -32 31 -59 62 -59 69 0 19 32
29 148 46 151 23 212 65 212 147 0 49 -26 87 -139 207 -144 152 -181 201 -181
243 0 23 34 40 79 40 63 0 101 28 101 74 0 17 -5 37 -12 44 -18 18 -117 14
-164 -7z"/>
<path d="M19534 9459 c-10 -17 13 -36 27 -22 12 12 4 33 -11 33 -5 0 -12 -5
-16 -11z"/>
<path d="M24913 9409 c-128 -16 -282 -128 -417 -303 -157 -203 -244 -408 -292
-691 -23 -132 -25 -168 -20 -300 12 -339 85 -586 169 -573 37 6 43 32 14 69
-68 90 -102 296 -94 569 11 374 102 610 344 885 103 117 228 198 323 210 75 9
105 22 119 51 16 35 14 58 -7 77 -20 18 -41 19 -139 6z"/>
<path d="M10452 9304 c-40 -18 -31 -82 15 -103 13 -6 79 -11 151 -11 173 0
372 -16 584 -46 211 -30 232 -29 236 8 3 29 8 26 -118 58 -180 46 -818 114
-868 94z"/>
<path d="M23660 9248 c-126 -16 -241 -79 -357 -195 -130 -129 -239 -312 -279
-465 -8 -35 -21 -69 -26 -76 -8 -10 -37 -11 -123 -6 l-113 7 -17 -27 c-21 -32
-15 -50 27 -76 29 -18 43 -20 116 -14 93 7 92 9 67 -72 -32 -102 -47 -240 -52
-489 -5 -221 -4 -252 10 -264 9 -7 24 -11 34 -9 16 3 19 23 24 233 4 135 13
271 23 330 9 55 21 130 26 166 12 84 17 97 43 105 55 17 333 3 707 -36 105
-11 160 -4 160 19 0 12 -87 41 -155 51 -27 4 -88 14 -135 23 -161 29 -235 37
-397 44 -90 3 -163 10 -163 14 0 4 30 61 67 126 120 213 267 373 406 441 87
43 182 66 237 57 81 -12 112 -11 123 6 16 25 0 67 -32 84 -39 20 -154 32 -221
23z"/>
<path d="M13103 9221 c-83 -29 -182 -79 -218 -111 -11 -10 -82 -59 -157 -109
-113 -75 -138 -96 -138 -116 0 -28 24 -55 50 -55 37 0 69 20 197 123 72 57
154 118 184 135 120 68 300 106 316 66 3 -9 -4 -39 -17 -68 -53 -120 -70 -178
-70 -237 0 -97 45 -155 142 -184 59 -17 172 -19 237 -4 76 17 183 73 264 138
129 104 180 191 118 199 -18 3 -39 -12 -90 -61 -141 -139 -267 -197 -426 -197
-76 0 -86 2 -115 27 -32 26 -32 28 -28 92 3 44 16 90 36 138 18 39 37 94 44
122 22 96 -23 131 -164 131 -65 0 -101 -6 -165 -29z"/>
<path d="M19761 9214 c-35 -45 -23 -104 21 -104 35 0 43 103 9 124 -5 3 -19
-6 -30 -20z"/>
<path d="M14362 9145 c-74 -21 -103 -38 -146 -85 -58 -65 -70 -101 -71 -215 0
-94 2 -104 33 -164 73 -138 226 -259 395 -311 126 -39 219 -35 225 8 2 12 2
22 0 23 -2 0 -32 3 -68 6 -127 10 -269 81 -383 192 -59 58 -117 155 -101 171
5 5 33 4 64 -2 30 -6 105 -8 165 -5 147 6 232 34 297 97 43 41 48 51 48 90 0
76 -51 128 -172 177 -79 32 -207 40 -286 18z m232 -95 c46 -15 78 -33 107 -59
37 -36 39 -41 27 -60 -44 -71 -362 -119 -463 -70 -25 12 -29 20 -27 44 7 62
70 124 154 150 62 20 127 18 202 -5z"/>
<path d="M22215 8971 c-91 -23 -165 -72 -165 -109 0 -19 50 -62 72 -62 10 0
37 12 60 28 23 15 64 36 92 48 93 37 101 105 12 103 -22 -1 -54 -4 -71 -8z"/>
<path d="M24880 8640 c-40 -40 -29 -56 163 -249 86 -87 157 -162 157 -168 0
-13 -228 -96 -323 -117 -31 -7 -67 -39 -67 -60 0 -22 29 -46 56 -46 34 0 125
32 273 96 69 30 130 54 137 54 6 0 33 -28 60 -62 125 -161 383 -390 453 -404
51 -11 38 17 -45 92 -42 38 -110 105 -152 149 -42 44 -114 118 -160 164 -45
46 -81 88 -79 94 1 5 61 35 132 67 427 189 578 272 562 313 -10 26 -37 21
-118 -22 -69 -36 -148 -72 -344 -158 -109 -48 -148 -65 -230 -103 l-70 -32
-35 43 c-19 23 -76 88 -126 143 -49 56 -112 129 -138 164 -51 67 -73 75 -106
42z"/>
<path d="M22407 8589 c-38 -22 -38 -49 8 -306 25 -136 49 -293 55 -348 13
-120 49 -365 62 -418 11 -46 33 -57 59 -30 20 19 20 23 5 124 -8 57 -20 163
-26 234 -6 72 -29 238 -51 371 -21 132 -39 264 -39 292 0 39 -5 57 -20 72 -23
23 -28 24 -53 9z"/>
<path d="M19256 7904 c-26 -26 -20 -39 38 -78 27 -18 52 -26 81 -26 71 0 184
-35 452 -140 142 -56 278 -111 303 -122 25 -11 59 -26 75 -34 237 -106 529
-259 693 -362 122 -76 190 -140 226 -210 31 -62 32 -83 5 -139 -26 -55 -88
-109 -230 -204 -115 -77 -173 -113 -474 -294 -92 -55 -248 -153 -348 -218
-207 -136 -573 -417 -589 -453 -9 -20 -8 -28 5 -41 22 -22 51 -9 131 61 203
176 511 381 991 657 226 130 423 260 498 329 109 100 146 224 96 323 -58 112
-252 260 -569 430 -345 186 -695 343 -1060 475 -171 62 -291 79 -324 46z"/>
<path d="M18020 7490 c-11 -11 -20 -24 -20 -30 0 -16 53 -60 80 -66 14 -3 52
-13 85 -22 33 -9 87 -16 120 -15 89 3 449 -34 700 -72 121 -19 263 -39 315
-45 52 -7 190 -27 305 -45 292 -46 328 -49 349 -26 13 15 14 20 3 29 -27 23
-437 101 -1000 192 -237 38 -843 120 -888 120 -16 0 -38 -9 -49 -20z"/>
<path d="M18267 6622 c-20 -22 -22 -67 -4 -79 6 -4 104 -9 217 -10 293 -2 474
-22 1015 -114 132 -22 276 -47 320 -54 44 -7 118 -20 164 -29 96 -18 253 -21
299 -5 30 10 49 39 38 57 -3 5 -52 9 -110 10 -106 1 -201 14 -426 58 -437 85
-552 104 -900 149 -101 13 -441 34 -556 35 -27 0 -46 -6 -57 -18z"/>
<path d="M4507 6480 c-42 -34 -44 -78 -7 -157 17 -38 43 -81 58 -97 26 -28
231 -167 323 -219 103 -59 124 -123 68 -213 -17 -27 -75 -94 -129 -149 -139
-143 -157 -200 -89 -287 32 -40 105 -82 257 -149 112 -48 172 -81 225 -122 34
-27 37 -32 37 -80 0 -54 -31 -134 -89 -227 -16 -25 -54 -90 -86 -145 -33 -55
-87 -147 -121 -205 -97 -165 -150 -278 -137 -291 20 -20 62 -1 86 39 13 20 75
123 137 227 62 105 139 231 170 280 82 130 127 222 135 282 18 134 -37 189
-325 324 -201 94 -250 132 -234 181 3 11 56 73 118 137 126 131 150 166 166
235 10 45 8 54 -15 102 -31 62 -71 98 -250 219 -217 146 -229 161 -220 246 4
45 2 60 -10 73 -22 21 -37 20 -68 -4z"/>
<path d="M22942 4718 c-36 -36 15 -99 133 -163 39 -21 93 -53 120 -70 28 -18
87 -54 133 -80 77 -45 132 -93 132 -116 0 -38 -59 -80 -199 -144 -195 -87
-271 -149 -271 -216 0 -73 29 -108 195 -231 209 -156 220 -206 96 -422 -76
-132 -114 -211 -242 -499 -76 -173 -81 -189 -66 -204 15 -15 18 -15 41 1 26
16 80 114 131 236 44 105 137 286 214 414 73 123 87 158 98 238 5 39 1 57 -20
100 -35 70 -63 98 -201 203 -64 48 -125 99 -137 113 -39 50 -28 60 157 152
237 118 284 158 284 243 0 84 -42 130 -235 254 -55 36 -146 96 -202 134 -101
68 -137 81 -161 57z"/>
<path d="M11925 4079 c-10 -15 1 -23 20 -15 9 3 13 10 10 16 -8 13 -22 13 -30
-1z"/>
<path d="M10725 3750 c-4 -7 -3 -16 3 -22 14 -14 45 -2 40 15 -6 16 -34 21
-43 7z"/>
<path d="M10910 3680 c0 -5 5 -10 10 -10 6 0 10 5 10 10 0 6 -4 10 -10 10 -5
0 -10 -4 -10 -10z"/>
<path d="M11142 3593 c2 -14 13 -18 43 -18 30 0 41 4 43 18 3 14 -4 17 -43 17
-39 0 -46 -3 -43 -17z"/>
<path d="M9580 3315 c-10 -12 -9 -16 5 -21 19 -8 40 9 31 25 -10 15 -21 14
-36 -4z"/>
</g>
</svg>
