<?xml version="1.0" standalone="no"?>
<!DOCTYPE svg PUBLIC "-//W3C//DTD SVG 20010904//EN"
 "http://www.w3.org/TR/2001/REC-SVG-20010904/DTD/svg10.dtd">
<svg version="1.0" xmlns="http://www.w3.org/2000/svg"
 width="3264.000000pt" height="2448.000000pt" viewBox="0 0 3264.000000 2448.000000"
 preserveAspectRatio="xMidYMid meet">
<metadata>
Created by potrace 1.12, written by Peter Selinger 2001-2015
</metadata>
<g transform="translate(0.000000,2448.000000) scale(0.100000,-0.100000)"
fill="#000000" stroke="none">
<path d="M55 24448 c13 -60 47 -73 59 -23 9 37 -3 55 -36 55 -28 0 -29 -2 -23
-32z"/>
<path d="M644 24465 c-8 -20 9 -66 28 -79 36 -22 63 38 34 77 -16 21 -55 23
-62 2z"/>
<path d="M969 24478 c0 -2 -2 -22 -4 -45 -2 -30 1 -43 10 -43 12 0 25 56 17
79 -3 9 -20 16 -23 9z"/>
<path d="M1053 24429 c-3 -43 0 -50 15 -47 23 4 25 91 2 96 -11 2 -16 -10 -17
-49z"/>
<path d="M1400 24466 c0 -8 5 -18 10 -21 6 -3 10 3 10 14 0 12 -4 21 -10 21
-5 0 -10 -6 -10 -14z"/>
<path d="M1810 24471 c0 -5 7 -11 15 -15 8 -3 15 -1 15 3 0 5 -7 11 -15 15 -8
3 -15 1 -15 -3z"/>
<path d="M2418 24453 c-3 -49 3 -108 12 -117 6 -5 16 -4 25 4 12 10 15 23 10
51 -6 33 -3 42 21 64 l27 25 -47 0 c-43 0 -46 -2 -48 -27z"/>
<path d="M2595 24470 c-4 -6 -3 -16 3 -22 6 -6 12 -6 17 2 4 6 3 16 -3 22 -6
6 -12 6 -17 -2z"/>
<path d="M3095 24470 c-4 -6 -3 -16 2 -22 4 -7 13 -28 18 -47 14 -49 35 -52
35 -6 0 20 -4 44 -10 54 -11 22 -37 34 -45 21z"/>
<path d="M19713 24473 c15 -2 37 -2 50 0 12 2 0 4 -28 4 -27 0 -38 -2 -22 -4z"/>
<path d="M19833 24473 c9 -2 23 -2 30 0 6 3 -1 5 -18 5 -16 0 -22 -2 -12 -5z"/>
<path d="M19888 24473 c6 -2 18 -2 25 0 6 3 1 5 -13 5 -14 0 -19 -2 -12 -5z"/>
<path d="M20158 24473 c6 -2 18 -2 25 0 6 3 1 5 -13 5 -14 0 -19 -2 -12 -5z"/>
<path d="M20223 24473 c9 -2 23 -2 30 0 6 3 -1 5 -18 5 -16 0 -22 -2 -12 -5z"/>
<path d="M20338 24473 c17 -2 47 -2 65 0 17 2 3 4 -33 4 -36 0 -50 -2 -32 -4z"/>
<path d="M20528 24467 c31 -7 46 -7 54 1 9 9 -1 12 -42 11 l-55 -1 43 -11z"/>
<path d="M20615 24470 c3 -5 12 -10 20 -10 8 0 17 5 20 10 4 6 -5 10 -20 10
-15 0 -24 -4 -20 -10z"/>
<path d="M20743 24467 c46 -6 82 -6 110 1 36 8 27 10 -68 9 l-110 0 68 -10z"/>
<path d="M20921 24469 c16 -6 50 -6 90 -1 l64 10 -90 0 c-68 0 -84 -2 -64 -9z"/>
<path d="M21168 24473 c29 -2 74 -2 100 0 26 2 2 3 -53 3 -55 0 -76 -1 -47 -3z"/>
<path d="M21330 24477 c3 -2 232 -8 510 -12 278 -5 543 -9 590 -10 47 -2 238
-6 425 -9 187 -4 455 -11 595 -16 140 -5 332 -9 425 -10 94 0 202 -3 240 -5
39 -2 223 -7 410 -10 187 -3 448 -7 580 -10 132 -3 364 -7 515 -10 151 -3 358
-8 460 -10 101 -3 357 -7 570 -10 212 -3 462 -8 555 -11 94 -3 176 -5 183 -5
6 1 18 1 25 1 6 0 41 -1 77 -1 36 0 74 0 85 -1 72 -2 475 -7 780 -10 315 -3
360 -1 360 12 0 13 -31 15 -210 17 -115 1 -212 2 -215 3 -3 0 -212 3 -465 5
-253 2 -518 6 -590 9 -71 3 -265 8 -430 11 -555 10 -759 14 -924 20 -90 3
-265 8 -390 10 -124 2 -309 6 -411 9 -102 3 -268 8 -370 11 -102 3 -234 8
-295 12 -60 3 -159 8 -220 9 -197 6 -2870 16 -2865 11z"/>
<path d="M25328 24473 c6 -2 18 -2 25 0 6 3 1 5 -13 5 -14 0 -19 -2 -12 -5z"/>
<path d="M25438 24473 c7 -3 16 -2 19 1 4 3 -2 6 -13 5 -11 0 -14 -3 -6 -6z"/>
<path d="M25548 24473 c7 -3 16 -2 19 1 4 3 -2 6 -13 5 -11 0 -14 -3 -6 -6z"/>
<path d="M25718 24468 c9 -9 15 -9 24 0 9 9 7 12 -12 12 -19 0 -21 -3 -12 -12z"/>
<path d="M25855 24470 c4 -6 11 -8 16 -5 14 9 11 15 -7 15 -8 0 -12 -5 -9 -10z"/>
<path d="M26113 24473 c-25 -9 -13 -23 19 -20 37 3 52 27 16 26 -12 0 -29 -3
-35 -6z"/>
<path d="M31370 24465 c0 -17 2 -18 24 -9 23 9 20 24 -4 24 -11 0 -20 -7 -20
-15z"/>
<path d="M826 24457 c-13 -9 -16 -20 -11 -40 8 -32 17 -39 38 -31 11 4 16 19
15 45 0 41 -12 48 -42 26z"/>
<path d="M1180 24430 c0 -28 4 -40 14 -40 23 0 26 14 13 49 -16 43 -27 39 -27
-9z"/>
<path d="M1496 24463 c-11 -12 -6 -58 10 -81 27 -38 124 -23 124 20 0 21 -1
21 -13 3 -23 -30 -97 -3 -97 36 0 19 -13 32 -24 22z"/>
<path d="M25965 24460 c3 -5 8 -10 11 -10 2 0 4 5 4 10 0 6 -5 10 -11 10 -5 0
-7 -4 -4 -10z"/>
<path d="M26260 24460 c-12 -8 -11 -10 8 -10 12 0 22 5 22 10 0 13 -11 13 -30
0z"/>
<path d="M26495 24460 c-3 -6 1 -13 10 -16 19 -8 30 0 20 15 -8 14 -22 14 -30
1z"/>
<path d="M2806 24453 c-11 -11 -6 -23 9 -23 8 0 15 4 15 9 0 13 -16 22 -24 14z"/>
<path d="M2996 24453 c-11 -11 -6 -23 9 -23 8 0 15 4 15 9 0 13 -16 22 -24 14z"/>
<path d="M26665 24450 c-3 -5 -1 -10 4 -10 6 0 11 5 11 10 0 6 -2 10 -4 10 -3
0 -8 -4 -11 -10z"/>
<path d="M26725 24450 c3 -5 13 -10 21 -10 8 0 14 5 14 10 0 6 -9 10 -21 10
-11 0 -17 -4 -14 -10z"/>
<path d="M1885 24436 c-27 -15 -35 -27 -35 -53 0 -23 35 -42 51 -26 9 9 16 80
9 86 -3 3 -14 0 -25 -7z"/>
<path d="M2711 24428 c2 -13 0 -29 -4 -36 -5 -7 0 -24 13 -42 16 -23 29 -30
53 -30 18 0 39 5 47 10 13 9 13 11 0 20 -8 5 -24 10 -35 10 -22 0 -49 35 -40
50 4 6 15 10 26 10 30 0 22 17 -12 24 -47 9 -51 8 -48 -16z"/>
<path d="M26998 24443 c6 -2 18 -2 25 0 6 3 1 5 -13 5 -14 0 -19 -2 -12 -5z"/>
<path d="M27230 24440 c0 -5 5 -10 10 -10 6 0 10 5 10 10 0 6 -4 10 -10 10 -5
0 -10 -4 -10 -10z"/>
<path d="M27395 24440 c-3 -5 1 -10 10 -10 9 0 13 5 10 10 -3 6 -8 10 -10 10
-2 0 -7 -4 -10 -10z"/>
<path d="M1275 24418 c12 -40 40 -57 87 -51 61 7 68 10 68 32 0 31 -17 34 -49
10 -29 -21 -31 -21 -55 -5 -15 9 -26 21 -26 26 0 6 -7 10 -16 10 -11 0 -14 -6
-9 -22z"/>
<path d="M28070 24429 c0 -5 5 -7 10 -4 6 3 10 8 10 11 0 2 -4 4 -10 4 -5 0
-10 -5 -10 -11z"/>
<path d="M1727 24424 c-13 -13 -7 -55 8 -60 8 -4 22 -1 30 6 16 14 21 50 6 50
-5 0 -16 2 -23 5 -8 3 -17 2 -21 -1z"/>
<path d="M28175 24420 c-3 -5 -2 -10 4 -10 5 0 13 5 16 10 3 6 2 10 -4 10 -5
0 -13 -4 -16 -10z"/>
<path d="M2610 24383 c0 -35 14 -58 29 -49 22 14 9 76 -15 76 -9 0 -14 -11
-14 -27z"/>
<path d="M2991 24362 c-16 -38 -18 -109 -4 -123 21 -21 43 -2 43 36 0 33 2 35
34 35 33 0 62 20 49 33 -3 4 -19 7 -35 7 -15 0 -37 9 -48 20 -25 25 -25 25
-39 -8z"/>
<path d="M2906 24371 c-4 -7 -5 -15 -2 -18 9 -9 19 4 14 18 -4 11 -6 11 -12 0z"/>
<path d="M29148 24364 c-4 -3 -97 -5 -207 -5 -129 1 -201 -3 -201 -9 0 -5 6
-11 13 -12 6 0 26 -3 42 -5 69 -10 373 -5 379 6 7 10 -18 33 -26 25z"/>
<path d="M29227 24348 c-6 -4 -8 -10 -4 -14 7 -8 7 -8 187 -6 69 1 145 1 169
1 48 0 71 6 71 19 0 11 -406 11 -423 0z"/>
<path d="M29730 24349 c-95 -7 -75 -11 70 -15 63 -2 124 -4 135 -6 12 -2 21 4
23 14 3 15 -6 17 -75 15 -43 -1 -112 -4 -153 -8z"/>
<path d="M30087 24354 c-4 -4 -7 -11 -7 -16 0 -10 125 -9 160 2 18 5 10 7 -30
7 -31 0 -69 3 -86 7 -16 4 -33 4 -37 0z"/>
<path d="M30347 24354 c-6 -6 -19 -9 -66 -13 -11 -1 -12 -4 -4 -12 7 -7 31 -8
69 -3 52 6 56 8 39 20 -21 16 -29 17 -38 8z"/>
<path d="M30431 24347 c-6 -8 -8 -17 -4 -20 10 -11 52 -8 74 4 13 7 25 7 32 1
13 -11 77 -4 77 8 0 22 -161 28 -179 7z"/>
<path d="M30942 24352 c-6 -4 -8 -13 -4 -19 11 -18 112 -12 112 7 0 5 -13 7
-29 4 -16 -3 -37 -1 -48 4 -10 6 -24 7 -31 4z"/>
<path d="M30005 24340 c3 -5 13 -10 21 -10 8 0 14 5 14 10 0 6 -9 10 -21 10
-11 0 -17 -4 -14 -10z"/>
<path d="M30630 24341 c0 -14 84 -21 125 -10 20 6 48 8 61 5 14 -4 24 -2 24 4
0 6 -40 10 -105 10 -58 0 -105 -4 -105 -9z"/>
<path d="M30880 24335 c0 -9 9 -15 21 -15 18 0 19 2 9 15 -7 8 -16 15 -21 15
-5 0 -9 -7 -9 -15z"/>
<path d="M31095 24330 c17 -19 45 -27 45 -14 0 11 -34 33 -49 34 -11 0 -10 -5
4 -20z"/>
<path d="M31186 24341 c-8 -12 18 -21 59 -21 37 0 54 14 29 24 -24 9 -82 7
-88 -3z"/>
<path d="M31586 24341 c-7 -11 17 -21 47 -21 21 1 21 1 -3 15 -30 17 -37 18
-44 6z"/>
<path d="M31950 24342 c0 -5 9 -12 21 -15 13 -3 19 -1 16 6 -5 15 -37 22 -37
9z"/>
<path d="M31705 24330 c-4 -6 7 -10 25 -10 18 0 29 4 25 10 -3 6 -15 10 -25
10 -10 0 -22 -4 -25 -10z"/>
<path d="M31915 24330 c3 -5 11 -10 16 -10 6 0 7 5 4 10 -3 6 -11 10 -16 10
-6 0 -7 -4 -4 -10z"/>
<path d="M32096 24331 c-3 -5 1 -12 10 -15 26 -10 64 -7 64 5 0 6 -9 9 -20 6
-11 -3 -23 -1 -26 4 -7 12 -21 12 -28 0z"/>
<path d="M32190 24330 c0 -17 34 -28 59 -19 13 5 22 11 20 13 -10 9 -79 14
-79 6z"/>
<path d="M31528 24323 c7 -3 16 -2 19 1 4 3 -2 6 -13 5 -11 0 -14 -3 -6 -6z"/>
<path d="M32300 24321 c0 -17 23 -23 51 -12 13 5 17 10 9 11 -8 0 -25 3 -37 6
-14 4 -23 2 -23 -5z"/>
<path d="M32402 24318 c3 -7 13 -15 24 -17 16 -3 17 -1 5 13 -16 19 -34 21
-29 4z"/>
<path d="M32495 24310 c3 -5 24 -10 45 -10 21 0 42 5 45 10 4 6 -13 10 -45 10
-32 0 -49 -4 -45 -10z"/>
<path d="M17045 23900 c-3 -5 -1 -10 4 -10 6 0 11 5 11 10 0 6 -2 10 -4 10 -3
0 -8 -4 -11 -10z"/>
<path d="M7997 23658 c-33 -12 -42 -40 -33 -111 8 -59 -6 -82 -54 -89 -25 -3
-25 -3 -28 -129 l-3 -126 40 -18 c47 -21 53 -33 45 -85 -5 -30 -2 -42 15 -59
19 -19 33 -21 124 -21 56 -1 147 -3 202 -5 92 -4 101 -3 123 18 20 19 22 28
17 68 -7 50 -1 60 50 76 l30 10 1 119 c1 65 -2 125 -6 133 -4 8 -23 19 -41 25
l-34 11 -3 82 c-2 66 -6 84 -20 91 -9 5 -95 9 -191 10 -96 1 -182 4 -190 6 -9
2 -28 0 -44 -6z m373 -77 c14 -10 25 -24 25 -32 0 -8 4 -33 9 -57 13 -68 11
-69 -200 -69 l-186 0 -10 26 c-12 32 -1 126 17 144 22 22 311 11 345 -12z m60
-191 c11 -11 20 -26 20 -33 0 -7 -9 -30 -20 -52 -11 -22 -20 -57 -21 -80 -1
-66 -15 -136 -30 -146 -8 -5 -85 -9 -171 -9 l-157 0 -20 26 c-11 14 -23 42
-26 63 -3 20 -12 65 -21 100 l-15 64 25 24 c29 26 64 30 73 7 4 -11 13 -13 35
-9 22 5 33 2 42 -10 9 -13 27 -17 72 -17 78 0 97 3 111 14 7 5 22 7 35 3 19
-5 20 -4 6 5 -17 10 -15 32 5 58 14 18 34 15 57 -8z"/>
<path d="M731 23626 c-9 -10 -11 -26 -6 -43 4 -16 9 -84 11 -152 2 -68 6 -126
8 -129 3 -2 9 -1 15 3 14 8 14 72 1 80 -13 8 -13 71 0 94 18 34 18 117 0 141
-14 19 -18 20 -29 6z"/>
<path d="M6850 23624 c-54 -17 -82 -39 -104 -82 -9 -17 -41 -50 -72 -73 -66
-51 -84 -82 -84 -149 0 -97 72 -179 144 -166 19 4 40 13 46 21 11 13 5 18 -37
36 -54 22 -87 57 -97 105 -9 41 28 96 70 105 43 8 51 15 57 47 12 59 79 112
142 112 34 0 108 -44 123 -72 6 -13 16 -36 22 -51 7 -19 24 -34 54 -47 46 -19
69 -46 80 -92 8 -35 -38 -89 -94 -112 -45 -18 -52 -43 -15 -52 61 -15 124 20
151 85 18 44 18 114 -1 151 -16 30 -74 80 -93 80 -6 0 -27 24 -45 53 -41 63
-61 81 -110 102 -44 18 -78 18 -137 -1z"/>
<path d="M10734 23579 c-54 -16 -127 -73 -152 -120 -34 -63 -36 -195 -3 -256
44 -83 117 -129 219 -139 48 -5 63 -3 92 15 56 33 73 28 137 -44 50 -57 61
-66 88 -63 25 3 30 8 33 33 2 25 -7 40 -57 90 -59 58 -71 81 -52 101 5 5 17
37 26 72 14 57 14 66 -1 119 -22 76 -48 114 -105 153 -69 47 -150 61 -225 39z
m155 -82 c64 -32 99 -80 107 -147 15 -134 -42 -206 -181 -226 -39 -6 -124 42
-162 93 -25 32 -28 45 -28 109 1 78 22 133 59 154 12 6 32 17 46 25 36 21 108
18 159 -8z"/>
<path d="M9227 23562 c-15 -16 -17 -46 -17 -240 0 -273 -6 -261 133 -263 50
-1 106 -3 122 -4 17 -1 111 -4 209 -5 171 -2 181 -2 196 18 15 18 17 52 18
245 1 166 -2 228 -11 241 -12 16 -44 18 -323 22 -294 5 -311 4 -327 -14z m382
-43 c90 0 174 -2 187 -5 26 -7 32 -32 12 -52 -8 -8 -8 -15 0 -24 6 -8 14 -70
17 -139 6 -119 5 -126 -17 -159 l-24 -35 -219 3 -220 4 -37 39 -38 38 0 122
c0 112 1 121 20 126 21 6 27 28 10 38 -5 3 -10 15 -10 25 0 23 28 30 100 23
30 -3 129 -5 219 -4z"/>
<path d="M9390 23379 c0 -6 14 -23 30 -37 37 -32 37 -44 4 -88 -15 -19 -21
-34 -15 -34 6 0 11 4 11 9 0 12 56 34 91 35 16 1 29 5 30 9 0 10 -129 117
-142 117 -5 0 -9 -5 -9 -11z"/>
<path d="M9634 23340 c-51 -38 -74 -70 -52 -70 6 0 31 -10 55 -21 50 -24 62
-20 39 13 -21 30 -20 51 4 73 20 18 27 46 13 44 -5 0 -31 -18 -59 -39z"/>
<path d="M1908 23553 c-12 -14 -14 -31 -8 -78 4 -33 5 -97 2 -142 -4 -77 -3
-82 20 -97 18 -11 44 -15 102 -13 75 3 80 5 122 43 49 43 64 80 64 160 0 47
-4 55 -40 92 -45 44 -70 52 -175 52 -56 0 -75 -4 -87 -17z m192 -63 c47 -46
50 -52 50 -100 0 -63 -25 -104 -76 -120 -45 -15 -78 -7 -91 22 -11 26 -10 203
2 231 14 34 62 21 115 -33z"/>
<path d="M12705 23561 c-11 -5 -35 -15 -54 -22 -36 -14 -102 -73 -139 -126
-31 -44 -53 -154 -42 -207 32 -152 109 -239 245 -277 120 -33 227 0 314 97
104 118 108 289 7 424 -49 66 -147 114 -241 117 -38 2 -79 -1 -90 -6z m167
-71 c57 -16 130 -88 152 -149 29 -80 19 -183 -22 -243 -17 -25 -50 -61 -73
-79 -40 -31 -46 -33 -123 -32 -97 0 -149 23 -200 87 -48 61 -66 107 -66 173 0
86 15 124 68 180 75 78 150 96 264 63z"/>
<path d="M12722 23367 c-58 -47 -86 -82 -77 -97 11 -17 44 -11 55 10 6 12 21
20 35 20 25 0 25 0 25 -104 0 -76 4 -107 14 -115 11 -9 18 -8 30 4 19 19 18
16 20 120 1 89 13 102 56 65 28 -24 51 -12 42 23 -6 27 -69 85 -99 93 -13 4
-23 10 -23 15 0 19 -27 7 -78 -34z"/>
<path d="M13665 23537 c-53 -16 -82 -33 -127 -75 -163 -154 -122 -414 83 -527
49 -27 62 -30 144 -29 73 0 99 4 138 23 57 28 143 121 158 171 18 60 22 156
10 207 -14 56 -72 145 -117 179 -71 55 -197 77 -289 51z m207 -84 c52 -28 93
-74 121 -135 19 -40 23 -153 7 -163 -6 -4 -10 -12 -9 -18 5 -44 -40 -106 -107
-147 -42 -27 -184 -31 -230 -7 -39 20 -97 84 -123 135 -48 93 -14 247 67 310
87 67 180 76 274 25z"/>
<path d="M13725 23377 c-4 -13 -4 -60 -2 -105 6 -102 -7 -121 -53 -77 -32 31
-58 24 -46 -11 8 -26 82 -102 116 -119 28 -15 30 -14 94 41 47 40 66 63 66 80
0 32 -29 32 -60 -1 -13 -14 -32 -25 -42 -25 -18 0 -19 6 -14 104 4 57 4 111 0
120 -10 25 -53 20 -59 -7z"/>
<path d="M16930 23533 c0 -14 19 -38 25 -32 8 8 -5 39 -16 39 -5 0 -9 -3 -9
-7z"/>
<path d="M564 23488 c-4 -7 -2 -14 5 -16 7 -2 16 -15 21 -28 11 -29 26 -31 33
-5 6 24 -47 68 -59 49z"/>
<path d="M267 23484 c-11 -11 3 -24 24 -24 12 0 19 5 17 13 -5 14 -31 21 -41
11z"/>
<path d="M1000 23475 c0 -10 7 -15 18 -13 21 4 19 22 -2 26 -10 2 -16 -3 -16
-13z"/>
<path d="M4193 23455 c-15 -31 -15 -40 -4 -72 7 -20 14 -69 15 -110 1 -84 17
-106 71 -101 37 4 45 31 17 61 -12 14 -21 42 -25 79 -5 47 -2 59 14 74 25 22
24 38 -3 74 -31 42 -64 40 -85 -5z"/>
<path d="M97 23463 c-9 -11 -15 -36 -15 -63 0 -51 35 -103 78 -115 25 -8 25
-8 6 14 -11 11 -16 24 -13 28 4 4 -2 17 -14 29 -20 21 -21 27 -10 68 6 25 11
47 11 50 0 13 -28 5 -43 -11z"/>
<path d="M17808 23470 c-27 -3 -53 -11 -60 -18 -7 -7 -19 -12 -27 -12 -26 0
-107 -77 -136 -128 -23 -39 -27 -59 -28 -122 0 -83 13 -118 61 -166 40 -41 43
-57 21 -100 -24 -47 -24 -73 -1 -90 30 -23 66 -15 136 31 67 44 71 45 147 45
43 0 80 4 83 9 3 5 17 12 32 15 55 14 121 69 154 129 79 143 35 284 -115 375
-43 26 -62 31 -135 34 -47 3 -106 2 -132 -2z m212 -82 c78 -29 140 -112 140
-185 0 -130 -100 -212 -278 -227 -46 -4 -72 -13 -96 -31 -18 -14 -41 -25 -51
-25 -15 0 -17 6 -11 40 6 37 3 44 -30 78 -52 53 -65 86 -66 157 -1 55 2 69 27
102 44 57 78 80 155 102 38 11 170 4 210 -11z"/>
<path d="M17775 23239 c-13 -20 8 -24 130 -24 68 0 126 3 130 7 21 20 -15 28
-130 28 -77 0 -126 -4 -130 -11z"/>
<path d="M17765 23180 c-9 -14 8 -18 105 -23 93 -5 110 -2 110 19 0 11 -21 14
-104 14 -60 0 -108 -4 -111 -10z"/>
<path d="M2313 23446 c-18 -16 -35 -43 -43 -71 -11 -39 -10 -51 4 -90 21 -53
22 -54 89 -65 81 -13 141 24 160 98 7 29 -10 83 -38 118 -18 23 -31 28 -82 31
-53 4 -64 1 -90 -21z m130 -49 c26 -34 30 -47 28 -80 -1 -25 -49 -67 -76 -67
-34 0 -74 50 -81 100 -5 42 -4 46 23 62 45 28 77 23 106 -15z"/>
<path d="M870 23452 c0 -4 12 -20 27 -36 30 -33 44 -20 22 20 -11 22 -49 34
-49 16z"/>
<path d="M2609 23419 c-34 -36 -39 -49 -39 -89 0 -61 38 -109 96 -119 72 -13
118 25 48 40 -47 9 -73 28 -81 57 -9 35 -6 51 19 82 16 19 29 25 62 25 34 0
41 3 41 20 0 17 -8 20 -54 23 -51 3 -54 2 -92 -39z"/>
<path d="M2826 23438 c-15 -23 -15 -44 -1 -133 11 -76 32 -92 126 -100 103 -9
109 -4 108 89 -1 39 0 76 1 81 1 6 2 23 1 38 -1 25 -4 28 -28 25 l-28 -3 3
-74 c3 -65 0 -76 -19 -97 -51 -54 -99 -8 -99 93 0 95 -30 133 -64 81z"/>
<path d="M19348 23447 c-15 -7 -73 -55 -130 -107 -187 -172 -218 -205 -218
-233 0 -14 -5 -29 -10 -32 -6 -4 -17 -22 -25 -41 l-14 -34 46 -43 c25 -23 51
-41 57 -40 56 9 135 55 190 109 109 108 236 252 247 280 18 49 15 125 -6 140
-23 17 -100 17 -137 1z m90 -49 c29 -29 12 -60 -99 -187 -160 -183 -177 -201
-188 -201 -18 0 -81 75 -81 96 0 13 16 36 38 54 20 18 75 69 122 112 47 43
100 92 117 108 34 31 71 38 91 18z"/>
<path d="M3195 23442 c-50 -6 -53 -14 -51 -123 3 -103 10 -124 39 -113 14 5
17 19 16 74 -1 64 11 106 35 122 48 32 96 -55 75 -134 -12 -45 2 -78 31 -78
25 0 33 30 31 108 -2 71 16 112 49 112 35 0 54 -45 54 -131 0 -85 13 -104 46
-74 15 14 17 29 12 103 -6 110 -22 132 -97 132 -28 0 -56 -5 -62 -11 -8 -8
-17 -7 -34 1 -23 13 -92 19 -144 12z"/>
<path d="M3629 23404 c-25 -26 -32 -41 -33 -81 -3 -66 8 -94 50 -121 29 -19
43 -22 82 -16 51 7 72 19 72 40 0 10 -12 12 -48 7 -62 -7 -102 15 -102 58 0
15 5 31 11 34 5 4 7 19 4 34 -9 40 15 57 52 39 21 -10 28 -21 28 -41 -1 -34
38 -49 62 -24 13 13 14 20 4 46 -20 48 -41 60 -98 59 -45 -1 -57 -6 -84 -34z"/>
<path d="M3900 23423 c-18 -13 -20 -26 -20 -118 0 -62 4 -106 11 -110 5 -4 21
-4 34 -1 24 6 25 8 18 80 -5 70 -4 75 20 100 32 32 38 32 68 0 20 -22 24 -36
25 -92 1 -86 1 -89 19 -96 45 -17 55 27 35 149 -14 83 -32 98 -120 100 -46 1
-77 -3 -90 -12z"/>
<path d="M612 23372 c-7 -24 -22 -52 -33 -63 -22 -22 -24 -29 -6 -29 26 0 58
58 55 98 l-3 37 -13 -43z"/>
<path d="M6888 23384 c-7 -9 -22 -26 -34 -39 -12 -13 -24 -30 -27 -39 -8 -20
10 -31 27 -17 10 8 17 7 27 -5 10 -12 13 -48 12 -140 -2 -109 0 -125 16 -133
39 -21 44 -1 38 136 -8 139 -2 167 32 146 40 -25 42 18 3 63 -33 39 -75 51
-94 28z"/>
<path d="M966 23382 c-3 -6 -1 -14 5 -17 15 -10 25 3 12 16 -7 7 -13 7 -17 1z"/>
<path d="M15168 23353 c-17 -21 -58 -104 -58 -120 0 -6 -7 -16 -15 -23 -8 -7
-15 -28 -15 -46 0 -32 3 -34 39 -40 34 -5 41 -11 46 -35 7 -31 37 -40 52 -16
24 37 32 83 21 125 -6 23 -8 64 -4 89 9 68 -30 107 -66 66z m2 -132 c0 -10 -3
-21 -6 -24 -13 -12 -21 3 -17 28 6 27 23 24 23 -4z"/>
<path d="M1006 23338 c-24 -38 -24 -63 0 -66 30 -4 59 41 44 68 -14 26 -26 25
-44 -2z"/>
<path d="M15635 23340 c-3 -5 -1 -10 4 -10 6 0 11 5 11 10 0 6 -2 10 -4 10 -3
0 -8 -4 -11 -10z"/>
<path d="M16212 23334 c-11 -8 -15 -26 -14 -59 3 -57 5 -61 39 -70 38 -9 53
-23 53 -50 0 -29 -27 -52 -73 -60 -28 -5 -37 -12 -35 -24 2 -12 17 -17 56 -19
29 -2 52 1 52 7 0 5 7 17 16 26 9 9 20 34 25 56 12 51 -6 87 -55 113 -45 24
-45 33 -1 42 43 8 54 23 30 41 -22 15 -70 14 -93 -3z"/>
<path d="M422 23323 c4 -22 48 -31 48 -10 0 14 -20 27 -42 27 -5 0 -8 -8 -6
-17z"/>
<path d="M15948 23328 c-8 -7 -23 -38 -33 -68 -9 -30 -23 -71 -32 -90 -8 -19
-21 -50 -29 -68 -18 -42 -18 -62 0 -62 16 0 52 70 86 170 12 36 29 72 36 81
31 35 8 65 -28 37z"/>
<path d="M15640 23306 c0 -9 5 -16 10 -16 6 0 10 4 10 9 0 6 -4 13 -10 16 -5
3 -10 -1 -10 -9z"/>
<path d="M905 23280 c-3 -5 1 -10 10 -10 9 0 13 5 10 10 -3 6 -8 10 -10 10 -2
0 -7 -4 -10 -10z"/>
<path d="M18865 22912 c-42 -64 -9 -94 84 -76 35 7 47 14 48 29 4 33 -51 85
-91 85 -9 0 -27 -17 -41 -38z"/>
<path d="M1877 22779 c-19 -29 -12 -76 12 -83 9 -3 180 -7 381 -11 201 -3 435
-8 520 -10 85 -2 333 -6 550 -10 217 -3 525 -8 683 -11 211 -4 292 -2 302 6
15 12 10 66 -7 85 -6 6 -141 11 -361 12 -194 1 -473 4 -622 7 -393 8 -753 16
-1055 21 -146 2 -293 8 -326 11 -58 6 -63 5 -77 -17z"/>
<path d="M15620 22780 c0 -5 4 -10 9 -10 6 0 13 5 16 10 3 6 -1 10 -9 10 -9 0
-16 -4 -16 -10z"/>
<path d="M16442 22454 c-21 -15 -22 -21 -22 -185 l0 -169 26 -11 c29 -10 73
10 75 34 0 6 0 80 -1 162 -1 139 -2 151 -21 168 -26 21 -29 21 -57 1z"/>
<path d="M17845 22440 c-3 -5 1 -10 10 -10 9 0 13 5 10 10 -3 6 -8 10 -10 10
-2 0 -7 -4 -10 -10z"/>
<path d="M16834 22428 c-12 -18 -4 -431 8 -445 11 -14 7 -14 -1227 2 -967 12
-1864 25 -2680 40 -896 16 -1083 17 -1089 6 -4 -6 -16 -11 -26 -11 -27 0 -40
-30 -40 -92 0 -46 4 -58 28 -80 l27 -26 400 -6 c516 -8 871 -14 1495 -26 278
-6 735 -12 1015 -15 281 -3 593 -7 695 -10 102 -3 442 -7 755 -10 314 -3 620
-8 680 -11 l110 -6 34 30 c33 28 33 31 29 94 -2 41 -10 71 -19 81 -14 13 -15
48 -12 248 3 183 1 234 -9 240 -21 13 -166 11 -174 -3z m61 -523 c0 -11 -11
-22 -29 -28 -23 -8 -32 -6 -48 11 l-20 20 28 15 c33 17 69 8 69 -18z"/>
<path d="M1983 17863 c-23 -9 -14 -30 17 -43 30 -12 56 -64 80 -158 11 -46 77
-265 94 -312 6 -19 19 -36 28 -38 43 -8 74 134 35 163 -16 11 -50 105 -101
275 l-16 55 26 21 c15 12 23 27 20 33 -7 11 -158 15 -183 4z"/>
<path d="M2267 17863 c-13 -13 -7 -32 13 -38 27 -9 50 -55 50 -101 0 -21 6
-45 14 -53 8 -9 24 -41 36 -71 12 -30 26 -64 30 -75 5 -11 16 -59 26 -107 26
-131 66 -154 94 -54 13 49 7 98 -16 117 -21 17 -32 39 -48 101 -8 29 -26 91
-41 138 l-26 85 28 23 c24 19 26 24 13 32 -17 11 -163 14 -173 3z"/>
<path d="M2578 17863 c-24 -6 -23 -30 1 -42 10 -6 24 -24 29 -41 6 -16 14 -30
17 -30 3 0 19 16 36 35 17 19 39 37 50 40 23 8 25 31 3 39 -18 7 -109 6 -136
-1z"/>
<path d="M1070 17804 c-31 -28 -40 -44 -40 -69 0 -39 21 -59 54 -51 29 7 40
44 26 81 -15 39 -4 48 48 42 58 -6 81 -35 82 -97 0 -36 -6 -53 -30 -80 -33
-39 -37 -58 -15 -66 8 -3 24 -21 36 -40 18 -29 20 -44 15 -88 -8 -62 -27 -84
-78 -92 -47 -8 -71 15 -62 62 7 40 -8 64 -41 64 -46 0 -69 -55 -40 -97 42 -59
154 -80 231 -42 98 47 111 152 30 228 -32 30 -32 36 0 78 41 54 49 97 25 136
-30 48 -69 67 -140 67 -56 0 -64 -3 -101 -36z"/>
<path d="M3032 17806 c-21 -47 14 -85 58 -63 57 29 50 80 -12 85 -29 2 -36 -1
-46 -22z"/>
<path d="M5773 17814 c-3 -9 5 -26 20 -42 24 -26 25 -32 30 -202 6 -217 1
-264 -30 -268 -30 -4 -29 -18 2 -38 20 -13 39 -15 82 -11 81 8 86 17 31 63 -9
7 -12 36 -10 100 3 98 3 128 -1 287 -2 122 -5 127 -75 127 -29 0 -44 -5 -49
-16z"/>
<path d="M6804 17795 c-3 -8 6 -29 20 -46 l26 -31 0 -213 0 -214 -22 -3 c-15
-2 -24 -11 -26 -25 -3 -18 3 -23 33 -29 44 -8 113 0 128 15 8 8 4 19 -17 38
l-29 26 5 226 c3 125 1 236 -3 249 -7 19 -16 22 -59 22 -36 0 -52 -4 -56 -15z"/>
<path d="M3279 17716 c-11 -25 -33 -56 -50 -69 l-31 -24 31 -22 31 -22 0 -120
c0 -114 1 -121 25 -144 28 -28 85 -34 104 -11 10 12 7 18 -18 30 -16 9 -33 21
-36 26 -4 6 -9 55 -12 110 -6 110 1 130 46 130 14 0 33 5 41 10 13 9 13 11 0
20 -8 5 -27 10 -43 10 -31 0 -47 28 -47 86 0 47 -17 43 -41 -10z"/>
<path d="M7817 17742 c-20 -22 -22 -53 -5 -70 18 -18 63 -14 81 6 22 24 21 45
-1 65 -24 22 -55 21 -75 -1z"/>
<path d="M4985 17713 c-9 -42 -28 -75 -50 -87 -11 -6 -22 -12 -24 -14 -3 -1 9
-16 25 -33 29 -30 29 -32 29 -146 1 -113 1 -116 28 -139 44 -37 139 -30 124
10 -4 10 -18 16 -36 16 -36 0 -38 6 -47 122 -8 115 0 135 54 140 51 4 50 30
-2 39 -44 7 -52 17 -61 76 -7 49 -31 59 -40 16z"/>
<path d="M5554 17718 c-5 -7 -9 -21 -9 -32 -2 -19 -50 -69 -76 -78 -10 -4 -5
-15 18 -39 31 -33 31 -36 35 -147 3 -110 4 -114 31 -138 15 -13 41 -24 56 -24
29 0 73 28 56 36 -68 31 -78 55 -73 189 l3 80 38 6 c53 8 68 25 33 39 -15 5
-36 10 -46 10 -13 0 -22 11 -29 38 -6 20 -11 42 -11 49 0 18 -18 25 -26 11z"/>
<path d="M11037 17672 c-22 -24 -21 -55 1 -75 25 -23 39 -21 67 7 26 26 25 51
-3 74 -22 17 -46 15 -65 -6z"/>
<path d="M12345 17650 c-24 -25 -30 -41 -33 -90 -4 -49 -9 -64 -28 -79 -30
-24 -30 -36 0 -56 23 -15 25 -22 25 -115 1 -92 -1 -101 -24 -126 -47 -51 -31
-64 76 -64 56 0 71 3 76 17 4 10 1 19 -6 21 -8 3 -22 13 -33 24 -16 16 -18 32
-16 131 l3 112 30 5 c36 6 37 20 1 38 -39 20 -47 42 -36 103 12 63 27 82 44
56 29 -47 33 -50 59 -43 35 8 46 49 22 76 -14 15 -31 20 -75 20 -49 0 -60 -4
-85 -30z"/>
<path d="M13706 17657 c-18 -13 -18 -15 9 -39 l28 -26 5 -206 4 -206 -32 -30
c-20 -19 -29 -35 -24 -40 14 -14 142 -16 155 -3 8 8 5 19 -11 41 -21 28 -22
37 -16 129 4 54 6 109 5 123 0 14 -2 76 -3 137 -1 62 -5 115 -9 119 -14 14
-92 15 -111 1z"/>
<path d="M2723 17643 c-26 -5 -31 -28 -9 -36 8 -3 19 -21 24 -39 8 -31 8 -49
4 -160 -2 -44 -16 -70 -44 -81 -9 -4 -7 -10 7 -22 29 -23 168 -18 173 7 2 12
-5 19 -22 24 -14 3 -28 13 -31 23 -8 27 -9 112 -1 187 6 54 5 73 -6 81 -16 13
-65 21 -95 16z"/>
<path d="M2854 17629 c-7 -12 43 -69 61 -69 7 0 19 8 28 18 15 16 15 20 1 40
-16 24 -77 31 -90 11z"/>
<path d="M3015 17629 c-4 -6 4 -22 16 -36 22 -23 24 -33 23 -130 -1 -102 -1
-105 -29 -127 -41 -33 -25 -46 56 -46 78 0 92 11 64 53 -12 18 -17 58 -21 149
-3 67 -7 129 -9 136 -5 15 -91 16 -100 1z"/>
<path d="M3562 17598 c-66 -69 -77 -166 -26 -240 32 -46 61 -63 124 -72 40 -6
50 -3 88 25 23 17 42 37 42 45 0 20 -17 17 -42 -6 -28 -26 -95 -26 -125 -1
-12 10 -28 39 -35 64 -10 41 -10 48 6 66 14 16 15 23 5 38 -8 14 -9 28 -2 49
8 26 15 29 56 32 43 3 48 1 66 -29 16 -26 17 -36 8 -56 -13 -30 3 -45 47 -41
44 4 53 28 31 78 -29 65 -55 80 -139 80 -68 0 -74 -2 -104 -32z"/>
<path d="M4151 17581 c-55 -53 -68 -92 -57 -163 8 -50 35 -90 82 -118 29 -18
46 -22 98 -18 105 6 167 69 168 168 0 106 -74 178 -184 179 -56 0 -59 -2 -107
-48z m162 -1 c14 -11 33 -40 42 -64 14 -37 15 -53 6 -97 -17 -78 -34 -99 -79
-99 -81 0 -115 56 -102 165 14 112 16 115 65 115 27 0 51 -7 68 -20z"/>
<path d="M4500 17620 c-12 -7 -11 -13 10 -35 23 -24 25 -36 30 -145 6 -137 17
-160 79 -160 56 0 70 15 34 34 -17 8 -33 23 -37 31 -3 9 -6 70 -6 135 0 94 -3
122 -16 134 -17 18 -71 21 -94 6z"/>
<path d="M4705 17620 c-4 -6 5 -26 19 -45 23 -30 26 -42 26 -117 -1 -53 -6
-92 -15 -108 -19 -33 -19 -36 7 -60 25 -23 99 -28 117 -7 8 11 5 19 -14 37
-24 23 -25 28 -25 151 0 121 -1 129 -22 143 -25 18 -84 21 -93 6z"/>
<path d="M14128 17605 c-9 -19 -8 -29 6 -50 20 -31 49 -32 76 -3 37 40 20 78
-37 78 -26 0 -36 -6 -45 -25z"/>
<path d="M17525 17587 c-43 -42 -45 -46 -45 -101 0 -101 32 -137 151 -172 45
-13 87 -29 95 -35 23 -19 36 -73 24 -104 -16 -42 -39 -54 -102 -55 -51 0 -59
3 -83 31 -14 18 -35 50 -47 72 -19 38 -21 40 -34 22 -16 -22 -19 -160 -4 -170
5 -3 23 1 38 11 27 15 30 15 56 -1 17 -11 48 -18 85 -19 49 -1 63 3 94 27 20
15 44 42 53 58 17 34 20 112 6 149 -15 39 -67 82 -109 90 -106 23 -153 57
-153 114 0 57 52 94 114 82 37 -7 53 -22 86 -83 13 -24 29 -43 36 -43 19 0 38
99 25 133 -12 30 -19 32 -55 15 -21 -9 -29 -8 -44 5 -13 12 -37 17 -80 17 -59
0 -64 -2 -107 -43z"/>
<path d="M19141 17621 c-34 -9 -36 -25 -6 -56 l25 -28 0 -212 0 -212 -25 -11
c-31 -14 -32 -26 -3 -46 40 -29 138 -11 138 25 0 5 -10 19 -21 30 -20 20 -21
29 -15 103 12 158 9 377 -6 391 -18 17 -57 24 -87 16z"/>
<path d="M15228 17609 c-21 -12 -24 -59 -6 -77 18 -18 52 -14 76 8 26 25 28
43 6 64 -18 18 -51 20 -76 5z"/>
<path d="M21413 17605 c-28 -20 -29 -35 -3 -58 17 -14 20 -29 20 -90 0 -41 -5
-78 -11 -84 -9 -9 -9 -20 0 -44 6 -17 11 -68 11 -112 0 -62 -4 -87 -20 -112
l-20 -33 33 -21 c34 -21 71 -26 101 -15 21 8 21 48 0 65 -13 11 -15 44 -13
244 1 131 -2 238 -7 248 -14 25 -64 31 -91 12z"/>
<path d="M6003 17603 c-28 -5 -29 -10 -3 -31 27 -22 39 -78 40 -174 0 -72 -2
-79 -25 -94 -31 -20 -32 -42 -2 -48 12 -3 34 -7 49 -11 16 -3 44 2 65 11 l38
15 -30 25 -30 24 -2 117 c-2 118 -2 118 -33 146 -17 15 -34 26 -38 26 -4 -1
-17 -4 -29 -6z"/>
<path d="M16462 17598 c-7 -7 -12 -24 -12 -38 0 -53 50 -67 90 -25 20 21 22
28 12 50 -9 19 -19 25 -45 25 -18 0 -38 -5 -45 -12z"/>
<path d="M19636 17589 c-38 -30 -56 -71 -56 -128 0 -36 -5 -53 -17 -59 -15 -9
-15 -13 1 -65 25 -78 18 -237 -11 -237 -7 0 -16 -7 -20 -16 -9 -25 24 -44 78
-44 87 0 132 40 69 61 l-30 11 0 111 0 112 30 17 c39 22 38 41 -2 53 -31 9
-33 13 -30 50 3 41 20 95 30 95 3 0 18 -12 34 -26 26 -26 28 -26 53 -10 35 23
34 61 -5 81 -41 21 -92 19 -124 -6z"/>
<path d="M23283 17598 c-32 -16 -35 -34 -7 -52 l24 -16 0 -205 0 -204 -31 -35
c-17 -20 -28 -40 -24 -46 3 -5 40 -10 81 -10 86 0 98 11 64 58 -22 29 -22 32
-13 253 6 123 8 229 6 236 -3 6 -18 16 -35 22 -36 13 -36 13 -65 -1z"/>
<path d="M6279 17578 c-56 -34 -79 -74 -79 -140 0 -121 58 -188 163 -188 46 0
60 5 86 27 17 15 31 36 31 47 0 18 -1 18 -24 -3 -15 -15 -42 -25 -70 -28 -40
-5 -48 -2 -74 24 -34 33 -50 100 -33 132 7 11 9 32 5 45 -8 35 21 76 55 76 44
-1 76 -36 76 -83 0 -36 3 -43 28 -51 63 -22 89 46 40 104 -51 61 -138 77 -204
38z"/>
<path d="M17916 17584 c-20 -20 -17 -63 5 -77 26 -16 68 0 75 30 4 14 2 33 -3
42 -14 22 -57 25 -77 5z"/>
<path d="M13475 17540 c-11 -34 -28 -59 -51 -76 -36 -28 -36 -40 2 -54 23 -9
24 -13 24 -120 0 -65 5 -120 11 -133 28 -52 85 -72 124 -43 22 16 14 46 -13
46 -36 0 -43 23 -40 136 l3 109 40 5 c26 3 40 10 40 20 0 8 -17 19 -40 26 -31
8 -41 16 -43 35 -6 47 -23 99 -32 99 -4 0 -16 -23 -25 -50z"/>
<path d="M19360 17568 c-23 -25 -24 -32 -10 -59 21 -38 100 -13 100 33 0 19
-32 48 -53 48 -9 0 -25 -10 -37 -22z"/>
<path d="M7089 17563 c-14 -9 -38 -40 -54 -68 -24 -46 -27 -60 -22 -109 10
-101 62 -148 167 -150 59 -1 70 2 101 28 48 40 70 81 71 130 1 65 -19 112 -65
151 -38 33 -45 35 -106 34 -41 0 -76 -7 -92 -16z m131 -29 c59 -50 76 -143 39
-219 -12 -25 -21 -31 -53 -33 -89 -8 -116 24 -116 137 0 78 12 114 44 129 34
17 52 14 86 -14z"/>
<path d="M7698 17575 c-3 -3 -33 -9 -66 -13 l-61 -7 19 -40 c24 -50 26 -120 4
-129 -8 -3 -12 -10 -9 -16 8 -12 52 10 79 39 15 17 18 30 13 71 l-6 51 34 -7
c28 -5 36 -3 42 11 8 23 -32 56 -49 40z"/>
<path d="M22222 17564 c-26 -18 -29 -56 -6 -79 22 -22 53 -15 76 15 22 31 16
53 -18 69 -31 14 -25 14 -52 -5z"/>
<path d="M7454 17534 c-40 -42 -43 -70 -12 -130 18 -36 27 -44 49 -44 33 0 44
13 25 30 -33 26 -26 140 9 154 24 9 17 26 -11 26 -18 0 -38 -12 -60 -36z"/>
<path d="M7800 17552 c0 -10 8 -29 17 -42 13 -19 19 -51 21 -127 4 -100 4
-101 -22 -118 -21 -14 -24 -21 -15 -36 8 -15 21 -19 62 -19 30 0 60 7 71 15
19 15 19 15 -2 38 -20 21 -22 34 -22 146 0 67 -5 131 -10 142 -15 27 -100 28
-100 1z"/>
<path d="M8098 17550 c-18 -9 -46 -34 -63 -54 -28 -35 -30 -44 -30 -114 0 -64
4 -82 22 -108 30 -42 80 -64 142 -64 42 0 56 5 86 31 36 32 44 53 23 65 -6 4
-20 -4 -33 -19 -17 -22 -29 -27 -67 -27 -39 0 -50 5 -72 31 -22 26 -26 40 -26
97 0 84 25 132 68 132 33 0 52 -16 52 -45 0 -25 29 -55 53 -55 22 0 50 44 43
67 -19 59 -136 97 -198 63z"/>
<path d="M8648 17517 c-80 -57 -96 -152 -43 -244 49 -82 170 -105 230 -43 30
31 17 54 -14 26 -25 -22 -83 -20 -114 5 -33 25 -52 90 -39 128 6 15 8 39 5 53
-7 35 44 93 73 84 27 -9 64 -70 64 -106 0 -36 30 -56 60 -40 30 16 27 71 -7
110 -32 39 -63 52 -127 54 -39 2 -56 -3 -88 -27z"/>
<path d="M8936 17541 c-10 -16 5 -40 40 -62 19 -11 34 -24 34 -27 0 -4 11 -19
24 -33 13 -14 31 -41 41 -59 9 -18 32 -48 51 -67 26 -25 34 -42 34 -69 0 -42
30 -60 83 -50 57 11 68 39 25 62 -26 14 -118 126 -118 143 0 8 -16 29 -35 47
-25 23 -35 40 -35 62 0 46 -23 62 -85 62 -30 0 -56 -4 -59 -9z"/>
<path d="M16710 17530 c-5 -10 -10 -28 -10 -39 0 -11 -15 -36 -34 -55 l-34
-34 24 -21 c25 -22 27 -36 24 -168 -1 -67 17 -115 49 -133 24 -13 67 -13 90
-1 31 17 56 133 26 123 -6 -2 -15 -20 -20 -40 -10 -36 -38 -53 -56 -35 -12 12
-19 215 -8 236 7 11 22 17 45 17 22 0 37 6 41 15 8 21 1 26 -46 32 -38 5 -41
8 -41 37 0 68 -29 106 -50 66z"/>
<path d="M9167 17534 c-19 -20 -3 -84 22 -83 33 1 96 44 96 64 0 17 -8 20 -55
23 -31 2 -59 0 -63 -4z"/>
<path d="M9358 17529 c-23 -13 -23 -28 2 -53 17 -19 19 -38 21 -206 1 -117 -2
-185 -8 -187 -6 -2 -19 -10 -29 -18 -17 -13 -18 -15 -3 -30 9 -9 40 -19 70
-22 45 -4 58 -2 79 16 l25 21 -27 20 c-35 27 -46 88 -23 124 15 23 16 30 4 59
-8 19 -13 64 -12 110 2 88 19 127 57 127 34 0 88 -41 108 -80 31 -63 21 -113
-33 -174 -40 -46 -30 -64 26 -46 26 9 45 25 66 58 55 87 32 203 -52 259 -38
25 -42 26 -101 15 -50 -9 -65 -9 -89 3 -33 17 -57 19 -81 4z"/>
<path d="M9782 17518 c-17 -17 -15 -26 8 -55 17 -22 20 -41 20 -129 0 -93 -2
-104 -20 -114 -28 -15 -26 -48 3 -55 13 -4 50 -5 82 -3 52 3 60 6 63 24 2 14
-5 24 -22 32 -20 9 -26 21 -32 69 -4 34 -2 85 4 123 l12 65 -30 28 c-32 29
-68 35 -88 15z"/>
<path d="M9923 17495 c-7 -19 43 -66 66 -62 23 4 37 34 25 55 -15 24 -82 29
-91 7z"/>
<path d="M10222 17499 c-13 -5 -34 -6 -47 -3 -37 9 -64 -4 -96 -48 -25 -35
-29 -50 -29 -102 1 -84 27 -139 79 -165 48 -25 108 -27 139 -5 31 22 19 34
-34 34 -34 0 -51 6 -69 24 -29 29 -48 92 -35 116 5 10 9 34 8 53 -2 66 42 91
97 57 30 -19 35 -27 35 -60 0 -29 5 -42 20 -50 53 -28 82 49 39 104 -17 22
-70 58 -81 55 -2 0 -13 -4 -26 -10z"/>
<path d="M11043 17499 c-32 -12 -36 -27 -14 -55 18 -23 21 -41 21 -127 0 -89
-2 -103 -21 -123 -36 -38 -19 -54 55 -54 73 0 82 9 57 55 -12 23 -16 60 -17
152 -1 78 -5 127 -13 137 -16 19 -42 25 -68 15z"/>
<path d="M22470 17495 c0 -26 -38 -93 -60 -105 -25 -14 -26 -47 -1 -55 18 -5
20 -18 23 -130 3 -115 5 -125 27 -149 32 -34 79 -35 109 -3 32 34 28 47 -13
40 -31 -5 -36 -3 -45 22 -6 16 -9 69 -8 119 3 82 5 91 23 94 76 11 88 34 31
57 -41 18 -45 23 -54 77 -7 40 -32 67 -32 33z"/>
<path d="M10573 17493 c-13 -2 -23 -8 -23 -12 0 -8 37 -43 57 -55 19 -10 36
30 23 54 -11 20 -15 21 -57 13z"/>
<path d="M10455 17480 c-3 -5 -2 -10 4 -10 5 0 13 5 16 10 3 6 2 10 -4 10 -5
0 -13 -4 -16 -10z"/>
<path d="M10745 17480 c-3 -5 3 -10 15 -10 12 0 18 5 15 10 -3 6 -10 10 -15
10 -5 0 -12 -4 -15 -10z"/>
<path d="M10843 17484 c-18 -8 54 -77 73 -70 19 7 18 62 -2 70 -18 7 -53 7
-71 0z"/>
<path d="M11272 17460 c-43 -31 -72 -89 -72 -143 0 -43 43 -127 77 -152 42
-30 129 -33 175 -6 112 67 127 200 33 291 -31 30 -40 33 -104 36 -64 2 -74 -1
-109 -26z m150 -30 c38 -29 52 -72 45 -137 -6 -62 -43 -113 -81 -113 -37 0
-83 36 -96 75 -16 47 -9 135 13 169 22 33 82 36 119 6z"/>
<path d="M11600 17475 c-11 -13 -9 -20 13 -43 26 -27 27 -34 27 -127 0 -96 -1
-100 -27 -121 -17 -14 -24 -26 -20 -37 5 -14 20 -17 77 -17 80 0 97 15 63 53
-33 36 -37 156 -7 257 10 37 -100 67 -126 35z"/>
<path d="M11793 17473 c-31 -6 -28 -15 10 -33 l32 -15 3 -111 c2 -100 1 -112
-18 -129 -39 -35 -26 -52 43 -59 34 -4 70 -4 80 0 23 8 22 37 -3 59 -17 16
-20 31 -20 116 0 159 -24 192 -127 172z"/>
<path d="M12595 17462 c-60 -12 -115 -90 -115 -164 1 -147 145 -228 263 -148
137 92 83 312 -76 315 -29 0 -61 -1 -72 -3z m96 -42 c48 -26 68 -144 34 -209
-49 -96 -165 -38 -165 83 0 60 14 116 32 128 18 11 76 10 99 -2z"/>
<path d="M12890 17463 c-8 -2 -21 -7 -28 -9 -10 -3 -5 -15 18 -40 l32 -37 -4
-99 c-3 -96 -4 -100 -31 -120 -45 -32 -21 -48 75 -48 94 0 111 16 59 57 -29
23 -31 28 -31 92 0 88 10 161 22 161 6 0 24 -11 40 -25 27 -23 33 -24 52 -12
25 17 32 43 16 62 -14 17 -72 20 -100 5 -13 -7 -26 -5 -47 5 -29 15 -47 17
-73 8z"/>
<path d="M10412 17448 c-19 -19 -13 -71 11 -100 25 -30 64 -48 106 -48 36 0
81 -35 81 -64 0 -21 -23 -48 -51 -59 -11 -4 -11 -6 -1 -6 25 -2 52 20 77 59
19 30 23 45 16 62 -12 30 -49 64 -81 73 -60 16 -111 41 -115 57 -9 27 -30 39
-43 26z"/>
<path d="M10702 17438 c-38 -38 42 -138 111 -138 28 0 87 -46 87 -68 0 -6 -12
-24 -26 -41 -38 -46 -4 -41 41 6 46 47 46 82 3 127 -22 21 -53 39 -91 50 -40
12 -64 26 -79 47 -24 32 -29 34 -46 17z"/>
<path d="M13918 17443 c-35 -5 -36 -20 -3 -35 33 -15 37 -32 37 -146 0 -92 -1
-97 -26 -117 -14 -11 -26 -26 -26 -32 0 -25 124 -32 156 -8 19 14 18 15 -6 34
-24 19 -25 24 -25 134 0 91 -4 118 -18 140 -10 15 -21 27 -26 27 -5 0 -15 2
-23 3 -7 2 -25 2 -40 0z"/>
<path d="M14125 17436 c-20 -14 -20 -15 3 -39 19 -21 25 -40 29 -104 6 -90 -8
-149 -38 -158 -23 -8 -25 -31 -3 -39 34 -13 131 -6 145 10 11 14 10 18 -5 30
-25 18 -35 87 -29 200 3 50 2 94 -3 97 -25 15 -80 17 -99 3z"/>
<path d="M14341 17409 c-37 -33 -41 -74 -11 -111 23 -30 78 -58 112 -58 25 0
68 -37 68 -58 0 -24 -40 -52 -72 -52 -39 0 -47 5 -77 48 -25 36 -51 42 -51 13
0 -11 -2 -25 -5 -33 -12 -31 19 -48 105 -59 l85 -10 37 40 c43 46 51 94 21
129 -24 28 -92 62 -124 62 -28 0 -69 37 -69 62 0 11 12 17 37 20 57 7 84 -2
102 -33 9 -16 22 -29 28 -29 15 0 26 38 21 71 -3 23 -7 24 -90 25 -82 1 -88 0
-117 -27z"/>
<path d="M14960 17428 c-65 -25 -103 -88 -104 -173 -1 -72 27 -122 88 -156 55
-31 128 -22 168 21 30 33 37 60 15 60 -8 0 -24 -11 -37 -25 -20 -21 -32 -25
-64 -23 -33 2 -44 9 -63 37 -31 46 -32 141 -3 189 19 30 24 33 63 30 37 -3 42
-6 39 -25 -8 -61 48 -83 78 -31 14 27 14 29 -21 64 -30 30 -45 37 -85 39 -27
2 -60 -1 -74 -7z"/>
<path d="M15200 17415 c0 -9 9 -29 21 -44 19 -25 21 -40 18 -126 -4 -92 -5
-98 -32 -117 -41 -30 -20 -48 53 -48 87 0 113 16 73 46 -16 11 -18 31 -19 146
-1 73 -2 139 -3 146 -1 8 -19 12 -56 12 -43 0 -55 -3 -55 -15z"/>
<path d="M15404 17415 c-4 -9 3 -22 16 -33 19 -16 21 -27 22 -126 0 -112 -4
-125 -45 -139 -6 -2 -8 -11 -4 -20 5 -14 21 -17 90 -17 59 0 88 4 96 14 13 16
-1 31 -34 38 -17 3 -21 15 -28 68 -5 40 -4 81 2 107 24 93 8 122 -67 123 -29
0 -44 -5 -48 -15z"/>
<path d="M15551 17417 c-8 -10 -3 -21 23 -46 30 -29 36 -31 55 -19 23 14 28
47 9 66 -16 16 -73 15 -87 -1z"/>
<path d="M15748 17397 c-49 -43 -68 -85 -68 -152 0 -107 59 -165 166 -165 58
0 64 2 93 35 17 20 31 40 31 45 0 22 -24 20 -49 -4 -21 -20 -37 -26 -73 -26
-45 0 -47 2 -67 43 -50 103 0 239 77 211 17 -7 26 -17 25 -29 -5 -55 37 -84
71 -49 25 24 19 62 -14 94 -27 27 -37 30 -93 30 -56 0 -66 -4 -99 -33z"/>
<path d="M16030 17420 c-12 -8 -10 -14 13 -38 26 -27 27 -32 27 -138 0 -109 0
-111 29 -138 27 -26 33 -28 80 -21 64 9 73 21 21 30 -22 4 -43 11 -46 17 -3 5
-6 68 -5 141 0 81 -4 136 -11 144 -12 15 -86 17 -108 3z"/>
<path d="M16234 17415 c-4 -9 2 -25 14 -38 27 -28 38 -125 22 -187 -6 -25 -14
-55 -17 -67 -10 -40 81 -69 123 -39 19 14 19 15 -3 38 -21 22 -23 35 -25 163
l-3 140 -53 3 c-41 2 -54 -1 -58 -13z"/>
<path d="M16451 17421 c-14 -9 -13 -14 14 -61 16 -27 21 -205 7 -226 -4 -6
-17 -14 -29 -18 -58 -18 -4 -48 80 -44 51 2 62 6 65 21 2 11 -5 25 -17 34 -20
14 -21 22 -20 150 1 105 -2 137 -12 144 -18 11 -70 11 -88 0z"/>
<path d="M17893 17405 c-3 -9 1 -23 10 -33 17 -18 28 -144 20 -219 -4 -33 -9
-43 -23 -43 -24 0 -35 -17 -21 -34 16 -19 84 -28 116 -16 32 12 44 39 22 52
-15 8 -17 29 -17 146 0 94 -4 142 -12 150 -18 18 -87 15 -95 -3z"/>
<path d="M18108 17413 c-23 -6 -23 -22 1 -47 20 -22 24 -54 22 -184 -1 -57 -3
-63 -26 -72 -71 -27 34 -75 109 -50 40 13 49 44 16 53 -15 4 -20 14 -22 44 -3
72 4 148 15 181 11 32 10 36 -16 58 -27 23 -58 28 -99 17z"/>
<path d="M1441 17384 c-27 -35 -26 -50 5 -70 24 -16 27 -16 52 3 35 26 39 57
10 77 -31 22 -43 20 -67 -10z"/>
<path d="M18250 17395 c0 -10 10 -15 29 -15 50 0 61 -29 61 -152 0 -106 -1
-109 -25 -120 -14 -6 -25 -17 -25 -24 0 -14 52 -34 91 -34 61 0 107 45 59 57
-11 3 -23 17 -26 30 -6 24 0 120 12 194 6 35 5 37 -38 58 -53 25 -138 29 -138
6z"/>
<path d="M18467 17403 c-14 -13 -6 -23 18 -23 44 0 65 -50 65 -155 0 -95 -4
-107 -33 -118 -30 -11 -16 -41 24 -51 77 -19 150 19 101 52 -20 13 -22 22 -22
127 0 107 -1 115 -26 144 -22 27 -33 31 -73 31 -26 0 -51 -3 -54 -7z"/>
<path d="M18710 17393 c0 -10 9 -29 20 -43 18 -23 20 -42 20 -202 l0 -177 -30
-16 c-16 -9 -30 -19 -30 -24 0 -29 95 -50 143 -32 30 12 48 42 29 49 -42 14
-57 89 -26 123 15 16 15 22 3 51 -21 49 -16 204 7 229 36 40 106 9 135 -59 23
-53 24 -83 3 -125 -26 -52 -45 -67 -80 -67 -39 0 -53 -15 -21 -24 111 -30 187
32 187 153 0 72 -15 105 -66 150 -34 31 -40 32 -93 27 -69 -7 -73 -7 -143 0
-52 5 -58 4 -58 -13z"/>
<path d="M19358 17403 c-22 -5 -22 -29 -3 -63 10 -17 14 -57 15 -122 0 -94 -1
-97 -27 -117 l-28 -21 24 -20 c39 -33 131 -22 131 16 0 9 -7 23 -16 32 -15 14
-16 33 -10 137 8 154 -6 179 -86 158z"/>
<path d="M20005 17396 c-17 -12 -18 -17 -5 -55 7 -22 18 -41 25 -41 6 0 30 14
53 31 43 32 54 62 26 73 -27 11 -80 6 -99 -8z"/>
<path d="M19754 17389 c-3 -6 5 -23 19 -37 26 -28 67 -107 67 -129 0 -7 6 -27
14 -45 8 -18 24 -57 36 -86 l21 -53 -21 -33 c-36 -59 -49 -65 -74 -33 -28 34
-63 35 -78 2 -9 -19 -7 -29 7 -51 15 -24 21 -26 63 -21 37 4 53 12 79 41 18
20 33 46 33 60 0 13 7 30 17 37 22 19 43 71 43 108 0 22 -6 30 -23 35 -38 9
-84 127 -67 171 6 15 8 31 4 36 -8 13 -131 11 -140 -2z"/>
<path d="M20508 17391 c-72 -15 -110 -59 -93 -110 7 -24 46 -29 63 -8 6 7 12
30 14 52 4 50 22 54 66 17 l34 -28 1 -118 c2 -116 3 -119 29 -139 49 -36 116
6 69 45 -18 14 -21 27 -21 106 0 111 -8 134 -59 167 -43 26 -45 27 -103 16z"/>
<path d="M20780 17380 c-8 -16 -6 -24 12 -42 21 -21 23 -34 25 -124 3 -99 2
-102 -22 -118 -50 -33 -20 -66 58 -66 32 0 49 6 62 20 18 20 18 21 -8 46 -25
23 -26 28 -22 97 3 39 10 91 16 115 11 39 10 45 -11 67 -30 32 -94 35 -110 5z"/>
<path d="M20976 17381 c-3 -5 4 -21 17 -37 19 -24 23 -43 25 -125 4 -92 3 -97
-22 -124 -14 -15 -26 -32 -26 -37 0 -24 104 -37 141 -18 24 14 24 32 -1 55
-18 16 -20 31 -20 132 0 110 -1 115 -26 138 -27 25 -77 34 -88 16z"/>
<path d="M21264 17371 c-80 -49 -108 -163 -62 -250 32 -59 85 -88 127 -70 l29
13 -30 15 c-46 22 -68 66 -68 134 0 63 9 88 47 129 42 44 13 63 -43 29z"/>
<path d="M21925 17371 c-47 -29 -72 -62 -88 -118 -14 -45 -14 -57 -1 -99 17
-56 36 -79 86 -105 62 -32 117 -22 169 30 47 47 33 71 -18 31 -16 -12 -41 -20
-65 -20 -75 0 -112 71 -88 170 14 58 42 83 87 78 23 -2 29 -9 31 -33 7 -58 49
-75 77 -31 15 22 15 27 0 55 -30 59 -128 81 -190 42z"/>
<path d="M22203 17383 c-19 -7 -16 -40 5 -52 14 -8 17 -25 17 -113 0 -100 -1
-104 -28 -131 -42 -41 -31 -52 51 -55 81 -3 97 9 68 53 -13 19 -16 52 -16 153
0 86 -4 132 -12 140 -12 12 -62 15 -85 5z"/>
<path d="M23845 17383 c-11 -3 -26 -10 -34 -16 -11 -9 -9 -15 12 -32 27 -22
55 -84 82 -180 36 -128 49 -141 85 -82 23 37 19 70 -11 103 -11 12 -29 50 -39
85 -18 59 -18 64 -3 81 10 11 13 22 7 27 -12 11 -74 20 -99 14z"/>
<path d="M24227 17383 c-36 -6 -45 -28 -22 -53 23 -25 53 -25 83 -1 26 22 29
46 6 55 -16 6 -18 6 -67 -1z"/>
<path d="M22793 17371 c-116 -14 -168 -138 -106 -252 33 -61 78 -89 141 -89
40 1 53 6 90 38 23 21 42 43 42 50 0 25 -23 22 -52 -7 -39 -38 -96 -43 -127
-12 -28 28 -47 96 -33 114 6 7 10 32 9 56 -1 32 3 47 18 57 28 20 72 17 96 -7
20 -20 21 -31 8 -78 -5 -20 47 -39 69 -25 44 28 26 108 -33 144 -34 21 -37 21
-122 11z"/>
<path d="M23586 17373 c-59 -6 -96 -37 -96 -79 0 -39 18 -51 49 -34 15 8 21
21 21 46 0 22 6 37 15 40 20 8 73 -14 85 -36 5 -9 8 -67 6 -128 l-3 -111 29
-21 c17 -13 40 -20 56 -18 22 2 28 9 30 34 2 25 -1 33 -17 37 -19 5 -21 13
-21 107 l0 102 -37 34 c-20 19 -46 33 -57 32 -12 -1 -39 -3 -60 -5z"/>
<path d="M24003 17373 c-20 -7 -15 -23 12 -45 17 -13 25 -29 25 -49 0 -16 9
-42 20 -57 11 -15 28 -58 38 -96 19 -77 41 -101 68 -75 8 9 18 34 21 55 4 34
1 43 -30 74 -45 48 -68 131 -42 160 9 10 14 24 10 29 -6 11 -99 14 -122 4z"/>
<path d="M24464 17373 c-51 -3 -65 -8 -87 -31 -43 -46 -44 -74 -3 -116 25 -24
49 -38 77 -42 50 -8 89 -38 89 -69 0 -30 -26 -45 -78 -45 -35 0 -43 4 -61 35
-36 62 -71 56 -71 -11 0 -50 20 -58 151 -55 38 1 52 7 82 36 75 73 30 157 -96
180 -53 10 -100 74 -64 88 7 3 33 3 58 2 32 -3 50 -10 66 -29 29 -35 50 -33
58 4 8 37 -8 61 -39 58 -11 -1 -48 -3 -82 -5z"/>
<path d="M7449 17313 c-1 -5 0 -22 1 -38 1 -22 -7 -38 -29 -59 -17 -17 -31
-37 -31 -47 0 -44 82 -96 140 -87 32 4 38 28 7 28 -13 0 -36 10 -51 21 -21 16
-26 28 -24 53 l3 31 74 3 c114 5 164 -23 141 -78 -10 -25 -18 -30 -46 -30 -42
0 -53 -17 -19 -30 19 -7 35 -6 60 4 81 34 97 92 42 152 -31 34 -36 36 -118 43
-55 4 -95 12 -112 24 -29 19 -36 21 -38 10z"/>
<path d="M9001 17260 c-13 -11 -34 -20 -47 -20 -14 0 -27 -7 -30 -15 -11 -27
16 -45 66 -45 59 0 77 17 64 62 -11 39 -22 43 -53 18z"/>
<path d="M10399 17246 c-6 -13 -9 -36 -5 -50 6 -24 11 -26 56 -26 28 0 50 3
50 8 0 4 -12 18 -25 31 -14 13 -25 27 -25 32 0 4 -9 13 -20 19 -17 9 -22 7
-31 -14z"/>
<path d="M10690 17216 c0 -36 4 -46 20 -51 21 -7 60 10 60 26 0 22 -42 69 -61
69 -16 0 -19 -7 -19 -44z"/>
<path d="M13611 17204 c0 -11 3 -14 6 -6 3 7 2 16 -1 19 -3 4 -6 -2 -5 -13z"/>
<path d="M20411 17189 c-41 -40 -43 -88 -5 -118 50 -39 128 -16 84 24 -23 21
-26 62 -5 89 22 29 19 36 -14 36 -20 0 -40 -10 -60 -31z"/>
<path d="M23534 17210 c-31 -12 -74 -68 -74 -96 0 -46 85 -103 112 -76 7 7 4
19 -11 38 -27 34 -27 78 -1 104 12 12 18 25 15 30 -7 12 -13 12 -41 0z"/>
<path d="M16970 17158 c-22 -24 -25 -40 -10 -69 21 -38 100 -13 100 33 0 17
-41 58 -58 58 -6 0 -20 -10 -32 -22z"/>
<path d="M24685 17106 c-12 -18 -13 -30 -6 -50 19 -49 101 -27 101 28 0 49
-67 65 -95 22z"/>
<path d="M5121 16682 c-23 -44 -15 -52 52 -52 97 0 248 -26 396 -69 332 -96
616 -138 616 -91 0 10 -22 18 -80 27 -112 18 -192 37 -410 98 -227 64 -371 94
-481 102 -76 5 -83 4 -93 -15z"/>
<path d="M6877 16525 c-34 -17 -34 -53 0 -66 33 -14 828 -18 906 -5 36 5 47
11 47 26 0 25 -47 32 -200 27 -139 -4 -519 8 -648 21 -56 5 -91 5 -105 -3z"/>
<path d="M15862 16475 c-23 -10 -32 -20 -30 -32 3 -15 14 -18 63 -19 35 0 73
-7 91 -17 47 -25 107 -111 187 -268 137 -270 182 -439 181 -689 -1 -174 -12
-256 -64 -460 -94 -372 -198 -606 -313 -706 -142 -122 -334 -169 -536 -131
-84 16 -126 12 -99 -10 26 -22 176 -53 255 -53 151 0 329 75 429 181 126 134
236 386 335 769 82 315 74 559 -26 864 -48 146 -166 386 -242 488 -57 78 -160
115 -231 83z"/>
<path d="M20925 16380 c-99 -11 -241 -24 -315 -30 -171 -13 -215 -30 -190 -71
9 -14 127 -5 515 42 94 11 234 23 312 27 138 8 174 17 159 41 -11 17 -274 12
-481 -9z"/>
<path d="M10510 16372 c-27 -9 -210 -185 -262 -251 -277 -352 -372 -826 -238
-1192 70 -193 175 -289 316 -289 50 0 74 6 131 35 91 45 163 108 146 126 -14
14 -25 10 -138 -56 -151 -87 -280 -38 -364 139 -62 130 -76 204 -76 401 1 233
30 365 126 559 92 183 195 313 344 431 56 44 65 54 65 72 0 16 -31 32 -50 25z"/>
<path d="M11571 16320 c-71 -32 -170 -142 -218 -240 -62 -127 -75 -199 -80
-455 -6 -265 8 -382 56 -480 18 -37 40 -67 51 -70 55 -17 90 35 47 69 -68 57
-92 180 -91 476 0 255 10 312 71 439 48 100 154 211 200 211 29 0 33 -4 39
-35 14 -74 -20 -180 -134 -420 -128 -271 -123 -296 55 -253 221 55 360 61 395
17 45 -54 -24 -210 -193 -435 -73 -97 -189 -213 -240 -240 -21 -10 -43 -14
-65 -10 -26 5 -35 3 -43 -13 -37 -68 74 -83 164 -21 97 67 332 364 407 515 66
133 72 223 18 268 -53 45 -205 44 -398 -3 -99 -24 -112 -24 -112 -6 0 7 32 78
71 157 120 243 157 357 147 461 -9 85 -58 108 -147 68z"/>
<path d="M24914 16261 c-52 -32 -203 -284 -267 -446 -84 -212 -127 -417 -134
-635 -7 -230 22 -391 99 -545 79 -156 219 -285 310 -285 35 0 63 27 47 46 -6
8 -18 14 -27 14 -8 0 -39 12 -69 26 -183 90 -309 419 -289 759 20 360 182 820
349 988 52 54 71 87 48 87 -5 0 -15 2 -23 5 -7 3 -27 -3 -44 -14z"/>
<path d="M27350 16257 c0 -16 14 -34 43 -56 24 -18 60 -51 79 -74 112 -135
288 -505 333 -702 30 -128 20 -275 -31 -465 -34 -129 -57 -187 -116 -303 -61
-119 -139 -208 -203 -233 -50 -19 -57 -39 -21 -55 33 -15 76 11 150 92 95 103
161 231 224 434 56 185 65 244 59 394 -5 121 -9 149 -42 251 -38 117 -140 355
-182 422 -13 21 -23 40 -23 44 0 17 -128 188 -170 228 -56 53 -100 63 -100 23z"/>
<path d="M5167 16159 c-63 -48 -91 -244 -86 -589 l4 -235 -48 -7 c-50 -7 -79
-30 -74 -58 2 -12 16 -14 65 -13 l63 3 -7 -91 -7 -91 29 4 c29 3 29 3 25 63
-9 126 -8 129 19 137 14 4 88 28 165 53 201 66 179 65 194 3 40 -177 52 -280
33 -292 -4 -2 -27 9 -51 25 -80 53 -97 27 -31 -45 54 -58 91 -74 125 -52 21
14 25 24 25 66 0 58 -24 217 -46 299 -7 30 -14 60 -14 67 0 6 30 19 68 29 84
22 102 32 102 52 0 13 -8 14 -42 9 -24 -4 -65 -14 -91 -22 -27 -9 -50 -14 -51
-13 -2 2 -20 58 -41 124 -73 237 -185 501 -235 558 -37 42 -56 46 -93 16z m81
-117 c29 -55 142 -332 157 -382 4 -14 23 -67 42 -118 20 -51 34 -94 32 -96 -2
-2 -53 -18 -114 -35 -60 -18 -133 -39 -162 -48 -28 -9 -58 -13 -65 -10 -12 4
-14 48 -12 253 2 137 5 265 8 284 3 19 10 66 15 103 11 75 33 119 55 111 8 -3
27 -31 44 -62z"/>
<path d="M14295 16119 c-50 -46 -120 -152 -160 -243 -49 -111 -78 -247 -160
-746 -10 -58 -22 -116 -27 -130 -5 -13 -7 -34 -4 -46 10 -38 67 -43 80 -7 8
21 43 309 51 423 8 105 45 299 77 400 51 160 173 340 230 340 78 0 151 -230
118 -371 -28 -122 -136 -276 -219 -314 -46 -20 -62 -52 -36 -71 13 -10 27 -9
68 3 75 23 255 21 304 -4 20 -10 41 -26 47 -36 26 -42 -70 -154 -249 -289
-172 -130 -252 -176 -324 -187 -41 -5 -46 -9 -49 -35 -5 -37 13 -48 66 -41
129 18 568 356 623 480 51 116 -20 180 -212 192 -54 3 -99 8 -99 10 0 2 21 29
47 61 25 31 60 86 77 122 29 60 31 73 31 175 0 94 -4 123 -29 198 -19 60 -39
100 -61 123 -29 31 -37 34 -89 34 -52 0 -60 -3 -101 -41z"/>
<path d="M18313 16118 c-9 -12 -25 -107 -44 -263 -4 -38 -8 -125 -9 -192 l0
-121 -27 -6 c-29 -5 -116 -16 -353 -41 -109 -12 -138 -19 -154 -35 -18 -17
-19 -22 -6 -34 13 -13 34 -13 165 4 83 11 199 27 258 36 59 9 110 15 112 12 3
-2 0 -130 -6 -284 -9 -255 -24 -425 -49 -544 -5 -25 -9 -62 -10 -82 0 -36 2
-38 30 -38 36 0 34 -12 54 250 9 113 21 252 27 310 6 58 14 172 17 255 l7 149
40 7 c22 4 103 14 180 24 257 30 278 34 288 44 6 6 7 14 3 18 -18 18 -362 -6
-485 -33 l-24 -5 6 183 c5 134 12 204 27 262 11 43 20 91 20 107 0 25 -4 29
-29 29 -16 0 -33 -6 -38 -12z"/>
<path d="M7097 16088 c-97 -103 -176 -412 -207 -803 -5 -71 -13 -167 -16 -211
-9 -104 -2 -134 31 -134 13 0 27 5 31 11 4 7 8 77 10 158 1 80 3 161 3 180 1
29 4 33 22 28 12 -3 33 -1 48 5 46 18 326 67 334 58 8 -7 31 -84 115 -380 27
-93 28 -95 60 -98 41 -4 49 15 26 60 -9 18 -32 83 -50 143 -17 61 -44 150 -58
199 -14 49 -24 91 -22 94 3 2 37 8 76 12 131 14 119 53 -14 48 l-80 -3 -13 45
c-7 25 -40 142 -73 260 -61 212 -96 308 -127 342 -25 28 -61 22 -96 -14z m91
-143 c17 -44 47 -138 66 -210 19 -71 46 -165 60 -207 13 -43 21 -80 17 -83 -5
-2 -35 -7 -67 -11 -127 -13 -269 -45 -292 -67 l-24 -22 5 65 c16 213 71 446
135 575 43 86 54 82 100 -40z"/>
<path d="M2155 15962 c-35 -7 -40 -21 -17 -42 12 -12 22 -27 22 -34 0 -38 -56
-295 -86 -393 -14 -45 -20 -54 -47 -61 -50 -13 -43 -29 18 -43 46 -10 66 -10
103 0 64 17 73 28 34 42 -27 9 -32 16 -32 43 0 26 34 164 42 171 2 2 18 6 36
10 29 6 37 3 68 -31 30 -31 37 -35 49 -23 21 22 27 62 13 82 -12 16 -18 17
-43 7 -36 -14 -94 -15 -106 -3 -12 12 14 140 41 201 l20 45 63 -5 c81 -7 110
-22 143 -72 l28 -41 12 30 c16 36 18 101 4 110 -12 7 -334 13 -365 7z"/>
<path d="M25895 15876 c-64 -29 -128 -102 -152 -169 -33 -96 -14 -436 38 -666
11 -47 23 -106 28 -131 17 -84 27 -100 61 -100 44 0 47 21 15 119 -34 103 -40
130 -59 246 -39 234 -48 409 -25 500 18 72 95 148 167 165 93 22 191 -9 213
-68 13 -32 4 -114 -17 -153 -22 -44 -130 -154 -200 -206 -108 -79 -99 -98 54
-106 187 -9 296 -71 278 -160 -10 -52 -63 -130 -145 -218 -95 -102 -160 -153
-263 -209 -76 -40 -95 -64 -62 -77 97 -37 512 333 540 483 15 82 -31 155 -124
196 -38 17 -168 47 -210 48 -7 0 29 42 80 93 119 117 152 180 146 273 -5 76
-25 108 -88 141 -63 33 -203 33 -275 -1z"/>
<path d="M13305 15866 c-18 -13 -19 -19 -7 -122 7 -60 19 -138 27 -174 47
-203 45 -180 15 -207 -27 -23 -159 -111 -220 -145 -33 -19 -42 -64 -15 -74 22
-9 98 31 186 98 42 32 82 58 87 58 16 0 27 -102 26 -245 0 -144 10 -170 51
-129 20 20 20 156 -1 318 -7 60 -11 113 -8 117 2 4 39 33 82 62 107 76 167
131 158 145 -14 23 -43 12 -107 -39 -85 -69 -140 -103 -149 -92 -14 15 -41
186 -47 298 -3 61 -10 118 -15 128 -11 21 -37 22 -63 3z"/>
<path d="M20800 15808 c-48 -32 -112 -165 -183 -376 -80 -240 -119 -396 -172
-692 -14 -80 -33 -171 -42 -203 -18 -65 -11 -84 30 -73 17 4 29 17 36 38 14
45 38 178 46 259 4 36 10 71 14 77 3 6 49 18 101 26 86 14 205 44 362 91 83
25 92 19 83 -58 -4 -34 -16 -76 -26 -93 -27 -45 -24 -56 13 -52 57 6 72 40 71
170 0 288 -102 737 -197 861 -40 52 -83 60 -136 25z m74 -65 c43 -47 117 -282
168 -540 17 -90 29 -166 25 -170 -4 -4 -44 -14 -90 -24 -45 -9 -143 -31 -218
-48 -75 -17 -155 -31 -178 -31 -38 0 -41 2 -36 23 19 84 26 115 53 222 38 146
153 483 182 531 25 40 48 64 60 64 5 0 20 -12 34 -27z"/>
<path d="M6582 15714 c-32 -22 -29 -62 4 -70 33 -8 73 5 88 29 9 15 7 22 -13
38 -28 23 -49 24 -79 3z"/>
<path d="M28831 15687 c-8 -10 -8 -28 -1 -63 28 -130 32 -203 23 -373 -11
-189 -11 -191 -73 -191 -50 0 -219 -29 -241 -41 -25 -13 -24 -46 1 -59 15 -8
31 -8 53 -1 49 16 179 41 210 41 28 0 28 -1 22 -47 -19 -131 -72 -328 -106
-391 -10 -20 -16 -39 -13 -44 36 -57 131 186 164 421 5 35 14 67 20 71 6 4 70
12 143 19 73 6 161 16 197 21 36 6 124 17 195 26 197 23 288 53 252 82 -10 9
-32 8 -83 -3 -38 -7 -116 -19 -174 -25 -362 -37 -512 -50 -519 -46 -4 3 -2 49
6 103 17 117 12 438 -8 475 -20 39 -48 49 -68 25z"/>
<path d="M2804 15669 c-3 -6 0 -17 8 -25 10 -11 64 -14 241 -17 210 -4 230 -3
250 14 19 16 20 20 7 29 -21 14 -497 13 -506 -1z"/>
<path d="M22681 15623 c-29 -20 -118 -204 -196 -403 -31 -80 -66 -167 -77
-195 -12 -27 -49 -134 -84 -236 -34 -103 -68 -196 -75 -207 -19 -31 -5 -54 33
-50 42 4 33 -20 169 438 17 58 50 152 74 210 24 58 53 130 64 160 30 79 105
223 119 228 6 2 20 -15 32 -38 23 -46 108 -347 112 -400 l3 -34 -140 -17
c-169 -20 -221 -33 -235 -59 -13 -25 13 -52 43 -45 61 14 258 45 302 47 l49 3
9 -45 c5 -25 10 -100 11 -167 1 -120 2 -123 23 -123 12 0 27 9 33 19 13 26 13
151 -1 246 -6 42 -9 78 -7 80 3 3 40 8 82 12 48 4 83 12 92 21 27 26 -1 37
-98 37 l-91 0 -28 140 c-31 158 -90 339 -122 373 -24 26 -63 28 -96 5z"/>
<path d="M2804 15508 c-4 -6 1 -17 11 -25 14 -10 70 -13 224 -15 245 -1 252
-1 271 18 13 13 13 16 0 24 -23 15 -497 13 -506 -2z"/>
<path d="M9314 15495 c-23 -35 -12 -55 29 -55 45 0 64 22 49 55 -15 34 -56 33
-78 0z"/>
<path d="M6324 15239 c-17 -19 -19 -35 -16 -193 3 -181 18 -359 34 -388 5 -10
20 -18 34 -18 24 0 26 2 19 33 -4 17 -10 156 -13 307 -6 238 -9 275 -23 278
-8 1 -24 -7 -35 -19z"/>
<path d="M21882 15218 c-33 -33 2 -73 49 -56 32 11 44 35 28 54 -14 17 -61 18
-77 2z"/>
<path d="M15100 15205 c-56 -11 -83 -12 -107 -4 -44 14 -73 4 -73 -26 0 -40
31 -49 139 -40 189 16 251 13 305 -15 68 -35 90 -79 89 -179 0 -213 -136 -425
-341 -532 -64 -34 -100 -36 -134 -9 -31 24 -41 49 -68 163 -24 105 -25 143 -5
217 19 71 11 102 -24 98 -36 -4 -49 -38 -57 -140 -6 -76 -3 -101 26 -219 18
-73 39 -144 47 -156 21 -32 93 -57 148 -51 118 14 330 204 419 376 65 127 80
337 28 409 -73 102 -217 141 -392 108z"/>
<path d="M8106 15144 c-46 -12 -75 -36 -76 -60 0 -21 24 -22 97 -3 143 36 288
-10 364 -114 90 -125 -37 -277 -231 -277 -156 0 -270 136 -270 322 0 61 -2 68
-20 68 -39 0 -60 -88 -40 -172 57 -242 273 -353 483 -249 90 44 163 123 172
186 10 61 -5 109 -50 167 -73 94 -187 148 -305 147 -41 -1 -97 -7 -124 -15z"/>
<path d="M12305 15070 c-15 -17 -16 -25 -6 -64 6 -25 11 -81 11 -125 0 -96 11
-151 57 -296 24 -75 37 -139 42 -200 6 -88 7 -90 31 -90 20 0 26 5 28 30 4 39
-30 224 -63 344 -21 80 -25 114 -25 238 0 80 -5 153 -10 164 -14 25 -42 24
-65 -1z"/>
<path d="M23232 14940 c-73 -8 -102 -21 -102 -46 0 -17 -13 -16 195 -18 150
-1 178 -4 238 -25 127 -43 168 -113 122 -208 -48 -96 -147 -156 -262 -157 -68
-1 -74 1 -103 29 -51 51 -53 139 -5 209 33 49 33 86 1 86 -45 0 -106 -103
-106 -180 0 -162 85 -242 230 -219 125 20 256 113 309 221 35 69 38 93 15 146
-31 75 -107 128 -214 151 -74 16 -229 21 -318 11z"/>
<path d="M21598 14803 c-23 -28 -58 -174 -58 -244 0 -35 5 -93 10 -129 5 -36
18 -136 30 -222 22 -173 31 -201 66 -217 51 -23 69 10 34 60 -16 22 -26 70
-45 216 -32 244 -32 327 0 418 28 78 31 105 13 123 -17 17 -32 15 -50 -5z"/>
<path d="M26536 14775 c-20 -20 -20 -6 0 -261 15 -193 14 -308 -3 -431 -5 -41
-5 -43 21 -43 20 0 29 7 38 28 15 36 17 667 3 696 -13 27 -38 31 -59 11z"/>
<path d="M2947 14423 c-12 -11 -8 -23 8 -23 8 0 15 7 15 15 0 16 -12 20 -23 8z"/>
<path d="M10978 13930 c-59 -31 -157 -166 -283 -385 -104 -182 -186 -399 -215
-574 -24 -145 11 -357 85 -517 73 -158 141 -241 248 -304 84 -50 244 -67 287
-32 37 30 17 45 -49 37 -207 -23 -394 161 -477 470 -24 86 -28 119 -28 240 0
120 4 154 27 240 45 170 104 300 224 494 118 191 183 264 254 284 37 11 44 17
44 37 0 22 -5 25 -40 27 -25 2 -54 -5 -77 -17z"/>
<path d="M24042 13928 c-9 -9 -12 -79 -12 -253 0 -249 3 -265 41 -265 10 0 31
11 47 25 17 14 37 25 45 25 8 0 31 -23 51 -50 20 -28 43 -53 51 -56 21 -8 68
18 82 45 10 21 8 31 -8 64 -25 47 -19 67 19 67 35 0 52 16 52 50 0 18 -26 52
-90 120 -49 52 -93 98 -97 102 -4 4 -40 36 -80 72 -40 36 -76 66 -81 66 -4 0
-13 -5 -20 -12z m180 -204 c62 -64 113 -123 113 -132 0 -12 -11 -19 -34 -22
-51 -7 -59 -28 -32 -85 12 -26 21 -54 19 -64 -5 -23 -32 -20 -36 4 -2 11 -9
27 -16 35 -7 8 -17 28 -24 43 -17 40 -39 44 -71 13 -15 -14 -35 -26 -44 -26
-15 0 -17 17 -17 175 0 147 2 175 15 175 8 0 65 -52 127 -116z"/>
<path d="M15585 13819 c-4 -6 22 -40 57 -77 74 -76 120 -154 177 -297 101
-253 137 -465 127 -752 -6 -180 -18 -255 -60 -390 -47 -146 -144 -255 -242
-270 -21 -3 -45 -10 -51 -16 -43 -33 31 -37 114 -6 205 77 316 418 291 894
-10 200 -35 315 -115 530 -87 236 -192 395 -261 395 -17 0 -34 -5 -37 -11z"/>
<path d="M8055 13800 c-75 -9 -115 -27 -115 -52 0 -29 24 -32 123 -12 80 17
139 19 470 19 335 -1 377 1 375 15 -2 11 -22 17 -73 23 -96 11 -706 17 -780 7z"/>
<path d="M14155 13781 c-57 -26 -100 -65 -146 -132 -36 -53 -47 -87 -33 -101
14 -15 65 28 98 81 68 110 171 150 265 101 115 -58 144 -201 70 -341 -41 -77
-152 -191 -234 -240 -47 -27 -60 -40 -60 -59 0 -22 4 -25 35 -24 19 1 62 12
95 24 166 62 455 16 455 -72 0 -11 -16 -42 -35 -68 -84 -114 -507 -411 -648
-454 -26 -8 -33 -37 -13 -51 24 -18 72 -5 148 41 89 53 289 187 378 252 148
109 250 224 250 281 0 37 -74 101 -150 131 -58 22 -80 25 -197 25 l-132 0 83
85 c110 113 131 157 131 275 0 94 -13 129 -69 194 -58 65 -204 92 -291 52z"/>
<path d="M12180 13671 c-73 -23 -169 -91 -255 -182 -97 -102 -167 -258 -227
-500 -21 -89 -25 -97 -52 -105 -42 -13 -62 -74 -50 -158 9 -59 10 -61 41 -64
46 -5 57 19 92 193 67 331 121 466 233 592 92 103 191 173 242 173 26 0 28
-39 7 -108 -24 -78 -89 -187 -175 -291 -155 -188 -215 -267 -216 -284 0 -33
44 -39 164 -22 127 17 314 20 369 4 30 -8 37 -14 37 -36 0 -57 -244 -256 -384
-313 -74 -30 -89 -70 -25 -70 97 0 432 245 483 353 49 104 -69 156 -327 144
-73 -4 -149 -11 -169 -16 -21 -5 -38 -5 -38 -1 0 10 76 105 157 198 119 137
191 266 213 383 13 67 6 88 -36 105 -37 15 -47 16 -84 5z"/>
<path d="M8140 13596 c-28 -18 -45 -46 -84 -132 -51 -115 -130 -343 -141 -407
-3 -21 -15 -64 -25 -97 -26 -83 -75 -311 -100 -470 -11 -74 -28 -156 -37 -181
-9 -26 -13 -54 -10 -63 7 -19 62 -22 73 -5 10 17 31 132 39 214 33 356 134
753 261 1033 51 113 76 86 232 -253 123 -267 182 -474 182 -641 0 -49 -5 -69
-25 -98 -27 -40 -25 -56 6 -56 60 0 79 44 79 184 0 184 -57 383 -192 670 -86
183 -132 261 -180 301 -36 31 -35 31 -78 1z"/>
<path d="M6071 13484 c-24 -31 -25 -35 -46 -149 -9 -49 -25 -124 -35 -165 -10
-41 -23 -109 -30 -150 -6 -41 -15 -88 -20 -105 -7 -29 -27 -139 -53 -294 l-12
-75 -52 -11 c-59 -14 -83 -29 -83 -55 0 -24 16 -28 68 -17 24 5 46 7 48 4 3
-2 -6 -50 -20 -106 -14 -56 -23 -108 -20 -116 7 -17 49 -20 59 -5 3 5 10 46
15 90 16 138 19 150 49 156 14 3 80 23 146 44 66 20 123 34 127 31 3 -3 18
-66 33 -139 26 -125 26 -134 10 -152 -9 -10 -15 -27 -13 -37 4 -25 51 -29 73
-7 23 23 16 108 -20 249 -14 55 -25 103 -25 106 0 9 46 28 129 55 87 28 158
71 143 86 -13 13 -84 -3 -196 -44 -47 -17 -83 -25 -88 -20 -16 16 -84 453
-103 662 -17 181 -38 222 -84 164z m28 -241 c1 -67 48 -377 75 -498 14 -60 22
-113 18 -117 -9 -9 -220 -68 -244 -68 -16 0 -18 5 -13 38 4 20 11 51 16 67 18
60 48 233 64 365 16 141 40 267 58 310 10 24 10 24 18 -15 4 -22 8 -59 8 -82z"/>
<path d="M13942 13473 c2 -10 -16 -47 -39 -83 -47 -69 -78 -159 -88 -255 -4
-33 -15 -85 -25 -115 -10 -30 -23 -98 -29 -151 -6 -53 -18 -128 -27 -165 -8
-38 -18 -81 -21 -95 -10 -53 61 -67 85 -17 7 15 16 73 19 128 3 55 9 100 12
100 7 0 31 -96 31 -124 0 -10 4 -16 10 -14 6 2 11 103 13 268 3 308 7 325 102
444 62 78 61 96 -7 96 -32 0 -39 -3 -36 -17z"/>
<path d="M13282 13208 c-16 -16 -15 -53 2 -67 22 -18 65 -3 72 25 11 43 -42
74 -74 42z"/>
<path d="M9932 13017 c-39 -41 -25 -77 29 -77 21 0 39 35 39 76 0 32 -38 33
-68 1z"/>
<path d="M8545 13021 c-10 -17 11 -38 48 -45 17 -4 70 -11 118 -16 255 -25
382 -96 504 -283 98 -151 125 -286 85 -419 -61 -203 -167 -301 -290 -269 -62
17 -96 52 -142 149 -55 116 -75 235 -60 357 13 100 40 191 72 235 27 37 30 79
8 93 -24 16 -44 -5 -83 -87 -46 -98 -65 -194 -65 -324 0 -223 81 -411 203
-474 88 -44 224 -15 290 62 43 50 110 172 132 240 34 102 18 270 -36 372 -56
107 -167 240 -242 292 -78 53 -213 94 -349 106 -62 5 -129 12 -149 16 -23 4
-39 2 -44 -5z"/>
<path d="M8261 12909 c-75 -33 -204 -125 -239 -168 -43 -53 -67 -118 -50 -138
22 -28 52 -10 79 47 31 65 119 151 201 198 114 64 121 112 9 61z"/>
<path d="M14954 12915 c-13 -34 38 -59 141 -69 120 -12 183 -35 233 -82 l45
-43 -5 -64 c-10 -127 -126 -285 -283 -388 -86 -56 -149 -74 -200 -57 -54 18
-67 46 -60 128 10 106 35 187 77 252 47 72 50 123 8 123 -20 0 -32 -14 -67
-77 -51 -90 -81 -199 -89 -318 -5 -75 -3 -89 15 -118 48 -76 167 -82 291 -16
132 71 312 262 361 384 8 20 14 69 14 112 0 74 -1 78 -33 111 -53 54 -150 94
-266 107 -55 7 -110 16 -123 21 -34 13 -53 11 -59 -6z"/>
<path d="M6848 12753 c-9 -10 -22 -46 -29 -80 -22 -107 18 -349 112 -673 58
-203 71 -230 110 -230 27 0 27 19 2 82 -41 101 -111 382 -133 536 -16 104 -21
180 -19 262 3 98 2 115 -12 118 -8 1 -22 -5 -31 -15z"/>
<path d="M12561 12587 c-14 -18 -1 -119 50 -387 29 -151 39 -230 39 -302 0
-103 10 -148 34 -148 48 0 48 75 -1 415 -14 99 -29 225 -33 280 -10 123 -21
155 -54 155 -13 0 -29 -6 -35 -13z"/>
<path d="M25993 10095 c-268 -9 -304 -12 -320 -28 -14 -13 -15 -21 -7 -34 9
-15 28 -17 145 -15 74 2 184 7 244 12 166 15 472 12 640 -6 252 -26 292 -28
300 -14 15 24 -23 39 -145 55 -289 39 -437 44 -857 30z"/>
<path d="M18027 10085 c-10 -10 -17 -25 -15 -34 3 -14 21 -16 133 -17 72 0
220 -6 330 -13 214 -14 478 -9 533 10 25 9 32 16 30 33 -3 18 -9 21 -43 18
-178 -11 -385 -12 -515 -2 -85 6 -218 14 -295 17 -126 5 -143 4 -158 -12z"/>
<path d="M14858 10073 c-24 -6 -32 -35 -14 -49 9 -6 69 -14 134 -17 66 -4 198
-15 293 -26 150 -17 295 -25 377 -22 15 1 22 7 22 21 0 11 -1 20 -2 21 -2 0
-57 4 -123 9 -66 5 -158 14 -205 19 -158 19 -455 51 -460 50 -3 -1 -12 -3 -22
-6z"/>
<path d="M16441 10011 c-18 -5 -37 -15 -41 -22 -19 -29 1 -35 113 -35 97 0
135 -6 282 -41 233 -56 253 -59 261 -38 8 20 -7 32 -56 44 -380 93 -484 111
-559 92z"/>
<path d="M9460 9904 c-136 -12 -352 -36 -400 -44 -277 -47 -315 -55 -332 -72
-19 -19 -14 -48 9 -48 8 0 58 9 112 20 123 25 372 56 569 70 189 14 273 4 344
-42 51 -32 78 -32 78 1 0 25 -65 77 -121 96 -45 16 -181 26 -259 19z"/>
<path d="M19715 9876 c-158 -49 -332 -263 -408 -501 -58 -179 -62 -396 -11
-580 15 -55 27 -116 26 -135 -2 -78 42 -79 168 -4 195 115 435 335 492 452 64
129 36 185 -108 218 -44 10 -81 19 -83 21 -2 1 39 44 91 95 141 138 174 219
127 315 -28 57 -88 103 -157 119 -69 16 -85 16 -137 0z m117 -56 c45 -13 93
-52 114 -93 37 -70 -12 -167 -137 -278 -113 -99 -122 -105 -175 -107 -100 -4
-284 -122 -284 -181 0 -64 79 -47 228 49 103 67 112 70 168 70 58 0 131 -17
175 -40 33 -18 22 -94 -23 -162 -58 -87 -384 -368 -446 -384 -36 -10 -60 21
-87 110 -51 168 -57 369 -16 509 28 96 110 261 165 335 70 91 153 154 231 173
43 10 46 10 87 -1z"/>
<path d="M21836 9854 c-3 -9 -3 -21 1 -27 10 -17 4 -430 -7 -441 -5 -5 -78
-13 -162 -18 -154 -9 -178 -16 -178 -48 0 -29 22 -40 61 -30 35 10 281 42 285
37 1 -1 -2 -27 -6 -57 -4 -31 -11 -123 -14 -205 -8 -178 -21 -288 -37 -314
-17 -26 -4 -51 25 -51 50 0 60 43 76 340 6 102 12 210 15 240 l3 55 164 7
c165 7 203 12 406 50 113 21 139 35 113 61 -8 8 -27 8 -73 -1 -167 -31 -326
-51 -462 -57 l-149 -8 7 44 c11 77 9 395 -3 418 -14 25 -56 28 -65 5z"/>
<path d="M18300 9823 c-46 -19 -134 -90 -174 -140 -53 -67 -108 -168 -137
-250 -35 -100 -70 -284 -72 -373 -2 -96 12 -141 49 -160 21 -12 27 -11 49 10
32 30 31 39 -2 66 -27 22 -28 25 -26 116 6 281 123 539 292 649 101 65 191 13
191 -111 0 -78 -111 -251 -197 -305 -44 -29 -56 -46 -47 -69 11 -29 35 -25
119 19 83 44 137 55 179 39 46 -18 -12 -116 -125 -212 -134 -115 -253 -204
-296 -223 -34 -14 -43 -23 -43 -43 0 -34 30 -41 77 -18 55 29 233 172 335 270
98 95 156 189 144 236 -9 37 -54 56 -131 56 -37 0 -65 3 -63 8 2 4 24 39 49
77 73 110 87 195 47 275 -33 63 -66 84 -141 87 -34 1 -69 0 -77 -4z"/>
<path d="M29833 9716 c-67 -16 -188 -86 -259 -149 -131 -117 -210 -269 -254
-490 -33 -163 -21 -341 29 -423 25 -41 83 -69 111 -54 29 16 24 64 -8 68 -26
4 -64 52 -81 101 -30 91 -1 343 57 493 57 146 175 286 304 361 51 29 144 57
194 57 62 0 132 -31 175 -78 37 -39 41 -48 36 -82 -7 -52 -52 -115 -134 -187
-91 -81 -256 -190 -312 -207 -65 -20 -143 -55 -163 -73 -10 -9 -18 -27 -18
-40 0 -39 62 -32 144 18 157 94 397 84 372 -16 -7 -28 -116 -140 -201 -208
-27 -22 -72 -59 -100 -83 -27 -24 -94 -80 -147 -124 -75 -62 -98 -87 -98 -106
0 -36 35 -31 84 14 23 20 71 60 105 87 167 132 348 295 383 345 52 74 58 116
24 157 -26 30 -55 41 -159 58 -21 3 -35 10 -31 16 3 6 43 34 87 63 103 67 185
151 209 213 72 183 -114 326 -349 269z"/>
<path d="M15131 9664 c-51 -58 -155 -285 -220 -479 -49 -149 -63 -181 -80
-183 -28 -4 -38 -42 -16 -58 17 -12 15 -23 -30 -166 -47 -154 -67 -201 -107
-251 -17 -21 -20 -32 -12 -44 18 -29 34 -26 69 12 28 29 43 63 74 163 22 70
47 156 56 192 9 36 20 68 24 72 3 4 34 3 66 -3 33 -6 111 -14 174 -18 134 -7
124 4 136 -150 l7 -90 -26 -7 c-33 -8 -34 -38 -2 -59 28 -19 58 -9 76 25 13
24 13 124 0 213 -7 50 -7 72 2 87 10 16 10 22 -5 32 -14 10 -21 49 -36 188
-11 96 -22 218 -26 270 -18 277 -49 340 -124 254z m59 -207 c5 -73 17 -214 27
-314 9 -100 14 -185 11 -188 -3 -3 -34 -1 -69 4 -35 5 -102 13 -149 16 -47 3
-89 10 -94 15 -21 21 163 515 224 600 20 28 24 30 32 16 5 -9 14 -76 18 -149z"/>
<path d="M28103 9681 c-108 -39 -220 -136 -314 -271 -64 -92 -105 -190 -136
-321 -24 -102 -27 -134 -27 -309 0 -169 2 -202 19 -250 18 -50 23 -55 50 -55
40 0 44 29 13 87 -22 41 -23 53 -22 233 1 217 16 321 65 437 116 274 378 480
497 391 78 -58 33 -189 -125 -362 -40 -44 -73 -84 -73 -90 0 -20 27 -25 155
-26 134 -1 186 -12 227 -45 l23 -19 -23 -45 c-25 -47 -120 -142 -262 -263
-142 -121 -153 -129 -220 -172 -60 -39 -69 -42 -112 -36 -48 7 -48 7 -48 -22
0 -38 16 -53 57 -53 43 0 70 14 186 97 191 138 408 333 451 407 34 59 36 123
3 154 -34 32 -126 60 -222 68 -52 4 -85 11 -85 18 0 6 24 37 54 68 109 114
141 215 98 311 -37 84 -117 108 -229 68z"/>
<path d="M16632 9613 c-46 -49 -177 -303 -227 -438 -66 -180 -167 -439 -186
-477 -10 -20 -25 -41 -32 -45 -42 -24 -37 -83 7 -83 49 0 93 85 191 378 2 6
11 12 19 12 8 0 32 11 52 25 20 14 53 29 73 35 53 14 173 30 183 24 4 -3 8
-20 8 -38 0 -19 9 -103 21 -187 11 -85 19 -183 17 -219 -3 -63 -2 -65 22 -65
39 0 50 36 40 125 -25 211 -32 272 -40 345 -5 44 -16 134 -24 200 -9 66 -20
181 -26 255 -12 156 -15 166 -41 181 -18 9 -26 5 -57 -28z m32 -110 c3 -21 6
-63 6 -93 0 -30 5 -84 11 -120 23 -149 25 -171 19 -175 -3 -2 -46 -9 -95 -16
-49 -6 -107 -18 -129 -25 -21 -8 -42 -14 -46 -14 -9 0 17 73 55 155 12 28 37
84 55 125 36 83 100 200 111 200 3 0 9 -17 13 -37z"/>
<path d="M24054 9595 c-79 -82 -173 -313 -229 -565 -49 -220 -55 -245 -70
-330 -26 -137 -46 -199 -71 -219 -43 -34 -22 -101 26 -86 47 15 74 103 124
401 34 204 58 299 112 462 70 210 143 333 188 316 19 -7 57 -78 104 -194 43
-106 122 -322 122 -335 0 -6 -46 -15 -117 -22 -121 -12 -265 -44 -289 -64 -18
-15 -18 -48 -1 -55 12 -4 81 9 312 62 53 12 125 18 125 11 0 -1 18 -55 40
-120 22 -65 44 -146 49 -182 5 -35 12 -69 16 -75 11 -17 35 -11 46 13 14 31
-10 134 -88 370 -4 12 0 17 15 17 11 0 26 7 33 16 11 14 10 18 -6 31 -11 7
-30 11 -42 8 -26 -6 -39 14 -73 120 -12 39 -49 139 -83 224 -98 244 -154 290
-243 196z"/>
<path d="M6830 9607 c-78 -36 -159 -133 -230 -276 -56 -112 -76 -173 -99 -300
-39 -210 -36 -395 10 -622 17 -87 31 -131 76 -236 3 -9 -4 -13 -21 -13 -15 0
-26 -6 -26 -14 0 -48 114 -55 195 -13 27 15 57 27 66 27 9 0 27 8 40 18 13 10
44 30 69 44 51 30 256 229 313 303 48 65 97 182 97 235 0 35 -7 48 -47 91 -67
72 -169 119 -274 126 -43 3 -79 8 -79 10 0 2 20 43 44 91 80 160 98 356 44
470 -29 60 -115 88 -178 59z m85 -43 c9 -4 26 -25 38 -48 19 -35 22 -57 22
-156 0 -124 -9 -160 -80 -316 -29 -63 -38 -74 -80 -95 -26 -13 -58 -38 -71
-55 -26 -33 -32 -90 -11 -97 19 -6 83 31 102 59 26 40 74 64 130 64 94 0 210
-45 260 -100 62 -69 -31 -259 -210 -428 -147 -140 -330 -258 -366 -236 -5 3
-9 14 -9 24 0 10 -14 53 -31 95 -87 218 -106 532 -49 797 63 289 240 536 355
492z"/>
<path d="M26159 9601 c-47 -26 -108 -94 -173 -194 -101 -154 -183 -359 -255
-637 -59 -228 -71 -270 -88 -306 -17 -35 -17 -36 2 -50 23 -17 27 -17 49 -1
18 13 29 53 90 322 12 55 28 116 34 135 6 19 23 76 37 126 65 239 267 564 350
564 47 0 57 -46 84 -395 5 -60 8 -111 6 -113 -1 -1 -37 -11 -81 -23 -151 -40
-274 -110 -274 -158 0 -37 46 -38 93 -2 65 49 238 128 257 116 4 -2 10 -55 15
-117 20 -298 20 -297 38 -315 15 -15 19 -16 32 -3 13 13 13 40 -1 219 -8 112
-14 213 -12 225 2 17 17 24 83 41 56 14 80 25 80 35 0 12 -15 14 -86 12 l-86
-3 -7 148 c-7 161 -32 302 -62 354 -24 41 -70 49 -125 20z"/>
<path d="M12111 9481 c-15 -27 -31 -142 -44 -314 l-12 -152 -55 -8 c-116 -18
-256 -49 -277 -63 -23 -15 -31 -48 -14 -58 5 -4 21 -2 36 4 15 6 84 22 154 36
69 14 135 27 146 30 21 5 21 4 9 -148 -11 -146 -28 -270 -40 -302 -3 -8 -14
-18 -25 -21 -20 -7 -26 -40 -8 -50 20 -13 56 5 72 37 18 36 46 234 51 368 2
47 4 95 5 107 1 17 10 23 54 33 105 23 295 41 428 42 75 0 142 4 149 8 25 16
2 39 -47 46 -79 12 -349 -3 -457 -26 -74 -15 -102 -17 -112 -9 -8 6 -12 14
-10 18 2 3 9 76 16 161 7 85 16 162 20 171 6 11 19 14 44 11 30 -4 36 -1 36
15 0 11 -12 26 -26 33 -14 8 -30 22 -35 32 -13 24 -46 23 -58 -1z"/>
<path d="M9018 9433 c-59 -63 -136 -268 -203 -538 -44 -180 -62 -287 -75 -456
-11 -143 -9 -164 17 -173 33 -13 41 12 47 152 13 265 51 464 143 747 35 108
84 218 101 229 26 16 60 -57 165 -349 111 -312 117 -328 112 -335 -2 -4 -55
-10 -117 -13 -90 -4 -131 -11 -202 -35 -100 -34 -121 -50 -111 -81 8 -26 30
-27 92 0 53 23 193 54 288 64 46 5 64 4 72 -6 18 -23 43 -152 37 -190 -11 -63
44 -78 65 -18 16 46 -13 156 -163 604 -132 396 -190 481 -268 398z"/>
<path d="M3235 9254 c-9 -9 -15 -24 -13 -33 3 -13 24 -18 113 -25 155 -13 246
-12 274 3 36 20 14 30 -90 41 -52 5 -110 14 -129 19 -54 17 -136 14 -155 -5z"/>
<path d="M2530 9128 c-30 -11 -129 -37 -220 -59 -91 -21 -186 -45 -212 -53
-40 -12 -49 -12 -59 0 -6 8 -22 14 -36 14 -21 0 -24 -4 -21 -30 2 -23 -6 -38
-33 -67 -42 -44 -63 -79 -54 -93 11 -18 27 -10 65 33 48 53 58 45 67 -58 3
-43 12 -90 20 -105 7 -14 13 -31 13 -38 0 -12 17 -76 77 -292 14 -52 29 -131
32 -175 6 -77 7 -80 31 -80 24 0 25 2 23 65 -1 41 -23 147 -57 284 -31 120
-56 227 -56 237 0 17 8 19 68 19 144 1 453 63 513 103 75 51 37 61 -83 22
-101 -32 -318 -65 -429 -65 l-87 0 -13 70 c-7 43 -9 74 -3 80 5 4 110 34 233
64 242 60 316 88 316 121 0 27 -28 28 -95 3z"/>
<path d="M30406 9054 c-33 -8 -64 -18 -70 -23 -6 -5 -29 -14 -51 -21 -22 -7
-48 -19 -58 -28 -9 -8 -50 -32 -90 -52 -70 -36 -94 -64 -64 -76 8 -3 59 17
113 43 195 97 297 122 406 103 186 -34 205 -212 45 -425 -85 -113 -255 -229
-326 -223 -35 3 -36 4 -34 40 2 32 38 116 90 213 45 83 51 98 46 111 -3 8 -16
14 -28 14 -28 0 -53 -33 -88 -115 -14 -33 -39 -90 -56 -127 -30 -64 -40 -133
-25 -173 8 -21 56 -45 89 -45 40 0 152 56 231 115 174 131 291 352 263 499 -5
27 -17 63 -27 80 -23 40 -88 85 -138 96 -56 14 -160 11 -228 -6z"/>
<path d="M20094 9025 c-98 -38 -144 -69 -144 -96 0 -30 23 -33 70 -9 23 12 45
20 50 18 4 -2 -3 -34 -17 -73 -55 -155 -73 -227 -73 -297 0 -99 16 -145 71
-199 38 -38 56 -49 102 -59 67 -13 153 4 225 46 58 34 139 119 182 190 33 55
35 63 35 149 0 80 -3 95 -27 137 -58 98 -195 189 -313 208 -37 6 -71 12 -74
14 -3 2 -43 -11 -87 -29z m221 -72 c140 -44 240 -176 219 -290 -21 -115 -141
-250 -250 -281 -162 -47 -262 54 -235 238 12 88 88 317 113 342 22 22 62 20
153 -9z"/>
<path d="M18742 9008 c-36 -39 -41 -70 -35 -195 4 -86 0 -173 -16 -325 -24
-219 -21 -248 19 -248 15 0 20 7 21 28 0 30 2 44 29 289 11 94 20 214 20 266
0 52 5 108 11 126 13 36 5 81 -14 81 -8 0 -23 -10 -35 -22z"/>
<path d="M17105 8986 c-56 -26 -122 -91 -125 -121 -7 -71 21 -73 78 -6 73 86
151 108 233 65 57 -29 91 -155 69 -260 -24 -119 -74 -192 -142 -209 -21 -5
-34 0 -62 27 -53 50 -106 144 -106 190 0 48 -25 62 -52 29 -35 -45 -19 -108
56 -212 55 -78 80 -94 147 -94 46 0 63 5 93 29 122 92 177 305 117 443 -24 55
-83 117 -127 133 -46 18 -126 11 -179 -14z"/>
<path d="M8032 8978 c-15 -15 -16 -55 -1 -63 21 -13 59 5 65 31 10 38 -35 61
-64 32z"/>
<path d="M3525 8898 c-75 -40 -133 -49 -332 -54 -221 -5 -266 -14 -271 -57 -4
-33 14 -42 54 -26 17 8 108 15 219 19 167 6 200 10 270 33 99 33 145 60 145
87 0 26 -32 26 -85 -2z"/>
<path d="M26805 8840 c-20 -14 -40 -19 -58 -16 -25 5 -29 1 -61 -63 -80 -159
-97 -292 -56 -431 35 -119 91 -165 193 -158 77 5 148 48 206 126 139 184 138
371 0 499 -22 21 -54 43 -71 50 -46 20 -118 16 -153 -7z m138 -64 c18 -7 45
-26 60 -42 101 -101 92 -237 -25 -391 -56 -73 -91 -93 -165 -93 -65 0 -84 13
-117 78 -37 72 -30 281 11 367 18 38 24 41 54 24 24 -13 49 3 49 32 0 37 72
51 133 25z"/>
<path d="M28723 8748 c-6 -7 -13 -31 -16 -53 -3 -22 -10 -66 -16 -98 -6 -32
-15 -104 -21 -160 -6 -56 -25 -154 -42 -217 -79 -301 -78 -299 -52 -321 23
-19 38 4 53 88 7 37 28 121 47 186 31 109 44 174 73 362 6 39 16 98 23 132 9
49 9 65 -1 77 -16 19 -35 20 -48 4z"/>
<path d="M25032 8703 c-5 -10 -15 -69 -23 -131 -10 -92 -10 -127 0 -180 6 -37
20 -143 30 -235 13 -125 22 -172 34 -185 11 -10 20 -13 26 -7 11 12 -2 276
-20 407 -6 48 -9 111 -5 140 16 128 17 155 7 181 -12 31 -36 36 -49 10z"/>
<path d="M15712 8623 c-48 -107 -49 -132 -17 -378 8 -60 18 -158 24 -216 9
-110 21 -149 45 -149 23 0 26 27 16 123 -5 51 -17 178 -25 284 -15 180 -15
196 1 255 24 90 24 122 -2 126 -16 2 -25 -8 -42 -45z"/>
<path d="M9919 8453 c-21 -55 -22 -127 -3 -189 11 -37 20 -106 24 -184 5 -118
6 -125 26 -128 27 -4 34 13 40 108 5 68 -4 171 -22 244 -4 15 -1 53 7 83 12
54 12 56 -10 74 -32 26 -50 24 -62 -8z"/>
<path d="M7464 8336 c-3 -9 -4 -87 -1 -173 4 -150 6 -163 41 -258 20 -55 36
-116 36 -136 0 -39 21 -65 45 -55 22 8 19 75 -6 138 -50 128 -62 253 -38 383
9 52 9 61 -9 84 -22 30 -59 40 -68 17z"/>
<path d="M16994 2548 c-7 -12 9 -15 71 -13 83 3 87 4 80 15 -7 11 -144 9 -151
-2z"/>
<path d="M17275 2550 c-4 -6 5 -10 20 -10 15 0 24 4 20 10 -3 6 -12 10 -20 10
-8 0 -17 -4 -20 -10z"/>
<path d="M17340 2550 c0 -5 5 -10 11 -10 5 0 7 5 4 10 -3 6 -8 10 -11 10 -2 0
-4 -4 -4 -10z"/>
<path d="M17390 2550 c0 -5 7 -10 16 -10 8 0 12 5 9 10 -3 6 -10 10 -16 10 -5
0 -9 -4 -9 -10z"/>
<path d="M17500 2550 c0 -5 9 -10 21 -10 11 0 17 5 14 10 -3 6 -13 10 -21 10
-8 0 -14 -4 -14 -10z"/>
<path d="M17585 2550 c-3 -5 1 -10 9 -10 9 0 16 5 16 10 0 6 -4 10 -9 10 -6 0
-13 -4 -16 -10z"/>
<path d="M17730 2550 c0 -5 12 -10 28 -9 24 0 25 1 7 9 -27 12 -35 12 -35 0z"/>
<path d="M14405 2540 c-3 -5 -1 -10 4 -10 6 0 11 5 11 10 0 6 -2 10 -4 10 -3
0 -8 -4 -11 -10z"/>
<path d="M15731 2541 c-10 -7 -10 -10 -1 -16 6 -4 16 -3 22 3 13 13 -4 23 -21
13z"/>
<path d="M15920 2540 c-12 -8 -10 -10 8 -10 13 0 20 4 17 10 -7 12 -6 12 -25
0z"/>
<path d="M16135 2540 c-4 -6 6 -10 22 -10 22 0 25 2 13 10 -19 12 -27 12 -35
0z"/>
<path d="M16195 2541 c-3 -5 -1 -12 5 -16 12 -7 30 2 30 16 0 12 -27 12 -35 0z"/>
<path d="M16280 2540 c-24 -8 -24 -8 -2 -10 62 -6 122 -3 125 6 3 12 -90 15
-123 4z"/>
<path d="M16450 2540 c0 -5 5 -10 11 -10 5 0 7 5 4 10 -3 6 -8 10 -11 10 -2 0
-4 -4 -4 -10z"/>
<path d="M16513 2538 c2 -9 23 -13 58 -12 83 2 89 3 89 14 0 6 -32 10 -76 10
-56 0 -75 -3 -71 -12z"/>
<path d="M16685 2540 c-3 -5 3 -10 14 -10 12 0 21 5 21 10 0 6 -6 10 -14 10
-8 0 -18 -4 -21 -10z"/>
<path d="M16760 2541 c0 -13 57 -22 101 -15 66 11 53 21 -26 23 -41 1 -75 -3
-75 -8z"/>
<path d="M17200 2540 c0 -5 4 -10 9 -10 6 0 13 5 16 10 3 6 -1 10 -9 10 -9 0
-16 -4 -16 -10z"/>
<path d="M17658 2543 c7 -3 16 -2 19 1 4 3 -2 6 -13 5 -11 0 -14 -3 -6 -6z"/>
<path d="M19085 2541 c-2 -5 4 -11 15 -14 11 -3 20 -2 20 3 0 12 -28 21 -35
11z"/>
<path d="M19215 2540 c4 -6 11 -8 16 -5 14 9 11 15 -7 15 -8 0 -12 -5 -9 -10z"/>
<path d="M19290 2540 c0 -5 7 -10 16 -10 8 0 12 5 9 10 -3 6 -10 10 -16 10 -5
0 -9 -4 -9 -10z"/>
<path d="M19888 2543 c-27 -2 -48 -7 -48 -11 0 -11 208 -13 215 -2 4 6 -6 10
-22 10 -15 0 -44 2 -63 4 -19 2 -56 1 -82 -1z"/>
<path d="M20143 2543 c-18 -2 -33 -8 -33 -14 0 -12 137 -12 145 1 3 6 0 10 -8
10 -8 0 -27 2 -43 4 -16 2 -44 2 -61 -1z"/>
<path d="M20800 2540 c-12 -8 -9 -10 13 -10 16 0 26 4 22 10 -8 12 -16 12 -35
0z"/>
<path d="M21570 2540 c-13 -8 -12 -10 3 -10 9 0 17 5 17 10 0 12 -1 12 -20 0z"/>
<path d="M28013 2543 c-15 -5 -18 -33 -4 -33 17 0 41 12 41 20 0 11 -22 18
-37 13z"/>
<path d="M28195 2541 c-2 -5 4 -11 15 -14 11 -3 20 -2 20 3 0 12 -28 21 -35
11z"/>
<path d="M28583 2543 c-7 -2 -13 -9 -13 -15 0 -14 43 -6 48 10 4 12 -12 15
-35 5z"/>
<path d="M29250 2540 c-12 -8 -11 -10 8 -10 12 0 22 5 22 10 0 13 -11 13 -30
0z"/>
<path d="M29440 2540 c0 -5 7 -10 15 -10 8 0 15 5 15 10 0 6 -7 10 -15 10 -8
0 -15 -4 -15 -10z"/>
<path d="M29555 2539 c-3 -4 9 -9 26 -11 16 -3 32 -1 34 3 3 4 -9 9 -26 11
-16 3 -32 1 -34 -3z"/>
<path d="M30150 2540 c0 -5 5 -10 10 -10 6 0 10 5 10 10 0 6 -4 10 -10 10 -5
0 -10 -4 -10 -10z"/>
<path d="M13207 2534 c-14 -14 -7 -25 13 -22 12 2 21 8 21 13 0 12 -24 18 -34
9z"/>
<path d="M13475 2530 c4 -6 11 -8 16 -5 14 9 11 15 -7 15 -8 0 -12 -5 -9 -10z"/>
<path d="M14250 2530 c0 -5 7 -10 16 -10 8 0 12 5 9 10 -3 6 -10 10 -16 10 -5
0 -9 -4 -9 -10z"/>
<path d="M15120 2530 c0 -5 9 -10 20 -10 11 0 20 5 20 10 0 6 -9 10 -20 10
-11 0 -20 -4 -20 -10z"/>
<path d="M15455 2530 c-4 -6 5 -10 19 -10 14 0 26 5 26 10 0 6 -9 10 -19 10
-11 0 -23 -4 -26 -10z"/>
<path d="M15540 2530 c0 -5 23 -10 50 -10 28 0 50 4 50 8 0 5 -22 10 -50 11
-28 1 -50 -3 -50 -9z"/>
<path d="M15828 2527 c31 -7 46 -7 54 1 9 9 -1 12 -42 11 l-55 -1 43 -11z"/>
<path d="M15995 2530 c3 -5 10 -10 16 -10 5 0 9 5 9 10 0 6 -7 10 -16 10 -8 0
-12 -4 -9 -10z"/>
<path d="M16063 2533 c9 -2 25 -2 35 0 9 3 1 5 -18 5 -19 0 -27 -2 -17 -5z"/>
<path d="M20315 2530 c3 -5 13 -10 21 -10 8 0 14 5 14 10 0 6 -9 10 -21 10
-11 0 -17 -4 -14 -10z"/>
<path d="M20375 2529 c-5 -7 4 -9 25 -5 43 6 50 16 12 16 -17 0 -34 -5 -37
-11z"/>
<path d="M20470 2530 c0 -5 9 -10 19 -10 11 0 23 5 26 10 4 6 -5 10 -19 10
-14 0 -26 -4 -26 -10z"/>
<path d="M20545 2530 c-14 -6 -4 -9 38 -9 32 -1 57 3 57 9 0 12 -67 12 -95 0z"/>
<path d="M20665 2530 c3 -5 15 -10 26 -10 10 0 19 5 19 10 0 6 -12 10 -26 10
-14 0 -23 -4 -19 -10z"/>
<path d="M20890 2530 c0 -5 18 -10 41 -10 24 0 38 4 34 10 -3 6 -22 10 -41 10
-19 0 -34 -4 -34 -10z"/>
<path d="M21018 2533 c7 -3 16 -2 19 1 4 3 -2 6 -13 5 -11 0 -14 -3 -6 -6z"/>
<path d="M21085 2530 c-18 -8 -17 -9 8 -9 15 -1 27 4 27 9 0 12 -8 12 -35 0z"/>
<path d="M21185 2530 c-3 -5 1 -10 10 -10 9 0 13 5 10 10 -3 6 -8 10 -10 10
-2 0 -7 -4 -10 -10z"/>
<path d="M21418 2528 c8 -8 17 -8 34 0 22 10 21 11 -11 11 -27 1 -32 -2 -23
-11z"/>
<path d="M22795 2530 c-3 -5 -1 -10 4 -10 6 0 11 5 11 10 0 6 -2 10 -4 10 -3
0 -8 -4 -11 -10z"/>
<path d="M26555 2530 c-3 -5 -1 -10 4 -10 6 0 11 5 11 10 0 6 -2 10 -4 10 -3
0 -8 -4 -11 -10z"/>
<path d="M27945 2530 c-3 -5 1 -10 9 -10 9 0 16 5 16 10 0 6 -4 10 -9 10 -6 0
-13 -4 -16 -10z"/>
<path d="M28065 2530 c-3 -5 3 -10 14 -10 12 0 21 5 21 10 0 6 -6 10 -14 10
-8 0 -18 -4 -21 -10z"/>
<path d="M28135 2530 c-3 -5 1 -10 10 -10 9 0 13 5 10 10 -3 6 -8 10 -10 10
-2 0 -7 -4 -10 -10z"/>
<path d="M28370 2530 c0 -5 5 -10 11 -10 5 0 7 5 4 10 -3 6 -8 10 -11 10 -2 0
-4 -4 -4 -10z"/>
<path d="M28778 2533 c6 -2 18 -2 25 0 6 3 1 5 -13 5 -14 0 -19 -2 -12 -5z"/>
<path d="M28840 2530 c0 -5 5 -10 11 -10 5 0 7 5 4 10 -3 6 -8 10 -11 10 -2 0
-4 -4 -4 -10z"/>
<path d="M29098 2533 c7 -3 16 -2 19 1 4 3 -2 6 -13 5 -11 0 -14 -3 -6 -6z"/>
<path d="M12445 2521 c-7 -12 31 -25 46 -15 8 4 7 9 -2 15 -18 11 -36 11 -44
0z"/>
<path d="M12645 2520 c-3 -5 3 -10 15 -10 12 0 18 5 15 10 -3 6 -10 10 -15 10
-5 0 -12 -4 -15 -10z"/>
<path d="M12960 2526 c0 -9 30 -14 35 -6 4 6 -3 10 -14 10 -12 0 -21 -2 -21
-4z"/>
<path d="M22855 2520 c3 -5 10 -10 16 -10 5 0 9 5 9 10 0 6 -7 10 -16 10 -8 0
-12 -4 -9 -10z"/>
<path d="M23050 2520 c0 -5 7 -10 15 -10 8 0 15 5 15 10 0 6 -7 10 -15 10 -8
0 -15 -4 -15 -10z"/>
<path d="M23370 2521 c0 -5 7 -12 16 -15 22 -9 24 -8 24 9 0 8 -9 15 -20 15
-11 0 -20 -4 -20 -9z"/>
<path d="M23535 2520 c3 -5 8 -10 11 -10 2 0 4 5 4 10 0 6 -5 10 -11 10 -5 0
-7 -4 -4 -10z"/>
<path d="M23610 2520 c0 -5 5 -10 11 -10 5 0 7 5 4 10 -3 6 -8 10 -11 10 -2 0
-4 -4 -4 -10z"/>
<path d="M24010 2520 c0 -5 7 -10 15 -10 8 0 15 5 15 10 0 6 -7 10 -15 10 -8
0 -15 -4 -15 -10z"/>
<path d="M24190 2520 c0 -6 26 -10 60 -9 33 1 60 6 60 10 0 5 -27 9 -60 9 -34
0 -60 -4 -60 -10z"/>
<path d="M24330 2520 c0 -5 18 -10 40 -10 22 0 40 5 40 10 0 6 -18 10 -40 10
-22 0 -40 -4 -40 -10z"/>
<path d="M24560 2522 c0 -14 11 -21 26 -15 8 3 11 9 8 14 -7 11 -34 12 -34 1z"/>
<path d="M25025 2520 c-3 -5 3 -10 14 -10 11 0 23 5 26 10 3 6 -3 10 -14 10
-11 0 -23 -4 -26 -10z"/>
<path d="M25120 2520 c0 -5 7 -10 16 -10 8 0 12 5 9 10 -3 6 -10 10 -16 10 -5
0 -9 -4 -9 -10z"/>
<path d="M25300 2520 c0 -5 7 -10 16 -10 8 0 12 5 9 10 -3 6 -10 10 -16 10 -5
0 -9 -4 -9 -10z"/>
<path d="M25625 2521 c-6 -11 9 -23 19 -14 9 9 7 23 -3 23 -6 0 -12 -4 -16 -9z"/>
<path d="M26335 2520 c-3 -5 1 -10 9 -10 9 0 16 5 16 10 0 6 -4 10 -9 10 -6 0
-13 -4 -16 -10z"/>
<path d="M26505 2520 c3 -5 8 -10 11 -10 2 0 4 5 4 10 0 6 -5 10 -11 10 -5 0
-7 -4 -4 -10z"/>
<path d="M11830 2510 c0 -5 14 -10 30 -10 17 0 30 5 30 10 0 6 -13 10 -30 10
-16 0 -30 -4 -30 -10z"/>
<path d="M11935 2510 c-4 -6 8 -10 29 -10 20 0 36 5 36 10 0 6 -13 10 -29 10
-17 0 -33 -4 -36 -10z"/>
<path d="M12040 2510 c-12 -8 -10 -10 10 -10 14 0 32 5 40 10 12 8 10 10 -10
10 -14 0 -32 -5 -40 -10z"/>
<path d="M12200 2511 c0 -5 32 -9 70 -10 39 0 70 4 70 9 0 6 -31 10 -70 10
-38 0 -70 -4 -70 -9z"/>
<path d="M23923 2509 c14 -8 22 -8 30 0 8 8 3 11 -18 11 -26 -1 -28 -2 -12
-11z"/>
<path d="M32525 2510 c4 -6 11 -8 16 -5 14 9 11 15 -7 15 -8 0 -12 -5 -9 -10z"/>
<path d="M10830 2501 l-35 -7 36 -7 c39 -8 72 -1 63 14 -6 10 -11 10 -64 0z"/>
<path d="M11475 2500 c3 -5 10 -10 16 -10 5 0 9 5 9 10 0 6 -7 10 -16 10 -8 0
-12 -4 -9 -10z"/>
<path d="M11525 2500 c8 -13 45 -13 65 0 11 7 3 10 -28 10 -26 0 -41 -4 -37
-10z"/>
<path d="M11710 2500 c0 -6 16 -8 43 -4 58 9 59 14 4 14 -26 0 -47 -5 -47 -10z"/>
<path d="M8775 2489 c-4 -5 14 -9 41 -9 55 0 55 5 2 13 -21 3 -40 1 -43 -4z"/>
<path d="M9305 2490 c-3 -5 -1 -10 4 -10 6 0 11 5 11 10 0 6 -2 10 -4 10 -3 0
-8 -4 -11 -10z"/>
<path d="M9395 2490 c3 -5 10 -10 16 -10 5 0 9 5 9 10 0 6 -7 10 -16 10 -8 0
-12 -4 -9 -10z"/>
<path d="M11185 2490 c4 -6 11 -8 16 -5 14 9 11 15 -7 15 -8 0 -12 -5 -9 -10z"/>
<path d="M7355 2481 c-8 -13 -8 -13 55 -15 28 0 50 2 50 7 0 4 -15 7 -34 7
-19 0 -41 3 -49 6 -8 3 -18 1 -22 -5z"/>
<path d="M7535 2480 c-3 -6 1 -13 10 -16 19 -8 30 0 20 15 -8 14 -22 14 -30 1z"/>
<path d="M7654 2475 c22 -17 42 -19 50 -6 7 11 -17 21 -47 21 -22 -1 -22 -1
-3 -15z"/>
<path d="M7730 2479 c0 -12 25 -17 53 -12 40 8 33 18 -13 18 -22 0 -40 -3 -40
-6z"/>
<path d="M7835 2479 c-11 -16 1 -22 30 -15 14 4 23 11 20 16 -8 13 -42 13 -50
-1z"/>
<path d="M7940 2480 c0 -5 5 -10 10 -10 6 0 10 5 10 10 0 6 -4 10 -10 10 -5 0
-10 -4 -10 -10z"/>
<path d="M8030 2480 c0 -5 11 -10 25 -10 14 0 25 5 25 10 0 6 -11 10 -25 10
-14 0 -25 -4 -25 -10z"/>
<path d="M8290 2480 c0 -5 5 -10 10 -10 6 0 10 5 10 10 0 6 -4 10 -10 10 -5 0
-10 -4 -10 -10z"/>
<path d="M8615 2480 c3 -5 8 -10 11 -10 2 0 4 5 4 10 0 6 -5 10 -11 10 -5 0
-7 -4 -4 -10z"/>
<path d="M8956 2480 c7 -7 19 -7 35 -1 23 9 22 10 -10 10 -24 1 -32 -2 -25 -9z"/>
<path d="M4760 2470 c0 -5 25 -10 56 -10 34 0 53 4 49 10 -3 6 -28 10 -56 10
-27 0 -49 -4 -49 -10z"/>
<path d="M4988 2473 c7 -3 16 -2 19 1 4 3 -2 6 -13 5 -11 0 -14 -3 -6 -6z"/>
<path d="M5273 2473 c9 -2 23 -2 30 0 6 3 -1 5 -18 5 -16 0 -22 -2 -12 -5z"/>
<path d="M6770 2470 c0 -5 7 -10 15 -10 8 0 15 5 15 10 0 6 -7 10 -15 10 -8 0
-15 -4 -15 -10z"/>
<path d="M7120 2470 c19 -13 30 -13 30 0 0 6 -10 10 -22 10 -19 0 -20 -2 -8
-10z"/>
<path d="M19427 2413 c-10 -9 -8 -106 2 -122 11 -18 19 -4 30 56 11 55 -7 92
-32 66z"/>
<path d="M19517 2414 c-9 -10 -8 -74 3 -99 8 -20 8 -20 16 -1 19 49 5 124 -19
100z"/>
<path d="M19604 2406 c-8 -21 4 -104 16 -111 13 -8 22 34 18 80 -3 40 -24 58
-34 31z"/>
<path d="M85 2350 c-11 -17 5 -32 21 -19 7 6 11 15 8 20 -7 12 -21 11 -29 -1z"/>
<path d="M1225 2289 c-25 -23 -45 -50 -45 -59 0 -19 57 -60 83 -60 10 0 15 10
15 34 0 18 5 44 12 56 13 24 6 70 -10 70 -6 0 -31 -19 -55 -41z"/>
<path d="M208 2253 c-22 -3 -28 -10 -28 -28 0 -35 15 -38 46 -10 l27 25 24
-25 c18 -17 23 -30 18 -45 -7 -24 22 -78 35 -64 18 21 18 71 0 112 -18 39 -22
42 -57 41 -21 -1 -50 -4 -65 -6z"/>
<path d="M73 2205 c-12 -34 14 -133 31 -114 10 11 13 108 3 118 -15 15 -27 14
-34 -4z"/>
<path d="M186 2144 c-4 -10 -1 -14 6 -12 15 5 23 28 10 28 -5 0 -13 -7 -16
-16z"/>
<path d="M17980 2059 c-14 -6 -33 -8 -42 -5 -21 5 -33 -9 -17 -20 15 -9 556
-7 570 2 27 17 -28 22 -226 23 -117 0 -223 2 -236 5 -13 3 -35 1 -49 -5z"/>
<path d="M16285 2050 c-16 -6 -17 -9 -5 -13 35 -13 91 -17 107 -9 10 5 56 6
107 1 85 -8 124 -1 111 21 -6 9 -294 9 -320 0z"/>
<path d="M16658 2053 c-16 -2 -28 -9 -28 -14 0 -10 32 -4 60 12 16 9 14 9 -32
2z"/>
<path d="M16720 2050 c0 -5 5 -10 10 -10 6 0 10 5 10 10 0 6 -4 10 -10 10 -5
0 -10 -4 -10 -10z"/>
<path d="M16850 2050 c-11 -7 -7 -10 18 -10 20 0 31 4 27 10 -8 13 -26 13 -45
0z"/>
<path d="M18546 2053 c-3 -4 -6 -10 -6 -15 0 -9 445 -6 454 3 3 3 -51 7 -122
8 -70 1 -170 4 -223 6 -53 2 -100 1 -103 -2z"/>
<path d="M19070 2050 c-58 -5 -62 -7 -40 -16 17 -8 47 -8 95 -2 39 5 89 7 112
4 23 -3 45 -1 48 4 4 6 -12 10 -37 11 -24 1 -59 2 -78 3 -19 1 -64 -1 -100 -4z"/>
<path d="M15963 2040 c-13 -5 -23 -18 -23 -28 0 -10 -5 -23 -12 -30 -9 -9 -7
-20 8 -47 26 -49 41 -44 49 16 4 28 15 59 25 69 16 16 16 19 3 24 -18 7 -22 7
-50 -4z"/>
<path d="M16120 2034 c0 -11 5 -14 16 -10 9 3 31 6 50 6 19 0 34 5 34 10 0 6
-22 10 -50 10 -39 0 -50 -3 -50 -16z"/>
<path d="M17755 2040 c-22 -3 -40 -9 -39 -15 0 -16 15 -68 25 -93 5 -13 10
-58 10 -99 1 -42 6 -124 13 -183 10 -87 16 -110 35 -129 12 -12 25 -21 27 -18
2 2 6 118 9 257 l4 253 28 18 27 18 -50 -2 c-27 -1 -67 -4 -89 -7z"/>
<path d="M19360 2043 c0 -2 16 -17 35 -34 34 -30 35 -34 36 -103 0 -59 14
-134 19 -101 4 32 0 227 -5 236 -6 8 -85 11 -85 2z"/>
<path d="M15078 2023 c7 -3 16 -2 19 1 4 3 -2 6 -13 5 -11 0 -14 -3 -6 -6z"/>
<path d="M19570 2011 c20 -39 47 -40 35 -2 -3 12 -15 21 -26 21 -16 0 -18 -3
-9 -19z"/>
<path d="M15122 2004 c-7 -12 -31 -16 -116 -18 -59 -2 -112 -8 -118 -14 -6 -6
-31 -8 -60 -5 -37 4 -52 2 -59 -8 -5 -8 -23 -14 -40 -14 -18 0 -34 -5 -36 -11
-5 -16 53 -23 112 -14 35 6 57 4 75 -5 75 -40 88 -40 136 -6 44 31 46 31 169
31 103 0 125 3 125 15 0 18 -37 38 -56 31 -8 -3 -37 3 -65 14 -60 24 -56 24
-67 4z"/>
<path d="M6840 1997 c-3 -3 -25 -7 -50 -10 -25 -3 -46 -6 -48 -6 -2 -1 0 -6 3
-11 4 -6 10 -8 15 -5 5 3 59 6 120 6 63 0 110 4 110 9 0 6 -24 10 -52 10 -29
0 -62 3 -73 6 -11 3 -23 3 -25 1z"/>
<path d="M7128 1990 c-41 -10 -2 -22 70 -21 98 0 137 5 140 15 2 11 -171 15
-210 6z"/>
<path d="M7367 1994 c-14 -14 -7 -25 13 -22 12 2 21 8 21 13 0 12 -24 18 -34
9z"/>
<path d="M2840 1978 c-30 -5 -57 -13 -61 -19 -4 -7 -9 -4 -13 6 -10 28 -36 -1
-36 -41 0 -24 5 -34 20 -39 11 -3 20 -12 20 -19 0 -8 10 -11 29 -8 23 3 31 11
36 32 14 63 -8 60 561 65 510 5 609 9 599 26 -7 11 -1082 8 -1155 -3z"/>
<path d="M4062 1978 c6 -16 32 -22 64 -14 37 10 19 26 -27 26 -28 0 -39 -4
-37 -12z"/>
<path d="M4210 1980 c-12 -8 -12 -10 3 -16 21 -8 35 2 21 16 -5 5 -15 6 -24 0z"/>
<path d="M4270 1980 c0 -8 35 -20 58 -20 8 0 12 6 10 12 -5 13 -68 21 -68 8z"/>
<path d="M5190 1976 c0 -10 9 -16 21 -16 24 0 21 23 -4 28 -10 2 -17 -3 -17
-12z"/>
<path d="M7020 1980 c0 -5 9 -11 20 -11 11 -1 25 -2 32 -3 6 -1 13 5 16 12 2
8 -8 12 -32 12 -20 0 -36 -4 -36 -10z"/>
<path d="M7442 1980 c10 -6 31 -7 55 -1 38 9 38 9 -17 10 -40 0 -50 -2 -38 -9z"/>
<path d="M7623 1983 c15 -2 39 -2 55 0 15 2 2 4 -28 4 -30 0 -43 -2 -27 -4z"/>
<path d="M1757 1973 c-2 -1 -759 -14 -812 -14 -39 1 -105 -31 -105 -50 0 -30
16 -31 72 -4 l53 26 445 5 c509 5 628 8 635 16 12 11 -277 32 -288 21z"/>
<path d="M2340 1973 c-33 -6 -50 -23 -23 -23 43 0 85 13 71 21 -7 5 -15 8 -18
7 -3 0 -16 -3 -30 -5z"/>
<path d="M2490 1970 c-13 -9 -13 -10 0 -11 8 -1 19 -1 23 0 5 1 23 -3 41 -7
22 -7 42 -5 62 3 29 13 29 13 -21 14 -27 1 -59 4 -70 6 -11 3 -27 1 -35 -5z"/>
<path d="M4360 1970 c0 -5 5 -10 10 -10 6 0 10 5 10 10 0 6 -4 10 -10 10 -5 0
-10 -4 -10 -10z"/>
<path d="M4430 1970 c0 -5 9 -10 20 -10 11 0 20 5 20 10 0 6 -9 10 -20 10 -11
0 -20 -4 -20 -10z"/>
<path d="M4905 1970 c-3 -5 1 -10 10 -10 9 0 13 5 10 10 -3 6 -8 10 -10 10 -2
0 -7 -4 -10 -10z"/>
<path d="M5010 1969 c0 -5 36 -9 81 -9 51 0 78 4 74 10 -8 12 -155 11 -155 -1z"/>
<path d="M5325 1970 c-4 -6 6 -10 24 -10 16 0 33 5 36 10 4 6 -6 10 -24 10
-16 0 -33 -4 -36 -10z"/>
<path d="M5410 1973 c0 -5 23 -9 50 -10 31 -1 48 2 45 7 -7 12 -95 14 -95 3z"/>
<path d="M5535 1970 c-3 -5 -1 -10 4 -10 6 0 11 5 11 10 0 6 -2 10 -4 10 -3 0
-8 -4 -11 -10z"/>
<path d="M5710 1970 c0 -5 4 -10 9 -10 6 0 13 5 16 10 3 6 -1 10 -9 10 -9 0
-16 -4 -16 -10z"/>
<path d="M6569 1978 c-2 -6 -9 -46 -15 -80 -5 -31 -3 -37 15 -43 30 -9 39 0
46 49 7 42 17 54 65 69 8 3 -13 6 -47 6 -35 1 -63 0 -64 -1z"/>
<path d="M2115 1960 c-4 -6 5 -10 20 -10 15 0 24 4 20 10 -3 6 -12 10 -20 10
-8 0 -17 -4 -20 -10z"/>
<path d="M2180 1960 c20 -13 103 -13 95 0 -3 6 -30 10 -58 10 -37 0 -48 -3
-37 -10z"/>
<path d="M4680 1961 c-26 -4 -35 -11 -35 -26 -1 -11 -4 -25 -8 -31 -9 -15 37
-57 59 -52 11 2 22 17 28 38 5 19 18 41 28 48 40 29 12 38 -72 23z"/>
<path d="M6518 1963 c7 -3 16 -2 19 1 4 3 -2 6 -13 5 -11 0 -14 -3 -6 -6z"/>
<path d="M13165 1950 c-3 -5 1 -10 9 -10 9 0 16 5 16 10 0 6 -4 10 -9 10 -6 0
-13 -4 -16 -10z"/>
<path d="M13076 1937 c-18 -13 -18 -14 -1 -21 11 -4 22 -1 27 6 18 29 4 37
-26 15z"/>
<path d="M13250 1930 c0 -11 5 -20 10 -20 6 0 10 9 10 20 0 11 -4 20 -10 20
-5 0 -10 -9 -10 -20z"/>
<path d="M13190 1920 c0 -5 5 -10 10 -10 6 0 10 5 10 10 0 6 -4 10 -10 10 -5
0 -10 -4 -10 -10z"/>
<path d="M9162 1882 c-12 -2 -19 -8 -16 -14 4 -6 2 -13 -3 -17 -6 -3 -13 -16
-17 -29 -9 -29 16 -39 57 -24 21 8 34 8 43 1 8 -7 14 -6 19 2 5 7 21 9 41 6
18 -3 42 -3 54 0 20 5 20 7 4 24 -9 11 -23 19 -30 19 -7 0 -19 6 -26 14 -14
14 -84 24 -126 18z"/>
<path d="M18222 1868 c-23 -23 -5 -93 28 -103 17 -5 75 19 85 36 4 5 19 9 36
9 59 0 23 34 -61 57 -58 16 -73 16 -88 1z"/>
<path d="M15954 1855 c-8 -19 2 -45 16 -45 5 0 10 14 10 30 0 31 -16 41 -26
15z"/>
<path d="M19002 1848 c5 -32 28 -35 28 -4 0 17 -5 26 -16 26 -10 0 -14 -7 -12
-22z"/>
<path d="M18920 1846 c0 -14 29 -31 38 -22 2 3 2 12 -1 21 -8 19 -37 20 -37 1z"/>
<path d="M9084 1835 c-7 -17 4 -37 17 -30 12 8 12 45 -1 45 -6 0 -13 -7 -16
-15z"/>
<path d="M18485 1843 c-11 -2 -30 -6 -43 -9 -31 -6 -20 -20 22 -28 22 -4 48
-1 70 8 31 13 36 13 36 0 0 -18 37 -18 74 1 16 9 32 12 35 7 6 -9 81 -24 81
-17 0 2 3 11 7 20 5 14 2 16 -13 11 -10 -3 -32 -2 -49 2 -16 5 -47 5 -67 2
-21 -4 -40 -5 -42 -2 -7 7 -86 11 -111 5z"/>
<path d="M18800 1830 c0 -5 7 -10 16 -10 8 0 12 5 9 10 -3 6 -10 10 -16 10 -5
0 -9 -4 -9 -10z"/>
<path d="M9446 1792 c-6 -10 3 -51 13 -53 3 -1 34 -3 69 -5 46 -2 62 1 62 10
0 24 -30 39 -72 38 -23 -1 -47 3 -54 8 -7 6 -15 7 -18 2z"/>
<path d="M16684 1763 c-3 -16 -7 -32 -8 -38 -2 -5 1 -20 5 -32 5 -13 4 -25 -2
-28 -5 -4 -7 -16 -3 -27 4 -14 2 -18 -5 -14 -8 5 -11 -10 -11 -49 0 -51 1 -55
19 -46 10 6 21 26 24 47 4 20 15 46 25 58 10 12 27 43 36 69 17 46 17 49 0 68
-9 10 -30 19 -45 19 -23 0 -30 -5 -35 -27z"/>
<path d="M15114 1752 c-25 -21 -38 -70 -25 -91 21 -33 93 54 77 94 -7 20 -26
19 -52 -3z"/>
<path d="M19445 1760 c-3 -5 -1 -10 4 -10 6 0 11 5 11 10 0 6 -2 10 -4 10 -3
0 -8 -4 -11 -10z"/>
<path d="M9662 1749 c2 -6 8 -10 13 -10 5 0 11 4 13 10 2 6 -4 11 -13 11 -9 0
-15 -5 -13 -11z"/>
<path d="M14822 1698 c-17 -17 -15 -48 3 -48 9 0 21 -11 27 -25 6 -14 14 -25
18 -25 4 0 15 -18 25 -40 10 -22 21 -40 25 -40 12 0 50 41 50 54 0 8 -7 19
-15 26 -8 7 -15 18 -15 26 0 20 -68 84 -88 84 -10 0 -23 -5 -30 -12z"/>
<path d="M9282 1648 c3 -26 32 -35 53 -18 21 18 6 40 -27 40 -25 0 -29 -4 -26
-22z"/>
<path d="M16450 1630 c0 -11 5 -20 10 -20 6 0 10 9 10 20 0 11 -4 20 -10 20
-5 0 -10 -9 -10 -20z"/>
<path d="M7255 1596 c-18 -13 -21 -30 -26 -148 -5 -134 -3 -168 11 -168 14 0
21 44 23 137 2 99 13 126 45 107 12 -8 18 -27 20 -63 5 -79 19 -60 21 27 1 49
-3 84 -11 94 -19 25 -59 31 -83 14z"/>
<path d="M3793 1566 c-30 -31 -29 -36 10 -36 17 0 41 -7 51 -15 31 -24 38 -18
20 18 -15 29 -41 56 -54 57 -3 0 -15 -11 -27 -24z"/>
<path d="M7019 1562 c-21 -38 -18 -86 7 -90 17 -2 19 4 20 58 1 33 -2 60 -5
60 -3 0 -13 -12 -22 -28z"/>
<path d="M3684 1567 c-3 -8 -25 -18 -49 -21 -25 -4 -53 -17 -67 -30 -12 -12
-31 -25 -40 -29 -20 -7 -22 -15 -8 -37 8 -12 12 -11 32 6 20 18 40 30 130 75
10 5 24 6 32 3 25 -9 25 10 0 29 -20 15 -25 16 -30 4z"/>
<path d="M14610 1570 c0 -5 5 -10 10 -10 6 0 10 5 10 10 0 6 -4 10 -10 10 -5
0 -10 -4 -10 -10z"/>
<path d="M8857 1552 c-10 -11 -17 -35 -17 -58 0 -21 -4 -54 -9 -71 -5 -18 -6
-35 -2 -38 5 -2 8 -49 7 -102 l-1 -98 28 -2 c31 -3 29 -12 33 167 3 128 -3
220 -15 220 -4 0 -15 -8 -24 -18z"/>
<path d="M10930 1550 c0 -5 4 -10 9 -10 6 0 13 5 16 10 3 6 -1 10 -9 10 -9 0
-16 -4 -16 -10z"/>
<path d="M15091 1489 c-17 -50 -14 -103 8 -124 19 -17 21 -16 40 16 26 43 27
100 3 122 -27 24 -39 21 -51 -14z"/>
<path d="M9892 1493 c-10 -4 -10 -8 -1 -19 15 -18 29 -18 29 0 0 18 -11 25
-28 19z"/>
<path d="M3900 1465 c0 -8 4 -15 10 -15 5 0 7 7 4 15 -4 8 -8 15 -10 15 -2 0
-4 -7 -4 -15z"/>
<path d="M16644 1436 c2 -27 10 -53 18 -57 20 -13 58 -11 58 4 0 18 -40 80
-47 73 -3 -3 -12 2 -19 12 -12 15 -13 11 -10 -32z"/>
<path d="M7416 1454 c-19 -18 -19 -20 -6 -45 14 -25 37 -24 45 1 5 17 -9 60
-20 60 -2 0 -11 -7 -19 -16z"/>
<path d="M7522 1458 c-17 -17 -15 -44 4 -62 21 -22 31 -20 48 7 30 45 -14 93
-52 55z"/>
<path d="M17797 1447 c-16 -20 -16 -22 -2 -25 20 -4 20 -4 29 26 9 28 -4 28
-27 -1z"/>
<path d="M13345 1449 c-8 -13 -6 -15 23 -23 24 -8 29 3 10 22 -15 15 -25 15
-33 1z"/>
<path d="M7007 1433 c-13 -12 -7 -80 7 -92 18 -15 24 2 18 57 -4 40 -11 50
-25 35z"/>
<path d="M31870 1414 c0 -14 4 -23 9 -19 11 6 10 45 -1 45 -4 0 -8 -12 -8 -26z"/>
<path d="M14799 1417 c-42 -19 -82 -64 -75 -83 10 -26 150 -15 179 15 21 20
21 22 5 49 -19 31 -65 39 -109 19z"/>
<path d="M32546 1404 c-9 -23 6 -37 34 -32 l22 3 -25 23 c-22 21 -25 21 -31 6z"/>
<path d="M3895 1400 c3 -5 11 -10 16 -10 6 0 7 5 4 10 -3 6 -11 10 -16 10 -6
0 -7 -4 -4 -10z"/>
<path d="M5600 1390 c0 -5 5 -10 10 -10 6 0 10 5 10 10 0 6 -4 10 -10 10 -5 0
-10 -4 -10 -10z"/>
<path d="M5807 1383 c-2 -5 0 -23 5 -40 9 -34 25 -42 46 -21 17 17 15 41 -3
34 -18 -7 -20 5 -3 22 9 9 6 12 -14 12 -15 0 -29 -3 -31 -7z"/>
<path d="M5592 1354 c-20 -23 -7 -44 28 -44 34 0 40 18 12 43 -22 20 -23 20
-40 1z"/>
<path d="M17115 1352 c-16 -9 -45 -16 -62 -16 -55 -1 -36 -18 51 -46 35 -11
40 -11 50 6 14 26 16 74 2 73 -6 -1 -24 -8 -41 -17z"/>
<path d="M16370 1350 c0 -5 5 -10 10 -10 6 0 10 5 10 10 0 6 -4 10 -10 10 -5
0 -10 -4 -10 -10z"/>
<path d="M7007 1306 c-6 -16 2 -28 14 -20 12 7 11 34 0 34 -5 0 -11 -6 -14
-14z"/>
<path d="M30560 1310 c0 -5 5 -10 10 -10 6 0 10 5 10 10 0 6 -4 10 -10 10 -5
0 -10 -4 -10 -10z"/>
<path d="M15303 1294 c-7 -19 21 -44 49 -44 22 0 23 9 2 38 -18 26 -42 29 -51
6z"/>
<path d="M3948 1293 c7 -3 16 -2 19 1 4 3 -2 6 -13 5 -11 0 -14 -3 -6 -6z"/>
<path d="M5612 1258 c2 -13 -8 -33 -24 -51 -34 -35 -36 -70 -6 -91 66 -47 120
30 68 97 -11 14 -20 35 -20 46 0 12 -5 21 -11 21 -6 0 -9 -10 -7 -22z"/>
<path d="M15390 1245 c0 -9 5 -15 11 -13 6 2 11 8 11 13 0 5 -5 11 -11 13 -6
2 -11 -4 -11 -13z"/>
<path d="M16760 1230 c0 -5 -7 -10 -15 -10 -8 0 -15 -7 -15 -15 0 -19 5 -19
35 1 28 18 33 34 10 34 -8 0 -15 -4 -15 -10z"/>
<path d="M9880 1186 c0 -8 5 -18 10 -21 6 -3 10 3 10 14 0 12 -4 21 -10 21 -5
0 -10 -6 -10 -14z"/>
<path d="M14976 1187 c-17 -12 -17 -15 -2 -30 27 -27 126 -17 126 13 0 4 -17
10 -37 12 -21 3 -45 8 -53 12 -9 3 -24 0 -34 -7z"/>
<path d="M14814 1145 c-38 -17 -58 -40 -50 -60 6 -16 36 -21 36 -6 0 6 18 20
40 32 66 37 45 65 -26 34z"/>
<path d="M3484 1112 c9 -15 96 -53 106 -47 20 12 10 35 -14 35 -14 0 -28 5
-31 10 -3 6 -20 10 -36 10 -17 0 -28 -4 -25 -8z"/>
<path d="M3630 1066 c0 -9 7 -19 15 -23 25 -9 27 2 5 22 -18 17 -20 17 -20 1z"/>
<path d="M17811 984 c0 -11 3 -14 6 -6 3 7 2 16 -1 19 -3 4 -6 -2 -5 -13z"/>
<path d="M9470 926 c0 -9 7 -16 16 -16 9 0 14 5 12 12 -6 18 -28 21 -28 4z"/>
<path d="M9288 898 c9 -9 15 -9 24 0 9 9 7 12 -12 12 -19 0 -21 -3 -12 -12z"/>
</g>
</svg>
