<?xml version="1.0" standalone="no"?>
<!DOCTYPE svg PUBLIC "-//W3C//DTD SVG 20010904//EN"
 "http://www.w3.org/TR/2001/REC-SVG-20010904/DTD/svg10.dtd">
<svg version="1.0" xmlns="http://www.w3.org/2000/svg"
 width="3264.000000pt" height="2448.000000pt" viewBox="0 0 3264.000000 2448.000000"
 preserveAspectRatio="xMidYMid meet">
<metadata>
Created by potrace 1.12, written by Peter Selinger 2001-2015
</metadata>
<g transform="translate(0.000000,2448.000000) scale(0.100000,-0.100000)"
fill="#000000" stroke="none">
<path d="M32391 24450 c-7 -17 -10 -38 -6 -48 5 -9 10 -51 12 -92 3 -68 14
-102 29 -88 3 3 5 48 4 100 -1 51 -1 108 -1 126 1 41 -20 42 -38 2z"/>
<path d="M31640 24310 c0 -5 -23 -19 -50 -31 -60 -26 -78 -50 -54 -73 19 -19
17 -19 57 -3 18 8 48 17 69 21 48 9 64 48 32 80 -17 18 -54 22 -54 6z"/>
<path d="M32407 24183 c-3 -10 -3 -106 -1 -213 5 -236 14 -1133 13 -1245 -1
-44 -1 -96 -2 -115 0 -19 3 -68 6 -109 3 -47 1 -81 -6 -92 -9 -14 -8 -22 1
-31 6 -6 12 -29 12 -50 0 -21 4 -38 9 -38 13 0 22 78 15 145 -3 33 -5 67 -4
75 3 48 0 631 -5 960 -9 669 -11 724 -22 727 -6 2 -14 -4 -16 -14z"/>
<path d="M31482 24179 c2 -7 10 -15 17 -17 8 -3 12 1 9 9 -2 7 -10 15 -17 17
-8 3 -12 -1 -9 -9z"/>
<path d="M32425 22250 c-7 -31 -1 -50 16 -50 12 0 12 67 0 74 -5 4 -12 -7 -16
-24z"/>
<path d="M32430 22143 c-1 -113 -3 -995 -3 -1093 1 -156 -2 -220 -11 -253 -5
-18 -4 -32 4 -42 10 -12 10 -18 0 -30 -10 -12 -9 -21 3 -47 9 -19 12 -38 7
-48 -4 -8 -6 -98 -4 -200 3 -102 4 -196 4 -210 1 -24 1 -24 12 -5 15 24 21
590 7 616 -4 9 -5 20 -1 24 10 10 11 917 1 937 -5 9 -6 19 -2 21 5 3 7 54 6
114 0 59 -1 119 0 133 2 101 1 114 -10 117 -9 3 -13 -8 -13 -34z"/>
<path d="M5615 21652 c-6 -4 -23 -22 -38 -40 -25 -31 -27 -40 -27 -127 0 -93
21 -318 41 -430 20 -116 89 -371 128 -470 125 -324 309 -660 435 -795 24 -25
51 -58 60 -73 19 -28 40 -34 65 -18 11 7 2 27 -45 95 -73 106 -100 154 -215
386 -146 297 -207 456 -269 712 -58 240 -106 606 -82 630 9 9 15 9 24 0 34
-34 117 3 103 47 -17 53 -142 111 -180 83z"/>
<path d="M2342 21591 c-19 -11 7 -30 52 -38 39 -6 46 5 20 31 -17 17 -51 21
-72 7z"/>
<path d="M2182 21577 c-15 -18 -4 -55 20 -63 21 -6 68 36 68 62 0 18 -73 19
-88 1z"/>
<path d="M2450 21535 c7 -8 16 -15 21 -15 5 0 9 7 9 15 0 9 -9 15 -21 15 -18
0 -19 -2 -9 -15z"/>
<path d="M3200 21370 c0 -5 7 -10 16 -10 8 0 12 5 9 10 -3 6 -10 10 -16 10 -5
0 -9 -4 -9 -10z"/>
<path d="M28106 21284 c-21 -7 -89 -28 -150 -45 -170 -48 -329 -135 -519 -288
-258 -208 -399 -491 -400 -801 0 -174 35 -308 112 -427 127 -195 471 -353 770
-353 127 0 291 48 291 85 0 22 -28 26 -141 19 -209 -14 -358 -2 -454 36 -222
86 -350 224 -406 435 -30 116 -30 309 1 425 29 110 96 254 154 328 57 75 210
220 295 279 96 67 244 149 297 163 40 12 52 11 96 -5 l51 -18 36 39 c20 22 52
45 71 53 19 7 45 17 58 22 24 9 29 38 10 57 -16 16 -124 14 -172 -4z"/>
<path d="M11261 21124 c-33 -28 -38 -54 -21 -114 5 -19 19 -118 30 -220 46
-418 95 -713 204 -1231 48 -227 64 -332 76 -500 19 -259 27 -310 52 -336 15
-16 31 -23 48 -21 l25 3 -2 145 c-3 161 -17 275 -69 550 -112 594 -136 727
-168 935 -41 268 -68 477 -62 483 3 2 21 -29 41 -69 21 -41 44 -82 53 -91 19
-23 56 -23 77 -1 25 24 13 73 -35 146 -22 34 -68 116 -102 182 -57 113 -91
165 -109 165 -4 0 -21 -12 -38 -26z"/>
<path d="M8915 20987 c-23 -13 -44 -34 -49 -50 -8 -23 -6 -31 19 -57 33 -34
44 -85 44 -211 2 -183 55 -655 82 -726 6 -16 24 -89 40 -163 40 -181 65 -264
101 -332 32 -60 52 -76 74 -57 19 16 18 22 -21 164 -40 149 -77 328 -105 515
-30 198 -39 298 -50 566 -9 232 -21 335 -42 362 -15 18 -48 14 -93 -11z"/>
<path d="M16197 20727 c-30 -17 -39 -30 -53 -76 -66 -226 -112 -702 -94 -958
28 -395 125 -809 212 -909 32 -36 65 -44 75 -19 3 9 -11 66 -31 128 -67 209
-114 453 -137 712 -18 209 0 597 41 860 16 100 15 99 44 80 30 -20 58 -13 76
19 16 31 9 59 -31 119 -42 64 -56 70 -102 44z"/>
<path d="M13420 20652 c-19 -9 -41 -29 -48 -45 -15 -31 -53 -265 -76 -472 -31
-282 -29 -714 5 -1050 19 -189 56 -381 99 -520 16 -49 49 -189 74 -310 25
-121 51 -233 58 -249 10 -25 9 -30 -9 -45 -60 -47 -183 -241 -183 -290 0 -20
-21 -79 -51 -145 -66 -141 -157 -390 -205 -554 -36 -124 -62 -186 -43 -102 9
40 5 69 -5 39 -73 -213 -116 -456 -123 -694 -5 -154 -2 -197 16 -300 46 -267
159 -438 357 -541 106 -56 195 -72 307 -55 142 21 219 49 387 141 215 119 576
480 745 745 52 82 145 270 190 385 20 52 47 122 60 155 117 296 191 711 155
866 -42 180 -144 276 -335 315 -208 43 -514 -31 -709 -170 -97 -69 -200 -186
-241 -272 -40 -84 -41 -87 -19 -108 26 -27 41 -18 88 52 59 89 196 229 271
277 200 128 438 178 606 125 141 -43 199 -144 199 -342 0 -387 -215 -995 -478
-1346 -91 -122 -215 -254 -349 -373 -256 -228 -385 -301 -579 -330 -60 -9 -81
-8 -130 6 -124 36 -196 92 -271 213 -81 130 -113 256 -120 488 -8 224 19 432
93 712 90 342 281 808 386 940 89 112 99 126 92 141 -4 9 -11 43 -17 76 -5 33
-42 195 -83 360 -99 407 -119 523 -143 825 -18 238 -20 350 -11 610 12 322 52
715 75 738 8 8 91 -75 122 -123 45 -67 65 -85 94 -85 30 0 49 23 49 61 0 26
-114 182 -170 233 -45 41 -77 45 -130 18z"/>
<path d="M19165 20322 c-137 -51 -276 -151 -392 -279 -43 -47 -110 -120 -148
-162 -94 -101 -112 -129 -147 -219 -36 -96 -45 -208 -29 -352 28 -241 139
-450 328 -617 166 -146 328 -203 581 -203 141 0 294 82 395 211 166 215 240
525 191 809 -32 187 -93 329 -225 530 -101 153 -157 209 -256 256 -65 31 -88
37 -162 41 -67 3 -97 -1 -136 -15z m201 -107 c80 -24 158 -95 246 -225 142
-210 206 -393 215 -615 6 -143 -14 -268 -63 -409 -68 -194 -218 -355 -356
-380 -57 -10 -236 11 -313 37 -110 38 -151 63 -236 144 -139 133 -225 269
-271 430 -19 67 -23 102 -23 243 0 209 12 246 118 357 130 136 299 191 486
159 166 -29 216 -73 246 -217 19 -88 51 -129 100 -129 63 0 83 63 36 115 -10
11 -28 52 -40 92 -52 174 -215 264 -453 249 -53 -3 -103 -9 -112 -12 -11 -4
-16 0 -16 14 0 25 91 86 195 129 91 37 160 42 241 18z"/>
<path d="M28695 20297 c-115 -43 -198 -112 -308 -255 -98 -128 -131 -267 -87
-369 25 -58 40 -71 128 -106 81 -33 130 -40 183 -27 54 14 136 72 149 105 14
37 28 30 40 -17 6 -24 17 -63 25 -88 7 -25 17 -63 21 -85 14 -83 77 -171 147
-207 41 -20 140 -50 209 -62 58 -10 188 35 188 66 0 19 -45 68 -62 68 -10 0
-36 -9 -58 -20 -46 -23 -116 -26 -163 -6 -74 31 -108 102 -132 274 -24 168
-17 315 17 397 39 92 41 120 15 151 -30 34 -113 40 -146 10 -25 -23 -56 -117
-66 -201 -9 -72 -33 -110 -117 -191 -84 -81 -110 -96 -160 -92 -61 5 -83 39
-83 132 0 104 50 202 154 306 96 95 158 129 249 137 62 5 73 3 115 -21 37 -22
50 -25 66 -16 37 19 27 56 -22 85 -100 58 -202 69 -302 32z"/>
<path d="M29950 20256 c-221 -59 -367 -160 -435 -299 -112 -232 -67 -549 88
-607 17 -7 47 -19 65 -28 38 -20 65 -9 70 28 3 16 -8 33 -36 60 -56 50 -75
120 -75 265 0 121 19 215 53 269 35 58 130 137 205 172 94 43 220 74 300 74
56 0 65 2 65 18 0 20 -61 52 -98 52 -11 0 -24 5 -27 10 -10 16 -84 11 -175
-14z"/>
<path d="M31472 20263 c-17 -16 -80 -91 -162 -196 -208 -265 -242 -297 -281
-261 -24 22 -20 64 22 206 40 135 39 171 -8 215 -37 35 -37 35 -106 28 -38 -3
-80 -11 -94 -16 -42 -16 -236 -149 -305 -210 -61 -55 -98 -73 -98 -49 0 12
-52 60 -66 60 -6 0 -18 -8 -27 -18 -12 -13 -16 -39 -15 -116 l0 -98 -56 -112
c-31 -61 -59 -127 -62 -147 -6 -35 -4 -38 51 -74 44 -30 61 -36 74 -28 22 13
67 97 86 156 41 137 199 327 380 460 71 53 92 64 102 54 10 -10 8 -27 -9 -82
-28 -91 -29 -177 -3 -230 29 -59 153 -135 219 -135 65 0 201 134 323 318 92
140 107 128 99 -83 -10 -240 -34 -374 -112 -610 -154 -469 -300 -768 -449
-921 -88 -89 -175 -139 -290 -165 -78 -17 -72 -17 -128 -18 -62 -1 -58 -19 9
-43 96 -35 257 1 403 91 187 115 346 396 559 986 57 157 100 311 112 396 5 41
15 112 22 159 23 167 16 272 -30 398 -29 83 -112 126 -160 85z m6 -134 c-7
-21 -14 -27 -21 -20 -7 7 -7 18 1 36 17 36 34 23 20 -16z m-1008 -269 c0 -5
-4 -10 -10 -10 -5 0 -10 5 -10 10 0 6 5 10 10 10 6 0 10 -4 10 -10z"/>
<path d="M32437 20168 c-9 -30 -9 -132 -1 -152 14 -35 21 -12 22 67 2 85 -10
129 -21 85z"/>
<path d="M22405 20069 c-38 -5 -107 -19 -153 -30 -80 -20 -85 -20 -119 -4 -61
29 -175 17 -265 -28 -216 -106 -497 -483 -607 -813 -50 -148 -64 -228 -64
-359 -1 -331 147 -677 349 -815 93 -65 214 -113 334 -134 82 -14 228 -8 317
14 124 31 272 108 352 184 169 160 392 527 475 779 90 273 100 698 22 935 -54
166 -152 237 -371 267 -111 16 -167 17 -270 4z m-432 -124 c0 -6 -40 -38 -89
-72 -126 -88 -236 -221 -305 -368 -32 -67 -49 -145 -32 -145 17 0 60 54 93
118 73 139 152 245 225 300 124 93 222 131 444 168 129 22 301 15 391 -16 117
-41 191 -112 222 -215 40 -134 51 -418 22 -618 -32 -224 -134 -466 -308 -727
-103 -155 -194 -251 -283 -298 -253 -134 -522 -116 -744 51 -134 100 -207 226
-271 467 -29 111 -36 357 -13 470 49 240 175 479 373 710 93 108 166 166 224
180 39 9 49 8 51 -5z"/>
<path d="M32435 19970 c-4 -6 -9 -102 -11 -213 -5 -261 -5 -245 4 -265 5 -10
4 -51 -3 -95 -8 -56 -8 -86 0 -105 6 -15 10 -49 9 -77 -3 -90 -2 -259 2 -305
2 -25 4 -52 3 -60 -11 -257 -9 -324 13 -302 7 7 10 82 10 214 -2 771 -7 1210
-13 1214 -4 2 -11 0 -14 -6z"/>
<path d="M9238 18583 c-38 -6 -72 -55 -65 -93 4 -15 -5 -103 -18 -195 -14 -92
-25 -188 -25 -213 0 -26 -5 -67 -11 -92 -7 -25 -13 -94 -14 -155 -1 -60 -6
-195 -10 -300 -6 -147 -4 -231 9 -370 18 -188 40 -365 56 -450 5 -27 17 -97
25 -155 9 -58 22 -139 30 -180 37 -196 69 -377 111 -625 51 -303 66 -347 128
-381 48 -27 73 -21 94 22 15 32 14 38 -11 121 -14 48 -42 176 -62 283 -20 107
-50 260 -65 340 -118 595 -158 915 -166 1345 -6 262 -4 328 15 520 23 243 36
361 53 478 8 60 8 80 -2 92 -12 15 -20 16 -72 8z"/>
<path d="M32430 18406 c0 -95 9 -132 24 -107 10 16 14 165 5 189 -19 49 -29
20 -29 -82z"/>
<path d="M11401 18437 c-37 -18 -59 -72 -82 -195 -11 -62 -27 -133 -35 -160
-8 -26 -21 -96 -29 -157 -43 -331 -56 -424 -65 -462 -6 -24 -10 -174 -10 -345
0 -324 10 -446 69 -908 17 -129 39 -349 50 -487 23 -286 34 -329 91 -353 23
-10 37 -10 49 -3 27 18 16 315 -25 678 -8 72 -26 225 -39 340 -42 375 -48 490
-42 800 8 331 33 579 83 820 14 66 32 156 41 200 8 44 23 109 33 143 18 62 18
64 -1 83 -22 22 -53 24 -88 6z"/>
<path d="M32442 18249 c1 -13 0 -80 -1 -149 -1 -69 0 -219 2 -335 1 -115 -1
-217 -6 -225 -5 -8 -5 -37 0 -65 l9 -50 23 46 c19 39 20 49 9 70 -9 18 -12 75
-11 204 1 99 -3 197 -8 219 -7 24 -7 42 -1 48 11 11 4 239 -8 252 -4 4 -8 -3
-8 -15z"/>
<path d="M6591 18159 c-134 -12 -296 -66 -391 -130 -115 -77 -230 -219 -314
-386 -30 -60 -43 -76 -78 -94 -52 -26 -138 -107 -191 -178 -86 -116 -158 -315
-179 -493 -10 -84 -9 -108 6 -180 10 -46 29 -109 41 -141 35 -86 111 -193 169
-239 106 -85 264 -138 409 -138 156 0 493 137 718 292 214 146 352 317 503
621 166 334 193 527 101 713 -88 179 -336 332 -563 348 -48 4 -100 8 -117 9
-16 2 -68 0 -114 -4z m275 -114 c178 -30 342 -142 410 -281 27 -55 29 -67 29
-174 -1 -109 -3 -121 -44 -240 -62 -179 -168 -386 -273 -533 -107 -151 -295
-294 -549 -419 -244 -121 -401 -143 -574 -82 -131 46 -221 137 -275 277 -64
163 -62 331 4 527 39 112 56 147 108 218 65 87 72 66 29 -88 -32 -114 -25
-180 18 -180 23 0 27 10 47 109 30 147 79 284 108 303 23 15 126 7 225 -18
112 -28 185 -43 247 -51 34 -4 45 -1 63 18 48 52 15 79 -125 104 -49 9 -129
24 -179 35 -49 10 -107 21 -127 25 -28 4 -38 11 -38 24 0 20 143 213 186 251
104 90 220 150 344 175 89 18 259 18 366 0z"/>
<path d="M16692 18150 c-19 -4 -37 -12 -41 -16 -18 -21 -32 -219 -33 -479 0
-232 4 -327 26 -555 15 -151 31 -297 36 -323 6 -26 10 -68 10 -93 0 -25 13
-150 30 -277 16 -128 41 -338 54 -467 36 -337 75 -657 87 -717 11 -58 52 -103
94 -103 42 0 49 21 36 118 -6 48 -18 159 -26 247 -15 159 -33 337 -60 595 -8
74 -17 171 -20 215 -6 80 -48 490 -81 790 -22 193 -26 875 -7 960 9 39 8 55
-2 76 -12 22 -45 41 -65 38 -3 -1 -20 -5 -38 -9z"/>
<path d="M21635 17759 c-105 -14 -255 -50 -297 -70 -39 -20 -53 -45 -42 -74 6
-14 15 -16 57 -11 28 4 58 11 67 16 20 11 41 -6 33 -27 -3 -8 -45 -41 -94 -74
-101 -68 -169 -145 -228 -259 -182 -351 -214 -886 -70 -1171 59 -117 141 -187
291 -246 88 -35 99 -37 203 -37 130 0 190 15 320 81 105 54 162 91 342 225
183 136 332 288 404 409 139 236 185 476 124 650 -126 362 -453 570 -930 592
-60 3 -141 1 -180 -4z m364 -104 c170 -33 351 -111 441 -192 86 -77 165 -208
196 -326 37 -138 -5 -349 -103 -526 -77 -136 -193 -259 -383 -402 -231 -174
-332 -233 -465 -270 -148 -40 -335 -11 -413 63 -44 43 -96 153 -118 253 -29
125 -26 443 4 590 28 135 50 206 95 310 88 204 141 266 296 344 74 38 99 70
82 107 -6 14 -11 34 -11 44 0 19 8 20 149 20 92 0 180 -6 230 -15z"/>
<path d="M19582 17606 c-54 -29 -144 -229 -162 -358 -9 -64 -13 -366 -5 -463
18 -246 40 -386 122 -780 24 -114 27 -153 27 -324 1 -176 3 -195 19 -205 33
-20 58 34 77 167 14 98 -14 465 -50 646 -40 205 -49 352 -40 661 8 257 11 295
34 385 20 76 36 114 67 158 46 66 47 96 4 115 -33 15 -64 15 -93 -2z"/>
<path d="M29199 17571 c-22 -14 -68 -121 -79 -183 -5 -29 -20 -98 -34 -153
-13 -55 -30 -127 -36 -160 -7 -33 -29 -127 -51 -210 -21 -82 -41 -161 -45
-175 -32 -127 -129 -399 -216 -604 l-33 -79 -155 -73 c-211 -98 -246 -132
-177 -174 60 -37 92 -36 152 4 104 69 103 52 -10 -177 -52 -106 -95 -203 -95
-215 0 -25 6 -30 71 -46 87 -23 85 -25 259 409 43 108 80 184 93 192 15 10 99
35 237 72 58 16 146 40 195 54 50 14 128 35 175 47 47 12 114 30 149 40 36 11
68 17 72 14 4 -2 15 -28 25 -57 9 -28 62 -144 117 -257 144 -296 257 -562 257
-602 0 -4 -13 -8 -29 -8 -33 0 -46 -22 -31 -50 11 -21 120 -90 142 -90 47 0
50 85 9 210 -42 124 -119 294 -271 599 l-132 265 22 18 c12 10 30 18 40 18 54
0 65 32 26 69 -20 19 -33 22 -78 19 l-53 -3 -48 145 c-41 126 -100 320 -121
400 -4 14 -21 77 -37 140 -17 63 -50 192 -74 285 -53 210 -79 281 -111 302
-30 19 -103 27 -125 14z m31 -175 c0 -7 -6 -19 -14 -25 -11 -9 -15 -8 -20 5
-10 26 -7 34 14 34 11 0 20 -6 20 -14z m32 -43 c9 -10 21 -43 28 -73 35 -154
215 -717 287 -898 26 -66 42 -117 37 -122 -5 -5 -59 -19 -119 -30 -124 -24
-328 -76 -471 -120 -53 -17 -100 -30 -105 -30 -15 0 -9 43 12 90 80 172 172
490 253 870 44 207 46 221 46 276 0 57 7 65 32 37z m-635 -1479 c-30 -16 -44
-14 -32 5 3 6 18 11 33 11 l27 -1 -28 -15z"/>
<path d="M32450 17381 c0 -11 -5 -23 -11 -27 -6 -3 -8 -17 -4 -33 4 -14 6 -90
6 -168 -1 -79 3 -144 9 -148 5 -3 6 -28 3 -55 -4 -35 -2 -50 6 -50 10 0 13 47
11 200 0 14 0 87 0 163 0 83 -4 137 -10 137 -6 0 -10 -9 -10 -19z"/>
<path d="M22937 17013 c-4 -3 -7 -17 -7 -30 0 -33 24 -24 28 10 3 26 -7 35
-21 20z"/>
<path d="M32447 16883 c-4 -6 -3 -102 3 -313 1 -13 2 -13 10 1 9 16 11 69 7
221 -2 81 -8 110 -20 91z"/>
<path d="M32450 16430 c0 -13 5 -20 13 -17 6 2 12 10 12 17 0 7 -6 15 -12 18
-8 2 -13 -5 -13 -18z"/>
<path d="M32450 16345 c0 -8 0 -18 -1 -22 0 -4 4 -9 10 -11 6 -2 11 8 11 22 0
14 -4 26 -10 26 -5 0 -10 -7 -10 -15z"/>
<path d="M32460 16192 c0 -18 5 -32 10 -32 6 0 8 11 4 28 -10 39 -14 40 -14 4z"/>
<path d="M32451 16070 c-1 -48 11 -66 22 -36 7 19 -3 86 -13 86 -4 0 -8 -22
-9 -50z"/>
<path d="M32457 15972 c-7 -37 7 -80 17 -52 3 8 2 31 -2 50 l-8 35 -7 -33z"/>
<path d="M32455 15787 c-8 -53 -3 -102 10 -102 5 0 10 33 10 73 2 79 -10 96
-20 29z"/>
<path d="M32454 15598 c3 -29 6 -66 6 -82 0 -17 4 -26 8 -20 12 13 2 154 -11
154 -6 0 -7 -19 -3 -52z"/>
<path d="M32460 15353 c0 -13 5 -23 10 -23 13 0 13 11 0 30 -8 12 -10 11 -10
-7z"/>
<path d="M32462 15200 c-1 -33 13 -48 22 -24 3 9 0 24 -7 35 -13 18 -14 17
-15 -11z"/>
<path d="M18940 15179 c0 -24 23 -21 28 4 2 10 -3 17 -12 17 -10 0 -16 -9 -16
-21z"/>
<path d="M32458 15068 c-5 -52 6 -98 25 -98 5 0 6 7 3 16 -3 9 -6 42 -6 75 0
73 -16 78 -22 7z"/>
<path d="M32467 14814 c-10 -10 -9 -74 2 -74 5 0 11 9 14 21 6 24 -5 63 -16
53z"/>
<path d="M32467 14693 c-3 -16 -1 -32 4 -37 5 -6 9 4 9 27 0 44 -6 48 -13 10z"/>
<path d="M2701 14617 c-62 -31 -83 -74 -83 -174 0 -267 12 -554 31 -698 37
-290 111 -739 130 -788 15 -38 14 -74 -1 -83 -7 -5 -87 -10 -178 -12 -164 -3
-429 16 -710 53 -63 8 -192 22 -286 31 -163 16 -174 16 -228 -1 -60 -19 -85
-47 -73 -79 5 -13 27 -16 125 -16 65 0 154 -4 198 -10 150 -18 349 -40 498
-55 167 -17 510 -20 600 -5 100 16 102 14 110 -98 3 -53 11 -133 16 -177 28
-219 23 -385 -16 -585 -30 -150 -89 -288 -131 -304 -10 -4 -41 -4 -70 0 -48 6
-53 4 -53 -13 0 -30 40 -61 96 -74 98 -23 152 15 208 146 91 212 115 446 81
802 -9 89 -22 193 -29 233 -13 66 -13 71 4 80 10 6 41 10 69 10 27 0 134 9
238 20 103 11 233 25 288 31 55 5 138 16 185 24 47 9 180 22 295 30 268 19
436 34 446 41 5 3 9 16 9 30 0 37 -37 46 -165 39 -60 -3 -155 -8 -210 -11
-152 -8 -361 -29 -670 -68 -485 -60 -494 -61 -507 -48 -6 6 -14 48 -18 94 -4
46 -19 180 -34 298 -14 118 -31 256 -37 305 -6 50 -17 135 -25 190 -37 260
-40 598 -7 757 9 42 13 84 10 92 -9 22 -54 19 -106 -7z"/>
<path d="M32471 14534 c0 -11 3 -14 6 -6 3 7 2 16 -1 19 -3 4 -6 -2 -5 -13z"/>
<path d="M19371 14411 c-29 -29 -48 -93 -78 -256 -26 -138 -28 -169 -27 -385
1 -184 6 -266 22 -377 12 -77 26 -183 32 -235 6 -51 24 -169 41 -263 28 -161
38 -206 95 -450 33 -143 62 -307 84 -487 11 -86 25 -169 30 -183 6 -14 10 -38
10 -53 1 -16 15 -43 35 -66 50 -56 61 -42 69 92 5 85 2 133 -14 232 -12 69
-26 159 -32 200 -6 41 -34 197 -63 345 -29 149 -60 311 -69 360 -21 120 -63
502 -77 695 -21 279 5 586 60 730 34 89 28 101 -56 114 -34 5 -47 2 -62 -13z"/>
<path d="M29108 14405 c-221 -44 -445 -175 -568 -331 -146 -185 -189 -402
-160 -794 5 -69 14 -190 20 -270 5 -80 17 -190 24 -245 8 -55 18 -122 21 -150
12 -93 66 -417 85 -512 11 -52 20 -107 20 -122 0 -14 4 -32 9 -39 8 -13 56
-29 119 -39 34 -5 62 -35 62 -65 0 -10 19 -27 51 -42 64 -33 160 -35 251 -6
572 179 738 239 923 335 300 155 430 271 486 432 10 31 19 71 19 90 0 54 -38
119 -104 179 -145 131 -635 318 -1011 386 -87 16 -91 33 -15 62 209 81 445
290 536 474 14 29 33 89 42 133 18 94 9 163 -34 254 -53 111 -209 227 -359
265 -93 24 -309 26 -417 5z m397 -98 c91 -18 130 -37 187 -93 63 -61 88 -116
90 -195 4 -235 -206 -492 -537 -656 -80 -40 -184 -75 -260 -89 -95 -16 -101
-53 -15 -97 45 -24 75 -30 170 -38 152 -13 466 -80 625 -134 384 -130 575
-238 575 -326 0 -53 -55 -154 -118 -216 -102 -103 -363 -254 -586 -340 -251
-97 -598 -207 -691 -218 -27 -4 -57 -9 -66 -11 -11 -3 -24 8 -38 31 -14 23
-37 43 -65 56 -57 25 -83 59 -91 117 -4 26 -20 115 -36 197 -43 220 -70 408
-109 755 -18 154 -29 517 -18 593 41 298 152 453 413 578 91 43 161 67 255 89
57 13 240 11 315 -3z"/>
<path d="M22398 14373 c-25 -29 -30 -58 -19 -120 6 -32 13 -139 16 -238 10
-330 33 -590 81 -925 58 -402 77 -571 90 -775 7 -123 -10 -340 -33 -420 -28
-97 -28 -100 6 -125 18 -12 39 -19 47 -16 69 27 126 460 95 731 -29 262 -62
547 -71 615 -38 290 -69 906 -56 1111 5 71 3 115 -4 129 -25 46 -122 67 -152
33z"/>
<path d="M32468 14348 c-3 -7 -3 -31 1 -53 l7 -40 7 39 c6 41 -5 82 -15 54z"/>
<path d="M17083 14276 c-73 -35 -85 -57 -94 -184 -4 -59 -12 -136 -18 -172
-38 -238 -37 -554 2 -760 14 -74 35 -187 47 -250 23 -132 50 -234 121 -470 17
-58 43 -127 59 -155 15 -27 33 -67 39 -87 39 -118 64 -1 30 135 -6 21 -18 88
-29 150 -10 61 -33 173 -50 247 -82 357 -113 601 -114 900 0 181 3 235 22 340
28 152 37 182 63 206 20 18 22 17 89 -5 38 -13 76 -21 84 -18 24 9 37 52 26
81 -16 42 -54 59 -144 63 -70 4 -88 1 -133 -21z"/>
<path d="M6735 14254 c-100 -18 -284 -76 -396 -124 -228 -98 -409 -279 -539
-538 -48 -96 -62 -154 -39 -167 16 -11 46 22 97 108 74 124 194 278 269 344
168 147 308 211 603 274 151 33 400 33 513 1 170 -48 286 -131 333 -239 70
-157 48 -476 -50 -768 -57 -168 -142 -345 -213 -444 -155 -217 -300 -356 -464
-445 -88 -48 -164 -73 -262 -87 -72 -9 -94 -8 -179 9 -216 45 -308 127 -417
369 -72 161 -94 287 -79 463 13 165 53 269 159 416 69 95 85 133 69 163 -24
46 -116 5 -160 -73 -17 -28 -30 -57 -30 -65 0 -7 -15 -39 -34 -70 -93 -153
-141 -410 -110 -591 50 -291 220 -563 406 -650 108 -50 180 -65 313 -64 239 2
429 87 665 298 314 280 531 764 556 1242 12 213 -28 339 -142 451 -74 73 -201
140 -329 174 -107 28 -418 36 -540 13z"/>
<path d="M32465 14221 c-3 -5 -1 -12 5 -16 5 -3 10 1 10 9 0 18 -6 21 -15 7z"/>
<path d="M13658 14190 c-45 -24 -56 -58 -69 -200 -6 -76 -3 -137 16 -307 14
-117 22 -233 19 -260 -4 -29 2 -100 15 -180 12 -72 26 -174 31 -225 5 -51 16
-151 25 -223 22 -191 45 -574 45 -777 0 -132 3 -179 13 -185 7 -4 17 -21 22
-38 14 -42 57 -47 81 -9 37 56 38 376 3 824 -10 136 -71 638 -89 740 -38 215
-52 591 -28 758 10 71 10 85 -2 92 -22 14 -41 11 -82 -10z"/>
<path d="M32470 14086 c0 -14 5 -26 10 -26 6 0 10 9 10 19 0 11 -4 23 -10 26
-6 4 -10 -5 -10 -19z"/>
<path d="M32466 14015 c-3 -8 -1 -15 4 -15 6 0 10 7 10 15 0 8 -2 15 -4 15 -2
0 -6 -7 -10 -15z"/>
<path d="M32465 13968 c-10 -26 2 -55 17 -40 8 8 8 18 1 34 -10 21 -12 21 -18
6z"/>
<path d="M11165 13951 c-104 -28 -121 -36 -225 -106 -182 -121 -279 -224 -354
-374 -72 -144 -102 -249 -130 -449 -29 -207 -17 -395 39 -600 28 -104 50 -151
108 -235 134 -192 445 -320 683 -282 214 34 343 152 566 515 137 224 210 454
239 760 36 382 -64 659 -269 742 -49 20 -74 23 -187 23 -107 0 -143 -4 -204
-23 -40 -13 -74 -22 -76 -20 -1 2 -7 17 -12 33 -9 27 -14 30 -59 32 -27 1 -80
-6 -119 -16z m55 -101 c0 -5 -24 -22 -52 -36 -89 -45 -164 -103 -205 -159 -66
-88 -81 -185 -31 -201 17 -5 27 0 45 22 13 16 26 40 29 54 28 116 160 227 331
280 82 25 225 50 289 50 158 0 271 -101 323 -289 35 -124 46 -275 32 -423 -22
-222 -40 -288 -129 -470 -178 -361 -332 -570 -477 -646 -46 -25 -60 -27 -165
-27 -108 1 -121 3 -207 36 -189 74 -284 153 -357 302 -88 178 -117 348 -97
572 30 327 120 565 276 720 88 88 198 166 284 201 58 25 111 31 111 14z"/>
<path d="M9154 13865 c-24 -25 -44 -47 -44 -50 0 -21 -34 -223 -46 -275 -34
-148 -24 -1091 16 -1376 27 -198 45 -246 85 -230 34 13 36 53 15 245 -27 240
-38 736 -21 936 15 177 35 340 65 525 37 222 38 237 20 255 -24 24 -42 18 -90
-30z"/>
<path d="M32470 13856 c0 -14 5 -26 10 -26 6 0 10 9 10 19 0 11 -4 23 -10 26
-6 4 -10 -5 -10 -19z"/>
<path d="M32470 13767 c0 -8 -3 -22 -6 -31 -4 -11 -1 -16 10 -16 12 0 16 7 13
25 -3 28 -17 46 -17 22z"/>
<path d="M32465 13690 c-8 -13 5 -94 13 -85 11 10 14 95 3 95 -5 0 -13 -5 -16
-10z"/>
<path d="M32540 13586 c0 -9 5 -16 10 -16 6 0 10 4 10 9 0 6 -4 13 -10 16 -5
3 -10 -1 -10 -9z"/>
<path d="M32472 13420 c0 -14 2 -19 5 -12 2 6 2 18 0 25 -3 6 -5 1 -5 -13z"/>
<path d="M32476 13321 c-4 -7 -5 -15 -2 -18 9 -9 19 4 14 18 -4 11 -6 11 -12
0z"/>
<path d="M32470 13240 c0 -11 5 -20 10 -20 6 0 10 9 10 20 0 11 -4 20 -10 20
-5 0 -10 -9 -10 -20z"/>
<path d="M32481 13143 c0 -12 -5 -25 -11 -28 -15 -9 -12 -42 4 -48 19 -7 23 9
15 58 -3 22 -7 30 -8 18z"/>
<path d="M32480 13009 c0 -11 4 -18 10 -14 5 3 7 12 3 20 -7 21 -13 19 -13 -6z"/>
<path d="M32476 12932 c-4 -18 -5 -36 -2 -39 11 -12 17 5 14 39 l-3 33 -9 -33z"/>
<path d="M32550 12851 c0 -6 5 -13 10 -16 6 -3 10 1 10 9 0 9 -4 16 -10 16 -5
0 -10 -4 -10 -9z"/>
<path d="M32480 12724 c0 -8 5 -12 10 -9 6 3 10 10 10 16 0 5 -4 9 -10 9 -5 0
-10 -7 -10 -16z"/>
<path d="M32480 12648 c0 -19 2 -20 10 -8 13 19 13 30 0 30 -5 0 -10 -10 -10
-22z"/>
<path d="M32478 12573 c-5 -7 -4 -42 2 -88 1 -11 6 2 11 30 7 44 -1 81 -13 58z"/>
<path d="M32481 12425 c1 -19 18 -51 18 -35 0 8 -4 22 -9 30 -5 8 -9 11 -9 5z"/>
<path d="M32024 12149 c-3 -6 -1 -16 5 -22 8 -8 11 -5 11 11 0 24 -5 28 -16
11z"/>
<path d="M32481 12113 c0 -31 2 -34 9 -18 12 28 12 55 0 55 -5 0 -10 -17 -9
-37z"/>
<path d="M32477 12037 c-3 -7 -2 -26 1 -43 l6 -29 7 25 c10 36 10 60 0 60 -5
0 -11 -6 -14 -13z"/>
<path d="M32488 11954 c-5 -4 -8 -23 -7 -43 0 -34 1 -34 10 -11 11 27 8 66 -3
54z"/>
<path d="M32474 11725 c-3 -14 -1 -31 5 -39 7 -8 9 -25 5 -40 -4 -16 -2 -26 5
-26 7 0 11 23 11 59 0 63 -15 90 -26 46z"/>
<path d="M32480 11574 c0 -8 5 -12 10 -9 6 3 10 10 10 16 0 5 -4 9 -10 9 -5 0
-10 -7 -10 -16z"/>
<path d="M32478 11452 c-5 -52 0 -75 13 -66 12 7 12 101 0 108 -5 3 -11 -15
-13 -42z"/>
<path d="M32490 11319 c0 -11 4 -18 10 -14 5 3 7 12 3 20 -7 21 -13 19 -13 -6z"/>
<path d="M32475 11250 c-3 -5 -1 -20 6 -32 l12 -22 9 23 c12 33 -10 58 -27 31z"/>
<path d="M32480 10951 c0 -5 5 -13 10 -16 6 -3 10 -2 10 4 0 5 -4 13 -10 16
-5 3 -10 2 -10 -4z"/>
<path d="M9490 10833 c-357 -5 -1320 -37 -1605 -53 -99 -5 -229 -12 -290 -15
-99 -5 -244 -15 -680 -45 -490 -34 -1229 -106 -1625 -160 -82 -11 -400 -53
-575 -75 -60 -8 -211 -28 -335 -44 -124 -17 -277 -37 -340 -46 -63 -8 -194
-26 -290 -40 -168 -23 -448 -56 -765 -90 -265 -28 -727 -104 -755 -124 -35
-25 -37 -56 -6 -76 31 -20 48 -19 246 23 171 36 223 43 605 83 442 45 462 48
1090 133 143 20 395 53 560 75 165 22 332 45 370 51 39 5 162 21 275 35 113
14 239 29 280 35 90 12 426 47 565 60 55 4 177 15 270 24 580 54 1542 108
2315 131 107 3 229 8 270 11 41 2 356 7 700 10 578 6 1217 -1 2440 -26 256 -5
1012 -12 1680 -15 668 -3 1294 -7 1390 -10 399 -10 595 -16 765 -25 99 -6 290
-15 425 -20 242 -11 313 -14 480 -25 47 -3 150 -7 229 -10 163 -6 313 -16 321
-20 3 -2 107 -7 230 -10 124 -4 228 -9 231 -11 3 -2 102 -6 220 -9 118 -4 220
-8 228 -11 7 -2 66 -7 130 -9 64 -3 150 -8 191 -10 41 -3 172 -10 290 -16 381
-17 413 -19 525 -29 94 -9 304 -21 930 -56 61 -3 128 -7 150 -10 48 -4 350
-25 421 -29 27 -1 77 -5 110 -9 32 -4 129 -11 214 -17 85 -6 171 -12 190 -14
93 -8 296 -26 390 -34 58 -6 139 -13 180 -16 41 -3 120 -10 175 -15 55 -6 177
-17 270 -25 178 -15 909 -88 1055 -105 225 -26 532 -62 690 -80 96 -12 202
-25 235 -30 33 -5 276 -36 540 -69 620 -78 626 -78 785 -96 278 -32 622 -81
810 -116 139 -25 223 -50 298 -87 74 -37 97 -33 88 12 -7 36 -62 89 -121 116
-69 32 -236 72 -435 104 -151 25 -619 85 -780 101 -80 7 -371 42 -845 100
-963 119 -1475 173 -2395 255 -63 6 -187 17 -275 25 -379 35 -889 74 -1282
100 -125 8 -293 19 -373 24 -192 14 -930 60 -1290 81 -235 14 -472 28 -660 40
-85 5 -288 17 -450 25 -162 8 -549 29 -860 46 -311 16 -671 34 -800 39 -129 5
-395 16 -590 24 -563 23 -675 25 -1800 31 -1514 7 -2278 14 -2715 25 -383 10
-1590 18 -1915 13z"/>
<path d="M32487 10776 c-4 -10 -5 -21 -2 -24 9 -9 17 6 13 25 -3 17 -4 17 -11
-1z"/>
<path d="M11435 10446 c-226 -32 -384 -106 -429 -200 -48 -101 19 -162 77 -71
52 81 155 132 322 159 147 23 216 27 320 16 212 -22 328 -73 456 -200 161
-160 209 -328 180 -637 -35 -377 -57 -500 -112 -611 -76 -156 -240 -266 -399
-267 -212 -1 -487 282 -634 653 -53 131 -70 233 -62 362 9 160 40 250 112 330
57 62 123 90 217 90 87 0 113 9 127 46 22 57 -25 80 -143 70 -155 -13 -264
-86 -337 -226 -78 -152 -103 -379 -60 -559 87 -361 392 -749 664 -843 101 -35
249 -17 381 47 98 47 221 173 270 276 62 132 108 442 109 744 0 139 -3 171
-24 245 -38 138 -100 239 -212 345 -101 97 -198 156 -323 200 -127 44 -322 56
-500 31z"/>
<path d="M9075 10306 c-16 -11 -17 -22 -12 -92 4 -43 18 -146 32 -229 56 -326
124 -577 345 -1265 49 -151 94 -295 101 -320 17 -63 54 -110 85 -110 55 0 45
50 -84 425 -31 90 -52 162 -52 179 0 11 -9 49 -20 85 -22 73 -103 366 -150
543 -33 127 -110 507 -110 543 0 26 15 41 25 25 17 -28 75 6 75 45 0 10 -19
39 -42 65 -24 26 -56 63 -71 83 -23 31 -34 37 -66 37 -20 0 -46 -6 -56 -14z"/>
<path d="M32561 10234 c0 -11 3 -14 6 -6 3 7 2 16 -1 19 -3 4 -6 -2 -5 -13z"/>
<path d="M14430 10202 c-19 -7 -57 -20 -85 -29 -67 -21 -176 -76 -254 -129
-39 -27 -75 -44 -92 -44 -20 0 -40 -11 -66 -38 -45 -45 -133 -210 -133 -250 0
-15 -11 -81 -24 -147 -42 -205 -60 -407 -53 -605 6 -187 17 -264 48 -348 109
-297 325 -434 632 -402 116 12 176 30 305 90 217 103 457 304 566 475 75 116
134 263 157 388 13 76 13 245 0 315 -29 145 -126 310 -265 448 -147 146 -235
204 -371 248 -130 41 -295 54 -365 28z m350 -122 c95 -32 191 -100 306 -215
88 -88 108 -113 147 -196 58 -119 77 -197 77 -327 0 -252 -94 -481 -277 -673
-216 -226 -501 -369 -736 -369 -64 0 -92 6 -157 31 -210 83 -302 268 -317 636
-9 208 23 493 77 690 21 78 26 86 99 161 76 78 147 132 175 132 30 0 67 24 87
56 16 27 34 37 97 58 42 14 102 30 132 35 85 15 216 7 290 -19z"/>
<path d="M17232 10188 c-41 -20 -38 -50 11 -114 59 -78 104 -168 241 -479 63
-143 148 -334 189 -425 155 -346 207 -521 215 -725 5 -146 -10 -232 -53 -297
-29 -44 -32 -67 -7 -74 9 -3 25 -10 34 -15 31 -16 56 -10 82 22 40 47 52 76
71 173 44 225 -36 527 -290 1091 -37 83 -94 211 -127 285 -129 291 -159 355
-188 402 -17 27 -33 63 -37 79 -6 33 -70 89 -99 88 -11 0 -29 -5 -42 -11z"/>
<path d="M6433 10070 c-44 -18 -51 -46 -64 -248 -20 -323 2 -655 60 -897 11
-44 27 -114 36 -155 41 -180 169 -584 262 -825 19 -49 48 -126 65 -170 17 -44
46 -111 64 -150 18 -38 44 -103 58 -144 27 -74 60 -131 76 -131 5 0 14 9 20
21 16 29 0 95 -65 262 -31 78 -72 185 -91 237 -20 52 -48 129 -64 170 -43 114
-150 468 -150 496 0 14 -11 64 -25 112 -30 105 -80 339 -95 442 -27 187 -35
599 -12 622 8 8 24 9 54 2 58 -13 75 -8 94 27 22 44 11 65 -44 78 -106 27 -97
17 -100 106 -3 96 -7 119 -28 139 -17 18 -20 18 -51 6z"/>
<path d="M19667 9931 c-93 -54 -175 -132 -315 -298 -190 -225 -204 -247 -246
-367 -51 -145 -71 -233 -110 -481 -72 -456 -90 -625 -90 -840 0 -232 12 -308
70 -423 69 -135 206 -229 371 -252 154 -23 351 18 488 101 279 167 689 814
795 1253 64 265 31 562 -85 760 -57 97 -183 195 -305 238 -133 46 -378 61
-531 32 -88 -16 -227 -59 -243 -75 -12 -11 -46 -12 -46 -1 0 18 204 211 249
236 48 25 54 26 188 23 119 -2 144 -5 179 -24 22 -12 46 -29 53 -37 19 -23 68
-20 81 3 18 35 11 58 -33 98 -57 53 -132 71 -300 76 -121 3 -130 2 -170 -22z
m388 -381 c145 -21 278 -82 349 -160 51 -56 92 -144 123 -262 23 -89 27 -123
27 -248 0 -231 -36 -363 -174 -634 -151 -295 -290 -498 -449 -656 -102 -101
-146 -128 -287 -176 -114 -38 -213 -50 -287 -35 -155 31 -264 115 -310 239
-37 100 -48 172 -48 329 -1 127 5 201 31 373 55 367 89 576 116 703 19 91 73
280 84 290 4 5 18 3 30 -5 20 -12 24 -10 49 22 49 65 100 108 163 139 148 72
398 107 583 81z"/>
<path d="M32581 9474 c0 -11 3 -14 6 -6 3 7 2 16 -1 19 -3 4 -6 -2 -5 -13z"/>
<path d="M22678 9380 c-20 -11 -40 -29 -43 -40 -4 -12 -2 -60 4 -108 6 -48 20
-194 30 -324 10 -130 22 -242 26 -248 4 -7 11 -58 15 -113 16 -199 40 -483 50
-574 13 -121 13 -380 0 -388 -19 -12 -10 -47 19 -76 23 -22 39 -29 68 -29 62
0 76 16 70 81 -3 30 -10 135 -16 234 -6 99 -17 236 -25 305 -8 69 -20 206 -26
305 -12 216 -25 395 -47 652 -9 105 -13 210 -9 233 5 35 2 46 -20 75 -30 40
-44 42 -96 15z"/>
<path d="M28090 8893 c-113 -20 -314 -102 -522 -214 -160 -86 -255 -151 -406
-277 -140 -117 -212 -212 -212 -279 0 -82 42 -146 137 -209 124 -82 301 -130
623 -169 435 -52 616 -95 844 -199 153 -71 263 -156 297 -231 22 -48 25 -139
6 -212 -36 -137 -188 -319 -362 -435 -118 -78 -284 -158 -420 -204 -97 -32
-122 -37 -216 -38 l-107 -1 -48 43 c-27 23 -63 50 -81 59 -29 15 -34 15 -57
-1 -71 -46 13 -147 156 -188 106 -30 248 -30 353 1 165 48 345 132 508 237
232 150 436 416 438 572 1 65 -8 146 -20 175 -15 39 -114 141 -186 192 -85 61
-225 129 -360 175 -189 65 -352 98 -780 154 -315 42 -518 139 -556 264 -16 56
-8 79 57 150 188 209 617 454 930 532 75 19 97 21 150 12 85 -14 226 -76 309
-135 69 -50 164 -96 197 -97 23 0 48 38 40 60 -9 22 -113 100 -179 133 -218
110 -396 154 -533 130z"/>
<path d="M32560 8790 c0 -5 5 -10 10 -10 6 0 10 5 10 10 0 6 -4 10 -10 10 -5
0 -10 -4 -10 -10z"/>
<path d="M32560 8750 c0 -5 5 -10 10 -10 6 0 10 5 10 10 0 6 -4 10 -10 10 -5
0 -10 -4 -10 -10z"/>
<path d="M32560 8635 c0 -10 7 -15 18 -13 21 4 19 22 -2 26 -10 2 -16 -3 -16
-13z"/>
<path d="M32565 8481 c-6 -11 9 -23 19 -14 9 9 7 23 -3 23 -6 0 -12 -4 -16 -9z"/>
<path d="M32550 8390 c0 -19 11 -26 23 -14 8 8 -3 34 -14 34 -5 0 -9 -9 -9
-20z"/>
<path d="M32505 8330 c-3 -5 -1 -10 4 -10 6 0 11 5 11 10 0 6 -2 10 -4 10 -3
0 -8 -4 -11 -10z"/>
<path d="M30302 8183 c-15 -29 -21 -71 -27 -202 -3 -69 -8 -127 -10 -130 -2
-4 -10 -67 -19 -141 -33 -284 -126 -537 -257 -699 -58 -71 -178 -154 -256
-177 -63 -18 -145 -14 -192 11 -30 15 -92 80 -111 115 -91 171 -117 501 -53
682 16 45 16 48 -3 69 -10 11 -32 28 -48 36 -47 24 -80 3 -118 -76 l-33 -66 2
-178 c2 -157 5 -192 29 -286 32 -129 73 -217 131 -281 57 -64 88 -82 207 -120
88 -29 109 -32 175 -27 146 10 282 89 399 231 94 114 175 267 216 409 24 82
56 322 61 457 3 63 7 165 10 225 4 87 2 115 -9 130 -12 16 -17 18 -27 8 -18
-18 -26 -16 -32 7 -6 25 -23 26 -35 3z"/>
<path d="M32506 8165 c4 -8 12 -15 20 -15 8 0 14 7 14 15 0 8 -9 15 -20 15
-13 0 -18 -5 -14 -15z"/>
<path d="M30962 7875 c-75 -63 -135 -212 -209 -519 -43 -178 -51 -202 -80
-233 -28 -29 -33 -42 -33 -84 0 -56 24 -89 64 -89 14 0 28 -4 31 -10 12 -19
43 -10 67 18 24 29 32 56 98 347 18 77 45 194 60 260 18 74 25 124 19 130 -5
5 -9 20 -8 35 0 23 1 24 10 5 6 -12 20 -25 32 -30 28 -13 44 -95 56 -287 9
-151 21 -183 69 -194 15 -3 37 -10 50 -15 13 -5 34 -9 46 -9 27 0 124 48 166
83 144 116 289 189 330 167 24 -13 59 -77 125 -225 57 -130 91 -238 101 -326
6 -51 4 -58 -15 -68 -26 -15 -27 -52 -2 -75 14 -12 32 -16 67 -14 47 3 50 5
61 40 10 30 9 56 -7 151 -26 152 -54 228 -177 495 -25 52 -96 119 -142 133
-94 28 -239 -19 -376 -123 -90 -68 -145 -100 -160 -94 -9 3 -14 48 -18 158 -6
208 -43 336 -110 383 -33 23 -81 19 -115 -10z"/>
<path d="M32511 7763 c-1 -18 4 -33 9 -33 12 0 12 17 0 45 -7 17 -9 15 -9 -12z"/>
<path d="M32580 6974 c0 -8 5 -12 10 -9 6 3 10 10 10 16 0 5 -4 9 -10 9 -5 0
-10 -7 -10 -16z"/>
<path d="M32572 6669 c2 -7 10 -15 17 -17 8 -3 12 1 9 9 -2 7 -10 15 -17 17
-8 3 -12 -1 -9 -9z"/>
<path d="M32585 6631 c-3 -5 -1 -12 5 -16 5 -3 10 1 10 9 0 18 -6 21 -15 7z"/>
<path d="M32570 6540 c0 -5 5 -10 10 -10 6 0 10 5 10 10 0 6 -4 10 -10 10 -5
0 -10 -4 -10 -10z"/>
<path d="M32565 6466 c13 -19 14 -29 6 -45 -6 -10 -8 -33 -5 -50 7 -33 23 -42
23 -13 0 9 2 37 5 62 4 46 -6 70 -30 70 -12 0 -12 -4 1 -24z"/>
<path d="M32580 6295 c0 -8 5 -15 10 -15 6 0 10 7 10 15 0 8 -4 15 -10 15 -5
0 -10 -7 -10 -15z"/>
<path d="M32570 6230 c0 -5 5 -10 10 -10 6 0 10 5 10 10 0 6 -4 10 -10 10 -5
0 -10 -4 -10 -10z"/>
<path d="M32580 6074 c0 -8 5 -12 10 -9 6 4 8 11 5 16 -9 14 -15 11 -15 -7z"/>
<path d="M32567 6013 c-11 -10 -8 -51 4 -58 14 -9 18 -4 25 33 5 24 3 32 -8
32 -8 0 -18 -3 -21 -7z"/>
<path d="M32555 5850 c-3 -5 3 -10 14 -10 12 0 21 5 21 10 0 6 -6 10 -14 10
-8 0 -18 -4 -21 -10z"/>
<path d="M32570 5781 c0 -6 5 -13 10 -16 6 -3 10 1 10 9 0 9 -4 16 -10 16 -5
0 -10 -4 -10 -9z"/>
<path d="M31682 5678 c4 -30 43 -33 43 -3 0 13 -8 21 -23 23 -20 3 -23 0 -20
-20z"/>
<path d="M32560 5671 c0 -12 29 -35 36 -28 11 10 -5 37 -21 37 -8 0 -15 -4
-15 -9z"/>
<path d="M32570 5311 c0 -11 5 -23 10 -26 6 -3 10 3 10 14 0 11 -4 23 -10 26
-5 3 -10 -3 -10 -14z"/>
<path d="M32605 5270 c-3 -5 -1 -10 4 -10 6 0 11 5 11 10 0 6 -2 10 -4 10 -3
0 -8 -4 -11 -10z"/>
<path d="M32559 5158 c0 -2 -1 -21 -2 -43 -2 -32 2 -40 17 -43 11 -2 25 4 33
13 10 15 10 23 -4 46 -14 23 -40 39 -44 27z"/>
<path d="M32585 5043 c-5 -10 -7 -22 -6 -27 1 -5 -4 -13 -11 -17 -7 -4 -9 -12
-4 -16 5 -4 11 -2 13 5 3 6 14 12 24 12 16 0 20 6 17 27 -4 32 -22 41 -33 16z"/>
<path d="M32575 4931 c4 -13 1 -28 -5 -36 -7 -9 -8 -15 -2 -15 30 0 42 58 13
68 -9 3 -11 -2 -6 -17z"/>
<path d="M32576 4861 c-3 -4 -5 -25 -4 -45 1 -28 5 -36 20 -36 12 0 18 7 18
24 0 14 5 28 10 31 8 5 7 11 -1 21 -13 16 -35 18 -43 5z"/>
<path d="M21754 4795 c-9 -22 1 -29 15 -11 8 10 9 16 1 21 -5 3 -13 -1 -16
-10z"/>
<path d="M32585 4729 c-4 -11 -4 -24 0 -27 9 -9 36 28 29 39 -9 15 -22 10 -29
-12z"/>
<path d="M32573 4655 c-6 -14 -8 -25 -4 -25 13 0 41 36 34 43 -11 12 -18 8
-30 -18z"/>
<path d="M32577 4573 c-3 -5 -2 -15 2 -22 7 -10 10 -10 16 -1 4 6 3 16 -3 22
-5 5 -12 6 -15 1z"/>
<path d="M32580 4505 c0 -8 7 -15 15 -15 8 0 15 7 15 15 0 8 -7 15 -15 15 -8
0 -15 -7 -15 -15z"/>
<path d="M32606 4371 c-4 -7 -5 -15 -2 -18 9 -9 19 4 14 18 -4 11 -6 11 -12 0z"/>
<path d="M32627 4323 c-4 -3 -7 -11 -7 -17 0 -6 5 -5 12 2 6 6 9 14 7 17 -3 3
-9 2 -12 -2z"/>
<path d="M32626 4281 c-4 -7 -5 -15 -2 -18 9 -9 19 4 14 18 -4 11 -6 11 -12 0z"/>
<path d="M32590 4201 c0 -27 12 -33 32 -14 24 22 23 28 -7 29 -18 1 -25 -3
-25 -15z"/>
<path d="M32580 4100 c0 -5 5 -10 10 -10 6 0 10 5 10 10 0 6 -4 10 -10 10 -5
0 -10 -4 -10 -10z"/>
<path d="M32604 3983 c-3 -10 -11 -28 -16 -40 -12 -24 -5 -53 12 -53 6 0 12 6
14 13 2 6 7 21 12 32 15 42 15 65 -1 65 -9 0 -18 -8 -21 -17z"/>
<path d="M16530 3810 c0 -5 5 -10 10 -10 6 0 10 5 10 10 0 6 -4 10 -10 10 -5
0 -10 -4 -10 -10z"/>
<path d="M16650 3799 c0 -5 5 -7 10 -4 6 3 10 8 10 11 0 2 -4 4 -10 4 -5 0
-10 -5 -10 -11z"/>
<path d="M14340 3785 c0 -8 5 -15 10 -15 6 0 10 7 10 15 0 8 -4 15 -10 15 -5
0 -10 -7 -10 -15z"/>
<path d="M32595 3763 c8 -35 10 -37 30 -29 25 9 15 50 -14 54 -21 3 -23 1 -16
-25z"/>
<path d="M14380 3721 c0 -5 6 -14 14 -20 16 -13 32 2 21 19 -8 12 -35 13 -35
1z"/>
<path d="M32590 3685 c-16 -19 -6 -46 15 -39 16 7 21 39 6 48 -5 3 -14 -1 -21
-9z"/>
<path d="M32600 3519 c0 -24 23 -21 28 4 2 10 -3 17 -12 17 -10 0 -16 -9 -16
-21z"/>
<path d="M32594 3426 c-3 -8 3 -27 12 -42 l18 -27 7 24 c10 41 -23 81 -37 45z"/>
<path d="M32613 3332 c-18 -11 -27 -60 -13 -77 20 -24 37 -7 38 40 0 45 -3 51
-25 37z"/>
<path d="M32600 3180 c0 -5 5 -10 10 -10 6 0 10 5 10 10 0 6 -4 10 -10 10 -5
0 -10 -4 -10 -10z"/>
<path d="M32608 3110 c5 -36 27 -35 27 1 0 14 -7 25 -16 27 -12 2 -15 -4 -11
-28z"/>
<path d="M32608 2920 c4 -30 32 -43 32 -16 0 24 -12 46 -24 46 -8 0 -11 -11
-8 -30z"/>
<path d="M32606 2794 c-9 -22 -8 -24 9 -24 8 0 15 6 15 14 0 22 -17 28 -24 10z"/>
<path d="M32618 2713 c-21 -46 -22 -53 -8 -53 6 0 10 9 10 19 0 11 5 21 11 23
6 2 9 14 7 27 -3 21 -5 20 -20 -16z"/>
<path d="M32606 2579 c-9 -45 -8 -49 9 -49 11 0 15 11 15 40 0 48 -15 53 -24
9z"/>
<path d="M32610 2495 c0 -8 5 -15 10 -15 6 0 10 7 10 15 0 8 -4 15 -10 15 -5
0 -10 -7 -10 -15z"/>
<path d="M32607 2394 c-9 -10 2 -24 19 -24 8 0 14 7 14 15 0 15 -21 21 -33 9z"/>
<path d="M32617 2324 c-9 -9 4 -35 14 -28 5 3 9 12 9 20 0 14 -12 19 -23 8z"/>
<path d="M32619 2263 c-1 -4 -3 -28 -5 -53 -8 -141 -12 -188 -16 -196 -3 -5
-2 -20 3 -33 8 -19 12 -21 24 -11 18 15 21 100 3 100 -9 0 -9 3 0 12 8 8 8 17
1 31 -8 13 -8 22 0 30 14 14 15 114 1 122 -5 3 -11 3 -11 -2z"/>
<path d="M32616 1898 c-3 -7 -9 -28 -15 -47 -12 -38 -8 -51 20 -51 16 0 19 7
19 55 0 31 -4 55 -10 55 -6 0 -12 -6 -14 -12z"/>
<path d="M32621 1766 c-11 -13 -11 -20 -3 -28 15 -15 24 -5 20 23 -3 21 -4 21
-17 5z"/>
<path d="M32608 1703 c-14 -70 -9 -142 12 -163 19 -19 19 -18 19 75 0 76 -3
95 -15 95 -8 0 -15 -3 -16 -7z"/>
<path d="M32605 1450 c-3 -10 -2 -27 3 -37 5 -10 6 -48 2 -88 -9 -80 -5 -101
16 -84 21 17 20 229 0 229 -8 0 -17 -9 -21 -20z"/>
<path d="M32607 1199 c-17 -10 -16 -12 3 -39 21 -30 22 -78 2 -102 -7 -9 -7
-19 -2 -28 5 -8 7 -25 4 -36 -3 -12 -1 -31 5 -42 8 -15 7 -23 -4 -32 -7 -6
-11 -18 -8 -26 3 -8 1 -20 -4 -27 -5 -6 -8 -68 -8 -137 0 -118 1 -125 20 -125
20 0 20 7 22 303 1 166 -1 302 -5 302 -4 0 -15 -5 -25 -11z"/>
<path d="M32618 570 c-18 -20 -25 -60 -10 -60 21 1 33 20 30 49 -3 32 -3 32
-20 11z"/>
<path d="M32612 484 c-29 -20 -28 -54 1 -98 l24 -34 1 74 c1 41 1 74 -1 74 -1
0 -13 -7 -25 -16z"/>
<path d="M32613 308 c-14 -20 -16 -87 -3 -103 8 -9 9 -25 5 -42 -5 -16 -7 -35
-6 -45 1 -9 -3 -19 -9 -23 -5 -3 -10 -26 -10 -51 0 -40 2 -44 25 -44 22 0 25
4 25 36 0 19 -5 44 -10 54 -7 13 -7 21 0 25 12 8 14 205 1 205 -5 0 -13 -6
-18 -12z"/>
</g>
</svg>
