<?xml version="1.0" standalone="no"?>
<!DOCTYPE svg PUBLIC "-//W3C//DTD SVG 20010904//EN"
 "http://www.w3.org/TR/2001/REC-SVG-20010904/DTD/svg10.dtd">
<svg version="1.0" xmlns="http://www.w3.org/2000/svg"
 width="2448.000000pt" height="3264.000000pt" viewBox="0 0 2448.000000 3264.000000"
 preserveAspectRatio="xMidYMid meet">
<metadata>
Created by potrace 1.12, written by Peter Selinger 2001-2015
</metadata>
<g transform="translate(0.000000,3264.000000) scale(0.100000,-0.100000)"
fill="#000000" stroke="none">
<path d="M16688 32634 c-5 -4 -8 -16 -8 -28 0 -14 3 -17 11 -9 6 6 9 19 7 28
-1 9 -6 13 -10 9z"/>
<path d="M21062 32628 c-5 -7 -6 -22 -3 -32 7 -18 8 -18 24 4 23 32 4 58 -21
28z"/>
<path d="M23930 32600 c0 -5 5 -10 10 -10 6 0 10 5 10 10 0 6 -4 10 -10 10 -5
0 -10 -4 -10 -10z"/>
<path d="M21952 32588 c-19 -19 -14 -30 8 -18 11 6 20 15 20 20 0 14 -14 12
-28 -2z"/>
<path d="M21638 32573 c6 -2 18 -2 25 0 6 3 1 5 -13 5 -14 0 -19 -2 -12 -5z"/>
<path d="M16617 32540 c-19 -28 -21 -40 -7 -40 12 0 32 38 28 52 -3 7 -12 1
-21 -12z"/>
<path d="M21030 32460 c0 -5 5 -10 10 -10 6 0 10 5 10 10 0 6 -4 10 -10 10 -5
0 -10 -4 -10 -10z"/>
<path d="M21020 32396 c-15 -19 -51 -136 -41 -136 4 0 13 12 20 28 7 15 21 44
32 64 10 20 19 42 19 47 0 16 -16 13 -30 -3z"/>
<path d="M23845 32391 c-7 -12 12 -24 25 -16 11 7 4 25 -10 25 -5 0 -11 -4
-15 -9z"/>
<path d="M21699 32344 l-24 -26 30 8 c33 7 55 22 55 35 0 18 -37 8 -61 -17z"/>
<path d="M23796 32311 c-4 -7 -5 -15 -2 -18 9 -9 19 4 14 18 -4 11 -6 11 -12
0z"/>
<path d="M20898 32125 c-6 -14 -14 -25 -18 -25 -4 0 -15 -16 -26 -36 -10 -19
-34 -42 -51 -51 -33 -15 -38 -31 -24 -68 7 -16 9 -13 15 18 6 31 14 41 42 53
22 9 34 21 34 34 0 10 16 32 35 47 37 29 46 53 20 53 -9 0 -21 -11 -27 -25z"/>
<path d="M23600 32115 c-13 -15 -5 -39 11 -30 5 4 14 15 19 26 8 15 7 19 -3
19 -8 0 -20 -7 -27 -15z"/>
<path d="M16455 32100 c3 -5 8 -10 11 -10 2 0 4 5 4 10 0 6 -5 10 -11 10 -5 0
-7 -4 -4 -10z"/>
<path d="M23527 32013 c-10 -9 -8 -43 2 -43 5 0 11 11 13 25 5 24 -2 32 -15
18z"/>
<path d="M23432 31929 c-12 -18 -11 -20 5 -17 10 2 19 11 21 21 5 23 -10 21
-26 -4z"/>
<path d="M20652 31795 c-37 -52 -37 -55 -17 -55 9 0 20 11 25 25 5 14 17 28
25 31 15 6 21 44 7 44 -5 0 -23 -20 -40 -45z"/>
<path d="M23325 31820 c-10 -11 -16 -22 -14 -24 8 -8 99 26 93 35 -10 16 -61
9 -79 -11z"/>
<path d="M23270 31631 c0 -5 7 -14 15 -21 13 -10 15 -9 15 9 0 12 -6 21 -15
21 -8 0 -15 -4 -15 -9z"/>
<path d="M23095 31539 c-4 -6 -4 -13 -1 -16 8 -8 36 5 36 17 0 13 -27 13 -35
-1z"/>
<path d="M16450 31496 c0 -22 3 -27 11 -19 8 8 8 16 0 30 -9 16 -10 14 -11
-11z"/>
<path d="M23040 31499 c0 -5 5 -7 10 -4 6 3 10 8 10 11 0 2 -4 4 -10 4 -5 0
-10 -5 -10 -11z"/>
<path d="M20531 31414 c-10 -22 -9 -25 6 -22 10 2 19 13 21 26 5 30 -12 28
-27 -4z"/>
<path d="M22570 31400 c0 -5 5 -10 10 -10 6 0 10 5 10 10 0 6 -4 10 -10 10 -5
0 -10 -4 -10 -10z"/>
<path d="M20450 31315 c0 -8 9 -15 20 -15 13 0 18 5 14 15 -4 8 -12 15 -20 15
-8 0 -14 -7 -14 -15z"/>
<path d="M22320 31310 c0 -5 4 -10 9 -10 6 0 13 5 16 10 3 6 -1 10 -9 10 -9 0
-16 -4 -16 -10z"/>
<path d="M20497 31264 c-10 -10 -9 -54 2 -54 12 0 22 43 13 52 -5 5 -11 5 -15
2z"/>
<path d="M22987 31243 c-4 -3 -7 -11 -7 -17 0 -6 5 -5 12 2 6 6 9 14 7 17 -3
3 -9 2 -12 -2z"/>
<path d="M21095 31180 c-3 -5 -1 -10 4 -10 6 0 11 5 11 10 0 6 -2 10 -4 10 -3
0 -8 -4 -11 -10z"/>
<path d="M16481 31137 c-6 -8 -8 -17 -4 -20 7 -8 33 11 33 24 0 13 -16 11 -29
-4z"/>
<path d="M20380 31135 c0 -13 4 -14 20 -5 11 6 20 13 20 15 0 3 -9 5 -20 5
-11 0 -20 -7 -20 -15z"/>
<path d="M20370 31096 c0 -9 5 -16 10 -16 6 0 10 4 10 9 0 6 -4 13 -10 16 -5
3 -10 -1 -10 -9z"/>
<path d="M22200 31099 c-14 -4 -18 -7 -9 -8 9 -1 27 -9 40 -20 22 -17 28 -17
74 -5 28 7 61 13 73 14 14 0 22 5 19 13 -4 13 -154 18 -197 6z"/>
<path d="M22457 31104 c-10 -11 3 -24 24 -24 23 0 25 15 3 24 -19 7 -19 7 -27
0z"/>
<path d="M22875 31100 c3 -5 8 -10 11 -10 2 0 4 5 4 10 0 6 -5 10 -11 10 -5 0
-7 -4 -4 -10z"/>
<path d="M16349 31084 c-14 -17 -12 -19 24 -28 32 -8 34 -3 8 23 -17 17 -21
18 -32 5z"/>
<path d="M21085 31040 c-3 -5 -20 -10 -36 -10 -24 0 -30 -4 -27 -17 2 -10 11
-19 21 -21 23 -5 67 24 67 43 0 17 -16 20 -25 5z"/>
<path d="M20387 31010 c-3 -11 -2 -22 3 -25 11 -7 33 22 25 35 -10 16 -22 12
-28 -10z"/>
<path d="M21141 30964 c0 -11 3 -14 6 -6 3 7 2 16 -1 19 -3 4 -6 -2 -5 -13z"/>
<path d="M22760 30960 c0 -5 11 -10 24 -10 14 0 28 5 31 10 4 6 -7 10 -24 10
-17 0 -31 -4 -31 -10z"/>
<path d="M22263 30952 c-40 -4 -44 -22 -5 -19 15 1 40 -2 55 -6 21 -6 28 -4
25 4 -5 16 -36 25 -75 21z"/>
<path d="M22378 30954 c-11 -10 3 -34 19 -34 8 0 13 7 11 17 -3 18 -20 27 -30
17z"/>
<path d="M20290 30930 c0 -11 5 -20 10 -20 15 0 12 -36 -5 -50 -8 -6 -23 -9
-35 -5 -17 5 -20 2 -20 -26 l0 -32 23 20 c12 12 33 23 47 25 19 2 26 10 28 31
2 15 -1 27 -7 27 -6 0 -11 11 -11 25 0 16 -6 25 -15 25 -8 0 -15 -9 -15 -20z"/>
<path d="M16274 30915 c-11 -27 1 -37 19 -17 16 17 16 20 2 26 -9 3 -18 0 -21
-9z"/>
<path d="M20790 30901 c0 -12 27 -18 63 -13 44 7 31 22 -18 22 -25 0 -45 -4
-45 -9z"/>
<path d="M22165 30870 c-4 -6 5 -10 20 -10 15 0 24 4 20 10 -3 6 -12 10 -20
10 -8 0 -17 -4 -20 -10z"/>
<path d="M22760 30870 c-13 -8 -12 -10 3 -10 9 0 17 5 17 10 0 12 -1 12 -20 0z"/>
<path d="M22735 30770 c-3 -5 1 -10 9 -10 9 0 16 5 16 10 0 6 -4 10 -9 10 -6
0 -13 -4 -16 -10z"/>
<path d="M20150 30720 c0 -5 5 -10 10 -10 6 0 10 5 10 10 0 6 -4 10 -10 10 -5
0 -10 -4 -10 -10z"/>
<path d="M20220 30635 c-10 -12 -10 -15 4 -15 9 0 16 7 16 15 0 8 -2 15 -4 15
-2 0 -9 -7 -16 -15z"/>
<path d="M17495 30560 c-3 -5 1 -10 9 -10 9 0 16 5 16 10 0 6 -4 10 -9 10 -6
0 -13 -4 -16 -10z"/>
<path d="M20132 30548 c-14 -14 -16 -38 -2 -38 13 0 32 38 22 44 -5 3 -14 0
-20 -6z"/>
<path d="M20044 30536 c-3 -8 -1 -23 5 -33 9 -15 10 -13 11 15 0 34 -7 42 -16
18z"/>
<path d="M20245 30489 c-10 -15 1 -23 20 -15 9 3 13 10 10 16 -8 13 -22 13
-30 -1z"/>
<path d="M20021 30454 c0 -11 3 -14 6 -6 3 7 2 16 -1 19 -3 4 -6 -2 -5 -13z"/>
<path d="M20035 30339 c-10 -15 3 -25 16 -12 7 7 7 13 1 17 -6 3 -14 1 -17 -5z"/>
<path d="M16146 30064 c-11 -27 -7 -37 9 -24 16 14 20 40 6 40 -5 0 -12 -7
-15 -16z"/>
<path d="M3148 30029 c-10 -5 -18 -19 -18 -29 0 -12 -7 -20 -17 -21 -299 -12
-525 -46 -631 -94 -56 -26 -72 -46 -52 -70 17 -20 46 -19 78 3 52 35 149 57
345 77 78 8 180 19 226 25 46 5 182 9 301 10 222 0 250 3 250 25 0 19 -68 28
-239 30 -138 3 -155 5 -164 21 -5 11 -10 20 -11 21 -6 9 -55 11 -68 2z"/>
<path d="M16135 30001 c-3 -5 -1 -12 5 -16 5 -3 10 1 10 9 0 18 -6 21 -15 7z"/>
<path d="M22127 29983 c-13 -12 -7 -23 13 -23 11 0 20 7 20 15 0 15 -21 21
-33 8z"/>
<path d="M19825 29940 c-3 -5 -1 -10 4 -10 6 0 11 5 11 10 0 6 -2 10 -4 10 -3
0 -8 -4 -11 -10z"/>
<path d="M3142 29898 c-9 -12 -56 -365 -87 -667 -18 -170 -19 -375 -4 -523 6
-59 8 -132 5 -162 -9 -65 5 -60 -221 -81 -202 -19 -316 -19 -429 0 -103 16
-129 10 -124 -33 5 -43 66 -54 308 -54 159 0 231 5 320 20 63 11 118 18 123
15 4 -2 7 -13 7 -24 0 -30 42 -21 58 14 8 16 21 27 33 27 34 0 289 50 389 77
106 28 288 99 367 145 58 32 123 101 123 130 0 31 -41 21 -102 -28 -107 -84
-273 -145 -573 -210 -44 -9 -104 -23 -134 -30 -32 -8 -57 -10 -60 -5 -3 5 -6
164 -5 353 0 260 4 373 17 468 48 366 67 518 67 548 0 30 -2 32 -34 32 -18 0
-38 -6 -44 -12z"/>
<path d="M15730 29900 c0 -5 5 -10 10 -10 6 0 10 5 10 10 0 6 -4 10 -10 10 -5
0 -10 -4 -10 -10z"/>
<path d="M21308 29853 c7 -3 16 -2 19 1 4 3 -2 6 -13 5 -11 0 -14 -3 -6 -6z"/>
<path d="M21940 29850 c-13 -8 -13 -10 2 -10 9 0 20 5 23 10 8 13 -5 13 -25 0z"/>
<path d="M7084 29829 c-3 -6 7 -36 22 -67 29 -57 29 -57 28 -237 -1 -99 -6
-191 -12 -205 -8 -21 -22 -28 -93 -44 -197 -44 -429 -172 -429 -236 0 -29 30
-60 58 -60 7 0 38 24 68 52 62 59 100 84 193 128 53 25 173 70 188 70 7 0 -7
-86 -32 -200 -24 -110 -60 -216 -76 -225 -5 -4 -9 -19 -9 -36 0 -65 71 -16
110 76 23 53 64 232 75 326 4 31 10 61 14 67 10 17 156 35 224 28 75 -8 112
-28 136 -74 31 -61 34 -117 12 -227 -22 -115 -16 -148 31 -153 23 -3 40 9 98
69 39 40 68 79 66 86 -3 8 2 13 12 13 19 0 117 117 117 139 0 19 50 55 65 46
8 -5 9 -29 5 -81 -20 -206 39 -314 180 -330 43 -5 68 -2 114 15 178 65 337
203 423 366 14 28 41 77 59 110 18 33 44 82 58 110 16 30 48 66 81 93 102 81
110 90 104 106 -14 37 -99 10 -168 -54 -50 -46 -131 -161 -175 -249 -59 -116
-147 -234 -207 -279 -87 -64 -189 -111 -260 -118 -55 -6 -63 -4 -90 19 l-29
25 1 119 c1 74 7 141 18 179 9 34 16 73 16 86 0 24 -36 68 -56 68 -12 0 -265
-258 -312 -318 -18 -23 -37 -42 -41 -42 -4 0 -11 36 -14 81 -8 98 -36 161 -90
200 -75 55 -163 70 -301 54 l-68 -8 6 29 c3 16 11 74 16 129 17 165 -6 304
-57 345 -28 22 -68 26 -79 9z"/>
<path d="M15830 29779 c0 -11 5 -17 10 -14 6 3 10 13 10 21 0 8 -4 14 -10 14
-5 0 -10 -9 -10 -21z"/>
<path d="M15720 29780 c0 -5 5 -10 10 -10 6 0 10 5 10 10 0 6 -4 10 -10 10 -5
0 -10 -4 -10 -10z"/>
<path d="M19696 29774 c-9 -22 3 -32 14 -14 12 19 12 30 1 30 -5 0 -12 -7 -15
-16z"/>
<path d="M21365 29769 c-10 -15 1 -23 20 -15 9 3 13 10 10 16 -8 13 -22 13
-30 -1z"/>
<path d="M16120 29744 c0 -9 7 -14 17 -12 25 5 28 28 4 28 -12 0 -21 -6 -21
-16z"/>
<path d="M15125 29740 c-3 -5 -1 -10 4 -10 6 0 11 5 11 10 0 6 -2 10 -4 10 -3
0 -8 -4 -11 -10z"/>
<path d="M10252 29717 c-6 -7 -33 -60 -60 -118 -45 -97 -70 -166 -104 -294
l-14 -50 -97 -48 c-75 -37 -98 -53 -103 -72 -15 -61 51 -74 103 -20 38 39 63
45 63 16 0 -11 -21 -80 -46 -155 -48 -145 -54 -201 -20 -201 13 0 29 20 53 64
37 71 103 275 103 321 0 26 4 29 44 38 60 13 301 -3 347 -22 51 -21 64 -59 63
-182 -1 -74 -9 -135 -29 -222 -27 -116 -27 -122 -11 -147 10 -15 25 -25 34
-23 64 12 127 369 88 501 -22 75 -68 127 -138 152 -44 16 -78 20 -200 20 -80
0 -149 3 -152 6 -16 16 103 303 147 355 15 18 27 38 27 46 0 38 -74 64 -98 35z"/>
<path d="M19694 29715 c-7 -17 4 -37 17 -30 12 8 12 45 -1 45 -6 0 -13 -7 -16
-15z"/>
<path d="M21565 29669 c-11 -17 7 -31 34 -26 14 3 34 1 44 -5 24 -12 35 -2 16
16 -18 17 -87 28 -94 15z"/>
<path d="M10614 29615 c-69 -22 -84 -33 -84 -63 0 -64 48 -68 131 -12 60 41
69 56 47 78 -15 15 -41 14 -94 -3z"/>
<path d="M20220 29600 c0 -5 7 -10 15 -10 8 0 15 5 15 10 0 6 -7 10 -15 10 -8
0 -15 -4 -15 -10z"/>
<path d="M19655 29590 c-3 -5 -2 -10 4 -10 5 0 13 5 16 10 3 6 2 10 -4 10 -5
0 -13 -4 -16 -10z"/>
<path d="M15960 29570 c0 -11 5 -20 10 -20 6 0 10 9 10 20 0 11 -4 20 -10 20
-5 0 -10 -9 -10 -20z"/>
<path d="M19609 29515 c-3 -59 -6 -81 -13 -97 -5 -11 -4 -18 2 -18 18 0 31 26
30 60 0 19 3 45 7 58 6 17 4 22 -9 22 -10 0 -16 -9 -17 -25z"/>
<path d="M4576 29487 c-22 -32 -45 -232 -52 -436 -5 -158 -4 -180 13 -211 15
-29 24 -36 54 -38 32 -3 43 4 121 78 47 44 91 80 97 80 6 0 11 5 11 12 0 16
260 268 287 279 60 23 73 -18 82 -273 6 -178 9 -200 27 -225 44 -59 118 -55
78 4 -17 25 -19 49 -20 223 0 150 -4 208 -17 250 -19 66 -63 110 -107 110 -67
0 -120 -39 -309 -228 -199 -198 -225 -221 -234 -199 -5 13 7 215 18 312 3 28
15 94 27 147 20 95 21 99 3 118 -24 27 -61 25 -79 -3z"/>
<path d="M19701 29428 c-13 -34 -4 -39 33 -20 l33 17 -25 12 c-32 17 -31 17
-41 -9z"/>
<path d="M6290 29419 c-137 -28 -332 -114 -443 -195 -68 -50 -77 -73 -43 -124
45 -68 103 -95 331 -149 44 -10 103 -22 130 -26 58 -9 146 -41 157 -58 46 -72
-87 -242 -253 -324 -89 -44 -247 -93 -298 -93 -24 0 -31 -5 -31 -19 0 -59 123
-63 278 -8 126 44 208 93 283 168 115 115 147 233 82 309 -35 42 -82 64 -193
90 -331 77 -380 94 -404 133 -16 26 36 68 149 122 144 69 234 95 343 102 92 5
101 4 146 -20 38 -20 53 -24 68 -16 30 16 18 50 -30 84 -40 28 -51 30 -135 32
-51 1 -112 -2 -137 -8z"/>
<path d="M9305 29355 c-173 -78 -278 -164 -336 -275 -33 -65 -33 -177 0 -240
51 -96 115 -153 205 -184 70 -23 203 -21 300 4 154 41 394 182 371 219 -10 17
-31 13 -98 -19 -198 -93 -304 -124 -432 -124 -108 0 -163 14 -212 57 -44 39
-63 82 -63 141 0 152 144 285 379 351 88 24 104 42 75 82 -33 44 -72 41 -189
-12z"/>
<path d="M11143 29310 c-96 -22 -185 -105 -198 -184 -4 -21 -21 -68 -38 -103
-24 -54 -31 -82 -35 -159 -4 -86 -3 -98 21 -146 16 -33 41 -63 64 -78 33 -22
46 -25 132 -25 84 1 103 4 147 28 118 61 195 128 236 207 20 39 23 59 23 150
0 97 -2 110 -31 171 -34 71 -77 112 -141 135 -41 14 -129 17 -180 4z m175 -84
c67 -35 91 -94 92 -219 0 -83 -18 -128 -73 -185 -57 -59 -129 -97 -209 -112
-112 -20 -151 -1 -163 81 -7 48 9 154 25 164 5 3 24 -2 43 -11 20 -9 43 -14
53 -10 15 6 13 10 -14 37 -56 55 -42 99 67 212 52 54 58 57 104 57 26 0 60 -6
75 -14z"/>
<path d="M12714 29279 c-31 -33 -142 -125 -328 -272 -61 -48 -129 -105 -151
-126 -45 -42 -120 -101 -129 -101 -14 0 -2 40 59 203 72 187 73 207 18 228
-21 8 -30 6 -44 -8 -19 -20 -159 -450 -159 -489 0 -33 54 -67 94 -59 16 3 50
24 76 48 49 44 172 143 297 239 41 31 105 85 141 120 37 35 84 76 106 92 l39
28 -7 -113 c-4 -63 -11 -134 -16 -159 -39 -220 -42 -245 -34 -279 10 -40 37
-52 53 -23 36 67 89 353 98 523 l6 127 -26 26 c-34 34 -57 33 -93 -5z"/>
<path d="M19470 29270 c0 -5 5 -10 10 -10 6 0 10 5 10 10 0 6 -4 10 -10 10 -5
0 -10 -4 -10 -10z"/>
<path d="M19495 29157 c-4 -10 -5 -21 -1 -24 10 -10 18 4 13 24 -4 17 -4 17
-12 0z"/>
<path d="M19441 28994 c0 -11 3 -14 6 -6 3 7 2 16 -1 19 -3 4 -6 -2 -5 -13z"/>
<path d="M15910 28916 c0 -9 5 -16 10 -16 6 0 10 4 10 9 0 6 -4 13 -10 16 -5
3 -10 -1 -10 -9z"/>
<path d="M19590 28903 c0 -18 47 -103 57 -103 15 0 17 19 3 40 -11 18 5 40 31
40 11 0 19 6 19 13 0 8 -18 12 -55 13 -30 1 -55 -1 -55 -3z"/>
<path d="M19466 28801 c-7 -11 22 -23 35 -15 5 3 7 10 4 15 -8 12 -32 12 -39
0z"/>
<path d="M19178 28704 c-37 -19 -37 -38 -1 -29 34 8 36 10 31 28 -3 14 -6 14
-30 1z"/>
<path d="M15725 28587 c-4 -10 -5 -21 -1 -24 10 -10 18 4 13 24 -4 17 -4 17
-12 0z"/>
<path d="M15846 28583 c-6 -14 -5 -15 5 -6 7 7 10 15 7 18 -3 3 -9 -2 -12 -12z"/>
<path d="M19166 28575 c-11 -16 -24 -24 -39 -22 -16 1 -23 -4 -25 -22 -4 -24
-3 -24 22 -8 14 9 30 17 35 17 5 0 21 4 36 10 22 8 24 13 15 30 -14 26 -24 25
-44 -5z"/>
<path d="M15777 28513 c-4 -3 -7 -11 -7 -17 0 -6 5 -5 12 2 6 6 9 14 7 17 -3
3 -9 2 -12 -2z"/>
<path d="M15761 28464 c0 -11 3 -14 6 -6 3 7 2 16 -1 19 -3 4 -6 -2 -5 -13z"/>
<path d="M19042 28398 c-14 -14 -16 -28 -3 -28 9 0 24 30 18 36 -2 2 -9 -2
-15 -8z"/>
<path d="M19051 28324 c0 -11 3 -14 6 -6 3 7 2 16 -1 19 -3 4 -6 -2 -5 -13z"/>
<path d="M19140 28280 c0 -5 5 -10 10 -10 6 0 10 5 10 10 0 6 -4 10 -10 10 -5
0 -10 -4 -10 -10z"/>
<path d="M18970 28201 c-6 -12 -7 -21 -1 -21 10 0 24 30 17 37 -2 3 -9 -5 -16
-16z"/>
<path d="M19168 28013 c7 -3 16 -2 19 1 4 3 -2 6 -13 5 -11 0 -14 -3 -6 -6z"/>
<path d="M20760 26979 c-58 -4 -168 -12 -245 -18 -77 -6 -277 -21 -445 -35
-468 -39 -555 -45 -695 -51 -71 -3 -296 -15 -500 -25 -203 -11 -534 -27 -735
-35 -443 -19 -779 -39 -1085 -65 -304 -25 -497 -37 -800 -50 -137 -6 -333 -15
-435 -20 -610 -32 -1313 -49 -2185 -52 -368 -1 -771 -5 -895 -9 -124 -4 -378
-12 -565 -18 -187 -6 -437 -13 -555 -16 -543 -14 -1198 -44 -1430 -65 -281
-25 -742 -43 -1415 -55 -165 -3 -367 -8 -450 -11 -426 -18 -840 -21 -2110 -15
-1668 7 -1683 7 -2150 -2 -406 -9 -609 -21 -728 -43 -24 -5 -29 -1 -42 29 -8
19 -22 36 -32 39 -10 2 -81 -6 -158 -19 -178 -29 -361 -28 -512 3 -59 12 -63
-7 -94 -441 -5 -77 -16 -187 -24 -245 -21 -147 -24 -227 -14 -365 21 -307 30
-437 44 -655 9 -129 22 -287 30 -350 27 -205 16 -493 -26 -734 -14 -85 -7
-197 15 -230 49 -76 101 -80 1041 -72 832 7 1013 10 1450 26 149 5 360 12 470
16 110 3 225 7 255 9 48 3 331 11 983 30 l187 5 0 -24 c0 -29 36 -76 59 -76
28 0 39 19 34 61 l-6 39 59 0 c33 0 241 5 464 10 444 11 1408 14 1755 5 121
-3 391 -7 600 -10 382 -4 462 -8 1070 -44 182 -11 463 -22 625 -26 162 -3 354
-8 425 -10 295 -11 613 -25 665 -30 60 -6 809 -23 1675 -40 143 -3 337 -9 430
-15 158 -9 481 -23 810 -35 139 -5 517 -23 650 -30 39 -2 165 -10 280 -19 116
-8 251 -18 300 -21 217 -14 715 -58 855 -75 98 -12 412 -47 545 -61 50 -5 101
-11 115 -14 14 -3 77 -12 140 -20 63 -8 238 -30 389 -49 265 -35 874 -93 1191
-116 85 -6 246 -17 358 -26 241 -19 313 -12 349 33 30 38 33 66 32 338 -1 156
4 295 14 395 45 432 68 991 97 2345 25 1129 24 1037 4 1052 -10 7 -20 12 -23
12 -3 -1 -53 -5 -111 -10z m63 -244 c-6 -484 -23 -1267 -28 -1274 -3 -5 -10
-200 -15 -433 -9 -416 -40 -1087 -60 -1303 -5 -60 -14 -164 -20 -229 -6 -66
-11 -220 -10 -343 l0 -224 -26 -9 c-46 -18 -160 -13 -794 30 -146 10 -390 31
-595 50 -137 13 -371 41 -670 80 -263 34 -317 41 -620 75 -365 41 -589 63
-805 80 -113 8 -351 26 -530 40 -347 26 -578 39 -1025 55 -154 6 -361 15 -460
20 -361 19 -904 36 -1435 45 -363 6 -753 19 -1245 40 -335 14 -529 20 -935 30
-234 6 -511 19 -735 35 -71 5 -197 12 -280 15 -82 3 -184 8 -225 10 -517 26
-2904 25 -3233 -2 l-77 -6 2 144 c2 79 -5 246 -14 372 -18 234 -13 499 12 702
5 44 12 145 15 225 8 222 25 496 36 585 15 115 14 732 -2 751 -16 19 -75 18
-83 -1 -3 -8 -3 -151 0 -318 5 -238 3 -336 -10 -462 -8 -88 -20 -259 -26 -380
-17 -351 -29 -527 -35 -533 -12 -12 -376 -14 -424 -2 -61 15 -112 45 -105 63
3 8 31 27 62 43 136 69 261 208 262 291 0 19 -9 43 -24 60 -23 27 -28 28 -118
28 -73 0 -107 -5 -158 -24 -92 -34 -124 -61 -161 -136 -35 -71 -41 -143 -19
-210 6 -19 9 -39 6 -44 -3 -4 -42 -14 -86 -21 -64 -10 -89 -10 -125 0 -52 15
-105 68 -105 105 0 30 11 32 35 5 48 -53 95 -10 136 124 51 169 120 380 131
401 6 11 24 35 39 53 37 41 38 69 3 78 -30 8 -68 -16 -100 -64 -25 -36 -103
-267 -135 -397 -12 -49 -25 -94 -30 -99 -5 -5 -26 7 -49 28 -45 41 -70 41
-104 3 -27 -32 -19 -158 15 -224 55 -106 216 -138 371 -73 43 18 78 18 78 0 0
-15 79 -59 136 -77 70 -21 278 -24 362 -5 29 7 64 9 77 6 l23 -6 0 -228 c0
-125 3 -247 6 -271 11 -75 26 -428 20 -458 l-6 -28 -381 -6 c-210 -4 -564 -14
-787 -22 -223 -8 -544 -19 -715 -25 -170 -5 -377 -12 -460 -15 -82 -2 -454 -8
-825 -11 -754 -7 -1099 3 -1132 32 -21 20 -24 80 -8 165 43 223 51 532 20 789
-11 91 -24 253 -30 360 -6 107 -17 285 -26 395 -19 236 -21 435 -5 525 10 62
35 329 47 500 9 125 5 120 74 120 56 0 60 -2 75 -30 20 -38 42 -43 145 -30 47
6 155 15 240 20 85 5 220 16 300 25 357 36 539 38 2640 40 1274 1 2023 5 2215
13 289 12 460 16 965 27 290 6 728 28 1025 50 166 13 334 22 745 40 58 3 191
7 295 10 105 3 233 7 285 10 52 2 214 8 360 11 146 4 292 8 325 9 33 1 188 5
345 9 157 3 344 9 415 11 72 3 402 5 735 6 739 1 1278 12 1845 39 291 14 396
18 655 30 288 13 493 26 805 51 138 11 293 22 345 25 52 2 156 9 230 14 74 6
250 15 390 20 596 24 1113 47 1210 55 36 3 180 12 320 20 140 8 341 22 445 31
424 35 663 52 725 50 l65 -1 -2 -150z m-14238 -1749 c18 -13 18 -15 -9 -60
-26 -44 -170 -167 -238 -202 -25 -13 -28 -12 -38 5 -5 11 -10 46 -10 78 0 66
21 117 62 146 55 41 196 61 233 33z"/>
<path d="M14637 25532 c-27 -30 -44 -81 -91 -273 -24 -101 -56 -218 -71 -259
-15 -41 -29 -83 -32 -92 -3 -10 -8 -18 -12 -18 -3 0 -33 20 -66 45 -143 107
-336 115 -463 19 -44 -34 -63 -75 -63 -138 -2 -157 111 -226 367 -226 182 1
344 31 358 67 13 33 -9 36 -151 24 -216 -18 -385 5 -444 60 -32 30 -37 64 -15
107 18 35 45 48 120 62 92 16 116 13 191 -24 88 -42 116 -72 119 -125 3 -50
16 -66 50 -57 17 4 28 16 34 39 6 17 30 80 55 139 25 58 64 171 87 250 23 79
54 186 71 239 33 111 35 126 13 157 -18 27 -36 28 -57 4z"/>
<path d="M15746 25334 c-188 -28 -405 -120 -420 -179 -8 -30 10 -122 28 -150
25 -38 150 -88 426 -169 287 -85 379 -125 416 -181 40 -62 -24 -82 -296 -96
-320 -15 -522 -1 -677 47 -43 14 -56 14 -68 4 -19 -16 -19 -54 0 -74 45 -45
240 -82 455 -88 205 -5 451 1 505 12 64 13 176 78 192 110 17 36 -2 112 -40
162 -57 74 -129 105 -547 238 -225 72 -310 109 -310 135 0 17 52 49 132 81 90
36 160 54 245 61 66 5 77 4 104 -16 37 -28 76 -24 101 10 15 20 17 30 9 52
-19 50 -104 64 -255 41z"/>
<path d="M11880 25254 c-30 -8 -122 -27 -204 -44 -242 -51 -385 -113 -483
-211 -51 -51 -99 -141 -109 -205 -9 -60 5 -249 19 -268 20 -26 61 -29 87 -8
l24 19 -17 109 c-15 88 -16 119 -7 161 22 99 94 176 226 242 71 34 275 98 347
107 47 7 51 6 38 -9 -7 -9 -56 -49 -110 -89 -187 -142 -331 -304 -331 -373 0
-56 62 -95 149 -95 106 0 298 78 399 162 47 40 116 121 142 167 13 23 19 12
46 -86 41 -151 73 -229 110 -264 28 -27 36 -30 49 -19 20 17 19 42 -5 82 -27
46 -98 333 -110 440 -10 96 -30 138 -65 138 -33 0 -42 -17 -49 -91 -11 -98
-43 -158 -138 -252 -91 -90 -179 -141 -296 -171 -150 -38 -160 -11 -39 109 45
44 159 142 254 218 196 155 214 177 181 219 -19 24 -47 27 -108 12z"/>
<path d="M13155 25194 c-49 -37 -154 -132 -232 -212 -79 -80 -143 -143 -143
-140 0 4 9 44 20 90 26 107 26 152 0 178 -11 11 -29 20 -39 20 -25 0 -51 -36
-51 -70 0 -14 -11 -100 -26 -189 -26 -170 -25 -216 5 -226 35 -11 68 14 150
110 45 52 146 161 224 240 150 153 180 171 193 119 9 -35 -2 -187 -21 -294
-19 -108 -19 -150 1 -178 18 -26 36 -28 54 -7 20 24 69 310 70 401 0 128 -40
224 -94 224 -12 0 -61 -30 -111 -66z"/>
<path d="M10712 25208 c-70 -12 -142 -57 -227 -143 -105 -105 -139 -171 -144
-278 -4 -106 11 -157 64 -206 64 -59 195 -104 229 -78 30 22 13 44 -51 62 -31
9 -71 26 -86 37 -37 26 -66 91 -67 145 0 73 -1 73 122 73 91 0 122 4 186 26
96 32 166 76 203 127 35 48 37 89 8 137 -48 77 -139 115 -237 98z m132 -119
c51 -40 25 -78 -87 -129 -105 -48 -256 -76 -271 -51 -7 11 30 60 74 97 112 96
225 129 284 83z"/>
<path d="M9770 25149 c-129 -35 -248 -123 -324 -241 -10 -16 -35 -67 -56 -115
-36 -84 -38 -87 -71 -87 -43 -1 -49 -26 -14 -59 25 -22 26 -27 16 -63 -52
-193 -61 -424 -20 -510 20 -39 72 -69 98 -54 28 14 71 91 71 124 0 60 -42 86
-82 49 -17 -15 -18 -13 -18 63 0 102 25 307 42 341 11 23 24 28 98 43 144 30
346 111 455 185 88 59 136 118 138 169 1 40 -32 93 -78 124 -53 37 -177 52
-255 31z m195 -90 c62 -30 39 -85 -64 -153 -98 -65 -403 -206 -446 -206 -22 0
-14 24 38 120 89 162 241 265 382 257 33 -2 74 -10 90 -18z"/>
<path d="M8669 25126 c-3 -3 -48 -7 -100 -9 -79 -2 -107 -8 -177 -36 -91 -36
-187 -113 -216 -175 -30 -64 -12 -201 37 -271 47 -68 88 -94 184 -119 133 -35
274 -12 473 76 188 83 246 149 238 270 -7 118 -79 208 -192 244 -51 17 -236
31 -247 20z m-77 -96 c16 -24 40 -25 74 -3 18 11 45 16 98 15 122 -3 237 -69
251 -146 21 -112 -48 -187 -235 -255 -108 -40 -198 -54 -299 -49 -116 7 -164
33 -204 114 -65 129 0 255 164 318 81 31 134 33 151 6z"/>
<path d="M3953 25054 c-83 -43 -127 -84 -160 -149 -88 -171 -95 -436 -17 -661
13 -39 24 -77 24 -85 0 -27 59 -138 79 -148 32 -18 69 -13 85 11 23 33 20 54
-13 80 -49 39 -82 103 -112 215 -40 150 -55 302 -39 401 15 97 21 110 71 178
95 129 273 153 376 49 74 -73 53 -126 -89 -237 -87 -68 -125 -91 -170 -102
-15 -3 -33 -16 -39 -28 -10 -18 -8 -24 12 -41 35 -29 78 -16 172 50 243 170
301 317 169 422 -74 58 -133 81 -210 81 -61 0 -80 -5 -139 -36z"/>
<path d="M4904 25035 c-89 -46 -159 -100 -266 -204 -84 -80 -88 -86 -88 -127
0 -155 174 -266 351 -224 84 20 239 108 239 136 0 21 -25 17 -115 -15 -93 -33
-165 -44 -215 -33 -32 7 -35 11 -35 42 0 41 -17 48 -44 18 -26 -27 -44 -19
-78 32 -37 53 -31 72 45 139 133 119 220 171 286 171 35 0 48 5 60 22 20 29
20 34 -4 58 -28 28 -59 25 -136 -15z"/>
<path d="M3320 25051 c-114 -23 -167 -116 -177 -307 -5 -99 -3 -114 16 -151
51 -101 229 -159 333 -109 67 32 125 93 164 170 32 65 36 82 36 152 0 98 -20
152 -74 198 -21 19 -59 39 -83 45 -48 12 -159 13 -215 2z m197 -93 c67 -20
108 -101 101 -198 -5 -73 -40 -129 -106 -171 -42 -27 -54 -30 -112 -27 -52 3
-76 10 -113 33 -72 46 -74 52 -51 271 7 62 40 100 94 107 47 5 147 -2 187 -15z"/>
<path d="M5338 25051 c-56 -12 -88 -38 -112 -94 -32 -72 -38 -120 -19 -146 11
-17 13 -36 8 -84 -9 -86 8 -126 70 -162 37 -22 55 -27 93 -23 116 11 228 112
285 256 55 138 -36 239 -230 256 -32 3 -74 1 -95 -3z m169 -101 c55 -24 82
-56 83 -94 0 -71 -94 -198 -160 -216 -121 -33 -186 89 -93 175 28 26 34 37 28
55 -6 20 -12 21 -46 16 -30 -5 -39 -3 -39 8 0 30 23 66 49 75 36 14 125 5 178
-19z"/>
<path d="M7803 22964 c-3 -8 -1 -32 5 -52 103 -345 133 -402 269 -525 341
-305 533 -391 903 -404 139 -5 191 -2 320 16 455 65 546 72 875 73 564 1 849
-52 1195 -221 276 -135 498 -389 708 -806 47 -95 90 -145 124 -145 30 0 96 42
188 119 110 92 193 144 342 215 392 188 801 268 1208 237 359 -27 626 -80
1160 -231 241 -68 528 -137 745 -180 61 -12 153 -31 205 -42 110 -24 90 -20
289 -53 248 -42 383 -55 596 -59 228 -5 377 4 602 34 338 46 605 108 878 205
205 73 283 105 495 202 175 81 407 239 500 339 92 99 142 212 185 412 15 69
16 89 6 123 -13 44 -36 59 -55 38 -7 -8 -22 -68 -35 -134 -13 -66 -28 -136
-33 -155 -19 -64 -79 -193 -104 -223 -47 -56 -250 -205 -362 -264 -360 -193
-738 -330 -1147 -417 -494 -105 -902 -122 -1360 -55 -126 18 -634 116 -810
155 -38 9 -99 22 -135 30 -138 31 -350 89 -570 156 -489 148 -827 206 -1211
210 -304 3 -612 -56 -925 -177 -221 -85 -342 -154 -533 -298 -63 -48 -118 -87
-122 -87 -4 0 -37 57 -74 127 -286 549 -619 824 -1156 958 -346 86 -961 99
-1459 30 -478 -66 -655 -62 -908 21 -136 44 -228 100 -395 240 -192 161 -232
218 -307 445 -47 143 -79 190 -97 143z"/>
<path d="M4945 22644 c-22 -13 -62 -36 -90 -50 -27 -15 -103 -58 -168 -95 -65
-38 -138 -74 -162 -79 -160 -36 -472 -212 -655 -370 -47 -40 -88 -78 -92 -84
-13 -19 -9 -54 8 -70 19 -19 46 -14 130 24 70 32 115 61 407 264 33 23 74 50
92 61 18 11 63 42 100 69 l67 49 34 -17 c32 -15 34 -19 34 -65 0 -67 -23 -182
-55 -277 -38 -110 -98 -227 -195 -379 -100 -157 -137 -233 -152 -314 -10 -52
-9 -66 5 -96 12 -26 23 -35 41 -35 33 0 40 13 47 96 7 85 34 148 145 330 107
176 125 213 180 369 44 123 56 196 51 302 -3 54 -6 109 -8 122 -3 17 2 28 16
35 65 35 145 91 145 102 0 7 13 20 29 28 52 27 55 13 61 -260 4 -207 7 -246
21 -260 14 -13 20 -14 38 -2 12 7 24 22 26 33 11 46 11 546 1 568 -16 30 -53
31 -101 1z m-661 -412 c-184 -129 -272 -182 -300 -182 -16 0 -16 2 1 20 32 35
294 185 304 174 3 -3 1 -8 -5 -12z"/>
<path d="M5157 20902 c-9 -9 -20 -38 -26 -62 -10 -51 -24 -227 -23 -310 1 -83
-6 -90 -91 -90 -76 0 -181 -14 -233 -31 -41 -13 -62 -58 -45 -96 13 -28 11
-28 162 5 107 24 205 32 202 16 -1 -7 -3 -99 -5 -205 -2 -191 -2 -194 19 -197
14 -2 23 3 27 15 11 35 28 178 35 288 l6 110 190 0 c105 0 195 4 202 8 23 14
1 37 -51 52 -28 8 -105 19 -171 25 -185 16 -169 5 -161 113 4 51 14 149 22
220 13 101 14 130 4 142 -17 20 -43 19 -63 -3z"/>
<path d="M3378 20870 c-18 -11 -26 -32 -58 -155 -17 -63 -36 -102 -95 -190
-128 -193 -234 -299 -360 -361 -90 -44 -158 -47 -204 -9 -38 32 -67 111 -80
211 -7 54 -15 83 -29 96 -32 33 -56 15 -103 -75 -94 -181 -190 -299 -267 -328
-65 -25 -79 13 -89 227 -5 129 -4 157 11 196 21 54 9 91 -27 86 -39 -6 -61
-63 -65 -168 -4 -115 20 -326 44 -376 25 -52 89 -80 142 -63 84 27 164 114
243 267 36 70 56 92 64 71 82 -235 112 -269 242 -269 147 0 317 140 456 375
42 72 77 127 77 124 0 -3 -7 -51 -15 -106 -8 -55 -16 -145 -17 -199 -2 -84 1
-105 20 -140 54 -104 147 -58 291 145 78 109 117 149 130 135 5 -5 11 -70 13
-144 3 -106 8 -143 23 -172 30 -61 90 -75 185 -43 48 16 50 16 79 -6 26 -19
38 -21 93 -15 123 12 218 82 277 201 18 37 36 64 40 59 5 -5 19 -36 32 -69 50
-127 90 -163 162 -146 44 10 64 25 72 52 11 34 -11 49 -65 42 l-48 -6 -25 49
c-34 67 -54 145 -63 234 -7 78 -23 110 -55 110 -24 0 -49 -38 -49 -75 0 -92
-75 -248 -146 -301 -28 -22 -109 -54 -136 -54 -22 0 -4 28 35 52 63 40 124
108 142 157 15 44 20 126 9 156 -18 45 -120 59 -189 25 -54 -26 -77 -51 -117
-130 -29 -58 -33 -74 -34 -153 0 -48 -6 -93 -11 -98 -6 -6 -35 -12 -64 -13
-52 -1 -54 0 -60 29 -4 17 -7 95 -8 175 -2 167 -13 214 -51 218 -34 4 -124
-78 -246 -224 -97 -116 -124 -140 -151 -130 -14 6 -15 20 -9 102 8 119 37 287
76 446 34 140 37 173 14 182 -19 7 -15 8 -36 -4z m854 -498 c20 -20 -7 -64
-80 -129 -81 -72 -124 -103 -143 -103 -20 0 -4 94 26 155 36 74 73 98 139 91
27 -3 53 -9 58 -14z"/>
<path d="M16144 20555 c-63 -26 -192 -218 -233 -347 -7 -21 -18 -41 -24 -45
-7 -4 -40 -6 -74 -4 -57 3 -65 0 -87 -24 -14 -15 -30 -43 -37 -62 -9 -29 -8
-37 7 -54 25 -28 60 -24 76 9 10 20 22 28 46 30 17 2 32 -1 32 -5 0 -19 -101
-318 -110 -327 -16 -16 -12 -56 6 -56 49 0 100 85 153 258 18 57 39 106 46
109 8 3 38 -1 67 -8 29 -7 99 -12 156 -11 56 1 102 -2 102 -7 0 -5 -7 -26 -16
-47 -24 -57 -16 -169 15 -213 49 -69 189 -108 294 -82 97 23 88 61 -14 61
-125 0 -209 52 -209 128 0 56 18 110 48 142 24 25 39 30 127 43 102 14 190 47
209 78 15 26 -11 75 -49 93 -69 33 -182 8 -272 -61 l-46 -35 -182 4 c-101 1
-187 7 -191 11 -22 22 139 275 203 318 45 31 55 60 31 91 -19 23 -41 27 -74
13z"/>
<path d="M13355 20359 c-159 -23 -453 -119 -620 -202 -139 -69 -270 -177 -296
-243 -20 -54 12 -124 57 -124 28 0 58 41 50 67 -19 59 152 184 396 292 119 52
352 133 421 145 58 11 46 -16 -43 -92 -192 -165 -351 -342 -403 -450 -20 -39
-20 -45 -6 -70 8 -15 30 -37 49 -50 70 -47 191 -7 307 101 80 75 135 154 185
267 20 47 40 85 44 85 4 0 26 -76 49 -170 53 -214 66 -245 99 -245 41 0 42 35
7 185 -17 73 -31 140 -31 149 0 8 -12 52 -26 98 -15 46 -33 119 -40 162 -8 43
-19 85 -25 93 -13 15 -79 16 -174 2z m101 -231 c-4 -18 -15 -51 -26 -73 -18
-36 -20 -37 -15 -10 3 17 8 39 12 50 10 36 -19 -3 -80 -106 -83 -142 -234
-278 -311 -279 -58 0 72 169 274 356 30 28 70 68 89 89 30 33 35 35 48 22 11
-11 14 -25 9 -49z"/>
<path d="M15215 20354 c-160 -40 -247 -155 -247 -324 -1 -310 306 -460 632
-309 70 33 150 102 150 131 0 24 -5 23 -75 -12 -121 -60 -195 -83 -291 -88
-103 -5 -142 4 -204 49 -78 57 -133 227 -100 311 21 53 58 97 103 120 75 39
297 27 297 -16 0 -21 -53 -62 -137 -106 -99 -52 -129 -77 -137 -112 -7 -31 14
-58 47 -58 11 0 50 19 86 42 199 126 241 165 241 226 0 85 -100 141 -260 148
-47 1 -94 1 -105 -2z"/>
<path d="M14379 20312 c-24 -16 -62 -51 -85 -78 -44 -55 -136 -194 -155 -236
-13 -31 -34 -39 -25 -10 3 9 12 47 21 85 8 37 22 97 30 133 18 74 7 117 -31
122 -45 6 -62 -26 -78 -143 -8 -60 -24 -164 -35 -230 -27 -156 -27 -219 -1
-245 49 -49 90 -13 144 126 46 118 150 296 201 344 l38 35 -6 -60 c-4 -33 -20
-113 -37 -177 -16 -64 -30 -128 -30 -142 0 -34 25 -56 64 -56 39 0 63 24 131
127 53 83 182 226 196 217 5 -3 9 -81 9 -173 0 -156 2 -170 21 -195 15 -20 29
-26 48 -24 26 3 26 4 34 118 9 135 3 301 -14 350 -13 39 -44 69 -71 70 -10 0
-76 -57 -148 -126 -71 -70 -130 -125 -130 -122 0 2 9 44 20 94 22 102 25 156
9 187 -25 46 -57 48 -120 9z m161 -291 c0 -13 -71 -103 -77 -97 -5 5 64 106
73 106 2 0 4 -4 4 -9z"/>
<path d="M17334 20259 c-17 -5 -99 -43 -181 -84 -274 -137 -368 -260 -360
-471 3 -69 15 -90 65 -111 58 -24 99 25 69 85 -39 77 -27 169 33 248 47 62
166 145 327 227 62 32 117 65 121 75 21 39 -7 51 -74 31z"/>
<path d="M18090 20263 c-72 -11 -161 -37 -189 -54 -18 -11 -39 -35 -47 -55
-14 -34 -14 -38 11 -79 29 -50 139 -149 254 -230 43 -30 83 -61 89 -68 28 -33
-22 -49 -328 -106 -240 -45 -263 -48 -438 -60 -120 -9 -152 -19 -152 -47 0 -8
9 -23 20 -34 32 -32 207 -20 608 40 281 42 371 74 405 143 28 55 11 96 -67
158 -217 173 -284 229 -289 244 -20 51 272 59 360 9 61 -35 116 14 79 71 -30
46 -69 58 -231 68 -33 3 -71 3 -85 0z"/>
<path d="M10930 20191 c-223 -60 -415 -223 -574 -488 -159 -266 -258 -673
-231 -957 8 -87 32 -126 78 -126 43 0 53 24 34 83 -43 137 -42 257 5 477 65
307 182 535 367 720 112 111 163 145 282 185 102 35 181 41 272 21 116 -26
177 -79 161 -140 -10 -42 -103 -123 -194 -170 -47 -24 -148 -68 -225 -97 -229
-86 -309 -103 -356 -78 -44 23 -68 -43 -28 -79 47 -45 139 -33 369 46 189 65
241 86 320 129 143 78 197 146 207 261 l6 69 -38 42 c-47 52 -93 76 -192 102
-93 23 -177 23 -263 0z"/>
<path d="M12074 20138 c-6 -7 -19 -33 -29 -56 -48 -111 -337 -299 -444 -290
-122 10 58 167 217 189 71 10 92 25 92 66 0 38 -37 48 -122 34 -99 -16 -167
-51 -251 -130 -108 -102 -115 -141 -42 -217 l42 -44 77 0 c67 0 87 5 150 34
94 43 180 101 261 178 36 33 67 59 68 57 2 -2 12 -33 21 -69 43 -151 74 -218
130 -277 71 -77 124 -7 55 72 -34 39 -68 132 -103 284 -19 85 -39 158 -44 163
-16 16 -68 20 -78 6z m-23 -156 c-5 -10 -18 -25 -28 -33 -12 -10 -11 -5 6 19
24 35 38 43 22 14z"/>
<path d="M3506 19441 c-26 -29 -48 -163 -48 -297 l1 -121 -98 -7 c-108 -7
-253 -39 -289 -62 -33 -22 -47 -56 -33 -83 15 -27 27 -26 93 4 48 22 254 65
312 65 22 0 23 -3 31 -162 11 -248 13 -266 20 -278 11 -18 34 -11 51 15 18 28
20 117 8 316 l-6 106 205 8 c224 8 253 5 237 -25 -29 -54 3 -64 79 -25 53 28
94 26 111 -4 5 -10 5 -45 0 -86 -40 -306 38 -404 244 -307 66 31 177 113 239
177 50 52 87 131 87 188 0 90 -42 137 -155 173 -103 33 -251 36 -365 6 -68
-17 -105 -18 -375 -15 -165 2 -304 8 -309 13 -14 14 10 287 30 342 15 39 16
49 5 62 -18 21 -54 20 -75 -3z m985 -471 c63 -12 134 -54 157 -92 15 -25 15
-30 -1 -64 -30 -62 -96 -131 -166 -173 -128 -78 -188 -90 -217 -46 -15 23 -15
37 -4 148 10 97 10 131 0 167 -7 25 -12 47 -11 50 2 17 167 24 242 10z"/>
<path d="M3074 18113 c-14 -15 -38 -54 -53 -87 -48 -102 -142 -422 -196 -671
-9 -44 -22 -89 -27 -99 -11 -19 -11 -19 -25 0 -8 10 -28 42 -44 70 -16 29 -65
90 -109 137 -66 70 -96 93 -172 133 l-93 49 -110 -1 c-120 0 -186 -15 -261
-59 -87 -51 -118 -99 -135 -206 -9 -61 -8 -83 6 -143 27 -114 70 -193 144
-266 79 -78 138 -111 251 -141 76 -19 102 -21 250 -17 138 5 176 9 235 29 55
19 70 28 70 44 0 19 -5 20 -95 15 -292 -15 -463 3 -565 61 -127 71 -216 226
-218 379 -3 122 42 175 173 204 183 42 307 -1 471 -164 112 -110 141 -157 169
-265 18 -69 32 -95 50 -95 25 1 44 40 65 131 14 57 44 181 69 274 117 452 138
520 197 617 34 56 39 71 29 83 -19 23 -48 18 -76 -12z"/>
<path d="M3567 17515 c-172 -35 -333 -132 -311 -189 9 -23 18 -21 100 25 99
54 188 79 315 86 134 7 215 -7 304 -56 77 -41 135 -111 135 -163 0 -70 -63
-133 -200 -200 -167 -81 -373 -102 -529 -53 -146 46 -216 127 -216 250 0 80
19 120 71 156 32 22 44 37 44 55 0 85 -151 -2 -186 -108 -27 -81 -15 -199 26
-277 50 -94 120 -142 251 -175 83 -20 273 -21 366 -2 200 43 386 155 444 268
58 113 -26 276 -178 346 -38 17 -93 36 -122 42 -73 14 -231 11 -314 -5z"/>
<path d="M12258 14770 c-9 -6 -33 -45 -54 -88 -20 -42 -49 -95 -64 -117 -15
-22 -60 -103 -100 -180 -41 -77 -96 -183 -124 -235 -27 -52 -82 -158 -121
-235 -40 -77 -97 -187 -127 -245 -31 -58 -61 -123 -68 -145 -7 -22 -18 -47
-25 -55 -6 -8 -18 -31 -25 -50 -7 -19 -31 -71 -53 -115 -22 -44 -59 -123 -82
-175 -24 -52 -68 -151 -99 -220 -31 -69 -63 -143 -71 -165 -7 -22 -34 -89 -60
-150 -57 -138 -65 -182 -35 -212 25 -28 31 -28 62 -3 19 15 26 32 31 72 8 76
83 260 267 654 97 208 362 742 485 976 112 215 152 289 190 353 72 119 155
282 155 302 0 38 -43 55 -82 33z"/>
<path d="M5138 14746 c-13 -7 -24 -22 -26 -38 -3 -20 2 -27 23 -32 50 -13 83
13 70 54 -7 23 -38 31 -67 16z"/>
<path d="M2784 14631 c-68 -41 -207 -279 -286 -489 -70 -187 -107 -318 -138
-482 -50 -272 -63 -337 -76 -374 -17 -46 -18 -102 -3 -111 5 -4 21 -4 34 -1
29 7 39 36 60 171 29 189 101 539 120 581 l13 31 156 7 c86 3 202 11 258 17
55 5 106 8 113 5 6 -2 20 -33 30 -68 23 -84 131 -351 187 -463 25 -50 51 -107
58 -128 15 -46 34 -56 61 -31 26 23 23 36 -53 199 -33 71 -77 175 -98 230 -21
55 -52 131 -68 170 -22 50 -27 73 -20 82 8 9 52 13 159 13 81 0 160 5 174 10
74 28 -38 64 -230 74 -76 4 -144 11 -150 16 -7 5 -17 36 -24 67 -7 32 -23 87
-36 123 -93 263 -109 298 -155 348 -25 27 -45 28 -86 3z m60 -138 c25 -50 110
-261 142 -351 11 -32 14 -55 8 -61 -5 -5 -107 -11 -227 -15 -179 -5 -218 -4
-223 7 -9 24 163 365 220 439 31 40 52 35 80 -19z"/>
<path d="M5161 14391 c-23 -23 -37 -127 -27 -210 20 -169 20 -168 -2 -173 -12
-3 -54 0 -94 8 -82 16 -102 12 -124 -21 -18 -27 -11 -59 14 -71 9 -4 66 -9
127 -10 l110 -3 6 -33 c4 -18 12 -131 18 -251 13 -255 22 -283 75 -244 17 13
18 27 13 198 -4 101 -9 217 -13 256 -5 58 -4 74 7 77 8 3 72 12 142 21 137 16
228 38 317 75 96 40 145 88 106 103 -7 3 -56 -8 -107 -24 -157 -49 -448 -91
-475 -68 -12 10 -14 44 -13 186 1 181 -3 203 -42 203 -11 0 -28 -9 -38 -19z"/>
<path d="M6073 14348 c-89 -97 -213 -557 -213 -790 0 -95 0 -97 29 -117 16
-12 42 -21 58 -21 74 1 196 97 277 219 42 64 102 131 118 131 13 0 26 -69 43
-230 19 -176 27 -208 62 -250 28 -34 62 -39 86 -12 22 24 21 38 -4 55 -26 19
-35 62 -44 212 -12 204 -40 323 -80 339 -53 20 -136 -47 -287 -231 -67 -81
-146 -141 -169 -127 -40 24 91 558 178 726 42 80 41 112 -2 116 -22 2 -37 -4
-52 -20z"/>
<path d="M8743 14346 c-11 -14 -26 -53 -33 -88 -7 -35 -20 -73 -27 -84 -14
-22 -13 -29 13 -175 4 -23 2 -39 -5 -43 -6 -4 -49 -11 -94 -16 -54 -5 -119
-21 -183 -45 -129 -48 -182 -97 -150 -140 19 -26 67 -20 122 14 87 55 303 118
318 93 3 -6 9 -57 12 -113 8 -152 10 -170 22 -214 6 -22 16 -66 23 -97 15 -72
43 -120 64 -112 26 11 27 49 5 206 -12 84 -22 195 -23 248 l-2 95 89 -3 c105
-3 273 -35 327 -62 21 -11 49 -35 63 -53 52 -67 59 -105 65 -350 5 -187 9
-229 21 -237 25 -16 48 -11 67 14 17 21 19 43 18 237 -1 193 -3 221 -23 279
-30 90 -77 142 -165 184 -88 42 -203 65 -361 73 l-119 6 6 89 c3 50 18 132 33
185 31 109 27 126 -28 131 -28 2 -40 -2 -55 -22z"/>
<path d="M12790 14202 c-20 -16 -22 -22 -12 -35 7 -8 27 -21 45 -28 18 -7 35
-17 38 -22 8 -11 -12 -91 -31 -127 -34 -67 -135 -184 -273 -318 -340 -329
-362 -355 -373 -433 -14 -101 75 -184 235 -218 103 -22 337 -5 452 33 24 8 59
17 77 21 49 10 292 100 350 129 28 14 53 26 55 26 2 0 7 -23 10 -52 9 -69 46
-121 132 -180 120 -84 272 -125 425 -115 223 14 340 117 342 301 1 42 4 79 8
81 3 2 35 -5 71 -16 82 -27 181 -21 298 16 55 18 87 23 93 17 7 -7 1 -42 -17
-104 -15 -51 -42 -149 -60 -218 -18 -69 -51 -174 -72 -235 -36 -102 -41 -111
-75 -127 -41 -19 -53 -44 -43 -88 14 -64 76 -62 130 4 52 64 174 413 255 733
38 150 37 167 -9 171 -19 2 -45 -2 -57 -9 -21 -11 -27 -8 -62 23 -90 82 -236
126 -354 107 -74 -12 -92 -21 -141 -68 l-38 -36 -22 26 c-49 58 -152 109 -254
125 -56 9 -209 -14 -258 -38 -103 -52 -227 -162 -267 -236 -10 -18 -25 -32
-35 -32 -22 0 -166 -39 -338 -92 -186 -57 -180 -55 -290 -73 -133 -23 -204
-22 -300 3 -83 22 -135 60 -135 100 0 38 65 113 277 322 304 300 388 410 415
545 12 63 6 75 -51 105 -60 30 -113 34 -141 12z m1185 -717 c70 -23 120 -60
156 -114 30 -45 31 -48 26 -136 -8 -150 -51 -217 -160 -249 -98 -29 -278 -14
-342 28 -11 7 -37 18 -57 25 -47 15 -93 63 -114 116 -13 35 -14 50 -4 85 12
46 75 120 140 165 l39 27 75 -37 c104 -52 142 -34 71 35 -38 37 -45 66 -17 74
30 9 136 -2 187 -19z m563 -50 c54 -16 112 -58 112 -80 0 -18 -71 -29 -190
-30 -78 0 -101 4 -130 21 -44 26 -49 71 -10 91 34 17 156 16 218 -2z"/>
<path d="M4465 14131 c-98 -28 -221 -99 -295 -171 -37 -36 -127 -146 -200
-245 -73 -99 -146 -193 -162 -209 -23 -23 -28 -37 -26 -65 3 -32 6 -36 33 -39
40 -4 47 4 194 217 149 215 210 286 305 349 113 76 264 124 309 100 51 -27 77
-188 77 -472 0 -165 6 -197 43 -220 12 -8 22 -8 35 0 15 10 17 32 15 255 -1
134 -5 267 -8 294 -14 111 -48 184 -98 212 -31 18 -152 14 -222 -6z"/>
<path d="M9530 14048 c-38 -10 -69 -42 -70 -70 0 -12 13 -21 40 -28 35 -10 45
-8 73 9 18 10 51 24 75 30 47 13 58 42 23 61 -24 12 -94 12 -141 -2z"/>
<path d="M7679 13942 c-24 -16 -52 -40 -60 -53 -62 -95 -52 -275 22 -401 27
-46 29 -53 15 -66 -14 -14 -19 -11 -50 23 -40 43 -38 39 -61 148 -28 128 -62
128 -196 2 -86 -82 -125 -105 -150 -90 -8 6 -9 38 -4 119 10 171 -8 223 -68
195 -29 -13 -54 -57 -93 -164 -20 -56 -42 -92 -72 -124 -58 -62 -68 -50 -51
68 12 82 11 93 -3 107 -11 11 -25 14 -43 10 -40 -10 -55 -59 -57 -182 -2 -105
-2 -107 25 -130 19 -16 40 -24 67 -24 49 0 102 47 150 132 17 32 36 61 41 64
5 3 9 -22 9 -56 0 -55 3 -65 29 -91 57 -56 157 -30 256 67 30 30 59 54 64 54
5 0 14 -21 20 -47 30 -121 91 -171 220 -181 57 -4 73 -11 119 -44 98 -73 201
-109 367 -130 75 -9 104 -8 174 5 88 17 193 61 249 103 61 47 102 134 64 134
-5 0 -45 -23 -88 -52 -171 -113 -312 -140 -494 -96 -51 12 -181 80 -202 105
-11 14 -10 18 7 27 11 6 41 31 66 56 91 89 120 255 66 374 -32 70 -111 150
-156 159 -75 15 -135 8 -182 -21z m160 -67 c71 -36 117 -132 108 -221 -10
-100 -93 -224 -149 -224 -39 0 -98 131 -113 252 -5 40 -2 72 9 111 25 87 79
117 145 82z m-125 -441 c16 -16 21 -34 9 -34 -10 0 -43 32 -43 42 0 13 17 9
34 -8z m101 -94 c10 -16 -4 -11 -35 12 -17 12 -30 26 -30 31 0 9 55 -28 65
-43z m40 -28 c-3 -3 -11 0 -18 7 -9 10 -8 11 6 5 10 -3 15 -9 12 -12z"/>
<path d="M15470 13901 c-94 -33 -120 -50 -120 -77 0 -21 35 -44 69 -44 10 0
49 16 87 36 l69 36 98 -6 c84 -6 98 -5 104 9 9 25 -15 42 -82 60 -83 21 -138
18 -225 -14z"/>
<path d="M10085 13760 c-166 -44 -258 -91 -296 -154 -24 -39 -24 -65 1 -145
29 -92 53 -125 134 -186 143 -108 302 -163 491 -172 195 -9 339 21 474 99 79
46 103 70 85 88 -10 10 -65 -4 -144 -38 -141 -60 -278 -82 -430 -71 -149 12
-279 67 -419 178 -73 58 -114 176 -75 216 38 37 174 84 289 100 28 4 58 14 68
22 20 19 22 54 5 71 -17 17 -102 14 -183 -8z"/>
<path d="M16127 13515 c-173 -24 -264 -64 -321 -137 -37 -50 -41 -84 -17 -149
16 -42 39 -73 91 -124 81 -81 110 -100 250 -167 224 -106 400 -162 588 -184
33 -3 79 14 86 33 11 27 -12 40 -102 58 -200 39 -238 48 -320 81 -217 88 -402
203 -455 282 -37 56 -37 113 -1 141 63 50 233 88 342 77 53 -6 68 -4 83 10 22
20 25 57 5 73 -22 18 -124 21 -229 6z"/>
<path d="M19972 13473 c4 -22 48 -31 48 -10 0 14 -20 27 -42 27 -5 0 -8 -8 -6
-17z"/>
<path d="M15377 13462 c-22 -24 -21 -54 3 -102 26 -51 26 -59 -10 -205 -25
-103 -28 -128 -18 -149 28 -63 87 -7 129 124 28 87 31 104 27 197 -6 125 -20
153 -77 153 -24 0 -44 -7 -54 -18z"/>
<path d="M19968 13433 c-9 -16 -7 -102 2 -108 15 -10 39 38 33 67 -5 29 -28
55 -35 41z"/>
<path d="M20820 13400 c0 -5 5 -10 11 -10 5 0 7 5 4 10 -3 6 -8 10 -11 10 -2
0 -4 -4 -4 -10z"/>
<path d="M20810 13340 c-7 -17 -10 -44 -6 -65 4 -21 2 -44 -6 -57 -16 -30 -28
-157 -17 -185 9 -24 33 -30 45 -12 3 6 10 59 14 118 5 58 13 126 18 151 16 73
-22 113 -48 50z"/>
<path d="M19955 13281 c-7 -13 -2 -91 6 -91 8 0 19 38 19 67 0 24 -15 39 -25
24z"/>
<path d="M20755 12491 c-6 -21 3 -51 16 -51 11 0 23 46 14 59 -10 17 -23 13
-30 -8z"/>
<path d="M19934 12315 c-7 -17 21 -65 36 -65 14 0 32 50 26 67 -7 18 -55 17
-62 -2z"/>
<path d="M3432 12249 c-201 -21 -452 -110 -602 -212 -193 -132 -362 -318 -439
-482 -105 -225 -37 -430 188 -569 160 -98 344 -146 576 -148 159 -1 266 12
410 49 92 23 219 79 210 92 -6 10 -77 4 -150 -12 -174 -39 -215 -47 -319 -58
-206 -22 -480 21 -625 98 -162 86 -213 148 -256 309 -10 37 25 165 63 234 105
191 313 389 519 493 249 127 605 175 746 103 57 -30 85 -33 94 -9 10 26 -52
71 -127 93 -81 23 -181 30 -288 19z"/>
<path d="M7462 11877 c-34 -41 -70 -619 -58 -932 7 -197 25 -281 66 -318 18
-16 39 -27 48 -25 22 4 28 45 9 66 -57 66 -66 169 -48 530 15 291 27 414 51
532 19 98 17 120 -19 147 -21 16 -36 16 -49 0z"/>
<path d="M6060 11775 c-9 -11 -13 -50 -12 -130 0 -72 -4 -119 -11 -129 -8 -10
-42 -19 -96 -25 -46 -6 -90 -16 -98 -23 -21 -17 -12 -58 19 -81 26 -19 26 -19
98 2 40 12 74 20 77 17 3 -3 -3 -94 -13 -203 -24 -261 -24 -257 3 -261 38 -6
39 0 91 408 l7 55 38 3 c51 4 171 -42 197 -75 15 -19 20 -41 20 -87 0 -49 4
-67 20 -84 26 -27 30 -27 68 1 18 12 69 48 114 79 l82 58 30 -20 c30 -19 31
-22 32 -98 4 -180 105 -277 289 -277 105 0 160 18 207 65 32 31 38 45 38 78 0
70 -35 146 -90 195 -61 55 -163 97 -248 105 -62 5 -64 5 -79 43 -12 32 -20 39
-42 39 -45 0 -200 -57 -274 -101 -38 -22 -71 -38 -75 -34 -3 3 -18 29 -32 57
-36 75 -78 104 -190 132 -111 28 -109 23 -85 158 15 88 15 93 -3 118 -22 30
-63 37 -82 15z m884 -520 c109 -23 188 -72 222 -138 34 -65 -43 -122 -162
-121 -60 0 -78 5 -120 30 -78 48 -104 127 -70 209 17 40 27 42 130 20z"/>
<path d="M9504 11766 c-154 -48 -387 -294 -482 -509 -15 -35 -19 -38 -47 -32
-16 3 -88 17 -160 30 -137 25 -258 54 -339 83 -48 17 -48 17 -67 -7 -39 -47
-4 -91 91 -114 95 -23 333 -57 400 -57 33 0 61 -4 64 -8 3 -5 -7 -40 -23 -78
-15 -38 -40 -116 -56 -174 -51 -194 -32 -415 42 -492 33 -34 50 -35 64 -4 10
20 7 30 -13 58 -37 49 -48 91 -48 182 0 114 15 193 63 335 57 171 53 167 163
154 120 -14 359 -11 375 4 8 8 6 14 -11 23 -34 18 -194 40 -297 40 -94 0 -123
5 -123 22 0 17 91 148 166 239 79 95 165 166 249 205 108 51 286 18 410 -76
81 -61 81 -61 98 -54 45 17 22 72 -50 120 -155 103 -347 148 -469 110z"/>
<path d="M19922 11718 c2 -12 10 -23 18 -23 22 0 19 39 -3 43 -15 3 -18 -1
-15 -20z"/>
<path d="M5485 11596 c-64 -20 -134 -60 -213 -120 -62 -47 -77 -54 -105 -49
-29 4 -35 1 -63 -39 -48 -68 -104 -177 -104 -201 1 -28 44 -60 70 -52 10 3 59
53 108 110 50 58 121 130 158 161 38 31 73 63 78 72 14 27 38 42 66 42 48 0
50 -9 43 -215 -7 -215 1 -252 58 -275 54 -23 92 17 49 52 -28 22 -28 45 -9
252 16 172 3 231 -57 260 -19 9 -36 16 -37 15 -1 0 -20 -6 -42 -13z"/>
<path d="M20258 11564 c-5 -4 -8 -25 -8 -48 0 -28 3 -37 11 -29 6 6 9 27 7 48
-2 20 -6 33 -10 29z"/>
<path d="M4185 11528 c-29 -17 -41 -32 -45 -53 -4 -24 -16 -36 -62 -60 -116
-61 -196 -170 -184 -249 14 -82 64 -140 161 -183 63 -28 267 -25 358 6 73 25
172 91 206 139 107 151 53 293 -146 384 -56 25 -84 32 -158 35 -80 4 -94 2
-130 -19z m224 -65 c102 -28 181 -101 181 -168 0 -44 -53 -129 -106 -169 -81
-62 -143 -80 -274 -81 -101 0 -121 3 -163 24 -61 30 -75 56 -58 112 16 53 98
136 164 167 27 13 78 26 113 31 36 4 70 13 77 20 17 17 -3 44 -42 55 -34 10
-40 22 -13 29 20 5 48 1 121 -20z"/>
<path d="M10508 11513 c-75 -80 -129 -179 -176 -323 -63 -193 -91 -343 -94
-499 -2 -128 17 -181 82 -226 63 -43 84 -4 32 57 -60 69 -66 144 -26 337 50
247 132 443 233 554 62 69 66 81 33 120 -23 26 -44 21 -84 -20z"/>
<path d="M20242 11449 c-38 -93 -38 -138 1 -124 20 8 29 69 18 115 l-8 35 -11
-26z"/>
<path d="M11076 11084 c-85 -21 -190 -79 -220 -122 -37 -54 -58 -119 -59 -187
-1 -65 21 -112 79 -167 40 -37 147 -86 219 -99 144 -27 253 4 329 93 128 149
86 405 -76 472 -41 18 -105 21 -127 7 -10 -6 -22 -5 -35 5 -24 17 -33 17 -110
-2z m248 -98 c49 -20 88 -77 94 -135 5 -53 -25 -134 -73 -197 -87 -114 -388
-62 -462 80 -19 36 -11 78 25 131 34 50 155 115 213 115 34 0 40 -4 60 -40 36
-64 119 -106 119 -61 0 11 -13 28 -30 38 -33 19 -38 43 -14 67 19 20 26 20 68
2z"/>
<path d="M11862 10888 c-27 -33 -92 -262 -92 -323 1 -106 58 -191 146 -215
118 -33 254 7 444 131 57 38 112 69 122 69 10 0 24 -13 33 -29 45 -89 271
-136 457 -96 160 33 360 129 442 210 91 90 162 214 136 238 -9 9 -31 -9 -98
-80 -76 -80 -234 -203 -262 -203 -5 0 -30 -11 -57 -24 -115 -57 -342 -78 -450
-42 -63 21 -97 46 -129 97 -15 24 -32 39 -44 39 -28 0 -102 -39 -217 -114
-132 -86 -211 -118 -290 -118 -62 0 -108 17 -134 48 -31 38 -14 134 57 316 23
59 12 101 -27 106 -14 2 -31 -3 -37 -10z"/>
<path d="M3133 9693 c-12 -11 -25 -43 -33 -78 -7 -33 -38 -139 -70 -235 -95
-285 -180 -706 -180 -892 0 -60 3 -70 26 -91 14 -14 44 -30 66 -36 63 -19 278
-13 495 14 109 13 276 31 371 40 183 16 236 30 247 65 12 36 -6 44 -77 31 -82
-14 -644 -61 -819 -68 -75 -3 -157 -3 -183 1 l-46 7 0 43 c0 71 27 254 64 432
44 209 41 199 132 478 41 126 74 240 72 254 -2 14 -12 31 -24 39 -18 12 -24
11 -41 -4z"/>
<path d="M8898 9387 c-149 -51 -275 -175 -364 -360 -25 -54 -43 -79 -58 -82
-12 -2 -59 -12 -106 -21 -159 -31 -221 -65 -205 -114 11 -34 51 -35 144 -6 47
16 98 32 113 36 15 5 30 5 33 0 3 -5 -7 -53 -22 -107 -24 -88 -27 -115 -27
-263 0 -154 2 -170 27 -244 28 -80 75 -159 101 -169 18 -7 56 20 56 39 0 9
-11 30 -23 47 -26 35 -58 120 -77 206 -15 65 -9 215 15 351 21 119 38 157 73
164 64 14 277 26 450 26 251 1 322 -20 322 -96 0 -43 -83 -168 -157 -233 -41
-37 -55 -57 -55 -76 0 -36 16 -45 81 -45 78 0 232 56 451 165 194 95 277 131
287 121 3 -3 -2 -23 -11 -46 -23 -58 -21 -170 4 -219 26 -52 80 -95 157 -126
74 -29 136 -32 213 -9 123 36 195 121 195 229 0 109 -62 243 -134 292 -50 34
-132 57 -174 49 -45 -8 -97 -56 -97 -88 0 -24 27 -58 46 -58 5 0 17 14 27 31
16 30 20 31 60 25 98 -15 175 -115 184 -238 4 -54 2 -68 -19 -97 -38 -57 -81
-76 -168 -75 -83 2 -140 20 -182 61 -58 55 -59 119 -6 255 32 82 32 128 0 128
-9 0 -42 -9 -72 -21 -30 -11 -91 -33 -135 -49 -44 -15 -145 -61 -225 -100
-136 -68 -306 -140 -330 -140 -18 0 -11 14 47 85 89 111 112 180 78 245 -40
76 -168 109 -442 113 -109 1 -237 -2 -285 -6 -73 -7 -88 -6 -88 5 0 26 82 140
148 207 133 132 271 174 454 136 155 -33 289 -89 357 -150 61 -55 103 -43 76
22 -30 72 -236 170 -434 207 -120 23 -222 20 -303 -7z"/>
<path d="M6889 9343 c-11 -13 -14 -76 -12 -327 2 -171 6 -344 11 -385 5 -41 7
-85 4 -98 -6 -33 -21 -18 -88 84 -76 117 -120 162 -189 195 -99 46 -204 33
-292 -36 -104 -83 -92 -253 27 -391 l43 -49 -42 -37 c-57 -51 -100 -69 -162
-69 -47 0 -55 3 -88 38 -44 46 -106 173 -146 295 -27 85 -28 89 -12 123 35 72
23 86 -93 103 -242 35 -430 5 -550 -90 -27 -21 -52 -39 -55 -39 -3 0 -5 16 -5
35 0 46 -18 81 -67 127 -45 43 -150 101 -213 119 -63 17 -267 13 -296 -5 -12
-8 -50 -18 -85 -22 -77 -8 -125 -31 -174 -81 -76 -78 -105 -170 -85 -266 29
-140 171 -234 391 -258 151 -17 288 26 394 123 29 26 56 48 59 48 3 0 5 -12 4
-27 -5 -77 1 -95 50 -143 53 -54 92 -69 198 -77 85 -6 160 12 250 62 66 37
113 84 170 170 21 31 41 52 45 48 4 -4 26 -53 49 -108 51 -121 109 -198 170
-229 108 -55 173 -42 274 55 l71 67 63 -38 c85 -51 176 -78 319 -95 128 -15
178 -13 261 12 39 11 52 19 50 32 -3 13 -16 16 -61 16 l-58 0 -22 55 c-21 54
-22 68 -24 553 -1 365 -5 502 -14 513 -16 19 -53 18 -70 -3z m-1878 -511 c25
-11 72 -44 104 -74 l58 -54 -7 -47 c-11 -72 -73 -157 -138 -189 -220 -107
-469 -91 -588 38 -33 36 -40 51 -40 85 0 99 53 180 142 219 47 20 58 21 101
11 71 -16 87 -14 110 15 20 26 22 27 116 21 63 -3 112 -12 142 -25z m1615
-119 c64 -41 162 -177 234 -327 33 -71 60 -136 58 -145 -11 -53 -361 55 -460
143 -79 70 -127 171 -114 241 21 111 171 158 282 88z m-799 -11 c16 -10 1 -78
-33 -144 -32 -62 -114 -151 -170 -184 -94 -55 -245 -70 -320 -31 -54 28 -67
51 -61 106 20 168 176 259 447 260 69 0 130 -3 137 -7z"/>
<path d="M14935 9046 c-75 -45 -151 -126 -182 -192 -87 -191 -80 -413 15 -477
62 -41 96 -49 179 -46 65 3 91 10 148 38 97 48 181 133 229 234 21 42 36 82
34 89 -2 6 -27 -20 -55 -59 -107 -147 -234 -231 -350 -232 -56 -1 -72 15 -25
24 53 12 148 47 192 73 178 102 226 258 134 439 -54 108 -93 137 -187 141 -68
3 -76 1 -132 -32z m203 -81 c60 -50 92 -164 72 -252 -23 -104 -143 -185 -318
-215 -102 -17 -106 -13 -100 127 7 141 31 209 99 277 87 87 188 113 247 63z"/>
<path d="M16825 9019 c-77 -12 -111 -69 -63 -103 31 -22 65 -20 78 4 15 27 91
27 167 -1 77 -28 145 -99 200 -210 73 -144 92 -263 53 -340 -23 -45 -51 -59
-115 -59 -35 0 -52 6 -76 28 -26 23 -31 36 -36 89 -5 51 -2 69 17 108 19 40
32 51 75 70 56 25 71 45 55 76 -13 23 -32 24 -93 3 -142 -48 -206 -285 -107
-397 21 -24 46 -38 90 -50 110 -31 202 2 261 95 64 100 47 234 -54 420 -116
212 -260 297 -452 267z"/>
<path d="M15451 8984 c-11 -14 -23 -42 -27 -63 -4 -20 -13 -54 -21 -76 -10
-26 -17 -95 -19 -197 l-5 -157 29 -32 c24 -27 37 -33 84 -37 48 -4 64 0 109
24 70 38 162 130 224 226 28 43 53 78 56 78 3 0 3 -76 1 -168 -4 -156 -3 -171
17 -209 16 -32 33 -47 75 -67 67 -32 114 -32 186 -3 83 34 144 81 202 153 28
35 54 64 58 64 3 0 11 -37 18 -82 17 -106 32 -139 78 -174 34 -27 44 -29 123
-29 80 0 86 1 89 22 3 18 -3 22 -40 28 -46 8 -92 28 -121 53 -26 23 -37 80
-46 228 -8 147 -14 164 -58 148 -21 -7 -37 -28 -63 -79 -64 -126 -209 -247
-313 -261 -42 -6 -49 -4 -76 24 -35 34 -35 33 -31 294 2 157 -8 211 -41 229
-16 8 -25 5 -47 -19 -15 -16 -34 -42 -42 -58 -37 -73 -159 -224 -222 -276 -87
-71 -132 -81 -145 -31 -9 37 4 208 23 300 28 134 28 133 9 153 -24 27 -40 25
-64 -6z"/>
<path d="M17985 8916 c-50 -24 -112 -63 -138 -86 -90 -79 -257 -341 -257 -403
0 -32 20 -57 44 -57 29 0 76 52 76 85 0 39 28 104 75 175 72 108 162 189 229
206 28 7 28 7 22 -32 -4 -22 -7 -91 -8 -154 -2 -126 6 -152 59 -202 64 -61
179 -83 293 -57 116 27 285 134 449 284 105 97 133 117 183 129 81 19 57 -156
-62 -444 -28 -69 -59 -147 -69 -175 -10 -27 -30 -72 -44 -100 -14 -27 -42 -88
-62 -135 -20 -47 -40 -93 -46 -102 -5 -10 -13 -26 -19 -35 -5 -10 -17 -36 -26
-58 -32 -74 -118 -213 -221 -357 -64 -88 -208 -242 -291 -309 -36 -30 -82 -69
-102 -88 -19 -18 -47 -38 -62 -43 -15 -5 -34 -20 -43 -34 -15 -23 -14 -24 4
-24 11 0 36 14 54 30 19 17 41 30 48 30 8 0 49 27 92 58 214 161 418 408 567
687 14 28 34 61 43 75 9 14 49 99 90 190 41 91 98 215 127 275 135 287 181
464 149 578 -37 134 -157 97 -393 -120 -111 -102 -233 -178 -334 -209 -207
-63 -293 -14 -291 168 0 46 4 119 9 163 9 89 -1 128 -35 133 -11 1 -61 -18
-110 -42z"/>
<path d="M13584 8781 c-17 -10 -40 -30 -51 -45 -30 -37 -97 -170 -127 -249
-55 -146 -132 -265 -156 -241 -6 6 -12 114 -16 254 -3 150 -9 249 -16 257 -15
19 -42 16 -63 -7 -14 -15 -18 -40 -21 -112 -3 -120 13 -410 26 -460 10 -35 14
-38 46 -38 64 0 147 58 196 136 28 43 56 107 118 267 41 105 89 175 110 162
25 -16 41 -76 69 -267 42 -283 60 -314 156 -268 48 23 89 66 146 152 19 29 56
85 82 124 80 121 175 195 210 165 25 -20 65 -115 101 -241 66 -227 102 -289
175 -305 43 -9 91 18 91 52 0 23 -3 25 -29 20 -44 -9 -75 34 -111 156 -81 268
-103 321 -163 385 -58 61 -139 38 -237 -65 -58 -61 -67 -73 -161 -212 -69
-103 -114 -150 -130 -134 -6 6 -17 58 -24 115 -32 254 -55 335 -111 391 -32
32 -67 34 -110 8z"/>
<path d="M10836 8737 c-17 -13 -67 -186 -97 -339 -16 -86 -6 -111 49 -125 83
-21 179 42 290 191 57 78 73 94 68 71 -15 -79 -18 -155 -6 -184 19 -46 83 -68
160 -53 74 13 183 64 284 131 109 72 149 91 191 91 50 0 83 -38 140 -157 84
-177 124 -223 210 -239 37 -7 65 7 65 32 0 8 -24 27 -53 44 -64 36 -113 100
-143 185 -30 86 -50 121 -96 171 -85 93 -156 81 -355 -56 -83 -58 -197 -112
-260 -123 -62 -12 -75 26 -48 138 15 62 20 161 9 189 -10 26 -51 18 -84 -16
-17 -18 -47 -60 -67 -93 -59 -98 -213 -245 -258 -245 -12 0 -3 59 30 186 38
145 42 183 23 202 -15 15 -30 15 -52 -1z"/>
<path d="M3711 7509 c-174 -23 -389 -112 -509 -211 -74 -60 -102 -108 -102
-176 0 -49 33 -116 76 -154 68 -60 195 -124 419 -213 412 -163 594 -266 689
-391 64 -83 59 -120 -28 -202 -121 -115 -385 -199 -595 -190 -94 4 -113 8
-160 33 -66 36 -125 102 -147 163 -36 104 -36 103 -58 100 -18 -3 -21 -9 -19
-43 6 -105 91 -234 191 -288 167 -91 458 -69 709 53 121 59 204 132 224 198
45 151 -129 344 -451 499 -94 45 -324 143 -336 143 -14 0 -208 82 -285 120
-172 87 -185 181 -42 295 93 73 255 144 405 176 33 7 97 10 157 7 124 -6 178
-30 233 -104 44 -57 70 -73 93 -54 23 19 18 38 -25 90 -101 120 -258 174 -439
149z"/>
<path d="M4953 7308 c-6 -7 -13 -83 -16 -168 -7 -182 -20 -254 -50 -275 -13
-9 -44 -15 -78 -15 -68 0 -205 -38 -251 -69 -53 -37 -71 -68 -69 -120 1 -49
19 -76 42 -66 8 4 28 25 44 48 20 27 53 53 91 73 59 31 189 63 202 50 3 -4 -1
-28 -11 -54 -10 -26 -38 -107 -62 -180 -45 -137 -102 -264 -161 -363 -59 -99
-35 -135 38 -56 63 68 174 315 243 540 40 132 49 137 200 117 39 -5 124 -10
190 -11 122 -2 145 -5 145 -19 0 -4 -39 -41 -86 -81 -136 -115 -176 -189 -155
-285 18 -79 75 -135 166 -164 251 -78 536 67 595 302 9 36 9 63 1 114 -30 171
-131 261 -306 272 -90 5 -162 -12 -210 -50 -27 -21 -28 -21 -178 -4 -84 9
-182 16 -219 16 -41 0 -68 4 -68 11 0 5 7 40 15 77 8 37 19 123 24 192 l9 125
-26 28 c-28 30 -44 34 -59 15z m840 -522 c60 -30 90 -91 91 -185 0 -66 -4 -83
-29 -129 -72 -132 -224 -211 -380 -196 -82 7 -129 25 -168 62 -23 22 -26 32
-21 57 12 58 57 116 170 222 84 78 114 112 114 130 0 13 5 33 11 45 10 18 18
20 92 16 53 -2 96 -10 120 -22z"/>
<path d="M9111 7297 c-11 -14 -5 -142 20 -442 6 -71 11 -141 12 -155 2 -20 -3
-26 -23 -28 -57 -8 -68 -53 -19 -80 70 -38 69 -35 85 -202 8 -85 21 -195 30
-245 9 -49 16 -116 17 -148 0 -32 4 -60 8 -62 16 -10 37 8 54 44 19 44 19 52
-26 359 -17 111 -27 207 -24 213 8 12 599 4 655 -9 25 -5 36 -14 38 -29 2 -11
-22 -84 -52 -161 -65 -162 -70 -203 -30 -278 44 -85 105 -122 214 -131 126
-11 316 60 391 145 58 66 84 136 84 227 -1 98 -32 171 -99 233 -79 73 -220
132 -316 132 -82 0 -117 -52 -67 -98 28 -26 44 -28 68 -6 16 15 26 15 81 4
213 -41 306 -203 215 -375 -19 -38 -92 -108 -133 -128 -37 -19 -154 -47 -194
-47 -56 0 -133 22 -157 46 -40 41 -25 140 48 299 33 72 33 174 1 208 -46 49
-197 68 -520 66 -153 -1 -227 2 -235 10 -11 11 -35 355 -36 522 -1 76 -4 88
-24 107 -26 25 -50 28 -66 9z"/>
<path d="M13800 6911 c-138 -42 -228 -198 -260 -452 -17 -135 -17 -135 -52
-174 -64 -73 -158 -95 -210 -48 -34 31 -66 96 -73 148 -19 149 -53 240 -99
270 -22 15 -27 15 -58 -1 -48 -25 -91 -64 -200 -182 -120 -129 -183 -175 -201
-144 -3 4 1 45 9 92 22 133 21 226 -3 258 -11 15 -27 28 -36 30 -48 10 -190
-196 -307 -443 -68 -144 -114 -215 -137 -215 -13 0 -15 8 -10 45 4 24 11 118
18 207 6 90 22 221 35 292 27 136 25 170 -8 206 -20 22 -21 22 -40 2 -26 -26
-56 -219 -63 -412 -3 -80 -10 -205 -16 -278 -13 -160 -6 -192 46 -192 55 0
131 68 192 170 12 19 64 121 117 226 96 192 128 245 142 232 4 -4 -3 -56 -15
-115 -27 -138 -27 -174 0 -199 29 -26 92 -24 149 4 62 30 127 87 238 209 57
62 101 103 113 103 10 0 19 -2 19 -4 0 -3 9 -54 21 -113 25 -129 43 -173 98
-235 83 -94 170 -97 262 -11 33 31 50 41 53 32 49 -155 137 -240 249 -239 84
1 154 40 272 152 71 67 116 131 102 145 -9 9 -11 7 -117 -79 -117 -94 -183
-128 -255 -128 -67 0 -101 17 -135 68 -22 31 -25 49 -28 131 -4 128 3 140 93
164 231 61 304 97 342 164 51 91 38 176 -37 253 -61 63 -134 84 -210 61z m143
-92 c43 -19 58 -78 36 -136 -13 -36 -64 -89 -98 -102 -65 -24 -233 -73 -237
-68 -9 9 17 89 48 150 66 133 167 195 251 156z"/>
<path d="M15813 6709 c-18 -5 -48 -24 -67 -43 -32 -30 -36 -39 -36 -84 0 -27
6 -65 14 -83 14 -33 13 -35 -16 -60 -26 -21 -32 -34 -36 -82 -12 -152 66 -266
219 -317 76 -26 125 -25 179 3 85 42 141 171 126 289 -32 246 -144 390 -299
387 -29 0 -66 -5 -84 -10z m135 -78 c46 -9 85 -39 109 -84 25 -49 53 -169 53
-232 0 -83 -15 -130 -56 -170 -30 -30 -41 -35 -82 -35 -48 0 -122 28 -155 58
-28 25 -57 87 -57 119 0 37 26 118 36 116 5 -1 17 -5 27 -8 13 -5 17 -2 17 13
0 12 -5 24 -10 27 -15 9 -40 73 -40 102 0 35 17 61 53 83 35 22 43 23 105 11z"/>
<path d="M7188 6690 c-46 -25 -75 -62 -89 -114 -10 -33 -8 -58 6 -129 9 -48
15 -94 11 -102 -18 -49 -224 43 -331 149 -49 48 -86 66 -136 66 -98 0 -202
-60 -346 -200 -48 -47 -116 -110 -150 -139 -67 -58 -78 -85 -45 -114 31 -28
60 -20 114 31 68 62 76 70 122 122 98 112 256 220 320 220 17 0 47 -21 92 -65
38 -35 96 -78 129 -95 66 -33 191 -70 241 -70 28 0 35 -7 77 -78 26 -45 68
-100 100 -129 52 -47 186 -126 252 -148 17 -5 35 -13 40 -16 6 -4 46 -17 90
-29 60 -17 96 -21 148 -17 37 2 71 7 74 11 16 16 -29 37 -122 56 -151 32 -191
48 -359 143 -52 29 -143 113 -161 148 -22 42 -11 54 61 68 96 17 140 38 179
84 31 36 35 47 35 96 0 93 -56 192 -137 242 -50 31 -166 36 -215 9z m190 -84
c52 -27 75 -62 80 -121 4 -54 3 -57 -35 -93 -42 -40 -121 -72 -179 -72 -44 0
-56 27 -56 125 1 85 11 114 52 148 36 31 94 36 138 13z"/>
<path d="M14771 6664 c-13 -10 -48 -69 -81 -138 -70 -149 -153 -299 -192 -348
-28 -36 -68 -51 -68 -26 0 20 50 229 76 314 29 98 30 126 6 147 -54 49 -78 -1
-132 -270 l-40 -197 22 -45 c28 -56 45 -66 93 -57 61 12 121 82 196 229 35 70
67 127 70 127 4 0 6 -37 5 -83 -1 -77 1 -87 28 -125 72 -105 225 -71 415 94
47 40 88 71 91 69 4 -2 5 -50 2 -107 -5 -122 7 -157 70 -218 38 -36 47 -40 93
-40 56 0 138 33 169 69 18 20 18 23 3 38 -15 15 -20 14 -68 -5 -64 -27 -130
-29 -151 -4 -37 42 -40 60 -28 163 11 87 10 104 -5 154 -26 82 -60 93 -119 39
-85 -80 -259 -195 -315 -209 -56 -15 -78 -10 -98 22 -15 23 -15 35 10 176 33
181 33 187 6 221 -24 31 -27 31 -58 10z"/>
<path d="M16750 6507 c-102 -88 -177 -169 -232 -251 -23 -34 -56 -79 -75 -102
-18 -23 -33 -50 -33 -61 0 -23 39 -63 63 -63 11 0 56 60 123 163 107 162 176
247 202 247 12 0 13 -14 8 -78 -8 -91 3 -132 53 -206 64 -93 206 -155 320
-141 31 4 78 16 106 26 49 18 153 85 189 122 44 43 59 3 31 -83 -8 -25 -23
-79 -34 -120 -10 -41 -29 -106 -41 -145 -28 -90 -46 -153 -70 -240 -42 -155
-125 -352 -225 -534 -58 -107 -72 -156 -45 -156 33 0 182 297 290 575 61 159
203 590 230 696 11 45 27 97 35 117 12 30 13 42 2 74 -21 67 -44 59 -160 -59
-83 -84 -117 -110 -180 -142 -140 -69 -275 -58 -363 29 -61 61 -67 116 -32
286 16 77 0 119 -46 119 -24 0 -50 -17 -116 -73z"/>
</g>
</svg>
