<?xml version="1.0" standalone="no"?>
<!DOCTYPE svg PUBLIC "-//W3C//DTD SVG 20010904//EN"
 "http://www.w3.org/TR/2001/REC-SVG-20010904/DTD/svg10.dtd">
<svg version="1.0" xmlns="http://www.w3.org/2000/svg"
 width="2448.000000pt" height="3264.000000pt" viewBox="0 0 2448.000000 3264.000000"
 preserveAspectRatio="xMidYMid meet">
<metadata>
Created by potrace 1.12, written by Peter Selinger 2001-2015
</metadata>
<g transform="translate(0.000000,3264.000000) scale(0.100000,-0.100000)"
fill="#000000" stroke="none">
<path d="M16079 32169 c-7 -15 -9 -46 -4 -92 l7 -70 -84 8 c-167 17 -1364 11
-1768 -9 -63 -3 -180 -8 -260 -11 -80 -3 -192 -10 -250 -15 -58 -5 -148 -12
-200 -15 -52 -3 -124 -10 -160 -15 -36 -5 -121 -17 -190 -26 -69 -9 -163 -22
-210 -30 -47 -9 -112 -20 -145 -25 -89 -15 -219 -43 -365 -79 -41 -10 -129
-30 -195 -45 -66 -15 -154 -36 -195 -46 -301 -77 -392 -98 -440 -104 -30 -4
-85 -15 -121 -26 -36 -10 -82 -19 -102 -19 -20 0 -66 -7 -104 -16 -37 -9 -84
-18 -103 -19 -19 -2 -82 -10 -140 -18 -58 -8 -148 -20 -200 -26 -97 -12 -287
-35 -420 -52 -41 -6 -104 -13 -140 -17 -73 -8 -90 -25 -90 -95 0 -30 5 -40 25
-49 17 -8 28 -8 37 0 28 23 378 82 638 107 36 3 90 10 120 15 30 5 109 16 175
25 66 9 155 25 199 36 43 10 88 19 99 19 23 0 212 44 522 122 714 178 1156
257 1601 283 28 2 113 8 190 14 551 41 2252 48 2326 10 49 -26 104 9 114 72 5
29 -1 43 -40 97 -25 34 -46 65 -46 70 0 11 -49 62 -60 62 -5 0 -14 -10 -21
-21z"/>
<path d="M13359 31000 c-92 -32 -193 -87 -221 -120 -11 -14 -15 -31 -11 -54 4
-27 -2 -47 -31 -96 -20 -34 -52 -107 -72 -163 -29 -84 -37 -125 -44 -227 -5
-69 -12 -135 -16 -148 -5 -16 0 -32 13 -50 12 -16 23 -52 27 -87 3 -33 15 -89
26 -125 l19 -63 -34 -39 c-67 -73 -84 -157 -66 -318 27 -243 63 -492 81 -558
32 -118 87 -214 159 -279 45 -41 78 -43 92 -6 14 38 -5 77 -60 120 -63 50 -67
56 -91 130 -16 51 -20 79 -15 136 3 40 2 110 -4 157 -17 139 -18 150 -31 273
-11 97 -16 117 -29 115 -13 -2 -17 8 -19 51 -3 60 12 91 24 47 3 -14 4 -38 2
-51 -3 -14 -1 -25 3 -25 5 0 9 7 9 15 0 14 35 92 46 104 3 3 28 -18 57 -46 83
-81 123 -97 242 -96 181 3 224 11 272 52 22 20 63 48 90 61 151 77 349 365
389 567 8 43 22 104 30 135 18 74 18 73 -10 86 -16 7 -26 22 -30 46 -4 20 -30
66 -58 103 -73 96 -255 276 -306 302 -50 26 -214 68 -293 76 -43 4 -71 -1
-140 -25z m219 -79 c33 -17 67 -29 97 -36 60 -13 232 -169 304 -275 37 -55
101 -165 101 -175 0 -13 -67 -34 -175 -54 -66 -13 -154 -31 -197 -42 -42 -10
-90 -19 -107 -19 -42 0 -63 34 -60 97 2 26 -4 75 -13 108 -17 64 -26 115 -32
180 -2 22 -12 65 -23 95 -23 69 -48 74 -71 16 -14 -37 -14 -49 7 -172 12 -73
32 -165 43 -206 11 -40 21 -89 22 -108 1 -34 0 -35 -44 -41 -25 -4 -94 -12
-155 -19 -60 -6 -121 -13 -135 -16 -17 -4 -34 1 -49 14 -24 18 -24 20 -12 98
32 217 85 334 228 502 22 26 41 36 88 46 72 16 159 19 183 7z m502 -598 c-1
-39 -48 -154 -105 -253 -45 -79 -81 -126 -146 -192 -87 -88 -120 -105 -134
-70 -4 9 -11 55 -15 102 -10 102 -45 220 -65 220 -8 0 -19 9 -26 21 -9 18 -7
25 15 48 22 23 38 28 123 38 88 11 131 24 228 68 79 37 125 43 125 18z m-556
-149 c3 -9 6 -29 6 -45 0 -25 37 -177 70 -289 5 -19 10 -49 10 -66 0 -28 -4
-31 -61 -48 -77 -23 -193 -18 -261 12 -50 22 -115 81 -135 122 -6 14 -26 66
-44 115 -18 50 -39 100 -47 113 -26 40 -2 50 143 61 72 6 153 17 180 25 70 20
131 20 139 0z"/>
<path d="M15076 31014 c-155 -37 -329 -169 -451 -339 -55 -76 -136 -240 -163
-326 -49 -157 -53 -329 -11 -492 32 -128 116 -267 160 -267 26 0 69 44 69 70
0 12 -18 42 -39 66 -21 25 -51 75 -66 112 -15 37 -31 76 -35 87 -24 58 -27
175 -9 295 23 151 137 370 254 486 108 108 266 204 336 204 34 0 66 -28 75
-66 9 -36 -2 -190 -16 -234 -37 -109 -130 -264 -246 -407 -23 -28 -45 -60 -48
-71 -4 -11 -20 -25 -36 -32 -41 -17 -100 -85 -100 -115 0 -37 36 -68 68 -61
64 14 275 26 367 20 312 -18 411 -80 374 -230 -22 -88 -103 -249 -163 -325
-12 -14 -28 -36 -36 -49 -57 -85 -119 -124 -200 -125 l-55 0 2 -49 c2 -57 16
-74 65 -82 52 -9 142 42 230 130 139 140 231 312 278 517 16 72 9 162 -14 188
-44 48 -230 122 -341 135 -22 2 -104 5 -182 5 l-142 1 -16 31 c-18 34 -7 59
25 59 22 0 96 78 143 153 20 31 37 60 37 64 0 3 13 27 28 52 32 51 62 142 61
181 -1 14 2 84 6 155 9 155 -6 213 -64 252 -39 26 -62 27 -145 7z"/>
<path d="M11275 30887 c-128 -128 -255 -383 -380 -762 -129 -389 -175 -504
-306 -771 -71 -144 -84 -178 -87 -230 -4 -58 -3 -62 28 -88 37 -30 61 -28 98
10 22 23 23 27 11 78 -12 53 -11 55 31 142 97 202 184 425 220 566 26 102 57
200 80 253 36 82 50 118 50 132 0 8 9 33 20 55 11 23 20 48 20 55 0 13 15 47
88 203 59 126 82 172 98 191 8 8 14 21 14 27 0 6 12 24 26 41 30 35 67 40 101
13 25 -20 106 -143 188 -287 79 -139 176 -286 196 -298 21 -13 69 0 69 18 0
20 -54 126 -119 235 -28 47 -51 90 -51 96 0 6 -13 29 -28 50 -16 21 -44 66
-63 99 -80 136 -170 225 -227 225 -15 0 -43 -20 -77 -53z"/>
<path d="M11965 30229 c-58 -15 -101 -34 -125 -57 -17 -16 -32 -21 -48 -17
-51 13 -211 6 -264 -11 -196 -64 -475 -179 -510 -211 -27 -24 -33 -78 -14
-108 20 -30 35 -31 67 -6 13 10 76 42 139 72 63 29 122 58 130 64 14 10 73 34
155 63 17 6 68 21 115 32 47 12 108 33 136 47 28 14 59 23 68 21 10 -1 27 -27
39 -58 13 -30 39 -82 59 -115 129 -215 154 -264 188 -368 24 -77 92 -84 106
-11 9 46 -7 96 -50 161 -19 29 -52 85 -74 125 -21 40 -60 108 -86 150 -58 94
-59 129 -8 139 44 9 56 22 48 53 -8 32 -33 45 -71 35z"/>
<path d="M16440 29952 c-32 -26 -36 -90 -16 -247 35 -282 56 -511 61 -681 3
-99 7 -224 9 -280 3 -99 11 -127 42 -158 21 -22 29 -20 59 10 24 24 26 32 21
78 -12 93 -19 180 -18 221 0 22 1 49 0 60 0 25 1 61 2 78 3 25 -10 353 -15
377 -8 43 -37 391 -39 459 -1 60 -3 65 -31 82 -39 23 -48 23 -75 1z"/>
<path d="M7574 27506 l-34 -34 0 -153 c0 -186 24 -553 45 -698 8 -58 24 -169
36 -246 11 -77 26 -194 34 -260 7 -67 16 -132 19 -145 11 -48 34 -305 81 -910
8 -107 20 -242 25 -300 6 -58 24 -271 41 -475 16 -203 34 -392 39 -420 6 -27
8 -55 6 -61 -4 -10 -69 -24 -121 -26 -11 -1 -132 2 -270 5 -323 9 -406 16
-865 76 -201 26 -409 42 -805 61 -121 6 -285 15 -365 20 -80 5 -201 12 -270
15 -274 12 -662 32 -775 40 -33 3 -159 11 -280 20 -121 8 -229 17 -240 20 -11
2 -60 7 -110 10 -49 3 -124 11 -165 16 -41 6 -148 12 -237 14 -89 2 -168 7
-174 11 -7 4 -31 9 -53 10 -23 2 -97 8 -166 13 -148 13 -518 17 -610 7 -36 -4
-116 -14 -178 -22 -62 -8 -142 -14 -178 -14 -51 0 -68 -4 -84 -20 -27 -27 -25
-46 5 -66 22 -15 38 -15 143 -5 64 7 137 15 162 18 52 8 71 10 164 17 37 3 73
10 80 15 18 15 196 23 212 10 8 -6 25 -8 38 -5 14 3 27 2 30 -3 3 -5 22 -9 41
-9 31 0 35 2 29 21 -5 17 -3 19 12 12 11 -4 29 -10 42 -12 12 -3 22 -9 22 -13
0 -14 48 -20 74 -10 18 6 33 5 56 -7 31 -15 32 -14 59 15 25 28 30 30 65 22
21 -5 45 -6 52 -3 18 7 43 -14 55 -44 7 -20 16 -23 59 -23 28 0 59 -4 69 -9
10 -6 63 -11 117 -12 55 -1 125 -5 154 -10 30 -4 87 -10 125 -13 212 -16 342
-26 445 -35 63 -6 178 -13 255 -16 77 -3 203 -9 280 -15 77 -5 223 -14 325
-20 458 -26 540 -31 610 -35 41 -3 172 -10 290 -15 259 -12 340 -18 445 -31
44 -5 123 -14 175 -20 52 -5 118 -14 145 -19 48 -8 112 -16 355 -44 63 -7 222
-14 352 -15 204 -3 239 -1 244 12 7 20 110 12 175 -14 29 -11 70 -17 110 -17
35 1 75 -4 88 -12 36 -19 386 -39 688 -40 144 0 317 -5 385 -10 329 -27 637
-36 988 -27 195 5 733 10 1195 11 856 3 966 5 1370 32 573 37 711 39 2105 32
934 -5 1121 -3 1670 21 135 6 436 13 670 16 826 10 966 18 1071 64 78 34 113
85 89 130 -13 24 -41 27 -73 7 -36 -24 -166 -54 -257 -60 -47 -3 -278 -8 -515
-11 -410 -5 -642 -10 -840 -20 -49 -2 -169 -7 -265 -10 -96 -3 -213 -8 -260
-10 -387 -19 -1314 -23 -2104 -10 -440 7 -523 6 -1056 -20 -47 -2 -116 -7
-155 -10 -507 -38 -526 -39 -1390 -39 -473 -1 -865 -5 -872 -9 -27 -17 -1140
-6 -1318 13 -49 6 -290 11 -533 13 l-444 3 -18 24 c-12 15 -17 34 -13 47 3 16
0 25 -11 29 -23 9 -177 -27 -183 -43 -7 -19 -31 -16 -42 5 -5 10 -9 58 -9 107
0 79 -4 141 -26 405 -7 83 -17 215 -22 305 -3 44 -11 143 -19 220 -8 77 -15
170 -15 207 0 37 -4 100 -10 140 -5 40 -14 136 -20 213 -14 196 -48 538 -60
615 -22 141 -38 256 -38 275 0 11 -5 52 -12 90 -61 378 -86 800 -62 1042 10
99 -4 142 -46 143 -8 0 -29 -15 -48 -34z"/>
<path d="M24474 27155 c0 -60 1 -84 3 -52 2 32 2 81 0 110 -2 29 -3 3 -3 -58z"/>
<path d="M24471 26944 c0 -11 3 -14 6 -6 3 7 2 16 -1 19 -3 4 -6 -2 -5 -13z"/>
<path d="M24470 26903 c-7 -105 -6 -664 1 -668 5 -4 9 122 9 334 0 188 -2 341
-5 341 -3 0 -5 -3 -5 -7z"/>
<path d="M14540 26393 c-201 -15 -390 -113 -513 -263 -94 -115 -202 -362 -238
-545 -9 -47 -14 -142 -14 -285 1 -184 4 -231 24 -325 44 -212 114 -383 176
-431 69 -52 121 -24 211 111 56 86 67 131 44 176 -25 46 -61 18 -129 -99 -53
-91 -71 -93 -116 -12 -76 137 -126 491 -110 775 10 171 19 210 85 356 94 209
206 328 367 394 139 56 326 49 455 -16 65 -33 62 -80 -9 -152 -40 -42 -245
-197 -288 -218 -16 -9 -39 -20 -50 -26 -74 -38 -164 -71 -230 -83 -33 -7 -70
-14 -82 -16 -28 -5 -93 -61 -93 -80 0 -8 -5 -22 -11 -32 -29 -46 67 -150 231
-252 47 -29 108 -68 136 -85 28 -18 75 -43 105 -56 30 -13 71 -33 91 -46 21
-13 41 -23 45 -23 4 0 26 -9 50 -20 24 -11 62 -29 86 -40 24 -11 49 -20 55
-20 7 0 34 -11 60 -24 49 -24 162 -65 317 -113 110 -34 232 -37 274 -6 33 25
45 47 38 67 -5 13 -23 16 -99 16 -118 0 -189 17 -383 87 -180 65 -516 225
-665 316 -41 25 -96 57 -121 71 -48 26 -109 87 -109 110 0 28 39 44 145 60 61
9 121 25 135 34 35 23 62 40 80 48 73 33 105 51 170 92 114 71 188 130 236
190 40 49 44 59 44 107 0 30 -4 57 -10 60 -5 3 -10 15 -10 26 0 53 -144 150
-242 163 -27 3 -58 7 -70 9 -13 2 -43 2 -68 0z"/>
<path d="M2857 26369 c-137 -72 -278 -419 -361 -884 -39 -221 -46 -294 -52
-552 -5 -237 -5 -242 15 -253 36 -18 158 29 184 71 17 27 -16 69 -53 69 -16 0
-32 5 -35 10 -4 6 -6 80 -6 165 2 139 15 284 41 435 6 30 14 84 20 120 20 136
75 365 104 432 13 30 47 117 76 196 14 37 83 112 103 112 8 0 23 -10 34 -22
23 -24 30 -41 89 -208 31 -89 84 -232 220 -595 12 -33 31 -81 43 -108 11 -26
18 -54 15 -62 -5 -13 -61 -35 -89 -35 -5 0 -28 -9 -50 -20 -22 -11 -89 -44
-150 -73 -130 -63 -219 -113 -235 -132 -6 -7 -13 -28 -16 -47 -5 -25 -1 -38
15 -52 26 -24 54 -17 113 28 77 59 442 245 455 232 2 -2 -1 -44 -7 -95 -11
-100 -4 -131 31 -131 28 0 69 44 69 74 0 14 -7 57 -15 97 -9 40 -12 76 -8 80
5 4 53 24 108 43 150 54 166 66 150 116 -11 36 -99 22 -213 -35 -65 -31 -74
-26 -97 52 -9 31 -39 115 -66 187 -67 175 -146 396 -171 476 -34 113 -91 254
-112 278 -25 28 -68 52 -93 52 -10 -1 -35 -10 -56 -21z"/>
<path d="M12432 26337 c-16 -17 -28 -57 -47 -152 -13 -72 -31 -164 -39 -205
-22 -110 -33 -192 -56 -420 -38 -373 -75 -652 -94 -708 -20 -56 -38 -46 -62
33 -32 102 -44 176 -32 199 8 15 7 22 -7 32 -12 9 -16 21 -12 36 4 12 0 52 -8
88 -9 36 -26 112 -39 170 -13 58 -36 138 -50 177 -14 40 -26 83 -26 95 -1 13
-7 34 -15 48 -8 14 -14 35 -15 48 0 28 -23 102 -31 102 -4 0 -7 20 -7 44 -1
41 -40 132 -73 173 -35 41 -79 -13 -131 -164 -40 -117 -203 -836 -260 -1153
-28 -156 -29 -331 -1 -369 28 -37 56 -38 82 -2 19 27 20 34 10 82 -23 105 1
283 86 654 13 61 30 135 36 165 6 30 14 71 19 90 5 19 11 60 15 90 4 30 11 63
16 72 9 16 29 134 34 194 5 62 18 119 32 147 20 40 45 31 56 -18 48 -216 224
-902 247 -967 17 -46 42 -113 55 -150 40 -114 57 -135 105 -128 39 5 44 22 97
325 14 83 27 166 28 185 4 39 21 170 36 270 16 104 18 128 24 260 3 69 17 186
30 261 14 75 25 147 25 160 0 13 10 66 21 117 17 73 19 98 11 118 -14 30 -32
31 -60 1z"/>
<path d="M10689 26187 c-15 -12 -44 -49 -65 -82 -21 -33 -72 -102 -113 -153
-131 -161 -148 -183 -270 -348 -66 -88 -139 -193 -161 -232 -23 -40 -46 -75
-52 -78 -14 -9 -38 24 -84 110 -20 37 -64 109 -98 160 -34 50 -111 163 -171
251 -59 88 -118 174 -130 190 -13 17 -34 55 -48 86 -25 55 -76 109 -103 109
-22 0 -47 -47 -41 -78 6 -28 82 -144 215 -327 86 -119 163 -229 252 -361 36
-53 86 -123 113 -155 26 -32 47 -62 47 -67 0 -5 -25 -47 -56 -93 -140 -212
-285 -568 -283 -699 0 -81 18 -125 49 -125 20 0 26 6 28 28 3 23 6 26 18 16 8
-6 18 -9 22 -5 9 10 9 145 -1 149 -16 5 15 115 65 232 104 244 215 445 350
635 29 42 84 121 122 175 39 55 96 132 127 170 55 68 93 119 146 200 15 22 48
65 73 95 26 30 66 83 89 116 37 53 42 64 32 83 -15 27 -39 26 -72 -2z"/>
<path d="M24465 26201 c-3 -5 -10 -168 -15 -363 -5 -194 -12 -420 -15 -503 -7
-174 -12 -373 -20 -745 -3 -146 -8 -321 -11 -390 -6 -164 -11 -335 -19 -727
-4 -177 -9 -335 -11 -350 -5 -30 -14 -410 -14 -558 0 -49 0 -99 0 -110 -2 -75
-10 -286 -14 -365 -5 -104 -14 -435 -21 -825 -8 -382 -14 -605 -20 -770 -3
-82 -5 -168 -5 -190 3 -71 3 -79 -4 -165 -4 -47 -9 -179 -11 -295 -2 -115 -7
-246 -9 -290 -13 -187 -21 -433 -31 -905 -3 -129 -7 -291 -10 -360 -3 -69 -7
-213 -10 -320 -2 -107 -7 -283 -9 -390 -3 -107 -8 -330 -11 -495 -11 -621 -20
-976 -30 -1225 -6 -156 -6 -321 1 -332 2 -3 0 -18 -6 -33 -6 -16 -12 -185 -15
-412 -3 -212 -8 -389 -11 -394 -3 -5 -7 -109 -9 -232 -2 -122 -6 -301 -9 -397
-3 -96 -8 -290 -11 -430 -3 -140 -7 -336 -10 -435 -3 -99 -7 -265 -10 -370 -8
-292 -15 -587 -20 -840 -2 -126 -7 -291 -10 -365 -3 -74 -5 -173 -5 -220 1
-47 -4 -220 -9 -385 -6 -165 -13 -417 -16 -560 -3 -143 -8 -363 -11 -490 -11
-432 -6 -1009 9 -1053 6 -14 3 -33 -8 -54 -14 -29 -14 -34 -1 -44 9 -6 14 -13
11 -16 -7 -7 -15 -130 -16 -238 -1 -52 -6 -103 -11 -114 -7 -13 -6 -21 3 -27
11 -7 12 -12 2 -29 -19 -29 -17 -51 5 -43 14 5 15 4 6 -8 -16 -20 -34 -120
-28 -155 7 -38 6 -52 -2 -92 -4 -20 -2 -43 5 -56 8 -14 9 -30 3 -45 -5 -13 -5
-49 1 -83 6 -42 5 -63 -3 -73 -6 -8 -9 -19 -5 -25 11 -18 6 -192 -6 -206 -5
-7 -9 -36 -8 -66 1 -29 -1 -78 -4 -108 -3 -30 -9 -107 -12 -170 -3 -63 -8
-135 -10 -160 -3 -25 -8 -97 -10 -160 -4 -99 -12 -283 -14 -330 -1 -8 -1 -60
-1 -115 -1 -102 -6 -277 -15 -510 -3 -71 -7 -245 -11 -385 -3 -140 -8 -302
-10 -360 -2 -58 -4 -130 -4 -160 0 -30 0 -118 0 -194 -1 -77 -3 -143 -6 -148
-3 -5 -5 -44 -4 -86 2 -94 3 -53 -4 -382 -15 -664 -17 -795 -19 -960 -1 -96
-6 -181 -10 -187 -4 -7 -3 -21 2 -31 6 -11 6 -23 1 -28 -4 -5 -5 -29 -1 -54 4
-25 4 -57 0 -72 -3 -14 -5 -63 -3 -109 2 -46 3 -100 2 -119 -5 -102 -1 -539 5
-566 6 -22 4 -36 -6 -45 -9 -10 -13 -32 -10 -69 1 -29 -1 -69 -6 -87 -6 -20
-6 -35 0 -39 6 -3 7 -34 4 -72 -4 -37 -6 -74 -5 -82 3 -37 -1 -354 -4 -358 -3
-2 -1 -14 4 -26 5 -13 4 -60 -1 -107 -5 -46 -9 -100 -8 -119 2 -36 2 -300 0
-430 -1 -41 -1 -84 -1 -95 0 -11 -3 -108 -6 -215 -5 -211 -5 -204 0 -303 2
-37 -1 -70 -5 -73 -21 -13 -6 -24 31 -24 25 0 40 5 41 13 0 6 2 28 5 47 2 19
6 161 8 315 2 165 8 294 14 314 7 19 8 41 3 50 -8 16 -6 382 5 736 7 235 8
592 1 663 -3 28 -1 82 4 120 9 60 19 456 16 637 0 39 0 84 2 100 1 17 3 134 5
260 1 127 6 251 11 277 5 34 4 52 -5 63 -7 9 -9 22 -5 32 8 17 15 247 19 563
0 85 5 161 10 168 5 9 3 24 -4 38 -9 17 -10 31 -3 46 5 13 9 93 8 178 -1 85 1
160 4 165 3 6 6 152 7 325 2 297 5 364 20 468 3 23 2 48 -3 55 -6 6 -9 37 -7
67 2 30 6 127 9 215 3 88 7 203 9 255 2 52 0 103 -5 112 -6 10 -5 28 2 45 6
15 12 89 14 163 7 377 17 668 22 690 11 45 12 713 1 742 -7 20 -6 32 6 50 12
18 15 63 17 229 1 114 -1 211 -5 217 -4 7 -3 20 2 29 5 10 12 37 15 61 4 36 2
44 -16 53 -19 11 -19 12 -3 24 14 11 18 32 20 113 2 54 9 108 14 119 6 10 7
24 4 30 -7 12 -7 137 2 388 3 72 7 213 10 315 3 102 8 257 12 345 6 158 13
396 13 445 -2 76 3 354 7 475 4 133 5 173 4 213 0 9 2 51 4 92 6 105 18 630
22 975 8 611 8 621 23 638 11 14 11 20 0 33 -14 17 -14 240 0 259 4 5 5 44 2
85 -8 93 -6 188 3 217 4 13 9 121 11 240 3 120 7 292 10 383 3 91 5 248 5 350
0 102 4 202 9 223 5 20 6 39 2 42 -11 6 -3 308 8 337 6 15 6 29 0 35 -5 5 -5
32 1 68 6 33 7 94 4 137 -4 42 -3 81 0 87 4 6 9 116 11 243 5 222 13 633 20
913 2 72 6 198 10 280 3 83 8 422 10 755 2 333 6 617 9 632 2 16 0 30 -5 34
-5 3 -7 15 -4 27 15 64 24 241 15 288 -7 35 -7 56 0 64 6 7 8 25 4 39 -3 14
-2 26 3 26 5 0 9 124 9 283 1 174 5 300 12 329 8 31 9 56 2 72 -6 16 -5 47 1
86 7 43 6 66 -2 81 -8 16 -8 27 2 45 7 13 9 27 6 31 -4 3 -2 12 4 19 7 9 7 19
-1 35 -13 24 -7 120 12 178 8 25 7 39 -2 56 -8 16 -10 43 -6 82 3 32 8 108 10
168 3 61 5 110 6 110 0 0 2 48 4 106 2 59 10 117 16 130 10 18 10 24 -3 34
-11 8 -13 20 -8 50 4 22 4 54 -1 70 -5 18 -3 52 3 85 14 64 19 199 9 205 -13
8 -8 119 7 155 12 30 12 36 -1 45 -10 8 -13 22 -9 51 4 21 7 129 8 239 0 110
3 248 4 307 2 58 0 111 -4 117 -3 6 -1 27 5 47 8 23 8 39 2 47 -16 19 -20 111
-5 122 11 9 20 86 12 110 -1 6 1 20 5 33 6 17 3 29 -9 43 -15 15 -15 21 -5 34
7 8 10 27 7 42 -3 14 0 39 5 55 7 20 7 32 -1 42 -6 7 -8 16 -4 19 3 4 7 28 9
54 3 48 4 76 4 298 0 138 9 418 16 519 3 42 0 73 -6 81 -8 9 -8 20 -2 32 5 10
10 115 11 233 1 179 5 316 13 500 1 14 0 52 -2 85 -1 33 1 161 5 285 9 274 19
1830 11 1830 -2 0 -7 -4 -11 -9z"/>
<path d="M6129 25920 c-42 -11 -124 -53 -152 -78 -39 -35 -128 -163 -157 -225
-96 -208 -79 -383 69 -711 46 -101 128 -232 182 -292 26 -29 55 -64 64 -77 8
-13 31 -33 50 -43 26 -14 38 -29 46 -57 13 -48 57 -69 144 -70 88 -1 203 57
313 157 107 97 222 237 282 342 56 96 77 253 46 328 -29 70 -159 131 -366 171
-87 17 -120 35 -120 65 0 10 11 48 25 84 27 72 32 153 14 221 -14 53 -108 143
-175 169 -56 21 -209 30 -265 16z m237 -119 c22 -10 57 -38 77 -61 34 -40 37
-49 37 -102 0 -60 -32 -154 -71 -210 -24 -33 -28 -103 -7 -125 10 -9 46 -18
95 -23 83 -9 141 -23 288 -71 114 -38 135 -53 142 -106 13 -96 -101 -278 -281
-450 -120 -115 -217 -173 -291 -173 -27 0 -55 4 -61 8 -7 4 -11 56 -12 137 -1
143 -16 215 -87 415 -51 142 -115 366 -115 401 0 15 -7 60 -15 100 -18 85 -12
134 22 170 17 19 22 33 18 51 -11 43 18 55 140 57 58 0 91 -5 121 -18z m-306
-70 c0 -11 -8 -26 -18 -33 -23 -18 -70 -81 -81 -111 -12 -30 9 -192 38 -300
23 -85 117 -353 151 -432 25 -56 50 -146 50 -175 0 -58 -73 15 -150 150 -138
241 -199 442 -185 604 10 114 34 170 108 249 64 69 87 81 87 48z"/>
<path d="M12995 25884 c-74 -11 -195 -59 -248 -96 -18 -13 -66 -57 -108 -98
-61 -61 -78 -84 -89 -124 -12 -42 -11 -53 1 -75 16 -29 48 -34 59 -11 4 8 22
48 41 88 27 58 44 81 90 117 32 25 62 45 67 45 5 0 35 11 67 26 152 67 366 26
489 -94 119 -115 151 -309 85 -527 -43 -144 -169 -367 -250 -442 -30 -28 -127
-72 -174 -80 -47 -8 -111 18 -156 61 -44 44 -65 114 -86 291 -17 146 -10 217
28 311 l22 53 -26 41 c-47 70 -81 49 -119 -74 -18 -61 -20 -85 -15 -220 8
-247 65 -417 168 -510 83 -75 210 -89 317 -35 128 63 211 169 333 419 73 151
114 386 89 522 -12 66 -55 170 -88 213 -36 45 -138 128 -194 156 -79 40 -208
58 -303 43z"/>
<path d="M4257 25310 c-43 -51 -45 -114 -17 -555 18 -281 37 -400 71 -442 6
-7 27 -13 45 -13 43 0 52 28 31 102 -33 114 -40 189 -53 559 -6 176 -5 199 11
233 23 48 23 87 1 120 -23 35 -58 34 -89 -4z"/>
<path d="M5262 25273 c4 -20 30 -28 56 -18 16 6 15 8 -2 21 -28 20 -58 18 -54
-3z"/>
<path d="M10077 25133 c-29 -29 51 -165 279 -474 55 -74 133 -180 174 -236 41
-56 86 -106 99 -112 34 -16 58 -5 65 30 8 43 -17 90 -59 113 -43 23 -81 69
-168 201 -36 55 -78 115 -93 133 -14 18 -54 74 -88 125 -83 125 -106 157 -140
195 -28 30 -55 40 -69 25z"/>
<path d="M7505 25026 c-30 -46 -35 -127 -19 -354 9 -119 17 -293 20 -387 4
-143 7 -172 21 -182 25 -19 39 -16 64 15 22 27 22 27 13 317 -5 160 -9 346
-10 415 -1 161 -1 157 -24 180 -26 26 -46 25 -65 -4z"/>
<path d="M3195 24010 c3 -5 17 -10 31 -10 13 0 24 5 24 10 0 6 -14 10 -31 10
-17 0 -28 -4 -24 -10z"/>
<path d="M3820 23709 c-118 -65 -248 -244 -335 -459 -48 -118 -64 -188 -74
-325 -22 -296 74 -517 256 -588 206 -80 390 -51 654 101 96 56 251 214 379
388 35 48 41 56 73 116 34 61 88 271 90 348 1 50 -30 137 -67 190 -42 59 -56
93 -49 119 8 30 -17 54 -88 86 -119 53 -325 42 -529 -29 -114 -39 -309 -162
-383 -241 -54 -57 -64 -117 -21 -123 15 -2 27 9 47 47 42 76 107 133 210 184
187 91 293 120 440 118 160 -3 167 -3 167 -18 0 -7 12 -13 28 -13 20 -1 37
-14 70 -54 53 -68 81 -148 89 -256 5 -72 1 -100 -21 -185 -45 -168 -113 -276
-272 -432 -128 -124 -242 -203 -364 -251 -138 -55 -275 -64 -392 -26 -57 18
-141 91 -169 145 -53 105 -75 324 -49 484 46 277 215 560 380 638 25 12 47 23
49 24 2 1 -2 9 -9 18 -17 20 -68 18 -110 -6z"/>
<path d="M7888 23606 c-4 -40 10 -185 42 -416 23 -170 27 -202 64 -490 46
-356 66 -619 86 -1120 30 -741 50 -971 144 -1665 82 -604 139 -1054 201 -1600
14 -121 32 -276 41 -345 24 -200 44 -402 59 -590 7 -96 16 -197 20 -225 3 -27
14 -171 25 -320 23 -311 29 -386 64 -775 14 -157 33 -361 41 -455 20 -228 35
-380 41 -435 2 -25 7 -94 10 -155 3 -60 7 -116 9 -123 3 -7 12 -120 20 -250
20 -312 23 -370 35 -544 5 -80 12 -200 15 -265 3 -65 10 -152 15 -193 4 -41 9
-129 10 -195 1 -65 3 -122 6 -126 6 -10 19 -242 29 -504 3 -77 10 -189 15
-250 6 -60 15 -245 20 -410 6 -169 16 -333 24 -375 8 -41 23 -128 34 -192 22
-126 26 -138 47 -138 15 0 39 36 31 48 -12 21 -43 354 -51 562 -3 80 -10 233
-15 340 -5 107 -12 260 -15 340 -6 135 -11 230 -35 640 -5 85 -12 229 -15 320
-3 91 -8 172 -10 180 -3 8 -11 143 -20 300 -15 294 -26 469 -45 720 -21 294
-18 253 -55 665 -9 94 -22 240 -30 325 -9 85 -22 245 -30 355 -8 110 -19 252
-25 316 -5 64 -12 141 -14 170 -3 30 -8 97 -11 149 -10 151 -43 518 -65 730
-11 107 -25 238 -30 290 -6 52 -15 136 -20 185 -6 50 -15 128 -20 175 -4 47
-13 114 -19 150 -6 36 -11 83 -12 105 -1 22 -5 67 -10 100 -4 33 -10 83 -13
110 -3 28 -10 88 -16 135 -5 47 -14 130 -21 185 -6 55 -15 125 -19 155 -5 30
-16 116 -25 190 -9 74 -32 250 -51 390 -51 382 -63 469 -69 535 -3 33 -12 114
-20 180 -27 239 -35 322 -40 445 -3 69 -8 136 -10 150 -2 14 -9 149 -15 300
-6 151 -12 316 -15 365 -2 50 -7 153 -10 230 -7 178 -19 315 -57 645 -33 290
-32 282 -47 378 -6 37 -17 123 -26 192 -46 356 -62 430 -95 430 -10 0 -25 3
-33 6 -11 4 -16 -4 -19 -30z"/>
<path d="M8121 23591 c-58 -58 24 -97 103 -50 59 35 49 50 -41 64 -34 5 -45 3
-62 -14z"/>
<path d="M10946 23393 c-43 -53 -67 -173 -70 -348 -4 -197 25 -816 48 -1048 5
-48 31 -77 67 -77 49 0 53 54 27 310 -28 259 -39 454 -41 685 -1 204 1 225 22
290 44 136 45 140 25 182 -11 21 -26 39 -34 41 -8 1 -28 -14 -44 -35z"/>
<path d="M6213 23258 c-179 -27 -368 -175 -453 -353 -64 -135 -75 -190 -74
-360 0 -142 2 -155 31 -238 41 -114 69 -161 135 -224 67 -62 109 -84 224 -117
170 -47 368 -43 522 11 80 28 209 101 257 145 17 15 34 28 38 28 11 0 175 167
205 208 70 96 130 290 118 387 -9 76 -39 148 -93 218 -25 33 -46 71 -48 85 -1
14 -13 34 -26 45 -13 10 -37 29 -54 42 -37 30 -106 52 -210 67 -119 16 -314
-19 -405 -73 -8 -5 -45 -24 -82 -43 -156 -79 -330 -216 -344 -271 -14 -58 41
-63 79 -7 96 137 473 341 588 318 15 -3 29 -2 33 1 9 9 70 12 81 3 6 -4 30
-11 55 -14 25 -3 56 -8 70 -10 14 -3 28 -5 33 -5 4 -1 43 -37 88 -82 107 -107
141 -177 147 -302 3 -58 1 -92 -7 -100 -6 -6 -11 -20 -11 -31 -2 -90 -167
-301 -315 -403 -64 -45 -215 -117 -285 -137 -120 -35 -308 -37 -410 -5 -104
33 -209 117 -247 199 -104 224 -83 556 47 731 99 131 248 216 404 228 84 6
103 20 64 44 -30 19 -91 25 -155 15z"/>
<path d="M4675 20685 c-5 -2 -30 -9 -54 -15 -107 -28 -242 -223 -187 -269 8
-7 30 -11 48 -9 32 3 33 5 44 66 16 88 49 125 119 130 125 10 150 7 226 -29
152 -73 244 -194 269 -356 18 -113 -16 -233 -97 -348 -45 -65 -271 -283 -363
-351 -119 -88 -305 -197 -393 -230 -133 -50 -179 -58 -332 -58 -144 -1 -153 0
-218 28 -204 86 -328 375 -269 626 42 178 77 260 167 385 107 149 263 269 397
305 101 28 159 30 240 10 118 -31 135 -26 123 30 -10 45 -49 60 -168 67 -96 5
-108 4 -195 -26 -156 -52 -319 -173 -440 -328 -58 -74 -132 -187 -132 -202 0
-4 -9 -26 -20 -48 -11 -23 -32 -77 -47 -120 -25 -71 -27 -91 -27 -228 -1 -137
1 -156 25 -220 30 -82 106 -201 163 -257 154 -147 458 -169 740 -52 154 64
341 175 511 304 125 95 309 289 363 383 36 63 62 173 62 262 -1 153 -37 252
-128 354 -26 29 -57 64 -68 79 -12 15 -45 35 -75 46 -29 10 -64 26 -78 37 -41
29 -164 49 -206 34z"/>
<path d="M6810 20591 c-5 -11 -10 -64 -10 -118 0 -62 -10 -148 -25 -233 -34
-180 -56 -399 -55 -540 1 -109 36 -576 45 -590 2 -3 6 -60 10 -125 15 -295 40
-448 90 -545 20 -39 74 -82 99 -78 34 5 31 50 -8 144 -60 144 -67 201 -107
949 -14 267 -5 467 33 685 37 219 47 297 48 382 0 57 -3 69 -19 78 -33 17 -89
12 -101 -9z"/>
<path d="M10667 20436 c-46 -17 -123 -76 -205 -157 -247 -245 -346 -651 -252
-1044 66 -281 192 -485 359 -583 100 -58 268 -80 396 -52 183 41 406 184 569
365 171 191 234 376 223 660 -3 77 -10 154 -16 170 -5 17 -22 70 -38 119 -27
86 -63 154 -106 204 -11 12 -17 22 -13 22 18 0 68 -44 83 -73 9 -18 18 -27 20
-20 5 15 -21 56 -71 113 -99 110 -182 155 -316 170 -314 36 -699 -156 -918
-457 -20 -28 -47 -56 -60 -62 -36 -17 -26 -56 13 -56 25 0 37 11 80 68 28 37
64 76 80 86 17 11 47 37 68 60 63 66 235 172 347 213 152 55 381 86 418 57 9
-8 35 -21 57 -28 49 -17 125 -76 171 -133 135 -170 164 -579 56 -809 -49 -103
-86 -159 -157 -236 -148 -161 -328 -280 -485 -319 -37 -10 -107 -17 -160 -17
-137 -1 -191 22 -292 124 -108 108 -166 230 -208 434 -5 22 -14 54 -21 70 -16
40 -22 340 -8 435 23 170 94 302 243 453 97 98 199 157 272 157 49 0 54 11 25
49 -23 29 -98 38 -154 17z"/>
<path d="M11693 20013 c3 -10 15 -45 27 -78 12 -33 28 -89 35 -124 19 -87 39
-106 32 -30 -5 57 -52 213 -70 237 -14 18 -30 15 -24 -5z"/>
<path d="M7152 17613 c2 -17 10 -29 21 -31 15 -3 18 2 15 25 -2 17 -10 29 -21
31 -15 3 -18 -2 -15 -25z"/>
<path d="M6955 17108 c-175 -63 -383 -429 -402 -709 -14 -210 64 -377 211
-449 160 -79 378 -78 610 2 194 66 414 245 491 398 37 74 38 76 31 162 -5 75
-4 86 9 82 20 -8 20 28 0 66 -20 38 -39 40 -31 3 l7 -28 -20 25 c-31 38 -45
69 -37 77 4 5 14 -1 22 -11 20 -28 24 -17 11 28 -7 23 -35 65 -65 97 -44 48
-66 63 -130 87 -137 53 -219 66 -367 58 -170 -8 -237 -24 -281 -67 -43 -42
-52 -73 -29 -99 23 -26 28 -25 67 8 18 16 54 39 79 52 42 20 56 22 145 17 55
-3 137 -11 184 -16 47 -6 106 -13 131 -16 52 -6 155 -53 183 -84 23 -25 18
-26 -29 -4 -49 23 -54 10 -13 -35 53 -59 81 -125 86 -207 4 -58 1 -78 -16
-112 -58 -112 -223 -267 -352 -329 -113 -54 -137 -63 -241 -84 -128 -25 -224
-25 -325 0 -89 23 -143 56 -185 115 -56 78 -67 277 -23 424 19 65 52 138 65
147 5 3 9 14 9 25 0 10 7 27 16 37 35 39 73 108 68 124 -4 14 40 77 69 99 4 3
52 16 107 29 106 24 115 33 90 81 -9 15 -21 19 -63 18 -29 0 -65 -5 -82 -11z"/>
<path d="M4387 17073 c-8 -10 -18 -34 -22 -54 -7 -36 -5 -39 40 -77 18 -15 16
38 20 -597 2 -542 7 -657 30 -839 14 -113 29 -144 61 -132 15 6 16 15 9 69
-10 85 -16 242 -14 432 1 88 1 180 1 205 0 82 -1 235 -2 260 -1 14 -1 129 -2
255 l0 230 56 0 c30 0 57 5 58 10 1 6 -19 20 -45 32 -40 20 -47 27 -47 52 0
17 -4 32 -9 36 -5 3 -15 22 -22 43 -27 83 -75 115 -112 75z"/>
<path d="M10900 17005 c-112 -29 -221 -79 -273 -125 -45 -39 -112 -149 -126
-205 -5 -22 -23 -71 -39 -110 -160 -381 -195 -720 -97 -941 51 -116 173 -214
310 -250 226 -61 566 73 796 313 80 83 157 183 198 254 107 191 139 514 66
659 -15 29 -24 58 -21 65 3 8 -4 25 -15 38 -10 14 -19 32 -19 41 0 9 -39 54
-87 101 -66 63 -107 94 -163 121 -142 68 -355 84 -530 39z m278 -87 c30 -5 56
-7 59 -4 7 6 92 -26 169 -65 121 -62 194 -150 244 -294 57 -165 21 -400 -91
-588 -93 -156 -282 -342 -420 -412 -182 -93 -400 -118 -526 -61 -67 31 -155
114 -185 175 -21 43 -23 59 -23 236 0 149 4 205 18 260 10 39 23 90 29 115 6
25 15 49 19 55 5 5 9 17 9 28 0 41 124 307 172 368 15 20 28 48 28 61 0 14 8
32 18 41 20 18 100 54 151 67 20 5 59 16 86 24 53 16 142 14 243 -6z"/>
<path d="M7878 14573 c-9 -10 -23 -43 -33 -73 -15 -46 -18 -94 -20 -306 -1
-258 -5 -284 -41 -284 -18 0 -18 -34 1 -50 16 -14 14 -47 -15 -245 -17 -114
-44 -313 -70 -515 -14 -111 -89 -624 -95 -646 -11 -47 -35 -257 -47 -402 -25
-324 33 -687 106 -659 16 6 17 16 11 90 -13 148 -14 288 -4 471 14 248 16 268
34 376 20 119 32 223 39 320 3 41 12 102 20 135 21 80 52 303 97 680 6 55 16
118 21 140 5 22 13 60 17 85 4 25 10 50 14 57 14 22 21 196 18 426 -2 191 0
236 14 278 19 56 14 90 -15 119 -25 25 -33 25 -52 3z"/>
<path d="M10774 14006 c-37 -58 -71 -293 -60 -426 3 -41 7 -145 7 -230 3 -302
48 -734 104 -1005 37 -175 76 -353 85 -386 12 -43 33 -64 56 -55 21 8 15 83
-20 245 -15 68 -27 147 -28 175 0 28 -7 92 -15 141 -15 93 -27 221 -38 405 -3
58 -8 119 -10 135 -3 17 -7 194 -11 395 -5 270 -3 382 6 430 22 117 22 133 1
168 -25 38 -54 42 -77 8z"/>
<path d="M7938 13764 c-4 -3 2 -24 13 -47 10 -23 19 -50 19 -60 0 -17 -1 -17
-16 -3 -17 17 -34 21 -34 8 0 -5 11 -44 24 -88 35 -118 49 -236 44 -360 -6
-131 -33 -236 -90 -354 -80 -167 -99 -227 -80 -257 17 -26 52 1 105 82 120
180 173 328 184 516 12 208 -26 371 -120 512 -39 60 -40 60 -49 51z"/>
<path d="M4650 13557 c-27 -43 -57 -139 -68 -212 -10 -64 -5 -119 27 -344 26
-181 37 -302 51 -557 6 -111 13 -223 14 -250 2 -27 9 -141 16 -254 6 -113 18
-266 26 -341 8 -75 14 -191 14 -258 0 -133 13 -181 50 -181 29 0 43 36 35 89
-3 25 -9 75 -12 111 -2 36 -10 71 -16 78 -9 11 -10 132 -5 347 1 11 -3 90 -7
175 -4 85 -8 220 -10 300 -1 80 -3 168 -4 195 -1 28 -2 81 -2 119 0 96 -10
175 -59 461 -31 184 -20 312 33 390 33 49 34 78 3 99 -14 8 -27 24 -31 35 -10
34 -34 33 -55 -2z"/>
<path d="M23412 10018 c-18 -18 -15 -30 18 -68 34 -41 36 -49 14 -65 -14 -10
-15 -19 -5 -66 13 -61 44 -119 64 -119 8 0 22 9 32 20 26 29 40 14 101 -117
73 -154 138 -338 164 -463 20 -98 21 -122 16 -365 -4 -143 -9 -314 -11 -380
-3 -66 -7 -228 -10 -360 -6 -250 -18 -466 -35 -645 -9 -95 -63 -443 -75 -480
-5 -15 -29 -127 -65 -304 -12 -54 -27 -121 -34 -150 -48 -179 -59 -218 -83
-281 -14 -38 -34 -87 -45 -108 -17 -35 -17 -39 -2 -62 11 -17 25 -25 44 -25
24 0 31 8 53 53 14 29 32 75 41 101 9 27 21 56 26 65 16 31 76 265 125 491 39
177 45 210 55 285 5 39 12 88 15 110 4 22 7 47 7 55 0 8 4 40 9 70 21 134 41
427 45 695 6 355 10 524 23 860 11 278 9 310 -35 495 -28 118 -44 166 -90 260
-17 36 -44 94 -59 130 -37 83 -124 220 -141 220 -20 0 -39 41 -23 50 10 7 10
15 -1 40 -23 55 -106 90 -138 58z"/>
<path d="M19559 9516 c-65 -26 -89 -44 -174 -125 -273 -263 -513 -623 -609
-916 -101 -305 -141 -567 -133 -870 10 -379 66 -634 198 -905 110 -225 365
-470 489 -470 22 0 30 5 30 18 0 24 -62 82 -125 118 -80 45 -115 76 -140 124
-13 25 -40 72 -60 105 -91 150 -169 341 -220 540 -81 310 -69 841 25 1165 10
36 26 98 36 138 9 40 21 75 25 78 5 3 9 11 9 19 0 7 24 64 54 127 134 279 399
618 577 737 64 43 126 65 153 55 9 -3 27 -3 41 0 33 8 32 39 -1 65 -36 28
-103 27 -175 -3z"/>
<path d="M3028 9008 c-33 -31 -35 -49 -10 -71 16 -15 36 -16 172 -8 238 13
413 -4 780 -73 41 -8 167 -26 280 -41 191 -25 304 -43 505 -80 118 -22 196
-20 229 6 14 11 26 29 26 39 0 16 -10 19 -72 23 -40 2 -143 18 -228 36 -85 17
-216 40 -290 51 -74 11 -142 23 -150 26 -8 3 -46 9 -85 14 -87 12 -213 32
-370 60 -216 38 -267 42 -515 44 l-245 1 -27 -27z"/>
<path d="M12880 8850 c-69 -4 -210 -13 -315 -20 -243 -16 -742 -17 -860 -2
-222 29 -578 25 -736 -9 -45 -10 -53 -15 -66 -46 -16 -40 -10 -81 14 -90 9 -3
58 4 110 16 174 42 378 45 858 11 77 -5 219 -7 315 -4 166 5 262 11 570 35 74
6 162 12 195 14 94 4 177 50 162 90 -7 17 -26 17 -247 5z"/>
<path d="M7955 8663 c-131 -16 -256 -88 -345 -201 -86 -108 -173 -302 -204
-458 -29 -140 -37 -276 -27 -442 13 -186 28 -271 88 -492 25 -91 58 -211 73
-268 30 -112 42 -132 74 -132 47 0 59 49 30 118 -8 20 -26 75 -39 122 -13 47
-34 117 -46 155 -11 39 -25 92 -30 118 -4 27 -15 78 -23 115 -47 217 -46 433
5 675 55 266 214 513 361 564 54 19 230 19 278 1 181 -70 246 -181 205 -353
-21 -92 -85 -222 -148 -304 -142 -183 -137 -178 -247 -264 -65 -51 -81 -86
-59 -125 21 -38 41 -38 106 1 71 43 112 54 233 63 117 8 248 -8 350 -42 60
-21 84 -35 119 -72 57 -61 71 -96 71 -178 0 -155 -139 -432 -357 -709 -66 -85
-94 -113 -158 -161 -56 -43 -70 -46 -99 -23 -36 28 -60 21 -64 -18 -4 -38 20
-88 49 -104 47 -25 144 19 243 111 117 108 325 407 406 585 70 153 83 204 84
320 1 101 -1 115 -27 167 -49 100 -129 153 -306 203 -76 21 -111 25 -224 25
-116 0 -138 3 -158 18 -15 13 -19 21 -11 26 7 4 12 2 12 -3 0 -22 20 -9 76 49
99 104 150 194 194 341 39 131 39 198 3 304 -34 99 -87 156 -194 210 -107 54
-193 71 -294 58z"/>
<path d="M23103 8636 c-144 -47 -317 -261 -409 -506 l-32 -85 -48 -3 c-27 -1
-66 1 -88 5 -21 5 -86 5 -145 1 -58 -4 -198 -12 -311 -17 -259 -13 -312 -27
-295 -80 8 -28 36 -34 98 -22 28 5 163 12 298 15 167 4 272 11 325 22 127 26
131 26 138 15 8 -13 -4 -174 -14 -191 -5 -8 -13 -8 -33 1 -23 10 -30 9 -46 -5
-22 -20 -31 -22 -141 -31 -94 -7 -133 -2 -358 44 -84 17 -163 31 -176 31 -23
0 -56 -28 -56 -48 0 -22 50 -49 112 -61 35 -7 117 -24 183 -37 211 -44 361
-42 455 6 52 26 60 14 60 -90 0 -104 16 -287 31 -355 6 -27 22 -68 35 -91 18
-31 22 -50 17 -78 -4 -27 -1 -42 12 -56 22 -25 38 -25 73 -2 15 11 59 40 97
66 101 68 212 150 225 167 3 3 17 12 32 20 14 8 42 34 61 58 19 24 59 62 89
85 66 49 155 148 174 193 23 53 18 105 -15 150 -53 74 -182 140 -288 150 -75
6 -113 24 -113 52 0 11 34 50 79 90 92 83 214 238 237 302 16 45 20 133 8 172
-10 35 -53 86 -84 102 -42 22 -137 27 -187 11z m100 -75 c58 -22 88 -142 53
-209 -27 -50 -92 -130 -194 -238 -56 -59 -102 -113 -102 -119 0 -7 -9 -20 -20
-30 -11 -10 -23 -34 -26 -53 -6 -31 -3 -39 25 -64 26 -23 41 -28 89 -29 109
-2 147 -7 207 -29 66 -25 135 -85 135 -118 0 -11 -17 -42 -38 -69 -50 -62
-218 -220 -307 -288 -38 -29 -81 -64 -94 -79 -35 -37 -92 -65 -116 -56 -41 16
-57 47 -66 130 -11 101 -28 236 -35 275 -19 113 -12 269 15 359 6 17 20 67 32
110 21 75 54 157 81 201 7 11 35 54 61 97 54 86 140 171 202 199 46 21 64 23
98 10z"/>
<path d="M20415 8601 c-22 -17 -47 -37 -56 -44 -22 -16 -86 -112 -95 -140 -3
-12 -12 -29 -18 -37 -16 -19 -95 -201 -129 -295 -14 -38 -35 -96 -46 -128 -12
-32 -21 -72 -21 -90 0 -49 -34 -113 -64 -121 -40 -10 -51 -41 -31 -85 16 -37
16 -40 -48 -302 -36 -145 -72 -300 -82 -344 -9 -44 -21 -101 -27 -127 -15 -62
5 -122 43 -126 22 -3 28 4 46 50 12 29 27 89 33 133 6 44 20 116 30 160 10 44
23 114 30 155 6 41 20 104 30 140 23 82 38 175 36 220 -2 49 25 60 152 60 97
0 156 -8 332 -46 199 -43 204 -47 215 -124 4 -25 16 -81 26 -124 11 -44 24
-120 29 -170 11 -95 26 -130 60 -141 40 -13 50 10 50 114 0 98 -15 199 -49
344 -11 45 -32 141 -46 212 -15 72 -45 202 -67 290 -22 88 -44 180 -49 205
-57 264 -81 342 -112 369 -9 7 -42 15 -74 18 -53 5 -61 3 -98 -26z m78 -65
c28 -43 49 -119 153 -571 24 -104 50 -216 57 -247 8 -32 12 -59 10 -62 -2 -2
-43 12 -91 31 -140 56 -289 86 -399 80 -79 -5 -94 -3 -107 12 -23 25 -20 44
14 108 17 31 36 77 44 103 8 26 19 56 24 66 6 11 16 42 22 69 6 28 19 68 29
90 11 22 42 94 71 160 64 145 92 185 130 185 18 0 33 -8 43 -24z"/>
<path d="M3363 8551 c-46 -29 -75 -83 -103 -191 -24 -91 -25 -107 -24 -390 0
-162 4 -335 8 -385 3 -49 9 -226 13 -392 5 -228 3 -312 -6 -346 -15 -52 -7
-102 17 -112 24 -9 82 26 83 50 3 43 -3 490 -6 495 -2 3 -6 55 -9 115 -4 61
-9 155 -12 210 -3 55 -9 132 -15 170 -24 178 -12 518 22 622 15 47 53 83 88
83 35 0 61 -30 112 -130 28 -55 96 -175 129 -230 6 -8 23 -40 39 -71 25 -50
85 -143 138 -219 10 -14 41 -61 70 -105 28 -44 61 -93 73 -110 12 -16 38 -53
58 -82 20 -29 62 -88 92 -132 54 -79 78 -99 101 -85 20 12 -1 67 -59 152 -31
46 -68 101 -82 123 -14 21 -41 63 -61 91 -64 94 -195 293 -202 308 -4 8 -18
33 -32 55 -14 22 -30 51 -36 65 -6 14 -21 38 -33 55 -13 16 -47 75 -76 130
-73 137 -145 241 -178 254 -55 21 -77 22 -109 2z"/>
<path d="M10570 8408 c-44 -47 -63 -111 -75 -258 -4 -41 -13 -140 -21 -219
-15 -145 -20 -404 -9 -432 3 -9 -1 -22 -10 -29 -13 -11 -32 -10 -108 3 -51 9
-133 19 -183 23 -90 6 -91 6 -112 -21 -24 -30 -29 -89 -9 -102 6 -4 77 -9 157
-10 168 -2 253 -8 269 -17 6 -4 11 -38 11 -81 0 -125 70 -496 108 -574 31 -62
90 -87 106 -45 3 8 -1 34 -9 57 -28 84 -54 194 -65 277 -15 115 -36 229 -49
263 -32 82 -11 95 138 89 144 -6 195 6 241 53 52 54 40 57 -159 49 -98 -3
-187 -3 -198 0 -12 4 -29 18 -38 32 -15 24 -15 28 -1 59 11 23 16 63 16 132 0
54 4 136 9 183 17 149 21 203 26 295 2 54 12 113 25 149 26 77 26 111 -2 130
-29 21 -33 20 -58 -6z"/>
<path d="M11604 8382 c-87 -73 -200 -343 -264 -632 -18 -80 -36 -161 -40 -180
-30 -134 -95 -481 -115 -620 -9 -58 -19 -122 -22 -142 -7 -48 17 -88 52 -88
48 0 75 87 75 240 0 126 -5 123 246 138 242 15 254 17 379 47 131 33 150 32
163 -2 10 -26 50 -127 94 -238 11 -27 38 -102 60 -165 40 -117 73 -168 102
-157 25 10 30 55 13 106 -65 190 -104 290 -147 378 -28 56 -50 111 -50 121 0
22 32 53 78 76 30 16 42 39 24 50 -5 3 -38 -4 -75 -16 -54 -16 -70 -18 -82 -8
-8 7 -12 16 -10 21 6 9 -73 256 -97 305 -8 16 -34 85 -57 154 -24 69 -52 145
-63 170 -11 25 -38 89 -59 142 -60 150 -114 260 -143 291 -31 32 -34 32 -62 9z
m41 -175 c7 -18 58 -152 113 -297 117 -311 216 -548 248 -595 20 -31 21 -36 8
-49 -20 -21 -45 -24 -309 -36 -126 -6 -259 -16 -295 -21 -57 -9 -66 -8 -77 8
-8 9 -11 24 -7 33 4 8 10 31 14 50 5 19 36 154 70 300 54 233 82 328 161 559
31 89 51 102 74 48z"/>
<path d="M15090 8287 c-75 -26 -166 -103 -234 -202 -164 -234 -226 -656 -145
-977 60 -239 186 -442 297 -479 33 -11 37 -10 58 15 29 33 41 91 24 111 -7 8
-25 15 -39 15 -34 0 -100 55 -122 101 -86 176 -114 254 -134 365 -18 100 -22
326 -6 395 5 24 18 78 27 119 19 85 94 253 142 319 45 63 106 111 157 126 53
17 157 5 213 -24 66 -34 201 -142 256 -205 77 -88 100 -137 99 -216 0 -89 -20
-133 -79 -167 -80 -48 -87 -56 -86 -98 2 -41 25 -75 51 -75 9 0 38 15 64 34
61 43 99 50 184 32 167 -34 313 -117 313 -176 0 -43 -81 -161 -174 -255 -135
-135 -210 -188 -464 -327 -63 -34 -119 -41 -135 -16 -9 13 -8 33 5 80 17 65
11 108 -15 108 -19 0 -72 -77 -91 -133 -33 -97 -14 -159 55 -183 63 -21 256
46 394 135 272 178 394 297 489 475 73 140 71 183 -16 261 -87 78 -198 123
-394 161 -33 6 -37 32 -12 73 34 53 31 147 -5 222 -31 63 -117 163 -191 220
-28 22 -76 59 -106 84 -123 100 -248 127 -380 82z"/>
<path d="M18013 7963 c-16 -6 -71 -87 -74 -110 -5 -32 12 -63 36 -69 32 -8
111 30 132 63 16 24 16 28 -3 61 -19 35 -67 64 -91 55z"/>
<path d="M6577 7582 c-23 -25 -22 -85 1 -105 25 -23 46 -21 78 6 22 19 26 29
20 51 -14 58 -67 83 -99 48z"/>
<path d="M21316 7562 c-2 -4 -6 -64 -7 -132 -1 -74 -14 -203 -30 -315 -40
-270 -60 -510 -63 -762 -1 -120 1 -130 23 -161 16 -23 30 -32 45 -30 19 3 22
12 32 128 6 69 17 211 23 315 7 105 23 270 37 367 29 212 54 436 54 496 0 36
-5 49 -31 73 -30 28 -72 38 -83 21z"/>
<path d="M14241 7314 c-47 -60 -32 -144 27 -144 38 1 70 31 89 85 14 43 14 47
-2 65 -27 30 -88 27 -114 -6z"/>
<path d="M4325 7298 c-33 -17 -76 -32 -95 -34 -48 -5 -120 -19 -215 -43 -105
-26 -267 -41 -330 -31 -67 11 -102 -11 -97 -61 2 -19 9 -40 17 -48 14 -14 110
-18 194 -6 25 3 60 8 76 10 100 13 228 46 290 75 22 10 59 21 82 25 36 6 44 4
49 -12 25 -74 48 -107 180 -259 20 -23 44 -55 54 -71 22 -38 82 -75 112 -71
14 2 26 13 32 31 9 24 6 30 -25 57 -18 16 -38 29 -42 30 -16 0 -87 63 -93 82
-3 11 -34 50 -68 86 -106 114 -114 138 -66 179 33 28 63 77 53 87 -13 12 -50
4 -108 -26z"/>
<path d="M16518 7189 c-13 -7 -18 -23 -18 -54 0 -41 -2 -45 -25 -45 -14 0 -49
12 -78 26 -56 28 -149 36 -169 16 -22 -22 9 -62 66 -88 66 -30 161 -47 187
-34 23 13 49 13 49 0 0 -6 10 -24 21 -40 24 -32 24 -51 -3 -235 -19 -134 -17
-337 5 -407 33 -109 111 -168 232 -176 164 -10 347 80 516 255 119 123 167
208 186 330 4 26 0 37 -23 59 -34 32 -165 94 -249 119 -33 9 -64 20 -70 25 -9
7 -59 20 -190 50 -101 22 -223 36 -245 28 -36 -13 -66 14 -84 75 -26 90 -63
123 -108 96z m215 -253 c12 -8 76 -26 142 -41 245 -53 381 -95 461 -144 77
-47 41 -136 -116 -292 -93 -91 -120 -111 -205 -154 -85 -42 -108 -49 -174 -53
-97 -5 -134 13 -171 83 -36 70 -39 198 -10 420 12 93 23 176 26 183 5 16 20
15 47 -2z"/>
<path d="M5214 7145 c-14 -21 -16 -44 -12 -143 5 -112 8 -123 63 -272 31 -85
65 -180 75 -210 17 -53 23 -71 56 -185 8 -27 28 -117 45 -200 37 -186 45 -212
70 -226 47 -25 62 37 35 141 -8 30 -19 88 -25 129 -6 40 -16 81 -21 90 -5 10
-14 49 -21 87 -6 38 -25 105 -41 149 -17 44 -34 96 -40 115 -16 59 -36 117
-70 203 -30 74 -32 91 -31 177 2 52 4 111 5 130 3 34 2 35 -34 38 -30 3 -40
-1 -54 -23z"/>
<path d="M23369 7048 c-57 -118 -92 -239 -143 -503 -7 -39 -30 -109 -50 -158
-20 -48 -36 -91 -36 -96 0 -5 12 -24 26 -41 33 -38 63 -37 83 5 25 50 110 354
141 500 17 84 35 130 81 206 45 75 47 87 18 123 -15 19 -30 26 -55 26 -32 0
-36 -4 -65 -62z"/>
<path d="M9354 7069 c-15 -17 -18 -35 -17 -107 1 -48 8 -130 17 -182 47 -289
101 -780 111 -1010 8 -170 13 -195 46 -205 18 -6 28 -1 47 21 25 28 25 29 18
179 -4 82 -9 168 -11 190 -32 337 -55 524 -114 934 -11 79 -19 147 -16 151 7
12 -25 50 -44 50 -10 0 -26 -9 -37 -21z"/>
<path d="M13001 6800 c-133 -61 -231 -278 -231 -509 1 -220 72 -415 205 -560
102 -111 236 -147 395 -106 36 9 82 27 102 41 21 13 42 24 47 24 16 0 196 182
229 231 17 25 40 74 52 109 20 61 21 65 5 106 -20 53 -95 138 -144 165 -20 10
-43 23 -51 28 -8 5 -33 17 -55 26 -71 29 -79 33 -118 49 -20 10 -81 24 -135
31 -104 16 -143 28 -181 57 -29 22 -35 22 -55 2 -22 -21 -20 -76 3 -105 21
-28 70 -42 195 -58 147 -19 311 -95 391 -180 26 -28 30 -40 30 -90 0 -50 -5
-64 -40 -115 -120 -176 -333 -278 -479 -231 -70 23 -105 52 -159 132 -91 135
-130 272 -130 454 0 195 51 318 154 373 72 38 87 52 95 89 12 57 -44 73 -125
37z"/>
</g>
</svg>
