<?xml version="1.0" standalone="no"?>
<!DOCTYPE svg PUBLIC "-//W3C//DTD SVG 20010904//EN"
 "http://www.w3.org/TR/2001/REC-SVG-20010904/DTD/svg10.dtd">
<svg version="1.0" xmlns="http://www.w3.org/2000/svg"
 width="3264.000000pt" height="2448.000000pt" viewBox="0 0 3264.000000 2448.000000"
 preserveAspectRatio="xMidYMid meet">
<metadata>
Created by potrace 1.12, written by Peter Selinger 2001-2015
</metadata>
<g transform="translate(0.000000,2448.000000) scale(0.100000,-0.100000)"
fill="#000000" stroke="none">
<path d="M22315 24010 c4 -6 11 -8 16 -5 14 9 11 15 -7 15 -8 0 -12 -5 -9 -10z"/>
<path d="M18784 23859 c-8 -14 11 -33 25 -25 6 4 11 14 11 22 0 16 -26 19 -36
3z"/>
<path d="M5265 23753 c-27 -8 -107 -32 -178 -55 -101 -32 -136 -38 -168 -33
-31 5 -45 3 -60 -11 -10 -9 -19 -23 -19 -30 0 -19 -34 -39 -120 -70 -179 -63
-340 -170 -340 -225 0 -14 5 -30 12 -37 26 -26 59 -12 121 48 46 46 90 75 180
120 65 33 122 60 126 60 5 0 11 -78 14 -172 4 -124 14 -229 36 -368 51 -316
62 -409 63 -518 0 -101 0 -104 25 -115 22 -10 28 -8 44 12 12 14 19 39 19 65
0 42 -21 224 -40 351 -37 242 -51 383 -57 558 l-6 198 28 29 c15 16 42 32 59
36 17 4 72 20 121 36 50 16 113 33 140 39 100 19 131 44 99 80 -20 22 -31 22
-99 2z"/>
<path d="M7326 23578 c-9 -15 -16 -66 -20 -138 -9 -153 -35 -406 -47 -450 -8
-30 -20 -41 -89 -80 -178 -100 -185 -105 -188 -134 -7 -56 39 -72 94 -33 121
85 153 107 157 107 2 0 3 -58 3 -129 -1 -139 7 -167 42 -145 14 9 19 38 29
163 13 178 11 175 122 228 183 89 362 201 491 309 50 42 94 73 97 71 3 -3 -9
-52 -27 -109 -51 -162 -121 -447 -127 -516 -7 -74 10 -102 61 -102 46 0 69 18
278 213 120 111 193 168 240 188 78 32 108 -49 152 -409 16 -129 21 -146 55
-176 28 -25 99 -28 114 -4 9 14 4 24 -31 56 -23 21 -42 46 -42 55 0 34 -41
333 -55 398 -27 126 -70 179 -146 179 -72 0 -228 -105 -350 -236 -73 -79 -159
-154 -176 -154 -22 0 -14 48 48 270 49 176 61 217 107 371 22 73 19 115 -9
129 -15 8 -33 -3 -105 -66 -120 -104 -229 -177 -495 -330 -81 -46 -151 -84
-156 -84 -7 0 -7 15 -2 43 5 23 16 94 24 157 8 63 22 161 31 217 12 81 13 106
3 125 -23 44 -60 51 -83 16z"/>
<path d="M10270 23575 c-8 -9 -17 -63 -22 -123 -4 -59 -17 -152 -28 -207 -34
-172 -78 -376 -82 -380 -6 -6 -120 -35 -139 -35 -43 0 -67 -80 -30 -100 14 -7
36 -5 80 9 75 23 75 26 22 -124 -54 -154 -114 -372 -107 -390 9 -25 44 -17 60
13 7 15 24 61 36 102 12 41 37 120 55 175 18 55 40 133 50 173 9 40 25 81 34
91 26 30 272 101 259 75 -80 -167 -81 -169 -85 -244 -4 -60 -1 -82 15 -110 75
-136 296 -105 417 60 41 56 99 176 117 244 7 25 15 46 19 46 8 0 16 -56 25
-180 6 -79 11 -98 30 -117 28 -28 45 -29 68 -4 16 18 16 23 2 65 -9 26 -16 67
-16 92 0 71 -49 356 -66 381 -27 43 -68 25 -80 -35 -6 -30 -7 -31 -30 -15 -31
20 -94 11 -184 -25 -65 -26 -83 -30 -195 -51 -33 -7 -104 -23 -158 -37 -55
-14 -101 -23 -104 -20 -3 3 6 45 21 93 44 150 118 503 111 534 -12 54 -66 79
-95 44z m610 -667 c-14 -59 -97 -233 -138 -289 -74 -100 -186 -146 -242 -101
-57 46 -25 228 53 303 49 48 116 84 172 92 22 4 67 17 100 31 33 13 62 23 64
21 2 -2 -2 -28 -9 -57z"/>
<path d="M17451 23528 c-4 -13 -13 -57 -19 -98 -21 -140 -129 -439 -267 -739
-72 -157 -102 -269 -86 -322 19 -64 49 -79 155 -79 187 1 583 118 618 183 8
15 6 24 -10 40 l-21 20 -83 -31 c-142 -54 -343 -102 -454 -109 -96 -6 -102 -5
-108 14 -10 30 29 141 111 323 123 270 218 529 250 685 16 78 16 84 0 109 -23
34 -74 37 -86 4z"/>
<path d="M11400 23480 c-12 -7 -16 -44 -21 -182 -9 -232 -49 -442 -119 -625
-38 -99 -46 -139 -30 -158 22 -26 52 -16 103 35 27 28 51 50 52 50 2 0 26 -15
54 -34 77 -52 187 -69 291 -45 71 16 203 83 243 123 96 96 114 236 39 312 -65
65 -193 83 -320 45 -114 -35 -176 -85 -257 -209 -24 -37 -30 -41 -42 -29 -13
12 -10 29 16 123 47 170 71 337 71 493 0 93 -31 132 -80 101z m500 -565 c186
-96 -26 -318 -289 -303 -87 5 -171 37 -171 64 0 33 123 174 175 202 93 48 228
66 285 37z"/>
<path d="M12516 23464 c-20 -20 -20 -42 0 -111 42 -144 -52 -439 -270 -847
-43 -80 -45 -121 -7 -121 18 0 30 11 49 45 13 25 41 74 63 110 45 77 155 306
194 404 86 219 102 447 38 518 -20 22 -47 23 -67 2z"/>
<path d="M19430 23241 c-14 -28 -13 -67 5 -100 25 -50 98 -46 108 6 3 15 8 38
12 50 10 32 -26 63 -75 63 -29 0 -42 -5 -50 -19z"/>
<path d="M18480 23216 c0 -9 7 -16 16 -16 9 0 14 5 12 12 -6 18 -28 21 -28 4z"/>
<path d="M23174 23196 c-102 -32 -311 -200 -387 -311 -15 -22 -39 -56 -55 -76
-95 -124 -118 -157 -167 -241 -63 -105 -148 -276 -178 -358 -59 -162 -65 -184
-57 -201 22 -39 82 -33 105 12 19 35 85 236 85 256 0 8 6 27 14 41 8 15 36 72
62 127 64 132 226 372 311 460 118 122 246 209 327 222 69 11 99 -64 55 -137
-36 -60 -89 -119 -133 -150 -52 -35 -187 -90 -222 -90 -67 0 -145 -71 -123
-113 9 -16 18 -18 57 -12 214 29 431 174 507 337 43 93 27 201 -36 233 -34 18
-109 18 -165 1z"/>
<path d="M25730 23195 c-12 -15 -9 -101 6 -139 12 -31 76 -32 87 -2 7 19 -17
122 -33 141 -16 19 -44 19 -60 0z"/>
<path d="M6330 23158 c-75 -43 -202 -174 -279 -288 -35 -52 -66 -97 -68 -99
-1 -2 -12 4 -22 13 -47 42 -77 -1 -91 -127 -5 -45 -12 -92 -16 -103 -9 -35 13
-66 44 -62 23 2 34 17 72 88 97 184 277 424 367 490 57 41 61 17 42 -220 -20
-236 12 -395 87 -426 18 -8 53 -14 76 -14 82 0 221 114 292 240 55 97 173 373
180 421 5 36 3 49 -9 59 -28 24 -47 -1 -92 -119 -106 -281 -204 -431 -321
-491 -56 -29 -88 -21 -110 28 -13 30 -15 66 -12 202 1 91 3 214 4 273 l1 109
-33 29 c-18 16 -38 29 -45 29 -6 0 -37 -14 -67 -32z"/>
<path d="M18690 23180 c0 -5 5 -10 10 -10 6 0 10 5 10 10 0 6 -4 10 -10 10 -5
0 -10 -4 -10 -10z"/>
<path d="M18450 23135 c0 -8 7 -15 15 -15 8 0 15 7 15 15 0 8 -7 15 -15 15 -8
0 -15 -7 -15 -15z"/>
<path d="M15294 23095 c-35 -54 -5 -74 150 -100 154 -27 556 -166 556 -194 0
-4 -219 -6 -487 -4 -485 5 -494 5 -630 40 -27 6 -63 -28 -63 -62 0 -65 79 -74
650 -74 453 0 476 1 588 35 27 8 29 -7 7 -60 -34 -81 -138 -165 -294 -239 -69
-33 -99 -42 -151 -44 -72 -3 -90 -16 -90 -65 0 -44 26 -51 117 -32 91 18 239
85 327 148 194 138 258 323 154 442 -53 60 -128 90 -362 145 -72 17 -187 44
-256 60 -157 37 -194 37 -216 4z"/>
<path d="M20870 23095 c-114 -32 -196 -101 -241 -201 -99 -218 8 -392 266
-434 131 -22 436 -6 535 27 55 19 70 30 70 54 0 30 -31 39 -91 29 -30 -6 -137
-13 -239 -16 -171 -6 -192 -5 -275 16 -106 26 -130 38 -170 80 -28 29 -30 37
-29 103 1 83 16 119 70 167 65 57 117 75 219 75 80 0 94 -3 123 -24 62 -47 42
-68 -108 -116 -71 -22 -151 -34 -247 -35 -18 0 -35 -39 -29 -65 14 -55 132
-57 289 -4 204 68 276 168 192 266 -66 77 -214 112 -335 78z"/>
<path d="M18380 23070 c0 -5 5 -10 10 -10 6 0 10 5 10 10 0 6 -4 10 -10 10 -5
0 -10 -4 -10 -10z"/>
<path d="M22649 23042 c-14 -9 -49 -40 -77 -69 -74 -75 -246 -224 -296 -256
l-43 -28 -39 26 c-65 43 -119 101 -147 157 -15 29 -27 61 -27 69 0 9 -7 22
-15 29 -42 35 -96 -52 -66 -108 6 -9 12 -29 16 -44 3 -15 23 -46 44 -69 36
-37 43 -40 73 -34 32 7 32 6 13 -9 -20 -16 -20 -16 1 -34 12 -9 30 -22 40 -28
16 -9 -1 -20 -112 -76 -72 -36 -163 -73 -202 -83 -57 -14 -76 -23 -93 -46 -11
-16 -19 -39 -17 -52 3 -19 10 -22 51 -25 35 -2 57 2 81 17 18 12 38 21 45 21
10 0 56 21 141 66 19 10 70 40 113 66 77 47 113 58 133 39 5 -6 35 -17 68 -25
68 -18 127 -9 159 22 31 32 16 48 -51 55 -32 4 -72 11 -88 17 l-29 12 30 24
c205 167 328 282 346 326 9 22 9 31 -1 43 -16 19 -19 19 -51 -3z m-429 -386
c0 -11 -19 -15 -25 -6 -3 5 1 10 9 10 9 0 16 -2 16 -4z"/>
<path d="M24153 23035 c-28 -14 -72 -48 -97 -75 -27 -29 -56 -50 -67 -50 -36
0 -88 31 -120 71 -17 22 -37 39 -46 39 -25 0 -108 -78 -247 -234 -75 -83 -152
-164 -171 -179 -68 -54 -80 -127 -20 -127 40 0 53 10 107 79 63 80 140 170
231 267 l69 72 56 -34 c32 -19 62 -34 67 -34 34 -1 37 -17 14 -91 -57 -186 -5
-315 143 -355 110 -29 318 -10 414 37 43 22 77 69 88 124 9 41 -18 135 -61
221 -21 42 -34 78 -30 88 11 29 57 38 182 34 l120 -3 3 26 c6 52 -60 79 -193
79 -105 0 -138 -15 -187 -85 -36 -50 -33 -92 10 -192 37 -83 58 -164 49 -187
-14 -35 -75 -50 -212 -51 -107 0 -138 3 -172 19 -60 27 -77 68 -69 162 5 60
30 154 41 154 2 0 37 6 78 14 110 21 171 57 203 118 20 39 17 66 -11 93 -34
34 -103 34 -172 0z m52 -100 c-52 -25 -86 -32 -69 -16 19 19 70 41 94 40 20
-1 15 -5 -25 -24z"/>
<path d="M13083 23039 c-235 -30 -397 -191 -411 -410 -4 -70 -2 -81 30 -150
40 -85 73 -118 171 -165 89 -43 186 -58 312 -51 155 10 288 59 325 120 37 59
21 97 -86 207 -117 120 -124 179 -28 228 29 15 194 49 273 56 68 6 91 18 91
46 0 35 -29 45 -124 44 -94 0 -212 -28 -262 -61 -23 -15 -24 -14 -24 13 0 38
-32 90 -67 107 -34 17 -129 25 -200 16z m165 -113 c18 -18 10 -67 -18 -114
-35 -57 -244 -139 -422 -165 -36 -5 -38 -4 -38 21 1 73 84 188 163 226 109 51
279 69 315 32z m-8 -236 c0 -37 40 -100 105 -166 67 -67 89 -109 64 -125 -61
-40 -273 -61 -381 -39 -121 25 -228 94 -244 156 -8 33 5 41 76 49 30 4 86 15
125 27 71 20 219 90 230 108 11 17 25 11 25 -10z"/>
<path d="M18511 23041 c-11 -7 -9 -11 8 -21 28 -14 53 -6 45 15 -7 17 -31 20
-53 6z"/>
<path d="M19438 22973 c-23 -27 -138 -237 -154 -280 -25 -73 -11 -108 41 -101
23 3 30 12 46 61 11 32 49 104 84 161 64 100 77 140 53 164 -17 17 -53 15 -70
-5z"/>
<path d="M19884 22938 c-89 -60 -221 -187 -265 -256 -41 -64 -40 -121 1 -156
17 -14 47 -28 67 -32 57 -11 185 3 364 40 234 48 309 84 275 131 -14 20 -36
19 -156 -10 -176 -41 -373 -69 -423 -60 -41 8 -60 26 -51 46 12 28 152 144
242 202 94 61 117 91 95 126 -21 34 -66 25 -149 -31z"/>
<path d="M25185 22889 c-167 -14 -229 -36 -270 -96 -38 -56 -33 -83 28 -153
74 -87 117 -149 117 -172 0 -27 -30 -51 -145 -118 -106 -60 -132 -92 -105
-124 25 -31 63 -17 187 64 210 138 223 202 74 365 -39 43 -71 81 -71 85 0 13
53 31 128 42 43 6 178 12 300 12 223 1 224 1 243 -23 37 -46 18 -125 -76 -316
-36 -71 -70 -152 -77 -178 -12 -45 -11 -50 7 -63 20 -15 51 -10 73 10 7 7 23
41 36 77 13 35 44 105 69 154 58 116 78 175 84 251 6 70 -13 122 -54 149 -62
41 -297 56 -548 34z"/>
<path d="M18755 22856 c-109 -35 -173 -99 -206 -207 -19 -67 -20 -78 -8 -114
19 -55 78 -84 175 -84 110 -1 142 11 348 136 13 9 -2 -34 -67 -177 -70 -154
-111 -229 -176 -318 l-46 -62 -3 34 c-7 80 -62 63 -81 -25 -23 -104 -8 -159
41 -159 28 0 129 120 232 275 83 124 223 440 233 526 9 74 -30 105 -73 58 -37
-41 -140 -108 -224 -145 -114 -50 -212 -59 -254 -23 -22 19 -26 30 -21 50 9
36 73 101 121 124 63 30 170 32 254 5 77 -25 100 -19 100 24 0 55 -99 96 -224
95 -45 0 -99 -6 -121 -13z"/>
<path d="M26015 22861 c-29 -13 -63 -52 -70 -81 -7 -28 22 -62 63 -75 12 -3
22 -9 22 -13 0 -4 -35 -37 -78 -73 -84 -71 -155 -166 -173 -231 -9 -36 -8 -45
9 -67 32 -44 82 -57 160 -41 86 16 198 59 262 100 134 86 199 289 127 398 -39
60 -102 86 -212 89 -49 2 -99 -1 -110 -6z m119 -96 c-24 -18 -36 -19 -60 0
-18 13 -15 14 30 15 46 0 48 -1 30 -15z m113 -30 c34 -34 35 -38 29 -85 -8
-60 -36 -127 -65 -157 -44 -46 -214 -113 -287 -113 -39 0 -44 3 -44 22 0 26
87 113 216 215 83 66 109 101 99 134 -10 30 13 23 52 -16z"/>
<path d="M18100 22824 c-58 -11 -70 -15 -98 -39 -17 -14 -33 -39 -37 -55 -3
-16 -13 -34 -21 -41 -28 -23 -67 -113 -68 -156 -2 -66 53 -114 144 -127 60 -9
231 25 266 53 15 12 35 21 46 21 45 0 103 56 125 119 17 49 16 71 -6 117 -22
44 -60 76 -111 92 -39 12 -201 23 -240 16z m194 -95 c44 -12 96 -63 96 -94 -1
-20 -63 -75 -85 -75 -6 0 -38 -11 -71 -24 -70 -28 -178 -42 -216 -27 -39 15
-53 45 -38 82 20 48 59 69 128 69 57 0 61 2 93 39 38 44 40 45 93 30z"/>
<path d="M26618 22760 c-26 -16 -184 -224 -214 -281 l-26 -53 26 -23 c49 -42
90 -26 278 104 146 102 208 140 208 126 0 -5 -25 -39 -56 -77 -61 -76 -94
-134 -94 -166 0 -12 11 -32 25 -46 22 -22 32 -25 82 -22 40 2 59 8 67 21 17
27 -6 55 -57 71 -24 8 -17 20 82 135 93 108 111 149 86 187 -15 23 -21 25 -53
19 -66 -12 -135 -47 -280 -143 -79 -52 -146 -92 -149 -89 -3 3 15 27 39 54
102 112 117 143 82 177 -18 18 -23 19 -46 6z"/>
<path d="M27333 22756 c-141 -46 -179 -134 -99 -228 50 -59 127 -107 311 -198
153 -75 245 -134 269 -172 18 -29 -5 -51 -79 -76 -106 -36 -266 -40 -480 -12
-272 35 -263 35 -285 15 -25 -22 -26 -61 -2 -73 50 -26 370 -65 537 -66 127 0
162 3 230 22 97 28 146 59 168 105 55 116 -32 207 -350 365 -158 78 -225 121
-250 158 -15 23 -15 26 1 42 24 24 154 29 244 8 80 -18 100 -14 108 20 9 34
-19 71 -63 84 -63 18 -213 22 -260 6z"/>
<path d="M27210 21753 c-19 -2 -120 -17 -225 -33 -104 -16 -237 -34 -295 -39
-141 -14 -776 -48 -1140 -61 -162 -5 -425 -15 -583 -20 -785 -28 -3465 -42
-4832 -27 -401 5 -734 11 -738 14 -16 10 -2913 5 -3252 -6 -192 -6 -501 -15
-685 -21 -184 -5 -373 -12 -420 -15 -357 -20 -1571 -34 -3400 -39 -1423 -4
-1763 -1 -2615 26 -614 19 -1357 17 -1735 -5 -341 -19 -676 -42 -853 -57 -623
-54 -908 -72 -1177 -73 -198 -1 -275 10 -306 44 -22 24 -36 24 -58 0 -24 -26
-17 -70 15 -93 89 -67 476 -63 1384 12 132 11 292 25 355 30 248 20 758 49
1060 59 209 7 657 5 885 -3 761 -29 1860 -44 2815 -40 2492 11 3018 18 3755
44 857 31 981 33 2610 44 330 2 870 0 1200 -4 1446 -21 1929 -25 2880 -25
1561 1 3031 22 3775 55 1006 44 1070 49 1340 94 167 29 360 48 442 44 60 -2
71 3 82 39 5 15 1 28 -13 42 -19 19 -32 21 -128 19 -60 0 -124 -3 -143 -5z"/>
<path d="M10807 20983 c-4 -3 -7 -17 -7 -30 0 -26 34 -33 44 -8 11 30 -17 59
-37 38z"/>
<path d="M17728 20969 c-23 -13 -23 -45 -2 -53 23 -9 66 21 62 42 -4 20 -36
26 -60 11z"/>
<path d="M13625 20713 c-14 -14 -16 -28 -11 -77 23 -215 17 -375 -29 -826 -8
-80 -19 -327 -25 -550 -9 -394 -35 -992 -46 -1077 -5 -41 -6 -42 -37 -36 -18
3 -40 13 -49 21 -13 11 -55 17 -145 23 -216 13 -2497 17 -3058 5 -165 -3 -424
-8 -575 -11 -151 -3 -293 -10 -315 -15 -22 -5 -51 -10 -64 -10 -23 0 -23 2
-17 49 8 64 75 309 131 481 103 317 235 815 235 885 0 22 -8 43 -20 55 -41 41
-75 16 -85 -62 -13 -93 -201 -817 -222 -851 -3 -4 -10 -4 -16 1 -7 5 -28 15
-49 21 -69 22 -242 204 -325 343 -18 29 -51 101 -73 160 -32 84 -42 128 -49
207 -6 75 -13 106 -26 121 -25 28 -61 25 -82 -6 -15 -24 -15 -35 -4 -113 23
-163 114 -384 213 -516 29 -38 90 -109 136 -156 94 -99 158 -135 224 -126 21
3 38 4 38 3 0 -1 -11 -36 -25 -77 -36 -104 -71 -241 -85 -326 -7 -40 -16 -76
-21 -79 -5 -3 -152 -7 -327 -9 -174 -3 -357 -7 -407 -10 -49 -3 -200 -10 -335
-15 -306 -13 -541 -25 -880 -45 -146 -8 -314 -17 -375 -19 -60 -3 -247 -10
-415 -17 -177 -6 -431 -9 -605 -6 -304 6 -302 6 -588 59 -77 14 -100 6 -105
-34 -5 -40 25 -56 149 -77 239 -41 313 -45 709 -43 417 1 652 11 1745 71 198
11 502 24 675 31 173 6 409 15 524 21 114 6 211 7 214 4 3 -3 1 -37 -6 -76 -7
-38 -12 -105 -12 -148 0 -65 4 -84 23 -112 27 -41 69 -58 91 -39 22 17 20 47
-4 77 -14 18 -20 40 -20 77 1 52 16 188 25 216 4 13 54 15 407 16 222 1 558 6
748 11 271 8 1678 8 2880 0 74 0 159 2 188 4 40 4 55 2 59 -8 15 -39 -27 -461
-91 -923 -40 -282 -63 -593 -81 -1075 -4 -88 -15 -288 -26 -445 -41 -601 -48
-713 -58 -990 -35 -907 -45 -1373 -48 -2054 -2 -412 -4 -751 -6 -752 -1 -2
-32 1 -67 6 -36 5 -144 18 -240 29 -96 12 -269 32 -385 46 -115 13 -408 43
-650 65 -242 22 -474 44 -515 50 -579 75 -1235 111 -2285 125 -437 5 -809 18
-1080 35 -82 5 -269 14 -415 20 -146 6 -373 15 -505 21 -132 5 -429 14 -660
19 -231 5 -546 18 -700 29 -635 46 -1918 61 -2320 27 -110 -9 -279 -21 -375
-26 -203 -12 -427 -32 -695 -60 -104 -11 -282 -27 -395 -35 -113 -8 -272 -22
-355 -31 -231 -25 -420 -7 -558 54 -67 30 -108 36 -131 19 -47 -35 30 -80 219
-127 151 -39 276 -46 450 -26 77 8 230 22 340 31 210 16 417 35 650 59 135 14
277 25 605 46 85 6 207 15 270 20 372 31 1720 14 2295 -30 143 -11 379 -22
525 -25 522 -11 1345 -43 1795 -70 254 -15 792 -31 1390 -40 690 -11 1107 -33
1595 -85 47 -5 132 -14 190 -19 58 -6 143 -16 190 -21 87 -10 419 -42 622 -60
62 -5 208 -21 323 -34 551 -65 750 -86 803 -86 31 0 62 -4 68 -8 7 -5 8 -41 3
-112 -16 -217 -80 -1267 -99 -1625 -23 -444 -27 -499 -80 -1180 -6 -71 -12
-152 -13 -180 l-2 -50 -40 1 c-37 0 -155 13 -450 49 -245 30 -863 83 -1575
135 -508 37 -624 44 -1150 70 -506 25 -588 31 -955 69 -87 10 -416 35 -600 46
-49 3 -189 15 -310 25 -388 35 -486 40 -892 50 -219 5 -542 18 -718 29 -176
11 -513 23 -750 26 -236 3 -475 10 -530 16 -55 5 -311 13 -570 18 -916 19
-1332 31 -1525 46 -107 8 -332 22 -500 30 -307 15 -373 24 -483 65 -71 26
-121 24 -125 -6 -4 -31 37 -60 128 -88 111 -35 195 -44 575 -61 187 -8 387
-20 445 -25 124 -12 652 -27 1365 -40 281 -5 553 -14 605 -20 52 -5 237 -12
410 -15 584 -10 744 -15 1030 -35 157 -11 470 -24 695 -30 387 -9 544 -17 765
-40 52 -5 255 -21 450 -35 382 -27 495 -37 690 -60 168 -19 505 -41 1025 -65
375 -18 711 -40 1565 -105 269 -21 836 -74 1020 -95 36 -5 139 -16 230 -25 91
-9 167 -19 169 -21 2 -2 -1 -61 -7 -131 -10 -111 -19 -262 -28 -473 -1 -30 -5
-223 -9 -428 -6 -279 -11 -375 -20 -378 -7 -3 -86 0 -175 6 -436 29 -2822 2
-3835 -43 -363 -16 -1412 -16 -1600 0 -77 7 -208 15 -292 19 l-152 7 6 31 c3
17 11 54 18 81 15 58 20 100 40 366 8 107 19 226 25 265 6 38 13 182 15 319 3
138 10 308 17 379 12 129 12 129 -11 147 -28 23 -64 25 -80 5 -9 -10 -13 -116
-15 -368 -2 -265 -8 -410 -24 -583 -29 -307 -43 -475 -48 -559 -2 -38 -6 -71
-9 -74 -2 -2 -219 -6 -482 -7 -495 -3 -642 -8 -1318 -51 -379 -23 -448 -24
-1320 -24 -1072 1 -1340 11 -1735 61 -198 25 -293 45 -354 76 -51 26 -89 25
-100 -3 -20 -53 84 -107 264 -138 126 -22 450 -54 655 -66 271 -16 2212 -17
2410 -2 849 64 1857 80 2470 37 303 -21 1131 -25 1535 -8 316 14 789 30 1155
38 341 8 2851 16 2906 9 l46 -6 1 -252 c2 -643 45 -1915 68 -2018 10 -42 -26
-54 -118 -39 -40 6 -118 16 -173 21 -143 14 -467 46 -700 70 -110 12 -204 25
-208 29 -5 5 -4 33 2 62 6 30 27 158 46 284 20 127 42 268 50 315 46 266 69
524 71 799 1 150 5 302 9 338 6 54 4 68 -11 84 -22 25 -56 24 -80 -2 -22 -24
-24 -72 -11 -347 7 -155 -10 -540 -28 -617 -2 -12 -9 -63 -15 -115 -5 -52 -21
-162 -35 -245 -38 -235 -54 -374 -53 -451 0 -39 -2 -77 -6 -83 -12 -19 -46
-17 -631 49 -49 5 -144 14 -210 20 -131 12 -370 34 -535 50 -164 16 -551 49
-700 60 -74 5 -223 17 -330 25 -795 61 -1416 98 -2150 130 -495 21 -789 34
-900 40 -52 3 -293 12 -535 20 -242 8 -550 19 -685 25 -248 10 -317 14 -940
51 -342 20 -949 28 -1067 13 -30 -3 -53 -2 -53 3 0 5 66 74 148 155 199 197
341 299 677 488 169 96 209 122 273 184 52 49 72 78 92 131 8 22 5 31 -26 65
-62 69 -203 111 -484 145 -203 25 -500 45 -673 45 -154 0 -169 -2 -187 -20
-25 -25 -26 -46 -2 -58 9 -5 134 -12 277 -15 550 -13 983 -80 993 -154 7 -50
-94 -130 -323 -257 -172 -95 -386 -235 -495 -324 -41 -33 -140 -126 -219 -207
-79 -81 -157 -155 -175 -166 -27 -16 -51 -19 -171 -19 -181 0 -521 -16 -755
-36 -102 -9 -276 -19 -387 -22 -170 -6 -205 -10 -219 -24 -40 -40 20 -68 146
-68 41 0 190 9 330 20 718 54 1683 78 2100 50 85 -5 250 -14 365 -20 116 -6
282 -15 370 -20 152 -10 713 -32 1115 -45 102 -3 343 -12 535 -20 193 -8 409
-17 480 -20 479 -19 1483 -71 1560 -80 22 -3 114 -9 205 -15 787 -48 2010
-152 2760 -235 124 -14 272 -30 330 -36 172 -17 188 -19 360 -39 91 -11 233
-27 315 -35 83 -8 195 -19 250 -25 55 -6 173 -17 263 -24 90 -8 165 -15 167
-18 5 -4 9 -203 20 -928 4 -234 10 -504 15 -600 4 -96 6 -382 5 -635 -2 -253
1 -539 6 -635 21 -413 51 -862 59 -890 5 -16 5 -42 1 -57 -9 -30 -8 -73 2
-143 8 -53 30 -571 29 -682 l-1 -78 28 0 28 0 -3 202 c-2 112 -6 286 -10 388
-4 102 -6 198 -5 214 1 16 -3 83 -9 150 -5 66 -12 177 -15 246 -5 113 -20 365
-26 415 -1 11 -3 310 -4 665 -2 922 -24 2086 -44 2263 -11 105 -14 103 165 83
82 -9 228 -23 324 -31 96 -8 228 -19 293 -25 64 -5 168 -14 230 -20 62 -5 266
-26 453 -45 186 -20 425 -45 529 -56 105 -10 224 -24 265 -29 41 -5 118 -14
170 -20 207 -22 963 -113 1125 -135 61 -9 151 -18 200 -21 50 -3 94 -9 99 -14
5 -5 1 -47 -9 -100 -23 -117 -17 -282 11 -326 79 -126 124 -150 315 -165 167
-13 816 -75 1004 -95 77 -8 203 -22 280 -30 158 -16 200 -22 480 -65 229 -36
534 -92 780 -144 94 -20 200 -43 236 -50 36 -7 115 -25 175 -39 60 -14 188
-41 284 -61 96 -20 204 -42 240 -50 36 -7 90 -18 120 -24 30 -6 100 -20 155
-31 118 -24 353 -66 480 -86 50 -7 113 -19 140 -25 28 -5 111 -19 185 -30 74
-10 155 -24 180 -29 25 -6 81 -14 125 -20 44 -5 143 -18 220 -30 77 -11 194
-27 259 -35 66 -8 127 -17 135 -20 9 -2 75 -11 146 -20 72 -9 162 -22 200 -30
39 -8 86 -15 105 -15 19 0 80 -7 135 -16 55 -8 125 -19 155 -24 30 -4 96 -16
145 -25 50 -9 117 -20 150 -25 33 -5 87 -18 119 -30 33 -11 78 -20 101 -20 24
0 58 -6 76 -14 19 -7 59 -16 89 -20 30 -3 89 -15 130 -25 126 -32 369 -90 490
-116 162 -35 245 -56 405 -104 39 -12 86 -24 105 -27 19 -4 68 -17 109 -30 40
-13 81 -24 90 -24 9 -1 34 -9 56 -20 22 -11 46 -19 54 -20 8 0 40 -9 70 -19
31 -10 85 -24 121 -31 36 -7 73 -17 83 -22 10 -5 67 -27 125 -48 59 -21 141
-51 182 -68 41 -16 107 -41 145 -55 94 -35 405 -155 430 -167 11 -5 40 -16 65
-24 25 -8 74 -25 110 -39 159 -60 238 -79 339 -80 118 -2 143 8 176 73 53 106
70 372 85 1370 10 605 26 1129 50 1575 27 503 34 1241 15 1620 -2 50 -7 142
-10 205 -6 126 -43 783 -50 895 -3 39 -7 122 -10 185 -6 131 -24 413 -30 480
-2 25 -9 101 -15 170 -7 69 -18 190 -26 270 -19 188 -30 298 -54 560 -11 118
-25 258 -30 310 -9 87 -34 353 -60 640 -6 63 -15 147 -20 185 -5 39 -19 149
-30 245 -48 409 -91 664 -200 1195 -111 545 -199 844 -312 1070 -64 128 -78
144 -121 145 -23 0 -310 68 -427 101 -112 31 -633 129 -685 128 -59 0 -73 0
-171 4 -28 1 -58 8 -67 15 -10 9 -27 11 -45 7 -21 -4 -31 -2 -35 8 -6 17 -162
48 -317 62 -36 3 -108 12 -160 20 -52 8 -160 19 -240 25 -139 11 -338 34 -560
64 -58 8 -166 22 -240 31 -74 10 -151 21 -170 26 -46 11 -217 37 -360 54 -265
32 -602 74 -775 95 -44 5 -150 19 -235 30 -85 11 -292 36 -460 55 -168 19
-366 41 -440 50 -74 8 -180 22 -235 30 -127 18 -365 50 -520 70 -66 8 -185 24
-265 35 -80 11 -203 27 -275 35 -71 9 -137 18 -145 20 -8 3 -87 11 -175 20
-88 8 -218 22 -290 30 -310 38 -644 54 -881 43 -426 -19 -590 -92 -657 -295
-55 -168 -92 -568 -102 -1118 -6 -331 -26 -1114 -28 -1135 -4 -28 -1 -28 -907
110 -624 96 -998 147 -1230 170 -150 15 -618 69 -650 75 -38 7 -598 72 -825
95 -175 18 -510 55 -705 77 l-65 8 -3 540 c-3 402 2 690 17 1130 11 325 25
752 31 950 12 393 17 483 55 990 14 187 32 480 40 650 28 601 39 731 100 1170
41 298 62 494 71 672 4 72 10 137 15 144 6 10 20 11 71 1 35 -6 194 -16 353
-22 274 -10 421 -16 920 -40 356 -18 921 -52 1240 -75 116 -8 316 -22 445 -30
547 -35 1075 -75 1450 -110 91 -9 235 -22 320 -30 169 -15 410 -42 450 -50 14
-3 63 -9 110 -15 175 -21 301 -40 318 -49 58 -30 440 -44 897 -31 519 14 1639
13 2305 -2 712 -16 808 -16 847 1 57 23 53 76 -7 101 -25 11 -38 10 -71 0 -34
-11 -86 -11 -312 0 -201 10 -689 13 -1874 14 l-1603 1 -15 23 c-19 25 -37 28
-68 8 -24 -15 -62 -12 -327 24 -429 58 -971 107 -1945 175 -115 8 -325 22
-465 30 -305 18 -648 40 -935 59 -115 8 -277 18 -360 22 -82 4 -168 8 -190 9
-22 1 -105 6 -185 10 -80 4 -147 9 -150 10 -3 2 -73 6 -155 10 -83 3 -193 8
-245 11 -52 2 -160 6 -240 9 -80 2 -211 7 -292 11 -125 5 -154 3 -191 -11 -25
-9 -55 -15 -68 -13 -23 3 -24 7 -24 68 0 36 6 157 13 270 7 113 19 430 27 705
8 275 19 529 24 565 30 203 53 551 48 720 -5 186 -13 220 -54 239 -30 14 -28
14 -48 -6z m5695 -6972 c567 -59 757 -83 1550 -191 118 -16 280 -36 360 -45
80 -9 198 -23 262 -31 64 -8 190 -23 280 -34 90 -10 305 -37 478 -59 173 -22
421 -54 550 -71 251 -32 740 -99 777 -106 16 -3 22 -11 20 -26 -2 -21 2 -22
103 -24 142 -4 407 -21 417 -27 12 -8 168 -32 483 -77 752 -106 681 -93 696
-123 20 -37 47 -49 92 -41 53 10 91 31 104 59 6 13 14 22 18 20 3 -2 141 -32
306 -65 352 -72 804 -184 816 -202 49 -71 127 -266 183 -453 59 -199 62 -212
109 -425 40 -181 60 -278 120 -570 72 -353 162 -1011 196 -1428 11 -146 38
-426 51 -527 5 -44 20 -195 34 -335 13 -140 29 -304 35 -365 46 -461 68 -744
100 -1305 5 -102 15 -261 20 -355 5 -93 12 -231 15 -305 4 -74 8 -153 10 -175
5 -54 16 -549 19 -865 2 -294 -8 -685 -24 -880 -22 -288 -46 -899 -61 -1610
-6 -283 -11 -522 -11 -530 2 -96 -22 -573 -33 -662 -30 -251 -69 -259 -520
-102 -104 36 -224 77 -265 90 -41 13 -83 30 -95 38 -11 7 -31 15 -45 18 -14 3
-63 23 -110 43 -47 20 -101 41 -120 45 -19 5 -74 25 -122 44 -48 20 -95 36
-103 36 -9 0 -29 7 -45 15 -16 8 -55 21 -87 29 -32 8 -92 26 -133 40 -122 41
-399 122 -465 136 -22 5 -76 18 -120 30 -44 12 -111 28 -150 36 -38 8 -83 19
-100 23 -84 23 -116 31 -180 46 -142 35 -281 66 -310 70 -16 3 -37 8 -45 11
-8 3 -67 16 -130 29 -63 13 -191 40 -285 60 -93 20 -206 43 -250 50 -44 7
-120 20 -170 29 -102 18 -187 31 -295 45 -204 27 -239 32 -295 41 -169 27
-398 61 -580 85 -55 7 -161 23 -235 35 -74 12 -166 26 -205 31 -38 5 -101 15
-140 23 -38 8 -97 19 -130 25 -33 6 -112 20 -175 31 -366 66 -446 81 -620 120
-47 10 -128 26 -180 35 -89 15 -170 32 -265 55 -37 8 -134 29 -370 80 -49 10
-164 35 -255 55 -197 43 -228 49 -345 70 -49 9 -108 20 -130 25 -54 13 -309
53 -530 84 -329 46 -1180 141 -1410 157 -243 16 -324 38 -362 96 -15 23 -18
51 -18 194 1 219 8 228 140 188 17 -5 104 -18 195 -29 299 -37 928 -129 1231
-180 101 -17 249 -42 329 -55 530 -90 777 -117 1320 -141 80 -3 164 -10 187
-15 49 -10 85 2 103 36 34 63 2 74 -225 74 -348 1 -839 43 -1130 96 -44 8
-125 21 -180 29 -101 14 -339 53 -495 81 -113 20 -758 113 -1125 161 -60 8
-158 18 -217 23 -59 4 -111 10 -114 14 -3 3 1 39 10 79 9 40 20 118 26 173 25
266 88 710 135 962 14 76 35 188 45 248 19 105 78 400 120 590 10 50 19 102
20 116 0 15 8 37 19 50 18 22 20 23 99 10 218 -33 1037 -136 1202 -151 251
-22 299 -30 355 -57 52 -25 56 -26 109 -13 48 11 73 11 174 -3 64 -9 223 -28
352 -42 258 -28 551 -65 760 -95 74 -11 154 -20 177 -20 52 0 59 -10 38 -54
-39 -81 17 -101 70 -26 38 55 50 57 199 36 61 -8 156 -20 211 -26 127 -14 352
-46 462 -65 47 -8 96 -15 110 -15 35 0 75 44 71 78 l-3 27 -85 0 c-47 0 -164
13 -260 28 -212 32 -455 57 -561 57 -94 0 -94 -2 -44 113 19 44 35 84 35 88 0
41 334 721 391 795 43 56 48 78 22 106 -42 47 -119 1 -165 -99 -164 -355 -278
-624 -329 -776 -33 -99 -68 -187 -77 -194 -19 -15 -59 -13 -152 10 -36 9 -137
25 -225 37 -88 11 -189 25 -225 30 -115 16 -231 30 -420 50 -102 11 -221 25
-265 30 -44 6 -123 15 -175 20 -202 21 -229 26 -250 45 -48 44 -138 198 -277
476 -80 161 -161 314 -179 340 -40 54 -41 64 -13 79 30 16 242 84 394 126 203
56 254 84 224 120 -6 8 -27 14 -46 14 -47 0 -348 -79 -498 -130 -66 -23 -129
-42 -139 -43 -14 -2 -29 17 -57 74 -49 95 -171 229 -210 229 -35 0 -49 -18
-49 -61 0 -33 9 -47 68 -108 108 -112 156 -171 146 -180 -5 -5 -47 -23 -94
-40 -47 -18 -156 -71 -244 -119 -127 -70 -161 -93 -174 -119 -14 -29 -14 -34
2 -57 26 -40 57 -33 164 38 103 69 390 216 407 210 6 -3 31 -46 56 -97 72
-146 218 -425 251 -481 17 -28 40 -67 50 -86 11 -19 45 -66 76 -103 70 -87 65
-95 -50 -78 -123 19 -127 19 -478 62 -179 22 -390 48 -470 58 -260 34 -326 41
-384 41 -66 0 -68 6 -36 96 33 96 118 453 144 609 48 292 58 389 58 568 -1
122 2 159 13 163 12 5 208 -5 490 -26 72 -5 195 -14 275 -20 232 -16 727 -65
880 -85 426 -58 630 -89 707 -106 48 -11 99 -23 113 -25 37 -8 67 27 54 63 -5
14 -16 29 -24 34 -21 10 -604 97 -805 119 -49 5 -148 16 -220 25 -156 18 -664
60 -900 75 -93 6 -228 15 -300 20 -71 6 -165 10 -209 10 -76 0 -78 1 -72 23 3
12 8 144 12 292 3 149 12 396 20 550 8 154 19 359 24 455 5 96 12 360 15 585
11 851 18 1153 25 1164 5 10 20 10 61 1 75 -15 322 -56 459 -75 63 -9 162 -25
220 -35 58 -11 146 -24 195 -29 110 -13 934 -125 1065 -145 52 -8 156 -25 230
-36 230 -36 503 -80 555 -91 28 -5 109 -20 180 -34 72 -13 153 -29 180 -35
102 -23 152 -30 249 -39 63 -6 104 -14 113 -24 13 -13 13 -34 3 -163 -6 -82
-15 -171 -18 -199 l-7 -50 -140 -7 c-200 -10 -469 -36 -540 -52 -33 -8 -94
-19 -135 -26 -92 -15 -120 -31 -120 -68 0 -54 34 -64 130 -37 196 55 308 74
555 95 66 5 151 13 188 16 68 7 68 7 63 -17 -3 -13 -8 -82 -11 -153 -4 -82
-14 -152 -25 -190 -14 -44 -16 -64 -8 -73 16 -19 45 -16 67 9 39 41 53 112 57
271 2 83 7 154 12 159 13 13 447 17 742 7 256 -8 368 -23 460 -58 30 -12 65
-21 76 -21 28 0 47 24 40 48 -25 78 -408 120 -1000 108 l-319 -6 7 68 c4 37 9
114 12 172 7 146 8 150 44 150 17 0 56 -7 88 -15 54 -14 209 -41 299 -52 50
-7 73 8 73 46 0 58 -31 73 -168 82 -136 9 -243 18 -289 25 -28 4 -32 9 -35 42
-3 35 -5 37 -38 37 -29 0 -36 -4 -38 -23 -6 -43 19 -46 -502 54 -460 88 -842
147 -1840 284 -324 45 -404 56 -700 101 -146 22 -314 47 -374 54 -60 8 -111
17 -114 19 -3 3 0 52 7 108 15 134 31 565 31 838 1 608 51 1189 116 1346 49
118 118 150 404 189 181 24 660 13 1020 -24z m-5955 -1980 c51 -11 565 -71
780 -91 155 -15 500 -55 965 -114 107 -13 227 -27 265 -31 61 -5 221 -23 504
-56 80 -9 612 -87 736 -108 332 -56 923 -141 985 -141 63 0 64 -3 51 -143 -7
-71 -14 -377 -16 -713 -5 -652 -9 -827 -31 -1144 -19 -280 -36 -892 -28 -997
7 -81 6 -82 -17 -88 -14 -3 -99 -1 -189 4 -91 6 -275 18 -410 26 -135 8 -270
17 -300 20 -30 3 -111 9 -180 15 -360 29 -700 61 -960 90 -102 11 -275 29
-385 40 -288 29 -361 39 -846 115 -459 72 -873 132 -1024 150 -204 24 -189 17
-181 73 22 167 73 867 101 1382 3 52 7 129 10 170 3 41 7 127 10 190 3 63 10
176 15 250 6 74 17 254 25 400 9 146 20 317 25 380 5 63 10 166 10 228 0 103
2 113 18 109 9 -3 40 -10 67 -16z m-160 -3241 c39 -6 149 -21 245 -35 252 -35
422 -61 705 -106 415 -66 786 -117 1015 -139 63 -6 214 -22 335 -35 516 -57
1475 -133 1903 -151 190 -8 182 -2 163 -130 -6 -41 -11 -110 -11 -153 0 -96
-41 -395 -76 -551 -44 -200 -54 -244 -71 -305 -9 -33 -26 -109 -38 -170 -26
-134 -32 -138 -147 -112 -145 33 -879 162 -980 173 -68 6 -66 -2 -38 150 51
278 72 401 95 558 23 154 24 171 10 192 -19 30 -56 31 -80 4 -15 -16 -20 -46
-26 -138 -5 -64 -26 -225 -49 -357 -22 -132 -40 -270 -40 -307 0 -80 -10 -87
-97 -64 -80 20 -266 47 -683 100 -195 25 -440 57 -545 70 -365 47 -616 65
-1320 92 -242 10 -443 20 -447 23 -7 6 4 411 22 816 6 127 13 307 16 400 3 94
7 176 10 183 3 9 14 12 31 8 16 -3 60 -10 98 -16z m345 -1504 c585 -25 926
-49 1180 -82 63 -8 167 -21 230 -29 63 -8 167 -21 230 -30 63 -9 189 -24 280
-35 91 -11 194 -24 230 -29 63 -9 249 -35 358 -49 l54 -7 2 -58 c3 -62 13 -81
42 -75 13 2 20 13 22 33 7 81 16 89 83 73 147 -33 791 -145 969 -168 52 -7 97
-14 98 -16 2 -1 -8 -40 -21 -86 -54 -176 -140 -619 -225 -1148 -64 -396 -112
-758 -112 -842 0 -146 -19 -170 -117 -148 -32 7 -87 16 -123 21 -36 4 -173 21
-305 39 -132 17 -296 37 -365 45 -353 39 -492 55 -565 65 -73 10 -223 26 -600
65 -77 8 -205 21 -285 30 -190 21 -288 30 -565 55 -471 43 -673 60 -765 65
-52 3 -119 8 -147 11 l-53 5 0 112 c0 62 -7 292 -14 512 -8 220 -18 522 -21
670 -19 796 -22 1011 -17 1019 2 5 41 6 86 3 45 -4 241 -13 436 -21z"/>
<path d="M19175 13049 c-260 -13 -422 -28 -448 -40 -46 -21 -32 -105 18 -111
11 -1 58 3 105 10 326 47 642 60 1019 42 251 -12 274 -12 289 4 22 21 7 47
-34 58 -108 31 -661 52 -949 37z"/>
<path d="M20015 12658 c-54 -13 -372 -123 -465 -161 -41 -16 -132 -56 -202
-88 -69 -33 -134 -59 -143 -59 -25 0 -124 99 -157 158 -31 54 -66 74 -97 55
-27 -17 -24 -55 9 -105 27 -41 116 -124 159 -148 19 -10 24 -6 -79 -64 -72
-39 -229 -148 -292 -201 -22 -18 -23 -68 -2 -89 29 -30 59 -18 135 51 83 75
304 223 333 223 10 0 48 -22 85 -49 88 -65 289 -190 376 -234 94 -47 173 -79
295 -117 109 -33 156 -36 174 -8 19 31 -21 55 -149 92 -148 42 -209 66 -305
118 -136 75 -391 241 -382 250 5 5 76 38 158 74 141 62 198 85 459 183 174 65
201 84 174 117 -13 16 -26 16 -84 2z"/>
<path d="M21022 12414 c-36 -25 -28 -56 31 -110 28 -27 81 -83 117 -124 149
-172 378 -364 488 -409 40 -17 85 -1 80 27 -2 9 -57 53 -123 96 -134 88 -262
209 -363 344 -81 106 -165 192 -189 192 -10 0 -29 -7 -41 -16z"/>
<path d="M22112 12308 c-45 -22 -230 -324 -406 -663 -94 -181 -204 -379 -243
-440 -96 -149 -110 -178 -95 -210 8 -17 20 -25 36 -25 25 0 56 23 56 42 0 5
35 69 79 142 43 72 137 241 208 376 176 332 261 467 385 618 75 92 86 128 46
156 -26 18 -34 19 -66 4z"/>
<path d="M22946 12254 c-21 -21 -20 -57 2 -77 14 -13 55 -19 179 -27 89 -5
167 -12 175 -15 7 -2 87 -16 178 -30 293 -45 492 -94 541 -134 22 -17 22 -20
7 -43 -19 -29 -109 -78 -197 -108 -36 -12 -168 -48 -294 -81 -225 -57 -427
-123 -473 -154 -52 -34 -17 -89 86 -133 66 -28 228 -69 365 -91 118 -20 557
-83 665 -96 30 -3 87 -13 127 -21 93 -18 106 -18 133 4 17 13 21 24 16 40 -11
32 -32 40 -142 52 -339 36 -1021 146 -1090 175 -19 8 -33 19 -30 24 10 15 112
45 376 111 354 89 488 143 545 220 71 97 -15 188 -235 248 -121 34 -826 151
-907 152 -6 0 -19 -7 -27 -16z"/>
<path d="M20660 12221 c-12 -23 -13 -71 -2 -88 13 -20 60 -33 85 -24 52 20 59
69 17 111 -27 27 -86 27 -100 1z"/>
<path d="M22432 12014 c-25 -17 -31 -74 -9 -92 21 -17 83 -25 106 -13 38 21
22 80 -29 106 -36 19 -40 19 -68 -1z"/>
<path d="M19165 9553 c-37 -8 -130 -46 -180 -75 -74 -42 -287 -229 -388 -343
-50 -55 -95 -101 -101 -103 -12 -2 -286 237 -422 369 -44 43 -92 81 -107 84
-21 6 -40 -1 -84 -26 -74 -45 -86 -64 -54 -90 28 -23 52 -24 92 -3 39 20 45
15 176 -109 116 -110 195 -177 283 -241 36 -27 66 -49 68 -51 1 -1 -14 -24
-35 -51 -113 -148 -368 -527 -427 -635 -39 -71 -44 -100 -21 -119 30 -25 29
-25 180 210 98 152 343 505 365 525 19 17 21 16 56 -11 69 -55 100 -75 239
-158 179 -107 245 -140 354 -176 100 -34 142 -37 165 -14 33 32 18 44 -105 84
-51 17 -134 51 -184 76 -131 66 -465 267 -465 281 0 16 260 264 355 338 104
81 157 111 229 129 92 24 123 66 74 100 -23 16 -28 17 -63 9z"/>
<path d="M23000 9289 c-31 -13 -40 -27 -40 -61 0 -46 25 -52 176 -38 181 17
350 8 634 -34 129 -20 251 -38 270 -41 19 -3 123 -18 230 -35 310 -48 462 -71
502 -77 31 -4 39 -1 53 21 20 30 14 70 -12 81 -10 4 -40 9 -68 11 -89 6 -306
35 -460 60 -82 14 -224 36 -315 49 -91 13 -223 34 -295 46 -102 16 -185 22
-390 25 -167 2 -269 0 -285 -7z"/>
<path d="M20505 9264 c-11 -3 -30 -7 -42 -10 -30 -6 -63 -43 -63 -70 0 -44 20
-48 160 -34 240 24 527 -3 740 -71 97 -31 140 -52 140 -69 0 -25 -148 -113
-390 -232 -562 -275 -661 -330 -729 -401 -38 -41 -38 -66 4 -115 56 -66 139
-80 545 -92 173 -5 445 -16 605 -25 159 -8 304 -12 322 -9 66 12 80 69 20 79
-42 6 -657 42 -1032 59 -236 11 -309 17 -340 31 l-40 17 34 28 c43 36 222 130
531 279 317 152 442 222 511 288 62 59 75 92 53 135 -42 82 -295 170 -568 198
-110 11 -430 21 -461 14z"/>
<path d="M19640 8970 c-31 -31 -25 -57 17 -79 31 -16 69 -14 87 5 19 18 21 65
4 82 -20 20 -85 15 -108 -8z"/>
<path d="M26052 8962 c-23 -18 -24 -21 -28 -258 -4 -224 -6 -240 -24 -256 -15
-12 -30 -15 -58 -10 -78 15 -647 -1 -667 -18 -23 -19 -19 -66 7 -84 29 -21
224 -21 363 -1 55 8 160 15 234 15 l134 0 -7 -32 c-4 -18 -14 -159 -21 -313
-8 -154 -19 -307 -25 -339 -13 -71 -9 -86 24 -86 62 0 85 104 100 460 6 151
15 281 20 289 6 9 20 11 50 6 73 -11 340 -48 386 -52 55 -5 86 13 76 45 -4 12
-21 25 -39 31 -62 20 -273 53 -367 57 -52 2 -98 8 -103 13 -5 5 -4 34 3 67 11
61 49 324 57 405 5 52 -6 67 -59 75 -23 3 -40 -1 -56 -14z"/>
<path d="M23195 8855 c-35 -34 -31 -65 15 -121 73 -89 292 -285 455 -407 164
-123 239 -167 288 -167 36 0 35 -15 -8 -100 -35 -70 -158 -352 -222 -510 -19
-47 -52 -117 -74 -156 -42 -77 -42 -100 -3 -110 55 -14 83 28 193 282 32 77
93 214 135 306 42 92 76 170 76 174 0 10 151 266 203 344 28 41 86 113 129
160 91 98 100 120 67 156 -47 50 -108 21 -189 -91 -86 -118 -134 -196 -191
-302 -42 -81 -58 -103 -75 -103 -11 0 -52 25 -90 55 -38 31 -100 80 -139 109
-207 157 -356 295 -402 371 -84 139 -118 161 -168 110z"/>
<path d="M21453 8628 c-10 -14 -33 -172 -33 -232 0 -29 4 -36 19 -36 10 0 24
7 31 15 16 19 44 209 36 241 -7 26 -37 33 -53 12z"/>
<path d="M22424 8570 c-12 -5 -29 -19 -38 -32 -45 -63 18 -112 94 -73 49 26
52 82 4 103 -29 14 -31 14 -60 2z"/>
<path d="M20712 7768 c-28 -28 -1 -75 38 -63 25 8 42 38 34 59 -7 19 -55 21
-72 4z"/>
<path d="M20318 7520 c-9 -6 -22 -26 -28 -46 -11 -32 -10 -39 9 -63 12 -14 34
-43 49 -64 15 -21 54 -74 87 -119 33 -44 84 -115 113 -157 29 -42 68 -92 86
-111 18 -19 51 -61 74 -92 54 -73 83 -94 111 -78 36 19 33 25 -82 185 -126
175 -237 347 -292 454 -45 87 -53 96 -80 98 -16 2 -38 -2 -47 -7z"/>
<path d="M19486 7389 c-18 -14 -26 -30 -26 -53 0 -39 15 -56 52 -56 60 0 89
70 46 110 -27 25 -39 25 -72 -1z"/>
<path d="M22389 7250 c-9 -5 -22 -23 -29 -39 -14 -36 0 -68 33 -75 12 -3 126
-7 252 -10 338 -7 648 -55 993 -153 102 -29 144 -25 150 13 6 39 -33 56 -249
110 -286 73 -481 109 -684 128 -93 9 -217 21 -275 26 -128 12 -170 12 -191 0z"/>
<path d="M22490 6967 c-42 -15 -70 -58 -54 -84 9 -15 33 -19 155 -24 213 -9
478 -53 663 -109 99 -30 197 -77 203 -97 6 -16 -44 -60 -93 -83 -22 -11 -144
-55 -270 -99 -245 -83 -423 -165 -450 -205 -9 -15 -13 -34 -9 -45 9 -29 94
-97 159 -127 129 -59 496 -132 776 -155 115 -9 134 -8 165 7 39 18 57 59 34
76 -8 5 -40 7 -72 4 -134 -10 -439 36 -712 109 -174 47 -215 64 -215 91 0 21
53 43 351 145 285 97 342 122 394 174 31 31 35 42 35 85 0 43 -5 55 -37 91
-86 95 -323 167 -750 228 -239 35 -226 34 -273 18z"/>
<path d="M21879 6941 c-30 -31 -38 -68 -17 -89 22 -22 86 -14 113 13 29 28 30
36 10 75 -21 41 -65 41 -106 1z"/>
<path d="M25760 6703 c-12 -15 -19 -34 -16 -43 3 -8 14 -40 25 -71 18 -49 20
-83 22 -264 1 -164 -2 -210 -13 -217 -7 -5 -33 -6 -58 -3 -25 3 -160 9 -300
14 -162 6 -281 15 -325 25 -38 9 -85 16 -102 16 -58 0 -93 -58 -58 -93 34 -35
171 -47 533 -47 l322 0 0 -22 c0 -34 -19 -363 -25 -435 -4 -47 -1 -66 11 -77
18 -18 47 -8 64 23 13 26 30 220 30 354 0 95 2 109 21 128 15 15 28 19 45 15
24 -6 139 -24 304 -46 41 -6 107 -18 145 -27 64 -14 73 -14 108 0 59 25 48 53
-28 75 -71 20 -367 64 -477 70 -58 4 -109 10 -112 13 -4 3 -2 39 4 80 13 88
15 322 5 432 -5 53 -13 85 -27 102 -27 34 -70 33 -98 -2z"/>
<path d="M18072 5764 c-12 -8 -22 -25 -22 -38 0 -59 191 -374 280 -460 58 -57
56 -66 -23 -92 -128 -41 -317 -142 -442 -234 -59 -43 -75 -66 -75 -102 0 -61
62 -65 124 -8 87 80 185 144 342 221 89 43 168 79 176 79 21 0 68 -48 84 -86
7 -16 78 -97 157 -180 79 -82 162 -170 183 -195 44 -52 110 -93 139 -88 32 7
30 37 -6 67 -49 41 -142 135 -268 273 -63 68 -134 141 -158 162 -52 47 -55 71
-10 86 94 31 309 86 434 110 151 30 206 53 182 76 -11 10 -39 9 -149 -6 -74
-11 -169 -23 -210 -29 -41 -5 -122 -23 -180 -40 -122 -37 -170 -49 -187 -50
-7 0 -24 21 -39 48 -15 26 -46 74 -69 107 -62 90 -129 211 -159 290 -24 62
-55 105 -75 105 -4 0 -17 -7 -29 -16z"/>
<path d="M20122 5403 c-18 -7 -44 -62 -36 -76 5 -7 29 -37 56 -67 26 -30 69
-91 96 -135 96 -159 171 -248 236 -281 70 -35 77 -19 25 56 -137 194 -182 264
-223 345 -69 137 -108 177 -154 158z"/>
<path d="M19313 5230 c-45 -18 -57 -79 -21 -104 31 -22 70 -20 96 4 30 28 28
64 -4 89 -29 23 -38 24 -71 11z"/>
<path d="M20895 5202 c-79 -38 -164 -129 -239 -258 -32 -54 -67 -104 -77 -112
-10 -7 -19 -24 -19 -36 0 -13 -15 -57 -34 -99 -37 -81 -66 -160 -157 -428 -73
-217 -75 -245 -15 -218 28 13 29 15 105 239 74 217 127 348 166 411 19 31 35
62 35 69 0 15 48 86 129 189 70 88 117 121 174 121 43 0 67 26 67 72 0 36 -32
78 -61 78 -8 0 -41 -13 -74 -28z"/>
<path d="M21842 5043 c-20 -17 -26 -33 -23 -60 2 -23 59 -43 124 -43 35 0 86
-7 113 -15 27 -8 117 -32 199 -53 386 -101 427 -114 495 -157 52 -33 53 -62 4
-105 -42 -36 -89 -58 -224 -105 -100 -34 -244 -88 -420 -158 -101 -40 -160
-80 -160 -110 0 -22 27 -41 150 -105 122 -64 245 -113 425 -169 341 -106 530
-174 616 -221 59 -32 70 -35 93 -24 33 15 54 56 38 74 -6 8 -37 22 -69 32 -32
10 -85 28 -118 41 -33 12 -76 26 -95 30 -19 4 -46 13 -60 20 -36 19 -111 46
-325 119 -492 166 -526 180 -495 210 8 8 133 56 278 106 145 50 293 105 330
123 122 59 176 139 152 226 -24 90 -145 143 -630 275 -47 13 -136 38 -198 55
-128 35 -171 38 -200 14z"/>
<path d="M21245 4835 c-14 -13 -25 -33 -25 -44 0 -20 43 -61 65 -61 24 0 65
41 65 66 0 65 -58 87 -105 39z"/>
<path d="M15915 11280 c-198 -20 -407 -122 -548 -269 -77 -79 -140 -200 -151
-286 -8 -70 17 -177 55 -237 90 -140 353 -277 619 -324 140 -24 351 -16 441
18 84 31 183 87 237 133 51 44 122 143 147 205 25 64 23 170 -5 243 -41 108
-169 236 -311 311 -44 23 -82 51 -94 70 -32 48 -101 94 -173 115 -86 25 -131
29 -217 21z m114 -154 c51 -14 119 -39 150 -54 31 -16 80 -41 110 -56 286
-145 400 -334 310 -514 -49 -99 -163 -187 -311 -240 -66 -23 -87 -26 -213 -26
-188 0 -319 32 -515 127 -195 95 -266 198 -242 350 30 195 193 344 467 428 73
22 121 19 244 -15z"/>
<path d="M16167 9795 c-36 -36 -12 -85 43 -85 11 0 23 -6 26 -14 7 -18 -36
-190 -115 -458 -79 -270 -119 -484 -133 -710 -12 -192 -7 -228 32 -228 29 0
38 30 50 177 25 314 60 480 183 883 47 153 81 322 73 364 -9 45 -43 75 -97 82
-35 5 -49 2 -62 -11z"/>
<path d="M16050 6195 c-18 -21 -13 -125 10 -215 18 -70 31 -210 40 -435 6
-126 12 -243 14 -260 2 -16 12 -93 21 -170 22 -192 54 -395 65 -423 7 -16 17
-22 33 -20 21 3 22 8 21 78 0 41 -10 163 -22 270 -12 107 -26 317 -32 465 -5
149 -12 299 -15 335 -10 123 -47 365 -57 378 -14 17 -63 15 -78 -3z"/>
<path d="M5952 19948 c-15 -15 -15 -58 -2 -94 6 -15 28 -95 50 -178 42 -163
108 -363 146 -438 31 -61 30 -69 -9 -94 -17 -12 -85 -68 -150 -125 -145 -127
-270 -232 -359 -300 -76 -58 -87 -79 -63 -116 15 -22 22 -25 61 -20 48 5 84
30 84 58 0 9 36 47 83 85 100 83 258 224 350 313 63 60 70 64 80 47 58 -92 83
-123 166 -206 106 -106 167 -149 249 -180 111 -42 232 -21 232 39 0 46 -21 56
-79 36 -40 -13 -58 -14 -89 -5 -60 16 -153 82 -247 177 -76 76 -165 192 -165
213 0 7 251 222 309 265 15 11 58 45 96 75 38 30 103 75 144 101 78 47 96 74
70 105 -19 23 -64 8 -149 -49 -113 -76 -304 -227 -407 -322 -78 -73 -113 -98
-113 -81 0 2 -16 48 -35 102 -35 97 -64 194 -130 442 -18 67 -41 132 -50 142
-20 22 -55 26 -73 8z"/>
<path d="M18957 19575 c-24 -24 -50 -102 -43 -129 7 -30 44 -43 75 -27 11 6
25 29 31 50 5 21 17 44 25 51 18 15 19 42 3 58 -17 17 -74 15 -91 -3z"/>
<path d="M11415 19375 c-260 -52 -484 -85 -578 -85 -93 0 -117 -11 -117 -54 0
-44 20 -50 153 -43 122 7 177 15 558 88 195 37 309 49 309 31 0 -26 -152 -139
-595 -441 -165 -112 -275 -233 -275 -302 0 -95 126 -131 383 -111 78 7 239 21
357 33 145 14 299 22 473 23 276 2 276 3 277 53 0 12 -11 30 -25 41 -24 19
-39 20 -248 17 -205 -4 -298 -9 -557 -35 -52 -5 -185 -15 -295 -21 -203 -12
-255 -7 -255 23 0 36 210 198 580 446 203 135 290 219 290 279 0 29 -7 46 -26
64 -23 22 -35 24 -132 26 -88 2 -137 -4 -277 -32z"/>
<path d="M17145 19388 c-11 -6 -37 -24 -57 -40 -58 -46 -50 -108 14 -108 36 0
128 82 128 114 0 42 -41 59 -85 34z"/>
<path d="M15143 19331 c-84 -67 -160 -153 -229 -256 -36 -55 -64 -93 -61 -85
57 180 59 191 41 211 -20 22 -43 24 -68 6 -19 -14 -36 -75 -92 -345 -40 -191
-39 -222 4 -222 38 0 63 30 96 115 42 108 126 261 195 358 70 97 134 158 139
132 2 -8 -20 -113 -49 -233 -34 -143 -50 -227 -45 -245 8 -32 39 -51 69 -41
31 9 201 177 247 244 21 30 50 69 65 85 l26 30 -6 -107 c-8 -118 1 -161 39
-197 31 -29 80 -26 84 6 2 12 -4 35 -13 52 -13 26 -14 53 -9 170 6 121 5 143
-10 165 -11 18 -25 26 -46 26 -34 0 -76 -41 -217 -210 -81 -97 -110 -126 -118
-119 -2 2 19 91 46 198 50 196 59 267 37 289 -24 24 -74 14 -125 -27z"/>
<path d="M23767 19269 c-137 -18 -227 -66 -227 -119 0 -57 50 -66 114 -20 69
50 244 75 350 51 57 -14 61 -22 33 -77 -66 -129 -221 -300 -369 -405 -124 -89
-152 -127 -113 -159 24 -20 57 -5 167 77 224 166 438 429 438 538 0 71 -79
110 -240 119 -47 2 -115 0 -153 -5z"/>
<path d="M19047 19203 c-8 -10 -18 -40 -22 -68 -9 -65 -25 -118 -39 -127 -6
-4 -27 -8 -46 -8 -20 0 -59 -6 -87 -13 l-51 -14 -10 68 c-6 36 -18 79 -28 93
-38 59 -156 87 -275 66 -156 -28 -361 -179 -527 -389 -50 -63 -57 -84 -42
-122 10 -24 18 -29 47 -29 28 0 37 6 51 31 76 139 181 254 314 342 102 67 158
87 249 87 61 0 73 -3 94 -25 22 -21 25 -33 25 -91 0 -134 -55 -273 -149 -377
-66 -73 -77 -97 -61 -127 20 -37 51 -24 125 53 78 81 123 157 154 262 20 68
21 70 53 71 18 1 57 7 86 14 29 7 55 10 58 7 3 -3 -11 -45 -31 -94 -50 -120
-67 -174 -60 -199 6 -27 31 -37 57 -23 24 13 74 119 113 240 l28 87 146 7
c191 10 231 16 245 38 9 15 6 22 -14 39 -24 19 -34 20 -182 15 -116 -4 -158
-2 -158 6 0 7 9 40 20 75 16 50 18 68 8 85 -21 41 -63 50 -91 20z"/>
<path d="M16480 19120 c-11 -11 -20 -28 -20 -37 0 -35 -48 -119 -86 -152 -85
-75 -181 -120 -225 -106 -53 17 -36 120 24 148 51 24 103 30 156 17 59 -14 91
-2 91 34 0 30 -15 42 -72 56 -99 25 -256 -28 -305 -102 -38 -57 -43 -131 -11
-178 74 -110 242 -85 377 55 35 36 64 65 65 65 2 0 6 -42 10 -92 8 -104 33
-169 78 -202 23 -16 32 -18 53 -8 31 14 34 56 6 72 -13 6 -23 28 -30 62 -19
103 -31 238 -25 291 6 47 4 57 -15 76 -26 26 -45 27 -71 1z"/>
<path d="M21433 19130 c-24 -10 -29 -24 -69 -200 -14 -63 -32 -136 -40 -162
l-15 -46 -74 -17 c-145 -32 -289 -105 -301 -152 -11 -41 -1 -58 37 -61 29 -2
45 5 87 38 55 44 205 115 210 100 5 -13 -73 -185 -109 -241 -34 -54 -37 -85
-9 -94 24 -8 79 24 99 57 8 13 43 86 77 163 l63 140 58 12 c85 18 158 19 177
4 38 -32 7 -162 -62 -265 -43 -64 -40 -116 8 -116 32 0 118 50 200 115 100 80
188 140 195 133 3 -3 -5 -36 -17 -74 -42 -132 -23 -255 44 -290 37 -19 94 -11
159 22 51 25 180 157 238 243 21 31 66 87 100 124 75 83 81 127 16 127 -24 0
-85 -61 -181 -181 -142 -177 -246 -267 -283 -244 -22 13 -11 104 25 207 49
139 52 161 23 182 -13 9 -31 16 -39 16 -29 0 -174 -77 -254 -134 -43 -31 -80
-55 -83 -53 -2 3 3 21 11 42 24 55 31 130 16 165 -26 62 -122 84 -262 61 -27
-4 -48 -4 -48 0 0 5 20 81 45 170 26 91 43 169 40 180 -5 15 -46 42 -58 38 -1
0 -12 -4 -24 -9z"/>
<path d="M17048 19038 c-11 -10 -17 -39 -21 -109 -15 -248 -189 -498 -382
-550 -22 -6 -46 -16 -52 -21 -21 -17 -15 -48 11 -59 33 -15 78 -5 164 36 91
43 179 131 247 246 65 110 93 182 111 282 19 113 18 134 -11 162 -27 28 -44
31 -67 13z"/>
<path d="M17277 19026 c-50 -19 -79 -45 -75 -70 2 -14 12 -22 30 -24 27 -3 27
-4 21 -65 -15 -164 66 -245 234 -235 65 4 92 11 158 44 99 48 165 110 165 155
0 44 -37 104 -81 133 -73 49 -154 69 -289 73 -91 2 -135 -1 -163 -11z m281
-91 c105 -24 170 -74 146 -112 -18 -30 -147 -91 -208 -98 -77 -10 -103 -1
-123 40 -14 28 -14 42 -5 90 8 38 8 63 2 75 -6 10 -10 22 -10 26 0 10 114 -2
198 -21z"/>
<path d="M19660 18981 c-24 -45 5 -151 75 -277 35 -63 107 -137 144 -149 11
-3 21 -11 21 -16 0 -9 -57 -84 -215 -284 -91 -115 -107 -141 -103 -168 6 -40
44 -33 91 15 52 54 191 223 281 342 95 125 265 314 351 392 76 68 90 89 80
117 -10 24 -57 40 -87 28 -25 -9 -189 -186 -289 -311 -28 -36 -55 -66 -60 -68
-4 -2 -28 16 -52 40 -49 50 -99 157 -121 262 -7 36 -19 73 -26 81 -18 22 -77
19 -90 -4z"/>
<path d="M22965 18634 c-180 -38 -262 -72 -332 -137 -26 -25 -59 -47 -73 -48
-34 -5 -40 -53 -10 -83 12 -12 29 -37 38 -56 19 -39 94 -94 150 -110 103 -29
305 -34 355 -8 20 10 23 41 4 56 -7 6 -69 14 -138 18 -132 6 -215 22 -255 48
-31 21 -30 32 4 40 164 36 211 50 275 79 87 40 119 76 115 125 -4 52 -70 89
-133 76z m25 -99 c0 -19 -244 -102 -272 -93 -18 6 73 57 140 79 53 17 132 25
132 14z"/>
<path d="M23524 18265 c-9 -21 3 -77 22 -103 11 -16 25 -22 53 -22 44 0 61 14
61 51 0 53 -119 118 -136 74z"/>
<path d="M6414 17626 c-18 -14 -18 -15 10 -25 15 -6 60 -16 100 -22 39 -5 89
-18 111 -28 45 -20 201 -81 209 -81 3 0 39 -20 80 -45 93 -57 168 -137 195
-210 28 -75 26 -98 -10 -139 -41 -47 -120 -83 -258 -117 -257 -64 -537 -44
-739 53 -133 63 -199 146 -204 255 -3 68 41 128 133 183 37 22 71 49 74 60 10
30 30 24 40 -12 11 -37 38 -47 63 -25 9 7 36 21 60 31 43 16 46 16 135 -11 82
-25 97 -33 140 -78 39 -41 50 -48 65 -39 9 6 18 26 20 44 3 26 -3 40 -29 66
-26 27 -47 36 -121 53 -49 12 -100 21 -113 21 -18 0 -24 6 -27 28 -3 25 -7 27
-50 30 -36 2 -63 -5 -120 -31 -40 -19 -96 -37 -125 -40 -67 -8 -105 -28 -164
-87 -84 -84 -103 -223 -46 -335 125 -247 608 -362 1045 -249 108 28 223 82
270 127 126 121 81 303 -110 447 -44 33 -97 69 -117 79 -71 37 -218 80 -301
90 -177 21 -196 21 -216 7z"/>
<path d="M2479 17596 c-108 -30 -269 -145 -284 -203 -3 -16 -22 -52 -41 -81
-70 -105 -95 -252 -58 -340 45 -108 182 -174 313 -151 135 25 366 176 454 297
74 102 99 248 58 338 -43 95 -166 155 -314 153 -45 0 -103 -6 -128 -13z m215
-71 c76 -20 109 -45 136 -101 42 -85 6 -215 -85 -313 -109 -117 -341 -233
-431 -217 -44 9 -102 60 -125 111 -24 51 -24 108 0 176 52 151 110 211 265
273 35 15 38 19 33 45 -4 19 -2 31 6 35 26 10 146 5 201 -9z"/>
<path d="M11857 17450 c-55 -10 -88 -25 -207 -99 -115 -71 -171 -128 -211
-215 -28 -60 -34 -85 -37 -164 -4 -78 -1 -102 18 -155 51 -141 133 -205 288
-227 237 -33 507 93 609 286 94 177 77 319 -52 444 -74 70 -160 114 -255 129
-73 12 -85 12 -153 1z m152 -120 c51 -25 81 -65 81 -104 0 -86 85 -69 92 19
l3 39 40 -58 c39 -58 40 -60 40 -150 0 -85 -2 -95 -34 -154 -79 -146 -247
-232 -453 -232 -184 0 -262 63 -283 231 -8 67 16 179 50 230 51 78 156 153
259 185 64 20 160 17 205 -6z"/>
<path d="M9189 17391 c-162 -109 -278 -312 -267 -469 6 -82 33 -138 98 -202
173 -174 438 -157 668 44 166 145 231 300 172 415 -57 112 -254 201 -446 201
-36 0 -59 6 -77 20 -38 30 -94 26 -148 -9z m308 -96 c120 -13 230 -71 263
-139 28 -60 26 -112 -10 -184 -61 -120 -244 -255 -383 -281 -133 -24 -267 41
-329 162 -43 84 -20 213 60 328 45 66 118 106 213 118 63 8 80 8 186 -4z"/>
<path d="M16080 17176 c-254 -76 -420 -227 -471 -430 -54 -215 148 -420 501
-509 69 -17 114 -21 240 -21 135 0 169 4 259 27 143 36 290 109 364 180 82 79
111 145 115 265 4 88 2 97 -27 157 -87 175 -316 280 -638 292 -109 4 -153 9
-153 18 0 24 -36 45 -76 44 -21 0 -73 -10 -114 -23z m518 -155 c180 -35 309
-103 360 -189 24 -41 27 -57 27 -132 0 -76 -3 -91 -30 -139 -39 -70 -91 -113
-200 -166 -139 -67 -242 -90 -405 -89 -161 1 -286 26 -399 79 -139 66 -200
127 -238 237 -17 49 -5 124 33 204 29 61 123 154 156 154 12 0 52 11 88 25 36
14 93 29 125 35 91 14 367 3 483 -19z"/>
<path d="M26736 17017 c-25 -25 -58 -113 -81 -222 -10 -43 -20 -178 -27 -346
-11 -264 -11 -277 8 -315 37 -75 148 -106 302 -85 100 14 327 86 354 113 24
24 23 45 -2 58 -16 9 -39 4 -108 -19 -146 -50 -245 -71 -331 -71 -69 0 -83 3
-107 23 l-27 24 12 254 c15 287 27 367 77 479 19 43 34 83 34 89 0 14 -41 41
-63 41 -10 0 -28 -10 -41 -23z"/>
<path d="M28827 16943 c-8 -10 -20 -38 -27 -62 -19 -72 -127 -377 -181 -511
-112 -278 -122 -321 -79 -335 39 -12 58 12 90 115 17 54 35 102 40 105 5 3 30
-18 57 -46 41 -44 76 -65 240 -146 109 -53 202 -93 215 -91 11 2 26 11 32 20
18 29 -23 58 -219 157 -99 50 -190 99 -203 109 -13 10 -25 33 -29 55 -5 32 -3
37 14 37 11 0 54 9 96 19 42 11 147 29 233 41 86 11 165 25 175 31 23 12 25
57 3 66 -25 9 -58 8 -218 -11 -147 -17 -258 -44 -303 -73 -31 -20 -29 -12 13
87 74 175 144 364 144 390 0 51 -60 79 -93 43z"/>
<path d="M2245 16630 c-17 -19 -18 -27 -7 -93 6 -40 14 -180 18 -312 7 -257 4
-299 -46 -620 -8 -52 -7 -63 9 -85 39 -53 81 -33 81 39 0 25 10 100 22 166 18
104 22 168 25 478 3 197 2 370 -1 383 -8 32 -41 64 -64 64 -11 0 -27 -9 -37
-20z"/>
<path d="M27670 16566 c-30 -13 -67 -27 -81 -32 -14 -5 -56 -42 -92 -82 -105
-116 -123 -215 -51 -288 45 -44 98 -57 214 -52 73 4 111 11 163 32 38 16 69
26 70 24 17 -33 30 -45 63 -62 33 -17 55 -20 139 -19 176 4 325 57 368 131 53
91 -63 199 -252 234 -29 5 -65 14 -78 19 -30 11 -63 -4 -63 -30 0 -31 34 -51
121 -70 47 -10 96 -24 109 -31 35 -18 80 -61 80 -77 0 -35 -198 -93 -313 -93
-93 0 -97 23 -21 112 49 58 52 68 26 91 -21 19 -49 22 -72 7 -11 -6 -28 4 -66
40 -29 27 -68 57 -88 67 -39 18 -42 24 -24 52 32 52 -57 68 -152 27z m118
-140 c108 -55 141 -130 75 -169 -52 -30 -163 -58 -239 -60 -60 -2 -76 1 -94
18 -18 16 -21 28 -17 63 5 50 41 99 107 150 38 29 49 33 83 28 21 -4 60 -17
85 -30z"/>
<path d="M6485 16417 c-34 -19 -53 -22 -129 -19 -79 3 -94 0 -142 -23 -68 -33
-81 -54 -54 -88 23 -29 25 -37 7 -37 -20 0 -109 -90 -139 -140 -53 -91 -71
-165 -66 -275 4 -87 8 -108 33 -154 36 -65 81 -106 160 -142 194 -91 446 -93
660 -4 173 71 262 143 312 251 22 49 24 66 21 147 -6 167 -79 278 -243 372
-131 75 -235 96 -235 47 0 -18 6 -23 80 -64 82 -46 200 -130 219 -157 29 -41
87 -172 95 -214 5 -27 2 -49 -13 -82 -53 -120 -119 -166 -334 -231 -212 -64
-477 -26 -590 84 -41 39 -77 123 -77 176 0 44 34 152 62 196 52 84 88 153 88
170 0 9 17 29 38 43 67 47 118 60 240 61 100 1 115 3 124 20 14 25 -5 64 -38
76 -32 13 -31 13 -79 -13z"/>
<path d="M9374 16325 c-132 -32 -259 -128 -307 -232 -18 -39 -22 -66 -22 -148
0 -93 2 -105 32 -165 55 -111 146 -189 278 -240 53 -21 77 -24 210 -24 123 0
167 4 245 23 116 28 221 76 281 130 85 74 151 244 135 344 -15 91 -77 171
-162 208 -44 20 -169 49 -210 49 -14 0 -46 9 -71 21 -102 46 -294 62 -409 34z
m230 -64 c3 -5 -10 -12 -30 -16 -83 -15 -173 -70 -151 -91 3 -3 43 4 88 15 56
14 114 21 180 21 55 0 101 4 104 10 10 17 54 11 132 -15 95 -33 133 -56 163
-101 49 -74 25 -239 -51 -344 -73 -101 -387 -177 -571 -139 -205 43 -329 185
-329 375 0 128 102 245 245 280 60 14 212 18 220 5z"/>
<path d="M9791 16176 c-6 -8 -14 -36 -17 -63 -5 -38 -3 -52 10 -62 15 -12 21
-11 44 6 34 25 44 99 16 120 -23 17 -39 16 -53 -1z"/>
<path d="M11923 16318 c-38 -62 -74 -154 -70 -177 3 -14 -4 -78 -16 -141 -17
-96 -21 -154 -21 -350 -1 -266 4 -306 39 -322 50 -23 54 -7 54 222 1 274 30
494 85 649 19 52 21 102 4 119 -16 16 -65 15 -75 0z"/>
<path d="M15675 15796 c-179 -41 -285 -110 -255 -166 14 -27 23 -26 88 15 54
32 147 63 158 52 3 -2 -10 -14 -29 -25 -57 -36 -156 -147 -184 -208 -52 -114
-39 -251 34 -361 74 -112 195 -173 408 -208 223 -37 461 3 679 112 155 78 244
195 254 335 4 59 1 75 -22 122 -65 132 -261 239 -574 313 -90 21 -138 25 -302
29 -142 3 -211 0 -255 -10z m505 -121 c164 -34 358 -105 443 -164 63 -43 96
-89 103 -144 6 -40 2 -57 -24 -110 -37 -75 -66 -104 -152 -152 -122 -69 -339
-125 -483 -125 -186 0 -396 59 -467 130 -105 105 -103 290 5 418 71 85 207
142 338 142 57 0 89 5 103 14 10 8 28 13 39 10 11 -2 54 -11 95 -19z"/>
<path d="M27220 15629 c-70 -12 -165 -56 -215 -100 -25 -22 -52 -63 -77 -116
-32 -69 -43 -82 -67 -88 -16 -3 -37 -15 -47 -26 -24 -26 -8 -53 32 -57 l29 -3
0 -118 c0 -103 3 -122 19 -140 21 -23 55 -28 73 -10 8 8 10 47 6 128 -9 172
-23 161 210 161 191 0 311 -15 343 -41 21 -17 17 -37 -17 -109 -18 -38 -33
-88 -36 -121 -5 -48 -3 -59 16 -78 59 -59 245 19 292 124 26 57 25 154 -1 188
-29 37 -116 76 -185 82 -33 4 -91 14 -130 23 -53 13 -116 17 -262 17 -122 0
-193 4 -193 10 0 28 64 117 102 143 65 44 104 54 180 46 54 -5 73 -3 93 10 27
18 33 47 12 64 -19 16 -114 22 -177 11z m466 -440 c24 -27 23 -87 -3 -131 -21
-36 -76 -78 -104 -78 -16 0 -16 3 -3 43 35 108 68 187 79 187 6 0 20 -9 31
-21z"/>
<path d="M28425 15333 c-74 -17 -205 -62 -287 -98 -207 -91 -353 -236 -296
-293 27 -27 58 -12 136 66 53 54 100 90 150 116 80 41 256 106 342 126 63 15
80 25 80 51 0 33 -58 48 -125 32z"/>
<path d="M2365 15254 c-100 -24 -179 -51 -267 -90 -93 -42 -141 -74 -164 -110
-15 -22 -15 -26 0 -49 26 -39 58 -32 115 24 39 38 68 56 142 85 102 39 285 86
335 86 47 0 84 -34 84 -76 0 -68 -99 -233 -269 -448 -119 -150 -145 -186 -192
-262 -49 -81 -49 -111 1 -137 57 -30 236 -18 425 28 182 44 388 102 433 121
41 17 41 51 0 74 -25 14 -34 13 -120 -17 -145 -49 -181 -59 -376 -102 -186
-42 -269 -50 -289 -30 -16 16 11 56 155 239 172 218 186 237 247 337 86 142
104 213 68 274 -38 64 -184 88 -328 53z"/>
<path d="M6705 15170 c-174 -21 -378 -131 -530 -284 -125 -126 -178 -235 -176
-363 2 -139 59 -233 180 -297 136 -71 373 -88 571 -41 336 81 549 206 640 377
32 58 34 70 35 153 0 74 -4 98 -23 136 -45 93 -149 172 -289 220 -32 11 -71
33 -88 49 -46 44 -190 67 -320 50z m290 -160 c221 -59 345 -165 345 -297 0
-54 -39 -147 -85 -201 -100 -119 -427 -250 -669 -268 -149 -12 -317 27 -403
91 -18 15 -45 50 -60 78 -87 166 40 401 297 550 42 24 176 60 265 70 77 9 231
-2 310 -23z"/>
<path d="M9587 15068 c-9 -7 -21 -26 -28 -43 -16 -42 -35 -288 -28 -360 6 -65
-3 -225 -22 -370 -15 -114 -11 -139 20 -143 28 -4 36 6 56 73 26 85 44 242 50
435 3 102 11 231 17 287 9 81 8 106 -2 118 -15 18 -40 19 -63 3z"/>
<path d="M11854 14835 c-94 -26 -253 -132 -334 -222 -28 -32 -65 -87 -83 -123
-28 -57 -32 -74 -32 -150 0 -73 4 -93 28 -142 54 -109 156 -160 321 -160 124
0 204 28 333 114 112 75 175 142 225 242 82 162 19 325 -160 414 -68 33 -85
37 -161 39 -51 2 -107 -3 -137 -12z m129 -106 c12 -6 36 -27 52 -46 25 -29 35
-34 54 -28 12 4 28 20 35 37 l13 30 38 -33 c72 -63 93 -155 56 -241 -72 -167
-294 -319 -466 -318 -65 1 -161 25 -198 50 -53 37 -70 72 -70 151 0 57 6 80
33 135 18 37 55 88 84 117 51 50 157 120 220 144 40 15 121 16 149 2z"/>
<path d="M27047 14692 c-15 -16 -16 -35 -11 -139 6 -111 6 -120 -12 -127 -10
-4 -73 -14 -139 -22 -126 -16 -158 -29 -178 -71 -10 -22 -8 -28 12 -44 28 -23
40 -21 202 26 62 18 117 30 120 27 8 -9 -7 -160 -26 -251 -8 -40 -15 -85 -15
-100 0 -53 45 -68 78 -26 25 32 52 175 52 277 0 110 7 124 72 137 82 16 193
24 227 16 22 -5 31 -12 31 -26 0 -23 -25 -75 -49 -104 -38 -44 -100 -163 -107
-202 -6 -37 -4 -43 21 -59 63 -41 203 33 376 202 59 57 112 104 118 104 7 0
11 -34 12 -102 0 -122 13 -168 52 -186 70 -34 147 37 237 216 70 142 76 185
27 190 -16 2 -35 -3 -44 -10 -9 -7 -40 -64 -70 -127 -55 -118 -88 -171 -104
-171 -13 0 -11 106 3 191 15 84 1 122 -45 127 -38 5 -147 -69 -263 -178 -102
-96 -178 -154 -195 -148 -6 2 18 46 52 98 100 153 107 213 29 252 -44 22 -186
24 -280 3 -99 -22 -92 -29 -84 93 8 129 0 152 -50 152 -19 0 -40 -8 -49 -18z"/>
<path d="M15669 14650 c-176 -17 -304 -63 -304 -109 0 -43 23 -46 151 -22 104
20 136 22 254 16 166 -8 247 -23 372 -68 183 -66 330 -173 385 -280 37 -73 44
-186 15 -244 -37 -71 -108 -116 -268 -168 -121 -39 -204 -50 -404 -49 -257 0
-532 44 -648 103 -54 27 -79 88 -62 149 15 56 95 149 162 190 111 66 309 114
459 111 98 -3 129 11 129 57 0 55 -95 68 -280 39 -217 -35 -371 -111 -484
-236 -63 -70 -86 -122 -86 -198 0 -168 121 -242 470 -291 197 -27 473 -28 633
0 232 39 405 132 469 251 20 38 23 58 23 149 0 97 -2 110 -31 170 -88 185
-299 327 -599 404 -51 13 -254 39 -274 35 -3 -1 -40 -5 -82 -9z"/>
<path d="M28630 14409 c-77 -15 -151 -59 -192 -114 -21 -27 -40 -62 -44 -78
-7 -32 -29 -46 -47 -28 -16 16 -52 14 -67 -3 -24 -30 -8 -60 49 -87 39 -19 60
-37 72 -62 55 -107 298 -226 352 -172 9 9 17 23 17 31 0 15 -12 21 -137 68
-89 34 -137 65 -141 92 -3 19 6 23 85 38 113 23 194 59 238 107 30 33 35 46
35 88 0 104 -80 147 -220 120z m105 -83 c30 -21 10 -64 -45 -98 -48 -29 -195
-76 -206 -65 -12 12 47 98 86 123 41 27 104 53 131 54 8 0 24 -6 34 -14z"/>
<path d="M9560 13920 c-19 -37 -21 -57 -19 -213 1 -177 -27 -445 -71 -682 -30
-163 -35 -251 -16 -280 17 -27 50 -33 62 -13 4 7 13 58 20 113 7 55 29 188 48
295 45 241 74 470 82 651 8 155 4 169 -52 169 -29 0 -36 -5 -54 -40z"/>
<path d="M2564 13935 c-110 -15 -328 -56 -413 -80 -66 -17 -101 -47 -85 -73
22 -35 58 -37 126 -9 68 29 275 71 428 88 135 15 396 17 410 3 17 -16 -49 -69
-134 -108 -91 -42 -344 -191 -374 -220 -20 -20 -22 -26 -11 -49 13 -29 62 -52
154 -72 33 -7 114 -25 180 -39 244 -53 395 -117 395 -167 0 -29 -70 -75 -186
-123 -232 -94 -436 -142 -643 -149 -49 -1 -66 -6 -75 -20 -9 -15 -7 -22 13
-38 56 -46 393 -4 616 78 22 8 63 22 90 32 128 46 243 119 270 172 23 44 18
72 -20 117 -63 73 -215 130 -494 186 -96 20 -176 38 -179 41 -12 11 28 36 182
115 160 81 282 158 326 205 32 34 17 65 -47 95 -44 22 -63 24 -238 26 -119 2
-228 -2 -291 -11z"/>
<path d="M6362 13845 c-117 -26 -192 -77 -176 -120 8 -20 43 -17 153 14 134
38 248 19 138 -23 -82 -31 -196 -107 -254 -169 -68 -73 -124 -175 -147 -268
-21 -84 -20 -127 3 -217 38 -146 132 -255 267 -312 170 -71 301 -78 481 -26
274 79 480 214 540 353 58 135 13 324 -110 459 -149 164 -378 277 -624 309
-137 18 -187 18 -271 0z m476 -166 c12 -5 27 -20 34 -34 16 -35 45 -41 72 -16
l23 22 64 -43 c220 -145 323 -357 250 -510 -52 -108 -196 -202 -436 -284 -98
-34 -121 -38 -210 -39 -121 0 -212 26 -306 89 -156 103 -210 309 -128 491 67
149 288 313 449 334 67 9 148 5 188 -10z"/>
<path d="M28453 13705 c-24 -17 -50 -90 -78 -220 -11 -52 -24 -86 -37 -97 -27
-24 -42 -23 -35 2 3 10 -1 24 -9 31 -23 19 -53 -9 -151 -138 -50 -65 -113
-140 -142 -166 -91 -86 -225 -131 -265 -91 -21 21 -21 29 14 137 45 142 39
197 -21 197 -34 0 -59 -32 -59 -75 0 -16 -9 -64 -20 -105 -11 -41 -20 -101
-20 -132 0 -49 4 -62 28 -89 52 -59 172 -57 292 3 60 31 127 90 225 198 40 44
131 120 145 120 4 0 5 -24 2 -53 -5 -66 13 -89 52 -64 18 12 26 31 35 79 16
95 30 102 273 133 162 21 172 24 176 57 3 24 -1 28 -36 37 -39 11 -185 -4
-287 -29 -52 -12 -75 -12 -75 0 0 6 18 52 40 104 43 101 49 136 24 160 -20 20
-43 20 -71 1z"/>
<path d="M30060 13585 c-10 -13 -11 -29 -3 -78 13 -74 2 -180 -21 -206 -16
-18 -116 -76 -116 -68 0 3 7 20 15 39 12 29 12 38 1 53 -20 27 -48 11 -116
-65 -55 -62 -178 -166 -186 -157 -2 1 3 22 11 45 8 22 12 49 8 59 -9 26 -34
53 -49 53 -18 0 -54 -40 -54 -61 0 -9 -11 -37 -25 -60 -34 -59 -33 -113 0
-135 58 -38 199 20 299 122 52 54 53 54 67 33 15 -22 49 -28 85 -16 17 6 23 3
27 -14 10 -39 49 -20 81 39 35 66 65 80 179 89 84 5 127 22 127 48 0 28 -40
38 -129 32 -47 -3 -95 -9 -105 -13 -17 -6 -18 -4 -12 17 11 40 19 165 12 193
-14 55 -69 84 -96 51z"/>
<path d="M11766 13567 c-21 -21 -50 -116 -77 -252 -22 -110 -28 -293 -17 -541
11 -227 10 -261 -6 -363 -17 -101 -17 -114 -3 -128 23 -23 53 -7 73 40 16 37
19 92 25 462 7 449 12 499 60 635 44 121 45 134 18 154 -31 22 -46 20 -73 -7z"/>
<path d="M15905 13446 c-18 -13 -20 -29 -22 -228 -1 -152 -7 -257 -22 -368
-12 -85 -33 -265 -47 -400 -13 -135 -36 -312 -49 -395 -45 -271 -44 -325 5
-325 30 0 47 33 58 115 6 44 22 150 36 235 14 85 37 263 51 395 14 132 30 269
36 305 28 187 49 399 49 508 0 117 -1 124 -25 147 -28 29 -43 31 -70 11z"/>
<path d="M27176 13410 c-75 -24 -172 -89 -212 -143 -92 -121 -84 -307 15 -372
45 -30 143 -41 226 -26 80 14 251 101 305 154 84 83 98 163 45 253 -25 42 -82
78 -146 91 -16 3 -29 12 -29 20 0 19 -61 43 -107 42 -21 0 -65 -9 -97 -19z
m241 -138 c111 -58 96 -145 -39 -233 -155 -100 -326 -117 -369 -37 -16 30 -5
138 20 185 19 38 59 81 96 102 13 8 59 10 135 8 94 -3 123 -7 157 -25z"/>
<path d="M29150 13375 c-177 -55 -329 -260 -435 -586 -41 -126 -42 -176 -6
-213 20 -19 23 -20 63 -6 35 12 49 25 76 70 59 99 61 160 7 160 -14 0 -25 2
-25 4 0 12 66 169 97 230 47 96 88 150 148 196 92 71 195 101 203 59 9 -49
-99 -133 -220 -170 -49 -15 -69 -26 -74 -42 -7 -21 16 -47 41 -47 28 0 167 41
204 59 114 59 182 172 142 237 -36 59 -124 79 -221 49z"/>
<path d="M30483 13337 c-45 -17 -66 -41 -66 -77 0 -52 65 -107 238 -199 95
-51 156 -95 184 -137 28 -41 27 -51 -11 -74 -49 -30 -117 -40 -290 -43 -138
-2 -159 -5 -178 -22 -11 -10 -20 -28 -18 -39 3 -19 13 -22 88 -29 176 -16 393
8 466 53 64 40 68 111 11 197 -44 65 -111 115 -242 179 -127 62 -150 78 -142
97 7 19 56 26 142 20 59 -5 74 -3 88 12 16 15 16 20 4 38 -8 12 -25 25 -38 28
-40 11 -202 8 -236 -4z"/>
<path d="M3269 11969 c-31 -31 -95 -174 -144 -324 l-43 -130 -48 -3 c-76 -5
-206 40 -254 88 -22 22 -42 51 -46 64 -8 32 36 110 105 188 55 60 63 91 31
108 -44 23 -73 9 -118 -60 -120 -181 -132 -222 -91 -306 42 -87 149 -140 321
-159 32 -4 60 -11 64 -16 3 -6 -5 -43 -19 -82 -31 -88 -77 -256 -77 -279 0
-24 44 -51 69 -43 22 7 35 40 51 135 6 36 18 88 25 115 8 28 19 75 25 105 6
30 14 60 18 65 4 6 32 21 64 32 88 34 140 70 136 96 -4 30 -49 34 -92 8 -36
-22 -66 -27 -66 -11 0 5 18 47 39 92 22 46 50 108 64 138 13 30 40 75 60 98
21 24 37 52 37 63 0 40 -76 53 -111 18z"/>
<path d="M9360 11874 c-145 -38 -284 -133 -345 -238 -85 -146 -87 -357 -3
-488 107 -169 335 -255 538 -204 173 43 330 162 400 302 30 60 34 79 34 144 0
109 -30 169 -142 281 -48 48 -96 102 -107 120 -24 39 -73 75 -124 89 -51 14
-186 11 -251 -6z m205 -144 c83 -29 103 -44 107 -82 3 -32 4 -33 50 -33 58 -1
83 -22 129 -108 46 -86 47 -168 4 -245 -40 -74 -105 -133 -191 -176 -161 -80
-275 -85 -424 -19 -59 26 -137 100 -163 156 -38 79 -40 229 -5 322 37 100 138
201 188 190 14 -3 37 -1 51 4 45 18 191 13 254 -9z"/>
<path d="M6674 11758 c-4 -6 -6 -35 -5 -64 1 -29 -5 -99 -13 -156 -20 -134
-21 -213 -12 -563 6 -214 5 -302 -4 -335 -46 -176 -53 -234 -54 -445 0 -215
13 -344 41 -398 11 -22 20 -28 41 -25 24 3 27 7 26 43 0 22 -6 96 -13 165 -9
81 -11 171 -7 255 6 118 9 132 29 147 26 20 26 28 30 653 2 204 6 393 11 420
4 28 14 92 22 143 15 95 13 124 -14 155 -17 19 -67 23 -78 5z"/>
<path d="M11629 11511 c-55 -8 -79 -25 -79 -56 0 -18 -8 -25 -45 -34 -119 -30
-217 -97 -257 -175 -13 -24 -23 -68 -26 -108 -4 -59 -1 -75 22 -122 48 -99
150 -155 314 -175 145 -18 260 3 395 70 226 114 270 276 122 446 -69 78 -184
135 -310 153 -38 5 -74 9 -80 8 -5 0 -31 -4 -56 -7z m214 -165 c18 -7 45 -29
60 -50 33 -42 58 -46 85 -11 l20 26 21 -30 c39 -54 51 -95 41 -133 -16 -57
-74 -114 -153 -152 -113 -54 -185 -69 -307 -63 -136 6 -198 26 -255 81 -39 37
-45 48 -45 83 0 73 12 105 55 149 44 44 115 76 220 99 80 18 217 19 258 1z"/>
<path d="M2765 10692 c-203 -61 -340 -276 -264 -412 33 -58 77 -74 249 -90
158 -15 261 -36 350 -73 164 -67 306 -201 285 -268 -22 -69 -194 -159 -335
-175 -77 -8 -179 11 -253 48 -73 36 -122 36 -122 -1 0 -57 149 -127 295 -138
135 -10 324 49 416 130 118 103 112 214 -17 337 -128 122 -296 192 -520 215
-222 24 -226 25 -253 46 -44 35 -30 100 42 201 25 35 50 56 99 80 123 60 273
49 576 -43 72 -23 162 -43 199 -46 59 -5 74 -2 121 20 73 36 102 68 88 96 -23
43 -71 37 -134 -15 -37 -31 -53 -30 -199 12 -268 78 -308 86 -438 90 -100 3
-137 0 -185 -14z"/>
<path d="M9273 10519 c-49 -19 -113 -70 -113 -89 0 -4 6 -13 14 -19 10 -9 25
-6 62 13 27 13 63 27 79 30 24 5 20 1 -18 -19 -221 -115 -346 -315 -335 -535
6 -133 68 -229 181 -283 86 -40 138 -50 235 -44 164 10 366 94 468 194 236
233 116 580 -253 730 -114 47 -238 55 -320 22z m290 -130 c79 4 218 -106 271
-214 54 -111 52 -187 -8 -289 -82 -140 -406 -251 -589 -202 -76 21 -148 71
-171 121 -42 88 -14 253 63 372 87 134 250 233 356 216 22 -3 57 -5 78 -4z"/>
<path d="M11754 10312 c-39 -26 -42 -107 -22 -579 11 -260 10 -318 -6 -525 -9
-128 -21 -267 -26 -308 -6 -60 -5 -78 6 -90 33 -35 67 27 85 158 27 193 37
436 32 789 -3 246 -1 386 7 438 10 66 9 79 -4 101 -16 24 -50 31 -72 16z"/>
<path d="M29588 9943 c6 -2 18 -2 25 0 6 3 1 5 -13 5 -14 0 -19 -2 -12 -5z"/>
<path d="M29378 9852 c-46 -28 -31 -49 21 -31 20 7 31 17 29 27 -4 22 -19 24
-50 4z"/>
<path d="M29785 9850 c-27 -4 -78 -5 -112 -2 -60 5 -123 -10 -123 -28 0 -19
66 -30 120 -20 30 6 60 10 65 10 116 -12 165 -10 171 5 13 34 -36 48 -121 35z"/>
<path d="M29957 9853 c-14 -13 -6 -24 15 -21 27 4 36 28 11 28 -11 0 -23 -3
-26 -7z"/>
<path d="M29265 9701 c-3 -5 -1 -12 5 -16 12 -7 30 2 30 16 0 12 -27 12 -35 0z"/>
<path d="M31120 9690 c0 -5 5 -10 10 -10 6 0 10 5 10 10 0 6 -4 10 -10 10 -5
0 -10 -4 -10 -10z"/>
<path d="M29623 9545 c-34 -14 -44 -41 -19 -51 8 -3 38 0 67 6 47 11 68 14
127 19 8 0 12 9 10 18 -4 22 -138 28 -185 8z"/>
<path d="M30090 9530 c0 -5 5 -10 10 -10 6 0 10 5 10 10 0 6 -4 10 -10 10 -5
0 -10 -4 -10 -10z"/>
<path d="M29890 9519 c0 -5 5 -7 10 -4 6 3 10 8 10 11 0 2 -4 4 -10 4 -5 0
-10 -5 -10 -11z"/>
<path d="M29903 9438 c-45 -22 -22 -50 33 -41 41 8 57 22 43 39 -13 16 -45 17
-76 2z"/>
<path d="M29470 9420 c0 -5 9 -10 20 -10 11 0 20 5 20 10 0 6 -9 10 -20 10
-11 0 -20 -4 -20 -10z"/>
<path d="M30327 9373 c-14 -13 -6 -33 12 -33 19 0 35 23 24 34 -8 8 -28 8 -36
-1z"/>
<path d="M29535 9334 c-14 -11 -32 -13 -60 -9 -48 7 -92 -17 -65 -35 8 -6 29
-8 45 -5 17 3 46 5 66 5 37 -1 77 29 64 49 -9 15 -26 13 -50 -5z"/>
<path d="M29730 9310 c0 -5 4 -10 9 -10 6 0 13 5 16 10 3 6 -1 10 -9 10 -9 0
-16 -4 -16 -10z"/>
<path d="M3390 8728 c-71 -35 -227 -182 -301 -283 -98 -134 -150 -213 -180
-270 -17 -33 -39 -76 -49 -95 -11 -19 -34 -79 -51 -133 -26 -81 -38 -103 -66
-124 -38 -29 -42 -52 -13 -78 16 -15 20 -31 20 -85 0 -244 178 -400 457 -400
304 0 607 209 630 434 7 67 -13 105 -77 146 -59 38 -89 48 -169 60 -36 6 -115
17 -176 26 -139 20 -326 14 -435 -15 -100 -27 -113 -27 -105 2 16 54 156 305
219 395 48 68 170 214 207 248 19 18 61 50 93 73 56 39 63 41 122 39 71 -3
101 14 90 50 -16 50 -126 55 -216 10z m114 -889 c151 -28 256 -86 256 -143 0
-35 -71 -145 -126 -195 -67 -61 -131 -95 -243 -127 -80 -23 -105 -26 -194 -22
-155 7 -255 51 -314 138 -30 43 -42 88 -50 181 -7 95 0 127 33 139 60 23 252
43 449 47 44 1 129 -7 189 -18z"/>
<path d="M9435 8465 c-14 -13 -25 -35 -25 -47 0 -13 -8 -35 -17 -48 -26 -37
-32 -460 -8 -576 9 -43 20 -166 24 -273 8 -170 11 -196 27 -208 23 -17 35 -16
59 1 17 12 18 26 12 207 -4 107 -11 232 -16 279 -21 178 -41 424 -41 508 l0
87 37 31 c25 21 34 36 30 47 -9 25 -54 21 -82 -8z"/>
<path d="M11720 8241 c-78 -11 -103 -27 -183 -117 -100 -113 -122 -164 -122
-284 0 -81 4 -102 24 -144 50 -99 181 -197 302 -225 106 -25 248 -7 347 43
126 64 208 221 200 380 -7 127 -60 210 -179 279 -84 48 -279 82 -389 68z m293
-131 c157 -59 214 -163 173 -318 -30 -111 -85 -175 -183 -212 -112 -43 -241
-37 -347 16 -68 34 -104 69 -132 129 -72 153 35 354 204 381 36 6 48 2 82 -20
22 -14 48 -26 59 -26 27 0 44 25 38 56 -4 24 -2 26 22 21 15 -3 52 -15 84 -27z"/>
<path d="M9535 6684 c-17 -18 -17 -56 5 -279 5 -49 14 -194 21 -320 13 -231 6
-367 -30 -605 -10 -68 0 -92 37 -88 40 5 51 40 73 231 23 205 24 400 4 677 -8
112 -12 237 -8 277 5 58 3 77 -11 98 -19 30 -66 34 -91 9z"/>
<path d="M6971 6651 c-14 -9 -21 -39 -47 -196 -11 -74 -16 -168 -16 -360 1
-347 12 -677 24 -692 6 -7 18 -13 27 -13 43 1 42 -7 45 511 l2 494 27 90 c32
109 34 150 8 165 -24 12 -51 13 -70 1z"/>
</g>
</svg>
