<?xml version="1.0" standalone="no"?>
<!DOCTYPE svg PUBLIC "-//W3C//DTD SVG 20010904//EN"
 "http://www.w3.org/TR/2001/REC-SVG-20010904/DTD/svg10.dtd">
<svg version="1.0" xmlns="http://www.w3.org/2000/svg"
 width="3264.000000pt" height="2448.000000pt" viewBox="0 0 3264.000000 2448.000000"
 preserveAspectRatio="xMidYMid meet">
<metadata>
Created by potrace 1.12, written by Peter Selinger 2001-2015
</metadata>
<g transform="translate(0.000000,2448.000000) scale(0.100000,-0.100000)"
fill="#000000" stroke="none">
<path d="M3597 24473 c-12 -11 -8 -23 8 -23 8 0 15 7 15 15 0 16 -12 20 -23 8z"/>
<path d="M3835 24470 c-5 -8 -23 -9 -56 -5 -31 4 -49 3 -49 -3 0 -6 21 -14 46
-18 35 -5 49 -3 62 9 9 9 13 19 10 22 -3 4 -9 1 -13 -5z"/>
<path d="M4505 24470 c-16 -5 -70 -7 -118 -4 -70 4 -88 2 -85 -8 5 -15 -54
-14 1803 -22 2208 -10 4474 -31 5575 -51 146 -3 441 -7 655 -10 642 -8 1086
-15 1345 -20 400 -8 880 -15 1680 -25 415 -5 881 -12 1035 -15 154 -3 415 -7
580 -10 165 -3 419 -7 565 -10 252 -5 506 -8 1865 -20 325 -3 671 -8 770 -10
99 -3 468 -7 820 -10 352 -3 804 -7 1005 -10 201 -3 577 -7 835 -10 495 -6
1527 -21 2000 -30 605 -11 899 -15 1355 -21 261 -3 549 -7 640 -9 152 -3 1939
-16 2305 -16 141 0 1740 -1 1805 -1 14 0 120 1 236 2 128 1 227 -3 252 -9 27
-8 55 -8 84 -2 24 5 274 7 565 6 335 -2 525 0 529 6 4 6 11 6 20 -2 11 -9 14
-8 14 6 0 15 -12 17 -97 16 -118 -2 -537 5 -988 15 -181 4 -348 6 -370 4 -22
-2 -60 -3 -85 -3 -73 0 -323 1 -350 1 -14 0 -36 1 -50 2 -14 1 -86 1 -160 1
-223 -3 -2657 8 -3210 13 -476 5 -629 8 -1250 21 -124 3 -398 7 -610 10 -212
3 -450 7 -530 10 -80 2 -316 7 -525 10 -209 3 -499 7 -645 10 -146 3 -463 7
-705 10 -426 5 -1447 19 -2250 30 -1453 20 -1812 25 -2235 30 -1039 11 -1423
16 -2335 30 -1173 18 -1593 24 -2175 30 -250 3 -556 7 -680 10 -124 3 -423 7
-665 10 -242 3 -618 7 -835 10 -217 3 -600 7 -850 10 -250 3 -637 8 -860 10
-851 11 -2097 17 -3170 15 -613 0 -1126 0 -1140 0 -36 2 -58 2 -120 1 -30 0
-66 0 -80 1 -20 1 -228 1 -355 0 -439 -3 -562 -4 -570 -2 -5 1 -14 1 -20 0
-16 -3 -127 0 -160 5 -16 2 -43 0 -60 -5z"/>
<path d="M2490 24460 c0 -5 7 -10 15 -10 8 0 15 5 15 10 0 6 -7 10 -15 10 -8
0 -15 -4 -15 -10z"/>
<path d="M3165 24460 c4 -6 11 -8 16 -5 14 9 11 15 -7 15 -8 0 -12 -5 -9 -10z"/>
<path d="M3350 24460 c0 -5 16 -10 35 -10 19 0 35 5 35 10 0 6 -16 10 -35 10
-19 0 -35 -4 -35 -10z"/>
<path d="M3680 24460 c0 -5 9 -10 20 -10 11 0 20 5 20 10 0 6 -9 10 -20 10
-11 0 -20 -4 -20 -10z"/>
<path d="M3975 24460 c-51 -7 -27 -9 195 -15 64 -2 110 4 110 13 0 9 -242 11
-305 2z"/>
<path d="M3468 24453 c6 -2 18 -2 25 0 6 3 1 5 -13 5 -14 0 -19 -2 -12 -5z"/>
<path d="M3538 24453 c7 -3 16 -2 19 1 4 3 -2 6 -13 5 -11 0 -14 -3 -6 -6z"/>
<path d="M26504 24269 c-8 -14 14 -29 33 -22 7 3 13 11 13 19 0 17 -36 19 -46
3z"/>
<path d="M8645 23780 c-11 -4 -31 -20 -45 -34 l-24 -27 26 -22 27 -22 -42
-115 c-33 -88 -51 -124 -80 -152 -34 -33 -37 -40 -31 -76 5 -32 0 -52 -30
-113 -46 -97 -52 -122 -31 -143 28 -28 53 -18 46 18 -3 11 65 204 78 225 7 11
29 -4 98 -68 119 -111 151 -131 217 -140 98 -13 107 27 11 48 -50 11 -67 22
-138 89 -91 86 -132 131 -132 145 0 17 91 46 197 63 71 11 109 22 123 36 17
16 18 20 5 29 -19 13 -104 4 -200 -21 -91 -24 -100 -24 -100 -5 0 8 18 60 40
115 43 107 51 164 24 174 -9 3 -16 6 -17 5 -1 0 -11 -4 -22 -9z"/>
<path d="M9391 23729 c-10 -17 -27 -71 -36 -120 -10 -48 -23 -96 -30 -105 -6
-9 -47 -31 -91 -48 -82 -32 -103 -58 -70 -85 12 -10 24 -8 66 15 27 15 53 24
57 20 4 -4 0 -33 -9 -66 -13 -48 -13 -63 -3 -76 17 -24 31 -11 44 43 7 27 19
67 28 90 16 44 17 45 128 82 33 11 95 36 138 56 44 20 85 34 92 31 20 -7 5
-55 -104 -346 -35 -92 -24 -140 33 -140 31 0 100 77 182 200 88 134 116 166
134 155 18 -11 2 -100 -37 -197 -27 -70 -32 -92 -23 -108 12 -23 35 -26 47 -7
29 47 83 250 83 314 0 52 -12 73 -42 73 -42 0 -80 -34 -149 -133 -40 -56 -92
-126 -116 -154 -70 -83 -80 -68 -37 51 115 315 123 351 80 362 -31 8 -50 2
-166 -51 -101 -47 -185 -73 -196 -62 -7 7 21 99 49 167 28 64 -17 97 -52 39z"/>
<path d="M8203 23728 c-7 -12 -69 -261 -108 -438 -18 -79 -19 -134 -4 -163 25
-47 59 -49 87 -5 23 36 15 59 -17 51 -24 -6 -31 14 -21 63 8 40 90 358 111
430 7 23 9 48 6 57 -7 20 -42 22 -54 5z"/>
<path d="M3293 23682 c-7 -4 -10 -27 -8 -57 2 -28 -1 -90 -5 -140 -16 -169
-25 -320 -25 -412 1 -78 4 -97 21 -120 38 -51 63 -52 150 -2 153 87 224 177
194 249 -13 31 -54 60 -87 60 -55 0 -100 -25 -160 -88 -40 -41 -67 -62 -73
-56 -6 6 2 100 20 249 27 231 29 286 7 313 -11 14 -17 15 -34 4z m262 -485
c14 -11 16 -21 11 -51 -6 -29 -19 -46 -64 -82 -60 -48 -142 -94 -165 -94 -22
0 -42 29 -31 45 5 8 30 45 57 83 51 74 78 92 168 111 3 0 13 -5 24 -12z"/>
<path d="M6533 23598 c-6 -7 -16 -58 -22 -113 -7 -55 -19 -138 -27 -184 -20
-118 -19 -138 11 -157 23 -15 27 -14 74 11 45 25 90 67 228 213 28 28 55 52
62 52 8 0 11 -39 9 -137 -2 -151 5 -181 58 -222 40 -31 86 -27 149 14 49 31
136 131 153 175 9 23 72 121 105 162 30 37 31 68 3 68 -21 0 -67 -52 -106
-119 -75 -128 -116 -182 -166 -216 -48 -34 -87 -43 -110 -27 -29 19 -35 56
-32 203 3 159 0 168 -46 169 -11 0 -73 -53 -145 -124 -172 -168 -224 -193
-202 -95 26 118 52 278 49 304 -3 32 -28 44 -45 23z"/>
<path d="M4800 23585 c-137 -25 -190 -54 -161 -89 18 -22 60 -20 85 3 22 21
118 41 194 41 55 0 108 -22 117 -49 12 -38 -46 -139 -139 -244 -47 -54 -93
-112 -102 -129 -34 -65 10 -112 104 -110 205 4 482 64 490 106 4 17 -1 18 -45
13 -26 -3 -97 -15 -158 -26 -128 -24 -281 -37 -319 -27 -16 4 -26 13 -26 24 0
10 36 56 80 102 45 47 94 105 111 130 37 55 63 140 54 180 -8 35 -57 80 -88
80 -12 0 -44 2 -72 5 -27 2 -84 -2 -125 -10z"/>
<path d="M2204 23555 c-3 -13 -30 -66 -60 -116 -30 -50 -54 -95 -54 -99 0 -5
-13 -37 -29 -72 -38 -84 -65 -199 -58 -250 12 -86 93 -132 266 -149 166 -17
359 13 335 52 -3 5 -65 6 -137 2 -223 -10 -391 28 -415 95 -19 56 16 189 88
332 18 36 38 68 44 72 19 11 69 125 63 142 -10 24 -36 19 -43 -9z"/>
<path d="M10359 23458 c-36 -33 -81 -110 -93 -160 -8 -35 -26 -37 -26 -3 0 29
-31 50 -48 33 -7 -7 -12 -41 -12 -77 0 -36 -7 -91 -16 -123 -13 -47 -14 -61
-4 -73 37 -44 71 -2 120 150 40 122 66 175 85 175 12 0 14 -19 12 -112 -2
-134 10 -183 60 -239 63 -69 133 -86 209 -48 48 23 75 55 129 154 110 201 119
239 77 308 -39 62 -91 43 -58 -22 26 -49 19 -77 -45 -200 -76 -145 -133 -206
-184 -198 -42 7 -85 38 -111 80 -17 28 -19 52 -19 207 0 168 -1 175 -20 178
-12 2 -35 -11 -56 -30z"/>
<path d="M7685 23437 c-9 -14 -30 -27 -48 -31 -17 -4 -64 -25 -103 -47 -84
-48 -114 -90 -98 -136 8 -24 16 -28 50 -31 38 -3 45 1 103 58 34 33 66 58 70
56 5 -3 11 -38 13 -78 5 -67 8 -74 42 -105 41 -38 72 -42 110 -12 46 36 27 70
-29 49 -24 -9 -32 -8 -49 10 -19 18 -21 31 -19 113 2 51 4 110 5 132 4 48 -22
60 -47 22z m-105 -132 c0 -16 -58 -50 -68 -40 -8 7 43 55 59 55 5 0 9 -7 9
-15z"/>
<path d="M2750 23338 c-99 -17 -201 -87 -249 -172 -36 -62 -39 -96 -11 -121
41 -37 145 8 198 85 34 50 55 48 63 -8 7 -54 42 -92 85 -92 37 0 60 20 42 38
-7 7 -20 12 -30 12 -50 0 -71 69 -49 163 12 49 16 53 46 39 46 -21 74 9 38 40
-22 20 -75 26 -133 16z m-4 -62 c6 -17 -31 -79 -72 -120 -51 -51 -133 -82
-149 -56 -10 17 43 104 85 139 58 47 125 65 136 37z"/>
<path d="M4575 22299 c-8 -13 -21 -161 -35 -394 -14 -243 -13 -291 6 -309 36
-36 62 -6 42 50 -12 35 -3 202 29 492 8 78 12 149 9 157 -6 17 -42 20 -51 4z"/>
<path d="M4963 22288 c-14 -19 -52 -376 -59 -564 -10 -235 15 -336 91 -373 33
-16 60 -5 60 25 0 13 -8 20 -26 22 -15 2 -34 11 -43 21 -27 30 -37 172 -26
366 11 188 10 179 41 357 18 104 20 130 9 143 -15 18 -34 19 -47 3z"/>
<path d="M3384 22260 c-148 -38 -265 -119 -249 -170 9 -27 29 -25 49 5 9 14
24 25 33 25 16 0 16 -4 -6 -110 -16 -75 -11 -185 17 -375 25 -164 29 -180 47
-180 18 0 20 6 17 65 -1 36 -9 100 -17 144 -24 127 -27 121 63 144 42 12 120
28 172 38 246 42 275 49 278 65 5 25 -14 27 -148 13 -142 -15 -208 -26 -298
-49 -92 -24 -96 -20 -88 73 12 136 22 192 37 207 8 9 46 25 84 37 63 20 93 22
284 22 215 1 243 6 207 35 -39 32 -374 40 -482 11z"/>
<path d="M7252 22157 c-45 -54 -135 -317 -168 -494 -10 -51 -21 -93 -25 -93
-4 0 -17 15 -28 34 -32 52 -105 113 -147 125 -49 14 -98 14 -145 1 -62 -17
-94 -91 -65 -147 38 -74 111 -103 267 -105 51 -1 96 -7 113 -16 26 -13 31 -13
40 0 6 8 47 23 91 33 85 19 105 29 90 44 -6 6 -36 6 -75 1 -99 -12 -101 -7
-61 137 58 204 89 291 137 385 28 55 31 93 8 102 -21 8 -20 8 -32 -7z m-378
-489 c45 -14 136 -96 136 -124 0 -15 -9 -16 -75 -11 -112 10 -162 25 -190 59
-30 36 -31 42 -5 68 23 23 72 26 134 8z"/>
<path d="M7933 22128 c-72 -76 -159 -239 -229 -428 l-38 -102 -41 46 c-22 24
-58 54 -80 65 -48 25 -131 28 -162 6 -51 -35 -55 -157 -8 -224 57 -82 148
-113 330 -112 132 0 214 14 348 60 l87 30 53 -24 c40 -19 69 -25 125 -25 65 0
73 2 70 18 -2 13 -22 20 -81 31 -47 8 -77 18 -77 25 0 7 34 30 75 51 134 67
205 152 205 243 0 102 -143 167 -248 113 -50 -26 -84 -64 -124 -140 -30 -60
-33 -72 -33 -157 0 -51 -3 -95 -5 -98 -13 -12 -252 -66 -321 -72 -90 -8 -261
18 -309 47 -42 26 -70 76 -70 125 0 47 14 64 53 64 48 0 95 -29 157 -99 74
-81 81 -78 120 39 64 197 152 361 238 449 68 69 75 94 27 99 -23 2 -37 -5 -62
-30z m472 -283 c95 -39 46 -149 -112 -255 -52 -35 -84 -50 -102 -48 -24 3 -26
7 -29 61 -2 47 2 68 27 120 56 116 130 159 216 122z"/>
<path d="M6289 22119 c-11 -11 -39 -59 -63 -107 -98 -198 -205 -363 -269 -416
-31 -26 -38 -37 -33 -54 12 -37 44 -38 82 -1 19 18 34 36 34 40 0 4 18 33 39
65 22 33 74 128 118 213 43 85 83 153 88 153 9 -1 24 -160 29 -287 l1 -40 -60
0 c-53 0 -60 -2 -63 -21 -4 -30 16 -42 78 -46 l55 -3 17 -98 c16 -98 35 -143
65 -154 28 -11 31 19 8 82 -13 34 -27 90 -31 123 -7 67 -11 63 61 81 22 6 56
20 75 32 31 19 33 22 17 34 -14 10 -29 9 -81 -5 -35 -10 -68 -15 -75 -11 -8 5
-15 72 -22 197 -6 104 -12 199 -14 210 -7 31 -32 37 -56 13z"/>
<path d="M3906 21968 c-57 -89 -83 -262 -49 -328 53 -102 193 -107 319 -10 71
55 115 118 148 208 29 82 34 137 12 145 -19 8 -30 -8 -44 -68 -17 -67 -55
-143 -91 -182 -73 -80 -201 -129 -259 -99 -63 32 -67 127 -12 259 17 42 29 81
25 87 -10 17 -34 11 -49 -12z"/>
<path d="M9056 21744 c-109 -24 -250 -101 -344 -189 -56 -52 -66 -70 -52 -95
17 -32 35 -24 103 43 123 120 231 166 456 194 75 9 140 20 145 24 5 5 4 15 -4
24 -17 20 -207 19 -304 -1z"/>
<path d="M9895 21458 c-3 -7 -11 -74 -20 -148 -14 -130 -25 -199 -79 -505 -14
-77 -32 -178 -40 -225 -8 -47 -19 -103 -24 -125 l-8 -40 -199 0 c-110 0 -315
4 -455 9 -376 13 -486 14 -679 4 -111 -5 -178 -5 -184 1 -7 7 3 25 26 51 49
53 50 91 3 135 -41 39 -171 103 -283 140 -46 14 -83 30 -83 35 0 5 28 18 63
29 132 45 177 90 177 179 0 34 -6 49 -34 79 -31 34 -38 37 -100 41 -37 3 -94
-1 -127 -8 -123 -26 -262 -140 -323 -264 -41 -85 -53 -128 -67 -237 -11 -86
-2 -132 27 -143 22 -8 34 27 34 103 0 202 92 364 254 446 61 31 89 39 150 43
73 4 76 4 105 -26 37 -37 38 -52 7 -89 -33 -39 -118 -79 -228 -107 -52 -13
-97 -30 -102 -39 -17 -27 18 -54 89 -66 184 -32 415 -139 415 -191 0 -50 -153
-103 -338 -116 -68 -5 -99 -4 -117 6 -22 12 -27 11 -45 -5 -19 -17 -60 -17
-867 -11 -1688 13 -1775 15 -2278 56 -141 11 -788 5 -880 -9 -38 -6 -115 -17
-169 -26 -55 -8 -135 -15 -178 -15 -99 0 -346 26 -441 46 -77 16 -291 34 -319
26 -11 -2 -18 -14 -18 -28 0 -30 12 -32 160 -37 63 -2 167 -11 230 -20 63 -9
141 -19 173 -22 31 -4 57 -10 57 -15 0 -5 -19 -14 -42 -21 -203 -54 -387 -136
-551 -247 -119 -79 -322 -313 -391 -449 -28 -56 -89 -225 -112 -313 -8 -30
-21 -73 -28 -95 -17 -54 -21 -298 -6 -372 35 -165 164 -288 341 -324 88 -17
270 -39 331 -39 31 0 60 -5 64 -11 4 -7 26 -9 63 -5 188 21 870 14 878 -9 2
-6 -13 -19 -33 -30 -20 -10 -55 -41 -79 -67 -64 -71 -80 -160 -50 -286 29
-124 87 -200 188 -250 146 -72 318 -81 441 -24 151 71 244 209 247 371 3 115
-22 182 -89 243 -22 20 -38 39 -34 42 3 3 74 6 157 6 132 0 614 31 685 44 14
3 77 8 140 11 63 3 207 13 320 22 258 20 1008 22 1845 5 325 -7 933 -12 1352
-12 594 -1 763 -3 771 -13 7 -8 9 -60 5 -144 l-6 -132 -26 -5 c-14 -3 -45 -8
-69 -11 -47 -8 -58 -21 -48 -61 6 -23 10 -25 39 -20 111 24 118 21 109 -46
l-4 -37 -103 6 c-96 5 -103 4 -113 -14 -8 -15 -7 -25 4 -41 14 -20 24 -22 103
-22 93 0 118 -11 105 -44 -3 -9 -9 -192 -13 -408 l-6 -392 -55 -14 c-80 -20
-99 -42 -65 -76 14 -13 20 -13 61 5 53 24 74 15 74 -31 0 -32 -14 -40 -73 -40
-60 0 -85 -9 -93 -32 -11 -37 15 -50 73 -37 86 20 83 28 83 -202 l0 -202 -82
7 c-208 16 -360 26 -568 36 -461 22 -768 40 -860 50 -135 14 -287 28 -505 45
-104 9 -203 18 -220 21 -81 14 -415 32 -625 34 -129 1 -318 5 -420 8 -102 4
-279 4 -395 0 -408 -15 -964 -13 -1195 2 -254 18 -305 22 -310 25 -3 2 -117 6
-255 9 -137 4 -315 12 -395 19 -360 29 -978 3 -1042 -43 -26 -19 -35 -20 -165
-10 -76 6 -270 15 -432 20 -257 9 -297 9 -317 -5 -18 -12 -56 -15 -171 -15
-81 0 -197 -5 -257 -11 -79 -8 -122 -8 -149 -1 -46 13 -90 0 -85 -24 2 -9 15
-26 30 -37 27 -20 28 -20 105 -2 87 20 363 34 363 18 0 -5 -26 -20 -57 -32
-183 -73 -321 -156 -433 -260 -36 -33 -68 -60 -71 -61 -3 0 -28 -28 -56 -62
-80 -101 -170 -286 -192 -396 -14 -69 -14 -217 0 -284 15 -72 79 -204 123
-255 61 -70 237 -142 461 -189 333 -68 404 -78 760 -99 55 -3 170 -12 255 -20
85 -8 216 -17 290 -20 129 -6 232 -13 510 -35 69 -6 546 -12 1060 -15 976 -5
1128 -10 1630 -50 336 -27 706 -50 1050 -65 547 -25 654 -31 805 -45 244 -23
447 -47 750 -90 55 -8 170 -21 255 -30 85 -9 241 -25 345 -36 105 -11 240 -23
300 -27 l110 -7 0 -72 c0 -40 -2 -156 -3 -258 l-2 -185 -26 -10 c-32 -12 -30
-50 4 -65 13 -6 22 -18 22 -33 l0 -23 -125 7 c-127 7 -155 1 -155 -32 0 -31
32 -46 84 -40 141 17 172 17 184 4 8 -10 9 -98 2 -338 -5 -179 -10 -360 -10
-404 l0 -78 -87 3 c-82 4 -88 3 -91 -16 -5 -41 12 -49 92 -46 74 2 75 2 82
-24 7 -29 0 -112 -10 -122 -4 -4 -40 1 -80 11 -77 20 -96 17 -96 -13 0 -31 33
-50 102 -57 37 -4 69 -12 71 -18 2 -6 0 -69 -4 -141 -12 -213 -11 -473 3 -481
29 -18 35 28 43 319 4 160 10 295 14 300 4 4 47 0 97 -9 49 -9 138 -16 199
-17 96 -2 110 0 113 15 4 21 7 20 -221 49 -206 27 -203 25 -193 122 3 33 8 63
11 65 3 3 50 8 104 11 102 6 129 17 117 46 -5 15 -18 16 -110 10 -100 -7 -104
-6 -111 14 -3 11 -3 26 1 32 3 6 9 180 13 386 l6 375 35 12 c43 13 46 39 6 46
-36 6 -51 29 -42 63 6 27 0 25 143 43 30 4 46 12 54 26 17 31 -5 39 -86 32
-38 -4 -77 -8 -85 -8 -13 -1 -15 31 -13 243 2 134 5 247 8 249 5 5 163 -7 385
-28 108 -11 461 -27 780 -35 368 -10 3044 -14 3255 -4 258 11 390 23 659 60
237 32 373 61 506 107 131 45 437 188 515 240 81 54 153 143 216 267 37 73 40
87 40 155 -1 182 -96 318 -333 476 -167 110 -349 199 -521 255 -32 10 -65 23
-75 29 -25 16 24 7 288 -51 221 -49 270 -53 270 -24 0 19 -27 30 -110 43 -36
6 -119 23 -185 37 -409 90 -922 150 -1645 195 -628 38 -616 37 -955 76 -106
12 -304 18 -810 24 -701 9 -713 9 -1465 75 -162 15 -397 30 -522 33 -137 5
-232 12 -238 18 -7 7 -9 80 -8 210 l3 199 72 -3 c85 -4 113 3 113 28 0 24 -19
30 -100 30 -80 0 -103 15 -98 64 3 27 7 32 43 38 22 4 70 7 106 7 101 1 131 9
127 35 -3 20 -10 21 -133 26 l-130 5 0 195 c0 107 2 290 5 405 l5 210 44 5
c68 8 66 39 -4 62 l-40 13 0 55 0 55 70 5 c60 4 70 8 70 24 0 23 -16 32 -80
43 l-50 8 3 135 c2 74 7 138 11 142 3 4 101 1 216 -8 116 -8 316 -19 445 -24
129 -5 339 -13 465 -19 127 -6 493 -16 815 -22 322 -6 745 -15 940 -19 212 -5
433 -4 550 1 107 5 440 14 740 19 419 7 567 12 639 25 368 62 597 186 717 391
117 196 129 240 129 459 0 136 -4 182 -18 229 -35 114 -75 176 -173 272 -83
82 -107 99 -221 157 -181 91 -260 125 -403 168 -126 39 -148 43 -455 78 -340
40 -371 44 -345 51 14 4 59 5 100 4 327 -15 696 -37 852 -51 153 -14 189 -14
202 -4 19 16 21 40 4 46 -18 6 -435 32 -728 46 -258 12 -656 21 -1755 38 -368
6 -814 15 -990 20 -176 5 -607 9 -957 9 -351 -1 -640 1 -643 4 -3 3 5 54 19
114 14 60 36 174 50 254 14 80 32 181 40 225 29 160 57 376 54 413 -2 30 -7
38 -26 40 -12 2 -24 -3 -27 -10z m-5531 -1025 c202 -12 83 -23 -258 -23 -187
0 -336 3 -332 8 18 17 393 27 590 15z m1046 -63 c179 -5 1218 -12 2310 -15
l1985 -5 -3 -33 c-1 -17 -8 -75 -15 -127 l-12 -95 -106 -39 c-116 -42 -138
-62 -119 -111 12 -31 50 -34 68 -4 7 11 38 32 69 46 51 24 57 24 68 10 9 -12
9 -33 3 -73 -5 -32 -11 -60 -13 -65 -3 -4 -21 -3 -41 1 -81 18 -139 -14 -108
-58 13 -18 25 -22 73 -22 38 0 61 -4 64 -12 2 -7 0 -42 -5 -78 -5 -36 -13
-141 -16 -235 l-7 -169 -45 -8 c-82 -14 -90 -17 -90 -41 0 -44 14 -52 67 -39
41 9 50 9 61 -5 25 -34 9 -112 -21 -100 -24 9 -139 -10 -154 -26 -11 -10 -11
-20 -3 -41 9 -24 14 -27 38 -21 54 14 113 17 125 6 10 -8 14 -59 14 -204 l1
-193 -782 2 c-860 2 -1704 12 -1717 19 -9 6 -1249 6 -1324 0 -197 -15 -351
-26 -480 -35 -82 -5 -226 -17 -320 -25 -93 -8 -235 -17 -315 -20 -80 -3 -226
-10 -325 -17 -162 -10 -183 -9 -212 5 -40 21 -136 22 -221 2 -48 -11 -79 -13
-135 -5 -123 16 -498 30 -816 29 -309 0 -379 6 -546 43 -113 25 -175 59 -230
123 -75 88 -79 101 -83 275 -4 181 7 244 82 455 65 186 89 230 205 369 93 114
158 175 246 235 75 51 232 136 305 166 25 10 60 24 78 32 59 26 193 62 303 83
100 19 133 20 506 15 219 -3 504 -2 633 3 335 13 588 13 960 2z m5075 -27
c441 -8 797 -9 1225 -4 360 5 1332 -15 1475 -29 55 -6 136 -15 180 -20 44 -5
175 -16 290 -25 116 -8 280 -26 365 -40 85 -13 204 -31 264 -40 127 -19 305
-79 481 -163 177 -84 230 -117 314 -197 94 -91 135 -157 162 -265 18 -72 21
-105 17 -250 l-3 -167 -67 -134 c-93 -186 -164 -256 -341 -339 -107 -50 -274
-96 -417 -114 -77 -10 -267 -16 -575 -21 -253 -3 -572 -10 -709 -16 -244 -11
-393 -9 -1246 12 -228 5 -595 14 -815 19 -391 9 -512 14 -1055 45 -146 9 -290
17 -320 18 l-55 2 -3 198 c-2 159 0 197 11 197 23 0 48 25 42 41 -3 9 -17 21
-31 27 -22 10 -24 18 -24 73 l0 61 98 -7 c79 -6 100 -4 110 8 21 25 -17 46
-109 60 l-84 13 2 120 c1 65 6 175 10 244 l8 125 90 0 c89 0 90 0 90 25 0 23
-5 26 -60 33 -92 13 -102 16 -108 29 -6 17 12 151 22 160 4 5 48 11 98 14 105
8 123 15 107 41 -9 15 -28 19 -98 21 -63 2 -88 7 -92 17 -5 13 24 222 33 238
2 4 79 5 171 2 92 -3 338 -8 547 -12z m-6185 -1913 c59 -48 89 -120 90 -210 1
-242 -225 -417 -473 -365 -94 19 -192 67 -234 112 -50 55 -77 153 -70 252 7
113 24 140 125 200 l85 51 156 -1 c144 0 158 -2 178 -21 26 -24 53 -18 53 12
0 29 32 19 90 -30z m-699 -1664 c118 -8 333 -17 479 -21 150 -4 297 -12 340
-20 69 -13 51 -14 -225 -10 -165 3 -520 7 -790 10 -269 3 -505 8 -524 11 -64
10 -16 23 119 32 208 14 367 13 601 -2z m3239 -72 c195 -5 358 -18 369 -30 3
-4 -84 -4 -194 0 -110 3 -330 8 -490 11 -504 9 -675 16 -668 28 6 9 433 6 983
-9z m-4093 -10 c227 -3 425 -9 440 -13 15 -5 44 -16 65 -26 42 -21 68 -15 68
16 0 22 1 22 158 16 176 -7 672 -14 1537 -22 319 -3 654 -7 745 -10 91 -3 338
-7 550 -10 212 -3 525 -10 695 -15 171 -5 465 -12 655 -15 190 -4 386 -10 435
-15 50 -5 180 -18 290 -29 292 -29 801 -61 995 -62 52 0 116 -3 143 -6 l47 -5
0 -98 0 -97 -61 -7 c-33 -3 -65 -8 -70 -12 -12 -7 -11 -41 1 -49 21 -13 -3
-25 -39 -19 -28 4 -42 2 -55 -11 -15 -15 -15 -20 -3 -39 14 -20 22 -21 115
-17 55 2 102 -1 105 -5 3 -5 0 -168 -6 -363 l-12 -354 -50 -16 c-42 -14 -50
-20 -50 -41 0 -23 3 -25 50 -25 44 0 50 -3 53 -22 3 -23 3 -23 -130 -23 -142
0 -158 -5 -158 -47 0 -29 31 -46 62 -34 14 5 67 11 119 13 l94 3 -4 -167 c-2
-91 -5 -195 -6 -230 -2 -34 -3 -84 -4 -110 l-1 -48 -47 0 c-27 0 -77 5 -113
10 -36 5 -166 18 -290 30 -258 23 -430 43 -615 70 -452 67 -745 91 -1575 130
-408 19 -586 30 -920 56 -618 48 -789 54 -1680 55 -547 1 -856 5 -1020 15
-499 31 -560 34 -710 44 -85 6 -189 14 -230 19 -41 6 -129 13 -195 16 -325 16
-567 52 -827 120 -116 30 -246 84 -295 121 -47 36 -109 134 -133 213 -25 79
-28 258 -5 344 20 77 88 219 140 292 75 105 216 230 362 318 128 78 210 113
358 153 87 23 98 24 350 19 143 -3 445 -8 672 -11z m7218 -204 c402 -28 592
-43 970 -75 99 -8 430 -29 735 -45 530 -28 734 -36 1490 -60 184 -6 421 -18
525 -26 812 -63 864 -69 1057 -118 387 -99 643 -213 881 -392 159 -119 224
-207 247 -332 23 -129 -30 -249 -175 -396 -37 -37 -81 -66 -165 -108 -384
-190 -535 -234 -980 -287 -373 -45 -505 -51 -1044 -50 -259 1 -1013 3 -1676 3
-1214 2 -1406 6 -1855 42 -110 9 -245 19 -300 23 l-100 6 5 205 c2 113 5 219
6 235 0 17 2 52 2 79 2 46 3 48 26 42 33 -8 56 2 56 25 0 12 -9 21 -27 25 -53
11 -54 12 -51 51 2 25 8 38 18 40 69 8 170 27 181 34 11 6 11 13 3 26 -12 19
-20 20 -128 7 l-69 -7 7 184 c4 101 9 261 12 354 l4 170 36 1 c67 2 71 38 6
50 -79 15 -58 54 30 54 56 0 59 1 56 23 -3 19 -10 22 -53 25 -27 2 -55 8 -62
14 -9 7 -13 39 -13 98 0 47 2 89 4 91 6 6 169 1 341 -11z m-395 -270 c0 -23
-7 -24 -47 -9 -22 8 -24 12 -13 19 27 17 60 12 60 -10z"/>
<path d="M3900 20231 c-112 -25 -136 -39 -211 -118 -109 -117 -146 -231 -115
-352 33 -128 110 -194 266 -227 140 -29 294 1 413 80 105 70 148 138 155 246
17 285 -196 441 -508 371z m262 -56 c57 -20 132 -84 158 -134 40 -80 47 -208
15 -271 -30 -58 -127 -131 -212 -161 -187 -65 -416 -10 -478 115 -30 61 -32
112 -5 198 36 119 121 188 230 188 83 0 132 -27 169 -92 17 -29 34 -69 37 -88
9 -52 31 -82 57 -78 34 5 28 72 -13 153 -53 104 -124 155 -216 155 -54 0 -57
21 -3 32 56 11 210 1 261 -17z"/>
<path d="M6214 20062 c-56 -27 -160 -130 -184 -183 -35 -78 -24 -148 33 -207
57 -60 101 -76 202 -76 79 0 98 4 155 30 85 40 173 121 196 180 16 43 16 48 0
99 -31 98 -138 164 -279 172 -67 3 -90 0 -123 -15z m263 -91 c60 -37 83 -68
83 -111 0 -44 -23 -83 -73 -124 -70 -58 -131 -81 -212 -80 -129 1 -200 60
-192 162 3 45 9 58 42 92 21 21 48 41 61 44 13 4 35 18 49 32 25 25 31 26 108
22 70 -4 89 -9 134 -37z"/>
<path d="M7910 20034 c-127 -23 -303 -124 -362 -209 -35 -50 -46 -125 -27
-192 17 -64 95 -143 163 -166 63 -21 191 -22 271 -2 194 49 365 198 365 317 0
95 -58 160 -184 207 -33 12 -72 31 -87 41 -31 23 -36 23 -139 4z m187 -94
c107 -38 163 -92 163 -160 0 -45 -22 -80 -89 -142 -170 -158 -460 -176 -561
-36 -25 34 -30 51 -30 97 0 106 71 172 270 253 56 23 162 18 247 -12z"/>
<path d="M5235 19918 c-2 -7 -6 -40 -7 -73 l-3 -60 -58 -3 c-40 -2 -60 -8 -64
-18 -10 -26 17 -44 67 -44 53 0 60 -8 60 -70 0 -43 25 -74 41 -49 5 8 9 37 9
65 0 38 4 53 16 58 9 3 101 6 204 6 184 0 224 7 180 30 -20 11 -186 28 -315
33 l-70 2 0 51 c0 52 -16 84 -42 84 -7 0 -16 -6 -18 -12z"/>
<path d="M7122 19858 c-7 -7 -12 -24 -12 -39 0 -19 -6 -30 -20 -34 -26 -8 -26
-46 0 -70 15 -14 18 -26 13 -60 -3 -27 -1 -45 6 -50 20 -12 40 14 47 61 3 24
10 47 15 50 5 3 46 5 91 5 102 -1 128 6 128 30 0 26 -38 39 -115 39 -79 0 -95
6 -95 36 0 13 -9 28 -19 34 -24 13 -24 13 -39 -2z"/>
<path d="M3733 19429 c-67 -26 -157 -107 -189 -171 -79 -156 -67 -352 29 -471
121 -148 388 -182 588 -75 200 106 314 350 232 499 -31 58 -91 110 -165 144
-61 28 -160 55 -200 55 -15 0 -50 9 -78 20 -65 26 -149 25 -217 -1z m204 -61
c11 -13 28 -38 37 -55 12 -24 23 -33 42 -33 32 0 41 24 19 56 -9 14 -14 28
-11 32 4 3 30 0 59 -8 127 -32 233 -106 270 -189 55 -124 -55 -323 -230 -413
-88 -46 -159 -62 -239 -55 -237 22 -348 145 -331 367 7 89 25 144 67 205 39
57 94 95 140 96 19 0 44 4 55 9 41 17 100 11 122 -12z"/>
<path d="M7891 19356 c-10 -12 -10 -27 -2 -66 6 -28 14 -130 18 -226 6 -180
16 -224 45 -196 15 15 24 391 11 457 -7 33 -13 41 -34 43 -14 2 -31 -4 -38
-12z"/>
<path d="M6275 19331 c-50 -22 -147 -126 -182 -194 -56 -112 -35 -246 48 -301
83 -55 208 -55 311 1 62 33 168 137 191 186 45 94 -8 212 -118 263 -27 13 -64
24 -81 24 -17 0 -43 9 -57 20 -31 25 -60 25 -112 1z m4 -93 c15 -9 25 -9 46 0
41 19 123 15 173 -9 55 -27 95 -85 95 -138 0 -112 -187 -253 -315 -238 -102
12 -148 62 -148 162 0 75 26 135 83 193 47 48 42 46 66 30z"/>
<path d="M7130 19171 c-5 -11 -7 -40 -4 -65 l7 -46 -56 0 c-64 0 -107 -13
-107 -34 0 -27 31 -40 98 -40 l67 -1 5 -45 c3 -31 10 -45 20 -45 17 0 40 41
40 73 0 21 4 22 75 22 68 0 75 2 75 20 0 26 -29 40 -82 40 -56 0 -68 13 -68
70 0 25 -5 51 -12 58 -18 18 -46 14 -58 -7z"/>
<path d="M5235 19078 c-2 -7 -5 -24 -7 -38 -3 -23 -9 -26 -68 -35 -76 -12 -90
-19 -90 -46 0 -33 40 -43 95 -25 58 20 75 10 75 -44 0 -38 21 -67 39 -56 6 4
13 33 17 65 l6 58 52 7 c28 3 90 6 139 6 80 0 87 2 87 20 0 28 -67 43 -166 37
-90 -5 -109 1 -118 38 -5 18 -13 25 -32 25 -13 0 -27 -6 -29 -12z"/>
<path d="M11250 20201 c-183 -34 -368 -168 -405 -293 -59 -198 72 -343 331
-365 143 -12 367 42 481 116 123 79 181 229 142 362 -27 87 -126 159 -221 159
-26 0 -58 4 -72 10 -37 14 -202 21 -256 11z m72 -87 c-38 -32 -56 -74 -33 -74
5 0 32 16 61 35 95 64 152 69 200 20 19 -19 40 -35 47 -35 16 0 17 24 3 51
-12 22 -6 23 41 8 74 -25 111 -86 113 -184 0 -64 -40 -150 -92 -196 -76 -67
-242 -123 -400 -135 -102 -8 -233 16 -285 50 -112 76 -113 232 -3 340 84 84
236 154 335 155 l55 1 -42 -36z"/>
<path d="M13744 20181 c-145 -39 -268 -121 -309 -207 -41 -84 -13 -205 71
-302 117 -137 577 -233 731 -154 104 54 150 212 103 353 -46 135 -139 226
-275 269 -22 7 -50 22 -63 34 -33 30 -160 33 -258 7z m99 -37 c3 -4 -4 -15
-16 -25 -16 -13 -19 -21 -11 -29 8 -8 25 -7 63 6 94 30 221 -5 313 -85 142
-126 152 -367 18 -436 -95 -49 -384 -16 -567 65 -52 23 -116 79 -139 121 -24
48 -35 117 -24 158 21 80 134 166 280 212 61 20 74 22 83 13z"/>
<path d="M13831 18982 c-24 -147 -42 -280 -40 -297 5 -37 36 -47 43 -13 30
139 96 491 96 512 0 37 -17 66 -38 66 -15 0 -23 -39 -61 -268z"/>
<path d="M10815 19183 c-89 -31 -182 -83 -222 -125 -118 -123 187 -288 531
-288 249 0 406 60 406 154 0 46 -55 150 -98 186 -83 69 -165 87 -417 96 -111
4 -126 2 -200 -23z m310 -38 c22 -8 49 -15 61 -15 11 0 41 -14 67 -31 48 -32
67 -31 67 2 0 31 18 23 74 -33 53 -53 88 -131 71 -158 -13 -22 -109 -58 -186
-70 -47 -8 -131 -10 -220 -7 -125 4 -156 8 -234 34 -138 45 -205 95 -190 143
12 37 135 101 259 135 67 18 181 18 231 0z"/>
<path d="M3801 16506 c-22 -27 -7 -474 17 -498 28 -28 34 10 35 249 0 131 -3
244 -7 251 -10 16 -31 15 -45 -2z"/>
<path d="M7870 16495 c-116 -33 -212 -101 -251 -177 -29 -57 -28 -146 3 -207
64 -124 291 -201 490 -166 179 31 311 108 352 206 75 180 -37 329 -246 329
-35 0 -81 7 -103 15 -49 18 -184 18 -245 0z m176 -56 c21 -13 41 -18 54 -14
20 6 47 -16 107 -88 44 -54 72 -3 33 61 -18 29 -18 32 -2 32 61 0 144 -48 167
-97 30 -63 14 -161 -37 -219 -34 -39 -116 -83 -193 -105 -73 -21 -257 -18
-321 4 -64 22 -137 69 -158 102 -24 37 -35 109 -24 155 20 78 138 157 268 180
68 12 70 11 106 -11z"/>
<path d="M6515 16494 c-71 -15 -110 -30 -140 -54 -23 -18 -51 -29 -85 -33 -69
-8 -148 -53 -172 -97 -22 -42 -24 -136 -5 -183 45 -107 241 -178 432 -156 98
11 134 22 217 70 162 94 203 236 102 349 -68 75 -240 126 -349 104z m223 -94
c112 -56 150 -154 89 -233 -80 -105 -224 -153 -408 -136 -178 17 -282 100
-258 207 13 60 91 123 127 103 12 -7 26 -4 49 10 28 18 37 19 75 9 60 -16 71
-28 64 -65 -5 -22 -2 -36 9 -45 21 -18 43 -6 62 35 16 34 16 36 -3 63 -11 15
-36 35 -55 44 -63 33 -24 49 101 43 69 -4 96 -10 148 -35z"/>
<path d="M5248 16428 c-15 -15 -19 -28 -14 -51 4 -17 9 -55 13 -85 l6 -54
-126 7 c-96 6 -130 5 -142 -5 -20 -16 -19 -35 2 -55 14 -15 32 -16 143 -10
l127 7 11 -31 c14 -39 40 -40 53 -1 10 27 14 29 72 32 51 2 62 6 65 22 5 26
-15 36 -73 36 -28 0 -56 5 -63 12 -18 18 -15 98 5 120 39 44 -37 98 -79 56z"/>
<path d="M7294 16309 c-10 -12 -24 -37 -29 -57 -9 -31 -16 -37 -55 -46 -72
-18 -65 -79 9 -74 35 3 36 2 39 -34 6 -76 58 -72 64 5 l3 42 95 0 c94 0 95 0
95 25 0 28 -23 37 -96 39 -25 1 -53 7 -63 14 -16 12 -16 14 3 31 24 21 27 46
9 64 -18 18 -53 14 -74 -9z"/>
<path d="M6344 15816 c-155 -50 -394 -237 -444 -348 -71 -156 58 -310 292
-348 259 -42 602 39 708 169 109 131 29 353 -158 439 -38 18 -91 35 -118 38
-27 4 -66 18 -87 32 -46 31 -130 39 -193 18z m236 -97 c88 -14 181 -59 230
-111 81 -87 102 -210 46 -282 -39 -52 -167 -111 -296 -137 -145 -30 -342 -23
-442 14 -120 44 -170 98 -170 184 0 52 15 76 96 161 78 81 147 132 177 131 13
-1 44 10 69 24 40 24 56 27 135 27 50 0 119 -5 155 -11z"/>
<path d="M3864 15757 c-2 -7 -3 -138 -1 -290 4 -290 11 -338 41 -266 10 25 15
103 19 286 4 230 3 253 -12 267 -21 19 -40 20 -47 3z"/>
<path d="M8079 15724 c-10 -12 -14 -100 -17 -394 -3 -208 -2 -390 2 -404 3
-14 13 -26 20 -26 23 0 34 88 40 326 3 122 11 280 17 352 10 106 10 134 0 146
-17 20 -45 20 -62 0z"/>
<path d="M5206 15651 c-14 -15 -17 -34 -15 -88 l2 -68 -76 3 c-75 4 -77 3 -77
-20 0 -35 18 -48 66 -48 24 0 54 -4 68 -10 23 -8 26 -15 26 -55 0 -32 5 -47
16 -52 22 -8 36 10 43 54 8 43 0 42 131 18 78 -14 120 -7 120 19 0 21 -6 24
-120 42 -58 10 -109 24 -117 33 -13 12 -14 31 -9 97 5 69 4 83 -10 88 -24 9
-29 8 -48 -13z"/>
<path d="M7371 15646 c-8 -10 -11 -43 -9 -93 l3 -78 -83 -11 c-87 -11 -106
-21 -100 -49 6 -34 32 -40 91 -21 79 25 91 20 95 -34 4 -66 11 -90 27 -90 20
0 27 16 34 79 l6 56 115 0 c99 0 115 2 118 17 5 25 -26 36 -122 47 -48 6 -91
13 -96 16 -6 3 -10 40 -10 80 0 63 -3 76 -19 85 -26 14 -36 13 -50 -4z"/>
<path d="M10655 16276 c-85 -27 -154 -83 -190 -155 -25 -50 -25 -155 0 -206
81 -161 447 -204 663 -78 54 31 82 75 82 131 0 138 -155 263 -324 262 -54 -1
-124 -28 -116 -45 3 -6 49 -10 106 -10 94 0 103 -2 149 -30 86 -53 138 -143
121 -210 -4 -14 -25 -38 -47 -55 -65 -46 -138 -64 -269 -65 -148 0 -217 19
-276 79 -53 52 -64 106 -40 189 29 101 153 179 257 163 24 -4 48 -7 54 -7 17
-1 17 18 0 35 -20 20 -111 21 -170 2z"/>
<path d="M13429 16114 c-14 -18 -18 -116 -5 -149 7 -19 8 -19 21 -2 11 15 14
2 20 -89 6 -85 3 -125 -11 -196 -14 -71 -15 -91 -5 -101 33 -33 82 116 83 253
0 102 -17 253 -33 282 -12 22 -52 23 -70 2z"/>
<path d="M10665 15330 c-4 -6 -20 -51 -36 -101 -26 -79 -29 -104 -29 -212 0
-67 4 -148 10 -181 9 -57 34 -100 53 -93 6 2 10 97 9 248 -1 200 2 251 15 281
15 37 13 68 -6 68 -5 0 -13 -5 -16 -10z"/>
<path d="M13185 15187 c-83 -31 -152 -81 -186 -135 -34 -54 -36 -89 -10 -140
65 -126 223 -190 444 -179 174 8 266 54 283 142 13 69 -51 160 -152 217 -30
16 -61 43 -69 58 -32 62 -192 81 -310 37z m55 -55 c0 -4 -5 -13 -12 -20 -23
-23 5 -31 76 -22 68 8 105 2 200 -33 81 -30 158 -144 136 -201 -19 -52 -169
-84 -315 -67 -113 13 -191 44 -242 97 -72 74 -65 130 25 195 57 41 132 70 132
51z"/>
<path d="M13525 21227 c-75 -25 -150 -68 -197 -115 -90 -87 -61 -125 157 -212
120 -47 175 -88 175 -127 0 -32 -86 -86 -184 -115 -73 -21 -78 -21 -105 -5
-36 21 -47 21 -55 1 -10 -27 20 -62 60 -70 77 -14 252 47 313 110 39 40 50 95
27 130 -25 39 -98 84 -229 142 -67 30 -124 59 -128 66 -12 19 0 36 48 68 77
50 149 73 238 74 83 1 98 10 75 46 -12 20 -141 24 -195 7z"/>
<path d="M3595 21220 c-133 -27 -269 -135 -335 -265 -30 -59 -32 -69 -29 -148
4 -79 6 -88 33 -116 53 -55 181 -82 391 -82 125 0 215 16 244 45 27 28 1 40
-59 27 -140 -30 -360 -2 -468 60 -55 31 -92 78 -92 117 0 88 141 230 267 268
60 18 154 9 185 -18 41 -35 63 2 33 58 -27 50 -90 70 -170 54z"/>
<path d="M10673 21219 c-67 -13 -90 -32 -28 -23 89 13 147 8 188 -16 48 -28
67 -16 37 23 -20 25 -27 27 -88 26 -37 -1 -86 -5 -109 -10z"/>
<path d="M12066 21191 c-4 -5 -9 -38 -12 -73 -10 -124 -11 -126 -57 -146 -23
-10 -48 -26 -56 -35 -27 -34 15 -73 48 -43 10 9 21 16 24 16 4 0 7 -29 7 -64
0 -57 3 -65 21 -71 11 -4 22 -5 23 -3 1 1 8 36 14 77 6 40 14 77 19 82 4 4 80
15 168 24 271 27 274 28 262 59 -8 20 -130 21 -290 2 -59 -6 -112 -9 -118 -5
-11 7 -10 30 7 125 4 21 0 36 -11 47 -18 19 -41 22 -49 8z"/>
<path d="M10510 21175 c-10 -12 -9 -15 7 -15 10 0 28 7 39 15 18 14 18 14 -7
15 -15 0 -32 -7 -39 -15z"/>
<path d="M10420 21153 c-8 -3 -17 -9 -20 -13 -3 -3 -21 -16 -42 -28 -47 -29
-106 -94 -114 -127 -10 -41 2 -115 23 -144 36 -48 84 -65 267 -96 135 -23 178
-27 187 -18 19 19 -6 40 -69 58 -250 71 -314 102 -356 174 l-20 34 54 49 c29
27 77 63 107 80 29 16 53 32 53 34 0 6 -52 3 -70 -3z"/>
<path d="M6273 21032 c-32 -27 -72 -66 -88 -87 -17 -21 -49 -61 -73 -89 -84
-99 -222 -321 -222 -357 0 -15 6 -20 22 -17 22 3 29 14 138 203 12 21 24 30
41 28 13 -1 51 3 84 8 129 19 191 20 204 5 6 -7 16 -41 22 -74 12 -64 31 -94
51 -74 7 7 7 29 -1 74 -17 101 -22 95 72 102 145 12 159 15 155 39 -3 21 -7
22 -119 19 -90 -3 -119 -1 -125 10 -5 7 -12 61 -15 120 -3 65 -10 113 -18 122
-25 30 -66 19 -128 -32z m82 -44 c10 -30 23 -174 16 -181 -10 -10 -204 -22
-226 -13 -13 5 -5 20 46 82 91 110 150 150 164 112z"/>
<path d="M11203 21065 c-57 -17 -127 -59 -190 -113 -64 -54 -71 -92 -25 -143
28 -31 31 -32 128 -36 94 -5 102 -4 153 24 73 38 113 89 119 151 5 58 -7 86
-51 112 -37 23 -74 24 -134 5z m118 -76 c13 -13 18 -27 14 -42 -11 -36 -79
-95 -126 -107 -53 -15 -141 -5 -170 19 l-22 18 46 38 c54 45 158 93 205 94 20
1 40 -7 53 -20z"/>
<path d="M11861 20976 c-37 -54 -141 -149 -186 -170 -42 -20 -79 -20 -95 -1
-20 24 10 79 60 110 31 20 40 32 38 48 -12 84 -166 -49 -170 -147 -2 -67 69
-108 149 -87 80 22 209 135 255 224 38 74 -3 93 -51 23z"/>
<path d="M4115 20986 c-21 -32 -17 -109 6 -114 22 -4 51 59 47 101 -4 40 -31
47 -53 13z"/>
<path d="M25564 20929 c-3 -6 -3 -43 0 -82 8 -87 -11 -261 -59 -546 -19 -112
-42 -292 -50 -400 -18 -233 -29 -325 -56 -486 -11 -66 -27 -160 -34 -208 -7
-49 -15 -91 -18 -94 -3 -2 -110 0 -238 6 -360 17 -2162 14 -2554 -4 -176 -8
-435 -19 -575 -25 -416 -15 -518 -21 -660 -35 -158 -16 -512 -13 -825 6 -115
7 -222 9 -236 6 -29 -7 -45 -35 -30 -50 5 -5 92 -10 192 -12 101 -2 274 -8
384 -14 199 -10 397 -4 605 18 52 6 212 15 355 21 143 6 375 15 515 21 140 5
379 14 530 18 338 10 2275 5 2420 -6 l105 -8 0 -45 0 -45 -120 5 c-66 3 -278
5 -472 5 -312 0 -354 -2 -365 -16 -31 -39 -1168 -60 -1827 -33 -536 21 -807
16 -994 -20 -177 -34 -283 -67 -383 -121 -200 -107 -304 -213 -304 -309 0
-101 60 -140 355 -234 230 -73 185 -66 740 -122 105 -11 253 -26 330 -34 77
-8 237 -20 355 -26 118 -6 283 -15 365 -20 83 -5 382 -12 665 -15 283 -3 516
-8 519 -11 3 -2 -6 -46 -18 -97 -21 -83 -49 -324 -54 -467 -2 -43 1 -55 14
-58 25 -5 36 39 54 220 10 92 28 202 42 253 14 50 25 105 26 124 l0 34 391 -8
c215 -4 429 -8 476 -9 l85 -1 -1 -45 c0 -25 -10 -117 -21 -205 -24 -183 -40
-324 -49 -442 -4 -45 -9 -85 -13 -90 -3 -6 -41 -6 -91 -2 -47 4 -184 7 -305 7
-289 -1 -645 17 -930 49 -126 13 -270 28 -320 33 -49 4 -147 14 -218 21 -93 9
-130 10 -138 2 -8 -8 -4 -15 14 -27 24 -16 114 -29 432 -60 83 -8 218 -22 300
-30 246 -25 550 -39 905 -43 184 -2 338 -7 342 -11 4 -4 4 -44 -1 -87 -11 -86
-23 -239 -49 -600 l-17 -230 -60 0 c-137 1 -808 26 -958 35 -207 13 -801 31
-1162 36 -598 8 -968 30 -1383 85 -189 24 -266 40 -362 74 -321 115 -359 321
-96 519 186 140 412 221 731 261 394 50 494 58 824 61 189 2 329 8 334 13 5 5
7 17 4 25 -15 37 -654 21 -977 -24 -74 -11 -191 -26 -258 -34 -268 -34 -453
-99 -639 -228 -152 -105 -233 -221 -241 -345 -13 -207 195 -324 688 -387 372
-48 635 -64 1285 -76 676 -13 1133 -27 1310 -39 83 -5 267 -13 410 -16 349 -7
535 -16 541 -26 2 -4 -2 -54 -11 -111 -45 -312 -65 -609 -65 -997 0 -185 -5
-390 -10 -456 -17 -191 -14 -245 11 -245 39 0 59 218 59 654 0 349 9 519 40
799 11 100 23 223 27 272 l8 90 275 -3 c500 -5 1420 -58 1770 -102 129 -16
294 -34 365 -40 72 -6 166 -15 210 -20 99 -12 583 -47 765 -55 74 -4 153 -8
175 -11 152 -16 1748 5 1955 26 381 39 634 85 840 152 113 36 138 48 185 89
70 62 64 154 -16 223 -54 46 -205 118 -324 154 -131 40 -458 117 -560 132 -44
6 -130 22 -192 35 -61 14 -142 27 -180 31 -37 4 -88 15 -113 25 -63 25 -218
46 -400 54 -85 4 -186 11 -225 16 -38 5 -167 18 -285 29 -118 10 -255 24 -305
30 -49 5 -135 15 -190 20 -55 6 -134 15 -175 20 -41 5 -142 17 -225 25 -82 9
-235 27 -340 40 -314 41 -474 51 -1280 85 -126 5 -250 12 -275 15 -25 3 -173
12 -330 21 -157 8 -350 19 -430 24 -80 5 -245 9 -368 9 -195 1 -223 3 -229 17
-10 26 68 758 82 772 3 3 141 -2 308 -12 381 -22 591 -33 886 -46 129 -5 236
-12 239 -14 2 -3 -12 -19 -32 -36 -57 -50 -86 -123 -96 -236 -8 -93 -7 -100
15 -139 13 -22 27 -58 31 -81 6 -40 5 -41 -26 -47 -36 -8 -36 -26 1 -44 47
-22 316 -46 457 -40 148 7 195 22 222 69 13 25 13 29 -6 55 -66 91 -289 163
-501 163 -40 0 -53 4 -53 15 0 8 5 15 11 15 16 0 187 88 235 121 45 30 79 88
69 118 -3 10 -14 26 -25 36 -33 30 -24 37 38 31 31 -3 365 -8 742 -11 377 -3
786 -10 910 -16 124 -5 468 -14 765 -19 297 -6 587 -14 645 -20 170 -15 783
-12 950 5 133 13 332 41 455 64 102 19 246 68 332 114 67 36 93 106 55 154
-49 62 -331 159 -662 228 -69 14 -154 32 -190 40 -36 8 -96 21 -135 29 -38 9
-110 24 -160 35 -176 39 -376 76 -520 97 -60 8 -222 37 -360 64 -285 56 -371
71 -575 100 -80 11 -206 32 -280 46 -495 90 -1252 128 -2335 115 -623 -7 -897
-5 -1135 6 l-165 8 1 38 c1 21 5 42 10 47 5 5 58 5 119 0 61 -4 299 -11 530
-14 231 -4 458 -9 505 -11 47 -3 171 -7 275 -10 105 -3 233 -8 285 -11 52 -2
277 -13 500 -24 223 -11 430 -22 460 -25 73 -7 324 -23 480 -30 69 -3 172 -10
230 -15 58 -5 159 -12 225 -16 108 -6 122 -9 143 -30 18 -19 27 -22 48 -14 32
13 272 13 389 0 50 -5 196 -12 325 -15 391 -9 562 -14 763 -25 352 -19 614
-39 719 -55 149 -23 143 -23 146 2 2 13 -4 25 -15 31 -48 26 -333 55 -718 73
-121 5 -226 12 -233 14 -8 3 -172 7 -365 10 -337 6 -749 26 -987 49 -30 3
-208 14 -395 26 -187 11 -405 24 -485 30 -278 20 -1058 60 -1455 74 -408 15
-625 21 -1165 32 -168 3 -309 10 -313 14 -5 4 3 70 17 146 38 208 53 320 70
524 24 277 34 361 71 585 55 327 68 512 39 553 -16 24 -39 29 -50 11z m-539
-2003 c83 -3 182 -6 221 -6 53 0 73 -4 77 -14 3 -8 2 -61 -4 -118 -5 -57 -14
-152 -19 -213 -18 -194 -64 -514 -75 -518 -5 -1 -131 1 -280 5 -148 4 -628 12
-1065 17 -906 11 -1154 23 -1790 81 -582 53 -612 58 -854 140 -204 69 -244 88
-280 130 -72 86 16 199 237 308 133 66 246 99 467 139 120 21 419 21 888 -2
369 -18 1341 -15 1597 4 77 6 237 15 355 21 206 9 217 8 254 -11 50 -26 70
-19 61 20 -6 29 -5 30 27 26 18 -2 101 -7 183 -9z m720 -25 c77 -4 329 -4 560
0 1071 18 1830 1 2310 -51 221 -25 1134 -173 1163 -189 11 -6 0 -15 -40 -34
-113 -51 -166 -125 -190 -265 -10 -60 -9 -85 6 -169 9 -54 19 -109 23 -121 5
-21 3 -22 -23 -16 -16 4 -55 17 -87 31 -62 25 -83 23 -68 -6 40 -73 547 -150
731 -110 58 12 71 30 44 60 -17 19 -188 106 -386 197 -95 44 -110 66 -55 77
17 4 85 22 151 41 257 75 338 139 275 218 l-20 26 20 0 c12 0 78 -11 148 -24
71 -14 180 -34 243 -46 63 -12 160 -32 215 -45 55 -13 192 -42 305 -65 368
-74 574 -131 724 -199 79 -36 94 -58 65 -95 -12 -15 -37 -35 -57 -45 -91 -46
-318 -104 -512 -130 -244 -33 -406 -41 -895 -41 -439 -1 -1036 13 -1054 24 -6
4 -56 6 -551 26 -129 5 -588 12 -1020 15 -830 6 -901 7 -1347 30 -155 8 -371
19 -480 25 -109 5 -256 14 -328 20 -71 5 -169 10 -216 10 -57 0 -90 4 -96 13
-7 8 -4 50 9 122 25 151 55 425 63 575 9 178 -3 164 124 156 58 -4 169 -10
246 -15z m4248 -282 c50 -14 119 -75 115 -103 -4 -31 -67 -61 -276 -132 -102
-34 -192 -70 -201 -79 -33 -33 20 -69 266 -177 220 -97 235 -118 80 -118 -99
1 -273 15 -300 25 -38 15 -85 221 -72 320 7 60 41 137 79 182 42 50 139 92
211 93 33 0 77 -5 98 -11z m-3040 -737 c44 -25 46 -54 5 -83 -52 -37 -187
-118 -252 -151 -68 -35 -76 -30 -65 41 9 57 47 137 81 168 56 53 164 65 231
25z m69 -376 c108 -27 158 -48 183 -76 25 -28 12 -47 -37 -56 -48 -9 -399 -8
-428 1 -20 6 -82 143 -73 159 11 17 252 -1 355 -28z m-1287 -356 c225 -12 834
-46 1190 -65 149 -8 383 -19 520 -25 264 -11 390 -23 785 -70 386 -46 703 -78
995 -101 148 -11 276 -24 283 -28 17 -9 -73 -17 -306 -27 -149 -6 -182 -14
-182 -43 0 -28 30 -31 156 -16 301 34 830 36 939 3 28 -9 106 -21 175 -28 69
-6 157 -18 195 -26 39 -8 134 -25 211 -39 78 -13 180 -33 225 -44 46 -11 140
-34 209 -50 206 -49 377 -116 449 -177 33 -27 61 -72 61 -98 0 -26 -50 -75
-104 -100 -47 -22 -216 -73 -301 -89 -16 -4 -75 -16 -129 -27 -136 -28 -456
-66 -661 -79 -323 -20 -1480 -31 -1760 -16 -517 27 -1025 70 -1502 126 -293
34 -557 54 -908 69 -137 6 -335 17 -440 24 -104 7 -307 14 -450 15 -271 2
-279 3 -270 46 5 20 50 563 62 745 9 148 -9 135 199 132 99 -1 260 -7 359 -12z"/>
<path d="M24255 18725 c-5 -2 -29 -9 -53 -15 -56 -14 -117 -70 -135 -123 -8
-23 -26 -60 -41 -81 -67 -99 -6 -259 119 -312 67 -28 181 -30 262 -6 138 42
208 124 207 242 -1 121 -63 213 -179 266 -47 22 -156 40 -180 29z m139 -72
c143 -46 215 -235 125 -330 -105 -110 -316 -122 -419 -24 -37 35 -40 42 -40
90 0 63 16 96 69 144 57 51 126 60 208 26 40 -16 59 -3 49 34 -8 35 -61 51
-148 45 -60 -5 -68 -3 -56 8 18 18 94 33 133 27 17 -2 52 -11 79 -20z"/>
<path d="M21640 18656 c-66 -19 -107 -42 -163 -94 -56 -53 -87 -107 -87 -154
0 -25 10 -42 53 -83 73 -71 111 -80 312 -79 284 2 447 59 476 166 21 80 -34
184 -123 229 -57 29 -162 36 -226 15 -46 -16 -53 -16 -81 -2 -35 19 -98 19
-161 2z m110 -60 c0 -8 -4 -18 -10 -21 -5 -3 -10 -17 -10 -31 0 -17 6 -24 19
-24 10 0 21 6 24 13 10 27 108 69 171 74 83 7 142 -11 187 -56 71 -70 61 -139
-27 -188 -82 -46 -196 -67 -364 -67 -147 -1 -158 0 -205 24 -59 30 -91 82 -76
122 11 29 63 86 106 114 71 48 185 72 185 40z"/>
<path d="M26976 18744 c-95 -19 -250 -71 -280 -95 -15 -11 -26 -28 -26 -37 0
-9 -16 -49 -35 -87 -30 -57 -36 -82 -36 -132 -1 -91 35 -144 131 -194 41 -22
58 -24 175 -24 141 0 231 19 344 72 223 105 350 291 267 391 -83 97 -335 147
-540 106z m219 -63 c82 -6 146 -15 173 -26 42 -17 112 -87 112 -112 0 -54
-131 -178 -245 -233 -159 -76 -376 -104 -470 -61 -82 37 -117 108 -95 192 23
87 48 112 170 169 8 4 15 16 15 26 0 16 14 22 85 36 102 19 94 19 255 9z"/>
<path d="M26468 17004 c-86 -20 -155 -60 -219 -123 -87 -88 -128 -180 -154
-354 -26 -173 -26 -174 -122 -176 -46 -1 -61 -14 -43 -36 15 -18 80 -19 230
-5 58 5 188 14 290 20 276 17 381 45 388 102 4 32 -17 47 -148 113 -102 51
-150 81 -150 95 0 5 26 16 58 25 97 28 214 89 264 138 132 128 31 219 -241
216 -53 0 -122 -7 -153 -15z m326 -29 c66 -32 71 -75 16 -132 -43 -44 -108
-78 -224 -119 -109 -38 -126 -48 -126 -73 0 -29 39 -57 168 -121 137 -69 148
-85 72 -107 -25 -7 -126 -20 -225 -28 -99 -9 -211 -20 -248 -25 -38 -6 -73 -8
-78 -5 -13 9 -11 51 6 163 36 229 104 336 258 412 121 59 296 75 381 35z"/>
<path d="M29485 16741 c-72 -10 -203 -43 -281 -72 -114 -43 -196 -154 -254
-342 -41 -136 -43 -154 -19 -178 29 -29 46 -10 54 59 10 94 26 153 60 229 49
107 85 145 179 192 104 53 201 73 347 75 108 1 118 -1 152 -24 34 -23 57 -57
57 -82 0 -6 -11 -26 -25 -44 -36 -47 -151 -100 -250 -115 -90 -14 -116 -29
-95 -53 9 -12 31 -16 79 -16 123 0 316 -53 352 -96 19 -23 3 -41 -59 -73 -111
-56 -365 -101 -494 -87 -45 4 -58 3 -58 -8 0 -29 28 -37 142 -37 231 0 429 50
516 130 84 78 15 138 -235 207 -25 7 -12 21 31 38 52 20 124 74 142 108 7 12
13 39 14 59 0 30 -7 43 -39 72 -22 20 -57 41 -78 47 -52 15 -165 20 -238 11z"/>
<path d="M13869 20878 c-17 -32 -24 -227 -10 -271 30 -91 125 -115 211 -52 51
37 81 78 127 171 40 78 47 109 28 124 -21 18 -32 6 -71 -77 -84 -182 -203
-248 -235 -131 -9 33 -9 64 1 135 7 51 10 99 7 108 -9 22 -45 18 -58 -7z"/>
<path d="M4515 20856 c-16 -8 -61 -46 -100 -85 -38 -39 -73 -71 -77 -71 -5 0
-8 10 -8 23 0 32 -14 50 -36 45 -16 -3 -19 -13 -19 -70 0 -75 17 -105 53 -94
11 4 53 45 92 92 72 85 113 115 133 95 6 -6 13 -51 17 -100 5 -67 11 -96 25
-111 39 -43 44 -26 35 128 -10 159 -30 186 -115 148z"/>
<path d="M14638 20849 c-10 -5 -45 -49 -78 -98 -33 -48 -70 -97 -81 -107 l-22
-19 7 86 c7 77 6 87 -10 93 -29 11 -44 -16 -56 -105 -13 -99 -7 -135 26 -151
32 -14 68 12 121 87 22 31 52 70 66 87 l25 31 22 -36 c30 -52 55 -54 164 -18
129 43 137 42 212 -28 35 -32 72 -64 84 -70 25 -13 52 -5 52 17 0 27 -142 159
-182 170 -42 12 -118 0 -184 -29 -25 -10 -57 -19 -70 -19 -22 0 -24 4 -24 44
0 63 -30 90 -72 65z"/>
<path d="M4114 20809 c-4 -7 -7 -52 -6 -100 1 -96 23 -161 56 -167 17 -4 18 1
11 55 -5 32 -9 94 -9 138 -1 74 -3 80 -23 83 -11 2 -25 -3 -29 -9z"/>
<path d="M21515 20336 c-203 -46 -382 -178 -466 -343 -30 -59 -34 -76 -34
-142 0 -83 12 -115 66 -175 48 -55 169 -98 294 -104 150 -7 263 23 220 58 -12
10 -28 10 -81 0 -80 -15 -210 -8 -276 15 -56 20 -116 75 -142 130 -81 170 93
401 369 493 80 27 160 33 161 12 1 -8 2 -21 3 -27 2 -19 21 -16 58 10 67 45
48 77 -48 83 -35 2 -91 -3 -124 -10z"/>
<path d="M24468 20308 c-86 -113 -258 -369 -258 -383 0 -20 -94 -144 -113
-149 -44 -11 -61 -31 -59 -72 3 -41 -28 -94 -97 -167 -29 -31 -34 -41 -25 -55
30 -47 79 -5 172 146 73 118 81 123 231 125 107 2 131 -7 131 -50 0 -47 33
-163 51 -179 20 -18 39 -11 39 14 0 9 -9 46 -20 80 -11 35 -20 77 -20 94 l0
30 61 -4 c40 -2 63 1 66 8 7 20 -27 44 -63 44 -57 0 -74 15 -74 63 0 47 29
228 56 354 14 65 16 87 6 107 -17 37 -53 34 -84 -6z m12 -90 c0 -7 -9 -59 -20
-116 -11 -58 -20 -144 -20 -197 l0 -95 -105 0 c-85 0 -107 3 -111 15 -4 9 19
54 54 107 32 51 67 109 77 128 28 54 107 170 116 170 5 0 9 -6 9 -12z"/>
<path d="M26945 20255 c-233 -51 -506 -243 -609 -428 -73 -131 -71 -203 10
-277 110 -101 271 -136 492 -108 70 9 134 19 143 23 12 4 23 -4 39 -29 12 -20
43 -49 68 -64 44 -25 54 -27 167 -26 131 0 232 22 326 70 l50 25 30 -26 c39
-32 67 -39 132 -31 105 13 256 105 385 233 76 77 97 113 73 128 -6 3 -40 -21
-76 -54 -198 -180 -418 -292 -464 -238 -6 8 -10 42 -10 76 1 47 -3 67 -17 83
-30 33 -95 66 -153 79 -141 30 -360 -58 -321 -130 13 -25 43 -34 96 -29 50 4
55 31 7 36 -44 4 -41 17 10 44 36 19 57 23 144 23 88 0 105 -3 130 -21 23 -18
28 -29 28 -65 0 -40 -3 -45 -40 -66 -85 -48 -193 -75 -320 -80 -120 -5 -121
-5 -153 22 -26 22 -32 34 -30 59 2 25 11 35 42 51 44 23 54 39 36 60 -28 33
-105 1 -141 -59 -19 -33 -20 -33 -122 -42 -144 -13 -299 -8 -366 12 -140 40
-201 118 -171 217 30 102 161 252 294 339 95 61 243 128 319 144 89 19 99 11
67 -55 -19 -42 -21 -53 -10 -66 24 -29 50 -13 77 47 31 70 26 99 -21 122 -40
19 -60 19 -141 1z"/>
<path d="M21980 20243 c0 -28 15 -45 36 -41 13 2 19 12 19 28 0 20 -6 26 -27
28 -22 3 -28 -1 -28 -15z"/>
<path d="M30077 20004 c-146 -17 -335 -68 -482 -129 -76 -32 -53 -71 51 -86
200 -29 342 -66 401 -104 l25 -17 -23 -12 c-20 -10 -26 -23 -34 -83 -5 -40
-17 -79 -25 -87 -20 -19 -132 -77 -195 -101 -52 -19 -134 -24 -172 -11 -20 7
-23 5 -23 -17 0 -80 138 -73 311 14 82 41 98 41 99 2 0 -7 16 -31 36 -53 102
-113 301 -78 445 79 93 100 144 214 107 237 -13 8 -27 -8 -87 -106 -25 -39
-66 -91 -93 -115 -106 -95 -293 -124 -343 -52 -8 12 -15 40 -15 64 0 34 7 50
39 87 49 56 56 77 41 121 -28 83 -147 144 -357 182 -56 10 -92 21 -90 27 5 16
78 41 212 72 96 22 146 27 247 28 114 1 128 3 128 18 0 20 -33 43 -70 50 -14
3 -74 -1 -133 -8z"/>
<path d="M21950 19947 c-21 -48 -55 -183 -65 -262 -6 -41 -4 -54 9 -65 25 -20
34 -5 61 111 14 57 35 131 47 165 24 66 20 94 -12 94 -15 0 -27 -12 -40 -43z"/>
<path d="M22359 19953 c-20 -21 -69 -86 -109 -146 -85 -124 -93 -132 -134
-132 -43 0 -65 -39 -45 -80 8 -17 21 -31 30 -33 33 -6 85 45 145 143 71 114
134 205 144 205 3 0 4 -78 2 -172 -4 -160 -3 -175 15 -197 11 -13 24 -21 30
-18 6 4 13 74 17 159 3 84 9 180 12 214 5 49 3 64 -11 77 -26 27 -58 20 -96
-20z"/>
<path d="M28377 19967 c-22 -16 -37 -122 -37 -262 0 -60 -4 -115 -8 -121 -4
-7 -25 -19 -47 -28 -51 -21 -68 -42 -54 -67 10 -20 54 -26 64 -9 13 21 32 8
41 -27 14 -59 37 -49 49 22 l10 60 70 17 c39 9 115 27 170 40 90 21 100 25
103 47 4 24 3 24 -60 17 -34 -3 -110 -17 -167 -31 -66 -16 -108 -22 -114 -16
-6 6 -3 57 8 138 29 213 29 210 7 222 -14 7 -24 7 -35 -2z"/>
<path d="M17984 19735 c-13 -32 4 -42 78 -49 40 -3 136 -10 212 -16 187 -13
286 -43 286 -87 0 -26 -44 -76 -127 -144 -117 -97 -144 -128 -141 -164 4 -39
39 -47 55 -12 6 14 64 71 128 127 168 148 185 183 118 250 -46 45 -121 65
-283 75 -58 4 -143 13 -189 21 -106 18 -130 18 -137 -1z"/>
<path d="M30729 19643 c-2 -21 -11 -277 -13 -348 -1 -79 -1 -79 28 -90 26 -9
31 -7 55 22 14 18 44 65 66 104 42 75 65 97 65 59 0 -27 43 -70 71 -70 12 0
59 23 105 50 46 28 90 50 97 50 21 0 28 -24 37 -114 7 -79 22 -105 47 -84 17
14 16 67 -1 150 -16 74 -47 128 -76 128 -10 0 -45 -17 -77 -39 -76 -50 -122
-73 -132 -67 -5 3 -14 26 -20 51 -14 55 -43 75 -72 49 -11 -10 -33 -43 -50
-73 -37 -70 -75 -118 -85 -108 -4 4 0 69 9 144 13 110 14 141 4 162 -11 24
-56 43 -58 24z"/>
<path d="M18060 19560 c-135 -4 -333 -11 -440 -15 -137 -6 -220 -4 -276 4 -96
14 -134 4 -134 -36 l0 -23 328 5 c416 5 828 21 867 33 17 4 30 15 30 23 0 17
-41 18 -375 9z"/>
<path d="M15944 19165 c-9 -23 12 -42 57 -49 23 -4 121 -33 218 -66 213 -71
281 -88 526 -134 105 -20 235 -45 290 -55 133 -27 535 -87 710 -106 77 -9 210
-25 295 -36 328 -41 433 -50 768 -64 415 -18 722 -33 777 -40 22 -2 141 -5
264 -6 124 -2 235 -5 248 -7 35 -7 28 -20 -14 -28 -128 -22 -465 -113 -482
-129 -7 -7 -10 -18 -7 -24 11 -16 53 -13 131 9 199 58 358 93 626 139 125 22
149 33 149 67 0 19 -8 28 -32 38 -31 13 -65 20 -298 62 -52 9 -144 32 -204 51
-92 28 -112 31 -123 20 -19 -19 -6 -46 26 -53 14 -3 46 -12 71 -19 43 -13 150
-36 329 -69 92 -17 100 -21 84 -37 -8 -8 -38 -8 -110 0 -132 14 -529 37 -1153
66 -527 24 -683 34 -855 55 -88 11 -257 31 -375 45 -369 43 -596 79 -1000 156
-342 65 -442 90 -685 174 -165 57 -221 67 -231 40z"/>
<path d="M6287 18503 c-10 -9 -8 -107 3 -183 5 -36 14 -123 20 -195 7 -71 16
-138 21 -147 11 -21 48 -24 50 -5 7 65 -22 472 -37 520 -5 17 -44 24 -57 10z"/>
<path d="M7980 18369 c-25 -6 -55 -12 -66 -15 -33 -6 -125 -94 -145 -139 -10
-22 -19 -63 -19 -91 -1 -185 171 -298 352 -234 83 29 165 85 200 135 36 52 53
139 38 197 -27 99 -103 148 -235 154 -44 1 -100 -2 -125 -7z m215 -74 c22 -11
50 -36 63 -55 20 -30 23 -44 19 -92 -8 -88 -47 -137 -152 -189 -64 -31 -139
-38 -192 -18 -38 14 -83 57 -99 96 -17 39 -18 126 -3 156 27 52 107 116 129
102 5 -3 22 1 37 10 38 21 145 16 198 -10z"/>
<path d="M11077 18354 c-3 -4 -55 -7 -114 -8 -93 -2 -116 -6 -166 -29 -124
-57 -257 -244 -257 -363 0 -110 97 -165 317 -180 148 -10 365 49 442 119 63
58 76 158 37 282 -29 91 -65 141 -120 166 -39 18 -126 26 -139 13z m96 -45
c29 -14 80 -83 102 -139 11 -28 17 -71 17 -113 0 -56 -5 -75 -26 -107 -58 -87
-261 -143 -446 -123 -112 13 -165 34 -191 77 -28 46 -24 95 16 171 42 81 82
128 149 176 78 56 179 75 160 30 -17 -39 -16 -61 2 -68 12 -4 21 -1 28 11 30
50 31 50 57 33 50 -36 90 -6 50 37 -12 12 -18 26 -14 30 9 8 64 0 96 -15z"/>
<path d="M7190 18336 c-7 -9 -10 -39 -9 -73 l3 -58 -70 -10 c-79 -12 -94 -19
-94 -44 0 -36 25 -45 85 -31 29 7 60 10 69 7 18 -7 21 -45 7 -94 -7 -23 -5
-37 4 -49 20 -28 42 -2 50 59 11 90 7 86 93 89 66 3 77 6 80 22 5 26 -15 36
-71 36 -27 0 -58 5 -69 11 -18 10 -20 17 -14 66 7 59 -3 83 -34 83 -10 0 -23
-6 -30 -14z"/>
<path d="M5491 18306 c-8 -9 -11 -41 -9 -88 3 -63 1 -73 -14 -72 -9 1 -50 5
-92 9 -67 6 -77 5 -83 -11 -14 -36 10 -49 102 -54 96 -5 100 -8 110 -72 11
-68 55 -34 55 42 0 33 13 40 83 41 75 2 111 12 115 31 5 26 -28 38 -74 28 -21
-5 -58 -10 -81 -10 -50 0 -55 10 -51 105 3 58 2 60 -23 63 -14 2 -31 -4 -38
-12z"/>
<path d="M13883 18212 c-18 -11 -50 -157 -69 -306 -9 -71 -27 -167 -40 -213
-30 -103 -31 -133 -5 -133 14 0 26 20 51 80 45 114 48 128 71 290 11 80 27
169 36 197 16 50 16 54 -2 73 -20 22 -24 23 -42 12z"/>
<path d="M21609 17939 c-179 -27 -290 -180 -256 -352 15 -72 81 -139 163 -163
124 -36 438 6 537 72 77 50 84 132 20 227 -69 101 -123 145 -202 162 -18 4
-54 17 -80 30 -52 26 -114 34 -182 24z m86 -58 c3 -5 -4 -12 -15 -16 -32 -10
-80 -55 -80 -75 0 -32 18 -32 57 -1 49 38 115 58 146 44 14 -6 30 -7 38 -2 45
25 172 -96 205 -195 l17 -50 -36 -32 c-23 -21 -62 -41 -109 -56 -63 -20 -94
-23 -233 -23 -144 0 -164 2 -195 21 -70 41 -102 153 -66 238 27 66 94 125 166
147 36 11 98 11 105 0z"/>
<path d="M29383 17829 c-19 -20 -16 -39 10 -48 12 -4 110 -5 217 -2 107 4 289
2 403 -3 142 -6 212 -5 219 2 33 33 -123 51 -516 58 -259 5 -323 4 -333 -7z"/>
<path d="M19740 17778 c1 -39 8 -41 375 -134 121 -30 224 -59 229 -64 12 -12
-17 -24 -134 -54 -151 -40 -350 -127 -350 -155 0 -16 28 -31 46 -25 11 3 64
26 119 50 55 23 165 61 245 83 200 55 202 55 198 88 -4 37 -21 44 -253 104
-110 28 -252 66 -316 85 -124 36 -159 41 -159 22z"/>
<path d="M29707 17679 c-90 -21 -157 -77 -188 -157 -28 -71 -39 -300 -17 -341
17 -31 32 -36 52 -16 12 12 14 26 8 63 -4 26 -7 90 -7 142 0 117 25 179 91
222 79 53 227 64 290 24 55 -37 19 -77 -138 -150 -63 -29 -98 -50 -98 -60 0
-31 37 -52 118 -69 104 -21 197 -64 197 -92 0 -29 -92 -70 -234 -107 -116 -30
-138 -31 -296 -15 -14 1 -21 -5 -23 -20 -3 -19 5 -24 54 -39 158 -46 513 51
562 152 15 32 15 38 1 62 -19 35 -85 71 -179 98 -41 12 -75 25 -77 30 -2 5 34
27 79 49 91 45 122 78 122 131 0 67 -78 105 -211 103 -37 -1 -85 -5 -106 -10z"/>
<path d="M15905 17670 c-9 -14 13 -40 34 -40 9 0 61 -14 115 -31 195 -61 171
-59 1391 -94 651 -19 1078 -19 1300 0 94 8 258 19 365 25 107 6 283 17 390 25
107 8 281 15 387 15 105 0 194 4 197 8 26 42 -178 62 -453 44 -102 -7 -328
-22 -501 -32 -173 -11 -358 -24 -410 -30 -192 -18 -435 -22 -840 -11 -228 6
-615 16 -860 21 -489 10 -749 23 -825 40 -28 6 -92 24 -143 40 -97 32 -137 37
-147 20z"/>
<path d="M6336 17618 c-27 -43 -30 -180 -6 -333 23 -155 32 -185 55 -185 19 0
20 54 3 241 -10 120 -10 144 5 204 13 51 14 71 6 82 -17 20 -47 16 -63 -9z"/>
<path d="M3975 17597 c-81 -30 -119 -59 -159 -120 -18 -29 -52 -70 -76 -92
-73 -70 -99 -141 -80 -227 39 -189 248 -295 498 -254 120 19 201 58 279 133
71 69 97 132 96 233 -1 125 -86 251 -211 312 -62 31 -75 33 -177 35 -93 2
-119 -1 -170 -20z m204 -18 c111 -19 202 -75 252 -155 25 -42 49 -120 49 -165
0 -102 -81 -206 -210 -268 -75 -35 -76 -36 -210 -36 -125 0 -139 2 -190 26
-131 62 -189 184 -140 298 27 62 114 145 194 184 69 34 77 34 99 -4 17 -31 18
-31 38 -13 22 20 21 63 -3 92 -15 17 -88 10 -121 -13 -24 -17 -47 -20 -47 -5
0 15 101 56 155 63 56 7 68 7 134 -4z"/>
<path d="M5510 17595 c-15 -18 -15 -70 0 -109 20 -53 16 -57 -57 -53 -95 5
-128 -17 -87 -57 12 -13 30 -14 89 -9 83 7 99 0 109 -47 4 -21 11 -30 26 -30
20 0 32 27 27 65 -2 17 5 21 53 25 47 4 55 8 55 25 0 17 -8 21 -60 25 -51 4
-61 9 -72 30 -7 14 -12 46 -11 72 2 68 -38 103 -72 63z"/>
<path d="M7968 17529 c-16 -9 -18 -28 -18 -167 0 -194 17 -473 30 -486 6 -6
15 -4 25 4 13 11 15 43 14 219 0 113 2 254 6 312 7 102 7 107 -13 118 -25 13
-22 13 -44 0z"/>
<path d="M7110 17475 c-8 -10 -11 -41 -9 -92 l4 -78 -72 3 c-78 4 -113 -8
-113 -37 0 -33 24 -42 102 -39 l73 3 3 -40 c4 -63 10 -72 30 -52 9 10 21 34
27 55 10 36 12 37 60 40 81 4 97 10 93 35 -3 20 -10 23 -68 27 -62 5 -65 6
-68 33 -2 15 1 51 7 79 8 37 8 54 0 64 -15 18 -53 18 -69 -1z"/>
<path d="M10821 17368 c-5 -13 -14 -69 -20 -125 -7 -56 -34 -193 -62 -305 -55
-227 -63 -288 -37 -314 25 -25 34 -11 41 63 4 37 16 100 26 138 79 284 126
517 110 547 -14 25 -48 23 -58 -4z"/>
<path d="M13585 17266 c-52 -24 -134 -90 -125 -99 3 -3 37 9 75 27 120 58 202
64 285 21 48 -25 126 -121 170 -211 37 -74 44 -98 48 -163 4 -74 3 -77 -30
-119 -61 -80 -182 -122 -354 -122 -227 0 -384 63 -435 174 -23 52 -23 90 0
141 50 110 242 194 341 150 32 -14 42 -15 55 -5 34 29 -28 70 -106 70 -21 0
-41 5 -44 10 -4 7 -16 5 -33 -5 -15 -8 -52 -25 -82 -38 -82 -36 -153 -97 -184
-158 -85 -171 42 -325 309 -375 134 -25 324 -16 425 19 87 31 113 49 157 106
68 88 65 159 -14 321 -37 78 -60 109 -122 170 -56 56 -89 80 -126 93 -71 24
-149 22 -210 -7z"/>
<path d="M21753 17208 c-17 -28 -4 -253 25 -416 16 -89 32 -165 35 -168 3 -4
13 -4 22 -1 22 9 20 98 -6 254 -16 100 -19 149 -14 225 7 90 6 97 -13 107 -27
14 -39 14 -49 -1z"/>
<path d="M24095 17083 c-31 -8 -65 -44 -65 -70 0 -13 -5 -23 -11 -23 -22 0
-117 -102 -142 -152 -30 -59 -57 -157 -57 -203 0 -33 30 -88 63 -116 34 -28
105 -49 167 -49 141 0 397 127 446 221 21 42 17 107 -11 167 -33 71 -129 166
-202 199 -57 26 -143 38 -188 26z m150 -71 c39 -19 78 -48 111 -85 93 -101
118 -188 70 -240 -57 -61 -211 -134 -328 -156 -72 -13 -147 7 -191 50 -28 28
-29 34 -24 85 11 111 102 253 174 273 38 11 53 7 102 -26 37 -25 71 -17 71 17
0 24 -61 67 -108 76 -33 7 -42 18 -19 27 31 13 87 5 142 -21z"/>
<path d="M19998 16769 c-95 -8 -188 -36 -188 -58 0 -18 32 -42 49 -35 62 25
137 36 306 43 206 8 278 5 272 -12 -4 -12 -378 -101 -597 -142 -194 -36 -405
-89 -695 -173 -270 -79 -547 -153 -900 -240 -274 -68 -778 -216 -1035 -304
-96 -33 -276 -94 -400 -135 -290 -96 -320 -109 -320 -141 0 -21 3 -24 28 -19
30 6 478 160 582 199 67 26 420 138 570 182 47 13 137 40 200 60 63 19 252 69
420 111 342 85 433 109 875 235 368 104 458 127 715 180 107 22 264 60 349 85
85 25 160 45 168 45 27 0 10 -23 -87 -117 -72 -69 -100 -102 -98 -116 2 -11 9
-22 15 -24 7 -3 70 51 140 119 71 68 149 138 174 156 88 59 75 88 -44 96 -154
11 -402 14 -499 5z"/>
<path d="M21779 16048 c-15 -27 -4 -737 12 -752 33 -34 53 125 44 360 -4 97
-2 202 5 266 9 78 9 112 0 127 -14 27 -46 27 -61 -1z"/>
<path d="M24136 15938 c-28 -43 -85 -419 -96 -639 -14 -270 -3 -368 37 -314 9
13 13 53 13 134 0 231 33 484 86 666 39 135 39 140 13 159 -31 21 -36 20 -53
-6z"/>
<path d="M26038 15863 c-21 -5 -23 -35 -5 -63 11 -18 7 -25 -40 -68 -91 -83
-146 -170 -213 -337 l-36 -90 -70 0 c-63 0 -69 -2 -72 -22 -4 -26 31 -53 70
-53 36 0 36 -21 4 -98 -40 -96 -108 -313 -102 -328 9 -24 43 -16 55 14 6 15
33 99 59 187 27 88 55 174 63 190 l14 30 194 3 c149 2 196 -1 203 -10 4 -7 8
-111 8 -231 0 -167 3 -218 12 -215 19 7 37 158 38 312 l0 139 73 -6 c39 -3 79
-8 87 -11 25 -10 47 10 34 31 -8 13 -33 20 -97 28 -47 6 -89 13 -93 17 -4 4
-11 76 -15 160 -10 195 -17 249 -39 321 -29 92 -63 118 -132 100z m82 -144 c9
-16 39 -337 40 -422 0 -17 -6 -18 -62 -12 -35 4 -111 8 -171 9 -63 1 -112 7
-119 14 -20 20 167 328 242 396 46 42 55 44 70 15z"/>
<path d="M20045 15723 c-61 -13 -105 -36 -105 -54 0 -29 25 -34 81 -15 59 19
220 32 274 22 20 -4 35 -10 32 -13 -3 -2 -56 -16 -119 -29 -159 -33 -312 -84
-506 -165 -92 -39 -223 -93 -292 -119 -341 -132 -582 -244 -925 -430 -104 -57
-244 -132 -310 -168 -66 -35 -142 -77 -170 -92 -27 -15 -90 -49 -140 -75 -75
-41 -242 -142 -435 -265 -166 -106 -388 -250 -510 -331 -214 -142 -472 -281
-570 -306 -27 -7 -36 -15 -38 -35 -2 -16 3 -28 13 -32 45 -17 349 147 696 374
474 310 873 560 893 560 3 0 63 32 132 70 70 39 128 70 130 70 2 0 83 44 181
98 483 267 616 328 1458 664 170 68 294 108 448 144 159 37 187 40 187 23 0
-30 -154 -199 -227 -251 -46 -31 -53 -45 -27 -55 50 -19 215 131 343 314 34
47 21 66 -50 74 -30 4 -95 12 -145 18 -88 11 -258 13 -299 4z"/>
<path d="M29000 15704 c-114 -20 -212 -66 -270 -126 -55 -57 -66 -80 -86 -182
-15 -77 -16 -105 -6 -231 13 -161 20 -185 59 -221 42 -37 69 -49 175 -74 128
-30 294 -26 376 10 55 24 102 69 102 98 0 28 -96 147 -163 203 -34 29 -97 74
-139 102 -43 27 -78 55 -78 61 0 9 44 20 128 34 215 36 316 76 336 135 13 37
-14 71 -88 113 -106 58 -260 93 -346 78z m191 -73 c91 -23 174 -69 174 -97 0
-12 -14 -26 -38 -38 -34 -16 -268 -71 -387 -91 -58 -9 -80 -21 -80 -44 0 -23
19 -39 95 -81 153 -85 344 -271 319 -311 -16 -27 -96 -50 -191 -55 -75 -5
-121 -1 -198 14 -159 32 -147 22 -173 153 -55 277 -27 409 104 496 108 71 235
90 375 54z"/>
<path d="M6361 14816 c-16 -19 -41 -201 -37 -266 16 -247 30 -411 37 -421 4
-7 15 -9 24 -5 16 6 17 24 11 249 -7 236 -2 306 30 408 5 19 -20 49 -40 49 -8
0 -19 -6 -25 -14z"/>
<path d="M3867 14813 c-18 -17 12 -596 31 -615 29 -29 32 8 30 295 -2 264 -4
293 -20 309 -19 19 -31 22 -41 11z"/>
<path d="M5266 14631 c-14 -15 -16 -29 -11 -65 4 -25 6 -49 4 -53 -2 -5 -40
-8 -84 -8 -74 0 -80 -2 -83 -22 -6 -39 32 -54 119 -47 l76 7 11 -44 c6 -24 15
-62 19 -83 11 -50 38 -69 59 -41 8 11 12 25 10 32 -15 39 -29 134 -21 142 6 5
62 14 125 21 140 14 150 16 150 40 0 30 -35 33 -161 17 -63 -8 -119 -13 -125
-10 -6 2 -14 27 -17 55 -9 76 -36 98 -71 59z"/>
<path d="M7321 14636 c-8 -10 -10 -41 -5 -105 l7 -91 -94 -1 c-115 -1 -143 -8
-147 -36 -4 -25 36 -57 59 -48 24 9 153 22 167 17 11 -4 12 -22 7 -82 -4 -46
-3 -80 3 -84 21 -13 43 21 54 84 6 36 14 68 17 72 3 4 44 -2 91 -12 115 -26
132 -26 128 2 -4 28 -37 45 -114 59 -110 20 -107 18 -102 112 3 45 1 92 -3
105 -10 25 -50 30 -68 8z"/>
<path d="M8043 14544 c-7 -19 13 -34 47 -34 56 0 283 -130 335 -192 69 -82 86
-169 46 -246 -25 -49 -80 -92 -171 -135 -127 -59 -275 -36 -339 54 -62 85 -68
232 -15 336 43 83 83 106 158 92 10 -2 23 4 29 13 18 28 -17 58 -67 58 -58 -1
-104 -31 -163 -105 -69 -86 -82 -259 -28 -367 50 -100 106 -140 225 -160 62
-11 80 -10 137 5 141 37 258 115 301 199 30 61 30 145 0 207 -28 58 -116 146
-190 189 -148 87 -289 127 -305 86z"/>
<path d="M10233 14364 c-11 -30 18 -248 57 -419 21 -93 41 -195 45 -226 6 -59
33 -98 56 -84 17 11 6 137 -26 305 -14 74 -29 176 -32 225 -4 66 -10 95 -23
110 -10 11 -23 39 -29 63 -12 43 -36 57 -48 26z"/>
<path d="M13073 14205 c-86 -23 -146 -60 -205 -124 -92 -99 -120 -209 -77
-298 40 -82 173 -175 289 -202 143 -33 533 13 626 74 40 26 57 71 52 139 -10
156 -156 303 -351 352 -34 9 -69 22 -77 30 -50 43 -157 56 -257 29z m123 -70
c16 -8 37 -15 47 -15 10 0 29 -7 42 -16 17 -11 36 -14 63 -9 30 5 50 1 83 -15
155 -73 248 -190 249 -310 0 -61 -5 -72 -38 -89 -79 -42 -430 -75 -533 -51
-122 29 -235 108 -265 186 -45 119 57 269 219 319 56 18 99 18 133 0z"/>
<path d="M9813 14123 c-22 -8 -14 -23 13 -23 15 0 24 5 22 12 -5 14 -18 18
-35 11z"/>
<path d="M8190 13705 c-10 -12 -10 -48 -1 -172 13 -192 15 -554 2 -620 -34
-172 -42 -226 -37 -239 27 -71 86 151 106 401 13 159 4 612 -12 633 -14 16
-43 15 -58 -3z"/>
<path d="M4061 13636 c-9 -10 -8 -35 3 -102 17 -98 36 -391 36 -539 0 -91 9
-120 32 -97 13 13 17 376 6 562 -9 145 -21 190 -52 190 -7 0 -19 -6 -25 -14z"/>
<path d="M6392 13537 c-50 -53 -57 -89 -55 -288 2 -236 10 -380 22 -392 7 -7
16 -5 26 3 14 12 16 45 14 274 -3 280 1 307 50 350 23 21 27 46 9 64 -18 18
-42 14 -66 -11z"/>
<path d="M5342 13493 c-10 -24 -18 -78 -22 -143 -6 -119 2 -112 -97 -91 -56
11 -78 8 -87 -14 -11 -29 20 -48 90 -56 87 -11 98 -22 85 -80 -15 -63 -13 -89
5 -96 25 -9 42 22 50 88 8 69 6 68 129 43 95 -20 241 -16 255 6 17 28 -9 37
-132 44 -68 3 -148 12 -178 19 -52 12 -55 14 -58 46 -5 47 16 160 34 185 29
41 12 86 -34 86 -17 0 -27 -9 -40 -37z"/>
<path d="M7276 13487 c-25 -19 -36 -80 -35 -197 l2 -105 -44 -3 c-24 -2 -96 4
-159 13 -107 16 -115 16 -127 -1 -16 -22 -1 -52 32 -60 14 -3 87 -9 162 -13
l138 -6 3 -92 c3 -85 4 -93 23 -93 27 0 39 37 39 121 l0 69 33 1 c17 1 75 0
127 -1 99 -2 150 10 150 34 0 22 -23 26 -171 26 l-139 0 0 70 c0 39 7 100 16
135 9 36 14 71 11 79 -10 25 -42 37 -61 23z"/>
<path d="M13254 13211 c-17 -12 -86 -160 -79 -170 9 -16 30 -14 45 4 7 8 16
15 21 15 13 0 11 -261 -3 -365 -7 -49 -12 -110 -13 -135 0 -39 3 -45 22 -48
31 -4 38 15 64 173 19 113 21 153 15 303 -4 95 -11 183 -16 196 -9 23 -40 39
-56 27z"/>
<path d="M10407 13165 c-27 -27 -50 -114 -44 -169 7 -70 102 -442 128 -502 22
-52 65 -114 78 -114 19 0 18 29 -1 71 -58 128 -123 475 -116 616 6 107 -8 136
-45 98z"/>
<path d="M22110 12172 c-66 -25 -141 -104 -168 -178 -25 -65 -41 -161 -42
-236 0 -32 -4 -48 -12 -48 -7 0 -60 11 -118 24 -114 26 -140 22 -140 -18 0
-30 8 -33 137 -46 59 -6 113 -16 120 -22 8 -7 13 -39 14 -92 3 -159 12 -230
31 -234 31 -6 36 35 25 176 -6 80 -7 136 -1 141 5 5 52 11 105 14 l96 6 7 -72
c10 -98 22 -141 51 -175 86 -103 248 -61 367 95 58 74 141 221 133 233 -15 24
-37 3 -101 -92 -103 -155 -179 -217 -268 -218 -30 0 -45 7 -71 33 -39 39 -55
89 -55 174 0 80 -12 93 -77 81 -113 -20 -168 -21 -182 -4 -31 37 29 297 82
355 35 38 115 71 174 71 84 0 159 -33 226 -101 61 -62 82 -71 92 -39 13 41
-51 105 -154 153 -82 39 -199 47 -271 19z"/>
<path d="M27907 12065 c-21 -21 -26 -48 -37 -237 -13 -239 4 -319 78 -354 28
-13 33 -20 29 -40 -13 -71 39 -195 102 -242 84 -62 225 -40 287 45 75 101 120
252 93 308 -40 82 -145 93 -289 32 -166 -70 -203 -71 -232 -3 -15 36 -14 194
3 321 6 44 13 99 16 122 5 34 2 43 -15 52 -16 8 -24 8 -35 -4z m477 -527 c31
-44 14 -145 -38 -226 -34 -53 -65 -78 -111 -91 -35 -10 -46 -8 -85 12 -53 27
-101 93 -124 169 -8 29 -13 54 -11 57 3 2 42 16 87 32 46 15 103 36 128 48 62
29 134 28 154 -1z"/>
<path d="M24167 11996 c-23 -34 -65 -165 -73 -225 -3 -27 -9 -53 -13 -58 -3
-5 -31 -15 -62 -22 -62 -13 -93 -38 -79 -61 7 -11 17 -12 64 0 31 7 59 10 62
7 7 -6 -13 -247 -22 -278 -2 -9 3 -22 11 -29 32 -27 44 7 56 155 6 77 15 144
19 149 15 15 79 -4 114 -34 41 -36 63 -107 72 -232 7 -91 19 -116 50 -104 15
6 16 20 11 119 -12 222 -48 276 -209 311 -21 5 -28 12 -28 31 0 33 59 206 77
227 8 9 13 27 11 40 -4 33 -41 36 -61 4z"/>
<path d="M28722 11948 c-5 -7 -13 -35 -17 -63 -10 -69 -49 -225 -80 -315 -33
-97 -65 -221 -65 -254 0 -28 20 -35 38 -13 6 6 18 41 27 77 9 36 37 124 61
195 47 134 94 303 94 335 0 19 -25 50 -39 50 -5 0 -13 -6 -19 -12z"/>
<path d="M26915 11918 c-2 -7 -13 -38 -24 -68 -22 -62 -41 -167 -41 -226 0
-54 -8 -62 -65 -66 -46 -3 -50 -5 -50 -28 0 -22 5 -26 45 -30 51 -6 49 7 35
-156 -8 -95 3 -157 30 -168 25 -9 34 17 26 75 -8 60 3 228 16 239 13 12 293
21 293 10 0 -6 -13 -34 -30 -63 -34 -60 -37 -88 -14 -111 43 -44 130 -4 216
99 70 84 76 83 77 -15 1 -66 18 -104 49 -108 27 -4 38 19 22 48 -6 12 -11 65
-11 122 0 55 -4 111 -9 124 -12 30 -45 32 -61 3 -8 -16 -17 -20 -39 -15 -16 3
-53 -1 -82 -8 -64 -16 -367 -29 -387 -17 -12 8 -12 23 2 110 10 56 29 130 44
166 22 53 24 67 13 80 -15 18 -49 20 -55 3z m443 -410 c7 -35 -104 -128 -153
-128 -44 0 15 98 78 130 47 23 70 22 75 -2z"/>
<path d="M19841 11846 c-23 -27 3 -46 63 -46 50 0 308 -58 446 -101 161 -50
199 -111 117 -190 -36 -34 -247 -186 -380 -274 -90 -59 -108 -78 -89 -97 13
-13 48 5 212 115 292 196 370 268 370 345 0 48 -53 94 -144 127 -111 39 -444
124 -516 131 -53 5 -68 3 -79 -10z"/>
<path d="M24372 11828 c-16 -16 -15 -33 3 -48 24 -20 65 3 65 35 0 21 -5 25
-28 25 -15 0 -33 -5 -40 -12z"/>
<path d="M22793 11778 c-4 -7 -7 -101 -5 -208 3 -152 7 -198 18 -210 23 -23
47 11 85 120 52 152 104 217 178 227 39 5 42 4 56 -30 8 -19 17 -79 21 -134 9
-154 35 -223 82 -223 19 0 22 31 7 61 -9 17 -20 79 -25 142 -14 156 -19 183
-42 212 -17 22 -27 25 -77 25 -46 0 -66 -5 -96 -26 -56 -38 -100 -98 -137
-188 -11 -28 -13 -18 -18 104 -4 115 -7 135 -22 138 -9 2 -20 -3 -25 -10z"/>
<path d="M23522 11725 c-49 -21 -117 -82 -143 -129 -19 -32 -23 -55 -23 -111
1 -80 16 -117 68 -163 96 -84 319 -58 439 51 20 19 37 40 37 46 0 25 -31 21
-75 -9 -78 -54 -130 -72 -206 -72 -132 0 -199 56 -199 165 0 53 3 61 40 101
39 42 67 58 121 70 31 7 44 32 28 52 -14 18 -45 17 -87 -1z"/>
<path d="M5816 11668 c-8 -13 -20 -47 -27 -76 l-11 -54 -71 6 c-40 3 -119 8
-177 11 -58 3 -145 10 -193 17 -75 10 -90 10 -98 -2 -13 -21 -6 -33 27 -50 22
-11 83 -15 267 -18 130 -2 237 -7 238 -11 0 -3 1 -53 3 -111 2 -64 17 -183 40
-306 33 -185 42 -270 34 -334 -4 -31 29 -41 49 -14 19 26 17 62 -17 309 -35
253 -48 439 -33 448 6 4 57 0 114 -8 131 -19 192 -19 187 -2 -7 20 -76 38
-182 48 -55 4 -104 13 -110 19 -7 7 -6 23 3 53 21 68 19 92 -6 95 -14 2 -27
-5 -37 -20z"/>
<path d="M20245 11669 c-22 -4 -107 -15 -190 -23 -82 -9 -348 -36 -590 -60
-435 -45 -735 -77 -890 -95 -44 -6 -177 -22 -295 -36 -406 -49 -946 -125
-1170 -165 -124 -22 -288 -49 -365 -60 -216 -31 -304 -48 -383 -71 -78 -24
-106 -49 -80 -75 11 -11 23 -10 73 11 65 26 202 54 385 80 63 8 149 22 190 30
357 67 375 69 960 149 435 60 979 122 1670 191 685 68 764 80 758 113 -4 20
-20 23 -73 11z"/>
<path d="M24745 11671 c-83 -31 -92 -39 -99 -87 -5 -40 0 -98 20 -222 3 -18
19 -48 36 -67 26 -31 36 -35 78 -35 63 0 106 30 143 100 26 50 29 62 25 135
-4 87 -21 126 -65 159 -28 20 -105 30 -138 17z m86 -54 c37 -29 53 -69 53
-136 1 -136 -84 -211 -141 -124 -15 22 -18 48 -18 137 0 108 1 111 25 123 31
16 60 16 81 0z"/>
<path d="M28936 11669 c-53 -13 -119 -69 -145 -122 -15 -32 -21 -63 -21 -115
0 -66 -2 -72 -20 -72 -20 0 -38 -25 -27 -37 4 -3 18 -5 32 -5 19 0 35 -14 69
-62 65 -89 138 -156 255 -231 159 -103 231 -131 231 -90 0 17 -24 36 -110 85
-107 62 -207 138 -264 201 -60 67 -76 97 -55 109 19 12 92 28 213 45 166 23
236 52 236 97 0 54 -71 139 -150 178 -51 26 -179 36 -244 19z m205 -63 c47
-20 87 -53 104 -86 29 -56 21 -61 -141 -89 -65 -11 -147 -29 -181 -38 -77 -22
-88 -14 -88 61 2 109 68 166 196 166 44 0 91 -6 110 -14z"/>
<path d="M25241 11616 c-13 -16 -54 -254 -47 -273 3 -7 18 -13 32 -13 29 0
141 79 203 144 49 51 81 49 119 -7 17 -23 37 -59 45 -80 42 -98 104 -157 167
-157 40 0 42 33 3 54 -41 21 -66 52 -112 142 -61 119 -101 151 -177 146 -12
-1 -59 -36 -105 -77 -86 -78 -115 -93 -106 -52 17 68 29 157 24 171 -8 20 -31
21 -46 2z"/>
<path d="M15360 11585 c0 -33 12 -46 25 -25 8 12 -5 60 -16 60 -5 0 -9 -16 -9
-35z"/>
<path d="M15863 11563 c-3 -16 -7 -66 -7 -113 -1 -69 2 -85 14 -85 12 0 18 22
26 95 11 91 6 130 -16 130 -5 0 -13 -12 -17 -27z"/>
<path d="M7513 11454 c-3 -8 -2 -66 3 -127 4 -62 8 -137 9 -167 l0 -55 -50 1
c-27 0 -75 2 -105 5 -54 4 -55 3 -58 -23 -3 -23 2 -28 34 -37 20 -6 72 -7 115
-4 l77 6 6 -44 c3 -24 8 -74 11 -111 7 -86 22 -130 44 -126 13 3 15 15 12 73
-3 39 -5 102 -5 140 l-1 70 80 12 c95 13 195 49 195 69 0 18 -31 18 -123 0
-40 -8 -90 -17 -113 -21 l-41 -6 -7 47 c-3 26 -6 98 -6 160 0 101 -2 116 -20
134 -24 24 -48 26 -57 4z"/>
<path d="M8130 11424 c-57 -91 -94 -219 -106 -369 -8 -105 6 -159 49 -185 68
-42 151 -11 270 98 42 40 82 69 89 67 14 -6 59 -67 110 -150 45 -72 77 -104
127 -126 51 -22 101 -25 101 -5 0 18 -17 31 -61 45 -45 14 -79 51 -114 121
-65 130 -109 170 -184 170 -36 0 -50 -8 -118 -68 -112 -97 -133 -112 -159
-112 -47 0 -54 55 -29 203 22 125 50 208 91 269 40 58 37 81 -9 86 -22 3 -32
-5 -57 -44z"/>
<path d="M10907 11405 c-4 -8 -2 -65 3 -127 5 -62 10 -213 10 -335 0 -188 2
-224 16 -237 33 -34 54 -16 102 84 65 136 150 214 227 208 37 -3 40 -5 43 -35
6 -66 -130 -263 -182 -263 -35 0 -53 -17 -40 -37 16 -26 56 -27 102 -4 67 34
178 179 203 263 26 92 -79 152 -206 117 -40 -11 -125 -87 -173 -154 l-21 -30
1 263 c0 238 -2 265 -17 283 -21 22 -60 25 -68 4z"/>
<path d="M6410 11368 c-27 -45 -35 -101 -35 -258 l0 -135 32 -3 c36 -4 55 18
117 130 20 37 58 91 85 120 49 53 114 98 126 86 15 -14 25 -88 25 -180 0 -213
57 -319 172 -318 104 1 197 102 295 324 58 130 62 146 35 146 -16 0 -31 -18
-58 -67 -125 -227 -175 -297 -236 -329 -56 -29 -94 -13 -118 51 -11 28 -17
128 -19 298 -1 62 -4 71 -31 99 -28 27 -35 30 -73 24 -23 -4 -59 -17 -81 -29
-35 -19 -128 -119 -177 -189 -10 -12 -20 -20 -25 -15 -9 8 9 142 28 205 12 40
11 45 -7 58 -27 20 -33 18 -55 -18z"/>
<path d="M9933 11352 c-20 -13 -33 -95 -40 -259 l-6 -152 -26 -5 c-14 -3 -43
-8 -64 -12 -44 -7 -57 -28 -34 -52 14 -14 24 -14 69 -5 29 6 57 8 61 4 4 -4
15 -57 23 -117 16 -110 33 -149 55 -127 11 11 10 50 -7 197 -5 44 -3 60 7 67
13 8 159 13 159 6 0 -2 -7 -25 -16 -51 -11 -31 -15 -69 -12 -111 3 -55 8 -69
33 -96 106 -112 274 -62 343 102 l19 44 16 -31 c9 -18 24 -34 32 -38 52 -20
83 11 44 43 -20 16 -23 29 -27 112 -2 52 -9 100 -15 107 -7 8 -23 12 -41 9
-18 -3 -46 3 -66 13 -81 41 -153 34 -228 -20 -40 -29 -46 -30 -148 -30 l-107
0 7 108 c4 60 13 133 21 163 20 72 19 103 -3 122 -21 19 -31 21 -49 9z m532
-449 c-19 -105 -89 -216 -157 -252 -41 -22 -48 -23 -77 -11 -45 18 -65 61 -58
127 8 77 43 136 87 145 66 14 145 25 179 27 33 1 33 1 26 -36z"/>
<path d="M11732 11298 c-19 -24 -40 -116 -52 -229 -6 -63 -18 -168 -26 -234
-22 -190 -19 -245 16 -245 22 0 30 27 30 100 0 30 4 71 10 90 5 19 18 100 30
180 11 80 30 177 42 215 25 82 25 105 2 122 -22 16 -39 16 -52 1z"/>
<path d="M15851 11034 c0 -11 3 -14 6 -6 3 7 2 16 -1 19 -3 4 -6 -2 -5 -13z"/>
<path d="M12056 10970 c-62 -31 -104 -68 -128 -110 -21 -37 -27 -40 -65 -40
-36 0 -43 -3 -43 -20 0 -13 12 -26 33 -36 26 -12 36 -26 47 -62 42 -144 255
-237 608 -265 33 -3 59 1 70 9 30 22 -1 36 -102 45 -151 13 -231 31 -340 76
-83 35 -134 69 -156 106 -43 71 -27 86 106 98 167 15 254 48 254 95 0 27 -30
69 -68 94 -49 34 -159 39 -216 10z m195 -59 c50 -41 -16 -75 -173 -88 -86 -7
-99 4 -55 45 61 57 183 80 228 43z"/>
<path d="M15356 10931 c-9 -14 4 -41 21 -41 9 0 13 8 11 22 -3 23 -23 35 -32
19z"/>
<path d="M15536 10364 c-10 -25 -7 -34 9 -34 9 0 15 9 15 25 0 28 -15 34 -24
9z"/>
<path d="M18945 9494 c-22 -2 -195 -8 -385 -14 -190 -6 -419 -15 -510 -21
-144 -8 -589 -20 -1860 -48 -173 -4 -547 -8 -830 -9 -283 -1 -670 -7 -860 -13
-190 -6 -424 -8 -520 -5 -96 4 -501 -1 -900 -9 -1019 -23 -1680 -8 -2235 50
-428 46 -473 48 -1000 49 -651 1 -1343 -11 -1675 -30 -376 -21 -1055 -29
-1215 -15 -71 7 -251 17 -400 22 -148 6 -286 11 -305 12 -27 2 -37 -3 -44 -19
-7 -16 -18 -21 -40 -20 l-31 1 -12 -80 c-7 -44 -22 -138 -33 -210 -59 -381
-80 -673 -80 -1130 0 -375 8 -564 36 -845 9 -85 18 -295 21 -466 6 -330 0
-394 -47 -514 -27 -69 -31 -221 -7 -253 13 -18 111 -38 302 -62 66 -8 289 -19
495 -25 206 -5 420 -14 475 -19 277 -26 364 -31 660 -41 176 -6 410 -18 520
-26 287 -21 1392 -37 1675 -24 124 6 362 15 530 20 168 5 348 14 400 20 282
30 404 41 590 55 113 9 284 23 380 31 96 8 227 19 290 24 63 5 210 17 325 27
184 16 322 18 1116 16 1437 -3 1596 -10 2599 -118 129 -14 312 -32 405 -40
370 -32 500 -47 730 -85 424 -69 911 -116 1545 -150 107 -6 233 -15 280 -20
434 -51 729 -55 3475 -54 4282 2 4503 3 5115 29 69 2 211 7 315 10 105 3 341
13 525 23 275 14 489 16 1200 14 1041 -4 1344 8 1706 67 65 11 148 22 183 26
76 7 139 20 176 37 24 11 26 16 22 52 -2 23 -27 131 -55 241 -51 199 -72 302
-91 445 -6 41 -22 152 -35 245 -38 260 -44 311 -66 580 -47 576 -136 1097
-229 1340 -11 28 -32 82 -46 120 -87 225 -168 335 -250 335 -15 0 -89 -9 -164
-20 -338 -50 -643 -46 -1321 15 -247 22 -520 33 -975 40 -740 10 -1007 16
-1255 31 -361 21 -612 33 -920 44 -343 13 -734 34 -1085 60 -148 11 -396 26
-550 35 -154 8 -365 20 -470 25 -104 6 -217 13 -250 15 -33 3 -114 9 -180 14
-66 6 -158 12 -205 15 -181 12 -684 47 -875 61 -297 22 -512 34 -780 45 -132
6 -289 14 -350 20 -168 15 -776 48 -1195 65 -325 13 -1597 19 -1755 9z m1565
-59 c52 -3 217 -10 365 -15 321 -12 533 -24 910 -50 154 -11 397 -24 540 -30
143 -5 287 -12 320 -15 33 -3 260 -19 505 -35 758 -51 893 -60 950 -65 125
-11 352 -25 620 -40 426 -23 625 -35 835 -51 254 -19 1042 -61 1285 -69 107
-3 305 -12 440 -20 408 -24 687 -34 1065 -40 904 -13 1053 -17 1255 -31 118
-8 229 -16 245 -19 131 -21 415 -37 700 -40 335 -4 428 2 634 39 102 19 109
16 175 -73 45 -62 143 -296 197 -470 73 -237 150 -717 189 -1180 26 -314 36
-401 85 -741 46 -317 69 -433 126 -639 16 -58 29 -115 29 -127 0 -26 -2 -27
-175 -49 -60 -7 -173 -23 -250 -34 -77 -11 -183 -23 -235 -26 -52 -3 -167 -10
-255 -16 -168 -12 -623 -15 -1390 -10 -314 2 -571 -2 -810 -13 -328 -15 -461
-20 -1260 -46 -540 -18 -3766 -26 -6635 -16 -1082 4 -1252 9 -1580 46 -47 5
-200 16 -340 25 -697 40 -1074 78 -1583 159 -193 31 -363 51 -607 71 -102 8
-228 19 -280 25 -520 57 -673 73 -916 94 -162 15 -393 28 -545 31 -145 3 -309
8 -364 10 -55 3 -449 7 -875 11 -804 6 -1074 -1 -1480 -41 -161 -16 -467 -41
-605 -50 -159 -10 -337 -25 -480 -40 -288 -31 -351 -35 -662 -45 -175 -5 -421
-14 -547 -20 -219 -9 -1390 2 -1476 15 -66 10 -376 26 -675 35 -265 9 -432 18
-600 35 -163 16 -352 26 -595 31 -282 5 -484 22 -625 52 l-79 17 -9 44 c-7 36
-4 58 17 120 56 168 58 183 57 505 0 218 -6 362 -20 521 -29 314 -30 341 -37
740 -6 369 3 606 31 845 29 242 36 296 58 444 l22 149 128 -2 c125 -2 127 -2
136 21 8 23 10 23 147 20 77 -1 220 -8 319 -15 299 -20 797 -13 1315 18 308
18 986 30 1640 29 l525 -1 355 -36 c451 -46 586 -54 1120 -68 334 -9 552 -9
940 1 278 7 782 13 1120 15 338 1 687 5 775 9 88 3 482 8 875 11 393 3 814 10
935 15 121 5 409 12 640 15 231 4 571 13 755 21 399 17 1111 43 1300 48 177 4
1188 -3 1310 -9z"/>
<path d="M14450 8559 c-130 -18 -192 -60 -145 -99 11 -9 27 -7 77 11 52 19 89
24 208 27 82 2 184 -1 235 -8 123 -16 353 -64 450 -94 135 -41 398 -134 440
-156 72 -37 101 -21 43 23 -46 34 -338 148 -493 192 -310 88 -628 129 -815
104z"/>
<path d="M11424 8547 c-17 -46 -9 -47 256 -47 449 0 765 -34 1090 -116 78 -19
181 -52 383 -120 12 -5 17 -1 17 15 0 26 -25 39 -161 84 -386 129 -729 181
-1291 194 -262 6 -288 5 -294 -10z"/>
<path d="M7252 8486 c-169 -55 -348 -204 -415 -346 -19 -41 -38 -96 -41 -121
-21 -150 77 -349 226 -461 73 -55 236 -132 338 -160 74 -20 107 -23 255 -22
178 0 252 12 354 56 141 62 221 195 221 366 -1 97 -13 149 -55 237 -66 137
-196 247 -337 285 -37 10 -53 21 -69 46 -28 45 -121 111 -183 129 -76 23 -207
19 -294 -9z m290 -47 c38 -10 118 -65 125 -85 2 -7 -20 -13 -59 -17 -79 -7
-100 -15 -96 -36 3 -14 17 -16 90 -13 217 7 387 -88 477 -269 71 -142 76 -288
13 -404 -67 -123 -242 -190 -497 -189 -164 1 -268 25 -415 96 -171 84 -276
203 -316 360 -35 136 8 254 139 383 162 158 357 222 539 174z"/>
<path d="M9905 8450 c-6 -10 27 -313 55 -495 10 -66 41 -228 68 -360 28 -132
60 -307 71 -390 22 -149 29 -173 50 -161 27 17 -6 285 -80 656 -52 257 -56
285 -74 490 -17 197 -27 245 -55 260 -23 12 -27 12 -35 0z"/>
<path d="M12085 8204 c-117 -14 -220 -53 -321 -122 -122 -82 -228 -212 -259
-316 -45 -152 25 -324 175 -427 240 -165 696 -173 930 -18 128 86 219 259 222
422 2 88 -12 140 -55 203 -61 92 -219 186 -362 217 -81 18 -275 48 -290 46 -5
-1 -23 -4 -40 -5z m-3 -65 c11 -6 64 -13 117 -15 182 -7 226 -12 284 -33 143
-51 253 -140 277 -226 53 -185 -52 -424 -227 -518 -215 -115 -607 -102 -806
27 -144 94 -204 229 -162 372 21 74 45 114 110 183 102 110 223 179 383 220 2
1 13 -4 24 -10z"/>
<path d="M30360 8193 c-241 -18 -499 -61 -745 -124 -88 -23 -177 -45 -199 -49
-54 -11 -70 -41 -34 -63 11 -7 41 -2 104 18 167 52 203 61 399 104 278 61 768
88 1100 61 164 -13 185 -13 185 4 0 31 -257 56 -560 54 -113 -1 -225 -3 -250
-5z"/>
<path d="M14775 8163 c-4 -10 -11 -175 -16 -368 -4 -192 -15 -478 -23 -634
-20 -361 -20 -435 -2 -450 31 -26 35 6 66 594 9 157 17 333 34 746 5 110 -1
129 -35 129 -9 0 -20 -8 -24 -17z"/>
<path d="M19742 8083 c-18 -32 7 -57 54 -55 22 1 140 2 264 3 262 1 495 -20
700 -65 281 -61 746 -179 925 -236 141 -44 252 -51 203 -13 -22 17 -591 176
-918 257 -343 85 -562 113 -951 123 -261 6 -267 6 -277 -14z"/>
<path d="M17290 8050 c-213 -47 -386 -151 -512 -310 -164 -206 -158 -435 15
-596 102 -96 239 -156 430 -188 101 -18 291 -26 303 -13 18 18 -24 31 -123 38
-269 18 -492 104 -587 226 -50 64 -86 160 -86 232 0 118 85 279 203 386 76 69
226 146 347 177 163 42 348 26 443 -40 30 -20 42 -23 55 -15 30 18 18 37 -38
66 -115 57 -291 72 -450 37z"/>
<path d="M24473 8029 c-19 -19 -16 -37 10 -53 16 -10 84 -15 277 -20 255 -7
322 -14 684 -70 93 -15 171 -24 174 -22 9 10 -18 34 -46 39 -15 3 -83 18 -152
32 -257 54 -380 70 -660 86 -96 5 -197 12 -225 15 -34 4 -54 2 -62 -7z"/>
<path d="M31150 7875 c0 -8 5 -15 10 -15 6 0 10 7 10 15 0 8 -4 15 -10 15 -5
0 -10 -7 -10 -15z"/>
<path d="M18035 7775 c-64 -34 -68 -39 -60 -64 10 -32 53 -26 108 15 82 60 45
98 -48 49z"/>
<path d="M20295 7793 c-111 -24 -264 -87 -324 -134 -140 -109 -237 -259 -282
-439 -60 -236 58 -443 326 -575 110 -55 186 -75 282 -75 58 0 75 3 80 16 9 23
-8 30 -83 32 -92 4 -241 55 -331 115 -90 60 -147 123 -187 207 -27 57 -31 75
-31 150 0 152 71 316 198 456 83 91 213 158 369 190 103 21 170 14 255 -25 86
-41 123 -40 107 2 -6 16 -95 59 -159 76 -39 11 -179 13 -220 4z"/>
<path d="M29978 7760 c-255 -46 -443 -235 -494 -494 -15 -77 -16 -104 -6 -195
24 -230 121 -488 236 -633 57 -72 89 -83 123 -43 13 15 23 37 21 49 -2 17 -9
21 -36 19 -28 -1 -39 6 -78 55 -84 103 -170 307 -200 472 -43 239 7 423 151
566 139 138 321 189 540 150 142 -25 221 -60 270 -117 70 -84 2 -163 -215
-246 -57 -22 -381 -133 -387 -133 -2 0 -3 -11 -3 -25 0 -35 22 -50 148 -105
262 -113 395 -212 462 -344 56 -111 36 -207 -69 -334 -103 -124 -309 -241
-522 -297 -83 -22 -258 -30 -333 -16 -65 12 -76 9 -60 -17 14 -21 122 -50 195
-51 133 -2 312 47 473 129 168 86 269 170 339 280 93 147 89 273 -10 403 -76
99 -161 160 -351 254 -94 47 -174 89 -177 94 -3 4 34 20 82 34 377 113 510
197 515 324 3 88 -86 159 -250 202 -87 23 -289 33 -364 19z"/>
<path d="M23449 7711 c-9 -3 -43 -38 -75 -78 -33 -40 -93 -112 -135 -160 -42
-48 -100 -123 -129 -165 -29 -43 -56 -78 -60 -78 -3 0 -15 7 -26 15 -23 18
-56 19 -72 3 -18 -18 -15 -33 14 -68 l27 -31 -24 -32 c-13 -18 -57 -81 -98
-142 -143 -212 -266 -349 -346 -386 -34 -16 -40 -46 -12 -63 13 -9 27 -6 62
13 87 46 219 207 378 460 43 69 83 128 89 132 5 4 38 -4 72 -16 54 -19 132
-39 311 -79 l50 -11 13 -75 c7 -41 24 -136 37 -211 14 -75 25 -158 25 -184 0
-42 2 -46 22 -43 42 6 45 45 15 196 -39 198 -51 276 -45 294 5 12 16 13 67 5
34 -5 64 -7 68 -4 13 14 -21 36 -70 47 -29 6 -57 14 -64 18 -22 14 -40 273
-43 624 0 13 -35 26 -51 19z m-29 -173 c0 -73 23 -298 39 -393 5 -27 6 -53 3
-57 -8 -8 -40 -1 -186 42 -124 36 -173 57 -181 78 -3 8 30 57 83 120 49 59
108 134 132 167 52 71 91 115 102 115 4 0 8 -33 8 -72z"/>
<path d="M27865 7676 c-187 -39 -404 -171 -514 -313 -67 -87 -109 -247 -96
-366 3 -34 22 -143 42 -242 19 -99 36 -211 37 -249 3 -92 10 -96 145 -96 235
0 592 61 719 123 78 38 122 85 122 131 0 28 -8 42 -45 74 -92 81 -237 130
-499 170 -27 4 -51 12 -53 19 -2 6 38 38 89 72 215 139 341 253 392 353 77
156 24 295 -125 327 -63 14 -137 13 -214 -3z m239 -65 c72 -45 96 -144 54
-229 -45 -94 -231 -258 -455 -401 -99 -63 -107 -72 -90 -95 10 -13 41 -21 123
-31 139 -18 198 -30 309 -66 163 -53 241 -114 201 -158 -61 -67 -381 -140
-733 -167 l-93 -7 -11 29 c-6 16 -17 65 -25 109 -8 44 -23 125 -34 180 -47
243 -49 331 -9 451 44 137 184 266 376 349 157 68 312 82 387 36z"/>
<path d="M20795 7575 c-22 -8 -41 -15 -42 -15 -10 0 0 -40 12 -50 13 -11 25
-10 68 8 29 12 60 22 70 22 17 0 24 25 9 34 -22 13 -81 14 -117 1z"/>
<path d="M25013 7551 c-104 -48 -203 -143 -301 -288 -60 -90 -62 -92 -91 -83
-17 5 -35 11 -41 15 -17 11 -57 -3 -64 -21 -8 -20 20 -54 44 -54 9 0 24 -6 34
-13 17 -13 16 -17 -19 -83 -43 -79 -115 -251 -156 -371 -15 -45 -40 -109 -54
-142 -23 -50 -25 -64 -15 -76 16 -19 54 -20 69 -1 6 7 38 92 70 187 63 185
128 353 168 433 l25 48 51 -6 c29 -3 119 -9 200 -12 81 -4 150 -11 154 -17 3
-5 14 -51 24 -102 47 -244 158 -500 186 -428 3 9 -2 37 -11 62 -75 196 -137
444 -116 465 6 6 40 6 97 -1 94 -10 113 -8 113 12 0 22 -19 28 -99 32 -97 4
-117 9 -126 30 -3 10 -13 92 -21 183 -16 188 -19 208 -41 233 -20 21 -28 21
-80 -2z m21 -78 c4 -16 13 -80 20 -143 8 -63 18 -134 22 -157 l7 -43 -39 0
c-74 1 -313 26 -321 33 -17 18 116 197 215 290 59 54 88 60 96 20z"/>
<path d="M18340 7471 c-5 -11 -10 -30 -10 -44 0 -13 -9 -57 -20 -98 -14 -52
-22 -121 -27 -234 -5 -144 -4 -162 11 -178 41 -41 81 -14 186 124 103 138 117
143 177 75 21 -24 65 -98 97 -163 64 -130 80 -153 108 -153 24 0 23 12 -11 84
-16 33 -48 103 -72 154 -31 68 -55 105 -92 139 -47 44 -51 45 -98 41 -55 -6
-85 -28 -127 -93 -53 -83 -104 -147 -113 -138 -15 15 9 234 35 322 32 104 34
156 7 171 -28 15 -39 13 -51 -9z"/>
<path d="M18002 7443 c-14 -31 -16 -65 -14 -185 2 -169 21 -253 57 -253 16 0
19 6 17 30 -1 17 -3 98 -4 180 0 115 3 160 15 193 20 53 14 72 -25 72 -24 0
-32 -6 -46 -37z"/>
<path d="M20720 7208 c-31 -51 -39 -89 -60 -288 -26 -241 -26 -306 0 -347 19
-32 52 -44 65 -24 3 5 -5 29 -17 52 l-22 42 18 146 c24 201 43 299 66 344 23
43 26 77 8 95 -20 20 -37 14 -58 -20z"/>
<path d="M21126 7094 c-9 -8 -16 -29 -16 -45 0 -16 -12 -86 -26 -154 -14 -68
-24 -144 -22 -167 3 -41 5 -43 37 -46 42 -4 75 26 171 154 74 99 120 140 167
150 24 5 37 0 66 -26 52 -45 77 -130 84 -288 6 -127 19 -169 44 -145 19 18 14
261 -6 337 -30 113 -91 176 -173 176 -84 0 -116 -25 -251 -199 -37 -48 -67
-79 -72 -74 -5 5 0 43 12 89 55 208 57 224 20 244 -15 7 -24 6 -35 -6z"/>
<path d="M1 2154 c0 -11 3 -14 6 -6 3 7 2 16 -1 19 -3 4 -6 -2 -5 -13z"/>
<path d="M2 2050 c0 -14 2 -19 5 -12 2 6 2 18 0 25 -3 6 -5 1 -5 -13z"/>
<path d="M2 1990 c0 -19 2 -27 5 -17 2 9 2 25 0 35 -3 9 -5 1 -5 -18z"/>
<path d="M2 1775 c-1 -84 2 -143 7 -135 4 8 5 76 1 150 l-7 135 -1 -150z"/>
<path d="M1 1383 c-1 -209 1 -242 14 -237 11 5 13 19 10 62 -3 32 -6 118 -6
192 -1 74 -5 155 -9 180 -4 27 -8 -53 -9 -197z"/>
<path d="M0 725 l0 -396 22 3 c19 3 22 10 23 52 0 39 -3 50 -17 54 -24 6 -23
20 4 42 22 17 22 18 4 45 -13 20 -15 29 -6 35 14 8 15 46 5 165 -11 139 -17
315 -12 364 1 13 -4 26 -10 28 -10 4 -13 -79 -13 -392z"/>
<path d="M0 298 c1 -25 37 -75 46 -65 4 3 7 24 8 47 2 38 1 40 -26 40 -22 0
-28 -4 -28 -22z"/>
<path d="M0 193 c0 -21 5 -44 12 -51 9 -9 9 -15 0 -24 -16 -16 -16 -79 0 -76
7 2 13 -4 13 -12 0 -8 -6 -14 -12 -13 -7 2 -13 -2 -13 -7 0 -16 47 -11 54 6
11 28 6 69 -9 91 -8 12 -12 24 -7 27 17 11 7 69 -15 83 -23 15 -23 15 -23 -24z"/>
</g>
</svg>
