<?xml version="1.0" standalone="no"?>
<!DOCTYPE svg PUBLIC "-//W3C//DTD SVG 20010904//EN"
 "http://www.w3.org/TR/2001/REC-SVG-20010904/DTD/svg10.dtd">
<svg version="1.0" xmlns="http://www.w3.org/2000/svg"
 width="3264.000000pt" height="2448.000000pt" viewBox="0 0 3264.000000 2448.000000"
 preserveAspectRatio="xMidYMid meet">
<metadata>
Created by potrace 1.12, written by Peter Selinger 2001-2015
</metadata>
<g transform="translate(0.000000,2448.000000) scale(0.100000,-0.100000)"
fill="#000000" stroke="none">
<path d="M26595 24150 c-10 -12 -13 -20 -6 -20 8 0 9 -13 5 -40 -12 -75 37
-34 51 43 6 32 5 37 -12 37 -11 0 -28 -9 -38 -20z"/>
<path d="M1275 23445 c-106 -15 -325 -66 -410 -95 -33 -11 -78 -27 -100 -34
-110 -37 -147 -64 -125 -91 16 -19 40 -19 66 -1 71 50 418 148 679 193 34 5
50 13 50 23 0 20 -47 22 -160 5z"/>
<path d="M2816 23372 c-3 -5 -6 -134 -7 -288 -1 -153 -6 -339 -11 -413 -10
-153 -2 -181 52 -181 34 0 41 23 13 39 -13 7 -17 21 -16 58 13 405 23 676 28
710 3 24 1 52 -5 63 -11 20 -44 27 -54 12z"/>
<path d="M2324 23356 c-3 -8 -1 -62 5 -118 11 -102 10 -141 -8 -418 -5 -80 -6
-161 -2 -180 6 -32 10 -35 44 -38 46 -4 62 21 28 44 -21 15 -22 18 -14 197 4
100 8 259 8 352 l0 170 -28 3 c-17 2 -29 -2 -33 -12z"/>
<path d="M5126 23282 c-3 -5 -8 -29 -11 -53 -16 -122 -30 -188 -68 -338 -23
-90 -47 -165 -53 -168 -6 -2 -44 16 -84 41 -158 98 -289 104 -335 16 -22 -42
-20 -137 4 -176 37 -61 160 -87 286 -60 144 31 305 92 305 116 0 13 7 15 -122
-26 -232 -73 -411 -54 -432 47 -7 34 14 83 39 93 50 19 146 -12 268 -86 58
-35 73 -40 95 -32 24 8 30 21 54 114 63 236 101 408 102 460 1 49 -1 55 -21
58 -11 2 -24 -1 -27 -6z"/>
<path d="M4256 23188 c-77 -79 -171 -209 -248 -343 l-34 -60 -54 -5 c-49 -4
-55 -8 -58 -29 -4 -26 12 -41 46 -41 12 0 22 -3 22 -6 0 -4 -18 -39 -40 -79
-46 -82 -49 -101 -19 -110 28 -9 41 6 68 81 41 112 47 117 157 148 120 33 254
93 254 114 0 9 -7 12 -17 9 -10 -2 -74 -21 -141 -41 -122 -36 -152 -42 -152
-30 0 24 155 253 237 350 28 33 70 57 78 44 11 -18 35 -386 35 -530 -1 -74 -1
-141 0 -147 0 -21 28 -15 41 8 14 26 14 203 -1 459 -12 220 -16 248 -38 273
-28 31 -53 19 -136 -65z"/>
<path d="M5934 23252 c-18 -12 -114 -278 -145 -401 -7 -29 -19 -55 -25 -58 -7
-2 -55 9 -108 26 -110 35 -207 41 -257 16 -40 -21 -69 -71 -69 -118 0 -129
215 -161 468 -71 23 9 42 22 42 30 0 19 -11 18 -110 -7 -64 -16 -104 -20 -175
-17 -100 4 -137 19 -157 64 -10 21 -8 28 9 46 43 43 164 31 306 -28 55 -23 61
-24 83 -9 13 8 24 25 24 38 0 31 97 311 132 380 16 33 28 70 26 85 -3 27 -24
38 -44 24z"/>
<path d="M805 23233 c-5 -10 -9 -108 -11 -218 -2 -110 -4 -204 -4 -208 0 -4
-52 -7 -116 -6 -117 1 -133 -3 -134 -37 0 -29 31 -36 142 -33 l113 4 0 -50 c0
-27 -3 -110 -8 -182 -7 -128 -6 -133 12 -133 11 0 23 4 26 10 3 5 6 91 6 189
0 202 -8 184 84 196 66 9 231 50 278 70 20 8 37 20 37 26 0 14 -45 9 -180 -20
-52 -11 -124 -23 -159 -27 l-63 -7 7 144 c4 79 11 173 16 208 7 46 7 67 -2 77
-16 19 -35 18 -44 -3z"/>
<path d="M6242 23023 c-114 -34 -212 -164 -212 -280 0 -52 3 -59 40 -94 41
-39 76 -50 202 -65 49 -5 59 -4 64 11 9 23 -6 31 -95 45 -92 15 -126 31 -146
70 -17 33 -20 86 -5 95 5 3 21 -2 35 -11 54 -36 206 5 298 80 46 38 52 46 52
81 0 30 -6 42 -28 58 -36 28 -133 32 -205 10z m165 -65 c21 -17 3 -37 -63 -69
-53 -26 -79 -32 -150 -36 -82 -3 -85 -3 -72 15 16 24 65 65 98 82 53 29 156
33 187 8z"/>
<path d="M1461 22933 c-20 -39 -33 -140 -27 -211 8 -103 24 -154 58 -196 39
-47 74 -65 146 -72 89 -10 157 14 227 78 67 61 92 98 130 193 34 86 45 129 35
145 -7 12 -14 -1 -91 -165 -36 -77 -119 -168 -175 -191 -43 -18 -115 -18 -158
0 -49 20 -89 76 -103 143 -15 78 -10 201 11 242 9 17 14 36 11 41 -10 16 -54
11 -64 -7z"/>
<path d="M6962 22905 c-87 -16 -197 -66 -269 -123 -39 -31 -61 -60 -87 -114
-42 -85 -57 -162 -33 -171 27 -10 54 20 62 70 22 147 117 226 348 287 53 14
108 26 121 26 35 0 56 10 56 26 0 18 -96 18 -198 -1z"/>
<path d="M4520 22077 c-3 -2 -210 -7 -460 -11 -689 -10 -995 -24 -1860 -86
-396 -29 -915 -47 -1380 -49 -311 -1 -444 -8 -473 -23 -21 -11 -23 -46 -2 -54
8 -4 52 -1 97 5 46 5 247 13 448 16 558 9 916 25 1480 65 80 6 258 17 395 25
138 8 275 17 305 20 508 50 3146 53 3903 4 162 -11 180 -10 195 5 30 29 4 51
-64 53 -534 19 -826 24 -1629 29 -522 3 -952 4 -955 1z"/>
<path d="M4524 21416 c-45 -20 -108 -80 -137 -129 -29 -49 -60 -169 -82 -317
-14 -90 -20 -108 -42 -126 -18 -15 -23 -27 -19 -42 11 -34 35 -34 115 2 42 18
137 55 211 81 143 51 198 80 224 117 38 54 2 120 -73 133 -34 6 -41 10 -36 23
3 9 9 44 12 78 6 70 -7 120 -44 164 -28 34 -74 39 -129 16z m90 -71 c32 -34
39 -96 20 -172 -9 -34 -14 -75 -12 -90 3 -26 6 -28 48 -29 62 -1 70 -2 70 -14
0 -11 -135 -80 -157 -80 -6 0 -58 -18 -114 -40 -57 -22 -107 -40 -112 -40 -15
0 0 171 24 263 23 91 42 127 91 173 64 61 105 69 142 29z"/>
<path d="M8613 21389 c-72 -36 -137 -145 -177 -301 -13 -51 -29 -93 -35 -93
-16 0 -160 114 -177 140 -23 35 -9 62 47 91 53 26 71 51 48 65 -50 31 -168
-65 -169 -137 0 -33 50 -91 124 -142 38 -27 74 -56 80 -65 16 -25 -2 -48 -60
-77 -42 -21 -63 -25 -146 -25 -75 0 -99 -3 -103 -14 -8 -21 22 -60 51 -67 59
-15 197 25 255 73 16 14 31 24 32 22 2 -2 8 -17 15 -32 10 -23 9 -29 -3 -33
-22 -9 -19 -51 4 -64 30 -15 276 -12 347 5 172 40 314 145 314 230 0 63 -48
97 -173 121 -72 14 -87 20 -82 33 17 41 27 132 21 176 -11 72 -57 115 -122
115 -29 0 -66 -8 -91 -21z m124 -64 c61 -43 46 -199 -21 -235 -26 -13 -45 -54
-32 -67 3 -4 57 -7 118 -7 85 -1 123 -6 156 -20 54 -23 54 -44 1 -90 -93 -79
-222 -118 -401 -120 -117 -1 -142 4 -120 26 7 7 12 37 12 68 0 90 63 322 104
383 46 68 132 97 183 62z"/>
<path d="M3306 21298 c-13 -18 -64 -113 -112 -210 -48 -98 -91 -178 -95 -178
-14 0 -19 48 -19 187 0 78 -5 154 -10 168 -14 36 -40 29 -62 -15 -23 -47 -114
-337 -134 -427 -18 -83 -14 -106 18 -101 21 3 24 11 35 103 22 191 64 364 90
372 18 6 23 -35 23 -187 0 -155 9 -193 46 -198 26 -4 41 19 83 123 44 111 134
287 146 286 6 0 15 -58 21 -128 18 -206 39 -275 80 -259 11 4 14 13 10 29 -15
46 -35 201 -42 309 -10 165 -27 192 -78 126z"/>
<path d="M7823 21293 c-11 -15 -31 -49 -46 -74 -14 -26 -68 -100 -120 -165
-139 -178 -147 -196 -100 -253 58 -69 319 -40 423 48 28 23 32 32 23 42 -10
10 -29 7 -94 -16 -132 -46 -297 -43 -307 5 -1 9 27 52 64 95 88 105 216 300
212 322 -5 29 -34 26 -55 -4z"/>
<path d="M3830 21266 c-76 -17 -170 -67 -209 -112 -27 -30 -32 -42 -27 -68 4
-17 17 -42 30 -55 21 -21 40 -25 167 -38 142 -14 208 -33 217 -61 7 -24 -75
-91 -133 -107 -55 -16 -66 -30 -43 -53 33 -33 120 0 186 72 47 51 54 88 25
137 -26 44 -71 59 -217 74 -193 19 -219 41 -119 101 48 29 93 41 210 59 47 7
64 32 37 52 -21 16 -51 15 -124 -1z"/>
<path d="M9516 20848 c-13 -19 -14 -66 -12 -303 4 -263 9 -359 37 -631 7 -62
10 -118 7 -125 -4 -10 -64 -23 -194 -42 -191 -27 -312 -54 -378 -81 -28 -11
-36 -21 -36 -40 0 -32 30 -42 67 -23 47 24 180 55 345 82 221 35 208 37 208
-34 0 -71 17 -64 -215 -85 -88 -8 -175 -20 -193 -27 -41 -14 -58 -42 -36 -59
12 -10 29 -11 82 -1 37 6 114 16 172 21 58 5 124 13 148 16 l42 6 0 -183 c1
-101 3 -264 7 -361 l5 -178 -49 0 c-27 0 -226 11 -443 25 -345 22 -536 35
-1240 85 -148 11 -657 31 -1265 51 -406 13 -2680 -1 -2706 -17 -5 -3 -383 -10
-840 -15 -940 -11 -958 -10 -1308 61 -195 40 -221 40 -234 6 -10 -25 26 -43
96 -50 37 -4 134 -19 215 -35 241 -47 363 -54 772 -47 201 4 518 9 705 11 187
2 459 8 605 14 146 6 465 13 710 16 245 2 738 7 1095 11 594 6 898 2 1445 -21
63 -3 230 -10 370 -15 140 -6 338 -17 440 -25 102 -8 250 -19 330 -25 80 -5
213 -14 295 -19 225 -16 819 -50 912 -53 45 -2 85 -6 89 -10 4 -4 7 -94 8
-200 l1 -192 -87 -18 c-103 -20 -148 -41 -148 -68 0 -32 19 -33 78 -7 82 36
180 48 412 50 179 2 205 4 208 18 4 22 -59 29 -260 29 l-157 0 2 193 2 192
175 -5 c260 -7 1639 -6 2415 2 833 9 1414 -3 1515 -32 147 -43 244 -53 435
-46 762 27 1920 55 2399 57 160 1 359 4 441 8 146 6 150 7 153 28 3 17 -3 26
-23 33 -15 6 -30 8 -33 6 -6 -4 -170 -7 -1042 -21 -362 -6 -623 -12 -1110 -25
-798 -22 -965 -23 -1052 -9 -46 7 -94 20 -108 28 -34 22 -491 29 -1380 22
-849 -7 -2777 -8 -2783 -1 -2 3 -8 147 -12 320 -4 173 -8 338 -9 365 l-1 50
60 8 c119 16 124 17 130 38 12 37 -13 51 -74 39 -30 -5 -71 -10 -92 -10 l-39
0 0 54 c0 30 5 58 11 61 6 4 60 10 121 14 117 6 139 17 124 56 -6 16 -15 17
-99 10 -50 -4 -105 -8 -122 -8 l-30 -2 -6 140 c-3 77 -12 208 -19 290 -7 86
-10 256 -8 400 3 228 2 250 -14 253 -9 2 -24 -7 -32 -20z"/>
<path d="M3094 20230 c-144 -29 -253 -154 -290 -333 -36 -173 53 -365 201
-433 99 -46 233 -56 299 -23 16 8 31 20 34 27 3 11 -11 12 -75 7 -173 -15
-317 59 -382 195 -100 213 53 519 262 524 42 1 60 -5 93 -27 58 -39 103 -17
55 27 -44 40 -114 52 -197 36z"/>
<path d="M7945 20179 c-74 -26 -155 -79 -201 -133 -102 -117 -182 -386 -200
-669 -5 -82 -9 -99 -25 -108 -47 -25 0 -51 131 -72 143 -24 253 -28 413 -17
322 23 457 73 518 192 29 57 19 98 -39 160 -80 86 -231 171 -404 228 -78 25
-88 34 -56 51 47 24 109 82 128 120 11 21 23 65 26 96 6 70 -14 116 -65 150
-45 30 -141 31 -226 2z m200 -52 c41 -34 44 -93 10 -162 -29 -59 -71 -97 -157
-141 -27 -13 -48 -31 -48 -39 0 -25 57 -52 195 -96 170 -54 266 -100 325 -157
58 -56 69 -90 46 -138 -35 -75 -154 -118 -416 -150 -133 -16 -411 -15 -467 2
-22 6 -23 11 -23 103 0 268 80 561 183 670 103 108 287 165 352 108z"/>
<path d="M3677 20169 c-9 -6 -17 -19 -17 -30 0 -17 6 -20 32 -17 21 2 34 9 36
20 4 22 -28 39 -51 27z"/>
<path d="M10631 20123 c-73 -44 -251 -209 -317 -294 -91 -119 -128 -229 -105
-315 13 -50 69 -116 124 -148 50 -29 159 -56 227 -56 56 0 149 32 174 59 25
27 6 34 -61 22 -140 -26 -259 0 -343 76 -82 73 -89 131 -30 250 57 116 288
337 382 365 35 10 45 9 71 -6 29 -16 31 -16 49 2 23 23 15 48 -23 67 -44 23
-80 18 -148 -22z"/>
<path d="M12052 20143 c-16 -29 -23 -180 -14 -288 4 -55 5 -101 2 -103 -4 -1
-31 -17 -60 -35 -63 -38 -80 -60 -64 -84 17 -27 28 -26 69 7 21 16 43 30 50
30 8 0 14 -23 18 -63 7 -78 15 -99 36 -95 13 3 16 19 16 98 l0 95 105 22 c177
38 205 47 208 65 6 29 -49 31 -179 4 -68 -15 -130 -26 -138 -26 -14 0 -13 69
2 355 2 24 -2 31 -20 33 -13 2 -25 -4 -31 -15z"/>
<path d="M6624 20053 c-6 -5 -91 -141 -187 -303 -97 -162 -189 -317 -206 -343
-34 -54 -32 -80 8 -75 22 3 34 19 81 113 111 222 141 275 268 468 45 67 50 57
87 -153 8 -46 11 -88 7 -92 -5 -5 -55 -11 -111 -15 -86 -5 -104 -9 -112 -25
-12 -22 1 -43 30 -53 10 -3 53 2 97 10 43 8 85 15 92 15 10 0 13 -29 11 -126
-1 -133 6 -158 39 -138 14 9 18 33 22 144 l5 133 54 16 c77 23 77 39 0 43
l-63 3 -13 100 c-7 55 -23 141 -35 190 -19 73 -27 90 -43 93 -11 1 -25 -1 -31
-5z"/>
<path d="M14430 20021 c-41 -15 -93 -38 -115 -51 -147 -82 -118 -130 135 -221
238 -85 300 -115 362 -173 26 -25 53 -64 63 -90 17 -43 17 -46 -2 -78 -41 -71
-196 -128 -349 -128 -67 0 -86 4 -108 21 -14 11 -30 17 -36 14 -19 -12 -10
-34 26 -55 55 -35 179 -39 298 -10 213 51 280 138 206 268 -53 91 -176 167
-400 247 -165 59 -240 103 -222 131 16 26 113 74 186 93 102 27 156 27 189 1
33 -26 49 -25 45 3 -9 61 -151 75 -278 28z"/>
<path d="M5451 20031 c-8 -5 -24 -68 -40 -157 l-26 -149 -124 0 c-108 0 -125
-2 -135 -18 -21 -34 16 -47 135 -47 59 0 110 -3 113 -8 2 -4 0 -43 -6 -87 -15
-120 -15 -129 4 -133 27 -5 43 37 48 128 l5 85 158 -2 c150 -2 157 -2 157 17
0 12 -8 21 -22 24 -57 13 -171 26 -218 26 -38 0 -52 4 -57 17 -4 9 9 76 27
149 29 111 32 135 21 148 -15 18 -21 19 -40 7z"/>
<path d="M7106 19935 c-13 -13 -15 -35 -10 -128 3 -62 9 -143 14 -182 5 -46 4
-72 -3 -77 -6 -3 -41 -9 -78 -13 -71 -7 -107 -30 -95 -60 9 -25 32 -28 103
-12 38 9 72 12 77 7 7 -7 3 -199 -6 -280 -4 -37 33 -34 51 5 13 27 17 157 8
264 -2 23 3 25 108 46 131 26 179 41 195 60 21 26 -14 28 -134 11 -62 -9 -127
-16 -144 -16 l-32 0 0 183 c0 129 -4 187 -12 195 -16 16 -23 15 -42 -3z"/>
<path d="M11213 19911 c-45 -21 -76 -67 -71 -104 5 -34 34 -33 46 3 12 34 44
50 98 50 66 0 103 -33 104 -91 1 -123 -246 -285 -380 -249 -92 25 -123 94 -77
175 18 31 32 43 67 54 63 19 75 26 78 44 4 22 -33 40 -68 32 -83 -18 -160
-121 -160 -212 0 -70 27 -112 91 -146 48 -26 62 -28 121 -24 91 6 176 48 263
128 120 113 149 191 103 279 -41 77 -126 101 -215 61z"/>
<path d="M3676 19904 c-12 -11 -16 -37 -17 -102 0 -48 -2 -133 -5 -189 -3 -69
-1 -104 6 -108 31 -19 45 37 60 238 8 113 8 152 -1 163 -15 18 -24 18 -43 -2z"/>
<path d="M4204 19898 c-71 -53 -134 -151 -215 -332 -43 -98 -45 -108 -25 -125
27 -22 50 4 74 81 49 158 163 338 204 323 23 -9 74 -111 87 -173 6 -29 11 -91
11 -136 0 -63 3 -85 14 -89 26 -10 38 21 43 105 8 130 -42 286 -110 344 -35
30 -45 30 -83 2z"/>
<path d="M11904 19803 c-16 -21 -42 -57 -57 -81 -44 -69 -127 -152 -179 -178
-62 -31 -130 -32 -159 -3 -18 18 -21 29 -16 68 3 25 8 53 12 61 3 9 -1 24 -9
35 -25 34 -50 8 -60 -65 -24 -177 84 -251 247 -169 81 42 198 182 247 297 30
69 15 89 -26 35z"/>
<path d="M15572 19743 c-7 -3 -30 -39 -51 -81 -81 -161 -214 -296 -303 -308
-38 -5 -49 -3 -74 19 -28 24 -29 29 -29 111 -1 93 -12 119 -43 100 -12 -8 -18
-27 -20 -72 -4 -82 13 -139 53 -179 30 -30 38 -33 96 -33 76 0 120 23 195 103
53 56 204 293 204 321 0 18 -10 25 -28 19z"/>
<path d="M16079 19562 c-36 -42 -88 -96 -116 -119 l-50 -43 -7 38 c-3 20 -6
53 -6 72 0 46 -25 82 -53 78 -18 -2 -29 -22 -57 -103 -34 -97 -72 -165 -90
-165 -12 0 -17 26 -25 118 -6 84 -17 112 -45 112 -28 0 -29 -8 -18 -95 15
-113 25 -148 48 -173 47 -50 102 -15 140 91 34 92 40 103 51 86 5 -8 9 -32 9
-54 0 -45 22 -85 48 -85 9 0 67 52 128 116 62 64 116 114 122 110 6 -3 18 -41
27 -84 30 -138 29 -137 50 -137 18 0 20 6 17 60 -6 127 -51 255 -89 255 -10 0
-47 -35 -84 -78z"/>
<path d="M18875 18756 c-56 -14 -176 -65 -245 -104 -85 -48 -216 -151 -247
-194 -82 -116 -127 -254 -121 -373 8 -140 71 -237 192 -291 52 -24 77 -28 176
-32 99 -4 124 -1 179 17 108 37 234 119 354 231 74 69 167 184 167 206 0 8 4
14 8 14 11 0 49 95 57 143 10 59 8 150 -4 195 -26 94 -129 160 -265 170 -45 2
-90 11 -101 18 -24 17 -82 17 -150 0z m134 -35 c12 -8 6 -19 -32 -60 -26 -28
-47 -57 -47 -65 0 -34 24 -24 78 32 62 66 87 82 126 82 48 0 140 -42 185 -86
44 -41 45 -44 49 -112 8 -142 -75 -319 -213 -451 -189 -181 -324 -251 -484
-251 -168 0 -281 59 -332 172 -32 71 -31 187 2 290 28 89 102 202 175 266 60
54 249 155 329 177 59 16 144 19 164 6z"/>
<path d="M19082 18683 c3 -5 11 -23 18 -40 14 -31 40 -46 40 -22 0 16 -40 69
-52 69 -5 0 -8 -3 -6 -7z"/>
<path d="M24241 18740 c-119 -25 -235 -107 -293 -209 -29 -49 -33 -65 -33
-128 0 -63 3 -76 30 -114 74 -105 170 -145 330 -136 160 9 291 62 374 152 86
93 103 179 51 257 -38 58 -74 85 -177 136 -68 33 -96 41 -160 45 -43 3 -98 2
-122 -3z m11 -85 c-3 -20 0 -25 17 -25 11 0 35 9 53 20 34 21 125 28 144 12 5
-5 27 -14 49 -20 84 -24 155 -100 155 -166 0 -39 -32 -95 -82 -143 -110 -106
-363 -163 -490 -110 -80 34 -128 100 -128 175 0 86 96 208 203 257 68 32 86
32 79 0z"/>
<path d="M3645 18672 c-80 -38 -118 -72 -156 -139 -40 -69 -42 -133 -9 -210
50 -116 160 -173 337 -173 204 0 384 77 407 173 7 31 -19 101 -58 152 -29 38
-117 86 -211 114 -40 13 -83 34 -100 50 -76 71 -116 77 -210 33z m133 -28 c37
-10 25 -21 -30 -28 -69 -9 -149 -48 -187 -91 -17 -19 -33 -35 -36 -35 -15 0
30 63 68 94 70 57 126 75 185 60z m106 -115 c30 -45 49 -47 54 -5 3 23 7 26
25 20 76 -23 175 -101 197 -154 46 -110 -179 -211 -418 -190 -93 9 -153 39
-191 96 -54 82 -52 94 26 175 79 80 117 98 214 99 l66 0 27 -41z"/>
<path d="M20504 18686 c-3 -9 1 -32 10 -51 21 -45 48 -293 44 -414 -3 -98 8
-125 33 -79 32 60 12 435 -29 518 -18 38 -48 51 -58 26z"/>
<path d="M26417 18690 c-200 -34 -400 -147 -451 -254 -60 -127 -21 -314 81
-392 70 -54 214 -70 289 -32 49 24 27 33 -84 33 -89 0 -114 3 -147 21 -105 55
-146 233 -82 360 25 50 75 97 137 129 108 56 318 103 402 91 88 -13 93 -12 93
9 0 11 -11 25 -25 32 -28 14 -138 15 -213 3z"/>
<path d="M19761 18651 c-19 -12 -8 -171 19 -272 26 -98 25 -169 -2 -246 -36
-99 4 -101 55 -3 35 69 36 137 2 266 -15 57 -25 124 -25 164 0 49 -5 73 -16
84 -18 19 -15 18 -33 7z"/>
<path d="M21434 18637 c-2 -7 2 -32 11 -56 19 -56 19 -180 0 -408 -23 -263
-24 -238 5 -238 31 0 33 11 50 285 13 200 5 363 -20 409 -12 23 -38 28 -46 8z"/>
<path d="M16307 18622 c-19 -21 -23 -52 -6 -52 7 0 9 -10 5 -26 -4 -14 -2 -32
4 -39 8 -10 7 -37 -4 -104 -9 -50 -16 -93 -16 -95 0 -2 -46 -7 -102 -11 -57
-3 -164 -15 -238 -25 -74 -10 -188 -24 -253 -31 -122 -13 -155 -25 -144 -53 9
-23 136 -21 307 4 133 20 253 35 359 43 l53 4 -6 -46 c-4 -25 -11 -163 -16
-306 -5 -143 -12 -338 -16 -433 l-7 -174 -136 7 c-75 3 -265 7 -423 8 -263 2
-289 0 -305 -16 -13 -13 -15 -21 -7 -34 9 -15 49 -16 441 -14 l431 3 8 -234
c9 -278 8 -536 -5 -868 -12 -302 -6 -1599 8 -1770 15 -181 13 -404 -5 -586
-18 -185 -20 -385 -5 -592 6 -81 13 -245 15 -364 l5 -218 -22 -5 c-53 -13
-289 -35 -367 -35 -101 0 -199 21 -258 56 -49 29 -75 26 -70 -8 4 -29 100 -82
176 -97 100 -20 294 -9 487 28 27 5 53 8 56 5 4 -2 10 -36 13 -76 4 -40 23
-156 41 -258 32 -178 50 -317 76 -575 6 -66 27 -198 45 -294 19 -95 32 -176
29 -180 -5 -10 -405 -26 -590 -25 -153 1 -298 18 -358 42 -34 13 -40 13 -53 0
-40 -40 30 -74 184 -89 116 -12 351 -8 640 11 100 7 185 10 188 8 3 -3 13 -34
23 -69 25 -90 43 -96 94 -34 54 65 100 110 282 282 159 149 356 323 367 323
12 0 77 -297 107 -490 58 -376 85 -636 121 -1155 11 -154 22 -294 25 -311 3
-17 10 -165 15 -330 11 -302 21 -533 40 -878 10 -180 39 -382 75 -519 8 -32
15 -60 15 -62 0 -19 -453 19 -600 50 -63 13 -202 44 -307 69 -312 74 -868 196
-1013 222 -74 14 -229 43 -345 64 -115 22 -284 48 -375 59 -91 11 -178 24
-193 30 -56 21 -78 3 -38 -33 25 -23 67 -33 185 -46 383 -41 1179 -201 1946
-390 183 -45 313 -62 593 -80 142 -9 191 -10 200 -1 9 9 6 33 -11 99 -46 179
-71 349 -82 549 -17 335 -30 626 -39 903 -27 804 -139 1826 -236 2160 l-37
125 34 28 c52 45 245 171 331 218 44 23 131 63 194 90 185 77 189 82 124 177
-163 240 -276 647 -351 1257 -22 179 -72 506 -94 611 l-13 62 96 -4 c53 -2
191 -6 306 -9 261 -6 521 -22 599 -36 48 -8 62 -8 73 4 21 21 6 44 -35 51 -73
13 -522 36 -732 37 -118 0 -237 4 -265 7 l-50 7 -22 115 c-102 533 -135 935
-114 1420 15 348 20 388 126 965 82 446 109 648 103 791 l-3 94 -50 42 c-27
23 -128 120 -224 215 -114 114 -229 216 -335 298 -88 69 -210 164 -270 212
-93 73 -199 147 -307 211 -22 13 -28 25 -32 65 -6 64 -30 83 -60 49z m204
-250 c229 -151 572 -431 759 -621 91 -92 189 -188 218 -214 51 -45 52 -47 52
-102 0 -56 -32 -356 -51 -475 -5 -36 -32 -182 -59 -325 -98 -521 -105 -577
-121 -979 -20 -489 19 -951 121 -1431 12 -55 23 -109 25 -120 14 -67 78 -486
95 -625 34 -275 60 -449 86 -575 70 -335 156 -587 254 -741 22 -35 40 -68 40
-73 0 -5 -30 -22 -67 -37 -234 -99 -464 -238 -658 -395 -78 -64 -180 -154
-277 -245 -62 -59 -156 -144 -209 -190 -53 -45 -114 -103 -137 -129 -23 -26
-46 -44 -52 -40 -5 3 -10 26 -10 50 0 24 -4 47 -10 50 -5 3 -10 17 -10 30 0
13 -13 92 -29 177 -16 84 -37 225 -45 313 -23 227 -42 362 -81 585 -18 107
-37 218 -40 246 l-6 50 41 17 c52 20 49 42 -6 42 l-39 0 -2 190 c-1 105 -7
266 -14 358 -15 229 -13 449 5 647 19 203 20 346 2 605 -10 152 -12 387 -9
985 2 432 5 1100 6 1485 2 385 6 727 10 760 4 33 9 166 12 295 6 273 10 296
48 292 22 -3 27 1 27 17 0 14 -8 23 -25 27 -14 3 -25 9 -25 13 0 24 34 171 40
171 4 0 67 -40 141 -88z"/>
<path d="M16464 18214 c-38 -19 -54 -51 -54 -110 0 -94 48 -138 150 -139 71 0
127 22 189 74 28 23 33 32 27 55 -8 33 -77 84 -125 91 -20 4 -52 15 -72 26
-44 23 -73 24 -115 3z m99 -64 c4 -15 14 -20 41 -20 44 0 49 -23 9 -42 -32
-15 -35 -27 -10 -42 21 -13 64 7 81 39 6 11 12 22 13 24 4 6 33 -20 33 -30 0
-4 -29 -22 -65 -40 -84 -41 -144 -38 -187 10 -33 37 -35 59 -7 95 26 33 84 37
92 6z"/>
<path d="M16563 17552 c-7 -4 -17 -30 -23 -57 -6 -28 -20 -87 -31 -133 -24
-96 -29 -253 -9 -277 10 -13 38 -21 41 -12 0 1 2 45 5 97 2 52 11 128 20 168
13 60 20 75 40 84 20 9 24 19 24 52 0 62 -32 100 -67 78z"/>
<path d="M16599 16741 c-85 -36 -168 -84 -203 -116 -58 -54 -1 -89 59 -36 19
16 54 41 78 55 56 33 168 79 175 72 12 -12 -53 -89 -157 -187 -88 -82 -111
-109 -111 -130 0 -21 7 -29 31 -38 65 -22 128 -11 252 46 130 61 75 78 -90 29
-51 -15 -98 -26 -105 -24 -6 2 40 56 104 119 108 107 158 168 158 196 0 50
-92 57 -191 14z"/>
<path d="M16524 15865 c-148 -16 -164 -20 -164 -47 0 -20 3 -21 93 -14 50 3
110 11 132 16 51 12 185 13 185 1 0 -12 -51 -50 -136 -100 -40 -23 -80 -51
-89 -61 -41 -45 23 -80 145 -80 44 0 80 -4 80 -8 0 -10 -98 -104 -172 -167
-32 -26 -58 -54 -58 -61 0 -44 104 15 225 128 61 57 75 76 75 99 0 40 -45 59
-141 59 -52 0 -70 3 -67 13 3 6 41 35 85 62 140 86 161 119 101 155 -39 23
-105 24 -294 5z"/>
<path d="M16618 14879 c-18 -10 -48 -95 -48 -134 0 -40 -64 -74 -102 -54 -21
11 -23 48 -6 96 10 28 10 36 -4 49 -22 23 -46 11 -63 -31 -26 -60 -20 -102 20
-142 34 -34 38 -35 90 -31 l54 5 3 -91 c3 -83 5 -91 23 -91 25 0 31 27 42 185
7 86 14 127 31 161 26 54 28 75 6 83 -20 8 -26 7 -46 -5z"/>
<path d="M16622 13997 c-17 -13 -49 -29 -71 -37 -47 -15 -81 -44 -81 -67 0
-25 61 -76 141 -117 92 -48 129 -81 129 -116 0 -34 -26 -57 -76 -68 -45 -9
-52 -32 -13 -46 40 -14 98 2 132 35 26 26 29 35 24 70 -7 56 -45 100 -119 139
-98 52 -138 79 -138 94 0 35 140 58 206 34 28 -10 36 -9 52 5 17 15 28 16 97
6 64 -9 80 -8 92 4 21 21 -2 36 -73 47 -46 8 -263 40 -269 40 -1 0 -15 -10
-33 -23z"/>
<path d="M16624 12925 c-14 -14 -44 -65 -67 -113 -41 -86 -42 -89 -42 -197 l0
-110 40 -19 c56 -27 153 -33 197 -12 51 24 148 114 148 137 0 11 -14 28 -32
39 -41 25 -71 20 -189 -26 -100 -40 -106 -40 -114 -15 -15 50 36 176 104 253
46 52 49 63 22 78 -29 15 -39 13 -67 -15z m170 -346 c-16 -17 -46 -39 -66 -50
-39 -20 -113 -26 -123 -9 -7 11 61 47 135 71 80 25 88 23 54 -12z"/>
<path d="M16715 11710 c-82 -10 -151 -18 -153 -19 -2 -1 -2 -11 0 -23 3 -22 8
-23 73 -22 39 1 120 8 180 17 91 13 112 13 124 2 23 -22 -35 -126 -137 -247
-77 -90 -89 -108 -76 -119 25 -21 57 3 145 109 146 177 175 268 98 307 -34 18
-63 18 -254 -5z"/>
<path d="M23042 18618 c-7 -7 -12 -31 -12 -55 0 -40 -44 -570 -55 -660 -4 -35
-1 -44 15 -53 14 -8 26 -7 41 1 18 9 20 17 15 49 -6 37 21 392 45 603 9 76 9
100 -1 112 -15 18 -32 19 -48 3z"/>
<path d="M14545 18605 c-44 -7 -88 -16 -97 -20 -44 -18 -7 -24 135 -22 143 2
157 0 229 -25 127 -45 170 -69 235 -133 68 -67 86 -110 86 -203 0 -58 -21 -97
-64 -120 -33 -18 -207 -9 -329 18 -310 67 -448 158 -385 254 25 37 102 87 189
121 96 37 108 60 31 59 -68 0 -173 -52 -241 -118 -52 -50 -54 -54 -54 -104 0
-104 40 -151 168 -201 119 -46 223 -70 380 -88 282 -33 366 14 364 202 -1 78
-32 160 -78 208 -81 83 -228 154 -365 176 -78 13 -102 13 -204 -4z"/>
<path d="M8640 18600 c-14 -4 -63 -8 -109 -9 -180 -2 -354 -78 -400 -175 -38
-78 -24 -134 49 -200 122 -110 336 -126 515 -37 44 22 99 58 121 81 81 79 112
197 68 257 -44 60 -178 106 -244 83z m126 -69 c166 -75 38 -286 -204 -336 -84
-18 -196 -5 -269 30 -58 29 -123 95 -123 126 0 57 62 114 166 150 78 28 184
41 202 26 8 -6 28 -10 45 -9 24 2 38 -6 73 -44 27 -28 50 -44 61 -42 30 6 26
35 -13 77 l-36 41 28 0 c16 0 48 -9 70 -19z"/>
<path d="M6475 18579 c-38 -11 -102 -24 -142 -27 -68 -7 -75 -9 -117 -51 -71
-70 -104 -194 -76 -290 34 -120 163 -179 305 -140 127 34 385 203 435 285 32
51 26 85 -25 142 -82 91 -236 124 -380 81z m267 -72 c52 -25 98 -74 98 -104 0
-39 -164 -166 -311 -240 -64 -32 -85 -38 -154 -41 -94 -4 -138 14 -170 69 -40
68 -17 207 44 268 27 27 51 28 44 1 -4 -16 0 -20 21 -20 14 0 26 4 26 9 0 16
61 54 115 73 79 29 213 21 287 -15z"/>
<path d="M5315 18570 c-4 -6 -5 -41 -3 -77 l3 -67 -77 -16 c-88 -17 -111 -32
-87 -56 14 -13 24 -12 101 10 94 27 282 46 459 46 98 0 134 8 115 27 -13 13
-150 18 -295 10 -84 -4 -156 -5 -159 -3 -3 3 -8 34 -11 68 -5 47 -10 64 -23
66 -9 2 -19 -2 -23 -8z"/>
<path d="M22398 18563 c0 -5 -2 -57 -2 -118 -1 -60 -5 -176 -10 -256 -9 -142
-8 -147 11 -158 31 -16 44 6 37 62 -4 25 -1 98 6 163 22 219 15 314 -25 314
-8 0 -16 -3 -17 -7z"/>
<path d="M10819 18547 c-25 -7 -66 -25 -91 -40 -26 -15 -53 -24 -62 -21 -26
10 -82 -15 -121 -54 -48 -48 -75 -102 -75 -150 0 -164 172 -233 500 -202 247
23 406 72 466 143 64 76 -11 228 -136 272 -152 53 -386 79 -481 52z m86 -89
c12 -38 39 -58 56 -41 8 8 6 19 -5 41 -9 17 -16 34 -16 38 0 21 286 -35 362
-71 31 -15 37 -24 40 -54 3 -31 7 -37 33 -41 27 -5 30 -9 30 -45 0 -38 -3 -41
-50 -67 -165 -89 -643 -106 -771 -27 -43 26 -67 71 -59 109 3 16 25 49 47 75
37 42 42 45 58 30 15 -14 21 -14 56 1 21 9 43 22 47 30 11 20 62 44 110 53 49
9 48 9 62 -31z"/>
<path d="M7378 18543 c-1 -5 -2 -64 -2 -133 l-1 -125 -80 -10 c-71 -9 -80 -12
-83 -32 -5 -31 30 -48 70 -34 54 19 78 14 78 -15 0 -30 23 -28 28 2 2 10 7 22
11 26 4 5 68 13 141 18 160 12 180 16 180 34 0 19 -70 26 -187 19 l-99 -6 0
122 c1 97 -2 124 -14 131 -18 12 -39 13 -42 3z"/>
<path d="M27990 18504 c-78 -28 -169 -113 -313 -291 -69 -85 -147 -218 -147
-250 0 -18 6 -23 25 -23 20 0 30 11 54 59 92 187 294 418 397 455 67 24 79 31
79 47 0 20 -43 21 -95 3z"/>
<path d="M27543 18482 c-90 -48 -221 -218 -270 -351 -27 -74 -26 -101 5 -101
25 0 42 19 42 48 0 27 56 144 105 217 29 43 73 85 174 163 47 36 2 55 -56 24z"/>
<path d="M26837 18439 c-26 -15 -22 -25 33 -83 84 -89 87 -162 9 -242 -78 -80
-149 -96 -200 -45 -31 31 -37 77 -22 151 5 29 53 86 107 129 16 12 16 15 3 29
-40 40 -146 -64 -167 -163 -16 -76 -4 -139 32 -181 34 -38 93 -59 141 -49 79
17 171 101 197 181 6 19 16 34 20 34 5 0 30 -33 56 -72 26 -40 52 -82 59 -93
25 -39 74 -85 90 -85 25 0 31 31 9 49 -27 22 -90 109 -153 211 -59 95 -153
215 -179 229 -11 6 -24 6 -35 0z"/>
<path d="M28620 18331 c-63 -99 -164 -194 -244 -232 -90 -43 -131 -37 -162 22
-22 43 -20 81 5 123 27 42 22 66 -13 66 -32 0 -67 -56 -68 -107 -1 -98 48
-176 118 -189 39 -7 122 17 169 49 16 11 67 57 113 101 45 44 82 76 82 72 0
-4 -14 -42 -31 -84 -17 -42 -37 -93 -45 -112 -15 -38 -75 -233 -148 -480 -26
-89 -64 -158 -110 -200 -23 -21 -36 -25 -82 -23 -52 3 -55 2 -52 -20 2 -16 13
-24 39 -31 54 -13 89 0 141 54 64 66 86 119 194 465 25 83 67 204 92 270 86
227 92 245 94 287 3 38 0 43 -19 46 -17 3 -31 -12 -73 -77z"/>
<path d="M5339 18368 c-6 -15 -4 -258 2 -258 21 0 39 63 39 137 0 91 -7 123
-26 123 -8 0 -14 -1 -15 -2z"/>
<path d="M9586 18282 c-3 -5 -7 -55 -8 -111 -1 -57 -6 -105 -12 -110 -6 -5
-81 -11 -166 -13 -167 -5 -190 -10 -190 -39 0 -31 30 -39 100 -24 36 8 111 17
167 21 l102 7 -5 -159 c-3 -88 -1 -199 4 -247 5 -57 4 -91 -2 -94 -5 -4 -52
-12 -103 -20 -106 -14 -133 -25 -133 -54 0 -30 20 -32 101 -9 57 16 121 23
274 30 110 5 201 9 203 9 1 1 2 10 2 21 0 19 -7 20 -152 20 l-153 0 3 235 c3
174 0 240 -8 250 -11 13 -6 15 31 16 122 1 260 17 285 34 43 28 17 39 -63 26
-37 -5 -106 -12 -153 -13 l-85 -3 -5 114 c-3 74 -9 116 -17 118 -6 2 -14 0
-17 -5z"/>
<path d="M20572 17958 c-12 -15 -56 -166 -78 -270 -15 -73 -37 -281 -49 -476
-6 -90 -4 -106 11 -123 30 -33 104 -18 104 21 0 13 -8 20 -27 22 l-28 3 2 95
c5 224 48 490 109 672 9 26 13 52 9 58 -9 14 -40 13 -53 -2z"/>
<path d="M8495 17880 c-7 -12 -8 -237 -1 -249 3 -4 10 -88 16 -186 13 -211 19
-249 43 -253 15 -3 17 10 17 135 0 76 -5 183 -11 238 -7 55 -12 150 -13 210
-1 105 -2 110 -23 113 -11 2 -24 -2 -28 -8z"/>
<path d="M21211 17860 c-50 -22 -150 -122 -176 -176 -38 -80 -75 -230 -75
-304 0 -91 15 -134 63 -184 56 -58 104 -72 206 -57 99 15 165 54 273 161 147
145 201 292 149 406 -43 94 -162 154 -321 160 -52 2 -106 -1 -119 -6z m168
-40 c58 -10 135 -42 171 -72 35 -28 60 -85 60 -133 0 -122 -150 -325 -290
-393 -62 -30 -97 -37 -167 -33 -42 1 -108 59 -124 108 -26 78 11 274 72 382
22 39 57 66 88 66 11 0 17 11 19 32 3 27 9 34 35 42 43 12 62 13 136 1z"/>
<path d="M22316 17818 c-17 -28 -22 -51 -42 -203 -15 -116 -36 -637 -26 -662
2 -7 11 -13 18 -13 8 0 16 6 19 13 2 6 11 116 19 242 19 273 40 467 62 553 9
34 13 69 10 77 -8 23 -44 18 -60 -7z"/>
<path d="M19709 17786 c-82 -34 -166 -94 -236 -169 -77 -83 -113 -156 -113
-232 0 -201 248 -365 455 -300 139 44 239 201 266 419 13 107 7 145 -29 178
-38 36 -59 45 -135 58 -62 11 -69 10 -121 -13 -56 -26 -92 -66 -82 -92 8 -22
30 -18 57 11 51 56 139 70 209 34 76 -39 86 -101 39 -246 -39 -122 -76 -189
-133 -241 -61 -56 -107 -73 -198 -73 -111 0 -204 64 -259 178 -17 34 -20 55
-16 97 8 76 39 130 126 216 94 93 197 149 272 149 53 0 61 10 27 34 -30 22
-63 19 -129 -8z"/>
<path d="M22938 17779 c-10 -5 -22 -26 -27 -47 -19 -68 -39 -255 -45 -407 -3
-82 -13 -188 -21 -235 -31 -165 -30 -152 -9 -148 10 2 24 15 31 28 23 48 53
210 63 338 22 280 32 365 46 404 8 22 14 44 14 49 0 16 -35 28 -52 18z"/>
<path d="M3827 17765 c-132 -34 -206 -98 -227 -199 -24 -119 34 -219 156 -266
79 -31 249 -39 347 -16 157 37 271 115 298 205 10 34 9 47 -6 87 -29 76 -87
125 -191 164 -78 29 -103 33 -204 36 -78 2 -134 -1 -173 -11z m329 -59 c93
-31 151 -71 176 -119 27 -54 18 -97 -32 -147 -84 -84 -212 -124 -380 -118
-174 6 -256 58 -267 171 -4 44 0 61 24 106 49 96 175 143 244 92 15 -11 35
-21 43 -21 24 0 26 29 3 51 l-22 22 70 -7 c39 -3 103 -17 141 -30z"/>
<path d="M6500 17767 c-117 -27 -282 -145 -321 -232 -24 -51 -24 -109 0 -161
51 -112 233 -166 449 -134 208 31 419 136 435 217 13 71 -46 177 -131 237 -95
66 -305 101 -432 73z m387 -103 c62 -43 112 -109 120 -159 8 -51 -23 -86 -119
-133 -244 -119 -573 -118 -647 2 -35 56 -36 104 -4 157 50 83 168 166 262 185
31 7 33 6 22 -14 -16 -30 2 -36 41 -12 46 28 93 26 120 -5 12 -14 30 -25 40
-25 23 0 34 26 19 44 -34 41 69 13 146 -40z"/>
<path d="M5433 17723 c-17 -6 -16 -17 7 -68 11 -25 23 -65 26 -89 8 -52 9 -52
-116 -60 -80 -5 -206 -39 -229 -61 -12 -12 -12 -17 -1 -29 18 -23 38 -20 125
14 63 26 239 59 251 48 1 -2 -5 -45 -13 -96 -9 -51 -13 -95 -10 -99 10 -10 39
19 54 54 16 40 17 115 1 131 -15 15 69 15 237 2 109 -8 141 -5 113 11 -33 18
-119 32 -233 38 l-120 6 -18 85 c-10 46 -25 92 -34 102 -17 19 -20 20 -40 11z"/>
<path d="M7484 17675 c3 -30 16 -80 27 -110 12 -31 19 -59 16 -62 -3 -2 -46
-15 -96 -28 -89 -22 -141 -46 -141 -64 0 -41 38 -53 88 -27 16 8 59 24 97 37
66 21 69 21 82 3 7 -10 14 -34 15 -53 0 -20 2 -48 2 -63 2 -33 10 -42 32 -34
15 6 16 18 11 95 l-6 89 67 11 c37 6 121 15 187 21 196 17 224 21 230 30 20
32 -163 40 -350 15 -154 -21 -164 -20 -175 11 -6 15 -15 55 -20 91 -10 71 -22
93 -53 93 -18 0 -19 -4 -13 -55z"/>
<path d="M10928 17715 c-71 -18 -120 -48 -176 -109 -64 -70 -86 -125 -87 -218
0 -69 3 -80 30 -119 85 -120 346 -172 539 -108 90 31 191 85 209 113 28 42 21
95 -24 185 -52 104 -133 192 -213 233 -50 26 -75 32 -141 34 -47 2 -104 -2
-137 -11z m121 -46 c25 -9 38 -9 57 1 62 34 195 -87 268 -244 26 -56 24 -111
-5 -142 -55 -59 -185 -104 -301 -104 -161 0 -271 44 -330 131 -26 39 -29 50
-24 94 12 110 122 245 199 245 18 0 41 7 51 15 24 18 42 19 85 4z"/>
<path d="M23831 17593 c-21 -83 -71 -354 -81 -443 -18 -168 -32 -273 -45 -357
-15 -91 -12 -120 17 -128 21 -7 51 12 45 29 -5 13 27 340 43 441 17 113 59
314 81 394 22 81 16 101 -27 101 -18 0 -25 -8 -33 -37z"/>
<path d="M14333 17573 c-6 -16 6 -71 45 -198 9 -32 16 -103 18 -193 3 -147 14
-192 48 -192 19 0 31 126 23 234 -8 99 -63 347 -80 358 -21 13 -47 9 -54 -9z"/>
<path d="M9769 17426 c-2 -3 -38 -6 -79 -7 -41 -1 -95 -6 -120 -12 -25 -5 -61
-14 -81 -19 -41 -9 -54 -28 -35 -53 11 -16 16 -16 70 0 31 9 60 14 63 11 3 -3
7 -85 9 -183 4 -198 6 -231 25 -324 l13 -64 9 50 c5 28 8 66 8 85 -1 55 -21
342 -26 375 -12 70 -12 68 30 76 22 4 74 11 117 14 78 7 117 23 104 43 -7 11
-97 17 -107 8z"/>
<path d="M26123 17371 c-27 -32 -72 -87 -100 -122 -29 -35 -106 -131 -172
-214 -65 -82 -166 -200 -225 -262 -109 -114 -130 -153 -82 -153 36 0 66 29
192 188 153 192 138 176 162 161 17 -10 40 -9 139 10 65 12 134 21 153 19 35
-3 35 -4 43 -63 16 -128 50 -235 75 -235 4 0 14 5 22 10 13 8 12 17 -3 72 -24
82 -43 205 -34 215 4 4 35 9 70 11 112 8 104 38 -14 50 l-74 7 -8 60 c-18 143
-40 271 -48 288 -17 32 -47 19 -96 -42z m70 -176 c14 -66 22 -123 18 -127 -8
-9 -280 -32 -288 -25 -3 3 17 33 43 67 27 34 62 78 77 98 56 72 108 125 117
116 5 -5 20 -63 33 -129z"/>
<path d="M5527 17044 c-4 -4 -7 -62 -7 -129 0 -81 -4 -125 -12 -133 -7 -7 -38
-12 -69 -12 -73 0 -109 -13 -109 -39 0 -35 31 -42 132 -30 55 6 158 8 253 4
164 -7 215 0 215 29 0 8 -8 17 -17 20 -47 14 -158 26 -244 26 l-95 0 0 133 c1
125 0 132 -19 135 -12 2 -24 0 -28 -4z"/>
<path d="M7557 17027 c-12 -10 -13 -24 -6 -86 6 -41 8 -106 7 -144 l-3 -69
-85 -25 c-102 -29 -129 -50 -112 -88 15 -32 41 -32 120 0 86 35 86 35 78 -30
-5 -45 -3 -57 10 -62 24 -9 34 8 42 73 l7 59 65 16 c36 9 117 24 180 34 175
26 222 43 198 72 -13 17 -124 12 -307 -13 -58 -8 -110 -14 -118 -14 -10 0 -13
24 -13 104 0 57 -3 118 -6 135 -8 38 -34 56 -57 38z"/>
<path d="M3755 17018 c-62 -16 -135 -75 -135 -109 0 -11 -21 -47 -46 -80 -60
-79 -95 -165 -101 -254 -5 -82 12 -126 65 -162 146 -97 531 53 648 252 85 146
-31 301 -263 350 -78 17 -111 17 -168 3z m180 -52 c75 -21 120 -43 160 -77
114 -101 79 -215 -104 -337 -99 -66 -191 -101 -282 -109 -123 -10 -171 12
-183 87 -18 112 73 290 190 371 37 25 140 74 164 78 3 0 28 -5 55 -13z"/>
<path d="M6702 16948 c-6 -8 -9 -81 -9 -188 2 -158 4 -175 19 -178 28 -5 36
32 40 201 2 132 1 159 -12 167 -20 13 -26 12 -38 -2z"/>
<path d="M11125 16882 c-33 -16 -85 -40 -115 -53 -106 -46 -220 -181 -220
-260 0 -81 64 -140 176 -164 167 -35 392 5 467 83 60 62 80 168 48 252 -39
102 -114 156 -233 166 -56 5 -70 3 -123 -24z m213 -33 c59 -29 92 -81 102
-161 9 -77 -9 -137 -51 -172 -89 -75 -358 -107 -466 -54 -61 30 -83 110 -50
175 21 39 117 129 163 150 36 17 37 17 48 -1 6 -11 21 -31 34 -44 30 -31 46
-17 30 26 -10 25 -10 34 0 44 12 12 32 9 115 -19 10 -3 17 0 17 8 0 17 -30 49
-46 49 -7 0 -16 5 -19 10 -12 19 78 10 123 -11z"/>
<path d="M8685 16881 c-85 -25 -133 -52 -187 -108 -138 -141 -87 -349 95 -394
102 -25 194 12 307 122 97 95 117 142 112 261 -5 110 -162 167 -327 119z m196
-51 c47 -13 69 -39 76 -88 8 -63 -13 -107 -85 -179 -83 -81 -164 -123 -240
-123 -67 0 -101 18 -130 68 -46 83 -10 197 78 242 22 11 40 25 40 30 0 14 38
32 95 46 63 15 120 17 166 4z"/>
<path d="M9619 16759 c-7 -5 -73 -9 -144 -9 -102 0 -135 -3 -153 -16 -31 -21
-14 -54 28 -54 19 0 30 -5 30 -14 0 -32 27 -38 92 -22 35 8 112 18 172 22 60
3 127 12 149 20 22 8 56 14 76 14 46 0 71 14 54 31 -7 7 -60 14 -135 17 -68 2
-130 8 -139 13 -8 4 -22 3 -30 -2z"/>
<path d="M14467 16714 c-4 -4 -7 -27 -7 -51 0 -23 -14 -107 -30 -186 -31 -144
-52 -370 -38 -406 8 -22 46 -37 59 -24 5 5 11 74 13 154 3 117 10 170 35 284
18 78 31 160 29 185 -3 40 -6 45 -28 48 -14 2 -29 0 -33 -4z"/>
<path d="M5503 16678 c-5 -7 -15 -39 -22 -72 -11 -48 -11 -61 1 -72 8 -8 18
-10 27 -5 12 8 41 106 41 144 0 20 -33 23 -47 5z"/>
<path d="M9629 16613 c-5 -161 -5 -520 -1 -535 2 -10 10 -17 16 -15 13 4 21
376 11 505 -7 83 -25 113 -26 45z"/>
<path d="M20472 16608 c-6 -7 -20 -63 -31 -124 -20 -103 -21 -141 -19 -505 3
-386 3 -394 23 -394 20 0 20 9 26 410 5 399 6 412 31 501 17 61 22 97 16 108
-11 19 -32 21 -46 4z"/>
<path d="M21163 16608 c-6 -7 -13 -67 -16 -133 -13 -251 -38 -603 -48 -684 -6
-49 -6 -88 -1 -93 33 -33 64 137 87 472 3 47 13 160 21 253 13 133 14 170 4
182 -15 18 -34 19 -47 3z"/>
<path d="M22239 16524 c-7 -9 -17 -46 -21 -83 -14 -124 -39 -396 -48 -541 -11
-167 -27 -321 -36 -343 -8 -21 15 -32 32 -16 25 25 43 132 54 306 13 224 36
441 59 561 19 98 16 132 -13 132 -8 0 -20 -7 -27 -16z"/>
<path d="M19680 16501 c-53 -17 -90 -42 -105 -71 -31 -60 -8 -81 36 -34 49 52
93 67 193 62 106 -5 152 -24 208 -86 46 -51 62 -119 56 -235 -4 -70 -10 -97
-37 -151 -49 -100 -144 -182 -263 -228 -55 -21 -206 -36 -250 -25 -59 15 -117
109 -118 189 0 131 155 360 285 419 22 10 63 19 93 19 39 0 54 4 59 16 11 30
-26 46 -94 42 -55 -3 -70 -10 -130 -51 -73 -50 -145 -131 -205 -229 -92 -150
-89 -292 8 -392 57 -59 88 -71 184 -71 146 0 292 62 401 170 98 98 135 200
126 347 -13 199 -124 305 -330 314 -50 2 -103 0 -117 -5z"/>
<path d="M15780 16438 c-69 -5 -245 -7 -393 -5 -248 5 -268 4 -277 -13 -6 -12
-5 -23 5 -36 12 -18 30 -19 262 -19 240 0 554 19 601 36 47 18 14 51 -48 47
-14 0 -81 -5 -150 -10z"/>
<path d="M22825 16406 c-69 -32 -137 -111 -190 -220 -88 -184 -89 -340 -1
-431 78 -82 176 -82 344 0 269 130 362 267 307 452 -31 103 -149 213 -228 213
-58 0 -98 -50 -63 -79 11 -9 20 -6 44 14 16 14 34 25 40 25 24 0 100 -72 126
-120 38 -69 47 -169 21 -236 -28 -74 -104 -143 -225 -201 -172 -84 -258 -92
-318 -30 -41 43 -52 75 -52 156 0 118 49 242 133 336 56 63 117 98 151 86 29
-11 46 -3 46 20 0 19 -34 39 -68 39 -9 0 -40 -11 -67 -24z"/>
<path d="M25994 16415 c-151 -33 -261 -127 -350 -300 -67 -130 -101 -231 -117
-351 -21 -149 -11 -198 35 -173 15 8 18 23 18 82 0 207 111 487 236 597 109
95 333 142 415 87 47 -31 49 -65 9 -127 -18 -28 -53 -67 -78 -88 -54 -44 -167
-116 -199 -126 -31 -10 -73 -45 -73 -61 0 -23 32 -34 165 -60 185 -35 309 -72
410 -119 100 -47 125 -68 109 -94 -42 -67 -510 -117 -728 -77 -93 16 -98 16
-117 -1 -24 -21 -24 -40 -1 -53 9 -5 82 -15 162 -22 117 -10 178 -10 310 0
254 19 371 48 425 107 61 66 7 129 -175 207 -73 31 -143 51 -403 118 l-38 10
88 55 c186 115 278 264 213 347 -42 53 -180 72 -316 42z"/>
<path d="M23785 16396 c-15 -11 -20 -33 -26 -127 -32 -486 -35 -517 -64 -640
-8 -35 -12 -66 -9 -71 12 -19 33 -5 48 33 31 77 46 165 66 397 11 127 25 254
30 283 15 78 13 126 -6 133 -20 8 -17 8 -39 -8z"/>
<path d="M18546 16383 c-6 -16 -36 -260 -36 -297 0 -17 -9 -18 -142 -16 -178
3 -168 5 -168 -25 0 -27 23 -37 75 -34 17 2 77 2 134 1 81 -2 101 -5 93 -14
-9 -12 -22 -110 -38 -281 -5 -63 -4 -68 12 -65 25 4 41 66 59 217 8 69 19 129
24 134 5 5 84 4 193 -4 180 -12 232 -9 211 12 -13 13 -169 37 -296 45 -54 4
-100 10 -102 14 -4 7 19 222 31 293 6 35 5 37 -19 37 -14 0 -28 -7 -31 -17z"/>
<path d="M5817 16328 c-22 -36 -38 -140 -36 -236 l2 -87 -160 4 c-108 2 -167
0 -181 -8 -24 -13 -29 -36 -11 -47 6 -3 89 -6 185 -5 201 2 180 16 187 -127 7
-150 47 -125 50 31 l2 92 123 -2 c100 -1 122 1 122 13 0 20 -11 23 -133 33
-74 5 -112 12 -119 22 -14 22 -3 198 17 249 26 69 25 84 -7 88 -19 2 -31 -3
-41 -20z"/>
<path d="M6699 16218 c-4 -38 5 -113 23 -193 11 -49 23 -117 27 -150 5 -51 9
-60 26 -60 17 0 20 8 23 48 2 26 -4 85 -14 130 -9 45 -19 116 -23 157 -6 73
-7 75 -33 78 -18 2 -29 -2 -29 -10z"/>
<path d="M8691 16139 c-28 -47 -52 -186 -57 -344 -6 -151 7 -227 38 -233 14
-3 16 12 16 120 0 149 16 283 43 357 30 83 33 100 19 116 -19 23 -39 18 -59
-16z"/>
<path d="M10863 16163 c-16 -6 -17 -152 -3 -258 10 -80 47 -184 67 -192 32
-12 36 14 14 99 -16 63 -21 114 -21 205 0 97 -3 125 -16 137 -16 17 -21 18
-41 9z"/>
<path d="M3710 16134 c-75 -15 -158 -51 -194 -82 -27 -24 -56 -91 -56 -133 0
-98 66 -194 158 -230 116 -45 262 -24 438 63 71 34 172 116 192 155 41 76 -23
166 -148 210 -95 33 -273 41 -390 17z m320 -50 c158 -37 211 -112 134 -190
-79 -78 -234 -155 -353 -176 -171 -29 -291 53 -291 199 0 39 5 50 39 84 38 38
82 52 96 29 8 -13 52 -13 60 1 4 5 0 18 -9 28 -9 10 -16 20 -16 24 0 20 254
22 340 1z"/>
<path d="M7598 16139 c-15 -8 -18 -25 -18 -93 0 -55 -4 -87 -12 -93 -7 -6 -61
-13 -120 -16 -59 -3 -116 -10 -126 -16 -31 -17 -34 -39 -8 -56 22 -14 31 -14
119 10 122 32 149 33 143 3 -3 -13 -8 -76 -11 -140 -6 -114 -6 -118 14 -118
14 0 23 8 27 28 3 15 10 43 15 62 5 19 9 58 9 85 0 28 3 60 6 73 l7 23 169 -7
c164 -7 170 -6 166 12 -4 21 -43 28 -238 42 l-95 7 1 60 c1 33 3 75 4 93 4 44
-18 61 -52 41z"/>
<path d="M9565 16032 c-114 -4 -310 -33 -324 -47 -17 -17 -7 -45 20 -52 11 -3
18 -11 15 -18 -2 -7 1 -21 8 -31 13 -17 26 -17 244 -6 126 6 237 14 246 18 9
3 16 12 16 20 0 16 -37 18 -280 15 -195 -2 -238 15 -85 34 28 4 136 10 242 13
191 7 240 17 197 40 -20 10 -197 19 -299 14z"/>
<path d="M14150 15981 c-14 -4 -25 -13 -25 -21 0 -9 -24 -23 -57 -35 -110 -38
-188 -114 -188 -180 0 -47 42 -126 90 -169 138 -125 492 -179 723 -111 66 20
113 50 142 93 34 49 32 95 -5 159 -73 127 -267 220 -540 258 -61 8 -112 15
-113 14 -1 -1 -13 -4 -27 -8z m202 -65 c262 -51 448 -169 448 -285 0 -99 -204
-166 -432 -141 -220 24 -347 79 -403 175 -37 62 -33 95 14 138 52 46 90 66
146 74 35 4 50 2 64 -11 23 -21 54 -18 59 6 2 9 -7 26 -19 37 l-23 21 36 0
c20 0 69 -6 110 -14z"/>
<path d="M9634 15849 c-3 -6 -5 -95 -3 -198 l4 -186 -35 1 c-19 0 -177 8 -350
17 -173 10 -547 28 -830 42 -283 14 -702 37 -930 50 -228 14 -597 32 -820 40
-223 8 -531 20 -685 26 -253 10 -1013 7 -1235 -6 -41 -2 -192 -7 -335 -10
-143 -3 -314 -10 -380 -15 -66 -5 -181 -14 -255 -19 -196 -15 -706 -39 -1080
-51 -179 -6 -381 -15 -451 -20 -69 -5 -271 -12 -450 -15 -444 -8 -679 -31
-718 -70 -15 -15 -15 -17 3 -31 25 -18 83 -18 149 0 97 26 221 35 617 45 348
9 912 29 1320 46 205 8 424 24 535 40 55 8 183 17 285 20 102 3 210 8 240 10
30 2 335 12 676 21 533 16 667 16 940 6 176 -7 463 -17 639 -22 375 -11 651
-24 1085 -50 316 -19 394 -23 1220 -60 473 -22 854 -41 857 -44 1 -1 4 -81 7
-178 4 -199 9 -188 -81 -188 -73 0 -114 -27 -93 -60 7 -12 21 -11 82 3 40 9
114 19 164 23 92 6 310 -9 397 -28 53 -11 97 -4 97 16 0 32 -151 56 -379 62
-79 1 -145 4 -147 6 -2 2 -4 66 -5 142 0 76 -5 151 -9 167 l-9 29 47 0 c26 0
164 -7 307 -15 327 -18 389 -22 665 -35 495 -24 821 -41 935 -50 289 -23 739
-60 840 -70 192 -18 611 -41 1290 -70 127 -5 271 -12 320 -15 50 -3 232 -10
405 -15 530 -16 853 -29 1123 -46 142 -8 265 -13 273 -10 8 3 14 14 14 25 0
15 -8 21 -32 25 -18 3 -233 10 -478 16 -630 15 -887 24 -1275 45 -49 3 -191
10 -315 15 -747 33 -1103 52 -1310 70 -63 6 -288 26 -500 45 -386 35 -664 52
-1290 80 -567 25 -999 51 -1008 60 -3 3 -7 53 -8 112 -7 227 -18 307 -40 272z"/>
<path d="M15127 15673 c-14 -13 -7 -52 11 -61 9 -5 87 -12 172 -15 85 -4 245
-12 355 -17 210 -12 296 -8 315 15 19 22 -20 35 -109 35 -103 0 -348 16 -525
35 -152 16 -209 19 -219 8z"/>
<path d="M3805 15491 c-14 -24 -12 -138 6 -256 10 -71 19 -155 19 -186 0 -64
18 -91 45 -69 20 17 20 102 -1 228 -10 62 -14 126 -11 178 5 70 3 84 -12 98
-20 18 -37 21 -46 7z"/>
<path d="M6674 15456 c-84 -19 -139 -49 -199 -110 -118 -118 -124 -277 -13
-383 155 -149 652 -131 805 29 65 67 79 151 42 238 -34 79 -103 122 -240 150
-49 10 -101 27 -116 38 -62 43 -182 59 -279 38z m211 -50 l30 -13 -45 -7 c-56
-10 -130 -41 -130 -55 0 -15 18 -14 87 4 31 8 78 15 104 15 42 0 48 -3 53 -26
5 -19 12 -25 29 -22 14 2 22 10 22 23 1 23 9 23 95 -1 42 -12 66 -27 103 -65
45 -47 47 -51 47 -106 0 -72 -21 -108 -86 -151 -146 -98 -433 -121 -620 -51
-69 26 -110 67 -129 131 -19 65 -11 114 29 180 62 102 168 158 301 157 44 0
94 -6 110 -13z"/>
<path d="M5307 15434 c-4 -4 -7 -40 -7 -80 l0 -73 -32 -5 c-18 -3 -62 -8 -98
-11 -78 -8 -100 -18 -100 -50 0 -30 20 -43 35 -22 14 20 83 36 150 37 l50 0 0
-137 c0 -122 2 -138 17 -141 26 -5 32 35 22 164 l-9 114 85 0 c95 0 191 -12
296 -37 78 -17 115 -13 94 11 -18 23 -178 56 -330 68 l-140 11 3 76 c2 61 -1
76 -13 79 -9 1 -19 0 -23 -4z"/>
<path d="M21555 15350 c-126 -4 -315 -8 -420 -10 -173 -1 -473 -13 -980 -39
-104 -6 -257 -13 -340 -16 -82 -3 -235 -10 -340 -15 -402 -19 -981 -32 -1225
-27 -196 4 -302 11 -459 32 -204 27 -231 26 -218 -8 4 -10 28 -17 69 -22 35
-4 106 -13 158 -20 204 -29 410 -38 740 -31 452 9 1303 42 1970 76 805 40
2958 49 3820 15 69 -3 247 -10 395 -15 701 -26 819 -31 1090 -45 640 -32 849
-49 1464 -115 95 -10 179 -16 186 -13 20 7 27 34 14 49 -8 9 -34 14 -80 14
-64 0 -481 34 -559 45 -93 14 -1519 89 -2075 110 -77 3 -268 10 -425 16 -157
5 -397 14 -535 18 -316 10 -1944 10 -2250 1z"/>
<path d="M8492 15281 c-81 -28 -131 -84 -110 -123 13 -26 37 -22 48 8 6 16 27
33 57 47 41 19 64 22 163 21 253 -2 440 -95 440 -219 0 -51 -42 -138 -79 -164
-37 -27 -137 -59 -216 -70 -154 -22 -283 37 -262 120 16 64 147 169 213 169
16 0 39 6 50 14 28 22 7 50 -40 54 -76 7 -222 -91 -267 -180 -80 -157 108
-284 352 -238 94 18 218 70 240 101 30 43 69 155 69 200 0 71 -59 154 -138
194 -145 73 -405 106 -520 66z"/>
<path d="M7827 15273 c-3 -4 -8 -43 -12 -85 l-7 -78 -42 0 c-52 0 -91 -20 -91
-45 0 -15 6 -19 25 -17 135 14 135 14 123 1 -8 -8 -13 -41 -13 -87 0 -64 2
-73 17 -70 10 2 21 16 24 33 11 48 10 125 -1 125 -5 0 -10 5 -10 11 0 21 167
-7 273 -48 53 -19 71 -23 80 -13 9 9 5 17 -16 36 -34 29 -113 53 -226 68 l-86
11 0 80 c0 66 -3 80 -17 83 -9 2 -18 -1 -21 -5z"/>
<path d="M10884 15139 c-129 -23 -234 -108 -234 -191 0 -42 40 -105 85 -137
119 -81 368 -85 594 -8 82 28 131 72 131 118 0 84 -81 169 -196 206 -54 16
-308 25 -380 12z m109 -78 c4 -17 14 -32 26 -36 27 -8 42 1 34 21 -5 13 0 14
31 9 33 -7 36 -5 36 15 0 22 3 23 59 17 153 -13 266 -123 201 -192 -76 -81
-445 -125 -572 -68 -55 25 -88 71 -88 124 0 68 108 138 216 139 49 0 52 -1 57
-29z"/>
<path d="M21141 15068 c-135 -52 -268 -173 -333 -305 -28 -58 -30 -69 -26
-140 8 -138 71 -229 188 -274 78 -30 169 -21 257 24 41 22 124 113 160 177 39
69 83 192 83 231 0 76 -55 147 -163 211 -70 42 -81 58 -26 39 36 -12 49 -8 49
19 0 44 -98 53 -189 18z m81 -92 c72 -30 151 -89 174 -131 58 -107 -97 -403
-232 -443 -53 -15 -126 -15 -178 0 -83 25 -156 139 -156 244 0 93 119 258 235
325 60 35 83 36 157 5z"/>
<path d="M14664 15040 c-78 -42 -99 -76 -42 -68 18 3 41 8 50 12 14 6 17 -1
22 -51 9 -85 35 -255 54 -353 17 -86 32 -105 56 -68 8 13 3 60 -17 185 -18
107 -27 205 -27 269 0 76 -3 103 -13 107 -8 3 -45 -12 -83 -33z"/>
<path d="M22004 15065 c-4 -9 -4 -31 -1 -48 10 -61 -12 -311 -43 -497 -35
-207 -35 -244 -5 -248 19 -3 22 8 43 150 13 84 27 180 33 213 6 33 11 145 12
250 2 173 1 190 -16 193 -9 2 -20 -4 -23 -13z"/>
<path d="M22710 15050 c-19 -10 -68 -26 -109 -34 -215 -47 -341 -181 -328
-348 15 -185 151 -308 339 -308 132 0 279 106 355 258 65 130 55 222 -36 330
-35 43 -151 123 -176 122 -5 -1 -26 -9 -45 -20z m145 -92 c69 -46 95 -95 95
-181 0 -134 -36 -205 -150 -290 -86 -65 -145 -83 -223 -67 -161 31 -240 114
-254 263 -13 141 87 240 289 286 132 30 184 27 243 -11z"/>
<path d="M23647 15039 c-172 -49 -292 -123 -421 -261 -107 -112 -156 -202
-156 -282 0 -129 86 -228 243 -278 140 -46 392 -10 583 82 121 58 216 168 308
354 46 93 44 113 -22 176 -53 51 -139 84 -207 78 -32 -2 -40 -7 -40 -23 0 -17
9 -21 59 -27 104 -13 176 -65 176 -127 0 -61 -99 -220 -194 -309 -107 -101
-315 -173 -501 -174 -113 0 -173 16 -246 65 -100 67 -128 171 -73 279 82 162
265 316 448 377 155 51 286 51 332 0 21 -23 52 -25 61 -3 8 22 -33 61 -85 78
-62 22 -181 19 -265 -5z"/>
<path d="M19632 15028 c-8 -8 -12 -47 -12 -107 0 -53 -5 -134 -11 -181 -17
-145 -27 -374 -16 -387 5 -7 18 -13 28 -13 31 0 42 36 35 114 -4 46 1 136 14
255 29 267 26 331 -15 331 -6 0 -16 -5 -23 -12z"/>
<path d="M9352 14948 c-15 -15 -15 -35 0 -44 6 -4 59 -6 117 -5 105 2 232 -13
346 -42 88 -23 170 -26 170 -7 0 49 -591 140 -633 98z"/>
<path d="M20307 14873 c-4 -3 -7 -26 -7 -50 0 -23 -13 -82 -29 -130 -33 -100
-61 -251 -61 -330 0 -47 2 -53 20 -53 27 0 36 25 50 145 7 56 29 156 51 227
42 135 46 167 27 186 -13 13 -41 16 -51 5z"/>
<path d="M26000 14869 c-229 -19 -480 -112 -488 -180 -4 -35 51 -81 138 -114
93 -35 501 -238 556 -276 42 -29 45 -33 28 -43 -25 -15 -433 -21 -548 -8 -76
9 -92 14 -107 34 -15 19 -21 21 -36 12 -25 -16 -22 -44 7 -65 38 -28 153 -40
417 -42 298 -3 399 16 360 66 -35 46 -331 213 -571 323 -153 70 -192 96 -180
116 9 15 97 55 179 82 173 57 380 70 408 25 19 -30 77 -22 77 11 0 21 -66 55
-120 62 -19 2 -73 1 -120 -3z"/>
<path d="M9663 14853 c-9 -24 -9 -512 0 -556 5 -23 13 -37 20 -34 9 3 13 60
15 203 5 300 -9 455 -35 387z"/>
<path d="M15750 14694 c-69 -7 -212 -16 -318 -20 -169 -6 -194 -9 -202 -25 -7
-12 -5 -23 8 -38 l17 -22 200 16 c110 8 243 20 295 26 52 5 161 14 243 19 81
5 157 15 169 21 21 11 21 12 3 25 -24 18 -240 17 -415 -2z"/>
<path d="M3855 14604 c-10 -10 -14 -26 -11 -43 9 -47 10 -253 2 -373 -8 -106
-7 -118 8 -124 40 -15 45 10 55 271 4 138 6 253 4 257 -2 5 -13 12 -23 18 -14
7 -23 6 -35 -6z"/>
<path d="M27264 14488 c-88 -175 -223 -297 -327 -298 -76 0 -144 53 -183 145
-13 33 -13 42 2 95 13 48 14 63 4 75 -32 39 -67 -2 -76 -91 -8 -73 8 -115 66
-178 79 -86 167 -118 261 -96 41 10 61 24 124 87 83 84 161 207 171 272 9 58
-10 53 -42 -11z"/>
<path d="M8793 14488 c-17 -27 -33 -191 -38 -403 -7 -237 0 -308 28 -313 15
-3 17 8 17 110 0 129 12 277 36 460 15 104 15 129 5 142 -16 19 -37 21 -48 4z"/>
<path d="M27713 14456 c-15 -13 -57 -67 -93 -120 -35 -52 -70 -98 -77 -100
-10 -4 -13 9 -13 53 0 75 -6 91 -35 91 -30 0 -35 -17 -31 -105 3 -82 15 -110
53 -119 40 -11 70 17 135 124 64 105 94 140 118 140 19 0 46 -54 56 -115 5
-26 18 -50 38 -69 27 -25 36 -28 83 -24 41 4 70 16 139 58 111 68 160 76 219
33 46 -34 77 -88 109 -193 23 -76 31 -86 55 -71 12 8 13 18 2 68 -30 134 -117
250 -204 274 -58 15 -106 3 -204 -53 -48 -28 -104 -53 -124 -55 -43 -6 -49 2
-69 91 -22 105 -93 146 -157 92z"/>
<path d="M6750 14450 c-60 -9 -135 -34 -157 -52 -8 -6 -11 -18 -8 -26 3 -8
-15 -41 -41 -76 -85 -112 -108 -196 -79 -290 33 -104 102 -158 253 -197 159
-41 328 -18 474 64 120 67 168 142 168 259 0 91 -21 138 -84 196 -85 78 -201
117 -371 125 -55 3 -125 2 -155 -3z m136 -56 c27 -9 66 -29 86 -45 67 -52 108
-26 51 33 -32 33 -28 34 55 9 106 -32 194 -102 222 -176 14 -38 12 -130 -4
-168 -29 -70 -139 -147 -261 -183 -125 -37 -344 -14 -438 46 -66 42 -91 94
-85 179 10 140 128 278 265 310 54 13 54 13 109 -5z"/>
<path d="M5720 14344 c-6 -15 -13 -67 -17 -118 -3 -50 -10 -93 -14 -96 -4 -3
-60 -1 -124 3 -127 10 -154 3 -134 -34 8 -16 21 -19 88 -19 100 0 202 -11 196
-20 -9 -14 16 -165 28 -172 23 -14 27 6 21 93 l-7 89 49 0 c27 -1 105 -7 174
-14 102 -11 128 -11 139 -1 11 11 10 15 -6 23 -28 15 -132 31 -253 40 l-105 7
-3 44 c-2 25 4 75 13 112 9 37 14 73 10 78 -12 21 -45 12 -55 -15z"/>
<path d="M7807 14333 c-2 -4 -8 -52 -12 -105 l-7 -98 -87 0 c-94 0 -126 -12
-119 -46 4 -22 26 -23 147 -10 64 6 73 6 68 -8 -3 -8 -9 -49 -13 -91 -6 -71
-6 -75 14 -75 24 0 31 24 34 114 l2 58 81 -6 c44 -4 98 -11 120 -16 64 -15
135 -13 135 4 0 8 -5 18 -11 21 -17 11 -119 33 -184 40 -33 3 -77 8 -97 11
l-37 6 2 101 c2 87 0 102 -15 105 -9 2 -18 -1 -21 -5z"/>
<path d="M11165 14303 c-3 -10 -11 -103 -16 -207 -18 -330 -6 -481 36 -446 13
10 22 170 30 508 l4 162 -23 0 c-14 0 -27 -8 -31 -17z"/>
<path d="M9528 14231 c-140 -7 -168 -16 -168 -52 0 -33 29 -38 89 -17 49 17
75 19 201 15 80 -3 184 -13 232 -22 89 -18 118 -16 118 8 0 23 -48 37 -176 52
-65 8 -128 16 -139 18 -11 2 -81 1 -157 -2z"/>
<path d="M14530 14176 c-109 -29 -239 -137 -282 -233 -49 -110 -14 -229 99
-340 105 -104 291 -183 430 -183 86 0 283 30 363 56 138 43 222 146 224 274 3
203 -279 410 -559 410 -42 0 -88 6 -108 15 -43 18 -105 18 -167 1z m30 -77
c-62 -34 -77 -46 -68 -55 4 -3 36 6 72 20 124 50 175 58 281 47 202 -23 356
-106 433 -233 91 -152 23 -300 -166 -362 -164 -54 -387 -60 -513 -14 -237 87
-362 273 -287 426 45 94 189 202 268 202 l35 0 -55 -31z"/>
<path d="M9435 14137 c-17 -9 -20 -43 -4 -52 5 -4 72 -6 147 -6 75 1 171 -3
212 -9 160 -23 209 -24 216 -6 4 10 2 22 -3 27 -24 24 -534 65 -568 46z"/>
<path d="M9678 13978 c-2 -35 5 -160 14 -278 9 -118 21 -321 27 -450 9 -234
18 -298 37 -269 12 18 8 351 -5 554 -13 177 -39 448 -48 483 -10 41 -22 22
-25 -40z"/>
<path d="M15516 13851 c-10 -16 2 -48 22 -56 35 -14 455 -18 558 -6 112 14
136 23 116 43 -9 9 -80 12 -280 13 -147 1 -299 5 -338 9 -50 6 -73 5 -78 -3z"/>
<path d="M3914 13663 c-14 -15 -16 -31 -11 -116 4 -54 13 -147 21 -205 8 -59
20 -154 26 -212 14 -131 18 -147 38 -155 31 -12 36 11 24 107 -26 207 -44 446
-39 505 5 48 3 66 -9 78 -20 19 -29 19 -50 -2z"/>
<path d="M27783 13528 c-4 -7 -8 -26 -9 -43 -1 -16 -14 -102 -28 -190 -26
-164 -31 -288 -18 -452 7 -73 5 -83 -9 -83 -24 0 -82 68 -102 121 -9 25 -20
79 -25 120 -6 66 -9 74 -29 77 -25 4 -28 -8 -24 -98 4 -79 84 -226 147 -269
55 -38 92 -25 183 69 93 95 149 183 131 204 -17 21 -35 10 -77 -48 -54 -74
-123 -146 -141 -146 -12 0 -14 27 -9 198 4 157 11 230 34 359 19 102 26 167
21 177 -11 19 -34 21 -45 4z"/>
<path d="M28614 13477 c-54 -18 -109 -57 -140 -98 -18 -25 -24 -45 -24 -86 0
-47 4 -58 36 -92 23 -26 53 -46 87 -57 92 -32 227 -20 190 17 -5 5 -49 16 -97
24 -87 14 -149 41 -160 71 -31 81 64 164 192 167 37 1 86 -2 110 -7 40 -8 42
-8 42 16 0 17 -8 29 -27 38 -40 18 -160 22 -209 7z"/>
<path d="M28992 13455 c-86 -38 -138 -103 -128 -160 10 -52 38 -70 110 -70 48
0 72 6 110 28 27 15 52 27 56 27 4 0 10 -14 14 -32 7 -35 32 -68 53 -68 16 0
16 5 -3 59 -10 29 -14 71 -12 120 3 75 3 76 -22 76 -14 0 -33 8 -42 18 -22 21
-89 22 -136 2z m148 -54 c0 -27 -48 -81 -87 -97 -46 -20 -132 -18 -140 1 -13
35 75 92 162 105 27 4 53 8 58 9 4 0 7 -8 7 -18z"/>
<path d="M29865 13447 c-100 -26 -246 -250 -192 -295 20 -17 47 -4 47 22 0 37
46 120 91 162 41 39 69 52 142 68 18 4 27 13 27 25 0 32 -40 38 -115 18z"/>
<path d="M6924 13416 c-9 -37 2 -381 16 -476 12 -91 22 -112 42 -92 9 9 9 54
0 199 -9 139 -9 211 -1 276 8 67 8 91 -1 102 -19 23 -49 18 -56 -9z"/>
<path d="M29513 13426 c-18 -8 -56 -39 -86 -68 -46 -45 -56 -60 -61 -100 -9
-58 6 -91 37 -86 18 2 22 10 23 38 1 19 2 40 3 47 2 24 66 85 118 115 36 20
53 36 51 47 -4 21 -45 24 -85 7z"/>
<path d="M30051 13395 c-36 -41 -46 -73 -37 -118 16 -77 100 -120 191 -96 98
25 92 30 53 -42 -19 -35 -49 -87 -67 -116 -32 -50 -34 -73 -7 -73 22 0 62 60
137 207 40 76 78 148 85 160 34 54 -1 111 -37 62 -52 -69 -67 -84 -108 -110
-36 -23 -57 -29 -101 -29 -94 0 -130 49 -74 101 39 37 46 55 28 73 -22 22 -28
21 -63 -19z"/>
<path d="M5756 13345 c-3 -9 -6 -41 -6 -71 l0 -55 -97 3 c-90 3 -98 1 -101
-16 -7 -34 25 -46 125 -46 l93 0 0 -89 c0 -102 5 -121 30 -121 24 0 30 30 23
122 l-6 79 44 -6 c24 -4 68 -11 98 -16 62 -10 185 -12 219 -3 26 7 29 29 6 38
-9 3 -90 13 -181 21 -91 9 -174 20 -185 26 -17 9 -19 19 -16 77 3 62 1 67 -18
70 -13 2 -24 -4 -28 -13z"/>
<path d="M7645 13328 c-3 -7 -6 -58 -7 -113 l-3 -100 -81 -1 c-93 -1 -114 -6
-114 -32 0 -33 19 -41 94 -36 102 7 101 10 71 -123 -6 -26 -4 -34 10 -39 22
-9 32 8 40 71 12 83 14 85 87 69 87 -18 148 -18 148 1 0 21 -47 42 -126 56
-38 6 -73 15 -77 19 -5 4 -3 53 3 109 9 78 8 106 -1 117 -14 17 -38 18 -44 2z"/>
<path d="M8735 13251 c-69 -40 -156 -129 -193 -199 -43 -81 -66 -181 -57 -256
8 -75 23 -105 76 -150 61 -51 123 -69 225 -64 75 4 93 9 179 52 116 57 215
145 241 212 31 81 4 177 -77 269 -37 41 -152 101 -214 110 -31 5 -49 14 -60
31 -21 32 -58 31 -120 -5z m252 -106 c94 -42 173 -148 173 -231 0 -99 -161
-231 -334 -275 -97 -24 -222 8 -261 67 -43 65 -23 231 39 327 46 72 75 96 148
123 77 28 157 25 235 -11z"/>
<path d="M11213 13128 c-6 -9 -7 -74 -1 -183 7 -119 6 -203 -2 -280 -27 -259
-26 -286 11 -305 28 -15 53 4 39 30 -14 26 -12 97 5 249 12 105 14 166 6 305
-5 96 -12 180 -16 186 -9 14 -30 13 -42 -2z"/>
<path d="M28900 12965 c0 -26 17 -39 68 -50 37 -8 64 8 55 31 -8 21 -57 44
-93 44 -25 0 -30 -4 -30 -25z"/>
<path d="M9410 12961 c-61 -6 -65 -8 -68 -33 -5 -43 22 -50 130 -37 62 8 166
9 309 4 121 -3 219 -3 222 2 20 32 -47 50 -218 57 -77 4 -178 8 -225 10 -47 2
-114 1 -150 -3z"/>
<path d="M9481 12831 c-7 -13 -6 -24 3 -36 12 -17 34 -19 207 -22 206 -4 239
-1 239 22 0 25 -36 33 -191 44 -213 16 -246 15 -258 -8z"/>
<path d="M14870 12824 c-57 -12 -111 -35 -155 -66 -160 -114 -254 -218 -262
-290 -8 -72 13 -127 71 -184 85 -85 224 -122 411 -110 123 7 203 26 292 67
160 76 278 276 223 379 -43 80 -137 146 -260 182 -64 18 -267 32 -320 22z
m151 -60 c25 -12 30 -20 24 -37 -13 -41 -10 -61 8 -65 32 -6 57 26 57 75 0 42
1 43 28 37 156 -37 272 -131 272 -221 0 -84 -107 -221 -212 -272 -163 -78
-439 -80 -581 -3 -94 50 -126 157 -74 245 31 53 117 134 180 171 72 43 187 85
230 86 21 0 52 -7 68 -16z"/>
<path d="M23483 12795 c-27 -19 -56 -97 -73 -190 -16 -94 -12 -120 20 -120 23
0 25 5 36 80 15 104 33 164 54 175 11 6 32 2 66 -14 61 -29 82 -57 207 -296
53 -102 186 -341 197 -355 4 -5 37 -68 73 -140 67 -135 102 -225 113 -294 11
-69 64 -85 64 -20 0 74 -132 367 -243 541 -21 31 -37 59 -37 61 0 5 -80 144
-166 290 -35 59 -64 109 -64 112 0 13 30 0 117 -51 96 -56 128 -64 128 -30 0
15 -40 43 -150 109 -82 48 -161 99 -175 111 -22 21 -95 46 -132 46 -8 0 -23
-7 -35 -15z"/>
<path d="M9731 12685 c-17 -98 9 -675 40 -897 6 -43 9 -85 5 -93 -6 -17 -12
-17 -157 11 -92 18 -111 13 -107 -30 4 -40 43 -55 153 -55 47 -1 91 -7 106
-15 18 -9 32 -10 43 -4 12 7 65 4 157 -6 178 -20 209 -21 209 0 0 25 -56 41
-210 59 -80 10 -148 20 -152 24 -4 3 -9 87 -12 186 -3 99 -10 225 -15 280 -6
55 -13 172 -16 260 -8 238 -16 345 -25 345 -4 0 -13 -29 -19 -65z"/>
<path d="M28831 12736 c-16 -19 -19 -182 -4 -197 25 -25 39 -1 52 90 10 72 10
95 1 106 -16 19 -34 19 -49 1z"/>
<path d="M29196 12735 c-3 -9 -9 -51 -12 -94 -6 -71 -5 -80 15 -100 29 -29 39
-27 102 20 80 60 127 82 161 75 41 -8 104 -54 173 -125 63 -65 63 -65 84 -52
12 8 12 13 -1 33 -29 43 -148 158 -195 188 -77 49 -104 44 -227 -45 -26 -19
-51 -33 -55 -30 -4 2 -3 29 2 59 6 29 7 61 4 70 -8 20 -43 21 -51 1z"/>
<path d="M24877 12632 c-9 -9 -41 -82 -72 -162 -31 -79 -70 -170 -87 -202 -28
-53 -30 -60 -16 -74 12 -12 20 -13 36 -5 27 14 54 73 111 238 33 94 53 139 64
141 10 2 31 -6 48 -18 30 -22 30 -22 8 -34 -12 -6 -21 -15 -21 -19 0 -4 37
-81 81 -170 44 -89 139 -286 212 -437 73 -151 153 -306 178 -344 32 -51 46
-83 49 -118 5 -50 22 -74 47 -64 31 11 6 115 -50 211 -20 33 -58 107 -86 165
-28 58 -123 251 -212 430 -89 179 -164 330 -166 335 -2 6 32 -26 75 -70 44
-44 95 -94 114 -110 19 -17 40 -38 45 -48 20 -37 68 15 52 57 -3 8 -31 31 -61
51 -31 20 -99 84 -152 140 -111 120 -161 147 -197 107z"/>
<path d="M24546 12621 c-4 -5 -2 -21 4 -36 18 -48 6 -972 -13 -992 -10 -9 -64
27 -101 67 -48 54 -76 114 -76 167 0 57 -8 73 -37 73 -25 0 -26 -1 -20 -62 9
-111 57 -196 150 -264 45 -33 68 -44 96 -44 48 0 125 48 152 95 12 19 25 35
30 35 14 0 29 37 23 54 -3 9 -17 16 -30 16 -17 0 -28 -9 -38 -32 -18 -41 -62
-88 -83 -88 -13 0 -15 9 -9 58 3 31 9 251 12 487 5 324 4 436 -5 453 -12 22
-45 30 -55 13z"/>
<path d="M27410 12476 c-9 -24 -9 -24 -59 -9 -58 16 -98 5 -86 -25 21 -54 54
-156 69 -217 18 -73 81 -241 98 -262 12 -15 44 -17 53 -3 3 5 1 36 -4 67 -13
72 -21 306 -12 322 10 15 70 -4 93 -30 11 -13 18 -15 20 -7 3 8 51 -3 159 -36
296 -92 320 -99 331 -88 6 6 8 17 5 25 -5 14 -143 61 -402 137 -153 44 -180
59 -209 114 -23 42 -43 46 -56 12z m-20 -80 c19 -7 35 -18 34 -24 -1 -7 -2
-61 -2 -122 -1 -60 -6 -110 -11 -110 -5 0 -17 21 -27 48 -9 26 -27 70 -39 97
-12 28 -25 67 -28 88 -5 33 -4 37 16 36 12 0 38 -6 57 -13z"/>
<path d="M25811 12348 c-5 -13 -25 -93 -45 -178 -40 -172 -52 -268 -66 -540
-5 -102 -12 -194 -15 -206 -7 -24 17 -49 40 -40 11 4 15 20 15 54 0 88 50 583
65 646 8 33 24 94 35 135 24 91 26 137 4 145 -23 9 -24 8 -33 -16z"/>
<path d="M7023 12304 c-7 -19 20 -290 43 -419 8 -49 18 -177 21 -282 4 -146 9
-193 18 -193 7 0 16 8 19 17 13 34 18 270 8 353 -6 47 -18 139 -27 205 -8 66
-15 160 -15 208 0 49 -5 97 -10 108 -13 23 -48 25 -57 3z"/>
<path d="M7660 12291 c-12 -8 -12 -23 -2 -98 6 -48 14 -125 18 -170 8 -97 21
-91 -138 -67 -59 9 -114 14 -122 11 -21 -8 -20 -51 0 -68 10 -8 56 -14 135
-17 85 -3 122 -8 130 -18 9 -11 9 -39 2 -107 -10 -97 -4 -128 23 -106 10 8 14
36 15 88 1 108 8 126 45 124 127 -8 327 -4 337 6 24 24 -21 41 -108 41 -94 0
-246 17 -259 30 -4 4 -12 80 -16 169 -8 178 -18 208 -60 182z"/>
<path d="M3993 12263 c-16 -24 -18 -55 -18 -293 1 -289 6 -322 54 -328 24 -4
24 -3 15 55 -14 94 -11 461 5 506 26 74 -17 120 -56 60z"/>
<path d="M27597 12266 c4 -8 72 -81 150 -162 78 -82 158 -169 178 -194 20 -25
59 -72 88 -104 29 -33 71 -84 95 -115 23 -31 54 -68 67 -84 14 -15 25 -31 25
-36 0 -5 21 -33 46 -63 25 -29 56 -73 69 -98 30 -59 71 -102 93 -98 31 6 23
35 -27 96 -28 33 -58 73 -68 89 -18 30 -65 88 -139 172 -22 25 -78 91 -123
146 -46 55 -116 134 -156 175 -205 213 -283 290 -294 290 -7 0 -9 -5 -4 -14z"/>
<path d="M5702 12147 c-6 -7 -14 -39 -18 -70 l-7 -56 -66 2 c-64 2 -66 1 -66
-22 0 -30 16 -39 88 -46 l57 -6 0 -68 c0 -71 13 -98 39 -81 11 6 12 23 7 73
-7 75 -5 77 77 77 29 0 102 5 162 11 214 20 265 33 237 61 -9 9 -63 9 -229 1
-120 -6 -224 -8 -232 -5 -9 4 -11 15 -6 41 14 71 12 96 -11 99 -11 2 -26 -3
-32 -11z"/>
<path d="M8923 12153 c-18 -7 -17 -218 1 -319 8 -44 19 -110 25 -149 17 -100
29 -413 19 -492 -9 -74 0 -96 30 -77 10 6 21 32 25 60 12 65 -8 453 -29 569
-9 50 -19 162 -23 250 -6 165 -9 175 -48 158z"/>
<path d="M28675 11878 c-33 -11 -74 -31 -91 -44 -39 -29 -80 -97 -93 -155 -9
-39 -7 -49 16 -87 30 -52 82 -79 171 -88 76 -8 185 3 209 22 30 23 -1 32 -92
26 -118 -7 -219 18 -246 62 -25 39 -19 76 21 126 43 54 119 90 190 90 34 0 64
-6 76 -15 45 -34 70 -8 38 40 -31 48 -104 56 -199 23z"/>
<path d="M29589 11843 c-54 -22 -140 -120 -182 -205 -40 -83 -46 -115 -21
-125 22 -8 38 12 69 86 25 60 78 138 115 168 8 7 35 19 60 26 32 10 45 19 45
32 0 26 -44 36 -86 18z"/>
<path d="M11740 11820 c0 -5 4 -10 9 -10 6 0 13 5 16 10 3 6 -1 10 -9 10 -9 0
-16 -4 -16 -10z"/>
<path d="M29056 11821 c-86 -12 -106 -77 -49 -161 13 -19 34 -51 47 -70 40
-58 64 -80 90 -80 30 0 44 31 21 45 -60 35 -82 73 -55 90 15 9 32 -7 55 -52
27 -52 85 -123 100 -123 7 0 18 6 24 14 9 11 6 20 -15 43 -15 15 -38 46 -52
68 -14 22 -34 49 -44 61 -10 11 -21 42 -24 70 -7 50 -29 105 -42 103 -4 -1
-29 -5 -56 -8z m24 -76 c17 -20 -2 -65 -26 -65 -33 0 -59 62 -31 73 24 10 45
7 57 -8z"/>
<path d="M29917 11816 c-56 -20 -141 -75 -157 -101 -8 -13 -28 -39 -43 -58
-35 -44 -47 -101 -22 -111 24 -9 32 -1 59 53 23 45 50 77 109 129 29 25 76 42
121 42 28 0 28 -1 12 -24 -8 -14 -18 -43 -22 -66 -9 -54 13 -80 68 -80 46 0
147 45 202 89 21 17 43 31 47 31 19 0 6 -50 -45 -177 -68 -170 -109 -239 -163
-272 -47 -29 -50 -44 -10 -49 70 -8 146 110 243 376 41 113 51 180 31 206 -17
23 -37 14 -117 -54 -61 -52 -122 -80 -175 -80 -37 0 -47 18 -21 39 8 7 17 28
21 49 6 30 3 39 -15 54 -26 21 -70 22 -123 4z"/>
<path d="M14883 11799 c-8 -8 -6 -29 8 -78 28 -95 68 -320 79 -436 5 -55 12
-206 16 -335 6 -232 13 -285 36 -278 17 6 23 419 8 586 -16 183 -66 450 -100
530 -10 24 -29 29 -47 11z"/>
<path d="M11183 11793 c-18 -6 -16 -30 7 -90 30 -80 40 -202 43 -528 2 -311 7
-350 44 -343 14 3 16 37 14 323 -2 329 -13 462 -48 573 -17 53 -36 74 -60 65z"/>
<path d="M11735 11777 c-8 -32 -2 -42 20 -34 19 8 19 18 1 43 -14 18 -15 18
-21 -9z"/>
<path d="M12263 11758 c-6 -7 -13 -57 -15 -111 -5 -86 -3 -98 11 -95 12 2 18
20 22 73 4 39 10 82 14 96 8 31 -16 58 -32 37z"/>
<path d="M25554 11656 c-3 -7 2 -40 10 -72 8 -33 22 -101 30 -152 25 -156 73
-195 167 -132 71 47 232 214 227 236 -6 32 -50 30 -70 -3 -31 -52 -184 -193
-209 -193 -47 0 -63 27 -74 126 -11 101 -26 178 -37 192 -14 16 -37 15 -44 -2z"/>
<path d="M9791 11554 c0 -11 3 -14 6 -6 3 7 2 16 -1 19 -3 4 -6 -2 -5 -13z"/>
<path d="M9538 11504 c-12 -12 -9 -52 5 -61 6 -4 64 -10 127 -13 l115 -5 -3
-30 c-8 -100 -16 -764 -10 -940 25 -763 11 -1948 -32 -2770 -5 -104 -14 -408
-20 -674 -6 -281 -14 -500 -21 -524 -12 -45 -4 -96 12 -80 15 15 47 238 53
368 3 61 8 236 11 390 3 154 8 316 10 360 3 44 9 204 15 355 6 151 15 365 21
475 15 285 13 2663 -2 3015 l-3 55 150 5 c144 5 174 10 174 31 0 20 -51 27
-245 33 -110 3 -234 8 -275 12 -41 3 -78 3 -82 -2z"/>
<path d="M29960 11254 c-8 -9 -15 -55 -18 -119 l-5 -103 -38 -15 c-28 -11 -39
-21 -39 -36 0 -22 27 -41 59 -41 13 0 21 -9 26 -30 9 -41 23 -38 27 8 l3 37
99 10 c77 8 101 14 110 28 17 28 -9 37 -111 37 -50 0 -94 4 -97 9 -3 5 3 52
14 106 16 74 18 100 9 111 -15 18 -24 18 -39 -2z"/>
<path d="M29045 11214 c-94 -24 -114 -36 -168 -102 -65 -80 -87 -128 -87 -192
0 -87 68 -125 185 -101 143 30 270 128 294 229 12 47 11 55 -6 84 -10 18 -37
43 -59 55 -39 22 -122 36 -159 27z m137 -83 c15 -5 34 -21 43 -35 15 -22 15
-27 1 -54 -41 -80 -187 -162 -289 -162 -97 0 -123 48 -69 128 44 65 76 85 151
91 60 5 66 8 69 30 3 20 8 23 35 18 18 -3 44 -10 59 -16z"/>
<path d="M12240 11200 c0 -5 5 -10 10 -10 6 0 10 5 10 10 0 6 -4 10 -10 10 -5
0 -10 -4 -10 -10z"/>
<path d="M11741 11100 c-17 -10 -7 -40 13 -40 7 0 16 6 19 14 8 19 -15 37 -32
26z"/>
<path d="M29740 11059 c-106 -81 -182 -114 -261 -114 -80 0 -109 19 -109 70 0
35 -20 51 -39 32 -28 -28 2 -134 46 -163 38 -24 152 -15 225 18 120 55 249
178 210 201 -4 3 -36 -17 -72 -44z"/>
<path d="M11735 10720 c-3 -5 -1 -10 4 -10 6 0 11 5 11 10 0 6 -2 10 -4 10 -3
0 -8 -4 -11 -10z"/>
<path d="M11913 10511 c-9 -15 -9 -23 1 -36 17 -24 36 -11 36 26 0 33 -19 39
-37 10z"/>
<path d="M13580 10240 c-73 -25 -120 -78 -161 -183 -40 -102 -48 -164 -25
-173 10 -4 14 -13 12 -23 -9 -26 8 -41 70 -68 275 -115 462 -155 549 -118 43
17 50 34 35 80 -16 48 -84 98 -237 175 -68 34 -123 63 -123 65 0 1 56 3 125 4
69 0 134 5 145 11 49 26 47 78 -6 147 -31 41 -83 68 -166 88 -84 20 -151 18
-218 -5z m262 -49 c43 -13 108 -70 108 -94 0 -35 -39 -42 -220 -42 -150 0
-175 -2 -178 -16 -5 -25 29 -47 188 -120 153 -70 270 -141 270 -165 0 -29 -88
-38 -182 -19 -150 31 -400 129 -394 155 41 159 70 231 105 263 53 50 79 58
176 53 50 -2 107 -9 127 -15z"/>
<path d="M26436 9971 c-9 -14 16 -39 96 -93 251 -172 452 -322 695 -518 166
-134 464 -345 678 -480 92 -58 187 -122 211 -142 25 -21 63 -42 87 -48 23 -6
47 -13 53 -15 8 -2 14 -52 18 -137 10 -190 25 -361 41 -448 7 -41 23 -140 35
-220 12 -80 37 -238 56 -352 41 -247 47 -380 18 -407 -10 -11 -158 -99 -329
-196 -297 -170 -583 -339 -785 -465 -52 -32 -99 -59 -103 -59 -5 -1 -22 13
-39 29 -32 33 -98 69 -160 89 -21 7 -38 16 -38 20 0 4 33 13 74 19 134 21 183
62 115 98 -57 29 -348 124 -364 118 -24 -9 -18 -32 13 -47 15 -8 79 -29 142
-47 63 -18 128 -39 144 -47 26 -14 28 -16 12 -25 -10 -6 -73 -19 -139 -30 -67
-10 -126 -24 -132 -29 -17 -17 18 -37 104 -59 86 -22 168 -58 189 -83 9 -11 7
-18 -11 -34 -53 -49 -155 -79 -307 -91 -74 -5 -95 -10 -95 -22 0 -24 124 -25
213 -2 40 10 75 16 77 13 2 -4 -13 -18 -33 -31 -102 -68 -206 -150 -289 -226
-50 -46 -95 -84 -99 -84 -3 0 -3 55 1 121 4 67 7 164 6 215 0 76 3 96 19 117
15 19 16 27 7 36 -9 9 -12 127 -13 470 l0 459 83 7 c80 7 109 19 83 35 -6 4
-42 5 -79 2 -97 -7 -101 -1 -101 146 0 64 -5 182 -10 262 -5 80 -12 198 -16
263 l-7 119 66 -7 c58 -6 67 -5 67 9 0 16 -8 19 -85 34 l-40 8 -6 234 c-13
485 -12 602 5 612 22 12 20 35 -4 41 -17 4 -20 14 -20 60 0 30 -9 119 -19 198
-11 79 -23 198 -27 264 -7 130 -34 258 -61 287 -20 22 -46 23 -63 3 -11 -13
-9 -19 8 -38 26 -28 48 -133 57 -272 3 -55 12 -143 20 -195 16 -103 34 -292
28 -299 -6 -8 -88 -1 -263 19 -91 11 -307 29 -480 40 -173 11 -400 27 -503 36
-206 17 -399 16 -418 -3 -26 -26 3 -33 149 -33 81 0 233 -7 337 -15 105 -8
282 -19 395 -25 113 -6 293 -20 400 -31 107 -11 234 -23 282 -26 49 -3 92 -11
97 -17 5 -6 11 -193 13 -421 3 -405 3 -410 -17 -408 -260 29 -694 80 -875 103
-129 16 -293 34 -365 40 -71 6 -179 18 -238 27 -111 16 -136 12 -124 -20 7
-19 91 -33 277 -47 167 -13 277 -24 440 -45 149 -20 632 -73 780 -87 63 -6
120 -14 126 -19 7 -6 13 -71 17 -177 5 -159 26 -574 30 -596 2 -14 -41 -13
-398 2 -385 17 -570 30 -770 52 -235 26 -489 44 -509 37 -21 -8 -20 -24 2 -36
11 -6 88 -15 173 -21 85 -6 271 -22 414 -35 143 -13 348 -26 455 -30 341 -10
615 -26 628 -37 17 -14 18 -914 1 -920 -11 -4 -86 2 -459 37 -91 8 -286 24
-435 35 -148 11 -317 27 -375 35 -219 31 -247 35 -322 51 -81 18 -108 15 -108
-11 0 -24 52 -41 200 -64 189 -29 281 -38 550 -56 468 -31 943 -73 950 -84 3
-5 2 -129 -2 -277 -8 -270 -6 -294 28 -294 7 0 23 15 35 33 101 146 342 332
739 572 107 65 220 135 251 156 31 21 77 49 101 63 l46 25 7 -22 c5 -16 15
-380 15 -549 0 -5 14 -8 31 -8 l31 0 -6 238 c-4 130 -9 269 -12 307 l-5 70
123 69 c68 38 182 103 253 145 72 41 175 100 230 131 87 49 100 60 98 81 -2
13 -5 69 -8 124 -3 55 -12 134 -20 175 -8 41 -22 122 -30 180 -9 58 -23 140
-32 184 -13 66 -13 80 -2 87 22 14 295 10 503 -6 104 -8 338 -28 520 -45 182
-16 414 -37 516 -45 102 -9 257 -22 345 -30 206 -19 241 -19 249 0 12 31 -30
55 -94 55 -33 0 -125 7 -203 15 -78 8 -252 24 -387 35 -225 19 -523 46 -775
71 -211 21 -386 30 -533 28 -85 -2 -156 1 -161 7 -5 5 -14 54 -20 109 -6 55
-15 132 -20 170 -5 39 -14 162 -21 275 -8 136 -17 212 -26 227 -9 14 -31 25
-66 33 -57 11 -70 18 -229 124 -57 38 -156 103 -219 144 -156 101 -391 270
-530 381 -174 138 -453 349 -565 426 -230 158 -246 167 -259 146z"/>
<path d="M17950 9726 c-142 -38 -203 -133 -165 -261 52 -180 305 -239 520
-121 47 26 65 42 84 79 41 80 12 171 -71 223 -24 15 -55 35 -69 45 -66 45
-204 61 -299 35z m71 -55 c-15 -11 -22 -24 -18 -34 5 -14 11 -14 53 -1 102 30
197 11 261 -52 38 -39 43 -49 43 -90 0 -39 -5 -51 -32 -77 -137 -128 -423
-107 -488 36 -37 79 -20 147 45 187 40 24 108 48 140 49 18 1 18 -1 -4 -18z"/>
<path d="M24880 9677 c-38 -10 -52 -22 -92 -75 -64 -84 -77 -128 -52 -178 30
-61 64 -79 142 -78 162 3 310 112 315 233 3 76 -63 112 -200 110 -37 0 -88 -6
-113 -12z m211 -47 c50 -14 63 -32 54 -77 -15 -81 -135 -153 -254 -153 -43 0
-65 5 -84 20 -30 24 -42 66 -28 101 17 44 74 100 111 109 50 12 159 12 201 0z"/>
<path d="M18782 9667 c-18 -21 -71 -153 -87 -218 -42 -162 9 -244 169 -272
115 -19 241 19 222 68 -5 14 -13 16 -39 10 -17 -3 -69 -9 -114 -12 -73 -4 -88
-2 -136 20 -34 15 -58 33 -62 47 -10 32 23 165 63 253 27 59 33 83 26 95 -14
22 -29 25 -42 9z"/>
<path d="M14485 9659 c-5 -7 -1 -17 8 -24 19 -14 43 -16 377 -45 256 -22 523
-54 838 -100 111 -17 370 -50 575 -75 436 -52 603 -76 787 -115 74 -16 168
-32 207 -36 64 -6 73 -4 79 11 11 27 -22 45 -80 45 -28 0 -115 13 -194 30
-174 36 -414 70 -774 111 -276 30 -443 52 -688 89 -271 40 -525 70 -767 90
-136 11 -273 22 -304 26 -40 4 -59 2 -64 -7z"/>
<path d="M23170 9632 c-94 -31 -147 -68 -176 -124 -50 -96 38 -221 171 -242
87 -14 83 33 -5 57 -98 28 -163 115 -131 176 16 29 105 78 167 92 47 11 55 9
112 -16 99 -44 127 -15 36 38 -62 37 -105 42 -174 19z"/>
<path d="M19322 9625 c-99 -23 -135 -73 -92 -127 11 -15 73 -54 138 -87 65
-33 126 -69 136 -80 19 -21 19 -22 -5 -47 -37 -40 -112 -74 -163 -74 -52 0
-61 -8 -40 -38 37 -53 146 -27 232 55 34 32 42 47 42 76 0 54 -35 86 -164 151
-117 59 -142 77 -132 95 10 15 101 31 179 31 85 0 138 -13 186 -46 37 -25 51
-24 51 6 0 27 -53 67 -112 85 -62 18 -182 18 -256 0z"/>
<path d="M19866 9605 c-61 -16 -92 -46 -129 -125 -40 -89 -55 -143 -63 -226
l-6 -71 36 -22 c48 -30 209 -62 322 -64 78 -1 96 2 113 17 39 35 27 63 -56
142 -78 72 -78 73 -52 82 14 6 40 24 57 42 28 27 32 38 32 84 0 60 -21 96 -72
122 -46 24 -129 32 -182 19z m154 -55 c93 -47 75 -117 -42 -168 -31 -13 -48
-27 -48 -38 0 -17 61 -79 128 -131 17 -14 32 -32 32 -41 0 -13 -15 -14 -107
-9 -118 8 -227 27 -245 45 -8 8 -7 24 2 59 8 26 14 75 15 108 3 147 141 238
265 175z"/>
<path d="M24073 9585 c-34 -24 -36 -58 -8 -147 28 -89 24 -108 -24 -108 -28 0
-71 -25 -71 -41 0 -18 47 -28 85 -18 70 19 94 102 55 188 -20 43 -26 91 -12
91 4 0 19 -8 33 -18 14 -9 51 -34 82 -55 38 -25 57 -44 57 -58 0 -67 82 -129
172 -129 63 0 94 21 59 39 -11 6 -29 11 -41 11 -48 0 -147 60 -134 81 3 5 22
9 42 9 88 0 159 103 100 144 -48 34 -150 9 -178 -43 -16 -31 -37 -26 -98 24
-57 48 -84 54 -119 30z m365 -53 c18 -12 4 -41 -22 -47 -88 -21 -137 2 -84 39
24 17 85 21 106 8z"/>
<path d="M25320 9561 c0 -22 29 -36 43 -22 15 15 0 41 -23 41 -13 0 -20 -7
-20 -19z"/>
<path d="M23605 9535 c-22 -8 -41 -15 -42 -15 -2 0 -16 -19 -33 -42 -35 -49
-39 -95 -10 -126 44 -47 110 -37 180 28 49 45 60 49 60 21 0 -27 48 -81 71
-81 32 0 34 29 4 60 -22 23 -29 42 -34 90 -3 33 -10 61 -15 61 -5 1 -25 -23
-45 -52 -44 -65 -76 -89 -127 -96 -31 -4 -43 -1 -57 15 -11 11 -17 28 -15 38
5 27 84 64 139 64 31 0 49 5 52 14 14 36 -55 47 -128 21z"/>
<path d="M13776 9399 c-14 -11 -34 -35 -42 -52 -9 -18 -29 -45 -46 -62 -61
-62 -109 -135 -103 -155 12 -38 50 -24 84 29 34 53 50 61 123 61 47 0 47 0 58
-42 19 -69 51 -128 72 -128 23 0 23 14 -2 64 -11 23 -21 52 -22 66 -3 24 -1
25 48 22 34 -2 54 1 62 10 18 23 -1 38 -66 50 l-62 11 -14 51 c-13 42 -46 96
-60 96 -2 0 -15 -9 -30 -21z m42 -97 c3 -19 -1 -22 -27 -22 -35 0 -39 11 -15
35 21 20 38 15 42 -13z"/>
<path d="M25376 9371 c-11 -18 6 -42 28 -39 29 4 29 42 -1 46 -11 2 -24 -1
-27 -7z"/>
<path d="M26816 9240 c-89 -35 -136 -98 -136 -183 0 -101 80 -152 225 -142
128 8 276 62 290 106 14 42 -60 125 -144 162 -25 11 -58 33 -72 49 -33 34 -88
37 -163 8z m54 -35 c0 -8 14 -18 33 -23 21 -6 31 -14 29 -25 -4 -23 16 -30 48
-17 26 11 35 9 72 -13 55 -32 95 -84 81 -106 -19 -30 -131 -62 -223 -64 -73
-2 -90 1 -122 21 -42 26 -55 66 -44 128 12 62 126 152 126 99z"/>
<path d="M25152 8978 c-8 -10 -8 -35 -1 -88 8 -55 8 -103 -2 -181 -7 -58 -9
-114 -6 -123 9 -24 44 -20 51 7 11 41 18 312 9 352 -9 42 -32 56 -51 33z"/>
<path d="M13338 8969 c-148 -19 -246 -84 -235 -156 19 -115 178 -247 363 -303
83 -25 179 -25 179 0 0 11 -16 17 -60 22 -123 13 -276 89 -359 177 -84 91 -85
135 -3 175 110 54 307 56 469 6 73 -22 164 -94 170 -133 2 -14 11 -23 26 -25
24 -4 28 11 13 51 -10 25 -9 25 22 16 18 -5 44 -9 58 -9 14 0 46 -13 70 -30
75 -51 108 -32 47 27 -40 37 -80 58 -131 67 -46 9 -77 0 -77 -22 0 -12 -6 -10
-27 10 -79 71 -156 101 -323 123 -116 16 -108 16 -202 4z"/>
<path d="M24444 8941 c-23 -10 -45 -24 -49 -30 -5 -9 -38 -10 -115 -5 l-109 7
-30 -31 c-38 -37 -39 -56 -5 -79 98 -68 128 -115 99 -159 -19 -29 -74 -32
-136 -7 -40 15 -43 15 -55 -2 -11 -14 -11 -22 -2 -32 35 -42 142 -58 186 -27
28 19 62 85 62 120 0 42 -31 95 -71 123 -21 14 -38 29 -39 34 0 9 71 8 124 -1
38 -7 40 -10 51 -57 21 -93 56 -139 135 -174 53 -24 113 -27 130 -6 17 20 5
33 -38 41 -92 17 -182 97 -182 162 0 18 4 19 38 11 69 -16 101 -11 133 20 35
35 37 60 6 89 -29 27 -77 28 -133 3z m95 -44 c6 -8 8 -17 4 -20 -14 -15 -103
-3 -103 13 0 20 83 25 99 7z"/>
<path d="M14974 8915 c-19 -48 49 -66 461 -115 276 -33 571 -82 970 -160 224
-44 323 -63 615 -115 140 -26 302 -58 359 -71 94 -22 106 -23 120 -9 37 37 5
45 -529 140 -173 31 -441 80 -595 110 -384 75 -646 118 -935 155 -296 37 -354
47 -403 65 -47 19 -56 19 -63 0z"/>
<path d="M23196 8908 c-82 -29 -136 -84 -136 -138 0 -79 56 -170 124 -201 46
-21 165 -26 183 -8 24 24 2 39 -56 39 -73 0 -136 31 -173 85 -34 49 -45 99
-27 121 21 26 88 55 152 66 65 11 83 24 65 45 -15 18 -63 15 -132 -9z"/>
<path d="M23731 8810 c-29 -44 -62 -87 -74 -95 -26 -18 -77 -20 -78 -2 -4 43
15 66 62 76 44 9 48 44 6 49 -39 5 -82 -30 -102 -82 -21 -55 -17 -84 17 -109
26 -20 27 -20 64 0 22 11 60 48 88 84 27 35 53 64 59 64 5 0 16 -18 24 -40 7
-21 23 -50 36 -63 43 -48 127 -65 127 -26 0 7 -19 26 -42 41 -56 34 -64 46
-86 118 -10 34 -24 61 -33 63 -9 2 -35 -29 -68 -78z"/>
<path d="M25485 8766 c-15 -11 -15 -13 -1 -25 18 -15 46 -8 46 13 0 20 -25 27
-45 12z"/>
<path d="M13859 8668 c-13 -25 -7 -135 11 -185 9 -24 18 -33 34 -33 22 0 23 1
18 108 -2 59 -9 113 -14 120 -16 18 -36 15 -49 -10z"/>
<path d="M14157 8663 c-4 -3 -7 -36 -7 -73 0 -36 -7 -92 -15 -123 -29 -110
-13 -126 74 -72 66 41 117 45 166 15 32 -20 65 -72 65 -103 0 -21 27 -40 46
-33 13 5 15 15 10 49 -19 116 -140 194 -247 158 -19 -6 -38 -12 -43 -13 -5 -2
-8 35 -7 82 2 73 -1 88 -17 103 -10 9 -22 14 -25 10z"/>
<path d="M25482 8588 c2 -17 11 -24 31 -26 25 -3 28 0 25 20 -2 17 -11 24 -31
26 -25 3 -28 0 -25 -20z"/>
<path d="M18134 8589 c-18 -29 1 -388 21 -416 29 -39 34 0 28 215 -6 195 -8
212 -24 212 -10 0 -21 -5 -25 -11z"/>
<path d="M26938 8368 c-6 -16 10 -427 16 -445 3 -7 17 -13 30 -13 l25 0 -6
223 c-3 122 -10 228 -16 235 -5 6 -17 12 -27 12 -10 0 -20 -6 -22 -12z"/>
<path d="M24230 8147 c-39 -14 -80 -67 -80 -105 0 -18 20 -43 71 -91 79 -72
106 -119 89 -151 -17 -32 -51 -45 -120 -45 -56 0 -65 -3 -68 -19 -6 -28 25
-46 78 -46 63 0 110 27 138 80 42 83 25 137 -75 229 -35 34 -63 66 -61 73 8
22 87 39 128 28 60 -16 91 -68 104 -171 13 -107 74 -158 188 -159 65 0 88 7
88 25 0 15 -14 20 -85 30 -56 8 -79 18 -112 48 -35 31 -29 44 20 43 57 -1 117
31 145 80 29 51 25 91 -11 118 -38 28 -123 28 -162 0 -15 -10 -34 -23 -42 -29
-11 -7 -19 -4 -34 14 -12 15 -44 31 -87 42 -77 22 -67 21 -112 6z m398 -83
c29 -20 28 -48 -4 -73 -33 -26 -100 -28 -126 -4 -44 40 -6 93 67 93 22 0 51
-7 63 -16z"/>
<path d="M25126 8140 c-40 -8 -70 -35 -59 -53 3 -5 29 -7 60 -4 56 6 132 -11
168 -37 30 -21 10 -52 -88 -135 -112 -96 -132 -142 -71 -169 57 -26 228 -6
261 30 15 17 15 20 3 28 -8 5 -26 6 -40 2 -39 -11 -193 -8 -197 3 -2 6 28 37
67 69 74 62 130 135 130 171 0 58 -139 114 -234 95z"/>
<path d="M23246 8100 c-99 -40 -143 -113 -134 -225 8 -95 63 -144 171 -152 45
-3 67 -1 82 10 29 22 4 47 -49 47 -53 1 -120 31 -142 65 -12 18 -18 47 -18 82
-1 49 2 57 31 83 38 34 104 54 153 46 19 -3 43 -7 54 -8 10 -2 23 5 29 14 31
48 -90 74 -177 38z"/>
<path d="M23787 8012 c-25 -57 -108 -132 -146 -132 -71 0 -35 84 41 97 46 7
69 37 40 52 -42 23 -118 -24 -151 -92 -25 -51 -18 -85 22 -112 37 -24 67 -11
132 55 58 59 75 66 75 31 0 -32 39 -71 71 -71 37 0 39 24 4 60 -18 19 -27 43
-33 86 -9 73 -30 83 -55 26z"/>
<path d="M18021 8001 c-41 -7 -61 -32 -42 -55 10 -12 30 -14 109 -9 76 4 105
2 135 -10 20 -9 37 -20 37 -25 0 -13 -48 -55 -115 -99 -81 -55 -109 -86 -100
-112 11 -37 83 -63 240 -86 55 -8 112 -18 126 -21 35 -7 63 19 49 46 -8 14
-27 20 -87 25 -91 8 -194 29 -229 48 -24 13 -24 13 61 80 123 96 135 150 45
194 -48 23 -169 36 -229 24z"/>
<path d="M19341 8002 c-38 -6 -104 -81 -165 -190 -84 -148 -91 -147 -51 5 39
149 7 190 -96 125 -92 -59 -176 -186 -213 -322 -8 -30 -21 -77 -29 -105 -17
-60 -13 -75 18 -75 26 0 24 -5 58 135 37 147 90 244 166 303 23 17 47 32 52
32 13 0 11 -38 -6 -102 -24 -94 -38 -228 -24 -244 29 -36 55 -7 118 135 67
150 138 240 188 241 31 0 38 -33 27 -144 -4 -50 -8 -127 -9 -171 0 -73 2 -80
20 -80 17 0 20 6 17 33 -1 19 5 76 13 128 34 214 7 311 -84 296z"/>
<path d="M19663 7996 c-28 -13 -33 -20 -33 -50 0 -44 28 -78 135 -161 96 -75
152 -134 161 -170 17 -68 -44 -164 -121 -190 -47 -15 -71 -6 -86 31 -13 37
-34 24 -33 -21 1 -25 9 -45 27 -62 22 -23 30 -25 71 -19 57 9 121 55 159 117
75 123 35 212 -170 376 -51 40 -93 78 -93 83 0 23 112 24 258 4 42 -6 44 -5
40 17 -5 38 -50 52 -173 56 -82 3 -118 0 -142 -11z"/>
<path d="M25646 8001 c-8 -13 3 -38 19 -45 20 -7 49 18 42 38 -7 17 -52 22
-61 7z"/>
<path d="M20396 7935 c-128 -45 -196 -196 -196 -434 0 -76 3 -100 14 -104 23
-9 35 14 53 101 14 68 15 85 4 106 -9 17 -11 39 -6 73 14 95 54 156 127 194
63 32 185 21 223 -21 32 -35 8 -61 -114 -125 -118 -61 -151 -91 -151 -134 0
-33 40 -98 104 -170 26 -29 55 -69 64 -88 16 -33 16 -36 -3 -49 -49 -36 -277
4 -403 71 -75 40 -92 43 -92 17 0 -92 425 -213 523 -149 62 41 41 114 -75 259
-44 54 -78 105 -75 112 3 8 53 37 111 65 148 72 195 130 166 201 -15 37 -45
56 -117 75 -70 18 -106 18 -157 0z"/>
<path d="M25615 7770 c-4 -7 -3 -16 3 -22 14 -14 45 -2 40 15 -6 16 -34 21
-43 7z"/>
<path d="M26893 7589 c-18 -5 -33 -14 -33 -19 0 -6 -1 -13 -2 -17 -2 -3 42 -7
97 -8 102 -2 157 -16 183 -48 23 -27 13 -36 -190 -185 -32 -24 -58 -50 -58
-58 0 -26 81 -52 197 -65 121 -14 188 -6 188 21 0 12 -22 16 -108 22 -108 7
-182 21 -191 37 -3 4 36 37 87 72 110 76 147 114 147 151 0 32 -33 58 -103 82
-60 20 -172 28 -214 15z"/>
<path d="M24943 7324 c-10 -25 21 -41 100 -53 105 -16 180 -35 184 -46 2 -6
-24 -20 -56 -33 -85 -33 -92 -72 -14 -87 100 -19 193 -74 193 -115 0 -30 -50
-50 -125 -50 -73 0 -107 -12 -99 -35 15 -38 125 -43 198 -9 36 18 86 81 86
108 0 30 -63 87 -132 119 l-70 33 41 27 c29 20 41 34 41 52 0 37 -32 51 -199
85 -114 24 -140 25 -148 4z"/>
<path d="M23282 7280 c-121 -43 -216 -120 -258 -206 -44 -91 -18 -171 69 -213
54 -26 157 -29 181 -5 24 23 13 30 -55 38 -106 11 -169 62 -169 136 0 71 172
192 295 208 55 7 60 9 60 32 0 21 -5 25 -35 27 -19 2 -59 -6 -88 -17z"/>
<path d="M24362 7270 c-23 -10 -45 -26 -48 -35 -8 -21 -27 -19 -49 5 -34 37
-157 20 -195 -27 -30 -38 -25 -84 20 -175 48 -99 52 -135 14 -140 -38 -4 -55
-35 -30 -54 55 -40 100 3 101 96 0 47 -7 73 -39 138 -21 44 -36 86 -33 94 6
17 89 43 111 35 27 -11 47 -66 55 -156 12 -134 50 -182 151 -189 63 -5 130 17
130 42 0 13 -14 16 -74 16 -59 0 -78 4 -100 21 -50 39 -67 100 -23 83 25 -9
83 22 113 61 21 28 29 51 32 95 4 53 2 61 -21 84 -31 31 -57 32 -115 6z m72
-56 c20 -19 21 -97 3 -113 -27 -22 -76 -25 -97 -6 -20 18 -27 79 -12 101 22
33 81 43 106 18z"/>
<path d="M23670 7157 c-70 -35 -101 -233 -40 -252 18 -6 68 12 102 37 15 11
22 8 48 -23 35 -43 102 -65 145 -49 38 14 27 32 -31 51 -62 20 -97 66 -88 116
5 29 4 33 -15 33 -14 0 -25 -11 -35 -34 -17 -41 -56 -69 -88 -64 -19 2 -23 9
-22 39 2 73 11 87 57 96 36 7 42 12 45 36 3 24 0 27 -25 27 -15 0 -39 -6 -53
-13z"/>
<path d="M25650 7155 c-16 -19 -6 -45 18 -45 28 0 43 20 31 42 -12 22 -32 23
-49 3z"/>
<path d="M25701 6937 c-17 -17 -13 -42 10 -71 21 -27 54 -35 61 -14 3 7 -2 29
-10 49 -15 39 -42 55 -61 36z"/>
<path d="M28572 6248 c-91 -140 -142 -169 -142 -83 0 70 -40 83 -55 18 -8 -40
10 -100 35 -113 54 -29 100 0 178 114 55 79 68 118 41 124 -11 2 -30 -19 -57
-60z"/>
<path d="M28150 6293 c-8 -4 -30 -17 -47 -31 l-33 -24 -18 22 c-16 19 -19 20
-30 7 -7 -8 -16 -47 -19 -86 -5 -60 -3 -71 11 -77 22 -8 41 9 65 60 22 44 75
91 91 81 6 -3 10 -44 10 -90 0 -75 2 -86 21 -95 11 -7 27 -9 35 -6 16 6 19 42
4 51 -5 3 -10 38 -10 76 0 61 -3 73 -25 94 -25 26 -30 27 -55 18z"/>
<path d="M28800 6235 c-19 -20 -44 -35 -57 -35 -21 0 -23 -4 -23 -50 0 -37 4
-52 18 -59 27 -14 45 2 62 55 20 63 36 66 44 9 7 -42 26 -65 54 -65 6 0 29 16
53 36 73 61 135 31 146 -71 6 -49 23 -66 48 -45 10 8 12 25 8 63 -9 80 -38
119 -105 141 -25 7 -78 -12 -109 -40 -34 -32 -39 -30 -39 10 0 90 -42 111
-100 51z"/>
<path d="M29614 5535 c-204 -105 -357 -248 -472 -439 -95 -158 -61 -321 102
-480 149 -145 278 -218 351 -198 47 13 44 39 -7 51 -96 24 -212 104 -320 220
-75 81 -106 139 -121 226 -10 56 -8 65 16 117 56 124 211 296 347 386 36 24
107 63 158 88 69 34 92 50 90 62 -6 30 -35 24 -144 -33z"/>
<path d="M31841 5451 c-27 -17 2 -48 141 -146 211 -150 381 -326 440 -457 10
-21 23 -67 29 -102 22 -115 -9 -203 -122 -356 -79 -106 -268 -301 -332 -343
-47 -31 -55 -49 -24 -55 56 -11 381 326 480 498 72 124 74 286 5 408 -76 136
-223 287 -426 439 -84 62 -158 116 -165 118 -6 3 -18 1 -26 -4z"/>
<path d="M27425 5392 c-40 -25 -58 -49 -51 -67 7 -18 30 -19 48 -2 7 7 28 23
46 36 26 18 31 26 21 37 -15 18 -28 18 -64 -4z"/>
<path d="M27718 5385 c-3 -3 -3 -64 0 -134 6 -156 0 -199 -31 -206 -126 -27
-132 -30 -135 -54 -4 -24 -3 -24 55 -16 104 13 99 15 93 -30 -10 -87 -6 -150
10 -150 12 0 16 20 20 97 3 53 8 100 12 104 10 9 148 19 148 10 0 -4 -11 -22
-24 -39 -14 -18 -30 -53 -36 -79 -11 -42 -10 -52 7 -85 30 -58 64 -78 132 -78
59 0 91 15 91 41 0 10 -13 14 -42 14 -24 0 -62 9 -85 19 -34 16 -44 27 -54 61
-11 36 -10 44 7 68 35 47 100 72 210 80 92 7 99 9 102 29 5 32 -33 38 -137 23
-47 -7 -93 -12 -101 -11 -8 1 -59 4 -112 7 l-98 6 8 41 c13 74 9 252 -7 270
-14 18 -24 21 -33 12z"/>
<path d="M28437 5363 c-29 -33 -82 -277 -121 -548 -12 -88 32 -86 91 4 74 112
142 168 189 157 37 -10 70 -90 84 -201 14 -110 44 -153 79 -111 10 11 9 21 -2
43 -8 15 -18 53 -22 83 -20 148 -72 240 -137 240 -45 0 -112 -43 -171 -110
-25 -30 -49 -52 -52 -49 -16 17 69 409 100 455 8 13 15 30 15 39 0 20 -33 19
-53 -2z"/>
<path d="M26050 5261 c-162 -52 -249 -140 -206 -206 23 -35 53 -48 214 -94 79
-23 161 -50 183 -61 75 -39 149 -120 149 -164 0 -40 -140 -122 -248 -145 -75
-16 -166 -14 -234 5 -70 20 -95 9 -62 -27 31 -35 78 -49 165 -49 135 0 282 51
368 127 38 34 44 44 48 90 7 63 -17 107 -84 158 -66 50 -131 79 -277 120 -200
56 -225 80 -139 135 151 96 325 110 437 35 53 -35 76 -38 76 -11 0 20 -51 63
-100 85 -60 27 -210 28 -290 2z"/>
<path d="M26524 5126 c-9 -50 23 -274 45 -311 20 -35 57 -51 97 -41 18 5 72
52 149 132 66 68 124 124 128 124 4 0 4 -56 1 -124 -6 -107 -5 -129 10 -150
33 -51 99 -28 138 47 50 98 86 247 59 247 -16 0 -29 -25 -45 -86 -9 -33 -25
-84 -37 -113 -19 -45 -25 -52 -48 -49 -34 4 -40 36 -28 166 8 88 7 106 -6 119
-24 24 -61 -2 -184 -132 -103 -109 -112 -116 -144 -113 -46 4 -59 34 -78 188
-13 100 -20 125 -33 128 -12 2 -19 -6 -24 -32z"/>
<path d="M27379 5008 c0 -7 -1 -79 -2 -160 -2 -131 -1 -148 14 -148 28 0 39
46 39 170 0 65 -3 125 -6 134 -7 19 -44 22 -45 4z"/>
<path d="M30158 4999 c-21 -10 -45 -31 -54 -44 -21 -32 -34 -32 -34 -1 0 14
-4 27 -9 30 -21 13 -41 -29 -76 -154 -21 -74 -50 -163 -66 -198 -23 -50 -25
-64 -14 -68 37 -15 50 3 111 143 63 147 121 245 154 263 25 13 56 -1 65 -31 9
-29 7 -148 -4 -244 -5 -44 -7 -83 -5 -87 6 -10 46 -10 59 0 6 4 10 76 10 185
l0 179 -28 24 c-34 29 -60 30 -109 3z"/>
<path d="M30909 4933 c-4 -27 -7 -87 -13 -244 -6 -150 -5 -177 7 -182 27 -10
56 23 73 81 24 85 56 172 65 178 5 3 9 -14 9 -38 0 -124 76 -112 235 37 69 64
95 74 131 50 42 -28 57 -77 63 -220 6 -121 7 -130 26 -130 19 0 20 6 18 123
-2 188 -34 265 -115 278 -50 9 -91 -14 -189 -102 -103 -93 -126 -96 -121 -15
5 75 -3 101 -32 101 -28 0 -53 -37 -87 -129 -12 -34 -26 -64 -32 -68 -6 -4 -8
46 -6 138 4 130 2 144 -13 147 -10 2 -18 0 -19 -5z"/>
<path d="M30726 4828 c-13 -29 -29 -71 -36 -93 -21 -68 -52 -127 -88 -167 -39
-44 -51 -46 -78 -17 -17 19 -19 38 -19 156 -1 113 -4 136 -17 144 -30 17 -42
-17 -46 -126 -5 -123 14 -206 53 -231 22 -14 31 -15 70 -4 47 13 105 62 129
108 21 40 86 239 86 262 0 39 -31 20 -54 -32z"/>
</g>
</svg>
