<?xml version="1.0" standalone="no"?>
<!DOCTYPE svg PUBLIC "-//W3C//DTD SVG 20010904//EN"
 "http://www.w3.org/TR/2001/REC-SVG-20010904/DTD/svg10.dtd">
<svg version="1.0" xmlns="http://www.w3.org/2000/svg"
 width="3264.000000pt" height="2448.000000pt" viewBox="0 0 3264.000000 2448.000000"
 preserveAspectRatio="xMidYMid meet">
<metadata>
Created by potrace 1.12, written by Peter Selinger 2001-2015
</metadata>
<g transform="translate(0.000000,2448.000000) scale(0.100000,-0.100000)"
fill="#000000" stroke="none">
<path d="M6810 24469 c-179 -4 -656 -16 -1060 -28 -751 -21 -1417 -37 -1915
-46 -154 -3 -390 -7 -525 -10 -135 -3 -423 -7 -640 -10 -1981 -27 -1974 -27
-2457 -41 l-213 -6 0 -31 0 -30 157 7 c269 10 725 19 1578 31 1409 19 2283 33
2470 40 83 3 299 7 480 10 182 3 377 8 435 10 58 3 371 12 695 20 325 8 646
17 715 20 69 2 211 7 315 10 216 7 539 22 760 35 83 6 292 13 465 16 173 4
317 9 319 11 7 6 -1213 0 -1579 -8z"/>
<path d="M8418 24473 c7 -3 16 -2 19 1 4 3 -2 6 -13 5 -11 0 -14 -3 -6 -6z"/>
<path d="M32010 21735 c0 -8 6 -15 14 -15 22 0 28 17 10 24 -22 9 -24 8 -24
-9z"/>
<path d="M7745 21157 c-13 -31 -35 -148 -55 -292 -10 -79 -15 -668 -5 -684 8
-14 32 -14 40 -1 4 6 11 165 15 353 8 301 12 356 33 462 14 66 29 131 34 145
14 34 6 50 -23 50 -19 0 -28 -8 -39 -33z"/>
<path d="M8294 21035 c-5 -19 1 -34 22 -61 126 -156 153 -225 134 -343 -15
-100 -49 -175 -89 -195 -41 -22 -139 -20 -200 3 -55 21 -77 15 -66 -18 12 -39
80 -64 175 -65 130 -1 173 33 219 169 57 173 34 283 -94 458 -61 82 -90 97
-101 52z"/>
<path d="M7120 21015 c-15 -18 -8 -91 21 -214 20 -88 18 -100 -22 -101 -9 0
-30 -5 -48 -11 -25 -9 -31 -16 -31 -39 0 -37 25 -45 73 -25 66 28 74 23 98
-57 32 -112 40 -128 60 -128 26 0 25 32 -6 127 -14 43 -25 83 -25 89 0 6 26
21 58 33 75 28 152 77 152 96 0 30 -30 27 -103 -9 -41 -20 -87 -38 -103 -39
-27 -2 -29 2 -41 48 -7 28 -16 86 -19 130 -4 44 -11 88 -16 98 -11 21 -31 22
-48 2z"/>
<path d="M6003 20985 c-75 -32 -119 -73 -156 -143 -75 -142 -90 -308 -43 -467
32 -109 66 -160 126 -193 39 -20 55 -23 118 -19 59 3 87 11 146 41 84 43 173
116 162 134 -12 20 -34 14 -94 -25 -100 -63 -151 -83 -220 -83 -38 0 -75 6
-93 16 -39 19 -71 89 -95 202 -16 73 -16 94 -6 168 24 162 65 252 136 295 33
20 111 26 121 9 3 -5 15 -10 26 -10 29 0 25 44 -7 69 -31 24 -75 26 -121 6z"/>
<path d="M6637 20944 c-14 -14 -6 -34 58 -151 36 -65 65 -124 65 -131 0 -10
-19 -13 -78 -11 -84 3 -102 -2 -102 -30 0 -37 24 -44 130 -37 l99 8 30 -61
c34 -66 47 -79 64 -62 8 8 5 25 -12 63 -12 29 -25 58 -27 64 -3 7 9 17 28 23
18 6 51 26 73 45 34 29 38 36 26 49 -11 14 -19 13 -71 -14 -31 -16 -66 -29
-76 -29 -14 0 -37 35 -89 138 -52 102 -75 138 -90 140 -12 2 -24 0 -28 -4z"/>
<path d="M9430 20925 c-13 -16 -16 -199 -4 -238 9 -28 -16 -145 -35 -169 -34
-41 -79 7 -130 140 -17 45 -34 103 -38 128 -7 55 -32 90 -58 80 -27 -10 -16
-81 34 -211 48 -128 82 -181 133 -207 33 -17 39 -18 71 -4 77 32 96 115 76
335 -14 153 -22 178 -49 146z"/>
<path d="M27480 20910 c-42 -45 -135 -226 -261 -510 -54 -122 -84 -176 -96
-179 -23 -4 -53 -30 -53 -46 0 -19 39 -55 60 -55 30 0 55 35 76 103 10 34 47
124 82 200 35 76 71 164 82 195 25 78 54 138 93 192 l32 45 3 -29 c2 -16 -3
-92 -12 -170 -40 -365 -41 -466 -3 -490 13 -8 24 -7 45 4 28 16 81 102 82 133
0 19 1 21 49 114 17 34 40 85 50 115 32 89 98 232 110 236 8 3 11 -62 12 -235
0 -131 4 -259 8 -286 9 -57 43 -97 82 -97 40 0 47 20 16 44 -14 12 -31 34 -36
49 -7 18 -11 143 -11 338 l0 309 -24 0 c-15 0 -33 -11 -45 -26 -27 -34 -120
-227 -182 -377 -59 -143 -100 -227 -114 -230 -19 -4 -16 67 16 358 17 161 29
300 26 309 -10 26 -56 19 -87 -14z"/>
<path d="M21462 20918 c-18 -18 -16 -25 32 -123 122 -249 171 -428 166 -609
-3 -105 -3 -106 19 -106 25 0 37 16 51 69 17 65 58 152 83 179 63 68 145 76
200 21 26 -27 29 -35 25 -79 -3 -33 -18 -71 -46 -119 -57 -95 -89 -131 -137
-152 -86 -40 -157 -17 -210 65 -20 31 -40 56 -45 56 -23 0 -9 -69 23 -111 47
-62 79 -82 139 -87 104 -8 213 73 297 222 73 129 68 213 -18 267 -91 58 -195
32 -282 -69 -20 -23 -39 -42 -42 -42 -4 0 -7 15 -7 33 0 97 -47 254 -138 462
-58 133 -78 155 -110 123z"/>
<path d="M8802 20840 c-144 -126 -214 -229 -248 -360 -18 -71 -8 -125 34 -170
38 -42 78 -47 122 -18 48 32 82 101 126 251 43 148 38 147 106 12 49 -98 64
-115 98 -115 51 0 67 55 19 62 -17 2 -36 28 -78 106 -106 196 -128 204 -166
57 -52 -199 -113 -325 -157 -325 -8 0 -25 12 -39 26 -52 55 -19 170 85 299 28
35 74 81 101 101 78 58 105 86 105 110 0 44 -29 35 -108 -36z"/>
<path d="M9856 20855 c-8 -8 -25 -15 -39 -15 -13 0 -51 -14 -85 -31 -110 -54
-185 -166 -167 -247 9 -45 58 -106 98 -125 104 -50 227 23 264 154 l17 60 65
-65 c67 -66 127 -101 155 -90 30 11 16 40 -34 73 -56 36 -180 167 -180 191 0
19 -57 110 -69 110 -5 0 -16 -7 -25 -15z m-71 -117 c8 -19 18 -23 55 -23 41 0
45 -2 48 -27 8 -69 -45 -162 -108 -188 -88 -37 -189 65 -147 147 22 42 105
113 132 113 6 0 15 -10 20 -22z"/>
<path d="M29321 20787 c-32 -40 -64 -160 -82 -318 -14 -120 -9 -152 27 -175
41 -27 91 -6 159 67 31 34 66 74 77 90 12 16 27 29 34 29 13 0 24 -53 24 -120
0 -54 22 -90 54 -90 38 0 50 23 26 50 -16 18 -20 38 -20 89 -1 169 -48 211
-128 113 -62 -75 -146 -163 -165 -173 -32 -18 -39 29 -21 149 19 131 30 175
56 229 12 23 18 49 15 57 -8 19 -40 21 -56 3z"/>
<path d="M29877 20793 c-11 -10 -8 -152 3 -174 14 -25 36 -24 54 4 11 18 11
37 3 100 -9 69 -12 77 -32 77 -12 0 -25 -3 -28 -7z"/>
<path d="M22272 20758 c-16 -16 -15 -88 2 -163 38 -168 45 -207 47 -290 2 -49
-1 -120 -5 -157 -8 -64 -7 -68 12 -68 29 0 53 67 59 170 4 65 -1 120 -21 237
-14 84 -26 177 -26 206 0 54 -12 77 -40 77 -9 0 -21 -5 -28 -12z"/>
<path d="M18285 20697 c-39 -60 -71 -234 -81 -440 -4 -95 -11 -153 -19 -160
-7 -7 -24 -22 -39 -35 -37 -31 -33 -68 7 -65 l28 2 -7 -97 c-4 -53 -7 -101 -8
-107 -2 -29 17 -105 29 -115 24 -20 55 -2 55 30 0 16 -4 31 -9 34 -16 10 -21
115 -11 213 13 113 1 100 164 189 83 46 114 59 123 50 21 -20 144 -248 150
-278 4 -22 10 -28 27 -26 39 6 32 52 -22 141 -98 163 -108 185 -94 207 16 27
16 28 -14 32 -22 3 -32 18 -75 118 -27 63 -61 145 -74 183 -29 80 -53 129 -69
139 -21 14 -46 8 -61 -15z m38 -69 c53 -135 98 -237 130 -296 21 -40 36 -79
34 -86 -3 -7 -27 -21 -54 -31 -26 -10 -79 -33 -117 -52 -38 -18 -71 -32 -73
-30 -5 5 24 388 31 407 3 8 10 34 16 58 11 42 23 53 33 30z"/>
<path d="M30839 20616 c-82 -29 -149 -89 -149 -134 0 -11 -6 -25 -14 -31 -26
-22 -130 -51 -183 -51 -46 0 -55 3 -62 22 -5 13 -3 40 6 67 28 93 7 131 -69
131 -62 0 -102 -28 -160 -112 -21 -32 -43 -58 -48 -58 -5 0 -10 17 -12 38 -3
34 -6 37 -33 37 -29 0 -30 -2 -33 -47 -2 -32 3 -59 18 -88 37 -73 66 -65 125
37 53 90 101 143 131 143 28 0 30 -14 13 -87 -14 -60 6 -118 46 -133 45 -17
123 -11 205 16 l79 26 40 -31 c77 -61 135 -74 331 -75 218 -1 307 5 328 21 16
12 15 14 -3 28 -17 14 -43 15 -175 9 -176 -7 -317 6 -392 38 -71 30 -65 49 30
97 81 41 109 73 96 113 -5 18 -42 39 -67 38 -7 -1 -28 -7 -48 -14z m39 -58
c-6 -18 -79 -67 -100 -68 -26 0 -22 16 11 39 49 35 96 50 89 29z"/>
<path d="M28285 20542 c-104 -64 -206 -198 -221 -289 -6 -36 -3 -45 21 -69 23
-23 32 -26 72 -21 58 6 119 49 158 109 17 26 33 47 38 47 4 1 28 -40 52 -91
25 -51 53 -101 63 -111 40 -44 110 -60 147 -34 23 18 12 37 -22 37 -62 0 -100
48 -163 205 -17 44 -36 90 -41 103 -6 16 -16 22 -31 20 -25 -4 -35 -20 -43
-70 -11 -72 -115 -172 -160 -154 -67 25 22 179 152 262 37 23 53 40 51 52 -5
24 -38 26 -73 4z"/>
<path d="M19915 20543 c-27 -7 -255 -145 -332 -201 -35 -25 -75 -63 -90 -84
-26 -38 -26 -39 -7 -57 17 -17 44 -19 229 -25 311 -9 365 -23 365 -93 0 -77
-78 -181 -169 -225 -38 -18 -50 -20 -85 -10 -46 12 -56 9 -56 -17 0 -44 69
-62 136 -36 43 16 142 88 172 124 34 43 72 133 72 173 0 108 -76 136 -403 147
-112 4 -188 10 -189 16 -4 23 246 178 354 219 26 10 49 25 53 33 5 15 -11 44
-24 42 -3 -1 -15 -4 -26 -6z"/>
<path d="M28902 20531 c-88 -31 -161 -119 -162 -196 0 -87 70 -188 141 -204
99 -22 309 66 309 130 0 26 -8 24 -85 -20 -72 -42 -146 -64 -186 -54 -59 14
-109 90 -109 164 0 36 6 48 39 79 39 37 115 66 144 55 7 -3 26 -1 41 5 20 7
27 16 24 33 -3 19 -10 22 -53 24 -29 2 -72 -5 -103 -16z"/>
<path d="M20485 20511 c-70 -46 -120 -107 -140 -173 -10 -36 -16 -43 -39 -43
-54 -1 -60 -42 -9 -67 25 -12 29 -20 35 -78 9 -80 33 -145 61 -165 37 -26 92
-19 132 16 45 40 61 67 46 82 -7 7 -21 0 -46 -22 -72 -63 -115 -30 -123 94
l-5 73 56 26 c60 29 140 108 162 160 37 88 -46 150 -130 97z m73 -61 c7 -39
-104 -160 -148 -160 -30 0 14 107 62 151 34 32 80 37 86 9z"/>
<path d="M29823 20512 c-9 -5 -10 -33 -6 -100 5 -83 8 -92 26 -92 33 0 46 30
47 102 0 82 -25 116 -67 90z"/>
<path d="M20944 20437 c-16 -18 -45 -76 -64 -130 -19 -53 -39 -97 -43 -97 -5
0 -5 53 -1 118 6 102 4 120 -9 125 -36 14 -45 -21 -52 -209 -8 -191 -3 -224
35 -224 25 0 40 31 80 160 39 128 70 201 80 195 9 -5 35 -150 45 -247 7 -59
22 -82 52 -76 26 5 50 60 72 170 22 103 44 168 59 168 20 0 91 -200 118 -330
19 -93 31 -114 58 -104 16 6 18 15 12 68 -13 124 -96 380 -138 425 -57 62
-120 -16 -162 -201 -8 -36 -26 -36 -26 -1 0 42 -31 197 -42 211 -18 21 -45 13
-74 -21z"/>
<path d="M22996 20440 c-14 -17 -39 -57 -56 -89 -17 -32 -53 -82 -79 -110 -74
-80 -109 -68 -150 53 -19 55 -46 71 -71 41 -12 -14 -11 -25 4 -68 47 -132 143
-176 225 -102 32 29 100 122 147 201 7 10 15 16 19 12 14 -13 -12 -132 -65
-300 -78 -251 -97 -294 -138 -328 -31 -25 -35 -33 -26 -48 30 -47 85 -14 125
74 55 121 160 457 174 555 17 116 -48 181 -109 109z"/>
<path d="M19061 20395 c-155 -74 -280 -251 -213 -301 25 -20 67 -17 199 12
190 43 333 37 333 -12 0 -35 -50 -113 -108 -170 -75 -73 -139 -108 -196 -109
-54 0 -69 -10 -56 -35 15 -28 48 -33 102 -16 93 28 251 165 298 257 24 46 26
106 5 136 -34 48 -182 53 -370 12 -90 -19 -147 -24 -158 -13 -11 12 15 59 56
103 44 45 149 101 191 101 33 0 71 32 63 53 -10 27 -66 20 -146 -18z"/>
<path d="M30361 20042 c-5 -9 -12 -58 -16 -108 -9 -115 -12 -120 -57 -104
-140 51 -201 -124 -67 -192 69 -36 153 -20 318 61 47 23 88 38 92 34 4 -5 3
-37 -1 -73 -9 -66 -2 -90 26 -90 19 0 23 11 35 100 12 91 3 130 -29 130 -10 0
-62 -18 -115 -40 -52 -22 -102 -40 -110 -40 -8 0 -23 12 -32 27 -16 24 -17 35
-5 127 7 56 17 112 22 125 4 13 6 32 3 42 -8 24 -51 25 -64 1z m-46 -258 c9
-4 25 -25 36 -47 17 -32 18 -41 7 -48 -24 -16 -115 -13 -135 3 -16 13 -17 70
-1 86 13 13 66 16 93 6z"/>
<path d="M31262 19991 c-8 -5 -15 -35 -17 -80 -5 -97 -10 -108 -49 -115 -60
-11 -77 -66 -20 -66 23 0 25 -3 20 -22 -4 -13 -10 -38 -13 -57 -10 -56 26 -36
62 34 26 50 36 60 65 66 40 9 57 3 65 -21 3 -10 21 -30 40 -44 63 -49 115 -55
115 -15 0 18 -12 26 -92 58 -43 16 -34 29 31 42 107 21 159 71 130 126 -21 40
-68 55 -127 43 -60 -13 -122 -62 -122 -95 0 -30 -35 -52 -55 -35 -9 8 -11 19
-6 33 16 44 22 128 10 143 -13 16 -19 17 -37 5z m285 -118 c2 -6 -21 -20 -52
-32 -59 -22 -105 -27 -105 -12 0 10 44 44 70 54 24 9 83 3 87 -10z"/>
<path d="M28701 19961 c-23 -15 -5 -43 26 -39 20 2 28 9 28 23 0 22 -31 31
-54 16z"/>
<path d="M29852 19900 c-69 -42 -91 -132 -53 -216 25 -56 76 -77 155 -64 63
10 90 22 129 58 49 46 27 55 -58 23 -68 -26 -138 -35 -163 -22 -44 24 -25 153
28 181 62 33 95 -27 44 -81 -23 -24 -25 -31 -14 -44 46 -55 127 65 90 134 -13
25 -66 51 -102 51 -13 0 -38 -9 -56 -20z"/>
<path d="M29003 19895 c-11 -8 -28 -33 -37 -55 -11 -27 -22 -40 -35 -40 -38 0
-45 -25 -27 -98 33 -136 83 -133 95 6 10 117 28 127 40 23 7 -61 30 -101 58
-101 26 0 61 51 82 121 12 38 26 69 31 69 5 0 14 -19 20 -42 14 -60 33 -92 54
-96 17 -4 19 1 13 56 -10 95 -41 152 -83 152 -32 0 -50 -22 -75 -91 -35 -96
-49 -93 -61 14 -5 50 -13 76 -25 84 -21 16 -24 16 -50 -2z"/>
<path d="M30800 19876 c0 -9 7 -16 15 -16 28 0 28 -30 0 -70 -72 -105 -13
-221 78 -150 32 25 37 25 37 -1 0 -11 14 -34 30 -51 26 -25 36 -29 63 -24 17
4 42 19 54 34 43 52 23 74 -36 40 -27 -15 -43 -20 -50 -13 -12 12 -33 169 -25
189 11 28 -14 54 -58 59 -24 3 -58 9 -75 12 -27 6 -33 4 -33 -9z m96 -112 c-9
-34 -37 -73 -53 -74 -20 0 -15 21 13 62 31 44 49 50 40 12z"/>
<path d="M29638 19855 c-6 -13 -20 -53 -32 -87 -28 -85 -51 -86 -47 -2 2 46
-2 64 -14 74 -20 17 -48 3 -53 -26 -11 -74 -32 -90 -32 -25 0 40 -16 56 -45
45 -18 -7 -19 -44 -4 -133 16 -92 38 -113 81 -74 18 16 19 15 34 -5 8 -12 22
-22 31 -22 25 0 68 55 88 114 20 58 45 75 45 31 0 -39 27 -95 45 -95 14 0 16
7 10 43 -11 70 -35 160 -46 174 -18 21 -48 15 -61 -12z"/>
<path d="M28662 19743 c6 -48 54 -227 68 -253 11 -21 45 -27 55 -10 6 10 -44
220 -65 276 -7 17 -17 24 -36 24 -24 0 -26 -3 -22 -37z"/>
<path d="M23190 19700 c-18 -18 -20 -33 -20 -161 l0 -141 -22 7 c-52 16 -77
16 -107 0 -39 -20 -54 -56 -46 -110 11 -65 -13 -29 -26 39 -18 97 -24 108 -61
104 -30 -3 -37 -10 -71 -76 -39 -74 -57 -84 -57 -31 0 27 -3 30 -27 27 -28 -3
-28 -4 -26 -67 4 -80 20 -115 55 -119 31 -4 48 17 83 105 13 32 28 59 34 61 5
2 15 -16 21 -40 7 -24 21 -53 32 -65 19 -21 28 -22 97 -17 162 11 197 33 188
115 -4 28 -2 124 4 212 8 129 7 162 -3 168 -19 13 -26 11 -48 -11z m-43 -366
c27 -36 27 -37 8 -51 -11 -7 -36 -13 -55 -11 -32 3 -35 6 -38 36 -7 68 41 83
85 26z"/>
<path d="M22235 19484 c-110 -57 -139 -170 -61 -241 35 -32 37 -33 130 -33 87
0 96 2 110 22 9 12 16 31 16 42 0 23 47 106 60 106 15 0 12 -13 -16 -74 -15
-33 -24 -69 -22 -88 3 -31 6 -33 45 -36 39 -3 44 -1 69 38 l28 42 22 -51 c19
-42 27 -51 48 -51 30 0 34 19 11 53 -8 13 -20 70 -28 127 l-13 105 -43 8 c-24
5 -54 6 -68 2 -39 -9 -127 -104 -148 -158 l-18 -47 -52 0 c-50 0 -105 26 -105
50 0 5 19 18 43 28 50 22 107 84 107 116 0 50 -57 70 -115 40z m45 -53 c0 -11
-58 -61 -71 -61 -21 0 -6 32 24 50 35 22 47 25 47 11z m280 -96 c0 -14 -32
-65 -40 -65 -13 0 -13 6 5 40 13 26 35 41 35 25z"/>
<path d="M21880 19451 c-75 -24 -149 -91 -191 -173 -56 -109 -3 -278 87 -278
50 0 64 28 64 126 0 95 -5 114 -30 114 -29 0 -34 -18 -32 -104 2 -73 1 -78
-14 -65 -24 20 -44 72 -44 116 0 102 120 223 223 223 63 0 76 -48 27 -103 -16
-19 -43 -40 -60 -47 -40 -17 -41 -50 -2 -50 45 0 116 52 141 102 27 57 27 80
-2 114 -20 23 -33 28 -83 30 -32 2 -70 0 -84 -5z"/>
<path d="M21482 19417 c-43 -13 -132 -93 -132 -118 0 -29 32 -23 66 12 86 90
194 90 194 -1 0 -50 -18 -90 -41 -90 -10 0 -31 11 -47 25 -46 39 -82 33 -131
-20 -34 -37 -41 -52 -41 -85 0 -106 150 -97 248 15 61 70 89 174 61 227 -22
41 -106 58 -177 35z m34 -237 c25 0 15 -25 -17 -42 -34 -20 -74 -23 -84 -7
-10 14 2 55 21 73 14 15 18 14 41 -4 14 -11 32 -20 39 -20z"/>
<path d="M28935 19304 c-121 -26 -199 -58 -302 -127 -62 -41 -78 -60 -67 -78
12 -19 49 -7 136 45 131 80 270 120 332 97 27 -11 28 -14 24 -60 -3 -34 -26
-92 -76 -191 -40 -79 -72 -153 -72 -164 0 -53 61 -96 137 -96 89 0 267 50 325
91 61 44 15 65 -73 33 -66 -23 -208 -54 -255 -54 -22 0 -48 6 -58 13 -16 12
-12 23 53 152 60 118 72 151 77 206 5 52 3 71 -10 91 -24 36 -104 55 -171 42z"/>
<path d="M27985 19231 c-7 -13 13 -371 27 -464 9 -61 26 -97 47 -97 4 0 15 6
25 13 17 12 17 15 -4 55 -20 39 -23 62 -27 235 -6 229 -11 261 -40 265 -12 2
-24 -2 -28 -7z"/>
<path d="M29792 19218 c-33 -40 -42 -252 -18 -431 14 -105 25 -129 50 -108 12
10 14 27 11 65 -14 167 -16 334 -5 376 20 74 18 105 -6 108 -11 2 -26 -3 -32
-10z"/>
<path d="M27470 19209 c-145 -25 -227 -45 -365 -90 -170 -56 -180 -61 -172
-83 12 -29 35 -28 124 7 135 53 255 87 382 108 188 31 189 30 108 -82 -207
-288 -274 -373 -341 -437 -63 -60 -75 -76 -65 -88 6 -8 18 -14 27 -14 23 0
158 142 238 250 267 360 288 396 247 419 -29 15 -124 20 -183 10z"/>
<path d="M23131 19021 c-13 -24 2 -213 29 -351 20 -106 39 -145 61 -123 13 13
10 55 -15 248 -8 66 -16 143 -16 171 0 49 -12 74 -37 74 -7 0 -17 -8 -22 -19z"/>
<path d="M22665 19013 c-52 -7 -158 -45 -197 -71 -27 -17 -38 -32 -38 -49 0
-28 26 -41 49 -24 66 48 243 103 264 82 12 -12 -22 -72 -114 -201 -76 -109
-99 -157 -99 -209 0 -69 45 -104 142 -114 82 -8 169 7 242 41 63 29 156 108
156 131 0 28 -33 21 -88 -16 -31 -22 -75 -50 -97 -61 -83 -41 -232 -54 -270
-22 -20 16 -19 73 2 113 9 18 56 91 106 163 72 106 90 139 91 170 1 34 -3 40
-34 56 -34 17 -56 19 -115 11z"/>
<path d="M21377 18989 c-80 -19 -120 -51 -119 -97 0 -15 -22 -72 -49 -127 -50
-104 -77 -204 -66 -245 43 -163 281 -174 428 -20 71 76 111 160 117 246 6 92
0 116 -43 163 -59 65 -180 102 -268 80z m169 -75 c21 -11 49 -35 62 -54 47
-69 13 -201 -79 -311 -48 -58 -105 -87 -185 -95 -76 -7 -117 16 -135 74 -9 33
-9 48 6 93 39 119 74 181 143 251 64 66 69 68 108 65 23 -3 59 -13 80 -23z"/>
<path d="M19569 18971 c-49 -27 -96 -82 -108 -128 -17 -59 -13 -116 15 -268
38 -205 44 -219 77 -223 23 -3 27 0 27 21 0 13 -3 27 -7 31 -8 7 -43 149 -39
154 2 1 33 -11 70 -28 36 -17 121 -44 189 -60 67 -17 143 -37 168 -47 50 -17
79 -13 79 12 0 22 -72 51 -229 92 -195 50 -278 91 -223 110 72 24 184 87 215
122 107 119 51 219 -127 228 -57 3 -78 -1 -107 -16z m184 -62 c21 -5 40 -16
43 -24 9 -22 -23 -71 -69 -109 -51 -42 -191 -110 -211 -103 -43 17 -16 158 41
209 41 37 121 48 196 27z"/>
<path d="M18835 18968 c-17 -50 -28 -161 -34 -327 -3 -116 -10 -196 -16 -198
-26 -8 -142 204 -175 322 -12 41 -23 61 -35 63 -41 9 -40 -46 2 -152 76 -188
173 -321 229 -314 52 6 57 34 66 328 4 146 6 271 3 278 -2 6 -11 12 -20 12 -9
0 -18 -6 -20 -12z"/>
<path d="M20131 18966 c-10 -12 -11 -29 -2 -78 15 -87 120 -470 133 -485 17
-21 47 -15 53 10 3 12 -5 58 -19 102 -56 182 -98 344 -104 400 -6 51 -10 60
-28 63 -11 2 -26 -4 -33 -12z"/>
<path d="M21815 18940 c-4 -6 -1 -19 7 -30 7 -10 39 -54 70 -98 32 -44 62 -83
68 -87 24 -15 7 -42 -48 -77 -137 -88 -216 -184 -193 -234 17 -39 71 -25 71
18 0 26 59 88 152 157 l80 61 69 -64 c74 -70 122 -101 145 -92 21 8 17 34 -8
47 -27 14 -148 129 -148 139 0 4 67 51 148 104 159 102 192 130 175 147 -16
16 -95 -25 -280 -144 -51 -32 -97 -56 -102 -53 -5 4 -31 39 -58 78 -82 125
-127 163 -148 128z"/>
<path d="M5032 18891 c-79 -32 -136 -92 -193 -202 -36 -72 -80 -210 -90 -283
-24 -180 -33 -313 -34 -462 0 -174 5 -194 52 -194 30 0 38 21 24 62 -7 18 -17
116 -22 217 -10 171 -9 194 11 315 24 140 65 254 128 356 48 78 70 99 127 126
59 28 125 31 210 8 75 -19 179 -75 183 -98 7 -35 -54 -79 -251 -177 -197 -99
-321 -174 -366 -222 -29 -32 -33 -92 -8 -130 40 -62 96 -88 337 -158 74 -21
169 -63 213 -94 26 -19 51 -19 66 -2 13 17 2 31 -52 71 -58 42 -152 81 -293
122 -145 41 -169 51 -203 87 -30 33 -23 65 22 100 49 37 177 106 327 176 74
34 156 76 183 93 56 36 97 91 97 129 0 73 -222 180 -370 178 -30 0 -74 -8 -98
-18z"/>
<path d="M10174 18876 c-163 -31 -332 -93 -379 -140 -30 -30 -32 -57 -7 -79
27 -25 49 -21 60 12 14 39 79 76 198 112 130 39 248 55 311 43 46 -9 48 -10
47 -41 -3 -53 -106 -182 -391 -491 -56 -61 -105 -122 -109 -137 -13 -53 65
-93 155 -80 74 10 323 73 496 125 153 46 239 84 265 115 26 32 -22 26 -162
-19 -141 -44 -194 -59 -413 -112 -108 -26 -265 -44 -265 -29 0 7 30 40 224
251 230 248 294 348 264 411 -7 15 -27 35 -43 45 -42 24 -162 30 -251 14z"/>
<path d="M11223 18873 c-22 -8 -53 -133 -84 -333 -17 -107 -37 -241 -46 -297
-17 -114 -13 -153 17 -153 14 0 20 9 24 33 10 59 45 270 71 422 14 83 35 179
47 215 24 72 25 99 6 111 -14 10 -17 10 -35 2z"/>
<path d="M17723 18823 c-29 -71 -4 -492 33 -550 28 -45 68 -16 46 32 -17 36
-44 261 -40 333 l3 63 48 -113 c97 -227 122 -264 153 -223 13 17 15 46 10 180
-5 127 -3 155 6 135 6 -14 26 -56 44 -95 41 -87 88 -145 118 -145 28 0 46 18
46 47 0 18 -5 23 -28 23 -35 0 -75 59 -127 190 -39 98 -59 130 -81 130 -27 0
-34 -42 -35 -197 0 -152 -1 -157 -17 -134 -30 43 -71 149 -92 237 -11 47 -25
94 -30 105 -17 30 -40 23 -57 -18z"/>
<path d="M18356 18838 c-9 -12 -16 -27 -16 -33 0 -6 -15 -15 -32 -20 -40 -12
-68 -57 -52 -82 18 -28 42 -27 55 1 7 14 15 26 19 26 4 0 10 -37 13 -83 11
-142 42 -218 96 -238 47 -19 82 31 106 149 15 76 -39 192 -106 224 -26 13 -33
23 -34 45 0 36 -28 42 -49 11z m99 -138 c13 -15 20 -40 23 -85 4 -62 -11 -135
-28 -135 -30 0 -75 197 -56 245 7 19 30 9 61 -25z"/>
<path d="M6066 18825 c-9 -9 -16 -22 -16 -28 -1 -69 -38 -251 -74 -372 -56
-182 -78 -302 -78 -415 0 -79 2 -86 27 -108 15 -12 32 -21 39 -19 11 4 11 12
0 100 -11 89 16 225 92 470 19 59 42 156 53 215 10 59 21 114 25 122 14 34
-41 62 -68 35z"/>
<path d="M8090 18804 c-150 -29 -310 -135 -404 -268 -60 -85 -81 -130 -106
-227 -38 -146 -13 -287 64 -361 87 -85 185 -112 376 -105 198 8 334 47 537
156 132 71 291 196 338 266 17 24 33 45 37 45 3 0 19 -21 34 -47 15 -27 52
-73 81 -105 l54 -56 -63 -45 c-35 -25 -101 -84 -146 -130 -66 -66 -83 -89 -80
-108 2 -16 11 -25 26 -27 18 -3 48 22 140 116 64 66 129 127 144 137 26 16 27
16 105 -38 88 -62 173 -106 252 -132 48 -16 54 -16 69 -2 22 22 4 41 -64 67
-104 38 -274 138 -274 159 0 5 60 45 133 89 143 87 287 189 287 203 0 5 -7 9
-16 9 -20 0 -225 -111 -351 -190 -52 -33 -101 -60 -108 -60 -21 0 -102 90
-131 145 -15 28 -34 58 -43 68 -10 12 -16 39 -16 76 -2 149 -134 292 -319 346
-71 21 -262 25 -323 7 -31 -9 -48 -10 -63 -2 -23 12 -132 21 -170 14z m484
-54 c179 -29 336 -177 336 -316 0 -67 -31 -123 -104 -191 -245 -228 -562 -354
-856 -340 -160 7 -269 65 -307 165 -22 58 -22 168 0 240 50 161 180 320 317
384 90 43 141 58 196 58 52 0 57 -6 32 -40 -37 -50 -1 -68 51 -24 l30 25 31
-22 c28 -21 32 -22 46 -7 13 12 14 20 5 36 -6 11 -11 23 -11 26 0 16 151 20
234 6z"/>
<path d="M2565 18776 c-67 -22 -117 -52 -201 -119 -90 -73 -156 -149 -187
-217 -30 -63 -29 -187 0 -251 31 -69 85 -122 155 -155 58 -27 72 -29 178 -29
190 0 302 47 440 185 66 65 94 103 124 163 21 42 40 95 43 116 9 66 -21 134
-90 205 -52 54 -73 67 -129 86 -46 15 -88 21 -135 20 -37 -1 -88 0 -113 4 -27
3 -61 0 -85 -8z m331 -57 c68 -26 130 -84 162 -151 31 -66 28 -88 -20 -181
-86 -168 -263 -302 -433 -329 -238 -37 -384 60 -387 257 -2 77 14 117 71 189
85 107 263 226 338 226 30 0 34 -3 33 -22 -1 -13 -2 -29 -1 -35 1 -15 41 -18
41 -3 0 23 21 7 35 -26 10 -25 20 -35 32 -32 26 5 28 43 5 83 -11 18 -18 36
-15 39 13 13 85 5 139 -15z"/>
<path d="M11562 18638 c-20 -20 -14 -46 14 -65 25 -16 27 -16 40 2 18 24 18
40 -2 59 -19 19 -36 20 -52 4z"/>
<path d="M20655 18566 c-18 -13 -44 -90 -90 -270 -15 -54 -35 -117 -46 -138
-24 -47 -18 -81 14 -76 29 4 71 89 93 188 9 41 30 117 45 169 16 51 29 101 29
111 0 24 -24 32 -45 16z"/>
<path d="M28310 18489 c-19 -4 -103 -12 -187 -18 -150 -11 -195 -19 -208 -41
-18 -29 16 -31 203 -15 222 19 246 24 250 52 4 25 -13 32 -58 22z"/>
<path d="M6625 18470 c-119 -19 -195 -52 -195 -85 0 -32 28 -39 75 -19 61 25
134 33 383 39 128 3 244 10 257 15 29 11 32 26 8 39 -25 13 -456 22 -528 11z"/>
<path d="M3402 18458 c-7 -7 -12 -17 -12 -23 0 -20 57 -67 77 -63 31 6 27 43
-7 72 -36 29 -41 31 -58 14z"/>
<path d="M29465 18449 c-488 -9 -571 -14 -580 -37 -13 -34 10 -36 262 -24 332
14 742 16 778 2 36 -14 85 4 85 31 0 38 8 38 -545 28z"/>
<path d="M27330 18425 c-74 -12 -180 -35 -235 -50 -55 -15 -110 -30 -122 -32
-12 -3 -30 -14 -39 -24 -16 -18 -16 -21 -1 -36 15 -15 23 -14 109 15 132 44
209 61 365 81 136 16 138 17 138 41 0 22 -5 25 -40 27 -22 1 -101 -9 -175 -22z"/>
<path d="M24680 18407 c-47 -24 -32 -48 50 -82 91 -38 132 -64 123 -78 -6 -11
-572 -3 -643 9 -43 7 -94 -25 -73 -47 18 -18 405 -31 605 -19 167 9 208 18
208 45 0 21 -57 61 -122 85 -55 20 -76 35 -65 46 3 3 52 -2 109 -10 223 -34
291 -69 257 -134 -18 -33 -73 -72 -200 -139 -179 -95 -305 -192 -297 -231 6
-31 29 -22 85 31 60 57 120 97 213 143 157 78 246 142 267 192 40 97 -41 148
-299 187 -119 18 -185 19 -218 2z"/>
<path d="M15315 18394 c-22 -23 -15 -45 22 -67 17 -10 162 -51 320 -91 310
-79 383 -107 409 -157 15 -29 14 -35 -1 -75 -27 -72 -91 -148 -294 -350 -151
-152 -191 -197 -191 -218 0 -50 35 -28 167 107 274 278 347 369 373 468 22 82
-18 147 -118 192 -32 15 -166 54 -298 87 -131 33 -255 67 -274 76 -93 44 -98
45 -115 28z"/>
<path d="M11572 18367 c-6 -7 -16 -44 -22 -82 -27 -172 -153 -563 -211 -658
-31 -52 -22 -99 13 -64 33 34 143 299 198 477 59 191 84 308 69 326 -14 17
-33 18 -47 1z"/>
<path d="M23030 18319 c-30 -4 -145 -15 -255 -23 -196 -16 -272 -29 -297 -54
-9 -9 -9 -15 0 -24 9 -9 31 -9 94 0 46 6 178 16 293 23 239 12 285 20 285 49
0 20 -28 41 -52 39 -7 -1 -38 -5 -68 -10z"/>
<path d="M6414 18266 c-10 -27 16 -54 68 -72 45 -15 81 -16 297 -11 266 6 375
18 403 44 15 14 16 19 6 30 -11 10 -34 11 -113 3 -159 -15 -522 -12 -570 5
-51 19 -84 19 -91 1z"/>
<path d="M20330 18132 c-14 -2 -47 -10 -74 -18 -27 -8 -68 -14 -91 -14 -44 0
-65 -13 -65 -42 0 -27 28 -37 69 -22 20 7 45 13 57 14 39 0 159 47 162 62 3
17 -20 25 -58 20z"/>
<path d="M18495 18084 c-237 -40 -403 -60 -578 -70 -102 -5 -132 -10 -150 -25
l-22 -18 22 -22 c20 -21 25 -22 64 -10 23 7 96 17 163 22 66 5 195 20 286 34
91 13 219 32 285 41 175 24 197 30 193 57 -4 32 -33 31 -263 -9z"/>
<path d="M1166 18048 c-20 -11 -20 -22 0 -42 13 -14 50 -16 248 -16 291 0 366
-16 412 -85 15 -24 15 -29 -1 -70 -26 -71 -111 -170 -251 -295 -70 -63 -176
-158 -234 -210 -58 -53 -142 -129 -188 -169 -87 -77 -110 -107 -95 -122 16
-16 71 25 309 236 322 284 402 358 452 418 106 129 109 224 9 293 -59 39 -138
55 -302 60 -82 2 -193 6 -247 8 -53 1 -103 -1 -112 -6z"/>
<path d="M15569 18026 c-4 -5 -75 -12 -604 -61 -325 -30 -364 -35 -620 -85
-110 -22 -255 -48 -322 -59 -133 -21 -189 -42 -205 -77 -23 -50 11 -68 66 -35
17 11 86 28 156 41 69 11 202 36 295 55 247 49 264 52 790 105 264 27 498 55
520 62 29 9 40 19 40 33 0 17 -8 20 -55 23 -31 2 -58 1 -61 -2z"/>
<path d="M29801 18006 c-7 -8 -16 -38 -20 -66 -10 -64 -2 -536 10 -568 6 -15
16 -22 27 -20 16 3 17 26 18 293 0 160 3 303 7 318 12 44 -17 73 -42 43z"/>
<path d="M28336 17979 c-134 -18 -326 -89 -341 -127 -6 -16 11 -42 29 -42 6 0
43 16 81 35 89 44 155 61 281 70 153 11 155 16 -67 -213 -200 -207 -235 -278
-170 -343 28 -27 34 -29 113 -29 92 1 221 21 265 42 33 16 43 53 16 62 -10 3
-50 -1 -88 -9 -114 -24 -236 -30 -260 -12 -20 15 -20 16 -1 52 11 20 91 111
179 202 199 208 219 239 183 285 -28 38 -83 44 -220 27z"/>
<path d="M29052 17958 c-19 -19 -14 -144 11 -319 15 -99 30 -167 41 -184 22
-33 52 -30 49 5 -3 33 -28 198 -43 281 -6 37 -12 102 -13 145 -2 62 -5 79 -17
82 -9 1 -21 -3 -28 -10z"/>
<path d="M27120 17911 c-121 -37 -269 -162 -317 -268 -54 -117 -38 -237 44
-324 67 -72 137 -102 250 -107 90 -4 95 -3 168 32 48 22 98 57 137 93 179 172
164 384 -36 481 -37 18 -66 39 -66 47 0 34 -38 55 -97 54 -32 0 -69 -4 -83 -8z
m2 -83 c3 -21 9 -23 69 -25 84 -3 165 -33 216 -81 32 -29 43 -49 53 -92 11
-50 10 -61 -10 -114 -29 -75 -121 -171 -205 -212 -53 -26 -71 -29 -150 -29
-104 0 -148 18 -207 83 -46 51 -62 100 -56 176 7 76 32 127 96 192 42 43 160
122 184 124 4 0 8 -10 10 -22z"/>
<path d="M3287 17863 c-30 -29 26 -98 62 -76 22 14 25 47 6 67 -17 16 -56 22
-68 9z"/>
<path d="M1320 17829 c-125 -28 -202 -55 -325 -115 -194 -94 -326 -183 -473
-319 -112 -104 -210 -233 -293 -388 -21 -38 -91 -204 -105 -247 -107 -329
-124 -481 -109 -1005 6 -225 46 -528 90 -690 8 -27 28 -102 45 -165 36 -128
132 -391 191 -518 22 -46 39 -85 39 -88 0 -6 74 -163 130 -276 51 -102 129
-240 167 -297 13 -19 23 -40 23 -48 0 -8 18 -38 40 -68 22 -30 40 -57 40 -61
0 -4 11 -22 25 -40 14 -18 25 -37 25 -43 0 -5 10 -22 23 -38 13 -15 34 -48 46
-73 13 -24 38 -65 57 -90 19 -25 52 -70 74 -100 214 -302 517 -617 873 -909
110 -90 382 -280 482 -336 194 -109 197 -111 395 -203 157 -72 406 -167 555
-211 61 -18 126 -38 145 -45 19 -8 80 -23 135 -35 55 -12 123 -28 150 -36 28
-7 70 -16 95 -19 25 -4 83 -13 130 -21 162 -27 581 -79 730 -90 47 -4 121 -10
165 -16 44 -5 181 -16 305 -24 124 -8 286 -19 360 -25 74 -5 221 -11 325 -14
105 -3 240 -8 300 -11 197 -11 446 -17 640 -16 397 3 814 9 915 15 276 16 584
38 670 47 52 5 147 14 210 19 121 10 218 21 385 45 55 7 141 19 190 25 82 10
197 28 420 64 207 34 748 152 875 191 25 7 86 25 135 39 101 29 582 190 690
231 39 14 93 34 120 44 307 113 675 299 860 435 165 121 421 350 500 446 93
114 194 330 255 545 35 126 38 183 12 216 -31 38 -80 0 -54 -42 16 -25 15 -59
-4 -133 -40 -155 -132 -375 -200 -478 -82 -123 -430 -436 -634 -571 -236 -155
-661 -340 -1275 -553 -129 -45 -399 -125 -540 -160 -252 -63 -769 -166 -1020
-204 -44 -6 -102 -16 -130 -20 -289 -51 -1106 -121 -1696 -145 -239 -10 -1069
-7 -1304 4 -115 6 -266 13 -335 16 -69 3 -224 12 -345 20 -121 8 -263 17 -315
20 -52 3 -140 10 -195 15 -55 5 -170 15 -255 21 -573 40 -1176 161 -1635 328
-186 68 -469 190 -545 237 -19 11 -78 45 -130 74 -445 251 -958 698 -1285
1120 -52 68 -89 120 -184 265 -127 192 -156 237 -163 256 -4 10 -21 37 -37 60
-17 23 -31 46 -31 51 0 6 -26 53 -57 106 -31 54 -78 138 -103 187 -26 50 -59
113 -73 140 -15 28 -47 97 -73 155 -26 58 -53 114 -61 125 -7 11 -13 29 -13
40 0 12 -4 25 -9 30 -16 17 -111 274 -151 410 -36 123 -92 363 -105 450 -87
583 -85 794 14 1225 59 261 221 575 384 747 283 297 755 510 1050 473 88 -11
111 -4 91 28 -28 44 -170 54 -314 21z"/>
<path d="M23365 17810 c-4 -6 -1 -35 6 -66 10 -43 10 -90 1 -217 -12 -164 -5
-318 16 -339 5 -5 17 -8 26 -6 15 3 17 33 21 286 4 232 3 289 -9 317 -15 35
-47 48 -61 25z"/>
<path d="M22056 17757 c-34 -34 -39 -74 -34 -245 3 -107 9 -158 21 -186 10
-22 16 -40 14 -42 -1 -1 -56 4 -122 12 -125 15 -188 37 -193 66 -2 11 24 45
71 90 77 76 97 115 113 215 20 131 -131 73 -185 -70 -11 -31 -26 -78 -32 -104
-7 -27 -23 -63 -36 -80 -19 -26 -22 -37 -13 -52 5 -11 10 -53 10 -93 1 -103
13 -158 41 -180 47 -36 94 2 51 42 -20 19 -39 127 -25 141 4 4 40 0 78 -10 90
-24 295 -45 308 -32 5 5 -1 38 -17 85 -22 63 -28 101 -33 219 l-6 142 28 34
c22 25 26 37 19 49 -16 25 -32 25 -58 -1z m-196 -111 c0 -37 -62 -146 -82
-146 -12 0 -1 55 19 95 28 55 63 83 63 51z"/>
<path d="M22880 17751 c-53 -16 -91 -43 -116 -81 -59 -89 -110 -347 -85 -430
12 -41 42 -80 61 -80 18 0 24 32 10 54 -14 22 -26 145 -17 170 5 13 16 7 49
-26 60 -59 114 -95 181 -118 94 -33 148 -21 132 31 -6 18 -12 20 -49 15 -36
-6 -53 -1 -113 29 -69 34 -153 110 -153 138 0 24 43 55 142 100 53 25 101 54
107 65 18 34 13 77 -11 99 -46 42 -82 51 -138 34z m90 -61 c26 -17 -1 -42
-103 -96 -104 -55 -112 -53 -77 16 18 36 55 70 90 83 24 9 74 7 90 -3z"/>
<path d="M20055 17609 c-16 -5 -52 -25 -78 -45 -69 -51 -101 -121 -105 -234
-1 -47 -10 -108 -19 -137 l-17 -52 27 -40 c17 -26 27 -54 27 -78 0 -46 33
-103 59 -103 26 0 34 28 16 56 -12 19 -21 64 -12 64 1 0 31 -10 67 -21 109
-35 300 -25 300 15 0 24 -18 28 -120 27 -100 -2 -171 10 -225 37 -37 19 -45
29 -45 67 0 25 16 46 91 120 114 113 149 164 149 221 0 58 -17 91 -53 104 -16
5 -30 10 -31 9 -1 0 -14 -5 -31 -10z m54 -72 c17 -21 -30 -104 -103 -180 -66
-70 -86 -81 -86 -47 0 91 52 179 129 220 44 23 46 23 60 7z"/>
<path d="M19055 17595 c-16 -9 -41 -32 -55 -51 -21 -31 -25 -51 -28 -133 -2
-57 3 -140 13 -206 25 -168 66 -234 118 -188 12 11 48 35 81 54 32 19 89 63
126 99 57 55 69 72 78 115 10 44 8 55 -9 92 -26 55 -160 179 -224 209 -59 28
-61 28 -100 9z m133 -100 c172 -129 180 -189 45 -315 -42 -39 -81 -69 -87 -67
-6 2 -15 45 -19 98 -9 103 -23 132 -51 104 -20 -20 -20 -35 -1 -105 14 -52 11
-120 -5 -120 -23 0 -55 210 -48 317 4 64 9 78 33 103 16 17 39 30 51 30 12 0
49 -20 82 -45z"/>
<path d="M20398 17516 c-69 -28 -155 -90 -163 -117 -7 -20 9 -49 27 -49 6 0
26 14 46 31 47 42 149 89 191 89 l34 0 -5 -47 c-3 -27 -22 -91 -43 -143 -96
-241 -101 -332 -20 -366 71 -29 202 -5 297 55 54 34 68 64 42 92 -24 26 -52
24 -56 -3 -4 -30 -114 -86 -184 -94 -63 -8 -94 6 -94 43 0 36 35 150 81 264
21 52 41 121 45 152 6 53 5 57 -24 86 -38 39 -92 41 -174 7z"/>
<path d="M18544 17485 c-15 -23 -16 -45 -10 -173 4 -81 11 -194 17 -251 7 -72
7 -107 -1 -115 -18 -18 -11 -55 15 -72 54 -35 154 5 238 95 93 99 121 213 77
310 -25 54 -132 160 -202 201 -67 38 -111 39 -134 5z m135 -75 c56 -43 140
-136 151 -165 25 -65 6 -135 -61 -222 -36 -46 -93 -93 -113 -93 -3 0 -6 11 -6
25 0 13 -6 28 -14 32 -20 11 -55 348 -47 452 2 20 48 5 90 -29z"/>
<path d="M18038 17443 c-22 -26 -48 -79 -63 -132 -17 -56 -61 -289 -75 -391
-6 -41 -15 -90 -21 -109 -10 -29 -9 -36 9 -53 l20 -20 20 20 c14 14 22 40 27
79 13 124 10 119 78 158 34 20 87 52 117 71 30 18 61 34 68 34 19 0 51 -80 60
-146 7 -60 26 -82 57 -70 15 5 17 14 11 59 -4 28 -20 83 -36 122 -24 60 -26
72 -14 86 22 25 16 37 -18 41 -31 3 -37 11 -90 107 -89 164 -113 186 -150 144z
m95 -167 c31 -56 57 -107 57 -112 -1 -11 -197 -110 -204 -104 -6 7 30 218 45
260 13 37 27 60 38 60 3 0 32 -47 64 -104z"/>
<path d="M22224 17309 c-11 -18 -13 -52 -14 -254 -1 -99 2 -188 5 -197 4 -10
15 -18 25 -18 25 0 27 12 31 180 7 288 7 295 -18 298 -11 2 -25 -2 -29 -9z"/>
<path d="M6035 17283 c-99 -12 -237 -55 -375 -114 -40 -17 -50 -26 -50 -45 0
-20 5 -24 28 -24 15 0 36 6 47 13 42 28 197 88 279 107 135 32 246 26 246 -14
0 -19 -51 -85 -101 -131 -24 -23 -116 -95 -204 -162 -330 -248 -410 -355 -323
-428 32 -27 34 -27 138 -22 105 5 331 45 523 92 110 27 167 49 167 64 0 21
-43 20 -137 -3 -134 -34 -283 -61 -438 -81 -110 -13 -137 -14 -170 -3 -29 9
-41 19 -43 36 -5 36 110 147 307 296 205 154 268 210 310 273 35 52 39 92 14
115 -35 32 -121 44 -218 31z"/>
<path d="M8062 17274 c-130 -48 -235 -226 -276 -470 -40 -236 -24 -420 38
-432 29 -6 36 17 19 62 -17 45 -30 262 -19 320 l7 36 62 -24 c87 -32 254 -118
340 -173 103 -66 224 -121 282 -129 41 -5 55 -2 75 14 21 17 22 22 11 36 -8 9
-28 16 -47 16 -48 0 -101 24 -254 114 -74 43 -191 102 -258 130 -68 29 -125
56 -125 61 -1 5 35 17 81 27 226 47 377 113 424 187 56 89 30 177 -64 216 -61
25 -238 30 -296 9z m255 -59 c107 -43 91 -146 -32 -200 -101 -45 -423 -141
-434 -129 -9 9 39 140 67 185 61 96 114 141 187 160 45 12 164 3 212 -16z"/>
<path d="M5005 17266 c-166 -53 -261 -151 -327 -337 -37 -105 -44 -198 -24
-334 21 -149 59 -267 104 -317 23 -27 65 -22 102 12 34 32 37 62 7 68 -10 2
-27 -4 -37 -13 -24 -22 -35 -14 -64 43 -36 72 -55 144 -67 264 -9 93 -8 122 6
191 24 120 79 231 144 289 80 72 143 93 276 93 127 -1 176 -17 238 -79 80 -80
43 -120 -293 -323 -91 -55 -188 -112 -217 -127 -57 -30 -64 -41 -52 -73 14
-37 52 -53 165 -68 170 -22 284 -42 343 -60 92 -28 140 5 63 44 -53 27 -98 37
-267 61 -174 25 -228 37 -223 52 2 6 78 51 168 100 306 168 410 255 410 342 0
36 -6 48 -42 83 -49 47 -92 71 -163 89 -62 17 -197 17 -250 0z"/>
<path d="M11254 17269 c-132 -17 -265 -88 -324 -174 -61 -88 -70 -180 -58
-560 5 -166 9 -201 22 -210 24 -15 47 15 53 66 3 24 -2 107 -11 183 -8 77 -14
142 -12 144 2 2 23 -6 45 -18 23 -11 110 -47 194 -79 84 -32 186 -74 228 -94
93 -43 140 -57 200 -57 85 0 95 54 12 62 -27 3 -87 22 -133 43 -47 20 -173 73
-280 117 -107 43 -203 87 -214 98 -18 18 -18 19 20 38 22 10 118 45 215 76 97
31 200 71 229 89 116 70 120 195 9 252 -39 20 -133 32 -195 24z m141 -75 c20
-9 40 -30 50 -51 34 -71 1 -96 -237 -174 -82 -27 -177 -63 -210 -79 -33 -17
-64 -30 -70 -30 -11 0 -2 78 18 140 27 86 102 152 219 192 65 22 185 24 230 2z"/>
<path d="M12047 17243 c-2 -4 -8 -57 -12 -118 -3 -60 -13 -175 -21 -255 -24
-252 -17 -379 22 -394 37 -14 42 2 37 117 -4 79 1 165 15 292 31 272 33 298
24 330 -6 22 -15 31 -34 33 -14 2 -28 0 -31 -5z"/>
<path d="M28465 17228 c-107 -8 -271 -42 -338 -70 -32 -14 -49 -28 -53 -44
-12 -48 15 -55 92 -24 116 46 279 72 467 74 106 1 112 2 115 22 2 11 -3 25
-10 31 -17 14 -160 20 -273 11z"/>
<path d="M8964 17194 c-15 -22 -16 -47 -10 -227 17 -468 20 -505 38 -523 10
-10 23 -14 34 -10 16 6 16 25 8 279 -5 149 -9 319 -9 377 0 58 -4 111 -8 118
-13 19 -35 14 -53 -14z"/>
<path d="M10049 17203 c-10 -11 -15 -55 -17 -149 l-4 -133 -31 -5 c-18 -3 -66
-10 -107 -16 -96 -14 -124 -28 -128 -63 -5 -38 15 -42 79 -17 66 25 144 41
164 34 22 -9 19 -100 -6 -212 -17 -71 -19 -96 -10 -105 35 -35 88 90 99 232 7
79 9 85 32 91 14 4 131 3 260 -2 129 -5 245 -6 257 -3 27 6 30 31 6 39 -33 10
-287 26 -416 26 -106 0 -129 3 -134 15 -3 9 -1 69 4 133 5 66 6 125 1 135 -11
22 -31 22 -49 0z"/>
<path d="M29000 17211 c-44 -9 -60 -18 -60 -35 0 -18 293 -17 312 2 8 8 9 15
2 22 -13 13 -206 22 -254 11z"/>
<path d="M29780 17195 c-109 -20 -161 -36 -167 -52 -12 -31 14 -32 106 -8 59
16 119 25 166 25 81 0 105 6 105 25 0 29 -84 32 -210 10z"/>
<path d="M27640 17089 c-236 -39 -362 -50 -578 -51 -119 0 -227 -5 -239 -9
-24 -9 -31 -43 -12 -55 23 -14 420 -3 582 16 399 47 476 64 460 106 -7 19 -68
17 -213 -7z"/>
<path d="M2296 17068 c-3 -7 -7 -47 -9 -88 -2 -41 -14 -129 -26 -195 -25 -141
-32 -406 -12 -466 15 -47 47 -77 63 -61 9 9 7 26 -7 71 -28 93 -17 277 30 508
32 161 35 185 23 210 -14 30 -55 44 -62 21z"/>
<path d="M21027 17058 c-9 -7 -23 -29 -31 -48 -20 -48 -72 -361 -63 -383 7
-20 45 -23 52 -4 3 6 18 83 34 170 16 86 39 178 51 202 18 37 20 48 10 60 -15
18 -31 19 -53 3z"/>
<path d="M6825 16979 c-183 -12 -195 -15 -195 -44 0 -34 26 -46 66 -29 46 19
225 33 444 34 205 0 265 7 265 30 0 13 -33 15 -225 16 -124 1 -283 -2 -355 -7z"/>
<path d="M29869 16976 c-20 -7 -69 -37 -109 -67 -40 -30 -100 -72 -134 -94
-65 -43 -80 -69 -46 -80 23 -7 20 -9 141 85 104 80 147 110 160 110 7 0 8 -41
3 -125 -6 -112 -5 -125 10 -131 36 -14 44 15 48 166 3 139 2 145 -17 147 -11
1 -36 -3 -56 -11z"/>
<path d="M23391 16876 c-67 -11 -89 -29 -77 -61 7 -19 -2 -20 226 8 80 10 95
15 98 31 2 10 -2 22 -10 27 -18 12 -160 9 -237 -5z"/>
<path d="M29070 16842 c-57 -59 -183 -246 -200 -296 -14 -45 0 -69 39 -64 23
3 27 9 33 50 7 53 55 138 132 237 l50 64 18 -24 c11 -13 39 -52 63 -86 30 -42
52 -63 65 -63 36 0 32 26 -14 98 -25 39 -46 74 -46 79 0 5 -9 19 -20 31 -34
36 -68 28 -120 -26z"/>
<path d="M6965 16860 c-49 -4 -166 -13 -260 -19 -199 -14 -234 -20 -249 -43
-20 -33 6 -43 81 -30 80 13 347 40 483 48 116 7 170 20 170 39 0 17 -62 18
-225 5z"/>
<path d="M12517 16842 c-34 -38 -13 -71 37 -58 29 7 40 31 26 57 -13 24 -42
24 -63 1z"/>
<path d="M29781 16812 c-50 -52 -113 -223 -162 -441 -19 -83 -20 -95 -6 -108
26 -26 55 -8 62 40 7 51 43 220 55 262 5 17 16 56 24 87 13 44 23 61 44 72 20
10 31 27 40 61 20 76 -1 86 -57 27z"/>
<path d="M3047 16833 c-23 -22 10 -83 44 -83 20 0 39 20 39 40 0 34 -61 65
-83 43z"/>
<path d="M28353 16815 c-12 -8 -41 -64 -68 -127 -26 -62 -65 -146 -86 -187
-35 -66 -38 -76 -25 -89 13 -13 18 -13 41 2 14 9 28 25 31 34 3 9 19 49 34 87
16 39 43 105 60 148 37 90 49 95 105 37 36 -36 37 -41 23 -57 -15 -16 -13 -27
13 -118 17 -55 37 -125 46 -155 8 -30 21 -108 27 -175 6 -66 15 -126 19 -132
12 -19 34 -16 50 7 11 16 12 35 1 120 -16 117 -22 143 -75 309 -22 68 -37 126
-35 129 3 2 29 -14 57 -37 53 -42 94 -51 94 -21 0 8 -54 66 -120 127 -125 117
-148 129 -192 98z"/>
<path d="M21916 16801 c-4 -6 -2 -19 3 -29 13 -24 91 -33 210 -24 63 5 87 11
95 24 5 9 7 21 2 25 -12 13 -303 16 -310 4z"/>
<path d="M29066 16661 c-4 -5 7 -89 24 -187 16 -98 30 -188 30 -200 0 -12 8
-32 19 -45 17 -21 21 -22 46 -11 23 11 26 17 22 40 -22 99 -87 382 -93 395 -7
18 -39 23 -48 8z"/>
<path d="M20493 16627 c-11 -18 12 -50 44 -64 27 -11 55 -13 112 -8 104 9 133
21 129 54 l-3 26 -138 0 c-77 0 -141 -3 -144 -8z"/>
<path d="M18865 16594 c-482 -72 -911 -92 -1070 -49 -11 3 -27 1 -35 -5 -18
-12 -7 -34 34 -64 60 -45 445 -31 1026 38 107 12 220 21 250 19 62 -5 98 12
87 41 -15 38 -123 46 -292 20z"/>
<path d="M12563 16578 c-6 -7 -13 -52 -17 -100 -7 -100 -38 -192 -122 -367
-45 -91 -68 -126 -120 -179 -56 -57 -63 -67 -51 -80 32 -32 104 23 171 132 53
85 133 251 171 356 31 87 45 211 25 235 -15 18 -44 20 -57 3z"/>
<path d="M3044 16395 c-9 -36 2 -55 31 -55 29 0 40 19 31 55 -5 18 -13 25 -31
25 -18 0 -26 -7 -31 -25z"/>
<path d="M29998 16029 c-15 -8 -18 -26 -18 -115 l0 -105 -30 -17 c-91 -52 -10
-86 88 -37 66 33 88 32 107 -4 18 -36 69 -51 92 -28 13 13 11 17 -16 36 -17
12 -31 29 -31 38 0 9 18 33 40 53 33 30 40 44 40 74 0 70 -81 75 -127 7 -13
-19 -23 -47 -23 -63 0 -31 -9 -37 -56 -41 l-29 -2 0 104 c0 106 -5 119 -37
100z"/>
<path d="M30771 16024 c-78 -21 -106 -36 -109 -61 -6 -38 15 -60 85 -89 79
-32 93 -41 93 -60 0 -20 -82 -70 -155 -94 -78 -26 -104 -44 -88 -61 9 -9 27
-8 82 4 132 30 236 104 229 163 -3 25 -14 35 -83 71 -44 22 -81 46 -83 51 -2
6 16 13 40 17 79 13 126 52 82 69 -21 8 -30 7 -93 -10z"/>
<path d="M29470 16010 c-24 -24 -25 -43 -5 -60 11 -9 25 -7 70 14 30 15 55 30
55 34 0 35 -88 44 -120 12z"/>
<path d="M30493 15992 c-53 -21 -107 -71 -132 -120 -37 -74 -38 -142 -2 -142
27 0 42 23 45 68 4 60 35 103 102 143 85 52 77 88 -13 51z"/>
<path d="M28462 15875 c-60 -27 -94 -57 -137 -124 -53 -81 -75 -154 -75 -242
0 -59 3 -70 21 -80 36 -19 44 2 44 116 0 57 3 107 8 111 4 4 25 -10 47 -31 38
-37 45 -40 109 -43 71 -4 111 8 111 33 0 11 -13 15 -50 15 -28 0 -66 6 -85 14
-39 17 -73 62 -58 77 6 6 52 13 102 16 106 7 154 30 159 75 7 56 -120 98 -196
63z m105 -56 c26 -10 26 -12 8 -19 -30 -11 -165 -19 -165 -9 0 15 55 38 92 39
20 0 49 -5 65 -11z"/>
<path d="M28815 15865 c-22 -8 -51 -26 -64 -41 -20 -24 -22 -33 -15 -68 4 -23
8 -59 8 -80 l1 -39 65 -19 c66 -19 121 -18 146 3 20 17 7 29 -31 29 -66 0 -83
21 -44 56 24 21 49 73 49 103 0 24 -29 58 -55 65 -11 3 -38 -1 -60 -9z m55
-79 c0 -12 -12 -36 -26 -51 -25 -28 -27 -28 -40 -10 -30 41 -11 85 38 85 23 0
28 -4 28 -24z"/>
<path d="M29653 15836 c-91 -54 -103 -64 -103 -88 0 -31 27 -31 83 1 61 35
125 48 155 32 44 -24 36 -139 -14 -207 -21 -28 -22 -33 -8 -45 12 -10 20 -9
42 8 15 11 33 31 40 46 19 39 34 135 27 170 -8 34 -51 87 -71 87 -7 0 -16 9
-19 20 -10 31 -51 23 -132 -24z"/>
<path d="M29092 15804 c-44 -22 -52 -30 -52 -53 0 -16 10 -37 25 -51 22 -21
30 -22 86 -16 l62 6 -6 -48 c-3 -26 -16 -78 -28 -115 -24 -74 -18 -98 19 -78
28 15 51 80 64 177 13 100 9 118 -35 167 -42 44 -64 46 -135 11z m76 -46 c-5
-15 -58 -24 -58 -10 0 15 12 22 38 22 14 0 22 -5 20 -12z"/>
<path d="M29350 15815 c-11 -13 -9 -19 8 -38 28 -29 42 -70 42 -118 0 -35 3
-39 24 -39 14 0 28 4 31 10 14 22 6 110 -13 154 -18 40 -25 46 -50 46 -16 0
-35 -7 -42 -15z"/>
<path d="M20592 15088 c-162 -63 -226 -215 -202 -486 18 -204 59 -352 111
-404 34 -34 54 -35 74 -4 13 19 14 29 5 45 -6 12 -17 21 -25 21 -26 0 -64 84
-85 186 -57 269 -26 486 79 558 71 49 109 59 206 54 73 -4 103 -11 158 -36 37
-17 67 -37 67 -44 0 -20 -55 -70 -125 -114 -33 -20 -97 -61 -142 -91 -164
-107 -176 -210 -35 -298 108 -68 299 -108 418 -88 63 11 98 28 89 43 -2 4 -57
10 -122 14 -133 7 -223 27 -301 64 -58 28 -112 82 -112 111 0 27 71 88 180
155 184 113 231 161 217 218 -8 29 -100 83 -181 104 -75 20 -210 16 -274 -8z"/>
<path d="M22738 15061 c-56 -18 -103 -67 -92 -95 9 -24 33 -19 70 14 105 92
260 43 338 -108 28 -55 56 -183 56 -262 0 -141 -60 -218 -203 -261 -92 -29
-225 -24 -279 9 -50 31 -62 66 -55 167 4 61 13 100 35 146 48 106 187 239 248
239 56 0 78 44 29 56 -62 15 -162 -39 -249 -136 -96 -107 -150 -308 -116 -431
36 -131 273 -168 472 -74 145 69 210 228 163 403 -44 164 -108 261 -201 306
-63 31 -164 43 -216 27z"/>
<path d="M18163 14934 c-13 -34 18 -154 97 -379 109 -310 119 -398 60 -531
-60 -136 -338 -294 -517 -294 -47 0 -53 2 -59 24 -3 14 -4 29 -1 33 3 5 1 15
-4 23 -15 24 -49 -24 -49 -70 0 -59 26 -75 115 -73 102 2 183 25 305 84 87 43
118 65 181 128 102 102 123 154 123 301 -1 123 -10 161 -93 389 -53 145 -73
211 -99 341 -5 26 -13 36 -30 38 -14 2 -25 -3 -29 -14z"/>
<path d="M18547 14926 c-47 -17 -77 -43 -77 -68 0 -24 30 -23 75 3 30 18 52
21 143 21 166 1 238 -28 274 -108 40 -93 -10 -197 -201 -417 -148 -170 -181
-211 -201 -249 -26 -48 -25 -70 1 -94 18 -16 36 -19 123 -18 213 3 545 98 500
144 -9 9 -43 4 -135 -19 -218 -53 -439 -74 -439 -42 0 9 43 61 155 186 157
176 224 272 256 367 47 141 -15 254 -162 294 -70 18 -261 18 -312 0z"/>
<path d="M23927 14930 c-47 -9 -104 -62 -113 -106 -4 -24 0 -37 21 -62 42 -50
88 -38 50 12 -33 43 -5 79 74 97 53 12 180 -13 236 -46 110 -64 176 -216 131
-303 -23 -44 -112 -121 -172 -149 -62 -28 -156 -34 -219 -13 -41 14 -95 72
-95 104 0 31 29 125 46 152 8 12 33 34 55 50 49 34 65 60 48 80 -21 25 -46 15
-105 -43 -43 -43 -64 -73 -78 -112 -54 -154 -35 -213 90 -275 119 -60 300 -11
425 113 85 85 98 152 53 265 -49 124 -167 212 -314 235 -72 12 -78 12 -133 1z"/>
<path d="M19970 14919 c-119 -10 -213 -25 -314 -50 -43 -10 -96 -19 -116 -19
-47 0 -75 -30 -124 -133 -43 -90 -99 -326 -100 -422 -1 -85 14 -114 77 -147
37 -19 58 -22 177 -23 74 0 158 5 185 12 150 35 273 109 238 144 -8 8 -30 1
-84 -25 -104 -50 -241 -79 -349 -73 -112 6 -168 35 -183 95 -6 26 11 148 24
174 17 32 171 79 338 102 108 15 152 36 121 57 -31 21 -229 -6 -370 -50 -35
-11 -66 -18 -68 -16 -8 7 41 139 67 182 20 34 33 44 61 49 19 4 69 17 110 30
109 34 227 54 381 64 146 10 169 15 169 35 0 27 -55 30 -240 14z"/>
<path d="M24664 14886 c-69 -32 -159 -122 -188 -188 -31 -70 -49 -180 -40
-242 5 -41 14 -57 42 -83 66 -61 115 -78 222 -78 83 0 103 4 157 29 73 33 144
104 163 161 17 51 8 150 -18 201 -27 53 -92 111 -153 136 -38 16 -48 25 -44
38 8 25 -21 50 -58 50 -18 0 -55 -11 -83 -24z m156 -112 c105 -48 144 -104
144 -204 0 -123 -64 -190 -208 -220 -91 -19 -168 0 -223 55 -41 40 -43 45 -43
100 0 113 64 239 140 277 51 26 124 23 190 -8z"/>
<path d="M21445 14881 c-132 -61 -235 -296 -195 -443 13 -47 76 -103 132 -119
125 -34 321 3 439 84 73 49 110 107 136 212 24 98 9 165 -49 221 -70 66 -187
80 -280 33 -42 -21 -78 -63 -78 -90 0 -28 20 -23 69 16 87 69 169 69 239 0 42
-42 42 -43 42 -116 -1 -122 -45 -196 -151 -249 -86 -44 -171 -63 -264 -58 -92
5 -137 24 -165 71 -69 113 77 397 203 397 34 0 54 25 37 45 -17 20 -66 19
-115 -4z"/>
<path d="M30083 14885 c-67 -20 -133 -63 -133 -85 0 -24 20 -25 62 -4 164 85
381 51 504 -78 54 -57 68 -95 61 -164 -12 -113 -107 -229 -241 -294 -145 -70
-257 -74 -328 -11 l-31 28 11 59 c16 76 77 179 146 242 55 49 128 92 158 92
21 0 42 26 34 45 -11 29 -76 18 -138 -22 -146 -97 -251 -246 -265 -376 -7 -72
14 -109 83 -143 58 -28 166 -35 244 -14 129 33 272 132 332 230 28 45 58 142
58 186 0 50 -51 142 -107 195 -110 103 -318 156 -450 114z"/>
<path d="M10612 14848 c-17 -17 -16 -20 21 -61 39 -44 139 -209 212 -350 148
-285 135 -452 -58 -732 -70 -102 -250 -292 -322 -339 -65 -44 -72 -53 -53 -73
13 -13 19 -13 49 0 114 49 382 351 473 533 59 118 69 159 70 274 0 93 -4 116
-33 200 -42 125 -233 476 -291 538 -23 24 -50 28 -68 10z"/>
<path d="M29305 14830 c-115 -20 -200 -81 -193 -138 4 -33 41 -38 46 -7 13 68
167 120 285 95 66 -13 135 -57 161 -100 23 -40 32 -136 17 -183 -17 -49 -82
-120 -144 -156 -98 -56 -201 -84 -312 -84 -158 -1 -225 38 -233 136 -3 48 -1
55 32 94 27 30 54 48 106 68 67 25 98 54 85 75 -9 15 -32 12 -97 -11 -114 -42
-196 -145 -185 -235 7 -67 52 -133 112 -163 45 -24 60 -26 165 -25 128 1 168
9 285 61 161 72 239 158 251 282 12 111 -45 210 -149 260 -70 33 -153 44 -232
31z"/>
<path d="M27314 14799 c-127 -16 -244 -57 -299 -104 -40 -33 -40 -34 -23 -62
24 -41 83 -79 171 -108 42 -15 77 -28 77 -31 0 -2 -29 -39 -65 -83 -109 -136
-176 -307 -158 -404 8 -42 67 -102 125 -127 76 -33 232 -33 338 -1 133 41 290
137 330 204 40 64 18 147 -57 219 -45 43 -192 122 -315 169 -49 19 -88 39 -88
44 1 21 159 139 230 172 132 60 145 68 148 87 2 10 -2 22 -10 27 -16 11 -320
9 -404 -2z m276 -33 c0 -3 -27 -19 -60 -37 -33 -18 -95 -62 -137 -98 -117
-102 -104 -96 -176 -76 -98 27 -195 83 -182 104 20 33 145 75 286 95 90 13
269 21 269 12z m-98 -375 c217 -105 268 -150 268 -238 0 -35 -6 -48 -35 -78
-45 -44 -198 -118 -293 -141 -138 -32 -277 -6 -332 63 -19 24 -21 37 -17 90 7
95 64 205 177 341 44 54 47 53 232 -37z"/>
<path d="M23272 14778 c-7 -7 -12 -16 -12 -21 0 -5 32 -38 70 -74 39 -36 70
-69 70 -73 0 -5 -26 -23 -58 -40 -69 -36 -157 -111 -176 -149 -16 -29 -6 -61
19 -61 7 0 30 20 51 45 36 44 174 145 197 145 7 0 37 -29 69 -63 112 -125 228
-204 228 -156 0 7 -52 61 -115 122 -63 60 -115 113 -115 117 0 4 35 22 78 39
91 38 184 91 190 110 7 22 -58 6 -183 -45 -61 -24 -118 -44 -127 -44 -9 0 -27
19 -41 43 -47 79 -119 131 -145 105z"/>
<path d="M28473 14697 c-44 -16 -60 -34 -46 -48 8 -8 25 -8 63 1 71 17 150 8
195 -23 46 -31 56 -46 90 -131 25 -63 27 -77 22 -156 -4 -70 -11 -98 -34 -140
-92 -173 -272 -271 -471 -257 -88 7 -166 41 -202 89 -21 28 -25 44 -25 108 0
66 4 83 35 140 50 95 141 182 237 228 68 32 87 37 153 37 78 0 100 7 100 30 0
41 -111 48 -211 15 -173 -58 -317 -207 -370 -384 -33 -110 -10 -199 69 -259
100 -76 306 -89 453 -28 137 57 233 141 287 251 24 49 26 66 27 165 0 96 -4
120 -28 186 -36 97 -81 152 -144 173 -54 18 -153 20 -200 3z"/>
<path d="M2230 14684 c-56 -11 -131 -40 -247 -95 -93 -45 -136 -72 -187 -119
-74 -70 -86 -93 -60 -121 25 -28 40 -24 73 24 48 69 90 102 202 159 124 64
193 88 254 90 116 2 99 -46 -148 -417 -185 -278 -224 -365 -203 -449 9 -37 58
-59 121 -54 123 10 461 218 355 218 -11 0 -59 -22 -108 -50 -109 -62 -190 -90
-259 -90 l-53 0 0 33 c0 57 46 136 282 482 95 140 133 209 144 264 7 33 -20
97 -46 111 -23 12 -88 19 -120 14z"/>
<path d="M6433 14645 c-94 -47 -182 -186 -220 -346 -22 -94 -25 -385 -4 -469
41 -169 86 -248 169 -301 32 -20 59 -29 88 -29 50 0 91 28 81 55 -6 14 -15 16
-47 11 -135 -21 -232 150 -247 436 -14 255 60 492 180 579 39 28 45 30 104 23
54 -5 64 -4 69 11 10 26 -19 47 -73 52 -38 3 -59 -1 -100 -22z"/>
<path d="M7059 14594 c-88 -27 -140 -71 -181 -154 -64 -128 -73 -178 -72 -405
1 -208 16 -322 61 -455 15 -47 22 -55 46 -58 35 -4 35 13 3 99 -28 76 -70 239
-63 246 3 3 48 -15 99 -40 188 -89 498 -137 498 -77 0 16 -34 26 -146 43 -56
9 -146 30 -200 48 -101 32 -200 76 -191 85 3 3 31 12 64 20 143 37 275 129
324 224 27 54 38 194 20 266 -19 74 -52 135 -85 155 -37 23 -110 24 -177 3z
m139 -59 c68 -57 97 -230 55 -325 -26 -58 -94 -120 -180 -163 -75 -38 -210
-80 -226 -70 -13 8 -1 202 18 291 30 145 71 219 138 253 90 47 151 51 195 14z"/>
<path d="M14287 14529 c-86 -20 -145 -67 -131 -103 7 -18 40 -21 50 -5 12 20
88 47 151 54 116 13 268 -52 316 -137 60 -103 72 -240 29 -325 -42 -82 -173
-177 -308 -223 -73 -25 -192 -27 -241 -4 -19 9 -46 33 -61 52 -23 30 -27 45
-27 102 0 58 5 77 39 143 55 110 96 153 181 192 71 32 90 51 79 79 -11 28 -37
26 -106 -6 -87 -40 -149 -105 -207 -221 -76 -149 -68 -271 23 -355 52 -48 96
-62 196 -62 94 0 131 10 249 67 159 78 256 197 268 330 6 69 -21 179 -61 247
-80 137 -273 214 -439 175z"/>
<path d="M2908 14519 c-21 -12 -24 -49 -6 -67 7 -7 31 -12 54 -12 33 0 44 4
49 19 8 27 -4 51 -32 62 -30 11 -43 11 -65 -2z"/>
<path d="M5798 14511 c-63 -25 -166 -99 -216 -156 -50 -57 -99 -157 -120 -245
l-15 -67 -66 -34 c-95 -49 -141 -93 -141 -135 0 -41 27 -61 55 -40 11 8 16 20
12 29 -3 9 3 27 15 42 19 24 86 65 107 65 6 0 10 -46 10 -114 1 -219 58 -443
102 -399 6 6 6 19 0 36 -21 54 -41 207 -48 354 l-6 152 29 12 c68 26 221 59
393 83 186 27 227 38 215 58 -5 8 -45 9 -128 5 -145 -8 -281 -30 -394 -64 -46
-13 -86 -23 -88 -20 -9 9 17 90 49 157 38 79 122 164 205 208 67 36 96 39 149
17 62 -26 93 -14 71 27 -24 47 -110 60 -190 29z"/>
<path d="M9910 14491 c-46 -9 -60 -18 -60 -40 0 -9 -14 -30 -30 -46 -86 -83
-130 -211 -130 -380 0 -140 18 -196 84 -261 41 -42 64 -56 120 -73 211 -65
431 39 508 242 30 79 28 189 -5 261 -53 114 -137 190 -274 245 -43 18 -90 38
-105 46 -28 16 -51 17 -108 6z m111 -77 c29 -9 88 -33 129 -54 276 -139 288
-466 22 -588 -161 -74 -377 -10 -413 122 -19 68 -6 269 21 338 25 64 74 126
133 169 47 34 39 33 108 13z"/>
<path d="M7751 14445 c-24 -8 -57 -11 -73 -8 -36 7 -90 -33 -117 -85 -32 -64
-55 -189 -55 -307 -1 -177 40 -277 134 -326 41 -21 138 -16 190 11 151 77 244
223 257 406 7 99 -8 166 -50 230 -55 83 -170 115 -286 79z m167 -59 c76 -40
112 -112 112 -223 0 -123 -30 -202 -108 -285 -70 -75 -124 -103 -199 -103
-122 0 -158 63 -156 275 2 178 22 252 79 292 76 53 212 75 272 44z"/>
<path d="M4975 14410 c-12 -4 -26 -14 -32 -21 -33 -42 -10 -143 32 -137 20 3
23 18 14 77 -3 21 2 26 35 36 22 6 42 17 44 24 9 27 -48 40 -93 21z"/>
<path d="M12690 14351 c-5 -11 -10 -76 -10 -145 l0 -126 -27 -6 c-56 -12 -68
-17 -85 -32 -22 -19 -23 -51 -3 -59 9 -3 36 0 61 7 24 7 47 10 50 8 3 -3 -2
-59 -11 -123 -11 -81 -13 -121 -6 -128 20 -20 38 13 50 91 7 42 15 97 19 122
l8 45 79 -3 c64 -3 83 -7 97 -23 17 -20 53 -26 63 -9 10 16 40 12 57 -7 9 -11
18 -49 23 -93 11 -120 45 -162 133 -163 88 -1 142 63 142 168 0 65 -9 86 -59
138 -61 64 -206 96 -284 63 -27 -11 -53 -11 -139 -2 -59 6 -109 13 -112 16 -3
3 -1 64 5 134 8 105 8 131 -3 137 -21 14 -37 10 -48 -10z m507 -356 c19 -8 41
-30 58 -59 24 -40 25 -50 16 -79 -12 -36 -43 -70 -75 -81 -46 -16 -86 49 -86
139 0 22 -6 52 -14 67 -8 15 -12 29 -9 32 7 7 73 -5 110 -19z"/>
<path d="M22152 14288 c-23 -29 -54 -114 -78 -213 -14 -58 -32 -124 -40 -147
-19 -56 -18 -78 5 -78 29 0 38 17 71 140 16 63 46 146 65 183 37 73 42 96 23
115 -15 15 -33 15 -46 0z"/>
<path d="M8538 14270 c-132 -24 -208 -61 -208 -102 0 -24 40 -24 105 1 82 31
154 42 331 49 144 6 169 9 172 23 2 9 -5 20 -15 24 -25 12 -328 15 -385 5z"/>
<path d="M9166 14245 c-83 -17 -116 -37 -116 -70 0 -34 29 -39 97 -16 66 22
225 41 352 40 96 0 117 10 75 38 -24 15 -51 18 -184 20 -100 1 -179 -3 -224
-12z"/>
<path d="M24630 14143 c-19 -1 -359 -4 -755 -6 -583 -4 -752 -8 -890 -21 -115
-12 -206 -15 -281 -11 -95 5 -112 4 -124 -10 -11 -14 -11 -19 4 -33 25 -25
242 -28 427 -6 124 15 257 18 959 21 448 2 821 5 828 8 16 6 15 30 -2 44 -14
12 -95 18 -166 14z"/>
<path d="M11735 14123 c-12 -12 -15 -26 -11 -52 7 -42 -38 -492 -60 -596 -17
-84 -84 -226 -117 -248 -13 -9 -39 -17 -58 -19 -40 -4 -51 -31 -19 -48 59 -32
148 31 200 141 41 89 64 204 94 477 29 258 32 332 14 350 -16 16 -23 15 -43
-5z"/>
<path d="M11388 14115 c-61 -20 -149 -100 -182 -167 -30 -60 -36 -160 -12
-206 30 -57 62 -76 136 -80 58 -4 77 0 127 22 75 35 110 68 139 134 13 29 24
55 24 57 0 16 -28 -2 -81 -51 -74 -68 -135 -97 -206 -98 -67 -1 -93 22 -100
88 -11 92 85 231 177 256 33 9 52 8 101 -6 60 -17 90 -11 74 15 -23 39 -128
57 -197 36z"/>
<path d="M8378 14095 c-19 -42 1 -53 95 -53 45 0 105 -5 132 -12 90 -21 223
-40 239 -34 24 9 19 43 -6 54 -49 21 -315 70 -380 70 -63 0 -69 -2 -80 -25z"/>
<path d="M12077 14062 c-37 -41 -5 -88 42 -63 28 15 97 14 129 -3 78 -41 113
-126 73 -178 -26 -33 -121 -81 -152 -76 -56 8 -54 89 2 140 52 48 20 101 -40
68 -49 -26 -86 -159 -59 -210 7 -13 29 -35 48 -48 28 -19 43 -23 78 -18 87 12
182 84 204 157 9 32 8 46 -6 83 -20 52 -88 119 -149 147 -56 25 -148 26 -170
1z"/>
<path d="M15021 14064 c-15 -11 -21 -24 -19 -42 2 -22 9 -28 35 -30 24 -2 34
2 43 18 23 43 -20 81 -59 54z"/>
<path d="M2926 14044 c-34 -33 -5 -84 49 -84 26 0 27 2 22 36 -10 60 -39 80
-71 48z"/>
<path d="M5054 14039 c-14 -23 -5 -273 16 -435 11 -87 20 -191 20 -231 0 -80
6 -103 26 -103 30 0 37 40 29 169 -4 69 -11 150 -17 181 -5 30 -13 138 -16
240 -7 179 -8 185 -29 188 -11 2 -25 -2 -29 -9z"/>
<path d="M9073 14012 c-20 -20 -16 -40 13 -58 22 -15 46 -16 205 -11 99 4 200
12 225 18 45 12 74 41 53 55 -6 3 -117 7 -247 8 -183 1 -238 -2 -249 -12z"/>
<path d="M14723 13754 c-3 -10 -1 -30 5 -47 10 -26 6 -40 -48 -146 -33 -64
-70 -132 -82 -152 -24 -39 -19 -69 11 -69 18 0 52 47 133 185 87 147 93 174
53 218 -29 30 -62 35 -72 11z"/>
</g>
</svg>
