<?xml version="1.0" standalone="no"?>
<!DOCTYPE svg PUBLIC "-//W3C//DTD SVG 20010904//EN"
 "http://www.w3.org/TR/2001/REC-SVG-20010904/DTD/svg10.dtd">
<svg version="1.0" xmlns="http://www.w3.org/2000/svg"
 width="2448.000000pt" height="3264.000000pt" viewBox="0 0 2448.000000 3264.000000"
 preserveAspectRatio="xMidYMid meet">
<metadata>
Created by potrace 1.12, written by Peter Selinger 2001-2015
</metadata>
<g transform="translate(0.000000,3264.000000) scale(0.100000,-0.100000)"
fill="#000000" stroke="none">
<path d="M18935 31420 c-3 -5 -2 -10 4 -10 5 0 13 5 16 10 3 6 2 10 -4 10 -5
0 -13 -4 -16 -10z"/>
<path d="M18978 31423 c7 -3 16 -2 19 1 4 3 -2 6 -13 5 -11 0 -14 -3 -6 -6z"/>
<path d="M18735 31304 c-37 -32 -44 -34 -87 -28 -39 5 -48 3 -48 -9 0 -9 5
-19 11 -23 6 -3 9 -17 6 -30 -3 -17 0 -24 12 -24 36 0 61 13 61 31 0 13 7 19
23 19 18 0 28 11 45 47 12 26 20 48 19 49 -1 1 -20 -13 -42 -32z"/>
<path d="M11943 31243 c-24 -9 -13 -23 16 -23 34 0 49 15 25 24 -18 7 -23 7
-41 -1z"/>
<path d="M12045 31239 c-11 -16 1 -22 30 -15 14 4 23 11 20 16 -8 13 -42 13
-50 -1z"/>
<path d="M12212 31238 c5 -15 28 -18 29 -3 0 6 -7 12 -17 13 -10 3 -15 -1 -12
-10z"/>
<path d="M12855 31240 c-3 -5 1 -10 10 -10 9 0 13 5 10 10 -3 6 -8 10 -10 10
-2 0 -7 -4 -10 -10z"/>
<path d="M11830 31230 c0 -5 15 -10 34 -10 19 0 38 5 41 10 4 6 -10 10 -34 10
-23 0 -41 -4 -41 -10z"/>
<path d="M12140 31230 c0 -5 7 -10 15 -10 8 0 15 5 15 10 0 6 -7 10 -15 10 -8
0 -15 -4 -15 -10z"/>
<path d="M12280 31230 c0 -5 45 -9 105 -9 65 0 103 4 100 9 -4 6 -51 10 -106
10 -56 0 -99 -4 -99 -10z"/>
<path d="M12965 31230 c-28 -7 -27 -8 13 -9 27 -1 41 3 37 9 -7 11 -7 11 -50
0z"/>
<path d="M13172 31231 c-11 -7 -11 -9 2 -14 20 -8 48 2 40 14 -7 11 -25 11
-42 0z"/>
<path d="M13371 31231 c-11 -7 -10 -10 5 -14 36 -9 123 -7 129 3 4 6 -6 10
-22 10 -15 0 -44 3 -63 5 -19 3 -41 2 -49 -4z"/>
<path d="M13650 31232 c-31 -11 0 -19 70 -20 44 0 80 3 80 9 0 5 -6 10 -12 10
-35 3 -129 4 -138 1z"/>
<path d="M13952 31228 c6 -18 28 -21 28 -4 0 9 -7 16 -16 16 -9 0 -14 -5 -12
-12z"/>
<path d="M14320 31230 c0 -6 7 -10 15 -10 8 0 15 2 15 4 0 2 -7 6 -15 10 -8 3
-15 1 -15 -4z"/>
<path d="M15471 31231 c-7 -5 -22 -6 -32 -4 -11 3 -19 0 -19 -6 0 -7 6 -11 13
-10 6 1 20 -1 30 -5 22 -11 47 -1 47 19 0 17 -17 19 -39 6z"/>
<path d="M15908 31233 c-14 -2 -32 -11 -38 -19 -10 -11 -8 -14 13 -14 36 0 79
18 72 30 -3 5 -9 9 -13 9 -4 -1 -19 -4 -34 -6z"/>
<path d="M16025 31230 c-3 -5 -1 -10 4 -10 6 0 11 5 11 10 0 6 -2 10 -4 10 -3
0 -8 -4 -11 -10z"/>
<path d="M21511 31221 c-21 -13 -20 -14 12 -31 26 -14 57 -18 157 -18 69 0
136 5 149 9 15 6 28 6 37 -2 14 -12 44 -6 44 8 0 5 -20 19 -44 33 -32 17 -48
21 -58 13 -20 -15 -74 -23 -85 -12 -16 16 -188 16 -212 0z"/>
<path d="M13070 31220 c20 -13 47 -13 55 0 4 6 -9 10 -32 10 -28 0 -34 -3 -23
-10z"/>
<path d="M13238 31223 c6 -2 18 -2 25 0 6 3 1 5 -13 5 -14 0 -19 -2 -12 -5z"/>
<path d="M13547 31219 c7 -7 21 -7 44 -1 l34 10 -44 1 c-32 1 -42 -2 -34 -10z"/>
<path d="M13858 31223 c7 -3 16 -2 19 1 4 3 -2 6 -13 5 -11 0 -14 -3 -6 -6z"/>
<path d="M14050 31220 c20 -13 53 -13 45 0 -3 6 -18 10 -33 10 -21 0 -24 -2
-12 -10z"/>
<path d="M14165 31220 c3 -5 10 -10 16 -10 5 0 9 5 9 10 0 6 -7 10 -16 10 -8
0 -12 -4 -9 -10z"/>
<path d="M14435 31220 c-3 -5 1 -10 9 -10 9 0 16 5 16 10 0 6 -4 10 -9 10 -6
0 -13 -4 -16 -10z"/>
<path d="M14575 31220 c-3 -5 1 -10 10 -10 9 0 13 5 10 10 -3 6 -8 10 -10 10
-2 0 -7 -4 -10 -10z"/>
<path d="M14806 31221 c-3 -5 1 -11 9 -15 15 -6 29 7 18 18 -9 9 -21 8 -27 -3z"/>
<path d="M15263 31223 c-22 -8 -14 -23 12 -23 14 0 25 4 25 9 0 11 -21 19 -37
14z"/>
<path d="M15565 31219 c-10 -15 1 -23 20 -15 9 3 13 10 10 16 -8 13 -22 13
-30 -1z"/>
<path d="M15635 31220 c-8 -13 15 -24 27 -12 6 6 4 11 -6 15 -8 3 -18 2 -21
-3z"/>
<path d="M15780 31220 c0 -5 12 -10 26 -10 14 0 23 4 19 10 -3 6 -15 10 -26
10 -10 0 -19 -4 -19 -10z"/>
<path d="M15970 31220 c0 -5 9 -10 21 -10 11 0 17 5 14 10 -3 6 -13 10 -21 10
-8 0 -14 -4 -14 -10z"/>
<path d="M16187 31224 c-15 -15 -6 -25 26 -24 17 0 52 -2 77 -4 58 -4 121 4
114 15 -3 5 -33 8 -67 7 -34 0 -80 2 -102 6 -22 4 -44 4 -48 0z"/>
<path d="M16448 31223 c-10 -2 -18 -9 -18 -14 0 -10 -1 -10 63 -13 54 -2 66
18 16 28 -33 6 -34 6 -61 -1z"/>
<path d="M16750 31215 c-16 -20 -10 -26 18 -18 12 3 22 12 22 19 0 19 -24 18
-40 -1z"/>
<path d="M17510 31220 c-16 -10 -12 -12 42 -24 36 -8 46 11 13 24 -32 12 -36
12 -55 0z"/>
<path d="M20440 31220 c-8 -5 -24 -10 -36 -10 -33 0 -89 -31 -73 -41 7 -4 20
-4 28 0 9 5 22 6 29 4 15 -6 74 16 84 31 15 22 -7 32 -32 16z"/>
<path d="M20710 31212 c0 -12 4 -23 8 -26 5 -3 75 -8 158 -11 121 -5 153 -4
168 8 39 29 9 37 -147 36 -84 0 -160 3 -169 6 -14 5 -18 2 -18 -13z"/>
<path d="M14733 31213 c9 -2 23 -2 30 0 6 3 -1 5 -18 5 -16 0 -22 -2 -12 -5z"/>
<path d="M14918 31213 c7 -3 16 -2 19 1 4 3 -2 6 -13 5 -11 0 -14 -3 -6 -6z"/>
<path d="M15210 31209 c0 -5 5 -7 10 -4 6 3 10 8 10 11 0 2 -4 4 -10 4 -5 0
-10 -5 -10 -11z"/>
<path d="M15335 31210 c-16 -7 -13 -9 18 -9 20 -1 37 4 37 9 0 12 -27 12 -55
0z"/>
<path d="M16065 31210 c3 -5 12 -10 20 -10 8 0 17 5 20 10 4 6 -5 10 -20 10
-15 0 -24 -4 -20 -10z"/>
<path d="M16665 31210 c3 -5 16 -10 28 -9 21 0 21 1 2 9 -28 12 -37 12 -30 0z"/>
<path d="M16820 31210 c0 -5 5 -10 10 -10 6 0 10 5 10 10 0 6 -4 10 -10 10 -5
0 -10 -4 -10 -10z"/>
<path d="M16935 31210 c-3 -5 3 -10 15 -10 12 0 18 5 15 10 -3 6 -10 10 -15
10 -5 0 -12 -4 -15 -10z"/>
<path d="M17015 31211 c-16 -6 -9 -10 32 -15 32 -5 59 -4 70 3 17 10 16 10 -3
11 -12 0 -34 2 -50 5 -16 2 -38 1 -49 -4z"/>
<path d="M17271 31206 c-9 -11 -6 -15 13 -18 36 -7 54 7 28 21 -26 14 -27 14
-41 -3z"/>
<path d="M17376 31211 c-8 -12 1 -17 37 -19 15 -1 27 3 27 8 0 6 -6 10 -14 10
-8 0 -21 3 -29 6 -8 3 -18 1 -21 -5z"/>
<path d="M17715 31204 c8 -9 22 -13 31 -10 22 8 7 26 -22 26 -23 0 -24 -1 -9
-16z"/>
<path d="M17900 31213 c-8 -2 -22 -7 -30 -9 -25 -8 11 -24 40 -18 52 11 56 14
40 24 -16 10 -27 11 -50 3z"/>
<path d="M18155 31210 c-3 -5 -1 -10 4 -10 6 0 11 5 11 10 0 6 -2 10 -4 10 -3
0 -8 -4 -11 -10z"/>
<path d="M20218 31206 c-24 -18 -23 -36 2 -36 11 0 20 7 20 15 0 8 7 15 15 15
8 0 15 5 15 10 0 14 -32 12 -52 -4z"/>
<path d="M20620 31205 c0 -9 5 -15 11 -13 6 2 11 8 11 13 0 5 -5 11 -11 13 -6
2 -11 -4 -11 -13z"/>
<path d="M21122 31203 c-4 -6 -14 -11 -22 -10 -8 1 -16 -2 -18 -6 -3 -11 318
-16 324 -5 3 4 -11 16 -31 25 -31 15 -42 15 -81 5 -32 -9 -50 -9 -59 -2 -16
13 -105 9 -113 -7z"/>
<path d="M17982 31199 c2 -7 10 -15 17 -17 8 -3 12 1 9 9 -2 7 -10 15 -17 17
-8 3 -12 -1 -9 -9z"/>
<path d="M18244 31195 c-16 -12 -17 -14 -2 -15 25 0 49 11 42 21 -7 13 -17 11
-40 -6z"/>
<path d="M18702 31199 c2 -6 8 -10 13 -10 5 0 11 4 13 10 2 6 -4 11 -13 11 -9
0 -15 -5 -13 -11z"/>
<path d="M19091 31201 c-77 -9 -76 -27 1 -33 91 -8 220 2 215 16 -2 6 -29 11
-63 12 -32 0 -68 3 -79 6 -11 3 -44 2 -74 -1z"/>
<path d="M20496 31203 c-15 -16 -2 -22 44 -21 30 1 49 6 47 12 -4 11 -81 19
-91 9z"/>
<path d="M22125 31199 c-10 -15 1 -23 20 -15 9 3 13 10 10 16 -8 13 -22 13
-30 -1z"/>
<path d="M18940 31191 c0 -10 24 -21 43 -21 7 0 3 7 -7 15 -22 17 -36 19 -36
6z"/>
<path d="M19325 31189 c-4 -6 -5 -12 -2 -15 7 -7 37 7 37 17 0 13 -27 11 -35
-2z"/>
<path d="M19448 31193 c-58 -6 -45 -23 17 -23 53 0 72 11 39 24 -9 3 -16 5
-17 4 -1 -1 -19 -3 -39 -5z"/>
<path d="M21440 31185 c-10 -12 -10 -15 4 -15 9 0 16 7 16 15 0 8 -2 15 -4 15
-2 0 -9 -7 -16 -15z"/>
<path d="M21965 31190 c-3 -5 -1 -10 4 -10 6 0 11 5 11 10 0 6 -2 10 -4 10 -3
0 -8 -4 -11 -10z"/>
<path d="M19560 31180 c0 -5 15 -10 33 -10 24 0 28 3 17 10 -20 13 -50 13 -50
0z"/>
<path d="M19644 31179 c-3 -5 32 -9 78 -8 95 1 93 5 -5 12 -37 3 -70 1 -73 -4z"/>
<path d="M8405 30921 c-34 -6 -27 -8 45 -13 47 -3 89 -2 95 3 5 5 -8 9 -32 9
-23 0 -47 2 -55 4 -7 1 -31 0 -53 -3z"/>
<path d="M8873 30923 c-35 -2 -63 -8 -63 -14 0 -6 45 -9 120 -8 66 2 120 6
120 11 0 4 -20 8 -44 8 -24 0 -50 1 -58 3 -7 2 -41 1 -75 0z"/>
<path d="M7928 30913 c7 -3 16 -2 19 1 4 3 -2 6 -13 5 -11 0 -14 -3 -6 -6z"/>
<path d="M8053 30913 c15 -2 39 -2 55 0 15 2 2 4 -28 4 -30 0 -43 -2 -27 -4z"/>
<path d="M8235 30910 c4 -6 11 -8 16 -5 14 9 11 15 -7 15 -8 0 -12 -5 -9 -10z"/>
<path d="M8285 30910 c3 -5 10 -10 16 -10 5 0 9 5 9 10 0 6 -7 10 -16 10 -8 0
-12 -4 -9 -10z"/>
<path d="M8645 30910 c28 -12 63 -12 70 0 4 6 -12 10 -42 9 -36 0 -43 -3 -28
-9z"/>
<path d="M8735 30910 c3 -5 15 -10 26 -10 10 0 19 5 19 10 0 6 -12 10 -26 10
-14 0 -23 -4 -19 -10z"/>
<path d="M9074 30911 c7 -11 134 -12 141 -1 4 6 -24 10 -70 10 -42 0 -74 -4
-71 -9z"/>
<path d="M9230 30910 c0 -13 70 -13 90 0 11 7 0 10 -37 10 -29 0 -53 -4 -53
-10z"/>
<path d="M9355 30912 c7 -7 408 -12 1225 -16 668 -3 1433 -8 1700 -11 267 -3
906 -7 1420 -10 514 -3 1079 -7 1255 -10 176 -3 671 -7 1100 -10 429 -3 989
-7 1245 -10 256 -3 780 -8 1165 -11 385 -3 826 -7 980 -9 234 -4 2200 -8 2303
-6 17 1 32 6 32 11 0 7 -37 10 -97 10 -54 -1 -357 1 -673 4 -316 3 -894 8
-1285 11 -390 3 -867 7 -1060 10 -192 3 -674 7 -1070 10 -396 3 -830 7 -965
10 -135 3 -670 8 -1190 11 -520 3 -1003 8 -1075 9 -71 2 -1230 7 -2575 11
-1685 4 -2442 3 -2435 -4z"/>
<path d="M22013 30843 c-27 -5 -30 -19 -5 -27 21 -7 141 -1 149 8 4 3 -2 6
-13 7 -10 0 -28 2 -39 4 -53 10 -72 11 -92 8z"/>
<path d="M21800 30829 c0 -5 27 -10 60 -11 33 -1 70 -2 82 -2 12 -1 23 5 25
11 3 9 -17 12 -81 12 -47 0 -86 -5 -86 -10z"/>
<path d="M22216 30831 c-4 -5 -2 -12 3 -15 5 -4 12 -2 15 3 4 5 2 12 -3 15 -5
4 -12 2 -15 -3z"/>
<path d="M22296 30831 c-3 -5 0 -11 7 -13 20 -8 87 3 81 13 -7 12 -81 12 -88
0z"/>
<path d="M22648 30828 c-21 -5 -21 -6 7 -9 102 -8 165 -4 165 11 0 9 -139 8
-172 -2z"/>
<path d="M23150 30830 c0 -7 24 -20 36 -20 13 0 1 19 -16 23 -11 3 -20 2 -20
-3z"/>
<path d="M23450 30830 c0 -5 5 -10 10 -10 6 0 10 5 10 10 0 6 -4 10 -10 10 -5
0 -10 -4 -10 -10z"/>
<path d="M22448 30823 c6 -2 18 -2 25 0 6 3 1 5 -13 5 -14 0 -19 -2 -12 -5z"/>
<path d="M22888 30823 c7 -3 16 -2 19 1 4 3 -2 6 -13 5 -11 0 -14 -3 -6 -6z"/>
<path d="M6057 30494 c-4 -5 -581 -12 -1582 -19 -357 -2 -965 -7 -1350 -10
-385 -3 -884 -5 -1110 -5 -225 1 -421 2 -435 2 -14 0 -144 0 -290 0 -314 1
-482 -2 -493 -9 -24 -14 19 -20 159 -22 86 -1 161 -4 165 -7 5 -3 18 0 30 6
17 10 25 8 43 -9 26 -24 37 -26 54 -8 10 9 323 12 1490 14 812 0 2310 2 3327
3 1921 2 5574 -7 6270 -15 220 -3 870 -7 1445 -10 575 -3 1236 -7 1470 -10
234 -3 749 -7 1145 -10 682 -5 1210 -10 2030 -20 198 -2 693 -7 1100 -10 407
-4 746 -8 753 -11 8 -2 620 -7 1360 -10 818 -4 1352 -10 1359 -16 7 -6 26 -5
50 1 23 6 290 13 668 17 347 4 659 7 695 8 63 1 65 2 68 28 l3 26 -1588 0
c-873 0 -1745 3 -1938 6 -382 6 -983 13 -1905 21 -327 3 -761 7 -965 10 -203
3 -730 7 -1170 10 -440 3 -847 8 -905 10 -58 2 -618 7 -1245 10 -627 3 -1295
8 -1485 10 -190 3 -1886 7 -3770 11 -1884 3 -3430 7 -3437 9 -6 2 -13 2 -16
-1z"/>
<path d="M38 30462 c-23 -2 -38 -8 -38 -16 0 -10 25 -12 100 -11 88 1 123 7
109 19 -6 6 -130 12 -171 8z"/>
<path d="M243 30457 c-3 -5 -2 -11 2 -15 7 -8 444 -12 493 -4 20 3 30 8 24 14
-11 11 -512 16 -519 5z"/>
<path d="M14715 29991 c-3 -5 -1 -12 4 -15 13 -8 42 4 35 15 -7 12 -31 12 -39
0z"/>
<path d="M18285 29960 c-3 -5 -1 -10 4 -10 6 0 11 5 11 10 0 6 -2 10 -4 10 -3
0 -8 -4 -11 -10z"/>
<path d="M14777 29843 c-12 -11 -8 -23 8 -23 8 0 15 7 15 15 0 16 -12 20 -23
8z"/>
<path d="M18170 29805 c-10 -12 -10 -15 3 -15 8 0 20 7 27 15 10 12 10 15 -3
15 -8 0 -20 -7 -27 -15z"/>
<path d="M18115 29700 c-3 -5 1 -10 9 -10 9 0 16 5 16 10 0 6 -4 10 -9 10 -6
0 -13 -4 -16 -10z"/>
<path d="M8577 29628 c-54 -32 -64 -88 -15 -88 25 0 23 -11 -39 -180 -40 -108
-52 -131 -91 -167 -41 -39 -44 -44 -38 -80 10 -61 9 -64 -28 -146 -67 -144
-71 -202 -15 -202 21 0 25 6 29 46 7 58 89 279 104 279 7 0 36 -25 66 -56 83
-86 211 -189 249 -202 19 -7 58 -12 87 -12 47 0 54 3 54 19 0 20 -8 24 -70 36
-73 15 -124 54 -268 208 -60 64 -71 81 -61 93 15 18 113 47 253 75 111 21 156
40 156 64 0 35 -88 30 -269 -16 -63 -16 -117 -27 -119 -24 -3 2 19 64 48 137
64 158 73 231 30 236 -14 1 -42 -8 -63 -20z"/>
<path d="M18135 29620 c-3 -5 3 -10 14 -10 12 0 21 5 21 10 0 6 -6 10 -14 10
-8 0 -18 -4 -21 -10z"/>
<path d="M9517 29602 c-9 -10 -34 -83 -54 -162 l-38 -144 -95 -39 c-52 -21
-101 -43 -107 -49 -18 -15 -16 -42 5 -61 17 -15 22 -14 72 13 51 27 90 38 90
24 0 -3 -9 -37 -21 -75 -23 -76 -20 -123 8 -117 12 2 25 33 45 103 16 55 35
109 42 120 9 13 56 34 127 59 63 21 151 58 197 82 46 24 89 44 97 44 32 0 21
-38 -119 -413 -40 -110 -45 -156 -18 -180 37 -33 86 -14 153 61 41 45 129 167
129 177 0 25 133 195 152 195 21 0 6 -106 -28 -202 -60 -171 -61 -176 -41
-195 13 -14 21 -15 35 -7 29 19 99 230 117 356 16 109 -19 156 -89 123 -48
-23 -97 -80 -192 -223 -77 -115 -148 -202 -165 -202 -18 0 -8 45 35 153 63
160 126 353 126 385 0 71 -46 68 -226 -13 -146 -65 -243 -99 -253 -89 -6 6 40
147 66 201 31 66 -7 123 -50 75z"/>
<path d="M8077 29588 c-11 -8 -28 -60 -48 -143 -16 -71 -48 -203 -69 -292 -55
-222 -54 -324 0 -353 26 -14 52 0 79 44 31 50 28 60 -19 52 -40 -6 -40 -6 -40
27 0 34 105 466 134 550 21 62 21 113 0 121 -20 8 -17 8 -37 -6z"/>
<path d="M2137 29493 c-2 -5 -4 -53 -5 -108 -1 -55 -8 -170 -17 -255 -8 -85
-18 -227 -22 -315 -7 -181 3 -222 59 -251 37 -19 63 -13 147 33 177 100 269
227 226 316 -23 49 -71 71 -135 62 -66 -9 -125 -50 -184 -129 -28 -36 -53 -66
-58 -66 -12 0 -11 14 22 307 33 290 37 382 18 401 -13 13 -45 16 -51 5z m321
-595 c33 -33 -2 -97 -93 -171 -105 -85 -197 -120 -212 -81 -3 9 -2 22 3 29 5
8 30 44 56 83 49 73 94 117 143 138 38 17 87 18 103 2z"/>
<path d="M6041 29412 c-5 -10 -17 -75 -26 -143 -8 -68 -22 -160 -29 -204 -28
-158 -28 -179 -6 -203 12 -12 27 -22 35 -22 47 0 175 97 262 199 90 105 146
161 161 161 11 0 13 -23 7 -127 -11 -206 15 -296 95 -338 42 -22 68 -19 126
14 73 42 149 131 229 266 39 65 89 144 113 174 45 58 48 74 15 79 -33 5 -89
-61 -176 -207 -98 -164 -191 -251 -269 -251 -61 0 -76 62 -68 265 8 175 4 199
-32 203 -44 5 -81 -22 -204 -153 -119 -127 -192 -185 -233 -185 -17 0 -20 5
-17 23 47 225 80 432 73 451 -9 22 -44 20 -56 -2z"/>
<path d="M3909 29380 c-138 -29 -182 -57 -159 -101 15 -27 82 -27 101 1 30 44
269 67 339 32 28 -14 36 -24 38 -51 6 -56 -56 -167 -147 -263 -148 -158 -176
-210 -147 -267 26 -49 47 -54 175 -48 189 9 528 84 553 121 22 32 -19 34 -153
7 -164 -33 -336 -53 -423 -50 -46 2 -87 7 -91 11 -14 14 9 49 95 143 109 119
154 183 180 257 56 159 -1 228 -185 227 -49 -1 -129 -9 -176 -19z"/>
<path d="M835 29303 c-14 -31 -47 -95 -74 -142 -86 -150 -161 -372 -161 -473
1 -47 32 -111 67 -136 17 -12 66 -31 109 -43 108 -30 332 -33 447 -6 83 20
129 49 108 70 -8 8 -36 6 -102 -7 -199 -40 -485 -2 -554 74 -13 15 -18 34 -16
72 1 51 23 153 40 193 5 11 17 40 26 65 9 25 49 104 88 175 92 166 96 176 85
198 -16 31 -38 18 -63 -40z"/>
<path d="M10690 29273 c-45 -37 -101 -126 -125 -196 -10 -31 -22 -57 -26 -57
-4 0 -9 16 -11 36 -3 43 -30 66 -50 46 -8 -8 -16 -54 -20 -115 -3 -56 -14
-122 -23 -147 -19 -53 -13 -86 16 -95 42 -14 88 57 134 210 35 115 66 185 94
209 11 11 23 17 26 15 2 -3 0 -49 -5 -103 -16 -167 9 -278 78 -349 77 -80 154
-96 242 -52 62 31 101 78 168 201 129 238 139 279 95 359 -47 84 -103 70 -69
-18 9 -24 16 -53 16 -65 0 -34 -149 -319 -193 -368 -64 -73 -141 -77 -211 -11
-50 47 -62 98 -58 252 8 304 10 270 -19 273 -17 2 -38 -7 -59 -25z"/>
<path d="M7446 29234 c-9 -8 -21 -24 -26 -35 -6 -11 -21 -19 -36 -19 -49 0
-207 -95 -238 -142 -30 -47 -30 -75 1 -106 46 -47 80 -35 180 61 54 52 84 75
87 66 3 -8 6 -51 8 -96 3 -87 16 -116 70 -156 35 -26 91 -16 131 24 26 27 28
32 15 45 -12 12 -22 13 -60 3 -59 -16 -75 -9 -89 43 -13 50 -6 215 12 266 18
51 -19 83 -55 46z m-125 -178 c-6 -7 -33 -25 -61 -40 -40 -22 -50 -24 -50 -12
0 14 61 61 100 77 19 8 26 -7 11 -25z"/>
<path d="M1414 29045 c-70 -27 -149 -80 -180 -122 -69 -94 -92 -185 -54 -223
46 -46 122 -16 223 89 38 39 73 71 78 71 5 0 9 -18 9 -41 0 -44 11 -72 43
-106 27 -30 86 -31 111 -4 27 29 15 45 -32 46 -23 1 -47 6 -54 13 -14 14 -16
92 -4 175 l8 58 54 -7 54 -6 0 29 c0 40 -31 53 -123 53 -51 -1 -90 -8 -133
-25z m61 -92 c-33 -61 -126 -154 -179 -179 -85 -40 -98 -12 -37 83 43 67 117
126 176 140 54 13 64 2 40 -44z"/>
<path d="M1847 27367 c-17 -14 -29 -217 -28 -488 2 -376 97 -709 203 -709 32
0 104 55 143 109 17 23 43 59 59 79 60 78 160 301 248 552 68 193 133 315 202
381 32 30 34 59 4 59 -28 0 -54 -21 -100 -80 -59 -74 -92 -143 -193 -400 -115
-290 -168 -400 -244 -505 -61 -86 -99 -119 -123 -110 -8 3 -28 31 -43 62 -85
174 -110 484 -71 873 7 69 9 135 5 147 -11 30 -42 46 -62 30z"/>
<path d="M4821 27176 c-21 -25 -112 -318 -137 -440 -13 -66 -26 -121 -28 -123
-2 -2 -20 6 -40 18 -20 12 -60 23 -93 26 -103 9 -178 -52 -224 -182 -30 -83
-39 -254 -15 -290 56 -85 236 -76 413 21 155 85 263 173 263 215 0 30 -24 23
-76 -24 -118 -104 -134 -109 -135 -39 0 26 -9 79 -20 117 -11 39 -20 82 -20
97 1 61 138 466 177 523 17 24 18 67 2 83 -16 16 -53 15 -67 -2z m-243 -610
c54 -28 61 -44 60 -146 0 -52 5 -108 11 -123 6 -16 11 -32 11 -37 0 -17 -131
-50 -200 -50 -60 0 -73 3 -100 27 -30 25 -32 30 -27 72 12 96 47 184 92 228
36 37 48 43 84 43 23 0 54 -6 69 -14z"/>
<path d="M9911 26911 c-120 -130 -239 -458 -201 -556 14 -37 26 -45 68 -45 25
0 45 11 85 47 88 80 95 85 105 79 7 -4 5 -25 -4 -59 -17 -65 -17 -88 -1 -112
20 -26 61 -13 87 30 23 37 20 55 -10 55 -17 0 -17 3 -3 57 21 81 6 153 -32
153 -7 0 -48 -32 -91 -71 -81 -73 -128 -104 -144 -94 -48 29 58 281 174 417
36 43 66 84 66 91 0 17 -32 47 -50 47 -7 0 -29 -18 -49 -39z"/>
<path d="M3047 26886 c-159 -57 -308 -230 -338 -393 -20 -108 33 -262 112
-325 79 -64 282 -57 390 13 55 35 72 58 59 79 -7 11 -19 9 -68 -13 -97 -44
-194 -62 -257 -48 -134 30 -195 163 -151 329 20 73 54 128 123 193 72 69 128
99 198 106 48 5 56 3 80 -21 44 -44 16 -94 -101 -182 -84 -63 -171 -103 -224
-104 -41 0 -60 -15 -60 -46 0 -39 22 -47 90 -33 109 21 303 155 356 244 78
134 -49 257 -209 201z"/>
<path d="M10237 26872 c-22 -24 -22 -68 -1 -76 24 -9 69 16 72 40 3 23 -21 54
-42 54 -7 0 -20 -8 -29 -18z"/>
<path d="M5217 26808 c-3 -20 0 -38 8 -47 17 -17 60 -7 69 15 9 25 -20 64 -48
64 -19 0 -25 -6 -29 -32z"/>
<path d="M3955 26729 c-38 -22 -68 -55 -133 -149 -89 -129 -154 -210 -169
-210 -7 0 -13 4 -13 9 0 20 65 210 86 253 13 26 24 54 24 61 0 23 -28 40 -54
33 -22 -5 -30 -21 -61 -117 -52 -161 -67 -234 -59 -286 3 -24 13 -50 20 -58
21 -21 69 0 102 42 15 20 52 66 82 104 30 37 75 100 100 140 47 76 84 109 101
92 5 -5 13 -110 18 -234 9 -261 17 -289 76 -289 22 0 43 8 55 20 26 26 18 41
-19 34 -21 -5 -30 -1 -37 13 -4 10 -11 125 -14 255 -5 220 -6 239 -26 265 -23
31 -49 38 -79 22z"/>
<path d="M5189 26651 c-34 -34 -36 -47 -10 -61 16 -8 18 -15 11 -37 -17 -61
-72 -188 -91 -211 -31 -40 -22 -80 15 -66 42 16 149 236 163 331 10 75 -35 97
-88 44z"/>
<path d="M6439 26646 c-54 -14 -87 -37 -155 -108 -91 -94 -134 -171 -158 -280
-5 -20 -1 -33 15 -49 42 -42 136 -6 239 91 71 67 96 84 116 76 48 -19 -43
-402 -144 -606 l-37 -75 -70 0 -69 0 -9 38 c-13 52 -40 47 -47 -8 l-5 -40
-160 -6 c-312 -12 -868 -45 -1170 -69 -66 -5 -160 -12 -210 -15 -49 -3 -142
-10 -205 -15 -201 -17 -798 -59 -1000 -70 -372 -20 -556 -31 -775 -45 -121 -7
-314 -17 -430 -21 -115 -3 -220 -10 -232 -15 -28 -10 -40 -47 -20 -66 12 -13
36 -13 168 -4 85 6 226 15 314 21 88 5 266 17 395 25 129 8 393 24 585 35 193
11 438 27 545 35 998 76 1455 107 1800 125 107 6 240 13 296 16 l100 7 12 -40
c7 -23 19 -46 27 -53 25 -20 71 -1 126 52 l53 51 375 15 c479 19 1782 21 2146
4 143 -7 321 -15 395 -17 424 -17 1192 -69 1610 -110 85 -8 288 -26 450 -40
162 -14 335 -30 383 -36 97 -12 117 -6 117 37 0 40 12 38 -415 69 -115 8 -289
22 -385 30 -802 69 -907 77 -1230 95 -776 42 -1398 58 -2070 54 -316 -2 -618
-6 -670 -8 -52 -3 -176 -7 -275 -11 -99 -3 -224 -8 -277 -12 -115 -7 -115 -7
-68 87 116 229 188 545 147 643 -28 65 -77 48 -212 -73 -38 -34 -84 -69 -102
-76 -34 -15 -63 -10 -63 11 0 24 78 131 131 179 75 68 107 86 155 86 45 0 64
14 64 46 0 41 -38 56 -101 40z m-189 -1029 c0 -21 -39 -40 -56 -26 -26 21 -16
39 21 39 21 0 35 -5 35 -13z"/>
<path d="M5752 26596 c-33 -30 -65 -78 -101 -148 -30 -57 -58 -109 -63 -115
-18 -22 -28 -3 -26 46 2 52 -13 81 -42 81 -37 0 -43 -25 -36 -137 9 -121 18
-153 44 -153 32 0 77 63 153 213 24 49 61 108 81 130 52 59 60 43 52 -99 -7
-130 -2 -154 32 -154 13 0 24 3 24 8 1 4 3 73 6 154 5 155 -3 197 -41 212 -28
10 -34 7 -83 -38z"/>
<path d="M10250 26559 c-7 -12 -9 -37 -5 -59 9 -52 -8 -106 -55 -179 -23 -35
-40 -70 -38 -79 6 -30 29 -23 69 20 83 90 131 238 95 293 -20 30 -51 33 -66 4z"/>
<path d="M11167 26555 c-106 -29 -196 -114 -238 -223 -25 -68 -21 -119 16
-200 l25 -55 -37 6 c-53 8 -118 80 -139 154 -16 55 -16 83 2 233 5 45 3 58
-10 69 -28 23 -91 -3 -148 -60 -36 -36 -57 -49 -78 -49 -37 0 -39 -5 -50 -92
-5 -47 -21 -102 -44 -153 -42 -94 -43 -101 -15 -115 37 -20 69 29 139 216 32
85 92 164 125 164 11 0 15 -5 11 -15 -16 -41 -17 -144 -2 -213 18 -89 55 -146
118 -185 40 -25 62 -31 135 -36 81 -5 93 -9 153 -47 188 -118 384 -175 620
-177 98 -1 109 1 152 26 43 25 68 60 54 75 -4 3 -28 -2 -54 -10 -81 -28 -107
-30 -244 -13 -89 11 -165 28 -228 50 -106 36 -252 105 -257 121 -2 6 16 19 39
30 94 42 196 143 252 248 62 117 5 218 -141 252 -70 16 -93 16 -156 -1z m196
-97 c59 -33 68 -70 32 -136 -63 -117 -182 -211 -286 -228 -33 -6 -38 -3 -67
34 -75 95 -70 182 17 275 76 82 211 106 304 55z"/>
<path d="M9328 26541 c-31 -10 -69 -28 -85 -39 -62 -44 -123 -212 -106 -293 8
-39 48 -77 90 -85 61 -11 157 2 219 30 69 32 94 52 94 78 0 24 -19 23 -113 -7
-84 -27 -139 -31 -184 -14 -51 19 -56 58 -17 137 37 75 70 99 150 107 57 7 67
11 77 32 10 22 8 28 -16 49 -33 28 -35 28 -109 5z"/>
<path d="M7612 26543 c-32 -13 -119 -251 -128 -354 -8 -84 1 -99 62 -99 39 0
49 6 108 60 60 56 106 120 170 233 43 76 49 63 42 -90 -6 -113 -5 -142 7 -157
35 -48 132 -8 250 103 l58 55 23 -29 c16 -20 28 -26 40 -22 15 6 16 15 10 64
-17 137 -36 144 -119 47 -31 -37 -74 -81 -95 -99 -42 -35 -97 -61 -107 -51 -4
3 -5 50 -3 104 5 143 3 182 -15 208 -33 50 -76 21 -131 -88 -39 -77 -122 -188
-174 -232 -41 -34 -66 -31 -63 9 4 47 51 167 88 224 39 59 44 95 16 111 -11 5
-21 10 -23 9 -2 0 -9 -3 -16 -6z"/>
<path d="M8656 26510 c-41 -13 -92 -50 -111 -83 -9 -16 -18 -51 -19 -79 -1
-41 3 -53 23 -69 43 -35 109 -22 289 58 11 5 13 -7 7 -59 -8 -77 4 -111 38
-106 19 3 22 9 20 48 -2 29 7 67 22 107 29 71 31 96 10 113 -13 11 -22 10 -51
-3 -47 -23 -51 -22 -59 13 -13 60 -84 85 -169 60z m98 -99 c12 -23 13 -31 3
-39 -36 -28 -149 -43 -162 -22 -18 29 57 90 112 90 26 0 36 -6 47 -29z"/>
<path d="M3185 24736 c-5 -3 -55 -19 -109 -36 -108 -35 -213 -83 -265 -121
-40 -29 -61 -67 -61 -110 0 -81 158 -157 550 -265 293 -80 350 -102 408 -157
40 -38 40 -63 3 -113 -63 -86 -153 -149 -374 -264 -150 -78 -231 -104 -293
-94 -34 5 -42 3 -48 -12 -22 -57 117 -68 247 -20 97 36 361 182 437 242 87 68
129 129 130 187 0 43 -17 82 -52 114 -40 37 -186 99 -328 137 -74 21 -205 60
-290 88 -239 77 -326 127 -313 178 14 52 210 144 378 176 87 18 90 17 168 -3
89 -24 107 -22 107 13 0 44 -41 59 -170 61 -63 1 -119 1 -125 -1z"/>
<path d="M5370 24715 c-9 -11 -11 -36 -6 -87 4 -40 4 -123 0 -186 l-7 -113
-46 -22 c-52 -25 -66 -58 -31 -77 11 -6 27 -10 34 -8 20 4 20 2 7 -77 -11 -62
-11 -71 4 -81 37 -27 44 -13 76 136 l14 65 125 0 124 0 12 -41 c18 -62 38 -95
86 -140 61 -58 97 -81 172 -109 135 -51 275 -43 341 20 32 30 35 37 35 91 0
33 -9 92 -20 133 -33 123 -28 144 48 224 39 39 45 50 36 65 -6 9 -24 18 -39
20 -22 3 -37 -6 -75 -47 -77 -82 -85 -147 -39 -298 11 -36 19 -76 17 -91 -6
-53 -103 -76 -224 -53 -158 30 -274 118 -274 208 0 28 2 29 91 45 105 19 161
50 186 103 21 44 8 73 -47 104 -97 55 -236 -6 -286 -126 l-14 -33 -100 -2
c-55 -1 -108 -2 -117 -2 -22 -1 -23 35 -3 221 13 125 13 133 -5 153 -21 24
-57 26 -75 5z m564 -271 c30 -11 16 -32 -36 -58 -68 -32 -138 -45 -138 -24 0
18 35 51 75 72 31 16 72 20 99 10z"/>
<path d="M9695 24705 c-22 -8 -61 -15 -86 -15 -57 0 -138 -50 -216 -133 -124
-131 -158 -312 -85 -459 75 -153 218 -217 387 -173 143 38 304 162 360 280 24
50 29 73 29 135 0 130 -81 287 -177 343 -57 34 -155 44 -212 22z m150 -64 c62
-29 103 -79 132 -162 49 -141 27 -251 -74 -359 -140 -151 -348 -182 -462 -69
-67 67 -86 118 -86 229 1 82 4 103 28 155 27 59 84 127 140 167 l28 20 -7 -26
c-5 -21 -3 -26 14 -26 11 0 25 7 32 14 6 8 30 16 53 18 34 2 43 7 45 25 5 36
92 44 157 14z"/>
<path d="M3845 24690 c-4 -6 7 -63 23 -128 17 -64 35 -169 42 -232 l11 -114
-36 -31 c-42 -35 -40 -57 7 -81 28 -15 29 -17 24 -67 -17 -160 -17 -188 -6
-202 18 -21 37 -18 51 7 6 11 14 84 18 160 7 151 7 151 71 167 93 23 339 71
364 71 25 0 27 -3 21 -22 -21 -66 -34 -147 -29 -173 29 -139 148 -201 271
-140 70 35 125 98 175 200 23 47 47 84 53 82 10 -4 16 -26 34 -136 12 -73 33
-111 61 -111 26 0 26 37 1 169 -11 55 -23 132 -27 172 -7 76 -26 109 -64 109
-21 0 -40 -27 -40 -58 0 -80 -107 -266 -191 -332 -52 -41 -111 -60 -138 -43
-50 31 -74 119 -51 188 21 65 63 102 143 126 97 29 102 32 102 65 0 27 -3 29
-41 32 -29 2 -63 -7 -120 -31 -68 -30 -94 -36 -189 -41 -121 -7 -179 -16 -303
-48 -66 -17 -85 -19 -92 -9 -4 7 -10 65 -13 129 -5 122 -29 257 -53 305 -11
20 -22 27 -44 27 -16 0 -32 -5 -35 -10z"/>
<path d="M11230 24658 c0 -16 19 -38 33 -38 4 0 7 10 5 22 -3 25 -38 39 -38
16z"/>
<path d="M12325 24636 c-78 -18 -278 -89 -310 -110 -14 -9 -25 -26 -25 -37 0
-30 51 -76 99 -89 60 -16 295 -107 355 -137 140 -70 206 -143 206 -227 0 -52
-68 -117 -185 -177 -103 -53 -287 -119 -333 -119 -39 0 -68 -26 -51 -46 19
-23 107 -17 208 16 192 62 393 187 436 271 34 65 -1 167 -84 241 -59 53 -211
129 -396 197 -159 59 -174 66 -160 80 13 12 191 66 270 82 110 21 237 -6 313
-68 38 -31 46 -34 68 -24 42 19 42 41 0 77 -80 69 -273 102 -411 70z"/>
<path d="M14232 24437 c-6 -7 -13 -66 -17 -132 -3 -66 -10 -176 -16 -245 -22
-284 -22 -297 -9 -305 7 -4 19 -1 27 8 26 25 68 243 93 472 17 160 16 186 -5
201 -24 18 -59 18 -73 1z"/>
<path d="M15273 24414 c-56 -28 -83 -62 -83 -105 0 -21 5 -41 11 -44 6 -4 34
18 63 49 87 94 118 79 231 -111 50 -85 76 -140 81 -171 4 -26 15 -67 25 -90
11 -24 16 -50 12 -57 -16 -26 -144 -135 -183 -155 -84 -43 -178 -17 -217 60
-27 52 -29 111 -8 193 20 78 48 130 111 209 30 37 54 74 54 82 0 20 -36 39
-59 31 -46 -14 -168 -196 -191 -284 -18 -67 -15 -189 5 -239 38 -93 171 -158
272 -133 68 17 173 82 243 150 65 63 68 73 45 147 -8 27 -17 65 -20 86 -10 62
-124 256 -199 337 -55 59 -129 77 -193 45z"/>
<path d="M6677 24403 c-4 -3 -7 -37 -7 -73 0 -71 14 -98 45 -86 33 12 53 138
25 156 -17 11 -54 13 -63 3z"/>
<path d="M6651 24196 c-21 -26 11 -76 49 -76 5 0 14 9 20 21 23 42 -39 92 -69
55z"/>
<path d="M17645 24173 c-111 -25 -180 -65 -190 -113 -9 -41 17 -89 119 -220
110 -140 146 -194 167 -250 18 -47 18 -48 -4 -91 -32 -63 -64 -82 -149 -88
-59 -5 -73 -9 -76 -24 -3 -12 8 -22 35 -34 70 -29 206 15 267 88 65 77 1 231
-185 444 -75 87 -103 138 -90 164 15 27 54 49 107 61 39 9 50 8 64 -5 12 -11
51 -20 112 -26 184 -18 265 -28 392 -49 132 -22 164 -18 137 14 -17 21 -87 39
-280 75 -90 17 -186 38 -214 46 -47 14 -166 19 -212 8z"/>
<path d="M16862 24133 c-5 -10 -13 -45 -16 -78 -4 -33 -30 -179 -57 -324 -28
-145 -48 -270 -45 -277 6 -16 25 -18 45 -5 7 5 24 51 37 102 13 52 41 159 63
239 75 276 81 318 55 344 -21 22 -71 21 -82 -1z"/>
<path d="M19955 24116 c-124 -24 -292 -92 -324 -130 -17 -20 -7 -46 18 -46 11
0 59 20 108 44 48 25 117 52 153 62 80 20 271 25 277 7 3 -7 -73 -90 -167
-185 -226 -227 -281 -294 -288 -353 -5 -52 5 -69 56 -91 77 -32 215 -10 462
72 116 40 150 57 150 79 0 21 -13 19 -130 -16 -125 -37 -242 -65 -332 -79 -79
-12 -138 4 -138 38 0 23 73 105 293 329 153 156 158 163 155 199 -5 57 -39 77
-140 80 -46 2 -114 -3 -153 -10z"/>
<path d="M22135 23910 c-141 -32 -206 -71 -189 -114 12 -30 43 -28 101 8 69
41 197 76 282 76 79 0 79 -13 -1 -82 -177 -153 -228 -201 -265 -249 -53 -69
-60 -97 -33 -131 40 -51 109 -48 370 17 232 58 300 83 300 111 0 25 -23 25
-120 0 -134 -35 -357 -83 -410 -90 -25 -3 -52 -1 -60 4 -23 14 20 64 191 218
86 78 159 148 163 157 26 70 -16 95 -156 94 -51 0 -129 -9 -173 -19z"/>
<path d="M22987 23875 c-27 -7 -71 -16 -98 -20 -45 -6 -79 -31 -79 -56 0 -4
21 -30 48 -57 34 -36 80 -65 172 -111 134 -68 183 -100 200 -132 27 -49 -98
-173 -207 -205 -38 -11 -72 -14 -112 -9 -48 5 -61 4 -76 -11 -16 -17 -16 -18
0 -30 25 -19 98 -28 166 -20 114 11 247 93 290 177 25 49 24 76 -4 120 -40 65
-85 93 -310 193 -36 15 -57 31 -55 38 7 20 54 39 136 54 101 18 318 4 570 -38
149 -25 185 -28 197 -18 21 18 12 24 -75 50 -255 76 -626 113 -763 75z"/>
<path d="M20840 23868 c-19 -5 -41 -15 -49 -21 -8 -7 -38 -12 -67 -12 -44 -1
-60 -6 -91 -31 -50 -40 -85 -110 -85 -171 0 -44 4 -51 42 -85 55 -49 119 -62
270 -55 191 10 360 60 409 123 26 33 26 45 2 92 -59 116 -288 201 -431 160z
m235 -79 c35 -14 77 -41 104 -66 42 -40 43 -43 29 -65 -26 -38 -100 -69 -220
-90 -254 -44 -403 3 -358 113 19 44 63 73 165 108 106 37 182 37 280 0z"/>
<path d="M10582 23833 c-28 -11 -74 -139 -107 -302 -19 -91 -35 -181 -35 -199
0 -29 3 -33 22 -30 19 3 27 20 55 118 19 63 43 144 53 180 11 36 35 91 55 124
19 32 35 67 35 77 0 29 -43 46 -78 32z"/>
<path d="M12977 23746 c-11 -11 -14 -61 -13 -256 1 -220 3 -244 19 -254 29
-19 52 4 53 55 1 24 10 133 19 241 20 217 18 228 -36 228 -15 0 -34 -6 -42
-14z"/>
<path d="M16203 23618 c-27 -31 -111 -231 -168 -403 -26 -77 -65 -178 -87
-224 -42 -88 -41 -109 5 -97 27 6 67 80 113 206 35 98 177 394 209 436 30 39
32 65 7 87 -26 23 -55 21 -79 -5z"/>
<path d="M9003 23615 c-7 -20 31 -209 59 -290 87 -255 323 -484 616 -597 327
-127 720 -151 1702 -103 312 15 619 27 1185 45 176 5 466 15 645 21 407 14
1746 20 1940 8 458 -27 723 -100 930 -256 160 -120 323 -348 436 -611 118
-273 176 -280 384 -47 343 384 751 604 1285 692 89 15 163 18 390 17 389 -1
619 -26 1005 -108 366 -77 880 -172 1121 -205 415 -58 880 -49 1479 30 392 51
751 145 939 245 118 62 189 116 337 251 167 152 205 182 262 202 39 14 47 21
47 41 0 20 -6 26 -29 28 -15 2 -38 1 -50 -2 -34 -8 -138 -92 -271 -215 -277
-259 -500 -358 -1025 -455 -543 -100 -1212 -132 -1620 -77 -266 36 -740 122
-1135 206 -413 88 -736 125 -1079 125 -388 0 -728 -77 -1061 -240 -253 -124
-420 -249 -625 -469 -150 -161 -201 -190 -235 -137 -9 13 -30 59 -46 102 -82
214 -282 509 -433 637 -218 187 -447 263 -911 301 -65 5 -316 13 -675 21 -215
5 -584 -2 -1380 -24 -509 -15 -995 -30 -1125 -36 -60 -3 -245 -10 -410 -15
-165 -6 -388 -15 -495 -20 -483 -25 -988 -10 -1215 36 -313 63 -583 231 -738
459 -64 95 -105 199 -124 319 -8 56 -19 109 -25 119 -11 21 -47 22 -55 2z"/>
<path d="M18763 23603 c-10 -10 -52 -102 -92 -203 -40 -102 -88 -215 -106
-252 -47 -95 -49 -105 -27 -117 29 -15 61 14 99 90 17 35 61 124 97 196 36 73
77 151 91 173 25 39 32 84 17 107 -14 22 -59 26 -79 6z"/>
<path d="M21512 23433 c-11 -10 -36 -49 -56 -88 -66 -134 -146 -308 -146 -321
0 -20 44 -17 62 4 8 9 39 63 69 120 30 56 77 132 106 169 56 69 66 105 34 123
-28 14 -46 13 -69 -7z"/>
<path d="M17190 21734 c-103 -20 -239 -87 -362 -179 -189 -142 -271 -294 -220
-408 30 -67 83 -101 198 -128 85 -19 113 -21 252 -16 366 14 518 99 442 246
-26 52 -83 95 -160 121 -124 42 -311 15 -461 -66 -62 -34 -104 -81 -89 -99 8
-10 33 -1 115 40 57 29 133 58 167 66 137 30 265 8 332 -57 48 -46 56 -81 27
-106 -53 -42 -249 -78 -426 -78 -182 0 -275 29 -322 100 -30 43 -29 74 3 138
73 146 352 343 510 359 60 6 62 4 38 -52 -12 -30 -13 -40 -3 -46 48 -29 119
114 74 151 -16 13 -77 21 -115 14z"/>
<path d="M3068 21342 c-31 -29 -31 -29 -18 -75 8 -32 18 -47 29 -47 25 0 41
20 41 52 0 22 8 33 35 49 50 30 46 49 -10 49 -35 0 -52 -6 -77 -28z"/>
<path d="M14067 21278 c-18 -13 -96 -198 -147 -348 -105 -307 -154 -670 -91
-670 16 0 19 12 26 93 3 50 13 123 21 162 42 202 148 501 236 667 35 65 39 79
28 92 -15 19 -50 21 -73 4z"/>
<path d="M6444 21245 c-19 -30 -44 -125 -44 -172 0 -26 -5 -34 -22 -37 -13 -3
-47 -10 -76 -16 -98 -19 -172 -73 -172 -126 0 -44 18 -76 42 -72 18 2 24 12
29 41 3 20 8 39 10 41 48 39 89 56 138 56 l54 0 -7 -82 c-4 -46 -14 -138 -23
-206 -14 -107 -14 -125 -2 -138 12 -11 18 -12 31 -2 20 16 45 158 54 311 4 60
12 111 18 115 6 4 54 9 106 12 80 4 95 8 98 22 5 24 -35 39 -128 47 l-75 6 0
60 c0 33 3 82 5 109 6 57 -10 71 -36 31z"/>
<path d="M10616 21257 c-28 -20 -17 -52 18 -52 36 0 56 26 37 49 -16 19 -31
20 -55 3z"/>
<path d="M12180 21147 c-58 -29 -130 -228 -235 -642 -43 -172 -51 -212 -40
-224 25 -26 50 -3 84 79 18 44 47 101 64 127 30 44 142 142 152 132 2 -3 -9
-31 -25 -63 -54 -106 -34 -198 51 -244 37 -20 54 -23 109 -19 36 3 81 10 100
16 56 17 185 94 188 114 5 26 -29 22 -127 -17 -110 -44 -166 -53 -213 -33 -72
30 -86 104 -36 185 30 49 139 135 222 176 86 41 104 59 86 81 -18 22 -50 18
-116 -14 -32 -16 -103 -49 -156 -74 -111 -52 -177 -95 -230 -149 -20 -21 -39
-38 -41 -38 -8 0 60 221 106 345 22 61 57 137 78 169 22 33 39 66 39 73 0 22
-34 33 -60 20z"/>
<path d="M11112 21118 c-7 -7 -12 -19 -12 -27 0 -28 41 -100 61 -106 51 -17
67 62 23 114 -27 33 -52 39 -72 19z"/>
<path d="M13145 21086 c-144 -46 -239 -163 -266 -328 -43 -258 136 -439 420
-426 59 3 118 12 152 24 79 28 169 84 169 106 0 26 -24 22 -120 -19 -83 -37
-87 -38 -210 -38 -123 0 -126 1 -195 35 -54 27 -77 46 -101 81 -57 85 -66 215
-23 316 29 68 43 56 35 -34 -21 -267 -21 -249 8 -268 111 -73 386 160 404 343
8 92 -35 179 -105 208 -40 17 -114 17 -168 0z m164 -65 c27 -27 43 -93 35
-139 -22 -124 -181 -292 -275 -292 -21 0 -21 3 -15 58 4 31 11 111 15 177 10
134 20 168 52 186 65 34 159 39 188 10z"/>
<path d="M3954 20926 c-33 -15 -70 -58 -130 -154 -90 -145 -133 -197 -149
-181 -3 4 -10 66 -15 139 -5 74 -14 138 -19 143 -5 5 -19 7 -32 5 -22 -3 -24
-8 -23 -53 0 -67 24 -264 35 -292 5 -13 20 -28 34 -35 40 -18 68 10 175 170
104 156 135 192 161 192 29 0 102 -92 138 -176 44 -102 88 -166 109 -162 21 4
27 34 13 62 -6 11 -20 45 -31 74 -25 66 -84 176 -117 221 -24 31 -76 61 -105
61 -7 -1 -27 -7 -44 -14z"/>
<path d="M5482 20918 c-6 -7 -24 -48 -41 -91 -35 -89 -42 -196 -16 -246 40
-79 193 -94 322 -31 84 41 206 126 254 177 100 106 91 156 -13 68 -166 -140
-290 -205 -395 -205 -55 0 -67 4 -95 29 -29 26 -33 35 -31 78 0 26 15 83 31
126 17 43 28 85 25 93 -6 17 -27 18 -41 2z"/>
<path d="M6995 20915 c-124 -34 -171 -73 -161 -135 8 -53 49 -83 147 -109 207
-54 385 -120 403 -150 11 -17 -4 -36 -57 -72 -70 -48 -177 -89 -232 -89 -52 0
-68 -19 -40 -50 25 -28 63 -32 127 -15 142 37 288 140 288 204 0 46 -13 64
-68 99 -68 44 -179 88 -310 123 -194 52 -216 69 -139 103 32 15 72 20 177 24
153 5 176 16 130 62 -17 17 -33 20 -117 19 -54 0 -120 -6 -148 -14z"/>
<path d="M8223 20914 c-8 -3 -13 -24 -13 -50 0 -36 3 -44 18 -44 27 0 64 44
60 72 -3 23 -36 34 -65 22z"/>
<path d="M10286 20888 c-9 -12 -16 -36 -16 -53 0 -16 -7 -79 -15 -140 -19
-143 -29 -368 -18 -425 7 -38 12 -45 34 -48 47 -5 118 73 257 286 72 110 113
162 130 162 6 0 12 -3 12 -7 1 -44 40 -452 45 -465 8 -21 43 -34 57 -20 6 6 6
37 -1 88 -5 44 -13 133 -16 199 -9 168 -22 275 -36 291 -39 47 -109 -23 -287
-286 -39 -58 -85 -119 -102 -135 l-30 -29 -1 55 c-3 152 6 253 47 507 6 40 5
42 -19 42 -15 0 -32 -9 -41 -22z"/>
<path d="M4941 20878 c-47 -23 -93 -84 -111 -148 -23 -79 -31 -199 -31 -459 0
-283 3 -301 42 -301 34 0 37 28 27 264 -5 125 -7 231 -4 234 3 2 11 0 18 -5
44 -35 162 -19 276 37 107 54 137 94 129 174 -7 68 -28 108 -80 157 -75 69
-182 88 -266 47z m177 -72 c55 -35 102 -100 102 -142 0 -24 -8 -39 -31 -59
-70 -58 -202 -103 -266 -90 -21 5 -44 7 -50 6 -36 -6 5 209 48 256 64 69 121
78 197 29z"/>
<path d="M11548 20856 c-42 -15 -150 -91 -190 -132 -15 -16 -39 -55 -54 -88
-22 -49 -26 -68 -22 -120 8 -89 38 -143 95 -168 96 -42 287 -9 408 71 45 30
58 61 26 61 -11 0 -54 -13 -96 -30 -215 -85 -365 -50 -365 87 0 54 26 106 77
155 35 34 133 88 160 88 12 0 43 38 43 52 0 9 -29 38 -38 38 -4 -1 -24 -7 -44
-14z"/>
<path d="M3184 20825 c-4 -8 -1 -58 5 -109 14 -118 14 -301 0 -385 -8 -54 -7
-67 5 -79 44 -44 67 78 68 359 1 169 -1 191 -17 209 -21 24 -53 26 -61 5z"/>
<path d="M16167 20809 c-9 -5 -26 -27 -36 -47 -36 -71 -119 -318 -156 -469
-21 -84 -42 -153 -46 -153 -4 0 -32 31 -63 69 -117 142 -201 203 -287 204 -59
1 -107 -33 -138 -96 -30 -62 -29 -185 2 -246 34 -65 78 -85 200 -89 84 -3 110
0 182 22 l85 26 20 -20 c38 -38 55 -21 64 70 7 69 88 352 139 485 16 43 43
100 58 125 49 78 54 90 42 108 -12 21 -42 26 -66 11z m-522 -488 c23 -10 82
-60 133 -112 85 -87 111 -123 99 -135 -13 -14 -178 -35 -226 -29 -117 12 -155
51 -155 155 0 120 55 164 149 121z"/>
<path d="M11085 20776 c-17 -12 -19 -27 -16 -162 2 -157 13 -199 49 -192 14 3
17 16 19 68 1 36 7 111 14 168 9 80 8 106 -1 117 -16 19 -41 19 -65 1z"/>
<path d="M22518 20679 c-10 -5 -18 -18 -18 -27 0 -10 -4 -22 -9 -27 -5 -6 -46
-83 -90 -172 -45 -89 -85 -164 -90 -168 -5 -3 -33 -10 -62 -15 -85 -16 -158
-74 -143 -114 10 -25 53 -19 91 14 18 17 43 30 54 30 18 0 19 -2 4 -30 -42
-81 6 -97 61 -20 20 28 44 55 54 60 10 6 63 10 118 10 l100 0 4 -88 c3 -72 8
-94 27 -120 44 -63 175 -108 268 -93 74 11 112 39 168 119 28 40 66 83 85 97
45 32 150 58 336 85 143 20 214 42 222 67 7 23 -39 23 -243 -2 -314 -39 -370
-63 -461 -203 -69 -103 -101 -122 -179 -102 -117 30 -159 71 -159 158 0 74 10
81 129 87 193 10 225 21 225 79 0 66 -77 110 -189 108 -71 -2 -147 -39 -190
-92 l-32 -40 -99 0 c-55 0 -100 2 -100 5 0 8 147 273 168 302 29 41 38 83 21
94 -19 12 -50 11 -71 -2z m391 -340 c35 -12 38 -21 15 -40 -11 -9 -53 -15
-123 -18 -100 -3 -105 -3 -91 14 38 46 134 67 199 44z"/>
<path d="M16599 20657 c-43 -29 -47 -51 -15 -72 25 -17 27 -16 81 19 58 39 62
45 43 64 -19 19 -72 14 -109 -11z"/>
<path d="M22320 20634 c-172 -51 -317 -137 -416 -247 -26 -29 -78 -95 -116
-147 -38 -52 -89 -122 -113 -154 -49 -65 -53 -77 -30 -96 31 -25 62 -2 136
102 153 217 208 283 292 352 51 41 172 103 275 140 88 31 132 53 132 66 0 17
-72 10 -160 -16z"/>
<path d="M19869 20496 c-66 -18 -129 -58 -193 -123 -75 -77 -118 -163 -114
-229 3 -43 7 -51 38 -72 31 -21 43 -23 100 -19 77 6 152 33 233 83 32 20 60
34 62 32 3 -2 -9 -38 -25 -80 -35 -91 -82 -266 -74 -279 16 -27 45 0 64 60 5
14 22 60 38 101 17 41 44 111 62 155 46 117 94 197 129 217 41 23 40 52 -4 94
-70 66 -202 91 -316 60z m214 -67 c12 -7 23 -13 25 -14 7 -6 -51 -91 -87 -128
-57 -61 -148 -118 -228 -144 -86 -27 -126 -29 -147 -7 -20 20 -20 37 0 77 71
140 203 226 347 227 38 0 78 -5 90 -11z"/>
<path d="M17093 20421 c-44 -20 -87 -72 -128 -151 -27 -53 -71 -108 -60 -75
11 34 7 176 -6 191 -13 15 -55 19 -63 5 -3 -4 -8 -92 -10 -194 -5 -181 -4
-186 15 -192 32 -10 72 36 128 144 58 112 100 173 137 197 39 26 46 6 38 -117
l-6 -106 27 -21 c33 -26 89 -29 140 -8 33 14 113 65 220 141 27 19 53 31 57
27 19 -19 20 -133 3 -226 -9 -52 -14 -100 -10 -106 9 -15 41 -12 55 4 40 49
54 289 20 363 -34 75 -70 70 -213 -33 -90 -65 -178 -114 -206 -114 -11 0 -13
16 -9 84 12 185 -23 235 -129 187z"/>
<path d="M16522 20413 c-27 -24 -132 -280 -132 -323 0 -20 23 -32 44 -24 8 3
24 29 36 57 12 29 41 86 64 127 23 41 48 90 56 109 13 32 12 35 -9 52 -29 23
-34 23 -59 2z"/>
<path d="M21420 20416 c-200 -76 -283 -164 -235 -252 23 -44 62 -58 136 -51
50 4 69 12 114 46 30 23 59 50 65 61 16 30 30 24 30 -12 1 -78 49 -75 62 3 20
116 21 154 5 168 -31 25 -59 8 -121 -72 -87 -112 -165 -157 -210 -124 -50 36
16 97 156 145 74 25 83 31 86 55 3 21 -2 29 -23 37 -14 5 -27 10 -28 10 -1 -1
-18 -7 -37 -14z"/>
<path d="M18119 20390 c-66 -35 -109 -101 -124 -191 -4 -24 -12 -51 -19 -61
-8 -13 -8 -23 1 -37 6 -10 17 -38 23 -61 19 -71 54 -115 112 -144 87 -42 198
-58 233 -32 16 12 17 16 6 30 -7 9 -26 16 -41 16 -50 0 -159 40 -194 71 -39
34 -56 84 -35 104 8 7 48 20 89 30 141 33 220 86 220 146 0 46 -42 113 -84
133 -47 22 -141 20 -187 -4z m181 -70 c49 -49 -1 -99 -134 -132 -47 -12 -89
-19 -92 -16 -13 13 18 86 48 115 46 43 67 52 116 53 29 0 48 -6 62 -20z"/>
<path d="M20488 20350 c-19 -15 -27 -35 -36 -89 -21 -127 -9 -195 44 -243 71
-62 246 -44 369 37 54 36 185 166 185 183 0 6 3 17 6 26 5 12 0 16 -18 16 -16
0 -52 -26 -109 -78 -104 -96 -138 -117 -219 -138 -152 -39 -222 33 -165 168
39 93 40 103 14 122 -30 21 -41 20 -71 -4z"/>
<path d="M8068 20329 c-11 -6 -18 -22 -18 -39 0 -67 70 -74 93 -8 12 33 -41
67 -75 47z"/>
<path d="M14418 20311 c-85 -54 -162 -183 -213 -356 -31 -104 -40 -240 -16
-240 9 0 23 36 42 110 57 227 125 345 235 410 26 16 46 35 50 50 15 61 -26 72
-98 26z"/>
<path d="M18684 19914 c-59 -63 -97 -131 -145 -257 -25 -68 -30 -90 -21 -99
22 -22 45 4 104 117 58 110 98 161 156 196 58 37 52 99 -11 99 -25 0 -42 -11
-83 -56z"/>
<path d="M10214 19845 c-15 -37 3 -160 30 -215 151 -300 548 -538 968 -580
216 -22 395 1 1213 155 324 62 545 85 815 85 247 0 388 -16 582 -66 344 -88
596 -201 775 -346 125 -101 201 -205 305 -416 34 -67 67 -127 74 -133 25 -21
59 0 112 69 108 143 217 227 415 323 199 95 471 163 761 190 243 23 686 -12
1110 -87 223 -40 338 -71 763 -208 468 -150 665 -179 1223 -180 376 0 498 8
728 45 353 58 810 205 1030 332 289 167 430 264 592 410 102 91 140 148 140
209 0 73 -53 69 -65 -4 -10 -57 -19 -73 -79 -136 -147 -156 -466 -367 -737
-488 -221 -99 -583 -211 -834 -258 -235 -43 -348 -51 -770 -51 -369 1 -427 3
-580 23 -218 30 -383 71 -720 182 -427 141 -682 198 -1127 251 -219 26 -593
36 -749 20 -503 -53 -925 -242 -1129 -506 -23 -30 -48 -55 -54 -55 -7 0 -35
44 -62 98 -110 218 -225 356 -389 468 -160 109 -320 184 -552 258 -290 93
-462 119 -773 119 -323 -1 -475 -19 -1030 -124 -450 -86 -618 -110 -805 -116
-198 -6 -299 7 -461 62 -205 68 -373 167 -497 292 -128 129 -158 184 -166 303
-6 78 -8 85 -29 88 -13 2 -25 -3 -28 -13z"/>
<path d="M6299 18128 c0 -2 -3 -111 -5 -243 -4 -250 2 -372 36 -690 11 -104
25 -298 30 -430 6 -132 17 -377 26 -545 8 -168 16 -336 17 -375 l2 -70 -65 2
c-283 8 -973 36 -1185 48 -143 8 -451 19 -685 25 -234 6 -578 15 -765 21 -187
6 -767 15 -1290 19 -678 5 -980 11 -1056 21 -58 7 -113 10 -122 6 -20 -8 -22
-40 -4 -55 25 -21 493 -34 1342 -38 468 -2 866 -5 885 -8 19 -2 253 -9 520
-15 608 -13 734 -18 1205 -41 601 -30 867 -41 1050 -43 l170 -2 7 -55 c4 -30
14 -152 23 -270 14 -190 27 -334 65 -740 5 -58 17 -206 25 -330 37 -542 126
-1353 219 -1995 57 -392 70 -545 96 -1120 11 -243 30 -521 56 -795 8 -91 19
-212 24 -270 5 -58 14 -148 20 -200 23 -223 51 -511 70 -735 21 -235 50 -530
90 -910 44 -420 69 -902 65 -1230 -4 -215 -16 -317 -65 -534 -12 -54 -20 -119
-18 -150 3 -48 6 -56 23 -56 17 0 21 9 26 50 3 28 22 129 42 225 60 288 65
434 36 1045 -13 278 -21 375 -78 935 -11 107 -27 274 -35 370 -24 258 -104
1129 -116 1245 -43 429 -64 707 -75 965 -23 575 -38 745 -110 1255 -35 246
-59 444 -124 1005 -22 194 -56 541 -65 665 -32 445 -39 532 -91 1125 -27 312
-39 490 -32 496 6 6 72 3 677 -31 140 -8 291 -17 335 -19 44 -3 118 -7 165
-10 218 -15 571 -27 955 -33 572 -8 607 -8 621 12 10 14 47 17 254 22 264 6
312 2 308 -25 -2 -13 8 -18 47 -24 28 -4 75 -11 105 -16 30 -6 111 -15 180
-22 69 -6 155 -16 192 -21 98 -13 128 -12 135 8 9 24 -40 63 -80 63 -25 0 -36
7 -48 29 -16 28 -20 29 -115 35 -55 3 -178 14 -274 24 -135 13 -233 16 -430
12 -451 -8 -1117 -5 -1420 8 -606 25 -957 43 -1035 54 -79 11 -521 17 -560 8
-19 -5 -20 2 -27 125 -13 267 -29 608 -38 850 -6 138 -22 372 -36 520 -23 240
-25 294 -18 485 9 257 7 339 -8 357 -8 11 -66 19 -69 11z"/>
<path d="M14650 18113 c-279 -16 -749 -127 -801 -189 -11 -14 -10 -19 10 -35
31 -25 38 -24 112 11 67 31 347 98 524 125 120 18 425 32 425 19 0 -14 -57
-49 -135 -84 -163 -74 -218 -103 -255 -139 -49 -46 -51 -73 -11 -128 43 -59
85 -88 191 -128 107 -41 121 -48 275 -120 116 -54 259 -140 290 -175 18 -20
18 -21 -28 -63 -53 -50 -188 -120 -341 -177 -188 -69 -628 -170 -745 -170 -51
0 -91 -15 -91 -34 0 -41 97 -47 270 -15 184 33 442 96 558 134 214 71 427 194
452 261 5 13 5 37 -1 59 -22 78 -236 209 -583 355 -82 35 -163 75 -179 90
l-30 27 34 25 c39 29 62 41 251 132 142 69 188 106 188 152 0 41 -37 55 -172
64 -68 5 -130 9 -138 8 -8 -1 -40 -3 -70 -5z"/>
<path d="M10412 18068 c6 -18 28 -21 28 -4 0 9 -7 16 -16 16 -9 0 -14 -5 -12
-12z"/>
<path d="M6820 17261 c-23 -44 -2 -298 61 -710 14 -95 17 -101 44 -101 18 0
30 17 66 86 60 119 135 199 203 219 128 37 285 -42 356 -179 38 -74 38 -97 -2
-131 -30 -26 -37 -27 -108 -23 -64 4 -90 11 -163 46 -96 47 -127 52 -127 23 0
-26 62 -74 147 -113 54 -26 84 -33 145 -36 87 -5 121 10 177 74 25 28 31 43
31 82 -1 86 -78 212 -166 271 -58 38 -160 71 -220 71 -105 0 -205 -69 -280
-192 -20 -32 -39 -58 -44 -58 -4 0 -11 39 -14 88 -4 48 -14 143 -22 212 -7 69
-14 179 -14 246 0 80 -4 124 -12 132 -18 18 -46 14 -58 -7z"/>
<path d="M1869 17222 c-27 -23 -20 -52 14 -52 29 0 62 33 54 55 -8 20 -40 19
-68 -3z"/>
<path d="M7952 17150 c-51 -36 -79 -85 -61 -106 24 -29 89 -7 89 31 0 7 12 27
26 44 26 31 27 61 1 61 -8 0 -33 -13 -55 -30z"/>
<path d="M8245 17090 c-17 -19 -17 -22 -2 -57 28 -64 59 -215 46 -224 -6 -3
-32 -9 -58 -13 -111 -15 -187 -58 -165 -94 17 -26 41 -26 104 2 32 15 76 27
97 29 l38 2 -4 -55 c-1 -30 -12 -95 -22 -144 -28 -132 -24 -160 20 -137 32 17
67 154 73 286 3 47 5 50 33 54 17 2 68 -2 115 -8 149 -20 165 -21 180 -11 13
9 12 13 -8 29 -26 23 -94 39 -216 52 -49 5 -92 11 -94 14 -2 2 -8 40 -12 83
-9 84 -32 176 -51 198 -17 20 -53 17 -74 -6z"/>
<path d="M1969 16983 c-30 -36 -1 -750 33 -821 25 -52 89 -32 69 21 -30 77
-47 660 -22 745 9 34 9 47 0 58 -16 19 -63 18 -80 -3z"/>
<path d="M4506 16989 c-17 -10 -18 -21 -11 -159 l7 -147 -31 -11 c-24 -8 -31
-17 -31 -36 0 -20 7 -27 32 -34 l33 -8 11 -127 c13 -144 28 -209 55 -233 22
-20 53 -11 45 13 -10 31 -24 154 -31 263 -6 92 -5 108 10 120 11 9 56 16 141
20 128 6 165 18 124 40 -13 7 -75 12 -153 13 l-132 2 0 133 c0 121 -2 135 -19
148 -23 17 -25 17 -50 3z"/>
<path d="M8862 16765 c-75 -14 -107 -29 -154 -73 -38 -35 -35 -57 13 -92 43
-31 85 -48 267 -112 146 -50 280 -112 314 -145 38 -37 35 -64 -11 -106 -38
-35 -143 -75 -291 -112 -85 -22 -120 -41 -120 -65 0 -16 7 -20 36 -20 44 0
250 51 323 80 111 43 181 111 181 174 0 71 -176 181 -440 275 -267 96 -266
129 5 138 110 4 154 2 203 -11 81 -22 122 -3 93 42 -24 39 -265 55 -419 27z"/>
<path d="M4299 16718 c-17 -24 -41 -63 -54 -88 -53 -103 -188 -245 -277 -291
-45 -23 -111 -25 -132 -3 -9 8 -17 32 -17 52 -1 20 -3 44 -4 52 -1 8 -3 23 -4
32 -2 24 -46 51 -70 43 -11 -3 -23 -14 -26 -24 -6 -20 21 -153 37 -184 18 -34
70 -57 130 -57 117 0 223 66 328 205 53 71 150 256 150 288 0 30 -29 18 -61
-25z"/>
<path d="M2637 16733 c-9 -2 -27 -23 -38 -45 l-20 -40 -23 21 c-41 38 -93 19
-81 -31 2 -12 10 -99 15 -193 11 -184 17 -201 63 -190 32 9 33 10 51 170 17
144 35 208 59 213 18 4 63 -61 120 -173 58 -115 103 -164 150 -165 23 0 22 38
-2 64 -11 12 -43 66 -71 121 -77 147 -109 194 -153 226 -22 16 -43 28 -46 28
-3 -1 -14 -3 -24 -6z"/>
<path d="M5170 16730 c-87 -9 -110 -22 -110 -63 0 -62 69 -105 280 -177 141
-48 270 -104 270 -118 0 -28 -84 -76 -195 -112 -79 -26 -160 -64 -170 -81 -4
-6 -3 -15 3 -21 19 -19 229 40 333 93 78 39 109 70 109 107 0 49 -82 95 -327
183 -144 51 -223 92 -223 113 0 32 132 31 232 0 35 -12 52 -13 67 -4 86 45
-90 98 -269 80z"/>
<path d="M7856 16724 c-20 -19 -21 -58 -1 -74 41 -34 74 -201 45 -235 -6 -7
-10 -24 -8 -37 2 -17 10 -23 28 -23 20 0 30 10 48 45 20 38 23 55 19 115 -12
170 -73 268 -131 209z"/>
<path d="M3346 16655 c-33 -31 -46 -63 -76 -185 -13 -52 -29 -102 -35 -110
-21 -27 -36 -164 -30 -257 10 -134 27 -173 70 -157 20 8 23 25 30 179 3 72 8
156 12 188 l6 57 63 0 c71 0 153 26 190 61 44 41 41 123 -8 184 -51 65 -171
87 -222 40z m143 -69 c56 -58 43 -102 -42 -144 -66 -33 -107 -25 -107 20 0 31
32 112 53 136 29 31 58 28 96 -12z"/>
<path d="M1873 14973 c5 -405 5 -407 27 -425 31 -25 43 -23 64 13 13 22 23 28
34 23 95 -40 209 -55 422 -56 232 -1 350 29 350 90 0 61 -107 178 -212 230
-204 102 -465 33 -591 -157 l-16 -24 -12 27 c-10 21 -10 92 0 342 14 344 14
344 -42 344 l-30 0 6 -407z m611 -148 c59 -18 103 -43 163 -92 55 -45 70 -71
51 -88 -45 -44 -309 -66 -543 -46 -148 13 -169 23 -141 66 17 26 119 106 168
131 81 42 216 55 302 29z"/>
<path d="M7700 14960 c-75 -16 -170 -70 -208 -119 -33 -43 -39 -81 -14 -89 6
-2 39 26 73 61 79 85 113 99 259 105 128 5 198 -8 304 -57 164 -75 245 -225
203 -372 -20 -67 -61 -117 -139 -170 -116 -79 -255 -124 -378 -124 -198 1
-299 87 -288 247 2 38 13 82 27 111 28 57 109 147 186 207 48 37 59 41 87 35
18 -3 49 -7 68 -8 31 -2 35 1 35 23 0 51 -111 63 -195 20 -105 -54 -243 -206
-276 -304 -32 -96 -16 -210 38 -272 125 -142 409 -159 652 -38 203 102 287
217 273 372 -16 162 -132 283 -337 352 -74 25 -290 36 -370 20z"/>
<path d="M5043 14950 c-102 -15 -161 -65 -118 -100 8 -7 15 -18 15 -26 0 -22
-131 -204 -175 -241 -22 -20 -82 -56 -132 -80 -77 -37 -101 -44 -140 -41 l-48
3 0 87 c0 95 -9 114 -48 104 -20 -5 -26 -14 -32 -52 -22 -148 47 -246 160
-230 65 10 231 97 297 156 58 51 116 149 137 228 13 46 19 49 59 28 15 -7 92
-36 172 -64 165 -57 237 -87 299 -126 42 -27 42 -28 25 -48 -26 -28 -162 -91
-279 -128 -161 -51 -186 -61 -192 -78 -10 -24 27 -44 67 -37 63 12 254 73 340
109 101 42 150 83 150 122 0 68 -159 165 -384 235 -135 41 -226 77 -226 89 0
12 110 30 179 29 36 0 89 -4 116 -9 132 -24 135 -24 135 -3 0 36 -36 56 -128
69 -95 15 -168 16 -249 4z"/>
<path d="M9440 14954 c-184 -19 -320 -68 -427 -153 -73 -57 -128 -168 -121
-241 13 -128 133 -206 356 -231 205 -23 445 38 557 142 99 91 78 229 -48 320
-33 24 -41 36 -39 55 5 33 -54 89 -100 97 -55 10 -141 15 -178 11z m184 -64
c14 -5 26 -17 26 -25 0 -13 -7 -14 -37 -8 -54 11 -183 8 -216 -6 -16 -6 -27
-17 -24 -24 3 -8 35 -12 113 -13 90 0 118 -4 159 -23 91 -41 145 -108 145
-180 0 -76 -93 -148 -255 -197 -47 -15 -94 -19 -215 -19 -187 0 -249 15 -313
75 -39 36 -42 42 -41 89 2 61 41 137 96 186 64 58 219 125 336 145 68 11 197
12 226 0z"/>
<path d="M3115 14879 c-84 -14 -114 -68 -67 -122 12 -13 13 -22 4 -40 -35 -70
-10 -115 90 -166 55 -27 82 -34 150 -38 104 -7 217 11 262 42 18 12 50 28 70
35 30 10 50 29 71 68 1 1 17 -5 35 -15 83 -41 194 -25 308 45 47 28 77 41 83
35 13 -13 -12 -177 -45 -304 -55 -210 -99 -287 -189 -333 l-58 -30 -55 19
c-30 10 -57 16 -60 12 -25 -25 66 -87 129 -87 132 0 215 101 292 356 39 130
75 320 75 401 0 41 -5 57 -22 73 -29 27 -39 25 -74 -11 -83 -87 -202 -142
-308 -141 -99 1 -110 38 -29 91 54 36 117 47 178 32 64 -16 85 -14 85 7 0 40
-37 57 -131 61 -81 3 -95 0 -144 -24 -50 -24 -97 -67 -107 -97 -3 -9 -15 -5
-39 13 -82 63 -188 101 -329 118 -94 12 -104 12 -175 0z m283 -80 c96 -24 198
-73 219 -105 15 -23 15 -26 -7 -49 -65 -69 -329 -94 -453 -42 -47 20 -56 41
-28 71 29 31 27 46 -11 78 -27 22 -31 30 -22 45 6 10 22 21 35 25 37 11 182
-1 267 -23z"/>
<path d="M16553 14783 c-4 -9 -7 -35 -7 -57 -1 -30 3 -41 14 -41 11 0 15 14
16 58 1 55 -10 75 -23 40z"/>
<path d="M17160 14696 c-5 -13 -9 -33 -9 -43 0 -10 -3 -55 -7 -99 -5 -59 -3
-83 6 -89 6 -4 16 -3 22 3 12 12 41 219 34 239 -9 21 -36 15 -46 -11z"/>
<path d="M16540 14625 c0 -8 5 -15 10 -15 6 0 10 7 10 15 0 8 -4 15 -10 15 -5
0 -10 -7 -10 -15z"/>
<path d="M17125 14060 c-7 -23 2 -43 16 -35 12 8 12 42 0 50 -5 3 -12 -4 -16
-15z"/>
<path d="M16536 13937 c-11 -8 -15 -19 -10 -30 8 -23 38 -18 42 7 5 26 -11 38
-32 23z"/>
<path d="M3120 13796 c-6 -8 -10 -25 -8 -37 2 -18 17 -28 68 -46 120 -43 145
-10 42 56 -68 45 -83 48 -102 27z"/>
<path d="M4171 13681 c-22 -22 -50 -59 -61 -81 -53 -104 -112 -300 -124 -412
-6 -53 -4 -59 18 -74 32 -20 51 -14 123 42 68 53 116 80 120 68 2 -5 12 -23
23 -41 54 -89 363 -167 492 -124 31 10 42 10 67 -3 35 -19 123 -21 154 -5 33
17 67 51 67 66 0 17 -38 16 -70 -2 -29 -17 -106 -20 -115 -4 -4 5 20 42 53 82
59 72 94 130 105 177 10 40 -9 103 -39 129 -24 20 -36 23 -91 19 -77 -5 -108
-25 -145 -96 -45 -90 -46 -136 -2 -291 l7 -24 -99 6 c-150 8 -324 69 -324 112
0 16 62 41 146 61 93 21 114 31 114 53 0 35 -25 44 -101 37 -124 -13 -215 -42
-322 -104 -54 -31 -102 -56 -106 -54 -10 5 -2 39 30 135 42 128 91 228 133
275 72 79 22 128 -53 53z m772 -256 c15 -15 11 -64 -9 -97 -28 -47 -110 -148
-120 -148 -15 0 -24 33 -24 91 0 94 47 169 106 169 18 0 39 -7 47 -15z"/>
<path d="M5206 13668 c-21 -36 -26 -113 -16 -295 15 -284 42 -445 74 -451 24
-5 35 14 30 52 -8 56 -34 516 -34 597 0 108 -22 148 -54 97z"/>
<path d="M9460 13655 c-11 -13 -10 -33 4 -108 19 -107 69 -520 86 -717 17
-201 36 -300 76 -401 36 -89 55 -112 76 -91 8 8 0 41 -25 114 -42 121 -53 188
-67 438 -6 102 -15 223 -21 270 -5 47 -18 172 -28 277 -14 155 -21 197 -36
213 -22 24 -48 26 -65 5z"/>
<path d="M3445 13546 c-64 -30 -148 -105 -169 -150 -9 -19 -16 -54 -16 -79 0
-98 98 -172 268 -203 106 -19 184 -12 266 25 62 27 64 56 4 47 -24 -3 -86 -9
-138 -12 -149 -9 -268 29 -311 100 -10 17 -19 42 -19 55 0 33 74 103 151 141
63 32 79 52 62 79 -15 24 -43 24 -98 -3z"/>
<path d="M2319 13532 c-24 -16 -57 -43 -72 -62 -26 -31 -29 -32 -47 -15 -25
22 -52 16 -61 -15 -14 -51 -31 -166 -28 -195 3 -24 9 -31 30 -33 24 -3 29 4
60 75 25 59 48 93 95 141 56 55 66 62 102 62 35 0 45 -5 71 -39 40 -50 57 -91
82 -199 25 -102 32 -118 59 -127 28 -9 52 12 41 34 -5 9 -21 65 -36 125 -29
118 -53 178 -86 219 -49 64 -136 75 -210 29z"/>
<path d="M3043 13532 c-10 -6 -12 -44 -10 -141 2 -121 4 -135 22 -147 41 -27
49 -6 53 137 4 119 3 134 -14 146 -20 15 -34 16 -51 5z"/>
<path d="M16510 13484 c0 -9 7 -14 17 -12 25 5 28 28 4 28 -12 0 -21 -6 -21
-16z"/>
<path d="M8040 13379 c-319 -83 -604 -358 -681 -658 -51 -200 6 -377 139 -428
73 -28 298 -25 409 5 256 69 460 211 560 390 36 64 38 71 38 157 0 80 -3 95
-27 136 -59 97 -146 142 -278 143 -99 0 -196 -25 -303 -82 -121 -63 -210 -162
-146 -162 12 0 43 20 69 44 138 129 397 187 508 113 66 -43 96 -97 100 -179 4
-61 1 -76 -26 -131 -80 -162 -285 -307 -527 -372 -33 -9 -110 -19 -171 -22
-134 -7 -196 9 -242 62 -45 50 -55 93 -50 208 4 85 10 116 37 184 100 255 315
447 599 537 46 14 92 26 102 26 11 0 35 -16 54 -35 38 -37 75 -45 96 -20 19
23 2 53 -44 80 -53 31 -110 32 -216 4z"/>
<path d="M16744 13269 c-20 -25 -23 -47 -9 -65 12 -18 14 -17 26 9 15 33 1 79
-17 56z"/>
<path d="M2921 11891 c-11 -7 -54 -159 -127 -453 -8 -32 -22 -121 -32 -198 -9
-77 -21 -141 -27 -142 -5 -1 -24 25 -42 58 -45 83 -88 119 -159 134 -112 24
-233 -9 -307 -84 -50 -50 -69 -90 -75 -161 -7 -93 12 -165 62 -233 70 -95 171
-126 321 -99 134 24 295 102 295 142 0 24 -18 26 -57 6 -167 -85 -393 -110
-473 -53 -64 46 -99 200 -66 287 39 101 185 165 301 130 75 -22 110 -64 155
-186 58 -157 80 -148 110 47 12 71 27 170 35 219 15 100 22 125 94 370 28 94
51 178 51 187 0 10 -9 22 -19 28 -23 12 -22 12 -40 1z"/>
<path d="M3303 11723 c-14 -5 -17 -41 -5 -59 11 -17 68 -44 92 -44 32 0 24 32
-18 73 -38 37 -45 40 -69 30z"/>
<path d="M4825 11432 c-71 -24 -114 -58 -136 -106 -23 -50 -24 -88 -4 -152 8
-27 15 -52 15 -56 0 -4 -28 -7 -62 -5 -56 2 -63 0 -66 -18 -6 -44 20 -60 107
-63 l80 -4 64 -57 c89 -78 231 -151 306 -158 97 -9 88 37 -13 67 -54 16 -125
53 -208 106 -70 45 -81 61 -50 70 113 36 216 104 246 163 42 82 16 169 -64
209 -55 27 -143 29 -215 4z m195 -68 c98 -39 39 -139 -125 -214 -33 -15 -75
-31 -93 -35 -30 -6 -33 -4 -47 29 -19 45 -19 109 0 146 38 73 172 111 265 74z"/>
<path d="M3890 11418 c-11 -12 -27 -43 -34 -68 -18 -58 -92 -234 -119 -282
-25 -46 -53 -52 -42 -10 22 79 23 107 9 130 -10 15 -23 22 -37 20 -35 -5 -58
-142 -37 -218 15 -56 33 -74 63 -66 44 11 92 87 133 209 38 115 76 201 94 212
7 4 10 -63 10 -200 0 -215 5 -245 42 -245 45 0 126 77 168 160 24 47 73 120
82 120 17 0 61 -86 96 -188 37 -104 60 -138 82 -116 8 8 3 38 -16 105 -47 167
-119 289 -170 289 -27 0 -68 -51 -111 -135 -29 -58 -89 -135 -105 -135 -8 0
-9 51 -5 173 4 107 2 188 -4 210 -16 58 -62 74 -99 35z"/>
<path d="M9802 11394 c-176 -47 -353 -197 -443 -374 -44 -87 -51 -186 -17
-245 44 -76 142 -130 293 -162 51 -11 111 -13 220 -10 224 6 356 47 482 149
154 126 213 260 163 376 -44 103 -183 202 -330 235 -218 50 -279 55 -368 31z
m297 -110 c48 -37 59 -38 75 -8 6 10 12 21 13 23 6 9 131 -61 171 -94 92 -79
107 -169 45 -274 -41 -69 -124 -151 -184 -181 -117 -60 -315 -91 -504 -79
-167 10 -283 61 -315 139 -35 84 21 212 152 344 85 85 89 88 123 82 27 -5 42
-2 65 14 52 37 122 62 194 70 92 10 112 6 165 -36z"/>
<path d="M8130 11365 c-10 -12 -11 -45 -2 -158 12 -148 55 -510 71 -585 10
-53 27 -74 41 -52 17 26 16 110 -5 340 -8 85 -17 222 -21 303 -6 128 -9 149
-25 157 -25 14 -45 12 -59 -5z"/>
<path d="M3219 11274 c-9 -11 -15 -74 -21 -217 -6 -172 -5 -204 8 -217 11 -11
19 -12 32 -4 14 9 19 39 28 185 6 96 14 189 18 207 12 53 -33 85 -65 46z"/>
<path d="M4640 9753 c-25 -9 -68 -53 -140 -143 -100 -126 -149 -206 -244 -404
-82 -170 -85 -181 -71 -203 18 -27 56 -30 77 -5 8 9 36 71 62 138 78 202 294
559 322 532 2 -3 -9 -74 -25 -159 -16 -85 -32 -181 -36 -215 -9 -85 -14 -91
-67 -77 -36 10 -45 9 -58 -3 -13 -14 -12 -18 9 -35 14 -11 38 -23 54 -26 39
-8 42 -21 19 -85 -21 -59 -16 -82 14 -76 13 2 28 25 45 68 l26 65 84 0 84 0 7
-87 c7 -91 22 -130 70 -175 35 -33 108 -63 156 -63 53 0 105 25 100 48 -3 14
-14 16 -69 14 -74 -4 -134 18 -161 60 -34 52 -46 186 -18 203 5 3 43 14 84 25
89 23 128 48 151 101 20 43 16 112 -8 136 -25 25 -86 41 -129 33 -73 -14 -126
-71 -154 -167 -19 -64 -33 -72 -121 -65 -54 4 -63 7 -63 24 0 17 16 97 70 343
11 50 20 108 20 131 0 59 -36 86 -90 67z m428 -425 c6 -54 -55 -107 -141 -123
-46 -9 -48 4 -8 66 18 30 44 53 72 67 54 27 73 25 77 -10z"/>
<path d="M2605 9480 c-119 -8 -164 -21 -263 -77 -130 -72 -235 -199 -261 -314
-12 -51 -3 -73 39 -94 39 -20 96 -19 145 4 49 22 163 117 305 255 119 114 121
114 96 -17 -35 -190 -41 -265 -40 -527 1 -302 7 -340 54 -340 38 0 78 36 95
85 19 56 3 67 -40 25 -30 -29 -35 -31 -41 -16 -10 25 2 466 16 571 6 50 17
126 25 170 8 44 17 99 20 123 8 52 27 62 69 37 73 -43 86 -47 101 -35 38 31 3
67 -97 99 -20 7 -44 23 -52 37 -10 15 -25 23 -39 22 -12 -1 -71 -4 -132 -8z
m33 -80 c-25 -35 -279 -253 -363 -313 -34 -24 -68 -40 -88 -41 -29 -1 -32 1
-30 27 10 145 277 354 456 356 l48 1 -23 -30z"/>
<path d="M3757 9377 c-24 -23 -67 -83 -97 -132 -128 -214 -285 -364 -383 -365
-39 0 -62 14 -86 54 -25 40 -26 69 -5 172 18 87 41 139 87 197 25 32 28 42 19
62 -6 13 -21 26 -33 30 -66 21 -159 -199 -162 -381 -1 -55 3 -67 34 -110 63
-88 170 -118 267 -74 82 37 218 203 302 369 39 79 76 137 108 173 23 25 23 48
1 48 -5 0 -29 -19 -52 -43z"/>
<path d="M3842 9398 c-6 -7 -27 -44 -47 -83 -20 -38 -43 -77 -50 -85 -17 -21
-62 -137 -82 -215 -17 -64 -17 -65 3 -86 12 -11 39 -23 61 -26 37 -5 42 -3 75
38 20 24 45 63 57 87 12 23 25 42 30 42 5 0 12 -21 16 -47 8 -58 49 -103 93
-103 60 0 69 56 10 62 l-33 3 0 190 c0 105 -4 196 -8 203 -5 6 -19 12 -32 12
-13 0 -27 5 -30 10 -9 14 -51 12 -63 -2z m58 -109 c0 -22 -49 -156 -72 -196
-13 -23 -40 -59 -59 -80 -27 -30 -34 -34 -37 -20 -4 18 21 103 45 152 45 92
123 184 123 144z"/>
<path d="M5725 9233 c-80 -20 -315 -103 -390 -138 -104 -48 -133 -77 -111
-110 21 -32 53 -30 110 8 92 63 249 132 416 182 122 36 140 59 50 62 -30 0
-64 -1 -75 -4z"/>
<path d="M10443 9168 c-6 -7 -17 -49 -26 -93 -9 -44 -28 -134 -42 -200 -66
-318 -90 -770 -51 -980 21 -114 30 -138 54 -133 21 4 22 64 4 181 -33 215 13
677 100 1012 17 66 33 139 36 162 4 39 2 44 -23 53 -34 13 -41 13 -52 -2z"/>
<path d="M8471 9046 c-9 -11 -9 -29 -1 -78 8 -41 10 -108 5 -193 -6 -133 7
-286 40 -456 22 -119 55 -343 66 -459 11 -125 15 -140 36 -140 14 0 15 15 9
118 -9 156 -33 385 -52 502 -23 141 -29 312 -14 440 13 124 6 243 -17 265 -18
19 -57 19 -72 1z"/>
<path d="M13440 105 c0 -8 5 -15 10 -15 6 0 10 7 10 15 0 8 -4 15 -10 15 -5 0
-10 -7 -10 -15z"/>
<path d="M13640 104 c0 -9 31 -37 36 -32 9 9 -8 38 -22 38 -8 0 -14 -3 -14 -6z"/>
<path d="M12500 80 c0 -5 7 -10 16 -10 8 0 12 5 9 10 -3 6 -10 10 -16 10 -5 0
-9 -4 -9 -10z"/>
<path d="M12572 81 c-19 -12 8 -22 38 -14 16 4 18 8 8 14 -17 11 -29 11 -46 0z"/>
<path d="M12881 81 c-10 -7 -10 -10 -1 -16 6 -4 16 -3 22 3 13 13 -4 23 -21
13z"/>
<path d="M13235 80 c-3 -5 1 -10 10 -10 9 0 13 5 10 10 -3 6 -8 10 -10 10 -2
0 -7 -4 -10 -10z"/>
<path d="M13284 78 c-10 -16 4 -20 33 -11 l28 10 -28 5 c-15 3 -30 1 -33 -4z"/>
<path d="M13787 84 c-16 -16 -5 -24 33 -24 22 0 40 4 40 9 0 6 -8 9 -17 9 -10
0 -25 2 -34 6 -8 4 -18 3 -22 0z"/>
<path d="M13886 81 c-7 -11 22 -23 35 -15 5 3 7 10 4 15 -8 12 -32 12 -39 0z"/>
<path d="M14117 84 c-15 -15 -6 -24 22 -24 17 0 33 5 36 10 3 6 0 10 -9 10 -8
0 -21 2 -28 5 -8 3 -17 2 -21 -1z"/>
<path d="M14206 83 c-18 -18 12 -22 197 -23 689 -5 960 -4 964 3 12 20 28 20
-507 18 -80 0 -190 0 -245 0 -55 1 -133 -1 -173 -3 -40 -3 -74 -3 -76 -1 -7 7
-154 12 -160 6z"/>
<path d="M15512 80 c-74 -3 -121 -9 -120 -15 2 -6 106 -11 283 -12 284 -2 355
2 339 17 -11 10 -336 17 -502 10z"/>
<path d="M16292 81 c-151 -4 -242 -10 -242 -16 0 -7 236 -10 686 -11 683 -2
685 -2 664 18 -13 12 -27 17 -38 13 -14 -6 -365 -7 -577 -2 -27 1 -75 0 -105
-2 -30 -2 -75 -2 -100 1 -25 2 -154 2 -288 -1z"/>
<path d="M17461 76 c-29 -10 -32 -14 -17 -19 26 -10 286 -7 286 3 0 13 -29 18
-120 19 -47 1 -92 3 -100 5 -8 3 -30 -1 -49 -8z"/>
<path d="M17788 82 c-26 -2 -38 -8 -38 -18 0 -11 6 -13 20 -9 12 4 27 1 35 -5
8 -6 20 -8 27 -4 7 4 94 7 195 6 121 -2 183 1 183 8 0 5 -3 10 -7 11 -5 0 -87
1 -184 3 -97 2 -180 5 -185 7 -5 2 -26 3 -46 1z"/>
<path d="M18260 70 c-19 -11 -30 -20 -25 -21 35 -5 82 -4 92 4 7 5 21 4 33 -3
24 -13 55 -6 45 10 -3 5 -24 10 -45 10 -21 0 -42 5 -45 10 -8 13 -14 12 -55
-10z"/>
<path d="M12308 68 c17 -8 26 -8 34 0 9 9 4 12 -22 11 -33 0 -34 -1 -12 -11z"/>
<path d="M12378 73 c7 -3 16 -2 19 1 4 3 -2 6 -13 5 -11 0 -14 -3 -6 -6z"/>
<path d="M13020 70 c0 -13 30 -13 50 0 11 7 7 10 -17 10 -18 0 -33 -4 -33 -10z"/>
<path d="M13428 73 c7 -3 16 -2 19 1 4 3 -2 6 -13 5 -11 0 -14 -3 -6 -6z"/>
<path d="M13550 70 c0 -5 17 -10 38 -9 33 1 34 2 12 9 -36 11 -50 11 -50 0z"/>
<path d="M13940 70 c0 -5 4 -10 9 -10 6 0 13 5 16 10 3 6 -1 10 -9 10 -9 0
-16 -4 -16 -10z"/>
<path d="M14010 70 c0 -5 14 -10 30 -10 17 0 30 5 30 10 0 6 -13 10 -30 10
-16 0 -30 -4 -30 -10z"/>
<path d="M18456 73 c-16 -16 -2 -23 47 -23 33 0 47 4 37 9 -22 12 -77 21 -84
14z"/>
<path d="M18603 56 c5 -16 229 -15 234 1 3 8 -30 11 -117 11 -84 -1 -120 -4
-117 -12z"/>
<path d="M18877 64 c-9 -10 2 -24 19 -24 8 0 14 7 14 15 0 15 -21 21 -33 9z"/>
<path d="M18945 60 c-3 -5 0 -13 9 -16 21 -8 71 -1 71 11 0 14 -72 19 -80 5z"/>
<path d="M19927 59 c-30 -17 -10 -27 50 -24 32 2 60 4 63 5 3 1 -17 8 -45 15
-27 8 -50 14 -50 14 0 0 -8 -4 -18 -10z"/>
<path d="M19060 50 c0 -5 7 -10 15 -10 8 0 15 5 15 10 0 6 -7 10 -15 10 -8 0
-15 -4 -15 -10z"/>
<path d="M19170 50 c0 -5 9 -10 20 -10 11 0 20 5 20 10 0 6 -9 10 -20 10 -11
0 -20 -4 -20 -10z"/>
<path d="M19240 50 c0 -5 18 -10 39 -10 22 0 43 5 46 10 4 6 -12 10 -39 10
-25 0 -46 -4 -46 -10z"/>
<path d="M19383 48 c16 -10 217 -10 217 0 0 4 -51 7 -114 7 -63 0 -109 -3
-103 -7z"/>
<path d="M19715 49 c7 -11 45 -12 62 -1 7 5 -4 8 -28 9 -23 1 -37 -2 -34 -8z"/>
<path d="M19830 50 c0 -5 5 -10 11 -10 5 0 7 5 4 10 -3 6 -8 10 -11 10 -2 0
-4 -4 -4 -10z"/>
<path d="M19638 43 c6 -2 18 -2 25 0 6 3 1 5 -13 5 -14 0 -19 -2 -12 -5z"/>
<path d="M100 10 c0 -5 5 -10 10 -10 6 0 10 5 10 10 0 6 -4 10 -10 10 -5 0
-10 -4 -10 -10z"/>
<path d="M295 10 c-3 -5 3 -10 15 -10 12 0 18 5 15 10 -3 6 -10 10 -15 10 -5
0 -12 -4 -15 -10z"/>
<path d="M4553 3 c9 -2 23 -2 30 0 6 3 -1 5 -18 5 -16 0 -22 -2 -12 -5z"/>
<path d="M4838 3 c6 -2 18 -2 25 0 6 3 1 5 -13 5 -14 0 -19 -2 -12 -5z"/>
<path d="M5378 3 c7 -3 16 -2 19 1 4 3 -2 6 -13 5 -11 0 -14 -3 -6 -6z"/>
<path d="M5798 3 c7 -3 16 -2 19 1 4 3 -2 6 -13 5 -11 0 -14 -3 -6 -6z"/>
<path d="M7848 3 c6 -2 18 -2 25 0 6 3 1 5 -13 5 -14 0 -19 -2 -12 -5z"/>
<path d="M8928 3 c7 -3 16 -2 19 1 4 3 -2 6 -13 5 -11 0 -14 -3 -6 -6z"/>
</g>
</svg>
