<?xml version="1.0" standalone="no"?>
<!DOCTYPE svg PUBLIC "-//W3C//DTD SVG 20010904//EN"
 "http://www.w3.org/TR/2001/REC-SVG-20010904/DTD/svg10.dtd">
<svg version="1.0" xmlns="http://www.w3.org/2000/svg"
 width="2448.000000pt" height="3264.000000pt" viewBox="0 0 2448.000000 3264.000000"
 preserveAspectRatio="xMidYMid meet">
<metadata>
Created by potrace 1.12, written by Peter Selinger 2001-2015
</metadata>
<g transform="translate(0.000000,3264.000000) scale(0.100000,-0.100000)"
fill="#000000" stroke="none">
<path d="M13571 32598 c2 -46 -5 -392 -21 -1104 -6 -243 -11 -490 -11 -549 -1
-81 -5 -115 -17 -133 -13 -21 -14 -30 -2 -75 15 -57 15 -64 0 -757 -5 -245
-12 -571 -15 -725 -3 -154 -10 -449 -15 -655 -11 -433 -34 -1466 -34 -1525 1
-22 -3 -179 -7 -350 -9 -343 -16 -645 -24 -1015 -3 -135 -7 -315 -10 -400 -3
-85 -15 -582 -26 -1105 -11 -522 -22 -993 -24 -1045 -10 -225 -14 -1029 -5
-1035 18 -11 28 32 28 125 1 111 12 562 17 635 3 43 11 351 30 1100 2 105 7
264 10 355 3 91 12 428 20 750 8 322 19 747 25 945 10 395 11 431 40 1650 11
462 24 1013 30 1225 11 430 25 1026 40 1745 6 264 15 662 20 885 5 223 13 561
16 753 l7 347 -37 0 -37 0 2 -42z"/>
<path d="M14150 32541 c0 -59 4 -102 10 -106 22 -14 40 17 40 68 0 37 6 58 23
81 43 57 43 56 -17 56 l-56 0 0 -99z"/>
<path d="M21047 32614 c-16 -16 -7 -44 14 -44 15 0 20 5 17 22 -3 22 -19 33
-31 22z"/>
<path d="M10725 31740 c-11 -17 5 -50 24 -50 28 0 46 26 31 45 -14 17 -46 20
-55 5z"/>
<path d="M14457 31164 c-8 -8 1 -24 14 -24 5 0 9 7 9 15 0 15 -12 20 -23 9z"/>
<path d="M11348 30015 c-8 -19 -8 -67 1 -193 6 -99 11 -403 11 -747 0 -319 4
-697 10 -840 5 -143 14 -413 20 -600 6 -187 15 -396 20 -465 5 -69 6 -128 2
-131 -4 -3 -56 -2 -117 2 -60 4 -416 10 -790 13 -374 3 -966 9 -1315 12 -605
7 -1164 -1 -2340 -31 -102 -3 -306 -7 -455 -10 -667 -13 -1204 -25 -1490 -35
-170 -5 -485 -12 -700 -15 -214 -3 -439 -8 -500 -10 -161 -8 -1474 -9 -1955
-3 -432 6 -534 14 -685 53 -81 21 -92 22 -112 9 -40 -26 -26 -62 37 -94 14 -7
63 -17 110 -22 47 -5 128 -13 180 -18 127 -13 1388 -32 1665 -25 121 3 400 7
620 10 220 4 523 10 674 15 151 6 276 8 278 7 2 -2 -28 -31 -66 -65 -81 -72
-135 -167 -176 -307 -130 -449 -26 -764 259 -783 90 -6 157 8 249 52 144 67
231 154 302 301 57 118 70 177 70 315 0 173 -23 213 -221 387 -56 48 -110 93
-120 100 -15 9 42 12 271 13 160 1 335 3 390 5 145 6 844 23 1415 35 272 6
709 15 970 21 481 11 1654 13 1985 4 99 -2 492 -9 874 -14 381 -6 696 -13 699
-15 13 -14 65 -1351 81 -2091 11 -479 5 -1954 -9 -2395 -6 -168 -10 -413 -10
-546 l0 -242 -557 -6 c-535 -6 -917 -15 -1603 -36 -173 -6 -493 -15 -710 -20
-217 -6 -503 -15 -635 -20 -132 -5 -472 -17 -755 -25 -954 -28 -1483 -45
-1777 -56 -366 -14 -2457 -6 -2688 10 -245 17 -656 59 -789 81 -203 34 -328
71 -453 132 -91 45 -128 46 -139 4 -13 -52 23 -80 176 -134 389 -137 1207
-202 2470 -196 1351 5 1325 5 1322 -8 -43 -161 -11 -593 67 -917 21 -89 39
-118 65 -108 21 8 20 49 -3 200 -37 231 -52 432 -50 644 l2 203 65 0 c36 0
268 7 516 15 248 8 606 19 796 25 488 15 919 29 1030 35 52 3 340 12 640 20
300 8 761 22 1025 30 618 19 815 23 1410 32 270 3 510 7 534 7 l44 1 -2 -370
c-1 -203 -6 -460 -11 -570 -35 -748 -38 -2364 -6 -3265 8 -234 15 -457 16
-496 l0 -71 -152 -6 c-84 -3 -331 -15 -548 -27 -409 -21 -1037 -39 -1220 -34
-643 17 -1391 26 -1674 21 -354 -7 -499 -12 -1356 -48 -261 -10 -695 -28 -965
-39 -269 -11 -571 -24 -670 -30 -99 -5 -299 -17 -445 -25 -412 -23 -836 -55
-1077 -81 -65 -7 -104 -34 -84 -58 18 -21 154 -21 432 -1 196 14 695 45 1054
65 94 5 330 16 525 25 195 8 504 22 685 30 1366 63 1532 68 2150 69 330 1 854
-3 1165 -8 653 -10 1183 4 1970 54 85 6 169 10 186 10 l31 0 6 -537 c4 -296
11 -637 16 -758 6 -121 15 -357 21 -525 5 -168 15 -415 20 -550 30 -740 41
-1654 25 -2122 l-8 -227 -51 -5 c-28 -3 -145 -8 -261 -11 -115 -3 -291 -10
-390 -15 -99 -5 -281 -14 -405 -20 -254 -12 -483 -25 -675 -40 -448 -35 -953
-65 -1420 -85 -228 -10 -917 -53 -1100 -70 -93 -8 -219 -19 -280 -24 -360 -32
-1090 -113 -1400 -156 -60 -8 -182 -24 -270 -35 -88 -10 -252 -31 -365 -44
-113 -14 -257 -32 -320 -41 -63 -8 -153 -19 -200 -25 -47 -5 -177 -21 -290
-35 -113 -13 -358 -43 -545 -65 -187 -22 -405 -50 -485 -62 -120 -19 -188 -23
-390 -23 -256 0 -273 2 -437 52 -90 27 -125 49 -148 94 -19 36 -44 37 -99 5
-81 -47 -83 -100 -4 -129 278 -101 335 -113 578 -123 165 -7 272 0 635 42 273
32 998 121 1410 174 171 22 344 44 385 50 41 5 219 27 395 50 563 72 784 98
1330 155 546 58 1002 92 1660 125 416 21 623 33 855 50 685 50 1485 97 2023
120 275 12 269 12 263 2 -2 -4 -12 -192 -20 -417 -18 -458 -32 -802 -46 -1130
-6 -121 -19 -431 -30 -690 -63 -1487 -94 -2063 -130 -2410 -14 -135 -36 -356
-70 -695 -38 -390 -68 -661 -124 -1140 -83 -711 -116 -1061 -157 -1680 -17
-254 -17 -919 -1 -1150 16 -214 36 -368 51 -383 37 -37 44 82 22 388 -21 279
-12 834 19 1280 19 264 50 640 65 780 8 77 27 245 40 374 14 128 32 290 40
360 57 476 87 750 110 981 14 146 39 400 55 565 64 641 70 745 120 1895 5 124
12 263 15 310 5 82 25 533 45 1045 6 138 14 340 20 450 5 110 12 272 15 360 3
88 8 207 11 265 3 58 9 228 13 378 5 150 10 274 12 276 2 2 312 11 689 21 377
9 693 21 703 26 21 12 22 42 2 59 -11 9 -120 9 -492 1 -263 -7 -572 -16 -687
-21 -115 -5 -211 -8 -213 -6 -3 2 1 82 7 177 10 162 14 1200 5 1369 -2 41 -6
206 -10 365 -4 160 -8 310 -10 335 -2 25 -6 155 -9 290 -4 135 -11 340 -16
455 -18 415 -52 1726 -44 1734 1 2 347 6 768 9 537 3 772 8 788 16 29 15 34
39 11 61 -16 17 -57 17 -698 11 -374 -3 -723 -9 -776 -12 l-96 -7 -6 284 c-4
156 -12 451 -18 654 -17 633 -13 2151 7 2650 10 237 18 600 19 807 l0 378 93
0 c52 0 180 4 285 10 106 5 425 12 711 15 502 5 519 6 547 26 36 26 36 35 0
54 -26 13 -110 13 -698 5 -367 -6 -726 -14 -798 -19 -77 -5 -134 -5 -139 0 -6
6 -5 196 4 511 18 679 24 2420 11 2983 -11 458 -42 1252 -61 1560 -6 94 -10
179 -10 189 0 17 6 18 73 12 114 -11 307 -24 502 -36 99 -6 243 -15 320 -20
141 -11 516 -30 655 -34 41 -1 112 -6 156 -11 95 -9 129 -3 145 26 31 59 -63
78 -436 89 -143 5 -325 13 -405 19 -370 26 -700 47 -894 55 -65 3 -120 7 -121
8 -3 4 -23 518 -36 938 -6 184 -15 693 -20 1130 -10 806 -13 905 -31 928 -18
21 -57 14 -70 -13z m-6639 -3154 c12 -8 8 -11 -15 -16 -89 -19 -179 -94 -203
-168 -24 -73 12 -92 50 -28 35 57 104 111 143 111 44 0 141 -26 173 -47 14 -9
38 -44 54 -76 46 -97 74 -117 104 -74 13 19 17 20 25 7 21 -33 32 -127 26
-217 -18 -256 -150 -435 -375 -508 -40 -13 -75 -16 -137 -13 -73 4 -90 8 -127
34 -118 83 -152 316 -88 589 40 167 126 332 197 375 59 37 141 51 173 31z"/>
<path d="M6557 29586 c-104 -39 -202 -138 -271 -273 -42 -84 -75 -178 -118
-343 -39 -145 -41 -165 -46 -325 -4 -151 -1 -190 23 -339 14 -92 33 -189 41
-215 18 -60 18 -63 -5 -56 -10 3 -23 -1 -30 -9 -13 -15 -7 -38 21 -78 22 -32
14 -55 -33 -100 -34 -31 -37 -58 -9 -83 29 -26 61 -13 94 40 16 25 34 45 40
45 7 0 33 -14 59 -30 114 -72 305 -100 446 -66 162 39 331 168 398 302 31 64
36 84 37 147 1 122 -45 178 -279 342 -66 46 -175 110 -242 142 -67 32 -122 61
-122 65 -1 3 27 28 62 55 159 126 280 261 337 377 62 125 40 251 -56 317 -126
86 -257 119 -347 85z m224 -120 c74 -36 139 -98 139 -134 0 -36 -49 -138 -98
-204 -47 -63 -164 -176 -247 -240 -183 -139 -179 -200 15 -263 81 -26 151 -64
288 -154 131 -87 215 -158 238 -203 72 -139 -156 -393 -386 -429 -139 -21
-305 7 -421 73 -38 21 -39 23 -40 77 0 31 -4 76 -8 101 -90 491 -89 607 11
960 68 240 179 400 306 441 49 15 143 4 203 -25z"/>
<path d="M18055 29524 c-193 -28 -295 -74 -295 -131 0 -68 52 -84 93 -29 31
40 93 60 240 77 154 18 408 -14 415 -53 3 -17 -33 -48 -154 -135 -139 -99
-276 -265 -340 -409 -89 -202 -110 -462 -37 -472 31 -5 40 19 46 128 9 175 76
348 191 501 63 84 137 150 295 264 93 67 119 113 91 166 -28 51 -175 89 -370
94 -80 2 -158 1 -175 -1z"/>
<path d="M9177 29486 c-128 -53 -226 -159 -316 -341 -88 -179 -141 -391 -141
-570 0 -91 23 -288 45 -397 21 -99 73 -272 100 -335 30 -68 67 -89 99 -57 24
23 20 67 -9 94 -34 32 -100 239 -130 412 -31 172 -37 307 -20 425 37 248 148
491 280 611 88 80 172 107 260 83 60 -16 148 -92 204 -177 52 -77 68 -125 57
-170 -15 -59 -156 -174 -280 -229 -43 -19 -74 -25 -127 -25 -38 0 -84 -6 -103
-14 -37 -15 -76 -60 -76 -87 0 -51 66 -62 171 -28 35 11 82 20 105 20 138 -1
454 -192 454 -275 0 -13 -18 -43 -40 -69 -39 -44 -286 -217 -435 -304 -73 -43
-193 -89 -204 -78 -3 4 -6 18 -6 32 0 37 -28 52 -54 29 -29 -26 -28 -94 1
-131 20 -25 25 -27 84 -23 85 5 189 58 423 215 209 140 251 176 286 247 53
105 23 190 -97 278 -61 45 -220 128 -268 141 -29 8 -20 19 43 55 130 73 207
178 207 281 0 139 -160 343 -311 396 -61 22 -135 18 -202 -9z"/>
<path d="M16627 29416 c-79 -33 -128 -66 -195 -135 -152 -155 -201 -332 -182
-656 13 -227 34 -317 119 -529 28 -69 51 -128 51 -130 0 -2 -9 -6 -20 -9 -25
-7 -42 -50 -31 -79 22 -56 114 -116 218 -143 158 -41 420 7 572 104 167 108
237 286 162 417 -55 95 -271 266 -416 329 -33 14 -75 33 -92 40 -18 8 -33 18
-33 23 0 5 42 25 93 46 105 41 231 119 273 168 92 109 81 207 -43 373 -61 82
-139 146 -225 185 -63 29 -175 27 -251 -4z m273 -110 c97 -64 219 -231 220
-299 0 -36 -35 -79 -100 -122 -90 -60 -272 -150 -351 -175 -76 -23 -104 -48
-95 -83 6 -26 33 -41 106 -56 60 -13 104 -32 213 -93 198 -109 320 -206 356
-282 18 -36 20 -51 13 -84 -12 -50 -59 -120 -107 -156 -52 -40 -173 -93 -252
-112 -87 -20 -231 -23 -310 -5 -61 13 -61 13 -56 45 3 21 -2 46 -15 71 -29 56
-126 306 -151 390 -41 131 -55 462 -26 600 35 165 141 307 286 379 68 35 79
37 137 33 54 -4 73 -11 132 -51z"/>
<path d="M3532 29263 c-18 -35 -42 -119 -62 -218 -23 -113 -80 -606 -80 -694
0 -55 -1 -58 -32 -72 -45 -19 -50 -58 -12 -88 25 -20 26 -25 21 -79 -4 -31
-15 -93 -26 -137 -35 -137 -22 -215 34 -215 33 0 40 15 40 90 1 36 7 103 14
150 6 47 15 110 19 140 l7 54 70 17 c115 27 298 62 330 63 32 1 23 19 121
-244 13 -36 24 -77 24 -91 0 -37 22 -62 51 -57 18 2 25 10 27 32 5 39 -42 184
-89 278 -21 43 -39 84 -39 91 0 9 22 18 58 26 198 42 269 71 256 106 -9 22
-88 19 -220 -6 -62 -12 -119 -19 -127 -16 -9 3 -28 45 -45 99 -16 51 -77 224
-134 383 -58 160 -111 308 -118 330 -15 48 -37 75 -61 75 -10 0 -22 -8 -27
-17z m96 -309 c53 -154 164 -454 193 -521 12 -29 21 -55 18 -58 -5 -4 -236
-46 -343 -62 l-39 -6 6 54 c4 30 14 122 22 204 37 349 47 434 62 499 l15 69
13 -30 c7 -16 31 -84 53 -149z"/>
<path d="M1001 29224 c-13 -9 -29 -31 -37 -49 -18 -44 -33 -244 -44 -595 -12
-389 -47 -640 -100 -707 -24 -31 -25 -51 -4 -81 23 -33 63 -26 87 15 25 43 53
189 68 355 11 126 14 137 35 147 12 5 33 24 46 41 22 30 189 155 248 185 32
16 44 8 75 -55 10 -19 64 -105 120 -190 56 -86 127 -203 157 -260 39 -75 60
-106 74 -108 35 -5 46 19 31 69 -21 68 -209 370 -324 522 -24 31 -42 61 -39
65 3 5 38 21 78 37 89 35 98 41 98 70 0 43 -50 46 -146 10 -36 -14 -72 -25
-79 -25 -12 0 -34 46 -191 393 -37 82 -69 137 -87 153 -34 28 -36 29 -66 8z
m65 -144 c13 -25 44 -95 69 -156 25 -61 68 -150 95 -197 28 -48 50 -91 50 -95
0 -5 -27 -21 -59 -37 -33 -15 -97 -56 -143 -91 -46 -34 -84 -61 -85 -60 -6 5
-5 69 0 171 4 61 9 189 12 285 8 250 14 267 61 180z"/>
<path d="M15595 29050 c-130 -34 -248 -96 -390 -205 -44 -34 -88 -64 -97 -68
-26 -9 -51 -54 -44 -80 5 -21 71 -77 261 -222 166 -126 219 -152 277 -137 26
6 34 14 36 35 5 42 -13 63 -75 85 -64 24 -356 236 -361 262 -4 21 223 171 308
204 81 31 170 46 232 39 62 -7 101 15 96 55 -2 16 -13 31 -28 39 -36 18 -133
15 -215 -7z"/>
<path d="M12571 28943 c-19 -39 -165 -472 -201 -601 -22 -74 -29 -86 -94 -135
-42 -33 -49 -75 -16 -105 l21 -19 -56 -154 c-30 -85 -69 -184 -87 -221 -30
-65 -31 -67 -14 -93 14 -22 23 -26 44 -21 33 8 72 50 72 76 0 11 27 102 59
202 33 101 66 209 75 240 15 51 21 60 57 78 53 27 221 70 288 73 l52 2 24 -60
c84 -212 85 -216 79 -255 -5 -30 -2 -42 15 -59 47 -47 88 -12 78 68 -3 25 -31
106 -62 179 l-56 133 28 23 c27 24 28 24 9 45 -11 12 -30 21 -43 21 -18 0 -28
9 -39 35 -20 48 -101 366 -114 449 -17 105 -33 136 -69 136 -25 0 -34 -7 -50
-37z m69 -253 c12 -58 38 -154 58 -213 41 -120 39 -127 -29 -127 -20 0 -79
-11 -130 -24 -52 -14 -96 -23 -98 -20 -3 2 19 78 48 167 29 89 61 189 71 222
27 91 40 119 49 109 5 -5 19 -56 31 -114z"/>
<path d="M24081 28844 c-12 -15 -21 -32 -21 -38 0 -48 62 -282 116 -439 45
-132 90 -309 104 -410 17 -120 27 -147 55 -147 43 0 46 17 25 161 -24 160 -45
251 -100 423 -68 216 -84 284 -82 368 1 69 -1 79 -21 93 -31 22 -53 19 -76
-11z"/>
<path d="M22658 28779 c-66 -9 -91 -21 -131 -58 -35 -32 -57 -72 -57 -104 0
-43 28 -40 71 7 31 34 52 47 90 56 182 44 321 -142 232 -308 -64 -118 -146
-182 -232 -182 -54 0 -90 19 -134 70 -45 53 -60 109 -53 196 12 151 12 148 -6
152 -25 5 -63 -41 -78 -93 -19 -69 -9 -179 24 -250 33 -73 47 -89 112 -131
158 -102 333 -12 450 231 27 55 34 82 34 130 0 104 -70 217 -162 262 -57 28
-91 33 -160 22z"/>
<path d="M21893 28668 c-30 -15 -79 -111 -93 -184 -42 -215 42 -389 192 -402
79 -6 110 20 175 143 117 222 123 357 16 401 -64 27 -169 -9 -257 -87 -42 -38
-48 -40 -41 -19 4 14 23 41 42 61 57 60 34 121 -34 87z m269 -155 c28 -25 22
-66 -28 -184 -46 -109 -85 -159 -123 -159 -55 0 -126 89 -137 171 -5 43 -4 46
50 101 60 60 113 86 180 87 24 1 47 -6 58 -16z"/>
<path d="M21615 28586 c-34 -34 -45 -86 -45 -218 0 -124 14 -210 53 -323 49
-141 76 -185 113 -185 36 0 42 42 14 104 -69 157 -100 288 -100 421 0 76 2 85
30 120 34 43 36 52 14 83 -20 29 -49 28 -79 -2z"/>
<path d="M10373 28410 c-30 -13 -43 -25 -43 -39 0 -26 8 -30 82 -42 86 -14
168 -43 273 -96 144 -72 195 -121 195 -187 0 -73 -233 -218 -408 -254 -92 -18
-123 -13 -168 32 -49 49 -53 111 -20 279 15 73 24 141 20 150 -10 27 -51 21
-67 -10 -27 -54 -60 -259 -54 -334 8 -94 46 -165 107 -199 38 -21 57 -25 125
-24 90 1 158 23 297 96 160 83 230 154 251 253 11 54 10 59 -17 111 -45 86
-177 176 -347 238 -128 45 -173 51 -226 26z"/>
<path d="M7577 28333 c-16 -15 -5 -71 19 -104 41 -55 72 -122 99 -216 28 -96
44 -284 45 -530 0 -150 9 -186 43 -181 l22 3 0 310 c0 347 -7 395 -82 569 -48
113 -79 156 -113 156 -15 0 -30 -3 -33 -7z"/>
<path d="M4625 28193 c-134 -31 -239 -82 -314 -154 -44 -42 -52 -54 -49 -81 2
-17 11 -36 20 -42 14 -8 24 -4 53 24 19 18 37 31 40 28 3 -3 1 -27 -6 -52 -21
-86 5 -207 62 -287 11 -16 44 -41 72 -55 69 -35 139 -30 229 17 77 41 194 155
228 224 37 74 34 163 -7 236 -36 65 -96 113 -165 134 -49 14 -120 18 -163 8z
m181 -109 c18 -8 48 -32 68 -56 30 -35 36 -49 36 -89 0 -84 -103 -208 -224
-272 -27 -14 -60 -21 -98 -21 -52 -1 -60 2 -92 33 -58 56 -65 99 -49 276 l8
80 72 27 c120 46 205 53 279 22z"/>
<path d="M2269 28118 c-19 -30 -20 -43 -15 -153 3 -66 15 -187 26 -270 11 -82
20 -166 20 -185 0 -42 24 -80 49 -80 40 0 42 17 16 250 -29 260 -31 328 -10
356 32 42 6 114 -41 114 -17 0 -31 -10 -45 -32z"/>
<path d="M18186 27994 c-35 -35 -11 -114 35 -114 28 0 59 36 59 69 0 50 -61
79 -94 45z"/>
<path d="M15230 27940 c-469 -9 -533 -25 -518 -131 3 -21 8 -24 43 -23 22 1
60 9 85 19 39 16 92 20 420 26 568 12 616 12 655 -1 43 -14 65 -1 65 37 0 43
-17 61 -70 72 -53 11 -105 11 -680 1z"/>
<path d="M23947 27668 c-30 -11 -46 -51 -30 -76 7 -13 37 -16 159 -17 82 -1
206 -5 277 -10 l127 -8 0 41 c0 28 -4 42 -13 42 -7 0 -107 9 -222 20 -234 22
-258 23 -298 8z"/>
<path d="M21304 27585 c-15 -15 -24 -34 -22 -47 4 -32 63 -68 110 -68 21 0 71
-7 111 -14 69 -14 201 -32 427 -57 158 -18 582 -6 680 18 109 28 155 52 155
83 0 34 -25 36 -127 11 -46 -12 -138 -25 -204 -30 -278 -20 -782 32 -1005 104
-94 31 -94 31 -125 0z"/>
<path d="M24375 27166 c-241 -89 -448 -186 -513 -242 -50 -43 -56 -81 -17
-119 28 -29 51 -31 84 -9 20 14 22 22 17 55 -5 34 -3 39 27 57 48 30 382 173
470 201 34 12 37 15 37 52 0 21 -3 39 -7 39 -5 -1 -48 -16 -98 -34z"/>
<path d="M22595 27164 c-11 -3 -56 -14 -99 -25 -175 -44 -381 -172 -453 -281
-22 -33 -24 -42 -15 -63 13 -29 48 -45 97 -45 59 0 88 73 35 87 -28 7 -25 16
19 56 197 178 599 255 710 136 32 -35 29 -127 -10 -243 -55 -166 -172 -361
-490 -822 -166 -239 -203 -329 -164 -403 36 -70 131 -70 430 -2 72 16 166 34
210 41 387 55 607 100 676 136 31 16 39 51 14 60 -8 3 -70 -8 -137 -25 -114
-28 -210 -44 -523 -86 -66 -9 -199 -32 -296 -51 -195 -38 -244 -41 -277 -18
-47 32 -28 78 123 299 386 566 467 703 530 893 22 69 26 97 24 160 -5 95 -26
129 -106 168 -49 25 -69 28 -167 30 -61 2 -120 1 -131 -2z"/>
<path d="M18150 27059 c-69 -4 -205 -17 -302 -28 -366 -43 -692 -47 -1553 -19
-348 11 -586 5 -885 -23 -381 -34 -1069 -59 -1138 -40 -53 15 -75 8 -91 -25
-38 -83 38 -101 351 -85 117 6 303 16 413 22 110 5 272 16 360 24 497 43 592
43 1735 -2 170 -6 552 12 775 37 258 30 397 40 537 40 120 0 128 1 142 22 19
27 21 59 4 76 -13 13 -141 14 -348 1z"/>
<path d="M9753 26895 c-38 -8 -82 -27 -109 -47 -98 -70 -207 -231 -239 -354
-20 -78 -20 -258 1 -343 38 -157 134 -308 240 -381 129 -89 327 -73 534 43
187 105 319 326 320 534 0 95 -25 205 -70 299 -53 115 -114 185 -193 224 -58
28 -70 30 -157 29 -52 -1 -133 1 -180 4 -58 5 -105 2 -147 -8z m127 -101 c0
-3 -11 -20 -24 -37 -39 -52 -67 -117 -61 -138 11 -34 41 -21 88 41 55 71 107
100 176 100 46 0 52 -3 85 -43 49 -60 66 -106 66 -179 0 -76 7 -105 27 -112
22 -9 52 12 60 42 10 42 -14 178 -42 234 l-26 51 23 -15 c37 -24 105 -132 123
-193 52 -182 41 -290 -47 -458 -81 -154 -266 -269 -459 -284 -139 -11 -233 46
-311 187 -67 122 -83 188 -83 340 0 152 7 176 85 290 30 44 60 73 108 104 37
23 73 50 81 59 10 12 30 17 72 17 33 0 59 -3 59 -6z"/>
<path d="M2350 26763 c-76 -13 -174 -58 -235 -107 -33 -28 -51 -34 -108 -39
-88 -8 -185 -59 -272 -142 -78 -74 -100 -134 -93 -254 9 -153 94 -259 248
-311 58 -20 79 -22 205 -17 164 6 225 20 351 82 201 98 330 278 342 475 4 74
1 93 -18 138 -49 114 -174 183 -324 181 -39 -1 -82 -4 -96 -6z m191 -133 c75
-24 156 -80 165 -114 17 -70 -64 -260 -146 -344 -83 -83 -229 -155 -250 -122
-4 7 -11 64 -15 128 -10 160 -43 248 -129 340 -16 17 -37 32 -45 32 -27 0 2
16 79 46 155 58 239 66 341 34z m-463 -154 c66 -34 117 -129 132 -243 6 -43
15 -109 21 -146 6 -38 9 -71 6 -73 -3 -3 -37 -10 -77 -16 -91 -13 -211 2 -286
36 -58 27 -125 90 -144 136 -17 42 -5 110 29 160 27 40 104 110 122 110 4 0
-6 -22 -22 -49 -32 -52 -35 -84 -7 -89 11 -2 28 15 51 50 35 54 118 138 137
138 6 0 23 -6 38 -14z"/>
<path d="M7684 26720 c-128 -27 -298 -122 -374 -207 -50 -57 -109 -175 -117
-231 -5 -34 -2 -43 12 -48 28 -11 46 7 71 74 13 35 33 78 45 95 99 144 280
247 441 250 68 2 79 -1 102 -22 73 -68 90 -241 39 -392 -42 -123 -245 -453
-318 -517 -45 -40 -65 -40 -109 -1 -75 65 -118 199 -118 367 0 146 9 162 87
162 51 0 55 2 61 27 10 38 -26 66 -75 57 -113 -18 -138 -43 -153 -145 -23
-162 14 -360 86 -468 68 -100 191 -136 268 -78 78 60 333 483 362 603 51 208
11 401 -95 455 -44 22 -155 32 -215 19z"/>
<path d="M4865 25661 c-45 -11 -74 -29 -139 -85 -140 -121 -190 -179 -232
-266 -70 -145 -79 -180 -79 -320 0 -141 13 -179 84 -253 47 -50 92 -73 172
-87 124 -23 267 3 414 75 107 52 153 89 211 167 113 154 129 362 40 522 -100
178 -307 286 -471 247z m97 -115 c229 -37 338 -155 339 -368 0 -252 -180 -415
-481 -435 -154 -10 -233 22 -287 115 -23 39 -28 60 -31 137 -5 112 12 188 71
305 29 59 52 92 76 107 39 27 61 29 61 8 0 -9 11 -20 25 -27 19 -9 29 -8 50 6
29 19 31 33 10 83 -21 49 -20 49 28 66 53 19 38 19 139 3z"/>
<path d="M2192 25599 c-60 -24 -114 -76 -174 -168 -81 -125 -108 -199 -108
-297 0 -66 4 -84 36 -150 77 -157 203 -213 366 -165 113 35 269 116 335 176
83 75 115 142 116 243 2 144 -39 219 -156 288 -108 64 -338 105 -415 73z m267
-148 c127 -46 195 -82 212 -112 33 -62 -8 -189 -81 -251 -100 -86 -310 -164
-420 -156 -73 5 -131 41 -161 100 -28 56 -21 120 25 213 58 118 120 162 167
119 26 -23 39 -9 39 42 0 36 -5 50 -27 71 l-28 26 80 -6 c57 -4 112 -17 194
-46z"/>
<path d="M24462 25578 c-16 -16 -15 -33 3 -48 13 -11 15 -7 15 24 0 40 -1 41
-18 24z"/>
<path d="M7964 25301 c-28 -10 -59 -23 -70 -29 -10 -6 -45 -22 -77 -37 -106
-49 -172 -134 -133 -173 15 -15 19 -13 51 18 l36 35 -45 -95 c-57 -122 -70
-188 -64 -342 6 -166 33 -220 138 -267 57 -26 102 -26 174 -1 160 55 296 167
364 298 46 91 63 151 63 236 1 161 -76 265 -233 312 -38 12 -66 27 -75 41 -19
28 -57 29 -129 4z m195 -116 c96 -34 146 -106 157 -228 14 -143 -81 -306 -237
-407 -137 -89 -227 -100 -286 -36 -44 48 -56 101 -51 231 6 136 40 244 113
355 28 41 53 84 58 94 7 17 15 18 106 13 54 -4 117 -14 140 -22z"/>
<path d="M9965 25196 c-24 -24 -25 -29 -20 -113 16 -256 62 -591 104 -753 53
-208 74 -250 115 -234 30 12 30 56 1 194 -15 74 -31 164 -36 201 -11 92 -25
462 -20 534 9 137 8 146 -19 166 -14 10 -42 21 -62 24 -31 6 -41 3 -63 -19z"/>
<path d="M4962 24388 c-42 -14 -181 -136 -227 -198 -47 -64 -98 -178 -120
-269 -23 -96 -16 -250 15 -334 47 -125 143 -230 248 -271 107 -41 275 -27 399
34 110 54 210 195 249 350 23 90 15 213 -20 305 -86 228 -383 437 -544 383z
m147 -108 c87 -26 203 -102 242 -160 81 -121 104 -200 96 -334 -7 -117 -17
-148 -75 -238 -83 -126 -171 -172 -327 -171 -106 1 -161 20 -228 83 -49 45
-98 136 -117 219 -16 69 -8 239 15 301 8 25 26 56 39 70 13 14 32 43 41 65 9
22 23 51 31 64 l16 23 30 -36 c30 -37 55 -45 76 -24 18 18 14 46 -13 85 -17
27 -21 40 -14 49 23 28 103 30 188 4z"/>
<path d="M2379 24281 c-139 -145 -174 -210 -174 -325 0 -73 4 -88 37 -157 43
-88 126 -172 186 -189 133 -36 342 26 434 129 50 56 105 170 113 237 8 59 -6
149 -34 225 -24 64 -88 136 -146 164 -55 26 -150 31 -199 11 -35 -15 -41 -15
-56 -1 -32 29 -54 17 -161 -94z m416 -39 c15 -12 42 -41 59 -64 28 -39 31 -49
31 -118 0 -138 -76 -251 -201 -300 -85 -34 -231 -35 -292 -2 -59 32 -102 93
-102 147 0 68 76 197 176 299 49 50 103 65 215 62 71 -2 91 -6 114 -24z"/>
<path d="M7869 24258 c-9 -16 -10 -69 -6 -198 7 -205 36 -431 78 -620 17 -74
39 -181 49 -238 20 -115 39 -149 73 -131 18 10 19 18 14 93 -4 44 -18 130 -32
190 -78 337 -115 702 -83 821 10 39 10 50 -3 73 -20 37 -72 43 -90 10z"/>
<path d="M10163 23876 c-57 -18 -122 -57 -157 -94 -22 -24 -27 -36 -22 -57 6
-22 0 -34 -33 -70 -74 -80 -131 -225 -131 -331 0 -128 52 -235 135 -278 62
-33 199 -29 284 7 135 57 309 227 374 366 36 75 46 180 27 260 -17 70 -79 139
-162 177 -55 25 -76 29 -168 31 -67 2 -120 -2 -147 -11z m272 -106 c60 -29 87
-83 93 -182 4 -75 3 -82 -33 -155 -54 -110 -164 -219 -270 -269 -168 -80 -251
-47 -269 108 -6 47 -2 75 19 150 31 108 67 183 95 198 11 6 27 22 36 36 15 23
15 26 0 43 -9 9 -16 20 -16 23 0 5 98 48 140 62 8 2 48 5 89 5 55 1 85 -4 116
-19z"/>
<path d="M2891 23309 c-56 -7 -85 -16 -114 -36 -22 -15 -49 -32 -61 -38 -11
-6 -22 -18 -24 -28 -4 -21 27 -22 83 -2 70 26 157 30 218 10 65 -20 103 -53
143 -120 26 -46 29 -58 27 -135 -1 -92 -30 -195 -79 -277 -55 -94 -208 -219
-351 -286 -89 -41 -191 -49 -250 -18 -126 64 -136 248 -26 466 70 137 113 166
149 99 25 -49 49 -64 69 -43 13 13 14 20 1 62 -8 27 -33 73 -55 102 -51 68
-81 72 -111 16 -7 -14 -35 -56 -63 -95 -28 -39 -71 -109 -96 -156 l-46 -85 0
-115 c0 -75 5 -127 14 -150 53 -133 109 -206 186 -241 24 -11 64 -19 100 -19
52 0 74 6 146 43 97 48 284 192 348 267 63 74 109 155 133 233 17 57 20 86 15
170 -6 133 -33 219 -88 281 -42 47 -143 107 -176 105 -10 -1 -51 -5 -92 -10z"/>
<path d="M5075 22997 c-79 -27 -143 -67 -192 -121 -78 -85 -116 -178 -78 -192
21 -9 40 10 66 63 32 66 70 105 132 137 96 48 239 53 339 12 55 -24 135 -92
163 -141 58 -97 73 -258 35 -356 -27 -68 -91 -159 -141 -198 -115 -93 -262
-75 -367 44 -59 68 -77 133 -77 290 0 164 17 222 68 227 25 2 33 8 35 26 6 43
-42 77 -85 61 -72 -26 -122 -286 -89 -458 29 -149 97 -245 215 -300 47 -22 70
-26 141 -26 113 0 174 29 260 122 159 174 190 372 89 571 -34 68 -54 93 -103
133 -34 28 -90 64 -125 81 -55 28 -76 33 -155 35 -56 2 -106 -2 -131 -10z"/>
<path d="M10232 22968 c-37 -40 -43 -76 -43 -243 0 -294 24 -555 68 -750 17
-78 27 -95 54 -95 37 0 44 41 30 173 -18 173 -39 665 -31 735 4 32 12 68 19
80 20 37 13 79 -15 101 -34 27 -55 26 -82 -1z"/>
<path d="M8005 22877 c-16 -12 -17 -24 -11 -108 13 -173 37 -344 116 -803 17
-99 36 -188 41 -198 6 -12 19 -18 32 -16 19 3 22 10 25 52 3 45 -5 103 -54
411 -34 220 -64 472 -64 550 0 72 -3 88 -20 105 -23 23 -39 25 -65 7z"/>
<path d="M13348 22018 c-1 -18 -2 -46 -3 -63 -1 -16 -5 -121 -8 -232 -6 -195
-2 -232 23 -207 5 5 10 113 11 239 2 277 2 295 -11 295 -5 0 -11 -15 -12 -32z"/>
<path d="M16895 21755 c-357 -7 -819 -20 -1025 -29 -604 -25 -666 -27 -1055
-31 -204 -2 -378 -7 -388 -10 -9 -4 -24 -2 -32 5 -11 9 -21 8 -46 -4 -18 -9
-56 -16 -86 -16 -46 0 -58 -4 -79 -27 -14 -15 -23 -34 -22 -42 4 -21 59 -26
117 -10 34 9 184 13 561 14 325 2 699 10 1015 23 275 12 759 26 1075 31 316 6
654 13 750 16 96 3 292 1 435 -5 383 -15 505 -39 513 -101 2 -13 7 -28 12 -33
15 -15 56 3 68 29 46 101 -55 160 -318 185 -182 18 -789 20 -1495 5z"/>
<path d="M13339 21483 c-5 -53 -2 -103 6 -105 6 -2 11 22 12 55 2 32 -2 57 -7
57 -6 0 -10 -3 -11 -7z"/>
<path d="M13812 21431 c2 -7 7 -12 11 -12 12 1 9 15 -3 20 -7 2 -11 -2 -8 -8z"/>
<path d="M3055 21322 c-22 -10 -47 -27 -55 -37 -8 -10 -49 -44 -91 -76 -87
-66 -120 -102 -154 -169 -62 -122 -78 -312 -36 -422 43 -113 117 -176 234
-203 117 -27 210 -7 314 67 66 47 177 189 226 288 40 81 42 89 42 175 0 80 -3
95 -27 137 -38 63 -108 131 -165 160 -27 13 -62 38 -80 56 -25 25 -40 32 -71
32 -22 0 -52 2 -68 5 -17 3 -45 -2 -69 -13z m270 -186 c111 -47 160 -161 120
-276 -40 -114 -190 -291 -280 -331 -93 -41 -225 -33 -300 19 -64 43 -90 107
-90 217 0 82 3 96 31 150 67 126 186 214 320 234 68 11 156 5 199 -13z"/>
<path d="M13339 21298 c-6 -15 -5 -70 2 -74 5 -3 9 13 9 35 0 33 -5 52 -11 39z"/>
<path d="M13810 21240 c0 -16 5 -30 10 -30 6 0 10 14 10 30 0 17 -4 30 -10 30
-5 0 -10 -13 -10 -30z"/>
<path d="M10327 21199 c-167 -21 -368 -141 -332 -198 12 -20 52 -11 146 33
118 54 181 70 291 70 73 1 91 -2 115 -20 65 -49 87 -149 48 -224 -26 -50 -180
-199 -246 -238 -108 -63 -160 -76 -304 -77 -134 0 -163 7 -226 57 -51 41 -65
156 -29 250 30 76 113 186 155 204 18 7 36 18 40 24 10 16 -12 47 -45 60 -26
11 -36 10 -70 -5 -45 -20 -122 -121 -177 -231 -70 -143 -50 -271 60 -369 126
-114 398 -130 593 -35 132 64 293 215 352 329 42 83 44 154 7 227 -58 113
-195 165 -378 143z"/>
<path d="M7953 21175 c-29 -15 -63 -40 -75 -57 -26 -34 -55 -64 -123 -128
-107 -101 -156 -214 -135 -314 31 -149 184 -237 415 -237 234 0 360 70 452
250 53 105 35 227 -47 320 -34 38 -37 46 -15 37 16 -6 55 26 55 45 0 22 -67
75 -111 88 -25 8 -111 15 -204 18 -157 4 -161 3 -212 -22z m293 -95 c63 -36
106 -77 142 -138 23 -40 27 -58 27 -122 0 -91 -19 -135 -88 -202 -59 -58 -141
-87 -272 -95 -200 -12 -329 60 -351 195 -12 77 72 204 187 282 66 46 85 54
189 86 97 30 105 29 166 -6z"/>
<path d="M13325 21060 c-9 -14 4 -52 16 -45 12 8 12 55 0 55 -6 0 -13 -5 -16
-10z"/>
<path d="M13326 20961 c-4 -5 -2 -12 3 -15 5 -4 12 -2 15 3 4 5 2 12 -3 15 -5
4 -12 2 -15 -3z"/>
<path d="M13327 20784 c-4 -4 -7 -14 -7 -23 0 -11 3 -12 11 -4 6 6 10 16 7 23
-2 6 -7 8 -11 4z"/>
<path d="M13791 20683 c1 -16 4 -41 8 -58 6 -28 7 -27 14 19 4 26 4 52 1 57
-11 18 -24 8 -23 -18z"/>
<path d="M13320 20670 c0 -16 5 -30 10 -30 6 0 10 14 10 30 0 17 -4 30 -10 30
-5 0 -10 -13 -10 -30z"/>
<path d="M13780 20235 c0 -14 4 -25 9 -25 12 0 19 21 13 38 -8 21 -22 13 -22
-13z"/>
<path d="M10156 20191 c-34 -37 -45 -92 -46 -222 0 -155 24 -373 56 -498 26
-104 36 -121 70 -121 37 0 49 40 35 115 -12 70 -26 191 -42 360 -12 138 -2
229 30 274 27 38 26 57 -4 86 -29 30 -75 33 -99 6z"/>
<path d="M2998 20010 c-107 -17 -248 -88 -301 -153 -62 -76 -72 -103 -71 -197
0 -73 5 -95 31 -155 18 -39 34 -86 37 -105 22 -128 134 -250 275 -295 97 -32
267 -1 374 67 129 82 247 301 247 458 0 159 -108 315 -254 365 -59 21 -247 29
-338 15z m379 -139 c74 -35 109 -87 126 -185 9 -54 8 -77 -7 -139 -20 -85 -88
-210 -137 -251 -80 -68 -215 -112 -316 -103 -146 11 -283 135 -283 255 0 60 7
72 40 66 23 -5 31 -1 45 20 24 36 13 71 -26 85 -45 16 -79 14 -101 -6 -17 -15
-18 -14 -18 26 0 55 19 89 75 139 51 45 85 59 220 90 119 28 125 29 230 31 80
1 97 -2 152 -28z"/>
<path d="M7965 20014 c-78 -6 -92 -12 -133 -52 -22 -20 -62 -58 -90 -83 -37
-33 -52 -56 -57 -83 -8 -40 8 -71 33 -61 11 4 13 0 8 -17 -27 -94 -38 -170
-32 -243 7 -111 30 -170 86 -226 169 -169 441 -87 620 187 72 111 93 173 87
257 -11 127 -79 217 -216 285 -67 33 -81 36 -165 38 -50 1 -113 0 -141 -2z
m260 -100 c75 -35 140 -99 154 -150 14 -51 14 -142 0 -185 -16 -45 -94 -163
-137 -206 -55 -55 -137 -103 -207 -120 -60 -15 -68 -15 -109 1 -57 22 -111 77
-130 134 -36 104 -13 282 55 433 43 97 49 102 126 93 56 -6 62 -4 73 16 11 20
18 22 64 17 28 -3 78 -18 111 -33z"/>
<path d="M13771 19952 c-13 -25 2 -38 19 -16 9 10 10 18 3 25 -8 8 -14 5 -22
-9z"/>
<path d="M5416 19931 c-11 -12 -24 -61 -36 -136 -28 -166 -20 -239 50 -500 32
-117 63 -162 91 -129 9 12 7 35 -14 117 -15 56 -34 136 -43 177 -18 87 -20
279 -4 339 10 38 13 41 46 41 39 0 50 15 40 56 -4 16 -19 30 -41 40 -46 19
-69 18 -89 -5z"/>
<path d="M13775 19770 c-3 -5 -1 -10 4 -10 6 0 11 5 11 10 0 6 -2 10 -4 10 -3
0 -8 -4 -11 -10z"/>
<path d="M13764 19585 c-7 -17 4 -37 17 -30 12 8 12 45 -1 45 -6 0 -13 -7 -16
-15z"/>
<path d="M13760 19400 c0 -16 5 -30 10 -30 6 0 10 14 10 30 0 17 -4 30 -10 30
-5 0 -10 -13 -10 -30z"/>
<path d="M13746 19274 c-21 -54 8 -154 32 -107 13 27 3 123 -13 123 -7 0 -16
-7 -19 -16z"/>
<path d="M10205 19183 c-47 -25 -65 -44 -95 -103 -68 -134 -104 -350 -82 -482
25 -142 108 -228 220 -228 50 0 136 26 189 57 69 40 166 152 213 244 40 80 42
87 38 155 -6 87 -32 145 -100 219 -58 64 -146 110 -228 121 -30 3 -64 13 -75
20 -25 18 -43 17 -80 -3z m211 -129 c51 -25 104 -82 135 -148 48 -102 39 -153
-53 -289 -64 -95 -148 -145 -245 -146 -45 -1 -54 2 -77 29 -39 47 -49 100 -43
225 6 122 24 201 63 286 l26 56 81 1 c54 1 91 -4 113 -14z"/>
<path d="M13734 19095 c-9 -21 3 -45 21 -45 10 0 15 10 15 30 0 32 -26 43 -36
15z"/>
<path d="M8144 18979 c-38 -11 -70 -45 -77 -83 -11 -61 11 -281 39 -390 34
-134 66 -174 98 -123 8 12 5 45 -11 124 -31 151 -47 284 -39 335 6 36 12 46
39 58 38 18 49 57 21 77 -20 15 -26 15 -70 2z"/>
<path d="M5515 18941 c-15 -25 -26 -188 -21 -301 7 -142 42 -371 63 -412 14
-30 50 -38 59 -14 3 8 -4 65 -15 127 -43 239 -50 473 -15 502 52 43 52 44 23
81 -15 19 -30 26 -54 26 -19 0 -36 -4 -40 -9z"/>
<path d="M13735 18940 c-3 -6 -3 -19 0 -31 5 -16 10 -18 21 -8 18 15 18 49 0
49 -8 0 -18 -5 -21 -10z"/>
<path d="M2936 18911 c-39 -43 -52 -343 -22 -466 27 -104 81 -211 140 -273 73
-77 114 -96 206 -97 65 0 82 4 129 30 62 34 111 95 165 203 72 145 84 246 36
328 -58 102 -193 160 -353 152 -79 -4 -104 -10 -176 -42 -46 -20 -86 -35 -88
-32 -7 6 6 78 17 95 7 12 16 12 54 1 37 -10 49 -10 61 0 19 16 16 60 -5 70
-114 55 -138 60 -164 31z m501 -247 c125 -59 134 -132 40 -323 -50 -101 -105
-154 -178 -171 -145 -35 -251 65 -309 290 -28 111 -25 128 30 160 141 82 301
98 417 44z"/>
<path d="M13747 18843 c-10 -9 -9 -43 1 -43 15 0 30 22 25 36 -6 15 -16 18
-26 7z"/>
<path d="M13734 18695 c-3 -8 -3 -19 1 -25 11 -18 25 -11 25 15 0 27 -17 34
-26 10z"/>
<path d="M13730 18581 c-15 -29 -12 -41 9 -41 20 0 37 32 26 50 -10 16 -23 12
-35 -9z"/>
<path d="M23383 18505 c-97 -30 -176 -97 -249 -210 -105 -165 -129 -345 -104
-791 10 -183 20 -221 57 -230 32 -8 53 12 53 50 0 31 4 34 88 74 134 63 238
136 339 237 110 110 126 147 99 219 -24 62 -86 114 -218 182 -60 30 -108 57
-106 59 2 2 31 23 64 48 73 54 109 98 135 167 37 97 21 169 -43 194 -45 19
-59 19 -115 1z m77 -100 c33 -40 -27 -139 -128 -215 -73 -54 -94 -82 -94 -125
0 -38 25 -58 123 -97 96 -39 193 -99 216 -134 14 -21 13 -26 -5 -56 -23 -37
-95 -108 -158 -156 -58 -44 -266 -172 -281 -172 -14 0 -20 56 -28 260 -12 309
40 502 169 632 70 70 156 99 186 63z"/>
<path d="M21813 18455 c-153 -77 -247 -315 -288 -730 -18 -191 -28 -240 -52
-262 -12 -12 -23 -28 -23 -36 0 -44 71 -49 168 -11 37 14 85 32 107 41 117 43
307 170 365 243 39 49 70 117 70 155 0 90 -56 169 -145 206 -30 13 -55 26 -55
29 0 3 10 26 22 51 41 81 25 233 -31 298 -37 44 -74 48 -138 16z m62 -91 c25
-10 45 -59 45 -113 0 -39 -9 -67 -40 -127 -22 -43 -40 -85 -40 -94 0 -27 22
-40 65 -40 90 0 174 -74 161 -143 -9 -49 -74 -127 -151 -181 -83 -57 -303
-168 -317 -160 -6 4 -8 26 -4 53 3 25 10 107 16 181 18 236 64 429 128 539 45
79 86 104 137 85z"/>
<path d="M13725 18417 c-17 -42 -8 -122 15 -122 11 0 15 17 17 72 4 81 -10
102 -32 50z"/>
<path d="M19631 18223 c-63 -58 -139 -249 -201 -502 -29 -120 -35 -132 -66
-156 -37 -29 -41 -44 -19 -78 13 -21 11 -32 -26 -137 -58 -164 -55 -214 13
-197 32 8 45 39 88 215 24 98 37 135 51 143 11 5 72 23 137 39 65 16 125 32
134 35 12 5 18 -12 32 -102 20 -136 21 -183 2 -183 -40 0 -29 -63 14 -85 34
-18 62 -9 81 26 13 26 5 124 -23 263 -10 54 -15 102 -11 106 4 4 24 13 45 19
71 23 56 77 -19 68 -24 -2 -43 -4 -43 -3 -1 2 -37 239 -59 385 -22 142 -35
171 -77 171 -13 0 -37 -12 -53 -27z m39 -96 c0 -22 45 -312 57 -369 9 -43 14
-80 12 -82 -12 -12 -249 -62 -249 -52 0 14 55 209 91 326 32 102 67 180 81
180 4 0 8 -1 8 -3z"/>
<path d="M13720 18198 c0 -53 15 -81 30 -58 14 21 12 62 -4 83 -20 26 -26 21
-26 -25z"/>
<path d="M18470 18230 c-427 -27 -617 -32 -741 -21 -100 9 -134 9 -165 -1 -37
-12 -39 -15 -39 -53 l0 -40 125 -4 c241 -8 527 -3 780 14 175 12 304 16 412
11 151 -6 158 -5 168 14 16 30 4 57 -33 69 -43 15 -339 22 -507 11z"/>
<path d="M10393 18165 c-12 -8 -32 -41 -44 -73 -38 -100 -29 -280 35 -671 26
-164 41 -186 87 -140 24 24 25 6 -11 364 -25 255 -23 351 8 412 29 55 28 77
-4 102 -32 25 -43 26 -71 6z"/>
<path d="M8260 18102 c-40 -18 -81 -59 -96 -96 -14 -34 -17 -72 -16 -226 1
-225 15 -429 31 -458 6 -12 20 -22 30 -22 41 0 43 15 39 345 l-3 315 43 39
c47 43 56 83 23 101 -22 11 -29 12 -51 2z"/>
<path d="M21225 18065 c-3 -8 -7 -22 -10 -30 -8 -26 13 -64 40 -71 58 -15 101
59 57 99 -23 21 -81 22 -87 2z"/>
<path d="M13714 18055 c-7 -18 14 -47 27 -39 5 3 9 16 9 30 0 27 -27 34 -36 9z"/>
<path d="M5559 17938 c-19 -31 -20 -43 -15 -228 5 -193 25 -333 69 -480 17
-53 40 -72 62 -49 15 14 13 29 -14 165 -55 279 -64 475 -23 532 9 14 21 31 27
38 16 23 -8 49 -48 52 -32 3 -39 -1 -58 -30z"/>
<path d="M13716 17951 c-3 -5 -3 -16 0 -25 3 -8 2 -21 -2 -28 -5 -7 -7 -26 -5
-42 1 -16 -3 -40 -11 -54 -11 -22 -11 -26 9 -39 20 -14 21 -17 7 -37 -21 -33
-15 -120 9 -124 18 -4 20 20 20 258 0 86 -10 119 -27 91z"/>
<path d="M14706 17917 c-22 -16 -25 3 42 -344 23 -116 44 -247 48 -289 6 -62
12 -83 30 -101 30 -30 65 -18 81 28 14 39 9 250 -8 314 -5 22 -20 113 -33 203
-14 100 -29 169 -37 178 -22 21 -100 29 -123 11z"/>
<path d="M17627 17894 c-40 -46 -135 -244 -177 -370 l-42 -124 -38 -10 c-22
-6 -46 -17 -55 -26 -21 -22 -19 -61 5 -76 11 -7 20 -16 20 -19 0 -4 -18 -29
-40 -55 -33 -40 -40 -56 -38 -84 3 -32 6 -35 39 -38 47 -4 89 28 89 69 0 15
12 53 27 83 31 64 15 59 266 82 217 20 191 31 256 -102 45 -92 64 -113 89 -97
30 18 25 52 -22 135 -25 44 -46 84 -46 89 0 4 9 10 19 14 11 3 25 12 31 20 17
21 -4 45 -39 45 -53 0 -72 12 -95 59 -26 50 -100 230 -135 328 -24 65 -52 103
-76 103 -9 0 -25 -12 -38 -26z m72 -186 c19 -51 54 -132 78 -180 23 -48 43
-92 43 -96 0 -8 -320 -24 -329 -16 -4 4 104 274 135 337 14 26 28 47 32 47 4
0 23 -42 41 -92z"/>
<path d="M22546 17879 c-28 -41 -19 -82 25 -104 43 -23 86 -19 104 9 32 48 -4
104 -73 113 -33 4 -42 2 -56 -18z"/>
<path d="M19046 17708 c-37 -52 0 -115 72 -125 36 -5 47 -2 67 17 47 45 27
105 -40 120 -62 15 -83 12 -99 -12z"/>
<path d="M23680 17633 c-35 -7 -61 -33 -58 -57 3 -17 15 -22 81 -32 140 -22
275 -105 297 -182 26 -94 3 -161 -80 -235 -66 -59 -143 -86 -186 -66 -44 21
-50 60 -34 213 19 186 18 216 -2 230 -13 8 -23 8 -35 0 -34 -21 -45 -82 -47
-259 -1 -191 9 -230 68 -266 103 -63 306 38 387 192 19 35 24 60 24 119 0 65
-4 84 -33 143 -35 71 -66 99 -169 151 -44 22 -166 59 -183 54 -3 0 -16 -3 -30
-5z"/>
<path d="M3402 17595 c-206 -57 -452 -244 -520 -394 -29 -66 -33 -144 -8 -169
25 -25 41 -8 97 98 44 83 110 170 130 170 3 0 6 -51 5 -112 -1 -123 6 -144 62
-204 64 -69 144 -87 242 -54 96 32 167 77 240 150 70 71 111 141 137 242 30
118 -7 212 -104 259 -60 30 -199 37 -281 14z m269 -108 c47 -31 56 -72 35
-148 -47 -171 -214 -309 -384 -318 -65 -3 -76 -1 -98 20 -42 40 -55 136 -34
250 13 70 26 83 67 67 52 -20 84 23 47 63 -15 16 -14 19 15 33 48 25 180 54
252 55 53 1 73 -3 100 -22z"/>
<path d="M20055 17552 c-79 -24 -161 -67 -169 -88 -11 -29 17 -48 52 -36 l30
10 -1 -126 c-2 -112 1 -132 20 -167 26 -49 48 -70 96 -90 97 -40 213 0 315
110 69 74 86 114 80 196 -5 76 -43 130 -117 172 -47 27 -64 31 -150 33 -72 3
-111 -1 -156 -14z m237 -82 c50 -14 95 -54 103 -91 15 -67 -74 -184 -168 -224
-51 -21 -119 -19 -148 4 -22 17 -24 29 -27 116 -4 107 -1 126 28 173 19 32 21
32 97 32 43 0 95 -5 115 -10z"/>
<path d="M22150 17480 c-11 -11 -20 -28 -21 -37 -1 -10 -3 -80 -5 -155 -2 -84
-11 -175 -24 -236 -24 -119 -25 -146 -5 -162 56 -46 98 84 121 370 7 96 14
181 14 188 0 14 -36 52 -50 52 -5 0 -19 -9 -30 -20z"/>
<path d="M18514 17473 c-26 -18 -64 -88 -64 -119 0 -18 12 -79 26 -136 18 -72
28 -147 33 -248 9 -157 19 -193 54 -188 22 3 22 5 21 173 -2 135 -6 188 -23
258 -26 109 -26 112 0 148 14 21 19 41 17 71 -3 38 -6 43 -28 46 -14 1 -30 -1
-36 -5z"/>
<path d="M13704 17379 c-3 -6 -1 -16 5 -22 9 -9 14 -8 21 3 9 15 4 30 -10 30
-5 0 -12 -5 -16 -11z"/>
<path d="M13699 17253 c-3 -60 6 -77 26 -50 10 14 11 26 3 48 -13 37 -28 37
-29 2z"/>
<path d="M13700 17135 c0 -8 5 -15 10 -15 6 0 10 7 10 15 0 8 -4 15 -10 15 -5
0 -10 -7 -10 -15z"/>
<path d="M13697 17023 c-10 -20 -1 -68 13 -68 8 0 15 6 14 13 -1 6 -2 23 -2
37 -2 24 -16 34 -25 18z"/>
<path d="M18085 16899 c-93 -26 -259 -45 -561 -65 -210 -14 -330 -15 -759 -9
-403 7 -1284 14 -1995 18 -41 0 -173 -2 -293 -5 -222 -6 -247 -11 -247 -47 1
-48 -53 -46 1042 -47 563 0 1201 -4 1418 -8 623 -13 1212 20 1428 81 60 17 93
53 75 82 -14 22 -26 22 -108 0z"/>
<path d="M13670 16876 c0 -30 26 -54 42 -38 9 9 9 18 0 37 -15 32 -42 33 -42
1z"/>
<path d="M13290 16864 c0 -8 5 -12 10 -9 6 3 10 10 10 16 0 5 -4 9 -10 9 -5 0
-10 -7 -10 -16z"/>
<path d="M13690 16715 c0 -17 5 -25 13 -22 6 2 12 12 12 22 0 10 -6 20 -12 23
-8 2 -13 -6 -13 -23z"/>
<path d="M13690 16625 c0 -8 5 -15 10 -15 6 0 10 7 10 15 0 8 -4 15 -10 15 -5
0 -10 -7 -10 -15z"/>
<path d="M15020 16606 c-36 -12 -82 -31 -102 -42 -42 -22 -218 -171 -218 -185
0 -5 -28 -23 -62 -40 -108 -55 -170 -99 -262 -188 -128 -125 -216 -265 -232
-367 -12 -85 44 -186 126 -229 92 -48 231 -39 409 24 201 72 341 162 482 309
104 108 139 155 204 277 91 168 77 340 -32 415 -81 55 -201 65 -313 26z m270
-124 c33 -16 35 -21 38 -71 6 -98 -52 -243 -145 -364 -167 -217 -404 -360
-670 -403 -102 -16 -195 -8 -239 21 -81 53 -7 224 175 406 108 107 118 114
296 194 74 33 84 36 121 29 23 -4 40 -16 52 -36 30 -51 92 -46 92 7 0 31 -72
110 -111 121 l-31 9 43 29 c74 48 163 74 259 75 62 1 94 -4 120 -17z"/>
<path d="M2440 16588 c-72 -21 -90 -31 -96 -54 -12 -48 -8 -49 207 -62 211
-13 531 -14 584 -3 30 6 46 35 28 51 -4 5 -100 13 -213 20 -231 12 -325 24
-357 46 -25 16 -100 17 -153 2z"/>
<path d="M13685 16579 c-9 -13 3 -79 14 -79 5 0 12 12 15 26 11 44 -11 83 -29
53z"/>
<path d="M5737 16408 c-72 -10 -144 -55 -243 -153 -138 -136 -184 -241 -184
-422 0 -137 25 -215 92 -288 97 -107 221 -124 372 -52 95 45 175 119 254 236
236 347 257 593 57 671 -33 14 -273 19 -348 8z m373 -133 c31 -32 34 -41 33
-88 -2 -90 -69 -247 -170 -399 -92 -138 -157 -196 -266 -237 -86 -31 -154 -28
-206 9 -174 126 -158 445 31 634 35 35 73 68 85 74 19 10 17 4 -13 -46 -24
-38 -34 -67 -32 -87 5 -47 36 -39 67 17 37 65 56 84 124 118 68 34 112 37 180
14 46 -15 87 -8 87 16 0 23 48 8 80 -25z"/>
<path d="M13682 16364 c-12 -25 -3 -96 12 -91 12 4 16 80 5 98 -5 8 -10 5 -17
-7z"/>
<path d="M8383 16325 c-65 -20 -127 -60 -173 -112 -72 -82 -100 -156 -63 -170
17 -7 40 16 100 100 64 90 169 138 262 119 100 -21 152 -78 159 -174 4 -53 1
-67 -33 -134 -67 -137 -211 -263 -379 -333 -176 -73 -296 -46 -296 68 0 119
49 178 210 258 58 28 125 56 150 63 43 12 45 11 70 -19 19 -23 33 -31 58 -31
40 0 49 18 33 71 -29 98 -132 90 -362 -27 -167 -85 -214 -135 -238 -255 -24
-117 24 -213 120 -239 101 -28 275 17 427 110 141 87 274 239 317 360 39 111
-3 254 -92 310 -75 48 -185 62 -270 35z"/>
<path d="M10583 16325 c-59 -16 -118 -45 -178 -85 -22 -14 -80 -48 -130 -74
-160 -86 -242 -153 -282 -230 -49 -97 -15 -198 85 -254 165 -92 523 34 698
246 65 80 134 209 134 252 0 51 -37 107 -88 132 -57 27 -167 33 -239 13z m185
-102 c41 -30 39 -62 -9 -145 -80 -138 -208 -239 -382 -300 -91 -33 -199 -38
-247 -13 -33 17 -60 61 -60 97 0 74 122 167 343 262 38 17 60 33 66 49 9 22
71 55 136 71 43 10 126 -1 153 -21z"/>
<path d="M13265 16230 c1 -44 5 -83 9 -87 17 -17 27 20 24 88 -2 58 -6 74 -19
77 -13 2 -15 -9 -14 -78z"/>
<path d="M3504 16270 c-32 -13 -38 -28 -40 -100 0 -36 -6 -193 -13 -350 -14
-334 -8 -510 20 -543 14 -18 21 -20 36 -11 16 10 19 36 25 300 9 379 22 545
48 599 25 51 25 67 3 87 -25 22 -54 28 -79 18z"/>
<path d="M13680 16215 c0 -8 5 -15 10 -15 6 0 10 7 10 15 0 8 -4 15 -10 15 -5
0 -10 -7 -10 -15z"/>
<path d="M13672 16113 c1 -15 -2 -35 -6 -43 -6 -15 18 -60 27 -50 3 3 7 30 8
60 3 45 1 55 -13 58 -13 3 -17 -3 -16 -25z"/>
<path d="M13257 16034 c-16 -16 -7 -44 14 -44 15 0 20 5 17 22 -3 22 -19 33
-31 22z"/>
<path d="M13252 15938 c5 -32 28 -35 28 -4 0 17 -5 26 -16 26 -10 0 -14 -7
-12 -22z"/>
<path d="M13662 15858 c-14 -14 2 -48 22 -48 17 0 27 25 20 45 -7 18 -26 19
-42 3z"/>
<path d="M13250 15736 c0 -31 5 -56 10 -56 6 0 10 22 10 49 0 28 -4 53 -10 56
-6 4 -10 -15 -10 -49z"/>
<path d="M13660 15691 c0 -6 5 -13 10 -16 6 -3 10 1 10 9 0 9 -4 16 -10 16 -5
0 -10 -4 -10 -9z"/>
<path d="M13670 15550 c0 -19 3 -21 12 -12 9 9 9 15 0 24 -9 9 -12 7 -12 -12z"/>
<path d="M13250 15496 c0 -35 4 -46 16 -46 12 0 14 9 12 42 -4 59 -28 63 -28
4z"/>
<path d="M10383 15456 c-66 -31 -71 -48 -43 -167 26 -110 105 -380 125 -426
17 -37 43 -43 68 -15 23 25 21 45 -8 159 -29 110 -55 243 -62 318 -5 49 -4 51
28 65 42 19 50 51 17 74 -31 22 -64 20 -125 -8z"/>
<path d="M8520 15356 c-30 -7 -72 -20 -94 -29 -21 -9 -54 -17 -73 -17 -76 0
-150 -51 -244 -168 -79 -98 -132 -206 -137 -283 -11 -153 84 -249 249 -249 89
0 148 18 243 74 106 63 281 259 365 407 74 132 19 233 -147 268 -64 13 -91 13
-162 -3z m150 -77 c55 -12 100 -53 100 -89 0 -38 -40 -110 -121 -216 -87 -116
-176 -199 -259 -243 -117 -63 -267 -51 -317 25 -35 54 -14 181 49 282 11 18
43 48 72 67 28 19 72 50 99 69 39 29 53 34 82 29 39 -6 65 9 65 37 0 12 15 22
53 33 62 18 116 20 177 6z"/>
<path d="M13652 15351 c4 -13 18 -16 19 -4 0 4 -5 9 -11 12 -7 2 -11 -2 -8 -8z"/>
<path d="M5887 15336 c-98 -35 -217 -134 -254 -211 -8 -17 -36 -43 -65 -60
-84 -49 -151 -122 -171 -184 -38 -120 -8 -254 68 -301 123 -76 343 13 535 217
132 139 211 302 197 405 -7 51 -50 106 -101 129 -49 22 -153 25 -209 5z m176
-95 c70 -27 75 -85 18 -195 -102 -197 -293 -356 -476 -397 -48 -11 -60 -10
-90 4 -50 24 -69 67 -61 139 8 75 24 106 83 155 109 90 134 94 191 33 45 -49
89 -61 116 -32 14 16 15 24 6 41 -6 12 -17 21 -25 21 -8 0 -32 16 -54 35 -21
19 -44 35 -50 35 -23 0 -10 28 27 57 107 86 244 131 315 104z"/>
<path d="M3559 15255 c-58 -32 -103 -215 -121 -491 -9 -142 -9 -191 0 -222 14
-45 39 -60 71 -42 19 10 20 20 20 163 -1 158 7 230 42 383 20 87 27 104 73
168 15 21 16 29 6 41 -16 19 -57 19 -91 0z"/>
<path d="M13230 15216 c0 -22 11 -46 21 -46 5 0 9 14 9 30 0 20 -5 30 -15 30
-8 0 -15 -6 -15 -14z"/>
<path d="M13646 15152 c-7 -12 4 -52 15 -52 12 0 12 47 0 55 -5 3 -12 2 -15
-3z"/>
<path d="M13224 15089 c-10 -17 13 -36 27 -22 12 12 4 33 -11 33 -5 0 -12 -5
-16 -11z"/>
<path d="M13650 15025 c0 -8 5 -15 10 -15 6 0 10 7 10 15 0 8 -4 15 -10 15 -5
0 -10 -7 -10 -15z"/>
<path d="M13230 15005 c0 -8 7 -15 15 -15 8 0 15 7 15 15 0 8 -7 15 -15 15 -8
0 -15 -7 -15 -15z"/>
<path d="M13639 14973 c-4 -64 1 -177 9 -185 19 -19 30 24 27 102 -3 95 -2 90
-20 90 -8 0 -15 -3 -16 -7z"/>
<path d="M13229 14888 c-6 -11 -5 -119 1 -123 14 -8 33 24 25 42 -4 10 -7 33
-6 51 2 17 -2 32 -8 32 -6 0 -12 -1 -12 -2z"/>
<path d="M13635 14739 c-5 -13 -1 -27 8 -37 14 -14 16 -13 22 11 11 43 -17 67
-30 26z"/>
<path d="M13220 14660 c0 -5 5 -10 10 -10 6 0 10 5 10 10 0 6 -4 10 -10 10 -5
0 -10 -4 -10 -10z"/>
<path d="M13635 14608 c-9 -62 -14 -124 -19 -231 -2 -56 1 -80 11 -89 7 -6 16
-9 18 -6 9 9 18 159 17 262 -2 113 -16 146 -27 64z"/>
<path d="M13217 14494 c-3 -3 -1 -17 4 -31 5 -14 7 -35 3 -46 -4 -13 -2 -18 7
-15 21 7 34 65 19 83 -13 16 -23 19 -33 9z"/>
<path d="M10499 14457 c-52 -20 -162 -82 -181 -104 -29 -32 -69 -131 -81 -197
-14 -80 2 -155 44 -220 45 -67 89 -91 169 -91 156 1 309 117 405 309 47 92 47
145 3 212 -48 72 -106 98 -228 101 -62 2 -108 -1 -131 -10z m215 -102 c15 -10
36 -36 47 -57 17 -34 19 -44 8 -76 -47 -147 -220 -304 -318 -288 -83 13 -119
114 -87 244 21 85 38 109 91 132 23 10 46 24 50 30 25 41 155 50 209 15z"/>
<path d="M13216 14381 c-4 -5 -1 -13 5 -17 7 -4 9 -21 5 -48 -6 -37 -5 -40 9
-26 22 23 25 93 3 98 -9 2 -19 -1 -22 -7z"/>
<path d="M13206 14252 c-3 -5 -4 -27 -2 -48 3 -30 8 -39 22 -39 16 0 19 8 19
45 0 34 -4 46 -17 48 -9 2 -19 -1 -22 -6z"/>
<path d="M13627 14253 c-3 -5 -6 -30 -7 -58 -1 -27 -2 -63 -3 -80 -1 -20 3
-30 15 -33 20 -4 28 24 16 57 -5 14 -4 37 3 58 6 19 8 40 5 48 -6 16 -22 20
-29 8z"/>
<path d="M5601 14219 c-28 -26 -69 -114 -101 -214 -17 -54 -24 -103 -28 -213
-8 -243 25 -328 153 -392 61 -31 78 -35 146 -35 65 0 85 5 141 33 119 58 193
139 269 293 76 154 85 269 29 379 -72 142 -197 192 -351 140 l-60 -21 -18 22
c-14 17 -31 22 -87 26 -62 4 -72 3 -93 -18z m129 -77 c0 -5 -14 -21 -31 -38
-44 -41 -99 -119 -99 -138 0 -41 33 -27 109 48 82 79 131 108 218 126 61 13
125 0 161 -33 100 -93 101 -233 4 -420 -66 -127 -170 -215 -283 -239 -94 -19
-205 27 -245 104 -21 41 -35 232 -23 310 13 83 54 215 79 256 17 28 25 32 65
32 25 0 45 -4 45 -8z"/>
<path d="M8302 14202 c-29 -29 -37 -106 -36 -322 1 -188 15 -296 48 -374 13
-32 20 -37 43 -34 33 4 33 7 8 157 -23 137 -18 434 8 495 26 59 20 80 -25 91
-19 5 -32 1 -46 -13z"/>
<path d="M3483 14081 c-62 -29 -73 -58 -73 -200 0 -139 24 -373 45 -448 12
-42 21 -54 41 -59 49 -12 56 8 44 137 -25 275 -30 345 -24 379 10 61 32 127
50 155 17 26 17 28 -1 41 -24 18 -31 17 -82 -5z"/>
<path d="M13207 14053 c-9 -63 -3 -156 9 -160 17 -6 34 51 34 109 0 82 -34
121 -43 51z"/>
<path d="M13615 14030 c-9 -14 5 -120 16 -120 5 0 10 6 10 13 2 18 4 29 13 60
11 38 -21 76 -39 47z"/>
<path d="M13204 13869 c-11 -18 -12 -269 -1 -276 14 -9 37 20 36 47 -2 146 -7
222 -16 231 -8 8 -13 7 -19 -2z"/>
<path d="M13625 13841 c-3 -5 -1 -12 5 -16 5 -3 10 1 10 9 0 18 -6 21 -15 7z"/>
<path d="M13614 13745 c-8 -19 3 -65 15 -65 12 0 25 56 16 70 -9 15 -25 12
-31 -5z"/>
<path d="M13610 13630 c0 -13 5 -20 13 -17 6 2 12 10 12 17 0 7 -6 15 -12 18
-8 2 -13 -5 -13 -18z"/>
<path d="M13606 13578 c-2 -13 -5 -32 -5 -43 0 -11 -4 -39 -7 -63 -4 -25 -2
-48 5 -55 6 -8 7 -17 1 -23 -8 -9 -24 -208 -21 -266 3 -48 4 -169 2 -263 -1
-49 1 -111 5 -137 3 -26 3 -55 -2 -65 -4 -10 -9 -76 -11 -148 -2 -71 -6 -186
-9 -255 -7 -173 -7 -171 6 -184 26 -26 36 20 39 181 3 214 9 437 17 688 4 116
7 251 7 300 0 50 -1 115 -1 145 0 30 0 88 1 129 1 51 -2 76 -10 78 -7 3 -14
-6 -17 -19z"/>
<path d="M13192 13460 c1 -45 13 -51 30 -16 13 29 5 56 -17 56 -11 0 -14 -10
-13 -40z"/>
<path d="M10413 13394 c-40 -31 -41 -41 -13 -279 11 -93 25 -223 32 -289 14
-141 32 -170 84 -132 17 13 19 29 22 178 2 96 -3 220 -12 302 -14 138 -14 140
7 177 18 31 19 39 8 53 -22 26 -90 21 -128 -10z"/>
<path d="M13189 13383 c0 -5 -3 -53 -5 -108 -3 -55 -5 -116 -6 -135 -3 -62 11
-112 30 -108 13 3 16 12 15 38 -4 55 -3 98 1 200 3 58 1 99 -6 107 -12 14 -27
17 -29 6z"/>
<path d="M8412 13169 c-37 -36 -38 -49 -22 -244 18 -204 37 -288 68 -300 8 -3
22 1 30 9 12 12 12 43 -3 235 l-18 222 22 22 c23 26 27 57 9 75 -21 21 -53 13
-86 -19z"/>
<path d="M3525 13103 c-37 -9 -83 -52 -105 -99 -22 -45 -23 -54 -16 -213 7
-185 32 -403 50 -441 15 -33 41 -37 59 -8 12 19 13 55 5 223 -14 294 -2 421
42 478 24 30 26 53 4 61 -9 3 -16 5 -17 5 -1 -1 -11 -4 -22 -6z"/>
<path d="M5912 13050 c-38 -9 -99 -48 -156 -100 -22 -20 -55 -45 -72 -53 -47
-24 -96 -87 -147 -186 -58 -115 -81 -213 -75 -334 5 -108 41 -204 91 -239 43
-31 114 -35 171 -10 107 48 239 214 321 403 56 133 79 237 73 344 -6 100 -25
140 -81 166 -44 20 -72 22 -125 9z m114 -104 c16 -12 19 -27 18 -98 -1 -291
-300 -727 -443 -647 -90 50 -94 269 -10 458 25 57 37 73 58 77 14 4 49 28 76
54 28 26 63 50 78 54 20 5 29 14 33 36 12 55 142 101 190 66z"/>
<path d="M13179 12968 c0 -24 -2 -82 -5 -129 -4 -63 -2 -89 7 -94 23 -15 40
27 38 90 -2 33 1 74 5 91 5 22 3 34 -9 44 -8 7 -15 19 -15 26 0 8 -4 14 -10
14 -5 0 -10 -19 -11 -42z"/>
<path d="M13172 12707 c-7 -8 -11 -93 -12 -232 0 -121 -2 -258 -5 -305 -5 -91
4 -125 27 -102 9 9 14 54 15 150 3 187 12 430 19 470 4 27 2 32 -14 32 -11 0
-24 -6 -30 -13z"/>
<path d="M16025 12149 c-209 -5 -625 -18 -925 -30 -300 -12 -630 -21 -733 -21
-195 2 -227 -3 -227 -38 0 -42 24 -50 153 -50 140 0 570 16 827 30 96 5 317
12 490 15 173 4 448 10 610 15 488 14 1435 1 1905 -26 244 -14 669 -48 725
-59 14 -3 81 -9 150 -15 69 -5 172 -14 230 -20 284 -27 463 -35 488 -21 24 13
29 43 9 59 -7 6 -96 16 -198 21 -184 10 -363 26 -924 81 -623 61 -1525 81
-2580 59z"/>
<path d="M13572 12038 c-14 -14 -16 -67 -2 -88 9 -13 12 -12 25 4 18 24 19 56
2 79 -10 14 -15 15 -25 5z"/>
<path d="M13157 12003 c-8 -13 -13 -280 -5 -288 17 -17 26 12 33 102 4 54 11
103 15 108 13 16 -4 79 -22 83 -9 2 -18 -1 -21 -5z"/>
<path d="M13572 11888 c-7 -7 -12 -29 -12 -50 0 -20 -7 -88 -16 -150 -12 -86
-13 -130 -6 -188 9 -65 8 -281 0 -390 -2 -29 0 -35 17 -35 17 0 20 7 22 50 0
28 5 115 10 195 4 80 7 171 6 203 -4 98 -3 109 3 229 6 120 -1 159 -24 136z"/>
<path d="M13152 11663 c-9 -16 -15 -145 -12 -250 1 -30 0 -51 -1 -85 -5 -141
-4 -198 6 -231 9 -33 9 -46 -2 -68 -10 -20 -11 -34 -4 -47 7 -13 7 -22 -2 -31
-12 -12 -16 -135 -16 -496 0 -135 7 -181 25 -163 13 13 14 44 28 533 3 83 10
166 15 185 8 26 7 49 -5 98 -13 50 -14 73 -6 101 6 20 11 83 12 141 0 58 1
114 1 125 1 11 -1 57 -3 102 -4 87 -18 120 -36 86z"/>
<path d="M8640 11365 c-30 -15 -75 -43 -100 -64 -25 -21 -56 -42 -70 -46 -53
-16 -137 -65 -183 -105 -97 -86 -194 -254 -222 -385 -19 -90 -19 -129 1 -194
13 -45 20 -55 51 -68 173 -72 594 273 715 585 26 66 29 86 26 154 -3 72 -6 80
-35 109 -44 45 -108 50 -183 14z m114 -56 c118 -54 -24 -347 -273 -565 -95
-83 -241 -164 -296 -164 -150 0 -11 400 187 542 28 20 30 20 44 2 13 -18 15
-17 44 14 17 18 42 37 56 42 32 13 125 13 157 1 35 -14 62 7 53 42 -4 19 -18
30 -53 43 l-47 18 40 18 c47 21 55 22 88 7z"/>
<path d="M10302 11365 c-96 -42 -278 -182 -345 -264 -99 -123 -102 -276 -6
-384 110 -125 315 -109 541 44 161 109 450 379 464 433 16 65 -24 82 -161 67
-282 -31 -371 -35 -447 -21 l-73 14 46 13 c58 17 108 66 93 91 -14 22 -70 26
-112 7z m-50 -157 c4 -32 74 -65 152 -73 35 -4 117 -2 182 5 65 7 146 14 178
17 l60 6 -20 -25 c-26 -33 -258 -227 -350 -294 -82 -58 -185 -100 -270 -109
-50 -5 -66 -3 -103 17 -120 62 -131 209 -25 327 42 46 170 151 186 151 4 0 8
-10 10 -22z"/>
<path d="M5771 11126 c-6 -7 -19 -96 -28 -197 -13 -156 -14 -206 -4 -324 14
-160 36 -284 55 -303 11 -11 16 -11 29 3 18 17 17 36 -4 225 -12 111 -11 228
2 370 10 108 12 117 40 142 35 32 37 61 7 82 -28 20 -82 21 -97 2z"/>
<path d="M3423 11041 c-44 -28 -66 -64 -59 -98 3 -15 11 -80 17 -143 12 -124
42 -289 59 -320 13 -24 43 -26 60 -5 10 12 11 43 5 133 -5 64 -9 191 -10 282
-2 154 -3 165 -21 168 -10 1 -33 -7 -51 -17z"/>
<path d="M13545 11038 c-13 -35 -25 -601 -14 -620 4 -6 3 -23 -2 -36 -12 -30
2 -49 20 -28 9 11 14 87 17 273 2 142 6 286 9 321 6 66 0 102 -16 102 -5 0
-12 -6 -14 -12z"/>
<path d="M13523 10275 c3 -19 2 -37 -4 -40 -5 -4 -9 -23 -8 -43 0 -20 0 -48
-1 -62 -1 -45 11 -130 19 -130 23 0 32 34 30 107 -1 43 0 85 1 93 2 8 2 36 2
63 -2 41 -5 47 -23 47 -19 0 -21 -4 -16 -35z"/>
<path d="M13124 10239 c-7 -12 -17 -224 -16 -368 0 -51 4 -76 13 -82 24 -15
31 -10 26 19 -3 17 1 34 11 45 15 17 15 22 0 64 -13 35 -14 52 -6 66 6 11 8
37 5 58 -3 20 0 42 6 48 8 8 7 18 -2 35 -8 15 -11 38 -6 63 4 29 2 43 -9 52
-11 9 -16 9 -22 0z"/>
<path d="M8415 10223 c-87 -12 -122 -33 -190 -111 -78 -90 -127 -174 -171
-292 -63 -167 -78 -340 -36 -413 25 -42 88 -68 171 -69 58 0 81 5 133 29 155
73 305 236 379 411 28 65 33 90 33 157 1 69 -4 89 -30 146 -32 67 -63 97 -126
123 -38 16 -120 25 -163 19z m166 -106 c79 -53 102 -162 60 -281 -49 -140
-204 -318 -328 -377 -110 -52 -212 -48 -243 10 -23 44 -3 178 49 321 56 153
130 254 216 295 50 23 61 25 86 15 23 -10 32 -10 45 1 22 18 57 37 70 38 6 1
26 -9 45 -22z"/>
<path d="M10244 10113 c-66 -61 -75 -88 -92 -278 -11 -132 -12 -188 -4 -254
12 -91 23 -111 57 -111 39 0 50 26 51 124 0 105 30 385 45 424 6 15 24 41 41
58 41 43 35 68 -17 72 -35 3 -46 -2 -81 -35z"/>
<path d="M3431 10045 c-38 -32 -86 -128 -102 -203 -15 -73 -6 -241 17 -307 21
-62 42 -87 68 -83 19 3 21 9 19 78 -2 41 -4 138 -5 215 l-3 140 43 79 c24 44
41 85 38 93 -8 21 -42 15 -75 -12z"/>
<path d="M13515 9916 c-9 -21 -13 -46 -10 -55 4 -9 9 -27 11 -41 6 -28 19 -46
27 -33 2 4 7 35 11 68 5 46 3 65 -8 80 -14 19 -15 18 -31 -19z"/>
<path d="M5806 9909 c-15 -4 -37 -16 -48 -26 -43 -38 -48 -65 -48 -230 1 -222
14 -278 59 -254 20 11 21 19 21 191 l0 179 45 44 c25 25 45 51 45 58 -1 34
-31 50 -74 38z"/>
<path d="M13106 9703 c-4 -27 -6 -77 -6 -113 0 -36 0 -74 0 -85 0 -11 -3 -94
-6 -185 -3 -91 -6 -178 -6 -195 0 -16 0 -73 -1 -125 -1 -105 0 -143 3 -180 3
-32 -6 -289 -15 -440 -6 -119 0 -148 29 -137 11 4 16 19 17 44 0 21 2 133 3
248 1 116 6 218 10 227 4 10 4 30 -1 45 -5 16 -7 65 -3 110 4 46 4 102 0 125
-3 24 -1 50 4 60 6 11 5 34 -3 70 -11 46 -11 66 4 143 17 90 21 222 9 270 -3
14 -1 38 6 54 8 21 9 39 0 70 -15 56 -37 53 -44 -6z"/>
<path d="M13520 9736 c0 -8 5 -18 10 -21 6 -3 10 3 10 14 0 12 -4 21 -10 21
-5 0 -10 -6 -10 -14z"/>
<path d="M13512 9571 c0 -54 -2 -104 -6 -109 -9 -15 4 -42 20 -42 19 0 28 44
14 69 -8 16 -8 26 0 42 7 13 9 31 4 47 -5 15 -8 40 -9 56 0 16 -5 31 -11 33
-8 3 -12 -26 -12 -96z"/>
<path d="M13485 9330 c-8 -13 4 -32 16 -25 12 8 12 35 0 35 -6 0 -13 -4 -16
-10z"/>
<path d="M13508 9263 c0 -4 -2 -19 -4 -33 -2 -14 -6 -48 -10 -76 -4 -33 -2
-59 6 -74 9 -16 9 -25 1 -33 -16 -16 -14 -72 3 -86 22 -18 26 -1 26 96 0 48 1
115 3 147 1 40 -2 61 -10 63 -7 3 -14 1 -15 -4z"/>
<path d="M10302 8950 c-109 -39 -250 -164 -274 -243 -6 -20 -25 -54 -43 -75
-43 -51 -79 -114 -111 -197 -23 -58 -27 -86 -28 -165 -1 -147 49 -253 129
-280 114 -38 298 86 399 267 47 85 118 264 146 368 27 101 36 240 18 275 -36
68 -131 88 -236 50z m131 -87 c11 -7 8 -82 -8 -156 -38 -179 -156 -450 -236
-541 -62 -71 -152 -88 -191 -36 -24 33 -41 141 -32 205 13 100 78 234 151 312
16 17 65 49 109 71 93 47 150 102 134 131 -5 10 -6 21 -3 25 7 6 59 -1 76 -11z
m-133 -14 c-30 -20 -92 -50 -96 -46 -5 5 87 56 101 57 6 0 3 -5 -5 -11z"/>
<path d="M8340 8911 c-5 -11 -10 -39 -10 -63 0 -24 -11 -122 -25 -218 -47
-338 -57 -662 -22 -697 8 -9 20 -13 25 -9 5 3 13 65 16 138 10 190 33 419 62
599 27 174 30 239 12 257 -18 18 -46 14 -58 -7z"/>
<path d="M13498 8848 c-6 -17 1 -38 13 -38 5 0 9 11 9 25 0 26 -14 34 -22 13z"/>
<path d="M13492 8784 c-15 -17 -12 -46 5 -51 15 -5 29 45 17 57 -5 5 -15 2
-22 -6z"/>
<path d="M3392 8690 c-58 -36 -74 -73 -68 -165 8 -141 36 -339 52 -362 17 -27
36 -29 55 -6 11 13 13 61 11 237 -3 185 -1 227 13 259 25 60 -1 75 -63 37z"/>
<path d="M13484 8688 c-8 -18 -11 -421 -5 -581 1 -36 17 -27 25 15 13 60 22
560 11 577 -10 17 -21 13 -31 -11z"/>
<path d="M5804 8640 c-27 -11 -68 -64 -90 -115 -18 -44 -17 -88 13 -425 17
-205 23 -230 53 -230 30 0 34 35 21 208 -7 86 -15 212 -18 279 l-5 121 51 56
c51 57 61 82 39 104 -14 14 -34 14 -64 2z"/>
<path d="M13075 8209 c-4 -11 -9 -122 -11 -247 -5 -263 -12 -574 -20 -927 -3
-137 -5 -279 -5 -315 1 -135 0 -173 -5 -181 -3 -5 -7 -158 -10 -341 -2 -183
-6 -355 -9 -381 -3 -27 -1 -64 5 -82 8 -24 8 -40 1 -54 -8 -13 -8 -28 -1 -46
7 -18 7 -33 0 -45 -8 -16 -15 -285 -11 -470 0 -25 -4 -57 -10 -71 -7 -18 -7
-38 -1 -63 6 -20 7 -38 2 -41 -5 -3 -6 -38 -3 -78 3 -39 5 -79 4 -87 -9 -127
-9 -176 0 -186 6 -7 7 -19 3 -25 -4 -7 -9 -29 -10 -48 -1 -20 -4 -58 -7 -86
-5 -54 5 -85 28 -85 17 0 19 8 16 66 -2 23 3 60 9 83 8 29 8 46 1 55 -7 8 -7
40 -1 100 7 60 7 93 0 107 -6 11 -8 29 -4 41 7 25 13 156 19 438 2 107 6 260
8 340 4 129 17 760 18 915 1 33 0 92 -1 130 -1 39 3 89 9 113 9 31 9 52 0 80
-6 22 -8 66 -5 107 3 39 8 108 10 155 2 47 9 120 15 163 7 51 8 85 1 96 -12
24 -11 186 3 230 8 28 14 337 7 376 -1 6 -1 72 0 148 2 131 1 137 -18 137 -12
0 -23 -9 -27 -21z"/>
<path d="M13478 8048 c-7 -19 2 -38 17 -38 18 0 26 15 19 34 -7 19 -30 21 -36
4z"/>
<path d="M13470 7956 c0 -21 21 -31 30 -15 5 7 6 17 4 21 -9 14 -34 9 -34 -6z"/>
<path d="M13480 7910 c0 -5 5 -10 11 -10 5 0 7 5 4 10 -3 6 -8 10 -11 10 -2 0
-4 -4 -4 -10z"/>
<path d="M13476 7852 c-3 -5 -11 -42 -17 -82 -9 -55 -10 -77 -1 -91 7 -10 12
-30 12 -44 0 -15 6 -25 14 -25 17 0 25 67 16 122 -4 20 -3 43 1 50 15 22 11
78 -5 78 -8 0 -17 -4 -20 -8z"/>
<path d="M13469 7564 c-9 -10 -14 -58 -16 -147 -2 -73 -8 -142 -14 -153 -9
-18 -7 -27 12 -53 12 -17 25 -29 27 -26 11 11 11 229 0 243 -9 10 -9 15 2 22
8 5 11 18 7 39 -4 16 -2 33 3 36 12 8 13 42 1 49 -5 3 -15 -1 -22 -10z"/>
<path d="M10029 7495 c-59 -32 -67 -101 -72 -615 -6 -585 11 -1011 44 -1142 8
-30 14 -38 33 -38 13 0 28 6 34 13 7 8 9 114 7 322 -7 566 -7 628 3 957 8 241
15 349 27 407 10 44 15 87 12 95 -8 20 -53 20 -88 1z"/>
<path d="M3484 7442 c-18 -12 -34 -49 -34 -78 0 -25 -8 -62 -32 -146 -6 -20
-8 -44 -5 -52 12 -31 32 -4 56 72 13 42 30 96 38 118 22 62 10 108 -23 86z"/>
<path d="M8296 7228 c-26 -40 -77 -179 -97 -266 -30 -127 -49 -296 -55 -512
-7 -212 10 -641 27 -672 6 -11 18 -18 27 -16 16 3 17 28 13 298 -3 289 9 580
30 710 18 113 61 264 86 304 41 65 55 114 40 145 -16 35 -51 39 -71 9z"/>
<path d="M13457 7163 c-11 -10 -8 -143 3 -143 18 0 32 42 26 79 -4 20 -6 44
-7 54 0 17 -10 22 -22 10z"/>
<path d="M5767 7140 c-14 -11 -33 -42 -43 -68 -9 -26 -33 -83 -52 -127 -99
-228 -126 -424 -126 -895 0 -284 4 -362 22 -510 22 -170 37 -271 47 -317 6
-27 27 -30 45 -8 11 13 10 34 -4 113 -46 263 -50 318 -50 672 1 526 30 689
174 975 38 76 70 142 70 146 0 12 -30 39 -44 39 -7 0 -25 -9 -39 -20z"/>
<path d="M3402 7128 c6 -18 28 -21 28 -4 0 9 -7 16 -16 16 -9 0 -14 -5 -12
-12z"/>
<path d="M3390 7069 c0 -24 23 -21 28 4 2 10 -3 17 -12 17 -10 0 -16 -9 -16
-21z"/>
<path d="M3370 6980 c0 -5 5 -10 10 -10 6 0 10 5 10 10 0 6 -4 10 -10 10 -5 0
-10 -4 -10 -10z"/>
<path d="M13447 6944 c-4 -4 -7 -22 -7 -41 0 -40 29 -48 32 -8 0 14 1 30 2 37
1 13 -17 21 -27 12z"/>
<path d="M13460 6814 c0 -8 5 -12 10 -9 6 3 10 10 10 16 0 5 -4 9 -10 9 -5 0
-10 -7 -10 -16z"/>
<path d="M13426 6718 c-19 -70 -22 -89 -18 -116 2 -20 11 -34 24 -38 26 -8 33
1 34 39 0 18 3 46 8 63 5 23 3 36 -9 48 -20 19 -34 21 -39 4z"/>
<path d="M3310 6700 c0 -5 5 -10 10 -10 6 0 10 5 10 10 0 6 -4 10 -10 10 -5 0
-10 -4 -10 -10z"/>
<path d="M13444 6489 c10 -51 28 -62 24 -15 -2 23 -9 41 -17 44 -11 4 -13 -3
-7 -29z"/>
<path d="M13434 6369 c-10 -17 13 -36 27 -22 12 12 4 33 -11 33 -5 0 -12 -5
-16 -11z"/>
<path d="M13446 6273 c-12 -12 -6 -43 9 -43 8 0 15 9 15 19 0 21 -13 34 -24
24z"/>
<path d="M13445 6121 c-3 -5 -1 -12 5 -16 5 -3 10 1 10 9 0 18 -6 21 -15 7z"/>
<path d="M13438 6054 c-14 -23 -20 -125 -8 -139 16 -19 30 -11 23 14 -3 10 0
22 6 25 15 10 14 69 -2 91 -8 10 -16 14 -19 9z"/>
<path d="M13426 5848 c-3 -13 -4 -39 -4 -58 1 -19 -2 -45 -7 -57 -5 -17 -3
-24 9 -29 9 -4 20 -3 24 0 11 12 20 130 10 149 -12 24 -27 21 -32 -5z"/>
<path d="M13401 5647 c-13 -13 -15 -37 -2 -37 5 0 7 -18 4 -40 -4 -31 -2 -41
11 -46 9 -3 23 0 32 7 18 15 10 59 -13 73 -15 8 -15 10 0 20 14 11 14 13 -2
23 -14 9 -21 9 -30 0z"/>
<path d="M13423 5503 c-18 -6 -16 -65 1 -89 16 -21 20 -16 30 43 5 33 -9 54
-31 46z"/>
<path d="M13416 5371 c-14 -22 -18 -98 -6 -106 18 -11 40 22 40 61 0 32 -23
63 -34 45z"/>
<path d="M13412 5219 c2 -13 -4 -29 -12 -36 -13 -10 -13 -14 2 -29 22 -23 25
-19 30 35 2 30 -1 45 -10 49 -10 3 -13 -3 -10 -19z"/>
<path d="M13404 5065 c-9 -23 14 -45 26 -25 5 8 8 19 7 24 -6 17 -27 18 -33 1z"/>
<path d="M13414 4996 c-3 -8 -3 -20 1 -25 3 -6 1 -20 -5 -32 -9 -15 -9 -24 -1
-32 16 -16 22 -5 26 47 3 45 -10 72 -21 42z"/>
<path d="M13400 4837 c0 -7 7 -22 15 -33 14 -18 14 -17 15 14 0 22 -5 32 -15
32 -8 0 -15 -6 -15 -13z"/>
<path d="M13397 4724 c-9 -9 -9 -67 -1 -88 3 -9 12 -16 19 -16 8 0 12 17 11
52 -1 47 -13 68 -29 52z"/>
<path d="M12994 4319 c-4 -8 -9 -98 -10 -201 -2 -156 0 -188 12 -188 8 0 14 8
14 18 0 9 6 35 13 57 14 42 15 85 3 122 -4 12 -2 31 3 42 6 11 7 22 2 25 -4 3
-6 27 -4 53 5 53 -16 99 -33 72z"/>
<path d="M13390 4240 c0 -5 5 -10 10 -10 6 0 10 5 10 10 0 6 -4 10 -10 10 -5
0 -10 -4 -10 -10z"/>
<path d="M13392 4194 c1 -9 9 -19 16 -22 9 -3 13 2 10 14 -1 9 -9 19 -16 22
-9 3 -13 -2 -10 -14z"/>
<path d="M13365 3940 c-7 -12 2 -30 16 -30 5 0 9 9 9 20 0 21 -15 27 -25 10z"/>
<path d="M12986 3895 c-18 -18 -21 -61 -6 -99 6 -17 6 -44 -1 -78 -6 -29 -10
-59 -9 -65 2 -22 1 -98 -3 -360 -4 -213 -3 -252 9 -257 17 -7 28 16 21 43 -2
11 0 41 5 68 5 26 9 71 9 98 -2 79 -1 97 3 150 8 84 8 89 3 130 -3 22 0 77 6
123 7 64 7 89 -3 107 -10 19 -10 33 1 74 11 45 11 53 -3 67 -14 14 -17 14 -32
-1z"/>
<path d="M13387 3884 c-8 -8 1 -24 14 -24 5 0 9 7 9 15 0 15 -12 20 -23 9z"/>
<path d="M13377 3724 c-8 -8 1 -24 14 -24 5 0 9 7 9 15 0 15 -12 20 -23 9z"/>
<path d="M13381 3586 c-8 -10 -9 -16 -1 -21 5 -3 13 1 16 10 9 22 -1 29 -15
11z"/>
<path d="M12968 3013 c-1 -5 -2 -28 -4 -53 -1 -25 -5 -62 -8 -83 -3 -21 -1
-48 3 -60 5 -12 4 -47 -2 -80 -12 -66 -3 -86 31 -68 18 10 36 74 23 86 -2 3
-5 58 -5 122 -1 65 -5 124 -9 131 -9 13 -26 16 -29 5z"/>
<path d="M12953 2594 c-14 -34 -9 -492 6 -507 10 -10 15 -8 27 7 16 23 19 66
4 66 -6 0 -8 11 -4 25 4 15 1 32 -6 40 -8 10 -9 19 -3 28 6 6 9 48 8 92 -1 44
0 84 3 90 11 18 10 89 0 125 -14 46 -25 58 -35 34z"/>
<path d="M12942 2044 c-7 -13 -10 -53 -8 -100 5 -100 4 -94 15 -94 10 0 27 39
23 52 -1 4 5 26 14 48 16 39 16 42 -3 63 -11 12 -23 29 -25 37 -4 12 -7 10
-16 -6z"/>
<path d="M12936 1804 c-19 -19 -17 -33 6 -48 22 -13 50 10 46 38 -4 27 -31 32
-52 10z"/>
<path d="M12926 1704 c-10 -25 -7 -80 5 -111 6 -15 13 -23 14 -18 1 6 8 29 15
52 7 22 10 53 6 67 -7 29 -31 35 -40 10z"/>
<path d="M13335 1631 c-3 -5 -1 -12 5 -16 5 -3 10 1 10 9 0 18 -6 21 -15 7z"/>
<path d="M12924 1509 c-8 -14 11 -33 25 -25 6 4 11 14 11 22 0 16 -26 19 -36
3z"/>
<path d="M12924 1435 c-4 -8 -4 -29 0 -45 3 -17 1 -53 -4 -81 -6 -33 -7 -56
-1 -63 6 -7 6 -18 1 -26 -11 -17 -4 -30 17 -30 11 0 14 6 9 25 -5 18 -2 25 9
25 17 0 20 31 4 47 -6 6 -11 43 -11 82 0 68 -11 100 -24 66z"/>
<path d="M12912 1143 c2 -10 10 -18 18 -18 22 0 18 29 -3 33 -14 3 -18 -1 -15
-15z"/>
<path d="M12917 1009 c-10 -25 -11 -42 -4 -62 13 -38 25 -23 28 35 3 60 -6 70
-24 27z"/>
<path d="M12915 840 c-7 -12 2 -30 16 -30 5 0 9 9 9 20 0 21 -15 27 -25 10z"/>
<path d="M13310 745 c0 -8 5 -15 10 -15 6 0 10 7 10 15 0 8 -4 15 -10 15 -5 0
-10 -7 -10 -15z"/>
<path d="M12910 660 c0 -11 5 -20 10 -20 6 0 10 9 10 20 0 11 -4 20 -10 20 -5
0 -10 -9 -10 -20z"/>
<path d="M13296 543 c-11 -11 -6 -23 9 -23 8 0 15 4 15 9 0 13 -16 22 -24 14z"/>
<path d="M12920 526 c0 -8 4 -17 9 -20 11 -7 33 18 24 27 -12 12 -33 7 -33 -7z"/>
<path d="M12910 380 c0 -5 5 -10 10 -10 6 0 10 5 10 10 0 6 -4 10 -10 10 -5 0
-10 -4 -10 -10z"/>
<path d="M12900 275 c0 -8 7 -15 15 -15 8 0 15 7 15 15 0 8 -7 15 -15 15 -8 0
-15 -7 -15 -15z"/>
<path d="M12907 224 c-8 -8 1 -24 14 -24 5 0 9 7 9 15 0 15 -12 20 -23 9z"/>
<path d="M12896 164 c-11 -29 5 -124 22 -124 10 0 13 7 9 26 -3 15 -1 40 4 56
4 16 5 36 2 44 -7 19 -29 18 -37 -2z"/>
<path d="M12925 10 c-3 -5 1 -10 9 -10 9 0 16 5 16 10 0 6 -4 10 -9 10 -6 0
-13 -4 -16 -10z"/>
</g>
</svg>
