<?xml version="1.0" standalone="no"?>
<!DOCTYPE svg PUBLIC "-//W3C//DTD SVG 20010904//EN"
 "http://www.w3.org/TR/2001/REC-SVG-20010904/DTD/svg10.dtd">
<svg version="1.0" xmlns="http://www.w3.org/2000/svg"
 width="2448.000000pt" height="3264.000000pt" viewBox="0 0 2448.000000 3264.000000"
 preserveAspectRatio="xMidYMid meet">
<metadata>
Created by potrace 1.12, written by Peter Selinger 2001-2015
</metadata>
<g transform="translate(0.000000,3264.000000) scale(0.100000,-0.100000)"
fill="#000000" stroke="none">
<path d="M3520 32625 c0 -9 9 -15 25 -15 18 0 23 4 19 15 -4 8 -15 15 -25 15
-10 0 -19 -7 -19 -15z"/>
<path d="M3586 32585 c4 -8 10 -12 15 -9 14 8 10 24 -6 24 -9 0 -12 -6 -9 -15z"/>
<path d="M3650 32365 c0 -2 10 -10 23 -16 20 -11 21 -11 8 4 -13 16 -31 23
-31 12z"/>
<path d="M3797 32153 c-13 -12 -7 -43 7 -43 19 0 28 14 20 34 -7 17 -16 20
-27 9z"/>
<path d="M3330 32101 c-17 -33 -11 -48 10 -22 11 13 20 27 20 32 0 16 -19 9
-30 -10z"/>
<path d="M1962 31948 c7 -19 38 -22 38 -4 0 10 -9 16 -21 16 -12 0 -19 -5 -17
-12z"/>
<path d="M8140 31780 c0 -5 5 -10 10 -10 6 0 10 5 10 10 0 6 -4 10 -10 10 -5
0 -10 -4 -10 -10z"/>
<path d="M3486 31712 c-2 -4 4 -13 14 -20 20 -12 36 0 25 18 -7 12 -32 13 -39
2z"/>
<path d="M9210 31580 c0 -5 5 -10 10 -10 6 0 10 5 10 10 0 6 -4 10 -10 10 -5
0 -10 -4 -10 -10z"/>
<path d="M3690 31540 c0 -5 12 -10 26 -10 14 0 23 4 19 10 -3 6 -15 10 -26 10
-10 0 -19 -4 -19 -10z"/>
<path d="M8226 31532 c-3 -6 -1 -14 5 -17 15 -10 25 3 12 16 -7 7 -13 7 -17 1z"/>
<path d="M8285 31501 c-25 -5 -27 -8 -12 -14 29 -11 69 -8 65 5 -5 15 -16 17
-53 9z"/>
<path d="M4472 31038 c5 -15 28 -18 29 -3 0 6 -7 12 -17 13 -10 3 -15 -1 -12
-10z"/>
<path d="M8910 30829 c0 -5 5 -7 10 -4 6 3 10 8 10 11 0 2 -4 4 -10 4 -5 0
-10 -5 -10 -11z"/>
<path d="M8870 30680 c0 -5 5 -10 10 -10 6 0 10 5 10 10 0 6 -4 10 -10 10 -5
0 -10 -4 -10 -10z"/>
<path d="M4277 30531 c3 -12 10 -21 15 -21 13 0 6 32 -9 37 -7 3 -9 -3 -6 -16z"/>
<path d="M4780 30541 c0 -9 41 -23 48 -16 2 2 1 8 -3 14 -8 13 -45 15 -45 2z"/>
<path d="M8883 30518 c-14 -18 -4 -88 13 -88 7 0 19 18 25 41 11 34 10 42 -2
50 -19 12 -25 11 -36 -3z"/>
<path d="M4372 30497 c-17 -20 -12 -40 6 -28 8 5 12 16 10 26 -3 17 -4 17 -16
2z"/>
<path d="M8970 30402 c0 -19 19 -52 30 -52 15 0 12 12 -10 40 -11 14 -20 19
-20 12z"/>
<path d="M4560 30360 c-10 -18 -8 -20 24 -20 40 0 57 25 23 34 -33 9 -35 8
-47 -14z"/>
<path d="M8610 30360 c0 -5 9 -10 21 -10 11 0 17 5 14 10 -3 6 -13 10 -21 10
-8 0 -14 -4 -14 -10z"/>
<path d="M5049 30179 c-10 -6 -7 -10 11 -17 26 -10 40 -7 40 7 0 13 -36 20
-51 10z"/>
<path d="M5206 29925 c4 -8 10 -12 15 -9 14 8 10 24 -6 24 -9 0 -12 -6 -9 -15z"/>
<path d="M17853 29898 c-51 -54 -126 -272 -127 -368 -1 -58 1 -65 18 -65 16 0
25 18 48 99 33 113 91 255 121 293 38 47 -18 86 -60 41z"/>
<path d="M9305 29870 c-3 -5 -1 -10 4 -10 6 0 11 5 11 10 0 6 -2 10 -4 10 -3
0 -8 -4 -11 -10z"/>
<path d="M19316 29648 c-18 -25 -20 -56 -7 -77 13 -20 55 -7 94 29 l32 30 -24
20 c-31 27 -76 26 -95 -2z"/>
<path d="M18622 29560 c-20 -33 -79 -126 -131 -207 -149 -233 -201 -348 -201
-440 0 -29 8 -47 31 -72 l30 -34 77 7 c48 4 119 21 196 47 131 44 178 66 243
110 48 33 69 38 57 12 -5 -10 -8 -47 -9 -83 0 -57 2 -65 19 -65 15 0 25 18 48
90 54 173 79 278 76 324 -3 41 -6 46 -30 49 -17 2 -33 -4 -45 -17 -17 -19 -25
-20 -68 -12 -63 12 -154 -3 -218 -34 -73 -37 -124 -75 -219 -164 -125 -117
-136 -108 -49 42 26 45 81 132 122 194 79 119 145 220 169 258 12 19 12 26 1
39 -28 34 -59 20 -99 -44z m289 -371 c16 -11 29 -28 29 -38 0 -31 -88 -101
-183 -146 -146 -69 -347 -132 -347 -109 0 24 139 153 238 223 39 27 189 91
215 91 11 0 32 -9 48 -21z"/>
<path d="M5162 29596 c1 -10 8 -17 13 -17 15 1 12 24 -3 29 -9 3 -13 -2 -10
-12z"/>
<path d="M5366 29595 c-3 -8 -1 -15 4 -15 6 0 10 7 10 15 0 8 -2 15 -4 15 -2
0 -6 -7 -10 -15z"/>
<path d="M8975 29600 c-3 -5 1 -10 9 -10 9 0 16 5 16 10 0 6 -4 10 -9 10 -6 0
-13 -4 -16 -10z"/>
<path d="M9043 29598 c-12 -6 -25 -24 -28 -40 -8 -35 2 -49 18 -27 7 9 34 25
60 37 27 12 46 26 42 32 -8 13 -63 12 -92 -2z"/>
<path d="M19960 29580 c-8 -5 -26 -38 -40 -72 l-25 -63 -90 3 c-50 2 -109 -1
-132 -7 -53 -14 -93 -60 -93 -107 0 -40 16 -44 64 -15 39 24 103 42 175 48
l54 5 -7 -27 c-4 -15 -32 -73 -63 -129 -110 -200 -123 -227 -125 -269 -3 -36
0 -42 17 -42 22 0 115 149 211 338 36 72 62 111 78 119 21 9 24 17 24 57 -1
25 5 67 12 93 11 38 11 50 0 63 -14 17 -38 19 -60 5z"/>
<path d="M9236 29563 c-3 -4 -6 -15 -6 -25 0 -24 33 -21 38 3 3 17 -21 33 -32
22z"/>
<path d="M15596 29548 c-13 -19 -16 -58 -16 -224 0 -228 5 -214 -84 -214 -73
0 -264 -36 -372 -71 -50 -16 -97 -29 -104 -29 -20 0 -5 80 30 154 35 73 30
106 -14 106 -42 0 -83 -94 -93 -213 -3 -37 -11 -74 -17 -81 -6 -8 -45 -26 -86
-41 -93 -32 -118 -54 -104 -92 11 -33 47 -42 72 -20 19 16 97 57 109 57 10 0
4 -212 -7 -224 -5 -4 -32 -9 -62 -11 -29 -1 -61 -5 -71 -10 -23 -10 -32 -50
-18 -81 13 -28 37 -30 107 -9 27 8 52 15 57 15 4 0 7 -24 7 -52 0 -91 22 -272
37 -300 14 -29 47 -38 55 -15 5 13 -5 137 -23 281 -13 105 -13 105 81 134 36
11 152 50 259 87 106 36 196 64 199 61 3 -3 0 -43 -6 -88 -19 -136 -13 -218
18 -218 28 0 37 33 44 157 10 179 6 169 90 194 125 36 137 41 143 56 3 8 -1
21 -10 30 -13 14 -23 13 -96 -2 -45 -10 -84 -15 -88 -12 -3 4 -1 51 6 104 12
105 29 347 33 480 2 86 -8 113 -43 113 -10 0 -25 -10 -33 -22z m-30 -590 c-4
-46 -9 -90 -12 -99 -2 -9 -29 -23 -62 -33 -155 -46 -237 -72 -346 -107 -65
-22 -127 -39 -138 -39 -16 0 -18 9 -18 98 0 111 8 130 67 154 81 33 210 69
297 84 50 9 93 18 95 20 2 2 31 4 64 4 l60 0 -7 -82z"/>
<path d="M5100 29450 c0 -5 5 -10 10 -10 6 0 10 5 10 10 0 6 -4 10 -10 10 -5
0 -10 -4 -10 -10z"/>
<path d="M9225 29450 c-3 -5 -1 -10 4 -10 6 0 11 5 11 10 0 6 -2 10 -4 10 -3
0 -8 -4 -11 -10z"/>
<path d="M20290 29429 c-46 -13 -67 -40 -76 -94 -7 -52 13 -102 76 -180 61
-77 84 -123 69 -141 -57 -69 -288 -122 -345 -79 -63 48 -118 -30 -59 -85 23
-22 29 -23 127 -17 112 6 196 29 277 72 63 35 83 65 84 124 1 52 -19 96 -73
161 -79 96 -89 148 -30 163 98 25 115 47 55 73 -39 16 -55 16 -105 3z"/>
<path d="M8987 29353 c-15 -14 -6 -31 12 -26 26 7 36 33 12 33 -10 0 -21 -3
-24 -7z"/>
<path d="M9075 29330 c-3 -5 1 -10 9 -10 9 0 16 5 16 10 0 6 -4 10 -9 10 -6 0
-13 -4 -16 -10z"/>
<path d="M4628 29303 c-19 -22 -58 -98 -58 -113 0 -6 -13 -40 -30 -75 -16 -35
-30 -71 -30 -80 0 -9 -5 -25 -10 -36 -18 -33 -50 -200 -50 -261 0 -51 2 -58
20 -58 20 0 27 17 50 135 15 72 63 224 90 282 11 24 20 47 20 53 0 14 28 59
58 91 33 37 27 73 -14 77 -19 2 -36 -3 -46 -15z"/>
<path d="M17005 29169 c-164 -16 -321 -121 -284 -190 8 -16 5 -26 -15 -50 -32
-38 -34 -86 -5 -123 16 -21 29 -26 63 -26 80 0 200 53 331 146 95 67 125 101
125 141 0 86 -65 117 -215 102z m120 -93 c16 -12 17 -16 6 -30 -42 -50 -275
-176 -326 -176 -19 0 -35 2 -35 5 0 3 9 22 20 42 11 21 20 52 20 70 0 25 7 36
33 52 73 45 241 67 282 37z"/>
<path d="M2574 28990 c-37 -14 -37 -24 -4 -345 5 -49 10 -111 10 -137 l0 -46
-97 -22 c-53 -13 -128 -33 -167 -46 -90 -31 -112 -31 -120 0 -3 14 -1 102 5
197 9 150 8 174 -5 187 -13 13 -17 13 -39 -1 -33 -21 -37 -50 -37 -263 l0
-183 -140 -45 c-77 -25 -146 -46 -153 -46 -16 0 -57 -42 -57 -58 0 -6 11 -18
24 -27 21 -14 28 -13 97 15 41 17 101 44 134 60 111 53 101 66 109 -137 4 -98
8 -191 9 -208 2 -25 -4 -33 -33 -47 -58 -29 -263 -124 -298 -138 -64 -25 -84
-89 -33 -110 26 -10 36 -8 99 24 39 20 86 49 104 64 38 33 140 92 158 92 9 0
10 -40 5 -178 -4 -98 -4 -188 -1 -200 8 -25 53 -31 62 -8 6 16 11 119 13 284
1 116 2 124 25 145 13 12 55 33 92 46 38 13 92 34 119 47 62 27 126 54 131 54
8 0 4 -97 -8 -198 -12 -106 -7 -129 25 -116 40 15 59 183 57 516 l-1 246 31
22 c37 27 38 37 2 45 l-29 6 -12 162 c-6 89 -14 202 -17 250 -7 94 -18 112
-60 97z m14 -781 l-3 -191 -94 -29 c-52 -16 -132 -45 -178 -65 -46 -20 -86
-34 -88 -32 -10 10 -26 391 -16 397 21 14 338 110 364 110 16 1 17 -13 15
-190z"/>
<path d="M6943 28780 c-31 -13 -29 -45 3 -75 32 -30 40 -31 54 -6 14 28 12 57
-6 75 -17 18 -20 18 -51 6z"/>
<path d="M9458 28753 c7 -3 16 -2 19 1 4 3 -2 6 -13 5 -11 0 -14 -3 -6 -6z"/>
<path d="M7254 28589 c-4 -6 -9 -136 -11 -288 -2 -152 -5 -305 -6 -341 -2 -64
-2 -65 25 -68 30 -4 29 -6 67 107 11 34 19 67 16 71 -7 12 89 110 108 110 36
0 40 -69 6 -106 -10 -11 -19 -25 -19 -31 0 -16 -34 -56 -110 -129 -52 -51 -71
-64 -97 -64 -22 0 -36 -6 -43 -19 -15 -29 -13 -39 16 -57 23 -16 28 -16 59 -1
19 9 69 49 111 89 127 121 193 225 196 312 3 64 -17 80 -87 71 -44 -5 -74 -20
-141 -70 -7 -5 -15 -7 -18 -4 -3 3 -1 47 5 99 14 144 14 297 -1 315 -15 17
-66 20 -76 4z"/>
<path d="M7700 28562 c-23 -19 -23 -20 -7 -46 22 -32 52 -33 72 -2 15 22 12
56 -5 56 -5 0 -15 2 -23 5 -7 3 -24 -3 -37 -13z"/>
<path d="M8906 28488 c-8 -13 -14 -47 -14 -79 1 -60 -17 -149 -38 -190 -12
-23 -21 -27 -82 -33 -75 -7 -132 -35 -132 -64 0 -44 49 -55 102 -22 28 17 78
28 78 17 0 -2 -25 -57 -55 -122 -30 -66 -55 -125 -55 -132 0 -7 9 -17 19 -23
34 -17 43 -2 159 252 16 34 29 49 48 54 36 9 96 -11 125 -42 21 -22 24 -34 21
-86 -1 -33 -9 -93 -18 -132 -26 -121 -28 -141 -11 -155 24 -20 61 -10 68 19
55 199 64 319 28 377 -26 42 -81 71 -154 79 l-56 7 7 31 c3 16 15 50 26 75 28
66 35 153 14 174 -24 24 -63 21 -80 -5z"/>
<path d="M16699 28488 c-13 -13 -38 -41 -54 -63 -16 -22 -55 -71 -85 -110 -31
-38 -80 -104 -110 -145 -30 -41 -82 -113 -115 -160 -139 -192 -186 -266 -357
-565 -106 -185 -208 -413 -208 -465 0 -31 23 -55 43 -47 8 3 29 43 47 89 31
77 182 391 200 413 4 6 41 66 80 135 78 135 216 345 314 478 135 185 231 310
279 366 40 46 48 62 40 75 -15 25 -46 24 -74 -1z"/>
<path d="M8210 28482 c-17 -14 -24 -34 -30 -87 -18 -150 -66 -317 -152 -527
-25 -61 -30 -83 -22 -96 6 -9 17 -17 25 -17 39 0 241 503 264 659 6 38 4 51
-10 66 -22 25 -46 25 -75 2z"/>
<path d="M5250 28456 c-112 -34 -180 -77 -298 -190 -102 -97 -204 -277 -242
-427 -42 -161 -56 -378 -28 -431 16 -33 55 -22 89 25 63 87 162 276 206 392
24 66 48 130 53 142 5 12 33 41 63 65 158 126 198 161 236 205 46 51 101 150
101 181 0 57 -70 72 -180 38z m95 -56 c12 -20 -36 -88 -114 -163 -44 -42 -86
-77 -91 -77 -13 0 -10 5 41 80 48 71 55 96 34 120 -12 13 -13 20 -5 25 36 22
124 32 135 15z m-215 -68 c0 -5 -19 -44 -42 -88 -24 -44 -54 -104 -67 -134
-28 -65 -98 -135 -159 -161 -35 -15 -43 -23 -40 -41 4 -29 36 -34 78 -13 18 9
34 14 37 11 11 -11 -71 -196 -132 -295 -53 -88 -62 -73 -47 77 14 144 32 214
80 317 54 116 175 271 247 316 33 21 45 24 45 11z"/>
<path d="M5617 28463 c-4 -3 -7 -35 -7 -70 l0 -65 -29 7 c-33 7 -66 -6 -80
-33 -5 -10 -19 -64 -30 -120 -17 -86 -19 -108 -8 -139 14 -43 54 -62 93 -45
26 13 78 108 94 174 22 95 40 260 30 279 -10 18 -50 26 -63 12z m-42 -289
c-10 -36 -20 -53 -26 -47 -9 9 -3 38 24 108 19 50 21 3 2 -61z"/>
<path d="M6605 28431 c-76 -19 -119 -58 -131 -117 -5 -26 1 -35 51 -83 121
-114 130 -243 21 -310 -40 -25 -80 -27 -98 -5 -37 45 -50 54 -78 54 -20 0 -35
-8 -46 -25 -15 -23 -15 -27 3 -62 51 -100 205 -93 304 13 118 128 113 241 -18
375 -60 62 -61 57 20 103 72 41 54 77 -28 57z"/>
<path d="M6205 28405 c-49 -7 -101 -17 -115 -23 -14 -5 -43 -15 -65 -21 -71
-19 -136 -70 -159 -125 -13 -33 -16 -53 -10 -64 6 -8 50 -36 99 -63 103 -55
174 -121 155 -144 -19 -23 -85 -36 -140 -29 -41 5 -54 3 -70 -11 -23 -21 -26
-48 -7 -62 21 -18 94 -23 147 -12 59 12 125 59 153 107 24 41 16 62 -48 131
-40 43 -116 87 -199 115 -18 6 -17 9 9 36 15 16 41 34 59 40 17 6 38 15 46 19
15 8 33 12 190 47 41 9 83 20 93 25 24 13 21 36 -5 43 -27 7 -19 7 -133 -9z"/>
<path d="M8488 28399 c-24 -14 -23 -56 2 -69 42 -23 92 39 54 67 -21 15 -33
16 -56 2z"/>
<path d="M17115 28375 c-14 -13 -25 -35 -25 -49 0 -22 11 -30 73 -59 124 -57
151 -100 197 -304 l23 -103 -22 -92 c-16 -65 -62 -178 -150 -373 -121 -267
-196 -406 -381 -705 -142 -229 -185 -306 -245 -441 -33 -74 -115 -244 -184
-379 -303 -600 -355 -691 -535 -943 -346 -482 -431 -611 -539 -817 l-59 -112
-61 -27 c-97 -43 -187 -74 -194 -68 -12 13 43 100 86 135 23 20 47 47 52 60
11 30 -5 62 -32 62 -26 0 -99 -69 -124 -117 -11 -21 -35 -62 -54 -90 -37 -59
-42 -94 -16 -123 40 -44 146 -30 277 36 26 13 59 24 74 24 16 0 38 12 57 32
18 17 60 50 94 72 154 102 225 169 208 196 -16 26 -84 -7 -194 -91 -37 -29
-43 -12 -12 39 69 117 237 370 336 507 60 83 143 198 184 257 l75 108 21 -26
c25 -31 54 -33 175 -10 47 9 146 27 220 41 257 46 571 114 586 126 20 17 17
36 -7 50 -22 11 -38 9 -189 -22 -53 -11 -438 -72 -560 -89 -47 -6 -113 -10
-148 -8 l-64 3 29 40 c86 120 394 708 548 1048 78 173 128 264 327 592 170
281 208 351 287 528 33 73 83 184 111 246 73 162 103 283 95 386 -11 143 -53
288 -101 352 -29 38 -124 105 -173 121 -43 15 -38 16 -66 -13z"/>
<path d="M3527 28331 c-103 -37 -150 -76 -158 -127 -3 -21 -20 -61 -37 -89
-60 -92 -68 -176 -25 -243 39 -59 88 -77 196 -69 171 11 472 165 543 278 30
48 30 77 2 119 -43 62 -213 130 -326 130 -16 0 -35 7 -42 15 -18 22 -65 18
-153 -14z m284 -92 c96 -22 145 -49 169 -92 15 -28 14 -29 -26 -65 -101 -90
-321 -190 -438 -199 -70 -5 -74 -4 -105 23 -69 62 -40 184 71 298 l54 56 93 0
c60 0 126 -8 182 -21z"/>
<path d="M9242 28343 c-30 -12 -59 -111 -42 -144 13 -23 53 -25 74 -4 16 16
30 87 24 126 -3 24 -28 34 -56 22z"/>
<path d="M7687 28299 c-10 -15 -17 -59 -20 -119 -5 -92 -24 -162 -72 -264 -21
-45 -17 -80 12 -84 17 -3 28 10 58 65 46 86 90 216 106 316 14 85 11 93 -38
103 -26 5 -34 2 -46 -17z"/>
<path d="M9708 28175 c-26 -7 -64 -23 -84 -34 l-37 -22 -23 22 c-16 15 -30 20
-47 15 -35 -8 -42 -35 -18 -67 l20 -27 -29 -37 c-48 -60 -82 -143 -88 -212 -4
-56 -2 -67 21 -101 45 -64 100 -88 237 -102 140 -13 286 18 347 76 l36 34 -6
84 c-4 60 -2 87 6 94 7 5 52 12 100 16 101 8 137 19 137 40 0 30 -39 39 -143
32 -122 -7 -178 -29 -197 -76 -10 -25 -11 -39 -2 -64 16 -44 15 -87 -3 -113
-30 -42 -231 -61 -344 -32 -123 31 -135 147 -30 281 30 37 34 39 68 32 63 -13
113 -5 163 27 46 30 51 39 51 84 -1 32 -1 33 -35 49 -36 18 -38 18 -100 1z
m52 -62 c0 -11 -58 -43 -76 -43 -23 0 -16 18 14 34 29 16 62 21 62 9z"/>
<path d="M6943 28138 c-11 -13 -25 -53 -33 -93 -7 -38 -21 -94 -31 -124 -25
-71 -24 -107 1 -121 29 -15 57 3 65 42 3 18 27 91 52 162 45 124 46 129 28
142 -28 20 -59 17 -82 -8z"/>
<path d="M8420 28060 c-12 -12 -20 -33 -20 -52 0 -50 -27 -169 -56 -248 -24
-64 -25 -73 -12 -87 28 -27 53 -7 91 75 60 128 99 290 77 317 -18 21 -56 19
-80 -5z"/>
<path d="M15675 27516 c-14 -14 -25 -31 -25 -39 0 -8 -24 -75 -54 -149 -92
-229 -136 -392 -136 -502 0 -48 4 -60 31 -91 27 -31 37 -35 78 -35 96 0 189
51 431 233 355 267 426 334 375 353 -28 11 -72 -17 -255 -161 -288 -227 -430
-313 -530 -323 -46 -4 -47 -3 -53 26 -12 58 63 314 153 527 54 126 59 159 31
175 -18 9 -25 7 -46 -14z"/>
<path d="M15320 26153 c-181 -28 -398 -85 -479 -128 -54 -27 -53 -90 1 -109
21 -7 32 -3 65 23 49 40 178 84 336 117 133 27 187 30 187 11 0 -36 -225 -256
-345 -337 -82 -55 -93 -78 -50 -106 38 -25 148 -14 346 35 231 57 269 54 197
-16 -112 -107 -584 -334 -701 -338 -51 -1 -71 -13 -62 -37 16 -41 91 -48 191
-17 231 71 479 198 626 321 77 64 115 173 68 198 -46 25 -203 10 -360 -35 -30
-8 -73 -18 -95 -21 l-40 -6 36 34 c20 18 75 68 123 112 95 86 160 165 170 210
17 72 -75 111 -214 89z"/>
<path d="M19059 25739 c-85 -58 -80 -57 -238 -10 -135 40 -256 54 -365 42 -93
-11 -146 -33 -191 -80 -36 -39 -38 -93 -4 -148 24 -39 117 -112 192 -149 26
-13 47 -27 47 -29 0 -3 -35 -38 -77 -77 -327 -305 -462 -498 -463 -661 0 -74
18 -117 72 -167 98 -91 252 -100 523 -30 278 72 483 176 565 284 100 132 91
253 -28 374 -60 61 -232 177 -354 238 -49 24 -88 48 -88 54 0 12 252 180 307
204 l41 18 105 -51 c109 -54 134 -60 143 -37 10 27 -16 54 -86 87 -38 19 -70
37 -70 41 0 4 19 17 43 29 57 29 77 48 77 74 0 61 -57 59 -151 -6z m-304 -75
c81 -13 117 -26 104 -38 -2 -2 -44 -30 -93 -62 -50 -32 -114 -77 -143 -101
-29 -24 -56 -43 -59 -43 -9 0 -166 97 -190 118 -11 9 -28 29 -38 44 -59 90
137 129 419 82z m-33 -415 c377 -219 454 -327 337 -477 -69 -89 -277 -186
-554 -259 -83 -22 -122 -27 -235 -27 -152 -1 -187 10 -216 66 -38 74 13 220
127 363 84 106 381 405 402 405 9 0 71 -32 139 -71z"/>
<path d="M3922 25600 c-83 -28 -180 -100 -295 -220 -170 -176 -220 -303 -190
-488 28 -176 111 -284 267 -345 72 -28 257 -30 336 -3 200 68 350 197 350 302
0 42 -44 108 -95 142 -131 87 -366 27 -492 -125 -49 -58 -73 -104 -73 -137 0
-71 43 -78 79 -12 36 69 122 150 197 187 60 30 77 33 151 34 l84 0 35 -38 c39
-43 39 -57 -3 -119 -46 -69 -182 -139 -315 -165 -150 -28 -298 10 -369 96 -74
90 -99 290 -49 400 61 138 244 327 382 396 39 19 74 32 79 29 5 -3 2 -18 -6
-34 -18 -36 -11 -56 22 -65 35 -9 59 16 78 82 16 54 16 56 -6 79 -28 30 -89
31 -167 4z"/>
<path d="M8155 25473 c-30 -44 -55 -123 -88 -279 -14 -62 -27 -116 -31 -122
-3 -6 -32 -16 -64 -23 -99 -21 -112 -37 -68 -78 21 -19 31 -22 65 -16 24 4 41
3 41 -3 0 -5 -9 -45 -20 -89 -27 -109 -62 -322 -55 -333 11 -17 34 -11 49 13
8 12 35 112 61 222 26 110 50 207 54 215 5 8 73 42 152 75 79 34 185 83 236
111 50 27 94 46 97 43 3 -3 -17 -60 -45 -127 -50 -122 -109 -301 -109 -330 0
-9 12 -29 27 -44 52 -54 107 -37 263 83 221 169 264 199 271 192 4 -4 -1 -57
-12 -118 -27 -159 -26 -192 12 -238 70 -84 161 -94 311 -31 l56 24 48 -22 c40
-17 60 -20 123 -15 124 10 202 39 261 98 27 27 50 54 50 60 0 21 -29 19 -64
-5 -70 -47 -144 -69 -236 -70 -54 -1 -85 3 -85 10 0 5 29 36 65 68 128 114
152 225 64 293 -66 50 -170 26 -224 -51 -39 -57 -52 -112 -49 -214 l2 -87 -49
-19 c-58 -22 -174 -27 -196 -8 -26 21 -27 62 -6 177 10 61 20 136 21 168 2 50
-1 61 -20 77 -19 15 -29 16 -61 8 -34 -8 -85 -45 -386 -273 -69 -53 -100 -59
-90 -17 9 36 93 250 150 378 24 56 44 113 44 127 0 23 -22 57 -37 57 -3 0
-114 -54 -247 -119 -132 -66 -254 -123 -270 -127 -28 -7 -29 -6 -22 22 18 69
71 209 93 240 41 62 24 134 -32 134 -17 0 -32 -12 -50 -37z m1395 -528 c10
-12 10 -22 -1 -47 -15 -38 -138 -170 -150 -162 -15 9 -10 101 8 145 26 65 111
103 143 64z"/>
<path d="M6723 25480 c-96 -43 -170 -150 -243 -349 -23 -63 -52 -128 -66 -144
-18 -21 -24 -40 -24 -74 0 -25 -5 -73 -11 -107 -10 -53 -9 -66 5 -95 23 -44
49 -38 59 14 4 22 20 78 35 125 39 120 56 126 382 135 186 5 336 17 383 31 23
7 22 31 -3 44 -24 13 -562 19 -632 7 -41 -7 -48 -6 -48 8 0 26 102 204 144
252 53 61 88 77 163 75 67 -2 78 5 69 44 -13 52 -132 71 -213 34z"/>
<path d="M13906 25434 c-23 -22 -20 -60 6 -78 18 -13 54 -16 186 -16 139 0
164 -2 169 -16 8 -21 -27 -66 -111 -144 -341 -311 -546 -570 -546 -685 0 -88
80 -145 204 -145 111 0 188 24 556 173 102 41 230 91 285 112 127 49 179 82
183 118 3 23 0 27 -20 27 -13 -1 -39 -7 -58 -14 -19 -7 -93 -35 -165 -61 -71
-26 -209 -78 -305 -115 -277 -109 -311 -120 -390 -136 -137 -26 -200 -15 -200
34 0 31 62 136 137 235 46 60 216 235 410 421 129 124 149 174 92 227 -39 37
-77 47 -224 59 -66 6 -137 12 -157 15 -25 3 -41 0 -52 -11z"/>
<path d="M17085 25344 c-353 -35 -601 -54 -701 -54 -112 0 -134 -7 -134 -40 0
-9 11 -27 25 -40 28 -26 30 -26 330 10 94 11 224 24 290 30 66 6 176 17 245
25 69 8 159 17 200 21 111 9 177 42 118 58 -36 9 -232 4 -373 -10z"/>
<path d="M15160 25248 c-25 -5 -90 -17 -145 -28 -320 -62 -408 -87 -419 -117
-4 -9 1 -26 9 -39 18 -27 52 -31 93 -10 47 24 432 119 615 152 39 7 52 36 21
48 -22 8 -120 5 -174 -6z"/>
<path d="M5815 25135 c-89 -21 -149 -63 -195 -134 -60 -95 -74 -205 -35 -280
22 -43 111 -107 168 -122 118 -29 370 37 448 117 31 32 34 40 34 97 0 80 -29
141 -103 212 -30 30 -60 65 -66 77 -21 42 -147 59 -251 33z m199 -99 c41 -17
99 -76 121 -123 55 -116 10 -176 -161 -217 -148 -36 -237 -26 -291 31 -42 44
-43 87 -4 168 36 76 75 120 99 110 39 -17 72 -18 72 -2 0 42 96 61 164 33z"/>
<path d="M10037 25039 c-41 -24 -197 -294 -197 -341 0 -26 44 -58 79 -58 52 0
159 59 232 128 36 34 69 62 73 62 3 0 6 -12 6 -27 0 -14 11 -41 26 -60 41 -55
73 -46 307 81 46 25 91 46 99 46 20 0 49 -34 86 -100 17 -30 47 -71 67 -90 35
-34 37 -34 51 -16 20 28 17 50 -10 83 -13 15 -39 60 -59 99 -46 92 -82 134
-113 134 -28 0 -98 -34 -181 -87 -63 -40 -167 -93 -182 -93 -7 0 -11 25 -11
61 0 118 -37 130 -127 42 -102 -102 -223 -186 -241 -169 -13 13 91 181 134
217 57 47 23 124 -39 88z"/>
<path d="M14795 23260 c-161 -34 -247 -69 -284 -116 -26 -33 -27 -58 -1 -84
27 -27 33 -25 67 11 38 41 91 67 193 96 86 23 220 41 220 29 0 -21 -65 -104
-150 -191 -119 -122 -126 -134 -105 -175 29 -56 53 -64 173 -57 127 7 484 54
555 74 25 6 22 50 -5 64 -23 13 -107 8 -298 -17 -133 -18 -277 -34 -302 -34
-32 0 -19 25 48 90 104 102 184 218 184 267 0 8 -11 25 -25 38 -22 23 -32 25
-102 24 -43 0 -118 -9 -168 -19z"/>
<path d="M18334 22891 c-114 -69 -212 -232 -299 -495 l-50 -151 -45 -8 c-53
-9 -193 7 -263 29 -72 24 -117 67 -117 113 0 86 92 201 207 260 68 34 81 53
58 87 -26 40 -63 31 -154 -36 -87 -65 -164 -157 -181 -218 -36 -131 15 -237
138 -289 60 -25 180 -42 254 -36 64 6 68 5 68 -15 0 -12 -6 -41 -14 -64 -31
-92 -47 -205 -44 -308 2 -66 7 -105 14 -107 23 -8 42 28 49 89 8 81 33 219 50
283 33 121 41 140 65 152 14 6 66 31 117 54 95 43 134 75 152 120 19 52 -9 52
-86 -1 -75 -51 -163 -86 -163 -65 0 28 82 231 133 329 54 103 100 153 182 199
48 27 57 58 23 81 -30 21 -56 20 -94 -3z"/>
<path d="M3276 22875 c-12 -6 -22 -22 -24 -37 -4 -37 43 -63 85 -47 34 14 378
34 527 31 112 -2 192 -18 235 -48 20 -15 23 -23 19 -66 -11 -105 -184 -288
-415 -436 -46 -29 -83 -59 -83 -67 0 -7 15 -24 32 -37 30 -21 48 -23 197 -30
194 -8 240 -13 345 -39 163 -41 276 -118 276 -188 0 -38 -96 -167 -172 -232
-143 -122 -353 -259 -443 -288 -64 -21 -71 -45 -20 -67 49 -20 78 -10 223 77
157 95 290 198 379 293 118 127 135 179 87 261 -90 155 -347 245 -696 245 -43
0 -78 4 -78 8 0 5 32 31 71 58 95 66 217 164 255 205 78 84 124 174 124 244 0
66 -70 125 -185 155 -63 17 -707 21 -739 5z"/>
<path d="M15470 22719 c-308 -96 -656 -156 -838 -144 -115 7 -132 1 -132 -46
0 -19 8 -34 25 -45 22 -14 43 -15 200 -5 178 12 275 29 520 92 152 40 340 123
340 151 0 20 -44 19 -115 -3z"/>
<path d="M13919 22678 c-186 -14 -427 -82 -527 -148 -79 -53 -152 -132 -152
-165 0 -24 30 -65 48 -65 5 0 40 35 79 78 79 87 129 116 269 157 137 40 258
58 387 59 130 1 140 -3 130 -59 -8 -48 -68 -182 -118 -264 -59 -97 -129 -184
-290 -361 -149 -163 -235 -273 -235 -300 0 -10 12 -32 26 -49 22 -27 32 -31
75 -31 86 0 233 58 614 245 203 99 234 117 268 158 38 47 47 77 23 77 -8 0
-93 -38 -188 -85 -422 -205 -698 -315 -698 -277 0 7 42 55 93 109 249 263 361
409 452 589 131 261 57 356 -256 332z"/>
<path d="M6793 22562 c-32 -33 -96 -185 -129 -307 l-21 -80 -58 -7 c-96 -12
-127 -46 -84 -89 17 -17 28 -20 53 -14 17 4 42 10 55 13 21 4 23 2 17 -14 -13
-33 -46 -214 -46 -249 0 -36 25 -60 48 -47 6 4 23 75 38 157 14 83 28 156 30
163 3 10 25 13 86 11 46 -1 139 3 208 10 71 7 167 9 222 5 106 -7 148 -1 148
21 0 34 -39 39 -337 39 -341 1 -314 -12 -260 126 45 114 53 127 103 182 24 26
44 52 44 58 0 19 -40 50 -64 50 -14 0 -37 -13 -53 -28z"/>
<path d="M8378 22563 c-26 -7 -45 -70 -53 -176 l-7 -98 -47 -22 c-39 -19 -46
-27 -49 -54 -4 -38 24 -58 67 -48 l29 6 4 -199 c3 -170 6 -203 21 -226 11 -16
25 -26 35 -24 15 3 17 26 18 238 1 129 2 241 3 247 1 17 40 36 158 78 86 31
318 93 411 109 41 7 41 -4 6 -116 -14 -45 -48 -161 -75 -257 -44 -159 -47
-177 -34 -201 27 -52 69 -45 135 25 70 74 349 326 376 340 22 11 30 12 36 2 4
-7 5 -64 2 -128 -6 -110 -5 -119 18 -171 52 -113 142 -130 319 -62 l46 18 31
-26 c67 -56 223 -63 318 -15 51 26 73 52 56 69 -5 5 -64 2 -133 -7 -125 -16
-204 -11 -204 12 0 6 29 34 65 61 128 97 179 175 180 273 0 47 -4 59 -27 81
-35 33 -73 48 -124 48 -57 0 -98 -20 -145 -72 -65 -71 -91 -182 -70 -300 l8
-47 -67 -20 c-37 -12 -89 -21 -115 -21 -75 0 -79 12 -73 184 l6 143 -31 34
c-26 29 -36 34 -74 33 -66 -1 -129 -48 -321 -233 -59 -57 -109 -102 -111 -100
-6 5 42 167 88 304 53 154 54 169 18 205 -35 35 -39 35 -147 15 -188 -34 -348
-76 -438 -114 -69 -30 -80 -28 -72 10 4 18 16 50 26 73 25 55 24 82 -6 111
-24 25 -27 26 -57 18z m1646 -319 c40 -15 9 -88 -79 -182 -74 -79 -122 -112
-130 -90 -3 8 1 49 9 92 24 122 74 186 147 186 20 0 44 -3 53 -6z"/>
<path d="M15941 22409 c-26 -3 -49 -13 -57 -24 -20 -27 -17 -69 6 -90 21 -19
36 -18 195 15 28 6 131 14 230 19 99 5 192 14 208 20 28 11 37 44 15 57 -14 9
-535 12 -597 3z"/>
<path d="M10541 22153 c-24 -20 -144 -261 -160 -321 -13 -47 -4 -77 32 -110
20 -19 32 -23 57 -17 41 9 211 145 278 223 74 86 85 82 59 -18 l-22 -79 21
-28 c33 -45 71 -42 134 9 58 46 170 132 210 161 102 72 131 89 145 83 21 -8
62 -98 76 -166 34 -173 53 -216 84 -190 13 11 15 27 9 84 -14 158 -55 274
-119 336 -56 54 -80 49 -216 -49 -62 -45 -140 -103 -172 -128 -31 -26 -60 -44
-63 -41 -3 3 2 33 10 66 20 76 20 112 0 140 -30 43 -58 30 -177 -86 -113 -108
-178 -164 -231 -198 l-29 -18 6 25 c7 28 94 184 133 238 26 37 25 66 -4 89
-21 16 -36 15 -61 -5z"/>
<path d="M15829 22143 c-120 -3 -139 -6 -154 -23 -22 -24 -14 -64 18 -84 19
-13 38 -13 142 -1 66 8 187 19 268 24 164 12 210 27 205 64 -3 22 -6 22 -173
22 -93 1 -231 -1 -306 -2z"/>
<path d="M5745 22133 c-37 -10 -57 -35 -51 -66 5 -25 -2 -35 -58 -88 -102 -95
-117 -167 -48 -231 70 -66 165 -85 319 -63 100 14 230 56 285 93 31 20 88 89
88 106 0 22 -61 95 -108 130 -26 19 -85 53 -132 76 -78 38 -92 42 -180 45 -52
2 -104 1 -115 -2z m288 -114 c81 -41 147 -95 147 -121 0 -36 -87 -91 -193
-122 -109 -31 -283 -38 -325 -12 -23 14 -40 60 -31 84 26 69 186 178 283 192
28 4 52 8 54 9 1 0 31 -13 65 -30z"/>
<path d="M15182 20349 c-185 -22 -278 -67 -227 -109 12 -10 24 -8 64 9 27 11
90 28 140 36 108 19 375 25 391 9 16 -16 -26 -71 -94 -123 -92 -70 -184 -163
-192 -194 -9 -37 21 -78 68 -94 19 -6 98 -19 174 -27 171 -19 205 -29 250 -68
31 -27 35 -36 30 -62 -13 -64 -140 -212 -303 -354 -44 -38 -73 -71 -73 -83 0
-47 72 -9 216 114 257 220 305 347 166 440 -59 39 -118 55 -248 66 -152 14
-181 20 -195 37 -20 24 4 58 83 121 40 32 103 87 141 123 58 55 68 68 65 94
-2 22 -12 35 -38 51 -31 18 -54 20 -190 22 -85 1 -188 -3 -228 -8z"/>
<path d="M5501 20271 c-11 -7 -13 -27 -8 -98 58 -838 61 -868 166 -1418 91
-480 104 -588 157 -1243 8 -112 14 -209 11 -215 -3 -9 -56 -13 -198 -14 -186
-2 -761 -21 -1299 -43 -140 -6 -457 -17 -705 -26 -438 -14 -607 -21 -1095 -45
-356 -18 -1187 -17 -1470 1 -129 8 -329 15 -443 15 -195 0 -210 -1 -223 -19
-19 -27 -18 -33 12 -52 21 -14 33 -15 77 -6 78 17 181 17 637 3 484 -16 1251
-10 1725 14 301 14 839 35 1465 55 168 5 343 12 390 15 47 3 164 7 260 10 261
9 641 24 762 31 87 6 108 4 112 -7 3 -8 12 -95 21 -194 8 -99 24 -272 35 -385
21 -211 31 -335 50 -595 17 -245 20 -278 46 -545 23 -248 65 -614 104 -930 37
-297 136 -1174 160 -1415 17 -182 50 -498 65 -625 15 -126 91 -844 120 -1130
49 -489 126 -1021 189 -1310 67 -307 142 -807 181 -1210 18 -188 58 -509 80
-650 52 -330 127 -787 139 -855 44 -240 74 -491 82 -700 4 -107 -1 -234 -25
-535 -16 -217 -33 -442 -37 -500 -3 -58 -9 -109 -13 -115 -5 -5 -8 -57 -9
-115 0 -82 3 -109 16 -123 13 -15 16 -62 19 -340 1 -177 5 -347 8 -377 27
-255 77 -625 99 -728 9 -40 16 -75 16 -78 0 -2 -13 -4 -29 -4 -37 0 -48 -16
-27 -38 37 -42 46 -84 81 -382 8 -69 26 -201 40 -295 19 -128 25 -212 26 -342
1 -184 4 -198 51 -191 21 3 23 9 29 83 6 93 -6 308 -26 445 -8 52 -23 156 -34
230 -10 74 -25 194 -31 265 -11 129 -24 218 -61 430 -12 67 -21 175 -24 275
-8 322 -16 497 -32 650 -9 85 -17 242 -19 348 -2 162 -5 198 -20 219 -15 24
-16 38 -6 137 7 61 16 176 22 256 6 80 18 231 27 335 11 116 17 284 17 430 0
296 -3 318 -119 1030 -75 461 -95 586 -115 735 -11 85 -25 187 -30 225 -6 39
-19 165 -30 280 -38 394 -69 623 -126 920 -161 843 -169 898 -259 1760 -25
238 -43 410 -75 710 -32 296 -85 803 -125 1195 -36 346 -137 1220 -170 1460
-31 226 -78 715 -110 1145 -25 343 -35 448 -80 899 -14 136 -22 252 -19 257 3
5 10 7 15 3 6 -3 373 -7 817 -9 1401 -5 2154 -24 2982 -74 91 -6 255 -15 365
-21 307 -17 735 -58 885 -85 110 -19 117 -19 125 6 16 51 -37 68 -295 94 -394
41 -745 63 -1445 90 -220 8 -445 17 -500 20 -55 2 -260 7 -455 10 -195 3 -416
8 -490 10 -214 7 -1956 6 -1984 -1 -29 -7 -32 2 -41 166 -12 226 -57 703 -81
865 -14 94 -49 303 -79 465 -62 335 -89 514 -105 680 -13 148 -30 512 -30 660
0 88 -4 121 -16 138 -16 23 -48 28 -73 13z"/>
<path d="M16221 20228 c-4 -13 -11 -66 -15 -118 -9 -112 -44 -268 -85 -377
-44 -117 -45 -122 -25 -144 24 -27 35 -24 91 19 68 53 129 87 201 111 64 22
122 27 122 12 0 -13 -117 -89 -217 -141 -93 -49 -123 -74 -106 -91 19 -19 77
-1 215 68 126 64 228 140 228 171 0 18 -41 51 -77 61 -35 10 -129 0 -188 -19
-19 -6 -67 -29 -107 -51 -39 -22 -73 -38 -75 -36 -1 2 11 41 28 88 39 107 80
300 82 393 l2 71 -33 3 c-26 3 -34 -1 -41 -20z"/>
<path d="M16820 20243 c-41 -8 -70 -42 -70 -84 0 -46 25 -72 45 -46 7 9 17 17
24 17 6 0 11 7 11 15 0 9 12 27 26 40 43 40 25 69 -36 58z"/>
<path d="M21605 20058 c-31 -28 -37 -41 -42 -90 -6 -61 12 -108 42 -108 22 0
45 41 45 80 0 20 7 46 16 58 20 29 15 86 -8 90 -9 2 -33 -12 -53 -30z"/>
<path d="M17141 20066 c-8 -10 -7 -40 6 -119 l17 -105 -38 -35 c-29 -27 -37
-42 -34 -63 4 -36 35 -56 49 -31 12 21 35 22 43 1 3 -9 9 -47 12 -85 7 -70 22
-96 49 -85 13 5 16 25 14 117 -1 118 3 129 48 129 31 0 53 10 53 24 0 17 -43
36 -79 36 -33 0 -41 14 -41 73 -1 67 -17 130 -36 144 -23 17 -49 17 -63 -1z"/>
<path d="M20955 20048 c-2 -7 -6 -83 -10 -168 -9 -220 -23 -367 -40 -424 -20
-65 -19 -95 3 -102 9 -3 34 -13 54 -21 34 -14 43 -14 105 1 133 34 319 149
383 238 37 51 38 87 4 122 -35 34 -81 46 -181 46 -87 0 -168 -23 -216 -60 -14
-11 -28 -20 -32 -20 -5 0 -5 39 -1 88 18 228 19 282 6 297 -15 18 -69 20 -75
3z m398 -384 c25 -5 37 -12 37 -23 0 -40 -139 -143 -295 -218 -86 -41 -105
-42 -105 -5 0 52 20 97 65 148 68 79 184 116 298 98z"/>
<path d="M19884 19990 c-110 -23 -291 -98 -349 -144 -29 -24 -27 -49 7 -67 17
-9 40 -1 132 45 150 76 210 90 373 91 205 0 204 -16 -10 -194 -146 -121 -319
-290 -325 -316 -5 -23 42 -63 89 -76 65 -17 263 -5 474 31 382 64 515 104 477
142 -9 9 -48 6 -159 -11 -261 -40 -336 -51 -428 -62 -108 -14 -320 -17 -332
-6 -10 10 80 96 237 228 191 160 250 234 223 278 -5 9 -36 27 -69 41 -50 20
-78 24 -179 26 -66 2 -138 -1 -161 -6z"/>
<path d="M21884 19946 c-3 -8 2 -48 10 -89 27 -132 24 -139 -69 -150 -27 -3
-64 -9 -82 -13 -29 -6 -32 -4 -35 22 -2 18 -13 34 -30 44 -25 13 -29 13 -43
-1 -9 -9 -20 -47 -26 -85 -12 -91 -34 -164 -71 -246 -32 -71 -32 -98 2 -98 55
0 83 42 126 191 14 52 28 96 30 98 2 2 10 -2 18 -8 12 -10 29 -8 81 8 37 12
78 21 91 21 22 0 24 -4 23 -52 0 -29 -4 -75 -8 -101 -6 -37 -5 -52 6 -63 16
-15 48 -5 55 18 3 7 13 -6 24 -27 34 -70 104 -102 284 -131 125 -20 127 -21
109 -38 -58 -53 -385 -95 -514 -66 -22 5 -51 12 -65 15 -15 4 -33 0 -45 -9
-20 -14 -20 -15 4 -40 40 -43 82 -51 256 -50 131 0 177 4 250 22 83 21 176 64
218 100 9 8 19 13 21 11 2 -2 0 -74 -4 -159 -5 -85 -11 -240 -14 -345 -3 -104
-11 -329 -17 -500 -7 -201 -8 -438 -3 -675 5 -201 9 -401 9 -445 l0 -80 -425
-7 c-234 -3 -555 -11 -715 -17 -883 -34 -1209 -38 -3145 -41 -998 -2 -1943 -4
-2100 -4 -265 -1 -633 9 -690 19 -78 14 -535 37 -650 33 -153 -5 -183 -14
-178 -56 l3 -27 185 4 c102 2 399 -7 660 -19 449 -20 520 -21 1280 -12 443 5
1264 7 1825 5 965 -5 1765 5 2400 27 623 22 898 29 1220 32 l340 3 6 -175 c10
-275 10 -1011 0 -1275 -21 -527 -26 -1556 -17 -3735 0 -223 -5 -526 -11 -675
-7 -148 -15 -376 -18 -505 -17 -764 -48 -1247 -130 -2060 -9 -80 -26 -269 -40
-420 -14 -151 -34 -351 -45 -445 -66 -559 -70 -619 -36 -573 7 10 19 60 25
110 7 51 16 109 21 128 27 109 74 453 90 660 5 63 21 234 34 380 74 783 116
1421 131 1965 17 682 27 972 31 984 5 14 3 917 -2 1006 -4 73 -3 1216 1 1740
2 248 5 565 6 705 1 235 6 381 25 860 9 248 11 857 2 1105 -4 115 -5 212 0
216 4 4 111 9 237 13 307 8 555 17 755 25 96 4 173 3 184 -2 41 -20 134 -24
265 -11 75 7 214 13 309 14 l172 0 0 39 0 38 -347 -2 c-192 -2 -508 -10 -703
-19 -484 -21 -883 -36 -887 -32 -7 7 -7 1086 0 1331 18 595 38 968 63 1130 5
32 2 44 -11 55 -15 13 -20 11 -40 -12 -26 -30 -45 -105 -45 -174 0 -57 -14
-62 -88 -36 -31 12 -84 26 -117 32 -85 16 -195 49 -222 67 -26 17 -30 45 -10
62 8 6 79 31 158 56 79 25 159 52 177 60 52 24 38 75 -21 75 -38 0 -200 -59
-307 -112 -47 -24 -89 -44 -94 -47 -11 -5 2 120 15 135 5 6 27 14 49 18 70 11
65 41 -11 54 l-44 8 -7 98 c-5 71 -12 104 -24 117 -20 22 -72 25 -80 5z"/>
<path d="M16670 19905 c-10 -13 -8 -25 14 -74 22 -49 26 -73 26 -149 0 -69 4
-92 16 -103 40 -33 78 47 72 151 -5 86 -51 184 -89 188 -14 2 -31 -4 -39 -13z"/>
<path d="M17724 19732 c-102 -49 -127 -99 -99 -192 10 -32 14 -63 11 -69 -9
-14 -71 -14 -97 0 -60 31 -85 -45 -26 -81 64 -40 210 -16 223 36 4 15 -3 49
-16 84 -19 51 -21 64 -10 89 15 38 45 63 100 86 85 35 90 62 14 71 -29 4 -54
-2 -100 -24z"/>
<path d="M3596 19075 c-18 -18 -32 -85 -46 -225 -19 -184 -20 -190 -35 -190
-8 0 -29 13 -47 29 -18 15 -40 30 -48 33 -20 7 -50 -9 -50 -27 0 -21 48 -63
104 -91 l48 -25 -6 -107 c-13 -221 -17 -373 -11 -392 9 -28 43 -26 50 3 3 12
12 117 21 232 8 116 19 214 24 219 5 5 46 -4 98 -23 58 -21 120 -35 177 -40
92 -9 105 -16 105 -62 0 -49 32 -134 66 -175 49 -61 135 -114 249 -153 97 -34
104 -35 256 -36 143 0 160 2 206 23 98 46 109 121 39 256 -24 46 -60 109 -80
140 -42 66 -44 85 -13 114 50 47 140 50 270 11 77 -23 97 -11 50 31 -69 62
-276 93 -350 53 -30 -17 -93 -87 -93 -104 0 -18 44 -107 100 -203 75 -128 87
-161 69 -183 -41 -49 -187 -72 -327 -53 -241 34 -352 121 -364 285 l-3 40 70
8 c128 14 201 43 260 100 111 109 87 233 -54 273 -142 42 -280 -50 -330 -220
-13 -44 -30 -80 -38 -83 -33 -13 -324 54 -350 80 -11 11 -9 39 12 158 14 80
32 167 40 195 20 65 19 80 -5 104 -24 24 -43 25 -64 5z m762 -317 c24 -24 14
-76 -24 -117 -43 -49 -97 -76 -187 -95 -82 -17 -88 -10 -62 58 23 60 75 119
127 145 47 23 127 28 146 9z"/>
<path d="M2070 19011 c-6 -11 -10 -89 -10 -180 l0 -161 -27 -6 c-82 -18 -105
-26 -110 -40 -14 -36 52 -58 99 -33 11 6 24 7 28 2 4 -4 1 -111 -6 -238 -7
-126 -13 -236 -13 -242 -1 -20 -23 -15 -50 11 -77 72 -319 146 -641 196 -120
19 -212 41 -252 61 -49 25 -89 79 -95 129 -5 38 -3 44 39 83 66 64 148 88 318
94 126 5 140 4 213 -21 96 -32 127 -34 127 -5 0 57 -241 103 -427 81 -219 -25
-350 -106 -360 -220 -4 -41 -1 -54 29 -97 18 -27 51 -60 73 -72 51 -29 158
-62 260 -79 376 -63 526 -99 627 -150 34 -18 68 -61 68 -88 0 -52 -91 -156
-191 -219 -179 -113 -347 -134 -457 -55 -40 28 -45 29 -59 15 -15 -14 -14 -18
1 -42 46 -69 230 -105 366 -71 119 30 225 90 316 180 61 60 85 92 94 123 7 24
23 49 35 57 16 11 24 31 33 92 16 106 32 301 32 400 0 59 4 85 15 94 11 9 54
9 201 -4 102 -8 189 -17 191 -20 3 -3 -4 -20 -15 -38 -39 -64 -55 -135 -48
-207 9 -85 35 -141 81 -176 49 -38 136 -40 208 -5 101 49 193 173 205 278 4
36 8 43 25 40 18 -3 23 -19 44 -142 24 -142 45 -198 77 -204 33 -7 37 12 21
82 -32 137 -65 383 -65 481 0 120 -13 148 -63 143 -32 -3 -32 -4 -34 -63 -2
-33 -5 -84 -9 -114 -7 -60 -4 -60 -106 -22 -69 25 -138 27 -207 4 -48 -15 -57
-15 -173 5 -68 12 -172 24 -232 28 l-109 7 7 61 c17 160 19 255 6 271 -18 22
-67 19 -80 -4z m785 -432 c5 -7 -5 -8 -32 -3 -51 9 -54 14 -10 14 20 0 39 -5
42 -11z m-45 -35 c58 -7 111 -14 118 -14 19 0 14 -26 -17 -88 -61 -121 -152
-208 -243 -233 -48 -12 -75 1 -94 46 -16 40 -18 144 -4 197 19 65 82 125 120
112 8 -3 62 -12 120 -20z"/>
<path d="M6672 18828 c-15 -15 -16 -405 -2 -573 5 -60 12 -220 16 -355 7 -263
11 -280 60 -280 16 0 29 10 39 31 10 18 22 29 30 25 113 -43 275 -27 410 41
97 49 145 104 145 165 0 106 -162 174 -320 134 -103 -26 -158 -64 -234 -158
-21 -27 -41 -48 -45 -48 -13 0 -22 757 -11 918 5 68 3 75 -19 93 -27 22 -52
24 -69 7z m552 -868 c25 0 66 -34 66 -55 0 -52 -151 -142 -283 -169 -83 -17
-173 -21 -181 -7 -12 18 56 103 120 150 75 54 196 97 242 85 8 -2 24 -4 36 -4z"/>
<path d="M17160 18791 c-13 -26 -32 -206 -34 -336 l-1 -99 -40 -8 c-83 -16
-85 -17 -85 -43 0 -33 28 -45 89 -38 l52 6 -6 -49 c-28 -245 -26 -279 11 -242
12 11 21 54 31 140 7 67 15 129 18 136 3 9 33 12 117 10 l113 -3 6 -92 c12
-193 105 -298 301 -339 124 -27 223 -6 285 58 43 45 53 76 53 169 0 108 15
140 77 167 27 11 79 26 116 32 85 13 97 18 97 40 0 23 -19 30 -79 30 -99 0
-219 -52 -268 -116 -25 -33 -28 -46 -34 -152 -6 -111 -7 -116 -34 -140 -27
-23 -35 -24 -119 -20 -77 3 -101 9 -158 36 -104 50 -137 100 -158 236 -13 84
-6 92 84 99 128 11 248 68 254 121 4 34 -19 63 -73 87 -99 45 -234 -3 -299
-106 -29 -45 -29 -45 -85 -45 -31 0 -87 3 -125 7 l-69 6 7 101 c8 100 17 258
20 326 1 31 -2 35 -26 38 -19 2 -30 -3 -38 -17z m570 -370 c35 -10 37 -37 3
-54 -40 -21 -132 -39 -172 -35 l-34 3 28 34 c46 53 106 71 175 52z"/>
<path d="M15875 18776 c-9 -13 -20 -39 -26 -57 -15 -51 -37 -222 -43 -333 -3
-55 -8 -102 -11 -104 -3 -3 -51 -4 -108 -3 -125 3 -160 -8 -155 -47 l3 -27
131 4 132 3 -14 -58 c-7 -33 -17 -142 -23 -244 -5 -102 -14 -198 -20 -213 -23
-60 -4 -89 33 -48 27 29 35 73 46 250 6 91 13 197 17 235 l6 68 91 -7 c50 -4
143 -10 206 -14 95 -5 114 -9 111 -21 -2 -8 -6 -45 -9 -81 -4 -65 -4 -65 34
-98 35 -31 41 -33 95 -29 79 6 122 40 171 139 21 41 43 74 49 74 14 0 44 -129
60 -258 13 -106 32 -157 58 -157 35 0 46 26 33 78 -7 26 -16 76 -21 112 -54
364 -55 370 -89 370 -8 0 -23 -7 -33 -16 -15 -13 -24 -14 -50 -5 -72 25 -168
7 -234 -44 -32 -23 -43 -26 -93 -23 -103 8 -347 41 -358 50 -7 5 -8 24 -3 55
5 27 15 95 23 153 18 129 31 192 52 248 13 34 13 46 4 57 -18 22 -48 18 -65
-9z m685 -577 c0 -33 -84 -137 -133 -164 -45 -24 -82 -14 -103 27 -13 26 -14
38 -5 69 6 21 16 41 22 45 6 3 47 8 91 9 44 2 85 8 91 14 14 14 37 14 37 0z"/>
<path d="M7690 18727 c-47 -23 -60 -48 -40 -72 18 -21 74 -19 94 4 10 11 31
25 47 31 36 15 37 37 3 50 -36 14 -53 12 -104 -13z"/>
<path d="M14690 18635 c-76 -19 -179 -62 -217 -91 -27 -21 -33 -32 -33 -63 0
-60 58 -104 295 -225 61 -30 133 -69 160 -85 28 -17 64 -38 80 -47 60 -33 201
-138 253 -188 59 -56 82 -93 82 -129 0 -51 -178 -217 -308 -287 -42 -22 -92
-52 -111 -66 -19 -13 -43 -24 -55 -24 -12 0 -32 -9 -46 -20 -74 -57 101 -15
251 61 135 67 301 215 339 301 19 43 19 50 6 80 -20 46 -123 148 -221 217 -78
56 -295 185 -506 300 -100 55 -149 93 -149 114 0 35 152 85 286 94 83 5 98 3
163 -21 39 -15 73 -32 77 -37 11 -18 45 -9 56 16 17 37 -9 58 -106 89 -90 30
-203 34 -296 11z"/>
<path d="M19097 18603 c-12 -11 -8 -68 5 -81 27 -27 108 -7 108 27 0 32 -92
76 -113 54z"/>
<path d="M21541 18584 c-12 -15 -21 -33 -21 -40 0 -7 -13 -47 -30 -89 -16 -41
-37 -107 -46 -147 -17 -79 -39 -108 -83 -108 -14 0 -44 -11 -66 -23 -35 -20
-40 -27 -40 -57 0 -32 2 -35 30 -34 17 1 44 7 62 15 18 7 35 10 38 7 4 -3 -1
-36 -10 -73 -16 -61 -16 -69 -2 -83 25 -24 44 0 73 94 20 68 29 85 47 88 63
13 170 26 174 22 3 -2 12 -19 21 -38 15 -28 29 -37 102 -64 98 -36 244 -114
279 -148 15 -16 21 -30 17 -43 -11 -33 -110 -78 -264 -119 -22 -6 -25 -34 -7
-54 25 -27 79 -26 158 4 89 33 141 61 182 97 28 25 35 38 35 68 0 31 -8 44
-52 88 -59 57 -111 89 -238 147 -101 47 -98 45 -80 57 9 6 78 9 164 7 128 -2
150 0 159 13 14 23 2 48 -28 59 -40 15 -241 12 -315 -6 -36 -8 -72 -15 -80
-14 -8 0 -51 3 -95 6 -44 2 -90 7 -102 9 l-22 5 24 70 c74 218 83 369 16 284z"/>
<path d="M20383 18360 c-42 -10 -97 -51 -135 -104 -43 -58 -123 -228 -163
-350 -34 -102 -75 -320 -75 -403 0 -47 21 -76 53 -71 23 3 21 -3 62 188 15 69
42 179 62 245 19 66 38 150 42 186 6 53 15 76 50 127 69 103 140 121 209 55
48 -46 81 -137 66 -180 -13 -38 -101 -81 -184 -90 -78 -10 -91 -30 -38 -63 43
-27 109 -20 196 21 85 41 102 69 102 174 -1 125 -43 201 -142 251 -50 26 -55
26 -105 14z"/>
<path d="M8124 18336 c-16 -12 -20 -29 -23 -107 -2 -59 -8 -101 -18 -115 -13
-20 -13 -25 1 -46 13 -20 13 -43 1 -200 -16 -195 -12 -251 21 -256 12 -2 26 3
32 10 11 14 28 150 38 323 4 61 10 117 15 126 12 23 95 57 186 75 76 16 261
15 334 -2 24 -5 26 -8 16 -34 -9 -25 -7 -34 16 -67 34 -50 65 -73 204 -153
184 -107 387 -252 380 -273 -17 -54 -248 -67 -616 -36 -84 7 -117 6 -127 -2
-37 -31 50 -63 216 -81 161 -16 495 -17 542 0 48 17 88 49 88 70 0 57 -255
262 -475 383 -88 48 -148 100 -143 125 7 35 73 48 248 48 133 0 174 -4 210
-18 74 -29 79 -29 86 -11 11 27 -16 63 -60 80 -22 9 -93 21 -157 28 -100 9
-132 8 -227 -7 -109 -18 -111 -18 -194 4 -128 33 -300 38 -411 11 -49 -11 -90
-21 -92 -21 -1 0 -5 28 -7 61 -4 49 -9 66 -27 80 -28 23 -32 23 -57 5z"/>
<path d="M19612 18310 c-45 -32 -62 -71 -42 -95 17 -20 33 -19 55 5 10 11 29
20 42 20 40 0 53 -50 53 -195 0 -111 2 -127 20 -145 26 -26 48 -16 56 26 13
68 -1 306 -21 352 -29 69 -94 82 -163 32z"/>
<path d="M20824 18302 c-23 -14 -73 -119 -93 -192 -29 -103 -27 -138 8 -180
28 -34 31 -35 97 -35 99 1 200 51 299 148 73 73 159 192 149 208 -13 21 -40 3
-143 -95 -126 -120 -191 -157 -288 -164 l-63 -4 0 34 c0 20 18 72 45 127 49
101 55 135 26 151 -23 12 -23 12 -37 2z"/>
<path d="M18980 18234 c-11 -12 -10 -34 3 -122 10 -59 22 -170 28 -247 11
-153 29 -210 64 -210 24 0 24 -10 6 305 -15 262 -20 290 -61 290 -15 0 -33 -7
-40 -16z"/>
<path d="M22830 18195 c-14 -16 -10 -37 16 -105 13 -35 17 -77 17 -185 0 -124
-3 -152 -28 -239 -29 -103 -27 -127 9 -134 27 -6 42 13 105 132 60 112 151
249 197 296 24 23 26 24 38 7 13 -17 18 -38 51 -222 9 -49 24 -103 33 -119 26
-44 66 -70 96 -62 33 8 33 26 0 57 -39 36 -43 47 -64 196 -32 214 -49 253
-115 253 -43 0 -92 -47 -172 -162 -41 -59 -78 -108 -82 -108 -4 0 -4 21 0 48
22 131 1 321 -38 349 -23 17 -48 16 -63 -2z"/>
<path d="M19385 18178 c-2 -7 -9 -65 -15 -128 -6 -63 -14 -133 -16 -155 -6
-47 9 -93 32 -102 27 -10 66 19 80 60 15 42 10 67 -13 67 -12 0 -14 7 -10 28
25 131 29 180 16 208 -15 32 -65 46 -74 22z"/>
<path d="M23615 18079 c-100 -29 -145 -161 -99 -290 27 -76 119 -169 197 -197
32 -12 72 -22 90 -23 18 0 50 -3 72 -7 51 -10 134 3 154 23 15 15 14 17 -2 26
-15 9 -16 13 -5 26 18 22 196 133 213 133 2 0 21 -28 41 -62 52 -86 122 -165
167 -189 l37 -19 0 33 c0 22 -8 41 -21 53 -19 17 -89 119 -116 168 -14 25 -5
56 16 56 10 0 41 7 69 15 51 16 52 16 52 55 0 35 -3 40 -22 40 -13 0 -54 -12
-93 -25 -38 -14 -73 -25 -76 -25 -14 0 -31 62 -31 112 1 53 -17 88 -44 88 -22
0 -64 -60 -64 -91 0 -17 10 -52 21 -80 17 -40 19 -52 9 -64 -7 -8 -18 -15 -24
-15 -30 0 -159 -74 -223 -129 -51 -43 -81 -61 -100 -61 -32 0 -133 44 -133 58
0 5 19 22 43 37 95 62 127 107 127 180 0 57 -19 94 -67 133 -58 46 -124 60
-188 41z m136 -82 c38 -29 49 -84 27 -132 -13 -29 -121 -105 -148 -105 -20 0
-35 36 -45 111 -8 52 10 97 47 123 27 19 96 20 119 3z"/>
<path d="M7616 17995 c-8 -8 -17 -34 -20 -58 -36 -282 -36 -304 -5 -329 29
-24 48 -22 53 5 34 185 57 306 62 324 4 15 -2 29 -20 47 -29 30 -48 33 -70 11z"/>
<path d="M3245 16841 c-59 -17 -86 -31 -129 -71 -24 -22 -72 -54 -106 -72 -83
-41 -179 -132 -221 -210 -31 -58 -34 -70 -34 -153 0 -84 3 -96 37 -168 65
-135 173 -220 343 -269 69 -19 103 -23 240 -23 139 0 171 4 240 24 278 82 438
272 423 502 -5 87 -38 149 -123 235 -56 57 -89 80 -165 117 -136 66 -222 88
-360 92 -63 3 -128 0 -145 -4z m320 -75 c102 -29 241 -103 298 -160 78 -77
102 -133 101 -231 -2 -122 -29 -183 -119 -272 -121 -118 -255 -167 -460 -167
-253 -1 -433 87 -514 250 -39 78 -51 171 -32 242 19 70 125 174 227 223 90 44
132 50 241 35 56 -8 62 -7 72 12 8 16 8 24 -4 35 -16 17 -137 33 -156 22 -7
-5 -10 -3 -7 6 2 7 15 17 29 21 41 12 260 2 324 -16z"/>
<path d="M9810 16633 c-64 -9 -120 -28 -176 -58 -33 -18 -76 -36 -95 -40 -107
-23 -224 -111 -249 -185 -16 -49 -6 -91 44 -170 42 -68 69 -87 173 -128 162
-63 343 -88 578 -79 326 13 485 101 485 269 0 175 -194 335 -465 384 -73 13
-233 17 -295 7z m235 -78 c197 -38 354 -124 424 -234 76 -118 1 -215 -199
-257 -144 -30 -464 -19 -615 21 -170 45 -279 119 -291 196 -12 73 105 172 196
167 26 -1 66 6 93 17 42 16 57 17 118 8 128 -20 217 -82 266 -186 35 -73 57
-99 78 -91 29 11 26 43 -10 114 -48 95 -94 143 -173 182 -61 30 -74 33 -144
30 -43 -1 -78 0 -78 2 0 11 44 28 89 36 76 13 161 11 246 -5z"/>
<path d="M6975 16576 c-192 -56 -285 -116 -337 -216 -33 -64 -33 -211 1 -287
24 -55 113 -148 188 -197 92 -61 286 -89 424 -62 123 25 273 100 331 166 72
82 99 195 73 306 -34 148 -139 244 -329 303 -104 32 -213 28 -351 -13z m391
-70 c151 -55 214 -129 214 -253 0 -93 -22 -153 -81 -217 -54 -59 -155 -115
-249 -137 -73 -17 -213 -14 -289 5 -86 22 -174 69 -209 112 -74 90 -65 254 20
345 14 15 43 39 66 54 38 25 41 26 71 11 44 -23 62 -20 122 22 71 51 139 68
181 47 43 -21 51 -19 46 10 -4 21 -1 25 18 25 13 0 53 -11 90 -24z"/>
<path d="M8384 16531 c-154 -15 -323 -143 -340 -259 -6 -39 -3 -54 20 -97 53
-102 96 -147 161 -171 73 -27 202 -31 290 -9 79 20 195 79 249 126 63 56 76
90 69 178 -5 62 -11 80 -37 114 -37 48 -110 90 -191 112 -61 16 -101 17 -221
6z m246 -93 c77 -33 105 -48 134 -71 26 -21 28 -27 21 -66 -20 -118 -225 -231
-420 -231 -133 0 -198 28 -235 100 -33 65 -27 90 37 155 31 31 73 65 94 75 47
25 145 58 184 63 53 7 139 -5 185 -25z"/>
<path d="M8338 16393 c-36 -9 -10 -103 28 -103 9 0 14 13 16 40 0 22 1 46 2
52 1 14 -19 19 -46 11z"/>
<path d="M23683 16123 c-30 -20 -29 -33 2 -33 20 0 25 5 25 25 0 29 2 29 -27
8z"/>
<path d="M23530 15989 c0 -5 5 -7 10 -4 6 3 10 8 10 11 0 2 -4 4 -10 4 -5 0
-10 -5 -10 -11z"/>
<path d="M23616 15971 c-15 -6 -16 -9 -5 -12 25 -8 139 -3 142 7 3 11 -111 16
-137 5z"/>
<path d="M23908 15968 c17 -8 26 -8 34 0 9 9 4 12 -22 11 -33 0 -34 -1 -12
-11z"/>
<path d="M24309 15946 c-8 -8 -133 -28 -167 -27 -19 1 -31 -2 -28 -7 10 -17
67 -19 108 -5 30 10 44 11 54 2 10 -8 21 -6 43 7 21 13 27 20 18 26 -14 9 -22
10 -28 4z"/>
<path d="M24433 15925 c-27 -23 -27 -24 -6 -25 31 0 53 10 53 25 0 25 -18 25
-47 0z"/>
<path d="M23905 15900 c-4 -6 6 -10 24 -10 16 0 33 5 36 10 4 6 -6 10 -24 10
-16 0 -33 -4 -36 -10z"/>
<path d="M10010 15330 c-12 -7 -11 -18 7 -72 12 -35 36 -135 54 -223 45 -229
173 -710 202 -756 6 -10 22 -19 34 -19 32 0 30 20 -17 201 -78 296 -119 465
-130 534 -44 274 -89 374 -150 335z"/>
<path d="M3660 15283 c-207 -21 -400 -59 -424 -83 -18 -18 -18 -22 -5 -46 27
-53 125 -116 354 -229 322 -160 519 -298 621 -438 38 -50 44 -66 44 -107 0
-39 -7 -59 -42 -110 -22 -34 -59 -76 -82 -92 -66 -49 -179 -97 -303 -129 -129
-33 -133 -35 -133 -54 0 -31 60 -29 203 6 146 37 260 101 347 196 131 143 120
237 -50 403 -155 153 -300 247 -599 391 -163 79 -281 150 -281 170 0 12 24 17
167 38 208 30 272 33 385 21 137 -15 246 -45 310 -86 87 -55 98 -59 116 -47
27 16 26 48 -2 71 -41 31 -218 90 -339 112 -101 18 -196 23 -287 13z"/>
<path d="M7330 15191 c-14 -5 -45 -17 -70 -28 -25 -11 -67 -24 -95 -27 -119
-16 -272 -71 -303 -109 -10 -12 -9 -18 4 -32 18 -18 64 -17 152 3 23 5 45 6
47 2 3 -4 -10 -33 -29 -64 -44 -73 -60 -140 -54 -231 4 -55 11 -84 31 -118 31
-52 96 -109 151 -132 91 -38 292 32 396 138 71 73 85 106 85 207 0 74 -4 93
-31 151 -25 51 -44 76 -91 112 -37 29 -63 59 -71 80 -18 49 -62 66 -122 48z
m49 -172 c30 -22 31 -22 51 -4 19 18 21 18 55 -1 53 -28 79 -90 80 -184 0 -88
-15 -121 -81 -185 -48 -47 -144 -98 -211 -113 -80 -18 -156 10 -194 71 -27 43
-20 134 18 231 22 56 43 86 99 145 70 72 73 74 112 69 22 -3 54 -16 71 -29z"/>
<path d="M8605 15164 c-116 -27 -161 -42 -227 -76 -117 -60 -184 -146 -144
-186 15 -15 19 -15 51 2 19 11 37 17 40 14 3 -2 0 -31 -6 -63 -6 -32 -8 -74
-4 -94 9 -49 49 -125 91 -171 48 -53 105 -71 244 -77 96 -4 129 -1 200 17 155
39 282 115 321 191 52 102 30 190 -71 290 -69 67 -124 100 -214 128 -66 20
-237 36 -281 25z m195 -90 c108 -20 196 -63 264 -127 87 -83 87 -147 1 -226
-93 -86 -229 -134 -380 -135 -196 -2 -294 69 -295 211 0 63 13 99 48 136 48
51 98 70 165 64 53 -5 59 -3 66 16 5 12 6 28 4 35 -11 26 -105 8 -240 -47 -30
-11 -53 -16 -53 -10 0 16 117 67 190 83 87 19 132 19 230 0z"/>
<path d="M15985 15110 c-137 -8 -155 -14 -155 -44 0 -45 35 -51 181 -30 118
16 148 16 268 5 185 -16 304 -36 398 -67 224 -73 204 -122 -112 -280 -232
-117 -274 -142 -282 -172 -19 -76 62 -124 361 -212 223 -66 401 -163 441 -240
20 -39 19 -106 -5 -157 -66 -146 -231 -309 -395 -391 -116 -58 -258 -70 -331
-27 -34 20 -44 22 -53 12 -15 -19 11 -52 62 -80 34 -18 58 -22 127 -22 114 1
190 23 311 92 160 92 280 214 360 369 56 109 50 167 -27 253 -88 97 -240 176
-514 266 -204 67 -253 89 -248 113 2 11 82 56 226 128 222 110 277 148 309
208 14 27 14 33 -3 64 -59 110 -345 193 -744 216 -30 2 -109 0 -175 -4z"/>
<path d="M17370 14833 c-61 -16 -90 -37 -90 -64 0 -20 28 -39 58 -39 11 0 39
9 63 19 159 71 595 -13 756 -145 69 -57 91 -125 60 -182 -32 -56 -136 -144
-312 -262 -208 -140 -285 -202 -285 -230 0 -24 42 -73 85 -100 42 -26 192 -57
335 -71 100 -9 344 -43 530 -73 68 -12 88 -12 98 -2 11 10 10 15 -1 24 -19 16
-285 77 -427 97 -397 58 -510 83 -510 113 0 19 82 83 256 198 195 129 303 225
324 288 38 115 -45 228 -235 321 -211 103 -538 153 -705 108z"/>
<path d="M7380 13609 c-25 -4 -82 -27 -128 -50 -98 -50 -211 -154 -257 -239
-28 -51 -30 -63 -30 -156 0 -98 1 -102 43 -187 57 -116 116 -174 235 -232 210
-102 448 -119 602 -42 67 33 135 88 163 131 23 35 27 51 27 117 0 65 -5 85
-35 145 -65 133 -196 233 -365 279 -80 22 -297 31 -376 16 -33 -7 -63 -10 -67
-7 -22 22 125 109 223 131 86 20 128 13 157 -25 21 -28 71 -54 82 -43 14 14 4
45 -25 78 -64 73 -153 103 -249 84z m270 -308 c95 -29 159 -64 211 -115 75
-76 118 -197 97 -274 -29 -103 -193 -192 -357 -192 -60 0 -179 23 -259 51
-137 46 -214 110 -265 217 -37 80 -40 175 -7 249 41 93 30 90 283 88 199 -1
230 -4 297 -24z"/>
<path d="M3029 13524 l-24 -26 1 -306 c1 -340 11 -473 49 -669 35 -176 56
-237 83 -241 18 -3 22 2 22 22 0 13 -5 37 -11 53 -17 46 -37 170 -51 318 -17
184 -17 743 1 803 9 34 9 47 0 58 -17 21 -43 17 -70 -12z"/>
<path d="M8674 13444 c-7 -28 7 -161 31 -291 8 -45 29 -178 45 -295 40 -278
75 -388 126 -388 25 0 28 30 6 83 -28 70 -38 114 -52 232 -6 55 -20 159 -31
230 -11 72 -27 193 -35 270 -19 188 -18 185 -54 185 -24 0 -31 -5 -36 -26z"/>
<path d="M10170 13350 c-159 -6 -199 -20 -273 -95 -89 -91 -127 -205 -127
-385 1 -257 57 -362 244 -451 234 -111 538 -115 764 -9 95 44 137 82 173 155
28 57 31 74 31 144 -2 123 -35 238 -102 351 -51 87 -78 119 -144 167 -141 105
-282 135 -566 123z m320 -100 c120 -31 210 -81 276 -153 31 -34 67 -85 80
-113 55 -117 78 -278 53 -368 -35 -127 -237 -216 -493 -216 -179 0 -358 54
-468 142 -20 16 -49 54 -64 85 -37 74 -45 224 -19 358 16 87 55 184 83 207 11
10 13 6 7 -25 -10 -51 9 -49 65 8 26 26 62 51 89 60 56 19 161 20 204 1 43
-18 112 -92 132 -139 13 -32 20 -38 42 -35 63 7 54 53 -29 144 -68 73 -68 73
42 44z"/>
<path d="M4032 13250 c-123 -32 -279 -128 -313 -192 -19 -36 5 -39 44 -7 21
17 40 29 42 27 2 -2 -11 -26 -31 -53 -91 -129 -111 -399 -43 -582 47 -123 128
-168 294 -161 86 4 111 9 179 38 210 89 391 269 442 441 63 212 -96 455 -327
499 -81 15 -206 11 -287 -10z m330 -69 c79 -30 150 -97 190 -179 29 -58 33
-76 32 -142 0 -51 -7 -92 -21 -126 -65 -166 -260 -328 -454 -380 -88 -23 -184
-13 -233 24 -80 61 -111 169 -103 354 7 170 29 231 110 308 62 60 71 90 25 90
-38 1 41 38 129 60 103 26 243 22 325 -9z"/>
<path d="M18851 12829 c-221 -59 -294 -174 -233 -365 23 -73 59 -127 167 -254
164 -191 272 -361 278 -434 2 -27 -2 -31 -38 -42 -131 -40 -391 3 -574 95 -71
37 -79 46 -87 107 -4 27 -11 55 -17 62 -16 21 -55 14 -73 -13 -15 -23 -15 -31
-3 -68 21 -63 64 -104 158 -151 167 -83 283 -111 466 -111 126 1 146 3 200 25
55 23 60 28 63 58 8 80 -172 362 -368 578 -77 85 -129 234 -109 310 19 69 70
104 224 154 86 28 96 37 71 56 -25 18 -35 17 -125 -7z"/>
<path d="M19589 12818 c-12 -22 -26 -215 -31 -438 -3 -91 -1 -105 14 -108 28
-6 58 68 69 171 5 51 16 152 25 225 16 126 16 133 -1 152 -24 27 -61 26 -76
-2z"/>
<path d="M16835 12703 c-63 -8 -135 -34 -164 -59 l-31 -26 -45 18 c-75 28
-268 6 -450 -53 -87 -27 -243 -111 -326 -174 -44 -34 -83 -59 -86 -55 -3 3 2
32 12 63 29 97 30 110 5 123 -31 17 -66 5 -78 -27 -6 -16 -16 -66 -22 -113 -7
-46 -18 -100 -26 -118 -21 -50 -18 -79 10 -97 32 -21 48 -12 116 61 143 157
391 281 644 323 61 10 128 16 149 14 33 -5 37 -8 37 -33 0 -16 -21 -86 -46
-157 -52 -148 -52 -172 3 -226 80 -81 208 -78 388 8 107 51 177 106 224 175
28 41 34 59 34 102 0 87 -57 174 -143 218 -31 16 -153 43 -170 38 -3 0 -18 -3
-35 -5z m157 -82 c44 -18 86 -68 107 -124 17 -43 14 -60 -20 -110 -74 -112
-342 -228 -448 -194 -52 17 -52 54 -1 196 22 62 40 127 40 144 0 26 8 37 38
56 80 53 204 67 284 32z"/>
<path d="M17246 12481 c-19 -35 -36 -137 -36 -212 0 -70 27 -115 90 -147 89
-46 167 -13 319 134 58 57 109 104 113 104 6 0 12 -21 24 -95 18 -114 108
-180 244 -180 61 0 87 6 140 30 87 39 160 86 249 159 105 87 111 93 111 121 0
36 -44 33 -96 -8 -135 -104 -175 -131 -248 -167 -74 -37 -179 -65 -209 -55 -7
2 -24 6 -39 9 -41 9 -60 56 -69 164 -7 96 -16 118 -58 134 -30 11 -45 1 -152
-100 -196 -185 -276 -227 -315 -167 -21 32 -14 142 12 211 22 59 9 94 -36 94
-22 0 -33 -7 -44 -29z"/>
<path d="M7680 11979 c-63 -9 -162 -51 -247 -105 -208 -132 -336 -350 -319
-544 20 -216 115 -338 331 -421 167 -65 331 -83 495 -54 248 44 388 130 427
264 21 74 13 203 -19 291 -80 219 -255 330 -546 347 -121 7 -182 -1 -182 -22
0 -22 12 -25 173 -46 255 -32 362 -77 432 -182 59 -89 79 -158 80 -272 0 -92
-2 -104 -28 -148 -35 -59 -95 -99 -197 -131 -220 -70 -456 -55 -658 39 -105
49 -156 95 -194 174 -31 61 -33 72 -33 171 0 101 2 108 37 180 66 135 192 255
347 333 82 41 88 42 180 42 l96 0 3 27 c6 49 -66 72 -178 57z"/>
<path d="M9036 11871 c-23 -25 -21 -56 23 -396 16 -126 35 -302 42 -390 12
-164 21 -194 55 -181 16 6 17 22 11 194 -4 103 -14 241 -22 307 -9 66 -19 195
-22 287 -3 91 -9 171 -12 176 -14 22 -56 24 -75 3z"/>
<path d="M10710 11681 c-11 -8 -14 -32 -13 -113 2 -109 19 -222 83 -558 22
-113 47 -250 55 -305 22 -136 57 -212 80 -175 13 20 -52 509 -80 610 -25 90
-47 271 -46 383 1 114 -1 129 -19 147 -22 22 -37 25 -60 11z"/>
<path d="M3110 11635 c-10 -12 -8 -28 9 -83 12 -37 26 -92 31 -122 5 -30 16
-91 24 -135 8 -44 26 -143 40 -220 14 -77 28 -149 30 -160 82 -405 108 -542
113 -602 7 -86 23 -108 55 -75 20 20 21 24 9 94 -7 40 -19 96 -26 123 -7 28
-23 115 -35 195 -12 80 -33 210 -47 290 -13 80 -33 195 -43 255 -26 152 -68
350 -86 408 -13 38 -20 47 -39 47 -12 0 -28 -7 -35 -15z"/>
<path d="M4215 11510 c-152 -18 -245 -72 -245 -142 0 -49 54 -128 195 -283
214 -236 375 -447 438 -576 74 -149 75 -293 5 -368 -49 -51 -94 -49 -180 7
-56 36 -78 11 -37 -42 35 -45 94 -69 156 -64 119 10 192 127 181 292 -11 159
-153 399 -417 701 -246 281 -261 300 -261 331 0 38 68 63 224 84 123 17 309
-3 337 -36 15 -19 -6 -19 -108 1 -108 21 -139 19 -157 -6 -34 -49 4 -69 153
-80 379 -26 576 -42 731 -59 101 -11 179 -15 184 -10 16 16 -3 39 -41 49 -57
15 -301 49 -443 62 -93 8 -130 15 -145 28 -11 10 -45 27 -75 38 -30 12 -75 28
-99 37 -111 42 -246 54 -396 36z"/>
<path d="M19496 11404 c-11 -10 -16 -32 -15 -67 1 -67 10 -97 32 -111 15 -9
23 -6 43 17 61 71 4 225 -60 161z"/>
<path d="M16850 11060 c-266 -6 -461 -19 -675 -45 -402 -47 -502 -64 -723
-121 -348 -89 -750 -251 -945 -381 -88 -59 -236 -200 -293 -279 -111 -155
-158 -307 -158 -509 0 -374 148 -687 504 -1070 262 -282 333 -344 581 -511
358 -241 511 -307 798 -345 97 -13 371 -7 416 9 87 31 268 82 328 92 63 12 69
11 82 -6 19 -24 104 -151 188 -280 81 -124 154 -193 322 -305 179 -119 222
-141 365 -188 69 -23 171 -57 228 -76 56 -19 109 -32 116 -29 36 14 21 70 -21
80 -53 12 -298 83 -357 104 -135 46 -401 214 -501 315 -33 33 -88 107 -123
166 -68 112 -152 232 -201 288 -24 27 -35 32 -53 26 -13 -4 -60 -15 -104 -26
-45 -10 -122 -32 -171 -48 -146 -50 -209 -61 -338 -61 -195 0 -371 31 -524 91
-221 88 -702 424 -850 595 -19 21 -73 81 -120 133 -353 384 -491 675 -494
1041 -2 206 33 324 146 488 130 189 366 342 747 485 415 155 713 219 1300 277
326 33 502 39 1055 36 615 -4 934 -24 1225 -77 247 -46 657 -173 785 -244 100
-55 211 -142 250 -195 20 -28 43 -74 51 -103 20 -75 18 -248 -5 -365 -21 -107
-93 -291 -144 -369 -54 -80 -350 -373 -378 -373 -5 0 -9 17 -9 38 0 90 -75
229 -172 318 -105 97 -252 174 -425 221 -83 23 -118 27 -228 28 -119 0 -134
-2 -179 -25 -59 -29 -96 -74 -78 -92 9 -9 27 -4 75 21 118 60 307 52 502 -22
268 -101 445 -300 445 -500 0 -53 -4 -65 -36 -107 -48 -63 -398 -400 -504
-485 -139 -112 -231 -161 -418 -225 l-64 -22 -86 22 c-117 29 -199 70 -268
133 -75 68 -104 129 -104 219 0 84 24 151 92 255 110 169 202 265 343 358 162
107 191 139 155 175 -11 11 -24 20 -30 20 -5 0 -38 -24 -72 -52 -35 -29 -81
-66 -103 -82 -148 -108 -230 -192 -336 -346 -108 -157 -135 -229 -126 -344 7
-94 41 -162 118 -237 60 -59 189 -132 255 -145 19 -3 33 -11 31 -18 -2 -6 -53
-23 -113 -38 -307 -76 -655 -92 -704 -33 -17 20 -49 19 -57 -2 -4 -9 5 -51 20
-92 14 -42 33 -105 41 -141 60 -267 158 -459 320 -629 93 -96 169 -149 286
-199 52 -22 120 -51 150 -65 30 -14 80 -33 110 -42 30 -9 72 -24 93 -33 34
-14 39 -14 53 0 34 34 -19 80 -119 103 -76 18 -360 142 -425 187 -141 96 -280
297 -346 502 -31 94 -88 307 -83 312 1 2 32 -1 67 -6 194 -28 465 11 790 115
66 21 136 36 188 39 263 20 558 145 699 298 108 118 167 223 212 376 33 115
36 119 136 204 39 33 130 119 203 191 132 131 134 133 197 262 69 142 86 194
110 330 17 96 21 255 9 321 -25 138 -155 278 -364 391 -195 106 -654 236 -977
278 -343 44 -911 60 -1583 45z m2190 -2078 c0 -28 -83 -160 -148 -238 -111
-130 -198 -187 -402 -262 -119 -44 -140 -37 -47 16 88 50 294 221 440 365 77
76 143 137 148 137 5 0 9 -8 9 -18z"/>
<path d="M16458 10420 c-9 -6 -40 -40 -69 -78 -29 -37 -92 -108 -139 -157
-190 -202 -275 -324 -400 -580 -95 -195 -111 -233 -240 -555 -123 -307 -178
-417 -242 -484 -53 -56 -59 -77 -26 -100 30 -22 42 -20 76 9 70 58 140 196
252 497 34 90 70 186 81 213 175 466 269 639 483 891 112 130 170 194 178 194
12 0 10 -45 -7 -135 -9 -44 -20 -109 -25 -145 -6 -36 -12 -72 -15 -80 -12 -39
-35 -397 -35 -533 1 -333 48 -530 149 -619 51 -45 130 -78 204 -85 239 -22
466 174 772 667 37 59 131 223 147 255 8 17 19 39 26 50 6 11 22 43 35 70 14
28 36 73 49 100 60 120 151 326 146 330 -9 9 -46 -28 -69 -70 -12 -22 -37 -68
-55 -103 -64 -120 -158 -287 -191 -339 -18 -29 -33 -54 -33 -57 0 -4 -53 -92
-175 -289 -54 -89 -172 -234 -270 -333 -95 -96 -122 -117 -199 -155 -79 -39
-96 -43 -160 -43 -125 0 -191 47 -240 172 -35 88 -45 145 -57 316 -18 252 18
599 107 1030 23 112 24 120 8 137 -19 21 -40 24 -66 9z"/>
<path d="M8016 9538 c-33 -47 -14 -299 34 -452 10 -33 26 -99 35 -146 31 -165
36 -180 56 -180 17 0 19 8 19 68 0 37 -12 121 -26 187 -49 228 -53 250 -59
325 -3 41 -2 100 4 130 10 62 1 90 -29 90 -10 0 -26 -10 -34 -22z"/>
<path d="M3197 9531 c-63 -5 -82 -10 -93 -26 -40 -55 15 -84 124 -65 176 30
450 21 502 -18 76 -57 6 -192 -260 -507 -185 -218 -309 -409 -350 -538 -7 -22
-10 -68 -8 -103 4 -72 19 -93 100 -145 205 -132 614 -149 933 -39 66 23 192
85 217 107 16 14 26 13 100 -11 100 -32 226 -45 331 -35 300 29 611 255 727
527 73 173 64 361 -22 438 -160 146 -461 169 -733 57 -113 -46 -230 -108 -265
-139 -19 -17 -49 -38 -65 -47 -64 -32 -154 -109 -185 -157 -106 -166 -88 -380
45 -530 25 -28 45 -53 45 -55 0 -10 -139 -74 -215 -99 -130 -42 -212 -57 -355
-61 -290 -9 -547 71 -591 183 -35 90 131 373 401 682 134 153 200 253 236 361
41 121 28 161 -62 193 -96 33 -321 44 -557 27z m2061 -366 c106 -25 198 -80
229 -138 25 -45 24 -202 -1 -277 -99 -296 -450 -539 -781 -540 -85 0 -245 29
-245 45 0 6 14 21 30 33 30 23 40 52 18 52 -7 0 -31 -11 -53 -25 -22 -13 -47
-25 -57 -25 -38 0 -113 131 -138 243 -25 109 20 252 101 321 20 17 81 56 135
86 53 30 113 70 133 89 49 46 240 125 351 144 60 10 220 6 278 -8z"/>
<path d="M11038 9485 c-3 -3 -55 -10 -116 -15 -125 -10 -170 -27 -220 -85 -75
-85 -110 -212 -98 -356 22 -270 152 -448 421 -580 131 -64 232 -89 355 -89
234 -1 393 106 456 307 24 76 29 225 10 312 -55 258 -277 456 -563 500 -74 11
-236 15 -245 6z m237 -89 c44 -8 103 -22 130 -31 239 -82 385 -277 385 -518 0
-297 -205 -475 -490 -427 -226 38 -436 166 -533 326 -108 179 -115 412 -14
560 60 88 133 104 275 59 77 -24 108 -24 124 -1 4 6 5 19 2 29 -7 21 13 22
121 3z"/>
<path d="M9249 9429 c-36 -4 -89 -17 -117 -29 -86 -37 -146 -126 -84 -124 12
0 22 -1 22 -2 0 -1 -13 -36 -29 -76 -44 -108 -54 -161 -54 -281 -1 -106 0
-109 39 -184 66 -131 167 -194 329 -208 139 -13 333 51 435 142 90 80 132 226
101 350 -20 77 -77 187 -123 235 -116 119 -339 195 -519 177z m179 -114 c30
-14 76 -48 102 -75 43 -44 52 -50 70 -40 26 14 26 42 0 65 -30 28 -24 37 13
19 166 -85 258 -312 191 -473 -53 -128 -223 -221 -404 -222 -180 -1 -297 80
-336 232 -20 77 -9 181 30 304 34 105 68 152 135 187 68 36 127 37 199 3z"/>
<path d="M20565 9234 c-308 -17 -559 -81 -806 -204 -502 -252 -820 -457 -1052
-679 -220 -211 -374 -502 -434 -821 -15 -79 -18 -147 -17 -395 0 -279 2 -311
27 -460 60 -350 159 -775 219 -940 91 -247 211 -449 410 -685 166 -198 276
-304 407 -393 67 -46 218 -137 226 -137 2 0 32 -13 67 -29 104 -47 207 -79
321 -97 237 -38 489 25 732 184 86 57 242 180 310 247 29 27 89 86 134 130
277 268 457 538 658 985 265 587 379 1130 343 1630 -13 177 -34 284 -91 453
-73 216 -166 385 -302 550 -136 165 -291 303 -487 432 -134 88 -146 95 -156
95 -5 0 -20 9 -34 20 -23 18 -24 20 -5 20 36 0 198 -51 242 -76 25 -14 51 -41
65 -66 24 -45 63 -62 79 -36 15 23 10 38 -33 85 -115 124 -473 206 -823 187z
m376 -115 c410 -200 798 -580 955 -935 57 -130 114 -322 140 -469 24 -145 29
-415 10 -588 -9 -81 -21 -158 -25 -170 -5 -12 -11 -44 -15 -72 -17 -122 -94
-412 -147 -550 -106 -281 -127 -329 -229 -540 -103 -210 -196 -358 -366 -580
-132 -173 -425 -441 -624 -570 -261 -171 -513 -223 -785 -164 -256 55 -540
223 -756 445 -261 271 -452 570 -548 860 -98 296 -211 867 -226 1144 -4 63 -8
138 -10 165 -5 83 14 362 31 454 49 264 191 533 387 732 187 191 387 330 772
536 422 227 577 288 830 327 140 22 150 23 336 24 l166 2 104 -51z"/>
<path d="M20392 8332 c-7 -5 -12 -22 -10 -39 1 -22 -8 -42 -42 -81 -24 -29
-46 -52 -49 -52 -16 0 -135 -128 -147 -158 -45 -104 139 -230 339 -233 74 -1
124 12 183 49 49 30 63 50 80 116 25 93 -3 188 -78 264 -97 100 -228 164 -276
134z m165 -101 c43 -31 81 -76 106 -126 16 -34 28 -135 16 -135 -5 0 -17 -17
-26 -37 -10 -21 -36 -49 -58 -64 -45 -31 -141 -53 -152 -36 -4 6 0 13 8 15 20
7 119 106 119 120 0 12 -4 16 -70 67 -25 19 -52 35 -61 35 -33 0 -116 -78
-143 -136 l-27 -57 -24 23 c-44 41 -34 70 52 152 100 94 193 191 193 201 0 15
28 6 67 -22z m-99 -293 c-6 -16 -36 -34 -44 -25 -9 9 15 37 33 37 8 0 13 -5
11 -12z"/>
<path d="M21135 7486 c-120 -31 -248 -121 -275 -192 -24 -62 -4 -139 52 -202
128 -147 381 -254 525 -224 88 18 97 34 90 158 -5 108 -22 158 -71 203 -19 18
-29 22 -37 14 -8 -8 -4 -29 15 -76 28 -71 35 -157 15 -201 -24 -53 -179 -45
-320 15 -60 26 -68 54 -11 42 52 -11 147 -6 180 9 39 19 40 55 2 102 -16 21
-30 42 -30 47 0 25 -35 39 -99 39 -58 0 -74 -4 -117 -31 -56 -36 -64 -45 -64
-78 0 -20 -2 -22 -16 -10 -31 25 -46 71 -42 121 4 40 12 57 43 88 77 79 203
125 319 118 85 -6 126 -25 154 -73 23 -38 42 -44 62 -20 27 32 -30 109 -105
141 -52 22 -203 28 -270 10z"/>
<path d="M19110 6801 c-152 -19 -265 -72 -455 -213 -168 -125 -157 -115 -145
-139 26 -48 66 -38 166 44 187 151 264 195 396 229 74 18 102 20 258 15 358
-11 589 -84 753 -237 112 -105 222 -279 263 -416 35 -117 15 -383 -42 -553
-14 -42 -52 -128 -84 -191 -32 -63 -63 -127 -69 -142 -6 -17 -18 -28 -30 -28
-10 0 -74 45 -142 100 -229 184 -483 376 -644 485 -151 102 -342 244 -640 475
-146 114 -185 140 -208 140 -21 0 -30 -16 -20 -33 14 -24 623 -482 813 -612
259 -177 347 -243 579 -430 201 -163 311 -244 324 -239 7 2 20 32 30 67 19 64
29 87 102 222 85 159 127 340 128 555 1 141 -12 198 -71 315 -169 338 -393
497 -796 565 -132 22 -367 33 -466 21z"/>
<path d="M21135 6750 c-56 -28 -117 -127 -160 -259 -36 -110 -3 -313 69 -422
44 -65 148 -100 208 -68 51 27 92 212 83 374 -3 55 -1 145 5 199 9 88 8 101
-6 118 -21 22 -37 23 -55 1 -11 -12 -15 -75 -19 -267 -5 -244 -6 -252 -31
-301 -22 -44 -29 -50 -60 -53 -50 -4 -76 21 -105 103 -52 147 -44 238 38 396
45 88 73 119 120 128 58 12 45 71 -16 71 -17 0 -49 -9 -71 -20z"/>
<path d="M8252 7668 c-7 -9 -8 -67 -2 -178 8 -165 12 -186 74 -410 63 -230
127 -505 141 -609 8 -62 20 -131 25 -153 11 -39 34 -58 50 -42 19 20 -36 386
-94 629 -8 33 -38 155 -66 270 l-52 210 7 123 c5 104 3 128 -10 148 -17 26
-56 32 -73 12z"/>
<path d="M9691 7334 c-124 -33 -198 -113 -249 -271 -67 -203 -85 -442 -43
-579 51 -171 225 -274 459 -274 59 0 130 6 158 14 227 60 368 269 350 515 -18
247 -119 424 -301 526 -27 16 -57 37 -65 47 -9 11 -34 23 -55 28 -59 14 -193
11 -254 -6z m188 -74 c182 -30 328 -162 382 -346 29 -97 36 -252 16 -331 -58
-224 -213 -335 -446 -320 -148 9 -274 72 -337 167 -78 117 -71 363 15 587 62
161 155 253 255 253 28 0 80 -5 115 -10z"/>
<path d="M4110 7271 c-109 -23 -567 -149 -600 -164 -33 -16 -41 -72 -12 -81
16 -5 176 37 457 121 130 39 208 54 296 60 83 5 101 3 142 -15 33 -15 47 -27
47 -41 0 -31 -86 -150 -206 -283 -207 -231 -244 -285 -244 -361 0 -126 162
-199 405 -182 247 17 510 87 755 202 113 53 164 88 154 104 -10 16 -41 9 -115
-25 -379 -175 -816 -256 -1024 -189 -52 16 -100 53 -108 83 -10 40 33 100 242
336 129 146 181 222 206 301 22 70 13 92 -52 123 -66 32 -223 37 -343 11z"/>
<path d="M5169 7265 c-120 -20 -189 -44 -220 -75 -16 -16 -29 -36 -29 -44 0
-23 68 -64 260 -158 91 -45 194 -99 229 -120 34 -21 65 -38 67 -38 3 0 38 -23
78 -50 137 -93 206 -193 206 -296 0 -50 -3 -59 -31 -85 -36 -33 -83 -44 -147
-34 -77 12 -86 11 -90 -8 -8 -42 169 -68 234 -34 68 36 98 91 97 180 -2 138
-81 241 -280 364 -181 112 -317 186 -394 213 -43 15 -111 60 -116 77 -3 7 12
16 36 23 92 24 210 32 414 25 207 -7 207 -7 207 14 0 30 -25 37 -170 50 -155
14 -253 13 -351 -4z"/>
<path d="M11520 7130 c-6 -11 -8 -25 -5 -31 4 -5 11 -92 15 -192 5 -100 18
-236 29 -302 24 -143 38 -279 46 -435 3 -63 10 -140 15 -170 5 -30 9 -89 9
-131 0 -48 7 -92 17 -118 31 -78 38 -37 35 221 -3 309 -11 421 -57 738 -11 78
-14 151 -11 225 6 120 -3 193 -24 206 -24 15 -58 10 -69 -11z"/>
<path d="M5530 7115 c-7 -8 -10 -21 -7 -29 23 -60 800 -146 852 -95 21 22 -27
37 -133 43 -59 4 -145 11 -192 17 -47 6 -119 14 -161 19 -42 5 -124 20 -182
34 -122 30 -160 32 -177 11z"/>
<path d="M3189 5933 c-11 -28 -6 -624 7 -968 3 -82 2 -166 -3 -185 -9 -35 -10
-35 -57 -32 -42 3 -47 2 -44 -15 2 -10 20 -27 40 -38 28 -15 36 -25 35 -44 -3
-38 31 -40 62 -4 24 27 35 31 127 42 235 27 471 120 586 229 l37 35 10 -29
c22 -62 38 -80 92 -107 112 -56 259 -59 375 -7 58 25 141 104 169 160 63 126
28 228 -95 273 -95 35 -187 19 -256 -45 -21 -19 -21 -19 -27 1 -3 12 -12 24
-21 27 -22 9 -103 -25 -155 -65 -25 -19 -47 -29 -49 -23 -9 28 -51 79 -81 99
-118 80 -354 45 -519 -76 -46 -34 -113 -130 -156 -225 -14 -32 -28 -57 -31
-54 -10 10 15 963 26 1005 13 50 2 73 -37 73 -17 0 -28 -8 -35 -27z m686 -742
c22 -10 51 -30 64 -44 20 -22 23 -33 19 -72 -9 -77 -74 -141 -212 -208 -141
-68 -464 -154 -481 -127 -6 10 25 99 67 191 63 136 168 223 319 263 77 21 175
20 224 -3z m607 -11 c56 -16 108 -69 108 -112 0 -75 -105 -184 -200 -208 -78
-20 -195 -14 -249 12 -56 28 -91 77 -91 128 0 55 54 114 120 130 28 7 53 16
56 21 10 16 24 10 24 -11 0 -25 41 -28 61 -3 17 20 87 53 114 53 11 0 37 -5
57 -10z"/>
<path d="M9963 5723 c-23 -9 -14 -53 27 -136 48 -98 62 -175 90 -498 28 -316
67 -611 94 -702 15 -53 40 -57 44 -5 2 20 -6 99 -17 175 -21 139 -44 379 -56
573 -25 410 -92 630 -182 593z"/>
<path d="M8539 5688 c-7 -12 -16 -81 -20 -153 -8 -112 -39 -358 -54 -420 -9
-39 -34 -323 -46 -525 -15 -247 -6 -365 26 -365 19 0 20 9 26 205 9 291 22
414 79 765 4 28 15 96 24 151 9 56 21 125 26 154 13 67 13 151 0 184 -12 32
-45 34 -61 4z"/>
<path d="M11876 5418 c-9 -5 -16 -18 -16 -28 0 -19 35 -50 57 -50 6 0 42 -14
80 -31 215 -99 365 -265 393 -434 17 -106 -9 -178 -89 -238 -65 -49 -98 -64
-170 -77 -56 -10 -71 -9 -130 9 -189 57 -305 256 -304 521 0 86 2 100 27 143
16 26 46 62 67 79 38 31 47 56 33 92 -3 9 -18 16 -31 16 -35 0 -89 -60 -127
-140 -26 -56 -31 -79 -34 -169 -11 -268 75 -466 256 -589 62 -42 115 -55 205
-50 71 4 92 9 155 42 92 49 146 102 183 179 82 174 -16 426 -227 585 -122 92
-287 163 -328 140z"/>
<path d="M6115 5401 c-160 -48 -218 -119 -171 -209 27 -51 136 -134 276 -211
47 -26 138 -114 150 -146 28 -73 -5 -131 -117 -205 -78 -51 -159 -82 -246 -95
-41 -6 -47 -10 -47 -31 0 -34 21 -39 104 -26 78 12 225 79 288 132 57 47 91
115 92 180 1 104 -59 172 -260 295 -111 68 -194 139 -194 166 0 37 144 89 246
89 70 0 89 15 73 58 -7 20 -15 22 -71 21 -35 0 -90 -9 -123 -18z"/>
<path d="M4931 5369 c-59 -12 -127 -46 -151 -76 -31 -40 -44 -99 -29 -135 16
-38 72 -75 140 -94 69 -18 112 -18 205 2 42 8 78 14 80 11 2 -2 -12 -49 -31
-104 -18 -56 -50 -164 -70 -240 -73 -281 -97 -332 -152 -333 -31 0 -37 -17
-19 -45 22 -33 48 -31 89 5 43 38 78 115 121 271 55 195 83 289 111 362 36 97
47 154 35 177 -14 27 -39 25 -102 -7 -48 -25 -63 -28 -159 -28 -100 0 -107 1
-142 28 -43 33 -46 55 -13 86 40 37 108 52 211 45 76 -6 93 -4 104 9 18 22 10
49 -19 64 -28 14 -142 15 -209 2z"/>
<path d="M5469 5283 c-23 -36 -24 -48 -24 -190 l0 -153 36 -36 c61 -61 146
-66 220 -13 86 61 217 370 152 357 -10 -2 -39 -48 -72 -113 -70 -137 -92 -168
-135 -189 -47 -22 -59 -20 -95 13 -30 28 -31 31 -31 118 1 56 7 103 17 128 8
22 16 56 17 75 1 32 -1 35 -30 38 -27 3 -35 -2 -55 -35z"/>
<path d="M8653 3882 c-7 -4 -15 -28 -18 -52 -4 -25 -14 -83 -22 -129 -8 -47
-12 -103 -8 -130 3 -25 10 -189 14 -364 8 -269 12 -321 26 -343 9 -14 24 -24
33 -22 15 3 17 25 18 213 0 116 -4 287 -9 380 -9 150 -8 179 8 250 28 127 31
176 9 192 -20 15 -34 16 -51 5z"/>
<path d="M11937 3823 c-15 -14 -5 -47 42 -141 26 -53 65 -142 85 -197 21 -55
46 -120 56 -145 38 -93 83 -300 105 -487 23 -191 31 -226 45 -204 10 17 3 326
-10 406 -38 238 -207 700 -276 754 -28 22 -37 25 -47 14z"/>
<path d="M5556 3757 c-17 -5 -55 -25 -85 -43 -52 -32 -57 -33 -79 -18 -19 13
-30 14 -48 5 -20 -9 -24 -18 -24 -56 0 -43 -2 -47 -62 -93 -111 -85 -104 -78
-89 -96 16 -19 41 -14 83 15 33 24 42 24 33 2 -4 -10 -22 -79 -41 -153 -47
-189 -44 -252 11 -200 17 16 31 53 51 133 15 62 37 142 49 178 13 36 26 85 30
108 8 51 42 92 102 128 51 30 67 21 58 -32 -13 -75 -45 -333 -45 -361 0 -81
92 -115 144 -53 14 17 26 34 26 39 0 17 92 132 99 124 4 -5 13 -38 19 -73 19
-108 76 -167 176 -180 31 -4 65 -16 75 -26 29 -25 54 -13 46 23 -4 22 0 33 21
52 26 25 67 102 79 153 17 65 -31 157 -82 157 -67 0 -94 -51 -102 -195 -5 -86
-9 -100 -24 -103 -67 -13 -112 51 -120 171 -12 169 -65 168 -200 -3 -66 -83
-87 -101 -87 -73 0 10 9 65 19 123 29 158 44 285 37 314 -8 34 -34 46 -70 33z
m564 -385 c-1 -26 -38 -102 -50 -102 -13 0 -6 46 16 98 14 33 34 36 34 4z"/>
<path d="M10140 3603 c0 -16 5 -47 10 -70 5 -23 19 -117 29 -210 11 -92 29
-217 41 -278 23 -125 35 -217 50 -394 11 -130 20 -154 54 -149 18 3 21 10 21
48 -1 91 -26 358 -40 440 -28 156 -54 344 -60 445 -10 149 -29 195 -81 195
-20 0 -24 -5 -24 -27z"/>
<path d="M4020 3510 c-6 -11 -12 -46 -14 -77 -3 -32 -9 -97 -16 -144 -16 -120
-11 -163 19 -167 44 -7 69 8 119 70 90 112 209 231 222 223 10 -6 11 -33 7
-104 -7 -117 5 -165 44 -169 l26 -3 6 167 c6 183 0 214 -36 214 -35 0 -81 -38
-214 -177 -66 -71 -123 -126 -126 -123 -3 3 2 46 9 95 29 182 29 187 9 201
-26 19 -42 17 -55 -6z"/>
<path d="M3483 3471 c-10 -10 -38 -56 -63 -102 -33 -62 -65 -104 -125 -162
-248 -242 -473 -374 -598 -350 -67 12 -85 51 -61 131 35 122 97 212 198 289
120 91 225 119 327 90 30 -9 69 -28 88 -42 39 -28 73 -32 90 -11 16 19 -10 46
-81 83 -48 25 -63 28 -158 28 -89 0 -114 -4 -160 -24 -162 -70 -287 -200 -344
-359 -42 -118 -32 -187 32 -219 54 -27 179 -24 255 6 119 47 342 216 461 350
32 36 64 72 72 80 11 12 13 -8 13 -135 -1 -150 6 -190 38 -226 17 -19 53 -25
53 -8 0 5 -7 35 -15 67 -29 110 -18 268 32 481 5 22 -11 52 -28 52 -5 0 -17
-8 -26 -19z"/>
<path d="M6440 3373 c-66 -73 -106 -144 -121 -209 -15 -65 -6 -102 25 -110 46
-11 62 9 69 82 6 59 14 80 63 161 63 104 69 127 38 131 -15 2 -36 -13 -74 -55z"/>
<path d="M4758 3372 c-10 -2 -21 -16 -24 -30 -3 -15 -11 -38 -18 -52 -17 -32
-10 -50 20 -50 14 0 30 -10 41 -26 21 -32 92 -64 141 -64 45 0 113 30 147 64
33 33 23 53 -43 89 -42 23 -62 27 -126 27 -63 0 -77 3 -85 19 -12 22 -29 29
-53 23z m187 -106 c40 -17 41 -19 19 -40 -34 -35 -137 -3 -121 37 8 21 55 22
102 3z"/>
</g>
</svg>
