<?xml version="1.0" standalone="no"?>
<!DOCTYPE svg PUBLIC "-//W3C//DTD SVG 20010904//EN"
 "http://www.w3.org/TR/2001/REC-SVG-20010904/DTD/svg10.dtd">
<svg version="1.0" xmlns="http://www.w3.org/2000/svg"
 width="3264.000000pt" height="2448.000000pt" viewBox="0 0 3264.000000 2448.000000"
 preserveAspectRatio="xMidYMid meet">
<metadata>
Created by potrace 1.12, written by Peter Selinger 2001-2015
</metadata>
<g transform="translate(0.000000,2448.000000) scale(0.100000,-0.100000)"
fill="#000000" stroke="none">
<path d="M30651 24420 c-19 -11 -6 -41 14 -34 16 6 20 29 7 38 -4 2 -14 1 -21
-4z"/>
<path d="M10972 22868 c-5 -7 -13 -40 -17 -73 -10 -89 -68 -279 -140 -460 -79
-203 -85 -222 -87 -281 0 -41 4 -51 28 -72 26 -23 34 -24 108 -19 48 3 125 18
191 37 185 55 259 100 222 137 -13 13 -25 11 -103 -15 -139 -47 -234 -71 -299
-74 l-60 -3 -3 33 c-2 22 19 87 68 210 121 297 184 519 162 567 -13 27 -52 34
-70 13z"/>
<path d="M2275 22755 c-50 -19 -109 -35 -132 -35 -35 0 -46 -5 -60 -26 -11
-18 -57 -45 -133 -81 -161 -75 -231 -150 -171 -183 28 -14 27 -15 79 36 66 66
144 116 184 117 l33 2 7 -115 c3 -63 13 -149 22 -190 47 -214 81 -433 71 -457
-2 -7 0 -24 5 -38 13 -34 57 -35 66 -2 6 26 -9 151 -31 262 -26 128 -54 328
-64 450 -8 101 -7 123 5 136 8 9 74 36 147 59 146 48 168 60 147 84 -20 25
-77 18 -175 -19z"/>
<path d="M5886 22748 c-11 -15 -16 -45 -16 -93 0 -83 -48 -385 -64 -402 -6 -6
-36 -20 -66 -30 -50 -16 -55 -20 -55 -48 0 -30 0 -30 54 -28 l53 3 -6 -34 c-4
-19 -13 -47 -21 -62 -21 -44 -69 -240 -62 -258 4 -9 11 -16 16 -16 27 0 53 74
101 284 12 49 25 97 30 107 10 17 96 55 151 66 l26 5 -30 -90 c-35 -105 -32
-149 13 -194 24 -24 36 -28 82 -28 66 0 123 26 165 73 34 39 103 173 103 200
0 9 4 18 9 22 5 3 12 -25 15 -62 8 -85 16 -113 39 -127 22 -14 53 4 49 30 -3
24 -18 121 -38 244 -10 63 -22 101 -34 114 -21 22 -49 15 -57 -12 -3 -15 -14
-19 -47 -19 -23 -1 -69 -12 -102 -26 -32 -14 -75 -28 -94 -32 -19 -4 -74 -18
-123 -32 -48 -15 -89 -24 -92 -21 -3 2 2 29 9 59 35 132 76 360 70 384 -6 24
-30 45 -53 45 -5 0 -17 -10 -25 -22z m441 -464 c-15 -89 -107 -238 -167 -269
-115 -59 -152 93 -51 207 28 31 54 46 116 68 108 37 109 37 102 -6z"/>
<path d="M16877 22763 c-12 -11 -7 -89 6 -107 8 -11 23 -17 38 -14 22 3 24 8
23 50 0 25 -6 53 -13 62 -14 16 -42 21 -54 9z"/>
<path d="M7473 22733 c-16 -6 -17 -50 -1 -107 23 -85 -31 -276 -150 -528 -54
-115 -60 -153 -25 -146 55 10 225 398 253 580 23 141 -11 228 -77 201z"/>
<path d="M6682 22708 c-8 -8 -12 -51 -12 -129 0 -141 -30 -329 -72 -452 -24
-70 -28 -90 -18 -102 19 -23 41 -18 77 17 l33 32 39 -22 c162 -91 435 39 435
209 0 86 -62 139 -162 139 -111 0 -210 -58 -269 -158 -38 -63 -48 -40 -24 54
37 151 53 362 31 405 -12 21 -40 25 -58 7z m378 -407 c16 -12 26 -30 28 -51 4
-42 -40 -89 -112 -121 -98 -43 -261 -23 -241 29 17 45 74 104 124 129 90 45
151 49 201 14z"/>
<path d="M15012 22689 c-33 -17 -88 -57 -121 -88 -84 -76 -227 -280 -301 -426
-66 -132 -133 -319 -125 -347 8 -22 39 -32 63 -19 23 12 33 36 67 160 34 123
65 195 132 311 87 148 142 217 228 286 121 97 185 107 185 29 0 -72 -135 -192
-243 -215 -80 -17 -125 -74 -79 -99 27 -14 153 31 232 84 109 72 164 155 164
247 1 46 -4 61 -23 82 -35 38 -99 36 -179 -5z"/>
<path d="M3832 22687 c-6 -7 -13 -71 -16 -142 -3 -72 -8 -168 -12 -214 l-7
-83 -82 -54 c-45 -29 -88 -60 -94 -68 -16 -19 -11 -46 10 -59 13 -8 31 0 81
36 36 26 68 47 71 47 3 0 4 -34 2 -75 -3 -79 9 -110 40 -99 12 5 15 26 15 98
0 52 6 101 13 115 7 14 65 56 140 100 70 42 161 106 203 141 83 71 103 85 111
76 3 -3 -8 -63 -25 -133 -76 -313 -78 -355 -14 -361 30 -3 44 8 175 136 78 76
152 144 165 151 55 29 81 -12 107 -169 37 -231 45 -250 105 -250 42 0 48 23
17 68 -19 27 -29 60 -37 122 -32 239 -68 320 -142 320 -38 0 -119 -53 -178
-116 -87 -93 -164 -164 -177 -164 -9 0 -11 10 -7 33 7 39 52 223 88 364 21 79
24 108 16 123 -17 33 -39 24 -115 -48 -86 -83 -404 -297 -418 -282 -3 3 1 41
8 85 22 136 29 283 15 300 -15 18 -44 19 -58 2z"/>
<path d="M12379 22676 c-23 -50 27 -111 75 -93 19 7 32 75 19 96 -6 9 -26 17
-46 19 -31 3 -39 -1 -48 -22z"/>
<path d="M15765 22616 c-16 -8 -50 -35 -75 -60 -24 -25 -52 -46 -61 -46 -9 0
-36 16 -59 35 -23 19 -49 35 -57 35 -27 0 -72 -40 -146 -128 -39 -48 -98 -115
-129 -149 -62 -67 -75 -106 -38 -118 35 -11 54 4 138 113 45 59 99 126 120
149 l37 43 53 -26 c28 -15 52 -33 52 -40 0 -7 -7 -38 -15 -69 -24 -94 1 -175
67 -215 67 -40 241 -35 334 11 83 40 95 133 33 254 -31 62 -32 66 -16 82 13
14 36 17 103 18 73 0 89 3 98 18 34 56 -156 91 -227 42 -59 -42 -72 -117 -34
-200 49 -104 46 -139 -11 -154 -112 -28 -205 -21 -249 21 -23 22 -25 28 -21
100 3 42 10 84 17 92 7 9 29 18 50 21 56 10 110 36 137 68 63 75 -6 145 -101
103z"/>
<path d="M13391 22593 c-133 -47 -210 -226 -148 -342 49 -95 168 -138 352
-128 199 11 295 41 269 84 -13 21 -16 21 -181 4 -176 -18 -317 8 -363 67 -49
61 -8 182 76 222 80 39 204 23 204 -26 0 -27 -139 -74 -222 -74 -36 0 -50 -4
-58 -19 -15 -29 -13 -39 15 -57 21 -14 34 -15 91 -5 211 37 312 145 221 236
-55 55 -163 71 -256 38z"/>
<path d="M14565 22480 c-60 -61 -124 -120 -142 -131 -29 -18 -34 -19 -61 -5
-40 20 -90 80 -113 132 -15 36 -23 44 -44 44 -34 0 -47 -35 -34 -87 8 -26 30
-57 75 -100 l65 -62 -73 -37 c-40 -20 -102 -47 -138 -59 -74 -25 -105 -60 -81
-89 7 -9 26 -16 42 -16 32 0 158 60 256 122 50 32 69 39 91 34 108 -27 156
-24 169 10 8 22 -17 40 -69 48 l-42 7 128 122 c106 102 127 127 124 147 -7 52
-38 35 -153 -80z"/>
<path d="M9470 22537 c-34 -17 -38 -52 -8 -71 13 -9 57 -20 98 -26 89 -12 250
-60 329 -98 l56 -27 -335 -3 c-215 -2 -356 1 -393 8 -32 6 -66 8 -76 5 -41
-13 -36 -70 7 -86 54 -21 697 -8 826 17 44 8 47 -7 13 -57 -49 -73 -210 -168
-300 -177 -40 -4 -48 -8 -53 -28 -12 -46 1 -57 61 -52 39 3 82 18 148 51 154
76 241 180 242 287 0 69 -27 110 -94 145 -57 28 -118 45 -316 84 -83 16 -157
32 -165 35 -8 3 -26 0 -40 -7z"/>
<path d="M16585 22534 c-173 -13 -263 -42 -290 -94 -24 -46 -19 -63 45 -141
38 -46 60 -82 58 -94 -2 -12 -34 -41 -83 -73 -86 -58 -106 -82 -85 -107 21
-26 47 -17 133 44 149 106 159 160 52 279 -53 59 -52 68 11 82 64 15 329 33
368 26 75 -14 71 -71 -16 -253 -54 -114 -62 -167 -27 -178 29 -9 55 18 73 74
8 25 33 88 55 138 68 155 66 244 -6 278 -36 18 -181 27 -288 19z"/>
<path d="M17122 22530 c-76 -12 -111 -72 -68 -115 14 -14 26 -28 26 -30 0 -2
-22 -26 -50 -54 -182 -182 -131 -307 91 -222 137 52 206 135 215 257 4 57 2
74 -14 100 -33 52 -115 78 -200 64z m138 -111 c17 -30 11 -92 -13 -133 -25
-45 -114 -99 -187 -115 -95 -21 -77 24 62 147 69 61 98 93 98 109 0 26 25 22
40 -8z"/>
<path d="M12397 22493 c-30 -34 -107 -206 -107 -240 0 -58 56 -57 71 1 4 14
28 62 53 105 50 84 57 124 27 141 -25 13 -25 13 -44 -7z"/>
<path d="M12703 22466 c-65 -50 -104 -89 -157 -159 -45 -61 -48 -106 -10 -144
25 -25 28 -26 122 -20 103 6 318 55 358 82 27 18 32 53 8 62 -8 3 -63 -6 -122
-20 -203 -49 -302 -56 -302 -22 0 25 57 80 137 134 87 59 98 72 89 107 -10 39
-54 32 -123 -20z"/>
<path d="M18073 22489 c-55 -10 -97 -33 -122 -65 -33 -42 -27 -78 22 -131 34
-37 74 -61 202 -123 225 -110 250 -143 134 -184 -46 -16 -78 -19 -209 -16 -85
1 -195 3 -245 4 l-90 1 -3 -27 c-2 -18 3 -30 15 -36 28 -15 227 -35 353 -36
204 -1 330 58 330 153 0 71 -52 116 -245 211 -164 80 -216 119 -195 145 16 20
79 25 153 14 59 -9 72 -9 84 4 25 24 9 64 -29 75 -52 16 -110 20 -155 11z"/>
<path d="M27764 22479 c-8 -8 -14 -23 -14 -31 0 -40 10 -41 558 -39 316 1 572
-2 641 -9 123 -11 141 -7 141 35 0 55 -121 65 -808 62 -444 -2 -505 -4 -518
-18z"/>
<path d="M17720 22452 c-19 -9 -67 -40 -105 -68 -76 -55 -115 -78 -115 -69 0
4 16 27 35 52 19 25 35 51 35 57 0 18 -22 36 -42 36 -19 0 -126 -138 -161
-208 l-21 -42 21 -22 c20 -19 26 -20 60 -10 21 6 70 37 108 68 87 70 155 117
161 112 2 -3 -14 -28 -35 -57 -63 -84 -66 -138 -10 -162 67 -27 117 25 64 67
l-27 21 30 34 c67 78 102 132 102 158 0 52 -36 64 -100 33z"/>
<path d="M7863 22439 c-112 -22 -192 -82 -235 -178 -51 -111 -48 -190 11 -272
36 -52 96 -86 182 -106 165 -37 389 35 389 125 0 34 -22 66 -82 121 -52 47
-78 102 -58 126 18 22 116 55 184 62 85 8 106 18 106 47 0 13 -7 27 -16 30
-35 14 -132 5 -197 -18 l-67 -24 -15 34 c-24 57 -93 75 -202 53z m129 -85 c11
-7 10 -52 -2 -74 -21 -40 -173 -105 -270 -117 -42 -5 -50 -3 -50 11 0 48 55
122 112 152 68 35 175 49 210 28z m13 -200 c8 -19 37 -57 65 -84 27 -26 50
-56 50 -65 0 -31 -67 -49 -185 -50 -101 0 -115 2 -168 28 -36 18 -63 39 -72
57 -18 35 -12 40 80 60 64 13 147 47 180 74 28 22 33 20 50 -20z"/>
<path d="M11953 22410 c-98 -20 -159 -78 -185 -175 -14 -54 -4 -89 33 -118 60
-44 160 -30 274 38 32 19 59 35 61 35 5 0 -43 -125 -72 -190 -14 -30 -44 -83
-66 -118 -33 -51 -43 -60 -50 -48 -14 25 -47 19 -58 -10 -15 -38 -12 -110 4
-124 33 -26 59 -7 129 95 81 118 102 158 155 291 52 132 70 208 52 229 -17 21
-30 19 -65 -11 -123 -107 -259 -152 -316 -105 l-24 19 21 29 c52 70 125 93
230 72 57 -11 66 -11 80 3 51 50 -90 111 -203 88z"/>
<path d="M3094 22328 c-37 -35 -91 -100 -121 -145 -46 -72 -57 -83 -82 -83
-16 0 -33 -6 -39 -12 -15 -19 -35 -189 -24 -200 5 -5 20 -8 33 -6 19 2 33 23
69 93 82 165 199 325 237 325 20 0 26 -46 19 -144 -8 -113 8 -252 33 -286 48
-66 120 -60 202 17 59 55 95 115 146 248 72 183 77 215 33 215 -22 0 -24 -3
-60 -115 -56 -177 -164 -330 -226 -323 -49 5 -58 40 -56 228 1 172 -7 223 -38
240 -36 19 -60 9 -126 -52z"/>
<path d="M11463 22371 c-38 -5 -60 -14 -83 -36 -16 -16 -30 -35 -30 -42 0 -7
-11 -31 -25 -52 -40 -59 -43 -101 -10 -139 39 -47 90 -57 180 -37 181 40 263
133 209 236 -28 54 -131 84 -241 70z m155 -101 c50 -30 41 -58 -30 -93 -97
-49 -218 -47 -218 3 0 28 47 60 90 60 26 0 43 7 60 25 28 30 54 31 98 5z"/>
<path d="M25221 22263 c-5 -10 -16 -83 -25 -163 -9 -80 -23 -190 -31 -244 -8
-55 -15 -121 -15 -148 0 -55 -7 -60 -110 -81 -80 -15 -299 -93 -321 -113 -33
-29 -22 -84 17 -84 13 0 50 14 83 30 74 38 302 113 312 103 4 -5 3 -46 -1 -93
-5 -47 -9 -121 -10 -165 0 -44 -4 -96 -9 -115 -12 -55 2 -82 41 -78 43 4 45
15 54 264 6 173 9 206 23 213 18 10 305 56 414 67 80 8 120 32 98 58 -26 31
-235 18 -444 -27 -37 -8 -69 -12 -72 -8 -2 4 9 83 25 177 39 232 54 392 39
410 -16 20 -56 17 -68 -3z"/>
<path d="M28004 22259 c-3 -6 -15 -41 -24 -78 -10 -36 -32 -104 -50 -151 -56
-150 -145 -413 -159 -467 -7 -29 -28 -92 -47 -140 -40 -102 -39 -133 5 -133
23 0 45 19 126 108 130 142 167 175 248 218 116 61 163 40 203 -94 27 -92 24
-151 -10 -196 -36 -48 -134 -112 -206 -134 -120 -37 -285 -13 -436 64 -78 40
-89 43 -102 30 -29 -28 -1 -58 99 -107 147 -72 281 -99 395 -80 143 25 287
119 335 218 18 38 21 56 16 121 -6 86 -45 202 -80 240 -89 95 -230 56 -396
-109 -51 -50 -93 -90 -96 -88 -3 4 48 148 180 504 73 198 84 245 60 269 -19
18 -51 21 -61 5z"/>
<path d="M24266 22000 c-329 -69 -505 -179 -623 -389 -30 -52 -37 -76 -40
-135 -9 -148 72 -237 261 -286 101 -26 384 -52 481 -45 174 13 263 51 221 93
-13 14 -26 14 -109 -1 -116 -21 -203 -21 -354 -2 -147 20 -263 48 -316 77
-137 77 -137 211 0 367 125 143 365 242 598 247 134 3 122 1 129 19 15 41 -37
75 -111 74 -26 0 -88 -9 -137 -19z"/>
<path d="M26652 21793 c-5 -16 -17 -49 -27 -76 -37 -104 -164 -253 -268 -316
-59 -35 -154 -51 -212 -37 -60 15 -65 107 -10 202 60 102 236 169 383 143 81
-13 99 -7 88 34 -8 35 -69 57 -159 57 -183 0 -361 -109 -415 -253 -38 -99 -25
-178 37 -230 131 -110 402 -1 529 212 40 67 55 79 59 46 17 -118 50 -181 125
-235 46 -33 88 -39 109 -14 12 15 10 20 -16 38 -117 82 -145 144 -145 321 0
117 -6 135 -46 135 -14 0 -25 -9 -32 -27z"/>
<path d="M17970 21738 c-36 -5 -133 -22 -217 -38 -266 -52 -1098 -119 -1873
-150 -1017 -41 -1473 -49 -3260 -60 -1823 -11 -2072 -16 -3075 -71 -457 -24
-943 -46 -1200 -54 -110 -3 -443 -15 -740 -26 -1356 -49 -1731 -59 -2325 -64
-640 -6 -1060 -17 -1245 -35 -55 -5 -156 -14 -225 -20 -144 -13 -420 -42 -665
-70 -93 -11 -228 -27 -300 -35 -71 -8 -212 -20 -313 -26 -165 -10 -191 -9
-258 7 -68 16 -77 16 -91 2 -23 -23 -8 -56 35 -75 62 -29 338 -22 677 16 345
38 697 77 830 91 340 36 639 51 1110 56 606 6 1343 21 1700 34 612 23 1127 41
1585 55 490 15 704 24 1195 51 1133 61 1586 72 3605 84 1402 8 1665 13 2505
40 1098 36 2026 102 2337 165 92 19 212 37 268 41 101 7 130 18 130 49 0 23
-42 45 -85 44 -22 -1 -69 -6 -105 -11z"/>
<path d="M27394 21715 c-28 -28 -30 -47 -8 -69 40 -40 110 7 86 58 -16 35 -50
39 -78 11z"/>
<path d="M11234 21019 c-8 -14 11 -33 25 -25 6 4 11 14 11 22 0 16 -26 19 -36
3z"/>
<path d="M8305 20780 c-4 -6 -1 -60 6 -121 10 -91 10 -160 -1 -383 -9 -181
-13 -443 -11 -787 2 -312 0 -519 -6 -522 -5 -3 -29 -6 -54 -5 -492 9 -1992
-21 -2349 -47 -41 -3 -165 -10 -275 -15 -110 -5 -230 -13 -267 -16 -66 -6 -68
-6 -68 16 0 37 101 439 170 675 25 87 63 303 57 327 -8 30 -41 45 -62 28 -7
-6 -16 -34 -20 -63 -6 -45 -118 -552 -129 -584 -7 -19 -74 10 -126 55 -64 55
-155 178 -191 257 -32 70 -59 171 -59 221 0 55 -58 85 -81 43 -24 -46 33 -247
107 -372 81 -140 231 -277 302 -277 26 0 27 -6 3 -95 -10 -38 -24 -104 -31
-145 -7 -41 -18 -81 -23 -87 -6 -9 -36 -13 -84 -13 -157 0 -566 -30 -1173 -85
-819 -75 -1146 -90 -1344 -60 -132 20 -163 19 -175 -3 -13 -24 9 -57 41 -65
200 -50 656 -33 1573 58 255 25 662 57 880 70 61 4 144 11 184 16 43 5 79 5
84 0 5 -5 4 -38 -1 -77 -12 -90 -5 -138 24 -169 45 -49 91 -12 60 48 -15 27
-18 49 -14 115 3 45 7 84 10 87 3 3 70 8 149 11 79 2 272 11 429 19 157 8 465
22 685 30 370 13 595 18 1415 30 168 3 314 6 325 7 19 3 20 -2 19 -167 -1 -98
-13 -284 -28 -439 -23 -233 -28 -352 -39 -905 -21 -1116 -12 -2057 27 -2736 7
-126 10 -234 6 -238 -4 -4 -45 -3 -91 2 -154 19 -601 60 -829 76 -124 9 -277
20 -340 26 -384 33 -475 40 -660 49 -113 6 -477 11 -810 10 -333 0 -751 5
-930 10 -346 11 -1463 30 -2150 37 -435 4 -823 -7 -1050 -32 -74 -8 -209 -22
-300 -30 -91 -8 -212 -22 -270 -30 -125 -17 -351 -45 -623 -77 l-197 -23 0
-34 0 -34 53 6 c28 3 88 11 132 16 44 6 148 18 230 26 83 9 209 24 280 35 122
17 329 41 490 55 39 3 129 12 200 21 72 8 198 18 280 23 253 14 1674 3 2510
-20 215 -6 723 -13 1130 -15 407 -2 844 -9 970 -14 260 -10 1057 -73 1720
-135 88 -8 183 -16 210 -17 l50 -3 0 -135 c-2 -478 -40 -2065 -51 -2098 -2 -7
-12 -11 -21 -8 -30 9 -572 54 -843 71 -646 39 -853 49 -1586 75 -154 6 -350
17 -435 25 -85 8 -251 19 -369 25 -118 6 -309 17 -425 25 -115 8 -325 15 -466
15 -141 0 -346 4 -455 10 -189 9 -391 12 -1909 24 -849 6 -1090 16 -1170 44
-71 26 -103 28 -112 6 -16 -42 46 -78 162 -93 129 -17 809 -30 1860 -37 539
-3 1039 -9 1110 -14 72 -5 266 -9 433 -10 315 0 784 -25 1492 -80 63 -5 273
-14 465 -20 461 -14 1197 -52 1661 -85 195 -14 566 -44 592 -48 11 -2 14 -93
15 -497 l2 -495 -425 -1 c-578 -1 -1347 -25 -2150 -65 -874 -43 -1037 -46
-1428 -27 -208 10 -242 14 -237 26 13 36 29 463 27 762 -1 319 -2 325 -23 343
-25 20 -30 21 -53 4 -17 -12 -17 -26 -6 -238 11 -209 10 -430 -6 -761 l-7
-128 -151 0 c-285 0 -624 -19 -1091 -60 -282 -25 -824 -41 -1470 -43 -432 -2
-531 1 -647 15 -75 10 -156 25 -180 34 -24 9 -56 17 -73 18 -24 1 -31 -3 -33
-22 -2 -13 2 -30 8 -38 55 -65 526 -101 1100 -84 173 6 491 14 705 20 215 5
487 18 605 29 634 57 1006 70 1491 51 359 -13 826 -9 1139 10 629 39 2010 83
2635 84 l280 1 2 -50 c18 -399 74 -1175 109 -1504 l7 -64 -47 6 c-27 4 -166
16 -310 27 -256 20 -309 24 -422 36 l-57 6 6 66 c11 111 36 333 46 408 21 145
32 478 21 610 -6 69 -8 145 -4 169 5 36 2 47 -15 64 -26 26 -36 26 -61 1 -25
-25 -25 -49 -4 -244 14 -126 14 -178 5 -350 -6 -110 -18 -255 -26 -321 -9 -66
-18 -182 -22 -257 l-6 -138 -31 0 c-17 0 -105 7 -196 15 -309 29 -854 67
-1401 99 -512 31 -989 53 -1279 61 -118 3 -273 8 -345 10 -71 3 -373 9 -670
15 -297 5 -745 16 -995 22 -491 14 -1000 16 -1092 5 -40 -5 -58 -4 -58 4 0 6
60 70 133 143 133 132 192 177 434 329 123 79 172 123 200 183 14 28 14 38 4
58 -29 54 -151 94 -351 116 -159 17 -562 25 -588 11 -26 -14 -30 -56 -6 -65 9
-3 109 -6 222 -6 370 0 622 -34 639 -87 8 -24 -73 -95 -189 -165 -172 -105
-322 -219 -408 -311 -41 -44 -107 -113 -146 -154 l-70 -73 -100 0 c-54 0 -151
-5 -214 -11 -63 -5 -160 -14 -215 -19 -55 -5 -158 -16 -230 -24 -72 -9 -160
-16 -196 -16 -77 0 -98 -14 -79 -51 12 -21 15 -22 144 -16 72 4 210 15 306 26
96 11 240 25 320 31 80 6 215 16 300 22 172 13 883 16 1055 5 61 -4 414 -12
785 -17 1780 -27 2795 -81 4715 -250 127 -11 287 -23 357 -26 70 -4 131 -10
137 -13 10 -6 30 -268 56 -736 8 -148 20 -316 25 -372 5 -56 14 -236 20 -400
11 -305 30 -575 55 -788 19 -160 51 -503 70 -750 9 -110 22 -281 31 -380 8
-99 16 -209 18 -245 8 -128 36 -426 45 -463 19 -81 33 -62 33 45 0 98 -12 330
-17 338 -2 4 -4 35 -5 71 -1 35 -6 114 -11 174 -5 61 -13 184 -19 275 -17 278
-39 559 -60 751 -39 356 -59 637 -70 954 -5 176 -14 370 -20 431 -5 62 -19
269 -30 460 -21 354 -36 556 -46 608 l-6 29 43 -7 c24 -3 224 -17 444 -31 220
-14 452 -29 515 -35 63 -5 171 -14 240 -20 406 -33 537 -44 830 -70 529 -48
633 -59 641 -67 4 -5 3 -39 -2 -78 -18 -141 23 -255 106 -295 38 -18 72 -23
217 -31 365 -18 953 -63 1118 -85 341 -45 334 -44 1040 -173 91 -17 219 -40
285 -51 178 -31 711 -109 860 -125 221 -25 402 -45 605 -70 107 -13 224 -26
260 -30 276 -26 991 -171 1465 -296 284 -75 381 -105 720 -229 470 -171 589
-203 673 -180 38 10 46 17 65 58 21 45 22 59 21 377 0 182 -6 474 -13 650 -6
176 -14 637 -16 1025 -4 724 -12 932 -55 1420 -11 124 -27 302 -35 395 -47
534 -67 723 -110 1055 -14 102 -38 298 -55 435 -113 923 -139 1086 -264 1625
-78 335 -148 563 -215 701 -63 128 -61 127 -187 155 -221 50 -573 115 -695
129 -128 15 -212 26 -329 44 -36 5 -155 17 -265 25 -298 24 -408 35 -530 51
-215 29 -602 75 -715 85 -63 6 -153 15 -200 20 -90 11 -184 20 -750 76 -195
19 -431 43 -525 53 -93 11 -271 31 -395 45 -124 14 -279 30 -345 36 -66 6
-163 15 -215 20 -486 48 -870 30 -1027 -46 -130 -63 -157 -152 -171 -569 -5
-121 -7 -238 -7 -260 1 -22 5 -244 10 -494 l8 -454 -64 6 c-35 3 -165 19 -289
36 -677 90 -943 121 -1235 146 -99 8 -265 24 -370 35 -227 23 -436 43 -760 70
-132 12 -276 24 -320 28 l-80 7 -6 165 c-4 91 -12 264 -18 385 -16 307 -18
1898 -4 2560 9 441 17 601 36 805 20 205 31 373 37 573 0 5 62 6 138 3 75 -3
272 -8 437 -11 276 -5 631 -19 1170 -45 116 -6 298 -15 405 -20 879 -43 1749
-114 1910 -155 97 -24 325 -27 715 -9 269 12 609 17 1246 19 643 2 881 5 897
14 27 14 29 57 5 69 -26 13 -1592 4 -2123 -12 -300 -10 -484 -11 -540 -5 -47
5 -125 11 -175 13 -49 2 -166 13 -260 24 -93 12 -289 30 -435 41 -146 11 -292
23 -325 26 -69 6 -559 31 -775 40 -80 3 -224 10 -320 15 -368 21 -605 32 -885
41 -456 16 -593 20 -844 22 l-234 2 -3 505 c-2 372 2 563 13 725 19 273 14
532 -11 570 -17 26 -59 34 -71 15z m4410 -4959 c132 -12 400 -40 595 -62 195
-22 445 -48 555 -59 1094 -107 1664 -172 1699 -195 14 -9 75 -15 186 -20 91
-3 181 -10 200 -15 39 -10 239 -37 560 -75 206 -24 215 -26 236 -52 18 -23 26
-25 59 -20 21 3 51 18 66 33 26 25 30 26 74 15 25 -6 116 -24 203 -40 86 -16
184 -36 217 -44 33 -8 105 -25 160 -37 55 -12 110 -25 122 -30 63 -26 194
-399 283 -805 12 -55 26 -113 30 -130 14 -47 67 -308 89 -440 47 -282 68 -427
121 -865 11 -85 31 -243 45 -350 14 -107 29 -231 35 -275 5 -44 16 -136 25
-205 28 -229 34 -293 60 -570 99 -1104 106 -1227 105 -2040 0 -360 5 -772 10
-915 6 -143 12 -442 13 -665 2 -428 1 -436 -44 -461 -45 -24 -211 24 -744 218
-297 107 -655 204 -1095 296 -582 122 -764 152 -1285 212 -633 72 -668 77
-955 120 -281 42 -950 158 -1260 220 -320 63 -895 126 -1515 165 -273 18 -326
26 -355 55 -24 24 -25 32 -28 150 -2 79 0 125 6 125 6 0 109 -11 229 -25 120
-14 319 -36 443 -51 124 -14 338 -41 475 -59 461 -63 579 -75 820 -85 132 -5
284 -12 337 -14 103 -4 138 7 138 43 0 38 -20 41 -301 46 -370 7 -462 15 -979
85 -267 36 -618 77 -955 111 -55 5 -124 12 -154 15 l-54 6 7 66 c4 37 13 145
21 240 8 96 21 238 30 315 26 236 132 905 147 921 7 9 38 7 328 -24 228 -25
412 -42 585 -54 140 -9 199 -17 223 -30 27 -14 47 -16 95 -11 35 4 136 0 232
-9 94 -9 244 -23 335 -31 91 -8 226 -22 300 -30 74 -8 145 -15 157 -15 20 0
22 -5 20 -37 -2 -33 1 -38 20 -41 17 -3 28 6 45 33 20 34 24 37 58 31 20 -3
108 -12 196 -21 144 -13 208 -20 371 -41 67 -9 106 13 101 54 -3 26 -6 27 -63
28 -33 1 -149 11 -257 23 -109 11 -234 21 -278 21 -71 0 -80 2 -80 18 0 55
217 565 280 658 45 67 37 114 -18 114 -38 0 -73 -50 -125 -182 -27 -68 -62
-157 -79 -198 -37 -91 -92 -254 -114 -334 l-16 -58 -67 5 c-36 3 -145 14 -242
26 -175 20 -587 57 -769 68 l-95 5 -50 54 c-32 33 -76 101 -120 184 -39 72
-100 185 -137 251 -38 66 -68 125 -68 132 0 11 97 46 325 117 83 26 115 51 95
74 -7 9 -26 16 -42 16 -36 0 -248 -63 -342 -102 -38 -15 -74 -28 -80 -28 -6 0
-26 24 -44 54 -39 67 -115 144 -148 152 -14 4 -31 1 -40 -7 -28 -23 -8 -66 66
-147 38 -42 70 -81 70 -87 0 -6 -33 -26 -72 -43 -108 -48 -251 -135 -264 -161
-16 -31 -6 -60 22 -67 19 -5 47 9 122 59 106 70 222 137 240 137 6 0 37 -46
68 -102 111 -198 192 -334 238 -396 52 -70 56 -84 24 -78 -13 3 -72 10 -133
16 -60 6 -195 20 -300 31 -104 10 -253 24 -330 30 -219 16 -225 18 -225 39 0
10 11 65 24 122 62 263 88 461 90 683 l2 180 35 -1 c19 -1 153 -7 299 -13 146
-7 317 -16 380 -21 63 -5 160 -12 215 -15 178 -11 590 -57 722 -81 75 -14 95
-15 108 -4 40 33 5 71 -76 82 -422 57 -828 90 -1379 111 l-305 12 -1 563 c-1
516 -7 988 -20 1440 l-5 174 28 -6 c109 -21 515 -76 743 -101 656 -72 964
-112 1285 -166 132 -22 278 -45 324 -49 51 -5 87 -14 92 -22 9 -15 0 -259 -10
-270 -4 -4 -71 -12 -151 -18 -146 -11 -234 -24 -394 -58 -104 -23 -125 -42
-92 -87 16 -22 36 -19 181 24 68 20 432 72 448 64 11 -7 8 -189 -4 -239 -10
-39 -9 -48 5 -62 12 -13 20 -14 34 -6 34 21 46 66 50 191 l4 123 37 6 c20 4
185 8 366 8 296 1 337 -1 395 -18 89 -26 114 -26 118 0 2 11 -6 28 -16 37 -49
45 -333 64 -676 47 -120 -6 -220 -10 -222 -8 -1 2 0 61 3 131 l6 127 38 0 c21
0 66 -6 101 -14 114 -27 182 -30 198 -11 22 26 2 68 -40 82 -19 7 -88 12 -152
12 -81 1 -120 5 -128 14 -5 6 -18 23 -28 36 -22 28 -51 23 -59 -9 -3 -11 -9
-20 -14 -20 -5 0 -77 11 -161 26 -499 83 -488 81 -1443 195 -93 11 -296 35
-450 54 -154 19 -307 37 -341 41 l-61 6 -6 562 c-10 834 9 1066 94 1145 25 23
114 49 229 67 125 19 585 11 885 -15z m-4125 -1511 c102 -11 250 -24 330 -30
80 -6 323 -28 540 -50 217 -21 496 -48 620 -60 194 -18 331 -35 740 -90 41 -5
122 -17 180 -25 58 -8 159 -19 225 -26 66 -6 138 -14 160 -18 l40 -7 8 -254
c4 -140 9 -600 11 -1021 2 -422 7 -796 10 -831 8 -74 3 -80 -61 -73 -21 2
-164 9 -318 15 -658 25 -1434 87 -1945 155 -358 48 -664 85 -753 92 -62 4 -90
10 -94 20 -3 8 0 138 6 291 6 152 13 403 16 557 3 154 10 517 16 808 6 290 8
539 5 553 -7 26 -7 27 36 20 24 -4 126 -16 228 -26z m120 -2335 c195 -24 441
-55 545 -69 466 -60 1361 -125 1980 -144 l220 -7 3 -75 c6 -139 -21 -404 -63
-620 -8 -41 -23 -124 -34 -184 -11 -59 -22 -111 -26 -114 -3 -3 -53 2 -113 11
-322 50 -564 86 -617 94 l-60 8 1 65 c0 36 11 135 23 220 30 202 37 325 21
345 -17 20 -57 19 -68 -2 -5 -10 -12 -70 -16 -133 -3 -63 -12 -164 -21 -225
-8 -60 -17 -145 -21 -188 -5 -63 -9 -77 -20 -73 -19 7 -270 43 -354 51 -36 3
-193 19 -350 35 -467 48 -528 51 -1190 65 -140 3 -259 10 -263 14 -10 10 -21
957 -11 972 3 6 22 8 43 5 20 -4 196 -26 391 -51z m135 -1020 c266 -6 531 -21
760 -45 315 -32 682 -71 755 -80 47 -5 88 -10 91 -10 4 0 9 -17 13 -39 7 -47
29 -69 51 -51 8 7 15 25 15 41 0 15 4 30 9 33 5 3 56 -3 113 -13 167 -31 362
-61 512 -78 78 -8 145 -19 150 -23 4 -5 -1 -50 -13 -102 -22 -98 -63 -345 -81
-488 -6 -47 -20 -150 -31 -230 -24 -177 -59 -537 -59 -605 0 -27 -3 -67 -7
-89 l-6 -38 -46 6 c-329 43 -1615 150 -2241 186 -201 12 -381 24 -400 28 -34
7 -35 9 -38 57 -1 28 -11 158 -22 290 -19 226 -47 628 -70 1010 -6 94 -13 190
-15 214 l-5 43 138 -6 c75 -3 268 -8 427 -11z"/>
<path d="M12550 15353 c-36 -2 -139 -10 -229 -18 -142 -12 -167 -16 -185 -35
-19 -19 -20 -22 -5 -48 18 -33 21 -33 229 -2 133 20 201 23 473 25 337 3 360
6 321 45 -15 16 -42 22 -119 30 -94 9 -338 10 -485 3z"/>
<path d="M13015 15065 c-137 -46 -262 -97 -379 -156 -65 -32 -122 -59 -128
-59 -20 0 -78 54 -105 96 -15 25 -38 47 -50 50 -85 22 -64 -74 31 -146 51 -38
56 -52 24 -67 -32 -15 -178 -116 -210 -147 -43 -39 -31 -96 21 -96 6 0 45 32
88 70 87 80 173 140 199 140 9 0 66 -32 126 -71 138 -90 287 -161 410 -195
100 -27 124 -27 135 2 10 27 -28 49 -124 73 -48 12 -121 37 -161 56 -103 49
-302 168 -302 181 0 14 382 185 486 218 12 4 29 15 39 26 15 16 15 22 5 35
-16 19 -21 19 -105 -10z"/>
<path d="M13770 14915 c-6 -8 -10 -21 -8 -29 4 -21 228 -247 308 -311 113 -92
219 -130 228 -83 2 11 -27 36 -96 81 -69 46 -124 93 -183 157 -171 187 -185
200 -211 200 -14 0 -31 -7 -38 -15z"/>
<path d="M14538 14868 c-33 -26 -159 -251 -270 -483 -63 -132 -140 -283 -172
-334 -31 -52 -56 -101 -56 -111 0 -45 64 -55 82 -12 7 15 38 74 69 132 31 58
86 171 124 250 86 184 162 317 236 417 63 84 74 124 40 143 -25 13 -34 13 -53
-2z"/>
<path d="M15120 14840 c-14 -26 -4 -57 20 -65 11 -3 74 -10 142 -15 325 -23
598 -80 598 -124 0 -24 -67 -61 -171 -94 -472 -149 -509 -164 -509 -201 0 -24
52 -64 100 -79 98 -29 250 -55 490 -82 146 -17 286 -35 312 -40 57 -12 98 0
98 29 0 34 -27 49 -97 56 -379 34 -773 91 -773 111 0 11 91 43 209 73 127 33
273 82 326 108 17 8 47 31 68 51 76 74 35 141 -115 186 -75 23 -352 70 -568
96 -113 13 -118 13 -130 -10z"/>
<path d="M13523 14774 c-15 -24 -15 -29 -2 -53 28 -50 119 -30 103 23 -18 58
-72 74 -101 30z"/>
<path d="M14767 14662 c-21 -23 -22 -46 -1 -66 20 -21 83 -21 90 -1 10 26 -5
61 -31 73 -34 16 -39 15 -58 -6z"/>
<path d="M12463 12831 c-76 -36 -218 -162 -303 -268 -35 -43 -66 -79 -70 -81
-8 -3 -204 162 -295 248 -33 32 -70 60 -82 64 -40 13 -118 -44 -111 -81 3 -15
13 -18 55 -18 32 -1 59 -7 70 -16 141 -122 192 -163 247 -200 36 -24 66 -50
66 -57 0 -7 -31 -59 -69 -115 -100 -147 -206 -324 -232 -385 -20 -48 -21 -55
-6 -69 18 -18 45 -11 54 14 4 10 21 41 38 68 18 28 87 139 154 248 67 108 125
197 129 197 4 0 47 -27 96 -60 182 -121 421 -221 464 -194 9 6 17 20 17 30 0
15 -19 26 -90 50 -49 17 -110 41 -135 53 -95 48 -310 175 -310 183 0 5 54 63
119 128 129 129 214 191 285 209 48 12 67 40 46 66 -19 23 -69 18 -137 -14z"/>
<path d="M15322 12761 c-87 -5 -106 -9 -118 -25 -18 -26 -18 -50 2 -66 12 -11
41 -11 152 -1 149 14 179 12 547 -33 110 -14 261 -32 335 -41 74 -8 156 -20
182 -26 57 -13 88 0 88 36 0 33 -25 55 -63 55 -34 0 -260 26 -522 60 -224 29
-424 50 -465 48 -19 -1 -81 -4 -138 -7z"/>
<path d="M13495 12683 c-73 -16 -106 -57 -72 -91 14 -14 27 -14 116 -2 154 20
392 0 526 -45 66 -22 73 -30 50 -55 -37 -41 -379 -230 -416 -230 -9 0 -22 -7
-29 -15 -7 -9 -57 -40 -112 -71 -54 -31 -124 -80 -156 -109 -57 -53 -57 -54
-42 -82 9 -16 36 -39 65 -53 l50 -25 465 -7 c470 -7 506 -5 517 28 2 7 -3 18
-11 27 -12 12 -61 16 -253 21 -756 21 -764 22 -712 65 13 11 140 81 281 155
141 74 286 153 321 176 74 46 147 120 147 149 0 69 -175 139 -405 161 -108 10
-291 12 -330 3z"/>
<path d="M17335 12574 c-13 -14 -16 -39 -15 -148 1 -72 1 -149 1 -172 l-1 -40
-246 -11 c-198 -8 -249 -13 -261 -26 -21 -21 -10 -61 22 -75 36 -16 66 -15
221 8 74 12 162 20 196 18 l63 -3 -5 -210 c-7 -348 -9 -320 20 -320 17 0 29 8
38 29 17 35 35 298 27 382 -3 33 -3 73 1 89 l7 28 96 -7 c53 -4 127 -12 164
-18 58 -9 70 -9 84 4 11 12 13 20 4 36 -13 25 -73 39 -226 54 -60 5 -113 13
-117 17 -3 3 2 74 12 156 24 187 24 181 0 205 -24 24 -63 26 -85 4z"/>
<path d="M12903 12468 c-28 -13 -36 -34 -23 -59 13 -24 52 -34 79 -19 32 16
29 68 -5 80 -14 6 -26 10 -27 9 -1 0 -12 -5 -24 -11z"/>
<path d="M15366 12444 c-9 -8 -16 -29 -16 -46 0 -26 14 -45 80 -109 150 -144
363 -300 448 -328 24 -8 41 -19 38 -25 -34 -78 -97 -236 -137 -345 -28 -75
-59 -151 -70 -169 -23 -40 -24 -65 -4 -82 24 -20 57 1 82 51 11 24 62 148 113
274 111 278 211 470 298 568 63 72 76 109 50 135 -14 14 -52 16 -77 3 -25 -14
-121 -161 -175 -268 -26 -53 -52 -93 -61 -93 -8 0 -38 19 -67 43 -29 24 -87
68 -129 99 -104 76 -197 161 -233 211 -68 96 -104 117 -140 81z"/>
<path d="M14162 12248 c-13 -17 -25 -122 -17 -148 7 -23 40 -27 48 -6 15 38
19 136 7 151 -15 18 -24 19 -38 3z"/>
<path d="M14817 12212 c-32 -35 -15 -82 28 -82 50 0 84 57 53 88 -18 18 -63
14 -81 -6z"/>
<path d="M13673 11633 c-18 -7 -16 -52 3 -60 23 -9 51 23 38 44 -12 19 -23 24
-41 16z"/>
<path d="M13390 11438 c-38 -42 -28 -63 116 -243 188 -235 218 -267 246 -263
39 5 32 36 -23 111 -78 106 -171 243 -219 322 -60 100 -82 114 -120 73z"/>
<path d="M12812 11338 c-7 -7 -12 -24 -12 -38 0 -49 51 -68 83 -32 22 24 21
38 -3 62 -23 23 -50 26 -68 8z"/>
<path d="M14844 11302 c-6 -4 -16 -17 -23 -30 -10 -19 -10 -28 3 -47 15 -23
18 -23 188 -23 236 0 462 -28 736 -93 46 -11 55 -11 68 3 22 21 10 53 -24 67
-44 17 -287 70 -422 91 -69 11 -208 24 -310 30 -218 12 -202 12 -216 2z"/>
<path d="M14902 11094 c-24 -17 -29 -53 -10 -72 8 -8 47 -12 108 -12 242 0
580 -73 580 -125 0 -18 -46 -48 -110 -72 -329 -121 -440 -178 -440 -227 0 -22
34 -60 80 -89 64 -40 353 -94 555 -103 122 -6 132 -5 155 14 20 17 23 24 14
39 -9 15 -31 19 -135 25 -147 7 -232 19 -381 53 -124 28 -163 44 -163 65 0 10
64 39 200 90 235 89 252 97 294 146 26 28 31 42 26 63 -24 103 -184 163 -550
206 -163 19 -195 19 -223 -1z"/>
<path d="M14490 11070 c-38 -38 -20 -80 35 -80 38 0 55 16 55 50 0 50 -52 68
-90 30z"/>
<path d="M17189 10991 l-23 -19 18 -58 c17 -51 41 -331 31 -342 -8 -8 -329 -1
-442 10 -98 9 -125 9 -138 -2 -19 -16 -19 -54 0 -73 23 -24 150 -31 348 -20
99 6 192 7 206 3 l26 -7 0 -171 c0 -177 4 -197 41 -190 26 5 31 39 33 210 0
81 4 149 9 151 6 4 168 -13 372 -38 44 -6 58 -4 69 8 31 39 -24 60 -204 82
-77 9 -162 19 -190 23 l-50 7 4 131 c7 248 -34 357 -110 295z"/>
<path d="M11859 10164 c-10 -12 -10 -22 -2 -44 21 -55 109 -193 165 -259 58
-67 70 -91 43 -91 -26 0 -228 -109 -297 -160 -75 -55 -92 -88 -63 -120 10 -11
24 -20 31 -20 7 0 44 27 81 61 69 62 219 156 284 179 l37 13 170 -174 c94 -96
187 -184 206 -194 32 -18 37 -18 51 -4 23 22 13 38 -68 107 -86 74 -287 275
-287 288 0 10 141 53 307 93 62 14 118 32 124 38 15 15 3 33 -24 33 -55 1
-243 -36 -346 -67 -110 -33 -114 -34 -133 -16 -30 26 -136 186 -170 257 -47
96 -77 118 -109 80z"/>
<path d="M13290 9941 c-15 -30 -13 -36 28 -84 20 -24 65 -85 100 -135 37 -53
88 -110 120 -136 31 -25 62 -50 69 -56 8 -7 3 -33 -22 -102 -55 -157 -118
-376 -111 -393 7 -20 46 -16 57 5 4 8 35 101 69 207 34 106 72 208 86 228 13
20 24 42 24 49 0 18 91 155 121 183 13 12 44 26 68 32 47 10 61 23 61 59 0 24
-32 62 -52 62 -30 -1 -96 -40 -130 -78 -20 -22 -58 -77 -83 -121 -26 -45 -50
-81 -54 -81 -27 0 -183 203 -210 272 -5 12 -23 42 -40 66 -24 33 -37 42 -61
42 -19 0 -33 -7 -40 -19z"/>
<path d="M12736 9814 c-24 -24 -20 -63 8 -75 56 -26 103 18 72 66 -19 29 -57
33 -80 9z"/>
<path d="M14505 9744 c-40 -40 4 -83 85 -84 63 0 460 -94 525 -124 57 -26 66
-43 39 -71 -18 -18 -95 -58 -134 -70 -38 -11 -322 -130 -368 -154 -42 -21 -57
-46 -46 -75 15 -40 252 -132 549 -215 108 -30 235 -74 306 -104 32 -14 38 -14
57 -1 28 19 28 49 1 68 -21 14 -335 119 -574 191 -126 38 -215 73 -215 86 0 4
35 19 78 34 301 107 396 156 425 218 21 43 21 60 3 96 -29 55 -106 85 -425
165 -235 60 -280 65 -306 40z"/>
<path d="M14108 9599 c-21 -12 -24 -59 -6 -77 17 -17 65 -15 72 4 23 60 -16
103 -66 73z"/>
<path d="M10140 14025 c-95 -26 -211 -90 -283 -155 -154 -141 -178 -319 -61
-449 84 -94 294 -178 489 -197 153 -14 316 38 418 135 68 64 100 128 105 209
4 55 0 71 -27 127 -36 73 -100 134 -193 187 -33 18 -79 51 -102 72 -22 21 -61
48 -86 59 -59 27 -185 32 -260 12z m139 -105 c174 -44 370 -162 417 -251 24
-46 33 -106 22 -148 -20 -78 -116 -163 -226 -200 -210 -71 -589 38 -669 192
-8 17 -15 56 -16 87 0 45 6 68 33 119 19 34 51 77 72 96 69 59 206 123 266
124 13 1 59 -8 101 -19z"/>
<path d="M10428 12989 c-10 -5 -18 -21 -18 -35 0 -20 8 -29 31 -37 30 -12 31
-14 25 -57 -4 -25 -16 -81 -27 -125 -85 -327 -111 -494 -107 -679 3 -109 6
-131 20 -140 32 -19 40 7 49 151 12 191 33 316 89 540 77 302 77 362 1 383
-43 12 -42 12 -63 -1z"/>
<path d="M10442 10438 c-17 -17 -15 -76 7 -176 11 -48 27 -166 36 -262 16
-180 30 -283 64 -475 23 -128 34 -163 57 -172 37 -14 38 12 11 209 -15 106
-34 281 -42 388 -8 107 -18 218 -21 245 -11 87 -42 226 -55 241 -14 17 -41 18
-57 2z"/>
<path d="M24906 20101 c-12 -13 -16 -28 -12 -44 7 -31 27 -39 66 -25 22 7 104
7 283 0 230 -10 992 -7 1044 4 27 5 39 40 22 61 -12 14 -66 15 -499 12 -267
-2 -575 0 -685 4 -195 9 -201 8 -219 -12z"/>
<path d="M2952 20058 c-17 -17 -15 -30 12 -111 13 -40 38 -118 56 -175 17 -56
47 -137 67 -180 l35 -77 -45 -40 c-24 -22 -98 -89 -163 -150 -66 -60 -136
-124 -156 -141 -51 -44 -61 -66 -42 -92 20 -29 59 -28 84 1 37 41 347 357 352
357 3 0 22 -25 43 -56 50 -73 146 -159 217 -195 93 -47 208 -35 208 21 0 29
-32 42 -69 29 -41 -14 -85 1 -160 56 -60 45 -181 176 -181 198 0 15 235 224
340 303 60 45 75 62 75 83 0 20 -6 27 -23 29 -39 6 -105 -44 -306 -232 -60
-55 -113 -101 -118 -101 -6 0 -21 29 -35 65 -23 63 -34 100 -89 295 -14 49
-32 97 -41 107 -19 21 -44 23 -61 6z"/>
<path d="M12134 20025 c-23 -35 -24 -94 -1 -109 19 -12 45 -1 58 25 31 63 33
71 23 87 -18 29 -60 27 -80 -3z"/>
<path d="M25208 19988 c-23 -18 -44 -89 -62 -209 -20 -133 -38 -234 -69 -384
-29 -139 -44 -248 -56 -393 -4 -56 -11 -105 -14 -108 -3 -3 -19 2 -36 10 -38
20 -65 20 -81 0 -20 -23 11 -48 113 -90 170 -69 262 -87 447 -88 l165 -1 77
37 c125 60 203 159 215 274 23 218 -240 313 -501 182 -73 -37 -116 -69 -219
-165 -73 -68 -97 -84 -97 -65 1 35 45 307 70 427 17 83 44 227 61 320 16 94
34 185 40 203 16 50 -15 79 -53 50z m513 -799 c79 -24 116 -96 94 -182 -28
-111 -134 -181 -298 -197 -81 -8 -119 -7 -230 10 -122 18 -207 36 -207 44 0 6
238 206 281 238 113 82 258 117 360 87z"/>
<path d="M10834 19868 c-37 -29 -44 -38 -44 -65 0 -51 68 -49 109 3 49 62 -2
111 -65 62z"/>
<path d="M15492 19855 c-85 -23 -120 -55 -107 -95 10 -32 37 -32 103 1 57 29
73 33 152 33 49 1 91 -2 95 -6 34 -34 -108 -218 -278 -361 -57 -48 -72 -82
-42 -93 28 -11 61 5 138 70 136 112 277 307 277 380 0 34 -29 62 -77 75 -53
15 -198 12 -261 -4z"/>
<path d="M9424 19809 c-26 -22 -76 -80 -112 -127 -37 -49 -62 -76 -58 -62 17
62 18 81 6 95 -16 19 -44 19 -59 1 -12 -14 -59 -250 -68 -341 -9 -91 52 -103
83 -17 40 109 90 217 124 270 39 60 96 119 105 110 3 -3 -8 -76 -26 -163 -34
-175 -32 -205 16 -205 29 0 102 69 151 143 33 49 75 97 85 97 4 0 6 -33 6 -74
-2 -62 2 -79 19 -103 24 -32 55 -41 73 -19 9 11 9 22 -4 51 -10 25 -15 69 -15
135 0 83 -3 99 -19 114 -29 27 -57 12 -106 -56 -60 -80 -134 -162 -141 -155
-4 3 5 59 19 124 42 192 41 179 18 202 -29 29 -43 27 -97 -20z"/>
<path d="M6711 19775 c-118 -25 -259 -51 -314 -58 -107 -13 -134 -28 -111 -64
21 -34 143 -26 349 22 254 60 355 76 355 56 0 -12 -54 -59 -136 -117 -165
-116 -342 -255 -382 -298 -83 -90 -89 -162 -16 -192 38 -16 162 -18 269 -4
328 40 436 50 573 50 151 0 153 0 163 24 8 17 8 29 -1 46 l-12 23 -192 -6
c-105 -3 -285 -17 -401 -31 -217 -27 -350 -33 -359 -17 -12 19 56 80 264 235
319 238 361 285 311 347 -32 39 -112 36 -360 -16z"/>
<path d="M12221 19771 c-8 -5 -18 -37 -23 -72 -4 -34 -10 -65 -13 -67 -2 -2
-26 -8 -52 -13 -26 -5 -55 -12 -64 -14 -13 -5 -18 4 -24 42 -10 69 -53 109
-128 118 -99 13 -196 -25 -312 -121 -54 -45 -162 -175 -176 -213 -24 -62 43
-100 77 -43 70 116 111 165 177 215 112 85 170 106 236 87 45 -13 51 -23 51
-96 0 -80 -31 -168 -81 -229 -52 -62 -61 -81 -54 -104 11 -36 35 -32 85 15 55
52 93 120 111 200 10 45 16 54 34 54 12 0 36 5 54 11 18 6 35 8 39 5 3 -4 -6
-44 -22 -89 -32 -92 -32 -130 0 -135 30 -4 42 15 79 130 l34 103 122 7 c132 7
165 20 143 56 -10 14 -28 17 -125 17 -127 0 -118 -7 -103 76 9 51 -27 84 -65
60z"/>
<path d="M13893 19728 c-6 -7 -21 -66 -32 -132 -12 -65 -26 -126 -31 -136 -5
-10 -37 -25 -72 -35 -109 -30 -198 -84 -198 -119 0 -19 27 -46 45 -46 8 0 29
13 48 30 36 31 135 85 143 77 6 -6 -30 -97 -62 -160 -27 -52 -21 -77 17 -77
16 0 69 56 69 74 0 19 65 173 78 183 18 15 113 27 141 18 35 -11 29 -82 -15
-166 -20 -38 -34 -76 -30 -84 17 -45 86 -19 181 67 58 53 103 84 110 76 2 -2
-1 -33 -7 -68 -32 -186 74 -249 211 -125 23 21 76 87 119 148 42 60 83 118 91
128 11 15 11 22 1 34 -31 37 -62 10 -192 -165 -133 -179 -196 -162 -131 37 31
95 27 116 -24 121 -24 2 -52 -11 -128 -63 l-97 -66 7 32 c28 126 -18 178 -143
161 -37 -5 -69 -8 -71 -6 -2 2 9 52 24 112 33 134 31 156 -11 160 -17 2 -36
-3 -41 -10z"/>
<path d="M10392 19677 c-6 -7 -16 -25 -21 -40 l-11 -27 -20 20 c-29 29 -130
28 -190 -2 -90 -46 -119 -145 -61 -207 25 -27 36 -31 81 -31 62 0 101 18 162
77 25 25 51 42 57 39 6 -4 11 -24 11 -44 0 -82 40 -152 87 -152 34 0 40 28 15
71 -23 40 -41 139 -42 225 0 67 -39 107 -68 71z m-52 -107 c0 -10 -74 -77 -97
-89 -27 -14 -90 -14 -98 -1 -13 21 7 70 33 85 26 14 162 18 162 5z"/>
<path d="M11004 19631 c-75 -13 -124 -65 -74 -78 17 -5 20 -14 20 -67 0 -113
54 -162 170 -154 112 8 230 89 230 158 0 42 -50 95 -113 118 -59 22 -173 33
-233 23z m218 -103 c61 -33 57 -56 -15 -92 -67 -34 -128 -39 -154 -13 -13 13
-18 34 -18 79 l0 60 72 -5 c50 -4 87 -13 115 -29z"/>
<path d="M10787 19623 c-4 -3 -7 -38 -7 -78 0 -89 -28 -175 -84 -258 -45 -67
-113 -125 -157 -134 -40 -8 -66 -38 -49 -58 19 -23 78 -18 129 11 131 75 228
240 246 417 6 58 4 72 -11 88 -17 19 -54 26 -67 12z"/>
<path d="M12662 19618 c-42 -42 48 -245 134 -301 18 -12 34 -26 34 -30 0 -8
-44 -70 -136 -192 -61 -81 -78 -117 -61 -134 32 -32 64 0 210 207 86 123 203
266 281 342 56 55 66 76 44 98 -23 23 -68 14 -100 -20 -34 -36 -163 -201 -177
-226 -8 -14 -12 -15 -36 -2 -35 19 -72 83 -101 177 -13 42 -29 80 -36 85 -19
11 -42 10 -56 -4z"/>
<path d="M14907 19374 c-54 -17 -92 -38 -127 -67 -26 -23 -59 -49 -72 -58
l-23 -17 23 -31 c12 -16 22 -34 22 -40 0 -20 72 -71 122 -86 67 -20 217 -20
244 -1 15 12 17 18 8 33 -9 15 -31 20 -114 26 -97 7 -170 26 -170 44 0 4 44
21 98 37 53 15 114 39 134 52 58 37 64 99 12 122 -36 17 -69 14 -157 -14z m78
-63 c-12 -10 -121 -51 -137 -51 -25 0 11 23 64 41 58 20 88 24 73 10z"/>
<path d="M15394 19135 c-4 -8 -3 -26 0 -39 17 -69 106 -77 106 -10 0 45 -92
87 -106 49z"/>
<path d="M3275 18421 c-39 -4 -88 -17 -112 -29 -23 -12 -64 -27 -91 -32 -136
-30 -203 -184 -137 -316 41 -83 119 -135 260 -174 70 -20 97 -22 225 -18 124
4 158 9 235 33 148 47 224 108 241 193 10 49 -22 126 -76 185 -111 121 -318
181 -545 158z m191 -60 c27 -10 76 -27 109 -37 157 -49 279 -192 235 -274 -24
-45 -164 -99 -304 -119 -89 -13 -252 1 -331 29 -80 28 -129 61 -162 112 -51
76 -30 145 63 209 41 28 48 30 74 19 23 -9 33 -9 52 3 43 27 81 29 139 7 30
-12 66 -33 81 -47 33 -31 58 -25 58 15 0 39 -42 80 -89 88 -56 9 -60 12 -15
13 23 1 63 -7 90 -18z"/>
<path d="M7125 18411 c-38 -10 -72 -28 -160 -88 -85 -58 -128 -123 -144 -217
-14 -81 -2 -144 42 -216 42 -70 101 -101 201 -108 182 -11 348 74 418 215 41
84 46 183 11 248 -22 42 -92 113 -134 135 -62 34 -166 47 -234 31z m126 -97
c19 -9 37 -31 49 -60 11 -24 25 -44 33 -44 19 0 37 21 37 44 0 19 1 19 24 -3
79 -75 42 -236 -76 -321 -105 -77 -298 -91 -366 -27 -74 68 -80 207 -13 297
35 48 56 65 125 100 68 34 138 40 187 14z"/>
<path d="M25404 18362 c-54 -4 -82 -32 -66 -66 l10 -23 191 5 c369 9 754 -39
978 -123 87 -33 125 -14 93 45 -18 34 -282 105 -475 129 -165 21 -619 41 -731
33z"/>
<path d="M5239 18316 c-40 -28 -106 -111 -140 -176 -33 -66 -39 -192 -11 -246
49 -94 143 -148 262 -148 69 -1 81 2 150 39 137 73 250 217 250 319 0 113
-120 195 -310 212 -44 3 -83 11 -86 15 -11 18 -79 9 -115 -15z m334 -99 c59
-30 97 -75 97 -119 0 -73 -105 -197 -213 -252 -103 -52 -219 -26 -282 63 -25
36 -30 52 -29 97 3 103 57 192 136 223 79 31 213 26 291 -12z"/>
<path d="M625 18321 c-78 -21 -197 -108 -211 -154 -3 -12 -20 -51 -37 -86 -43
-88 -48 -169 -15 -231 65 -120 199 -136 356 -41 150 90 227 200 227 322 0 83
-31 136 -99 169 -50 23 -169 35 -221 21z m168 -73 c47 -18 77 -63 77 -116 -1
-87 -57 -172 -159 -241 -117 -78 -172 -94 -223 -63 -69 43 -85 116 -47 217 25
66 66 110 134 145 35 17 50 31 50 45 0 13 9 22 25 26 33 7 108 0 143 -13z"/>
<path d="M17656 18278 c-35 -56 -48 -133 -58 -359 -11 -257 -6 -283 54 -315
46 -25 162 -22 253 6 150 47 194 76 162 108 -13 12 -30 9 -127 -23 -130 -42
-220 -50 -247 -22 -15 15 -17 38 -15 190 3 188 13 267 44 339 27 64 22 92 -19
96 -24 2 -35 -2 -47 -20z"/>
<path d="M10165 18276 c-72 -22 -186 -88 -230 -133 -60 -60 -98 -141 -103
-220 -8 -120 59 -209 213 -283 116 -55 211 -74 354 -68 222 10 413 103 476
233 30 62 32 160 5 224 -58 134 -250 221 -488 221 -76 0 -89 2 -100 20 -14 23
-64 26 -127 6z m373 -121 c176 -37 261 -98 278 -201 40 -250 -429 -403 -748
-243 -94 48 -158 127 -158 197 0 75 85 212 132 212 10 0 29 5 41 12 73 39 321
52 455 23z"/>
<path d="M19137 18268 c-8 -13 -36 -93 -62 -178 -26 -85 -70 -213 -96 -284
-51 -135 -57 -164 -37 -184 27 -27 52 0 74 78 9 33 18 60 20 60 2 0 25 -16 51
-36 27 -20 75 -49 108 -64 33 -15 91 -42 129 -60 75 -36 101 -33 101 11 0 21
-19 33 -144 96 -191 94 -210 119 -113 146 31 10 110 26 176 36 129 21 155 35
137 70 -7 11 -19 21 -29 21 -46 0 -241 -34 -290 -51 -30 -10 -57 -17 -60 -15
-2 3 16 56 41 118 76 191 80 207 62 234 -20 30 -50 31 -68 2z"/>
<path d="M25597 18126 c-9 -10 -17 -49 -21 -113 -13 -175 -51 -313 -127 -465
-51 -102 -57 -126 -37 -146 18 -18 36 -15 71 12 73 55 169 93 305 122 70 14
94 15 144 6 70 -13 108 -35 108 -61 0 -22 -78 -94 -131 -122 -58 -29 -179 -59
-241 -59 -87 0 -156 18 -236 61 -76 42 -112 44 -112 9 0 -45 146 -131 258
-152 171 -32 428 61 509 184 32 48 36 111 10 151 -40 62 -173 90 -314 67 -76
-12 -205 -53 -231 -73 -25 -19 -21 1 13 80 36 84 70 206 99 354 20 109 20 115
-4 139 -24 24 -43 25 -63 6z"/>
<path d="M18312 17977 c-66 -29 -116 -77 -149 -145 -74 -152 63 -236 264 -161
l55 21 23 -22 c33 -31 88 -41 165 -30 117 17 172 40 214 91 21 24 26 39 21 58
-14 57 -82 102 -180 120 -80 15 -105 14 -112 -5 -10 -26 27 -50 102 -68 73
-17 112 -44 102 -70 -8 -20 -127 -56 -188 -56 -64 0 -70 16 -28 74 27 38 30
48 19 61 -7 8 -27 15 -44 15 -22 0 -40 8 -57 26 -13 14 -36 32 -51 40 -17 9
-28 24 -30 41 -3 24 -8 28 -38 30 -19 2 -58 -8 -88 -20z m137 -126 c42 -30 49
-60 21 -83 -49 -39 -200 -64 -228 -36 -30 30 -6 96 51 138 37 27 41 28 82 15
24 -7 57 -22 74 -34z"/>
<path d="M24033 17719 c-159 -26 -305 -126 -404 -277 -60 -91 -89 -168 -89
-235 0 -57 24 -108 61 -127 31 -17 106 -7 170 22 114 52 300 245 402 417 63
105 81 117 79 49 0 -18 7 -44 16 -58 9 -14 27 -47 40 -75 34 -73 84 -128 144
-160 58 -30 103 -30 115 2 9 24 -8 43 -51 58 -86 30 -166 144 -170 244 -3 64
-14 89 -55 123 -25 22 -38 25 -117 25 -49 0 -112 -3 -141 -8z m129 -102 c-36
-62 -225 -288 -290 -348 -83 -76 -182 -126 -220 -113 -62 22 -25 155 81 293
97 126 239 199 390 200 l59 1 -20 -33z"/>
<path d="M470 17615 c-9 -11 -9 -26 -1 -62 5 -27 15 -134 22 -239 10 -154 10
-214 0 -319 -16 -157 -14 -179 17 -183 44 -6 48 8 61 215 10 162 9 232 -2 385
-9 120 -18 192 -26 202 -17 20 -55 21 -71 1z"/>
<path d="M7218 17598 c-26 -21 -58 -103 -56 -145 1 -21 -4 -94 -11 -163 -18
-178 -2 -391 31 -411 46 -30 56 2 48 156 -8 150 3 305 31 423 24 105 24 129 0
142 -24 13 -24 13 -43 -2z"/>
<path d="M3381 17559 c-25 -13 -46 -17 -77 -12 -78 10 -167 -52 -133 -93 10
-12 5 -21 -29 -50 -22 -19 -53 -60 -69 -92 -25 -51 -28 -68 -28 -152 1 -138
33 -193 145 -244 150 -68 337 -53 508 42 121 66 171 141 172 252 0 77 -37 167
-92 221 -70 70 -239 133 -254 95 -9 -23 6 -38 95 -89 107 -62 162 -132 177
-224 7 -45 -17 -102 -58 -140 -70 -65 -249 -119 -368 -110 -167 12 -250 78
-250 200 0 45 9 72 54 164 69 141 85 153 207 162 63 5 93 11 99 21 14 22 12
27 -12 50 -26 24 -41 24 -87 -1z"/>
<path d="M5364 17544 c-130 -53 -188 -135 -189 -264 0 -65 4 -82 29 -128 55
-98 151 -163 271 -182 98 -16 264 11 364 58 141 66 218 234 166 360 -33 77
-88 113 -205 132 -41 7 -101 21 -132 31 -87 29 -224 26 -304 -7z m144 -55
c-21 -11 -38 -26 -38 -34 0 -11 19 -13 110 -8 l110 6 0 -42 c0 -49 20 -63 51
-35 16 14 20 27 16 51 -5 29 -3 33 17 33 41 0 122 -48 141 -84 27 -51 17 -155
-22 -210 -41 -58 -80 -80 -183 -106 -237 -59 -413 15 -450 190 -18 84 -3 130
60 191 51 50 94 67 175 68 l50 0 -37 -20z"/>
<path d="M24708 17505 c-17 -37 12 -75 57 -75 34 0 75 27 75 50 0 24 -41 50
-80 50 -33 0 -42 -4 -52 -25z"/>
<path d="M18027 17309 c-98 -23 -180 -92 -207 -175 -7 -20 -25 -41 -46 -53
-40 -24 -44 -47 -9 -63 23 -11 25 -16 25 -88 0 -90 12 -113 55 -108 l30 3 0
100 0 99 45 9 c55 10 255 1 298 -14 39 -13 42 -41 12 -99 -11 -22 -20 -57 -20
-79 0 -83 88 -89 172 -13 71 64 89 146 43 200 -13 16 -37 34 -52 40 -59 22
-268 45 -370 40 -114 -4 -117 -2 -80 52 39 59 70 75 140 73 73 -1 97 9 97 43
0 40 -51 52 -133 33z m331 -321 c20 -20 14 -65 -14 -97 -26 -31 -54 -41 -54
-20 0 17 44 129 51 129 3 0 10 -5 17 -12z"/>
<path d="M9893 17265 c-100 -27 -168 -74 -161 -112 5 -27 33 -27 75 1 21 14
47 26 57 26 16 0 10 -11 -31 -52 -68 -69 -93 -125 -93 -208 0 -195 165 -311
445 -313 207 -2 434 83 508 190 147 214 7 384 -385 463 -117 24 -334 26 -415
5z m433 -100 c283 -71 383 -158 324 -280 -55 -113 -248 -195 -459 -195 -195 0
-313 51 -356 152 -63 151 77 328 260 328 33 0 67 5 75 10 23 15 49 12 156 -15z"/>
<path d="M18772 17084 c-123 -46 -185 -83 -254 -152 -59 -58 -71 -89 -43 -112
20 -17 51 -4 76 32 51 71 191 148 352 193 61 18 78 35 57 60 -20 25 -88 17
-188 -21z"/>
<path d="M27225 17084 c-159 -17 -179 -21 -209 -45 -23 -18 -48 -21 -273 -29
-585 -22 -1793 -111 -2383 -175 -762 -83 -874 -93 -1138 -101 -147 -5 -225 -4
-287 6 -68 11 -87 11 -100 0 -21 -18 -19 -34 11 -70 35 -41 40 -97 19 -201
-22 -112 -135 -446 -257 -764 -152 -395 -178 -482 -178 -598 0 -122 37 -163
170 -187 75 -14 157 -9 440 25 652 79 1128 84 2268 25 111 -5 295 -15 410 -20
391 -19 587 -31 917 -55 476 -36 591 -45 765 -60 85 -8 270 -24 410 -35 640
-52 1422 -144 1915 -226 50 -8 151 -17 225 -20 158 -6 192 4 224 69 16 34 18
59 15 230 -7 370 -2 607 15 717 42 264 95 473 191 745 92 260 101 321 62 390
-28 49 -95 88 -203 115 -135 35 -518 84 -1004 130 -240 23 -532 56 -870 100
-124 16 -299 34 -390 40 -219 13 -616 11 -765 -6z m1010 -82 c138 -17 358 -45
490 -61 132 -17 332 -40 445 -51 734 -73 1069 -122 1164 -171 98 -51 100 -89
13 -337 -140 -401 -207 -679 -227 -949 -6 -84 -10 -290 -8 -462 3 -287 2 -311
-15 -328 -31 -31 -206 -23 -552 26 -165 24 -345 49 -400 57 -295 41 -760 90
-1185 124 -69 6 -262 22 -430 35 -168 14 -321 27 -340 30 -61 9 -937 74 -1135
85 -104 5 -323 17 -485 25 -162 8 -380 20 -485 25 -880 47 -1459 38 -2050 -30
-361 -42 -480 -36 -515 29 -37 70 11 251 185 696 26 66 58 149 70 185 173 491
187 540 189 655 l1 80 190 1 c194 1 400 16 790 59 847 92 1381 137 2275 190
814 48 1509 46 1610 -5 29 -15 45 -16 98 -9 35 5 68 11 73 15 14 8 11 30 -8
45 -30 25 -248 49 -528 56 -362 11 -249 21 185 18 305 -2 358 -5 585 -33z"/>
<path d="M27786 16476 c-62 -23 -75 -63 -31 -92 22 -14 30 -15 53 -4 15 7 39
16 55 21 63 18 437 -28 861 -107 104 -19 215 -36 245 -37 56 -2 56 -2 56 28 0
26 -5 32 -40 42 -41 13 -536 94 -680 113 -44 5 -129 16 -190 24 -183 25 -285
28 -329 12z"/>
<path d="M24917 16382 c-31 -34 -76 -257 -77 -379 0 -30 -5 -55 -12 -59 -7 -5
-102 -11 -210 -16 -109 -4 -206 -12 -218 -18 -28 -15 -28 -66 1 -75 12 -4 70
-2 128 4 205 21 286 28 294 24 4 -2 7 -65 7 -140 0 -118 -3 -143 -21 -180 -26
-55 -20 -75 22 -71 21 2 39 13 53 31 19 26 21 42 21 193 0 189 -2 184 86 184
103 0 263 20 278 35 12 12 12 16 0 31 -12 15 -31 16 -187 10 l-173 -7 6 48
c14 97 44 221 69 283 31 76 31 75 6 100 -25 25 -52 26 -73 2z"/>
<path d="M28133 16339 c-9 -9 -11 -34 -6 -84 7 -82 -10 -177 -62 -355 -55
-186 -89 -265 -146 -339 -11 -13 -19 -32 -19 -42 0 -19 34 -44 48 -35 5 3 16
-8 25 -23 25 -42 122 -82 216 -88 128 -9 338 47 429 114 80 60 78 141 -7 224
-62 60 -113 74 -256 73 -100 -1 -117 -4 -185 -32 -41 -18 -78 -32 -82 -32 -3
0 16 66 44 148 53 158 88 302 88 368 0 26 -8 53 -23 75 -25 37 -46 46 -64 28z
m337 -630 c55 -13 103 -48 120 -89 12 -28 11 -33 -10 -55 -56 -59 -281 -122
-403 -112 -62 5 -187 51 -187 68 0 3 14 24 32 47 77 100 308 173 448 141z"/>
<path d="M23656 16161 c-138 -38 -279 -126 -348 -218 -64 -85 -98 -169 -98
-243 1 -112 49 -184 162 -241 127 -64 326 -93 533 -78 137 10 174 18 189 42 8
13 7 21 -6 33 -15 15 -24 15 -85 4 -83 -16 -283 -17 -375 -1 -225 38 -333 119
-331 248 1 98 79 216 195 295 82 55 159 85 260 99 116 17 201 -2 264 -61 46
-42 82 -51 104 -25 28 34 -32 99 -127 135 -82 32 -241 37 -337 11z"/>
<path d="M26558 15980 l-24 -30 -57 20 c-156 55 -352 -7 -508 -160 -76 -75
-109 -132 -109 -189 0 -48 17 -67 73 -82 114 -31 343 78 550 264 43 38 79 68
81 66 2 -2 11 -37 21 -77 24 -102 76 -169 166 -217 70 -37 131 -47 152 -26 19
19 -4 44 -62 66 -118 45 -178 133 -190 277 -6 67 -11 84 -30 99 -31 25 -35 24
-63 -11z m-119 -76 c61 -13 45 -29 -148 -153 -134 -86 -228 -130 -292 -138
-59 -7 -67 5 -39 63 24 48 106 123 186 170 90 53 204 75 293 58z"/>
<path d="M27197 15875 c-21 -20 -21 -25 -2 -52 31 -44 125 -42 125 2 0 45 -92
82 -123 50z"/>
<path d="M3605 16683 c-181 -22 -388 -168 -471 -331 -21 -41 -30 -75 -32 -123
-7 -122 39 -201 146 -252 66 -31 70 -32 207 -31 136 0 143 1 245 38 139 50
230 99 290 155 118 111 135 278 37 379 -31 32 -114 81 -167 97 -14 4 -39 19
-56 32 -27 20 -126 46 -159 41 -5 0 -23 -3 -40 -5z m193 -132 c91 -24 155 -62
193 -114 26 -36 30 -49 27 -87 -10 -104 -75 -178 -214 -246 -133 -65 -266 -97
-376 -91 -108 7 -168 34 -217 98 -32 42 -33 47 -29 110 7 97 76 202 176 271
105 73 293 98 440 59z"/>
<path d="M5588 16659 c-30 -17 -37 -78 -36 -309 1 -124 -2 -248 -6 -276 -6
-42 -4 -54 9 -68 58 -57 83 67 86 422 2 184 0 225 -12 233 -17 11 -20 11 -41
-2z"/>
<path d="M620 16650 c-59 -14 -203 -70 -248 -96 -50 -30 -76 -65 -67 -93 11
-37 44 -36 84 2 20 20 59 47 86 61 52 25 214 76 245 76 22 0 50 -31 50 -57 0
-32 -73 -165 -159 -288 -87 -124 -111 -163 -142 -221 -43 -82 -1 -122 113
-109 141 15 457 106 501 143 23 20 22 29 -8 48 -21 14 -30 14 -57 4 -18 -7
-51 -19 -73 -27 -80 -30 -311 -91 -355 -95 -75 -5 -72 3 86 220 189 261 221
389 107 433 -29 11 -114 10 -163 -1z"/>
<path d="M17920 16635 c-9 -11 -10 -38 -5 -99 l7 -84 -54 -10 c-29 -6 -74 -13
-99 -17 -53 -7 -82 -32 -77 -67 4 -33 47 -34 137 -3 41 14 78 25 83 25 13 0 9
-97 -6 -177 -16 -83 -7 -107 35 -101 33 4 48 55 56 190 l6 108 36 10 c20 5 64
10 99 10 80 0 86 -12 39 -88 -69 -113 -81 -154 -55 -180 39 -39 141 14 263
137 38 39 73 71 77 71 5 0 8 -24 8 -52 0 -123 39 -170 108 -133 31 17 47 39
97 138 48 94 57 121 49 135 -6 9 -22 17 -35 17 -20 0 -31 -14 -66 -85 -70
-140 -67 -139 -73 -26 -8 155 -36 156 -196 6 -95 -90 -144 -129 -144 -116 0 2
18 35 40 74 47 82 53 133 18 156 -36 23 -96 28 -178 13 -41 -8 -79 -12 -84 -9
-5 3 -6 26 -3 53 3 26 1 63 -4 83 -8 31 -14 36 -38 36 -16 0 -34 -7 -41 -15z"/>
<path d="M7213 16531 c-84 -22 -217 -125 -274 -214 -48 -74 -59 -146 -35 -223
35 -111 100 -149 251 -149 80 1 97 4 155 32 95 46 176 117 221 192 34 56 39
73 39 125 0 100 -44 167 -144 218 -45 23 -157 33 -213 19z m112 -111 c45 -36
58 -37 78 -7 l15 22 22 -20 c92 -83 52 -223 -94 -326 -123 -88 -276 -92 -347
-11 -29 33 -31 40 -26 92 6 75 35 128 100 186 112 98 185 117 252 64z"/>
<path d="M18995 16451 c-58 -26 -99 -64 -119 -110 -16 -35 -22 -39 -45 -35
-57 12 -66 -56 -11 -80 16 -6 47 -33 70 -58 82 -94 250 -145 250 -76 0 13 -12
24 -37 34 -114 45 -165 75 -150 90 3 3 31 12 64 21 114 29 183 83 183 142 0
33 -21 68 -47 80 -36 17 -113 13 -158 -8z m110 -76 c0 -23 -53 -61 -108 -76
-48 -13 -56 -6 -36 29 34 62 144 98 144 47z"/>
<path d="M9910 16438 c-99 -12 -184 -46 -188 -74 -6 -40 20 -47 103 -29 116
26 312 17 425 -19 213 -69 331 -178 333 -306 1 -93 -61 -149 -218 -195 -234
-70 -723 -24 -759 71 -21 56 24 142 102 194 66 44 182 77 295 86 60 4 101 12
108 20 16 20 7 47 -23 63 -54 30 -285 -19 -393 -84 -77 -47 -110 -78 -146
-140 -53 -92 -34 -185 49 -242 131 -88 608 -110 817 -38 187 65 266 156 252
291 -26 249 -402 449 -757 402z"/>
<path d="M18908 15953 c-8 -10 -23 -58 -33 -108 -22 -107 -30 -122 -56 -99
-24 22 -29 17 -120 -102 -107 -143 -209 -212 -255 -173 -17 14 -16 33 11 129
17 61 13 85 -17 101 -32 17 -50 -10 -70 -108 -24 -118 -23 -146 6 -180 22 -25
30 -28 88 -28 81 1 151 37 217 113 56 67 133 142 143 142 5 0 8 -13 8 -29 0
-16 6 -34 13 -40 22 -17 46 8 61 64 11 45 16 51 52 63 21 7 77 18 124 23 104
13 130 22 130 49 0 38 -43 44 -160 22 -58 -11 -107 -18 -109 -16 -2 2 8 34 22
72 15 37 27 74 27 83 0 38 -55 53 -82 22z"/>
<path d="M20050 15905 c-10 -12 -10 -25 -1 -61 16 -64 5 -129 -27 -154 -32
-26 -42 -25 -42 4 0 50 -30 39 -106 -39 -40 -41 -78 -75 -84 -75 -5 0 -10 13
-10 28 0 36 -32 68 -55 55 -19 -11 -65 -117 -65 -149 0 -75 124 -54 219 37 39
38 45 40 68 30 14 -6 34 -9 45 -5 10 3 26 0 34 -7 11 -9 18 -8 35 7 12 11 25
29 30 42 11 28 46 42 128 50 72 8 96 27 71 57 -12 14 -27 17 -86 13 l-71 -5 1
72 c1 59 -3 77 -18 94 -22 25 -49 27 -66 6z"/>
<path d="M5610 15850 c-11 -11 -20 -23 -21 -27 0 -5 -2 -107 -3 -228 -2 -144
-10 -279 -24 -392 -22 -184 -19 -233 18 -233 28 0 37 20 43 95 3 39 15 138 26
222 19 138 41 411 41 506 0 36 -27 77 -50 77 -5 0 -19 -9 -30 -20z"/>
<path d="M19450 15751 c-96 -20 -202 -118 -263 -244 -41 -85 -97 -255 -97
-296 0 -33 27 -61 59 -61 31 0 74 46 96 103 l18 48 -23 24 c-22 23 -22 28 -10
67 7 24 24 65 38 93 23 46 25 48 33 27 11 -29 49 -29 126 -1 66 25 147 98 159
143 9 37 -11 71 -51 91 -18 8 -37 14 -42 14 -4 -1 -24 -4 -43 -8z m43 -77 c13
-14 -28 -64 -72 -87 -48 -26 -121 -50 -121 -40 0 15 56 77 93 104 37 27 85 38
100 23z"/>
<path d="M18027 15730 c-112 -43 -179 -132 -180 -239 0 -71 23 -118 73 -144
111 -58 373 65 411 192 9 32 8 44 -6 75 -17 35 -76 86 -100 86 -6 0 -26 11
-45 25 -41 30 -86 32 -153 5z m132 -91 c53 -11 101 -49 101 -79 0 -26 -73 -88
-144 -121 -112 -53 -186 -32 -186 53 0 42 27 103 56 130 31 27 96 34 173 17z"/>
<path d="M20343 15730 c-25 -15 -33 -27 -33 -48 0 -43 34 -73 149 -132 99 -51
171 -105 171 -129 0 -25 -75 -44 -202 -51 -134 -7 -161 -17 -156 -54 3 -20 10
-21 127 -24 180 -4 282 26 305 90 24 69 -44 148 -192 222 -58 28 -105 56 -106
61 0 6 31 11 71 13 81 3 101 16 77 50 -13 20 -24 22 -97 22 -64 0 -89 -4 -114
-20z"/>
<path d="M3381 15725 c-94 -21 -164 -83 -115 -102 14 -5 74 6 177 34 32 8 17
-17 -23 -37 -68 -35 -163 -132 -201 -206 -31 -63 -34 -75 -34 -158 0 -79 4
-99 29 -154 51 -109 148 -176 295 -204 102 -18 217 8 366 85 172 89 240 179
233 307 -8 144 -115 277 -295 368 -123 63 -316 93 -432 67z m341 -140 c23 -27
47 -32 65 -14 25 25 177 -101 217 -178 28 -54 37 -119 25 -168 -29 -115 -284
-260 -454 -258 -182 2 -310 119 -310 283 0 74 13 112 66 191 40 60 79 93 149
129 63 32 87 38 158 39 54 1 65 -2 84 -24z"/>
<path d="M824 15719 c-155 -18 -378 -78 -388 -105 -18 -46 28 -63 97 -35 66
26 147 46 262 65 122 20 281 30 289 18 9 -15 -31 -46 -154 -119 -158 -94 -180
-110 -180 -137 0 -40 31 -54 182 -86 180 -37 267 -63 302 -91 l27 -21 -23 -25
c-58 -62 -322 -158 -477 -173 -107 -10 -138 -27 -108 -57 32 -32 207 -16 355
34 136 45 254 106 295 151 41 46 44 60 22 102 -29 57 -152 107 -343 140 -63
10 -117 22 -120 24 -9 10 17 32 70 61 100 53 247 155 253 175 20 62 -41 91
-188 89 -56 -1 -134 -5 -173 -10z"/>
<path d="M7181 15613 c-16 -14 -27 -44 -42 -123 -19 -95 -20 -123 -13 -290 5
-102 9 -259 9 -349 1 -143 3 -166 18 -175 26 -17 46 12 58 85 8 46 7 110 -2
230 -14 201 -7 412 16 489 28 91 30 122 9 137 -23 17 -28 17 -53 -4z"/>
<path d="M10136 15574 c-14 -14 -15 -35 -10 -147 4 -88 1 -198 -9 -327 -9
-107 -19 -240 -22 -295 -4 -55 -13 -152 -21 -215 -19 -154 -18 -214 2 -231 22
-18 47 0 56 42 12 64 38 314 49 479 5 91 17 226 24 300 8 74 15 185 15 246 0
98 -3 115 -21 138 -24 30 -41 33 -63 10z"/>
<path d="M5498 14356 c-121 -43 -179 -92 -225 -191 -24 -52 -28 -73 -28 -150
0 -78 4 -97 28 -147 74 -151 267 -226 436 -168 168 56 274 176 275 310 1 90
-28 139 -140 242 -16 15 -40 41 -53 58 -55 73 -167 90 -293 46z m177 -105 c33
-13 55 -29 66 -47 11 -21 24 -30 49 -32 56 -6 110 -89 110 -170 0 -123 -150
-242 -306 -242 -173 0 -292 131 -269 297 15 100 77 192 132 194 15 0 37 4 48
9 35 15 118 11 170 -9z"/>
<path d="M1314 14332 c-20 -19 -50 -96 -97 -247 -28 -92 -38 -98 -131 -71 -55
16 -116 70 -116 102 0 9 23 50 52 91 58 84 58 108 -3 108 -32 0 -36 -4 -81
-85 -51 -91 -58 -131 -33 -179 33 -64 127 -111 222 -111 52 0 52 -1 22 -125
-11 -47 -19 -105 -17 -128 3 -35 7 -43 27 -45 13 -2 28 1 33 6 6 6 18 59 28
119 30 179 26 169 86 203 54 30 75 55 67 78 -6 14 -49 16 -58 2 -3 -5 -12 -10
-20 -10 -10 0 -8 15 10 63 26 71 58 140 83 179 13 21 14 32 6 45 -16 25 -56
27 -80 5z"/>
<path d="M3645 14238 c-12 -31 -9 -438 4 -593 13 -155 13 -178 -2 -253 -19
-94 -22 -274 -7 -402 17 -140 51 -204 88 -166 13 13 13 23 3 73 -7 32 -15 123
-18 203 -5 121 -3 147 9 158 13 10 15 40 11 175 -2 89 -8 235 -14 325 -8 123
-8 197 2 307 11 136 11 146 -6 165 -20 22 -63 27 -70 8z"/>
<path d="M7097 14108 c-17 -18 -54 -42 -81 -52 -58 -22 -118 -73 -140 -120
-47 -99 9 -224 118 -266 55 -21 175 -30 245 -20 98 15 221 79 266 137 63 82
46 173 -47 260 -59 54 -142 85 -246 91 l-82 5 -33 -35z m242 -122 c25 -24 35
-27 64 -22 31 6 35 3 52 -27 23 -43 16 -72 -27 -116 -66 -68 -186 -107 -297
-98 -127 11 -191 54 -191 129 0 101 126 171 297 165 64 -2 75 -6 102 -31z"/>
<path d="M23220 13549 c-239 -3 -457 -9 -485 -13 -27 -3 -133 -11 -235 -16
-319 -18 -704 -51 -830 -70 -148 -24 -267 -79 -297 -138 -17 -35 -18 -71 -18
-542 0 -437 -3 -541 -22 -775 -13 -148 -27 -304 -33 -345 -5 -41 -12 -111 -15
-155 -7 -100 -27 -312 -50 -525 -3 -25 -10 -94 -15 -155 -6 -60 -13 -137 -16
-170 -18 -187 -25 -287 -30 -441 -8 -242 4 -261 174 -274 110 -9 211 0 387 35
110 22 476 68 750 94 61 6 205 15 320 21 276 14 526 28 650 36 l100 7 -47 -52
c-26 -28 -59 -73 -73 -99 -44 -77 -92 -237 -121 -397 -24 -133 -27 -176 -28
-380 -1 -232 3 -278 45 -490 26 -130 27 -133 50 -145 25 -14 59 4 59 32 0 11
-11 62 -25 113 -40 147 -65 341 -65 508 l0 147 23 -14 c17 -11 53 -14 163 -11
499 12 935 131 1009 276 24 45 18 103 -16 170 -43 86 -176 221 -284 289 -160
102 -221 92 520 86 612 -5 740 -9 1270 -45 77 -6 250 -17 385 -25 425 -27 912
-71 1168 -106 40 -5 114 -14 165 -20 50 -6 117 -15 147 -20 30 -5 105 -17 165
-26 191 -28 487 -79 605 -104 25 -5 65 -12 90 -16 25 -3 99 -16 165 -30 66
-13 149 -28 185 -33 36 -6 108 -19 160 -30 52 -12 111 -21 131 -21 19 0 87 -9
150 -21 120 -22 244 -38 344 -43 33 -2 98 -9 145 -14 367 -47 593 -65 650 -53
25 5 54 9 65 9 29 0 149 20 171 29 33 12 128 75 162 107 90 84 124 238 152
691 11 161 23 289 50 525 10 90 45 294 81 485 6 28 14 75 19 105 5 30 27 143
50 250 40 194 54 269 85 470 9 58 20 125 26 149 16 71 28 330 20 407 -9 77
-42 161 -84 209 -14 17 -52 44 -84 60 l-58 30 -265 0 c-146 0 -348 4 -451 9
l-185 9 4 26 c10 67 -75 83 -458 85 -154 1 -345 9 -515 23 -248 21 -317 28
-535 54 -41 5 -129 13 -195 19 -233 20 -711 61 -820 70 -60 5 -153 14 -205 19
-126 14 -550 49 -575 48 -27 -2 -238 11 -470 28 -955 73 -2156 102 -3455 84z
m1905 -78 c543 -17 549 -18 1295 -61 96 -6 229 -15 295 -20 66 -5 225 -17 353
-25 128 -8 389 -31 580 -50 191 -19 478 -46 637 -60 309 -27 498 -47 660 -70
113 -16 348 -41 475 -50 47 -4 168 -15 270 -26 148 -16 219 -18 358 -13 170 7
172 7 172 -14 0 -11 4 -23 9 -26 20 -13 288 -46 486 -62 150 -11 262 -14 391
-9 194 7 236 2 295 -37 114 -76 129 -323 48 -798 -43 -260 -95 -535 -119 -635
-31 -128 -88 -436 -114 -615 -38 -254 -45 -315 -56 -460 -41 -514 -72 -663
-152 -723 -52 -39 -135 -77 -166 -77 -16 0 -46 -7 -65 -15 -87 -36 -501 -6
-1162 85 -110 16 -403 65 -585 100 -168 32 -548 99 -740 130 -102 16 -210 35
-240 40 -258 48 -731 102 -1260 145 -173 14 -398 32 -500 40 -235 19 -582 43
-823 55 -452 24 -1406 12 -1867 -23 -107 -9 -319 -20 -470 -26 -352 -15 -606
-28 -745 -41 -349 -33 -528 -54 -673 -80 -176 -32 -381 -42 -421 -20 -20 10
-21 16 -17 183 5 213 35 603 66 882 16 136 81 881 95 1075 17 244 25 521 20
742 -6 331 5 391 78 421 146 60 1158 140 1847 146 151 1 277 4 279 6 7 7 1138
-4 1466 -14z m-1080 -3343 c6 -13 35 -36 66 -53 175 -94 369 -299 369 -391 0
-78 -123 -143 -395 -210 -144 -35 -346 -62 -525 -70 -85 -4 -166 -11 -179 -16
l-23 -8 7 67 c8 87 49 289 74 370 23 77 81 182 129 235 31 34 34 42 24 59 -12
18 -8 19 95 20 60 1 151 5 203 9 52 3 106 7 120 8 18 2 28 -5 35 -20z"/>
<path d="M22274 13173 c-64 -5 -81 -22 -94 -94 -5 -31 -9 -267 -8 -554 1 -394
-2 -548 -16 -725 -20 -260 -32 -932 -21 -1163 7 -146 9 -160 31 -186 13 -16
36 -31 51 -34 16 -3 159 10 318 29 834 100 1262 140 1900 180 336 21 1342 29
1730 15 308 -11 713 -38 1020 -66 88 -8 266 -21 395 -29 129 -9 287 -20 350
-25 63 -6 151 -13 195 -16 44 -4 107 -10 140 -15 33 -5 116 -14 185 -20 137
-13 297 -32 640 -79 292 -40 363 -48 550 -66 85 -9 264 -31 397 -50 269 -39
281 -40 317 -23 34 15 39 35 21 94 -71 230 -86 362 -110 939 -31 744 -35 865
-35 1118 l0 257 23 0 c31 0 61 33 53 57 -3 10 -19 27 -35 36 l-30 17 16 44
c17 46 13 73 -13 83 -19 7 -93 -71 -94 -99 0 -10 -2 -18 -5 -18 -2 0 -60 9
-127 20 -285 46 -633 76 -1193 105 -165 8 -408 22 -540 30 -561 35 -1103 61
-1565 75 -179 5 -433 14 -565 20 -435 17 -784 30 -1222 45 -238 8 -553 19
-700 25 -147 5 -412 14 -588 20 -589 19 -859 31 -1045 45 -179 15 -217 15
-326 8z m376 -87 c216 -13 507 -24 1105 -42 326 -9 1064 -35 1570 -54 673 -26
1269 -47 1645 -60 349 -12 622 -26 1430 -75 1067 -64 1272 -83 1735 -160 l30
-5 -4 -347 c-2 -192 2 -451 8 -578 6 -126 16 -367 21 -535 16 -479 28 -596 80
-800 11 -43 20 -87 20 -99 0 -22 6 -22 -165 4 -116 18 -227 33 -290 40 -27 2
-162 16 -300 30 -137 14 -335 36 -440 50 -274 36 -330 43 -425 55 -126 15
-345 38 -430 45 -41 3 -147 12 -235 20 -88 8 -227 19 -310 25 -82 6 -312 24
-510 40 -582 47 -780 59 -1145 70 -1069 33 -2156 -23 -3435 -176 -159 -19
-303 -37 -320 -39 -54 -9 -56 -2 -67 186 -13 224 -3 879 18 1169 8 124 19 446
22 715 5 369 10 496 20 513 16 27 34 28 372 8z"/>
<path d="M23680 12920 c-305 -8 -518 -27 -545 -50 -19 -16 -19 -54 0 -70 16
-13 44 -11 150 14 137 32 684 42 1220 23 44 -2 50 0 50 18 0 31 -41 44 -171
54 -194 16 -381 19 -704 11z"/>
<path d="M25343 12793 c-15 -22 -19 -60 -25 -212 -7 -195 -16 -260 -44 -330
-16 -40 -19 -42 -49 -37 -17 4 -96 13 -175 21 -159 16 -180 12 -180 -34 0 -49
17 -55 187 -57 85 -1 157 -4 159 -7 3 -2 -7 -31 -22 -63 -32 -72 -77 -225 -94
-322 -14 -77 -7 -102 30 -102 27 0 46 37 64 125 21 103 61 237 88 297 l21 47
46 -5 c55 -6 210 -32 266 -43 195 -41 259 -53 387 -76 160 -29 205 -29 222 -3
8 14 6 22 -9 37 -15 15 -62 27 -198 51 -98 17 -240 43 -315 59 -75 16 -188 37
-250 47 -96 14 -112 19 -106 33 37 88 46 143 51 301 3 105 10 182 19 212 12
35 13 52 4 67 -16 30 -56 27 -77 -6z"/>
<path d="M23337 12664 c-22 -22 4 -67 142 -251 82 -110 156 -205 165 -212 9
-8 16 -20 16 -27 0 -8 -53 -40 -118 -72 -116 -57 -311 -184 -384 -250 -55 -49
-48 -102 12 -102 18 0 50 23 109 76 47 42 114 96 150 119 87 55 274 155 292
155 8 0 55 -42 105 -93 49 -50 148 -139 218 -197 71 -58 160 -131 198 -162 73
-60 97 -69 118 -43 20 25 1 53 -78 114 -217 165 -489 408 -474 423 6 6 133 59
283 119 151 60 281 116 289 124 11 11 11 18 3 26 -26 26 -281 -54 -532 -165
-99 -43 -106 -45 -124 -29 -16 16 -155 206 -278 382 -36 53 -51 67 -75 69 -16
2 -33 0 -37 -4z"/>
<path d="M26556 12334 c-19 -19 -19 -16 -1 -134 43 -279 243 -564 430 -611 28
-7 51 -14 53 -15 9 -5 -347 -592 -384 -635 -30 -34 -6 -87 35 -74 11 3 33 27
48 53 16 26 66 106 110 177 44 72 107 177 140 235 33 58 103 182 156 276 99
174 236 480 244 546 4 30 1 38 -16 48 -43 23 -56 6 -111 -143 -29 -78 -78
-196 -110 -263 -49 -105 -61 -123 -88 -132 -58 -20 -136 19 -226 113 -95 98
-180 290 -196 441 -9 80 -15 102 -32 117 -25 21 -32 21 -52 1z"/>
<path d="M27994 12285 c-87 -13 -191 -54 -200 -80 -9 -23 4 -62 22 -69 10 -4
41 6 73 22 90 47 168 57 431 57 182 0 254 -4 317 -17 126 -27 193 -60 193 -97
0 -50 -200 -197 -440 -324 -327 -173 -403 -215 -473 -265 -84 -61 -99 -87 -73
-127 36 -55 82 -67 316 -85 345 -26 582 -49 783 -76 124 -17 139 -14 150 26 9
34 -20 60 -66 60 -23 0 -125 9 -227 19 -102 11 -273 27 -380 36 -107 8 -248
20 -312 25 -114 10 -168 22 -168 37 0 15 94 71 305 183 481 255 649 376 662
476 18 141 -214 216 -661 213 -94 -1 -207 -7 -252 -14z"/>
<path d="M1080 13431 c-64 -8 -131 -36 -177 -75 -67 -57 -104 -191 -67 -244
26 -37 64 -50 184 -61 141 -14 161 -17 229 -42 100 -36 201 -122 201 -170 0
-53 -119 -124 -226 -135 -47 -5 -72 -2 -119 16 -109 39 -134 37 -121 -13 16
-66 229 -100 350 -58 121 43 196 115 196 190 0 62 -85 158 -187 209 -89 45
-157 62 -286 72 -131 9 -157 21 -157 70 0 15 15 49 33 76 77 114 200 126 476
43 135 -40 256 -14 256 56 0 25 -4 31 -27 33 -16 2 -39 -6 -57 -19 -35 -26
-58 -24 -221 18 -133 35 -203 43 -280 34z"/>
<path d="M5488 13389 c-50 -26 -67 -57 -42 -76 18 -14 18 -15 -8 -34 -77 -57
-138 -187 -139 -295 -1 -134 59 -222 177 -259 148 -46 409 43 495 170 120 175
7 399 -247 491 -83 31 -182 32 -236 3z m290 -113 c45 -23 107 -87 131 -135 32
-62 36 -111 14 -162 -39 -87 -128 -146 -267 -176 -85 -18 -143 -13 -200 20
-65 37 -81 67 -81 151 1 61 6 83 33 138 62 127 155 190 272 184 36 -1 80 -10
98 -20z"/>
<path d="M7266 13274 c-22 -21 -21 -184 0 -398 13 -123 15 -221 11 -414 -4
-214 -3 -254 9 -259 42 -16 60 60 70 287 3 89 1 230 -5 330 -7 96 -12 234 -12
307 -1 104 -4 136 -16 148 -19 19 -38 19 -57 -1z"/>
<path d="M1514 12052 c-82 -46 -179 -153 -267 -297 -43 -71 -120 -242 -137
-305 -6 -25 -21 -55 -33 -68 -20 -22 -20 -24 -4 -51 9 -16 17 -49 17 -73 0
-101 55 -189 145 -233 65 -32 190 -44 274 -26 176 38 326 175 339 311 3 39 0
51 -22 77 -40 47 -105 69 -253 83 -139 14 -244 9 -330 -14 -29 -8 -55 -11 -57
-8 -7 14 52 141 114 246 118 198 213 292 300 298 37 2 46 7 48 25 7 47 -74 68
-134 35z m171 -666 c89 -38 105 -81 56 -157 -59 -94 -190 -161 -316 -163 -90
-1 -147 16 -195 60 -50 46 -72 103 -68 179 3 54 6 61 30 73 72 34 419 40 493
8z"/>
<path d="M5704 11952 c-23 -15 -47 -79 -55 -147 -8 -73 5 -294 21 -356 6 -19
17 -98 25 -174 9 -76 21 -145 27 -152 6 -8 21 -13 32 -11 19 3 21 10 24 90 3
86 -7 174 -48 448 -24 163 -26 238 -6 246 21 8 28 34 15 50 -13 16 -19 17 -35
6z"/>
<path d="M7258 11793 c-42 -21 -97 -86 -133 -158 -49 -98 -23 -233 57 -300 81
-69 190 -100 289 -84 175 28 263 125 263 289 1 121 -51 192 -173 240 -79 32
-250 39 -303 13z m287 -97 c93 -43 128 -111 106 -204 -23 -91 -75 -140 -169
-162 -61 -14 -117 -8 -181 21 -84 37 -121 88 -121 166 0 129 114 220 208 166
33 -19 61 -12 69 17 7 26 27 25 88 -4z"/>
<path d="M5822 10688 c-17 -17 -15 -63 14 -296 25 -203 33 -445 18 -548 -3
-24 -1 -51 5 -63 12 -22 45 -28 56 -11 31 50 34 353 7 635 -11 110 -20 214
-21 230 -1 30 -31 65 -55 65 -7 0 -17 -5 -24 -12z"/>
<path d="M4032 10631 c-34 -21 -48 -208 -33 -426 21 -301 32 -430 41 -452 11
-26 47 -31 56 -9 3 8 -2 150 -11 317 -12 230 -13 321 -5 374 23 150 23 170 5
188 -18 19 -33 21 -53 8z"/>
<path d="M27453 9123 c-15 -22 -19 -54 -21 -185 -3 -117 -7 -160 -17 -168 -8
-7 -53 -15 -101 -18 -67 -5 -89 -11 -98 -24 -14 -23 2 -50 38 -63 25 -9 102 2
149 21 17 6 18 0 15 -92 -3 -95 -2 -99 19 -102 37 -5 53 32 53 128 0 47 4 90
8 96 4 7 39 33 77 59 39 26 111 88 162 138 51 50 95 88 99 85 7 -8 -17 -181
-53 -375 -25 -134 -25 -143 -9 -167 13 -20 25 -26 54 -26 34 0 45 8 127 96
116 123 131 126 255 62 47 -25 98 -48 114 -52 17 -4 60 -37 100 -77 108 -107
219 -148 323 -120 62 17 87 57 80 127 -8 74 -41 128 -129 209 -64 58 -69 65
-43 60 46 -11 167 -72 208 -106 20 -17 37 -39 37 -49 0 -42 42 -148 82 -207
79 -119 283 -249 406 -260 78 -7 117 13 143 73 22 49 22 56 -12 249 -11 61
-17 122 -14 137 4 15 23 42 44 61 30 27 52 37 103 46 36 6 78 11 94 11 34 0
54 16 54 42 0 29 -37 41 -110 34 -125 -11 -215 -58 -251 -128 -19 -37 -21 -54
-16 -128 3 -47 13 -121 22 -164 31 -148 3 -186 -103 -143 -82 33 -201 108
-256 161 -35 34 -107 146 -94 146 2 0 25 -11 52 -25 95 -48 191 -24 240 59 55
93 19 224 -74 271 -95 47 -246 5 -287 -80 -9 -19 -21 -35 -26 -35 -6 0 -25 11
-44 26 -18 14 -63 39 -101 57 -85 41 -148 43 -186 8 -44 -42 -35 -67 53 -151
121 -114 158 -185 116 -220 -40 -33 -167 12 -255 90 l-45 39 27 23 c36 31 58
79 58 127 0 54 -35 145 -72 187 -51 58 -117 44 -157 -33 -15 -30 -14 -119 4
-175 8 -27 11 -48 7 -48 -4 0 -37 15 -72 34 -135 71 -191 61 -302 -57 -42 -45
-80 -79 -83 -75 -4 4 7 67 23 140 34 150 59 350 49 390 -8 31 -41 44 -78 33
-13 -4 -71 -53 -129 -109 -94 -91 -146 -135 -189 -161 -12 -7 -13 8 -7 94 3
57 11 123 17 147 10 39 9 47 -6 64 -25 28 -51 25 -72 -7z m967 -333 c39 -77
32 -165 -15 -165 -43 0 -71 157 -35 200 16 19 26 12 50 -35z m763 -61 c78 -61
44 -189 -50 -189 -40 0 -157 77 -161 107 -3 23 41 81 72 93 41 17 112 11 139
-11z"/>
<path d="M24875 9063 c-200 -72 -355 -264 -355 -440 0 -79 19 -126 62 -153 45
-29 162 -24 228 10 73 37 151 104 215 185 33 41 63 75 66 75 4 0 9 -21 13 -47
8 -65 56 -163 95 -196 65 -54 167 -58 159 -5 -2 15 -16 26 -50 37 -61 21 -94
53 -112 110 -23 75 -27 113 -14 176 16 84 12 163 -9 188 -59 65 -203 94 -298
60z m187 -83 c72 -48 74 -52 43 -108 -54 -99 -188 -234 -298 -300 -75 -45
-150 -54 -191 -21 -27 21 -28 25 -23 85 6 80 41 155 105 225 63 68 117 107
185 130 78 27 125 24 179 -11z"/>
<path d="M26217 8976 c-58 -21 -99 -53 -141 -112 -22 -30 -43 -54 -46 -54 -4
0 -15 9 -26 21 -10 12 -38 32 -62 46 -38 23 -51 25 -113 21 -171 -13 -319
-149 -319 -295 0 -44 14 -63 46 -63 29 0 36 12 45 79 11 75 50 128 129 169 43
22 75 32 107 32 50 0 71 -9 129 -56 l42 -34 4 -107 c3 -90 8 -117 29 -163 34
-74 81 -125 143 -158 44 -23 63 -27 142 -27 77 0 95 3 113 19 12 11 21 29 19
40 -3 18 -10 21 -48 19 -25 0 -67 -2 -93 -3 -120 -3 -214 98 -232 253 -4 31
-4 57 0 57 4 0 32 -7 62 -16 102 -30 203 0 267 79 26 32 31 48 34 106 4 65 3
70 -28 104 -47 54 -125 71 -203 43z m133 -86 c31 -31 26 -82 -11 -125 -50 -56
-135 -68 -211 -29 -35 18 -35 29 -2 77 57 84 176 125 224 77z"/>
<path d="M26691 8858 c-28 -29 -50 -101 -60 -188 -14 -138 11 -200 84 -200 44
0 119 61 190 155 30 41 60 77 65 80 17 10 67 -51 100 -123 18 -37 39 -81 47
-99 18 -39 59 -58 96 -44 36 14 36 51 0 71 -18 10 -45 51 -82 125 -41 81 -65
116 -90 133 -69 45 -109 26 -199 -94 -66 -89 -102 -120 -128 -110 -12 5 -14
15 -9 53 12 82 33 156 55 185 23 31 25 49 8 66 -19 19 -55 14 -77 -10z"/>
<path d="M23602 8199 c-101 -67 -192 -196 -311 -444 -97 -200 -149 -334 -217
-560 -25 -82 -57 -173 -71 -202 -25 -49 -26 -52 -9 -77 30 -46 69 -28 100 46
9 20 32 101 51 181 19 79 48 182 64 228 73 216 206 500 294 627 58 84 140 162
170 162 20 0 20 -3 13 -167 -4 -93 -11 -229 -16 -303 -18 -261 -6 -516 30
-649 18 -69 80 -81 166 -31 68 38 104 86 165 217 113 240 140 292 203 393 36
58 66 111 66 118 0 18 -28 26 -53 15 -27 -13 -132 -187 -239 -398 -88 -174
-133 -238 -184 -262 -45 -22 -59 -8 -73 70 -19 101 -24 379 -11 542 6 83 14
225 17 317 5 145 4 171 -11 193 -25 38 -71 34 -144 -16z"/>
<path d="M25959 7806 c-3 -3 -87 -9 -186 -14 -186 -9 -213 -15 -213 -52 0 -9
9 -25 19 -34 16 -15 31 -16 100 -11 79 7 80 7 74 -15 -4 -15 2 -29 20 -45 19
-18 28 -40 35 -92 20 -129 35 -360 27 -419 -15 -116 -13 -129 17 -132 43 -5
60 32 66 146 5 109 -12 373 -29 453 -8 37 -22 64 -44 86 l-32 32 51 7 c28 4
182 10 341 13 288 6 290 6 293 28 6 41 -26 47 -288 51 -135 2 -248 1 -251 -2z"/>
<path d="M25135 7685 c-37 -10 -60 -24 -90 -58 -22 -24 -61 -56 -86 -70 -99
-56 -203 -189 -240 -307 -23 -74 -27 -191 -8 -263 57 -227 406 -229 681 -5 95
78 155 151 209 253 35 67 42 91 46 155 9 124 -38 205 -149 259 -98 47 -262 63
-363 36z m284 -90 c35 -11 70 -32 100 -60 l46 -44 0 -78 c0 -69 -5 -86 -34
-145 -19 -36 -54 -91 -78 -122 -58 -73 -199 -178 -293 -218 -68 -30 -85 -33
-175 -33 -82 0 -106 4 -134 20 -102 60 -108 274 -11 423 45 70 126 146 177
168 21 9 47 21 58 27 11 6 32 17 48 25 15 7 35 25 45 38 16 24 20 25 107 20
50 -2 114 -12 144 -21z"/>
<path d="M23644 6610 c-99 -56 -255 -261 -351 -459 l-48 -100 -51 -1 c-36 0
-56 -5 -67 -18 -30 -33 -15 -72 28 -72 12 0 24 -3 28 -6 12 -12 -160 -339
-207 -394 -25 -30 -46 -62 -46 -71 0 -23 26 -49 49 -49 18 0 64 44 98 95 21
32 126 262 138 305 7 23 43 100 51 109 4 4 457 -97 490 -109 20 -8 21 -15 27
-369 6 -367 11 -406 45 -399 16 3 17 34 16 375 l0 373 40 -7 c23 -3 51 -10 64
-14 39 -15 102 -11 109 6 11 29 -25 52 -112 70 -47 9 -89 23 -94 29 -6 7 -6
99 1 250 9 178 9 259 0 317 -12 83 -41 153 -67 163 -37 14 -92 5 -141 -24z
m116 -75 c12 -24 16 -86 18 -322 3 -271 2 -293 -14 -293 -10 0 -81 18 -158 39
-78 22 -168 44 -201 51 -83 16 -95 20 -95 31 0 14 142 249 198 329 26 36 72
91 104 123 84 84 121 95 148 42z"/>
<path d="M25546 6378 c-36 -48 -101 -200 -130 -303 -26 -93 -29 -108 -72 -340
-39 -210 -65 -270 -125 -296 -66 -27 -152 55 -230 217 -60 126 -89 230 -98
347 -5 70 -10 92 -23 101 -32 20 -51 -4 -65 -85 -8 -41 -29 -148 -48 -239 -18
-91 -45 -227 -60 -303 -14 -75 -35 -163 -46 -195 -32 -89 -35 -118 -11 -131
27 -15 50 -5 67 30 17 31 70 254 80 334 12 91 46 300 51 314 3 8 20 -28 38
-80 59 -166 111 -263 172 -321 71 -66 183 -87 245 -45 73 49 106 134 145 377
43 271 70 368 144 528 23 50 40 98 37 107 -10 25 -45 17 -71 -17z"/>
<path d="M26226 6359 c-112 -27 -253 -151 -323 -284 -83 -159 -110 -337 -93
-613 18 -295 45 -389 104 -366 26 10 28 39 7 148 -57 293 -49 582 20 743 49
114 144 222 236 269 139 70 245 29 362 -140 65 -95 117 -205 132 -278 9 -46 8
-69 -5 -132 -24 -106 -76 -180 -179 -257 -129 -96 -246 -142 -393 -156 -76 -7
-104 -23 -88 -50 31 -50 280 -6 424 75 175 98 292 237 315 372 21 121 2 217
-68 347 -116 215 -224 313 -357 326 -30 3 -73 2 -94 -4z"/>
<path d="M8656 5083 c-13 -44 -27 -326 -17 -336 30 -30 46 32 56 225 4 77 -25
159 -39 111z"/>
<path d="M25365 4511 c-151 -73 -310 -247 -406 -445 -21 -44 -55 -94 -74 -111
-39 -36 -45 -69 -21 -126 11 -26 12 -49 4 -99 -13 -88 -3 -248 22 -344 11 -43
37 -113 57 -155 38 -76 38 -76 78 -76 56 0 57 26 6 112 -51 87 -81 193 -88
318 l-6 99 93 -98 c149 -156 527 -449 770 -597 198 -121 295 -155 295 -104 0
15 -23 32 -95 69 -321 165 -910 634 -1016 808 -31 51 -35 64 -29 99 l7 41 42
-5 c22 -2 77 -14 121 -26 185 -51 297 -61 385 -35 151 45 239 165 248 341 5
100 -12 166 -66 248 -74 115 -199 148 -327 86z m213 -78 c20 -17 50 -56 67
-89 27 -53 30 -69 29 -149 0 -72 -4 -100 -23 -143 -27 -60 -94 -125 -149 -143
-50 -16 -184 -5 -308 25 -55 14 -124 28 -152 32 -29 3 -52 8 -52 11 0 13 51
100 103 176 184 268 368 374 485 280z"/>
<path d="M23536 4203 c-45 -23 -53 -24 -87 -13 -45 15 -63 6 -56 -29 4 -21 -4
-36 -48 -82 -89 -93 -135 -211 -135 -344 1 -230 126 -386 356 -445 93 -24 146
-25 252 -5 173 33 325 135 387 259 32 63 34 149 5 205 -22 44 -101 118 -180
169 -67 43 -282 150 -365 182 -33 13 -62 25 -64 26 -2 2 9 14 25 27 25 22 27
27 16 51 -14 32 -39 32 -106 -1z m175 -208 c263 -132 355 -192 410 -268 34
-47 36 -85 9 -145 -44 -98 -196 -199 -334 -223 -81 -14 -191 -7 -261 16 -70
23 -153 82 -192 136 -88 124 -79 341 21 472 39 51 111 107 137 107 11 0 105
-43 210 -95z"/>
<path d="M12304 2375 c-10 -24 12 -42 34 -29 24 16 21 38 -6 42 -13 2 -25 -3
-28 -13z"/>
<path d="M22415 2318 c-10 -26 -16 -93 -22 -256 -4 -120 -2 -167 6 -175 23
-23 38 20 49 140 6 65 10 158 9 208 -2 76 -5 90 -20 93 -9 2 -19 -3 -22 -10z"/>
<path d="M9595 2020 c-20 -33 86 -70 202 -70 54 0 83 -5 113 -21 32 -17 50
-20 83 -15 103 17 140 18 178 6 44 -15 64 -5 53 24 -16 42 -121 59 -222 36
-34 -8 -50 -7 -80 6 -20 10 -84 21 -142 25 -58 5 -121 11 -141 15 -24 4 -39 2
-44 -6z"/>
<path d="M15860 1860 c-6 -4 -10 -24 -8 -46 3 -34 6 -39 30 -42 53 -6 62 77 9
91 -10 2 -24 1 -31 -3z"/>
<path d="M22430 794 c0 -8 5 -12 10 -9 6 4 8 11 5 16 -9 14 -15 11 -15 -7z"/>
<path d="M242 428 c-20 -21 -22 -21 -41 -4 -20 18 -61 14 -61 -6 0 -7 -4 -7
-12 0 -7 6 -24 10 -38 11 -14 0 -40 3 -58 7 -31 6 -32 5 -32 -25 l0 -31 93 4
c73 3 96 0 110 -12 14 -13 24 -14 50 -5 60 21 99 26 107 13 6 -10 24 -12 105
-9 17 0 43 -2 58 -6 18 -5 38 -3 53 5 19 11 29 11 47 1 27 -14 89 -11 94 4 4
14 -55 44 -87 44 -14 1 -52 3 -85 5 -33 3 -71 5 -85 6 -30 1 -120 -9 -137 -15
-7 -2 -15 0 -18 5 -16 26 -42 29 -63 8z"/>
<path d="M760 420 c-14 -3 -25 -12 -25 -20 0 -19 40 -27 133 -29 56 -1 74 2
78 14 12 30 -13 42 -88 42 -40 0 -84 -3 -98 -7z"/>
<path d="M1015 404 c-26 -26 -7 -37 56 -31 39 5 68 2 91 -8 19 -7 40 -10 47
-6 7 5 47 9 89 10 41 1 79 4 84 7 5 3 18 -2 29 -12 17 -16 21 -16 37 -1 12 10
31 14 62 12 49 -4 77 6 66 24 -9 14 -53 14 -61 1 -4 -6 -13 -7 -21 -2 -9 5
-35 6 -59 2 -24 -4 -52 -2 -61 3 -10 6 -91 12 -181 13 -135 2 -165 0 -178 -12z"/>
<path d="M1623 400 c-35 -14 -28 -27 18 -35 30 -5 45 -3 56 7 12 13 19 12 53
-4 32 -16 45 -18 72 -10 101 31 194 29 181 -4 -8 -21 27 -31 39 -11 5 10 21
17 38 17 55 0 46 35 -10 39 -76 4 -247 5 -290 1 -25 -3 -65 -2 -90 2 -25 4
-55 3 -67 -2z"/>
<path d="M2231 397 c-8 -10 -7 -18 2 -31 10 -14 18 -15 40 -7 34 13 34 24 2
39 -32 15 -30 15 -44 -1z"/>
<path d="M2337 393 c-10 -3 -16 -10 -14 -16 4 -14 32 -21 54 -13 12 5 13 9 3
21 -7 8 -15 14 -19 14 -3 -1 -14 -3 -24 -6z"/>
<path d="M2432 388 c-15 -15 -15 -31 -1 -45 18 -18 39 -3 39 28 0 30 -17 38
-38 17z"/>
<path d="M2547 393 c-24 -24 14 -70 47 -57 23 9 19 29 -9 48 -28 18 -29 19
-38 9z"/>
<path d="M2724 385 c-10 -25 6 -35 52 -31 54 4 65 13 40 32 -15 10 -23 11 -33
2 -10 -8 -17 -8 -25 0 -16 16 -27 15 -34 -3z"/>
<path d="M2162 379 c2 -6 8 -10 13 -10 5 0 11 4 13 10 2 6 -4 11 -13 11 -9 0
-15 -5 -13 -11z"/>
<path d="M2883 383 c-18 -2 -33 -8 -33 -13 0 -10 39 -19 70 -15 14 2 28 4 32
4 15 2 -5 31 -21 29 -9 0 -31 -3 -48 -5z"/>
<path d="M3010 375 c-23 -12 -23 -14 -7 -21 22 -8 71 12 62 26 -8 13 -25 12
-55 -5z"/>
<path d="M3485 378 c-22 -5 -51 -7 -64 -5 -33 7 -51 -2 -51 -23 0 -31 82 -44
94 -15 3 9 19 15 41 15 24 0 35 5 35 14 0 21 -10 24 -55 14z"/>
<path d="M3105 367 c-21 -16 -5 -33 22 -23 8 4 22 1 29 -5 11 -9 15 -8 20 4
13 35 -33 51 -71 24z"/>
<path d="M3555 372 c-3 -3 -5 -14 -5 -24 0 -15 5 -18 20 -13 11 3 27 2 37 -4
13 -7 26 -5 45 7 47 28 35 42 -32 40 -33 -1 -62 -4 -65 -6z"/>
<path d="M3780 374 c0 -18 24 -44 40 -44 31 0 24 27 -10 39 -16 5 -30 8 -30 5z"/>
<path d="M3906 364 c-11 -11 -14 -20 -8 -26 16 -16 47 -5 47 16 0 26 -19 31
-39 10z"/>
<path d="M3205 360 c3 -5 15 -10 26 -10 10 0 19 5 19 10 0 6 -12 10 -26 10
-14 0 -23 -4 -19 -10z"/>
<path d="M4025 360 c-11 -18 13 -36 31 -25 9 6 16 15 17 20 3 14 -40 18 -48 5z"/>
<path d="M4160 340 c0 -15 5 -20 18 -18 9 2 17 10 17 18 0 8 -8 16 -17 18 -13
2 -18 -3 -18 -18z"/>
<path d="M4380 345 c0 -8 7 -15 15 -15 8 0 15 7 15 15 0 8 -7 15 -15 15 -8 0
-15 -7 -15 -15z"/>
<path d="M4917 344 c-14 -14 -7 -35 11 -32 9 2 17 10 17 17 0 16 -18 25 -28
15z"/>
<path d="M5710 316 c0 -9 7 -16 16 -16 17 0 14 22 -4 28 -7 2 -12 -3 -12 -12z"/>
<path d="M6015 320 c-4 -7 -3 -16 3 -22 14 -14 45 -2 40 15 -6 16 -34 21 -43
7z"/>
<path d="M6890 324 c-14 -3 -48 -11 -77 -20 -38 -11 -57 -13 -72 -5 -11 7
-100 12 -213 14 l-193 2 -3 -23 c-3 -19 6 -27 53 -48 48 -22 60 -25 80 -14 18
9 27 9 45 0 18 -10 33 -9 74 3 112 34 132 38 152 30 29 -11 84 -59 84 -74 0
-9 17 -10 68 -3 76 10 239 10 582 0 129 -4 357 -9 505 -11 149 -2 446 -8 660
-12 465 -8 528 -7 556 7 18 10 25 8 49 -15 31 -30 29 -30 145 5 41 12 87 19
110 17 22 -2 83 0 135 6 52 5 102 9 110 9 75 -4 299 -12 313 -12 56 3 119 3
257 0 85 -2 175 -3 200 -2 25 2 100 0 166 -3 96 -4 124 -2 133 9 23 28 -12 34
-214 36 -110 0 -211 1 -225 2 -27 0 -70 -1 -97 -2 -10 -1 -49 1 -88 4 -150 12
-414 16 -420 6 -4 -7 -13 -6 -26 1 -12 6 -114 13 -242 16 -122 3 -231 10 -241
15 -20 11 -197 16 -886 23 -234 3 -492 6 -575 9 -82 2 -159 0 -169 -3 -11 -4
-45 -1 -75 6 -31 7 -87 13 -126 12 -38 0 -133 3 -210 7 -77 4 -151 6 -165 5
-31 -3 -44 -2 -95 3 -22 2 -51 2 -65 0z"/>
<path d="M6250 294 c0 -12 6 -15 23 -10 12 3 28 6 35 6 6 0 12 5 12 10 0 6
-16 10 -35 10 -26 0 -35 -4 -35 -16z"/>
<path d="M11198 214 c-3 -2 -82 -5 -176 -6 -176 -1 -219 -8 -168 -28 15 -5 40
-10 54 -10 15 1 48 -2 73 -6 30 -4 49 -2 53 5 5 8 13 8 28 0 13 -7 50 -9 97
-6 50 3 96 0 135 -10 42 -11 61 -12 69 -4 6 6 21 11 33 11 13 0 25 4 28 8 10
16 -10 31 -39 31 -47 -2 -163 8 -173 15 -5 3 -11 3 -14 0z"/>
<path d="M11455 190 c-11 -18 6 -31 38 -29 18 1 37 0 42 -2 20 -7 86 12 82 24
-5 15 -153 22 -162 7z"/>
<path d="M11643 184 c-8 -22 3 -28 47 -26 22 2 49 -2 59 -8 14 -7 28 -7 48 1
l28 11 -23 18 c-30 25 -150 27 -159 4z"/>
<path d="M11872 191 c-11 -6 -7 -13 14 -30 22 -17 36 -21 59 -16 16 4 46 8 65
9 24 1 35 6 35 16 0 10 -11 15 -35 16 -19 0 -55 3 -80 7 -25 4 -51 3 -58 -2z"/>
<path d="M12083 184 c-10 -26 18 -35 82 -30 41 3 66 0 78 -9 19 -14 76 -10
109 6 9 5 19 5 22 1 2 -4 29 -7 58 -6 29 1 71 -2 93 -6 77 -17 156 9 113 37
-7 4 -98 8 -203 9 -104 2 -225 5 -268 8 -65 5 -79 3 -84 -10z"/>
<path d="M12715 183 c-43 -7 -48 -16 -21 -42 20 -19 28 -21 45 -11 14 7 59 9
131 6 61 -3 121 -1 133 3 14 6 43 5 73 -2 27 -6 139 -12 249 -14 110 -1 214
-3 230 -4 17 0 105 0 196 1 94 1 174 -2 185 -7 21 -11 284 -10 302 1 6 4 25 0
42 -9 24 -12 35 -13 52 -4 27 15 109 13 119 -2 4 -7 21 -9 45 -5 63 10 187 15
198 9 10 -6 82 -12 136 -11 14 0 102 -1 195 -2 94 -2 238 -3 320 -4 100 -1
158 -6 173 -14 17 -10 31 -11 55 -3 29 9 349 8 727 -4 162 -5 368 -7 560 -6
91 1 194 -2 230 -7 36 -4 85 -4 110 0 25 5 88 6 140 3 52 -4 276 -8 498 -10
221 -2 408 -7 415 -12 6 -4 255 -9 552 -10 903 -5 1069 -8 1083 -16 7 -5 18
-5 25 0 7 5 76 6 155 3 78 -4 166 -3 195 1 28 3 77 2 107 -4 36 -6 79 -6 121
0 36 5 103 6 149 2 147 -11 807 -11 814 0 17 26 -44 33 -347 37 -292 5 -337 6
-369 4 -29 -1 -610 10 -813 15 -121 3 -377 8 -570 11 -192 3 -485 7 -650 10
-165 3 -437 7 -605 9 -168 2 -348 6 -400 9 -52 4 -304 9 -560 11 -445 5 -658
8 -1270 20 -366 7 -823 14 -1400 22 -447 6 -505 7 -555 5 -11 -1 -83 1 -160 3
-115 3 -471 7 -700 7 -84 0 -228 6 -270 11 -22 3 -53 3 -70 0z"/>
<path d="M4279 140 c-9 -5 -24 -21 -33 -35 -29 -45 -10 -53 117 -54 62 0 159
-4 217 -10 58 -6 175 -13 260 -15 85 -3 245 -8 355 -12 196 -7 315 -1 315 16
0 13 -83 50 -112 50 -14 0 -38 4 -54 10 -40 13 -256 29 -273 20 -8 -4 -28 -2
-45 5 -42 17 -449 14 -526 -4 -50 -12 -60 -11 -115 8 -87 32 -88 32 -106 21z"/>
<path d="M24601 78 c-22 -8 -26 -14 -35 -50 l-6 -27 167 0 c128 -1 164 2 155
11 -20 20 -14 38 14 38 19 0 25 4 22 18 -3 15 -18 17 -151 17 -81 0 -156 -3
-166 -7z"/>
<path d="M24955 81 c-3 -2 -5 -13 -5 -23 0 -10 -9 -27 -20 -38 l-20 -20 40 0
c33 0 40 3 40 20 0 13 7 20 20 20 13 0 20 -7 20 -20 0 -18 7 -20 78 -20 64 0
82 4 95 18 24 26 21 51 -5 57 -30 7 -237 12 -243 6z"/>
<path d="M25303 81 c-50 -8 -61 -17 -45 -33 7 -7 12 -20 12 -30 0 -17 7 -19
68 -16 48 2 66 7 64 16 -1 7 9 18 23 24 14 6 25 15 25 19 0 6 -96 32 -103 28
-1 -1 -21 -5 -44 -8z"/>
<path d="M25788 69 c-10 -5 -18 -20 -18 -31 0 -19 -2 -20 -12 -6 -17 21 -73
31 -190 33 -98 2 -108 -1 -87 -22 14 -14 3 -34 -15 -27 -8 3 -17 1 -21 -5 -4
-8 63 -11 224 -11 195 0 231 2 231 15 0 7 8 19 18 24 16 10 16 12 -2 26 -22
17 -102 20 -128 4z"/>
<path d="M25966 70 c-13 -4 -19 -16 -20 -38 l-1 -32 128 0 c83 0 126 4 122 10
-3 5 -18 10 -33 11 -27 1 -27 1 -3 8 68 19 -9 49 -96 39 -21 -3 -47 -2 -58 2
-11 4 -29 4 -39 0z m74 -50 c0 -5 -9 -10 -21 -10 -11 0 -17 5 -14 10 3 6 13
10 21 10 8 0 14 -4 14 -10z"/>
<path d="M26357 73 l-108 -4 6 -32 c4 -18 8 -33 10 -35 1 -1 63 -1 136 1 87 2
126 6 111 11 -18 7 -20 11 -11 22 13 16 -5 46 -25 42 -6 -1 -60 -4 -119 -5z"/>
<path d="M26659 69 c-11 -7 -12 -12 -2 -28 8 -13 9 -22 3 -26 -15 -9 -30 4
-30 26 0 24 -21 33 -58 24 -26 -6 -26 -7 -8 -21 16 -11 17 -16 6 -29 -11 -13
6 -15 159 -15 168 0 172 1 166 20 -9 27 25 27 50 0 16 -18 31 -20 133 -20
l115 0 -19 21 c-42 47 -105 55 -347 45 -60 -3 -119 -1 -131 4 -13 5 -29 4 -37
-1z"/>
<path d="M27325 56 c-29 -12 -29 -13 -9 -24 24 -13 443 -20 463 -8 6 4 10 13
8 19 -2 8 -36 12 -98 13 -52 0 -148 3 -214 7 -89 5 -128 3 -150 -7z"/>
<path d="M4093 48 c-23 -30 -23 -48 1 -48 22 0 52 41 39 54 -10 10 -30 7 -40
-6z"/>
<path d="M27832 39 c5 -14 21 -14 26 0 2 6 -4 11 -13 11 -9 0 -15 -5 -13 -11z"/>
<path d="M5530 30 c0 -5 9 -10 21 -10 11 0 17 4 14 10 -8 13 -35 13 -35 0z"/>
<path d="M21483 33 c-7 -2 -13 -11 -13 -19 0 -10 13 -14 43 -14 50 0 62 7 46
27 -11 13 -52 16 -76 6z"/>
<path d="M21628 29 c-37 -21 -16 -29 76 -29 96 0 118 7 91 30 -12 10 -21 10
-40 2 -17 -8 -33 -8 -51 -2 -32 13 -54 12 -76 -1z"/>
<path d="M28090 30 c0 -5 5 -10 10 -10 6 0 10 5 10 10 0 6 -4 10 -10 10 -5 0
-10 -4 -10 -10z"/>
<path d="M21830 15 c0 -9 31 -13 101 -13 86 -2 99 0 89 12 -15 19 -190 19
-190 1z"/>
<path d="M22057 23 c-16 -15 -5 -23 31 -23 35 1 36 2 18 15 -21 16 -39 19 -49
8z"/>
<path d="M22153 23 c-28 -11 -11 -23 32 -23 25 0 45 5 45 10 0 6 -9 10 -19 10
-11 0 -25 2 -33 4 -7 3 -19 2 -25 -1z"/>
<path d="M22250 10 c0 -6 18 -10 41 -10 22 0 38 4 35 8 -7 12 -76 13 -76 2z"/>
<path d="M22414 9 c-3 -5 38 -9 92 -9 54 0 94 3 91 6 -10 11 -177 13 -183 3z"/>
<path d="M22620 10 c-12 -8 -10 -10 8 -10 13 0 20 4 17 10 -7 12 -6 12 -25 0z"/>
<path d="M22780 10 c-11 -7 4 -10 48 -10 40 0 61 4 57 10 -8 13 -85 13 -105 0z"/>
<path d="M23060 10 c-12 -8 -10 -10 8 -10 13 0 20 4 17 10 -7 12 -6 12 -25 0z"/>
<path d="M23305 10 c-4 -6 7 -10 25 -10 18 0 29 4 25 10 -3 6 -15 10 -25 10
-10 0 -22 -4 -25 -10z"/>
<path d="M23495 10 c-3 -5 3 -10 15 -10 12 0 18 5 15 10 -3 6 -10 10 -15 10
-5 0 -12 -4 -15 -10z"/>
<path d="M22718 3 c7 -3 16 -2 19 1 4 3 -2 6 -13 5 -11 0 -14 -3 -6 -6z"/>
<path d="M22938 3 c7 -3 16 -2 19 1 4 3 -2 6 -13 5 -11 0 -14 -3 -6 -6z"/>
<path d="M22988 3 c6 -2 18 -2 25 0 6 3 1 5 -13 5 -14 0 -19 -2 -12 -5z"/>
<path d="M23238 3 c7 -3 16 -2 19 1 4 3 -2 6 -13 5 -11 0 -14 -3 -6 -6z"/>
<path d="M23743 3 c15 -2 39 -2 55 0 15 2 2 4 -28 4 -30 0 -43 -2 -27 -4z"/>
</g>
</svg>
