<?xml version="1.0" standalone="no"?>
<!DOCTYPE svg PUBLIC "-//W3C//DTD SVG 20010904//EN"
 "http://www.w3.org/TR/2001/REC-SVG-20010904/DTD/svg10.dtd">
<svg version="1.0" xmlns="http://www.w3.org/2000/svg"
 width="3264.000000pt" height="2448.000000pt" viewBox="0 0 3264.000000 2448.000000"
 preserveAspectRatio="xMidYMid meet">
<metadata>
Created by potrace 1.12, written by Peter Selinger 2001-2015
</metadata>
<g transform="translate(0.000000,2448.000000) scale(0.100000,-0.100000)"
fill="#000000" stroke="none">
<path d="M29075 21840 c-14 -23 31 -45 56 -29 11 8 10 12 -5 24 -23 17 -42 19
-51 5z"/>
<path d="M11600 21816 c0 -13 7 -30 17 -37 49 -41 73 -174 73 -402 0 -84 7
-254 17 -379 16 -213 16 -240 0 -430 -9 -112 -24 -358 -32 -548 -9 -190 -27
-493 -41 -675 -14 -181 -30 -393 -35 -470 -18 -242 -33 -3099 -18 -3274 5 -53
11 -334 13 -626 2 -291 9 -627 15 -745 6 -118 13 -285 16 -370 2 -85 6 -202 9
-260 8 -153 15 -329 22 -550 3 -107 8 -198 10 -201 3 -6 10 -489 20 -1379 6
-534 6 -958 0 -1525 -3 -299 0 -380 29 -910 30 -552 34 -697 36 -1215 2 -289
6 -606 10 -705 4 -99 10 -335 13 -525 4 -190 11 -430 16 -535 17 -339 32 -986
26 -1125 -6 -135 -10 -265 -25 -695 -4 -126 -6 -264 -5 -305 1 -41 5 -339 8
-663 3 -323 8 -592 11 -597 3 -5 6 -49 6 -97 1 -91 11 -122 35 -103 13 12 13
0 -2 1150 -4 266 -2 535 5 670 28 583 31 1013 11 1490 -5 129 -14 477 -20 775
-6 297 -13 549 -16 560 -3 11 -9 358 -14 770 -8 661 -14 862 -35 1125 -22 280
-28 593 -29 1575 -2 957 -11 1938 -21 2180 -10 223 -14 336 -20 505 -3 102 -8
226 -10 275 -4 87 -15 323 -35 785 -6 124 -13 434 -15 690 -3 256 -8 602 -12
770 -8 358 -8 455 1 1745 5 657 12 1066 22 1240 19 322 18 315 37 510 19 189
33 411 47 740 6 132 20 360 31 507 20 256 20 276 5 495 -9 126 -16 305 -16
399 0 184 -10 266 -42 329 -30 59 -57 85 -90 85 -23 0 -28 -4 -28 -24z"/>
<path d="M2316 20607 c-30 -30 -43 -89 -27 -123 15 -33 55 -51 76 -34 19 16
19 54 0 70 -10 9 -13 24 -8 55 7 53 -8 65 -41 32z"/>
<path d="M4540 20570 c-16 -10 -7 -198 14 -298 l14 -63 -27 -10 c-67 -24 -82
-33 -92 -51 -24 -45 10 -60 74 -33 20 8 42 15 50 15 8 0 24 -34 41 -87 36
-116 74 -187 104 -191 37 -6 37 24 -1 106 -35 74 -67 164 -67 189 0 14 70 47
149 70 31 8 84 27 119 41 52 20 63 28 60 46 -5 34 -37 30 -192 -22 -104 -35
-149 -46 -155 -38 -5 6 -14 72 -20 146 -7 74 -14 143 -17 153 -7 23 -37 38
-54 27z"/>
<path d="M14568 20518 c-39 -30 -73 -256 -66 -440 l5 -127 -56 -11 c-177 -35
-239 -75 -178 -115 21 -14 29 -12 93 15 39 16 89 32 112 36 l42 7 -2 -74 c-3
-61 0 -74 13 -77 21 -4 30 19 38 98 l6 65 155 31 c243 49 265 56 265 79 0 18
-6 20 -65 19 -36 0 -127 -13 -202 -28 -76 -16 -143 -26 -150 -23 -10 3 -12 39
-7 163 5 133 10 175 34 258 20 71 25 103 18 115 -13 21 -35 25 -55 9z"/>
<path d="M9007 20493 c-13 -13 -7 -92 18 -213 14 -68 25 -128 25 -135 0 -7
-21 -15 -52 -19 -64 -9 -88 -21 -88 -45 0 -35 23 -43 85 -32 32 6 61 9 64 6 4
-2 13 -37 20 -77 17 -93 18 -98 31 -98 23 0 33 48 23 112 -7 41 -7 65 -1 69 6
4 36 9 67 13 31 3 78 12 105 18 l49 12 31 -35 c83 -95 159 -132 271 -133 107
0 165 31 165 89 0 26 -27 28 -75 5 -50 -24 -107 -22 -198 7 -45 14 -118 70
-116 89 0 5 31 24 69 42 93 44 130 82 130 131 0 124 -196 148 -300 37 -19 -21
-24 -36 -22 -70 1 -24 6 -55 12 -70 7 -20 7 -28 -3 -31 -34 -11 -122 -25 -156
-25 l-38 0 -11 58 c-6 31 -19 107 -28 167 -9 61 -18 116 -20 123 -4 13 -46 17
-57 5z m534 -172 l24 -20 -34 -35 c-37 -38 -116 -80 -136 -72 -16 6 -25 64
-14 93 18 49 116 70 160 34z"/>
<path d="M22133 20474 c-3 -9 1 -60 11 -113 9 -53 16 -101 16 -108 0 -6 -41
-35 -90 -63 -91 -52 -115 -76 -104 -104 12 -30 62 -19 124 29 32 25 63 45 68
45 9 0 22 -115 22 -202 0 -36 4 -50 16 -55 36 -14 45 24 43 171 -2 113 0 141
12 150 8 6 47 37 86 69 38 31 75 57 80 57 16 0 25 -150 18 -280 l-7 -118 25
-17 c39 -25 61 -12 117 75 28 44 57 80 64 80 12 0 58 -81 70 -126 9 -31 62
-78 80 -71 22 9 20 36 -9 103 -98 226 -136 250 -213 134 -24 -36 -48 -67 -53
-68 -6 -2 -7 64 -5 165 6 202 2 227 -40 231 -25 2 -42 -8 -100 -60 -90 -83
-124 -109 -135 -102 -5 3 -9 26 -9 52 -1 61 -15 123 -32 133 -21 14 -48 10
-55 -7z"/>
<path d="M7892 20438 c-18 -18 -15 -34 22 -154 19 -60 42 -138 52 -173 l17
-64 -24 -18 c-76 -57 -80 -62 -77 -88 4 -38 37 -39 73 -1 16 16 34 30 40 30
12 0 65 -232 65 -282 0 -57 29 -78 51 -37 14 27 6 96 -27 230 -13 55 -24 107
-24 114 0 22 47 42 176 74 134 34 255 54 266 43 4 -4 -27 -45 -69 -92 -115
-130 -137 -187 -88 -235 28 -29 77 -33 130 -11 34 15 117 115 138 169 6 15 14
27 18 27 3 0 10 -28 13 -62 4 -35 14 -94 23 -131 23 -106 94 -172 124 -116 9
17 7 25 -9 42 -47 50 -75 177 -77 352 -2 136 -2 140 -24 143 -33 5 -48 -13
-53 -63 -3 -24 -24 -83 -48 -130 -33 -66 -53 -94 -92 -125 -74 -58 -114 -52
-83 13 8 18 58 77 110 132 103 108 113 132 60 147 -68 20 -289 -14 -447 -69
-43 -14 -80 -24 -83 -21 -5 5 -56 200 -74 287 -6 30 -16 61 -23 68 -13 16 -40
17 -56 1z"/>
<path d="M23776 20434 c-9 -8 -16 -26 -16 -40 0 -39 21 -161 46 -273 14 -57
23 -106 20 -108 -2 -2 -31 1 -66 6 -71 12 -135 -6 -146 -41 -18 -59 33 -132
112 -158 48 -16 154 -8 219 18 48 19 76 44 63 58 -4 3 -57 -2 -119 -12 -110
-17 -113 -17 -148 2 -26 14 -37 27 -39 47 -3 26 -1 27 40 27 31 0 55 -8 88
-30 50 -33 63 -36 78 -17 8 10 7 27 -4 63 -27 89 -57 278 -58 367 -1 66 -5 90
-16 97 -22 14 -36 12 -54 -6z"/>
<path d="M27618 20419 c-30 -11 -46 -45 -30 -61 18 -18 157 -4 165 16 16 42
-68 69 -135 45z"/>
<path d="M30637 20405 c-9 -8 -18 -45 -22 -87 -4 -40 -14 -109 -22 -153 -8
-44 -17 -93 -19 -110 -14 -91 -47 -273 -54 -290 -4 -11 -19 -54 -33 -95 -13
-41 -28 -83 -32 -93 -7 -16 -4 -18 16 -15 19 2 30 18 56 83 49 122 80 230 102
353 18 101 65 323 77 364 5 17 -27 58 -45 58 -5 0 -16 -7 -24 -15z"/>
<path d="M2716 20284 c-11 -27 -5 -146 10 -224 8 -41 23 -129 34 -195 25 -146
32 -165 64 -165 31 0 41 28 55 160 13 124 25 170 51 202 15 18 22 21 37 12 10
-6 55 -86 101 -177 82 -166 112 -204 146 -191 24 9 20 42 -10 82 -15 19 -41
69 -59 111 -72 170 -131 261 -170 261 -55 0 -110 -73 -140 -185 -8 -32 -16
-59 -18 -61 -9 -9 -39 219 -37 284 2 42 2 83 1 90 -2 18 -58 15 -65 -4z"/>
<path d="M19282 20272 c-7 -5 -19 -30 -27 -56 -12 -41 -12 -58 0 -129 8 -46
21 -103 30 -127 28 -80 98 -219 113 -225 35 -13 33 16 -11 127 -55 137 -72
217 -63 295 13 110 13 118 -9 121 -11 1 -26 -2 -33 -6z"/>
<path d="M14447 20227 c-18 -18 -68 -75 -112 -126 -43 -51 -133 -138 -198
-193 -108 -91 -121 -99 -141 -88 -31 17 -106 110 -144 180 -38 67 -74 88 -98
55 -24 -32 26 -115 136 -224 l69 -68 -109 -87 c-121 -95 -150 -134 -124 -160
26 -26 50 -18 91 29 21 24 75 76 121 114 l83 70 92 -65 c100 -70 127 -78 127
-40 0 19 -16 35 -77 75 -43 28 -82 53 -88 55 -5 3 17 29 50 58 167 146 343
352 360 421 9 35 0 34 -38 -6z"/>
<path d="M26843 20236 c-115 -46 -234 -142 -249 -202 -4 -14 -4 -47 -1 -73 3
-29 1 -53 -5 -59 -17 -17 -2 -40 39 -61 155 -82 188 -90 361 -92 124 -1 199
12 209 38 7 18 -16 35 -37 27 -8 -3 -82 -5 -165 -5 -153 1 -229 15 -255 46
-10 12 -9 16 6 21 116 39 227 122 286 213 30 48 35 85 17 125 -14 30 -25 34
-92 41 -40 4 -66 0 -114 -19z m142 -57 c19 -58 -183 -230 -281 -241 -28 -3
-29 -1 -32 40 -4 57 22 98 95 149 105 72 204 96 218 52z"/>
<path d="M2382 20222 c-34 -22 -43 -202 -17 -377 8 -55 22 -152 30 -215 23
-167 21 -162 53 -158 26 3 27 5 24 58 -1 30 -12 108 -23 173 -35 209 -41 412
-14 478 3 10 -1 23 -10 33 -18 18 -25 19 -43 8z"/>
<path d="M19754 20202 c-108 -38 -218 -121 -232 -176 -12 -41 9 -111 42 -145
14 -15 26 -30 26 -34 0 -4 -17 -15 -37 -24 -29 -14 -38 -24 -38 -43 0 -35 41
-38 104 -6 47 24 56 26 154 20 90 -6 114 -4 176 15 67 21 71 23 71 52 0 38
-22 47 -67 25 -19 -9 -62 -19 -96 -23 l-62 -6 68 63 c89 82 101 106 92 186 -6
55 -11 67 -35 84 -40 29 -105 33 -166 12z m113 -68 c51 -51 10 -133 -106 -211
-35 -24 -69 -43 -77 -43 -8 0 -31 15 -52 34 -32 30 -37 40 -36 76 2 57 27 87
110 132 83 45 124 49 161 12z"/>
<path d="M29261 20207 c-11 -15 -6 -57 26 -205 8 -41 12 -77 7 -81 -5 -5 -40
-13 -77 -19 -81 -13 -120 -34 -115 -64 6 -39 30 -43 102 -20 94 31 96 31 96
-25 0 -27 -5 -65 -11 -87 -8 -27 -8 -41 0 -49 22 -22 42 18 52 99 6 44 15 84
22 90 7 6 70 23 140 37 134 28 217 58 217 78 0 15 -98 8 -252 -17 -59 -10
-110 -15 -114 -12 -3 4 -8 59 -11 123 -5 94 -10 121 -25 141 -22 27 -40 31
-57 11z"/>
<path d="M3628 20170 c-71 -22 -131 -95 -170 -208 -42 -123 -28 -337 39 -567
31 -107 64 -185 86 -203 20 -17 54 -7 59 16 5 26 -10 125 -38 247 -43 186 -43
170 10 184 34 8 61 26 100 64 63 61 96 137 103 238 5 57 2 75 -20 121 -38 84
-107 128 -169 108z m80 -92 c25 -21 42 -74 42 -131 0 -107 -110 -269 -172
-254 -21 6 -23 10 -20 67 3 50 1 61 -14 67 -50 19 -53 -77 -7 -285 14 -63 23
-116 20 -118 -2 -2 -16 37 -30 88 -36 127 -51 262 -39 341 19 120 74 227 126
247 23 8 70 -3 94 -22z"/>
<path d="M20835 20156 c-14 -21 -16 -48 -13 -167 3 -125 5 -142 22 -155 55
-39 92 -4 131 124 41 133 54 134 74 8 15 -94 40 -136 81 -136 31 0 32 1 111
99 67 83 67 83 140 18 45 -40 72 -57 92 -57 20 0 27 5 27 20 0 23 -114 148
-146 160 -45 17 -90 -7 -151 -80 -31 -39 -60 -70 -64 -70 -7 0 -24 66 -35 140
-8 57 -30 100 -50 100 -28 0 -73 -33 -88 -65 -8 -16 -24 -55 -35 -85 -34 -89
-41 -93 -41 -21 0 53 4 69 22 88 l23 24 -20 37 c-25 46 -57 53 -80 18z"/>
<path d="M28085 20161 c-11 -5 -33 -21 -48 -37 -26 -25 -28 -34 -24 -79 2 -27
8 -60 12 -72 6 -19 4 -23 -12 -23 -19 0 -43 -18 -43 -32 0 -16 66 -48 98 -48
19 0 62 -13 96 -29 35 -16 89 -34 121 -41 93 -19 220 4 213 39 -3 13 -22 16
-118 17 -111 1 -190 17 -197 40 -1 5 18 23 43 39 55 36 74 69 74 128 0 45 -18
70 -67 96 -25 13 -118 14 -148 2z m127 -68 c10 -9 18 -26 18 -37 0 -29 -51
-83 -86 -92 -48 -12 -82 54 -53 107 20 38 89 51 121 22z"/>
<path d="M21690 20133 c-37 -35 -90 -136 -90 -172 0 -43 22 -65 65 -65 39 0
51 10 101 78 l21 29 22 -46 c27 -56 39 -66 85 -74 50 -8 59 19 19 56 -20 18
-38 51 -53 97 -37 115 -107 155 -170 97z m29 -105 c-13 -17 -25 -26 -27 -20
-2 6 7 26 19 44 13 17 25 26 27 20 2 -6 -7 -26 -19 -44z"/>
<path d="M28837 20140 c-44 -35 -105 -136 -117 -197 -17 -79 0 -112 74 -146
43 -20 62 -24 89 -17 104 23 294 177 260 211 -4 4 -37 -12 -73 -38 -131 -92
-255 -130 -279 -84 -20 36 14 116 75 179 55 57 64 78 42 100 -18 18 -42 15
-71 -8z"/>
<path d="M12732 20133 c-47 -23 -95 -83 -153 -190 -28 -51 -54 -93 -58 -93 -3
0 -5 46 -3 101 5 108 1 119 -44 119 -40 0 -46 -21 -33 -112 6 -46 12 -166 13
-268 l2 -185 31 -3 c36 -4 59 25 49 61 -9 34 12 162 39 245 27 78 105 209 151
253 25 23 26 23 40 5 23 -32 69 -206 105 -396 10 -58 24 -132 30 -165 13 -65
32 -95 61 -95 30 0 32 26 10 123 -11 51 -30 148 -41 217 -11 69 -36 179 -55
245 -45 154 -68 176 -144 138z"/>
<path d="M27609 20138 c-1 -7 -1 -83 0 -168 3 -178 -13 -382 -34 -455 -31
-101 -85 -152 -133 -126 -32 17 -64 14 -60 -6 4 -24 66 -63 99 -63 62 0 121
82 152 210 40 163 65 571 37 605 -15 18 -59 20 -61 3z"/>
<path d="M7103 20111 c-73 -35 -127 -87 -166 -159 -35 -65 -31 -92 20 -124 35
-21 48 -23 168 -22 75 1 189 10 270 23 226 34 253 29 224 -42 -31 -76 -264
-277 -321 -277 -26 0 -41 -26 -28 -49 27 -52 140 4 284 140 116 110 175 212
155 267 -20 55 -125 65 -324 32 -66 -11 -174 -23 -240 -26 -110 -6 -122 -5
-144 13 l-24 20 32 46 c17 26 53 61 79 79 44 31 52 33 132 33 47 0 108 -4 136
-9 43 -7 52 -6 57 8 4 9 4 23 1 31 -9 22 -99 45 -178 45 -58 0 -83 -6 -133
-29z"/>
<path d="M24938 20120 c-85 -15 -177 -50 -198 -77 -61 -77 31 -150 133 -105
24 11 48 25 51 31 4 6 14 11 22 11 17 0 19 -70 4 -147 -5 -28 -11 -95 -14
-149 -8 -145 -36 -352 -54 -404 -10 -30 -37 -66 -79 -108 -35 -34 -63 -67 -63
-72 0 -24 53 1 97 47 20 20 31 21 240 25 120 1 776 1 1458 -2 1518 -6 3552 -6
4125 0 654 8 790 2 1022 -41 64 -12 123 -19 132 -16 18 7 22 52 6 62 -17 11
-227 44 -353 56 -143 13 -1072 13 -1277 0 -144 -9 -2420 -7 -3635 3 -862 8
-1010 7 -1380 -3 -154 -5 -283 -7 -288 -4 -4 2 4 23 17 46 45 79 76 235 113
579 33 304 38 287 -79 268z m-48 -91 c0 -8 -58 -39 -75 -39 -15 0 -1 21 23 34
32 18 52 20 52 5z"/>
<path d="M4344 20078 c-49 -78 -164 -217 -222 -268 -82 -73 -94 -69 -154 50
-26 52 -48 105 -48 118 0 58 -53 87 -66 37 -10 -39 2 -82 49 -180 55 -116 72
-140 107 -155 24 -10 35 -9 72 8 96 42 318 325 318 405 0 40 -26 33 -56 -15z"/>
<path d="M31552 20097 c-12 -12 -34 -54 -50 -92 -56 -133 -90 -202 -132 -268
-39 -63 -84 -107 -109 -107 -13 0 -29 58 -36 135 -11 118 -27 175 -55 206 -30
31 -37 34 -59 20 -12 -7 -11 -15 6 -42 11 -19 27 -70 36 -114 9 -44 24 -116
33 -159 18 -85 47 -126 87 -126 41 0 131 108 186 223 28 59 74 154 101 211 28
58 50 109 50 114 0 8 -22 22 -34 22 -1 0 -12 -10 -24 -23z"/>
<path d="M13327 20086 c-124 -51 -162 -104 -162 -228 0 -75 -1 -77 -25 -80
-19 -2 -25 -9 -25 -28 0 -19 9 -30 41 -45 23 -11 65 -46 94 -78 62 -68 131
-107 205 -114 76 -8 116 3 163 43 73 62 46 108 -33 56 -60 -40 -104 -47 -164
-27 -46 15 -131 81 -131 101 0 5 29 24 65 43 111 57 199 176 199 270 0 48 -3
56 -32 82 -27 24 -41 29 -85 29 -31 0 -75 -10 -110 -24z m122 -36 c26 -13 34
-64 16 -106 -33 -79 -187 -206 -216 -177 -16 16 -13 124 5 168 23 54 43 74
101 101 56 26 68 28 94 14z"/>
<path d="M24295 20086 c-39 -17 -57 -39 -49 -60 7 -18 36 -21 66 -5 33 18 32
2 -2 -41 -18 -23 -34 -57 -37 -79 -4 -32 -1 -41 18 -55 38 -26 73 -20 128 24
57 46 71 66 71 109 0 40 -51 97 -98 111 -47 13 -60 12 -97 -4z m123 -112 c-4
-19 -68 -72 -68 -56 0 14 49 72 62 72 5 0 8 -7 6 -16z"/>
<path d="M17674 20049 c-152 -97 -327 -303 -365 -429 -11 -35 -10 -42 7 -61
16 -18 27 -21 76 -16 82 7 167 56 232 132 28 33 55 62 60 63 6 2 15 -17 21
-42 16 -62 39 -92 80 -106 68 -22 89 14 34 59 -33 28 -48 77 -49 162 0 52 -18
83 -45 78 -10 -2 -38 -33 -63 -69 -80 -118 -163 -189 -239 -205 -47 -9 -54 -1
-38 45 34 97 199 279 299 331 76 39 90 36 182 -42 60 -51 92 -66 119 -55 25 9
18 54 -12 73 -16 10 -56 39 -91 66 -81 60 -131 64 -208 16z"/>
<path d="M31863 20049 c-137 -26 -205 -95 -237 -240 -4 -18 -14 -29 -31 -33
-32 -8 -33 -40 -1 -61 13 -9 27 -28 31 -43 22 -94 152 -242 257 -295 88 -45
194 -30 186 26 -3 20 -9 22 -73 22 -59 0 -78 5 -119 29 -89 52 -166 135 -166
179 0 9 15 17 38 21 72 12 111 27 172 67 46 31 67 54 86 91 77 151 7 266 -143
237z m97 -79 c38 -38 15 -118 -47 -167 -44 -35 -159 -83 -197 -83 -23 0 -26 4
-26 39 0 70 12 101 56 145 43 44 125 84 172 85 12 1 31 -8 42 -19z"/>
<path d="M30913 20024 c-4 -10 14 -35 55 -75 44 -43 65 -74 77 -110 24 -70 14
-96 -42 -121 -40 -17 -51 -19 -85 -9 -65 20 -72 74 -21 174 23 46 23 50 8 73
-8 13 -19 24 -24 24 -39 0 -61 -36 -81 -133 -14 -72 -1 -122 42 -164 51 -47
74 -56 134 -48 86 10 134 63 134 147 0 47 -38 139 -72 175 -11 12 -18 29 -15
37 10 24 -21 46 -64 46 -27 0 -42 -5 -46 -16z"/>
<path d="M18479 19975 c-117 -30 -247 -162 -283 -289 -35 -123 -53 -470 -27
-533 13 -31 39 -46 60 -34 13 8 31 98 31 156 0 23 9 70 19 103 11 33 17 70 14
81 -6 25 -35 28 -53 6 -7 -9 -14 -14 -16 -12 -8 8 18 177 36 232 28 85 108
178 187 219 40 20 102 21 131 0 70 -49 -41 -190 -159 -202 -90 -8 -90 -62 0
-62 118 0 261 121 261 220 0 40 -24 86 -53 102 -36 19 -102 25 -148 13z"/>
<path d="M19054 19949 c-65 -25 -179 -136 -222 -217 -58 -108 -80 -252 -46
-300 36 -52 125 -7 173 89 17 34 31 72 31 84 0 17 16 32 64 60 87 51 128 86
165 142 80 120 -13 201 -165 142z m115 -53 c10 -11 8 -23 -7 -53 -24 -46 -130
-149 -142 -137 -4 5 -4 33 1 63 5 32 5 61 -1 71 -23 44 116 96 149 56z m-231
-208 c-7 -13 -13 -41 -13 -64 -1 -46 -47 -134 -70 -134 -12 0 -15 14 -15 60 0
70 29 155 74 219 l31 43 3 -50 c2 -30 -3 -61 -10 -74z"/>
<path d="M20913 19413 c-22 -8 -15 -41 10 -45 20 -3 22 -7 19 -55 -4 -62 9
-69 38 -20 27 43 35 93 20 112 -12 14 -61 19 -87 8z"/>
<path d="M24425 19210 c-104 -4 -350 -10 -545 -14 -338 -6 -530 -14 -865 -36
-82 -6 -330 -17 -550 -25 -220 -8 -566 -24 -770 -35 -203 -12 -469 -25 -591
-30 -153 -6 -250 -15 -319 -29 -54 -12 -100 -21 -102 -21 -1 0 -3 13 -3 28 0
34 -16 52 -47 52 -20 0 -23 -5 -23 -35 0 -33 -2 -35 -32 -36 -18 0 -98 -2
-178 -4 -80 -2 -336 -6 -570 -9 -234 -3 -522 -8 -640 -12 -411 -11 -619 -14
-1275 -18 -363 -3 -705 -9 -760 -15 -55 -5 -244 -10 -420 -11 -431 -2 -796 -7
-935 -14 -330 -17 -484 -20 -785 -20 -334 0 -798 9 -1067 20 -133 6 -148 5
-148 -10 0 -9 -8 -16 -20 -16 -13 0 -18 5 -14 15 4 9 0 15 -10 15 -10 0 -13
-6 -10 -15 4 -10 0 -15 -14 -15 -11 0 -22 8 -25 20 -4 16 -14 20 -46 20 -30 0
-41 -4 -41 -15 0 -10 -10 -15 -32 -14 -26 0 -29 2 -13 8 15 6 11 9 -20 14 -61
10 -95 8 -93 -5 5 -20 -29 -20 -49 0 -28 29 -253 48 -261 22 -2 -6 -9 -4 -17
4 -14 14 -114 24 -305 31 -63 3 -187 8 -275 12 -88 4 -216 8 -285 9 -69 1
-159 4 -200 8 -41 3 -112 8 -156 10 -45 2 -86 6 -93 10 -13 8 -51 -2 -51 -13
0 -22 61 -34 173 -32 95 2 117 -1 117 -12 0 -11 24 -16 97 -21 87 -6 99 -5
111 11 14 19 52 19 87 0 33 -18 60 -21 290 -31 77 -3 191 -8 253 -11 75 -4
112 -3 112 5 0 15 56 12 69 -4 14 -17 128 -27 158 -13 15 7 27 6 36 -1 20 -17
249 -21 254 -4 3 6 9 12 14 12 5 0 8 -6 7 -12 -4 -16 72 -24 81 -10 4 7 20 5
45 -3 33 -12 129 -17 240 -13 16 0 66 -4 110 -10 105 -15 577 -33 831 -32 110
0 396 7 635 15 239 8 552 17 695 20 442 10 489 12 530 23 26 7 43 8 51 1 7 -6
61 -8 136 -5 195 8 554 15 1078 21 267 3 562 7 655 10 166 4 522 9 1465 21
256 3 473 8 483 10 10 3 27 -2 38 -12 19 -17 25 -16 163 9 78 15 178 27 222
27 43 0 140 5 214 10 239 17 1037 59 1320 70 259 10 377 16 735 41 83 5 364
14 625 19 742 15 868 20 892 40 12 9 18 22 14 28 -8 13 -72 13 -381 2z
m-11218 -256 c-3 -3 -12 -4 -19 -1 -8 3 -5 6 6 6 11 1 17 -2 13 -5z"/>
<path d="M6935 19153 c-82 -1 -269 -7 -415 -13 -146 -5 -330 -13 -410 -16 -80
-3 -174 -7 -210 -9 -36 -3 -189 -9 -340 -15 -460 -16 -667 -30 -1390 -90 -69
-6 -318 -17 -555 -25 -236 -8 -504 -19 -595 -25 -218 -12 -1075 -13 -1119 0
-58 16 -96 -26 -54 -61 21 -18 842 -25 1078 -10 88 6 291 16 450 21 695 25
788 31 1415 90 58 5 177 12 265 15 88 3 198 8 245 10 47 3 184 10 305 15 121
6 277 15 347 21 70 6 131 8 135 6 5 -3 105 1 223 8 290 18 383 20 900 20 487
0 1564 -14 1583 -20 15 -5 724 -18 827 -15 136 3 261 -2 300 -14 14 -4 54 -3
88 3 45 7 70 7 88 -1 18 -8 31 -8 50 0 19 9 30 9 47 0 15 -7 106 -12 277 -14
140 -2 328 -6 418 -9 105 -3 170 -2 182 5 14 8 26 7 41 -1 21 -11 143 -14 249
-6 78 6 164 17 169 23 14 13 -24 19 -132 21 -67 1 -160 4 -207 8 -47 3 -265 9
-485 12 -220 4 -449 8 -510 10 -60 1 -128 3 -150 3 -77 -1 -101 -1 -190 3 -49
2 -250 7 -445 11 -195 3 -443 9 -550 12 -236 6 -500 11 -1150 20 -272 4 -524
7 -560 8 -36 0 -132 0 -215 -1z"/>
<path d="M4579 18826 c-60 -21 -104 -53 -166 -119 -100 -108 -156 -205 -188
-326 -20 -79 -19 -108 7 -188 18 -54 33 -79 75 -121 70 -71 126 -95 233 -100
68 -3 95 0 138 16 125 48 296 185 370 297 70 106 77 211 18 288 -43 56 -88 85
-144 92 -87 11 -89 12 -96 50 -19 97 -137 151 -247 111z m124 -47 c23 -10 57
-57 57 -77 0 -6 -29 -14 -65 -17 -81 -9 -143 -39 -172 -84 -13 -19 -21 -36
-19 -39 3 -2 38 16 77 42 70 44 76 46 146 46 67 0 73 -2 59 -15 -15 -15 -15
-30 0 -102 5 -25 49 -42 66 -25 17 17 -1 110 -25 127 -26 18 -15 19 54 4 37
-8 64 -22 95 -51 79 -73 83 -157 13 -265 -74 -113 -227 -235 -348 -278 -62
-21 -163 -20 -209 4 -200 103 -187 407 28 622 63 64 152 119 192 119 15 0 38
-5 51 -11z"/>
<path d="M18805 18714 c-108 -56 -259 -245 -343 -429 -58 -128 -76 -197 -76
-295 -1 -72 3 -93 24 -134 33 -65 94 -132 165 -180 66 -46 132 -56 227 -37
135 28 324 158 458 315 96 111 114 152 137 308 7 49 -32 117 -90 160 -55 40
-160 88 -194 88 -15 0 -53 5 -84 12 -45 9 -69 9 -114 -1 -31 -7 -55 -15 -52
-17 2 -2 57 -8 122 -14 107 -8 126 -13 199 -48 48 -23 98 -57 124 -83 41 -42
53 -69 31 -69 -8 0 -9 -14 -5 -44 14 -90 -76 -237 -223 -362 -139 -120 -248
-172 -376 -181 -64 -4 -74 -2 -122 27 -56 32 -124 110 -154 175 -54 117 2 321
148 538 119 177 208 247 291 231 25 -5 33 -3 38 11 16 41 -72 60 -131 29z"/>
<path d="M28371 18709 c-65 -8 -227 -65 -269 -94 -45 -32 -16 -48 38 -20 47
24 35 5 -35 -59 -79 -70 -136 -145 -177 -232 -39 -84 -43 -187 -11 -249 95
-179 339 -220 623 -103 245 100 380 195 432 303 32 69 34 94 12 162 -37 114
-145 215 -278 260 -57 19 -223 46 -261 42 -5 -1 -39 -5 -74 -10z m166 -59
c108 -15 223 -54 275 -95 63 -49 111 -134 116 -204 3 -49 0 -61 -27 -102 -58
-87 -269 -209 -461 -266 -113 -33 -251 -37 -328 -8 -83 30 -128 75 -143 139
-15 68 -7 109 37 194 55 106 229 271 309 293 24 7 39 18 45 35 8 20 16 24 54
24 25 0 80 -5 123 -10z"/>
<path d="M24205 18665 c-94 -21 -222 -80 -331 -152 -132 -88 -232 -163 -238
-179 -7 -17 10 -54 24 -54 5 0 37 25 71 55 133 119 318 227 444 260 75 19 205
20 250 1 50 -21 85 -63 85 -100 -1 -40 -30 -105 -72 -157 -48 -61 -228 -213
-330 -279 -120 -80 -182 -102 -293 -107 -78 -4 -94 -1 -123 16 -53 34 -74 77
-67 137 5 40 2 55 -10 68 -20 20 -29 20 -49 1 -19 -20 -30 -75 -21 -113 10
-46 63 -121 107 -150 34 -22 54 -27 128 -30 165 -8 287 53 545 273 163 139
255 260 255 335 0 69 -72 155 -149 179 -50 14 -150 13 -226 -4z"/>
<path d="M21505 18660 c-16 -5 -50 -13 -75 -19 -191 -42 -433 -151 -517 -230
-48 -45 -11 -62 46 -21 62 46 228 139 285 161 130 50 237 71 366 71 192 1 332
-38 414 -115 47 -45 48 -89 5 -176 -58 -115 -329 -375 -464 -445 -68 -35 -175
-57 -220 -45 -74 21 -132 139 -123 253 6 74 26 115 84 178 46 49 56 84 27 95
-12 5 -33 -11 -74 -55 -48 -51 -62 -74 -80 -133 -28 -92 -22 -176 19 -263 53
-112 114 -151 223 -144 138 10 246 81 471 310 139 141 162 170 198 242 22 46
40 92 40 105 0 39 -26 86 -68 122 -95 81 -227 119 -406 118 -67 -1 -134 -5
-151 -9z"/>
<path d="M12950 18536 c-155 -35 -223 -73 -260 -147 -20 -38 -27 -113 -12
-123 16 -10 30 10 45 64 26 90 95 138 227 159 135 22 195 11 263 -49 52 -46
87 -124 87 -193 0 -68 -42 -142 -124 -222 -88 -85 -149 -118 -231 -123 -122
-7 -195 65 -195 193 0 84 14 125 60 178 59 66 115 91 190 82 49 -6 60 -4 60 7
0 29 -35 48 -87 48 -63 0 -158 -46 -204 -98 -73 -83 -104 -206 -76 -303 47
-158 206 -220 369 -142 88 42 222 172 263 256 25 52 27 65 23 141 -3 67 -9 92
-31 128 -35 60 -115 131 -165 146 -49 15 -130 14 -202 -2z"/>
<path d="M30855 18520 c-25 -40 -58 -257 -76 -500 -13 -176 -29 -229 -77 -254
-50 -26 -51 -66 -1 -66 39 0 93 56 112 117 9 26 20 93 26 148 5 55 20 193 32
306 12 113 19 218 15 232 -7 28 -20 35 -31 17z"/>
<path d="M9215 18503 c-47 -12 -73 -64 -39 -77 9 -3 28 1 43 10 26 15 34 15
104 0 136 -30 192 -95 168 -193 -38 -149 -236 -293 -403 -293 -94 0 -146 40
-133 103 11 53 84 155 152 213 86 72 119 89 149 75 44 -20 67 6 44 50 -8 14
-21 19 -53 19 -58 0 -122 -41 -215 -139 -136 -141 -181 -251 -131 -315 35 -45
92 -66 179 -66 215 1 449 174 489 361 10 44 8 57 -10 100 -32 73 -82 114 -165
132 -87 19 -153 26 -179 20z"/>
<path d="M7669 18440 c-78 -14 -149 -65 -149 -107 0 -11 -7 -13 -27 -9 -36 8
-87 -23 -109 -66 -22 -42 -30 -151 -15 -206 30 -108 166 -192 312 -192 159 0
348 121 422 270 41 83 17 200 -51 248 -73 52 -265 84 -383 62z m236 -67 c98
-29 153 -97 141 -172 -19 -120 -210 -266 -362 -279 -57 -4 -71 -1 -127 26 -34
17 -72 44 -85 61 -40 54 -51 166 -21 223 9 17 63 48 85 48 7 0 22 17 34 38 26
46 52 64 105 72 57 9 172 1 230 -17z"/>
<path d="M13850 18370 c-55 -7 -99 -24 -112 -43 -9 -15 2 -37 19 -37 9 0 -6
-23 -37 -57 -94 -103 -118 -199 -67 -266 44 -58 79 -72 177 -71 71 0 98 6 166
32 145 58 282 171 304 252 10 36 8 47 -10 86 -26 53 -57 76 -129 98 -57 17
-206 20 -311 6z m315 -90 c27 -14 57 -37 65 -52 13 -25 12 -29 -12 -64 -45
-62 -171 -149 -259 -178 -86 -28 -124 -32 -183 -15 -136 38 -106 173 64 289
75 50 73 50 180 47 78 -2 104 -7 145 -27z"/>
<path d="M9226 17557 c-52 -52 -58 -273 -15 -542 22 -139 35 -177 58 -173 19
4 19 11 3 204 -18 215 -16 370 7 443 17 54 17 63 4 76 -20 20 -30 19 -57 -8z"/>
<path d="M4576 17500 c-116 -49 -224 -153 -255 -247 -57 -171 -1 -349 130
-416 48 -24 66 -27 147 -27 187 0 380 82 495 210 75 83 93 150 58 225 -44 96
-172 155 -338 155 l-73 0 0 38 c0 73 -72 100 -164 62z m87 -47 c2 -5 2 -24 0
-44 -3 -25 -12 -40 -26 -47 -39 -18 -117 -93 -117 -113 0 -27 17 -24 51 11 69
69 116 94 184 98 74 5 202 -20 257 -50 115 -65 112 -181 -8 -286 -112 -97
-233 -149 -371 -159 -173 -13 -273 99 -261 293 8 122 76 225 188 285 35 18 95
25 103 12z"/>
<path d="M13006 17418 c-13 -18 -16 -54 -16 -183 0 -88 4 -187 10 -220 5 -36
6 -110 1 -185 -9 -140 -3 -173 32 -168 19 3 23 11 30 63 5 33 6 168 3 300 -3
144 -1 267 5 307 12 74 2 108 -31 108 -10 0 -26 -10 -34 -22z"/>
<path d="M7957 17390 c-62 -18 -70 -19 -90 -5 -24 17 -79 20 -107 5 -27 -15
-164 -198 -205 -275 -25 -48 -35 -79 -35 -111 0 -103 98 -205 213 -220 108
-15 270 55 390 168 98 92 147 173 147 240 0 161 -139 249 -313 198z m170 -61
c43 -27 73 -74 73 -115 0 -82 -121 -238 -237 -306 -65 -38 -144 -68 -181 -68
-117 0 -210 114 -182 223 13 50 103 187 159 242 31 30 44 36 53 27 9 -9 7 -19
-7 -45 -11 -21 -15 -42 -11 -53 6 -16 14 -11 54 34 80 90 192 114 279 61z"/>
<path d="M27530 17379 c-212 -58 -358 -193 -390 -359 -36 -189 38 -296 280
-409 91 -42 167 -60 300 -70 164 -13 339 8 423 51 52 26 114 84 141 132 48 84
62 215 32 303 -46 136 -233 262 -374 251 -66 -6 -83 -20 -56 -49 52 -57 252
-113 220 -61 -3 6 -31 18 -61 27 -59 19 -76 41 -22 30 86 -19 173 -89 214
-173 50 -102 31 -254 -41 -338 -105 -123 -430 -162 -676 -82 -170 55 -310 160
-326 246 -36 189 150 402 384 442 73 12 85 9 144 -32 14 -10 21 -10 33 3 22
21 12 39 -39 72 -46 29 -115 35 -186 16z"/>
<path d="M13755 17161 c-16 -10 -48 -35 -69 -55 l-39 -36 20 -23 c16 -18 18
-30 12 -67 -28 -180 143 -405 284 -374 79 17 183 91 236 167 16 23 40 76 55
117 44 122 20 207 -74 260 -39 22 -57 25 -140 25 -52 0 -124 -2 -160 -5 -36
-2 -72 -1 -80 3 -9 4 -28 -1 -45 -12z m339 -51 c132 -30 139 -198 15 -334 -54
-59 -135 -106 -183 -106 -116 0 -210 217 -163 374 14 45 28 51 137 65 91 12
149 12 194 1z"/>
<path d="M23997 17090 c-92 -16 -123 -58 -70 -100 33 -26 48 -21 48 15 0 36
32 49 105 40 137 -17 227 -110 251 -257 20 -123 -26 -189 -177 -252 -230 -96
-421 -108 -589 -36 -48 21 -112 80 -126 117 -34 89 42 207 192 295 76 45 120
55 167 38 59 -21 75 31 17 59 -68 34 -160 4 -290 -94 -116 -87 -165 -158 -165
-240 0 -155 188 -275 432 -275 121 0 186 12 333 61 138 47 190 74 233 124 40
44 47 71 47 165 0 135 -76 253 -200 310 -68 32 -138 41 -208 30z"/>
<path d="M30425 17082 c-116 -40 -201 -112 -261 -219 -38 -68 -38 -68 -38
-183 0 -138 15 -184 99 -295 94 -125 194 -184 328 -193 77 -5 136 8 218 49
108 54 146 102 174 221 30 130 15 264 -45 384 -22 44 -40 88 -40 98 0 33 -28
83 -60 106 -68 48 -276 66 -375 32z m136 -68 c-15 -20 -18 -31 -11 -45 17 -30
30 -32 61 -10 15 11 40 21 55 21 67 0 155 -78 202 -180 24 -50 26 -67 27 -190
0 -127 -2 -138 -27 -190 -23 -46 -38 -62 -95 -97 -84 -51 -144 -67 -231 -61
-133 10 -253 101 -325 248 -28 57 -32 74 -31 145 1 139 48 232 151 302 75 50
154 82 206 82 l38 1 -20 -26z m209 -9 c32 -16 38 -25 18 -25 -14 0 -68 39 -55
40 4 0 21 -7 37 -15z"/>
<path d="M21240 16982 c-114 -45 -243 -201 -271 -329 -43 -189 183 -343 505
-343 160 0 428 50 518 96 48 25 78 75 78 130 0 156 -234 313 -475 318 -67 1
-92 -11 -82 -38 5 -12 21 -16 65 -16 125 0 243 -43 335 -121 68 -58 95 -136
67 -190 -22 -40 -163 -91 -320 -114 -300 -46 -546 24 -612 172 -22 49 -18 91
15 163 53 115 131 188 233 219 64 19 85 40 65 65 -18 21 -44 19 -121 -12z"/>
<path d="M18750 16947 c-90 -27 -154 -61 -248 -132 -39 -29 -99 -68 -132 -86
-62 -33 -154 -123 -171 -166 -25 -67 3 -147 72 -207 136 -116 430 -87 742 71
162 83 234 164 245 276 6 59 -19 130 -62 175 -82 88 -280 118 -446 69z m321
-60 c62 -30 94 -67 110 -129 20 -73 6 -115 -61 -180 -44 -43 -86 -70 -172
-112 -171 -82 -261 -108 -398 -113 -138 -6 -187 5 -235 52 -64 65 -63 139 2
208 32 32 37 33 70 7 46 -36 102 -16 58 20 -21 17 -19 43 5 65 16 15 30 17 88
11 58 -6 70 -4 75 9 10 24 -2 42 -35 56 -29 12 -30 13 -12 27 11 8 48 28 84
45 150 72 317 85 421 34z"/>
<path d="M14215 16211 c-11 -5 -29 -18 -39 -30 -12 -13 -31 -21 -51 -21 -18 0
-43 -9 -56 -19 -20 -16 -22 -23 -13 -38 10 -15 3 -27 -40 -73 -132 -144 -153
-311 -56 -463 16 -25 48 -59 71 -74 39 -26 50 -28 138 -28 93 0 99 1 170 40
161 85 238 193 248 344 7 102 -12 162 -70 219 -36 35 -54 44 -127 62 -47 11
-103 20 -125 20 l-40 0 25 19 c20 16 22 21 11 35 -15 18 -18 18 -46 7z m99
-121 c148 -22 220 -117 197 -261 -15 -89 -39 -135 -102 -193 -82 -77 -157
-111 -239 -111 -89 0 -126 22 -165 100 -24 48 -31 76 -34 137 -3 69 0 84 27
141 18 40 55 91 98 137 67 71 69 72 109 66 22 -3 71 -10 109 -16z"/>
<path d="M12961 16124 c-79 -40 -173 -140 -218 -232 -33 -68 -37 -86 -37 -152
-1 -102 24 -170 83 -230 138 -142 396 -114 573 60 80 80 94 116 90 246 -2 65
-9 112 -27 163 -49 144 -86 168 -230 151 -80 -10 -98 -9 -124 4 -40 21 -48 20
-110 -10z m68 -38 c-5 -5 -158 -107 -179 -120 -28 -16 75 86 105 105 25 16 87
28 74 15z m258 -12 c44 -21 61 -49 84 -132 23 -82 25 -199 4 -250 -44 -105
-222 -212 -352 -212 -193 0 -304 163 -244 358 11 38 29 78 38 89 10 10 14 13
10 7 -15 -22 -4 -59 17 -59 14 0 22 10 28 32 14 53 131 131 229 153 24 5 60
13 79 18 52 14 68 14 107 -4z"/>
<path d="M4978 16110 c-37 -5 -84 -14 -103 -20 -21 -7 -52 -9 -76 -5 -34 6
-46 3 -79 -20 -85 -59 -121 -159 -92 -259 31 -109 136 -216 254 -261 73 -27
215 -18 288 19 55 28 144 98 187 146 58 64 77 156 51 242 -15 51 -93 121 -156
142 -60 20 -187 27 -274 16z m250 -65 c52 -21 109 -86 118 -134 15 -80 -33
-169 -130 -241 -157 -115 -301 -114 -424 4 -68 65 -113 170 -98 229 9 39 69
95 129 123 99 45 315 55 405 19z"/>
<path d="M9340 16088 c-99 -17 -230 -109 -230 -161 0 -9 -15 -48 -34 -85 -58
-114 -88 -218 -93 -312 -3 -75 -1 -90 19 -125 44 -76 115 -85 224 -31 121 61
248 196 311 332 24 51 28 72 28 154 0 87 -2 98 -28 136 -53 78 -114 107 -197
92z m90 -76 c38 -27 70 -98 70 -154 0 -104 -53 -201 -180 -330 -110 -112 -195
-144 -244 -95 -33 33 -40 89 -22 174 18 86 52 173 97 250 39 65 141 170 172
176 34 8 80 -2 107 -21z"/>
<path d="M23515 16047 c-77 -23 -205 -72 -205 -79 0 -10 48 -1 162 33 94 27
138 45 138 54 0 8 -53 3 -95 -8z"/>
<path d="M18684 16001 c-76 -35 -62 -65 18 -38 23 8 69 15 101 15 64 0 72 4
64 27 -9 23 -130 20 -183 -4z"/>
<path d="M21405 15995 c-37 -11 -31 -12 96 -17 132 -4 138 -5 211 -41 101 -50
173 -116 209 -192 56 -118 32 -210 -82 -322 -156 -153 -303 -221 -451 -211
-113 9 -171 60 -184 164 -9 73 0 137 25 198 26 59 107 163 158 202 34 26 45
29 105 27 45 -1 70 3 77 11 34 41 -97 54 -169 16 -111 -57 -229 -223 -249
-352 -14 -84 8 -206 46 -257 82 -108 321 -97 503 24 88 58 230 184 262 233 66
100 72 195 19 299 -74 145 -247 234 -451 232 -47 -1 -103 -7 -125 -14z"/>
<path d="M24086 15991 c-16 -6 -14 -10 18 -29 20 -12 42 -22 47 -22 6 0 44
-33 84 -74 90 -91 118 -154 117 -263 -1 -97 -31 -155 -136 -258 -88 -86 -148
-126 -278 -183 -71 -31 -94 -36 -158 -36 -145 0 -208 62 -245 238 -32 158 21
325 143 450 105 108 136 120 270 101 45 -7 52 -5 52 9 0 25 -60 46 -128 46
-75 0 -146 -35 -217 -106 -162 -162 -221 -361 -165 -563 44 -158 100 -219 225
-242 181 -33 546 183 659 391 39 71 49 147 31 233 -15 74 -44 147 -57 147 -5
0 -32 22 -61 50 -53 50 -140 104 -151 92 -4 -3 -12 2 -19 10 -8 10 -19 13 -31
9z"/>
<path d="M7872 15978 c-17 -21 -31 -97 -32 -169 0 -118 54 -332 90 -354 24
-15 28 11 15 82 -23 122 -35 283 -23 333 5 25 11 61 11 80 2 31 -1 35 -24 38
-14 2 -31 -3 -37 -10z"/>
<path d="M21225 15970 c-52 -11 -130 -30 -285 -73 -69 -19 -140 -39 -159 -44
-45 -12 -53 -33 -13 -33 28 0 225 56 353 101 31 10 65 19 77 19 11 0 24 5 27
10 3 6 19 10 35 10 16 0 32 5 35 10 7 11 -11 11 -70 0z"/>
<path d="M18549 15908 c-63 -66 -117 -155 -140 -227 -39 -127 -35 -285 9 -370
27 -51 114 -95 185 -93 115 3 263 72 364 169 79 76 138 192 137 267 -1 55 -29
130 -60 159 -58 53 -136 107 -156 107 -13 0 -51 6 -86 14 -35 7 -65 9 -67 5
-6 -8 19 -19 46 -19 70 0 226 -120 255 -195 63 -166 -139 -397 -379 -435 -157
-25 -226 39 -227 209 0 148 47 273 140 369 28 30 49 59 47 65 -8 24 -28 16
-68 -25z"/>
<path d="M18265 15905 c-39 -7 -88 -21 -110 -33 -50 -25 -135 -99 -135 -117 0
-32 24 -23 78 27 61 55 172 109 262 127 42 8 43 9 10 9 -19 0 -67 -6 -105 -13z"/>
<path d="M30427 15849 c-81 -12 -133 -27 -146 -43 -18 -22 14 -24 99 -8 119
22 294 21 355 -2 28 -11 57 -25 66 -33 8 -7 21 -13 28 -13 22 0 166 -154 190
-203 30 -62 51 -141 51 -193 0 -146 -115 -281 -307 -357 -73 -29 -87 -31 -208
-31 -113 0 -138 2 -188 23 -127 50 -186 124 -195 242 -4 63 -2 75 27 133 37
76 134 172 232 229 82 48 189 81 232 72 92 -19 124 -2 65 35 -28 18 -45 21
-106 17 -64 -4 -87 -11 -175 -55 -206 -104 -335 -256 -345 -407 -8 -126 69
-243 200 -304 86 -40 168 -54 285 -49 81 4 113 10 183 38 170 67 288 159 342
270 19 37 23 62 23 136 0 87 -2 94 -43 178 -82 164 -223 283 -383 321 -69 16
-189 18 -282 4z"/>
<path d="M27633 15792 c-25 -16 -73 -339 -73 -494 0 -125 -16 -236 -42 -295
-19 -44 -20 -47 -3 -59 60 -44 115 107 115 318 1 148 15 290 41 411 17 77 18
101 9 112 -14 17 -29 19 -47 7z"/>
<path d="M4836 15059 c-27 -22 -78 -95 -117 -171 -18 -33 -23 -60 -23 -118 -1
-68 3 -81 36 -140 43 -78 68 -102 130 -130 156 -69 414 1 581 159 94 88 95
169 5 273 -71 82 -309 132 -441 94 -96 -28 -241 -156 -211 -186 12 -12 23 -3
56 42 16 20 54 51 85 70 56 32 61 33 168 32 117 0 183 -17 256 -67 42 -28 79
-92 79 -137 0 -29 -9 -43 -55 -87 -97 -91 -219 -148 -344 -159 -86 -8 -142 8
-193 54 -104 94 -112 241 -21 372 31 45 45 56 78 62 21 5 42 14 47 20 23 39
-71 52 -116 17z"/>
<path d="M7895 15035 c-33 -32 -32 -66 4 -275 31 -181 43 -220 66 -220 24 0
29 47 16 174 -23 222 -24 254 -11 287 12 28 12 33 -5 45 -27 20 -43 17 -70
-11z"/>
<path d="M21606 14921 c-23 -25 -32 -70 -46 -219 -12 -131 -4 -285 26 -504 8
-62 14 -156 12 -208 l-3 -95 25 0 c39 0 46 49 32 213 -27 303 -33 480 -23 594
6 62 11 123 11 135 0 12 11 34 24 48 14 15 22 33 19 41 -8 20 -57 17 -77 -5z"/>
<path d="M9267 14849 c-11 -6 -32 -39 -48 -72 l-30 -62 6 -210 c9 -306 41
-477 83 -451 14 9 15 78 3 161 -5 33 -12 155 -16 270 l-7 210 38 54 c34 51 36
57 23 80 -17 29 -28 34 -52 20z"/>
<path d="M18551 14798 c-31 -15 -54 -38 -82 -81 -82 -127 -106 -292 -62 -432
25 -79 96 -194 151 -243 49 -44 135 -87 200 -101 75 -16 237 -14 305 4 172 45
400 223 470 369 26 53 29 67 25 146 -3 76 -7 93 -33 135 -16 26 -47 62 -68 79
-37 30 -43 31 -130 31 -85 -1 -97 -3 -167 -37 -136 -67 -240 -160 -240 -215 0
-29 38 -71 72 -79 40 -9 46 17 13 60 -26 34 -27 37 -11 61 41 62 193 144 283
152 79 7 125 -9 167 -58 41 -48 62 -134 47 -198 -19 -88 -90 -179 -205 -264
-151 -112 -246 -142 -416 -134 -134 7 -206 32 -275 98 -126 119 -178 321 -126
489 37 119 92 180 164 180 41 0 59 27 31 47 -26 19 -63 16 -113 -9z"/>
<path d="M13195 14756 c-110 -52 -266 -192 -331 -298 -19 -31 -43 -82 -54
-114 -25 -72 -27 -195 -4 -250 23 -56 80 -112 149 -145 55 -26 70 -29 167 -29
233 0 429 79 604 243 159 148 159 336 2 482 -92 86 -189 121 -306 113 -43 -3
-78 0 -97 8 -44 19 -74 17 -130 -10z m340 -73 c62 -20 91 -37 131 -74 74 -71
108 -138 108 -219 1 -80 -27 -134 -106 -205 -117 -105 -280 -176 -449 -195
-151 -17 -241 5 -311 75 -49 50 -62 91 -55 185 6 92 53 198 121 275 42 47 45
49 58 31 20 -26 50 -17 59 18 16 58 91 106 189 121 45 6 46 6 63 -30 23 -48
51 -45 55 8 3 33 6 37 30 37 15 0 63 -12 107 -27z"/>
<path d="M14455 14773 c-59 -5 -175 -32 -212 -50 -56 -26 -68 -57 -62 -158 1
-11 -10 -47 -25 -80 -55 -128 -20 -319 76 -414 53 -53 106 -72 201 -72 109 0
241 47 362 131 162 112 211 260 137 412 -20 41 -49 81 -75 103 -64 55 -186
112 -254 120 -32 3 -69 7 -83 8 -14 2 -43 1 -65 0z m180 -71 c123 -39 214
-123 250 -233 23 -69 15 -119 -31 -186 -85 -123 -316 -236 -447 -219 -138 19
-207 113 -208 281 -1 113 29 184 123 291 29 33 30 35 13 54 -14 16 -15 20 -4
24 8 2 21 7 29 10 30 12 216 -3 275 -22z m-385 -52 c-6 -12 -14 -19 -17 -17
-2 3 1 15 7 27 6 12 14 19 17 17 2 -3 -1 -15 -7 -27z"/>
<path d="M23498 14672 c-151 -160 -212 -245 -240 -335 -33 -107 -20 -211 42
-342 48 -99 109 -170 202 -231 85 -57 144 -74 253 -74 193 0 435 116 510 244
54 93 66 176 40 278 -53 202 -175 330 -357 373 -117 27 -248 13 -264 -29 -8
-21 14 -56 35 -56 10 0 23 12 30 26 12 26 12 26 104 22 120 -5 204 -43 270
-121 113 -133 156 -311 104 -430 -64 -143 -281 -244 -504 -235 -89 4 -110 9
-167 37 -150 74 -255 267 -244 448 4 58 13 88 41 146 39 79 150 208 223 258
44 30 54 55 32 77 -23 23 -46 11 -110 -56z"/>
<path d="M27352 14591 c-46 -16 -109 -47 -139 -68 -31 -21 -72 -49 -91 -61
-49 -34 -112 -99 -150 -157 -80 -121 -82 -256 -5 -408 121 -242 436 -307 838
-172 200 67 294 154 328 301 49 207 -97 400 -363 478 -137 41 -380 6 -380 -53
0 -22 47 -64 64 -58 6 2 10 20 8 40 l-3 35 69 12 c86 16 184 -2 294 -53 164
-75 249 -181 256 -318 11 -189 -96 -279 -433 -366 -94 -24 -285 -24 -375 0
-112 31 -161 58 -207 119 -80 103 -105 239 -63 351 40 107 169 235 304 301 89
43 136 51 205 32 77 -20 120 -1 93 42 -11 17 -68 32 -122 32 -25 0 -83 -13
-128 -29z"/>
<path d="M30425 14534 c-160 -23 -244 -49 -246 -76 0 -7 -22 -30 -48 -50 -178
-135 -188 -423 -22 -631 72 -91 148 -148 276 -207 124 -58 149 -63 275 -63
292 1 498 99 586 278 24 49 30 76 32 146 4 77 1 94 -27 163 -66 166 -159 267
-339 369 -17 9 -66 29 -109 43 -65 22 -100 27 -213 29 -74 2 -148 1 -165 -1z
m235 -41 c25 -4 52 -8 61 -8 22 -3 122 -36 134 -45 6 -4 36 -21 68 -38 61 -30
192 -151 227 -207 32 -52 67 -156 75 -221 12 -105 -24 -193 -114 -277 -63 -59
-113 -84 -228 -113 -104 -26 -275 -34 -354 -15 -122 28 -278 124 -359 222 -64
77 -98 153 -110 244 -22 177 47 313 197 382 86 39 121 41 191 8 56 -26 92 -22
92 10 0 15 -38 55 -52 55 -4 0 -8 4 -8 8 0 9 107 6 180 -5z"/>
<path d="M21148 13596 c-117 -42 -269 -201 -314 -328 -19 -54 -18 -136 2 -184
42 -100 132 -198 217 -237 62 -28 187 -57 246 -57 148 0 348 47 476 112 64 33
139 103 170 160 22 41 29 69 33 128 3 67 1 81 -25 130 -33 64 -87 108 -170
141 -85 32 -257 31 -365 -4 -98 -31 -168 -72 -168 -97 0 -22 28 -40 61 -40 17
0 20 4 16 25 -4 22 2 29 34 46 94 47 263 61 369 30 60 -18 133 -73 158 -119
33 -59 35 -150 4 -208 -45 -86 -160 -160 -328 -209 -169 -50 -408 -30 -523 45
-86 55 -151 166 -151 256 0 108 118 276 230 328 42 19 62 23 109 19 62 -6 88
9 76 45 -10 34 -89 42 -157 18z"/>
<path d="M14708 13579 c-13 -7 -18 -23 -18 -52 0 -23 -9 -85 -21 -137 -11 -52
-40 -194 -65 -315 -25 -121 -58 -258 -74 -304 -16 -47 -27 -88 -24 -93 3 -4
14 -8 24 -8 36 0 89 142 130 345 12 61 40 182 61 270 50 203 58 265 35 288
-20 20 -25 20 -48 6z"/>
<path d="M18865 13505 c-27 -8 -68 -14 -90 -15 -48 0 -178 -55 -255 -107 -80
-55 -174 -156 -210 -229 -29 -56 -32 -70 -28 -127 7 -121 83 -211 226 -269 50
-20 73 -23 192 -22 154 0 189 10 364 94 129 62 203 127 248 217 29 59 33 77
32 143 -1 150 -47 233 -162 292 -70 36 -77 38 -170 37 -53 0 -119 -7 -147 -14z
m266 -61 c92 -46 140 -134 141 -255 0 -66 -4 -84 -28 -129 -37 -68 -93 -115
-197 -167 -125 -63 -198 -84 -312 -90 -122 -7 -194 7 -266 50 -146 88 -157
242 -27 383 44 48 140 124 156 124 5 0 17 -9 27 -20 26 -29 60 -22 60 12 1 36
16 51 75 72 67 24 166 17 209 -14 36 -28 75 -23 79 8 2 13 -4 32 -14 43 -17
19 -16 19 17 13 19 -4 55 -17 80 -30z"/>
<path d="M13324 13385 c-145 -72 -207 -145 -255 -300 -47 -152 12 -283 163
-362 46 -24 64 -28 143 -28 78 0 98 4 152 29 66 30 146 105 179 167 38 71 15
193 -51 271 -67 79 -179 144 -267 155 -27 3 -48 9 -48 13 0 12 81 30 120 27
41 -2 52 23 24 54 -26 29 -62 23 -160 -26z m121 -145 c69 -33 178 -143 193
-196 26 -89 12 -134 -63 -203 -64 -59 -105 -75 -200 -75 -92 -1 -136 17 -197
81 -64 66 -74 133 -37 255 18 62 60 126 104 161 21 16 149 1 200 -23z"/>
<path d="M9424 13409 c-178 -21 -454 -164 -454 -235 0 -34 16 -30 66 16 49 45
153 99 262 136 95 31 214 34 271 4 61 -31 81 -63 81 -131 0 -48 -7 -71 -40
-135 -92 -177 -251 -341 -393 -404 -55 -25 -95 -18 -132 20 -25 26 -27 34 -23
84 3 33 17 79 36 118 26 53 39 68 84 94 57 32 66 49 44 79 -13 19 -16 19 -48
4 -84 -40 -140 -124 -183 -271 -35 -121 28 -208 152 -208 207 0 584 417 583
645 0 37 -30 104 -56 127 -29 25 -103 55 -149 60 -22 2 -67 1 -101 -3z"/>
<path d="M5153 13355 c-15 -11 -22 -29 -26 -72 -3 -32 -13 -107 -22 -168 -15
-94 -16 -148 -10 -371 4 -144 11 -267 16 -275 14 -23 22 -2 25 73 2 40 9 170
14 288 8 167 17 248 40 364 22 111 27 153 19 163 -15 17 -30 16 -56 -2z"/>
<path d="M30103 13353 c-13 -2 -23 -9 -23 -14 0 -5 46 -9 103 -9 90 0 146 -5
265 -26 46 -7 32 12 -15 22 -44 9 -56 10 -143 18 -138 12 -166 14 -187 9z"/>
<path d="M23488 13334 c-5 -4 -56 -8 -116 -8 -103 -1 -110 -2 -157 -33 -119
-76 -191 -181 -189 -274 2 -96 79 -205 183 -258 130 -67 353 -67 566 -1 167
52 250 130 262 245 5 44 1 62 -26 118 -40 83 -104 138 -209 180 -67 27 -93 31
-192 35 -63 2 -118 0 -122 -4z m248 -65 c157 -59 246 -167 231 -281 -9 -70
-66 -114 -221 -172 -79 -30 -117 -38 -196 -43 -273 -17 -450 82 -450 249 0 66
25 120 79 176 45 46 75 58 42 16 -12 -15 -21 -34 -21 -43 0 -28 30 -61 56 -61
28 0 30 11 8 46 -16 24 -16 26 7 50 33 36 76 51 127 46 37 -4 44 -1 49 16 4
15 15 22 42 25 72 9 188 -2 247 -24z"/>
<path d="M26932 13314 c-68 -24 -166 -81 -214 -123 -130 -115 -135 -274 -12
-409 64 -71 137 -111 259 -142 249 -64 456 -70 681 -20 127 29 186 71 234 164
31 62 35 76 34 145 -1 61 -7 87 -27 127 -102 201 -437 281 -627 151 -77 -53
-104 -97 -77 -125 13 -13 19 -13 31 -2 9 7 16 20 16 30 0 26 51 65 115 89 63
24 181 28 265 10 99 -21 207 -119 235 -214 17 -54 2 -156 -29 -210 -52 -89
-193 -135 -431 -142 -174 -6 -252 5 -410 54 -104 33 -147 55 -202 106 -90 83
-113 189 -60 280 59 99 205 189 309 189 33 0 61 -8 93 -26 56 -33 90 -32 90 4
0 60 -173 101 -273 64z"/>
<path d="M8265 13301 c-122 -37 -222 -87 -280 -141 -16 -15 -43 -30 -58 -34
-72 -17 -152 -104 -176 -191 -37 -132 18 -272 137 -350 41 -27 55 -30 122 -30
142 0 283 76 397 214 157 191 185 443 58 521 -46 29 -128 33 -200 11z m125
-45 c19 -7 45 -28 59 -47 21 -31 23 -42 18 -125 -4 -81 -8 -98 -43 -165 -51
-99 -184 -234 -269 -274 -159 -74 -285 -27 -329 124 -9 30 -16 71 -16 91 0 56
27 133 55 160 l25 24 -11 -32 c-20 -57 -4 -55 41 4 102 134 197 202 334 239
63 17 91 17 136 1z"/>
<path d="M30530 13285 c7 -8 11 -15 9 -15 -61 -1 -182 -25 -230 -45 -84 -35
-218 -125 -269 -182 -122 -132 -111 -280 31 -428 125 -131 262 -185 463 -185
226 0 377 74 456 222 29 53 35 76 38 145 5 101 -9 148 -74 238 -78 111 -200
197 -343 244 -79 26 -99 27 -81 6z m161 -71 c58 -29 203 -169 232 -222 38 -70
59 -173 46 -230 -41 -183 -193 -282 -433 -282 -170 0 -306 50 -404 149 -112
114 -144 216 -96 308 75 143 306 273 487 273 44 0 53 -4 89 -40 65 -65 116
-45 63 25 -30 39 -28 42 16 19z"/>
<path d="M9295 12236 c-13 -13 -34 -43 -47 -67 -22 -42 -23 -52 -21 -234 3
-195 15 -341 33 -407 8 -28 16 -38 31 -38 11 0 22 6 25 14 3 8 -2 128 -11 267
-18 282 -15 322 36 385 33 41 36 65 13 88 -21 21 -31 20 -59 -8z"/>
<path d="M5233 12128 c-6 -7 -16 -91 -23 -186 -12 -154 -12 -193 4 -350 9 -97
21 -181 26 -186 24 -24 29 14 29 222 0 138 5 262 15 342 22 171 22 170 -13
170 -16 0 -33 -6 -38 -12z"/>
<path d="M13525 12023 c-72 -105 -108 -325 -103 -621 3 -210 10 -252 43 -252
25 0 32 29 22 88 -16 100 9 483 40 612 9 36 29 91 44 122 36 71 37 88 4 88
-17 0 -32 -11 -50 -37z"/>
<path d="M14284 12048 c-4 -7 -9 -82 -10 -168 -1 -85 -9 -216 -18 -290 -10
-74 -24 -200 -32 -280 -8 -80 -15 -156 -17 -169 -3 -32 24 -48 56 -34 22 11
24 18 31 120 4 59 16 198 27 308 11 110 21 272 22 360 l2 160 -27 3 c-14 2
-30 -3 -34 -10z"/>
<path d="M18609 12041 c-158 -50 -362 -263 -440 -456 -58 -146 -40 -316 45
-412 51 -59 89 -74 200 -80 120 -7 197 12 351 87 248 121 466 292 517 406 28
62 29 145 4 194 -59 111 -145 165 -295 184 -74 9 -89 14 -108 37 -25 30 -116
59 -179 58 -21 0 -64 -8 -95 -18z m167 -56 c20 -8 34 -20 32 -26 -2 -7 -29
-20 -60 -30 -78 -24 -165 -67 -171 -84 -11 -26 20 -38 80 -31 31 4 59 9 62 12
3 3 -1 14 -8 25 -7 12 -11 22 -9 23 22 17 109 38 174 43 115 8 204 -20 280
-89 79 -73 92 -134 49 -226 -49 -106 -191 -221 -425 -345 -150 -79 -225 -101
-335 -102 -156 0 -211 45 -237 193 -21 122 13 234 115 384 141 208 321 309
453 253z"/>
<path d="M8299 11987 c-36 -12 -91 -38 -123 -57 -92 -56 -200 -180 -157 -180
5 0 36 27 67 61 112 117 300 181 382 130 87 -55 64 -195 -64 -393 -144 -224
-421 -378 -523 -292 -67 56 -63 141 12 309 61 138 167 324 187 330 22 7 32 29
23 51 -4 12 -14 15 -41 10 -44 -7 -68 -29 -83 -75 -6 -20 -31 -74 -54 -121
-63 -127 -132 -290 -146 -343 -17 -70 -7 -139 26 -183 76 -99 236 -82 422 44
154 105 321 337 355 495 22 102 -12 205 -76 227 -48 16 -137 11 -207 -13z"/>
<path d="M21410 11941 c-59 -12 -190 -58 -315 -113 -79 -34 -101 -48 -103 -66
-4 -28 10 -28 90 -1 35 12 72 31 83 44 37 43 217 95 330 95 263 0 493 -169
420 -310 -44 -85 -228 -218 -445 -322 -96 -45 -133 -57 -228 -72 -259 -41
-446 80 -492 320 -22 111 22 273 80 301 14 6 44 17 68 23 30 8 42 16 42 29 0
32 -21 41 -70 30 -117 -26 -166 -101 -190 -294 -15 -117 25 -230 116 -326 109
-114 215 -154 383 -147 128 6 226 38 397 127 421 222 525 383 352 547 -95 91
-207 134 -363 139 -60 2 -130 0 -155 -4z"/>
<path d="M27054 11931 c-80 -23 -156 -72 -180 -116 -20 -37 -28 -42 -40 -24
-9 16 -116 4 -196 -21 -112 -34 -212 -143 -284 -308 -59 -135 -46 -219 49
-316 120 -122 213 -156 425 -156 147 0 237 19 491 104 173 58 315 132 378 198
36 37 77 117 86 165 10 51 -17 138 -68 222 -48 79 -160 177 -247 215 -129 57
-294 71 -414 37z m289 -35 c78 -20 224 -106 263 -153 42 -52 90 -152 105 -218
16 -70 2 -121 -48 -176 -39 -43 -146 -127 -178 -139 -11 -4 -51 -22 -89 -39
-147 -68 -350 -121 -496 -130 -175 -10 -280 12 -381 80 -107 72 -143 152 -120
266 35 174 176 332 297 333 54 1 125 18 145 36 14 12 18 12 33 -5 29 -32 227
-65 306 -52 52 9 42 15 -55 31 -96 17 -166 36 -189 53 -29 22 -4 54 68 88 101
47 222 56 339 25z"/>
<path d="M23690 11907 c-100 -30 -203 -83 -252 -131 -34 -32 -39 -43 -34 -67
3 -16 1 -29 -4 -29 -43 0 -139 -160 -159 -267 -10 -53 -2 -132 18 -186 27 -69
104 -144 200 -192 174 -87 381 -47 687 136 123 73 236 183 253 246 17 61 13
114 -14 172 -31 66 -120 173 -186 223 -145 109 -340 145 -509 95z m328 -57
c95 -36 154 -79 218 -158 91 -111 117 -208 77 -287 -60 -116 -326 -288 -522
-336 -169 -42 -302 -15 -398 80 -61 61 -83 116 -83 203 1 123 38 218 106 270
30 22 40 25 67 17 65 -18 134 -7 96 16 -5 4 -14 18 -19 31 -8 19 -17 24 -44
24 -18 0 -39 7 -46 15 -27 33 66 96 205 140 104 33 233 28 343 -15z"/>
<path d="M29887 11807 c-67 -26 -131 -83 -158 -142 -24 -51 -25 -161 -3 -236
14 -48 28 -78 82 -176 22 -39 152 -165 215 -206 31 -21 74 -41 95 -44 20 -3
45 -10 56 -15 41 -22 183 -33 321 -27 216 10 345 51 381 121 38 74 -7 218
-109 345 -114 143 -226 223 -397 284 -36 12 -84 36 -108 51 -104 71 -260 89
-375 45z m232 -52 c4 -25 19 -35 51 -35 45 0 134 -37 145 -59 8 -17 16 -20 40
-15 54 10 189 -63 288 -155 80 -74 165 -228 174 -314 5 -51 3 -57 -22 -81 -77
-71 -400 -106 -599 -64 -188 40 -336 190 -410 414 -13 39 -16 67 -10 115 9 82
15 99 56 142 42 44 83 65 150 75 77 11 132 2 137 -23z"/>
<path d="M8052 10768 c-24 -24 -10 -329 22 -463 8 -33 17 -72 21 -87 3 -16 9
-28 14 -28 14 0 18 52 9 146 -9 92 -4 301 8 392 l7 52 -35 0 c-19 0 -39 -5
-46 -12z"/>
<path d="M18675 10723 c-15 -15 -16 -30 -9 -127 10 -123 9 -318 -1 -746 -7
-251 -6 -287 8 -298 8 -7 17 -9 20 -5 5 9 21 205 38 483 15 232 19 681 6 698
-13 17 -43 15 -62 -5z"/>
<path d="M9420 10681 c-91 -35 -217 -129 -296 -219 -94 -108 -113 -148 -121
-256 -5 -73 -3 -90 16 -129 30 -62 80 -110 148 -142 146 -70 300 13 437 234
85 138 111 210 111 311 0 73 -4 92 -27 136 -18 35 -38 56 -61 68 -46 21 -149
20 -207 -3z m171 -65 c21 -9 46 -53 54 -97 11 -61 -12 -148 -72 -268 -44 -90
-70 -128 -119 -177 -71 -72 -127 -104 -180 -104 -53 0 -130 46 -167 100 -27
38 -32 56 -35 115 -4 89 13 131 78 194 34 31 50 55 50 72 0 29 64 83 160 136
88 47 162 57 231 29z"/>
<path d="M5366 10611 c-31 -35 -37 -106 -31 -416 7 -353 14 -430 35 -430 13 0
16 46 21 325 4 179 12 359 19 400 19 115 18 134 -6 138 -11 2 -28 -6 -38 -17z"/>
<path d="M21294 10455 c-12 -12 -23 -25 -25 -31 -2 -5 -25 -27 -52 -49 -61
-52 -186 -220 -234 -313 -59 -116 -49 -200 32 -270 69 -61 109 -75 231 -80 97
-4 125 -1 215 22 168 43 291 96 464 198 55 32 121 74 147 93 66 48 128 129
128 167 0 47 -49 126 -107 174 -109 88 -238 114 -558 111 -208 -2 -221 -3
-241 -22z m550 -50 c115 -30 170 -57 223 -111 44 -43 53 -59 53 -88 0 -48 -49
-109 -143 -176 -241 -173 -581 -288 -765 -260 -111 18 -202 90 -202 161 0 79
115 276 213 366 42 38 72 56 115 68 31 9 68 24 82 33 47 31 314 36 424 7z"/>
<path d="M24140 10416 c-82 -17 -182 -46 -195 -56 -5 -4 -48 -24 -94 -44 -133
-57 -168 -105 -93 -125 48 -14 109 -14 117 -1 9 15 -14 40 -36 40 -43 0 -24
22 46 54 71 33 140 55 245 78 76 17 268 14 331 -5 117 -36 179 -98 179 -181 0
-94 -118 -242 -281 -353 -114 -77 -362 -192 -548 -253 -177 -59 -380 -76 -505
-44 -65 17 -134 62 -160 106 -34 57 -11 159 68 292 79 134 325 358 433 394 18
6 72 14 120 18 49 4 96 11 106 16 21 11 22 57 1 65 -24 9 -179 -16 -240 -38
-113 -43 -377 -278 -470 -420 -98 -148 -120 -293 -58 -381 115 -164 475 -176
809 -28 22 9 49 20 60 24 27 8 285 137 345 172 275 159 408 332 379 490 -12
65 -43 98 -135 145 l-81 41 -139 4 c-94 2 -160 -1 -204 -10z"/>
<path d="M13321 10391 c-109 -41 -189 -125 -277 -291 -63 -119 -87 -223 -74
-325 22 -165 144 -357 265 -415 198 -95 668 55 715 229 14 52 7 101 -27 184
-50 123 -142 222 -263 283 -41 20 -101 57 -134 81 -65 46 -86 52 -107 27 -20
-24 -2 -42 88 -89 236 -123 322 -213 367 -389 14 -53 14 -62 -1 -93 -41 -87
-187 -160 -378 -189 -106 -16 -221 -4 -272 28 -50 30 -97 91 -143 184 -53 107
-67 179 -53 276 16 111 100 274 190 369 87 91 213 111 334 52 75 -37 94 -40
103 -17 15 39 -107 101 -218 110 -45 3 -75 -1 -115 -15z"/>
<path d="M14420 10394 c-30 -8 -66 -18 -80 -21 -49 -11 -79 -56 -46 -69 8 -3
50 6 93 21 68 24 88 27 163 22 104 -6 144 -18 207 -60 70 -48 103 -117 103
-216 0 -99 -33 -172 -121 -265 -190 -203 -414 -264 -545 -149 -105 92 -86 277
43 414 63 68 139 102 226 103 72 1 94 15 81 50 -26 67 -235 -1 -344 -113 -82
-84 -124 -173 -129 -273 -4 -99 17 -166 71 -220 160 -160 439 -91 676 167 75
82 103 150 109 265 6 104 -19 181 -79 246 -82 88 -291 136 -428 98z"/>
<path d="M27025 10309 c-81 -15 -135 -30 -220 -62 -99 -38 -146 -67 -179 -109
-13 -18 -50 -60 -81 -93 -70 -75 -104 -135 -145 -255 -31 -90 -32 -100 -27
-195 9 -155 55 -263 151 -358 108 -106 233 -147 455 -148 176 0 294 25 476
103 205 89 419 255 490 382 53 95 68 172 55 264 -31 210 -202 379 -446 441
-153 39 -400 53 -529 30z m484 -73 c57 -15 136 -44 175 -64 239 -123 334 -386
210 -583 -159 -253 -573 -459 -925 -459 -91 0 -234 26 -295 54 -68 31 -157
120 -187 187 -50 112 -52 123 -52 229 0 131 27 221 98 327 56 84 82 106 108
93 44 -24 80 0 44 30 -23 19 -2 37 61 50 67 14 90 43 54 72 -16 13 -18 19 -9
22 8 3 44 14 81 26 124 40 203 49 373 46 133 -3 177 -8 264 -30z"/>
<path d="M30070 10159 c-118 -18 -121 -27 -9 -28 115 -1 287 -34 374 -71 26
-11 54 -20 63 -20 16 0 95 -45 179 -101 21 -15 62 -52 90 -83 186 -203 240
-418 144 -572 -34 -55 -138 -144 -191 -163 -19 -7 -46 -19 -60 -26 -129 -67
-534 -72 -750 -8 -94 28 -199 89 -235 137 -67 89 -100 201 -92 310 8 119 31
171 112 252 81 81 162 125 273 149 73 15 111 10 199 -26 29 -12 35 -11 49 3
24 24 11 46 -43 69 -41 18 -62 20 -149 16 -92 -4 -109 -8 -188 -46 -109 -50
-171 -102 -236 -194 -58 -83 -81 -148 -81 -239 -1 -93 8 -133 51 -223 41 -85
97 -151 165 -190 68 -39 211 -84 308 -96 87 -11 367 -6 387 6 5 3 44 10 87 15
73 10 207 52 218 70 2 4 28 19 58 33 72 36 126 84 165 149 44 73 55 192 27
295 -33 126 -119 258 -231 355 -76 65 -97 79 -199 131 -152 77 -351 116 -485
96z"/>
<path d="M9323 9498 c-5 -7 -20 -61 -33 -120 -21 -101 -22 -121 -16 -320 6
-180 4 -245 -15 -423 -31 -311 -35 -395 -16 -395 30 0 47 81 67 316 6 72 15
157 20 190 5 32 8 165 7 294 l-1 235 32 97 c26 77 31 101 22 118 -12 22 -52
27 -67 8z"/>
<path d="M8080 9138 c-43 -70 -52 -129 -45 -286 4 -81 8 -149 10 -152 2 -3 9
-122 15 -265 9 -192 16 -268 27 -289 32 -62 37 -8 27 343 -14 547 -14 538 19
594 27 46 28 49 11 68 -24 27 -41 24 -64 -13z"/>
<path d="M13326 9028 c-19 -18 -62 -64 -96 -102 -54 -61 -61 -74 -56 -100 5
-23 -2 -46 -28 -96 -96 -184 -109 -375 -36 -520 93 -182 248 -235 498 -169
112 30 188 73 268 153 81 81 144 197 165 304 16 85 7 195 -21 260 -47 108
-224 234 -369 263 -39 7 -97 10 -155 6 -84 -6 -93 -5 -104 13 -17 27 -27 25
-66 -12z m279 -53 c110 -21 197 -67 277 -145 55 -55 69 -76 83 -125 55 -188
-55 -439 -237 -543 -122 -70 -348 -96 -443 -51 -83 39 -151 149 -162 260 -11
117 40 290 123 416 34 51 44 75 40 94 -4 23 1 31 34 53 39 25 94 43 160 49 19
2 38 5 42 5 3 1 41 -5 83 -13z"/>
<path d="M14805 9021 c-98 -27 -131 -42 -263 -123 -65 -40 -146 -87 -182 -106
-75 -39 -90 -56 -60 -72 27 -14 75 7 200 89 241 159 419 204 534 137 93 -55
182 -181 193 -276 25 -210 -237 -540 -527 -663 -180 -77 -316 -53 -389 66 -30
51 -55 179 -47 249 9 79 44 173 88 240 70 105 200 208 262 208 23 0 56 23 56
39 0 14 -24 31 -45 31 -39 0 -139 -58 -209 -122 -170 -153 -228 -295 -206
-504 17 -162 81 -263 190 -299 81 -27 203 -17 305 24 319 129 624 510 591 735
-11 73 -69 178 -132 243 -106 107 -222 141 -359 104z"/>
<path d="M18867 8993 c-27 -26 16 -73 115 -126 37 -20 75 -40 85 -46 10 -5 54
-24 98 -41 107 -43 175 -82 223 -130 60 -61 67 -85 42 -152 -28 -75 -69 -134
-158 -230 -165 -174 -530 -409 -752 -483 -206 -69 -385 -44 -485 67 -98 108
-150 337 -111 484 48 180 241 372 421 419 104 27 172 21 279 -25 101 -43 136
-49 157 -24 20 25 0 45 -67 65 -32 10 -90 29 -129 44 -59 21 -80 24 -135 19
-141 -13 -260 -76 -404 -214 -134 -129 -196 -255 -196 -399 0 -195 114 -424
242 -484 21 -10 67 -25 104 -34 146 -36 362 17 598 148 111 61 286 175 386
250 67 51 221 208 263 269 43 62 76 147 77 197 0 36 -7 49 -52 99 -84 91 -203
160 -364 209 -52 15 -165 81 -182 106 -13 19 -42 25 -55 12z"/>
<path d="M21680 8939 c-73 -7 -151 -22 -193 -38 -44 -17 -144 -88 -165 -118
-16 -23 -33 -31 -86 -41 -155 -29 -322 -147 -413 -292 -47 -73 -93 -177 -103
-229 -23 -124 -8 -235 42 -295 49 -60 98 -79 203 -79 77 0 106 5 199 37 337
113 759 419 927 671 77 115 84 192 24 264 -72 85 -258 136 -435 120z m208 -55
c72 -21 141 -56 166 -83 32 -35 33 -109 2 -176 -37 -81 -179 -246 -267 -311
-15 -10 -69 -51 -120 -89 -272 -204 -578 -338 -734 -322 -116 12 -165 74 -165
210 0 65 6 94 36 175 62 165 164 284 307 356 94 48 189 59 262 31 50 -18 75
-10 75 25 0 16 -16 26 -72 44 -10 3 -18 10 -18 15 0 13 91 78 136 97 105 44
291 57 392 28z"/>
<path d="M5372 8928 c-23 -28 -54 -137 -59 -208 -4 -56 3 -124 26 -270 17
-107 34 -240 37 -295 6 -132 12 -165 28 -165 8 0 16 14 19 33 6 41 -8 287 -22
397 -7 47 -16 119 -22 160 -13 101 -7 162 26 243 23 56 26 73 17 93 -13 26
-34 31 -50 12z"/>
<path d="M24230 8911 c-26 -50 -3 -282 49 -501 60 -252 105 -567 99 -704 -2
-55 1 -81 9 -83 35 -12 48 118 32 322 -11 138 -26 232 -66 430 -53 254 -54
260 -52 397 2 133 -4 158 -42 158 -10 0 -23 -9 -29 -19z"/>
<path d="M27246 8561 c-7 -11 20 -22 38 -15 7 3 70 -2 138 -11 173 -22 269
-63 377 -161 101 -92 124 -170 77 -262 -65 -127 -254 -246 -551 -344 -288 -95
-497 -133 -700 -125 -148 5 -195 20 -265 83 -75 68 -87 139 -46 257 61 171
187 298 413 414 75 39 101 39 66 0 -47 -52 -47 -97 1 -97 31 0 37 8 24 35 -13
29 9 62 68 99 67 42 121 58 147 43 12 -8 57 -22 99 -32 63 -15 80 -16 93 -5
40 33 2 65 -92 77 -44 6 -79 6 -89 0 -9 -5 -38 -6 -65 -3 -75 10 -247 -54
-410 -153 -86 -53 -226 -193 -271 -271 -130 -230 -75 -408 152 -484 101 -33
194 -41 326 -26 292 32 761 179 920 287 23 15 60 40 82 55 63 42 147 132 171
183 43 92 17 180 -84 280 -114 115 -315 185 -525 185 -49 0 -91 -4 -94 -9z"/>
<path d="M27155 8550 c-3 -5 1 -10 9 -10 9 0 16 5 16 10 0 6 -4 10 -9 10 -6 0
-13 -4 -16 -10z"/>
<path d="M29925 8519 c-95 -19 -148 -39 -128 -46 7 -3 77 5 155 17 194 30 346
20 502 -35 166 -59 291 -192 325 -348 21 -89 -16 -183 -106 -268 -51 -48 -133
-102 -174 -113 -13 -4 -44 -15 -69 -25 -51 -21 -225 -63 -345 -83 -44 -7 -150
-13 -235 -13 -173 0 -253 17 -341 73 -253 161 -215 434 81 588 48 25 65 29
130 27 41 -1 90 -3 109 -5 23 -2 37 2 45 14 16 27 -14 50 -75 58 -65 9 -124
-2 -202 -37 -144 -63 -235 -142 -289 -250 -28 -58 -30 -68 -26 -140 9 -136 72
-231 202 -303 112 -63 182 -81 331 -87 110 -4 155 -1 290 21 88 14 171 30 185
35 14 5 61 19 105 31 130 37 244 95 312 159 38 36 100 124 112 160 18 55 14
169 -10 230 -68 179 -236 299 -483 342 -135 24 -282 23 -401 -2z"/>
<path d="M32632 6965 c0 -16 2 -22 5 -12 2 9 2 23 0 30 -3 6 -5 -1 -5 -18z"/>
<path d="M32631 6874 c0 -11 3 -14 6 -6 3 7 2 16 -1 19 -3 4 -6 -2 -5 -13z"/>
<path d="M32632 6800 c0 -19 2 -27 5 -17 2 9 2 25 0 35 -3 9 -5 1 -5 -18z"/>
<path d="M32632 6665 c0 -16 2 -22 5 -12 2 9 2 23 0 30 -3 6 -5 -1 -5 -18z"/>
<path d="M32633 6515 c0 -27 2 -38 4 -22 2 15 2 37 0 50 -2 12 -4 0 -4 -28z"/>
<path d="M32627 6383 c-6 -11 -1 -93 7 -100 3 -4 6 19 6 50 0 54 -3 67 -13 50z"/>
<path d="M32631 6184 c0 -11 3 -14 6 -6 3 7 2 16 -1 19 -3 4 -6 -2 -5 -13z"/>
<path d="M32627 6153 c-11 -10 -8 -53 3 -53 6 0 10 14 10 30 0 31 -2 35 -13
23z"/>
<path d="M32629 6038 c-6 -15 -5 -76 2 -88 5 -10 8 3 9 38 0 42 -5 64 -11 50z"/>
<path d="M32617 5876 c-6 -15 1 -26 15 -26 4 0 8 9 8 20 0 23 -15 27 -23 6z"/>
<path d="M32615 5820 c-8 -14 4 -70 15 -70 11 0 10 69 -1 76 -4 2 -11 0 -14
-6z"/>
<path d="M32609 5653 c-1 -30 -4 -52 -14 -93 -6 -26 17 -71 31 -58 9 10 16
137 8 160 -8 27 -24 21 -25 -9z"/>
<path d="M32606 5441 c-3 -5 -5 -46 -5 -92 1 -46 0 -88 -1 -94 -5 -21 1 -35
14 -35 21 0 30 19 16 35 -8 10 -8 24 1 55 9 29 9 44 1 52 -5 5 -8 25 -5 43 5
31 -9 55 -21 36z"/>
<path d="M32607 5183 c-4 -3 -7 -19 -7 -35 0 -35 23 -34 28 1 4 25 -10 46 -21
34z"/>
<path d="M32600 5075 c-18 -22 0 -37 24 -20 10 8 15 18 11 24 -9 15 -20 14
-35 -4z"/>
<path d="M32600 4890 c0 -18 4 -29 10 -25 6 3 10 15 10 25 0 10 -4 22 -10 25
-6 4 -10 -7 -10 -25z"/>
<path d="M32600 4826 c0 -17 14 -29 23 -20 8 8 -3 34 -14 34 -5 0 -9 -6 -9
-14z"/>
<path d="M32596 4693 c-4 -9 -3 -20 2 -25 6 -6 12 -1 15 11 6 25 -8 38 -17 14z"/>
<path d="M32596 4614 c-9 -23 -7 -54 3 -54 9 0 21 33 21 58 0 17 -17 15 -24
-4z"/>
<path d="M32597 4521 c-6 -23 9 -39 24 -24 5 5 4 16 -4 28 -13 17 -14 17 -20
-4z"/>
<path d="M32589 4408 c-6 -20 -4 -239 2 -249 9 -14 10 -3 14 107 1 22 4 45 8
50 8 14 -4 94 -14 94 -5 0 -9 -1 -10 -2z"/>
<path d="M32596 4103 c-3 -3 -6 -22 -6 -40 0 -45 24 -39 27 5 1 31 -8 48 -21
35z"/>
<path d="M32584 4005 c-7 -17 4 -37 17 -30 12 8 12 45 -1 45 -6 0 -13 -7 -16
-15z"/>
<path d="M32575 3881 c-6 -11 9 -23 19 -14 9 9 7 23 -3 23 -6 0 -12 -4 -16 -9z"/>
<path d="M32590 3760 c0 -5 5 -10 11 -10 5 0 7 5 4 10 -3 6 -8 10 -11 10 -2 0
-4 -4 -4 -10z"/>
<path d="M32580 3705 c0 -8 5 -15 10 -15 6 0 10 7 10 15 0 8 -4 15 -10 15 -5
0 -10 -7 -10 -15z"/>
<path d="M32590 3644 c0 -8 5 -12 10 -9 6 4 8 11 5 16 -9 14 -15 11 -15 -7z"/>
<path d="M32575 3589 c-4 -6 -4 -13 -1 -16 8 -8 36 5 36 17 0 13 -27 13 -35
-1z"/>
<path d="M32566 3444 c-4 -9 -4 -19 -2 -21 8 -8 26 8 26 23 0 19 -16 18 -24
-2z"/>
<path d="M32571 2854 c0 -11 3 -14 6 -6 3 7 2 16 -1 19 -3 4 -6 -2 -5 -13z"/>
<path d="M32560 2640 c0 -19 3 -21 12 -12 9 9 9 15 0 24 -9 9 -12 7 -12 -12z"/>
<path d="M32560 1966 c0 -9 5 -16 10 -16 6 0 10 4 10 9 0 6 -4 13 -10 16 -5 3
-10 -1 -10 -9z"/>
<path d="M32525 1330 c3 -5 13 -10 21 -10 8 0 14 5 14 10 0 6 -9 10 -21 10
-11 0 -17 -4 -14 -10z"/>
<path d="M32540 1226 c0 -9 5 -16 10 -16 6 0 10 4 10 9 0 6 -4 13 -10 16 -5 3
-10 -1 -10 -9z"/>
<path d="M32525 1190 c3 -5 10 -10 16 -10 5 0 9 5 9 10 0 6 -7 10 -16 10 -8 0
-12 -4 -9 -10z"/>
</g>
</svg>
