<?xml version="1.0" standalone="no"?>
<!DOCTYPE svg PUBLIC "-//W3C//DTD SVG 20010904//EN"
 "http://www.w3.org/TR/2001/REC-SVG-20010904/DTD/svg10.dtd">
<svg version="1.0" xmlns="http://www.w3.org/2000/svg"
 width="2448.000000pt" height="3264.000000pt" viewBox="0 0 2448.000000 3264.000000"
 preserveAspectRatio="xMidYMid meet">
<metadata>
Created by potrace 1.12, written by Peter Selinger 2001-2015
</metadata>
<g transform="translate(0.000000,3264.000000) scale(0.100000,-0.100000)"
fill="#000000" stroke="none">
<path d="M15465 32603 c10 -75 20 -313 30 -728 3 -121 10 -285 16 -365 5 -80
9 -166 9 -192 0 -25 4 -49 10 -53 6 -3 8 -10 5 -15 -6 -10 -6 -70 0 -145 3
-27 5 -61 4 -75 -2 -93 10 -250 20 -269 12 -22 0 -106 -18 -124 -9 -9 -142
-13 -489 -14 -582 -2 -1663 -20 -2017 -33 -143 -5 -327 -12 -410 -15 -82 -3
-247 -10 -365 -15 -118 -5 -368 -14 -555 -20 -187 -6 -536 -17 -775 -25 -404
-14 -871 -27 -1390 -40 -197 -5 -559 -18 -870 -30 -69 -3 -350 -9 -625 -15
-887 -17 -1028 -20 -1165 -26 -117 -4 -675 -34 -915 -49 -497 -30 -1619 -47
-2025 -31 -96 3 -322 9 -502 11 -431 6 -528 -7 -528 -71 0 -25 0 -25 63 -17
34 4 148 7 252 6 1503 -14 2106 -4 3135 51 620 33 670 36 845 37 83 0 292 5
465 9 173 5 416 12 540 15 124 3 347 10 495 15 149 5 333 12 410 15 183 6 463
14 755 20 129 3 305 8 390 10 423 14 764 26 850 30 52 2 203 7 335 10 132 3
519 17 860 30 968 38 1478 52 2245 61 278 3 617 9 755 14 137 4 253 6 258 3 4
-2 0 -17 -10 -33 -15 -27 -15 -30 2 -56 l18 -28 18 23 c14 17 16 28 9 41 -16
29 -12 37 22 51 29 12 240 15 258 4 4 -2 245 -5 536 -6 515 -2 731 -6 1289
-29 383 -15 957 -49 1375 -81 113 -9 156 -8 197 2 29 6 53 15 53 18 0 12 -65
36 -100 38 -118 5 -253 13 -375 22 -547 40 -1127 68 -1600 76 -159 3 -329 7
-376 10 -150 7 -980 6 -1084 -2 -140 -10 -163 -9 -183 11 -18 17 -20 43 -20
241 -1 50 -2 101 -2 115 -1 14 -3 61 -4 105 -1 44 -5 85 -9 91 -6 11 -9 61 -6
114 1 14 -3 113 -9 220 -6 107 -14 314 -18 460 -3 146 -8 335 -11 420 -3 85
-6 174 -7 198 0 41 -1 42 -33 42 -33 0 -33 -1 -28 -37z"/>
<path d="M16177 32503 c-12 -11 -8 -23 8 -23 9 0 18 -7 21 -15 8 -20 20 -19
28 2 10 26 -38 56 -57 36z"/>
<path d="M16116 32471 c-4 -7 -5 -15 -2 -18 9 -9 19 4 14 18 -4 11 -6 11 -12
0z"/>
<path d="M20439 32465 c-24 -13 -57 -65 -41 -65 4 0 25 15 46 33 42 35 39 54
-5 32z"/>
<path d="M16535 32430 c-11 -18 5 -31 26 -20 11 6 17 15 14 21 -8 12 -32 12
-40 -1z"/>
<path d="M16431 32416 c-8 -10 -9 -16 -2 -21 13 -7 51 12 51 25 0 15 -36 12
-49 -4z"/>
<path d="M22735 32299 c-4 -6 -5 -13 -2 -16 7 -7 27 6 27 18 0 12 -17 12 -25
-2z"/>
<path d="M22625 32290 c-3 -5 -2 -10 4 -10 5 0 13 5 16 10 3 6 2 10 -4 10 -5
0 -13 -4 -16 -10z"/>
<path d="M16435 32220 c-3 -5 1 -10 9 -10 9 0 16 5 16 10 0 6 -4 10 -9 10 -6
0 -13 -4 -16 -10z"/>
<path d="M16335 32090 c-3 -5 -2 -10 4 -10 5 0 13 5 16 10 3 6 2 10 -4 10 -5
0 -13 -4 -16 -10z"/>
<path d="M20205 32020 c-15 -16 -15 -20 -3 -20 8 0 23 9 33 20 15 16 15 20 3
20 -8 0 -23 -9 -33 -20z"/>
<path d="M20040 31818 c-29 -32 -14 -37 18 -5 14 15 21 27 15 27 -7 0 -21 -10
-33 -22z"/>
<path d="M19977 31747 c-11 -29 -9 -43 4 -30 6 6 9 19 7 29 -3 18 -4 18 -11 1z"/>
<path d="M16115 31389 c-4 -6 -4 -13 -1 -16 8 -8 36 5 36 17 0 13 -27 13 -35
-1z"/>
<path d="M15995 31220 c-3 -5 3 -10 14 -10 12 0 21 5 21 10 0 6 -6 10 -14 10
-8 0 -18 -4 -21 -10z"/>
<path d="M16000 31081 c-30 -27 -51 -53 -47 -58 5 -4 21 7 36 25 15 17 32 32
38 32 11 0 43 32 43 43 0 15 -17 4 -70 -42z"/>
<path d="M15930 31109 c0 -5 5 -7 10 -4 6 3 10 8 10 11 0 2 -4 4 -10 4 -5 0
-10 -5 -10 -11z"/>
<path d="M19368 30492 c-24 -5 -23 -29 2 -37 11 -3 51 -5 90 -4 47 1 74 -2 86
-12 12 -10 51 -15 128 -17 168 -4 173 -4 291 -13 61 -4 160 -11 220 -14 61 -2
146 -7 190 -10 158 -10 243 -14 430 -20 203 -7 240 -1 240 40 0 19 -10 20
-245 27 -135 4 -337 12 -450 19 -265 16 -269 16 -440 25 -80 4 -167 9 -195 11
-76 5 -114 5 -188 -3 -44 -4 -72 -3 -81 5 -12 10 -38 11 -78 3z"/>
<path d="M15550 30419 c-6 -11 -12 -55 -12 -97 -1 -1068 -6 -1598 -16 -1742
-29 -438 -35 -725 -22 -999 7 -146 15 -282 17 -301 3 -19 6 -469 7 -1000 2
-531 6 -1019 9 -1085 4 -66 14 -253 22 -415 8 -162 20 -365 25 -450 6 -85 10
-179 10 -209 l0 -53 -127 6 c-122 6 -650 21 -1073 31 -107 2 -289 7 -405 10
-115 3 -286 7 -380 9 -93 3 -303 9 -465 15 -162 6 -475 15 -695 21 -220 6
-510 15 -645 20 -436 17 -503 20 -620 25 -394 17 -1201 25 -2870 27 -1518 2
-1959 0 -2215 -11 -234 -11 -672 -15 -1635 -16 -1305 -2 -1500 -6 -2025 -40
-431 -29 -485 -41 -485 -115 0 -29 25 -35 84 -22 97 23 295 51 428 61 467 37
695 42 1902 41 929 0 1306 3 1680 16 299 11 747 17 1186 18 1195 2 3211 -7
3490 -15 379 -11 888 -28 1150 -39 384 -16 799 -30 1220 -40 223 -5 475 -12
560 -15 85 -3 274 -7 420 -10 146 -4 299 -8 340 -10 41 -2 201 -6 355 -10 154
-3 301 -8 327 -11 26 -2 151 -5 278 -5 186 0 230 -3 230 -13 0 -110 48 -1309
65 -1626 29 -543 34 -1020 16 -1515 -7 -165 -16 -412 -21 -550 -19 -499 -11
-923 30 -1575 32 -507 42 -768 30 -790 -12 -23 -14 -23 -95 -10 -69 11 -524
13 -2270 10 -682 -1 -1332 1 -1445 5 -495 14 -3157 23 -3271 10 -24 -2 -215
-7 -424 -10 -209 -3 -531 -9 -715 -15 -678 -19 -1098 -27 -2195 -43 -1297 -18
-1420 -16 -1957 24 -133 10 -150 10 -174 -5 -18 -13 -24 -24 -22 -44 5 -47 33
-52 243 -49 105 2 246 -1 315 -5 183 -11 612 -10 1320 1 344 6 870 13 1170 16
300 3 597 7 660 10 63 3 223 7 355 10 132 3 364 10 515 15 727 25 1425 32
2380 26 547 -4 1090 -9 1205 -12 684 -18 4329 -3 4368 17 46 25 46 19 48 -531
2 -730 15 -951 94 -1675 24 -220 51 -484 60 -585 73 -858 112 -1198 196 -1690
22 -129 44 -264 49 -300 5 -36 19 -126 30 -200 21 -140 49 -379 75 -630 8 -80
22 -199 30 -265 8 -66 26 -212 40 -325 36 -289 45 -351 66 -471 10 -58 15
-116 12 -127 -6 -25 -43 -31 -123 -19 -76 12 -2270 1 -2620 -13 -275 -10 -516
-23 -1045 -55 -396 -24 -858 -53 -1010 -65 -159 -12 -626 -42 -1010 -65 -143
-8 -363 -22 -490 -30 -126 -8 -410 -24 -630 -35 -220 -11 -519 -27 -665 -35
-324 -18 -649 -31 -1090 -45 -380 -12 -673 -25 -870 -40 -74 -6 -225 -17 -335
-25 -1069 -80 -1636 -126 -1965 -161 -185 -20 -274 -25 -362 -21 -132 7 -164
17 -153 50 24 75 -5 84 -96 29 -80 -49 -86 -70 -31 -107 81 -54 240 -67 492
-41 393 41 533 54 880 82 107 8 274 22 370 29 96 8 294 24 440 35 146 11 342
27 435 35 342 29 715 47 1550 75 380 13 1301 60 1965 100 692 41 1336 82 1760
110 619 42 846 56 1090 70 319 18 768 39 950 45 241 9 2441 16 2517 9 l62 -6
5 -62 c2 -33 10 -119 16 -191 6 -71 13 -168 15 -215 3 -47 9 -170 15 -275 11
-208 16 -301 25 -535 7 -178 26 -431 79 -1040 8 -91 18 -255 21 -365 9 -289 9
-1924 0 -2090 -5 -77 -9 -448 -10 -825 -1 -478 -5 -720 -14 -800 -7 -63 -14
-135 -16 -160 -2 -25 -13 -142 -24 -260 -44 -467 -44 -1961 -1 -2004 28 -28
33 15 29 261 -5 415 -4 542 4 968 9 526 14 635 38 890 11 116 25 262 31 325 6
65 12 470 14 925 3 446 6 833 8 860 6 82 6 1608 1 1791 -8 241 -23 486 -45
734 -29 327 -39 456 -50 680 -14 268 -38 746 -45 885 -7 115 -32 394 -41 456
-6 35 -5 37 30 49 19 6 39 9 44 6 11 -6 224 -14 607 -21 160 -3 369 -8 465
-10 96 -2 333 -7 525 -10 309 -5 842 -25 1070 -40 44 -3 130 -7 190 -10 182
-9 801 -44 945 -55 115 -8 226 -18 480 -45 211 -23 555 -69 595 -80 28 -8 68
-16 90 -18 133 -15 375 -73 492 -118 29 -12 33 -11 52 12 11 13 20 29 21 36 1
47 -233 109 -695 183 -304 50 -788 100 -1100 115 -71 3 -220 13 -330 21 -110
8 -303 19 -430 24 -126 6 -273 12 -325 15 -450 23 -739 33 -1125 40 -323 6
-1369 25 -1510 28 l-100 2 -7 45 c-4 25 -19 140 -34 255 -14 116 -34 275 -45
355 -39 302 -54 427 -89 760 -31 287 -54 452 -120 845 -100 596 -115 716 -175
1395 -24 280 -36 401 -55 570 -6 47 -15 137 -20 200 -6 63 -17 176 -25 250
-28 254 -45 446 -66 750 -5 80 -12 420 -15 757 l-5 612 22 12 c14 7 43 9 78 5
31 -3 256 -8 501 -11 989 -11 2125 -44 2820 -80 151 -8 421 -21 600 -30 179
-8 379 -19 445 -25 66 -5 188 -14 270 -20 83 -6 204 -15 270 -20 66 -6 212
-17 325 -25 113 -8 248 -20 300 -25 52 -5 183 -17 290 -25 107 -9 236 -20 285
-25 193 -20 295 -8 295 35 0 21 -25 25 -194 35 -150 10 -371 26 -661 50 -66 5
-187 14 -270 20 -82 6 -197 15 -255 20 -190 18 -661 49 -900 60 -129 5 -302
15 -385 20 -82 5 -202 12 -265 15 -302 13 -1041 39 -1670 60 -161 5 -687 14
-1303 21 -322 3 -466 1 -509 -7 -86 -17 -88 -14 -94 157 -6 191 -20 464 -39
749 -35 549 -38 1062 -10 1755 25 617 27 876 11 1292 -9 211 -18 406 -21 433
-2 28 -7 120 -10 205 -3 85 -7 202 -10 260 -3 58 -15 335 -25 615 -11 281 -23
529 -26 552 -6 40 -4 43 22 54 16 5 54 8 84 5 30 -3 233 -8 450 -11 1382 -20
2293 -57 2850 -115 52 -6 181 -19 287 -30 286 -30 696 -79 883 -105 58 -8 175
-24 260 -35 85 -10 189 -24 230 -30 41 -6 128 -14 192 -17 99 -5 122 -3 143
11 51 34 27 56 -59 56 -61 0 -127 7 -536 61 -273 35 -372 47 -520 64 -80 9
-174 20 -210 25 -36 6 -94 12 -130 15 -36 3 -105 10 -155 15 -533 58 -1108 98
-1725 120 -418 15 -1104 30 -1609 35 -250 3 -456 6 -457 8 -3 3 -11 158 -19
352 -3 77 -7 160 -10 185 -23 227 -36 770 -39 1695 -2 630 -7 986 -16 1080
-19 227 -16 683 10 1130 19 345 21 449 15 755 -10 524 -6 984 11 1088 5 33 3
47 -11 62 -23 25 -32 25 -45 -1z"/>
<path d="M7946 30000 c-196 -35 -483 -243 -565 -411 -73 -149 -25 -324 121
-440 76 -60 141 -87 254 -104 259 -39 513 36 765 226 146 110 184 176 184 314
-1 141 -63 245 -181 307 -78 40 -134 55 -256 64 -51 4 -100 14 -127 27 -51 23
-123 30 -195 17z m435 -150 c142 -28 209 -79 229 -175 25 -121 -11 -204 -134
-306 -234 -192 -506 -273 -760 -224 -141 27 -210 70 -252 160 -33 70 -32 152
2 225 34 73 195 232 281 278 l62 33 7 -26 c7 -29 27 -32 71 -10 43 22 179 55
224 55 20 0 51 -8 68 -17 30 -18 31 -17 46 3 16 23 52 24 156 4z"/>
<path d="M10413 30001 c-17 -5 -54 -20 -82 -35 -28 -14 -61 -26 -74 -26 -37 0
-106 -51 -198 -146 -97 -101 -142 -163 -157 -216 -31 -113 93 -311 235 -375
162 -72 266 -69 431 14 131 65 275 225 317 354 22 66 16 160 -15 225 -31 63
-113 143 -185 179 -52 26 -72 30 -150 32 -49 1 -104 -2 -122 -6z m227 -91 c79
-22 147 -91 172 -172 24 -80 -26 -183 -146 -309 -81 -84 -135 -121 -223 -150
-125 -41 -299 -12 -382 64 -35 32 -71 116 -71 165 0 63 33 117 128 209 64 63
91 83 112 83 28 0 120 46 120 60 0 14 48 40 102 55 54 15 124 13 188 -5z"/>
<path d="M12663 29999 c-164 -21 -352 -152 -429 -300 -27 -50 -29 -62 -28
-164 0 -138 23 -205 94 -275 139 -140 440 -129 740 26 154 79 250 181 264 280
6 43 2 57 -26 112 -49 97 -114 142 -239 167 -17 3 -31 15 -38 33 -13 30 -48
61 -112 98 -43 25 -138 35 -226 23z m228 -91 c64 -36 60 -56 -19 -100 -17 -9
-38 -28 -48 -43 -15 -22 -15 -28 -3 -40 12 -12 23 -10 74 12 74 33 182 37 232
10 43 -23 101 -87 108 -118 28 -126 -285 -327 -574 -369 -114 -17 -207 -8
-279 27 -48 23 -61 36 -82 78 -21 43 -25 63 -25 140 1 118 29 182 118 269 102
100 234 154 381 155 62 1 86 -3 117 -21z"/>
<path d="M17599 29994 c-95 -15 -139 -30 -246 -87 -81 -44 -144 -102 -210
-194 -59 -83 -83 -148 -83 -226 0 -74 20 -134 66 -204 47 -71 109 -116 207
-150 74 -25 95 -28 212 -27 120 0 136 3 206 30 100 40 230 119 288 174 129
124 139 296 25 450 -47 64 -125 121 -200 147 -35 12 -44 20 -44 38 0 14 -11
32 -26 44 -31 24 -67 25 -195 5z m252 -151 c74 -34 166 -122 199 -189 31 -62
27 -139 -9 -195 -51 -78 -142 -149 -276 -213 -110 -53 -183 -69 -290 -63 -195
11 -318 100 -340 247 -13 92 32 191 139 307 69 74 111 101 120 78 8 -22 34
-18 85 12 73 43 118 53 216 50 75 -3 101 -9 156 -34z"/>
<path d="M5453 29892 c-129 -68 -303 -220 -380 -333 -98 -142 -134 -262 -114
-383 30 -182 131 -287 321 -337 204 -53 405 14 644 212 113 94 235 221 270
281 14 25 31 71 37 102 9 52 8 61 -15 112 -59 129 -195 217 -399 257 -106 22
-122 28 -155 59 -20 20 -47 41 -59 47 -37 19 -95 13 -150 -17z m37 -91 c-51
-27 -87 -68 -72 -83 8 -8 26 -6 69 7 32 10 81 19 109 19 50 1 54 -1 113 -57
72 -69 104 -74 109 -19 2 18 10 36 17 38 20 8 132 -48 204 -101 65 -48 121
-123 121 -163 0 -78 -263 -335 -451 -440 -165 -94 -332 -105 -485 -33 -200 93
-249 302 -119 499 98 150 329 352 400 351 15 0 11 -5 -15 -18z"/>
<path d="M17448 28643 c-28 -32 -38 -189 -40 -603 l-3 -405 26 -3 c49 -6 52
18 59 433 6 351 8 385 28 450 27 85 27 107 4 128 -24 22 -55 22 -74 0z"/>
<path d="M10187 28536 c-199 -82 -395 -326 -463 -576 -26 -98 -25 -259 4 -331
97 -245 389 -277 699 -77 140 91 284 264 323 390 27 85 26 205 0 290 -34 110
-149 200 -236 184 -33 -7 -34 -6 -34 23 0 22 -8 36 -32 54 -95 71 -164 82
-261 43z m199 -102 c24 -14 44 -29 44 -34 0 -4 -13 -13 -29 -20 -40 -16 -85
-65 -78 -84 8 -21 30 -20 75 3 63 32 154 47 191 31 83 -34 120 -163 87 -301
-24 -100 -58 -160 -140 -247 -124 -131 -249 -209 -396 -247 -142 -37 -285 -1
-325 80 -26 54 -27 231 -1 320 40 140 114 264 220 371 73 73 124 108 197 134
72 26 102 25 155 -6z"/>
<path d="M12695 28517 c-12 -30 -54 -236 -92 -452 -17 -97 -24 -399 -10 -448
5 -19 13 -27 25 -25 15 3 19 26 28 163 17 228 69 527 114 643 25 65 26 114 2
135 -29 26 -52 21 -67 -16z"/>
<path d="M8103 28330 c-98 -26 -245 -98 -318 -157 -127 -103 -225 -216 -225
-261 0 -10 -10 -56 -21 -102 -45 -176 -9 -331 101 -434 129 -120 308 -150 545
-90 80 21 191 81 289 159 91 71 132 113 200 202 67 89 79 123 80 223 0 116
-33 197 -118 288 -71 76 -187 156 -259 177 -68 20 -186 18 -274 -5z m277 -86
c107 -32 204 -113 256 -216 20 -40 28 -73 32 -130 4 -69 2 -83 -25 -140 -66
-141 -294 -333 -460 -389 -79 -26 -214 -38 -310 -28 -225 24 -314 205 -228
464 50 149 106 216 187 225 61 6 79 26 58 65 -12 22 -12 28 1 39 27 27 134 73
214 94 136 35 198 39 275 16z"/>
<path d="M5525 28275 c-33 -7 -95 -29 -137 -48 -64 -29 -93 -52 -185 -143
-126 -125 -141 -145 -175 -234 -69 -176 -29 -380 98 -500 80 -76 129 -95 244
-94 81 1 108 6 182 33 215 80 471 320 585 548 31 63 36 82 36 145 0 54 -5 83
-21 114 -33 65 -120 122 -247 161 -99 31 -285 40 -380 18z m333 -115 c95 -27
158 -59 204 -104 69 -67 62 -114 -35 -258 -116 -172 -300 -334 -454 -398 -64
-27 -95 -34 -175 -38 -91 -4 -101 -3 -152 22 -124 61 -203 221 -175 355 32
154 135 261 252 261 53 0 73 22 64 69 -13 62 -12 65 16 79 92 45 320 51 455
12z"/>
<path d="M17425 27205 c-173 -47 -428 -161 -489 -218 -37 -35 -47 -72 -24 -95
22 -22 56 -12 110 33 94 81 388 207 519 222 l52 6 -7 -39 c-16 -89 -83 -169
-388 -462 -76 -73 -138 -138 -138 -145 0 -7 7 -23 16 -35 25 -36 85 -29 221
23 332 128 396 151 476 171 46 11 71 23 78 36 17 31 -4 43 -74 42 -66 -1 -224
-51 -420 -133 -53 -23 -102 -41 -108 -41 -6 0 70 80 168 178 154 152 184 187
213 247 47 97 48 155 2 196 -29 26 -39 29 -95 28 -34 0 -84 -6 -112 -14z"/>
<path d="M12631 26935 c-30 -14 -77 -27 -106 -29 -59 -4 -117 -31 -191 -87
-85 -65 -144 -205 -130 -307 16 -123 69 -203 158 -243 45 -20 68 -24 153 -23
227 1 444 110 513 257 61 131 -16 361 -143 426 -74 39 -181 41 -254 6z m248
-91 c42 -25 67 -62 91 -135 15 -43 19 -74 15 -98 -26 -142 -248 -263 -485
-265 -89 -1 -98 1 -142 29 -52 33 -88 87 -88 133 0 65 39 159 85 206 50 52 65
57 65 21 0 -38 29 -32 96 20 77 60 84 60 98 -7 4 -19 13 -28 26 -28 31 0 43
33 29 80 -9 30 -9 44 -1 52 30 30 156 25 211 -8z"/>
<path d="M5732 26928 c-70 -18 -86 -19 -107 -8 -33 18 -86 7 -170 -34 -88 -44
-158 -105 -233 -205 -49 -65 -66 -99 -95 -188 -20 -59 -40 -132 -46 -161 -46
-228 -1 -444 111 -532 60 -48 114 -64 193 -57 139 11 300 111 484 303 247 258
353 463 317 616 -25 107 -85 183 -181 231 -110 54 -168 61 -273 35z m194 -109
c106 -40 194 -149 194 -241 0 -99 -132 -298 -328 -495 -266 -267 -522 -317
-616 -120 -80 167 -42 422 96 643 56 89 188 210 188 171 0 -7 -13 -26 -29 -41
-36 -35 -54 -75 -49 -112 5 -46 31 -40 67 15 102 159 317 239 477 180z"/>
<path d="M10066 26934 c-19 -19 -20 -44 -1 -204 16 -143 46 -320 76 -450 17
-74 24 -90 40 -90 28 0 33 38 20 143 -6 51 -18 148 -27 217 -8 69 -14 174 -12
233 l3 109 -33 29 c-37 33 -45 35 -66 13z"/>
<path d="M7978 26849 c-173 -140 -252 -310 -252 -544 0 -110 2 -125 28 -181
37 -82 104 -146 186 -180 57 -23 73 -25 135 -19 212 20 444 175 644 433 18 23
44 73 57 110 42 120 27 188 -48 215 -24 8 -90 33 -148 55 -64 25 -138 45 -190
52 -76 10 -96 9 -180 -9 -144 -32 -212 -89 -137 -115 20 -8 43 -5 95 11 97 31
149 36 238 23 74 -11 231 -65 282 -96 27 -18 28 -48 3 -115 -56 -147 -314
-384 -488 -449 -180 -67 -297 -46 -356 63 -20 38 -22 56 -22 177 0 114 4 145
23 200 44 128 132 247 221 297 85 49 99 73 65 121 -27 39 -61 29 -156 -49z"/>
<path d="M12701 25781 c-23 -15 -26 -73 -18 -360 4 -152 9 -394 10 -538 2
-262 5 -286 35 -250 21 25 34 219 28 422 -6 188 6 565 20 647 5 31 2 41 -20
62 -27 28 -34 30 -55 17z"/>
<path d="M8383 25749 c-105 -18 -164 -47 -233 -118 -147 -149 -219 -284 -260
-482 -18 -84 -21 -123 -16 -204 11 -175 44 -275 111 -333 64 -57 108 -73 195
-73 94 0 118 5 190 42 125 62 255 204 348 379 85 162 102 299 57 475 -13 54
-34 116 -45 139 -45 94 -120 154 -220 175 -56 12 -54 12 -127 0z m190 -103
c51 -22 77 -59 103 -148 37 -125 42 -244 15 -343 -46 -166 -171 -350 -306
-449 -94 -68 -159 -90 -257 -84 -64 3 -73 7 -98 35 -33 36 -56 128 -66 254 -8
100 12 221 56 340 35 97 56 128 138 206 61 58 65 63 59 97 -5 31 -2 39 19 53
70 46 268 69 337 39z"/>
<path d="M17460 25740 c-25 -5 -127 -22 -226 -39 -198 -34 -256 -50 -291 -83
-28 -27 -29 -40 -2 -63 18 -17 24 -18 52 -6 85 35 143 51 272 75 77 14 171 32
210 41 38 8 73 15 77 15 24 0 -2 -39 -77 -120 -66 -71 -88 -101 -100 -142 -14
-48 -14 -53 6 -85 29 -46 56 -58 226 -99 157 -37 253 -71 253 -88 0 -5 -12
-27 -26 -48 -25 -36 -91 -89 -209 -169 -61 -41 -260 -131 -373 -168 -46 -16
-93 -37 -104 -49 l-20 -20 23 -12 c15 -8 47 -11 94 -7 206 15 575 214 674 363
41 63 40 91 -6 135 -75 71 -178 115 -344 149 -57 11 -109 26 -116 33 -19 18 6
59 100 163 89 98 113 140 103 178 -12 49 -83 66 -196 46z"/>
<path d="M10163 25643 c-16 -24 -18 -48 -15 -193 2 -134 7 -183 27 -260 38
-151 71 -218 97 -192 8 8 5 42 -11 116 -26 132 -29 344 -6 424 18 59 12 96
-18 117 -32 22 -54 18 -74 -12z"/>
<path d="M5795 25636 c-51 -16 -181 -82 -220 -111 -24 -19 -46 -24 -110 -27
-112 -4 -191 -44 -277 -138 -120 -131 -175 -306 -165 -529 8 -198 59 -342 159
-447 59 -63 112 -84 209 -84 182 0 352 113 533 354 148 196 268 430 297 576
12 62 8 145 -11 211 -23 82 -127 160 -257 194 -68 18 -104 18 -158 1z m200
-122 c73 -34 140 -100 156 -153 21 -71 -6 -177 -87 -339 -94 -187 -191 -331
-293 -433 -140 -141 -252 -201 -375 -202 -108 -1 -181 56 -242 188 -86 189
-83 410 9 605 54 113 173 210 259 210 l40 0 -7 -39 c-4 -24 -2 -41 4 -46 18
-11 47 4 59 30 7 16 20 25 34 25 36 0 50 15 57 56 6 36 11 42 77 76 114 60
215 67 309 22z"/>
<path d="M8288 23778 c-25 -43 -15 -324 20 -598 17 -135 35 -284 41 -332 12
-105 32 -151 64 -146 21 3 22 8 19 77 -1 40 -16 193 -32 340 -30 267 -39 504
-20 516 13 8 13 40 -1 84 -24 75 -28 81 -53 81 -16 0 -30 -9 -38 -22z"/>
<path d="M12891 23728 c-66 -7 -203 -43 -320 -85 -82 -29 -170 -136 -226 -273
-26 -65 -23 -207 6 -286 53 -141 228 -244 413 -244 183 1 462 156 573 318 132
194 80 421 -119 514 -113 54 -204 69 -327 56z m219 -90 c232 -57 301 -256 151
-442 -73 -91 -227 -191 -359 -233 -66 -21 -92 -24 -177 -21 -118 4 -185 30
-259 98 -56 52 -70 92 -65 192 8 144 111 296 232 338 97 34 174 23 226 -34 27
-29 53 -33 70 -12 16 19 3 44 -41 81 -18 16 -33 31 -33 34 0 20 173 19 255 -1z"/>
<path d="M5870 23696 c-30 -6 -62 -16 -70 -21 -8 -5 -89 -10 -180 -10 -151 -1
-171 -4 -237 -28 -163 -58 -326 -174 -359 -254 -58 -138 -25 -271 110 -439
134 -166 315 -281 507 -320 133 -27 320 6 471 82 87 44 196 146 236 222 122
228 56 579 -132 706 -98 67 -223 89 -346 62z m244 -96 c71 -27 117 -68 153
-137 46 -87 67 -189 60 -287 -16 -228 -148 -376 -397 -445 -261 -73 -497 1
-706 221 -82 86 -120 158 -136 251 -9 58 -8 73 7 114 51 133 268 260 475 279
79 8 90 -4 46 -45 -32 -30 -78 -124 -70 -144 12 -33 43 -17 100 53 31 38 72
79 91 91 35 22 35 22 61 2 56 -42 81 -92 94 -188 13 -100 20 -115 54 -115 38
0 46 28 30 119 -15 85 -37 130 -95 194 -18 21 -31 40 -27 44 27 27 180 22 260
-7z"/>
<path d="M17333 23651 c-21 -13 -44 -45 -72 -101 -53 -107 -55 -161 -10 -232
59 -92 143 -130 277 -128 43 1 82 1 87 1 7 -1 7 -37 -2 -113 -13 -120 -5 -188
22 -188 24 0 33 30 44 149 20 200 92 406 171 489 57 60 51 102 -16 102 -64 0
-126 -95 -173 -260 -29 -106 -41 -114 -159 -107 -101 6 -140 21 -176 70 -15
20 -21 42 -20 75 1 55 19 93 74 157 44 51 48 66 24 89 -20 21 -32 20 -71 -3z"/>
<path d="M10577 23630 c-21 -4 -66 -26 -100 -50 -49 -33 -65 -40 -77 -31 -8 6
-42 25 -75 41 -85 42 -171 42 -237 1 -68 -43 -150 -175 -177 -286 -37 -150
-31 -275 20 -429 38 -115 75 -163 161 -205 50 -25 73 -31 127 -31 225 1 480
153 620 370 111 172 100 388 -27 531 -64 72 -152 105 -235 89z m125 -100 c51
-14 94 -70 119 -153 36 -117 8 -234 -87 -360 -101 -134 -243 -226 -418 -269
-77 -19 -96 -20 -152 -11 -112 19 -134 45 -164 184 -37 178 -22 321 47 449 44
83 76 116 129 136 59 22 123 6 205 -52 35 -24 70 -44 80 -44 26 0 40 24 33 57
-7 35 -4 38 67 57 66 18 93 19 141 6z"/>
<path d="M12863 22533 c-17 -25 -18 -62 -16 -504 2 -291 7 -488 13 -504 7 -17
16 -25 28 -23 16 3 18 33 24 393 6 344 13 466 34 580 4 22 0 38 -16 58 -27 34
-45 34 -67 0z"/>
<path d="M17645 22282 c-75 -7 -185 -37 -238 -65 -71 -37 -108 -82 -114 -140
-12 -104 108 -233 297 -317 105 -48 193 -96 204 -112 26 -41 -79 -170 -180
-221 -27 -13 -76 -30 -109 -37 -95 -19 -113 -48 -47 -76 112 -47 327 60 396
198 61 122 14 188 -212 298 -152 74 -204 109 -243 162 -40 56 -38 92 7 135 36
34 71 55 112 67 19 6 22 4 22 -17 0 -39 25 -54 63 -38 128 52 167 64 232 66
39 1 90 8 115 15 29 8 98 11 202 9 136 -4 160 -2 174 13 15 15 15 17 -7 31
-47 28 -158 38 -404 35 -132 -2 -253 -4 -270 -6z"/>
<path d="M6135 22234 c-51 -13 -71 -14 -127 -3 -117 21 -205 -6 -376 -117 -97
-63 -276 -237 -336 -328 -132 -199 -132 -336 -2 -498 106 -132 257 -214 432
-233 77 -9 263 18 357 50 197 69 456 273 567 446 103 160 117 337 39 491 -39
78 -97 133 -177 171 -62 29 -76 32 -192 34 -88 2 -143 -2 -185 -13z m346 -89
c65 -23 133 -92 155 -158 25 -70 24 -204 0 -277 -36 -108 -89 -180 -214 -293
-190 -169 -389 -262 -592 -274 -221 -13 -396 69 -510 240 -36 53 -40 66 -40
121 1 79 30 151 106 257 91 126 265 278 396 345 54 27 85 32 48 7 -72 -48
-125 -122 -103 -144 13 -13 47 5 118 61 68 54 180 95 219 80 35 -13 63 -5 71
20 6 19 15 23 75 34 53 10 226 -2 271 -19z"/>
<path d="M10390 22126 c-79 -33 -184 -101 -213 -139 -116 -153 -121 -368 -11
-555 40 -67 139 -161 201 -189 82 -38 198 -43 289 -13 223 72 409 256 454 449
33 139 -41 294 -179 375 -78 45 -134 57 -293 64 -99 3 -141 9 -149 18 -16 19
-35 17 -99 -10z m415 -120 c77 -17 101 -27 151 -64 95 -70 109 -186 40 -328
-111 -225 -380 -360 -594 -298 -76 22 -159 104 -192 189 -48 121 -37 280 26
377 29 46 104 98 141 98 15 0 55 9 88 20 73 23 249 26 340 6z"/>
<path d="M8420 22093 c0 -16 5 -46 12 -68 6 -25 11 -161 12 -362 1 -297 2
-324 19 -340 18 -17 19 -17 33 1 10 14 14 48 14 116 0 54 5 153 10 222 6 68
11 178 12 244 4 166 -16 214 -86 214 -22 0 -26 -5 -26 -27z"/>
<path d="M10556 20917 c-31 -23 -38 -95 -41 -432 -4 -459 9 -560 66 -524 11 7
15 74 20 366 6 322 9 366 28 433 24 86 27 133 8 148 -22 19 -61 23 -81 9z"/>
<path d="M12794 20901 c-11 -5 -64 -9 -117 -9 -86 0 -102 -3 -159 -31 -83 -39
-181 -137 -207 -206 -79 -212 -35 -359 131 -435 68 -31 81 -34 203 -38 129 -4
131 -4 244 34 292 96 433 286 372 496 -17 60 -96 150 -153 173 -48 21 -277 32
-314 16z m291 -116 c154 -78 167 -215 32 -342 -196 -186 -569 -235 -720 -94
-64 58 -70 104 -31 211 30 80 95 160 153 189 20 10 69 21 109 25 l73 7 34 -36
c46 -51 70 -45 69 15 -1 25 4 49 10 53 6 4 56 6 111 5 88 -3 108 -7 160 -33z"/>
<path d="M17531 20848 c-96 -47 -217 -189 -270 -317 -67 -161 -12 -325 132
-395 123 -60 315 -55 447 11 125 62 152 127 84 202 -68 76 -215 97 -318 47
-72 -35 -118 -87 -114 -129 4 -40 17 -43 59 -13 81 59 149 87 213 88 71 2 121
-18 121 -47 0 -14 -17 -28 -60 -50 -163 -81 -368 -90 -461 -19 -57 42 -68 153
-27 273 32 96 159 239 259 293 50 26 62 47 38 65 -25 18 -53 16 -103 -9z"/>
<path d="M8614 20803 c-14 -15 -16 -30 -11 -108 4 -49 17 -146 31 -215 14 -69
32 -172 41 -230 25 -172 56 -270 85 -270 25 0 31 24 21 73 -5 23 -17 119 -26
212 -14 149 -23 234 -51 475 -9 75 -49 104 -90 63z"/>
<path d="M5830 20666 c-111 -42 -145 -61 -203 -109 -57 -47 -92 -104 -107
-172 -6 -27 -25 -81 -42 -120 -43 -94 -51 -219 -19 -309 89 -254 306 -380 553
-322 151 36 263 110 454 300 95 95 128 135 154 188 30 62 32 74 28 140 -8 117
-64 208 -188 303 -122 94 -208 121 -405 129 -140 5 -140 5 -225 -28z m371 -66
c182 -34 372 -211 372 -346 0 -56 -42 -128 -130 -223 -133 -144 -298 -262
-412 -295 -95 -28 -245 -16 -320 24 -74 39 -172 171 -192 258 -12 51 6 151 40
225 51 114 189 260 309 329 46 26 60 30 100 24 26 -3 54 -1 62 4 20 13 103 13
171 0z"/>
<path d="M13029 20084 c-7 -8 -12 -32 -12 -52 0 -20 -6 -109 -13 -197 -7 -88
-18 -299 -24 -470 -6 -170 -15 -404 -21 -519 -5 -115 -8 -210 -6 -212 10 -10
35 9 47 34 7 16 15 106 20 227 26 633 34 764 55 926 22 166 22 234 1 267 -10
17 -31 15 -47 -4z"/>
<path d="M10667 19576 c-6 -16 9 -551 17 -626 3 -25 11 -92 17 -150 15 -141
25 -180 48 -180 27 0 31 31 21 145 -13 142 -12 449 2 590 17 173 16 194 -11
216 -28 23 -86 25 -94 5z"/>
<path d="M8686 19478 c-10 -17 -16 -76 -21 -208 -12 -350 37 -690 101 -690 24
0 26 23 9 101 -22 100 -32 456 -16 592 19 164 18 197 -4 213 -27 20 -53 17
-69 -8z"/>
<path d="M17247 19490 c-58 -18 -73 -52 -37 -85 18 -16 27 -17 115 -4 155 21
543 -14 625 -56 29 -15 31 -19 25 -52 -14 -78 -112 -251 -205 -363 -91 -111
-180 -250 -180 -284 0 -8 8 -19 17 -24 23 -13 56 3 76 38 9 15 67 92 128 170
157 202 216 302 239 407 19 84 -28 155 -127 193 -62 23 -228 47 -428 60 -175
11 -210 11 -248 0z"/>
<path d="M6065 19329 c-22 -4 -64 -8 -93 -8 -29 -1 -68 -7 -86 -15 -36 -15
-225 -143 -264 -179 -30 -28 -47 -91 -33 -126 10 -22 6 -40 -19 -109 -66 -182
-22 -376 112 -497 65 -58 109 -81 205 -106 134 -34 252 -23 380 35 179 83 435
293 493 406 30 58 33 179 6 258 -54 159 -205 285 -403 336 -65 17 -228 20
-298 5z m318 -93 c217 -69 362 -268 317 -436 -32 -118 -385 -384 -558 -419
-164 -34 -337 13 -434 117 -72 77 -92 123 -91 212 3 177 143 423 278 486 66
31 89 30 147 -7 43 -28 52 -30 75 -20 23 11 25 16 20 53 l-5 41 101 -6 c56 -3
124 -13 150 -21z"/>
<path d="M8455 17656 c-98 -23 -184 -55 -290 -110 -81 -41 -116 -67 -185 -136
-99 -98 -130 -154 -138 -245 -4 -53 -1 -71 21 -116 45 -96 106 -161 193 -206
117 -61 171 -74 325 -80 357 -15 641 81 818 273 103 113 149 236 131 352 -17
101 -97 188 -209 223 -78 25 -284 36 -376 21 -52 -8 -65 -7 -98 10 -51 26
-119 31 -192 14z m685 -165 c83 -32 111 -58 117 -112 19 -169 -153 -376 -386
-463 -247 -93 -575 -91 -762 5 -92 46 -169 151 -169 229 0 92 173 255 356 336
76 33 84 30 36 -14 -29 -27 -42 -47 -42 -65 0 -45 36 -45 147 3 194 83 336
111 533 105 86 -2 129 -8 170 -24z"/>
<path d="M6344 17558 c-13 -21 -4 -882 11 -1006 14 -123 26 -150 51 -117 13
16 14 39 8 125 -9 134 -9 472 1 662 7 140 8 148 31 163 34 22 30 54 -12 116
-47 70 -72 86 -90 57z"/>
<path d="M10807 17439 c-80 -19 -208 -100 -297 -189 -110 -109 -151 -184 -158
-284 -6 -101 10 -152 67 -206 63 -61 151 -90 276 -90 111 0 194 22 332 89 250
121 385 260 386 395 1 59 -20 105 -67 148 -55 52 -155 91 -277 108 -39 6 -80
17 -92 25 -24 17 -108 19 -170 4z m296 -104 c79 -16 161 -58 188 -96 39 -55
17 -155 -51 -233 -75 -85 -229 -181 -381 -238 -69 -25 -100 -31 -169 -32 -109
-1 -166 23 -207 85 -25 37 -28 52 -28 118 0 61 5 87 27 133 33 71 80 130 137
174 42 32 45 33 63 17 16 -14 22 -14 43 -3 14 7 25 17 25 21 0 15 50 42 98 54
64 17 174 16 255 0z"/>
<path d="M12970 17401 c-218 -86 -359 -363 -294 -581 21 -72 98 -150 173 -175
72 -24 196 -17 266 15 143 65 267 170 319 270 84 160 45 301 -104 378 -35 17
-71 32 -81 32 -10 0 -21 5 -25 11 -3 6 -27 24 -52 40 -55 35 -130 39 -202 10z
m210 -142 c0 -11 -5 -40 -11 -64 -15 -60 -6 -95 26 -95 31 0 36 10 49 89 10
61 13 66 35 63 33 -3 88 -46 107 -84 12 -23 15 -47 11 -86 -12 -111 -115 -230
-265 -305 -76 -37 -92 -42 -176 -45 -99 -5 -148 10 -189 56 -51 56 -41 197 23
328 61 124 131 161 308 163 76 1 82 0 82 -20z"/>
<path d="M17957 17330 c-74 -29 -201 -125 -333 -252 -66 -65 -129 -118 -139
-118 -33 0 -186 83 -183 99 9 45 166 112 313 132 91 13 116 27 89 50 -25 21
-207 18 -274 -5 -135 -46 -232 -123 -216 -173 14 -42 73 -90 151 -122 44 -18
84 -37 88 -41 5 -4 -5 -32 -22 -61 -16 -30 -37 -81 -46 -115 -16 -56 -16 -64
-1 -125 20 -78 54 -128 116 -174 74 -54 121 -68 235 -69 202 -1 281 60 254
196 -22 113 -134 229 -298 311 -48 24 -94 46 -102 49 -10 4 10 30 66 88 126
129 267 229 382 270 41 15 50 40 23 62 -27 22 -43 22 -103 -2z m-294 -522
c146 -85 228 -166 258 -256 10 -30 8 -36 -12 -58 -32 -35 -115 -56 -222 -57
-108 -1 -142 12 -187 75 -42 57 -53 106 -41 173 16 85 67 175 99 175 8 0 55
-24 105 -52z"/>
<path d="M8815 16337 c-75 -19 -279 -114 -364 -170 -223 -146 -320 -342 -308
-622 5 -131 30 -219 81 -294 115 -166 490 -291 782 -261 227 24 474 139 615
286 65 69 96 120 140 229 28 70 33 95 37 200 4 102 1 132 -17 200 -27 99 -54
146 -123 211 -124 119 -320 184 -508 170 -73 -6 -89 -5 -100 9 -35 42 -152 63
-235 42z m527 -151 c53 -8 116 -23 140 -34 111 -49 192 -134 225 -239 22 -69
22 -250 0 -333 -57 -217 -222 -375 -490 -469 -225 -79 -501 -58 -735 56 -157
77 -218 153 -249 314 -38 201 40 442 156 477 23 7 59 23 79 37 52 34 240 111
341 140 73 20 192 42 326 58 61 8 113 6 207 -7z"/>
<path d="M6453 16054 c-13 -34 6 -419 26 -534 76 -429 91 -504 104 -518 20
-19 37 -7 37 27 0 15 -11 99 -25 187 -14 87 -32 204 -41 259 -17 109 -20 281
-9 449 7 95 5 109 -10 126 -22 24 -73 27 -82 4z"/>
<path d="M13006 15974 c-15 -14 -21 -49 -19 -99 1 -11 13 -99 27 -195 14 -96
32 -265 41 -375 8 -110 22 -240 30 -290 8 -49 15 -93 15 -97 0 -5 9 -8 19 -8
33 0 34 -35 -4 486 -9 116 -23 251 -31 300 -11 62 -14 114 -9 173 5 71 4 86
-11 102 -21 23 -38 24 -58 3z"/>
<path d="M10815 15956 c-67 -21 -118 -52 -169 -103 -156 -155 -227 -384 -174
-563 26 -86 111 -152 239 -185 101 -27 316 -17 429 20 207 67 388 193 448 312
45 88 47 195 6 275 -25 49 -115 133 -173 163 -78 39 -192 65 -286 65 -48 0
-100 6 -125 15 -51 18 -140 18 -195 1z m443 -101 c103 -27 183 -79 234 -153
30 -42 33 -54 33 -117 -1 -58 -6 -79 -30 -123 -68 -124 -249 -242 -451 -292
-69 -18 -109 -21 -189 -18 -90 3 -108 7 -168 37 -99 48 -121 85 -125 210 -3
79 0 109 18 161 45 136 140 268 207 291 89 29 367 32 471 4z"/>
<path d="M17533 15949 c-207 -35 -443 -209 -443 -326 0 -39 48 -88 117 -121
53 -24 71 -27 198 -30 159 -5 253 8 373 48 45 15 84 25 86 21 2 -3 -14 -42
-35 -86 -76 -157 -129 -381 -129 -550 0 -96 5 -115 30 -115 36 0 50 28 50 96
0 131 36 302 100 471 43 116 68 161 129 243 42 56 50 87 29 108 -21 21 -59 13
-108 -23 -101 -74 -237 -117 -435 -136 -207 -21 -315 5 -315 74 0 26 9 42 43
74 114 109 278 183 410 183 71 0 101 -15 150 -74 40 -48 74 -59 97 -32 22 27
6 59 -50 103 -81 63 -192 90 -297 72z"/>
<path d="M24396 15834 c-7 -18 -8 -64 -2 -64 3 0 17 11 32 25 22 21 25 27 14
40 -16 19 -36 19 -44 -1z"/>
<path d="M24376 15649 c-24 -59 -29 -99 -13 -99 37 0 71 96 42 120 -13 11 -17
7 -29 -21z"/>
<path d="M23515 14797 c-10 -8 -15 -19 -11 -25 12 -19 43 -14 73 13 l28 24
-36 1 c-19 0 -43 -6 -54 -13z"/>
<path d="M6707 14628 c-27 -40 -41 -277 -39 -655 1 -342 5 -393 33 -393 21 0
26 56 32 335 6 289 23 485 52 575 26 84 27 105 8 128 -10 12 -30 24 -45 27
-21 5 -30 2 -41 -17z"/>
<path d="M9159 14610 c-209 -24 -520 -143 -664 -254 -112 -86 -175 -185 -131
-202 9 -3 46 21 93 61 102 87 196 145 318 196 214 89 447 132 611 111 174 -23
306 -112 354 -240 79 -209 -10 -431 -230 -577 -150 -99 -405 -202 -560 -226
-105 -16 -251 -7 -322 20 -166 64 -228 187 -182 364 48 187 223 392 399 467
65 28 106 26 135 -5 29 -31 60 -29 77 4 15 32 4 53 -44 82 -53 33 -107 29
-196 -14 -187 -89 -361 -277 -445 -480 -23 -53 -26 -77 -27 -167 0 -121 15
-160 90 -235 92 -92 220 -131 408 -122 151 6 243 29 427 106 329 137 494 285
555 495 13 43 16 85 13 160 -3 90 -7 110 -35 167 -109 222 -337 324 -644 289z"/>
<path d="M11100 14365 c-7 -9 -17 -57 -21 -108 -5 -51 -13 -119 -19 -152 -17
-97 -24 -596 -11 -710 15 -131 59 -202 99 -161 12 12 13 29 3 109 -21 179 -8
586 25 781 17 105 34 208 34 218 1 33 -86 52 -110 23z"/>
<path d="M16994 14243 c-6 -5 -16 -18 -22 -29 -6 -12 -38 -36 -69 -54 -88 -50
-186 -153 -208 -218 -22 -68 -17 -157 10 -194 27 -37 90 -70 148 -79 137 -22
375 80 458 196 21 29 40 45 53 45 22 0 69 -51 85 -92 8 -21 184 -229 256 -304
34 -34 129 -108 191 -147 54 -34 111 -49 135 -36 32 17 21 33 -47 69 -68 36
-198 147 -275 235 -45 52 -185 235 -258 340 -22 31 -52 93 -67 137 -25 77 -28
81 -73 102 -36 16 -68 21 -151 23 -58 1 -116 5 -130 8 -14 3 -30 2 -36 -2z
m186 -109 c93 -8 97 -10 116 -59 16 -43 16 -47 -1 -92 -45 -119 -210 -232
-350 -241 -84 -5 -122 10 -154 61 -60 97 18 230 186 318 49 26 65 30 103 24
25 -3 70 -8 100 -11z"/>
<path d="M13135 14156 c-61 -20 -237 -114 -267 -144 -16 -14 -28 -37 -28 -50
0 -13 -15 -51 -34 -85 -110 -198 -79 -405 75 -500 68 -42 184 -62 271 -48 108
18 220 66 307 132 128 96 173 176 173 303 0 95 -48 191 -132 270 -62 57 -90
69 -186 82 -41 5 -55 12 -65 30 -14 28 -50 31 -114 10z m245 -145 c149 -57
226 -216 163 -337 -51 -96 -222 -212 -361 -244 -81 -19 -200 -9 -259 21 -68
35 -113 98 -113 156 0 107 103 299 197 365 72 52 281 74 373 39z"/>
<path d="M6751 13301 c-20 -37 14 -323 59 -493 34 -130 91 -364 117 -488 10
-43 39 -53 49 -16 9 36 -11 142 -69 376 l-51 205 -2 200 c-2 192 -3 200 -24
217 -29 23 -67 23 -79 -1z"/>
<path d="M13449 13053 c-18 -54 -14 -155 15 -354 41 -281 51 -468 51 -932 0
-361 2 -427 14 -425 8 2 21 21 30 43 14 34 16 98 15 455 0 426 -15 693 -50
938 -13 88 -14 122 -5 157 15 61 14 107 -5 133 -24 34 -50 28 -65 -15z"/>
<path d="M9360 13070 c-41 -4 -121 -17 -177 -29 -56 -11 -109 -21 -118 -21
-26 0 -263 -121 -342 -174 -79 -53 -157 -131 -148 -146 12 -20 42 -9 106 36
35 25 73 50 84 56 18 10 19 10 4 -13 -159 -244 -246 -440 -290 -651 -48 -235
3 -375 176 -488 89 -58 167 -81 301 -87 161 -8 317 30 522 127 252 120 412
261 505 446 48 97 62 161 60 289 -2 207 -62 362 -193 495 -83 85 -141 117
-255 143 -94 21 -146 25 -235 17z m203 -92 c245 -37 397 -252 399 -563 1 -183
-52 -313 -182 -446 -219 -224 -670 -394 -901 -339 -138 33 -256 119 -304 222
-62 134 -11 387 139 683 136 268 261 395 389 395 16 0 44 9 61 19 27 17 117
35 211 44 39 3 104 -2 188 -15z"/>
<path d="M17149 12954 c-23 -25 -24 -30 -24 -187 1 -89 9 -265 19 -392 10
-126 19 -295 21 -375 2 -80 4 -148 4 -152 1 -5 14 -8 29 -8 37 0 73 39 103
114 30 73 105 158 160 180 92 37 232 29 301 -17 42 -29 48 -75 17 -141 -44
-95 -209 -211 -336 -237 -59 -12 -63 -12 -114 14 -55 29 -89 28 -89 -3 0 -56
46 -83 140 -83 131 1 309 83 411 189 69 73 101 138 102 206 1 47 -2 54 -38 84
-63 56 -134 78 -250 78 -93 1 -105 -1 -168 -31 -45 -21 -87 -52 -121 -88 -30
-30 -58 -55 -63 -55 -21 0 -43 756 -25 850 7 38 7 59 0 68 -17 20 -53 14 -79
-14z"/>
<path d="M11246 12764 c-9 -8 -16 -17 -16 -18 0 -2 5 -28 10 -57 13 -68 29
-375 36 -719 7 -265 12 -305 46 -326 6 -4 19 3 30 16 17 21 18 53 18 549 0
593 3 571 -70 571 -22 0 -45 -7 -54 -16z"/>
<path d="M11540 10693 c-50 -8 -126 -36 -190 -69 -220 -115 -375 -356 -396
-616 -20 -249 161 -479 406 -516 119 -18 314 20 445 86 184 92 333 247 385
396 27 80 27 185 0 242 -39 79 -144 155 -275 197 -67 22 -274 57 -337 57 -53
0 -82 -11 -91 -34 -11 -29 21 -46 87 -46 89 0 271 -35 370 -71 161 -58 199
-107 178 -229 -31 -176 -163 -329 -367 -426 -131 -62 -230 -87 -345 -87 -75 0
-108 5 -155 23 -75 29 -152 100 -191 177 -26 53 -29 67 -29 163 1 259 137 492
354 608 137 73 257 86 352 36 60 -31 81 11 30 60 -46 45 -140 64 -231 49z"/>
<path d="M17438 10471 c-202 -85 -337 -302 -310 -498 23 -162 144 -292 342
-368 124 -49 216 -66 345 -67 119 0 188 15 193 44 3 16 -8 18 -125 17 -232 -1
-424 63 -545 182 -96 94 -113 132 -113 250 0 90 2 99 37 171 50 100 153 200
229 223 72 21 81 20 170 -21 78 -35 105 -37 137 -12 19 16 14 48 -10 57 -158
60 -244 66 -350 22z"/>
<path d="M9201 10427 c-20 -25 -44 -92 -51 -142 -4 -27 -19 -93 -34 -145 -34
-127 -56 -281 -56 -410 0 -138 9 -210 28 -217 25 -10 32 19 32 134 0 184 38
376 115 583 25 65 45 130 45 143 0 24 -37 67 -57 67 -6 0 -16 -6 -22 -13z"/>
<path d="M7341 10406 c-41 -49 -63 -398 -37 -586 8 -63 20 -173 26 -245 12
-143 24 -188 49 -183 23 5 25 74 7 301 -26 318 -18 465 33 597 26 69 27 106 2
120 -28 14 -66 13 -80 -4z"/>
<path d="M13750 10410 c-185 -12 -303 -63 -410 -175 -99 -106 -140 -250 -105
-370 23 -81 105 -163 191 -191 86 -28 295 -25 419 6 217 54 440 198 522 338
69 116 0 267 -156 346 -109 55 -186 63 -461 46z m366 -76 c59 -17 132 -62 168
-105 33 -39 42 -90 25 -141 -18 -55 -114 -151 -212 -212 -150 -93 -288 -135
-478 -143 -227 -11 -320 51 -321 213 -1 145 121 298 286 360 38 14 52 15 67 6
15 -10 32 -9 78 3 69 18 119 19 158 4 47 -18 91 -68 108 -124 22 -78 70 -109
98 -63 14 22 -30 110 -84 169 -56 61 -27 70 107 33z"/>
<path d="M11605 9250 c-239 -48 -499 -260 -615 -502 -55 -114 -68 -186 -46
-260 32 -112 132 -227 257 -297 243 -136 652 -68 960 160 118 88 219 224 255
344 12 40 18 93 19 160 0 90 -3 105 -27 151 -66 126 -198 201 -378 214 -58 5
-134 15 -170 24 -69 16 -188 19 -255 6z m145 -69 c0 -5 -39 -31 -87 -57 -100
-53 -219 -137 -233 -164 -16 -29 -12 -80 5 -80 8 0 47 25 85 55 150 115 262
173 383 195 45 9 55 7 95 -15 57 -32 80 -32 88 0 7 29 22 31 88 11 59 -18 110
-56 143 -109 21 -33 27 -57 31 -127 14 -247 -149 -452 -467 -590 -139 -60
-228 -81 -371 -87 -190 -8 -285 20 -387 111 -127 115 -141 229 -48 405 121
229 341 397 585 446 82 17 90 17 90 6z"/>
<path d="M9299 9183 c-19 -22 -24 -230 -10 -378 9 -95 101 -600 129 -710 4
-16 14 -30 22 -30 25 0 23 93 -4 237 -55 291 -67 379 -73 529 -4 106 -2 183 7
239 l13 83 -27 24 c-32 27 -39 28 -57 6z"/>
<path d="M7535 9149 c-10 -14 -6 -643 4 -818 7 -112 13 -147 26 -160 15 -15
17 -15 31 3 11 15 14 57 14 180 1 199 17 643 26 712 6 44 4 54 -15 73 -22 22
-75 29 -86 10z"/>
<path d="M13783 9033 c-7 -2 -25 -41 -40 -86 -26 -79 -27 -93 -34 -387 -4
-168 -12 -350 -18 -405 -13 -128 -14 -296 -1 -330 14 -38 43 -29 52 15 10 49
37 506 44 745 6 196 7 202 40 287 19 48 34 95 34 103 0 17 -43 66 -57 64 -4 0
-14 -3 -20 -6z"/>
<path d="M17939 8945 c-34 -18 -37 -33 -38 -190 -1 -147 -15 -352 -31 -449 -5
-35 -14 -128 -20 -206 -11 -176 -30 -208 -78 -135 -76 119 -247 137 -388 43
-67 -46 -94 -96 -94 -179 0 -63 28 -169 61 -230 43 -81 130 -152 239 -195 66
-25 88 -29 180 -29 93 0 112 3 163 27 53 25 71 48 47 63 -5 3 -33 -1 -62 -10
-105 -31 -251 -10 -354 50 -99 58 -169 179 -181 313 -10 106 41 165 155 179
58 7 105 -11 162 -63 53 -48 65 -71 85 -169 18 -88 27 -105 59 -105 48 0 54
16 59 160 3 74 21 257 40 405 38 283 74 693 64 720 -8 19 -34 19 -68 0z"/>
<path d="M7646 7821 c-7 -11 -14 -1268 -8 -1293 6 -23 29 -23 41 0 16 30 32
343 58 1088 6 169 6 171 -17 192 -24 22 -64 29 -74 13z"/>
<path d="M9529 7577 c-20 -44 6 -548 46 -877 19 -162 35 -312 35 -333 0 -40
24 -62 41 -36 16 25 9 180 -17 409 -21 179 -27 283 -30 510 -2 157 -4 291 -4
298 0 15 -36 52 -50 52 -6 0 -15 -10 -21 -23z"/>
<path d="M11603 7484 c-3 -8 -2 -45 1 -82 4 -37 7 -299 7 -582 -1 -283 3 -533
8 -554 5 -21 17 -46 25 -55 14 -13 18 -13 30 -1 17 17 26 273 29 872 l2 366
-24 26 c-27 29 -68 34 -78 10z"/>
<path d="M13724 7256 c-181 -59 -335 -200 -422 -386 -47 -101 -65 -182 -66
-300 -1 -100 1 -109 32 -173 55 -111 160 -199 298 -249 83 -30 226 -30 307 -1
78 29 150 79 218 149 67 71 103 131 135 224 101 299 -44 571 -313 588 -148 9
-259 -27 -265 -88 -3 -22 1 -25 27 -24 17 1 57 9 90 19 130 37 293 2 355 -77
85 -109 79 -317 -15 -476 -159 -269 -486 -333 -703 -137 -75 68 -92 106 -92
207 0 102 25 199 81 311 33 64 60 101 128 167 94 94 157 130 256 150 87 17 94
19 105 41 8 13 7 26 -1 42 -24 45 -51 47 -155 13z"/>
<path d="M18010 6449 c-41 -4 -88 -12 -105 -17 -216 -70 -407 -262 -469 -471
-26 -89 -17 -258 16 -295 4 -6 8 -16 8 -24 0 -19 71 -120 116 -166 55 -54 113
-92 191 -125 111 -47 268 -50 312 -6 24 23 4 31 -87 33 -96 2 -185 29 -257 77
-156 103 -246 263 -232 414 24 270 290 522 550 521 88 0 182 -49 217 -113 60
-107 5 -352 -99 -438 -75 -62 -225 -76 -292 -28 -35 25 -67 22 -86 -8 -14 -21
-13 -25 14 -52 56 -56 181 -64 301 -19 120 44 181 107 236 241 27 64 30 84 30
183 1 106 0 112 -29 160 -64 104 -177 149 -335 133z"/>
<path d="M7844 5675 c-4 -9 -2 -48 4 -87 9 -56 8 -98 -4 -193 -21 -161 -21
-166 71 -1060 27 -268 40 -326 68 -308 12 7 7 116 -33 633 -34 438 -37 562
-14 701 21 132 16 279 -10 308 -22 25 -74 28 -82 6z"/>
<path d="M13772 5428 c-19 -19 -14 -251 8 -426 11 -84 27 -251 35 -370 38
-528 47 -594 76 -552 6 9 8 68 4 155 -15 364 -27 553 -43 705 -10 97 -16 221
-14 302 2 109 0 143 -13 168 -16 32 -33 38 -53 18z"/>
<path d="M9672 5413 c-6 -10 -9 -137 -8 -303 l2 -285 48 -270 c26 -148 53
-301 59 -340 9 -50 16 -70 27 -70 28 0 22 93 -25 409 -56 380 -62 456 -45 655
14 172 9 214 -28 219 -12 2 -25 -4 -30 -15z"/>
<path d="M11770 5310 c-8 -16 -7 -41 5 -102 13 -62 16 -111 11 -207 -3 -69 -7
-353 -8 -631 -3 -474 -2 -505 14 -508 11 -2 21 5 27 20 16 44 41 435 41 648 0
118 5 294 11 390 14 205 3 357 -26 390 -23 26 -61 26 -75 0z"/>
<path d="M18474 5120 c-188 -27 -364 -142 -483 -315 -105 -152 -190 -382 -188
-511 1 -57 -2 -70 -19 -81 -17 -11 -26 -8 -72 22 -28 19 -60 35 -71 35 -28 0
-73 -57 -62 -79 8 -15 133 -71 159 -71 5 0 24 -13 41 -29 31 -29 31 -30 31
-126 0 -219 47 -388 100 -355 12 7 10 27 -8 127 -11 65 -27 158 -34 206 -17
119 -9 123 132 76 145 -48 362 -70 586 -58 199 11 324 37 324 66 0 16 -45 16
-352 -3 -143 -9 -470 49 -643 113 -50 18 -50 19 -53 66 -5 78 41 271 93 392
60 139 180 300 266 357 100 65 181 91 297 93 92 2 106 5 128 26 13 12 24 28
24 35 0 24 -87 30 -196 14z"/>
</g>
</svg>
